{
  "jsonPath": "Pop/Chamber Pop/Josh Rouse/reminiscent-album-version.json",
  "path": "Pop\\Chamber Pop\\Josh Rouse\\Reminiscent (Album Version).mid",
  "name": "Reminiscent (Album Version)",
  "difficulty": "Advanced",
  "bpm": 124.000248000496,
  "notes": [
    {
      "midi": 74,
      "hit": false,
      "t": 3140.1146875,
      "d": 224.29390624999996,
      "v": 113
    },
    {
      "midi": 77,
      "hit": false,
      "t": 3383.3097656249997,
      "d": 219.25359375000016,
      "v": 113
    },
    {
      "midi": 79,
      "hit": false,
      "t": 3627.764921875,
      "d": 364.162578125,
      "v": 113
    },
    {
      "midi": 55,
      "hit": false,
      "t": 3870.96,
      "d": 1794.3512500000006,
      "v": 62
    },
    {
      "midi": 58,
      "hit": false,
      "t": 3870.96,
      "d": 3840.7181250000003,
      "v": 62
    },
    {
      "midi": 62,
      "hit": false,
      "t": 3870.96,
      "d": 5752.256640625002,
      "v": 62
    },
    {
      "midi": 70,
      "hit": false,
      "t": 3870.96,
      "d": 89.4655468750002,
      "v": 96
    },
    {
      "midi": 69,
      "hit": false,
      "t": 4112.895,
      "d": 86.94539062500007,
      "v": 96
    },
    {
      "midi": 79,
      "hit": false,
      "t": 4124.235703125,
      "d": 244.45515625000007,
      "v": 100
    },
    {
      "midi": 70,
      "hit": false,
      "t": 4354.830000000001,
      "d": 99.54617187500025,
      "v": 93
    },
    {
      "midi": 67,
      "hit": false,
      "t": 4596.765000000001,
      "d": 118.44734375000007,
      "v": 86
    },
    {
      "midi": 79,
      "hit": false,
      "t": 4635.827421875,
      "d": 240.6749218750001,
      "v": 84
    },
    {
      "midi": 70,
      "hit": false,
      "t": 4838.700000000002,
      "d": 99.54617187500025,
      "v": 90
    },
    {
      "midi": 74,
      "hit": false,
      "t": 4841.2201562499995,
      "d": 143.64890625000044,
      "v": 106
    },
    {
      "midi": 75,
      "hit": false,
      "t": 5080.635,
      "d": 161.28999999999996,
      "v": 106
    },
    {
      "midi": 69,
      "hit": false,
      "t": 5080.635000000002,
      "d": 93.24578124999971,
      "v": 89
    },
    {
      "midi": 79,
      "hit": false,
      "t": 5138.59859375,
      "d": 236.89468750000015,
      "v": 68
    },
    {
      "midi": 74,
      "hit": false,
      "t": 5321.309921875,
      "d": 200.3524218749999,
      "v": 119
    },
    {
      "midi": 70,
      "hit": false,
      "t": 5322.5700000000015,
      "d": 90.72562500000004,
      "v": 105
    },
    {
      "midi": 77,
      "hit": false,
      "t": 5548.123984375,
      "d": 461.1885937500001,
      "v": 113
    },
    {
      "midi": 67,
      "hit": false,
      "t": 5564.505000000002,
      "d": 114.66710937500011,
      "v": 89
    },
    {
      "midi": 79,
      "hit": false,
      "t": 5648.9302343750005,
      "d": 230.5942968749996,
      "v": 51
    },
    {
      "midi": 53,
      "hit": false,
      "t": 5806.4400000000005,
      "d": 5830.381484375002,
      "v": 62
    },
    {
      "midi": 70,
      "hit": false,
      "t": 5806.440000000002,
      "d": 102.06632812499993,
      "v": 100
    },
    {
      "midi": 74,
      "hit": false,
      "t": 6030.7339062500005,
      "d": 332.6606249999995,
      "v": 100
    },
    {
      "midi": 69,
      "hit": false,
      "t": 6048.375000000002,
      "d": 84.4252343750004,
      "v": 86
    },
    {
      "midi": 79,
      "hit": false,
      "t": 6161.78203125,
      "d": 244.45515625000007,
      "v": 35
    },
    {
      "midi": 70,
      "hit": false,
      "t": 6290.310000000002,
      "d": 90.72562500000004,
      "v": 100
    },
    {
      "midi": 65,
      "hit": false,
      "t": 6532.245000000003,
      "d": 123.48765625000033,
      "v": 96
    },
    {
      "midi": 79,
      "hit": false,
      "t": 6664.5532031249995,
      "d": 192.79195312499996,
      "v": 19
    },
    {
      "midi": 70,
      "hit": false,
      "t": 6774.180000000003,
      "d": 95.76593750000029,
      "v": 90
    },
    {
      "midi": 69,
      "hit": false,
      "t": 7016.115000000003,
      "d": 98.28609374999996,
      "v": 87
    },
    {
      "midi": 74,
      "hit": false,
      "t": 7251.749609375001,
      "d": 180.19117187499978,
      "v": 106
    },
    {
      "midi": 70,
      "hit": false,
      "t": 7258.050000000004,
      "d": 105.84656249999989,
      "v": 85
    },
    {
      "midi": 77,
      "hit": false,
      "t": 7497.46484375,
      "d": 498.99093749999975,
      "v": 103
    },
    {
      "midi": 65,
      "hit": false,
      "t": 7499.985000000003,
      "d": 126.0078125,
      "v": 86
    },
    {
      "midi": 57,
      "hit": false,
      "t": 7741.92,
      "d": 3886.0809375000026,
      "v": 62
    },
    {
      "midi": 69,
      "hit": false,
      "t": 7741.920000000004,
      "d": 113.40703124999982,
      "v": 96
    },
    {
      "midi": 67,
      "hit": false,
      "t": 7983.855000000003,
      "d": 105.84656249999989,
      "v": 87
    },
    {
      "midi": 74,
      "hit": false,
      "t": 8007.796484375,
      "d": 338.9610156250001,
      "v": 103
    },
    {
      "midi": 69,
      "hit": false,
      "t": 8225.790000000003,
      "d": 88.20546875000036,
      "v": 94
    },
    {
      "midi": 65,
      "hit": false,
      "t": 8467.725000000002,
      "d": 109.62679687499985,
      "v": 94
    },
    {
      "midi": 69,
      "hit": false,
      "t": 8709.660000000002,
      "d": 97.02601562500058,
      "v": 92
    },
    {
      "midi": 67,
      "hit": false,
      "t": 8951.595000000003,
      "d": 81.90507812500073,
      "v": 90
    },
    {
      "midi": 74,
      "hit": false,
      "t": 9187.229609375,
      "d": 234.37453124999956,
      "v": 117
    },
    {
      "midi": 69,
      "hit": false,
      "t": 9193.530000000004,
      "d": 88.20546875000036,
      "v": 96
    },
    {
      "midi": 65,
      "hit": false,
      "t": 9435.465000000004,
      "d": 103.32640625000022,
      "v": 92
    },
    {
      "midi": 72,
      "hit": false,
      "t": 9448.06578125,
      "d": 507.81148437499905,
      "v": 100
    },
    {
      "midi": 60,
      "hit": false,
      "t": 9556.4325,
      "d": 1992.1835156250017,
      "v": 62
    },
    {
      "midi": 69,
      "hit": false,
      "t": 9677.400000000003,
      "d": 81.90507812500073,
      "v": 100
    },
    {
      "midi": 67,
      "hit": false,
      "t": 9919.335000000005,
      "d": 104.58648437500051,
      "v": 87
    },
    {
      "midi": 69,
      "hit": false,
      "t": 10161.270000000006,
      "d": 94.505859375,
      "v": 92
    },
    {
      "midi": 65,
      "hit": false,
      "t": 10403.205000000005,
      "d": 114.6671093749992,
      "v": 92
    },
    {
      "midi": 69,
      "hit": false,
      "t": 10645.140000000005,
      "d": 100.80624999999964,
      "v": 92
    },
    {
      "midi": 67,
      "hit": false,
      "t": 10887.075000000004,
      "d": 97.02601562500058,
      "v": 87
    },
    {
      "midi": 69,
      "hit": false,
      "t": 11129.010000000006,
      "d": 94.505859375,
      "v": 94
    },
    {
      "midi": 65,
      "hit": false,
      "t": 11370.945000000005,
      "d": 122.22757812499913,
      "v": 92
    },
    {
      "midi": 43,
      "hit": false,
      "t": 11612.880000000001,
      "d": 189.01171875,
      "v": 110
    },
    {
      "midi": 55,
      "hit": false,
      "t": 11612.880000000003,
      "d": 1794.3512499999997,
      "v": 62
    },
    {
      "midi": 58,
      "hit": false,
      "t": 11612.880000000003,
      "d": 3840.7181249999994,
      "v": 62
    },
    {
      "midi": 62,
      "hit": false,
      "t": 11612.880000000003,
      "d": 5752.256640624999,
      "v": 62
    },
    {
      "midi": 70,
      "hit": false,
      "t": 11612.880000000005,
      "d": 89.46554687500065,
      "v": 96
    },
    {
      "midi": 69,
      "hit": false,
      "t": 11854.815000000006,
      "d": 86.94539062500007,
      "v": 96
    },
    {
      "midi": 43,
      "hit": false,
      "t": 12096.750000000002,
      "d": 189.01171875,
      "v": 110
    },
    {
      "midi": 70,
      "hit": false,
      "t": 12096.750000000005,
      "d": 99.54617187499935,
      "v": 93
    },
    {
      "midi": 67,
      "hit": false,
      "t": 12338.685000000005,
      "d": 118.44734375000007,
      "v": 86
    },
    {
      "midi": 43,
      "hit": false,
      "t": 12459.652500000002,
      "d": 189.01171875,
      "v": 110
    },
    {
      "midi": 70,
      "hit": false,
      "t": 12580.620000000004,
      "d": 99.54617187499935,
      "v": 90
    },
    {
      "midi": 74,
      "hit": false,
      "t": 12583.140156249998,
      "d": 143.64890625000044,
      "v": 106
    },
    {
      "midi": 75,
      "hit": false,
      "t": 12822.554999999998,
      "d": 161.29000000000087,
      "v": 106
    },
    {
      "midi": 43,
      "hit": false,
      "t": 12822.555000000002,
      "d": 189.01171875,
      "v": 110
    },
    {
      "midi": 69,
      "hit": false,
      "t": 12822.555000000004,
      "d": 93.24578124999971,
      "v": 89
    },
    {
      "midi": 74,
      "hit": false,
      "t": 13063.229921875,
      "d": 200.3524218750008,
      "v": 116
    },
    {
      "midi": 70,
      "hit": false,
      "t": 13064.490000000003,
      "d": 90.72562499999913,
      "v": 105
    },
    {
      "midi": 77,
      "hit": false,
      "t": 13290.043984375001,
      "d": 461.1885937499992,
      "v": 113
    },
    {
      "midi": 41,
      "hit": false,
      "t": 13306.425000000003,
      "d": 189.01171875,
      "v": 110
    },
    {
      "midi": 67,
      "hit": false,
      "t": 13306.425000000003,
      "d": 114.6671093749992,
      "v": 89
    },
    {
      "midi": 34,
      "hit": false,
      "t": 13548.360000000002,
      "d": 189.01171875,
      "v": 110
    },
    {
      "midi": 53,
      "hit": false,
      "t": 13548.360000000002,
      "d": 5830.381484374999,
      "v": 62
    },
    {
      "midi": 70,
      "hit": false,
      "t": 13548.360000000002,
      "d": 102.06632812499993,
      "v": 100
    },
    {
      "midi": 74,
      "hit": false,
      "t": 13772.65390625,
      "d": 332.66062500000044,
      "v": 100
    },
    {
      "midi": 69,
      "hit": false,
      "t": 13790.295000000002,
      "d": 84.42523437499949,
      "v": 86
    },
    {
      "midi": 70,
      "hit": false,
      "t": 14032.230000000001,
      "d": 90.72562499999913,
      "v": 100
    },
    {
      "midi": 34,
      "hit": false,
      "t": 14032.230000000003,
      "d": 189.01171875,
      "v": 110
    },
    {
      "midi": 65,
      "hit": false,
      "t": 14274.165,
      "d": 123.48765624999942,
      "v": 96
    },
    {
      "midi": 34,
      "hit": false,
      "t": 14395.132500000003,
      "d": 189.01171875,
      "v": 110
    },
    {
      "midi": 70,
      "hit": false,
      "t": 14516.1,
      "d": 95.76593750000029,
      "v": 90
    },
    {
      "midi": 69,
      "hit": false,
      "t": 14758.035,
      "d": 98.28609375000087,
      "v": 87
    },
    {
      "midi": 36,
      "hit": false,
      "t": 14758.035000000003,
      "d": 189.01171875,
      "v": 110
    },
    {
      "midi": 74,
      "hit": false,
      "t": 14993.669609375,
      "d": 180.19117187499978,
      "v": 106
    },
    {
      "midi": 70,
      "hit": false,
      "t": 14999.970000000001,
      "d": 105.8465625000008,
      "v": 85
    },
    {
      "midi": 77,
      "hit": false,
      "t": 15239.38484375,
      "d": 498.99093749999884,
      "v": 103
    },
    {
      "midi": 65,
      "hit": false,
      "t": 15241.905000000002,
      "d": 126.0078125,
      "v": 86
    },
    {
      "midi": 38,
      "hit": false,
      "t": 15241.905000000004,
      "d": 189.01171875,
      "v": 110
    },
    {
      "midi": 57,
      "hit": false,
      "t": 15483.840000000002,
      "d": 3886.080937500001,
      "v": 62
    },
    {
      "midi": 69,
      "hit": false,
      "t": 15483.840000000002,
      "d": 113.40703125000073,
      "v": 96
    },
    {
      "midi": 38,
      "hit": false,
      "t": 15483.840000000004,
      "d": 189.01171875,
      "v": 110
    },
    {
      "midi": 67,
      "hit": false,
      "t": 15725.775000000003,
      "d": 105.8465625000008,
      "v": 87
    },
    {
      "midi": 74,
      "hit": false,
      "t": 15749.716484375,
      "d": 338.9610156250001,
      "v": 103
    },
    {
      "midi": 38,
      "hit": false,
      "t": 15967.710000000005,
      "d": 189.01171875,
      "v": 110
    },
    {
      "midi": 69,
      "hit": false,
      "t": 15967.710000000005,
      "d": 88.20546875000036,
      "v": 94
    },
    {
      "midi": 65,
      "hit": false,
      "t": 16209.645000000004,
      "d": 109.62679687499985,
      "v": 94
    },
    {
      "midi": 38,
      "hit": false,
      "t": 16330.612500000005,
      "d": 189.01171874999818,
      "v": 110
    },
    {
      "midi": 69,
      "hit": false,
      "t": 16451.580000000005,
      "d": 97.02601562500058,
      "v": 92
    },
    {
      "midi": 38,
      "hit": false,
      "t": 16693.515000000003,
      "d": 189.01171875,
      "v": 110
    },
    {
      "midi": 67,
      "hit": false,
      "t": 16693.515000000007,
      "d": 81.90507812500073,
      "v": 90
    },
    {
      "midi": 74,
      "hit": false,
      "t": 16929.149609375,
      "d": 234.37453124999956,
      "v": 117
    },
    {
      "midi": 69,
      "hit": false,
      "t": 16935.450000000008,
      "d": 88.20546874999854,
      "v": 96
    },
    {
      "midi": 38,
      "hit": false,
      "t": 17177.385000000002,
      "d": 189.01171875,
      "v": 110
    },
    {
      "midi": 65,
      "hit": false,
      "t": 17177.385000000006,
      "d": 103.3264062499984,
      "v": 92
    },
    {
      "midi": 72,
      "hit": false,
      "t": 17189.985781249998,
      "d": 507.8114843750009,
      "v": 100
    },
    {
      "midi": 60,
      "hit": false,
      "t": 17298.3525,
      "d": 1992.1835156250017,
      "v": 62
    },
    {
      "midi": 41,
      "hit": false,
      "t": 17419.320000000003,
      "d": 189.01171875,
      "v": 110
    },
    {
      "midi": 69,
      "hit": false,
      "t": 17419.320000000003,
      "d": 81.90507812500073,
      "v": 100
    },
    {
      "midi": 67,
      "hit": false,
      "t": 17661.255000000005,
      "d": 104.58648437499869,
      "v": 87
    },
    {
      "midi": 41,
      "hit": false,
      "t": 17903.190000000002,
      "d": 189.01171875,
      "v": 110
    },
    {
      "midi": 69,
      "hit": false,
      "t": 17903.190000000002,
      "d": 94.505859375,
      "v": 92
    },
    {
      "midi": 65,
      "hit": false,
      "t": 18145.125000000004,
      "d": 114.66710937500102,
      "v": 92
    },
    {
      "midi": 41,
      "hit": false,
      "t": 18266.092500000002,
      "d": 189.01171875,
      "v": 110
    },
    {
      "midi": 69,
      "hit": false,
      "t": 18387.060000000005,
      "d": 100.80625000000146,
      "v": 92
    },
    {
      "midi": 38,
      "hit": false,
      "t": 18628.995000000003,
      "d": 189.01171875,
      "v": 110
    },
    {
      "midi": 67,
      "hit": false,
      "t": 18628.995000000006,
      "d": 97.02601562500058,
      "v": 87
    },
    {
      "midi": 69,
      "hit": false,
      "t": 18870.930000000008,
      "d": 94.505859375,
      "v": 94
    },
    {
      "midi": 41,
      "hit": false,
      "t": 19112.865,
      "d": 189.01171875,
      "v": 110
    },
    {
      "midi": 65,
      "hit": false,
      "t": 19112.86500000001,
      "d": 122.22757812499913,
      "v": 92
    },
    {
      "midi": 79,
      "hit": false,
      "t": 19354.8,
      "d": 241.9350000000013,
      "v": 92
    },
    {
      "midi": 82,
      "hit": false,
      "t": 19354.8,
      "d": 241.9350000000013,
      "v": 92
    },
    {
      "midi": 86,
      "hit": false,
      "t": 19354.8,
      "d": 241.9350000000013,
      "v": 92
    },
    {
      "midi": 43,
      "hit": false,
      "t": 19354.8,
      "d": 64.26398437500029,
      "v": 75
    },
    {
      "midi": 43,
      "hit": false,
      "t": 19354.800000000003,
      "d": 189.01171875,
      "v": 110
    },
    {
      "midi": 55,
      "hit": false,
      "t": 19354.800000000003,
      "d": 1794.3512499999997,
      "v": 62
    },
    {
      "midi": 58,
      "hit": false,
      "t": 19354.800000000003,
      "d": 3840.7181249999994,
      "v": 62
    },
    {
      "midi": 62,
      "hit": false,
      "t": 19354.800000000003,
      "d": 5752.256640625001,
      "v": 62
    },
    {
      "midi": 43,
      "hit": false,
      "t": 19475.767499999998,
      "d": 64.26398437500029,
      "v": 75
    },
    {
      "midi": 43,
      "hit": false,
      "t": 19596.734999999997,
      "d": 64.26398437500029,
      "v": 75
    },
    {
      "midi": 43,
      "hit": false,
      "t": 19717.702499999996,
      "d": 64.26398437500029,
      "v": 75
    },
    {
      "midi": 43,
      "hit": false,
      "t": 19838.669999999995,
      "d": 64.26398437500029,
      "v": 75
    },
    {
      "midi": 82,
      "hit": false,
      "t": 19838.670000000002,
      "d": 210.4330468750013,
      "v": 92
    },
    {
      "midi": 79,
      "hit": false,
      "t": 19838.670000000002,
      "d": 215.47335937500247,
      "v": 92
    },
    {
      "midi": 86,
      "hit": false,
      "t": 19838.670000000002,
      "d": 224.29390625000087,
      "v": 92
    },
    {
      "midi": 43,
      "hit": false,
      "t": 19838.670000000002,
      "d": 189.01171875,
      "v": 110
    },
    {
      "midi": 43,
      "hit": false,
      "t": 19959.637499999993,
      "d": 64.26398437500029,
      "v": 75
    },
    {
      "midi": 43,
      "hit": false,
      "t": 20080.604999999992,
      "d": 64.26398437500029,
      "v": 75
    },
    {
      "midi": 43,
      "hit": false,
      "t": 20201.57249999999,
      "d": 64.26398437500029,
      "v": 75
    },
    {
      "midi": 43,
      "hit": false,
      "t": 20201.572500000002,
      "d": 189.01171875,
      "v": 110
    },
    {
      "midi": 43,
      "hit": false,
      "t": 20322.53999999999,
      "d": 64.26398437500029,
      "v": 75
    },
    {
      "midi": 79,
      "hit": false,
      "t": 20322.540000000005,
      "d": 241.9350000000013,
      "v": 92
    },
    {
      "midi": 82,
      "hit": false,
      "t": 20322.540000000005,
      "d": 241.9350000000013,
      "v": 92
    },
    {
      "midi": 86,
      "hit": false,
      "t": 20322.540000000005,
      "d": 241.9350000000013,
      "v": 92
    },
    {
      "midi": 43,
      "hit": false,
      "t": 20443.50749999999,
      "d": 64.26398437500029,
      "v": 75
    },
    {
      "midi": 43,
      "hit": false,
      "t": 20564.474999999988,
      "d": 64.26398437500029,
      "v": 75
    },
    {
      "midi": 43,
      "hit": false,
      "t": 20564.475000000002,
      "d": 189.01171875,
      "v": 110
    },
    {
      "midi": 43,
      "hit": false,
      "t": 20685.442499999986,
      "d": 64.26398437500029,
      "v": 75
    },
    {
      "midi": 79,
      "hit": false,
      "t": 20685.442500000005,
      "d": 362.90250000000015,
      "v": 92
    },
    {
      "midi": 82,
      "hit": false,
      "t": 20685.442500000005,
      "d": 362.90250000000015,
      "v": 92
    },
    {
      "midi": 86,
      "hit": false,
      "t": 20685.442500000005,
      "d": 362.90250000000015,
      "v": 92
    },
    {
      "midi": 43,
      "hit": false,
      "t": 20806.409999999985,
      "d": 64.26398437500029,
      "v": 75
    },
    {
      "midi": 43,
      "hit": false,
      "t": 20927.377499999984,
      "d": 64.26398437500029,
      "v": 75
    },
    {
      "midi": 43,
      "hit": false,
      "t": 21048.344999999983,
      "d": 64.26398437500029,
      "v": 75
    },
    {
      "midi": 41,
      "hit": false,
      "t": 21048.345,
      "d": 189.01171875,
      "v": 110
    },
    {
      "midi": 79,
      "hit": false,
      "t": 21048.345000000005,
      "d": 241.9350000000013,
      "v": 92
    },
    {
      "midi": 82,
      "hit": false,
      "t": 21048.345000000005,
      "d": 241.9350000000013,
      "v": 92
    },
    {
      "midi": 87,
      "hit": false,
      "t": 21048.345000000005,
      "d": 241.9350000000013,
      "v": 92
    },
    {
      "midi": 43,
      "hit": false,
      "t": 21169.31249999998,
      "d": 64.26398437500029,
      "v": 75
    },
    {
      "midi": 46,
      "hit": false,
      "t": 21290.27999999998,
      "d": 64.26398437500029,
      "v": 75
    },
    {
      "midi": 34,
      "hit": false,
      "t": 21290.280000000002,
      "d": 189.01171875,
      "v": 110
    },
    {
      "midi": 53,
      "hit": false,
      "t": 21290.280000000002,
      "d": 5830.381484375001,
      "v": 62
    },
    {
      "midi": 77,
      "hit": false,
      "t": 21290.280000000006,
      "d": 241.9350000000013,
      "v": 92
    },
    {
      "midi": 82,
      "hit": false,
      "t": 21290.280000000006,
      "d": 241.9350000000013,
      "v": 92
    },
    {
      "midi": 86,
      "hit": false,
      "t": 21290.280000000006,
      "d": 241.9350000000013,
      "v": 92
    },
    {
      "midi": 46,
      "hit": false,
      "t": 21411.24749999998,
      "d": 64.26398437500029,
      "v": 75
    },
    {
      "midi": 46,
      "hit": false,
      "t": 21532.21499999998,
      "d": 64.26398437500029,
      "v": 75
    },
    {
      "midi": 46,
      "hit": false,
      "t": 21653.182499999977,
      "d": 64.26398437500029,
      "v": 75
    },
    {
      "midi": 46,
      "hit": false,
      "t": 21774.149999999976,
      "d": 64.26398437500029,
      "v": 75
    },
    {
      "midi": 34,
      "hit": false,
      "t": 21774.15,
      "d": 189.01171875,
      "v": 110
    },
    {
      "midi": 82,
      "hit": false,
      "t": 21774.15000000001,
      "d": 170.11054687499927,
      "v": 92
    },
    {
      "midi": 77,
      "hit": false,
      "t": 21774.15000000001,
      "d": 187.7516406249997,
      "v": 92
    },
    {
      "midi": 86,
      "hit": false,
      "t": 21774.15000000001,
      "d": 196.5721874999981,
      "v": 92
    },
    {
      "midi": 46,
      "hit": false,
      "t": 21895.117499999975,
      "d": 64.26398437500029,
      "v": 75
    },
    {
      "midi": 46,
      "hit": false,
      "t": 22016.084999999974,
      "d": 64.26398437500029,
      "v": 75
    },
    {
      "midi": 46,
      "hit": false,
      "t": 22137.052499999972,
      "d": 64.26398437500029,
      "v": 75
    },
    {
      "midi": 34,
      "hit": false,
      "t": 22137.0525,
      "d": 189.01171875,
      "v": 110
    },
    {
      "midi": 46,
      "hit": false,
      "t": 22258.01999999997,
      "d": 64.26398437500029,
      "v": 75
    },
    {
      "midi": 77,
      "hit": false,
      "t": 22258.020000000008,
      "d": 241.9350000000013,
      "v": 92
    },
    {
      "midi": 82,
      "hit": false,
      "t": 22258.020000000008,
      "d": 241.9350000000013,
      "v": 92
    },
    {
      "midi": 86,
      "hit": false,
      "t": 22258.020000000008,
      "d": 241.9350000000013,
      "v": 92
    },
    {
      "midi": 46,
      "hit": false,
      "t": 22378.98749999997,
      "d": 64.26398437500029,
      "v": 75
    },
    {
      "midi": 46,
      "hit": false,
      "t": 22499.95499999997,
      "d": 64.26398437500029,
      "v": 75
    },
    {
      "midi": 36,
      "hit": false,
      "t": 22499.955,
      "d": 189.01171875,
      "v": 110
    },
    {
      "midi": 46,
      "hit": false,
      "t": 22620.922499999968,
      "d": 64.26398437500029,
      "v": 75
    },
    {
      "midi": 77,
      "hit": false,
      "t": 22620.922500000008,
      "d": 362.90250000000015,
      "v": 92
    },
    {
      "midi": 82,
      "hit": false,
      "t": 22620.922500000008,
      "d": 362.90250000000015,
      "v": 92
    },
    {
      "midi": 86,
      "hit": false,
      "t": 22620.922500000008,
      "d": 362.90250000000015,
      "v": 92
    },
    {
      "midi": 46,
      "hit": false,
      "t": 22741.889999999967,
      "d": 64.26398437500029,
      "v": 75
    },
    {
      "midi": 46,
      "hit": false,
      "t": 22862.857499999966,
      "d": 64.26398437500029,
      "v": 75
    },
    {
      "midi": 46,
      "hit": false,
      "t": 22983.824999999964,
      "d": 64.26398437500029,
      "v": 75
    },
    {
      "midi": 38,
      "hit": false,
      "t": 22983.825,
      "d": 189.01171875,
      "v": 110
    },
    {
      "midi": 77,
      "hit": false,
      "t": 22983.825000000008,
      "d": 241.9350000000013,
      "v": 92
    },
    {
      "midi": 82,
      "hit": false,
      "t": 22983.825000000008,
      "d": 241.9350000000013,
      "v": 92
    },
    {
      "midi": 87,
      "hit": false,
      "t": 22983.825000000008,
      "d": 241.9350000000013,
      "v": 92
    },
    {
      "midi": 46,
      "hit": false,
      "t": 23104.792499999963,
      "d": 64.26398437500029,
      "v": 75
    },
    {
      "midi": 50,
      "hit": false,
      "t": 23225.759999999962,
      "d": 64.26398437500029,
      "v": 75
    },
    {
      "midi": 38,
      "hit": false,
      "t": 23225.760000000002,
      "d": 189.01171875,
      "v": 110
    },
    {
      "midi": 57,
      "hit": false,
      "t": 23225.760000000002,
      "d": 3886.0809375000026,
      "v": 62
    },
    {
      "midi": 77,
      "hit": false,
      "t": 23225.76000000001,
      "d": 241.9350000000013,
      "v": 92
    },
    {
      "midi": 81,
      "hit": false,
      "t": 23225.76000000001,
      "d": 241.9350000000013,
      "v": 92
    },
    {
      "midi": 86,
      "hit": false,
      "t": 23225.76000000001,
      "d": 241.9350000000013,
      "v": 92
    },
    {
      "midi": 50,
      "hit": false,
      "t": 23346.72749999996,
      "d": 64.26398437500029,
      "v": 75
    },
    {
      "midi": 50,
      "hit": false,
      "t": 23467.69499999996,
      "d": 64.26398437500029,
      "v": 75
    },
    {
      "midi": 50,
      "hit": false,
      "t": 23588.66249999996,
      "d": 64.26398437500029,
      "v": 75
    },
    {
      "midi": 50,
      "hit": false,
      "t": 23709.629999999957,
      "d": 64.26398437500029,
      "v": 75
    },
    {
      "midi": 38,
      "hit": false,
      "t": 23709.63,
      "d": 189.01171875,
      "v": 110
    },
    {
      "midi": 77,
      "hit": false,
      "t": 23709.630000000012,
      "d": 236.89468750000015,
      "v": 92
    },
    {
      "midi": 81,
      "hit": false,
      "t": 23709.630000000012,
      "d": 248.23539062499913,
      "v": 92
    },
    {
      "midi": 86,
      "hit": false,
      "t": 23709.630000000012,
      "d": 269.65671875000044,
      "v": 92
    },
    {
      "midi": 50,
      "hit": false,
      "t": 23830.597499999956,
      "d": 64.26398437500029,
      "v": 75
    },
    {
      "midi": 50,
      "hit": false,
      "t": 23951.564999999955,
      "d": 64.26398437500029,
      "v": 75
    },
    {
      "midi": 50,
      "hit": false,
      "t": 24072.532499999954,
      "d": 64.26398437500029,
      "v": 75
    },
    {
      "midi": 38,
      "hit": false,
      "t": 24072.5325,
      "d": 189.01171875,
      "v": 110
    },
    {
      "midi": 50,
      "hit": false,
      "t": 24193.499999999953,
      "d": 64.26398437500029,
      "v": 75
    },
    {
      "midi": 77,
      "hit": false,
      "t": 24193.50000000001,
      "d": 241.9350000000013,
      "v": 92
    },
    {
      "midi": 81,
      "hit": false,
      "t": 24193.50000000001,
      "d": 241.9350000000013,
      "v": 92
    },
    {
      "midi": 86,
      "hit": false,
      "t": 24193.50000000001,
      "d": 241.9350000000013,
      "v": 92
    },
    {
      "midi": 50,
      "hit": false,
      "t": 24314.46749999995,
      "d": 64.26398437500029,
      "v": 75
    },
    {
      "midi": 50,
      "hit": false,
      "t": 24435.43499999995,
      "d": 64.26398437500029,
      "v": 75
    },
    {
      "midi": 38,
      "hit": false,
      "t": 24435.435,
      "d": 189.01171875,
      "v": 110
    },
    {
      "midi": 50,
      "hit": false,
      "t": 24556.40249999995,
      "d": 64.26398437500029,
      "v": 75
    },
    {
      "midi": 77,
      "hit": false,
      "t": 24556.40250000001,
      "d": 362.90250000000015,
      "v": 92
    },
    {
      "midi": 81,
      "hit": false,
      "t": 24556.40250000001,
      "d": 362.90250000000015,
      "v": 92
    },
    {
      "midi": 86,
      "hit": false,
      "t": 24556.40250000001,
      "d": 362.90250000000015,
      "v": 92
    },
    {
      "midi": 50,
      "hit": false,
      "t": 24677.369999999948,
      "d": 64.26398437500029,
      "v": 75
    },
    {
      "midi": 50,
      "hit": false,
      "t": 24798.337499999947,
      "d": 64.26398437500029,
      "v": 75
    },
    {
      "midi": 50,
      "hit": false,
      "t": 24919.304999999946,
      "d": 64.26398437500029,
      "v": 75
    },
    {
      "midi": 38,
      "hit": false,
      "t": 24919.305,
      "d": 189.01171875,
      "v": 110
    },
    {
      "midi": 77,
      "hit": false,
      "t": 24919.30500000001,
      "d": 241.9350000000013,
      "v": 92
    },
    {
      "midi": 81,
      "hit": false,
      "t": 24919.30500000001,
      "d": 241.9350000000013,
      "v": 92
    },
    {
      "midi": 87,
      "hit": false,
      "t": 24919.30500000001,
      "d": 241.9350000000013,
      "v": 92
    },
    {
      "midi": 50,
      "hit": false,
      "t": 25040.272499999945,
      "d": 64.26398437500029,
      "v": 75
    },
    {
      "midi": 60,
      "hit": false,
      "t": 25040.272500000003,
      "d": 1992.1835156250017,
      "v": 62
    },
    {
      "midi": 48,
      "hit": false,
      "t": 25161.239999999943,
      "d": 64.26398437500029,
      "v": 75
    },
    {
      "midi": 41,
      "hit": false,
      "t": 25161.24,
      "d": 189.01171875,
      "v": 110
    },
    {
      "midi": 77,
      "hit": false,
      "t": 25161.240000000013,
      "d": 241.9350000000013,
      "v": 92
    },
    {
      "midi": 81,
      "hit": false,
      "t": 25161.240000000013,
      "d": 241.9350000000013,
      "v": 92
    },
    {
      "midi": 84,
      "hit": false,
      "t": 25161.240000000013,
      "d": 241.9350000000013,
      "v": 92
    },
    {
      "midi": 48,
      "hit": false,
      "t": 25282.207499999942,
      "d": 64.26398437500029,
      "v": 75
    },
    {
      "midi": 48,
      "hit": false,
      "t": 25403.17499999994,
      "d": 64.26398437500029,
      "v": 75
    },
    {
      "midi": 48,
      "hit": false,
      "t": 25524.14249999994,
      "d": 64.26398437500029,
      "v": 75
    },
    {
      "midi": 48,
      "hit": false,
      "t": 25645.10999999994,
      "d": 64.26398437500029,
      "v": 75
    },
    {
      "midi": 41,
      "hit": false,
      "t": 25645.11,
      "d": 189.01171875,
      "v": 110
    },
    {
      "midi": 77,
      "hit": false,
      "t": 25645.110000000015,
      "d": 234.37453124999956,
      "v": 92
    },
    {
      "midi": 84,
      "hit": false,
      "t": 25645.110000000015,
      "d": 245.71523437499854,
      "v": 92
    },
    {
      "midi": 81,
      "hit": false,
      "t": 25645.110000000015,
      "d": 246.97531249999884,
      "v": 92
    },
    {
      "midi": 48,
      "hit": false,
      "t": 25766.077499999938,
      "d": 64.26398437500029,
      "v": 75
    },
    {
      "midi": 48,
      "hit": false,
      "t": 25887.044999999936,
      "d": 64.26398437500029,
      "v": 75
    },
    {
      "midi": 48,
      "hit": false,
      "t": 26008.012499999935,
      "d": 64.26398437500029,
      "v": 75
    },
    {
      "midi": 41,
      "hit": false,
      "t": 26008.0125,
      "d": 189.01171875,
      "v": 110
    },
    {
      "midi": 48,
      "hit": false,
      "t": 26128.979999999934,
      "d": 64.26398437500029,
      "v": 75
    },
    {
      "midi": 77,
      "hit": false,
      "t": 26128.980000000014,
      "d": 241.9350000000013,
      "v": 92
    },
    {
      "midi": 81,
      "hit": false,
      "t": 26128.980000000014,
      "d": 241.9350000000013,
      "v": 92
    },
    {
      "midi": 84,
      "hit": false,
      "t": 26128.980000000014,
      "d": 241.9350000000013,
      "v": 92
    },
    {
      "midi": 48,
      "hit": false,
      "t": 26249.947499999933,
      "d": 64.26398437500029,
      "v": 75
    },
    {
      "midi": 74,
      "hit": false,
      "t": 26365.8746875,
      "d": 224.29390625000087,
      "v": 119
    },
    {
      "midi": 48,
      "hit": false,
      "t": 26370.91499999993,
      "d": 64.26398437500029,
      "v": 75
    },
    {
      "midi": 38,
      "hit": false,
      "t": 26370.915,
      "d": 189.01171875,
      "v": 110
    },
    {
      "midi": 48,
      "hit": false,
      "t": 26491.88249999993,
      "d": 64.26398437500029,
      "v": 75
    },
    {
      "midi": 77,
      "hit": false,
      "t": 26491.882500000014,
      "d": 362.90250000000015,
      "v": 92
    },
    {
      "midi": 81,
      "hit": false,
      "t": 26491.882500000014,
      "d": 362.90250000000015,
      "v": 92
    },
    {
      "midi": 84,
      "hit": false,
      "t": 26491.882500000014,
      "d": 362.90250000000015,
      "v": 92
    },
    {
      "midi": 77,
      "hit": false,
      "t": 26609.069765625,
      "d": 219.2535937499997,
      "v": 116
    },
    {
      "midi": 48,
      "hit": false,
      "t": 26612.84999999993,
      "d": 64.26398437500029,
      "v": 75
    },
    {
      "midi": 48,
      "hit": false,
      "t": 26733.81749999993,
      "d": 64.26398437500029,
      "v": 75
    },
    {
      "midi": 79,
      "hit": false,
      "t": 26853.524921875,
      "d": 364.16257812500044,
      "v": 116
    },
    {
      "midi": 48,
      "hit": false,
      "t": 26854.784999999927,
      "d": 64.26398437500029,
      "v": 75
    },
    {
      "midi": 41,
      "hit": false,
      "t": 26854.785,
      "d": 189.01171875,
      "v": 110
    },
    {
      "midi": 77,
      "hit": false,
      "t": 26854.785000000014,
      "d": 241.9350000000013,
      "v": 92
    },
    {
      "midi": 81,
      "hit": false,
      "t": 26854.785000000014,
      "d": 241.9350000000013,
      "v": 92
    },
    {
      "midi": 84,
      "hit": false,
      "t": 26854.785000000014,
      "d": 241.9350000000013,
      "v": 92
    },
    {
      "midi": 48,
      "hit": false,
      "t": 26975.752499999926,
      "d": 64.26398437500029,
      "v": 75
    },
    {
      "midi": 43,
      "hit": false,
      "t": 27096.719999999925,
      "d": 64.26398437500029,
      "v": 75
    },
    {
      "midi": 43,
      "hit": false,
      "t": 27096.72,
      "d": 189.01171875,
      "v": 110
    },
    {
      "midi": 55,
      "hit": false,
      "t": 27096.720000000005,
      "d": 1794.3512499999997,
      "v": 62
    },
    {
      "midi": 58,
      "hit": false,
      "t": 27096.720000000005,
      "d": 3840.7181249999994,
      "v": 62
    },
    {
      "midi": 62,
      "hit": false,
      "t": 27096.720000000005,
      "d": 5752.256640625001,
      "v": 62
    },
    {
      "midi": 79,
      "hit": false,
      "t": 27096.720000000016,
      "d": 241.9350000000013,
      "v": 92
    },
    {
      "midi": 82,
      "hit": false,
      "t": 27096.720000000016,
      "d": 241.9350000000013,
      "v": 92
    },
    {
      "midi": 86,
      "hit": false,
      "t": 27096.720000000016,
      "d": 241.9350000000013,
      "v": 92
    },
    {
      "midi": 43,
      "hit": false,
      "t": 27217.687499999924,
      "d": 64.26398437500029,
      "v": 75
    },
    {
      "midi": 43,
      "hit": false,
      "t": 27338.654999999922,
      "d": 64.26398437500029,
      "v": 75
    },
    {
      "midi": 79,
      "hit": false,
      "t": 27349.995703125,
      "d": 244.45515624999825,
      "v": 100
    },
    {
      "midi": 43,
      "hit": false,
      "t": 27459.62249999992,
      "d": 64.26398437500029,
      "v": 75
    },
    {
      "midi": 43,
      "hit": false,
      "t": 27580.58999999992,
      "d": 64.26398437500029,
      "v": 75
    },
    {
      "midi": 43,
      "hit": false,
      "t": 27580.59,
      "d": 189.01171875,
      "v": 110
    },
    {
      "midi": 82,
      "hit": false,
      "t": 27580.59000000002,
      "d": 210.4330468750013,
      "v": 92
    },
    {
      "midi": 79,
      "hit": false,
      "t": 27580.59000000002,
      "d": 215.47335937500247,
      "v": 92
    },
    {
      "midi": 86,
      "hit": false,
      "t": 27580.59000000002,
      "d": 224.29390625000087,
      "v": 92
    },
    {
      "midi": 43,
      "hit": false,
      "t": 27701.55749999992,
      "d": 64.26398437500029,
      "v": 75
    },
    {
      "midi": 43,
      "hit": false,
      "t": 27822.524999999918,
      "d": 64.26398437500029,
      "v": 75
    },
    {
      "midi": 79,
      "hit": false,
      "t": 27861.587421875,
      "d": 240.67492187500102,
      "v": 84
    },
    {
      "midi": 43,
      "hit": false,
      "t": 27943.492499999917,
      "d": 64.26398437500029,
      "v": 75
    },
    {
      "midi": 43,
      "hit": false,
      "t": 27943.4925,
      "d": 189.01171875,
      "v": 110
    },
    {
      "midi": 43,
      "hit": false,
      "t": 28064.459999999915,
      "d": 64.26398437500029,
      "v": 75
    },
    {
      "midi": 79,
      "hit": false,
      "t": 28064.46000000002,
      "d": 241.9350000000013,
      "v": 92
    },
    {
      "midi": 82,
      "hit": false,
      "t": 28064.46000000002,
      "d": 241.9350000000013,
      "v": 92
    },
    {
      "midi": 86,
      "hit": false,
      "t": 28064.46000000002,
      "d": 241.9350000000013,
      "v": 92
    },
    {
      "midi": 43,
      "hit": false,
      "t": 28185.427499999914,
      "d": 64.26398437500029,
      "v": 75
    },
    {
      "midi": 43,
      "hit": false,
      "t": 28306.394999999913,
      "d": 64.26398437500029,
      "v": 75
    },
    {
      "midi": 43,
      "hit": false,
      "t": 28306.395,
      "d": 189.01171875,
      "v": 110
    },
    {
      "midi": 79,
      "hit": false,
      "t": 28364.35859375,
      "d": 236.89468750000015,
      "v": 68
    },
    {
      "midi": 43,
      "hit": false,
      "t": 28427.362499999912,
      "d": 64.26398437500029,
      "v": 75
    },
    {
      "midi": 79,
      "hit": false,
      "t": 28427.36250000002,
      "d": 362.90250000000015,
      "v": 92
    },
    {
      "midi": 82,
      "hit": false,
      "t": 28427.36250000002,
      "d": 362.90250000000015,
      "v": 92
    },
    {
      "midi": 86,
      "hit": false,
      "t": 28427.36250000002,
      "d": 362.90250000000015,
      "v": 92
    },
    {
      "midi": 43,
      "hit": false,
      "t": 28548.32999999991,
      "d": 64.26398437500029,
      "v": 75
    },
    {
      "midi": 43,
      "hit": false,
      "t": 28669.29749999991,
      "d": 64.26398437500029,
      "v": 75
    },
    {
      "midi": 43,
      "hit": false,
      "t": 28790.26499999991,
      "d": 64.26398437500029,
      "v": 75
    },
    {
      "midi": 41,
      "hit": false,
      "t": 28790.265,
      "d": 189.01171875,
      "v": 110
    },
    {
      "midi": 79,
      "hit": false,
      "t": 28790.26500000002,
      "d": 241.9350000000013,
      "v": 92
    },
    {
      "midi": 82,
      "hit": false,
      "t": 28790.26500000002,
      "d": 241.9350000000013,
      "v": 92
    },
    {
      "midi": 87,
      "hit": false,
      "t": 28790.26500000002,
      "d": 241.9350000000013,
      "v": 92
    },
    {
      "midi": 79,
      "hit": false,
      "t": 28874.690234375,
      "d": 230.5942968749987,
      "v": 51
    },
    {
      "midi": 43,
      "hit": false,
      "t": 28911.232499999907,
      "d": 64.26398437500029,
      "v": 75
    },
    {
      "midi": 46,
      "hit": false,
      "t": 29032.199999999906,
      "d": 64.26398437500029,
      "v": 75
    },
    {
      "midi": 34,
      "hit": false,
      "t": 29032.2,
      "d": 189.01171875,
      "v": 110
    },
    {
      "midi": 53,
      "hit": false,
      "t": 29032.200000000004,
      "d": 5830.381484375008,
      "v": 62
    },
    {
      "midi": 77,
      "hit": false,
      "t": 29032.200000000023,
      "d": 241.9350000000013,
      "v": 92
    },
    {
      "midi": 82,
      "hit": false,
      "t": 29032.200000000023,
      "d": 241.9350000000013,
      "v": 92
    },
    {
      "midi": 86,
      "hit": false,
      "t": 29032.200000000023,
      "d": 241.9350000000013,
      "v": 92
    },
    {
      "midi": 46,
      "hit": false,
      "t": 29153.167499999905,
      "d": 64.26398437500029,
      "v": 75
    },
    {
      "midi": 46,
      "hit": false,
      "t": 29274.134999999904,
      "d": 64.26398437500029,
      "v": 75
    },
    {
      "midi": 79,
      "hit": false,
      "t": 29387.54203125,
      "d": 244.45515624999825,
      "v": 35
    },
    {
      "midi": 46,
      "hit": false,
      "t": 29395.102499999903,
      "d": 64.26398437500029,
      "v": 75
    },
    {
      "midi": 46,
      "hit": false,
      "t": 29516.0699999999,
      "d": 64.26398437500029,
      "v": 75
    },
    {
      "midi": 34,
      "hit": false,
      "t": 29516.07,
      "d": 189.01171875,
      "v": 110
    },
    {
      "midi": 82,
      "hit": false,
      "t": 29516.070000000025,
      "d": 170.11054687499927,
      "v": 92
    },
    {
      "midi": 77,
      "hit": false,
      "t": 29516.070000000025,
      "d": 187.7516406249997,
      "v": 92
    },
    {
      "midi": 86,
      "hit": false,
      "t": 29516.070000000025,
      "d": 196.5721874999981,
      "v": 92
    },
    {
      "midi": 46,
      "hit": false,
      "t": 29637.0374999999,
      "d": 64.26398437500029,
      "v": 75
    },
    {
      "midi": 46,
      "hit": false,
      "t": 29758.0049999999,
      "d": 64.26398437500029,
      "v": 75
    },
    {
      "midi": 46,
      "hit": false,
      "t": 29878.972499999898,
      "d": 64.26398437500029,
      "v": 75
    },
    {
      "midi": 34,
      "hit": false,
      "t": 29878.9725,
      "d": 189.01171875,
      "v": 110
    },
    {
      "midi": 79,
      "hit": false,
      "t": 29890.313203125,
      "d": 192.79195312500087,
      "v": 19
    },
    {
      "midi": 46,
      "hit": false,
      "t": 29999.939999999897,
      "d": 64.26398437500029,
      "v": 75
    },
    {
      "midi": 77,
      "hit": false,
      "t": 29999.940000000024,
      "d": 241.9350000000013,
      "v": 92
    },
    {
      "midi": 82,
      "hit": false,
      "t": 29999.940000000024,
      "d": 241.9350000000013,
      "v": 92
    },
    {
      "midi": 86,
      "hit": false,
      "t": 29999.940000000024,
      "d": 241.9350000000013,
      "v": 92
    },
    {
      "midi": 46,
      "hit": false,
      "t": 30120.907499999896,
      "d": 64.26398437500029,
      "v": 75
    },
    {
      "midi": 46,
      "hit": false,
      "t": 30241.874999999894,
      "d": 64.26398437500029,
      "v": 75
    },
    {
      "midi": 36,
      "hit": false,
      "t": 30241.875,
      "d": 189.01171875,
      "v": 110
    },
    {
      "midi": 46,
      "hit": false,
      "t": 30362.842499999893,
      "d": 64.26398437500029,
      "v": 75
    },
    {
      "midi": 77,
      "hit": false,
      "t": 30362.842500000024,
      "d": 362.90250000000015,
      "v": 92
    },
    {
      "midi": 82,
      "hit": false,
      "t": 30362.842500000024,
      "d": 362.90250000000015,
      "v": 92
    },
    {
      "midi": 86,
      "hit": false,
      "t": 30362.842500000024,
      "d": 362.90250000000015,
      "v": 92
    },
    {
      "midi": 46,
      "hit": false,
      "t": 30483.809999999892,
      "d": 64.26398437500029,
      "v": 75
    },
    {
      "midi": 46,
      "hit": false,
      "t": 30604.77749999989,
      "d": 64.26398437500029,
      "v": 75
    },
    {
      "midi": 46,
      "hit": false,
      "t": 30725.74499999989,
      "d": 64.26398437500029,
      "v": 75
    },
    {
      "midi": 38,
      "hit": false,
      "t": 30725.745,
      "d": 189.01171875,
      "v": 110
    },
    {
      "midi": 77,
      "hit": false,
      "t": 30725.745000000024,
      "d": 241.9350000000013,
      "v": 92
    },
    {
      "midi": 82,
      "hit": false,
      "t": 30725.745000000024,
      "d": 241.9350000000013,
      "v": 92
    },
    {
      "midi": 87,
      "hit": false,
      "t": 30725.745000000024,
      "d": 241.9350000000013,
      "v": 92
    },
    {
      "midi": 46,
      "hit": false,
      "t": 30846.71249999989,
      "d": 64.26398437500029,
      "v": 75
    },
    {
      "midi": 50,
      "hit": false,
      "t": 30967.679999999888,
      "d": 64.26398437500029,
      "v": 75
    },
    {
      "midi": 38,
      "hit": false,
      "t": 30967.68,
      "d": 189.01171875,
      "v": 110
    },
    {
      "midi": 57,
      "hit": false,
      "t": 30967.680000000004,
      "d": 3886.0809375000063,
      "v": 62
    },
    {
      "midi": 77,
      "hit": false,
      "t": 30967.680000000026,
      "d": 241.9350000000013,
      "v": 92
    },
    {
      "midi": 81,
      "hit": false,
      "t": 30967.680000000026,
      "d": 241.9350000000013,
      "v": 92
    },
    {
      "midi": 86,
      "hit": false,
      "t": 30967.680000000026,
      "d": 241.9350000000013,
      "v": 92
    },
    {
      "midi": 50,
      "hit": false,
      "t": 31088.647499999886,
      "d": 64.26398437500029,
      "v": 75
    },
    {
      "midi": 50,
      "hit": false,
      "t": 31209.614999999885,
      "d": 64.26398437500029,
      "v": 75
    },
    {
      "midi": 50,
      "hit": false,
      "t": 31330.582499999884,
      "d": 64.26398437500029,
      "v": 75
    },
    {
      "midi": 50,
      "hit": false,
      "t": 31451.549999999883,
      "d": 64.26398437500029,
      "v": 75
    },
    {
      "midi": 38,
      "hit": false,
      "t": 31451.55,
      "d": 189.01171875,
      "v": 110
    },
    {
      "midi": 77,
      "hit": false,
      "t": 31451.55000000003,
      "d": 236.89468750000015,
      "v": 92
    },
    {
      "midi": 81,
      "hit": false,
      "t": 31451.55000000003,
      "d": 248.23539062499913,
      "v": 92
    },
    {
      "midi": 86,
      "hit": false,
      "t": 31451.55000000003,
      "d": 269.65671875000044,
      "v": 92
    },
    {
      "midi": 50,
      "hit": false,
      "t": 31572.51749999988,
      "d": 64.26398437500029,
      "v": 75
    },
    {
      "midi": 50,
      "hit": false,
      "t": 31693.48499999988,
      "d": 64.26398437500029,
      "v": 75
    },
    {
      "midi": 50,
      "hit": false,
      "t": 31814.45249999988,
      "d": 64.26398437500029,
      "v": 75
    },
    {
      "midi": 38,
      "hit": false,
      "t": 31814.4525,
      "d": 189.01171875,
      "v": 110
    },
    {
      "midi": 50,
      "hit": false,
      "t": 31935.41999999988,
      "d": 64.26398437500029,
      "v": 75
    },
    {
      "midi": 77,
      "hit": false,
      "t": 31935.420000000027,
      "d": 241.9350000000013,
      "v": 92
    },
    {
      "midi": 81,
      "hit": false,
      "t": 31935.420000000027,
      "d": 241.9350000000013,
      "v": 92
    },
    {
      "midi": 86,
      "hit": false,
      "t": 31935.420000000027,
      "d": 241.9350000000013,
      "v": 92
    },
    {
      "midi": 50,
      "hit": false,
      "t": 32056.387499999877,
      "d": 64.26398437500029,
      "v": 75
    },
    {
      "midi": 50,
      "hit": false,
      "t": 32177.354999999876,
      "d": 64.26398437500029,
      "v": 75
    },
    {
      "midi": 38,
      "hit": false,
      "t": 32177.355,
      "d": 189.01171875,
      "v": 110
    },
    {
      "midi": 50,
      "hit": false,
      "t": 32298.322499999875,
      "d": 64.26398437500029,
      "v": 75
    },
    {
      "midi": 77,
      "hit": false,
      "t": 32298.322500000028,
      "d": 362.90250000000015,
      "v": 92
    },
    {
      "midi": 81,
      "hit": false,
      "t": 32298.322500000028,
      "d": 362.90250000000015,
      "v": 92
    },
    {
      "midi": 86,
      "hit": false,
      "t": 32298.322500000028,
      "d": 362.90250000000015,
      "v": 92
    },
    {
      "midi": 50,
      "hit": false,
      "t": 32419.289999999874,
      "d": 64.26398437500029,
      "v": 75
    },
    {
      "midi": 50,
      "hit": false,
      "t": 32540.257499999872,
      "d": 64.26398437500029,
      "v": 75
    },
    {
      "midi": 50,
      "hit": false,
      "t": 32661.22499999987,
      "d": 64.26398437500029,
      "v": 75
    },
    {
      "midi": 38,
      "hit": false,
      "t": 32661.225,
      "d": 189.01171875,
      "v": 110
    },
    {
      "midi": 77,
      "hit": false,
      "t": 32661.225000000028,
      "d": 241.93499999999767,
      "v": 92
    },
    {
      "midi": 81,
      "hit": false,
      "t": 32661.225000000028,
      "d": 241.93499999999767,
      "v": 92
    },
    {
      "midi": 87,
      "hit": false,
      "t": 32661.225000000028,
      "d": 241.93499999999767,
      "v": 92
    },
    {
      "midi": 50,
      "hit": false,
      "t": 32782.192499999874,
      "d": 64.26398437500029,
      "v": 75
    },
    {
      "midi": 60,
      "hit": false,
      "t": 32782.192500000005,
      "d": 1992.1835156250017,
      "v": 62
    },
    {
      "midi": 48,
      "hit": false,
      "t": 32903.15999999987,
      "d": 64.26398437500029,
      "v": 75
    },
    {
      "midi": 41,
      "hit": false,
      "t": 32903.159999999996,
      "d": 189.01171875,
      "v": 110
    },
    {
      "midi": 77,
      "hit": false,
      "t": 32903.160000000025,
      "d": 241.93499999999767,
      "v": 92
    },
    {
      "midi": 81,
      "hit": false,
      "t": 32903.160000000025,
      "d": 241.93499999999767,
      "v": 92
    },
    {
      "midi": 84,
      "hit": false,
      "t": 32903.160000000025,
      "d": 241.93499999999767,
      "v": 92
    },
    {
      "midi": 48,
      "hit": false,
      "t": 33024.12749999987,
      "d": 64.26398437500029,
      "v": 75
    },
    {
      "midi": 48,
      "hit": false,
      "t": 33145.09499999987,
      "d": 64.26398437500029,
      "v": 75
    },
    {
      "midi": 48,
      "hit": false,
      "t": 33266.06249999987,
      "d": 64.26398437500029,
      "v": 75
    },
    {
      "midi": 48,
      "hit": false,
      "t": 33387.02999999987,
      "d": 64.26398437500029,
      "v": 75
    },
    {
      "midi": 41,
      "hit": false,
      "t": 33387.03,
      "d": 189.01171875,
      "v": 110
    },
    {
      "midi": 77,
      "hit": false,
      "t": 33387.03000000002,
      "d": 234.3745312500032,
      "v": 92
    },
    {
      "midi": 84,
      "hit": false,
      "t": 33387.03000000002,
      "d": 245.71523437500582,
      "v": 92
    },
    {
      "midi": 81,
      "hit": false,
      "t": 33387.03000000002,
      "d": 246.9753125000061,
      "v": 92
    },
    {
      "midi": 48,
      "hit": false,
      "t": 33507.99749999987,
      "d": 64.26398437500029,
      "v": 75
    },
    {
      "midi": 48,
      "hit": false,
      "t": 33628.964999999866,
      "d": 64.26398437500029,
      "v": 75
    },
    {
      "midi": 48,
      "hit": false,
      "t": 33749.932499999864,
      "d": 64.26398437500029,
      "v": 75
    },
    {
      "midi": 41,
      "hit": false,
      "t": 33749.932499999995,
      "d": 189.01171875,
      "v": 110
    },
    {
      "midi": 48,
      "hit": false,
      "t": 33870.89999999986,
      "d": 64.26398437500029,
      "v": 75
    },
    {
      "midi": 77,
      "hit": false,
      "t": 33870.90000000002,
      "d": 241.93499999999767,
      "v": 92
    },
    {
      "midi": 81,
      "hit": false,
      "t": 33870.90000000002,
      "d": 241.93499999999767,
      "v": 92
    },
    {
      "midi": 84,
      "hit": false,
      "t": 33870.90000000002,
      "d": 241.93499999999767,
      "v": 92
    },
    {
      "midi": 48,
      "hit": false,
      "t": 33991.86749999986,
      "d": 64.26398437500029,
      "v": 75
    },
    {
      "midi": 48,
      "hit": false,
      "t": 34112.83499999986,
      "d": 64.26398437500029,
      "v": 75
    },
    {
      "midi": 38,
      "hit": false,
      "t": 34112.83499999999,
      "d": 189.01171875,
      "v": 110
    },
    {
      "midi": 48,
      "hit": false,
      "t": 34233.80249999986,
      "d": 64.26398437500029,
      "v": 75
    },
    {
      "midi": 77,
      "hit": false,
      "t": 34233.80250000002,
      "d": 362.9024999999965,
      "v": 92
    },
    {
      "midi": 81,
      "hit": false,
      "t": 34233.80250000002,
      "d": 362.9024999999965,
      "v": 92
    },
    {
      "midi": 84,
      "hit": false,
      "t": 34233.80250000002,
      "d": 362.9024999999965,
      "v": 92
    },
    {
      "midi": 79,
      "hit": false,
      "t": 34339.649062499986,
      "d": 419.6060156249805,
      "v": 116
    },
    {
      "midi": 48,
      "hit": false,
      "t": 34354.76999999986,
      "d": 64.26398437500029,
      "v": 75
    },
    {
      "midi": 48,
      "hit": false,
      "t": 34475.73749999986,
      "d": 64.26398437500029,
      "v": 75
    },
    {
      "midi": 48,
      "hit": false,
      "t": 34596.704999999856,
      "d": 64.26398437500029,
      "v": 75
    },
    {
      "midi": 41,
      "hit": false,
      "t": 34596.704999999994,
      "d": 189.01171875,
      "v": 110
    },
    {
      "midi": 77,
      "hit": false,
      "t": 34596.705000000016,
      "d": 241.93499999999767,
      "v": 92
    },
    {
      "midi": 81,
      "hit": false,
      "t": 34596.705000000016,
      "d": 241.93499999999767,
      "v": 92
    },
    {
      "midi": 84,
      "hit": false,
      "t": 34596.705000000016,
      "d": 241.93499999999767,
      "v": 92
    },
    {
      "midi": 48,
      "hit": false,
      "t": 34717.672499999855,
      "d": 64.26398437500029,
      "v": 75
    },
    {
      "midi": 43,
      "hit": false,
      "t": 34838.639999999854,
      "d": 64.26398437500029,
      "v": 75
    },
    {
      "midi": 43,
      "hit": false,
      "t": 34838.63999999999,
      "d": 189.01171875,
      "v": 110
    },
    {
      "midi": 55,
      "hit": false,
      "t": 34838.64000000001,
      "d": 1794.351250000007,
      "v": 62
    },
    {
      "midi": 58,
      "hit": false,
      "t": 34838.64000000001,
      "d": 3840.718125000014,
      "v": 62
    },
    {
      "midi": 62,
      "hit": false,
      "t": 34838.64000000001,
      "d": 5752.256640625012,
      "v": 62
    },
    {
      "midi": 70,
      "hit": false,
      "t": 34838.64000000001,
      "d": 89.46554687499884,
      "v": 96
    },
    {
      "midi": 77,
      "hit": false,
      "t": 34842.420234374964,
      "d": 464.96882812499825,
      "v": 116
    },
    {
      "midi": 43,
      "hit": false,
      "t": 34959.60749999985,
      "d": 64.26398437500029,
      "v": 75
    },
    {
      "midi": 43,
      "hit": false,
      "t": 35080.57499999985,
      "d": 64.26398437500029,
      "v": 75
    },
    {
      "midi": 69,
      "hit": false,
      "t": 35080.575000000004,
      "d": 86.94539062499825,
      "v": 96
    },
    {
      "midi": 43,
      "hit": false,
      "t": 35201.54249999985,
      "d": 64.26398437500029,
      "v": 75
    },
    {
      "midi": 43,
      "hit": false,
      "t": 35322.50999999985,
      "d": 64.26398437500029,
      "v": 75
    },
    {
      "midi": 43,
      "hit": false,
      "t": 35322.509999999995,
      "d": 189.01171875,
      "v": 110
    },
    {
      "midi": 70,
      "hit": false,
      "t": 35322.51,
      "d": 99.54617187500116,
      "v": 93
    },
    {
      "midi": 43,
      "hit": false,
      "t": 35443.47749999985,
      "d": 64.26398437500029,
      "v": 75
    },
    {
      "midi": 43,
      "hit": false,
      "t": 35564.44499999985,
      "d": 64.26398437500029,
      "v": 75
    },
    {
      "midi": 67,
      "hit": false,
      "t": 35564.445,
      "d": 118.44734374999825,
      "v": 86
    },
    {
      "midi": 43,
      "hit": false,
      "t": 35685.412499999846,
      "d": 64.26398437500029,
      "v": 75
    },
    {
      "midi": 43,
      "hit": false,
      "t": 35685.41249999999,
      "d": 189.01171875,
      "v": 110
    },
    {
      "midi": 43,
      "hit": false,
      "t": 35806.379999999845,
      "d": 64.26398437500029,
      "v": 75
    },
    {
      "midi": 70,
      "hit": false,
      "t": 35806.38,
      "d": 99.54617187500116,
      "v": 90
    },
    {
      "midi": 43,
      "hit": false,
      "t": 35927.34749999984,
      "d": 64.26398437500029,
      "v": 75
    },
    {
      "midi": 43,
      "hit": false,
      "t": 36048.31499999984,
      "d": 64.26398437500029,
      "v": 75
    },
    {
      "midi": 43,
      "hit": false,
      "t": 36048.31499999999,
      "d": 189.01171875,
      "v": 110
    },
    {
      "midi": 69,
      "hit": false,
      "t": 36048.314999999995,
      "d": 93.24578124999971,
      "v": 89
    },
    {
      "midi": 43,
      "hit": false,
      "t": 36169.28249999984,
      "d": 64.26398437500029,
      "v": 75
    },
    {
      "midi": 43,
      "hit": false,
      "t": 36290.24999999984,
      "d": 64.26398437500029,
      "v": 75
    },
    {
      "midi": 70,
      "hit": false,
      "t": 36290.24999999999,
      "d": 90.72562499999913,
      "v": 105
    },
    {
      "midi": 43,
      "hit": false,
      "t": 36411.21749999984,
      "d": 64.26398437500029,
      "v": 75
    },
    {
      "midi": 43,
      "hit": false,
      "t": 36532.18499999984,
      "d": 64.26398437500029,
      "v": 75
    },
    {
      "midi": 41,
      "hit": false,
      "t": 36532.18499999999,
      "d": 189.01171875,
      "v": 110
    },
    {
      "midi": 67,
      "hit": false,
      "t": 36532.18499999999,
      "d": 114.66710937499738,
      "v": 89
    },
    {
      "midi": 43,
      "hit": false,
      "t": 36653.15249999984,
      "d": 64.26398437500029,
      "v": 75
    },
    {
      "midi": 46,
      "hit": false,
      "t": 36774.119999999835,
      "d": 64.26398437500029,
      "v": 75
    },
    {
      "midi": 34,
      "hit": false,
      "t": 36774.11999999999,
      "d": 189.01171875,
      "v": 110
    },
    {
      "midi": 70,
      "hit": false,
      "t": 36774.11999999999,
      "d": 102.06632812500175,
      "v": 100
    },
    {
      "midi": 53,
      "hit": false,
      "t": 36774.12000000002,
      "d": 5830.381484375008,
      "v": 62
    },
    {
      "midi": 46,
      "hit": false,
      "t": 36895.087499999834,
      "d": 64.26398437500029,
      "v": 75
    },
    {
      "midi": 46,
      "hit": false,
      "t": 37016.05499999983,
      "d": 64.26398437500029,
      "v": 75
    },
    {
      "midi": 69,
      "hit": false,
      "t": 37016.05499999999,
      "d": 84.42523437499767,
      "v": 86
    },
    {
      "midi": 46,
      "hit": false,
      "t": 37137.02249999983,
      "d": 64.26398437500029,
      "v": 75
    },
    {
      "midi": 46,
      "hit": false,
      "t": 37257.98999999983,
      "d": 64.26398437500029,
      "v": 75
    },
    {
      "midi": 34,
      "hit": false,
      "t": 37257.98999999999,
      "d": 189.01171875,
      "v": 110
    },
    {
      "midi": 70,
      "hit": false,
      "t": 37257.98999999999,
      "d": 90.72562499999913,
      "v": 100
    },
    {
      "midi": 46,
      "hit": false,
      "t": 37378.95749999983,
      "d": 64.26398437500029,
      "v": 75
    },
    {
      "midi": 46,
      "hit": false,
      "t": 37499.92499999983,
      "d": 64.26398437500029,
      "v": 75
    },
    {
      "midi": 65,
      "hit": false,
      "t": 37499.92499999999,
      "d": 123.48765624999942,
      "v": 96
    },
    {
      "midi": 46,
      "hit": false,
      "t": 37620.89249999983,
      "d": 64.26398437500029,
      "v": 75
    },
    {
      "midi": 34,
      "hit": false,
      "t": 37620.89249999999,
      "d": 189.01171875,
      "v": 110
    },
    {
      "midi": 46,
      "hit": false,
      "t": 37741.859999999826,
      "d": 64.26398437500029,
      "v": 75
    },
    {
      "midi": 70,
      "hit": false,
      "t": 37741.859999999986,
      "d": 95.76593750000029,
      "v": 90
    },
    {
      "midi": 46,
      "hit": false,
      "t": 37862.827499999825,
      "d": 64.26398437500029,
      "v": 75
    },
    {
      "midi": 46,
      "hit": false,
      "t": 37983.79499999982,
      "d": 64.26398437500029,
      "v": 75
    },
    {
      "midi": 36,
      "hit": false,
      "t": 37983.794999999984,
      "d": 189.01171875,
      "v": 110
    },
    {
      "midi": 69,
      "hit": false,
      "t": 37983.794999999984,
      "d": 98.28609375000087,
      "v": 87
    },
    {
      "midi": 46,
      "hit": false,
      "t": 38104.76249999982,
      "d": 64.26398437500029,
      "v": 75
    },
    {
      "midi": 46,
      "hit": false,
      "t": 38225.72999999982,
      "d": 64.26398437500029,
      "v": 75
    },
    {
      "midi": 70,
      "hit": false,
      "t": 38225.72999999998,
      "d": 105.84656250000262,
      "v": 85
    },
    {
      "midi": 46,
      "hit": false,
      "t": 38346.69749999982,
      "d": 64.26398437500029,
      "v": 75
    },
    {
      "midi": 46,
      "hit": false,
      "t": 38467.66499999982,
      "d": 64.26398437500029,
      "v": 75
    },
    {
      "midi": 38,
      "hit": false,
      "t": 38467.664999999986,
      "d": 189.01171875,
      "v": 110
    },
    {
      "midi": 65,
      "hit": false,
      "t": 38467.664999999986,
      "d": 126.0078125,
      "v": 86
    },
    {
      "midi": 46,
      "hit": false,
      "t": 38588.63249999982,
      "d": 64.26398437500029,
      "v": 75
    },
    {
      "midi": 50,
      "hit": false,
      "t": 38709.59999999982,
      "d": 64.26398437500029,
      "v": 75
    },
    {
      "midi": 38,
      "hit": false,
      "t": 38709.599999999984,
      "d": 189.01171875,
      "v": 110
    },
    {
      "midi": 69,
      "hit": false,
      "t": 38709.599999999984,
      "d": 113.40703124999709,
      "v": 96
    },
    {
      "midi": 57,
      "hit": false,
      "t": 38709.60000000002,
      "d": 3886.0809375000026,
      "v": 62
    },
    {
      "midi": 50,
      "hit": false,
      "t": 38830.567499999815,
      "d": 64.26398437500029,
      "v": 75
    },
    {
      "midi": 50,
      "hit": false,
      "t": 38951.534999999814,
      "d": 64.26398437500029,
      "v": 75
    },
    {
      "midi": 67,
      "hit": false,
      "t": 38951.53499999998,
      "d": 105.84656250000262,
      "v": 87
    },
    {
      "midi": 50,
      "hit": false,
      "t": 39072.50249999981,
      "d": 64.26398437500029,
      "v": 75
    },
    {
      "midi": 50,
      "hit": false,
      "t": 39193.46999999981,
      "d": 64.26398437500029,
      "v": 75
    },
    {
      "midi": 38,
      "hit": false,
      "t": 39193.46999999999,
      "d": 189.01171875,
      "v": 110
    },
    {
      "midi": 69,
      "hit": false,
      "t": 39193.46999999999,
      "d": 88.20546874999854,
      "v": 94
    },
    {
      "midi": 50,
      "hit": false,
      "t": 39314.43749999981,
      "d": 64.26398437500029,
      "v": 75
    },
    {
      "midi": 50,
      "hit": false,
      "t": 39435.40499999981,
      "d": 64.26398437500029,
      "v": 75
    },
    {
      "midi": 65,
      "hit": false,
      "t": 39435.404999999984,
      "d": 109.62679687500349,
      "v": 94
    },
    {
      "midi": 50,
      "hit": false,
      "t": 39556.37249999981,
      "d": 64.26398437500029,
      "v": 75
    },
    {
      "midi": 38,
      "hit": false,
      "t": 39556.37249999998,
      "d": 189.01171875,
      "v": 110
    },
    {
      "midi": 50,
      "hit": false,
      "t": 39677.33999999981,
      "d": 64.26398437500029,
      "v": 75
    },
    {
      "midi": 69,
      "hit": false,
      "t": 39677.33999999999,
      "d": 97.02601562500058,
      "v": 92
    },
    {
      "midi": 50,
      "hit": false,
      "t": 39798.307499999806,
      "d": 64.26398437500029,
      "v": 75
    },
    {
      "midi": 50,
      "hit": false,
      "t": 39919.274999999805,
      "d": 64.26398437500029,
      "v": 75
    },
    {
      "midi": 38,
      "hit": false,
      "t": 39919.27499999998,
      "d": 189.01171875,
      "v": 110
    },
    {
      "midi": 67,
      "hit": false,
      "t": 39919.27499999999,
      "d": 81.90507812499709,
      "v": 90
    },
    {
      "midi": 50,
      "hit": false,
      "t": 40040.242499999804,
      "d": 64.26398437500029,
      "v": 75
    },
    {
      "midi": 50,
      "hit": false,
      "t": 40161.2099999998,
      "d": 64.26398437500029,
      "v": 75
    },
    {
      "midi": 69,
      "hit": false,
      "t": 40161.209999999985,
      "d": 88.20546874999854,
      "v": 96
    },
    {
      "midi": 50,
      "hit": false,
      "t": 40282.1774999998,
      "d": 64.26398437500029,
      "v": 75
    },
    {
      "midi": 50,
      "hit": false,
      "t": 40403.1449999998,
      "d": 64.26398437500029,
      "v": 75
    },
    {
      "midi": 38,
      "hit": false,
      "t": 40403.14499999998,
      "d": 189.01171875,
      "v": 110
    },
    {
      "midi": 65,
      "hit": false,
      "t": 40403.14499999998,
      "d": 103.32640625000204,
      "v": 92
    },
    {
      "midi": 50,
      "hit": false,
      "t": 40524.1124999998,
      "d": 64.26398437500029,
      "v": 75
    },
    {
      "midi": 60,
      "hit": false,
      "t": 40524.11250000002,
      "d": 1992.1835156250017,
      "v": 62
    },
    {
      "midi": 48,
      "hit": false,
      "t": 40645.0799999998,
      "d": 64.26398437500029,
      "v": 75
    },
    {
      "midi": 41,
      "hit": false,
      "t": 40645.07999999998,
      "d": 189.01171875,
      "v": 110
    },
    {
      "midi": 69,
      "hit": false,
      "t": 40645.07999999999,
      "d": 81.90507812499709,
      "v": 100
    },
    {
      "midi": 73,
      "hit": false,
      "t": 40645.08,
      "d": 291.07804687499447,
      "v": 104
    },
    {
      "midi": 48,
      "hit": false,
      "t": 40766.0474999998,
      "d": 64.26398437500029,
      "v": 75
    },
    {
      "midi": 48,
      "hit": false,
      "t": 40887.014999999796,
      "d": 64.26398437500029,
      "v": 75
    },
    {
      "midi": 67,
      "hit": false,
      "t": 40887.014999999985,
      "d": 104.58648437500233,
      "v": 87
    },
    {
      "midi": 72,
      "hit": false,
      "t": 40918.516953125,
      "d": 260.83617187499476,
      "v": 104
    },
    {
      "midi": 48,
      "hit": false,
      "t": 41007.982499999795,
      "d": 64.26398437500029,
      "v": 75
    },
    {
      "midi": 48,
      "hit": false,
      "t": 41128.94999999979,
      "d": 64.26398437500029,
      "v": 75
    },
    {
      "midi": 41,
      "hit": false,
      "t": 41128.94999999998,
      "d": 189.01171875,
      "v": 110
    },
    {
      "midi": 69,
      "hit": false,
      "t": 41128.94999999999,
      "d": 94.505859375,
      "v": 92
    },
    {
      "midi": 48,
      "hit": false,
      "t": 41249.91749999979,
      "d": 64.26398437500029,
      "v": 75
    },
    {
      "midi": 73,
      "hit": false,
      "t": 41348.20359375,
      "d": 253.2757031250003,
      "v": 110
    },
    {
      "midi": 48,
      "hit": false,
      "t": 41370.88499999979,
      "d": 64.26398437500029,
      "v": 75
    },
    {
      "midi": 65,
      "hit": false,
      "t": 41370.88499999999,
      "d": 114.66710937499738,
      "v": 92
    },
    {
      "midi": 48,
      "hit": false,
      "t": 41491.85249999979,
      "d": 64.26398437500029,
      "v": 75
    },
    {
      "midi": 41,
      "hit": false,
      "t": 41491.85249999998,
      "d": 189.01171875,
      "v": 110
    },
    {
      "midi": 72,
      "hit": false,
      "t": 41607.7796875,
      "d": 341.48117187499884,
      "v": 107
    },
    {
      "midi": 48,
      "hit": false,
      "t": 41612.81999999979,
      "d": 64.26398437500029,
      "v": 75
    },
    {
      "midi": 69,
      "hit": false,
      "t": 41612.819999999985,
      "d": 100.80625000000146,
      "v": 92
    },
    {
      "midi": 48,
      "hit": false,
      "t": 41733.78749999979,
      "d": 64.26398437500029,
      "v": 75
    },
    {
      "midi": 48,
      "hit": false,
      "t": 41854.75499999979,
      "d": 64.26398437500029,
      "v": 75
    },
    {
      "midi": 38,
      "hit": false,
      "t": 41854.754999999976,
      "d": 189.01171875,
      "v": 110
    },
    {
      "midi": 67,
      "hit": false,
      "t": 41854.75499999999,
      "d": 97.02601562500058,
      "v": 87
    },
    {
      "midi": 48,
      "hit": false,
      "t": 41975.722499999785,
      "d": 64.26398437500029,
      "v": 75
    },
    {
      "midi": 48,
      "hit": false,
      "t": 42096.689999999784,
      "d": 64.26398437500029,
      "v": 75
    },
    {
      "midi": 69,
      "hit": false,
      "t": 42096.68999999999,
      "d": 94.505859375,
      "v": 94
    },
    {
      "midi": 48,
      "hit": false,
      "t": 42217.65749999978,
      "d": 64.26398437500029,
      "v": 75
    },
    {
      "midi": 48,
      "hit": false,
      "t": 42338.62499999978,
      "d": 64.26398437500029,
      "v": 75
    },
    {
      "midi": 41,
      "hit": false,
      "t": 42338.62499999998,
      "d": 189.01171875,
      "v": 110
    },
    {
      "midi": 65,
      "hit": false,
      "t": 42338.624999999985,
      "d": 122.22757812499913,
      "v": 92
    },
    {
      "midi": 48,
      "hit": false,
      "t": 42459.59249999978,
      "d": 64.26398437500029,
      "v": 75
    },
    {
      "midi": 43,
      "hit": false,
      "t": 42580.55999999978,
      "d": 64.26398437500029,
      "v": 75
    },
    {
      "midi": 43,
      "hit": false,
      "t": 42580.559999999976,
      "d": 189.01171875,
      "v": 110
    },
    {
      "midi": 55,
      "hit": false,
      "t": 42580.56000000002,
      "d": 1794.351250000007,
      "v": 62
    },
    {
      "midi": 58,
      "hit": false,
      "t": 42580.56000000002,
      "d": 3840.718125000014,
      "v": 62
    },
    {
      "midi": 62,
      "hit": false,
      "t": 42580.56000000002,
      "d": 5752.256640625012,
      "v": 62
    },
    {
      "midi": 43,
      "hit": false,
      "t": 42701.52749999978,
      "d": 64.26398437500029,
      "v": 75
    },
    {
      "midi": 43,
      "hit": false,
      "t": 42822.49499999978,
      "d": 64.26398437500029,
      "v": 75
    },
    {
      "midi": 43,
      "hit": false,
      "t": 42943.462499999776,
      "d": 64.26398437500029,
      "v": 75
    },
    {
      "midi": 43,
      "hit": false,
      "t": 43064.429999999775,
      "d": 64.26398437500029,
      "v": 75
    },
    {
      "midi": 43,
      "hit": false,
      "t": 43064.42999999998,
      "d": 189.01171875,
      "v": 110
    },
    {
      "midi": 43,
      "hit": false,
      "t": 43185.39749999977,
      "d": 64.26398437500029,
      "v": 75
    },
    {
      "midi": 43,
      "hit": false,
      "t": 43306.36499999977,
      "d": 64.26398437500029,
      "v": 75
    },
    {
      "midi": 43,
      "hit": false,
      "t": 43427.33249999977,
      "d": 64.26398437500029,
      "v": 75
    },
    {
      "midi": 43,
      "hit": false,
      "t": 43427.332499999975,
      "d": 189.01171875,
      "v": 110
    },
    {
      "midi": 74,
      "hit": false,
      "t": 43544.519765624966,
      "d": 243.19507812499796,
      "v": 106
    },
    {
      "midi": 43,
      "hit": false,
      "t": 43548.29999999977,
      "d": 64.26398437500029,
      "v": 75
    },
    {
      "midi": 43,
      "hit": false,
      "t": 43669.26749999977,
      "d": 64.26398437500029,
      "v": 75
    },
    {
      "midi": 43,
      "hit": false,
      "t": 43790.23499999977,
      "d": 64.26398437500029,
      "v": 75
    },
    {
      "midi": 43,
      "hit": false,
      "t": 43790.23499999997,
      "d": 189.01171875,
      "v": 110
    },
    {
      "midi": 72,
      "hit": false,
      "t": 43820.476874999964,
      "d": 199.09234375000233,
      "v": 103
    },
    {
      "midi": 43,
      "hit": false,
      "t": 43911.20249999977,
      "d": 64.26398437500029,
      "v": 75
    },
    {
      "midi": 43,
      "hit": false,
      "t": 44032.169999999765,
      "d": 64.26398437500029,
      "v": 75
    },
    {
      "midi": 43,
      "hit": false,
      "t": 44153.137499999764,
      "d": 64.26398437500029,
      "v": 75
    },
    {
      "midi": 43,
      "hit": false,
      "t": 44274.10499999976,
      "d": 64.26398437500029,
      "v": 75
    },
    {
      "midi": 41,
      "hit": false,
      "t": 44274.104999999974,
      "d": 189.01171875,
      "v": 110
    },
    {
      "midi": 74,
      "hit": false,
      "t": 44275.36507812497,
      "d": 632.5592187500006,
      "v": 100
    },
    {
      "midi": 43,
      "hit": false,
      "t": 44395.07249999976,
      "d": 64.26398437500029,
      "v": 75
    },
    {
      "midi": 46,
      "hit": false,
      "t": 44516.03999999976,
      "d": 64.26398437500029,
      "v": 75
    },
    {
      "midi": 34,
      "hit": false,
      "t": 44516.03999999997,
      "d": 189.01171875,
      "v": 110
    },
    {
      "midi": 53,
      "hit": false,
      "t": 44516.04000000003,
      "d": 5830.381484375008,
      "v": 62
    },
    {
      "midi": 46,
      "hit": false,
      "t": 44637.00749999976,
      "d": 64.26398437500029,
      "v": 75
    },
    {
      "midi": 46,
      "hit": false,
      "t": 44757.97499999976,
      "d": 64.26398437500029,
      "v": 75
    },
    {
      "midi": 46,
      "hit": false,
      "t": 44878.94249999976,
      "d": 64.26398437500029,
      "v": 75
    },
    {
      "midi": 46,
      "hit": false,
      "t": 44999.909999999756,
      "d": 64.26398437500029,
      "v": 75
    },
    {
      "midi": 34,
      "hit": false,
      "t": 44999.909999999974,
      "d": 189.01171875,
      "v": 110
    },
    {
      "midi": 46,
      "hit": false,
      "t": 45120.877499999755,
      "d": 64.26398437500029,
      "v": 75
    },
    {
      "midi": 46,
      "hit": false,
      "t": 45241.844999999754,
      "d": 64.26398437500029,
      "v": 75
    },
    {
      "midi": 46,
      "hit": false,
      "t": 45362.81249999975,
      "d": 64.26398437500029,
      "v": 75
    },
    {
      "midi": 34,
      "hit": false,
      "t": 45362.81249999997,
      "d": 189.01171875,
      "v": 110
    },
    {
      "midi": 74,
      "hit": false,
      "t": 45467.39898437497,
      "d": 254.53578125000058,
      "v": 100
    },
    {
      "midi": 46,
      "hit": false,
      "t": 45483.77999999975,
      "d": 64.26398437500029,
      "v": 75
    },
    {
      "midi": 46,
      "hit": false,
      "t": 45604.74749999975,
      "d": 64.26398437500029,
      "v": 75
    },
    {
      "midi": 46,
      "hit": false,
      "t": 45725.71499999975,
      "d": 64.26398437500029,
      "v": 75
    },
    {
      "midi": 36,
      "hit": false,
      "t": 45725.71499999997,
      "d": 189.01171875,
      "v": 110
    },
    {
      "midi": 72,
      "hit": false,
      "t": 45735.79562499998,
      "d": 212.95320312499825,
      "v": 98
    },
    {
      "midi": 46,
      "hit": false,
      "t": 45846.68249999975,
      "d": 64.26398437500029,
      "v": 75
    },
    {
      "midi": 46,
      "hit": false,
      "t": 45967.64999999975,
      "d": 64.26398437500029,
      "v": 75
    },
    {
      "midi": 46,
      "hit": false,
      "t": 46088.617499999746,
      "d": 64.26398437500029,
      "v": 75
    },
    {
      "midi": 74,
      "hit": false,
      "t": 46191.94390624997,
      "d": 601.0572656250006,
      "v": 101
    },
    {
      "midi": 46,
      "hit": false,
      "t": 46209.584999999744,
      "d": 64.26398437500029,
      "v": 75
    },
    {
      "midi": 38,
      "hit": false,
      "t": 46209.58499999997,
      "d": 189.01171875,
      "v": 110
    },
    {
      "midi": 46,
      "hit": false,
      "t": 46330.55249999974,
      "d": 64.26398437500029,
      "v": 75
    },
    {
      "midi": 50,
      "hit": false,
      "t": 46451.51999999974,
      "d": 64.26398437500029,
      "v": 75
    },
    {
      "midi": 38,
      "hit": false,
      "t": 46451.51999999997,
      "d": 189.01171875,
      "v": 110
    },
    {
      "midi": 57,
      "hit": false,
      "t": 46451.52000000003,
      "d": 3886.0809375000026,
      "v": 62
    },
    {
      "midi": 50,
      "hit": false,
      "t": 46572.48749999974,
      "d": 64.26398437500029,
      "v": 75
    },
    {
      "midi": 50,
      "hit": false,
      "t": 46693.45499999974,
      "d": 64.26398437500029,
      "v": 75
    },
    {
      "midi": 50,
      "hit": false,
      "t": 46814.42249999974,
      "d": 64.26398437500029,
      "v": 75
    },
    {
      "midi": 50,
      "hit": false,
      "t": 46935.38999999974,
      "d": 64.26398437500029,
      "v": 75
    },
    {
      "midi": 38,
      "hit": false,
      "t": 46935.38999999997,
      "d": 189.01171875,
      "v": 110
    },
    {
      "midi": 50,
      "hit": false,
      "t": 47056.357499999736,
      "d": 64.26398437500029,
      "v": 75
    },
    {
      "midi": 70,
      "hit": false,
      "t": 47172.284687499974,
      "d": 202.8725781250032,
      "v": 89
    },
    {
      "midi": 50,
      "hit": false,
      "t": 47177.324999999735,
      "d": 64.26398437500029,
      "v": 75
    },
    {
      "midi": 50,
      "hit": false,
      "t": 47298.292499999734,
      "d": 64.26398437500029,
      "v": 75
    },
    {
      "midi": 38,
      "hit": false,
      "t": 47298.29249999997,
      "d": 189.01171875,
      "v": 110
    },
    {
      "midi": 74,
      "hit": false,
      "t": 47409.17937499998,
      "d": 229.33421875000204,
      "v": 98
    },
    {
      "midi": 50,
      "hit": false,
      "t": 47419.25999999973,
      "d": 64.26398437500029,
      "v": 75
    },
    {
      "midi": 50,
      "hit": false,
      "t": 47540.22749999973,
      "d": 64.26398437500029,
      "v": 75
    },
    {
      "midi": 50,
      "hit": false,
      "t": 47661.19499999973,
      "d": 64.26398437500029,
      "v": 75
    },
    {
      "midi": 38,
      "hit": false,
      "t": 47661.19499999996,
      "d": 189.01171875,
      "v": 110
    },
    {
      "midi": 75,
      "hit": false,
      "t": 47662.45507812498,
      "d": 173.8907812499965,
      "v": 98
    },
    {
      "midi": 50,
      "hit": false,
      "t": 47782.16249999973,
      "d": 64.26398437500029,
      "v": 75
    },
    {
      "midi": 74,
      "hit": false,
      "t": 47900.609843749975,
      "d": 161.29000000000087,
      "v": 95
    },
    {
      "midi": 50,
      "hit": false,
      "t": 47903.12999999973,
      "d": 64.26398437500029,
      "v": 75
    },
    {
      "midi": 50,
      "hit": false,
      "t": 48024.09749999973,
      "d": 64.26398437500029,
      "v": 75
    },
    {
      "midi": 50,
      "hit": false,
      "t": 48145.064999999726,
      "d": 64.26398437500029,
      "v": 75
    },
    {
      "midi": 38,
      "hit": false,
      "t": 48145.064999999966,
      "d": 189.01171875,
      "v": 110
    },
    {
      "midi": 74,
      "hit": false,
      "t": 48156.405703124976,
      "d": 642.6398437499956,
      "v": 95
    },
    {
      "midi": 50,
      "hit": false,
      "t": 48266.032499999725,
      "d": 64.26398437500029,
      "v": 75
    },
    {
      "midi": 60,
      "hit": false,
      "t": 48266.03250000003,
      "d": 1992.1835156250017,
      "v": 62
    },
    {
      "midi": 48,
      "hit": false,
      "t": 48386.99999999972,
      "d": 64.26398437500029,
      "v": 75
    },
    {
      "midi": 41,
      "hit": false,
      "t": 48386.99999999996,
      "d": 189.01171875,
      "v": 110
    },
    {
      "midi": 48,
      "hit": false,
      "t": 48507.96749999972,
      "d": 64.26398437500029,
      "v": 75
    },
    {
      "midi": 48,
      "hit": false,
      "t": 48628.93499999972,
      "d": 64.26398437500029,
      "v": 75
    },
    {
      "midi": 48,
      "hit": false,
      "t": 48749.90249999972,
      "d": 64.26398437500029,
      "v": 75
    },
    {
      "midi": 72,
      "hit": false,
      "t": 48844.408359374975,
      "d": 163.81015625000146,
      "v": 92
    },
    {
      "midi": 48,
      "hit": false,
      "t": 48870.86999999972,
      "d": 64.26398437500029,
      "v": 75
    },
    {
      "midi": 41,
      "hit": false,
      "t": 48870.869999999966,
      "d": 189.01171875,
      "v": 110
    },
    {
      "midi": 48,
      "hit": false,
      "t": 48991.83749999972,
      "d": 64.26398437500029,
      "v": 75
    },
    {
      "midi": 72,
      "hit": false,
      "t": 49105.24453124998,
      "d": 713.2042187499974,
      "v": 92
    },
    {
      "midi": 48,
      "hit": false,
      "t": 49112.80499999972,
      "d": 64.26398437500029,
      "v": 75
    },
    {
      "midi": 48,
      "hit": false,
      "t": 49233.772499999715,
      "d": 64.26398437500029,
      "v": 75
    },
    {
      "midi": 41,
      "hit": false,
      "t": 49233.77249999996,
      "d": 189.01171875,
      "v": 110
    },
    {
      "midi": 48,
      "hit": false,
      "t": 49354.739999999714,
      "d": 64.26398437500029,
      "v": 75
    },
    {
      "midi": 48,
      "hit": false,
      "t": 49475.70749999971,
      "d": 64.26398437500029,
      "v": 75
    },
    {
      "midi": 48,
      "hit": false,
      "t": 49596.67499999971,
      "d": 64.26398437500029,
      "v": 75
    },
    {
      "midi": 38,
      "hit": false,
      "t": 49596.67499999996,
      "d": 189.01171875,
      "v": 110
    },
    {
      "midi": 48,
      "hit": false,
      "t": 49717.64249999971,
      "d": 64.26398437500029,
      "v": 75
    },
    {
      "midi": 48,
      "hit": false,
      "t": 49838.60999999971,
      "d": 64.26398437500029,
      "v": 75
    },
    {
      "midi": 70,
      "hit": false,
      "t": 49842.39023437497,
      "d": 171.3706250000032,
      "v": 95
    },
    {
      "midi": 48,
      "hit": false,
      "t": 49959.57749999971,
      "d": 64.26398437500029,
      "v": 75
    },
    {
      "midi": 48,
      "hit": false,
      "t": 50080.54499999971,
      "d": 64.26398437500029,
      "v": 75
    },
    {
      "midi": 41,
      "hit": false,
      "t": 50080.54499999996,
      "d": 189.01171875,
      "v": 110
    },
    {
      "midi": 70,
      "hit": false,
      "t": 50105.746562499975,
      "d": 224.29390625000087,
      "v": 95
    },
    {
      "midi": 48,
      "hit": false,
      "t": 50201.512499999706,
      "d": 64.26398437500029,
      "v": 75
    },
    {
      "midi": 43,
      "hit": false,
      "t": 50322.479999999705,
      "d": 64.26398437500029,
      "v": 75
    },
    {
      "midi": 43,
      "hit": false,
      "t": 50322.47999999996,
      "d": 189.01171875,
      "v": 110
    },
    {
      "midi": 55,
      "hit": false,
      "t": 50322.48000000003,
      "d": 1794.351250000007,
      "v": 62
    },
    {
      "midi": 58,
      "hit": false,
      "t": 50322.48000000003,
      "d": 3840.718125000014,
      "v": 62
    },
    {
      "midi": 62,
      "hit": false,
      "t": 50322.48000000003,
      "d": 5752.256640625012,
      "v": 62
    },
    {
      "midi": 43,
      "hit": false,
      "t": 50443.447499999704,
      "d": 64.26398437500029,
      "v": 75
    },
    {
      "midi": 43,
      "hit": false,
      "t": 50564.4149999997,
      "d": 64.26398437500029,
      "v": 75
    },
    {
      "midi": 43,
      "hit": false,
      "t": 50685.3824999997,
      "d": 64.26398437500029,
      "v": 75
    },
    {
      "midi": 43,
      "hit": false,
      "t": 50806.3499999997,
      "d": 64.26398437500029,
      "v": 75
    },
    {
      "midi": 43,
      "hit": false,
      "t": 50806.34999999996,
      "d": 189.01171875,
      "v": 110
    },
    {
      "midi": 43,
      "hit": false,
      "t": 50927.3174999997,
      "d": 64.26398437500029,
      "v": 75
    },
    {
      "midi": 43,
      "hit": false,
      "t": 51048.2849999997,
      "d": 64.26398437500029,
      "v": 75
    },
    {
      "midi": 43,
      "hit": false,
      "t": 51169.2524999997,
      "d": 64.26398437500029,
      "v": 75
    },
    {
      "midi": 43,
      "hit": false,
      "t": 51169.25249999996,
      "d": 189.01171875,
      "v": 110
    },
    {
      "midi": 74,
      "hit": false,
      "t": 51286.43976562498,
      "d": 243.19507812499796,
      "v": 106
    },
    {
      "midi": 43,
      "hit": false,
      "t": 51290.219999999696,
      "d": 64.26398437500029,
      "v": 75
    },
    {
      "midi": 43,
      "hit": false,
      "t": 51411.187499999694,
      "d": 64.26398437500029,
      "v": 75
    },
    {
      "midi": 43,
      "hit": false,
      "t": 51532.15499999969,
      "d": 64.26398437500029,
      "v": 75
    },
    {
      "midi": 43,
      "hit": false,
      "t": 51532.154999999955,
      "d": 189.01171875,
      "v": 110
    },
    {
      "midi": 72,
      "hit": false,
      "t": 51562.39687499998,
      "d": 199.09234375000233,
      "v": 103
    },
    {
      "midi": 43,
      "hit": false,
      "t": 51653.12249999969,
      "d": 64.26398437500029,
      "v": 75
    },
    {
      "midi": 43,
      "hit": false,
      "t": 51774.08999999969,
      "d": 64.26398437500029,
      "v": 75
    },
    {
      "midi": 43,
      "hit": false,
      "t": 51895.05749999969,
      "d": 64.26398437500029,
      "v": 75
    },
    {
      "midi": 43,
      "hit": false,
      "t": 52016.02499999969,
      "d": 64.26398437500029,
      "v": 75
    },
    {
      "midi": 41,
      "hit": false,
      "t": 52016.02499999996,
      "d": 189.01171875,
      "v": 110
    },
    {
      "midi": 74,
      "hit": false,
      "t": 52017.28507812498,
      "d": 632.5592187500006,
      "v": 100
    },
    {
      "midi": 43,
      "hit": false,
      "t": 52136.99249999969,
      "d": 64.26398437500029,
      "v": 75
    },
    {
      "midi": 46,
      "hit": false,
      "t": 52257.959999999686,
      "d": 64.26398437500029,
      "v": 75
    },
    {
      "midi": 34,
      "hit": false,
      "t": 52257.959999999955,
      "d": 189.01171875,
      "v": 110
    },
    {
      "midi": 53,
      "hit": false,
      "t": 52257.96000000004,
      "d": 5830.381484375008,
      "v": 62
    },
    {
      "midi": 46,
      "hit": false,
      "t": 52378.927499999685,
      "d": 64.26398437500029,
      "v": 75
    },
    {
      "midi": 46,
      "hit": false,
      "t": 52499.894999999684,
      "d": 64.26398437500029,
      "v": 75
    },
    {
      "midi": 46,
      "hit": false,
      "t": 52620.86249999968,
      "d": 64.26398437500029,
      "v": 75
    },
    {
      "midi": 46,
      "hit": false,
      "t": 52741.82999999968,
      "d": 64.26398437500029,
      "v": 75
    },
    {
      "midi": 34,
      "hit": false,
      "t": 52741.82999999996,
      "d": 189.01171875,
      "v": 110
    },
    {
      "midi": 46,
      "hit": false,
      "t": 52862.79749999968,
      "d": 64.26398437500029,
      "v": 75
    },
    {
      "midi": 46,
      "hit": false,
      "t": 52983.76499999968,
      "d": 64.26398437500029,
      "v": 75
    },
    {
      "midi": 74,
      "hit": false,
      "t": 52983.764999999985,
      "d": 120.96749999999884,
      "v": 98
    },
    {
      "midi": 46,
      "hit": false,
      "t": 53104.73249999968,
      "d": 64.26398437500029,
      "v": 75
    },
    {
      "midi": 34,
      "hit": false,
      "t": 53104.732499999955,
      "d": 189.01171875,
      "v": 110
    },
    {
      "midi": 74,
      "hit": false,
      "t": 53209.318984374986,
      "d": 254.53578125000058,
      "v": 100
    },
    {
      "midi": 46,
      "hit": false,
      "t": 53225.69999999968,
      "d": 64.26398437500029,
      "v": 75
    },
    {
      "midi": 46,
      "hit": false,
      "t": 53346.667499999676,
      "d": 64.26398437500029,
      "v": 75
    },
    {
      "midi": 46,
      "hit": false,
      "t": 53467.634999999675,
      "d": 64.26398437500029,
      "v": 75
    },
    {
      "midi": 36,
      "hit": false,
      "t": 53467.63499999995,
      "d": 189.01171875,
      "v": 110
    },
    {
      "midi": 72,
      "hit": false,
      "t": 53477.71562499999,
      "d": 212.95320312499825,
      "v": 98
    },
    {
      "midi": 46,
      "hit": false,
      "t": 53588.60249999967,
      "d": 64.26398437500029,
      "v": 75
    },
    {
      "midi": 46,
      "hit": false,
      "t": 53709.56999999967,
      "d": 64.26398437500029,
      "v": 75
    },
    {
      "midi": 46,
      "hit": false,
      "t": 53830.53749999967,
      "d": 64.26398437500029,
      "v": 75
    },
    {
      "midi": 74,
      "hit": false,
      "t": 53933.863906249986,
      "d": 601.0572656250006,
      "v": 101
    },
    {
      "midi": 46,
      "hit": false,
      "t": 53951.50499999967,
      "d": 64.26398437500029,
      "v": 75
    },
    {
      "midi": 38,
      "hit": false,
      "t": 53951.504999999954,
      "d": 189.01171875,
      "v": 110
    },
    {
      "midi": 46,
      "hit": false,
      "t": 54072.47249999967,
      "d": 64.26398437500029,
      "v": 75
    },
    {
      "midi": 50,
      "hit": false,
      "t": 54193.43999999967,
      "d": 64.26398437500029,
      "v": 75
    },
    {
      "midi": 38,
      "hit": false,
      "t": 54193.43999999995,
      "d": 189.01171875,
      "v": 110
    },
    {
      "midi": 57,
      "hit": false,
      "t": 54193.440000000046,
      "d": 3886.0809375000026,
      "v": 62
    },
    {
      "midi": 50,
      "hit": false,
      "t": 54314.40749999967,
      "d": 64.26398437500029,
      "v": 75
    },
    {
      "midi": 50,
      "hit": false,
      "t": 54435.374999999665,
      "d": 64.26398437500029,
      "v": 75
    },
    {
      "midi": 50,
      "hit": false,
      "t": 54556.342499999664,
      "d": 64.26398437500029,
      "v": 75
    },
    {
      "midi": 50,
      "hit": false,
      "t": 54677.30999999966,
      "d": 64.26398437500029,
      "v": 75
    },
    {
      "midi": 38,
      "hit": false,
      "t": 54677.309999999954,
      "d": 189.01171875,
      "v": 110
    },
    {
      "midi": 50,
      "hit": false,
      "t": 54798.27749999966,
      "d": 64.26398437500029,
      "v": 75
    },
    {
      "midi": 50,
      "hit": false,
      "t": 54919.24499999966,
      "d": 64.26398437500029,
      "v": 75
    },
    {
      "midi": 50,
      "hit": false,
      "t": 55040.21249999966,
      "d": 64.26398437500029,
      "v": 75
    },
    {
      "midi": 38,
      "hit": false,
      "t": 55040.21249999995,
      "d": 189.01171875,
      "v": 110
    },
    {
      "midi": 74,
      "hit": false,
      "t": 55151.09937499999,
      "d": 229.33421875000204,
      "v": 98
    },
    {
      "midi": 50,
      "hit": false,
      "t": 55161.17999999966,
      "d": 64.26398437500029,
      "v": 75
    },
    {
      "midi": 50,
      "hit": false,
      "t": 55282.14749999966,
      "d": 64.26398437500029,
      "v": 75
    },
    {
      "midi": 50,
      "hit": false,
      "t": 55403.114999999656,
      "d": 64.26398437500029,
      "v": 75
    },
    {
      "midi": 38,
      "hit": false,
      "t": 55403.11499999995,
      "d": 189.01171875,
      "v": 110
    },
    {
      "midi": 75,
      "hit": false,
      "t": 55404.37507812499,
      "d": 173.8907812499965,
      "v": 98
    },
    {
      "midi": 50,
      "hit": false,
      "t": 55524.082499999655,
      "d": 64.26398437500029,
      "v": 75
    },
    {
      "midi": 74,
      "hit": false,
      "t": 55642.52984374999,
      "d": 161.29000000000087,
      "v": 95
    },
    {
      "midi": 50,
      "hit": false,
      "t": 55645.049999999654,
      "d": 64.26398437500029,
      "v": 75
    },
    {
      "midi": 50,
      "hit": false,
      "t": 55766.01749999965,
      "d": 64.26398437500029,
      "v": 75
    },
    {
      "midi": 50,
      "hit": false,
      "t": 55886.98499999965,
      "d": 64.26398437500029,
      "v": 75
    },
    {
      "midi": 38,
      "hit": false,
      "t": 55886.98499999995,
      "d": 189.01171875,
      "v": 110
    },
    {
      "midi": 74,
      "hit": false,
      "t": 55898.32570312499,
      "d": 956.3992968749881,
      "v": 95
    },
    {
      "midi": 50,
      "hit": false,
      "t": 56007.95249999965,
      "d": 64.26398437500029,
      "v": 75
    },
    {
      "midi": 60,
      "hit": false,
      "t": 56007.95250000004,
      "d": 1992.1835156250017,
      "v": 62
    },
    {
      "midi": 48,
      "hit": false,
      "t": 56128.91999999965,
      "d": 64.26398437500029,
      "v": 75
    },
    {
      "midi": 41,
      "hit": false,
      "t": 56128.91999999995,
      "d": 189.01171875,
      "v": 110
    },
    {
      "midi": 48,
      "hit": false,
      "t": 56249.88749999965,
      "d": 64.26398437500029,
      "v": 75
    },
    {
      "midi": 48,
      "hit": false,
      "t": 56370.85499999965,
      "d": 64.26398437500029,
      "v": 75
    },
    {
      "midi": 48,
      "hit": false,
      "t": 56491.822499999646,
      "d": 64.26398437500029,
      "v": 75
    },
    {
      "midi": 48,
      "hit": false,
      "t": 56612.789999999644,
      "d": 64.26398437500029,
      "v": 75
    },
    {
      "midi": 41,
      "hit": false,
      "t": 56612.78999999995,
      "d": 189.01171875,
      "v": 110
    },
    {
      "midi": 48,
      "hit": false,
      "t": 56733.75749999964,
      "d": 64.26398437500029,
      "v": 75
    },
    {
      "midi": 48,
      "hit": false,
      "t": 56854.72499999964,
      "d": 64.26398437500029,
      "v": 75
    },
    {
      "midi": 48,
      "hit": false,
      "t": 56975.69249999964,
      "d": 64.26398437500029,
      "v": 75
    },
    {
      "midi": 41,
      "hit": false,
      "t": 56975.69249999995,
      "d": 189.01171875,
      "v": 110
    },
    {
      "midi": 48,
      "hit": false,
      "t": 57096.65999999964,
      "d": 64.26398437500029,
      "v": 75
    },
    {
      "midi": 48,
      "hit": false,
      "t": 57217.62749999964,
      "d": 64.26398437500029,
      "v": 75
    },
    {
      "midi": 48,
      "hit": false,
      "t": 57338.59499999964,
      "d": 64.26398437500029,
      "v": 75
    },
    {
      "midi": 38,
      "hit": false,
      "t": 57338.59499999994,
      "d": 189.01171875,
      "v": 110
    },
    {
      "midi": 74,
      "hit": false,
      "t": 57338.59499999997,
      "d": 241.93499999999767,
      "v": 116
    },
    {
      "midi": 48,
      "hit": false,
      "t": 57459.562499999636,
      "d": 64.26398437500029,
      "v": 75
    },
    {
      "midi": 48,
      "hit": false,
      "t": 57580.529999999635,
      "d": 64.26398437500029,
      "v": 75
    },
    {
      "midi": 77,
      "hit": false,
      "t": 57580.52999999997,
      "d": 241.93499999999767,
      "v": 119
    },
    {
      "midi": 48,
      "hit": false,
      "t": 57701.497499999634,
      "d": 64.26398437500029,
      "v": 75
    },
    {
      "midi": 48,
      "hit": false,
      "t": 57822.46499999963,
      "d": 64.26398437500029,
      "v": 75
    },
    {
      "midi": 41,
      "hit": false,
      "t": 57822.464999999946,
      "d": 189.01171875,
      "v": 110
    },
    {
      "midi": 79,
      "hit": false,
      "t": 57822.46499999997,
      "d": 241.93499999999767,
      "v": 113
    },
    {
      "midi": 48,
      "hit": false,
      "t": 57943.43249999963,
      "d": 64.26398437500029,
      "v": 75
    },
    {
      "midi": 43,
      "hit": false,
      "t": 58064.39999999963,
      "d": 64.26398437500029,
      "v": 75
    },
    {
      "midi": 43,
      "hit": false,
      "t": 58064.39999999994,
      "d": 189.01171875,
      "v": 110
    },
    {
      "midi": 70,
      "hit": false,
      "t": 58064.39999999999,
      "d": 89.46554687499884,
      "v": 96
    },
    {
      "midi": 55,
      "hit": false,
      "t": 58064.400000000045,
      "d": 1794.351250000007,
      "v": 62
    },
    {
      "midi": 79,
      "hit": false,
      "t": 58064.400000000045,
      "d": 1898.9377343750093,
      "v": 62
    },
    {
      "midi": 58,
      "hit": false,
      "t": 58064.400000000045,
      "d": 3840.718125000014,
      "v": 62
    },
    {
      "midi": 62,
      "hit": false,
      "t": 58064.400000000045,
      "d": 5752.256640625012,
      "v": 62
    },
    {
      "midi": 43,
      "hit": false,
      "t": 58185.36749999963,
      "d": 64.26398437500029,
      "v": 75
    },
    {
      "midi": 43,
      "hit": false,
      "t": 58306.33499999963,
      "d": 64.26398437500029,
      "v": 75
    },
    {
      "midi": 69,
      "hit": false,
      "t": 58306.334999999985,
      "d": 86.94539062499825,
      "v": 96
    },
    {
      "midi": 79,
      "hit": false,
      "t": 58317.675703125,
      "d": 244.45515624999825,
      "v": 100
    },
    {
      "midi": 43,
      "hit": false,
      "t": 58427.30249999963,
      "d": 64.26398437500029,
      "v": 75
    },
    {
      "midi": 43,
      "hit": false,
      "t": 58548.269999999626,
      "d": 64.26398437500029,
      "v": 75
    },
    {
      "midi": 43,
      "hit": false,
      "t": 58548.269999999946,
      "d": 189.01171875,
      "v": 110
    },
    {
      "midi": 70,
      "hit": false,
      "t": 58548.26999999998,
      "d": 99.54617187500116,
      "v": 93
    },
    {
      "midi": 43,
      "hit": false,
      "t": 58669.237499999625,
      "d": 64.26398437500029,
      "v": 75
    },
    {
      "midi": 43,
      "hit": false,
      "t": 58790.20499999962,
      "d": 64.26398437500029,
      "v": 75
    },
    {
      "midi": 67,
      "hit": false,
      "t": 58790.20499999998,
      "d": 118.44734374999825,
      "v": 86
    },
    {
      "midi": 79,
      "hit": false,
      "t": 58829.267421875,
      "d": 240.67492187499738,
      "v": 84
    },
    {
      "midi": 43,
      "hit": false,
      "t": 58911.17249999962,
      "d": 64.26398437500029,
      "v": 75
    },
    {
      "midi": 43,
      "hit": false,
      "t": 58911.17249999994,
      "d": 189.01171875,
      "v": 110
    },
    {
      "midi": 43,
      "hit": false,
      "t": 59032.13999999962,
      "d": 64.26398437500029,
      "v": 75
    },
    {
      "midi": 70,
      "hit": false,
      "t": 59032.13999999998,
      "d": 99.54617187500116,
      "v": 90
    },
    {
      "midi": 74,
      "hit": false,
      "t": 59034.66015624997,
      "d": 143.6489062499968,
      "v": 106
    },
    {
      "midi": 43,
      "hit": false,
      "t": 59153.10749999962,
      "d": 64.26398437500029,
      "v": 75
    },
    {
      "midi": 43,
      "hit": false,
      "t": 59274.07499999962,
      "d": 64.26398437500029,
      "v": 75
    },
    {
      "midi": 43,
      "hit": false,
      "t": 59274.07499999994,
      "d": 189.01171875,
      "v": 110
    },
    {
      "midi": 75,
      "hit": false,
      "t": 59274.07499999997,
      "d": 161.29000000000087,
      "v": 106
    },
    {
      "midi": 69,
      "hit": false,
      "t": 59274.074999999975,
      "d": 93.24578124999971,
      "v": 89
    },
    {
      "midi": 79,
      "hit": false,
      "t": 59332.03859375,
      "d": 236.8946874999965,
      "v": 68
    },
    {
      "midi": 43,
      "hit": false,
      "t": 59395.04249999962,
      "d": 64.26398437500029,
      "v": 75
    },
    {
      "midi": 74,
      "hit": false,
      "t": 59514.749921874965,
      "d": 200.35242187500262,
      "v": 119
    },
    {
      "midi": 43,
      "hit": false,
      "t": 59516.00999999962,
      "d": 64.26398437500029,
      "v": 75
    },
    {
      "midi": 70,
      "hit": false,
      "t": 59516.00999999997,
      "d": 90.72562499999913,
      "v": 105
    },
    {
      "midi": 43,
      "hit": false,
      "t": 59636.977499999615,
      "d": 64.26398437500029,
      "v": 75
    },
    {
      "midi": 77,
      "hit": false,
      "t": 59741.56398437497,
      "d": 461.1885937499974,
      "v": 113
    },
    {
      "midi": 43,
      "hit": false,
      "t": 59757.944999999614,
      "d": 64.26398437500029,
      "v": 75
    },
    {
      "midi": 41,
      "hit": false,
      "t": 59757.94499999994,
      "d": 189.01171875,
      "v": 110
    },
    {
      "midi": 67,
      "hit": false,
      "t": 59757.94499999997,
      "d": 114.66710937499738,
      "v": 89
    },
    {
      "midi": 79,
      "hit": false,
      "t": 59842.370234375,
      "d": 230.59429687500233,
      "v": 51
    },
    {
      "midi": 43,
      "hit": false,
      "t": 59878.91249999961,
      "d": 64.26398437500029,
      "v": 75
    },
    {
      "midi": 82,
      "hit": false,
      "t": 59934.355937500055,
      "d": 1938.0001562500038,
      "v": 62
    },
    {
      "midi": 46,
      "hit": false,
      "t": 59999.87999999961,
      "d": 64.26398437500029,
      "v": 75
    },
    {
      "midi": 34,
      "hit": false,
      "t": 59999.87999999994,
      "d": 189.01171875,
      "v": 110
    },
    {
      "midi": 70,
      "hit": false,
      "t": 59999.87999999997,
      "d": 102.06632812500175,
      "v": 100
    },
    {
      "midi": 53,
      "hit": false,
      "t": 59999.880000000056,
      "d": 5830.381484375008,
      "v": 62
    },
    {
      "midi": 46,
      "hit": false,
      "t": 60120.84749999961,
      "d": 64.26398437500029,
      "v": 75
    },
    {
      "midi": 74,
      "hit": false,
      "t": 60224.17390624996,
      "d": 332.6606249999968,
      "v": 100
    },
    {
      "midi": 46,
      "hit": false,
      "t": 60241.81499999961,
      "d": 64.26398437500029,
      "v": 75
    },
    {
      "midi": 69,
      "hit": false,
      "t": 60241.81499999997,
      "d": 84.42523437499767,
      "v": 86
    },
    {
      "midi": 79,
      "hit": false,
      "t": 60355.22203125,
      "d": 244.45515624999825,
      "v": 35
    },
    {
      "midi": 46,
      "hit": false,
      "t": 60362.78249999961,
      "d": 64.26398437500029,
      "v": 75
    },
    {
      "midi": 46,
      "hit": false,
      "t": 60483.74999999961,
      "d": 64.26398437500029,
      "v": 75
    },
    {
      "midi": 34,
      "hit": false,
      "t": 60483.74999999994,
      "d": 189.01171875,
      "v": 110
    },
    {
      "midi": 70,
      "hit": false,
      "t": 60483.74999999997,
      "d": 90.72562499999913,
      "v": 100
    },
    {
      "midi": 46,
      "hit": false,
      "t": 60604.717499999606,
      "d": 64.26398437500029,
      "v": 75
    },
    {
      "midi": 46,
      "hit": false,
      "t": 60725.684999999605,
      "d": 64.26398437500029,
      "v": 75
    },
    {
      "midi": 65,
      "hit": false,
      "t": 60725.68499999997,
      "d": 123.48765624999942,
      "v": 96
    },
    {
      "midi": 46,
      "hit": false,
      "t": 60846.6524999996,
      "d": 64.26398437500029,
      "v": 75
    },
    {
      "midi": 34,
      "hit": false,
      "t": 60846.65249999994,
      "d": 189.01171875,
      "v": 110
    },
    {
      "midi": 79,
      "hit": false,
      "t": 60857.993203125,
      "d": 192.79195312500087,
      "v": 19
    },
    {
      "midi": 46,
      "hit": false,
      "t": 60967.6199999996,
      "d": 64.26398437500029,
      "v": 75
    },
    {
      "midi": 70,
      "hit": false,
      "t": 60967.619999999966,
      "d": 95.76593750000029,
      "v": 90
    },
    {
      "midi": 46,
      "hit": false,
      "t": 61088.5874999996,
      "d": 64.26398437500029,
      "v": 75
    },
    {
      "midi": 46,
      "hit": false,
      "t": 61209.5549999996,
      "d": 64.26398437500029,
      "v": 75
    },
    {
      "midi": 36,
      "hit": false,
      "t": 61209.554999999935,
      "d": 189.01171875,
      "v": 110
    },
    {
      "midi": 69,
      "hit": false,
      "t": 61209.554999999964,
      "d": 98.28609375000087,
      "v": 87
    },
    {
      "midi": 46,
      "hit": false,
      "t": 61330.5224999996,
      "d": 64.26398437500029,
      "v": 75
    },
    {
      "midi": 74,
      "hit": false,
      "t": 61445.18960937496,
      "d": 180.19117187499796,
      "v": 106
    },
    {
      "midi": 46,
      "hit": false,
      "t": 61451.4899999996,
      "d": 64.26398437500029,
      "v": 75
    },
    {
      "midi": 70,
      "hit": false,
      "t": 61451.48999999996,
      "d": 105.84656250000262,
      "v": 85
    },
    {
      "midi": 46,
      "hit": false,
      "t": 61572.4574999996,
      "d": 64.26398437500029,
      "v": 75
    },
    {
      "midi": 77,
      "hit": false,
      "t": 61690.90484374996,
      "d": 498.9909375000061,
      "v": 103
    },
    {
      "midi": 46,
      "hit": false,
      "t": 61693.424999999595,
      "d": 64.26398437500029,
      "v": 75
    },
    {
      "midi": 38,
      "hit": false,
      "t": 61693.42499999994,
      "d": 189.01171875,
      "v": 110
    },
    {
      "midi": 65,
      "hit": false,
      "t": 61693.42499999997,
      "d": 126.0078125,
      "v": 86
    },
    {
      "midi": 46,
      "hit": false,
      "t": 61814.392499999594,
      "d": 64.26398437500029,
      "v": 75
    },
    {
      "midi": 74,
      "hit": false,
      "t": 61889.997187500056,
      "d": 1924.1392968750006,
      "v": 62
    },
    {
      "midi": 50,
      "hit": false,
      "t": 61935.35999999959,
      "d": 64.26398437500029,
      "v": 75
    },
    {
      "midi": 38,
      "hit": false,
      "t": 61935.359999999935,
      "d": 189.01171875,
      "v": 110
    },
    {
      "midi": 69,
      "hit": false,
      "t": 61935.359999999964,
      "d": 113.40703124999709,
      "v": 96
    },
    {
      "midi": 57,
      "hit": false,
      "t": 61935.36000000006,
      "d": 3886.08093750001,
      "v": 62
    },
    {
      "midi": 50,
      "hit": false,
      "t": 62056.32749999959,
      "d": 64.26398437500029,
      "v": 75
    },
    {
      "midi": 50,
      "hit": false,
      "t": 62177.29499999959,
      "d": 64.26398437500029,
      "v": 75
    },
    {
      "midi": 67,
      "hit": false,
      "t": 62177.29499999996,
      "d": 105.84656250000262,
      "v": 87
    },
    {
      "midi": 74,
      "hit": false,
      "t": 62201.23648437497,
      "d": 338.96101562500553,
      "v": 103
    },
    {
      "midi": 50,
      "hit": false,
      "t": 62298.26249999959,
      "d": 64.26398437500029,
      "v": 75
    },
    {
      "midi": 50,
      "hit": false,
      "t": 62419.22999999959,
      "d": 64.26398437500029,
      "v": 75
    },
    {
      "midi": 38,
      "hit": false,
      "t": 62419.22999999994,
      "d": 189.01171875,
      "v": 110
    },
    {
      "midi": 69,
      "hit": false,
      "t": 62419.22999999997,
      "d": 88.20546874999854,
      "v": 94
    },
    {
      "midi": 50,
      "hit": false,
      "t": 62540.19749999959,
      "d": 64.26398437500029,
      "v": 75
    },
    {
      "midi": 50,
      "hit": false,
      "t": 62661.164999999586,
      "d": 64.26398437500029,
      "v": 75
    },
    {
      "midi": 65,
      "hit": false,
      "t": 62661.164999999964,
      "d": 109.62679687500349,
      "v": 94
    },
    {
      "midi": 50,
      "hit": false,
      "t": 62782.132499999585,
      "d": 64.26398437500029,
      "v": 75
    },
    {
      "midi": 38,
      "hit": false,
      "t": 62782.132499999934,
      "d": 189.01171875,
      "v": 110
    },
    {
      "midi": 50,
      "hit": false,
      "t": 62903.099999999584,
      "d": 64.26398437500029,
      "v": 75
    },
    {
      "midi": 69,
      "hit": false,
      "t": 62903.09999999997,
      "d": 97.02601562500058,
      "v": 92
    },
    {
      "midi": 50,
      "hit": false,
      "t": 63024.06749999958,
      "d": 64.26398437500029,
      "v": 75
    },
    {
      "midi": 50,
      "hit": false,
      "t": 63145.03499999958,
      "d": 64.26398437500029,
      "v": 75
    },
    {
      "midi": 38,
      "hit": false,
      "t": 63145.03499999993,
      "d": 189.01171875,
      "v": 110
    },
    {
      "midi": 67,
      "hit": false,
      "t": 63145.03499999997,
      "d": 81.90507812499709,
      "v": 90
    },
    {
      "midi": 50,
      "hit": false,
      "t": 63266.00249999958,
      "d": 64.26398437500029,
      "v": 75
    },
    {
      "midi": 74,
      "hit": false,
      "t": 63380.66960937497,
      "d": 234.3745312500032,
      "v": 117
    },
    {
      "midi": 50,
      "hit": false,
      "t": 63386.96999999958,
      "d": 64.26398437500029,
      "v": 75
    },
    {
      "midi": 69,
      "hit": false,
      "t": 63386.969999999965,
      "d": 88.20546874999854,
      "v": 96
    },
    {
      "midi": 50,
      "hit": false,
      "t": 63507.93749999958,
      "d": 64.26398437500029,
      "v": 75
    },
    {
      "midi": 50,
      "hit": false,
      "t": 63628.90499999958,
      "d": 64.26398437500029,
      "v": 75
    },
    {
      "midi": 38,
      "hit": false,
      "t": 63628.90499999993,
      "d": 189.01171875,
      "v": 110
    },
    {
      "midi": 65,
      "hit": false,
      "t": 63628.90499999996,
      "d": 103.32640625000204,
      "v": 92
    },
    {
      "midi": 72,
      "hit": false,
      "t": 63641.50578124997,
      "d": 507.8114843750009,
      "v": 100
    },
    {
      "midi": 50,
      "hit": false,
      "t": 63749.872499999576,
      "d": 64.26398437500029,
      "v": 75
    },
    {
      "midi": 60,
      "hit": false,
      "t": 63749.872500000056,
      "d": 1992.1835156250017,
      "v": 62
    },
    {
      "midi": 72,
      "hit": false,
      "t": 63822.95703125006,
      "d": 1973.2823437500047,
      "v": 62
    },
    {
      "midi": 48,
      "hit": false,
      "t": 63870.839999999575,
      "d": 64.26398437500029,
      "v": 75
    },
    {
      "midi": 41,
      "hit": false,
      "t": 63870.83999999993,
      "d": 189.01171875,
      "v": 110
    },
    {
      "midi": 69,
      "hit": false,
      "t": 63870.83999999997,
      "d": 81.90507812499709,
      "v": 100
    },
    {
      "midi": 48,
      "hit": false,
      "t": 63991.80749999957,
      "d": 64.26398437500029,
      "v": 75
    },
    {
      "midi": 48,
      "hit": false,
      "t": 64112.77499999957,
      "d": 64.26398437500029,
      "v": 75
    },
    {
      "midi": 67,
      "hit": false,
      "t": 64112.774999999965,
      "d": 104.58648437500233,
      "v": 87
    },
    {
      "midi": 48,
      "hit": false,
      "t": 64233.74249999957,
      "d": 64.26398437500029,
      "v": 75
    },
    {
      "midi": 48,
      "hit": false,
      "t": 64354.70999999957,
      "d": 64.26398437500029,
      "v": 75
    },
    {
      "midi": 41,
      "hit": false,
      "t": 64354.709999999934,
      "d": 189.01171875,
      "v": 110
    },
    {
      "midi": 69,
      "hit": false,
      "t": 64354.70999999997,
      "d": 94.505859375,
      "v": 92
    },
    {
      "midi": 48,
      "hit": false,
      "t": 64475.67749999957,
      "d": 64.26398437500029,
      "v": 75
    },
    {
      "midi": 48,
      "hit": false,
      "t": 64596.64499999957,
      "d": 64.26398437500029,
      "v": 75
    },
    {
      "midi": 65,
      "hit": false,
      "t": 64596.64499999997,
      "d": 114.66710937499738,
      "v": 92
    },
    {
      "midi": 48,
      "hit": false,
      "t": 64717.612499999566,
      "d": 64.26398437500029,
      "v": 75
    },
    {
      "midi": 41,
      "hit": false,
      "t": 64717.61249999993,
      "d": 189.01171875,
      "v": 110
    },
    {
      "midi": 48,
      "hit": false,
      "t": 64838.579999999565,
      "d": 64.26398437500029,
      "v": 75
    },
    {
      "midi": 69,
      "hit": false,
      "t": 64838.579999999965,
      "d": 100.80625000000146,
      "v": 92
    },
    {
      "midi": 48,
      "hit": false,
      "t": 64959.547499999564,
      "d": 64.26398437500029,
      "v": 75
    },
    {
      "midi": 48,
      "hit": false,
      "t": 65080.51499999956,
      "d": 64.26398437500029,
      "v": 75
    },
    {
      "midi": 38,
      "hit": false,
      "t": 65080.51499999993,
      "d": 189.01171875,
      "v": 110
    },
    {
      "midi": 67,
      "hit": false,
      "t": 65080.51499999997,
      "d": 97.02601562500058,
      "v": 87
    },
    {
      "midi": 74,
      "hit": false,
      "t": 65080.51499999998,
      "d": 241.93499999999767,
      "v": 107
    },
    {
      "midi": 48,
      "hit": false,
      "t": 65201.48249999956,
      "d": 64.26398437500029,
      "v": 75
    },
    {
      "midi": 48,
      "hit": false,
      "t": 65322.44999999956,
      "d": 64.26398437500029,
      "v": 75
    },
    {
      "midi": 69,
      "hit": false,
      "t": 65322.44999999997,
      "d": 94.505859375,
      "v": 94
    },
    {
      "midi": 77,
      "hit": false,
      "t": 65322.449999999975,
      "d": 241.93500000000495,
      "v": 110
    },
    {
      "midi": 48,
      "hit": false,
      "t": 65443.41749999956,
      "d": 64.26398437500029,
      "v": 75
    },
    {
      "midi": 48,
      "hit": false,
      "t": 65564.38499999956,
      "d": 64.26398437499302,
      "v": 75
    },
    {
      "midi": 41,
      "hit": false,
      "t": 65564.38499999992,
      "d": 189.01171875,
      "v": 110
    },
    {
      "midi": 65,
      "hit": false,
      "t": 65564.38499999997,
      "d": 122.2275781250064,
      "v": 92
    },
    {
      "midi": 79,
      "hit": false,
      "t": 65564.38499999998,
      "d": 241.93499999999767,
      "v": 110
    },
    {
      "midi": 48,
      "hit": false,
      "t": 65685.35249999956,
      "d": 64.26398437499302,
      "v": 75
    },
    {
      "midi": 43,
      "hit": false,
      "t": 65806.31999999956,
      "d": 64.26398437499302,
      "v": 75
    },
    {
      "midi": 43,
      "hit": false,
      "t": 65806.31999999992,
      "d": 189.01171875,
      "v": 110
    },
    {
      "midi": 70,
      "hit": false,
      "t": 65806.31999999998,
      "d": 89.46554687499884,
      "v": 96
    },
    {
      "midi": 55,
      "hit": false,
      "t": 65806.32000000007,
      "d": 1794.3512499999924,
      "v": 62
    },
    {
      "midi": 79,
      "hit": false,
      "t": 65806.32000000007,
      "d": 1898.9377343749948,
      "v": 62
    },
    {
      "midi": 58,
      "hit": false,
      "t": 65806.32000000007,
      "d": 3840.7181249999994,
      "v": 62
    },
    {
      "midi": 62,
      "hit": false,
      "t": 65806.32000000007,
      "d": 5752.256640624997,
      "v": 62
    },
    {
      "midi": 43,
      "hit": false,
      "t": 65927.28749999955,
      "d": 64.26398437499302,
      "v": 75
    },
    {
      "midi": 43,
      "hit": false,
      "t": 66048.25499999955,
      "d": 64.26398437499302,
      "v": 75
    },
    {
      "midi": 69,
      "hit": false,
      "t": 66048.25499999998,
      "d": 86.94539062499825,
      "v": 96
    },
    {
      "midi": 79,
      "hit": false,
      "t": 66059.595703125,
      "d": 244.45515624999825,
      "v": 100
    },
    {
      "midi": 43,
      "hit": false,
      "t": 66169.22249999955,
      "d": 64.26398437499302,
      "v": 75
    },
    {
      "midi": 43,
      "hit": false,
      "t": 66290.18999999955,
      "d": 64.26398437499302,
      "v": 75
    },
    {
      "midi": 43,
      "hit": false,
      "t": 66290.18999999992,
      "d": 189.01171875,
      "v": 110
    },
    {
      "midi": 70,
      "hit": false,
      "t": 66290.18999999997,
      "d": 99.54617187500116,
      "v": 93
    },
    {
      "midi": 43,
      "hit": false,
      "t": 66411.15749999955,
      "d": 64.26398437499302,
      "v": 75
    },
    {
      "midi": 43,
      "hit": false,
      "t": 66532.12499999955,
      "d": 64.26398437499302,
      "v": 75
    },
    {
      "midi": 67,
      "hit": false,
      "t": 66532.12499999997,
      "d": 118.44734374999825,
      "v": 86
    },
    {
      "midi": 79,
      "hit": false,
      "t": 66571.187421875,
      "d": 240.67492187500466,
      "v": 84
    },
    {
      "midi": 43,
      "hit": false,
      "t": 66653.09249999955,
      "d": 64.26398437499302,
      "v": 75
    },
    {
      "midi": 43,
      "hit": false,
      "t": 66653.09249999991,
      "d": 189.01171875,
      "v": 110
    },
    {
      "midi": 43,
      "hit": false,
      "t": 66774.05999999955,
      "d": 64.26398437499302,
      "v": 75
    },
    {
      "midi": 70,
      "hit": false,
      "t": 66774.05999999997,
      "d": 99.54617187500116,
      "v": 90
    },
    {
      "midi": 74,
      "hit": false,
      "t": 66776.58015624997,
      "d": 143.64890625000407,
      "v": 106
    },
    {
      "midi": 43,
      "hit": false,
      "t": 66895.02749999955,
      "d": 64.26398437499302,
      "v": 75
    },
    {
      "midi": 43,
      "hit": false,
      "t": 67015.99499999954,
      "d": 64.26398437499302,
      "v": 75
    },
    {
      "midi": 43,
      "hit": false,
      "t": 67015.99499999991,
      "d": 189.01171875,
      "v": 110
    },
    {
      "midi": 75,
      "hit": false,
      "t": 67015.99499999997,
      "d": 161.2899999999936,
      "v": 106
    },
    {
      "midi": 69,
      "hit": false,
      "t": 67015.99499999997,
      "d": 93.24578125000698,
      "v": 89
    },
    {
      "midi": 79,
      "hit": false,
      "t": 67073.95859375001,
      "d": 236.8946874999965,
      "v": 68
    },
    {
      "midi": 43,
      "hit": false,
      "t": 67136.96249999954,
      "d": 64.26398437499302,
      "v": 75
    },
    {
      "midi": 74,
      "hit": false,
      "t": 67256.66992187496,
      "d": 200.35242187499534,
      "v": 119
    },
    {
      "midi": 43,
      "hit": false,
      "t": 67257.92999999954,
      "d": 64.26398437499302,
      "v": 75
    },
    {
      "midi": 70,
      "hit": false,
      "t": 67257.92999999998,
      "d": 90.7256250000064,
      "v": 105
    },
    {
      "midi": 43,
      "hit": false,
      "t": 67378.89749999954,
      "d": 64.26398437499302,
      "v": 75
    },
    {
      "midi": 77,
      "hit": false,
      "t": 67483.48398437495,
      "d": 461.18859375000466,
      "v": 113
    },
    {
      "midi": 43,
      "hit": false,
      "t": 67499.86499999954,
      "d": 64.26398437499302,
      "v": 75
    },
    {
      "midi": 41,
      "hit": false,
      "t": 67499.8649999999,
      "d": 189.01171875,
      "v": 110
    },
    {
      "midi": 67,
      "hit": false,
      "t": 67499.86499999999,
      "d": 114.66710937500466,
      "v": 89
    },
    {
      "midi": 79,
      "hit": false,
      "t": 67584.290234375,
      "d": 230.59429687500233,
      "v": 51
    },
    {
      "midi": 43,
      "hit": false,
      "t": 67620.83249999954,
      "d": 64.26398437499302,
      "v": 75
    },
    {
      "midi": 82,
      "hit": false,
      "t": 67676.27593750006,
      "d": 1938.0001562499965,
      "v": 62
    },
    {
      "midi": 46,
      "hit": false,
      "t": 67741.79999999954,
      "d": 64.26398437499302,
      "v": 75
    },
    {
      "midi": 34,
      "hit": false,
      "t": 67741.7999999999,
      "d": 189.01171875,
      "v": 110
    },
    {
      "midi": 70,
      "hit": false,
      "t": 67741.79999999999,
      "d": 102.06632812500175,
      "v": 100
    },
    {
      "midi": 53,
      "hit": false,
      "t": 67741.80000000006,
      "d": 5830.381484375001,
      "v": 62
    },
    {
      "midi": 46,
      "hit": false,
      "t": 67862.76749999954,
      "d": 64.26398437499302,
      "v": 75
    },
    {
      "midi": 74,
      "hit": false,
      "t": 67966.09390624995,
      "d": 332.6606250000041,
      "v": 100
    },
    {
      "midi": 46,
      "hit": false,
      "t": 67983.73499999953,
      "d": 64.26398437499302,
      "v": 75
    },
    {
      "midi": 69,
      "hit": false,
      "t": 67983.73499999999,
      "d": 84.42523437499767,
      "v": 86
    },
    {
      "midi": 79,
      "hit": false,
      "t": 68097.14203125001,
      "d": 244.45515624999825,
      "v": 35
    },
    {
      "midi": 46,
      "hit": false,
      "t": 68104.70249999953,
      "d": 64.26398437499302,
      "v": 75
    },
    {
      "midi": 46,
      "hit": false,
      "t": 68225.66999999953,
      "d": 64.26398437499302,
      "v": 75
    },
    {
      "midi": 34,
      "hit": false,
      "t": 68225.6699999999,
      "d": 189.01171875,
      "v": 110
    },
    {
      "midi": 70,
      "hit": false,
      "t": 68225.66999999998,
      "d": 90.7256250000064,
      "v": 100
    },
    {
      "midi": 46,
      "hit": false,
      "t": 68346.63749999953,
      "d": 64.26398437499302,
      "v": 75
    },
    {
      "midi": 46,
      "hit": false,
      "t": 68467.60499999953,
      "d": 64.26398437499302,
      "v": 75
    },
    {
      "midi": 65,
      "hit": false,
      "t": 68467.605,
      "d": 123.48765624999942,
      "v": 96
    },
    {
      "midi": 46,
      "hit": false,
      "t": 68588.57249999953,
      "d": 64.26398437499302,
      "v": 75
    },
    {
      "midi": 34,
      "hit": false,
      "t": 68588.5724999999,
      "d": 189.01171875,
      "v": 110
    },
    {
      "midi": 79,
      "hit": false,
      "t": 68599.913203125,
      "d": 192.7919531249936,
      "v": 19
    },
    {
      "midi": 46,
      "hit": false,
      "t": 68709.53999999953,
      "d": 64.26398437499302,
      "v": 75
    },
    {
      "midi": 70,
      "hit": false,
      "t": 68709.54,
      "d": 95.76593749999302,
      "v": 90
    },
    {
      "midi": 46,
      "hit": false,
      "t": 68830.50749999953,
      "d": 64.26398437499302,
      "v": 75
    },
    {
      "midi": 46,
      "hit": false,
      "t": 68951.47499999953,
      "d": 64.26398437499302,
      "v": 75
    },
    {
      "midi": 36,
      "hit": false,
      "t": 68951.47499999989,
      "d": 189.01171875,
      "v": 110
    },
    {
      "midi": 69,
      "hit": false,
      "t": 68951.47499999999,
      "d": 98.2860937499936,
      "v": 87
    },
    {
      "midi": 46,
      "hit": false,
      "t": 69072.44249999952,
      "d": 64.26398437499302,
      "v": 75
    },
    {
      "midi": 74,
      "hit": false,
      "t": 69187.10960937495,
      "d": 180.19117187500524,
      "v": 106
    },
    {
      "midi": 46,
      "hit": false,
      "t": 69193.40999999952,
      "d": 64.26398437499302,
      "v": 75
    },
    {
      "midi": 70,
      "hit": false,
      "t": 69193.40999999999,
      "d": 105.84656249999534,
      "v": 85
    },
    {
      "midi": 46,
      "hit": false,
      "t": 69314.37749999952,
      "d": 64.26398437499302,
      "v": 75
    },
    {
      "midi": 77,
      "hit": false,
      "t": 69432.82484374996,
      "d": 498.99093749999884,
      "v": 103
    },
    {
      "midi": 46,
      "hit": false,
      "t": 69435.34499999952,
      "d": 64.26398437499302,
      "v": 75
    },
    {
      "midi": 38,
      "hit": false,
      "t": 69435.34499999988,
      "d": 189.01171875,
      "v": 110
    },
    {
      "midi": 65,
      "hit": false,
      "t": 69435.34499999999,
      "d": 126.0078125,
      "v": 86
    },
    {
      "midi": 46,
      "hit": false,
      "t": 69556.31249999952,
      "d": 64.26398437499302,
      "v": 75
    },
    {
      "midi": 74,
      "hit": false,
      "t": 69631.91718750006,
      "d": 1924.1392968750006,
      "v": 62
    },
    {
      "midi": 50,
      "hit": false,
      "t": 69677.27999999952,
      "d": 64.26398437499302,
      "v": 75
    },
    {
      "midi": 38,
      "hit": false,
      "t": 69677.27999999988,
      "d": 189.01171875,
      "v": 110
    },
    {
      "midi": 69,
      "hit": false,
      "t": 69677.27999999998,
      "d": 113.40703124999709,
      "v": 96
    },
    {
      "midi": 57,
      "hit": false,
      "t": 69677.28000000007,
      "d": 3886.0809374999953,
      "v": 62
    },
    {
      "midi": 50,
      "hit": false,
      "t": 69798.24749999952,
      "d": 64.26398437499302,
      "v": 75
    },
    {
      "midi": 50,
      "hit": false,
      "t": 69919.21499999952,
      "d": 64.26398437499302,
      "v": 75
    },
    {
      "midi": 67,
      "hit": false,
      "t": 69919.21499999998,
      "d": 105.84656249999534,
      "v": 87
    },
    {
      "midi": 74,
      "hit": false,
      "t": 69943.15648437495,
      "d": 338.96101562499825,
      "v": 103
    },
    {
      "midi": 50,
      "hit": false,
      "t": 70040.18249999952,
      "d": 64.26398437499302,
      "v": 75
    },
    {
      "midi": 50,
      "hit": false,
      "t": 70161.14999999951,
      "d": 64.26398437499302,
      "v": 75
    },
    {
      "midi": 38,
      "hit": false,
      "t": 70161.14999999988,
      "d": 189.01171875,
      "v": 110
    },
    {
      "midi": 69,
      "hit": false,
      "t": 70161.14999999998,
      "d": 88.20546875000582,
      "v": 94
    },
    {
      "midi": 50,
      "hit": false,
      "t": 70282.11749999951,
      "d": 64.26398437499302,
      "v": 75
    },
    {
      "midi": 50,
      "hit": false,
      "t": 70403.08499999951,
      "d": 64.26398437499302,
      "v": 75
    },
    {
      "midi": 65,
      "hit": false,
      "t": 70403.08499999999,
      "d": 109.62679687500349,
      "v": 94
    },
    {
      "midi": 50,
      "hit": false,
      "t": 70524.05249999951,
      "d": 64.26398437499302,
      "v": 75
    },
    {
      "midi": 38,
      "hit": false,
      "t": 70524.05249999987,
      "d": 189.01171875,
      "v": 110
    },
    {
      "midi": 50,
      "hit": false,
      "t": 70645.01999999951,
      "d": 64.26398437499302,
      "v": 75
    },
    {
      "midi": 69,
      "hit": false,
      "t": 70645.01999999999,
      "d": 97.02601562500058,
      "v": 92
    },
    {
      "midi": 50,
      "hit": false,
      "t": 70765.98749999951,
      "d": 64.26398437499302,
      "v": 75
    },
    {
      "midi": 50,
      "hit": false,
      "t": 70886.9549999995,
      "d": 64.26398437499302,
      "v": 75
    },
    {
      "midi": 38,
      "hit": false,
      "t": 70886.95499999987,
      "d": 189.01171875,
      "v": 110
    },
    {
      "midi": 67,
      "hit": false,
      "t": 70886.95499999999,
      "d": 81.90507812499709,
      "v": 90
    },
    {
      "midi": 50,
      "hit": false,
      "t": 71007.9224999995,
      "d": 64.26398437499302,
      "v": 75
    },
    {
      "midi": 74,
      "hit": false,
      "t": 71122.58960937495,
      "d": 234.37453124999593,
      "v": 117
    },
    {
      "midi": 50,
      "hit": false,
      "t": 71128.8899999995,
      "d": 64.26398437499302,
      "v": 75
    },
    {
      "midi": 69,
      "hit": false,
      "t": 71128.88999999998,
      "d": 88.20546875000582,
      "v": 96
    },
    {
      "midi": 50,
      "hit": false,
      "t": 71249.8574999995,
      "d": 64.26398437499302,
      "v": 75
    },
    {
      "midi": 50,
      "hit": false,
      "t": 71370.8249999995,
      "d": 64.26398437499302,
      "v": 75
    },
    {
      "midi": 38,
      "hit": false,
      "t": 71370.82499999987,
      "d": 189.01171875,
      "v": 110
    },
    {
      "midi": 65,
      "hit": false,
      "t": 71370.825,
      "d": 103.32640624999476,
      "v": 92
    },
    {
      "midi": 72,
      "hit": false,
      "t": 71383.42578124994,
      "d": 507.81148437500815,
      "v": 100
    },
    {
      "midi": 50,
      "hit": false,
      "t": 71491.7924999995,
      "d": 64.26398437499302,
      "v": 75
    },
    {
      "midi": 60,
      "hit": false,
      "t": 71491.79250000007,
      "d": 1992.1835156249872,
      "v": 62
    },
    {
      "midi": 72,
      "hit": false,
      "t": 71564.87703125006,
      "d": 1973.2823437500047,
      "v": 62
    },
    {
      "midi": 48,
      "hit": false,
      "t": 71612.7599999995,
      "d": 64.26398437499302,
      "v": 75
    },
    {
      "midi": 41,
      "hit": false,
      "t": 71612.75999999986,
      "d": 189.01171875,
      "v": 110
    },
    {
      "midi": 69,
      "hit": false,
      "t": 71612.76,
      "d": 81.90507812499709,
      "v": 100
    },
    {
      "midi": 48,
      "hit": false,
      "t": 71733.7274999995,
      "d": 64.26398437499302,
      "v": 75
    },
    {
      "midi": 48,
      "hit": false,
      "t": 71854.6949999995,
      "d": 64.26398437499302,
      "v": 75
    },
    {
      "midi": 67,
      "hit": false,
      "t": 71854.69499999999,
      "d": 104.58648437500233,
      "v": 87
    },
    {
      "midi": 48,
      "hit": false,
      "t": 71975.6624999995,
      "d": 64.26398437499302,
      "v": 75
    },
    {
      "midi": 48,
      "hit": false,
      "t": 72096.6299999995,
      "d": 64.26398437499302,
      "v": 75
    },
    {
      "midi": 41,
      "hit": false,
      "t": 72096.62999999986,
      "d": 189.01171875,
      "v": 110
    },
    {
      "midi": 69,
      "hit": false,
      "t": 72096.62999999999,
      "d": 94.505859375,
      "v": 92
    },
    {
      "midi": 48,
      "hit": false,
      "t": 72217.5974999995,
      "d": 64.26398437499302,
      "v": 75
    },
    {
      "midi": 48,
      "hit": false,
      "t": 72338.5649999995,
      "d": 64.26398437499302,
      "v": 75
    },
    {
      "midi": 65,
      "hit": false,
      "t": 72338.56499999999,
      "d": 114.66710937500466,
      "v": 92
    },
    {
      "midi": 48,
      "hit": false,
      "t": 72459.53249999949,
      "d": 64.26398437499302,
      "v": 75
    },
    {
      "midi": 41,
      "hit": false,
      "t": 72459.53249999986,
      "d": 189.01171875,
      "v": 110
    },
    {
      "midi": 48,
      "hit": false,
      "t": 72580.49999999949,
      "d": 64.26398437499302,
      "v": 75
    },
    {
      "midi": 69,
      "hit": false,
      "t": 72580.49999999999,
      "d": 100.80624999999418,
      "v": 92
    },
    {
      "midi": 48,
      "hit": false,
      "t": 72701.46749999949,
      "d": 64.26398437499302,
      "v": 75
    },
    {
      "midi": 48,
      "hit": false,
      "t": 72822.43499999949,
      "d": 64.26398437499302,
      "v": 75
    },
    {
      "midi": 38,
      "hit": false,
      "t": 72822.43499999985,
      "d": 189.01171875,
      "v": 110
    },
    {
      "midi": 67,
      "hit": false,
      "t": 72822.43499999998,
      "d": 97.02601562500058,
      "v": 87
    },
    {
      "midi": 48,
      "hit": false,
      "t": 72943.40249999949,
      "d": 64.26398437499302,
      "v": 75
    },
    {
      "midi": 48,
      "hit": false,
      "t": 73064.36999999949,
      "d": 64.26398437499302,
      "v": 75
    },
    {
      "midi": 69,
      "hit": false,
      "t": 73064.36999999998,
      "d": 94.505859375,
      "v": 94
    },
    {
      "midi": 48,
      "hit": false,
      "t": 73185.33749999948,
      "d": 64.26398437499302,
      "v": 75
    },
    {
      "midi": 48,
      "hit": false,
      "t": 73306.30499999948,
      "d": 64.26398437499302,
      "v": 75
    },
    {
      "midi": 41,
      "hit": false,
      "t": 73306.30499999985,
      "d": 189.01171875,
      "v": 110
    },
    {
      "midi": 65,
      "hit": false,
      "t": 73306.30499999998,
      "d": 122.2275781250064,
      "v": 92
    },
    {
      "midi": 48,
      "hit": false,
      "t": 73427.27249999948,
      "d": 64.26398437499302,
      "v": 75
    },
    {
      "midi": 43,
      "hit": false,
      "t": 73548.23999999948,
      "d": 64.26398437499302,
      "v": 75
    },
    {
      "midi": 43,
      "hit": false,
      "t": 73548.23999999985,
      "d": 189.01171875,
      "v": 110
    },
    {
      "midi": 43,
      "hit": false,
      "t": 73548.23999999999,
      "d": 241.93499999999767,
      "v": 98
    },
    {
      "midi": 55,
      "hit": false,
      "t": 73548.23999999999,
      "d": 241.93499999999767,
      "v": 98
    },
    {
      "midi": 55,
      "hit": false,
      "t": 73548.24000000006,
      "d": 1794.3512499999924,
      "v": 62
    },
    {
      "midi": 79,
      "hit": false,
      "t": 73548.24000000006,
      "d": 1898.9377343749948,
      "v": 62
    },
    {
      "midi": 58,
      "hit": false,
      "t": 73548.24000000006,
      "d": 3840.7181249999994,
      "v": 62
    },
    {
      "midi": 62,
      "hit": false,
      "t": 73548.24000000006,
      "d": 5752.256640624997,
      "v": 62
    },
    {
      "midi": 43,
      "hit": false,
      "t": 73669.20749999948,
      "d": 64.26398437499302,
      "v": 75
    },
    {
      "midi": 43,
      "hit": false,
      "t": 73790.17499999948,
      "d": 64.26398437499302,
      "v": 75
    },
    {
      "midi": 43,
      "hit": false,
      "t": 73911.14249999948,
      "d": 64.26398437499302,
      "v": 75
    },
    {
      "midi": 43,
      "hit": false,
      "t": 74032.10999999948,
      "d": 64.26398437499302,
      "v": 75
    },
    {
      "midi": 43,
      "hit": false,
      "t": 74032.10999999984,
      "d": 189.01171875,
      "v": 110
    },
    {
      "midi": 43,
      "hit": false,
      "t": 74032.10999999999,
      "d": 241.93499999999767,
      "v": 101
    },
    {
      "midi": 55,
      "hit": false,
      "t": 74032.10999999999,
      "d": 241.93499999999767,
      "v": 101
    },
    {
      "midi": 43,
      "hit": false,
      "t": 74153.07749999948,
      "d": 64.26398437499302,
      "v": 75
    },
    {
      "midi": 43,
      "hit": false,
      "t": 74274.04499999947,
      "d": 64.26398437499302,
      "v": 75
    },
    {
      "midi": 43,
      "hit": false,
      "t": 74395.01249999947,
      "d": 64.26398437499302,
      "v": 75
    },
    {
      "midi": 43,
      "hit": false,
      "t": 74395.01249999984,
      "d": 189.01171875,
      "v": 110
    },
    {
      "midi": 74,
      "hit": false,
      "t": 74503.37921875,
      "d": 255.79585937500815,
      "v": 116
    },
    {
      "midi": 43,
      "hit": false,
      "t": 74515.97999999947,
      "d": 64.26398437499302,
      "v": 75
    },
    {
      "midi": 43,
      "hit": false,
      "t": 74636.94749999947,
      "d": 64.26398437499302,
      "v": 75
    },
    {
      "midi": 77,
      "hit": false,
      "t": 74749.094453125,
      "d": 225.55398437500116,
      "v": 116
    },
    {
      "midi": 43,
      "hit": false,
      "t": 74757.91499999947,
      "d": 64.26398437499302,
      "v": 75
    },
    {
      "midi": 43,
      "hit": false,
      "t": 74757.91499999983,
      "d": 189.01171875,
      "v": 110
    },
    {
      "midi": 43,
      "hit": false,
      "t": 74878.88249999947,
      "d": 64.26398437499302,
      "v": 75
    },
    {
      "midi": 79,
      "hit": false,
      "t": 74954.4871875,
      "d": 270.91679687501164,
      "v": 116
    },
    {
      "midi": 43,
      "hit": false,
      "t": 74999.84999999947,
      "d": 64.26398437499302,
      "v": 75
    },
    {
      "midi": 43,
      "hit": false,
      "t": 75120.81749999947,
      "d": 64.26398437499302,
      "v": 75
    },
    {
      "midi": 82,
      "hit": false,
      "t": 75225.403984375,
      "d": 258.3160156249942,
      "v": 113
    },
    {
      "midi": 43,
      "hit": false,
      "t": 75241.78499999947,
      "d": 64.26398437499302,
      "v": 75
    },
    {
      "midi": 41,
      "hit": false,
      "t": 75241.78499999983,
      "d": 189.01171875,
      "v": 110
    },
    {
      "midi": 43,
      "hit": false,
      "t": 75362.75249999946,
      "d": 64.26398437499302,
      "v": 75
    },
    {
      "midi": 82,
      "hit": false,
      "t": 75418.19593750006,
      "d": 1938.0001562499965,
      "v": 62
    },
    {
      "midi": 84,
      "hit": false,
      "t": 75462.298671875,
      "d": 224.2939062499936,
      "v": 110
    },
    {
      "midi": 46,
      "hit": false,
      "t": 75483.71999999946,
      "d": 64.26398437499302,
      "v": 75
    },
    {
      "midi": 34,
      "hit": false,
      "t": 75483.71999999983,
      "d": 189.01171875,
      "v": 110
    },
    {
      "midi": 53,
      "hit": false,
      "t": 75483.72000000006,
      "d": 5830.381484375001,
      "v": 62
    },
    {
      "midi": 46,
      "hit": false,
      "t": 75604.68749999946,
      "d": 64.26398437499302,
      "v": 75
    },
    {
      "midi": 86,
      "hit": false,
      "t": 75718.09453125,
      "d": 240.6749218749901,
      "v": 110
    },
    {
      "midi": 46,
      "hit": false,
      "t": 75725.65499999946,
      "d": 64.26398437499302,
      "v": 75
    },
    {
      "midi": 46,
      "hit": false,
      "t": 75846.62249999946,
      "d": 64.26398437499302,
      "v": 75
    },
    {
      "midi": 84,
      "hit": false,
      "t": 75944.90859374999,
      "d": 269.6567187499895,
      "v": 110
    },
    {
      "midi": 46,
      "hit": false,
      "t": 75967.58999999946,
      "d": 64.26398437499302,
      "v": 75
    },
    {
      "midi": 34,
      "hit": false,
      "t": 75967.58999999982,
      "d": 189.01171875,
      "v": 110
    },
    {
      "midi": 46,
      "hit": false,
      "t": 76088.55749999946,
      "d": 64.26398437499302,
      "v": 75
    },
    {
      "midi": 46,
      "hit": false,
      "t": 76209.52499999946,
      "d": 64.26398437499302,
      "v": 75
    },
    {
      "midi": 82,
      "hit": false,
      "t": 76228.42617187498,
      "d": 458.6684375000041,
      "v": 110
    },
    {
      "midi": 46,
      "hit": false,
      "t": 76330.49249999945,
      "d": 64.26398437499302,
      "v": 75
    },
    {
      "midi": 34,
      "hit": false,
      "t": 76330.49249999982,
      "d": 189.01171875,
      "v": 110
    },
    {
      "midi": 46,
      "hit": false,
      "t": 76451.45999999945,
      "d": 64.26398437499302,
      "v": 75
    },
    {
      "midi": 46,
      "hit": false,
      "t": 76572.42749999945,
      "d": 64.26398437499302,
      "v": 75
    },
    {
      "midi": 46,
      "hit": false,
      "t": 76693.39499999945,
      "d": 64.26398437499302,
      "v": 75
    },
    {
      "midi": 36,
      "hit": false,
      "t": 76693.39499999981,
      "d": 189.01171875,
      "v": 110
    },
    {
      "midi": 79,
      "hit": false,
      "t": 76703.47562499998,
      "d": 352.8218749999942,
      "v": 110
    },
    {
      "midi": 46,
      "hit": false,
      "t": 76814.36249999945,
      "d": 64.26398437499302,
      "v": 75
    },
    {
      "midi": 46,
      "hit": false,
      "t": 76935.32999999945,
      "d": 64.26398437499302,
      "v": 75
    },
    {
      "midi": 46,
      "hit": false,
      "t": 77056.29749999945,
      "d": 64.26398437499302,
      "v": 75
    },
    {
      "midi": 46,
      "hit": false,
      "t": 77177.26499999945,
      "d": 64.26398437499302,
      "v": 75
    },
    {
      "midi": 38,
      "hit": false,
      "t": 77177.26499999981,
      "d": 189.01171875,
      "v": 110
    },
    {
      "midi": 79,
      "hit": false,
      "t": 77177.26499999997,
      "d": 241.93500000001222,
      "v": 110
    },
    {
      "midi": 46,
      "hit": false,
      "t": 77298.23249999945,
      "d": 64.26398437499302,
      "v": 75
    },
    {
      "midi": 74,
      "hit": false,
      "t": 77373.83718750006,
      "d": 1924.1392968750006,
      "v": 62
    },
    {
      "midi": 84,
      "hit": false,
      "t": 77391.47828124998,
      "d": 216.7334375000064,
      "v": 110
    },
    {
      "midi": 50,
      "hit": false,
      "t": 77419.19999999944,
      "d": 64.26398437499302,
      "v": 75
    },
    {
      "midi": 38,
      "hit": false,
      "t": 77419.19999999981,
      "d": 189.01171875,
      "v": 110
    },
    {
      "midi": 57,
      "hit": false,
      "t": 77419.20000000007,
      "d": 3886.0809374999953,
      "v": 62
    },
    {
      "midi": 50,
      "hit": false,
      "t": 77540.16749999944,
      "d": 64.26398437499302,
      "v": 75
    },
    {
      "midi": 86,
      "hit": false,
      "t": 77635.93343749999,
      "d": 244.45515624999825,
      "v": 110
    },
    {
      "midi": 50,
      "hit": false,
      "t": 77661.13499999944,
      "d": 64.26398437499302,
      "v": 75
    },
    {
      "midi": 50,
      "hit": false,
      "t": 77782.10249999944,
      "d": 64.26398437499302,
      "v": 75
    },
    {
      "midi": 84,
      "hit": false,
      "t": 77871.56804687499,
      "d": 263.35632812499534,
      "v": 116
    },
    {
      "midi": 50,
      "hit": false,
      "t": 77903.06999999944,
      "d": 64.26398437499302,
      "v": 75
    },
    {
      "midi": 38,
      "hit": false,
      "t": 77903.0699999998,
      "d": 189.01171875,
      "v": 110
    },
    {
      "midi": 50,
      "hit": false,
      "t": 78024.03749999944,
      "d": 64.26398437499302,
      "v": 75
    },
    {
      "midi": 50,
      "hit": false,
      "t": 78145.00499999944,
      "d": 64.26398437499302,
      "v": 75
    },
    {
      "midi": 82,
      "hit": false,
      "t": 78145.00499999999,
      "d": 448.58781250000175,
      "v": 119
    },
    {
      "midi": 50,
      "hit": false,
      "t": 78265.97249999944,
      "d": 64.26398437499302,
      "v": 75
    },
    {
      "midi": 38,
      "hit": false,
      "t": 78265.9724999998,
      "d": 189.01171875,
      "v": 110
    },
    {
      "midi": 50,
      "hit": false,
      "t": 78386.93999999943,
      "d": 64.26398437499302,
      "v": 75
    },
    {
      "midi": 50,
      "hit": false,
      "t": 78507.90749999943,
      "d": 64.26398437499302,
      "v": 75
    },
    {
      "midi": 50,
      "hit": false,
      "t": 78628.87499999943,
      "d": 64.26398437499302,
      "v": 75
    },
    {
      "midi": 38,
      "hit": false,
      "t": 78628.8749999998,
      "d": 189.01171875,
      "v": 110
    },
    {
      "midi": 79,
      "hit": false,
      "t": 78628.87499999999,
      "d": 337.70093750000524,
      "v": 119
    },
    {
      "midi": 50,
      "hit": false,
      "t": 78749.84249999943,
      "d": 64.26398437499302,
      "v": 75
    },
    {
      "midi": 50,
      "hit": false,
      "t": 78870.80999999943,
      "d": 64.26398437499302,
      "v": 75
    },
    {
      "midi": 50,
      "hit": false,
      "t": 78991.77749999943,
      "d": 64.26398437499302,
      "v": 75
    },
    {
      "midi": 50,
      "hit": false,
      "t": 79112.74499999943,
      "d": 64.26398437499302,
      "v": 75
    },
    {
      "midi": 38,
      "hit": false,
      "t": 79112.74499999979,
      "d": 189.01171875,
      "v": 110
    },
    {
      "midi": 50,
      "hit": false,
      "t": 79233.71249999943,
      "d": 64.26398437499302,
      "v": 75
    },
    {
      "midi": 60,
      "hit": false,
      "t": 79233.71250000007,
      "d": 1992.1835156249872,
      "v": 62
    },
    {
      "midi": 72,
      "hit": false,
      "t": 79306.79703125005,
      "d": 1973.2823437500047,
      "v": 62
    },
    {
      "midi": 48,
      "hit": false,
      "t": 79354.67999999943,
      "d": 64.26398437499302,
      "v": 75
    },
    {
      "midi": 41,
      "hit": false,
      "t": 79354.67999999979,
      "d": 189.01171875,
      "v": 110
    },
    {
      "midi": 84,
      "hit": false,
      "t": 79364.760625,
      "d": 969.0000781250128,
      "v": 122
    },
    {
      "midi": 48,
      "hit": false,
      "t": 79475.64749999942,
      "d": 64.26398437499302,
      "v": 75
    },
    {
      "midi": 48,
      "hit": false,
      "t": 79596.61499999942,
      "d": 64.26398437499302,
      "v": 75
    },
    {
      "midi": 48,
      "hit": false,
      "t": 79717.58249999942,
      "d": 64.26398437499302,
      "v": 75
    },
    {
      "midi": 48,
      "hit": false,
      "t": 79838.54999999942,
      "d": 64.26398437499302,
      "v": 75
    },
    {
      "midi": 41,
      "hit": false,
      "t": 79838.54999999978,
      "d": 189.01171875,
      "v": 110
    },
    {
      "midi": 48,
      "hit": false,
      "t": 79959.51749999942,
      "d": 64.26398437499302,
      "v": 75
    },
    {
      "midi": 48,
      "hit": false,
      "t": 80080.48499999942,
      "d": 64.26398437499302,
      "v": 75
    },
    {
      "midi": 48,
      "hit": false,
      "t": 80201.45249999942,
      "d": 64.26398437499302,
      "v": 75
    },
    {
      "midi": 41,
      "hit": false,
      "t": 80201.45249999978,
      "d": 189.01171875,
      "v": 110
    },
    {
      "midi": 82,
      "hit": false,
      "t": 80319.89984375001,
      "d": 480.08976562500175,
      "v": 113
    },
    {
      "midi": 48,
      "hit": false,
      "t": 80322.41999999942,
      "d": 64.26398437499302,
      "v": 75
    },
    {
      "midi": 48,
      "hit": false,
      "t": 80443.38749999942,
      "d": 64.26398437499302,
      "v": 75
    },
    {
      "midi": 48,
      "hit": false,
      "t": 80564.35499999941,
      "d": 64.26398437499302,
      "v": 75
    },
    {
      "midi": 38,
      "hit": false,
      "t": 80564.35499999978,
      "d": 189.01171875,
      "v": 110
    },
    {
      "midi": 48,
      "hit": false,
      "t": 80685.32249999941,
      "d": 64.26398437499302,
      "v": 75
    },
    {
      "midi": 48,
      "hit": false,
      "t": 80806.28999999941,
      "d": 64.26398437499302,
      "v": 75
    },
    {
      "midi": 48,
      "hit": false,
      "t": 80927.25749999941,
      "d": 64.26398437499302,
      "v": 75
    },
    {
      "midi": 48,
      "hit": false,
      "t": 81048.22499999941,
      "d": 64.26398437499302,
      "v": 75
    },
    {
      "midi": 41,
      "hit": false,
      "t": 81048.22499999977,
      "d": 189.01171875,
      "v": 110
    },
    {
      "midi": 48,
      "hit": false,
      "t": 81169.19249999941,
      "d": 64.26398437499302,
      "v": 75
    },
    {
      "midi": 43,
      "hit": false,
      "t": 81290.1599999994,
      "d": 64.26398437499302,
      "v": 75
    },
    {
      "midi": 43,
      "hit": false,
      "t": 81290.15999999977,
      "d": 189.01171875,
      "v": 110
    },
    {
      "midi": 43,
      "hit": false,
      "t": 81290.15999999999,
      "d": 241.93499999999767,
      "v": 98
    },
    {
      "midi": 55,
      "hit": false,
      "t": 81290.15999999999,
      "d": 241.93499999999767,
      "v": 98
    },
    {
      "midi": 55,
      "hit": false,
      "t": 81290.16000000006,
      "d": 1794.3512499999924,
      "v": 62
    },
    {
      "midi": 79,
      "hit": false,
      "t": 81290.16000000006,
      "d": 1898.9377343749948,
      "v": 62
    },
    {
      "midi": 58,
      "hit": false,
      "t": 81290.16000000006,
      "d": 3840.7181249999994,
      "v": 62
    },
    {
      "midi": 62,
      "hit": false,
      "t": 81290.16000000006,
      "d": 5752.256640624997,
      "v": 62
    },
    {
      "midi": 43,
      "hit": false,
      "t": 81411.1274999994,
      "d": 64.26398437499302,
      "v": 75
    },
    {
      "midi": 43,
      "hit": false,
      "t": 81532.0949999994,
      "d": 64.26398437499302,
      "v": 75
    },
    {
      "midi": 43,
      "hit": false,
      "t": 81653.0624999994,
      "d": 64.26398437499302,
      "v": 75
    },
    {
      "midi": 43,
      "hit": false,
      "t": 81774.0299999994,
      "d": 64.26398437499302,
      "v": 75
    },
    {
      "midi": 43,
      "hit": false,
      "t": 81774.02999999977,
      "d": 189.01171875,
      "v": 110
    },
    {
      "midi": 43,
      "hit": false,
      "t": 81774.02999999998,
      "d": 241.93499999999767,
      "v": 101
    },
    {
      "midi": 55,
      "hit": false,
      "t": 81774.02999999998,
      "d": 241.93499999999767,
      "v": 101
    },
    {
      "midi": 43,
      "hit": false,
      "t": 81894.9974999994,
      "d": 64.26398437499302,
      "v": 75
    },
    {
      "midi": 43,
      "hit": false,
      "t": 82015.9649999994,
      "d": 64.26398437499302,
      "v": 75
    },
    {
      "midi": 43,
      "hit": false,
      "t": 82136.9324999994,
      "d": 64.26398437499302,
      "v": 75
    },
    {
      "midi": 43,
      "hit": false,
      "t": 82136.93249999976,
      "d": 189.01171875,
      "v": 110
    },
    {
      "midi": 74,
      "hit": false,
      "t": 82245.29921875002,
      "d": 255.79585937500815,
      "v": 116
    },
    {
      "midi": 43,
      "hit": false,
      "t": 82257.8999999994,
      "d": 64.26398437499302,
      "v": 75
    },
    {
      "midi": 43,
      "hit": false,
      "t": 82378.8674999994,
      "d": 64.26398437499302,
      "v": 75
    },
    {
      "midi": 77,
      "hit": false,
      "t": 82491.01445312503,
      "d": 225.55398437500116,
      "v": 116
    },
    {
      "midi": 43,
      "hit": false,
      "t": 82499.8349999994,
      "d": 64.26398437499302,
      "v": 75
    },
    {
      "midi": 43,
      "hit": false,
      "t": 82499.83499999976,
      "d": 189.01171875,
      "v": 110
    },
    {
      "midi": 43,
      "hit": false,
      "t": 82620.8024999994,
      "d": 64.26398437499302,
      "v": 75
    },
    {
      "midi": 79,
      "hit": false,
      "t": 82696.40718750002,
      "d": 270.91679687501164,
      "v": 116
    },
    {
      "midi": 43,
      "hit": false,
      "t": 82741.7699999994,
      "d": 64.26398437499302,
      "v": 75
    },
    {
      "midi": 43,
      "hit": false,
      "t": 82862.73749999939,
      "d": 64.26398437499302,
      "v": 75
    },
    {
      "midi": 82,
      "hit": false,
      "t": 82967.32398437503,
      "d": 258.3160156249942,
      "v": 113
    },
    {
      "midi": 43,
      "hit": false,
      "t": 82983.70499999939,
      "d": 64.26398437499302,
      "v": 75
    },
    {
      "midi": 41,
      "hit": false,
      "t": 82983.70499999975,
      "d": 189.01171875,
      "v": 110
    },
    {
      "midi": 43,
      "hit": false,
      "t": 83104.67249999939,
      "d": 64.26398437499302,
      "v": 75
    },
    {
      "midi": 82,
      "hit": false,
      "t": 83160.11593750006,
      "d": 1938.0001562499965,
      "v": 62
    },
    {
      "midi": 84,
      "hit": false,
      "t": 83204.21867187503,
      "d": 224.2939062499936,
      "v": 110
    },
    {
      "midi": 46,
      "hit": false,
      "t": 83225.63999999939,
      "d": 64.26398437499302,
      "v": 75
    },
    {
      "midi": 34,
      "hit": false,
      "t": 83225.63999999975,
      "d": 189.01171875,
      "v": 110
    },
    {
      "midi": 53,
      "hit": false,
      "t": 83225.64000000006,
      "d": 5830.381484375001,
      "v": 62
    },
    {
      "midi": 46,
      "hit": false,
      "t": 83346.60749999939,
      "d": 64.26398437499302,
      "v": 75
    },
    {
      "midi": 86,
      "hit": false,
      "t": 83460.01453125002,
      "d": 240.6749218749901,
      "v": 110
    },
    {
      "midi": 46,
      "hit": false,
      "t": 83467.57499999939,
      "d": 64.26398437499302,
      "v": 75
    },
    {
      "midi": 46,
      "hit": false,
      "t": 83588.54249999938,
      "d": 64.26398437499302,
      "v": 75
    },
    {
      "midi": 84,
      "hit": false,
      "t": 83686.82859375002,
      "d": 269.6567187499895,
      "v": 110
    },
    {
      "midi": 46,
      "hit": false,
      "t": 83709.50999999938,
      "d": 64.26398437499302,
      "v": 75
    },
    {
      "midi": 34,
      "hit": false,
      "t": 83709.50999999975,
      "d": 189.01171875,
      "v": 110
    },
    {
      "midi": 46,
      "hit": false,
      "t": 83830.47749999938,
      "d": 64.26398437499302,
      "v": 75
    },
    {
      "midi": 46,
      "hit": false,
      "t": 83951.44499999938,
      "d": 64.26398437499302,
      "v": 75
    },
    {
      "midi": 82,
      "hit": false,
      "t": 83970.346171875,
      "d": 458.6684375000041,
      "v": 110
    },
    {
      "midi": 46,
      "hit": false,
      "t": 84072.41249999938,
      "d": 64.26398437499302,
      "v": 75
    },
    {
      "midi": 34,
      "hit": false,
      "t": 84072.41249999974,
      "d": 189.01171875,
      "v": 110
    },
    {
      "midi": 46,
      "hit": false,
      "t": 84193.37999999938,
      "d": 64.26398437499302,
      "v": 75
    },
    {
      "midi": 46,
      "hit": false,
      "t": 84314.34749999938,
      "d": 64.26398437499302,
      "v": 75
    },
    {
      "midi": 46,
      "hit": false,
      "t": 84435.31499999938,
      "d": 64.26398437499302,
      "v": 75
    },
    {
      "midi": 36,
      "hit": false,
      "t": 84435.31499999974,
      "d": 189.01171875,
      "v": 110
    },
    {
      "midi": 79,
      "hit": false,
      "t": 84445.395625,
      "d": 352.8218749999942,
      "v": 110
    },
    {
      "midi": 46,
      "hit": false,
      "t": 84556.28249999938,
      "d": 64.26398437499302,
      "v": 75
    },
    {
      "midi": 46,
      "hit": false,
      "t": 84677.24999999937,
      "d": 64.26398437499302,
      "v": 75
    },
    {
      "midi": 46,
      "hit": false,
      "t": 84798.21749999937,
      "d": 64.26398437499302,
      "v": 75
    },
    {
      "midi": 46,
      "hit": false,
      "t": 84919.18499999937,
      "d": 64.26398437499302,
      "v": 75
    },
    {
      "midi": 38,
      "hit": false,
      "t": 84919.18499999974,
      "d": 189.01171875,
      "v": 110
    },
    {
      "midi": 79,
      "hit": false,
      "t": 84919.185,
      "d": 241.93500000001222,
      "v": 110
    },
    {
      "midi": 46,
      "hit": false,
      "t": 85040.15249999937,
      "d": 64.26398437499302,
      "v": 75
    },
    {
      "midi": 74,
      "hit": false,
      "t": 85115.75718750006,
      "d": 1924.1392968750006,
      "v": 62
    },
    {
      "midi": 84,
      "hit": false,
      "t": 85133.39828125,
      "d": 216.7334375000064,
      "v": 110
    },
    {
      "midi": 50,
      "hit": false,
      "t": 85161.11999999937,
      "d": 64.26398437499302,
      "v": 75
    },
    {
      "midi": 38,
      "hit": false,
      "t": 85161.11999999973,
      "d": 189.01171875,
      "v": 110
    },
    {
      "midi": 57,
      "hit": false,
      "t": 85161.12000000007,
      "d": 3886.0809374999953,
      "v": 62
    },
    {
      "midi": 50,
      "hit": false,
      "t": 85282.08749999937,
      "d": 64.26398437499302,
      "v": 75
    },
    {
      "midi": 86,
      "hit": false,
      "t": 85377.85343750002,
      "d": 244.45515624999825,
      "v": 110
    },
    {
      "midi": 50,
      "hit": false,
      "t": 85403.05499999937,
      "d": 64.26398437499302,
      "v": 75
    },
    {
      "midi": 50,
      "hit": false,
      "t": 85524.02249999937,
      "d": 64.26398437499302,
      "v": 75
    },
    {
      "midi": 84,
      "hit": false,
      "t": 85613.48804687502,
      "d": 263.35632812499534,
      "v": 116
    },
    {
      "midi": 50,
      "hit": false,
      "t": 85644.98999999936,
      "d": 64.26398437499302,
      "v": 75
    },
    {
      "midi": 38,
      "hit": false,
      "t": 85644.98999999973,
      "d": 189.01171875,
      "v": 110
    },
    {
      "midi": 50,
      "hit": false,
      "t": 85765.95749999936,
      "d": 64.26398437499302,
      "v": 75
    },
    {
      "midi": 50,
      "hit": false,
      "t": 85886.92499999936,
      "d": 64.26398437499302,
      "v": 75
    },
    {
      "midi": 82,
      "hit": false,
      "t": 85886.92500000002,
      "d": 448.58781250000175,
      "v": 119
    },
    {
      "midi": 50,
      "hit": false,
      "t": 86007.89249999936,
      "d": 64.26398437499302,
      "v": 75
    },
    {
      "midi": 38,
      "hit": false,
      "t": 86007.89249999973,
      "d": 189.01171875,
      "v": 110
    },
    {
      "midi": 50,
      "hit": false,
      "t": 86128.85999999936,
      "d": 64.26398437499302,
      "v": 75
    },
    {
      "midi": 50,
      "hit": false,
      "t": 86249.82749999936,
      "d": 64.26398437499302,
      "v": 75
    },
    {
      "midi": 50,
      "hit": false,
      "t": 86370.79499999936,
      "d": 64.26398437499302,
      "v": 75
    },
    {
      "midi": 38,
      "hit": false,
      "t": 86370.79499999972,
      "d": 189.01171875,
      "v": 110
    },
    {
      "midi": 79,
      "hit": false,
      "t": 86370.79500000001,
      "d": 337.70093750000524,
      "v": 119
    },
    {
      "midi": 50,
      "hit": false,
      "t": 86491.76249999936,
      "d": 64.26398437499302,
      "v": 75
    },
    {
      "midi": 50,
      "hit": false,
      "t": 86612.72999999936,
      "d": 64.26398437499302,
      "v": 75
    },
    {
      "midi": 50,
      "hit": false,
      "t": 86733.69749999935,
      "d": 64.26398437499302,
      "v": 75
    },
    {
      "midi": 50,
      "hit": false,
      "t": 86854.66499999935,
      "d": 64.26398437499302,
      "v": 75
    },
    {
      "midi": 38,
      "hit": false,
      "t": 86854.66499999972,
      "d": 189.01171875,
      "v": 110
    },
    {
      "midi": 50,
      "hit": false,
      "t": 86975.63249999935,
      "d": 64.26398437499302,
      "v": 75
    },
    {
      "midi": 60,
      "hit": false,
      "t": 86975.63250000007,
      "d": 1992.1835156249872,
      "v": 62
    },
    {
      "midi": 72,
      "hit": false,
      "t": 87048.71703125005,
      "d": 1973.2823437500047,
      "v": 62
    },
    {
      "midi": 48,
      "hit": false,
      "t": 87096.59999999935,
      "d": 64.26398437499302,
      "v": 75
    },
    {
      "midi": 41,
      "hit": false,
      "t": 87096.59999999971,
      "d": 189.01171875,
      "v": 110
    },
    {
      "midi": 84,
      "hit": false,
      "t": 87106.68062500002,
      "d": 969.0000781250128,
      "v": 122
    },
    {
      "midi": 48,
      "hit": false,
      "t": 87217.56749999935,
      "d": 64.26398437499302,
      "v": 75
    },
    {
      "midi": 48,
      "hit": false,
      "t": 87338.53499999935,
      "d": 64.26398437499302,
      "v": 75
    },
    {
      "midi": 48,
      "hit": false,
      "t": 87459.50249999935,
      "d": 64.26398437499302,
      "v": 75
    },
    {
      "midi": 48,
      "hit": false,
      "t": 87580.46999999935,
      "d": 64.26398437499302,
      "v": 75
    },
    {
      "midi": 41,
      "hit": false,
      "t": 87580.46999999971,
      "d": 189.01171875,
      "v": 110
    },
    {
      "midi": 48,
      "hit": false,
      "t": 87701.43749999935,
      "d": 64.26398437499302,
      "v": 75
    },
    {
      "midi": 48,
      "hit": false,
      "t": 87822.40499999934,
      "d": 64.26398437499302,
      "v": 75
    },
    {
      "midi": 48,
      "hit": false,
      "t": 87943.37249999934,
      "d": 64.26398437499302,
      "v": 75
    },
    {
      "midi": 41,
      "hit": false,
      "t": 87943.3724999997,
      "d": 189.01171875,
      "v": 110
    },
    {
      "midi": 82,
      "hit": false,
      "t": 88061.81984375004,
      "d": 480.08976562500175,
      "v": 113
    },
    {
      "midi": 48,
      "hit": false,
      "t": 88064.33999999934,
      "d": 64.26398437499302,
      "v": 75
    },
    {
      "midi": 48,
      "hit": false,
      "t": 88185.30749999934,
      "d": 64.26398437499302,
      "v": 75
    },
    {
      "midi": 48,
      "hit": false,
      "t": 88306.27499999934,
      "d": 64.26398437499302,
      "v": 75
    },
    {
      "midi": 38,
      "hit": false,
      "t": 88306.2749999997,
      "d": 189.01171875,
      "v": 110
    },
    {
      "midi": 48,
      "hit": false,
      "t": 88427.24249999934,
      "d": 64.26398437499302,
      "v": 75
    },
    {
      "midi": 48,
      "hit": false,
      "t": 88548.20999999934,
      "d": 64.26398437499302,
      "v": 75
    },
    {
      "midi": 48,
      "hit": false,
      "t": 88669.17749999934,
      "d": 64.26398437499302,
      "v": 75
    },
    {
      "midi": 48,
      "hit": false,
      "t": 88790.14499999933,
      "d": 64.26398437499302,
      "v": 75
    },
    {
      "midi": 41,
      "hit": false,
      "t": 88790.1449999997,
      "d": 189.01171875,
      "v": 110
    },
    {
      "midi": 48,
      "hit": false,
      "t": 88911.11249999933,
      "d": 64.26398437499302,
      "v": 75
    },
    {
      "midi": 43,
      "hit": false,
      "t": 89032.07999999933,
      "d": 64.26398437499302,
      "v": 75
    },
    {
      "midi": 43,
      "hit": false,
      "t": 89032.0799999997,
      "d": 189.01171875,
      "v": 110
    },
    {
      "midi": 79,
      "hit": false,
      "t": 89032.08000000002,
      "d": 241.93499999999767,
      "v": 92
    },
    {
      "midi": 82,
      "hit": false,
      "t": 89032.08000000002,
      "d": 241.93499999999767,
      "v": 92
    },
    {
      "midi": 86,
      "hit": false,
      "t": 89032.08000000002,
      "d": 241.93499999999767,
      "v": 92
    },
    {
      "midi": 55,
      "hit": false,
      "t": 89032.08000000006,
      "d": 1794.3512499999924,
      "v": 62
    },
    {
      "midi": 58,
      "hit": false,
      "t": 89032.08000000006,
      "d": 3840.7181249999994,
      "v": 62
    },
    {
      "midi": 62,
      "hit": false,
      "t": 89032.08000000006,
      "d": 5752.256640624997,
      "v": 62
    },
    {
      "midi": 43,
      "hit": false,
      "t": 89153.04749999933,
      "d": 64.26398437499302,
      "v": 75
    },
    {
      "midi": 43,
      "hit": false,
      "t": 89274.01499999933,
      "d": 64.26398437499302,
      "v": 75
    },
    {
      "midi": 43,
      "hit": false,
      "t": 89394.98249999933,
      "d": 64.26398437499302,
      "v": 75
    },
    {
      "midi": 43,
      "hit": false,
      "t": 89515.94999999933,
      "d": 64.26398437499302,
      "v": 75
    },
    {
      "midi": 43,
      "hit": false,
      "t": 89515.94999999969,
      "d": 189.01171875,
      "v": 110
    },
    {
      "midi": 82,
      "hit": false,
      "t": 89515.95000000001,
      "d": 210.43304687499767,
      "v": 92
    },
    {
      "midi": 79,
      "hit": false,
      "t": 89515.95000000001,
      "d": 215.47335937499884,
      "v": 92
    },
    {
      "midi": 86,
      "hit": false,
      "t": 89515.95000000001,
      "d": 224.2939062499936,
      "v": 92
    },
    {
      "midi": 43,
      "hit": false,
      "t": 89636.91749999933,
      "d": 64.26398437499302,
      "v": 75
    },
    {
      "midi": 43,
      "hit": false,
      "t": 89757.88499999933,
      "d": 64.26398437499302,
      "v": 75
    },
    {
      "midi": 43,
      "hit": false,
      "t": 89878.85249999932,
      "d": 64.26398437499302,
      "v": 75
    },
    {
      "midi": 43,
      "hit": false,
      "t": 89878.85249999969,
      "d": 189.01171875,
      "v": 110
    },
    {
      "midi": 43,
      "hit": false,
      "t": 89999.81999999932,
      "d": 64.26398437499302,
      "v": 75
    },
    {
      "midi": 79,
      "hit": false,
      "t": 89999.82,
      "d": 241.93499999999767,
      "v": 92
    },
    {
      "midi": 82,
      "hit": false,
      "t": 89999.82,
      "d": 241.93499999999767,
      "v": 92
    },
    {
      "midi": 86,
      "hit": false,
      "t": 89999.82,
      "d": 241.93499999999767,
      "v": 92
    },
    {
      "midi": 43,
      "hit": false,
      "t": 90120.78749999932,
      "d": 64.26398437499302,
      "v": 75
    },
    {
      "midi": 43,
      "hit": false,
      "t": 90241.75499999932,
      "d": 64.26398437499302,
      "v": 75
    },
    {
      "midi": 43,
      "hit": false,
      "t": 90241.75499999968,
      "d": 189.01171875,
      "v": 110
    },
    {
      "midi": 43,
      "hit": false,
      "t": 90362.72249999932,
      "d": 64.26398437499302,
      "v": 75
    },
    {
      "midi": 79,
      "hit": false,
      "t": 90362.7225,
      "d": 362.9024999999965,
      "v": 92
    },
    {
      "midi": 82,
      "hit": false,
      "t": 90362.7225,
      "d": 362.9024999999965,
      "v": 92
    },
    {
      "midi": 86,
      "hit": false,
      "t": 90362.7225,
      "d": 362.9024999999965,
      "v": 92
    },
    {
      "midi": 43,
      "hit": false,
      "t": 90483.68999999932,
      "d": 64.26398437499302,
      "v": 75
    },
    {
      "midi": 43,
      "hit": false,
      "t": 90604.65749999932,
      "d": 64.26398437499302,
      "v": 75
    },
    {
      "midi": 43,
      "hit": false,
      "t": 90725.62499999932,
      "d": 64.26398437499302,
      "v": 75
    },
    {
      "midi": 41,
      "hit": false,
      "t": 90725.62499999968,
      "d": 189.01171875,
      "v": 110
    },
    {
      "midi": 79,
      "hit": false,
      "t": 90725.625,
      "d": 241.93499999999767,
      "v": 92
    },
    {
      "midi": 82,
      "hit": false,
      "t": 90725.625,
      "d": 241.93499999999767,
      "v": 92
    },
    {
      "midi": 87,
      "hit": false,
      "t": 90725.625,
      "d": 241.93499999999767,
      "v": 92
    },
    {
      "midi": 43,
      "hit": false,
      "t": 90846.59249999931,
      "d": 64.26398437499302,
      "v": 75
    },
    {
      "midi": 46,
      "hit": false,
      "t": 90967.55999999931,
      "d": 64.26398437499302,
      "v": 75
    },
    {
      "midi": 34,
      "hit": false,
      "t": 90967.55999999968,
      "d": 189.01171875,
      "v": 110
    },
    {
      "midi": 77,
      "hit": false,
      "t": 90967.56,
      "d": 241.93499999999767,
      "v": 92
    },
    {
      "midi": 82,
      "hit": false,
      "t": 90967.56,
      "d": 241.93499999999767,
      "v": 92
    },
    {
      "midi": 86,
      "hit": false,
      "t": 90967.56,
      "d": 241.93499999999767,
      "v": 92
    },
    {
      "midi": 53,
      "hit": false,
      "t": 90967.56000000006,
      "d": 5830.381484374986,
      "v": 62
    },
    {
      "midi": 46,
      "hit": false,
      "t": 91088.52749999931,
      "d": 64.26398437499302,
      "v": 75
    },
    {
      "midi": 46,
      "hit": false,
      "t": 91209.49499999931,
      "d": 64.26398437499302,
      "v": 75
    },
    {
      "midi": 46,
      "hit": false,
      "t": 91330.46249999931,
      "d": 64.26398437499302,
      "v": 75
    },
    {
      "midi": 46,
      "hit": false,
      "t": 91451.42999999931,
      "d": 64.26398437499302,
      "v": 75
    },
    {
      "midi": 34,
      "hit": false,
      "t": 91451.42999999967,
      "d": 189.01171875,
      "v": 110
    },
    {
      "midi": 82,
      "hit": false,
      "t": 91451.43,
      "d": 170.1105468750029,
      "v": 92
    },
    {
      "midi": 77,
      "hit": false,
      "t": 91451.43,
      "d": 187.75164062500698,
      "v": 92
    },
    {
      "midi": 86,
      "hit": false,
      "t": 91451.43,
      "d": 196.57218750000175,
      "v": 92
    },
    {
      "midi": 46,
      "hit": false,
      "t": 91572.39749999931,
      "d": 64.26398437499302,
      "v": 75
    },
    {
      "midi": 46,
      "hit": false,
      "t": 91693.3649999993,
      "d": 64.26398437499302,
      "v": 75
    },
    {
      "midi": 46,
      "hit": false,
      "t": 91814.3324999993,
      "d": 64.26398437499302,
      "v": 75
    },
    {
      "midi": 34,
      "hit": false,
      "t": 91814.33249999967,
      "d": 189.01171875,
      "v": 110
    },
    {
      "midi": 46,
      "hit": false,
      "t": 91935.2999999993,
      "d": 64.26398437499302,
      "v": 75
    },
    {
      "midi": 77,
      "hit": false,
      "t": 91935.29999999999,
      "d": 241.93499999999767,
      "v": 92
    },
    {
      "midi": 82,
      "hit": false,
      "t": 91935.29999999999,
      "d": 241.93499999999767,
      "v": 92
    },
    {
      "midi": 86,
      "hit": false,
      "t": 91935.29999999999,
      "d": 241.93499999999767,
      "v": 92
    },
    {
      "midi": 46,
      "hit": false,
      "t": 92056.2674999993,
      "d": 64.26398437499302,
      "v": 75
    },
    {
      "midi": 46,
      "hit": false,
      "t": 92177.2349999993,
      "d": 64.26398437499302,
      "v": 75
    },
    {
      "midi": 36,
      "hit": false,
      "t": 92177.23499999967,
      "d": 189.01171875,
      "v": 110
    },
    {
      "midi": 46,
      "hit": false,
      "t": 92298.2024999993,
      "d": 64.26398437499302,
      "v": 75
    },
    {
      "midi": 77,
      "hit": false,
      "t": 92298.20249999998,
      "d": 362.9024999999965,
      "v": 92
    },
    {
      "midi": 82,
      "hit": false,
      "t": 92298.20249999998,
      "d": 362.9024999999965,
      "v": 92
    },
    {
      "midi": 86,
      "hit": false,
      "t": 92298.20249999998,
      "d": 362.9024999999965,
      "v": 92
    },
    {
      "midi": 46,
      "hit": false,
      "t": 92419.1699999993,
      "d": 64.26398437499302,
      "v": 75
    },
    {
      "midi": 46,
      "hit": false,
      "t": 92540.1374999993,
      "d": 64.26398437499302,
      "v": 75
    },
    {
      "midi": 46,
      "hit": false,
      "t": 92661.1049999993,
      "d": 64.26398437499302,
      "v": 75
    },
    {
      "midi": 38,
      "hit": false,
      "t": 92661.10499999966,
      "d": 189.01171875,
      "v": 110
    },
    {
      "midi": 77,
      "hit": false,
      "t": 92661.10499999998,
      "d": 241.93499999999767,
      "v": 92
    },
    {
      "midi": 82,
      "hit": false,
      "t": 92661.10499999998,
      "d": 241.93499999999767,
      "v": 92
    },
    {
      "midi": 87,
      "hit": false,
      "t": 92661.10499999998,
      "d": 241.93499999999767,
      "v": 92
    },
    {
      "midi": 46,
      "hit": false,
      "t": 92782.0724999993,
      "d": 64.26398437499302,
      "v": 75
    },
    {
      "midi": 50,
      "hit": false,
      "t": 92903.0399999993,
      "d": 64.26398437499302,
      "v": 75
    },
    {
      "midi": 38,
      "hit": false,
      "t": 92903.03999999966,
      "d": 189.01171875,
      "v": 110
    },
    {
      "midi": 77,
      "hit": false,
      "t": 92903.03999999998,
      "d": 241.93499999999767,
      "v": 92
    },
    {
      "midi": 81,
      "hit": false,
      "t": 92903.03999999998,
      "d": 241.93499999999767,
      "v": 92
    },
    {
      "midi": 86,
      "hit": false,
      "t": 92903.03999999998,
      "d": 241.93499999999767,
      "v": 92
    },
    {
      "midi": 57,
      "hit": false,
      "t": 92903.04000000007,
      "d": 3886.080937499981,
      "v": 62
    },
    {
      "midi": 50,
      "hit": false,
      "t": 93024.0074999993,
      "d": 64.26398437499302,
      "v": 75
    },
    {
      "midi": 50,
      "hit": false,
      "t": 93144.9749999993,
      "d": 64.26398437499302,
      "v": 75
    },
    {
      "midi": 50,
      "hit": false,
      "t": 93265.94249999929,
      "d": 64.26398437499302,
      "v": 75
    },
    {
      "midi": 50,
      "hit": false,
      "t": 93386.90999999929,
      "d": 64.26398437499302,
      "v": 75
    },
    {
      "midi": 38,
      "hit": false,
      "t": 93386.90999999965,
      "d": 189.01171875,
      "v": 110
    },
    {
      "midi": 77,
      "hit": false,
      "t": 93386.90999999997,
      "d": 236.8946874999965,
      "v": 92
    },
    {
      "midi": 81,
      "hit": false,
      "t": 93386.90999999997,
      "d": 248.23539062499185,
      "v": 92
    },
    {
      "midi": 86,
      "hit": false,
      "t": 93386.90999999997,
      "d": 269.6567187499895,
      "v": 92
    },
    {
      "midi": 50,
      "hit": false,
      "t": 93507.87749999929,
      "d": 64.26398437499302,
      "v": 75
    },
    {
      "midi": 50,
      "hit": false,
      "t": 93628.84499999929,
      "d": 64.26398437499302,
      "v": 75
    },
    {
      "midi": 50,
      "hit": false,
      "t": 93749.81249999929,
      "d": 64.26398437499302,
      "v": 75
    },
    {
      "midi": 38,
      "hit": false,
      "t": 93749.81249999965,
      "d": 189.01171875,
      "v": 110
    },
    {
      "midi": 50,
      "hit": false,
      "t": 93870.77999999929,
      "d": 64.26398437499302,
      "v": 75
    },
    {
      "midi": 77,
      "hit": false,
      "t": 93870.77999999997,
      "d": 241.93499999999767,
      "v": 92
    },
    {
      "midi": 81,
      "hit": false,
      "t": 93870.77999999997,
      "d": 241.93499999999767,
      "v": 92
    },
    {
      "midi": 86,
      "hit": false,
      "t": 93870.77999999997,
      "d": 241.93499999999767,
      "v": 92
    },
    {
      "midi": 50,
      "hit": false,
      "t": 93991.74749999928,
      "d": 64.26398437499302,
      "v": 75
    },
    {
      "midi": 50,
      "hit": false,
      "t": 94112.71499999928,
      "d": 64.26398437499302,
      "v": 75
    },
    {
      "midi": 38,
      "hit": false,
      "t": 94112.71499999965,
      "d": 189.01171875,
      "v": 110
    },
    {
      "midi": 50,
      "hit": false,
      "t": 94233.68249999928,
      "d": 64.26398437499302,
      "v": 75
    },
    {
      "midi": 77,
      "hit": false,
      "t": 94233.68249999997,
      "d": 362.9024999999965,
      "v": 92
    },
    {
      "midi": 81,
      "hit": false,
      "t": 94233.68249999997,
      "d": 362.9024999999965,
      "v": 92
    },
    {
      "midi": 86,
      "hit": false,
      "t": 94233.68249999997,
      "d": 362.9024999999965,
      "v": 92
    },
    {
      "midi": 50,
      "hit": false,
      "t": 94354.64999999928,
      "d": 64.26398437499302,
      "v": 75
    },
    {
      "midi": 50,
      "hit": false,
      "t": 94475.61749999928,
      "d": 64.26398437499302,
      "v": 75
    },
    {
      "midi": 50,
      "hit": false,
      "t": 94596.58499999928,
      "d": 64.26398437499302,
      "v": 75
    },
    {
      "midi": 38,
      "hit": false,
      "t": 94596.58499999964,
      "d": 189.01171875,
      "v": 110
    },
    {
      "midi": 77,
      "hit": false,
      "t": 94596.58499999996,
      "d": 241.93499999999767,
      "v": 92
    },
    {
      "midi": 81,
      "hit": false,
      "t": 94596.58499999996,
      "d": 241.93499999999767,
      "v": 92
    },
    {
      "midi": 87,
      "hit": false,
      "t": 94596.58499999996,
      "d": 241.93499999999767,
      "v": 92
    },
    {
      "midi": 50,
      "hit": false,
      "t": 94717.55249999928,
      "d": 64.26398437499302,
      "v": 75
    },
    {
      "midi": 60,
      "hit": false,
      "t": 94717.55250000006,
      "d": 1992.1835156249872,
      "v": 62
    },
    {
      "midi": 48,
      "hit": false,
      "t": 94838.51999999928,
      "d": 64.26398437499302,
      "v": 75
    },
    {
      "midi": 41,
      "hit": false,
      "t": 94838.51999999964,
      "d": 189.01171875,
      "v": 110
    },
    {
      "midi": 77,
      "hit": false,
      "t": 94838.51999999996,
      "d": 241.93499999999767,
      "v": 92
    },
    {
      "midi": 81,
      "hit": false,
      "t": 94838.51999999996,
      "d": 241.93499999999767,
      "v": 92
    },
    {
      "midi": 84,
      "hit": false,
      "t": 94838.51999999996,
      "d": 241.93499999999767,
      "v": 92
    },
    {
      "midi": 48,
      "hit": false,
      "t": 94959.48749999928,
      "d": 64.26398437499302,
      "v": 75
    },
    {
      "midi": 48,
      "hit": false,
      "t": 95080.45499999927,
      "d": 64.26398437499302,
      "v": 75
    },
    {
      "midi": 48,
      "hit": false,
      "t": 95201.42249999927,
      "d": 64.26398437499302,
      "v": 75
    },
    {
      "midi": 48,
      "hit": false,
      "t": 95322.38999999927,
      "d": 64.26398437499302,
      "v": 75
    },
    {
      "midi": 41,
      "hit": false,
      "t": 95322.38999999964,
      "d": 189.01171875,
      "v": 110
    },
    {
      "midi": 77,
      "hit": false,
      "t": 95322.38999999996,
      "d": 234.37453124999593,
      "v": 92
    },
    {
      "midi": 84,
      "hit": false,
      "t": 95322.38999999996,
      "d": 245.71523437499127,
      "v": 92
    },
    {
      "midi": 81,
      "hit": false,
      "t": 95322.38999999996,
      "d": 246.97531249998428,
      "v": 92
    },
    {
      "midi": 48,
      "hit": false,
      "t": 95443.35749999927,
      "d": 64.26398437499302,
      "v": 75
    },
    {
      "midi": 48,
      "hit": false,
      "t": 95564.32499999927,
      "d": 64.26398437499302,
      "v": 75
    },
    {
      "midi": 48,
      "hit": false,
      "t": 95685.29249999927,
      "d": 64.26398437499302,
      "v": 75
    },
    {
      "midi": 41,
      "hit": false,
      "t": 95685.29249999963,
      "d": 189.01171875,
      "v": 110
    },
    {
      "midi": 48,
      "hit": false,
      "t": 95806.25999999927,
      "d": 64.26398437499302,
      "v": 75
    },
    {
      "midi": 77,
      "hit": false,
      "t": 95806.25999999994,
      "d": 241.93499999999767,
      "v": 92
    },
    {
      "midi": 81,
      "hit": false,
      "t": 95806.25999999994,
      "d": 241.93499999999767,
      "v": 92
    },
    {
      "midi": 84,
      "hit": false,
      "t": 95806.25999999994,
      "d": 241.93499999999767,
      "v": 92
    },
    {
      "midi": 48,
      "hit": false,
      "t": 95927.22749999927,
      "d": 64.26398437499302,
      "v": 75
    },
    {
      "midi": 48,
      "hit": false,
      "t": 96048.19499999926,
      "d": 64.26398437499302,
      "v": 75
    },
    {
      "midi": 38,
      "hit": false,
      "t": 96048.19499999963,
      "d": 189.01171875,
      "v": 110
    },
    {
      "midi": 48,
      "hit": false,
      "t": 96169.16249999926,
      "d": 64.26398437499302,
      "v": 75
    },
    {
      "midi": 77,
      "hit": false,
      "t": 96169.16249999993,
      "d": 362.9024999999965,
      "v": 92
    },
    {
      "midi": 81,
      "hit": false,
      "t": 96169.16249999993,
      "d": 362.9024999999965,
      "v": 92
    },
    {
      "midi": 84,
      "hit": false,
      "t": 96169.16249999993,
      "d": 362.9024999999965,
      "v": 92
    },
    {
      "midi": 48,
      "hit": false,
      "t": 96290.12999999926,
      "d": 64.26398437499302,
      "v": 75
    },
    {
      "midi": 48,
      "hit": false,
      "t": 96411.09749999926,
      "d": 64.26398437499302,
      "v": 75
    },
    {
      "midi": 48,
      "hit": false,
      "t": 96532.06499999926,
      "d": 64.26398437499302,
      "v": 75
    },
    {
      "midi": 41,
      "hit": false,
      "t": 96532.06499999962,
      "d": 189.01171875,
      "v": 110
    },
    {
      "midi": 77,
      "hit": false,
      "t": 96532.06499999993,
      "d": 241.93499999999767,
      "v": 92
    },
    {
      "midi": 81,
      "hit": false,
      "t": 96532.06499999993,
      "d": 241.93499999999767,
      "v": 92
    },
    {
      "midi": 84,
      "hit": false,
      "t": 96532.06499999993,
      "d": 241.93499999999767,
      "v": 92
    },
    {
      "midi": 48,
      "hit": false,
      "t": 96653.03249999926,
      "d": 64.26398437499302,
      "v": 75
    },
    {
      "midi": 43,
      "hit": false,
      "t": 96773.99999999926,
      "d": 64.26398437499302,
      "v": 75
    },
    {
      "midi": 43,
      "hit": false,
      "t": 96773.99999999962,
      "d": 189.01171875,
      "v": 110
    },
    {
      "midi": 79,
      "hit": false,
      "t": 96773.99999999993,
      "d": 241.93499999999767,
      "v": 92
    },
    {
      "midi": 82,
      "hit": false,
      "t": 96773.99999999993,
      "d": 241.93499999999767,
      "v": 92
    },
    {
      "midi": 86,
      "hit": false,
      "t": 96773.99999999993,
      "d": 241.93499999999767,
      "v": 92
    },
    {
      "midi": 55,
      "hit": false,
      "t": 96774.00000000004,
      "d": 1794.3512499999924,
      "v": 62
    },
    {
      "midi": 58,
      "hit": false,
      "t": 96774.00000000004,
      "d": 3840.7181249999994,
      "v": 62
    },
    {
      "midi": 62,
      "hit": false,
      "t": 96774.00000000004,
      "d": 5752.256640624997,
      "v": 62
    },
    {
      "midi": 43,
      "hit": false,
      "t": 96894.96749999926,
      "d": 64.26398437499302,
      "v": 75
    },
    {
      "midi": 43,
      "hit": false,
      "t": 97015.93499999926,
      "d": 64.26398437499302,
      "v": 75
    },
    {
      "midi": 43,
      "hit": false,
      "t": 97136.90249999925,
      "d": 64.26398437499302,
      "v": 75
    },
    {
      "midi": 43,
      "hit": false,
      "t": 97257.86999999925,
      "d": 64.26398437499302,
      "v": 75
    },
    {
      "midi": 43,
      "hit": false,
      "t": 97257.86999999962,
      "d": 189.01171875,
      "v": 110
    },
    {
      "midi": 82,
      "hit": false,
      "t": 97257.86999999992,
      "d": 210.43304687499767,
      "v": 92
    },
    {
      "midi": 79,
      "hit": false,
      "t": 97257.86999999992,
      "d": 215.47335937499884,
      "v": 92
    },
    {
      "midi": 86,
      "hit": false,
      "t": 97257.86999999992,
      "d": 224.2939062499936,
      "v": 92
    },
    {
      "midi": 43,
      "hit": false,
      "t": 97378.83749999925,
      "d": 64.26398437499302,
      "v": 75
    },
    {
      "midi": 43,
      "hit": false,
      "t": 97499.80499999925,
      "d": 64.26398437499302,
      "v": 75
    },
    {
      "midi": 43,
      "hit": false,
      "t": 97620.77249999925,
      "d": 64.26398437499302,
      "v": 75
    },
    {
      "midi": 43,
      "hit": false,
      "t": 97620.77249999961,
      "d": 189.01171875,
      "v": 110
    },
    {
      "midi": 43,
      "hit": false,
      "t": 97741.73999999925,
      "d": 64.26398437499302,
      "v": 75
    },
    {
      "midi": 79,
      "hit": false,
      "t": 97741.73999999992,
      "d": 241.93499999999767,
      "v": 92
    },
    {
      "midi": 82,
      "hit": false,
      "t": 97741.73999999992,
      "d": 241.93499999999767,
      "v": 92
    },
    {
      "midi": 86,
      "hit": false,
      "t": 97741.73999999992,
      "d": 241.93499999999767,
      "v": 92
    },
    {
      "midi": 43,
      "hit": false,
      "t": 97862.70749999925,
      "d": 64.26398437499302,
      "v": 75
    },
    {
      "midi": 43,
      "hit": false,
      "t": 97983.67499999925,
      "d": 64.26398437499302,
      "v": 75
    },
    {
      "midi": 43,
      "hit": false,
      "t": 97983.67499999961,
      "d": 189.01171875,
      "v": 110
    },
    {
      "midi": 43,
      "hit": false,
      "t": 98104.64249999925,
      "d": 64.26398437499302,
      "v": 75
    },
    {
      "midi": 79,
      "hit": false,
      "t": 98104.64249999991,
      "d": 362.9024999999965,
      "v": 92
    },
    {
      "midi": 82,
      "hit": false,
      "t": 98104.64249999991,
      "d": 362.9024999999965,
      "v": 92
    },
    {
      "midi": 86,
      "hit": false,
      "t": 98104.64249999991,
      "d": 362.9024999999965,
      "v": 92
    },
    {
      "midi": 43,
      "hit": false,
      "t": 98225.60999999924,
      "d": 64.26398437499302,
      "v": 75
    },
    {
      "midi": 43,
      "hit": false,
      "t": 98346.57749999924,
      "d": 64.26398437499302,
      "v": 75
    },
    {
      "midi": 43,
      "hit": false,
      "t": 98467.54499999924,
      "d": 64.26398437499302,
      "v": 75
    },
    {
      "midi": 41,
      "hit": false,
      "t": 98467.5449999996,
      "d": 189.01171875,
      "v": 110
    },
    {
      "midi": 79,
      "hit": false,
      "t": 98467.54499999991,
      "d": 241.93499999999767,
      "v": 92
    },
    {
      "midi": 82,
      "hit": false,
      "t": 98467.54499999991,
      "d": 241.93499999999767,
      "v": 92
    },
    {
      "midi": 87,
      "hit": false,
      "t": 98467.54499999991,
      "d": 241.93499999999767,
      "v": 92
    },
    {
      "midi": 43,
      "hit": false,
      "t": 98588.51249999924,
      "d": 64.26398437499302,
      "v": 75
    },
    {
      "midi": 46,
      "hit": false,
      "t": 98709.47999999924,
      "d": 64.26398437499302,
      "v": 75
    },
    {
      "midi": 34,
      "hit": false,
      "t": 98709.4799999996,
      "d": 189.01171875,
      "v": 110
    },
    {
      "midi": 77,
      "hit": false,
      "t": 98709.47999999991,
      "d": 241.93499999999767,
      "v": 92
    },
    {
      "midi": 82,
      "hit": false,
      "t": 98709.47999999991,
      "d": 241.93499999999767,
      "v": 92
    },
    {
      "midi": 86,
      "hit": false,
      "t": 98709.47999999991,
      "d": 241.93499999999767,
      "v": 92
    },
    {
      "midi": 53,
      "hit": false,
      "t": 98709.48000000004,
      "d": 5830.381484374986,
      "v": 62
    },
    {
      "midi": 46,
      "hit": false,
      "t": 98830.44749999924,
      "d": 64.26398437499302,
      "v": 75
    },
    {
      "midi": 46,
      "hit": false,
      "t": 98951.41499999924,
      "d": 64.26398437499302,
      "v": 75
    },
    {
      "midi": 46,
      "hit": false,
      "t": 99072.38249999924,
      "d": 64.26398437499302,
      "v": 75
    },
    {
      "midi": 46,
      "hit": false,
      "t": 99193.34999999923,
      "d": 64.26398437499302,
      "v": 75
    },
    {
      "midi": 34,
      "hit": false,
      "t": 99193.3499999996,
      "d": 189.01171875,
      "v": 110
    },
    {
      "midi": 82,
      "hit": false,
      "t": 99193.3499999999,
      "d": 170.1105468750029,
      "v": 92
    },
    {
      "midi": 77,
      "hit": false,
      "t": 99193.3499999999,
      "d": 187.75164062500698,
      "v": 92
    },
    {
      "midi": 86,
      "hit": false,
      "t": 99193.3499999999,
      "d": 196.57218750000175,
      "v": 92
    },
    {
      "midi": 46,
      "hit": false,
      "t": 99314.31749999923,
      "d": 64.26398437499302,
      "v": 75
    },
    {
      "midi": 46,
      "hit": false,
      "t": 99435.28499999923,
      "d": 64.26398437499302,
      "v": 75
    },
    {
      "midi": 46,
      "hit": false,
      "t": 99556.25249999923,
      "d": 64.26398437499302,
      "v": 75
    },
    {
      "midi": 34,
      "hit": false,
      "t": 99556.2524999996,
      "d": 189.01171875,
      "v": 110
    },
    {
      "midi": 46,
      "hit": false,
      "t": 99677.21999999923,
      "d": 64.26398437499302,
      "v": 75
    },
    {
      "midi": 77,
      "hit": false,
      "t": 99677.2199999999,
      "d": 241.93499999999767,
      "v": 92
    },
    {
      "midi": 82,
      "hit": false,
      "t": 99677.2199999999,
      "d": 241.93499999999767,
      "v": 92
    },
    {
      "midi": 86,
      "hit": false,
      "t": 99677.2199999999,
      "d": 241.93499999999767,
      "v": 92
    },
    {
      "midi": 46,
      "hit": false,
      "t": 99798.18749999923,
      "d": 64.26398437499302,
      "v": 75
    },
    {
      "midi": 46,
      "hit": false,
      "t": 99919.15499999923,
      "d": 64.26398437499302,
      "v": 75
    },
    {
      "midi": 36,
      "hit": false,
      "t": 99919.15499999959,
      "d": 189.01171875,
      "v": 110
    },
    {
      "midi": 46,
      "hit": false,
      "t": 100040.12249999923,
      "d": 64.26398437499302,
      "v": 75
    },
    {
      "midi": 77,
      "hit": false,
      "t": 100040.1224999999,
      "d": 362.9024999999965,
      "v": 92
    },
    {
      "midi": 82,
      "hit": false,
      "t": 100040.1224999999,
      "d": 362.9024999999965,
      "v": 92
    },
    {
      "midi": 86,
      "hit": false,
      "t": 100040.1224999999,
      "d": 362.9024999999965,
      "v": 92
    },
    {
      "midi": 46,
      "hit": false,
      "t": 100161.08999999923,
      "d": 64.26398437499302,
      "v": 75
    },
    {
      "midi": 46,
      "hit": false,
      "t": 100282.05749999922,
      "d": 64.26398437499302,
      "v": 75
    },
    {
      "midi": 46,
      "hit": false,
      "t": 100403.02499999922,
      "d": 64.26398437499302,
      "v": 75
    },
    {
      "midi": 38,
      "hit": false,
      "t": 100403.02499999959,
      "d": 189.01171875,
      "v": 110
    },
    {
      "midi": 77,
      "hit": false,
      "t": 100403.02499999989,
      "d": 241.93499999999767,
      "v": 92
    },
    {
      "midi": 82,
      "hit": false,
      "t": 100403.02499999989,
      "d": 241.93499999999767,
      "v": 92
    },
    {
      "midi": 87,
      "hit": false,
      "t": 100403.02499999989,
      "d": 241.93499999999767,
      "v": 92
    },
    {
      "midi": 46,
      "hit": false,
      "t": 100523.99249999922,
      "d": 64.26398437499302,
      "v": 75
    },
    {
      "midi": 50,
      "hit": false,
      "t": 100644.95999999922,
      "d": 64.26398437499302,
      "v": 75
    },
    {
      "midi": 38,
      "hit": false,
      "t": 100644.95999999958,
      "d": 189.01171875,
      "v": 110
    },
    {
      "midi": 77,
      "hit": false,
      "t": 100644.95999999989,
      "d": 241.93499999999767,
      "v": 92
    },
    {
      "midi": 81,
      "hit": false,
      "t": 100644.95999999989,
      "d": 241.93499999999767,
      "v": 92
    },
    {
      "midi": 86,
      "hit": false,
      "t": 100644.95999999989,
      "d": 241.93499999999767,
      "v": 92
    },
    {
      "midi": 57,
      "hit": false,
      "t": 100644.96000000005,
      "d": 3886.080937499981,
      "v": 62
    },
    {
      "midi": 50,
      "hit": false,
      "t": 100765.92749999922,
      "d": 64.26398437499302,
      "v": 75
    },
    {
      "midi": 50,
      "hit": false,
      "t": 100886.89499999922,
      "d": 64.26398437499302,
      "v": 75
    },
    {
      "midi": 50,
      "hit": false,
      "t": 101007.86249999922,
      "d": 64.26398437499302,
      "v": 75
    },
    {
      "midi": 50,
      "hit": false,
      "t": 101128.82999999922,
      "d": 64.26398437499302,
      "v": 75
    },
    {
      "midi": 38,
      "hit": false,
      "t": 101128.82999999958,
      "d": 189.01171875,
      "v": 110
    },
    {
      "midi": 77,
      "hit": false,
      "t": 101128.82999999989,
      "d": 236.8946874999965,
      "v": 92
    },
    {
      "midi": 81,
      "hit": false,
      "t": 101128.82999999989,
      "d": 248.23539062499185,
      "v": 92
    },
    {
      "midi": 86,
      "hit": false,
      "t": 101128.82999999989,
      "d": 269.6567187499895,
      "v": 92
    },
    {
      "midi": 50,
      "hit": false,
      "t": 101249.79749999921,
      "d": 64.26398437499302,
      "v": 75
    },
    {
      "midi": 50,
      "hit": false,
      "t": 101370.76499999921,
      "d": 64.26398437499302,
      "v": 75
    },
    {
      "midi": 50,
      "hit": false,
      "t": 101491.73249999921,
      "d": 64.26398437499302,
      "v": 75
    },
    {
      "midi": 38,
      "hit": false,
      "t": 101491.73249999958,
      "d": 189.01171875,
      "v": 110
    },
    {
      "midi": 50,
      "hit": false,
      "t": 101612.69999999921,
      "d": 64.26398437499302,
      "v": 75
    },
    {
      "midi": 77,
      "hit": false,
      "t": 101612.69999999988,
      "d": 241.93499999999767,
      "v": 92
    },
    {
      "midi": 81,
      "hit": false,
      "t": 101612.69999999988,
      "d": 241.93499999999767,
      "v": 92
    },
    {
      "midi": 86,
      "hit": false,
      "t": 101612.69999999988,
      "d": 241.93499999999767,
      "v": 92
    },
    {
      "midi": 50,
      "hit": false,
      "t": 101733.66749999921,
      "d": 64.26398437499302,
      "v": 75
    },
    {
      "midi": 50,
      "hit": false,
      "t": 101854.63499999921,
      "d": 64.26398437499302,
      "v": 75
    },
    {
      "midi": 38,
      "hit": false,
      "t": 101854.63499999957,
      "d": 189.01171875,
      "v": 110
    },
    {
      "midi": 50,
      "hit": false,
      "t": 101975.60249999921,
      "d": 64.26398437499302,
      "v": 75
    },
    {
      "midi": 77,
      "hit": false,
      "t": 101975.60249999988,
      "d": 362.9024999999965,
      "v": 92
    },
    {
      "midi": 81,
      "hit": false,
      "t": 101975.60249999988,
      "d": 362.9024999999965,
      "v": 92
    },
    {
      "midi": 86,
      "hit": false,
      "t": 101975.60249999988,
      "d": 362.9024999999965,
      "v": 92
    },
    {
      "midi": 50,
      "hit": false,
      "t": 102096.5699999992,
      "d": 64.26398437499302,
      "v": 75
    },
    {
      "midi": 50,
      "hit": false,
      "t": 102217.5374999992,
      "d": 64.26398437499302,
      "v": 75
    },
    {
      "midi": 50,
      "hit": false,
      "t": 102338.5049999992,
      "d": 64.26398437499302,
      "v": 75
    },
    {
      "midi": 38,
      "hit": false,
      "t": 102338.50499999957,
      "d": 189.01171875,
      "v": 110
    },
    {
      "midi": 77,
      "hit": false,
      "t": 102338.50499999987,
      "d": 241.93499999999767,
      "v": 92
    },
    {
      "midi": 81,
      "hit": false,
      "t": 102338.50499999987,
      "d": 241.93499999999767,
      "v": 92
    },
    {
      "midi": 87,
      "hit": false,
      "t": 102338.50499999987,
      "d": 241.93499999999767,
      "v": 92
    },
    {
      "midi": 50,
      "hit": false,
      "t": 102459.4724999992,
      "d": 64.26398437499302,
      "v": 75
    },
    {
      "midi": 60,
      "hit": false,
      "t": 102459.47250000005,
      "d": 1992.1835156249872,
      "v": 62
    },
    {
      "midi": 48,
      "hit": false,
      "t": 102580.4399999992,
      "d": 64.26398437499302,
      "v": 75
    },
    {
      "midi": 41,
      "hit": false,
      "t": 102580.43999999957,
      "d": 189.01171875,
      "v": 110
    },
    {
      "midi": 77,
      "hit": false,
      "t": 102580.43999999987,
      "d": 241.93499999999767,
      "v": 92
    },
    {
      "midi": 81,
      "hit": false,
      "t": 102580.43999999987,
      "d": 241.93499999999767,
      "v": 92
    },
    {
      "midi": 84,
      "hit": false,
      "t": 102580.43999999987,
      "d": 241.93499999999767,
      "v": 92
    },
    {
      "midi": 48,
      "hit": false,
      "t": 102701.4074999992,
      "d": 64.26398437499302,
      "v": 75
    },
    {
      "midi": 48,
      "hit": false,
      "t": 102822.3749999992,
      "d": 64.26398437499302,
      "v": 75
    },
    {
      "midi": 48,
      "hit": false,
      "t": 102943.3424999992,
      "d": 64.26398437499302,
      "v": 75
    },
    {
      "midi": 48,
      "hit": false,
      "t": 103064.3099999992,
      "d": 64.26398437499302,
      "v": 75
    },
    {
      "midi": 41,
      "hit": false,
      "t": 103064.30999999956,
      "d": 189.01171875,
      "v": 110
    },
    {
      "midi": 77,
      "hit": false,
      "t": 103064.30999999987,
      "d": 234.37453124999593,
      "v": 92
    },
    {
      "midi": 84,
      "hit": false,
      "t": 103064.30999999987,
      "d": 245.71523437499127,
      "v": 92
    },
    {
      "midi": 81,
      "hit": false,
      "t": 103064.30999999987,
      "d": 246.97531249998428,
      "v": 92
    },
    {
      "midi": 48,
      "hit": false,
      "t": 103185.2774999992,
      "d": 64.26398437499302,
      "v": 75
    },
    {
      "midi": 48,
      "hit": false,
      "t": 103306.2449999992,
      "d": 64.26398437499302,
      "v": 75
    },
    {
      "midi": 48,
      "hit": false,
      "t": 103427.2124999992,
      "d": 64.26398437499302,
      "v": 75
    },
    {
      "midi": 41,
      "hit": false,
      "t": 103427.21249999956,
      "d": 189.01171875,
      "v": 110
    },
    {
      "midi": 48,
      "hit": false,
      "t": 103548.17999999919,
      "d": 64.26398437499302,
      "v": 75
    },
    {
      "midi": 77,
      "hit": false,
      "t": 103548.17999999985,
      "d": 241.93499999999767,
      "v": 92
    },
    {
      "midi": 81,
      "hit": false,
      "t": 103548.17999999985,
      "d": 241.93499999999767,
      "v": 92
    },
    {
      "midi": 84,
      "hit": false,
      "t": 103548.17999999985,
      "d": 241.93499999999767,
      "v": 92
    },
    {
      "midi": 48,
      "hit": false,
      "t": 103669.14749999919,
      "d": 64.26398437499302,
      "v": 75
    },
    {
      "midi": 48,
      "hit": false,
      "t": 103790.11499999919,
      "d": 64.26398437499302,
      "v": 75
    },
    {
      "midi": 38,
      "hit": false,
      "t": 103790.11499999955,
      "d": 189.01171875,
      "v": 110
    },
    {
      "midi": 48,
      "hit": false,
      "t": 103911.08249999919,
      "d": 64.26398437499302,
      "v": 75
    },
    {
      "midi": 77,
      "hit": false,
      "t": 103911.08249999984,
      "d": 362.9024999999965,
      "v": 92
    },
    {
      "midi": 81,
      "hit": false,
      "t": 103911.08249999984,
      "d": 362.9024999999965,
      "v": 92
    },
    {
      "midi": 84,
      "hit": false,
      "t": 103911.08249999984,
      "d": 362.9024999999965,
      "v": 92
    },
    {
      "midi": 48,
      "hit": false,
      "t": 104032.04999999919,
      "d": 64.26398437499302,
      "v": 75
    },
    {
      "midi": 48,
      "hit": false,
      "t": 104153.01749999919,
      "d": 64.26398437499302,
      "v": 75
    },
    {
      "midi": 48,
      "hit": false,
      "t": 104273.98499999919,
      "d": 64.26398437499302,
      "v": 75
    },
    {
      "midi": 41,
      "hit": false,
      "t": 104273.98499999955,
      "d": 189.01171875,
      "v": 110
    },
    {
      "midi": 77,
      "hit": false,
      "t": 104273.98499999984,
      "d": 241.93499999999767,
      "v": 92
    },
    {
      "midi": 81,
      "hit": false,
      "t": 104273.98499999984,
      "d": 241.93499999999767,
      "v": 92
    },
    {
      "midi": 84,
      "hit": false,
      "t": 104273.98499999984,
      "d": 241.93499999999767,
      "v": 92
    },
    {
      "midi": 48,
      "hit": false,
      "t": 104394.95249999918,
      "d": 64.26398437499302,
      "v": 75
    },
    {
      "midi": 43,
      "hit": false,
      "t": 104515.91999999918,
      "d": 64.26398437499302,
      "v": 75
    },
    {
      "midi": 43,
      "hit": false,
      "t": 104515.91999999955,
      "d": 189.01171875,
      "v": 110
    },
    {
      "midi": 55,
      "hit": false,
      "t": 104515.92000000003,
      "d": 1794.3512499999924,
      "v": 62
    },
    {
      "midi": 58,
      "hit": false,
      "t": 104515.92000000003,
      "d": 3840.7181249999994,
      "v": 62
    },
    {
      "midi": 62,
      "hit": false,
      "t": 104515.92000000003,
      "d": 5752.256640624997,
      "v": 62
    },
    {
      "midi": 43,
      "hit": false,
      "t": 104636.88749999918,
      "d": 64.26398437499302,
      "v": 75
    },
    {
      "midi": 43,
      "hit": false,
      "t": 104757.85499999918,
      "d": 64.26398437499302,
      "v": 75
    },
    {
      "midi": 43,
      "hit": false,
      "t": 104878.82249999918,
      "d": 64.26398437499302,
      "v": 75
    },
    {
      "midi": 43,
      "hit": false,
      "t": 104999.78999999918,
      "d": 64.26398437499302,
      "v": 75
    },
    {
      "midi": 43,
      "hit": false,
      "t": 104999.78999999954,
      "d": 189.01171875,
      "v": 110
    },
    {
      "midi": 43,
      "hit": false,
      "t": 105120.75749999918,
      "d": 64.26398437499302,
      "v": 75
    },
    {
      "midi": 43,
      "hit": false,
      "t": 105241.72499999918,
      "d": 64.26398437499302,
      "v": 75
    },
    {
      "midi": 67,
      "hit": false,
      "t": 105249.28546874995,
      "d": 187.75164062500698,
      "v": 104
    },
    {
      "midi": 43,
      "hit": false,
      "t": 105362.69249999918,
      "d": 64.26398437499302,
      "v": 75
    },
    {
      "midi": 43,
      "hit": false,
      "t": 105362.69249999954,
      "d": 189.01171875,
      "v": 110
    },
    {
      "midi": 43,
      "hit": false,
      "t": 105483.65999999917,
      "d": 64.26398437499302,
      "v": 75
    },
    {
      "midi": 74,
      "hit": false,
      "t": 105496.26078124996,
      "d": 219.25359375000698,
      "v": 104
    },
    {
      "midi": 43,
      "hit": false,
      "t": 105604.62749999917,
      "d": 64.26398437499302,
      "v": 75
    },
    {
      "midi": 43,
      "hit": false,
      "t": 105725.59499999917,
      "d": 64.26398437499302,
      "v": 75
    },
    {
      "midi": 43,
      "hit": false,
      "t": 105725.59499999954,
      "d": 189.01171875,
      "v": 110
    },
    {
      "midi": 72,
      "hit": false,
      "t": 105753.31671874996,
      "d": 250.75554687500698,
      "v": 104
    },
    {
      "midi": 43,
      "hit": false,
      "t": 105846.56249999917,
      "d": 64.26398437499302,
      "v": 75
    },
    {
      "midi": 43,
      "hit": false,
      "t": 105967.52999999917,
      "d": 64.26398437499302,
      "v": 75
    },
    {
      "midi": 43,
      "hit": false,
      "t": 106088.49749999917,
      "d": 64.26398437499302,
      "v": 75
    },
    {
      "midi": 43,
      "hit": false,
      "t": 106209.46499999917,
      "d": 64.26398437499302,
      "v": 75
    },
    {
      "midi": 41,
      "hit": false,
      "t": 106209.46499999953,
      "d": 189.01171875,
      "v": 110
    },
    {
      "midi": 74,
      "hit": false,
      "t": 106230.88632812497,
      "d": 485.1300781250029,
      "v": 107
    },
    {
      "midi": 43,
      "hit": false,
      "t": 106330.43249999917,
      "d": 64.26398437499302,
      "v": 75
    },
    {
      "midi": 46,
      "hit": false,
      "t": 106451.39999999916,
      "d": 64.26398437499302,
      "v": 75
    },
    {
      "midi": 34,
      "hit": false,
      "t": 106451.39999999953,
      "d": 189.01171875,
      "v": 110
    },
    {
      "midi": 53,
      "hit": false,
      "t": 106451.40000000002,
      "d": 5830.381484374986,
      "v": 62
    },
    {
      "midi": 46,
      "hit": false,
      "t": 106572.36749999916,
      "d": 64.26398437499302,
      "v": 75
    },
    {
      "midi": 46,
      "hit": false,
      "t": 106693.33499999916,
      "d": 64.26398437499302,
      "v": 75
    },
    {
      "midi": 46,
      "hit": false,
      "t": 106814.30249999916,
      "d": 64.26398437499302,
      "v": 75
    },
    {
      "midi": 46,
      "hit": false,
      "t": 106935.26999999916,
      "d": 64.26398437499302,
      "v": 75
    },
    {
      "midi": 34,
      "hit": false,
      "t": 106935.26999999952,
      "d": 189.01171875,
      "v": 110
    },
    {
      "midi": 46,
      "hit": false,
      "t": 107056.23749999916,
      "d": 64.26398437499302,
      "v": 75
    },
    {
      "midi": 70,
      "hit": false,
      "t": 107170.90460937496,
      "d": 231.85437499999534,
      "v": 101
    },
    {
      "midi": 46,
      "hit": false,
      "t": 107177.20499999916,
      "d": 64.26398437499302,
      "v": 75
    },
    {
      "midi": 46,
      "hit": false,
      "t": 107298.17249999916,
      "d": 64.26398437499302,
      "v": 75
    },
    {
      "midi": 34,
      "hit": false,
      "t": 107298.17249999952,
      "d": 189.01171875,
      "v": 110
    },
    {
      "midi": 46,
      "hit": false,
      "t": 107419.13999999916,
      "d": 64.26398437499302,
      "v": 75
    },
    {
      "midi": 74,
      "hit": false,
      "t": 107436.78109374996,
      "d": 190.27179687499302,
      "v": 104
    },
    {
      "midi": 46,
      "hit": false,
      "t": 107540.10749999915,
      "d": 64.26398437499302,
      "v": 75
    },
    {
      "midi": 46,
      "hit": false,
      "t": 107661.07499999915,
      "d": 64.26398437499302,
      "v": 75
    },
    {
      "midi": 36,
      "hit": false,
      "t": 107661.07499999952,
      "d": 189.01171875,
      "v": 110
    },
    {
      "midi": 72,
      "hit": false,
      "t": 107717.77851562496,
      "d": 212.95320312499825,
      "v": 110
    },
    {
      "midi": 46,
      "hit": false,
      "t": 107782.04249999915,
      "d": 64.26398437499302,
      "v": 75
    },
    {
      "midi": 46,
      "hit": false,
      "t": 107903.00999999915,
      "d": 64.26398437499302,
      "v": 75
    },
    {
      "midi": 46,
      "hit": false,
      "t": 108023.97749999915,
      "d": 64.26398437499302,
      "v": 75
    },
    {
      "midi": 46,
      "hit": false,
      "t": 108144.94499999915,
      "d": 64.26398437499302,
      "v": 75
    },
    {
      "midi": 38,
      "hit": false,
      "t": 108144.94499999951,
      "d": 189.01171875,
      "v": 110
    },
    {
      "midi": 74,
      "hit": false,
      "t": 108165.10624999995,
      "d": 444.8075781249936,
      "v": 107
    },
    {
      "midi": 46,
      "hit": false,
      "t": 108265.91249999915,
      "d": 64.26398437499302,
      "v": 75
    },
    {
      "midi": 50,
      "hit": false,
      "t": 108386.87999999915,
      "d": 64.26398437499302,
      "v": 75
    },
    {
      "midi": 38,
      "hit": false,
      "t": 108386.87999999951,
      "d": 189.01171875,
      "v": 110
    },
    {
      "midi": 57,
      "hit": false,
      "t": 108386.88000000003,
      "d": 3886.080937499981,
      "v": 62
    },
    {
      "midi": 50,
      "hit": false,
      "t": 108507.84749999914,
      "d": 64.26398437499302,
      "v": 75
    },
    {
      "midi": 50,
      "hit": false,
      "t": 108628.81499999914,
      "d": 64.26398437499302,
      "v": 75
    },
    {
      "midi": 50,
      "hit": false,
      "t": 108749.78249999914,
      "d": 64.26398437499302,
      "v": 75
    },
    {
      "midi": 50,
      "hit": false,
      "t": 108870.74999999914,
      "d": 64.26398437499302,
      "v": 75
    },
    {
      "midi": 38,
      "hit": false,
      "t": 108870.7499999995,
      "d": 189.01171875,
      "v": 110
    },
    {
      "midi": 50,
      "hit": false,
      "t": 108991.71749999914,
      "d": 64.26398437499302,
      "v": 75
    },
    {
      "midi": 50,
      "hit": false,
      "t": 109112.68499999914,
      "d": 64.26398437499302,
      "v": 75
    },
    {
      "midi": 67,
      "hit": false,
      "t": 109134.10632812495,
      "d": 181.45124999999825,
      "v": 107
    },
    {
      "midi": 50,
      "hit": false,
      "t": 109233.65249999914,
      "d": 64.26398437499302,
      "v": 75
    },
    {
      "midi": 38,
      "hit": false,
      "t": 109233.6524999995,
      "d": 189.01171875,
      "v": 110
    },
    {
      "midi": 50,
      "hit": false,
      "t": 109354.61999999914,
      "d": 64.26398437499302,
      "v": 75
    },
    {
      "midi": 74,
      "hit": false,
      "t": 109369.74093749996,
      "d": 209.17296875000466,
      "v": 107
    },
    {
      "midi": 50,
      "hit": false,
      "t": 109475.58749999914,
      "d": 64.26398437499302,
      "v": 75
    },
    {
      "midi": 50,
      "hit": false,
      "t": 109596.55499999913,
      "d": 64.26398437499302,
      "v": 75
    },
    {
      "midi": 38,
      "hit": false,
      "t": 109596.5549999995,
      "d": 189.01171875,
      "v": 110
    },
    {
      "midi": 75,
      "hit": false,
      "t": 109634.35734374996,
      "d": 180.19117187500524,
      "v": 107
    },
    {
      "midi": 50,
      "hit": false,
      "t": 109717.52249999913,
      "d": 64.26398437499302,
      "v": 75
    },
    {
      "midi": 74,
      "hit": false,
      "t": 109812.02835937496,
      "d": 191.53187500000058,
      "v": 107
    },
    {
      "midi": 50,
      "hit": false,
      "t": 109838.48999999913,
      "d": 64.26398437499302,
      "v": 75
    },
    {
      "midi": 50,
      "hit": false,
      "t": 109959.45749999913,
      "d": 64.26398437499302,
      "v": 75
    },
    {
      "midi": 50,
      "hit": false,
      "t": 110080.42499999913,
      "d": 64.26398437499302,
      "v": 75
    },
    {
      "midi": 38,
      "hit": false,
      "t": 110080.4249999995,
      "d": 189.01171875,
      "v": 110
    },
    {
      "midi": 74,
      "hit": false,
      "t": 110113.18703124997,
      "d": 676.6619531249889,
      "v": 98
    },
    {
      "midi": 50,
      "hit": false,
      "t": 110201.39249999913,
      "d": 64.26398437499302,
      "v": 75
    },
    {
      "midi": 60,
      "hit": false,
      "t": 110201.39250000003,
      "d": 1992.1835156249872,
      "v": 62
    },
    {
      "midi": 48,
      "hit": false,
      "t": 110322.35999999913,
      "d": 64.26398437499302,
      "v": 75
    },
    {
      "midi": 41,
      "hit": false,
      "t": 110322.35999999949,
      "d": 189.01171875,
      "v": 110
    },
    {
      "midi": 48,
      "hit": false,
      "t": 110443.32749999913,
      "d": 64.26398437499302,
      "v": 75
    },
    {
      "midi": 48,
      "hit": false,
      "t": 110564.29499999913,
      "d": 64.26398437499302,
      "v": 75
    },
    {
      "midi": 48,
      "hit": false,
      "t": 110685.26249999912,
      "d": 64.26398437499302,
      "v": 75
    },
    {
      "midi": 48,
      "hit": false,
      "t": 110806.22999999912,
      "d": 64.26398437499302,
      "v": 75
    },
    {
      "midi": 41,
      "hit": false,
      "t": 110806.22999999949,
      "d": 189.01171875,
      "v": 110
    },
    {
      "midi": 72,
      "hit": false,
      "t": 110822.61101562495,
      "d": 175.15085937500407,
      "v": 98
    },
    {
      "midi": 48,
      "hit": false,
      "t": 110927.19749999912,
      "d": 64.26398437499302,
      "v": 75
    },
    {
      "midi": 48,
      "hit": false,
      "t": 111048.16499999912,
      "d": 64.26398437499302,
      "v": 75
    },
    {
      "midi": 72,
      "hit": false,
      "t": 111074.62664062495,
      "d": 642.6398437500902,
      "v": 101
    },
    {
      "midi": 48,
      "hit": false,
      "t": 111169.13249999912,
      "d": 64.26398437499302,
      "v": 75
    },
    {
      "midi": 41,
      "hit": false,
      "t": 111169.13249999948,
      "d": 189.01171875,
      "v": 110
    },
    {
      "midi": 48,
      "hit": false,
      "t": 111290.09999999912,
      "d": 64.26398437499302,
      "v": 75
    },
    {
      "midi": 48,
      "hit": false,
      "t": 111411.06749999912,
      "d": 64.26398437499302,
      "v": 75
    },
    {
      "midi": 48,
      "hit": false,
      "t": 111532.03499999912,
      "d": 64.26398437499302,
      "v": 75
    },
    {
      "midi": 38,
      "hit": false,
      "t": 111532.03499999948,
      "d": 189.01171875,
      "v": 110
    },
    {
      "midi": 48,
      "hit": false,
      "t": 111653.00249999911,
      "d": 64.26398437499302,
      "v": 75
    },
    {
      "midi": 70,
      "hit": false,
      "t": 111757.58898437503,
      "d": 187.75164062500698,
      "v": 98
    },
    {
      "midi": 48,
      "hit": false,
      "t": 111773.96999999911,
      "d": 64.26398437499302,
      "v": 75
    },
    {
      "midi": 48,
      "hit": false,
      "t": 111894.93749999911,
      "d": 64.26398437499302,
      "v": 75
    },
    {
      "midi": 48,
      "hit": false,
      "t": 112015.90499999911,
      "d": 64.26398437499302,
      "v": 75
    },
    {
      "midi": 41,
      "hit": false,
      "t": 112015.90499999947,
      "d": 189.01171875,
      "v": 110
    },
    {
      "midi": 70,
      "hit": false,
      "t": 112015.90500000004,
      "d": 249.49546874999942,
      "v": 98
    },
    {
      "midi": 48,
      "hit": false,
      "t": 112136.87249999911,
      "d": 64.26398437499302,
      "v": 75
    },
    {
      "midi": 43,
      "hit": false,
      "t": 112257.83999999911,
      "d": 64.26398437499302,
      "v": 75
    },
    {
      "midi": 43,
      "hit": false,
      "t": 112257.83999999947,
      "d": 189.01171875,
      "v": 110
    },
    {
      "midi": 55,
      "hit": false,
      "t": 112257.84000000001,
      "d": 1794.3512499999924,
      "v": 62
    },
    {
      "midi": 58,
      "hit": false,
      "t": 112257.84000000001,
      "d": 3840.7181249999994,
      "v": 62
    },
    {
      "midi": 62,
      "hit": false,
      "t": 112257.84000000001,
      "d": 5752.256640624997,
      "v": 62
    },
    {
      "midi": 43,
      "hit": false,
      "t": 112378.80749999911,
      "d": 64.26398437499302,
      "v": 75
    },
    {
      "midi": 43,
      "hit": false,
      "t": 112499.7749999991,
      "d": 64.26398437499302,
      "v": 75
    },
    {
      "midi": 43,
      "hit": false,
      "t": 112620.7424999991,
      "d": 64.26398437499302,
      "v": 75
    },
    {
      "midi": 43,
      "hit": false,
      "t": 112741.7099999991,
      "d": 64.26398437499302,
      "v": 75
    },
    {
      "midi": 43,
      "hit": false,
      "t": 112741.70999999947,
      "d": 189.01171875,
      "v": 110
    },
    {
      "midi": 43,
      "hit": false,
      "t": 112862.6774999991,
      "d": 64.26398437499302,
      "v": 75
    },
    {
      "midi": 43,
      "hit": false,
      "t": 112983.6449999991,
      "d": 64.26398437499302,
      "v": 75
    },
    {
      "midi": 67,
      "hit": false,
      "t": 112991.20546875003,
      "d": 187.75164062500698,
      "v": 104
    },
    {
      "midi": 43,
      "hit": false,
      "t": 113104.6124999991,
      "d": 64.26398437499302,
      "v": 75
    },
    {
      "midi": 43,
      "hit": false,
      "t": 113104.61249999946,
      "d": 189.01171875,
      "v": 110
    },
    {
      "midi": 43,
      "hit": false,
      "t": 113225.5799999991,
      "d": 64.26398437499302,
      "v": 75
    },
    {
      "midi": 74,
      "hit": false,
      "t": 113238.18078125005,
      "d": 219.25359375000698,
      "v": 104
    },
    {
      "midi": 43,
      "hit": false,
      "t": 113346.5474999991,
      "d": 64.26398437499302,
      "v": 75
    },
    {
      "midi": 43,
      "hit": false,
      "t": 113467.5149999991,
      "d": 64.26398437499302,
      "v": 75
    },
    {
      "midi": 43,
      "hit": false,
      "t": 113467.51499999946,
      "d": 189.01171875,
      "v": 110
    },
    {
      "midi": 72,
      "hit": false,
      "t": 113495.23671875005,
      "d": 250.75554687500698,
      "v": 104
    },
    {
      "midi": 43,
      "hit": false,
      "t": 113588.4824999991,
      "d": 64.26398437499302,
      "v": 75
    },
    {
      "midi": 43,
      "hit": false,
      "t": 113709.4499999991,
      "d": 64.26398437499302,
      "v": 75
    },
    {
      "midi": 43,
      "hit": false,
      "t": 113830.4174999991,
      "d": 64.26398437499302,
      "v": 75
    },
    {
      "midi": 43,
      "hit": false,
      "t": 113951.38499999909,
      "d": 64.26398437499302,
      "v": 75
    },
    {
      "midi": 41,
      "hit": false,
      "t": 113951.38499999946,
      "d": 189.01171875,
      "v": 110
    },
    {
      "midi": 74,
      "hit": false,
      "t": 113972.80632812505,
      "d": 485.1300781250029,
      "v": 107
    },
    {
      "midi": 43,
      "hit": false,
      "t": 114072.35249999909,
      "d": 64.26398437499302,
      "v": 75
    },
    {
      "midi": 46,
      "hit": false,
      "t": 114193.31999999909,
      "d": 64.26398437499302,
      "v": 75
    },
    {
      "midi": 34,
      "hit": false,
      "t": 114193.31999999945,
      "d": 189.01171875,
      "v": 110
    },
    {
      "midi": 53,
      "hit": false,
      "t": 114193.32,
      "d": 3870.9600000000064,
      "v": 62
    },
    {
      "midi": 46,
      "hit": false,
      "t": 114314.28749999909,
      "d": 64.26398437499302,
      "v": 75
    },
    {
      "midi": 46,
      "hit": false,
      "t": 114435.25499999909,
      "d": 64.26398437499302,
      "v": 75
    },
    {
      "midi": 46,
      "hit": false,
      "t": 114556.22249999909,
      "d": 64.26398437499302,
      "v": 75
    },
    {
      "midi": 46,
      "hit": false,
      "t": 114677.18999999909,
      "d": 64.26398437499302,
      "v": 75
    },
    {
      "midi": 34,
      "hit": false,
      "t": 114677.18999999945,
      "d": 189.01171875,
      "v": 110
    },
    {
      "midi": 46,
      "hit": false,
      "t": 114798.15749999908,
      "d": 64.26398437499302,
      "v": 75
    },
    {
      "midi": 70,
      "hit": false,
      "t": 114912.82460937505,
      "d": 231.85437499999534,
      "v": 101
    },
    {
      "midi": 46,
      "hit": false,
      "t": 114919.12499999908,
      "d": 64.26398437499302,
      "v": 75
    },
    {
      "midi": 46,
      "hit": false,
      "t": 115040.09249999908,
      "d": 64.26398437499302,
      "v": 75
    },
    {
      "midi": 34,
      "hit": false,
      "t": 115040.09249999945,
      "d": 189.01171875,
      "v": 110
    },
    {
      "midi": 46,
      "hit": false,
      "t": 115161.05999999908,
      "d": 64.26398437499302,
      "v": 75
    },
    {
      "midi": 74,
      "hit": false,
      "t": 115178.70109375005,
      "d": 190.27179687499302,
      "v": 104
    },
    {
      "midi": 46,
      "hit": false,
      "t": 115282.02749999908,
      "d": 64.26398437499302,
      "v": 75
    },
    {
      "midi": 46,
      "hit": false,
      "t": 115402.99499999908,
      "d": 64.26398437499302,
      "v": 75
    },
    {
      "midi": 36,
      "hit": false,
      "t": 115402.99499999944,
      "d": 189.01171875,
      "v": 110
    },
    {
      "midi": 72,
      "hit": false,
      "t": 115459.69851562504,
      "d": 212.95320312499825,
      "v": 110
    },
    {
      "midi": 46,
      "hit": false,
      "t": 115523.96249999908,
      "d": 64.26398437499302,
      "v": 75
    },
    {
      "midi": 46,
      "hit": false,
      "t": 115644.92999999908,
      "d": 64.26398437499302,
      "v": 75
    },
    {
      "midi": 46,
      "hit": false,
      "t": 115765.89749999908,
      "d": 64.26398437499302,
      "v": 75
    },
    {
      "midi": 46,
      "hit": false,
      "t": 115886.86499999907,
      "d": 64.26398437499302,
      "v": 75
    },
    {
      "midi": 38,
      "hit": false,
      "t": 115886.86499999944,
      "d": 189.01171875,
      "v": 110
    },
    {
      "midi": 74,
      "hit": false,
      "t": 115907.02625000004,
      "d": 444.8075781249936,
      "v": 107
    },
    {
      "midi": 46,
      "hit": false,
      "t": 116007.83249999907,
      "d": 64.26398437499302,
      "v": 75
    },
    {
      "midi": 50,
      "hit": false,
      "t": 116128.79999999907,
      "d": 64.26398437499302,
      "v": 75
    },
    {
      "midi": 38,
      "hit": false,
      "t": 116128.79999999944,
      "d": 189.01171875,
      "v": 110
    },
    {
      "midi": 57,
      "hit": false,
      "t": 116128.80000000002,
      "d": 1874.9962499999965,
      "v": 62
    },
    {
      "midi": 50,
      "hit": false,
      "t": 116249.76749999907,
      "d": 64.26398437499302,
      "v": 75
    },
    {
      "midi": 50,
      "hit": false,
      "t": 116370.73499999907,
      "d": 64.26398437499302,
      "v": 75
    },
    {
      "midi": 50,
      "hit": false,
      "t": 116491.70249999907,
      "d": 64.26398437499302,
      "v": 75
    },
    {
      "midi": 50,
      "hit": false,
      "t": 116612.66999999907,
      "d": 64.26398437499302,
      "v": 75
    },
    {
      "midi": 38,
      "hit": false,
      "t": 116612.66999999943,
      "d": 189.01171875,
      "v": 110
    },
    {
      "midi": 50,
      "hit": false,
      "t": 116733.63749999907,
      "d": 64.26398437499302,
      "v": 75
    },
    {
      "midi": 50,
      "hit": false,
      "t": 116854.60499999906,
      "d": 64.26398437499302,
      "v": 75
    },
    {
      "midi": 67,
      "hit": false,
      "t": 116876.02632812504,
      "d": 181.45124999999825,
      "v": 107
    },
    {
      "midi": 50,
      "hit": false,
      "t": 116975.57249999906,
      "d": 64.26398437499302,
      "v": 75
    },
    {
      "midi": 38,
      "hit": false,
      "t": 116975.57249999943,
      "d": 189.01171875,
      "v": 110
    },
    {
      "midi": 50,
      "hit": false,
      "t": 117096.53999999906,
      "d": 64.26398437499302,
      "v": 75
    },
    {
      "midi": 74,
      "hit": false,
      "t": 117111.66093750004,
      "d": 209.17296875000466,
      "v": 107
    },
    {
      "midi": 50,
      "hit": false,
      "t": 117217.50749999906,
      "d": 64.26398437499302,
      "v": 75
    },
    {
      "midi": 50,
      "hit": false,
      "t": 117338.47499999906,
      "d": 64.26398437499302,
      "v": 75
    },
    {
      "midi": 38,
      "hit": false,
      "t": 117338.47499999942,
      "d": 189.01171875,
      "v": 110
    },
    {
      "midi": 75,
      "hit": false,
      "t": 117376.27734375004,
      "d": 180.19117187500524,
      "v": 107
    },
    {
      "midi": 50,
      "hit": false,
      "t": 117459.44249999906,
      "d": 64.26398437499302,
      "v": 75
    },
    {
      "midi": 74,
      "hit": false,
      "t": 117553.94835937505,
      "d": 191.53187500000058,
      "v": 107
    },
    {
      "midi": 50,
      "hit": false,
      "t": 117580.40999999906,
      "d": 64.26398437499302,
      "v": 75
    },
    {
      "midi": 50,
      "hit": false,
      "t": 117701.37749999906,
      "d": 64.26398437499302,
      "v": 75
    },
    {
      "midi": 50,
      "hit": false,
      "t": 117822.34499999906,
      "d": 64.26398437499302,
      "v": 75
    },
    {
      "midi": 38,
      "hit": false,
      "t": 117822.34499999942,
      "d": 189.01171875,
      "v": 110
    },
    {
      "midi": 74,
      "hit": false,
      "t": 117855.10703125005,
      "d": 814.0104687500134,
      "v": 98
    },
    {
      "midi": 50,
      "hit": false,
      "t": 117943.31249999905,
      "d": 64.26398437499302,
      "v": 75
    },
    {
      "midi": 60,
      "hit": false,
      "t": 117943.31250000001,
      "d": 1992.1835156250017,
      "v": 32
    },
    {
      "midi": 57,
      "hit": false,
      "t": 118064.28000000001,
      "d": 1874.9962499999965,
      "v": 32
    },
    {
      "midi": 53,
      "hit": false,
      "t": 118124.76375000001,
      "d": 1754.0287499999977,
      "v": 32
    },
    {
      "midi": 74,
      "hit": false,
      "t": 119273.95500000007,
      "d": 241.93499999999767,
      "v": 110
    },
    {
      "midi": 77,
      "hit": false,
      "t": 119515.89000000007,
      "d": 241.93499999999767,
      "v": 110
    },
    {
      "midi": 79,
      "hit": false,
      "t": 119757.82500000007,
      "d": 241.93499999999767,
      "v": 116
    },
    {
      "midi": 43,
      "hit": false,
      "t": 119999.75999999905,
      "d": 64.26398437499302,
      "v": 75
    },
    {
      "midi": 43,
      "hit": false,
      "t": 119999.75999999941,
      "d": 189.01171875,
      "v": 110
    },
    {
      "midi": 70,
      "hit": false,
      "t": 119999.75999999998,
      "d": 89.46554687499884,
      "v": 96
    },
    {
      "midi": 55,
      "hit": false,
      "t": 119999.76000000001,
      "d": 1794.351250000007,
      "v": 62
    },
    {
      "midi": 79,
      "hit": false,
      "t": 119999.76000000001,
      "d": 1898.9377343750093,
      "v": 62
    },
    {
      "midi": 58,
      "hit": false,
      "t": 119999.76000000001,
      "d": 3840.718125000014,
      "v": 62
    },
    {
      "midi": 62,
      "hit": false,
      "t": 119999.76000000001,
      "d": 5752.256640625012,
      "v": 62
    },
    {
      "midi": 43,
      "hit": false,
      "t": 120120.72749999905,
      "d": 64.26398437499302,
      "v": 75
    },
    {
      "midi": 43,
      "hit": false,
      "t": 120241.69499999905,
      "d": 64.26398437499302,
      "v": 75
    },
    {
      "midi": 69,
      "hit": false,
      "t": 120241.69499999998,
      "d": 86.94539062499825,
      "v": 96
    },
    {
      "midi": 79,
      "hit": false,
      "t": 120253.035703125,
      "d": 244.45515624999825,
      "v": 100
    },
    {
      "midi": 43,
      "hit": false,
      "t": 120362.66249999905,
      "d": 64.26398437499302,
      "v": 75
    },
    {
      "midi": 43,
      "hit": false,
      "t": 120483.62999999904,
      "d": 64.26398437499302,
      "v": 75
    },
    {
      "midi": 43,
      "hit": false,
      "t": 120483.62999999941,
      "d": 189.01171875,
      "v": 110
    },
    {
      "midi": 70,
      "hit": false,
      "t": 120483.62999999998,
      "d": 99.54617187500116,
      "v": 93
    },
    {
      "midi": 43,
      "hit": false,
      "t": 120604.59749999904,
      "d": 64.26398437499302,
      "v": 75
    },
    {
      "midi": 43,
      "hit": false,
      "t": 120725.56499999904,
      "d": 64.26398437499302,
      "v": 75
    },
    {
      "midi": 67,
      "hit": false,
      "t": 120725.56499999997,
      "d": 118.44734374999825,
      "v": 86
    },
    {
      "midi": 79,
      "hit": false,
      "t": 120764.627421875,
      "d": 240.67492187500466,
      "v": 84
    },
    {
      "midi": 43,
      "hit": false,
      "t": 120846.53249999904,
      "d": 64.26398437499302,
      "v": 75
    },
    {
      "midi": 43,
      "hit": false,
      "t": 120846.5324999994,
      "d": 189.01171875,
      "v": 110
    },
    {
      "midi": 43,
      "hit": false,
      "t": 120967.49999999904,
      "d": 64.26398437499302,
      "v": 75
    },
    {
      "midi": 70,
      "hit": false,
      "t": 120967.49999999997,
      "d": 99.54617187500116,
      "v": 90
    },
    {
      "midi": 74,
      "hit": false,
      "t": 120970.02015625006,
      "d": 143.64890625000407,
      "v": 106
    },
    {
      "midi": 43,
      "hit": false,
      "t": 121088.46749999904,
      "d": 64.26398437499302,
      "v": 75
    },
    {
      "midi": 43,
      "hit": false,
      "t": 121209.43499999904,
      "d": 64.26398437499302,
      "v": 75
    },
    {
      "midi": 43,
      "hit": false,
      "t": 121209.4349999994,
      "d": 189.01171875,
      "v": 110
    },
    {
      "midi": 69,
      "hit": false,
      "t": 121209.43499999997,
      "d": 93.24578125000698,
      "v": 89
    },
    {
      "midi": 74,
      "hit": false,
      "t": 121215.73539062506,
      "d": 161.2899999999936,
      "v": 106
    },
    {
      "midi": 79,
      "hit": false,
      "t": 121267.39859375001,
      "d": 236.8946874999965,
      "v": 68
    },
    {
      "midi": 43,
      "hit": false,
      "t": 121330.40249999904,
      "d": 64.26398437499302,
      "v": 75
    },
    {
      "midi": 74,
      "hit": false,
      "t": 121450.10992187506,
      "d": 200.35242187499534,
      "v": 119
    },
    {
      "midi": 43,
      "hit": false,
      "t": 121451.36999999903,
      "d": 64.26398437499302,
      "v": 75
    },
    {
      "midi": 70,
      "hit": false,
      "t": 121451.36999999998,
      "d": 90.7256250000064,
      "v": 105
    },
    {
      "midi": 43,
      "hit": false,
      "t": 121572.33749999903,
      "d": 64.26398437499302,
      "v": 75
    },
    {
      "midi": 77,
      "hit": false,
      "t": 121676.92398437505,
      "d": 461.18859375000466,
      "v": 113
    },
    {
      "midi": 43,
      "hit": false,
      "t": 121693.30499999903,
      "d": 64.26398437499302,
      "v": 75
    },
    {
      "midi": 41,
      "hit": false,
      "t": 121693.3049999994,
      "d": 189.01171875,
      "v": 110
    },
    {
      "midi": 67,
      "hit": false,
      "t": 121693.305,
      "d": 114.66710937500466,
      "v": 89
    },
    {
      "midi": 79,
      "hit": false,
      "t": 121777.730234375,
      "d": 230.59429687500233,
      "v": 51
    },
    {
      "midi": 43,
      "hit": false,
      "t": 121814.27249999903,
      "d": 64.26398437499302,
      "v": 75
    },
    {
      "midi": 82,
      "hit": false,
      "t": 121869.71593750002,
      "d": 1938.0001562499965,
      "v": 62
    },
    {
      "midi": 46,
      "hit": false,
      "t": 121935.23999999903,
      "d": 64.26398437499302,
      "v": 75
    },
    {
      "midi": 34,
      "hit": false,
      "t": 121935.2399999994,
      "d": 189.01171875,
      "v": 110
    },
    {
      "midi": 70,
      "hit": false,
      "t": 121935.23999999999,
      "d": 102.06632812500175,
      "v": 100
    },
    {
      "midi": 53,
      "hit": false,
      "t": 121935.24000000002,
      "d": 5830.381484375001,
      "v": 62
    },
    {
      "midi": 46,
      "hit": false,
      "t": 122056.20749999903,
      "d": 64.26398437499302,
      "v": 75
    },
    {
      "midi": 74,
      "hit": false,
      "t": 122159.53390625006,
      "d": 332.6606250000041,
      "v": 100
    },
    {
      "midi": 46,
      "hit": false,
      "t": 122177.17499999903,
      "d": 64.26398437499302,
      "v": 75
    },
    {
      "midi": 69,
      "hit": false,
      "t": 122177.17499999999,
      "d": 84.42523437499767,
      "v": 86
    },
    {
      "midi": 79,
      "hit": false,
      "t": 122290.58203125001,
      "d": 244.45515624999825,
      "v": 35
    },
    {
      "midi": 46,
      "hit": false,
      "t": 122298.14249999903,
      "d": 64.26398437499302,
      "v": 75
    },
    {
      "midi": 46,
      "hit": false,
      "t": 122419.10999999903,
      "d": 64.26398437499302,
      "v": 75
    },
    {
      "midi": 34,
      "hit": false,
      "t": 122419.10999999939,
      "d": 189.01171875,
      "v": 110
    },
    {
      "midi": 70,
      "hit": false,
      "t": 122419.10999999999,
      "d": 90.7256250000064,
      "v": 100
    },
    {
      "midi": 46,
      "hit": false,
      "t": 122540.07749999902,
      "d": 64.26398437499302,
      "v": 75
    },
    {
      "midi": 46,
      "hit": false,
      "t": 122661.04499999902,
      "d": 64.26398437499302,
      "v": 75
    },
    {
      "midi": 65,
      "hit": false,
      "t": 122661.045,
      "d": 123.48765624999942,
      "v": 96
    },
    {
      "midi": 46,
      "hit": false,
      "t": 122782.01249999902,
      "d": 64.26398437499302,
      "v": 75
    },
    {
      "midi": 34,
      "hit": false,
      "t": 122782.01249999939,
      "d": 189.01171875,
      "v": 110
    },
    {
      "midi": 79,
      "hit": false,
      "t": 122793.353203125,
      "d": 192.7919531249936,
      "v": 19
    },
    {
      "midi": 46,
      "hit": false,
      "t": 122902.97999999902,
      "d": 64.26398437499302,
      "v": 75
    },
    {
      "midi": 70,
      "hit": false,
      "t": 122902.98,
      "d": 95.76593749999302,
      "v": 90
    },
    {
      "midi": 46,
      "hit": false,
      "t": 123023.94749999902,
      "d": 64.26398437499302,
      "v": 75
    },
    {
      "midi": 46,
      "hit": false,
      "t": 123144.91499999902,
      "d": 64.26398437499302,
      "v": 75
    },
    {
      "midi": 36,
      "hit": false,
      "t": 123144.91499999938,
      "d": 189.01171875,
      "v": 110
    },
    {
      "midi": 69,
      "hit": false,
      "t": 123144.915,
      "d": 98.2860937499936,
      "v": 87
    },
    {
      "midi": 46,
      "hit": false,
      "t": 123265.88249999902,
      "d": 64.26398437499302,
      "v": 75
    },
    {
      "midi": 74,
      "hit": false,
      "t": 123380.54960937506,
      "d": 180.19117187500524,
      "v": 106
    },
    {
      "midi": 46,
      "hit": false,
      "t": 123386.84999999902,
      "d": 64.26398437499302,
      "v": 75
    },
    {
      "midi": 70,
      "hit": false,
      "t": 123386.84999999999,
      "d": 105.84656249999534,
      "v": 85
    },
    {
      "midi": 46,
      "hit": false,
      "t": 123507.81749999902,
      "d": 64.26398437499302,
      "v": 75
    },
    {
      "midi": 77,
      "hit": false,
      "t": 123626.26484375006,
      "d": 498.99093749999884,
      "v": 103
    },
    {
      "midi": 46,
      "hit": false,
      "t": 123628.78499999901,
      "d": 64.26398437499302,
      "v": 75
    },
    {
      "midi": 38,
      "hit": false,
      "t": 123628.78499999938,
      "d": 189.01171875,
      "v": 110
    },
    {
      "midi": 65,
      "hit": false,
      "t": 123628.78499999999,
      "d": 126.0078125,
      "v": 86
    },
    {
      "midi": 46,
      "hit": false,
      "t": 123749.75249999901,
      "d": 64.26398437499302,
      "v": 75
    },
    {
      "midi": 74,
      "hit": false,
      "t": 123825.35718750002,
      "d": 1924.1392968750006,
      "v": 62
    },
    {
      "midi": 50,
      "hit": false,
      "t": 123870.71999999901,
      "d": 64.26398437499302,
      "v": 75
    },
    {
      "midi": 38,
      "hit": false,
      "t": 123870.71999999938,
      "d": 189.01171875,
      "v": 110
    },
    {
      "midi": 69,
      "hit": false,
      "t": 123870.71999999999,
      "d": 113.40703124999709,
      "v": 96
    },
    {
      "midi": 57,
      "hit": false,
      "t": 123870.72000000003,
      "d": 3886.0809374999953,
      "v": 62
    },
    {
      "midi": 50,
      "hit": false,
      "t": 123991.68749999901,
      "d": 64.26398437499302,
      "v": 75
    },
    {
      "midi": 50,
      "hit": false,
      "t": 124112.65499999901,
      "d": 64.26398437499302,
      "v": 75
    },
    {
      "midi": 67,
      "hit": false,
      "t": 124112.65499999998,
      "d": 105.84656249999534,
      "v": 87
    },
    {
      "midi": 74,
      "hit": false,
      "t": 124136.59648437506,
      "d": 338.96101562499825,
      "v": 103
    },
    {
      "midi": 50,
      "hit": false,
      "t": 124233.62249999901,
      "d": 64.26398437499302,
      "v": 75
    },
    {
      "midi": 50,
      "hit": false,
      "t": 124354.589999999,
      "d": 64.26398437499302,
      "v": 75
    },
    {
      "midi": 38,
      "hit": false,
      "t": 124354.58999999937,
      "d": 189.01171875,
      "v": 110
    },
    {
      "midi": 69,
      "hit": false,
      "t": 124354.58999999998,
      "d": 88.20546875000582,
      "v": 94
    },
    {
      "midi": 50,
      "hit": false,
      "t": 124475.557499999,
      "d": 64.26398437499302,
      "v": 75
    },
    {
      "midi": 50,
      "hit": false,
      "t": 124596.524999999,
      "d": 64.26398437499302,
      "v": 75
    },
    {
      "midi": 65,
      "hit": false,
      "t": 124596.525,
      "d": 109.62679687500349,
      "v": 94
    },
    {
      "midi": 50,
      "hit": false,
      "t": 124717.492499999,
      "d": 64.26398437499302,
      "v": 75
    },
    {
      "midi": 38,
      "hit": false,
      "t": 124717.49249999937,
      "d": 189.01171875,
      "v": 110
    },
    {
      "midi": 50,
      "hit": false,
      "t": 124838.459999999,
      "d": 64.26398437499302,
      "v": 75
    },
    {
      "midi": 69,
      "hit": false,
      "t": 124838.45999999999,
      "d": 97.02601562500058,
      "v": 92
    },
    {
      "midi": 50,
      "hit": false,
      "t": 124959.427499999,
      "d": 64.26398437499302,
      "v": 75
    },
    {
      "midi": 50,
      "hit": false,
      "t": 125080.394999999,
      "d": 64.26398437499302,
      "v": 75
    },
    {
      "midi": 38,
      "hit": false,
      "t": 125080.39499999936,
      "d": 189.01171875,
      "v": 110
    },
    {
      "midi": 67,
      "hit": false,
      "t": 125080.39499999999,
      "d": 81.90507812499709,
      "v": 90
    },
    {
      "midi": 50,
      "hit": false,
      "t": 125201.362499999,
      "d": 64.26398437499302,
      "v": 75
    },
    {
      "midi": 74,
      "hit": false,
      "t": 125316.02960937505,
      "d": 234.37453124999593,
      "v": 117
    },
    {
      "midi": 50,
      "hit": false,
      "t": 125322.329999999,
      "d": 64.26398437499302,
      "v": 75
    },
    {
      "midi": 69,
      "hit": false,
      "t": 125322.32999999999,
      "d": 88.20546875000582,
      "v": 96
    },
    {
      "midi": 50,
      "hit": false,
      "t": 125443.297499999,
      "d": 64.26398437499302,
      "v": 75
    },
    {
      "midi": 50,
      "hit": false,
      "t": 125564.264999999,
      "d": 64.26398437499302,
      "v": 75
    },
    {
      "midi": 38,
      "hit": false,
      "t": 125564.26499999936,
      "d": 189.01171875,
      "v": 110
    },
    {
      "midi": 65,
      "hit": false,
      "t": 125564.265,
      "d": 103.32640624999476,
      "v": 92
    },
    {
      "midi": 72,
      "hit": false,
      "t": 125576.86578125005,
      "d": 507.81148437500815,
      "v": 100
    },
    {
      "midi": 50,
      "hit": false,
      "t": 125685.232499999,
      "d": 64.26398437499302,
      "v": 75
    },
    {
      "midi": 60,
      "hit": false,
      "t": 125685.23250000003,
      "d": 1992.1835156249872,
      "v": 62
    },
    {
      "midi": 72,
      "hit": false,
      "t": 125758.31703125002,
      "d": 1973.2823437500047,
      "v": 62
    },
    {
      "midi": 48,
      "hit": false,
      "t": 125806.199999999,
      "d": 64.26398437499302,
      "v": 75
    },
    {
      "midi": 41,
      "hit": false,
      "t": 125806.19999999936,
      "d": 189.01171875,
      "v": 110
    },
    {
      "midi": 69,
      "hit": false,
      "t": 125806.2,
      "d": 81.90507812499709,
      "v": 100
    },
    {
      "midi": 48,
      "hit": false,
      "t": 125927.16749999899,
      "d": 64.26398437499302,
      "v": 75
    },
    {
      "midi": 48,
      "hit": false,
      "t": 126048.13499999899,
      "d": 64.26398437499302,
      "v": 75
    },
    {
      "midi": 67,
      "hit": false,
      "t": 126048.135,
      "d": 104.58648437500233,
      "v": 87
    },
    {
      "midi": 48,
      "hit": false,
      "t": 126169.10249999899,
      "d": 64.26398437499302,
      "v": 75
    },
    {
      "midi": 48,
      "hit": false,
      "t": 126290.06999999899,
      "d": 64.26398437499302,
      "v": 75
    },
    {
      "midi": 41,
      "hit": false,
      "t": 126290.06999999935,
      "d": 189.01171875,
      "v": 110
    },
    {
      "midi": 69,
      "hit": false,
      "t": 126290.06999999999,
      "d": 94.505859375,
      "v": 92
    },
    {
      "midi": 48,
      "hit": false,
      "t": 126411.03749999899,
      "d": 64.26398437499302,
      "v": 75
    },
    {
      "midi": 48,
      "hit": false,
      "t": 126532.00499999899,
      "d": 64.26398437499302,
      "v": 75
    },
    {
      "midi": 65,
      "hit": false,
      "t": 126532.00499999999,
      "d": 114.66710937500466,
      "v": 92
    },
    {
      "midi": 48,
      "hit": false,
      "t": 126652.97249999898,
      "d": 64.26398437499302,
      "v": 75
    },
    {
      "midi": 41,
      "hit": false,
      "t": 126652.97249999935,
      "d": 189.01171875,
      "v": 110
    },
    {
      "midi": 48,
      "hit": false,
      "t": 126773.93999999898,
      "d": 64.26398437499302,
      "v": 75
    },
    {
      "midi": 69,
      "hit": false,
      "t": 126773.93999999999,
      "d": 100.80624999999418,
      "v": 92
    },
    {
      "midi": 48,
      "hit": false,
      "t": 126894.90749999898,
      "d": 64.26398437499302,
      "v": 75
    },
    {
      "midi": 48,
      "hit": false,
      "t": 127015.87499999898,
      "d": 64.26398437499302,
      "v": 75
    },
    {
      "midi": 38,
      "hit": false,
      "t": 127015.87499999935,
      "d": 189.01171875,
      "v": 110
    },
    {
      "midi": 67,
      "hit": false,
      "t": 127015.87499999999,
      "d": 97.02601562500058,
      "v": 87
    },
    {
      "midi": 74,
      "hit": false,
      "t": 127015.87500000006,
      "d": 241.93499999999767,
      "v": 107
    },
    {
      "midi": 48,
      "hit": false,
      "t": 127136.84249999898,
      "d": 64.26398437499302,
      "v": 75
    },
    {
      "midi": 48,
      "hit": false,
      "t": 127257.80999999898,
      "d": 64.26398437499302,
      "v": 75
    },
    {
      "midi": 69,
      "hit": false,
      "t": 127257.80999999998,
      "d": 94.505859375,
      "v": 94
    },
    {
      "midi": 77,
      "hit": false,
      "t": 127257.81000000006,
      "d": 241.93499999999767,
      "v": 110
    },
    {
      "midi": 48,
      "hit": false,
      "t": 127378.77749999898,
      "d": 64.26398437499302,
      "v": 75
    },
    {
      "midi": 48,
      "hit": false,
      "t": 127499.74499999898,
      "d": 64.26398437499302,
      "v": 75
    },
    {
      "midi": 41,
      "hit": false,
      "t": 127499.74499999934,
      "d": 189.01171875,
      "v": 110
    },
    {
      "midi": 65,
      "hit": false,
      "t": 127499.74499999998,
      "d": 122.2275781250064,
      "v": 92
    },
    {
      "midi": 79,
      "hit": false,
      "t": 127499.74500000005,
      "d": 241.93499999999767,
      "v": 110
    },
    {
      "midi": 48,
      "hit": false,
      "t": 127620.71249999898,
      "d": 64.26398437499302,
      "v": 75
    },
    {
      "midi": 43,
      "hit": false,
      "t": 127741.67999999897,
      "d": 64.26398437499302,
      "v": 75
    },
    {
      "midi": 43,
      "hit": false,
      "t": 127741.67999999934,
      "d": 189.01171875,
      "v": 110
    },
    {
      "midi": 70,
      "hit": false,
      "t": 127741.68,
      "d": 89.46554687499884,
      "v": 96
    },
    {
      "midi": 55,
      "hit": false,
      "t": 127741.68000000002,
      "d": 1794.3512499999924,
      "v": 62
    },
    {
      "midi": 79,
      "hit": false,
      "t": 127741.68000000002,
      "d": 1898.9377343749948,
      "v": 62
    },
    {
      "midi": 58,
      "hit": false,
      "t": 127741.68000000002,
      "d": 3840.718124999985,
      "v": 62
    },
    {
      "midi": 62,
      "hit": false,
      "t": 127741.68000000002,
      "d": 5752.2566406249825,
      "v": 62
    },
    {
      "midi": 43,
      "hit": false,
      "t": 127862.64749999897,
      "d": 64.26398437499302,
      "v": 75
    },
    {
      "midi": 43,
      "hit": false,
      "t": 127983.61499999897,
      "d": 64.26398437499302,
      "v": 75
    },
    {
      "midi": 69,
      "hit": false,
      "t": 127983.61499999999,
      "d": 86.94539062499825,
      "v": 96
    },
    {
      "midi": 79,
      "hit": false,
      "t": 127994.955703125,
      "d": 244.45515624999825,
      "v": 100
    },
    {
      "midi": 43,
      "hit": false,
      "t": 128104.58249999897,
      "d": 64.26398437499302,
      "v": 75
    },
    {
      "midi": 43,
      "hit": false,
      "t": 128225.54999999897,
      "d": 64.26398437499302,
      "v": 75
    },
    {
      "midi": 43,
      "hit": false,
      "t": 128225.54999999933,
      "d": 189.01171875,
      "v": 110
    },
    {
      "midi": 70,
      "hit": false,
      "t": 128225.54999999999,
      "d": 99.54617187500116,
      "v": 93
    },
    {
      "midi": 43,
      "hit": false,
      "t": 128346.51749999897,
      "d": 64.26398437499302,
      "v": 75
    },
    {
      "midi": 43,
      "hit": false,
      "t": 128467.48499999897,
      "d": 64.26398437499302,
      "v": 75
    },
    {
      "midi": 67,
      "hit": false,
      "t": 128467.48499999999,
      "d": 118.44734374999825,
      "v": 86
    },
    {
      "midi": 79,
      "hit": false,
      "t": 128506.547421875,
      "d": 240.67492187500466,
      "v": 84
    },
    {
      "midi": 43,
      "hit": false,
      "t": 128588.45249999897,
      "d": 64.26398437499302,
      "v": 75
    },
    {
      "midi": 43,
      "hit": false,
      "t": 128588.45249999933,
      "d": 189.01171875,
      "v": 110
    },
    {
      "midi": 43,
      "hit": false,
      "t": 128709.41999999897,
      "d": 64.26398437499302,
      "v": 75
    },
    {
      "midi": 70,
      "hit": false,
      "t": 128709.41999999998,
      "d": 99.54617187500116,
      "v": 90
    },
    {
      "midi": 74,
      "hit": false,
      "t": 128711.94015625004,
      "d": 143.64890625000407,
      "v": 106
    },
    {
      "midi": 43,
      "hit": false,
      "t": 128830.38749999896,
      "d": 64.26398437499302,
      "v": 75
    },
    {
      "midi": 43,
      "hit": false,
      "t": 128951.35499999896,
      "d": 64.26398437499302,
      "v": 75
    },
    {
      "midi": 43,
      "hit": false,
      "t": 128951.35499999933,
      "d": 189.01171875,
      "v": 110
    },
    {
      "midi": 69,
      "hit": false,
      "t": 128951.35499999998,
      "d": 93.24578125000698,
      "v": 89
    },
    {
      "midi": 74,
      "hit": false,
      "t": 128957.65539062505,
      "d": 161.2899999999936,
      "v": 106
    },
    {
      "midi": 79,
      "hit": false,
      "t": 129009.31859375001,
      "d": 236.8946874999965,
      "v": 68
    },
    {
      "midi": 43,
      "hit": false,
      "t": 129072.32249999896,
      "d": 64.26398437499302,
      "v": 75
    },
    {
      "midi": 74,
      "hit": false,
      "t": 129192.02992187504,
      "d": 200.35242187499534,
      "v": 119
    },
    {
      "midi": 43,
      "hit": false,
      "t": 129193.28999999896,
      "d": 64.26398437499302,
      "v": 75
    },
    {
      "midi": 70,
      "hit": false,
      "t": 129193.29,
      "d": 90.7256250000064,
      "v": 105
    },
    {
      "midi": 43,
      "hit": false,
      "t": 129314.25749999896,
      "d": 64.26398437499302,
      "v": 75
    },
    {
      "midi": 77,
      "hit": false,
      "t": 129418.84398437504,
      "d": 461.18859375000466,
      "v": 113
    },
    {
      "midi": 43,
      "hit": false,
      "t": 129435.22499999896,
      "d": 64.26398437499302,
      "v": 75
    },
    {
      "midi": 41,
      "hit": false,
      "t": 129435.22499999932,
      "d": 189.01171875,
      "v": 110
    },
    {
      "midi": 67,
      "hit": false,
      "t": 129435.225,
      "d": 114.66710937500466,
      "v": 89
    },
    {
      "midi": 79,
      "hit": false,
      "t": 129519.650234375,
      "d": 230.59429687500233,
      "v": 51
    },
    {
      "midi": 43,
      "hit": false,
      "t": 129556.19249999896,
      "d": 64.26398437499302,
      "v": 75
    },
    {
      "midi": 82,
      "hit": false,
      "t": 129611.63593750002,
      "d": 1938.0001562499965,
      "v": 62
    },
    {
      "midi": 46,
      "hit": false,
      "t": 129677.15999999896,
      "d": 64.26398437499302,
      "v": 75
    },
    {
      "midi": 34,
      "hit": false,
      "t": 129677.15999999932,
      "d": 189.01171875,
      "v": 110
    },
    {
      "midi": 70,
      "hit": false,
      "t": 129677.16,
      "d": 102.06632812500175,
      "v": 100
    },
    {
      "midi": 53,
      "hit": false,
      "t": 129677.16000000002,
      "d": 5830.381484375001,
      "v": 62
    },
    {
      "midi": 46,
      "hit": false,
      "t": 129798.12749999895,
      "d": 64.26398437499302,
      "v": 75
    },
    {
      "midi": 74,
      "hit": false,
      "t": 129901.45390625004,
      "d": 332.6606250000041,
      "v": 100
    },
    {
      "midi": 46,
      "hit": false,
      "t": 129919.09499999895,
      "d": 64.26398437499302,
      "v": 75
    },
    {
      "midi": 69,
      "hit": false,
      "t": 129919.095,
      "d": 84.42523437499767,
      "v": 86
    },
    {
      "midi": 79,
      "hit": false,
      "t": 130032.50203125001,
      "d": 244.45515624999825,
      "v": 35
    },
    {
      "midi": 46,
      "hit": false,
      "t": 130040.06249999895,
      "d": 64.26398437499302,
      "v": 75
    },
    {
      "midi": 46,
      "hit": false,
      "t": 130161.02999999895,
      "d": 64.26398437499302,
      "v": 75
    },
    {
      "midi": 34,
      "hit": false,
      "t": 130161.02999999931,
      "d": 189.01171875,
      "v": 110
    },
    {
      "midi": 70,
      "hit": false,
      "t": 130161.03,
      "d": 90.7256250000064,
      "v": 100
    },
    {
      "midi": 46,
      "hit": false,
      "t": 130281.99749999895,
      "d": 64.26398437499302,
      "v": 75
    },
    {
      "midi": 46,
      "hit": false,
      "t": 130402.96499999895,
      "d": 64.26398437499302,
      "v": 75
    },
    {
      "midi": 65,
      "hit": false,
      "t": 130402.96500000001,
      "d": 123.48765624999942,
      "v": 96
    },
    {
      "midi": 46,
      "hit": false,
      "t": 130523.93249999895,
      "d": 64.26398437499302,
      "v": 75
    },
    {
      "midi": 34,
      "hit": false,
      "t": 130523.93249999931,
      "d": 189.01171875,
      "v": 110
    },
    {
      "midi": 79,
      "hit": false,
      "t": 130535.273203125,
      "d": 192.7919531249936,
      "v": 19
    },
    {
      "midi": 46,
      "hit": false,
      "t": 130644.89999999895,
      "d": 64.26398437499302,
      "v": 75
    },
    {
      "midi": 70,
      "hit": false,
      "t": 130644.90000000001,
      "d": 95.76593749999302,
      "v": 90
    },
    {
      "midi": 46,
      "hit": false,
      "t": 130765.86749999895,
      "d": 64.26398437499302,
      "v": 75
    },
    {
      "midi": 46,
      "hit": false,
      "t": 130886.83499999894,
      "d": 64.26398437499302,
      "v": 75
    },
    {
      "midi": 36,
      "hit": false,
      "t": 130886.83499999931,
      "d": 189.01171875001455,
      "v": 110
    },
    {
      "midi": 69,
      "hit": false,
      "t": 130886.835,
      "d": 98.2860937499936,
      "v": 87
    },
    {
      "midi": 46,
      "hit": false,
      "t": 131007.80249999894,
      "d": 64.26398437499302,
      "v": 75
    },
    {
      "midi": 74,
      "hit": false,
      "t": 131122.46960937505,
      "d": 180.1911718749907,
      "v": 106
    },
    {
      "midi": 46,
      "hit": false,
      "t": 131128.76999999894,
      "d": 64.26398437499302,
      "v": 75
    },
    {
      "midi": 70,
      "hit": false,
      "t": 131128.77,
      "d": 105.84656249999534,
      "v": 85
    },
    {
      "midi": 46,
      "hit": false,
      "t": 131249.73749999894,
      "d": 64.26398437499302,
      "v": 75
    },
    {
      "midi": 77,
      "hit": false,
      "t": 131368.18484375003,
      "d": 498.99093749999884,
      "v": 103
    },
    {
      "midi": 46,
      "hit": false,
      "t": 131370.70499999894,
      "d": 64.26398437499302,
      "v": 75
    },
    {
      "midi": 38,
      "hit": false,
      "t": 131370.70499999932,
      "d": 189.01171875,
      "v": 110
    },
    {
      "midi": 65,
      "hit": false,
      "t": 131370.705,
      "d": 126.0078125,
      "v": 86
    },
    {
      "midi": 46,
      "hit": false,
      "t": 131491.67249999894,
      "d": 64.26398437499302,
      "v": 75
    },
    {
      "midi": 74,
      "hit": false,
      "t": 131567.2771875,
      "d": 1924.1392968750151,
      "v": 62
    },
    {
      "midi": 50,
      "hit": false,
      "t": 131612.63999999894,
      "d": 64.26398437499302,
      "v": 75
    },
    {
      "midi": 38,
      "hit": false,
      "t": 131612.63999999932,
      "d": 189.01171875,
      "v": 110
    },
    {
      "midi": 69,
      "hit": false,
      "t": 131612.63999999998,
      "d": 113.40703125001164,
      "v": 96
    },
    {
      "midi": 57,
      "hit": false,
      "t": 131612.64,
      "d": 3886.0809374999953,
      "v": 62
    },
    {
      "midi": 50,
      "hit": false,
      "t": 131733.60749999894,
      "d": 64.26398437499302,
      "v": 75
    },
    {
      "midi": 50,
      "hit": false,
      "t": 131854.57499999893,
      "d": 64.26398437499302,
      "v": 75
    },
    {
      "midi": 67,
      "hit": false,
      "t": 131854.57499999998,
      "d": 105.84656249999534,
      "v": 87
    },
    {
      "midi": 74,
      "hit": false,
      "t": 131878.51648437502,
      "d": 338.9610156249837,
      "v": 103
    },
    {
      "midi": 50,
      "hit": false,
      "t": 131975.54249999893,
      "d": 64.26398437499302,
      "v": 75
    },
    {
      "midi": 50,
      "hit": false,
      "t": 132096.50999999893,
      "d": 64.26398437499302,
      "v": 75
    },
    {
      "midi": 38,
      "hit": false,
      "t": 132096.5099999993,
      "d": 189.01171875,
      "v": 110
    },
    {
      "midi": 69,
      "hit": false,
      "t": 132096.50999999998,
      "d": 88.20546875000582,
      "v": 94
    },
    {
      "midi": 50,
      "hit": false,
      "t": 132217.47749999893,
      "d": 64.26398437499302,
      "v": 75
    },
    {
      "midi": 50,
      "hit": false,
      "t": 132338.44499999893,
      "d": 64.26398437499302,
      "v": 75
    },
    {
      "midi": 65,
      "hit": false,
      "t": 132338.44499999998,
      "d": 109.62679687500349,
      "v": 94
    },
    {
      "midi": 50,
      "hit": false,
      "t": 132459.41249999893,
      "d": 64.26398437499302,
      "v": 75
    },
    {
      "midi": 38,
      "hit": false,
      "t": 132459.4124999993,
      "d": 189.01171875,
      "v": 110
    },
    {
      "midi": 50,
      "hit": false,
      "t": 132580.37999999893,
      "d": 64.26398437499302,
      "v": 75
    },
    {
      "midi": 69,
      "hit": false,
      "t": 132580.37999999998,
      "d": 97.02601562498603,
      "v": 92
    },
    {
      "midi": 50,
      "hit": false,
      "t": 132701.34749999893,
      "d": 64.26398437499302,
      "v": 75
    },
    {
      "midi": 50,
      "hit": false,
      "t": 132822.31499999893,
      "d": 64.26398437499302,
      "v": 75
    },
    {
      "midi": 38,
      "hit": false,
      "t": 132822.3149999993,
      "d": 189.01171875,
      "v": 110
    },
    {
      "midi": 67,
      "hit": false,
      "t": 132822.31499999997,
      "d": 81.90507812501164,
      "v": 90
    },
    {
      "midi": 50,
      "hit": false,
      "t": 132943.28249999892,
      "d": 64.26398437499302,
      "v": 75
    },
    {
      "midi": 74,
      "hit": false,
      "t": 133057.949609375,
      "d": 234.37453125001048,
      "v": 117
    },
    {
      "midi": 50,
      "hit": false,
      "t": 133064.24999999892,
      "d": 64.26398437499302,
      "v": 75
    },
    {
      "midi": 69,
      "hit": false,
      "t": 133064.24999999997,
      "d": 88.20546875000582,
      "v": 96
    },
    {
      "midi": 50,
      "hit": false,
      "t": 133185.21749999892,
      "d": 64.26398437499302,
      "v": 75
    },
    {
      "midi": 50,
      "hit": false,
      "t": 133306.18499999892,
      "d": 64.26398437499302,
      "v": 75
    },
    {
      "midi": 38,
      "hit": false,
      "t": 133306.1849999993,
      "d": 189.01171875,
      "v": 110
    },
    {
      "midi": 65,
      "hit": false,
      "t": 133306.18499999997,
      "d": 103.32640625000931,
      "v": 92
    },
    {
      "midi": 72,
      "hit": false,
      "t": 133318.78578125002,
      "d": 507.81148437500815,
      "v": 100
    },
    {
      "midi": 50,
      "hit": false,
      "t": 133427.15249999892,
      "d": 64.26398437499302,
      "v": 75
    },
    {
      "midi": 60,
      "hit": false,
      "t": 133427.15250000003,
      "d": 1992.1835156249872,
      "v": 62
    },
    {
      "midi": 72,
      "hit": false,
      "t": 133500.23703125,
      "d": 1973.2823437500047,
      "v": 62
    },
    {
      "midi": 48,
      "hit": false,
      "t": 133548.11999999892,
      "d": 64.26398437499302,
      "v": 75
    },
    {
      "midi": 41,
      "hit": false,
      "t": 133548.1199999993,
      "d": 189.01171875,
      "v": 110
    },
    {
      "midi": 69,
      "hit": false,
      "t": 133548.11999999997,
      "d": 81.90507812501164,
      "v": 100
    },
    {
      "midi": 48,
      "hit": false,
      "t": 133669.08749999892,
      "d": 64.26398437499302,
      "v": 75
    },
    {
      "midi": 48,
      "hit": false,
      "t": 133790.05499999892,
      "d": 64.26398437499302,
      "v": 75
    },
    {
      "midi": 67,
      "hit": false,
      "t": 133790.05499999996,
      "d": 104.58648437500233,
      "v": 87
    },
    {
      "midi": 48,
      "hit": false,
      "t": 133911.02249999892,
      "d": 64.26398437499302,
      "v": 75
    },
    {
      "midi": 48,
      "hit": false,
      "t": 134031.9899999989,
      "d": 64.26398437499302,
      "v": 75
    },
    {
      "midi": 41,
      "hit": false,
      "t": 134031.9899999993,
      "d": 189.01171875,
      "v": 110
    },
    {
      "midi": 69,
      "hit": false,
      "t": 134031.98999999996,
      "d": 94.505859375,
      "v": 92
    },
    {
      "midi": 48,
      "hit": false,
      "t": 134152.9574999989,
      "d": 64.26398437499302,
      "v": 75
    },
    {
      "midi": 48,
      "hit": false,
      "t": 134273.9249999989,
      "d": 64.26398437499302,
      "v": 75
    },
    {
      "midi": 65,
      "hit": false,
      "t": 134273.92499999996,
      "d": 114.66710937500466,
      "v": 92
    },
    {
      "midi": 48,
      "hit": false,
      "t": 134394.8924999989,
      "d": 64.26398437499302,
      "v": 75
    },
    {
      "midi": 41,
      "hit": false,
      "t": 134394.8924999993,
      "d": 189.01171875,
      "v": 110
    },
    {
      "midi": 48,
      "hit": false,
      "t": 134515.8599999989,
      "d": 64.26398437499302,
      "v": 75
    },
    {
      "midi": 69,
      "hit": false,
      "t": 134515.85999999996,
      "d": 100.80624999999418,
      "v": 92
    },
    {
      "midi": 48,
      "hit": false,
      "t": 134636.8274999989,
      "d": 64.26398437499302,
      "v": 75
    },
    {
      "midi": 48,
      "hit": false,
      "t": 134757.7949999989,
      "d": 64.26398437499302,
      "v": 75
    },
    {
      "midi": 38,
      "hit": false,
      "t": 134757.79499999929,
      "d": 189.01171875,
      "v": 110
    },
    {
      "midi": 67,
      "hit": false,
      "t": 134757.79499999995,
      "d": 97.02601562498603,
      "v": 87
    },
    {
      "midi": 48,
      "hit": false,
      "t": 134878.7624999989,
      "d": 64.26398437499302,
      "v": 75
    },
    {
      "midi": 48,
      "hit": false,
      "t": 134999.7299999989,
      "d": 64.26398437499302,
      "v": 75
    },
    {
      "midi": 69,
      "hit": false,
      "t": 134999.72999999995,
      "d": 94.505859375,
      "v": 94
    },
    {
      "midi": 48,
      "hit": false,
      "t": 135120.6974999989,
      "d": 64.26398437499302,
      "v": 75
    },
    {
      "midi": 48,
      "hit": false,
      "t": 135241.6649999989,
      "d": 64.26398437499302,
      "v": 75
    },
    {
      "midi": 41,
      "hit": false,
      "t": 135241.66499999928,
      "d": 189.01171875,
      "v": 110
    },
    {
      "midi": 65,
      "hit": false,
      "t": 135241.66499999995,
      "d": 122.22757812499185,
      "v": 92
    },
    {
      "midi": 48,
      "hit": false,
      "t": 135362.6324999989,
      "d": 64.26398437499302,
      "v": 75
    },
    {
      "midi": 43,
      "hit": false,
      "t": 135483.5999999989,
      "d": 64.26398437499302,
      "v": 75
    },
    {
      "midi": 43,
      "hit": false,
      "t": 135483.59999999928,
      "d": 189.01171875,
      "v": 110
    },
    {
      "midi": 43,
      "hit": false,
      "t": 135483.59999999995,
      "d": 241.93499999999767,
      "v": 98
    },
    {
      "midi": 55,
      "hit": false,
      "t": 135483.59999999995,
      "d": 241.93499999999767,
      "v": 98
    },
    {
      "midi": 55,
      "hit": false,
      "t": 135483.6,
      "d": 1794.351250000007,
      "v": 64
    },
    {
      "midi": 74,
      "hit": false,
      "t": 135483.6,
      "d": 1874.9962499999965,
      "v": 64
    },
    {
      "midi": 79,
      "hit": false,
      "t": 135483.6,
      "d": 1898.9377343750093,
      "v": 64
    },
    {
      "midi": 58,
      "hit": false,
      "t": 135483.6,
      "d": 3840.718125000014,
      "v": 64
    },
    {
      "midi": 62,
      "hit": false,
      "t": 135483.6,
      "d": 5752.256640625012,
      "v": 64
    },
    {
      "midi": 43,
      "hit": false,
      "t": 135604.5674999989,
      "d": 64.26398437499302,
      "v": 75
    },
    {
      "midi": 43,
      "hit": false,
      "t": 135725.5349999989,
      "d": 64.26398437499302,
      "v": 75
    },
    {
      "midi": 43,
      "hit": false,
      "t": 135846.5024999989,
      "d": 64.26398437499302,
      "v": 75
    },
    {
      "midi": 43,
      "hit": false,
      "t": 135967.4699999989,
      "d": 64.26398437499302,
      "v": 75
    },
    {
      "midi": 43,
      "hit": false,
      "t": 135967.46999999927,
      "d": 189.01171875,
      "v": 110
    },
    {
      "midi": 43,
      "hit": false,
      "t": 135967.46999999994,
      "d": 241.93499999999767,
      "v": 101
    },
    {
      "midi": 55,
      "hit": false,
      "t": 135967.46999999994,
      "d": 241.93499999999767,
      "v": 101
    },
    {
      "midi": 43,
      "hit": false,
      "t": 136088.4374999989,
      "d": 64.26398437499302,
      "v": 75
    },
    {
      "midi": 43,
      "hit": false,
      "t": 136209.4049999989,
      "d": 64.26398437499302,
      "v": 75
    },
    {
      "midi": 43,
      "hit": false,
      "t": 136330.3724999989,
      "d": 64.26398437499302,
      "v": 75
    },
    {
      "midi": 43,
      "hit": false,
      "t": 136330.37249999927,
      "d": 189.01171875,
      "v": 110
    },
    {
      "midi": 74,
      "hit": false,
      "t": 136438.73921875004,
      "d": 255.79585937500815,
      "v": 116
    },
    {
      "midi": 43,
      "hit": false,
      "t": 136451.3399999989,
      "d": 64.26398437499302,
      "v": 75
    },
    {
      "midi": 43,
      "hit": false,
      "t": 136572.3074999989,
      "d": 64.26398437499302,
      "v": 75
    },
    {
      "midi": 77,
      "hit": false,
      "t": 136684.45445312504,
      "d": 225.55398437500116,
      "v": 116
    },
    {
      "midi": 43,
      "hit": false,
      "t": 136693.2749999989,
      "d": 64.26398437499302,
      "v": 75
    },
    {
      "midi": 43,
      "hit": false,
      "t": 136693.27499999927,
      "d": 189.01171875,
      "v": 110
    },
    {
      "midi": 43,
      "hit": false,
      "t": 136814.2424999989,
      "d": 64.26398437499302,
      "v": 75
    },
    {
      "midi": 79,
      "hit": false,
      "t": 136889.84718750004,
      "d": 270.91679687501164,
      "v": 116
    },
    {
      "midi": 43,
      "hit": false,
      "t": 136935.2099999989,
      "d": 64.26398437499302,
      "v": 75
    },
    {
      "midi": 43,
      "hit": false,
      "t": 137056.17749999888,
      "d": 64.26398437499302,
      "v": 75
    },
    {
      "midi": 82,
      "hit": false,
      "t": 137160.76398437505,
      "d": 258.3160156249942,
      "v": 113
    },
    {
      "midi": 43,
      "hit": false,
      "t": 137177.14499999888,
      "d": 64.26398437499302,
      "v": 75
    },
    {
      "midi": 41,
      "hit": false,
      "t": 137177.14499999926,
      "d": 189.01171875,
      "v": 110
    },
    {
      "midi": 43,
      "hit": false,
      "t": 137298.11249999888,
      "d": 64.26398437499302,
      "v": 75
    },
    {
      "midi": 82,
      "hit": false,
      "t": 137353.5559375,
      "d": 1938.0001562500256,
      "v": 64
    },
    {
      "midi": 84,
      "hit": false,
      "t": 137397.65867187505,
      "d": 224.29390625000815,
      "v": 110
    },
    {
      "midi": 46,
      "hit": false,
      "t": 137419.07999999888,
      "d": 64.26398437499302,
      "v": 75
    },
    {
      "midi": 34,
      "hit": false,
      "t": 137419.07999999926,
      "d": 189.01171875,
      "v": 110
    },
    {
      "midi": 77,
      "hit": false,
      "t": 137419.08000000002,
      "d": 1814.5125000000116,
      "v": 64
    },
    {
      "midi": 53,
      "hit": false,
      "t": 137419.08000000002,
      "d": 5830.381484375015,
      "v": 64
    },
    {
      "midi": 46,
      "hit": false,
      "t": 137540.04749999888,
      "d": 64.26398437499302,
      "v": 75
    },
    {
      "midi": 86,
      "hit": false,
      "t": 137653.45453125006,
      "d": 240.67492187500466,
      "v": 110
    },
    {
      "midi": 46,
      "hit": false,
      "t": 137661.01499999888,
      "d": 64.26398437499302,
      "v": 75
    },
    {
      "midi": 46,
      "hit": false,
      "t": 137781.98249999888,
      "d": 64.26398437499302,
      "v": 75
    },
    {
      "midi": 84,
      "hit": false,
      "t": 137880.26859375005,
      "d": 269.6567187500186,
      "v": 110
    },
    {
      "midi": 46,
      "hit": false,
      "t": 137902.94999999888,
      "d": 64.26398437499302,
      "v": 75
    },
    {
      "midi": 34,
      "hit": false,
      "t": 137902.94999999925,
      "d": 189.01171875,
      "v": 110
    },
    {
      "midi": 46,
      "hit": false,
      "t": 138023.91749999888,
      "d": 64.26398437499302,
      "v": 75
    },
    {
      "midi": 46,
      "hit": false,
      "t": 138144.88499999887,
      "d": 64.26398437499302,
      "v": 75
    },
    {
      "midi": 82,
      "hit": false,
      "t": 138163.78617187508,
      "d": 458.6684374999895,
      "v": 110
    },
    {
      "midi": 46,
      "hit": false,
      "t": 138265.85249999887,
      "d": 64.26398437499302,
      "v": 75
    },
    {
      "midi": 34,
      "hit": false,
      "t": 138265.85249999925,
      "d": 189.01171875,
      "v": 110
    },
    {
      "midi": 46,
      "hit": false,
      "t": 138386.81999999887,
      "d": 64.26398437499302,
      "v": 75
    },
    {
      "midi": 46,
      "hit": false,
      "t": 138507.78749999887,
      "d": 64.26398437499302,
      "v": 75
    },
    {
      "midi": 46,
      "hit": false,
      "t": 138628.75499999887,
      "d": 64.26398437499302,
      "v": 75
    },
    {
      "midi": 36,
      "hit": false,
      "t": 138628.75499999925,
      "d": 189.01171875,
      "v": 110
    },
    {
      "midi": 79,
      "hit": false,
      "t": 138638.83562500007,
      "d": 352.8218749999942,
      "v": 110
    },
    {
      "midi": 46,
      "hit": false,
      "t": 138749.72249999887,
      "d": 64.26398437499302,
      "v": 75
    },
    {
      "midi": 46,
      "hit": false,
      "t": 138870.68999999887,
      "d": 64.26398437499302,
      "v": 75
    },
    {
      "midi": 46,
      "hit": false,
      "t": 138991.65749999887,
      "d": 64.26398437499302,
      "v": 75
    },
    {
      "midi": 46,
      "hit": false,
      "t": 139112.62499999886,
      "d": 64.26398437499302,
      "v": 75
    },
    {
      "midi": 38,
      "hit": false,
      "t": 139112.62499999924,
      "d": 189.01171875,
      "v": 110
    },
    {
      "midi": 79,
      "hit": false,
      "t": 139112.62500000006,
      "d": 241.93499999999767,
      "v": 110
    },
    {
      "midi": 46,
      "hit": false,
      "t": 139233.59249999886,
      "d": 64.26398437499302,
      "v": 75
    },
    {
      "midi": 74,
      "hit": false,
      "t": 139309.19718750002,
      "d": 1924.1392968750151,
      "v": 64
    },
    {
      "midi": 84,
      "hit": false,
      "t": 139326.83828125006,
      "d": 216.73343749999185,
      "v": 110
    },
    {
      "midi": 50,
      "hit": false,
      "t": 139354.55999999886,
      "d": 64.26398437499302,
      "v": 75
    },
    {
      "midi": 38,
      "hit": false,
      "t": 139354.55999999924,
      "d": 189.01171875,
      "v": 110
    },
    {
      "midi": 77,
      "hit": false,
      "t": 139354.56000000003,
      "d": 3870.959999999992,
      "v": 64
    },
    {
      "midi": 57,
      "hit": false,
      "t": 139354.56000000003,
      "d": 3886.0809374999953,
      "v": 64
    },
    {
      "midi": 50,
      "hit": false,
      "t": 139475.52749999886,
      "d": 64.26398437499302,
      "v": 75
    },
    {
      "midi": 86,
      "hit": false,
      "t": 139571.29343750005,
      "d": 244.4551562500128,
      "v": 110
    },
    {
      "midi": 50,
      "hit": false,
      "t": 139596.49499999886,
      "d": 64.26398437499302,
      "v": 75
    },
    {
      "midi": 50,
      "hit": false,
      "t": 139717.46249999886,
      "d": 64.26398437499302,
      "v": 75
    },
    {
      "midi": 84,
      "hit": false,
      "t": 139806.92804687505,
      "d": 263.35632812499534,
      "v": 116
    },
    {
      "midi": 50,
      "hit": false,
      "t": 139838.42999999886,
      "d": 64.26398437499302,
      "v": 75
    },
    {
      "midi": 38,
      "hit": false,
      "t": 139838.42999999924,
      "d": 189.01171875,
      "v": 110
    },
    {
      "midi": 50,
      "hit": false,
      "t": 139959.39749999886,
      "d": 64.26398437499302,
      "v": 75
    },
    {
      "midi": 50,
      "hit": false,
      "t": 140080.36499999886,
      "d": 64.26398437499302,
      "v": 75
    },
    {
      "midi": 82,
      "hit": false,
      "t": 140080.36500000005,
      "d": 448.5878124999872,
      "v": 119
    },
    {
      "midi": 50,
      "hit": false,
      "t": 140201.33249999885,
      "d": 64.26398437499302,
      "v": 75
    },
    {
      "midi": 38,
      "hit": false,
      "t": 140201.33249999923,
      "d": 189.01171875,
      "v": 110
    },
    {
      "midi": 50,
      "hit": false,
      "t": 140322.29999999885,
      "d": 64.26398437499302,
      "v": 75
    },
    {
      "midi": 50,
      "hit": false,
      "t": 140443.26749999885,
      "d": 64.26398437499302,
      "v": 75
    },
    {
      "midi": 50,
      "hit": false,
      "t": 140564.23499999885,
      "d": 64.26398437499302,
      "v": 75
    },
    {
      "midi": 38,
      "hit": false,
      "t": 140564.23499999923,
      "d": 189.01171875,
      "v": 110
    },
    {
      "midi": 79,
      "hit": false,
      "t": 140564.23500000004,
      "d": 337.7009374999907,
      "v": 119
    },
    {
      "midi": 50,
      "hit": false,
      "t": 140685.20249999885,
      "d": 64.26398437499302,
      "v": 75
    },
    {
      "midi": 50,
      "hit": false,
      "t": 140806.16999999885,
      "d": 64.26398437499302,
      "v": 75
    },
    {
      "midi": 50,
      "hit": false,
      "t": 140927.13749999885,
      "d": 64.26398437499302,
      "v": 75
    },
    {
      "midi": 50,
      "hit": false,
      "t": 141048.10499999885,
      "d": 64.26398437499302,
      "v": 75
    },
    {
      "midi": 38,
      "hit": false,
      "t": 141048.10499999922,
      "d": 189.01171875,
      "v": 110
    },
    {
      "midi": 50,
      "hit": false,
      "t": 141169.07249999885,
      "d": 64.26398437499302,
      "v": 75
    },
    {
      "midi": 60,
      "hit": false,
      "t": 141169.07250000004,
      "d": 1992.1835156249872,
      "v": 65
    },
    {
      "midi": 72,
      "hit": false,
      "t": 141242.15703125,
      "d": 1973.2823437500047,
      "v": 65
    },
    {
      "midi": 48,
      "hit": false,
      "t": 141290.03999999884,
      "d": 64.26398437499302,
      "v": 75
    },
    {
      "midi": 41,
      "hit": false,
      "t": 141290.03999999922,
      "d": 189.01171875,
      "v": 110
    },
    {
      "midi": 84,
      "hit": false,
      "t": 141300.12062500004,
      "d": 969.0000781250419,
      "v": 122
    },
    {
      "midi": 48,
      "hit": false,
      "t": 141411.00749999884,
      "d": 64.26398437499302,
      "v": 75
    },
    {
      "midi": 48,
      "hit": false,
      "t": 141531.97499999884,
      "d": 64.26398437499302,
      "v": 75
    },
    {
      "midi": 48,
      "hit": false,
      "t": 141652.94249999884,
      "d": 64.26398437499302,
      "v": 75
    },
    {
      "midi": 48,
      "hit": false,
      "t": 141773.90999999884,
      "d": 64.26398437499302,
      "v": 75
    },
    {
      "midi": 41,
      "hit": false,
      "t": 141773.90999999922,
      "d": 189.01171875,
      "v": 110
    },
    {
      "midi": 48,
      "hit": false,
      "t": 141894.87749999884,
      "d": 64.26398437499302,
      "v": 75
    },
    {
      "midi": 48,
      "hit": false,
      "t": 142015.84499999884,
      "d": 64.26398437499302,
      "v": 75
    },
    {
      "midi": 48,
      "hit": false,
      "t": 142136.81249999884,
      "d": 64.26398437499302,
      "v": 75
    },
    {
      "midi": 41,
      "hit": false,
      "t": 142136.8124999992,
      "d": 189.01171875,
      "v": 110
    },
    {
      "midi": 82,
      "hit": false,
      "t": 142255.25984375007,
      "d": 480.0897656250163,
      "v": 113
    },
    {
      "midi": 48,
      "hit": false,
      "t": 142257.77999999883,
      "d": 64.26398437499302,
      "v": 75
    },
    {
      "midi": 48,
      "hit": false,
      "t": 142378.74749999883,
      "d": 64.26398437499302,
      "v": 75
    },
    {
      "midi": 48,
      "hit": false,
      "t": 142499.71499999883,
      "d": 64.26398437499302,
      "v": 75
    },
    {
      "midi": 38,
      "hit": false,
      "t": 142499.7149999992,
      "d": 189.01171875,
      "v": 110
    },
    {
      "midi": 48,
      "hit": false,
      "t": 142620.68249999883,
      "d": 64.26398437499302,
      "v": 75
    },
    {
      "midi": 48,
      "hit": false,
      "t": 142741.64999999883,
      "d": 64.26398437499302,
      "v": 75
    },
    {
      "midi": 48,
      "hit": false,
      "t": 142862.61749999883,
      "d": 64.26398437499302,
      "v": 75
    },
    {
      "midi": 48,
      "hit": false,
      "t": 142983.58499999883,
      "d": 64.26398437499302,
      "v": 75
    },
    {
      "midi": 41,
      "hit": false,
      "t": 142983.5849999992,
      "d": 189.01171875,
      "v": 110
    },
    {
      "midi": 48,
      "hit": false,
      "t": 143104.55249999883,
      "d": 64.26398437499302,
      "v": 75
    },
    {
      "midi": 43,
      "hit": false,
      "t": 143225.51999999883,
      "d": 64.26398437499302,
      "v": 75
    },
    {
      "midi": 43,
      "hit": false,
      "t": 143225.5199999992,
      "d": 189.01171875,
      "v": 110
    },
    {
      "midi": 43,
      "hit": false,
      "t": 143225.51999999993,
      "d": 241.93499999999767,
      "v": 98
    },
    {
      "midi": 55,
      "hit": false,
      "t": 143225.51999999993,
      "d": 241.93499999999767,
      "v": 98
    },
    {
      "midi": 55,
      "hit": false,
      "t": 143225.52000000002,
      "d": 1794.351250000007,
      "v": 64
    },
    {
      "midi": 74,
      "hit": false,
      "t": 143225.52000000002,
      "d": 1874.9962499999965,
      "v": 64
    },
    {
      "midi": 79,
      "hit": false,
      "t": 143225.52000000002,
      "d": 1898.9377343750093,
      "v": 64
    },
    {
      "midi": 58,
      "hit": false,
      "t": 143225.52000000002,
      "d": 3840.718125000014,
      "v": 64
    },
    {
      "midi": 62,
      "hit": false,
      "t": 143225.52000000002,
      "d": 5752.256640625012,
      "v": 64
    },
    {
      "midi": 43,
      "hit": false,
      "t": 143346.48749999882,
      "d": 64.26398437499302,
      "v": 75
    },
    {
      "midi": 43,
      "hit": false,
      "t": 143467.45499999882,
      "d": 64.26398437499302,
      "v": 75
    },
    {
      "midi": 43,
      "hit": false,
      "t": 143588.42249999882,
      "d": 64.26398437499302,
      "v": 75
    },
    {
      "midi": 43,
      "hit": false,
      "t": 143709.38999999882,
      "d": 64.26398437499302,
      "v": 75
    },
    {
      "midi": 43,
      "hit": false,
      "t": 143709.3899999992,
      "d": 189.01171875,
      "v": 110
    },
    {
      "midi": 43,
      "hit": false,
      "t": 143709.38999999993,
      "d": 241.93499999999767,
      "v": 101
    },
    {
      "midi": 55,
      "hit": false,
      "t": 143709.38999999993,
      "d": 241.93499999999767,
      "v": 101
    },
    {
      "midi": 43,
      "hit": false,
      "t": 143830.35749999882,
      "d": 64.26398437499302,
      "v": 75
    },
    {
      "midi": 43,
      "hit": false,
      "t": 143951.32499999882,
      "d": 64.26398437499302,
      "v": 75
    },
    {
      "midi": 43,
      "hit": false,
      "t": 144072.29249999882,
      "d": 64.26398437499302,
      "v": 75
    },
    {
      "midi": 43,
      "hit": false,
      "t": 144072.2924999992,
      "d": 189.01171875,
      "v": 110
    },
    {
      "midi": 74,
      "hit": false,
      "t": 144180.65921875008,
      "d": 255.79585937500815,
      "v": 116
    },
    {
      "midi": 43,
      "hit": false,
      "t": 144193.25999999882,
      "d": 64.26398437499302,
      "v": 75
    },
    {
      "midi": 43,
      "hit": false,
      "t": 144314.22749999881,
      "d": 64.26398437499302,
      "v": 75
    },
    {
      "midi": 77,
      "hit": false,
      "t": 144426.37445312508,
      "d": 225.55398437500116,
      "v": 116
    },
    {
      "midi": 43,
      "hit": false,
      "t": 144435.1949999988,
      "d": 64.26398437499302,
      "v": 75
    },
    {
      "midi": 43,
      "hit": false,
      "t": 144435.1949999992,
      "d": 189.01171875,
      "v": 110
    },
    {
      "midi": 43,
      "hit": false,
      "t": 144556.1624999988,
      "d": 64.26398437499302,
      "v": 75
    },
    {
      "midi": 79,
      "hit": false,
      "t": 144631.76718750008,
      "d": 270.91679687501164,
      "v": 116
    },
    {
      "midi": 43,
      "hit": false,
      "t": 144677.1299999988,
      "d": 64.26398437499302,
      "v": 75
    },
    {
      "midi": 43,
      "hit": false,
      "t": 144798.0974999988,
      "d": 64.26398437499302,
      "v": 75
    },
    {
      "midi": 82,
      "hit": false,
      "t": 144902.6839843751,
      "d": 258.3160156249942,
      "v": 113
    },
    {
      "midi": 43,
      "hit": false,
      "t": 144919.0649999988,
      "d": 64.26398437499302,
      "v": 75
    },
    {
      "midi": 41,
      "hit": false,
      "t": 144919.0649999992,
      "d": 189.01171875,
      "v": 110
    },
    {
      "midi": 43,
      "hit": false,
      "t": 145040.0324999988,
      "d": 64.26398437499302,
      "v": 75
    },
    {
      "midi": 82,
      "hit": false,
      "t": 145095.4759375,
      "d": 1938.0001562500256,
      "v": 64
    },
    {
      "midi": 84,
      "hit": false,
      "t": 145139.5786718751,
      "d": 224.29390625000815,
      "v": 110
    },
    {
      "midi": 46,
      "hit": false,
      "t": 145160.9999999988,
      "d": 64.26398437499302,
      "v": 75
    },
    {
      "midi": 34,
      "hit": false,
      "t": 145160.99999999919,
      "d": 189.01171875,
      "v": 110
    },
    {
      "midi": 77,
      "hit": false,
      "t": 145161.00000000003,
      "d": 1814.5125000000116,
      "v": 64
    },
    {
      "midi": 53,
      "hit": false,
      "t": 145161.00000000003,
      "d": 5830.381484375015,
      "v": 64
    },
    {
      "midi": 46,
      "hit": false,
      "t": 145281.9674999988,
      "d": 64.26398437499302,
      "v": 75
    },
    {
      "midi": 86,
      "hit": false,
      "t": 145395.3745312501,
      "d": 240.67492187500466,
      "v": 110
    },
    {
      "midi": 46,
      "hit": false,
      "t": 145402.9349999988,
      "d": 64.26398437499302,
      "v": 75
    },
    {
      "midi": 46,
      "hit": false,
      "t": 145523.9024999988,
      "d": 64.26398437499302,
      "v": 75
    },
    {
      "midi": 84,
      "hit": false,
      "t": 145622.1885937501,
      "d": 269.6567187500186,
      "v": 110
    },
    {
      "midi": 46,
      "hit": false,
      "t": 145644.8699999988,
      "d": 64.26398437499302,
      "v": 75
    },
    {
      "midi": 34,
      "hit": false,
      "t": 145644.86999999918,
      "d": 189.01171875,
      "v": 110
    },
    {
      "midi": 46,
      "hit": false,
      "t": 145765.8374999988,
      "d": 64.26398437499302,
      "v": 75
    },
    {
      "midi": 46,
      "hit": false,
      "t": 145886.8049999988,
      "d": 64.26398437499302,
      "v": 75
    },
    {
      "midi": 82,
      "hit": false,
      "t": 145905.70617187512,
      "d": 458.6684374999895,
      "v": 110
    },
    {
      "midi": 46,
      "hit": false,
      "t": 146007.7724999988,
      "d": 64.26398437499302,
      "v": 75
    },
    {
      "midi": 34,
      "hit": false,
      "t": 146007.77249999918,
      "d": 189.01171875,
      "v": 110
    },
    {
      "midi": 46,
      "hit": false,
      "t": 146128.7399999988,
      "d": 64.26398437499302,
      "v": 75
    },
    {
      "midi": 46,
      "hit": false,
      "t": 146249.7074999988,
      "d": 64.26398437499302,
      "v": 75
    },
    {
      "midi": 46,
      "hit": false,
      "t": 146370.6749999988,
      "d": 64.26398437499302,
      "v": 75
    },
    {
      "midi": 36,
      "hit": false,
      "t": 146370.67499999917,
      "d": 189.01171875,
      "v": 110
    },
    {
      "midi": 79,
      "hit": false,
      "t": 146380.7556250001,
      "d": 352.8218749999942,
      "v": 110
    },
    {
      "midi": 46,
      "hit": false,
      "t": 146491.6424999988,
      "d": 64.26398437499302,
      "v": 75
    },
    {
      "midi": 46,
      "hit": false,
      "t": 146612.6099999988,
      "d": 64.26398437499302,
      "v": 75
    },
    {
      "midi": 46,
      "hit": false,
      "t": 146733.5774999988,
      "d": 64.26398437499302,
      "v": 75
    },
    {
      "midi": 46,
      "hit": false,
      "t": 146854.5449999988,
      "d": 64.26398437499302,
      "v": 75
    },
    {
      "midi": 38,
      "hit": false,
      "t": 146854.54499999917,
      "d": 189.01171875,
      "v": 110
    },
    {
      "midi": 79,
      "hit": false,
      "t": 146854.5450000001,
      "d": 241.93499999999767,
      "v": 110
    },
    {
      "midi": 46,
      "hit": false,
      "t": 146975.5124999988,
      "d": 64.26398437499302,
      "v": 75
    },
    {
      "midi": 74,
      "hit": false,
      "t": 147051.11718750003,
      "d": 1924.1392968750151,
      "v": 64
    },
    {
      "midi": 84,
      "hit": false,
      "t": 147068.7582812501,
      "d": 216.73343749999185,
      "v": 110
    },
    {
      "midi": 50,
      "hit": false,
      "t": 147096.4799999988,
      "d": 64.26398437499302,
      "v": 75
    },
    {
      "midi": 38,
      "hit": false,
      "t": 147096.47999999917,
      "d": 189.01171875,
      "v": 110
    },
    {
      "midi": 77,
      "hit": false,
      "t": 147096.48000000004,
      "d": 3870.959999999992,
      "v": 64
    },
    {
      "midi": 57,
      "hit": false,
      "t": 147096.48000000004,
      "d": 3886.0809374999953,
      "v": 64
    },
    {
      "midi": 50,
      "hit": false,
      "t": 147217.4474999988,
      "d": 64.26398437499302,
      "v": 75
    },
    {
      "midi": 86,
      "hit": false,
      "t": 147313.2134375001,
      "d": 244.4551562500128,
      "v": 110
    },
    {
      "midi": 50,
      "hit": false,
      "t": 147338.4149999988,
      "d": 64.26398437499302,
      "v": 75
    },
    {
      "midi": 50,
      "hit": false,
      "t": 147459.38249999878,
      "d": 64.26398437499302,
      "v": 75
    },
    {
      "midi": 84,
      "hit": false,
      "t": 147548.8480468751,
      "d": 263.35632812499534,
      "v": 116
    },
    {
      "midi": 50,
      "hit": false,
      "t": 147580.34999999878,
      "d": 64.26398437499302,
      "v": 75
    },
    {
      "midi": 38,
      "hit": false,
      "t": 147580.34999999916,
      "d": 189.01171875,
      "v": 110
    },
    {
      "midi": 50,
      "hit": false,
      "t": 147701.31749999878,
      "d": 64.26398437499302,
      "v": 75
    },
    {
      "midi": 50,
      "hit": false,
      "t": 147822.28499999878,
      "d": 64.26398437499302,
      "v": 75
    },
    {
      "midi": 82,
      "hit": false,
      "t": 147822.2850000001,
      "d": 448.5878124999872,
      "v": 119
    },
    {
      "midi": 50,
      "hit": false,
      "t": 147943.25249999878,
      "d": 64.26398437499302,
      "v": 75
    },
    {
      "midi": 38,
      "hit": false,
      "t": 147943.25249999916,
      "d": 189.01171875,
      "v": 110
    },
    {
      "midi": 50,
      "hit": false,
      "t": 148064.21999999878,
      "d": 64.26398437499302,
      "v": 75
    },
    {
      "midi": 50,
      "hit": false,
      "t": 148185.18749999878,
      "d": 64.26398437499302,
      "v": 75
    },
    {
      "midi": 50,
      "hit": false,
      "t": 148306.15499999878,
      "d": 64.26398437499302,
      "v": 75
    },
    {
      "midi": 38,
      "hit": false,
      "t": 148306.15499999915,
      "d": 189.01171875,
      "v": 110
    },
    {
      "midi": 79,
      "hit": false,
      "t": 148306.1550000001,
      "d": 337.7009374999907,
      "v": 119
    },
    {
      "midi": 50,
      "hit": false,
      "t": 148427.12249999878,
      "d": 64.26398437499302,
      "v": 75
    },
    {
      "midi": 50,
      "hit": false,
      "t": 148548.08999999877,
      "d": 64.26398437499302,
      "v": 75
    },
    {
      "midi": 50,
      "hit": false,
      "t": 148669.05749999877,
      "d": 64.26398437499302,
      "v": 75
    },
    {
      "midi": 50,
      "hit": false,
      "t": 148790.02499999877,
      "d": 64.26398437499302,
      "v": 75
    },
    {
      "midi": 38,
      "hit": false,
      "t": 148790.02499999915,
      "d": 189.01171875,
      "v": 110
    },
    {
      "midi": 50,
      "hit": false,
      "t": 148910.99249999877,
      "d": 64.26398437499302,
      "v": 75
    },
    {
      "midi": 60,
      "hit": false,
      "t": 148910.99250000005,
      "d": 1992.1835156249872,
      "v": 65
    },
    {
      "midi": 72,
      "hit": false,
      "t": 148984.07703125002,
      "d": 1973.2823437500047,
      "v": 65
    },
    {
      "midi": 48,
      "hit": false,
      "t": 149031.95999999877,
      "d": 64.26398437499302,
      "v": 75
    },
    {
      "midi": 41,
      "hit": false,
      "t": 149031.95999999915,
      "d": 189.01171875,
      "v": 110
    },
    {
      "midi": 84,
      "hit": false,
      "t": 149042.04062500008,
      "d": 969.0000781250419,
      "v": 122
    },
    {
      "midi": 48,
      "hit": false,
      "t": 149152.92749999877,
      "d": 64.26398437499302,
      "v": 75
    },
    {
      "midi": 48,
      "hit": false,
      "t": 149273.89499999877,
      "d": 64.26398437499302,
      "v": 75
    },
    {
      "midi": 48,
      "hit": false,
      "t": 149394.86249999877,
      "d": 64.26398437499302,
      "v": 75
    },
    {
      "midi": 48,
      "hit": false,
      "t": 149515.82999999876,
      "d": 64.26398437499302,
      "v": 75
    },
    {
      "midi": 41,
      "hit": false,
      "t": 149515.82999999914,
      "d": 189.01171875,
      "v": 110
    },
    {
      "midi": 48,
      "hit": false,
      "t": 149636.79749999876,
      "d": 64.26398437499302,
      "v": 75
    },
    {
      "midi": 48,
      "hit": false,
      "t": 149757.76499999876,
      "d": 64.26398437499302,
      "v": 75
    },
    {
      "midi": 48,
      "hit": false,
      "t": 149878.73249999876,
      "d": 64.26398437499302,
      "v": 75
    },
    {
      "midi": 41,
      "hit": false,
      "t": 149878.73249999914,
      "d": 189.01171875,
      "v": 110
    },
    {
      "midi": 82,
      "hit": false,
      "t": 149997.1798437501,
      "d": 480.0897656250163,
      "v": 113
    },
    {
      "midi": 48,
      "hit": false,
      "t": 149999.69999999876,
      "d": 64.26398437499302,
      "v": 75
    },
    {
      "midi": 48,
      "hit": false,
      "t": 150120.66749999876,
      "d": 64.26398437499302,
      "v": 75
    },
    {
      "midi": 48,
      "hit": false,
      "t": 150241.63499999876,
      "d": 64.26398437499302,
      "v": 75
    },
    {
      "midi": 38,
      "hit": false,
      "t": 150241.63499999914,
      "d": 189.01171875,
      "v": 110
    },
    {
      "midi": 74,
      "hit": false,
      "t": 150252.975703125,
      "d": 240.67492187500466,
      "v": 117
    },
    {
      "midi": 48,
      "hit": false,
      "t": 150362.60249999876,
      "d": 64.26398437499302,
      "v": 75
    },
    {
      "midi": 48,
      "hit": false,
      "t": 150483.56999999876,
      "d": 64.26398437499302,
      "v": 75
    },
    {
      "midi": 77,
      "hit": false,
      "t": 150493.650625,
      "d": 235.6346093750035,
      "v": 122
    },
    {
      "midi": 48,
      "hit": false,
      "t": 150604.53749999875,
      "d": 64.26398437499302,
      "v": 75
    },
    {
      "midi": 48,
      "hit": false,
      "t": 150725.50499999875,
      "d": 64.26398437499302,
      "v": 75
    },
    {
      "midi": 41,
      "hit": false,
      "t": 150725.50499999913,
      "d": 189.01171875,
      "v": 110
    },
    {
      "midi": 79,
      "hit": false,
      "t": 150748.18640625002,
      "d": 423.3862500000105,
      "v": 100
    },
    {
      "midi": 48,
      "hit": false,
      "t": 150846.47249999875,
      "d": 64.26398437499302,
      "v": 75
    },
    {
      "midi": 43,
      "hit": false,
      "t": 150967.43999999875,
      "d": 64.26398437499302,
      "v": 75
    },
    {
      "midi": 43,
      "hit": false,
      "t": 150967.43999999913,
      "d": 189.01171875,
      "v": 110
    },
    {
      "midi": 79,
      "hit": false,
      "t": 150967.43999999983,
      "d": 241.93499999999767,
      "v": 92
    },
    {
      "midi": 82,
      "hit": false,
      "t": 150967.43999999983,
      "d": 241.93499999999767,
      "v": 92
    },
    {
      "midi": 86,
      "hit": false,
      "t": 150967.43999999983,
      "d": 241.93499999999767,
      "v": 92
    },
    {
      "midi": 55,
      "hit": false,
      "t": 150967.44000000003,
      "d": 1794.351250000007,
      "v": 62
    },
    {
      "midi": 58,
      "hit": false,
      "t": 150967.44000000003,
      "d": 3840.718125000014,
      "v": 62
    },
    {
      "midi": 62,
      "hit": false,
      "t": 150967.44000000003,
      "d": 5752.256640625041,
      "v": 62
    },
    {
      "midi": 43,
      "hit": false,
      "t": 151088.40749999875,
      "d": 64.26398437499302,
      "v": 75
    },
    {
      "midi": 43,
      "hit": false,
      "t": 151209.37499999875,
      "d": 64.26398437499302,
      "v": 75
    },
    {
      "midi": 79,
      "hit": false,
      "t": 151220.715703125,
      "d": 244.4551562500128,
      "v": 100
    },
    {
      "midi": 43,
      "hit": false,
      "t": 151330.34249999875,
      "d": 64.26398437499302,
      "v": 75
    },
    {
      "midi": 43,
      "hit": false,
      "t": 151451.30999999875,
      "d": 64.26398437499302,
      "v": 75
    },
    {
      "midi": 43,
      "hit": false,
      "t": 151451.30999999912,
      "d": 189.01171875,
      "v": 110
    },
    {
      "midi": 82,
      "hit": false,
      "t": 151451.30999999982,
      "d": 210.43304687499767,
      "v": 92
    },
    {
      "midi": 79,
      "hit": false,
      "t": 151451.30999999982,
      "d": 215.47335937499884,
      "v": 92
    },
    {
      "midi": 86,
      "hit": false,
      "t": 151451.30999999982,
      "d": 224.29390625000815,
      "v": 92
    },
    {
      "midi": 43,
      "hit": false,
      "t": 151572.27749999875,
      "d": 64.26398437499302,
      "v": 75
    },
    {
      "midi": 43,
      "hit": false,
      "t": 151693.24499999874,
      "d": 64.26398437499302,
      "v": 75
    },
    {
      "midi": 79,
      "hit": false,
      "t": 151732.307421875,
      "d": 240.67492187500466,
      "v": 84
    },
    {
      "midi": 43,
      "hit": false,
      "t": 151814.21249999874,
      "d": 64.26398437499302,
      "v": 75
    },
    {
      "midi": 43,
      "hit": false,
      "t": 151814.21249999912,
      "d": 189.01171875,
      "v": 110
    },
    {
      "midi": 43,
      "hit": false,
      "t": 151935.17999999874,
      "d": 64.26398437499302,
      "v": 75
    },
    {
      "midi": 79,
      "hit": false,
      "t": 151935.17999999982,
      "d": 241.93499999999767,
      "v": 92
    },
    {
      "midi": 82,
      "hit": false,
      "t": 151935.17999999982,
      "d": 241.93499999999767,
      "v": 92
    },
    {
      "midi": 86,
      "hit": false,
      "t": 151935.17999999982,
      "d": 241.93499999999767,
      "v": 92
    },
    {
      "midi": 43,
      "hit": false,
      "t": 152056.14749999874,
      "d": 64.26398437499302,
      "v": 75
    },
    {
      "midi": 70,
      "hit": false,
      "t": 152124.19171875017,
      "d": 762.3472656250524,
      "v": 100
    },
    {
      "midi": 43,
      "hit": false,
      "t": 152177.11499999874,
      "d": 64.26398437499302,
      "v": 75
    },
    {
      "midi": 43,
      "hit": false,
      "t": 152177.11499999912,
      "d": 189.01171875,
      "v": 110
    },
    {
      "midi": 79,
      "hit": false,
      "t": 152235.07859375002,
      "d": 236.8946874999965,
      "v": 68
    },
    {
      "midi": 43,
      "hit": false,
      "t": 152298.08249999874,
      "d": 64.26398437499302,
      "v": 75
    },
    {
      "midi": 79,
      "hit": false,
      "t": 152298.08249999981,
      "d": 362.9024999999965,
      "v": 92
    },
    {
      "midi": 82,
      "hit": false,
      "t": 152298.08249999981,
      "d": 362.9024999999965,
      "v": 92
    },
    {
      "midi": 86,
      "hit": false,
      "t": 152298.08249999981,
      "d": 362.9024999999965,
      "v": 92
    },
    {
      "midi": 43,
      "hit": false,
      "t": 152419.04999999874,
      "d": 64.26398437499302,
      "v": 75
    },
    {
      "midi": 43,
      "hit": false,
      "t": 152540.01749999874,
      "d": 64.26398437499302,
      "v": 75
    },
    {
      "midi": 43,
      "hit": false,
      "t": 152660.98499999873,
      "d": 64.26398437499302,
      "v": 75
    },
    {
      "midi": 41,
      "hit": false,
      "t": 152660.9849999991,
      "d": 189.01171875,
      "v": 110
    },
    {
      "midi": 79,
      "hit": false,
      "t": 152660.9849999998,
      "d": 241.93499999999767,
      "v": 92
    },
    {
      "midi": 82,
      "hit": false,
      "t": 152660.9849999998,
      "d": 241.93499999999767,
      "v": 92
    },
    {
      "midi": 87,
      "hit": false,
      "t": 152660.9849999998,
      "d": 241.93499999999767,
      "v": 92
    },
    {
      "midi": 79,
      "hit": false,
      "t": 152745.410234375,
      "d": 230.59429687500233,
      "v": 51
    },
    {
      "midi": 43,
      "hit": false,
      "t": 152781.95249999873,
      "d": 64.26398437499302,
      "v": 75
    },
    {
      "midi": 65,
      "hit": false,
      "t": 152896.61960937522,
      "d": 1006.802421875007,
      "v": 77
    },
    {
      "midi": 46,
      "hit": false,
      "t": 152902.91999999873,
      "d": 64.26398437499302,
      "v": 75
    },
    {
      "midi": 34,
      "hit": false,
      "t": 152902.9199999991,
      "d": 189.01171875,
      "v": 110
    },
    {
      "midi": 77,
      "hit": false,
      "t": 152902.9199999998,
      "d": 241.93499999999767,
      "v": 92
    },
    {
      "midi": 82,
      "hit": false,
      "t": 152902.9199999998,
      "d": 241.93499999999767,
      "v": 92
    },
    {
      "midi": 86,
      "hit": false,
      "t": 152902.9199999998,
      "d": 241.93499999999767,
      "v": 92
    },
    {
      "midi": 53,
      "hit": false,
      "t": 152902.92000000004,
      "d": 5830.381484375044,
      "v": 62
    },
    {
      "midi": 46,
      "hit": false,
      "t": 153023.88749999873,
      "d": 64.26398437499302,
      "v": 75
    },
    {
      "midi": 46,
      "hit": false,
      "t": 153144.85499999873,
      "d": 64.26398437499302,
      "v": 75
    },
    {
      "midi": 79,
      "hit": false,
      "t": 153258.26203125002,
      "d": 244.4551562500128,
      "v": 35
    },
    {
      "midi": 46,
      "hit": false,
      "t": 153265.82249999873,
      "d": 64.26398437499302,
      "v": 75
    },
    {
      "midi": 46,
      "hit": false,
      "t": 153386.78999999873,
      "d": 64.26398437499302,
      "v": 75
    },
    {
      "midi": 34,
      "hit": false,
      "t": 153386.7899999991,
      "d": 189.01171875,
      "v": 110
    },
    {
      "midi": 82,
      "hit": false,
      "t": 153386.7899999998,
      "d": 170.11054687498836,
      "v": 92
    },
    {
      "midi": 77,
      "hit": false,
      "t": 153386.7899999998,
      "d": 187.75164062497788,
      "v": 92
    },
    {
      "midi": 86,
      "hit": false,
      "t": 153386.7899999998,
      "d": 196.5721874999872,
      "v": 92
    },
    {
      "midi": 46,
      "hit": false,
      "t": 153507.75749999873,
      "d": 64.26398437499302,
      "v": 75
    },
    {
      "midi": 46,
      "hit": false,
      "t": 153628.72499999873,
      "d": 64.26398437499302,
      "v": 75
    },
    {
      "midi": 46,
      "hit": false,
      "t": 153749.69249999872,
      "d": 64.26398437499302,
      "v": 75
    },
    {
      "midi": 34,
      "hit": false,
      "t": 153749.6924999991,
      "d": 189.01171875,
      "v": 110
    },
    {
      "midi": 79,
      "hit": false,
      "t": 153761.03320312503,
      "d": 192.79195312500815,
      "v": 19
    },
    {
      "midi": 46,
      "hit": false,
      "t": 153870.65999999872,
      "d": 64.26398437499302,
      "v": 75
    },
    {
      "midi": 77,
      "hit": false,
      "t": 153870.6599999998,
      "d": 241.93499999999767,
      "v": 92
    },
    {
      "midi": 82,
      "hit": false,
      "t": 153870.6599999998,
      "d": 241.93499999999767,
      "v": 92
    },
    {
      "midi": 86,
      "hit": false,
      "t": 153870.6599999998,
      "d": 241.93499999999767,
      "v": 92
    },
    {
      "midi": 46,
      "hit": false,
      "t": 153991.62749999872,
      "d": 64.26398437499302,
      "v": 75
    },
    {
      "midi": 65,
      "hit": false,
      "t": 154069.75234375024,
      "d": 60.483749999984866,
      "v": 43
    },
    {
      "midi": 46,
      "hit": false,
      "t": 154112.59499999872,
      "d": 64.26398437499302,
      "v": 75
    },
    {
      "midi": 36,
      "hit": false,
      "t": 154112.5949999991,
      "d": 189.01171875,
      "v": 110
    },
    {
      "midi": 70,
      "hit": false,
      "t": 154116.37523437524,
      "d": 793.8492187499942,
      "v": 106
    },
    {
      "midi": 46,
      "hit": false,
      "t": 154233.56249999872,
      "d": 64.26398437499302,
      "v": 75
    },
    {
      "midi": 77,
      "hit": false,
      "t": 154233.5624999998,
      "d": 362.9024999999965,
      "v": 92
    },
    {
      "midi": 82,
      "hit": false,
      "t": 154233.5624999998,
      "d": 362.9024999999965,
      "v": 92
    },
    {
      "midi": 86,
      "hit": false,
      "t": 154233.5624999998,
      "d": 362.9024999999965,
      "v": 92
    },
    {
      "midi": 46,
      "hit": false,
      "t": 154354.52999999872,
      "d": 64.26398437499302,
      "v": 75
    },
    {
      "midi": 46,
      "hit": false,
      "t": 154475.49749999872,
      "d": 64.26398437499302,
      "v": 75
    },
    {
      "midi": 46,
      "hit": false,
      "t": 154596.46499999872,
      "d": 64.26398437499302,
      "v": 75
    },
    {
      "midi": 38,
      "hit": false,
      "t": 154596.4649999991,
      "d": 189.01171875,
      "v": 110
    },
    {
      "midi": 77,
      "hit": false,
      "t": 154596.4649999998,
      "d": 241.93499999999767,
      "v": 92
    },
    {
      "midi": 82,
      "hit": false,
      "t": 154596.4649999998,
      "d": 241.93499999999767,
      "v": 92
    },
    {
      "midi": 87,
      "hit": false,
      "t": 154596.4649999998,
      "d": 241.93499999999767,
      "v": 92
    },
    {
      "midi": 46,
      "hit": false,
      "t": 154717.43249999871,
      "d": 64.26398437499302,
      "v": 75
    },
    {
      "midi": 50,
      "hit": false,
      "t": 154838.3999999987,
      "d": 64.26398437499302,
      "v": 75
    },
    {
      "midi": 38,
      "hit": false,
      "t": 154838.3999999991,
      "d": 189.01171875,
      "v": 110
    },
    {
      "midi": 77,
      "hit": false,
      "t": 154838.3999999998,
      "d": 241.93499999999767,
      "v": 92
    },
    {
      "midi": 81,
      "hit": false,
      "t": 154838.3999999998,
      "d": 241.93499999999767,
      "v": 92
    },
    {
      "midi": 86,
      "hit": false,
      "t": 154838.3999999998,
      "d": 241.93499999999767,
      "v": 92
    },
    {
      "midi": 57,
      "hit": false,
      "t": 154838.40000000005,
      "d": 3886.0809375000244,
      "v": 62
    },
    {
      "midi": 65,
      "hit": false,
      "t": 154885.02289062523,
      "d": 1239.9168750000536,
      "v": 61
    },
    {
      "midi": 50,
      "hit": false,
      "t": 154959.3674999987,
      "d": 64.26398437499302,
      "v": 75
    },
    {
      "midi": 50,
      "hit": false,
      "t": 155080.3349999987,
      "d": 64.26398437499302,
      "v": 75
    },
    {
      "midi": 50,
      "hit": false,
      "t": 155201.3024999987,
      "d": 64.26398437499302,
      "v": 75
    },
    {
      "midi": 50,
      "hit": false,
      "t": 155322.2699999987,
      "d": 64.26398437499302,
      "v": 75
    },
    {
      "midi": 38,
      "hit": false,
      "t": 155322.2699999991,
      "d": 189.01171875,
      "v": 110
    },
    {
      "midi": 77,
      "hit": false,
      "t": 155322.2699999998,
      "d": 236.8946874999965,
      "v": 92
    },
    {
      "midi": 81,
      "hit": false,
      "t": 155322.2699999998,
      "d": 248.23539062499185,
      "v": 92
    },
    {
      "midi": 86,
      "hit": false,
      "t": 155322.2699999998,
      "d": 269.6567187499895,
      "v": 92
    },
    {
      "midi": 50,
      "hit": false,
      "t": 155443.2374999987,
      "d": 64.26398437499302,
      "v": 75
    },
    {
      "midi": 50,
      "hit": false,
      "t": 155564.2049999987,
      "d": 64.26398437499302,
      "v": 75
    },
    {
      "midi": 50,
      "hit": false,
      "t": 155685.1724999987,
      "d": 64.26398437499302,
      "v": 75
    },
    {
      "midi": 38,
      "hit": false,
      "t": 155685.17249999908,
      "d": 189.01171875,
      "v": 110
    },
    {
      "midi": 50,
      "hit": false,
      "t": 155806.1399999987,
      "d": 64.26398437499302,
      "v": 75
    },
    {
      "midi": 77,
      "hit": false,
      "t": 155806.13999999978,
      "d": 241.93499999999767,
      "v": 92
    },
    {
      "midi": 81,
      "hit": false,
      "t": 155806.13999999978,
      "d": 241.93499999999767,
      "v": 92
    },
    {
      "midi": 86,
      "hit": false,
      "t": 155806.13999999978,
      "d": 241.93499999999767,
      "v": 92
    },
    {
      "midi": 50,
      "hit": false,
      "t": 155927.1074999987,
      "d": 64.26398437499302,
      "v": 75
    },
    {
      "midi": 50,
      "hit": false,
      "t": 156048.0749999987,
      "d": 64.26398437499302,
      "v": 75
    },
    {
      "midi": 38,
      "hit": false,
      "t": 156048.07499999908,
      "d": 189.01171875,
      "v": 110
    },
    {
      "midi": 70,
      "hit": false,
      "t": 156089.65757812528,
      "d": 837.9519531251281,
      "v": 90
    },
    {
      "midi": 50,
      "hit": false,
      "t": 156169.0424999987,
      "d": 64.26398437499302,
      "v": 75
    },
    {
      "midi": 77,
      "hit": false,
      "t": 156169.04249999978,
      "d": 362.9024999999965,
      "v": 92
    },
    {
      "midi": 81,
      "hit": false,
      "t": 156169.04249999978,
      "d": 362.9024999999965,
      "v": 92
    },
    {
      "midi": 86,
      "hit": false,
      "t": 156169.04249999978,
      "d": 362.9024999999965,
      "v": 92
    },
    {
      "midi": 50,
      "hit": false,
      "t": 156290.0099999987,
      "d": 64.26398437499302,
      "v": 75
    },
    {
      "midi": 50,
      "hit": false,
      "t": 156410.9774999987,
      "d": 64.26398437499302,
      "v": 75
    },
    {
      "midi": 50,
      "hit": false,
      "t": 156531.9449999987,
      "d": 64.26398437499302,
      "v": 75
    },
    {
      "midi": 38,
      "hit": false,
      "t": 156531.94499999908,
      "d": 189.01171875,
      "v": 110
    },
    {
      "midi": 77,
      "hit": false,
      "t": 156531.94499999977,
      "d": 241.93499999999767,
      "v": 92
    },
    {
      "midi": 81,
      "hit": false,
      "t": 156531.94499999977,
      "d": 241.93499999999767,
      "v": 92
    },
    {
      "midi": 87,
      "hit": false,
      "t": 156531.94499999977,
      "d": 241.93499999999767,
      "v": 92
    },
    {
      "midi": 50,
      "hit": false,
      "t": 156652.9124999987,
      "d": 64.26398437499302,
      "v": 75
    },
    {
      "midi": 60,
      "hit": false,
      "t": 156652.91250000006,
      "d": 1992.1835156250163,
      "v": 62
    },
    {
      "midi": 48,
      "hit": false,
      "t": 156773.8799999987,
      "d": 64.26398437499302,
      "v": 75
    },
    {
      "midi": 41,
      "hit": false,
      "t": 156773.87999999907,
      "d": 189.01171875,
      "v": 110
    },
    {
      "midi": 77,
      "hit": false,
      "t": 156773.87999999977,
      "d": 241.93499999999767,
      "v": 92
    },
    {
      "midi": 81,
      "hit": false,
      "t": 156773.87999999977,
      "d": 241.93499999999767,
      "v": 92
    },
    {
      "midi": 84,
      "hit": false,
      "t": 156773.87999999977,
      "d": 241.93499999999767,
      "v": 92
    },
    {
      "midi": 48,
      "hit": false,
      "t": 156894.8474999987,
      "d": 64.26398437499302,
      "v": 75
    },
    {
      "midi": 65,
      "hit": false,
      "t": 156940.2103125004,
      "d": 1118.9493749999965,
      "v": 90
    },
    {
      "midi": 48,
      "hit": false,
      "t": 157015.8149999987,
      "d": 64.26398437499302,
      "v": 75
    },
    {
      "midi": 48,
      "hit": false,
      "t": 157136.7824999987,
      "d": 64.26398437499302,
      "v": 75
    },
    {
      "midi": 48,
      "hit": false,
      "t": 157257.7499999987,
      "d": 64.26398437499302,
      "v": 75
    },
    {
      "midi": 41,
      "hit": false,
      "t": 157257.74999999907,
      "d": 189.01171875,
      "v": 110
    },
    {
      "midi": 77,
      "hit": false,
      "t": 157257.74999999977,
      "d": 234.37453125001048,
      "v": 92
    },
    {
      "midi": 84,
      "hit": false,
      "t": 157257.74999999977,
      "d": 245.71523437500582,
      "v": 92
    },
    {
      "midi": 81,
      "hit": false,
      "t": 157257.74999999977,
      "d": 246.97531249999884,
      "v": 92
    },
    {
      "midi": 48,
      "hit": false,
      "t": 157378.7174999987,
      "d": 64.26398437499302,
      "v": 75
    },
    {
      "midi": 48,
      "hit": false,
      "t": 157499.6849999987,
      "d": 64.26398437499302,
      "v": 75
    },
    {
      "midi": 48,
      "hit": false,
      "t": 157620.6524999987,
      "d": 64.26398437499302,
      "v": 75
    },
    {
      "midi": 41,
      "hit": false,
      "t": 157620.65249999907,
      "d": 189.01171875,
      "v": 110
    },
    {
      "midi": 48,
      "hit": false,
      "t": 157741.6199999987,
      "d": 64.26398437499302,
      "v": 75
    },
    {
      "midi": 77,
      "hit": false,
      "t": 157741.61999999976,
      "d": 241.93499999999767,
      "v": 92
    },
    {
      "midi": 81,
      "hit": false,
      "t": 157741.61999999976,
      "d": 241.93499999999767,
      "v": 92
    },
    {
      "midi": 84,
      "hit": false,
      "t": 157741.61999999976,
      "d": 241.93499999999767,
      "v": 92
    },
    {
      "midi": 48,
      "hit": false,
      "t": 157862.58749999868,
      "d": 64.26398437499302,
      "v": 75
    },
    {
      "midi": 48,
      "hit": false,
      "t": 157983.55499999868,
      "d": 64.26398437499302,
      "v": 75
    },
    {
      "midi": 38,
      "hit": false,
      "t": 157983.55499999906,
      "d": 189.01171875,
      "v": 110
    },
    {
      "midi": 74,
      "hit": false,
      "t": 157994.89570312505,
      "d": 240.67492187500466,
      "v": 117
    },
    {
      "midi": 48,
      "hit": false,
      "t": 158104.52249999868,
      "d": 64.26398437499302,
      "v": 75
    },
    {
      "midi": 77,
      "hit": false,
      "t": 158104.52249999976,
      "d": 362.9024999999965,
      "v": 92
    },
    {
      "midi": 81,
      "hit": false,
      "t": 158104.52249999976,
      "d": 362.9024999999965,
      "v": 92
    },
    {
      "midi": 84,
      "hit": false,
      "t": 158104.52249999976,
      "d": 362.9024999999965,
      "v": 92
    },
    {
      "midi": 48,
      "hit": false,
      "t": 158225.48999999868,
      "d": 64.26398437499302,
      "v": 75
    },
    {
      "midi": 77,
      "hit": false,
      "t": 158235.57062500005,
      "d": 235.6346093750035,
      "v": 122
    },
    {
      "midi": 48,
      "hit": false,
      "t": 158346.45749999868,
      "d": 64.26398437499302,
      "v": 75
    },
    {
      "midi": 48,
      "hit": false,
      "t": 158467.42499999868,
      "d": 64.26398437499302,
      "v": 75
    },
    {
      "midi": 41,
      "hit": false,
      "t": 158467.42499999906,
      "d": 189.01171875,
      "v": 110
    },
    {
      "midi": 77,
      "hit": false,
      "t": 158467.42499999976,
      "d": 241.93499999999767,
      "v": 92
    },
    {
      "midi": 81,
      "hit": false,
      "t": 158467.42499999976,
      "d": 241.93499999999767,
      "v": 92
    },
    {
      "midi": 84,
      "hit": false,
      "t": 158467.42499999976,
      "d": 241.93499999999767,
      "v": 92
    },
    {
      "midi": 79,
      "hit": false,
      "t": 158490.10640625007,
      "d": 423.3862500000105,
      "v": 100
    },
    {
      "midi": 48,
      "hit": false,
      "t": 158588.39249999868,
      "d": 64.26398437499302,
      "v": 75
    },
    {
      "midi": 43,
      "hit": false,
      "t": 158709.35999999868,
      "d": 64.26398437499302,
      "v": 75
    },
    {
      "midi": 43,
      "hit": false,
      "t": 158709.35999999905,
      "d": 189.01171875,
      "v": 110
    },
    {
      "midi": 79,
      "hit": false,
      "t": 158709.35999999975,
      "d": 241.93499999999767,
      "v": 92
    },
    {
      "midi": 82,
      "hit": false,
      "t": 158709.35999999975,
      "d": 241.93499999999767,
      "v": 92
    },
    {
      "midi": 86,
      "hit": false,
      "t": 158709.35999999975,
      "d": 241.93499999999767,
      "v": 92
    },
    {
      "midi": 55,
      "hit": false,
      "t": 158709.36000000007,
      "d": 1794.351250000007,
      "v": 62
    },
    {
      "midi": 58,
      "hit": false,
      "t": 158709.36000000007,
      "d": 3840.718125000014,
      "v": 62
    },
    {
      "midi": 62,
      "hit": false,
      "t": 158709.36000000007,
      "d": 5752.256640625041,
      "v": 62
    },
    {
      "midi": 43,
      "hit": false,
      "t": 158830.32749999868,
      "d": 64.26398437499302,
      "v": 75
    },
    {
      "midi": 43,
      "hit": false,
      "t": 158951.29499999867,
      "d": 64.26398437499302,
      "v": 75
    },
    {
      "midi": 79,
      "hit": false,
      "t": 158962.63570312504,
      "d": 244.4551562500128,
      "v": 100
    },
    {
      "midi": 43,
      "hit": false,
      "t": 159072.26249999867,
      "d": 64.26398437499302,
      "v": 75
    },
    {
      "midi": 43,
      "hit": false,
      "t": 159193.22999999867,
      "d": 64.26398437499302,
      "v": 75
    },
    {
      "midi": 43,
      "hit": false,
      "t": 159193.22999999905,
      "d": 189.01171875,
      "v": 110
    },
    {
      "midi": 82,
      "hit": false,
      "t": 159193.22999999975,
      "d": 210.43304687499767,
      "v": 92
    },
    {
      "midi": 79,
      "hit": false,
      "t": 159193.22999999975,
      "d": 215.47335937499884,
      "v": 92
    },
    {
      "midi": 86,
      "hit": false,
      "t": 159193.22999999975,
      "d": 224.29390625000815,
      "v": 92
    },
    {
      "midi": 43,
      "hit": false,
      "t": 159314.19749999867,
      "d": 64.26398437499302,
      "v": 75
    },
    {
      "midi": 43,
      "hit": false,
      "t": 159435.16499999867,
      "d": 64.26398437499302,
      "v": 75
    },
    {
      "midi": 79,
      "hit": false,
      "t": 159474.22742187505,
      "d": 240.67492187500466,
      "v": 84
    },
    {
      "midi": 43,
      "hit": false,
      "t": 159556.13249999867,
      "d": 64.26398437499302,
      "v": 75
    },
    {
      "midi": 43,
      "hit": false,
      "t": 159556.13249999905,
      "d": 189.01171875,
      "v": 110
    },
    {
      "midi": 43,
      "hit": false,
      "t": 159677.09999999867,
      "d": 64.26398437499302,
      "v": 75
    },
    {
      "midi": 79,
      "hit": false,
      "t": 159677.09999999974,
      "d": 241.93499999999767,
      "v": 92
    },
    {
      "midi": 82,
      "hit": false,
      "t": 159677.09999999974,
      "d": 241.93499999999767,
      "v": 92
    },
    {
      "midi": 86,
      "hit": false,
      "t": 159677.09999999974,
      "d": 241.93499999999767,
      "v": 92
    },
    {
      "midi": 43,
      "hit": false,
      "t": 159798.06749999867,
      "d": 64.26398437499302,
      "v": 75
    },
    {
      "midi": 70,
      "hit": false,
      "t": 159866.11171875044,
      "d": 762.3472656250524,
      "v": 100
    },
    {
      "midi": 43,
      "hit": false,
      "t": 159919.03499999866,
      "d": 64.26398437499302,
      "v": 75
    },
    {
      "midi": 43,
      "hit": false,
      "t": 159919.03499999904,
      "d": 189.01171875,
      "v": 110
    },
    {
      "midi": 79,
      "hit": false,
      "t": 159976.99859375006,
      "d": 236.8946874999965,
      "v": 68
    },
    {
      "midi": 43,
      "hit": false,
      "t": 160040.00249999866,
      "d": 64.26398437499302,
      "v": 75
    },
    {
      "midi": 79,
      "hit": false,
      "t": 160040.00249999974,
      "d": 362.9024999999965,
      "v": 92
    },
    {
      "midi": 82,
      "hit": false,
      "t": 160040.00249999974,
      "d": 362.9024999999965,
      "v": 92
    },
    {
      "midi": 86,
      "hit": false,
      "t": 160040.00249999974,
      "d": 362.9024999999965,
      "v": 92
    },
    {
      "midi": 43,
      "hit": false,
      "t": 160160.96999999866,
      "d": 64.26398437499302,
      "v": 75
    },
    {
      "midi": 43,
      "hit": false,
      "t": 160281.93749999866,
      "d": 64.26398437499302,
      "v": 75
    },
    {
      "midi": 43,
      "hit": false,
      "t": 160402.90499999866,
      "d": 64.26398437499302,
      "v": 75
    },
    {
      "midi": 41,
      "hit": false,
      "t": 160402.90499999904,
      "d": 189.01171875,
      "v": 110
    },
    {
      "midi": 79,
      "hit": false,
      "t": 160402.90499999974,
      "d": 241.93499999999767,
      "v": 92
    },
    {
      "midi": 82,
      "hit": false,
      "t": 160402.90499999974,
      "d": 241.93499999999767,
      "v": 92
    },
    {
      "midi": 87,
      "hit": false,
      "t": 160402.90499999974,
      "d": 241.93499999999767,
      "v": 92
    },
    {
      "midi": 79,
      "hit": false,
      "t": 160487.33023437505,
      "d": 230.59429687500233,
      "v": 51
    },
    {
      "midi": 43,
      "hit": false,
      "t": 160523.87249999866,
      "d": 64.26398437499302,
      "v": 75
    },
    {
      "midi": 65,
      "hit": false,
      "t": 160638.5396093755,
      "d": 1006.802421875007,
      "v": 77
    },
    {
      "midi": 46,
      "hit": false,
      "t": 160644.83999999866,
      "d": 64.26398437499302,
      "v": 75
    },
    {
      "midi": 34,
      "hit": false,
      "t": 160644.83999999904,
      "d": 189.01171875,
      "v": 110
    },
    {
      "midi": 77,
      "hit": false,
      "t": 160644.83999999973,
      "d": 241.93499999999767,
      "v": 92
    },
    {
      "midi": 82,
      "hit": false,
      "t": 160644.83999999973,
      "d": 241.93499999999767,
      "v": 92
    },
    {
      "midi": 86,
      "hit": false,
      "t": 160644.83999999973,
      "d": 241.93499999999767,
      "v": 92
    },
    {
      "midi": 53,
      "hit": false,
      "t": 160644.84000000008,
      "d": 5830.381484375044,
      "v": 62
    },
    {
      "midi": 46,
      "hit": false,
      "t": 160765.80749999866,
      "d": 64.26398437499302,
      "v": 75
    },
    {
      "midi": 46,
      "hit": false,
      "t": 160886.77499999866,
      "d": 64.26398437499302,
      "v": 75
    },
    {
      "midi": 79,
      "hit": false,
      "t": 161000.18203125006,
      "d": 244.4551562500128,
      "v": 35
    },
    {
      "midi": 46,
      "hit": false,
      "t": 161007.74249999865,
      "d": 64.26398437499302,
      "v": 75
    },
    {
      "midi": 46,
      "hit": false,
      "t": 161128.70999999865,
      "d": 64.26398437499302,
      "v": 75
    },
    {
      "midi": 34,
      "hit": false,
      "t": 161128.70999999903,
      "d": 189.01171875,
      "v": 110
    },
    {
      "midi": 82,
      "hit": false,
      "t": 161128.70999999973,
      "d": 170.11054687498836,
      "v": 92
    },
    {
      "midi": 77,
      "hit": false,
      "t": 161128.70999999973,
      "d": 187.75164062497788,
      "v": 92
    },
    {
      "midi": 86,
      "hit": false,
      "t": 161128.70999999973,
      "d": 196.5721874999872,
      "v": 92
    },
    {
      "midi": 46,
      "hit": false,
      "t": 161249.67749999865,
      "d": 64.26398437499302,
      "v": 75
    },
    {
      "midi": 46,
      "hit": false,
      "t": 161370.64499999865,
      "d": 64.26398437499302,
      "v": 75
    },
    {
      "midi": 46,
      "hit": false,
      "t": 161491.61249999865,
      "d": 64.26398437499302,
      "v": 75
    },
    {
      "midi": 34,
      "hit": false,
      "t": 161491.61249999903,
      "d": 189.01171875,
      "v": 110
    },
    {
      "midi": 79,
      "hit": false,
      "t": 161502.95320312507,
      "d": 192.79195312500815,
      "v": 19
    },
    {
      "midi": 46,
      "hit": false,
      "t": 161612.57999999865,
      "d": 64.26398437499302,
      "v": 75
    },
    {
      "midi": 77,
      "hit": false,
      "t": 161612.57999999973,
      "d": 241.93499999999767,
      "v": 92
    },
    {
      "midi": 82,
      "hit": false,
      "t": 161612.57999999973,
      "d": 241.93499999999767,
      "v": 92
    },
    {
      "midi": 86,
      "hit": false,
      "t": 161612.57999999973,
      "d": 241.93499999999767,
      "v": 92
    },
    {
      "midi": 46,
      "hit": false,
      "t": 161733.54749999865,
      "d": 64.26398437499302,
      "v": 75
    },
    {
      "midi": 65,
      "hit": false,
      "t": 161811.6723437505,
      "d": 60.483749999984866,
      "v": 43
    },
    {
      "midi": 46,
      "hit": false,
      "t": 161854.51499999865,
      "d": 64.26398437499302,
      "v": 75
    },
    {
      "midi": 36,
      "hit": false,
      "t": 161854.51499999902,
      "d": 189.01171875,
      "v": 110
    },
    {
      "midi": 70,
      "hit": false,
      "t": 161858.29523437552,
      "d": 793.8492187499942,
      "v": 106
    },
    {
      "midi": 46,
      "hit": false,
      "t": 161975.48249999864,
      "d": 64.26398437499302,
      "v": 75
    },
    {
      "midi": 77,
      "hit": false,
      "t": 161975.48249999972,
      "d": 362.9024999999965,
      "v": 92
    },
    {
      "midi": 82,
      "hit": false,
      "t": 161975.48249999972,
      "d": 362.9024999999965,
      "v": 92
    },
    {
      "midi": 86,
      "hit": false,
      "t": 161975.48249999972,
      "d": 362.9024999999965,
      "v": 92
    },
    {
      "midi": 46,
      "hit": false,
      "t": 162096.44999999864,
      "d": 64.26398437499302,
      "v": 75
    },
    {
      "midi": 46,
      "hit": false,
      "t": 162217.41749999864,
      "d": 64.26398437499302,
      "v": 75
    },
    {
      "midi": 46,
      "hit": false,
      "t": 162338.38499999864,
      "d": 64.26398437499302,
      "v": 75
    },
    {
      "midi": 38,
      "hit": false,
      "t": 162338.38499999902,
      "d": 189.01171875,
      "v": 110
    },
    {
      "midi": 77,
      "hit": false,
      "t": 162338.38499999972,
      "d": 241.93499999999767,
      "v": 92
    },
    {
      "midi": 82,
      "hit": false,
      "t": 162338.38499999972,
      "d": 241.93499999999767,
      "v": 92
    },
    {
      "midi": 87,
      "hit": false,
      "t": 162338.38499999972,
      "d": 241.93499999999767,
      "v": 92
    },
    {
      "midi": 46,
      "hit": false,
      "t": 162459.35249999864,
      "d": 64.26398437499302,
      "v": 75
    },
    {
      "midi": 50,
      "hit": false,
      "t": 162580.31999999864,
      "d": 64.26398437499302,
      "v": 75
    },
    {
      "midi": 38,
      "hit": false,
      "t": 162580.31999999902,
      "d": 189.01171875,
      "v": 110
    },
    {
      "midi": 77,
      "hit": false,
      "t": 162580.31999999972,
      "d": 241.93499999999767,
      "v": 92
    },
    {
      "midi": 81,
      "hit": false,
      "t": 162580.31999999972,
      "d": 241.93499999999767,
      "v": 92
    },
    {
      "midi": 86,
      "hit": false,
      "t": 162580.31999999972,
      "d": 241.93499999999767,
      "v": 92
    },
    {
      "midi": 57,
      "hit": false,
      "t": 162580.3200000001,
      "d": 3886.0809375000244,
      "v": 62
    },
    {
      "midi": 65,
      "hit": false,
      "t": 162626.9428906255,
      "d": 1239.9168750000536,
      "v": 61
    },
    {
      "midi": 50,
      "hit": false,
      "t": 162701.28749999864,
      "d": 64.26398437499302,
      "v": 75
    },
    {
      "midi": 50,
      "hit": false,
      "t": 162822.25499999864,
      "d": 64.26398437499302,
      "v": 75
    },
    {
      "midi": 50,
      "hit": false,
      "t": 162943.22249999864,
      "d": 64.26398437499302,
      "v": 75
    },
    {
      "midi": 50,
      "hit": false,
      "t": 163064.18999999863,
      "d": 64.26398437499302,
      "v": 75
    },
    {
      "midi": 38,
      "hit": false,
      "t": 163064.189999999,
      "d": 189.01171875,
      "v": 110
    },
    {
      "midi": 77,
      "hit": false,
      "t": 163064.1899999997,
      "d": 236.8946874999965,
      "v": 92
    },
    {
      "midi": 81,
      "hit": false,
      "t": 163064.1899999997,
      "d": 248.23539062499185,
      "v": 92
    },
    {
      "midi": 86,
      "hit": false,
      "t": 163064.1899999997,
      "d": 269.6567187499895,
      "v": 92
    },
    {
      "midi": 50,
      "hit": false,
      "t": 163185.15749999863,
      "d": 64.26398437499302,
      "v": 75
    },
    {
      "midi": 50,
      "hit": false,
      "t": 163306.12499999863,
      "d": 64.26398437499302,
      "v": 75
    },
    {
      "midi": 50,
      "hit": false,
      "t": 163427.09249999863,
      "d": 64.26398437499302,
      "v": 75
    },
    {
      "midi": 38,
      "hit": false,
      "t": 163427.092499999,
      "d": 189.01171875,
      "v": 110
    },
    {
      "midi": 50,
      "hit": false,
      "t": 163548.05999999863,
      "d": 64.26398437499302,
      "v": 75
    },
    {
      "midi": 77,
      "hit": false,
      "t": 163548.0599999997,
      "d": 241.93499999999767,
      "v": 92
    },
    {
      "midi": 81,
      "hit": false,
      "t": 163548.0599999997,
      "d": 241.93499999999767,
      "v": 92
    },
    {
      "midi": 86,
      "hit": false,
      "t": 163548.0599999997,
      "d": 241.93499999999767,
      "v": 92
    },
    {
      "midi": 50,
      "hit": false,
      "t": 163669.02749999863,
      "d": 64.26398437499302,
      "v": 75
    },
    {
      "midi": 50,
      "hit": false,
      "t": 163789.99499999863,
      "d": 64.26398437499302,
      "v": 75
    },
    {
      "midi": 38,
      "hit": false,
      "t": 163789.994999999,
      "d": 189.01171875,
      "v": 110
    },
    {
      "midi": 70,
      "hit": false,
      "t": 163831.57757812555,
      "d": 837.9519531251281,
      "v": 90
    },
    {
      "midi": 50,
      "hit": false,
      "t": 163910.96249999863,
      "d": 64.26398437499302,
      "v": 75
    },
    {
      "midi": 77,
      "hit": false,
      "t": 163910.9624999997,
      "d": 362.9024999999965,
      "v": 92
    },
    {
      "midi": 81,
      "hit": false,
      "t": 163910.9624999997,
      "d": 362.9024999999965,
      "v": 92
    },
    {
      "midi": 86,
      "hit": false,
      "t": 163910.9624999997,
      "d": 362.9024999999965,
      "v": 92
    },
    {
      "midi": 50,
      "hit": false,
      "t": 164031.92999999863,
      "d": 64.26398437499302,
      "v": 75
    },
    {
      "midi": 50,
      "hit": false,
      "t": 164152.89749999862,
      "d": 64.26398437499302,
      "v": 75
    },
    {
      "midi": 50,
      "hit": false,
      "t": 164273.86499999862,
      "d": 64.26398437499302,
      "v": 75
    },
    {
      "midi": 38,
      "hit": false,
      "t": 164273.864999999,
      "d": 189.01171875,
      "v": 110
    },
    {
      "midi": 77,
      "hit": false,
      "t": 164273.8649999997,
      "d": 241.93499999999767,
      "v": 92
    },
    {
      "midi": 81,
      "hit": false,
      "t": 164273.8649999997,
      "d": 241.93499999999767,
      "v": 92
    },
    {
      "midi": 87,
      "hit": false,
      "t": 164273.8649999997,
      "d": 241.93499999999767,
      "v": 92
    },
    {
      "midi": 50,
      "hit": false,
      "t": 164394.83249999862,
      "d": 64.26398437499302,
      "v": 75
    },
    {
      "midi": 60,
      "hit": false,
      "t": 164394.8325000001,
      "d": 1992.1835156250163,
      "v": 62
    },
    {
      "midi": 48,
      "hit": false,
      "t": 164515.79999999862,
      "d": 64.26398437499302,
      "v": 75
    },
    {
      "midi": 41,
      "hit": false,
      "t": 164515.799999999,
      "d": 189.01171875,
      "v": 110
    },
    {
      "midi": 77,
      "hit": false,
      "t": 164515.7999999997,
      "d": 241.93499999999767,
      "v": 92
    },
    {
      "midi": 81,
      "hit": false,
      "t": 164515.7999999997,
      "d": 241.93499999999767,
      "v": 92
    },
    {
      "midi": 84,
      "hit": false,
      "t": 164515.7999999997,
      "d": 241.93499999999767,
      "v": 92
    },
    {
      "midi": 48,
      "hit": false,
      "t": 164636.76749999862,
      "d": 64.26398437499302,
      "v": 75
    },
    {
      "midi": 65,
      "hit": false,
      "t": 164682.13031250067,
      "d": 1118.9493749999965,
      "v": 90
    },
    {
      "midi": 48,
      "hit": false,
      "t": 164757.73499999862,
      "d": 64.26398437499302,
      "v": 75
    },
    {
      "midi": 48,
      "hit": false,
      "t": 164878.70249999862,
      "d": 64.26398437499302,
      "v": 75
    },
    {
      "midi": 48,
      "hit": false,
      "t": 164999.66999999862,
      "d": 64.26398437499302,
      "v": 75
    },
    {
      "midi": 41,
      "hit": false,
      "t": 164999.669999999,
      "d": 189.01171875,
      "v": 110
    },
    {
      "midi": 77,
      "hit": false,
      "t": 164999.6699999997,
      "d": 234.37453125001048,
      "v": 92
    },
    {
      "midi": 84,
      "hit": false,
      "t": 164999.6699999997,
      "d": 245.71523437500582,
      "v": 92
    },
    {
      "midi": 81,
      "hit": false,
      "t": 164999.6699999997,
      "d": 246.97531249999884,
      "v": 92
    },
    {
      "midi": 48,
      "hit": false,
      "t": 165120.63749999861,
      "d": 64.26398437499302,
      "v": 75
    },
    {
      "midi": 48,
      "hit": false,
      "t": 165241.6049999986,
      "d": 64.26398437499302,
      "v": 75
    },
    {
      "midi": 48,
      "hit": false,
      "t": 165362.5724999986,
      "d": 64.26398437499302,
      "v": 75
    },
    {
      "midi": 41,
      "hit": false,
      "t": 165362.572499999,
      "d": 189.01171875,
      "v": 110
    },
    {
      "midi": 48,
      "hit": false,
      "t": 165483.5399999986,
      "d": 64.26398437499302,
      "v": 75
    },
    {
      "midi": 77,
      "hit": false,
      "t": 165483.5399999997,
      "d": 241.93499999999767,
      "v": 92
    },
    {
      "midi": 81,
      "hit": false,
      "t": 165483.5399999997,
      "d": 241.93499999999767,
      "v": 92
    },
    {
      "midi": 84,
      "hit": false,
      "t": 165483.5399999997,
      "d": 241.93499999999767,
      "v": 92
    },
    {
      "midi": 48,
      "hit": false,
      "t": 165604.5074999986,
      "d": 64.26398437499302,
      "v": 75
    },
    {
      "midi": 48,
      "hit": false,
      "t": 165725.4749999986,
      "d": 64.26398437499302,
      "v": 75
    },
    {
      "midi": 38,
      "hit": false,
      "t": 165725.474999999,
      "d": 189.01171875,
      "v": 110
    },
    {
      "midi": 74,
      "hit": false,
      "t": 165736.8157031251,
      "d": 240.67492187500466,
      "v": 117
    },
    {
      "midi": 48,
      "hit": false,
      "t": 165846.4424999986,
      "d": 64.26398437499302,
      "v": 75
    },
    {
      "midi": 77,
      "hit": false,
      "t": 165846.44249999968,
      "d": 362.9024999999965,
      "v": 92
    },
    {
      "midi": 81,
      "hit": false,
      "t": 165846.44249999968,
      "d": 362.9024999999965,
      "v": 92
    },
    {
      "midi": 84,
      "hit": false,
      "t": 165846.44249999968,
      "d": 362.9024999999965,
      "v": 92
    },
    {
      "midi": 48,
      "hit": false,
      "t": 165967.4099999986,
      "d": 64.26398437499302,
      "v": 75
    },
    {
      "midi": 77,
      "hit": false,
      "t": 165977.4906250001,
      "d": 235.6346093750035,
      "v": 122
    },
    {
      "midi": 48,
      "hit": false,
      "t": 166088.3774999986,
      "d": 64.26398437499302,
      "v": 75
    },
    {
      "midi": 48,
      "hit": false,
      "t": 166209.3449999986,
      "d": 64.26398437499302,
      "v": 75
    },
    {
      "midi": 41,
      "hit": false,
      "t": 166209.34499999898,
      "d": 189.01171875,
      "v": 110
    },
    {
      "midi": 77,
      "hit": false,
      "t": 166209.34499999968,
      "d": 241.93499999999767,
      "v": 92
    },
    {
      "midi": 81,
      "hit": false,
      "t": 166209.34499999968,
      "d": 241.93499999999767,
      "v": 92
    },
    {
      "midi": 84,
      "hit": false,
      "t": 166209.34499999968,
      "d": 241.93499999999767,
      "v": 92
    },
    {
      "midi": 79,
      "hit": false,
      "t": 166232.0264062501,
      "d": 340.2210937499767,
      "v": 119
    },
    {
      "midi": 48,
      "hit": false,
      "t": 166330.3124999986,
      "d": 64.26398437499302,
      "v": 75
    },
    {
      "midi": 55,
      "hit": false,
      "t": 166451.28000000012,
      "d": 1794.351250000007,
      "v": 62
    },
    {
      "midi": 58,
      "hit": false,
      "t": 166451.28000000012,
      "d": 3840.718125000014,
      "v": 62
    },
    {
      "midi": 62,
      "hit": false,
      "t": 166451.28000000012,
      "d": 5752.256640625041,
      "v": 62
    },
    {
      "midi": 79,
      "hit": false,
      "t": 166704.55570312508,
      "d": 244.4551562500128,
      "v": 80
    },
    {
      "midi": 79,
      "hit": false,
      "t": 167216.1474218751,
      "d": 240.67492187500466,
      "v": 66
    },
    {
      "midi": 74,
      "hit": false,
      "t": 167421.5401562501,
      "d": 143.64890624998952,
      "v": 106
    },
    {
      "midi": 75,
      "hit": false,
      "t": 167660.95500000007,
      "d": 161.29000000000815,
      "v": 106
    },
    {
      "midi": 79,
      "hit": false,
      "t": 167718.9185937501,
      "d": 236.8946874999965,
      "v": 54
    },
    {
      "midi": 74,
      "hit": false,
      "t": 167901.62992187508,
      "d": 200.35242187499534,
      "v": 119
    },
    {
      "midi": 77,
      "hit": false,
      "t": 168128.44398437507,
      "d": 461.18859375000466,
      "v": 113
    },
    {
      "midi": 79,
      "hit": false,
      "t": 168229.2502343751,
      "d": 230.59429687500233,
      "v": 40
    },
    {
      "midi": 53,
      "hit": false,
      "t": 168386.76000000013,
      "d": 5830.381484375044,
      "v": 62
    },
    {
      "midi": 74,
      "hit": false,
      "t": 168611.05390625008,
      "d": 332.6606250000186,
      "v": 100
    },
    {
      "midi": 79,
      "hit": false,
      "t": 168742.1020312501,
      "d": 244.4551562500128,
      "v": 27
    },
    {
      "midi": 79,
      "hit": false,
      "t": 169244.8732031251,
      "d": 192.79195312500815,
      "v": 14
    },
    {
      "midi": 74,
      "hit": false,
      "t": 169832.06960937512,
      "d": 180.1911718749907,
      "v": 106
    },
    {
      "midi": 77,
      "hit": false,
      "t": 170077.7848437501,
      "d": 498.99093749999884,
      "v": 103
    },
    {
      "midi": 57,
      "hit": false,
      "t": 170322.24000000014,
      "d": 3886.0809375000244,
      "v": 62
    },
    {
      "midi": 74,
      "hit": false,
      "t": 170588.1164843751,
      "d": 338.9610156249837,
      "v": 103
    },
    {
      "midi": 74,
      "hit": false,
      "t": 171767.54960937507,
      "d": 234.37453125001048,
      "v": 117
    },
    {
      "midi": 72,
      "hit": false,
      "t": 172028.38578125008,
      "d": 507.81148437500815,
      "v": 100
    },
    {
      "midi": 60,
      "hit": false,
      "t": 172136.75250000015,
      "d": 1992.1835156250163,
      "v": 62
    },
    {
      "midi": 43,
      "hit": false,
      "t": 174193.1999999986,
      "d": 64.26398437499302,
      "v": 75
    },
    {
      "midi": 43,
      "hit": false,
      "t": 174193.199999999,
      "d": 189.01171875,
      "v": 110
    },
    {
      "midi": 55,
      "hit": false,
      "t": 174193.20000000016,
      "d": 1794.351250000007,
      "v": 62
    },
    {
      "midi": 58,
      "hit": false,
      "t": 174193.20000000016,
      "d": 3840.718125000014,
      "v": 62
    },
    {
      "midi": 62,
      "hit": false,
      "t": 174193.20000000016,
      "d": 5752.256640625041,
      "v": 62
    },
    {
      "midi": 43,
      "hit": false,
      "t": 174314.16749999858,
      "d": 64.26398437499302,
      "v": 75
    },
    {
      "midi": 43,
      "hit": false,
      "t": 174435.13499999858,
      "d": 64.26398437499302,
      "v": 75
    },
    {
      "midi": 43,
      "hit": false,
      "t": 174556.10249999858,
      "d": 64.26398437499302,
      "v": 75
    },
    {
      "midi": 43,
      "hit": false,
      "t": 174677.06999999858,
      "d": 64.26398437499302,
      "v": 75
    },
    {
      "midi": 43,
      "hit": false,
      "t": 174677.069999999,
      "d": 189.01171875,
      "v": 110
    },
    {
      "midi": 43,
      "hit": false,
      "t": 174798.03749999858,
      "d": 64.26398437499302,
      "v": 75
    },
    {
      "midi": 43,
      "hit": false,
      "t": 174919.00499999858,
      "d": 64.26398437499302,
      "v": 75
    },
    {
      "midi": 43,
      "hit": false,
      "t": 175039.97249999858,
      "d": 64.26398437499302,
      "v": 75
    },
    {
      "midi": 43,
      "hit": false,
      "t": 175039.97249999898,
      "d": 189.01171875,
      "v": 110
    },
    {
      "midi": 43,
      "hit": false,
      "t": 175160.93999999858,
      "d": 64.26398437499302,
      "v": 75
    },
    {
      "midi": 43,
      "hit": false,
      "t": 175281.90749999858,
      "d": 64.26398437499302,
      "v": 75
    },
    {
      "midi": 43,
      "hit": false,
      "t": 175402.87499999857,
      "d": 64.26398437499302,
      "v": 75
    },
    {
      "midi": 43,
      "hit": false,
      "t": 175402.87499999898,
      "d": 189.01171875,
      "v": 110
    },
    {
      "midi": 43,
      "hit": false,
      "t": 175523.84249999857,
      "d": 64.26398437499302,
      "v": 75
    },
    {
      "midi": 43,
      "hit": false,
      "t": 175644.80999999857,
      "d": 64.26398437499302,
      "v": 75
    },
    {
      "midi": 43,
      "hit": false,
      "t": 175765.77749999857,
      "d": 64.26398437499302,
      "v": 75
    },
    {
      "midi": 43,
      "hit": false,
      "t": 175886.74499999857,
      "d": 64.26398437499302,
      "v": 75
    },
    {
      "midi": 41,
      "hit": false,
      "t": 175886.74499999898,
      "d": 189.01171875,
      "v": 110
    },
    {
      "midi": 43,
      "hit": false,
      "t": 176007.71249999857,
      "d": 64.26398437499302,
      "v": 75
    },
    {
      "midi": 46,
      "hit": false,
      "t": 176128.67999999857,
      "d": 64.26398437499302,
      "v": 75
    },
    {
      "midi": 34,
      "hit": false,
      "t": 176128.67999999897,
      "d": 189.01171875,
      "v": 110
    },
    {
      "midi": 53,
      "hit": false,
      "t": 176128.68000000017,
      "d": 5830.381484375044,
      "v": 62
    },
    {
      "midi": 46,
      "hit": false,
      "t": 176249.64749999857,
      "d": 64.26398437499302,
      "v": 75
    },
    {
      "midi": 46,
      "hit": false,
      "t": 176370.61499999856,
      "d": 64.26398437499302,
      "v": 75
    },
    {
      "midi": 46,
      "hit": false,
      "t": 176491.58249999856,
      "d": 64.26398437499302,
      "v": 75
    },
    {
      "midi": 46,
      "hit": false,
      "t": 176612.54999999856,
      "d": 64.26398437499302,
      "v": 75
    },
    {
      "midi": 34,
      "hit": false,
      "t": 176612.54999999897,
      "d": 189.01171875,
      "v": 110
    },
    {
      "midi": 46,
      "hit": false,
      "t": 176733.51749999856,
      "d": 64.26398437499302,
      "v": 75
    },
    {
      "midi": 46,
      "hit": false,
      "t": 176854.48499999856,
      "d": 64.26398437499302,
      "v": 75
    },
    {
      "midi": 46,
      "hit": false,
      "t": 176975.45249999856,
      "d": 64.26398437499302,
      "v": 75
    },
    {
      "midi": 34,
      "hit": false,
      "t": 176975.45249999897,
      "d": 189.01171875,
      "v": 110
    },
    {
      "midi": 46,
      "hit": false,
      "t": 177096.41999999856,
      "d": 64.26398437499302,
      "v": 75
    },
    {
      "midi": 46,
      "hit": false,
      "t": 177217.38749999856,
      "d": 64.26398437499302,
      "v": 75
    },
    {
      "midi": 46,
      "hit": false,
      "t": 177338.35499999856,
      "d": 64.26398437499302,
      "v": 75
    },
    {
      "midi": 36,
      "hit": false,
      "t": 177338.35499999896,
      "d": 189.01171875,
      "v": 110
    },
    {
      "midi": 46,
      "hit": false,
      "t": 177459.32249999855,
      "d": 64.26398437499302,
      "v": 75
    },
    {
      "midi": 46,
      "hit": false,
      "t": 177580.28999999855,
      "d": 64.26398437499302,
      "v": 75
    },
    {
      "midi": 46,
      "hit": false,
      "t": 177701.25749999855,
      "d": 64.26398437499302,
      "v": 75
    },
    {
      "midi": 46,
      "hit": false,
      "t": 177822.22499999855,
      "d": 64.26398437499302,
      "v": 75
    },
    {
      "midi": 38,
      "hit": false,
      "t": 177822.22499999896,
      "d": 189.01171875,
      "v": 110
    },
    {
      "midi": 46,
      "hit": false,
      "t": 177943.19249999855,
      "d": 64.26398437499302,
      "v": 75
    },
    {
      "midi": 50,
      "hit": false,
      "t": 178064.15999999855,
      "d": 64.26398437499302,
      "v": 75
    },
    {
      "midi": 38,
      "hit": false,
      "t": 178064.15999999896,
      "d": 189.01171875,
      "v": 110
    },
    {
      "midi": 57,
      "hit": false,
      "t": 178064.16000000018,
      "d": 3886.0809375000244,
      "v": 62
    },
    {
      "midi": 50,
      "hit": false,
      "t": 178185.12749999855,
      "d": 64.26398437499302,
      "v": 75
    },
    {
      "midi": 50,
      "hit": false,
      "t": 178306.09499999855,
      "d": 64.26398437499302,
      "v": 75
    },
    {
      "midi": 50,
      "hit": false,
      "t": 178427.06249999854,
      "d": 64.26398437499302,
      "v": 75
    },
    {
      "midi": 50,
      "hit": false,
      "t": 178548.02999999854,
      "d": 64.26398437499302,
      "v": 75
    },
    {
      "midi": 38,
      "hit": false,
      "t": 178548.02999999895,
      "d": 189.01171875,
      "v": 110
    },
    {
      "midi": 50,
      "hit": false,
      "t": 178668.99749999854,
      "d": 64.26398437499302,
      "v": 75
    },
    {
      "midi": 50,
      "hit": false,
      "t": 178789.96499999854,
      "d": 64.26398437499302,
      "v": 75
    },
    {
      "midi": 50,
      "hit": false,
      "t": 178910.93249999854,
      "d": 64.26398437499302,
      "v": 75
    },
    {
      "midi": 38,
      "hit": false,
      "t": 178910.93249999895,
      "d": 189.01171875,
      "v": 110
    },
    {
      "midi": 50,
      "hit": false,
      "t": 179031.89999999854,
      "d": 64.26398437499302,
      "v": 75
    },
    {
      "midi": 50,
      "hit": false,
      "t": 179152.86749999854,
      "d": 64.26398437499302,
      "v": 75
    },
    {
      "midi": 50,
      "hit": false,
      "t": 179273.83499999854,
      "d": 64.26398437499302,
      "v": 75
    },
    {
      "midi": 38,
      "hit": false,
      "t": 179273.83499999894,
      "d": 189.01171875,
      "v": 110
    },
    {
      "midi": 50,
      "hit": false,
      "t": 179394.80249999854,
      "d": 64.26398437499302,
      "v": 75
    },
    {
      "midi": 50,
      "hit": false,
      "t": 179515.76999999853,
      "d": 64.26398437499302,
      "v": 75
    },
    {
      "midi": 50,
      "hit": false,
      "t": 179636.73749999853,
      "d": 64.26398437499302,
      "v": 75
    },
    {
      "midi": 50,
      "hit": false,
      "t": 179757.70499999853,
      "d": 64.26398437499302,
      "v": 75
    },
    {
      "midi": 38,
      "hit": false,
      "t": 179757.70499999894,
      "d": 189.01171875,
      "v": 110
    },
    {
      "midi": 50,
      "hit": false,
      "t": 179878.67249999853,
      "d": 64.26398437499302,
      "v": 75
    },
    {
      "midi": 60,
      "hit": false,
      "t": 179878.6725000002,
      "d": 1992.1835156250163,
      "v": 62
    },
    {
      "midi": 48,
      "hit": false,
      "t": 179999.63999999853,
      "d": 64.26398437499302,
      "v": 75
    },
    {
      "midi": 41,
      "hit": false,
      "t": 179999.63999999894,
      "d": 189.01171875,
      "v": 110
    },
    {
      "midi": 48,
      "hit": false,
      "t": 180120.60749999853,
      "d": 64.26398437499302,
      "v": 75
    },
    {
      "midi": 48,
      "hit": false,
      "t": 180241.57499999853,
      "d": 64.26398437499302,
      "v": 75
    },
    {
      "midi": 48,
      "hit": false,
      "t": 180362.54249999853,
      "d": 64.26398437499302,
      "v": 75
    },
    {
      "midi": 48,
      "hit": false,
      "t": 180483.50999999853,
      "d": 64.26398437499302,
      "v": 75
    },
    {
      "midi": 41,
      "hit": false,
      "t": 180483.50999999893,
      "d": 189.01171875,
      "v": 110
    },
    {
      "midi": 48,
      "hit": false,
      "t": 180604.47749999852,
      "d": 64.26398437499302,
      "v": 75
    },
    {
      "midi": 48,
      "hit": false,
      "t": 180725.44499999852,
      "d": 64.26398437499302,
      "v": 75
    },
    {
      "midi": 48,
      "hit": false,
      "t": 180846.41249999852,
      "d": 64.26398437499302,
      "v": 75
    },
    {
      "midi": 41,
      "hit": false,
      "t": 180846.41249999893,
      "d": 189.01171875,
      "v": 110
    },
    {
      "midi": 48,
      "hit": false,
      "t": 180967.37999999852,
      "d": 64.26398437499302,
      "v": 75
    },
    {
      "midi": 48,
      "hit": false,
      "t": 181088.34749999852,
      "d": 64.26398437499302,
      "v": 75
    },
    {
      "midi": 48,
      "hit": false,
      "t": 181209.31499999852,
      "d": 64.26398437499302,
      "v": 75
    },
    {
      "midi": 38,
      "hit": false,
      "t": 181209.31499999893,
      "d": 189.01171875,
      "v": 110
    },
    {
      "midi": 48,
      "hit": false,
      "t": 181330.28249999852,
      "d": 64.26398437499302,
      "v": 75
    },
    {
      "midi": 48,
      "hit": false,
      "t": 181451.24999999852,
      "d": 64.26398437499302,
      "v": 75
    },
    {
      "midi": 48,
      "hit": false,
      "t": 181572.2174999985,
      "d": 64.26398437499302,
      "v": 75
    },
    {
      "midi": 48,
      "hit": false,
      "t": 181693.1849999985,
      "d": 64.26398437499302,
      "v": 75
    },
    {
      "midi": 41,
      "hit": false,
      "t": 181693.18499999892,
      "d": 189.01171875,
      "v": 110
    },
    {
      "midi": 48,
      "hit": false,
      "t": 181814.1524999985,
      "d": 64.26398437499302,
      "v": 75
    },
    {
      "midi": 43,
      "hit": false,
      "t": 181935.1199999985,
      "d": 64.26398437499302,
      "v": 65
    },
    {
      "midi": 43,
      "hit": false,
      "t": 181935.11999999892,
      "d": 223.03382812498603,
      "v": 122
    },
    {
      "midi": 43,
      "hit": false,
      "t": 181935.11999999994,
      "d": 267.1365625000035,
      "v": 92
    },
    {
      "midi": 55,
      "hit": false,
      "t": 181935.11999999994,
      "d": 267.1365625000035,
      "v": 97
    },
    {
      "midi": 43,
      "hit": false,
      "t": 182056.0874999985,
      "d": 64.26398437499302,
      "v": 65
    },
    {
      "midi": 43,
      "hit": false,
      "t": 182177.0549999985,
      "d": 64.26398437499302,
      "v": 65
    },
    {
      "midi": 43,
      "hit": false,
      "t": 182298.0224999985,
      "d": 64.26398437499302,
      "v": 65
    },
    {
      "midi": 43,
      "hit": false,
      "t": 182418.9899999985,
      "d": 64.26398437499302,
      "v": 65
    },
    {
      "midi": 43,
      "hit": false,
      "t": 182418.9899999989,
      "d": 226.81406249999418,
      "v": 117
    },
    {
      "midi": 43,
      "hit": false,
      "t": 182425.29039062493,
      "d": 291.0780468749872,
      "v": 97
    },
    {
      "midi": 55,
      "hit": false,
      "t": 182425.29039062493,
      "d": 308.7191406249767,
      "v": 97
    },
    {
      "midi": 43,
      "hit": false,
      "t": 182539.9574999985,
      "d": 64.26398437499302,
      "v": 65
    },
    {
      "midi": 43,
      "hit": false,
      "t": 182660.9249999985,
      "d": 64.26398437499302,
      "v": 65
    },
    {
      "midi": 43,
      "hit": false,
      "t": 182781.8924999985,
      "d": 64.26398437499302,
      "v": 65
    },
    {
      "midi": 43,
      "hit": false,
      "t": 182781.8924999989,
      "d": 83.16515625000466,
      "v": 103
    },
    {
      "midi": 43,
      "hit": false,
      "t": 182902.8599999985,
      "d": 64.26398437499302,
      "v": 65
    },
    {
      "midi": 43,
      "hit": false,
      "t": 183023.8274999985,
      "d": 64.26398437499302,
      "v": 65
    },
    {
      "midi": 43,
      "hit": false,
      "t": 183144.7949999985,
      "d": 64.26398437499302,
      "v": 65
    },
    {
      "midi": 43,
      "hit": false,
      "t": 183144.7949999989,
      "d": 94.505859375,
      "v": 117
    },
    {
      "midi": 43,
      "hit": false,
      "t": 183265.7624999985,
      "d": 64.26398437499302,
      "v": 65
    },
    {
      "midi": 43,
      "hit": false,
      "t": 183386.7299999985,
      "d": 64.26398437499302,
      "v": 65
    },
    {
      "midi": 43,
      "hit": false,
      "t": 183507.6974999985,
      "d": 64.26398437499302,
      "v": 65
    },
    {
      "midi": 74,
      "hit": false,
      "t": 183605.98359375008,
      "d": 205.3927343749965,
      "v": 95
    },
    {
      "midi": 43,
      "hit": false,
      "t": 183628.6649999985,
      "d": 64.26398437499302,
      "v": 65
    },
    {
      "midi": 43,
      "hit": false,
      "t": 183749.6324999985,
      "d": 64.26398437499302,
      "v": 65
    },
    {
      "midi": 77,
      "hit": false,
      "t": 183855.47906250006,
      "d": 501.51109374998487,
      "v": 95
    },
    {
      "midi": 43,
      "hit": false,
      "t": 183870.5999999985,
      "d": 64.26398437499302,
      "v": 65
    },
    {
      "midi": 43,
      "hit": false,
      "t": 183991.5674999985,
      "d": 64.26398437499302,
      "v": 65
    },
    {
      "midi": 43,
      "hit": false,
      "t": 184112.5349999985,
      "d": 64.26398437499302,
      "v": 65
    },
    {
      "midi": 43,
      "hit": false,
      "t": 184233.5024999985,
      "d": 64.26398437499302,
      "v": 65
    },
    {
      "midi": 43,
      "hit": false,
      "t": 184354.4699999985,
      "d": 64.26398437499302,
      "v": 65
    },
    {
      "midi": 74,
      "hit": false,
      "t": 184389.75218750004,
      "d": 447.3277343749942,
      "v": 95
    },
    {
      "midi": 43,
      "hit": false,
      "t": 184475.4374999985,
      "d": 64.26398437499302,
      "v": 65
    },
    {
      "midi": 43,
      "hit": false,
      "t": 184596.40499999849,
      "d": 64.26398437499302,
      "v": 65
    },
    {
      "midi": 43,
      "hit": false,
      "t": 184717.37249999848,
      "d": 64.26398437499302,
      "v": 65
    },
    {
      "midi": 43,
      "hit": false,
      "t": 184838.33999999848,
      "d": 64.26398437499302,
      "v": 65
    },
    {
      "midi": 43,
      "hit": false,
      "t": 184959.30749999848,
      "d": 64.26398437499302,
      "v": 65
    },
    {
      "midi": 43,
      "hit": false,
      "t": 185080.27499999848,
      "d": 64.26398437499302,
      "v": 65
    },
    {
      "midi": 43,
      "hit": false,
      "t": 185201.24249999848,
      "d": 64.26398437499302,
      "v": 65
    },
    {
      "midi": 43,
      "hit": false,
      "t": 185322.20999999848,
      "d": 64.26398437499302,
      "v": 65
    },
    {
      "midi": 43,
      "hit": false,
      "t": 185443.17749999848,
      "d": 64.26398437499302,
      "v": 65
    },
    {
      "midi": 43,
      "hit": false,
      "t": 185564.14499999848,
      "d": 64.26398437499302,
      "v": 65
    },
    {
      "midi": 43,
      "hit": false,
      "t": 185685.11249999847,
      "d": 64.26398437499302,
      "v": 65
    },
    {
      "midi": 55,
      "hit": false,
      "t": 185799.7796093749,
      "d": 273.4369531250268,
      "v": 97
    },
    {
      "midi": 43,
      "hit": false,
      "t": 185803.5598437499,
      "d": 265.8764843750105,
      "v": 95
    },
    {
      "midi": 43,
      "hit": false,
      "t": 185806.07999999847,
      "d": 64.26398437499302,
      "v": 65
    },
    {
      "midi": 43,
      "hit": false,
      "t": 185806.0799999989,
      "d": 233.11445312498836,
      "v": 117
    },
    {
      "midi": 43,
      "hit": false,
      "t": 185927.04749999847,
      "d": 64.26398437499302,
      "v": 65
    },
    {
      "midi": 43,
      "hit": false,
      "t": 186048.01499999847,
      "d": 64.26398437499302,
      "v": 65
    },
    {
      "midi": 43,
      "hit": false,
      "t": 186168.98249999847,
      "d": 64.26398437499302,
      "v": 65
    },
    {
      "midi": 43,
      "hit": false,
      "t": 186289.94999999847,
      "d": 64.26398437499302,
      "v": 65
    },
    {
      "midi": 43,
      "hit": false,
      "t": 186289.9499999989,
      "d": 207.91289062501164,
      "v": 117
    },
    {
      "midi": 55,
      "hit": false,
      "t": 186302.55078124994,
      "d": 294.85828125002445,
      "v": 97
    },
    {
      "midi": 43,
      "hit": false,
      "t": 186306.33101562495,
      "d": 282.257500000007,
      "v": 106
    },
    {
      "midi": 43,
      "hit": false,
      "t": 186410.91749999847,
      "d": 64.26398437499302,
      "v": 65
    },
    {
      "midi": 43,
      "hit": false,
      "t": 186531.88499999847,
      "d": 64.26398437499302,
      "v": 65
    },
    {
      "midi": 43,
      "hit": false,
      "t": 186652.85249999847,
      "d": 64.26398437499302,
      "v": 65
    },
    {
      "midi": 43,
      "hit": false,
      "t": 186652.85249999893,
      "d": 75.60468749998836,
      "v": 117
    },
    {
      "midi": 43,
      "hit": false,
      "t": 186773.81999999846,
      "d": 64.26398437499302,
      "v": 65
    },
    {
      "midi": 43,
      "hit": false,
      "t": 186894.78749999846,
      "d": 64.26398437499302,
      "v": 65
    },
    {
      "midi": 43,
      "hit": false,
      "t": 187015.75499999846,
      "d": 64.26398437499302,
      "v": 65
    },
    {
      "midi": 43,
      "hit": false,
      "t": 187015.75499999893,
      "d": 109.62679687500349,
      "v": 109
    },
    {
      "midi": 43,
      "hit": false,
      "t": 187136.72249999846,
      "d": 64.26398437499302,
      "v": 65
    },
    {
      "midi": 43,
      "hit": false,
      "t": 187257.68999999846,
      "d": 64.26398437499302,
      "v": 65
    },
    {
      "midi": 43,
      "hit": false,
      "t": 187378.65749999846,
      "d": 64.26398437499302,
      "v": 65
    },
    {
      "midi": 74,
      "hit": false,
      "t": 187489.54437500003,
      "d": 231.85437499999534,
      "v": 103
    },
    {
      "midi": 43,
      "hit": false,
      "t": 187499.62499999846,
      "d": 64.26398437499302,
      "v": 65
    },
    {
      "midi": 43,
      "hit": false,
      "t": 187620.59249999846,
      "d": 64.26398437499302,
      "v": 65
    },
    {
      "midi": 77,
      "hit": false,
      "t": 187716.35843750002,
      "d": 495.2107031249907,
      "v": 92
    },
    {
      "midi": 43,
      "hit": false,
      "t": 187741.55999999846,
      "d": 64.26398437499302,
      "v": 65
    },
    {
      "midi": 43,
      "hit": false,
      "t": 187862.52749999845,
      "d": 64.26398437499302,
      "v": 65
    },
    {
      "midi": 43,
      "hit": false,
      "t": 187983.49499999845,
      "d": 64.26398437499302,
      "v": 65
    },
    {
      "midi": 43,
      "hit": false,
      "t": 188104.46249999845,
      "d": 64.26398437499302,
      "v": 65
    },
    {
      "midi": 74,
      "hit": false,
      "t": 188222.90984375,
      "d": 476.30953124997905,
      "v": 95
    },
    {
      "midi": 43,
      "hit": false,
      "t": 188225.42999999845,
      "d": 64.26398437499302,
      "v": 65
    },
    {
      "midi": 43,
      "hit": false,
      "t": 188346.39749999845,
      "d": 64.26398437499302,
      "v": 65
    },
    {
      "midi": 43,
      "hit": false,
      "t": 188467.36499999845,
      "d": 64.26398437499302,
      "v": 65
    },
    {
      "midi": 43,
      "hit": false,
      "t": 188588.33249999845,
      "d": 64.26398437499302,
      "v": 65
    },
    {
      "midi": 43,
      "hit": false,
      "t": 188709.29999999845,
      "d": 64.26398437499302,
      "v": 65
    },
    {
      "midi": 43,
      "hit": false,
      "t": 188830.26749999844,
      "d": 64.26398437499302,
      "v": 65
    },
    {
      "midi": 43,
      "hit": false,
      "t": 188951.23499999844,
      "d": 64.26398437499302,
      "v": 65
    },
    {
      "midi": 43,
      "hit": false,
      "t": 189072.20249999844,
      "d": 64.26398437499302,
      "v": 65
    },
    {
      "midi": 43,
      "hit": false,
      "t": 189193.16999999844,
      "d": 64.26398437499302,
      "v": 65
    },
    {
      "midi": 43,
      "hit": false,
      "t": 189314.13749999844,
      "d": 64.26398437499302,
      "v": 65
    },
    {
      "midi": 43,
      "hit": false,
      "t": 189435.10499999844,
      "d": 64.26398437499302,
      "v": 65
    },
    {
      "midi": 43,
      "hit": false,
      "t": 189556.07249999844,
      "d": 64.26398437499302,
      "v": 65
    },
    {
      "midi": 43,
      "hit": false,
      "t": 189677.03999999844,
      "d": 64.26398437499302,
      "v": 75
    },
    {
      "midi": 43,
      "hit": false,
      "t": 189677.03999999893,
      "d": 189.01171875,
      "v": 110
    },
    {
      "midi": 70,
      "hit": false,
      "t": 189677.03999999998,
      "d": 89.46554687499884,
      "v": 96
    },
    {
      "midi": 55,
      "hit": false,
      "t": 189677.0400000002,
      "d": 1794.351250000007,
      "v": 62
    },
    {
      "midi": 58,
      "hit": false,
      "t": 189677.0400000002,
      "d": 3840.718125000014,
      "v": 62
    },
    {
      "midi": 62,
      "hit": false,
      "t": 189677.0400000002,
      "d": 5752.256640625041,
      "v": 62
    },
    {
      "midi": 43,
      "hit": false,
      "t": 189798.00749999844,
      "d": 64.26398437499302,
      "v": 75
    },
    {
      "midi": 43,
      "hit": false,
      "t": 189918.97499999843,
      "d": 64.26398437499302,
      "v": 75
    },
    {
      "midi": 69,
      "hit": false,
      "t": 189918.97499999998,
      "d": 86.9453906250128,
      "v": 96
    },
    {
      "midi": 43,
      "hit": false,
      "t": 190039.94249999843,
      "d": 64.26398437499302,
      "v": 75
    },
    {
      "midi": 43,
      "hit": false,
      "t": 190160.90999999843,
      "d": 64.26398437499302,
      "v": 75
    },
    {
      "midi": 43,
      "hit": false,
      "t": 190160.90999999893,
      "d": 189.01171875,
      "v": 110
    },
    {
      "midi": 70,
      "hit": false,
      "t": 190160.91,
      "d": 99.54617187500116,
      "v": 93
    },
    {
      "midi": 43,
      "hit": false,
      "t": 190281.87749999843,
      "d": 64.26398437499302,
      "v": 75
    },
    {
      "midi": 43,
      "hit": false,
      "t": 190402.84499999843,
      "d": 64.26398437499302,
      "v": 75
    },
    {
      "midi": 67,
      "hit": false,
      "t": 190402.845,
      "d": 118.4473437500128,
      "v": 86
    },
    {
      "midi": 43,
      "hit": false,
      "t": 190523.81249999843,
      "d": 64.26398437499302,
      "v": 75
    },
    {
      "midi": 43,
      "hit": false,
      "t": 190523.81249999892,
      "d": 189.01171875,
      "v": 110
    },
    {
      "midi": 43,
      "hit": false,
      "t": 190644.77999999843,
      "d": 64.26398437499302,
      "v": 75
    },
    {
      "midi": 70,
      "hit": false,
      "t": 190644.78000000003,
      "d": 99.54617187500116,
      "v": 90
    },
    {
      "midi": 79,
      "hit": false,
      "t": 190647.30015625004,
      "d": 195.3121093750524,
      "v": 107
    },
    {
      "midi": 43,
      "hit": false,
      "t": 190765.74749999843,
      "d": 64.26398437499302,
      "v": 75
    },
    {
      "midi": 43,
      "hit": false,
      "t": 190886.71499999842,
      "d": 64.26398437499302,
      "v": 75
    },
    {
      "midi": 43,
      "hit": false,
      "t": 190886.71499999892,
      "d": 189.01171875,
      "v": 110
    },
    {
      "midi": 69,
      "hit": false,
      "t": 190886.71500000003,
      "d": 93.24578125000698,
      "v": 89
    },
    {
      "midi": 79,
      "hit": false,
      "t": 190904.3560937501,
      "d": 163.81015624999418,
      "v": 100
    },
    {
      "midi": 43,
      "hit": false,
      "t": 191007.68249999842,
      "d": 64.26398437499302,
      "v": 75
    },
    {
      "midi": 43,
      "hit": false,
      "t": 191128.64999999842,
      "d": 64.26398437499302,
      "v": 75
    },
    {
      "midi": 70,
      "hit": false,
      "t": 191128.65000000002,
      "d": 90.72562499999185,
      "v": 105
    },
    {
      "midi": 79,
      "hit": false,
      "t": 191146.2910937501,
      "d": 143.64890624998952,
      "v": 109
    },
    {
      "midi": 43,
      "hit": false,
      "t": 191249.61749999842,
      "d": 64.26398437499302,
      "v": 75
    },
    {
      "midi": 43,
      "hit": false,
      "t": 191370.58499999842,
      "d": 64.26398437499302,
      "v": 75
    },
    {
      "midi": 41,
      "hit": false,
      "t": 191370.58499999892,
      "d": 189.01171875,
      "v": 110
    },
    {
      "midi": 67,
      "hit": false,
      "t": 191370.58500000002,
      "d": 114.66710937500466,
      "v": 89
    },
    {
      "midi": 79,
      "hit": false,
      "t": 191400.8268750001,
      "d": 418.3459374999802,
      "v": 103
    },
    {
      "midi": 43,
      "hit": false,
      "t": 191491.55249999842,
      "d": 64.26398437499302,
      "v": 75
    },
    {
      "midi": 46,
      "hit": false,
      "t": 191612.51999999842,
      "d": 64.26398437499302,
      "v": 75
    },
    {
      "midi": 34,
      "hit": false,
      "t": 191612.5199999989,
      "d": 189.01171875,
      "v": 110
    },
    {
      "midi": 70,
      "hit": false,
      "t": 191612.52000000002,
      "d": 102.0663281249872,
      "v": 100
    },
    {
      "midi": 53,
      "hit": false,
      "t": 191612.52000000022,
      "d": 5830.381484375044,
      "v": 62
    },
    {
      "midi": 46,
      "hit": false,
      "t": 191733.48749999842,
      "d": 64.26398437499302,
      "v": 75
    },
    {
      "midi": 46,
      "hit": false,
      "t": 191854.45499999842,
      "d": 64.26398437499302,
      "v": 75
    },
    {
      "midi": 69,
      "hit": false,
      "t": 191854.45500000002,
      "d": 84.42523437499767,
      "v": 86
    },
    {
      "midi": 77,
      "hit": false,
      "t": 191883.43679687506,
      "d": 556.9545312500268,
      "v": 97
    },
    {
      "midi": 46,
      "hit": false,
      "t": 191975.4224999984,
      "d": 64.26398437499302,
      "v": 75
    },
    {
      "midi": 46,
      "hit": false,
      "t": 192096.3899999984,
      "d": 64.26398437499302,
      "v": 75
    },
    {
      "midi": 34,
      "hit": false,
      "t": 192096.3899999989,
      "d": 189.01171875,
      "v": 110
    },
    {
      "midi": 70,
      "hit": false,
      "t": 192096.39,
      "d": 90.72562499999185,
      "v": 100
    },
    {
      "midi": 46,
      "hit": false,
      "t": 192217.3574999984,
      "d": 64.26398437499302,
      "v": 75
    },
    {
      "midi": 46,
      "hit": false,
      "t": 192338.3249999984,
      "d": 64.26398437499302,
      "v": 75
    },
    {
      "midi": 65,
      "hit": false,
      "t": 192338.325,
      "d": 123.48765625001397,
      "v": 96
    },
    {
      "midi": 46,
      "hit": false,
      "t": 192459.2924999984,
      "d": 64.26398437499302,
      "v": 75
    },
    {
      "midi": 34,
      "hit": false,
      "t": 192459.2924999989,
      "d": 189.01171875,
      "v": 110
    },
    {
      "midi": 46,
      "hit": false,
      "t": 192580.2599999984,
      "d": 64.26398437499302,
      "v": 75
    },
    {
      "midi": 70,
      "hit": false,
      "t": 192580.26000000004,
      "d": 95.76593749999302,
      "v": 90
    },
    {
      "midi": 74,
      "hit": false,
      "t": 192587.82046875008,
      "d": 190.27179687499302,
      "v": 104
    },
    {
      "midi": 46,
      "hit": false,
      "t": 192701.2274999984,
      "d": 64.26398437499302,
      "v": 75
    },
    {
      "midi": 77,
      "hit": false,
      "t": 192818.4147656251,
      "d": 189.01171875,
      "v": 106
    },
    {
      "midi": 46,
      "hit": false,
      "t": 192822.1949999984,
      "d": 64.26398437499302,
      "v": 75
    },
    {
      "midi": 36,
      "hit": false,
      "t": 192822.1949999989,
      "d": 189.01171875,
      "v": 110
    },
    {
      "midi": 69,
      "hit": false,
      "t": 192822.19500000004,
      "d": 98.28609375000815,
      "v": 87
    },
    {
      "midi": 46,
      "hit": false,
      "t": 192943.1624999984,
      "d": 64.26398437499302,
      "v": 75
    },
    {
      "midi": 46,
      "hit": false,
      "t": 193064.1299999984,
      "d": 64.26398437499302,
      "v": 75
    },
    {
      "midi": 70,
      "hit": false,
      "t": 193064.13000000003,
      "d": 105.84656249999534,
      "v": 85
    },
    {
      "midi": 74,
      "hit": false,
      "t": 193065.39007812508,
      "d": 178.93109374999767,
      "v": 109
    },
    {
      "midi": 46,
      "hit": false,
      "t": 193185.0974999984,
      "d": 64.26398437499302,
      "v": 75
    },
    {
      "midi": 46,
      "hit": false,
      "t": 193306.0649999984,
      "d": 64.26398437499302,
      "v": 75
    },
    {
      "midi": 38,
      "hit": false,
      "t": 193306.0649999989,
      "d": 189.01171875,
      "v": 110
    },
    {
      "midi": 65,
      "hit": false,
      "t": 193306.06500000003,
      "d": 126.0078125,
      "v": 86
    },
    {
      "midi": 79,
      "hit": false,
      "t": 193309.84523437507,
      "d": 458.6684374999895,
      "v": 109
    },
    {
      "midi": 46,
      "hit": false,
      "t": 193427.0324999984,
      "d": 64.26398437499302,
      "v": 75
    },
    {
      "midi": 50,
      "hit": false,
      "t": 193547.9999999984,
      "d": 64.26398437499302,
      "v": 75
    },
    {
      "midi": 38,
      "hit": false,
      "t": 193547.9999999989,
      "d": 189.01171875,
      "v": 110
    },
    {
      "midi": 69,
      "hit": false,
      "t": 193548.00000000003,
      "d": 113.40703125001164,
      "v": 96
    },
    {
      "midi": 57,
      "hit": false,
      "t": 193548.00000000023,
      "d": 3886.0809375000244,
      "v": 62
    },
    {
      "midi": 50,
      "hit": false,
      "t": 193668.9674999984,
      "d": 64.26398437499302,
      "v": 75
    },
    {
      "midi": 50,
      "hit": false,
      "t": 193789.9349999984,
      "d": 64.26398437499302,
      "v": 75
    },
    {
      "midi": 67,
      "hit": false,
      "t": 193789.93500000003,
      "d": 105.84656249999534,
      "v": 87
    },
    {
      "midi": 77,
      "hit": false,
      "t": 193794.97531250006,
      "d": 383.06375000000116,
      "v": 109
    },
    {
      "midi": 50,
      "hit": false,
      "t": 193910.9024999984,
      "d": 64.26398437499302,
      "v": 75
    },
    {
      "midi": 50,
      "hit": false,
      "t": 194031.8699999984,
      "d": 64.26398437499302,
      "v": 75
    },
    {
      "midi": 38,
      "hit": false,
      "t": 194031.8699999989,
      "d": 189.01171875,
      "v": 110
    },
    {
      "midi": 69,
      "hit": false,
      "t": 194031.87000000002,
      "d": 88.20546875000582,
      "v": 94
    },
    {
      "midi": 50,
      "hit": false,
      "t": 194152.8374999984,
      "d": 64.26398437499302,
      "v": 75
    },
    {
      "midi": 50,
      "hit": false,
      "t": 194273.8049999984,
      "d": 64.26398437499302,
      "v": 75
    },
    {
      "midi": 65,
      "hit": false,
      "t": 194273.80500000002,
      "d": 109.62679687500349,
      "v": 94
    },
    {
      "midi": 50,
      "hit": false,
      "t": 194394.7724999984,
      "d": 64.26398437499302,
      "v": 75
    },
    {
      "midi": 38,
      "hit": false,
      "t": 194394.7724999989,
      "d": 189.01171875,
      "v": 110
    },
    {
      "midi": 50,
      "hit": false,
      "t": 194515.7399999984,
      "d": 64.26398437499302,
      "v": 75
    },
    {
      "midi": 69,
      "hit": false,
      "t": 194515.74000000002,
      "d": 97.02601562498603,
      "v": 92
    },
    {
      "midi": 50,
      "hit": false,
      "t": 194636.7074999984,
      "d": 64.26398437499302,
      "v": 75
    },
    {
      "midi": 50,
      "hit": false,
      "t": 194757.6749999984,
      "d": 64.26398437499302,
      "v": 75
    },
    {
      "midi": 38,
      "hit": false,
      "t": 194757.67499999888,
      "d": 189.01171875,
      "v": 110
    },
    {
      "midi": 67,
      "hit": false,
      "t": 194757.67500000002,
      "d": 81.90507812501164,
      "v": 90
    },
    {
      "midi": 74,
      "hit": false,
      "t": 194770.27578125006,
      "d": 119.70742187500582,
      "v": 104
    },
    {
      "midi": 50,
      "hit": false,
      "t": 194878.6424999984,
      "d": 64.26398437499302,
      "v": 75
    },
    {
      "midi": 50,
      "hit": false,
      "t": 194999.60999999839,
      "d": 64.26398437499302,
      "v": 75
    },
    {
      "midi": 69,
      "hit": false,
      "t": 194999.61000000002,
      "d": 88.20546875000582,
      "v": 96
    },
    {
      "midi": 74,
      "hit": false,
      "t": 195002.13015625006,
      "d": 141.1287500000035,
      "v": 104
    },
    {
      "midi": 50,
      "hit": false,
      "t": 195120.57749999838,
      "d": 64.26398437499302,
      "v": 75
    },
    {
      "midi": 50,
      "hit": false,
      "t": 195241.54499999838,
      "d": 64.26398437499302,
      "v": 75
    },
    {
      "midi": 38,
      "hit": false,
      "t": 195241.54499999888,
      "d": 189.01171875,
      "v": 110
    },
    {
      "midi": 65,
      "hit": false,
      "t": 195241.545,
      "d": 103.32640625000931,
      "v": 92
    },
    {
      "midi": 74,
      "hit": false,
      "t": 195254.14578125006,
      "d": 395.6645312499895,
      "v": 104
    },
    {
      "midi": 50,
      "hit": false,
      "t": 195362.51249999838,
      "d": 64.26398437499302,
      "v": 75
    },
    {
      "midi": 60,
      "hit": false,
      "t": 195362.51250000024,
      "d": 1992.1835156250163,
      "v": 62
    },
    {
      "midi": 48,
      "hit": false,
      "t": 195483.47999999838,
      "d": 64.26398437499302,
      "v": 75
    },
    {
      "midi": 41,
      "hit": false,
      "t": 195483.47999999888,
      "d": 189.01171875,
      "v": 110
    },
    {
      "midi": 69,
      "hit": false,
      "t": 195483.48,
      "d": 81.90507812501164,
      "v": 100
    },
    {
      "midi": 48,
      "hit": false,
      "t": 195604.44749999838,
      "d": 64.26398437499302,
      "v": 75
    },
    {
      "midi": 72,
      "hit": false,
      "t": 195715.33437500003,
      "d": 372.98312499999884,
      "v": 100
    },
    {
      "midi": 48,
      "hit": false,
      "t": 195725.41499999838,
      "d": 64.26398437499302,
      "v": 75
    },
    {
      "midi": 67,
      "hit": false,
      "t": 195725.415,
      "d": 104.58648437500233,
      "v": 87
    },
    {
      "midi": 48,
      "hit": false,
      "t": 195846.38249999838,
      "d": 64.26398437499302,
      "v": 75
    },
    {
      "midi": 48,
      "hit": false,
      "t": 195967.34999999838,
      "d": 64.26398437499302,
      "v": 75
    },
    {
      "midi": 41,
      "hit": false,
      "t": 195967.34999999887,
      "d": 189.01171875,
      "v": 110
    },
    {
      "midi": 69,
      "hit": false,
      "t": 195967.35,
      "d": 94.505859375,
      "v": 92
    },
    {
      "midi": 48,
      "hit": false,
      "t": 196088.31749999837,
      "d": 64.26398437499302,
      "v": 75
    },
    {
      "midi": 48,
      "hit": false,
      "t": 196209.28499999837,
      "d": 64.26398437499302,
      "v": 75
    },
    {
      "midi": 65,
      "hit": false,
      "t": 196209.285,
      "d": 114.66710937500466,
      "v": 92
    },
    {
      "midi": 48,
      "hit": false,
      "t": 196330.25249999837,
      "d": 64.26398437499302,
      "v": 75
    },
    {
      "midi": 41,
      "hit": false,
      "t": 196330.25249999887,
      "d": 189.01171875,
      "v": 110
    },
    {
      "midi": 48,
      "hit": false,
      "t": 196451.21999999837,
      "d": 64.26398437499302,
      "v": 75
    },
    {
      "midi": 69,
      "hit": false,
      "t": 196451.22,
      "d": 100.80624999999418,
      "v": 92
    },
    {
      "midi": 48,
      "hit": false,
      "t": 196572.18749999837,
      "d": 64.26398437499302,
      "v": 75
    },
    {
      "midi": 48,
      "hit": false,
      "t": 196693.15499999837,
      "d": 64.26398437499302,
      "v": 75
    },
    {
      "midi": 38,
      "hit": false,
      "t": 196693.15499999886,
      "d": 189.01171875,
      "v": 110
    },
    {
      "midi": 67,
      "hit": false,
      "t": 196693.155,
      "d": 97.02601562498603,
      "v": 87
    },
    {
      "midi": 72,
      "hit": false,
      "t": 196698.19531250003,
      "d": 167.59039062500233,
      "v": 98
    },
    {
      "midi": 48,
      "hit": false,
      "t": 196814.12249999837,
      "d": 64.26398437499302,
      "v": 75
    },
    {
      "midi": 48,
      "hit": false,
      "t": 196935.08999999837,
      "d": 64.26398437499302,
      "v": 75
    },
    {
      "midi": 69,
      "hit": false,
      "t": 196935.09,
      "d": 94.505859375,
      "v": 94
    },
    {
      "midi": 72,
      "hit": false,
      "t": 196936.35007812502,
      "d": 212.9532031250128,
      "v": 95
    },
    {
      "midi": 48,
      "hit": false,
      "t": 197056.05749999837,
      "d": 64.26398437499302,
      "v": 75
    },
    {
      "midi": 48,
      "hit": false,
      "t": 197177.02499999836,
      "d": 64.26398437499302,
      "v": 75
    },
    {
      "midi": 41,
      "hit": false,
      "t": 197177.02499999886,
      "d": 189.01171875,
      "v": 110
    },
    {
      "midi": 65,
      "hit": false,
      "t": 197177.025,
      "d": 122.22757812499185,
      "v": 92
    },
    {
      "midi": 70,
      "hit": false,
      "t": 197187.10562500003,
      "d": 238.15476562498952,
      "v": 104
    },
    {
      "midi": 48,
      "hit": false,
      "t": 197297.99249999836,
      "d": 64.26398437499302,
      "v": 75
    },
    {
      "midi": 43,
      "hit": false,
      "t": 197418.95999999836,
      "d": 64.26398437499302,
      "v": 75
    },
    {
      "midi": 43,
      "hit": false,
      "t": 197418.95999999886,
      "d": 189.01171875,
      "v": 110
    },
    {
      "midi": 70,
      "hit": false,
      "t": 197418.96,
      "d": 89.46554687499884,
      "v": 96
    },
    {
      "midi": 55,
      "hit": false,
      "t": 197418.96000000025,
      "d": 1794.351250000007,
      "v": 62
    },
    {
      "midi": 58,
      "hit": false,
      "t": 197418.96000000025,
      "d": 3840.718125000014,
      "v": 62
    },
    {
      "midi": 62,
      "hit": false,
      "t": 197418.96000000025,
      "d": 5752.256640625041,
      "v": 62
    },
    {
      "midi": 43,
      "hit": false,
      "t": 197539.92749999836,
      "d": 64.26398437499302,
      "v": 75
    },
    {
      "midi": 43,
      "hit": false,
      "t": 197660.89499999836,
      "d": 64.26398437499302,
      "v": 75
    },
    {
      "midi": 69,
      "hit": false,
      "t": 197660.895,
      "d": 86.9453906250128,
      "v": 96
    },
    {
      "midi": 43,
      "hit": false,
      "t": 197781.86249999836,
      "d": 64.26398437499302,
      "v": 75
    },
    {
      "midi": 43,
      "hit": false,
      "t": 197902.82999999836,
      "d": 64.26398437499302,
      "v": 75
    },
    {
      "midi": 43,
      "hit": false,
      "t": 197902.82999999885,
      "d": 189.01171875,
      "v": 110
    },
    {
      "midi": 70,
      "hit": false,
      "t": 197902.83000000002,
      "d": 99.54617187500116,
      "v": 93
    },
    {
      "midi": 43,
      "hit": false,
      "t": 198023.79749999836,
      "d": 64.26398437499302,
      "v": 75
    },
    {
      "midi": 43,
      "hit": false,
      "t": 198144.76499999836,
      "d": 64.26398437499302,
      "v": 75
    },
    {
      "midi": 67,
      "hit": false,
      "t": 198144.765,
      "d": 118.4473437500128,
      "v": 86
    },
    {
      "midi": 43,
      "hit": false,
      "t": 198265.73249999835,
      "d": 64.26398437499302,
      "v": 75
    },
    {
      "midi": 43,
      "hit": false,
      "t": 198265.73249999885,
      "d": 189.01171875,
      "v": 110
    },
    {
      "midi": 43,
      "hit": false,
      "t": 198386.69999999835,
      "d": 64.26398437499302,
      "v": 75
    },
    {
      "midi": 70,
      "hit": false,
      "t": 198386.70000000004,
      "d": 99.54617187500116,
      "v": 90
    },
    {
      "midi": 79,
      "hit": false,
      "t": 198389.22015625006,
      "d": 195.3121093750524,
      "v": 107
    },
    {
      "midi": 43,
      "hit": false,
      "t": 198507.66749999835,
      "d": 64.26398437499302,
      "v": 75
    },
    {
      "midi": 43,
      "hit": false,
      "t": 198628.63499999835,
      "d": 64.26398437499302,
      "v": 75
    },
    {
      "midi": 43,
      "hit": false,
      "t": 198628.63499999885,
      "d": 189.01171875,
      "v": 110
    },
    {
      "midi": 69,
      "hit": false,
      "t": 198628.63500000004,
      "d": 93.24578125000698,
      "v": 89
    },
    {
      "midi": 79,
      "hit": false,
      "t": 198646.27609375012,
      "d": 163.81015624999418,
      "v": 100
    },
    {
      "midi": 43,
      "hit": false,
      "t": 198749.60249999835,
      "d": 64.26398437499302,
      "v": 75
    },
    {
      "midi": 43,
      "hit": false,
      "t": 198870.56999999835,
      "d": 64.26398437499302,
      "v": 75
    },
    {
      "midi": 70,
      "hit": false,
      "t": 198870.57000000004,
      "d": 90.72562499999185,
      "v": 105
    },
    {
      "midi": 79,
      "hit": false,
      "t": 198888.2110937501,
      "d": 143.64890624998952,
      "v": 109
    },
    {
      "midi": 43,
      "hit": false,
      "t": 198991.53749999835,
      "d": 64.26398437499302,
      "v": 75
    },
    {
      "midi": 43,
      "hit": false,
      "t": 199112.50499999835,
      "d": 64.26398437499302,
      "v": 75
    },
    {
      "midi": 41,
      "hit": false,
      "t": 199112.50499999884,
      "d": 189.01171875,
      "v": 110
    },
    {
      "midi": 67,
      "hit": false,
      "t": 199112.50500000003,
      "d": 114.66710937500466,
      "v": 89
    },
    {
      "midi": 79,
      "hit": false,
      "t": 199142.7468750001,
      "d": 418.3459374999802,
      "v": 103
    },
    {
      "midi": 43,
      "hit": false,
      "t": 199233.47249999834,
      "d": 64.26398437499302,
      "v": 75
    },
    {
      "midi": 46,
      "hit": false,
      "t": 199354.43999999834,
      "d": 64.26398437499302,
      "v": 75
    },
    {
      "midi": 34,
      "hit": false,
      "t": 199354.43999999884,
      "d": 189.01171875,
      "v": 110
    },
    {
      "midi": 70,
      "hit": false,
      "t": 199354.44000000003,
      "d": 102.0663281249872,
      "v": 100
    },
    {
      "midi": 53,
      "hit": false,
      "t": 199354.44000000026,
      "d": 5830.381484375044,
      "v": 62
    },
    {
      "midi": 46,
      "hit": false,
      "t": 199475.40749999834,
      "d": 64.26398437499302,
      "v": 75
    },
    {
      "midi": 46,
      "hit": false,
      "t": 199596.37499999834,
      "d": 64.26398437499302,
      "v": 75
    },
    {
      "midi": 69,
      "hit": false,
      "t": 199596.37500000003,
      "d": 84.42523437499767,
      "v": 86
    },
    {
      "midi": 77,
      "hit": false,
      "t": 199596.3750000001,
      "d": 483.86999999999534,
      "v": 107
    },
    {
      "midi": 46,
      "hit": false,
      "t": 199717.34249999834,
      "d": 64.26398437499302,
      "v": 75
    },
    {
      "midi": 46,
      "hit": false,
      "t": 199838.30999999834,
      "d": 64.26398437499302,
      "v": 75
    },
    {
      "midi": 34,
      "hit": false,
      "t": 199838.30999999883,
      "d": 189.01171875,
      "v": 110
    },
    {
      "midi": 70,
      "hit": false,
      "t": 199838.31000000003,
      "d": 90.72562499999185,
      "v": 100
    },
    {
      "midi": 46,
      "hit": false,
      "t": 199959.27749999834,
      "d": 64.26398437499302,
      "v": 75
    },
    {
      "midi": 46,
      "hit": false,
      "t": 200080.24499999834,
      "d": 64.26398437499302,
      "v": 75
    },
    {
      "midi": 65,
      "hit": false,
      "t": 200080.24500000002,
      "d": 123.48765625001397,
      "v": 96
    },
    {
      "midi": 74,
      "hit": false,
      "t": 200080.24500000008,
      "d": 120.96749999999884,
      "v": 110
    },
    {
      "midi": 46,
      "hit": false,
      "t": 200201.21249999834,
      "d": 64.26398437499302,
      "v": 75
    },
    {
      "midi": 34,
      "hit": false,
      "t": 200201.21249999883,
      "d": 189.01171875,
      "v": 110
    },
    {
      "midi": 46,
      "hit": false,
      "t": 200322.17999999833,
      "d": 64.26398437499302,
      "v": 75
    },
    {
      "midi": 70,
      "hit": false,
      "t": 200322.18000000005,
      "d": 95.76593749999302,
      "v": 90
    },
    {
      "midi": 74,
      "hit": false,
      "t": 200329.74046875007,
      "d": 190.27179687499302,
      "v": 104
    },
    {
      "midi": 46,
      "hit": false,
      "t": 200443.14749999833,
      "d": 64.26398437499302,
      "v": 75
    },
    {
      "midi": 77,
      "hit": false,
      "t": 200560.33476562507,
      "d": 189.01171875,
      "v": 106
    },
    {
      "midi": 46,
      "hit": false,
      "t": 200564.11499999833,
      "d": 64.26398437499302,
      "v": 75
    },
    {
      "midi": 36,
      "hit": false,
      "t": 200564.11499999883,
      "d": 189.01171875,
      "v": 110
    },
    {
      "midi": 69,
      "hit": false,
      "t": 200564.11500000005,
      "d": 98.28609375000815,
      "v": 87
    },
    {
      "midi": 46,
      "hit": false,
      "t": 200685.08249999833,
      "d": 64.26398437499302,
      "v": 75
    },
    {
      "midi": 46,
      "hit": false,
      "t": 200806.04999999833,
      "d": 64.26398437499302,
      "v": 75
    },
    {
      "midi": 70,
      "hit": false,
      "t": 200806.05000000005,
      "d": 105.84656249999534,
      "v": 85
    },
    {
      "midi": 74,
      "hit": false,
      "t": 200807.31007812507,
      "d": 178.93109374999767,
      "v": 109
    },
    {
      "midi": 46,
      "hit": false,
      "t": 200927.01749999833,
      "d": 64.26398437499302,
      "v": 75
    },
    {
      "midi": 46,
      "hit": false,
      "t": 201047.98499999833,
      "d": 64.26398437499302,
      "v": 75
    },
    {
      "midi": 38,
      "hit": false,
      "t": 201047.98499999882,
      "d": 189.01171875,
      "v": 110
    },
    {
      "midi": 65,
      "hit": false,
      "t": 201047.98500000004,
      "d": 126.0078125,
      "v": 86
    },
    {
      "midi": 79,
      "hit": false,
      "t": 201051.76523437505,
      "d": 458.6684374999895,
      "v": 109
    },
    {
      "midi": 46,
      "hit": false,
      "t": 201168.95249999833,
      "d": 64.26398437499302,
      "v": 75
    },
    {
      "midi": 50,
      "hit": false,
      "t": 201289.91999999832,
      "d": 64.26398437499302,
      "v": 75
    },
    {
      "midi": 38,
      "hit": false,
      "t": 201289.91999999882,
      "d": 189.01171875,
      "v": 110
    },
    {
      "midi": 69,
      "hit": false,
      "t": 201289.92000000004,
      "d": 113.40703125001164,
      "v": 96
    },
    {
      "midi": 57,
      "hit": false,
      "t": 201289.92000000027,
      "d": 3886.0809375000244,
      "v": 62
    },
    {
      "midi": 50,
      "hit": false,
      "t": 201410.88749999832,
      "d": 64.26398437499302,
      "v": 75
    },
    {
      "midi": 50,
      "hit": false,
      "t": 201531.85499999832,
      "d": 64.26398437499302,
      "v": 75
    },
    {
      "midi": 67,
      "hit": false,
      "t": 201531.85500000004,
      "d": 105.84656249999534,
      "v": 87
    },
    {
      "midi": 77,
      "hit": false,
      "t": 201536.89531250004,
      "d": 383.06375000000116,
      "v": 109
    },
    {
      "midi": 50,
      "hit": false,
      "t": 201652.82249999832,
      "d": 64.26398437499302,
      "v": 75
    },
    {
      "midi": 50,
      "hit": false,
      "t": 201773.78999999832,
      "d": 64.26398437499302,
      "v": 75
    },
    {
      "midi": 38,
      "hit": false,
      "t": 201773.78999999881,
      "d": 189.01171875,
      "v": 110
    },
    {
      "midi": 69,
      "hit": false,
      "t": 201773.79000000004,
      "d": 88.20546875000582,
      "v": 94
    },
    {
      "midi": 50,
      "hit": false,
      "t": 201894.75749999832,
      "d": 64.26398437499302,
      "v": 75
    },
    {
      "midi": 50,
      "hit": false,
      "t": 202015.72499999832,
      "d": 64.26398437499302,
      "v": 75
    },
    {
      "midi": 65,
      "hit": false,
      "t": 202015.72500000003,
      "d": 109.62679687500349,
      "v": 94
    },
    {
      "midi": 50,
      "hit": false,
      "t": 202136.69249999832,
      "d": 64.26398437499302,
      "v": 75
    },
    {
      "midi": 38,
      "hit": false,
      "t": 202136.6924999988,
      "d": 189.01171875,
      "v": 110
    },
    {
      "midi": 50,
      "hit": false,
      "t": 202257.65999999832,
      "d": 64.26398437499302,
      "v": 75
    },
    {
      "midi": 69,
      "hit": false,
      "t": 202257.66000000003,
      "d": 97.02601562498603,
      "v": 92
    },
    {
      "midi": 50,
      "hit": false,
      "t": 202378.6274999983,
      "d": 64.26398437499302,
      "v": 75
    },
    {
      "midi": 50,
      "hit": false,
      "t": 202499.5949999983,
      "d": 64.26398437499302,
      "v": 75
    },
    {
      "midi": 38,
      "hit": false,
      "t": 202499.5949999988,
      "d": 189.01171875,
      "v": 110
    },
    {
      "midi": 67,
      "hit": false,
      "t": 202499.59500000003,
      "d": 81.90507812501164,
      "v": 90
    },
    {
      "midi": 74,
      "hit": false,
      "t": 202538.65742187505,
      "d": 209.17296875000466,
      "v": 109
    },
    {
      "midi": 50,
      "hit": false,
      "t": 202620.5624999983,
      "d": 64.26398437499302,
      "v": 75
    },
    {
      "midi": 50,
      "hit": false,
      "t": 202741.5299999983,
      "d": 64.26398437499302,
      "v": 75
    },
    {
      "midi": 69,
      "hit": false,
      "t": 202741.53000000003,
      "d": 88.20546875000582,
      "v": 96
    },
    {
      "midi": 50,
      "hit": false,
      "t": 202862.4974999983,
      "d": 64.26398437499302,
      "v": 75
    },
    {
      "midi": 74,
      "hit": false,
      "t": 202911.64054687505,
      "d": 181.4512500000128,
      "v": 97
    },
    {
      "midi": 50,
      "hit": false,
      "t": 202983.4649999983,
      "d": 64.26398437499302,
      "v": 75
    },
    {
      "midi": 38,
      "hit": false,
      "t": 202983.4649999988,
      "d": 189.01171875,
      "v": 110
    },
    {
      "midi": 65,
      "hit": false,
      "t": 202983.46500000003,
      "d": 103.32640625000931,
      "v": 92
    },
    {
      "midi": 50,
      "hit": false,
      "t": 203104.4324999983,
      "d": 64.26398437499302,
      "v": 75
    },
    {
      "midi": 60,
      "hit": false,
      "t": 203104.4325000003,
      "d": 1992.1835156250163,
      "v": 62
    },
    {
      "midi": 48,
      "hit": false,
      "t": 203225.3999999983,
      "d": 64.26398437499302,
      "v": 75
    },
    {
      "midi": 41,
      "hit": false,
      "t": 203225.3999999988,
      "d": 189.01171875,
      "v": 110
    },
    {
      "midi": 74,
      "hit": false,
      "t": 203253.12171875004,
      "d": 783.768593750021,
      "v": 113
    },
    {
      "midi": 48,
      "hit": false,
      "t": 203346.3674999983,
      "d": 64.26398437499302,
      "v": 75
    },
    {
      "midi": 48,
      "hit": false,
      "t": 203467.3349999983,
      "d": 64.26398437499302,
      "v": 75
    },
    {
      "midi": 48,
      "hit": false,
      "t": 203588.3024999983,
      "d": 64.26398437499302,
      "v": 75
    },
    {
      "midi": 48,
      "hit": false,
      "t": 203709.2699999983,
      "d": 64.26398437499302,
      "v": 75
    },
    {
      "midi": 41,
      "hit": false,
      "t": 203709.2699999988,
      "d": 189.01171875,
      "v": 110
    },
    {
      "midi": 48,
      "hit": false,
      "t": 203830.2374999983,
      "d": 64.26398437499302,
      "v": 75
    },
    {
      "midi": 48,
      "hit": false,
      "t": 203951.2049999983,
      "d": 64.26398437499302,
      "v": 75
    },
    {
      "midi": 48,
      "hit": false,
      "t": 204072.1724999983,
      "d": 64.26398437499302,
      "v": 75
    },
    {
      "midi": 41,
      "hit": false,
      "t": 204072.1724999988,
      "d": 189.01171875,
      "v": 110
    },
    {
      "midi": 48,
      "hit": false,
      "t": 204193.1399999983,
      "d": 64.26398437499302,
      "v": 75
    },
    {
      "midi": 48,
      "hit": false,
      "t": 204314.1074999983,
      "d": 64.26398437499302,
      "v": 75
    },
    {
      "midi": 48,
      "hit": false,
      "t": 204435.0749999983,
      "d": 64.26398437499302,
      "v": 75
    },
    {
      "midi": 38,
      "hit": false,
      "t": 204435.0749999988,
      "d": 189.01171875,
      "v": 110
    },
    {
      "midi": 74,
      "hit": false,
      "t": 204435.07500000007,
      "d": 241.93499999999767,
      "v": 110
    },
    {
      "midi": 48,
      "hit": false,
      "t": 204556.0424999983,
      "d": 64.26398437499302,
      "v": 75
    },
    {
      "midi": 48,
      "hit": false,
      "t": 204677.0099999983,
      "d": 64.26398437499302,
      "v": 75
    },
    {
      "midi": 77,
      "hit": false,
      "t": 204677.01000000007,
      "d": 241.93499999999767,
      "v": 110
    },
    {
      "midi": 48,
      "hit": false,
      "t": 204797.9774999983,
      "d": 64.26398437499302,
      "v": 75
    },
    {
      "midi": 48,
      "hit": false,
      "t": 204918.9449999983,
      "d": 64.26398437499302,
      "v": 75
    },
    {
      "midi": 41,
      "hit": false,
      "t": 204918.94499999878,
      "d": 189.01171875,
      "v": 110
    },
    {
      "midi": 79,
      "hit": false,
      "t": 204918.94500000007,
      "d": 241.93499999999767,
      "v": 113
    },
    {
      "midi": 48,
      "hit": false,
      "t": 205039.9124999983,
      "d": 64.26398437499302,
      "v": 75
    },
    {
      "midi": 43,
      "hit": false,
      "t": 205160.8799999983,
      "d": 64.26398437499302,
      "v": 75
    },
    {
      "midi": 43,
      "hit": false,
      "t": 205160.87999999878,
      "d": 189.01171875,
      "v": 110
    },
    {
      "midi": 70,
      "hit": false,
      "t": 205160.88000000003,
      "d": 89.46554687499884,
      "v": 96
    },
    {
      "midi": 55,
      "hit": false,
      "t": 205160.8800000003,
      "d": 1794.351250000007,
      "v": 62
    },
    {
      "midi": 79,
      "hit": false,
      "t": 205160.8800000003,
      "d": 1898.9377343750093,
      "v": 62
    },
    {
      "midi": 58,
      "hit": false,
      "t": 205160.8800000003,
      "d": 3840.718125000014,
      "v": 62
    },
    {
      "midi": 62,
      "hit": false,
      "t": 205160.8800000003,
      "d": 5752.256640625012,
      "v": 62
    },
    {
      "midi": 43,
      "hit": false,
      "t": 205281.8474999983,
      "d": 64.26398437499302,
      "v": 75
    },
    {
      "midi": 43,
      "hit": false,
      "t": 205402.81499999829,
      "d": 64.26398437499302,
      "v": 75
    },
    {
      "midi": 69,
      "hit": false,
      "t": 205402.81500000003,
      "d": 86.9453906250128,
      "v": 96
    },
    {
      "midi": 79,
      "hit": false,
      "t": 205414.1557031251,
      "d": 244.4551562500128,
      "v": 100
    },
    {
      "midi": 43,
      "hit": false,
      "t": 205523.78249999828,
      "d": 64.26398437499302,
      "v": 75
    },
    {
      "midi": 43,
      "hit": false,
      "t": 205644.74999999828,
      "d": 64.26398437499302,
      "v": 75
    },
    {
      "midi": 43,
      "hit": false,
      "t": 205644.74999999878,
      "d": 189.01171875,
      "v": 110
    },
    {
      "midi": 70,
      "hit": false,
      "t": 205644.75000000006,
      "d": 99.54617187500116,
      "v": 93
    },
    {
      "midi": 43,
      "hit": false,
      "t": 205765.71749999828,
      "d": 64.26398437499302,
      "v": 75
    },
    {
      "midi": 43,
      "hit": false,
      "t": 205886.68499999828,
      "d": 64.26398437499302,
      "v": 75
    },
    {
      "midi": 67,
      "hit": false,
      "t": 205886.68500000006,
      "d": 118.4473437500128,
      "v": 86
    },
    {
      "midi": 79,
      "hit": false,
      "t": 205925.74742187513,
      "d": 240.67492187500466,
      "v": 84
    },
    {
      "midi": 43,
      "hit": false,
      "t": 206007.65249999828,
      "d": 64.26398437499302,
      "v": 75
    },
    {
      "midi": 43,
      "hit": false,
      "t": 206007.65249999877,
      "d": 189.01171875,
      "v": 110
    },
    {
      "midi": 43,
      "hit": false,
      "t": 206128.61999999828,
      "d": 64.26398437499302,
      "v": 75
    },
    {
      "midi": 70,
      "hit": false,
      "t": 206128.62000000008,
      "d": 99.54617187500116,
      "v": 90
    },
    {
      "midi": 74,
      "hit": false,
      "t": 206131.14015625007,
      "d": 143.64890624998952,
      "v": 106
    },
    {
      "midi": 43,
      "hit": false,
      "t": 206249.58749999828,
      "d": 64.26398437499302,
      "v": 75
    },
    {
      "midi": 43,
      "hit": false,
      "t": 206370.55499999828,
      "d": 64.26398437499302,
      "v": 75
    },
    {
      "midi": 43,
      "hit": false,
      "t": 206370.55499999877,
      "d": 189.01171875,
      "v": 110
    },
    {
      "midi": 75,
      "hit": false,
      "t": 206370.55500000005,
      "d": 161.29000000000815,
      "v": 106
    },
    {
      "midi": 69,
      "hit": false,
      "t": 206370.55500000008,
      "d": 93.24578125000698,
      "v": 89
    },
    {
      "midi": 79,
      "hit": false,
      "t": 206428.51859375014,
      "d": 236.8946874999965,
      "v": 68
    },
    {
      "midi": 43,
      "hit": false,
      "t": 206491.52249999827,
      "d": 64.26398437499302,
      "v": 75
    },
    {
      "midi": 74,
      "hit": false,
      "t": 206611.22992187506,
      "d": 200.35242187499534,
      "v": 119
    },
    {
      "midi": 43,
      "hit": false,
      "t": 206612.48999999827,
      "d": 64.26398437499302,
      "v": 75
    },
    {
      "midi": 70,
      "hit": false,
      "t": 206612.49000000008,
      "d": 90.72562499999185,
      "v": 105
    },
    {
      "midi": 43,
      "hit": false,
      "t": 206733.45749999827,
      "d": 64.26398437499302,
      "v": 75
    },
    {
      "midi": 77,
      "hit": false,
      "t": 206838.04398437505,
      "d": 461.18859375000466,
      "v": 113
    },
    {
      "midi": 43,
      "hit": false,
      "t": 206854.42499999827,
      "d": 64.26398437499302,
      "v": 75
    },
    {
      "midi": 41,
      "hit": false,
      "t": 206854.42499999877,
      "d": 189.01171875,
      "v": 110
    },
    {
      "midi": 67,
      "hit": false,
      "t": 206854.42500000008,
      "d": 114.66710937500466,
      "v": 89
    },
    {
      "midi": 79,
      "hit": false,
      "t": 206938.85023437513,
      "d": 230.59429687500233,
      "v": 51
    },
    {
      "midi": 43,
      "hit": false,
      "t": 206975.39249999827,
      "d": 64.26398437499302,
      "v": 75
    },
    {
      "midi": 82,
      "hit": false,
      "t": 207030.8359375003,
      "d": 1938.0001562500256,
      "v": 62
    },
    {
      "midi": 46,
      "hit": false,
      "t": 207096.35999999827,
      "d": 64.26398437499302,
      "v": 75
    },
    {
      "midi": 34,
      "hit": false,
      "t": 207096.35999999876,
      "d": 189.01171875,
      "v": 110
    },
    {
      "midi": 70,
      "hit": false,
      "t": 207096.36000000007,
      "d": 102.0663281249872,
      "v": 100
    },
    {
      "midi": 53,
      "hit": false,
      "t": 207096.3600000003,
      "d": 5830.381484375015,
      "v": 62
    },
    {
      "midi": 46,
      "hit": false,
      "t": 207217.32749999827,
      "d": 64.26398437499302,
      "v": 75
    },
    {
      "midi": 74,
      "hit": false,
      "t": 207320.65390625005,
      "d": 332.6606250000186,
      "v": 100
    },
    {
      "midi": 46,
      "hit": false,
      "t": 207338.29499999827,
      "d": 64.26398437499302,
      "v": 75
    },
    {
      "midi": 69,
      "hit": false,
      "t": 207338.29500000007,
      "d": 84.42523437499767,
      "v": 86
    },
    {
      "midi": 79,
      "hit": false,
      "t": 207451.70203125014,
      "d": 244.4551562500128,
      "v": 35
    },
    {
      "midi": 46,
      "hit": false,
      "t": 207459.26249999827,
      "d": 64.26398437499302,
      "v": 75
    },
    {
      "midi": 46,
      "hit": false,
      "t": 207580.22999999826,
      "d": 64.26398437499302,
      "v": 75
    },
    {
      "midi": 34,
      "hit": false,
      "t": 207580.22999999876,
      "d": 189.01171875,
      "v": 110
    },
    {
      "midi": 70,
      "hit": false,
      "t": 207580.23000000007,
      "d": 90.72562499999185,
      "v": 100
    },
    {
      "midi": 46,
      "hit": false,
      "t": 207701.19749999826,
      "d": 64.26398437499302,
      "v": 75
    },
    {
      "midi": 46,
      "hit": false,
      "t": 207822.16499999826,
      "d": 64.26398437499302,
      "v": 75
    },
    {
      "midi": 65,
      "hit": false,
      "t": 207822.16500000007,
      "d": 123.48765625001397,
      "v": 96
    },
    {
      "midi": 46,
      "hit": false,
      "t": 207943.13249999826,
      "d": 64.26398437499302,
      "v": 75
    },
    {
      "midi": 34,
      "hit": false,
      "t": 207943.13249999876,
      "d": 189.01171875,
      "v": 110
    },
    {
      "midi": 79,
      "hit": false,
      "t": 207954.47320312515,
      "d": 192.79195312500815,
      "v": 19
    },
    {
      "midi": 46,
      "hit": false,
      "t": 208064.09999999826,
      "d": 64.26398437499302,
      "v": 75
    },
    {
      "midi": 70,
      "hit": false,
      "t": 208064.1000000001,
      "d": 95.76593749999302,
      "v": 90
    },
    {
      "midi": 46,
      "hit": false,
      "t": 208185.06749999826,
      "d": 64.26398437499302,
      "v": 75
    },
    {
      "midi": 46,
      "hit": false,
      "t": 208306.03499999826,
      "d": 64.26398437499302,
      "v": 75
    },
    {
      "midi": 36,
      "hit": false,
      "t": 208306.03499999875,
      "d": 189.01171875,
      "v": 110
    },
    {
      "midi": 69,
      "hit": false,
      "t": 208306.0350000001,
      "d": 98.28609375000815,
      "v": 87
    },
    {
      "midi": 46,
      "hit": false,
      "t": 208427.00249999826,
      "d": 64.26398437499302,
      "v": 75
    },
    {
      "midi": 74,
      "hit": false,
      "t": 208541.6696093751,
      "d": 180.1911718749907,
      "v": 106
    },
    {
      "midi": 46,
      "hit": false,
      "t": 208547.96999999825,
      "d": 64.26398437499302,
      "v": 75
    },
    {
      "midi": 70,
      "hit": false,
      "t": 208547.9700000001,
      "d": 105.84656249999534,
      "v": 85
    },
    {
      "midi": 46,
      "hit": false,
      "t": 208668.93749999825,
      "d": 64.26398437499302,
      "v": 75
    },
    {
      "midi": 77,
      "hit": false,
      "t": 208787.38484375007,
      "d": 498.99093749999884,
      "v": 103
    },
    {
      "midi": 46,
      "hit": false,
      "t": 208789.90499999825,
      "d": 64.26398437499302,
      "v": 75
    },
    {
      "midi": 38,
      "hit": false,
      "t": 208789.90499999875,
      "d": 189.01171875,
      "v": 110
    },
    {
      "midi": 65,
      "hit": false,
      "t": 208789.9050000001,
      "d": 126.0078125,
      "v": 86
    },
    {
      "midi": 46,
      "hit": false,
      "t": 208910.87249999825,
      "d": 64.26398437499302,
      "v": 75
    },
    {
      "midi": 74,
      "hit": false,
      "t": 208986.4771875003,
      "d": 1924.1392968750151,
      "v": 62
    },
    {
      "midi": 50,
      "hit": false,
      "t": 209031.83999999825,
      "d": 64.26398437499302,
      "v": 75
    },
    {
      "midi": 38,
      "hit": false,
      "t": 209031.83999999875,
      "d": 189.01171875,
      "v": 110
    },
    {
      "midi": 69,
      "hit": false,
      "t": 209031.84000000008,
      "d": 113.40703125001164,
      "v": 96
    },
    {
      "midi": 57,
      "hit": false,
      "t": 209031.84000000032,
      "d": 3886.0809374999953,
      "v": 62
    },
    {
      "midi": 50,
      "hit": false,
      "t": 209152.80749999825,
      "d": 64.26398437499302,
      "v": 75
    },
    {
      "midi": 50,
      "hit": false,
      "t": 209273.77499999825,
      "d": 64.26398437499302,
      "v": 75
    },
    {
      "midi": 67,
      "hit": false,
      "t": 209273.77500000008,
      "d": 105.84656249999534,
      "v": 87
    },
    {
      "midi": 74,
      "hit": false,
      "t": 209297.71648437507,
      "d": 338.9610156249837,
      "v": 103
    },
    {
      "midi": 50,
      "hit": false,
      "t": 209394.74249999825,
      "d": 64.26398437499302,
      "v": 75
    },
    {
      "midi": 50,
      "hit": false,
      "t": 209515.70999999825,
      "d": 64.26398437499302,
      "v": 75
    },
    {
      "midi": 38,
      "hit": false,
      "t": 209515.70999999874,
      "d": 189.01171875,
      "v": 110
    },
    {
      "midi": 69,
      "hit": false,
      "t": 209515.71000000008,
      "d": 88.20546875000582,
      "v": 94
    },
    {
      "midi": 50,
      "hit": false,
      "t": 209636.67749999824,
      "d": 64.26398437499302,
      "v": 75
    },
    {
      "midi": 50,
      "hit": false,
      "t": 209757.64499999824,
      "d": 64.26398437499302,
      "v": 75
    },
    {
      "midi": 65,
      "hit": false,
      "t": 209757.64500000008,
      "d": 109.62679687500349,
      "v": 94
    },
    {
      "midi": 50,
      "hit": false,
      "t": 209878.61249999824,
      "d": 64.26398437499302,
      "v": 75
    },
    {
      "midi": 38,
      "hit": false,
      "t": 209878.61249999874,
      "d": 189.01171875,
      "v": 110
    },
    {
      "midi": 50,
      "hit": false,
      "t": 209999.57999999824,
      "d": 64.26398437499302,
      "v": 75
    },
    {
      "midi": 69,
      "hit": false,
      "t": 209999.58000000007,
      "d": 97.02601562498603,
      "v": 92
    },
    {
      "midi": 50,
      "hit": false,
      "t": 210120.54749999824,
      "d": 64.26398437499302,
      "v": 75
    },
    {
      "midi": 50,
      "hit": false,
      "t": 210241.51499999824,
      "d": 64.26398437499302,
      "v": 75
    },
    {
      "midi": 38,
      "hit": false,
      "t": 210241.51499999873,
      "d": 189.01171875,
      "v": 110
    },
    {
      "midi": 67,
      "hit": false,
      "t": 210241.51500000007,
      "d": 81.90507812501164,
      "v": 90
    },
    {
      "midi": 50,
      "hit": false,
      "t": 210362.48249999824,
      "d": 64.26398437499302,
      "v": 75
    },
    {
      "midi": 74,
      "hit": false,
      "t": 210477.14960937505,
      "d": 234.37453125001048,
      "v": 117
    },
    {
      "midi": 50,
      "hit": false,
      "t": 210483.44999999824,
      "d": 64.26398437499302,
      "v": 75
    },
    {
      "midi": 69,
      "hit": false,
      "t": 210483.45000000007,
      "d": 88.20546875000582,
      "v": 96
    },
    {
      "midi": 50,
      "hit": false,
      "t": 210604.41749999824,
      "d": 64.26398437499302,
      "v": 75
    },
    {
      "midi": 50,
      "hit": false,
      "t": 210725.38499999823,
      "d": 64.26398437499302,
      "v": 75
    },
    {
      "midi": 38,
      "hit": false,
      "t": 210725.38499999873,
      "d": 189.01171875,
      "v": 110
    },
    {
      "midi": 65,
      "hit": false,
      "t": 210725.38500000007,
      "d": 103.32640625000931,
      "v": 92
    },
    {
      "midi": 72,
      "hit": false,
      "t": 210737.98578125006,
      "d": 507.81148437500815,
      "v": 100
    },
    {
      "midi": 50,
      "hit": false,
      "t": 210846.35249999823,
      "d": 64.26398437499302,
      "v": 75
    },
    {
      "midi": 60,
      "hit": false,
      "t": 210846.35250000033,
      "d": 1992.1835156249872,
      "v": 62
    },
    {
      "midi": 72,
      "hit": false,
      "t": 210919.4370312503,
      "d": 1973.2823437500047,
      "v": 62
    },
    {
      "midi": 48,
      "hit": false,
      "t": 210967.31999999823,
      "d": 64.26398437499302,
      "v": 75
    },
    {
      "midi": 41,
      "hit": false,
      "t": 210967.31999999873,
      "d": 189.01171875,
      "v": 110
    },
    {
      "midi": 69,
      "hit": false,
      "t": 210967.32000000007,
      "d": 81.90507812501164,
      "v": 100
    },
    {
      "midi": 48,
      "hit": false,
      "t": 211088.28749999823,
      "d": 64.26398437499302,
      "v": 75
    },
    {
      "midi": 48,
      "hit": false,
      "t": 211209.25499999823,
      "d": 64.26398437499302,
      "v": 75
    },
    {
      "midi": 67,
      "hit": false,
      "t": 211209.25500000006,
      "d": 104.58648437500233,
      "v": 87
    },
    {
      "midi": 48,
      "hit": false,
      "t": 211330.22249999823,
      "d": 64.26398437499302,
      "v": 75
    },
    {
      "midi": 48,
      "hit": false,
      "t": 211451.18999999823,
      "d": 64.26398437499302,
      "v": 75
    },
    {
      "midi": 41,
      "hit": false,
      "t": 211451.18999999872,
      "d": 189.01171875,
      "v": 110
    },
    {
      "midi": 69,
      "hit": false,
      "t": 211451.19000000006,
      "d": 94.505859375,
      "v": 92
    },
    {
      "midi": 48,
      "hit": false,
      "t": 211572.15749999823,
      "d": 64.26398437499302,
      "v": 75
    },
    {
      "midi": 48,
      "hit": false,
      "t": 211693.12499999822,
      "d": 64.26398437499302,
      "v": 75
    },
    {
      "midi": 65,
      "hit": false,
      "t": 211693.12500000006,
      "d": 114.66710937500466,
      "v": 92
    },
    {
      "midi": 48,
      "hit": false,
      "t": 211814.09249999822,
      "d": 64.26398437499302,
      "v": 75
    },
    {
      "midi": 41,
      "hit": false,
      "t": 211814.09249999872,
      "d": 189.01171875,
      "v": 110
    },
    {
      "midi": 48,
      "hit": false,
      "t": 211935.05999999822,
      "d": 64.26398437499302,
      "v": 75
    },
    {
      "midi": 69,
      "hit": false,
      "t": 211935.06000000006,
      "d": 100.80624999999418,
      "v": 92
    },
    {
      "midi": 48,
      "hit": false,
      "t": 212056.02749999822,
      "d": 64.26398437499302,
      "v": 75
    },
    {
      "midi": 48,
      "hit": false,
      "t": 212176.99499999822,
      "d": 64.26398437499302,
      "v": 75
    },
    {
      "midi": 38,
      "hit": false,
      "t": 212176.99499999871,
      "d": 189.01171875,
      "v": 110
    },
    {
      "midi": 74,
      "hit": false,
      "t": 212176.99500000005,
      "d": 241.93499999999767,
      "v": 107
    },
    {
      "midi": 67,
      "hit": false,
      "t": 212176.99500000005,
      "d": 97.02601562498603,
      "v": 87
    },
    {
      "midi": 48,
      "hit": false,
      "t": 212297.96249999822,
      "d": 64.26398437499302,
      "v": 75
    },
    {
      "midi": 48,
      "hit": false,
      "t": 212418.92999999822,
      "d": 64.26398437499302,
      "v": 75
    },
    {
      "midi": 77,
      "hit": false,
      "t": 212418.93000000005,
      "d": 241.93499999999767,
      "v": 110
    },
    {
      "midi": 69,
      "hit": false,
      "t": 212418.93000000005,
      "d": 94.505859375,
      "v": 94
    },
    {
      "midi": 48,
      "hit": false,
      "t": 212539.89749999822,
      "d": 64.26398437499302,
      "v": 75
    },
    {
      "midi": 48,
      "hit": false,
      "t": 212660.86499999822,
      "d": 64.26398437499302,
      "v": 75
    },
    {
      "midi": 41,
      "hit": false,
      "t": 212660.8649999987,
      "d": 189.01171875,
      "v": 110
    },
    {
      "midi": 79,
      "hit": false,
      "t": 212660.86500000005,
      "d": 241.93499999999767,
      "v": 110
    },
    {
      "midi": 65,
      "hit": false,
      "t": 212660.86500000005,
      "d": 122.22757812499185,
      "v": 92
    },
    {
      "midi": 48,
      "hit": false,
      "t": 212781.8324999982,
      "d": 64.26398437499302,
      "v": 75
    },
    {
      "midi": 43,
      "hit": false,
      "t": 212902.7999999982,
      "d": 64.26398437499302,
      "v": 75
    },
    {
      "midi": 43,
      "hit": false,
      "t": 212902.7999999987,
      "d": 189.01171875,
      "v": 110
    },
    {
      "midi": 70,
      "hit": false,
      "t": 212902.80000000005,
      "d": 89.46554687499884,
      "v": 96
    },
    {
      "midi": 55,
      "hit": false,
      "t": 212902.8000000003,
      "d": 1794.351250000007,
      "v": 62
    },
    {
      "midi": 79,
      "hit": false,
      "t": 212902.8000000003,
      "d": 1898.9377343750093,
      "v": 62
    },
    {
      "midi": 58,
      "hit": false,
      "t": 212902.8000000003,
      "d": 3840.718125000014,
      "v": 62
    },
    {
      "midi": 62,
      "hit": false,
      "t": 212902.8000000003,
      "d": 5752.256640625012,
      "v": 62
    },
    {
      "midi": 43,
      "hit": false,
      "t": 213023.7674999982,
      "d": 64.26398437499302,
      "v": 75
    },
    {
      "midi": 43,
      "hit": false,
      "t": 213144.7349999982,
      "d": 64.26398437499302,
      "v": 75
    },
    {
      "midi": 69,
      "hit": false,
      "t": 213144.73500000004,
      "d": 86.9453906250128,
      "v": 96
    },
    {
      "midi": 79,
      "hit": false,
      "t": 213156.07570312516,
      "d": 244.4551562500128,
      "v": 100
    },
    {
      "midi": 43,
      "hit": false,
      "t": 213265.7024999982,
      "d": 64.26398437499302,
      "v": 75
    },
    {
      "midi": 43,
      "hit": false,
      "t": 213386.6699999982,
      "d": 64.26398437499302,
      "v": 75
    },
    {
      "midi": 43,
      "hit": false,
      "t": 213386.6699999987,
      "d": 189.01171875,
      "v": 110
    },
    {
      "midi": 70,
      "hit": false,
      "t": 213386.67000000007,
      "d": 99.54617187500116,
      "v": 93
    },
    {
      "midi": 43,
      "hit": false,
      "t": 213507.6374999982,
      "d": 64.26398437499302,
      "v": 75
    },
    {
      "midi": 43,
      "hit": false,
      "t": 213628.6049999982,
      "d": 64.26398437499302,
      "v": 75
    },
    {
      "midi": 67,
      "hit": false,
      "t": 213628.60500000007,
      "d": 118.4473437500128,
      "v": 86
    },
    {
      "midi": 79,
      "hit": false,
      "t": 213667.66742187517,
      "d": 240.67492187500466,
      "v": 84
    },
    {
      "midi": 43,
      "hit": false,
      "t": 213749.5724999982,
      "d": 64.26398437499302,
      "v": 75
    },
    {
      "midi": 43,
      "hit": false,
      "t": 213749.5724999987,
      "d": 189.01171875,
      "v": 110
    },
    {
      "midi": 43,
      "hit": false,
      "t": 213870.5399999982,
      "d": 64.26398437499302,
      "v": 75
    },
    {
      "midi": 70,
      "hit": false,
      "t": 213870.5400000001,
      "d": 99.54617187500116,
      "v": 90
    },
    {
      "midi": 74,
      "hit": false,
      "t": 213873.06015625005,
      "d": 143.64890624998952,
      "v": 106
    },
    {
      "midi": 43,
      "hit": false,
      "t": 213991.5074999982,
      "d": 64.26398437499302,
      "v": 75
    },
    {
      "midi": 43,
      "hit": false,
      "t": 214112.4749999982,
      "d": 64.26398437499302,
      "v": 75
    },
    {
      "midi": 43,
      "hit": false,
      "t": 214112.4749999987,
      "d": 189.01171875,
      "v": 110
    },
    {
      "midi": 75,
      "hit": false,
      "t": 214112.47500000003,
      "d": 161.29000000000815,
      "v": 106
    },
    {
      "midi": 69,
      "hit": false,
      "t": 214112.4750000001,
      "d": 93.24578125000698,
      "v": 89
    },
    {
      "midi": 79,
      "hit": false,
      "t": 214170.43859375018,
      "d": 236.8946874999965,
      "v": 68
    },
    {
      "midi": 43,
      "hit": false,
      "t": 214233.4424999982,
      "d": 64.26398437499302,
      "v": 75
    },
    {
      "midi": 74,
      "hit": false,
      "t": 214353.14992187504,
      "d": 200.35242187499534,
      "v": 119
    },
    {
      "midi": 43,
      "hit": false,
      "t": 214354.4099999982,
      "d": 64.26398437499302,
      "v": 75
    },
    {
      "midi": 70,
      "hit": false,
      "t": 214354.4100000001,
      "d": 90.72562499999185,
      "v": 105
    },
    {
      "midi": 43,
      "hit": false,
      "t": 214475.3774999982,
      "d": 64.26398437499302,
      "v": 75
    },
    {
      "midi": 77,
      "hit": false,
      "t": 214579.96398437503,
      "d": 461.18859375000466,
      "v": 113
    },
    {
      "midi": 43,
      "hit": false,
      "t": 214596.3449999982,
      "d": 64.26398437499302,
      "v": 75
    },
    {
      "midi": 41,
      "hit": false,
      "t": 214596.3449999987,
      "d": 189.01171875,
      "v": 110
    },
    {
      "midi": 67,
      "hit": false,
      "t": 214596.3450000001,
      "d": 114.66710937500466,
      "v": 89
    },
    {
      "midi": 79,
      "hit": false,
      "t": 214680.77023437517,
      "d": 230.59429687500233,
      "v": 51
    },
    {
      "midi": 43,
      "hit": false,
      "t": 214717.3124999982,
      "d": 64.26398437499302,
      "v": 75
    },
    {
      "midi": 82,
      "hit": false,
      "t": 214772.7559375003,
      "d": 1938.0001562500256,
      "v": 62
    },
    {
      "midi": 46,
      "hit": false,
      "t": 214838.2799999982,
      "d": 64.26398437499302,
      "v": 75
    },
    {
      "midi": 34,
      "hit": false,
      "t": 214838.2799999987,
      "d": 189.01171875,
      "v": 110
    },
    {
      "midi": 70,
      "hit": false,
      "t": 214838.2800000001,
      "d": 102.0663281249872,
      "v": 100
    },
    {
      "midi": 53,
      "hit": false,
      "t": 214838.28000000032,
      "d": 5830.381484375015,
      "v": 62
    },
    {
      "midi": 46,
      "hit": false,
      "t": 214959.2474999982,
      "d": 64.26398437499302,
      "v": 75
    },
    {
      "midi": 74,
      "hit": false,
      "t": 215062.57390625004,
      "d": 332.6606250000186,
      "v": 100
    },
    {
      "midi": 46,
      "hit": false,
      "t": 215080.2149999982,
      "d": 64.26398437499302,
      "v": 75
    },
    {
      "midi": 69,
      "hit": false,
      "t": 215080.21500000008,
      "d": 84.42523437499767,
      "v": 86
    },
    {
      "midi": 79,
      "hit": false,
      "t": 215193.62203125018,
      "d": 244.4551562500128,
      "v": 35
    },
    {
      "midi": 46,
      "hit": false,
      "t": 215201.1824999982,
      "d": 64.26398437499302,
      "v": 75
    },
    {
      "midi": 46,
      "hit": false,
      "t": 215322.1499999982,
      "d": 64.26398437499302,
      "v": 75
    },
    {
      "midi": 34,
      "hit": false,
      "t": 215322.14999999868,
      "d": 189.01171875,
      "v": 110
    },
    {
      "midi": 70,
      "hit": false,
      "t": 215322.15000000008,
      "d": 90.72562499999185,
      "v": 100
    },
    {
      "midi": 46,
      "hit": false,
      "t": 215443.1174999982,
      "d": 64.26398437499302,
      "v": 75
    },
    {
      "midi": 46,
      "hit": false,
      "t": 215564.0849999982,
      "d": 64.26398437499302,
      "v": 75
    },
    {
      "midi": 65,
      "hit": false,
      "t": 215564.08500000008,
      "d": 123.48765625001397,
      "v": 96
    },
    {
      "midi": 46,
      "hit": false,
      "t": 215685.0524999982,
      "d": 64.26398437499302,
      "v": 75
    },
    {
      "midi": 34,
      "hit": false,
      "t": 215685.05249999868,
      "d": 189.01171875,
      "v": 110
    },
    {
      "midi": 79,
      "hit": false,
      "t": 215696.3932031252,
      "d": 192.79195312500815,
      "v": 19
    },
    {
      "midi": 46,
      "hit": false,
      "t": 215806.01999999819,
      "d": 64.26398437499302,
      "v": 75
    },
    {
      "midi": 70,
      "hit": false,
      "t": 215806.0200000001,
      "d": 95.76593749999302,
      "v": 90
    },
    {
      "midi": 46,
      "hit": false,
      "t": 215926.98749999818,
      "d": 64.26398437499302,
      "v": 75
    },
    {
      "midi": 46,
      "hit": false,
      "t": 216047.95499999818,
      "d": 64.26398437499302,
      "v": 75
    },
    {
      "midi": 36,
      "hit": false,
      "t": 216047.95499999868,
      "d": 189.01171875,
      "v": 110
    },
    {
      "midi": 69,
      "hit": false,
      "t": 216047.9550000001,
      "d": 98.28609375000815,
      "v": 87
    },
    {
      "midi": 46,
      "hit": false,
      "t": 216168.92249999818,
      "d": 64.26398437499302,
      "v": 75
    },
    {
      "midi": 74,
      "hit": false,
      "t": 216283.58960937508,
      "d": 180.1911718749907,
      "v": 106
    },
    {
      "midi": 46,
      "hit": false,
      "t": 216289.88999999818,
      "d": 64.26398437499302,
      "v": 75
    },
    {
      "midi": 70,
      "hit": false,
      "t": 216289.8900000001,
      "d": 105.84656249999534,
      "v": 85
    },
    {
      "midi": 46,
      "hit": false,
      "t": 216410.85749999818,
      "d": 64.26398437499302,
      "v": 75
    },
    {
      "midi": 77,
      "hit": false,
      "t": 216529.30484375005,
      "d": 498.99093749999884,
      "v": 103
    },
    {
      "midi": 46,
      "hit": false,
      "t": 216531.82499999818,
      "d": 64.26398437499302,
      "v": 75
    },
    {
      "midi": 38,
      "hit": false,
      "t": 216531.82499999867,
      "d": 189.01171875,
      "v": 110
    },
    {
      "midi": 65,
      "hit": false,
      "t": 216531.8250000001,
      "d": 126.0078125,
      "v": 86
    },
    {
      "midi": 46,
      "hit": false,
      "t": 216652.79249999818,
      "d": 64.26398437499302,
      "v": 75
    },
    {
      "midi": 74,
      "hit": false,
      "t": 216728.39718750032,
      "d": 1924.1392968750151,
      "v": 62
    },
    {
      "midi": 50,
      "hit": false,
      "t": 216773.75999999818,
      "d": 64.26398437499302,
      "v": 75
    },
    {
      "midi": 38,
      "hit": false,
      "t": 216773.75999999867,
      "d": 189.01171875,
      "v": 110
    },
    {
      "midi": 69,
      "hit": false,
      "t": 216773.7600000001,
      "d": 113.40703125001164,
      "v": 96
    },
    {
      "midi": 57,
      "hit": false,
      "t": 216773.76000000033,
      "d": 3886.0809374999953,
      "v": 62
    },
    {
      "midi": 50,
      "hit": false,
      "t": 216894.72749999817,
      "d": 64.26398437499302,
      "v": 75
    },
    {
      "midi": 50,
      "hit": false,
      "t": 217015.69499999817,
      "d": 64.26398437499302,
      "v": 75
    },
    {
      "midi": 67,
      "hit": false,
      "t": 217015.6950000001,
      "d": 105.84656249999534,
      "v": 87
    },
    {
      "midi": 74,
      "hit": false,
      "t": 217039.63648437505,
      "d": 338.9610156249837,
      "v": 103
    },
    {
      "midi": 50,
      "hit": false,
      "t": 217136.66249999817,
      "d": 64.26398437499302,
      "v": 75
    },
    {
      "midi": 50,
      "hit": false,
      "t": 217257.62999999817,
      "d": 64.26398437499302,
      "v": 75
    },
    {
      "midi": 38,
      "hit": false,
      "t": 217257.62999999867,
      "d": 189.01171875,
      "v": 110
    },
    {
      "midi": 69,
      "hit": false,
      "t": 217257.6300000001,
      "d": 88.20546875000582,
      "v": 94
    },
    {
      "midi": 50,
      "hit": false,
      "t": 217378.59749999817,
      "d": 64.26398437499302,
      "v": 75
    },
    {
      "midi": 50,
      "hit": false,
      "t": 217499.56499999817,
      "d": 64.26398437499302,
      "v": 75
    },
    {
      "midi": 65,
      "hit": false,
      "t": 217499.5650000001,
      "d": 109.62679687500349,
      "v": 94
    },
    {
      "midi": 50,
      "hit": false,
      "t": 217620.53249999817,
      "d": 64.26398437499302,
      "v": 75
    },
    {
      "midi": 38,
      "hit": false,
      "t": 217620.53249999866,
      "d": 189.01171875,
      "v": 110
    },
    {
      "midi": 50,
      "hit": false,
      "t": 217741.49999999817,
      "d": 64.26398437499302,
      "v": 75
    },
    {
      "midi": 69,
      "hit": false,
      "t": 217741.5000000001,
      "d": 97.02601562498603,
      "v": 92
    },
    {
      "midi": 50,
      "hit": false,
      "t": 217862.46749999817,
      "d": 64.26398437499302,
      "v": 75
    },
    {
      "midi": 50,
      "hit": false,
      "t": 217983.43499999816,
      "d": 64.26398437499302,
      "v": 75
    },
    {
      "midi": 38,
      "hit": false,
      "t": 217983.43499999866,
      "d": 189.01171875,
      "v": 110
    },
    {
      "midi": 67,
      "hit": false,
      "t": 217983.43500000008,
      "d": 81.90507812501164,
      "v": 90
    },
    {
      "midi": 50,
      "hit": false,
      "t": 218104.40249999816,
      "d": 64.26398437499302,
      "v": 75
    },
    {
      "midi": 74,
      "hit": false,
      "t": 218219.06960937503,
      "d": 234.37453125001048,
      "v": 117
    },
    {
      "midi": 50,
      "hit": false,
      "t": 218225.36999999816,
      "d": 64.26398437499302,
      "v": 75
    },
    {
      "midi": 69,
      "hit": false,
      "t": 218225.37000000008,
      "d": 88.20546875000582,
      "v": 96
    },
    {
      "midi": 50,
      "hit": false,
      "t": 218346.33749999816,
      "d": 64.26398437499302,
      "v": 75
    },
    {
      "midi": 50,
      "hit": false,
      "t": 218467.30499999816,
      "d": 64.26398437499302,
      "v": 75
    },
    {
      "midi": 38,
      "hit": false,
      "t": 218467.30499999865,
      "d": 189.01171875,
      "v": 110
    },
    {
      "midi": 65,
      "hit": false,
      "t": 218467.30500000008,
      "d": 103.32640625000931,
      "v": 92
    },
    {
      "midi": 72,
      "hit": false,
      "t": 218479.90578125004,
      "d": 507.81148437500815,
      "v": 100
    },
    {
      "midi": 50,
      "hit": false,
      "t": 218588.27249999816,
      "d": 64.26398437499302,
      "v": 75
    },
    {
      "midi": 60,
      "hit": false,
      "t": 218588.27250000034,
      "d": 1992.1835156249872,
      "v": 62
    },
    {
      "midi": 72,
      "hit": false,
      "t": 218661.3570312503,
      "d": 1973.2823437500047,
      "v": 62
    },
    {
      "midi": 48,
      "hit": false,
      "t": 218709.23999999816,
      "d": 64.26398437499302,
      "v": 75
    },
    {
      "midi": 41,
      "hit": false,
      "t": 218709.23999999865,
      "d": 189.01171875,
      "v": 110
    },
    {
      "midi": 69,
      "hit": false,
      "t": 218709.24000000008,
      "d": 81.90507812501164,
      "v": 100
    },
    {
      "midi": 48,
      "hit": false,
      "t": 218830.20749999816,
      "d": 64.26398437499302,
      "v": 75
    },
    {
      "midi": 48,
      "hit": false,
      "t": 218951.17499999815,
      "d": 64.26398437499302,
      "v": 75
    },
    {
      "midi": 67,
      "hit": false,
      "t": 218951.17500000008,
      "d": 104.58648437500233,
      "v": 87
    },
    {
      "midi": 48,
      "hit": false,
      "t": 219072.14249999815,
      "d": 64.26398437499302,
      "v": 75
    },
    {
      "midi": 48,
      "hit": false,
      "t": 219193.10999999815,
      "d": 64.26398437499302,
      "v": 75
    },
    {
      "midi": 41,
      "hit": false,
      "t": 219193.10999999865,
      "d": 189.01171875,
      "v": 110
    },
    {
      "midi": 69,
      "hit": false,
      "t": 219193.11000000007,
      "d": 94.505859375,
      "v": 92
    },
    {
      "midi": 48,
      "hit": false,
      "t": 219314.07749999815,
      "d": 64.26398437499302,
      "v": 75
    },
    {
      "midi": 48,
      "hit": false,
      "t": 219435.04499999815,
      "d": 64.26398437499302,
      "v": 75
    },
    {
      "midi": 65,
      "hit": false,
      "t": 219435.04500000007,
      "d": 114.66710937500466,
      "v": 92
    },
    {
      "midi": 48,
      "hit": false,
      "t": 219556.01249999815,
      "d": 64.26398437499302,
      "v": 75
    },
    {
      "midi": 41,
      "hit": false,
      "t": 219556.01249999864,
      "d": 189.01171875,
      "v": 110
    },
    {
      "midi": 48,
      "hit": false,
      "t": 219676.97999999815,
      "d": 64.26398437499302,
      "v": 75
    },
    {
      "midi": 69,
      "hit": false,
      "t": 219676.98000000007,
      "d": 100.80624999999418,
      "v": 92
    },
    {
      "midi": 48,
      "hit": false,
      "t": 219797.94749999815,
      "d": 64.26398437499302,
      "v": 75
    },
    {
      "midi": 48,
      "hit": false,
      "t": 219918.91499999815,
      "d": 64.26398437499302,
      "v": 75
    },
    {
      "midi": 38,
      "hit": false,
      "t": 219918.91499999864,
      "d": 189.01171875,
      "v": 110
    },
    {
      "midi": 67,
      "hit": false,
      "t": 219918.91500000007,
      "d": 97.02601562498603,
      "v": 87
    },
    {
      "midi": 48,
      "hit": false,
      "t": 220039.88249999814,
      "d": 64.26398437499302,
      "v": 75
    },
    {
      "midi": 48,
      "hit": false,
      "t": 220160.84999999814,
      "d": 64.26398437499302,
      "v": 75
    },
    {
      "midi": 79,
      "hit": false,
      "t": 220160.85000000003,
      "d": 480.0897656249872,
      "v": 109
    },
    {
      "midi": 69,
      "hit": false,
      "t": 220160.85000000006,
      "d": 94.505859375,
      "v": 94
    },
    {
      "midi": 48,
      "hit": false,
      "t": 220281.81749999814,
      "d": 64.26398437499302,
      "v": 75
    },
    {
      "midi": 48,
      "hit": false,
      "t": 220402.78499999814,
      "d": 64.26398437499302,
      "v": 75
    },
    {
      "midi": 41,
      "hit": false,
      "t": 220402.78499999864,
      "d": 189.01171875,
      "v": 110
    },
    {
      "midi": 65,
      "hit": false,
      "t": 220402.78500000006,
      "d": 122.22757812499185,
      "v": 92
    },
    {
      "midi": 48,
      "hit": false,
      "t": 220523.75249999814,
      "d": 64.26398437499302,
      "v": 75
    },
    {
      "midi": 77,
      "hit": false,
      "t": 220633.37929687503,
      "d": 495.2107031249907,
      "v": 106
    },
    {
      "midi": 43,
      "hit": false,
      "t": 220644.71999999814,
      "d": 64.26398437499302,
      "v": 75
    },
    {
      "midi": 43,
      "hit": false,
      "t": 220644.71999999863,
      "d": 189.01171875,
      "v": 110
    },
    {
      "midi": 43,
      "hit": false,
      "t": 220644.72000000006,
      "d": 241.93499999999767,
      "v": 98
    },
    {
      "midi": 55,
      "hit": false,
      "t": 220644.72000000006,
      "d": 241.93499999999767,
      "v": 98
    },
    {
      "midi": 55,
      "hit": false,
      "t": 220644.72000000032,
      "d": 1794.351250000007,
      "v": 64
    },
    {
      "midi": 74,
      "hit": false,
      "t": 220644.72000000032,
      "d": 1874.9962499999965,
      "v": 64
    },
    {
      "midi": 79,
      "hit": false,
      "t": 220644.72000000032,
      "d": 1898.9377343750093,
      "v": 64
    },
    {
      "midi": 58,
      "hit": false,
      "t": 220644.72000000032,
      "d": 3840.718125000014,
      "v": 64
    },
    {
      "midi": 62,
      "hit": false,
      "t": 220644.72000000032,
      "d": 5752.256640625012,
      "v": 64
    },
    {
      "midi": 43,
      "hit": false,
      "t": 220765.68749999814,
      "d": 64.26398437499302,
      "v": 75
    },
    {
      "midi": 43,
      "hit": false,
      "t": 220886.65499999814,
      "d": 64.26398437499302,
      "v": 75
    },
    {
      "midi": 43,
      "hit": false,
      "t": 221007.62249999814,
      "d": 64.26398437499302,
      "v": 75
    },
    {
      "midi": 43,
      "hit": false,
      "t": 221128.58999999813,
      "d": 64.26398437499302,
      "v": 75
    },
    {
      "midi": 43,
      "hit": false,
      "t": 221128.58999999863,
      "d": 189.01171875,
      "v": 110
    },
    {
      "midi": 43,
      "hit": false,
      "t": 221128.59000000005,
      "d": 241.93499999999767,
      "v": 101
    },
    {
      "midi": 55,
      "hit": false,
      "t": 221128.59000000005,
      "d": 241.93499999999767,
      "v": 101
    },
    {
      "midi": 43,
      "hit": false,
      "t": 221249.55749999813,
      "d": 64.26398437499302,
      "v": 75
    },
    {
      "midi": 43,
      "hit": false,
      "t": 221370.52499999813,
      "d": 64.26398437499302,
      "v": 75
    },
    {
      "midi": 43,
      "hit": false,
      "t": 221491.49249999813,
      "d": 64.26398437499302,
      "v": 75
    },
    {
      "midi": 43,
      "hit": false,
      "t": 221491.49249999863,
      "d": 189.01171875,
      "v": 110
    },
    {
      "midi": 74,
      "hit": false,
      "t": 221599.85921875067,
      "d": 255.79585937500815,
      "v": 116
    },
    {
      "midi": 43,
      "hit": false,
      "t": 221612.45999999813,
      "d": 64.26398437499302,
      "v": 75
    },
    {
      "midi": 43,
      "hit": false,
      "t": 221733.42749999813,
      "d": 64.26398437499302,
      "v": 75
    },
    {
      "midi": 77,
      "hit": false,
      "t": 221845.57445312568,
      "d": 225.55398437500116,
      "v": 116
    },
    {
      "midi": 43,
      "hit": false,
      "t": 221854.39499999813,
      "d": 64.26398437499302,
      "v": 75
    },
    {
      "midi": 43,
      "hit": false,
      "t": 221854.39499999862,
      "d": 189.01171875,
      "v": 110
    },
    {
      "midi": 43,
      "hit": false,
      "t": 221975.36249999813,
      "d": 64.26398437499302,
      "v": 75
    },
    {
      "midi": 79,
      "hit": false,
      "t": 222050.96718750068,
      "d": 270.91679687501164,
      "v": 116
    },
    {
      "midi": 43,
      "hit": false,
      "t": 222096.32999999812,
      "d": 64.26398437499302,
      "v": 75
    },
    {
      "midi": 43,
      "hit": false,
      "t": 222217.29749999812,
      "d": 64.26398437499302,
      "v": 75
    },
    {
      "midi": 82,
      "hit": false,
      "t": 222321.8839843757,
      "d": 258.3160156249942,
      "v": 113
    },
    {
      "midi": 43,
      "hit": false,
      "t": 222338.26499999812,
      "d": 64.26398437499302,
      "v": 75
    },
    {
      "midi": 41,
      "hit": false,
      "t": 222338.26499999862,
      "d": 189.01171875,
      "v": 110
    },
    {
      "midi": 43,
      "hit": false,
      "t": 222459.23249999812,
      "d": 64.26398437499302,
      "v": 75
    },
    {
      "midi": 82,
      "hit": false,
      "t": 222514.67593750032,
      "d": 1938.0001562500256,
      "v": 64
    },
    {
      "midi": 84,
      "hit": false,
      "t": 222558.77867187568,
      "d": 224.29390625000815,
      "v": 110
    },
    {
      "midi": 46,
      "hit": false,
      "t": 222580.19999999812,
      "d": 64.26398437499302,
      "v": 75
    },
    {
      "midi": 34,
      "hit": false,
      "t": 222580.19999999861,
      "d": 189.01171875,
      "v": 110
    },
    {
      "midi": 77,
      "hit": false,
      "t": 222580.20000000033,
      "d": 1814.5125000000116,
      "v": 64
    },
    {
      "midi": 53,
      "hit": false,
      "t": 222580.20000000033,
      "d": 5830.381484375015,
      "v": 64
    },
    {
      "midi": 46,
      "hit": false,
      "t": 222701.16749999812,
      "d": 64.26398437499302,
      "v": 75
    },
    {
      "midi": 86,
      "hit": false,
      "t": 222814.5745312507,
      "d": 240.67492187500466,
      "v": 110
    },
    {
      "midi": 46,
      "hit": false,
      "t": 222822.13499999812,
      "d": 64.26398437499302,
      "v": 75
    },
    {
      "midi": 46,
      "hit": false,
      "t": 222943.10249999812,
      "d": 64.26398437499302,
      "v": 75
    },
    {
      "midi": 84,
      "hit": false,
      "t": 223041.3885937507,
      "d": 269.6567187500186,
      "v": 110
    },
    {
      "midi": 46,
      "hit": false,
      "t": 223064.06999999812,
      "d": 64.26398437499302,
      "v": 75
    },
    {
      "midi": 34,
      "hit": false,
      "t": 223064.0699999986,
      "d": 189.01171875,
      "v": 110
    },
    {
      "midi": 46,
      "hit": false,
      "t": 223185.0374999981,
      "d": 64.26398437499302,
      "v": 75
    },
    {
      "midi": 46,
      "hit": false,
      "t": 223306.0049999981,
      "d": 64.26398437499302,
      "v": 75
    },
    {
      "midi": 82,
      "hit": false,
      "t": 223324.90617187571,
      "d": 458.6684374999895,
      "v": 110
    },
    {
      "midi": 46,
      "hit": false,
      "t": 223426.9724999981,
      "d": 64.26398437499302,
      "v": 75
    },
    {
      "midi": 34,
      "hit": false,
      "t": 223426.9724999986,
      "d": 189.01171875,
      "v": 110
    },
    {
      "midi": 46,
      "hit": false,
      "t": 223547.9399999981,
      "d": 64.26398437499302,
      "v": 75
    },
    {
      "midi": 46,
      "hit": false,
      "t": 223668.9074999981,
      "d": 64.26398437499302,
      "v": 75
    },
    {
      "midi": 46,
      "hit": false,
      "t": 223789.8749999981,
      "d": 64.26398437499302,
      "v": 75
    },
    {
      "midi": 36,
      "hit": false,
      "t": 223789.8749999986,
      "d": 189.01171875,
      "v": 110
    },
    {
      "midi": 79,
      "hit": false,
      "t": 223799.9556250007,
      "d": 352.8218749999942,
      "v": 110
    },
    {
      "midi": 46,
      "hit": false,
      "t": 223910.8424999981,
      "d": 64.26398437499302,
      "v": 75
    },
    {
      "midi": 46,
      "hit": false,
      "t": 224031.8099999981,
      "d": 64.26398437499302,
      "v": 75
    },
    {
      "midi": 46,
      "hit": false,
      "t": 224152.7774999981,
      "d": 64.26398437499302,
      "v": 75
    },
    {
      "midi": 46,
      "hit": false,
      "t": 224273.7449999981,
      "d": 64.26398437499302,
      "v": 75
    },
    {
      "midi": 38,
      "hit": false,
      "t": 224273.7449999986,
      "d": 189.01171875,
      "v": 110
    },
    {
      "midi": 79,
      "hit": false,
      "t": 224273.7450000007,
      "d": 241.93499999999767,
      "v": 110
    },
    {
      "midi": 46,
      "hit": false,
      "t": 224394.7124999981,
      "d": 64.26398437499302,
      "v": 75
    },
    {
      "midi": 74,
      "hit": false,
      "t": 224470.31718750033,
      "d": 1924.1392968750151,
      "v": 64
    },
    {
      "midi": 84,
      "hit": false,
      "t": 224487.9582812507,
      "d": 216.73343749999185,
      "v": 110
    },
    {
      "midi": 50,
      "hit": false,
      "t": 224515.6799999981,
      "d": 64.26398437499302,
      "v": 75
    },
    {
      "midi": 38,
      "hit": false,
      "t": 224515.6799999986,
      "d": 189.01171875,
      "v": 110
    },
    {
      "midi": 77,
      "hit": false,
      "t": 224515.68000000034,
      "d": 3870.959999999992,
      "v": 64
    },
    {
      "midi": 57,
      "hit": false,
      "t": 224515.68000000034,
      "d": 3886.0809374999953,
      "v": 64
    },
    {
      "midi": 50,
      "hit": false,
      "t": 224636.6474999981,
      "d": 64.26398437499302,
      "v": 75
    },
    {
      "midi": 86,
      "hit": false,
      "t": 224732.41343750068,
      "d": 244.4551562500128,
      "v": 110
    },
    {
      "midi": 50,
      "hit": false,
      "t": 224757.6149999981,
      "d": 64.26398437499302,
      "v": 75
    },
    {
      "midi": 50,
      "hit": false,
      "t": 224878.5824999981,
      "d": 64.26398437499302,
      "v": 75
    },
    {
      "midi": 84,
      "hit": false,
      "t": 224968.0480468757,
      "d": 263.35632812499534,
      "v": 116
    },
    {
      "midi": 50,
      "hit": false,
      "t": 224999.5499999981,
      "d": 64.26398437499302,
      "v": 75
    },
    {
      "midi": 38,
      "hit": false,
      "t": 224999.5499999986,
      "d": 189.01171875,
      "v": 110
    },
    {
      "midi": 50,
      "hit": false,
      "t": 225120.5174999981,
      "d": 64.26398437499302,
      "v": 75
    },
    {
      "midi": 50,
      "hit": false,
      "t": 225241.4849999981,
      "d": 64.26398437499302,
      "v": 75
    },
    {
      "midi": 82,
      "hit": false,
      "t": 225241.48500000068,
      "d": 448.5878124999872,
      "v": 119
    },
    {
      "midi": 50,
      "hit": false,
      "t": 225362.4524999981,
      "d": 64.26398437499302,
      "v": 75
    },
    {
      "midi": 38,
      "hit": false,
      "t": 225362.4524999986,
      "d": 189.01171875,
      "v": 110
    },
    {
      "midi": 50,
      "hit": false,
      "t": 225483.4199999981,
      "d": 64.26398437499302,
      "v": 75
    },
    {
      "midi": 50,
      "hit": false,
      "t": 225604.3874999981,
      "d": 64.26398437499302,
      "v": 75
    },
    {
      "midi": 50,
      "hit": false,
      "t": 225725.3549999981,
      "d": 64.26398437499302,
      "v": 75
    },
    {
      "midi": 38,
      "hit": false,
      "t": 225725.35499999858,
      "d": 189.01171875,
      "v": 110
    },
    {
      "midi": 79,
      "hit": false,
      "t": 225725.35500000068,
      "d": 337.7009374999907,
      "v": 119
    },
    {
      "midi": 50,
      "hit": false,
      "t": 225846.3224999981,
      "d": 64.26398437499302,
      "v": 75
    },
    {
      "midi": 50,
      "hit": false,
      "t": 225967.2899999981,
      "d": 64.26398437499302,
      "v": 75
    },
    {
      "midi": 50,
      "hit": false,
      "t": 226088.2574999981,
      "d": 64.26398437499302,
      "v": 75
    },
    {
      "midi": 50,
      "hit": false,
      "t": 226209.22499999808,
      "d": 64.26398437499302,
      "v": 75
    },
    {
      "midi": 38,
      "hit": false,
      "t": 226209.22499999858,
      "d": 189.01171875,
      "v": 110
    },
    {
      "midi": 50,
      "hit": false,
      "t": 226330.19249999808,
      "d": 64.26398437499302,
      "v": 75
    },
    {
      "midi": 60,
      "hit": false,
      "t": 226330.19250000035,
      "d": 1992.1835156249872,
      "v": 65
    },
    {
      "midi": 72,
      "hit": false,
      "t": 226403.27703125033,
      "d": 1973.2823437500047,
      "v": 65
    },
    {
      "midi": 48,
      "hit": false,
      "t": 226451.15999999808,
      "d": 64.26398437499302,
      "v": 75
    },
    {
      "midi": 41,
      "hit": false,
      "t": 226451.15999999858,
      "d": 189.01171875,
      "v": 110
    },
    {
      "midi": 84,
      "hit": false,
      "t": 226461.24062500068,
      "d": 969.0000781250419,
      "v": 122
    },
    {
      "midi": 48,
      "hit": false,
      "t": 226572.12749999808,
      "d": 64.26398437499302,
      "v": 75
    },
    {
      "midi": 48,
      "hit": false,
      "t": 226693.09499999808,
      "d": 64.26398437499302,
      "v": 75
    },
    {
      "midi": 48,
      "hit": false,
      "t": 226814.06249999808,
      "d": 64.26398437499302,
      "v": 75
    },
    {
      "midi": 48,
      "hit": false,
      "t": 226935.02999999808,
      "d": 64.26398437499302,
      "v": 75
    },
    {
      "midi": 41,
      "hit": false,
      "t": 226935.02999999857,
      "d": 189.01171875,
      "v": 110
    },
    {
      "midi": 48,
      "hit": false,
      "t": 227055.99749999808,
      "d": 64.26398437499302,
      "v": 75
    },
    {
      "midi": 48,
      "hit": false,
      "t": 227176.96499999808,
      "d": 64.26398437499302,
      "v": 75
    },
    {
      "midi": 48,
      "hit": false,
      "t": 227297.93249999807,
      "d": 64.26398437499302,
      "v": 75
    },
    {
      "midi": 41,
      "hit": false,
      "t": 227297.93249999857,
      "d": 189.01171875,
      "v": 110
    },
    {
      "midi": 82,
      "hit": false,
      "t": 227416.3798437507,
      "d": 480.0897656250163,
      "v": 113
    },
    {
      "midi": 48,
      "hit": false,
      "t": 227418.89999999807,
      "d": 64.26398437499302,
      "v": 75
    },
    {
      "midi": 48,
      "hit": false,
      "t": 227539.86749999807,
      "d": 64.26398437499302,
      "v": 75
    },
    {
      "midi": 48,
      "hit": false,
      "t": 227660.83499999807,
      "d": 64.26398437499302,
      "v": 75
    },
    {
      "midi": 38,
      "hit": false,
      "t": 227660.83499999857,
      "d": 189.01171875,
      "v": 110
    },
    {
      "midi": 48,
      "hit": false,
      "t": 227781.80249999807,
      "d": 64.26398437499302,
      "v": 75
    },
    {
      "midi": 48,
      "hit": false,
      "t": 227902.76999999807,
      "d": 64.26398437499302,
      "v": 75
    },
    {
      "midi": 48,
      "hit": false,
      "t": 228023.73749999807,
      "d": 64.26398437499302,
      "v": 75
    },
    {
      "midi": 48,
      "hit": false,
      "t": 228144.70499999807,
      "d": 64.26398437499302,
      "v": 75
    },
    {
      "midi": 41,
      "hit": false,
      "t": 228144.70499999856,
      "d": 189.01171875,
      "v": 110
    },
    {
      "midi": 48,
      "hit": false,
      "t": 228265.67249999807,
      "d": 64.26398437499302,
      "v": 75
    },
    {
      "midi": 43,
      "hit": false,
      "t": 228386.63999999806,
      "d": 64.26398437499302,
      "v": 75
    },
    {
      "midi": 43,
      "hit": false,
      "t": 228386.63999999856,
      "d": 189.01171875,
      "v": 110
    },
    {
      "midi": 43,
      "hit": false,
      "t": 228386.64000000004,
      "d": 241.93499999999767,
      "v": 98
    },
    {
      "midi": 55,
      "hit": false,
      "t": 228386.64000000004,
      "d": 241.93499999999767,
      "v": 98
    },
    {
      "midi": 55,
      "hit": false,
      "t": 228386.64000000033,
      "d": 1794.351250000007,
      "v": 64
    },
    {
      "midi": 74,
      "hit": false,
      "t": 228386.64000000033,
      "d": 1874.9962499999965,
      "v": 64
    },
    {
      "midi": 79,
      "hit": false,
      "t": 228386.64000000033,
      "d": 1898.9377343750093,
      "v": 64
    },
    {
      "midi": 58,
      "hit": false,
      "t": 228386.64000000033,
      "d": 3840.718125000014,
      "v": 64
    },
    {
      "midi": 62,
      "hit": false,
      "t": 228386.64000000033,
      "d": 5752.256640625012,
      "v": 64
    },
    {
      "midi": 43,
      "hit": false,
      "t": 228507.60749999806,
      "d": 64.26398437499302,
      "v": 75
    },
    {
      "midi": 43,
      "hit": false,
      "t": 228628.57499999806,
      "d": 64.26398437499302,
      "v": 75
    },
    {
      "midi": 43,
      "hit": false,
      "t": 228749.54249999806,
      "d": 64.26398437499302,
      "v": 75
    },
    {
      "midi": 43,
      "hit": false,
      "t": 228870.50999999806,
      "d": 64.26398437499302,
      "v": 75
    },
    {
      "midi": 43,
      "hit": false,
      "t": 228870.50999999855,
      "d": 189.01171875,
      "v": 110
    },
    {
      "midi": 43,
      "hit": false,
      "t": 228870.51000000004,
      "d": 241.93499999999767,
      "v": 101
    },
    {
      "midi": 55,
      "hit": false,
      "t": 228870.51000000004,
      "d": 241.93499999999767,
      "v": 101
    },
    {
      "midi": 43,
      "hit": false,
      "t": 228991.47749999806,
      "d": 64.26398437499302,
      "v": 75
    },
    {
      "midi": 43,
      "hit": false,
      "t": 229112.44499999806,
      "d": 64.26398437499302,
      "v": 75
    },
    {
      "midi": 43,
      "hit": false,
      "t": 229233.41249999806,
      "d": 64.26398437499302,
      "v": 75
    },
    {
      "midi": 43,
      "hit": false,
      "t": 229233.41249999855,
      "d": 189.01171875,
      "v": 110
    },
    {
      "midi": 74,
      "hit": false,
      "t": 229341.77921875071,
      "d": 255.79585937500815,
      "v": 116
    },
    {
      "midi": 43,
      "hit": false,
      "t": 229354.37999999805,
      "d": 64.26398437499302,
      "v": 75
    },
    {
      "midi": 43,
      "hit": false,
      "t": 229475.34749999805,
      "d": 64.26398437499302,
      "v": 75
    },
    {
      "midi": 77,
      "hit": false,
      "t": 229587.49445312572,
      "d": 225.55398437500116,
      "v": 116
    },
    {
      "midi": 43,
      "hit": false,
      "t": 229596.31499999805,
      "d": 64.26398437499302,
      "v": 75
    },
    {
      "midi": 43,
      "hit": false,
      "t": 229596.31499999855,
      "d": 189.01171875,
      "v": 110
    },
    {
      "midi": 43,
      "hit": false,
      "t": 229717.28249999805,
      "d": 64.26398437499302,
      "v": 75
    },
    {
      "midi": 79,
      "hit": false,
      "t": 229792.88718750072,
      "d": 270.91679687501164,
      "v": 116
    },
    {
      "midi": 43,
      "hit": false,
      "t": 229838.24999999805,
      "d": 64.26398437499302,
      "v": 75
    },
    {
      "midi": 43,
      "hit": false,
      "t": 229959.21749999805,
      "d": 64.26398437499302,
      "v": 75
    },
    {
      "midi": 82,
      "hit": false,
      "t": 230063.80398437573,
      "d": 258.3160156249942,
      "v": 113
    },
    {
      "midi": 43,
      "hit": false,
      "t": 230080.18499999805,
      "d": 64.26398437499302,
      "v": 75
    },
    {
      "midi": 41,
      "hit": false,
      "t": 230080.18499999854,
      "d": 189.01171875,
      "v": 110
    },
    {
      "midi": 43,
      "hit": false,
      "t": 230201.15249999805,
      "d": 64.26398437499302,
      "v": 75
    },
    {
      "midi": 82,
      "hit": false,
      "t": 230256.59593750033,
      "d": 1938.0001562500256,
      "v": 64
    },
    {
      "midi": 84,
      "hit": false,
      "t": 230300.69867187573,
      "d": 224.29390625000815,
      "v": 110
    },
    {
      "midi": 46,
      "hit": false,
      "t": 230322.11999999805,
      "d": 64.26398437499302,
      "v": 75
    },
    {
      "midi": 34,
      "hit": false,
      "t": 230322.11999999854,
      "d": 189.01171875,
      "v": 110
    },
    {
      "midi": 77,
      "hit": false,
      "t": 230322.12000000034,
      "d": 1814.5125000000116,
      "v": 64
    },
    {
      "midi": 53,
      "hit": false,
      "t": 230322.12000000034,
      "d": 5830.381484375015,
      "v": 64
    },
    {
      "midi": 46,
      "hit": false,
      "t": 230443.08749999804,
      "d": 64.26398437499302,
      "v": 75
    },
    {
      "midi": 86,
      "hit": false,
      "t": 230556.49453125073,
      "d": 240.67492187500466,
      "v": 110
    },
    {
      "midi": 46,
      "hit": false,
      "t": 230564.05499999804,
      "d": 64.26398437499302,
      "v": 75
    },
    {
      "midi": 46,
      "hit": false,
      "t": 230685.02249999804,
      "d": 64.26398437499302,
      "v": 75
    },
    {
      "midi": 84,
      "hit": false,
      "t": 230783.30859375073,
      "d": 269.6567187500186,
      "v": 110
    },
    {
      "midi": 46,
      "hit": false,
      "t": 230805.98999999804,
      "d": 64.26398437499302,
      "v": 75
    },
    {
      "midi": 34,
      "hit": false,
      "t": 230805.98999999854,
      "d": 189.01171875,
      "v": 110
    },
    {
      "midi": 46,
      "hit": false,
      "t": 230926.95749999804,
      "d": 64.26398437499302,
      "v": 75
    },
    {
      "midi": 46,
      "hit": false,
      "t": 231047.92499999804,
      "d": 64.26398437499302,
      "v": 75
    },
    {
      "midi": 82,
      "hit": false,
      "t": 231066.82617187576,
      "d": 458.6684374999895,
      "v": 110
    },
    {
      "midi": 46,
      "hit": false,
      "t": 231168.89249999804,
      "d": 64.26398437499302,
      "v": 75
    },
    {
      "midi": 34,
      "hit": false,
      "t": 231168.89249999853,
      "d": 189.01171875,
      "v": 110
    },
    {
      "midi": 46,
      "hit": false,
      "t": 231289.85999999804,
      "d": 64.26398437499302,
      "v": 75
    },
    {
      "midi": 46,
      "hit": false,
      "t": 231410.82749999803,
      "d": 64.26398437499302,
      "v": 75
    },
    {
      "midi": 46,
      "hit": false,
      "t": 231531.79499999803,
      "d": 64.26398437499302,
      "v": 75
    },
    {
      "midi": 36,
      "hit": false,
      "t": 231531.79499999853,
      "d": 189.01171875,
      "v": 110
    },
    {
      "midi": 79,
      "hit": false,
      "t": 231541.87562500074,
      "d": 352.8218749999942,
      "v": 110
    },
    {
      "midi": 46,
      "hit": false,
      "t": 231652.76249999803,
      "d": 64.26398437499302,
      "v": 75
    },
    {
      "midi": 46,
      "hit": false,
      "t": 231773.72999999803,
      "d": 64.26398437499302,
      "v": 75
    },
    {
      "midi": 46,
      "hit": false,
      "t": 231894.69749999803,
      "d": 64.26398437499302,
      "v": 75
    },
    {
      "midi": 46,
      "hit": false,
      "t": 232015.66499999803,
      "d": 64.26398437499302,
      "v": 75
    },
    {
      "midi": 38,
      "hit": false,
      "t": 232015.66499999852,
      "d": 189.01171875,
      "v": 110
    },
    {
      "midi": 79,
      "hit": false,
      "t": 232015.66500000074,
      "d": 241.93499999999767,
      "v": 110
    },
    {
      "midi": 46,
      "hit": false,
      "t": 232136.63249999803,
      "d": 64.26398437499302,
      "v": 75
    },
    {
      "midi": 74,
      "hit": false,
      "t": 232212.23718750034,
      "d": 1924.1392968750151,
      "v": 64
    },
    {
      "midi": 84,
      "hit": false,
      "t": 232229.87828125074,
      "d": 216.73343749999185,
      "v": 110
    },
    {
      "midi": 50,
      "hit": false,
      "t": 232257.59999999803,
      "d": 64.26398437499302,
      "v": 75
    },
    {
      "midi": 38,
      "hit": false,
      "t": 232257.59999999852,
      "d": 189.01171875,
      "v": 110
    },
    {
      "midi": 77,
      "hit": false,
      "t": 232257.60000000036,
      "d": 3870.959999999992,
      "v": 64
    },
    {
      "midi": 57,
      "hit": false,
      "t": 232257.60000000036,
      "d": 3886.0809374999953,
      "v": 64
    },
    {
      "midi": 50,
      "hit": false,
      "t": 232378.56749999803,
      "d": 64.26398437499302,
      "v": 75
    },
    {
      "midi": 86,
      "hit": false,
      "t": 232474.33343750073,
      "d": 244.4551562500128,
      "v": 110
    },
    {
      "midi": 50,
      "hit": false,
      "t": 232499.53499999802,
      "d": 64.26398437499302,
      "v": 75
    },
    {
      "midi": 50,
      "hit": false,
      "t": 232620.50249999802,
      "d": 64.26398437499302,
      "v": 75
    },
    {
      "midi": 84,
      "hit": false,
      "t": 232709.96804687573,
      "d": 263.35632812499534,
      "v": 116
    },
    {
      "midi": 50,
      "hit": false,
      "t": 232741.46999999802,
      "d": 64.26398437499302,
      "v": 75
    },
    {
      "midi": 38,
      "hit": false,
      "t": 232741.46999999852,
      "d": 189.01171875,
      "v": 110
    },
    {
      "midi": 50,
      "hit": false,
      "t": 232862.43749999802,
      "d": 64.26398437499302,
      "v": 75
    },
    {
      "midi": 50,
      "hit": false,
      "t": 232983.40499999802,
      "d": 64.26398437499302,
      "v": 75
    },
    {
      "midi": 82,
      "hit": false,
      "t": 232983.40500000073,
      "d": 448.5878124999872,
      "v": 119
    },
    {
      "midi": 50,
      "hit": false,
      "t": 233104.37249999802,
      "d": 64.26398437499302,
      "v": 75
    },
    {
      "midi": 38,
      "hit": false,
      "t": 233104.3724999985,
      "d": 189.01171875,
      "v": 110
    },
    {
      "midi": 50,
      "hit": false,
      "t": 233225.33999999802,
      "d": 64.26398437499302,
      "v": 75
    },
    {
      "midi": 50,
      "hit": false,
      "t": 233346.30749999802,
      "d": 64.26398437499302,
      "v": 75
    },
    {
      "midi": 50,
      "hit": false,
      "t": 233467.27499999802,
      "d": 64.26398437499302,
      "v": 75
    },
    {
      "midi": 38,
      "hit": false,
      "t": 233467.2749999985,
      "d": 189.01171875,
      "v": 110
    },
    {
      "midi": 79,
      "hit": false,
      "t": 233467.27500000072,
      "d": 337.7009374999907,
      "v": 119
    },
    {
      "midi": 50,
      "hit": false,
      "t": 233588.242499998,
      "d": 64.26398437499302,
      "v": 75
    },
    {
      "midi": 50,
      "hit": false,
      "t": 233709.209999998,
      "d": 64.26398437499302,
      "v": 75
    },
    {
      "midi": 50,
      "hit": false,
      "t": 233830.177499998,
      "d": 64.26398437499302,
      "v": 75
    },
    {
      "midi": 50,
      "hit": false,
      "t": 233951.144999998,
      "d": 64.26398437499302,
      "v": 75
    },
    {
      "midi": 38,
      "hit": false,
      "t": 233951.1449999985,
      "d": 189.01171875,
      "v": 110
    },
    {
      "midi": 50,
      "hit": false,
      "t": 234072.112499998,
      "d": 64.26398437499302,
      "v": 75
    },
    {
      "midi": 60,
      "hit": false,
      "t": 234072.11250000037,
      "d": 1992.1835156249872,
      "v": 65
    },
    {
      "midi": 72,
      "hit": false,
      "t": 234145.19703125034,
      "d": 1973.2823437500047,
      "v": 65
    },
    {
      "midi": 48,
      "hit": false,
      "t": 234193.079999998,
      "d": 64.26398437499302,
      "v": 75
    },
    {
      "midi": 41,
      "hit": false,
      "t": 234193.0799999985,
      "d": 189.01171875,
      "v": 110
    },
    {
      "midi": 84,
      "hit": false,
      "t": 234203.16062500072,
      "d": 969.0000781250419,
      "v": 122
    },
    {
      "midi": 48,
      "hit": false,
      "t": 234314.047499998,
      "d": 64.26398437499302,
      "v": 75
    },
    {
      "midi": 48,
      "hit": false,
      "t": 234435.014999998,
      "d": 64.26398437499302,
      "v": 75
    },
    {
      "midi": 48,
      "hit": false,
      "t": 234555.982499998,
      "d": 64.26398437499302,
      "v": 75
    },
    {
      "midi": 48,
      "hit": false,
      "t": 234676.949999998,
      "d": 64.26398437499302,
      "v": 75
    },
    {
      "midi": 41,
      "hit": false,
      "t": 234676.9499999985,
      "d": 189.01171875,
      "v": 110
    },
    {
      "midi": 48,
      "hit": false,
      "t": 234797.917499998,
      "d": 64.26398437499302,
      "v": 75
    },
    {
      "midi": 48,
      "hit": false,
      "t": 234918.884999998,
      "d": 64.26398437499302,
      "v": 75
    },
    {
      "midi": 48,
      "hit": false,
      "t": 235039.852499998,
      "d": 64.26398437499302,
      "v": 75
    },
    {
      "midi": 41,
      "hit": false,
      "t": 235039.8524999985,
      "d": 189.01171875,
      "v": 110
    },
    {
      "midi": 82,
      "hit": false,
      "t": 235158.29984375075,
      "d": 480.0897656250163,
      "v": 113
    },
    {
      "midi": 48,
      "hit": false,
      "t": 235160.819999998,
      "d": 64.26398437499302,
      "v": 75
    },
    {
      "midi": 48,
      "hit": false,
      "t": 235281.787499998,
      "d": 64.26398437499302,
      "v": 75
    },
    {
      "midi": 48,
      "hit": false,
      "t": 235402.754999998,
      "d": 64.26398437499302,
      "v": 75
    },
    {
      "midi": 38,
      "hit": false,
      "t": 235402.7549999985,
      "d": 189.01171875,
      "v": 110
    },
    {
      "midi": 48,
      "hit": false,
      "t": 235523.722499998,
      "d": 64.26398437499302,
      "v": 75
    },
    {
      "midi": 48,
      "hit": false,
      "t": 235644.689999998,
      "d": 64.26398437499302,
      "v": 75
    },
    {
      "midi": 48,
      "hit": false,
      "t": 235765.657499998,
      "d": 64.26398437499302,
      "v": 75
    },
    {
      "midi": 48,
      "hit": false,
      "t": 235886.624999998,
      "d": 64.26398437499302,
      "v": 75
    },
    {
      "midi": 41,
      "hit": false,
      "t": 235886.6249999985,
      "d": 189.01171875,
      "v": 110
    },
    {
      "midi": 48,
      "hit": false,
      "t": 236007.592499998,
      "d": 64.26398437499302,
      "v": 75
    },
    {
      "midi": 43,
      "hit": false,
      "t": 236128.559999998,
      "d": 64.26398437499302,
      "v": 75
    },
    {
      "midi": 43,
      "hit": false,
      "t": 236128.55999999848,
      "d": 189.01171875,
      "v": 110
    },
    {
      "midi": 70,
      "hit": false,
      "t": 236128.56000000003,
      "d": 89.46554687499884,
      "v": 96
    },
    {
      "midi": 55,
      "hit": false,
      "t": 236128.56000000035,
      "d": 1794.351250000007,
      "v": 62
    },
    {
      "midi": 79,
      "hit": false,
      "t": 236128.56000000035,
      "d": 1898.9377343750093,
      "v": 62
    },
    {
      "midi": 58,
      "hit": false,
      "t": 236128.56000000035,
      "d": 3840.718125000014,
      "v": 62
    },
    {
      "midi": 62,
      "hit": false,
      "t": 236128.56000000035,
      "d": 5752.256640625012,
      "v": 62
    },
    {
      "midi": 43,
      "hit": false,
      "t": 236249.527499998,
      "d": 64.26398437499302,
      "v": 75
    },
    {
      "midi": 43,
      "hit": false,
      "t": 236370.494999998,
      "d": 64.26398437499302,
      "v": 75
    },
    {
      "midi": 69,
      "hit": false,
      "t": 236370.49500000002,
      "d": 86.9453906250128,
      "v": 96
    },
    {
      "midi": 43,
      "hit": false,
      "t": 236491.462499998,
      "d": 64.26398437499302,
      "v": 75
    },
    {
      "midi": 43,
      "hit": false,
      "t": 236612.42999999798,
      "d": 64.26398437499302,
      "v": 75
    },
    {
      "midi": 43,
      "hit": false,
      "t": 236612.42999999848,
      "d": 189.01171875,
      "v": 110
    },
    {
      "midi": 70,
      "hit": false,
      "t": 236612.43000000005,
      "d": 99.54617187500116,
      "v": 93
    },
    {
      "midi": 43,
      "hit": false,
      "t": 236733.39749999798,
      "d": 64.26398437499302,
      "v": 75
    },
    {
      "midi": 43,
      "hit": false,
      "t": 236854.36499999798,
      "d": 64.26398437499302,
      "v": 75
    },
    {
      "midi": 67,
      "hit": false,
      "t": 236854.36500000005,
      "d": 118.4473437500128,
      "v": 86
    },
    {
      "midi": 43,
      "hit": false,
      "t": 236975.33249999798,
      "d": 64.26398437499302,
      "v": 75
    },
    {
      "midi": 43,
      "hit": false,
      "t": 236975.33249999848,
      "d": 189.01171875,
      "v": 110
    },
    {
      "midi": 43,
      "hit": false,
      "t": 237096.29999999798,
      "d": 64.26398437499302,
      "v": 75
    },
    {
      "midi": 70,
      "hit": false,
      "t": 237096.30000000008,
      "d": 99.54617187500116,
      "v": 90
    },
    {
      "midi": 74,
      "hit": false,
      "t": 237098.82015625003,
      "d": 143.64890624998952,
      "v": 106
    },
    {
      "midi": 43,
      "hit": false,
      "t": 237217.26749999798,
      "d": 64.26398437499302,
      "v": 75
    },
    {
      "midi": 43,
      "hit": false,
      "t": 237338.23499999798,
      "d": 64.26398437499302,
      "v": 75
    },
    {
      "midi": 43,
      "hit": false,
      "t": 237338.23499999847,
      "d": 189.01171875,
      "v": 110
    },
    {
      "midi": 75,
      "hit": false,
      "t": 237338.23500000002,
      "d": 161.29000000000815,
      "v": 106
    },
    {
      "midi": 69,
      "hit": false,
      "t": 237338.23500000007,
      "d": 93.24578125000698,
      "v": 89
    },
    {
      "midi": 43,
      "hit": false,
      "t": 237459.20249999798,
      "d": 64.26398437499302,
      "v": 75
    },
    {
      "midi": 74,
      "hit": false,
      "t": 237578.90992187502,
      "d": 200.35242187499534,
      "v": 119
    },
    {
      "midi": 43,
      "hit": false,
      "t": 237580.16999999798,
      "d": 64.26398437499302,
      "v": 75
    },
    {
      "midi": 70,
      "hit": false,
      "t": 237580.17000000007,
      "d": 90.72562499999185,
      "v": 105
    },
    {
      "midi": 43,
      "hit": false,
      "t": 237701.13749999797,
      "d": 64.26398437499302,
      "v": 75
    },
    {
      "midi": 77,
      "hit": false,
      "t": 237805.723984375,
      "d": 461.18859375000466,
      "v": 113
    },
    {
      "midi": 43,
      "hit": false,
      "t": 237822.10499999797,
      "d": 64.26398437499302,
      "v": 75
    },
    {
      "midi": 41,
      "hit": false,
      "t": 237822.10499999847,
      "d": 189.01171875,
      "v": 110
    },
    {
      "midi": 67,
      "hit": false,
      "t": 237822.10500000007,
      "d": 114.66710937500466,
      "v": 89
    },
    {
      "midi": 43,
      "hit": false,
      "t": 237943.07249999797,
      "d": 64.26398437499302,
      "v": 75
    },
    {
      "midi": 82,
      "hit": false,
      "t": 237998.51593750034,
      "d": 1938.0001562500256,
      "v": 62
    },
    {
      "midi": 46,
      "hit": false,
      "t": 238064.03999999797,
      "d": 64.26398437499302,
      "v": 75
    },
    {
      "midi": 34,
      "hit": false,
      "t": 238064.03999999847,
      "d": 189.01171875,
      "v": 110
    },
    {
      "midi": 70,
      "hit": false,
      "t": 238064.04000000007,
      "d": 102.0663281249872,
      "v": 100
    },
    {
      "midi": 53,
      "hit": false,
      "t": 238064.04000000036,
      "d": 5830.381484375015,
      "v": 62
    },
    {
      "midi": 46,
      "hit": false,
      "t": 238185.00749999797,
      "d": 64.26398437499302,
      "v": 75
    },
    {
      "midi": 74,
      "hit": false,
      "t": 238288.33390625002,
      "d": 332.6606250000186,
      "v": 100
    },
    {
      "midi": 46,
      "hit": false,
      "t": 238305.97499999797,
      "d": 64.26398437499302,
      "v": 75
    },
    {
      "midi": 69,
      "hit": false,
      "t": 238305.97500000006,
      "d": 84.42523437499767,
      "v": 86
    },
    {
      "midi": 46,
      "hit": false,
      "t": 238426.94249999797,
      "d": 64.26398437499302,
      "v": 75
    },
    {
      "midi": 46,
      "hit": false,
      "t": 238547.90999999797,
      "d": 64.26398437499302,
      "v": 75
    },
    {
      "midi": 34,
      "hit": false,
      "t": 238547.90999999846,
      "d": 189.01171875,
      "v": 110
    },
    {
      "midi": 70,
      "hit": false,
      "t": 238547.91000000006,
      "d": 90.72562499999185,
      "v": 100
    },
    {
      "midi": 46,
      "hit": false,
      "t": 238668.87749999797,
      "d": 64.26398437499302,
      "v": 75
    },
    {
      "midi": 46,
      "hit": false,
      "t": 238789.84499999796,
      "d": 64.26398437499302,
      "v": 75
    },
    {
      "midi": 65,
      "hit": false,
      "t": 238789.84500000006,
      "d": 123.48765625001397,
      "v": 96
    },
    {
      "midi": 46,
      "hit": false,
      "t": 238910.81249999796,
      "d": 64.26398437499302,
      "v": 75
    },
    {
      "midi": 34,
      "hit": false,
      "t": 238910.81249999846,
      "d": 189.01171875,
      "v": 110
    },
    {
      "midi": 46,
      "hit": false,
      "t": 239031.77999999796,
      "d": 64.26398437499302,
      "v": 75
    },
    {
      "midi": 70,
      "hit": false,
      "t": 239031.7800000001,
      "d": 95.76593749999302,
      "v": 90
    },
    {
      "midi": 46,
      "hit": false,
      "t": 239152.74749999796,
      "d": 64.26398437499302,
      "v": 75
    },
    {
      "midi": 46,
      "hit": false,
      "t": 239273.71499999796,
      "d": 64.26398437499302,
      "v": 75
    },
    {
      "midi": 36,
      "hit": false,
      "t": 239273.71499999845,
      "d": 189.01171875,
      "v": 110
    },
    {
      "midi": 69,
      "hit": false,
      "t": 239273.71500000008,
      "d": 98.28609375000815,
      "v": 87
    },
    {
      "midi": 46,
      "hit": false,
      "t": 239394.68249999796,
      "d": 64.26398437499302,
      "v": 75
    },
    {
      "midi": 74,
      "hit": false,
      "t": 239509.34960937506,
      "d": 180.1911718749907,
      "v": 106
    },
    {
      "midi": 46,
      "hit": false,
      "t": 239515.64999999796,
      "d": 64.26398437499302,
      "v": 75
    },
    {
      "midi": 70,
      "hit": false,
      "t": 239515.65000000008,
      "d": 105.84656249999534,
      "v": 85
    },
    {
      "midi": 46,
      "hit": false,
      "t": 239636.61749999796,
      "d": 64.26398437499302,
      "v": 75
    },
    {
      "midi": 77,
      "hit": false,
      "t": 239755.06484375003,
      "d": 498.99093749999884,
      "v": 103
    },
    {
      "midi": 46,
      "hit": false,
      "t": 239757.58499999795,
      "d": 64.26398437499302,
      "v": 75
    },
    {
      "midi": 38,
      "hit": false,
      "t": 239757.58499999845,
      "d": 189.01171875,
      "v": 110
    },
    {
      "midi": 65,
      "hit": false,
      "t": 239757.58500000008,
      "d": 126.0078125,
      "v": 86
    },
    {
      "midi": 46,
      "hit": false,
      "t": 239878.55249999795,
      "d": 64.26398437499302,
      "v": 75
    },
    {
      "midi": 74,
      "hit": false,
      "t": 239954.15718750036,
      "d": 1924.1392968750151,
      "v": 62
    },
    {
      "midi": 50,
      "hit": false,
      "t": 239999.51999999795,
      "d": 64.26398437499302,
      "v": 75
    },
    {
      "midi": 38,
      "hit": false,
      "t": 239999.51999999845,
      "d": 189.01171875,
      "v": 110
    },
    {
      "midi": 69,
      "hit": false,
      "t": 239999.52000000008,
      "d": 113.40703125001164,
      "v": 96
    },
    {
      "midi": 57,
      "hit": false,
      "t": 239999.52000000037,
      "d": 3886.0809374999953,
      "v": 62
    },
    {
      "midi": 50,
      "hit": false,
      "t": 240120.48749999795,
      "d": 64.26398437499302,
      "v": 75
    },
    {
      "midi": 50,
      "hit": false,
      "t": 240241.45499999795,
      "d": 64.26398437499302,
      "v": 75
    },
    {
      "midi": 67,
      "hit": false,
      "t": 240241.45500000007,
      "d": 105.84656249999534,
      "v": 87
    },
    {
      "midi": 74,
      "hit": false,
      "t": 240265.39648437503,
      "d": 338.9610156249837,
      "v": 103
    },
    {
      "midi": 50,
      "hit": false,
      "t": 240362.42249999795,
      "d": 64.26398437499302,
      "v": 75
    },
    {
      "midi": 50,
      "hit": false,
      "t": 240483.38999999795,
      "d": 64.26398437499302,
      "v": 75
    },
    {
      "midi": 38,
      "hit": false,
      "t": 240483.38999999844,
      "d": 189.01171875,
      "v": 110
    },
    {
      "midi": 69,
      "hit": false,
      "t": 240483.39000000007,
      "d": 88.20546875000582,
      "v": 94
    },
    {
      "midi": 50,
      "hit": false,
      "t": 240604.35749999795,
      "d": 64.26398437499302,
      "v": 75
    },
    {
      "midi": 50,
      "hit": false,
      "t": 240725.32499999795,
      "d": 64.26398437499302,
      "v": 75
    },
    {
      "midi": 65,
      "hit": false,
      "t": 240725.32500000007,
      "d": 109.62679687500349,
      "v": 94
    },
    {
      "midi": 50,
      "hit": false,
      "t": 240846.29249999794,
      "d": 64.26398437499302,
      "v": 75
    },
    {
      "midi": 38,
      "hit": false,
      "t": 240846.29249999844,
      "d": 189.01171875,
      "v": 110
    },
    {
      "midi": 50,
      "hit": false,
      "t": 240967.25999999794,
      "d": 64.26398437499302,
      "v": 75
    },
    {
      "midi": 69,
      "hit": false,
      "t": 240967.26000000007,
      "d": 97.02601562498603,
      "v": 92
    },
    {
      "midi": 50,
      "hit": false,
      "t": 241088.22749999794,
      "d": 64.26398437499302,
      "v": 75
    },
    {
      "midi": 50,
      "hit": false,
      "t": 241209.19499999794,
      "d": 64.26398437499302,
      "v": 75
    },
    {
      "midi": 38,
      "hit": false,
      "t": 241209.19499999844,
      "d": 189.01171875,
      "v": 110
    },
    {
      "midi": 67,
      "hit": false,
      "t": 241209.19500000007,
      "d": 81.90507812501164,
      "v": 90
    },
    {
      "midi": 50,
      "hit": false,
      "t": 241330.16249999794,
      "d": 64.26398437499302,
      "v": 75
    },
    {
      "midi": 74,
      "hit": false,
      "t": 241444.829609375,
      "d": 234.37453125001048,
      "v": 117
    },
    {
      "midi": 50,
      "hit": false,
      "t": 241451.12999999794,
      "d": 64.26398437499302,
      "v": 75
    },
    {
      "midi": 69,
      "hit": false,
      "t": 241451.13000000006,
      "d": 88.20546875000582,
      "v": 96
    },
    {
      "midi": 50,
      "hit": false,
      "t": 241572.09749999794,
      "d": 64.26398437499302,
      "v": 75
    },
    {
      "midi": 50,
      "hit": false,
      "t": 241693.06499999794,
      "d": 64.26398437499302,
      "v": 75
    },
    {
      "midi": 38,
      "hit": false,
      "t": 241693.06499999843,
      "d": 189.01171875,
      "v": 110
    },
    {
      "midi": 65,
      "hit": false,
      "t": 241693.06500000006,
      "d": 103.32640625000931,
      "v": 92
    },
    {
      "midi": 72,
      "hit": false,
      "t": 241705.66578125002,
      "d": 507.81148437500815,
      "v": 100
    },
    {
      "midi": 50,
      "hit": false,
      "t": 241814.03249999793,
      "d": 64.26398437499302,
      "v": 75
    },
    {
      "midi": 60,
      "hit": false,
      "t": 241814.03250000038,
      "d": 1992.1835156249872,
      "v": 62
    },
    {
      "midi": 72,
      "hit": false,
      "t": 241887.11703125035,
      "d": 1973.2823437500047,
      "v": 62
    },
    {
      "midi": 48,
      "hit": false,
      "t": 241934.99999999793,
      "d": 64.26398437499302,
      "v": 75
    },
    {
      "midi": 41,
      "hit": false,
      "t": 241934.99999999843,
      "d": 189.01171875,
      "v": 110
    },
    {
      "midi": 69,
      "hit": false,
      "t": 241935.00000000006,
      "d": 81.90507812501164,
      "v": 100
    },
    {
      "midi": 48,
      "hit": false,
      "t": 242055.96749999793,
      "d": 64.26398437499302,
      "v": 75
    },
    {
      "midi": 48,
      "hit": false,
      "t": 242176.93499999793,
      "d": 64.26398437499302,
      "v": 75
    },
    {
      "midi": 67,
      "hit": false,
      "t": 242176.93500000006,
      "d": 104.58648437500233,
      "v": 87
    },
    {
      "midi": 48,
      "hit": false,
      "t": 242297.90249999793,
      "d": 64.26398437499302,
      "v": 75
    },
    {
      "midi": 48,
      "hit": false,
      "t": 242418.86999999793,
      "d": 64.26398437499302,
      "v": 75
    },
    {
      "midi": 41,
      "hit": false,
      "t": 242418.86999999842,
      "d": 189.01171875,
      "v": 110
    },
    {
      "midi": 69,
      "hit": false,
      "t": 242418.87000000005,
      "d": 94.505859375,
      "v": 92
    },
    {
      "midi": 48,
      "hit": false,
      "t": 242539.83749999793,
      "d": 64.26398437499302,
      "v": 75
    },
    {
      "midi": 48,
      "hit": false,
      "t": 242660.80499999793,
      "d": 64.26398437499302,
      "v": 75
    },
    {
      "midi": 65,
      "hit": false,
      "t": 242660.80500000005,
      "d": 114.66710937500466,
      "v": 92
    },
    {
      "midi": 48,
      "hit": false,
      "t": 242781.77249999793,
      "d": 64.26398437499302,
      "v": 75
    },
    {
      "midi": 41,
      "hit": false,
      "t": 242781.77249999842,
      "d": 189.01171875,
      "v": 110
    },
    {
      "midi": 48,
      "hit": false,
      "t": 242902.73999999792,
      "d": 64.26398437499302,
      "v": 75
    },
    {
      "midi": 69,
      "hit": false,
      "t": 242902.74000000005,
      "d": 100.80624999999418,
      "v": 92
    },
    {
      "midi": 48,
      "hit": false,
      "t": 243023.70749999792,
      "d": 64.26398437499302,
      "v": 75
    },
    {
      "midi": 48,
      "hit": false,
      "t": 243144.67499999792,
      "d": 64.26398437499302,
      "v": 75
    },
    {
      "midi": 38,
      "hit": false,
      "t": 243144.67499999842,
      "d": 189.01171875,
      "v": 110
    },
    {
      "midi": 74,
      "hit": false,
      "t": 243144.67500000002,
      "d": 241.93499999999767,
      "v": 107
    },
    {
      "midi": 67,
      "hit": false,
      "t": 243144.67500000005,
      "d": 97.02601562498603,
      "v": 87
    },
    {
      "midi": 48,
      "hit": false,
      "t": 243265.64249999792,
      "d": 64.26398437499302,
      "v": 75
    },
    {
      "midi": 48,
      "hit": false,
      "t": 243386.60999999792,
      "d": 64.26398437499302,
      "v": 75
    },
    {
      "midi": 77,
      "hit": false,
      "t": 243386.61000000002,
      "d": 241.93499999999767,
      "v": 110
    },
    {
      "midi": 69,
      "hit": false,
      "t": 243386.61000000004,
      "d": 94.505859375,
      "v": 94
    },
    {
      "midi": 48,
      "hit": false,
      "t": 243507.57749999792,
      "d": 64.26398437499302,
      "v": 75
    },
    {
      "midi": 48,
      "hit": false,
      "t": 243628.54499999792,
      "d": 64.26398437499302,
      "v": 75
    },
    {
      "midi": 41,
      "hit": false,
      "t": 243628.5449999984,
      "d": 189.01171875,
      "v": 110
    },
    {
      "midi": 79,
      "hit": false,
      "t": 243628.545,
      "d": 241.93499999999767,
      "v": 110
    },
    {
      "midi": 65,
      "hit": false,
      "t": 243628.54500000004,
      "d": 122.22757812499185,
      "v": 92
    },
    {
      "midi": 48,
      "hit": false,
      "t": 243749.51249999792,
      "d": 64.26398437499302,
      "v": 75
    },
    {
      "midi": 43,
      "hit": false,
      "t": 243870.47999999792,
      "d": 64.26398437499302,
      "v": 75
    },
    {
      "midi": 43,
      "hit": false,
      "t": 243870.4799999984,
      "d": 189.01171875,
      "v": 110
    },
    {
      "midi": 70,
      "hit": false,
      "t": 243870.48000000004,
      "d": 89.46554687499884,
      "v": 96
    },
    {
      "midi": 55,
      "hit": false,
      "t": 243870.48000000036,
      "d": 1794.351250000007,
      "v": 62
    },
    {
      "midi": 79,
      "hit": false,
      "t": 243870.48000000036,
      "d": 1898.9377343750093,
      "v": 62
    },
    {
      "midi": 58,
      "hit": false,
      "t": 243870.48000000036,
      "d": 3840.718125000014,
      "v": 62
    },
    {
      "midi": 62,
      "hit": false,
      "t": 243870.48000000036,
      "d": 5752.256640625012,
      "v": 62
    },
    {
      "midi": 43,
      "hit": false,
      "t": 243991.4474999979,
      "d": 64.26398437499302,
      "v": 75
    },
    {
      "midi": 43,
      "hit": false,
      "t": 244112.4149999979,
      "d": 64.26398437499302,
      "v": 75
    },
    {
      "midi": 69,
      "hit": false,
      "t": 244112.41500000004,
      "d": 86.9453906250128,
      "v": 96
    },
    {
      "midi": 43,
      "hit": false,
      "t": 244233.3824999979,
      "d": 64.26398437499302,
      "v": 75
    },
    {
      "midi": 43,
      "hit": false,
      "t": 244354.3499999979,
      "d": 64.26398437499302,
      "v": 75
    },
    {
      "midi": 43,
      "hit": false,
      "t": 244354.3499999984,
      "d": 189.01171875,
      "v": 110
    },
    {
      "midi": 70,
      "hit": false,
      "t": 244354.35000000006,
      "d": 99.54617187500116,
      "v": 93
    },
    {
      "midi": 43,
      "hit": false,
      "t": 244475.3174999979,
      "d": 64.26398437499302,
      "v": 75
    },
    {
      "midi": 43,
      "hit": false,
      "t": 244596.2849999979,
      "d": 64.26398437499302,
      "v": 75
    },
    {
      "midi": 67,
      "hit": false,
      "t": 244596.28500000006,
      "d": 118.4473437500128,
      "v": 86
    },
    {
      "midi": 43,
      "hit": false,
      "t": 244717.2524999979,
      "d": 64.26398437499302,
      "v": 75
    },
    {
      "midi": 43,
      "hit": false,
      "t": 244717.2524999984,
      "d": 189.01171875,
      "v": 110
    },
    {
      "midi": 43,
      "hit": false,
      "t": 244838.2199999979,
      "d": 64.26398437499302,
      "v": 75
    },
    {
      "midi": 70,
      "hit": false,
      "t": 244838.2200000001,
      "d": 99.54617187500116,
      "v": 90
    },
    {
      "midi": 74,
      "hit": false,
      "t": 244840.74015625002,
      "d": 143.64890624998952,
      "v": 106
    },
    {
      "midi": 43,
      "hit": false,
      "t": 244959.1874999979,
      "d": 64.26398437499302,
      "v": 75
    },
    {
      "midi": 43,
      "hit": false,
      "t": 245080.1549999979,
      "d": 64.26398437499302,
      "v": 75
    },
    {
      "midi": 43,
      "hit": false,
      "t": 245080.1549999984,
      "d": 189.01171875,
      "v": 110
    },
    {
      "midi": 75,
      "hit": false,
      "t": 245080.155,
      "d": 161.29000000000815,
      "v": 106
    },
    {
      "midi": 69,
      "hit": false,
      "t": 245080.1550000001,
      "d": 93.24578125000698,
      "v": 89
    },
    {
      "midi": 43,
      "hit": false,
      "t": 245201.1224999979,
      "d": 64.26398437499302,
      "v": 75
    },
    {
      "midi": 74,
      "hit": false,
      "t": 245320.829921875,
      "d": 200.35242187499534,
      "v": 119
    },
    {
      "midi": 43,
      "hit": false,
      "t": 245322.0899999979,
      "d": 64.26398437499302,
      "v": 75
    },
    {
      "midi": 70,
      "hit": false,
      "t": 245322.09000000008,
      "d": 90.72562499999185,
      "v": 105
    },
    {
      "midi": 43,
      "hit": false,
      "t": 245443.0574999979,
      "d": 64.26398437499302,
      "v": 75
    },
    {
      "midi": 77,
      "hit": false,
      "t": 245547.643984375,
      "d": 461.18859375000466,
      "v": 113
    },
    {
      "midi": 43,
      "hit": false,
      "t": 245564.0249999979,
      "d": 64.26398437499302,
      "v": 75
    },
    {
      "midi": 41,
      "hit": false,
      "t": 245564.0249999984,
      "d": 189.01171875,
      "v": 110
    },
    {
      "midi": 67,
      "hit": false,
      "t": 245564.02500000008,
      "d": 114.66710937500466,
      "v": 89
    },
    {
      "midi": 43,
      "hit": false,
      "t": 245684.9924999979,
      "d": 64.26398437499302,
      "v": 75
    },
    {
      "midi": 82,
      "hit": false,
      "t": 245740.43593750036,
      "d": 1938.0001562500256,
      "v": 62
    },
    {
      "midi": 46,
      "hit": false,
      "t": 245805.9599999979,
      "d": 64.26398437499302,
      "v": 75
    },
    {
      "midi": 34,
      "hit": false,
      "t": 245805.9599999984,
      "d": 189.01171875,
      "v": 110
    },
    {
      "midi": 70,
      "hit": false,
      "t": 245805.96000000008,
      "d": 102.0663281249872,
      "v": 100
    },
    {
      "midi": 53,
      "hit": false,
      "t": 245805.96000000037,
      "d": 5830.381484375015,
      "v": 62
    },
    {
      "midi": 46,
      "hit": false,
      "t": 245926.9274999979,
      "d": 64.26398437499302,
      "v": 75
    },
    {
      "midi": 74,
      "hit": false,
      "t": 246030.25390625,
      "d": 332.6606250000186,
      "v": 100
    },
    {
      "midi": 46,
      "hit": false,
      "t": 246047.8949999979,
      "d": 64.26398437499302,
      "v": 75
    },
    {
      "midi": 69,
      "hit": false,
      "t": 246047.89500000008,
      "d": 84.42523437499767,
      "v": 86
    },
    {
      "midi": 46,
      "hit": false,
      "t": 246168.8624999979,
      "d": 64.26398437499302,
      "v": 75
    },
    {
      "midi": 46,
      "hit": false,
      "t": 246289.8299999979,
      "d": 64.26398437499302,
      "v": 75
    },
    {
      "midi": 34,
      "hit": false,
      "t": 246289.8299999984,
      "d": 189.01171875,
      "v": 110
    },
    {
      "midi": 70,
      "hit": false,
      "t": 246289.83000000007,
      "d": 90.72562499999185,
      "v": 100
    },
    {
      "midi": 46,
      "hit": false,
      "t": 246410.7974999979,
      "d": 64.26398437499302,
      "v": 75
    },
    {
      "midi": 46,
      "hit": false,
      "t": 246531.7649999979,
      "d": 64.26398437499302,
      "v": 75
    },
    {
      "midi": 65,
      "hit": false,
      "t": 246531.76500000007,
      "d": 123.48765625001397,
      "v": 96
    },
    {
      "midi": 46,
      "hit": false,
      "t": 246652.7324999979,
      "d": 64.26398437499302,
      "v": 75
    },
    {
      "midi": 34,
      "hit": false,
      "t": 246652.73249999838,
      "d": 189.01171875,
      "v": 110
    },
    {
      "midi": 46,
      "hit": false,
      "t": 246773.6999999979,
      "d": 64.26398437499302,
      "v": 75
    },
    {
      "midi": 70,
      "hit": false,
      "t": 246773.7000000001,
      "d": 95.76593749999302,
      "v": 90
    },
    {
      "midi": 46,
      "hit": false,
      "t": 246894.6674999979,
      "d": 64.26398437499302,
      "v": 75
    },
    {
      "midi": 46,
      "hit": false,
      "t": 247015.63499999788,
      "d": 64.26398437499302,
      "v": 75
    },
    {
      "midi": 36,
      "hit": false,
      "t": 247015.63499999838,
      "d": 189.01171875,
      "v": 110
    },
    {
      "midi": 69,
      "hit": false,
      "t": 247015.6350000001,
      "d": 98.28609375000815,
      "v": 87
    },
    {
      "midi": 46,
      "hit": false,
      "t": 247136.60249999788,
      "d": 64.26398437499302,
      "v": 75
    },
    {
      "midi": 74,
      "hit": false,
      "t": 247251.26960937504,
      "d": 180.1911718749907,
      "v": 106
    },
    {
      "midi": 46,
      "hit": false,
      "t": 247257.56999999788,
      "d": 64.26398437499302,
      "v": 75
    },
    {
      "midi": 70,
      "hit": false,
      "t": 247257.5700000001,
      "d": 105.84656249999534,
      "v": 85
    },
    {
      "midi": 46,
      "hit": false,
      "t": 247378.53749999788,
      "d": 64.26398437499302,
      "v": 75
    },
    {
      "midi": 77,
      "hit": false,
      "t": 247496.98484375002,
      "d": 498.99093749999884,
      "v": 103
    },
    {
      "midi": 46,
      "hit": false,
      "t": 247499.50499999788,
      "d": 64.26398437499302,
      "v": 75
    },
    {
      "midi": 38,
      "hit": false,
      "t": 247499.50499999837,
      "d": 189.01171875,
      "v": 110
    },
    {
      "midi": 65,
      "hit": false,
      "t": 247499.5050000001,
      "d": 126.0078125,
      "v": 86
    },
    {
      "midi": 46,
      "hit": false,
      "t": 247620.47249999788,
      "d": 64.26398437499302,
      "v": 75
    },
    {
      "midi": 74,
      "hit": false,
      "t": 247696.07718750037,
      "d": 1924.1392968750151,
      "v": 62
    },
    {
      "midi": 50,
      "hit": false,
      "t": 247741.43999999788,
      "d": 64.26398437499302,
      "v": 75
    },
    {
      "midi": 38,
      "hit": false,
      "t": 247741.43999999837,
      "d": 189.01171875,
      "v": 110
    },
    {
      "midi": 69,
      "hit": false,
      "t": 247741.4400000001,
      "d": 113.40703125001164,
      "v": 96
    },
    {
      "midi": 57,
      "hit": false,
      "t": 247741.44000000038,
      "d": 3886.0809374999953,
      "v": 62
    },
    {
      "midi": 50,
      "hit": false,
      "t": 247862.40749999788,
      "d": 64.26398437499302,
      "v": 75
    },
    {
      "midi": 50,
      "hit": false,
      "t": 247983.37499999788,
      "d": 64.26398437499302,
      "v": 75
    },
    {
      "midi": 67,
      "hit": false,
      "t": 247983.3750000001,
      "d": 105.84656249999534,
      "v": 87
    },
    {
      "midi": 74,
      "hit": false,
      "t": 248007.316484375,
      "d": 338.9610156249837,
      "v": 103
    },
    {
      "midi": 50,
      "hit": false,
      "t": 248104.34249999787,
      "d": 64.26398437499302,
      "v": 75
    },
    {
      "midi": 50,
      "hit": false,
      "t": 248225.30999999787,
      "d": 64.26398437499302,
      "v": 75
    },
    {
      "midi": 38,
      "hit": false,
      "t": 248225.30999999837,
      "d": 189.01171875,
      "v": 110
    },
    {
      "midi": 69,
      "hit": false,
      "t": 248225.31000000008,
      "d": 88.20546875000582,
      "v": 94
    },
    {
      "midi": 50,
      "hit": false,
      "t": 248346.27749999787,
      "d": 64.26398437499302,
      "v": 75
    },
    {
      "midi": 50,
      "hit": false,
      "t": 248467.24499999787,
      "d": 64.26398437499302,
      "v": 75
    },
    {
      "midi": 65,
      "hit": false,
      "t": 248467.24500000008,
      "d": 109.62679687500349,
      "v": 94
    },
    {
      "midi": 50,
      "hit": false,
      "t": 248588.21249999787,
      "d": 64.26398437499302,
      "v": 75
    },
    {
      "midi": 38,
      "hit": false,
      "t": 248588.21249999836,
      "d": 189.01171875,
      "v": 110
    },
    {
      "midi": 50,
      "hit": false,
      "t": 248709.17999999787,
      "d": 64.26398437499302,
      "v": 75
    },
    {
      "midi": 69,
      "hit": false,
      "t": 248709.18000000008,
      "d": 97.02601562498603,
      "v": 92
    },
    {
      "midi": 50,
      "hit": false,
      "t": 248830.14749999787,
      "d": 64.26398437499302,
      "v": 75
    },
    {
      "midi": 50,
      "hit": false,
      "t": 248951.11499999787,
      "d": 64.26398437499302,
      "v": 75
    },
    {
      "midi": 38,
      "hit": false,
      "t": 248951.11499999836,
      "d": 189.01171875,
      "v": 110
    },
    {
      "midi": 67,
      "hit": false,
      "t": 248951.11500000008,
      "d": 81.90507812501164,
      "v": 90
    },
    {
      "midi": 50,
      "hit": false,
      "t": 249072.08249999786,
      "d": 64.26398437499302,
      "v": 75
    },
    {
      "midi": 74,
      "hit": false,
      "t": 249186.749609375,
      "d": 234.37453125001048,
      "v": 117
    },
    {
      "midi": 50,
      "hit": false,
      "t": 249193.04999999786,
      "d": 64.26398437499302,
      "v": 75
    },
    {
      "midi": 69,
      "hit": false,
      "t": 249193.05000000008,
      "d": 88.20546875000582,
      "v": 96
    },
    {
      "midi": 50,
      "hit": false,
      "t": 249314.01749999786,
      "d": 64.26398437499302,
      "v": 75
    },
    {
      "midi": 50,
      "hit": false,
      "t": 249434.98499999786,
      "d": 64.26398437499302,
      "v": 75
    },
    {
      "midi": 38,
      "hit": false,
      "t": 249434.98499999836,
      "d": 189.01171875,
      "v": 110
    },
    {
      "midi": 65,
      "hit": false,
      "t": 249434.98500000007,
      "d": 103.32640625000931,
      "v": 92
    },
    {
      "midi": 72,
      "hit": false,
      "t": 249447.58578125,
      "d": 507.81148437500815,
      "v": 100
    },
    {
      "midi": 50,
      "hit": false,
      "t": 249555.95249999786,
      "d": 64.26398437499302,
      "v": 75
    },
    {
      "midi": 60,
      "hit": false,
      "t": 249555.9525000004,
      "d": 1992.1835156249872,
      "v": 62
    },
    {
      "midi": 72,
      "hit": false,
      "t": 249629.03703125037,
      "d": 1973.2823437500047,
      "v": 62
    },
    {
      "midi": 48,
      "hit": false,
      "t": 249676.91999999786,
      "d": 64.26398437499302,
      "v": 75
    },
    {
      "midi": 41,
      "hit": false,
      "t": 249676.91999999835,
      "d": 189.01171875,
      "v": 110
    },
    {
      "midi": 69,
      "hit": false,
      "t": 249676.92000000007,
      "d": 81.90507812501164,
      "v": 100
    },
    {
      "midi": 72,
      "hit": false,
      "t": 249676.92000000077,
      "d": 349.04164062498603,
      "v": 113
    },
    {
      "midi": 48,
      "hit": false,
      "t": 249797.88749999786,
      "d": 64.26398437499302,
      "v": 75
    },
    {
      "midi": 48,
      "hit": false,
      "t": 249918.85499999786,
      "d": 64.26398437499302,
      "v": 75
    },
    {
      "midi": 67,
      "hit": false,
      "t": 249918.85500000007,
      "d": 104.58648437500233,
      "v": 87
    },
    {
      "midi": 48,
      "hit": false,
      "t": 250039.82249999786,
      "d": 64.26398437499302,
      "v": 75
    },
    {
      "midi": 74,
      "hit": false,
      "t": 250146.92914062575,
      "d": 137.34851562499534,
      "v": 113
    },
    {
      "midi": 48,
      "hit": false,
      "t": 250160.78999999785,
      "d": 64.26398437499302,
      "v": 75
    },
    {
      "midi": 41,
      "hit": false,
      "t": 250160.78999999835,
      "d": 189.01171875,
      "v": 110
    },
    {
      "midi": 69,
      "hit": false,
      "t": 250160.79000000007,
      "d": 94.505859375,
      "v": 92
    },
    {
      "midi": 72,
      "hit": false,
      "t": 250267.89664062575,
      "d": 128.52796874998603,
      "v": 110
    },
    {
      "midi": 48,
      "hit": false,
      "t": 250281.75749999785,
      "d": 64.26398437499302,
      "v": 75
    },
    {
      "midi": 70,
      "hit": false,
      "t": 250400.20484375075,
      "d": 298.6385156250035,
      "v": 110
    },
    {
      "midi": 48,
      "hit": false,
      "t": 250402.72499999785,
      "d": 64.26398437499302,
      "v": 75
    },
    {
      "midi": 65,
      "hit": false,
      "t": 250402.72500000006,
      "d": 114.66710937500466,
      "v": 92
    },
    {
      "midi": 48,
      "hit": false,
      "t": 250523.69249999785,
      "d": 64.26398437499302,
      "v": 75
    },
    {
      "midi": 41,
      "hit": false,
      "t": 250523.69249999835,
      "d": 189.01171875,
      "v": 110
    },
    {
      "midi": 48,
      "hit": false,
      "t": 250644.65999999785,
      "d": 64.26398437499302,
      "v": 75
    },
    {
      "midi": 69,
      "hit": false,
      "t": 250644.66000000006,
      "d": 100.80624999999418,
      "v": 92
    },
    {
      "midi": 48,
      "hit": false,
      "t": 250765.62749999785,
      "d": 64.26398437499302,
      "v": 75
    },
    {
      "midi": 48,
      "hit": false,
      "t": 250886.59499999785,
      "d": 64.26398437499302,
      "v": 75
    },
    {
      "midi": 38,
      "hit": false,
      "t": 250886.59499999834,
      "d": 189.01171875,
      "v": 110
    },
    {
      "midi": 67,
      "hit": false,
      "t": 250886.59500000006,
      "d": 97.02601562498603,
      "v": 87
    },
    {
      "midi": 72,
      "hit": false,
      "t": 250886.59500000076,
      "d": 349.04164062498603,
      "v": 113
    },
    {
      "midi": 48,
      "hit": false,
      "t": 251007.56249999785,
      "d": 64.26398437499302,
      "v": 75
    },
    {
      "midi": 48,
      "hit": false,
      "t": 251128.52999999785,
      "d": 64.26398437499302,
      "v": 75
    },
    {
      "midi": 69,
      "hit": false,
      "t": 251128.53000000006,
      "d": 94.505859375,
      "v": 94
    },
    {
      "midi": 48,
      "hit": false,
      "t": 251249.49749999784,
      "d": 64.26398437499302,
      "v": 75
    },
    {
      "midi": 74,
      "hit": false,
      "t": 251356.60414062574,
      "d": 137.34851562499534,
      "v": 113
    },
    {
      "midi": 48,
      "hit": false,
      "t": 251370.46499999784,
      "d": 64.26398437499302,
      "v": 75
    },
    {
      "midi": 41,
      "hit": false,
      "t": 251370.46499999834,
      "d": 189.01171875,
      "v": 110
    },
    {
      "midi": 65,
      "hit": false,
      "t": 251370.46500000005,
      "d": 122.22757812499185,
      "v": 92
    },
    {
      "midi": 72,
      "hit": false,
      "t": 251477.57164062574,
      "d": 128.52796874998603,
      "v": 110
    },
    {
      "midi": 48,
      "hit": false,
      "t": 251491.43249999784,
      "d": 64.26398437499302,
      "v": 75
    },
    {
      "midi": 70,
      "hit": false,
      "t": 251609.87984375074,
      "d": 298.6385156250035,
      "v": 110
    },
    {
      "midi": 43,
      "hit": false,
      "t": 251612.39999999784,
      "d": 64.26398437499302,
      "v": 75
    },
    {
      "midi": 43,
      "hit": false,
      "t": 251612.39999999834,
      "d": 189.01171875,
      "v": 110
    },
    {
      "midi": 79,
      "hit": false,
      "t": 251612.39999999967,
      "d": 241.93499999999767,
      "v": 92
    },
    {
      "midi": 82,
      "hit": false,
      "t": 251612.39999999967,
      "d": 241.93499999999767,
      "v": 92
    },
    {
      "midi": 86,
      "hit": false,
      "t": 251612.39999999967,
      "d": 241.93499999999767,
      "v": 92
    },
    {
      "midi": 70,
      "hit": false,
      "t": 251612.40000000005,
      "d": 89.46554687499884,
      "v": 96
    },
    {
      "midi": 55,
      "hit": false,
      "t": 251612.40000000037,
      "d": 1794.351250000007,
      "v": 62
    },
    {
      "midi": 79,
      "hit": false,
      "t": 251612.40000000037,
      "d": 1898.9377343750093,
      "v": 62
    },
    {
      "midi": 58,
      "hit": false,
      "t": 251612.40000000037,
      "d": 3840.718125000014,
      "v": 62
    },
    {
      "midi": 62,
      "hit": false,
      "t": 251612.40000000037,
      "d": 5752.256640625012,
      "v": 62
    },
    {
      "midi": 43,
      "hit": false,
      "t": 251733.36749999784,
      "d": 64.26398437499302,
      "v": 75
    },
    {
      "midi": 43,
      "hit": false,
      "t": 251854.33499999784,
      "d": 64.26398437499302,
      "v": 75
    },
    {
      "midi": 69,
      "hit": false,
      "t": 251854.33500000005,
      "d": 86.9453906250128,
      "v": 96
    },
    {
      "midi": 43,
      "hit": false,
      "t": 251975.30249999784,
      "d": 64.26398437499302,
      "v": 75
    },
    {
      "midi": 43,
      "hit": false,
      "t": 252096.26999999784,
      "d": 64.26398437499302,
      "v": 75
    },
    {
      "midi": 43,
      "hit": false,
      "t": 252096.26999999833,
      "d": 189.01171875,
      "v": 110
    },
    {
      "midi": 82,
      "hit": false,
      "t": 252096.26999999967,
      "d": 210.43304687499767,
      "v": 92
    },
    {
      "midi": 79,
      "hit": false,
      "t": 252096.26999999967,
      "d": 215.47335937499884,
      "v": 92
    },
    {
      "midi": 86,
      "hit": false,
      "t": 252096.26999999967,
      "d": 224.29390625000815,
      "v": 92
    },
    {
      "midi": 70,
      "hit": false,
      "t": 252096.27000000008,
      "d": 99.54617187500116,
      "v": 93
    },
    {
      "midi": 43,
      "hit": false,
      "t": 252217.23749999783,
      "d": 64.26398437499302,
      "v": 75
    },
    {
      "midi": 43,
      "hit": false,
      "t": 252338.20499999783,
      "d": 64.26398437499302,
      "v": 75
    },
    {
      "midi": 67,
      "hit": false,
      "t": 252338.20500000007,
      "d": 118.4473437500128,
      "v": 86
    },
    {
      "midi": 43,
      "hit": false,
      "t": 252459.17249999783,
      "d": 64.26398437499302,
      "v": 75
    },
    {
      "midi": 43,
      "hit": false,
      "t": 252459.17249999833,
      "d": 189.01171875,
      "v": 110
    },
    {
      "midi": 43,
      "hit": false,
      "t": 252580.13999999783,
      "d": 64.26398437499302,
      "v": 75
    },
    {
      "midi": 79,
      "hit": false,
      "t": 252580.13999999966,
      "d": 241.93499999999767,
      "v": 92
    },
    {
      "midi": 82,
      "hit": false,
      "t": 252580.13999999966,
      "d": 241.93499999999767,
      "v": 92
    },
    {
      "midi": 86,
      "hit": false,
      "t": 252580.13999999966,
      "d": 241.93499999999767,
      "v": 92
    },
    {
      "midi": 70,
      "hit": false,
      "t": 252580.1400000001,
      "d": 99.54617187500116,
      "v": 90
    },
    {
      "midi": 74,
      "hit": false,
      "t": 252582.66015625,
      "d": 143.64890624998952,
      "v": 106
    },
    {
      "midi": 43,
      "hit": false,
      "t": 252701.10749999783,
      "d": 64.26398437499302,
      "v": 75
    },
    {
      "midi": 43,
      "hit": false,
      "t": 252822.07499999783,
      "d": 64.26398437499302,
      "v": 75
    },
    {
      "midi": 43,
      "hit": false,
      "t": 252822.07499999832,
      "d": 189.01171875,
      "v": 110
    },
    {
      "midi": 75,
      "hit": false,
      "t": 252822.07499999998,
      "d": 161.29000000000815,
      "v": 106
    },
    {
      "midi": 69,
      "hit": false,
      "t": 252822.0750000001,
      "d": 93.24578125000698,
      "v": 89
    },
    {
      "midi": 43,
      "hit": false,
      "t": 252943.04249999783,
      "d": 64.26398437499302,
      "v": 75
    },
    {
      "midi": 79,
      "hit": false,
      "t": 252943.04249999966,
      "d": 362.9024999999965,
      "v": 92
    },
    {
      "midi": 82,
      "hit": false,
      "t": 252943.04249999966,
      "d": 362.9024999999965,
      "v": 92
    },
    {
      "midi": 86,
      "hit": false,
      "t": 252943.04249999966,
      "d": 362.9024999999965,
      "v": 92
    },
    {
      "midi": 74,
      "hit": false,
      "t": 253062.749921875,
      "d": 200.35242187499534,
      "v": 119
    },
    {
      "midi": 43,
      "hit": false,
      "t": 253064.00999999783,
      "d": 64.26398437499302,
      "v": 75
    },
    {
      "midi": 70,
      "hit": false,
      "t": 253064.0100000001,
      "d": 90.72562499999185,
      "v": 105
    },
    {
      "midi": 43,
      "hit": false,
      "t": 253184.97749999783,
      "d": 64.26398437499302,
      "v": 75
    },
    {
      "midi": 77,
      "hit": false,
      "t": 253289.56398437498,
      "d": 461.18859375000466,
      "v": 113
    },
    {
      "midi": 43,
      "hit": false,
      "t": 253305.94499999782,
      "d": 64.26398437499302,
      "v": 75
    },
    {
      "midi": 41,
      "hit": false,
      "t": 253305.94499999832,
      "d": 189.01171875,
      "v": 110
    },
    {
      "midi": 79,
      "hit": false,
      "t": 253305.94499999966,
      "d": 241.93499999999767,
      "v": 92
    },
    {
      "midi": 82,
      "hit": false,
      "t": 253305.94499999966,
      "d": 241.93499999999767,
      "v": 92
    },
    {
      "midi": 87,
      "hit": false,
      "t": 253305.94499999966,
      "d": 241.93499999999767,
      "v": 92
    },
    {
      "midi": 67,
      "hit": false,
      "t": 253305.9450000001,
      "d": 114.66710937500466,
      "v": 89
    },
    {
      "midi": 43,
      "hit": false,
      "t": 253426.91249999782,
      "d": 64.26398437499302,
      "v": 75
    },
    {
      "midi": 82,
      "hit": false,
      "t": 253482.35593750037,
      "d": 1938.0001562500256,
      "v": 62
    },
    {
      "midi": 46,
      "hit": false,
      "t": 253547.87999999782,
      "d": 64.26398437499302,
      "v": 75
    },
    {
      "midi": 34,
      "hit": false,
      "t": 253547.87999999832,
      "d": 189.01171875,
      "v": 110
    },
    {
      "midi": 77,
      "hit": false,
      "t": 253547.87999999966,
      "d": 241.93499999999767,
      "v": 92
    },
    {
      "midi": 82,
      "hit": false,
      "t": 253547.87999999966,
      "d": 241.93499999999767,
      "v": 92
    },
    {
      "midi": 86,
      "hit": false,
      "t": 253547.87999999966,
      "d": 241.93499999999767,
      "v": 92
    },
    {
      "midi": 70,
      "hit": false,
      "t": 253547.8800000001,
      "d": 102.0663281249872,
      "v": 100
    },
    {
      "midi": 53,
      "hit": false,
      "t": 253547.88000000038,
      "d": 5830.381484375015,
      "v": 62
    },
    {
      "midi": 46,
      "hit": false,
      "t": 253668.84749999782,
      "d": 64.26398437499302,
      "v": 75
    },
    {
      "midi": 74,
      "hit": false,
      "t": 253772.17390624998,
      "d": 332.6606250000186,
      "v": 100
    },
    {
      "midi": 46,
      "hit": false,
      "t": 253789.81499999782,
      "d": 64.26398437499302,
      "v": 75
    },
    {
      "midi": 69,
      "hit": false,
      "t": 253789.8150000001,
      "d": 84.42523437499767,
      "v": 86
    },
    {
      "midi": 46,
      "hit": false,
      "t": 253910.78249999782,
      "d": 64.26398437499302,
      "v": 75
    },
    {
      "midi": 46,
      "hit": false,
      "t": 254031.74999999782,
      "d": 64.26398437499302,
      "v": 75
    },
    {
      "midi": 34,
      "hit": false,
      "t": 254031.7499999983,
      "d": 189.01171875,
      "v": 110
    },
    {
      "midi": 82,
      "hit": false,
      "t": 254031.74999999965,
      "d": 170.11054687498836,
      "v": 92
    },
    {
      "midi": 77,
      "hit": false,
      "t": 254031.74999999965,
      "d": 187.75164062497788,
      "v": 92
    },
    {
      "midi": 86,
      "hit": false,
      "t": 254031.74999999965,
      "d": 196.5721874999872,
      "v": 92
    },
    {
      "midi": 70,
      "hit": false,
      "t": 254031.7500000001,
      "d": 90.72562499999185,
      "v": 100
    },
    {
      "midi": 46,
      "hit": false,
      "t": 254152.71749999782,
      "d": 64.26398437499302,
      "v": 75
    },
    {
      "midi": 46,
      "hit": false,
      "t": 254273.68499999781,
      "d": 64.26398437499302,
      "v": 75
    },
    {
      "midi": 65,
      "hit": false,
      "t": 254273.68500000008,
      "d": 123.48765625001397,
      "v": 96
    },
    {
      "midi": 46,
      "hit": false,
      "t": 254394.6524999978,
      "d": 64.26398437499302,
      "v": 75
    },
    {
      "midi": 34,
      "hit": false,
      "t": 254394.6524999983,
      "d": 189.01171875,
      "v": 110
    },
    {
      "midi": 46,
      "hit": false,
      "t": 254515.6199999978,
      "d": 64.26398437499302,
      "v": 75
    },
    {
      "midi": 77,
      "hit": false,
      "t": 254515.61999999965,
      "d": 241.93499999999767,
      "v": 92
    },
    {
      "midi": 82,
      "hit": false,
      "t": 254515.61999999965,
      "d": 241.93499999999767,
      "v": 92
    },
    {
      "midi": 86,
      "hit": false,
      "t": 254515.61999999965,
      "d": 241.93499999999767,
      "v": 92
    },
    {
      "midi": 70,
      "hit": false,
      "t": 254515.6200000001,
      "d": 95.76593749999302,
      "v": 90
    },
    {
      "midi": 46,
      "hit": false,
      "t": 254636.5874999978,
      "d": 64.26398437499302,
      "v": 75
    },
    {
      "midi": 46,
      "hit": false,
      "t": 254757.5549999978,
      "d": 64.26398437499302,
      "v": 75
    },
    {
      "midi": 36,
      "hit": false,
      "t": 254757.5549999983,
      "d": 189.01171875,
      "v": 110
    },
    {
      "midi": 69,
      "hit": false,
      "t": 254757.5550000001,
      "d": 98.28609375000815,
      "v": 87
    },
    {
      "midi": 46,
      "hit": false,
      "t": 254878.5224999978,
      "d": 64.26398437499302,
      "v": 75
    },
    {
      "midi": 77,
      "hit": false,
      "t": 254878.52249999964,
      "d": 362.9024999999965,
      "v": 92
    },
    {
      "midi": 82,
      "hit": false,
      "t": 254878.52249999964,
      "d": 362.9024999999965,
      "v": 92
    },
    {
      "midi": 86,
      "hit": false,
      "t": 254878.52249999964,
      "d": 362.9024999999965,
      "v": 92
    },
    {
      "midi": 74,
      "hit": false,
      "t": 254993.18960937503,
      "d": 180.1911718749907,
      "v": 106
    },
    {
      "midi": 46,
      "hit": false,
      "t": 254999.4899999978,
      "d": 64.26398437499302,
      "v": 75
    },
    {
      "midi": 70,
      "hit": false,
      "t": 254999.4900000001,
      "d": 105.84656249999534,
      "v": 85
    },
    {
      "midi": 46,
      "hit": false,
      "t": 255120.4574999978,
      "d": 64.26398437499302,
      "v": 75
    },
    {
      "midi": 77,
      "hit": false,
      "t": 255238.90484375,
      "d": 498.99093749999884,
      "v": 103
    },
    {
      "midi": 46,
      "hit": false,
      "t": 255241.4249999978,
      "d": 64.26398437499302,
      "v": 75
    },
    {
      "midi": 38,
      "hit": false,
      "t": 255241.4249999983,
      "d": 189.01171875,
      "v": 110
    },
    {
      "midi": 77,
      "hit": false,
      "t": 255241.42499999964,
      "d": 241.93499999999767,
      "v": 92
    },
    {
      "midi": 82,
      "hit": false,
      "t": 255241.42499999964,
      "d": 241.93499999999767,
      "v": 92
    },
    {
      "midi": 87,
      "hit": false,
      "t": 255241.42499999964,
      "d": 241.93499999999767,
      "v": 92
    },
    {
      "midi": 65,
      "hit": false,
      "t": 255241.4250000001,
      "d": 126.0078125,
      "v": 86
    },
    {
      "midi": 46,
      "hit": false,
      "t": 255362.3924999978,
      "d": 64.26398437499302,
      "v": 75
    },
    {
      "midi": 74,
      "hit": false,
      "t": 255437.99718750038,
      "d": 1924.1392968750151,
      "v": 62
    },
    {
      "midi": 50,
      "hit": false,
      "t": 255483.3599999978,
      "d": 64.26398437499302,
      "v": 75
    },
    {
      "midi": 38,
      "hit": false,
      "t": 255483.3599999983,
      "d": 189.01171875,
      "v": 110
    },
    {
      "midi": 77,
      "hit": false,
      "t": 255483.35999999964,
      "d": 241.93499999999767,
      "v": 92
    },
    {
      "midi": 81,
      "hit": false,
      "t": 255483.35999999964,
      "d": 241.93499999999767,
      "v": 92
    },
    {
      "midi": 86,
      "hit": false,
      "t": 255483.35999999964,
      "d": 241.93499999999767,
      "v": 92
    },
    {
      "midi": 69,
      "hit": false,
      "t": 255483.3600000001,
      "d": 113.40703125001164,
      "v": 96
    },
    {
      "midi": 57,
      "hit": false,
      "t": 255483.3600000004,
      "d": 3886.0809374999953,
      "v": 62
    },
    {
      "midi": 50,
      "hit": false,
      "t": 255604.3274999978,
      "d": 64.26398437499302,
      "v": 75
    },
    {
      "midi": 50,
      "hit": false,
      "t": 255725.2949999978,
      "d": 64.26398437499302,
      "v": 75
    },
    {
      "midi": 67,
      "hit": false,
      "t": 255725.2950000001,
      "d": 105.84656249999534,
      "v": 87
    },
    {
      "midi": 74,
      "hit": false,
      "t": 255749.236484375,
      "d": 338.9610156249837,
      "v": 103
    },
    {
      "midi": 50,
      "hit": false,
      "t": 255846.2624999978,
      "d": 64.26398437499302,
      "v": 75
    },
    {
      "midi": 50,
      "hit": false,
      "t": 255967.2299999978,
      "d": 64.26398437499302,
      "v": 75
    },
    {
      "midi": 38,
      "hit": false,
      "t": 255967.2299999983,
      "d": 189.01171875,
      "v": 110
    },
    {
      "midi": 77,
      "hit": false,
      "t": 255967.22999999963,
      "d": 236.8946874999965,
      "v": 92
    },
    {
      "midi": 81,
      "hit": false,
      "t": 255967.22999999963,
      "d": 248.23539062499185,
      "v": 92
    },
    {
      "midi": 86,
      "hit": false,
      "t": 255967.22999999963,
      "d": 269.6567187499895,
      "v": 92
    },
    {
      "midi": 69,
      "hit": false,
      "t": 255967.2300000001,
      "d": 88.20546875000582,
      "v": 94
    },
    {
      "midi": 50,
      "hit": false,
      "t": 256088.1974999978,
      "d": 64.26398437499302,
      "v": 75
    },
    {
      "midi": 50,
      "hit": false,
      "t": 256209.1649999978,
      "d": 64.26398437499302,
      "v": 75
    },
    {
      "midi": 65,
      "hit": false,
      "t": 256209.1650000001,
      "d": 109.62679687500349,
      "v": 94
    },
    {
      "midi": 50,
      "hit": false,
      "t": 256330.1324999978,
      "d": 64.26398437499302,
      "v": 75
    },
    {
      "midi": 38,
      "hit": false,
      "t": 256330.1324999983,
      "d": 189.01171875,
      "v": 110
    },
    {
      "midi": 50,
      "hit": false,
      "t": 256451.0999999978,
      "d": 64.26398437499302,
      "v": 75
    },
    {
      "midi": 77,
      "hit": false,
      "t": 256451.09999999963,
      "d": 241.93499999999767,
      "v": 92
    },
    {
      "midi": 81,
      "hit": false,
      "t": 256451.09999999963,
      "d": 241.93499999999767,
      "v": 92
    },
    {
      "midi": 86,
      "hit": false,
      "t": 256451.09999999963,
      "d": 241.93499999999767,
      "v": 92
    },
    {
      "midi": 69,
      "hit": false,
      "t": 256451.1000000001,
      "d": 97.02601562498603,
      "v": 92
    },
    {
      "midi": 50,
      "hit": false,
      "t": 256572.0674999978,
      "d": 64.26398437499302,
      "v": 75
    },
    {
      "midi": 50,
      "hit": false,
      "t": 256693.0349999978,
      "d": 64.26398437499302,
      "v": 75
    },
    {
      "midi": 38,
      "hit": false,
      "t": 256693.0349999983,
      "d": 189.01171875,
      "v": 110
    },
    {
      "midi": 67,
      "hit": false,
      "t": 256693.0350000001,
      "d": 81.90507812501164,
      "v": 90
    },
    {
      "midi": 50,
      "hit": false,
      "t": 256814.0024999978,
      "d": 64.26398437499302,
      "v": 75
    },
    {
      "midi": 77,
      "hit": false,
      "t": 256814.00249999962,
      "d": 362.9024999999965,
      "v": 92
    },
    {
      "midi": 81,
      "hit": false,
      "t": 256814.00249999962,
      "d": 362.9024999999965,
      "v": 92
    },
    {
      "midi": 86,
      "hit": false,
      "t": 256814.00249999962,
      "d": 362.9024999999965,
      "v": 92
    },
    {
      "midi": 74,
      "hit": false,
      "t": 256928.66960937498,
      "d": 234.37453125001048,
      "v": 117
    },
    {
      "midi": 50,
      "hit": false,
      "t": 256934.9699999978,
      "d": 64.26398437499302,
      "v": 75
    },
    {
      "midi": 69,
      "hit": false,
      "t": 256934.9700000001,
      "d": 88.20546875000582,
      "v": 96
    },
    {
      "midi": 50,
      "hit": false,
      "t": 257055.9374999978,
      "d": 64.26398437499302,
      "v": 75
    },
    {
      "midi": 50,
      "hit": false,
      "t": 257176.9049999978,
      "d": 64.26398437499302,
      "v": 75
    },
    {
      "midi": 38,
      "hit": false,
      "t": 257176.90499999828,
      "d": 189.01171875,
      "v": 110
    },
    {
      "midi": 77,
      "hit": false,
      "t": 257176.90499999962,
      "d": 241.93499999999767,
      "v": 92
    },
    {
      "midi": 81,
      "hit": false,
      "t": 257176.90499999962,
      "d": 241.93499999999767,
      "v": 92
    },
    {
      "midi": 87,
      "hit": false,
      "t": 257176.90499999962,
      "d": 241.93499999999767,
      "v": 92
    },
    {
      "midi": 65,
      "hit": false,
      "t": 257176.9050000001,
      "d": 103.32640625000931,
      "v": 92
    },
    {
      "midi": 72,
      "hit": false,
      "t": 257189.50578125,
      "d": 507.81148437500815,
      "v": 100
    },
    {
      "midi": 50,
      "hit": false,
      "t": 257297.8724999978,
      "d": 64.26398437499302,
      "v": 75
    },
    {
      "midi": 60,
      "hit": false,
      "t": 257297.8725000004,
      "d": 1992.1835156249872,
      "v": 62
    },
    {
      "midi": 72,
      "hit": false,
      "t": 257370.95703125038,
      "d": 1973.2823437500047,
      "v": 62
    },
    {
      "midi": 48,
      "hit": false,
      "t": 257418.83999999778,
      "d": 64.26398437499302,
      "v": 75
    },
    {
      "midi": 41,
      "hit": false,
      "t": 257418.83999999828,
      "d": 189.01171875,
      "v": 110
    },
    {
      "midi": 77,
      "hit": false,
      "t": 257418.83999999962,
      "d": 241.93499999999767,
      "v": 92
    },
    {
      "midi": 81,
      "hit": false,
      "t": 257418.83999999962,
      "d": 241.93499999999767,
      "v": 92
    },
    {
      "midi": 84,
      "hit": false,
      "t": 257418.83999999962,
      "d": 241.93499999999767,
      "v": 92
    },
    {
      "midi": 69,
      "hit": false,
      "t": 257418.84000000008,
      "d": 81.90507812501164,
      "v": 100
    },
    {
      "midi": 72,
      "hit": false,
      "t": 257418.84000000075,
      "d": 349.04164062498603,
      "v": 113
    },
    {
      "midi": 48,
      "hit": false,
      "t": 257539.80749999778,
      "d": 64.26398437499302,
      "v": 75
    },
    {
      "midi": 48,
      "hit": false,
      "t": 257660.77499999778,
      "d": 64.26398437499302,
      "v": 75
    },
    {
      "midi": 67,
      "hit": false,
      "t": 257660.77500000008,
      "d": 104.58648437500233,
      "v": 87
    },
    {
      "midi": 48,
      "hit": false,
      "t": 257781.74249999778,
      "d": 64.26398437499302,
      "v": 75
    },
    {
      "midi": 74,
      "hit": false,
      "t": 257888.84914062574,
      "d": 137.34851562499534,
      "v": 113
    },
    {
      "midi": 48,
      "hit": false,
      "t": 257902.70999999778,
      "d": 64.26398437499302,
      "v": 75
    },
    {
      "midi": 41,
      "hit": false,
      "t": 257902.70999999827,
      "d": 189.01171875,
      "v": 110
    },
    {
      "midi": 77,
      "hit": false,
      "t": 257902.7099999996,
      "d": 234.37453125001048,
      "v": 92
    },
    {
      "midi": 84,
      "hit": false,
      "t": 257902.7099999996,
      "d": 245.71523437500582,
      "v": 92
    },
    {
      "midi": 81,
      "hit": false,
      "t": 257902.7099999996,
      "d": 246.97531249999884,
      "v": 92
    },
    {
      "midi": 69,
      "hit": false,
      "t": 257902.71000000008,
      "d": 94.505859375,
      "v": 92
    },
    {
      "midi": 72,
      "hit": false,
      "t": 258009.81664062574,
      "d": 128.52796874998603,
      "v": 110
    },
    {
      "midi": 48,
      "hit": false,
      "t": 258023.67749999778,
      "d": 64.26398437499302,
      "v": 75
    },
    {
      "midi": 70,
      "hit": false,
      "t": 258142.12484375073,
      "d": 298.6385156250035,
      "v": 110
    },
    {
      "midi": 48,
      "hit": false,
      "t": 258144.64499999778,
      "d": 64.26398437499302,
      "v": 75
    },
    {
      "midi": 65,
      "hit": false,
      "t": 258144.64500000008,
      "d": 114.66710937500466,
      "v": 92
    },
    {
      "midi": 48,
      "hit": false,
      "t": 258265.61249999778,
      "d": 64.26398437499302,
      "v": 75
    },
    {
      "midi": 41,
      "hit": false,
      "t": 258265.61249999827,
      "d": 189.01171875,
      "v": 110
    },
    {
      "midi": 48,
      "hit": false,
      "t": 258386.57999999778,
      "d": 64.26398437499302,
      "v": 75
    },
    {
      "midi": 77,
      "hit": false,
      "t": 258386.5799999996,
      "d": 241.93499999999767,
      "v": 92
    },
    {
      "midi": 81,
      "hit": false,
      "t": 258386.5799999996,
      "d": 241.93499999999767,
      "v": 92
    },
    {
      "midi": 84,
      "hit": false,
      "t": 258386.5799999996,
      "d": 241.93499999999767,
      "v": 92
    },
    {
      "midi": 69,
      "hit": false,
      "t": 258386.58000000007,
      "d": 100.80624999999418,
      "v": 92
    },
    {
      "midi": 48,
      "hit": false,
      "t": 258507.54749999777,
      "d": 64.26398437499302,
      "v": 75
    },
    {
      "midi": 48,
      "hit": false,
      "t": 258628.51499999777,
      "d": 64.26398437499302,
      "v": 75
    },
    {
      "midi": 38,
      "hit": false,
      "t": 258628.51499999827,
      "d": 189.01171875,
      "v": 110
    },
    {
      "midi": 67,
      "hit": false,
      "t": 258628.51500000007,
      "d": 97.02601562498603,
      "v": 87
    },
    {
      "midi": 72,
      "hit": false,
      "t": 258628.51500000074,
      "d": 349.04164062498603,
      "v": 113
    },
    {
      "midi": 48,
      "hit": false,
      "t": 258749.48249999777,
      "d": 64.26398437499302,
      "v": 75
    },
    {
      "midi": 77,
      "hit": false,
      "t": 258749.4824999996,
      "d": 362.9024999999965,
      "v": 92
    },
    {
      "midi": 81,
      "hit": false,
      "t": 258749.4824999996,
      "d": 362.9024999999965,
      "v": 92
    },
    {
      "midi": 84,
      "hit": false,
      "t": 258749.4824999996,
      "d": 362.9024999999965,
      "v": 92
    },
    {
      "midi": 48,
      "hit": false,
      "t": 258870.44999999777,
      "d": 64.26398437499302,
      "v": 75
    },
    {
      "midi": 69,
      "hit": false,
      "t": 258870.45000000007,
      "d": 94.505859375,
      "v": 94
    },
    {
      "midi": 48,
      "hit": false,
      "t": 258991.41749999777,
      "d": 64.26398437499302,
      "v": 75
    },
    {
      "midi": 74,
      "hit": false,
      "t": 259098.52414062573,
      "d": 137.34851562499534,
      "v": 113
    },
    {
      "midi": 48,
      "hit": false,
      "t": 259112.38499999777,
      "d": 64.26398437499302,
      "v": 75
    },
    {
      "midi": 41,
      "hit": false,
      "t": 259112.38499999826,
      "d": 189.01171875,
      "v": 110
    },
    {
      "midi": 77,
      "hit": false,
      "t": 259112.3849999996,
      "d": 241.93499999999767,
      "v": 92
    },
    {
      "midi": 81,
      "hit": false,
      "t": 259112.3849999996,
      "d": 241.93499999999767,
      "v": 92
    },
    {
      "midi": 84,
      "hit": false,
      "t": 259112.3849999996,
      "d": 241.93499999999767,
      "v": 92
    },
    {
      "midi": 65,
      "hit": false,
      "t": 259112.38500000007,
      "d": 122.22757812499185,
      "v": 92
    },
    {
      "midi": 72,
      "hit": false,
      "t": 259219.49164062573,
      "d": 128.52796874998603,
      "v": 110
    },
    {
      "midi": 48,
      "hit": false,
      "t": 259233.35249999777,
      "d": 64.26398437499302,
      "v": 75
    },
    {
      "midi": 70,
      "hit": false,
      "t": 259351.79984375072,
      "d": 298.6385156250035,
      "v": 110
    },
    {
      "midi": 43,
      "hit": false,
      "t": 259354.31999999777,
      "d": 64.26398437499302,
      "v": 75
    },
    {
      "midi": 43,
      "hit": false,
      "t": 259354.31999999826,
      "d": 189.01171875,
      "v": 110
    },
    {
      "midi": 79,
      "hit": false,
      "t": 259354.3199999996,
      "d": 241.93499999999767,
      "v": 92
    },
    {
      "midi": 82,
      "hit": false,
      "t": 259354.3199999996,
      "d": 241.93499999999767,
      "v": 92
    },
    {
      "midi": 86,
      "hit": false,
      "t": 259354.3199999996,
      "d": 241.93499999999767,
      "v": 92
    },
    {
      "midi": 70,
      "hit": false,
      "t": 259354.32000000007,
      "d": 89.46554687499884,
      "v": 96
    },
    {
      "midi": 55,
      "hit": false,
      "t": 259354.32000000039,
      "d": 1794.351250000007,
      "v": 62
    },
    {
      "midi": 79,
      "hit": false,
      "t": 259354.32000000039,
      "d": 1898.9377343750093,
      "v": 62
    },
    {
      "midi": 58,
      "hit": false,
      "t": 259354.32000000039,
      "d": 3840.718124999985,
      "v": 62
    },
    {
      "midi": 62,
      "hit": false,
      "t": 259354.32000000039,
      "d": 5752.2566406249825,
      "v": 62
    },
    {
      "midi": 43,
      "hit": false,
      "t": 259475.28749999776,
      "d": 64.26398437499302,
      "v": 75
    },
    {
      "midi": 43,
      "hit": false,
      "t": 259596.25499999776,
      "d": 64.26398437499302,
      "v": 75
    },
    {
      "midi": 69,
      "hit": false,
      "t": 259596.25500000006,
      "d": 86.9453906250128,
      "v": 96
    },
    {
      "midi": 43,
      "hit": false,
      "t": 259717.22249999776,
      "d": 64.26398437499302,
      "v": 75
    },
    {
      "midi": 43,
      "hit": false,
      "t": 259838.18999999776,
      "d": 64.26398437499302,
      "v": 75
    },
    {
      "midi": 43,
      "hit": false,
      "t": 259838.18999999826,
      "d": 189.01171875,
      "v": 110
    },
    {
      "midi": 82,
      "hit": false,
      "t": 259838.1899999996,
      "d": 210.43304687499767,
      "v": 92
    },
    {
      "midi": 79,
      "hit": false,
      "t": 259838.1899999996,
      "d": 215.47335937499884,
      "v": 92
    },
    {
      "midi": 86,
      "hit": false,
      "t": 259838.1899999996,
      "d": 224.29390625000815,
      "v": 92
    },
    {
      "midi": 70,
      "hit": false,
      "t": 259838.1900000001,
      "d": 99.54617187500116,
      "v": 93
    },
    {
      "midi": 43,
      "hit": false,
      "t": 259959.15749999776,
      "d": 64.26398437499302,
      "v": 75
    },
    {
      "midi": 43,
      "hit": false,
      "t": 260080.12499999776,
      "d": 64.26398437499302,
      "v": 75
    },
    {
      "midi": 67,
      "hit": false,
      "t": 260080.1250000001,
      "d": 118.4473437500128,
      "v": 86
    },
    {
      "midi": 43,
      "hit": false,
      "t": 260201.09249999776,
      "d": 64.26398437499302,
      "v": 75
    },
    {
      "midi": 43,
      "hit": false,
      "t": 260201.09249999825,
      "d": 189.01171875,
      "v": 110
    },
    {
      "midi": 43,
      "hit": false,
      "t": 260322.05999999776,
      "d": 64.26398437499302,
      "v": 75
    },
    {
      "midi": 79,
      "hit": false,
      "t": 260322.0599999996,
      "d": 241.93499999999767,
      "v": 92
    },
    {
      "midi": 82,
      "hit": false,
      "t": 260322.0599999996,
      "d": 241.93499999999767,
      "v": 92
    },
    {
      "midi": 86,
      "hit": false,
      "t": 260322.0599999996,
      "d": 241.93499999999767,
      "v": 92
    },
    {
      "midi": 70,
      "hit": false,
      "t": 260322.0600000001,
      "d": 99.54617187500116,
      "v": 90
    },
    {
      "midi": 74,
      "hit": false,
      "t": 260324.58015624998,
      "d": 143.64890624998952,
      "v": 106
    },
    {
      "midi": 43,
      "hit": false,
      "t": 260443.02749999776,
      "d": 64.26398437499302,
      "v": 75
    },
    {
      "midi": 43,
      "hit": false,
      "t": 260563.99499999775,
      "d": 64.26398437499302,
      "v": 75
    },
    {
      "midi": 43,
      "hit": false,
      "t": 260563.99499999825,
      "d": 189.01171875,
      "v": 110
    },
    {
      "midi": 75,
      "hit": false,
      "t": 260563.99499999997,
      "d": 161.29000000000815,
      "v": 106
    },
    {
      "midi": 69,
      "hit": false,
      "t": 260563.9950000001,
      "d": 93.24578125000698,
      "v": 89
    },
    {
      "midi": 43,
      "hit": false,
      "t": 260684.96249999775,
      "d": 64.26398437499302,
      "v": 75
    },
    {
      "midi": 79,
      "hit": false,
      "t": 260684.9624999996,
      "d": 362.9024999999965,
      "v": 92
    },
    {
      "midi": 82,
      "hit": false,
      "t": 260684.9624999996,
      "d": 362.9024999999965,
      "v": 92
    },
    {
      "midi": 86,
      "hit": false,
      "t": 260684.9624999996,
      "d": 362.9024999999965,
      "v": 92
    },
    {
      "midi": 74,
      "hit": false,
      "t": 260804.66992187497,
      "d": 200.35242187499534,
      "v": 119
    },
    {
      "midi": 43,
      "hit": false,
      "t": 260805.92999999775,
      "d": 64.26398437499302,
      "v": 75
    },
    {
      "midi": 70,
      "hit": false,
      "t": 260805.9300000001,
      "d": 90.72562499999185,
      "v": 105
    },
    {
      "midi": 43,
      "hit": false,
      "t": 260926.89749999775,
      "d": 64.26398437499302,
      "v": 75
    },
    {
      "midi": 77,
      "hit": false,
      "t": 261031.48398437497,
      "d": 461.18859375000466,
      "v": 113
    },
    {
      "midi": 43,
      "hit": false,
      "t": 261047.86499999775,
      "d": 64.26398437499302,
      "v": 75
    },
    {
      "midi": 41,
      "hit": false,
      "t": 261047.86499999824,
      "d": 189.01171875,
      "v": 110
    },
    {
      "midi": 79,
      "hit": false,
      "t": 261047.86499999958,
      "d": 241.93499999999767,
      "v": 92
    },
    {
      "midi": 82,
      "hit": false,
      "t": 261047.86499999958,
      "d": 241.93499999999767,
      "v": 92
    },
    {
      "midi": 87,
      "hit": false,
      "t": 261047.86499999958,
      "d": 241.93499999999767,
      "v": 92
    },
    {
      "midi": 67,
      "hit": false,
      "t": 261047.8650000001,
      "d": 114.66710937500466,
      "v": 89
    },
    {
      "midi": 43,
      "hit": false,
      "t": 261168.83249999775,
      "d": 64.26398437499302,
      "v": 75
    },
    {
      "midi": 82,
      "hit": false,
      "t": 261224.27593750038,
      "d": 1938.0001562499965,
      "v": 62
    },
    {
      "midi": 46,
      "hit": false,
      "t": 261289.79999999775,
      "d": 64.26398437499302,
      "v": 75
    },
    {
      "midi": 34,
      "hit": false,
      "t": 261289.79999999824,
      "d": 189.01171875,
      "v": 110
    },
    {
      "midi": 77,
      "hit": false,
      "t": 261289.79999999958,
      "d": 241.93499999999767,
      "v": 92
    },
    {
      "midi": 82,
      "hit": false,
      "t": 261289.79999999958,
      "d": 241.93499999999767,
      "v": 92
    },
    {
      "midi": 86,
      "hit": false,
      "t": 261289.79999999958,
      "d": 241.93499999999767,
      "v": 92
    },
    {
      "midi": 70,
      "hit": false,
      "t": 261289.8000000001,
      "d": 102.0663281249872,
      "v": 100
    },
    {
      "midi": 53,
      "hit": false,
      "t": 261289.8000000004,
      "d": 5830.381484374986,
      "v": 62
    },
    {
      "midi": 46,
      "hit": false,
      "t": 261410.76749999775,
      "d": 64.26398437499302,
      "v": 75
    },
    {
      "midi": 74,
      "hit": false,
      "t": 261514.09390624997,
      "d": 332.6606250000186,
      "v": 100
    },
    {
      "midi": 46,
      "hit": false,
      "t": 261531.73499999775,
      "d": 64.26398437499302,
      "v": 75
    },
    {
      "midi": 69,
      "hit": false,
      "t": 261531.7350000001,
      "d": 84.42523437499767,
      "v": 86
    },
    {
      "midi": 46,
      "hit": false,
      "t": 261652.70249999774,
      "d": 64.26398437499302,
      "v": 75
    },
    {
      "midi": 46,
      "hit": false,
      "t": 261773.66999999774,
      "d": 64.26398437499302,
      "v": 75
    },
    {
      "midi": 34,
      "hit": false,
      "t": 261773.66999999824,
      "d": 189.01171875,
      "v": 110
    },
    {
      "midi": 82,
      "hit": false,
      "t": 261773.66999999958,
      "d": 170.11054687498836,
      "v": 92
    },
    {
      "midi": 77,
      "hit": false,
      "t": 261773.66999999958,
      "d": 187.75164062497788,
      "v": 92
    },
    {
      "midi": 86,
      "hit": false,
      "t": 261773.66999999958,
      "d": 196.5721874999872,
      "v": 92
    },
    {
      "midi": 70,
      "hit": false,
      "t": 261773.6700000001,
      "d": 90.72562499999185,
      "v": 100
    },
    {
      "midi": 46,
      "hit": false,
      "t": 261894.63749999774,
      "d": 64.26398437499302,
      "v": 75
    },
    {
      "midi": 46,
      "hit": false,
      "t": 262015.60499999774,
      "d": 64.26398437499302,
      "v": 75
    },
    {
      "midi": 65,
      "hit": false,
      "t": 262015.6050000001,
      "d": 123.48765625001397,
      "v": 96
    },
    {
      "midi": 46,
      "hit": false,
      "t": 262136.57249999774,
      "d": 64.26398437499302,
      "v": 75
    },
    {
      "midi": 34,
      "hit": false,
      "t": 262136.57249999823,
      "d": 189.0117187500291,
      "v": 110
    },
    {
      "midi": 46,
      "hit": false,
      "t": 262257.5399999977,
      "d": 64.26398437499302,
      "v": 75
    },
    {
      "midi": 77,
      "hit": false,
      "t": 262257.5399999996,
      "d": 241.93499999999767,
      "v": 92
    },
    {
      "midi": 82,
      "hit": false,
      "t": 262257.5399999996,
      "d": 241.93499999999767,
      "v": 92
    },
    {
      "midi": 86,
      "hit": false,
      "t": 262257.5399999996,
      "d": 241.93499999999767,
      "v": 92
    },
    {
      "midi": 70,
      "hit": false,
      "t": 262257.5400000001,
      "d": 95.76593749999302,
      "v": 90
    },
    {
      "midi": 46,
      "hit": false,
      "t": 262378.5074999977,
      "d": 64.26398437499302,
      "v": 75
    },
    {
      "midi": 46,
      "hit": false,
      "t": 262499.47499999765,
      "d": 64.26398437499302,
      "v": 75
    },
    {
      "midi": 36,
      "hit": false,
      "t": 262499.4749999983,
      "d": 189.01171875,
      "v": 110
    },
    {
      "midi": 69,
      "hit": false,
      "t": 262499.4750000001,
      "d": 98.28609374997905,
      "v": 87
    },
    {
      "midi": 46,
      "hit": false,
      "t": 262620.4424999976,
      "d": 64.26398437499302,
      "v": 75
    },
    {
      "midi": 77,
      "hit": false,
      "t": 262620.4424999996,
      "d": 362.9025000000256,
      "v": 92
    },
    {
      "midi": 82,
      "hit": false,
      "t": 262620.4424999996,
      "d": 362.9025000000256,
      "v": 92
    },
    {
      "midi": 86,
      "hit": false,
      "t": 262620.4424999996,
      "d": 362.9025000000256,
      "v": 92
    },
    {
      "midi": 74,
      "hit": false,
      "t": 262735.109609375,
      "d": 180.1911718749907,
      "v": 106
    },
    {
      "midi": 46,
      "hit": false,
      "t": 262741.4099999976,
      "d": 64.26398437499302,
      "v": 75
    },
    {
      "midi": 70,
      "hit": false,
      "t": 262741.4100000001,
      "d": 105.84656249999534,
      "v": 85
    },
    {
      "midi": 46,
      "hit": false,
      "t": 262862.37749999756,
      "d": 64.26398437499302,
      "v": 75
    },
    {
      "midi": 77,
      "hit": false,
      "t": 262980.82484375,
      "d": 498.99093749996973,
      "v": 103
    },
    {
      "midi": 46,
      "hit": false,
      "t": 262983.3449999975,
      "d": 64.26398437499302,
      "v": 75
    },
    {
      "midi": 38,
      "hit": false,
      "t": 262983.3449999983,
      "d": 189.01171875,
      "v": 110
    },
    {
      "midi": 77,
      "hit": false,
      "t": 262983.3449999996,
      "d": 241.93499999999767,
      "v": 92
    },
    {
      "midi": 82,
      "hit": false,
      "t": 262983.3449999996,
      "d": 241.93499999999767,
      "v": 92
    },
    {
      "midi": 87,
      "hit": false,
      "t": 262983.3449999996,
      "d": 241.93499999999767,
      "v": 92
    },
    {
      "midi": 65,
      "hit": false,
      "t": 262983.3450000001,
      "d": 126.0078125,
      "v": 86
    },
    {
      "midi": 46,
      "hit": false,
      "t": 263104.3124999975,
      "d": 64.26398437499302,
      "v": 75
    },
    {
      "midi": 74,
      "hit": false,
      "t": 263179.9171875004,
      "d": 1924.139296874986,
      "v": 62
    },
    {
      "midi": 50,
      "hit": false,
      "t": 263225.27999999747,
      "d": 64.26398437499302,
      "v": 75
    },
    {
      "midi": 38,
      "hit": false,
      "t": 263225.2799999983,
      "d": 189.01171875,
      "v": 110
    },
    {
      "midi": 77,
      "hit": false,
      "t": 263225.2799999996,
      "d": 241.93499999999767,
      "v": 92
    },
    {
      "midi": 81,
      "hit": false,
      "t": 263225.2799999996,
      "d": 241.93499999999767,
      "v": 92
    },
    {
      "midi": 86,
      "hit": false,
      "t": 263225.2799999996,
      "d": 241.93499999999767,
      "v": 92
    },
    {
      "midi": 69,
      "hit": false,
      "t": 263225.2800000001,
      "d": 113.40703125001164,
      "v": 96
    },
    {
      "midi": 57,
      "hit": false,
      "t": 263225.2800000004,
      "d": 3886.0809374999953,
      "v": 62
    },
    {
      "midi": 50,
      "hit": false,
      "t": 263346.24749999744,
      "d": 64.26398437499302,
      "v": 75
    },
    {
      "midi": 50,
      "hit": false,
      "t": 263467.2149999974,
      "d": 64.26398437499302,
      "v": 75
    },
    {
      "midi": 67,
      "hit": false,
      "t": 263467.2150000001,
      "d": 105.84656249999534,
      "v": 87
    },
    {
      "midi": 74,
      "hit": false,
      "t": 263491.15648437495,
      "d": 338.9610156249837,
      "v": 103
    },
    {
      "midi": 50,
      "hit": false,
      "t": 263588.1824999974,
      "d": 64.26398437499302,
      "v": 75
    },
    {
      "midi": 50,
      "hit": false,
      "t": 263709.14999999735,
      "d": 64.26398437499302,
      "v": 75
    },
    {
      "midi": 38,
      "hit": false,
      "t": 263709.1499999983,
      "d": 189.01171875,
      "v": 110
    },
    {
      "midi": 77,
      "hit": false,
      "t": 263709.1499999996,
      "d": 236.8946875000256,
      "v": 92
    },
    {
      "midi": 81,
      "hit": false,
      "t": 263709.1499999996,
      "d": 248.23539062502095,
      "v": 92
    },
    {
      "midi": 86,
      "hit": false,
      "t": 263709.1499999996,
      "d": 269.6567187500186,
      "v": 92
    },
    {
      "midi": 69,
      "hit": false,
      "t": 263709.1500000001,
      "d": 88.20546874997672,
      "v": 94
    },
    {
      "midi": 50,
      "hit": false,
      "t": 263830.1174999973,
      "d": 64.26398437499302,
      "v": 75
    },
    {
      "midi": 50,
      "hit": false,
      "t": 263951.0849999973,
      "d": 64.26398437499302,
      "v": 75
    },
    {
      "midi": 65,
      "hit": false,
      "t": 263951.0850000001,
      "d": 109.62679687497439,
      "v": 94
    },
    {
      "midi": 50,
      "hit": false,
      "t": 264072.05249999725,
      "d": 64.26398437499302,
      "v": 75
    },
    {
      "midi": 38,
      "hit": false,
      "t": 264072.0524999983,
      "d": 189.01171875,
      "v": 110
    },
    {
      "midi": 50,
      "hit": false,
      "t": 264193.0199999972,
      "d": 64.26398437499302,
      "v": 75
    },
    {
      "midi": 77,
      "hit": false,
      "t": 264193.0199999996,
      "d": 241.93499999999767,
      "v": 92
    },
    {
      "midi": 81,
      "hit": false,
      "t": 264193.0199999996,
      "d": 241.93499999999767,
      "v": 92
    },
    {
      "midi": 86,
      "hit": false,
      "t": 264193.0199999996,
      "d": 241.93499999999767,
      "v": 92
    },
    {
      "midi": 69,
      "hit": false,
      "t": 264193.0200000001,
      "d": 97.02601562498603,
      "v": 92
    },
    {
      "midi": 50,
      "hit": false,
      "t": 264313.9874999972,
      "d": 64.26398437499302,
      "v": 75
    },
    {
      "midi": 50,
      "hit": false,
      "t": 264434.95499999716,
      "d": 64.26398437499302,
      "v": 75
    },
    {
      "midi": 38,
      "hit": false,
      "t": 264434.9549999983,
      "d": 189.01171875,
      "v": 110
    },
    {
      "midi": 67,
      "hit": false,
      "t": 264434.9550000001,
      "d": 81.90507812501164,
      "v": 90
    },
    {
      "midi": 50,
      "hit": false,
      "t": 264555.92249999713,
      "d": 64.26398437499302,
      "v": 75
    },
    {
      "midi": 77,
      "hit": false,
      "t": 264555.92249999964,
      "d": 362.9025000000256,
      "v": 92
    },
    {
      "midi": 81,
      "hit": false,
      "t": 264555.92249999964,
      "d": 362.9025000000256,
      "v": 92
    },
    {
      "midi": 86,
      "hit": false,
      "t": 264555.92249999964,
      "d": 362.9025000000256,
      "v": 92
    },
    {
      "midi": 74,
      "hit": false,
      "t": 264670.58960937493,
      "d": 234.37453124998137,
      "v": 117
    },
    {
      "midi": 50,
      "hit": false,
      "t": 264676.8899999971,
      "d": 64.26398437499302,
      "v": 75
    },
    {
      "midi": 69,
      "hit": false,
      "t": 264676.8900000001,
      "d": 88.20546874997672,
      "v": 96
    },
    {
      "midi": 50,
      "hit": false,
      "t": 264797.8574999971,
      "d": 64.26398437499302,
      "v": 75
    },
    {
      "midi": 50,
      "hit": false,
      "t": 264918.82499999704,
      "d": 64.26398437499302,
      "v": 75
    },
    {
      "midi": 38,
      "hit": false,
      "t": 264918.8249999983,
      "d": 189.01171875,
      "v": 110
    },
    {
      "midi": 77,
      "hit": false,
      "t": 264918.82499999966,
      "d": 241.93499999999767,
      "v": 92
    },
    {
      "midi": 81,
      "hit": false,
      "t": 264918.82499999966,
      "d": 241.93499999999767,
      "v": 92
    },
    {
      "midi": 87,
      "hit": false,
      "t": 264918.82499999966,
      "d": 241.93499999999767,
      "v": 92
    },
    {
      "midi": 65,
      "hit": false,
      "t": 264918.82500000007,
      "d": 103.32640625000931,
      "v": 92
    },
    {
      "midi": 72,
      "hit": false,
      "t": 264931.42578124994,
      "d": 507.81148437497905,
      "v": 100
    },
    {
      "midi": 50,
      "hit": false,
      "t": 265039.792499997,
      "d": 64.26398437499302,
      "v": 75
    },
    {
      "midi": 60,
      "hit": false,
      "t": 265039.7925000004,
      "d": 1992.1835156250163,
      "v": 62
    },
    {
      "midi": 72,
      "hit": false,
      "t": 265112.8770312504,
      "d": 1973.2823437500047,
      "v": 62
    },
    {
      "midi": 48,
      "hit": false,
      "t": 265160.759999997,
      "d": 64.26398437499302,
      "v": 75
    },
    {
      "midi": 41,
      "hit": false,
      "t": 265160.7599999983,
      "d": 189.01171875,
      "v": 110
    },
    {
      "midi": 77,
      "hit": false,
      "t": 265160.75999999966,
      "d": 241.93499999999767,
      "v": 92
    },
    {
      "midi": 81,
      "hit": false,
      "t": 265160.75999999966,
      "d": 241.93499999999767,
      "v": 92
    },
    {
      "midi": 84,
      "hit": false,
      "t": 265160.75999999966,
      "d": 241.93499999999767,
      "v": 92
    },
    {
      "midi": 48,
      "hit": false,
      "t": 265281.72749999695,
      "d": 64.26398437499302,
      "v": 75
    },
    {
      "midi": 48,
      "hit": false,
      "t": 265402.6949999969,
      "d": 64.26398437499302,
      "v": 75
    },
    {
      "midi": 48,
      "hit": false,
      "t": 265523.6624999969,
      "d": 64.26398437499302,
      "v": 75
    },
    {
      "midi": 48,
      "hit": false,
      "t": 265644.62999999686,
      "d": 64.26398437499302,
      "v": 75
    },
    {
      "midi": 41,
      "hit": false,
      "t": 265644.6299999983,
      "d": 189.01171875,
      "v": 110
    },
    {
      "midi": 77,
      "hit": false,
      "t": 265644.62999999966,
      "d": 234.37453124998137,
      "v": 92
    },
    {
      "midi": 84,
      "hit": false,
      "t": 265644.62999999966,
      "d": 245.71523437497672,
      "v": 92
    },
    {
      "midi": 81,
      "hit": false,
      "t": 265644.62999999966,
      "d": 246.97531249996973,
      "v": 92
    },
    {
      "midi": 48,
      "hit": false,
      "t": 265765.59749999683,
      "d": 64.26398437499302,
      "v": 75
    },
    {
      "midi": 48,
      "hit": false,
      "t": 265886.5649999968,
      "d": 64.26398437499302,
      "v": 75
    },
    {
      "midi": 48,
      "hit": false,
      "t": 266007.53249999677,
      "d": 64.26398437499302,
      "v": 75
    },
    {
      "midi": 41,
      "hit": false,
      "t": 266007.53249999834,
      "d": 189.01171875,
      "v": 110
    },
    {
      "midi": 48,
      "hit": false,
      "t": 266128.49999999674,
      "d": 64.26398437499302,
      "v": 75
    },
    {
      "midi": 77,
      "hit": false,
      "t": 266128.49999999965,
      "d": 241.93499999999767,
      "v": 92
    },
    {
      "midi": 81,
      "hit": false,
      "t": 266128.49999999965,
      "d": 241.93499999999767,
      "v": 92
    },
    {
      "midi": 84,
      "hit": false,
      "t": 266128.49999999965,
      "d": 241.93499999999767,
      "v": 92
    },
    {
      "midi": 48,
      "hit": false,
      "t": 266249.4674999967,
      "d": 64.26398437499302,
      "v": 75
    },
    {
      "midi": 48,
      "hit": false,
      "t": 266370.4349999967,
      "d": 64.26398437499302,
      "v": 75
    },
    {
      "midi": 38,
      "hit": false,
      "t": 266370.43499999837,
      "d": 189.01171875,
      "v": 110
    },
    {
      "midi": 74,
      "hit": false,
      "t": 266370.4349999999,
      "d": 241.93499999999767,
      "v": 113
    },
    {
      "midi": 48,
      "hit": false,
      "t": 266491.40249999665,
      "d": 64.26398437499302,
      "v": 75
    },
    {
      "midi": 77,
      "hit": false,
      "t": 266491.4024999997,
      "d": 362.9025000000256,
      "v": 92
    },
    {
      "midi": 81,
      "hit": false,
      "t": 266491.4024999997,
      "d": 362.9025000000256,
      "v": 92
    },
    {
      "midi": 84,
      "hit": false,
      "t": 266491.4024999997,
      "d": 362.9025000000256,
      "v": 92
    },
    {
      "midi": 48,
      "hit": false,
      "t": 266612.3699999966,
      "d": 64.26398437499302,
      "v": 75
    },
    {
      "midi": 77,
      "hit": false,
      "t": 266612.3699999999,
      "d": 241.93499999999767,
      "v": 113
    },
    {
      "midi": 48,
      "hit": false,
      "t": 266733.3374999966,
      "d": 64.26398437499302,
      "v": 75
    },
    {
      "midi": 48,
      "hit": false,
      "t": 266854.30499999656,
      "d": 64.26398437499302,
      "v": 75
    },
    {
      "midi": 41,
      "hit": false,
      "t": 266854.30499999836,
      "d": 189.01171875,
      "v": 110
    },
    {
      "midi": 77,
      "hit": false,
      "t": 266854.3049999997,
      "d": 241.93499999999767,
      "v": 92
    },
    {
      "midi": 81,
      "hit": false,
      "t": 266854.3049999997,
      "d": 241.93499999999767,
      "v": 92
    },
    {
      "midi": 84,
      "hit": false,
      "t": 266854.3049999997,
      "d": 241.93499999999767,
      "v": 92
    },
    {
      "midi": 79,
      "hit": false,
      "t": 266854.3049999999,
      "d": 241.93499999999767,
      "v": 113
    },
    {
      "midi": 48,
      "hit": false,
      "t": 266975.2724999965,
      "d": 64.26398437499302,
      "v": 75
    },
    {
      "midi": 79,
      "hit": false,
      "t": 267349.5157031252,
      "d": 244.4551562499837,
      "v": 71
    },
    {
      "midi": 79,
      "hit": false,
      "t": 267861.1074218752,
      "d": 240.67492187500466,
      "v": 59
    },
    {
      "midi": 79,
      "hit": false,
      "t": 268363.8785937502,
      "d": 236.8946875000256,
      "v": 47
    },
    {
      "midi": 79,
      "hit": false,
      "t": 268874.2102343752,
      "d": 230.59429687500233,
      "v": 35
    },
    {
      "midi": 79,
      "hit": false,
      "t": 269387.0620312502,
      "d": 244.4551562499837,
      "v": 23
    },
    {
      "midi": 79,
      "hit": false,
      "t": 269889.8332031252,
      "d": 192.79195312497905,
      "v": 11
    }
  ]
}