{
  "jsonPath": "Soundtracks/Video Game Music/Tales of Symphonia/tales-of-symphonia-floatingintheair.json",
  "path": "Soundtracks\\Video Game Music\\Tales of Symphonia\\Tales_of_Symphonia_FloatingintheAir.mid",
  "name": "Tales_of_Symphonia_FloatingintheAir",
  "difficulty": "Advanced",
  "bpm": 72.00002880001152,
  "notes": [
    {
      "midi": 45,
      "hit": false,
      "t": 4999.9980000000005,
      "d": 2499.998999999999,
      "v": 100
    },
    {
      "midi": 86,
      "hit": false,
      "t": 5833.331,
      "d": 833.3329999999996,
      "v": 100
    },
    {
      "midi": 81,
      "hit": false,
      "t": 5833.331,
      "d": 833.3329999999996,
      "v": 100
    },
    {
      "midi": 85,
      "hit": false,
      "t": 6666.664,
      "d": 833.3329999999996,
      "v": 100
    },
    {
      "midi": 81,
      "hit": false,
      "t": 6666.664,
      "d": 833.3329999999996,
      "v": 100
    },
    {
      "midi": 83,
      "hit": false,
      "t": 7499.996999999999,
      "d": 416.66650000000027,
      "v": 100
    },
    {
      "midi": 79,
      "hit": false,
      "t": 7499.996999999999,
      "d": 416.66650000000027,
      "v": 100
    },
    {
      "midi": 43,
      "hit": false,
      "t": 7499.996999999999,
      "d": 2499.999,
      "v": 100
    },
    {
      "midi": 85,
      "hit": false,
      "t": 7916.6635,
      "d": 416.66650000000027,
      "v": 100
    },
    {
      "midi": 81,
      "hit": false,
      "t": 7916.6635,
      "d": 416.66650000000027,
      "v": 100
    },
    {
      "midi": 86,
      "hit": false,
      "t": 8333.33,
      "d": 1666.6659999999993,
      "v": 100
    },
    {
      "midi": 83,
      "hit": false,
      "t": 8333.33,
      "d": 1666.6659999999993,
      "v": 100
    },
    {
      "midi": 45,
      "hit": false,
      "t": 9999.996,
      "d": 2499.9990000000016,
      "v": 100
    },
    {
      "midi": 86,
      "hit": false,
      "t": 10833.329,
      "d": 833.3330000000005,
      "v": 100
    },
    {
      "midi": 81,
      "hit": false,
      "t": 10833.329,
      "d": 833.3330000000005,
      "v": 100
    },
    {
      "midi": 85,
      "hit": false,
      "t": 11666.662,
      "d": 833.3330000000005,
      "v": 100
    },
    {
      "midi": 81,
      "hit": false,
      "t": 11666.662,
      "d": 833.3330000000005,
      "v": 100
    },
    {
      "midi": 84,
      "hit": false,
      "t": 12499.995,
      "d": 1249.9995,
      "v": 100
    },
    {
      "midi": 81,
      "hit": false,
      "t": 12499.995,
      "d": 1249.9995,
      "v": 100
    },
    {
      "midi": 41,
      "hit": false,
      "t": 12499.995,
      "d": 2499.999,
      "v": 100
    },
    {
      "midi": 83,
      "hit": false,
      "t": 13749.9945,
      "d": 416.66649999999936,
      "v": 100
    },
    {
      "midi": 79,
      "hit": false,
      "t": 13749.9945,
      "d": 416.66649999999936,
      "v": 100
    },
    {
      "midi": 81,
      "hit": false,
      "t": 14166.661,
      "d": 833.3330000000005,
      "v": 100
    },
    {
      "midi": 77,
      "hit": false,
      "t": 14166.661,
      "d": 833.3330000000005,
      "v": 100
    },
    {
      "midi": 79,
      "hit": false,
      "t": 14999.994,
      "d": 833.3330000000005,
      "v": 100
    },
    {
      "midi": 76,
      "hit": false,
      "t": 14999.994,
      "d": 833.3330000000005,
      "v": 100
    },
    {
      "midi": 48,
      "hit": false,
      "t": 14999.994,
      "d": 2499.998999999998,
      "v": 100
    },
    {
      "midi": 83,
      "hit": false,
      "t": 15833.327000000001,
      "d": 833.3329999999987,
      "v": 100
    },
    {
      "midi": 79,
      "hit": false,
      "t": 15833.327000000001,
      "d": 833.3329999999987,
      "v": 100
    },
    {
      "midi": 79,
      "hit": false,
      "t": 16666.66,
      "d": 833.3329999999987,
      "v": 100
    },
    {
      "midi": 76,
      "hit": false,
      "t": 16666.66,
      "d": 833.3329999999987,
      "v": 100
    },
    {
      "midi": 81,
      "hit": false,
      "t": 17499.993,
      "d": 416.66649999999936,
      "v": 100
    },
    {
      "midi": 76,
      "hit": false,
      "t": 17499.993,
      "d": 416.66649999999936,
      "v": 100
    },
    {
      "midi": 45,
      "hit": false,
      "t": 17499.993,
      "d": 2499.999,
      "v": 100
    },
    {
      "midi": 83,
      "hit": false,
      "t": 17916.659499999998,
      "d": 416.66649999999936,
      "v": 100
    },
    {
      "midi": 79,
      "hit": false,
      "t": 17916.659499999998,
      "d": 416.66649999999936,
      "v": 100
    },
    {
      "midi": 84,
      "hit": false,
      "t": 18333.325999999997,
      "d": 1666.666000000001,
      "v": 100
    },
    {
      "midi": 81,
      "hit": false,
      "t": 18333.325999999997,
      "d": 1666.666000000001,
      "v": 100
    },
    {
      "midi": 79,
      "hit": false,
      "t": 19999.992,
      "d": 833.3329999999987,
      "v": 100
    },
    {
      "midi": 76,
      "hit": false,
      "t": 19999.992,
      "d": 833.3329999999987,
      "v": 100
    },
    {
      "midi": 43,
      "hit": false,
      "t": 19999.992,
      "d": 2499.998999999996,
      "v": 100
    },
    {
      "midi": 83,
      "hit": false,
      "t": 20833.324999999997,
      "d": 1249.999499999998,
      "v": 100
    },
    {
      "midi": 79,
      "hit": false,
      "t": 20833.324999999997,
      "d": 1249.999499999998,
      "v": 100
    },
    {
      "midi": 79,
      "hit": false,
      "t": 22083.324499999995,
      "d": 416.66649999999936,
      "v": 100
    },
    {
      "midi": 76,
      "hit": false,
      "t": 22083.324499999995,
      "d": 416.66649999999936,
      "v": 100
    },
    {
      "midi": 81,
      "hit": false,
      "t": 22499.990999999995,
      "d": 416.66649999999936,
      "v": 100
    },
    {
      "midi": 76,
      "hit": false,
      "t": 22499.990999999995,
      "d": 416.66649999999936,
      "v": 100
    },
    {
      "midi": 41,
      "hit": false,
      "t": 22499.990999999995,
      "d": 2499.999,
      "v": 100
    },
    {
      "midi": 83,
      "hit": false,
      "t": 22916.657499999994,
      "d": 416.66649999999936,
      "v": 100
    },
    {
      "midi": 79,
      "hit": false,
      "t": 22916.657499999994,
      "d": 416.66649999999936,
      "v": 100
    },
    {
      "midi": 84,
      "hit": false,
      "t": 23333.323999999993,
      "d": 1666.666000000001,
      "v": 100
    },
    {
      "midi": 81,
      "hit": false,
      "t": 23333.323999999993,
      "d": 1666.666000000001,
      "v": 100
    },
    {
      "midi": 81,
      "hit": false,
      "t": 24999.989999999994,
      "d": 416.66649999999936,
      "v": 100
    },
    {
      "midi": 76,
      "hit": false,
      "t": 24999.989999999994,
      "d": 416.66649999999936,
      "v": 100
    },
    {
      "midi": 45,
      "hit": false,
      "t": 24999.989999999994,
      "d": 2499.998999999996,
      "v": 100
    },
    {
      "midi": 83,
      "hit": false,
      "t": 25416.656499999994,
      "d": 416.66649999999936,
      "v": 100
    },
    {
      "midi": 79,
      "hit": false,
      "t": 25416.656499999994,
      "d": 416.66649999999936,
      "v": 100
    },
    {
      "midi": 84,
      "hit": false,
      "t": 25833.322999999993,
      "d": 416.66649999999936,
      "v": 100
    },
    {
      "midi": 81,
      "hit": false,
      "t": 25833.322999999993,
      "d": 416.66649999999936,
      "v": 100
    },
    {
      "midi": 83,
      "hit": false,
      "t": 26249.989499999992,
      "d": 416.66649999999936,
      "v": 100
    },
    {
      "midi": 79,
      "hit": false,
      "t": 26249.989499999992,
      "d": 416.66649999999936,
      "v": 100
    },
    {
      "midi": 81,
      "hit": false,
      "t": 26666.65599999999,
      "d": 416.66649999999936,
      "v": 100
    },
    {
      "midi": 76,
      "hit": false,
      "t": 26666.65599999999,
      "d": 416.66649999999936,
      "v": 100
    },
    {
      "midi": 76,
      "hit": false,
      "t": 27083.32249999999,
      "d": 416.66649999999936,
      "v": 100
    },
    {
      "midi": 72,
      "hit": false,
      "t": 27083.32249999999,
      "d": 416.66649999999936,
      "v": 100
    },
    {
      "midi": 81,
      "hit": false,
      "t": 27499.98899999999,
      "d": 833.3329999999987,
      "v": 100
    },
    {
      "midi": 78,
      "hit": false,
      "t": 27499.98899999999,
      "d": 833.3329999999987,
      "v": 100
    },
    {
      "midi": 42,
      "hit": false,
      "t": 27499.98899999999,
      "d": 2499.998999999996,
      "v": 100
    },
    {
      "midi": 78,
      "hit": false,
      "t": 28333.32199999999,
      "d": 833.3329999999987,
      "v": 100
    },
    {
      "midi": 74,
      "hit": false,
      "t": 28333.32199999999,
      "d": 833.3329999999987,
      "v": 100
    },
    {
      "midi": 81,
      "hit": false,
      "t": 29166.654999999988,
      "d": 833.3329999999987,
      "v": 100
    },
    {
      "midi": 78,
      "hit": false,
      "t": 29166.654999999988,
      "d": 833.3329999999987,
      "v": 100
    },
    {
      "midi": 79,
      "hit": false,
      "t": 29999.987999999987,
      "d": 833.3329999999987,
      "v": 100
    },
    {
      "midi": 74,
      "hit": false,
      "t": 29999.987999999987,
      "d": 833.3329999999987,
      "v": 100
    },
    {
      "midi": 43,
      "hit": false,
      "t": 29999.987999999987,
      "d": 4999.997999999996,
      "v": 100
    },
    {
      "midi": 83,
      "hit": false,
      "t": 30833.320999999985,
      "d": 833.3329999999987,
      "v": 100
    },
    {
      "midi": 79,
      "hit": false,
      "t": 30833.320999999985,
      "d": 833.3329999999987,
      "v": 100
    },
    {
      "midi": 86,
      "hit": false,
      "t": 31666.653999999984,
      "d": 833.3329999999987,
      "v": 100
    },
    {
      "midi": 91,
      "hit": false,
      "t": 32499.986999999983,
      "d": 2499.999,
      "v": 100
    },
    {
      "midi": 83,
      "hit": false,
      "t": 32499.986999999983,
      "d": 2499.999,
      "v": 100
    },
    {
      "midi": 45,
      "hit": false,
      "t": 34999.98599999998,
      "d": 2499.998999999996,
      "v": 100
    },
    {
      "midi": 86,
      "hit": false,
      "t": 35833.31899999998,
      "d": 833.3329999999987,
      "v": 100
    },
    {
      "midi": 81,
      "hit": false,
      "t": 35833.31899999998,
      "d": 833.3329999999987,
      "v": 100
    },
    {
      "midi": 85,
      "hit": false,
      "t": 36666.65199999998,
      "d": 833.3329999999987,
      "v": 100
    },
    {
      "midi": 81,
      "hit": false,
      "t": 36666.65199999998,
      "d": 833.3329999999987,
      "v": 100
    },
    {
      "midi": 83,
      "hit": false,
      "t": 37499.98499999998,
      "d": 416.66649999999936,
      "v": 100
    },
    {
      "midi": 79,
      "hit": false,
      "t": 37499.98499999998,
      "d": 416.66649999999936,
      "v": 100
    },
    {
      "midi": 43,
      "hit": false,
      "t": 37499.98499999998,
      "d": 2499.998999999996,
      "v": 100
    },
    {
      "midi": 85,
      "hit": false,
      "t": 37916.65149999998,
      "d": 416.66649999999936,
      "v": 100
    },
    {
      "midi": 81,
      "hit": false,
      "t": 37916.65149999998,
      "d": 416.66649999999936,
      "v": 100
    },
    {
      "midi": 86,
      "hit": false,
      "t": 38333.31799999998,
      "d": 1666.6659999999974,
      "v": 100
    },
    {
      "midi": 83,
      "hit": false,
      "t": 38333.31799999998,
      "d": 1666.6659999999974,
      "v": 100
    },
    {
      "midi": 45,
      "hit": false,
      "t": 39999.983999999975,
      "d": 2499.998999999996,
      "v": 100
    },
    {
      "midi": 86,
      "hit": false,
      "t": 40833.31699999997,
      "d": 833.3329999999987,
      "v": 100
    },
    {
      "midi": 81,
      "hit": false,
      "t": 40833.31699999997,
      "d": 833.3329999999987,
      "v": 100
    },
    {
      "midi": 85,
      "hit": false,
      "t": 41666.64999999997,
      "d": 833.3329999999987,
      "v": 100
    },
    {
      "midi": 81,
      "hit": false,
      "t": 41666.64999999997,
      "d": 833.3329999999987,
      "v": 100
    },
    {
      "midi": 84,
      "hit": false,
      "t": 42499.98299999997,
      "d": 1249.999499999998,
      "v": 100
    },
    {
      "midi": 81,
      "hit": false,
      "t": 42499.98299999997,
      "d": 1249.999499999998,
      "v": 100
    },
    {
      "midi": 41,
      "hit": false,
      "t": 42499.98299999997,
      "d": 2499.998999999996,
      "v": 100
    },
    {
      "midi": 83,
      "hit": false,
      "t": 43749.98249999997,
      "d": 416.66649999999936,
      "v": 100
    },
    {
      "midi": 79,
      "hit": false,
      "t": 43749.98249999997,
      "d": 416.66649999999936,
      "v": 100
    },
    {
      "midi": 81,
      "hit": false,
      "t": 44166.64899999997,
      "d": 833.3329999999987,
      "v": 100
    },
    {
      "midi": 77,
      "hit": false,
      "t": 44166.64899999997,
      "d": 833.3329999999987,
      "v": 100
    },
    {
      "midi": 79,
      "hit": false,
      "t": 44999.98199999997,
      "d": 833.3329999999987,
      "v": 100
    },
    {
      "midi": 76,
      "hit": false,
      "t": 44999.98199999997,
      "d": 833.3329999999987,
      "v": 100
    },
    {
      "midi": 48,
      "hit": false,
      "t": 44999.98199999997,
      "d": 2499.998999999996,
      "v": 100
    },
    {
      "midi": 83,
      "hit": false,
      "t": 45833.314999999966,
      "d": 833.3329999999987,
      "v": 100
    },
    {
      "midi": 79,
      "hit": false,
      "t": 45833.314999999966,
      "d": 833.3329999999987,
      "v": 100
    },
    {
      "midi": 79,
      "hit": false,
      "t": 46666.647999999965,
      "d": 833.3329999999987,
      "v": 100
    },
    {
      "midi": 76,
      "hit": false,
      "t": 46666.647999999965,
      "d": 833.3329999999987,
      "v": 100
    },
    {
      "midi": 81,
      "hit": false,
      "t": 47499.98099999996,
      "d": 416.66649999999936,
      "v": 100
    },
    {
      "midi": 76,
      "hit": false,
      "t": 47499.98099999996,
      "d": 416.66649999999936,
      "v": 100
    },
    {
      "midi": 45,
      "hit": false,
      "t": 47499.98099999996,
      "d": 2499.998999999996,
      "v": 100
    },
    {
      "midi": 83,
      "hit": false,
      "t": 47916.64749999996,
      "d": 416.66649999999936,
      "v": 100
    },
    {
      "midi": 79,
      "hit": false,
      "t": 47916.64749999996,
      "d": 416.66649999999936,
      "v": 100
    },
    {
      "midi": 84,
      "hit": false,
      "t": 48333.31399999996,
      "d": 1666.6659999999974,
      "v": 100
    },
    {
      "midi": 81,
      "hit": false,
      "t": 48333.31399999996,
      "d": 1666.6659999999974,
      "v": 100
    },
    {
      "midi": 79,
      "hit": false,
      "t": 49999.97999999996,
      "d": 833.3329999999987,
      "v": 100
    },
    {
      "midi": 76,
      "hit": false,
      "t": 49999.97999999996,
      "d": 833.3329999999987,
      "v": 100
    },
    {
      "midi": 43,
      "hit": false,
      "t": 49999.97999999996,
      "d": 2499.998999999996,
      "v": 100
    },
    {
      "midi": 83,
      "hit": false,
      "t": 50833.31299999996,
      "d": 1249.999499999998,
      "v": 100
    },
    {
      "midi": 79,
      "hit": false,
      "t": 50833.31299999996,
      "d": 1249.999499999998,
      "v": 100
    },
    {
      "midi": 79,
      "hit": false,
      "t": 52083.312499999956,
      "d": 416.66649999999936,
      "v": 100
    },
    {
      "midi": 76,
      "hit": false,
      "t": 52083.312499999956,
      "d": 416.66649999999936,
      "v": 100
    },
    {
      "midi": 81,
      "hit": false,
      "t": 52499.978999999956,
      "d": 416.66649999999936,
      "v": 100
    },
    {
      "midi": 76,
      "hit": false,
      "t": 52499.978999999956,
      "d": 416.66649999999936,
      "v": 100
    },
    {
      "midi": 41,
      "hit": false,
      "t": 52499.978999999956,
      "d": 2499.998999999996,
      "v": 100
    },
    {
      "midi": 83,
      "hit": false,
      "t": 52916.645499999955,
      "d": 416.66649999999936,
      "v": 100
    },
    {
      "midi": 79,
      "hit": false,
      "t": 52916.645499999955,
      "d": 416.66649999999936,
      "v": 100
    },
    {
      "midi": 84,
      "hit": false,
      "t": 53333.311999999954,
      "d": 1666.6659999999974,
      "v": 100
    },
    {
      "midi": 81,
      "hit": false,
      "t": 53333.311999999954,
      "d": 1666.6659999999974,
      "v": 100
    },
    {
      "midi": 81,
      "hit": false,
      "t": 54999.97799999995,
      "d": 416.66649999999936,
      "v": 100
    },
    {
      "midi": 76,
      "hit": false,
      "t": 54999.97799999995,
      "d": 416.66649999999936,
      "v": 100
    },
    {
      "midi": 45,
      "hit": false,
      "t": 54999.97799999995,
      "d": 2499.998999999996,
      "v": 100
    },
    {
      "midi": 83,
      "hit": false,
      "t": 55416.64449999995,
      "d": 416.66649999999936,
      "v": 100
    },
    {
      "midi": 79,
      "hit": false,
      "t": 55416.64449999995,
      "d": 416.66649999999936,
      "v": 100
    },
    {
      "midi": 84,
      "hit": false,
      "t": 55833.31099999995,
      "d": 416.66649999999936,
      "v": 100
    },
    {
      "midi": 81,
      "hit": false,
      "t": 55833.31099999995,
      "d": 416.66649999999936,
      "v": 100
    },
    {
      "midi": 83,
      "hit": false,
      "t": 56249.97749999995,
      "d": 416.66649999999936,
      "v": 100
    },
    {
      "midi": 79,
      "hit": false,
      "t": 56249.97749999995,
      "d": 416.66649999999936,
      "v": 100
    },
    {
      "midi": 81,
      "hit": false,
      "t": 56666.64399999995,
      "d": 416.66649999999936,
      "v": 100
    },
    {
      "midi": 76,
      "hit": false,
      "t": 56666.64399999995,
      "d": 416.66649999999936,
      "v": 100
    },
    {
      "midi": 76,
      "hit": false,
      "t": 57083.31049999995,
      "d": 416.66649999999936,
      "v": 100
    },
    {
      "midi": 72,
      "hit": false,
      "t": 57083.31049999995,
      "d": 416.66649999999936,
      "v": 100
    },
    {
      "midi": 81,
      "hit": false,
      "t": 57499.97699999995,
      "d": 833.3329999999987,
      "v": 100
    },
    {
      "midi": 78,
      "hit": false,
      "t": 57499.97699999995,
      "d": 833.3329999999987,
      "v": 100
    },
    {
      "midi": 42,
      "hit": false,
      "t": 57499.97699999995,
      "d": 2499.998999999996,
      "v": 100
    },
    {
      "midi": 78,
      "hit": false,
      "t": 58333.30999999995,
      "d": 833.3329999999987,
      "v": 100
    },
    {
      "midi": 74,
      "hit": false,
      "t": 58333.30999999995,
      "d": 833.3329999999987,
      "v": 100
    },
    {
      "midi": 81,
      "hit": false,
      "t": 59166.642999999945,
      "d": 833.3329999999987,
      "v": 100
    },
    {
      "midi": 78,
      "hit": false,
      "t": 59166.642999999945,
      "d": 833.3329999999987,
      "v": 100
    },
    {
      "midi": 79,
      "hit": false,
      "t": 59999.975999999944,
      "d": 833.3329999999987,
      "v": 100
    },
    {
      "midi": 74,
      "hit": false,
      "t": 59999.975999999944,
      "d": 833.3329999999987,
      "v": 100
    },
    {
      "midi": 43,
      "hit": false,
      "t": 59999.975999999944,
      "d": 4999.998,
      "v": 100
    },
    {
      "midi": 83,
      "hit": false,
      "t": 60833.30899999994,
      "d": 833.3329999999987,
      "v": 100
    },
    {
      "midi": 79,
      "hit": false,
      "t": 60833.30899999994,
      "d": 833.3329999999987,
      "v": 100
    },
    {
      "midi": 86,
      "hit": false,
      "t": 61666.64199999994,
      "d": 833.3329999999987,
      "v": 100
    },
    {
      "midi": 91,
      "hit": false,
      "t": 62499.97499999994,
      "d": 2499.9990000000034,
      "v": 100
    },
    {
      "midi": 83,
      "hit": false,
      "t": 62499.97499999994,
      "d": 2499.9990000000034,
      "v": 100
    }
  ]
}