{
  "jsonPath": "Rock/Rock En Espanol/Sonora Santanera/perfume-de-gardenias-con-alejandro-fernandez.json",
  "path": "Rock\\Rock En Espanol\\Sonora Santanera\\Perfume de Gardenias (Con Alejandro Fernandez).mid",
  "name": "Perfume de Gardenias (Con Alejandro Fernandez)",
  "difficulty": "Advanced",
  "bpm": 100,
  "notes": [
    {
      "midi": 64,
      "hit": false,
      "t": 0,
      "d": 850,
      "v": 62
    },
    {
      "midi": 67,
      "hit": false,
      "t": 0,
      "d": 870,
      "v": 73
    },
    {
      "midi": 71,
      "hit": false,
      "t": 30,
      "d": 855,
      "v": 58
    },
    {
      "midi": 76,
      "hit": false,
      "t": 115,
      "d": 760,
      "v": 90
    },
    {
      "midi": 60,
      "hit": false,
      "t": 780,
      "d": 915,
      "v": 63
    },
    {
      "midi": 71,
      "hit": false,
      "t": 940,
      "d": 260,
      "v": 77
    },
    {
      "midi": 64,
      "hit": false,
      "t": 950,
      "d": 205,
      "v": 34
    },
    {
      "midi": 67,
      "hit": false,
      "t": 950,
      "d": 220,
      "v": 79
    },
    {
      "midi": 76,
      "hit": false,
      "t": 950,
      "d": 230,
      "v": 79
    },
    {
      "midi": 48,
      "hit": false,
      "t": 1210,
      "d": 380,
      "v": 74
    },
    {
      "midi": 67,
      "hit": false,
      "t": 1305,
      "d": 170,
      "v": 75
    },
    {
      "midi": 64,
      "hit": false,
      "t": 1305,
      "d": 185,
      "v": 57
    },
    {
      "midi": 71,
      "hit": false,
      "t": 1305,
      "d": 185,
      "v": 72
    },
    {
      "midi": 76,
      "hit": false,
      "t": 1320,
      "d": 165,
      "v": 84
    },
    {
      "midi": 71,
      "hit": false,
      "t": 1580,
      "d": 75,
      "v": 77
    },
    {
      "midi": 64,
      "hit": false,
      "t": 1580,
      "d": 190,
      "v": 56
    },
    {
      "midi": 76,
      "hit": false,
      "t": 1585,
      "d": 195,
      "v": 62
    },
    {
      "midi": 67,
      "hit": false,
      "t": 1590,
      "d": 55,
      "v": 59
    },
    {
      "midi": 69,
      "hit": false,
      "t": 1600,
      "d": 35,
      "v": 48
    },
    {
      "midi": 49,
      "hit": false,
      "t": 1820,
      "d": 325,
      "v": 84
    },
    {
      "midi": 76,
      "hit": false,
      "t": 1910,
      "d": 115,
      "v": 55
    },
    {
      "midi": 70,
      "hit": false,
      "t": 1920,
      "d": 70,
      "v": 84
    },
    {
      "midi": 64,
      "hit": false,
      "t": 1920,
      "d": 125,
      "v": 46
    },
    {
      "midi": 64,
      "hit": false,
      "t": 2090,
      "d": 250,
      "v": 34
    },
    {
      "midi": 70,
      "hit": false,
      "t": 2095,
      "d": 80,
      "v": 90
    },
    {
      "midi": 76,
      "hit": false,
      "t": 2095,
      "d": 105,
      "v": 62
    },
    {
      "midi": 70,
      "hit": false,
      "t": 2285,
      "d": 325,
      "v": 41
    },
    {
      "midi": 76,
      "hit": false,
      "t": 2305,
      "d": 360,
      "v": 55
    },
    {
      "midi": 43,
      "hit": false,
      "t": 2440,
      "d": 515,
      "v": 62
    },
    {
      "midi": 71,
      "hit": false,
      "t": 2720,
      "d": 1170,
      "v": 74
    },
    {
      "midi": 50,
      "hit": false,
      "t": 2730,
      "d": 270,
      "v": 44
    },
    {
      "midi": 74,
      "hit": false,
      "t": 2730,
      "d": 1130,
      "v": 65
    },
    {
      "midi": 55,
      "hit": false,
      "t": 2980,
      "d": 100,
      "v": 63
    },
    {
      "midi": 59,
      "hit": false,
      "t": 3280,
      "d": 915,
      "v": 49
    },
    {
      "midi": 62,
      "hit": false,
      "t": 3585,
      "d": 555,
      "v": 72
    },
    {
      "midi": 67,
      "hit": false,
      "t": 3905,
      "d": 150,
      "v": 102
    },
    {
      "midi": 55,
      "hit": false,
      "t": 4215,
      "d": 235,
      "v": 48
    },
    {
      "midi": 59,
      "hit": false,
      "t": 4460,
      "d": 70,
      "v": 60
    },
    {
      "midi": 61,
      "hit": false,
      "t": 4650,
      "d": 810,
      "v": 48
    },
    {
      "midi": 64,
      "hit": false,
      "t": 4720,
      "d": 635,
      "v": 45
    },
    {
      "midi": 67,
      "hit": false,
      "t": 4785,
      "d": 520,
      "v": 66
    },
    {
      "midi": 45,
      "hit": false,
      "t": 4785,
      "d": 730,
      "v": 66
    },
    {
      "midi": 71,
      "hit": false,
      "t": 4845,
      "d": 475,
      "v": 52
    },
    {
      "midi": 52,
      "hit": false,
      "t": 5175,
      "d": 295,
      "v": 39
    },
    {
      "midi": 57,
      "hit": false,
      "t": 5440,
      "d": 180,
      "v": 47
    },
    {
      "midi": 45,
      "hit": false,
      "t": 5735,
      "d": 95,
      "v": 26
    },
    {
      "midi": 60,
      "hit": false,
      "t": 5915,
      "d": 715,
      "v": 46
    },
    {
      "midi": 63,
      "hit": false,
      "t": 5975,
      "d": 570,
      "v": 35
    },
    {
      "midi": 66,
      "hit": false,
      "t": 6000,
      "d": 535,
      "v": 39
    },
    {
      "midi": 38,
      "hit": false,
      "t": 6045,
      "d": 600,
      "v": 49
    },
    {
      "midi": 71,
      "hit": false,
      "t": 6050,
      "d": 485,
      "v": 51
    },
    {
      "midi": 50,
      "hit": false,
      "t": 6580,
      "d": 145,
      "v": 64
    },
    {
      "midi": 38,
      "hit": false,
      "t": 6850,
      "d": 130,
      "v": 36
    },
    {
      "midi": 59,
      "hit": false,
      "t": 7115,
      "d": 290,
      "v": 49
    },
    {
      "midi": 62,
      "hit": false,
      "t": 7140,
      "d": 460,
      "v": 57
    },
    {
      "midi": 43,
      "hit": false,
      "t": 7200,
      "d": 1400,
      "v": 34
    },
    {
      "midi": 64,
      "hit": false,
      "t": 7205,
      "d": 300,
      "v": 48
    },
    {
      "midi": 67,
      "hit": false,
      "t": 7240,
      "d": 250,
      "v": 59
    },
    {
      "midi": 50,
      "hit": false,
      "t": 7510,
      "d": 1335,
      "v": 40
    },
    {
      "midi": 57,
      "hit": false,
      "t": 7820,
      "d": 645,
      "v": 51
    },
    {
      "midi": 59,
      "hit": false,
      "t": 8090,
      "d": 90,
      "v": 81
    },
    {
      "midi": 62,
      "hit": false,
      "t": 8380,
      "d": 95,
      "v": 86
    },
    {
      "midi": 64,
      "hit": false,
      "t": 8680,
      "d": 340,
      "v": 92
    },
    {
      "midi": 67,
      "hit": false,
      "t": 8965,
      "d": 205,
      "v": 66
    },
    {
      "midi": 50,
      "hit": false,
      "t": 9005,
      "d": 350,
      "v": 40
    },
    {
      "midi": 52,
      "hit": false,
      "t": 9010,
      "d": 110,
      "v": 36
    },
    {
      "midi": 71,
      "hit": false,
      "t": 9230,
      "d": 90,
      "v": 61
    },
    {
      "midi": 45,
      "hit": false,
      "t": 9595,
      "d": 715,
      "v": 43
    },
    {
      "midi": 72,
      "hit": false,
      "t": 9600,
      "d": 615,
      "v": 36
    },
    {
      "midi": 74,
      "hit": false,
      "t": 9600,
      "d": 620,
      "v": 57
    },
    {
      "midi": 67,
      "hit": false,
      "t": 9615,
      "d": 595,
      "v": 50
    },
    {
      "midi": 57,
      "hit": false,
      "t": 10205,
      "d": 90,
      "v": 57
    },
    {
      "midi": 66,
      "hit": false,
      "t": 10695,
      "d": 405,
      "v": 55
    },
    {
      "midi": 38,
      "hit": false,
      "t": 10745,
      "d": 895,
      "v": 65
    },
    {
      "midi": 72,
      "hit": false,
      "t": 10755,
      "d": 295,
      "v": 51
    },
    {
      "midi": 74,
      "hit": false,
      "t": 10780,
      "d": 265,
      "v": 54
    },
    {
      "midi": 45,
      "hit": false,
      "t": 11305,
      "d": 350,
      "v": 36
    },
    {
      "midi": 50,
      "hit": false,
      "t": 11605,
      "d": 165,
      "v": 40
    },
    {
      "midi": 59,
      "hit": false,
      "t": 11810,
      "d": 280,
      "v": 59
    },
    {
      "midi": 62,
      "hit": false,
      "t": 11855,
      "d": 300,
      "v": 47
    },
    {
      "midi": 66,
      "hit": false,
      "t": 11935,
      "d": 235,
      "v": 73
    },
    {
      "midi": 43,
      "hit": false,
      "t": 11980,
      "d": 340,
      "v": 59
    },
    {
      "midi": 71,
      "hit": false,
      "t": 11995,
      "d": 265,
      "v": 70
    },
    {
      "midi": 50,
      "hit": false,
      "t": 12295,
      "d": 75,
      "v": 60
    },
    {
      "midi": 59,
      "hit": false,
      "t": 12610,
      "d": 650,
      "v": 59
    },
    {
      "midi": 62,
      "hit": false,
      "t": 12870,
      "d": 880,
      "v": 84
    },
    {
      "midi": 67,
      "hit": false,
      "t": 13195,
      "d": 370,
      "v": 62
    },
    {
      "midi": 73,
      "hit": false,
      "t": 13490,
      "d": 290,
      "v": 90
    },
    {
      "midi": 70,
      "hit": false,
      "t": 13500,
      "d": 220,
      "v": 94
    },
    {
      "midi": 59,
      "hit": false,
      "t": 13730,
      "d": 130,
      "v": 53
    },
    {
      "midi": 74,
      "hit": false,
      "t": 13895,
      "d": 140,
      "v": 72
    },
    {
      "midi": 71,
      "hit": false,
      "t": 13895,
      "d": 145,
      "v": 73
    },
    {
      "midi": 47,
      "hit": false,
      "t": 14290,
      "d": 1670,
      "v": 59
    },
    {
      "midi": 75,
      "hit": false,
      "t": 14350,
      "d": 95,
      "v": 74
    },
    {
      "midi": 69,
      "hit": false,
      "t": 14360,
      "d": 110,
      "v": 61
    },
    {
      "midi": 54,
      "hit": false,
      "t": 14660,
      "d": 1490,
      "v": 50
    },
    {
      "midi": 57,
      "hit": false,
      "t": 14970,
      "d": 485,
      "v": 58
    },
    {
      "midi": 63,
      "hit": false,
      "t": 15250,
      "d": 185,
      "v": 62
    },
    {
      "midi": 66,
      "hit": false,
      "t": 15605,
      "d": 585,
      "v": 70
    },
    {
      "midi": 71,
      "hit": false,
      "t": 15620,
      "d": 555,
      "v": 50
    },
    {
      "midi": 63,
      "hit": false,
      "t": 15620,
      "d": 575,
      "v": 69
    },
    {
      "midi": 57,
      "hit": false,
      "t": 15620,
      "d": 635,
      "v": 60
    },
    {
      "midi": 47,
      "hit": false,
      "t": 16175,
      "d": 310,
      "v": 66
    },
    {
      "midi": 55,
      "hit": false,
      "t": 16655,
      "d": 165,
      "v": 42
    },
    {
      "midi": 59,
      "hit": false,
      "t": 16725,
      "d": 285,
      "v": 48
    },
    {
      "midi": 62,
      "hit": false,
      "t": 16790,
      "d": 210,
      "v": 42
    },
    {
      "midi": 40,
      "hit": false,
      "t": 16825,
      "d": 315,
      "v": 45
    },
    {
      "midi": 67,
      "hit": false,
      "t": 16850,
      "d": 170,
      "v": 46
    },
    {
      "midi": 47,
      "hit": false,
      "t": 17090,
      "d": 105,
      "v": 40
    },
    {
      "midi": 52,
      "hit": false,
      "t": 17185,
      "d": 90,
      "v": 62
    },
    {
      "midi": 55,
      "hit": false,
      "t": 17210,
      "d": 125,
      "v": 46
    },
    {
      "midi": 59,
      "hit": false,
      "t": 17280,
      "d": 110,
      "v": 45
    },
    {
      "midi": 64,
      "hit": false,
      "t": 17345,
      "d": 120,
      "v": 44
    },
    {
      "midi": 55,
      "hit": false,
      "t": 17455,
      "d": 185,
      "v": 59
    },
    {
      "midi": 59,
      "hit": false,
      "t": 17555,
      "d": 590,
      "v": 51
    },
    {
      "midi": 64,
      "hit": false,
      "t": 17640,
      "d": 550,
      "v": 86
    },
    {
      "midi": 67,
      "hit": false,
      "t": 17715,
      "d": 910,
      "v": 62
    },
    {
      "midi": 71,
      "hit": false,
      "t": 17790,
      "d": 840,
      "v": 67
    },
    {
      "midi": 76,
      "hit": false,
      "t": 17890,
      "d": 770,
      "v": 92
    },
    {
      "midi": 73,
      "hit": false,
      "t": 17900,
      "d": 40,
      "v": 36
    },
    {
      "midi": 55,
      "hit": false,
      "t": 18005,
      "d": 540,
      "v": 66
    },
    {
      "midi": 59,
      "hit": false,
      "t": 18610,
      "d": 120,
      "v": 57
    },
    {
      "midi": 55,
      "hit": false,
      "t": 18610,
      "d": 150,
      "v": 45
    },
    {
      "midi": 48,
      "hit": false,
      "t": 19110,
      "d": 345,
      "v": 75
    },
    {
      "midi": 76,
      "hit": false,
      "t": 19200,
      "d": 485,
      "v": 88
    },
    {
      "midi": 55,
      "hit": false,
      "t": 19380,
      "d": 760,
      "v": 49
    },
    {
      "midi": 60,
      "hit": false,
      "t": 19545,
      "d": 780,
      "v": 94
    },
    {
      "midi": 64,
      "hit": false,
      "t": 19695,
      "d": 315,
      "v": 74
    },
    {
      "midi": 67,
      "hit": false,
      "t": 19870,
      "d": 210,
      "v": 86
    },
    {
      "midi": 76,
      "hit": false,
      "t": 20035,
      "d": 155,
      "v": 86
    },
    {
      "midi": 48,
      "hit": false,
      "t": 20180,
      "d": 110,
      "v": 74
    },
    {
      "midi": 64,
      "hit": false,
      "t": 20400,
      "d": 400,
      "v": 51
    },
    {
      "midi": 76,
      "hit": false,
      "t": 20400,
      "d": 715,
      "v": 50
    },
    {
      "midi": 70,
      "hit": false,
      "t": 20405,
      "d": 695,
      "v": 57
    },
    {
      "midi": 49,
      "hit": false,
      "t": 20415,
      "d": 615,
      "v": 52
    },
    {
      "midi": 61,
      "hit": false,
      "t": 20720,
      "d": 540,
      "v": 47
    },
    {
      "midi": 64,
      "hit": false,
      "t": 21005,
      "d": 250,
      "v": 73
    },
    {
      "midi": 49,
      "hit": false,
      "t": 21250,
      "d": 160,
      "v": 53
    },
    {
      "midi": 59,
      "hit": false,
      "t": 21540,
      "d": 770,
      "v": 50
    },
    {
      "midi": 62,
      "hit": false,
      "t": 21590,
      "d": 985,
      "v": 38
    },
    {
      "midi": 61,
      "hit": false,
      "t": 21620,
      "d": 40,
      "v": 31
    },
    {
      "midi": 43,
      "hit": false,
      "t": 21620,
      "d": 1835,
      "v": 57
    },
    {
      "midi": 66,
      "hit": false,
      "t": 21680,
      "d": 940,
      "v": 39
    },
    {
      "midi": 71,
      "hit": false,
      "t": 21725,
      "d": 960,
      "v": 49
    },
    {
      "midi": 50,
      "hit": false,
      "t": 21940,
      "d": 1020,
      "v": 35
    },
    {
      "midi": 55,
      "hit": false,
      "t": 22230,
      "d": 1055,
      "v": 38
    },
    {
      "midi": 59,
      "hit": false,
      "t": 22520,
      "d": 970,
      "v": 53
    },
    {
      "midi": 62,
      "hit": false,
      "t": 22825,
      "d": 630,
      "v": 54
    },
    {
      "midi": 66,
      "hit": false,
      "t": 22825,
      "d": 675,
      "v": 61
    },
    {
      "midi": 71,
      "hit": false,
      "t": 22840,
      "d": 685,
      "v": 55
    },
    {
      "midi": 50,
      "hit": false,
      "t": 23105,
      "d": 415,
      "v": 35
    },
    {
      "midi": 55,
      "hit": false,
      "t": 23415,
      "d": 580,
      "v": 44
    },
    {
      "midi": 43,
      "hit": false,
      "t": 23650,
      "d": 150,
      "v": 49
    },
    {
      "midi": 61,
      "hit": false,
      "t": 23925,
      "d": 700,
      "v": 54
    },
    {
      "midi": 45,
      "hit": false,
      "t": 23970,
      "d": 1290,
      "v": 49
    },
    {
      "midi": 64,
      "hit": false,
      "t": 23985,
      "d": 955,
      "v": 49
    },
    {
      "midi": 67,
      "hit": false,
      "t": 24010,
      "d": 990,
      "v": 37
    },
    {
      "midi": 71,
      "hit": false,
      "t": 24070,
      "d": 890,
      "v": 56
    },
    {
      "midi": 52,
      "hit": false,
      "t": 24300,
      "d": 1505,
      "v": 42
    },
    {
      "midi": 57,
      "hit": false,
      "t": 24615,
      "d": 1365,
      "v": 48
    },
    {
      "midi": 61,
      "hit": false,
      "t": 24895,
      "d": 245,
      "v": 61
    },
    {
      "midi": 64,
      "hit": false,
      "t": 25220,
      "d": 720,
      "v": 73
    },
    {
      "midi": 67,
      "hit": false,
      "t": 25225,
      "d": 735,
      "v": 74
    },
    {
      "midi": 61,
      "hit": false,
      "t": 25230,
      "d": 630,
      "v": 37
    },
    {
      "midi": 71,
      "hit": false,
      "t": 25565,
      "d": 495,
      "v": 86
    },
    {
      "midi": 45,
      "hit": false,
      "t": 25825,
      "d": 285,
      "v": 70
    },
    {
      "midi": 61,
      "hit": false,
      "t": 26025,
      "d": 160,
      "v": 63
    },
    {
      "midi": 52,
      "hit": false,
      "t": 26060,
      "d": 45,
      "v": 35
    },
    {
      "midi": 38,
      "hit": false,
      "t": 26370,
      "d": 355,
      "v": 54
    },
    {
      "midi": 66,
      "hit": false,
      "t": 26430,
      "d": 485,
      "v": 61
    },
    {
      "midi": 60,
      "hit": false,
      "t": 26435,
      "d": 360,
      "v": 58
    },
    {
      "midi": 69,
      "hit": false,
      "t": 26435,
      "d": 535,
      "v": 54
    },
    {
      "midi": 45,
      "hit": false,
      "t": 26655,
      "d": 95,
      "v": 41
    },
    {
      "midi": 54,
      "hit": false,
      "t": 26975,
      "d": 255,
      "v": 45
    },
    {
      "midi": 60,
      "hit": false,
      "t": 27305,
      "d": 785,
      "v": 99
    },
    {
      "midi": 62,
      "hit": false,
      "t": 27595,
      "d": 335,
      "v": 88
    },
    {
      "midi": 66,
      "hit": false,
      "t": 27870,
      "d": 110,
      "v": 88
    },
    {
      "midi": 57,
      "hit": false,
      "t": 28185,
      "d": 310,
      "v": 50
    },
    {
      "midi": 72,
      "hit": false,
      "t": 28715,
      "d": 125,
      "v": 37
    },
    {
      "midi": 76,
      "hit": false,
      "t": 28720,
      "d": 115,
      "v": 39
    },
    {
      "midi": 67,
      "hit": false,
      "t": 28725,
      "d": 140,
      "v": 42
    },
    {
      "midi": 45,
      "hit": false,
      "t": 28740,
      "d": 965,
      "v": 40
    },
    {
      "midi": 52,
      "hit": false,
      "t": 29060,
      "d": 285,
      "v": 30
    },
    {
      "midi": 55,
      "hit": false,
      "t": 29390,
      "d": 75,
      "v": 52
    },
    {
      "midi": 60,
      "hit": false,
      "t": 29390,
      "d": 75,
      "v": 55
    },
    {
      "midi": 64,
      "hit": false,
      "t": 29390,
      "d": 100,
      "v": 66
    },
    {
      "midi": 52,
      "hit": false,
      "t": 29665,
      "d": 100,
      "v": 41
    },
    {
      "midi": 50,
      "hit": false,
      "t": 29970,
      "d": 685,
      "v": 38
    },
    {
      "midi": 60,
      "hit": false,
      "t": 29985,
      "d": 525,
      "v": 39
    },
    {
      "midi": 63,
      "hit": false,
      "t": 29985,
      "d": 900,
      "v": 40
    },
    {
      "midi": 68,
      "hit": false,
      "t": 29990,
      "d": 865,
      "v": 40
    },
    {
      "midi": 54,
      "hit": false,
      "t": 30290,
      "d": 605,
      "v": 41
    },
    {
      "midi": 57,
      "hit": false,
      "t": 30615,
      "d": 345,
      "v": 39
    },
    {
      "midi": 60,
      "hit": false,
      "t": 30865,
      "d": 85,
      "v": 55
    },
    {
      "midi": 50,
      "hit": false,
      "t": 30870,
      "d": 185,
      "v": 44
    },
    {
      "midi": 59,
      "hit": false,
      "t": 31085,
      "d": 445,
      "v": 54
    },
    {
      "midi": 62,
      "hit": false,
      "t": 31180,
      "d": 525,
      "v": 67
    },
    {
      "midi": 66,
      "hit": false,
      "t": 31245,
      "d": 420,
      "v": 42
    },
    {
      "midi": 43,
      "hit": false,
      "t": 31250,
      "d": 350,
      "v": 50
    },
    {
      "midi": 71,
      "hit": false,
      "t": 31295,
      "d": 340,
      "v": 45
    },
    {
      "midi": 50,
      "hit": false,
      "t": 31500,
      "d": 110,
      "v": 61
    },
    {
      "midi": 55,
      "hit": false,
      "t": 31825,
      "d": 605,
      "v": 54
    },
    {
      "midi": 59,
      "hit": false,
      "t": 32100,
      "d": 810,
      "v": 42
    },
    {
      "midi": 62,
      "hit": false,
      "t": 32390,
      "d": 425,
      "v": 66
    },
    {
      "midi": 70,
      "hit": false,
      "t": 32690,
      "d": 210,
      "v": 92
    },
    {
      "midi": 73,
      "hit": false,
      "t": 32690,
      "d": 210,
      "v": 108
    },
    {
      "midi": 55,
      "hit": false,
      "t": 32885,
      "d": 145,
      "v": 55
    },
    {
      "midi": 74,
      "hit": false,
      "t": 33060,
      "d": 145,
      "v": 88
    },
    {
      "midi": 71,
      "hit": false,
      "t": 33060,
      "d": 150,
      "v": 74
    },
    {
      "midi": 75,
      "hit": false,
      "t": 33465,
      "d": 155,
      "v": 61
    },
    {
      "midi": 69,
      "hit": false,
      "t": 33470,
      "d": 180,
      "v": 62
    },
    {
      "midi": 42,
      "hit": false,
      "t": 33550,
      "d": 990,
      "v": 64
    },
    {
      "midi": 54,
      "hit": false,
      "t": 33920,
      "d": 550,
      "v": 50
    },
    {
      "midi": 61,
      "hit": false,
      "t": 34185,
      "d": 125,
      "v": 77
    },
    {
      "midi": 57,
      "hit": false,
      "t": 34185,
      "d": 145,
      "v": 67
    },
    {
      "midi": 64,
      "hit": false,
      "t": 34185,
      "d": 145,
      "v": 69
    },
    {
      "midi": 69,
      "hit": false,
      "t": 34195,
      "d": 125,
      "v": 54
    },
    {
      "midi": 49,
      "hit": false,
      "t": 34490,
      "d": 320,
      "v": 33
    },
    {
      "midi": 66,
      "hit": false,
      "t": 34770,
      "d": 480,
      "v": 52
    },
    {
      "midi": 71,
      "hit": false,
      "t": 34780,
      "d": 460,
      "v": 50
    },
    {
      "midi": 63,
      "hit": false,
      "t": 34780,
      "d": 495,
      "v": 58
    },
    {
      "midi": 57,
      "hit": false,
      "t": 34780,
      "d": 640,
      "v": 57
    },
    {
      "midi": 47,
      "hit": false,
      "t": 34800,
      "d": 450,
      "v": 43
    },
    {
      "midi": 47,
      "hit": false,
      "t": 35410,
      "d": 440,
      "v": 68
    },
    {
      "midi": 55,
      "hit": false,
      "t": 35795,
      "d": 340,
      "v": 47
    },
    {
      "midi": 59,
      "hit": false,
      "t": 35870,
      "d": 280,
      "v": 44
    },
    {
      "midi": 62,
      "hit": false,
      "t": 35945,
      "d": 205,
      "v": 55
    },
    {
      "midi": 67,
      "hit": false,
      "t": 35995,
      "d": 130,
      "v": 54
    },
    {
      "midi": 40,
      "hit": false,
      "t": 36020,
      "d": 240,
      "v": 70
    },
    {
      "midi": 47,
      "hit": false,
      "t": 36240,
      "d": 50,
      "v": 32
    },
    {
      "midi": 52,
      "hit": false,
      "t": 36320,
      "d": 60,
      "v": 57
    },
    {
      "midi": 55,
      "hit": false,
      "t": 36350,
      "d": 100,
      "v": 46
    },
    {
      "midi": 59,
      "hit": false,
      "t": 36415,
      "d": 115,
      "v": 39
    },
    {
      "midi": 64,
      "hit": false,
      "t": 36465,
      "d": 110,
      "v": 55
    },
    {
      "midi": 55,
      "hit": false,
      "t": 36580,
      "d": 165,
      "v": 72
    },
    {
      "midi": 59,
      "hit": false,
      "t": 36665,
      "d": 535,
      "v": 56
    },
    {
      "midi": 64,
      "hit": false,
      "t": 36780,
      "d": 370,
      "v": 84
    },
    {
      "midi": 67,
      "hit": false,
      "t": 36855,
      "d": 660,
      "v": 67
    },
    {
      "midi": 71,
      "hit": false,
      "t": 36920,
      "d": 615,
      "v": 53
    },
    {
      "midi": 73,
      "hit": false,
      "t": 37030,
      "d": 75,
      "v": 50
    },
    {
      "midi": 76,
      "hit": false,
      "t": 37060,
      "d": 520,
      "v": 81
    },
    {
      "midi": 55,
      "hit": false,
      "t": 37175,
      "d": 765,
      "v": 74
    },
    {
      "midi": 59,
      "hit": false,
      "t": 37805,
      "d": 225,
      "v": 53
    },
    {
      "midi": 76,
      "hit": false,
      "t": 38240,
      "d": 860,
      "v": 70
    },
    {
      "midi": 48,
      "hit": false,
      "t": 38390,
      "d": 250,
      "v": 51
    },
    {
      "midi": 55,
      "hit": false,
      "t": 38595,
      "d": 750,
      "v": 33
    },
    {
      "midi": 60,
      "hit": false,
      "t": 38820,
      "d": 750,
      "v": 78
    },
    {
      "midi": 64,
      "hit": false,
      "t": 38995,
      "d": 375,
      "v": 72
    },
    {
      "midi": 67,
      "hit": false,
      "t": 39185,
      "d": 240,
      "v": 75
    },
    {
      "midi": 72,
      "hit": false,
      "t": 39350,
      "d": 125,
      "v": 56
    },
    {
      "midi": 48,
      "hit": false,
      "t": 39435,
      "d": 95,
      "v": 55
    },
    {
      "midi": 76,
      "hit": false,
      "t": 39490,
      "d": 650,
      "v": 34
    },
    {
      "midi": 70,
      "hit": false,
      "t": 39605,
      "d": 500,
      "v": 86
    },
    {
      "midi": 64,
      "hit": false,
      "t": 39610,
      "d": 425,
      "v": 35
    },
    {
      "midi": 49,
      "hit": false,
      "t": 39665,
      "d": 585,
      "v": 46
    },
    {
      "midi": 61,
      "hit": false,
      "t": 39940,
      "d": 560,
      "v": 81
    },
    {
      "midi": 64,
      "hit": false,
      "t": 40220,
      "d": 185,
      "v": 67
    },
    {
      "midi": 76,
      "hit": false,
      "t": 40235,
      "d": 385,
      "v": 21
    },
    {
      "midi": 49,
      "hit": false,
      "t": 40450,
      "d": 160,
      "v": 69
    },
    {
      "midi": 67,
      "hit": false,
      "t": 40665,
      "d": 1035,
      "v": 42
    },
    {
      "midi": 71,
      "hit": false,
      "t": 40685,
      "d": 1265,
      "v": 60
    },
    {
      "midi": 74,
      "hit": false,
      "t": 40700,
      "d": 995,
      "v": 79
    },
    {
      "midi": 43,
      "hit": false,
      "t": 40905,
      "d": 265,
      "v": 19
    },
    {
      "midi": 50,
      "hit": false,
      "t": 41080,
      "d": 295,
      "v": 66
    },
    {
      "midi": 55,
      "hit": false,
      "t": 41380,
      "d": 80,
      "v": 53
    },
    {
      "midi": 55,
      "hit": false,
      "t": 41695,
      "d": 645,
      "v": 50
    },
    {
      "midi": 59,
      "hit": false,
      "t": 41695,
      "d": 840,
      "v": 57
    },
    {
      "midi": 62,
      "hit": false,
      "t": 41990,
      "d": 500,
      "v": 83
    },
    {
      "midi": 67,
      "hit": false,
      "t": 42305,
      "d": 265,
      "v": 65
    },
    {
      "midi": 55,
      "hit": false,
      "t": 42610,
      "d": 325,
      "v": 55
    },
    {
      "midi": 59,
      "hit": false,
      "t": 42860,
      "d": 80,
      "v": 46
    },
    {
      "midi": 61,
      "hit": false,
      "t": 43030,
      "d": 1070,
      "v": 61
    },
    {
      "midi": 64,
      "hit": false,
      "t": 43115,
      "d": 695,
      "v": 40
    },
    {
      "midi": 67,
      "hit": false,
      "t": 43170,
      "d": 640,
      "v": 50
    },
    {
      "midi": 45,
      "hit": false,
      "t": 43225,
      "d": 875,
      "v": 36
    },
    {
      "midi": 71,
      "hit": false,
      "t": 43240,
      "d": 635,
      "v": 44
    },
    {
      "midi": 52,
      "hit": false,
      "t": 43485,
      "d": 300,
      "v": 44
    },
    {
      "midi": 57,
      "hit": false,
      "t": 43820,
      "d": 325,
      "v": 33
    },
    {
      "midi": 52,
      "hit": false,
      "t": 44065,
      "d": 300,
      "v": 30
    },
    {
      "midi": 50,
      "hit": false,
      "t": 44340,
      "d": 590,
      "v": 49
    },
    {
      "midi": 66,
      "hit": false,
      "t": 44380,
      "d": 440,
      "v": 46
    },
    {
      "midi": 69,
      "hit": false,
      "t": 44380,
      "d": 450,
      "v": 45
    },
    {
      "midi": 60,
      "hit": false,
      "t": 44380,
      "d": 550,
      "v": 49
    },
    {
      "midi": 38,
      "hit": false,
      "t": 44965,
      "d": 315,
      "v": 44
    },
    {
      "midi": 50,
      "hit": false,
      "t": 45220,
      "d": 180,
      "v": 39
    },
    {
      "midi": 59,
      "hit": false,
      "t": 45320,
      "d": 340,
      "v": 49
    },
    {
      "midi": 62,
      "hit": false,
      "t": 45395,
      "d": 280,
      "v": 41
    },
    {
      "midi": 64,
      "hit": false,
      "t": 45490,
      "d": 125,
      "v": 34
    },
    {
      "midi": 67,
      "hit": false,
      "t": 45490,
      "d": 175,
      "v": 66
    },
    {
      "midi": 43,
      "hit": false,
      "t": 45535,
      "d": 265,
      "v": 57
    },
    {
      "midi": 50,
      "hit": false,
      "t": 45760,
      "d": 110,
      "v": 58
    },
    {
      "midi": 55,
      "hit": false,
      "t": 45870,
      "d": 90,
      "v": 38
    },
    {
      "midi": 59,
      "hit": false,
      "t": 45890,
      "d": 120,
      "v": 50
    },
    {
      "midi": 62,
      "hit": false,
      "t": 45990,
      "d": 100,
      "v": 27
    },
    {
      "midi": 64,
      "hit": false,
      "t": 46045,
      "d": 75,
      "v": 38
    },
    {
      "midi": 59,
      "hit": false,
      "t": 46120,
      "d": 115,
      "v": 67
    },
    {
      "midi": 62,
      "hit": false,
      "t": 46190,
      "d": 70,
      "v": 54
    },
    {
      "midi": 67,
      "hit": false,
      "t": 46285,
      "d": 105,
      "v": 86
    },
    {
      "midi": 71,
      "hit": false,
      "t": 46340,
      "d": 80,
      "v": 46
    },
    {
      "midi": 74,
      "hit": false,
      "t": 46390,
      "d": 95,
      "v": 53
    },
    {
      "midi": 76,
      "hit": false,
      "t": 46430,
      "d": 75,
      "v": 38
    },
    {
      "midi": 69,
      "hit": false,
      "t": 46495,
      "d": 35,
      "v": 56
    },
    {
      "midi": 71,
      "hit": false,
      "t": 46500,
      "d": 70,
      "v": 69
    },
    {
      "midi": 74,
      "hit": false,
      "t": 46580,
      "d": 85,
      "v": 56
    },
    {
      "midi": 79,
      "hit": false,
      "t": 46670,
      "d": 70,
      "v": 77
    },
    {
      "midi": 83,
      "hit": false,
      "t": 46700,
      "d": 500,
      "v": 67
    },
    {
      "midi": 86,
      "hit": false,
      "t": 46765,
      "d": 470,
      "v": 69
    },
    {
      "midi": 88,
      "hit": false,
      "t": 46825,
      "d": 390,
      "v": 34
    },
    {
      "midi": 91,
      "hit": false,
      "t": 46890,
      "d": 325,
      "v": 57
    },
    {
      "midi": 50,
      "hit": false,
      "t": 47425,
      "d": 530,
      "v": 47
    },
    {
      "midi": 55,
      "hit": false,
      "t": 47685,
      "d": 300,
      "v": 39
    },
    {
      "midi": 71,
      "hit": false,
      "t": 47890,
      "d": 215,
      "v": 61
    },
    {
      "midi": 74,
      "hit": false,
      "t": 47955,
      "d": 195,
      "v": 44
    },
    {
      "midi": 76,
      "hit": false,
      "t": 48015,
      "d": 125,
      "v": 33
    },
    {
      "midi": 43,
      "hit": false,
      "t": 48015,
      "d": 595,
      "v": 51
    },
    {
      "midi": 79,
      "hit": false,
      "t": 48040,
      "d": 75,
      "v": 55
    },
    {
      "midi": 50,
      "hit": false,
      "t": 48305,
      "d": 330,
      "v": 36
    },
    {
      "midi": 55,
      "hit": false,
      "t": 48590,
      "d": 435,
      "v": 66
    },
    {
      "midi": 43,
      "hit": false,
      "t": 48920,
      "d": 95,
      "v": 21
    },
    {
      "midi": 78,
      "hit": false,
      "t": 49210,
      "d": 240,
      "v": 52
    },
    {
      "midi": 69,
      "hit": false,
      "t": 49215,
      "d": 260,
      "v": 42
    },
    {
      "midi": 47,
      "hit": false,
      "t": 49215,
      "d": 620,
      "v": 62
    },
    {
      "midi": 83,
      "hit": false,
      "t": 49225,
      "d": 210,
      "v": 47
    },
    {
      "midi": 75,
      "hit": false,
      "t": 49225,
      "d": 220,
      "v": 41
    },
    {
      "midi": 54,
      "hit": false,
      "t": 49525,
      "d": 465,
      "v": 54
    },
    {
      "midi": 57,
      "hit": false,
      "t": 49845,
      "d": 210,
      "v": 66
    },
    {
      "midi": 65,
      "hit": false,
      "t": 49865,
      "d": 75,
      "v": 50
    },
    {
      "midi": 66,
      "hit": false,
      "t": 49865,
      "d": 110,
      "v": 63
    },
    {
      "midi": 71,
      "hit": false,
      "t": 49865,
      "d": 110,
      "v": 54
    },
    {
      "midi": 63,
      "hit": false,
      "t": 49865,
      "d": 130,
      "v": 61
    },
    {
      "midi": 47,
      "hit": false,
      "t": 50070,
      "d": 140,
      "v": 59
    },
    {
      "midi": 62,
      "hit": false,
      "t": 50370,
      "d": 275,
      "v": 62
    },
    {
      "midi": 59,
      "hit": false,
      "t": 50370,
      "d": 325,
      "v": 68
    },
    {
      "midi": 67,
      "hit": false,
      "t": 50375,
      "d": 230,
      "v": 73
    },
    {
      "midi": 40,
      "hit": false,
      "t": 50380,
      "d": 370,
      "v": 47
    },
    {
      "midi": 47,
      "hit": false,
      "t": 50695,
      "d": 105,
      "v": 25
    },
    {
      "midi": 52,
      "hit": false,
      "t": 50785,
      "d": 60,
      "v": 57
    },
    {
      "midi": 55,
      "hit": false,
      "t": 50820,
      "d": 95,
      "v": 55
    },
    {
      "midi": 59,
      "hit": false,
      "t": 50905,
      "d": 115,
      "v": 36
    },
    {
      "midi": 62,
      "hit": false,
      "t": 50965,
      "d": 125,
      "v": 51
    },
    {
      "midi": 55,
      "hit": false,
      "t": 51065,
      "d": 160,
      "v": 68
    },
    {
      "midi": 59,
      "hit": false,
      "t": 51160,
      "d": 595,
      "v": 45
    },
    {
      "midi": 64,
      "hit": false,
      "t": 51265,
      "d": 440,
      "v": 66
    },
    {
      "midi": 67,
      "hit": false,
      "t": 51365,
      "d": 415,
      "v": 64
    },
    {
      "midi": 71,
      "hit": false,
      "t": 51445,
      "d": 320,
      "v": 57
    },
    {
      "midi": 74,
      "hit": false,
      "t": 51520,
      "d": 290,
      "v": 68
    },
    {
      "midi": 79,
      "hit": false,
      "t": 51580,
      "d": 270,
      "v": 83
    },
    {
      "midi": 55,
      "hit": false,
      "t": 51700,
      "d": 285,
      "v": 45
    },
    {
      "midi": 59,
      "hit": false,
      "t": 51935,
      "d": 325,
      "v": 43
    },
    {
      "midi": 55,
      "hit": false,
      "t": 52205,
      "d": 145,
      "v": 56
    },
    {
      "midi": 42,
      "hit": false,
      "t": 52700,
      "d": 1185,
      "v": 44
    },
    {
      "midi": 83,
      "hit": false,
      "t": 52780,
      "d": 110,
      "v": 49
    },
    {
      "midi": 75,
      "hit": false,
      "t": 52780,
      "d": 125,
      "v": 47
    },
    {
      "midi": 78,
      "hit": false,
      "t": 52780,
      "d": 125,
      "v": 52
    },
    {
      "midi": 69,
      "hit": false,
      "t": 52780,
      "d": 150,
      "v": 49
    },
    {
      "midi": 54,
      "hit": false,
      "t": 53085,
      "d": 720,
      "v": 41
    },
    {
      "midi": 63,
      "hit": false,
      "t": 53430,
      "d": 530,
      "v": 57
    },
    {
      "midi": 57,
      "hit": false,
      "t": 53430,
      "d": 570,
      "v": 56
    },
    {
      "midi": 66,
      "hit": false,
      "t": 53430,
      "d": 570,
      "v": 77
    },
    {
      "midi": 47,
      "hit": false,
      "t": 53960,
      "d": 475,
      "v": 50
    },
    {
      "midi": 63,
      "hit": false,
      "t": 54275,
      "d": 400,
      "v": 73
    },
    {
      "midi": 57,
      "hit": false,
      "t": 54285,
      "d": 355,
      "v": 79
    },
    {
      "midi": 47,
      "hit": false,
      "t": 54580,
      "d": 365,
      "v": 73
    },
    {
      "midi": 57,
      "hit": false,
      "t": 54805,
      "d": 165,
      "v": 83
    },
    {
      "midi": 40,
      "hit": false,
      "t": 55070,
      "d": 340,
      "v": 70
    },
    {
      "midi": 59,
      "hit": false,
      "t": 55190,
      "d": 130,
      "v": 56
    },
    {
      "midi": 55,
      "hit": false,
      "t": 55190,
      "d": 145,
      "v": 54
    },
    {
      "midi": 64,
      "hit": false,
      "t": 55195,
      "d": 170,
      "v": 65
    },
    {
      "midi": 47,
      "hit": false,
      "t": 55410,
      "d": 80,
      "v": 59
    },
    {
      "midi": 55,
      "hit": false,
      "t": 55765,
      "d": 925,
      "v": 59
    },
    {
      "midi": 64,
      "hit": false,
      "t": 56080,
      "d": 475,
      "v": 53
    },
    {
      "midi": 62,
      "hit": false,
      "t": 56095,
      "d": 85,
      "v": 42
    },
    {
      "midi": 76,
      "hit": false,
      "t": 56360,
      "d": 385,
      "v": 68
    },
    {
      "midi": 71,
      "hit": false,
      "t": 56370,
      "d": 370,
      "v": 69
    },
    {
      "midi": 67,
      "hit": false,
      "t": 56370,
      "d": 395,
      "v": 66
    },
    {
      "midi": 59,
      "hit": false,
      "t": 56655,
      "d": 365,
      "v": 55
    },
    {
      "midi": 55,
      "hit": false,
      "t": 56975,
      "d": 245,
      "v": 61
    },
    {
      "midi": 45,
      "hit": false,
      "t": 57480,
      "d": 1135,
      "v": 57
    },
    {
      "midi": 74,
      "hit": false,
      "t": 57565,
      "d": 125,
      "v": 43
    },
    {
      "midi": 72,
      "hit": false,
      "t": 57570,
      "d": 120,
      "v": 44
    },
    {
      "midi": 67,
      "hit": false,
      "t": 57575,
      "d": 130,
      "v": 50
    },
    {
      "midi": 52,
      "hit": false,
      "t": 57885,
      "d": 345,
      "v": 57
    },
    {
      "midi": 62,
      "hit": false,
      "t": 58210,
      "d": 400,
      "v": 59
    },
    {
      "midi": 55,
      "hit": false,
      "t": 58215,
      "d": 360,
      "v": 49
    },
    {
      "midi": 60,
      "hit": false,
      "t": 58215,
      "d": 410,
      "v": 46
    },
    {
      "midi": 52,
      "hit": false,
      "t": 58505,
      "d": 195,
      "v": 48
    },
    {
      "midi": 50,
      "hit": false,
      "t": 58760,
      "d": 555,
      "v": 77
    },
    {
      "midi": 62,
      "hit": false,
      "t": 59090,
      "d": 285,
      "v": 73
    },
    {
      "midi": 60,
      "hit": false,
      "t": 59090,
      "d": 305,
      "v": 67
    },
    {
      "midi": 54,
      "hit": false,
      "t": 59100,
      "d": 270,
      "v": 68
    },
    {
      "midi": 38,
      "hit": false,
      "t": 59410,
      "d": 320,
      "v": 70
    },
    {
      "midi": 50,
      "hit": false,
      "t": 59670,
      "d": 180,
      "v": 62
    },
    {
      "midi": 59,
      "hit": false,
      "t": 59785,
      "d": 805,
      "v": 61
    },
    {
      "midi": 62,
      "hit": false,
      "t": 59850,
      "d": 1050,
      "v": 58
    },
    {
      "midi": 66,
      "hit": false,
      "t": 59915,
      "d": 1065,
      "v": 58
    },
    {
      "midi": 71,
      "hit": false,
      "t": 59955,
      "d": 1005,
      "v": 81
    },
    {
      "midi": 43,
      "hit": false,
      "t": 59975,
      "d": 1875,
      "v": 73
    },
    {
      "midi": 50,
      "hit": false,
      "t": 60300,
      "d": 1040,
      "v": 64
    },
    {
      "midi": 55,
      "hit": false,
      "t": 60620,
      "d": 945,
      "v": 68
    },
    {
      "midi": 59,
      "hit": false,
      "t": 60905,
      "d": 945,
      "v": 94
    },
    {
      "midi": 71,
      "hit": false,
      "t": 61220,
      "d": 605,
      "v": 79
    },
    {
      "midi": 50,
      "hit": false,
      "t": 61480,
      "d": 550,
      "v": 61
    },
    {
      "midi": 55,
      "hit": false,
      "t": 61785,
      "d": 400,
      "v": 63
    },
    {
      "midi": 71,
      "hit": false,
      "t": 61975,
      "d": 150,
      "v": 78
    },
    {
      "midi": 43,
      "hit": false,
      "t": 62050,
      "d": 150,
      "v": 25
    },
    {
      "midi": 57,
      "hit": false,
      "t": 62340,
      "d": 415,
      "v": 48
    },
    {
      "midi": 71,
      "hit": false,
      "t": 62340,
      "d": 625,
      "v": 65
    },
    {
      "midi": 42,
      "hit": false,
      "t": 62370,
      "d": 965,
      "v": 61
    },
    {
      "midi": 54,
      "hit": false,
      "t": 62730,
      "d": 650,
      "v": 57
    },
    {
      "midi": 57,
      "hit": false,
      "t": 62980,
      "d": 360,
      "v": 77
    },
    {
      "midi": 49,
      "hit": false,
      "t": 63275,
      "d": 210,
      "v": 34
    },
    {
      "midi": 66,
      "hit": false,
      "t": 63575,
      "d": 210,
      "v": 62
    },
    {
      "midi": 57,
      "hit": false,
      "t": 63575,
      "d": 245,
      "v": 62
    },
    {
      "midi": 71,
      "hit": false,
      "t": 63580,
      "d": 190,
      "v": 57
    },
    {
      "midi": 63,
      "hit": false,
      "t": 63580,
      "d": 240,
      "v": 58
    },
    {
      "midi": 47,
      "hit": false,
      "t": 63580,
      "d": 425,
      "v": 59
    },
    {
      "midi": 63,
      "hit": false,
      "t": 63970,
      "d": 205,
      "v": 69
    },
    {
      "midi": 57,
      "hit": false,
      "t": 63970,
      "d": 230,
      "v": 58
    },
    {
      "midi": 69,
      "hit": false,
      "t": 63970,
      "d": 255,
      "v": 84
    },
    {
      "midi": 47,
      "hit": false,
      "t": 64170,
      "d": 415,
      "v": 61
    },
    {
      "midi": 57,
      "hit": false,
      "t": 64350,
      "d": 140,
      "v": 60
    },
    {
      "midi": 63,
      "hit": false,
      "t": 64350,
      "d": 190,
      "v": 79
    },
    {
      "midi": 69,
      "hit": false,
      "t": 64350,
      "d": 215,
      "v": 66
    },
    {
      "midi": 64,
      "hit": false,
      "t": 64725,
      "d": 180,
      "v": 54
    },
    {
      "midi": 59,
      "hit": false,
      "t": 64725,
      "d": 235,
      "v": 59
    },
    {
      "midi": 67,
      "hit": false,
      "t": 64730,
      "d": 190,
      "v": 55
    },
    {
      "midi": 40,
      "hit": false,
      "t": 64785,
      "d": 285,
      "v": 66
    },
    {
      "midi": 52,
      "hit": false,
      "t": 65145,
      "d": 55,
      "v": 31
    },
    {
      "midi": 55,
      "hit": false,
      "t": 65165,
      "d": 75,
      "v": 52
    },
    {
      "midi": 59,
      "hit": false,
      "t": 65250,
      "d": 95,
      "v": 33
    },
    {
      "midi": 62,
      "hit": false,
      "t": 65300,
      "d": 95,
      "v": 52
    },
    {
      "midi": 55,
      "hit": false,
      "t": 65390,
      "d": 130,
      "v": 59
    },
    {
      "midi": 59,
      "hit": false,
      "t": 65465,
      "d": 55,
      "v": 49
    },
    {
      "midi": 64,
      "hit": false,
      "t": 65550,
      "d": 95,
      "v": 78
    },
    {
      "midi": 67,
      "hit": false,
      "t": 65610,
      "d": 55,
      "v": 63
    },
    {
      "midi": 71,
      "hit": false,
      "t": 65660,
      "d": 95,
      "v": 54
    },
    {
      "midi": 76,
      "hit": false,
      "t": 65720,
      "d": 80,
      "v": 46
    },
    {
      "midi": 67,
      "hit": false,
      "t": 65800,
      "d": 115,
      "v": 66
    },
    {
      "midi": 71,
      "hit": false,
      "t": 65850,
      "d": 105,
      "v": 61
    },
    {
      "midi": 76,
      "hit": false,
      "t": 65950,
      "d": 75,
      "v": 84
    },
    {
      "midi": 74,
      "hit": false,
      "t": 65955,
      "d": 30,
      "v": 66
    },
    {
      "midi": 79,
      "hit": false,
      "t": 65990,
      "d": 510,
      "v": 81
    },
    {
      "midi": 83,
      "hit": false,
      "t": 66050,
      "d": 420,
      "v": 61
    },
    {
      "midi": 88,
      "hit": false,
      "t": 66130,
      "d": 295,
      "v": 70
    },
    {
      "midi": 40,
      "hit": false,
      "t": 66570,
      "d": 60,
      "v": 49
    },
    {
      "midi": 42,
      "hit": false,
      "t": 67130,
      "d": 685,
      "v": 74
    },
    {
      "midi": 57,
      "hit": false,
      "t": 67470,
      "d": 215,
      "v": 83
    },
    {
      "midi": 64,
      "hit": false,
      "t": 67755,
      "d": 110,
      "v": 75
    },
    {
      "midi": 57,
      "hit": false,
      "t": 67760,
      "d": 85,
      "v": 40
    },
    {
      "midi": 61,
      "hit": false,
      "t": 67770,
      "d": 65,
      "v": 67
    },
    {
      "midi": 69,
      "hit": false,
      "t": 67770,
      "d": 90,
      "v": 47
    },
    {
      "midi": 49,
      "hit": false,
      "t": 68045,
      "d": 225,
      "v": 51
    },
    {
      "midi": 66,
      "hit": false,
      "t": 68345,
      "d": 650,
      "v": 59
    },
    {
      "midi": 63,
      "hit": false,
      "t": 68355,
      "d": 635,
      "v": 48
    },
    {
      "midi": 57,
      "hit": false,
      "t": 68360,
      "d": 295,
      "v": 49
    },
    {
      "midi": 47,
      "hit": false,
      "t": 68360,
      "d": 480,
      "v": 55
    },
    {
      "midi": 71,
      "hit": false,
      "t": 68360,
      "d": 625,
      "v": 48
    },
    {
      "midi": 57,
      "hit": false,
      "t": 68740,
      "d": 280,
      "v": 61
    },
    {
      "midi": 47,
      "hit": false,
      "t": 68985,
      "d": 435,
      "v": 79
    },
    {
      "midi": 64,
      "hit": false,
      "t": 69540,
      "d": 235,
      "v": 72
    },
    {
      "midi": 67,
      "hit": false,
      "t": 69540,
      "d": 235,
      "v": 67
    },
    {
      "midi": 59,
      "hit": false,
      "t": 69540,
      "d": 315,
      "v": 61
    },
    {
      "midi": 40,
      "hit": false,
      "t": 69630,
      "d": 330,
      "v": 74
    },
    {
      "midi": 47,
      "hit": false,
      "t": 69910,
      "d": 100,
      "v": 48
    },
    {
      "midi": 55,
      "hit": false,
      "t": 70240,
      "d": 675,
      "v": 54
    },
    {
      "midi": 59,
      "hit": false,
      "t": 70505,
      "d": 665,
      "v": 51
    },
    {
      "midi": 64,
      "hit": false,
      "t": 70660,
      "d": 520,
      "v": 63
    },
    {
      "midi": 67,
      "hit": false,
      "t": 70740,
      "d": 340,
      "v": 61
    },
    {
      "midi": 71,
      "hit": false,
      "t": 70805,
      "d": 280,
      "v": 77
    },
    {
      "midi": 76,
      "hit": false,
      "t": 70885,
      "d": 250,
      "v": 62
    },
    {
      "midi": 55,
      "hit": false,
      "t": 71125,
      "d": 605,
      "v": 47
    },
    {
      "midi": 59,
      "hit": false,
      "t": 71425,
      "d": 135,
      "v": 47
    },
    {
      "midi": 59,
      "hit": false,
      "t": 71655,
      "d": 185,
      "v": 61
    },
    {
      "midi": 78,
      "hit": false,
      "t": 71865,
      "d": 170,
      "v": 66
    },
    {
      "midi": 69,
      "hit": false,
      "t": 71865,
      "d": 220,
      "v": 63
    },
    {
      "midi": 47,
      "hit": false,
      "t": 71965,
      "d": 1935,
      "v": 64
    },
    {
      "midi": 54,
      "hit": false,
      "t": 72270,
      "d": 480,
      "v": 44
    },
    {
      "midi": 57,
      "hit": false,
      "t": 72580,
      "d": 470,
      "v": 79
    },
    {
      "midi": 63,
      "hit": false,
      "t": 72580,
      "d": 500,
      "v": 69
    },
    {
      "midi": 66,
      "hit": false,
      "t": 72580,
      "d": 505,
      "v": 69
    },
    {
      "midi": 54,
      "hit": false,
      "t": 72905,
      "d": 795,
      "v": 48
    },
    {
      "midi": 63,
      "hit": false,
      "t": 73180,
      "d": 350,
      "v": 86
    },
    {
      "midi": 57,
      "hit": false,
      "t": 73190,
      "d": 700,
      "v": 69
    },
    {
      "midi": 66,
      "hit": false,
      "t": 73190,
      "d": 705,
      "v": 92
    },
    {
      "midi": 63,
      "hit": false,
      "t": 73615,
      "d": 265,
      "v": 45
    },
    {
      "midi": 54,
      "hit": false,
      "t": 73840,
      "d": 330,
      "v": 65
    },
    {
      "midi": 57,
      "hit": false,
      "t": 74040,
      "d": 190,
      "v": 59
    },
    {
      "midi": 59,
      "hit": false,
      "t": 74330,
      "d": 245,
      "v": 60
    },
    {
      "midi": 64,
      "hit": false,
      "t": 74340,
      "d": 245,
      "v": 72
    },
    {
      "midi": 40,
      "hit": false,
      "t": 74355,
      "d": 305,
      "v": 35
    },
    {
      "midi": 52,
      "hit": false,
      "t": 74695,
      "d": 75,
      "v": 46
    },
    {
      "midi": 55,
      "hit": false,
      "t": 74730,
      "d": 80,
      "v": 45
    },
    {
      "midi": 59,
      "hit": false,
      "t": 74810,
      "d": 85,
      "v": 31
    },
    {
      "midi": 64,
      "hit": false,
      "t": 74885,
      "d": 55,
      "v": 33
    },
    {
      "midi": 55,
      "hit": false,
      "t": 74960,
      "d": 150,
      "v": 64
    },
    {
      "midi": 59,
      "hit": false,
      "t": 75025,
      "d": 475,
      "v": 57
    },
    {
      "midi": 64,
      "hit": false,
      "t": 75145,
      "d": 325,
      "v": 78
    },
    {
      "midi": 67,
      "hit": false,
      "t": 75180,
      "d": 925,
      "v": 66
    },
    {
      "midi": 71,
      "hit": false,
      "t": 75260,
      "d": 755,
      "v": 74
    },
    {
      "midi": 76,
      "hit": false,
      "t": 75380,
      "d": 715,
      "v": 73
    },
    {
      "midi": 55,
      "hit": false,
      "t": 75530,
      "d": 355,
      "v": 55
    },
    {
      "midi": 59,
      "hit": false,
      "t": 75790,
      "d": 405,
      "v": 52
    },
    {
      "midi": 55,
      "hit": false,
      "t": 76195,
      "d": 305,
      "v": 46
    },
    {
      "midi": 59,
      "hit": false,
      "t": 76420,
      "d": 85,
      "v": 77
    },
    {
      "midi": 74,
      "hit": false,
      "t": 76670,
      "d": 175,
      "v": 65
    },
    {
      "midi": 72,
      "hit": false,
      "t": 76670,
      "d": 180,
      "v": 63
    },
    {
      "midi": 67,
      "hit": false,
      "t": 76675,
      "d": 195,
      "v": 65
    },
    {
      "midi": 45,
      "hit": false,
      "t": 76775,
      "d": 1025,
      "v": 63
    },
    {
      "midi": 52,
      "hit": false,
      "t": 77075,
      "d": 285,
      "v": 45
    },
    {
      "midi": 62,
      "hit": false,
      "t": 77380,
      "d": 380,
      "v": 69
    },
    {
      "midi": 55,
      "hit": false,
      "t": 77380,
      "d": 405,
      "v": 61
    },
    {
      "midi": 60,
      "hit": false,
      "t": 77380,
      "d": 450,
      "v": 60
    },
    {
      "midi": 52,
      "hit": false,
      "t": 77685,
      "d": 230,
      "v": 55
    },
    {
      "midi": 50,
      "hit": false,
      "t": 77975,
      "d": 590,
      "v": 67
    },
    {
      "midi": 54,
      "hit": false,
      "t": 78300,
      "d": 330,
      "v": 56
    },
    {
      "midi": 62,
      "hit": false,
      "t": 78300,
      "d": 340,
      "v": 74
    },
    {
      "midi": 60,
      "hit": false,
      "t": 78300,
      "d": 360,
      "v": 72
    },
    {
      "midi": 38,
      "hit": false,
      "t": 78590,
      "d": 330,
      "v": 62
    },
    {
      "midi": 50,
      "hit": false,
      "t": 78860,
      "d": 175,
      "v": 49
    },
    {
      "midi": 59,
      "hit": false,
      "t": 78970,
      "d": 820,
      "v": 58
    },
    {
      "midi": 62,
      "hit": false,
      "t": 79020,
      "d": 1115,
      "v": 40
    },
    {
      "midi": 66,
      "hit": false,
      "t": 79105,
      "d": 1080,
      "v": 50
    },
    {
      "midi": 43,
      "hit": false,
      "t": 79145,
      "d": 1625,
      "v": 57
    },
    {
      "midi": 71,
      "hit": false,
      "t": 79165,
      "d": 985,
      "v": 59
    },
    {
      "midi": 50,
      "hit": false,
      "t": 79485,
      "d": 1450,
      "v": 32
    },
    {
      "midi": 55,
      "hit": false,
      "t": 79790,
      "d": 780,
      "v": 43
    },
    {
      "midi": 59,
      "hit": false,
      "t": 80080,
      "d": 195,
      "v": 65
    },
    {
      "midi": 71,
      "hit": false,
      "t": 80375,
      "d": 535,
      "v": 54
    },
    {
      "midi": 62,
      "hit": false,
      "t": 80375,
      "d": 575,
      "v": 83
    },
    {
      "midi": 66,
      "hit": false,
      "t": 80375,
      "d": 580,
      "v": 69
    },
    {
      "midi": 59,
      "hit": false,
      "t": 80380,
      "d": 530,
      "v": 51
    },
    {
      "midi": 55,
      "hit": false,
      "t": 80665,
      "d": 595,
      "v": 47
    },
    {
      "midi": 43,
      "hit": false,
      "t": 80975,
      "d": 320,
      "v": 50
    },
    {
      "midi": 62,
      "hit": false,
      "t": 81165,
      "d": 120,
      "v": 49
    },
    {
      "midi": 66,
      "hit": false,
      "t": 81165,
      "d": 135,
      "v": 46
    },
    {
      "midi": 71,
      "hit": false,
      "t": 81175,
      "d": 190,
      "v": 58
    },
    {
      "midi": 59,
      "hit": false,
      "t": 81180,
      "d": 130,
      "v": 44
    },
    {
      "midi": 42,
      "hit": false,
      "t": 81510,
      "d": 1135,
      "v": 47
    },
    {
      "midi": 66,
      "hit": false,
      "t": 81595,
      "d": 660,
      "v": 52
    },
    {
      "midi": 63,
      "hit": false,
      "t": 81600,
      "d": 635,
      "v": 50
    },
    {
      "midi": 57,
      "hit": false,
      "t": 81605,
      "d": 615,
      "v": 44
    },
    {
      "midi": 71,
      "hit": false,
      "t": 81610,
      "d": 675,
      "v": 45
    },
    {
      "midi": 54,
      "hit": false,
      "t": 82220,
      "d": 455,
      "v": 72
    },
    {
      "midi": 66,
      "hit": false,
      "t": 82450,
      "d": 225,
      "v": 65
    },
    {
      "midi": 63,
      "hit": false,
      "t": 82450,
      "d": 230,
      "v": 61
    },
    {
      "midi": 71,
      "hit": false,
      "t": 82460,
      "d": 220,
      "v": 44
    },
    {
      "midi": 57,
      "hit": false,
      "t": 82460,
      "d": 225,
      "v": 66
    },
    {
      "midi": 47,
      "hit": false,
      "t": 82780,
      "d": 480,
      "v": 61
    },
    {
      "midi": 66,
      "hit": false,
      "t": 82810,
      "d": 140,
      "v": 64
    },
    {
      "midi": 71,
      "hit": false,
      "t": 82810,
      "d": 180,
      "v": 49
    },
    {
      "midi": 63,
      "hit": false,
      "t": 82810,
      "d": 255,
      "v": 57
    },
    {
      "midi": 57,
      "hit": false,
      "t": 82810,
      "d": 265,
      "v": 50
    },
    {
      "midi": 63,
      "hit": false,
      "t": 83150,
      "d": 270,
      "v": 63
    },
    {
      "midi": 57,
      "hit": false,
      "t": 83155,
      "d": 275,
      "v": 56
    },
    {
      "midi": 69,
      "hit": false,
      "t": 83160,
      "d": 260,
      "v": 97
    },
    {
      "midi": 47,
      "hit": false,
      "t": 83390,
      "d": 385,
      "v": 70
    },
    {
      "midi": 57,
      "hit": false,
      "t": 83555,
      "d": 135,
      "v": 53
    },
    {
      "midi": 63,
      "hit": false,
      "t": 83560,
      "d": 165,
      "v": 73
    },
    {
      "midi": 69,
      "hit": false,
      "t": 83560,
      "d": 245,
      "v": 78
    },
    {
      "midi": 59,
      "hit": false,
      "t": 83985,
      "d": 420,
      "v": 54
    },
    {
      "midi": 64,
      "hit": false,
      "t": 83985,
      "d": 535,
      "v": 63
    },
    {
      "midi": 67,
      "hit": false,
      "t": 83990,
      "d": 575,
      "v": 64
    },
    {
      "midi": 40,
      "hit": false,
      "t": 83995,
      "d": 785,
      "v": 64
    },
    {
      "midi": 52,
      "hit": false,
      "t": 84655,
      "d": 145,
      "v": 51
    },
    {
      "midi": 40,
      "hit": false,
      "t": 85190,
      "d": 130,
      "v": 53
    },
    {
      "midi": 52,
      "hit": false,
      "t": 85190,
      "d": 130,
      "v": 53
    },
    {
      "midi": 88,
      "hit": false,
      "t": 85200,
      "d": 85,
      "v": 63
    },
    {
      "midi": 76,
      "hit": false,
      "t": 85210,
      "d": 75,
      "v": 54
    },
    {
      "midi": 75,
      "hit": false,
      "t": 85785,
      "d": 115,
      "v": 53
    },
    {
      "midi": 87,
      "hit": false,
      "t": 85790,
      "d": 85,
      "v": 67
    },
    {
      "midi": 39,
      "hit": false,
      "t": 85790,
      "d": 305,
      "v": 40
    },
    {
      "midi": 51,
      "hit": false,
      "t": 85790,
      "d": 340,
      "v": 24
    },
    {
      "midi": 38,
      "hit": false,
      "t": 86260,
      "d": 195,
      "v": 44
    },
    {
      "midi": 74,
      "hit": false,
      "t": 86270,
      "d": 400,
      "v": 40
    },
    {
      "midi": 50,
      "hit": false,
      "t": 86325,
      "d": 195,
      "v": 37
    },
    {
      "midi": 86,
      "hit": false,
      "t": 86405,
      "d": 200,
      "v": 57
    },
    {
      "midi": 54,
      "hit": false,
      "t": 86970,
      "d": 975,
      "v": 40
    },
    {
      "midi": 60,
      "hit": false,
      "t": 87320,
      "d": 80,
      "v": 29
    },
    {
      "midi": 62,
      "hit": false,
      "t": 87470,
      "d": 540,
      "v": 57
    },
    {
      "midi": 66,
      "hit": false,
      "t": 87520,
      "d": 675,
      "v": 57
    },
    {
      "midi": 69,
      "hit": false,
      "t": 87560,
      "d": 650,
      "v": 55
    },
    {
      "midi": 74,
      "hit": false,
      "t": 87610,
      "d": 590,
      "v": 77
    },
    {
      "midi": 60,
      "hit": false,
      "t": 87855,
      "d": 215,
      "v": 48
    },
    {
      "midi": 54,
      "hit": false,
      "t": 88200,
      "d": 260,
      "v": 57
    },
    {
      "midi": 57,
      "hit": false,
      "t": 88420,
      "d": 85,
      "v": 44
    },
    {
      "midi": 59,
      "hit": false,
      "t": 88590,
      "d": 445,
      "v": 53
    },
    {
      "midi": 62,
      "hit": false,
      "t": 88640,
      "d": 400,
      "v": 40
    },
    {
      "midi": 66,
      "hit": false,
      "t": 88735,
      "d": 190,
      "v": 54
    },
    {
      "midi": 71,
      "hit": false,
      "t": 88760,
      "d": 145,
      "v": 86
    },
    {
      "midi": 43,
      "hit": false,
      "t": 88780,
      "d": 335,
      "v": 57
    },
    {
      "midi": 50,
      "hit": false,
      "t": 89060,
      "d": 115,
      "v": 32
    },
    {
      "midi": 55,
      "hit": false,
      "t": 89165,
      "d": 85,
      "v": 41
    },
    {
      "midi": 59,
      "hit": false,
      "t": 89210,
      "d": 80,
      "v": 42
    },
    {
      "midi": 62,
      "hit": false,
      "t": 89260,
      "d": 120,
      "v": 45
    },
    {
      "midi": 64,
      "hit": false,
      "t": 89325,
      "d": 65,
      "v": 45
    },
    {
      "midi": 59,
      "hit": false,
      "t": 89440,
      "d": 145,
      "v": 59
    },
    {
      "midi": 62,
      "hit": false,
      "t": 89520,
      "d": 410,
      "v": 64
    },
    {
      "midi": 67,
      "hit": false,
      "t": 89630,
      "d": 255,
      "v": 83
    },
    {
      "midi": 71,
      "hit": false,
      "t": 89630,
      "d": 430,
      "v": 67
    },
    {
      "midi": 74,
      "hit": false,
      "t": 89735,
      "d": 300,
      "v": 90
    },
    {
      "midi": 76,
      "hit": false,
      "t": 89795,
      "d": 155,
      "v": 58
    },
    {
      "midi": 78,
      "hit": false,
      "t": 89795,
      "d": 160,
      "v": 58
    },
    {
      "midi": 81,
      "hit": false,
      "t": 89865,
      "d": 105,
      "v": 81
    },
    {
      "midi": 59,
      "hit": false,
      "t": 89950,
      "d": 755,
      "v": 61
    },
    {
      "midi": 73,
      "hit": false,
      "t": 90285,
      "d": 275,
      "v": 59
    },
    {
      "midi": 70,
      "hit": false,
      "t": 90295,
      "d": 255,
      "v": 78
    },
    {
      "midi": 62,
      "hit": false,
      "t": 90550,
      "d": 150,
      "v": 86
    },
    {
      "midi": 74,
      "hit": false,
      "t": 90710,
      "d": 180,
      "v": 62
    },
    {
      "midi": 71,
      "hit": false,
      "t": 90715,
      "d": 180,
      "v": 83
    },
    {
      "midi": 75,
      "hit": false,
      "t": 91065,
      "d": 275,
      "v": 61
    },
    {
      "midi": 69,
      "hit": false,
      "t": 91070,
      "d": 290,
      "v": 64
    },
    {
      "midi": 47,
      "hit": false,
      "t": 91140,
      "d": 1540,
      "v": 43
    },
    {
      "midi": 54,
      "hit": false,
      "t": 91450,
      "d": 510,
      "v": 47
    },
    {
      "midi": 63,
      "hit": false,
      "t": 91750,
      "d": 470,
      "v": 47
    },
    {
      "midi": 71,
      "hit": false,
      "t": 91765,
      "d": 455,
      "v": 49
    },
    {
      "midi": 57,
      "hit": false,
      "t": 91765,
      "d": 465,
      "v": 53
    },
    {
      "midi": 66,
      "hit": false,
      "t": 91765,
      "d": 465,
      "v": 44
    },
    {
      "midi": 66,
      "hit": false,
      "t": 92355,
      "d": 475,
      "v": 83
    },
    {
      "midi": 57,
      "hit": false,
      "t": 92365,
      "d": 360,
      "v": 70
    },
    {
      "midi": 63,
      "hit": false,
      "t": 92365,
      "d": 445,
      "v": 75
    },
    {
      "midi": 71,
      "hit": false,
      "t": 92370,
      "d": 540,
      "v": 63
    },
    {
      "midi": 54,
      "hit": false,
      "t": 92370,
      "d": 600,
      "v": 46
    },
    {
      "midi": 47,
      "hit": false,
      "t": 92955,
      "d": 405,
      "v": 66
    },
    {
      "midi": 54,
      "hit": false,
      "t": 93190,
      "d": 160,
      "v": 60
    },
    {
      "midi": 67,
      "hit": false,
      "t": 93400,
      "d": 790,
      "v": 46
    },
    {
      "midi": 71,
      "hit": false,
      "t": 93445,
      "d": 1115,
      "v": 46
    },
    {
      "midi": 76,
      "hit": false,
      "t": 93510,
      "d": 1040,
      "v": 74
    },
    {
      "midi": 40,
      "hit": false,
      "t": 93565,
      "d": 295,
      "v": 65
    },
    {
      "midi": 47,
      "hit": false,
      "t": 93825,
      "d": 75,
      "v": 74
    },
    {
      "midi": 55,
      "hit": false,
      "t": 94175,
      "d": 465,
      "v": 55
    },
    {
      "midi": 59,
      "hit": false,
      "t": 94445,
      "d": 835,
      "v": 41
    },
    {
      "midi": 64,
      "hit": false,
      "t": 94580,
      "d": 530,
      "v": 86
    },
    {
      "midi": 67,
      "hit": false,
      "t": 94670,
      "d": 325,
      "v": 63
    },
    {
      "midi": 71,
      "hit": false,
      "t": 94730,
      "d": 405,
      "v": 86
    },
    {
      "midi": 76,
      "hit": false,
      "t": 94800,
      "d": 1015,
      "v": 88
    },
    {
      "midi": 55,
      "hit": false,
      "t": 95410,
      "d": 190,
      "v": 43
    },
    {
      "midi": 59,
      "hit": false,
      "t": 95430,
      "d": 145,
      "v": 73
    },
    {
      "midi": 64,
      "hit": false,
      "t": 95850,
      "d": 360,
      "v": 49
    },
    {
      "midi": 67,
      "hit": false,
      "t": 95910,
      "d": 590,
      "v": 49
    },
    {
      "midi": 72,
      "hit": false,
      "t": 95985,
      "d": 640,
      "v": 50
    },
    {
      "midi": 48,
      "hit": false,
      "t": 96035,
      "d": 265,
      "v": 65
    },
    {
      "midi": 76,
      "hit": false,
      "t": 96045,
      "d": 665,
      "v": 72
    },
    {
      "midi": 55,
      "hit": false,
      "t": 96280,
      "d": 255,
      "v": 31
    },
    {
      "midi": 60,
      "hit": false,
      "t": 96500,
      "d": 585,
      "v": 102
    },
    {
      "midi": 64,
      "hit": false,
      "t": 96645,
      "d": 350,
      "v": 90
    },
    {
      "midi": 67,
      "hit": false,
      "t": 96815,
      "d": 190,
      "v": 105
    },
    {
      "midi": 72,
      "hit": false,
      "t": 96945,
      "d": 135,
      "v": 94
    },
    {
      "midi": 76,
      "hit": false,
      "t": 97095,
      "d": 105,
      "v": 34
    },
    {
      "midi": 49,
      "hit": false,
      "t": 97230,
      "d": 625,
      "v": 54
    },
    {
      "midi": 76,
      "hit": false,
      "t": 97250,
      "d": 690,
      "v": 45
    },
    {
      "midi": 64,
      "hit": false,
      "t": 97260,
      "d": 400,
      "v": 61
    },
    {
      "midi": 67,
      "hit": false,
      "t": 97260,
      "d": 450,
      "v": 70
    },
    {
      "midi": 72,
      "hit": false,
      "t": 97260,
      "d": 510,
      "v": 59
    },
    {
      "midi": 61,
      "hit": false,
      "t": 97570,
      "d": 110,
      "v": 54
    },
    {
      "midi": 61,
      "hit": false,
      "t": 97780,
      "d": 325,
      "v": 75
    },
    {
      "midi": 49,
      "hit": false,
      "t": 98045,
      "d": 165,
      "v": 47
    },
    {
      "midi": 64,
      "hit": false,
      "t": 98050,
      "d": 125,
      "v": 72
    },
    {
      "midi": 76,
      "hit": false,
      "t": 98050,
      "d": 185,
      "v": 58
    },
    {
      "midi": 43,
      "hit": false,
      "t": 98350,
      "d": 1835,
      "v": 62
    },
    {
      "midi": 76,
      "hit": false,
      "t": 98370,
      "d": 205,
      "v": 57
    },
    {
      "midi": 64,
      "hit": false,
      "t": 98370,
      "d": 295,
      "v": 57
    },
    {
      "midi": 50,
      "hit": false,
      "t": 98680,
      "d": 910,
      "v": 39
    },
    {
      "midi": 67,
      "hit": false,
      "t": 98975,
      "d": 215,
      "v": 65
    },
    {
      "midi": 62,
      "hit": false,
      "t": 98980,
      "d": 160,
      "v": 49
    },
    {
      "midi": 59,
      "hit": false,
      "t": 98990,
      "d": 150,
      "v": 56
    },
    {
      "midi": 55,
      "hit": false,
      "t": 99265,
      "d": 655,
      "v": 54
    },
    {
      "midi": 62,
      "hit": false,
      "t": 99585,
      "d": 665,
      "v": 57
    },
    {
      "midi": 67,
      "hit": false,
      "t": 99590,
      "d": 370,
      "v": 62
    },
    {
      "midi": 71,
      "hit": false,
      "t": 99590,
      "d": 970,
      "v": 62
    },
    {
      "midi": 50,
      "hit": false,
      "t": 99870,
      "d": 370,
      "v": 29
    },
    {
      "midi": 55,
      "hit": false,
      "t": 100155,
      "d": 615,
      "v": 56
    },
    {
      "midi": 43,
      "hit": false,
      "t": 100405,
      "d": 155,
      "v": 37
    },
    {
      "midi": 61,
      "hit": false,
      "t": 100615,
      "d": 1150,
      "v": 49
    },
    {
      "midi": 64,
      "hit": false,
      "t": 100685,
      "d": 795,
      "v": 40
    },
    {
      "midi": 67,
      "hit": false,
      "t": 100740,
      "d": 775,
      "v": 44
    },
    {
      "midi": 45,
      "hit": false,
      "t": 100745,
      "d": 1050,
      "v": 53
    },
    {
      "midi": 71,
      "hit": false,
      "t": 100780,
      "d": 825,
      "v": 50
    },
    {
      "midi": 52,
      "hit": false,
      "t": 101115,
      "d": 255,
      "v": 26
    },
    {
      "midi": 57,
      "hit": false,
      "t": 101400,
      "d": 415,
      "v": 43
    },
    {
      "midi": 52,
      "hit": false,
      "t": 101670,
      "d": 290,
      "v": 38
    },
    {
      "midi": 69,
      "hit": false,
      "t": 101945,
      "d": 485,
      "v": 56
    },
    {
      "midi": 50,
      "hit": false,
      "t": 101950,
      "d": 580,
      "v": 46
    },
    {
      "midi": 66,
      "hit": false,
      "t": 101960,
      "d": 385,
      "v": 51
    },
    {
      "midi": 60,
      "hit": false,
      "t": 101965,
      "d": 505,
      "v": 48
    },
    {
      "midi": 38,
      "hit": false,
      "t": 102540,
      "d": 330,
      "v": 54
    },
    {
      "midi": 50,
      "hit": false,
      "t": 102795,
      "d": 170,
      "v": 59
    },
    {
      "midi": 59,
      "hit": false,
      "t": 102935,
      "d": 365,
      "v": 59
    },
    {
      "midi": 62,
      "hit": false,
      "t": 102995,
      "d": 445,
      "v": 69
    },
    {
      "midi": 64,
      "hit": false,
      "t": 103105,
      "d": 75,
      "v": 39
    },
    {
      "midi": 43,
      "hit": false,
      "t": 103110,
      "d": 370,
      "v": 72
    },
    {
      "midi": 67,
      "hit": false,
      "t": 103125,
      "d": 445,
      "v": 42
    },
    {
      "midi": 50,
      "hit": false,
      "t": 103455,
      "d": 65,
      "v": 55
    },
    {
      "midi": 59,
      "hit": false,
      "t": 103780,
      "d": 690,
      "v": 61
    },
    {
      "midi": 62,
      "hit": false,
      "t": 104075,
      "d": 865,
      "v": 54
    },
    {
      "midi": 74,
      "hit": false,
      "t": 104360,
      "d": 360,
      "v": 62
    },
    {
      "midi": 71,
      "hit": false,
      "t": 104360,
      "d": 390,
      "v": 61
    },
    {
      "midi": 79,
      "hit": false,
      "t": 104360,
      "d": 430,
      "v": 60
    },
    {
      "midi": 67,
      "hit": false,
      "t": 104370,
      "d": 390,
      "v": 43
    },
    {
      "midi": 59,
      "hit": false,
      "t": 104990,
      "d": 260,
      "v": 44
    },
    {
      "midi": 62,
      "hit": false,
      "t": 105190,
      "d": 70,
      "v": 24
    },
    {
      "midi": 72,
      "hit": false,
      "t": 105560,
      "d": 265,
      "v": 68
    },
    {
      "midi": 75,
      "hit": false,
      "t": 105560,
      "d": 295,
      "v": 90
    },
    {
      "midi": 48,
      "hit": false,
      "t": 105570,
      "d": 1270,
      "v": 44
    },
    {
      "midi": 77,
      "hit": false,
      "t": 105920,
      "d": 250,
      "v": 79
    },
    {
      "midi": 72,
      "hit": false,
      "t": 105920,
      "d": 305,
      "v": 53
    },
    {
      "midi": 75,
      "hit": false,
      "t": 105930,
      "d": 145,
      "v": 48
    },
    {
      "midi": 60,
      "hit": false,
      "t": 106165,
      "d": 415,
      "v": 39
    },
    {
      "midi": 79,
      "hit": false,
      "t": 106350,
      "d": 205,
      "v": 84
    },
    {
      "midi": 72,
      "hit": false,
      "t": 106360,
      "d": 195,
      "v": 53
    },
    {
      "midi": 75,
      "hit": false,
      "t": 106365,
      "d": 20,
      "v": 43
    },
    {
      "midi": 60,
      "hit": false,
      "t": 106735,
      "d": 550,
      "v": 62
    },
    {
      "midi": 72,
      "hit": false,
      "t": 106740,
      "d": 220,
      "v": 66
    },
    {
      "midi": 79,
      "hit": false,
      "t": 106740,
      "d": 220,
      "v": 70
    },
    {
      "midi": 77,
      "hit": false,
      "t": 107080,
      "d": 265,
      "v": 63
    },
    {
      "midi": 72,
      "hit": false,
      "t": 107095,
      "d": 215,
      "v": 49
    },
    {
      "midi": 48,
      "hit": false,
      "t": 107305,
      "d": 205,
      "v": 60
    },
    {
      "midi": 75,
      "hit": false,
      "t": 107495,
      "d": 160,
      "v": 66
    },
    {
      "midi": 72,
      "hit": false,
      "t": 107500,
      "d": 145,
      "v": 70
    },
    {
      "midi": 55,
      "hit": false,
      "t": 107610,
      "d": 100,
      "v": 20
    },
    {
      "midi": 74,
      "hit": false,
      "t": 107910,
      "d": 245,
      "v": 59
    },
    {
      "midi": 71,
      "hit": false,
      "t": 107925,
      "d": 260,
      "v": 59
    },
    {
      "midi": 43,
      "hit": false,
      "t": 107950,
      "d": 1440,
      "v": 47
    },
    {
      "midi": 50,
      "hit": false,
      "t": 108260,
      "d": 1340,
      "v": 38
    },
    {
      "midi": 62,
      "hit": false,
      "t": 108575,
      "d": 95,
      "v": 68
    },
    {
      "midi": 59,
      "hit": false,
      "t": 108580,
      "d": 90,
      "v": 61
    },
    {
      "midi": 62,
      "hit": false,
      "t": 108880,
      "d": 930,
      "v": 84
    },
    {
      "midi": 67,
      "hit": false,
      "t": 109180,
      "d": 335,
      "v": 105
    },
    {
      "midi": 55,
      "hit": false,
      "t": 109210,
      "d": 565,
      "v": 38
    },
    {
      "midi": 69,
      "hit": false,
      "t": 109460,
      "d": 295,
      "v": 88
    },
    {
      "midi": 43,
      "hit": false,
      "t": 109780,
      "d": 370,
      "v": 42
    },
    {
      "midi": 71,
      "hit": false,
      "t": 109785,
      "d": 290,
      "v": 65
    },
    {
      "midi": 62,
      "hit": false,
      "t": 110050,
      "d": 100,
      "v": 78
    },
    {
      "midi": 55,
      "hit": false,
      "t": 110075,
      "d": 275,
      "v": 33
    },
    {
      "midi": 61,
      "hit": false,
      "t": 110305,
      "d": 730,
      "v": 57
    },
    {
      "midi": 64,
      "hit": false,
      "t": 110360,
      "d": 520,
      "v": 34
    },
    {
      "midi": 45,
      "hit": false,
      "t": 110370,
      "d": 715,
      "v": 44
    },
    {
      "midi": 67,
      "hit": false,
      "t": 110440,
      "d": 475,
      "v": 47
    },
    {
      "midi": 71,
      "hit": false,
      "t": 110505,
      "d": 410,
      "v": 42
    },
    {
      "midi": 52,
      "hit": false,
      "t": 111045,
      "d": 60,
      "v": 27
    },
    {
      "midi": 38,
      "hit": false,
      "t": 111530,
      "d": 705,
      "v": 49
    },
    {
      "midi": 66,
      "hit": false,
      "t": 111590,
      "d": 410,
      "v": 48
    },
    {
      "midi": 69,
      "hit": false,
      "t": 111590,
      "d": 440,
      "v": 43
    },
    {
      "midi": 60,
      "hit": false,
      "t": 111590,
      "d": 505,
      "v": 40
    },
    {
      "midi": 50,
      "hit": false,
      "t": 112170,
      "d": 150,
      "v": 36
    },
    {
      "midi": 67,
      "hit": false,
      "t": 112785,
      "d": 85,
      "v": 52
    },
    {
      "midi": 62,
      "hit": false,
      "t": 112790,
      "d": 70,
      "v": 45
    },
    {
      "midi": 43,
      "hit": false,
      "t": 112800,
      "d": 70,
      "v": 59
    },
    {
      "midi": 59,
      "hit": false,
      "t": 112800,
      "d": 70,
      "v": 45
    },
    {
      "midi": 64,
      "hit": false,
      "t": 112805,
      "d": 30,
      "v": 40
    },
    {
      "midi": 74,
      "hit": false,
      "t": 114020,
      "d": 140,
      "v": 68
    },
    {
      "midi": 38,
      "hit": false,
      "t": 114030,
      "d": 120,
      "v": 63
    },
    {
      "midi": 38,
      "hit": false,
      "t": 114975,
      "d": 140,
      "v": 21
    },
    {
      "midi": 40,
      "hit": false,
      "t": 115020,
      "d": 130,
      "v": 42
    },
    {
      "midi": 42,
      "hit": false,
      "t": 115090,
      "d": 85,
      "v": 61
    },
    {
      "midi": 43,
      "hit": false,
      "t": 115170,
      "d": 80,
      "v": 94
    },
    {
      "midi": 79,
      "hit": false,
      "t": 115185,
      "d": 70,
      "v": 66
    },
    {
      "midi": 67,
      "hit": false,
      "t": 115200,
      "d": 65,
      "v": 52
    }
  ]
}