{
  "jsonPath": "World/Australian Singer-Songwriter/Mick Harvey/partenza.json",
  "path": "World\\Australian Singer-Songwriter\\Mick Harvey\\Partenza.mid",
  "name": "Partenza",
  "difficulty": "Advanced",
  "bpm": 120,
  "notes": [
    {
      "midi": 58,
      "hit": false,
      "t": 0,
      "d": 1648.1128124999998,
      "v": 100
    },
    {
      "midi": 63,
      "hit": false,
      "t": 0,
      "d": 1648.1128124999998,
      "v": 100
    },
    {
      "midi": 66,
      "hit": false,
      "t": 0,
      "d": 1648.1128124999998,
      "v": 100
    },
    {
      "midi": 39,
      "hit": false,
      "t": 0,
      "d": 1648.1128124999998,
      "v": 100
    },
    {
      "midi": 51,
      "hit": false,
      "t": 0,
      "d": 1648.1128124999998,
      "v": 100
    },
    {
      "midi": 56,
      "hit": false,
      "t": 1643.8319999999999,
      "d": 1648.1128125,
      "v": 100
    },
    {
      "midi": 68,
      "hit": false,
      "t": 1643.8319999999999,
      "d": 1648.1128125,
      "v": 100
    },
    {
      "midi": 41,
      "hit": false,
      "t": 1643.8319999999999,
      "d": 1648.1128125,
      "v": 100
    },
    {
      "midi": 53,
      "hit": false,
      "t": 1643.8319999999999,
      "d": 1648.1128125,
      "v": 100
    },
    {
      "midi": 61,
      "hit": false,
      "t": 3287.6639999999998,
      "d": 4.280812500000138,
      "v": 100
    },
    {
      "midi": 58,
      "hit": false,
      "t": 3287.6639999999998,
      "d": 1648.1128125000005,
      "v": 100
    },
    {
      "midi": 66,
      "hit": false,
      "t": 3287.6639999999998,
      "d": 1648.1128125000005,
      "v": 100
    },
    {
      "midi": 70,
      "hit": false,
      "t": 3287.6639999999998,
      "d": 1648.1128125000005,
      "v": 100
    },
    {
      "midi": 42,
      "hit": false,
      "t": 3287.6639999999998,
      "d": 1648.1128125000005,
      "v": 100
    },
    {
      "midi": 54,
      "hit": false,
      "t": 3287.6639999999998,
      "d": 1648.1128125000005,
      "v": 100
    },
    {
      "midi": 60,
      "hit": false,
      "t": 4931.496,
      "d": 1648.1128125000005,
      "v": 100
    },
    {
      "midi": 63,
      "hit": false,
      "t": 4931.496,
      "d": 1648.1128125000005,
      "v": 100
    },
    {
      "midi": 68,
      "hit": false,
      "t": 4931.496,
      "d": 1648.1128125000005,
      "v": 100
    },
    {
      "midi": 72,
      "hit": false,
      "t": 4931.496,
      "d": 1648.1128125000005,
      "v": 100
    },
    {
      "midi": 44,
      "hit": false,
      "t": 4931.496,
      "d": 1648.1128125000005,
      "v": 100
    },
    {
      "midi": 56,
      "hit": false,
      "t": 4931.496,
      "d": 1648.1128125000005,
      "v": 100
    },
    {
      "midi": 71,
      "hit": false,
      "t": 6575.328,
      "d": 136.98599999999988,
      "v": 100
    },
    {
      "midi": 35,
      "hit": false,
      "t": 6575.328,
      "d": 1648.1128124999987,
      "v": 100
    },
    {
      "midi": 47,
      "hit": false,
      "t": 6575.328,
      "d": 1648.1128124999987,
      "v": 100
    },
    {
      "midi": 63,
      "hit": false,
      "t": 6780.807000000001,
      "d": 136.98599999999988,
      "v": 100
    },
    {
      "midi": 66,
      "hit": false,
      "t": 6986.286000000001,
      "d": 136.98599999999988,
      "v": 100
    },
    {
      "midi": 71,
      "hit": false,
      "t": 7191.765000000001,
      "d": 136.98599999999988,
      "v": 100
    },
    {
      "midi": 75,
      "hit": false,
      "t": 7397.2440000000015,
      "d": 136.98599999999988,
      "v": 100
    },
    {
      "midi": 71,
      "hit": false,
      "t": 7602.723000000002,
      "d": 136.98599999999988,
      "v": 100
    },
    {
      "midi": 66,
      "hit": false,
      "t": 7808.202000000002,
      "d": 136.98599999999988,
      "v": 100
    },
    {
      "midi": 63,
      "hit": false,
      "t": 8013.681000000002,
      "d": 136.98599999999988,
      "v": 100
    },
    {
      "midi": 38,
      "hit": false,
      "t": 8219.16,
      "d": 1648.1128124999977,
      "v": 100
    },
    {
      "midi": 50,
      "hit": false,
      "t": 8219.16,
      "d": 1648.1128124999977,
      "v": 100
    },
    {
      "midi": 70,
      "hit": false,
      "t": 8219.160000000002,
      "d": 136.9860000000008,
      "v": 100
    },
    {
      "midi": 62,
      "hit": false,
      "t": 8424.639000000003,
      "d": 136.9860000000008,
      "v": 100
    },
    {
      "midi": 65,
      "hit": false,
      "t": 8630.118000000004,
      "d": 136.9860000000008,
      "v": 100
    },
    {
      "midi": 70,
      "hit": false,
      "t": 8835.597000000005,
      "d": 136.9860000000008,
      "v": 100
    },
    {
      "midi": 74,
      "hit": false,
      "t": 9041.076000000006,
      "d": 136.9860000000008,
      "v": 100
    },
    {
      "midi": 65,
      "hit": false,
      "t": 9246.555000000008,
      "d": 136.9860000000008,
      "v": 100
    },
    {
      "midi": 70,
      "hit": false,
      "t": 9452.034000000009,
      "d": 136.9860000000008,
      "v": 100
    },
    {
      "midi": 74,
      "hit": false,
      "t": 9657.51300000001,
      "d": 136.9860000000008,
      "v": 100
    },
    {
      "midi": 39,
      "hit": false,
      "t": 9862.991999999998,
      "d": 1648.1128124999977,
      "v": 100
    },
    {
      "midi": 63,
      "hit": false,
      "t": 10068.47100000001,
      "d": 136.9860000000008,
      "v": 100
    },
    {
      "midi": 67,
      "hit": false,
      "t": 10273.950000000012,
      "d": 136.9860000000008,
      "v": 100
    },
    {
      "midi": 75,
      "hit": false,
      "t": 10479.429000000013,
      "d": 136.9860000000008,
      "v": 100
    },
    {
      "midi": 63,
      "hit": false,
      "t": 10684.908000000014,
      "d": 136.9860000000008,
      "v": 100
    },
    {
      "midi": 67,
      "hit": false,
      "t": 10890.387000000015,
      "d": 136.9860000000008,
      "v": 100
    },
    {
      "midi": 70,
      "hit": false,
      "t": 11095.866000000016,
      "d": 136.9860000000008,
      "v": 100
    },
    {
      "midi": 63,
      "hit": false,
      "t": 11301.345000000018,
      "d": 136.9860000000008,
      "v": 100
    },
    {
      "midi": 49,
      "hit": false,
      "t": 11506.823999999997,
      "d": 4.280812499999229,
      "v": 100
    },
    {
      "midi": 37,
      "hit": false,
      "t": 11506.823999999997,
      "d": 1648.1128124999977,
      "v": 100
    },
    {
      "midi": 70,
      "hit": false,
      "t": 11506.824000000019,
      "d": 136.9860000000008,
      "v": 100
    },
    {
      "midi": 63,
      "hit": false,
      "t": 11712.30300000002,
      "d": 136.9860000000008,
      "v": 100
    },
    {
      "midi": 67,
      "hit": false,
      "t": 11917.782000000021,
      "d": 136.9860000000008,
      "v": 100
    },
    {
      "midi": 70,
      "hit": false,
      "t": 12123.261000000022,
      "d": 136.9860000000008,
      "v": 100
    },
    {
      "midi": 75,
      "hit": false,
      "t": 12328.740000000023,
      "d": 136.9860000000008,
      "v": 100
    },
    {
      "midi": 67,
      "hit": false,
      "t": 12534.219000000025,
      "d": 136.9860000000008,
      "v": 100
    },
    {
      "midi": 70,
      "hit": false,
      "t": 12739.698000000026,
      "d": 136.9860000000008,
      "v": 100
    },
    {
      "midi": 63,
      "hit": false,
      "t": 12945.177000000027,
      "d": 136.9860000000008,
      "v": 100
    },
    {
      "midi": 32,
      "hit": false,
      "t": 13150.655999999995,
      "d": 1232.8739999999998,
      "v": 100
    },
    {
      "midi": 44,
      "hit": false,
      "t": 13150.655999999995,
      "d": 1232.8739999999998,
      "v": 100
    },
    {
      "midi": 68,
      "hit": false,
      "t": 13356.135000000028,
      "d": 136.9860000000008,
      "v": 100
    },
    {
      "midi": 72,
      "hit": false,
      "t": 13561.614000000029,
      "d": 136.9860000000008,
      "v": 100
    },
    {
      "midi": 75,
      "hit": false,
      "t": 13767.09300000003,
      "d": 136.9860000000008,
      "v": 100
    },
    {
      "midi": 80,
      "hit": false,
      "t": 13972.572000000031,
      "d": 136.9860000000008,
      "v": 100
    },
    {
      "midi": 68,
      "hit": false,
      "t": 14178.051000000032,
      "d": 136.9860000000008,
      "v": 100
    },
    {
      "midi": 72,
      "hit": false,
      "t": 14383.530000000033,
      "d": 136.9860000000008,
      "v": 100
    },
    {
      "midi": 56,
      "hit": false,
      "t": 14589.008999999995,
      "d": 603.5945624999986,
      "v": 100
    },
    {
      "midi": 75,
      "hit": false,
      "t": 14589.009000000035,
      "d": 136.9860000000008,
      "v": 100
    },
    {
      "midi": 44,
      "hit": false,
      "t": 14794.487999999994,
      "d": 410.9579999999987,
      "v": 100
    },
    {
      "midi": 79,
      "hit": false,
      "t": 14794.488000000036,
      "d": 136.9860000000008,
      "v": 100
    },
    {
      "midi": 70,
      "hit": false,
      "t": 14999.967000000037,
      "d": 136.9860000000008,
      "v": 100
    },
    {
      "midi": 75,
      "hit": false,
      "t": 15205.446000000038,
      "d": 136.9860000000008,
      "v": 100
    },
    {
      "midi": 56,
      "hit": false,
      "t": 15410.924999999992,
      "d": 205.47899999999936,
      "v": 100
    },
    {
      "midi": 79,
      "hit": false,
      "t": 15410.92500000004,
      "d": 136.9860000000008,
      "v": 100
    },
    {
      "midi": 44,
      "hit": false,
      "t": 15616.403999999991,
      "d": 410.95800000000054,
      "v": 100
    },
    {
      "midi": 56,
      "hit": false,
      "t": 15616.403999999991,
      "d": 410.95800000000054,
      "v": 100
    },
    {
      "midi": 68,
      "hit": false,
      "t": 15616.40400000004,
      "d": 136.9860000000008,
      "v": 100
    },
    {
      "midi": 73,
      "hit": false,
      "t": 15821.883000000042,
      "d": 136.9860000000008,
      "v": 100
    },
    {
      "midi": 77,
      "hit": false,
      "t": 16027.362000000043,
      "d": 136.9860000000008,
      "v": 100
    },
    {
      "midi": 44,
      "hit": false,
      "t": 16232.840999999991,
      "d": 1164.3809999999994,
      "v": 100
    },
    {
      "midi": 68,
      "hit": false,
      "t": 16232.841000000044,
      "d": 136.9860000000008,
      "v": 100
    },
    {
      "midi": 32,
      "hit": false,
      "t": 16438.319999999992,
      "d": 1100.1688124999964,
      "v": 100
    },
    {
      "midi": 68,
      "hit": false,
      "t": 16643.799000000046,
      "d": 136.9860000000008,
      "v": 100
    },
    {
      "midi": 72,
      "hit": false,
      "t": 16849.278000000046,
      "d": 136.9860000000008,
      "v": 100
    },
    {
      "midi": 75,
      "hit": false,
      "t": 17054.757000000045,
      "d": 136.9860000000008,
      "v": 100
    },
    {
      "midi": 80,
      "hit": false,
      "t": 17260.236000000044,
      "d": 136.9860000000008,
      "v": 100
    },
    {
      "midi": 68,
      "hit": false,
      "t": 17465.715000000044,
      "d": 136.9860000000008,
      "v": 100
    },
    {
      "midi": 72,
      "hit": false,
      "t": 17671.194000000043,
      "d": 136.9860000000008,
      "v": 100
    },
    {
      "midi": 56,
      "hit": false,
      "t": 17876.672999999988,
      "d": 603.5945624999986,
      "v": 100
    },
    {
      "midi": 75,
      "hit": false,
      "t": 17876.673000000043,
      "d": 136.9860000000008,
      "v": 100
    },
    {
      "midi": 44,
      "hit": false,
      "t": 18082.151999999987,
      "d": 410.9579999999987,
      "v": 100
    },
    {
      "midi": 79,
      "hit": false,
      "t": 18082.152000000042,
      "d": 136.9860000000008,
      "v": 100
    },
    {
      "midi": 70,
      "hit": false,
      "t": 18287.63100000004,
      "d": 136.9860000000008,
      "v": 100
    },
    {
      "midi": 75,
      "hit": false,
      "t": 18493.11000000004,
      "d": 136.9860000000008,
      "v": 100
    },
    {
      "midi": 56,
      "hit": false,
      "t": 18698.588999999985,
      "d": 205.47899999999936,
      "v": 100
    },
    {
      "midi": 79,
      "hit": false,
      "t": 18698.58900000004,
      "d": 136.9860000000008,
      "v": 100
    },
    {
      "midi": 44,
      "hit": false,
      "t": 18904.067999999985,
      "d": 410.9579999999987,
      "v": 100
    },
    {
      "midi": 56,
      "hit": false,
      "t": 18904.067999999985,
      "d": 410.9579999999987,
      "v": 100
    },
    {
      "midi": 68,
      "hit": false,
      "t": 18904.06800000004,
      "d": 136.9860000000008,
      "v": 100
    },
    {
      "midi": 73,
      "hit": false,
      "t": 19109.54700000004,
      "d": 136.9860000000008,
      "v": 100
    },
    {
      "midi": 77,
      "hit": false,
      "t": 19315.026000000038,
      "d": 136.9860000000008,
      "v": 100
    },
    {
      "midi": 55,
      "hit": false,
      "t": 19520.504999999983,
      "d": 205.47899999999936,
      "v": 100
    },
    {
      "midi": 68,
      "hit": false,
      "t": 19520.505000000037,
      "d": 136.9860000000008,
      "v": 100
    },
    {
      "midi": 53,
      "hit": false,
      "t": 19725.983999999982,
      "d": 1100.1688125,
      "v": 100
    },
    {
      "midi": 75,
      "hit": false,
      "t": 19725.984000000037,
      "d": 136.9860000000008,
      "v": 100
    },
    {
      "midi": 68,
      "hit": false,
      "t": 19931.463000000036,
      "d": 136.9860000000008,
      "v": 100
    },
    {
      "midi": 72,
      "hit": false,
      "t": 20136.942000000035,
      "d": 136.9860000000008,
      "v": 100
    },
    {
      "midi": 80,
      "hit": false,
      "t": 20342.421000000035,
      "d": 136.9860000000008,
      "v": 100
    },
    {
      "midi": 68,
      "hit": false,
      "t": 20547.900000000034,
      "d": 136.9860000000008,
      "v": 100
    },
    {
      "midi": 72,
      "hit": false,
      "t": 20753.379000000034,
      "d": 136.9860000000008,
      "v": 100
    },
    {
      "midi": 75,
      "hit": false,
      "t": 20958.858000000033,
      "d": 136.9860000000008,
      "v": 100
    },
    {
      "midi": 53,
      "hit": false,
      "t": 21164.33699999998,
      "d": 136.9860000000008,
      "v": 100
    },
    {
      "midi": 72,
      "hit": false,
      "t": 21164.337000000032,
      "d": 136.9860000000008,
      "v": 100
    },
    {
      "midi": 55,
      "hit": false,
      "t": 21369.81599999998,
      "d": 1100.1688125,
      "v": 100
    },
    {
      "midi": 75,
      "hit": false,
      "t": 21369.81600000003,
      "d": 136.9860000000008,
      "v": 100
    },
    {
      "midi": 67,
      "hit": false,
      "t": 21575.29500000003,
      "d": 136.9860000000008,
      "v": 100
    },
    {
      "midi": 70,
      "hit": false,
      "t": 21780.77400000003,
      "d": 136.9860000000008,
      "v": 100
    },
    {
      "midi": 75,
      "hit": false,
      "t": 21986.25300000003,
      "d": 136.9860000000008,
      "v": 100
    },
    {
      "midi": 67,
      "hit": false,
      "t": 22191.73200000003,
      "d": 136.9860000000008,
      "v": 100
    },
    {
      "midi": 70,
      "hit": false,
      "t": 22397.21100000003,
      "d": 136.9860000000008,
      "v": 100
    },
    {
      "midi": 75,
      "hit": false,
      "t": 22602.690000000028,
      "d": 136.9860000000008,
      "v": 100
    },
    {
      "midi": 55,
      "hit": false,
      "t": 22808.16899999998,
      "d": 136.9860000000008,
      "v": 100
    },
    {
      "midi": 67,
      "hit": false,
      "t": 22808.169000000027,
      "d": 136.9860000000008,
      "v": 100
    },
    {
      "midi": 49,
      "hit": false,
      "t": 23013.64799999998,
      "d": 1100.1688125,
      "v": 100
    },
    {
      "midi": 73,
      "hit": false,
      "t": 23013.648000000027,
      "d": 136.9860000000008,
      "v": 100
    },
    {
      "midi": 68,
      "hit": false,
      "t": 23219.127000000026,
      "d": 136.9860000000008,
      "v": 100
    },
    {
      "midi": 61,
      "hit": false,
      "t": 23424.606000000025,
      "d": 136.9860000000008,
      "v": 100
    },
    {
      "midi": 68,
      "hit": false,
      "t": 23630.085000000025,
      "d": 136.9860000000008,
      "v": 100
    },
    {
      "midi": 73,
      "hit": false,
      "t": 23835.564000000024,
      "d": 136.9860000000008,
      "v": 100
    },
    {
      "midi": 61,
      "hit": false,
      "t": 24041.043000000023,
      "d": 136.9860000000008,
      "v": 100
    },
    {
      "midi": 68,
      "hit": false,
      "t": 24246.522000000023,
      "d": 136.9860000000008,
      "v": 100
    },
    {
      "midi": 49,
      "hit": false,
      "t": 24452.00099999998,
      "d": 136.9860000000008,
      "v": 100
    },
    {
      "midi": 73,
      "hit": false,
      "t": 24452.001000000022,
      "d": 136.9860000000008,
      "v": 100
    },
    {
      "midi": 51,
      "hit": false,
      "t": 24657.479999999978,
      "d": 1100.1688125,
      "v": 100
    },
    {
      "midi": 72,
      "hit": false,
      "t": 24657.48000000002,
      "d": 136.9860000000008,
      "v": 100
    },
    {
      "midi": 63,
      "hit": false,
      "t": 24862.95900000002,
      "d": 136.9860000000008,
      "v": 100
    },
    {
      "midi": 68,
      "hit": false,
      "t": 25068.43800000002,
      "d": 136.9860000000008,
      "v": 100
    },
    {
      "midi": 70,
      "hit": false,
      "t": 25273.91700000002,
      "d": 136.9860000000008,
      "v": 100
    },
    {
      "midi": 63,
      "hit": false,
      "t": 25479.39600000002,
      "d": 136.9860000000008,
      "v": 100
    },
    {
      "midi": 68,
      "hit": false,
      "t": 25684.87500000002,
      "d": 136.9860000000008,
      "v": 100
    },
    {
      "midi": 70,
      "hit": false,
      "t": 25890.354000000018,
      "d": 136.9860000000008,
      "v": 100
    },
    {
      "midi": 51,
      "hit": false,
      "t": 26095.832999999977,
      "d": 136.9860000000008,
      "v": 100
    },
    {
      "midi": 75,
      "hit": false,
      "t": 26095.833000000017,
      "d": 136.9860000000008,
      "v": 100
    },
    {
      "midi": 44,
      "hit": false,
      "t": 26301.311999999976,
      "d": 1639.5511874999975,
      "v": 100
    },
    {
      "midi": 68,
      "hit": false,
      "t": 26506.79100000002,
      "d": 303.937687499998,
      "v": 100
    },
    {
      "midi": 72,
      "hit": false,
      "t": 26712.27000000002,
      "d": 303.937687499998,
      "v": 100
    },
    {
      "midi": 75,
      "hit": false,
      "t": 26917.749000000018,
      "d": 303.937687499998,
      "v": 100
    },
    {
      "midi": 80,
      "hit": false,
      "t": 27123.228000000017,
      "d": 303.937687499998,
      "v": 100
    },
    {
      "midi": 68,
      "hit": false,
      "t": 27328.707000000017,
      "d": 303.937687499998,
      "v": 100
    },
    {
      "midi": 72,
      "hit": false,
      "t": 27534.186000000016,
      "d": 303.937687499998,
      "v": 100
    },
    {
      "midi": 56,
      "hit": false,
      "t": 27739.664999999975,
      "d": 201.1981874999983,
      "v": 100
    },
    {
      "midi": 75,
      "hit": false,
      "t": 27739.665000000015,
      "d": 214.04062499999782,
      "v": 100
    },
    {
      "midi": 44,
      "hit": false,
      "t": 27945.143999999975,
      "d": 817.6351875,
      "v": 100
    },
    {
      "midi": 79,
      "hit": false,
      "t": 27945.144000000015,
      "d": 303.937687499998,
      "v": 100
    },
    {
      "midi": 70,
      "hit": false,
      "t": 28150.623000000014,
      "d": 303.937687499998,
      "v": 100
    },
    {
      "midi": 75,
      "hit": false,
      "t": 28356.102000000014,
      "d": 303.937687499998,
      "v": 100
    },
    {
      "midi": 56,
      "hit": false,
      "t": 28561.580999999976,
      "d": 201.1981874999983,
      "v": 100
    },
    {
      "midi": 79,
      "hit": false,
      "t": 28561.581000000013,
      "d": 303.937687499998,
      "v": 100
    },
    {
      "midi": 44,
      "hit": false,
      "t": 28767.059999999976,
      "d": 817.6351875,
      "v": 100
    },
    {
      "midi": 68,
      "hit": false,
      "t": 28767.060000000012,
      "d": 303.937687499998,
      "v": 100
    },
    {
      "midi": 73,
      "hit": false,
      "t": 28972.53900000001,
      "d": 303.937687499998,
      "v": 100
    },
    {
      "midi": 77,
      "hit": false,
      "t": 29178.01800000001,
      "d": 201.1981874999983,
      "v": 100
    },
    {
      "midi": 56,
      "hit": false,
      "t": 29383.496999999978,
      "d": 201.1981874999983,
      "v": 100
    },
    {
      "midi": 68,
      "hit": false,
      "t": 29383.49700000001,
      "d": 201.1981874999983,
      "v": 100
    },
    {
      "midi": 44,
      "hit": false,
      "t": 29588.975999999977,
      "d": 1639.5511874999975,
      "v": 100
    },
    {
      "midi": 68,
      "hit": false,
      "t": 29794.45500000001,
      "d": 303.937687499998,
      "v": 100
    },
    {
      "midi": 72,
      "hit": false,
      "t": 29999.93400000001,
      "d": 303.937687499998,
      "v": 100
    },
    {
      "midi": 75,
      "hit": false,
      "t": 30205.413000000008,
      "d": 303.937687499998,
      "v": 100
    },
    {
      "midi": 80,
      "hit": false,
      "t": 30410.892000000007,
      "d": 303.937687499998,
      "v": 100
    },
    {
      "midi": 68,
      "hit": false,
      "t": 30616.371000000006,
      "d": 303.937687499998,
      "v": 100
    },
    {
      "midi": 72,
      "hit": false,
      "t": 30821.850000000006,
      "d": 303.937687499998,
      "v": 100
    },
    {
      "midi": 56,
      "hit": false,
      "t": 31027.328999999976,
      "d": 201.1981874999983,
      "v": 100
    },
    {
      "midi": 75,
      "hit": false,
      "t": 31027.329000000005,
      "d": 214.04062499999782,
      "v": 100
    },
    {
      "midi": 44,
      "hit": false,
      "t": 31232.807999999975,
      "d": 817.6351875,
      "v": 100
    },
    {
      "midi": 79,
      "hit": false,
      "t": 31232.808000000005,
      "d": 303.937687499998,
      "v": 100
    },
    {
      "midi": 70,
      "hit": false,
      "t": 31438.287000000004,
      "d": 303.937687499998,
      "v": 100
    },
    {
      "midi": 75,
      "hit": false,
      "t": 31643.766000000003,
      "d": 303.937687499998,
      "v": 100
    },
    {
      "midi": 56,
      "hit": false,
      "t": 31849.244999999977,
      "d": 201.1981874999983,
      "v": 100
    },
    {
      "midi": 79,
      "hit": false,
      "t": 31849.245000000003,
      "d": 303.937687499998,
      "v": 100
    },
    {
      "midi": 44,
      "hit": false,
      "t": 32054.723999999977,
      "d": 817.6351875,
      "v": 100
    },
    {
      "midi": 56,
      "hit": false,
      "t": 32054.723999999977,
      "d": 817.6351875,
      "v": 100
    },
    {
      "midi": 68,
      "hit": false,
      "t": 32054.724000000002,
      "d": 303.937687499998,
      "v": 100
    },
    {
      "midi": 73,
      "hit": false,
      "t": 32260.203,
      "d": 303.937687499998,
      "v": 100
    },
    {
      "midi": 77,
      "hit": false,
      "t": 32465.682,
      "d": 201.1981874999983,
      "v": 100
    },
    {
      "midi": 43,
      "hit": false,
      "t": 32671.16099999998,
      "d": 201.1981874999983,
      "v": 100
    },
    {
      "midi": 68,
      "hit": false,
      "t": 32671.161,
      "d": 201.1981874999983,
      "v": 100
    },
    {
      "midi": 75,
      "hit": false,
      "t": 32876.64,
      "d": 303.93768750000163,
      "v": 100
    },
    {
      "midi": 68,
      "hit": false,
      "t": 33082.119,
      "d": 303.93768750000163,
      "v": 100
    },
    {
      "midi": 72,
      "hit": false,
      "t": 33287.598,
      "d": 303.93768750000163,
      "v": 100
    },
    {
      "midi": 80,
      "hit": false,
      "t": 33493.077,
      "d": 303.93768750000163,
      "v": 100
    },
    {
      "midi": 68,
      "hit": false,
      "t": 33698.556,
      "d": 303.93768750000163,
      "v": 100
    },
    {
      "midi": 72,
      "hit": false,
      "t": 33904.034999999996,
      "d": 303.93768750000163,
      "v": 100
    },
    {
      "midi": 75,
      "hit": false,
      "t": 34109.513999999996,
      "d": 303.93768750000163,
      "v": 100
    },
    {
      "midi": 41,
      "hit": false,
      "t": 34314.99299999998,
      "d": 201.1981874999983,
      "v": 100
    },
    {
      "midi": 53,
      "hit": false,
      "t": 34314.99299999998,
      "d": 201.1981874999983,
      "v": 100
    },
    {
      "midi": 72,
      "hit": false,
      "t": 34314.992999999995,
      "d": 201.1981875000056,
      "v": 100
    },
    {
      "midi": 43,
      "hit": false,
      "t": 34520.47199999998,
      "d": 817.6351874999964,
      "v": 100
    },
    {
      "midi": 55,
      "hit": false,
      "t": 34520.47199999998,
      "d": 817.6351874999964,
      "v": 100
    },
    {
      "midi": 75,
      "hit": false,
      "t": 34520.472,
      "d": 303.93768750000163,
      "v": 100
    },
    {
      "midi": 67,
      "hit": false,
      "t": 34725.951,
      "d": 303.93768750000163,
      "v": 100
    },
    {
      "midi": 70,
      "hit": false,
      "t": 34931.43,
      "d": 303.93768750000163,
      "v": 100
    },
    {
      "midi": 75,
      "hit": false,
      "t": 35136.909,
      "d": 303.93768750000163,
      "v": 100
    },
    {
      "midi": 67,
      "hit": false,
      "t": 35342.388,
      "d": 303.93768750000163,
      "v": 100
    },
    {
      "midi": 70,
      "hit": false,
      "t": 35547.867,
      "d": 303.93768750000163,
      "v": 100
    },
    {
      "midi": 44,
      "hit": false,
      "t": 35753.345999999976,
      "d": 201.1981874999983,
      "v": 100
    },
    {
      "midi": 56,
      "hit": false,
      "t": 35753.345999999976,
      "d": 201.1981874999983,
      "v": 100
    },
    {
      "midi": 75,
      "hit": false,
      "t": 35753.346,
      "d": 303.93768750000163,
      "v": 100
    },
    {
      "midi": 44,
      "hit": false,
      "t": 35958.824999999975,
      "d": 1639.551187500001,
      "v": 100
    },
    {
      "midi": 56,
      "hit": false,
      "t": 35958.824999999975,
      "d": 1639.551187500001,
      "v": 100
    },
    {
      "midi": 68,
      "hit": false,
      "t": 35958.825,
      "d": 201.1981875000056,
      "v": 100
    },
    {
      "midi": 73,
      "hit": false,
      "t": 36164.304000000004,
      "d": 201.1981874999983,
      "v": 100
    },
    {
      "midi": 63,
      "hit": false,
      "t": 36369.783,
      "d": 201.1981874999983,
      "v": 100
    },
    {
      "midi": 68,
      "hit": false,
      "t": 36575.262,
      "d": 201.1981874999983,
      "v": 100
    },
    {
      "midi": 73,
      "hit": false,
      "t": 36780.741,
      "d": 201.1981874999983,
      "v": 100
    },
    {
      "midi": 63,
      "hit": false,
      "t": 36986.22,
      "d": 201.1981874999983,
      "v": 100
    },
    {
      "midi": 68,
      "hit": false,
      "t": 37191.699,
      "d": 201.1981874999983,
      "v": 100
    },
    {
      "midi": 73,
      "hit": false,
      "t": 37397.178,
      "d": 201.1981874999983,
      "v": 100
    },
    {
      "midi": 44,
      "hit": false,
      "t": 37602.65699999998,
      "d": 1639.551187500001,
      "v": 100
    },
    {
      "midi": 63,
      "hit": false,
      "t": 37602.657,
      "d": 201.1981874999983,
      "v": 100
    },
    {
      "midi": 32,
      "hit": false,
      "t": 37808.13599999998,
      "d": 1639.551187500001,
      "v": 100
    },
    {
      "midi": 72,
      "hit": false,
      "t": 37808.136,
      "d": 201.1981874999983,
      "v": 100
    },
    {
      "midi": 63,
      "hit": false,
      "t": 38013.615,
      "d": 201.1981874999983,
      "v": 100
    },
    {
      "midi": 68,
      "hit": false,
      "t": 38219.094,
      "d": 201.1981874999983,
      "v": 100
    },
    {
      "midi": 72,
      "hit": false,
      "t": 38424.573,
      "d": 201.1981874999983,
      "v": 100
    },
    {
      "midi": 63,
      "hit": false,
      "t": 38630.051999999996,
      "d": 201.1981874999983,
      "v": 100
    },
    {
      "midi": 68,
      "hit": false,
      "t": 38835.530999999995,
      "d": 201.1981874999983,
      "v": 100
    },
    {
      "midi": 72,
      "hit": false,
      "t": 39041.009999999995,
      "d": 201.1981874999983,
      "v": 100
    },
    {
      "midi": 63,
      "hit": false,
      "t": 39246.488999999994,
      "d": 201.1981874999983,
      "v": 100
    },
    {
      "midi": 37,
      "hit": false,
      "t": 39451.96799999998,
      "d": 1100.1688125,
      "v": 100
    },
    {
      "midi": 49,
      "hit": false,
      "t": 39451.96799999998,
      "d": 1100.1688125,
      "v": 100
    },
    {
      "midi": 73,
      "hit": false,
      "t": 39451.96799999999,
      "d": 201.1981874999983,
      "v": 100
    },
    {
      "midi": 65,
      "hit": false,
      "t": 39657.44699999999,
      "d": 201.1981874999983,
      "v": 100
    },
    {
      "midi": 68,
      "hit": false,
      "t": 39862.92599999999,
      "d": 201.1981874999983,
      "v": 100
    },
    {
      "midi": 73,
      "hit": false,
      "t": 40068.40499999999,
      "d": 201.1981874999983,
      "v": 100
    },
    {
      "midi": 77,
      "hit": false,
      "t": 40273.88399999999,
      "d": 201.1981874999983,
      "v": 100
    },
    {
      "midi": 65,
      "hit": false,
      "t": 40479.36299999999,
      "d": 201.1981874999983,
      "v": 100
    },
    {
      "midi": 37,
      "hit": false,
      "t": 40684.84199999998,
      "d": 273.9720000000016,
      "v": 100
    },
    {
      "midi": 49,
      "hit": false,
      "t": 40684.84199999998,
      "d": 273.9720000000016,
      "v": 100
    },
    {
      "midi": 68,
      "hit": false,
      "t": 40684.84199999999,
      "d": 201.1981874999983,
      "v": 100
    },
    {
      "midi": 73,
      "hit": false,
      "t": 40890.32099999999,
      "d": 201.1981874999983,
      "v": 100
    },
    {
      "midi": 37,
      "hit": false,
      "t": 41095.79999999998,
      "d": 1100.1688125,
      "v": 100
    },
    {
      "midi": 49,
      "hit": false,
      "t": 41095.79999999998,
      "d": 1100.1688125,
      "v": 100
    },
    {
      "midi": 75,
      "hit": false,
      "t": 41095.79999999999,
      "d": 201.1981874999983,
      "v": 100
    },
    {
      "midi": 65,
      "hit": false,
      "t": 41301.27899999999,
      "d": 201.1981874999983,
      "v": 100
    },
    {
      "midi": 68,
      "hit": false,
      "t": 41506.75799999999,
      "d": 201.1981874999983,
      "v": 100
    },
    {
      "midi": 75,
      "hit": false,
      "t": 41712.23699999999,
      "d": 201.1981874999983,
      "v": 100
    },
    {
      "midi": 73,
      "hit": false,
      "t": 41917.715999999986,
      "d": 201.1981874999983,
      "v": 100
    },
    {
      "midi": 65,
      "hit": false,
      "t": 42123.194999999985,
      "d": 201.1981874999983,
      "v": 100
    },
    {
      "midi": 68,
      "hit": false,
      "t": 42328.673999999985,
      "d": 201.1981874999983,
      "v": 100
    },
    {
      "midi": 37,
      "hit": false,
      "t": 42328.673999999985,
      "d": 273.9720000000016,
      "v": 100
    },
    {
      "midi": 49,
      "hit": false,
      "t": 42328.673999999985,
      "d": 273.9720000000016,
      "v": 100
    },
    {
      "midi": 73,
      "hit": false,
      "t": 42534.152999999984,
      "d": 201.1981874999983,
      "v": 100
    },
    {
      "midi": 72,
      "hit": false,
      "t": 42739.63199999998,
      "d": 201.1981874999983,
      "v": 100
    },
    {
      "midi": 32,
      "hit": false,
      "t": 42739.63199999998,
      "d": 1100.1688125,
      "v": 100
    },
    {
      "midi": 44,
      "hit": false,
      "t": 42739.63199999998,
      "d": 1100.1688125,
      "v": 100
    },
    {
      "midi": 63,
      "hit": false,
      "t": 42945.11099999998,
      "d": 201.1981874999983,
      "v": 100
    },
    {
      "midi": 68,
      "hit": false,
      "t": 43150.58999999998,
      "d": 201.1981874999983,
      "v": 100
    },
    {
      "midi": 72,
      "hit": false,
      "t": 43356.06899999998,
      "d": 201.1981874999983,
      "v": 100
    },
    {
      "midi": 75,
      "hit": false,
      "t": 43561.54799999998,
      "d": 201.1981874999983,
      "v": 100
    },
    {
      "midi": 63,
      "hit": false,
      "t": 43767.02699999998,
      "d": 201.1981874999983,
      "v": 100
    },
    {
      "midi": 68,
      "hit": false,
      "t": 43972.50599999998,
      "d": 201.1981874999983,
      "v": 100
    },
    {
      "midi": 32,
      "hit": false,
      "t": 43972.50599999999,
      "d": 273.9720000000016,
      "v": 100
    },
    {
      "midi": 44,
      "hit": false,
      "t": 43972.50599999999,
      "d": 273.9720000000016,
      "v": 100
    },
    {
      "midi": 72,
      "hit": false,
      "t": 44177.98499999998,
      "d": 201.1981874999983,
      "v": 100
    },
    {
      "midi": 70,
      "hit": false,
      "t": 44383.46399999998,
      "d": 201.1981874999983,
      "v": 100
    },
    {
      "midi": 32,
      "hit": false,
      "t": 44383.463999999985,
      "d": 1100.1688125,
      "v": 100
    },
    {
      "midi": 44,
      "hit": false,
      "t": 44383.463999999985,
      "d": 1100.1688125,
      "v": 100
    },
    {
      "midi": 63,
      "hit": false,
      "t": 44588.94299999998,
      "d": 201.1981874999983,
      "v": 100
    },
    {
      "midi": 68,
      "hit": false,
      "t": 44794.42199999998,
      "d": 201.1981874999983,
      "v": 100
    },
    {
      "midi": 70,
      "hit": false,
      "t": 44999.900999999976,
      "d": 201.1981874999983,
      "v": 100
    },
    {
      "midi": 72,
      "hit": false,
      "t": 45205.379999999976,
      "d": 201.1981874999983,
      "v": 100
    },
    {
      "midi": 63,
      "hit": false,
      "t": 45410.858999999975,
      "d": 201.1981874999983,
      "v": 100
    },
    {
      "midi": 68,
      "hit": false,
      "t": 45616.337999999974,
      "d": 201.1981874999983,
      "v": 100
    },
    {
      "midi": 32,
      "hit": false,
      "t": 45616.33799999999,
      "d": 273.9720000000016,
      "v": 100
    },
    {
      "midi": 44,
      "hit": false,
      "t": 45616.33799999999,
      "d": 273.9720000000016,
      "v": 100
    },
    {
      "midi": 72,
      "hit": false,
      "t": 45821.81699999997,
      "d": 201.1981874999983,
      "v": 100
    },
    {
      "midi": 73,
      "hit": false,
      "t": 46027.29599999997,
      "d": 201.1981874999983,
      "v": 100
    },
    {
      "midi": 37,
      "hit": false,
      "t": 46027.29599999999,
      "d": 1100.1688125,
      "v": 100
    },
    {
      "midi": 49,
      "hit": false,
      "t": 46027.29599999999,
      "d": 1100.1688125,
      "v": 100
    },
    {
      "midi": 65,
      "hit": false,
      "t": 46232.77499999997,
      "d": 201.1981874999983,
      "v": 100
    },
    {
      "midi": 68,
      "hit": false,
      "t": 46438.25399999997,
      "d": 201.1981874999983,
      "v": 100
    },
    {
      "midi": 73,
      "hit": false,
      "t": 46643.73299999997,
      "d": 201.1981874999983,
      "v": 100
    },
    {
      "midi": 77,
      "hit": false,
      "t": 46849.21199999997,
      "d": 201.1981874999983,
      "v": 100
    },
    {
      "midi": 65,
      "hit": false,
      "t": 47054.69099999997,
      "d": 201.1981874999983,
      "v": 100
    },
    {
      "midi": 68,
      "hit": false,
      "t": 47260.16999999997,
      "d": 201.1981874999983,
      "v": 100
    },
    {
      "midi": 37,
      "hit": false,
      "t": 47260.16999999999,
      "d": 273.9720000000016,
      "v": 100
    },
    {
      "midi": 49,
      "hit": false,
      "t": 47260.16999999999,
      "d": 273.9720000000016,
      "v": 100
    },
    {
      "midi": 73,
      "hit": false,
      "t": 47465.64899999997,
      "d": 201.1981874999983,
      "v": 100
    },
    {
      "midi": 75,
      "hit": false,
      "t": 47671.12799999997,
      "d": 201.1981874999983,
      "v": 100
    },
    {
      "midi": 37,
      "hit": false,
      "t": 47671.12799999999,
      "d": 1100.1688125,
      "v": 100
    },
    {
      "midi": 49,
      "hit": false,
      "t": 47671.12799999999,
      "d": 1100.1688125,
      "v": 100
    },
    {
      "midi": 65,
      "hit": false,
      "t": 47876.60699999997,
      "d": 201.1981874999983,
      "v": 100
    },
    {
      "midi": 68,
      "hit": false,
      "t": 48082.08599999997,
      "d": 201.1981874999983,
      "v": 100
    },
    {
      "midi": 75,
      "hit": false,
      "t": 48287.564999999966,
      "d": 201.1981874999983,
      "v": 100
    },
    {
      "midi": 73,
      "hit": false,
      "t": 48493.043999999965,
      "d": 201.1981874999983,
      "v": 100
    },
    {
      "midi": 65,
      "hit": false,
      "t": 48698.522999999965,
      "d": 201.1981874999983,
      "v": 100
    },
    {
      "midi": 68,
      "hit": false,
      "t": 48904.001999999964,
      "d": 201.1981874999983,
      "v": 100
    },
    {
      "midi": 37,
      "hit": false,
      "t": 48904.00199999999,
      "d": 273.9720000000016,
      "v": 100
    },
    {
      "midi": 49,
      "hit": false,
      "t": 48904.00199999999,
      "d": 273.9720000000016,
      "v": 100
    },
    {
      "midi": 73,
      "hit": false,
      "t": 49109.48099999996,
      "d": 201.1981874999983,
      "v": 100
    },
    {
      "midi": 72,
      "hit": false,
      "t": 49314.95999999996,
      "d": 201.1981874999983,
      "v": 100
    },
    {
      "midi": 32,
      "hit": false,
      "t": 49314.95999999999,
      "d": 1100.1688125,
      "v": 100
    },
    {
      "midi": 44,
      "hit": false,
      "t": 49314.95999999999,
      "d": 1100.1688125,
      "v": 100
    },
    {
      "midi": 63,
      "hit": false,
      "t": 49520.43899999996,
      "d": 201.1981874999983,
      "v": 100
    },
    {
      "midi": 68,
      "hit": false,
      "t": 49725.91799999996,
      "d": 201.1981874999983,
      "v": 100
    },
    {
      "midi": 72,
      "hit": false,
      "t": 49931.39699999996,
      "d": 201.1981874999983,
      "v": 100
    },
    {
      "midi": 75,
      "hit": false,
      "t": 50136.87599999996,
      "d": 201.1981874999983,
      "v": 100
    },
    {
      "midi": 63,
      "hit": false,
      "t": 50342.35499999996,
      "d": 201.1981874999983,
      "v": 100
    },
    {
      "midi": 68,
      "hit": false,
      "t": 50547.83399999996,
      "d": 201.1981874999983,
      "v": 100
    },
    {
      "midi": 32,
      "hit": false,
      "t": 50547.833999999995,
      "d": 273.9720000000016,
      "v": 100
    },
    {
      "midi": 44,
      "hit": false,
      "t": 50547.833999999995,
      "d": 273.9720000000016,
      "v": 100
    },
    {
      "midi": 72,
      "hit": false,
      "t": 50753.31299999996,
      "d": 201.1981874999983,
      "v": 100
    },
    {
      "midi": 70,
      "hit": false,
      "t": 50958.79199999996,
      "d": 201.1981874999983,
      "v": 100
    },
    {
      "midi": 32,
      "hit": false,
      "t": 50958.791999999994,
      "d": 1100.1688125,
      "v": 100
    },
    {
      "midi": 44,
      "hit": false,
      "t": 50958.791999999994,
      "d": 1100.1688125,
      "v": 100
    },
    {
      "midi": 63,
      "hit": false,
      "t": 51164.27099999996,
      "d": 201.1981874999983,
      "v": 100
    },
    {
      "midi": 68,
      "hit": false,
      "t": 51369.749999999956,
      "d": 201.1981874999983,
      "v": 100
    },
    {
      "midi": 70,
      "hit": false,
      "t": 51575.228999999956,
      "d": 201.1981874999983,
      "v": 100
    },
    {
      "midi": 72,
      "hit": false,
      "t": 51780.707999999955,
      "d": 201.1981874999983,
      "v": 100
    },
    {
      "midi": 63,
      "hit": false,
      "t": 51986.186999999954,
      "d": 201.1981874999983,
      "v": 100
    },
    {
      "midi": 68,
      "hit": false,
      "t": 52191.665999999954,
      "d": 201.1981874999983,
      "v": 100
    },
    {
      "midi": 32,
      "hit": false,
      "t": 52191.666,
      "d": 273.9720000000016,
      "v": 100
    },
    {
      "midi": 44,
      "hit": false,
      "t": 52191.666,
      "d": 273.9720000000016,
      "v": 100
    },
    {
      "midi": 72,
      "hit": false,
      "t": 52397.14499999995,
      "d": 201.1981874999983,
      "v": 100
    },
    {
      "midi": 73,
      "hit": false,
      "t": 52602.62399999995,
      "d": 201.1981874999983,
      "v": 100
    },
    {
      "midi": 37,
      "hit": false,
      "t": 52602.623999999996,
      "d": 1100.1688125,
      "v": 100
    },
    {
      "midi": 49,
      "hit": false,
      "t": 52602.623999999996,
      "d": 1100.1688125,
      "v": 100
    },
    {
      "midi": 65,
      "hit": false,
      "t": 52808.10299999995,
      "d": 201.1981874999983,
      "v": 100
    },
    {
      "midi": 68,
      "hit": false,
      "t": 53013.58199999995,
      "d": 201.1981874999983,
      "v": 100
    },
    {
      "midi": 73,
      "hit": false,
      "t": 53219.06099999995,
      "d": 201.1981874999983,
      "v": 100
    },
    {
      "midi": 77,
      "hit": false,
      "t": 53424.53999999995,
      "d": 201.1981874999983,
      "v": 100
    },
    {
      "midi": 65,
      "hit": false,
      "t": 53630.01899999995,
      "d": 201.1981874999983,
      "v": 100
    },
    {
      "midi": 68,
      "hit": false,
      "t": 53835.49799999995,
      "d": 201.1981874999983,
      "v": 100
    },
    {
      "midi": 37,
      "hit": false,
      "t": 53835.498,
      "d": 273.9720000000016,
      "v": 100
    },
    {
      "midi": 49,
      "hit": false,
      "t": 53835.498,
      "d": 273.9720000000016,
      "v": 100
    },
    {
      "midi": 73,
      "hit": false,
      "t": 54040.97699999995,
      "d": 201.1981874999983,
      "v": 100
    },
    {
      "midi": 75,
      "hit": false,
      "t": 54246.45599999995,
      "d": 201.1981874999983,
      "v": 100
    },
    {
      "midi": 37,
      "hit": false,
      "t": 54246.456,
      "d": 1100.1688125,
      "v": 100
    },
    {
      "midi": 49,
      "hit": false,
      "t": 54246.456,
      "d": 1100.1688125,
      "v": 100
    },
    {
      "midi": 65,
      "hit": false,
      "t": 54451.93499999995,
      "d": 201.1981874999983,
      "v": 100
    },
    {
      "midi": 68,
      "hit": false,
      "t": 54657.413999999946,
      "d": 201.1981874999983,
      "v": 100
    },
    {
      "midi": 75,
      "hit": false,
      "t": 54862.892999999945,
      "d": 201.1981874999983,
      "v": 100
    },
    {
      "midi": 73,
      "hit": false,
      "t": 55068.371999999945,
      "d": 201.1981874999983,
      "v": 100
    },
    {
      "midi": 65,
      "hit": false,
      "t": 55273.850999999944,
      "d": 201.1981874999983,
      "v": 100
    },
    {
      "midi": 68,
      "hit": false,
      "t": 55479.32999999994,
      "d": 201.1981874999983,
      "v": 100
    },
    {
      "midi": 37,
      "hit": false,
      "t": 55479.33,
      "d": 273.9720000000016,
      "v": 100
    },
    {
      "midi": 49,
      "hit": false,
      "t": 55479.33,
      "d": 273.9720000000016,
      "v": 100
    },
    {
      "midi": 73,
      "hit": false,
      "t": 55684.80899999994,
      "d": 201.1981874999983,
      "v": 100
    },
    {
      "midi": 72,
      "hit": false,
      "t": 55890.28799999994,
      "d": 201.1981874999983,
      "v": 100
    },
    {
      "midi": 32,
      "hit": false,
      "t": 55890.288,
      "d": 1100.1688125,
      "v": 100
    },
    {
      "midi": 44,
      "hit": false,
      "t": 55890.288,
      "d": 1100.1688125,
      "v": 100
    },
    {
      "midi": 63,
      "hit": false,
      "t": 56095.76699999994,
      "d": 201.1981874999983,
      "v": 100
    },
    {
      "midi": 68,
      "hit": false,
      "t": 56301.24599999994,
      "d": 201.1981874999983,
      "v": 100
    },
    {
      "midi": 72,
      "hit": false,
      "t": 56506.72499999994,
      "d": 201.1981874999983,
      "v": 100
    },
    {
      "midi": 75,
      "hit": false,
      "t": 56712.20399999994,
      "d": 201.1981874999983,
      "v": 100
    },
    {
      "midi": 63,
      "hit": false,
      "t": 56917.68299999994,
      "d": 201.1981874999983,
      "v": 100
    },
    {
      "midi": 68,
      "hit": false,
      "t": 57123.16199999994,
      "d": 201.1981874999983,
      "v": 100
    },
    {
      "midi": 32,
      "hit": false,
      "t": 57123.162000000004,
      "d": 273.9720000000016,
      "v": 100
    },
    {
      "midi": 44,
      "hit": false,
      "t": 57123.162000000004,
      "d": 273.9720000000016,
      "v": 100
    },
    {
      "midi": 72,
      "hit": false,
      "t": 57328.64099999994,
      "d": 201.1981874999983,
      "v": 100
    },
    {
      "midi": 70,
      "hit": false,
      "t": 57534.11999999994,
      "d": 201.1981874999983,
      "v": 100
    },
    {
      "midi": 32,
      "hit": false,
      "t": 57534.12,
      "d": 1100.1688125,
      "v": 100
    },
    {
      "midi": 44,
      "hit": false,
      "t": 57534.12,
      "d": 1100.1688125,
      "v": 100
    },
    {
      "midi": 63,
      "hit": false,
      "t": 57739.59899999994,
      "d": 201.1981874999983,
      "v": 100
    },
    {
      "midi": 68,
      "hit": false,
      "t": 57945.077999999936,
      "d": 201.1981874999983,
      "v": 100
    },
    {
      "midi": 70,
      "hit": false,
      "t": 58150.556999999935,
      "d": 201.1981874999983,
      "v": 100
    },
    {
      "midi": 72,
      "hit": false,
      "t": 58356.035999999935,
      "d": 201.1981874999983,
      "v": 100
    },
    {
      "midi": 63,
      "hit": false,
      "t": 58561.514999999934,
      "d": 201.1981874999983,
      "v": 100
    },
    {
      "midi": 68,
      "hit": false,
      "t": 58766.99399999993,
      "d": 201.1981874999983,
      "v": 100
    },
    {
      "midi": 32,
      "hit": false,
      "t": 58766.994000000006,
      "d": 273.9720000000016,
      "v": 100
    },
    {
      "midi": 44,
      "hit": false,
      "t": 58766.994000000006,
      "d": 273.9720000000016,
      "v": 100
    },
    {
      "midi": 72,
      "hit": false,
      "t": 58972.47299999993,
      "d": 201.1981874999983,
      "v": 100
    },
    {
      "midi": 74,
      "hit": false,
      "t": 59177.95199999993,
      "d": 201.1981874999983,
      "v": 100
    },
    {
      "midi": 34,
      "hit": false,
      "t": 59177.952000000005,
      "d": 817.6351874999964,
      "v": 100
    },
    {
      "midi": 46,
      "hit": false,
      "t": 59177.952000000005,
      "d": 817.6351874999964,
      "v": 100
    },
    {
      "midi": 65,
      "hit": false,
      "t": 59383.43099999993,
      "d": 201.1981874999983,
      "v": 100
    },
    {
      "midi": 70,
      "hit": false,
      "t": 59588.90999999993,
      "d": 201.1981874999983,
      "v": 100
    },
    {
      "midi": 74,
      "hit": false,
      "t": 59794.38899999993,
      "d": 406.6771874999977,
      "v": 100
    },
    {
      "midi": 65,
      "hit": false,
      "t": 60205.34699999993,
      "d": 201.1981874999983,
      "v": 100
    },
    {
      "midi": 70,
      "hit": false,
      "t": 60410.82599999993,
      "d": 201.1981874999983,
      "v": 100
    },
    {
      "midi": 34,
      "hit": false,
      "t": 60410.826,
      "d": 406.6771874999977,
      "v": 100
    },
    {
      "midi": 46,
      "hit": false,
      "t": 60410.826,
      "d": 406.6771874999977,
      "v": 100
    },
    {
      "midi": 74,
      "hit": false,
      "t": 60616.30499999993,
      "d": 201.1981874999983,
      "v": 100
    },
    {
      "midi": 77,
      "hit": false,
      "t": 60821.78399999993,
      "d": 201.1981874999983,
      "v": 100
    },
    {
      "midi": 34,
      "hit": false,
      "t": 60821.784,
      "d": 817.6351874999964,
      "v": 100
    },
    {
      "midi": 46,
      "hit": false,
      "t": 60821.784,
      "d": 817.6351874999964,
      "v": 100
    },
    {
      "midi": 65,
      "hit": false,
      "t": 61027.262999999926,
      "d": 201.1981874999983,
      "v": 100
    },
    {
      "midi": 70,
      "hit": false,
      "t": 61232.741999999926,
      "d": 201.1981874999983,
      "v": 100
    },
    {
      "midi": 74,
      "hit": false,
      "t": 61438.220999999925,
      "d": 201.1981874999983,
      "v": 100
    },
    {
      "midi": 77,
      "hit": false,
      "t": 61643.699999999924,
      "d": 201.1981874999983,
      "v": 100
    },
    {
      "midi": 70,
      "hit": false,
      "t": 61849.178999999924,
      "d": 201.1981874999983,
      "v": 100
    },
    {
      "midi": 74,
      "hit": false,
      "t": 62054.65799999992,
      "d": 201.1981874999983,
      "v": 100
    },
    {
      "midi": 34,
      "hit": false,
      "t": 62054.657999999996,
      "d": 406.6771874999977,
      "v": 100
    },
    {
      "midi": 46,
      "hit": false,
      "t": 62054.657999999996,
      "d": 406.6771874999977,
      "v": 100
    },
    {
      "midi": 77,
      "hit": false,
      "t": 62260.13699999992,
      "d": 201.1981874999983,
      "v": 100
    },
    {
      "midi": 79,
      "hit": false,
      "t": 62465.61599999992,
      "d": 201.1981874999983,
      "v": 100
    },
    {
      "midi": 36,
      "hit": false,
      "t": 62465.615999999995,
      "d": 817.6351874999964,
      "v": 100
    },
    {
      "midi": 48,
      "hit": false,
      "t": 62465.615999999995,
      "d": 817.6351874999964,
      "v": 100
    },
    {
      "midi": 67,
      "hit": false,
      "t": 62671.09499999992,
      "d": 201.1981874999983,
      "v": 100
    },
    {
      "midi": 72,
      "hit": false,
      "t": 62876.57399999992,
      "d": 201.1981874999983,
      "v": 100
    },
    {
      "midi": 76,
      "hit": false,
      "t": 63082.05299999992,
      "d": 201.1981874999983,
      "v": 100
    },
    {
      "midi": 67,
      "hit": false,
      "t": 63287.53199999992,
      "d": 201.1981874999983,
      "v": 100
    },
    {
      "midi": 72,
      "hit": false,
      "t": 63493.01099999992,
      "d": 201.1981874999983,
      "v": 100
    },
    {
      "midi": 76,
      "hit": false,
      "t": 63698.48999999992,
      "d": 201.1981874999983,
      "v": 100
    },
    {
      "midi": 36,
      "hit": false,
      "t": 63698.48999999999,
      "d": 406.6771874999977,
      "v": 100
    },
    {
      "midi": 48,
      "hit": false,
      "t": 63698.48999999999,
      "d": 406.6771874999977,
      "v": 100
    },
    {
      "midi": 72,
      "hit": false,
      "t": 63903.96899999992,
      "d": 201.1981874999983,
      "v": 100
    },
    {
      "midi": 79,
      "hit": false,
      "t": 64109.44799999992,
      "d": 201.1981874999983,
      "v": 100
    },
    {
      "midi": 36,
      "hit": false,
      "t": 64109.44799999999,
      "d": 406.6771874999977,
      "v": 100
    },
    {
      "midi": 48,
      "hit": false,
      "t": 64109.44799999999,
      "d": 406.6771874999977,
      "v": 100
    },
    {
      "midi": 67,
      "hit": false,
      "t": 64314.926999999916,
      "d": 201.1981874999983,
      "v": 100
    },
    {
      "midi": 79,
      "hit": false,
      "t": 64314.926999999916,
      "d": 201.1981874999983,
      "v": 100
    },
    {
      "midi": 67,
      "hit": false,
      "t": 64520.405999999915,
      "d": 201.1981874999983,
      "v": 100
    },
    {
      "midi": 79,
      "hit": false,
      "t": 64520.405999999915,
      "d": 201.1981874999983,
      "v": 100
    },
    {
      "midi": 67,
      "hit": false,
      "t": 64725.884999999915,
      "d": 201.1981874999983,
      "v": 100
    },
    {
      "midi": 79,
      "hit": false,
      "t": 64725.884999999915,
      "d": 201.1981874999983,
      "v": 100
    },
    {
      "midi": 36,
      "hit": false,
      "t": 64725.88499999999,
      "d": 201.1981874999983,
      "v": 100
    },
    {
      "midi": 48,
      "hit": false,
      "t": 64725.88499999999,
      "d": 201.1981874999983,
      "v": 100
    },
    {
      "midi": 67,
      "hit": false,
      "t": 64931.363999999914,
      "d": 201.1981874999983,
      "v": 100
    },
    {
      "midi": 79,
      "hit": false,
      "t": 64931.363999999914,
      "d": 201.1981874999983,
      "v": 100
    },
    {
      "midi": 36,
      "hit": false,
      "t": 64931.36399999999,
      "d": 201.1981874999983,
      "v": 100
    },
    {
      "midi": 48,
      "hit": false,
      "t": 64931.36399999999,
      "d": 201.1981874999983,
      "v": 100
    },
    {
      "midi": 67,
      "hit": false,
      "t": 65136.84299999991,
      "d": 201.1981874999983,
      "v": 100
    },
    {
      "midi": 70,
      "hit": false,
      "t": 65136.84299999991,
      "d": 201.1981874999983,
      "v": 100
    },
    {
      "midi": 76,
      "hit": false,
      "t": 65136.84299999991,
      "d": 201.1981874999983,
      "v": 100
    },
    {
      "midi": 79,
      "hit": false,
      "t": 65136.84299999991,
      "d": 201.1981874999983,
      "v": 100
    },
    {
      "midi": 36,
      "hit": false,
      "t": 65136.842999999986,
      "d": 201.1981874999983,
      "v": 100
    },
    {
      "midi": 48,
      "hit": false,
      "t": 65136.842999999986,
      "d": 201.1981874999983,
      "v": 100
    },
    {
      "midi": 67,
      "hit": false,
      "t": 65342.32199999991,
      "d": 201.1981875000056,
      "v": 100
    },
    {
      "midi": 70,
      "hit": false,
      "t": 65342.32199999991,
      "d": 201.1981875000056,
      "v": 100
    },
    {
      "midi": 76,
      "hit": false,
      "t": 65342.32199999991,
      "d": 201.1981875000056,
      "v": 100
    },
    {
      "midi": 79,
      "hit": false,
      "t": 65342.32199999991,
      "d": 201.1981875000056,
      "v": 100
    },
    {
      "midi": 36,
      "hit": false,
      "t": 65342.321999999986,
      "d": 201.1981875000056,
      "v": 100
    },
    {
      "midi": 48,
      "hit": false,
      "t": 65342.321999999986,
      "d": 201.1981875000056,
      "v": 100
    },
    {
      "midi": 67,
      "hit": false,
      "t": 65547.80099999992,
      "d": 201.1981875000056,
      "v": 100
    },
    {
      "midi": 70,
      "hit": false,
      "t": 65547.80099999992,
      "d": 201.1981875000056,
      "v": 100
    },
    {
      "midi": 76,
      "hit": false,
      "t": 65547.80099999992,
      "d": 201.1981875000056,
      "v": 100
    },
    {
      "midi": 79,
      "hit": false,
      "t": 65547.80099999992,
      "d": 201.1981875000056,
      "v": 100
    },
    {
      "midi": 36,
      "hit": false,
      "t": 65547.80099999999,
      "d": 201.1981875000056,
      "v": 100
    },
    {
      "midi": 48,
      "hit": false,
      "t": 65547.80099999999,
      "d": 201.1981875000056,
      "v": 100
    },
    {
      "midi": 69,
      "hit": false,
      "t": 65753.27999999993,
      "d": 817.6351874999964,
      "v": 100
    },
    {
      "midi": 72,
      "hit": false,
      "t": 65753.27999999993,
      "d": 817.6351874999964,
      "v": 100
    },
    {
      "midi": 77,
      "hit": false,
      "t": 65753.27999999993,
      "d": 817.6351874999964,
      "v": 100
    },
    {
      "midi": 81,
      "hit": false,
      "t": 65753.27999999993,
      "d": 817.6351874999964,
      "v": 100
    },
    {
      "midi": 29,
      "hit": false,
      "t": 65753.28,
      "d": 201.1981875000056,
      "v": 100
    },
    {
      "midi": 41,
      "hit": false,
      "t": 65958.759,
      "d": 201.1981875000056,
      "v": 100
    },
    {
      "midi": 29,
      "hit": false,
      "t": 66164.23800000001,
      "d": 201.1981875000056,
      "v": 100
    },
    {
      "midi": 41,
      "hit": false,
      "t": 66369.71700000002,
      "d": 201.1981875000056,
      "v": 100
    },
    {
      "midi": 67,
      "hit": false,
      "t": 66575.19599999992,
      "d": 406.6771874999977,
      "v": 100
    },
    {
      "midi": 79,
      "hit": false,
      "t": 66575.19599999992,
      "d": 406.6771874999977,
      "v": 100
    },
    {
      "midi": 29,
      "hit": false,
      "t": 66575.19600000003,
      "d": 201.1981875000056,
      "v": 100
    },
    {
      "midi": 41,
      "hit": false,
      "t": 66780.67500000003,
      "d": 201.1981875000056,
      "v": 100
    },
    {
      "midi": 69,
      "hit": false,
      "t": 66986.15399999992,
      "d": 406.6771874999977,
      "v": 100
    },
    {
      "midi": 81,
      "hit": false,
      "t": 66986.15399999992,
      "d": 406.6771874999977,
      "v": 100
    },
    {
      "midi": 29,
      "hit": false,
      "t": 66986.15400000004,
      "d": 201.1981875000056,
      "v": 100
    },
    {
      "midi": 41,
      "hit": false,
      "t": 67191.63300000005,
      "d": 201.1981875000056,
      "v": 100
    },
    {
      "midi": 72,
      "hit": false,
      "t": 67397.11199999992,
      "d": 817.6351874999964,
      "v": 100
    },
    {
      "midi": 76,
      "hit": false,
      "t": 67397.11199999992,
      "d": 817.6351874999964,
      "v": 100
    },
    {
      "midi": 79,
      "hit": false,
      "t": 67397.11199999992,
      "d": 817.6351874999964,
      "v": 100
    },
    {
      "midi": 84,
      "hit": false,
      "t": 67397.11199999992,
      "d": 817.6351874999964,
      "v": 100
    },
    {
      "midi": 29,
      "hit": false,
      "t": 67397.11200000005,
      "d": 201.1981875000056,
      "v": 100
    },
    {
      "midi": 41,
      "hit": false,
      "t": 67602.59100000006,
      "d": 201.1981875000056,
      "v": 100
    },
    {
      "midi": 29,
      "hit": false,
      "t": 67808.07000000007,
      "d": 201.1981875000056,
      "v": 100
    },
    {
      "midi": 41,
      "hit": false,
      "t": 68013.54900000007,
      "d": 201.1981875000056,
      "v": 100
    },
    {
      "midi": 70,
      "hit": false,
      "t": 68219.02799999992,
      "d": 817.6351874999964,
      "v": 100
    },
    {
      "midi": 74,
      "hit": false,
      "t": 68219.02799999992,
      "d": 817.6351874999964,
      "v": 100
    },
    {
      "midi": 77,
      "hit": false,
      "t": 68219.02799999992,
      "d": 817.6351874999964,
      "v": 100
    },
    {
      "midi": 82,
      "hit": false,
      "t": 68219.02799999992,
      "d": 817.6351874999964,
      "v": 100
    },
    {
      "midi": 29,
      "hit": false,
      "t": 68219.02800000008,
      "d": 201.1981875000056,
      "v": 100
    },
    {
      "midi": 41,
      "hit": false,
      "t": 68424.50700000009,
      "d": 201.1981875000056,
      "v": 100
    },
    {
      "midi": 29,
      "hit": false,
      "t": 68629.98600000009,
      "d": 201.1981875000056,
      "v": 100
    },
    {
      "midi": 41,
      "hit": false,
      "t": 68835.4650000001,
      "d": 201.1981875000056,
      "v": 100
    },
    {
      "midi": 69,
      "hit": false,
      "t": 69040.94399999992,
      "d": 817.6351874999964,
      "v": 100
    },
    {
      "midi": 72,
      "hit": false,
      "t": 69040.94399999992,
      "d": 817.6351874999964,
      "v": 100
    },
    {
      "midi": 77,
      "hit": false,
      "t": 69040.94399999992,
      "d": 817.6351874999964,
      "v": 100
    },
    {
      "midi": 81,
      "hit": false,
      "t": 69040.94399999992,
      "d": 817.6351874999964,
      "v": 100
    },
    {
      "midi": 29,
      "hit": false,
      "t": 69040.9440000001,
      "d": 201.1981875000056,
      "v": 100
    },
    {
      "midi": 41,
      "hit": false,
      "t": 69246.42300000011,
      "d": 201.1981875000056,
      "v": 100
    },
    {
      "midi": 29,
      "hit": false,
      "t": 69451.90200000012,
      "d": 201.1981875000056,
      "v": 100
    },
    {
      "midi": 41,
      "hit": false,
      "t": 69657.38100000012,
      "d": 201.1981875000056,
      "v": 100
    },
    {
      "midi": 67,
      "hit": false,
      "t": 69862.85999999991,
      "d": 406.6771874999977,
      "v": 100
    },
    {
      "midi": 79,
      "hit": false,
      "t": 69862.85999999991,
      "d": 406.6771874999977,
      "v": 100
    },
    {
      "midi": 29,
      "hit": false,
      "t": 69862.86000000013,
      "d": 201.1981875000056,
      "v": 100
    },
    {
      "midi": 41,
      "hit": false,
      "t": 70068.33900000014,
      "d": 201.1981875000056,
      "v": 100
    },
    {
      "midi": 69,
      "hit": false,
      "t": 70273.81799999991,
      "d": 406.6771874999977,
      "v": 100
    },
    {
      "midi": 81,
      "hit": false,
      "t": 70273.81799999991,
      "d": 406.6771874999977,
      "v": 100
    },
    {
      "midi": 29,
      "hit": false,
      "t": 70273.81800000014,
      "d": 201.1981875000056,
      "v": 100
    },
    {
      "midi": 41,
      "hit": false,
      "t": 70479.29700000015,
      "d": 201.1981875000056,
      "v": 100
    },
    {
      "midi": 72,
      "hit": false,
      "t": 70684.77599999991,
      "d": 817.6351874999964,
      "v": 100
    },
    {
      "midi": 76,
      "hit": false,
      "t": 70684.77599999991,
      "d": 817.6351874999964,
      "v": 100
    },
    {
      "midi": 79,
      "hit": false,
      "t": 70684.77599999991,
      "d": 817.6351874999964,
      "v": 100
    },
    {
      "midi": 84,
      "hit": false,
      "t": 70684.77599999991,
      "d": 817.6351874999964,
      "v": 100
    },
    {
      "midi": 29,
      "hit": false,
      "t": 70684.77600000016,
      "d": 201.1981875000056,
      "v": 100
    },
    {
      "midi": 41,
      "hit": false,
      "t": 70890.25500000016,
      "d": 201.1981875000056,
      "v": 100
    },
    {
      "midi": 29,
      "hit": false,
      "t": 71095.73400000017,
      "d": 201.1981875000056,
      "v": 100
    },
    {
      "midi": 41,
      "hit": false,
      "t": 71301.21300000018,
      "d": 201.1981875000056,
      "v": 100
    },
    {
      "midi": 70,
      "hit": false,
      "t": 71506.69199999991,
      "d": 817.6351874999964,
      "v": 100
    },
    {
      "midi": 74,
      "hit": false,
      "t": 71506.69199999991,
      "d": 817.6351874999964,
      "v": 100
    },
    {
      "midi": 77,
      "hit": false,
      "t": 71506.69199999991,
      "d": 817.6351874999964,
      "v": 100
    },
    {
      "midi": 82,
      "hit": false,
      "t": 71506.69199999991,
      "d": 817.6351874999964,
      "v": 100
    },
    {
      "midi": 29,
      "hit": false,
      "t": 71506.69200000018,
      "d": 201.1981875000056,
      "v": 100
    },
    {
      "midi": 41,
      "hit": false,
      "t": 71712.17100000019,
      "d": 201.1981875000056,
      "v": 100
    },
    {
      "midi": 29,
      "hit": false,
      "t": 71917.6500000002,
      "d": 201.1981875000056,
      "v": 100
    },
    {
      "midi": 40,
      "hit": false,
      "t": 72123.1290000002,
      "d": 201.1981875000056,
      "v": 100
    },
    {
      "midi": 69,
      "hit": false,
      "t": 72328.6079999999,
      "d": 817.6351874999964,
      "v": 100
    },
    {
      "midi": 74,
      "hit": false,
      "t": 72328.6079999999,
      "d": 817.6351874999964,
      "v": 100
    },
    {
      "midi": 77,
      "hit": false,
      "t": 72328.6079999999,
      "d": 817.6351874999964,
      "v": 100
    },
    {
      "midi": 81,
      "hit": false,
      "t": 72328.6079999999,
      "d": 817.6351874999964,
      "v": 100
    },
    {
      "midi": 38,
      "hit": false,
      "t": 72328.60800000021,
      "d": 201.1981875000056,
      "v": 100
    },
    {
      "midi": 50,
      "hit": false,
      "t": 72534.08700000022,
      "d": 201.1981875000056,
      "v": 100
    },
    {
      "midi": 38,
      "hit": false,
      "t": 72739.56600000022,
      "d": 201.1981875000056,
      "v": 100
    },
    {
      "midi": 50,
      "hit": false,
      "t": 72945.04500000023,
      "d": 201.1981875000056,
      "v": 100
    },
    {
      "midi": 69,
      "hit": false,
      "t": 73150.5239999999,
      "d": 201.1981875000056,
      "v": 100
    },
    {
      "midi": 38,
      "hit": false,
      "t": 73150.52400000024,
      "d": 201.1981875000056,
      "v": 100
    },
    {
      "midi": 74,
      "hit": false,
      "t": 73356.00299999991,
      "d": 201.1981875000056,
      "v": 100
    },
    {
      "midi": 50,
      "hit": false,
      "t": 73356.00300000024,
      "d": 201.1981875000056,
      "v": 100
    },
    {
      "midi": 77,
      "hit": false,
      "t": 73561.48199999992,
      "d": 201.1981875000056,
      "v": 100
    },
    {
      "midi": 38,
      "hit": false,
      "t": 73561.48200000025,
      "d": 201.1981875000056,
      "v": 100
    },
    {
      "midi": 81,
      "hit": false,
      "t": 73766.96099999992,
      "d": 201.1981875000056,
      "v": 100
    },
    {
      "midi": 50,
      "hit": false,
      "t": 73766.96100000026,
      "d": 201.1981875000056,
      "v": 100
    },
    {
      "midi": 67,
      "hit": false,
      "t": 73972.43999999993,
      "d": 817.6351874999964,
      "v": 100
    },
    {
      "midi": 72,
      "hit": false,
      "t": 73972.43999999993,
      "d": 817.6351874999964,
      "v": 100
    },
    {
      "midi": 77,
      "hit": false,
      "t": 73972.43999999993,
      "d": 817.6351874999964,
      "v": 100
    },
    {
      "midi": 40,
      "hit": false,
      "t": 73972.44000000026,
      "d": 201.1981875000056,
      "v": 100
    },
    {
      "midi": 52,
      "hit": false,
      "t": 74177.91900000027,
      "d": 201.1981875000056,
      "v": 100
    },
    {
      "midi": 40,
      "hit": false,
      "t": 74383.39800000028,
      "d": 201.1981875000056,
      "v": 100
    },
    {
      "midi": 52,
      "hit": false,
      "t": 74588.87700000028,
      "d": 201.1981875000056,
      "v": 100
    },
    {
      "midi": 67,
      "hit": false,
      "t": 74794.35599999993,
      "d": 201.1981875000056,
      "v": 100
    },
    {
      "midi": 40,
      "hit": false,
      "t": 74794.35600000029,
      "d": 201.1981875000056,
      "v": 100
    },
    {
      "midi": 72,
      "hit": false,
      "t": 74999.83499999993,
      "d": 201.1981875000056,
      "v": 100
    },
    {
      "midi": 52,
      "hit": false,
      "t": 74999.8350000003,
      "d": 201.1981875000056,
      "v": 100
    },
    {
      "midi": 76,
      "hit": false,
      "t": 75205.31399999994,
      "d": 201.1981875000056,
      "v": 100
    },
    {
      "midi": 40,
      "hit": false,
      "t": 75205.3140000003,
      "d": 201.1981875000056,
      "v": 100
    },
    {
      "midi": 79,
      "hit": false,
      "t": 75410.79299999995,
      "d": 201.1981875000056,
      "v": 100
    },
    {
      "midi": 52,
      "hit": false,
      "t": 75410.79300000031,
      "d": 201.1981875000056,
      "v": 100
    },
    {
      "midi": 65,
      "hit": false,
      "t": 75616.27199999995,
      "d": 817.6351874999964,
      "v": 100
    },
    {
      "midi": 70,
      "hit": false,
      "t": 75616.27199999995,
      "d": 817.6351874999964,
      "v": 100
    },
    {
      "midi": 72,
      "hit": false,
      "t": 75616.27199999995,
      "d": 817.6351874999964,
      "v": 100
    },
    {
      "midi": 77,
      "hit": false,
      "t": 75616.27199999995,
      "d": 817.6351874999964,
      "v": 100
    },
    {
      "midi": 34,
      "hit": false,
      "t": 75616.27200000032,
      "d": 201.1981875000056,
      "v": 100
    },
    {
      "midi": 46,
      "hit": false,
      "t": 75821.75100000032,
      "d": 201.1981875000056,
      "v": 100
    },
    {
      "midi": 34,
      "hit": false,
      "t": 76027.23000000033,
      "d": 201.1981875000056,
      "v": 100
    },
    {
      "midi": 46,
      "hit": false,
      "t": 76232.70900000034,
      "d": 201.1981875000056,
      "v": 100
    },
    {
      "midi": 65,
      "hit": false,
      "t": 76438.18799999995,
      "d": 201.1981875000056,
      "v": 100
    },
    {
      "midi": 34,
      "hit": false,
      "t": 76438.18800000034,
      "d": 201.1981875000056,
      "v": 100
    },
    {
      "midi": 70,
      "hit": false,
      "t": 76643.66699999996,
      "d": 201.1981875000056,
      "v": 100
    },
    {
      "midi": 46,
      "hit": false,
      "t": 76643.66700000035,
      "d": 201.1981875000056,
      "v": 100
    },
    {
      "midi": 72,
      "hit": false,
      "t": 76849.14599999996,
      "d": 201.1981875000056,
      "v": 100
    },
    {
      "midi": 34,
      "hit": false,
      "t": 76849.14600000036,
      "d": 201.1981875000056,
      "v": 100
    },
    {
      "midi": 77,
      "hit": false,
      "t": 77054.62499999997,
      "d": 201.1981875000056,
      "v": 100
    },
    {
      "midi": 46,
      "hit": false,
      "t": 77054.62500000036,
      "d": 201.1981875000056,
      "v": 100
    },
    {
      "midi": 70,
      "hit": false,
      "t": 77260.10399999998,
      "d": 406.6771874999977,
      "v": 100
    },
    {
      "midi": 74,
      "hit": false,
      "t": 77260.10399999998,
      "d": 406.6771874999977,
      "v": 100
    },
    {
      "midi": 77,
      "hit": false,
      "t": 77260.10399999998,
      "d": 406.6771874999977,
      "v": 100
    },
    {
      "midi": 81,
      "hit": false,
      "t": 77260.10399999998,
      "d": 406.6771874999977,
      "v": 100
    },
    {
      "midi": 36,
      "hit": false,
      "t": 77260.10400000037,
      "d": 201.1981875000056,
      "v": 100
    },
    {
      "midi": 48,
      "hit": false,
      "t": 77465.58300000038,
      "d": 201.1981875000056,
      "v": 100
    },
    {
      "midi": 67,
      "hit": false,
      "t": 77671.06199999998,
      "d": 201.1981875000056,
      "v": 100
    },
    {
      "midi": 79,
      "hit": false,
      "t": 77671.06199999998,
      "d": 201.1981875000056,
      "v": 100
    },
    {
      "midi": 36,
      "hit": false,
      "t": 77671.06200000038,
      "d": 201.1981875000056,
      "v": 100
    },
    {
      "midi": 65,
      "hit": false,
      "t": 77876.54099999998,
      "d": 406.6771874999977,
      "v": 100
    },
    {
      "midi": 77,
      "hit": false,
      "t": 77876.54099999998,
      "d": 406.6771874999977,
      "v": 100
    },
    {
      "midi": 48,
      "hit": false,
      "t": 77876.54100000039,
      "d": 201.1981875000056,
      "v": 100
    },
    {
      "midi": 36,
      "hit": false,
      "t": 78082.0200000004,
      "d": 201.1981875000056,
      "v": 100
    },
    {
      "midi": 67,
      "hit": false,
      "t": 78287.49899999998,
      "d": 406.6771874999977,
      "v": 100
    },
    {
      "midi": 79,
      "hit": false,
      "t": 78287.49899999998,
      "d": 406.6771874999977,
      "v": 100
    },
    {
      "midi": 48,
      "hit": false,
      "t": 78287.4990000004,
      "d": 201.1981875000056,
      "v": 100
    },
    {
      "midi": 36,
      "hit": false,
      "t": 78492.97800000041,
      "d": 201.1981875000056,
      "v": 100
    },
    {
      "midi": 69,
      "hit": false,
      "t": 78698.45699999998,
      "d": 710.6148749999993,
      "v": 100
    },
    {
      "midi": 81,
      "hit": false,
      "t": 78698.45699999998,
      "d": 710.6148749999993,
      "v": 100
    },
    {
      "midi": 48,
      "hit": false,
      "t": 78698.45700000042,
      "d": 201.1981875000056,
      "v": 100
    },
    {
      "midi": 29,
      "hit": false,
      "t": 78903.93600000042,
      "d": 201.1981875000056,
      "v": 100
    },
    {
      "midi": 41,
      "hit": false,
      "t": 79109.41500000043,
      "d": 201.1981875000056,
      "v": 100
    },
    {
      "midi": 29,
      "hit": false,
      "t": 79314.89400000044,
      "d": 201.1981875000056,
      "v": 100
    },
    {
      "midi": 41,
      "hit": false,
      "t": 79520.37300000044,
      "d": 201.1981875000056,
      "v": 100
    },
    {
      "midi": 67,
      "hit": false,
      "t": 79725.85199999998,
      "d": 406.6771874999977,
      "v": 100
    },
    {
      "midi": 79,
      "hit": false,
      "t": 79725.85199999998,
      "d": 406.6771874999977,
      "v": 100
    },
    {
      "midi": 29,
      "hit": false,
      "t": 79725.85200000045,
      "d": 201.1981875000056,
      "v": 100
    },
    {
      "midi": 41,
      "hit": false,
      "t": 79931.33100000046,
      "d": 201.1981875000056,
      "v": 100
    },
    {
      "midi": 69,
      "hit": false,
      "t": 80136.80999999998,
      "d": 406.6771874999977,
      "v": 100
    },
    {
      "midi": 81,
      "hit": false,
      "t": 80136.80999999998,
      "d": 406.6771874999977,
      "v": 100
    },
    {
      "midi": 29,
      "hit": false,
      "t": 80136.81000000046,
      "d": 201.1981875000056,
      "v": 100
    },
    {
      "midi": 41,
      "hit": false,
      "t": 80342.28900000047,
      "d": 201.1981875000056,
      "v": 100
    },
    {
      "midi": 72,
      "hit": false,
      "t": 80547.76799999998,
      "d": 817.6351874999964,
      "v": 100
    },
    {
      "midi": 76,
      "hit": false,
      "t": 80547.76799999998,
      "d": 817.6351874999964,
      "v": 100
    },
    {
      "midi": 79,
      "hit": false,
      "t": 80547.76799999998,
      "d": 817.6351874999964,
      "v": 100
    },
    {
      "midi": 84,
      "hit": false,
      "t": 80547.76799999998,
      "d": 817.6351874999964,
      "v": 100
    },
    {
      "midi": 29,
      "hit": false,
      "t": 80547.76800000048,
      "d": 201.1981875000056,
      "v": 100
    },
    {
      "midi": 41,
      "hit": false,
      "t": 80753.24700000048,
      "d": 201.1981875000056,
      "v": 100
    },
    {
      "midi": 29,
      "hit": false,
      "t": 80958.72600000049,
      "d": 201.1981875000056,
      "v": 100
    },
    {
      "midi": 41,
      "hit": false,
      "t": 81164.2050000005,
      "d": 201.1981875000056,
      "v": 100
    },
    {
      "midi": 70,
      "hit": false,
      "t": 81369.68399999998,
      "d": 817.6351874999964,
      "v": 100
    },
    {
      "midi": 74,
      "hit": false,
      "t": 81369.68399999998,
      "d": 817.6351874999964,
      "v": 100
    },
    {
      "midi": 77,
      "hit": false,
      "t": 81369.68399999998,
      "d": 817.6351874999964,
      "v": 100
    },
    {
      "midi": 82,
      "hit": false,
      "t": 81369.68399999998,
      "d": 817.6351874999964,
      "v": 100
    },
    {
      "midi": 29,
      "hit": false,
      "t": 81369.6840000005,
      "d": 201.1981875000056,
      "v": 100
    },
    {
      "midi": 41,
      "hit": false,
      "t": 81575.16300000051,
      "d": 201.1981875000056,
      "v": 100
    },
    {
      "midi": 29,
      "hit": false,
      "t": 81780.64200000052,
      "d": 201.1981875000056,
      "v": 100
    },
    {
      "midi": 41,
      "hit": false,
      "t": 81986.12100000052,
      "d": 201.1981875000056,
      "v": 100
    },
    {
      "midi": 69,
      "hit": false,
      "t": 82191.59999999998,
      "d": 817.6351874999964,
      "v": 100
    },
    {
      "midi": 72,
      "hit": false,
      "t": 82191.59999999998,
      "d": 817.6351874999964,
      "v": 100
    },
    {
      "midi": 77,
      "hit": false,
      "t": 82191.59999999998,
      "d": 817.6351874999964,
      "v": 100
    },
    {
      "midi": 81,
      "hit": false,
      "t": 82191.59999999998,
      "d": 817.6351874999964,
      "v": 100
    },
    {
      "midi": 29,
      "hit": false,
      "t": 82191.60000000053,
      "d": 201.1981875000056,
      "v": 100
    },
    {
      "midi": 41,
      "hit": false,
      "t": 82397.07900000054,
      "d": 201.1981875000056,
      "v": 100
    },
    {
      "midi": 29,
      "hit": false,
      "t": 82602.55800000054,
      "d": 201.1981875000056,
      "v": 100
    },
    {
      "midi": 41,
      "hit": false,
      "t": 82808.03700000055,
      "d": 201.1981875000056,
      "v": 100
    },
    {
      "midi": 67,
      "hit": false,
      "t": 83013.51599999997,
      "d": 406.6771874999977,
      "v": 100
    },
    {
      "midi": 79,
      "hit": false,
      "t": 83013.51599999997,
      "d": 406.6771874999977,
      "v": 100
    },
    {
      "midi": 29,
      "hit": false,
      "t": 83013.51600000056,
      "d": 201.1981875000056,
      "v": 100
    },
    {
      "midi": 41,
      "hit": false,
      "t": 83218.99500000056,
      "d": 201.1981875000056,
      "v": 100
    },
    {
      "midi": 69,
      "hit": false,
      "t": 83424.47399999997,
      "d": 406.6771874999977,
      "v": 100
    },
    {
      "midi": 81,
      "hit": false,
      "t": 83424.47399999997,
      "d": 406.6771874999977,
      "v": 100
    },
    {
      "midi": 29,
      "hit": false,
      "t": 83424.47400000057,
      "d": 201.1981875000056,
      "v": 100
    },
    {
      "midi": 41,
      "hit": false,
      "t": 83629.95300000058,
      "d": 201.1981875000056,
      "v": 100
    },
    {
      "midi": 72,
      "hit": false,
      "t": 83835.43199999997,
      "d": 406.6771874999977,
      "v": 100
    },
    {
      "midi": 76,
      "hit": false,
      "t": 83835.43199999997,
      "d": 406.6771874999977,
      "v": 100
    },
    {
      "midi": 79,
      "hit": false,
      "t": 83835.43199999997,
      "d": 406.6771874999977,
      "v": 100
    },
    {
      "midi": 84,
      "hit": false,
      "t": 83835.43199999997,
      "d": 406.6771874999977,
      "v": 100
    },
    {
      "midi": 29,
      "hit": false,
      "t": 83835.43200000058,
      "d": 201.1981875000056,
      "v": 100
    },
    {
      "midi": 41,
      "hit": false,
      "t": 84040.91100000059,
      "d": 201.1981875000056,
      "v": 100
    },
    {
      "midi": 29,
      "hit": false,
      "t": 84246.3900000006,
      "d": 201.1981875000056,
      "v": 100
    },
    {
      "midi": 74,
      "hit": false,
      "t": 84451.86899999996,
      "d": 201.1981875000056,
      "v": 100
    },
    {
      "midi": 86,
      "hit": false,
      "t": 84451.86899999996,
      "d": 201.1981875000056,
      "v": 100
    },
    {
      "midi": 41,
      "hit": false,
      "t": 84451.8690000006,
      "d": 201.1981875000056,
      "v": 100
    },
    {
      "midi": 72,
      "hit": false,
      "t": 84657.34799999997,
      "d": 201.1981875000056,
      "v": 100
    },
    {
      "midi": 84,
      "hit": false,
      "t": 84657.34799999997,
      "d": 201.1981875000056,
      "v": 100
    },
    {
      "midi": 29,
      "hit": false,
      "t": 84657.34800000061,
      "d": 201.1981875000056,
      "v": 100
    },
    {
      "midi": 70,
      "hit": false,
      "t": 84862.82699999998,
      "d": 201.1981875000056,
      "v": 100
    },
    {
      "midi": 82,
      "hit": false,
      "t": 84862.82699999998,
      "d": 201.1981875000056,
      "v": 100
    },
    {
      "midi": 41,
      "hit": false,
      "t": 84862.82700000062,
      "d": 201.1981875000056,
      "v": 100
    },
    {
      "midi": 69,
      "hit": false,
      "t": 85068.30599999998,
      "d": 201.1981875000056,
      "v": 100
    },
    {
      "midi": 81,
      "hit": false,
      "t": 85068.30599999998,
      "d": 201.1981875000056,
      "v": 100
    },
    {
      "midi": 29,
      "hit": false,
      "t": 85068.30600000062,
      "d": 201.1981875000056,
      "v": 100
    },
    {
      "midi": 67,
      "hit": false,
      "t": 85273.78499999999,
      "d": 201.1981875000056,
      "v": 100
    },
    {
      "midi": 79,
      "hit": false,
      "t": 85273.78499999999,
      "d": 201.1981875000056,
      "v": 100
    },
    {
      "midi": 40,
      "hit": false,
      "t": 85273.78500000063,
      "d": 201.1981875000056,
      "v": 100
    },
    {
      "midi": 65,
      "hit": false,
      "t": 85479.264,
      "d": 406.6771874999977,
      "v": 100
    },
    {
      "midi": 69,
      "hit": false,
      "t": 85479.264,
      "d": 406.6771874999977,
      "v": 100
    },
    {
      "midi": 74,
      "hit": false,
      "t": 85479.264,
      "d": 406.6771874999977,
      "v": 100
    },
    {
      "midi": 77,
      "hit": false,
      "t": 85479.264,
      "d": 406.6771874999977,
      "v": 100
    },
    {
      "midi": 26,
      "hit": false,
      "t": 85479.26400000064,
      "d": 1639.5511874999938,
      "v": 100
    },
    {
      "midi": 38,
      "hit": false,
      "t": 85479.26400000064,
      "d": 1639.5511874999938,
      "v": 100
    },
    {
      "midi": 28,
      "hit": false,
      "t": 87123.09600000063,
      "d": 817.6351874999964,
      "v": 100
    },
    {
      "midi": 40,
      "hit": false,
      "t": 87123.09600000063,
      "d": 817.6351874999964,
      "v": 100
    },
    {
      "midi": 29,
      "hit": false,
      "t": 88355.97000000063,
      "d": 201.1981875000056,
      "v": 100
    },
    {
      "midi": 41,
      "hit": false,
      "t": 88355.97000000063,
      "d": 201.1981875000056,
      "v": 100
    },
    {
      "midi": 29,
      "hit": false,
      "t": 88561.44900000063,
      "d": 1639.5511874999938,
      "v": 100
    },
    {
      "midi": 41,
      "hit": false,
      "t": 88561.44900000063,
      "d": 1639.5511874999938,
      "v": 100
    },
    {
      "midi": 69,
      "hit": false,
      "t": 90616.23899999999,
      "d": 406.6771874999977,
      "v": 100
    },
    {
      "midi": 81,
      "hit": false,
      "t": 90616.23899999999,
      "d": 406.6771874999977,
      "v": 100
    },
    {
      "midi": 74,
      "hit": false,
      "t": 91027.19699999999,
      "d": 201.1981875000056,
      "v": 100
    },
    {
      "midi": 86,
      "hit": false,
      "t": 91027.19699999999,
      "d": 201.1981875000056,
      "v": 100
    },
    {
      "midi": 72,
      "hit": false,
      "t": 91232.67599999999,
      "d": 201.1981875000056,
      "v": 100
    },
    {
      "midi": 84,
      "hit": false,
      "t": 91232.67599999999,
      "d": 201.1981875000056,
      "v": 100
    },
    {
      "midi": 70,
      "hit": false,
      "t": 91438.155,
      "d": 201.1981875000056,
      "v": 100
    },
    {
      "midi": 82,
      "hit": false,
      "t": 91438.155,
      "d": 201.1981875000056,
      "v": 100
    },
    {
      "midi": 69,
      "hit": false,
      "t": 91643.634,
      "d": 201.1981875000056,
      "v": 100
    },
    {
      "midi": 81,
      "hit": false,
      "t": 91643.634,
      "d": 201.1981875000056,
      "v": 100
    },
    {
      "midi": 67,
      "hit": false,
      "t": 91849.11300000001,
      "d": 201.1981875000056,
      "v": 100
    },
    {
      "midi": 79,
      "hit": false,
      "t": 91849.11300000001,
      "d": 201.1981875000056,
      "v": 100
    },
    {
      "midi": 77,
      "hit": false,
      "t": 92054.59200000002,
      "d": 201.1981875000056,
      "v": 100
    },
    {
      "midi": 38,
      "hit": false,
      "t": 92054.59200000063,
      "d": 1639.5511874999938,
      "v": 100
    },
    {
      "midi": 50,
      "hit": false,
      "t": 92054.59200000063,
      "d": 1639.5511874999938,
      "v": 100
    },
    {
      "midi": 65,
      "hit": false,
      "t": 92260.07100000003,
      "d": 201.1981875000056,
      "v": 100
    },
    {
      "midi": 72,
      "hit": false,
      "t": 92465.55000000003,
      "d": 201.1981875000056,
      "v": 100
    },
    {
      "midi": 77,
      "hit": false,
      "t": 92671.02900000004,
      "d": 201.1981875000056,
      "v": 100
    },
    {
      "midi": 65,
      "hit": false,
      "t": 92876.50800000005,
      "d": 201.1981875000056,
      "v": 100
    },
    {
      "midi": 70,
      "hit": false,
      "t": 93081.98700000005,
      "d": 201.1981875000056,
      "v": 100
    },
    {
      "midi": 72,
      "hit": false,
      "t": 93287.46600000006,
      "d": 201.1981875000056,
      "v": 100
    },
    {
      "midi": 77,
      "hit": false,
      "t": 93492.94500000007,
      "d": 201.1981875000056,
      "v": 100
    },
    {
      "midi": 67,
      "hit": false,
      "t": 93698.42400000007,
      "d": 201.1981875000056,
      "v": 100
    },
    {
      "midi": 40,
      "hit": false,
      "t": 93698.42400000062,
      "d": 817.6351874999964,
      "v": 100
    },
    {
      "midi": 52,
      "hit": false,
      "t": 93698.42400000062,
      "d": 817.6351874999964,
      "v": 100
    },
    {
      "midi": 72,
      "hit": false,
      "t": 93903.90300000008,
      "d": 201.1981875000056,
      "v": 100
    },
    {
      "midi": 79,
      "hit": false,
      "t": 94109.38200000009,
      "d": 201.1981875000056,
      "v": 100
    },
    {
      "midi": 67,
      "hit": false,
      "t": 94314.86100000009,
      "d": 201.1981875000056,
      "v": 100
    },
    {
      "midi": 72,
      "hit": false,
      "t": 94520.3400000001,
      "d": 201.1981875000056,
      "v": 100
    },
    {
      "midi": 79,
      "hit": false,
      "t": 94725.8190000001,
      "d": 201.1981875000056,
      "v": 100
    },
    {
      "midi": 67,
      "hit": false,
      "t": 94931.29800000011,
      "d": 201.1981875000056,
      "v": 100
    },
    {
      "midi": 41,
      "hit": false,
      "t": 94931.29800000062,
      "d": 201.1981875000056,
      "v": 100
    },
    {
      "midi": 53,
      "hit": false,
      "t": 94931.29800000062,
      "d": 201.1981875000056,
      "v": 100
    },
    {
      "midi": 72,
      "hit": false,
      "t": 95136.77700000012,
      "d": 201.1981875000056,
      "v": 100
    },
    {
      "midi": 41,
      "hit": false,
      "t": 95136.77700000063,
      "d": 1639.5511874999938,
      "v": 100
    },
    {
      "midi": 53,
      "hit": false,
      "t": 95136.77700000063,
      "d": 1639.5511874999938,
      "v": 100
    },
    {
      "midi": 77,
      "hit": false,
      "t": 95342.25600000012,
      "d": 201.1981875000056,
      "v": 100
    },
    {
      "midi": 65,
      "hit": false,
      "t": 95547.73500000013,
      "d": 201.1981875000056,
      "v": 100
    },
    {
      "midi": 70,
      "hit": false,
      "t": 95753.21400000014,
      "d": 201.1981875000056,
      "v": 100
    },
    {
      "midi": 72,
      "hit": false,
      "t": 95958.69300000014,
      "d": 201.1981875000056,
      "v": 100
    },
    {
      "midi": 65,
      "hit": false,
      "t": 96164.17200000015,
      "d": 201.1981875000056,
      "v": 100
    },
    {
      "midi": 70,
      "hit": false,
      "t": 96369.65100000016,
      "d": 201.1981875000056,
      "v": 100
    },
    {
      "midi": 72,
      "hit": false,
      "t": 96575.13000000016,
      "d": 201.1981875000056,
      "v": 100
    },
    {
      "midi": 65,
      "hit": false,
      "t": 96780.60900000017,
      "d": 201.1981875000056,
      "v": 100
    },
    {
      "midi": 36,
      "hit": false,
      "t": 96780.60900000062,
      "d": 201.1981875000056,
      "v": 100
    },
    {
      "midi": 77,
      "hit": false,
      "t": 96986.08800000018,
      "d": 201.1981875000056,
      "v": 100
    },
    {
      "midi": 29,
      "hit": false,
      "t": 96986.08800000063,
      "d": 817.6351874999964,
      "v": 100
    },
    {
      "midi": 41,
      "hit": false,
      "t": 96986.08800000063,
      "d": 817.6351874999964,
      "v": 100
    },
    {
      "midi": 65,
      "hit": false,
      "t": 97191.56700000018,
      "d": 201.1981875000056,
      "v": 100
    },
    {
      "midi": 69,
      "hit": false,
      "t": 97397.04600000019,
      "d": 201.1981875000056,
      "v": 100
    },
    {
      "midi": 72,
      "hit": false,
      "t": 97602.5250000002,
      "d": 201.1981875000056,
      "v": 100
    },
    {
      "midi": 89,
      "hit": false,
      "t": 97808.0040000002,
      "d": 21.40406250000524,
      "v": 100
    },
    {
      "midi": 88,
      "hit": false,
      "t": 97833.68887500021,
      "d": 21.40406250000524,
      "v": 100
    },
    {
      "midi": 86,
      "hit": false,
      "t": 97859.37375000022,
      "d": 21.40406250000524,
      "v": 100
    },
    {
      "midi": 84,
      "hit": false,
      "t": 97885.05862500022,
      "d": 21.40406250000524,
      "v": 100
    },
    {
      "midi": 82,
      "hit": false,
      "t": 97910.74350000023,
      "d": 21.40406250000524,
      "v": 100
    },
    {
      "midi": 81,
      "hit": false,
      "t": 97936.42837500024,
      "d": 21.40406250000524,
      "v": 100
    },
    {
      "midi": 79,
      "hit": false,
      "t": 97962.11325000024,
      "d": 21.40406250000524,
      "v": 100
    },
    {
      "midi": 77,
      "hit": false,
      "t": 97987.79812500025,
      "d": 21.40406250000524,
      "v": 100
    },
    {
      "midi": 76,
      "hit": false,
      "t": 98013.48300000025,
      "d": 21.40406250000524,
      "v": 100
    },
    {
      "midi": 41,
      "hit": false,
      "t": 98013.48300000062,
      "d": 201.1981875000056,
      "v": 100
    },
    {
      "midi": 53,
      "hit": false,
      "t": 98013.48300000062,
      "d": 201.1981875000056,
      "v": 100
    },
    {
      "midi": 74,
      "hit": false,
      "t": 98039.16787500026,
      "d": 21.40406250000524,
      "v": 100
    },
    {
      "midi": 72,
      "hit": false,
      "t": 98064.85275000027,
      "d": 21.40406250000524,
      "v": 100
    },
    {
      "midi": 70,
      "hit": false,
      "t": 98090.53762500027,
      "d": 21.40406250000524,
      "v": 100
    },
    {
      "midi": 69,
      "hit": false,
      "t": 98116.22250000028,
      "d": 21.40406250000524,
      "v": 100
    },
    {
      "midi": 67,
      "hit": false,
      "t": 98141.90737500029,
      "d": 21.40406250000524,
      "v": 100
    },
    {
      "midi": 65,
      "hit": false,
      "t": 98167.59225000029,
      "d": 21.40406250000524,
      "v": 100
    },
    {
      "midi": 64,
      "hit": false,
      "t": 98193.2771250003,
      "d": 21.40406250000524,
      "v": 100
    },
    {
      "midi": 62,
      "hit": false,
      "t": 98218.9620000003,
      "d": 21.40406250000524,
      "v": 100
    },
    {
      "midi": 41,
      "hit": false,
      "t": 98218.96200000063,
      "d": 201.1981875000056,
      "v": 100
    },
    {
      "midi": 53,
      "hit": false,
      "t": 98218.96200000063,
      "d": 201.1981875000056,
      "v": 100
    },
    {
      "midi": 60,
      "hit": false,
      "t": 98244.64687500031,
      "d": 21.40406250000524,
      "v": 100
    },
    {
      "midi": 58,
      "hit": false,
      "t": 98270.33175000032,
      "d": 21.40406250000524,
      "v": 100
    },
    {
      "midi": 57,
      "hit": false,
      "t": 98296.01662500032,
      "d": 21.40406250000524,
      "v": 100
    },
    {
      "midi": 55,
      "hit": false,
      "t": 98321.70150000033,
      "d": 21.40406250000524,
      "v": 100
    },
    {
      "midi": 53,
      "hit": false,
      "t": 98347.38637500034,
      "d": 21.40406250000524,
      "v": 100
    },
    {
      "midi": 52,
      "hit": false,
      "t": 98373.07125000034,
      "d": 21.40406250000524,
      "v": 100
    },
    {
      "midi": 50,
      "hit": false,
      "t": 98398.75612500035,
      "d": 21.40406250000524,
      "v": 100
    },
    {
      "midi": 48,
      "hit": false,
      "t": 98424.44100000036,
      "d": 21.40406250000524,
      "v": 100
    },
    {
      "midi": 40,
      "hit": false,
      "t": 98424.44100000063,
      "d": 201.1981875000056,
      "v": 100
    },
    {
      "midi": 52,
      "hit": false,
      "t": 98424.44100000063,
      "d": 201.1981875000056,
      "v": 100
    },
    {
      "midi": 46,
      "hit": false,
      "t": 98450.12587500036,
      "d": 21.40406250000524,
      "v": 100
    },
    {
      "midi": 45,
      "hit": false,
      "t": 98475.81075000037,
      "d": 21.40406250000524,
      "v": 100
    },
    {
      "midi": 43,
      "hit": false,
      "t": 98501.49562500037,
      "d": 21.40406250000524,
      "v": 100
    },
    {
      "midi": 41,
      "hit": false,
      "t": 98527.18050000038,
      "d": 21.40406250000524,
      "v": 100
    },
    {
      "midi": 65,
      "hit": false,
      "t": 98629.92000000039,
      "d": 817.6351874999964,
      "v": 100
    },
    {
      "midi": 70,
      "hit": false,
      "t": 98629.92000000039,
      "d": 817.6351874999964,
      "v": 100
    },
    {
      "midi": 72,
      "hit": false,
      "t": 98629.92000000039,
      "d": 817.6351874999964,
      "v": 100
    },
    {
      "midi": 77,
      "hit": false,
      "t": 98629.92000000039,
      "d": 817.6351874999964,
      "v": 100
    },
    {
      "midi": 38,
      "hit": false,
      "t": 98629.92000000064,
      "d": 201.1981875000056,
      "v": 100
    },
    {
      "midi": 50,
      "hit": false,
      "t": 98835.39900000065,
      "d": 201.1981875000056,
      "v": 100
    },
    {
      "midi": 38,
      "hit": false,
      "t": 99040.87800000065,
      "d": 201.1981875000056,
      "v": 100
    },
    {
      "midi": 50,
      "hit": false,
      "t": 99246.35700000066,
      "d": 201.1981875000056,
      "v": 100
    },
    {
      "midi": 72,
      "hit": false,
      "t": 99451.83600000039,
      "d": 817.6351874999964,
      "v": 100
    },
    {
      "midi": 84,
      "hit": false,
      "t": 99451.83600000039,
      "d": 817.6351874999964,
      "v": 100
    },
    {
      "midi": 38,
      "hit": false,
      "t": 99451.83600000067,
      "d": 201.1981875000056,
      "v": 100
    },
    {
      "midi": 50,
      "hit": false,
      "t": 99657.31500000067,
      "d": 201.1981875000056,
      "v": 100
    },
    {
      "midi": 38,
      "hit": false,
      "t": 99862.79400000068,
      "d": 201.1981875000056,
      "v": 100
    },
    {
      "midi": 50,
      "hit": false,
      "t": 100068.27300000068,
      "d": 201.1981875000056,
      "v": 100
    },
    {
      "midi": 67,
      "hit": false,
      "t": 100273.75200000039,
      "d": 817.6351874999964,
      "v": 100
    },
    {
      "midi": 72,
      "hit": false,
      "t": 100273.75200000039,
      "d": 817.6351874999964,
      "v": 100
    },
    {
      "midi": 79,
      "hit": false,
      "t": 100273.75200000039,
      "d": 817.6351874999964,
      "v": 100
    },
    {
      "midi": 40,
      "hit": false,
      "t": 100273.75200000069,
      "d": 201.1981875000056,
      "v": 100
    },
    {
      "midi": 52,
      "hit": false,
      "t": 100479.2310000007,
      "d": 201.1981875000056,
      "v": 100
    },
    {
      "midi": 40,
      "hit": false,
      "t": 100684.7100000007,
      "d": 201.1981875000056,
      "v": 100
    },
    {
      "midi": 52,
      "hit": false,
      "t": 100890.18900000071,
      "d": 201.1981875000056,
      "v": 100
    },
    {
      "midi": 72,
      "hit": false,
      "t": 101095.66800000038,
      "d": 817.6351874999964,
      "v": 100
    },
    {
      "midi": 84,
      "hit": false,
      "t": 101095.66800000038,
      "d": 817.6351874999964,
      "v": 100
    },
    {
      "midi": 40,
      "hit": false,
      "t": 101095.66800000072,
      "d": 201.1981875000056,
      "v": 100
    },
    {
      "midi": 52,
      "hit": false,
      "t": 101301.14700000072,
      "d": 201.1981875000056,
      "v": 100
    },
    {
      "midi": 40,
      "hit": false,
      "t": 101506.62600000073,
      "d": 201.1981875000056,
      "v": 100
    },
    {
      "midi": 52,
      "hit": false,
      "t": 101712.10500000074,
      "d": 201.1981875000056,
      "v": 100
    },
    {
      "midi": 65,
      "hit": false,
      "t": 101917.58400000038,
      "d": 406.6771874999977,
      "v": 100
    },
    {
      "midi": 70,
      "hit": false,
      "t": 101917.58400000038,
      "d": 406.6771874999977,
      "v": 100
    },
    {
      "midi": 72,
      "hit": false,
      "t": 101917.58400000038,
      "d": 406.6771874999977,
      "v": 100
    },
    {
      "midi": 77,
      "hit": false,
      "t": 101917.58400000038,
      "d": 406.6771874999977,
      "v": 100
    },
    {
      "midi": 41,
      "hit": false,
      "t": 101917.58400000074,
      "d": 201.1981875000056,
      "v": 100
    },
    {
      "midi": 53,
      "hit": false,
      "t": 102123.06300000075,
      "d": 201.1981875000056,
      "v": 100
    },
    {
      "midi": 65,
      "hit": false,
      "t": 102328.54200000038,
      "d": 201.1981875000056,
      "v": 100
    },
    {
      "midi": 41,
      "hit": false,
      "t": 102328.54200000076,
      "d": 201.1981875000056,
      "v": 100
    },
    {
      "midi": 70,
      "hit": false,
      "t": 102534.02100000039,
      "d": 201.1981875000056,
      "v": 100
    },
    {
      "midi": 53,
      "hit": false,
      "t": 102534.02100000076,
      "d": 201.1981875000056,
      "v": 100
    },
    {
      "midi": 72,
      "hit": false,
      "t": 102739.5000000004,
      "d": 201.1981875000056,
      "v": 100
    },
    {
      "midi": 41,
      "hit": false,
      "t": 102739.50000000077,
      "d": 201.1981875000056,
      "v": 100
    },
    {
      "midi": 65,
      "hit": false,
      "t": 102944.9790000004,
      "d": 201.1981875000056,
      "v": 100
    },
    {
      "midi": 53,
      "hit": false,
      "t": 102944.97900000078,
      "d": 201.1981875000056,
      "v": 100
    },
    {
      "midi": 70,
      "hit": false,
      "t": 103150.4580000004,
      "d": 201.1981875000056,
      "v": 100
    },
    {
      "midi": 41,
      "hit": false,
      "t": 103150.45800000078,
      "d": 201.1981875000056,
      "v": 100
    },
    {
      "midi": 72,
      "hit": false,
      "t": 103355.93700000041,
      "d": 201.1981875000056,
      "v": 100
    },
    {
      "midi": 53,
      "hit": false,
      "t": 103355.93700000079,
      "d": 201.1981875000056,
      "v": 100
    },
    {
      "midi": 65,
      "hit": false,
      "t": 103561.41600000042,
      "d": 406.6771874999977,
      "v": 100
    },
    {
      "midi": 69,
      "hit": false,
      "t": 103561.41600000042,
      "d": 406.6771874999977,
      "v": 100
    },
    {
      "midi": 72,
      "hit": false,
      "t": 103561.41600000042,
      "d": 406.6771874999977,
      "v": 100
    },
    {
      "midi": 77,
      "hit": false,
      "t": 103561.41600000042,
      "d": 406.6771874999977,
      "v": 100
    },
    {
      "midi": 41,
      "hit": false,
      "t": 103561.4160000008,
      "d": 201.1981875000056,
      "v": 100
    },
    {
      "midi": 53,
      "hit": false,
      "t": 103766.8950000008,
      "d": 201.1981875000056,
      "v": 100
    },
    {
      "midi": 41,
      "hit": false,
      "t": 103972.37400000081,
      "d": 201.1981875000056,
      "v": 100
    },
    {
      "midi": 74,
      "hit": false,
      "t": 104177.85300000041,
      "d": 201.1981875000056,
      "v": 100
    },
    {
      "midi": 86,
      "hit": false,
      "t": 104177.85300000041,
      "d": 201.1981875000056,
      "v": 100
    },
    {
      "midi": 53,
      "hit": false,
      "t": 104177.85300000082,
      "d": 201.1981875000056,
      "v": 100
    },
    {
      "midi": 72,
      "hit": false,
      "t": 104383.33200000042,
      "d": 201.1981875000056,
      "v": 100
    },
    {
      "midi": 84,
      "hit": false,
      "t": 104383.33200000042,
      "d": 201.1981875000056,
      "v": 100
    },
    {
      "midi": 41,
      "hit": false,
      "t": 104383.33200000082,
      "d": 201.1981875000056,
      "v": 100
    },
    {
      "midi": 70,
      "hit": false,
      "t": 104588.81100000042,
      "d": 201.1981875000056,
      "v": 100
    },
    {
      "midi": 82,
      "hit": false,
      "t": 104588.81100000042,
      "d": 201.1981875000056,
      "v": 100
    },
    {
      "midi": 53,
      "hit": false,
      "t": 104588.81100000083,
      "d": 201.1981875000056,
      "v": 100
    },
    {
      "midi": 69,
      "hit": false,
      "t": 104794.29000000043,
      "d": 201.1981875000056,
      "v": 100
    },
    {
      "midi": 81,
      "hit": false,
      "t": 104794.29000000043,
      "d": 201.1981875000056,
      "v": 100
    },
    {
      "midi": 41,
      "hit": false,
      "t": 104794.29000000084,
      "d": 201.1981875000056,
      "v": 100
    },
    {
      "midi": 67,
      "hit": false,
      "t": 104999.76900000044,
      "d": 201.1981875000056,
      "v": 100
    },
    {
      "midi": 79,
      "hit": false,
      "t": 104999.76900000044,
      "d": 201.1981875000056,
      "v": 100
    },
    {
      "midi": 53,
      "hit": false,
      "t": 104999.76900000084,
      "d": 201.1981875000056,
      "v": 100
    },
    {
      "midi": 65,
      "hit": false,
      "t": 105205.24800000044,
      "d": 817.6351874999964,
      "v": 100
    },
    {
      "midi": 70,
      "hit": false,
      "t": 105205.24800000044,
      "d": 817.6351874999964,
      "v": 100
    },
    {
      "midi": 72,
      "hit": false,
      "t": 105205.24800000044,
      "d": 817.6351874999964,
      "v": 100
    },
    {
      "midi": 77,
      "hit": false,
      "t": 105205.24800000044,
      "d": 817.6351874999964,
      "v": 100
    },
    {
      "midi": 38,
      "hit": false,
      "t": 105205.24800000085,
      "d": 201.1981875000056,
      "v": 100
    },
    {
      "midi": 50,
      "hit": false,
      "t": 105410.72700000086,
      "d": 201.1981875000056,
      "v": 100
    },
    {
      "midi": 38,
      "hit": false,
      "t": 105616.20600000086,
      "d": 201.1981875000056,
      "v": 100
    },
    {
      "midi": 50,
      "hit": false,
      "t": 105821.68500000087,
      "d": 201.1981875000056,
      "v": 100
    },
    {
      "midi": 72,
      "hit": false,
      "t": 106027.16400000044,
      "d": 817.6351874999964,
      "v": 100
    },
    {
      "midi": 84,
      "hit": false,
      "t": 106027.16400000044,
      "d": 817.6351874999964,
      "v": 100
    },
    {
      "midi": 38,
      "hit": false,
      "t": 106027.16400000088,
      "d": 201.1981875000056,
      "v": 100
    },
    {
      "midi": 50,
      "hit": false,
      "t": 106232.64300000088,
      "d": 201.1981875000056,
      "v": 100
    },
    {
      "midi": 38,
      "hit": false,
      "t": 106438.12200000089,
      "d": 201.1981875000056,
      "v": 100
    },
    {
      "midi": 50,
      "hit": false,
      "t": 106643.6010000009,
      "d": 201.1981875000056,
      "v": 100
    },
    {
      "midi": 67,
      "hit": false,
      "t": 106849.08000000044,
      "d": 817.6351874999964,
      "v": 100
    },
    {
      "midi": 72,
      "hit": false,
      "t": 106849.08000000044,
      "d": 817.6351874999964,
      "v": 100
    },
    {
      "midi": 79,
      "hit": false,
      "t": 106849.08000000044,
      "d": 817.6351874999964,
      "v": 100
    },
    {
      "midi": 40,
      "hit": false,
      "t": 106849.0800000009,
      "d": 201.1981875000056,
      "v": 100
    },
    {
      "midi": 52,
      "hit": false,
      "t": 107054.55900000091,
      "d": 201.1981875000056,
      "v": 100
    },
    {
      "midi": 40,
      "hit": false,
      "t": 107260.03800000092,
      "d": 201.1981875000056,
      "v": 100
    },
    {
      "midi": 52,
      "hit": false,
      "t": 107465.51700000092,
      "d": 201.1981875000056,
      "v": 100
    },
    {
      "midi": 72,
      "hit": false,
      "t": 107670.99600000044,
      "d": 817.6351874999964,
      "v": 100
    },
    {
      "midi": 84,
      "hit": false,
      "t": 107670.99600000044,
      "d": 817.6351874999964,
      "v": 100
    },
    {
      "midi": 40,
      "hit": false,
      "t": 107670.99600000093,
      "d": 201.1981875000056,
      "v": 100
    },
    {
      "midi": 52,
      "hit": false,
      "t": 107876.47500000094,
      "d": 201.1981875000056,
      "v": 100
    },
    {
      "midi": 41,
      "hit": false,
      "t": 108081.95400000094,
      "d": 201.1981875000056,
      "v": 100
    },
    {
      "midi": 53,
      "hit": false,
      "t": 108287.43300000095,
      "d": 201.1981875000056,
      "v": 100
    },
    {
      "midi": 41,
      "hit": false,
      "t": 108492.91200000096,
      "d": 817.6351874999964,
      "v": 100
    },
    {
      "midi": 53,
      "hit": false,
      "t": 108492.91200000096,
      "d": 817.6351874999964,
      "v": 100
    },
    {
      "midi": 67,
      "hit": false,
      "t": 108698.39100000043,
      "d": 201.1981875000056,
      "v": 100
    },
    {
      "midi": 72,
      "hit": false,
      "t": 108903.87000000043,
      "d": 201.1981875000056,
      "v": 100
    },
    {
      "midi": 79,
      "hit": false,
      "t": 108903.87000000043,
      "d": 201.1981875000056,
      "v": 100
    },
    {
      "midi": 67,
      "hit": false,
      "t": 109109.34900000044,
      "d": 201.1981875000056,
      "v": 100
    },
    {
      "midi": 65,
      "hit": false,
      "t": 109314.82800000045,
      "d": 406.6771874999977,
      "v": 100
    },
    {
      "midi": 72,
      "hit": false,
      "t": 109314.82800000045,
      "d": 406.6771874999977,
      "v": 100
    },
    {
      "midi": 77,
      "hit": false,
      "t": 109314.82800000045,
      "d": 406.6771874999977,
      "v": 100
    },
    {
      "midi": 38,
      "hit": false,
      "t": 109314.82800000095,
      "d": 406.6771874999977,
      "v": 100
    },
    {
      "midi": 50,
      "hit": false,
      "t": 109314.82800000095,
      "d": 406.6771874999977,
      "v": 100
    },
    {
      "midi": 65,
      "hit": false,
      "t": 109725.78600000044,
      "d": 406.6771874999977,
      "v": 100
    },
    {
      "midi": 72,
      "hit": false,
      "t": 109725.78600000044,
      "d": 406.6771874999977,
      "v": 100
    },
    {
      "midi": 77,
      "hit": false,
      "t": 109725.78600000044,
      "d": 406.6771874999977,
      "v": 100
    },
    {
      "midi": 38,
      "hit": false,
      "t": 109725.78600000095,
      "d": 406.6771874999977,
      "v": 100
    },
    {
      "midi": 50,
      "hit": false,
      "t": 109725.78600000095,
      "d": 406.6771874999977,
      "v": 100
    },
    {
      "midi": 64,
      "hit": false,
      "t": 110136.74400000044,
      "d": 201.1981875000056,
      "v": 100
    },
    {
      "midi": 69,
      "hit": false,
      "t": 110136.74400000044,
      "d": 201.1981875000056,
      "v": 100
    },
    {
      "midi": 76,
      "hit": false,
      "t": 110136.74400000044,
      "d": 201.1981875000056,
      "v": 100
    },
    {
      "midi": 33,
      "hit": false,
      "t": 110136.74400000095,
      "d": 201.1981875000056,
      "v": 100
    },
    {
      "midi": 45,
      "hit": false,
      "t": 110136.74400000095,
      "d": 201.1981875000056,
      "v": 100
    },
    {
      "midi": 64,
      "hit": false,
      "t": 110342.22300000045,
      "d": 406.6771874999977,
      "v": 100
    },
    {
      "midi": 69,
      "hit": false,
      "t": 110342.22300000045,
      "d": 406.6771874999977,
      "v": 100
    },
    {
      "midi": 76,
      "hit": false,
      "t": 110342.22300000045,
      "d": 406.6771874999977,
      "v": 100
    },
    {
      "midi": 33,
      "hit": false,
      "t": 110342.22300000096,
      "d": 406.6771874999977,
      "v": 100
    },
    {
      "midi": 45,
      "hit": false,
      "t": 110342.22300000096,
      "d": 406.6771874999977,
      "v": 100
    },
    {
      "midi": 65,
      "hit": false,
      "t": 110753.18100000045,
      "d": 406.6771874999977,
      "v": 100
    },
    {
      "midi": 72,
      "hit": false,
      "t": 110753.18100000045,
      "d": 406.6771874999977,
      "v": 100
    },
    {
      "midi": 77,
      "hit": false,
      "t": 110753.18100000045,
      "d": 406.6771874999977,
      "v": 100
    },
    {
      "midi": 34,
      "hit": false,
      "t": 110753.18100000096,
      "d": 406.6771874999977,
      "v": 100
    },
    {
      "midi": 46,
      "hit": false,
      "t": 110753.18100000096,
      "d": 406.6771874999977,
      "v": 100
    },
    {
      "midi": 64,
      "hit": false,
      "t": 111164.13900000045,
      "d": 201.1981875000056,
      "v": 100
    },
    {
      "midi": 76,
      "hit": false,
      "t": 111164.13900000045,
      "d": 201.1981875000056,
      "v": 100
    },
    {
      "midi": 60,
      "hit": false,
      "t": 111369.61800000045,
      "d": 817.6351874999964,
      "v": 100
    },
    {
      "midi": 67,
      "hit": false,
      "t": 111369.61800000045,
      "d": 817.6351874999964,
      "v": 100
    },
    {
      "midi": 72,
      "hit": false,
      "t": 111369.61800000045,
      "d": 817.6351874999964,
      "v": 100
    },
    {
      "midi": 36,
      "hit": false,
      "t": 111369.61800000095,
      "d": 1228.593187499995,
      "v": 100
    },
    {
      "midi": 48,
      "hit": false,
      "t": 111369.61800000095,
      "d": 1228.593187499995,
      "v": 100
    },
    {
      "midi": 60,
      "hit": false,
      "t": 112191.53400000045,
      "d": 201.1981875000056,
      "v": 100
    },
    {
      "midi": 67,
      "hit": false,
      "t": 112397.01300000046,
      "d": 201.1981875000056,
      "v": 100
    },
    {
      "midi": 55,
      "hit": false,
      "t": 112602.49200000046,
      "d": 2872.4251875000336,
      "v": 100
    },
    {
      "midi": 58,
      "hit": false,
      "t": 112602.49200000046,
      "d": 2872.4251875000336,
      "v": 100
    },
    {
      "midi": 63,
      "hit": false,
      "t": 112602.49200000046,
      "d": 2872.4251875000336,
      "v": 100
    },
    {
      "midi": 36,
      "hit": false,
      "t": 112602.49200000094,
      "d": 2872.4251875000045,
      "v": 100
    },
    {
      "midi": 48,
      "hit": false,
      "t": 112602.49200000094,
      "d": 2872.4251875000045,
      "v": 100
    },
    {
      "midi": 67,
      "hit": false,
      "t": 113013.45000000046,
      "d": 201.1981875000056,
      "v": 100
    },
    {
      "midi": 72,
      "hit": false,
      "t": 113218.92900000047,
      "d": 201.1981875000056,
      "v": 100
    },
    {
      "midi": 79,
      "hit": false,
      "t": 113424.40800000048,
      "d": 201.1981875000056,
      "v": 100
    },
    {
      "midi": 67,
      "hit": false,
      "t": 113629.88700000048,
      "d": 201.1981875000056,
      "v": 100
    },
    {
      "midi": 72,
      "hit": false,
      "t": 113835.36600000049,
      "d": 201.1981875000056,
      "v": 100
    },
    {
      "midi": 79,
      "hit": false,
      "t": 114040.8450000005,
      "d": 1639.5511875000084,
      "v": 100
    },
    {
      "midi": 29,
      "hit": false,
      "t": 115890.15600000095,
      "d": 2461.467187500006,
      "v": 100
    },
    {
      "midi": 41,
      "hit": false,
      "t": 115890.15600000095,
      "d": 2461.467187500006,
      "v": 100
    },
    {
      "midi": 65,
      "hit": false,
      "t": 116301.11400000051,
      "d": 201.1981875000056,
      "v": 100
    },
    {
      "midi": 69,
      "hit": false,
      "t": 116301.11400000051,
      "d": 201.1981875000056,
      "v": 100
    },
    {
      "midi": 67,
      "hit": false,
      "t": 116506.59300000052,
      "d": 406.6771874999977,
      "v": 100
    },
    {
      "midi": 71,
      "hit": false,
      "t": 116506.59300000052,
      "d": 406.6771874999977,
      "v": 100
    },
    {
      "midi": 65,
      "hit": false,
      "t": 116917.55100000052,
      "d": 201.1981875000056,
      "v": 100
    },
    {
      "midi": 69,
      "hit": false,
      "t": 116917.55100000052,
      "d": 201.1981875000056,
      "v": 100
    },
    {
      "midi": 69,
      "hit": false,
      "t": 117123.03000000052,
      "d": 201.1981875000056,
      "v": 100
    },
    {
      "midi": 72,
      "hit": false,
      "t": 117123.03000000052,
      "d": 201.1981875000056,
      "v": 100
    },
    {
      "midi": 65,
      "hit": false,
      "t": 117328.50900000053,
      "d": 201.1981875000056,
      "v": 100
    },
    {
      "midi": 69,
      "hit": false,
      "t": 117328.50900000053,
      "d": 201.1981875000056,
      "v": 100
    },
    {
      "midi": 67,
      "hit": false,
      "t": 117533.98800000054,
      "d": 406.6771874999977,
      "v": 100
    },
    {
      "midi": 71,
      "hit": false,
      "t": 117533.98800000054,
      "d": 406.6771874999977,
      "v": 100
    },
    {
      "midi": 65,
      "hit": false,
      "t": 117944.94600000053,
      "d": 406.6771874999977,
      "v": 100
    },
    {
      "midi": 69,
      "hit": false,
      "t": 117944.94600000053,
      "d": 406.6771874999977,
      "v": 100
    },
    {
      "midi": 81,
      "hit": false,
      "t": 118355.90400000053,
      "d": 406.6771874999977,
      "v": 100
    },
    {
      "midi": 84,
      "hit": false,
      "t": 118355.90400000053,
      "d": 406.6771874999977,
      "v": 100
    },
    {
      "midi": 29,
      "hit": false,
      "t": 118355.90400000096,
      "d": 2461.467187500006,
      "v": 100
    },
    {
      "midi": 41,
      "hit": false,
      "t": 118355.90400000096,
      "d": 2461.467187500006,
      "v": 100
    },
    {
      "midi": 77,
      "hit": false,
      "t": 118766.86200000053,
      "d": 201.1981875000056,
      "v": 100
    },
    {
      "midi": 81,
      "hit": false,
      "t": 118766.86200000053,
      "d": 201.1981875000056,
      "v": 100
    },
    {
      "midi": 79,
      "hit": false,
      "t": 118972.34100000054,
      "d": 406.6771874999977,
      "v": 100
    },
    {
      "midi": 83,
      "hit": false,
      "t": 118972.34100000054,
      "d": 406.6771874999977,
      "v": 100
    },
    {
      "midi": 77,
      "hit": false,
      "t": 119383.29900000054,
      "d": 201.1981875000056,
      "v": 100
    },
    {
      "midi": 81,
      "hit": false,
      "t": 119383.29900000054,
      "d": 201.1981875000056,
      "v": 100
    },
    {
      "midi": 81,
      "hit": false,
      "t": 119588.77800000054,
      "d": 201.1981875000056,
      "v": 100
    },
    {
      "midi": 84,
      "hit": false,
      "t": 119588.77800000054,
      "d": 201.1981875000056,
      "v": 100
    },
    {
      "midi": 77,
      "hit": false,
      "t": 119794.25700000055,
      "d": 201.1981875000056,
      "v": 100
    },
    {
      "midi": 81,
      "hit": false,
      "t": 119794.25700000055,
      "d": 201.1981875000056,
      "v": 100
    },
    {
      "midi": 79,
      "hit": false,
      "t": 119999.73600000056,
      "d": 406.6771874999977,
      "v": 100
    },
    {
      "midi": 83,
      "hit": false,
      "t": 119999.73600000056,
      "d": 406.6771874999977,
      "v": 100
    },
    {
      "midi": 77,
      "hit": false,
      "t": 120410.69400000056,
      "d": 406.6771874999977,
      "v": 100
    },
    {
      "midi": 81,
      "hit": false,
      "t": 120410.69400000056,
      "d": 406.6771874999977,
      "v": 100
    },
    {
      "midi": 84,
      "hit": false,
      "t": 120821.65200000055,
      "d": 406.6771874999977,
      "v": 100
    },
    {
      "midi": 96,
      "hit": false,
      "t": 120821.65200000055,
      "d": 406.6771874999977,
      "v": 100
    },
    {
      "midi": 100,
      "hit": false,
      "t": 120821.65200000055,
      "d": 406.6771874999977,
      "v": 100
    },
    {
      "midi": 84,
      "hit": false,
      "t": 121232.61000000055,
      "d": 201.1981875000056,
      "v": 100
    },
    {
      "midi": 89,
      "hit": false,
      "t": 121232.61000000055,
      "d": 201.1981875000056,
      "v": 100
    },
    {
      "midi": 93,
      "hit": false,
      "t": 121232.61000000055,
      "d": 201.1981875000056,
      "v": 100
    },
    {
      "midi": 84,
      "hit": false,
      "t": 121438.08900000056,
      "d": 406.6771874999977,
      "v": 100
    },
    {
      "midi": 91,
      "hit": false,
      "t": 121438.08900000056,
      "d": 406.6771874999977,
      "v": 100
    },
    {
      "midi": 95,
      "hit": false,
      "t": 121438.08900000056,
      "d": 406.6771874999977,
      "v": 100
    },
    {
      "midi": 84,
      "hit": false,
      "t": 121849.04700000056,
      "d": 201.1981875000056,
      "v": 100
    },
    {
      "midi": 89,
      "hit": false,
      "t": 121849.04700000056,
      "d": 201.1981875000056,
      "v": 100
    },
    {
      "midi": 93,
      "hit": false,
      "t": 121849.04700000056,
      "d": 201.1981875000056,
      "v": 100
    },
    {
      "midi": 84,
      "hit": false,
      "t": 122054.52600000057,
      "d": 201.1981875000056,
      "v": 100
    },
    {
      "midi": 93,
      "hit": false,
      "t": 122054.52600000057,
      "d": 201.1981875000056,
      "v": 100
    },
    {
      "midi": 96,
      "hit": false,
      "t": 122054.52600000057,
      "d": 201.1981875000056,
      "v": 100
    },
    {
      "midi": 84,
      "hit": false,
      "t": 122260.00500000057,
      "d": 201.1981875000056,
      "v": 100
    },
    {
      "midi": 89,
      "hit": false,
      "t": 122260.00500000057,
      "d": 201.1981875000056,
      "v": 100
    },
    {
      "midi": 93,
      "hit": false,
      "t": 122260.00500000057,
      "d": 201.1981875000056,
      "v": 100
    },
    {
      "midi": 84,
      "hit": false,
      "t": 122465.48400000058,
      "d": 406.6771874999977,
      "v": 100
    },
    {
      "midi": 91,
      "hit": false,
      "t": 122465.48400000058,
      "d": 406.6771874999977,
      "v": 100
    },
    {
      "midi": 95,
      "hit": false,
      "t": 122465.48400000058,
      "d": 406.6771874999977,
      "v": 100
    },
    {
      "midi": 84,
      "hit": false,
      "t": 122876.44200000058,
      "d": 406.6771874999977,
      "v": 100
    },
    {
      "midi": 89,
      "hit": false,
      "t": 122876.44200000058,
      "d": 406.6771874999977,
      "v": 100
    },
    {
      "midi": 93,
      "hit": false,
      "t": 122876.44200000058,
      "d": 406.6771874999977,
      "v": 100
    },
    {
      "midi": 84,
      "hit": false,
      "t": 123287.40000000058,
      "d": 406.6771874999977,
      "v": 100
    },
    {
      "midi": 96,
      "hit": false,
      "t": 123287.40000000058,
      "d": 406.6771874999977,
      "v": 100
    },
    {
      "midi": 100,
      "hit": false,
      "t": 123287.40000000058,
      "d": 406.6771874999977,
      "v": 100
    },
    {
      "midi": 29,
      "hit": false,
      "t": 123287.40000000097,
      "d": 406.6771874999977,
      "v": 100
    },
    {
      "midi": 41,
      "hit": false,
      "t": 123287.40000000097,
      "d": 406.6771874999977,
      "v": 100
    },
    {
      "midi": 84,
      "hit": false,
      "t": 123698.35800000057,
      "d": 201.1981875000056,
      "v": 100
    },
    {
      "midi": 89,
      "hit": false,
      "t": 123698.35800000057,
      "d": 201.1981875000056,
      "v": 100
    },
    {
      "midi": 93,
      "hit": false,
      "t": 123698.35800000057,
      "d": 201.1981875000056,
      "v": 100
    },
    {
      "midi": 84,
      "hit": false,
      "t": 123903.83700000058,
      "d": 406.6771874999977,
      "v": 100
    },
    {
      "midi": 91,
      "hit": false,
      "t": 123903.83700000058,
      "d": 406.6771874999977,
      "v": 100
    },
    {
      "midi": 95,
      "hit": false,
      "t": 123903.83700000058,
      "d": 406.6771874999977,
      "v": 100
    },
    {
      "midi": 84,
      "hit": false,
      "t": 124314.79500000058,
      "d": 201.1981875000056,
      "v": 100
    },
    {
      "midi": 89,
      "hit": false,
      "t": 124314.79500000058,
      "d": 201.1981875000056,
      "v": 100
    },
    {
      "midi": 93,
      "hit": false,
      "t": 124314.79500000058,
      "d": 201.1981875000056,
      "v": 100
    },
    {
      "midi": 84,
      "hit": false,
      "t": 124520.27400000059,
      "d": 201.1981875000056,
      "v": 100
    },
    {
      "midi": 93,
      "hit": false,
      "t": 124520.27400000059,
      "d": 201.1981875000056,
      "v": 100
    },
    {
      "midi": 96,
      "hit": false,
      "t": 124520.27400000059,
      "d": 201.1981875000056,
      "v": 100
    },
    {
      "midi": 84,
      "hit": false,
      "t": 124725.7530000006,
      "d": 201.1981875000056,
      "v": 100
    },
    {
      "midi": 89,
      "hit": false,
      "t": 124725.7530000006,
      "d": 201.1981875000056,
      "v": 100
    },
    {
      "midi": 93,
      "hit": false,
      "t": 124725.7530000006,
      "d": 201.1981875000056,
      "v": 100
    },
    {
      "midi": 84,
      "hit": false,
      "t": 124931.2320000006,
      "d": 406.6771874999977,
      "v": 100
    },
    {
      "midi": 91,
      "hit": false,
      "t": 124931.2320000006,
      "d": 406.6771874999977,
      "v": 100
    },
    {
      "midi": 95,
      "hit": false,
      "t": 124931.2320000006,
      "d": 406.6771874999977,
      "v": 100
    },
    {
      "midi": 84,
      "hit": false,
      "t": 125342.1900000006,
      "d": 406.6771874999977,
      "v": 100
    },
    {
      "midi": 89,
      "hit": false,
      "t": 125342.1900000006,
      "d": 406.6771874999977,
      "v": 100
    },
    {
      "midi": 93,
      "hit": false,
      "t": 125342.1900000006,
      "d": 406.6771874999977,
      "v": 100
    },
    {
      "midi": 72,
      "hit": false,
      "t": 125753.1480000006,
      "d": 269.69118749999325,
      "v": 50
    },
    {
      "midi": 77,
      "hit": false,
      "t": 125753.1480000006,
      "d": 269.69118749999325,
      "v": 50
    },
    {
      "midi": 79,
      "hit": false,
      "t": 125753.1480000006,
      "d": 269.69118749999325,
      "v": 50
    },
    {
      "midi": 84,
      "hit": false,
      "t": 125753.1480000006,
      "d": 269.69118749999325,
      "v": 50
    },
    {
      "midi": 53,
      "hit": false,
      "t": 125753.14800000096,
      "d": 269.69118749999325,
      "v": 50
    },
    {
      "midi": 60,
      "hit": false,
      "t": 125753.14800000096,
      "d": 269.69118749999325,
      "v": 50
    },
    {
      "midi": 69,
      "hit": false,
      "t": 125753.14800000096,
      "d": 269.69118749999325,
      "v": 50
    }
  ]
}