{
  "jsonPath": "Pop/Afropop/Osibisa/sunshine-day.json",
  "path": "Pop\\Afropop\\Osibisa\\Sunshine Day.mid",
  "name": "Sunshine Day",
  "difficulty": "Advanced",
  "bpm": 120,
  "notes": [
    {
      "midi": 36,
      "hit": false,
      "t": 3999.9999999999995,
      "d": 216.14583333333348,
      "v": 72
    },
    {
      "midi": 48,
      "hit": false,
      "t": 3999.9999999999995,
      "d": 216.14583333333348,
      "v": 79
    },
    {
      "midi": 58,
      "hit": false,
      "t": 4494.791666666666,
      "d": 229.16666666666606,
      "v": 86
    },
    {
      "midi": 60,
      "hit": false,
      "t": 4494.791666666666,
      "d": 229.16666666666606,
      "v": 83
    },
    {
      "midi": 63,
      "hit": false,
      "t": 4499.999999999999,
      "d": 229.16666666666606,
      "v": 82
    },
    {
      "midi": 36,
      "hit": false,
      "t": 4747.395833333332,
      "d": 208.33333333333303,
      "v": 74
    },
    {
      "midi": 48,
      "hit": false,
      "t": 4755.208333333332,
      "d": 208.33333333333303,
      "v": 76
    },
    {
      "midi": 43,
      "hit": false,
      "t": 5002.604166666665,
      "d": 278.64583333333394,
      "v": 85
    },
    {
      "midi": 31,
      "hit": false,
      "t": 5005.208333333332,
      "d": 278.64583333333394,
      "v": 76
    },
    {
      "midi": 65,
      "hit": false,
      "t": 5244.791666666665,
      "d": 260.4166666666679,
      "v": 83
    },
    {
      "midi": 55,
      "hit": false,
      "t": 5247.395833333332,
      "d": 260.4166666666679,
      "v": 85
    },
    {
      "midi": 58,
      "hit": false,
      "t": 5255.208333333332,
      "d": 260.4166666666679,
      "v": 79
    },
    {
      "midi": 31,
      "hit": false,
      "t": 5494.791666666666,
      "d": 127.60416666666697,
      "v": 68
    },
    {
      "midi": 43,
      "hit": false,
      "t": 5502.604166666666,
      "d": 127.60416666666697,
      "v": 79
    },
    {
      "midi": 48,
      "hit": false,
      "t": 5744.791666666666,
      "d": 190.10416666666788,
      "v": 87
    },
    {
      "midi": 58,
      "hit": false,
      "t": 5747.395833333333,
      "d": 263.02083333333394,
      "v": 85
    },
    {
      "midi": 60,
      "hit": false,
      "t": 5750,
      "d": 263.02083333333394,
      "v": 84
    },
    {
      "midi": 63,
      "hit": false,
      "t": 5750,
      "d": 263.02083333333394,
      "v": 80
    },
    {
      "midi": 36,
      "hit": false,
      "t": 5752.604166666667,
      "d": 190.10416666666697,
      "v": 73
    },
    {
      "midi": 48,
      "hit": false,
      "t": 6252.604166666667,
      "d": 244.79166666666697,
      "v": 90
    },
    {
      "midi": 36,
      "hit": false,
      "t": 6252.604166666667,
      "d": 333.33333333333394,
      "v": 75
    },
    {
      "midi": 58,
      "hit": false,
      "t": 6494.791666666667,
      "d": 229.16666666666697,
      "v": 86
    },
    {
      "midi": 60,
      "hit": false,
      "t": 6494.791666666667,
      "d": 229.16666666666697,
      "v": 85
    },
    {
      "midi": 63,
      "hit": false,
      "t": 6505.208333333334,
      "d": 229.16666666666697,
      "v": 84
    },
    {
      "midi": 48,
      "hit": false,
      "t": 6744.791666666668,
      "d": 208.33333333333303,
      "v": 90
    },
    {
      "midi": 36,
      "hit": false,
      "t": 6750.000000000001,
      "d": 208.33333333333303,
      "v": 77
    },
    {
      "midi": 58,
      "hit": false,
      "t": 6997.395833333334,
      "d": 104.16666666666697,
      "v": 83
    },
    {
      "midi": 65,
      "hit": false,
      "t": 6997.395833333334,
      "d": 104.16666666666697,
      "v": 92
    },
    {
      "midi": 55,
      "hit": false,
      "t": 7000.000000000001,
      "d": 104.16666666666697,
      "v": 86
    },
    {
      "midi": 65,
      "hit": false,
      "t": 7130.208333333335,
      "d": 229.16666666666697,
      "v": 84
    },
    {
      "midi": 31,
      "hit": false,
      "t": 7250.000000000002,
      "d": 208.33333333333303,
      "v": 76
    },
    {
      "midi": 43,
      "hit": false,
      "t": 7255.208333333335,
      "d": 208.33333333333303,
      "v": 87
    },
    {
      "midi": 55,
      "hit": false,
      "t": 7497.395833333335,
      "d": 354.16666666666697,
      "v": 85
    },
    {
      "midi": 58,
      "hit": false,
      "t": 7497.395833333335,
      "d": 354.16666666666697,
      "v": 82
    },
    {
      "midi": 65,
      "hit": false,
      "t": 7502.604166666668,
      "d": 354.16666666666697,
      "v": 89
    },
    {
      "midi": 31,
      "hit": false,
      "t": 7744.791666666668,
      "d": 208.33333333333394,
      "v": 78
    },
    {
      "midi": 43,
      "hit": false,
      "t": 7755.208333333335,
      "d": 208.33333333333394,
      "v": 86
    },
    {
      "midi": 36,
      "hit": false,
      "t": 8000.000000000002,
      "d": 216.14583333333394,
      "v": 72
    },
    {
      "midi": 48,
      "hit": false,
      "t": 8000.000000000002,
      "d": 216.14583333333394,
      "v": 84
    },
    {
      "midi": 58,
      "hit": false,
      "t": 8502.60416666667,
      "d": 229.16666666666606,
      "v": 82
    },
    {
      "midi": 60,
      "hit": false,
      "t": 8505.208333333336,
      "d": 229.16666666666606,
      "v": 87
    },
    {
      "midi": 63,
      "hit": false,
      "t": 8505.208333333336,
      "d": 229.16666666666606,
      "v": 80
    },
    {
      "midi": 48,
      "hit": false,
      "t": 8747.395833333336,
      "d": 208.33333333333394,
      "v": 85
    },
    {
      "midi": 36,
      "hit": false,
      "t": 8752.60416666667,
      "d": 208.33333333333394,
      "v": 69
    },
    {
      "midi": 43,
      "hit": false,
      "t": 8994.79166666667,
      "d": 278.64583333333394,
      "v": 81
    },
    {
      "midi": 31,
      "hit": false,
      "t": 9005.208333333336,
      "d": 278.64583333333394,
      "v": 74
    },
    {
      "midi": 55,
      "hit": false,
      "t": 9247.395833333336,
      "d": 260.4166666666679,
      "v": 77
    },
    {
      "midi": 58,
      "hit": false,
      "t": 9252.60416666667,
      "d": 260.4166666666679,
      "v": 76
    },
    {
      "midi": 65,
      "hit": false,
      "t": 9252.60416666667,
      "d": 260.4166666666679,
      "v": 84
    },
    {
      "midi": 31,
      "hit": false,
      "t": 9500.000000000004,
      "d": 127.60416666666788,
      "v": 71
    },
    {
      "midi": 43,
      "hit": false,
      "t": 9505.208333333338,
      "d": 127.60416666666788,
      "v": 84
    },
    {
      "midi": 48,
      "hit": false,
      "t": 9744.791666666672,
      "d": 190.10416666666606,
      "v": 83
    },
    {
      "midi": 63,
      "hit": false,
      "t": 9750.000000000005,
      "d": 263.0208333333321,
      "v": 85
    },
    {
      "midi": 36,
      "hit": false,
      "t": 9752.604166666672,
      "d": 190.10416666666606,
      "v": 71
    },
    {
      "midi": 60,
      "hit": false,
      "t": 9752.604166666672,
      "d": 263.0208333333321,
      "v": 76
    },
    {
      "midi": 58,
      "hit": false,
      "t": 9755.208333333338,
      "d": 263.0208333333321,
      "v": 83
    },
    {
      "midi": 48,
      "hit": false,
      "t": 10250.000000000004,
      "d": 244.79166666666606,
      "v": 89
    },
    {
      "midi": 36,
      "hit": false,
      "t": 10250.000000000004,
      "d": 333.3333333333321,
      "v": 78
    },
    {
      "midi": 60,
      "hit": false,
      "t": 10500.000000000004,
      "d": 229.16666666666606,
      "v": 86
    },
    {
      "midi": 58,
      "hit": false,
      "t": 10502.60416666667,
      "d": 229.16666666666606,
      "v": 88
    },
    {
      "midi": 63,
      "hit": false,
      "t": 10502.60416666667,
      "d": 229.16666666666606,
      "v": 81
    },
    {
      "midi": 36,
      "hit": false,
      "t": 10744.79166666667,
      "d": 208.33333333333212,
      "v": 73
    },
    {
      "midi": 48,
      "hit": false,
      "t": 10747.395833333336,
      "d": 208.33333333333212,
      "v": 83
    },
    {
      "midi": 65,
      "hit": false,
      "t": 10997.395833333334,
      "d": 104.16666666666606,
      "v": 90
    },
    {
      "midi": 58,
      "hit": false,
      "t": 11002.604166666668,
      "d": 104.16666666666606,
      "v": 82
    },
    {
      "midi": 55,
      "hit": false,
      "t": 11005.208333333334,
      "d": 104.16666666666606,
      "v": 83
    },
    {
      "midi": 65,
      "hit": false,
      "t": 11130.208333333334,
      "d": 229.16666666666606,
      "v": 89
    },
    {
      "midi": 43,
      "hit": false,
      "t": 11244.791666666668,
      "d": 208.33333333333212,
      "v": 90
    },
    {
      "midi": 31,
      "hit": false,
      "t": 11255.208333333334,
      "d": 208.33333333333212,
      "v": 73
    },
    {
      "midi": 55,
      "hit": false,
      "t": 11494.791666666666,
      "d": 354.1666666666679,
      "v": 85
    },
    {
      "midi": 65,
      "hit": false,
      "t": 11500,
      "d": 354.1666666666679,
      "v": 91
    },
    {
      "midi": 58,
      "hit": false,
      "t": 11505.208333333334,
      "d": 354.1666666666679,
      "v": 79
    },
    {
      "midi": 31,
      "hit": false,
      "t": 11752.604166666668,
      "d": 208.33333333333394,
      "v": 73
    },
    {
      "midi": 43,
      "hit": false,
      "t": 11752.604166666668,
      "d": 208.33333333333394,
      "v": 82
    },
    {
      "midi": 36,
      "hit": false,
      "t": 11994.791666666668,
      "d": 216.14583333333212,
      "v": 73
    },
    {
      "midi": 48,
      "hit": false,
      "t": 12005.208333333334,
      "d": 216.14583333333212,
      "v": 83
    },
    {
      "midi": 58,
      "hit": false,
      "t": 12497.395833333332,
      "d": 229.16666666666606,
      "v": 80
    },
    {
      "midi": 63,
      "hit": false,
      "t": 12499.999999999998,
      "d": 229.16666666666606,
      "v": 80
    },
    {
      "midi": 60,
      "hit": false,
      "t": 12502.604166666664,
      "d": 229.16666666666606,
      "v": 89
    },
    {
      "midi": 36,
      "hit": false,
      "t": 12747.39583333333,
      "d": 208.33333333333394,
      "v": 65
    },
    {
      "midi": 48,
      "hit": false,
      "t": 12747.39583333333,
      "d": 208.33333333333394,
      "v": 76
    },
    {
      "midi": 43,
      "hit": false,
      "t": 12994.791666666664,
      "d": 278.6458333333321,
      "v": 88
    },
    {
      "midi": 31,
      "hit": false,
      "t": 13002.604166666664,
      "d": 278.6458333333321,
      "v": 80
    },
    {
      "midi": 58,
      "hit": false,
      "t": 13247.39583333333,
      "d": 260.41666666666424,
      "v": 85
    },
    {
      "midi": 65,
      "hit": false,
      "t": 13247.39583333333,
      "d": 260.41666666666424,
      "v": 79
    },
    {
      "midi": 55,
      "hit": false,
      "t": 13255.20833333333,
      "d": 260.41666666666424,
      "v": 78
    },
    {
      "midi": 31,
      "hit": false,
      "t": 13494.791666666662,
      "d": 127.60416666666606,
      "v": 65
    },
    {
      "midi": 43,
      "hit": false,
      "t": 13505.208333333328,
      "d": 127.60416666666606,
      "v": 84
    },
    {
      "midi": 60,
      "hit": false,
      "t": 13747.395833333328,
      "d": 263.0208333333321,
      "v": 85
    },
    {
      "midi": 48,
      "hit": false,
      "t": 13752.604166666662,
      "d": 190.10416666666606,
      "v": 90
    },
    {
      "midi": 63,
      "hit": false,
      "t": 13752.604166666662,
      "d": 263.0208333333321,
      "v": 78
    },
    {
      "midi": 36,
      "hit": false,
      "t": 13755.208333333328,
      "d": 190.10416666666606,
      "v": 73
    },
    {
      "midi": 58,
      "hit": false,
      "t": 13755.208333333328,
      "d": 263.0208333333321,
      "v": 84
    },
    {
      "midi": 48,
      "hit": false,
      "t": 14249.999999999995,
      "d": 244.79166666666606,
      "v": 89
    },
    {
      "midi": 36,
      "hit": false,
      "t": 14252.60416666666,
      "d": 333.33333333333394,
      "v": 73
    },
    {
      "midi": 58,
      "hit": false,
      "t": 14494.79166666666,
      "d": 229.16666666666788,
      "v": 85
    },
    {
      "midi": 60,
      "hit": false,
      "t": 14502.60416666666,
      "d": 229.16666666666788,
      "v": 83
    },
    {
      "midi": 63,
      "hit": false,
      "t": 14502.60416666666,
      "d": 229.16666666666788,
      "v": 85
    },
    {
      "midi": 48,
      "hit": false,
      "t": 14747.395833333328,
      "d": 208.33333333333212,
      "v": 82
    },
    {
      "midi": 36,
      "hit": false,
      "t": 14749.999999999995,
      "d": 208.33333333333212,
      "v": 72
    },
    {
      "midi": 65,
      "hit": false,
      "t": 14994.79166666666,
      "d": 104.16666666666606,
      "v": 92
    },
    {
      "midi": 58,
      "hit": false,
      "t": 14997.395833333327,
      "d": 104.16666666666606,
      "v": 86
    },
    {
      "midi": 55,
      "hit": false,
      "t": 14999.999999999993,
      "d": 104.16666666666606,
      "v": 83
    },
    {
      "midi": 65,
      "hit": false,
      "t": 15119.791666666659,
      "d": 229.16666666666606,
      "v": 86
    },
    {
      "midi": 31,
      "hit": false,
      "t": 15247.395833333325,
      "d": 208.33333333333394,
      "v": 71
    },
    {
      "midi": 43,
      "hit": false,
      "t": 15247.395833333325,
      "d": 208.33333333333394,
      "v": 82
    },
    {
      "midi": 58,
      "hit": false,
      "t": 15497.395833333325,
      "d": 354.16666666666606,
      "v": 81
    },
    {
      "midi": 65,
      "hit": false,
      "t": 15502.604166666659,
      "d": 354.16666666666606,
      "v": 91
    },
    {
      "midi": 55,
      "hit": false,
      "t": 15505.208333333325,
      "d": 354.16666666666606,
      "v": 84
    },
    {
      "midi": 43,
      "hit": false,
      "t": 15744.791666666659,
      "d": 208.33333333333212,
      "v": 87
    },
    {
      "midi": 31,
      "hit": false,
      "t": 15755.208333333325,
      "d": 208.33333333333212,
      "v": 72
    },
    {
      "midi": 36,
      "hit": false,
      "t": 15994.791666666657,
      "d": 216.14583333333212,
      "v": 77
    },
    {
      "midi": 48,
      "hit": false,
      "t": 15997.395833333323,
      "d": 216.14583333333212,
      "v": 88
    },
    {
      "midi": 58,
      "hit": false,
      "t": 16494.791666666657,
      "d": 229.16666666666788,
      "v": 87
    },
    {
      "midi": 60,
      "hit": false,
      "t": 16494.791666666657,
      "d": 229.16666666666788,
      "v": 83
    },
    {
      "midi": 63,
      "hit": false,
      "t": 16494.791666666657,
      "d": 229.16666666666788,
      "v": 85
    },
    {
      "midi": 36,
      "hit": false,
      "t": 16752.604166666657,
      "d": 208.33333333333212,
      "v": 66
    },
    {
      "midi": 48,
      "hit": false,
      "t": 16752.604166666657,
      "d": 208.33333333333212,
      "v": 78
    },
    {
      "midi": 43,
      "hit": false,
      "t": 16997.39583333332,
      "d": 278.6458333333321,
      "v": 84
    },
    {
      "midi": 31,
      "hit": false,
      "t": 17005.20833333332,
      "d": 278.6458333333321,
      "v": 81
    },
    {
      "midi": 55,
      "hit": false,
      "t": 17249.99999999999,
      "d": 260.41666666666424,
      "v": 81
    },
    {
      "midi": 58,
      "hit": false,
      "t": 17249.99999999999,
      "d": 260.41666666666424,
      "v": 84
    },
    {
      "midi": 65,
      "hit": false,
      "t": 17255.20833333332,
      "d": 260.41666666666424,
      "v": 78
    },
    {
      "midi": 31,
      "hit": false,
      "t": 17502.604166666653,
      "d": 127.60416666666424,
      "v": 70
    },
    {
      "midi": 43,
      "hit": false,
      "t": 17505.20833333332,
      "d": 127.60416666666424,
      "v": 84
    },
    {
      "midi": 36,
      "hit": false,
      "t": 17744.791666666653,
      "d": 190.10416666666424,
      "v": 75
    },
    {
      "midi": 58,
      "hit": false,
      "t": 17749.999999999985,
      "d": 263.0208333333321,
      "v": 83
    },
    {
      "midi": 63,
      "hit": false,
      "t": 17749.999999999985,
      "d": 263.0208333333321,
      "v": 84
    },
    {
      "midi": 48,
      "hit": false,
      "t": 17755.208333333318,
      "d": 190.10416666666788,
      "v": 88
    },
    {
      "midi": 60,
      "hit": false,
      "t": 17755.208333333318,
      "d": 263.0208333333321,
      "v": 80
    },
    {
      "midi": 48,
      "hit": false,
      "t": 18244.79166666665,
      "d": 244.79166666666788,
      "v": 82
    },
    {
      "midi": 36,
      "hit": false,
      "t": 18244.79166666665,
      "d": 333.33333333333576,
      "v": 78
    },
    {
      "midi": 58,
      "hit": false,
      "t": 18494.79166666665,
      "d": 229.16666666666788,
      "v": 87
    },
    {
      "midi": 63,
      "hit": false,
      "t": 18502.60416666665,
      "d": 229.16666666666788,
      "v": 88
    },
    {
      "midi": 60,
      "hit": false,
      "t": 18505.208333333318,
      "d": 229.16666666666788,
      "v": 89
    },
    {
      "midi": 36,
      "hit": false,
      "t": 18752.604166666653,
      "d": 208.33333333333576,
      "v": 71
    },
    {
      "midi": 48,
      "hit": false,
      "t": 18755.20833333332,
      "d": 208.33333333333576,
      "v": 84
    },
    {
      "midi": 55,
      "hit": false,
      "t": 18994.791666666657,
      "d": 104.16666666666424,
      "v": 79
    },
    {
      "midi": 58,
      "hit": false,
      "t": 18999.99999999999,
      "d": 104.16666666666424,
      "v": 83
    },
    {
      "midi": 65,
      "hit": false,
      "t": 19005.20833333332,
      "d": 104.16666666666424,
      "v": 89
    },
    {
      "midi": 65,
      "hit": false,
      "t": 19119.791666666653,
      "d": 229.16666666666788,
      "v": 83
    },
    {
      "midi": 31,
      "hit": false,
      "t": 19244.791666666653,
      "d": 208.33333333333576,
      "v": 72
    },
    {
      "midi": 43,
      "hit": false,
      "t": 19255.20833333332,
      "d": 208.33333333333576,
      "v": 88
    },
    {
      "midi": 65,
      "hit": false,
      "t": 19497.395833333325,
      "d": 354.16666666666424,
      "v": 94
    },
    {
      "midi": 58,
      "hit": false,
      "t": 19502.604166666657,
      "d": 354.16666666666424,
      "v": 79
    },
    {
      "midi": 55,
      "hit": false,
      "t": 19505.208333333325,
      "d": 354.16666666666424,
      "v": 84
    },
    {
      "midi": 43,
      "hit": false,
      "t": 19747.395833333325,
      "d": 208.33333333333212,
      "v": 82
    },
    {
      "midi": 31,
      "hit": false,
      "t": 19752.604166666657,
      "d": 208.33333333333212,
      "v": 80
    },
    {
      "midi": 48,
      "hit": false,
      "t": 19997.39583333332,
      "d": 216.14583333333212,
      "v": 81
    },
    {
      "midi": 36,
      "hit": false,
      "t": 20002.604166666653,
      "d": 216.14583333333212,
      "v": 71
    },
    {
      "midi": 58,
      "hit": false,
      "t": 20494.791666666653,
      "d": 229.16666666666424,
      "v": 80
    },
    {
      "midi": 60,
      "hit": false,
      "t": 20499.999999999985,
      "d": 229.16666666666424,
      "v": 89
    },
    {
      "midi": 63,
      "hit": false,
      "t": 20505.208333333318,
      "d": 229.16666666666424,
      "v": 84
    },
    {
      "midi": 48,
      "hit": false,
      "t": 20744.79166666665,
      "d": 208.33333333333576,
      "v": 82
    },
    {
      "midi": 36,
      "hit": false,
      "t": 20747.395833333318,
      "d": 208.33333333333576,
      "v": 71
    },
    {
      "midi": 43,
      "hit": false,
      "t": 20997.39583333332,
      "d": 278.6458333333321,
      "v": 87
    },
    {
      "midi": 31,
      "hit": false,
      "t": 20999.99999999999,
      "d": 278.6458333333321,
      "v": 75
    },
    {
      "midi": 58,
      "hit": false,
      "t": 21247.39583333332,
      "d": 260.41666666666424,
      "v": 84
    },
    {
      "midi": 55,
      "hit": false,
      "t": 21255.20833333332,
      "d": 260.41666666666424,
      "v": 80
    },
    {
      "midi": 65,
      "hit": false,
      "t": 21255.20833333332,
      "d": 260.41666666666424,
      "v": 85
    },
    {
      "midi": 31,
      "hit": false,
      "t": 21494.791666666653,
      "d": 127.60416666666424,
      "v": 70
    },
    {
      "midi": 43,
      "hit": false,
      "t": 21499.999999999985,
      "d": 127.60416666666424,
      "v": 77
    },
    {
      "midi": 58,
      "hit": false,
      "t": 21747.395833333318,
      "d": 263.0208333333321,
      "v": 82
    },
    {
      "midi": 63,
      "hit": false,
      "t": 21747.395833333318,
      "d": 263.0208333333321,
      "v": 85
    },
    {
      "midi": 36,
      "hit": false,
      "t": 21749.999999999985,
      "d": 190.10416666666424,
      "v": 77
    },
    {
      "midi": 48,
      "hit": false,
      "t": 21749.999999999985,
      "d": 190.10416666666424,
      "v": 88
    },
    {
      "midi": 60,
      "hit": false,
      "t": 21755.208333333318,
      "d": 263.0208333333321,
      "v": 84
    },
    {
      "midi": 48,
      "hit": false,
      "t": 22252.60416666665,
      "d": 244.79166666666788,
      "v": 85
    },
    {
      "midi": 36,
      "hit": false,
      "t": 22255.208333333318,
      "d": 333.3333333333321,
      "v": 80
    },
    {
      "midi": 60,
      "hit": false,
      "t": 22494.79166666665,
      "d": 229.16666666666788,
      "v": 88
    },
    {
      "midi": 63,
      "hit": false,
      "t": 22497.395833333318,
      "d": 229.16666666666788,
      "v": 89
    },
    {
      "midi": 58,
      "hit": false,
      "t": 22502.60416666665,
      "d": 229.16666666666788,
      "v": 85
    },
    {
      "midi": 36,
      "hit": false,
      "t": 22755.208333333318,
      "d": 208.33333333333212,
      "v": 75
    },
    {
      "midi": 48,
      "hit": false,
      "t": 22755.208333333318,
      "d": 208.33333333333212,
      "v": 86
    },
    {
      "midi": 65,
      "hit": false,
      "t": 22994.79166666665,
      "d": 104.16666666666788,
      "v": 96
    },
    {
      "midi": 55,
      "hit": false,
      "t": 22997.395833333318,
      "d": 104.16666666666788,
      "v": 80
    },
    {
      "midi": 58,
      "hit": false,
      "t": 23002.60416666665,
      "d": 104.16666666666788,
      "v": 83
    },
    {
      "midi": 65,
      "hit": false,
      "t": 23127.60416666665,
      "d": 229.16666666666788,
      "v": 83
    },
    {
      "midi": 31,
      "hit": false,
      "t": 23247.395833333318,
      "d": 208.33333333333212,
      "v": 73
    },
    {
      "midi": 43,
      "hit": false,
      "t": 23249.999999999985,
      "d": 208.33333333333212,
      "v": 83
    },
    {
      "midi": 55,
      "hit": false,
      "t": 23494.79166666665,
      "d": 354.1666666666679,
      "v": 87
    },
    {
      "midi": 65,
      "hit": false,
      "t": 23494.79166666665,
      "d": 354.1666666666679,
      "v": 90
    },
    {
      "midi": 58,
      "hit": false,
      "t": 23505.208333333318,
      "d": 354.1666666666679,
      "v": 80
    },
    {
      "midi": 31,
      "hit": false,
      "t": 23747.395833333318,
      "d": 208.33333333333576,
      "v": 78
    },
    {
      "midi": 43,
      "hit": false,
      "t": 23755.208333333318,
      "d": 208.33333333333576,
      "v": 89
    },
    {
      "midi": 36,
      "hit": false,
      "t": 23999.999999999985,
      "d": 213.54166666666788,
      "v": 68
    },
    {
      "midi": 48,
      "hit": false,
      "t": 23999.999999999985,
      "d": 216.14583333333576,
      "v": 77
    },
    {
      "midi": 72,
      "hit": false,
      "t": 24497.39583333332,
      "d": 229.16666666666788,
      "v": 92
    },
    {
      "midi": 63,
      "hit": false,
      "t": 24505.20833333332,
      "d": 229.16666666666788,
      "v": 78
    },
    {
      "midi": 70,
      "hit": false,
      "t": 24505.20833333332,
      "d": 229.16666666666788,
      "v": 76
    },
    {
      "midi": 36,
      "hit": false,
      "t": 24744.791666666657,
      "d": 208.33333333333576,
      "v": 66
    },
    {
      "midi": 48,
      "hit": false,
      "t": 24747.395833333325,
      "d": 208.33333333333576,
      "v": 79
    },
    {
      "midi": 43,
      "hit": false,
      "t": 25002.60416666666,
      "d": 278.6458333333321,
      "v": 83
    },
    {
      "midi": 31,
      "hit": false,
      "t": 25005.20833333333,
      "d": 278.6458333333321,
      "v": 74
    },
    {
      "midi": 70,
      "hit": false,
      "t": 25244.79166666666,
      "d": 260.4166666666679,
      "v": 71
    },
    {
      "midi": 77,
      "hit": false,
      "t": 25244.79166666666,
      "d": 260.4166666666679,
      "v": 78
    },
    {
      "midi": 67,
      "hit": false,
      "t": 25249.999999999993,
      "d": 260.4166666666679,
      "v": 79
    },
    {
      "midi": 31,
      "hit": false,
      "t": 25494.79166666666,
      "d": 127.60416666666788,
      "v": 64
    },
    {
      "midi": 43,
      "hit": false,
      "t": 25502.60416666666,
      "d": 127.60416666666788,
      "v": 70
    },
    {
      "midi": 77,
      "hit": false,
      "t": 25619.79166666666,
      "d": 263.02083333333576,
      "v": 77
    },
    {
      "midi": 67,
      "hit": false,
      "t": 25630.20833333333,
      "d": 263.02083333333576,
      "v": 80
    },
    {
      "midi": 70,
      "hit": false,
      "t": 25630.20833333333,
      "d": 263.02083333333576,
      "v": 75
    },
    {
      "midi": 48,
      "hit": false,
      "t": 25752.60416666666,
      "d": 190.10416666667152,
      "v": 85
    },
    {
      "midi": 36,
      "hit": false,
      "t": 25755.20833333333,
      "d": 190.10416666667152,
      "v": 66
    },
    {
      "midi": 36,
      "hit": false,
      "t": 26244.791666666668,
      "d": 333.33333333333576,
      "v": 66
    },
    {
      "midi": 48,
      "hit": false,
      "t": 26252.604166666668,
      "d": 244.79166666666788,
      "v": 83
    },
    {
      "midi": 58,
      "hit": false,
      "t": 26494.791666666668,
      "d": 229.16666666666788,
      "v": 76
    },
    {
      "midi": 63,
      "hit": false,
      "t": 26497.395833333336,
      "d": 229.16666666666788,
      "v": 80
    },
    {
      "midi": 60,
      "hit": false,
      "t": 26500.000000000004,
      "d": 229.16666666666788,
      "v": 78
    },
    {
      "midi": 48,
      "hit": false,
      "t": 26752.60416666667,
      "d": 208.33333333333576,
      "v": 85
    },
    {
      "midi": 36,
      "hit": false,
      "t": 26755.20833333334,
      "d": 208.33333333333576,
      "v": 74
    },
    {
      "midi": 72,
      "hit": false,
      "t": 26895.83333333334,
      "d": 104.16666666666788,
      "v": 98
    },
    {
      "midi": 60,
      "hit": false,
      "t": 27000.000000000007,
      "d": 104.16666666666788,
      "v": 81
    },
    {
      "midi": 79,
      "hit": false,
      "t": 27002.604166666675,
      "d": 229.16666666666424,
      "v": 93
    },
    {
      "midi": 63,
      "hit": false,
      "t": 27005.208333333343,
      "d": 104.16666666666424,
      "v": 79
    },
    {
      "midi": 43,
      "hit": false,
      "t": 27244.79166666667,
      "d": 208.33333333333212,
      "v": 79
    },
    {
      "midi": 31,
      "hit": false,
      "t": 27255.20833333334,
      "d": 208.33333333333212,
      "v": 70
    },
    {
      "midi": 77,
      "hit": false,
      "t": 27393.22916666667,
      "d": 229.16666666666424,
      "v": 103
    },
    {
      "midi": 55,
      "hit": false,
      "t": 27500.000000000004,
      "d": 354.1666666666679,
      "v": 79
    },
    {
      "midi": 75,
      "hit": false,
      "t": 27645.833333333336,
      "d": 104.16666666666788,
      "v": 90
    },
    {
      "midi": 43,
      "hit": false,
      "t": 27744.791666666668,
      "d": 208.33333333333576,
      "v": 81
    },
    {
      "midi": 60,
      "hit": false,
      "t": 27747.395833333336,
      "d": 104.16666666666788,
      "v": 75
    },
    {
      "midi": 31,
      "hit": false,
      "t": 27747.395833333336,
      "d": 208.33333333333576,
      "v": 69
    },
    {
      "midi": 63,
      "hit": false,
      "t": 27750.000000000004,
      "d": 104.16666666666788,
      "v": 82
    },
    {
      "midi": 77,
      "hit": false,
      "t": 27755.208333333336,
      "d": 229.16666666666788,
      "v": 96
    },
    {
      "midi": 29,
      "hit": false,
      "t": 27997.395833333336,
      "d": 216.14583333333212,
      "v": 68
    },
    {
      "midi": 41,
      "hit": false,
      "t": 28002.604166666668,
      "d": 216.14583333333212,
      "v": 81
    },
    {
      "midi": 68,
      "hit": false,
      "t": 28497.395833333332,
      "d": 229.16666666666788,
      "v": 78
    },
    {
      "midi": 72,
      "hit": false,
      "t": 28505.208333333332,
      "d": 229.16666666666788,
      "v": 79
    },
    {
      "midi": 77,
      "hit": false,
      "t": 28505.208333333332,
      "d": 229.16666666666788,
      "v": 76
    },
    {
      "midi": 36,
      "hit": false,
      "t": 28750,
      "d": 208.33333333333576,
      "v": 67
    },
    {
      "midi": 48,
      "hit": false,
      "t": 28752.604166666668,
      "d": 208.33333333333576,
      "v": 78
    },
    {
      "midi": 43,
      "hit": false,
      "t": 28997.395833333336,
      "d": 278.6458333333321,
      "v": 79
    },
    {
      "midi": 31,
      "hit": false,
      "t": 29002.604166666668,
      "d": 278.6458333333321,
      "v": 75
    },
    {
      "midi": 65,
      "hit": false,
      "t": 29244.791666666668,
      "d": 260.41666666666424,
      "v": 73
    },
    {
      "midi": 55,
      "hit": false,
      "t": 29255.208333333336,
      "d": 260.41666666666424,
      "v": 75
    },
    {
      "midi": 58,
      "hit": false,
      "t": 29255.208333333336,
      "d": 260.41666666666424,
      "v": 80
    },
    {
      "midi": 31,
      "hit": false,
      "t": 29505.208333333332,
      "d": 127.60416666666788,
      "v": 68
    },
    {
      "midi": 43,
      "hit": false,
      "t": 29505.208333333332,
      "d": 127.60416666666788,
      "v": 78
    },
    {
      "midi": 36,
      "hit": false,
      "t": 29747.395833333332,
      "d": 190.10416666666424,
      "v": 75
    },
    {
      "midi": 48,
      "hit": false,
      "t": 29752.604166666664,
      "d": 190.10416666666424,
      "v": 81
    },
    {
      "midi": 70,
      "hit": false,
      "t": 29994.79166666666,
      "d": 263.0208333333321,
      "v": 74
    },
    {
      "midi": 75,
      "hit": false,
      "t": 29999.999999999993,
      "d": 263.0208333333321,
      "v": 78
    },
    {
      "midi": 72,
      "hit": false,
      "t": 30002.60416666666,
      "d": 263.0208333333321,
      "v": 76
    },
    {
      "midi": 48,
      "hit": false,
      "t": 30249.999999999993,
      "d": 244.79166666666788,
      "v": 85
    },
    {
      "midi": 36,
      "hit": false,
      "t": 30252.60416666666,
      "d": 333.3333333333321,
      "v": 70
    },
    {
      "midi": 60,
      "hit": false,
      "t": 30494.79166666666,
      "d": 229.16666666666424,
      "v": 79
    },
    {
      "midi": 63,
      "hit": false,
      "t": 30497.39583333333,
      "d": 229.16666666666424,
      "v": 84
    },
    {
      "midi": 58,
      "hit": false,
      "t": 30502.60416666666,
      "d": 229.16666666666424,
      "v": 80
    },
    {
      "midi": 36,
      "hit": false,
      "t": 30747.395833333325,
      "d": 208.33333333333212,
      "v": 70
    },
    {
      "midi": 48,
      "hit": false,
      "t": 30755.208333333325,
      "d": 208.33333333333212,
      "v": 76
    },
    {
      "midi": 58,
      "hit": false,
      "t": 30997.395833333325,
      "d": 104.16666666666788,
      "v": 78
    },
    {
      "midi": 65,
      "hit": false,
      "t": 30997.395833333325,
      "d": 104.16666666666788,
      "v": 85
    },
    {
      "midi": 55,
      "hit": false,
      "t": 30999.999999999993,
      "d": 104.16666666666788,
      "v": 78
    },
    {
      "midi": 65,
      "hit": false,
      "t": 31124.999999999993,
      "d": 229.16666666666424,
      "v": 76
    },
    {
      "midi": 31,
      "hit": false,
      "t": 31249.999999999993,
      "d": 208.33333333333212,
      "v": 72
    },
    {
      "midi": 43,
      "hit": false,
      "t": 31255.208333333325,
      "d": 208.33333333333212,
      "v": 77
    },
    {
      "midi": 58,
      "hit": false,
      "t": 31499.99999999999,
      "d": 354.1666666666679,
      "v": 82
    },
    {
      "midi": 55,
      "hit": false,
      "t": 31502.604166666657,
      "d": 354.1666666666679,
      "v": 82
    },
    {
      "midi": 65,
      "hit": false,
      "t": 31502.604166666657,
      "d": 354.1666666666679,
      "v": 92
    },
    {
      "midi": 43,
      "hit": false,
      "t": 31749.99999999999,
      "d": 208.33333333333576,
      "v": 79
    },
    {
      "midi": 31,
      "hit": false,
      "t": 31752.604166666657,
      "d": 208.33333333333576,
      "v": 72
    },
    {
      "midi": 36,
      "hit": false,
      "t": 31997.395833333325,
      "d": 216.14583333333212,
      "v": 71
    },
    {
      "midi": 48,
      "hit": false,
      "t": 32005.208333333325,
      "d": 216.14583333333212,
      "v": 81
    },
    {
      "midi": 60,
      "hit": false,
      "t": 32494.791666666657,
      "d": 229.16666666666788,
      "v": 76
    },
    {
      "midi": 58,
      "hit": false,
      "t": 32497.395833333325,
      "d": 229.16666666666788,
      "v": 78
    },
    {
      "midi": 63,
      "hit": false,
      "t": 32499.999999999993,
      "d": 229.16666666666788,
      "v": 84
    },
    {
      "midi": 48,
      "hit": false,
      "t": 32752.60416666666,
      "d": 208.33333333333212,
      "v": 76
    },
    {
      "midi": 36,
      "hit": false,
      "t": 32755.20833333333,
      "d": 208.33333333332848,
      "v": 62
    },
    {
      "midi": 31,
      "hit": false,
      "t": 33002.60416666666,
      "d": 278.64583333333576,
      "v": 74
    },
    {
      "midi": 43,
      "hit": false,
      "t": 33002.60416666666,
      "d": 278.64583333333576,
      "v": 85
    },
    {
      "midi": 65,
      "hit": false,
      "t": 33244.79166666666,
      "d": 260.41666666666424,
      "v": 72
    },
    {
      "midi": 58,
      "hit": false,
      "t": 33247.39583333332,
      "d": 260.41666666666424,
      "v": 72
    },
    {
      "midi": 55,
      "hit": false,
      "t": 33252.60416666666,
      "d": 260.41666666666424,
      "v": 78
    },
    {
      "midi": 43,
      "hit": false,
      "t": 33494.79166666666,
      "d": 127.60416666666424,
      "v": 70
    },
    {
      "midi": 31,
      "hit": false,
      "t": 33502.60416666666,
      "d": 127.60416666666424,
      "v": 64
    },
    {
      "midi": 36,
      "hit": false,
      "t": 33744.79166666666,
      "d": 190.10416666666424,
      "v": 72
    },
    {
      "midi": 63,
      "hit": false,
      "t": 33744.79166666666,
      "d": 263.0208333333285,
      "v": 79
    },
    {
      "midi": 48,
      "hit": false,
      "t": 33747.39583333332,
      "d": 190.10416666666424,
      "v": 82
    },
    {
      "midi": 58,
      "hit": false,
      "t": 33749.999999999985,
      "d": 263.02083333333576,
      "v": 74
    },
    {
      "midi": 60,
      "hit": false,
      "t": 33755.20833333332,
      "d": 263.02083333333576,
      "v": 71
    },
    {
      "midi": 36,
      "hit": false,
      "t": 34244.79166666666,
      "d": 333.3333333333285,
      "v": 73
    },
    {
      "midi": 48,
      "hit": false,
      "t": 34249.99999999999,
      "d": 244.79166666666424,
      "v": 84
    },
    {
      "midi": 60,
      "hit": false,
      "t": 34497.39583333332,
      "d": 229.16666666666424,
      "v": 75
    },
    {
      "midi": 63,
      "hit": false,
      "t": 34499.999999999985,
      "d": 229.16666666666424,
      "v": 76
    },
    {
      "midi": 58,
      "hit": false,
      "t": 34502.60416666665,
      "d": 229.16666666666424,
      "v": 78
    },
    {
      "midi": 36,
      "hit": false,
      "t": 34744.79166666665,
      "d": 208.33333333333576,
      "v": 70
    },
    {
      "midi": 48,
      "hit": false,
      "t": 34749.999999999985,
      "d": 208.33333333333576,
      "v": 78
    },
    {
      "midi": 65,
      "hit": false,
      "t": 34994.79166666666,
      "d": 104.16666666666424,
      "v": 88
    },
    {
      "midi": 58,
      "hit": false,
      "t": 34997.39583333332,
      "d": 104.16666666666424,
      "v": 75
    },
    {
      "midi": 55,
      "hit": false,
      "t": 35002.60416666666,
      "d": 104.16666666666424,
      "v": 76
    },
    {
      "midi": 65,
      "hit": false,
      "t": 35122.39583333332,
      "d": 229.16666666667152,
      "v": 77
    },
    {
      "midi": 31,
      "hit": false,
      "t": 35252.60416666666,
      "d": 208.33333333333576,
      "v": 73
    },
    {
      "midi": 43,
      "hit": false,
      "t": 35252.60416666666,
      "d": 208.33333333333576,
      "v": 76
    },
    {
      "midi": 55,
      "hit": false,
      "t": 35494.79166666666,
      "d": 354.16666666666424,
      "v": 74
    },
    {
      "midi": 58,
      "hit": false,
      "t": 35502.60416666666,
      "d": 354.16666666666424,
      "v": 80
    },
    {
      "midi": 65,
      "hit": false,
      "t": 35502.60416666666,
      "d": 354.16666666666424,
      "v": 86
    },
    {
      "midi": 31,
      "hit": false,
      "t": 35749.99999999999,
      "d": 208.33333333332848,
      "v": 71
    },
    {
      "midi": 43,
      "hit": false,
      "t": 35752.60416666666,
      "d": 208.33333333332848,
      "v": 85
    },
    {
      "midi": 29,
      "hit": false,
      "t": 35999.999999999985,
      "d": 216.14583333332848,
      "v": 71
    },
    {
      "midi": 41,
      "hit": false,
      "t": 36002.60416666665,
      "d": 216.14583333332848,
      "v": 83
    },
    {
      "midi": 77,
      "hit": false,
      "t": 36494.79166666664,
      "d": 229.16666666666424,
      "v": 82
    },
    {
      "midi": 68,
      "hit": false,
      "t": 36505.20833333331,
      "d": 229.16666666666424,
      "v": 79
    },
    {
      "midi": 72,
      "hit": false,
      "t": 36505.20833333331,
      "d": 229.16666666666424,
      "v": 76
    },
    {
      "midi": 36,
      "hit": false,
      "t": 36752.604166666635,
      "d": 208.33333333332848,
      "v": 61
    },
    {
      "midi": 48,
      "hit": false,
      "t": 36755.2083333333,
      "d": 208.33333333332848,
      "v": 79
    },
    {
      "midi": 43,
      "hit": false,
      "t": 36997.39583333329,
      "d": 278.64583333333576,
      "v": 82
    },
    {
      "midi": 31,
      "hit": false,
      "t": 37002.60416666663,
      "d": 278.64583333333576,
      "v": 68
    },
    {
      "midi": 58,
      "hit": false,
      "t": 37252.60416666663,
      "d": 260.4166666666715,
      "v": 77
    },
    {
      "midi": 55,
      "hit": false,
      "t": 37255.20833333329,
      "d": 260.4166666666715,
      "v": 72
    },
    {
      "midi": 65,
      "hit": false,
      "t": 37255.20833333329,
      "d": 260.4166666666715,
      "v": 72
    },
    {
      "midi": 31,
      "hit": false,
      "t": 37497.3958333333,
      "d": 127.60416666666424,
      "v": 66
    },
    {
      "midi": 43,
      "hit": false,
      "t": 37497.3958333333,
      "d": 127.60416666666424,
      "v": 78
    },
    {
      "midi": 36,
      "hit": false,
      "t": 37755.2083333333,
      "d": 190.10416666666424,
      "v": 75
    },
    {
      "midi": 48,
      "hit": false,
      "t": 37755.2083333333,
      "d": 190.10416666666424,
      "v": 77
    },
    {
      "midi": 36,
      "hit": false,
      "t": 38244.79166666663,
      "d": 333.3333333333285,
      "v": 71
    },
    {
      "midi": 48,
      "hit": false,
      "t": 38249.99999999996,
      "d": 244.79166666666424,
      "v": 81
    },
    {
      "midi": 58,
      "hit": false,
      "t": 38494.79166666663,
      "d": 229.16666666666424,
      "v": 76
    },
    {
      "midi": 63,
      "hit": false,
      "t": 38494.79166666663,
      "d": 229.16666666666424,
      "v": 75
    },
    {
      "midi": 60,
      "hit": false,
      "t": 38497.39583333329,
      "d": 229.16666666666424,
      "v": 82
    },
    {
      "midi": 36,
      "hit": false,
      "t": 38749.999999999956,
      "d": 208.33333333332848,
      "v": 67
    },
    {
      "midi": 48,
      "hit": false,
      "t": 38752.60416666662,
      "d": 208.33333333332848,
      "v": 78
    },
    {
      "midi": 65,
      "hit": false,
      "t": 38994.79166666661,
      "d": 104.16666666666424,
      "v": 85
    },
    {
      "midi": 55,
      "hit": false,
      "t": 39002.60416666661,
      "d": 104.16666666666424,
      "v": 78
    },
    {
      "midi": 58,
      "hit": false,
      "t": 39005.20833333328,
      "d": 104.16666666666424,
      "v": 78
    },
    {
      "midi": 65,
      "hit": false,
      "t": 39124.99999999994,
      "d": 229.16666666667152,
      "v": 78
    },
    {
      "midi": 31,
      "hit": false,
      "t": 39247.39583333328,
      "d": 208.33333333333576,
      "v": 74
    },
    {
      "midi": 43,
      "hit": false,
      "t": 39255.20833333328,
      "d": 208.33333333333576,
      "v": 79
    },
    {
      "midi": 55,
      "hit": false,
      "t": 39499.99999999995,
      "d": 354.16666666666424,
      "v": 81
    },
    {
      "midi": 58,
      "hit": false,
      "t": 39502.60416666661,
      "d": 354.16666666666424,
      "v": 81
    },
    {
      "midi": 65,
      "hit": false,
      "t": 39505.20833333328,
      "d": 354.16666666666424,
      "v": 87
    },
    {
      "midi": 43,
      "hit": false,
      "t": 39752.60416666661,
      "d": 208.33333333332848,
      "v": 82
    },
    {
      "midi": 31,
      "hit": false,
      "t": 39755.20833333328,
      "d": 208.33333333332848,
      "v": 75
    },
    {
      "midi": 48,
      "hit": false,
      "t": 39994.791666666606,
      "d": 216.14583333333576,
      "v": 78
    },
    {
      "midi": 36,
      "hit": false,
      "t": 40002.604166666606,
      "d": 216.14583333333576,
      "v": 66
    },
    {
      "midi": 63,
      "hit": false,
      "t": 40494.791666666606,
      "d": 229.16666666667152,
      "v": 76
    },
    {
      "midi": 72,
      "hit": false,
      "t": 40494.791666666606,
      "d": 229.16666666667152,
      "v": 89
    },
    {
      "midi": 70,
      "hit": false,
      "t": 40499.99999999994,
      "d": 229.16666666667152,
      "v": 75
    },
    {
      "midi": 36,
      "hit": false,
      "t": 40747.39583333328,
      "d": 208.33333333333576,
      "v": 66
    },
    {
      "midi": 48,
      "hit": false,
      "t": 40747.39583333328,
      "d": 208.33333333333576,
      "v": 79
    },
    {
      "midi": 31,
      "hit": false,
      "t": 40994.79166666661,
      "d": 278.6458333333285,
      "v": 66
    },
    {
      "midi": 43,
      "hit": false,
      "t": 40997.39583333328,
      "d": 278.6458333333285,
      "v": 80
    },
    {
      "midi": 77,
      "hit": false,
      "t": 41244.79166666661,
      "d": 260.41666666665697,
      "v": 72
    },
    {
      "midi": 67,
      "hit": false,
      "t": 41255.20833333328,
      "d": 260.41666666665697,
      "v": 79
    },
    {
      "midi": 70,
      "hit": false,
      "t": 41255.20833333328,
      "d": 260.41666666665697,
      "v": 71
    },
    {
      "midi": 31,
      "hit": false,
      "t": 41497.39583333327,
      "d": 127.60416666666424,
      "v": 60
    },
    {
      "midi": 43,
      "hit": false,
      "t": 41505.20833333327,
      "d": 127.60416666666424,
      "v": 77
    },
    {
      "midi": 70,
      "hit": false,
      "t": 41619.7916666666,
      "d": 263.02083333333576,
      "v": 81
    },
    {
      "midi": 67,
      "hit": false,
      "t": 41627.6041666666,
      "d": 263.02083333333576,
      "v": 73
    },
    {
      "midi": 77,
      "hit": false,
      "t": 41627.6041666666,
      "d": 263.02083333333576,
      "v": 79
    },
    {
      "midi": 36,
      "hit": false,
      "t": 41747.39583333327,
      "d": 190.10416666666424,
      "v": 67
    },
    {
      "midi": 48,
      "hit": false,
      "t": 41749.999999999935,
      "d": 190.10416666666424,
      "v": 77
    },
    {
      "midi": 48,
      "hit": false,
      "t": 42244.7916666666,
      "d": 244.79166666666424,
      "v": 77
    },
    {
      "midi": 36,
      "hit": false,
      "t": 42252.6041666666,
      "d": 333.3333333333285,
      "v": 69
    },
    {
      "midi": 58,
      "hit": false,
      "t": 42497.39583333326,
      "d": 229.16666666666424,
      "v": 78
    },
    {
      "midi": 63,
      "hit": false,
      "t": 42497.39583333326,
      "d": 229.16666666666424,
      "v": 81
    },
    {
      "midi": 60,
      "hit": false,
      "t": 42505.20833333326,
      "d": 229.16666666666424,
      "v": 79
    },
    {
      "midi": 36,
      "hit": false,
      "t": 42752.60416666659,
      "d": 208.33333333332848,
      "v": 70
    },
    {
      "midi": 48,
      "hit": false,
      "t": 42752.60416666659,
      "d": 208.33333333332848,
      "v": 86
    },
    {
      "midi": 72,
      "hit": false,
      "t": 42895.833333333256,
      "d": 104.16666666666424,
      "v": 103
    },
    {
      "midi": 63,
      "hit": false,
      "t": 42994.791666666584,
      "d": 104.16666666667152,
      "v": 80
    },
    {
      "midi": 79,
      "hit": false,
      "t": 42994.791666666584,
      "d": 229.16666666667152,
      "v": 92
    },
    {
      "midi": 60,
      "hit": false,
      "t": 42999.99999999992,
      "d": 104.16666666667152,
      "v": 75
    },
    {
      "midi": 43,
      "hit": false,
      "t": 43244.79166666659,
      "d": 208.33333333333576,
      "v": 81
    },
    {
      "midi": 31,
      "hit": false,
      "t": 43252.60416666659,
      "d": 208.33333333333576,
      "v": 70
    },
    {
      "midi": 77,
      "hit": false,
      "t": 43398.43749999993,
      "d": 229.16666666666424,
      "v": 95
    },
    {
      "midi": 55,
      "hit": false,
      "t": 43499.99999999993,
      "d": 354.16666666666424,
      "v": 79
    },
    {
      "midi": 75,
      "hit": false,
      "t": 43648.43749999993,
      "d": 104.16666666666424,
      "v": 93
    },
    {
      "midi": 60,
      "hit": false,
      "t": 43744.79166666659,
      "d": 104.16666666666424,
      "v": 74
    },
    {
      "midi": 43,
      "hit": false,
      "t": 43744.79166666659,
      "d": 208.33333333332848,
      "v": 77
    },
    {
      "midi": 77,
      "hit": false,
      "t": 43744.79166666659,
      "d": 229.16666666665697,
      "v": 94
    },
    {
      "midi": 31,
      "hit": false,
      "t": 43747.395833333256,
      "d": 208.33333333332848,
      "v": 70
    },
    {
      "midi": 63,
      "hit": false,
      "t": 43752.60416666659,
      "d": 104.16666666666424,
      "v": 81
    },
    {
      "midi": 29,
      "hit": false,
      "t": 43994.791666666584,
      "d": 216.14583333333576,
      "v": 68
    },
    {
      "midi": 41,
      "hit": false,
      "t": 44002.604166666584,
      "d": 216.14583333333576,
      "v": 78
    },
    {
      "midi": 72,
      "hit": false,
      "t": 44494.791666666584,
      "d": 229.16666666666424,
      "v": 83
    },
    {
      "midi": 77,
      "hit": false,
      "t": 44502.604166666584,
      "d": 229.16666666666424,
      "v": 80
    },
    {
      "midi": 68,
      "hit": false,
      "t": 44505.20833333325,
      "d": 229.16666666666424,
      "v": 84
    },
    {
      "midi": 48,
      "hit": false,
      "t": 44744.79166666658,
      "d": 208.33333333332848,
      "v": 77
    },
    {
      "midi": 36,
      "hit": false,
      "t": 44755.20833333324,
      "d": 208.33333333332848,
      "v": 62
    },
    {
      "midi": 31,
      "hit": false,
      "t": 44994.79166666657,
      "d": 278.6458333333285,
      "v": 69
    },
    {
      "midi": 43,
      "hit": false,
      "t": 45002.60416666657,
      "d": 278.6458333333285,
      "v": 79
    },
    {
      "midi": 55,
      "hit": false,
      "t": 45244.79166666657,
      "d": 260.41666666666424,
      "v": 76
    },
    {
      "midi": 58,
      "hit": false,
      "t": 45247.395833333234,
      "d": 260.41666666666424,
      "v": 75
    },
    {
      "midi": 65,
      "hit": false,
      "t": 45249.9999999999,
      "d": 260.41666666666424,
      "v": 76
    },
    {
      "midi": 31,
      "hit": false,
      "t": 45494.79166666656,
      "d": 127.60416666666424,
      "v": 62
    },
    {
      "midi": 43,
      "hit": false,
      "t": 45499.9999999999,
      "d": 127.60416666666424,
      "v": 79
    },
    {
      "midi": 48,
      "hit": false,
      "t": 45744.79166666656,
      "d": 190.10416666666424,
      "v": 82
    },
    {
      "midi": 36,
      "hit": false,
      "t": 45752.60416666656,
      "d": 190.10416666666424,
      "v": 75
    },
    {
      "midi": 70,
      "hit": false,
      "t": 45999.99999999989,
      "d": 263.02083333333576,
      "v": 75
    },
    {
      "midi": 75,
      "hit": false,
      "t": 45999.99999999989,
      "d": 263.02083333333576,
      "v": 76
    },
    {
      "midi": 72,
      "hit": false,
      "t": 46005.20833333323,
      "d": 263.02083333333576,
      "v": 75
    },
    {
      "midi": 48,
      "hit": false,
      "t": 46247.39583333323,
      "d": 244.79166666667152,
      "v": 84
    },
    {
      "midi": 36,
      "hit": false,
      "t": 46255.20833333323,
      "d": 333.33333333333576,
      "v": 72
    },
    {
      "midi": 60,
      "hit": false,
      "t": 46494.79166666656,
      "d": 229.16666666666424,
      "v": 78
    },
    {
      "midi": 63,
      "hit": false,
      "t": 46494.79166666656,
      "d": 229.16666666666424,
      "v": 77
    },
    {
      "midi": 58,
      "hit": false,
      "t": 46502.60416666656,
      "d": 229.16666666666424,
      "v": 77
    },
    {
      "midi": 48,
      "hit": false,
      "t": 46744.79166666656,
      "d": 208.33333333332848,
      "v": 81
    },
    {
      "midi": 36,
      "hit": false,
      "t": 46747.39583333323,
      "d": 208.33333333332848,
      "v": 67
    },
    {
      "midi": 58,
      "hit": false,
      "t": 46994.791666666555,
      "d": 104.16666666667152,
      "v": 80
    },
    {
      "midi": 65,
      "hit": false,
      "t": 46999.99999999989,
      "d": 104.16666666667152,
      "v": 86
    },
    {
      "midi": 55,
      "hit": false,
      "t": 47005.20833333323,
      "d": 104.16666666667152,
      "v": 82
    },
    {
      "midi": 65,
      "hit": false,
      "t": 47130.208333333234,
      "d": 229.16666666666424,
      "v": 83
    },
    {
      "midi": 31,
      "hit": false,
      "t": 47255.208333333234,
      "d": 208.33333333332848,
      "v": 75
    },
    {
      "midi": 43,
      "hit": false,
      "t": 47255.208333333234,
      "d": 208.33333333332848,
      "v": 85
    },
    {
      "midi": 55,
      "hit": false,
      "t": 47494.79166666656,
      "d": 354.1666666666715,
      "v": 78
    },
    {
      "midi": 58,
      "hit": false,
      "t": 47497.39583333323,
      "d": 354.1666666666715,
      "v": 75
    },
    {
      "midi": 65,
      "hit": false,
      "t": 47497.39583333323,
      "d": 354.1666666666715,
      "v": 91
    },
    {
      "midi": 31,
      "hit": false,
      "t": 47744.79166666656,
      "d": 208.33333333333576,
      "v": 71
    },
    {
      "midi": 43,
      "hit": false,
      "t": 47749.9999999999,
      "d": 208.33333333333576,
      "v": 83
    },
    {
      "midi": 67,
      "hit": false,
      "t": 47999.9999999999,
      "d": 1427.0833333333358,
      "v": 97
    },
    {
      "midi": 36,
      "hit": false,
      "t": 48002.60416666656,
      "d": 927.0833333333358,
      "v": 80
    },
    {
      "midi": 58,
      "hit": false,
      "t": 48002.60416666656,
      "d": 1427.0833333333358,
      "v": 84
    },
    {
      "midi": 63,
      "hit": false,
      "t": 48002.60416666656,
      "d": 1427.0833333333358,
      "v": 83
    },
    {
      "midi": 36,
      "hit": false,
      "t": 48994.79166666656,
      "d": 427.08333333333576,
      "v": 79
    },
    {
      "midi": 66,
      "hit": false,
      "t": 49440.10416666656,
      "d": 52.08333333333576,
      "v": 100
    },
    {
      "midi": 65,
      "hit": false,
      "t": 49497.395833333234,
      "d": 239.58333333333576,
      "v": 93
    },
    {
      "midi": 36,
      "hit": false,
      "t": 49502.60416666657,
      "d": 427.08333333333576,
      "v": 76
    },
    {
      "midi": 63,
      "hit": false,
      "t": 49755.208333333234,
      "d": 138.02083333333576,
      "v": 98
    },
    {
      "midi": 57,
      "hit": false,
      "t": 49994.79166666657,
      "d": 1851.5625000000073,
      "v": 80
    },
    {
      "midi": 60,
      "hit": false,
      "t": 49999.999999999905,
      "d": 1851.5625000000073,
      "v": 83
    },
    {
      "midi": 41,
      "hit": false,
      "t": 50002.60416666657,
      "d": 927.0833333333358,
      "v": 79
    },
    {
      "midi": 65,
      "hit": false,
      "t": 50002.60416666657,
      "d": 1851.5625000000073,
      "v": 99
    },
    {
      "midi": 36,
      "hit": false,
      "t": 51005.20833333324,
      "d": 427.08333333333576,
      "v": 84
    },
    {
      "midi": 36,
      "hit": false,
      "t": 51497.39583333324,
      "d": 427.08333333333576,
      "v": 81
    },
    {
      "midi": 60,
      "hit": false,
      "t": 51994.79166666658,
      "d": 434.89583333333576,
      "v": 76
    },
    {
      "midi": 65,
      "hit": false,
      "t": 51994.79166666658,
      "d": 434.89583333333576,
      "v": 102
    },
    {
      "midi": 56,
      "hit": false,
      "t": 51999.99999999991,
      "d": 434.89583333333576,
      "v": 81
    },
    {
      "midi": 44,
      "hit": false,
      "t": 52002.60416666658,
      "d": 434.89583333333576,
      "v": 76
    },
    {
      "midi": 56,
      "hit": false,
      "t": 52494.79166666658,
      "d": 419.2708333333285,
      "v": 81
    },
    {
      "midi": 65,
      "hit": false,
      "t": 52497.39583333324,
      "d": 419.2708333333285,
      "v": 93
    },
    {
      "midi": 60,
      "hit": false,
      "t": 52499.999999999905,
      "d": 419.2708333333285,
      "v": 74
    },
    {
      "midi": 44,
      "hit": false,
      "t": 52505.20833333324,
      "d": 419.2708333333285,
      "v": 79
    },
    {
      "midi": 58,
      "hit": false,
      "t": 52997.395833333234,
      "d": 111.97916666666424,
      "v": 79
    },
    {
      "midi": 62,
      "hit": false,
      "t": 52997.395833333234,
      "d": 111.97916666666424,
      "v": 73
    },
    {
      "midi": 34,
      "hit": false,
      "t": 53002.60416666657,
      "d": 111.97916666666424,
      "v": 75
    },
    {
      "midi": 67,
      "hit": false,
      "t": 53005.208333333234,
      "d": 111.97916666666424,
      "v": 97
    },
    {
      "midi": 34,
      "hit": false,
      "t": 53247.395833333234,
      "d": 375,
      "v": 77
    },
    {
      "midi": 58,
      "hit": false,
      "t": 53247.395833333234,
      "d": 375,
      "v": 77
    },
    {
      "midi": 67,
      "hit": false,
      "t": 53247.395833333234,
      "d": 375,
      "v": 100
    },
    {
      "midi": 62,
      "hit": false,
      "t": 53255.208333333234,
      "d": 375,
      "v": 83
    },
    {
      "midi": 58,
      "hit": false,
      "t": 53744.79166666657,
      "d": 1955.729166666657,
      "v": 80
    },
    {
      "midi": 67,
      "hit": false,
      "t": 53744.79166666657,
      "d": 2080.729166666657,
      "v": 104
    },
    {
      "midi": 63,
      "hit": false,
      "t": 53747.395833333234,
      "d": 2080.729166666657,
      "v": 80
    },
    {
      "midi": 36,
      "hit": false,
      "t": 53997.395833333234,
      "d": 927.0833333333285,
      "v": 83
    },
    {
      "midi": 48,
      "hit": false,
      "t": 54749.9999999999,
      "d": 427.0833333333285,
      "v": 76
    },
    {
      "midi": 48,
      "hit": false,
      "t": 55249.99999999989,
      "d": 427.08333333333576,
      "v": 80
    },
    {
      "midi": 60,
      "hit": false,
      "t": 55752.60416666656,
      "d": 114.58333333332848,
      "v": 94
    },
    {
      "midi": 60,
      "hit": false,
      "t": 55880.20833333323,
      "d": 114.58333333333576,
      "v": 93
    },
    {
      "midi": 67,
      "hit": false,
      "t": 55994.79166666656,
      "d": 1427.0833333333358,
      "v": 102
    },
    {
      "midi": 63,
      "hit": false,
      "t": 55997.39583333323,
      "d": 1427.0833333333358,
      "v": 78
    },
    {
      "midi": 58,
      "hit": false,
      "t": 55999.99999999989,
      "d": 1427.0833333333358,
      "v": 78
    },
    {
      "midi": 36,
      "hit": false,
      "t": 56005.20833333323,
      "d": 927.0833333333358,
      "v": 85
    },
    {
      "midi": 36,
      "hit": false,
      "t": 56994.79166666656,
      "d": 427.08333333333576,
      "v": 77
    },
    {
      "midi": 66,
      "hit": false,
      "t": 57442.70833333323,
      "d": 52.08333333333576,
      "v": 101
    },
    {
      "midi": 65,
      "hit": false,
      "t": 57497.39583333323,
      "d": 239.58333333333576,
      "v": 95
    },
    {
      "midi": 36,
      "hit": false,
      "t": 57497.39583333323,
      "d": 427.08333333334303,
      "v": 76
    },
    {
      "midi": 63,
      "hit": false,
      "t": 57749.9999999999,
      "d": 138.02083333333576,
      "v": 90
    },
    {
      "midi": 41,
      "hit": false,
      "t": 57997.395833333234,
      "d": 927.0833333333358,
      "v": 84
    },
    {
      "midi": 57,
      "hit": false,
      "t": 57997.395833333234,
      "d": 1851.5625,
      "v": 78
    },
    {
      "midi": 65,
      "hit": false,
      "t": 58002.60416666657,
      "d": 1851.5625,
      "v": 105
    },
    {
      "midi": 60,
      "hit": false,
      "t": 58005.208333333234,
      "d": 1851.5625,
      "v": 78
    },
    {
      "midi": 36,
      "hit": false,
      "t": 58994.79166666657,
      "d": 427.08333333333576,
      "v": 80
    },
    {
      "midi": 36,
      "hit": false,
      "t": 59502.60416666657,
      "d": 427.0833333333285,
      "v": 82
    },
    {
      "midi": 56,
      "hit": false,
      "t": 59994.79166666656,
      "d": 434.8958333333285,
      "v": 78
    },
    {
      "midi": 65,
      "hit": false,
      "t": 59994.79166666656,
      "d": 434.8958333333285,
      "v": 95
    },
    {
      "midi": 44,
      "hit": false,
      "t": 60002.60416666656,
      "d": 434.8958333333285,
      "v": 78
    },
    {
      "midi": 60,
      "hit": false,
      "t": 60005.20833333323,
      "d": 434.8958333333285,
      "v": 77
    },
    {
      "midi": 44,
      "hit": false,
      "t": 60494.791666666555,
      "d": 419.2708333333285,
      "v": 75
    },
    {
      "midi": 56,
      "hit": false,
      "t": 60497.39583333322,
      "d": 419.2708333333285,
      "v": 82
    },
    {
      "midi": 60,
      "hit": false,
      "t": 60497.39583333322,
      "d": 419.2708333333285,
      "v": 78
    },
    {
      "midi": 65,
      "hit": false,
      "t": 60505.20833333322,
      "d": 419.2708333333285,
      "v": 94
    },
    {
      "midi": 34,
      "hit": false,
      "t": 60994.79166666655,
      "d": 111.97916666667152,
      "v": 78
    },
    {
      "midi": 67,
      "hit": false,
      "t": 60999.99999999988,
      "d": 111.97916666667152,
      "v": 93
    },
    {
      "midi": 58,
      "hit": false,
      "t": 61005.20833333322,
      "d": 111.97916666667152,
      "v": 82
    },
    {
      "midi": 62,
      "hit": false,
      "t": 61005.20833333322,
      "d": 111.97916666667152,
      "v": 76
    },
    {
      "midi": 58,
      "hit": false,
      "t": 61244.791666666555,
      "d": 375,
      "v": 84
    },
    {
      "midi": 67,
      "hit": false,
      "t": 61244.791666666555,
      "d": 375,
      "v": 97
    },
    {
      "midi": 62,
      "hit": false,
      "t": 61247.39583333322,
      "d": 375,
      "v": 75
    },
    {
      "midi": 34,
      "hit": false,
      "t": 61255.20833333322,
      "d": 375,
      "v": 79
    },
    {
      "midi": 58,
      "hit": false,
      "t": 61744.791666666555,
      "d": 1955.7291666666642,
      "v": 76
    },
    {
      "midi": 63,
      "hit": false,
      "t": 61747.39583333322,
      "d": 2080.7291666666642,
      "v": 78
    },
    {
      "midi": 67,
      "hit": false,
      "t": 61749.99999999988,
      "d": 2080.7291666666642,
      "v": 105
    },
    {
      "midi": 36,
      "hit": false,
      "t": 61994.79166666655,
      "d": 927.0833333333358,
      "v": 84
    },
    {
      "midi": 48,
      "hit": false,
      "t": 62752.60416666655,
      "d": 427.08333333333576,
      "v": 81
    },
    {
      "midi": 48,
      "hit": false,
      "t": 63252.60416666655,
      "d": 427.08333333333576,
      "v": 84
    },
    {
      "midi": 60,
      "hit": false,
      "t": 63755.20833333322,
      "d": 104.16666666666424,
      "v": 90
    },
    {
      "midi": 60,
      "hit": false,
      "t": 63880.20833333322,
      "d": 104.16666666666424,
      "v": 89
    },
    {
      "midi": 67,
      "hit": false,
      "t": 63999.99999999988,
      "d": 1427.0833333333358,
      "v": 104
    },
    {
      "midi": 36,
      "hit": false,
      "t": 64002.60416666655,
      "d": 927.0833333333358,
      "v": 81
    },
    {
      "midi": 58,
      "hit": false,
      "t": 64002.60416666655,
      "d": 1427.0833333333358,
      "v": 77
    },
    {
      "midi": 63,
      "hit": false,
      "t": 64002.60416666655,
      "d": 1427.0833333333358,
      "v": 82
    },
    {
      "midi": 36,
      "hit": false,
      "t": 64994.79166666655,
      "d": 427.08333333333576,
      "v": 84
    },
    {
      "midi": 66,
      "hit": false,
      "t": 65440.10416666655,
      "d": 52.08333333333576,
      "v": 98
    },
    {
      "midi": 65,
      "hit": false,
      "t": 65497.39583333322,
      "d": 239.58333333333576,
      "v": 91
    },
    {
      "midi": 36,
      "hit": false,
      "t": 65502.604166666555,
      "d": 427.0833333333285,
      "v": 76
    },
    {
      "midi": 63,
      "hit": false,
      "t": 65755.20833333323,
      "d": 138.02083333332848,
      "v": 98
    },
    {
      "midi": 57,
      "hit": false,
      "t": 65994.79166666656,
      "d": 1851.5624999999854,
      "v": 82
    },
    {
      "midi": 60,
      "hit": false,
      "t": 65999.99999999988,
      "d": 1851.5624999999854,
      "v": 80
    },
    {
      "midi": 41,
      "hit": false,
      "t": 66002.60416666656,
      "d": 927.0833333333285,
      "v": 80
    },
    {
      "midi": 65,
      "hit": false,
      "t": 66002.60416666656,
      "d": 1851.5624999999854,
      "v": 102
    },
    {
      "midi": 36,
      "hit": false,
      "t": 67005.20833333321,
      "d": 427.0833333333285,
      "v": 81
    },
    {
      "midi": 36,
      "hit": false,
      "t": 67497.39583333321,
      "d": 427.0833333333285,
      "v": 80
    },
    {
      "midi": 60,
      "hit": false,
      "t": 67994.79166666654,
      "d": 434.8958333333285,
      "v": 81
    },
    {
      "midi": 65,
      "hit": false,
      "t": 67994.79166666654,
      "d": 434.8958333333285,
      "v": 98
    },
    {
      "midi": 56,
      "hit": false,
      "t": 67999.99999999987,
      "d": 434.8958333333285,
      "v": 77
    },
    {
      "midi": 44,
      "hit": false,
      "t": 68002.60416666654,
      "d": 434.8958333333285,
      "v": 77
    },
    {
      "midi": 56,
      "hit": false,
      "t": 68494.79166666654,
      "d": 419.27083333334303,
      "v": 73
    },
    {
      "midi": 65,
      "hit": false,
      "t": 68497.39583333321,
      "d": 419.27083333334303,
      "v": 97
    },
    {
      "midi": 60,
      "hit": false,
      "t": 68499.99999999988,
      "d": 419.27083333334303,
      "v": 75
    },
    {
      "midi": 44,
      "hit": false,
      "t": 68505.20833333321,
      "d": 419.27083333334303,
      "v": 81
    },
    {
      "midi": 58,
      "hit": false,
      "t": 68997.39583333323,
      "d": 111.97916666667152,
      "v": 75
    },
    {
      "midi": 62,
      "hit": false,
      "t": 68997.39583333323,
      "d": 111.97916666667152,
      "v": 82
    },
    {
      "midi": 34,
      "hit": false,
      "t": 69002.60416666656,
      "d": 111.97916666667152,
      "v": 79
    },
    {
      "midi": 67,
      "hit": false,
      "t": 69005.20833333323,
      "d": 111.97916666667152,
      "v": 93
    },
    {
      "midi": 34,
      "hit": false,
      "t": 69247.39583333323,
      "d": 375,
      "v": 78
    },
    {
      "midi": 58,
      "hit": false,
      "t": 69247.39583333323,
      "d": 375,
      "v": 80
    },
    {
      "midi": 67,
      "hit": false,
      "t": 69247.39583333323,
      "d": 375,
      "v": 98
    },
    {
      "midi": 62,
      "hit": false,
      "t": 69255.20833333323,
      "d": 375,
      "v": 77
    },
    {
      "midi": 58,
      "hit": false,
      "t": 69744.79166666656,
      "d": 1955.729166666686,
      "v": 77
    },
    {
      "midi": 67,
      "hit": false,
      "t": 69744.79166666656,
      "d": 2080.729166666686,
      "v": 102
    },
    {
      "midi": 63,
      "hit": false,
      "t": 69747.39583333323,
      "d": 2080.729166666686,
      "v": 84
    },
    {
      "midi": 36,
      "hit": false,
      "t": 69997.39583333323,
      "d": 927.083333333343,
      "v": 84
    },
    {
      "midi": 48,
      "hit": false,
      "t": 70749.9999999999,
      "d": 427.08333333334303,
      "v": 84
    },
    {
      "midi": 48,
      "hit": false,
      "t": 71249.99999999991,
      "d": 427.0833333333285,
      "v": 77
    },
    {
      "midi": 60,
      "hit": false,
      "t": 71752.60416666657,
      "d": 114.58333333334303,
      "v": 91
    },
    {
      "midi": 60,
      "hit": false,
      "t": 71880.20833333324,
      "d": 114.58333333332848,
      "v": 90
    },
    {
      "midi": 67,
      "hit": false,
      "t": 71994.79166666657,
      "d": 1427.0833333333285,
      "v": 98
    },
    {
      "midi": 63,
      "hit": false,
      "t": 71997.39583333324,
      "d": 1427.0833333333285,
      "v": 80
    },
    {
      "midi": 58,
      "hit": false,
      "t": 71999.99999999991,
      "d": 1427.0833333333285,
      "v": 76
    },
    {
      "midi": 36,
      "hit": false,
      "t": 72005.20833333324,
      "d": 927.0833333333285,
      "v": 83
    },
    {
      "midi": 36,
      "hit": false,
      "t": 72994.79166666657,
      "d": 427.0833333333285,
      "v": 80
    },
    {
      "midi": 66,
      "hit": false,
      "t": 73442.70833333324,
      "d": 52.08333333332848,
      "v": 97
    },
    {
      "midi": 65,
      "hit": false,
      "t": 73497.39583333324,
      "d": 239.58333333332848,
      "v": 97
    },
    {
      "midi": 36,
      "hit": false,
      "t": 73497.39583333324,
      "d": 427.08333333331393,
      "v": 76
    },
    {
      "midi": 63,
      "hit": false,
      "t": 73749.9999999999,
      "d": 138.02083333332848,
      "v": 92
    },
    {
      "midi": 41,
      "hit": false,
      "t": 73997.39583333323,
      "d": 927.0833333333285,
      "v": 76
    },
    {
      "midi": 57,
      "hit": false,
      "t": 73997.39583333323,
      "d": 1851.5625,
      "v": 83
    },
    {
      "midi": 65,
      "hit": false,
      "t": 74002.60416666656,
      "d": 1851.5625,
      "v": 99
    },
    {
      "midi": 60,
      "hit": false,
      "t": 74005.20833333323,
      "d": 1851.5625,
      "v": 84
    },
    {
      "midi": 36,
      "hit": false,
      "t": 74994.79166666656,
      "d": 427.0833333333285,
      "v": 81
    },
    {
      "midi": 36,
      "hit": false,
      "t": 75502.60416666656,
      "d": 427.08333333334303,
      "v": 78
    },
    {
      "midi": 56,
      "hit": false,
      "t": 75994.79166666657,
      "d": 434.89583333334303,
      "v": 75
    },
    {
      "midi": 65,
      "hit": false,
      "t": 75994.79166666657,
      "d": 434.89583333334303,
      "v": 102
    },
    {
      "midi": 44,
      "hit": false,
      "t": 76002.60416666657,
      "d": 434.89583333334303,
      "v": 75
    },
    {
      "midi": 60,
      "hit": false,
      "t": 76005.20833333324,
      "d": 434.89583333334303,
      "v": 82
    },
    {
      "midi": 44,
      "hit": false,
      "t": 76494.79166666658,
      "d": 419.27083333334303,
      "v": 76
    },
    {
      "midi": 56,
      "hit": false,
      "t": 76497.39583333326,
      "d": 419.27083333334303,
      "v": 79
    },
    {
      "midi": 60,
      "hit": false,
      "t": 76497.39583333326,
      "d": 419.27083333334303,
      "v": 80
    },
    {
      "midi": 65,
      "hit": false,
      "t": 76505.20833333326,
      "d": 419.27083333334303,
      "v": 99
    },
    {
      "midi": 34,
      "hit": false,
      "t": 76994.7916666666,
      "d": 111.97916666665697,
      "v": 79
    },
    {
      "midi": 67,
      "hit": false,
      "t": 76999.99999999993,
      "d": 111.97916666665697,
      "v": 93
    },
    {
      "midi": 58,
      "hit": false,
      "t": 77005.20833333326,
      "d": 111.97916666665697,
      "v": 80
    },
    {
      "midi": 62,
      "hit": false,
      "t": 77005.20833333326,
      "d": 111.97916666665697,
      "v": 74
    },
    {
      "midi": 58,
      "hit": false,
      "t": 77244.79166666658,
      "d": 375,
      "v": 84
    },
    {
      "midi": 67,
      "hit": false,
      "t": 77244.79166666658,
      "d": 375,
      "v": 104
    },
    {
      "midi": 62,
      "hit": false,
      "t": 77247.39583333326,
      "d": 375,
      "v": 83
    },
    {
      "midi": 34,
      "hit": false,
      "t": 77255.20833333326,
      "d": 375,
      "v": 76
    },
    {
      "midi": 58,
      "hit": false,
      "t": 77744.79166666658,
      "d": 1955.7291666666715,
      "v": 83
    },
    {
      "midi": 63,
      "hit": false,
      "t": 77747.39583333326,
      "d": 2080.7291666666715,
      "v": 78
    },
    {
      "midi": 67,
      "hit": false,
      "t": 77749.99999999993,
      "d": 2080.7291666666715,
      "v": 99
    },
    {
      "midi": 36,
      "hit": false,
      "t": 77994.7916666666,
      "d": 927.0833333333285,
      "v": 78
    },
    {
      "midi": 48,
      "hit": false,
      "t": 78752.6041666666,
      "d": 427.0833333333285,
      "v": 79
    },
    {
      "midi": 48,
      "hit": false,
      "t": 79252.6041666666,
      "d": 427.0833333333285,
      "v": 78
    },
    {
      "midi": 60,
      "hit": false,
      "t": 79755.20833333326,
      "d": 104.16666666667152,
      "v": 90
    },
    {
      "midi": 60,
      "hit": false,
      "t": 79880.20833333326,
      "d": 104.16666666667152,
      "v": 91
    },
    {
      "midi": 67,
      "hit": false,
      "t": 79999.99999999993,
      "d": 1427.0833333333285,
      "v": 98
    },
    {
      "midi": 36,
      "hit": false,
      "t": 80002.6041666666,
      "d": 927.0833333333285,
      "v": 81
    },
    {
      "midi": 58,
      "hit": false,
      "t": 80002.6041666666,
      "d": 1427.0833333333285,
      "v": 84
    },
    {
      "midi": 63,
      "hit": false,
      "t": 80002.6041666666,
      "d": 1427.0833333333285,
      "v": 85
    },
    {
      "midi": 36,
      "hit": false,
      "t": 80994.7916666666,
      "d": 427.0833333333285,
      "v": 81
    },
    {
      "midi": 66,
      "hit": false,
      "t": 81440.1041666666,
      "d": 52.08333333332848,
      "v": 98
    },
    {
      "midi": 65,
      "hit": false,
      "t": 81497.39583333326,
      "d": 239.58333333332848,
      "v": 99
    },
    {
      "midi": 36,
      "hit": false,
      "t": 81502.60416666658,
      "d": 427.0833333333285,
      "v": 76
    },
    {
      "midi": 63,
      "hit": false,
      "t": 81755.20833333326,
      "d": 138.02083333332848,
      "v": 99
    },
    {
      "midi": 57,
      "hit": false,
      "t": 81994.79166666658,
      "d": 1851.5624999999854,
      "v": 80
    },
    {
      "midi": 60,
      "hit": false,
      "t": 81999.99999999991,
      "d": 1851.5624999999854,
      "v": 84
    },
    {
      "midi": 41,
      "hit": false,
      "t": 82002.60416666658,
      "d": 927.0833333333285,
      "v": 76
    },
    {
      "midi": 65,
      "hit": false,
      "t": 82002.60416666658,
      "d": 1851.5624999999854,
      "v": 99
    },
    {
      "midi": 36,
      "hit": false,
      "t": 83005.20833333324,
      "d": 427.0833333333285,
      "v": 85
    },
    {
      "midi": 36,
      "hit": false,
      "t": 83497.39583333324,
      "d": 427.0833333333285,
      "v": 81
    },
    {
      "midi": 60,
      "hit": false,
      "t": 83994.79166666657,
      "d": 434.8958333333285,
      "v": 83
    },
    {
      "midi": 65,
      "hit": false,
      "t": 83994.79166666657,
      "d": 434.8958333333285,
      "v": 97
    },
    {
      "midi": 56,
      "hit": false,
      "t": 83999.9999999999,
      "d": 434.8958333333285,
      "v": 80
    },
    {
      "midi": 44,
      "hit": false,
      "t": 84002.60416666657,
      "d": 434.8958333333285,
      "v": 75
    },
    {
      "midi": 56,
      "hit": false,
      "t": 84494.79166666657,
      "d": 419.27083333334303,
      "v": 74
    },
    {
      "midi": 65,
      "hit": false,
      "t": 84497.39583333324,
      "d": 419.27083333334303,
      "v": 95
    },
    {
      "midi": 60,
      "hit": false,
      "t": 84499.99999999991,
      "d": 419.27083333334303,
      "v": 81
    },
    {
      "midi": 44,
      "hit": false,
      "t": 84505.20833333324,
      "d": 419.27083333334303,
      "v": 80
    },
    {
      "midi": 58,
      "hit": false,
      "t": 84997.39583333326,
      "d": 111.97916666667152,
      "v": 82
    },
    {
      "midi": 62,
      "hit": false,
      "t": 84997.39583333326,
      "d": 111.97916666667152,
      "v": 79
    },
    {
      "midi": 34,
      "hit": false,
      "t": 85002.60416666658,
      "d": 111.97916666667152,
      "v": 75
    },
    {
      "midi": 67,
      "hit": false,
      "t": 85005.20833333326,
      "d": 111.97916666667152,
      "v": 100
    },
    {
      "midi": 34,
      "hit": false,
      "t": 85247.39583333326,
      "d": 375,
      "v": 78
    },
    {
      "midi": 58,
      "hit": false,
      "t": 85247.39583333326,
      "d": 375,
      "v": 78
    },
    {
      "midi": 67,
      "hit": false,
      "t": 85247.39583333326,
      "d": 375,
      "v": 104
    },
    {
      "midi": 62,
      "hit": false,
      "t": 85255.20833333326,
      "d": 375,
      "v": 81
    },
    {
      "midi": 58,
      "hit": false,
      "t": 85744.79166666658,
      "d": 1955.729166666686,
      "v": 81
    },
    {
      "midi": 67,
      "hit": false,
      "t": 85744.79166666658,
      "d": 2080.729166666686,
      "v": 98
    },
    {
      "midi": 63,
      "hit": false,
      "t": 85747.39583333326,
      "d": 2080.729166666686,
      "v": 82
    },
    {
      "midi": 36,
      "hit": false,
      "t": 85997.39583333326,
      "d": 927.083333333343,
      "v": 76
    },
    {
      "midi": 48,
      "hit": false,
      "t": 86749.99999999993,
      "d": 427.08333333334303,
      "v": 76
    },
    {
      "midi": 48,
      "hit": false,
      "t": 87249.99999999994,
      "d": 427.0833333333285,
      "v": 78
    },
    {
      "midi": 60,
      "hit": false,
      "t": 87752.6041666666,
      "d": 114.58333333334303,
      "v": 95
    },
    {
      "midi": 60,
      "hit": false,
      "t": 87880.20833333327,
      "d": 114.58333333332848,
      "v": 94
    },
    {
      "midi": 67,
      "hit": false,
      "t": 87994.7916666666,
      "d": 1427.0833333333285,
      "v": 103
    },
    {
      "midi": 63,
      "hit": false,
      "t": 87997.39583333327,
      "d": 1427.0833333333285,
      "v": 85
    },
    {
      "midi": 58,
      "hit": false,
      "t": 87999.99999999994,
      "d": 1427.0833333333285,
      "v": 84
    },
    {
      "midi": 36,
      "hit": false,
      "t": 88005.20833333327,
      "d": 927.0833333333285,
      "v": 85
    },
    {
      "midi": 36,
      "hit": false,
      "t": 88994.7916666666,
      "d": 427.0833333333285,
      "v": 77
    },
    {
      "midi": 66,
      "hit": false,
      "t": 89442.70833333327,
      "d": 52.08333333332848,
      "v": 100
    },
    {
      "midi": 65,
      "hit": false,
      "t": 89497.39583333327,
      "d": 239.58333333332848,
      "v": 96
    },
    {
      "midi": 36,
      "hit": false,
      "t": 89497.39583333327,
      "d": 427.08333333331393,
      "v": 76
    },
    {
      "midi": 63,
      "hit": false,
      "t": 89749.99999999993,
      "d": 138.02083333332848,
      "v": 91
    },
    {
      "midi": 41,
      "hit": false,
      "t": 89997.39583333326,
      "d": 927.0833333333285,
      "v": 81
    },
    {
      "midi": 57,
      "hit": false,
      "t": 89997.39583333326,
      "d": 1851.5625,
      "v": 79
    },
    {
      "midi": 65,
      "hit": false,
      "t": 90002.60416666658,
      "d": 1851.5625,
      "v": 97
    },
    {
      "midi": 60,
      "hit": false,
      "t": 90005.20833333326,
      "d": 1851.5625,
      "v": 78
    },
    {
      "midi": 36,
      "hit": false,
      "t": 90994.79166666658,
      "d": 427.0833333333285,
      "v": 77
    },
    {
      "midi": 36,
      "hit": false,
      "t": 91502.60416666658,
      "d": 427.08333333334303,
      "v": 83
    },
    {
      "midi": 56,
      "hit": false,
      "t": 91994.7916666666,
      "d": 434.89583333334303,
      "v": 75
    },
    {
      "midi": 65,
      "hit": false,
      "t": 91994.7916666666,
      "d": 434.89583333334303,
      "v": 98
    },
    {
      "midi": 44,
      "hit": false,
      "t": 92002.6041666666,
      "d": 434.89583333334303,
      "v": 81
    },
    {
      "midi": 60,
      "hit": false,
      "t": 92005.20833333327,
      "d": 434.89583333334303,
      "v": 73
    },
    {
      "midi": 44,
      "hit": false,
      "t": 92494.79166666661,
      "d": 419.27083333334303,
      "v": 76
    },
    {
      "midi": 56,
      "hit": false,
      "t": 92497.39583333328,
      "d": 419.27083333334303,
      "v": 75
    },
    {
      "midi": 60,
      "hit": false,
      "t": 92497.39583333328,
      "d": 419.27083333334303,
      "v": 79
    },
    {
      "midi": 65,
      "hit": false,
      "t": 92505.20833333328,
      "d": 419.27083333334303,
      "v": 96
    },
    {
      "midi": 34,
      "hit": false,
      "t": 92994.79166666663,
      "d": 111.97916666665697,
      "v": 77
    },
    {
      "midi": 67,
      "hit": false,
      "t": 92999.99999999996,
      "d": 111.97916666665697,
      "v": 99
    },
    {
      "midi": 58,
      "hit": false,
      "t": 93005.20833333328,
      "d": 111.97916666665697,
      "v": 78
    },
    {
      "midi": 62,
      "hit": false,
      "t": 93005.20833333328,
      "d": 111.97916666665697,
      "v": 80
    },
    {
      "midi": 58,
      "hit": false,
      "t": 93244.79166666661,
      "d": 375,
      "v": 80
    },
    {
      "midi": 67,
      "hit": false,
      "t": 93244.79166666661,
      "d": 375,
      "v": 105
    },
    {
      "midi": 62,
      "hit": false,
      "t": 93247.39583333328,
      "d": 375,
      "v": 76
    },
    {
      "midi": 34,
      "hit": false,
      "t": 93255.20833333328,
      "d": 375,
      "v": 75
    },
    {
      "midi": 58,
      "hit": false,
      "t": 93744.79166666661,
      "d": 1955.7291666666715,
      "v": 83
    },
    {
      "midi": 63,
      "hit": false,
      "t": 93747.39583333328,
      "d": 2080.7291666666715,
      "v": 78
    },
    {
      "midi": 67,
      "hit": false,
      "t": 93749.99999999996,
      "d": 2080.7291666666715,
      "v": 99
    },
    {
      "midi": 36,
      "hit": false,
      "t": 93994.79166666663,
      "d": 927.0833333333285,
      "v": 76
    },
    {
      "midi": 48,
      "hit": false,
      "t": 94752.60416666663,
      "d": 427.0833333333285,
      "v": 79
    },
    {
      "midi": 48,
      "hit": false,
      "t": 95252.60416666663,
      "d": 427.0833333333285,
      "v": 76
    },
    {
      "midi": 60,
      "hit": false,
      "t": 95755.20833333328,
      "d": 104.16666666667152,
      "v": 89
    },
    {
      "midi": 60,
      "hit": false,
      "t": 95880.20833333328,
      "d": 104.16666666667152,
      "v": 88
    },
    {
      "midi": 36,
      "hit": false,
      "t": 95999.99999999996,
      "d": 213.54166666667152,
      "v": 64
    },
    {
      "midi": 48,
      "hit": false,
      "t": 95999.99999999996,
      "d": 216.14583333334303,
      "v": 75
    },
    {
      "midi": 72,
      "hit": false,
      "t": 96497.3958333333,
      "d": 229.16666666667152,
      "v": 85
    },
    {
      "midi": 63,
      "hit": false,
      "t": 96505.2083333333,
      "d": 229.16666666667152,
      "v": 83
    },
    {
      "midi": 70,
      "hit": false,
      "t": 96505.2083333333,
      "d": 229.16666666667152,
      "v": 78
    },
    {
      "midi": 36,
      "hit": false,
      "t": 96744.79166666664,
      "d": 208.33333333334303,
      "v": 61
    },
    {
      "midi": 48,
      "hit": false,
      "t": 96747.39583333331,
      "d": 208.33333333334303,
      "v": 73
    },
    {
      "midi": 43,
      "hit": false,
      "t": 97002.60416666666,
      "d": 278.6458333333285,
      "v": 80
    },
    {
      "midi": 31,
      "hit": false,
      "t": 97005.20833333333,
      "d": 278.6458333333285,
      "v": 67
    },
    {
      "midi": 70,
      "hit": false,
      "t": 97244.79166666666,
      "d": 260.4166666666715,
      "v": 71
    },
    {
      "midi": 77,
      "hit": false,
      "t": 97244.79166666666,
      "d": 260.4166666666715,
      "v": 75
    },
    {
      "midi": 67,
      "hit": false,
      "t": 97249.99999999999,
      "d": 260.4166666666715,
      "v": 78
    },
    {
      "midi": 31,
      "hit": false,
      "t": 97494.79166666666,
      "d": 127.60416666667152,
      "v": 65
    },
    {
      "midi": 43,
      "hit": false,
      "t": 97502.60416666666,
      "d": 127.60416666667152,
      "v": 71
    },
    {
      "midi": 77,
      "hit": false,
      "t": 97619.79166666666,
      "d": 263.02083333334303,
      "v": 76
    },
    {
      "midi": 67,
      "hit": false,
      "t": 97630.20833333333,
      "d": 263.02083333334303,
      "v": 80
    },
    {
      "midi": 70,
      "hit": false,
      "t": 97630.20833333333,
      "d": 263.02083333334303,
      "v": 76
    },
    {
      "midi": 48,
      "hit": false,
      "t": 97752.60416666666,
      "d": 190.10416666668607,
      "v": 82
    },
    {
      "midi": 36,
      "hit": false,
      "t": 97755.20833333333,
      "d": 190.10416666668607,
      "v": 68
    },
    {
      "midi": 36,
      "hit": false,
      "t": 98244.79166666669,
      "d": 333.33333333334303,
      "v": 72
    },
    {
      "midi": 48,
      "hit": false,
      "t": 98252.60416666669,
      "d": 244.79166666667152,
      "v": 81
    },
    {
      "midi": 58,
      "hit": false,
      "t": 98494.79166666669,
      "d": 229.16666666667152,
      "v": 83
    },
    {
      "midi": 63,
      "hit": false,
      "t": 98497.39583333336,
      "d": 229.16666666667152,
      "v": 80
    },
    {
      "midi": 60,
      "hit": false,
      "t": 98500.00000000003,
      "d": 229.16666666667152,
      "v": 76
    },
    {
      "midi": 48,
      "hit": false,
      "t": 98752.6041666667,
      "d": 208.33333333334303,
      "v": 78
    },
    {
      "midi": 36,
      "hit": false,
      "t": 98755.20833333337,
      "d": 208.33333333334303,
      "v": 73
    },
    {
      "midi": 72,
      "hit": false,
      "t": 98895.83333333337,
      "d": 104.16666666667152,
      "v": 95
    },
    {
      "midi": 60,
      "hit": false,
      "t": 99000.00000000004,
      "d": 104.16666666667152,
      "v": 76
    },
    {
      "midi": 79,
      "hit": false,
      "t": 99002.60416666672,
      "d": 229.16666666665697,
      "v": 86
    },
    {
      "midi": 63,
      "hit": false,
      "t": 99005.20833333339,
      "d": 104.16666666665697,
      "v": 82
    },
    {
      "midi": 43,
      "hit": false,
      "t": 99244.7916666667,
      "d": 208.33333333332848,
      "v": 76
    },
    {
      "midi": 31,
      "hit": false,
      "t": 99255.20833333337,
      "d": 208.33333333332848,
      "v": 75
    },
    {
      "midi": 77,
      "hit": false,
      "t": 99393.2291666667,
      "d": 229.16666666665697,
      "v": 103
    },
    {
      "midi": 55,
      "hit": false,
      "t": 99500.00000000003,
      "d": 354.1666666666715,
      "v": 74
    },
    {
      "midi": 75,
      "hit": false,
      "t": 99645.83333333336,
      "d": 104.16666666667152,
      "v": 93
    },
    {
      "midi": 43,
      "hit": false,
      "t": 99744.79166666669,
      "d": 208.33333333334303,
      "v": 77
    },
    {
      "midi": 60,
      "hit": false,
      "t": 99747.39583333336,
      "d": 104.16666666667152,
      "v": 83
    },
    {
      "midi": 31,
      "hit": false,
      "t": 99747.39583333336,
      "d": 208.33333333334303,
      "v": 66
    },
    {
      "midi": 63,
      "hit": false,
      "t": 99750.00000000003,
      "d": 104.16666666667152,
      "v": 82
    },
    {
      "midi": 77,
      "hit": false,
      "t": 99755.20833333336,
      "d": 229.16666666667152,
      "v": 94
    },
    {
      "midi": 29,
      "hit": false,
      "t": 99997.39583333336,
      "d": 216.14583333332848,
      "v": 66
    },
    {
      "midi": 41,
      "hit": false,
      "t": 100002.60416666669,
      "d": 216.14583333332848,
      "v": 77
    },
    {
      "midi": 68,
      "hit": false,
      "t": 100497.39583333334,
      "d": 229.16666666667152,
      "v": 79
    },
    {
      "midi": 72,
      "hit": false,
      "t": 100505.20833333334,
      "d": 229.16666666667152,
      "v": 78
    },
    {
      "midi": 77,
      "hit": false,
      "t": 100505.20833333334,
      "d": 229.16666666667152,
      "v": 75
    },
    {
      "midi": 36,
      "hit": false,
      "t": 100750.00000000001,
      "d": 208.33333333334303,
      "v": 69
    },
    {
      "midi": 48,
      "hit": false,
      "t": 100752.60416666669,
      "d": 208.33333333334303,
      "v": 77
    },
    {
      "midi": 43,
      "hit": false,
      "t": 100997.39583333336,
      "d": 278.6458333333285,
      "v": 78
    },
    {
      "midi": 31,
      "hit": false,
      "t": 101002.60416666669,
      "d": 278.6458333333285,
      "v": 66
    },
    {
      "midi": 65,
      "hit": false,
      "t": 101244.79166666669,
      "d": 260.41666666665697,
      "v": 75
    },
    {
      "midi": 55,
      "hit": false,
      "t": 101255.20833333336,
      "d": 260.41666666665697,
      "v": 74
    },
    {
      "midi": 58,
      "hit": false,
      "t": 101255.20833333336,
      "d": 260.41666666665697,
      "v": 75
    },
    {
      "midi": 31,
      "hit": false,
      "t": 101505.20833333334,
      "d": 127.60416666667152,
      "v": 68
    },
    {
      "midi": 43,
      "hit": false,
      "t": 101505.20833333334,
      "d": 127.60416666667152,
      "v": 75
    },
    {
      "midi": 36,
      "hit": false,
      "t": 101747.39583333334,
      "d": 190.10416666665697,
      "v": 69
    },
    {
      "midi": 48,
      "hit": false,
      "t": 101752.60416666667,
      "d": 190.10416666665697,
      "v": 78
    },
    {
      "midi": 70,
      "hit": false,
      "t": 101994.79166666666,
      "d": 263.0208333333285,
      "v": 72
    },
    {
      "midi": 75,
      "hit": false,
      "t": 101999.99999999999,
      "d": 263.0208333333285,
      "v": 71
    },
    {
      "midi": 72,
      "hit": false,
      "t": 102002.60416666666,
      "d": 263.0208333333285,
      "v": 74
    },
    {
      "midi": 48,
      "hit": false,
      "t": 102249.99999999999,
      "d": 244.79166666667152,
      "v": 78
    },
    {
      "midi": 36,
      "hit": false,
      "t": 102252.60416666666,
      "d": 333.3333333333285,
      "v": 68
    },
    {
      "midi": 60,
      "hit": false,
      "t": 102494.79166666666,
      "d": 229.16666666665697,
      "v": 79
    },
    {
      "midi": 63,
      "hit": false,
      "t": 102497.39583333333,
      "d": 229.16666666665697,
      "v": 79
    },
    {
      "midi": 58,
      "hit": false,
      "t": 102502.60416666666,
      "d": 229.16666666665697,
      "v": 82
    },
    {
      "midi": 36,
      "hit": false,
      "t": 102747.39583333331,
      "d": 208.33333333332848,
      "v": 67
    },
    {
      "midi": 48,
      "hit": false,
      "t": 102755.20833333331,
      "d": 208.33333333332848,
      "v": 84
    },
    {
      "midi": 58,
      "hit": false,
      "t": 102997.39583333331,
      "d": 104.16666666667152,
      "v": 76
    },
    {
      "midi": 65,
      "hit": false,
      "t": 102997.39583333331,
      "d": 104.16666666667152,
      "v": 88
    },
    {
      "midi": 55,
      "hit": false,
      "t": 102999.99999999999,
      "d": 104.16666666667152,
      "v": 74
    },
    {
      "midi": 65,
      "hit": false,
      "t": 103124.99999999999,
      "d": 229.16666666665697,
      "v": 80
    },
    {
      "midi": 31,
      "hit": false,
      "t": 103249.99999999999,
      "d": 208.33333333332848,
      "v": 74
    },
    {
      "midi": 43,
      "hit": false,
      "t": 103255.20833333331,
      "d": 208.33333333332848,
      "v": 81
    },
    {
      "midi": 58,
      "hit": false,
      "t": 103499.99999999997,
      "d": 354.1666666666715,
      "v": 82
    },
    {
      "midi": 55,
      "hit": false,
      "t": 103502.60416666664,
      "d": 354.1666666666715,
      "v": 80
    },
    {
      "midi": 65,
      "hit": false,
      "t": 103502.60416666664,
      "d": 354.1666666666715,
      "v": 92
    },
    {
      "midi": 43,
      "hit": false,
      "t": 103749.99999999997,
      "d": 208.33333333334303,
      "v": 84
    },
    {
      "midi": 31,
      "hit": false,
      "t": 103752.60416666664,
      "d": 208.33333333334303,
      "v": 74
    },
    {
      "midi": 36,
      "hit": false,
      "t": 103997.39583333331,
      "d": 216.14583333332848,
      "v": 69
    },
    {
      "midi": 48,
      "hit": false,
      "t": 104005.20833333331,
      "d": 216.14583333332848,
      "v": 76
    },
    {
      "midi": 60,
      "hit": false,
      "t": 104494.79166666664,
      "d": 229.16666666667152,
      "v": 79
    },
    {
      "midi": 58,
      "hit": false,
      "t": 104497.39583333331,
      "d": 229.16666666667152,
      "v": 85
    },
    {
      "midi": 63,
      "hit": false,
      "t": 104499.99999999999,
      "d": 229.16666666667152,
      "v": 76
    },
    {
      "midi": 48,
      "hit": false,
      "t": 104752.60416666666,
      "d": 208.33333333334303,
      "v": 77
    },
    {
      "midi": 36,
      "hit": false,
      "t": 104755.20833333333,
      "d": 208.33333333334303,
      "v": 61
    },
    {
      "midi": 31,
      "hit": false,
      "t": 105002.60416666667,
      "d": 278.6458333333285,
      "v": 71
    },
    {
      "midi": 43,
      "hit": false,
      "t": 105002.60416666667,
      "d": 278.6458333333285,
      "v": 76
    },
    {
      "midi": 65,
      "hit": false,
      "t": 105244.79166666667,
      "d": 260.4166666666715,
      "v": 75
    },
    {
      "midi": 58,
      "hit": false,
      "t": 105247.39583333334,
      "d": 260.4166666666715,
      "v": 72
    },
    {
      "midi": 55,
      "hit": false,
      "t": 105252.60416666667,
      "d": 260.4166666666715,
      "v": 74
    },
    {
      "midi": 43,
      "hit": false,
      "t": 105494.79166666667,
      "d": 127.60416666667152,
      "v": 72
    },
    {
      "midi": 31,
      "hit": false,
      "t": 105502.60416666667,
      "d": 127.60416666667152,
      "v": 68
    },
    {
      "midi": 36,
      "hit": false,
      "t": 105744.79166666667,
      "d": 190.10416666667152,
      "v": 67
    },
    {
      "midi": 63,
      "hit": false,
      "t": 105744.79166666667,
      "d": 263.02083333334303,
      "v": 79
    },
    {
      "midi": 48,
      "hit": false,
      "t": 105747.39583333334,
      "d": 190.10416666667152,
      "v": 76
    },
    {
      "midi": 58,
      "hit": false,
      "t": 105750.00000000001,
      "d": 263.0208333333285,
      "v": 72
    },
    {
      "midi": 60,
      "hit": false,
      "t": 105755.20833333334,
      "d": 263.0208333333285,
      "v": 74
    },
    {
      "midi": 36,
      "hit": false,
      "t": 106244.79166666667,
      "d": 333.33333333334303,
      "v": 73
    },
    {
      "midi": 48,
      "hit": false,
      "t": 106250,
      "d": 244.79166666667152,
      "v": 80
    },
    {
      "midi": 60,
      "hit": false,
      "t": 106497.39583333334,
      "d": 229.16666666667152,
      "v": 83
    },
    {
      "midi": 63,
      "hit": false,
      "t": 106500.00000000001,
      "d": 229.16666666667152,
      "v": 80
    },
    {
      "midi": 58,
      "hit": false,
      "t": 106502.60416666669,
      "d": 229.16666666667152,
      "v": 79
    },
    {
      "midi": 36,
      "hit": false,
      "t": 106744.79166666669,
      "d": 208.33333333332848,
      "v": 66
    },
    {
      "midi": 48,
      "hit": false,
      "t": 106750.00000000001,
      "d": 208.33333333332848,
      "v": 77
    },
    {
      "midi": 65,
      "hit": false,
      "t": 106994.79166666667,
      "d": 104.16666666667152,
      "v": 92
    },
    {
      "midi": 58,
      "hit": false,
      "t": 106997.39583333334,
      "d": 104.16666666667152,
      "v": 81
    },
    {
      "midi": 55,
      "hit": false,
      "t": 107002.60416666667,
      "d": 104.16666666667152,
      "v": 81
    },
    {
      "midi": 65,
      "hit": false,
      "t": 107122.39583333334,
      "d": 229.16666666665697,
      "v": 80
    },
    {
      "midi": 31,
      "hit": false,
      "t": 107252.60416666667,
      "d": 208.33333333332848,
      "v": 67
    },
    {
      "midi": 43,
      "hit": false,
      "t": 107252.60416666667,
      "d": 208.33333333332848,
      "v": 76
    },
    {
      "midi": 55,
      "hit": false,
      "t": 107494.79166666667,
      "d": 354.1666666666715,
      "v": 83
    },
    {
      "midi": 58,
      "hit": false,
      "t": 107502.60416666667,
      "d": 354.1666666666715,
      "v": 75
    },
    {
      "midi": 65,
      "hit": false,
      "t": 107502.60416666667,
      "d": 354.1666666666715,
      "v": 88
    },
    {
      "midi": 31,
      "hit": false,
      "t": 107750,
      "d": 208.33333333334303,
      "v": 68
    },
    {
      "midi": 43,
      "hit": false,
      "t": 107752.60416666667,
      "d": 208.33333333334303,
      "v": 83
    },
    {
      "midi": 29,
      "hit": false,
      "t": 108000.00000000001,
      "d": 216.14583333334303,
      "v": 69
    },
    {
      "midi": 41,
      "hit": false,
      "t": 108002.60416666669,
      "d": 216.14583333334303,
      "v": 80
    },
    {
      "midi": 77,
      "hit": false,
      "t": 108494.7916666667,
      "d": 229.16666666667152,
      "v": 81
    },
    {
      "midi": 68,
      "hit": false,
      "t": 108505.20833333337,
      "d": 229.16666666667152,
      "v": 80
    },
    {
      "midi": 72,
      "hit": false,
      "t": 108505.20833333337,
      "d": 229.16666666667152,
      "v": 84
    },
    {
      "midi": 36,
      "hit": false,
      "t": 108752.60416666672,
      "d": 208.33333333334303,
      "v": 68
    },
    {
      "midi": 48,
      "hit": false,
      "t": 108755.20833333339,
      "d": 208.33333333334303,
      "v": 79
    },
    {
      "midi": 43,
      "hit": false,
      "t": 108997.3958333334,
      "d": 278.6458333333285,
      "v": 78
    },
    {
      "midi": 31,
      "hit": false,
      "t": 109002.60416666673,
      "d": 278.6458333333285,
      "v": 73
    },
    {
      "midi": 58,
      "hit": false,
      "t": 109252.60416666673,
      "d": 260.41666666665697,
      "v": 79
    },
    {
      "midi": 55,
      "hit": false,
      "t": 109255.2083333334,
      "d": 260.41666666665697,
      "v": 78
    },
    {
      "midi": 65,
      "hit": false,
      "t": 109255.2083333334,
      "d": 260.41666666665697,
      "v": 75
    },
    {
      "midi": 31,
      "hit": false,
      "t": 109497.39583333339,
      "d": 127.60416666667152,
      "v": 62
    },
    {
      "midi": 43,
      "hit": false,
      "t": 109497.39583333339,
      "d": 127.60416666667152,
      "v": 78
    },
    {
      "midi": 36,
      "hit": false,
      "t": 109755.20833333339,
      "d": 190.10416666667152,
      "v": 72
    },
    {
      "midi": 48,
      "hit": false,
      "t": 109755.20833333339,
      "d": 190.10416666667152,
      "v": 76
    },
    {
      "midi": 36,
      "hit": false,
      "t": 110244.79166666673,
      "d": 333.33333333334303,
      "v": 74
    },
    {
      "midi": 48,
      "hit": false,
      "t": 110250.00000000006,
      "d": 244.79166666667152,
      "v": 81
    },
    {
      "midi": 58,
      "hit": false,
      "t": 110494.79166666673,
      "d": 229.16666666667152,
      "v": 76
    },
    {
      "midi": 63,
      "hit": false,
      "t": 110494.79166666673,
      "d": 229.16666666667152,
      "v": 79
    },
    {
      "midi": 60,
      "hit": false,
      "t": 110497.3958333334,
      "d": 229.16666666667152,
      "v": 83
    },
    {
      "midi": 36,
      "hit": false,
      "t": 110750.00000000007,
      "d": 208.33333333334303,
      "v": 67
    },
    {
      "midi": 48,
      "hit": false,
      "t": 110752.60416666674,
      "d": 208.33333333334303,
      "v": 76
    },
    {
      "midi": 65,
      "hit": false,
      "t": 110994.79166666676,
      "d": 104.16666666667152,
      "v": 91
    },
    {
      "midi": 55,
      "hit": false,
      "t": 111002.60416666676,
      "d": 104.16666666667152,
      "v": 80
    },
    {
      "midi": 58,
      "hit": false,
      "t": 111005.20833333343,
      "d": 104.16666666667152,
      "v": 77
    },
    {
      "midi": 65,
      "hit": false,
      "t": 111125.0000000001,
      "d": 229.16666666665697,
      "v": 81
    },
    {
      "midi": 31,
      "hit": false,
      "t": 111247.39583333343,
      "d": 208.33333333332848,
      "v": 69
    },
    {
      "midi": 43,
      "hit": false,
      "t": 111255.20833333343,
      "d": 208.33333333332848,
      "v": 80
    },
    {
      "midi": 55,
      "hit": false,
      "t": 111500.00000000009,
      "d": 354.1666666666715,
      "v": 78
    },
    {
      "midi": 58,
      "hit": false,
      "t": 111502.60416666676,
      "d": 354.1666666666715,
      "v": 83
    },
    {
      "midi": 65,
      "hit": false,
      "t": 111505.20833333343,
      "d": 354.1666666666715,
      "v": 86
    },
    {
      "midi": 43,
      "hit": false,
      "t": 111752.60416666676,
      "d": 208.33333333334303,
      "v": 83
    },
    {
      "midi": 31,
      "hit": false,
      "t": 111755.20833333343,
      "d": 208.33333333334303,
      "v": 66
    },
    {
      "midi": 48,
      "hit": false,
      "t": 111994.79166666677,
      "d": 216.14583333332848,
      "v": 74
    },
    {
      "midi": 51,
      "hit": false,
      "t": 112000.0000000001,
      "d": 484.375,
      "v": 94
    },
    {
      "midi": 39,
      "hit": false,
      "t": 112002.60416666677,
      "d": 489.5833333333285,
      "v": 94
    },
    {
      "midi": 55,
      "hit": false,
      "t": 112494.79166666677,
      "d": 489.58333333334303,
      "v": 92
    },
    {
      "midi": 58,
      "hit": false,
      "t": 112494.79166666677,
      "d": 489.58333333334303,
      "v": 96
    },
    {
      "midi": 62,
      "hit": false,
      "t": 112497.39583333344,
      "d": 489.58333333334303,
      "v": 88
    },
    {
      "midi": 70,
      "hit": false,
      "t": 112997.39583333346,
      "d": 468.75,
      "v": 88
    },
    {
      "midi": 79,
      "hit": false,
      "t": 112997.39583333346,
      "d": 468.75,
      "v": 93
    },
    {
      "midi": 74,
      "hit": false,
      "t": 113000.00000000013,
      "d": 468.75,
      "v": 88
    },
    {
      "midi": 82,
      "hit": false,
      "t": 113494.7916666668,
      "d": 450.52083333334303,
      "v": 94
    },
    {
      "midi": 86,
      "hit": false,
      "t": 113497.39583333347,
      "d": 450.52083333334303,
      "v": 94
    },
    {
      "midi": 91,
      "hit": false,
      "t": 113505.20833333347,
      "d": 450.52083333334303,
      "v": 89
    },
    {
      "midi": 39,
      "hit": false,
      "t": 113994.79166666682,
      "d": 489.5833333333285,
      "v": 96
    },
    {
      "midi": 51,
      "hit": false,
      "t": 113994.79166666682,
      "d": 489.5833333333285,
      "v": 90
    },
    {
      "midi": 55,
      "hit": false,
      "t": 114494.79166666682,
      "d": 489.5833333333285,
      "v": 89
    },
    {
      "midi": 62,
      "hit": false,
      "t": 114494.79166666682,
      "d": 489.5833333333285,
      "v": 90
    },
    {
      "midi": 58,
      "hit": false,
      "t": 114500.00000000015,
      "d": 489.5833333333285,
      "v": 89
    },
    {
      "midi": 70,
      "hit": false,
      "t": 114992.18750000015,
      "d": 468.75,
      "v": 95
    },
    {
      "midi": 79,
      "hit": false,
      "t": 114992.18750000015,
      "d": 468.75,
      "v": 96
    },
    {
      "midi": 74,
      "hit": false,
      "t": 114997.39583333347,
      "d": 468.75,
      "v": 89
    },
    {
      "midi": 86,
      "hit": false,
      "t": 115500.00000000015,
      "d": 450.52083333334303,
      "v": 94
    },
    {
      "midi": 91,
      "hit": false,
      "t": 115502.60416666682,
      "d": 450.52083333334303,
      "v": 93
    },
    {
      "midi": 82,
      "hit": false,
      "t": 115505.20833333349,
      "d": 450.52083333334303,
      "v": 88
    },
    {
      "midi": 36,
      "hit": false,
      "t": 115994.79166666683,
      "d": 489.58333333334303,
      "v": 90
    },
    {
      "midi": 48,
      "hit": false,
      "t": 115997.3958333335,
      "d": 489.58333333334303,
      "v": 92
    },
    {
      "midi": 72,
      "hit": false,
      "t": 116500.00000000017,
      "d": 486.9791666666715,
      "v": 87
    },
    {
      "midi": 67,
      "hit": false,
      "t": 116500.00000000017,
      "d": 489.58333333334303,
      "v": 92
    },
    {
      "midi": 63,
      "hit": false,
      "t": 116502.60416666685,
      "d": 489.58333333334303,
      "v": 89
    },
    {
      "midi": 72,
      "hit": false,
      "t": 116994.79166666686,
      "d": 468.75,
      "v": 97
    },
    {
      "midi": 75,
      "hit": false,
      "t": 116997.39583333353,
      "d": 468.75,
      "v": 93
    },
    {
      "midi": 79,
      "hit": false,
      "t": 117005.20833333353,
      "d": 468.75,
      "v": 91
    },
    {
      "midi": 91,
      "hit": false,
      "t": 117492.1875000002,
      "d": 450.5208333333285,
      "v": 90
    },
    {
      "midi": 87,
      "hit": false,
      "t": 117497.39583333353,
      "d": 450.5208333333285,
      "v": 95
    },
    {
      "midi": 84,
      "hit": false,
      "t": 117502.60416666686,
      "d": 450.5208333333285,
      "v": 87
    },
    {
      "midi": 48,
      "hit": false,
      "t": 118000.00000000019,
      "d": 489.5833333333285,
      "v": 86
    },
    {
      "midi": 36,
      "hit": false,
      "t": 118005.20833333352,
      "d": 489.58333333334303,
      "v": 86
    },
    {
      "midi": 63,
      "hit": false,
      "t": 118492.18750000019,
      "d": 489.58333333334303,
      "v": 90
    },
    {
      "midi": 67,
      "hit": false,
      "t": 118494.79166666686,
      "d": 489.58333333334303,
      "v": 97
    },
    {
      "midi": 72,
      "hit": false,
      "t": 118497.39583333353,
      "d": 489.58333333334303,
      "v": 94
    },
    {
      "midi": 72,
      "hit": false,
      "t": 118994.79166666688,
      "d": 468.75,
      "v": 88
    },
    {
      "midi": 75,
      "hit": false,
      "t": 119000.0000000002,
      "d": 468.75,
      "v": 94
    },
    {
      "midi": 79,
      "hit": false,
      "t": 119000.0000000002,
      "d": 468.75,
      "v": 96
    },
    {
      "midi": 91,
      "hit": false,
      "t": 119494.79166666688,
      "d": 450.52083333334303,
      "v": 92
    },
    {
      "midi": 84,
      "hit": false,
      "t": 119497.39583333355,
      "d": 450.52083333334303,
      "v": 91
    },
    {
      "midi": 87,
      "hit": false,
      "t": 119505.20833333355,
      "d": 450.52083333334303,
      "v": 94
    },
    {
      "midi": 39,
      "hit": false,
      "t": 119992.18750000022,
      "d": 489.5833333333285,
      "v": 92
    },
    {
      "midi": 51,
      "hit": false,
      "t": 119992.18750000022,
      "d": 489.5833333333285,
      "v": 86
    },
    {
      "midi": 62,
      "hit": false,
      "t": 120494.79166666688,
      "d": 489.58333333334303,
      "v": 88
    },
    {
      "midi": 58,
      "hit": false,
      "t": 120497.39583333355,
      "d": 489.58333333334303,
      "v": 94
    },
    {
      "midi": 55,
      "hit": false,
      "t": 120500.00000000022,
      "d": 489.58333333334303,
      "v": 95
    },
    {
      "midi": 70,
      "hit": false,
      "t": 120994.79166666689,
      "d": 468.75,
      "v": 91
    },
    {
      "midi": 79,
      "hit": false,
      "t": 120994.79166666689,
      "d": 468.75,
      "v": 89
    },
    {
      "midi": 74,
      "hit": false,
      "t": 120997.39583333356,
      "d": 468.75,
      "v": 95
    },
    {
      "midi": 82,
      "hit": false,
      "t": 121492.18750000023,
      "d": 450.5208333333285,
      "v": 90
    },
    {
      "midi": 91,
      "hit": false,
      "t": 121497.39583333356,
      "d": 450.5208333333285,
      "v": 96
    },
    {
      "midi": 86,
      "hit": false,
      "t": 121505.20833333356,
      "d": 450.5208333333285,
      "v": 90
    },
    {
      "midi": 39,
      "hit": false,
      "t": 121994.79166666689,
      "d": 489.5833333333285,
      "v": 86
    },
    {
      "midi": 51,
      "hit": false,
      "t": 122002.60416666689,
      "d": 489.5833333333285,
      "v": 92
    },
    {
      "midi": 58,
      "hit": false,
      "t": 122494.79166666689,
      "d": 489.58333333334303,
      "v": 88
    },
    {
      "midi": 62,
      "hit": false,
      "t": 122494.79166666689,
      "d": 489.58333333334303,
      "v": 96
    },
    {
      "midi": 55,
      "hit": false,
      "t": 122505.20833333356,
      "d": 489.58333333334303,
      "v": 90
    },
    {
      "midi": 70,
      "hit": false,
      "t": 122992.18750000023,
      "d": 468.75,
      "v": 95
    },
    {
      "midi": 79,
      "hit": false,
      "t": 123000.00000000023,
      "d": 468.75,
      "v": 90
    },
    {
      "midi": 74,
      "hit": false,
      "t": 123005.20833333356,
      "d": 468.75,
      "v": 93
    },
    {
      "midi": 91,
      "hit": false,
      "t": 123492.18750000023,
      "d": 450.5208333333285,
      "v": 87
    },
    {
      "midi": 82,
      "hit": false,
      "t": 123500.00000000023,
      "d": 450.5208333333285,
      "v": 88
    },
    {
      "midi": 86,
      "hit": false,
      "t": 123500.00000000023,
      "d": 450.5208333333285,
      "v": 93
    },
    {
      "midi": 36,
      "hit": false,
      "t": 123997.39583333356,
      "d": 489.58333333334303,
      "v": 90
    },
    {
      "midi": 48,
      "hit": false,
      "t": 124000.00000000023,
      "d": 489.58333333334303,
      "v": 86
    },
    {
      "midi": 72,
      "hit": false,
      "t": 124494.7916666669,
      "d": 489.5833333333285,
      "v": 93
    },
    {
      "midi": 63,
      "hit": false,
      "t": 124500.00000000023,
      "d": 489.5833333333285,
      "v": 94
    },
    {
      "midi": 67,
      "hit": false,
      "t": 124500.00000000023,
      "d": 489.5833333333285,
      "v": 91
    },
    {
      "midi": 75,
      "hit": false,
      "t": 124994.79166666689,
      "d": 468.75,
      "v": 94
    },
    {
      "midi": 72,
      "hit": false,
      "t": 125000.00000000022,
      "d": 468.75,
      "v": 97
    },
    {
      "midi": 79,
      "hit": false,
      "t": 125002.60416666689,
      "d": 468.75,
      "v": 95
    },
    {
      "midi": 87,
      "hit": false,
      "t": 125494.79166666689,
      "d": 450.5208333333285,
      "v": 92
    },
    {
      "midi": 84,
      "hit": false,
      "t": 125500.00000000022,
      "d": 450.5208333333285,
      "v": 94
    },
    {
      "midi": 91,
      "hit": false,
      "t": 125500.00000000022,
      "d": 450.5208333333285,
      "v": 95
    },
    {
      "midi": 36,
      "hit": false,
      "t": 126000.00000000022,
      "d": 489.5833333333285,
      "v": 87
    },
    {
      "midi": 48,
      "hit": false,
      "t": 126005.20833333355,
      "d": 489.5833333333285,
      "v": 93
    },
    {
      "midi": 63,
      "hit": false,
      "t": 126500.0000000002,
      "d": 489.5833333333285,
      "v": 93
    },
    {
      "midi": 67,
      "hit": false,
      "t": 126500.0000000002,
      "d": 489.5833333333285,
      "v": 95
    },
    {
      "midi": 72,
      "hit": false,
      "t": 126505.20833333353,
      "d": 479.1666666666715,
      "v": 88
    },
    {
      "midi": 72,
      "hit": false,
      "t": 126992.1875000002,
      "d": 468.75,
      "v": 88
    },
    {
      "midi": 75,
      "hit": false,
      "t": 127000.0000000002,
      "d": 468.75,
      "v": 89
    },
    {
      "midi": 79,
      "hit": false,
      "t": 127002.60416666688,
      "d": 468.75,
      "v": 97
    },
    {
      "midi": 87,
      "hit": false,
      "t": 127500.0000000002,
      "d": 450.5208333333285,
      "v": 88
    },
    {
      "midi": 84,
      "hit": false,
      "t": 127505.20833333353,
      "d": 450.5208333333285,
      "v": 88
    },
    {
      "midi": 91,
      "hit": false,
      "t": 127505.20833333353,
      "d": 450.5208333333285,
      "v": 94
    },
    {
      "midi": 51,
      "hit": false,
      "t": 127992.18750000019,
      "d": 489.5833333333285,
      "v": 92
    },
    {
      "midi": 39,
      "hit": false,
      "t": 128000.00000000019,
      "d": 489.5833333333285,
      "v": 91
    },
    {
      "midi": 58,
      "hit": false,
      "t": 128497.39583333352,
      "d": 489.5833333333285,
      "v": 91
    },
    {
      "midi": 62,
      "hit": false,
      "t": 128497.39583333352,
      "d": 489.5833333333285,
      "v": 87
    },
    {
      "midi": 55,
      "hit": false,
      "t": 128505.20833333352,
      "d": 489.5833333333285,
      "v": 95
    },
    {
      "midi": 74,
      "hit": false,
      "t": 128994.79166666685,
      "d": 468.75000000001455,
      "v": 94
    },
    {
      "midi": 70,
      "hit": false,
      "t": 128997.39583333352,
      "d": 468.75000000001455,
      "v": 93
    },
    {
      "midi": 79,
      "hit": false,
      "t": 129000.00000000019,
      "d": 468.75000000001455,
      "v": 94
    },
    {
      "midi": 82,
      "hit": false,
      "t": 129500.0000000002,
      "d": 450.52083333334303,
      "v": 87
    },
    {
      "midi": 86,
      "hit": false,
      "t": 129502.60416666688,
      "d": 450.52083333334303,
      "v": 93
    },
    {
      "midi": 91,
      "hit": false,
      "t": 129502.60416666688,
      "d": 450.52083333334303,
      "v": 94
    },
    {
      "midi": 39,
      "hit": false,
      "t": 129994.79166666689,
      "d": 489.5833333333285,
      "v": 87
    },
    {
      "midi": 51,
      "hit": false,
      "t": 129994.79166666689,
      "d": 489.5833333333285,
      "v": 88
    },
    {
      "midi": 62,
      "hit": false,
      "t": 130492.18750000022,
      "d": 489.58333333334303,
      "v": 89
    },
    {
      "midi": 55,
      "hit": false,
      "t": 130500.00000000022,
      "d": 489.58333333334303,
      "v": 93
    },
    {
      "midi": 58,
      "hit": false,
      "t": 130502.60416666689,
      "d": 489.58333333334303,
      "v": 88
    },
    {
      "midi": 79,
      "hit": false,
      "t": 130992.18750000023,
      "d": 468.75,
      "v": 96
    },
    {
      "midi": 70,
      "hit": false,
      "t": 130994.7916666669,
      "d": 468.74999999998545,
      "v": 91
    },
    {
      "midi": 74,
      "hit": false,
      "t": 130997.39583333358,
      "d": 468.7499999999709,
      "v": 93
    },
    {
      "midi": 82,
      "hit": false,
      "t": 131502.6041666669,
      "d": 450.52083333334303,
      "v": 89
    },
    {
      "midi": 86,
      "hit": false,
      "t": 131502.6041666669,
      "d": 450.52083333334303,
      "v": 95
    },
    {
      "midi": 91,
      "hit": false,
      "t": 131502.6041666669,
      "d": 450.52083333334303,
      "v": 93
    },
    {
      "midi": 48,
      "hit": false,
      "t": 131994.7916666669,
      "d": 489.58333333331393,
      "v": 87
    },
    {
      "midi": 36,
      "hit": false,
      "t": 132005.20833333355,
      "d": 489.58333333331393,
      "v": 95
    },
    {
      "midi": 63,
      "hit": false,
      "t": 132492.1875000002,
      "d": 489.58333333334303,
      "v": 94
    },
    {
      "midi": 72,
      "hit": false,
      "t": 132500.0000000002,
      "d": 486.97916666668607,
      "v": 94
    },
    {
      "midi": 67,
      "hit": false,
      "t": 132500.0000000002,
      "d": 489.58333333334303,
      "v": 89
    },
    {
      "midi": 72,
      "hit": false,
      "t": 132994.7916666669,
      "d": 468.75,
      "v": 88
    },
    {
      "midi": 75,
      "hit": false,
      "t": 133002.6041666669,
      "d": 468.75,
      "v": 92
    },
    {
      "midi": 79,
      "hit": false,
      "t": 133002.6041666669,
      "d": 468.75,
      "v": 96
    },
    {
      "midi": 87,
      "hit": false,
      "t": 133500.00000000023,
      "d": 450.52083333331393,
      "v": 95
    },
    {
      "midi": 91,
      "hit": false,
      "t": 133502.6041666669,
      "d": 450.52083333331393,
      "v": 95
    },
    {
      "midi": 84,
      "hit": false,
      "t": 133505.20833333355,
      "d": 450.52083333331393,
      "v": 91
    },
    {
      "midi": 36,
      "hit": false,
      "t": 133992.1875000002,
      "d": 489.58333333334303,
      "v": 88
    },
    {
      "midi": 48,
      "hit": false,
      "t": 133997.39583333355,
      "d": 489.58333333334303,
      "v": 95
    },
    {
      "midi": 67,
      "hit": false,
      "t": 134492.18750000023,
      "d": 489.58333333334303,
      "v": 89
    },
    {
      "midi": 63,
      "hit": false,
      "t": 134497.39583333358,
      "d": 489.58333333334303,
      "v": 95
    },
    {
      "midi": 72,
      "hit": false,
      "t": 134500.00000000023,
      "d": 486.97916666668607,
      "v": 90
    },
    {
      "midi": 72,
      "hit": false,
      "t": 134994.79166666692,
      "d": 468.75,
      "v": 93
    },
    {
      "midi": 79,
      "hit": false,
      "t": 134994.79166666692,
      "d": 468.75,
      "v": 93
    },
    {
      "midi": 75,
      "hit": false,
      "t": 135005.20833333358,
      "d": 468.75,
      "v": 96
    },
    {
      "midi": 84,
      "hit": false,
      "t": 135500.00000000023,
      "d": 450.52083333331393,
      "v": 87
    },
    {
      "midi": 91,
      "hit": false,
      "t": 135500.00000000023,
      "d": 450.52083333331393,
      "v": 96
    },
    {
      "midi": 87,
      "hit": false,
      "t": 135502.6041666669,
      "d": 450.52083333331393,
      "v": 93
    },
    {
      "midi": 36,
      "hit": false,
      "t": 136002.60416666686,
      "d": 216.14583333334303,
      "v": 70
    },
    {
      "midi": 63,
      "hit": false,
      "t": 136494.79166666686,
      "d": 229.16666666668607,
      "v": 85
    },
    {
      "midi": 72,
      "hit": false,
      "t": 136494.79166666686,
      "d": 229.16666666668607,
      "v": 93
    },
    {
      "midi": 70,
      "hit": false,
      "t": 136500.0000000002,
      "d": 229.16666666668607,
      "v": 83
    },
    {
      "midi": 36,
      "hit": false,
      "t": 136747.39583333355,
      "d": 208.33333333334303,
      "v": 66
    },
    {
      "midi": 48,
      "hit": false,
      "t": 136747.39583333355,
      "d": 208.33333333334303,
      "v": 73
    },
    {
      "midi": 31,
      "hit": false,
      "t": 136994.7916666669,
      "d": 278.64583333331393,
      "v": 70
    },
    {
      "midi": 43,
      "hit": false,
      "t": 136997.39583333355,
      "d": 278.64583333331393,
      "v": 76
    },
    {
      "midi": 77,
      "hit": false,
      "t": 137244.7916666669,
      "d": 260.41666666662786,
      "v": 78
    },
    {
      "midi": 67,
      "hit": false,
      "t": 137255.20833333355,
      "d": 260.41666666662786,
      "v": 76
    },
    {
      "midi": 70,
      "hit": false,
      "t": 137255.20833333355,
      "d": 260.41666666662786,
      "v": 76
    },
    {
      "midi": 31,
      "hit": false,
      "t": 137497.39583333352,
      "d": 127.60416666665697,
      "v": 65
    },
    {
      "midi": 43,
      "hit": false,
      "t": 137505.20833333352,
      "d": 127.60416666665697,
      "v": 74
    },
    {
      "midi": 70,
      "hit": false,
      "t": 137619.79166666683,
      "d": 263.02083333334303,
      "v": 79
    },
    {
      "midi": 67,
      "hit": false,
      "t": 137627.60416666683,
      "d": 263.02083333334303,
      "v": 74
    },
    {
      "midi": 77,
      "hit": false,
      "t": 137627.60416666683,
      "d": 263.02083333334303,
      "v": 72
    },
    {
      "midi": 36,
      "hit": false,
      "t": 137747.39583333352,
      "d": 190.10416666665697,
      "v": 74
    },
    {
      "midi": 48,
      "hit": false,
      "t": 137750.00000000017,
      "d": 190.10416666665697,
      "v": 83
    },
    {
      "midi": 48,
      "hit": false,
      "t": 138244.79166666683,
      "d": 244.79166666665697,
      "v": 80
    },
    {
      "midi": 36,
      "hit": false,
      "t": 138252.60416666683,
      "d": 333.33333333331393,
      "v": 68
    },
    {
      "midi": 58,
      "hit": false,
      "t": 138497.3958333335,
      "d": 229.16666666665697,
      "v": 77
    },
    {
      "midi": 63,
      "hit": false,
      "t": 138497.3958333335,
      "d": 229.16666666665697,
      "v": 79
    },
    {
      "midi": 60,
      "hit": false,
      "t": 138505.2083333335,
      "d": 229.16666666665697,
      "v": 77
    },
    {
      "midi": 36,
      "hit": false,
      "t": 138752.6041666668,
      "d": 208.33333333331393,
      "v": 73
    },
    {
      "midi": 48,
      "hit": false,
      "t": 138752.6041666668,
      "d": 208.33333333331393,
      "v": 82
    },
    {
      "midi": 72,
      "hit": false,
      "t": 138895.83333333346,
      "d": 104.16666666665697,
      "v": 98
    },
    {
      "midi": 63,
      "hit": false,
      "t": 138994.79166666677,
      "d": 104.16666666668607,
      "v": 77
    },
    {
      "midi": 79,
      "hit": false,
      "t": 138994.79166666677,
      "d": 229.16666666668607,
      "v": 93
    },
    {
      "midi": 60,
      "hit": false,
      "t": 139000.00000000012,
      "d": 104.16666666668607,
      "v": 79
    },
    {
      "midi": 43,
      "hit": false,
      "t": 139244.7916666668,
      "d": 208.33333333334303,
      "v": 83
    },
    {
      "midi": 31,
      "hit": false,
      "t": 139252.6041666668,
      "d": 208.33333333334303,
      "v": 75
    },
    {
      "midi": 77,
      "hit": false,
      "t": 139398.43750000015,
      "d": 229.16666666665697,
      "v": 99
    },
    {
      "midi": 55,
      "hit": false,
      "t": 139500.00000000015,
      "d": 354.16666666665697,
      "v": 83
    },
    {
      "midi": 75,
      "hit": false,
      "t": 139648.43750000015,
      "d": 104.16666666665697,
      "v": 85
    },
    {
      "midi": 60,
      "hit": false,
      "t": 139744.7916666668,
      "d": 104.16666666665697,
      "v": 74
    },
    {
      "midi": 43,
      "hit": false,
      "t": 139744.7916666668,
      "d": 208.33333333331393,
      "v": 84
    },
    {
      "midi": 77,
      "hit": false,
      "t": 139744.7916666668,
      "d": 229.16666666662786,
      "v": 96
    },
    {
      "midi": 31,
      "hit": false,
      "t": 139747.39583333346,
      "d": 208.33333333331393,
      "v": 72
    },
    {
      "midi": 63,
      "hit": false,
      "t": 139752.6041666668,
      "d": 104.16666666665697,
      "v": 76
    },
    {
      "midi": 29,
      "hit": false,
      "t": 139994.79166666677,
      "d": 216.14583333334303,
      "v": 66
    },
    {
      "midi": 41,
      "hit": false,
      "t": 140002.60416666677,
      "d": 216.14583333334303,
      "v": 79
    },
    {
      "midi": 72,
      "hit": false,
      "t": 140494.79166666677,
      "d": 229.16666666665697,
      "v": 83
    },
    {
      "midi": 77,
      "hit": false,
      "t": 140502.60416666677,
      "d": 229.16666666665697,
      "v": 82
    },
    {
      "midi": 68,
      "hit": false,
      "t": 140505.20833333343,
      "d": 229.16666666665697,
      "v": 80
    },
    {
      "midi": 48,
      "hit": false,
      "t": 140744.79166666674,
      "d": 208.33333333331393,
      "v": 71
    },
    {
      "midi": 36,
      "hit": false,
      "t": 140755.2083333334,
      "d": 208.33333333331393,
      "v": 67
    },
    {
      "midi": 31,
      "hit": false,
      "t": 140994.79166666672,
      "d": 278.64583333331393,
      "v": 73
    },
    {
      "midi": 43,
      "hit": false,
      "t": 141002.60416666672,
      "d": 278.64583333331393,
      "v": 83
    },
    {
      "midi": 55,
      "hit": false,
      "t": 141244.79166666672,
      "d": 260.41666666665697,
      "v": 71
    },
    {
      "midi": 58,
      "hit": false,
      "t": 141247.39583333337,
      "d": 260.41666666665697,
      "v": 72
    },
    {
      "midi": 65,
      "hit": false,
      "t": 141250.00000000003,
      "d": 260.41666666665697,
      "v": 80
    },
    {
      "midi": 31,
      "hit": false,
      "t": 141494.7916666667,
      "d": 127.60416666665697,
      "v": 61
    },
    {
      "midi": 43,
      "hit": false,
      "t": 141500.00000000003,
      "d": 127.60416666665697,
      "v": 78
    },
    {
      "midi": 48,
      "hit": false,
      "t": 141744.7916666667,
      "d": 190.10416666665697,
      "v": 85
    },
    {
      "midi": 36,
      "hit": false,
      "t": 141752.6041666667,
      "d": 190.10416666665697,
      "v": 70
    },
    {
      "midi": 70,
      "hit": false,
      "t": 142000,
      "d": 263.02083333334303,
      "v": 77
    },
    {
      "midi": 75,
      "hit": false,
      "t": 142000,
      "d": 263.02083333334303,
      "v": 74
    },
    {
      "midi": 72,
      "hit": false,
      "t": 142005.20833333334,
      "d": 263.02083333334303,
      "v": 79
    },
    {
      "midi": 48,
      "hit": false,
      "t": 142247.39583333334,
      "d": 244.79166666668607,
      "v": 85
    },
    {
      "midi": 36,
      "hit": false,
      "t": 142255.20833333334,
      "d": 333.33333333334303,
      "v": 71
    },
    {
      "midi": 60,
      "hit": false,
      "t": 142494.7916666667,
      "d": 229.16666666665697,
      "v": 76
    },
    {
      "midi": 63,
      "hit": false,
      "t": 142494.7916666667,
      "d": 229.16666666665697,
      "v": 83
    },
    {
      "midi": 58,
      "hit": false,
      "t": 142502.6041666667,
      "d": 229.16666666665697,
      "v": 83
    },
    {
      "midi": 48,
      "hit": false,
      "t": 142744.7916666667,
      "d": 208.33333333331393,
      "v": 83
    },
    {
      "midi": 36,
      "hit": false,
      "t": 142747.39583333334,
      "d": 208.33333333331393,
      "v": 67
    },
    {
      "midi": 58,
      "hit": false,
      "t": 142994.79166666666,
      "d": 104.16666666668607,
      "v": 81
    },
    {
      "midi": 65,
      "hit": false,
      "t": 143000,
      "d": 104.16666666668607,
      "v": 91
    },
    {
      "midi": 55,
      "hit": false,
      "t": 143005.20833333334,
      "d": 104.16666666668607,
      "v": 79
    },
    {
      "midi": 65,
      "hit": false,
      "t": 143130.20833333337,
      "d": 229.16666666665697,
      "v": 83
    },
    {
      "midi": 31,
      "hit": false,
      "t": 143255.20833333337,
      "d": 208.33333333331393,
      "v": 69
    },
    {
      "midi": 43,
      "hit": false,
      "t": 143255.20833333337,
      "d": 208.33333333331393,
      "v": 84
    },
    {
      "midi": 55,
      "hit": false,
      "t": 143494.7916666667,
      "d": 354.16666666668607,
      "v": 82
    },
    {
      "midi": 58,
      "hit": false,
      "t": 143497.39583333334,
      "d": 354.16666666668607,
      "v": 75
    },
    {
      "midi": 65,
      "hit": false,
      "t": 143497.39583333334,
      "d": 354.16666666668607,
      "v": 88
    },
    {
      "midi": 31,
      "hit": false,
      "t": 143744.7916666667,
      "d": 208.33333333334303,
      "v": 75
    },
    {
      "midi": 43,
      "hit": false,
      "t": 143750.00000000003,
      "d": 208.33333333334303,
      "v": 85
    },
    {
      "midi": 67,
      "hit": false,
      "t": 144000.00000000003,
      "d": 1427.083333333343,
      "v": 102
    },
    {
      "midi": 36,
      "hit": false,
      "t": 144002.6041666667,
      "d": 927.083333333343,
      "v": 76
    },
    {
      "midi": 58,
      "hit": false,
      "t": 144002.6041666667,
      "d": 1427.083333333343,
      "v": 77
    },
    {
      "midi": 63,
      "hit": false,
      "t": 144002.6041666667,
      "d": 1427.083333333343,
      "v": 82
    },
    {
      "midi": 36,
      "hit": false,
      "t": 144994.7916666667,
      "d": 427.08333333334303,
      "v": 77
    },
    {
      "midi": 66,
      "hit": false,
      "t": 145440.1041666667,
      "d": 52.083333333343035,
      "v": 103
    },
    {
      "midi": 65,
      "hit": false,
      "t": 145497.39583333337,
      "d": 239.58333333334303,
      "v": 92
    },
    {
      "midi": 36,
      "hit": false,
      "t": 145502.60416666672,
      "d": 427.08333333334303,
      "v": 79
    },
    {
      "midi": 63,
      "hit": false,
      "t": 145755.20833333337,
      "d": 138.02083333334303,
      "v": 92
    },
    {
      "midi": 57,
      "hit": false,
      "t": 145994.79166666672,
      "d": 1851.562500000029,
      "v": 84
    },
    {
      "midi": 60,
      "hit": false,
      "t": 146000.00000000006,
      "d": 1851.562500000029,
      "v": 80
    },
    {
      "midi": 41,
      "hit": false,
      "t": 146002.60416666672,
      "d": 927.083333333343,
      "v": 85
    },
    {
      "midi": 65,
      "hit": false,
      "t": 146002.60416666672,
      "d": 1851.562500000029,
      "v": 105
    },
    {
      "midi": 36,
      "hit": false,
      "t": 147005.2083333334,
      "d": 427.08333333334303,
      "v": 82
    },
    {
      "midi": 36,
      "hit": false,
      "t": 147497.3958333334,
      "d": 427.08333333334303,
      "v": 81
    },
    {
      "midi": 60,
      "hit": false,
      "t": 147994.79166666674,
      "d": 434.89583333334303,
      "v": 79
    },
    {
      "midi": 65,
      "hit": false,
      "t": 147994.79166666674,
      "d": 434.89583333334303,
      "v": 98
    },
    {
      "midi": 56,
      "hit": false,
      "t": 148000.0000000001,
      "d": 434.89583333334303,
      "v": 76
    },
    {
      "midi": 44,
      "hit": false,
      "t": 148002.60416666674,
      "d": 434.89583333334303,
      "v": 79
    },
    {
      "midi": 56,
      "hit": false,
      "t": 148494.79166666674,
      "d": 419.27083333331393,
      "v": 75
    },
    {
      "midi": 65,
      "hit": false,
      "t": 148497.3958333334,
      "d": 419.27083333331393,
      "v": 93
    },
    {
      "midi": 60,
      "hit": false,
      "t": 148500.00000000006,
      "d": 419.27083333331393,
      "v": 78
    },
    {
      "midi": 44,
      "hit": false,
      "t": 148505.2083333334,
      "d": 419.27083333331393,
      "v": 76
    },
    {
      "midi": 58,
      "hit": false,
      "t": 148997.39583333337,
      "d": 111.97916666665697,
      "v": 77
    },
    {
      "midi": 62,
      "hit": false,
      "t": 148997.39583333337,
      "d": 111.97916666665697,
      "v": 75
    },
    {
      "midi": 34,
      "hit": false,
      "t": 149002.60416666672,
      "d": 111.97916666665697,
      "v": 77
    },
    {
      "midi": 67,
      "hit": false,
      "t": 149005.20833333337,
      "d": 111.97916666665697,
      "v": 96
    },
    {
      "midi": 34,
      "hit": false,
      "t": 149247.39583333337,
      "d": 375,
      "v": 83
    },
    {
      "midi": 58,
      "hit": false,
      "t": 149247.39583333337,
      "d": 375,
      "v": 81
    },
    {
      "midi": 67,
      "hit": false,
      "t": 149247.39583333337,
      "d": 375,
      "v": 99
    },
    {
      "midi": 62,
      "hit": false,
      "t": 149255.20833333337,
      "d": 375,
      "v": 83
    },
    {
      "midi": 58,
      "hit": false,
      "t": 149744.79166666672,
      "d": 1955.7291666666279,
      "v": 82
    },
    {
      "midi": 67,
      "hit": false,
      "t": 149744.79166666672,
      "d": 2080.729166666628,
      "v": 96
    },
    {
      "midi": 63,
      "hit": false,
      "t": 149747.39583333337,
      "d": 2080.729166666628,
      "v": 83
    },
    {
      "midi": 36,
      "hit": false,
      "t": 149997.39583333337,
      "d": 927.0833333333139,
      "v": 79
    },
    {
      "midi": 48,
      "hit": false,
      "t": 150750.00000000003,
      "d": 427.08333333331393,
      "v": 85
    },
    {
      "midi": 48,
      "hit": false,
      "t": 151250,
      "d": 427.08333333334303,
      "v": 77
    },
    {
      "midi": 60,
      "hit": false,
      "t": 151752.6041666667,
      "d": 114.58333333331393,
      "v": 97
    },
    {
      "midi": 60,
      "hit": false,
      "t": 151880.20833333334,
      "d": 114.58333333334303,
      "v": 92
    },
    {
      "midi": 67,
      "hit": false,
      "t": 151994.7916666667,
      "d": 1427.083333333343,
      "v": 105
    },
    {
      "midi": 63,
      "hit": false,
      "t": 151997.39583333334,
      "d": 1427.083333333343,
      "v": 82
    },
    {
      "midi": 58,
      "hit": false,
      "t": 152000,
      "d": 1427.083333333343,
      "v": 77
    },
    {
      "midi": 36,
      "hit": false,
      "t": 152005.20833333334,
      "d": 927.083333333343,
      "v": 80
    },
    {
      "midi": 36,
      "hit": false,
      "t": 152994.7916666667,
      "d": 427.08333333334303,
      "v": 81
    },
    {
      "midi": 66,
      "hit": false,
      "t": 153442.70833333334,
      "d": 52.083333333343035,
      "v": 99
    },
    {
      "midi": 65,
      "hit": false,
      "t": 153497.39583333334,
      "d": 239.58333333334303,
      "v": 99
    },
    {
      "midi": 36,
      "hit": false,
      "t": 153497.39583333334,
      "d": 427.08333333337214,
      "v": 84
    },
    {
      "midi": 63,
      "hit": false,
      "t": 153750.00000000003,
      "d": 138.02083333334303,
      "v": 90
    },
    {
      "midi": 41,
      "hit": false,
      "t": 153997.39583333337,
      "d": 927.083333333343,
      "v": 85
    },
    {
      "midi": 57,
      "hit": false,
      "t": 153997.39583333337,
      "d": 1851.5625,
      "v": 78
    },
    {
      "midi": 65,
      "hit": false,
      "t": 154002.60416666672,
      "d": 1851.5625,
      "v": 98
    },
    {
      "midi": 60,
      "hit": false,
      "t": 154005.20833333337,
      "d": 1851.5625,
      "v": 79
    },
    {
      "midi": 36,
      "hit": false,
      "t": 154994.79166666672,
      "d": 427.08333333334303,
      "v": 77
    },
    {
      "midi": 36,
      "hit": false,
      "t": 155502.60416666672,
      "d": 427.08333333331393,
      "v": 85
    },
    {
      "midi": 56,
      "hit": false,
      "t": 155994.7916666667,
      "d": 434.89583333331393,
      "v": 74
    },
    {
      "midi": 65,
      "hit": false,
      "t": 155994.7916666667,
      "d": 434.89583333331393,
      "v": 100
    },
    {
      "midi": 44,
      "hit": false,
      "t": 156002.6041666667,
      "d": 434.89583333331393,
      "v": 78
    },
    {
      "midi": 60,
      "hit": false,
      "t": 156005.20833333334,
      "d": 434.89583333331393,
      "v": 82
    },
    {
      "midi": 44,
      "hit": false,
      "t": 156494.79166666666,
      "d": 419.27083333331393,
      "v": 79
    },
    {
      "midi": 56,
      "hit": false,
      "t": 156497.3958333333,
      "d": 419.27083333331393,
      "v": 73
    },
    {
      "midi": 60,
      "hit": false,
      "t": 156497.3958333333,
      "d": 419.27083333331393,
      "v": 72
    },
    {
      "midi": 65,
      "hit": false,
      "t": 156505.2083333333,
      "d": 419.27083333331393,
      "v": 100
    },
    {
      "midi": 34,
      "hit": false,
      "t": 156994.79166666663,
      "d": 111.97916666668607,
      "v": 80
    },
    {
      "midi": 67,
      "hit": false,
      "t": 156999.99999999997,
      "d": 111.97916666668607,
      "v": 101
    },
    {
      "midi": 58,
      "hit": false,
      "t": 157005.2083333333,
      "d": 111.97916666668607,
      "v": 75
    },
    {
      "midi": 62,
      "hit": false,
      "t": 157005.2083333333,
      "d": 111.97916666668607,
      "v": 81
    },
    {
      "midi": 58,
      "hit": false,
      "t": 157244.79166666666,
      "d": 375,
      "v": 79
    },
    {
      "midi": 67,
      "hit": false,
      "t": 157244.79166666666,
      "d": 375,
      "v": 101
    },
    {
      "midi": 62,
      "hit": false,
      "t": 157247.3958333333,
      "d": 375,
      "v": 75
    },
    {
      "midi": 34,
      "hit": false,
      "t": 157255.2083333333,
      "d": 375,
      "v": 79
    },
    {
      "midi": 58,
      "hit": false,
      "t": 157744.79166666666,
      "d": 1955.729166666657,
      "v": 81
    },
    {
      "midi": 63,
      "hit": false,
      "t": 157747.3958333333,
      "d": 2080.729166666657,
      "v": 85
    },
    {
      "midi": 67,
      "hit": false,
      "t": 157749.99999999997,
      "d": 2080.729166666657,
      "v": 104
    },
    {
      "midi": 36,
      "hit": false,
      "t": 157994.79166666663,
      "d": 927.083333333343,
      "v": 83
    },
    {
      "midi": 48,
      "hit": false,
      "t": 158752.60416666663,
      "d": 427.08333333334303,
      "v": 78
    },
    {
      "midi": 48,
      "hit": false,
      "t": 159252.60416666663,
      "d": 427.08333333334303,
      "v": 81
    },
    {
      "midi": 60,
      "hit": false,
      "t": 159755.2083333333,
      "d": 104.16666666665697,
      "v": 95
    },
    {
      "midi": 60,
      "hit": false,
      "t": 159880.2083333333,
      "d": 104.16666666665697,
      "v": 92
    },
    {
      "midi": 67,
      "hit": false,
      "t": 159999.99999999997,
      "d": 1427.083333333343,
      "v": 98
    },
    {
      "midi": 36,
      "hit": false,
      "t": 160002.60416666663,
      "d": 927.083333333343,
      "v": 84
    },
    {
      "midi": 58,
      "hit": false,
      "t": 160002.60416666663,
      "d": 1427.083333333343,
      "v": 76
    },
    {
      "midi": 63,
      "hit": false,
      "t": 160002.60416666663,
      "d": 1427.083333333343,
      "v": 81
    },
    {
      "midi": 36,
      "hit": false,
      "t": 160994.79166666663,
      "d": 427.08333333334303,
      "v": 84
    },
    {
      "midi": 66,
      "hit": false,
      "t": 161440.10416666663,
      "d": 52.083333333343035,
      "v": 102
    },
    {
      "midi": 65,
      "hit": false,
      "t": 161497.3958333333,
      "d": 239.58333333334303,
      "v": 99
    },
    {
      "midi": 36,
      "hit": false,
      "t": 161502.60416666666,
      "d": 427.08333333334303,
      "v": 81
    },
    {
      "midi": 63,
      "hit": false,
      "t": 161755.2083333333,
      "d": 138.02083333334303,
      "v": 96
    },
    {
      "midi": 57,
      "hit": false,
      "t": 161994.79166666666,
      "d": 1851.562500000029,
      "v": 80
    },
    {
      "midi": 60,
      "hit": false,
      "t": 162000,
      "d": 1851.562500000029,
      "v": 82
    },
    {
      "midi": 41,
      "hit": false,
      "t": 162002.60416666666,
      "d": 927.083333333343,
      "v": 83
    },
    {
      "midi": 65,
      "hit": false,
      "t": 162002.60416666666,
      "d": 1851.562500000029,
      "v": 105
    },
    {
      "midi": 36,
      "hit": false,
      "t": 163005.20833333334,
      "d": 427.08333333334303,
      "v": 84
    },
    {
      "midi": 36,
      "hit": false,
      "t": 163497.39583333334,
      "d": 427.08333333334303,
      "v": 79
    },
    {
      "midi": 60,
      "hit": false,
      "t": 163994.7916666667,
      "d": 434.89583333334303,
      "v": 79
    },
    {
      "midi": 65,
      "hit": false,
      "t": 163994.7916666667,
      "d": 434.89583333334303,
      "v": 97
    },
    {
      "midi": 56,
      "hit": false,
      "t": 164000.00000000003,
      "d": 434.89583333334303,
      "v": 76
    },
    {
      "midi": 44,
      "hit": false,
      "t": 164002.6041666667,
      "d": 434.89583333334303,
      "v": 76
    },
    {
      "midi": 56,
      "hit": false,
      "t": 164494.7916666667,
      "d": 419.27083333331393,
      "v": 74
    },
    {
      "midi": 65,
      "hit": false,
      "t": 164497.39583333334,
      "d": 419.27083333331393,
      "v": 96
    },
    {
      "midi": 60,
      "hit": false,
      "t": 164500,
      "d": 419.27083333331393,
      "v": 78
    },
    {
      "midi": 44,
      "hit": false,
      "t": 164505.20833333334,
      "d": 419.27083333331393,
      "v": 79
    },
    {
      "midi": 58,
      "hit": false,
      "t": 164997.3958333333,
      "d": 111.97916666665697,
      "v": 76
    },
    {
      "midi": 62,
      "hit": false,
      "t": 164997.3958333333,
      "d": 111.97916666665697,
      "v": 77
    },
    {
      "midi": 34,
      "hit": false,
      "t": 165002.60416666666,
      "d": 111.97916666665697,
      "v": 75
    },
    {
      "midi": 67,
      "hit": false,
      "t": 165005.2083333333,
      "d": 111.97916666665697,
      "v": 102
    },
    {
      "midi": 34,
      "hit": false,
      "t": 165247.3958333333,
      "d": 375,
      "v": 83
    },
    {
      "midi": 58,
      "hit": false,
      "t": 165247.3958333333,
      "d": 375,
      "v": 84
    },
    {
      "midi": 67,
      "hit": false,
      "t": 165247.3958333333,
      "d": 375,
      "v": 104
    },
    {
      "midi": 62,
      "hit": false,
      "t": 165255.2083333333,
      "d": 375,
      "v": 84
    },
    {
      "midi": 58,
      "hit": false,
      "t": 165744.79166666666,
      "d": 1955.7291666666279,
      "v": 79
    },
    {
      "midi": 67,
      "hit": false,
      "t": 165744.79166666666,
      "d": 2080.729166666628,
      "v": 100
    },
    {
      "midi": 63,
      "hit": false,
      "t": 165747.3958333333,
      "d": 2080.729166666628,
      "v": 76
    },
    {
      "midi": 36,
      "hit": false,
      "t": 165997.3958333333,
      "d": 927.0833333333139,
      "v": 77
    },
    {
      "midi": 48,
      "hit": false,
      "t": 166749.99999999997,
      "d": 427.08333333331393,
      "v": 77
    },
    {
      "midi": 48,
      "hit": false,
      "t": 167249.99999999994,
      "d": 427.08333333334303,
      "v": 78
    },
    {
      "midi": 60,
      "hit": false,
      "t": 167752.60416666663,
      "d": 114.58333333331393,
      "v": 92
    },
    {
      "midi": 60,
      "hit": false,
      "t": 167880.20833333328,
      "d": 114.58333333334303,
      "v": 94
    },
    {
      "midi": 67,
      "hit": false,
      "t": 167994.79166666663,
      "d": 1427.083333333343,
      "v": 102
    },
    {
      "midi": 63,
      "hit": false,
      "t": 167997.39583333328,
      "d": 1427.083333333343,
      "v": 76
    },
    {
      "midi": 58,
      "hit": false,
      "t": 167999.99999999994,
      "d": 1427.083333333343,
      "v": 80
    },
    {
      "midi": 36,
      "hit": false,
      "t": 168005.20833333328,
      "d": 927.083333333343,
      "v": 83
    },
    {
      "midi": 36,
      "hit": false,
      "t": 168994.79166666663,
      "d": 427.08333333334303,
      "v": 85
    },
    {
      "midi": 66,
      "hit": false,
      "t": 169442.70833333328,
      "d": 52.083333333343035,
      "v": 95
    },
    {
      "midi": 65,
      "hit": false,
      "t": 169497.39583333328,
      "d": 239.58333333334303,
      "v": 95
    },
    {
      "midi": 36,
      "hit": false,
      "t": 169497.39583333328,
      "d": 427.08333333337214,
      "v": 85
    },
    {
      "midi": 63,
      "hit": false,
      "t": 169749.99999999997,
      "d": 138.02083333334303,
      "v": 97
    },
    {
      "midi": 41,
      "hit": false,
      "t": 169997.3958333333,
      "d": 927.083333333343,
      "v": 76
    },
    {
      "midi": 57,
      "hit": false,
      "t": 169997.3958333333,
      "d": 1851.5625,
      "v": 77
    },
    {
      "midi": 65,
      "hit": false,
      "t": 170002.60416666666,
      "d": 1851.5625,
      "v": 100
    },
    {
      "midi": 60,
      "hit": false,
      "t": 170005.2083333333,
      "d": 1851.5625,
      "v": 76
    },
    {
      "midi": 36,
      "hit": false,
      "t": 170994.79166666666,
      "d": 427.08333333334303,
      "v": 78
    },
    {
      "midi": 36,
      "hit": false,
      "t": 171502.60416666666,
      "d": 427.08333333331393,
      "v": 76
    },
    {
      "midi": 56,
      "hit": false,
      "t": 171994.79166666663,
      "d": 434.89583333331393,
      "v": 76
    },
    {
      "midi": 65,
      "hit": false,
      "t": 171994.79166666663,
      "d": 434.89583333331393,
      "v": 98
    },
    {
      "midi": 44,
      "hit": false,
      "t": 172002.60416666663,
      "d": 434.89583333331393,
      "v": 76
    },
    {
      "midi": 60,
      "hit": false,
      "t": 172005.20833333328,
      "d": 434.89583333331393,
      "v": 73
    },
    {
      "midi": 44,
      "hit": false,
      "t": 172494.7916666666,
      "d": 419.27083333331393,
      "v": 81
    },
    {
      "midi": 56,
      "hit": false,
      "t": 172497.39583333326,
      "d": 419.27083333331393,
      "v": 74
    },
    {
      "midi": 60,
      "hit": false,
      "t": 172497.39583333326,
      "d": 419.27083333331393,
      "v": 76
    },
    {
      "midi": 65,
      "hit": false,
      "t": 172505.20833333326,
      "d": 419.27083333331393,
      "v": 99
    },
    {
      "midi": 34,
      "hit": false,
      "t": 172994.79166666657,
      "d": 111.97916666668607,
      "v": 73
    },
    {
      "midi": 67,
      "hit": false,
      "t": 172999.9999999999,
      "d": 111.97916666668607,
      "v": 100
    },
    {
      "midi": 58,
      "hit": false,
      "t": 173005.20833333326,
      "d": 111.97916666668607,
      "v": 77
    },
    {
      "midi": 62,
      "hit": false,
      "t": 173005.20833333326,
      "d": 111.97916666668607,
      "v": 79
    },
    {
      "midi": 58,
      "hit": false,
      "t": 173244.7916666666,
      "d": 375,
      "v": 76
    },
    {
      "midi": 67,
      "hit": false,
      "t": 173244.7916666666,
      "d": 375,
      "v": 96
    },
    {
      "midi": 62,
      "hit": false,
      "t": 173247.39583333326,
      "d": 375,
      "v": 80
    },
    {
      "midi": 34,
      "hit": false,
      "t": 173255.20833333326,
      "d": 375,
      "v": 80
    },
    {
      "midi": 58,
      "hit": false,
      "t": 173744.7916666666,
      "d": 1955.729166666657,
      "v": 77
    },
    {
      "midi": 63,
      "hit": false,
      "t": 173747.39583333326,
      "d": 2080.729166666657,
      "v": 76
    },
    {
      "midi": 67,
      "hit": false,
      "t": 173749.9999999999,
      "d": 2080.729166666657,
      "v": 98
    },
    {
      "midi": 36,
      "hit": false,
      "t": 173994.79166666657,
      "d": 927.083333333343,
      "v": 84
    },
    {
      "midi": 48,
      "hit": false,
      "t": 174752.60416666657,
      "d": 427.08333333334303,
      "v": 82
    },
    {
      "midi": 48,
      "hit": false,
      "t": 175252.60416666657,
      "d": 427.08333333334303,
      "v": 81
    },
    {
      "midi": 60,
      "hit": false,
      "t": 175755.20833333326,
      "d": 104.16666666665697,
      "v": 88
    },
    {
      "midi": 60,
      "hit": false,
      "t": 175880.20833333326,
      "d": 104.16666666665697,
      "v": 91
    },
    {
      "midi": 67,
      "hit": false,
      "t": 175999.9999999999,
      "d": 1427.083333333343,
      "v": 101
    },
    {
      "midi": 36,
      "hit": false,
      "t": 176002.60416666657,
      "d": 927.083333333343,
      "v": 78
    },
    {
      "midi": 58,
      "hit": false,
      "t": 176002.60416666657,
      "d": 1427.083333333343,
      "v": 81
    },
    {
      "midi": 63,
      "hit": false,
      "t": 176002.60416666657,
      "d": 1427.083333333343,
      "v": 80
    },
    {
      "midi": 36,
      "hit": false,
      "t": 176994.79166666657,
      "d": 427.08333333334303,
      "v": 78
    },
    {
      "midi": 66,
      "hit": false,
      "t": 177440.10416666657,
      "d": 52.083333333343035,
      "v": 97
    },
    {
      "midi": 65,
      "hit": false,
      "t": 177497.39583333326,
      "d": 239.58333333334303,
      "v": 99
    },
    {
      "midi": 36,
      "hit": false,
      "t": 177502.6041666666,
      "d": 427.08333333334303,
      "v": 85
    },
    {
      "midi": 63,
      "hit": false,
      "t": 177755.20833333326,
      "d": 138.02083333334303,
      "v": 98
    },
    {
      "midi": 57,
      "hit": false,
      "t": 177994.7916666666,
      "d": 1851.562500000029,
      "v": 77
    },
    {
      "midi": 60,
      "hit": false,
      "t": 177999.99999999994,
      "d": 1851.562500000029,
      "v": 76
    },
    {
      "midi": 41,
      "hit": false,
      "t": 178002.6041666666,
      "d": 927.083333333343,
      "v": 76
    },
    {
      "midi": 65,
      "hit": false,
      "t": 178002.6041666666,
      "d": 1851.562500000029,
      "v": 104
    },
    {
      "midi": 36,
      "hit": false,
      "t": 179005.20833333328,
      "d": 427.08333333334303,
      "v": 85
    },
    {
      "midi": 36,
      "hit": false,
      "t": 179497.39583333328,
      "d": 427.08333333334303,
      "v": 85
    },
    {
      "midi": 60,
      "hit": false,
      "t": 179994.79166666663,
      "d": 434.89583333334303,
      "v": 81
    },
    {
      "midi": 65,
      "hit": false,
      "t": 179994.79166666663,
      "d": 434.89583333334303,
      "v": 102
    },
    {
      "midi": 56,
      "hit": false,
      "t": 179999.99999999997,
      "d": 434.89583333334303,
      "v": 77
    },
    {
      "midi": 44,
      "hit": false,
      "t": 180002.60416666663,
      "d": 434.89583333334303,
      "v": 76
    },
    {
      "midi": 56,
      "hit": false,
      "t": 180494.79166666663,
      "d": 419.27083333331393,
      "v": 77
    },
    {
      "midi": 65,
      "hit": false,
      "t": 180497.39583333328,
      "d": 419.27083333331393,
      "v": 101
    },
    {
      "midi": 60,
      "hit": false,
      "t": 180499.99999999994,
      "d": 419.27083333331393,
      "v": 76
    },
    {
      "midi": 44,
      "hit": false,
      "t": 180505.20833333328,
      "d": 419.27083333331393,
      "v": 78
    },
    {
      "midi": 58,
      "hit": false,
      "t": 180997.39583333326,
      "d": 111.97916666665697,
      "v": 73
    },
    {
      "midi": 62,
      "hit": false,
      "t": 180997.39583333326,
      "d": 111.97916666665697,
      "v": 78
    },
    {
      "midi": 34,
      "hit": false,
      "t": 181002.6041666666,
      "d": 111.97916666665697,
      "v": 81
    },
    {
      "midi": 67,
      "hit": false,
      "t": 181005.20833333326,
      "d": 111.97916666665697,
      "v": 97
    },
    {
      "midi": 34,
      "hit": false,
      "t": 181247.39583333326,
      "d": 375,
      "v": 81
    },
    {
      "midi": 58,
      "hit": false,
      "t": 181247.39583333326,
      "d": 375,
      "v": 79
    },
    {
      "midi": 67,
      "hit": false,
      "t": 181247.39583333326,
      "d": 375,
      "v": 100
    },
    {
      "midi": 62,
      "hit": false,
      "t": 181255.20833333326,
      "d": 375,
      "v": 84
    },
    {
      "midi": 58,
      "hit": false,
      "t": 181744.7916666666,
      "d": 1955.7291666666279,
      "v": 78
    },
    {
      "midi": 67,
      "hit": false,
      "t": 181744.7916666666,
      "d": 2080.729166666628,
      "v": 100
    },
    {
      "midi": 63,
      "hit": false,
      "t": 181747.39583333326,
      "d": 2080.729166666628,
      "v": 77
    },
    {
      "midi": 36,
      "hit": false,
      "t": 181997.39583333326,
      "d": 927.0833333333139,
      "v": 85
    },
    {
      "midi": 48,
      "hit": false,
      "t": 182749.9999999999,
      "d": 427.08333333331393,
      "v": 76
    },
    {
      "midi": 48,
      "hit": false,
      "t": 183249.99999999988,
      "d": 427.08333333334303,
      "v": 76
    },
    {
      "midi": 60,
      "hit": false,
      "t": 183752.60416666657,
      "d": 114.58333333331393,
      "v": 96
    },
    {
      "midi": 60,
      "hit": false,
      "t": 183880.20833333323,
      "d": 114.58333333334303,
      "v": 93
    },
    {
      "midi": 67,
      "hit": false,
      "t": 183994.79166666657,
      "d": 1427.083333333343,
      "v": 96
    },
    {
      "midi": 63,
      "hit": false,
      "t": 183997.39583333323,
      "d": 1427.083333333343,
      "v": 78
    },
    {
      "midi": 58,
      "hit": false,
      "t": 183999.99999999988,
      "d": 1427.083333333343,
      "v": 77
    },
    {
      "midi": 36,
      "hit": false,
      "t": 184005.20833333323,
      "d": 927.083333333343,
      "v": 81
    },
    {
      "midi": 36,
      "hit": false,
      "t": 184994.79166666657,
      "d": 427.08333333334303,
      "v": 81
    },
    {
      "midi": 66,
      "hit": false,
      "t": 185442.70833333323,
      "d": 52.083333333343035,
      "v": 100
    },
    {
      "midi": 65,
      "hit": false,
      "t": 185497.39583333323,
      "d": 239.58333333334303,
      "v": 92
    },
    {
      "midi": 36,
      "hit": false,
      "t": 185497.39583333323,
      "d": 427.08333333337214,
      "v": 77
    },
    {
      "midi": 63,
      "hit": false,
      "t": 185749.9999999999,
      "d": 138.02083333334303,
      "v": 93
    },
    {
      "midi": 41,
      "hit": false,
      "t": 185997.39583333326,
      "d": 927.083333333343,
      "v": 84
    },
    {
      "midi": 57,
      "hit": false,
      "t": 185997.39583333326,
      "d": 1851.5625,
      "v": 80
    },
    {
      "midi": 65,
      "hit": false,
      "t": 186002.6041666666,
      "d": 1851.5625,
      "v": 97
    },
    {
      "midi": 60,
      "hit": false,
      "t": 186005.20833333326,
      "d": 1851.5625,
      "v": 85
    },
    {
      "midi": 36,
      "hit": false,
      "t": 186994.7916666666,
      "d": 427.08333333334303,
      "v": 82
    },
    {
      "midi": 36,
      "hit": false,
      "t": 187502.6041666666,
      "d": 427.08333333331393,
      "v": 78
    },
    {
      "midi": 56,
      "hit": false,
      "t": 187994.79166666657,
      "d": 434.89583333331393,
      "v": 79
    },
    {
      "midi": 65,
      "hit": false,
      "t": 187994.79166666657,
      "d": 434.89583333331393,
      "v": 102
    },
    {
      "midi": 44,
      "hit": false,
      "t": 188002.60416666657,
      "d": 434.89583333331393,
      "v": 81
    },
    {
      "midi": 60,
      "hit": false,
      "t": 188005.20833333323,
      "d": 434.89583333331393,
      "v": 83
    },
    {
      "midi": 44,
      "hit": false,
      "t": 188494.79166666654,
      "d": 419.27083333331393,
      "v": 76
    },
    {
      "midi": 56,
      "hit": false,
      "t": 188497.3958333332,
      "d": 419.27083333331393,
      "v": 80
    },
    {
      "midi": 60,
      "hit": false,
      "t": 188497.3958333332,
      "d": 419.27083333331393,
      "v": 72
    },
    {
      "midi": 65,
      "hit": false,
      "t": 188505.2083333332,
      "d": 419.27083333331393,
      "v": 100
    },
    {
      "midi": 34,
      "hit": false,
      "t": 188994.7916666665,
      "d": 111.97916666668607,
      "v": 80
    },
    {
      "midi": 67,
      "hit": false,
      "t": 188999.99999999985,
      "d": 111.97916666668607,
      "v": 97
    },
    {
      "midi": 58,
      "hit": false,
      "t": 189005.2083333332,
      "d": 111.97916666668607,
      "v": 74
    },
    {
      "midi": 62,
      "hit": false,
      "t": 189005.2083333332,
      "d": 111.97916666668607,
      "v": 77
    },
    {
      "midi": 58,
      "hit": false,
      "t": 189244.79166666654,
      "d": 375,
      "v": 76
    },
    {
      "midi": 67,
      "hit": false,
      "t": 189244.79166666654,
      "d": 375,
      "v": 95
    },
    {
      "midi": 62,
      "hit": false,
      "t": 189247.3958333332,
      "d": 375,
      "v": 81
    },
    {
      "midi": 34,
      "hit": false,
      "t": 189255.2083333332,
      "d": 375,
      "v": 82
    },
    {
      "midi": 58,
      "hit": false,
      "t": 189744.79166666654,
      "d": 1955.729166666657,
      "v": 76
    },
    {
      "midi": 63,
      "hit": false,
      "t": 189747.3958333332,
      "d": 2080.729166666657,
      "v": 82
    },
    {
      "midi": 67,
      "hit": false,
      "t": 189749.99999999985,
      "d": 2080.729166666657,
      "v": 100
    },
    {
      "midi": 36,
      "hit": false,
      "t": 189994.7916666665,
      "d": 927.083333333343,
      "v": 80
    },
    {
      "midi": 48,
      "hit": false,
      "t": 190752.6041666665,
      "d": 427.08333333334303,
      "v": 76
    },
    {
      "midi": 48,
      "hit": false,
      "t": 191252.6041666665,
      "d": 427.08333333334303,
      "v": 80
    },
    {
      "midi": 60,
      "hit": false,
      "t": 191755.2083333332,
      "d": 104.16666666665697,
      "v": 89
    },
    {
      "midi": 60,
      "hit": false,
      "t": 191880.2083333332,
      "d": 104.16666666665697,
      "v": 94
    },
    {
      "midi": 36,
      "hit": false,
      "t": 191999.99999999985,
      "d": 489.58333333334303,
      "v": 73
    },
    {
      "midi": 72,
      "hit": false,
      "t": 192499.99999999985,
      "d": 184.89583333334303,
      "v": 84
    },
    {
      "midi": 63,
      "hit": false,
      "t": 192499.99999999985,
      "d": 236.97916666668607,
      "v": 72
    },
    {
      "midi": 67,
      "hit": false,
      "t": 192499.99999999985,
      "d": 236.97916666668607,
      "v": 75
    },
    {
      "midi": 31,
      "hit": false,
      "t": 192999.99999999988,
      "d": 489.58333333331393,
      "v": 88
    },
    {
      "midi": 58,
      "hit": false,
      "t": 193249.99999999988,
      "d": 135.41666666665697,
      "v": 80
    },
    {
      "midi": 60,
      "hit": false,
      "t": 193249.99999999988,
      "d": 135.41666666665697,
      "v": 76
    },
    {
      "midi": 65,
      "hit": false,
      "t": 193249.99999999988,
      "d": 135.41666666665697,
      "v": 78
    },
    {
      "midi": 58,
      "hit": false,
      "t": 193624.99999999985,
      "d": 328.125,
      "v": 79
    },
    {
      "midi": 60,
      "hit": false,
      "t": 193624.99999999985,
      "d": 328.125,
      "v": 75
    },
    {
      "midi": 65,
      "hit": false,
      "t": 193624.99999999985,
      "d": 328.125,
      "v": 74
    },
    {
      "midi": 36,
      "hit": false,
      "t": 193999.99999999985,
      "d": 187.5,
      "v": 84
    },
    {
      "midi": 36,
      "hit": false,
      "t": 194249.99999999985,
      "d": 187.5,
      "v": 73
    },
    {
      "midi": 79,
      "hit": false,
      "t": 194419.2708333332,
      "d": 59.89583333331393,
      "v": 78
    },
    {
      "midi": 75,
      "hit": false,
      "t": 194499.99999999985,
      "d": 111.97916666665697,
      "v": 76
    },
    {
      "midi": 79,
      "hit": false,
      "t": 194499.99999999985,
      "d": 111.97916666665697,
      "v": 75
    },
    {
      "midi": 84,
      "hit": false,
      "t": 194499.99999999985,
      "d": 111.97916666665697,
      "v": 73
    },
    {
      "midi": 36,
      "hit": false,
      "t": 194749.99999999985,
      "d": 187.5,
      "v": 69
    },
    {
      "midi": 31,
      "hit": false,
      "t": 194999.99999999985,
      "d": 489.58333333334303,
      "v": 88
    },
    {
      "midi": 65,
      "hit": false,
      "t": 195249.99999999985,
      "d": 260.41666666668607,
      "v": 75
    },
    {
      "midi": 72,
      "hit": false,
      "t": 195249.99999999985,
      "d": 260.41666666668607,
      "v": 77
    },
    {
      "midi": 77,
      "hit": false,
      "t": 195249.99999999985,
      "d": 260.41666666668607,
      "v": 79
    },
    {
      "midi": 65,
      "hit": false,
      "t": 195624.99999999988,
      "d": 328.125,
      "v": 75
    },
    {
      "midi": 72,
      "hit": false,
      "t": 195624.99999999988,
      "d": 328.125,
      "v": 74
    },
    {
      "midi": 77,
      "hit": false,
      "t": 195624.99999999988,
      "d": 328.125,
      "v": 77
    },
    {
      "midi": 36,
      "hit": false,
      "t": 195999.99999999988,
      "d": 187.5,
      "v": 84
    },
    {
      "midi": 36,
      "hit": false,
      "t": 196249.99999999988,
      "d": 187.5,
      "v": 76
    },
    {
      "midi": 79,
      "hit": false,
      "t": 196419.27083333323,
      "d": 59.89583333331393,
      "v": 76
    },
    {
      "midi": 75,
      "hit": false,
      "t": 196499.99999999988,
      "d": 111.97916666665697,
      "v": 73
    },
    {
      "midi": 79,
      "hit": false,
      "t": 196499.99999999988,
      "d": 111.97916666665697,
      "v": 76
    },
    {
      "midi": 84,
      "hit": false,
      "t": 196499.99999999988,
      "d": 111.97916666665697,
      "v": 75
    },
    {
      "midi": 75,
      "hit": false,
      "t": 196749.99999999988,
      "d": 111.97916666665697,
      "v": 74
    },
    {
      "midi": 79,
      "hit": false,
      "t": 196749.99999999988,
      "d": 111.97916666665697,
      "v": 75
    },
    {
      "midi": 84,
      "hit": false,
      "t": 196749.99999999988,
      "d": 111.97916666665697,
      "v": 71
    },
    {
      "midi": 36,
      "hit": false,
      "t": 196749.99999999988,
      "d": 187.5,
      "v": 74
    },
    {
      "midi": 31,
      "hit": false,
      "t": 196999.99999999988,
      "d": 489.58333333334303,
      "v": 87
    },
    {
      "midi": 65,
      "hit": false,
      "t": 197249.99999999988,
      "d": 260.41666666668607,
      "v": 79
    },
    {
      "midi": 72,
      "hit": false,
      "t": 197249.99999999988,
      "d": 260.41666666668607,
      "v": 81
    },
    {
      "midi": 77,
      "hit": false,
      "t": 197249.99999999988,
      "d": 260.41666666668607,
      "v": 81
    },
    {
      "midi": 65,
      "hit": false,
      "t": 197624.9999999999,
      "d": 328.125,
      "v": 82
    },
    {
      "midi": 72,
      "hit": false,
      "t": 197624.9999999999,
      "d": 328.125,
      "v": 77
    },
    {
      "midi": 77,
      "hit": false,
      "t": 197624.9999999999,
      "d": 328.125,
      "v": 81
    },
    {
      "midi": 36,
      "hit": false,
      "t": 197999.9999999999,
      "d": 187.5,
      "v": 80
    },
    {
      "midi": 36,
      "hit": false,
      "t": 198249.9999999999,
      "d": 187.5,
      "v": 74
    },
    {
      "midi": 79,
      "hit": false,
      "t": 198419.27083333326,
      "d": 59.89583333331393,
      "v": 76
    },
    {
      "midi": 75,
      "hit": false,
      "t": 198499.9999999999,
      "d": 85.9375,
      "v": 72
    },
    {
      "midi": 79,
      "hit": false,
      "t": 198499.9999999999,
      "d": 85.9375,
      "v": 70
    },
    {
      "midi": 84,
      "hit": false,
      "t": 198499.9999999999,
      "d": 85.9375,
      "v": 76
    },
    {
      "midi": 75,
      "hit": false,
      "t": 198624.9999999999,
      "d": 111.97916666665697,
      "v": 78
    },
    {
      "midi": 79,
      "hit": false,
      "t": 198624.9999999999,
      "d": 111.97916666665697,
      "v": 79
    },
    {
      "midi": 84,
      "hit": false,
      "t": 198624.9999999999,
      "d": 111.97916666665697,
      "v": 73
    },
    {
      "midi": 36,
      "hit": false,
      "t": 198749.9999999999,
      "d": 187.5,
      "v": 69
    },
    {
      "midi": 31,
      "hit": false,
      "t": 198999.9999999999,
      "d": 489.58333333334303,
      "v": 82
    },
    {
      "midi": 65,
      "hit": false,
      "t": 199249.9999999999,
      "d": 260.41666666668607,
      "v": 77
    },
    {
      "midi": 72,
      "hit": false,
      "t": 199249.9999999999,
      "d": 260.41666666668607,
      "v": 80
    },
    {
      "midi": 77,
      "hit": false,
      "t": 199249.9999999999,
      "d": 260.41666666668607,
      "v": 82
    },
    {
      "midi": 65,
      "hit": false,
      "t": 199624.99999999994,
      "d": 328.125,
      "v": 79
    },
    {
      "midi": 72,
      "hit": false,
      "t": 199624.99999999994,
      "d": 328.125,
      "v": 82
    },
    {
      "midi": 77,
      "hit": false,
      "t": 199624.99999999994,
      "d": 328.125,
      "v": 79
    },
    {
      "midi": 36,
      "hit": false,
      "t": 199999.99999999994,
      "d": 187.5,
      "v": 82
    },
    {
      "midi": 36,
      "hit": false,
      "t": 200249.99999999994,
      "d": 187.5,
      "v": 75
    },
    {
      "midi": 63,
      "hit": false,
      "t": 200499.99999999994,
      "d": 39.0625,
      "v": 77
    },
    {
      "midi": 72,
      "hit": false,
      "t": 200499.99999999994,
      "d": 39.0625,
      "v": 84
    },
    {
      "midi": 75,
      "hit": false,
      "t": 200499.99999999994,
      "d": 39.0625,
      "v": 83
    },
    {
      "midi": 67,
      "hit": false,
      "t": 200666.6666666666,
      "d": 85.9375,
      "v": 74
    },
    {
      "midi": 75,
      "hit": false,
      "t": 200666.6666666666,
      "d": 85.9375,
      "v": 71
    },
    {
      "midi": 79,
      "hit": false,
      "t": 200666.6666666666,
      "d": 85.9375,
      "v": 75
    },
    {
      "midi": 36,
      "hit": false,
      "t": 200749.99999999994,
      "d": 187.5,
      "v": 78
    },
    {
      "midi": 65,
      "hit": false,
      "t": 200874.99999999994,
      "d": 111.97916666665697,
      "v": 78
    },
    {
      "midi": 74,
      "hit": false,
      "t": 200874.99999999994,
      "d": 111.97916666665697,
      "v": 70
    },
    {
      "midi": 77,
      "hit": false,
      "t": 200874.99999999994,
      "d": 111.97916666665697,
      "v": 79
    },
    {
      "midi": 31,
      "hit": false,
      "t": 200999.99999999994,
      "d": 489.58333333334303,
      "v": 87
    },
    {
      "midi": 65,
      "hit": false,
      "t": 201249.99999999994,
      "d": 203.125,
      "v": 75
    },
    {
      "midi": 74,
      "hit": false,
      "t": 201249.99999999994,
      "d": 203.125,
      "v": 82
    },
    {
      "midi": 77,
      "hit": false,
      "t": 201249.99999999994,
      "d": 203.125,
      "v": 75
    },
    {
      "midi": 65,
      "hit": false,
      "t": 201656.24999999994,
      "d": 57.291666666656965,
      "v": 77
    },
    {
      "midi": 74,
      "hit": false,
      "t": 201656.24999999994,
      "d": 57.291666666656965,
      "v": 77
    },
    {
      "midi": 77,
      "hit": false,
      "t": 201656.24999999994,
      "d": 57.291666666656965,
      "v": 75
    },
    {
      "midi": 65,
      "hit": false,
      "t": 201749.99999999994,
      "d": 203.125,
      "v": 77
    },
    {
      "midi": 74,
      "hit": false,
      "t": 201749.99999999994,
      "d": 203.125,
      "v": 75
    },
    {
      "midi": 77,
      "hit": false,
      "t": 201749.99999999994,
      "d": 203.125,
      "v": 76
    },
    {
      "midi": 36,
      "hit": false,
      "t": 201999.99999999994,
      "d": 187.5,
      "v": 81
    },
    {
      "midi": 36,
      "hit": false,
      "t": 202249.99999999994,
      "d": 187.5,
      "v": 77
    },
    {
      "midi": 63,
      "hit": false,
      "t": 202499.99999999994,
      "d": 39.0625,
      "v": 79
    },
    {
      "midi": 72,
      "hit": false,
      "t": 202499.99999999994,
      "d": 39.0625,
      "v": 76
    },
    {
      "midi": 75,
      "hit": false,
      "t": 202499.99999999994,
      "d": 39.0625,
      "v": 78
    },
    {
      "midi": 67,
      "hit": false,
      "t": 202666.6666666666,
      "d": 85.9375,
      "v": 78
    },
    {
      "midi": 75,
      "hit": false,
      "t": 202666.6666666666,
      "d": 85.9375,
      "v": 78
    },
    {
      "midi": 79,
      "hit": false,
      "t": 202666.6666666666,
      "d": 85.9375,
      "v": 76
    },
    {
      "midi": 36,
      "hit": false,
      "t": 202749.99999999994,
      "d": 187.5,
      "v": 74
    },
    {
      "midi": 65,
      "hit": false,
      "t": 202874.99999999994,
      "d": 111.97916666665697,
      "v": 74
    },
    {
      "midi": 74,
      "hit": false,
      "t": 202874.99999999994,
      "d": 111.97916666665697,
      "v": 77
    },
    {
      "midi": 77,
      "hit": false,
      "t": 202874.99999999994,
      "d": 111.97916666665697,
      "v": 76
    },
    {
      "midi": 31,
      "hit": false,
      "t": 202999.99999999994,
      "d": 489.58333333334303,
      "v": 82
    },
    {
      "midi": 65,
      "hit": false,
      "t": 203249.99999999994,
      "d": 203.125,
      "v": 76
    },
    {
      "midi": 74,
      "hit": false,
      "t": 203249.99999999994,
      "d": 203.125,
      "v": 79
    },
    {
      "midi": 77,
      "hit": false,
      "t": 203249.99999999994,
      "d": 203.125,
      "v": 77
    },
    {
      "midi": 65,
      "hit": false,
      "t": 203656.24999999994,
      "d": 57.291666666656965,
      "v": 72
    },
    {
      "midi": 74,
      "hit": false,
      "t": 203656.24999999994,
      "d": 57.291666666656965,
      "v": 79
    },
    {
      "midi": 77,
      "hit": false,
      "t": 203656.24999999994,
      "d": 57.291666666656965,
      "v": 75
    },
    {
      "midi": 65,
      "hit": false,
      "t": 203749.99999999994,
      "d": 203.125,
      "v": 75
    },
    {
      "midi": 74,
      "hit": false,
      "t": 203749.99999999994,
      "d": 203.125,
      "v": 83
    },
    {
      "midi": 77,
      "hit": false,
      "t": 203749.99999999994,
      "d": 203.125,
      "v": 75
    },
    {
      "midi": 36,
      "hit": false,
      "t": 203999.99999999994,
      "d": 187.5,
      "v": 88
    },
    {
      "midi": 36,
      "hit": false,
      "t": 204249.99999999994,
      "d": 187.5,
      "v": 75
    },
    {
      "midi": 51,
      "hit": false,
      "t": 204499.99999999994,
      "d": 39.0625,
      "v": 76
    },
    {
      "midi": 60,
      "hit": false,
      "t": 204499.99999999994,
      "d": 39.0625,
      "v": 83
    },
    {
      "midi": 63,
      "hit": false,
      "t": 204499.99999999994,
      "d": 39.0625,
      "v": 79
    },
    {
      "midi": 55,
      "hit": false,
      "t": 204666.6666666666,
      "d": 85.9375,
      "v": 72
    },
    {
      "midi": 63,
      "hit": false,
      "t": 204666.6666666666,
      "d": 85.9375,
      "v": 72
    },
    {
      "midi": 67,
      "hit": false,
      "t": 204666.6666666666,
      "d": 85.9375,
      "v": 74
    },
    {
      "midi": 36,
      "hit": false,
      "t": 204749.99999999994,
      "d": 187.5,
      "v": 78
    },
    {
      "midi": 65,
      "hit": false,
      "t": 204874.99999999994,
      "d": 111.97916666665697,
      "v": 74
    },
    {
      "midi": 69,
      "hit": false,
      "t": 204874.99999999994,
      "d": 111.97916666665697,
      "v": 80
    },
    {
      "midi": 72,
      "hit": false,
      "t": 204874.99999999994,
      "d": 111.97916666665697,
      "v": 70
    },
    {
      "midi": 31,
      "hit": false,
      "t": 204999.99999999994,
      "d": 489.58333333334303,
      "v": 82
    },
    {
      "midi": 65,
      "hit": false,
      "t": 205249.99999999994,
      "d": 203.125,
      "v": 83
    },
    {
      "midi": 69,
      "hit": false,
      "t": 205249.99999999994,
      "d": 203.125,
      "v": 83
    },
    {
      "midi": 72,
      "hit": false,
      "t": 205249.99999999994,
      "d": 203.125,
      "v": 84
    },
    {
      "midi": 65,
      "hit": false,
      "t": 205656.24999999994,
      "d": 57.291666666656965,
      "v": 72
    },
    {
      "midi": 69,
      "hit": false,
      "t": 205656.24999999994,
      "d": 57.291666666656965,
      "v": 76
    },
    {
      "midi": 72,
      "hit": false,
      "t": 205656.24999999994,
      "d": 57.291666666656965,
      "v": 75
    },
    {
      "midi": 65,
      "hit": false,
      "t": 205749.99999999994,
      "d": 203.125,
      "v": 76
    },
    {
      "midi": 69,
      "hit": false,
      "t": 205749.99999999994,
      "d": 203.125,
      "v": 80
    },
    {
      "midi": 72,
      "hit": false,
      "t": 205749.99999999994,
      "d": 203.125,
      "v": 79
    },
    {
      "midi": 36,
      "hit": false,
      "t": 205999.99999999994,
      "d": 187.5,
      "v": 84
    },
    {
      "midi": 36,
      "hit": false,
      "t": 206249.99999999994,
      "d": 437.5,
      "v": 72
    },
    {
      "midi": 63,
      "hit": false,
      "t": 206499.99999999994,
      "d": 59.895833333343035,
      "v": 80
    },
    {
      "midi": 70,
      "hit": false,
      "t": 206499.99999999994,
      "d": 59.895833333343035,
      "v": 84
    },
    {
      "midi": 74,
      "hit": false,
      "t": 206499.99999999994,
      "d": 59.895833333343035,
      "v": 81
    },
    {
      "midi": 63,
      "hit": false,
      "t": 206624.99999999994,
      "d": 111.97916666665697,
      "v": 71
    },
    {
      "midi": 70,
      "hit": false,
      "t": 206624.99999999994,
      "d": 111.97916666665697,
      "v": 74
    },
    {
      "midi": 74,
      "hit": false,
      "t": 206624.99999999994,
      "d": 111.97916666665697,
      "v": 72
    },
    {
      "midi": 63,
      "hit": false,
      "t": 206874.99999999994,
      "d": 218.75,
      "v": 76
    },
    {
      "midi": 70,
      "hit": false,
      "t": 206874.99999999994,
      "d": 218.75,
      "v": 77
    },
    {
      "midi": 74,
      "hit": false,
      "t": 206874.99999999994,
      "d": 218.75,
      "v": 80
    },
    {
      "midi": 31,
      "hit": false,
      "t": 206999.99999999994,
      "d": 489.58333333334303,
      "v": 89
    },
    {
      "midi": 65,
      "hit": false,
      "t": 207249.99999999994,
      "d": 260.41666666668607,
      "v": 83
    },
    {
      "midi": 69,
      "hit": false,
      "t": 207249.99999999994,
      "d": 260.41666666668607,
      "v": 80
    },
    {
      "midi": 72,
      "hit": false,
      "t": 207249.99999999994,
      "d": 260.41666666668607,
      "v": 79
    },
    {
      "midi": 65,
      "hit": false,
      "t": 207624.99999999997,
      "d": 328.125,
      "v": 80
    },
    {
      "midi": 69,
      "hit": false,
      "t": 207624.99999999997,
      "d": 328.125,
      "v": 76
    },
    {
      "midi": 72,
      "hit": false,
      "t": 207624.99999999997,
      "d": 328.125,
      "v": 79
    },
    {
      "midi": 36,
      "hit": false,
      "t": 207999.99999999997,
      "d": 187.5,
      "v": 80
    },
    {
      "midi": 36,
      "hit": false,
      "t": 208249.99999999997,
      "d": 437.5,
      "v": 75
    },
    {
      "midi": 63,
      "hit": false,
      "t": 208499.99999999997,
      "d": 59.895833333343035,
      "v": 75
    },
    {
      "midi": 70,
      "hit": false,
      "t": 208499.99999999997,
      "d": 59.895833333343035,
      "v": 76
    },
    {
      "midi": 74,
      "hit": false,
      "t": 208499.99999999997,
      "d": 59.895833333343035,
      "v": 78
    },
    {
      "midi": 63,
      "hit": false,
      "t": 208624.99999999997,
      "d": 111.97916666665697,
      "v": 74
    },
    {
      "midi": 70,
      "hit": false,
      "t": 208624.99999999997,
      "d": 111.97916666665697,
      "v": 77
    },
    {
      "midi": 74,
      "hit": false,
      "t": 208624.99999999997,
      "d": 111.97916666665697,
      "v": 79
    },
    {
      "midi": 63,
      "hit": false,
      "t": 208874.99999999997,
      "d": 218.75,
      "v": 75
    },
    {
      "midi": 70,
      "hit": false,
      "t": 208874.99999999997,
      "d": 218.75,
      "v": 79
    },
    {
      "midi": 74,
      "hit": false,
      "t": 208874.99999999997,
      "d": 218.75,
      "v": 85
    },
    {
      "midi": 31,
      "hit": false,
      "t": 208999.99999999997,
      "d": 489.58333333334303,
      "v": 88
    },
    {
      "midi": 65,
      "hit": false,
      "t": 209249.99999999997,
      "d": 260.41666666668607,
      "v": 83
    },
    {
      "midi": 69,
      "hit": false,
      "t": 209249.99999999997,
      "d": 260.41666666668607,
      "v": 79
    },
    {
      "midi": 72,
      "hit": false,
      "t": 209249.99999999997,
      "d": 260.41666666668607,
      "v": 77
    },
    {
      "midi": 65,
      "hit": false,
      "t": 209625,
      "d": 328.125,
      "v": 76
    },
    {
      "midi": 69,
      "hit": false,
      "t": 209625,
      "d": 328.125,
      "v": 83
    },
    {
      "midi": 72,
      "hit": false,
      "t": 209625,
      "d": 328.125,
      "v": 78
    },
    {
      "midi": 36,
      "hit": false,
      "t": 210000,
      "d": 187.5,
      "v": 82
    },
    {
      "midi": 36,
      "hit": false,
      "t": 210250,
      "d": 437.5,
      "v": 72
    },
    {
      "midi": 63,
      "hit": false,
      "t": 210500,
      "d": 59.895833333343035,
      "v": 83
    },
    {
      "midi": 70,
      "hit": false,
      "t": 210500,
      "d": 59.895833333343035,
      "v": 78
    },
    {
      "midi": 74,
      "hit": false,
      "t": 210500,
      "d": 59.895833333343035,
      "v": 81
    },
    {
      "midi": 63,
      "hit": false,
      "t": 210625,
      "d": 111.97916666665697,
      "v": 71
    },
    {
      "midi": 70,
      "hit": false,
      "t": 210625,
      "d": 111.97916666665697,
      "v": 75
    },
    {
      "midi": 74,
      "hit": false,
      "t": 210625,
      "d": 111.97916666665697,
      "v": 72
    },
    {
      "midi": 63,
      "hit": false,
      "t": 210875,
      "d": 218.75,
      "v": 84
    },
    {
      "midi": 70,
      "hit": false,
      "t": 210875,
      "d": 218.75,
      "v": 75
    },
    {
      "midi": 74,
      "hit": false,
      "t": 210875,
      "d": 218.75,
      "v": 83
    },
    {
      "midi": 31,
      "hit": false,
      "t": 211000,
      "d": 489.58333333334303,
      "v": 89
    },
    {
      "midi": 65,
      "hit": false,
      "t": 211250,
      "d": 260.41666666668607,
      "v": 81
    },
    {
      "midi": 69,
      "hit": false,
      "t": 211250,
      "d": 260.41666666668607,
      "v": 79
    },
    {
      "midi": 72,
      "hit": false,
      "t": 211250,
      "d": 260.41666666668607,
      "v": 82
    },
    {
      "midi": 65,
      "hit": false,
      "t": 211625.00000000003,
      "d": 328.125,
      "v": 79
    },
    {
      "midi": 69,
      "hit": false,
      "t": 211625.00000000003,
      "d": 328.125,
      "v": 79
    },
    {
      "midi": 72,
      "hit": false,
      "t": 211625.00000000003,
      "d": 328.125,
      "v": 76
    },
    {
      "midi": 36,
      "hit": false,
      "t": 212000.00000000003,
      "d": 187.5,
      "v": 87
    },
    {
      "midi": 36,
      "hit": false,
      "t": 212250.00000000003,
      "d": 437.5,
      "v": 79
    },
    {
      "midi": 63,
      "hit": false,
      "t": 212500.00000000003,
      "d": 59.895833333343035,
      "v": 84
    },
    {
      "midi": 70,
      "hit": false,
      "t": 212500.00000000003,
      "d": 59.895833333343035,
      "v": 83
    },
    {
      "midi": 74,
      "hit": false,
      "t": 212500.00000000003,
      "d": 59.895833333343035,
      "v": 77
    },
    {
      "midi": 63,
      "hit": false,
      "t": 212625.00000000003,
      "d": 111.97916666665697,
      "v": 72
    },
    {
      "midi": 70,
      "hit": false,
      "t": 212625.00000000003,
      "d": 111.97916666665697,
      "v": 78
    },
    {
      "midi": 74,
      "hit": false,
      "t": 212625.00000000003,
      "d": 111.97916666665697,
      "v": 73
    },
    {
      "midi": 63,
      "hit": false,
      "t": 212875.00000000003,
      "d": 218.75,
      "v": 79
    },
    {
      "midi": 70,
      "hit": false,
      "t": 212875.00000000003,
      "d": 218.75,
      "v": 76
    },
    {
      "midi": 74,
      "hit": false,
      "t": 212875.00000000003,
      "d": 218.75,
      "v": 78
    },
    {
      "midi": 31,
      "hit": false,
      "t": 213000.00000000003,
      "d": 489.58333333334303,
      "v": 81
    },
    {
      "midi": 65,
      "hit": false,
      "t": 213250.00000000003,
      "d": 260.41666666668607,
      "v": 82
    },
    {
      "midi": 69,
      "hit": false,
      "t": 213250.00000000003,
      "d": 260.41666666668607,
      "v": 84
    },
    {
      "midi": 72,
      "hit": false,
      "t": 213250.00000000003,
      "d": 260.41666666668607,
      "v": 80
    },
    {
      "midi": 65,
      "hit": false,
      "t": 213625.00000000006,
      "d": 328.125,
      "v": 75
    },
    {
      "midi": 69,
      "hit": false,
      "t": 213625.00000000006,
      "d": 328.125,
      "v": 78
    },
    {
      "midi": 72,
      "hit": false,
      "t": 213625.00000000006,
      "d": 328.125,
      "v": 76
    },
    {
      "midi": 36,
      "hit": false,
      "t": 214000.00000000006,
      "d": 187.5,
      "v": 85
    },
    {
      "midi": 36,
      "hit": false,
      "t": 214250.00000000006,
      "d": 437.5,
      "v": 79
    },
    {
      "midi": 63,
      "hit": false,
      "t": 214500.00000000006,
      "d": 59.895833333343035,
      "v": 84
    },
    {
      "midi": 70,
      "hit": false,
      "t": 214500.00000000006,
      "d": 59.895833333343035,
      "v": 79
    },
    {
      "midi": 74,
      "hit": false,
      "t": 214500.00000000006,
      "d": 59.895833333343035,
      "v": 79
    },
    {
      "midi": 63,
      "hit": false,
      "t": 214625.00000000006,
      "d": 111.97916666665697,
      "v": 75
    },
    {
      "midi": 70,
      "hit": false,
      "t": 214625.00000000006,
      "d": 111.97916666665697,
      "v": 76
    },
    {
      "midi": 74,
      "hit": false,
      "t": 214625.00000000006,
      "d": 111.97916666665697,
      "v": 70
    },
    {
      "midi": 63,
      "hit": false,
      "t": 214875.00000000006,
      "d": 218.75,
      "v": 79
    },
    {
      "midi": 70,
      "hit": false,
      "t": 214875.00000000006,
      "d": 218.75,
      "v": 77
    },
    {
      "midi": 74,
      "hit": false,
      "t": 214875.00000000006,
      "d": 218.75,
      "v": 82
    },
    {
      "midi": 31,
      "hit": false,
      "t": 215000.00000000006,
      "d": 489.58333333334303,
      "v": 84
    },
    {
      "midi": 65,
      "hit": false,
      "t": 215250.00000000006,
      "d": 260.41666666668607,
      "v": 78
    },
    {
      "midi": 69,
      "hit": false,
      "t": 215250.00000000006,
      "d": 260.41666666668607,
      "v": 76
    },
    {
      "midi": 72,
      "hit": false,
      "t": 215250.00000000006,
      "d": 260.41666666668607,
      "v": 82
    },
    {
      "midi": 65,
      "hit": false,
      "t": 215625.0000000001,
      "d": 328.125,
      "v": 76
    },
    {
      "midi": 69,
      "hit": false,
      "t": 215625.0000000001,
      "d": 328.125,
      "v": 79
    },
    {
      "midi": 72,
      "hit": false,
      "t": 215625.0000000001,
      "d": 328.125,
      "v": 79
    },
    {
      "midi": 36,
      "hit": false,
      "t": 216000.0000000001,
      "d": 187.5,
      "v": 86
    },
    {
      "midi": 36,
      "hit": false,
      "t": 216250.0000000001,
      "d": 437.5,
      "v": 78
    },
    {
      "midi": 63,
      "hit": false,
      "t": 216500.0000000001,
      "d": 59.895833333343035,
      "v": 84
    },
    {
      "midi": 70,
      "hit": false,
      "t": 216500.0000000001,
      "d": 59.895833333343035,
      "v": 81
    },
    {
      "midi": 74,
      "hit": false,
      "t": 216500.0000000001,
      "d": 59.895833333343035,
      "v": 79
    },
    {
      "midi": 63,
      "hit": false,
      "t": 216625.0000000001,
      "d": 111.97916666665697,
      "v": 77
    },
    {
      "midi": 70,
      "hit": false,
      "t": 216625.0000000001,
      "d": 111.97916666665697,
      "v": 78
    },
    {
      "midi": 74,
      "hit": false,
      "t": 216625.0000000001,
      "d": 111.97916666665697,
      "v": 78
    },
    {
      "midi": 63,
      "hit": false,
      "t": 216875.0000000001,
      "d": 218.75,
      "v": 83
    },
    {
      "midi": 70,
      "hit": false,
      "t": 216875.0000000001,
      "d": 218.75,
      "v": 77
    },
    {
      "midi": 74,
      "hit": false,
      "t": 216875.0000000001,
      "d": 218.75,
      "v": 75
    },
    {
      "midi": 31,
      "hit": false,
      "t": 217000.0000000001,
      "d": 489.58333333334303,
      "v": 80
    },
    {
      "midi": 65,
      "hit": false,
      "t": 217250.0000000001,
      "d": 260.41666666668607,
      "v": 80
    },
    {
      "midi": 69,
      "hit": false,
      "t": 217250.0000000001,
      "d": 260.41666666668607,
      "v": 75
    },
    {
      "midi": 72,
      "hit": false,
      "t": 217250.0000000001,
      "d": 260.41666666668607,
      "v": 84
    },
    {
      "midi": 65,
      "hit": false,
      "t": 217625.00000000012,
      "d": 328.125,
      "v": 80
    },
    {
      "midi": 69,
      "hit": false,
      "t": 217625.00000000012,
      "d": 328.125,
      "v": 81
    },
    {
      "midi": 72,
      "hit": false,
      "t": 217625.00000000012,
      "d": 328.125,
      "v": 78
    },
    {
      "midi": 36,
      "hit": false,
      "t": 218000.00000000012,
      "d": 187.5,
      "v": 82
    },
    {
      "midi": 36,
      "hit": false,
      "t": 218250.00000000012,
      "d": 437.5,
      "v": 78
    },
    {
      "midi": 70,
      "hit": false,
      "t": 218500.00000000012,
      "d": 59.895833333343035,
      "v": 83
    },
    {
      "midi": 74,
      "hit": false,
      "t": 218500.00000000012,
      "d": 59.895833333343035,
      "v": 75
    },
    {
      "midi": 79,
      "hit": false,
      "t": 218500.00000000012,
      "d": 59.895833333343035,
      "v": 80
    },
    {
      "midi": 70,
      "hit": false,
      "t": 218625.00000000012,
      "d": 111.97916666665697,
      "v": 78
    },
    {
      "midi": 74,
      "hit": false,
      "t": 218625.00000000012,
      "d": 111.97916666665697,
      "v": 70
    },
    {
      "midi": 79,
      "hit": false,
      "t": 218625.00000000012,
      "d": 111.97916666665697,
      "v": 71
    },
    {
      "midi": 70,
      "hit": false,
      "t": 218875.00000000012,
      "d": 218.75,
      "v": 80
    },
    {
      "midi": 74,
      "hit": false,
      "t": 218875.00000000012,
      "d": 218.75,
      "v": 83
    },
    {
      "midi": 79,
      "hit": false,
      "t": 218875.00000000012,
      "d": 218.75,
      "v": 85
    },
    {
      "midi": 31,
      "hit": false,
      "t": 219000.00000000012,
      "d": 489.58333333334303,
      "v": 85
    },
    {
      "midi": 69,
      "hit": false,
      "t": 219250.00000000012,
      "d": 260.41666666668607,
      "v": 80
    },
    {
      "midi": 72,
      "hit": false,
      "t": 219250.00000000012,
      "d": 260.41666666668607,
      "v": 77
    },
    {
      "midi": 77,
      "hit": false,
      "t": 219250.00000000012,
      "d": 260.41666666668607,
      "v": 82
    },
    {
      "midi": 69,
      "hit": false,
      "t": 219625.00000000015,
      "d": 328.125,
      "v": 76
    },
    {
      "midi": 72,
      "hit": false,
      "t": 219625.00000000015,
      "d": 328.125,
      "v": 79
    },
    {
      "midi": 77,
      "hit": false,
      "t": 219625.00000000015,
      "d": 328.125,
      "v": 83
    },
    {
      "midi": 36,
      "hit": false,
      "t": 220000.00000000015,
      "d": 187.5,
      "v": 87
    },
    {
      "midi": 36,
      "hit": false,
      "t": 220250.00000000015,
      "d": 437.5,
      "v": 71
    },
    {
      "midi": 70,
      "hit": false,
      "t": 220500.00000000015,
      "d": 59.895833333343035,
      "v": 81
    },
    {
      "midi": 74,
      "hit": false,
      "t": 220500.00000000015,
      "d": 59.895833333343035,
      "v": 79
    },
    {
      "midi": 79,
      "hit": false,
      "t": 220500.00000000015,
      "d": 59.895833333343035,
      "v": 78
    },
    {
      "midi": 70,
      "hit": false,
      "t": 220625.00000000015,
      "d": 111.97916666665697,
      "v": 74
    },
    {
      "midi": 74,
      "hit": false,
      "t": 220625.00000000015,
      "d": 111.97916666665697,
      "v": 79
    },
    {
      "midi": 79,
      "hit": false,
      "t": 220625.00000000015,
      "d": 111.97916666665697,
      "v": 77
    },
    {
      "midi": 70,
      "hit": false,
      "t": 220875.00000000015,
      "d": 218.75,
      "v": 75
    },
    {
      "midi": 74,
      "hit": false,
      "t": 220875.00000000015,
      "d": 218.75,
      "v": 82
    },
    {
      "midi": 79,
      "hit": false,
      "t": 220875.00000000015,
      "d": 218.75,
      "v": 81
    },
    {
      "midi": 31,
      "hit": false,
      "t": 221000.00000000015,
      "d": 489.58333333334303,
      "v": 82
    },
    {
      "midi": 69,
      "hit": false,
      "t": 221250.00000000015,
      "d": 260.41666666668607,
      "v": 83
    },
    {
      "midi": 72,
      "hit": false,
      "t": 221250.00000000015,
      "d": 260.41666666668607,
      "v": 78
    },
    {
      "midi": 77,
      "hit": false,
      "t": 221250.00000000015,
      "d": 260.41666666668607,
      "v": 80
    },
    {
      "midi": 69,
      "hit": false,
      "t": 221625.00000000017,
      "d": 328.125,
      "v": 84
    },
    {
      "midi": 72,
      "hit": false,
      "t": 221625.00000000017,
      "d": 328.125,
      "v": 77
    },
    {
      "midi": 77,
      "hit": false,
      "t": 221625.00000000017,
      "d": 328.125,
      "v": 83
    },
    {
      "midi": 79,
      "hit": false,
      "t": 222000,
      "d": 1427.083333333343,
      "v": 114
    },
    {
      "midi": 48,
      "hit": false,
      "t": 222002.60416666666,
      "d": 927.083333333343,
      "v": 96
    },
    {
      "midi": 70,
      "hit": false,
      "t": 222002.60416666666,
      "d": 1427.083333333343,
      "v": 109
    },
    {
      "midi": 75,
      "hit": false,
      "t": 222002.60416666666,
      "d": 1427.083333333343,
      "v": 93
    },
    {
      "midi": 48,
      "hit": false,
      "t": 222994.79166666666,
      "d": 427.08333333334303,
      "v": 97
    },
    {
      "midi": 78,
      "hit": false,
      "t": 223440.10416666666,
      "d": 52.083333333343035,
      "v": 102
    },
    {
      "midi": 77,
      "hit": false,
      "t": 223497.39583333334,
      "d": 239.58333333334303,
      "v": 108
    },
    {
      "midi": 48,
      "hit": false,
      "t": 223502.6041666667,
      "d": 427.08333333334303,
      "v": 95
    },
    {
      "midi": 75,
      "hit": false,
      "t": 223755.20833333334,
      "d": 138.02083333334303,
      "v": 113
    },
    {
      "midi": 69,
      "hit": false,
      "t": 223994.7916666667,
      "d": 1851.562500000029,
      "v": 95
    },
    {
      "midi": 72,
      "hit": false,
      "t": 224000.00000000003,
      "d": 1851.562500000029,
      "v": 90
    },
    {
      "midi": 53,
      "hit": false,
      "t": 224002.6041666667,
      "d": 927.083333333343,
      "v": 88
    },
    {
      "midi": 77,
      "hit": false,
      "t": 224002.6041666667,
      "d": 1851.562500000029,
      "v": 113
    },
    {
      "midi": 48,
      "hit": false,
      "t": 225005.20833333337,
      "d": 427.08333333334303,
      "v": 93
    },
    {
      "midi": 48,
      "hit": false,
      "t": 225497.39583333337,
      "d": 427.08333333334303,
      "v": 94
    },
    {
      "midi": 60,
      "hit": false,
      "t": 225994.79166666672,
      "d": 434.89583333334303,
      "v": 96
    },
    {
      "midi": 65,
      "hit": false,
      "t": 225994.79166666672,
      "d": 434.89583333334303,
      "v": 110
    },
    {
      "midi": 56,
      "hit": false,
      "t": 226000.00000000006,
      "d": 434.89583333334303,
      "v": 96
    },
    {
      "midi": 44,
      "hit": false,
      "t": 226002.60416666672,
      "d": 434.89583333334303,
      "v": 89
    },
    {
      "midi": 56,
      "hit": false,
      "t": 226494.79166666672,
      "d": 419.27083333331393,
      "v": 90
    },
    {
      "midi": 65,
      "hit": false,
      "t": 226497.39583333337,
      "d": 419.27083333331393,
      "v": 113
    },
    {
      "midi": 60,
      "hit": false,
      "t": 226500.00000000003,
      "d": 419.27083333331393,
      "v": 94
    },
    {
      "midi": 44,
      "hit": false,
      "t": 226505.20833333337,
      "d": 419.27083333331393,
      "v": 88
    },
    {
      "midi": 58,
      "hit": false,
      "t": 226997.39583333334,
      "d": 111.97916666665697,
      "v": 87
    },
    {
      "midi": 62,
      "hit": false,
      "t": 226997.39583333334,
      "d": 111.97916666665697,
      "v": 92
    },
    {
      "midi": 34,
      "hit": false,
      "t": 227002.6041666667,
      "d": 111.97916666665697,
      "v": 89
    },
    {
      "midi": 67,
      "hit": false,
      "t": 227005.20833333334,
      "d": 111.97916666665697,
      "v": 116
    },
    {
      "midi": 34,
      "hit": false,
      "t": 227247.39583333334,
      "d": 375,
      "v": 94
    },
    {
      "midi": 58,
      "hit": false,
      "t": 227247.39583333334,
      "d": 375,
      "v": 97
    },
    {
      "midi": 67,
      "hit": false,
      "t": 227247.39583333334,
      "d": 375,
      "v": 111
    },
    {
      "midi": 62,
      "hit": false,
      "t": 227255.20833333334,
      "d": 375,
      "v": 95
    },
    {
      "midi": 58,
      "hit": false,
      "t": 227744.7916666667,
      "d": 1955.7291666666279,
      "v": 95
    },
    {
      "midi": 67,
      "hit": false,
      "t": 227744.7916666667,
      "d": 2080.729166666628,
      "v": 118
    },
    {
      "midi": 63,
      "hit": false,
      "t": 227747.39583333334,
      "d": 2080.729166666628,
      "v": 91
    },
    {
      "midi": 36,
      "hit": false,
      "t": 227997.39583333334,
      "d": 927.0833333333139,
      "v": 91
    },
    {
      "midi": 60,
      "hit": false,
      "t": 228750,
      "d": 427.08333333331393,
      "v": 91
    },
    {
      "midi": 60,
      "hit": false,
      "t": 229249.99999999997,
      "d": 427.08333333334303,
      "v": 93
    },
    {
      "midi": 66,
      "hit": false,
      "t": 229999.99999999997,
      "d": 114.58333333334303,
      "v": 122
    },
    {
      "midi": 48,
      "hit": false,
      "t": 230005.2083333333,
      "d": 927.0833333333139,
      "v": 95
    },
    {
      "midi": 67,
      "hit": false,
      "t": 230124.99999999997,
      "d": 91.14583333334303,
      "v": 113
    },
    {
      "midi": 75,
      "hit": false,
      "t": 230249.99999999997,
      "d": 989.5833333333139,
      "v": 117
    },
    {
      "midi": 48,
      "hit": false,
      "t": 230994.79166666663,
      "d": 427.08333333331393,
      "v": 88
    },
    {
      "midi": 74,
      "hit": false,
      "t": 231249.99999999994,
      "d": 239.58333333334303,
      "v": 121
    },
    {
      "midi": 48,
      "hit": false,
      "t": 231497.39583333328,
      "d": 427.08333333331393,
      "v": 90
    },
    {
      "midi": 72,
      "hit": false,
      "t": 231499.99999999994,
      "d": 239.58333333334303,
      "v": 108
    },
    {
      "midi": 70,
      "hit": false,
      "t": 231749.99999999994,
      "d": 239.58333333331393,
      "v": 109
    },
    {
      "midi": 53,
      "hit": false,
      "t": 231997.39583333326,
      "d": 927.0833333333139,
      "v": 89
    },
    {
      "midi": 65,
      "hit": false,
      "t": 231997.39583333326,
      "d": 1851.562499999971,
      "v": 88
    },
    {
      "midi": 69,
      "hit": false,
      "t": 231999.9999999999,
      "d": 1447.916666666657,
      "v": 115
    },
    {
      "midi": 48,
      "hit": false,
      "t": 232994.79166666657,
      "d": 427.08333333334303,
      "v": 97
    },
    {
      "midi": 48,
      "hit": false,
      "t": 233502.60416666657,
      "d": 427.08333333331393,
      "v": 90
    },
    {
      "midi": 65,
      "hit": false,
      "t": 233963.54166666654,
      "d": 26.041666666656965,
      "v": 97
    },
    {
      "midi": 67,
      "hit": false,
      "t": 233999.99999999985,
      "d": 239.58333333331393,
      "v": 108
    },
    {
      "midi": 56,
      "hit": false,
      "t": 234002.6041666665,
      "d": 434.89583333331393,
      "v": 94
    },
    {
      "midi": 63,
      "hit": false,
      "t": 234249.99999999983,
      "d": 239.58333333334303,
      "v": 104
    },
    {
      "midi": 56,
      "hit": false,
      "t": 234494.7916666665,
      "d": 419.27083333334303,
      "v": 87
    },
    {
      "midi": 65,
      "hit": false,
      "t": 234499.99999999985,
      "d": 447.91666666665697,
      "v": 111
    },
    {
      "midi": 46,
      "hit": false,
      "t": 234994.7916666665,
      "d": 111.97916666668607,
      "v": 96
    },
    {
      "midi": 63,
      "hit": false,
      "t": 234999.99999999985,
      "d": 239.58333333334303,
      "v": 106
    },
    {
      "midi": 60,
      "hit": false,
      "t": 235249.99999999985,
      "d": 239.58333333334303,
      "v": 114
    },
    {
      "midi": 46,
      "hit": false,
      "t": 235255.2083333332,
      "d": 375,
      "v": 96
    },
    {
      "midi": 62,
      "hit": false,
      "t": 235499.99999999985,
      "d": 338.54166666668607,
      "v": 112
    },
    {
      "midi": 58,
      "hit": false,
      "t": 235874.99999999988,
      "d": 109.375,
      "v": 113
    },
    {
      "midi": 48,
      "hit": false,
      "t": 235994.79166666654,
      "d": 927.083333333343,
      "v": 96
    },
    {
      "midi": 60,
      "hit": false,
      "t": 235999.99999999988,
      "d": 1239.583333333343,
      "v": 115
    },
    {
      "midi": 48,
      "hit": false,
      "t": 238002.60416666657,
      "d": 927.0833333332848,
      "v": 95
    },
    {
      "midi": 60,
      "hit": false,
      "t": 238242.1874999999,
      "d": 80.72916666665697,
      "v": 110
    },
    {
      "midi": 55,
      "hit": false,
      "t": 238416.66666666657,
      "d": 80.72916666665697,
      "v": 101
    },
    {
      "midi": 58,
      "hit": false,
      "t": 238507.81249999988,
      "d": 111.97916666665697,
      "v": 110
    },
    {
      "midi": 60,
      "hit": false,
      "t": 238666.66666666654,
      "d": 111.97916666665697,
      "v": 108
    },
    {
      "midi": 62,
      "hit": false,
      "t": 238914.06249999985,
      "d": 119.79166666665697,
      "v": 114
    },
    {
      "midi": 48,
      "hit": false,
      "t": 238994.7916666665,
      "d": 427.0833333332848,
      "v": 96
    },
    {
      "midi": 62,
      "hit": false,
      "t": 239174.4791666665,
      "d": 72.91666666665697,
      "v": 111
    },
    {
      "midi": 63,
      "hit": false,
      "t": 239257.81249999983,
      "d": 72.91666666665697,
      "v": 109
    },
    {
      "midi": 62,
      "hit": false,
      "t": 239341.14583333314,
      "d": 72.91666666665697,
      "v": 104
    },
    {
      "midi": 60,
      "hit": false,
      "t": 239424.47916666645,
      "d": 72.91666666665697,
      "v": 106
    },
    {
      "midi": 48,
      "hit": false,
      "t": 239502.60416666645,
      "d": 427.08333333334303,
      "v": 90
    },
    {
      "midi": 62,
      "hit": false,
      "t": 239507.8124999998,
      "d": 111.97916666665697,
      "v": 112
    },
    {
      "midi": 63,
      "hit": false,
      "t": 239664.0624999998,
      "d": 111.97916666665697,
      "v": 105
    },
    {
      "midi": 65,
      "hit": false,
      "t": 239914.0624999998,
      "d": 119.79166666665697,
      "v": 106
    },
    {
      "midi": 53,
      "hit": false,
      "t": 240002.60416666645,
      "d": 927.083333333343,
      "v": 91
    },
    {
      "midi": 66,
      "hit": false,
      "t": 240252.60416666645,
      "d": 130.20833333334303,
      "v": 117
    },
    {
      "midi": 67,
      "hit": false,
      "t": 240393.22916666645,
      "d": 85.9375,
      "v": 111
    },
    {
      "midi": 67,
      "hit": false,
      "t": 240507.8124999998,
      "d": 156.25,
      "v": 117
    },
    {
      "midi": 66,
      "hit": false,
      "t": 240747.39583333314,
      "d": 101.5625,
      "v": 114
    },
    {
      "midi": 67,
      "hit": false,
      "t": 240864.58333333314,
      "d": 83.33333333331393,
      "v": 116
    },
    {
      "midi": 48,
      "hit": false,
      "t": 241005.2083333331,
      "d": 427.08333333334303,
      "v": 91
    },
    {
      "midi": 67,
      "hit": false,
      "t": 241018.22916666645,
      "d": 145.83333333334303,
      "v": 108
    },
    {
      "midi": 70,
      "hit": false,
      "t": 241174.47916666645,
      "d": 153.64583333334303,
      "v": 119
    },
    {
      "midi": 67,
      "hit": false,
      "t": 241424.47916666645,
      "d": 80.72916666665697,
      "v": 115
    },
    {
      "midi": 48,
      "hit": false,
      "t": 241497.3958333331,
      "d": 427.08333333331393,
      "v": 96
    },
    {
      "midi": 70,
      "hit": false,
      "t": 241515.62499999977,
      "d": 236.97916666665697,
      "v": 121
    },
    {
      "midi": 72,
      "hit": false,
      "t": 241763.02083333308,
      "d": 192.70833333334303,
      "v": 105
    },
    {
      "midi": 56,
      "hit": false,
      "t": 242002.60416666642,
      "d": 434.89583333331393,
      "v": 89
    },
    {
      "midi": 75,
      "hit": false,
      "t": 242018.22916666642,
      "d": 143.22916666665697,
      "v": 119
    },
    {
      "midi": 70,
      "hit": false,
      "t": 242265.62499999974,
      "d": 210.9375,
      "v": 113
    },
    {
      "midi": 56,
      "hit": false,
      "t": 242505.20833333308,
      "d": 419.27083333334303,
      "v": 89
    },
    {
      "midi": 72,
      "hit": false,
      "t": 242510.41666666642,
      "d": 239.58333333334303,
      "v": 105
    },
    {
      "midi": 75,
      "hit": false,
      "t": 242760.41666666642,
      "d": 169.27083333334303,
      "v": 106
    },
    {
      "midi": 46,
      "hit": false,
      "t": 243002.60416666642,
      "d": 111.97916666665697,
      "v": 92
    },
    {
      "midi": 77,
      "hit": false,
      "t": 243018.22916666642,
      "d": 242.1875,
      "v": 112
    },
    {
      "midi": 46,
      "hit": false,
      "t": 243247.39583333308,
      "d": 375,
      "v": 93
    },
    {
      "midi": 75,
      "hit": false,
      "t": 243276.04166666642,
      "d": 151.04166666665697,
      "v": 102
    },
    {
      "midi": 77,
      "hit": false,
      "t": 243507.81249999974,
      "d": 244.79166666668607,
      "v": 120
    },
    {
      "midi": 75,
      "hit": false,
      "t": 243770.83333333308,
      "d": 91.14583333334303,
      "v": 109
    },
    {
      "midi": 78,
      "hit": false,
      "t": 243934.89583333308,
      "d": 57.291666666656965,
      "v": 107
    },
    {
      "midi": 48,
      "hit": false,
      "t": 243997.39583333308,
      "d": 927.0833333333139,
      "v": 92
    },
    {
      "midi": 79,
      "hit": false,
      "t": 244002.60416666642,
      "d": 260.41666666665697,
      "v": 110
    },
    {
      "midi": 82,
      "hit": false,
      "t": 244273.43749999974,
      "d": 210.9375,
      "v": 116
    },
    {
      "midi": 79,
      "hit": false,
      "t": 244513.02083333308,
      "d": 106.77083333334303,
      "v": 109
    },
    {
      "midi": 78,
      "hit": false,
      "t": 244630.20833333308,
      "d": 117.1875,
      "v": 106
    },
    {
      "midi": 60,
      "hit": false,
      "t": 244749.99999999974,
      "d": 427.08333333331393,
      "v": 97
    },
    {
      "midi": 77,
      "hit": false,
      "t": 244757.81249999974,
      "d": 125,
      "v": 109
    },
    {
      "midi": 75,
      "hit": false,
      "t": 244893.2291666664,
      "d": 54.6875,
      "v": 108
    },
    {
      "midi": 77,
      "hit": false,
      "t": 245010.4166666664,
      "d": 255.20833333331393,
      "v": 114
    },
    {
      "midi": 60,
      "hit": false,
      "t": 245249.9999999997,
      "d": 427.08333333334303,
      "v": 91
    },
    {
      "midi": 72,
      "hit": false,
      "t": 245276.04166666637,
      "d": 223.95833333334303,
      "v": 107
    },
    {
      "midi": 77,
      "hit": false,
      "t": 245513.02083333305,
      "d": 106.77083333334303,
      "v": 109
    },
    {
      "midi": 75,
      "hit": false,
      "t": 245630.20833333305,
      "d": 117.1875,
      "v": 108
    },
    {
      "midi": 72,
      "hit": false,
      "t": 245757.8124999997,
      "d": 125,
      "v": 114
    },
    {
      "midi": 70,
      "hit": false,
      "t": 245893.22916666637,
      "d": 179.6875,
      "v": 110
    },
    {
      "midi": 48,
      "hit": false,
      "t": 246005.20833333302,
      "d": 927.0833333333139,
      "v": 97
    },
    {
      "midi": 79,
      "hit": false,
      "t": 246257.8124999997,
      "d": 223.95833333334303,
      "v": 121
    },
    {
      "midi": 84,
      "hit": false,
      "t": 246257.8124999997,
      "d": 239.58333333334303,
      "v": 112
    },
    {
      "midi": 72,
      "hit": false,
      "t": 246507.8124999997,
      "d": 72.91666666665697,
      "v": 114
    },
    {
      "midi": 79,
      "hit": false,
      "t": 246674.47916666637,
      "d": 229.16666666665697,
      "v": 113
    },
    {
      "midi": 84,
      "hit": false,
      "t": 246674.47916666637,
      "d": 229.16666666665697,
      "v": 107
    },
    {
      "midi": 72,
      "hit": false,
      "t": 246914.06249999968,
      "d": 70.3125,
      "v": 114
    },
    {
      "midi": 48,
      "hit": false,
      "t": 246994.79166666634,
      "d": 427.08333333331393,
      "v": 95
    },
    {
      "midi": 79,
      "hit": false,
      "t": 247015.62499999968,
      "d": 244.79166666665697,
      "v": 111
    },
    {
      "midi": 84,
      "hit": false,
      "t": 247015.62499999968,
      "d": 244.79166666665697,
      "v": 106
    },
    {
      "midi": 72,
      "hit": false,
      "t": 247270.833333333,
      "d": 78.125,
      "v": 107
    },
    {
      "midi": 79,
      "hit": false,
      "t": 247403.645833333,
      "d": 10.416666666656965,
      "v": 111
    },
    {
      "midi": 77,
      "hit": false,
      "t": 247424.4791666663,
      "d": 231.77083333331393,
      "v": 113
    },
    {
      "midi": 84,
      "hit": false,
      "t": 247424.4791666663,
      "d": 239.58333333331393,
      "v": 106
    },
    {
      "midi": 48,
      "hit": false,
      "t": 247497.39583333296,
      "d": 427.08333333331393,
      "v": 93
    },
    {
      "midi": 75,
      "hit": false,
      "t": 247674.47916666628,
      "d": 83.33333333334303,
      "v": 101
    },
    {
      "midi": 77,
      "hit": false,
      "t": 247768.22916666628,
      "d": 127.60416666665697,
      "v": 107
    },
    {
      "midi": 84,
      "hit": false,
      "t": 247768.22916666628,
      "d": 127.60416666665697,
      "v": 99
    },
    {
      "midi": 53,
      "hit": false,
      "t": 247997.39583333294,
      "d": 927.0833333332848,
      "v": 91
    },
    {
      "midi": 77,
      "hit": false,
      "t": 248007.8124999996,
      "d": 135.41666666665697,
      "v": 116
    },
    {
      "midi": 75,
      "hit": false,
      "t": 248153.6458333329,
      "d": 93.75,
      "v": 113
    },
    {
      "midi": 72,
      "hit": false,
      "t": 248257.81249999956,
      "d": 83.33333333334303,
      "v": 107
    },
    {
      "midi": 77,
      "hit": false,
      "t": 248403.6458333329,
      "d": 93.75,
      "v": 114
    },
    {
      "midi": 75,
      "hit": false,
      "t": 248507.81249999956,
      "d": 125,
      "v": 96
    },
    {
      "midi": 72,
      "hit": false,
      "t": 248653.6458333329,
      "d": 93.75,
      "v": 100
    },
    {
      "midi": 77,
      "hit": false,
      "t": 248757.81249999956,
      "d": 135.41666666665697,
      "v": 118
    },
    {
      "midi": 75,
      "hit": false,
      "t": 248903.64583333288,
      "d": 93.75,
      "v": 104
    },
    {
      "midi": 48,
      "hit": false,
      "t": 248994.79166666622,
      "d": 427.0833333332848,
      "v": 89
    },
    {
      "midi": 72,
      "hit": false,
      "t": 249007.81249999953,
      "d": 75.52083333334303,
      "v": 112
    },
    {
      "midi": 77,
      "hit": false,
      "t": 249153.64583333288,
      "d": 93.75,
      "v": 116
    },
    {
      "midi": 75,
      "hit": false,
      "t": 249257.81249999953,
      "d": 127.60416666665697,
      "v": 105
    },
    {
      "midi": 72,
      "hit": false,
      "t": 249403.64583333285,
      "d": 93.75,
      "v": 118
    },
    {
      "midi": 48,
      "hit": false,
      "t": 249502.6041666662,
      "d": 427.08333333334303,
      "v": 90
    },
    {
      "midi": 70,
      "hit": false,
      "t": 249507.81249999953,
      "d": 236.97916666665697,
      "v": 120
    },
    {
      "midi": 72,
      "hit": false,
      "t": 249757.81249999953,
      "d": 156.25,
      "v": 112
    },
    {
      "midi": 56,
      "hit": false,
      "t": 250002.6041666662,
      "d": 434.89583333331393,
      "v": 96
    },
    {
      "midi": 70,
      "hit": false,
      "t": 250007.81249999953,
      "d": 135.41666666665697,
      "v": 126
    },
    {
      "midi": 72,
      "hit": false,
      "t": 250153.64583333285,
      "d": 93.75,
      "v": 112
    },
    {
      "midi": 67,
      "hit": false,
      "t": 250257.8124999995,
      "d": 239.58333333331393,
      "v": 98
    },
    {
      "midi": 56,
      "hit": false,
      "t": 250494.79166666616,
      "d": 419.27083333331393,
      "v": 90
    },
    {
      "midi": 70,
      "hit": false,
      "t": 250507.81249999948,
      "d": 239.58333333334303,
      "v": 115
    },
    {
      "midi": 67,
      "hit": false,
      "t": 250757.81249999948,
      "d": 101.5625,
      "v": 110
    },
    {
      "midi": 68,
      "hit": false,
      "t": 250903.64583333282,
      "d": 93.7499999999709,
      "v": 112
    },
    {
      "midi": 46,
      "hit": false,
      "t": 250994.79166666613,
      "d": 111.97916666665697,
      "v": 96
    },
    {
      "midi": 67,
      "hit": false,
      "t": 251007.81249999945,
      "d": 83.33333333334303,
      "v": 113
    },
    {
      "midi": 65,
      "hit": false,
      "t": 251153.6458333328,
      "d": 93.75,
      "v": 107
    },
    {
      "midi": 46,
      "hit": false,
      "t": 251255.2083333328,
      "d": 374.9999999999709,
      "v": 90
    },
    {
      "midi": 67,
      "hit": false,
      "t": 251257.81249999945,
      "d": 135.41666666665697,
      "v": 112
    },
    {
      "midi": 65,
      "hit": false,
      "t": 251403.64583333276,
      "d": 239.58333333334303,
      "v": 116
    },
    {
      "midi": 63,
      "hit": false,
      "t": 251653.64583333276,
      "d": 239.58333333334303,
      "v": 114
    },
    {
      "midi": 60,
      "hit": false,
      "t": 251903.64583333276,
      "d": 85.9375,
      "v": 110
    },
    {
      "midi": 48,
      "hit": false,
      "t": 251994.7916666661,
      "d": 927.0833333333139,
      "v": 96
    },
    {
      "midi": 65,
      "hit": false,
      "t": 252007.81249999945,
      "d": 83.33333333334303,
      "v": 115
    },
    {
      "midi": 63,
      "hit": false,
      "t": 252153.6458333328,
      "d": 93.75,
      "v": 115
    },
    {
      "midi": 60,
      "hit": false,
      "t": 252257.81249999945,
      "d": 135.41666666665697,
      "v": 110
    },
    {
      "midi": 58,
      "hit": false,
      "t": 252403.64583333276,
      "d": 343.75,
      "v": 118
    },
    {
      "midi": 60,
      "hit": false,
      "t": 252757.81249999942,
      "d": 445.3125,
      "v": 101
    },
    {
      "midi": 58,
      "hit": false,
      "t": 253257.81249999942,
      "d": 239.58333333334303,
      "v": 98
    },
    {
      "midi": 60,
      "hit": false,
      "t": 253507.81249999942,
      "d": 455.72916666665697,
      "v": 122
    },
    {
      "midi": 48,
      "hit": false,
      "t": 254002.60416666607,
      "d": 927.0833333333139,
      "v": 84
    },
    {
      "midi": 79,
      "hit": false,
      "t": 254260.41666666607,
      "d": 223.95833333334303,
      "v": 104
    },
    {
      "midi": 84,
      "hit": false,
      "t": 254260.41666666607,
      "d": 239.58333333334303,
      "v": 99
    },
    {
      "midi": 72,
      "hit": false,
      "t": 254510.41666666607,
      "d": 72.91666666665697,
      "v": 97
    },
    {
      "midi": 79,
      "hit": false,
      "t": 254677.08333333273,
      "d": 229.16666666665697,
      "v": 105
    },
    {
      "midi": 84,
      "hit": false,
      "t": 254677.08333333273,
      "d": 229.16666666665697,
      "v": 96
    },
    {
      "midi": 72,
      "hit": false,
      "t": 254916.66666666605,
      "d": 70.3125,
      "v": 102
    },
    {
      "midi": 48,
      "hit": false,
      "t": 254994.79166666605,
      "d": 427.08333333331393,
      "v": 84
    },
    {
      "midi": 79,
      "hit": false,
      "t": 255018.22916666605,
      "d": 244.79166666665697,
      "v": 102
    },
    {
      "midi": 84,
      "hit": false,
      "t": 255018.22916666605,
      "d": 244.79166666665697,
      "v": 95
    },
    {
      "midi": 72,
      "hit": false,
      "t": 255273.43749999936,
      "d": 78.125,
      "v": 100
    },
    {
      "midi": 79,
      "hit": false,
      "t": 255406.24999999936,
      "d": 10.416666666656965,
      "v": 100
    },
    {
      "midi": 84,
      "hit": false,
      "t": 255427.0833333327,
      "d": 239.58333333334303,
      "v": 96
    },
    {
      "midi": 77,
      "hit": false,
      "t": 255427.0833333327,
      "d": 356.77083333334303,
      "v": 100
    },
    {
      "midi": 48,
      "hit": false,
      "t": 255502.60416666605,
      "d": 427.08333333334303,
      "v": 87
    },
    {
      "midi": 75,
      "hit": false,
      "t": 255755.2083333327,
      "d": 208.33333333334303,
      "v": 92
    },
    {
      "midi": 53,
      "hit": false,
      "t": 256002.60416666605,
      "d": 927.0833333333139,
      "v": 85
    },
    {
      "midi": 79,
      "hit": false,
      "t": 256260.41666666605,
      "d": 223.95833333334303,
      "v": 107
    },
    {
      "midi": 84,
      "hit": false,
      "t": 256260.41666666605,
      "d": 239.58333333334303,
      "v": 99
    },
    {
      "midi": 72,
      "hit": false,
      "t": 256510.41666666605,
      "d": 72.91666666665697,
      "v": 103
    },
    {
      "midi": 79,
      "hit": false,
      "t": 256677.0833333327,
      "d": 229.16666666665697,
      "v": 104
    },
    {
      "midi": 84,
      "hit": false,
      "t": 256677.0833333327,
      "d": 229.16666666665697,
      "v": 95
    },
    {
      "midi": 72,
      "hit": false,
      "t": 256916.66666666602,
      "d": 70.3125,
      "v": 99
    },
    {
      "midi": 48,
      "hit": false,
      "t": 257005.20833333267,
      "d": 427.08333333331393,
      "v": 87
    },
    {
      "midi": 79,
      "hit": false,
      "t": 257018.22916666602,
      "d": 244.79166666665697,
      "v": 103
    },
    {
      "midi": 84,
      "hit": false,
      "t": 257018.22916666602,
      "d": 244.79166666665697,
      "v": 89
    },
    {
      "midi": 72,
      "hit": false,
      "t": 257273.43749999933,
      "d": 78.125,
      "v": 99
    },
    {
      "midi": 79,
      "hit": false,
      "t": 257406.24999999933,
      "d": 10.416666666656965,
      "v": 100
    },
    {
      "midi": 77,
      "hit": false,
      "t": 257427.08333333264,
      "d": 231.77083333334303,
      "v": 97
    },
    {
      "midi": 84,
      "hit": false,
      "t": 257427.08333333264,
      "d": 239.58333333334303,
      "v": 104
    },
    {
      "midi": 48,
      "hit": false,
      "t": 257497.39583333264,
      "d": 427.08333333331393,
      "v": 81
    },
    {
      "midi": 75,
      "hit": false,
      "t": 257677.08333333264,
      "d": 83.33333333334303,
      "v": 88
    },
    {
      "midi": 77,
      "hit": false,
      "t": 257770.83333333264,
      "d": 127.60416666665697,
      "v": 97
    },
    {
      "midi": 84,
      "hit": false,
      "t": 257770.83333333264,
      "d": 127.60416666665697,
      "v": 91
    },
    {
      "midi": 56,
      "hit": false,
      "t": 258002.60416666596,
      "d": 434.89583333331393,
      "v": 87
    },
    {
      "midi": 82,
      "hit": false,
      "t": 258260.41666666596,
      "d": 135.41666666665697,
      "v": 106
    },
    {
      "midi": 79,
      "hit": false,
      "t": 258406.24999999927,
      "d": 93.75,
      "v": 97
    },
    {
      "midi": 56,
      "hit": false,
      "t": 258505.20833333262,
      "d": 419.27083333334303,
      "v": 81
    },
    {
      "midi": 77,
      "hit": false,
      "t": 258510.41666666596,
      "d": 83.33333333334303,
      "v": 93
    },
    {
      "midi": 75,
      "hit": false,
      "t": 258656.2499999993,
      "d": 93.75,
      "v": 96
    },
    {
      "midi": 72,
      "hit": false,
      "t": 258760.41666666596,
      "d": 125,
      "v": 87
    },
    {
      "midi": 77,
      "hit": false,
      "t": 258906.2499999993,
      "d": 145.83333333331393,
      "v": 101
    },
    {
      "midi": 46,
      "hit": false,
      "t": 259002.60416666596,
      "d": 111.97916666665697,
      "v": 82
    },
    {
      "midi": 77,
      "hit": false,
      "t": 259156.24999999927,
      "d": 166.66666666668607,
      "v": 105
    },
    {
      "midi": 46,
      "hit": false,
      "t": 259247.39583333262,
      "d": 375,
      "v": 79
    },
    {
      "midi": 75,
      "hit": false,
      "t": 259406.2499999993,
      "d": 145.83333333331393,
      "v": 101
    },
    {
      "midi": 77,
      "hit": false,
      "t": 259510.41666666596,
      "d": 208.33333333331393,
      "v": 99
    },
    {
      "midi": 75,
      "hit": false,
      "t": 259760.41666666593,
      "d": 125,
      "v": 90
    },
    {
      "midi": 48,
      "hit": false,
      "t": 259997.3958333326,
      "d": 927.0833333332557,
      "v": 84
    },
    {
      "midi": 78,
      "hit": false,
      "t": 260010.41666666593,
      "d": 98.95833333334303,
      "v": 97
    },
    {
      "midi": 79,
      "hit": false,
      "t": 260156.24999999927,
      "d": 93.75,
      "v": 102
    },
    {
      "midi": 82,
      "hit": false,
      "t": 260260.41666666593,
      "d": 127.60416666665697,
      "v": 89
    },
    {
      "midi": 82,
      "hit": false,
      "t": 260406.24999999924,
      "d": 93.75,
      "v": 102
    },
    {
      "midi": 78,
      "hit": false,
      "t": 260510.4166666659,
      "d": 96.35416666665697,
      "v": 101
    },
    {
      "midi": 79,
      "hit": false,
      "t": 260656.2499999992,
      "d": 93.75,
      "v": 96
    },
    {
      "midi": 82,
      "hit": false,
      "t": 260760.41666666587,
      "d": 127.60416666665697,
      "v": 89
    },
    {
      "midi": 82,
      "hit": false,
      "t": 260906.24999999919,
      "d": 93.75,
      "v": 104
    },
    {
      "midi": 78,
      "hit": false,
      "t": 261010.41666666584,
      "d": 96.35416666665697,
      "v": 93
    },
    {
      "midi": 79,
      "hit": false,
      "t": 261156.24999999916,
      "d": 93.75,
      "v": 96
    },
    {
      "midi": 82,
      "hit": false,
      "t": 261260.4166666658,
      "d": 127.60416666665697,
      "v": 89
    },
    {
      "midi": 82,
      "hit": false,
      "t": 261406.24999999913,
      "d": 93.75,
      "v": 108
    },
    {
      "midi": 60,
      "hit": false,
      "t": 261494.79166666666,
      "d": 502.60416666665697,
      "v": 1
    },
    {
      "midi": 78,
      "hit": false,
      "t": 261510.41666666578,
      "d": 98.95833333334303,
      "v": 94
    },
    {
      "midi": 79,
      "hit": false,
      "t": 261656.24999999913,
      "d": 93.75,
      "v": 100
    },
    {
      "midi": 82,
      "hit": false,
      "t": 261760.41666666578,
      "d": 127.60416666665697,
      "v": 87
    },
    {
      "midi": 82,
      "hit": false,
      "t": 261906.2499999991,
      "d": 93.75,
      "v": 101
    },
    {
      "midi": 63,
      "hit": false,
      "t": 261999.99999999997,
      "d": 750.0000000000291,
      "v": 1
    },
    {
      "midi": 48,
      "hit": false,
      "t": 262005.20833333244,
      "d": 927.0833333335468,
      "v": 88
    },
    {
      "midi": 78,
      "hit": false,
      "t": 262010.41666666578,
      "d": 98.95833333334303,
      "v": 98
    },
    {
      "midi": 79,
      "hit": false,
      "t": 262156.2499999991,
      "d": 93.75,
      "v": 97
    },
    {
      "midi": 82,
      "hit": false,
      "t": 262260.4166666658,
      "d": 127.60416666668607,
      "v": 92
    },
    {
      "midi": 82,
      "hit": false,
      "t": 262406.2499999992,
      "d": 93.75,
      "v": 103
    },
    {
      "midi": 78,
      "hit": false,
      "t": 262510.4166666659,
      "d": 96.35416666668607,
      "v": 96
    },
    {
      "midi": 79,
      "hit": false,
      "t": 262656.24999999924,
      "d": 93.75,
      "v": 101
    },
    {
      "midi": 60,
      "hit": false,
      "t": 262752.6041666667,
      "d": 1247.395833333314,
      "v": 1
    },
    {
      "midi": 82,
      "hit": false,
      "t": 262760.41666666593,
      "d": 127.60416666668607,
      "v": 91
    },
    {
      "midi": 82,
      "hit": false,
      "t": 262906.2499999993,
      "d": 93.75,
      "v": 105
    },
    {
      "midi": 48,
      "hit": false,
      "t": 262994.791666666,
      "d": 427.08333333343035,
      "v": 89
    },
    {
      "midi": 78,
      "hit": false,
      "t": 263010.416666666,
      "d": 96.35416666668607,
      "v": 99
    },
    {
      "midi": 79,
      "hit": false,
      "t": 263156.24999999936,
      "d": 93.75,
      "v": 105
    },
    {
      "midi": 82,
      "hit": false,
      "t": 263260.41666666605,
      "d": 127.60416666668607,
      "v": 92
    },
    {
      "midi": 82,
      "hit": false,
      "t": 263406.2499999994,
      "d": 93.75,
      "v": 102
    },
    {
      "midi": 48,
      "hit": false,
      "t": 263497.39583333273,
      "d": 427.08333333343035,
      "v": 84
    },
    {
      "midi": 78,
      "hit": false,
      "t": 263510.4166666661,
      "d": 98.95833333331393,
      "v": 100
    },
    {
      "midi": 79,
      "hit": false,
      "t": 263656.2499999994,
      "d": 93.75,
      "v": 96
    },
    {
      "midi": 82,
      "hit": false,
      "t": 263760.4166666661,
      "d": 127.60416666668607,
      "v": 96
    },
    {
      "midi": 82,
      "hit": false,
      "t": 263906.2499999995,
      "d": 93.75000000005821,
      "v": 104
    },
    {
      "midi": 53,
      "hit": false,
      "t": 263997.39583333285,
      "d": 927.0833333335468,
      "v": 88
    },
    {
      "midi": 65,
      "hit": false,
      "t": 264002.6041666667,
      "d": 750,
      "v": 1
    },
    {
      "midi": 78,
      "hit": false,
      "t": 264010.4166666662,
      "d": 98.95833333331393,
      "v": 95
    },
    {
      "midi": 79,
      "hit": false,
      "t": 264156.24999999953,
      "d": 93.75,
      "v": 100
    },
    {
      "midi": 82,
      "hit": false,
      "t": 264260.4166666662,
      "d": 127.60416666668607,
      "v": 93
    },
    {
      "midi": 82,
      "hit": false,
      "t": 264406.2499999996,
      "d": 93.75,
      "v": 108
    },
    {
      "midi": 78,
      "hit": false,
      "t": 264510.4166666663,
      "d": 96.35416666668607,
      "v": 102
    },
    {
      "midi": 79,
      "hit": false,
      "t": 264656.24999999965,
      "d": 93.75,
      "v": 97
    },
    {
      "midi": 60,
      "hit": false,
      "t": 264755.2083333334,
      "d": 1244.791666666686,
      "v": 1
    },
    {
      "midi": 82,
      "hit": false,
      "t": 264760.41666666634,
      "d": 127.60416666668607,
      "v": 91
    },
    {
      "midi": 82,
      "hit": false,
      "t": 264906.2499999997,
      "d": 93.75,
      "v": 99
    },
    {
      "midi": 48,
      "hit": false,
      "t": 264994.7916666664,
      "d": 427.08333333343035,
      "v": 82
    },
    {
      "midi": 78,
      "hit": false,
      "t": 265010.4166666664,
      "d": 96.35416666668607,
      "v": 94
    },
    {
      "midi": 79,
      "hit": false,
      "t": 265156.24999999977,
      "d": 93.75,
      "v": 104
    },
    {
      "midi": 82,
      "hit": false,
      "t": 265260.41666666645,
      "d": 127.60416666668607,
      "v": 94
    },
    {
      "midi": 79,
      "hit": false,
      "t": 265406.2499999998,
      "d": 93.75,
      "v": 108
    },
    {
      "midi": 48,
      "hit": false,
      "t": 265502.6041666665,
      "d": 427.08333333337214,
      "v": 85
    },
    {
      "midi": 78,
      "hit": false,
      "t": 265510.4166666665,
      "d": 98.95833333331393,
      "v": 96
    },
    {
      "midi": 77,
      "hit": false,
      "t": 265656.2499999998,
      "d": 93.75,
      "v": 98
    },
    {
      "midi": 75,
      "hit": false,
      "t": 265760.4166666665,
      "d": 127.60416666668607,
      "v": 89
    },
    {
      "midi": 77,
      "hit": false,
      "t": 265906.2499999999,
      "d": 93.75,
      "v": 102
    },
    {
      "midi": 56,
      "hit": false,
      "t": 266002.60416666657,
      "d": 434.89583333331393,
      "v": 85
    },
    {
      "midi": 66,
      "hit": false,
      "t": 266002.60416666674,
      "d": 244.79166666668607,
      "v": 1
    },
    {
      "midi": 78,
      "hit": false,
      "t": 266156.2499999999,
      "d": 93.75,
      "v": 94
    },
    {
      "midi": 65,
      "hit": false,
      "t": 266250.0000000001,
      "d": 242.1875,
      "v": 1
    },
    {
      "midi": 79,
      "hit": false,
      "t": 266260.41666666657,
      "d": 239.58333333331393,
      "v": 94
    },
    {
      "midi": 56,
      "hit": false,
      "t": 266494.79166666657,
      "d": 419.27083333331393,
      "v": 83
    },
    {
      "midi": 63,
      "hit": false,
      "t": 266494.7916666668,
      "d": 257.8125,
      "v": 1
    },
    {
      "midi": 82,
      "hit": false,
      "t": 266510.41666666657,
      "d": 239.58333333331393,
      "v": 110
    },
    {
      "midi": 60,
      "hit": false,
      "t": 266755.2083333335,
      "d": 242.1875,
      "v": 1
    },
    {
      "midi": 79,
      "hit": false,
      "t": 266760.41666666657,
      "d": 101.5625,
      "v": 96
    },
    {
      "midi": 80,
      "hit": false,
      "t": 266906.2499999999,
      "d": 93.75,
      "v": 99
    },
    {
      "midi": 46,
      "hit": false,
      "t": 266994.79166666657,
      "d": 111.97916666662786,
      "v": 84
    },
    {
      "midi": 63,
      "hit": false,
      "t": 267000.0000000002,
      "d": 750,
      "v": 1
    },
    {
      "midi": 79,
      "hit": false,
      "t": 267010.41666666657,
      "d": 83.33333333331393,
      "v": 97
    },
    {
      "midi": 77,
      "hit": false,
      "t": 267156.2499999999,
      "d": 93.75,
      "v": 99
    },
    {
      "midi": 46,
      "hit": false,
      "t": 267255.2083333332,
      "d": 375,
      "v": 84
    },
    {
      "midi": 79,
      "hit": false,
      "t": 267260.4166666665,
      "d": 135.41666666668607,
      "v": 101
    },
    {
      "midi": 77,
      "hit": false,
      "t": 267406.2499999999,
      "d": 239.58333333331393,
      "v": 104
    },
    {
      "midi": 75,
      "hit": false,
      "t": 267656.2499999999,
      "d": 239.58333333331393,
      "v": 105
    },
    {
      "midi": 60,
      "hit": false,
      "t": 267752.60416666686,
      "d": 2244.791666666686,
      "v": 1
    },
    {
      "midi": 72,
      "hit": false,
      "t": 267906.2499999999,
      "d": 85.9375,
      "v": 102
    },
    {
      "midi": 48,
      "hit": false,
      "t": 267994.79166666657,
      "d": 927.0833333333721,
      "v": 81
    },
    {
      "midi": 77,
      "hit": false,
      "t": 268010.41666666657,
      "d": 83.33333333331393,
      "v": 104
    },
    {
      "midi": 75,
      "hit": false,
      "t": 268156.2499999999,
      "d": 93.75,
      "v": 101
    },
    {
      "midi": 72,
      "hit": false,
      "t": 268260.41666666657,
      "d": 135.41666666668607,
      "v": 102
    },
    {
      "midi": 70,
      "hit": false,
      "t": 268406.24999999994,
      "d": 343.75,
      "v": 105
    },
    {
      "midi": 60,
      "hit": false,
      "t": 268752.6041666666,
      "d": 427.08333333331393,
      "v": 86
    },
    {
      "midi": 72,
      "hit": false,
      "t": 268760.4166666666,
      "d": 445.3125,
      "v": 89
    },
    {
      "midi": 60,
      "hit": false,
      "t": 269252.6041666666,
      "d": 427.08333333331393,
      "v": 81
    },
    {
      "midi": 70,
      "hit": false,
      "t": 269260.4166666666,
      "d": 239.58333333331393,
      "v": 86
    },
    {
      "midi": 72,
      "hit": false,
      "t": 269510.4166666666,
      "d": 455.72916666662786,
      "v": 108
    },
    {
      "midi": 63,
      "hit": false,
      "t": 270000.00000000023,
      "d": 744.7916666666861,
      "v": 1
    },
    {
      "midi": 48,
      "hit": false,
      "t": 270002.60416666657,
      "d": 927.0833333333721,
      "v": 86
    },
    {
      "midi": 79,
      "hit": false,
      "t": 270260.41666666657,
      "d": 223.95833333331393,
      "v": 109
    },
    {
      "midi": 84,
      "hit": false,
      "t": 270260.41666666657,
      "d": 239.58333333331393,
      "v": 101
    },
    {
      "midi": 72,
      "hit": false,
      "t": 270510.41666666657,
      "d": 72.91666666668607,
      "v": 99
    },
    {
      "midi": 79,
      "hit": false,
      "t": 270677.08333333326,
      "d": 229.16666666668607,
      "v": 103
    },
    {
      "midi": 84,
      "hit": false,
      "t": 270677.08333333326,
      "d": 229.16666666668607,
      "v": 101
    },
    {
      "midi": 60,
      "hit": false,
      "t": 270747.3958333336,
      "d": 1252.604166666686,
      "v": 1
    },
    {
      "midi": 72,
      "hit": false,
      "t": 270916.6666666666,
      "d": 70.3125,
      "v": 105
    },
    {
      "midi": 48,
      "hit": false,
      "t": 270994.7916666666,
      "d": 427.08333333337214,
      "v": 80
    },
    {
      "midi": 79,
      "hit": false,
      "t": 271018.2291666666,
      "d": 244.79166666668607,
      "v": 107
    },
    {
      "midi": 84,
      "hit": false,
      "t": 271018.2291666666,
      "d": 244.79166666668607,
      "v": 89
    },
    {
      "midi": 72,
      "hit": false,
      "t": 271273.4375,
      "d": 78.125,
      "v": 105
    },
    {
      "midi": 79,
      "hit": false,
      "t": 271406.25,
      "d": 10.41666666668607,
      "v": 100
    },
    {
      "midi": 84,
      "hit": false,
      "t": 271427.0833333333,
      "d": 239.58333333331393,
      "v": 100
    },
    {
      "midi": 77,
      "hit": false,
      "t": 271427.0833333333,
      "d": 356.77083333331393,
      "v": 103
    },
    {
      "midi": 48,
      "hit": false,
      "t": 271502.6041666666,
      "d": 427.08333333331393,
      "v": 84
    },
    {
      "midi": 75,
      "hit": false,
      "t": 271755.2083333333,
      "d": 208.33333333331393,
      "v": 97
    },
    {
      "midi": 53,
      "hit": false,
      "t": 272002.6041666666,
      "d": 927.0833333333721,
      "v": 84
    },
    {
      "midi": 65,
      "hit": false,
      "t": 272002.604166667,
      "d": 744.7916666666861,
      "v": 1
    },
    {
      "midi": 79,
      "hit": false,
      "t": 272260.4166666666,
      "d": 223.95833333331393,
      "v": 110
    },
    {
      "midi": 84,
      "hit": false,
      "t": 272260.4166666666,
      "d": 239.58333333331393,
      "v": 97
    },
    {
      "midi": 72,
      "hit": false,
      "t": 272510.4166666666,
      "d": 72.91666666668607,
      "v": 102
    },
    {
      "midi": 79,
      "hit": false,
      "t": 272677.0833333333,
      "d": 229.16666666668607,
      "v": 110
    },
    {
      "midi": 84,
      "hit": false,
      "t": 272677.0833333333,
      "d": 229.16666666668607,
      "v": 98
    },
    {
      "midi": 60,
      "hit": false,
      "t": 272750.00000000035,
      "d": 1242.1875,
      "v": 1
    },
    {
      "midi": 72,
      "hit": false,
      "t": 272916.6666666667,
      "d": 70.3125,
      "v": 99
    },
    {
      "midi": 48,
      "hit": false,
      "t": 273005.2083333334,
      "d": 427.08333333337214,
      "v": 81
    },
    {
      "midi": 79,
      "hit": false,
      "t": 273018.2291666667,
      "d": 244.79166666668607,
      "v": 106
    },
    {
      "midi": 84,
      "hit": false,
      "t": 273018.2291666667,
      "d": 244.79166666668607,
      "v": 91
    },
    {
      "midi": 72,
      "hit": false,
      "t": 273273.43750000006,
      "d": 78.125,
      "v": 101
    },
    {
      "midi": 79,
      "hit": false,
      "t": 273406.25000000006,
      "d": 10.41666666668607,
      "v": 98
    },
    {
      "midi": 77,
      "hit": false,
      "t": 273427.08333333343,
      "d": 231.77083333331393,
      "v": 97
    },
    {
      "midi": 84,
      "hit": false,
      "t": 273427.08333333343,
      "d": 239.58333333331393,
      "v": 95
    },
    {
      "midi": 48,
      "hit": false,
      "t": 273497.39583333343,
      "d": 427.08333333337214,
      "v": 86
    },
    {
      "midi": 75,
      "hit": false,
      "t": 273677.08333333343,
      "d": 83.33333333331393,
      "v": 90
    },
    {
      "midi": 77,
      "hit": false,
      "t": 273770.83333333343,
      "d": 127.60416666668607,
      "v": 104
    },
    {
      "midi": 84,
      "hit": false,
      "t": 273770.83333333343,
      "d": 127.60416666668607,
      "v": 92
    },
    {
      "midi": 66,
      "hit": false,
      "t": 273994.79166666704,
      "d": 257.8125,
      "v": 1
    },
    {
      "midi": 56,
      "hit": false,
      "t": 274002.6041666668,
      "d": 434.89583333337214,
      "v": 83
    },
    {
      "midi": 65,
      "hit": false,
      "t": 274255.2083333337,
      "d": 236.97916666668607,
      "v": 1
    },
    {
      "midi": 82,
      "hit": false,
      "t": 274260.4166666668,
      "d": 135.41666666668607,
      "v": 103
    },
    {
      "midi": 79,
      "hit": false,
      "t": 274406.2500000002,
      "d": 93.75,
      "v": 101
    },
    {
      "midi": 63,
      "hit": false,
      "t": 274494.7916666671,
      "d": 255.20833333331393,
      "v": 1
    },
    {
      "midi": 56,
      "hit": false,
      "t": 274505.2083333335,
      "d": 419.27083333331393,
      "v": 81
    },
    {
      "midi": 77,
      "hit": false,
      "t": 274510.4166666668,
      "d": 83.33333333331393,
      "v": 91
    },
    {
      "midi": 75,
      "hit": false,
      "t": 274656.2500000001,
      "d": 93.75,
      "v": 97
    },
    {
      "midi": 60,
      "hit": false,
      "t": 274752.6041666671,
      "d": 242.1875,
      "v": 1
    },
    {
      "midi": 72,
      "hit": false,
      "t": 274760.4166666668,
      "d": 125,
      "v": 87
    },
    {
      "midi": 77,
      "hit": false,
      "t": 274906.2500000001,
      "d": 145.83333333337214,
      "v": 101
    },
    {
      "midi": 63,
      "hit": false,
      "t": 274997.3958333338,
      "d": 750,
      "v": 1
    },
    {
      "midi": 46,
      "hit": false,
      "t": 275002.6041666668,
      "d": 111.97916666668607,
      "v": 82
    },
    {
      "midi": 77,
      "hit": false,
      "t": 275156.2500000002,
      "d": 166.66666666662786,
      "v": 110
    },
    {
      "midi": 46,
      "hit": false,
      "t": 275247.3958333335,
      "d": 375,
      "v": 87
    },
    {
      "midi": 75,
      "hit": false,
      "t": 275406.2500000001,
      "d": 145.83333333337214,
      "v": 99
    },
    {
      "midi": 77,
      "hit": false,
      "t": 275510.4166666668,
      "d": 208.33333333337214,
      "v": 101
    },
    {
      "midi": 60,
      "hit": false,
      "t": 275750.00000000047,
      "d": 2247.395833333314,
      "v": 1
    },
    {
      "midi": 75,
      "hit": false,
      "t": 275760.41666666686,
      "d": 125,
      "v": 90
    },
    {
      "midi": 48,
      "hit": false,
      "t": 275997.39583333355,
      "d": 927.0833333334886,
      "v": 88
    },
    {
      "midi": 78,
      "hit": false,
      "t": 276010.41666666686,
      "d": 98.95833333331393,
      "v": 95
    },
    {
      "midi": 79,
      "hit": false,
      "t": 276156.2500000002,
      "d": 93.75,
      "v": 96
    },
    {
      "midi": 82,
      "hit": false,
      "t": 276260.41666666686,
      "d": 127.60416666668607,
      "v": 93
    },
    {
      "midi": 82,
      "hit": false,
      "t": 276406.25000000023,
      "d": 93.75,
      "v": 104
    },
    {
      "midi": 78,
      "hit": false,
      "t": 276510.4166666669,
      "d": 96.35416666668607,
      "v": 99
    },
    {
      "midi": 79,
      "hit": false,
      "t": 276656.2500000003,
      "d": 93.75,
      "v": 102
    },
    {
      "midi": 82,
      "hit": false,
      "t": 276760.416666667,
      "d": 127.60416666668607,
      "v": 88
    },
    {
      "midi": 82,
      "hit": false,
      "t": 276906.25000000035,
      "d": 93.75,
      "v": 102
    },
    {
      "midi": 78,
      "hit": false,
      "t": 277010.41666666704,
      "d": 96.35416666668607,
      "v": 100
    },
    {
      "midi": 79,
      "hit": false,
      "t": 277156.2500000004,
      "d": 93.75,
      "v": 104
    },
    {
      "midi": 82,
      "hit": false,
      "t": 277260.4166666671,
      "d": 127.60416666668607,
      "v": 92
    },
    {
      "midi": 82,
      "hit": false,
      "t": 277406.25000000047,
      "d": 93.75,
      "v": 103
    },
    {
      "midi": 78,
      "hit": false,
      "t": 277510.41666666715,
      "d": 98.95833333331393,
      "v": 100
    },
    {
      "midi": 79,
      "hit": false,
      "t": 277656.25000000047,
      "d": 93.75,
      "v": 100
    },
    {
      "midi": 82,
      "hit": false,
      "t": 277760.41666666715,
      "d": 127.60416666668607,
      "v": 94
    },
    {
      "midi": 82,
      "hit": false,
      "t": 277906.2500000005,
      "d": 93.75,
      "v": 103
    },
    {
      "midi": 63,
      "hit": false,
      "t": 278000.00000000047,
      "d": 750,
      "v": 1
    },
    {
      "midi": 48,
      "hit": false,
      "t": 278005.20833333384,
      "d": 927.0833333334886,
      "v": 84
    },
    {
      "midi": 78,
      "hit": false,
      "t": 278010.41666666715,
      "d": 98.95833333331393,
      "v": 100
    },
    {
      "midi": 79,
      "hit": false,
      "t": 278156.25000000047,
      "d": 93.75,
      "v": 98
    },
    {
      "midi": 82,
      "hit": false,
      "t": 278260.41666666715,
      "d": 127.60416666668607,
      "v": 91
    },
    {
      "midi": 82,
      "hit": false,
      "t": 278406.2500000005,
      "d": 93.75,
      "v": 108
    },
    {
      "midi": 78,
      "hit": false,
      "t": 278510.4166666672,
      "d": 96.35416666668607,
      "v": 99
    },
    {
      "midi": 79,
      "hit": false,
      "t": 278656.2500000006,
      "d": 93.75,
      "v": 96
    },
    {
      "midi": 60,
      "hit": false,
      "t": 278752.60416666715,
      "d": 1247.395833333314,
      "v": 1
    },
    {
      "midi": 82,
      "hit": false,
      "t": 278760.41666666727,
      "d": 127.60416666668607,
      "v": 96
    },
    {
      "midi": 82,
      "hit": false,
      "t": 278906.25000000064,
      "d": 93.75,
      "v": 99
    },
    {
      "midi": 48,
      "hit": false,
      "t": 278994.7916666673,
      "d": 427.08333333343035,
      "v": 84
    },
    {
      "midi": 78,
      "hit": false,
      "t": 279010.4166666673,
      "d": 96.35416666668607,
      "v": 99
    },
    {
      "midi": 79,
      "hit": false,
      "t": 279156.2500000007,
      "d": 93.75,
      "v": 97
    },
    {
      "midi": 82,
      "hit": false,
      "t": 279260.4166666674,
      "d": 127.60416666668607,
      "v": 96
    },
    {
      "midi": 82,
      "hit": false,
      "t": 279406.25000000076,
      "d": 93.75,
      "v": 99
    },
    {
      "midi": 48,
      "hit": false,
      "t": 279497.39583333407,
      "d": 427.08333333343035,
      "v": 89
    },
    {
      "midi": 78,
      "hit": false,
      "t": 279510.41666666744,
      "d": 98.95833333331393,
      "v": 99
    },
    {
      "midi": 79,
      "hit": false,
      "t": 279656.25000000076,
      "d": 93.75,
      "v": 99
    },
    {
      "midi": 82,
      "hit": false,
      "t": 279760.41666666744,
      "d": 127.60416666668607,
      "v": 94
    },
    {
      "midi": 82,
      "hit": false,
      "t": 279906.2500000008,
      "d": 93.75000000005821,
      "v": 103
    },
    {
      "midi": 53,
      "hit": false,
      "t": 279997.3958333342,
      "d": 927.0833333335468,
      "v": 84
    },
    {
      "midi": 65,
      "hit": false,
      "t": 280002.60416666715,
      "d": 750,
      "v": 1
    },
    {
      "midi": 78,
      "hit": false,
      "t": 280010.41666666756,
      "d": 98.95833333331393,
      "v": 97
    },
    {
      "midi": 79,
      "hit": false,
      "t": 280156.2500000009,
      "d": 93.75,
      "v": 100
    },
    {
      "midi": 82,
      "hit": false,
      "t": 280260.41666666756,
      "d": 127.60416666668607,
      "v": 87
    },
    {
      "midi": 82,
      "hit": false,
      "t": 280406.25000000093,
      "d": 93.75,
      "v": 101
    },
    {
      "midi": 78,
      "hit": false,
      "t": 280510.4166666676,
      "d": 96.35416666668607,
      "v": 93
    },
    {
      "midi": 79,
      "hit": false,
      "t": 280656.250000001,
      "d": 93.75,
      "v": 100
    },
    {
      "midi": 60,
      "hit": false,
      "t": 280755.20833333384,
      "d": 1244.791666666686,
      "v": 1
    },
    {
      "midi": 82,
      "hit": false,
      "t": 280760.4166666677,
      "d": 127.60416666668607,
      "v": 89
    },
    {
      "midi": 82,
      "hit": false,
      "t": 280906.25000000105,
      "d": 93.75,
      "v": 99
    },
    {
      "midi": 48,
      "hit": false,
      "t": 280994.79166666773,
      "d": 427.08333333343035,
      "v": 83
    },
    {
      "midi": 78,
      "hit": false,
      "t": 281010.41666666773,
      "d": 96.35416666668607,
      "v": 98
    },
    {
      "midi": 79,
      "hit": false,
      "t": 281156.2500000011,
      "d": 93.75,
      "v": 97
    },
    {
      "midi": 82,
      "hit": false,
      "t": 281260.4166666678,
      "d": 127.60416666668607,
      "v": 91
    },
    {
      "midi": 79,
      "hit": false,
      "t": 281406.25000000116,
      "d": 93.75,
      "v": 99
    },
    {
      "midi": 48,
      "hit": false,
      "t": 281502.60416666785,
      "d": 427.08333333337214,
      "v": 81
    },
    {
      "midi": 78,
      "hit": false,
      "t": 281510.41666666785,
      "d": 98.95833333331393,
      "v": 93
    },
    {
      "midi": 77,
      "hit": false,
      "t": 281656.25000000116,
      "d": 93.75,
      "v": 101
    },
    {
      "midi": 75,
      "hit": false,
      "t": 281760.41666666785,
      "d": 127.60416666668607,
      "v": 89
    },
    {
      "midi": 77,
      "hit": false,
      "t": 281906.2500000012,
      "d": 93.75,
      "v": 100
    },
    {
      "midi": 66,
      "hit": false,
      "t": 282002.6041666672,
      "d": 244.79166666668607,
      "v": 1
    },
    {
      "midi": 56,
      "hit": false,
      "t": 282002.6041666679,
      "d": 434.89583333331393,
      "v": 86
    },
    {
      "midi": 78,
      "hit": false,
      "t": 282156.2500000012,
      "d": 93.75,
      "v": 94
    },
    {
      "midi": 65,
      "hit": false,
      "t": 282250.0000000006,
      "d": 242.1875,
      "v": 1
    },
    {
      "midi": 79,
      "hit": false,
      "t": 282260.4166666679,
      "d": 239.58333333331393,
      "v": 93
    },
    {
      "midi": 63,
      "hit": false,
      "t": 282494.79166666727,
      "d": 257.8125,
      "v": 1
    },
    {
      "midi": 56,
      "hit": false,
      "t": 282494.7916666679,
      "d": 419.27083333331393,
      "v": 83
    },
    {
      "midi": 82,
      "hit": false,
      "t": 282510.4166666679,
      "d": 239.58333333331393,
      "v": 105
    },
    {
      "midi": 60,
      "hit": false,
      "t": 282755.20833333395,
      "d": 242.1875,
      "v": 1
    },
    {
      "midi": 79,
      "hit": false,
      "t": 282760.4166666679,
      "d": 101.5625,
      "v": 103
    },
    {
      "midi": 80,
      "hit": false,
      "t": 282906.2500000012,
      "d": 93.75,
      "v": 107
    },
    {
      "midi": 46,
      "hit": false,
      "t": 282994.7916666679,
      "d": 111.97916666662786,
      "v": 86
    },
    {
      "midi": 63,
      "hit": false,
      "t": 283000.00000000064,
      "d": 750,
      "v": 1
    },
    {
      "midi": 79,
      "hit": false,
      "t": 283010.4166666679,
      "d": 83.33333333331393,
      "v": 97
    },
    {
      "midi": 77,
      "hit": false,
      "t": 283156.2500000012,
      "d": 93.75,
      "v": 103
    },
    {
      "midi": 46,
      "hit": false,
      "t": 283255.20833333454,
      "d": 375,
      "v": 82
    },
    {
      "midi": 79,
      "hit": false,
      "t": 283260.41666666785,
      "d": 135.41666666668607,
      "v": 105
    },
    {
      "midi": 77,
      "hit": false,
      "t": 283406.2500000012,
      "d": 239.58333333331393,
      "v": 98
    },
    {
      "midi": 75,
      "hit": false,
      "t": 283656.2500000012,
      "d": 239.58333333331393,
      "v": 106
    },
    {
      "midi": 60,
      "hit": false,
      "t": 283752.6041666673,
      "d": 2244.791666666686,
      "v": 1
    },
    {
      "midi": 72,
      "hit": false,
      "t": 283906.2500000012,
      "d": 85.9375,
      "v": 100
    },
    {
      "midi": 48,
      "hit": false,
      "t": 283994.7916666679,
      "d": 927.0833333333721,
      "v": 86
    },
    {
      "midi": 77,
      "hit": false,
      "t": 284010.4166666679,
      "d": 83.33333333331393,
      "v": 102
    },
    {
      "midi": 75,
      "hit": false,
      "t": 284156.2500000012,
      "d": 93.75,
      "v": 99
    },
    {
      "midi": 72,
      "hit": false,
      "t": 284260.4166666679,
      "d": 135.41666666668607,
      "v": 99
    },
    {
      "midi": 70,
      "hit": false,
      "t": 284406.2500000013,
      "d": 343.75,
      "v": 102
    },
    {
      "midi": 60,
      "hit": false,
      "t": 284752.60416666797,
      "d": 427.08333333331393,
      "v": 89
    },
    {
      "midi": 72,
      "hit": false,
      "t": 284760.41666666797,
      "d": 445.3125,
      "v": 94
    },
    {
      "midi": 60,
      "hit": false,
      "t": 285252.60416666797,
      "d": 427.08333333331393,
      "v": 88
    },
    {
      "midi": 70,
      "hit": false,
      "t": 285260.41666666797,
      "d": 239.58333333331393,
      "v": 86
    },
    {
      "midi": 72,
      "hit": false,
      "t": 285510.41666666797,
      "d": 455.72916666662786,
      "v": 105
    },
    {
      "midi": 63,
      "hit": false,
      "t": 286000.0000000007,
      "d": 744.7916666666861,
      "v": 1
    },
    {
      "midi": 48,
      "hit": false,
      "t": 286002.6041666679,
      "d": 927.0833333333721,
      "v": 87
    },
    {
      "midi": 79,
      "hit": false,
      "t": 286260.4166666679,
      "d": 223.95833333331393,
      "v": 105
    },
    {
      "midi": 84,
      "hit": false,
      "t": 286260.4166666679,
      "d": 239.58333333331393,
      "v": 92
    },
    {
      "midi": 72,
      "hit": false,
      "t": 286510.4166666679,
      "d": 72.91666666668607,
      "v": 100
    },
    {
      "midi": 79,
      "hit": false,
      "t": 286677.0833333346,
      "d": 229.16666666668607,
      "v": 102
    },
    {
      "midi": 84,
      "hit": false,
      "t": 286677.0833333346,
      "d": 229.16666666668607,
      "v": 96
    },
    {
      "midi": 60,
      "hit": false,
      "t": 286747.39583333407,
      "d": 1252.604166666686,
      "v": 1
    },
    {
      "midi": 72,
      "hit": false,
      "t": 286916.66666666797,
      "d": 70.3125,
      "v": 98
    },
    {
      "midi": 48,
      "hit": false,
      "t": 286994.79166666797,
      "d": 427.08333333337214,
      "v": 86
    },
    {
      "midi": 79,
      "hit": false,
      "t": 287018.22916666797,
      "d": 244.79166666668607,
      "v": 103
    },
    {
      "midi": 84,
      "hit": false,
      "t": 287018.22916666797,
      "d": 244.79166666668607,
      "v": 94
    },
    {
      "midi": 72,
      "hit": false,
      "t": 287273.43750000134,
      "d": 78.125,
      "v": 100
    },
    {
      "midi": 79,
      "hit": false,
      "t": 287406.25000000134,
      "d": 10.41666666668607,
      "v": 101
    },
    {
      "midi": 84,
      "hit": false,
      "t": 287427.08333333465,
      "d": 239.58333333331393,
      "v": 103
    },
    {
      "midi": 77,
      "hit": false,
      "t": 287427.08333333465,
      "d": 356.77083333331393,
      "v": 95
    },
    {
      "midi": 48,
      "hit": false,
      "t": 287502.60416666797,
      "d": 427.08333333331393,
      "v": 81
    },
    {
      "midi": 75,
      "hit": false,
      "t": 287755.20833333465,
      "d": 208.33333333331393,
      "v": 92
    },
    {
      "midi": 65,
      "hit": false,
      "t": 288002.60416666744,
      "d": 744.7916666666861,
      "v": 1
    },
    {
      "midi": 53,
      "hit": false,
      "t": 288002.60416666797,
      "d": 927.0833333333721,
      "v": 83
    },
    {
      "midi": 79,
      "hit": false,
      "t": 288260.41666666797,
      "d": 223.95833333331393,
      "v": 103
    },
    {
      "midi": 84,
      "hit": false,
      "t": 288260.41666666797,
      "d": 239.58333333331393,
      "v": 96
    },
    {
      "midi": 72,
      "hit": false,
      "t": 288510.41666666797,
      "d": 72.91666666668607,
      "v": 101
    },
    {
      "midi": 79,
      "hit": false,
      "t": 288677.08333333465,
      "d": 229.16666666668607,
      "v": 106
    },
    {
      "midi": 84,
      "hit": false,
      "t": 288677.08333333465,
      "d": 229.16666666668607,
      "v": 100
    },
    {
      "midi": 60,
      "hit": false,
      "t": 288750.0000000008,
      "d": 1242.1875,
      "v": 1
    },
    {
      "midi": 72,
      "hit": false,
      "t": 288916.666666668,
      "d": 70.3125,
      "v": 100
    },
    {
      "midi": 48,
      "hit": false,
      "t": 289005.2083333347,
      "d": 427.08333333337214,
      "v": 84
    },
    {
      "midi": 79,
      "hit": false,
      "t": 289018.229166668,
      "d": 244.79166666668607,
      "v": 99
    },
    {
      "midi": 84,
      "hit": false,
      "t": 289018.229166668,
      "d": 244.79166666668607,
      "v": 93
    },
    {
      "midi": 72,
      "hit": false,
      "t": 289273.4375000014,
      "d": 78.125,
      "v": 104
    },
    {
      "midi": 79,
      "hit": false,
      "t": 289406.2500000014,
      "d": 10.41666666668607,
      "v": 96
    },
    {
      "midi": 77,
      "hit": false,
      "t": 289427.08333333477,
      "d": 231.77083333331393,
      "v": 97
    },
    {
      "midi": 84,
      "hit": false,
      "t": 289427.08333333477,
      "d": 239.58333333331393,
      "v": 96
    },
    {
      "midi": 48,
      "hit": false,
      "t": 289497.39583333477,
      "d": 427.08333333337214,
      "v": 80
    },
    {
      "midi": 75,
      "hit": false,
      "t": 289677.08333333477,
      "d": 83.33333333331393,
      "v": 92
    },
    {
      "midi": 77,
      "hit": false,
      "t": 289770.83333333477,
      "d": 127.60416666668607,
      "v": 101
    },
    {
      "midi": 84,
      "hit": false,
      "t": 289770.83333333477,
      "d": 127.60416666668607,
      "v": 92
    },
    {
      "midi": 66,
      "hit": false,
      "t": 289994.7916666675,
      "d": 257.8125,
      "v": 1
    },
    {
      "midi": 56,
      "hit": false,
      "t": 290002.60416666814,
      "d": 434.89583333337214,
      "v": 79
    },
    {
      "midi": 65,
      "hit": false,
      "t": 290255.2083333342,
      "d": 236.97916666668607,
      "v": 1
    },
    {
      "midi": 82,
      "hit": false,
      "t": 290260.41666666814,
      "d": 135.41666666668607,
      "v": 99
    },
    {
      "midi": 79,
      "hit": false,
      "t": 290406.2500000015,
      "d": 93.75,
      "v": 95
    },
    {
      "midi": 63,
      "hit": false,
      "t": 290494.79166666756,
      "d": 255.20833333331393,
      "v": 1
    },
    {
      "midi": 56,
      "hit": false,
      "t": 290505.2083333348,
      "d": 419.27083333331393,
      "v": 81
    },
    {
      "midi": 77,
      "hit": false,
      "t": 290510.41666666814,
      "d": 83.33333333331393,
      "v": 90
    },
    {
      "midi": 75,
      "hit": false,
      "t": 290656.25000000146,
      "d": 93.75,
      "v": 98
    },
    {
      "midi": 60,
      "hit": false,
      "t": 290752.60416666756,
      "d": 242.1875,
      "v": 1
    },
    {
      "midi": 72,
      "hit": false,
      "t": 290760.41666666814,
      "d": 125,
      "v": 88
    },
    {
      "midi": 77,
      "hit": false,
      "t": 290906.25000000146,
      "d": 119.79166666668607,
      "v": 100
    },
    {
      "midi": 63,
      "hit": false,
      "t": 290997.39583333425,
      "d": 750,
      "v": 1
    },
    {
      "midi": 46,
      "hit": false,
      "t": 291002.60416666814,
      "d": 111.97916666662786,
      "v": 82
    },
    {
      "midi": 77,
      "hit": false,
      "t": 291031.25000000146,
      "d": 20.83333333331393,
      "v": 105
    },
    {
      "midi": 46,
      "hit": false,
      "t": 291247.39583333477,
      "d": 375,
      "v": 84
    },
    {
      "midi": 77,
      "hit": false,
      "t": 291281.25000000146,
      "d": 145.83333333331393,
      "v": 98
    },
    {
      "midi": 48,
      "hit": false,
      "t": 291747.39583333477,
      "d": 375,
      "v": 86
    },
    {
      "midi": 60,
      "hit": false,
      "t": 291750.00000000093,
      "d": 2247.395833333314,
      "v": 1
    },
    {
      "midi": 75,
      "hit": false,
      "t": 291760.4166666681,
      "d": 375,
      "v": 89
    },
    {
      "midi": 48,
      "hit": false,
      "t": 292747.39583333477,
      "d": 375,
      "v": 81
    },
    {
      "midi": 72,
      "hit": false,
      "t": 292760.4166666681,
      "d": 375,
      "v": 85
    }
  ]
}