{
  "jsonPath": "Rock/Chilean Rock/Joe Vasconcellos/me-demoro-vivo.json",
  "path": "Rock\\Chilean Rock\\Joe Vasconcellos\\Me Demoro (vivo).mid",
  "name": "Me Demoro (vivo)",
  "difficulty": "Advanced",
  "bpm": 82.00014760026568,
  "notes": [
    {
      "midi": 52,
      "hit": false,
      "t": 2926.8240000000005,
      "d": 5853.648000000001,
      "v": 80
    },
    {
      "midi": 57,
      "hit": false,
      "t": 2926.8240000000005,
      "d": 5853.648000000001,
      "v": 80
    },
    {
      "midi": 60,
      "hit": false,
      "t": 2926.8240000000005,
      "d": 5853.648000000001,
      "v": 80
    },
    {
      "midi": 55,
      "hit": false,
      "t": 8780.472000000002,
      "d": 2926.8240000000005,
      "v": 80
    },
    {
      "midi": 59,
      "hit": false,
      "t": 8780.472000000002,
      "d": 2926.8240000000005,
      "v": 80
    },
    {
      "midi": 62,
      "hit": false,
      "t": 8780.472000000002,
      "d": 2926.8240000000005,
      "v": 80
    },
    {
      "midi": 52,
      "hit": false,
      "t": 11707.296000000002,
      "d": 2926.8240000000005,
      "v": 80
    },
    {
      "midi": 55,
      "hit": false,
      "t": 11707.296000000002,
      "d": 2926.8240000000005,
      "v": 80
    },
    {
      "midi": 59,
      "hit": false,
      "t": 11707.296000000002,
      "d": 2926.8240000000005,
      "v": 80
    },
    {
      "midi": 50,
      "hit": false,
      "t": 14634.120000000003,
      "d": 2926.8240000000005,
      "v": 80
    },
    {
      "midi": 55,
      "hit": false,
      "t": 14634.120000000003,
      "d": 2926.8240000000005,
      "v": 80
    },
    {
      "midi": 59,
      "hit": false,
      "t": 14634.120000000003,
      "d": 2926.8240000000005,
      "v": 80
    },
    {
      "midi": 28,
      "hit": false,
      "t": 16451.1899,
      "d": 560.9745999999977,
      "v": 55
    },
    {
      "midi": 43,
      "hit": false,
      "t": 16658.5066,
      "d": 743.9010999999991,
      "v": 51
    },
    {
      "midi": 40,
      "hit": false,
      "t": 17024.3596,
      "d": 518.2917500000003,
      "v": 79
    },
    {
      "midi": 47,
      "hit": false,
      "t": 17201.18855,
      "d": 335.36525000000256,
      "v": 76
    },
    {
      "midi": 52,
      "hit": false,
      "t": 17384.11505,
      "d": 481.7064500000015,
      "v": 67
    },
    {
      "midi": 52,
      "hit": false,
      "t": 17560.944000000003,
      "d": 2926.8240000000005,
      "v": 80
    },
    {
      "midi": 55,
      "hit": false,
      "t": 17560.944000000003,
      "d": 2926.8240000000005,
      "v": 80
    },
    {
      "midi": 59,
      "hit": false,
      "t": 17560.944000000003,
      "d": 2926.8240000000005,
      "v": 80
    },
    {
      "midi": 38,
      "hit": false,
      "t": 17932.89455,
      "d": 1335.3634500000044,
      "v": 72
    },
    {
      "midi": 43,
      "hit": false,
      "t": 18134.1137,
      "d": 1280.4855000000025,
      "v": 73
    },
    {
      "midi": 47,
      "hit": false,
      "t": 18463.381400000002,
      "d": 1249.9977500000023,
      "v": 62
    },
    {
      "midi": 50,
      "hit": false,
      "t": 18804.844200000003,
      "d": 945.1202500000036,
      "v": 60
    },
    {
      "midi": 55,
      "hit": false,
      "t": 18975.575600000004,
      "d": 920.7300500000019,
      "v": 62
    },
    {
      "midi": 57,
      "hit": false,
      "t": 19725.574250000005,
      "d": 445.1211500000027,
      "v": 73
    },
    {
      "midi": 59,
      "hit": false,
      "t": 20109.719900000007,
      "d": 676.8280500000001,
      "v": 66
    },
    {
      "midi": 50,
      "hit": false,
      "t": 20487.768000000004,
      "d": 1463.4120000000003,
      "v": 80
    },
    {
      "midi": 55,
      "hit": false,
      "t": 20487.768000000004,
      "d": 1463.4120000000003,
      "v": 80
    },
    {
      "midi": 59,
      "hit": false,
      "t": 20487.768000000004,
      "d": 1463.4120000000003,
      "v": 80
    },
    {
      "midi": 28,
      "hit": false,
      "t": 20499.963100000008,
      "d": 1134.1442999999963,
      "v": 66
    },
    {
      "midi": 26,
      "hit": false,
      "t": 20506.060650000007,
      "d": 42.682850000001054,
      "v": 66
    },
    {
      "midi": 35,
      "hit": false,
      "t": 20841.425900000006,
      "d": 999.9981999999982,
      "v": 58
    },
    {
      "midi": 40,
      "hit": false,
      "t": 21018.254850000005,
      "d": 884.1447499999995,
      "v": 88
    },
    {
      "midi": 47,
      "hit": false,
      "t": 21384.107850000004,
      "d": 487.8040000000001,
      "v": 80
    },
    {
      "midi": 52,
      "hit": false,
      "t": 21567.034350000005,
      "d": 371.95054999999775,
      "v": 71
    },
    {
      "midi": 55,
      "hit": false,
      "t": 21756.058400000005,
      "d": 219.51179999999658,
      "v": 58
    },
    {
      "midi": 52,
      "hit": false,
      "t": 21951.180000000004,
      "d": 1463.4120000000003,
      "v": 80
    },
    {
      "midi": 55,
      "hit": false,
      "t": 21951.180000000004,
      "d": 1463.4120000000003,
      "v": 80
    },
    {
      "midi": 59,
      "hit": false,
      "t": 21951.180000000004,
      "d": 1463.4120000000003,
      "v": 80
    },
    {
      "midi": 59,
      "hit": false,
      "t": 21969.472650000003,
      "d": 396.3407499999994,
      "v": 75
    },
    {
      "midi": 31,
      "hit": false,
      "t": 21969.472650000003,
      "d": 628.0476500000004,
      "v": 73
    },
    {
      "midi": 55,
      "hit": false,
      "t": 22323.13055,
      "d": 341.46280000000115,
      "v": 52
    },
    {
      "midi": 28,
      "hit": false,
      "t": 22664.593350000003,
      "d": 365.85299999999916,
      "v": 68
    },
    {
      "midi": 50,
      "hit": false,
      "t": 22676.788450000004,
      "d": 432.9260499999982,
      "v": 66
    },
    {
      "midi": 45,
      "hit": false,
      "t": 23408.494450000002,
      "d": 256.09709999999905,
      "v": 63
    },
    {
      "midi": 52,
      "hit": false,
      "t": 23414.592000000004,
      "d": 1463.4120000000003,
      "v": 80
    },
    {
      "midi": 57,
      "hit": false,
      "t": 23414.592000000004,
      "d": 1463.4120000000003,
      "v": 80
    },
    {
      "midi": 60,
      "hit": false,
      "t": 23414.592000000004,
      "d": 1463.4120000000003,
      "v": 80
    },
    {
      "midi": 33,
      "hit": false,
      "t": 23426.7871,
      "d": 2176.825349999992,
      "v": 69
    },
    {
      "midi": 48,
      "hit": false,
      "t": 23432.88465,
      "d": 249.99955000000045,
      "v": 54
    },
    {
      "midi": 52,
      "hit": false,
      "t": 23457.27485,
      "d": 310.9750499999973,
      "v": 64
    },
    {
      "midi": 40,
      "hit": false,
      "t": 23762.15235,
      "d": 1884.142949999994,
      "v": 57
    },
    {
      "midi": 45,
      "hit": false,
      "t": 23969.46905,
      "d": 1585.362999999994,
      "v": 88
    },
    {
      "midi": 52,
      "hit": false,
      "t": 24335.32205,
      "d": 597.5598999999966,
      "v": 80
    },
    {
      "midi": 60,
      "hit": false,
      "t": 24670.687299999998,
      "d": 298.77994999999646,
      "v": 84
    },
    {
      "midi": 59,
      "hit": false,
      "t": 24878.003999999997,
      "d": 390.24319999999716,
      "v": 74
    },
    {
      "midi": 55,
      "hit": false,
      "t": 24878.004000000004,
      "d": 1463.4120000000003,
      "v": 80
    },
    {
      "midi": 59,
      "hit": false,
      "t": 24878.004000000004,
      "d": 1463.4120000000003,
      "v": 80
    },
    {
      "midi": 62,
      "hit": false,
      "t": 24878.004000000004,
      "d": 1463.4120000000003,
      "v": 80
    },
    {
      "midi": 57,
      "hit": false,
      "t": 25225.564349999993,
      "d": 280.4873000000007,
      "v": 62
    },
    {
      "midi": 55,
      "hit": false,
      "t": 25597.514899999995,
      "d": 371.9505500000014,
      "v": 86
    },
    {
      "midi": 52,
      "hit": false,
      "t": 26256.050299999995,
      "d": 518.2917500000003,
      "v": 57
    },
    {
      "midi": 57,
      "hit": false,
      "t": 26298.733149999996,
      "d": 762.1937499999985,
      "v": 64
    },
    {
      "midi": 33,
      "hit": false,
      "t": 26329.220899999997,
      "d": 804.8765999999996,
      "v": 72
    },
    {
      "midi": 60,
      "hit": false,
      "t": 26335.318449999995,
      "d": 585.3647999999994,
      "v": 43
    },
    {
      "midi": 52,
      "hit": false,
      "t": 26341.416000000005,
      "d": 1463.4120000000003,
      "v": 80
    },
    {
      "midi": 57,
      "hit": false,
      "t": 26341.416000000005,
      "d": 1463.4120000000003,
      "v": 80
    },
    {
      "midi": 60,
      "hit": false,
      "t": 26341.416000000005,
      "d": 1463.4120000000003,
      "v": 80
    },
    {
      "midi": 52,
      "hit": false,
      "t": 27091.414649999995,
      "d": 1329.2658999999985,
      "v": 41
    },
    {
      "midi": 57,
      "hit": false,
      "t": 27438.974999999995,
      "d": 920.7300499999983,
      "v": 62
    },
    {
      "midi": 64,
      "hit": false,
      "t": 27438.974999999995,
      "d": 963.4128999999994,
      "v": 52
    },
    {
      "midi": 60,
      "hit": false,
      "t": 27438.974999999995,
      "d": 981.7055499999988,
      "v": 47
    },
    {
      "midi": 33,
      "hit": false,
      "t": 27457.267649999994,
      "d": 945.1202499999999,
      "v": 74
    },
    {
      "midi": 50,
      "hit": false,
      "t": 27804.828000000005,
      "d": 1463.4120000000003,
      "v": 80
    },
    {
      "midi": 55,
      "hit": false,
      "t": 27804.828000000005,
      "d": 1463.4120000000003,
      "v": 80
    },
    {
      "midi": 59,
      "hit": false,
      "t": 27804.828000000005,
      "d": 1463.4120000000003,
      "v": 80
    },
    {
      "midi": 64,
      "hit": false,
      "t": 29268.240000000005,
      "d": 1463.4120000000003,
      "v": 89
    },
    {
      "midi": 52,
      "hit": false,
      "t": 29268.240000000005,
      "d": 2743.897499999999,
      "v": 80
    },
    {
      "midi": 57,
      "hit": false,
      "t": 29268.240000000005,
      "d": 2926.8240000000005,
      "v": 80
    },
    {
      "midi": 60,
      "hit": false,
      "t": 29268.240000000005,
      "d": 2926.8240000000005,
      "v": 80
    },
    {
      "midi": 69,
      "hit": false,
      "t": 30731.652000000006,
      "d": 548.7795000000006,
      "v": 87
    },
    {
      "midi": 64,
      "hit": false,
      "t": 31280.431500000006,
      "d": 365.85299999999916,
      "v": 76
    },
    {
      "midi": 62,
      "hit": false,
      "t": 31646.284500000005,
      "d": 182.9265000000014,
      "v": 70
    },
    {
      "midi": 60,
      "hit": false,
      "t": 31829.211000000007,
      "d": 365.85299999999916,
      "v": 66
    },
    {
      "midi": 62,
      "hit": false,
      "t": 32195.064000000006,
      "d": 548.7795000000006,
      "v": 80
    },
    {
      "midi": 50,
      "hit": false,
      "t": 32195.064000000006,
      "d": 2926.8240000000005,
      "v": 80
    },
    {
      "midi": 53,
      "hit": false,
      "t": 32195.064000000006,
      "d": 2926.8240000000005,
      "v": 80
    },
    {
      "midi": 57,
      "hit": false,
      "t": 32195.064000000006,
      "d": 2926.8240000000005,
      "v": 80
    },
    {
      "midi": 62,
      "hit": false,
      "t": 32926.770000000004,
      "d": 182.9265000000014,
      "v": 64
    },
    {
      "midi": 62,
      "hit": false,
      "t": 33292.62300000001,
      "d": 731.7059999999983,
      "v": 85
    },
    {
      "midi": 57,
      "hit": false,
      "t": 34024.329000000005,
      "d": 548.7794999999969,
      "v": 80
    },
    {
      "midi": 62,
      "hit": false,
      "t": 34573.1085,
      "d": 548.7794999999969,
      "v": 72
    },
    {
      "midi": 64,
      "hit": false,
      "t": 35121.888,
      "d": 2926.8240000000005,
      "v": 82
    },
    {
      "midi": 52,
      "hit": false,
      "t": 35121.888000000006,
      "d": 2926.8240000000005,
      "v": 80
    },
    {
      "midi": 57,
      "hit": false,
      "t": 35121.888000000006,
      "d": 2926.8240000000005,
      "v": 80
    },
    {
      "midi": 60,
      "hit": false,
      "t": 35121.888000000006,
      "d": 2926.8240000000005,
      "v": 80
    },
    {
      "midi": 52,
      "hit": false,
      "t": 38048.71200000001,
      "d": 2926.8240000000005,
      "v": 80
    },
    {
      "midi": 57,
      "hit": false,
      "t": 38048.71200000001,
      "d": 2926.8240000000005,
      "v": 80
    },
    {
      "midi": 60,
      "hit": false,
      "t": 38048.71200000001,
      "d": 2926.8240000000005,
      "v": 80
    },
    {
      "midi": 64,
      "hit": false,
      "t": 39877.977,
      "d": 365.8530000000028,
      "v": 85
    },
    {
      "midi": 67,
      "hit": false,
      "t": 40609.683000000005,
      "d": 182.9265000000014,
      "v": 87
    },
    {
      "midi": 67,
      "hit": false,
      "t": 40975.53600000001,
      "d": 914.6324999999997,
      "v": 93
    },
    {
      "midi": 52,
      "hit": false,
      "t": 40975.53600000001,
      "d": 2926.8240000000005,
      "v": 80
    },
    {
      "midi": 55,
      "hit": false,
      "t": 40975.53600000001,
      "d": 2926.8240000000005,
      "v": 80
    },
    {
      "midi": 59,
      "hit": false,
      "t": 40975.53600000001,
      "d": 2926.8240000000005,
      "v": 80
    },
    {
      "midi": 67,
      "hit": false,
      "t": 42073.09500000001,
      "d": 182.9265000000014,
      "v": 95
    },
    {
      "midi": 67,
      "hit": false,
      "t": 42438.94800000001,
      "d": 548.7794999999969,
      "v": 89
    },
    {
      "midi": 64,
      "hit": false,
      "t": 42987.72750000001,
      "d": 548.7794999999969,
      "v": 87
    },
    {
      "midi": 67,
      "hit": false,
      "t": 43536.507000000005,
      "d": 365.8530000000028,
      "v": 82
    },
    {
      "midi": 69,
      "hit": false,
      "t": 43902.36000000001,
      "d": 1097.559000000001,
      "v": 98
    },
    {
      "midi": 53,
      "hit": false,
      "t": 43902.36000000001,
      "d": 2926.8240000000005,
      "v": 80
    },
    {
      "midi": 57,
      "hit": false,
      "t": 43902.36000000001,
      "d": 2926.8240000000005,
      "v": 80
    },
    {
      "midi": 60,
      "hit": false,
      "t": 43902.36000000001,
      "d": 2926.8240000000005,
      "v": 80
    },
    {
      "midi": 60,
      "hit": false,
      "t": 44999.91900000001,
      "d": 365.8530000000028,
      "v": 91
    },
    {
      "midi": 64,
      "hit": false,
      "t": 45365.77200000001,
      "d": 548.7795000000042,
      "v": 82
    },
    {
      "midi": 62,
      "hit": false,
      "t": 45731.625000000015,
      "d": 365.8530000000028,
      "v": 64
    },
    {
      "midi": 60,
      "hit": false,
      "t": 46097.47800000002,
      "d": 365.8530000000028,
      "v": 70
    },
    {
      "midi": 55,
      "hit": false,
      "t": 46463.33100000002,
      "d": 365.8530000000028,
      "v": 87
    },
    {
      "midi": 52,
      "hit": false,
      "t": 46829.18400000001,
      "d": 2926.8240000000005,
      "v": 80
    },
    {
      "midi": 57,
      "hit": false,
      "t": 46829.18400000001,
      "d": 2926.8240000000005,
      "v": 80
    },
    {
      "midi": 60,
      "hit": false,
      "t": 46829.18400000001,
      "d": 2926.8240000000005,
      "v": 80
    },
    {
      "midi": 57,
      "hit": false,
      "t": 46829.18400000002,
      "d": 1646.338499999998,
      "v": 85
    },
    {
      "midi": 52,
      "hit": false,
      "t": 49756.00800000001,
      "d": 2926.8240000000005,
      "v": 80
    },
    {
      "midi": 57,
      "hit": false,
      "t": 49756.00800000001,
      "d": 2926.8240000000005,
      "v": 80
    },
    {
      "midi": 60,
      "hit": false,
      "t": 49756.00800000001,
      "d": 2926.8240000000005,
      "v": 80
    },
    {
      "midi": 64,
      "hit": false,
      "t": 50853.567000000025,
      "d": 365.8530000000028,
      "v": 78
    },
    {
      "midi": 67,
      "hit": false,
      "t": 51219.42000000003,
      "d": 548.7794999999969,
      "v": 70
    },
    {
      "midi": 57,
      "hit": false,
      "t": 51768.199500000024,
      "d": 548.7794999999969,
      "v": 82
    },
    {
      "midi": 62,
      "hit": false,
      "t": 52316.97900000002,
      "d": 365.8530000000028,
      "v": 87
    },
    {
      "midi": 52,
      "hit": false,
      "t": 52682.83200000001,
      "d": 2926.8240000000005,
      "v": 80
    },
    {
      "midi": 55,
      "hit": false,
      "t": 52682.83200000001,
      "d": 2926.8240000000005,
      "v": 80
    },
    {
      "midi": 60,
      "hit": false,
      "t": 52682.83200000001,
      "d": 2926.8240000000005,
      "v": 80
    },
    {
      "midi": 64,
      "hit": false,
      "t": 52682.832000000024,
      "d": 914.6324999999997,
      "v": 89
    },
    {
      "midi": 64,
      "hit": false,
      "t": 53780.391000000025,
      "d": 365.8530000000028,
      "v": 82
    },
    {
      "midi": 67,
      "hit": false,
      "t": 54146.24400000003,
      "d": 365.8530000000028,
      "v": 85
    },
    {
      "midi": 67,
      "hit": false,
      "t": 54695.02350000003,
      "d": 548.7794999999969,
      "v": 78
    },
    {
      "midi": 64,
      "hit": false,
      "t": 55243.80300000003,
      "d": 365.8530000000028,
      "v": 85
    },
    {
      "midi": 52,
      "hit": false,
      "t": 55609.65600000001,
      "d": 2926.8240000000005,
      "v": 80
    },
    {
      "midi": 57,
      "hit": false,
      "t": 55609.65600000001,
      "d": 2926.8240000000005,
      "v": 80
    },
    {
      "midi": 60,
      "hit": false,
      "t": 55609.65600000001,
      "d": 2926.8240000000005,
      "v": 80
    },
    {
      "midi": 69,
      "hit": false,
      "t": 55609.65600000003,
      "d": 1097.559000000001,
      "v": 85
    },
    {
      "midi": 67,
      "hit": false,
      "t": 56707.21500000003,
      "d": 182.9265000000014,
      "v": 82
    },
    {
      "midi": 69,
      "hit": false,
      "t": 56890.141500000034,
      "d": 182.9265000000014,
      "v": 80
    },
    {
      "midi": 57,
      "hit": false,
      "t": 57073.068000000036,
      "d": 457.3162500000035,
      "v": 76
    },
    {
      "midi": 57,
      "hit": false,
      "t": 57621.84750000004,
      "d": 548.7794999999969,
      "v": 80
    },
    {
      "midi": 62,
      "hit": false,
      "t": 58170.62700000004,
      "d": 365.8530000000028,
      "v": 85
    },
    {
      "midi": 52,
      "hit": false,
      "t": 58536.48000000001,
      "d": 2926.8240000000005,
      "v": 80
    },
    {
      "midi": 57,
      "hit": false,
      "t": 58536.48000000001,
      "d": 2926.8240000000005,
      "v": 80
    },
    {
      "midi": 60,
      "hit": false,
      "t": 58536.48000000001,
      "d": 2926.8240000000005,
      "v": 80
    },
    {
      "midi": 64,
      "hit": false,
      "t": 58536.48000000004,
      "d": 2743.897499999999,
      "v": 91
    },
    {
      "midi": 52,
      "hit": false,
      "t": 61463.30400000001,
      "d": 2926.8240000000005,
      "v": 80
    },
    {
      "midi": 57,
      "hit": false,
      "t": 61463.30400000001,
      "d": 2926.8240000000005,
      "v": 80
    },
    {
      "midi": 60,
      "hit": false,
      "t": 61463.30400000001,
      "d": 2926.8240000000005,
      "v": 80
    },
    {
      "midi": 64,
      "hit": false,
      "t": 62560.86300000004,
      "d": 914.6324999999997,
      "v": 78
    },
    {
      "midi": 62,
      "hit": false,
      "t": 63292.56900000004,
      "d": 365.8530000000028,
      "v": 82
    },
    {
      "midi": 60,
      "hit": false,
      "t": 63658.42200000004,
      "d": 365.8530000000028,
      "v": 80
    },
    {
      "midi": 57,
      "hit": false,
      "t": 64024.275000000045,
      "d": 182.9265000000014,
      "v": 74
    },
    {
      "midi": 53,
      "hit": false,
      "t": 64390.12800000001,
      "d": 2926.824000000008,
      "v": 80
    },
    {
      "midi": 57,
      "hit": false,
      "t": 64390.12800000001,
      "d": 2926.824000000008,
      "v": 80
    },
    {
      "midi": 60,
      "hit": false,
      "t": 64390.12800000001,
      "d": 2926.824000000008,
      "v": 80
    },
    {
      "midi": 57,
      "hit": false,
      "t": 64390.12800000005,
      "d": 1097.559000000001,
      "v": 95
    },
    {
      "midi": 60,
      "hit": false,
      "t": 65487.68700000005,
      "d": 548.7795000000042,
      "v": 89
    },
    {
      "midi": 60,
      "hit": false,
      "t": 66219.39300000005,
      "d": 731.7060000000056,
      "v": 91
    },
    {
      "midi": 57,
      "hit": false,
      "t": 66951.09900000006,
      "d": 365.8530000000028,
      "v": 80
    },
    {
      "midi": 52,
      "hit": false,
      "t": 67316.95200000002,
      "d": 2926.8239999999932,
      "v": 80
    },
    {
      "midi": 60,
      "hit": false,
      "t": 67316.95200000002,
      "d": 2926.8239999999932,
      "v": 80
    },
    {
      "midi": 64,
      "hit": false,
      "t": 67316.95200000002,
      "d": 2926.8239999999932,
      "v": 80
    },
    {
      "midi": 64,
      "hit": false,
      "t": 67316.95200000006,
      "d": 2195.118000000002,
      "v": 87
    },
    {
      "midi": 67,
      "hit": false,
      "t": 69512.07000000007,
      "d": 365.8530000000028,
      "v": 78
    },
    {
      "midi": 62,
      "hit": false,
      "t": 69877.92300000007,
      "d": 365.8530000000028,
      "v": 80
    },
    {
      "midi": 52,
      "hit": false,
      "t": 70243.77600000001,
      "d": 2926.8239999999932,
      "v": 80
    },
    {
      "midi": 55,
      "hit": false,
      "t": 70243.77600000001,
      "d": 2926.8239999999932,
      "v": 80
    },
    {
      "midi": 64,
      "hit": false,
      "t": 70243.77600000001,
      "d": 2926.8239999999932,
      "v": 80
    },
    {
      "midi": 64,
      "hit": false,
      "t": 70243.77600000007,
      "d": 1097.5589999999938,
      "v": 95
    },
    {
      "midi": 67,
      "hit": false,
      "t": 71341.33500000006,
      "d": 365.8530000000028,
      "v": 76
    },
    {
      "midi": 64,
      "hit": false,
      "t": 71707.18800000007,
      "d": 548.7795000000042,
      "v": 82
    },
    {
      "midi": 67,
      "hit": false,
      "t": 72255.96750000007,
      "d": 548.7795000000042,
      "v": 85
    },
    {
      "midi": 69,
      "hit": false,
      "t": 72804.74700000008,
      "d": 182.9265000000014,
      "v": 91
    },
    {
      "midi": 72,
      "hit": false,
      "t": 72987.67350000008,
      "d": 182.9265000000014,
      "v": 95
    },
    {
      "midi": 52,
      "hit": false,
      "t": 73170.6,
      "d": 2926.8239999999932,
      "v": 80
    },
    {
      "midi": 57,
      "hit": false,
      "t": 73170.6,
      "d": 2926.8239999999932,
      "v": 80
    },
    {
      "midi": 60,
      "hit": false,
      "t": 73170.6,
      "d": 2926.8239999999932,
      "v": 80
    },
    {
      "midi": 69,
      "hit": false,
      "t": 73170.60000000008,
      "d": 1646.338499999998,
      "v": 95
    },
    {
      "midi": 69,
      "hit": false,
      "t": 74999.86500000008,
      "d": 548.7795000000042,
      "v": 85
    },
    {
      "midi": 69,
      "hit": false,
      "t": 75731.57100000008,
      "d": 182.9265000000014,
      "v": 89
    },
    {
      "midi": 52,
      "hit": false,
      "t": 76097.424,
      "d": 1463.4119999999966,
      "v": 80
    },
    {
      "midi": 57,
      "hit": false,
      "t": 76097.424,
      "d": 1463.4119999999966,
      "v": 80
    },
    {
      "midi": 60,
      "hit": false,
      "t": 76097.424,
      "d": 1463.4119999999966,
      "v": 80
    },
    {
      "midi": 69,
      "hit": false,
      "t": 76097.42400000009,
      "d": 1097.5589999999938,
      "v": 93
    },
    {
      "midi": 64,
      "hit": false,
      "t": 77194.98300000008,
      "d": 365.8530000000028,
      "v": 76
    },
    {
      "midi": 50,
      "hit": false,
      "t": 77560.836,
      "d": 1463.4119999999966,
      "v": 80
    },
    {
      "midi": 55,
      "hit": false,
      "t": 77560.836,
      "d": 1463.4119999999966,
      "v": 80
    },
    {
      "midi": 59,
      "hit": false,
      "t": 77560.836,
      "d": 1463.4119999999966,
      "v": 80
    },
    {
      "midi": 67,
      "hit": false,
      "t": 77560.83600000008,
      "d": 731.7060000000056,
      "v": 78
    },
    {
      "midi": 64,
      "hit": false,
      "t": 78292.54200000009,
      "d": 365.8530000000028,
      "v": 82
    },
    {
      "midi": 62,
      "hit": false,
      "t": 78658.39500000009,
      "d": 365.8530000000028,
      "v": 89
    },
    {
      "midi": 52,
      "hit": false,
      "t": 79024.24799999999,
      "d": 2926.8239999999932,
      "v": 80
    },
    {
      "midi": 55,
      "hit": false,
      "t": 79024.24799999999,
      "d": 2926.8239999999932,
      "v": 80
    },
    {
      "midi": 60,
      "hit": false,
      "t": 79024.24799999999,
      "d": 2926.8239999999932,
      "v": 80
    },
    {
      "midi": 64,
      "hit": false,
      "t": 79024.2480000001,
      "d": 2195.118000000002,
      "v": 89
    },
    {
      "midi": 60,
      "hit": false,
      "t": 81219.3660000001,
      "d": 365.8530000000028,
      "v": 87
    },
    {
      "midi": 57,
      "hit": false,
      "t": 81585.2190000001,
      "d": 365.8530000000028,
      "v": 85
    },
    {
      "midi": 52,
      "hit": false,
      "t": 81951.07199999999,
      "d": 1463.4119999999966,
      "v": 80
    },
    {
      "midi": 57,
      "hit": false,
      "t": 81951.07199999999,
      "d": 1463.4119999999966,
      "v": 80
    },
    {
      "midi": 60,
      "hit": false,
      "t": 81951.07199999999,
      "d": 1463.4119999999966,
      "v": 80
    },
    {
      "midi": 60,
      "hit": false,
      "t": 81951.0720000001,
      "d": 1097.5589999999938,
      "v": 78
    },
    {
      "midi": 57,
      "hit": false,
      "t": 83048.6310000001,
      "d": 365.8530000000028,
      "v": 78
    },
    {
      "midi": 50,
      "hit": false,
      "t": 83414.48399999998,
      "d": 1463.4119999999966,
      "v": 80
    },
    {
      "midi": 55,
      "hit": false,
      "t": 83414.48399999998,
      "d": 1463.4119999999966,
      "v": 80
    },
    {
      "midi": 59,
      "hit": false,
      "t": 83414.48399999998,
      "d": 1463.4119999999966,
      "v": 80
    },
    {
      "midi": 64,
      "hit": false,
      "t": 83414.4840000001,
      "d": 182.9265000000014,
      "v": 98
    },
    {
      "midi": 67,
      "hit": false,
      "t": 83963.2635000001,
      "d": 548.7795000000042,
      "v": 85
    },
    {
      "midi": 65,
      "hit": false,
      "t": 84512.0430000001,
      "d": 365.8530000000028,
      "v": 87
    },
    {
      "midi": 52,
      "hit": false,
      "t": 84877.89599999998,
      "d": 2926.8239999999932,
      "v": 80
    },
    {
      "midi": 55,
      "hit": false,
      "t": 84877.89599999998,
      "d": 2926.8239999999932,
      "v": 80
    },
    {
      "midi": 60,
      "hit": false,
      "t": 84877.89599999998,
      "d": 2926.8239999999932,
      "v": 80
    },
    {
      "midi": 64,
      "hit": false,
      "t": 84877.89600000011,
      "d": 2195.118000000002,
      "v": 87
    },
    {
      "midi": 62,
      "hit": false,
      "t": 87073.01400000011,
      "d": 365.8530000000028,
      "v": 82
    },
    {
      "midi": 60,
      "hit": false,
      "t": 87438.86700000011,
      "d": 365.8530000000028,
      "v": 72
    },
    {
      "midi": 50,
      "hit": false,
      "t": 87804.71999999997,
      "d": 2926.8239999999932,
      "v": 80
    },
    {
      "midi": 53,
      "hit": false,
      "t": 87804.71999999997,
      "d": 2926.8239999999932,
      "v": 80
    },
    {
      "midi": 57,
      "hit": false,
      "t": 87804.71999999997,
      "d": 2926.8239999999932,
      "v": 80
    },
    {
      "midi": 62,
      "hit": false,
      "t": 87804.72000000012,
      "d": 1097.5589999999938,
      "v": 85
    },
    {
      "midi": 57,
      "hit": false,
      "t": 88902.27900000011,
      "d": 365.8530000000028,
      "v": 82
    },
    {
      "midi": 62,
      "hit": false,
      "t": 89268.13200000011,
      "d": 548.7795000000042,
      "v": 85
    },
    {
      "midi": 64,
      "hit": false,
      "t": 89816.91150000012,
      "d": 548.7795000000042,
      "v": 87
    },
    {
      "midi": 62,
      "hit": false,
      "t": 90365.69100000012,
      "d": 365.8530000000028,
      "v": 78
    },
    {
      "midi": 53,
      "hit": false,
      "t": 90731.54399999997,
      "d": 2926.8239999999932,
      "v": 80
    },
    {
      "midi": 57,
      "hit": false,
      "t": 90731.54399999997,
      "d": 2926.8239999999932,
      "v": 80
    },
    {
      "midi": 60,
      "hit": false,
      "t": 90731.54399999997,
      "d": 2926.8239999999932,
      "v": 80
    },
    {
      "midi": 60,
      "hit": false,
      "t": 90731.54400000013,
      "d": 2012.1915000000008,
      "v": 85
    },
    {
      "midi": 60,
      "hit": false,
      "t": 92926.66200000013,
      "d": 365.8530000000028,
      "v": 80
    },
    {
      "midi": 57,
      "hit": false,
      "t": 93292.51500000013,
      "d": 365.8530000000028,
      "v": 82
    },
    {
      "midi": 52,
      "hit": false,
      "t": 93658.36799999996,
      "d": 1463.4119999999966,
      "v": 80
    },
    {
      "midi": 57,
      "hit": false,
      "t": 93658.36799999996,
      "d": 1463.4119999999966,
      "v": 80
    },
    {
      "midi": 60,
      "hit": false,
      "t": 93658.36799999996,
      "d": 1463.4119999999966,
      "v": 80
    },
    {
      "midi": 64,
      "hit": false,
      "t": 93658.36800000013,
      "d": 1097.5589999999938,
      "v": 78
    },
    {
      "midi": 60,
      "hit": false,
      "t": 94755.92700000013,
      "d": 365.8530000000028,
      "v": 80
    },
    {
      "midi": 50,
      "hit": false,
      "t": 95121.77999999996,
      "d": 1463.4119999999966,
      "v": 80
    },
    {
      "midi": 55,
      "hit": false,
      "t": 95121.77999999996,
      "d": 1463.4119999999966,
      "v": 80
    },
    {
      "midi": 59,
      "hit": false,
      "t": 95121.77999999996,
      "d": 1463.4119999999966,
      "v": 80
    },
    {
      "midi": 62,
      "hit": false,
      "t": 95121.78000000013,
      "d": 914.632500000007,
      "v": 85
    },
    {
      "midi": 55,
      "hit": false,
      "t": 95853.48600000014,
      "d": 365.8530000000028,
      "v": 82
    },
    {
      "midi": 60,
      "hit": false,
      "t": 96219.33900000014,
      "d": 365.8530000000028,
      "v": 74
    },
    {
      "midi": 52,
      "hit": false,
      "t": 96585.19199999995,
      "d": 2926.8239999999932,
      "v": 80
    },
    {
      "midi": 57,
      "hit": false,
      "t": 96585.19199999995,
      "d": 2926.8239999999932,
      "v": 80
    },
    {
      "midi": 60,
      "hit": false,
      "t": 96585.19199999995,
      "d": 2926.8239999999932,
      "v": 80
    },
    {
      "midi": 57,
      "hit": false,
      "t": 96585.19200000014,
      "d": 2560.971000000005,
      "v": 91
    },
    {
      "midi": 52,
      "hit": false,
      "t": 99512.01599999995,
      "d": 2926.8239999999932,
      "v": 80
    },
    {
      "midi": 57,
      "hit": false,
      "t": 99512.01599999995,
      "d": 2926.8239999999932,
      "v": 80
    },
    {
      "midi": 60,
      "hit": false,
      "t": 99512.01599999995,
      "d": 2926.8239999999932,
      "v": 80
    },
    {
      "midi": 64,
      "hit": false,
      "t": 100975.42800000015,
      "d": 548.7795000000042,
      "v": 95
    },
    {
      "midi": 67,
      "hit": false,
      "t": 101524.20750000015,
      "d": 548.7795000000042,
      "v": 91
    },
    {
      "midi": 69,
      "hit": false,
      "t": 102072.98700000015,
      "d": 182.9265000000014,
      "v": 89
    },
    {
      "midi": 52,
      "hit": false,
      "t": 102438.83999999994,
      "d": 2926.8239999999932,
      "v": 80
    },
    {
      "midi": 57,
      "hit": false,
      "t": 102438.83999999994,
      "d": 2926.8239999999932,
      "v": 80
    },
    {
      "midi": 60,
      "hit": false,
      "t": 102438.83999999994,
      "d": 2926.8239999999932,
      "v": 80
    },
    {
      "midi": 69,
      "hit": false,
      "t": 102438.84000000016,
      "d": 1463.4119999999966,
      "v": 98
    },
    {
      "midi": 60,
      "hit": false,
      "t": 103902.25200000015,
      "d": 548.7795000000042,
      "v": 87
    },
    {
      "midi": 64,
      "hit": false,
      "t": 104451.03150000016,
      "d": 548.7795000000042,
      "v": 93
    },
    {
      "midi": 67,
      "hit": false,
      "t": 104999.81100000016,
      "d": 182.9265000000014,
      "v": 87
    },
    {
      "midi": 69,
      "hit": false,
      "t": 105182.73750000016,
      "d": 182.9265000000014,
      "v": 85
    },
    {
      "midi": 52,
      "hit": false,
      "t": 105365.66399999993,
      "d": 2926.8239999999932,
      "v": 80
    },
    {
      "midi": 55,
      "hit": false,
      "t": 105365.66399999993,
      "d": 2926.8239999999932,
      "v": 80
    },
    {
      "midi": 60,
      "hit": false,
      "t": 105365.66399999993,
      "d": 2926.8239999999932,
      "v": 80
    },
    {
      "midi": 67,
      "hit": false,
      "t": 105365.66400000016,
      "d": 1463.4119999999966,
      "v": 95
    },
    {
      "midi": 57,
      "hit": false,
      "t": 106829.07600000016,
      "d": 548.7795000000042,
      "v": 85
    },
    {
      "midi": 62,
      "hit": false,
      "t": 107377.85550000017,
      "d": 548.7795000000042,
      "v": 82
    },
    {
      "midi": 64,
      "hit": false,
      "t": 107926.63500000017,
      "d": 182.9265000000014,
      "v": 72
    },
    {
      "midi": 67,
      "hit": false,
      "t": 108109.56150000017,
      "d": 182.9265000000014,
      "v": 78
    },
    {
      "midi": 52,
      "hit": false,
      "t": 108292.48799999992,
      "d": 1463.4119999999966,
      "v": 80
    },
    {
      "midi": 57,
      "hit": false,
      "t": 108292.48799999992,
      "d": 1463.4119999999966,
      "v": 80
    },
    {
      "midi": 60,
      "hit": false,
      "t": 108292.48799999992,
      "d": 1463.4119999999966,
      "v": 80
    },
    {
      "midi": 64,
      "hit": false,
      "t": 108292.48800000017,
      "d": 1097.5589999999938,
      "v": 89
    },
    {
      "midi": 60,
      "hit": false,
      "t": 109390.04700000017,
      "d": 365.8530000000028,
      "v": 82
    },
    {
      "midi": 50,
      "hit": false,
      "t": 109755.89999999992,
      "d": 1463.4119999999966,
      "v": 80
    },
    {
      "midi": 55,
      "hit": false,
      "t": 109755.89999999992,
      "d": 1463.4119999999966,
      "v": 80
    },
    {
      "midi": 59,
      "hit": false,
      "t": 109755.89999999992,
      "d": 1463.4119999999966,
      "v": 80
    },
    {
      "midi": 62,
      "hit": false,
      "t": 109755.90000000017,
      "d": 365.8530000000028,
      "v": 87
    },
    {
      "midi": 62,
      "hit": false,
      "t": 110304.67950000017,
      "d": 548.7795000000042,
      "v": 87
    },
    {
      "midi": 60,
      "hit": false,
      "t": 110853.45900000018,
      "d": 365.8530000000028,
      "v": 85
    },
    {
      "midi": 50,
      "hit": false,
      "t": 111219.31199999992,
      "d": 1463.4119999999966,
      "v": 80
    },
    {
      "midi": 55,
      "hit": false,
      "t": 111219.31199999992,
      "d": 1463.4119999999966,
      "v": 80
    },
    {
      "midi": 59,
      "hit": false,
      "t": 111219.31199999992,
      "d": 1463.4119999999966,
      "v": 80
    },
    {
      "midi": 64,
      "hit": false,
      "t": 111219.31200000018,
      "d": 548.7795000000042,
      "v": 72
    },
    {
      "midi": 62,
      "hit": false,
      "t": 111768.09150000018,
      "d": 365.8530000000028,
      "v": 74
    },
    {
      "midi": 60,
      "hit": false,
      "t": 112133.94450000019,
      "d": 182.9265000000014,
      "v": 66
    },
    {
      "midi": 55,
      "hit": false,
      "t": 112316.87100000019,
      "d": 182.9265000000014,
      "v": 95
    },
    {
      "midi": 52,
      "hit": false,
      "t": 112682.72399999991,
      "d": 1463.4119999999966,
      "v": 80
    },
    {
      "midi": 57,
      "hit": false,
      "t": 112682.72399999991,
      "d": 1463.4119999999966,
      "v": 80
    },
    {
      "midi": 60,
      "hit": false,
      "t": 112682.72399999991,
      "d": 1463.4119999999966,
      "v": 80
    },
    {
      "midi": 57,
      "hit": false,
      "t": 112682.72400000019,
      "d": 2560.971000000005,
      "v": 68
    },
    {
      "midi": 52,
      "hit": false,
      "t": 114146.13599999991,
      "d": 2926.8239999999932,
      "v": 80
    },
    {
      "midi": 57,
      "hit": false,
      "t": 114146.13599999991,
      "d": 2926.8239999999932,
      "v": 80
    },
    {
      "midi": 60,
      "hit": false,
      "t": 114146.13599999991,
      "d": 2926.8239999999932,
      "v": 80
    },
    {
      "midi": 67,
      "hit": false,
      "t": 115243.6950000002,
      "d": 365.8530000000028,
      "v": 85
    },
    {
      "midi": 69,
      "hit": false,
      "t": 115609.5480000002,
      "d": 548.7795000000042,
      "v": 89
    },
    {
      "midi": 67,
      "hit": false,
      "t": 116158.3275000002,
      "d": 548.7795000000042,
      "v": 87
    },
    {
      "midi": 69,
      "hit": false,
      "t": 116707.10700000021,
      "d": 182.9265000000014,
      "v": 95
    },
    {
      "midi": 52,
      "hit": false,
      "t": 117072.9599999999,
      "d": 2926.8239999999932,
      "v": 80
    },
    {
      "midi": 57,
      "hit": false,
      "t": 117072.9599999999,
      "d": 2926.8239999999932,
      "v": 80
    },
    {
      "midi": 60,
      "hit": false,
      "t": 117072.9599999999,
      "d": 2926.8239999999932,
      "v": 80
    },
    {
      "midi": 69,
      "hit": false,
      "t": 117072.96000000021,
      "d": 1097.5589999999938,
      "v": 93
    },
    {
      "midi": 67,
      "hit": false,
      "t": 118170.5190000002,
      "d": 182.9265000000014,
      "v": 85
    },
    {
      "midi": 69,
      "hit": false,
      "t": 118353.4455000002,
      "d": 182.9265000000014,
      "v": 85
    },
    {
      "midi": 57,
      "hit": false,
      "t": 118536.3720000002,
      "d": 365.8530000000028,
      "v": 89
    },
    {
      "midi": 57,
      "hit": false,
      "t": 119085.15150000021,
      "d": 548.7795000000042,
      "v": 89
    },
    {
      "midi": 62,
      "hit": false,
      "t": 119633.93100000022,
      "d": 365.8530000000028,
      "v": 82
    },
    {
      "midi": 52,
      "hit": false,
      "t": 119999.7839999999,
      "d": 2926.8239999999932,
      "v": 80
    },
    {
      "midi": 55,
      "hit": false,
      "t": 119999.7839999999,
      "d": 2926.8239999999932,
      "v": 80
    },
    {
      "midi": 59,
      "hit": false,
      "t": 119999.7839999999,
      "d": 2926.8239999999932,
      "v": 80
    },
    {
      "midi": 64,
      "hit": false,
      "t": 119999.78400000022,
      "d": 2012.1915000000008,
      "v": 95
    },
    {
      "midi": 64,
      "hit": false,
      "t": 122194.90200000022,
      "d": 731.7060000000056,
      "v": 100
    },
    {
      "midi": 50,
      "hit": false,
      "t": 122926.60799999989,
      "d": 2926.8239999999932,
      "v": 80
    },
    {
      "midi": 55,
      "hit": false,
      "t": 122926.60799999989,
      "d": 2926.8239999999932,
      "v": 80
    },
    {
      "midi": 59,
      "hit": false,
      "t": 122926.60799999989,
      "d": 2926.8239999999932,
      "v": 80
    },
    {
      "midi": 71,
      "hit": false,
      "t": 122926.60800000023,
      "d": 1463.4119999999966,
      "v": 93
    },
    {
      "midi": 64,
      "hit": false,
      "t": 124390.02000000022,
      "d": 548.7795000000042,
      "v": 87
    },
    {
      "midi": 74,
      "hit": false,
      "t": 124938.79950000023,
      "d": 548.7795000000042,
      "v": 82
    },
    {
      "midi": 71,
      "hit": false,
      "t": 125487.57900000023,
      "d": 182.9265000000014,
      "v": 87
    },
    {
      "midi": 69,
      "hit": false,
      "t": 125670.50550000023,
      "d": 182.9265000000014,
      "v": 74
    },
    {
      "midi": 52,
      "hit": false,
      "t": 125853.43199999988,
      "d": 2926.8239999999932,
      "v": 80
    },
    {
      "midi": 55,
      "hit": false,
      "t": 125853.43199999988,
      "d": 2926.8239999999932,
      "v": 80
    },
    {
      "midi": 59,
      "hit": false,
      "t": 125853.43199999988,
      "d": 2926.8239999999932,
      "v": 80
    },
    {
      "midi": 67,
      "hit": false,
      "t": 125853.43200000023,
      "d": 1097.5589999999938,
      "v": 82
    },
    {
      "midi": 69,
      "hit": false,
      "t": 126950.99100000023,
      "d": 182.9265000000014,
      "v": 87
    },
    {
      "midi": 71,
      "hit": false,
      "t": 127133.91750000023,
      "d": 182.9265000000014,
      "v": 80
    },
    {
      "midi": 64,
      "hit": false,
      "t": 127316.84400000023,
      "d": 548.7795000000042,
      "v": 76
    },
    {
      "midi": 69,
      "hit": false,
      "t": 128048.55000000024,
      "d": 731.7060000000056,
      "v": 74
    },
    {
      "midi": 50,
      "hit": false,
      "t": 128780.25599999988,
      "d": 1463.4119999999966,
      "v": 80
    },
    {
      "midi": 55,
      "hit": false,
      "t": 128780.25599999988,
      "d": 1463.4119999999966,
      "v": 80
    },
    {
      "midi": 59,
      "hit": false,
      "t": 128780.25599999988,
      "d": 1463.4119999999966,
      "v": 80
    },
    {
      "midi": 71,
      "hit": false,
      "t": 128780.25600000024,
      "d": 640.2427500000049,
      "v": 87
    },
    {
      "midi": 71,
      "hit": false,
      "t": 129511.96200000025,
      "d": 365.8530000000028,
      "v": 93
    },
    {
      "midi": 74,
      "hit": false,
      "t": 129877.81500000025,
      "d": 548.7795000000042,
      "v": 78
    },
    {
      "midi": 52,
      "hit": false,
      "t": 130243.66799999987,
      "d": 1463.4119999999966,
      "v": 80
    },
    {
      "midi": 55,
      "hit": false,
      "t": 130243.66799999987,
      "d": 1463.4119999999966,
      "v": 80
    },
    {
      "midi": 59,
      "hit": false,
      "t": 130243.66799999987,
      "d": 1463.4119999999966,
      "v": 80
    },
    {
      "midi": 67,
      "hit": false,
      "t": 130243.66800000025,
      "d": 365.8530000000028,
      "v": 82
    },
    {
      "midi": 64,
      "hit": false,
      "t": 130609.52100000026,
      "d": 365.8530000000028,
      "v": 87
    },
    {
      "midi": 69,
      "hit": false,
      "t": 130975.37400000026,
      "d": 365.85299999998824,
      "v": 91
    },
    {
      "midi": 67,
      "hit": false,
      "t": 131341.22700000025,
      "d": 365.8530000000028,
      "v": 82
    },
    {
      "midi": 52,
      "hit": false,
      "t": 131707.07999999987,
      "d": 2920.7264499999874,
      "v": 80
    },
    {
      "midi": 57,
      "hit": false,
      "t": 131707.07999999987,
      "d": 2920.7264499999874,
      "v": 80
    },
    {
      "midi": 60,
      "hit": false,
      "t": 131707.07999999987,
      "d": 2920.7264499999874,
      "v": 80
    },
    {
      "midi": 69,
      "hit": false,
      "t": 131707.08000000025,
      "d": 365.8530000000028,
      "v": 82
    },
    {
      "midi": 52,
      "hit": false,
      "t": 134633.90399999986,
      "d": 2920.7264499999874,
      "v": 80
    },
    {
      "midi": 57,
      "hit": false,
      "t": 134633.90399999986,
      "d": 2920.7264499999874,
      "v": 80
    },
    {
      "midi": 60,
      "hit": false,
      "t": 134633.90399999986,
      "d": 2920.7264499999874,
      "v": 80
    },
    {
      "midi": 55,
      "hit": false,
      "t": 137560.72799999986,
      "d": 2926.8239999999932,
      "v": 80
    },
    {
      "midi": 59,
      "hit": false,
      "t": 137560.72799999986,
      "d": 2926.8239999999932,
      "v": 80
    },
    {
      "midi": 62,
      "hit": false,
      "t": 137560.72799999986,
      "d": 2926.8239999999932,
      "v": 80
    },
    {
      "midi": 52,
      "hit": false,
      "t": 140487.55199999985,
      "d": 2926.8239999999932,
      "v": 80
    },
    {
      "midi": 55,
      "hit": false,
      "t": 140487.55199999985,
      "d": 2926.8239999999932,
      "v": 80
    },
    {
      "midi": 59,
      "hit": false,
      "t": 140487.55199999985,
      "d": 2926.8239999999932,
      "v": 80
    },
    {
      "midi": 50,
      "hit": false,
      "t": 143414.37599999984,
      "d": 2926.8239999999932,
      "v": 80
    },
    {
      "midi": 55,
      "hit": false,
      "t": 143414.37599999984,
      "d": 2926.8239999999932,
      "v": 80
    },
    {
      "midi": 59,
      "hit": false,
      "t": 143414.37599999984,
      "d": 2926.8239999999932,
      "v": 80
    },
    {
      "midi": 28,
      "hit": false,
      "t": 145231.44590000002,
      "d": 560.9745999999868,
      "v": 55
    },
    {
      "midi": 43,
      "hit": false,
      "t": 145438.76260000002,
      "d": 743.9010999999882,
      "v": 51
    },
    {
      "midi": 40,
      "hit": false,
      "t": 145804.61560000002,
      "d": 518.291750000004,
      "v": 79
    },
    {
      "midi": 47,
      "hit": false,
      "t": 145981.44455000001,
      "d": 335.36525000000256,
      "v": 76
    },
    {
      "midi": 52,
      "hit": false,
      "t": 146164.37105000002,
      "d": 481.70644999999786,
      "v": 67
    },
    {
      "midi": 52,
      "hit": false,
      "t": 146341.19999999984,
      "d": 2926.8239999999932,
      "v": 80
    },
    {
      "midi": 55,
      "hit": false,
      "t": 146341.19999999984,
      "d": 2926.8239999999932,
      "v": 80
    },
    {
      "midi": 59,
      "hit": false,
      "t": 146341.19999999984,
      "d": 2926.8239999999932,
      "v": 80
    },
    {
      "midi": 38,
      "hit": false,
      "t": 146713.15055000002,
      "d": 1335.3634499999753,
      "v": 72
    },
    {
      "midi": 43,
      "hit": false,
      "t": 146914.3697,
      "d": 1280.4854999999807,
      "v": 73
    },
    {
      "midi": 47,
      "hit": false,
      "t": 147243.6374,
      "d": 1249.9977499999804,
      "v": 62
    },
    {
      "midi": 50,
      "hit": false,
      "t": 147585.10020000002,
      "d": 945.1202499999781,
      "v": 60
    },
    {
      "midi": 55,
      "hit": false,
      "t": 147755.8316,
      "d": 920.7300499999837,
      "v": 62
    },
    {
      "midi": 57,
      "hit": false,
      "t": 148505.83025,
      "d": 445.12114999999176,
      "v": 73
    },
    {
      "midi": 59,
      "hit": false,
      "t": 148889.9759,
      "d": 676.828050000011,
      "v": 66
    },
    {
      "midi": 50,
      "hit": false,
      "t": 149268.02399999983,
      "d": 1463.4120000000112,
      "v": 80
    },
    {
      "midi": 55,
      "hit": false,
      "t": 149268.02399999983,
      "d": 1463.4120000000112,
      "v": 80
    },
    {
      "midi": 59,
      "hit": false,
      "t": 149268.02399999983,
      "d": 1463.4120000000112,
      "v": 80
    },
    {
      "midi": 28,
      "hit": false,
      "t": 149280.2191,
      "d": 1134.1443000000145,
      "v": 66
    },
    {
      "midi": 26,
      "hit": false,
      "t": 149286.31665,
      "d": 42.68285000001197,
      "v": 66
    },
    {
      "midi": 35,
      "hit": false,
      "t": 149621.6819,
      "d": 999.9982000000018,
      "v": 58
    },
    {
      "midi": 40,
      "hit": false,
      "t": 149798.51085,
      "d": 884.1447500000068,
      "v": 88
    },
    {
      "midi": 47,
      "hit": false,
      "t": 150164.36385,
      "d": 487.8040000000037,
      "v": 80
    },
    {
      "midi": 52,
      "hit": false,
      "t": 150347.29035,
      "d": 371.95055000000866,
      "v": 71
    },
    {
      "midi": 55,
      "hit": false,
      "t": 150536.3144,
      "d": 219.5118000000075,
      "v": 58
    },
    {
      "midi": 52,
      "hit": false,
      "t": 150731.43599999984,
      "d": 1463.4120000000112,
      "v": 80
    },
    {
      "midi": 55,
      "hit": false,
      "t": 150731.43599999984,
      "d": 1463.4120000000112,
      "v": 80
    },
    {
      "midi": 59,
      "hit": false,
      "t": 150731.43599999984,
      "d": 1463.4120000000112,
      "v": 80
    },
    {
      "midi": 59,
      "hit": false,
      "t": 150749.72865,
      "d": 396.34075000003213,
      "v": 75
    },
    {
      "midi": 31,
      "hit": false,
      "t": 150749.72865,
      "d": 628.0476500000223,
      "v": 73
    },
    {
      "midi": 55,
      "hit": false,
      "t": 151103.38655000002,
      "d": 341.46280000000843,
      "v": 52
    },
    {
      "midi": 28,
      "hit": false,
      "t": 151444.84935000003,
      "d": 365.8530000000028,
      "v": 68
    },
    {
      "midi": 50,
      "hit": false,
      "t": 151457.04445000004,
      "d": 432.92604999998,
      "v": 66
    },
    {
      "midi": 45,
      "hit": false,
      "t": 152188.75045000002,
      "d": 256.0970999999845,
      "v": 63
    },
    {
      "midi": 52,
      "hit": false,
      "t": 152194.84799999985,
      "d": 1463.4120000000112,
      "v": 80
    },
    {
      "midi": 57,
      "hit": false,
      "t": 152194.84799999985,
      "d": 1463.4120000000112,
      "v": 80
    },
    {
      "midi": 60,
      "hit": false,
      "t": 152194.84799999985,
      "d": 1463.4120000000112,
      "v": 80
    },
    {
      "midi": 33,
      "hit": false,
      "t": 152207.0431,
      "d": 2176.825349999999,
      "v": 69
    },
    {
      "midi": 48,
      "hit": false,
      "t": 152213.14065000002,
      "d": 249.99954999997863,
      "v": 54
    },
    {
      "midi": 52,
      "hit": false,
      "t": 152237.53085,
      "d": 310.9750499999791,
      "v": 64
    },
    {
      "midi": 40,
      "hit": false,
      "t": 152542.40834999998,
      "d": 1884.1429500000377,
      "v": 57
    },
    {
      "midi": 45,
      "hit": false,
      "t": 152749.72504999998,
      "d": 1585.363000000012,
      "v": 88
    },
    {
      "midi": 52,
      "hit": false,
      "t": 153115.57804999998,
      "d": 597.5598999999929,
      "v": 80
    },
    {
      "midi": 60,
      "hit": false,
      "t": 153450.94329999998,
      "d": 298.77994999999646,
      "v": 84
    },
    {
      "midi": 55,
      "hit": false,
      "t": 153658.25999999986,
      "d": 1463.4120000000112,
      "v": 80
    },
    {
      "midi": 59,
      "hit": false,
      "t": 153658.25999999986,
      "d": 1463.4120000000112,
      "v": 80
    },
    {
      "midi": 62,
      "hit": false,
      "t": 153658.25999999986,
      "d": 1463.4120000000112,
      "v": 80
    },
    {
      "midi": 59,
      "hit": false,
      "t": 153658.25999999998,
      "d": 390.24320000002626,
      "v": 74
    },
    {
      "midi": 57,
      "hit": false,
      "t": 154005.82035,
      "d": 280.48730000000796,
      "v": 62
    },
    {
      "midi": 55,
      "hit": false,
      "t": 154377.7709,
      "d": 371.95055000000866,
      "v": 86
    },
    {
      "midi": 52,
      "hit": false,
      "t": 155036.30630000003,
      "d": 518.291750000004,
      "v": 57
    },
    {
      "midi": 57,
      "hit": false,
      "t": 155078.98915000004,
      "d": 762.1937499999767,
      "v": 64
    },
    {
      "midi": 33,
      "hit": false,
      "t": 155109.47690000004,
      "d": 804.8765999999887,
      "v": 72
    },
    {
      "midi": 60,
      "hit": false,
      "t": 155115.57445000004,
      "d": 585.3647999999812,
      "v": 43
    },
    {
      "midi": 52,
      "hit": false,
      "t": 155121.67199999987,
      "d": 1463.4120000000112,
      "v": 80
    },
    {
      "midi": 57,
      "hit": false,
      "t": 155121.67199999987,
      "d": 1463.4120000000112,
      "v": 80
    },
    {
      "midi": 60,
      "hit": false,
      "t": 155121.67199999987,
      "d": 1463.4120000000112,
      "v": 80
    },
    {
      "midi": 52,
      "hit": false,
      "t": 155871.67065000001,
      "d": 1329.2658999999985,
      "v": 41
    },
    {
      "midi": 57,
      "hit": false,
      "t": 156219.23100000003,
      "d": 920.7300499999837,
      "v": 62
    },
    {
      "midi": 64,
      "hit": false,
      "t": 156219.23100000003,
      "d": 963.4128999999957,
      "v": 52
    },
    {
      "midi": 60,
      "hit": false,
      "t": 156219.23100000003,
      "d": 981.7055499999842,
      "v": 47
    },
    {
      "midi": 33,
      "hit": false,
      "t": 156237.52365000002,
      "d": 945.1202500000072,
      "v": 74
    },
    {
      "midi": 50,
      "hit": false,
      "t": 156585.0839999999,
      "d": 1463.4120000000112,
      "v": 80
    },
    {
      "midi": 55,
      "hit": false,
      "t": 156585.0839999999,
      "d": 1463.4120000000112,
      "v": 80
    },
    {
      "midi": 59,
      "hit": false,
      "t": 156585.0839999999,
      "d": 1463.4120000000112,
      "v": 80
    },
    {
      "midi": 52,
      "hit": false,
      "t": 158048.4959999999,
      "d": 2743.897499999992,
      "v": 80
    },
    {
      "midi": 57,
      "hit": false,
      "t": 158048.4959999999,
      "d": 2926.8239999999932,
      "v": 80
    },
    {
      "midi": 60,
      "hit": false,
      "t": 158048.4959999999,
      "d": 2926.8239999999932,
      "v": 80
    },
    {
      "midi": 64,
      "hit": false,
      "t": 158048.49600000025,
      "d": 1463.4120000000112,
      "v": 89
    },
    {
      "midi": 69,
      "hit": false,
      "t": 159511.90800000026,
      "d": 548.7795000000042,
      "v": 87
    },
    {
      "midi": 64,
      "hit": false,
      "t": 160060.68750000026,
      "d": 365.8530000000028,
      "v": 76
    },
    {
      "midi": 62,
      "hit": false,
      "t": 160426.54050000026,
      "d": 182.9265000000014,
      "v": 70
    },
    {
      "midi": 60,
      "hit": false,
      "t": 160609.46700000027,
      "d": 365.8530000000028,
      "v": 66
    },
    {
      "midi": 50,
      "hit": false,
      "t": 160975.3199999999,
      "d": 2926.8239999999932,
      "v": 80
    },
    {
      "midi": 53,
      "hit": false,
      "t": 160975.3199999999,
      "d": 2926.8239999999932,
      "v": 80
    },
    {
      "midi": 57,
      "hit": false,
      "t": 160975.3199999999,
      "d": 2926.8239999999932,
      "v": 80
    },
    {
      "midi": 62,
      "hit": false,
      "t": 160975.32000000027,
      "d": 548.7795000000042,
      "v": 80
    },
    {
      "midi": 62,
      "hit": false,
      "t": 161707.02600000027,
      "d": 182.9265000000014,
      "v": 64
    },
    {
      "midi": 62,
      "hit": false,
      "t": 162072.87900000028,
      "d": 731.7060000000056,
      "v": 85
    },
    {
      "midi": 57,
      "hit": false,
      "t": 162804.58500000028,
      "d": 548.7795000000042,
      "v": 80
    },
    {
      "midi": 62,
      "hit": false,
      "t": 163353.3645000003,
      "d": 548.7795000000042,
      "v": 72
    },
    {
      "midi": 52,
      "hit": false,
      "t": 163902.14399999988,
      "d": 2926.8239999999932,
      "v": 80
    },
    {
      "midi": 57,
      "hit": false,
      "t": 163902.14399999988,
      "d": 2926.8239999999932,
      "v": 80
    },
    {
      "midi": 60,
      "hit": false,
      "t": 163902.14399999988,
      "d": 2926.8239999999932,
      "v": 80
    },
    {
      "midi": 64,
      "hit": false,
      "t": 163902.1440000003,
      "d": 2926.8239999999932,
      "v": 82
    },
    {
      "midi": 52,
      "hit": false,
      "t": 166828.96799999988,
      "d": 2926.8239999999932,
      "v": 80
    },
    {
      "midi": 57,
      "hit": false,
      "t": 166828.96799999988,
      "d": 2926.8239999999932,
      "v": 80
    },
    {
      "midi": 60,
      "hit": false,
      "t": 166828.96799999988,
      "d": 2926.8239999999932,
      "v": 80
    },
    {
      "midi": 64,
      "hit": false,
      "t": 168658.2330000003,
      "d": 731.7060000000056,
      "v": 85
    },
    {
      "midi": 67,
      "hit": false,
      "t": 169389.9390000003,
      "d": 182.9265000000014,
      "v": 87
    },
    {
      "midi": 52,
      "hit": false,
      "t": 169755.79199999987,
      "d": 2926.8239999999932,
      "v": 80
    },
    {
      "midi": 55,
      "hit": false,
      "t": 169755.79199999987,
      "d": 2926.8239999999932,
      "v": 80
    },
    {
      "midi": 59,
      "hit": false,
      "t": 169755.79199999987,
      "d": 2926.8239999999932,
      "v": 80
    },
    {
      "midi": 67,
      "hit": false,
      "t": 169755.7920000003,
      "d": 914.632500000007,
      "v": 93
    },
    {
      "midi": 67,
      "hit": false,
      "t": 170853.35100000032,
      "d": 182.9265000000014,
      "v": 95
    },
    {
      "midi": 67,
      "hit": false,
      "t": 171219.20400000032,
      "d": 548.7795000000042,
      "v": 89
    },
    {
      "midi": 64,
      "hit": false,
      "t": 171767.98350000032,
      "d": 548.7795000000042,
      "v": 87
    },
    {
      "midi": 67,
      "hit": false,
      "t": 172316.76300000033,
      "d": 365.8530000000028,
      "v": 82
    },
    {
      "midi": 53,
      "hit": false,
      "t": 172682.61599999986,
      "d": 2926.8239999999932,
      "v": 80
    },
    {
      "midi": 57,
      "hit": false,
      "t": 172682.61599999986,
      "d": 2926.8239999999932,
      "v": 80
    },
    {
      "midi": 60,
      "hit": false,
      "t": 172682.61599999986,
      "d": 2926.8239999999932,
      "v": 80
    },
    {
      "midi": 69,
      "hit": false,
      "t": 172682.61600000033,
      "d": 1097.5590000000084,
      "v": 98
    },
    {
      "midi": 60,
      "hit": false,
      "t": 173780.17500000034,
      "d": 365.8530000000028,
      "v": 91
    },
    {
      "midi": 64,
      "hit": false,
      "t": 174146.02800000034,
      "d": 365.8530000000028,
      "v": 82
    },
    {
      "midi": 62,
      "hit": false,
      "t": 174511.88100000034,
      "d": 365.8530000000028,
      "v": 64
    },
    {
      "midi": 60,
      "hit": false,
      "t": 174877.73400000035,
      "d": 365.8530000000028,
      "v": 70
    },
    {
      "midi": 55,
      "hit": false,
      "t": 175243.58700000035,
      "d": 365.8530000000028,
      "v": 87
    },
    {
      "midi": 52,
      "hit": false,
      "t": 175609.43999999986,
      "d": 2926.8239999999932,
      "v": 80
    },
    {
      "midi": 57,
      "hit": false,
      "t": 175609.43999999986,
      "d": 2926.8239999999932,
      "v": 80
    },
    {
      "midi": 60,
      "hit": false,
      "t": 175609.43999999986,
      "d": 2926.8239999999932,
      "v": 80
    },
    {
      "midi": 57,
      "hit": false,
      "t": 175609.44000000035,
      "d": 1646.3385000000126,
      "v": 85
    },
    {
      "midi": 52,
      "hit": false,
      "t": 178536.26399999985,
      "d": 2926.8239999999932,
      "v": 80
    },
    {
      "midi": 57,
      "hit": false,
      "t": 178536.26399999985,
      "d": 2926.8239999999932,
      "v": 80
    },
    {
      "midi": 60,
      "hit": false,
      "t": 178536.26399999985,
      "d": 2926.8239999999932,
      "v": 80
    },
    {
      "midi": 64,
      "hit": false,
      "t": 179633.82300000035,
      "d": 365.8530000000028,
      "v": 78
    },
    {
      "midi": 67,
      "hit": false,
      "t": 179999.67600000036,
      "d": 548.7795000000042,
      "v": 70
    },
    {
      "midi": 57,
      "hit": false,
      "t": 180548.45550000036,
      "d": 548.7795000000042,
      "v": 82
    },
    {
      "midi": 62,
      "hit": false,
      "t": 181097.23500000036,
      "d": 365.8530000000028,
      "v": 87
    },
    {
      "midi": 52,
      "hit": false,
      "t": 181463.08799999984,
      "d": 2926.8239999999932,
      "v": 80
    },
    {
      "midi": 55,
      "hit": false,
      "t": 181463.08799999984,
      "d": 2926.8239999999932,
      "v": 80
    },
    {
      "midi": 60,
      "hit": false,
      "t": 181463.08799999984,
      "d": 2926.8239999999932,
      "v": 80
    },
    {
      "midi": 64,
      "hit": false,
      "t": 181463.08800000037,
      "d": 914.632500000007,
      "v": 89
    },
    {
      "midi": 64,
      "hit": false,
      "t": 182560.64700000038,
      "d": 365.8530000000028,
      "v": 82
    },
    {
      "midi": 67,
      "hit": false,
      "t": 182926.50000000038,
      "d": 365.8530000000028,
      "v": 85
    },
    {
      "midi": 67,
      "hit": false,
      "t": 183475.27950000038,
      "d": 548.7795000000042,
      "v": 78
    },
    {
      "midi": 64,
      "hit": false,
      "t": 184024.0590000004,
      "d": 365.8530000000028,
      "v": 85
    },
    {
      "midi": 52,
      "hit": false,
      "t": 184389.91199999984,
      "d": 2926.8239999999932,
      "v": 80
    },
    {
      "midi": 57,
      "hit": false,
      "t": 184389.91199999984,
      "d": 2926.8239999999932,
      "v": 80
    },
    {
      "midi": 60,
      "hit": false,
      "t": 184389.91199999984,
      "d": 2926.8239999999932,
      "v": 80
    },
    {
      "midi": 69,
      "hit": false,
      "t": 184389.9120000004,
      "d": 1097.5590000000084,
      "v": 85
    },
    {
      "midi": 67,
      "hit": false,
      "t": 185487.4710000004,
      "d": 182.9265000000014,
      "v": 82
    },
    {
      "midi": 69,
      "hit": false,
      "t": 185670.3975000004,
      "d": 182.9265000000014,
      "v": 80
    },
    {
      "midi": 57,
      "hit": false,
      "t": 185853.3240000004,
      "d": 457.3162500000035,
      "v": 76
    },
    {
      "midi": 57,
      "hit": false,
      "t": 186402.1035000004,
      "d": 548.7795000000042,
      "v": 80
    },
    {
      "midi": 62,
      "hit": false,
      "t": 186950.8830000004,
      "d": 365.8530000000028,
      "v": 85
    },
    {
      "midi": 52,
      "hit": false,
      "t": 187316.73599999983,
      "d": 2926.8239999999932,
      "v": 80
    },
    {
      "midi": 57,
      "hit": false,
      "t": 187316.73599999983,
      "d": 2926.8239999999932,
      "v": 80
    },
    {
      "midi": 60,
      "hit": false,
      "t": 187316.73599999983,
      "d": 2926.8239999999932,
      "v": 80
    },
    {
      "midi": 64,
      "hit": false,
      "t": 187316.7360000004,
      "d": 2743.897499999992,
      "v": 91
    },
    {
      "midi": 52,
      "hit": false,
      "t": 190243.55999999982,
      "d": 2926.8239999999932,
      "v": 80
    },
    {
      "midi": 57,
      "hit": false,
      "t": 190243.55999999982,
      "d": 2926.8239999999932,
      "v": 80
    },
    {
      "midi": 60,
      "hit": false,
      "t": 190243.55999999982,
      "d": 2926.8239999999932,
      "v": 80
    },
    {
      "midi": 64,
      "hit": false,
      "t": 191341.1190000004,
      "d": 731.7060000000056,
      "v": 78
    },
    {
      "midi": 62,
      "hit": false,
      "t": 192072.82500000042,
      "d": 365.8530000000028,
      "v": 82
    },
    {
      "midi": 60,
      "hit": false,
      "t": 192438.67800000042,
      "d": 365.8530000000028,
      "v": 80
    },
    {
      "midi": 57,
      "hit": false,
      "t": 192804.53100000042,
      "d": 182.9265000000014,
      "v": 74
    },
    {
      "midi": 53,
      "hit": false,
      "t": 193170.38399999982,
      "d": 2926.8239999999932,
      "v": 80
    },
    {
      "midi": 57,
      "hit": false,
      "t": 193170.38399999982,
      "d": 2926.8239999999932,
      "v": 80
    },
    {
      "midi": 60,
      "hit": false,
      "t": 193170.38399999982,
      "d": 2926.8239999999932,
      "v": 80
    },
    {
      "midi": 57,
      "hit": false,
      "t": 193170.38400000043,
      "d": 1097.5590000000084,
      "v": 95
    },
    {
      "midi": 60,
      "hit": false,
      "t": 194267.94300000044,
      "d": 548.7795000000042,
      "v": 89
    },
    {
      "midi": 60,
      "hit": false,
      "t": 194999.64900000044,
      "d": 731.7060000000056,
      "v": 91
    },
    {
      "midi": 57,
      "hit": false,
      "t": 195731.35500000045,
      "d": 365.8530000000028,
      "v": 80
    },
    {
      "midi": 52,
      "hit": false,
      "t": 196097.2079999998,
      "d": 2926.8239999999932,
      "v": 80
    },
    {
      "midi": 60,
      "hit": false,
      "t": 196097.2079999998,
      "d": 2926.8239999999932,
      "v": 80
    },
    {
      "midi": 64,
      "hit": false,
      "t": 196097.2079999998,
      "d": 2926.8239999999932,
      "v": 80
    },
    {
      "midi": 64,
      "hit": false,
      "t": 196097.20800000045,
      "d": 2195.1179999999877,
      "v": 87
    },
    {
      "midi": 67,
      "hit": false,
      "t": 198292.32600000044,
      "d": 365.8530000000028,
      "v": 78
    },
    {
      "midi": 62,
      "hit": false,
      "t": 198658.17900000044,
      "d": 365.8530000000028,
      "v": 80
    },
    {
      "midi": 52,
      "hit": false,
      "t": 199024.0319999998,
      "d": 2926.8239999999932,
      "v": 80
    },
    {
      "midi": 55,
      "hit": false,
      "t": 199024.0319999998,
      "d": 2926.8239999999932,
      "v": 80
    },
    {
      "midi": 64,
      "hit": false,
      "t": 199024.0319999998,
      "d": 2926.8239999999932,
      "v": 80
    },
    {
      "midi": 64,
      "hit": false,
      "t": 199024.03200000044,
      "d": 1097.5590000000084,
      "v": 95
    },
    {
      "midi": 67,
      "hit": false,
      "t": 200121.59100000045,
      "d": 365.8530000000028,
      "v": 76
    },
    {
      "midi": 64,
      "hit": false,
      "t": 200487.44400000045,
      "d": 548.7795000000042,
      "v": 82
    },
    {
      "midi": 67,
      "hit": false,
      "t": 201036.22350000046,
      "d": 548.7795000000042,
      "v": 85
    },
    {
      "midi": 69,
      "hit": false,
      "t": 201585.00300000046,
      "d": 182.9265000000014,
      "v": 91
    },
    {
      "midi": 72,
      "hit": false,
      "t": 201767.92950000046,
      "d": 182.9265000000014,
      "v": 95
    },
    {
      "midi": 52,
      "hit": false,
      "t": 201950.8559999998,
      "d": 2926.8239999999932,
      "v": 80
    },
    {
      "midi": 57,
      "hit": false,
      "t": 201950.8559999998,
      "d": 2926.8239999999932,
      "v": 80
    },
    {
      "midi": 60,
      "hit": false,
      "t": 201950.8559999998,
      "d": 2926.8239999999932,
      "v": 80
    },
    {
      "midi": 69,
      "hit": false,
      "t": 201950.85600000047,
      "d": 1646.3385000000126,
      "v": 95
    },
    {
      "midi": 69,
      "hit": false,
      "t": 203780.12100000048,
      "d": 548.7795000000042,
      "v": 85
    },
    {
      "midi": 69,
      "hit": false,
      "t": 204511.82700000048,
      "d": 182.9265000000014,
      "v": 89
    },
    {
      "midi": 52,
      "hit": false,
      "t": 204877.6799999998,
      "d": 1463.4120000000112,
      "v": 80
    },
    {
      "midi": 57,
      "hit": false,
      "t": 204877.6799999998,
      "d": 1463.4120000000112,
      "v": 80
    },
    {
      "midi": 60,
      "hit": false,
      "t": 204877.6799999998,
      "d": 1463.4120000000112,
      "v": 80
    },
    {
      "midi": 69,
      "hit": false,
      "t": 204877.6800000005,
      "d": 1097.5590000000084,
      "v": 93
    },
    {
      "midi": 64,
      "hit": false,
      "t": 205975.2390000005,
      "d": 365.8530000000028,
      "v": 76
    },
    {
      "midi": 50,
      "hit": false,
      "t": 206341.0919999998,
      "d": 1463.4120000000112,
      "v": 80
    },
    {
      "midi": 55,
      "hit": false,
      "t": 206341.0919999998,
      "d": 1463.4120000000112,
      "v": 80
    },
    {
      "midi": 59,
      "hit": false,
      "t": 206341.0919999998,
      "d": 1463.4120000000112,
      "v": 80
    },
    {
      "midi": 67,
      "hit": false,
      "t": 206341.0920000005,
      "d": 731.7060000000056,
      "v": 78
    },
    {
      "midi": 64,
      "hit": false,
      "t": 207072.7980000005,
      "d": 365.8530000000028,
      "v": 82
    },
    {
      "midi": 62,
      "hit": false,
      "t": 207438.6510000005,
      "d": 365.8530000000028,
      "v": 89
    },
    {
      "midi": 52,
      "hit": false,
      "t": 207804.5039999998,
      "d": 2926.8239999999932,
      "v": 80
    },
    {
      "midi": 55,
      "hit": false,
      "t": 207804.5039999998,
      "d": 2926.8239999999932,
      "v": 80
    },
    {
      "midi": 60,
      "hit": false,
      "t": 207804.5039999998,
      "d": 2926.8239999999932,
      "v": 80
    },
    {
      "midi": 64,
      "hit": false,
      "t": 207804.5040000005,
      "d": 2195.1179999999877,
      "v": 89
    },
    {
      "midi": 60,
      "hit": false,
      "t": 209999.6220000005,
      "d": 365.8530000000028,
      "v": 87
    },
    {
      "midi": 57,
      "hit": false,
      "t": 210365.4750000005,
      "d": 365.8530000000028,
      "v": 85
    },
    {
      "midi": 52,
      "hit": false,
      "t": 210731.3279999998,
      "d": 1463.4120000000112,
      "v": 80
    },
    {
      "midi": 57,
      "hit": false,
      "t": 210731.3279999998,
      "d": 1463.4120000000112,
      "v": 80
    },
    {
      "midi": 60,
      "hit": false,
      "t": 210731.3279999998,
      "d": 1463.4120000000112,
      "v": 80
    },
    {
      "midi": 60,
      "hit": false,
      "t": 210731.3280000005,
      "d": 1097.5590000000084,
      "v": 78
    },
    {
      "midi": 57,
      "hit": false,
      "t": 211828.8870000005,
      "d": 365.8530000000028,
      "v": 78
    },
    {
      "midi": 50,
      "hit": false,
      "t": 212194.73999999982,
      "d": 1463.4120000000112,
      "v": 80
    },
    {
      "midi": 55,
      "hit": false,
      "t": 212194.73999999982,
      "d": 1463.4120000000112,
      "v": 80
    },
    {
      "midi": 59,
      "hit": false,
      "t": 212194.73999999982,
      "d": 1463.4120000000112,
      "v": 80
    },
    {
      "midi": 64,
      "hit": false,
      "t": 212194.74000000051,
      "d": 365.8530000000028,
      "v": 98
    },
    {
      "midi": 67,
      "hit": false,
      "t": 212743.51950000052,
      "d": 548.7795000000042,
      "v": 85
    },
    {
      "midi": 65,
      "hit": false,
      "t": 213292.29900000052,
      "d": 365.8530000000028,
      "v": 87
    },
    {
      "midi": 52,
      "hit": false,
      "t": 213658.15199999983,
      "d": 2926.8239999999932,
      "v": 80
    },
    {
      "midi": 55,
      "hit": false,
      "t": 213658.15199999983,
      "d": 2926.8239999999932,
      "v": 80
    },
    {
      "midi": 60,
      "hit": false,
      "t": 213658.15199999983,
      "d": 2926.8239999999932,
      "v": 80
    },
    {
      "midi": 64,
      "hit": false,
      "t": 213658.15200000053,
      "d": 2195.1179999999877,
      "v": 87
    },
    {
      "midi": 62,
      "hit": false,
      "t": 215853.2700000005,
      "d": 365.8530000000028,
      "v": 82
    },
    {
      "midi": 60,
      "hit": false,
      "t": 216219.12300000052,
      "d": 365.8530000000028,
      "v": 72
    },
    {
      "midi": 50,
      "hit": false,
      "t": 216584.97599999982,
      "d": 2926.8239999999932,
      "v": 80
    },
    {
      "midi": 53,
      "hit": false,
      "t": 216584.97599999982,
      "d": 2926.8239999999932,
      "v": 80
    },
    {
      "midi": 57,
      "hit": false,
      "t": 216584.97599999982,
      "d": 2926.8239999999932,
      "v": 80
    },
    {
      "midi": 62,
      "hit": false,
      "t": 216584.97600000052,
      "d": 1097.5590000000084,
      "v": 85
    },
    {
      "midi": 57,
      "hit": false,
      "t": 217682.53500000053,
      "d": 365.8530000000028,
      "v": 82
    },
    {
      "midi": 62,
      "hit": false,
      "t": 218048.38800000053,
      "d": 548.7795000000042,
      "v": 85
    },
    {
      "midi": 64,
      "hit": false,
      "t": 218597.16750000053,
      "d": 548.7795000000042,
      "v": 87
    },
    {
      "midi": 62,
      "hit": false,
      "t": 219145.94700000054,
      "d": 365.8530000000028,
      "v": 78
    },
    {
      "midi": 53,
      "hit": false,
      "t": 219511.7999999998,
      "d": 2926.8239999999932,
      "v": 80
    },
    {
      "midi": 57,
      "hit": false,
      "t": 219511.7999999998,
      "d": 2926.8239999999932,
      "v": 80
    },
    {
      "midi": 60,
      "hit": false,
      "t": 219511.7999999998,
      "d": 2926.8239999999932,
      "v": 80
    },
    {
      "midi": 60,
      "hit": false,
      "t": 219511.80000000054,
      "d": 2012.1914999999863,
      "v": 85
    },
    {
      "midi": 60,
      "hit": false,
      "t": 221706.91800000053,
      "d": 365.8530000000028,
      "v": 80
    },
    {
      "midi": 57,
      "hit": false,
      "t": 222072.77100000053,
      "d": 365.8530000000028,
      "v": 82
    },
    {
      "midi": 52,
      "hit": false,
      "t": 222438.6239999998,
      "d": 1463.4120000000112,
      "v": 80
    },
    {
      "midi": 57,
      "hit": false,
      "t": 222438.6239999998,
      "d": 1463.4120000000112,
      "v": 80
    },
    {
      "midi": 60,
      "hit": false,
      "t": 222438.6239999998,
      "d": 1463.4120000000112,
      "v": 80
    },
    {
      "midi": 64,
      "hit": false,
      "t": 222438.62400000053,
      "d": 1097.5590000000084,
      "v": 78
    },
    {
      "midi": 60,
      "hit": false,
      "t": 223536.18300000054,
      "d": 365.8530000000028,
      "v": 80
    },
    {
      "midi": 50,
      "hit": false,
      "t": 223902.03599999982,
      "d": 1463.4120000000112,
      "v": 80
    },
    {
      "midi": 55,
      "hit": false,
      "t": 223902.03599999982,
      "d": 1463.4120000000112,
      "v": 80
    },
    {
      "midi": 59,
      "hit": false,
      "t": 223902.03599999982,
      "d": 1463.4120000000112,
      "v": 80
    },
    {
      "midi": 62,
      "hit": false,
      "t": 223902.03600000055,
      "d": 731.7060000000056,
      "v": 85
    },
    {
      "midi": 55,
      "hit": false,
      "t": 224633.74200000055,
      "d": 365.8530000000028,
      "v": 82
    },
    {
      "midi": 60,
      "hit": false,
      "t": 224999.59500000055,
      "d": 365.8530000000028,
      "v": 74
    },
    {
      "midi": 52,
      "hit": false,
      "t": 225365.44799999983,
      "d": 2926.8239999999932,
      "v": 80
    },
    {
      "midi": 57,
      "hit": false,
      "t": 225365.44799999983,
      "d": 2926.8239999999932,
      "v": 80
    },
    {
      "midi": 60,
      "hit": false,
      "t": 225365.44799999983,
      "d": 2926.8239999999932,
      "v": 80
    },
    {
      "midi": 57,
      "hit": false,
      "t": 225365.44800000056,
      "d": 2560.9709999999905,
      "v": 91
    },
    {
      "midi": 52,
      "hit": false,
      "t": 228292.27199999982,
      "d": 2926.8239999999932,
      "v": 80
    },
    {
      "midi": 57,
      "hit": false,
      "t": 228292.27199999982,
      "d": 2926.8239999999932,
      "v": 80
    },
    {
      "midi": 60,
      "hit": false,
      "t": 228292.27199999982,
      "d": 2926.8239999999932,
      "v": 80
    },
    {
      "midi": 64,
      "hit": false,
      "t": 229755.68400000056,
      "d": 548.7795000000042,
      "v": 95
    },
    {
      "midi": 67,
      "hit": false,
      "t": 230304.46350000057,
      "d": 548.7795000000042,
      "v": 91
    },
    {
      "midi": 69,
      "hit": false,
      "t": 230853.24300000057,
      "d": 182.9265000000014,
      "v": 89
    },
    {
      "midi": 52,
      "hit": false,
      "t": 231219.09599999982,
      "d": 2926.8239999999932,
      "v": 80
    },
    {
      "midi": 57,
      "hit": false,
      "t": 231219.09599999982,
      "d": 2926.8239999999932,
      "v": 80
    },
    {
      "midi": 60,
      "hit": false,
      "t": 231219.09599999982,
      "d": 2926.8239999999932,
      "v": 80
    },
    {
      "midi": 69,
      "hit": false,
      "t": 231219.09600000057,
      "d": 1463.4120000000112,
      "v": 98
    },
    {
      "midi": 60,
      "hit": false,
      "t": 232682.50800000058,
      "d": 548.7795000000042,
      "v": 87
    },
    {
      "midi": 64,
      "hit": false,
      "t": 233231.2875000006,
      "d": 548.7795000000042,
      "v": 93
    },
    {
      "midi": 67,
      "hit": false,
      "t": 233780.0670000006,
      "d": 182.9265000000014,
      "v": 87
    },
    {
      "midi": 69,
      "hit": false,
      "t": 233962.9935000006,
      "d": 182.9265000000014,
      "v": 85
    },
    {
      "midi": 52,
      "hit": false,
      "t": 234145.9199999998,
      "d": 2926.8239999999932,
      "v": 80
    },
    {
      "midi": 55,
      "hit": false,
      "t": 234145.9199999998,
      "d": 2926.8239999999932,
      "v": 80
    },
    {
      "midi": 60,
      "hit": false,
      "t": 234145.9199999998,
      "d": 2926.8239999999932,
      "v": 80
    },
    {
      "midi": 67,
      "hit": false,
      "t": 234145.9200000006,
      "d": 1463.4120000000112,
      "v": 95
    },
    {
      "midi": 57,
      "hit": false,
      "t": 235609.3320000006,
      "d": 548.7795000000042,
      "v": 85
    },
    {
      "midi": 62,
      "hit": false,
      "t": 236158.1115000006,
      "d": 548.7795000000042,
      "v": 82
    },
    {
      "midi": 64,
      "hit": false,
      "t": 236706.8910000006,
      "d": 182.9265000000014,
      "v": 72
    },
    {
      "midi": 67,
      "hit": false,
      "t": 236889.81750000062,
      "d": 182.9265000000014,
      "v": 78
    },
    {
      "midi": 52,
      "hit": false,
      "t": 237072.7439999998,
      "d": 1463.4120000000112,
      "v": 80
    },
    {
      "midi": 57,
      "hit": false,
      "t": 237072.7439999998,
      "d": 1463.4120000000112,
      "v": 80
    },
    {
      "midi": 60,
      "hit": false,
      "t": 237072.7439999998,
      "d": 1463.4120000000112,
      "v": 80
    },
    {
      "midi": 64,
      "hit": false,
      "t": 237072.74400000062,
      "d": 1097.5590000000084,
      "v": 89
    },
    {
      "midi": 60,
      "hit": false,
      "t": 238170.30300000063,
      "d": 365.8530000000028,
      "v": 82
    },
    {
      "midi": 50,
      "hit": false,
      "t": 238536.1559999998,
      "d": 1463.4120000000112,
      "v": 80
    },
    {
      "midi": 55,
      "hit": false,
      "t": 238536.1559999998,
      "d": 1463.4120000000112,
      "v": 80
    },
    {
      "midi": 59,
      "hit": false,
      "t": 238536.1559999998,
      "d": 1463.4120000000112,
      "v": 80
    },
    {
      "midi": 62,
      "hit": false,
      "t": 238536.15600000063,
      "d": 365.8530000000028,
      "v": 87
    },
    {
      "midi": 62,
      "hit": false,
      "t": 239084.93550000063,
      "d": 548.7795000000042,
      "v": 87
    },
    {
      "midi": 60,
      "hit": false,
      "t": 239633.71500000064,
      "d": 365.8530000000028,
      "v": 85
    },
    {
      "midi": 50,
      "hit": false,
      "t": 239999.56799999982,
      "d": 1463.4120000000112,
      "v": 80
    },
    {
      "midi": 55,
      "hit": false,
      "t": 239999.56799999982,
      "d": 1463.4120000000112,
      "v": 80
    },
    {
      "midi": 59,
      "hit": false,
      "t": 239999.56799999982,
      "d": 1463.4120000000112,
      "v": 80
    },
    {
      "midi": 64,
      "hit": false,
      "t": 239999.56800000064,
      "d": 548.7795000000042,
      "v": 72
    },
    {
      "midi": 62,
      "hit": false,
      "t": 240548.34750000064,
      "d": 365.8530000000028,
      "v": 74
    },
    {
      "midi": 60,
      "hit": false,
      "t": 240914.20050000065,
      "d": 182.9265000000014,
      "v": 66
    },
    {
      "midi": 55,
      "hit": false,
      "t": 241097.12700000065,
      "d": 182.9265000000014,
      "v": 95
    },
    {
      "midi": 52,
      "hit": false,
      "t": 241462.97999999984,
      "d": 1463.4120000000112,
      "v": 80
    },
    {
      "midi": 57,
      "hit": false,
      "t": 241462.97999999984,
      "d": 1463.4120000000112,
      "v": 80
    },
    {
      "midi": 60,
      "hit": false,
      "t": 241462.97999999984,
      "d": 1463.4120000000112,
      "v": 80
    },
    {
      "midi": 57,
      "hit": false,
      "t": 241462.98000000065,
      "d": 2560.9709999999905,
      "v": 68
    },
    {
      "midi": 52,
      "hit": false,
      "t": 242926.39199999985,
      "d": 2926.8239999999932,
      "v": 80
    },
    {
      "midi": 57,
      "hit": false,
      "t": 242926.39199999985,
      "d": 2926.8239999999932,
      "v": 80
    },
    {
      "midi": 60,
      "hit": false,
      "t": 242926.39199999985,
      "d": 2926.8239999999932,
      "v": 80
    },
    {
      "midi": 67,
      "hit": false,
      "t": 244023.95100000064,
      "d": 365.8530000000028,
      "v": 85
    },
    {
      "midi": 69,
      "hit": false,
      "t": 244389.80400000064,
      "d": 548.7795000000042,
      "v": 89
    },
    {
      "midi": 67,
      "hit": false,
      "t": 244938.58350000065,
      "d": 548.7795000000042,
      "v": 87
    },
    {
      "midi": 69,
      "hit": false,
      "t": 245487.36300000065,
      "d": 182.9265000000014,
      "v": 95
    },
    {
      "midi": 52,
      "hit": false,
      "t": 245853.21599999984,
      "d": 2926.8239999999932,
      "v": 80
    },
    {
      "midi": 57,
      "hit": false,
      "t": 245853.21599999984,
      "d": 2926.8239999999932,
      "v": 80
    },
    {
      "midi": 60,
      "hit": false,
      "t": 245853.21599999984,
      "d": 2926.8239999999932,
      "v": 80
    },
    {
      "midi": 69,
      "hit": false,
      "t": 245853.21600000066,
      "d": 1097.5590000000084,
      "v": 93
    },
    {
      "midi": 67,
      "hit": false,
      "t": 246950.77500000066,
      "d": 182.9265000000014,
      "v": 85
    },
    {
      "midi": 69,
      "hit": false,
      "t": 247133.70150000066,
      "d": 182.9265000000014,
      "v": 85
    },
    {
      "midi": 57,
      "hit": false,
      "t": 247316.62800000067,
      "d": 365.8530000000028,
      "v": 89
    },
    {
      "midi": 57,
      "hit": false,
      "t": 247865.40750000067,
      "d": 548.7795000000042,
      "v": 89
    },
    {
      "midi": 62,
      "hit": false,
      "t": 248414.18700000067,
      "d": 365.8530000000028,
      "v": 82
    },
    {
      "midi": 52,
      "hit": false,
      "t": 248780.03999999983,
      "d": 2926.8239999999932,
      "v": 80
    },
    {
      "midi": 55,
      "hit": false,
      "t": 248780.03999999983,
      "d": 2926.8239999999932,
      "v": 80
    },
    {
      "midi": 59,
      "hit": false,
      "t": 248780.03999999983,
      "d": 2926.8239999999932,
      "v": 80
    },
    {
      "midi": 64,
      "hit": false,
      "t": 248780.04000000068,
      "d": 2012.1914999999863,
      "v": 95
    },
    {
      "midi": 64,
      "hit": false,
      "t": 250975.15800000067,
      "d": 731.7060000000056,
      "v": 100
    },
    {
      "midi": 50,
      "hit": false,
      "t": 251706.86399999983,
      "d": 2926.8239999999932,
      "v": 80
    },
    {
      "midi": 55,
      "hit": false,
      "t": 251706.86399999983,
      "d": 2926.8239999999932,
      "v": 80
    },
    {
      "midi": 59,
      "hit": false,
      "t": 251706.86399999983,
      "d": 2926.8239999999932,
      "v": 80
    },
    {
      "midi": 71,
      "hit": false,
      "t": 251706.86400000067,
      "d": 1463.4120000000112,
      "v": 93
    },
    {
      "midi": 64,
      "hit": false,
      "t": 253170.27600000068,
      "d": 548.7795000000042,
      "v": 87
    },
    {
      "midi": 74,
      "hit": false,
      "t": 253719.0555000007,
      "d": 548.7795000000042,
      "v": 82
    },
    {
      "midi": 71,
      "hit": false,
      "t": 254267.8350000007,
      "d": 182.9265000000014,
      "v": 87
    },
    {
      "midi": 69,
      "hit": false,
      "t": 254450.7615000007,
      "d": 182.9265000000014,
      "v": 74
    },
    {
      "midi": 52,
      "hit": false,
      "t": 254633.68799999982,
      "d": 2926.8239999999932,
      "v": 80
    },
    {
      "midi": 55,
      "hit": false,
      "t": 254633.68799999982,
      "d": 2926.8239999999932,
      "v": 80
    },
    {
      "midi": 59,
      "hit": false,
      "t": 254633.68799999982,
      "d": 2926.8239999999932,
      "v": 80
    },
    {
      "midi": 67,
      "hit": false,
      "t": 254633.6880000007,
      "d": 1097.5590000000084,
      "v": 82
    },
    {
      "midi": 69,
      "hit": false,
      "t": 255731.2470000007,
      "d": 182.9265000000014,
      "v": 87
    },
    {
      "midi": 71,
      "hit": false,
      "t": 255914.1735000007,
      "d": 182.9265000000014,
      "v": 80
    },
    {
      "midi": 64,
      "hit": false,
      "t": 256097.1000000007,
      "d": 548.7795000000042,
      "v": 76
    },
    {
      "midi": 69,
      "hit": false,
      "t": 256828.8060000007,
      "d": 731.7060000000056,
      "v": 74
    },
    {
      "midi": 50,
      "hit": false,
      "t": 257560.5119999998,
      "d": 1463.4120000000112,
      "v": 80
    },
    {
      "midi": 55,
      "hit": false,
      "t": 257560.5119999998,
      "d": 1463.4120000000112,
      "v": 80
    },
    {
      "midi": 59,
      "hit": false,
      "t": 257560.5119999998,
      "d": 1463.4120000000112,
      "v": 80
    },
    {
      "midi": 71,
      "hit": false,
      "t": 257560.51200000072,
      "d": 640.2427500000049,
      "v": 87
    },
    {
      "midi": 71,
      "hit": false,
      "t": 258292.21800000072,
      "d": 365.8530000000028,
      "v": 93
    },
    {
      "midi": 74,
      "hit": false,
      "t": 258658.07100000072,
      "d": 548.7795000000042,
      "v": 78
    },
    {
      "midi": 52,
      "hit": false,
      "t": 259023.92399999982,
      "d": 1463.4120000000112,
      "v": 80
    },
    {
      "midi": 55,
      "hit": false,
      "t": 259023.92399999982,
      "d": 1463.4120000000112,
      "v": 80
    },
    {
      "midi": 59,
      "hit": false,
      "t": 259023.92399999982,
      "d": 1463.4120000000112,
      "v": 80
    },
    {
      "midi": 67,
      "hit": false,
      "t": 259023.92400000073,
      "d": 365.8530000000028,
      "v": 82
    },
    {
      "midi": 64,
      "hit": false,
      "t": 259389.77700000073,
      "d": 365.8530000000028,
      "v": 87
    },
    {
      "midi": 69,
      "hit": false,
      "t": 259755.63000000073,
      "d": 365.8530000000028,
      "v": 91
    },
    {
      "midi": 67,
      "hit": false,
      "t": 260121.48300000074,
      "d": 365.8530000000028,
      "v": 82
    },
    {
      "midi": 52,
      "hit": false,
      "t": 260487.33599999984,
      "d": 1463.4120000000112,
      "v": 80
    },
    {
      "midi": 57,
      "hit": false,
      "t": 260487.33599999984,
      "d": 1463.4120000000112,
      "v": 80
    },
    {
      "midi": 60,
      "hit": false,
      "t": 260487.33599999984,
      "d": 1463.4120000000112,
      "v": 80
    },
    {
      "midi": 69,
      "hit": false,
      "t": 260487.33600000074,
      "d": 365.8530000000028,
      "v": 82
    },
    {
      "midi": 33,
      "hit": false,
      "t": 260499.53110000002,
      "d": 2176.825349999941,
      "v": 69
    },
    {
      "midi": 48,
      "hit": false,
      "t": 260505.62865000003,
      "d": 249.99955000000773,
      "v": 54
    },
    {
      "midi": 52,
      "hit": false,
      "t": 260530.01885000002,
      "d": 310.9750500000082,
      "v": 64
    },
    {
      "midi": 40,
      "hit": false,
      "t": 260834.89635000002,
      "d": 1884.1429499999213,
      "v": 57
    },
    {
      "midi": 45,
      "hit": false,
      "t": 261042.21305000002,
      "d": 1585.362999999954,
      "v": 88
    },
    {
      "midi": 52,
      "hit": false,
      "t": 261408.06605000002,
      "d": 597.5598999999929,
      "v": 80
    },
    {
      "midi": 60,
      "hit": false,
      "t": 261743.43130000003,
      "d": 298.77994999999646,
      "v": 84
    },
    {
      "midi": 55,
      "hit": false,
      "t": 261950.74799999985,
      "d": 1463.4120000000112,
      "v": 80
    },
    {
      "midi": 59,
      "hit": false,
      "t": 261950.74799999985,
      "d": 1463.4120000000112,
      "v": 80
    },
    {
      "midi": 62,
      "hit": false,
      "t": 261950.74799999985,
      "d": 1463.4120000000112,
      "v": 80
    },
    {
      "midi": 59,
      "hit": false,
      "t": 261950.74800000002,
      "d": 390.24319999996806,
      "v": 74
    },
    {
      "midi": 57,
      "hit": false,
      "t": 262298.30835,
      "d": 280.48729999997886,
      "v": 62
    },
    {
      "midi": 55,
      "hit": false,
      "t": 262670.25889999996,
      "d": 371.95055000000866,
      "v": 86
    },
    {
      "midi": 52,
      "hit": false,
      "t": 263328.79429999995,
      "d": 518.2917499999749,
      "v": 57
    },
    {
      "midi": 57,
      "hit": false,
      "t": 263371.47714999993,
      "d": 762.1937500000349,
      "v": 64
    },
    {
      "midi": 33,
      "hit": false,
      "t": 263401.9648999999,
      "d": 804.8766000000178,
      "v": 72
    },
    {
      "midi": 60,
      "hit": false,
      "t": 263408.0624499999,
      "d": 585.3648000000394,
      "v": 43
    },
    {
      "midi": 52,
      "hit": false,
      "t": 263414.15999999986,
      "d": 1463.4120000000112,
      "v": 80
    },
    {
      "midi": 57,
      "hit": false,
      "t": 263414.15999999986,
      "d": 1463.4120000000112,
      "v": 80
    },
    {
      "midi": 60,
      "hit": false,
      "t": 263414.15999999986,
      "d": 1463.4120000000112,
      "v": 80
    },
    {
      "midi": 52,
      "hit": false,
      "t": 264164.15864999994,
      "d": 1329.2658999999985,
      "v": 41
    },
    {
      "midi": 57,
      "hit": false,
      "t": 264511.7189999999,
      "d": 920.7300500000129,
      "v": 62
    },
    {
      "midi": 64,
      "hit": false,
      "t": 264511.7189999999,
      "d": 963.4128999999957,
      "v": 52
    },
    {
      "midi": 60,
      "hit": false,
      "t": 264511.7189999999,
      "d": 981.7055500000133,
      "v": 47
    },
    {
      "midi": 33,
      "hit": false,
      "t": 264530.01164999994,
      "d": 945.1202499999781,
      "v": 74
    },
    {
      "midi": 50,
      "hit": false,
      "t": 264877.57199999987,
      "d": 1463.4120000000112,
      "v": 80
    },
    {
      "midi": 55,
      "hit": false,
      "t": 264877.57199999987,
      "d": 1463.4120000000112,
      "v": 80
    },
    {
      "midi": 59,
      "hit": false,
      "t": 264877.57199999987,
      "d": 1463.4120000000112,
      "v": 80
    },
    {
      "midi": 52,
      "hit": false,
      "t": 266340.9839999999,
      "d": 2743.897500000021,
      "v": 80
    },
    {
      "midi": 57,
      "hit": false,
      "t": 266340.9839999999,
      "d": 2926.8240000000224,
      "v": 80
    },
    {
      "midi": 60,
      "hit": false,
      "t": 266340.9839999999,
      "d": 2926.8240000000224,
      "v": 80
    }
  ]
}