{
  "jsonPath": "Rap/Trap Latino/Alex/a-heart-of-gold.json",
  "path": "Rap\\Trap Latino\\Alex\\A Heart of Gold.mid",
  "name": "A Heart of Gold",
  "difficulty": "Advanced",
  "bpm": 126.00039060121087,
  "notes": [
    {
      "midi": 57,
      "hit": false,
      "t": 4571.424,
      "d": 3285.7110000000002,
      "v": 105
    },
    {
      "midi": 62,
      "hit": false,
      "t": 4571.424,
      "d": 3285.7110000000002,
      "v": 105
    },
    {
      "midi": 66,
      "hit": false,
      "t": 4571.424,
      "d": 3285.7110000000002,
      "v": 105
    },
    {
      "midi": 38,
      "hit": false,
      "t": 4571.424,
      "d": 4517.852625,
      "v": 105
    },
    {
      "midi": 45,
      "hit": false,
      "t": 4571.424,
      "d": 4571.424,
      "v": 105
    },
    {
      "midi": 66,
      "hit": false,
      "t": 7999.992,
      "d": 285.71399999999994,
      "v": 114
    },
    {
      "midi": 57,
      "hit": false,
      "t": 7999.992,
      "d": 547.6185000000005,
      "v": 96
    },
    {
      "midi": 62,
      "hit": false,
      "t": 7999.992,
      "d": 547.6185000000005,
      "v": 96
    },
    {
      "midi": 67,
      "hit": false,
      "t": 8285.706,
      "d": 285.71399999999994,
      "v": 109
    },
    {
      "midi": 57,
      "hit": false,
      "t": 8571.42,
      "d": 529.761375,
      "v": 96
    },
    {
      "midi": 62,
      "hit": false,
      "t": 8571.42,
      "d": 547.6185000000005,
      "v": 96
    },
    {
      "midi": 69,
      "hit": false,
      "t": 8571.42,
      "d": 571.4279999999999,
      "v": 111
    },
    {
      "midi": 66,
      "hit": false,
      "t": 9142.848,
      "d": 3285.711000000001,
      "v": 105
    },
    {
      "midi": 57,
      "hit": false,
      "t": 9142.848,
      "d": 3398.806125000001,
      "v": 105
    },
    {
      "midi": 62,
      "hit": false,
      "t": 9142.848,
      "d": 3398.806125000001,
      "v": 105
    },
    {
      "midi": 35,
      "hit": false,
      "t": 9142.848,
      "d": 4488.090750000001,
      "v": 105
    },
    {
      "midi": 42,
      "hit": false,
      "t": 9142.848,
      "d": 4488.090750000001,
      "v": 105
    },
    {
      "midi": 66,
      "hit": false,
      "t": 12571.416000000001,
      "d": 285.71399999999994,
      "v": 114
    },
    {
      "midi": 57,
      "hit": false,
      "t": 12571.416000000001,
      "d": 541.6661249999997,
      "v": 96
    },
    {
      "midi": 62,
      "hit": false,
      "t": 12571.416000000001,
      "d": 541.6661249999997,
      "v": 86
    },
    {
      "midi": 67,
      "hit": false,
      "t": 12857.130000000001,
      "d": 285.71399999999994,
      "v": 109
    },
    {
      "midi": 57,
      "hit": false,
      "t": 13142.844000000001,
      "d": 541.6661249999997,
      "v": 96
    },
    {
      "midi": 62,
      "hit": false,
      "t": 13142.844000000001,
      "d": 571.4279999999999,
      "v": 96
    },
    {
      "midi": 69,
      "hit": false,
      "t": 13142.844000000001,
      "d": 571.4279999999999,
      "v": 111
    },
    {
      "midi": 64,
      "hit": false,
      "t": 13714.272,
      "d": 3571.4249999999993,
      "v": 105
    },
    {
      "midi": 57,
      "hit": false,
      "t": 13714.272,
      "d": 3684.520124999999,
      "v": 105
    },
    {
      "midi": 61,
      "hit": false,
      "t": 13714.272,
      "d": 3714.2819999999992,
      "v": 105
    },
    {
      "midi": 42,
      "hit": false,
      "t": 13714.272,
      "d": 4488.090749999999,
      "v": 105
    },
    {
      "midi": 49,
      "hit": false,
      "t": 13714.272,
      "d": 4488.090749999999,
      "v": 105
    },
    {
      "midi": 62,
      "hit": false,
      "t": 17428.554,
      "d": 285.71399999999994,
      "v": 109
    },
    {
      "midi": 57,
      "hit": false,
      "t": 17428.554,
      "d": 857.1419999999998,
      "v": 104
    },
    {
      "midi": 64,
      "hit": false,
      "t": 17714.268,
      "d": 571.4279999999999,
      "v": 111
    },
    {
      "midi": 62,
      "hit": false,
      "t": 18285.696,
      "d": 1964.2837499999987,
      "v": 105
    },
    {
      "midi": 43,
      "hit": false,
      "t": 18285.696,
      "d": 2285.7119999999995,
      "v": 105
    },
    {
      "midi": 50,
      "hit": false,
      "t": 18285.696,
      "d": 2285.7119999999995,
      "v": 105
    },
    {
      "midi": 55,
      "hit": false,
      "t": 18285.696,
      "d": 2285.7119999999995,
      "v": 105
    },
    {
      "midi": 59,
      "hit": false,
      "t": 18285.696,
      "d": 2285.7119999999995,
      "v": 105
    },
    {
      "midi": 64,
      "hit": false,
      "t": 20285.694,
      "d": 285.71399999999994,
      "v": 109
    },
    {
      "midi": 57,
      "hit": false,
      "t": 20571.408,
      "d": 1113.0941249999996,
      "v": 92
    },
    {
      "midi": 61,
      "hit": false,
      "t": 20571.408,
      "d": 1113.0941249999996,
      "v": 92
    },
    {
      "midi": 45,
      "hit": false,
      "t": 20571.408,
      "d": 2285.7119999999995,
      "v": 92
    },
    {
      "midi": 52,
      "hit": false,
      "t": 20571.408,
      "d": 2285.7119999999995,
      "v": 92
    },
    {
      "midi": 61,
      "hit": false,
      "t": 21714.264,
      "d": 285.71399999999994,
      "v": 109
    },
    {
      "midi": 57,
      "hit": false,
      "t": 21714.264,
      "d": 541.6661249999997,
      "v": 96
    },
    {
      "midi": 62,
      "hit": false,
      "t": 21999.978,
      "d": 285.71399999999994,
      "v": 109
    },
    {
      "midi": 57,
      "hit": false,
      "t": 22285.692,
      "d": 571.4279999999999,
      "v": 96
    },
    {
      "midi": 64,
      "hit": false,
      "t": 22285.692,
      "d": 571.4279999999999,
      "v": 109
    },
    {
      "midi": 57,
      "hit": false,
      "t": 22857.12,
      "d": 3857.138999999999,
      "v": 92
    },
    {
      "midi": 62,
      "hit": false,
      "t": 22857.12,
      "d": 3857.138999999999,
      "v": 92
    },
    {
      "midi": 66,
      "hit": false,
      "t": 22857.12,
      "d": 3857.138999999999,
      "v": 92
    },
    {
      "midi": 38,
      "hit": false,
      "t": 22857.12,
      "d": 4517.8526249999995,
      "v": 92
    },
    {
      "midi": 45,
      "hit": false,
      "t": 22857.12,
      "d": 4571.423999999999,
      "v": 92
    },
    {
      "midi": 78,
      "hit": false,
      "t": 24857.118,
      "d": 285.71399999999994,
      "v": 64
    },
    {
      "midi": 69,
      "hit": false,
      "t": 25142.832,
      "d": 1571.4269999999997,
      "v": 74
    },
    {
      "midi": 66,
      "hit": false,
      "t": 26857.115999999998,
      "d": 285.71399999999994,
      "v": 111
    },
    {
      "midi": 57,
      "hit": false,
      "t": 26857.115999999998,
      "d": 529.7613750000019,
      "v": 96
    },
    {
      "midi": 62,
      "hit": false,
      "t": 26857.115999999998,
      "d": 547.6185000000005,
      "v": 96
    },
    {
      "midi": 69,
      "hit": false,
      "t": 27142.829999999998,
      "d": 285.71399999999994,
      "v": 64
    },
    {
      "midi": 66,
      "hit": false,
      "t": 27428.543999999998,
      "d": 3285.7109999999993,
      "v": 94
    },
    {
      "midi": 57,
      "hit": false,
      "t": 27428.543999999998,
      "d": 3398.806124999999,
      "v": 94
    },
    {
      "midi": 74,
      "hit": false,
      "t": 27428.543999999998,
      "d": 3398.806124999999,
      "v": 94
    },
    {
      "midi": 35,
      "hit": false,
      "t": 27428.543999999998,
      "d": 4488.090749999999,
      "v": 94
    },
    {
      "midi": 42,
      "hit": false,
      "t": 27428.543999999998,
      "d": 4488.090749999999,
      "v": 94
    },
    {
      "midi": 69,
      "hit": false,
      "t": 30857.111999999997,
      "d": 285.71399999999994,
      "v": 114
    },
    {
      "midi": 57,
      "hit": false,
      "t": 30857.111999999997,
      "d": 541.6661249999997,
      "v": 96
    },
    {
      "midi": 62,
      "hit": false,
      "t": 30857.111999999997,
      "d": 541.6661249999997,
      "v": 86
    },
    {
      "midi": 67,
      "hit": false,
      "t": 31142.825999999997,
      "d": 285.71399999999994,
      "v": 109
    },
    {
      "midi": 57,
      "hit": false,
      "t": 31428.539999999997,
      "d": 541.6661249999997,
      "v": 96
    },
    {
      "midi": 62,
      "hit": false,
      "t": 31428.539999999997,
      "d": 571.4279999999999,
      "v": 96
    },
    {
      "midi": 66,
      "hit": false,
      "t": 31428.539999999997,
      "d": 571.4279999999999,
      "v": 111
    },
    {
      "midi": 64,
      "hit": false,
      "t": 31999.967999999997,
      "d": 3571.4249999999993,
      "v": 99
    },
    {
      "midi": 57,
      "hit": false,
      "t": 31999.967999999997,
      "d": 3857.138999999999,
      "v": 99
    },
    {
      "midi": 61,
      "hit": false,
      "t": 31999.967999999997,
      "d": 3857.138999999999,
      "v": 99
    },
    {
      "midi": 42,
      "hit": false,
      "t": 31999.967999999997,
      "d": 4488.090749999999,
      "v": 99
    },
    {
      "midi": 49,
      "hit": false,
      "t": 31999.967999999997,
      "d": 4488.090749999999,
      "v": 99
    },
    {
      "midi": 61,
      "hit": false,
      "t": 35999.964,
      "d": 285.71399999999994,
      "v": 109
    },
    {
      "midi": 57,
      "hit": false,
      "t": 35999.964,
      "d": 571.4279999999999,
      "v": 104
    },
    {
      "midi": 64,
      "hit": false,
      "t": 36285.678,
      "d": 285.71399999999994,
      "v": 111
    },
    {
      "midi": 62,
      "hit": false,
      "t": 36571.392,
      "d": 2184.521625000001,
      "v": 105
    },
    {
      "midi": 43,
      "hit": false,
      "t": 36571.392,
      "d": 2285.7119999999995,
      "v": 105
    },
    {
      "midi": 50,
      "hit": false,
      "t": 36571.392,
      "d": 2285.7119999999995,
      "v": 105
    },
    {
      "midi": 55,
      "hit": false,
      "t": 36571.392,
      "d": 2285.7119999999995,
      "v": 105
    },
    {
      "midi": 59,
      "hit": false,
      "t": 36571.392,
      "d": 2285.7119999999995,
      "v": 105
    },
    {
      "midi": 57,
      "hit": false,
      "t": 38857.104,
      "d": 1113.0941250000033,
      "v": 92
    },
    {
      "midi": 61,
      "hit": false,
      "t": 38857.104,
      "d": 1113.0941250000033,
      "v": 92
    },
    {
      "midi": 64,
      "hit": false,
      "t": 38857.104,
      "d": 1428.5699999999997,
      "v": 102
    },
    {
      "midi": 45,
      "hit": false,
      "t": 38857.104,
      "d": 2285.7119999999995,
      "v": 92
    },
    {
      "midi": 52,
      "hit": false,
      "t": 38857.104,
      "d": 2285.7119999999995,
      "v": 92
    },
    {
      "midi": 57,
      "hit": false,
      "t": 39999.96,
      "d": 285.71399999999994,
      "v": 96
    },
    {
      "midi": 61,
      "hit": false,
      "t": 39999.96,
      "d": 285.71399999999994,
      "v": 109
    },
    {
      "midi": 59,
      "hit": false,
      "t": 40285.674,
      "d": 285.71399999999994,
      "v": 109
    },
    {
      "midi": 62,
      "hit": false,
      "t": 40285.674,
      "d": 285.71399999999994,
      "v": 109
    },
    {
      "midi": 61,
      "hit": false,
      "t": 40571.388,
      "d": 571.4279999999999,
      "v": 96
    },
    {
      "midi": 64,
      "hit": false,
      "t": 40571.388,
      "d": 571.4279999999999,
      "v": 109
    },
    {
      "midi": 66,
      "hit": false,
      "t": 41142.816,
      "d": 1571.4270000000033,
      "v": 92
    },
    {
      "midi": 57,
      "hit": false,
      "t": 41142.816,
      "d": 3857.13900000001,
      "v": 92
    },
    {
      "midi": 62,
      "hit": false,
      "t": 41142.816,
      "d": 3857.13900000001,
      "v": 92
    },
    {
      "midi": 38,
      "hit": false,
      "t": 41142.816,
      "d": 4517.852625000014,
      "v": 92
    },
    {
      "midi": 45,
      "hit": false,
      "t": 41142.816,
      "d": 4571.424000000021,
      "v": 92
    },
    {
      "midi": 66,
      "hit": false,
      "t": 42857.100000000006,
      "d": 285.71399999999994,
      "v": 90
    },
    {
      "midi": 71,
      "hit": false,
      "t": 43142.814000000006,
      "d": 1857.1410000000033,
      "v": 99
    },
    {
      "midi": 57,
      "hit": false,
      "t": 45142.81200000001,
      "d": 529.7613750000019,
      "v": 104
    },
    {
      "midi": 62,
      "hit": false,
      "t": 45142.81200000001,
      "d": 547.6185000000041,
      "v": 104
    },
    {
      "midi": 69,
      "hit": false,
      "t": 45142.81200000001,
      "d": 571.4280000000072,
      "v": 104
    },
    {
      "midi": 66,
      "hit": false,
      "t": 45714.24000000002,
      "d": 3285.711000000003,
      "v": 104
    },
    {
      "midi": 57,
      "hit": false,
      "t": 45714.24000000002,
      "d": 3398.806125000003,
      "v": 94
    },
    {
      "midi": 62,
      "hit": false,
      "t": 45714.24000000002,
      "d": 3398.806125000003,
      "v": 94
    },
    {
      "midi": 35,
      "hit": false,
      "t": 45714.24000000002,
      "d": 4488.090749999996,
      "v": 94
    },
    {
      "midi": 42,
      "hit": false,
      "t": 45714.24000000002,
      "d": 4488.090749999996,
      "v": 94
    },
    {
      "midi": 66,
      "hit": false,
      "t": 49142.80800000002,
      "d": 285.71399999999994,
      "v": 114
    },
    {
      "midi": 57,
      "hit": false,
      "t": 49142.80800000002,
      "d": 541.6661250000034,
      "v": 96
    },
    {
      "midi": 62,
      "hit": false,
      "t": 49142.80800000002,
      "d": 541.6661250000034,
      "v": 86
    },
    {
      "midi": 67,
      "hit": false,
      "t": 49428.52200000002,
      "d": 285.71399999999994,
      "v": 109
    },
    {
      "midi": 57,
      "hit": false,
      "t": 49714.23600000002,
      "d": 541.6661249999961,
      "v": 96
    },
    {
      "midi": 62,
      "hit": false,
      "t": 49714.23600000002,
      "d": 571.4279999999926,
      "v": 96
    },
    {
      "midi": 69,
      "hit": false,
      "t": 49714.23600000002,
      "d": 571.4279999999926,
      "v": 111
    },
    {
      "midi": 42,
      "hit": false,
      "t": 50285.66400000001,
      "d": 3398.806125000003,
      "v": 99
    },
    {
      "midi": 49,
      "hit": false,
      "t": 50285.66400000001,
      "d": 3398.806125000003,
      "v": 99
    },
    {
      "midi": 57,
      "hit": false,
      "t": 50285.66400000001,
      "d": 3398.806125000003,
      "v": 99
    },
    {
      "midi": 61,
      "hit": false,
      "t": 50285.66400000001,
      "d": 3398.806125000003,
      "v": 99
    },
    {
      "midi": 64,
      "hit": false,
      "t": 50285.66400000001,
      "d": 3398.806125000003,
      "v": 99
    },
    {
      "midi": 42,
      "hit": false,
      "t": 53714.23200000001,
      "d": 255.95212500000343,
      "v": 63
    },
    {
      "midi": 49,
      "hit": false,
      "t": 53714.23200000001,
      "d": 255.95212500000343,
      "v": 63
    },
    {
      "midi": 57,
      "hit": false,
      "t": 53714.23200000001,
      "d": 255.95212500000343,
      "v": 63
    },
    {
      "midi": 61,
      "hit": false,
      "t": 53714.23200000001,
      "d": 255.95212500000343,
      "v": 63
    },
    {
      "midi": 42,
      "hit": false,
      "t": 53999.94600000001,
      "d": 255.95212500000343,
      "v": 78
    },
    {
      "midi": 49,
      "hit": false,
      "t": 53999.94600000001,
      "d": 255.95212500000343,
      "v": 78
    },
    {
      "midi": 57,
      "hit": false,
      "t": 53999.94600000001,
      "d": 255.95212500000343,
      "v": 78
    },
    {
      "midi": 61,
      "hit": false,
      "t": 53999.94600000001,
      "d": 255.95212500000343,
      "v": 78
    },
    {
      "midi": 42,
      "hit": false,
      "t": 54285.66000000001,
      "d": 255.95212500000343,
      "v": 92
    },
    {
      "midi": 49,
      "hit": false,
      "t": 54285.66000000001,
      "d": 255.95212500000343,
      "v": 92
    },
    {
      "midi": 57,
      "hit": false,
      "t": 54285.66000000001,
      "d": 255.95212500000343,
      "v": 92
    },
    {
      "midi": 61,
      "hit": false,
      "t": 54285.66000000001,
      "d": 255.95212500000343,
      "v": 92
    },
    {
      "midi": 66,
      "hit": false,
      "t": 54285.66000000001,
      "d": 285.71399999999994,
      "v": 92
    },
    {
      "midi": 42,
      "hit": false,
      "t": 54571.37400000001,
      "d": 285.71399999999994,
      "v": 106
    },
    {
      "midi": 49,
      "hit": false,
      "t": 54571.37400000001,
      "d": 285.71399999999994,
      "v": 106
    },
    {
      "midi": 57,
      "hit": false,
      "t": 54571.37400000001,
      "d": 285.71399999999994,
      "v": 106
    },
    {
      "midi": 61,
      "hit": false,
      "t": 54571.37400000001,
      "d": 285.71399999999994,
      "v": 106
    },
    {
      "midi": 69,
      "hit": false,
      "t": 54571.37400000001,
      "d": 285.71399999999994,
      "v": 106
    },
    {
      "midi": 43,
      "hit": false,
      "t": 54857.08800000001,
      "d": 255.95212500000343,
      "v": 63
    },
    {
      "midi": 62,
      "hit": false,
      "t": 54857.08800000001,
      "d": 2184.521625000001,
      "v": 120
    },
    {
      "midi": 50,
      "hit": false,
      "t": 54857.08800000001,
      "d": 2285.7119999999995,
      "v": 120
    },
    {
      "midi": 59,
      "hit": false,
      "t": 54857.08800000001,
      "d": 2285.7119999999995,
      "v": 120
    },
    {
      "midi": 67,
      "hit": false,
      "t": 54857.08800000001,
      "d": 2285.7119999999995,
      "v": 120
    },
    {
      "midi": 43,
      "hit": false,
      "t": 55142.80200000001,
      "d": 255.95212500000343,
      "v": 84
    },
    {
      "midi": 43,
      "hit": false,
      "t": 55428.51600000001,
      "d": 255.95212500000343,
      "v": 88
    },
    {
      "midi": 43,
      "hit": false,
      "t": 55714.23000000001,
      "d": 238.09500000000116,
      "v": 92
    },
    {
      "midi": 43,
      "hit": false,
      "t": 55999.94400000001,
      "d": 255.95212500000343,
      "v": 96
    },
    {
      "midi": 43,
      "hit": false,
      "t": 56285.65800000001,
      "d": 255.95212500000343,
      "v": 100
    },
    {
      "midi": 43,
      "hit": false,
      "t": 56571.37200000001,
      "d": 571.4279999999999,
      "v": 104
    },
    {
      "midi": 45,
      "hit": false,
      "t": 57142.80000000001,
      "d": 428.57100000000355,
      "v": 113
    },
    {
      "midi": 52,
      "hit": false,
      "t": 57142.80000000001,
      "d": 428.57100000000355,
      "v": 113
    },
    {
      "midi": 57,
      "hit": false,
      "t": 57142.80000000001,
      "d": 428.57100000000355,
      "v": 113
    },
    {
      "midi": 61,
      "hit": false,
      "t": 57142.80000000001,
      "d": 428.57100000000355,
      "v": 113
    },
    {
      "midi": 64,
      "hit": false,
      "t": 57142.80000000001,
      "d": 428.57100000000355,
      "v": 113
    },
    {
      "midi": 66,
      "hit": false,
      "t": 59428.51200000002,
      "d": 4386.900374999997,
      "v": 123
    },
    {
      "midi": 62,
      "hit": false,
      "t": 59428.51200000002,
      "d": 4404.7575,
      "v": 81
    },
    {
      "midi": 50,
      "hit": false,
      "t": 59428.51200000002,
      "d": 4422.614625000002,
      "v": 123
    },
    {
      "midi": 57,
      "hit": false,
      "t": 59428.51200000002,
      "d": 4422.614625000002,
      "v": 72
    },
    {
      "midi": 78,
      "hit": false,
      "t": 61714.22400000002,
      "d": 1392.8557500000024,
      "v": 109
    },
    {
      "midi": 74,
      "hit": false,
      "t": 61714.22400000002,
      "d": 1398.8081250000032,
      "v": 81
    },
    {
      "midi": 78,
      "hit": false,
      "t": 63142.794000000016,
      "d": 279.7616249999992,
      "v": 109
    },
    {
      "midi": 74,
      "hit": false,
      "t": 63142.794000000016,
      "d": 285.71399999999994,
      "v": 81
    },
    {
      "midi": 76,
      "hit": false,
      "t": 63428.508000000016,
      "d": 279.7616249999992,
      "v": 109
    },
    {
      "midi": 79,
      "hit": false,
      "t": 63428.508000000016,
      "d": 279.7616249999992,
      "v": 109
    },
    {
      "midi": 78,
      "hit": false,
      "t": 63714.222000000016,
      "d": 3392.853750000002,
      "v": 113
    },
    {
      "midi": 69,
      "hit": false,
      "t": 63714.222000000016,
      "d": 3684.5201250000027,
      "v": 72
    },
    {
      "midi": 74,
      "hit": false,
      "t": 63714.222000000016,
      "d": 3684.5201250000027,
      "v": 109
    },
    {
      "midi": 59,
      "hit": false,
      "t": 63999.936000000016,
      "d": 3392.8537500000093,
      "v": 123
    },
    {
      "midi": 54,
      "hit": false,
      "t": 63999.936000000016,
      "d": 3398.806125000003,
      "v": 72
    },
    {
      "midi": 78,
      "hit": false,
      "t": 67142.79000000002,
      "d": 285.71399999999267,
      "v": 125
    },
    {
      "midi": 79,
      "hit": false,
      "t": 67428.50400000002,
      "d": 285.7140000000072,
      "v": 127
    },
    {
      "midi": 54,
      "hit": false,
      "t": 67428.50400000002,
      "d": 541.6661250000034,
      "v": 107
    },
    {
      "midi": 59,
      "hit": false,
      "t": 67428.50400000002,
      "d": 541.6661250000034,
      "v": 107
    },
    {
      "midi": 69,
      "hit": false,
      "t": 67428.50400000002,
      "d": 541.6661250000034,
      "v": 107
    },
    {
      "midi": 74,
      "hit": false,
      "t": 67428.50400000002,
      "d": 571.4279999999999,
      "v": 107
    },
    {
      "midi": 81,
      "hit": false,
      "t": 67714.21800000002,
      "d": 285.71399999999267,
      "v": 127
    },
    {
      "midi": 78,
      "hit": false,
      "t": 67999.93200000002,
      "d": 285.7140000000072,
      "v": 127
    },
    {
      "midi": 69,
      "hit": false,
      "t": 67999.93200000002,
      "d": 523.8090000000084,
      "v": 107
    },
    {
      "midi": 54,
      "hit": false,
      "t": 67999.93200000002,
      "d": 541.6661250000034,
      "v": 107
    },
    {
      "midi": 59,
      "hit": false,
      "t": 67999.93200000002,
      "d": 571.4279999999999,
      "v": 107
    },
    {
      "midi": 66,
      "hit": false,
      "t": 67999.93200000002,
      "d": 571.4279999999999,
      "v": 107
    },
    {
      "midi": 74,
      "hit": false,
      "t": 68285.64600000002,
      "d": 285.71399999999267,
      "v": 127
    },
    {
      "midi": 61,
      "hit": false,
      "t": 68571.36000000002,
      "d": 3071.4254999999976,
      "v": 116
    },
    {
      "midi": 54,
      "hit": false,
      "t": 68571.36000000002,
      "d": 4571.42399999997,
      "v": 116
    },
    {
      "midi": 69,
      "hit": false,
      "t": 68571.36000000002,
      "d": 4571.42399999997,
      "v": 116
    },
    {
      "midi": 73,
      "hit": false,
      "t": 68571.36000000002,
      "d": 4571.42399999997,
      "v": 116
    },
    {
      "midi": 76,
      "hit": false,
      "t": 68571.36000000002,
      "d": 4571.42399999997,
      "v": 127
    },
    {
      "midi": 61,
      "hit": false,
      "t": 71714.214,
      "d": 267.8568749999977,
      "v": 99
    },
    {
      "midi": 57,
      "hit": false,
      "t": 71999.928,
      "d": 267.8568749999977,
      "v": 89
    },
    {
      "midi": 61,
      "hit": false,
      "t": 71999.928,
      "d": 267.8568749999977,
      "v": 89
    },
    {
      "midi": 66,
      "hit": false,
      "t": 71999.928,
      "d": 285.71399999999267,
      "v": 118
    },
    {
      "midi": 64,
      "hit": false,
      "t": 72285.64199999999,
      "d": 261.9045000000042,
      "v": 113
    },
    {
      "midi": 57,
      "hit": false,
      "t": 72285.64199999999,
      "d": 267.8568749999977,
      "v": 89
    },
    {
      "midi": 61,
      "hit": false,
      "t": 72285.64199999999,
      "d": 267.8568749999977,
      "v": 89
    },
    {
      "midi": 57,
      "hit": false,
      "t": 72571.35599999999,
      "d": 267.8568749999977,
      "v": 89
    },
    {
      "midi": 61,
      "hit": false,
      "t": 72571.35599999999,
      "d": 267.8568749999977,
      "v": 89
    },
    {
      "midi": 66,
      "hit": false,
      "t": 72571.35599999999,
      "d": 267.8568749999977,
      "v": 115
    },
    {
      "midi": 64,
      "hit": false,
      "t": 72857.06999999998,
      "d": 249.99975000000268,
      "v": 113
    },
    {
      "midi": 57,
      "hit": false,
      "t": 72857.06999999998,
      "d": 297.61875000000873,
      "v": 89
    },
    {
      "midi": 61,
      "hit": false,
      "t": 72857.06999999998,
      "d": 297.61875000000873,
      "v": 89
    },
    {
      "midi": 55,
      "hit": false,
      "t": 73142.78399999999,
      "d": 2285.7119999999995,
      "v": 105
    },
    {
      "midi": 62,
      "hit": false,
      "t": 73142.78399999999,
      "d": 2285.7119999999995,
      "v": 105
    },
    {
      "midi": 67,
      "hit": false,
      "t": 73142.78399999999,
      "d": 2285.7119999999995,
      "v": 105
    },
    {
      "midi": 71,
      "hit": false,
      "t": 73142.78399999999,
      "d": 2285.7119999999995,
      "v": 115
    },
    {
      "midi": 69,
      "hit": false,
      "t": 75428.49599999998,
      "d": 1113.0941250000033,
      "v": 92
    },
    {
      "midi": 73,
      "hit": false,
      "t": 75428.49599999998,
      "d": 1113.0941250000033,
      "v": 112
    },
    {
      "midi": 57,
      "hit": false,
      "t": 75428.49599999998,
      "d": 2285.712000000014,
      "v": 92
    },
    {
      "midi": 64,
      "hit": false,
      "t": 75428.49599999998,
      "d": 2285.712000000014,
      "v": 92
    },
    {
      "midi": 69,
      "hit": false,
      "t": 76571.35199999998,
      "d": 285.7140000000072,
      "v": 96
    },
    {
      "midi": 73,
      "hit": false,
      "t": 76571.35199999998,
      "d": 285.7140000000072,
      "v": 109
    },
    {
      "midi": 71,
      "hit": false,
      "t": 76857.06599999999,
      "d": 285.7140000000072,
      "v": 109
    },
    {
      "midi": 74,
      "hit": false,
      "t": 76857.06599999999,
      "d": 285.7140000000072,
      "v": 109
    },
    {
      "midi": 73,
      "hit": false,
      "t": 77142.78,
      "d": 571.4279999999999,
      "v": 96
    },
    {
      "midi": 76,
      "hit": false,
      "t": 77142.78,
      "d": 571.4279999999999,
      "v": 109
    },
    {
      "midi": 66,
      "hit": false,
      "t": 77714.208,
      "d": 4386.900374999997,
      "v": 123
    },
    {
      "midi": 74,
      "hit": false,
      "t": 77714.208,
      "d": 4404.757499999992,
      "v": 81
    },
    {
      "midi": 50,
      "hit": false,
      "t": 77714.208,
      "d": 4422.614624999987,
      "v": 123
    },
    {
      "midi": 69,
      "hit": false,
      "t": 77714.208,
      "d": 4422.614624999987,
      "v": 72
    },
    {
      "midi": 59,
      "hit": false,
      "t": 82285.63199999998,
      "d": 3708.3296249999985,
      "v": 123
    },
    {
      "midi": 54,
      "hit": false,
      "t": 82285.63199999998,
      "d": 3714.281999999992,
      "v": 72
    },
    {
      "midi": 69,
      "hit": false,
      "t": 82285.63199999998,
      "d": 3970.234124999988,
      "v": 72
    },
    {
      "midi": 74,
      "hit": false,
      "t": 82285.63199999998,
      "d": 3970.234124999988,
      "v": 109
    },
    {
      "midi": 66,
      "hit": false,
      "t": 82285.63199999998,
      "d": 3994.043624999991,
      "v": 113
    },
    {
      "midi": 54,
      "hit": false,
      "t": 86285.62799999997,
      "d": 541.6661250000034,
      "v": 107
    },
    {
      "midi": 69,
      "hit": false,
      "t": 86285.62799999997,
      "d": 541.6661250000034,
      "v": 107
    },
    {
      "midi": 59,
      "hit": false,
      "t": 86285.62799999997,
      "d": 571.4279999999999,
      "v": 107
    },
    {
      "midi": 74,
      "hit": false,
      "t": 86285.62799999997,
      "d": 571.4279999999999,
      "v": 107
    },
    {
      "midi": 54,
      "hit": false,
      "t": 86857.05599999997,
      "d": 3970.2341250000027,
      "v": 116
    },
    {
      "midi": 61,
      "hit": false,
      "t": 86857.05599999997,
      "d": 3970.2341250000027,
      "v": 116
    },
    {
      "midi": 64,
      "hit": false,
      "t": 86857.05599999997,
      "d": 3970.2341250000027,
      "v": 127
    },
    {
      "midi": 69,
      "hit": false,
      "t": 86857.05599999997,
      "d": 3970.2341250000027,
      "v": 116
    },
    {
      "midi": 73,
      "hit": false,
      "t": 86857.05599999997,
      "d": 3970.2341250000027,
      "v": 116
    },
    {
      "midi": 54,
      "hit": false,
      "t": 90857.05199999997,
      "d": 541.6661250000034,
      "v": 116
    },
    {
      "midi": 61,
      "hit": false,
      "t": 90857.05199999997,
      "d": 541.6661250000034,
      "v": 116
    },
    {
      "midi": 64,
      "hit": false,
      "t": 90857.05199999997,
      "d": 541.6661250000034,
      "v": 127
    },
    {
      "midi": 69,
      "hit": false,
      "t": 90857.05199999997,
      "d": 541.6661250000034,
      "v": 116
    },
    {
      "midi": 73,
      "hit": false,
      "t": 90857.05199999997,
      "d": 541.6661250000034,
      "v": 116
    },
    {
      "midi": 55,
      "hit": false,
      "t": 91428.47999999997,
      "d": 255.95212499999616,
      "v": 85
    },
    {
      "midi": 62,
      "hit": false,
      "t": 91428.47999999997,
      "d": 255.95212499999616,
      "v": 85
    },
    {
      "midi": 67,
      "hit": false,
      "t": 91428.47999999997,
      "d": 255.95212499999616,
      "v": 85
    },
    {
      "midi": 71,
      "hit": false,
      "t": 91428.47999999997,
      "d": 255.95212499999616,
      "v": 85
    },
    {
      "midi": 55,
      "hit": false,
      "t": 91714.19399999996,
      "d": 255.95212499999616,
      "v": 93
    },
    {
      "midi": 62,
      "hit": false,
      "t": 91714.19399999996,
      "d": 255.95212499999616,
      "v": 93
    },
    {
      "midi": 67,
      "hit": false,
      "t": 91714.19399999996,
      "d": 255.95212499999616,
      "v": 93
    },
    {
      "midi": 71,
      "hit": false,
      "t": 91714.19399999996,
      "d": 255.95212499999616,
      "v": 93
    },
    {
      "midi": 55,
      "hit": false,
      "t": 91999.90799999995,
      "d": 255.95212499999616,
      "v": 102
    },
    {
      "midi": 62,
      "hit": false,
      "t": 91999.90799999995,
      "d": 255.95212499999616,
      "v": 102
    },
    {
      "midi": 67,
      "hit": false,
      "t": 91999.90799999995,
      "d": 255.95212499999616,
      "v": 102
    },
    {
      "midi": 71,
      "hit": false,
      "t": 91999.90799999995,
      "d": 255.95212499999616,
      "v": 102
    },
    {
      "midi": 55,
      "hit": false,
      "t": 92285.62199999994,
      "d": 255.95212499999616,
      "v": 110
    },
    {
      "midi": 62,
      "hit": false,
      "t": 92285.62199999994,
      "d": 255.95212499999616,
      "v": 110
    },
    {
      "midi": 67,
      "hit": false,
      "t": 92285.62199999994,
      "d": 255.95212499999616,
      "v": 110
    },
    {
      "midi": 71,
      "hit": false,
      "t": 92285.62199999994,
      "d": 255.95212499999616,
      "v": 110
    },
    {
      "midi": 55,
      "hit": false,
      "t": 92571.33599999994,
      "d": 255.95212499999616,
      "v": 119
    },
    {
      "midi": 62,
      "hit": false,
      "t": 92571.33599999994,
      "d": 255.95212499999616,
      "v": 119
    },
    {
      "midi": 67,
      "hit": false,
      "t": 92571.33599999994,
      "d": 255.95212499999616,
      "v": 119
    },
    {
      "midi": 71,
      "hit": false,
      "t": 92571.33599999994,
      "d": 255.95212499999616,
      "v": 119
    },
    {
      "midi": 55,
      "hit": false,
      "t": 92857.04999999993,
      "d": 285.7140000000072,
      "v": 127
    },
    {
      "midi": 62,
      "hit": false,
      "t": 92857.04999999993,
      "d": 285.7140000000072,
      "v": 127
    },
    {
      "midi": 67,
      "hit": false,
      "t": 92857.04999999993,
      "d": 285.7140000000072,
      "v": 127
    },
    {
      "midi": 71,
      "hit": false,
      "t": 92857.04999999993,
      "d": 285.7140000000072,
      "v": 127
    },
    {
      "midi": 57,
      "hit": false,
      "t": 93428.47799999994,
      "d": 2571.4260000000068,
      "v": 127
    },
    {
      "midi": 64,
      "hit": false,
      "t": 93428.47799999994,
      "d": 2571.4260000000068,
      "v": 127
    },
    {
      "midi": 69,
      "hit": false,
      "t": 93428.47799999994,
      "d": 2571.4260000000068,
      "v": 127
    },
    {
      "midi": 73,
      "hit": false,
      "t": 93428.47799999994,
      "d": 2571.4260000000068,
      "v": 127
    },
    {
      "midi": 43,
      "hit": false,
      "t": 95999.90399999995,
      "d": 732.1421249999985,
      "v": 108
    },
    {
      "midi": 62,
      "hit": false,
      "t": 95999.90399999995,
      "d": 1452.3794999999955,
      "v": 113
    },
    {
      "midi": 67,
      "hit": false,
      "t": 95999.90399999995,
      "d": 1470.2366249999905,
      "v": 113
    },
    {
      "midi": 71,
      "hit": false,
      "t": 95999.90399999995,
      "d": 1470.2366249999905,
      "v": 95
    },
    {
      "midi": 43,
      "hit": false,
      "t": 97428.47399999994,
      "d": 392.85674999999173,
      "v": 108
    },
    {
      "midi": 62,
      "hit": false,
      "t": 97714.18799999994,
      "d": 571.4279999999853,
      "v": 95
    },
    {
      "midi": 67,
      "hit": false,
      "t": 97714.18799999994,
      "d": 571.4279999999853,
      "v": 108
    },
    {
      "midi": 71,
      "hit": false,
      "t": 97714.18799999994,
      "d": 571.4279999999853,
      "v": 90
    },
    {
      "midi": 43,
      "hit": false,
      "t": 97999.90199999993,
      "d": 255.95212499999616,
      "v": 85
    },
    {
      "midi": 45,
      "hit": false,
      "t": 98285.61599999992,
      "d": 1113.0941250000033,
      "v": 108
    },
    {
      "midi": 64,
      "hit": false,
      "t": 98285.61599999992,
      "d": 1113.0941250000033,
      "v": 108
    },
    {
      "midi": 69,
      "hit": false,
      "t": 98285.61599999992,
      "d": 1113.0941250000033,
      "v": 85
    },
    {
      "midi": 73,
      "hit": false,
      "t": 98285.61599999992,
      "d": 1113.0941250000033,
      "v": 98
    },
    {
      "midi": 73,
      "hit": false,
      "t": 99428.47199999992,
      "d": 249.99975000000268,
      "v": 125
    },
    {
      "midi": 45,
      "hit": false,
      "t": 99428.47199999992,
      "d": 541.6661250000034,
      "v": 108
    },
    {
      "midi": 64,
      "hit": false,
      "t": 99428.47199999992,
      "d": 541.6661250000034,
      "v": 108
    },
    {
      "midi": 69,
      "hit": false,
      "t": 99428.47199999992,
      "d": 541.6661250000034,
      "v": 85
    },
    {
      "midi": 74,
      "hit": false,
      "t": 99714.18599999993,
      "d": 232.14262499999313,
      "v": 117
    },
    {
      "midi": 76,
      "hit": false,
      "t": 99999.89999999992,
      "d": 434.5233750000043,
      "v": 117
    },
    {
      "midi": 45,
      "hit": false,
      "t": 99999.89999999992,
      "d": 541.6661250000034,
      "v": 108
    },
    {
      "midi": 64,
      "hit": false,
      "t": 99999.89999999992,
      "d": 541.6661250000034,
      "v": 108
    },
    {
      "midi": 69,
      "hit": false,
      "t": 99999.89999999992,
      "d": 541.6661250000034,
      "v": 85
    },
    {
      "midi": 50,
      "hit": false,
      "t": 100571.32799999992,
      "d": 1113.0941250000033,
      "v": 113
    },
    {
      "midi": 62,
      "hit": false,
      "t": 100571.32799999992,
      "d": 1113.0941250000033,
      "v": 113
    },
    {
      "midi": 69,
      "hit": false,
      "t": 100571.32799999992,
      "d": 1238.0939999999973,
      "v": 113
    },
    {
      "midi": 74,
      "hit": false,
      "t": 100571.32799999992,
      "d": 1428.5699999999924,
      "v": 113
    },
    {
      "midi": 78,
      "hit": false,
      "t": 100571.32799999992,
      "d": 1714.2839999999997,
      "v": 113
    },
    {
      "midi": 50,
      "hit": false,
      "t": 101714.18399999992,
      "d": 1160.7131250000093,
      "v": 108
    },
    {
      "midi": 62,
      "hit": false,
      "t": 101714.18399999992,
      "d": 1160.7131250000093,
      "v": 85
    },
    {
      "midi": 69,
      "hit": false,
      "t": 101999.89799999991,
      "d": 874.9991250000166,
      "v": 108
    },
    {
      "midi": 74,
      "hit": false,
      "t": 102285.61199999992,
      "d": 535.7137500000099,
      "v": 111
    },
    {
      "midi": 78,
      "hit": false,
      "t": 102571.32599999993,
      "d": 249.99975000000268,
      "v": 111
    },
    {
      "midi": 74,
      "hit": false,
      "t": 102857.03999999994,
      "d": 749.9992499999935,
      "v": 111
    },
    {
      "midi": 79,
      "hit": false,
      "t": 102857.03999999994,
      "d": 749.9992499999935,
      "v": 111
    },
    {
      "midi": 71,
      "hit": false,
      "t": 102857.03999999994,
      "d": 755.951624999987,
      "v": 111
    },
    {
      "midi": 55,
      "hit": false,
      "t": 102857.03999999994,
      "d": 1005.9513749999896,
      "v": 111
    },
    {
      "midi": 71,
      "hit": false,
      "t": 103714.18199999993,
      "d": 595.2374999999884,
      "v": 111
    },
    {
      "midi": 74,
      "hit": false,
      "t": 103714.18199999993,
      "d": 1428.570000000007,
      "v": 111
    },
    {
      "midi": 79,
      "hit": false,
      "t": 103714.18199999993,
      "d": 1428.570000000007,
      "v": 111
    },
    {
      "midi": 55,
      "hit": false,
      "t": 103999.89599999992,
      "d": 1142.8560000000143,
      "v": 106
    },
    {
      "midi": 71,
      "hit": false,
      "t": 104571.32399999992,
      "d": 285.7140000000072,
      "v": 113
    },
    {
      "midi": 66,
      "hit": false,
      "t": 104857.03799999993,
      "d": 249.99975000000268,
      "v": 115
    },
    {
      "midi": 52,
      "hit": false,
      "t": 105142.75199999993,
      "d": 732.1421249999985,
      "v": 108
    },
    {
      "midi": 74,
      "hit": false,
      "t": 105142.75199999993,
      "d": 1452.3794999999955,
      "v": 113
    },
    {
      "midi": 67,
      "hit": false,
      "t": 105142.75199999993,
      "d": 1470.2366249999905,
      "v": 113
    },
    {
      "midi": 71,
      "hit": false,
      "t": 105142.75199999993,
      "d": 1470.2366249999905,
      "v": 95
    },
    {
      "midi": 52,
      "hit": false,
      "t": 106571.32199999993,
      "d": 392.85674999999173,
      "v": 108
    },
    {
      "midi": 67,
      "hit": false,
      "t": 106857.03599999992,
      "d": 571.4279999999853,
      "v": 108
    },
    {
      "midi": 71,
      "hit": false,
      "t": 106857.03599999992,
      "d": 571.4279999999853,
      "v": 90
    },
    {
      "midi": 74,
      "hit": false,
      "t": 106857.03599999992,
      "d": 571.4279999999853,
      "v": 95
    },
    {
      "midi": 52,
      "hit": false,
      "t": 107142.74999999991,
      "d": 255.95212499999616,
      "v": 85
    },
    {
      "midi": 45,
      "hit": false,
      "t": 107428.4639999999,
      "d": 1113.0941250000033,
      "v": 108
    },
    {
      "midi": 64,
      "hit": false,
      "t": 107428.4639999999,
      "d": 1113.0941250000033,
      "v": 108
    },
    {
      "midi": 69,
      "hit": false,
      "t": 107428.4639999999,
      "d": 1113.0941250000033,
      "v": 85
    },
    {
      "midi": 73,
      "hit": false,
      "t": 107428.4639999999,
      "d": 1113.0941250000033,
      "v": 98
    },
    {
      "midi": 73,
      "hit": false,
      "t": 108571.3199999999,
      "d": 249.99975000000268,
      "v": 125
    },
    {
      "midi": 45,
      "hit": false,
      "t": 108571.3199999999,
      "d": 541.6661250000034,
      "v": 108
    },
    {
      "midi": 64,
      "hit": false,
      "t": 108571.3199999999,
      "d": 541.6661250000034,
      "v": 108
    },
    {
      "midi": 69,
      "hit": false,
      "t": 108571.3199999999,
      "d": 541.6661250000034,
      "v": 85
    },
    {
      "midi": 74,
      "hit": false,
      "t": 108857.03399999991,
      "d": 232.14262499999313,
      "v": 117
    },
    {
      "midi": 76,
      "hit": false,
      "t": 109142.7479999999,
      "d": 434.5233750000043,
      "v": 117
    },
    {
      "midi": 45,
      "hit": false,
      "t": 109142.7479999999,
      "d": 541.6661250000034,
      "v": 108
    },
    {
      "midi": 64,
      "hit": false,
      "t": 109142.7479999999,
      "d": 541.6661250000034,
      "v": 108
    },
    {
      "midi": 69,
      "hit": false,
      "t": 109142.7479999999,
      "d": 541.6661250000034,
      "v": 85
    },
    {
      "midi": 50,
      "hit": false,
      "t": 109714.1759999999,
      "d": 1113.0941250000033,
      "v": 113
    },
    {
      "midi": 62,
      "hit": false,
      "t": 109714.1759999999,
      "d": 1113.0941250000033,
      "v": 113
    },
    {
      "midi": 69,
      "hit": false,
      "t": 109714.1759999999,
      "d": 1238.0939999999973,
      "v": 113
    },
    {
      "midi": 74,
      "hit": false,
      "t": 109714.1759999999,
      "d": 1428.5699999999924,
      "v": 113
    },
    {
      "midi": 78,
      "hit": false,
      "t": 109714.1759999999,
      "d": 1714.2839999999997,
      "v": 113
    },
    {
      "midi": 50,
      "hit": false,
      "t": 110857.0319999999,
      "d": 1160.7131250000093,
      "v": 108
    },
    {
      "midi": 62,
      "hit": false,
      "t": 110857.0319999999,
      "d": 1160.7131250000093,
      "v": 85
    },
    {
      "midi": 69,
      "hit": false,
      "t": 111142.7459999999,
      "d": 874.9991250000166,
      "v": 108
    },
    {
      "midi": 74,
      "hit": false,
      "t": 111428.4599999999,
      "d": 535.7137500000099,
      "v": 111
    },
    {
      "midi": 78,
      "hit": false,
      "t": 111714.17399999991,
      "d": 249.99975000000268,
      "v": 111
    },
    {
      "midi": 74,
      "hit": false,
      "t": 111999.88799999992,
      "d": 749.9992499999935,
      "v": 111
    },
    {
      "midi": 79,
      "hit": false,
      "t": 111999.88799999992,
      "d": 749.9992499999935,
      "v": 111
    },
    {
      "midi": 71,
      "hit": false,
      "t": 111999.88799999992,
      "d": 755.951624999987,
      "v": 111
    },
    {
      "midi": 55,
      "hit": false,
      "t": 111999.88799999992,
      "d": 1005.9513749999896,
      "v": 111
    },
    {
      "midi": 71,
      "hit": false,
      "t": 112857.02999999991,
      "d": 595.2374999999884,
      "v": 111
    },
    {
      "midi": 74,
      "hit": false,
      "t": 112857.02999999991,
      "d": 1428.570000000007,
      "v": 111
    },
    {
      "midi": 79,
      "hit": false,
      "t": 112857.02999999991,
      "d": 1428.570000000007,
      "v": 111
    },
    {
      "midi": 55,
      "hit": false,
      "t": 113142.7439999999,
      "d": 1142.8560000000143,
      "v": 106
    },
    {
      "midi": 71,
      "hit": false,
      "t": 113714.1719999999,
      "d": 285.7140000000072,
      "v": 113
    },
    {
      "midi": 66,
      "hit": false,
      "t": 113999.88599999991,
      "d": 249.99975000000268,
      "v": 115
    },
    {
      "midi": 66,
      "hit": false,
      "t": 114285.59999999992,
      "d": 624.9993749999994,
      "v": 98
    },
    {
      "midi": 62,
      "hit": false,
      "t": 114285.59999999992,
      "d": 630.9517499999929,
      "v": 95
    },
    {
      "midi": 57,
      "hit": false,
      "t": 114285.59999999992,
      "d": 642.8564999999944,
      "v": 90
    },
    {
      "midi": 38,
      "hit": false,
      "t": 114285.59999999992,
      "d": 898.8086249999906,
      "v": 95
    },
    {
      "midi": 66,
      "hit": false,
      "t": 115142.74199999991,
      "d": 702.3802499999874,
      "v": 91
    },
    {
      "midi": 57,
      "hit": false,
      "t": 115142.74199999991,
      "d": 726.1897499999905,
      "v": 81
    },
    {
      "midi": 62,
      "hit": false,
      "t": 115142.74199999991,
      "d": 726.1897499999905,
      "v": 90
    },
    {
      "midi": 38,
      "hit": false,
      "t": 115428.4559999999,
      "d": 672.6183750000055,
      "v": 90
    },
    {
      "midi": 66,
      "hit": false,
      "t": 115999.8839999999,
      "d": 999.9989999999962,
      "v": 77
    },
    {
      "midi": 57,
      "hit": false,
      "t": 115999.8839999999,
      "d": 1017.8561249999912,
      "v": 69
    },
    {
      "midi": 62,
      "hit": false,
      "t": 115999.8839999999,
      "d": 1017.8561249999912,
      "v": 85
    },
    {
      "midi": 38,
      "hit": false,
      "t": 116285.59799999991,
      "d": 124.99987499999406,
      "v": 72
    },
    {
      "midi": 38,
      "hit": false,
      "t": 116571.3119999999,
      "d": 690.4754999999859,
      "v": 85
    },
    {
      "midi": 57,
      "hit": false,
      "t": 117142.73999999989,
      "d": 386.9043750000128,
      "v": 81
    },
    {
      "midi": 62,
      "hit": false,
      "t": 117142.73999999989,
      "d": 392.8567500000063,
      "v": 74
    },
    {
      "midi": 66,
      "hit": false,
      "t": 117142.73999999989,
      "d": 410.7138750000013,
      "v": 85
    },
    {
      "midi": 38,
      "hit": false,
      "t": 117428.4539999999,
      "d": 142.85699999998906,
      "v": 95
    },
    {
      "midi": 57,
      "hit": false,
      "t": 117714.16799999989,
      "d": 482.1423749999958,
      "v": 90
    },
    {
      "midi": 61,
      "hit": false,
      "t": 117714.16799999989,
      "d": 482.1423749999958,
      "v": 106
    },
    {
      "midi": 64,
      "hit": false,
      "t": 117714.16799999989,
      "d": 499.9994999999908,
      "v": 77
    },
    {
      "midi": 37,
      "hit": false,
      "t": 117714.16799999989,
      "d": 690.4754999999859,
      "v": 85
    },
    {
      "midi": 57,
      "hit": false,
      "t": 118285.59599999987,
      "d": 333.33300000001327,
      "v": 72
    },
    {
      "midi": 61,
      "hit": false,
      "t": 118285.59599999987,
      "d": 369.0472500000178,
      "v": 77
    },
    {
      "midi": 64,
      "hit": false,
      "t": 118285.59599999987,
      "d": 369.0472500000178,
      "v": 60
    },
    {
      "midi": 37,
      "hit": false,
      "t": 118571.30999999988,
      "d": 160.71412500001315,
      "v": 106
    },
    {
      "midi": 66,
      "hit": false,
      "t": 118857.02399999989,
      "d": 684.523125000007,
      "v": 106
    },
    {
      "midi": 57,
      "hit": false,
      "t": 118857.02399999989,
      "d": 702.380250000002,
      "v": 81
    },
    {
      "midi": 62,
      "hit": false,
      "t": 118857.02399999989,
      "d": 702.380250000002,
      "v": 72
    },
    {
      "midi": 35,
      "hit": false,
      "t": 118857.02399999989,
      "d": 928.5705000000016,
      "v": 81
    },
    {
      "midi": 66,
      "hit": false,
      "t": 119714.1659999999,
      "d": 672.6183749999909,
      "v": 81
    },
    {
      "midi": 57,
      "hit": false,
      "t": 119714.1659999999,
      "d": 678.5707499999844,
      "v": 60
    },
    {
      "midi": 62,
      "hit": false,
      "t": 119714.1659999999,
      "d": 678.5707499999844,
      "v": 77
    },
    {
      "midi": 47,
      "hit": false,
      "t": 119999.87999999989,
      "d": 648.8088749999879,
      "v": 95
    },
    {
      "midi": 62,
      "hit": false,
      "t": 120571.30799999987,
      "d": 988.0942499999946,
      "v": 72
    },
    {
      "midi": 66,
      "hit": false,
      "t": 120571.30799999987,
      "d": 994.0466249999881,
      "v": 85
    },
    {
      "midi": 57,
      "hit": false,
      "t": 120571.30799999987,
      "d": 1005.9513749999896,
      "v": 72
    },
    {
      "midi": 47,
      "hit": false,
      "t": 120857.02199999988,
      "d": 136.90462499999558,
      "v": 102
    },
    {
      "midi": 47,
      "hit": false,
      "t": 121142.73599999987,
      "d": 648.8088749999879,
      "v": 74
    },
    {
      "midi": 62,
      "hit": false,
      "t": 121714.16399999986,
      "d": 327.38062500000524,
      "v": 81
    },
    {
      "midi": 66,
      "hit": false,
      "t": 121714.16399999986,
      "d": 327.38062500000524,
      "v": 91
    },
    {
      "midi": 57,
      "hit": false,
      "t": 121714.16399999986,
      "d": 333.3329999999987,
      "v": 77
    },
    {
      "midi": 47,
      "hit": false,
      "t": 121999.87799999987,
      "d": 172.61887499998556,
      "v": 90
    },
    {
      "midi": 57,
      "hit": false,
      "t": 122285.59199999986,
      "d": 511.90425000000687,
      "v": 102
    },
    {
      "midi": 64,
      "hit": false,
      "t": 122285.59199999986,
      "d": 511.90425000000687,
      "v": 81
    },
    {
      "midi": 61,
      "hit": false,
      "t": 122285.59199999986,
      "d": 517.8566250000003,
      "v": 98
    },
    {
      "midi": 45,
      "hit": false,
      "t": 122285.59199999986,
      "d": 714.2850000000035,
      "v": 95
    },
    {
      "midi": 57,
      "hit": false,
      "t": 122857.01999999986,
      "d": 363.0948750000098,
      "v": 69
    },
    {
      "midi": 64,
      "hit": false,
      "t": 122857.01999999986,
      "d": 380.9520000000048,
      "v": 69
    },
    {
      "midi": 61,
      "hit": false,
      "t": 122857.01999999986,
      "d": 398.80912499999977,
      "v": 81
    },
    {
      "midi": 45,
      "hit": false,
      "t": 123142.73399999987,
      "d": 238.0949999999866,
      "v": 90
    },
    {
      "midi": 66,
      "hit": false,
      "t": 123428.44799999986,
      "d": 624.9993749999994,
      "v": 91
    },
    {
      "midi": 57,
      "hit": false,
      "t": 123428.44799999986,
      "d": 642.8564999999944,
      "v": 90
    },
    {
      "midi": 62,
      "hit": false,
      "t": 123428.44799999986,
      "d": 642.8564999999944,
      "v": 77
    },
    {
      "midi": 50,
      "hit": false,
      "t": 123428.44799999986,
      "d": 845.237249999991,
      "v": 95
    },
    {
      "midi": 62,
      "hit": false,
      "t": 124285.58999999985,
      "d": 708.33262500001,
      "v": 77
    },
    {
      "midi": 66,
      "hit": false,
      "t": 124285.58999999985,
      "d": 708.33262500001,
      "v": 85
    },
    {
      "midi": 57,
      "hit": false,
      "t": 124285.58999999985,
      "d": 720.2373750000115,
      "v": 69
    },
    {
      "midi": 50,
      "hit": false,
      "t": 124571.30399999986,
      "d": 660.713625000004,
      "v": 102
    },
    {
      "midi": 66,
      "hit": false,
      "t": 125142.73199999986,
      "d": 958.3323749999981,
      "v": 91
    },
    {
      "midi": 62,
      "hit": false,
      "t": 125142.73199999986,
      "d": 970.2371249999997,
      "v": 85
    },
    {
      "midi": 57,
      "hit": false,
      "t": 125142.73199999986,
      "d": 976.1894999999931,
      "v": 81
    },
    {
      "midi": 50,
      "hit": false,
      "t": 125428.44599999987,
      "d": 107.14274999999907,
      "v": 90
    },
    {
      "midi": 50,
      "hit": false,
      "t": 125714.15999999986,
      "d": 648.8088750000024,
      "v": 95
    },
    {
      "midi": 57,
      "hit": false,
      "t": 126285.58799999986,
      "d": 958.3323749999981,
      "v": 60
    },
    {
      "midi": 66,
      "hit": false,
      "t": 126285.58799999986,
      "d": 958.3323749999981,
      "v": 77
    },
    {
      "midi": 62,
      "hit": false,
      "t": 126285.58799999986,
      "d": 976.1894999999931,
      "v": 77
    },
    {
      "midi": 50,
      "hit": false,
      "t": 126571.30199999987,
      "d": 107.14274999999907,
      "v": 85
    },
    {
      "midi": 50,
      "hit": false,
      "t": 126857.01599999986,
      "d": 1124.9988750000048,
      "v": 90
    },
    {
      "midi": 57,
      "hit": false,
      "t": 127428.44399999986,
      "d": 559.5232499999984,
      "v": 90
    },
    {
      "midi": 62,
      "hit": false,
      "t": 127428.44399999986,
      "d": 559.5232499999984,
      "v": 95
    },
    {
      "midi": 66,
      "hit": false,
      "t": 127428.44399999986,
      "d": 559.5232499999984,
      "v": 98
    },
    {
      "midi": 66,
      "hit": false,
      "t": 127999.87199999986,
      "d": 1571.426999999996,
      "v": 92
    },
    {
      "midi": 57,
      "hit": false,
      "t": 127999.87199999986,
      "d": 3857.1389999999956,
      "v": 92
    },
    {
      "midi": 62,
      "hit": false,
      "t": 127999.87199999986,
      "d": 3857.1389999999956,
      "v": 92
    },
    {
      "midi": 38,
      "hit": false,
      "t": 127999.87199999986,
      "d": 4517.85262499997,
      "v": 92
    },
    {
      "midi": 45,
      "hit": false,
      "t": 127999.87199999986,
      "d": 4571.42399999997,
      "v": 92
    },
    {
      "midi": 66,
      "hit": false,
      "t": 129714.15599999986,
      "d": 285.7140000000072,
      "v": 90
    },
    {
      "midi": 71,
      "hit": false,
      "t": 129999.86999999986,
      "d": 1857.1409999999887,
      "v": 99
    },
    {
      "midi": 57,
      "hit": false,
      "t": 131999.86799999984,
      "d": 529.7613749999728,
      "v": 104
    },
    {
      "midi": 62,
      "hit": false,
      "t": 131999.86799999984,
      "d": 547.6184999999823,
      "v": 104
    },
    {
      "midi": 69,
      "hit": false,
      "t": 131999.86799999984,
      "d": 571.4279999999853,
      "v": 104
    },
    {
      "midi": 66,
      "hit": false,
      "t": 132571.29599999983,
      "d": 3285.7110000000102,
      "v": 104
    },
    {
      "midi": 57,
      "hit": false,
      "t": 132571.29599999983,
      "d": 3398.806125000003,
      "v": 94
    },
    {
      "midi": 62,
      "hit": false,
      "t": 132571.29599999983,
      "d": 3398.806125000003,
      "v": 94
    },
    {
      "midi": 35,
      "hit": false,
      "t": 132571.29599999983,
      "d": 4488.090750000003,
      "v": 94
    },
    {
      "midi": 42,
      "hit": false,
      "t": 132571.29599999983,
      "d": 4488.090750000003,
      "v": 94
    },
    {
      "midi": 66,
      "hit": false,
      "t": 135999.86399999983,
      "d": 285.7140000000072,
      "v": 114
    },
    {
      "midi": 57,
      "hit": false,
      "t": 135999.86399999983,
      "d": 541.6661250000179,
      "v": 96
    },
    {
      "midi": 62,
      "hit": false,
      "t": 135999.86399999983,
      "d": 541.6661250000179,
      "v": 86
    },
    {
      "midi": 67,
      "hit": false,
      "t": 136285.57799999983,
      "d": 285.7140000000072,
      "v": 109
    },
    {
      "midi": 57,
      "hit": false,
      "t": 136571.29199999984,
      "d": 541.6661249999888,
      "v": 96
    },
    {
      "midi": 62,
      "hit": false,
      "t": 136571.29199999984,
      "d": 571.4279999999853,
      "v": 96
    },
    {
      "midi": 69,
      "hit": false,
      "t": 136571.29199999984,
      "d": 571.4279999999853,
      "v": 111
    },
    {
      "midi": 42,
      "hit": false,
      "t": 137142.71999999983,
      "d": 3398.806125000003,
      "v": 99
    },
    {
      "midi": 49,
      "hit": false,
      "t": 137142.71999999983,
      "d": 3398.806125000003,
      "v": 99
    },
    {
      "midi": 57,
      "hit": false,
      "t": 137142.71999999983,
      "d": 3398.806125000003,
      "v": 99
    },
    {
      "midi": 61,
      "hit": false,
      "t": 137142.71999999983,
      "d": 3398.806125000003,
      "v": 99
    },
    {
      "midi": 64,
      "hit": false,
      "t": 137142.71999999983,
      "d": 3398.806125000003,
      "v": 99
    },
    {
      "midi": 42,
      "hit": false,
      "t": 140571.28799999983,
      "d": 255.9521250000107,
      "v": 63
    },
    {
      "midi": 49,
      "hit": false,
      "t": 140571.28799999983,
      "d": 255.9521250000107,
      "v": 63
    },
    {
      "midi": 57,
      "hit": false,
      "t": 140571.28799999983,
      "d": 255.9521250000107,
      "v": 63
    },
    {
      "midi": 61,
      "hit": false,
      "t": 140571.28799999983,
      "d": 255.9521250000107,
      "v": 63
    },
    {
      "midi": 42,
      "hit": false,
      "t": 140857.00199999983,
      "d": 255.9521250000107,
      "v": 78
    },
    {
      "midi": 49,
      "hit": false,
      "t": 140857.00199999983,
      "d": 255.9521250000107,
      "v": 78
    },
    {
      "midi": 57,
      "hit": false,
      "t": 140857.00199999983,
      "d": 255.9521250000107,
      "v": 78
    },
    {
      "midi": 61,
      "hit": false,
      "t": 140857.00199999983,
      "d": 255.9521250000107,
      "v": 78
    },
    {
      "midi": 42,
      "hit": false,
      "t": 141142.71599999984,
      "d": 255.9521250000107,
      "v": 92
    },
    {
      "midi": 49,
      "hit": false,
      "t": 141142.71599999984,
      "d": 255.9521250000107,
      "v": 92
    },
    {
      "midi": 57,
      "hit": false,
      "t": 141142.71599999984,
      "d": 255.9521250000107,
      "v": 92
    },
    {
      "midi": 61,
      "hit": false,
      "t": 141142.71599999984,
      "d": 255.9521250000107,
      "v": 92
    },
    {
      "midi": 66,
      "hit": false,
      "t": 141142.71599999984,
      "d": 285.7140000000072,
      "v": 92
    },
    {
      "midi": 42,
      "hit": false,
      "t": 141428.42999999985,
      "d": 285.7140000000072,
      "v": 106
    },
    {
      "midi": 49,
      "hit": false,
      "t": 141428.42999999985,
      "d": 285.7140000000072,
      "v": 106
    },
    {
      "midi": 57,
      "hit": false,
      "t": 141428.42999999985,
      "d": 285.7140000000072,
      "v": 106
    },
    {
      "midi": 61,
      "hit": false,
      "t": 141428.42999999985,
      "d": 285.7140000000072,
      "v": 106
    },
    {
      "midi": 69,
      "hit": false,
      "t": 141428.42999999985,
      "d": 285.7140000000072,
      "v": 106
    },
    {
      "midi": 43,
      "hit": false,
      "t": 141714.14399999985,
      "d": 255.9521250000107,
      "v": 63
    },
    {
      "midi": 62,
      "hit": false,
      "t": 141714.14399999985,
      "d": 2184.521625000052,
      "v": 120
    },
    {
      "midi": 50,
      "hit": false,
      "t": 141714.14399999985,
      "d": 2285.7120000000577,
      "v": 120
    },
    {
      "midi": 59,
      "hit": false,
      "t": 141714.14399999985,
      "d": 2285.7120000000577,
      "v": 120
    },
    {
      "midi": 67,
      "hit": false,
      "t": 141714.14399999985,
      "d": 2285.7120000000577,
      "v": 120
    },
    {
      "midi": 43,
      "hit": false,
      "t": 141999.85799999986,
      "d": 255.9521250000107,
      "v": 84
    },
    {
      "midi": 43,
      "hit": false,
      "t": 142285.57199999987,
      "d": 255.9521250000107,
      "v": 88
    },
    {
      "midi": 43,
      "hit": false,
      "t": 142571.28599999988,
      "d": 238.09500000000116,
      "v": 92
    },
    {
      "midi": 43,
      "hit": false,
      "t": 142856.99999999988,
      "d": 255.9521250000107,
      "v": 96
    },
    {
      "midi": 43,
      "hit": false,
      "t": 143142.7139999999,
      "d": 255.9521250000107,
      "v": 100
    },
    {
      "midi": 43,
      "hit": false,
      "t": 143428.4279999999,
      "d": 571.4280000000144,
      "v": 104
    },
    {
      "midi": 45,
      "hit": false,
      "t": 143999.8559999999,
      "d": 428.5709999999963,
      "v": 113
    },
    {
      "midi": 52,
      "hit": false,
      "t": 143999.8559999999,
      "d": 428.5709999999963,
      "v": 113
    },
    {
      "midi": 57,
      "hit": false,
      "t": 143999.8559999999,
      "d": 428.5709999999963,
      "v": 113
    },
    {
      "midi": 61,
      "hit": false,
      "t": 143999.8559999999,
      "d": 428.5709999999963,
      "v": 113
    },
    {
      "midi": 64,
      "hit": false,
      "t": 143999.8559999999,
      "d": 428.5709999999963,
      "v": 113
    },
    {
      "midi": 66,
      "hit": false,
      "t": 146285.5679999999,
      "d": 4386.900374999997,
      "v": 123
    },
    {
      "midi": 62,
      "hit": false,
      "t": 146285.5679999999,
      "d": 4404.757500000007,
      "v": 81
    },
    {
      "midi": 50,
      "hit": false,
      "t": 146285.5679999999,
      "d": 4422.6146250000165,
      "v": 123
    },
    {
      "midi": 57,
      "hit": false,
      "t": 146285.5679999999,
      "d": 4422.6146250000165,
      "v": 72
    },
    {
      "midi": 78,
      "hit": false,
      "t": 148571.2799999999,
      "d": 1392.855749999988,
      "v": 109
    },
    {
      "midi": 74,
      "hit": false,
      "t": 148571.2799999999,
      "d": 1398.8081249999814,
      "v": 81
    },
    {
      "midi": 78,
      "hit": false,
      "t": 149999.8499999999,
      "d": 279.76162500001374,
      "v": 109
    },
    {
      "midi": 74,
      "hit": false,
      "t": 149999.8499999999,
      "d": 285.7140000000072,
      "v": 81
    },
    {
      "midi": 76,
      "hit": false,
      "t": 150285.5639999999,
      "d": 279.76162500001374,
      "v": 109
    },
    {
      "midi": 79,
      "hit": false,
      "t": 150285.5639999999,
      "d": 279.76162500001374,
      "v": 109
    },
    {
      "midi": 78,
      "hit": false,
      "t": 150571.2779999999,
      "d": 3392.8537500000384,
      "v": 113
    },
    {
      "midi": 69,
      "hit": false,
      "t": 150571.2779999999,
      "d": 3684.52012500001,
      "v": 72
    },
    {
      "midi": 74,
      "hit": false,
      "t": 150571.2779999999,
      "d": 3684.52012500001,
      "v": 109
    },
    {
      "midi": 59,
      "hit": false,
      "t": 150856.99199999994,
      "d": 3392.85374999998,
      "v": 123
    },
    {
      "midi": 54,
      "hit": false,
      "t": 150856.99199999994,
      "d": 3398.8061249999737,
      "v": 72
    },
    {
      "midi": 78,
      "hit": false,
      "t": 153999.84599999993,
      "d": 285.7139999999781,
      "v": 125
    },
    {
      "midi": 79,
      "hit": false,
      "t": 154285.5599999999,
      "d": 285.7140000000072,
      "v": 127
    },
    {
      "midi": 54,
      "hit": false,
      "t": 154285.5599999999,
      "d": 541.6661250000179,
      "v": 107
    },
    {
      "midi": 59,
      "hit": false,
      "t": 154285.5599999999,
      "d": 541.6661250000179,
      "v": 107
    },
    {
      "midi": 69,
      "hit": false,
      "t": 154285.5599999999,
      "d": 541.6661250000179,
      "v": 107
    },
    {
      "midi": 74,
      "hit": false,
      "t": 154285.5599999999,
      "d": 571.4280000000144,
      "v": 107
    },
    {
      "midi": 81,
      "hit": false,
      "t": 154571.27399999992,
      "d": 285.7140000000072,
      "v": 127
    },
    {
      "midi": 78,
      "hit": false,
      "t": 154856.98799999992,
      "d": 285.7140000000072,
      "v": 127
    },
    {
      "midi": 69,
      "hit": false,
      "t": 154856.98799999992,
      "d": 523.8090000000084,
      "v": 107
    },
    {
      "midi": 54,
      "hit": false,
      "t": 154856.98799999992,
      "d": 541.6661250000179,
      "v": 107
    },
    {
      "midi": 59,
      "hit": false,
      "t": 154856.98799999992,
      "d": 571.4280000000144,
      "v": 107
    },
    {
      "midi": 66,
      "hit": false,
      "t": 154856.98799999992,
      "d": 571.4280000000144,
      "v": 107
    },
    {
      "midi": 74,
      "hit": false,
      "t": 155142.70199999993,
      "d": 285.7140000000072,
      "v": 127
    },
    {
      "midi": 61,
      "hit": false,
      "t": 155428.41599999994,
      "d": 3071.425500000012,
      "v": 116
    },
    {
      "midi": 54,
      "hit": false,
      "t": 155428.41599999994,
      "d": 4571.424000000028,
      "v": 116
    },
    {
      "midi": 69,
      "hit": false,
      "t": 155428.41599999994,
      "d": 4571.424000000028,
      "v": 116
    },
    {
      "midi": 73,
      "hit": false,
      "t": 155428.41599999994,
      "d": 4571.424000000028,
      "v": 116
    },
    {
      "midi": 76,
      "hit": false,
      "t": 155428.41599999994,
      "d": 4571.424000000028,
      "v": 127
    },
    {
      "midi": 61,
      "hit": false,
      "t": 158571.26999999996,
      "d": 267.8568749999977,
      "v": 99
    },
    {
      "midi": 57,
      "hit": false,
      "t": 158856.98399999997,
      "d": 267.8568749999977,
      "v": 89
    },
    {
      "midi": 61,
      "hit": false,
      "t": 158856.98399999997,
      "d": 267.8568749999977,
      "v": 89
    },
    {
      "midi": 66,
      "hit": false,
      "t": 158856.98399999997,
      "d": 285.7140000000072,
      "v": 118
    },
    {
      "midi": 64,
      "hit": false,
      "t": 159142.69799999997,
      "d": 261.9045000000042,
      "v": 113
    },
    {
      "midi": 57,
      "hit": false,
      "t": 159142.69799999997,
      "d": 267.8568749999977,
      "v": 89
    },
    {
      "midi": 61,
      "hit": false,
      "t": 159142.69799999997,
      "d": 267.8568749999977,
      "v": 89
    },
    {
      "midi": 57,
      "hit": false,
      "t": 159428.41199999998,
      "d": 267.8568749999977,
      "v": 89
    },
    {
      "midi": 61,
      "hit": false,
      "t": 159428.41199999998,
      "d": 267.8568749999977,
      "v": 89
    },
    {
      "midi": 66,
      "hit": false,
      "t": 159428.41199999998,
      "d": 267.8568749999977,
      "v": 115
    },
    {
      "midi": 64,
      "hit": false,
      "t": 159714.126,
      "d": 249.99974999998813,
      "v": 113
    },
    {
      "midi": 57,
      "hit": false,
      "t": 159714.126,
      "d": 297.6187499999651,
      "v": 89
    },
    {
      "midi": 61,
      "hit": false,
      "t": 159714.126,
      "d": 297.6187499999651,
      "v": 89
    },
    {
      "midi": 55,
      "hit": false,
      "t": 159999.83999999997,
      "d": 2285.7119999999995,
      "v": 105
    },
    {
      "midi": 62,
      "hit": false,
      "t": 159999.83999999997,
      "d": 2285.7119999999995,
      "v": 105
    },
    {
      "midi": 67,
      "hit": false,
      "t": 159999.83999999997,
      "d": 2285.7119999999995,
      "v": 105
    },
    {
      "midi": 71,
      "hit": false,
      "t": 159999.83999999997,
      "d": 2285.7119999999995,
      "v": 115
    },
    {
      "midi": 69,
      "hit": false,
      "t": 162285.55199999997,
      "d": 1113.0941250000033,
      "v": 92
    },
    {
      "midi": 73,
      "hit": false,
      "t": 162285.55199999997,
      "d": 1113.0941250000033,
      "v": 112
    },
    {
      "midi": 57,
      "hit": false,
      "t": 162285.55199999997,
      "d": 2285.7120000000286,
      "v": 92
    },
    {
      "midi": 64,
      "hit": false,
      "t": 162285.55199999997,
      "d": 2285.7120000000286,
      "v": 92
    },
    {
      "midi": 69,
      "hit": false,
      "t": 163428.40799999997,
      "d": 285.7140000000072,
      "v": 96
    },
    {
      "midi": 73,
      "hit": false,
      "t": 163428.40799999997,
      "d": 285.7140000000072,
      "v": 109
    },
    {
      "midi": 71,
      "hit": false,
      "t": 163714.12199999997,
      "d": 285.7140000000072,
      "v": 109
    },
    {
      "midi": 74,
      "hit": false,
      "t": 163714.12199999997,
      "d": 285.7140000000072,
      "v": 109
    },
    {
      "midi": 73,
      "hit": false,
      "t": 163999.83599999998,
      "d": 571.4280000000144,
      "v": 96
    },
    {
      "midi": 76,
      "hit": false,
      "t": 163999.83599999998,
      "d": 571.4280000000144,
      "v": 109
    },
    {
      "midi": 66,
      "hit": false,
      "t": 164571.264,
      "d": 4386.900374999997,
      "v": 123
    },
    {
      "midi": 74,
      "hit": false,
      "t": 164571.264,
      "d": 4404.757500000007,
      "v": 81
    },
    {
      "midi": 50,
      "hit": false,
      "t": 164571.264,
      "d": 4422.6146250000165,
      "v": 123
    },
    {
      "midi": 69,
      "hit": false,
      "t": 164571.264,
      "d": 4422.6146250000165,
      "v": 72
    },
    {
      "midi": 59,
      "hit": false,
      "t": 169142.68800000002,
      "d": 3708.329625000013,
      "v": 123
    },
    {
      "midi": 54,
      "hit": false,
      "t": 169142.68800000002,
      "d": 3714.2820000000065,
      "v": 72
    },
    {
      "midi": 69,
      "hit": false,
      "t": 169142.68800000002,
      "d": 3970.2341250000172,
      "v": 72
    },
    {
      "midi": 74,
      "hit": false,
      "t": 169142.68800000002,
      "d": 3970.2341250000172,
      "v": 109
    },
    {
      "midi": 66,
      "hit": false,
      "t": 169142.68800000002,
      "d": 3994.0436250000203,
      "v": 113
    },
    {
      "midi": 54,
      "hit": false,
      "t": 173142.68400000004,
      "d": 541.6661249999888,
      "v": 107
    },
    {
      "midi": 69,
      "hit": false,
      "t": 173142.68400000004,
      "d": 541.6661249999888,
      "v": 107
    },
    {
      "midi": 59,
      "hit": false,
      "t": 173142.68400000004,
      "d": 571.4279999999853,
      "v": 107
    },
    {
      "midi": 74,
      "hit": false,
      "t": 173142.68400000004,
      "d": 571.4279999999853,
      "v": 107
    },
    {
      "midi": 54,
      "hit": false,
      "t": 173714.11200000002,
      "d": 3970.234124999988,
      "v": 116
    },
    {
      "midi": 61,
      "hit": false,
      "t": 173714.11200000002,
      "d": 3970.234124999988,
      "v": 116
    },
    {
      "midi": 64,
      "hit": false,
      "t": 173714.11200000002,
      "d": 3970.234124999988,
      "v": 127
    },
    {
      "midi": 69,
      "hit": false,
      "t": 173714.11200000002,
      "d": 3970.234124999988,
      "v": 116
    },
    {
      "midi": 73,
      "hit": false,
      "t": 173714.11200000002,
      "d": 3970.234124999988,
      "v": 116
    },
    {
      "midi": 54,
      "hit": false,
      "t": 177714.108,
      "d": 541.6661249999888,
      "v": 116
    },
    {
      "midi": 61,
      "hit": false,
      "t": 177714.108,
      "d": 541.6661249999888,
      "v": 116
    },
    {
      "midi": 64,
      "hit": false,
      "t": 177714.108,
      "d": 541.6661249999888,
      "v": 127
    },
    {
      "midi": 69,
      "hit": false,
      "t": 177714.108,
      "d": 541.6661249999888,
      "v": 116
    },
    {
      "midi": 73,
      "hit": false,
      "t": 177714.108,
      "d": 541.6661249999888,
      "v": 116
    },
    {
      "midi": 55,
      "hit": false,
      "t": 178285.536,
      "d": 255.9521250000107,
      "v": 85
    },
    {
      "midi": 62,
      "hit": false,
      "t": 178285.536,
      "d": 255.9521250000107,
      "v": 85
    },
    {
      "midi": 67,
      "hit": false,
      "t": 178285.536,
      "d": 255.9521250000107,
      "v": 85
    },
    {
      "midi": 71,
      "hit": false,
      "t": 178285.536,
      "d": 255.9521250000107,
      "v": 85
    },
    {
      "midi": 55,
      "hit": false,
      "t": 178571.25,
      "d": 255.9521250000107,
      "v": 93
    },
    {
      "midi": 62,
      "hit": false,
      "t": 178571.25,
      "d": 255.9521250000107,
      "v": 93
    },
    {
      "midi": 67,
      "hit": false,
      "t": 178571.25,
      "d": 255.9521250000107,
      "v": 93
    },
    {
      "midi": 71,
      "hit": false,
      "t": 178571.25,
      "d": 255.9521250000107,
      "v": 93
    },
    {
      "midi": 55,
      "hit": false,
      "t": 178856.964,
      "d": 255.9521250000107,
      "v": 102
    },
    {
      "midi": 62,
      "hit": false,
      "t": 178856.964,
      "d": 255.9521250000107,
      "v": 102
    },
    {
      "midi": 67,
      "hit": false,
      "t": 178856.964,
      "d": 255.9521250000107,
      "v": 102
    },
    {
      "midi": 71,
      "hit": false,
      "t": 178856.964,
      "d": 255.9521250000107,
      "v": 102
    },
    {
      "midi": 55,
      "hit": false,
      "t": 179142.678,
      "d": 255.9521250000107,
      "v": 110
    },
    {
      "midi": 62,
      "hit": false,
      "t": 179142.678,
      "d": 255.9521250000107,
      "v": 110
    },
    {
      "midi": 67,
      "hit": false,
      "t": 179142.678,
      "d": 255.9521250000107,
      "v": 110
    },
    {
      "midi": 71,
      "hit": false,
      "t": 179142.678,
      "d": 255.9521250000107,
      "v": 110
    },
    {
      "midi": 55,
      "hit": false,
      "t": 179428.39200000002,
      "d": 255.9521250000107,
      "v": 119
    },
    {
      "midi": 62,
      "hit": false,
      "t": 179428.39200000002,
      "d": 255.9521250000107,
      "v": 119
    },
    {
      "midi": 67,
      "hit": false,
      "t": 179428.39200000002,
      "d": 255.9521250000107,
      "v": 119
    },
    {
      "midi": 71,
      "hit": false,
      "t": 179428.39200000002,
      "d": 255.9521250000107,
      "v": 119
    },
    {
      "midi": 55,
      "hit": false,
      "t": 179714.10600000003,
      "d": 285.7140000000072,
      "v": 127
    },
    {
      "midi": 62,
      "hit": false,
      "t": 179714.10600000003,
      "d": 285.7140000000072,
      "v": 127
    },
    {
      "midi": 67,
      "hit": false,
      "t": 179714.10600000003,
      "d": 285.7140000000072,
      "v": 127
    },
    {
      "midi": 71,
      "hit": false,
      "t": 179714.10600000003,
      "d": 285.7140000000072,
      "v": 127
    },
    {
      "midi": 57,
      "hit": false,
      "t": 180285.53400000004,
      "d": 2571.4260000000068,
      "v": 127
    },
    {
      "midi": 64,
      "hit": false,
      "t": 180285.53400000004,
      "d": 2571.4260000000068,
      "v": 127
    },
    {
      "midi": 69,
      "hit": false,
      "t": 180285.53400000004,
      "d": 2571.4260000000068,
      "v": 127
    },
    {
      "midi": 73,
      "hit": false,
      "t": 180285.53400000004,
      "d": 2571.4260000000068,
      "v": 127
    },
    {
      "midi": 43,
      "hit": false,
      "t": 182856.96000000005,
      "d": 732.142125000013,
      "v": 108
    },
    {
      "midi": 62,
      "hit": false,
      "t": 182856.96000000005,
      "d": 1452.37950000001,
      "v": 113
    },
    {
      "midi": 67,
      "hit": false,
      "t": 182856.96000000005,
      "d": 1470.2366250000196,
      "v": 113
    },
    {
      "midi": 71,
      "hit": false,
      "t": 182856.96000000005,
      "d": 1470.2366250000196,
      "v": 95
    },
    {
      "midi": 43,
      "hit": false,
      "t": 184285.53000000006,
      "d": 392.8567500000063,
      "v": 108
    },
    {
      "midi": 62,
      "hit": false,
      "t": 184571.24400000006,
      "d": 571.4280000000144,
      "v": 95
    },
    {
      "midi": 67,
      "hit": false,
      "t": 184571.24400000006,
      "d": 571.4280000000144,
      "v": 108
    },
    {
      "midi": 71,
      "hit": false,
      "t": 184571.24400000006,
      "d": 571.4280000000144,
      "v": 90
    },
    {
      "midi": 43,
      "hit": false,
      "t": 184856.95800000007,
      "d": 255.9521250000107,
      "v": 85
    },
    {
      "midi": 45,
      "hit": false,
      "t": 185142.67200000008,
      "d": 1113.0941250000033,
      "v": 108
    },
    {
      "midi": 64,
      "hit": false,
      "t": 185142.67200000008,
      "d": 1113.0941250000033,
      "v": 108
    },
    {
      "midi": 69,
      "hit": false,
      "t": 185142.67200000008,
      "d": 1113.0941250000033,
      "v": 85
    },
    {
      "midi": 73,
      "hit": false,
      "t": 185142.67200000008,
      "d": 1113.0941250000033,
      "v": 98
    },
    {
      "midi": 73,
      "hit": false,
      "t": 186285.52800000008,
      "d": 249.99974999998813,
      "v": 125
    },
    {
      "midi": 45,
      "hit": false,
      "t": 186285.52800000008,
      "d": 541.6661249999888,
      "v": 108
    },
    {
      "midi": 64,
      "hit": false,
      "t": 186285.52800000008,
      "d": 541.6661249999888,
      "v": 108
    },
    {
      "midi": 69,
      "hit": false,
      "t": 186285.52800000008,
      "d": 541.6661249999888,
      "v": 85
    },
    {
      "midi": 74,
      "hit": false,
      "t": 186571.24200000006,
      "d": 232.14262500000768,
      "v": 117
    },
    {
      "midi": 76,
      "hit": false,
      "t": 186856.95600000006,
      "d": 434.52337499998976,
      "v": 117
    },
    {
      "midi": 45,
      "hit": false,
      "t": 186856.95600000006,
      "d": 541.6661249999888,
      "v": 108
    },
    {
      "midi": 64,
      "hit": false,
      "t": 186856.95600000006,
      "d": 541.6661249999888,
      "v": 108
    },
    {
      "midi": 69,
      "hit": false,
      "t": 186856.95600000006,
      "d": 541.6661249999888,
      "v": 85
    },
    {
      "midi": 50,
      "hit": false,
      "t": 187428.38400000005,
      "d": 1113.0941250000033,
      "v": 113
    },
    {
      "midi": 62,
      "hit": false,
      "t": 187428.38400000005,
      "d": 1113.0941250000033,
      "v": 113
    },
    {
      "midi": 69,
      "hit": false,
      "t": 187428.38400000005,
      "d": 1238.0940000000119,
      "v": 113
    },
    {
      "midi": 74,
      "hit": false,
      "t": 187428.38400000005,
      "d": 1428.570000000007,
      "v": 113
    },
    {
      "midi": 78,
      "hit": false,
      "t": 187428.38400000005,
      "d": 1714.2840000000142,
      "v": 113
    },
    {
      "midi": 50,
      "hit": false,
      "t": 188571.24000000005,
      "d": 1160.7131250000093,
      "v": 108
    },
    {
      "midi": 62,
      "hit": false,
      "t": 188571.24000000005,
      "d": 1160.7131250000093,
      "v": 85
    },
    {
      "midi": 69,
      "hit": false,
      "t": 188856.95400000006,
      "d": 874.9991250000021,
      "v": 108
    },
    {
      "midi": 74,
      "hit": false,
      "t": 189142.66800000006,
      "d": 535.7137499999953,
      "v": 111
    },
    {
      "midi": 78,
      "hit": false,
      "t": 189428.38200000007,
      "d": 249.99974999998813,
      "v": 111
    },
    {
      "midi": 74,
      "hit": false,
      "t": 189714.09600000005,
      "d": 749.9992500000226,
      "v": 111
    },
    {
      "midi": 79,
      "hit": false,
      "t": 189714.09600000005,
      "d": 749.9992500000226,
      "v": 111
    },
    {
      "midi": 71,
      "hit": false,
      "t": 189714.09600000005,
      "d": 755.9516250000161,
      "v": 111
    },
    {
      "midi": 55,
      "hit": false,
      "t": 189714.09600000005,
      "d": 1005.9513750000333,
      "v": 111
    },
    {
      "midi": 71,
      "hit": false,
      "t": 190571.23800000007,
      "d": 595.2375000000175,
      "v": 111
    },
    {
      "midi": 74,
      "hit": false,
      "t": 190571.23800000007,
      "d": 1428.570000000007,
      "v": 111
    },
    {
      "midi": 79,
      "hit": false,
      "t": 190571.23800000007,
      "d": 1428.570000000007,
      "v": 111
    },
    {
      "midi": 55,
      "hit": false,
      "t": 190856.95200000008,
      "d": 1142.8559999999998,
      "v": 106
    },
    {
      "midi": 71,
      "hit": false,
      "t": 191428.3800000001,
      "d": 285.7140000000072,
      "v": 113
    },
    {
      "midi": 66,
      "hit": false,
      "t": 191714.0940000001,
      "d": 249.99974999998813,
      "v": 115
    },
    {
      "midi": 52,
      "hit": false,
      "t": 191999.80800000008,
      "d": 732.142125000013,
      "v": 108
    },
    {
      "midi": 74,
      "hit": false,
      "t": 191999.80800000008,
      "d": 1452.37950000001,
      "v": 113
    },
    {
      "midi": 67,
      "hit": false,
      "t": 191999.80800000008,
      "d": 1470.2366250000196,
      "v": 113
    },
    {
      "midi": 71,
      "hit": false,
      "t": 191999.80800000008,
      "d": 1470.2366250000196,
      "v": 95
    },
    {
      "midi": 52,
      "hit": false,
      "t": 193428.37800000008,
      "d": 392.8567500000063,
      "v": 108
    },
    {
      "midi": 67,
      "hit": false,
      "t": 193714.0920000001,
      "d": 571.4280000000144,
      "v": 108
    },
    {
      "midi": 71,
      "hit": false,
      "t": 193714.0920000001,
      "d": 571.4280000000144,
      "v": 90
    },
    {
      "midi": 74,
      "hit": false,
      "t": 193714.0920000001,
      "d": 571.4280000000144,
      "v": 95
    },
    {
      "midi": 52,
      "hit": false,
      "t": 193999.8060000001,
      "d": 255.9521250000107,
      "v": 85
    },
    {
      "midi": 45,
      "hit": false,
      "t": 194285.5200000001,
      "d": 1113.0941250000033,
      "v": 108
    },
    {
      "midi": 64,
      "hit": false,
      "t": 194285.5200000001,
      "d": 1113.0941250000033,
      "v": 108
    },
    {
      "midi": 69,
      "hit": false,
      "t": 194285.5200000001,
      "d": 1113.0941250000033,
      "v": 85
    },
    {
      "midi": 73,
      "hit": false,
      "t": 194285.5200000001,
      "d": 1113.0941250000033,
      "v": 98
    },
    {
      "midi": 73,
      "hit": false,
      "t": 195428.3760000001,
      "d": 249.99974999998813,
      "v": 125
    },
    {
      "midi": 45,
      "hit": false,
      "t": 195428.3760000001,
      "d": 541.6661249999888,
      "v": 108
    },
    {
      "midi": 64,
      "hit": false,
      "t": 195428.3760000001,
      "d": 541.6661249999888,
      "v": 108
    },
    {
      "midi": 69,
      "hit": false,
      "t": 195428.3760000001,
      "d": 541.6661249999888,
      "v": 85
    },
    {
      "midi": 74,
      "hit": false,
      "t": 195714.09000000008,
      "d": 232.14262500000768,
      "v": 117
    },
    {
      "midi": 76,
      "hit": false,
      "t": 195999.8040000001,
      "d": 434.52337499998976,
      "v": 117
    },
    {
      "midi": 45,
      "hit": false,
      "t": 195999.8040000001,
      "d": 541.6661249999888,
      "v": 108
    },
    {
      "midi": 64,
      "hit": false,
      "t": 195999.8040000001,
      "d": 541.6661249999888,
      "v": 108
    },
    {
      "midi": 69,
      "hit": false,
      "t": 195999.8040000001,
      "d": 541.6661249999888,
      "v": 85
    },
    {
      "midi": 50,
      "hit": false,
      "t": 196571.23200000008,
      "d": 1113.0941250000033,
      "v": 113
    },
    {
      "midi": 62,
      "hit": false,
      "t": 196571.23200000008,
      "d": 1113.0941250000033,
      "v": 113
    },
    {
      "midi": 69,
      "hit": false,
      "t": 196571.23200000008,
      "d": 1238.0940000000119,
      "v": 113
    },
    {
      "midi": 74,
      "hit": false,
      "t": 196571.23200000008,
      "d": 1428.570000000007,
      "v": 113
    },
    {
      "midi": 78,
      "hit": false,
      "t": 196571.23200000008,
      "d": 1714.2840000000142,
      "v": 113
    },
    {
      "midi": 50,
      "hit": false,
      "t": 197714.08800000008,
      "d": 1160.7131250000093,
      "v": 108
    },
    {
      "midi": 62,
      "hit": false,
      "t": 197714.08800000008,
      "d": 1160.7131250000093,
      "v": 85
    },
    {
      "midi": 69,
      "hit": false,
      "t": 197999.80200000008,
      "d": 874.9991250000021,
      "v": 108
    },
    {
      "midi": 74,
      "hit": false,
      "t": 198285.5160000001,
      "d": 535.7137499999953,
      "v": 111
    },
    {
      "midi": 78,
      "hit": false,
      "t": 198571.2300000001,
      "d": 249.99974999998813,
      "v": 111
    },
    {
      "midi": 74,
      "hit": false,
      "t": 198856.94400000008,
      "d": 749.9992500000226,
      "v": 111
    },
    {
      "midi": 79,
      "hit": false,
      "t": 198856.94400000008,
      "d": 749.9992500000226,
      "v": 111
    },
    {
      "midi": 71,
      "hit": false,
      "t": 198856.94400000008,
      "d": 755.9516250000161,
      "v": 111
    },
    {
      "midi": 55,
      "hit": false,
      "t": 198856.94400000008,
      "d": 1005.9513750000333,
      "v": 111
    },
    {
      "midi": 71,
      "hit": false,
      "t": 199714.0860000001,
      "d": 595.2375000000175,
      "v": 111
    },
    {
      "midi": 74,
      "hit": false,
      "t": 199714.0860000001,
      "d": 1428.570000000007,
      "v": 111
    },
    {
      "midi": 79,
      "hit": false,
      "t": 199714.0860000001,
      "d": 1428.570000000007,
      "v": 111
    },
    {
      "midi": 55,
      "hit": false,
      "t": 199999.8000000001,
      "d": 1142.8559999999998,
      "v": 106
    },
    {
      "midi": 71,
      "hit": false,
      "t": 200571.22800000012,
      "d": 285.7140000000072,
      "v": 113
    },
    {
      "midi": 66,
      "hit": false,
      "t": 200856.94200000013,
      "d": 249.99974999998813,
      "v": 115
    },
    {
      "midi": 52,
      "hit": false,
      "t": 201142.6560000001,
      "d": 732.142125000013,
      "v": 108
    },
    {
      "midi": 74,
      "hit": false,
      "t": 201142.6560000001,
      "d": 1452.37950000001,
      "v": 113
    },
    {
      "midi": 67,
      "hit": false,
      "t": 201142.6560000001,
      "d": 1470.2366250000196,
      "v": 113
    },
    {
      "midi": 71,
      "hit": false,
      "t": 201142.6560000001,
      "d": 1470.2366250000196,
      "v": 95
    },
    {
      "midi": 52,
      "hit": false,
      "t": 202571.2260000001,
      "d": 392.8567500000063,
      "v": 108
    },
    {
      "midi": 67,
      "hit": false,
      "t": 202856.94000000012,
      "d": 571.4280000000144,
      "v": 108
    },
    {
      "midi": 71,
      "hit": false,
      "t": 202856.94000000012,
      "d": 571.4280000000144,
      "v": 90
    },
    {
      "midi": 74,
      "hit": false,
      "t": 202856.94000000012,
      "d": 571.4280000000144,
      "v": 95
    },
    {
      "midi": 52,
      "hit": false,
      "t": 203142.65400000013,
      "d": 255.9521250000107,
      "v": 85
    },
    {
      "midi": 45,
      "hit": false,
      "t": 203428.36800000013,
      "d": 1113.0941250000033,
      "v": 108
    },
    {
      "midi": 64,
      "hit": false,
      "t": 203428.36800000013,
      "d": 1113.0941250000033,
      "v": 108
    },
    {
      "midi": 69,
      "hit": false,
      "t": 203428.36800000013,
      "d": 1113.0941250000033,
      "v": 85
    },
    {
      "midi": 73,
      "hit": false,
      "t": 203428.36800000013,
      "d": 1113.0941250000033,
      "v": 98
    },
    {
      "midi": 73,
      "hit": false,
      "t": 204571.22400000013,
      "d": 249.99974999998813,
      "v": 125
    },
    {
      "midi": 45,
      "hit": false,
      "t": 204571.22400000013,
      "d": 541.6661249999888,
      "v": 108
    },
    {
      "midi": 64,
      "hit": false,
      "t": 204571.22400000013,
      "d": 541.6661249999888,
      "v": 108
    },
    {
      "midi": 69,
      "hit": false,
      "t": 204571.22400000013,
      "d": 541.6661249999888,
      "v": 85
    },
    {
      "midi": 74,
      "hit": false,
      "t": 204856.9380000001,
      "d": 232.14262500000768,
      "v": 117
    },
    {
      "midi": 76,
      "hit": false,
      "t": 205142.65200000012,
      "d": 434.52337499998976,
      "v": 117
    },
    {
      "midi": 45,
      "hit": false,
      "t": 205142.65200000012,
      "d": 541.6661249999888,
      "v": 108
    },
    {
      "midi": 64,
      "hit": false,
      "t": 205142.65200000012,
      "d": 541.6661249999888,
      "v": 108
    },
    {
      "midi": 69,
      "hit": false,
      "t": 205142.65200000012,
      "d": 541.6661249999888,
      "v": 85
    },
    {
      "midi": 50,
      "hit": false,
      "t": 205714.0800000001,
      "d": 1113.0941250000033,
      "v": 113
    },
    {
      "midi": 62,
      "hit": false,
      "t": 205714.0800000001,
      "d": 1113.0941250000033,
      "v": 113
    },
    {
      "midi": 69,
      "hit": false,
      "t": 205714.0800000001,
      "d": 1238.0940000000119,
      "v": 113
    },
    {
      "midi": 74,
      "hit": false,
      "t": 205714.0800000001,
      "d": 1428.570000000007,
      "v": 113
    },
    {
      "midi": 78,
      "hit": false,
      "t": 205714.0800000001,
      "d": 1714.2840000000142,
      "v": 113
    },
    {
      "midi": 50,
      "hit": false,
      "t": 206856.9360000001,
      "d": 1160.7131250000093,
      "v": 108
    },
    {
      "midi": 62,
      "hit": false,
      "t": 206856.9360000001,
      "d": 1160.7131250000093,
      "v": 85
    },
    {
      "midi": 69,
      "hit": false,
      "t": 207142.6500000001,
      "d": 874.9991250000021,
      "v": 108
    },
    {
      "midi": 74,
      "hit": false,
      "t": 207428.36400000012,
      "d": 535.7137499999953,
      "v": 111
    },
    {
      "midi": 78,
      "hit": false,
      "t": 207714.07800000013,
      "d": 249.99974999998813,
      "v": 111
    },
    {
      "midi": 74,
      "hit": false,
      "t": 207999.7920000001,
      "d": 749.9992500000226,
      "v": 111
    },
    {
      "midi": 79,
      "hit": false,
      "t": 207999.7920000001,
      "d": 749.9992500000226,
      "v": 111
    },
    {
      "midi": 71,
      "hit": false,
      "t": 207999.7920000001,
      "d": 755.9516250000161,
      "v": 111
    },
    {
      "midi": 55,
      "hit": false,
      "t": 207999.7920000001,
      "d": 1005.9513750000333,
      "v": 111
    },
    {
      "midi": 71,
      "hit": false,
      "t": 208856.93400000012,
      "d": 595.2375000000175,
      "v": 111
    },
    {
      "midi": 74,
      "hit": false,
      "t": 208856.93400000012,
      "d": 1428.570000000007,
      "v": 111
    },
    {
      "midi": 79,
      "hit": false,
      "t": 208856.93400000012,
      "d": 1428.570000000007,
      "v": 111
    },
    {
      "midi": 55,
      "hit": false,
      "t": 209142.64800000013,
      "d": 1142.8559999999998,
      "v": 106
    },
    {
      "midi": 71,
      "hit": false,
      "t": 209714.07600000015,
      "d": 285.7140000000072,
      "v": 113
    },
    {
      "midi": 66,
      "hit": false,
      "t": 209999.79000000015,
      "d": 249.99974999998813,
      "v": 115
    },
    {
      "midi": 66,
      "hit": false,
      "t": 210285.50400000013,
      "d": 624.999375000014,
      "v": 98
    },
    {
      "midi": 62,
      "hit": false,
      "t": 210285.50400000013,
      "d": 630.9517500000075,
      "v": 95
    },
    {
      "midi": 57,
      "hit": false,
      "t": 210285.50400000013,
      "d": 642.8564999999944,
      "v": 90
    },
    {
      "midi": 38,
      "hit": false,
      "t": 210285.50400000013,
      "d": 898.8086250000051,
      "v": 95
    },
    {
      "midi": 66,
      "hit": false,
      "t": 211142.64600000012,
      "d": 702.3802500000165,
      "v": 91
    },
    {
      "midi": 57,
      "hit": false,
      "t": 211142.64600000012,
      "d": 726.1897500000196,
      "v": 81
    },
    {
      "midi": 62,
      "hit": false,
      "t": 211142.64600000012,
      "d": 726.1897500000196,
      "v": 90
    },
    {
      "midi": 38,
      "hit": false,
      "t": 211428.36000000013,
      "d": 672.61837500002,
      "v": 90
    },
    {
      "midi": 66,
      "hit": false,
      "t": 211999.78800000015,
      "d": 999.9990000000107,
      "v": 77
    },
    {
      "midi": 57,
      "hit": false,
      "t": 211999.78800000015,
      "d": 1017.8561250000203,
      "v": 69
    },
    {
      "midi": 62,
      "hit": false,
      "t": 211999.78800000015,
      "d": 1017.8561250000203,
      "v": 85
    },
    {
      "midi": 38,
      "hit": false,
      "t": 212285.50200000015,
      "d": 124.99987500000861,
      "v": 72
    },
    {
      "midi": 38,
      "hit": false,
      "t": 212571.21600000016,
      "d": 690.4755000000005,
      "v": 85
    },
    {
      "midi": 57,
      "hit": false,
      "t": 213142.64400000017,
      "d": 386.9043749999837,
      "v": 81
    },
    {
      "midi": 62,
      "hit": false,
      "t": 213142.64400000017,
      "d": 392.8567499999772,
      "v": 74
    },
    {
      "midi": 66,
      "hit": false,
      "t": 213142.64400000017,
      "d": 410.71387499998673,
      "v": 85
    },
    {
      "midi": 38,
      "hit": false,
      "t": 213428.35800000015,
      "d": 142.85700000001816,
      "v": 95
    },
    {
      "midi": 57,
      "hit": false,
      "t": 213714.07200000016,
      "d": 482.1423749999958,
      "v": 90
    },
    {
      "midi": 61,
      "hit": false,
      "t": 213714.07200000016,
      "d": 482.1423749999958,
      "v": 106
    },
    {
      "midi": 64,
      "hit": false,
      "t": 213714.07200000016,
      "d": 499.99950000000536,
      "v": 77
    },
    {
      "midi": 37,
      "hit": false,
      "t": 213714.07200000016,
      "d": 690.4755000000005,
      "v": 85
    },
    {
      "midi": 57,
      "hit": false,
      "t": 214285.50000000017,
      "d": 333.33299999998417,
      "v": 72
    },
    {
      "midi": 61,
      "hit": false,
      "t": 214285.50000000017,
      "d": 369.04724999997416,
      "v": 77
    },
    {
      "midi": 64,
      "hit": false,
      "t": 214285.50000000017,
      "d": 369.04724999997416,
      "v": 60
    },
    {
      "midi": 37,
      "hit": false,
      "t": 214571.21400000015,
      "d": 160.7141249999986,
      "v": 106
    },
    {
      "midi": 66,
      "hit": false,
      "t": 214856.92800000016,
      "d": 684.523125000007,
      "v": 106
    },
    {
      "midi": 57,
      "hit": false,
      "t": 214856.92800000016,
      "d": 702.3802500000165,
      "v": 81
    },
    {
      "midi": 62,
      "hit": false,
      "t": 214856.92800000016,
      "d": 702.3802500000165,
      "v": 72
    },
    {
      "midi": 35,
      "hit": false,
      "t": 214856.92800000016,
      "d": 928.5705000000307,
      "v": 81
    },
    {
      "midi": 66,
      "hit": false,
      "t": 215714.07000000018,
      "d": 672.61837500002,
      "v": 81
    },
    {
      "midi": 57,
      "hit": false,
      "t": 215714.07000000018,
      "d": 678.5707500000135,
      "v": 60
    },
    {
      "midi": 62,
      "hit": false,
      "t": 215714.07000000018,
      "d": 678.5707500000135,
      "v": 77
    },
    {
      "midi": 47,
      "hit": false,
      "t": 215999.7840000002,
      "d": 648.808875000017,
      "v": 95
    },
    {
      "midi": 62,
      "hit": false,
      "t": 216571.2120000002,
      "d": 988.0942500000237,
      "v": 72
    },
    {
      "midi": 66,
      "hit": false,
      "t": 216571.2120000002,
      "d": 994.0466250000172,
      "v": 85
    },
    {
      "midi": 57,
      "hit": false,
      "t": 216571.2120000002,
      "d": 1005.9513750000042,
      "v": 72
    },
    {
      "midi": 47,
      "hit": false,
      "t": 216856.9260000002,
      "d": 136.90462499999558,
      "v": 102
    },
    {
      "midi": 47,
      "hit": false,
      "t": 217142.64000000022,
      "d": 648.8088749999879,
      "v": 74
    },
    {
      "midi": 62,
      "hit": false,
      "t": 217714.0680000002,
      "d": 327.3806250000198,
      "v": 81
    },
    {
      "midi": 66,
      "hit": false,
      "t": 217714.0680000002,
      "d": 327.3806250000198,
      "v": 91
    },
    {
      "midi": 57,
      "hit": false,
      "t": 217714.0680000002,
      "d": 333.33300000001327,
      "v": 77
    },
    {
      "midi": 47,
      "hit": false,
      "t": 217999.7820000002,
      "d": 172.61887500001467,
      "v": 90
    },
    {
      "midi": 57,
      "hit": false,
      "t": 218285.49600000022,
      "d": 511.9042499999923,
      "v": 102
    },
    {
      "midi": 64,
      "hit": false,
      "t": 218285.49600000022,
      "d": 511.9042499999923,
      "v": 81
    },
    {
      "midi": 61,
      "hit": false,
      "t": 218285.49600000022,
      "d": 517.8566249999858,
      "v": 98
    },
    {
      "midi": 45,
      "hit": false,
      "t": 218285.49600000022,
      "d": 714.2849999999744,
      "v": 95
    },
    {
      "midi": 57,
      "hit": false,
      "t": 218856.9240000002,
      "d": 363.0948749999807,
      "v": 69
    },
    {
      "midi": 64,
      "hit": false,
      "t": 218856.9240000002,
      "d": 380.9519999999902,
      "v": 69
    },
    {
      "midi": 61,
      "hit": false,
      "t": 218856.9240000002,
      "d": 398.80912499999977,
      "v": 81
    },
    {
      "midi": 45,
      "hit": false,
      "t": 219142.63800000018,
      "d": 238.09500000003027,
      "v": 90
    },
    {
      "midi": 66,
      "hit": false,
      "t": 219428.35200000022,
      "d": 624.999375000014,
      "v": 91
    },
    {
      "midi": 57,
      "hit": false,
      "t": 219428.35200000022,
      "d": 642.8565000000235,
      "v": 90
    },
    {
      "midi": 62,
      "hit": false,
      "t": 219428.35200000022,
      "d": 642.8565000000235,
      "v": 77
    },
    {
      "midi": 50,
      "hit": false,
      "t": 219428.35200000022,
      "d": 845.2372500000347,
      "v": 95
    },
    {
      "midi": 62,
      "hit": false,
      "t": 220285.49400000024,
      "d": 708.33262500001,
      "v": 77
    },
    {
      "midi": 66,
      "hit": false,
      "t": 220285.49400000024,
      "d": 708.33262500001,
      "v": 85
    },
    {
      "midi": 57,
      "hit": false,
      "t": 220285.49400000024,
      "d": 720.237374999997,
      "v": 69
    },
    {
      "midi": 66,
      "hit": false,
      "t": 221142.63600000023,
      "d": 958.3323750000272,
      "v": 91
    },
    {
      "midi": 62,
      "hit": false,
      "t": 221142.63600000023,
      "d": 970.2371250000142,
      "v": 85
    },
    {
      "midi": 50,
      "hit": false,
      "t": 221428.35000000024,
      "d": 107.14274999999907,
      "v": 90
    },
    {
      "midi": 50,
      "hit": false,
      "t": 221714.06400000025,
      "d": 648.8088749999879,
      "v": 95
    },
    {
      "midi": 76,
      "hit": false,
      "t": 221999.77800000025,
      "d": 285.7139999999781,
      "v": 127
    },
    {
      "midi": 79,
      "hit": false,
      "t": 221999.77800000025,
      "d": 285.7139999999781,
      "v": 127
    },
    {
      "midi": 78,
      "hit": false,
      "t": 222285.49200000023,
      "d": 285.7140000000072,
      "v": 127
    },
    {
      "midi": 81,
      "hit": false,
      "t": 222285.49200000023,
      "d": 285.7140000000072,
      "v": 127
    },
    {
      "midi": 57,
      "hit": false,
      "t": 222285.49200000023,
      "d": 958.3323750000272,
      "v": 60
    },
    {
      "midi": 66,
      "hit": false,
      "t": 222285.49200000023,
      "d": 958.3323750000272,
      "v": 77
    },
    {
      "midi": 62,
      "hit": false,
      "t": 222285.49200000023,
      "d": 976.1895000000368,
      "v": 77
    },
    {
      "midi": 50,
      "hit": false,
      "t": 222571.20600000024,
      "d": 107.14274999999907,
      "v": 85
    },
    {
      "midi": 76,
      "hit": false,
      "t": 222571.20600000024,
      "d": 285.7140000000072,
      "v": 127
    },
    {
      "midi": 79,
      "hit": false,
      "t": 222571.20600000024,
      "d": 285.7140000000072,
      "v": 127
    },
    {
      "midi": 78,
      "hit": false,
      "t": 222856.92000000025,
      "d": 571.4280000000144,
      "v": 127
    },
    {
      "midi": 81,
      "hit": false,
      "t": 222856.92000000025,
      "d": 571.4280000000144,
      "v": 127
    },
    {
      "midi": 50,
      "hit": false,
      "t": 222856.92000000025,
      "d": 1124.9988750000193,
      "v": 90
    },
    {
      "midi": 57,
      "hit": false,
      "t": 223428.34800000026,
      "d": 559.5232499999984,
      "v": 90
    },
    {
      "midi": 62,
      "hit": false,
      "t": 223428.34800000026,
      "d": 559.5232499999984,
      "v": 95
    },
    {
      "midi": 66,
      "hit": false,
      "t": 223428.34800000026,
      "d": 559.5232499999984,
      "v": 98
    },
    {
      "midi": 76,
      "hit": false,
      "t": 223428.34800000026,
      "d": 571.4279999999853,
      "v": 127
    },
    {
      "midi": 79,
      "hit": false,
      "t": 223428.34800000026,
      "d": 571.4279999999853,
      "v": 127
    },
    {
      "midi": 43,
      "hit": false,
      "t": 223999.77600000025,
      "d": 732.142125000013,
      "v": 108
    },
    {
      "midi": 74,
      "hit": false,
      "t": 223999.77600000025,
      "d": 1452.37950000001,
      "v": 113
    },
    {
      "midi": 71,
      "hit": false,
      "t": 223999.77600000025,
      "d": 1470.2366250000196,
      "v": 95
    },
    {
      "midi": 79,
      "hit": false,
      "t": 223999.77600000025,
      "d": 1470.2366250000196,
      "v": 113
    },
    {
      "midi": 43,
      "hit": false,
      "t": 225428.34600000025,
      "d": 392.8567500000063,
      "v": 108
    },
    {
      "midi": 71,
      "hit": false,
      "t": 225714.06000000026,
      "d": 571.4280000000144,
      "v": 90
    },
    {
      "midi": 74,
      "hit": false,
      "t": 225714.06000000026,
      "d": 571.4280000000144,
      "v": 95
    },
    {
      "midi": 79,
      "hit": false,
      "t": 225714.06000000026,
      "d": 571.4280000000144,
      "v": 108
    },
    {
      "midi": 43,
      "hit": false,
      "t": 225999.77400000027,
      "d": 255.9521250000107,
      "v": 85
    },
    {
      "midi": 45,
      "hit": false,
      "t": 226285.48800000027,
      "d": 1113.0941250000033,
      "v": 108
    },
    {
      "midi": 69,
      "hit": false,
      "t": 226285.48800000027,
      "d": 1113.0941250000033,
      "v": 85
    },
    {
      "midi": 73,
      "hit": false,
      "t": 226285.48800000027,
      "d": 1113.0941250000033,
      "v": 98
    },
    {
      "midi": 76,
      "hit": false,
      "t": 226285.48800000027,
      "d": 1113.0941250000033,
      "v": 108
    },
    {
      "midi": 73,
      "hit": false,
      "t": 227428.34400000027,
      "d": 249.99974999998813,
      "v": 125
    },
    {
      "midi": 45,
      "hit": false,
      "t": 227428.34400000027,
      "d": 541.6661249999888,
      "v": 108
    },
    {
      "midi": 64,
      "hit": false,
      "t": 227428.34400000027,
      "d": 541.6661249999888,
      "v": 108
    },
    {
      "midi": 69,
      "hit": false,
      "t": 227428.34400000027,
      "d": 541.6661249999888,
      "v": 85
    },
    {
      "midi": 74,
      "hit": false,
      "t": 227714.05800000025,
      "d": 232.14262500000768,
      "v": 117
    },
    {
      "midi": 76,
      "hit": false,
      "t": 227999.77200000026,
      "d": 434.52337499998976,
      "v": 117
    },
    {
      "midi": 45,
      "hit": false,
      "t": 227999.77200000026,
      "d": 541.6661249999888,
      "v": 108
    },
    {
      "midi": 64,
      "hit": false,
      "t": 227999.77200000026,
      "d": 541.6661249999888,
      "v": 108
    },
    {
      "midi": 69,
      "hit": false,
      "t": 227999.77200000026,
      "d": 541.6661249999888,
      "v": 85
    },
    {
      "midi": 50,
      "hit": false,
      "t": 228571.20000000024,
      "d": 1113.0941250000033,
      "v": 113
    },
    {
      "midi": 62,
      "hit": false,
      "t": 228571.20000000024,
      "d": 1113.0941250000033,
      "v": 113
    },
    {
      "midi": 69,
      "hit": false,
      "t": 228571.20000000024,
      "d": 1238.0940000000119,
      "v": 113
    },
    {
      "midi": 74,
      "hit": false,
      "t": 228571.20000000024,
      "d": 1428.570000000007,
      "v": 113
    },
    {
      "midi": 78,
      "hit": false,
      "t": 228571.20000000024,
      "d": 1714.2840000000142,
      "v": 113
    },
    {
      "midi": 50,
      "hit": false,
      "t": 229714.05600000024,
      "d": 1160.7131250000093,
      "v": 108
    },
    {
      "midi": 62,
      "hit": false,
      "t": 229714.05600000024,
      "d": 1160.7131250000093,
      "v": 85
    },
    {
      "midi": 69,
      "hit": false,
      "t": 229999.77000000025,
      "d": 874.9991250000021,
      "v": 108
    },
    {
      "midi": 74,
      "hit": false,
      "t": 230285.48400000026,
      "d": 535.7137499999953,
      "v": 111
    },
    {
      "midi": 78,
      "hit": false,
      "t": 230571.19800000027,
      "d": 249.99974999998813,
      "v": 111
    },
    {
      "midi": 74,
      "hit": false,
      "t": 230856.91200000024,
      "d": 749.9992500000226,
      "v": 111
    },
    {
      "midi": 79,
      "hit": false,
      "t": 230856.91200000024,
      "d": 749.9992500000226,
      "v": 111
    },
    {
      "midi": 71,
      "hit": false,
      "t": 230856.91200000024,
      "d": 755.9516250000161,
      "v": 111
    },
    {
      "midi": 55,
      "hit": false,
      "t": 230856.91200000024,
      "d": 1005.9513750000333,
      "v": 111
    },
    {
      "midi": 71,
      "hit": false,
      "t": 231714.05400000027,
      "d": 595.2375000000175,
      "v": 111
    },
    {
      "midi": 74,
      "hit": false,
      "t": 231714.05400000027,
      "d": 1428.570000000007,
      "v": 111
    },
    {
      "midi": 79,
      "hit": false,
      "t": 231714.05400000027,
      "d": 1428.570000000007,
      "v": 111
    },
    {
      "midi": 55,
      "hit": false,
      "t": 231999.76800000027,
      "d": 1142.8559999999998,
      "v": 106
    },
    {
      "midi": 71,
      "hit": false,
      "t": 232571.1960000003,
      "d": 285.7140000000072,
      "v": 113
    },
    {
      "midi": 66,
      "hit": false,
      "t": 232856.9100000003,
      "d": 249.99974999998813,
      "v": 115
    },
    {
      "midi": 52,
      "hit": false,
      "t": 233142.62400000027,
      "d": 732.142125000013,
      "v": 108
    },
    {
      "midi": 74,
      "hit": false,
      "t": 233142.62400000027,
      "d": 1452.37950000001,
      "v": 113
    },
    {
      "midi": 67,
      "hit": false,
      "t": 233142.62400000027,
      "d": 1470.2366250000196,
      "v": 113
    },
    {
      "midi": 71,
      "hit": false,
      "t": 233142.62400000027,
      "d": 1470.2366250000196,
      "v": 95
    },
    {
      "midi": 52,
      "hit": false,
      "t": 234571.19400000028,
      "d": 392.8567500000063,
      "v": 108
    },
    {
      "midi": 67,
      "hit": false,
      "t": 234856.9080000003,
      "d": 571.4280000000144,
      "v": 108
    },
    {
      "midi": 71,
      "hit": false,
      "t": 234856.9080000003,
      "d": 571.4280000000144,
      "v": 90
    },
    {
      "midi": 74,
      "hit": false,
      "t": 234856.9080000003,
      "d": 571.4280000000144,
      "v": 95
    },
    {
      "midi": 52,
      "hit": false,
      "t": 235142.6220000003,
      "d": 255.9521250000107,
      "v": 85
    },
    {
      "midi": 45,
      "hit": false,
      "t": 235428.3360000003,
      "d": 1113.0941250000033,
      "v": 108
    },
    {
      "midi": 64,
      "hit": false,
      "t": 235428.3360000003,
      "d": 1113.0941250000033,
      "v": 108
    },
    {
      "midi": 69,
      "hit": false,
      "t": 235428.3360000003,
      "d": 1113.0941250000033,
      "v": 85
    },
    {
      "midi": 73,
      "hit": false,
      "t": 235428.3360000003,
      "d": 1113.0941250000033,
      "v": 98
    },
    {
      "midi": 73,
      "hit": false,
      "t": 236571.1920000003,
      "d": 249.99974999998813,
      "v": 125
    },
    {
      "midi": 45,
      "hit": false,
      "t": 236571.1920000003,
      "d": 541.6661249999888,
      "v": 108
    },
    {
      "midi": 64,
      "hit": false,
      "t": 236571.1920000003,
      "d": 541.6661249999888,
      "v": 108
    },
    {
      "midi": 69,
      "hit": false,
      "t": 236571.1920000003,
      "d": 541.6661249999888,
      "v": 85
    },
    {
      "midi": 74,
      "hit": false,
      "t": 236856.90600000028,
      "d": 232.14262500000768,
      "v": 117
    },
    {
      "midi": 76,
      "hit": false,
      "t": 237142.6200000003,
      "d": 434.52337499998976,
      "v": 117
    },
    {
      "midi": 45,
      "hit": false,
      "t": 237142.6200000003,
      "d": 541.6661249999888,
      "v": 108
    },
    {
      "midi": 64,
      "hit": false,
      "t": 237142.6200000003,
      "d": 541.6661249999888,
      "v": 108
    },
    {
      "midi": 69,
      "hit": false,
      "t": 237142.6200000003,
      "d": 541.6661249999888,
      "v": 85
    },
    {
      "midi": 50,
      "hit": false,
      "t": 237714.04800000027,
      "d": 1113.0941250000033,
      "v": 113
    },
    {
      "midi": 62,
      "hit": false,
      "t": 237714.04800000027,
      "d": 1113.0941250000033,
      "v": 113
    },
    {
      "midi": 69,
      "hit": false,
      "t": 237714.04800000027,
      "d": 1238.0940000000119,
      "v": 113
    },
    {
      "midi": 74,
      "hit": false,
      "t": 237714.04800000027,
      "d": 1428.570000000007,
      "v": 113
    },
    {
      "midi": 78,
      "hit": false,
      "t": 237714.04800000027,
      "d": 1714.2840000000142,
      "v": 113
    },
    {
      "midi": 50,
      "hit": false,
      "t": 238856.90400000027,
      "d": 1160.7131250000093,
      "v": 108
    },
    {
      "midi": 62,
      "hit": false,
      "t": 238856.90400000027,
      "d": 1160.7131250000093,
      "v": 85
    },
    {
      "midi": 69,
      "hit": false,
      "t": 239142.61800000028,
      "d": 874.9991250000021,
      "v": 108
    },
    {
      "midi": 74,
      "hit": false,
      "t": 239428.3320000003,
      "d": 535.7137499999953,
      "v": 111
    },
    {
      "midi": 78,
      "hit": false,
      "t": 239714.0460000003,
      "d": 249.99974999998813,
      "v": 111
    },
    {
      "midi": 74,
      "hit": false,
      "t": 239999.76000000027,
      "d": 749.9992500000226,
      "v": 111
    },
    {
      "midi": 79,
      "hit": false,
      "t": 239999.76000000027,
      "d": 749.9992500000226,
      "v": 111
    },
    {
      "midi": 71,
      "hit": false,
      "t": 239999.76000000027,
      "d": 755.9516250000161,
      "v": 111
    },
    {
      "midi": 55,
      "hit": false,
      "t": 239999.76000000027,
      "d": 1005.9513750000333,
      "v": 111
    },
    {
      "midi": 71,
      "hit": false,
      "t": 240856.9020000003,
      "d": 595.2375000000175,
      "v": 111
    },
    {
      "midi": 74,
      "hit": false,
      "t": 240856.9020000003,
      "d": 1428.570000000007,
      "v": 111
    },
    {
      "midi": 79,
      "hit": false,
      "t": 240856.9020000003,
      "d": 1428.570000000007,
      "v": 111
    },
    {
      "midi": 55,
      "hit": false,
      "t": 241142.6160000003,
      "d": 1142.8559999999998,
      "v": 106
    },
    {
      "midi": 71,
      "hit": false,
      "t": 241714.04400000031,
      "d": 285.7140000000072,
      "v": 113
    },
    {
      "midi": 66,
      "hit": false,
      "t": 241999.75800000032,
      "d": 249.99974999998813,
      "v": 115
    },
    {
      "midi": 52,
      "hit": false,
      "t": 242285.4720000003,
      "d": 732.142125000013,
      "v": 108
    },
    {
      "midi": 74,
      "hit": false,
      "t": 242285.4720000003,
      "d": 1452.37950000001,
      "v": 113
    },
    {
      "midi": 67,
      "hit": false,
      "t": 242285.4720000003,
      "d": 1470.2366250000196,
      "v": 113
    },
    {
      "midi": 71,
      "hit": false,
      "t": 242285.4720000003,
      "d": 1470.2366250000196,
      "v": 95
    },
    {
      "midi": 52,
      "hit": false,
      "t": 243714.0420000003,
      "d": 392.8567500000063,
      "v": 108
    },
    {
      "midi": 67,
      "hit": false,
      "t": 243999.7560000003,
      "d": 571.4280000000144,
      "v": 108
    },
    {
      "midi": 71,
      "hit": false,
      "t": 243999.7560000003,
      "d": 571.4280000000144,
      "v": 90
    },
    {
      "midi": 74,
      "hit": false,
      "t": 243999.7560000003,
      "d": 571.4280000000144,
      "v": 95
    },
    {
      "midi": 52,
      "hit": false,
      "t": 244285.47000000032,
      "d": 255.9521250000107,
      "v": 85
    },
    {
      "midi": 45,
      "hit": false,
      "t": 244571.18400000033,
      "d": 1113.0941250000033,
      "v": 108
    },
    {
      "midi": 64,
      "hit": false,
      "t": 244571.18400000033,
      "d": 1113.0941250000033,
      "v": 108
    },
    {
      "midi": 69,
      "hit": false,
      "t": 244571.18400000033,
      "d": 1113.0941250000033,
      "v": 85
    },
    {
      "midi": 73,
      "hit": false,
      "t": 244571.18400000033,
      "d": 1113.0941250000033,
      "v": 98
    },
    {
      "midi": 73,
      "hit": false,
      "t": 245714.04000000033,
      "d": 249.99974999998813,
      "v": 125
    },
    {
      "midi": 45,
      "hit": false,
      "t": 245714.04000000033,
      "d": 541.6661249999888,
      "v": 108
    },
    {
      "midi": 64,
      "hit": false,
      "t": 245714.04000000033,
      "d": 541.6661249999888,
      "v": 108
    },
    {
      "midi": 69,
      "hit": false,
      "t": 245714.04000000033,
      "d": 541.6661249999888,
      "v": 85
    },
    {
      "midi": 74,
      "hit": false,
      "t": 245999.7540000003,
      "d": 232.14262500000768,
      "v": 117
    },
    {
      "midi": 76,
      "hit": false,
      "t": 246285.4680000003,
      "d": 434.52337499998976,
      "v": 117
    },
    {
      "midi": 45,
      "hit": false,
      "t": 246285.4680000003,
      "d": 541.6661249999888,
      "v": 108
    },
    {
      "midi": 64,
      "hit": false,
      "t": 246285.4680000003,
      "d": 541.6661249999888,
      "v": 108
    },
    {
      "midi": 69,
      "hit": false,
      "t": 246285.4680000003,
      "d": 541.6661249999888,
      "v": 85
    },
    {
      "midi": 50,
      "hit": false,
      "t": 246856.8960000003,
      "d": 1113.0941250000033,
      "v": 113
    },
    {
      "midi": 62,
      "hit": false,
      "t": 246856.8960000003,
      "d": 1113.0941250000033,
      "v": 113
    },
    {
      "midi": 69,
      "hit": false,
      "t": 246856.8960000003,
      "d": 1238.0940000000119,
      "v": 113
    },
    {
      "midi": 74,
      "hit": false,
      "t": 246856.8960000003,
      "d": 1428.570000000007,
      "v": 113
    },
    {
      "midi": 78,
      "hit": false,
      "t": 246856.8960000003,
      "d": 1714.2840000000142,
      "v": 113
    },
    {
      "midi": 50,
      "hit": false,
      "t": 247999.7520000003,
      "d": 1160.7131250000093,
      "v": 108
    },
    {
      "midi": 62,
      "hit": false,
      "t": 247999.7520000003,
      "d": 1160.7131250000093,
      "v": 85
    },
    {
      "midi": 69,
      "hit": false,
      "t": 248285.4660000003,
      "d": 874.9991250000021,
      "v": 108
    },
    {
      "midi": 74,
      "hit": false,
      "t": 248571.1800000003,
      "d": 535.7137499999953,
      "v": 111
    },
    {
      "midi": 78,
      "hit": false,
      "t": 248856.89400000032,
      "d": 249.99974999998813,
      "v": 111
    },
    {
      "midi": 74,
      "hit": false,
      "t": 249142.6080000003,
      "d": 749.9992500000226,
      "v": 111
    },
    {
      "midi": 79,
      "hit": false,
      "t": 249142.6080000003,
      "d": 749.9992500000226,
      "v": 111
    },
    {
      "midi": 71,
      "hit": false,
      "t": 249142.6080000003,
      "d": 755.9516250000161,
      "v": 111
    },
    {
      "midi": 55,
      "hit": false,
      "t": 249142.6080000003,
      "d": 1005.9513750000333,
      "v": 111
    },
    {
      "midi": 71,
      "hit": false,
      "t": 249999.75000000032,
      "d": 595.2375000000175,
      "v": 111
    },
    {
      "midi": 74,
      "hit": false,
      "t": 249999.75000000032,
      "d": 1428.570000000007,
      "v": 111
    },
    {
      "midi": 79,
      "hit": false,
      "t": 249999.75000000032,
      "d": 1428.570000000007,
      "v": 111
    },
    {
      "midi": 55,
      "hit": false,
      "t": 250285.46400000033,
      "d": 1142.8559999999998,
      "v": 106
    },
    {
      "midi": 71,
      "hit": false,
      "t": 250856.89200000034,
      "d": 285.7140000000072,
      "v": 113
    },
    {
      "midi": 66,
      "hit": false,
      "t": 251142.60600000035,
      "d": 249.99974999998813,
      "v": 115
    },
    {
      "midi": 66,
      "hit": false,
      "t": 251428.32000000033,
      "d": 624.999375000014,
      "v": 98
    },
    {
      "midi": 62,
      "hit": false,
      "t": 251428.32000000033,
      "d": 630.9517500000075,
      "v": 95
    },
    {
      "midi": 57,
      "hit": false,
      "t": 251428.32000000033,
      "d": 642.8564999999944,
      "v": 90
    },
    {
      "midi": 38,
      "hit": false,
      "t": 251428.32000000033,
      "d": 898.8086250000051,
      "v": 95
    },
    {
      "midi": 66,
      "hit": false,
      "t": 252285.46200000032,
      "d": 702.3802500000165,
      "v": 91
    },
    {
      "midi": 57,
      "hit": false,
      "t": 252285.46200000032,
      "d": 726.1897500000196,
      "v": 81
    },
    {
      "midi": 62,
      "hit": false,
      "t": 252285.46200000032,
      "d": 726.1897500000196,
      "v": 90
    },
    {
      "midi": 38,
      "hit": false,
      "t": 252571.17600000033,
      "d": 672.61837500002,
      "v": 90
    },
    {
      "midi": 66,
      "hit": false,
      "t": 253142.60400000034,
      "d": 999.9990000000107,
      "v": 77
    },
    {
      "midi": 57,
      "hit": false,
      "t": 253142.60400000034,
      "d": 1017.8561250000203,
      "v": 69
    },
    {
      "midi": 62,
      "hit": false,
      "t": 253142.60400000034,
      "d": 1017.8561250000203,
      "v": 85
    },
    {
      "midi": 38,
      "hit": false,
      "t": 253428.31800000035,
      "d": 124.99987500000861,
      "v": 72
    },
    {
      "midi": 38,
      "hit": false,
      "t": 253714.03200000036,
      "d": 690.4755000000005,
      "v": 85
    },
    {
      "midi": 57,
      "hit": false,
      "t": 254285.46000000037,
      "d": 386.9043749999837,
      "v": 81
    },
    {
      "midi": 62,
      "hit": false,
      "t": 254285.46000000037,
      "d": 392.8567499999772,
      "v": 74
    },
    {
      "midi": 66,
      "hit": false,
      "t": 254285.46000000037,
      "d": 410.71387499998673,
      "v": 85
    },
    {
      "midi": 38,
      "hit": false,
      "t": 254571.17400000035,
      "d": 142.85700000001816,
      "v": 95
    },
    {
      "midi": 57,
      "hit": false,
      "t": 254856.88800000036,
      "d": 482.1423749999958,
      "v": 90
    },
    {
      "midi": 61,
      "hit": false,
      "t": 254856.88800000036,
      "d": 482.1423749999958,
      "v": 106
    },
    {
      "midi": 64,
      "hit": false,
      "t": 254856.88800000036,
      "d": 499.99950000000536,
      "v": 77
    },
    {
      "midi": 37,
      "hit": false,
      "t": 254856.88800000036,
      "d": 690.4755000000005,
      "v": 85
    },
    {
      "midi": 57,
      "hit": false,
      "t": 255428.31600000037,
      "d": 333.33299999998417,
      "v": 72
    },
    {
      "midi": 61,
      "hit": false,
      "t": 255428.31600000037,
      "d": 369.04724999997416,
      "v": 77
    },
    {
      "midi": 64,
      "hit": false,
      "t": 255428.31600000037,
      "d": 369.04724999997416,
      "v": 60
    },
    {
      "midi": 37,
      "hit": false,
      "t": 255714.03000000035,
      "d": 160.7141249999986,
      "v": 106
    },
    {
      "midi": 66,
      "hit": false,
      "t": 255999.74400000036,
      "d": 684.523125000007,
      "v": 106
    },
    {
      "midi": 57,
      "hit": false,
      "t": 255999.74400000036,
      "d": 702.3802500000165,
      "v": 81
    },
    {
      "midi": 62,
      "hit": false,
      "t": 255999.74400000036,
      "d": 702.3802500000165,
      "v": 72
    },
    {
      "midi": 35,
      "hit": false,
      "t": 255999.74400000036,
      "d": 928.5705000000307,
      "v": 81
    },
    {
      "midi": 66,
      "hit": false,
      "t": 256856.88600000038,
      "d": 672.61837500002,
      "v": 81
    },
    {
      "midi": 57,
      "hit": false,
      "t": 256856.88600000038,
      "d": 678.5707500000135,
      "v": 60
    },
    {
      "midi": 62,
      "hit": false,
      "t": 256856.88600000038,
      "d": 678.5707500000135,
      "v": 77
    },
    {
      "midi": 47,
      "hit": false,
      "t": 257142.60000000038,
      "d": 648.808875000017,
      "v": 95
    },
    {
      "midi": 62,
      "hit": false,
      "t": 257714.0280000004,
      "d": 988.0942500000237,
      "v": 72
    },
    {
      "midi": 66,
      "hit": false,
      "t": 257714.0280000004,
      "d": 994.0466250000172,
      "v": 85
    },
    {
      "midi": 57,
      "hit": false,
      "t": 257714.0280000004,
      "d": 1005.9513750000042,
      "v": 72
    },
    {
      "midi": 47,
      "hit": false,
      "t": 257999.7420000004,
      "d": 136.90462499999558,
      "v": 102
    },
    {
      "midi": 47,
      "hit": false,
      "t": 258285.4560000004,
      "d": 648.8088749999879,
      "v": 74
    },
    {
      "midi": 62,
      "hit": false,
      "t": 258856.8840000004,
      "d": 327.3806250000198,
      "v": 81
    },
    {
      "midi": 66,
      "hit": false,
      "t": 258856.8840000004,
      "d": 327.3806250000198,
      "v": 91
    },
    {
      "midi": 57,
      "hit": false,
      "t": 258856.8840000004,
      "d": 333.33300000001327,
      "v": 77
    },
    {
      "midi": 47,
      "hit": false,
      "t": 259142.5980000004,
      "d": 172.61887500001467,
      "v": 90
    },
    {
      "midi": 57,
      "hit": false,
      "t": 259428.3120000004,
      "d": 511.9042499999923,
      "v": 102
    },
    {
      "midi": 64,
      "hit": false,
      "t": 259428.3120000004,
      "d": 511.9042499999923,
      "v": 81
    },
    {
      "midi": 61,
      "hit": false,
      "t": 259428.3120000004,
      "d": 517.8566249999858,
      "v": 98
    },
    {
      "midi": 45,
      "hit": false,
      "t": 259428.3120000004,
      "d": 714.2849999999744,
      "v": 95
    },
    {
      "midi": 50,
      "hit": false,
      "t": 260571.16800000038,
      "d": 4541.662125000003,
      "v": 95
    },
    {
      "midi": 57,
      "hit": false,
      "t": 260571.16800000038,
      "d": 4541.662125000003,
      "v": 90
    },
    {
      "midi": 62,
      "hit": false,
      "t": 260571.16800000038,
      "d": 4541.662125000003,
      "v": 77
    },
    {
      "midi": 66,
      "hit": false,
      "t": 260571.16800000038,
      "d": 4541.662125000003,
      "v": 91
    }
  ]
}