{
  "jsonPath": "Unknown/Unknown/Gordon Mills&Les Reed/its-not-unusual.json",
  "path": "Unknown\\Unknown\\Gordon Mills&Les Reed\\Its Not Unusual.mid",
  "name": "Its Not Unusual",
  "difficulty": "Advanced",
  "bpm": 184.00053973491654,
  "notes": [
    {
      "midi": 48,
      "hit": false,
      "t": 0,
      "d": 489.129,
      "v": 100
    },
    {
      "midi": 67,
      "hit": false,
      "t": 489.129,
      "d": 163.043,
      "v": 100
    },
    {
      "midi": 48,
      "hit": false,
      "t": 489.129,
      "d": 163.043,
      "v": 100
    },
    {
      "midi": 72,
      "hit": false,
      "t": 652.172,
      "d": 163.043,
      "v": 100
    },
    {
      "midi": 48,
      "hit": false,
      "t": 652.172,
      "d": 652.172,
      "v": 100
    },
    {
      "midi": 74,
      "hit": false,
      "t": 815.215,
      "d": 326.0859999999999,
      "v": 100
    },
    {
      "midi": 76,
      "hit": false,
      "t": 1141.301,
      "d": 489.1289999999999,
      "v": 100
    },
    {
      "midi": 48,
      "hit": false,
      "t": 1304.344,
      "d": 652.172,
      "v": 100
    },
    {
      "midi": 77,
      "hit": false,
      "t": 1630.4299999999998,
      "d": 163.04300000000012,
      "v": 100
    },
    {
      "midi": 79,
      "hit": false,
      "t": 1793.473,
      "d": 326.08600000000024,
      "v": 100
    },
    {
      "midi": 48,
      "hit": false,
      "t": 1956.516,
      "d": 652.172,
      "v": 100
    },
    {
      "midi": 77,
      "hit": false,
      "t": 2119.559,
      "d": 163.04300000000012,
      "v": 100
    },
    {
      "midi": 76,
      "hit": false,
      "t": 2282.6020000000003,
      "d": 326.0859999999998,
      "v": 100
    },
    {
      "midi": 65,
      "hit": false,
      "t": 2608.688,
      "d": 489.1289999999999,
      "v": 100
    },
    {
      "midi": 74,
      "hit": false,
      "t": 2608.688,
      "d": 489.1289999999999,
      "v": 100
    },
    {
      "midi": 50,
      "hit": false,
      "t": 2608.688,
      "d": 489.1289999999999,
      "v": 100
    },
    {
      "midi": 67,
      "hit": false,
      "t": 3097.817,
      "d": 163.04300000000012,
      "v": 100
    },
    {
      "midi": 50,
      "hit": false,
      "t": 3097.817,
      "d": 163.04300000000012,
      "v": 100
    },
    {
      "midi": 67,
      "hit": false,
      "t": 3260.86,
      "d": 163.04300000000012,
      "v": 100
    },
    {
      "midi": 50,
      "hit": false,
      "t": 3260.86,
      "d": 652.172,
      "v": 100
    },
    {
      "midi": 67,
      "hit": false,
      "t": 3423.9030000000002,
      "d": 163.04300000000012,
      "v": 100
    },
    {
      "midi": 67,
      "hit": false,
      "t": 3586.9460000000004,
      "d": 978.2580000000003,
      "v": 100
    },
    {
      "midi": 43,
      "hit": false,
      "t": 3913.032,
      "d": 489.1289999999999,
      "v": 100
    },
    {
      "midi": 43,
      "hit": false,
      "t": 4402.161,
      "d": 163.04299999999967,
      "v": 100
    },
    {
      "midi": 43,
      "hit": false,
      "t": 4565.204,
      "d": 652.1720000000005,
      "v": 100
    },
    {
      "midi": 48,
      "hit": false,
      "t": 5217.376,
      "d": 489.1289999999999,
      "v": 100
    },
    {
      "midi": 48,
      "hit": false,
      "t": 5706.505,
      "d": 163.04299999999967,
      "v": 100
    },
    {
      "midi": 67,
      "hit": false,
      "t": 5706.505000000001,
      "d": 163.04299999999967,
      "v": 100
    },
    {
      "midi": 48,
      "hit": false,
      "t": 5869.548,
      "d": 652.1719999999996,
      "v": 100
    },
    {
      "midi": 72,
      "hit": false,
      "t": 5869.548000000001,
      "d": 163.04299999999967,
      "v": 100
    },
    {
      "midi": 72,
      "hit": false,
      "t": 6032.591,
      "d": 326.08600000000024,
      "v": 100
    },
    {
      "midi": 76,
      "hit": false,
      "t": 6358.677000000001,
      "d": 489.1289999999999,
      "v": 100
    },
    {
      "midi": 48,
      "hit": false,
      "t": 6521.719999999999,
      "d": 652.1720000000005,
      "v": 100
    },
    {
      "midi": 77,
      "hit": false,
      "t": 6847.8060000000005,
      "d": 163.04299999999967,
      "v": 100
    },
    {
      "midi": 79,
      "hit": false,
      "t": 7010.849,
      "d": 326.08600000000024,
      "v": 100
    },
    {
      "midi": 48,
      "hit": false,
      "t": 7173.892,
      "d": 652.1720000000005,
      "v": 100
    },
    {
      "midi": 77,
      "hit": false,
      "t": 7336.935,
      "d": 163.04299999999967,
      "v": 100
    },
    {
      "midi": 76,
      "hit": false,
      "t": 7499.978,
      "d": 326.08600000000024,
      "v": 100
    },
    {
      "midi": 65,
      "hit": false,
      "t": 7826.064,
      "d": 489.1290000000008,
      "v": 100
    },
    {
      "midi": 74,
      "hit": false,
      "t": 7826.064,
      "d": 489.1290000000008,
      "v": 100
    },
    {
      "midi": 50,
      "hit": false,
      "t": 7826.064,
      "d": 489.1290000000008,
      "v": 100
    },
    {
      "midi": 72,
      "hit": false,
      "t": 8315.193000000001,
      "d": 163.04299999999967,
      "v": 100
    },
    {
      "midi": 50,
      "hit": false,
      "t": 8315.193000000001,
      "d": 163.04299999999967,
      "v": 100
    },
    {
      "midi": 74,
      "hit": false,
      "t": 8478.236,
      "d": 163.04299999999967,
      "v": 100
    },
    {
      "midi": 50,
      "hit": false,
      "t": 8478.236,
      "d": 652.1720000000005,
      "v": 100
    },
    {
      "midi": 76,
      "hit": false,
      "t": 8641.279,
      "d": 163.04299999999967,
      "v": 100
    },
    {
      "midi": 74,
      "hit": false,
      "t": 8804.322,
      "d": 978.2579999999998,
      "v": 100
    },
    {
      "midi": 43,
      "hit": false,
      "t": 9130.408000000001,
      "d": 489.1290000000008,
      "v": 100
    },
    {
      "midi": 43,
      "hit": false,
      "t": 9619.537000000002,
      "d": 163.04299999999967,
      "v": 100
    },
    {
      "midi": 43,
      "hit": false,
      "t": 9782.580000000002,
      "d": 652.1720000000005,
      "v": 100
    },
    {
      "midi": 52,
      "hit": false,
      "t": 10434.752000000002,
      "d": 489.1290000000008,
      "v": 100
    },
    {
      "midi": 67,
      "hit": false,
      "t": 10923.881,
      "d": 163.04299999999967,
      "v": 100
    },
    {
      "midi": 52,
      "hit": false,
      "t": 10923.881000000003,
      "d": 163.04299999999967,
      "v": 100
    },
    {
      "midi": 79,
      "hit": false,
      "t": 11086.923999999999,
      "d": 163.04299999999967,
      "v": 100
    },
    {
      "midi": 52,
      "hit": false,
      "t": 11086.924000000003,
      "d": 652.1720000000005,
      "v": 100
    },
    {
      "midi": 77,
      "hit": false,
      "t": 11249.966999999999,
      "d": 326.08599999999933,
      "v": 100
    },
    {
      "midi": 76,
      "hit": false,
      "t": 11576.052999999998,
      "d": 326.08599999999933,
      "v": 100
    },
    {
      "midi": 52,
      "hit": false,
      "t": 11739.096000000003,
      "d": 652.1720000000005,
      "v": 100
    },
    {
      "midi": 74,
      "hit": false,
      "t": 11902.138999999997,
      "d": 326.08599999999933,
      "v": 100
    },
    {
      "midi": 72,
      "hit": false,
      "t": 12228.224999999997,
      "d": 326.08599999999933,
      "v": 100
    },
    {
      "midi": 52,
      "hit": false,
      "t": 12391.268000000004,
      "d": 652.1720000000005,
      "v": 100
    },
    {
      "midi": 71,
      "hit": false,
      "t": 12554.310999999996,
      "d": 163.04299999999967,
      "v": 100
    },
    {
      "midi": 72,
      "hit": false,
      "t": 12717.353999999996,
      "d": 163.04299999999967,
      "v": 100
    },
    {
      "midi": 65,
      "hit": false,
      "t": 12880.396999999995,
      "d": 652.1720000000005,
      "v": 100
    },
    {
      "midi": 74,
      "hit": false,
      "t": 12880.396999999995,
      "d": 652.1720000000005,
      "v": 100
    },
    {
      "midi": 50,
      "hit": false,
      "t": 13043.440000000004,
      "d": 489.1290000000008,
      "v": 100
    },
    {
      "midi": 74,
      "hit": false,
      "t": 13532.568999999996,
      "d": 163.04299999999967,
      "v": 100
    },
    {
      "midi": 50,
      "hit": false,
      "t": 13532.569000000005,
      "d": 163.04299999999967,
      "v": 100
    },
    {
      "midi": 74,
      "hit": false,
      "t": 13695.611999999996,
      "d": 163.04299999999967,
      "v": 100
    },
    {
      "midi": 50,
      "hit": false,
      "t": 13695.612000000005,
      "d": 652.1720000000005,
      "v": 100
    },
    {
      "midi": 76,
      "hit": false,
      "t": 13858.654999999995,
      "d": 163.04299999999967,
      "v": 100
    },
    {
      "midi": 74,
      "hit": false,
      "t": 14021.697999999995,
      "d": 978.2579999999998,
      "v": 100
    },
    {
      "midi": 50,
      "hit": false,
      "t": 14347.784000000005,
      "d": 489.1290000000008,
      "v": 100
    },
    {
      "midi": 50,
      "hit": false,
      "t": 14836.913000000006,
      "d": 163.04299999999967,
      "v": 100
    },
    {
      "midi": 50,
      "hit": false,
      "t": 14999.956000000006,
      "d": 652.1720000000005,
      "v": 100
    },
    {
      "midi": 43,
      "hit": false,
      "t": 15652.128000000006,
      "d": 489.1290000000008,
      "v": 100
    },
    {
      "midi": 67,
      "hit": false,
      "t": 16141.256999999994,
      "d": 163.04299999999967,
      "v": 100
    },
    {
      "midi": 43,
      "hit": false,
      "t": 16141.257000000007,
      "d": 163.04299999999967,
      "v": 100
    },
    {
      "midi": 74,
      "hit": false,
      "t": 16304.299999999994,
      "d": 163.04299999999967,
      "v": 100
    },
    {
      "midi": 43,
      "hit": false,
      "t": 16304.300000000007,
      "d": 652.1719999999987,
      "v": 100
    },
    {
      "midi": 76,
      "hit": false,
      "t": 16467.342999999993,
      "d": 326.08599999999933,
      "v": 100
    },
    {
      "midi": 77,
      "hit": false,
      "t": 16793.428999999993,
      "d": 489.1290000000008,
      "v": 100
    },
    {
      "midi": 43,
      "hit": false,
      "t": 16956.472000000005,
      "d": 652.1719999999987,
      "v": 100
    },
    {
      "midi": 79,
      "hit": false,
      "t": 17282.557999999994,
      "d": 163.04300000000148,
      "v": 100
    },
    {
      "midi": 76,
      "hit": false,
      "t": 17445.600999999995,
      "d": 652.1719999999987,
      "v": 100
    },
    {
      "midi": 43,
      "hit": false,
      "t": 17608.644000000004,
      "d": 652.1719999999987,
      "v": 100
    },
    {
      "midi": 74,
      "hit": false,
      "t": 18097.772999999994,
      "d": 163.04300000000148,
      "v": 100
    },
    {
      "midi": 76,
      "hit": false,
      "t": 18260.815999999995,
      "d": 326.08599999999933,
      "v": 100
    },
    {
      "midi": 48,
      "hit": false,
      "t": 18260.816000000003,
      "d": 489.1290000000008,
      "v": 100
    },
    {
      "midi": 76,
      "hit": false,
      "t": 18586.901999999995,
      "d": 326.08599999999933,
      "v": 100
    },
    {
      "midi": 48,
      "hit": false,
      "t": 18749.945000000003,
      "d": 163.04300000000148,
      "v": 100
    },
    {
      "midi": 74,
      "hit": false,
      "t": 18912.987999999994,
      "d": 326.08599999999933,
      "v": 100
    },
    {
      "midi": 48,
      "hit": false,
      "t": 18912.988000000005,
      "d": 652.1719999999987,
      "v": 100
    },
    {
      "midi": 72,
      "hit": false,
      "t": 19239.073999999993,
      "d": 1304.344000000001,
      "v": 100
    },
    {
      "midi": 48,
      "hit": false,
      "t": 19565.160000000003,
      "d": 489.1290000000008,
      "v": 100
    },
    {
      "midi": 48,
      "hit": false,
      "t": 20054.289000000004,
      "d": 163.04300000000148,
      "v": 100
    },
    {
      "midi": 48,
      "hit": false,
      "t": 20217.332000000006,
      "d": 652.1719999999987,
      "v": 100
    },
    {
      "midi": 67,
      "hit": false,
      "t": 20706.460999999996,
      "d": 163.04300000000148,
      "v": 100
    },
    {
      "midi": 69,
      "hit": false,
      "t": 20869.503999999997,
      "d": 163.04300000000148,
      "v": 100
    },
    {
      "midi": 50,
      "hit": false,
      "t": 20869.504000000004,
      "d": 489.1290000000008,
      "v": 100
    },
    {
      "midi": 67,
      "hit": false,
      "t": 21032.547,
      "d": 163.04300000000148,
      "v": 100
    },
    {
      "midi": 67,
      "hit": false,
      "t": 21195.59,
      "d": 1304.344000000001,
      "v": 100
    },
    {
      "midi": 50,
      "hit": false,
      "t": 21358.633000000005,
      "d": 163.04300000000148,
      "v": 100
    },
    {
      "midi": 50,
      "hit": false,
      "t": 21521.676000000007,
      "d": 652.1719999999987,
      "v": 100
    },
    {
      "midi": 43,
      "hit": false,
      "t": 22173.848000000005,
      "d": 489.1290000000008,
      "v": 100
    },
    {
      "midi": 43,
      "hit": false,
      "t": 22662.977000000006,
      "d": 163.04300000000148,
      "v": 100
    },
    {
      "midi": 43,
      "hit": false,
      "t": 22826.020000000008,
      "d": 652.1719999999987,
      "v": 100
    },
    {
      "midi": 76,
      "hit": false,
      "t": 23478.192000000003,
      "d": 326.08599999999933,
      "v": 100
    },
    {
      "midi": 48,
      "hit": false,
      "t": 23478.192000000006,
      "d": 652.1719999999987,
      "v": 100
    },
    {
      "midi": 76,
      "hit": false,
      "t": 23804.278000000002,
      "d": 163.04300000000148,
      "v": 100
    },
    {
      "midi": 76,
      "hit": false,
      "t": 23967.321000000004,
      "d": 326.08599999999933,
      "v": 100
    },
    {
      "midi": 48,
      "hit": false,
      "t": 24130.364000000005,
      "d": 652.1719999999987,
      "v": 100
    },
    {
      "midi": 74,
      "hit": false,
      "t": 24293.407000000003,
      "d": 163.04300000000148,
      "v": 100
    },
    {
      "midi": 72,
      "hit": false,
      "t": 24456.450000000004,
      "d": 652.1719999999987,
      "v": 100
    },
    {
      "midi": 36,
      "hit": false,
      "t": 24782.536000000004,
      "d": 489.1290000000008,
      "v": 100
    },
    {
      "midi": 36,
      "hit": false,
      "t": 25271.665000000005,
      "d": 163.04300000000148,
      "v": 100
    },
    {
      "midi": 36,
      "hit": false,
      "t": 25434.708000000006,
      "d": 326.08599999999933,
      "v": 100
    },
    {
      "midi": 67,
      "hit": false,
      "t": 25923.837000000003,
      "d": 163.04300000000148,
      "v": 100
    },
    {
      "midi": 77,
      "hit": false,
      "t": 26086.880000000005,
      "d": 326.08599999999933,
      "v": 100
    },
    {
      "midi": 50,
      "hit": false,
      "t": 26086.880000000005,
      "d": 652.1719999999987,
      "v": 100
    },
    {
      "midi": 79,
      "hit": false,
      "t": 26412.966000000004,
      "d": 163.04300000000148,
      "v": 100
    },
    {
      "midi": 77,
      "hit": false,
      "t": 26576.009000000005,
      "d": 326.08599999999933,
      "v": 100
    },
    {
      "midi": 50,
      "hit": false,
      "t": 26739.052000000003,
      "d": 652.1719999999987,
      "v": 100
    },
    {
      "midi": 76,
      "hit": false,
      "t": 26902.095000000005,
      "d": 163.04300000000148,
      "v": 100
    },
    {
      "midi": 74,
      "hit": false,
      "t": 27065.138000000006,
      "d": 652.1719999999987,
      "v": 100
    },
    {
      "midi": 38,
      "hit": false,
      "t": 27391.224000000002,
      "d": 489.1290000000008,
      "v": 100
    },
    {
      "midi": 38,
      "hit": false,
      "t": 27880.353000000003,
      "d": 163.04300000000148,
      "v": 100
    },
    {
      "midi": 38,
      "hit": false,
      "t": 28043.396000000004,
      "d": 326.08599999999933,
      "v": 100
    },
    {
      "midi": 43,
      "hit": false,
      "t": 28695.568000000003,
      "d": 489.1290000000008,
      "v": 100
    },
    {
      "midi": 67,
      "hit": false,
      "t": 29021.654000000006,
      "d": 326.08599999999933,
      "v": 100
    },
    {
      "midi": 43,
      "hit": false,
      "t": 29184.697000000004,
      "d": 163.04300000000148,
      "v": 100
    },
    {
      "midi": 71,
      "hit": false,
      "t": 29347.740000000005,
      "d": 326.08599999999933,
      "v": 100
    },
    {
      "midi": 43,
      "hit": false,
      "t": 29347.740000000005,
      "d": 652.1719999999987,
      "v": 100
    },
    {
      "midi": 74,
      "hit": false,
      "t": 29673.826000000005,
      "d": 326.08599999999933,
      "v": 100
    },
    {
      "midi": 77,
      "hit": false,
      "t": 29999.912000000004,
      "d": 163.04300000000148,
      "v": 100
    },
    {
      "midi": 43,
      "hit": false,
      "t": 29999.912000000004,
      "d": 489.1290000000008,
      "v": 100
    },
    {
      "midi": 77,
      "hit": false,
      "t": 30162.955000000005,
      "d": 652.1719999999987,
      "v": 100
    },
    {
      "midi": 43,
      "hit": false,
      "t": 30489.041000000005,
      "d": 163.04300000000148,
      "v": 100
    },
    {
      "midi": 43,
      "hit": false,
      "t": 30652.084000000006,
      "d": 652.1719999999987,
      "v": 100
    },
    {
      "midi": 76,
      "hit": false,
      "t": 30815.127000000004,
      "d": 163.04300000000148,
      "v": 100
    },
    {
      "midi": 74,
      "hit": false,
      "t": 30978.170000000006,
      "d": 163.04300000000148,
      "v": 100
    },
    {
      "midi": 76,
      "hit": false,
      "t": 31141.213000000007,
      "d": 1141.3009999999995,
      "v": 100
    },
    {
      "midi": 48,
      "hit": false,
      "t": 31304.256000000005,
      "d": 489.1290000000008,
      "v": 100
    },
    {
      "midi": 48,
      "hit": false,
      "t": 31793.385000000006,
      "d": 163.04300000000148,
      "v": 100
    },
    {
      "midi": 48,
      "hit": false,
      "t": 31956.428000000007,
      "d": 652.1719999999987,
      "v": 100
    },
    {
      "midi": 76,
      "hit": false,
      "t": 32282.514000000006,
      "d": 326.08599999999933,
      "v": 100
    },
    {
      "midi": 74,
      "hit": false,
      "t": 32608.600000000006,
      "d": 163.04299999999785,
      "v": 100
    },
    {
      "midi": 48,
      "hit": false,
      "t": 32608.600000000006,
      "d": 489.1290000000008,
      "v": 100
    },
    {
      "midi": 72,
      "hit": false,
      "t": 32771.643000000004,
      "d": 815.2149999999965,
      "v": 100
    },
    {
      "midi": 48,
      "hit": false,
      "t": 33097.72900000001,
      "d": 163.04299999999785,
      "v": 100
    },
    {
      "midi": 48,
      "hit": false,
      "t": 33260.772000000004,
      "d": 652.1719999999987,
      "v": 100
    },
    {
      "midi": 76,
      "hit": false,
      "t": 33912.944,
      "d": 326.08600000000297,
      "v": 100
    },
    {
      "midi": 48,
      "hit": false,
      "t": 33912.944,
      "d": 652.1719999999987,
      "v": 100
    },
    {
      "midi": 76,
      "hit": false,
      "t": 34239.030000000006,
      "d": 163.04299999999785,
      "v": 100
    },
    {
      "midi": 76,
      "hit": false,
      "t": 34402.073000000004,
      "d": 326.08600000000297,
      "v": 100
    },
    {
      "midi": 48,
      "hit": false,
      "t": 34565.116,
      "d": 652.1719999999987,
      "v": 100
    },
    {
      "midi": 74,
      "hit": false,
      "t": 34728.15900000001,
      "d": 163.04299999999785,
      "v": 100
    },
    {
      "midi": 72,
      "hit": false,
      "t": 34891.202000000005,
      "d": 652.1719999999987,
      "v": 100
    },
    {
      "midi": 36,
      "hit": false,
      "t": 35217.288,
      "d": 489.1290000000008,
      "v": 100
    },
    {
      "midi": 36,
      "hit": false,
      "t": 35706.417,
      "d": 163.04299999999785,
      "v": 100
    },
    {
      "midi": 36,
      "hit": false,
      "t": 35869.46,
      "d": 326.08600000000297,
      "v": 100
    },
    {
      "midi": 77,
      "hit": false,
      "t": 36521.632000000005,
      "d": 326.08600000000297,
      "v": 100
    },
    {
      "midi": 50,
      "hit": false,
      "t": 36521.632000000005,
      "d": 489.1290000000008,
      "v": 100
    },
    {
      "midi": 79,
      "hit": false,
      "t": 36847.71800000001,
      "d": 163.04299999999785,
      "v": 100
    },
    {
      "midi": 77,
      "hit": false,
      "t": 37010.761000000006,
      "d": 326.08600000000297,
      "v": 100
    },
    {
      "midi": 50,
      "hit": false,
      "t": 37010.761000000006,
      "d": 163.04299999999785,
      "v": 100
    },
    {
      "midi": 50,
      "hit": false,
      "t": 37173.804000000004,
      "d": 652.1719999999987,
      "v": 100
    },
    {
      "midi": 76,
      "hit": false,
      "t": 37336.84700000001,
      "d": 163.04299999999785,
      "v": 100
    },
    {
      "midi": 74,
      "hit": false,
      "t": 37499.89000000001,
      "d": 652.1719999999987,
      "v": 100
    },
    {
      "midi": 38,
      "hit": false,
      "t": 37825.976,
      "d": 489.1290000000008,
      "v": 100
    },
    {
      "midi": 38,
      "hit": false,
      "t": 38315.105,
      "d": 163.04299999999785,
      "v": 100
    },
    {
      "midi": 38,
      "hit": false,
      "t": 38478.148,
      "d": 326.08600000000297,
      "v": 100
    },
    {
      "midi": 43,
      "hit": false,
      "t": 39130.32000000001,
      "d": 489.1290000000008,
      "v": 100
    },
    {
      "midi": 67,
      "hit": false,
      "t": 39456.406,
      "d": 326.08600000000297,
      "v": 100
    },
    {
      "midi": 43,
      "hit": false,
      "t": 39619.44900000001,
      "d": 163.04299999999785,
      "v": 100
    },
    {
      "midi": 71,
      "hit": false,
      "t": 39782.492000000006,
      "d": 326.08600000000297,
      "v": 100
    },
    {
      "midi": 43,
      "hit": false,
      "t": 39782.492000000006,
      "d": 652.1719999999987,
      "v": 100
    },
    {
      "midi": 74,
      "hit": false,
      "t": 40108.57800000001,
      "d": 326.08600000000297,
      "v": 100
    },
    {
      "midi": 43,
      "hit": false,
      "t": 40434.664000000004,
      "d": 652.1719999999987,
      "v": 100
    },
    {
      "midi": 77,
      "hit": false,
      "t": 40434.66400000001,
      "d": 326.08600000000297,
      "v": 100
    },
    {
      "midi": 77,
      "hit": false,
      "t": 40760.750000000015,
      "d": 163.04299999999785,
      "v": 100
    },
    {
      "midi": 76,
      "hit": false,
      "t": 40923.79300000001,
      "d": 489.1290000000008,
      "v": 100
    },
    {
      "midi": 43,
      "hit": false,
      "t": 41086.836,
      "d": 652.1719999999987,
      "v": 100
    },
    {
      "midi": 77,
      "hit": false,
      "t": 41412.92200000001,
      "d": 163.04299999999785,
      "v": 100
    },
    {
      "midi": 79,
      "hit": false,
      "t": 41575.96500000001,
      "d": 2119.559000000001,
      "v": 100
    },
    {
      "midi": 52,
      "hit": false,
      "t": 41739.008,
      "d": 489.1290000000008,
      "v": 100
    },
    {
      "midi": 52,
      "hit": false,
      "t": 42228.137,
      "d": 163.04299999999785,
      "v": 100
    },
    {
      "midi": 52,
      "hit": false,
      "t": 42391.18,
      "d": 652.1719999999987,
      "v": 100
    },
    {
      "midi": 51,
      "hit": false,
      "t": 43043.352,
      "d": 489.1290000000008,
      "v": 100
    },
    {
      "midi": 51,
      "hit": false,
      "t": 43532.481,
      "d": 163.04299999999785,
      "v": 100
    },
    {
      "midi": 51,
      "hit": false,
      "t": 43695.524,
      "d": 652.1719999999987,
      "v": 100
    },
    {
      "midi": 81,
      "hit": false,
      "t": 43695.52400000001,
      "d": 326.08600000000297,
      "v": 100
    },
    {
      "midi": 76,
      "hit": false,
      "t": 44021.610000000015,
      "d": 326.08600000000297,
      "v": 100
    },
    {
      "midi": 50,
      "hit": false,
      "t": 44347.695999999996,
      "d": 489.1290000000008,
      "v": 100
    },
    {
      "midi": 81,
      "hit": false,
      "t": 44347.69600000002,
      "d": 489.1290000000008,
      "v": 100
    },
    {
      "midi": 50,
      "hit": false,
      "t": 44836.825,
      "d": 163.04299999999785,
      "v": 100
    },
    {
      "midi": 83,
      "hit": false,
      "t": 44836.82500000002,
      "d": 81.52150000000256,
      "v": 100
    },
    {
      "midi": 81,
      "hit": false,
      "t": 44918.34650000002,
      "d": 81.52150000000256,
      "v": 100
    },
    {
      "midi": 50,
      "hit": false,
      "t": 44999.867999999995,
      "d": 652.1719999999987,
      "v": 100
    },
    {
      "midi": 79,
      "hit": false,
      "t": 44999.868000000024,
      "d": 1956.5160000000033,
      "v": 100
    },
    {
      "midi": 43,
      "hit": false,
      "t": 45652.03999999999,
      "d": 489.1290000000008,
      "v": 100
    },
    {
      "midi": 43,
      "hit": false,
      "t": 46141.168999999994,
      "d": 163.04299999999785,
      "v": 100
    },
    {
      "midi": 43,
      "hit": false,
      "t": 46304.21199999999,
      "d": 652.1719999999987,
      "v": 100
    },
    {
      "midi": 48,
      "hit": false,
      "t": 46956.38399999999,
      "d": 1304.3439999999973,
      "v": 100
    },
    {
      "midi": 71,
      "hit": false,
      "t": 46956.38400000003,
      "d": 1304.3439999999973,
      "v": 100
    },
    {
      "midi": 76,
      "hit": false,
      "t": 46956.38400000003,
      "d": 1304.3439999999973,
      "v": 100
    },
    {
      "midi": 79,
      "hit": false,
      "t": 46956.38400000003,
      "d": 1304.3439999999973,
      "v": 100
    }
  ]
}