{
  "jsonPath": "Jazz/Jazz Double Bass/Richard Davis/shiny-stockings.json",
  "path": "Jazz\\Jazz Double Bass\\Richard Davis\\Shiny Stockings.mid",
  "name": "Shiny Stockings",
  "difficulty": "Advanced",
  "bpm": 130.00041166797027,
  "notes": [
    {
      "midi": 80,
      "hit": false,
      "t": 1254.8037187500004,
      "d": 466.3446770833334,
      "v": 74
    },
    {
      "midi": 76,
      "hit": false,
      "t": 1259.6113958333337,
      "d": 355.7681041666667,
      "v": 79
    },
    {
      "midi": 71,
      "hit": false,
      "t": 1259.6113958333337,
      "d": 432.6909375,
      "v": 78
    },
    {
      "midi": 56,
      "hit": false,
      "t": 1278.842104166667,
      "d": 259.61456250000015,
      "v": 44
    },
    {
      "midi": 81,
      "hit": false,
      "t": 1879.801739583334,
      "d": 96.15354166666702,
      "v": 51
    },
    {
      "midi": 62,
      "hit": false,
      "t": 1884.6094166666674,
      "d": 67.30747916666678,
      "v": 41
    },
    {
      "midi": 53,
      "hit": false,
      "t": 1884.6094166666674,
      "d": 76.92283333333353,
      "v": 32
    },
    {
      "midi": 58,
      "hit": false,
      "t": 1889.4170937500007,
      "d": 67.30747916666678,
      "v": 36
    },
    {
      "midi": 69,
      "hit": false,
      "t": 1889.4170937500007,
      "d": 67.30747916666678,
      "v": 39
    },
    {
      "midi": 57,
      "hit": false,
      "t": 1894.224770833334,
      "d": 62.49980208333341,
      "v": 31
    },
    {
      "midi": 74,
      "hit": false,
      "t": 1894.224770833334,
      "d": 72.11515625000015,
      "v": 35
    },
    {
      "midi": 92,
      "hit": false,
      "t": 2634.607041666668,
      "d": 557.6905416666659,
      "v": 84
    },
    {
      "midi": 62,
      "hit": false,
      "t": 2639.414718750001,
      "d": 533.6521562499997,
      "v": 84
    },
    {
      "midi": 80,
      "hit": false,
      "t": 2639.414718750001,
      "d": 552.8828645833328,
      "v": 82
    },
    {
      "midi": 57,
      "hit": false,
      "t": 2644.2223958333343,
      "d": 533.6521562499997,
      "v": 76
    },
    {
      "midi": 58,
      "hit": false,
      "t": 2644.2223958333343,
      "d": 548.0751874999996,
      "v": 69
    },
    {
      "midi": 87,
      "hit": false,
      "t": 2644.2223958333343,
      "d": 572.1135729166663,
      "v": 79
    },
    {
      "midi": 53,
      "hit": false,
      "t": 2649.0300729166675,
      "d": 490.38306250000005,
      "v": 73
    },
    {
      "midi": 62,
      "hit": false,
      "t": 3278.8357708333338,
      "d": 52.88444791666598,
      "v": 63
    },
    {
      "midi": 93,
      "hit": false,
      "t": 3278.8357708333338,
      "d": 57.69212499999912,
      "v": 56
    },
    {
      "midi": 81,
      "hit": false,
      "t": 3283.643447916667,
      "d": 33.653739583332936,
      "v": 40
    },
    {
      "midi": 53,
      "hit": false,
      "t": 3283.643447916667,
      "d": 57.69212499999912,
      "v": 47
    },
    {
      "midi": 58,
      "hit": false,
      "t": 3283.643447916667,
      "d": 62.49980208333227,
      "v": 39
    },
    {
      "midi": 57,
      "hit": false,
      "t": 3288.451125,
      "d": 28.84606249999979,
      "v": 40
    },
    {
      "midi": 88,
      "hit": false,
      "t": 3288.451125,
      "d": 52.88444791666598,
      "v": 55
    },
    {
      "midi": 62,
      "hit": false,
      "t": 3701.911354166666,
      "d": 100.96121874999926,
      "v": 65
    },
    {
      "midi": 96,
      "hit": false,
      "t": 3701.911354166666,
      "d": 110.57657291666601,
      "v": 68
    },
    {
      "midi": 58,
      "hit": false,
      "t": 3706.7190312499993,
      "d": 105.76889583333286,
      "v": 38
    },
    {
      "midi": 52,
      "hit": false,
      "t": 3711.5267083333324,
      "d": 91.34586458333297,
      "v": 52
    },
    {
      "midi": 91,
      "hit": false,
      "t": 3716.3343854166656,
      "d": 86.53818749999982,
      "v": 45
    },
    {
      "midi": 84,
      "hit": false,
      "t": 3730.7574166666654,
      "d": 62.49980208333318,
      "v": 22
    },
    {
      "midi": 58,
      "hit": false,
      "t": 4009.602687499999,
      "d": 100.9612187499988,
      "v": 74
    },
    {
      "midi": 52,
      "hit": false,
      "t": 4014.410364583332,
      "d": 76.92283333333307,
      "v": 80
    },
    {
      "midi": 62,
      "hit": false,
      "t": 4014.410364583332,
      "d": 76.92283333333307,
      "v": 82
    },
    {
      "midi": 96,
      "hit": false,
      "t": 4019.218041666665,
      "d": 52.88444791666643,
      "v": 84
    },
    {
      "midi": 84,
      "hit": false,
      "t": 4019.218041666665,
      "d": 91.34586458333251,
      "v": 84
    },
    {
      "midi": 91,
      "hit": false,
      "t": 4024.0257187499983,
      "d": 76.92283333333307,
      "v": 79
    },
    {
      "midi": 62,
      "hit": false,
      "t": 4173.06370833333,
      "d": 52.88444791666552,
      "v": 62
    },
    {
      "midi": 58,
      "hit": false,
      "t": 4173.06370833333,
      "d": 57.69212499999867,
      "v": 46
    },
    {
      "midi": 52,
      "hit": false,
      "t": 4177.8713854166635,
      "d": 38.46141666666608,
      "v": 62
    },
    {
      "midi": 88,
      "hit": false,
      "t": 4206.717447916663,
      "d": 28.84606249999888,
      "v": 34
    },
    {
      "midi": 93,
      "hit": false,
      "t": 4211.5251249999965,
      "d": 24.038385416665733,
      "v": 30
    },
    {
      "midi": 93,
      "hit": false,
      "t": 4456.716656249995,
      "d": 57.69212499999867,
      "v": 62
    },
    {
      "midi": 62,
      "hit": false,
      "t": 4461.524333333328,
      "d": 48.076770833332375,
      "v": 64
    },
    {
      "midi": 58,
      "hit": false,
      "t": 4461.524333333328,
      "d": 57.69212499999867,
      "v": 53
    },
    {
      "midi": 52,
      "hit": false,
      "t": 4466.332010416661,
      "d": 38.46141666666608,
      "v": 59
    },
    {
      "midi": 81,
      "hit": false,
      "t": 4466.332010416661,
      "d": 81.73051041666531,
      "v": 46
    },
    {
      "midi": 88,
      "hit": false,
      "t": 4471.139687499995,
      "d": 57.69212499999867,
      "v": 46
    },
    {
      "midi": 62,
      "hit": false,
      "t": 4624.98535416666,
      "d": 158.6533437500002,
      "v": 52
    },
    {
      "midi": 58,
      "hit": false,
      "t": 4624.98535416666,
      "d": 173.07637500000055,
      "v": 42
    },
    {
      "midi": 52,
      "hit": false,
      "t": 4629.793031249993,
      "d": 139.4226354166667,
      "v": 44
    },
    {
      "midi": 91,
      "hit": false,
      "t": 4629.793031249993,
      "d": 177.8840520833337,
      "v": 35
    },
    {
      "midi": 86,
      "hit": false,
      "t": 4653.83141666666,
      "d": 129.80728125000041,
      "v": 25
    },
    {
      "midi": 79,
      "hit": false,
      "t": 4663.446770833326,
      "d": 120.19192708333412,
      "v": 28
    },
    {
      "midi": 88,
      "hit": false,
      "t": 4923.061333333327,
      "d": 283.65294791666656,
      "v": 77
    },
    {
      "midi": 93,
      "hit": false,
      "t": 4927.86901041666,
      "d": 249.99920833333363,
      "v": 79
    },
    {
      "midi": 81,
      "hit": false,
      "t": 4927.86901041666,
      "d": 298.0759791666669,
      "v": 73
    },
    {
      "midi": 58,
      "hit": false,
      "t": 4927.86901041666,
      "d": 355.7681041666665,
      "v": 70
    },
    {
      "midi": 52,
      "hit": false,
      "t": 4932.676687499993,
      "d": 302.88365625000006,
      "v": 79
    },
    {
      "midi": 62,
      "hit": false,
      "t": 4932.676687499993,
      "d": 379.80648958333313,
      "v": 75
    },
    {
      "midi": 62,
      "hit": false,
      "t": 5552.867031249993,
      "d": 48.076770833332375,
      "v": 77
    },
    {
      "midi": 58,
      "hit": false,
      "t": 5552.867031249993,
      "d": 57.69212499999867,
      "v": 59
    },
    {
      "midi": 86,
      "hit": false,
      "t": 5552.867031249993,
      "d": 57.69212499999867,
      "v": 76
    },
    {
      "midi": 57,
      "hit": false,
      "t": 5557.674708333326,
      "d": 28.84606249999979,
      "v": 58
    },
    {
      "midi": 74,
      "hit": false,
      "t": 5557.674708333326,
      "d": 43.26909374999923,
      "v": 77
    },
    {
      "midi": 81,
      "hit": false,
      "t": 5562.482385416659,
      "d": 28.84606249999979,
      "v": 70
    },
    {
      "midi": 53,
      "hit": false,
      "t": 5567.290062499992,
      "d": 24.038385416666642,
      "v": 51
    },
    {
      "midi": 62,
      "hit": false,
      "t": 5658.6359270833245,
      "d": 57.69212499999867,
      "v": 51
    },
    {
      "midi": 58,
      "hit": false,
      "t": 5663.443604166658,
      "d": 62.499802083331815,
      "v": 49
    },
    {
      "midi": 86,
      "hit": false,
      "t": 5668.251281249991,
      "d": 62.499802083331815,
      "v": 48
    },
    {
      "midi": 53,
      "hit": false,
      "t": 5673.058958333324,
      "d": 38.46141666666608,
      "v": 31
    },
    {
      "midi": 81,
      "hit": false,
      "t": 5673.058958333324,
      "d": 38.46141666666608,
      "v": 64
    },
    {
      "midi": 57,
      "hit": false,
      "t": 5677.866635416657,
      "d": 24.038385416666642,
      "v": 37
    },
    {
      "midi": 74,
      "hit": false,
      "t": 5677.866635416657,
      "d": 28.84606249999979,
      "v": 45
    },
    {
      "midi": 62,
      "hit": false,
      "t": 5971.134937499989,
      "d": 192.30708333333223,
      "v": 71
    },
    {
      "midi": 53,
      "hit": false,
      "t": 5975.942614583322,
      "d": 177.8840520833328,
      "v": 66
    },
    {
      "midi": 91,
      "hit": false,
      "t": 5975.942614583322,
      "d": 197.11476041666538,
      "v": 79
    },
    {
      "midi": 86,
      "hit": false,
      "t": 5980.750291666655,
      "d": 173.07637499999964,
      "v": 78
    },
    {
      "midi": 58,
      "hit": false,
      "t": 5980.750291666655,
      "d": 187.49940624999908,
      "v": 58
    },
    {
      "midi": 57,
      "hit": false,
      "t": 5980.750291666655,
      "d": 192.30708333333223,
      "v": 62
    },
    {
      "midi": 79,
      "hit": false,
      "t": 5985.5579687499885,
      "d": 163.46102083333335,
      "v": 71
    },
    {
      "midi": 53,
      "hit": false,
      "t": 6283.6339479166545,
      "d": 485.575385416666,
      "v": 81
    },
    {
      "midi": 62,
      "hit": false,
      "t": 6283.6339479166545,
      "d": 533.6521562499984,
      "v": 89
    },
    {
      "midi": 58,
      "hit": false,
      "t": 6283.6339479166545,
      "d": 552.8828645833319,
      "v": 74
    },
    {
      "midi": 93,
      "hit": false,
      "t": 6288.441624999988,
      "d": 485.575385416666,
      "v": 94
    },
    {
      "midi": 88,
      "hit": false,
      "t": 6293.249302083321,
      "d": 509.61377083333264,
      "v": 88
    },
    {
      "midi": 81,
      "hit": false,
      "t": 6293.249302083321,
      "d": 519.2291249999989,
      "v": 84
    },
    {
      "midi": 57,
      "hit": false,
      "t": 6293.249302083321,
      "d": 524.0368020833321,
      "v": 70
    },
    {
      "midi": 91,
      "hit": false,
      "t": 6908.631968749986,
      "d": 201.92243749999852,
      "v": 49
    },
    {
      "midi": 62,
      "hit": false,
      "t": 6918.247322916653,
      "d": 230.76849999999922,
      "v": 45
    },
    {
      "midi": 79,
      "hit": false,
      "t": 6927.862677083319,
      "d": 163.46102083333244,
      "v": 31
    },
    {
      "midi": 86,
      "hit": false,
      "t": 6927.862677083319,
      "d": 168.2686979166656,
      "v": 39
    },
    {
      "midi": 53,
      "hit": false,
      "t": 6937.478031249985,
      "d": 201.92243750000034,
      "v": 40
    },
    {
      "midi": 58,
      "hit": false,
      "t": 6937.478031249985,
      "d": 245.19153124999957,
      "v": 35
    },
    {
      "midi": 57,
      "hit": false,
      "t": 6942.285708333318,
      "d": 182.69172916666685,
      "v": 35
    },
    {
      "midi": 93,
      "hit": false,
      "t": 7235.554010416651,
      "d": 725.9592395833324,
      "v": 89
    },
    {
      "midi": 86,
      "hit": false,
      "t": 7235.554010416651,
      "d": 788.459041666666,
      "v": 83
    },
    {
      "midi": 90,
      "hit": false,
      "t": 7240.361687499984,
      "d": 769.2283333333326,
      "v": 74
    },
    {
      "midi": 81,
      "hit": false,
      "t": 7240.361687499984,
      "d": 874.9972291666663,
      "v": 80
    },
    {
      "midi": 58,
      "hit": false,
      "t": 7240.361687499984,
      "d": 1014.419864583333,
      "v": 69
    },
    {
      "midi": 52,
      "hit": false,
      "t": 7245.1693645833175,
      "d": 971.1507708333329,
      "v": 84
    },
    {
      "midi": 62,
      "hit": false,
      "t": 7245.1693645833175,
      "d": 975.958447916667,
      "v": 81
    },
    {
      "midi": 58,
      "hit": false,
      "t": 8658.626427083318,
      "d": 129.80728125000132,
      "v": 25
    },
    {
      "midi": 66,
      "hit": false,
      "t": 8778.818354166651,
      "d": 105.76889583333468,
      "v": 67
    },
    {
      "midi": 62,
      "hit": false,
      "t": 8778.818354166651,
      "d": 144.23031250000167,
      "v": 60
    },
    {
      "midi": 78,
      "hit": false,
      "t": 8783.626031249985,
      "d": 187.4994062500009,
      "v": 69
    },
    {
      "midi": 73,
      "hit": false,
      "t": 8788.43370833332,
      "d": 168.2686979166665,
      "v": 60
    },
    {
      "midi": 57,
      "hit": false,
      "t": 9096.125041666653,
      "d": 692.3055000000004,
      "v": 53
    },
    {
      "midi": 79,
      "hit": false,
      "t": 9096.125041666653,
      "d": 831.7281354166662,
      "v": 75
    },
    {
      "midi": 67,
      "hit": false,
      "t": 9100.932718749988,
      "d": 644.2287291666671,
      "v": 63
    },
    {
      "midi": 69,
      "hit": false,
      "t": 9100.932718749988,
      "d": 653.8440833333334,
      "v": 70
    },
    {
      "midi": 62,
      "hit": false,
      "t": 9105.740395833322,
      "d": 668.2671145833319,
      "v": 61
    },
    {
      "midi": 74,
      "hit": false,
      "t": 9105.740395833322,
      "d": 826.9204583333321,
      "v": 80
    },
    {
      "midi": 77,
      "hit": false,
      "t": 10471.120687499988,
      "d": 134.61495833333174,
      "v": 105
    },
    {
      "midi": 67,
      "hit": false,
      "t": 10480.736041666654,
      "d": 81.73051041666622,
      "v": 83
    },
    {
      "midi": 57,
      "hit": false,
      "t": 10480.736041666654,
      "d": 91.34586458333251,
      "v": 81
    },
    {
      "midi": 62,
      "hit": false,
      "t": 10480.736041666654,
      "d": 100.9612187499988,
      "v": 78
    },
    {
      "midi": 57,
      "hit": false,
      "t": 10644.197062499987,
      "d": 72.11515625000175,
      "v": 54
    },
    {
      "midi": 67,
      "hit": false,
      "t": 10649.00473958332,
      "d": 72.11515625000175,
      "v": 53
    },
    {
      "midi": 62,
      "hit": false,
      "t": 10663.427770833321,
      "d": 81.73051041666804,
      "v": 42
    },
    {
      "midi": 79,
      "hit": false,
      "t": 10677.850802083321,
      "d": 28.8460625000007,
      "v": 33
    },
    {
      "midi": 76,
      "hit": false,
      "t": 10923.042333333322,
      "d": 105.76889583333468,
      "v": 85
    },
    {
      "midi": 72,
      "hit": false,
      "t": 10927.850010416656,
      "d": 100.96121875000063,
      "v": 83
    },
    {
      "midi": 84,
      "hit": false,
      "t": 10927.850010416656,
      "d": 115.38425000000097,
      "v": 89
    },
    {
      "midi": 79,
      "hit": false,
      "t": 10937.465364583322,
      "d": 96.15354166666839,
      "v": 75
    },
    {
      "midi": 62,
      "hit": false,
      "t": 10937.465364583322,
      "d": 110.57657291666874,
      "v": 80
    },
    {
      "midi": 56,
      "hit": false,
      "t": 10937.465364583322,
      "d": 115.3842500000028,
      "v": 75
    },
    {
      "midi": 65,
      "hit": false,
      "t": 10951.888395833323,
      "d": 24.038385416666642,
      "v": 76
    },
    {
      "midi": 79,
      "hit": false,
      "t": 11374.963979166658,
      "d": 447.1139687499999,
      "v": 84
    },
    {
      "midi": 76,
      "hit": false,
      "t": 11379.771656249992,
      "d": 548.0751875000005,
      "v": 80
    },
    {
      "midi": 72,
      "hit": false,
      "t": 11384.579333333326,
      "d": 442.30629166666586,
      "v": 82
    },
    {
      "midi": 67,
      "hit": false,
      "t": 11384.579333333326,
      "d": 447.1139687499999,
      "v": 80
    },
    {
      "midi": 62,
      "hit": false,
      "t": 11389.38701041666,
      "d": 413.46022916666516,
      "v": 80
    },
    {
      "midi": 56,
      "hit": false,
      "t": 11389.38701041666,
      "d": 447.1139687499999,
      "v": 80
    },
    {
      "midi": 69,
      "hit": false,
      "t": 11399.002364583326,
      "d": 19.230708333332586,
      "v": 59
    },
    {
      "midi": 67,
      "hit": false,
      "t": 11980.73129166666,
      "d": 62.499802083333634,
      "v": 48
    },
    {
      "midi": 56,
      "hit": false,
      "t": 11980.73129166666,
      "d": 76.92283333333398,
      "v": 50
    },
    {
      "midi": 77,
      "hit": false,
      "t": 11980.73129166666,
      "d": 96.15354166666657,
      "v": 57
    },
    {
      "midi": 62,
      "hit": false,
      "t": 11985.538968749994,
      "d": 57.69212499999958,
      "v": 58
    },
    {
      "midi": 72,
      "hit": false,
      "t": 12009.57735416666,
      "d": 19.230708333332586,
      "v": 26
    },
    {
      "midi": 72,
      "hit": false,
      "t": 12394.191520833327,
      "d": 115.38425000000097,
      "v": 78
    },
    {
      "midi": 62,
      "hit": false,
      "t": 12398.99919791666,
      "d": 72.11515624999993,
      "v": 66
    },
    {
      "midi": 79,
      "hit": false,
      "t": 12398.99919791666,
      "d": 86.53818750000028,
      "v": 74
    },
    {
      "midi": 67,
      "hit": false,
      "t": 12403.806874999995,
      "d": 120.19192708333321,
      "v": 72
    },
    {
      "midi": 56,
      "hit": false,
      "t": 12408.614552083329,
      "d": 115.38424999999916,
      "v": 57
    },
    {
      "midi": 54,
      "hit": false,
      "t": 12740.344270833328,
      "d": 57.6921250000014,
      "v": 32
    },
    {
      "midi": 56,
      "hit": false,
      "t": 12778.805687499995,
      "d": 91.34586458333433,
      "v": 58
    },
    {
      "midi": 62,
      "hit": false,
      "t": 12826.88245833333,
      "d": 76.92283333333216,
      "v": 69
    },
    {
      "midi": 72,
      "hit": false,
      "t": 12826.88245833333,
      "d": 105.76889583333286,
      "v": 70
    },
    {
      "midi": 67,
      "hit": false,
      "t": 12831.690135416664,
      "d": 76.92283333333216,
      "v": 64
    },
    {
      "midi": 57,
      "hit": false,
      "t": 12850.920843749996,
      "d": 134.61495833333356,
      "v": 64
    },
    {
      "midi": 61,
      "hit": false,
      "t": 12980.728124999996,
      "d": 28.8460625000007,
      "v": 42
    },
    {
      "midi": 56,
      "hit": false,
      "t": 12990.343479166664,
      "d": 96.15354166666657,
      "v": 33
    },
    {
      "midi": 72,
      "hit": false,
      "t": 13105.727729166663,
      "d": 312.49901041666817,
      "v": 66
    },
    {
      "midi": 62,
      "hit": false,
      "t": 13110.535406249997,
      "d": 269.2299166666671,
      "v": 68
    },
    {
      "midi": 57,
      "hit": false,
      "t": 13110.535406249997,
      "d": 312.49901041666817,
      "v": 74
    },
    {
      "midi": 67,
      "hit": false,
      "t": 13115.343083333331,
      "d": 288.4606249999997,
      "v": 66
    },
    {
      "midi": 65,
      "hit": false,
      "t": 13677.841302083332,
      "d": 57.6921250000014,
      "v": 66
    },
    {
      "midi": 77,
      "hit": false,
      "t": 13677.841302083332,
      "d": 81.73051041666804,
      "v": 69
    },
    {
      "midi": 72,
      "hit": false,
      "t": 13682.648979166666,
      "d": 96.15354166666657,
      "v": 62
    },
    {
      "midi": 57,
      "hit": false,
      "t": 13687.45665625,
      "d": 62.499802083333634,
      "v": 50
    },
    {
      "midi": 72,
      "hit": false,
      "t": 13836.494645833332,
      "d": 254.8068854166704,
      "v": 50
    },
    {
      "midi": 79,
      "hit": false,
      "t": 13841.302322916667,
      "d": 197.1147604166672,
      "v": 72
    },
    {
      "midi": 57,
      "hit": false,
      "t": 13841.302322916667,
      "d": 225.9608229166679,
      "v": 55
    },
    {
      "midi": 75,
      "hit": false,
      "t": 13841.302322916667,
      "d": 235.576177083336,
      "v": 37
    },
    {
      "midi": 67,
      "hit": false,
      "t": 13846.11,
      "d": 225.9608229166679,
      "v": 55
    },
    {
      "midi": 65,
      "hit": false,
      "t": 14153.801333333337,
      "d": 38.46141666666699,
      "v": 60
    },
    {
      "midi": 57,
      "hit": false,
      "t": 14153.801333333337,
      "d": 62.499802083333634,
      "v": 52
    },
    {
      "midi": 77,
      "hit": false,
      "t": 14158.60901041667,
      "d": 52.88444791666552,
      "v": 50
    },
    {
      "midi": 72,
      "hit": false,
      "t": 14158.60901041667,
      "d": 57.69212499999958,
      "v": 66
    },
    {
      "midi": 79,
      "hit": false,
      "t": 14615.338333333337,
      "d": 379.80648958333586,
      "v": 85
    },
    {
      "midi": 71,
      "hit": false,
      "t": 14615.338333333337,
      "d": 403.8448750000025,
      "v": 87
    },
    {
      "midi": 68,
      "hit": false,
      "t": 14620.14601041667,
      "d": 355.7681041666692,
      "v": 86
    },
    {
      "midi": 74,
      "hit": false,
      "t": 14624.953687500005,
      "d": 389.42184375000033,
      "v": 80
    },
    {
      "midi": 67,
      "hit": false,
      "t": 14629.761364583339,
      "d": 403.8448750000007,
      "v": 92
    },
    {
      "midi": 79,
      "hit": false,
      "t": 15081.683010416673,
      "d": 120.19192708333503,
      "v": 74
    },
    {
      "midi": 67,
      "hit": false,
      "t": 15081.683010416673,
      "d": 163.46102083333608,
      "v": 67
    },
    {
      "midi": 68,
      "hit": false,
      "t": 15086.490687500007,
      "d": 115.38425000000097,
      "v": 76
    },
    {
      "midi": 71,
      "hit": false,
      "t": 15091.298364583341,
      "d": 149.0379895833339,
      "v": 65
    },
    {
      "midi": 74,
      "hit": false,
      "t": 15100.913718750007,
      "d": 115.38425000000097,
      "v": 55
    },
    {
      "midi": 68,
      "hit": false,
      "t": 15264.374739583342,
      "d": 302.88365625000006,
      "v": 47
    },
    {
      "midi": 65,
      "hit": false,
      "t": 15269.182416666676,
      "d": 249.99920833333272,
      "v": 55
    },
    {
      "midi": 71,
      "hit": false,
      "t": 15278.797770833342,
      "d": 274.03759374999936,
      "v": 27
    },
    {
      "midi": 77,
      "hit": false,
      "t": 15293.220802083342,
      "d": 225.96082291666607,
      "v": 50
    },
    {
      "midi": 68,
      "hit": false,
      "t": 15687.450322916675,
      "d": 187.49940625000272,
      "v": 39
    },
    {
      "midi": 64,
      "hit": false,
      "t": 15692.258000000009,
      "d": 153.84566666666797,
      "v": 53
    },
    {
      "midi": 76,
      "hit": false,
      "t": 15697.065677083343,
      "d": 182.69172916666867,
      "v": 45
    },
    {
      "midi": 71,
      "hit": false,
      "t": 15721.10406250001,
      "d": 192.30708333333496,
      "v": 36
    },
    {
      "midi": 65,
      "hit": false,
      "t": 15985.526302083344,
      "d": 38.46141666666699,
      "v": 43
    },
    {
      "midi": 68,
      "hit": false,
      "t": 15985.526302083344,
      "d": 100.96121875000063,
      "v": 69
    },
    {
      "midi": 71,
      "hit": false,
      "t": 15995.14165625001,
      "d": 76.92283333333398,
      "v": 59
    },
    {
      "midi": 66,
      "hit": false,
      "t": 16278.794604166678,
      "d": 187.49940625000272,
      "v": 69
    },
    {
      "midi": 71,
      "hit": false,
      "t": 16283.602281250012,
      "d": 134.61495833333538,
      "v": 66
    },
    {
      "midi": 78,
      "hit": false,
      "t": 16283.602281250012,
      "d": 197.11476041666901,
      "v": 58
    },
    {
      "midi": 63,
      "hit": false,
      "t": 16288.409958333346,
      "d": 187.49940625000272,
      "v": 52
    },
    {
      "midi": 75,
      "hit": false,
      "t": 16288.409958333346,
      "d": 201.92243750000307,
      "v": 53
    },
    {
      "midi": 58,
      "hit": false,
      "t": 16293.21763541668,
      "d": 187.4994062500009,
      "v": 35
    },
    {
      "midi": 54,
      "hit": false,
      "t": 16293.21763541668,
      "d": 201.92243750000125,
      "v": 50
    },
    {
      "midi": 59,
      "hit": false,
      "t": 16298.025312500014,
      "d": 91.34586458333251,
      "v": 51
    },
    {
      "midi": 65,
      "hit": false,
      "t": 16600.908968750013,
      "d": 360.5757812499978,
      "v": 48
    },
    {
      "midi": 70,
      "hit": false,
      "t": 16600.908968750013,
      "d": 418.2679062499956,
      "v": 40
    },
    {
      "midi": 58,
      "hit": false,
      "t": 16600.908968750013,
      "d": 423.0755833333278,
      "v": 35
    },
    {
      "midi": 77,
      "hit": false,
      "t": 16600.908968750013,
      "d": 442.3062916666604,
      "v": 54
    },
    {
      "midi": 62,
      "hit": false,
      "t": 16605.716645833345,
      "d": 389.4218437499985,
      "v": 50
    },
    {
      "midi": 74,
      "hit": false,
      "t": 16610.524322916677,
      "d": 399.0371979166666,
      "v": 57
    },
    {
      "midi": 53,
      "hit": false,
      "t": 16615.33200000001,
      "d": 399.0371979166666,
      "v": 46
    },
    {
      "midi": 57,
      "hit": false,
      "t": 16615.33200000001,
      "d": 403.84487499999886,
      "v": 53
    },
    {
      "midi": 74,
      "hit": false,
      "t": 17384.56033333334,
      "d": 76.92283333333035,
      "v": 88
    },
    {
      "midi": 86,
      "hit": false,
      "t": 17384.56033333334,
      "d": 110.57657291666692,
      "v": 84
    },
    {
      "midi": 81,
      "hit": false,
      "t": 17389.36801041667,
      "d": 96.15354166666657,
      "v": 81
    },
    {
      "midi": 57,
      "hit": false,
      "t": 17389.36801041667,
      "d": 115.3842500000028,
      "v": 79
    },
    {
      "midi": 58,
      "hit": false,
      "t": 17389.36801041667,
      "d": 120.19192708333503,
      "v": 69
    },
    {
      "midi": 53,
      "hit": false,
      "t": 17394.175687500003,
      "d": 100.96121875000244,
      "v": 81
    },
    {
      "midi": 62,
      "hit": false,
      "t": 17394.175687500003,
      "d": 100.96121875000244,
      "v": 83
    },
    {
      "midi": 53,
      "hit": false,
      "t": 17562.44438541667,
      "d": 67.30747916666223,
      "v": 53
    },
    {
      "midi": 58,
      "hit": false,
      "t": 17562.44438541667,
      "d": 72.11515624999447,
      "v": 49
    },
    {
      "midi": 57,
      "hit": false,
      "t": 17567.252062500003,
      "d": 43.26909374999741,
      "v": 52
    },
    {
      "midi": 62,
      "hit": false,
      "t": 17567.252062500003,
      "d": 48.07677083332965,
      "v": 54
    },
    {
      "midi": 77,
      "hit": false,
      "t": 17572.059739583336,
      "d": 33.653739583332936,
      "v": 61
    },
    {
      "midi": 84,
      "hit": false,
      "t": 17572.059739583336,
      "d": 43.26909374999741,
      "v": 65
    },
    {
      "midi": 89,
      "hit": false,
      "t": 17572.059739583336,
      "d": 57.69212499999776,
      "v": 68
    },
    {
      "midi": 93,
      "hit": false,
      "t": 17841.28965625,
      "d": 129.8072812499995,
      "v": 76
    },
    {
      "midi": 58,
      "hit": false,
      "t": 17841.28965625,
      "d": 149.0379895833321,
      "v": 65
    },
    {
      "midi": 57,
      "hit": false,
      "t": 17846.09733333333,
      "d": 129.8072812499995,
      "v": 71
    },
    {
      "midi": 62,
      "hit": false,
      "t": 17846.09733333333,
      "d": 129.8072812499995,
      "v": 83
    },
    {
      "midi": 81,
      "hit": false,
      "t": 17850.905010416664,
      "d": 91.34586458333433,
      "v": 62
    },
    {
      "midi": 53,
      "hit": false,
      "t": 17850.905010416664,
      "d": 105.76889583333468,
      "v": 68
    },
    {
      "midi": 88,
      "hit": false,
      "t": 17850.905010416664,
      "d": 110.57657291666692,
      "v": 65
    },
    {
      "midi": 90,
      "hit": false,
      "t": 17855.712687499996,
      "d": 24.03838541666846,
      "v": 33
    },
    {
      "midi": 62,
      "hit": false,
      "t": 18302.82665625,
      "d": 149.0379895833321,
      "v": 88
    },
    {
      "midi": 57,
      "hit": false,
      "t": 18302.82665625,
      "d": 163.46102083333244,
      "v": 81
    },
    {
      "midi": 96,
      "hit": false,
      "t": 18307.63433333333,
      "d": 115.38424999999916,
      "v": 87
    },
    {
      "midi": 84,
      "hit": false,
      "t": 18307.63433333333,
      "d": 120.1919270833314,
      "v": 92
    },
    {
      "midi": 58,
      "hit": false,
      "t": 18307.63433333333,
      "d": 153.84566666666797,
      "v": 60
    },
    {
      "midi": 91,
      "hit": false,
      "t": 18312.442010416664,
      "d": 124.99960416666727,
      "v": 79
    },
    {
      "midi": 52,
      "hit": false,
      "t": 18312.442010416664,
      "d": 149.03798958333573,
      "v": 74
    },
    {
      "midi": 57,
      "hit": false,
      "t": 18764.36365625,
      "d": 562.4982187499954,
      "v": 88
    },
    {
      "midi": 90,
      "hit": false,
      "t": 18769.171333333332,
      "d": 105.76889583333104,
      "v": 86
    },
    {
      "midi": 96,
      "hit": false,
      "t": 18769.171333333332,
      "d": 528.8444791666625,
      "v": 92
    },
    {
      "midi": 62,
      "hit": false,
      "t": 18769.171333333332,
      "d": 572.1135729166635,
      "v": 89
    },
    {
      "midi": 58,
      "hit": false,
      "t": 18769.171333333332,
      "d": 576.9212499999958,
      "v": 64
    },
    {
      "midi": 84,
      "hit": false,
      "t": 18769.171333333332,
      "d": 591.3442812499961,
      "v": 95
    },
    {
      "midi": 52,
      "hit": false,
      "t": 18773.979010416664,
      "d": 533.6521562499984,
      "v": 81
    },
    {
      "midi": 91,
      "hit": false,
      "t": 18879.747906249995,
      "d": 451.92164583333215,
      "v": 47
    },
    {
      "midi": 62,
      "hit": false,
      "t": 19701.860687499993,
      "d": 326.9220416666649,
      "v": 81
    },
    {
      "midi": 80,
      "hit": false,
      "t": 19701.860687499993,
      "d": 341.34507291666523,
      "v": 93
    },
    {
      "midi": 92,
      "hit": false,
      "t": 19701.860687499993,
      "d": 346.15274999999747,
      "v": 91
    },
    {
      "midi": 87,
      "hit": false,
      "t": 19701.860687499993,
      "d": 350.9604270833297,
      "v": 88
    },
    {
      "midi": 67,
      "hit": false,
      "t": 19701.860687499993,
      "d": 360.5757812499978,
      "v": 92
    },
    {
      "midi": 56,
      "hit": false,
      "t": 19701.860687499993,
      "d": 413.46022916666334,
      "v": 83
    },
    {
      "midi": 64,
      "hit": false,
      "t": 20278.78193749999,
      "d": 48.07677083332965,
      "v": 60
    },
    {
      "midi": 91,
      "hit": false,
      "t": 20283.58961458332,
      "d": 48.07677083332965,
      "v": 67
    },
    {
      "midi": 79,
      "hit": false,
      "t": 20283.58961458332,
      "d": 52.884447916661884,
      "v": 60
    },
    {
      "midi": 55,
      "hit": false,
      "t": 20288.397291666653,
      "d": 38.46141666666517,
      "v": 49
    },
    {
      "midi": 60,
      "hit": false,
      "t": 20293.204968749986,
      "d": 28.8460625000007,
      "v": 37
    },
    {
      "midi": 88,
      "hit": false,
      "t": 20293.204968749986,
      "d": 28.8460625000007,
      "v": 40
    },
    {
      "midi": 84,
      "hit": false,
      "t": 20298.012645833318,
      "d": 28.8460625000007,
      "v": 44
    },
    {
      "midi": 57,
      "hit": false,
      "t": 20307.627999999986,
      "d": 33.6537395833293,
      "v": 39
    },
    {
      "midi": 64,
      "hit": false,
      "t": 21067.24097916665,
      "d": 144.23031249999622,
      "v": 75
    },
    {
      "midi": 88,
      "hit": false,
      "t": 21072.048656249983,
      "d": 149.03798958332845,
      "v": 68
    },
    {
      "midi": 57,
      "hit": false,
      "t": 21072.048656249983,
      "d": 153.8456666666607,
      "v": 64
    },
    {
      "midi": 76,
      "hit": false,
      "t": 21076.856333333315,
      "d": 115.38424999999916,
      "v": 57
    },
    {
      "midi": 55,
      "hit": false,
      "t": 21076.856333333315,
      "d": 134.61495833333174,
      "v": 68
    },
    {
      "midi": 60,
      "hit": false,
      "t": 21076.856333333315,
      "d": 139.42263541666398,
      "v": 61
    },
    {
      "midi": 84,
      "hit": false,
      "t": 21081.664010416647,
      "d": 129.8072812499995,
      "v": 37
    },
    {
      "midi": 81,
      "hit": false,
      "t": 21086.47168749998,
      "d": 105.76889583333468,
      "v": 42
    },
    {
      "midi": 74,
      "hit": false,
      "t": 21091.27936458331,
      "d": 24.03838541666846,
      "v": 24
    },
    {
      "midi": 79,
      "hit": false,
      "t": 21360.509281249975,
      "d": 110.57657291666328,
      "v": 80
    },
    {
      "midi": 91,
      "hit": false,
      "t": 21365.316958333307,
      "d": 24.038385416664823,
      "v": 78
    },
    {
      "midi": 84,
      "hit": false,
      "t": 21365.316958333307,
      "d": 105.76889583333104,
      "v": 80
    },
    {
      "midi": 64,
      "hit": false,
      "t": 21370.12463541664,
      "d": 129.8072812499995,
      "v": 81
    },
    {
      "midi": 88,
      "hit": false,
      "t": 21370.12463541664,
      "d": 129.8072812499995,
      "v": 69
    },
    {
      "midi": 55,
      "hit": false,
      "t": 21374.932312499972,
      "d": 96.15354166666657,
      "v": 72
    },
    {
      "midi": 57,
      "hit": false,
      "t": 21374.932312499972,
      "d": 124.99960416666727,
      "v": 67
    },
    {
      "midi": 60,
      "hit": false,
      "t": 21374.932312499972,
      "d": 129.8072812499995,
      "v": 72
    },
    {
      "midi": 83,
      "hit": false,
      "t": 21658.58526041664,
      "d": 52.88444791666552,
      "v": 78
    },
    {
      "midi": 95,
      "hit": false,
      "t": 21658.58526041664,
      "d": 81.73051041666622,
      "v": 85
    },
    {
      "midi": 88,
      "hit": false,
      "t": 21663.39293749997,
      "d": 38.46141666666517,
      "v": 74
    },
    {
      "midi": 55,
      "hit": false,
      "t": 21663.39293749997,
      "d": 120.19192708333503,
      "v": 79
    },
    {
      "midi": 64,
      "hit": false,
      "t": 21663.39293749997,
      "d": 129.80728125000314,
      "v": 73
    },
    {
      "midi": 60,
      "hit": false,
      "t": 21668.200614583304,
      "d": 124.9996041666709,
      "v": 64
    },
    {
      "midi": 91,
      "hit": false,
      "t": 21677.815968749972,
      "d": 33.653739583332936,
      "v": 37
    },
    {
      "midi": 57,
      "hit": false,
      "t": 21682.623645833304,
      "d": 33.653739583332936,
      "v": 44
    },
    {
      "midi": 98,
      "hit": false,
      "t": 21971.084270833308,
      "d": 129.8072812499995,
      "v": 91
    },
    {
      "midi": 86,
      "hit": false,
      "t": 21975.89194791664,
      "d": 76.92283333333398,
      "v": 94
    },
    {
      "midi": 92,
      "hit": false,
      "t": 21975.89194791664,
      "d": 110.57657291666692,
      "v": 85
    },
    {
      "midi": 95,
      "hit": false,
      "t": 21975.89194791664,
      "d": 124.99960416666727,
      "v": 87
    },
    {
      "midi": 54,
      "hit": false,
      "t": 21980.699624999972,
      "d": 96.15354166667021,
      "v": 86
    },
    {
      "midi": 64,
      "hit": false,
      "t": 21980.699624999972,
      "d": 96.15354166667021,
      "v": 91
    },
    {
      "midi": 60,
      "hit": false,
      "t": 21980.699624999972,
      "d": 100.96121875000244,
      "v": 83
    },
    {
      "midi": 96,
      "hit": false,
      "t": 21999.930333333305,
      "d": 24.03838541666846,
      "v": 34
    },
    {
      "midi": 54,
      "hit": false,
      "t": 22105.69922916664,
      "d": 72.11515625000175,
      "v": 50
    },
    {
      "midi": 86,
      "hit": false,
      "t": 22115.314583333307,
      "d": 72.11515625000175,
      "v": 55
    },
    {
      "midi": 60,
      "hit": false,
      "t": 22153.775999999973,
      "d": 67.30747916666951,
      "v": 44
    },
    {
      "midi": 64,
      "hit": false,
      "t": 22163.39135416664,
      "d": 62.499802083333634,
      "v": 53
    },
    {
      "midi": 92,
      "hit": false,
      "t": 22173.00670833331,
      "d": 76.92283333333035,
      "v": 52
    },
    {
      "midi": 95,
      "hit": false,
      "t": 22192.23741666664,
      "d": 38.46141666666517,
      "v": 36
    },
    {
      "midi": 98,
      "hit": false,
      "t": 22206.66044791664,
      "d": 43.26909374999741,
      "v": 48
    },
    {
      "midi": 54,
      "hit": false,
      "t": 22245.121864583307,
      "d": 72.11515624999811,
      "v": 60
    },
    {
      "midi": 86,
      "hit": false,
      "t": 22245.121864583307,
      "d": 72.11515624999811,
      "v": 57
    },
    {
      "midi": 60,
      "hit": false,
      "t": 22312.429343749973,
      "d": 72.11515624999447,
      "v": 38
    },
    {
      "midi": 92,
      "hit": false,
      "t": 22312.429343749973,
      "d": 76.92283333332671,
      "v": 57
    },
    {
      "midi": 64,
      "hit": false,
      "t": 22322.044697916637,
      "d": 72.11515624999447,
      "v": 41
    },
    {
      "midi": 98,
      "hit": false,
      "t": 22326.85237499997,
      "d": 52.88444791666552,
      "v": 33
    },
    {
      "midi": 95,
      "hit": false,
      "t": 22331.6600520833,
      "d": 24.03838541666846,
      "v": 49
    },
    {
      "midi": 86,
      "hit": false,
      "t": 22374.929145833303,
      "d": 52.884447916661884,
      "v": 47
    },
    {
      "midi": 54,
      "hit": false,
      "t": 22384.544499999967,
      "d": 72.11515624999811,
      "v": 59
    },
    {
      "midi": 92,
      "hit": false,
      "t": 22615.312999999966,
      "d": 43.26909375000105,
      "v": 81
    },
    {
      "midi": 98,
      "hit": false,
      "t": 22615.312999999966,
      "d": 57.6921250000014,
      "v": 83
    },
    {
      "midi": 86,
      "hit": false,
      "t": 22620.120677083298,
      "d": 24.03838541666846,
      "v": 83
    },
    {
      "midi": 60,
      "hit": false,
      "t": 22620.120677083298,
      "d": 52.88444791666916,
      "v": 81
    },
    {
      "midi": 54,
      "hit": false,
      "t": 22620.120677083298,
      "d": 57.6921250000014,
      "v": 83
    },
    {
      "midi": 64,
      "hit": false,
      "t": 22624.92835416663,
      "d": 48.07677083333692,
      "v": 85
    },
    {
      "midi": 95,
      "hit": false,
      "t": 22634.543708333298,
      "d": 14.42303125000035,
      "v": 69
    },
    {
      "midi": 92,
      "hit": false,
      "t": 22923.004333333298,
      "d": 298.0759791666642,
      "v": 85
    },
    {
      "midi": 54,
      "hit": false,
      "t": 22927.81201041663,
      "d": 274.03759374999936,
      "v": 86
    },
    {
      "midi": 95,
      "hit": false,
      "t": 22927.81201041663,
      "d": 274.03759374999936,
      "v": 85
    },
    {
      "midi": 98,
      "hit": false,
      "t": 22927.81201041663,
      "d": 274.03759374999936,
      "v": 87
    },
    {
      "midi": 64,
      "hit": false,
      "t": 22927.81201041663,
      "d": 278.8452708333316,
      "v": 91
    },
    {
      "midi": 86,
      "hit": false,
      "t": 22927.81201041663,
      "d": 317.3066875000004,
      "v": 91
    },
    {
      "midi": 60,
      "hit": false,
      "t": 22932.619687499962,
      "d": 249.99920833333454,
      "v": 83
    },
    {
      "midi": 60,
      "hit": false,
      "t": 23374.92597916663,
      "d": 24.03838541666846,
      "v": 65
    },
    {
      "midi": 94,
      "hit": false,
      "t": 23519.156291666633,
      "d": 115.38424999999916,
      "v": 82
    },
    {
      "midi": 60,
      "hit": false,
      "t": 23523.963968749966,
      "d": 28.8460625000007,
      "v": 71
    },
    {
      "midi": 54,
      "hit": false,
      "t": 23523.963968749966,
      "d": 52.88444791666552,
      "v": 74
    },
    {
      "midi": 64,
      "hit": false,
      "t": 23523.963968749966,
      "d": 81.73051041666622,
      "v": 84
    },
    {
      "midi": 82,
      "hit": false,
      "t": 23523.963968749966,
      "d": 134.61495833333538,
      "v": 79
    },
    {
      "midi": 87,
      "hit": false,
      "t": 23528.771645833298,
      "d": 96.15354166666657,
      "v": 74
    },
    {
      "midi": 93,
      "hit": false,
      "t": 23822.039947916634,
      "d": 624.9980208333327,
      "v": 94
    },
    {
      "midi": 90,
      "hit": false,
      "t": 23822.039947916634,
      "d": 677.8824687499982,
      "v": 79
    },
    {
      "midi": 66,
      "hit": false,
      "t": 23826.847624999966,
      "d": 605.7673125000001,
      "v": 90
    },
    {
      "midi": 81,
      "hit": false,
      "t": 23826.847624999966,
      "d": 629.8056979166686,
      "v": 91
    },
    {
      "midi": 61,
      "hit": false,
      "t": 23826.847624999966,
      "d": 668.2671145833338,
      "v": 76
    },
    {
      "midi": 86,
      "hit": false,
      "t": 23826.847624999966,
      "d": 692.3054999999986,
      "v": 87
    },
    {
      "midi": 57,
      "hit": false,
      "t": 23831.655302083298,
      "d": 610.574989583336,
      "v": 80
    },
    {
      "midi": 62,
      "hit": false,
      "t": 23831.655302083298,
      "d": 610.574989583336,
      "v": 82
    },
    {
      "midi": 78,
      "hit": false,
      "t": 24764.344656249963,
      "d": 67.30747916666587,
      "v": 55
    },
    {
      "midi": 90,
      "hit": false,
      "t": 24764.344656249963,
      "d": 72.11515624999811,
      "v": 61
    },
    {
      "midi": 66,
      "hit": false,
      "t": 24773.96001041663,
      "d": 52.88444791666552,
      "v": 62
    },
    {
      "midi": 62,
      "hit": false,
      "t": 24783.5753645833,
      "d": 33.653739583332936,
      "v": 48
    },
    {
      "midi": 57,
      "hit": false,
      "t": 24788.38304166663,
      "d": 33.653739583332936,
      "v": 33
    },
    {
      "midi": 61,
      "hit": false,
      "t": 24793.190718749964,
      "d": 43.26909374999741,
      "v": 33
    },
    {
      "midi": 66,
      "hit": false,
      "t": 24932.613354166628,
      "d": 24.038385416664823,
      "v": 33
    },
    {
      "midi": 81,
      "hit": false,
      "t": 24932.613354166628,
      "d": 24.038385416664823,
      "v": 64
    },
    {
      "midi": 62,
      "hit": false,
      "t": 24937.42103124996,
      "d": 28.8460625000007,
      "v": 52
    },
    {
      "midi": 61,
      "hit": false,
      "t": 24937.42103124996,
      "d": 67.30747916666951,
      "v": 37
    },
    {
      "midi": 57,
      "hit": false,
      "t": 24942.228708333292,
      "d": 33.653739583336574,
      "v": 34
    },
    {
      "midi": 93,
      "hit": false,
      "t": 24947.036385416624,
      "d": 28.846062500004336,
      "v": 44
    },
    {
      "midi": 66,
      "hit": false,
      "t": 25355.688937499963,
      "d": 115.38424999999916,
      "v": 68
    },
    {
      "midi": 57,
      "hit": false,
      "t": 25365.30429166663,
      "d": 62.499802083329996,
      "v": 53
    },
    {
      "midi": 85,
      "hit": false,
      "t": 25365.30429166663,
      "d": 62.499802083329996,
      "v": 73
    },
    {
      "midi": 62,
      "hit": false,
      "t": 25370.111968749963,
      "d": 86.53818749999846,
      "v": 58
    },
    {
      "midi": 97,
      "hit": false,
      "t": 25370.111968749963,
      "d": 96.15354166666657,
      "v": 76
    },
    {
      "midi": 61,
      "hit": false,
      "t": 25374.919645833295,
      "d": 134.61495833333174,
      "v": 39
    },
    {
      "midi": 88,
      "hit": false,
      "t": 25831.648968749963,
      "d": 173.07637499999691,
      "v": 61
    },
    {
      "midi": 100,
      "hit": false,
      "t": 25831.648968749963,
      "d": 187.49940624999363,
      "v": 66
    },
    {
      "midi": 96,
      "hit": false,
      "t": 25836.456645833296,
      "d": 177.88405208332915,
      "v": 61
    },
    {
      "midi": 56,
      "hit": false,
      "t": 25841.264322916628,
      "d": 168.26869791666468,
      "v": 47
    },
    {
      "midi": 67,
      "hit": false,
      "t": 25841.264322916628,
      "d": 168.26869791666468,
      "v": 56
    },
    {
      "midi": 62,
      "hit": false,
      "t": 25841.264322916628,
      "d": 182.6917291666614,
      "v": 54
    },
    {
      "midi": 100,
      "hit": false,
      "t": 26124.917270833288,
      "d": 124.99960416666363,
      "v": 79
    },
    {
      "midi": 56,
      "hit": false,
      "t": 26129.72494791662,
      "d": 100.9612187499988,
      "v": 77
    },
    {
      "midi": 67,
      "hit": false,
      "t": 26129.72494791662,
      "d": 110.57657291666692,
      "v": 85
    },
    {
      "midi": 62,
      "hit": false,
      "t": 26129.72494791662,
      "d": 115.38424999999916,
      "v": 74
    },
    {
      "midi": 88,
      "hit": false,
      "t": 26134.532624999953,
      "d": 96.15354166666657,
      "v": 75
    },
    {
      "midi": 96,
      "hit": false,
      "t": 26134.532624999953,
      "d": 105.76889583333468,
      "v": 84
    },
    {
      "midi": 67,
      "hit": false,
      "t": 26302.801322916617,
      "d": 177.88405208332915,
      "v": 74
    },
    {
      "midi": 62,
      "hit": false,
      "t": 26302.801322916617,
      "d": 192.3070833333295,
      "v": 71
    },
    {
      "midi": 56,
      "hit": false,
      "t": 26307.60899999995,
      "d": 163.46102083333244,
      "v": 77
    },
    {
      "midi": 100,
      "hit": false,
      "t": 26307.60899999995,
      "d": 168.26869791666468,
      "v": 62
    },
    {
      "midi": 96,
      "hit": false,
      "t": 26312.41667708328,
      "d": 187.49940624999726,
      "v": 72
    },
    {
      "midi": 88,
      "hit": false,
      "t": 26317.224354166614,
      "d": 158.6533437500002,
      "v": 73
    },
    {
      "midi": 56,
      "hit": false,
      "t": 26581.646593749945,
      "d": 115.38424999999916,
      "v": 80
    },
    {
      "midi": 67,
      "hit": false,
      "t": 26581.646593749945,
      "d": 120.1919270833314,
      "v": 85
    },
    {
      "midi": 100,
      "hit": false,
      "t": 26586.454270833277,
      "d": 86.53818749999846,
      "v": 77
    },
    {
      "midi": 62,
      "hit": false,
      "t": 26586.454270833277,
      "d": 124.99960416666727,
      "v": 76
    },
    {
      "midi": 88,
      "hit": false,
      "t": 26591.26194791661,
      "d": 96.15354166666657,
      "v": 78
    },
    {
      "midi": 96,
      "hit": false,
      "t": 26591.26194791661,
      "d": 105.76889583333468,
      "v": 82
    },
    {
      "midi": 96,
      "hit": false,
      "t": 26817.22277083328,
      "d": 28.84606249999706,
      "v": 68
    },
    {
      "midi": 100,
      "hit": false,
      "t": 26817.22277083328,
      "d": 28.84606249999706,
      "v": 60
    },
    {
      "midi": 88,
      "hit": false,
      "t": 26817.22277083328,
      "d": 62.499802083329996,
      "v": 74
    },
    {
      "midi": 56,
      "hit": false,
      "t": 26822.03044791661,
      "d": 62.499802083329996,
      "v": 63
    },
    {
      "midi": 62,
      "hit": false,
      "t": 26826.838124999944,
      "d": 48.076770833333285,
      "v": 63
    },
    {
      "midi": 67,
      "hit": false,
      "t": 26826.838124999944,
      "d": 48.076770833333285,
      "v": 69
    },
    {
      "midi": 97,
      "hit": false,
      "t": 27081.645010416607,
      "d": 76.92283333333398,
      "v": 81
    },
    {
      "midi": 85,
      "hit": false,
      "t": 27086.45268749994,
      "d": 62.499802083333634,
      "v": 81
    },
    {
      "midi": 62,
      "hit": false,
      "t": 27086.45268749994,
      "d": 100.96121875000244,
      "v": 72
    },
    {
      "midi": 67,
      "hit": false,
      "t": 27091.26036458327,
      "d": 124.9996041666709,
      "v": 78
    },
    {
      "midi": 56,
      "hit": false,
      "t": 27091.26036458327,
      "d": 216.34546875000524,
      "v": 71
    },
    {
      "midi": 93,
      "hit": false,
      "t": 27519.143624999942,
      "d": 336.53739583332936,
      "v": 103
    },
    {
      "midi": 61,
      "hit": false,
      "t": 27519.143624999942,
      "d": 692.3054999999986,
      "v": 74
    },
    {
      "midi": 81,
      "hit": false,
      "t": 27523.951302083275,
      "d": 374.99881249999817,
      "v": 99
    },
    {
      "midi": 64,
      "hit": false,
      "t": 27523.951302083275,
      "d": 624.9980208333327,
      "v": 88
    },
    {
      "midi": 59,
      "hit": false,
      "t": 27528.758979166607,
      "d": 620.1903437500005,
      "v": 81
    },
    {
      "midi": 54,
      "hit": false,
      "t": 27528.758979166607,
      "d": 634.6133750000008,
      "v": 78
    },
    {
      "midi": 64,
      "hit": false,
      "t": 28600.87096874994,
      "d": 38.461416666661535,
      "v": 58
    },
    {
      "midi": 66,
      "hit": false,
      "t": 28600.87096874994,
      "d": 43.26909374999377,
      "v": 50
    },
    {
      "midi": 61,
      "hit": false,
      "t": 28605.67864583327,
      "d": 62.49980208332636,
      "v": 39
    },
    {
      "midi": 54,
      "hit": false,
      "t": 28610.486322916604,
      "d": 38.461416666661535,
      "v": 34
    },
    {
      "midi": 71,
      "hit": false,
      "t": 28615.293999999936,
      "d": 28.84606249999706,
      "v": 44
    },
    {
      "midi": 59,
      "hit": false,
      "t": 28620.10167708327,
      "d": 33.6537395833293,
      "v": 37
    },
    {
      "midi": 55,
      "hit": false,
      "t": 29365.29162499993,
      "d": 360.5757812499978,
      "v": 82
    },
    {
      "midi": 63,
      "hit": false,
      "t": 29365.29162499993,
      "d": 389.4218437499985,
      "v": 91
    },
    {
      "midi": 75,
      "hit": false,
      "t": 29370.09930208326,
      "d": 384.6141666666663,
      "v": 98
    },
    {
      "midi": 87,
      "hit": false,
      "t": 29370.09930208326,
      "d": 389.4218437499985,
      "v": 95
    },
    {
      "midi": 60,
      "hit": false,
      "t": 29370.09930208326,
      "d": 423.07558333333145,
      "v": 75
    },
    {
      "midi": 57,
      "hit": false,
      "t": 29374.906979166593,
      "d": 374.9988125000018,
      "v": 72
    },
    {
      "midi": 87,
      "hit": false,
      "t": 29841.251656249926,
      "d": 105.76889583333104,
      "v": 81
    },
    {
      "midi": 75,
      "hit": false,
      "t": 29841.251656249926,
      "d": 129.8072812499995,
      "v": 78
    },
    {
      "midi": 63,
      "hit": false,
      "t": 29846.059333333258,
      "d": 81.73051041666622,
      "v": 70
    },
    {
      "midi": 55,
      "hit": false,
      "t": 29846.059333333258,
      "d": 100.9612187499988,
      "v": 71
    },
    {
      "midi": 60,
      "hit": false,
      "t": 29850.86701041659,
      "d": 124.99960416666727,
      "v": 65
    },
    {
      "midi": 57,
      "hit": false,
      "t": 29860.48236458326,
      "d": 96.15354166666657,
      "v": 62
    },
    {
      "midi": 63,
      "hit": false,
      "t": 30009.52035416659,
      "d": 62.499802083329996,
      "v": 50
    },
    {
      "midi": 55,
      "hit": false,
      "t": 30014.328031249923,
      "d": 72.11515624999811,
      "v": 51
    },
    {
      "midi": 86,
      "hit": false,
      "t": 30019.135708333255,
      "d": 43.26909374999741,
      "v": 65
    },
    {
      "midi": 60,
      "hit": false,
      "t": 30023.943385416587,
      "d": 86.5381875000021,
      "v": 29
    },
    {
      "midi": 74,
      "hit": false,
      "t": 30028.75106249992,
      "d": 33.653739583332936,
      "v": 52
    },
    {
      "midi": 55,
      "hit": false,
      "t": 30283.55794791659,
      "d": 57.6921250000014,
      "v": 53
    },
    {
      "midi": 63,
      "hit": false,
      "t": 30288.365624999922,
      "d": 91.34586458333797,
      "v": 64
    },
    {
      "midi": 86,
      "hit": false,
      "t": 30297.98097916659,
      "d": 57.6921250000014,
      "v": 78
    },
    {
      "midi": 60,
      "hit": false,
      "t": 30302.788656249922,
      "d": 38.46141666666881,
      "v": 43
    },
    {
      "midi": 74,
      "hit": false,
      "t": 30302.788656249922,
      "d": 62.49980208333727,
      "v": 73
    },
    {
      "midi": 76,
      "hit": false,
      "t": 30322.01936458326,
      "d": 28.8460625000007,
      "v": 34
    },
    {
      "midi": 60,
      "hit": false,
      "t": 30451.826645833262,
      "d": 33.6537395833293,
      "v": 38
    },
    {
      "midi": 84,
      "hit": false,
      "t": 30456.634322916594,
      "d": 24.038385416664823,
      "v": 59
    },
    {
      "midi": 62,
      "hit": false,
      "t": 30461.441999999926,
      "d": 28.84606249999706,
      "v": 45
    },
    {
      "midi": 54,
      "hit": false,
      "t": 30461.441999999926,
      "d": 33.6537395833293,
      "v": 43
    },
    {
      "midi": 58,
      "hit": false,
      "t": 30759.51797916659,
      "d": 427.8832604166637,
      "v": 67
    },
    {
      "midi": 60,
      "hit": false,
      "t": 30764.325656249923,
      "d": 269.2299166666635,
      "v": 68
    },
    {
      "midi": 70,
      "hit": false,
      "t": 30764.325656249923,
      "d": 288.46062499999607,
      "v": 84
    },
    {
      "midi": 82,
      "hit": false,
      "t": 30764.325656249923,
      "d": 312.49901041666453,
      "v": 82
    },
    {
      "midi": 54,
      "hit": false,
      "t": 30764.325656249923,
      "d": 427.8832604166637,
      "v": 74
    },
    {
      "midi": 62,
      "hit": false,
      "t": 30769.133333333255,
      "d": 394.22952083333075,
      "v": 76
    },
    {
      "midi": 62,
      "hit": false,
      "t": 31225.86265624992,
      "d": 980.7661249999983,
      "v": 79
    },
    {
      "midi": 81,
      "hit": false,
      "t": 31230.67033333325,
      "d": 913.4586458333324,
      "v": 89
    },
    {
      "midi": 57,
      "hit": false,
      "t": 31230.67033333325,
      "d": 975.958447916666,
      "v": 75
    },
    {
      "midi": 58,
      "hit": false,
      "t": 31230.67033333325,
      "d": 980.7661249999983,
      "v": 76
    },
    {
      "midi": 69,
      "hit": false,
      "t": 31235.478010416584,
      "d": 961.5354166666657,
      "v": 91
    },
    {
      "midi": 53,
      "hit": false,
      "t": 31235.478010416584,
      "d": 980.7661249999983,
      "v": 73
    },
    {
      "midi": 74,
      "hit": false,
      "t": 31235.478010416584,
      "d": 995.1891562499986,
      "v": 91
    },
    {
      "midi": 80,
      "hit": false,
      "t": 31240.285687499916,
      "d": 62.499802083333634,
      "v": 62
    },
    {
      "midi": 71,
      "hit": false,
      "t": 31259.51639583325,
      "d": 28.8460625000007,
      "v": 36
    },
    {
      "midi": 58,
      "hit": false,
      "t": 32312.39767708325,
      "d": 33.6537395833293,
      "v": 40
    },
    {
      "midi": 62,
      "hit": false,
      "t": 32317.20535416658,
      "d": 28.84606249999706,
      "v": 49
    },
    {
      "midi": 79,
      "hit": false,
      "t": 32317.20535416658,
      "d": 43.26909374999377,
      "v": 37
    },
    {
      "midi": 67,
      "hit": false,
      "t": 32322.013031249913,
      "d": 28.84606249999706,
      "v": 36
    },
    {
      "midi": 74,
      "hit": false,
      "t": 32322.013031249913,
      "d": 38.461416666661535,
      "v": 34
    },
    {
      "midi": 57,
      "hit": false,
      "t": 32326.820708333245,
      "d": 28.84606249999706,
      "v": 31
    },
    {
      "midi": 81,
      "hit": false,
      "t": 32764.319322916574,
      "d": 57.692125000005035,
      "v": 62
    },
    {
      "midi": 62,
      "hit": false,
      "t": 32769.126999999906,
      "d": 33.653739583336574,
      "v": 61
    },
    {
      "midi": 69,
      "hit": false,
      "t": 32773.93467708324,
      "d": 52.8844479166728,
      "v": 63
    },
    {
      "midi": 74,
      "hit": false,
      "t": 32778.74235416658,
      "d": 28.8460625000007,
      "v": 61
    },
    {
      "midi": 58,
      "hit": false,
      "t": 32778.74235416658,
      "d": 62.49980208333727,
      "v": 40
    },
    {
      "midi": 72,
      "hit": false,
      "t": 33225.85632291658,
      "d": 62.49980208334455,
      "v": 73
    },
    {
      "midi": 63,
      "hit": false,
      "t": 33230.66399999992,
      "d": 43.269093750008324,
      "v": 77
    },
    {
      "midi": 68,
      "hit": false,
      "t": 33235.47167708325,
      "d": 52.8844479166728,
      "v": 62
    },
    {
      "midi": 58,
      "hit": false,
      "t": 33240.27935416659,
      "d": 173.07637500001874,
      "v": 68
    },
    {
      "midi": 64,
      "hit": false,
      "t": 33245.087031249925,
      "d": 24.038385416664823,
      "v": 68
    },
    {
      "midi": 63,
      "hit": false,
      "t": 33346.04824999993,
      "d": 43.269093750008324,
      "v": 56
    },
    {
      "midi": 72,
      "hit": false,
      "t": 33350.85592708326,
      "d": 33.653739583336574,
      "v": 39
    },
    {
      "midi": 68,
      "hit": false,
      "t": 33355.6636041666,
      "d": 38.46141666667245,
      "v": 43
    },
    {
      "midi": 64,
      "hit": false,
      "t": 33360.471281249935,
      "d": 33.653739583336574,
      "v": 36
    },
    {
      "midi": 63,
      "hit": false,
      "t": 33668.16261458327,
      "d": 149.0379895833321,
      "v": 76
    },
    {
      "midi": 68,
      "hit": false,
      "t": 33668.16261458327,
      "d": 153.84566666666797,
      "v": 74
    },
    {
      "midi": 64,
      "hit": false,
      "t": 33672.97029166661,
      "d": 91.3458645833307,
      "v": 67
    },
    {
      "midi": 72,
      "hit": false,
      "t": 33672.97029166661,
      "d": 120.1919270833314,
      "v": 78
    },
    {
      "midi": 58,
      "hit": false,
      "t": 33682.58564583327,
      "d": 139.42263541666762,
      "v": 59
    },
    {
      "midi": 69,
      "hit": false,
      "t": 33980.66162499994,
      "d": 134.61495833333174,
      "v": 79
    },
    {
      "midi": 58,
      "hit": false,
      "t": 33985.46930208328,
      "d": 149.0379895833321,
      "v": 71
    },
    {
      "midi": 64,
      "hit": false,
      "t": 33985.46930208328,
      "d": 153.84566666666797,
      "v": 71
    },
    {
      "midi": 57,
      "hit": false,
      "t": 33995.08465624994,
      "d": 201.9224375000049,
      "v": 71
    },
    {
      "midi": 67,
      "hit": false,
      "t": 34221.04547916661,
      "d": 187.49940625000454,
      "v": 55
    },
    {
      "midi": 58,
      "hit": false,
      "t": 34225.85315624995,
      "d": 158.65334375000384,
      "v": 34
    },
    {
      "midi": 61,
      "hit": false,
      "t": 34245.083864583285,
      "d": 134.61495833333174,
      "v": 38
    },
    {
      "midi": 55,
      "hit": false,
      "t": 34245.083864583285,
      "d": 249.99920833333454,
      "v": 43
    },
    {
      "midi": 58,
      "hit": false,
      "t": 34461.42933333328,
      "d": 86.53818750000937,
      "v": 74
    },
    {
      "midi": 69,
      "hit": false,
      "t": 34471.04468749995,
      "d": 24.0383854166721,
      "v": 70
    },
    {
      "midi": 61,
      "hit": false,
      "t": 34471.04468749995,
      "d": 86.53818750000937,
      "v": 59
    },
    {
      "midi": 57,
      "hit": false,
      "t": 34475.85236458328,
      "d": 38.46141666667245,
      "v": 67
    },
    {
      "midi": 64,
      "hit": false,
      "t": 34475.85236458328,
      "d": 52.8844479166728,
      "v": 67
    },
    {
      "midi": 67,
      "hit": false,
      "t": 34480.66004166662,
      "d": 28.8460625000007,
      "v": 36
    },
    {
      "midi": 58,
      "hit": false,
      "t": 34874.88956249996,
      "d": 456.7293229166753,
      "v": 74
    },
    {
      "midi": 62,
      "hit": false,
      "t": 34879.69723958329,
      "d": 399.0371979166666,
      "v": 79
    },
    {
      "midi": 53,
      "hit": false,
      "t": 34879.69723958329,
      "d": 447.11396875000355,
      "v": 80
    },
    {
      "midi": 50,
      "hit": false,
      "t": 34884.50491666663,
      "d": 528.8444791666698,
      "v": 73
    },
    {
      "midi": 49,
      "hit": false,
      "t": 34908.54330208329,
      "d": 28.8460625000007,
      "v": 44
    },
    {
      "midi": 49,
      "hit": false,
      "t": 35394.11868749996,
      "d": 81.7305104166735,
      "v": 49
    },
    {
      "midi": 51,
      "hit": false,
      "t": 35418.157072916634,
      "d": 91.34586458333797,
      "v": 50
    },
    {
      "midi": 50,
      "hit": false,
      "t": 35456.6184895833,
      "d": 38.46141666667245,
      "v": 16
    },
    {
      "midi": 53,
      "hit": false,
      "t": 35495.07990624997,
      "d": 24.0383854166721,
      "v": 55
    },
    {
      "midi": 67,
      "hit": false,
      "t": 35495.07990624997,
      "d": 240.38385416667006,
      "v": 72
    },
    {
      "midi": 58,
      "hit": false,
      "t": 35499.88758333331,
      "d": 384.61416666667355,
      "v": 69
    },
    {
      "midi": 65,
      "hit": false,
      "t": 35509.50293749997,
      "d": 230.7685000000056,
      "v": 62
    },
    {
      "midi": 62,
      "hit": false,
      "t": 35514.31061458331,
      "d": 346.1527500000011,
      "v": 58
    },
    {
      "midi": 55,
      "hit": false,
      "t": 35514.31061458331,
      "d": 451.9216458333467,
      "v": 83
    },
    {
      "midi": 53,
      "hit": false,
      "t": 35865.271041666645,
      "d": 91.34586458333797,
      "v": 31
    },
    {
      "midi": 54,
      "hit": false,
      "t": 35889.30942708332,
      "d": 62.499802083329996,
      "v": 37
    },
    {
      "midi": 58,
      "hit": false,
      "t": 35961.42458333332,
      "d": 259.61456250001356,
      "v": 62
    },
    {
      "midi": 57,
      "hit": false,
      "t": 35966.232260416655,
      "d": 394.2295208333453,
      "v": 55
    },
    {
      "midi": 69,
      "hit": false,
      "t": 35971.03993749999,
      "d": 249.9992083333418,
      "v": 62
    },
    {
      "midi": 65,
      "hit": false,
      "t": 35975.84761458333,
      "d": 269.22991666667076,
      "v": 57
    },
    {
      "midi": 62,
      "hit": false,
      "t": 35980.65529166666,
      "d": 235.5761770833342,
      "v": 60
    },
    {
      "midi": 58,
      "hit": false,
      "t": 36288.346625,
      "d": 105.76889583333832,
      "v": 49
    },
    {
      "midi": 62,
      "hit": false,
      "t": 36297.96197916666,
      "d": 91.34586458333797,
      "v": 55
    },
    {
      "midi": 55,
      "hit": false,
      "t": 36297.96197916666,
      "d": 100.96121875000972,
      "v": 60
    },
    {
      "midi": 67,
      "hit": false,
      "t": 36302.76965625,
      "d": 115.38425000001007,
      "v": 58
    },
    {
      "midi": 65,
      "hit": false,
      "t": 36336.423395833335,
      "d": 38.46141666666517,
      "v": 30
    },
    {
      "midi": 55,
      "hit": false,
      "t": 36725.845239583345,
      "d": 62.49980208334455,
      "v": 71
    },
    {
      "midi": 58,
      "hit": false,
      "t": 36745.07594791668,
      "d": 264.42223958334216,
      "v": 83
    },
    {
      "midi": 61,
      "hit": false,
      "t": 36745.07594791668,
      "d": 302.8836562500146,
      "v": 83
    },
    {
      "midi": 69,
      "hit": false,
      "t": 36745.07594791668,
      "d": 307.6913333333505,
      "v": 84
    },
    {
      "midi": 64,
      "hit": false,
      "t": 36749.88362500002,
      "d": 293.26830208334286,
      "v": 77
    },
    {
      "midi": 57,
      "hit": false,
      "t": 36754.69130208335,
      "d": 283.6529479166711,
      "v": 81
    },
    {
      "midi": 69,
      "hit": false,
      "t": 37240.26668750003,
      "d": 43.26909375000105,
      "v": 74
    },
    {
      "midi": 74,
      "hit": false,
      "t": 37370.07396875003,
      "d": 96.15354166666657,
      "v": 64
    },
    {
      "midi": 78,
      "hit": false,
      "t": 37499.881250000035,
      "d": 48.07677083333692,
      "v": 62
    },
    {
      "midi": 81,
      "hit": false,
      "t": 37605.65014583337,
      "d": 57.6921250000014,
      "v": 75
    },
    {
      "midi": 86,
      "hit": false,
      "t": 37716.22671875004,
      "d": 52.88444791666552,
      "v": 76
    },
    {
      "midi": 58,
      "hit": false,
      "t": 37812.38026041671,
      "d": 331.72971875000803,
      "v": 45
    },
    {
      "midi": 62,
      "hit": false,
      "t": 37821.99561458337,
      "d": 346.15275000001566,
      "v": 54
    },
    {
      "midi": 57,
      "hit": false,
      "t": 37831.610968750036,
      "d": 331.7297187500153,
      "v": 46
    },
    {
      "midi": 90,
      "hit": false,
      "t": 37836.41864583337,
      "d": 19.230708333336224,
      "v": 69
    },
    {
      "midi": 52,
      "hit": false,
      "t": 37850.84167708337,
      "d": 740.3822708333537,
      "v": 42
    },
    {
      "midi": 89,
      "hit": false,
      "t": 37860.457031250044,
      "d": 28.8460625000007,
      "v": 52
    },
    {
      "midi": 93,
      "hit": false,
      "t": 37956.61057291671,
      "d": 274.03759375000664,
      "v": 84
    },
    {
      "midi": 91,
      "hit": false,
      "t": 38288.34029166672,
      "d": 201.9224375000049,
      "v": 78
    },
    {
      "midi": 58,
      "hit": false,
      "t": 38293.147968750054,
      "d": 139.42263541666762,
      "v": 45
    },
    {
      "midi": 57,
      "hit": false,
      "t": 38293.147968750054,
      "d": 225.9608229166697,
      "v": 54
    },
    {
      "midi": 62,
      "hit": false,
      "t": 38297.95564583339,
      "d": 144.23031249999622,
      "v": 49
    },
    {
      "midi": 57,
      "hit": false,
      "t": 38567.18556250006,
      "d": 100.96121875000244,
      "v": 14
    },
    {
      "midi": 62,
      "hit": false,
      "t": 38576.800916666725,
      "d": 57.6921250000014,
      "v": 45
    },
    {
      "midi": 90,
      "hit": false,
      "t": 38576.800916666725,
      "d": 129.80728125000314,
      "v": 77
    },
    {
      "midi": 58,
      "hit": false,
      "t": 38581.60859375006,
      "d": 43.26909375000105,
      "v": 32
    },
    {
      "midi": 64,
      "hit": false,
      "t": 38721.03122916673,
      "d": 149.03798958333937,
      "v": 61
    },
    {
      "midi": 60,
      "hit": false,
      "t": 38735.45426041673,
      "d": 33.65373958334385,
      "v": 45
    },
    {
      "midi": 57,
      "hit": false,
      "t": 38735.45426041673,
      "d": 115.38425000001007,
      "v": 43
    },
    {
      "midi": 91,
      "hit": false,
      "t": 38740.261937500065,
      "d": 144.2303125000035,
      "v": 66
    },
    {
      "midi": 86,
      "hit": false,
      "t": 38745.0696145834,
      "d": 115.3842500000028,
      "v": 54
    },
    {
      "midi": 53,
      "hit": false,
      "t": 38764.30032291674,
      "d": 124.99960416666727,
      "v": 17
    },
    {
      "midi": 91,
      "hit": false,
      "t": 39014.29953125007,
      "d": 52.8844479166728,
      "v": 66
    },
    {
      "midi": 64,
      "hit": false,
      "t": 39019.10720833341,
      "d": 48.07677083333692,
      "v": 64
    },
    {
      "midi": 79,
      "hit": false,
      "t": 39023.91488541674,
      "d": 28.8460625000007,
      "v": 50
    },
    {
      "midi": 86,
      "hit": false,
      "t": 39028.72256250008,
      "d": 19.23070833332895,
      "v": 64
    },
    {
      "midi": 60,
      "hit": false,
      "t": 39028.72256250008,
      "d": 24.038385416664823,
      "v": 50
    },
    {
      "midi": 57,
      "hit": false,
      "t": 39028.72256250008,
      "d": 33.6537395833293,
      "v": 47
    },
    {
      "midi": 53,
      "hit": false,
      "t": 39038.337916666744,
      "d": 33.653739583336574,
      "v": 28
    },
    {
      "midi": 89,
      "hit": false,
      "t": 39519.10562500008,
      "d": 524.0368020833412,
      "v": 88
    },
    {
      "midi": 84,
      "hit": false,
      "t": 39523.91330208341,
      "d": 504.80609375000495,
      "v": 92
    },
    {
      "midi": 64,
      "hit": false,
      "t": 39523.91330208341,
      "d": 519.2291250000053,
      "v": 85
    },
    {
      "midi": 53,
      "hit": false,
      "t": 39523.91330208341,
      "d": 524.0368020833412,
      "v": 77
    },
    {
      "midi": 57,
      "hit": false,
      "t": 39523.91330208341,
      "d": 533.6521562500056,
      "v": 71
    },
    {
      "midi": 77,
      "hit": false,
      "t": 39528.72097916675,
      "d": 480.76770833333285,
      "v": 90
    },
    {
      "midi": 60,
      "hit": false,
      "t": 39528.72097916675,
      "d": 519.2291250000053,
      "v": 73
    },
    {
      "midi": 79,
      "hit": false,
      "t": 40134.488291666756,
      "d": 24.038385416679375,
      "v": 59
    },
    {
      "midi": 64,
      "hit": false,
      "t": 40139.29596875009,
      "d": 38.461416666679725,
      "v": 48
    },
    {
      "midi": 57,
      "hit": false,
      "t": 40139.29596875009,
      "d": 43.2690937500156,
      "v": 45
    },
    {
      "midi": 86,
      "hit": false,
      "t": 40144.10364583343,
      "d": 28.846062500007974,
      "v": 48
    },
    {
      "midi": 91,
      "hit": false,
      "t": 40144.10364583343,
      "d": 43.2690937500156,
      "v": 45
    },
    {
      "midi": 53,
      "hit": false,
      "t": 40148.91132291676,
      "d": 33.65373958334385,
      "v": 30
    },
    {
      "midi": 60,
      "hit": false,
      "t": 40153.7190000001,
      "d": 24.0383854166721,
      "v": 36
    },
    {
      "midi": 67,
      "hit": false,
      "t": 40437.37194791678,
      "d": 81.7305104166735,
      "v": 78
    },
    {
      "midi": 60,
      "hit": false,
      "t": 40442.17962500011,
      "d": 67.30747916667315,
      "v": 64
    },
    {
      "midi": 62,
      "hit": false,
      "t": 40446.98730208345,
      "d": 76.92283333333762,
      "v": 68
    },
    {
      "midi": 96,
      "hit": false,
      "t": 40446.98730208345,
      "d": 86.5381875000021,
      "v": 85
    },
    {
      "midi": 56,
      "hit": false,
      "t": 40446.98730208345,
      "d": 91.34586458333797,
      "v": 55
    },
    {
      "midi": 84,
      "hit": false,
      "t": 40451.794979166785,
      "d": 43.26909375000105,
      "v": 84
    },
    {
      "midi": 91,
      "hit": false,
      "t": 40451.794979166785,
      "d": 52.88444791666552,
      "v": 74
    },
    {
      "midi": 96,
      "hit": false,
      "t": 40677.755802083455,
      "d": 269.22991666667076,
      "v": 76
    },
    {
      "midi": 56,
      "hit": false,
      "t": 40682.56347916679,
      "d": 235.5761770833342,
      "v": 65
    },
    {
      "midi": 88,
      "hit": false,
      "t": 40687.37115625013,
      "d": 24.038385416664823,
      "v": 63
    },
    {
      "midi": 89,
      "hit": false,
      "t": 40687.37115625013,
      "d": 124.99960416666727,
      "v": 70
    },
    {
      "midi": 62,
      "hit": false,
      "t": 40687.37115625013,
      "d": 216.34546874999796,
      "v": 66
    },
    {
      "midi": 67,
      "hit": false,
      "t": 40687.37115625013,
      "d": 245.19153124999866,
      "v": 73
    },
    {
      "midi": 84,
      "hit": false,
      "t": 40701.79418750013,
      "d": 221.15314583333384,
      "v": 61
    },
    {
      "midi": 88,
      "hit": false,
      "t": 40745.06328125013,
      "d": 149.0379895833321,
      "v": 17
    },
    {
      "midi": 88,
      "hit": false,
      "t": 41076.79300000013,
      "d": 139.4226354166749,
      "v": 66
    },
    {
      "midi": 96,
      "hit": false,
      "t": 41081.600677083465,
      "d": 124.99960416667454,
      "v": 79
    },
    {
      "midi": 84,
      "hit": false,
      "t": 41081.600677083465,
      "d": 144.23031250001077,
      "v": 74
    },
    {
      "midi": 91,
      "hit": false,
      "t": 41086.4083541668,
      "d": 134.61495833333902,
      "v": 66
    },
    {
      "midi": 56,
      "hit": false,
      "t": 41086.4083541668,
      "d": 206.73011458334076,
      "v": 74
    },
    {
      "midi": 67,
      "hit": false,
      "t": 41091.21603125014,
      "d": 192.30708333334042,
      "v": 76
    },
    {
      "midi": 62,
      "hit": false,
      "t": 41091.21603125014,
      "d": 201.9224375000049,
      "v": 71
    },
    {
      "midi": 67,
      "hit": false,
      "t": 41374.86897916681,
      "d": 57.6921250000014,
      "v": 73
    },
    {
      "midi": 56,
      "hit": false,
      "t": 41374.86897916681,
      "d": 100.96121875000244,
      "v": 68
    },
    {
      "midi": 84,
      "hit": false,
      "t": 41379.67665625014,
      "d": 52.88444791666552,
      "v": 66
    },
    {
      "midi": 79,
      "hit": false,
      "t": 41379.67665625014,
      "d": 76.92283333333035,
      "v": 51
    },
    {
      "midi": 91,
      "hit": false,
      "t": 41379.67665625014,
      "d": 86.5381875000021,
      "v": 54
    },
    {
      "midi": 88,
      "hit": false,
      "t": 41384.48433333348,
      "d": 48.07677083332965,
      "v": 56
    },
    {
      "midi": 62,
      "hit": false,
      "t": 41384.48433333348,
      "d": 76.92283333333035,
      "v": 61
    },
    {
      "midi": 77,
      "hit": false,
      "t": 42158.52034375014,
      "d": 33.653739583336574,
      "v": 62
    },
    {
      "midi": 56,
      "hit": false,
      "t": 42168.135697916805,
      "d": 28.846062500007974,
      "v": 33
    },
    {
      "midi": 62,
      "hit": false,
      "t": 42187.36640625014,
      "d": 33.653739583336574,
      "v": 33
    },
    {
      "midi": 56,
      "hit": false,
      "t": 42273.90459375014,
      "d": 96.15354166667385,
      "v": 55
    },
    {
      "midi": 91,
      "hit": false,
      "t": 42278.71227083348,
      "d": 24.038385416664823,
      "v": 71
    },
    {
      "midi": 67,
      "hit": false,
      "t": 42278.71227083348,
      "d": 28.8460625000007,
      "v": 38
    },
    {
      "midi": 62,
      "hit": false,
      "t": 42288.32762500014,
      "d": 24.0383854166721,
      "v": 49
    },
    {
      "midi": 79,
      "hit": false,
      "t": 42288.32762500014,
      "d": 24.0383854166721,
      "v": 57
    },
    {
      "midi": 64,
      "hit": false,
      "t": 42442.17329166682,
      "d": 24.038385416664823,
      "v": 56
    },
    {
      "midi": 72,
      "hit": false,
      "t": 42451.78864583348,
      "d": 24.038385416664823,
      "v": 33
    },
    {
      "midi": 84,
      "hit": false,
      "t": 42451.78864583348,
      "d": 28.8460625000007,
      "v": 38
    },
    {
      "midi": 64,
      "hit": false,
      "t": 42740.24927083348,
      "d": 76.92283333335217,
      "v": 70
    },
    {
      "midi": 57,
      "hit": false,
      "t": 42745.05694791682,
      "d": 91.34586458335252,
      "v": 52
    },
    {
      "midi": 55,
      "hit": false,
      "t": 42749.864625000155,
      "d": 57.69212500000867,
      "v": 58
    },
    {
      "midi": 72,
      "hit": false,
      "t": 42749.864625000155,
      "d": 62.49980208334455,
      "v": 74
    },
    {
      "midi": 60,
      "hit": false,
      "t": 42749.864625000155,
      "d": 67.30747916668042,
      "v": 52
    },
    {
      "midi": 81,
      "hit": false,
      "t": 42754.67230208349,
      "d": 76.9228333333449,
      "v": 64
    },
    {
      "midi": 84,
      "hit": false,
      "t": 42759.47997916683,
      "d": 76.9228333333449,
      "v": 68
    },
    {
      "midi": 77,
      "hit": false,
      "t": 43216.2093020835,
      "d": 105.76889583333832,
      "v": 90
    },
    {
      "midi": 89,
      "hit": false,
      "t": 43221.01697916684,
      "d": 110.57657291666692,
      "v": 87
    },
    {
      "midi": 84,
      "hit": false,
      "t": 43221.01697916684,
      "d": 115.3842500000028,
      "v": 88
    },
    {
      "midi": 55,
      "hit": false,
      "t": 43225.82465625017,
      "d": 110.57657291666692,
      "v": 76
    },
    {
      "midi": 64,
      "hit": false,
      "t": 43225.82465625017,
      "d": 110.57657291666692,
      "v": 82
    },
    {
      "midi": 57,
      "hit": false,
      "t": 43225.82465625017,
      "d": 129.80728124999587,
      "v": 72
    },
    {
      "midi": 60,
      "hit": false,
      "t": 43230.63233333351,
      "d": 115.38424999999552,
      "v": 71
    },
    {
      "midi": 91,
      "hit": false,
      "t": 43394.093354166835,
      "d": 177.88405208334007,
      "v": 78
    },
    {
      "midi": 86,
      "hit": false,
      "t": 43394.093354166835,
      "d": 197.11476041666901,
      "v": 75
    },
    {
      "midi": 55,
      "hit": false,
      "t": 43398.90103125017,
      "d": 182.69172916666867,
      "v": 70
    },
    {
      "midi": 64,
      "hit": false,
      "t": 43398.90103125017,
      "d": 197.11476041666901,
      "v": 66
    },
    {
      "midi": 79,
      "hit": false,
      "t": 43398.90103125017,
      "d": 201.9224375000049,
      "v": 68
    },
    {
      "midi": 60,
      "hit": false,
      "t": 43403.70870833351,
      "d": 192.30708333333314,
      "v": 66
    },
    {
      "midi": 57,
      "hit": false,
      "t": 43408.51638541684,
      "d": 192.30708333333314,
      "v": 75
    },
    {
      "midi": 89,
      "hit": false,
      "t": 43682.55397916684,
      "d": 182.69172916667594,
      "v": 71
    },
    {
      "midi": 55,
      "hit": false,
      "t": 43687.36165625018,
      "d": 245.1915312500132,
      "v": 72
    },
    {
      "midi": 64,
      "hit": false,
      "t": 43692.16933333351,
      "d": 221.1531458333411,
      "v": 68
    },
    {
      "midi": 77,
      "hit": false,
      "t": 43696.97701041685,
      "d": 221.1531458333411,
      "v": 39
    },
    {
      "midi": 60,
      "hit": false,
      "t": 43696.97701041685,
      "d": 235.57617708334146,
      "v": 64
    },
    {
      "midi": 84,
      "hit": false,
      "t": 43701.784687500185,
      "d": 182.69172916666867,
      "v": 69
    },
    {
      "midi": 79,
      "hit": false,
      "t": 43706.59236458352,
      "d": 24.038385416664823,
      "v": 49
    },
    {
      "midi": 57,
      "hit": false,
      "t": 43706.59236458352,
      "d": 245.19153125000594,
      "v": 55
    },
    {
      "midi": 63,
      "hit": false,
      "t": 44216.20613541686,
      "d": 62.499802083329996,
      "v": 37
    },
    {
      "midi": 65,
      "hit": false,
      "t": 44254.66755208353,
      "d": 67.30747916666587,
      "v": 58
    },
    {
      "midi": 79,
      "hit": false,
      "t": 44288.321291666856,
      "d": 432.6909375000032,
      "v": 75
    },
    {
      "midi": 71,
      "hit": false,
      "t": 44293.12896875019,
      "d": 432.6909375000032,
      "v": 80
    },
    {
      "midi": 68,
      "hit": false,
      "t": 44297.93664583353,
      "d": 418.2679062499956,
      "v": 73
    },
    {
      "midi": 74,
      "hit": false,
      "t": 44307.55200000019,
      "d": 427.8832604166673,
      "v": 62
    },
    {
      "midi": 67,
      "hit": false,
      "t": 44312.35967708353,
      "d": 447.1139687499963,
      "v": 83
    },
    {
      "midi": 68,
      "hit": false,
      "t": 44759.473645833525,
      "d": 370.1911354166732,
      "v": 64
    },
    {
      "midi": 77,
      "hit": false,
      "t": 44769.08900000019,
      "d": 245.19153125000594,
      "v": 66
    },
    {
      "midi": 65,
      "hit": false,
      "t": 44769.08900000019,
      "d": 379.80648958334496,
      "v": 71
    },
    {
      "midi": 71,
      "hit": false,
      "t": 44773.896677083525,
      "d": 283.6529479166711,
      "v": 64
    },
    {
      "midi": 74,
      "hit": false,
      "t": 44773.896677083525,
      "d": 288.460625000007,
      "v": 47
    },
    {
      "midi": 76,
      "hit": false,
      "t": 45230.62600000021,
      "d": 124.99960416667454,
      "v": 59
    },
    {
      "midi": 64,
      "hit": false,
      "t": 45230.62600000021,
      "d": 225.960822916677,
      "v": 50
    },
    {
      "midi": 71,
      "hit": false,
      "t": 45240.24135416687,
      "d": 100.96121875000972,
      "v": 47
    },
    {
      "midi": 68,
      "hit": false,
      "t": 45245.04903125021,
      "d": 100.96121875000972,
      "v": 28
    },
    {
      "midi": 65,
      "hit": false,
      "t": 45259.47206250021,
      "d": 129.80728125001042,
      "v": 24
    },
    {
      "midi": 65,
      "hit": false,
      "t": 45533.509656250215,
      "d": 81.7305104166735,
      "v": 75
    },
    {
      "midi": 68,
      "hit": false,
      "t": 45538.31733333355,
      "d": 110.5765729166742,
      "v": 74
    },
    {
      "midi": 77,
      "hit": false,
      "t": 45538.31733333355,
      "d": 110.5765729166742,
      "v": 76
    },
    {
      "midi": 71,
      "hit": false,
      "t": 45543.12501041689,
      "d": 105.76889583333832,
      "v": 74
    },
    {
      "midi": 74,
      "hit": false,
      "t": 45543.12501041689,
      "d": 105.76889583333832,
      "v": 73
    },
    {
      "midi": 70,
      "hit": false,
      "t": 45995.046656250226,
      "d": 67.30747916668042,
      "v": 83
    },
    {
      "midi": 65,
      "hit": false,
      "t": 45995.046656250226,
      "d": 91.34586458334525,
      "v": 91
    },
    {
      "midi": 74,
      "hit": false,
      "t": 45995.046656250226,
      "d": 144.23031250001804,
      "v": 85
    },
    {
      "midi": 77,
      "hit": false,
      "t": 45995.046656250226,
      "d": 149.03798958335392,
      "v": 88
    },
    {
      "midi": 67,
      "hit": false,
      "t": 45999.85433333356,
      "d": 24.0383854166721,
      "v": 84
    },
    {
      "midi": 58,
      "hit": false,
      "t": 45999.85433333356,
      "d": 120.19192708334594,
      "v": 72
    },
    {
      "midi": 57,
      "hit": false,
      "t": 46004.6620104169,
      "d": 124.99960416668182,
      "v": 79
    },
    {
      "midi": 62,
      "hit": false,
      "t": 46004.6620104169,
      "d": 134.6149583333463,
      "v": 89
    },
    {
      "midi": 53,
      "hit": false,
      "t": 46009.469687500234,
      "d": 201.92243750001217,
      "v": 79
    },
    {
      "midi": 71,
      "hit": false,
      "t": 46019.0850416669,
      "d": 24.0383854166721,
      "v": 48
    },
    {
      "midi": 65,
      "hit": false,
      "t": 46153.700000000244,
      "d": 76.92283333333762,
      "v": 53
    },
    {
      "midi": 70,
      "hit": false,
      "t": 46206.58444791691,
      "d": 76.92283333333762,
      "v": 53
    },
    {
      "midi": 57,
      "hit": false,
      "t": 46211.392125000246,
      "d": 33.653739583336574,
      "v": 32
    },
    {
      "midi": 58,
      "hit": false,
      "t": 46216.19980208358,
      "d": 76.92283333333035,
      "v": 52
    },
    {
      "midi": 62,
      "hit": false,
      "t": 46216.19980208358,
      "d": 105.76889583333104,
      "v": 40
    },
    {
      "midi": 74,
      "hit": false,
      "t": 46225.815156250246,
      "d": 57.6921250000014,
      "v": 46
    },
    {
      "midi": 77,
      "hit": false,
      "t": 46254.66121875025,
      "d": 43.26909375000105,
      "v": 32
    },
    {
      "midi": 65,
      "hit": false,
      "t": 46283.50728125025,
      "d": 72.11515624999447,
      "v": 57
    },
    {
      "midi": 53,
      "hit": false,
      "t": 46331.58405208358,
      "d": 86.53818750000937,
      "v": 45
    },
    {
      "midi": 70,
      "hit": false,
      "t": 46374.85314583358,
      "d": 76.9228333333449,
      "v": 25
    },
    {
      "midi": 74,
      "hit": false,
      "t": 46379.660822916914,
      "d": 67.30747916667315,
      "v": 33
    },
    {
      "midi": 57,
      "hit": false,
      "t": 46379.660822916914,
      "d": 76.9228333333449,
      "v": 27
    },
    {
      "midi": 77,
      "hit": false,
      "t": 46384.46850000025,
      "d": 57.6921250000014,
      "v": 20
    },
    {
      "midi": 62,
      "hit": false,
      "t": 46427.73759375025,
      "d": 28.846062500007974,
      "v": 38
    },
    {
      "midi": 62,
      "hit": false,
      "t": 46946.966718750264,
      "d": 120.19192708333867,
      "v": 84
    },
    {
      "midi": 57,
      "hit": false,
      "t": 46951.7743958336,
      "d": 81.73051041666622,
      "v": 55
    },
    {
      "midi": 58,
      "hit": false,
      "t": 46951.7743958336,
      "d": 96.15354166666657,
      "v": 51
    },
    {
      "midi": 53,
      "hit": false,
      "t": 46951.7743958336,
      "d": 100.96121875000244,
      "v": 69
    },
    {
      "midi": 65,
      "hit": false,
      "t": 47115.23541666693,
      "d": 245.19153125000594,
      "v": 71
    },
    {
      "midi": 53,
      "hit": false,
      "t": 47120.04309375027,
      "d": 158.65334375000384,
      "v": 19
    },
    {
      "midi": 58,
      "hit": false,
      "t": 47129.65844791693,
      "d": 153.84566666667524,
      "v": 46
    },
    {
      "midi": 57,
      "hit": false,
      "t": 47144.08147916693,
      "d": 139.4226354166749,
      "v": 30
    },
    {
      "midi": 62,
      "hit": false,
      "t": 47148.88915625027,
      "d": 86.5381875000021,
      "v": 48
    },
    {
      "midi": 53,
      "hit": false,
      "t": 47403.69604166694,
      "d": 67.30747916666587,
      "v": 63
    },
    {
      "midi": 62,
      "hit": false,
      "t": 47403.69604166694,
      "d": 76.92283333333035,
      "v": 73
    },
    {
      "midi": 69,
      "hit": false,
      "t": 47403.69604166694,
      "d": 120.1919270833314,
      "v": 80
    },
    {
      "midi": 58,
      "hit": false,
      "t": 47403.69604166694,
      "d": 124.99960416666727,
      "v": 63
    },
    {
      "midi": 65,
      "hit": false,
      "t": 47408.503718750275,
      "d": 28.8460625000007,
      "v": 53
    },
    {
      "midi": 57,
      "hit": false,
      "t": 47413.31139583361,
      "d": 33.6537395833293,
      "v": 53
    },
    {
      "midi": 69,
      "hit": false,
      "t": 47995.04032291694,
      "d": 48.07677083333692,
      "v": 73
    },
    {
      "midi": 58,
      "hit": false,
      "t": 47995.04032291694,
      "d": 67.30747916666587,
      "v": 61
    },
    {
      "midi": 75,
      "hit": false,
      "t": 47999.848000000275,
      "d": 43.26909375000105,
      "v": 76
    },
    {
      "midi": 64,
      "hit": false,
      "t": 47999.848000000275,
      "d": 52.88444791666552,
      "v": 63
    },
    {
      "midi": 84,
      "hit": false,
      "t": 48009.46335416694,
      "d": 19.230708333336224,
      "v": 74
    },
    {
      "midi": 80,
      "hit": false,
      "t": 48009.46335416694,
      "d": 28.8460625000007,
      "v": 53
    },
    {
      "midi": 84,
      "hit": false,
      "t": 48437.34661458361,
      "d": 485.5753854166687,
      "v": 82
    },
    {
      "midi": 80,
      "hit": false,
      "t": 48437.34661458361,
      "d": 509.61377083333355,
      "v": 72
    },
    {
      "midi": 75,
      "hit": false,
      "t": 48437.34661458361,
      "d": 519.229124999998,
      "v": 83
    },
    {
      "midi": 69,
      "hit": false,
      "t": 48446.96196875027,
      "d": 466.3446770833325,
      "v": 80
    },
    {
      "midi": 64,
      "hit": false,
      "t": 48446.96196875027,
      "d": 471.1523541666684,
      "v": 71
    },
    {
      "midi": 58,
      "hit": false,
      "t": 48446.96196875027,
      "d": 514.4214479166694,
      "v": 69
    },
    {
      "midi": 80,
      "hit": false,
      "t": 49240.228687500276,
      "d": 322.11436458334356,
      "v": 78
    },
    {
      "midi": 70,
      "hit": false,
      "t": 49245.03636458361,
      "d": 307.6913333333432,
      "v": 83
    },
    {
      "midi": 74,
      "hit": false,
      "t": 49249.84404166695,
      "d": 278.8452708333425,
      "v": 84
    },
    {
      "midi": 62,
      "hit": false,
      "t": 49254.65171875028,
      "d": 278.8452708333425,
      "v": 81
    },
    {
      "midi": 67,
      "hit": false,
      "t": 49254.65171875028,
      "d": 288.460625000007,
      "v": 88
    },
    {
      "midi": 56,
      "hit": false,
      "t": 49254.65171875028,
      "d": 379.8064895833377,
      "v": 78
    },
    {
      "midi": 72,
      "hit": false,
      "t": 49696.95801041695,
      "d": 278.8452708333498,
      "v": 81
    },
    {
      "midi": 79,
      "hit": false,
      "t": 49696.95801041695,
      "d": 322.11436458335083,
      "v": 79
    },
    {
      "midi": 67,
      "hit": false,
      "t": 49701.76568750029,
      "d": 245.1915312500132,
      "v": 83
    },
    {
      "midi": 55,
      "hit": false,
      "t": 49701.76568750029,
      "d": 317.30668750001496,
      "v": 80
    },
    {
      "midi": 60,
      "hit": false,
      "t": 49706.57336458362,
      "d": 312.4990104166791,
      "v": 79
    },
    {
      "midi": 64,
      "hit": false,
      "t": 49706.57336458362,
      "d": 317.30668750001496,
      "v": 80
    },
    {
      "midi": 75,
      "hit": false,
      "t": 49711.38104166696,
      "d": 24.0383854166721,
      "v": 45
    },
    {
      "midi": 77,
      "hit": false,
      "t": 49711.38104166696,
      "d": 24.0383854166721,
      "v": 60
    },
    {
      "midi": 76,
      "hit": false,
      "t": 50187.34107291697,
      "d": 346.1527500000084,
      "v": 92
    },
    {
      "midi": 88,
      "hit": false,
      "t": 50187.34107291697,
      "d": 346.1527500000084,
      "v": 87
    },
    {
      "midi": 55,
      "hit": false,
      "t": 50192.148750000306,
      "d": 423.0755833333387,
      "v": 90
    },
    {
      "midi": 64,
      "hit": false,
      "t": 50192.148750000306,
      "d": 447.11396875000355,
      "v": 84
    },
    {
      "midi": 60,
      "hit": false,
      "t": 50196.95642708364,
      "d": 456.729322916668,
      "v": 80
    },
    {
      "midi": 86,
      "hit": false,
      "t": 50201.76410416698,
      "d": 24.038385416664823,
      "v": 62
    },
    {
      "midi": 64,
      "hit": false,
      "t": 50778.68535416698,
      "d": 38.461416666679725,
      "v": 60
    },
    {
      "midi": 60,
      "hit": false,
      "t": 50783.49303125031,
      "d": 28.846062500007974,
      "v": 54
    },
    {
      "midi": 55,
      "hit": false,
      "t": 50783.49303125031,
      "d": 33.65373958334385,
      "v": 55
    },
    {
      "midi": 79,
      "hit": false,
      "t": 50788.30070833365,
      "d": 43.269093750008324,
      "v": 63
    },
    {
      "midi": 91,
      "hit": false,
      "t": 50793.108385416985,
      "d": 76.92283333333762,
      "v": 54
    },
    {
      "midi": 95,
      "hit": false,
      "t": 51216.18396875032,
      "d": 96.15354166667385,
      "v": 71
    },
    {
      "midi": 64,
      "hit": false,
      "t": 51220.99164583366,
      "d": 48.07677083333692,
      "v": 63
    },
    {
      "midi": 83,
      "hit": false,
      "t": 51220.99164583366,
      "d": 57.69212500000867,
      "v": 66
    },
    {
      "midi": 55,
      "hit": false,
      "t": 51220.99164583366,
      "d": 67.30747916667315,
      "v": 66
    },
    {
      "midi": 60,
      "hit": false,
      "t": 51225.799322916995,
      "d": 28.8460625000007,
      "v": 56
    },
    {
      "midi": 54,
      "hit": false,
      "t": 51692.144000000335,
      "d": 72.1151562500163,
      "v": 78
    },
    {
      "midi": 86,
      "hit": false,
      "t": 51696.95167708367,
      "d": 38.461416666679725,
      "v": 78
    },
    {
      "midi": 98,
      "hit": false,
      "t": 51696.95167708367,
      "d": 52.884447916680074,
      "v": 58
    },
    {
      "midi": 64,
      "hit": false,
      "t": 51701.75935416701,
      "d": 43.269093750008324,
      "v": 71
    },
    {
      "midi": 60,
      "hit": false,
      "t": 51701.75935416701,
      "d": 57.69212500000867,
      "v": 73
    },
    {
      "midi": 96,
      "hit": false,
      "t": 51706.56703125034,
      "d": 24.0383854166721,
      "v": 64
    },
    {
      "midi": 92,
      "hit": false,
      "t": 51711.37470833368,
      "d": 24.0383854166721,
      "v": 34
    },
    {
      "midi": 95,
      "hit": false,
      "t": 51716.182385417014,
      "d": 33.653739583336574,
      "v": 24
    },
    {
      "midi": 60,
      "hit": false,
      "t": 51937.33553125035,
      "d": 33.653739583336574,
      "v": 74
    },
    {
      "midi": 64,
      "hit": false,
      "t": 51937.33553125035,
      "d": 43.269093750008324,
      "v": 79
    },
    {
      "midi": 54,
      "hit": false,
      "t": 51937.33553125035,
      "d": 48.0767708333442,
      "v": 76
    },
    {
      "midi": 86,
      "hit": false,
      "t": 51942.143208333684,
      "d": 19.230708333336224,
      "v": 77
    },
    {
      "midi": 95,
      "hit": false,
      "t": 51942.143208333684,
      "d": 28.8460625000007,
      "v": 71
    },
    {
      "midi": 92,
      "hit": false,
      "t": 51942.143208333684,
      "d": 33.653739583336574,
      "v": 64
    },
    {
      "midi": 98,
      "hit": false,
      "t": 51946.95088541702,
      "d": 24.038385416664823,
      "v": 66
    },
    {
      "midi": 64,
      "hit": false,
      "t": 52172.91170833369,
      "d": 67.30747916667315,
      "v": 80
    },
    {
      "midi": 98,
      "hit": false,
      "t": 52172.91170833369,
      "d": 72.11515625000902,
      "v": 80
    },
    {
      "midi": 54,
      "hit": false,
      "t": 52172.91170833369,
      "d": 86.53818750000937,
      "v": 80
    },
    {
      "midi": 86,
      "hit": false,
      "t": 52177.719385417025,
      "d": 62.49980208333727,
      "v": 79
    },
    {
      "midi": 92,
      "hit": false,
      "t": 52177.719385417025,
      "d": 67.30747916667315,
      "v": 70
    },
    {
      "midi": 60,
      "hit": false,
      "t": 52182.52706250036,
      "d": 57.6921250000014,
      "v": 70
    },
    {
      "midi": 95,
      "hit": false,
      "t": 52182.52706250036,
      "d": 67.30747916667315,
      "v": 70
    },
    {
      "midi": 98,
      "hit": false,
      "t": 52307.526666667036,
      "d": 466.34467708334705,
      "v": 74
    },
    {
      "midi": 86,
      "hit": false,
      "t": 52312.33434375037,
      "d": 447.1139687500108,
      "v": 68
    },
    {
      "midi": 54,
      "hit": false,
      "t": 52312.33434375037,
      "d": 471.1523541666829,
      "v": 74
    },
    {
      "midi": 92,
      "hit": false,
      "t": 52312.33434375037,
      "d": 480.7677083333474,
      "v": 67
    },
    {
      "midi": 64,
      "hit": false,
      "t": 52317.14202083371,
      "d": 447.1139687500108,
      "v": 76
    },
    {
      "midi": 95,
      "hit": false,
      "t": 52317.14202083371,
      "d": 461.5370000000112,
      "v": 67
    },
    {
      "midi": 60,
      "hit": false,
      "t": 52321.94969791704,
      "d": 432.6909375000032,
      "v": 71
    },
    {
      "midi": 100,
      "hit": false,
      "t": 52932.52468750039,
      "d": 298.07597916667146,
      "v": 83
    },
    {
      "midi": 93,
      "hit": false,
      "t": 52937.33236458372,
      "d": 274.03759374999936,
      "v": 84
    },
    {
      "midi": 96,
      "hit": false,
      "t": 52937.33236458372,
      "d": 274.03759374999936,
      "v": 81
    },
    {
      "midi": 88,
      "hit": false,
      "t": 52937.33236458372,
      "d": 278.84527083333523,
      "v": 84
    },
    {
      "midi": 54,
      "hit": false,
      "t": 52937.33236458372,
      "d": 365.38345833333733,
      "v": 87
    },
    {
      "midi": 60,
      "hit": false,
      "t": 52942.14004166706,
      "d": 307.69133333333593,
      "v": 87
    },
    {
      "midi": 64,
      "hit": false,
      "t": 52942.14004166706,
      "d": 307.69133333333593,
      "v": 91
    },
    {
      "midi": 58,
      "hit": false,
      "t": 53365.21562500039,
      "d": 129.80728125000314,
      "v": 78
    },
    {
      "midi": 62,
      "hit": false,
      "t": 53365.21562500039,
      "d": 129.80728125000314,
      "v": 96
    },
    {
      "midi": 94,
      "hit": false,
      "t": 53365.21562500039,
      "d": 134.61495833333902,
      "v": 88
    },
    {
      "midi": 98,
      "hit": false,
      "t": 53370.023302083726,
      "d": 120.1919270833314,
      "v": 84
    },
    {
      "midi": 89,
      "hit": false,
      "t": 53370.023302083726,
      "d": 124.99960416666727,
      "v": 91
    },
    {
      "midi": 101,
      "hit": false,
      "t": 53370.023302083726,
      "d": 124.99960416666727,
      "v": 88
    },
    {
      "midi": 57,
      "hit": false,
      "t": 53370.023302083726,
      "d": 134.61495833333902,
      "v": 83
    },
    {
      "midi": 53,
      "hit": false,
      "t": 53370.023302083726,
      "d": 139.4226354166749,
      "v": 87
    },
    {
      "midi": 98,
      "hit": false,
      "t": 53821.944947917065,
      "d": 480.7677083333401,
      "v": 94
    },
    {
      "midi": 86,
      "hit": false,
      "t": 53826.7526250004,
      "d": 485.5753854166687,
      "v": 95
    },
    {
      "midi": 62,
      "hit": false,
      "t": 53826.7526250004,
      "d": 490.3830625000046,
      "v": 95
    },
    {
      "midi": 58,
      "hit": false,
      "t": 53826.7526250004,
      "d": 504.80609375000495,
      "v": 81
    },
    {
      "midi": 57,
      "hit": false,
      "t": 53826.7526250004,
      "d": 524.0368020833412,
      "v": 82
    },
    {
      "midi": 94,
      "hit": false,
      "t": 53826.7526250004,
      "d": 533.6521562500056,
      "v": 79
    },
    {
      "midi": 91,
      "hit": false,
      "t": 53831.56030208374,
      "d": 480.76770833333285,
      "v": 87
    },
    {
      "midi": 53,
      "hit": false,
      "t": 53836.36797916707,
      "d": 490.3830624999973,
      "v": 87
    },
    {
      "midi": 96,
      "hit": false,
      "t": 54437.32761458374,
      "d": 52.8844479166728,
      "v": 60
    },
    {
      "midi": 58,
      "hit": false,
      "t": 54437.32761458374,
      "d": 72.11515625000902,
      "v": 55
    },
    {
      "midi": 62,
      "hit": false,
      "t": 54442.13529166707,
      "d": 28.8460625000007,
      "v": 55
    },
    {
      "midi": 84,
      "hit": false,
      "t": 54442.13529166707,
      "d": 52.8844479166728,
      "v": 45
    },
    {
      "midi": 57,
      "hit": false,
      "t": 54446.94296875041,
      "d": 28.8460625000007,
      "v": 35
    },
    {
      "midi": 91,
      "hit": false,
      "t": 54446.94296875041,
      "d": 48.07677083333692,
      "v": 54
    },
    {
      "midi": 57,
      "hit": false,
      "t": 54913.28764583375,
      "d": 62.49980208334455,
      "v": 44
    },
    {
      "midi": 62,
      "hit": false,
      "t": 54913.28764583375,
      "d": 81.73051041668077,
      "v": 52
    },
    {
      "midi": 58,
      "hit": false,
      "t": 54913.28764583375,
      "d": 120.19192708335322,
      "v": 44
    },
    {
      "midi": 94,
      "hit": false,
      "t": 54918.095322917085,
      "d": 62.49980208334455,
      "v": 61
    },
    {
      "midi": 82,
      "hit": false,
      "t": 54922.90300000042,
      "d": 48.07677083333692,
      "v": 58
    },
    {
      "midi": 53,
      "hit": false,
      "t": 54927.710677083756,
      "d": 100.96121875000972,
      "v": 44
    },
    {
      "midi": 93,
      "hit": false,
      "t": 55211.363625000435,
      "d": 144.2303125000035,
      "v": 87
    },
    {
      "midi": 58,
      "hit": false,
      "t": 55216.17130208377,
      "d": 149.0379895833321,
      "v": 77
    },
    {
      "midi": 81,
      "hit": false,
      "t": 55216.17130208377,
      "d": 158.65334374999657,
      "v": 76
    },
    {
      "midi": 86,
      "hit": false,
      "t": 55220.97897916711,
      "d": 134.61495833333174,
      "v": 77
    },
    {
      "midi": 62,
      "hit": false,
      "t": 55220.97897916711,
      "d": 144.23031249999622,
      "v": 89
    },
    {
      "midi": 52,
      "hit": false,
      "t": 55220.97897916711,
      "d": 153.8456666666607,
      "v": 85
    },
    {
      "midi": 84,
      "hit": false,
      "t": 55682.5159791671,
      "d": 182.69172916666867,
      "v": 85
    },
    {
      "midi": 77,
      "hit": false,
      "t": 55682.5159791671,
      "d": 206.7301145833335,
      "v": 82
    },
    {
      "midi": 89,
      "hit": false,
      "t": 55687.32365625044,
      "d": 153.84566666666797,
      "v": 83
    },
    {
      "midi": 58,
      "hit": false,
      "t": 55687.32365625044,
      "d": 240.3838541666628,
      "v": 82
    },
    {
      "midi": 62,
      "hit": false,
      "t": 55692.131333333775,
      "d": 197.11476041666174,
      "v": 89
    },
    {
      "midi": 52,
      "hit": false,
      "t": 55696.93901041711,
      "d": 259.61456249999173,
      "v": 88
    },
    {
      "midi": 79,
      "hit": false,
      "t": 55701.74668750045,
      "d": 24.038385416664823,
      "v": 41
    },
    {
      "midi": 53,
      "hit": false,
      "t": 56187.3220729171,
      "d": 100.96121875000972,
      "v": 54
    },
    {
      "midi": 54,
      "hit": false,
      "t": 56220.97581250044,
      "d": 62.49980208333727,
      "v": 59
    },
    {
      "midi": 55,
      "hit": false,
      "t": 56240.20652083377,
      "d": 110.5765729166742,
      "v": 80
    },
    {
      "midi": 58,
      "hit": false,
      "t": 56302.70632291711,
      "d": 278.84527083333523,
      "v": 73
    },
    {
      "midi": 69,
      "hit": false,
      "t": 56302.70632291711,
      "d": 288.460625000007,
      "v": 80
    },
    {
      "midi": 61,
      "hit": false,
      "t": 56302.70632291711,
      "d": 302.88365625000733,
      "v": 71
    },
    {
      "midi": 64,
      "hit": false,
      "t": 56307.51400000045,
      "d": 278.84527083333523,
      "v": 68
    },
    {
      "midi": 57,
      "hit": false,
      "t": 56317.12935416711,
      "d": 341.3450729166725,
      "v": 74
    },
    {
      "midi": 55,
      "hit": false,
      "t": 56701.743520833785,
      "d": 28.8460625000007,
      "v": 50
    },
    {
      "midi": 57,
      "hit": false,
      "t": 56749.82029166712,
      "d": 43.26909375000105,
      "v": 44
    },
    {
      "midi": 69,
      "hit": false,
      "t": 56759.435645833786,
      "d": 76.92283333333762,
      "v": 64
    },
    {
      "midi": 64,
      "hit": false,
      "t": 56759.435645833786,
      "d": 129.80728125000314,
      "v": 71
    },
    {
      "midi": 58,
      "hit": false,
      "t": 56759.435645833786,
      "d": 139.42263541666762,
      "v": 69
    },
    {
      "midi": 61,
      "hit": false,
      "t": 56759.435645833786,
      "d": 182.69172916666867,
      "v": 70
    },
    {
      "midi": 65,
      "hit": false,
      "t": 57043.08859375046,
      "d": 971.1507708333302,
      "v": 74
    },
    {
      "midi": 57,
      "hit": false,
      "t": 57043.08859375046,
      "d": 980.7661249999946,
      "v": 78
    },
    {
      "midi": 60,
      "hit": false,
      "t": 57043.08859375046,
      "d": 995.189156249995,
      "v": 75
    },
    {
      "midi": 62,
      "hit": false,
      "t": 57047.89627083379,
      "d": 1004.8045104166595,
      "v": 66
    },
    {
      "midi": 48,
      "hit": false,
      "t": 57509.43327083379,
      "d": 581.728927083328,
      "v": 113
    },
    {
      "midi": 57,
      "hit": false,
      "t": 58153.662000000455,
      "d": 288.460625000007,
      "v": 68
    },
    {
      "midi": 48,
      "hit": false,
      "t": 58153.662000000455,
      "d": 360.57578125000873,
      "v": 67
    },
    {
      "midi": 65,
      "hit": false,
      "t": 58153.662000000455,
      "d": 389.42184375000943,
      "v": 67
    },
    {
      "midi": 60,
      "hit": false,
      "t": 58158.46967708379,
      "d": 341.3450729166725,
      "v": 74
    },
    {
      "midi": 62,
      "hit": false,
      "t": 58163.27735416713,
      "d": 331.72971875000076,
      "v": 62
    },
    {
      "midi": 63,
      "hit": false,
      "t": 59081.5436770838,
      "d": 240.38385416667734,
      "v": 72
    },
    {
      "midi": 75,
      "hit": false,
      "t": 59081.5436770838,
      "d": 240.38385416667734,
      "v": 87
    },
    {
      "midi": 67,
      "hit": false,
      "t": 59086.351354167135,
      "d": 264.42223958334216,
      "v": 91
    },
    {
      "midi": 72,
      "hit": false,
      "t": 59086.351354167135,
      "d": 269.22991666667804,
      "v": 90
    },
    {
      "midi": 55,
      "hit": false,
      "t": 59091.15903125047,
      "d": 173.0763750000042,
      "v": 64
    },
    {
      "midi": 60,
      "hit": false,
      "t": 59091.15903125047,
      "d": 235.57617708334146,
      "v": 58
    },
    {
      "midi": 57,
      "hit": false,
      "t": 59095.966708333806,
      "d": 206.7301145833335,
      "v": 58
    },
    {
      "midi": 67,
      "hit": false,
      "t": 59394.04268750048,
      "d": 120.19192708334594,
      "v": 49
    },
    {
      "midi": 77,
      "hit": false,
      "t": 59398.850364583814,
      "d": 96.15354166667385,
      "v": 80
    },
    {
      "midi": 60,
      "hit": false,
      "t": 59403.65804166715,
      "d": 43.26909375000105,
      "v": 50
    },
    {
      "midi": 63,
      "hit": false,
      "t": 59403.65804166715,
      "d": 43.26909375000105,
      "v": 55
    },
    {
      "midi": 72,
      "hit": false,
      "t": 59403.65804166715,
      "d": 105.76889583333832,
      "v": 68
    },
    {
      "midi": 55,
      "hit": false,
      "t": 59408.465718750485,
      "d": 283.6529479166784,
      "v": 62
    },
    {
      "midi": 63,
      "hit": false,
      "t": 59533.46532291716,
      "d": 197.11476041666901,
      "v": 49
    },
    {
      "midi": 75,
      "hit": false,
      "t": 59557.50370833383,
      "d": 158.65334374999657,
      "v": 53
    },
    {
      "midi": 74,
      "hit": false,
      "t": 59826.733625000496,
      "d": 105.76889583333104,
      "v": 78
    },
    {
      "midi": 66,
      "hit": false,
      "t": 59831.54130208383,
      "d": 67.30747916666587,
      "v": 60
    },
    {
      "midi": 60,
      "hit": false,
      "t": 59831.54130208383,
      "d": 677.8824687499946,
      "v": 65
    },
    {
      "midi": 70,
      "hit": false,
      "t": 59836.34897916717,
      "d": 86.53818749999482,
      "v": 64
    },
    {
      "midi": 62,
      "hit": false,
      "t": 59836.34897916717,
      "d": 774.0360104166612,
      "v": 71
    },
    {
      "midi": 54,
      "hit": false,
      "t": 59836.34897916717,
      "d": 874.9972291666563,
      "v": 67
    },
    {
      "midi": 84,
      "hit": false,
      "t": 60168.07869791716,
      "d": 81.73051041666622,
      "v": 110
    },
    {
      "midi": 80,
      "hit": false,
      "t": 60307.50133333383,
      "d": 67.30747916666587,
      "v": 57
    },
    {
      "midi": 81,
      "hit": false,
      "t": 60456.53932291716,
      "d": 57.6921250000014,
      "v": 69
    },
    {
      "midi": 84,
      "hit": false,
      "t": 60610.38498958383,
      "d": 76.92283333333035,
      "v": 96
    },
    {
      "midi": 81,
      "hit": false,
      "t": 60769.038333333825,
      "d": 105.76889583333104,
      "v": 71
    },
    {
      "midi": 57,
      "hit": false,
      "t": 60922.88400000049,
      "d": 495.1907395833405,
      "v": 48
    },
    {
      "midi": 77,
      "hit": false,
      "t": 60927.69167708383,
      "d": 129.80728125000314,
      "v": 67
    },
    {
      "midi": 62,
      "hit": false,
      "t": 60927.69167708383,
      "d": 495.1907395833405,
      "v": 40
    },
    {
      "midi": 55,
      "hit": false,
      "t": 60927.69167708383,
      "d": 519.2291250000053,
      "v": 37
    },
    {
      "midi": 58,
      "hit": false,
      "t": 60927.69167708383,
      "d": 519.2291250000053,
      "v": 34
    },
    {
      "midi": 74,
      "hit": false,
      "t": 61091.15269791717,
      "d": 76.92283333333035,
      "v": 56
    },
    {
      "midi": 69,
      "hit": false,
      "t": 61413.2670625005,
      "d": 269.22991666667076,
      "v": 84
    },
    {
      "midi": 66,
      "hit": false,
      "t": 61711.34304166717,
      "d": 115.3842500000028,
      "v": 37
    },
    {
      "midi": 67,
      "hit": false,
      "t": 61855.57335416717,
      "d": 860.5741979166705,
      "v": 54
    },
    {
      "midi": 62,
      "hit": false,
      "t": 62168.07236458384,
      "d": 514.4214479166694,
      "v": 53
    },
    {
      "midi": 62,
      "hit": false,
      "t": 62764.22432291718,
      "d": 72.11515625000175,
      "v": 37
    },
    {
      "midi": 58,
      "hit": false,
      "t": 62773.839677083844,
      "d": 76.92283333333762,
      "v": 26
    },
    {
      "midi": 52,
      "hit": false,
      "t": 62778.64735416718,
      "d": 48.07677083333692,
      "v": 32
    },
    {
      "midi": 65,
      "hit": false,
      "t": 62783.455031250516,
      "d": 72.11515625000175,
      "v": 46
    },
    {
      "midi": 65,
      "hit": false,
      "t": 63552.68336458385,
      "d": 38.46141666667245,
      "v": 71
    },
    {
      "midi": 58,
      "hit": false,
      "t": 63552.68336458385,
      "d": 67.30747916667315,
      "v": 50
    },
    {
      "midi": 62,
      "hit": false,
      "t": 63557.491041667185,
      "d": 28.8460625000007,
      "v": 63
    },
    {
      "midi": 84,
      "hit": false,
      "t": 64028.64339583385,
      "d": 139.42263541666762,
      "v": 115
    },
    {
      "midi": 80,
      "hit": false,
      "t": 64254.60421875052,
      "d": 110.57657291666692,
      "v": 34
    },
    {
      "midi": 81,
      "hit": false,
      "t": 64374.796145833854,
      "d": 52.88444791666552,
      "v": 62
    },
    {
      "midi": 84,
      "hit": false,
      "t": 64480.565041667185,
      "d": 110.5765729166742,
      "v": 99
    },
    {
      "midi": 62,
      "hit": false,
      "t": 64581.52626041719,
      "d": 33.653739583336574,
      "v": 45
    },
    {
      "midi": 57,
      "hit": false,
      "t": 64586.33393750052,
      "d": 43.26909375000105,
      "v": 39
    },
    {
      "midi": 58,
      "hit": false,
      "t": 64591.14161458386,
      "d": 38.46141666666517,
      "v": 34
    },
    {
      "midi": 80,
      "hit": false,
      "t": 64653.64141666719,
      "d": 67.30747916666587,
      "v": 25
    },
    {
      "midi": 62,
      "hit": false,
      "t": 65379.60065625052,
      "d": 48.0767708333442,
      "v": 80
    },
    {
      "midi": 57,
      "hit": false,
      "t": 65384.40833333386,
      "d": 24.0383854166721,
      "v": 74
    },
    {
      "midi": 58,
      "hit": false,
      "t": 65384.40833333386,
      "d": 52.8844479166728,
      "v": 68
    },
    {
      "midi": 84,
      "hit": false,
      "t": 65403.63904166719,
      "d": 134.61495833333174,
      "v": 96
    },
    {
      "midi": 80,
      "hit": false,
      "t": 65624.79218750053,
      "d": 57.6921250000014,
      "v": 25
    },
    {
      "midi": 81,
      "hit": false,
      "t": 65725.75340625053,
      "d": 76.92283333333035,
      "v": 34
    },
    {
      "midi": 84,
      "hit": false,
      "t": 65869.98371875053,
      "d": 105.7688958333456,
      "v": 94
    },
    {
      "midi": 86,
      "hit": false,
      "t": 65884.40675000053,
      "d": 24.0383854166721,
      "v": 45
    },
    {
      "midi": 57,
      "hit": false,
      "t": 65918.06048958388,
      "d": 28.8460625000007,
      "v": 38
    },
    {
      "midi": 81,
      "hit": false,
      "t": 66182.48272916721,
      "d": 38.46141666667245,
      "v": 47
    },
    {
      "midi": 84,
      "hit": false,
      "t": 66288.25162500056,
      "d": 62.499802083329996,
      "v": 91
    },
    {
      "midi": 85,
      "hit": false,
      "t": 66446.90496875056,
      "d": 254.80688541666314,
      "v": 70
    },
    {
      "midi": 82,
      "hit": false,
      "t": 66754.5963020839,
      "d": 124.99960416665999,
      "v": 58
    },
    {
      "midi": 63,
      "hit": false,
      "t": 66759.40397916723,
      "d": 67.3074791666586,
      "v": 56
    },
    {
      "midi": 52,
      "hit": false,
      "t": 66764.21165625055,
      "d": 72.11515625000175,
      "v": 57
    },
    {
      "midi": 58,
      "hit": false,
      "t": 66764.21165625055,
      "d": 100.96121875000244,
      "v": 46
    },
    {
      "midi": 79,
      "hit": false,
      "t": 67394.01735416723,
      "d": 120.1919270833314,
      "v": 94
    },
    {
      "midi": 82,
      "hit": false,
      "t": 67543.05534375056,
      "d": 100.96121875000244,
      "v": 81
    },
    {
      "midi": 63,
      "hit": false,
      "t": 67692.09333333389,
      "d": 374.9988125000091,
      "v": 65
    },
    {
      "midi": 58,
      "hit": false,
      "t": 67701.70868750056,
      "d": 350.960427083337,
      "v": 54
    },
    {
      "midi": 52,
      "hit": false,
      "t": 67706.51636458389,
      "d": 322.1143645833363,
      "v": 58
    },
    {
      "midi": 76,
      "hit": false,
      "t": 67860.36203125055,
      "d": 81.7305104166735,
      "v": 71
    },
    {
      "midi": 79,
      "hit": false,
      "t": 68009.4000208339,
      "d": 105.76889583333104,
      "v": 70
    },
    {
      "midi": 64,
      "hit": false,
      "t": 68144.01497916723,
      "d": 52.8844479166728,
      "v": 69
    },
    {
      "midi": 60,
      "hit": false,
      "t": 68153.6303333339,
      "d": 139.4226354166749,
      "v": 55
    },
    {
      "midi": 53,
      "hit": false,
      "t": 68163.24568750057,
      "d": 91.3458645833307,
      "v": 50
    },
    {
      "midi": 57,
      "hit": false,
      "t": 68163.24568750057,
      "d": 134.61495833333174,
      "v": 54
    },
    {
      "midi": 72,
      "hit": false,
      "t": 68331.51438541723,
      "d": 67.30747916667315,
      "v": 65
    },
    {
      "midi": 74,
      "hit": false,
      "t": 68475.74469791724,
      "d": 96.15354166667385,
      "v": 72
    },
    {
      "midi": 57,
      "hit": false,
      "t": 68624.78268750058,
      "d": 105.76889583333104,
      "v": 71
    },
    {
      "midi": 67,
      "hit": false,
      "t": 68629.59036458391,
      "d": 33.6537395833293,
      "v": 60
    },
    {
      "midi": 62,
      "hit": false,
      "t": 68634.39804166724,
      "d": 100.96121875000244,
      "v": 66
    },
    {
      "midi": 69,
      "hit": false,
      "t": 68793.05138541725,
      "d": 105.76889583333104,
      "v": 64
    },
    {
      "midi": 72,
      "hit": false,
      "t": 68942.08937500058,
      "d": 110.57657291665964,
      "v": 71
    },
    {
      "midi": 62,
      "hit": false,
      "t": 69071.89665625057,
      "d": 28.8460625000007,
      "v": 64
    },
    {
      "midi": 57,
      "hit": false,
      "t": 69071.89665625057,
      "d": 72.11515625000175,
      "v": 66
    },
    {
      "midi": 67,
      "hit": false,
      "t": 69240.16535416724,
      "d": 43.26909375000105,
      "v": 51
    },
    {
      "midi": 65,
      "hit": false,
      "t": 69244.97303125057,
      "d": 96.15354166667385,
      "v": 60
    },
    {
      "midi": 69,
      "hit": false,
      "t": 69398.81869791725,
      "d": 110.57657291665964,
      "v": 64
    },
    {
      "midi": 62,
      "hit": false,
      "t": 69543.04901041723,
      "d": 72.11515625000175,
      "v": 64
    },
    {
      "midi": 57,
      "hit": false,
      "t": 69552.6643645839,
      "d": 149.0379895833321,
      "v": 55
    },
    {
      "midi": 64,
      "hit": false,
      "t": 69711.31770833391,
      "d": 76.92283333333035,
      "v": 63
    },
    {
      "midi": 67,
      "hit": false,
      "t": 69855.54802083391,
      "d": 76.92283333333035,
      "v": 62
    },
    {
      "midi": 56,
      "hit": false,
      "t": 69990.16297916725,
      "d": 221.1531458333484,
      "v": 73
    },
    {
      "midi": 62,
      "hit": false,
      "t": 69999.77833333392,
      "d": 225.960822916677,
      "v": 79
    },
    {
      "midi": 72,
      "hit": false,
      "t": 70158.43167708392,
      "d": 52.8844479166728,
      "v": 52
    },
    {
      "midi": 74,
      "hit": false,
      "t": 70163.23935416725,
      "d": 24.0383854166721,
      "v": 62
    },
    {
      "midi": 76,
      "hit": false,
      "t": 70288.23895833392,
      "d": 105.76889583333104,
      "v": 71
    },
    {
      "midi": 56,
      "hit": false,
      "t": 70437.27694791726,
      "d": 235.5761770833342,
      "v": 64
    },
    {
      "midi": 62,
      "hit": false,
      "t": 70442.08462500059,
      "d": 216.34546875000524,
      "v": 65
    },
    {
      "midi": 67,
      "hit": false,
      "t": 70442.08462500059,
      "d": 216.34546875000524,
      "v": 71
    },
    {
      "midi": 79,
      "hit": false,
      "t": 70466.12301041726,
      "d": 173.0763750000042,
      "v": 75
    },
    {
      "midi": 56,
      "hit": false,
      "t": 70773.8143437506,
      "d": 86.5381875000021,
      "v": 64
    },
    {
      "midi": 67,
      "hit": false,
      "t": 70783.42969791727,
      "d": 57.6921250000014,
      "v": 65
    },
    {
      "midi": 62,
      "hit": false,
      "t": 70783.42969791727,
      "d": 81.73051041665894,
      "v": 68
    },
    {
      "midi": 84,
      "hit": false,
      "t": 70783.42969791727,
      "d": 96.1535416666593,
      "v": 84
    },
    {
      "midi": 56,
      "hit": false,
      "t": 70918.0446562506,
      "d": 91.3458645833307,
      "v": 48
    },
    {
      "midi": 88,
      "hit": false,
      "t": 70932.4676875006,
      "d": 91.3458645833307,
      "v": 83
    },
    {
      "midi": 62,
      "hit": false,
      "t": 70932.4676875006,
      "d": 100.96121875000244,
      "v": 64
    },
    {
      "midi": 67,
      "hit": false,
      "t": 70937.27536458393,
      "d": 28.8460625000007,
      "v": 45
    },
    {
      "midi": 91,
      "hit": false,
      "t": 71076.6980000006,
      "d": 105.76889583331649,
      "v": 84
    },
    {
      "midi": 79,
      "hit": false,
      "t": 71081.50567708393,
      "d": 91.3458645833307,
      "v": 75
    },
    {
      "midi": 65,
      "hit": false,
      "t": 71081.50567708393,
      "d": 96.1535416666593,
      "v": 70
    },
    {
      "midi": 56,
      "hit": false,
      "t": 71081.50567708393,
      "d": 100.96121874998789,
      "v": 59
    },
    {
      "midi": 62,
      "hit": false,
      "t": 71086.31335416726,
      "d": 105.76889583333104,
      "v": 68
    },
    {
      "midi": 84,
      "hit": false,
      "t": 71091.12103125059,
      "d": 24.0383854166721,
      "v": 62
    },
    {
      "midi": 91,
      "hit": false,
      "t": 71225.73598958392,
      "d": 124.99960416667454,
      "v": 67
    },
    {
      "midi": 79,
      "hit": false,
      "t": 71235.35134375059,
      "d": 91.34586458334525,
      "v": 60
    },
    {
      "midi": 56,
      "hit": false,
      "t": 71235.35134375059,
      "d": 115.3842500000028,
      "v": 45
    },
    {
      "midi": 65,
      "hit": false,
      "t": 71244.96669791726,
      "d": 86.5381875000021,
      "v": 48
    },
    {
      "midi": 62,
      "hit": false,
      "t": 71244.96669791726,
      "d": 100.96121875000244,
      "v": 64
    },
    {
      "midi": 84,
      "hit": false,
      "t": 71379.5816562506,
      "d": 96.15354166667385,
      "v": 78
    },
    {
      "midi": 56,
      "hit": false,
      "t": 71379.5816562506,
      "d": 134.6149583333463,
      "v": 49
    },
    {
      "midi": 65,
      "hit": false,
      "t": 71394.0046875006,
      "d": 57.6921250000014,
      "v": 68
    },
    {
      "midi": 62,
      "hit": false,
      "t": 71398.81236458392,
      "d": 86.53818750001665,
      "v": 71
    },
    {
      "midi": 84,
      "hit": false,
      "t": 71543.04267708394,
      "d": 100.96121875000244,
      "v": 65
    },
    {
      "midi": 56,
      "hit": false,
      "t": 71552.65803125061,
      "d": 81.73051041665894,
      "v": 28
    },
    {
      "midi": 62,
      "hit": false,
      "t": 71586.31177083394,
      "d": 43.26909375000105,
      "v": 24
    },
    {
      "midi": 88,
      "hit": false,
      "t": 71692.08066666727,
      "d": 91.3458645833307,
      "v": 85
    },
    {
      "midi": 56,
      "hit": false,
      "t": 71692.08066666727,
      "d": 158.65334375000384,
      "v": 53
    },
    {
      "midi": 62,
      "hit": false,
      "t": 71696.8883437506,
      "d": 139.4226354166749,
      "v": 62
    },
    {
      "midi": 65,
      "hit": false,
      "t": 71701.69602083393,
      "d": 197.1147604166763,
      "v": 58
    },
    {
      "midi": 88,
      "hit": false,
      "t": 71841.1186562506,
      "d": 115.3842500000028,
      "v": 65
    },
    {
      "midi": 81,
      "hit": false,
      "t": 71994.96432291728,
      "d": 105.76889583333104,
      "v": 61
    },
    {
      "midi": 57,
      "hit": false,
      "t": 71994.96432291728,
      "d": 144.23031249998894,
      "v": 58
    },
    {
      "midi": 62,
      "hit": false,
      "t": 71999.77200000061,
      "d": 120.1919270833314,
      "v": 55
    },
    {
      "midi": 65,
      "hit": false,
      "t": 72009.38735416728,
      "d": 28.8460625000007,
      "v": 32
    },
    {
      "midi": 81,
      "hit": false,
      "t": 72153.61766666727,
      "d": 91.34586458334525,
      "v": 59
    },
    {
      "midi": 57,
      "hit": false,
      "t": 72177.65605208394,
      "d": 72.11515625000175,
      "v": 25
    },
    {
      "midi": 62,
      "hit": false,
      "t": 72192.07908333394,
      "d": 43.26909375000105,
      "v": 36
    },
    {
      "midi": 65,
      "hit": false,
      "t": 72192.07908333394,
      "d": 43.26909375000105,
      "v": 35
    },
    {
      "midi": 65,
      "hit": false,
      "t": 72297.84797916729,
      "d": 124.99960416665999,
      "v": 62
    },
    {
      "midi": 57,
      "hit": false,
      "t": 72302.65565625062,
      "d": 120.1919270833314,
      "v": 73
    },
    {
      "midi": 84,
      "hit": false,
      "t": 72307.46333333394,
      "d": 105.76889583333104,
      "v": 88
    },
    {
      "midi": 62,
      "hit": false,
      "t": 72307.46333333394,
      "d": 120.1919270833314,
      "v": 61
    },
    {
      "midi": 84,
      "hit": false,
      "t": 72456.50132291728,
      "d": 96.15354166667385,
      "v": 76
    },
    {
      "midi": 65,
      "hit": false,
      "t": 72610.34698958395,
      "d": 100.96121875000244,
      "v": 60
    },
    {
      "midi": 57,
      "hit": false,
      "t": 72610.34698958395,
      "d": 245.19153124999139,
      "v": 60
    },
    {
      "midi": 76,
      "hit": false,
      "t": 72615.15466666728,
      "d": 86.5381875000021,
      "v": 60
    },
    {
      "midi": 62,
      "hit": false,
      "t": 72615.15466666728,
      "d": 115.3842500000028,
      "v": 48
    },
    {
      "midi": 76,
      "hit": false,
      "t": 72764.19265625061,
      "d": 110.57657291665964,
      "v": 58
    },
    {
      "midi": 65,
      "hit": false,
      "t": 72773.80801041728,
      "d": 67.3074791666586,
      "v": 55
    },
    {
      "midi": 62,
      "hit": false,
      "t": 72778.61568750061,
      "d": 76.92283333333035,
      "v": 33
    },
    {
      "midi": 57,
      "hit": false,
      "t": 72918.03832291727,
      "d": 139.4226354166749,
      "v": 60
    },
    {
      "midi": 79,
      "hit": false,
      "t": 72922.8460000006,
      "d": 91.34586458334525,
      "v": 80
    },
    {
      "midi": 65,
      "hit": false,
      "t": 72922.8460000006,
      "d": 100.961218750017,
      "v": 66
    },
    {
      "midi": 62,
      "hit": false,
      "t": 72922.8460000006,
      "d": 115.38425000001735,
      "v": 57
    },
    {
      "midi": 79,
      "hit": false,
      "t": 73062.26863541728,
      "d": 110.5765729166742,
      "v": 64
    },
    {
      "midi": 57,
      "hit": false,
      "t": 73211.30662500062,
      "d": 240.3838541666628,
      "v": 62
    },
    {
      "midi": 62,
      "hit": false,
      "t": 73216.11430208395,
      "d": 240.3838541666628,
      "v": 55
    },
    {
      "midi": 72,
      "hit": false,
      "t": 73220.92197916728,
      "d": 72.11515625000175,
      "v": 58
    },
    {
      "midi": 65,
      "hit": false,
      "t": 73220.92197916728,
      "d": 86.5381875000021,
      "v": 59
    },
    {
      "midi": 65,
      "hit": false,
      "t": 73384.38300000061,
      "d": 57.6921250000014,
      "v": 38
    },
    {
      "midi": 72,
      "hit": false,
      "t": 73393.99835416728,
      "d": 48.07677083332965,
      "v": 58
    },
    {
      "midi": 74,
      "hit": false,
      "t": 73538.22866666729,
      "d": 105.7688958333456,
      "v": 101
    },
    {
      "midi": 67,
      "hit": false,
      "t": 73552.65169791729,
      "d": 57.6921250000014,
      "v": 68
    },
    {
      "midi": 62,
      "hit": false,
      "t": 73552.65169791729,
      "d": 81.7305104166735,
      "v": 60
    },
    {
      "midi": 56,
      "hit": false,
      "t": 73562.26705208396,
      "d": 91.34586458334525,
      "v": 46
    },
    {
      "midi": 74,
      "hit": false,
      "t": 73687.26665625063,
      "d": 110.57657291665964,
      "v": 82
    },
    {
      "midi": 56,
      "hit": false,
      "t": 73831.49696875062,
      "d": 413.46022916668153,
      "v": 45
    },
    {
      "midi": 62,
      "hit": false,
      "t": 73836.30464583395,
      "d": 158.65334375000384,
      "v": 42
    },
    {
      "midi": 65,
      "hit": false,
      "t": 73836.30464583395,
      "d": 187.49940625000454,
      "v": 52
    },
    {
      "midi": 71,
      "hit": false,
      "t": 73845.92000000062,
      "d": 91.3458645833307,
      "v": 53
    },
    {
      "midi": 71,
      "hit": false,
      "t": 73994.95798958396,
      "d": 86.5381875000021,
      "v": 60
    },
    {
      "midi": 62,
      "hit": false,
      "t": 74047.84243750063,
      "d": 124.99960416667454,
      "v": 20
    },
    {
      "midi": 68,
      "hit": false,
      "t": 74148.80365625063,
      "d": 76.9228333333449,
      "v": 39
    },
    {
      "midi": 55,
      "hit": false,
      "t": 74485.34105208398,
      "d": 67.30747916667315,
      "v": 74
    },
    {
      "midi": 56,
      "hit": false,
      "t": 74619.95601041733,
      "d": 96.15354166667385,
      "v": 69
    },
    {
      "midi": 58,
      "hit": false,
      "t": 74783.41703125068,
      "d": 52.8844479166728,
      "v": 55
    },
    {
      "midi": 59,
      "hit": false,
      "t": 74889.18592708402,
      "d": 62.499802083329996,
      "v": 57
    },
    {
      "midi": 61,
      "hit": false,
      "t": 74999.76250000068,
      "d": 62.499802083329996,
      "v": 57
    },
    {
      "midi": 62,
      "hit": false,
      "t": 75105.53139583401,
      "d": 67.30747916667315,
      "v": 64
    },
    {
      "midi": 64,
      "hit": false,
      "t": 75211.30029166736,
      "d": 86.5381875000021,
      "v": 66
    },
    {
      "midi": 65,
      "hit": false,
      "t": 75326.68454166736,
      "d": 72.11515625000175,
      "v": 67
    },
    {
      "midi": 67,
      "hit": false,
      "t": 75442.06879166736,
      "d": 67.30747916667315,
      "v": 54
    },
    {
      "midi": 68,
      "hit": false,
      "t": 75552.64536458404,
      "d": 67.30747916667315,
      "v": 67
    },
    {
      "midi": 62,
      "hit": false,
      "t": 75653.60658333404,
      "d": 43.26909375000105,
      "v": 47
    },
    {
      "midi": 58,
      "hit": false,
      "t": 75668.02961458404,
      "d": 72.11515625000175,
      "v": 31
    },
    {
      "midi": 69,
      "hit": false,
      "t": 75672.83729166737,
      "d": 100.96121875000244,
      "v": 71
    },
    {
      "midi": 66,
      "hit": false,
      "t": 75807.4522500007,
      "d": 52.8844479166728,
      "v": 56
    },
    {
      "midi": 67,
      "hit": false,
      "t": 75908.4134687507,
      "d": 67.30747916667315,
      "v": 58
    },
    {
      "midi": 69,
      "hit": false,
      "t": 76023.7977187507,
      "d": 105.7688958333456,
      "v": 69
    },
    {
      "midi": 58,
      "hit": false,
      "t": 76076.68216666738,
      "d": 38.46141666667245,
      "v": 31
    },
    {
      "midi": 70,
      "hit": false,
      "t": 76139.18196875072,
      "d": 43.26909375000105,
      "v": 57
    },
    {
      "midi": 74,
      "hit": false,
      "t": 76254.56621875073,
      "d": 62.499802083329996,
      "v": 77
    },
    {
      "midi": 77,
      "hit": false,
      "t": 76365.14279166739,
      "d": 62.499802083329996,
      "v": 64
    },
    {
      "midi": 81,
      "hit": false,
      "t": 76504.56542708405,
      "d": 72.11515625000175,
      "v": 71
    },
    {
      "midi": 84,
      "hit": false,
      "t": 76615.14200000072,
      "d": 100.96121875000244,
      "v": 89
    },
    {
      "midi": 62,
      "hit": false,
      "t": 76619.94967708405,
      "d": 67.3074791666586,
      "v": 51
    },
    {
      "midi": 58,
      "hit": false,
      "t": 76624.75735416738,
      "d": 81.7305104166735,
      "v": 42
    },
    {
      "midi": 57,
      "hit": false,
      "t": 76629.5650312507,
      "d": 43.26909375000105,
      "v": 36
    },
    {
      "midi": 72,
      "hit": false,
      "t": 76629.5650312507,
      "d": 67.30747916667315,
      "v": 69
    },
    {
      "midi": 81,
      "hit": false,
      "t": 76768.9876666674,
      "d": 24.0383854166721,
      "v": 57
    },
    {
      "midi": 84,
      "hit": false,
      "t": 76850.71817708407,
      "d": 124.99960416667454,
      "v": 87
    },
    {
      "midi": 72,
      "hit": false,
      "t": 76865.14120833407,
      "d": 72.11515625000175,
      "v": 65
    },
    {
      "midi": 58,
      "hit": false,
      "t": 76865.14120833407,
      "d": 144.2303125000035,
      "v": 46
    },
    {
      "midi": 57,
      "hit": false,
      "t": 76865.14120833407,
      "d": 543.2675104166701,
      "v": 42
    },
    {
      "midi": 62,
      "hit": false,
      "t": 76869.9488854174,
      "d": 158.6533437500184,
      "v": 49
    },
    {
      "midi": 81,
      "hit": false,
      "t": 76990.14081250074,
      "d": 91.34586458334525,
      "v": 71
    },
    {
      "midi": 77,
      "hit": false,
      "t": 77100.71738541742,
      "d": 124.99960416665999,
      "v": 66
    },
    {
      "midi": 74,
      "hit": false,
      "t": 77235.33234375075,
      "d": 33.6537395833293,
      "v": 66
    },
    {
      "midi": 84,
      "hit": false,
      "t": 77326.67820833408,
      "d": 105.76889583333104,
      "v": 87
    },
    {
      "midi": 62,
      "hit": false,
      "t": 77350.71659375075,
      "d": 33.6537395833293,
      "v": 38
    },
    {
      "midi": 58,
      "hit": false,
      "t": 77365.13962500075,
      "d": 38.4614166666579,
      "v": 31
    },
    {
      "midi": 81,
      "hit": false,
      "t": 77466.10084375074,
      "d": 43.26909375000105,
      "v": 63
    },
    {
      "midi": 63,
      "hit": false,
      "t": 77562.25438541741,
      "d": 67.3074791666586,
      "v": 51
    },
    {
      "midi": 58,
      "hit": false,
      "t": 77562.25438541741,
      "d": 115.3842500000028,
      "v": 44
    },
    {
      "midi": 52,
      "hit": false,
      "t": 77567.06206250074,
      "d": 72.11515625000175,
      "v": 48
    },
    {
      "midi": 73,
      "hit": false,
      "t": 77571.86973958407,
      "d": 91.34586458334525,
      "v": 71
    },
    {
      "midi": 85,
      "hit": false,
      "t": 77571.86973958407,
      "d": 120.19192708334594,
      "v": 75
    },
    {
      "midi": 82,
      "hit": false,
      "t": 77711.29237500075,
      "d": 158.65334375000384,
      "v": 55
    },
    {
      "midi": 73,
      "hit": false,
      "t": 77821.8689479174,
      "d": 24.0383854166721,
      "v": 49
    },
    {
      "midi": 63,
      "hit": false,
      "t": 77821.8689479174,
      "d": 52.8844479166728,
      "v": 37
    },
    {
      "midi": 58,
      "hit": false,
      "t": 77831.48430208408,
      "d": 72.11515625000175,
      "v": 33
    },
    {
      "midi": 63,
      "hit": false,
      "t": 78321.86736458408,
      "d": 76.9228333333449,
      "v": 71
    },
    {
      "midi": 58,
      "hit": false,
      "t": 78321.86736458408,
      "d": 96.15354166667385,
      "v": 56
    },
    {
      "midi": 52,
      "hit": false,
      "t": 78331.48271875075,
      "d": 28.8460625000007,
      "v": 57
    },
    {
      "midi": 63,
      "hit": false,
      "t": 78523.78980208408,
      "d": 221.1531458333484,
      "v": 60
    },
    {
      "midi": 58,
      "hit": false,
      "t": 78528.59747916741,
      "d": 177.88405208334734,
      "v": 44
    },
    {
      "midi": 52,
      "hit": false,
      "t": 78538.21283333408,
      "d": 158.65334375000384,
      "v": 53
    },
    {
      "midi": 67,
      "hit": false,
      "t": 78937.25003125076,
      "d": 144.23031249998894,
      "v": 74
    },
    {
      "midi": 92,
      "hit": false,
      "t": 78937.25003125076,
      "d": 177.88405208331824,
      "v": 80
    },
    {
      "midi": 62,
      "hit": false,
      "t": 78942.05770833409,
      "d": 134.61495833333174,
      "v": 70
    },
    {
      "midi": 80,
      "hit": false,
      "t": 78942.05770833409,
      "d": 192.3070833333186,
      "v": 76
    },
    {
      "midi": 56,
      "hit": false,
      "t": 78946.86538541742,
      "d": 225.96082291666244,
      "v": 64
    },
    {
      "midi": 64,
      "hit": false,
      "t": 79230.51833333408,
      "d": 754.8053020833031,
      "v": 66
    },
    {
      "midi": 55,
      "hit": false,
      "t": 79230.51833333408,
      "d": 774.0360104166466,
      "v": 71
    },
    {
      "midi": 91,
      "hit": false,
      "t": 79235.32601041741,
      "d": 346.1527499999793,
      "v": 83
    },
    {
      "midi": 60,
      "hit": false,
      "t": 79235.32601041741,
      "d": 759.6129791666463,
      "v": 58
    },
    {
      "midi": 79,
      "hit": false,
      "t": 79240.13368750074,
      "d": 317.30668749999313,
      "v": 79
    },
    {
      "midi": 88,
      "hit": false,
      "t": 79576.67108333406,
      "d": 120.1919270833314,
      "v": 78
    },
    {
      "midi": 84,
      "hit": false,
      "t": 79716.09371875072,
      "d": 115.3842500000028,
      "v": 74
    },
    {
      "midi": 79,
      "hit": false,
      "t": 79874.74706250073,
      "d": 216.34546875000524,
      "v": 54
    },
    {
      "midi": 76,
      "hit": false,
      "t": 80168.01536458406,
      "d": 86.53818749998754,
      "v": 72
    },
    {
      "midi": 64,
      "hit": false,
      "t": 80172.82304166739,
      "d": 96.1535416666593,
      "v": 53
    },
    {
      "midi": 60,
      "hit": false,
      "t": 80172.82304166739,
      "d": 283.65294791666383,
      "v": 46
    },
    {
      "midi": 55,
      "hit": false,
      "t": 80177.63071875072,
      "d": 350.960427083337,
      "v": 53
    },
    {
      "midi": 64,
      "hit": false,
      "t": 80615.12933333406,
      "d": 38.46141666667245,
      "v": 60
    },
    {
      "midi": 55,
      "hit": false,
      "t": 80624.74468750073,
      "d": 72.11515625000175,
      "v": 47
    },
    {
      "midi": 60,
      "hit": false,
      "t": 80629.55236458406,
      "d": 28.8460625000007,
      "v": 47
    },
    {
      "midi": 74,
      "hit": false,
      "t": 80826.66712500073,
      "d": 52.8844479166728,
      "v": 87
    },
    {
      "midi": 75,
      "hit": false,
      "t": 80889.16692708408,
      "d": 100.96121875000244,
      "v": 58
    },
    {
      "midi": 74,
      "hit": false,
      "t": 80956.47440625075,
      "d": 76.92283333333035,
      "v": 64
    },
    {
      "midi": 72,
      "hit": false,
      "t": 81052.62794791741,
      "d": 110.5765729166742,
      "v": 57
    },
    {
      "midi": 55,
      "hit": false,
      "t": 81076.66633333408,
      "d": 57.6921250000014,
      "v": 34
    },
    {
      "midi": 69,
      "hit": false,
      "t": 81163.20452083409,
      "d": 91.3458645833307,
      "v": 63
    },
    {
      "midi": 60,
      "hit": false,
      "t": 81278.58877083409,
      "d": 259.6145625000063,
      "v": 20
    },
    {
      "midi": 54,
      "hit": false,
      "t": 81278.58877083409,
      "d": 269.22991666667804,
      "v": 43
    },
    {
      "midi": 64,
      "hit": false,
      "t": 81288.20412500076,
      "d": 206.7301145833335,
      "v": 32
    },
    {
      "midi": 72,
      "hit": false,
      "t": 81293.01180208409,
      "d": 399.0371979166666,
      "v": 70
    },
    {
      "midi": 60,
      "hit": false,
      "t": 81711.27970833408,
      "d": 144.2303125000035,
      "v": 46
    },
    {
      "midi": 64,
      "hit": false,
      "t": 81720.89506250076,
      "d": 105.76889583333104,
      "v": 34
    },
    {
      "midi": 69,
      "hit": false,
      "t": 81725.70273958409,
      "d": 274.0375937499921,
      "v": 61
    },
    {
      "midi": 54,
      "hit": false,
      "t": 81730.51041666741,
      "d": 129.80728125000314,
      "v": 32
    },
    {
      "midi": 67,
      "hit": false,
      "t": 82004.5480104174,
      "d": 120.1919270833314,
      "v": 68
    },
    {
      "midi": 62,
      "hit": false,
      "t": 82014.16336458408,
      "d": 76.92283333333035,
      "v": 48
    },
    {
      "midi": 60,
      "hit": false,
      "t": 82018.9710416674,
      "d": 91.3458645833307,
      "v": 41
    },
    {
      "midi": 54,
      "hit": false,
      "t": 82018.9710416674,
      "d": 115.3842500000028,
      "v": 40
    },
    {
      "midi": 54,
      "hit": false,
      "t": 82172.81670833407,
      "d": 105.76889583333104,
      "v": 29
    },
    {
      "midi": 60,
      "hit": false,
      "t": 82177.6243854174,
      "d": 91.3458645833307,
      "v": 44
    },
    {
      "midi": 66,
      "hit": false,
      "t": 82177.6243854174,
      "d": 413.46022916668153,
      "v": 52
    },
    {
      "midi": 60,
      "hit": false,
      "t": 82451.6619791674,
      "d": 124.99960416667454,
      "v": 62
    },
    {
      "midi": 62,
      "hit": false,
      "t": 82456.46965625073,
      "d": 91.34586458334525,
      "v": 65
    },
    {
      "midi": 54,
      "hit": false,
      "t": 82466.0850104174,
      "d": 115.3842500000028,
      "v": 54
    },
    {
      "midi": 66,
      "hit": false,
      "t": 83062.23696875075,
      "d": 38.4614166666579,
      "v": 45
    },
    {
      "midi": 62,
      "hit": false,
      "t": 83067.04464583407,
      "d": 38.4614166666579,
      "v": 52
    },
    {
      "midi": 90,
      "hit": false,
      "t": 83071.8523229174,
      "d": 86.5381875000021,
      "v": 75
    },
    {
      "midi": 57,
      "hit": false,
      "t": 83076.66000000073,
      "d": 38.46141666667245,
      "v": 34
    },
    {
      "midi": 88,
      "hit": false,
      "t": 83240.12102083408,
      "d": 48.07677083332965,
      "v": 51
    },
    {
      "midi": 90,
      "hit": false,
      "t": 83384.35133333408,
      "d": 105.76889583333104,
      "v": 82
    },
    {
      "midi": 66,
      "hit": false,
      "t": 83393.96668750075,
      "d": 57.692124999986845,
      "v": 39
    },
    {
      "midi": 62,
      "hit": false,
      "t": 83398.77436458408,
      "d": 48.07677083332965,
      "v": 45
    },
    {
      "midi": 57,
      "hit": false,
      "t": 83403.58204166741,
      "d": 38.46141666667245,
      "v": 38
    },
    {
      "midi": 88,
      "hit": false,
      "t": 83567.04306250074,
      "d": 72.11515625000175,
      "v": 54
    },
    {
      "midi": 66,
      "hit": false,
      "t": 83874.73439583408,
      "d": 72.11515625000175,
      "v": 46
    },
    {
      "midi": 86,
      "hit": false,
      "t": 83874.73439583408,
      "d": 72.11515625000175,
      "v": 81
    },
    {
      "midi": 62,
      "hit": false,
      "t": 83879.54207291741,
      "d": 86.5381875000021,
      "v": 45
    },
    {
      "midi": 57,
      "hit": false,
      "t": 83889.15742708408,
      "d": 43.26909375000105,
      "v": 36
    },
    {
      "midi": 66,
      "hit": false,
      "t": 84033.38773958408,
      "d": 72.11515625000175,
      "v": 49
    },
    {
      "midi": 62,
      "hit": false,
      "t": 84038.19541666741,
      "d": 52.8844479166728,
      "v": 42
    },
    {
      "midi": 85,
      "hit": false,
      "t": 84043.00309375074,
      "d": 96.15354166667385,
      "v": 58
    },
    {
      "midi": 57,
      "hit": false,
      "t": 84052.61844791741,
      "d": 38.46141666667245,
      "v": 37
    },
    {
      "midi": 86,
      "hit": false,
      "t": 84158.38734375074,
      "d": 91.3458645833307,
      "v": 62
    },
    {
      "midi": 88,
      "hit": false,
      "t": 84312.2330104174,
      "d": 96.1535416666593,
      "v": 81
    },
    {
      "midi": 66,
      "hit": false,
      "t": 84317.04068750073,
      "d": 81.7305104166735,
      "v": 60
    },
    {
      "midi": 62,
      "hit": false,
      "t": 84326.6560416674,
      "d": 91.3458645833307,
      "v": 58
    },
    {
      "midi": 57,
      "hit": false,
      "t": 84331.46371875073,
      "d": 72.11515625000175,
      "v": 51
    },
    {
      "midi": 83,
      "hit": false,
      "t": 84494.92473958408,
      "d": 91.34586458331614,
      "v": 66
    },
    {
      "midi": 66,
      "hit": false,
      "t": 84494.92473958408,
      "d": 105.76889583331649,
      "v": 44
    },
    {
      "midi": 57,
      "hit": false,
      "t": 84499.73241666741,
      "d": 153.8456666666607,
      "v": 41
    },
    {
      "midi": 62,
      "hit": false,
      "t": 84504.54009375074,
      "d": 120.1919270833314,
      "v": 48
    },
    {
      "midi": 66,
      "hit": false,
      "t": 84768.96233333407,
      "d": 81.73051041665894,
      "v": 54
    },
    {
      "midi": 83,
      "hit": false,
      "t": 84768.96233333407,
      "d": 192.3070833333186,
      "v": 88
    },
    {
      "midi": 57,
      "hit": false,
      "t": 84773.7700104174,
      "d": 43.26909375000105,
      "v": 41
    },
    {
      "midi": 62,
      "hit": false,
      "t": 84778.57768750073,
      "d": 115.3842500000028,
      "v": 54
    },
    {
      "midi": 66,
      "hit": false,
      "t": 84937.23103125073,
      "d": 48.07677083332965,
      "v": 42
    },
    {
      "midi": 62,
      "hit": false,
      "t": 84937.23103125073,
      "d": 52.884447916658246,
      "v": 27
    },
    {
      "midi": 56,
      "hit": false,
      "t": 84956.46173958406,
      "d": 28.8460625000007,
      "v": 30
    },
    {
      "midi": 88,
      "hit": false,
      "t": 85687.22865625072,
      "d": 192.3070833333186,
      "v": 110
    },
    {
      "midi": 62,
      "hit": false,
      "t": 85701.65168750072,
      "d": 139.42263541666034,
      "v": 68
    },
    {
      "midi": 56,
      "hit": false,
      "t": 85701.65168750072,
      "d": 355.768104166651,
      "v": 69
    },
    {
      "midi": 67,
      "hit": false,
      "t": 85706.45936458405,
      "d": 105.76889583333104,
      "v": 68
    },
    {
      "midi": 67,
      "hit": false,
      "t": 85874.72806250071,
      "d": 139.42263541666034,
      "v": 45
    },
    {
      "midi": 62,
      "hit": false,
      "t": 85874.72806250071,
      "d": 192.30708333333314,
      "v": 30
    },
    {
      "midi": 84,
      "hit": false,
      "t": 85879.53573958404,
      "d": 230.7685000000056,
      "v": 82
    },
    {
      "midi": 79,
      "hit": false,
      "t": 86139.15030208405,
      "d": 91.3458645833307,
      "v": 66
    },
    {
      "midi": 62,
      "hit": false,
      "t": 86148.76565625072,
      "d": 249.99920833333454,
      "v": 65
    },
    {
      "midi": 56,
      "hit": false,
      "t": 86148.76565625072,
      "d": 341.34507291666523,
      "v": 55
    },
    {
      "midi": 67,
      "hit": false,
      "t": 86153.57333333405,
      "d": 173.0763750000042,
      "v": 52
    },
    {
      "midi": 76,
      "hit": false,
      "t": 86317.03435416738,
      "d": 259.6145625000063,
      "v": 62
    },
    {
      "midi": 54,
      "hit": false,
      "t": 86619.91801041739,
      "d": 72.11515625000175,
      "v": 45
    },
    {
      "midi": 64,
      "hit": false,
      "t": 86629.53336458406,
      "d": 43.26909375000105,
      "v": 40
    },
    {
      "midi": 61,
      "hit": false,
      "t": 86629.53336458406,
      "d": 62.499802083329996,
      "v": 34
    },
    {
      "midi": 61,
      "hit": false,
      "t": 86773.76367708406,
      "d": 81.73051041665894,
      "v": 43
    },
    {
      "midi": 64,
      "hit": false,
      "t": 86778.57135416739,
      "d": 72.11515625000175,
      "v": 57
    },
    {
      "midi": 80,
      "hit": false,
      "t": 86778.57135416739,
      "d": 105.76889583333104,
      "v": 70
    },
    {
      "midi": 59,
      "hit": false,
      "t": 86788.18670833406,
      "d": 67.3074791666586,
      "v": 29
    },
    {
      "midi": 54,
      "hit": false,
      "t": 86792.99438541739,
      "d": 374.99881249999453,
      "v": 44
    },
    {
      "midi": 81,
      "hit": false,
      "t": 86922.8016666674,
      "d": 96.15354166667385,
      "v": 64
    },
    {
      "midi": 64,
      "hit": false,
      "t": 86932.41702083407,
      "d": 67.30747916667315,
      "v": 37
    },
    {
      "midi": 61,
      "hit": false,
      "t": 86937.2246979174,
      "d": 67.30747916667315,
      "v": 36
    },
    {
      "midi": 59,
      "hit": false,
      "t": 86946.84005208407,
      "d": 62.499802083329996,
      "v": 37
    },
    {
      "midi": 80,
      "hit": false,
      "t": 87052.6089479174,
      "d": 120.19192708331684,
      "v": 60
    },
    {
      "midi": 64,
      "hit": false,
      "t": 87062.22430208407,
      "d": 81.73051041665894,
      "v": 53
    },
    {
      "midi": 61,
      "hit": false,
      "t": 87067.0319791674,
      "d": 81.73051041665894,
      "v": 37
    },
    {
      "midi": 59,
      "hit": false,
      "t": 87081.4550104174,
      "d": 62.499802083329996,
      "v": 27
    },
    {
      "midi": 76,
      "hit": false,
      "t": 87216.06996875071,
      "d": 91.34586458331614,
      "v": 69
    },
    {
      "midi": 64,
      "hit": false,
      "t": 87216.06996875071,
      "d": 115.38424999998824,
      "v": 38
    },
    {
      "midi": 61,
      "hit": false,
      "t": 87220.87764583404,
      "d": 144.23031249998894,
      "v": 38
    },
    {
      "midi": 54,
      "hit": false,
      "t": 87225.68532291737,
      "d": 120.1919270833314,
      "v": 30
    },
    {
      "midi": 59,
      "hit": false,
      "t": 87230.4930000007,
      "d": 100.96121875000244,
      "v": 50
    },
    {
      "midi": 64,
      "hit": false,
      "t": 87533.3766562507,
      "d": 72.11515625000175,
      "v": 55
    },
    {
      "midi": 61,
      "hit": false,
      "t": 87533.3766562507,
      "d": 76.92283333333035,
      "v": 42
    },
    {
      "midi": 73,
      "hit": false,
      "t": 87533.3766562507,
      "d": 187.49940624999,
      "v": 69
    },
    {
      "midi": 59,
      "hit": false,
      "t": 87542.99201041737,
      "d": 86.53818749998754,
      "v": 48
    },
    {
      "midi": 54,
      "hit": false,
      "t": 87547.7996875007,
      "d": 105.76889583333104,
      "v": 35
    },
    {
      "midi": 64,
      "hit": false,
      "t": 87716.06838541735,
      "d": 124.99960416665999,
      "v": 41
    },
    {
      "midi": 69,
      "hit": false,
      "t": 87716.06838541735,
      "d": 197.11476041666174,
      "v": 54
    },
    {
      "midi": 54,
      "hit": false,
      "t": 87720.87606250068,
      "d": 475.9600312500115,
      "v": 25
    },
    {
      "midi": 59,
      "hit": false,
      "t": 87740.10677083401,
      "d": 134.61495833333174,
      "v": 34
    },
    {
      "midi": 61,
      "hit": false,
      "t": 87744.91444791734,
      "d": 72.11515625000175,
      "v": 25
    },
    {
      "midi": 64,
      "hit": false,
      "t": 88009.33668750069,
      "d": 163.46102083333244,
      "v": 57
    },
    {
      "midi": 61,
      "hit": false,
      "t": 88014.14436458402,
      "d": 293.26830208335014,
      "v": 48
    },
    {
      "midi": 59,
      "hit": false,
      "t": 88014.14436458402,
      "d": 374.9988125000091,
      "v": 46
    },
    {
      "midi": 74,
      "hit": false,
      "t": 88211.2591250007,
      "d": 52.8844479166728,
      "v": 84
    },
    {
      "midi": 75,
      "hit": false,
      "t": 88264.14357291737,
      "d": 120.1919270833314,
      "v": 69
    },
    {
      "midi": 74,
      "hit": false,
      "t": 88350.68176041737,
      "d": 81.73051041665894,
      "v": 70
    },
    {
      "midi": 60,
      "hit": false,
      "t": 88451.64297916736,
      "d": 413.460229166667,
      "v": 30
    },
    {
      "midi": 72,
      "hit": false,
      "t": 88470.87368750069,
      "d": 86.5381875000021,
      "v": 68
    },
    {
      "midi": 55,
      "hit": false,
      "t": 88629.52703125069,
      "d": 192.30708333333314,
      "v": 55
    },
    {
      "midi": 74,
      "hit": false,
      "t": 88639.14238541736,
      "d": 298.07597916664963,
      "v": 87
    },
    {
      "midi": 63,
      "hit": false,
      "t": 88643.95006250069,
      "d": 187.49940625000454,
      "v": 32
    },
    {
      "midi": 63,
      "hit": false,
      "t": 88913.17997916735,
      "d": 153.8456666666607,
      "v": 57
    },
    {
      "midi": 60,
      "hit": false,
      "t": 88917.98765625068,
      "d": 437.4986145833391,
      "v": 41
    },
    {
      "midi": 75,
      "hit": false,
      "t": 88927.60301041736,
      "d": 96.1535416666593,
      "v": 78
    },
    {
      "midi": 55,
      "hit": false,
      "t": 88932.41068750068,
      "d": 149.0379895833321,
      "v": 48
    },
    {
      "midi": 57,
      "hit": false,
      "t": 88951.64139583401,
      "d": 91.3458645833307,
      "v": 27
    },
    {
      "midi": 77,
      "hit": false,
      "t": 89067.02564583402,
      "d": 81.7305104166735,
      "v": 65
    },
    {
      "midi": 78,
      "hit": false,
      "t": 89187.21757291736,
      "d": 76.92283333333035,
      "v": 64
    },
    {
      "midi": 80,
      "hit": false,
      "t": 89312.21717708402,
      "d": 76.92283333333035,
      "v": 60
    },
    {
      "midi": 81,
      "hit": false,
      "t": 89427.60142708402,
      "d": 91.3458645833307,
      "v": 68
    },
    {
      "midi": 60,
      "hit": false,
      "t": 89456.44748958402,
      "d": 331.7297187499935,
      "v": 32
    },
    {
      "midi": 64,
      "hit": false,
      "t": 89461.25516666735,
      "d": 129.80728125000314,
      "v": 44
    },
    {
      "midi": 54,
      "hit": false,
      "t": 89470.87052083403,
      "d": 769.2283333333471,
      "v": 33
    },
    {
      "midi": 82,
      "hit": false,
      "t": 89552.60103125068,
      "d": 72.11515625000175,
      "v": 49
    },
    {
      "midi": 60,
      "hit": false,
      "t": 89970.86893750068,
      "d": 81.7305104166735,
      "v": 40
    },
    {
      "midi": 64,
      "hit": false,
      "t": 89975.67661458401,
      "d": 76.9228333333449,
      "v": 40
    },
    {
      "midi": 81,
      "hit": false,
      "t": 89975.67661458401,
      "d": 100.961218750017,
      "v": 65
    },
    {
      "midi": 58,
      "hit": false,
      "t": 89999.71500000068,
      "d": 211.5377916666912,
      "v": 31
    },
    {
      "midi": 82,
      "hit": false,
      "t": 90100.6762187507,
      "d": 52.8844479166728,
      "v": 61
    },
    {
      "midi": 86,
      "hit": false,
      "t": 90220.86814583404,
      "d": 67.3074791666586,
      "v": 59
    },
    {
      "midi": 89,
      "hit": false,
      "t": 90331.4447187507,
      "d": 67.30747916667315,
      "v": 75
    },
    {
      "midi": 62,
      "hit": false,
      "t": 90437.21361458405,
      "d": 274.0375937499921,
      "v": 46
    },
    {
      "midi": 93,
      "hit": false,
      "t": 90442.02129166738,
      "d": 91.3458645833307,
      "v": 74
    },
    {
      "midi": 57,
      "hit": false,
      "t": 90446.8289687507,
      "d": 331.72971875000803,
      "v": 41
    },
    {
      "midi": 58,
      "hit": false,
      "t": 90451.63664583403,
      "d": 288.460625000007,
      "v": 34
    },
    {
      "midi": 55,
      "hit": false,
      "t": 90461.2520000007,
      "d": 581.728927083328,
      "v": 44
    },
    {
      "midi": 96,
      "hit": false,
      "t": 90581.44392708404,
      "d": 57.6921250000014,
      "v": 82
    },
    {
      "midi": 94,
      "hit": false,
      "t": 90682.40514583404,
      "d": 120.19192708334594,
      "v": 60
    },
    {
      "midi": 90,
      "hit": false,
      "t": 90817.02010416739,
      "d": 62.499802083329996,
      "v": 57
    },
    {
      "midi": 62,
      "hit": false,
      "t": 90917.98132291739,
      "d": 72.1151562499872,
      "v": 37
    },
    {
      "midi": 93,
      "hit": false,
      "t": 90922.78900000072,
      "d": 86.53818749998754,
      "v": 84
    },
    {
      "midi": 58,
      "hit": false,
      "t": 90927.59667708405,
      "d": 86.53818749998754,
      "v": 33
    },
    {
      "midi": 91,
      "hit": false,
      "t": 91047.78860416736,
      "d": 86.5381875000021,
      "v": 66
    },
    {
      "midi": 86,
      "hit": false,
      "t": 91158.36517708404,
      "d": 67.30747916667315,
      "v": 41
    },
    {
      "midi": 84,
      "hit": false,
      "t": 91283.36478125071,
      "d": 96.15354166667385,
      "v": 70
    },
    {
      "midi": 62,
      "hit": false,
      "t": 91687.20965625072,
      "d": 33.6537395833293,
      "v": 51
    },
    {
      "midi": 57,
      "hit": false,
      "t": 91692.01733333405,
      "d": 38.46141666667245,
      "v": 52
    },
    {
      "midi": 58,
      "hit": false,
      "t": 91696.82501041738,
      "d": 48.0767708333442,
      "v": 34
    },
    {
      "midi": 82,
      "hit": false,
      "t": 91869.90138541738,
      "d": 72.11515625000175,
      "v": 72
    },
    {
      "midi": 84,
      "hit": false,
      "t": 92014.13169791739,
      "d": 57.69212500001595,
      "v": 70
    },
    {
      "midi": 83,
      "hit": false,
      "t": 92023.74705208406,
      "d": 24.0383854166721,
      "v": 53
    },
    {
      "midi": 85,
      "hit": false,
      "t": 92148.74665625073,
      "d": 91.3458645833307,
      "v": 85
    },
    {
      "midi": 84,
      "hit": false,
      "t": 92307.40000000074,
      "d": 100.96121875000244,
      "v": 74
    },
    {
      "midi": 82,
      "hit": false,
      "t": 92461.24566666741,
      "d": 72.11515625000175,
      "v": 52
    },
    {
      "midi": 58,
      "hit": false,
      "t": 92610.28365625074,
      "d": 52.884447916658246,
      "v": 67
    },
    {
      "midi": 63,
      "hit": false,
      "t": 92615.09133333407,
      "d": 38.4614166666579,
      "v": 78
    },
    {
      "midi": 52,
      "hit": false,
      "t": 92629.51436458407,
      "d": 19.23070833332895,
      "v": 59
    },
    {
      "midi": 72,
      "hit": false,
      "t": 92788.16770833406,
      "d": 158.65334375000384,
      "v": 51
    },
    {
      "midi": 72,
      "hit": false,
      "t": 93086.24368750073,
      "d": 158.65334375000384,
      "v": 78
    },
    {
      "midi": 84,
      "hit": false,
      "t": 93086.24368750073,
      "d": 168.2686979166756,
      "v": 81
    },
    {
      "midi": 84,
      "hit": false,
      "t": 93389.12734375073,
      "d": 72.11515625000175,
      "v": 84
    },
    {
      "midi": 72,
      "hit": false,
      "t": 93393.93502083406,
      "d": 120.19192708334594,
      "v": 71
    },
    {
      "midi": 58,
      "hit": false,
      "t": 93523.74230208408,
      "d": 62.49980208334455,
      "v": 52
    },
    {
      "midi": 52,
      "hit": false,
      "t": 93533.35765625075,
      "d": 24.0383854166721,
      "v": 59
    },
    {
      "midi": 80,
      "hit": false,
      "t": 93687.20332291743,
      "d": 96.15354166667385,
      "v": 64
    },
    {
      "midi": 68,
      "hit": false,
      "t": 93692.01100000076,
      "d": 100.961218750017,
      "v": 73
    },
    {
      "midi": 73,
      "hit": false,
      "t": 93706.43403125076,
      "d": 24.0383854166721,
      "v": 46
    },
    {
      "midi": 81,
      "hit": false,
      "t": 93841.0489895841,
      "d": 62.499802083329996,
      "v": 74
    },
    {
      "midi": 69,
      "hit": false,
      "t": 93845.85666666743,
      "d": 52.8844479166728,
      "v": 69
    },
    {
      "midi": 81,
      "hit": false,
      "t": 93994.89465625076,
      "d": 182.6917291666614,
      "v": 80
    },
    {
      "midi": 62,
      "hit": false,
      "t": 93999.70233333409,
      "d": 225.96082291666244,
      "v": 74
    },
    {
      "midi": 58,
      "hit": false,
      "t": 93999.70233333409,
      "d": 259.61456249999173,
      "v": 64
    },
    {
      "midi": 69,
      "hit": false,
      "t": 94004.51001041742,
      "d": 192.30708333333314,
      "v": 82
    },
    {
      "midi": 57,
      "hit": false,
      "t": 94004.51001041742,
      "d": 274.0375937499921,
      "v": 66
    },
    {
      "midi": 75,
      "hit": false,
      "t": 94023.74071875075,
      "d": 24.0383854166721,
      "v": 31
    },
    {
      "midi": 77,
      "hit": false,
      "t": 94283.35528125074,
      "d": 62.49980208334455,
      "v": 64
    },
    {
      "midi": 65,
      "hit": false,
      "t": 94292.97063541741,
      "d": 62.49980208334455,
      "v": 54
    },
    {
      "midi": 65,
      "hit": false,
      "t": 94437.20094791743,
      "d": 57.692124999986845,
      "v": 68
    },
    {
      "midi": 77,
      "hit": false,
      "t": 94437.20094791743,
      "d": 86.53818749998754,
      "v": 71
    },
    {
      "midi": 58,
      "hit": false,
      "t": 94451.62397916743,
      "d": 67.3074791666586,
      "v": 45
    },
    {
      "midi": 62,
      "hit": false,
      "t": 94456.43165625076,
      "d": 33.6537395833293,
      "v": 52
    },
    {
      "midi": 57,
      "hit": false,
      "t": 94456.43165625076,
      "d": 38.4614166666579,
      "v": 48
    },
    {
      "midi": 80,
      "hit": false,
      "t": 94768.93066666742,
      "d": 105.76889583331649,
      "v": 80
    },
    {
      "midi": 68,
      "hit": false,
      "t": 94773.73834375075,
      "d": 100.96121874998789,
      "v": 85
    },
    {
      "midi": 58,
      "hit": false,
      "t": 94778.54602083408,
      "d": 105.76889583333104,
      "v": 61
    },
    {
      "midi": 57,
      "hit": false,
      "t": 94783.35369791741,
      "d": 240.3838541666628,
      "v": 54
    },
    {
      "midi": 62,
      "hit": false,
      "t": 94788.16137500074,
      "d": 62.499802083329996,
      "v": 50
    },
    {
      "midi": 64,
      "hit": false,
      "t": 94792.96905208407,
      "d": 24.0383854166721,
      "v": 54
    },
    {
      "midi": 62,
      "hit": false,
      "t": 94922.77633333408,
      "d": 57.692124999986845,
      "v": 60
    },
    {
      "midi": 69,
      "hit": false,
      "t": 94922.77633333408,
      "d": 72.1151562499872,
      "v": 76
    },
    {
      "midi": 81,
      "hit": false,
      "t": 94927.58401041741,
      "d": 57.692124999986845,
      "v": 57
    },
    {
      "midi": 58,
      "hit": false,
      "t": 94927.58401041741,
      "d": 81.73051041665894,
      "v": 54
    },
    {
      "midi": 78,
      "hit": false,
      "t": 94932.39168750074,
      "d": 86.5381875000021,
      "v": 44
    },
    {
      "midi": 79,
      "hit": false,
      "t": 94937.19936458407,
      "d": 24.0383854166721,
      "v": 52
    },
    {
      "midi": 58,
      "hit": false,
      "t": 95071.8143229174,
      "d": 86.53818749998754,
      "v": 47
    },
    {
      "midi": 57,
      "hit": false,
      "t": 95071.8143229174,
      "d": 115.38424999998824,
      "v": 37
    },
    {
      "midi": 62,
      "hit": false,
      "t": 95076.62200000073,
      "d": 52.8844479166728,
      "v": 61
    },
    {
      "midi": 81,
      "hit": false,
      "t": 95076.62200000073,
      "d": 62.499802083329996,
      "v": 81
    },
    {
      "midi": 69,
      "hit": false,
      "t": 95086.2373541674,
      "d": 48.07677083332965,
      "v": 69
    },
    {
      "midi": 57,
      "hit": false,
      "t": 95206.42928125072,
      "d": 105.76889583333104,
      "v": 19
    },
    {
      "midi": 58,
      "hit": false,
      "t": 95216.04463541739,
      "d": 62.499802083329996,
      "v": 39
    },
    {
      "midi": 62,
      "hit": false,
      "t": 95220.85231250072,
      "d": 28.8460625000007,
      "v": 48
    },
    {
      "midi": 65,
      "hit": false,
      "t": 95220.85231250072,
      "d": 52.8844479166728,
      "v": 76
    },
    {
      "midi": 77,
      "hit": false,
      "t": 95225.65998958405,
      "d": 57.6921250000014,
      "v": 57
    },
    {
      "midi": 62,
      "hit": false,
      "t": 95533.35132291738,
      "d": 48.07677083332965,
      "v": 66
    },
    {
      "midi": 57,
      "hit": false,
      "t": 95533.35132291738,
      "d": 62.499802083329996,
      "v": 58
    },
    {
      "midi": 77,
      "hit": false,
      "t": 95533.35132291738,
      "d": 72.11515625000175,
      "v": 80
    },
    {
      "midi": 65,
      "hit": false,
      "t": 95538.15900000071,
      "d": 43.26909375000105,
      "v": 82
    },
    {
      "midi": 58,
      "hit": false,
      "t": 95538.15900000071,
      "d": 72.11515625000175,
      "v": 49
    },
    {
      "midi": 58,
      "hit": false,
      "t": 95841.04265625072,
      "d": 129.80728125000314,
      "v": 71
    },
    {
      "midi": 68,
      "hit": false,
      "t": 95845.85033333405,
      "d": 110.5765729166742,
      "v": 86
    },
    {
      "midi": 80,
      "hit": false,
      "t": 95845.85033333405,
      "d": 129.80728125000314,
      "v": 77
    },
    {
      "midi": 52,
      "hit": false,
      "t": 95855.46568750072,
      "d": 86.5381875000021,
      "v": 70
    },
    {
      "midi": 70,
      "hit": false,
      "t": 96119.88792708406,
      "d": 274.0375937499921,
      "v": 88
    },
    {
      "midi": 82,
      "hit": false,
      "t": 96119.88792708406,
      "d": 278.8452708333207,
      "v": 85
    },
    {
      "midi": 58,
      "hit": false,
      "t": 96119.88792708406,
      "d": 288.46062499999243,
      "v": 60
    },
    {
      "midi": 63,
      "hit": false,
      "t": 96124.69560416738,
      "d": 264.4222395833349,
      "v": 71
    },
    {
      "midi": 52,
      "hit": false,
      "t": 96129.50328125071,
      "d": 235.5761770833342,
      "v": 68
    },
    {
      "midi": 63,
      "hit": false,
      "t": 96466.04067708405,
      "d": 221.1531458333193,
      "v": 62
    },
    {
      "midi": 58,
      "hit": false,
      "t": 96470.84835416738,
      "d": 197.11476041666174,
      "v": 43
    },
    {
      "midi": 80,
      "hit": false,
      "t": 96475.6560312507,
      "d": 235.5761770833342,
      "v": 49
    },
    {
      "midi": 52,
      "hit": false,
      "t": 96480.46370833403,
      "d": 149.0379895833321,
      "v": 57
    },
    {
      "midi": 68,
      "hit": false,
      "t": 96480.46370833403,
      "d": 216.34546875000524,
      "v": 64
    },
    {
      "midi": 52,
      "hit": false,
      "t": 96778.53968750071,
      "d": 57.6921250000014,
      "v": 70
    },
    {
      "midi": 52,
      "hit": false,
      "t": 96942.00070833405,
      "d": 168.2686979166756,
      "v": 81
    },
    {
      "midi": 58,
      "hit": false,
      "t": 96942.00070833405,
      "d": 177.88405208334734,
      "v": 71
    },
    {
      "midi": 82,
      "hit": false,
      "t": 96951.61606250072,
      "d": 158.65334375000384,
      "v": 86
    },
    {
      "midi": 70,
      "hit": false,
      "t": 96951.61606250072,
      "d": 182.69172916667594,
      "v": 91
    },
    {
      "midi": 75,
      "hit": false,
      "t": 96961.23141666739,
      "d": 163.46102083333244,
      "v": 78
    },
    {
      "midi": 80,
      "hit": false,
      "t": 97244.88436458407,
      "d": 81.7305104166735,
      "v": 67
    },
    {
      "midi": 58,
      "hit": false,
      "t": 97244.88436458407,
      "d": 105.7688958333456,
      "v": 69
    },
    {
      "midi": 68,
      "hit": false,
      "t": 97249.6920416674,
      "d": 86.53818750001665,
      "v": 78
    },
    {
      "midi": 52,
      "hit": false,
      "t": 97254.49971875073,
      "d": 72.1151562500163,
      "v": 72
    },
    {
      "midi": 75,
      "hit": false,
      "t": 97264.1150729174,
      "d": 24.0383854166721,
      "v": 51
    },
    {
      "midi": 77,
      "hit": false,
      "t": 97422.76841666742,
      "d": 81.73051041665894,
      "v": 72
    },
    {
      "midi": 58,
      "hit": false,
      "t": 97422.76841666742,
      "d": 110.57657291665964,
      "v": 55
    },
    {
      "midi": 52,
      "hit": false,
      "t": 97427.57609375074,
      "d": 72.11515625000175,
      "v": 62
    },
    {
      "midi": 65,
      "hit": false,
      "t": 97437.19144791742,
      "d": 28.8460625000007,
      "v": 57
    },
    {
      "midi": 74,
      "hit": false,
      "t": 97557.38337500075,
      "d": 43.26909375000105,
      "v": 49
    },
    {
      "midi": 57,
      "hit": false,
      "t": 97701.61368750075,
      "d": 596.1519583333429,
      "v": 56
    },
    {
      "midi": 72,
      "hit": false,
      "t": 97706.42136458408,
      "d": 259.6145625000063,
      "v": 92
    },
    {
      "midi": 77,
      "hit": false,
      "t": 97706.42136458408,
      "d": 360.5757812499942,
      "v": 88
    },
    {
      "midi": 67,
      "hit": false,
      "t": 97716.03671875075,
      "d": 254.80688541666314,
      "v": 65
    },
    {
      "midi": 63,
      "hit": false,
      "t": 97716.03671875075,
      "d": 572.1135729166708,
      "v": 70
    },
    {
      "midi": 74,
      "hit": false,
      "t": 98018.92037500074,
      "d": 105.76889583333104,
      "v": 60
    },
    {
      "midi": 72,
      "hit": false,
      "t": 98052.57411458407,
      "d": 96.15354166667385,
      "v": 53
    },
    {
      "midi": 65,
      "hit": false,
      "t": 98172.76604166742,
      "d": 134.6149583333463,
      "v": 31
    },
    {
      "midi": 67,
      "hit": false,
      "t": 98177.57371875075,
      "d": 96.15354166667385,
      "v": 30
    },
    {
      "midi": 67,
      "hit": false,
      "t": 98653.53375000076,
      "d": 52.884447916658246,
      "v": 77
    },
    {
      "midi": 63,
      "hit": false,
      "t": 98658.34142708409,
      "d": 67.3074791666586,
      "v": 61
    },
    {
      "midi": 57,
      "hit": false,
      "t": 98663.14910416742,
      "d": 24.0383854166721,
      "v": 62
    },
    {
      "midi": 68,
      "hit": false,
      "t": 98816.99477083408,
      "d": 76.92283333333035,
      "v": 64
    },
    {
      "midi": 69,
      "hit": false,
      "t": 98941.99437500074,
      "d": 48.07677083332965,
      "v": 61
    },
    {
      "midi": 72,
      "hit": false,
      "t": 99047.76327083407,
      "d": 62.499802083329996,
      "v": 67
    },
    {
      "midi": 74,
      "hit": false,
      "t": 99158.33984375073,
      "d": 67.3074791666586,
      "v": 85
    },
    {
      "midi": 63,
      "hit": false,
      "t": 99177.57055208406,
      "d": 33.6537395833293,
      "v": 42
    },
    {
      "midi": 63,
      "hit": false,
      "t": 99297.76247916739,
      "d": 28.8460625000007,
      "v": 35
    },
    {
      "midi": 72,
      "hit": false,
      "t": 99547.76168750072,
      "d": 100.96121874998789,
      "v": 77
    },
    {
      "midi": 57,
      "hit": false,
      "t": 99552.56936458405,
      "d": 67.3074791666586,
      "v": 65
    },
    {
      "midi": 63,
      "hit": false,
      "t": 99552.56936458405,
      "d": 115.38424999998824,
      "v": 57
    },
    {
      "midi": 67,
      "hit": false,
      "t": 99557.37704166738,
      "d": 28.8460625000007,
      "v": 57
    },
    {
      "midi": 76,
      "hit": false,
      "t": 99716.03038541737,
      "d": 312.49901041666453,
      "v": 72
    },
    {
      "midi": 67,
      "hit": false,
      "t": 99720.8380625007,
      "d": 230.7685000000056,
      "v": 71
    },
    {
      "midi": 72,
      "hit": false,
      "t": 99725.64573958403,
      "d": 216.34546875000524,
      "v": 53
    },
    {
      "midi": 56,
      "hit": false,
      "t": 99735.2610937507,
      "d": 187.49940625000454,
      "v": 51
    },
    {
      "midi": 62,
      "hit": false,
      "t": 99735.2610937507,
      "d": 216.34546875000524,
      "v": 55
    },
    {
      "midi": 62,
      "hit": false,
      "t": 100009.2986875007,
      "d": 245.19153125000594,
      "v": 64
    },
    {
      "midi": 72,
      "hit": false,
      "t": 100014.10636458403,
      "d": 201.9224375000049,
      "v": 56
    },
    {
      "midi": 56,
      "hit": false,
      "t": 100014.10636458403,
      "d": 278.8452708333498,
      "v": 53
    },
    {
      "midi": 67,
      "hit": false,
      "t": 100610.25832291739,
      "d": 52.8844479166728,
      "v": 68
    },
    {
      "midi": 91,
      "hit": false,
      "t": 100610.25832291739,
      "d": 67.30747916667315,
      "v": 99
    },
    {
      "midi": 56,
      "hit": false,
      "t": 100610.25832291739,
      "d": 139.4226354166749,
      "v": 65
    },
    {
      "midi": 62,
      "hit": false,
      "t": 100610.25832291739,
      "d": 158.65334375000384,
      "v": 64
    },
    {
      "midi": 88,
      "hit": false,
      "t": 100744.87328125074,
      "d": 24.038385416657547,
      "v": 55
    },
    {
      "midi": 91,
      "hit": false,
      "t": 100841.0268229174,
      "d": 96.1535416666593,
      "v": 90
    },
    {
      "midi": 56,
      "hit": false,
      "t": 100850.64217708407,
      "d": 538.459833333327,
      "v": 62
    },
    {
      "midi": 62,
      "hit": false,
      "t": 100855.4498541674,
      "d": 447.1139687499963,
      "v": 67
    },
    {
      "midi": 67,
      "hit": false,
      "t": 100860.25753125073,
      "d": 350.960427083337,
      "v": 60
    },
    {
      "midi": 88,
      "hit": false,
      "t": 100975.64178125073,
      "d": 86.5381875000021,
      "v": 74
    },
    {
      "midi": 84,
      "hit": false,
      "t": 101086.21835416739,
      "d": 81.7305104166735,
      "v": 70
    },
    {
      "midi": 79,
      "hit": false,
      "t": 101191.98725000073,
      "d": 62.499802083329996,
      "v": 58
    },
    {
      "midi": 74,
      "hit": false,
      "t": 101374.6789791674,
      "d": 52.8844479166728,
      "v": 20
    },
    {
      "midi": 60,
      "hit": false,
      "t": 101552.56303125073,
      "d": 134.61495833333174,
      "v": 62
    },
    {
      "midi": 64,
      "hit": false,
      "t": 101557.37070833406,
      "d": 120.1919270833314,
      "v": 51
    },
    {
      "midi": 57,
      "hit": false,
      "t": 101557.37070833406,
      "d": 134.61495833333174,
      "v": 50
    },
    {
      "midi": 84,
      "hit": false,
      "t": 101557.37070833406,
      "d": 139.42263541666034,
      "v": 80
    },
    {
      "midi": 81,
      "hit": false,
      "t": 101720.83172916739,
      "d": 24.0383854166721,
      "v": 60
    },
    {
      "midi": 64,
      "hit": false,
      "t": 101749.67779166739,
      "d": 43.26909375000105,
      "v": 31
    },
    {
      "midi": 57,
      "hit": false,
      "t": 101768.90850000072,
      "d": 33.65373958334385,
      "v": 25
    },
    {
      "midi": 64,
      "hit": false,
      "t": 102023.7153854174,
      "d": 139.4226354166749,
      "v": 54
    },
    {
      "midi": 60,
      "hit": false,
      "t": 102023.7153854174,
      "d": 149.03798958334664,
      "v": 49
    },
    {
      "midi": 57,
      "hit": false,
      "t": 102028.52306250072,
      "d": 918.2663229166792,
      "v": 42
    },
    {
      "midi": 74,
      "hit": false,
      "t": 102033.33073958405,
      "d": 52.8844479166728,
      "v": 88
    },
    {
      "midi": 75,
      "hit": false,
      "t": 102095.8305416674,
      "d": 149.03798958334664,
      "v": 55
    },
    {
      "midi": 74,
      "hit": false,
      "t": 102172.75337500074,
      "d": 105.76889583333104,
      "v": 49
    },
    {
      "midi": 72,
      "hit": false,
      "t": 102297.7529791674,
      "d": 96.15354166667385,
      "v": 59
    },
    {
      "midi": 64,
      "hit": false,
      "t": 102470.8293541674,
      "d": 52.884447916658246,
      "v": 46
    },
    {
      "midi": 60,
      "hit": false,
      "t": 102470.8293541674,
      "d": 76.92283333333035,
      "v": 17
    },
    {
      "midi": 69,
      "hit": false,
      "t": 102475.63703125074,
      "d": 283.65294791666383,
      "v": 61
    },
    {
      "midi": 67,
      "hit": false,
      "t": 102773.7130104174,
      "d": 38.46141666667245,
      "v": 51
    },
    {
      "midi": 60,
      "hit": false,
      "t": 102783.32836458407,
      "d": 52.8844479166728,
      "v": 30
    },
    {
      "midi": 69,
      "hit": false,
      "t": 102956.40473958408,
      "d": 120.1919270833314,
      "v": 48
    },
    {
      "midi": 76,
      "hit": false,
      "t": 103244.86536458407,
      "d": 264.42223958332033,
      "v": 75
    },
    {
      "midi": 71,
      "hit": false,
      "t": 103249.6730416674,
      "d": 269.2299166666635,
      "v": 70
    },
    {
      "midi": 64,
      "hit": false,
      "t": 103249.6730416674,
      "d": 274.0375937499921,
      "v": 70
    },
    {
      "midi": 68,
      "hit": false,
      "t": 103254.48071875072,
      "d": 312.49901041666453,
      "v": 71
    },
    {
      "midi": 65,
      "hit": false,
      "t": 103259.28839583405,
      "d": 274.03759375000664,
      "v": 72
    },
    {
      "midi": 56,
      "hit": false,
      "t": 103701.59468750072,
      "d": 480.7677083332819,
      "v": 61
    },
    {
      "midi": 62,
      "hit": false,
      "t": 103711.21004166738,
      "d": 100.96121874998789,
      "v": 77
    },
    {
      "midi": 71,
      "hit": false,
      "t": 103716.0177187507,
      "d": 110.57657291665964,
      "v": 68
    },
    {
      "midi": 67,
      "hit": false,
      "t": 103716.0177187507,
      "d": 124.99960416665999,
      "v": 69
    },
    {
      "midi": 70,
      "hit": false,
      "t": 103720.82539583404,
      "d": 105.76889583333104,
      "v": 36
    },
    {
      "midi": 74,
      "hit": false,
      "t": 103893.90177083404,
      "d": 86.53818749998754,
      "v": 80
    },
    {
      "midi": 59,
      "hit": false,
      "t": 103893.90177083404,
      "d": 269.22991666664893,
      "v": 67
    },
    {
      "midi": 65,
      "hit": false,
      "t": 103908.32480208404,
      "d": 52.884447916658246,
      "v": 55
    },
    {
      "midi": 70,
      "hit": false,
      "t": 103908.32480208404,
      "d": 67.3074791666586,
      "v": 50
    },
    {
      "midi": 64,
      "hit": false,
      "t": 103917.94015625071,
      "d": 24.038385416657547,
      "v": 25
    },
    {
      "midi": 68,
      "hit": false,
      "t": 103922.74783333404,
      "d": 24.038385416657547,
      "v": 21
    },
    {
      "midi": 77,
      "hit": false,
      "t": 104167.93936458402,
      "d": 81.73051041664439,
      "v": 78
    },
    {
      "midi": 68,
      "hit": false,
      "t": 104172.74704166735,
      "d": 81.73051041664439,
      "v": 81
    },
    {
      "midi": 74,
      "hit": false,
      "t": 104177.55471875067,
      "d": 67.3074791666586,
      "v": 71
    },
    {
      "midi": 62,
      "hit": false,
      "t": 104182.362395834,
      "d": 177.88405208331824,
      "v": 75
    },
    {
      "midi": 74,
      "hit": false,
      "t": 104379.47715625065,
      "d": 33.6537395833293,
      "v": 43
    },
    {
      "midi": 80,
      "hit": false,
      "t": 104379.47715625065,
      "d": 57.6921250000014,
      "v": 37
    },
    {
      "midi": 65,
      "hit": false,
      "t": 104379.47715625065,
      "d": 81.7305104166735,
      "v": 54
    },
    {
      "midi": 68,
      "hit": false,
      "t": 104615.05333333398,
      "d": 72.1151562500163,
      "v": 72
    },
    {
      "midi": 88,
      "hit": false,
      "t": 104639.09171875066,
      "d": 81.7305104166735,
      "v": 79
    },
    {
      "midi": 65,
      "hit": false,
      "t": 104648.70707291733,
      "d": 72.11515625000175,
      "v": 32
    },
    {
      "midi": 86,
      "hit": false,
      "t": 104658.322427084,
      "d": 28.8460625000007,
      "v": 40
    },
    {
      "midi": 84,
      "hit": false,
      "t": 104826.59112500066,
      "d": 76.92283333333035,
      "v": 41
    },
    {
      "midi": 58,
      "hit": false,
      "t": 105071.78265625065,
      "d": 124.99960416665999,
      "v": 47
    },
    {
      "midi": 57,
      "hit": false,
      "t": 105071.78265625065,
      "d": 769.2283333333471,
      "v": 60
    },
    {
      "midi": 62,
      "hit": false,
      "t": 105076.59033333398,
      "d": 350.960427083337,
      "v": 54
    },
    {
      "midi": 81,
      "hit": false,
      "t": 105235.24367708398,
      "d": 288.460625000007,
      "v": 81
    },
    {
      "midi": 58,
      "hit": false,
      "t": 105240.05135416731,
      "d": 173.0763750000042,
      "v": 46
    },
    {
      "midi": 62,
      "hit": false,
      "t": 105547.74268750066,
      "d": 33.6537395833293,
      "v": 42
    },
    {
      "midi": 58,
      "hit": false,
      "t": 105547.74268750066,
      "d": 62.499802083329996,
      "v": 37
    },
    {
      "midi": 78,
      "hit": false,
      "t": 105552.55036458399,
      "d": 124.99960416667454,
      "v": 42
    },
    {
      "midi": 58,
      "hit": false,
      "t": 105691.97300000067,
      "d": 86.5381875000021,
      "v": 35
    },
    {
      "midi": 62,
      "hit": false,
      "t": 105696.780677084,
      "d": 57.6921250000014,
      "v": 44
    },
    {
      "midi": 79,
      "hit": false,
      "t": 105716.01138541733,
      "d": 221.1531458333484,
      "v": 50
    },
    {
      "midi": 57,
      "hit": false,
      "t": 105999.664333334,
      "d": 33.65373958334385,
      "v": 40
    },
    {
      "midi": 62,
      "hit": false,
      "t": 105999.664333334,
      "d": 33.65373958334385,
      "v": 40
    },
    {
      "midi": 58,
      "hit": false,
      "t": 105999.664333334,
      "d": 57.69212500001595,
      "v": 38
    },
    {
      "midi": 81,
      "hit": false,
      "t": 106009.27968750068,
      "d": 24.0383854166721,
      "v": 58
    },
    {
      "midi": 96,
      "hit": false,
      "t": 106187.16373958402,
      "d": 24.038385416657547,
      "v": 81
    },
    {
      "midi": 57,
      "hit": false,
      "t": 106187.16373958402,
      "d": 28.846062499986147,
      "v": 54
    },
    {
      "midi": 62,
      "hit": false,
      "t": 106191.97141666735,
      "d": 28.846062499986147,
      "v": 48
    },
    {
      "midi": 58,
      "hit": false,
      "t": 106191.97141666735,
      "d": 33.653739583314746,
      "v": 44
    },
    {
      "midi": 96,
      "hit": false,
      "t": 106441.97062500067,
      "d": 115.3842500000028,
      "v": 83
    },
    {
      "midi": 62,
      "hit": false,
      "t": 106446.778302084,
      "d": 57.6921250000014,
      "v": 54
    },
    {
      "midi": 58,
      "hit": false,
      "t": 106446.778302084,
      "d": 86.5381875000021,
      "v": 49
    },
    {
      "midi": 57,
      "hit": false,
      "t": 106451.58597916733,
      "d": 28.8460625000007,
      "v": 49
    },
    {
      "midi": 58,
      "hit": false,
      "t": 106595.81629166735,
      "d": 153.8456666666607,
      "v": 43
    },
    {
      "midi": 57,
      "hit": false,
      "t": 106595.81629166735,
      "d": 177.8840520833328,
      "v": 25
    },
    {
      "midi": 62,
      "hit": false,
      "t": 106600.62396875067,
      "d": 134.61495833333174,
      "v": 49
    },
    {
      "midi": 93,
      "hit": false,
      "t": 106605.431645834,
      "d": 168.2686979166756,
      "v": 66
    },
    {
      "midi": 62,
      "hit": false,
      "t": 106903.50762500068,
      "d": 499.9984166666545,
      "v": 71
    },
    {
      "midi": 90,
      "hit": false,
      "t": 106908.31530208401,
      "d": 62.499802083329996,
      "v": 71
    },
    {
      "midi": 58,
      "hit": false,
      "t": 106908.31530208401,
      "d": 495.1907395833259,
      "v": 59
    },
    {
      "midi": 91,
      "hit": false,
      "t": 106908.31530208401,
      "d": 567.3058958333277,
      "v": 62
    },
    {
      "midi": 52,
      "hit": false,
      "t": 106913.12297916734,
      "d": 485.5753854166687,
      "v": 69
    },
    {
      "midi": 89,
      "hit": false,
      "t": 107514.082614584,
      "d": 389.4218437499949,
      "v": 66
    },
    {
      "midi": 58,
      "hit": false,
      "t": 107518.89029166733,
      "d": 182.69172916667594,
      "v": 49
    },
    {
      "midi": 62,
      "hit": false,
      "t": 107518.89029166733,
      "d": 187.49940625000454,
      "v": 51
    },
    {
      "midi": 52,
      "hit": false,
      "t": 107528.505645834,
      "d": 177.8840520833328,
      "v": 44
    },
    {
      "midi": 88,
      "hit": false,
      "t": 107980.42729166734,
      "d": 52.884447916658246,
      "v": 69
    },
    {
      "midi": 58,
      "hit": false,
      "t": 107985.23496875066,
      "d": 52.884447916658246,
      "v": 45
    },
    {
      "midi": 62,
      "hit": false,
      "t": 107994.85032291734,
      "d": 33.6537395833293,
      "v": 38
    },
    {
      "midi": 92,
      "hit": false,
      "t": 108288.11862500066,
      "d": 274.03759374997753,
      "v": 83
    },
    {
      "midi": 80,
      "hit": false,
      "t": 108292.92630208399,
      "d": 283.65294791663473,
      "v": 82
    },
    {
      "midi": 62,
      "hit": false,
      "t": 108297.73397916731,
      "d": 245.19153124999139,
      "v": 77
    },
    {
      "midi": 87,
      "hit": false,
      "t": 108297.73397916731,
      "d": 269.22991666664893,
      "v": 82
    },
    {
      "midi": 67,
      "hit": false,
      "t": 108302.54165625064,
      "d": 269.22991666664893,
      "v": 85
    },
    {
      "midi": 56,
      "hit": false,
      "t": 108302.54165625064,
      "d": 360.5757812499796,
      "v": 75
    },
    {
      "midi": 91,
      "hit": false,
      "t": 108749.65562500063,
      "d": 206.7301145833335,
      "v": 81
    },
    {
      "midi": 79,
      "hit": false,
      "t": 108749.65562500063,
      "d": 269.22991666667804,
      "v": 83
    },
    {
      "midi": 64,
      "hit": false,
      "t": 108749.65562500063,
      "d": 350.96042708335153,
      "v": 85
    },
    {
      "midi": 60,
      "hit": false,
      "t": 108749.65562500063,
      "d": 379.80648958335223,
      "v": 79
    },
    {
      "midi": 86,
      "hit": false,
      "t": 108754.46330208395,
      "d": 225.960822916677,
      "v": 83
    },
    {
      "midi": 55,
      "hit": false,
      "t": 108754.46330208395,
      "d": 384.6141666666954,
      "v": 84
    },
    {
      "midi": 89,
      "hit": false,
      "t": 108768.88633333395,
      "d": 28.8460625000007,
      "v": 43
    },
    {
      "midi": 64,
      "hit": false,
      "t": 109196.76959375065,
      "d": 557.6905416666705,
      "v": 84
    },
    {
      "midi": 55,
      "hit": false,
      "t": 109206.38494791732,
      "d": 480.7677083333401,
      "v": 70
    },
    {
      "midi": 65,
      "hit": false,
      "t": 109211.19262500065,
      "d": 24.0383854166721,
      "v": 32
    },
    {
      "midi": 60,
      "hit": false,
      "t": 109211.19262500065,
      "d": 495.1907395833405,
      "v": 75
    },
    {
      "midi": 55,
      "hit": false,
      "t": 109831.38296875065,
      "d": 72.11515625000175,
      "v": 55
    },
    {
      "midi": 60,
      "hit": false,
      "t": 109831.38296875065,
      "d": 81.7305104166735,
      "v": 52
    },
    {
      "midi": 67,
      "hit": false,
      "t": 109845.80600000065,
      "d": 96.15354166667385,
      "v": 55
    },
    {
      "midi": 71,
      "hit": false,
      "t": 110278.49693750066,
      "d": 197.11476041666174,
      "v": 75
    },
    {
      "midi": 64,
      "hit": false,
      "t": 110278.49693750066,
      "d": 216.3454687499907,
      "v": 53
    },
    {
      "midi": 55,
      "hit": false,
      "t": 110283.30461458399,
      "d": 225.96082291666244,
      "v": 50
    },
    {
      "midi": 60,
      "hit": false,
      "t": 110283.30461458399,
      "d": 230.76849999999104,
      "v": 56
    },
    {
      "midi": 74,
      "hit": false,
      "t": 110768.88000000066,
      "d": 52.884447916643694,
      "v": 73
    },
    {
      "midi": 64,
      "hit": false,
      "t": 110773.68767708399,
      "d": 48.076770833315095,
      "v": 74
    },
    {
      "midi": 54,
      "hit": false,
      "t": 110773.68767708399,
      "d": 72.11515624997264,
      "v": 62
    },
    {
      "midi": 68,
      "hit": false,
      "t": 110778.49535416732,
      "d": 24.038385416657547,
      "v": 48
    },
    {
      "midi": 71,
      "hit": false,
      "t": 110778.49535416732,
      "d": 48.076770833315095,
      "v": 63
    },
    {
      "midi": 60,
      "hit": false,
      "t": 110783.30303125065,
      "d": 38.4614166666579,
      "v": 54
    },
    {
      "midi": 54,
      "hit": false,
      "t": 110898.68728125063,
      "d": 163.46102083330334,
      "v": 50
    },
    {
      "midi": 74,
      "hit": false,
      "t": 110898.68728125063,
      "d": 163.46102083330334,
      "v": 52
    },
    {
      "midi": 71,
      "hit": false,
      "t": 110903.49495833396,
      "d": 158.65334374997474,
      "v": 36
    },
    {
      "midi": 64,
      "hit": false,
      "t": 110908.30263541729,
      "d": 144.23031249998894,
      "v": 53
    },
    {
      "midi": 68,
      "hit": false,
      "t": 110908.30263541729,
      "d": 149.03798958331754,
      "v": 44
    },
    {
      "midi": 60,
      "hit": false,
      "t": 110913.11031250062,
      "d": 149.03798958331754,
      "v": 46
    },
    {
      "midi": 74,
      "hit": false,
      "t": 111240.03235416727,
      "d": 173.0763749999751,
      "v": 75
    },
    {
      "midi": 54,
      "hit": false,
      "t": 111244.8400312506,
      "d": 168.2686979166465,
      "v": 71
    },
    {
      "midi": 68,
      "hit": false,
      "t": 111244.8400312506,
      "d": 168.2686979166465,
      "v": 62
    },
    {
      "midi": 64,
      "hit": false,
      "t": 111249.64770833393,
      "d": 153.8456666666607,
      "v": 75
    },
    {
      "midi": 71,
      "hit": false,
      "t": 111249.64770833393,
      "d": 173.07637499998964,
      "v": 64
    },
    {
      "midi": 60,
      "hit": false,
      "t": 111254.45538541726,
      "d": 153.8456666666607,
      "v": 70
    },
    {
      "midi": 68,
      "hit": false,
      "t": 111528.49297916725,
      "d": 139.42263541666034,
      "v": 64
    },
    {
      "midi": 71,
      "hit": false,
      "t": 111533.30065625058,
      "d": 139.42263541666034,
      "v": 60
    },
    {
      "midi": 74,
      "hit": false,
      "t": 111533.30065625058,
      "d": 163.46102083333244,
      "v": 67
    },
    {
      "midi": 64,
      "hit": false,
      "t": 111538.1083333339,
      "d": 91.3458645833307,
      "v": 66
    },
    {
      "midi": 54,
      "hit": false,
      "t": 111538.1083333339,
      "d": 711.5362083333312,
      "v": 60
    },
    {
      "midi": 60,
      "hit": false,
      "t": 111538.1083333339,
      "d": 749.9976249999891,
      "v": 65
    },
    {
      "midi": 73,
      "hit": false,
      "t": 111860.22269791724,
      "d": 76.92283333333035,
      "v": 74
    },
    {
      "midi": 74,
      "hit": false,
      "t": 111999.6453333339,
      "d": 86.5381875000021,
      "v": 79
    },
    {
      "midi": 77,
      "hit": false,
      "t": 112158.2986770839,
      "d": 96.1535416666593,
      "v": 72
    },
    {
      "midi": 79,
      "hit": false,
      "t": 112307.33666666722,
      "d": 62.499802083329996,
      "v": 67
    },
    {
      "midi": 54,
      "hit": false,
      "t": 112437.14394791723,
      "d": 91.3458645833307,
      "v": 48
    },
    {
      "midi": 80,
      "hit": false,
      "t": 112441.95162500055,
      "d": 81.7305104166735,
      "v": 82
    },
    {
      "midi": 80,
      "hit": false,
      "t": 112600.60496875056,
      "d": 52.8844479166728,
      "v": 57
    },
    {
      "midi": 58,
      "hit": false,
      "t": 112610.22032291723,
      "d": 451.9216458333249,
      "v": 40
    },
    {
      "midi": 62,
      "hit": false,
      "t": 112610.22032291723,
      "d": 466.3446770833252,
      "v": 49
    },
    {
      "midi": 57,
      "hit": false,
      "t": 112615.02800000056,
      "d": 1663.4562708333833,
      "v": 34
    },
    {
      "midi": 81,
      "hit": false,
      "t": 112658.29709375056,
      "d": 163.46102083333244,
      "v": 69
    },
    {
      "midi": 84,
      "hit": false,
      "t": 112908.2963020839,
      "d": 105.76889583333104,
      "v": 101
    },
    {
      "midi": 79,
      "hit": false,
      "t": 113086.18035416723,
      "d": 38.4614166666579,
      "v": 32
    },
    {
      "midi": 80,
      "hit": false,
      "t": 113119.83409375056,
      "d": 48.07677083332965,
      "v": 39
    },
    {
      "midi": 81,
      "hit": false,
      "t": 113187.14157291721,
      "d": 81.7305104166735,
      "v": 35
    },
    {
      "midi": 84,
      "hit": false,
      "t": 113393.87168750055,
      "d": 100.961218750017,
      "v": 99
    },
    {
      "midi": 58,
      "hit": false,
      "t": 113408.29471875055,
      "d": 139.42263541668945,
      "v": 46
    },
    {
      "midi": 62,
      "hit": false,
      "t": 113417.91007291722,
      "d": 38.46141666667245,
      "v": 38
    },
    {
      "midi": 79,
      "hit": false,
      "t": 113581.37109375057,
      "d": 86.5381875000021,
      "v": 33
    },
    {
      "midi": 80,
      "hit": false,
      "t": 113615.0248333339,
      "d": 43.26909375000105,
      "v": 34
    },
    {
      "midi": 81,
      "hit": false,
      "t": 113725.60140625057,
      "d": 67.30747916667315,
      "v": 15
    },
    {
      "midi": 62,
      "hit": false,
      "t": 113994.83132291725,
      "d": 187.4994062500191,
      "v": 51
    },
    {
      "midi": 74,
      "hit": false,
      "t": 113999.63900000058,
      "d": 115.38425000001735,
      "v": 57
    },
    {
      "midi": 58,
      "hit": false,
      "t": 113999.63900000058,
      "d": 173.07637500001874,
      "v": 43
    },
    {
      "midi": 76,
      "hit": false,
      "t": 114009.25435416725,
      "d": 19.2307083333435,
      "v": 60
    },
    {
      "midi": 78,
      "hit": false,
      "t": 114018.86970833392,
      "d": 28.8460625000007,
      "v": 25
    },
    {
      "midi": 77,
      "hit": false,
      "t": 114461.1760000006,
      "d": 197.1147604166763,
      "v": 90
    },
    {
      "midi": 62,
      "hit": false,
      "t": 114470.79135416728,
      "d": 163.46102083333244,
      "v": 74
    },
    {
      "midi": 58,
      "hit": false,
      "t": 114470.79135416728,
      "d": 177.8840520833328,
      "v": 62
    },
    {
      "midi": 58,
      "hit": false,
      "t": 114913.09764583394,
      "d": 211.5377916666621,
      "v": 52
    },
    {
      "midi": 74,
      "hit": false,
      "t": 114917.90532291727,
      "d": 197.11476041666174,
      "v": 79
    },
    {
      "midi": 62,
      "hit": false,
      "t": 114922.7130000006,
      "d": 124.99960416665999,
      "v": 48
    },
    {
      "midi": 62,
      "hit": false,
      "t": 115379.44232291727,
      "d": 187.49940624999,
      "v": 66
    },
    {
      "midi": 58,
      "hit": false,
      "t": 115379.44232291727,
      "d": 206.73011458331894,
      "v": 53
    },
    {
      "midi": 52,
      "hit": false,
      "t": 115384.2500000006,
      "d": 149.0379895833321,
      "v": 62
    },
    {
      "midi": 77,
      "hit": false,
      "t": 115389.05767708393,
      "d": 259.61456249999173,
      "v": 88
    },
    {
      "midi": 79,
      "hit": false,
      "t": 115691.94133333392,
      "d": 163.461020833347,
      "v": 71
    },
    {
      "midi": 58,
      "hit": false,
      "t": 115701.55668750059,
      "d": 240.38385416667734,
      "v": 46
    },
    {
      "midi": 62,
      "hit": false,
      "t": 115711.17204166726,
      "d": 43.26909375000105,
      "v": 38
    },
    {
      "midi": 52,
      "hit": false,
      "t": 115711.17204166726,
      "d": 177.8840520833328,
      "v": 55
    },
    {
      "midi": 74,
      "hit": false,
      "t": 115855.40235416727,
      "d": 100.96121875000244,
      "v": 56
    },
    {
      "midi": 62,
      "hit": false,
      "t": 115855.40235416727,
      "d": 144.2303125000035,
      "v": 30
    },
    {
      "midi": 77,
      "hit": false,
      "t": 116139.05530208393,
      "d": 350.96042708332243,
      "v": 113
    },
    {
      "midi": 57,
      "hit": false,
      "t": 116143.86297916726,
      "d": 274.0375937499921,
      "v": 65
    },
    {
      "midi": 60,
      "hit": false,
      "t": 116143.86297916726,
      "d": 288.46062499999243,
      "v": 71
    },
    {
      "midi": 53,
      "hit": false,
      "t": 116153.47833333393,
      "d": 269.22991666664893,
      "v": 54
    },
    {
      "midi": 60,
      "hit": false,
      "t": 116629.43836458391,
      "d": 62.499802083329996,
      "v": 54
    },
    {
      "midi": 79,
      "hit": false,
      "t": 116629.43836458391,
      "d": 370.19113541666593,
      "v": 80
    },
    {
      "midi": 57,
      "hit": false,
      "t": 116634.24604166724,
      "d": 72.11515625000175,
      "v": 48
    },
    {
      "midi": 53,
      "hit": false,
      "t": 116639.05371875057,
      "d": 52.8844479166728,
      "v": 36
    },
    {
      "midi": 62,
      "hit": false,
      "t": 116643.8613958339,
      "d": 24.0383854166721,
      "v": 42
    },
    {
      "midi": 57,
      "hit": false,
      "t": 116807.32241666724,
      "d": 120.1919270833314,
      "v": 32
    },
    {
      "midi": 62,
      "hit": false,
      "t": 116812.13009375057,
      "d": 76.92283333333035,
      "v": 36
    },
    {
      "midi": 53,
      "hit": false,
      "t": 116812.13009375057,
      "d": 124.99960416667454,
      "v": 35
    },
    {
      "midi": 74,
      "hit": false,
      "t": 116812.13009375057,
      "d": 173.0763750000042,
      "v": 64
    },
    {
      "midi": 60,
      "hit": false,
      "t": 116816.9377708339,
      "d": 100.96121875000244,
      "v": 27
    },
    {
      "midi": 77,
      "hit": false,
      "t": 117062.12930208391,
      "d": 326.92204166665033,
      "v": 80
    },
    {
      "midi": 57,
      "hit": false,
      "t": 117066.93697916724,
      "d": 240.38385416664823,
      "v": 62
    },
    {
      "midi": 60,
      "hit": false,
      "t": 117066.93697916724,
      "d": 240.38385416664823,
      "v": 64
    },
    {
      "midi": 62,
      "hit": false,
      "t": 117071.74465625056,
      "d": 187.49940624999,
      "v": 66
    },
    {
      "midi": 53,
      "hit": false,
      "t": 117071.74465625056,
      "d": 245.19153124999139,
      "v": 62
    },
    {
      "midi": 79,
      "hit": false,
      "t": 117518.85862500056,
      "d": 230.7685000000056,
      "v": 85
    },
    {
      "midi": 60,
      "hit": false,
      "t": 117528.47397916723,
      "d": 81.7305104166735,
      "v": 59
    },
    {
      "midi": 57,
      "hit": false,
      "t": 117528.47397916723,
      "d": 230.76849999999104,
      "v": 53
    },
    {
      "midi": 53,
      "hit": false,
      "t": 117533.28165625056,
      "d": 221.15314583333384,
      "v": 55
    },
    {
      "midi": 62,
      "hit": false,
      "t": 117547.70468750056,
      "d": 24.0383854166721,
      "v": 46
    },
    {
      "midi": 60,
      "hit": false,
      "t": 117653.47358333391,
      "d": 120.19192708331684,
      "v": 25
    },
    {
      "midi": 62,
      "hit": false,
      "t": 117682.31964583391,
      "d": 129.80728124997404,
      "v": 53
    },
    {
      "midi": 74,
      "hit": false,
      "t": 117701.55035416724,
      "d": 105.76889583331649,
      "v": 27
    },
    {
      "midi": 77,
      "hit": false,
      "t": 117965.97259375056,
      "d": 269.2299166666635,
      "v": 96
    },
    {
      "midi": 64,
      "hit": false,
      "t": 117970.78027083389,
      "d": 225.96082291666244,
      "v": 76
    },
    {
      "midi": 60,
      "hit": false,
      "t": 117970.78027083389,
      "d": 235.5761770833342,
      "v": 74
    },
    {
      "midi": 55,
      "hit": false,
      "t": 117970.78027083389,
      "d": 249.99920833333454,
      "v": 77
    },
    {
      "midi": 81,
      "hit": false,
      "t": 118586.16293750056,
      "d": 81.73051041665894,
      "v": 95
    },
    {
      "midi": 55,
      "hit": false,
      "t": 118586.16293750056,
      "d": 110.57657291665964,
      "v": 77
    },
    {
      "midi": 64,
      "hit": false,
      "t": 118590.97061458389,
      "d": 62.499802083329996,
      "v": 72
    },
    {
      "midi": 60,
      "hit": false,
      "t": 118590.97061458389,
      "d": 105.76889583333104,
      "v": 62
    },
    {
      "midi": 78,
      "hit": false,
      "t": 119047.69993750055,
      "d": 173.07637499998964,
      "v": 83
    },
    {
      "midi": 84,
      "hit": false,
      "t": 119047.69993750055,
      "d": 211.5377916666621,
      "v": 91
    },
    {
      "midi": 64,
      "hit": false,
      "t": 119052.50761458388,
      "d": 28.846062499986147,
      "v": 68
    },
    {
      "midi": 60,
      "hit": false,
      "t": 119057.31529166721,
      "d": 24.038385416657547,
      "v": 65
    },
    {
      "midi": 54,
      "hit": false,
      "t": 119062.12296875054,
      "d": 72.11515625000175,
      "v": 53
    },
    {
      "midi": 78,
      "hit": false,
      "t": 119470.77552083388,
      "d": 149.0379895833321,
      "v": 86
    },
    {
      "midi": 60,
      "hit": false,
      "t": 119538.08300000001,
      "d": 76.92283333333035,
      "v": 45
    },
    {
      "midi": 63,
      "hit": false,
      "t": 119538.08300000001,
      "d": 76.92283333333035,
      "v": 36
    },
    {
      "midi": 66,
      "hit": false,
      "t": 119538.08300000001,
      "d": 76.92283333333035,
      "v": 37
    },
    {
      "midi": 69,
      "hit": false,
      "t": 119538.08300000001,
      "d": 76.92283333333035,
      "v": 44
    },
    {
      "midi": 72,
      "hit": false,
      "t": 119538.08300000001,
      "d": 76.92283333333035,
      "v": 53
    },
    {
      "midi": 69,
      "hit": false,
      "t": 119999.62000000001,
      "d": 38.4614166666579,
      "v": 53
    },
    {
      "midi": 74,
      "hit": false,
      "t": 119999.62000000001,
      "d": 38.4614166666579,
      "v": 60
    },
    {
      "midi": 57,
      "hit": false,
      "t": 119999.62000000001,
      "d": 43.269093749986496,
      "v": 60
    },
    {
      "midi": 81,
      "hit": false,
      "t": 119999.62000000001,
      "d": 52.884447916658246,
      "v": 57
    },
    {
      "midi": 62,
      "hit": false,
      "t": 120004.42767708334,
      "d": 38.4614166666579,
      "v": 61
    },
    {
      "midi": 58,
      "hit": false,
      "t": 120004.42767708334,
      "d": 48.07677083332965,
      "v": 42
    },
    {
      "midi": 74,
      "hit": false,
      "t": 121196.73159375,
      "d": 278.8452708333207,
      "v": 62
    },
    {
      "midi": 70,
      "hit": false,
      "t": 121201.53927083332,
      "d": 298.0759791666642,
      "v": 59
    },
    {
      "midi": 69,
      "hit": false,
      "t": 121201.53927083332,
      "d": 302.8836562499928,
      "v": 70
    },
    {
      "midi": 62,
      "hit": false,
      "t": 121206.34694791665,
      "d": 317.30668749999313,
      "v": 61
    },
    {
      "midi": 57,
      "hit": false,
      "t": 121206.34694791665,
      "d": 322.11436458332173,
      "v": 59
    },
    {
      "midi": 58,
      "hit": false,
      "t": 121211.15462499998,
      "d": 346.15274999999383,
      "v": 46
    },
    {
      "midi": 70,
      "hit": false,
      "t": 121821.72961458331,
      "d": 216.3454687499907,
      "v": 57
    },
    {
      "midi": 74,
      "hit": false,
      "t": 121826.53729166664,
      "d": 206.7301145833335,
      "v": 70
    },
    {
      "midi": 58,
      "hit": false,
      "t": 121831.34496874997,
      "d": 211.5377916666621,
      "v": 49
    },
    {
      "midi": 64,
      "hit": false,
      "t": 121840.96032291664,
      "d": 187.49940625000454,
      "v": 36
    },
    {
      "midi": 62,
      "hit": false,
      "t": 121840.96032291664,
      "d": 192.30708333333314,
      "v": 60
    },
    {
      "midi": 65,
      "hit": false,
      "t": 121845.76799999997,
      "d": 48.0767708333442,
      "v": 38
    },
    {
      "midi": 52,
      "hit": false,
      "t": 121855.38335416664,
      "d": 177.8840520833328,
      "v": 48
    },
    {
      "midi": 60,
      "hit": false,
      "t": 122711.14987499996,
      "d": 230.76849999999104,
      "v": 39
    },
    {
      "midi": 64,
      "hit": false,
      "t": 122720.76522916663,
      "d": 230.76849999999104,
      "v": 44
    },
    {
      "midi": 58,
      "hit": false,
      "t": 122720.76522916663,
      "d": 245.19153124999139,
      "v": 27
    },
    {
      "midi": 72,
      "hit": false,
      "t": 122725.57290624996,
      "d": 201.92243749999034,
      "v": 38
    },
    {
      "midi": 52,
      "hit": false,
      "t": 122730.38058333329,
      "d": 192.30708333333314,
      "v": 31
    },
    {
      "midi": 69,
      "hit": false,
      "t": 122730.38058333329,
      "d": 235.5761770833342,
      "v": 43
    },
    {
      "midi": 64,
      "hit": false,
      "t": 123018.8412083333,
      "d": 24.038385416657547,
      "v": 60
    },
    {
      "midi": 60,
      "hit": false,
      "t": 123033.2642395833,
      "d": 28.846062499986147,
      "v": 41
    },
    {
      "midi": 72,
      "hit": false,
      "t": 123033.2642395833,
      "d": 28.846062499986147,
      "v": 52
    },
    {
      "midi": 58,
      "hit": false,
      "t": 123033.2642395833,
      "d": 48.07677083332965,
      "v": 34
    },
    {
      "midi": 69,
      "hit": false,
      "t": 123038.07191666662,
      "d": 33.6537395833293,
      "v": 39
    },
    {
      "midi": 69,
      "hit": false,
      "t": 123970.76127083329,
      "d": 24.038385416657547,
      "v": 76
    },
    {
      "midi": 74,
      "hit": false,
      "t": 123970.76127083329,
      "d": 24.038385416657547,
      "v": 68
    },
    {
      "midi": 81,
      "hit": false,
      "t": 123970.76127083329,
      "d": 52.884447916643694,
      "v": 74
    },
    {
      "midi": 77,
      "hit": false,
      "t": 123975.56894791662,
      "d": 24.038385416657547,
      "v": 58
    },
    {
      "midi": 58,
      "hit": false,
      "t": 123975.56894791662,
      "d": 48.076770833315095,
      "v": 68
    },
    {
      "midi": 62,
      "hit": false,
      "t": 123980.37662499995,
      "d": 19.23070833332895,
      "v": 72
    },
    {
      "midi": 57,
      "hit": false,
      "t": 123980.37662499995,
      "d": 24.038385416657547,
      "v": 66
    },
    {
      "midi": 93,
      "hit": false,
      "t": 124413.06756249993,
      "d": 326.92204166665033,
      "v": 88
    },
    {
      "midi": 89,
      "hit": false,
      "t": 124417.87523958326,
      "d": 336.5373958333221,
      "v": 72
    },
    {
      "midi": 86,
      "hit": false,
      "t": 124417.87523958326,
      "d": 374.99881249999453,
      "v": 72
    },
    {
      "midi": 81,
      "hit": false,
      "t": 124417.87523958326,
      "d": 399.0371979166666,
      "v": 75
    },
    {
      "midi": 58,
      "hit": false,
      "t": 124422.68291666658,
      "d": 461.5370000000112,
      "v": 62
    },
    {
      "midi": 57,
      "hit": false,
      "t": 124422.68291666658,
      "d": 466.3446770833398,
      "v": 69
    },
    {
      "midi": 62,
      "hit": false,
      "t": 124427.49059374991,
      "d": 456.7293229166826,
      "v": 74
    },
    {
      "midi": 53,
      "hit": false,
      "t": 124432.29827083324,
      "d": 427.8832604166819,
      "v": 71
    },
    {
      "midi": 77,
      "hit": false,
      "t": 125038.06558333326,
      "d": 52.884447916643694,
      "v": 51
    },
    {
      "midi": 62,
      "hit": false,
      "t": 125038.06558333326,
      "d": 67.30747916664404,
      "v": 51
    },
    {
      "midi": 86,
      "hit": false,
      "t": 125042.87326041659,
      "d": 43.269093749986496,
      "v": 46
    },
    {
      "midi": 57,
      "hit": false,
      "t": 125042.87326041659,
      "d": 62.499802083315444,
      "v": 38
    },
    {
      "midi": 89,
      "hit": false,
      "t": 125042.87326041659,
      "d": 62.499802083315444,
      "v": 45
    },
    {
      "midi": 58,
      "hit": false,
      "t": 125042.87326041659,
      "d": 86.53818749998754,
      "v": 45
    },
    {
      "midi": 84,
      "hit": false,
      "t": 125047.68093749991,
      "d": 38.4614166666579,
      "v": 55
    },
    {
      "midi": 53,
      "hit": false,
      "t": 125052.48861458324,
      "d": 48.07677083332965,
      "v": 40
    },
    {
      "midi": 89,
      "hit": false,
      "t": 125489.98722916657,
      "d": 115.38424999998824,
      "v": 63
    },
    {
      "midi": 58,
      "hit": false,
      "t": 125489.98722916657,
      "d": 120.19192708331684,
      "v": 53
    },
    {
      "midi": 93,
      "hit": false,
      "t": 125489.98722916657,
      "d": 120.19192708331684,
      "v": 71
    },
    {
      "midi": 62,
      "hit": false,
      "t": 125494.7949062499,
      "d": 110.57657291665964,
      "v": 68
    },
    {
      "midi": 86,
      "hit": false,
      "t": 125494.7949062499,
      "d": 115.38424999998824,
      "v": 57
    },
    {
      "midi": 81,
      "hit": false,
      "t": 125494.7949062499,
      "d": 129.8072812499886,
      "v": 60
    },
    {
      "midi": 52,
      "hit": false,
      "t": 125499.60258333322,
      "d": 91.3458645833307,
      "v": 62
    },
    {
      "midi": 58,
      "hit": false,
      "t": 125932.29352083322,
      "d": 173.07637499998964,
      "v": 57
    },
    {
      "midi": 82,
      "hit": false,
      "t": 125932.29352083322,
      "d": 201.92243749999034,
      "v": 55
    },
    {
      "midi": 89,
      "hit": false,
      "t": 125937.10119791655,
      "d": 144.23031249998894,
      "v": 66
    },
    {
      "midi": 62,
      "hit": false,
      "t": 125937.10119791655,
      "d": 149.03798958331754,
      "v": 68
    },
    {
      "midi": 86,
      "hit": false,
      "t": 125941.90887499988,
      "d": 144.23031249998894,
      "v": 57
    },
    {
      "midi": 77,
      "hit": false,
      "t": 125941.90887499988,
      "d": 153.8456666666607,
      "v": 61
    },
    {
      "midi": 52,
      "hit": false,
      "t": 125946.7165520832,
      "d": 115.3842500000028,
      "v": 66
    },
    {
      "midi": 75,
      "hit": false,
      "t": 126422.67658333322,
      "d": 235.5761770833342,
      "v": 77
    },
    {
      "midi": 61,
      "hit": false,
      "t": 126422.67658333322,
      "d": 240.3838541666628,
      "v": 69
    },
    {
      "midi": 58,
      "hit": false,
      "t": 126422.67658333322,
      "d": 245.19153124999139,
      "v": 57
    },
    {
      "midi": 87,
      "hit": false,
      "t": 126427.48426041655,
      "d": 206.7301145833335,
      "v": 75
    },
    {
      "midi": 82,
      "hit": false,
      "t": 126427.48426041655,
      "d": 230.7685000000056,
      "v": 62
    },
    {
      "midi": 52,
      "hit": false,
      "t": 126437.09961458322,
      "d": 192.30708333333314,
      "v": 51
    },
    {
      "midi": 85,
      "hit": false,
      "t": 126735.17559374988,
      "d": 370.1911354166514,
      "v": 64
    },
    {
      "midi": 73,
      "hit": false,
      "t": 126739.98327083321,
      "d": 360.5757812499942,
      "v": 60
    },
    {
      "midi": 80,
      "hit": false,
      "t": 126739.98327083321,
      "d": 374.99881249999453,
      "v": 62
    },
    {
      "midi": 58,
      "hit": false,
      "t": 126744.79094791654,
      "d": 317.3066875000077,
      "v": 50
    },
    {
      "midi": 61,
      "hit": false,
      "t": 126744.79094791654,
      "d": 322.1143645833363,
      "v": 58
    },
    {
      "midi": 52,
      "hit": false,
      "t": 126749.59862499987,
      "d": 269.22991666667804,
      "v": 57
    },
    {
      "midi": 84,
      "hit": false,
      "t": 127196.71259374986,
      "d": 1567.3027291666658,
      "v": 80
    },
    {
      "midi": 60,
      "hit": false,
      "t": 127196.71259374986,
      "d": 1586.5334374999948,
      "v": 69
    },
    {
      "midi": 64,
      "hit": false,
      "t": 127196.71259374986,
      "d": 1586.5334374999948,
      "v": 74
    },
    {
      "midi": 53,
      "hit": false,
      "t": 127201.52027083319,
      "d": 1581.7257604166662,
      "v": 66
    },
    {
      "midi": 79,
      "hit": false,
      "t": 127201.52027083319,
      "d": 1581.7257604166662,
      "v": 74
    },
    {
      "midi": 57,
      "hit": false,
      "t": 127201.52027083319,
      "d": 1605.7641458333383,
      "v": 72
    },
    {
      "midi": 72,
      "hit": false,
      "t": 127201.52027083319,
      "d": 1620.1871770833386,
      "v": 65
    },
    {
      "midi": 67,
      "hit": false,
      "t": 129215.93696874987,
      "d": 52.884447916658246,
      "v": 52
    },
    {
      "midi": 72,
      "hit": false,
      "t": 129220.7446458332,
      "d": 52.884447916658246,
      "v": 53
    },
    {
      "midi": 56,
      "hit": false,
      "t": 129220.7446458332,
      "d": 62.499802083329996,
      "v": 44
    },
    {
      "midi": 76,
      "hit": false,
      "t": 129220.7446458332,
      "d": 62.499802083329996,
      "v": 56
    },
    {
      "midi": 62,
      "hit": false,
      "t": 129225.55232291653,
      "d": 57.6921250000014,
      "v": 52
    },
    {
      "midi": 72,
      "hit": false,
      "t": 129970.7422708332,
      "d": 52.884447916658246,
      "v": 74
    },
    {
      "midi": 79,
      "hit": false,
      "t": 129970.7422708332,
      "d": 72.1151562499872,
      "v": 76
    },
    {
      "midi": 76,
      "hit": false,
      "t": 129975.54994791653,
      "d": 52.884447916658246,
      "v": 69
    },
    {
      "midi": 56,
      "hit": false,
      "t": 129975.54994791653,
      "d": 62.499802083329996,
      "v": 70
    },
    {
      "midi": 67,
      "hit": false,
      "t": 129980.35762499986,
      "d": 48.07677083332965,
      "v": 72
    },
    {
      "midi": 62,
      "hit": false,
      "t": 129989.97297916653,
      "d": 28.8460625000007,
      "v": 60
    },
    {
      "midi": 76,
      "hit": false,
      "t": 130427.47159374985,
      "d": 509.61377083332627,
      "v": 76
    },
    {
      "midi": 67,
      "hit": false,
      "t": 130432.27927083318,
      "d": 427.8832604166673,
      "v": 73
    },
    {
      "midi": 72,
      "hit": false,
      "t": 130432.27927083318,
      "d": 485.5753854166687,
      "v": 68
    },
    {
      "midi": 62,
      "hit": false,
      "t": 130437.08694791651,
      "d": 341.34507291666523,
      "v": 71
    },
    {
      "midi": 56,
      "hit": false,
      "t": 130437.08694791651,
      "d": 466.3446770833398,
      "v": 63
    },
    {
      "midi": 72,
      "hit": false,
      "t": 131071.70032291651,
      "d": 67.30747916664404,
      "v": 47
    },
    {
      "midi": 67,
      "hit": false,
      "t": 131076.50799999986,
      "d": 43.269093749986496,
      "v": 32
    },
    {
      "midi": 69,
      "hit": false,
      "t": 131076.50799999986,
      "d": 43.269093749986496,
      "v": 48
    },
    {
      "midi": 64,
      "hit": false,
      "t": 131081.31567708318,
      "d": 57.69212499997229,
      "v": 35
    },
    {
      "midi": 60,
      "hit": false,
      "t": 131081.31567708318,
      "d": 62.49980208330089,
      "v": 40
    },
    {
      "midi": 55,
      "hit": false,
      "t": 131090.93103124984,
      "d": 43.269093749986496,
      "v": 31
    },
    {
      "midi": 57,
      "hit": false,
      "t": 131090.93103124984,
      "d": 72.1151562499872,
      "v": 40
    },
    {
      "midi": 69,
      "hit": false,
      "t": 131980.3512916665,
      "d": 408.65255208328017,
      "v": 54
    },
    {
      "midi": 67,
      "hit": false,
      "t": 131980.3512916665,
      "d": 423.07558333326597,
      "v": 56
    },
    {
      "midi": 72,
      "hit": false,
      "t": 131980.3512916665,
      "d": 442.30629166660947,
      "v": 51
    },
    {
      "midi": 60,
      "hit": false,
      "t": 131985.15896874983,
      "d": 379.8064895833086,
      "v": 45
    },
    {
      "midi": 64,
      "hit": false,
      "t": 131985.15896874983,
      "d": 399.037197916623,
      "v": 46
    },
    {
      "midi": 57,
      "hit": false,
      "t": 131994.7743229165,
      "d": 399.037197916623,
      "v": 38
    },
    {
      "midi": 55,
      "hit": false,
      "t": 132004.38967708315,
      "d": 365.3834583333228,
      "v": 33
    },
    {
      "midi": 71,
      "hit": false,
      "t": 132744.77194791645,
      "d": 533.6521562499693,
      "v": 87
    },
    {
      "midi": 79,
      "hit": false,
      "t": 132744.77194791645,
      "d": 538.4598333332979,
      "v": 84
    },
    {
      "midi": 68,
      "hit": false,
      "t": 132749.57962499978,
      "d": 514.4214479166549,
      "v": 85
    },
    {
      "midi": 67,
      "hit": false,
      "t": 132749.57962499978,
      "d": 572.1135729166272,
      "v": 87
    },
    {
      "midi": 74,
      "hit": false,
      "t": 132754.3873020831,
      "d": 538.4598333332979,
      "v": 78
    },
    {
      "midi": 68,
      "hit": false,
      "t": 133350.5392604164,
      "d": 322.1143645833072,
      "v": 59
    },
    {
      "midi": 71,
      "hit": false,
      "t": 133360.15461458307,
      "d": 298.0759791666642,
      "v": 50
    },
    {
      "midi": 65,
      "hit": false,
      "t": 133360.15461458307,
      "d": 379.8064895833377,
      "v": 62
    },
    {
      "midi": 77,
      "hit": false,
      "t": 133364.9622916664,
      "d": 245.19153124999139,
      "v": 56
    },
    {
      "midi": 74,
      "hit": false,
      "t": 133364.9622916664,
      "d": 326.9220416666649,
      "v": 60
    },
    {
      "midi": 68,
      "hit": false,
      "t": 133816.88393749975,
      "d": 187.49940624999,
      "v": 53
    },
    {
      "midi": 76,
      "hit": false,
      "t": 133821.69161458308,
      "d": 187.49940624999,
      "v": 61
    },
    {
      "midi": 64,
      "hit": false,
      "t": 133821.69161458308,
      "d": 312.49901041665,
      "v": 55
    },
    {
      "midi": 71,
      "hit": false,
      "t": 133840.92232291642,
      "d": 96.1535416666593,
      "v": 37
    },
    {
      "midi": 65,
      "hit": false,
      "t": 134114.9599166664,
      "d": 57.69212499994319,
      "v": 71
    },
    {
      "midi": 77,
      "hit": false,
      "t": 134119.76759374974,
      "d": 67.30747916660039,
      "v": 68
    },
    {
      "midi": 68,
      "hit": false,
      "t": 134124.57527083307,
      "d": 81.73051041661529,
      "v": 62
    },
    {
      "midi": 71,
      "hit": false,
      "t": 134134.19062499973,
      "d": 24.038385416642996,
      "v": 53
    },
    {
      "midi": 58,
      "hit": false,
      "t": 134576.49691666636,
      "d": 62.499802083329996,
      "v": 54
    },
    {
      "midi": 69,
      "hit": false,
      "t": 135062.07230208302,
      "d": 495.1907395833405,
      "v": 88
    },
    {
      "midi": 58,
      "hit": false,
      "t": 135062.07230208302,
      "d": 552.8828645833419,
      "v": 60
    },
    {
      "midi": 60,
      "hit": false,
      "t": 135066.87997916635,
      "d": 514.421447916684,
      "v": 65
    },
    {
      "midi": 65,
      "hit": false,
      "t": 135066.87997916635,
      "d": 514.421447916684,
      "v": 80
    },
    {
      "midi": 62,
      "hit": false,
      "t": 135071.68765624968,
      "d": 509.6137708333554,
      "v": 74
    },
    {
      "midi": 72,
      "hit": false,
      "t": 135071.68765624968,
      "d": 620.1903437500005,
      "v": 74
    },
    {
      "midi": 58,
      "hit": false,
      "t": 135701.49335416633,
      "d": 100.96121874995879,
      "v": 36
    },
    {
      "midi": 62,
      "hit": false,
      "t": 135711.108708333,
      "d": 57.6921250000014,
      "v": 36
    },
    {
      "midi": 60,
      "hit": false,
      "t": 135715.91638541632,
      "d": 33.6537395833293,
      "v": 43
    },
    {
      "midi": 65,
      "hit": false,
      "t": 135715.91638541632,
      "d": 62.499802083329996,
      "v": 36
    },
    {
      "midi": 69,
      "hit": false,
      "t": 135715.91638541632,
      "d": 72.1151562499872,
      "v": 53
    },
    {
      "midi": 69,
      "hit": false,
      "t": 136143.79964583297,
      "d": 120.19192708330229,
      "v": 40
    },
    {
      "midi": 62,
      "hit": false,
      "t": 136148.6073229163,
      "d": 110.57657291664509,
      "v": 40
    },
    {
      "midi": 65,
      "hit": false,
      "t": 136153.41499999963,
      "d": 105.76889583331649,
      "v": 34
    },
    {
      "midi": 58,
      "hit": false,
      "t": 136158.22267708296,
      "d": 110.57657291664509,
      "v": 33
    },
    {
      "midi": 60,
      "hit": false,
      "t": 136163.0303541663,
      "d": 81.7305104166735,
      "v": 37
    },
    {
      "midi": 68,
      "hit": false,
      "t": 136590.91361458294,
      "d": 567.3058958332986,
      "v": 60
    },
    {
      "midi": 64,
      "hit": false,
      "t": 136600.5289687496,
      "d": 528.8444791666407,
      "v": 62
    },
    {
      "midi": 72,
      "hit": false,
      "t": 136600.5289687496,
      "d": 548.0751874999842,
      "v": 60
    },
    {
      "midi": 58,
      "hit": false,
      "t": 136614.95199999958,
      "d": 499.9984166666691,
      "v": 50
    },
    {
      "midi": 68,
      "hit": false,
      "t": 137350.5265937496,
      "d": 158.6533437499602,
      "v": 62
    },
    {
      "midi": 72,
      "hit": false,
      "t": 137355.33427083291,
      "d": 173.07637499994598,
      "v": 62
    },
    {
      "midi": 64,
      "hit": false,
      "t": 137360.14194791624,
      "d": 120.19192708330229,
      "v": 64
    },
    {
      "midi": 58,
      "hit": false,
      "t": 137360.14194791624,
      "d": 163.46102083328879,
      "v": 64
    },
    {
      "midi": 92,
      "hit": false,
      "t": 137836.10197916618,
      "d": 360.5757812499651,
      "v": 87
    },
    {
      "midi": 62,
      "hit": false,
      "t": 137840.9096562495,
      "d": 312.49901041665,
      "v": 82
    },
    {
      "midi": 80,
      "hit": false,
      "t": 137840.9096562495,
      "d": 350.9604270833079,
      "v": 87
    },
    {
      "midi": 87,
      "hit": false,
      "t": 137840.9096562495,
      "d": 370.1911354166223,
      "v": 83
    },
    {
      "midi": 67,
      "hit": false,
      "t": 137845.71733333284,
      "d": 331.7297187499935,
      "v": 89
    },
    {
      "midi": 56,
      "hit": false,
      "t": 137845.71733333284,
      "d": 413.4602291666379,
      "v": 80
    },
    {
      "midi": 91,
      "hit": false,
      "t": 138446.67696874947,
      "d": 168.2686979166465,
      "v": 58
    },
    {
      "midi": 86,
      "hit": false,
      "t": 138451.4846458328,
      "d": 158.6533437499893,
      "v": 51
    },
    {
      "midi": 79,
      "hit": false,
      "t": 138456.29232291612,
      "d": 163.4610208333179,
      "v": 33
    },
    {
      "midi": 60,
      "hit": false,
      "t": 138461.09999999945,
      "d": 149.0379895833321,
      "v": 52
    },
    {
      "midi": 64,
      "hit": false,
      "t": 138461.09999999945,
      "d": 149.0379895833321,
      "v": 54
    },
    {
      "midi": 55,
      "hit": false,
      "t": 138465.90767708278,
      "d": 149.0379895833321,
      "v": 58
    },
    {
      "midi": 88,
      "hit": false,
      "t": 139388.98167708277,
      "d": 86.53818749997299,
      "v": 68
    },
    {
      "midi": 60,
      "hit": false,
      "t": 139393.7893541661,
      "d": 105.76889583328739,
      "v": 48
    },
    {
      "midi": 76,
      "hit": false,
      "t": 139393.7893541661,
      "d": 105.76889583328739,
      "v": 55
    },
    {
      "midi": 55,
      "hit": false,
      "t": 139398.59703124943,
      "d": 57.69212499997229,
      "v": 53
    },
    {
      "midi": 64,
      "hit": false,
      "t": 139398.59703124943,
      "d": 81.73051041664439,
      "v": 50
    },
    {
      "midi": 83,
      "hit": false,
      "t": 139403.40470833276,
      "d": 86.53818749997299,
      "v": 50
    },
    {
      "midi": 84,
      "hit": false,
      "t": 139706.28836458272,
      "d": 81.73051041661529,
      "v": 64
    },
    {
      "midi": 72,
      "hit": false,
      "t": 139711.09604166605,
      "d": 86.53818749994389,
      "v": 49
    },
    {
      "midi": 79,
      "hit": false,
      "t": 139715.90371874938,
      "d": 76.92283333328669,
      "v": 50
    },
    {
      "midi": 64,
      "hit": false,
      "t": 139725.51907291604,
      "d": 48.076770833315095,
      "v": 57
    },
    {
      "midi": 60,
      "hit": false,
      "t": 139730.32674999937,
      "d": 38.4614166666579,
      "v": 49
    },
    {
      "midi": 55,
      "hit": false,
      "t": 139730.32674999937,
      "d": 62.49980208330089,
      "v": 58
    },
    {
      "midi": 68,
      "hit": false,
      "t": 140153.40233333266,
      "d": 490.38306249998277,
      "v": 57
    },
    {
      "midi": 64,
      "hit": false,
      "t": 140158.210010416,
      "d": 480.7677083333256,
      "v": 63
    },
    {
      "midi": 71,
      "hit": false,
      "t": 140158.210010416,
      "d": 524.0368020833121,
      "v": 68
    },
    {
      "midi": 60,
      "hit": false,
      "t": 140163.01768749932,
      "d": 480.7677083333256,
      "v": 57
    },
    {
      "midi": 54,
      "hit": false,
      "t": 140167.82536458265,
      "d": 456.7293229166826,
      "v": 59
    },
    {
      "midi": 54,
      "hit": false,
      "t": 140773.59267708263,
      "d": 91.3458645833307,
      "v": 48
    },
    {
      "midi": 60,
      "hit": false,
      "t": 140778.40035416596,
      "d": 81.7305104166735,
      "v": 45
    },
    {
      "midi": 64,
      "hit": false,
      "t": 140778.40035416596,
      "d": 81.7305104166735,
      "v": 51
    },
    {
      "midi": 68,
      "hit": false,
      "t": 140778.40035416596,
      "d": 91.3458645833307,
      "v": 49
    },
    {
      "midi": 72,
      "hit": false,
      "t": 140783.2080312493,
      "d": 100.96121874998789,
      "v": 51
    },
    {
      "midi": 54,
      "hit": false,
      "t": 141215.89896874927,
      "d": 153.8456666666607,
      "v": 51
    },
    {
      "midi": 60,
      "hit": false,
      "t": 141215.89896874927,
      "d": 163.4610208333179,
      "v": 53
    },
    {
      "midi": 74,
      "hit": false,
      "t": 141220.7066458326,
      "d": 221.15314583329018,
      "v": 51
    },
    {
      "midi": 64,
      "hit": false,
      "t": 141225.51432291593,
      "d": 182.69172916663229,
      "v": 47
    },
    {
      "midi": 68,
      "hit": false,
      "t": 141225.51432291593,
      "d": 197.11476041661808,
      "v": 33
    },
    {
      "midi": 71,
      "hit": false,
      "t": 141230.32199999926,
      "d": 163.4610208333179,
      "v": 36
    },
    {
      "midi": 68,
      "hit": false,
      "t": 141509.16727083255,
      "d": 48.076770833315095,
      "v": 45
    },
    {
      "midi": 64,
      "hit": false,
      "t": 141513.97494791588,
      "d": 24.038385416642996,
      "v": 58
    },
    {
      "midi": 60,
      "hit": false,
      "t": 141518.7826249992,
      "d": 52.884447916643694,
      "v": 66
    },
    {
      "midi": 72,
      "hit": false,
      "t": 141518.7826249992,
      "d": 62.49980208330089,
      "v": 58
    },
    {
      "midi": 54,
      "hit": false,
      "t": 141533.2056562492,
      "d": 38.4614166666579,
      "v": 46
    },
    {
      "midi": 90,
      "hit": false,
      "t": 141965.89659374917,
      "d": 67.30747916662949,
      "v": 76
    },
    {
      "midi": 78,
      "hit": false,
      "t": 141970.7042708325,
      "d": 38.4614166666579,
      "v": 64
    },
    {
      "midi": 66,
      "hit": false,
      "t": 141975.51194791583,
      "d": 24.0383854166721,
      "v": 51
    },
    {
      "midi": 57,
      "hit": false,
      "t": 141975.51194791583,
      "d": 28.8460625000007,
      "v": 48
    },
    {
      "midi": 62,
      "hit": false,
      "t": 141975.51194791583,
      "d": 33.6537395833293,
      "v": 64
    },
    {
      "midi": 61,
      "hit": false,
      "t": 141980.31962499916,
      "d": 43.269093749986496,
      "v": 50
    },
    {
      "midi": 86,
      "hit": false,
      "t": 142432.24127083248,
      "d": 692.3054999999877,
      "v": 80
    },
    {
      "midi": 74,
      "hit": false,
      "t": 142432.24127083248,
      "d": 706.7285312499735,
      "v": 82
    },
    {
      "midi": 57,
      "hit": false,
      "t": 142437.0489479158,
      "d": 663.4594375000161,
      "v": 64
    },
    {
      "midi": 66,
      "hit": false,
      "t": 142441.85662499914,
      "d": 605.7673125000147,
      "v": 64
    },
    {
      "midi": 62,
      "hit": false,
      "t": 142441.85662499914,
      "d": 673.0747916666733,
      "v": 64
    },
    {
      "midi": 61,
      "hit": false,
      "t": 142441.85662499914,
      "d": 740.3822708333028,
      "v": 54
    },
    {
      "midi": 71,
      "hit": false,
      "t": 143384.16133333245,
      "d": 24.0383854166721,
      "v": 51
    },
    {
      "midi": 74,
      "hit": false,
      "t": 143509.1609374991,
      "d": 28.846062499971595,
      "v": 72
    },
    {
      "midi": 66,
      "hit": false,
      "t": 143509.1609374991,
      "d": 62.49980208330089,
      "v": 62
    },
    {
      "midi": 86,
      "hit": false,
      "t": 143518.77629166577,
      "d": 19.230708333314396,
      "v": 68
    },
    {
      "midi": 61,
      "hit": false,
      "t": 143518.77629166577,
      "d": 81.73051041664439,
      "v": 36
    },
    {
      "midi": 57,
      "hit": false,
      "t": 143523.5839687491,
      "d": 57.69212499997229,
      "v": 36
    },
    {
      "midi": 62,
      "hit": false,
      "t": 143528.39164583242,
      "d": 33.6537395833293,
      "v": 38
    },
    {
      "midi": 95,
      "hit": false,
      "t": 143970.6979374991,
      "d": 52.8844479166728,
      "v": 79
    },
    {
      "midi": 62,
      "hit": false,
      "t": 143970.6979374991,
      "d": 72.1151562499872,
      "v": 55
    },
    {
      "midi": 83,
      "hit": false,
      "t": 143975.50561458242,
      "d": 28.8460625000007,
      "v": 68
    },
    {
      "midi": 56,
      "hit": false,
      "t": 143975.50561458242,
      "d": 67.3074791666586,
      "v": 52
    },
    {
      "midi": 66,
      "hit": false,
      "t": 143980.31329166575,
      "d": 57.6921250000014,
      "v": 36
    },
    {
      "midi": 95,
      "hit": false,
      "t": 144446.6579687491,
      "d": 211.5377916666621,
      "v": 75
    },
    {
      "midi": 66,
      "hit": false,
      "t": 144451.46564583242,
      "d": 288.4606249999779,
      "v": 57
    },
    {
      "midi": 56,
      "hit": false,
      "t": 144456.27332291575,
      "d": 274.0375937499921,
      "v": 55
    },
    {
      "midi": 83,
      "hit": false,
      "t": 144461.08099999907,
      "d": 168.2686979166756,
      "v": 62
    },
    {
      "midi": 62,
      "hit": false,
      "t": 144461.08099999907,
      "d": 259.6145625000063,
      "v": 55
    },
    {
      "midi": 56,
      "hit": false,
      "t": 145206.2709479157,
      "d": 168.2686979166465,
      "v": 67
    },
    {
      "midi": 62,
      "hit": false,
      "t": 145211.07862499903,
      "d": 187.49940624999,
      "v": 64
    },
    {
      "midi": 100,
      "hit": false,
      "t": 145215.88630208236,
      "d": 139.4226354166749,
      "v": 81
    },
    {
      "midi": 65,
      "hit": false,
      "t": 145215.88630208236,
      "d": 149.0379895833321,
      "v": 66
    },
    {
      "midi": 88,
      "hit": false,
      "t": 145225.50165624902,
      "d": 144.2303125000035,
      "v": 77
    },
    {
      "midi": 56,
      "hit": false,
      "t": 145417.80873958237,
      "d": 158.6533437499893,
      "v": 53
    },
    {
      "midi": 62,
      "hit": false,
      "t": 145427.42409374902,
      "d": 72.1151562499872,
      "v": 31
    },
    {
      "midi": 65,
      "hit": false,
      "t": 145427.42409374902,
      "d": 105.76889583331649,
      "v": 64
    },
    {
      "midi": 98,
      "hit": false,
      "t": 145432.23177083235,
      "d": 67.3074791666586,
      "v": 63
    },
    {
      "midi": 86,
      "hit": false,
      "t": 145437.03944791568,
      "d": 115.3842500000028,
      "v": 58
    },
    {
      "midi": 54,
      "hit": false,
      "t": 145691.84633333236,
      "d": 639.4210520832858,
      "v": 60
    },
    {
      "midi": 64,
      "hit": false,
      "t": 145696.6540104157,
      "d": 624.9980208333,
      "v": 58
    },
    {
      "midi": 61,
      "hit": false,
      "t": 145696.6540104157,
      "d": 682.6901458333014,
      "v": 52
    },
    {
      "midi": 97,
      "hit": false,
      "t": 145701.46168749902,
      "d": 605.7673124999856,
      "v": 75
    },
    {
      "midi": 85,
      "hit": false,
      "t": 145701.46168749902,
      "d": 615.3826666666428,
      "v": 69
    },
    {
      "midi": 59,
      "hit": false,
      "t": 145706.26936458235,
      "d": 586.5366041666712,
      "v": 57
    },
    {
      "midi": 64,
      "hit": false,
      "t": 146768.76599999898,
      "d": 52.884447916643694,
      "v": 55
    },
    {
      "midi": 54,
      "hit": false,
      "t": 146773.5736770823,
      "d": 62.49980208330089,
      "v": 48
    },
    {
      "midi": 61,
      "hit": false,
      "t": 146773.5736770823,
      "d": 115.38424999997369,
      "v": 43
    },
    {
      "midi": 92,
      "hit": false,
      "t": 146783.18903124897,
      "d": 57.69212499997229,
      "v": 60
    },
    {
      "midi": 80,
      "hit": false,
      "t": 146783.18903124897,
      "d": 76.9228333333158,
      "v": 54
    },
    {
      "midi": 59,
      "hit": false,
      "t": 146792.80438541563,
      "d": 38.4614166666579,
      "v": 35
    },
    {
      "midi": 88,
      "hit": false,
      "t": 147235.1106770823,
      "d": 76.9228333333158,
      "v": 67
    },
    {
      "midi": 64,
      "hit": false,
      "t": 147235.1106770823,
      "d": 81.73051041664439,
      "v": 55
    },
    {
      "midi": 54,
      "hit": false,
      "t": 147239.91835416562,
      "d": 86.53818749997299,
      "v": 44
    },
    {
      "midi": 61,
      "hit": false,
      "t": 147239.91835416562,
      "d": 134.6149583333172,
      "v": 38
    },
    {
      "midi": 59,
      "hit": false,
      "t": 147244.72603124895,
      "d": 100.96121874998789,
      "v": 45
    },
    {
      "midi": 76,
      "hit": false,
      "t": 147244.72603124895,
      "d": 105.76889583331649,
      "v": 48
    },
    {
      "midi": 60,
      "hit": false,
      "t": 147667.80161458228,
      "d": 466.3446770833398,
      "v": 46
    },
    {
      "midi": 63,
      "hit": false,
      "t": 147672.6092916656,
      "d": 471.1523541666684,
      "v": 59
    },
    {
      "midi": 55,
      "hit": false,
      "t": 147677.41696874893,
      "d": 432.6909375000105,
      "v": 61
    },
    {
      "midi": 75,
      "hit": false,
      "t": 147677.41696874893,
      "d": 504.8060937499977,
      "v": 68
    },
    {
      "midi": 87,
      "hit": false,
      "t": 147682.22464583226,
      "d": 466.3446770833398,
      "v": 69
    },
    {
      "midi": 57,
      "hit": false,
      "t": 147691.83999999892,
      "d": 447.1139687500254,
      "v": 52
    },
    {
      "midi": 60,
      "hit": false,
      "t": 148451.4529791656,
      "d": 225.960822916677,
      "v": 66
    },
    {
      "midi": 86,
      "hit": false,
      "t": 148456.26065624892,
      "d": 144.2303125000035,
      "v": 60
    },
    {
      "midi": 64,
      "hit": false,
      "t": 148461.06833333225,
      "d": 225.960822916677,
      "v": 62
    },
    {
      "midi": 54,
      "hit": false,
      "t": 148461.06833333225,
      "d": 288.460625000007,
      "v": 60
    },
    {
      "midi": 81,
      "hit": false,
      "t": 148465.87601041558,
      "d": 153.8456666666898,
      "v": 60
    },
    {
      "midi": 74,
      "hit": false,
      "t": 148465.87601041558,
      "d": 192.3070833333477,
      "v": 37
    },
    {
      "midi": 76,
      "hit": false,
      "t": 148489.91439583225,
      "d": 24.0383854166721,
      "v": 33
    },
    {
      "midi": 65,
      "hit": false,
      "t": 149374.5269791656,
      "d": 120.1919270833314,
      "v": 95
    },
    {
      "midi": 69,
      "hit": false,
      "t": 149374.5269791656,
      "d": 124.99960416665999,
      "v": 91
    },
    {
      "midi": 72,
      "hit": false,
      "t": 149374.5269791656,
      "d": 124.99960416665999,
      "v": 84
    },
    {
      "midi": 58,
      "hit": false,
      "t": 149374.5269791656,
      "d": 144.2303124999744,
      "v": 73
    },
    {
      "midi": 62,
      "hit": false,
      "t": 149379.33465624892,
      "d": 120.1919270833314,
      "v": 81
    },
    {
      "midi": 60,
      "hit": false,
      "t": 149379.33465624892,
      "d": 129.8072812499886,
      "v": 76
    },
    {
      "midi": 62,
      "hit": false,
      "t": 149840.8716562489,
      "d": 129.8072812499886,
      "v": 68
    },
    {
      "midi": 58,
      "hit": false,
      "t": 149840.8716562489,
      "d": 379.8064895833086,
      "v": 60
    },
    {
      "midi": 69,
      "hit": false,
      "t": 149845.67933333223,
      "d": 91.3458645833307,
      "v": 81
    },
    {
      "midi": 60,
      "hit": false,
      "t": 149845.67933333223,
      "d": 124.99960416665999,
      "v": 60
    },
    {
      "midi": 65,
      "hit": false,
      "t": 149845.67933333223,
      "d": 129.8072812499886,
      "v": 87
    },
    {
      "midi": 72,
      "hit": false,
      "t": 149845.67933333223,
      "d": 153.8456666666607,
      "v": 79
    },
    {
      "midi": 60,
      "hit": false,
      "t": 150023.56338541556,
      "d": 182.6917291666614,
      "v": 31
    },
    {
      "midi": 62,
      "hit": false,
      "t": 150023.56338541556,
      "d": 197.1147604166472,
      "v": 42
    },
    {
      "midi": 69,
      "hit": false,
      "t": 150028.3710624989,
      "d": 197.1147604166472,
      "v": 41
    },
    {
      "midi": 58,
      "hit": false,
      "t": 150461.06199999887,
      "d": 182.69172916663229,
      "v": 48
    },
    {
      "midi": 69,
      "hit": false,
      "t": 150465.8696770822,
      "d": 168.2686979166465,
      "v": 65
    },
    {
      "midi": 72,
      "hit": false,
      "t": 150470.67735416553,
      "d": 139.4226354166458,
      "v": 56
    },
    {
      "midi": 62,
      "hit": false,
      "t": 150470.67735416553,
      "d": 163.4610208333179,
      "v": 53
    },
    {
      "midi": 65,
      "hit": false,
      "t": 150470.67735416553,
      "d": 168.2686979166465,
      "v": 59
    },
    {
      "midi": 60,
      "hit": false,
      "t": 150480.29270833218,
      "d": 134.6149583333172,
      "v": 44
    },
    {
      "midi": 69,
      "hit": false,
      "t": 150922.59899999882,
      "d": 144.2303124999744,
      "v": 62
    },
    {
      "midi": 58,
      "hit": false,
      "t": 150927.40667708215,
      "d": 153.8456666666316,
      "v": 37
    },
    {
      "midi": 62,
      "hit": false,
      "t": 150927.40667708215,
      "d": 153.8456666666316,
      "v": 46
    },
    {
      "midi": 65,
      "hit": false,
      "t": 150932.21435416548,
      "d": 144.2303124999744,
      "v": 49
    },
    {
      "midi": 60,
      "hit": false,
      "t": 150946.63738541547,
      "d": 110.5765729166742,
      "v": 38
    },
    {
      "midi": 69,
      "hit": false,
      "t": 151384.13599999878,
      "d": 235.57617708330508,
      "v": 71
    },
    {
      "midi": 65,
      "hit": false,
      "t": 151388.9436770821,
      "d": 230.76849999997648,
      "v": 64
    },
    {
      "midi": 58,
      "hit": false,
      "t": 151388.9436770821,
      "d": 240.38385416663368,
      "v": 46
    },
    {
      "midi": 62,
      "hit": false,
      "t": 151388.9436770821,
      "d": 240.38385416663368,
      "v": 53
    },
    {
      "midi": 72,
      "hit": false,
      "t": 151393.75135416543,
      "d": 235.57617708330508,
      "v": 58
    },
    {
      "midi": 60,
      "hit": false,
      "t": 151398.55903124876,
      "d": 211.5377916666621,
      "v": 47
    },
    {
      "midi": 68,
      "hit": false,
      "t": 152153.36433333208,
      "d": 1014.4198645833239,
      "v": 69
    },
    {
      "midi": 64,
      "hit": false,
      "t": 152158.1720104154,
      "d": 951.920062499994,
      "v": 65
    },
    {
      "midi": 72,
      "hit": false,
      "t": 152162.97968749874,
      "d": 999.9968333333381,
      "v": 64
    },
    {
      "midi": 58,
      "hit": false,
      "t": 152162.97968749874,
      "d": 1009.6121874999953,
      "v": 52
    },
    {
      "midi": 62,
      "hit": false,
      "t": 152167.78736458207,
      "d": 966.3430937500088,
      "v": 58
    },
    {
      "midi": 62,
      "hit": false,
      "t": 153220.66864583208,
      "d": 48.07677083328599,
      "v": 57
    },
    {
      "midi": 58,
      "hit": false,
      "t": 153220.66864583208,
      "d": 52.88444791661459,
      "v": 46
    },
    {
      "midi": 72,
      "hit": false,
      "t": 153225.4763229154,
      "d": 52.88444791661459,
      "v": 60
    },
    {
      "midi": 65,
      "hit": false,
      "t": 153230.28399999873,
      "d": 24.038385416642996,
      "v": 65
    },
    {
      "midi": 60,
      "hit": false,
      "t": 153235.09167708206,
      "d": 24.038385416642996,
      "v": 54
    },
    {
      "midi": 69,
      "hit": false,
      "t": 153239.8993541654,
      "d": 28.846062499971595,
      "v": 45
    },
    {
      "midi": 58,
      "hit": false,
      "t": 154134.12729166535,
      "d": 254.80688541664858,
      "v": 57
    },
    {
      "midi": 81,
      "hit": false,
      "t": 154138.93496874868,
      "d": 182.6917291666614,
      "v": 88
    },
    {
      "midi": 72,
      "hit": false,
      "t": 154143.742645832,
      "d": 216.3454687499907,
      "v": 83
    },
    {
      "midi": 62,
      "hit": false,
      "t": 154143.742645832,
      "d": 221.1531458333193,
      "v": 62
    },
    {
      "midi": 60,
      "hit": false,
      "t": 154143.742645832,
      "d": 225.96082291664788,
      "v": 62
    },
    {
      "midi": 77,
      "hit": false,
      "t": 154461.049333332,
      "d": 28.846062499971595,
      "v": 55
    },
    {
      "midi": 69,
      "hit": false,
      "t": 154465.85701041532,
      "d": 28.846062499971595,
      "v": 51
    },
    {
      "midi": 62,
      "hit": false,
      "t": 154475.47236458198,
      "d": 33.653739583300194,
      "v": 47
    },
    {
      "midi": 58,
      "hit": false,
      "t": 154480.2800416653,
      "d": 62.49980208330089,
      "v": 33
    },
    {
      "midi": 60,
      "hit": false,
      "t": 154489.89539583196,
      "d": 28.846062499971595,
      "v": 35
    },
    {
      "midi": 74,
      "hit": false,
      "t": 155537.96899999861,
      "d": 153.8456666666607,
      "v": 75
    },
    {
      "midi": 70,
      "hit": false,
      "t": 155537.96899999861,
      "d": 187.49940624996088,
      "v": 75
    },
    {
      "midi": 77,
      "hit": false,
      "t": 155542.77667708194,
      "d": 163.4610208333179,
      "v": 73
    },
    {
      "midi": 65,
      "hit": false,
      "t": 155542.77667708194,
      "d": 177.8840520833037,
      "v": 82
    },
    {
      "midi": 62,
      "hit": false,
      "t": 155547.58435416527,
      "d": 187.49940624996088,
      "v": 61
    },
    {
      "midi": 58,
      "hit": false,
      "t": 155547.58435416527,
      "d": 211.53779166663298,
      "v": 57
    },
    {
      "midi": 73,
      "hit": false,
      "t": 156004.3136770819,
      "d": 278.8452708333207,
      "v": 75
    },
    {
      "midi": 70,
      "hit": false,
      "t": 156009.12135416523,
      "d": 182.6917291666614,
      "v": 67
    },
    {
      "midi": 64,
      "hit": false,
      "t": 156009.12135416523,
      "d": 211.5377916666621,
      "v": 71
    },
    {
      "midi": 68,
      "hit": false,
      "t": 156009.12135416523,
      "d": 221.1531458333193,
      "v": 64
    },
    {
      "midi": 61,
      "hit": false,
      "t": 156013.92903124855,
      "d": 245.19153124999139,
      "v": 64
    },
    {
      "midi": 64,
      "hit": false,
      "t": 156316.81268749855,
      "d": 365.3834583332937,
      "v": 73
    },
    {
      "midi": 68,
      "hit": false,
      "t": 156316.81268749855,
      "d": 408.65255208328017,
      "v": 67
    },
    {
      "midi": 70,
      "hit": false,
      "t": 156321.62036458188,
      "d": 403.84487499995157,
      "v": 67
    },
    {
      "midi": 58,
      "hit": false,
      "t": 156331.23571874853,
      "d": 423.07558333329507,
      "v": 57
    },
    {
      "midi": 57,
      "hit": false,
      "t": 156763.92665624848,
      "d": 1528.8413124999788,
      "v": 80
    },
    {
      "midi": 67,
      "hit": false,
      "t": 156773.54201041514,
      "d": 1394.2263541666616,
      "v": 88
    },
    {
      "midi": 72,
      "hit": false,
      "t": 156778.34968749847,
      "d": 1471.1491875000065,
      "v": 78
    },
    {
      "midi": 62,
      "hit": false,
      "t": 156783.1573645818,
      "d": 1413.4570625000051,
      "v": 83
    },
    {
      "midi": 67,
      "hit": false,
      "t": 158263.92190624846,
      "d": 57.6921250000014,
      "v": 66
    },
    {
      "midi": 56,
      "hit": false,
      "t": 158739.88193749846,
      "d": 62.49980208330089,
      "v": 76
    },
    {
      "midi": 79,
      "hit": false,
      "t": 158739.88193749846,
      "d": 67.30747916662949,
      "v": 87
    },
    {
      "midi": 67,
      "hit": false,
      "t": 158744.6896145818,
      "d": 28.8460625000007,
      "v": 87
    },
    {
      "midi": 72,
      "hit": false,
      "t": 158744.6896145818,
      "d": 33.6537395833293,
      "v": 83
    },
    {
      "midi": 62,
      "hit": false,
      "t": 158744.6896145818,
      "d": 48.076770833315095,
      "v": 76
    },
    {
      "midi": 76,
      "hit": false,
      "t": 158754.30496874845,
      "d": 24.0383854166721,
      "v": 61
    },
    {
      "midi": 79,
      "hit": false,
      "t": 158864.8815416651,
      "d": 216.3454687499907,
      "v": 66
    },
    {
      "midi": 56,
      "hit": false,
      "t": 158879.30457291508,
      "d": 173.0763750000042,
      "v": 71
    },
    {
      "midi": 72,
      "hit": false,
      "t": 158879.30457291508,
      "d": 177.8840520833328,
      "v": 69
    },
    {
      "midi": 67,
      "hit": false,
      "t": 158879.30457291508,
      "d": 182.6917291666614,
      "v": 62
    },
    {
      "midi": 62,
      "hit": false,
      "t": 158888.91992708173,
      "d": 201.9224375000049,
      "v": 64
    },
    {
      "midi": 67,
      "hit": false,
      "t": 159177.38055208174,
      "d": 230.76849999997648,
      "v": 61
    },
    {
      "midi": 76,
      "hit": false,
      "t": 159177.38055208174,
      "d": 288.4606249999779,
      "v": 67
    },
    {
      "midi": 56,
      "hit": false,
      "t": 159182.18822916507,
      "d": 211.5377916666621,
      "v": 59
    },
    {
      "midi": 72,
      "hit": false,
      "t": 159182.18822916507,
      "d": 211.5377916666621,
      "v": 58
    },
    {
      "midi": 62,
      "hit": false,
      "t": 159186.9959062484,
      "d": 249.99920833331998,
      "v": 55
    },
    {
      "midi": 72,
      "hit": false,
      "t": 159499.49491666505,
      "d": 499.99841666663997,
      "v": 65
    },
    {
      "midi": 67,
      "hit": false,
      "t": 159509.1102708317,
      "d": 485.57538541665417,
      "v": 64
    },
    {
      "midi": 62,
      "hit": false,
      "t": 159509.1102708317,
      "d": 509.61377083329717,
      "v": 55
    },
    {
      "midi": 56,
      "hit": false,
      "t": 159518.72562499836,
      "d": 490.38306249998277,
      "v": 56
    },
    {
      "midi": 79,
      "hit": false,
      "t": 160119.685260415,
      "d": 269.2299166666635,
      "v": 77
    },
    {
      "midi": 67,
      "hit": false,
      "t": 160119.685260415,
      "d": 317.3066875000077,
      "v": 74
    },
    {
      "midi": 72,
      "hit": false,
      "t": 160119.685260415,
      "d": 346.1527500000084,
      "v": 74
    },
    {
      "midi": 62,
      "hit": false,
      "t": 160124.49293749832,
      "d": 254.8068854166777,
      "v": 71
    },
    {
      "midi": 56,
      "hit": false,
      "t": 160134.10829166498,
      "d": 350.9604270833661,
      "v": 58
    },
    {
      "midi": 67,
      "hit": false,
      "t": 160590.83761458166,
      "d": 129.8072812499886,
      "v": 40
    },
    {
      "midi": 76,
      "hit": false,
      "t": 160590.83761458166,
      "d": 139.4226354166458,
      "v": 47
    },
    {
      "midi": 55,
      "hit": false,
      "t": 160595.645291665,
      "d": 120.1919270833314,
      "v": 41
    },
    {
      "midi": 60,
      "hit": false,
      "t": 160595.645291665,
      "d": 129.8072812499886,
      "v": 50
    },
    {
      "midi": 64,
      "hit": false,
      "t": 160600.45296874832,
      "d": 120.1919270833314,
      "v": 40
    },
    {
      "midi": 72,
      "hit": false,
      "t": 160600.45296874832,
      "d": 124.99960416665999,
      "v": 41
    },
    {
      "midi": 64,
      "hit": false,
      "t": 161537.9499999983,
      "d": 57.6921250000014,
      "v": 66
    },
    {
      "midi": 55,
      "hit": false,
      "t": 161537.9499999983,
      "d": 67.3074791666586,
      "v": 65
    },
    {
      "midi": 60,
      "hit": false,
      "t": 161537.9499999983,
      "d": 67.3074791666586,
      "v": 66
    },
    {
      "midi": 91,
      "hit": false,
      "t": 161542.75767708162,
      "d": 86.5381875000021,
      "v": 83
    },
    {
      "midi": 57,
      "hit": false,
      "t": 161547.56535416495,
      "d": 28.8460625000007,
      "v": 50
    },
    {
      "midi": 79,
      "hit": false,
      "t": 161547.56535416495,
      "d": 110.5765729166742,
      "v": 77
    },
    {
      "midi": 86,
      "hit": false,
      "t": 161552.37303124828,
      "d": 24.0383854166721,
      "v": 68
    },
    {
      "midi": 88,
      "hit": false,
      "t": 162004.29467708163,
      "d": 466.3446770833398,
      "v": 77
    },
    {
      "midi": 76,
      "hit": false,
      "t": 162009.10235416496,
      "d": 423.0755833333533,
      "v": 58
    },
    {
      "midi": 60,
      "hit": false,
      "t": 162009.10235416496,
      "d": 432.6909375000105,
      "v": 51
    },
    {
      "midi": 64,
      "hit": false,
      "t": 162009.10235416496,
      "d": 437.4986145833391,
      "v": 56
    },
    {
      "midi": 55,
      "hit": false,
      "t": 162009.10235416496,
      "d": 461.5370000000112,
      "v": 55
    },
    {
      "midi": 57,
      "hit": false,
      "t": 162009.10235416496,
      "d": 461.5370000000112,
      "v": 48
    },
    {
      "midi": 83,
      "hit": false,
      "t": 162009.10235416496,
      "d": 461.5370000000112,
      "v": 68
    },
    {
      "midi": 89,
      "hit": false,
      "t": 162908.13796874828,
      "d": 24.038385416642996,
      "v": 80
    },
    {
      "midi": 77,
      "hit": false,
      "t": 162908.13796874828,
      "d": 52.884447916643694,
      "v": 87
    },
    {
      "midi": 84,
      "hit": false,
      "t": 162912.9456458316,
      "d": 19.230708333314396,
      "v": 82
    },
    {
      "midi": 59,
      "hit": false,
      "t": 162912.9456458316,
      "d": 28.846062499971595,
      "v": 64
    },
    {
      "midi": 56,
      "hit": false,
      "t": 162912.9456458316,
      "d": 48.076770833315095,
      "v": 58
    },
    {
      "midi": 62,
      "hit": false,
      "t": 162917.75332291494,
      "d": 24.038385416642996,
      "v": 71
    },
    {
      "midi": 53,
      "hit": false,
      "t": 162936.98403124826,
      "d": 24.0383854166721,
      "v": 26
    },
    {
      "midi": 79,
      "hit": false,
      "t": 163225.44465624826,
      "d": 163.4610208333179,
      "v": 82
    },
    {
      "midi": 71,
      "hit": false,
      "t": 163230.2523333316,
      "d": 168.2686979166465,
      "v": 82
    },
    {
      "midi": 68,
      "hit": false,
      "t": 163235.06001041492,
      "d": 144.2303125000035,
      "v": 83
    },
    {
      "midi": 67,
      "hit": false,
      "t": 163235.06001041492,
      "d": 158.6533437499893,
      "v": 84
    },
    {
      "midi": 74,
      "hit": false,
      "t": 163239.86768749825,
      "d": 173.0763749999751,
      "v": 69
    },
    {
      "midi": 79,
      "hit": false,
      "t": 163436.9824479149,
      "d": 216.34546874996158,
      "v": 67
    },
    {
      "midi": 67,
      "hit": false,
      "t": 163441.79012499822,
      "d": 288.4606249999197,
      "v": 64
    },
    {
      "midi": 68,
      "hit": false,
      "t": 163451.40547916488,
      "d": 201.92243749997579,
      "v": 56
    },
    {
      "midi": 71,
      "hit": false,
      "t": 163456.2131562482,
      "d": 206.73011458330438,
      "v": 71
    },
    {
      "midi": 74,
      "hit": false,
      "t": 163465.82851041487,
      "d": 206.73011458330438,
      "v": 53
    },
    {
      "midi": 68,
      "hit": false,
      "t": 163706.2123645815,
      "d": 129.8072812499595,
      "v": 56
    },
    {
      "midi": 65,
      "hit": false,
      "t": 163711.02004166483,
      "d": 177.8840520833037,
      "v": 76
    },
    {
      "midi": 71,
      "hit": false,
      "t": 163715.82771874816,
      "d": 144.2303124999744,
      "v": 68
    },
    {
      "midi": 77,
      "hit": false,
      "t": 163720.6353958315,
      "d": 100.96121874998789,
      "v": 65
    },
    {
      "midi": 74,
      "hit": false,
      "t": 163720.6353958315,
      "d": 139.4226354166458,
      "v": 54
    },
    {
      "midi": 64,
      "hit": false,
      "t": 163888.90409374813,
      "d": 322.1143645833072,
      "v": 51
    },
    {
      "midi": 68,
      "hit": false,
      "t": 163912.9424791648,
      "d": 168.2686979166756,
      "v": 29
    },
    {
      "midi": 76,
      "hit": false,
      "t": 163912.9424791648,
      "d": 177.8840520833328,
      "v": 54
    },
    {
      "midi": 65,
      "hit": false,
      "t": 164158.1340104148,
      "d": 24.038385416642996,
      "v": 61
    },
    {
      "midi": 68,
      "hit": false,
      "t": 164167.74936458145,
      "d": 96.15354166663019,
      "v": 71
    },
    {
      "midi": 77,
      "hit": false,
      "t": 164167.74936458145,
      "d": 124.99960416663089,
      "v": 74
    },
    {
      "midi": 71,
      "hit": false,
      "t": 164177.3647187481,
      "d": 57.6921250000014,
      "v": 40
    },
    {
      "midi": 76,
      "hit": false,
      "t": 164211.01845833144,
      "d": 38.4614166666579,
      "v": 18
    },
    {
      "midi": 74,
      "hit": false,
      "t": 164336.01806249807,
      "d": 100.96121874998789,
      "v": 59
    },
    {
      "midi": 70,
      "hit": false,
      "t": 164340.8257395814,
      "d": 129.8072812499886,
      "v": 57
    },
    {
      "midi": 62,
      "hit": false,
      "t": 164345.63341666473,
      "d": 86.5381875000021,
      "v": 56
    },
    {
      "midi": 65,
      "hit": false,
      "t": 164350.44109374806,
      "d": 91.3458645833307,
      "v": 51
    },
    {
      "midi": 62,
      "hit": false,
      "t": 164778.3243541647,
      "d": 793.2667187499756,
      "v": 68
    },
    {
      "midi": 58,
      "hit": false,
      "t": 164778.3243541647,
      "d": 831.7281354166334,
      "v": 64
    },
    {
      "midi": 55,
      "hit": false,
      "t": 164783.13203124804,
      "d": 783.6513645833184,
      "v": 72
    },
    {
      "midi": 65,
      "hit": false,
      "t": 164783.13203124804,
      "d": 841.3434895832906,
      "v": 67
    },
    {
      "midi": 53,
      "hit": false,
      "t": 164787.93970833137,
      "d": 908.6509687499492,
      "v": 63
    },
    {
      "midi": 52,
      "hit": false,
      "t": 164797.55506249802,
      "d": 24.0383854166721,
      "v": 57
    },
    {
      "midi": 58,
      "hit": false,
      "t": 165677.359968748,
      "d": 129.8072812499595,
      "v": 42
    },
    {
      "midi": 55,
      "hit": false,
      "t": 165682.16764583133,
      "d": 81.73051041664439,
      "v": 54
    },
    {
      "midi": 50,
      "hit": false,
      "t": 165686.97532291466,
      "d": 67.3074791666586,
      "v": 44
    },
    {
      "midi": 62,
      "hit": false,
      "t": 165686.97532291466,
      "d": 105.76889583331649,
      "v": 57
    },
    {
      "midi": 68,
      "hit": false,
      "t": 166153.31999999797,
      "d": 552.8828645833419,
      "v": 56
    },
    {
      "midi": 72,
      "hit": false,
      "t": 166153.31999999797,
      "d": 615.3826666666719,
      "v": 60
    },
    {
      "midi": 58,
      "hit": false,
      "t": 166158.1276770813,
      "d": 524.0368020833412,
      "v": 42
    },
    {
      "midi": 64,
      "hit": false,
      "t": 166158.1276770813,
      "d": 548.0751875000133,
      "v": 61
    },
    {
      "midi": 52,
      "hit": false,
      "t": 166167.74303124796,
      "d": 451.921645833354,
      "v": 58
    },
    {
      "midi": 68,
      "hit": false,
      "t": 166898.50994791463,
      "d": 168.2686979166465,
      "v": 63
    },
    {
      "midi": 64,
      "hit": false,
      "t": 166903.31762499796,
      "d": 120.1919270833314,
      "v": 63
    },
    {
      "midi": 58,
      "hit": false,
      "t": 166903.31762499796,
      "d": 153.8456666666607,
      "v": 54
    },
    {
      "midi": 52,
      "hit": false,
      "t": 166922.5483333313,
      "d": 105.76889583331649,
      "v": 56
    },
    {
      "midi": 94,
      "hit": false,
      "t": 167360.0469479146,
      "d": 317.3066874999786,
      "v": 91
    },
    {
      "midi": 89,
      "hit": false,
      "t": 167364.85462499794,
      "d": 307.6913333333214,
      "v": 89
    },
    {
      "midi": 82,
      "hit": false,
      "t": 167364.85462499794,
      "d": 317.3066874999786,
      "v": 88
    },
    {
      "midi": 67,
      "hit": false,
      "t": 167369.66230208127,
      "d": 312.49901041665,
      "v": 92
    },
    {
      "midi": 56,
      "hit": false,
      "t": 167369.66230208127,
      "d": 322.1143645833072,
      "v": 78
    },
    {
      "midi": 62,
      "hit": false,
      "t": 167369.66230208127,
      "d": 322.1143645833072,
      "v": 83
    },
    {
      "midi": 56,
      "hit": false,
      "t": 167711.00737499792,
      "d": 201.92243749997579,
      "v": 33
    },
    {
      "midi": 67,
      "hit": false,
      "t": 167715.81505208125,
      "d": 144.2303124999744,
      "v": 66
    },
    {
      "midi": 88,
      "hit": false,
      "t": 167725.4304062479,
      "d": 115.3842500000028,
      "v": 58
    },
    {
      "midi": 93,
      "hit": false,
      "t": 167725.4304062479,
      "d": 115.3842500000028,
      "v": 74
    },
    {
      "midi": 62,
      "hit": false,
      "t": 167725.4304062479,
      "d": 124.99960416665999,
      "v": 59
    },
    {
      "midi": 81,
      "hit": false,
      "t": 167730.23808333123,
      "d": 153.8456666666607,
      "v": 57
    },
    {
      "midi": 89,
      "hit": false,
      "t": 167735.04576041456,
      "d": 24.0383854166721,
      "v": 45
    },
    {
      "midi": 90,
      "hit": false,
      "t": 167754.2764687479,
      "d": 110.57657291664509,
      "v": 26
    },
    {
      "midi": 91,
      "hit": false,
      "t": 167965.81426041457,
      "d": 437.4986145833391,
      "v": 51
    },
    {
      "midi": 79,
      "hit": false,
      "t": 167965.81426041457,
      "d": 499.9984166666691,
      "v": 53
    },
    {
      "midi": 64,
      "hit": false,
      "t": 167970.6219374979,
      "d": 495.1907395833405,
      "v": 62
    },
    {
      "midi": 55,
      "hit": false,
      "t": 167970.6219374979,
      "d": 572.1135729166854,
      "v": 64
    },
    {
      "midi": 60,
      "hit": false,
      "t": 167975.42961458123,
      "d": 581.7289270833426,
      "v": 60
    },
    {
      "midi": 86,
      "hit": false,
      "t": 167980.23729166455,
      "d": 456.7293229166826,
      "v": 61
    },
    {
      "midi": 60,
      "hit": false,
      "t": 168739.85027083123,
      "d": 62.499802083329996,
      "v": 61
    },
    {
      "midi": 88,
      "hit": false,
      "t": 168739.85027083123,
      "d": 67.3074791666586,
      "v": 57
    },
    {
      "midi": 76,
      "hit": false,
      "t": 168739.85027083123,
      "d": 76.9228333333158,
      "v": 54
    },
    {
      "midi": 55,
      "hit": false,
      "t": 168744.65794791456,
      "d": 57.6921250000014,
      "v": 64
    },
    {
      "midi": 83,
      "hit": false,
      "t": 168744.65794791456,
      "d": 62.499802083329996,
      "v": 56
    },
    {
      "midi": 64,
      "hit": false,
      "t": 168749.4656249979,
      "d": 33.6537395833293,
      "v": 57
    },
    {
      "midi": 84,
      "hit": false,
      "t": 169225.42565624788,
      "d": 278.8452708333207,
      "v": 79
    },
    {
      "midi": 79,
      "hit": false,
      "t": 169230.2333333312,
      "d": 322.1143645833363,
      "v": 70
    },
    {
      "midi": 72,
      "hit": false,
      "t": 169230.2333333312,
      "d": 331.7297187499935,
      "v": 68
    },
    {
      "midi": 60,
      "hit": false,
      "t": 169235.04101041454,
      "d": 418.2679062499956,
      "v": 65
    },
    {
      "midi": 64,
      "hit": false,
      "t": 169239.84868749787,
      "d": 389.4218437499949,
      "v": 68
    },
    {
      "midi": 55,
      "hit": false,
      "t": 169244.6563645812,
      "d": 374.9988125000091,
      "v": 69
    },
    {
      "midi": 60,
      "hit": false,
      "t": 169826.38529166454,
      "d": 153.8456666666316,
      "v": 57
    },
    {
      "midi": 70,
      "hit": false,
      "t": 169826.38529166454,
      "d": 153.8456666666316,
      "v": 63
    },
    {
      "midi": 82,
      "hit": false,
      "t": 169826.38529166454,
      "d": 153.8456666666316,
      "v": 65
    },
    {
      "midi": 75,
      "hit": false,
      "t": 169836.0006458312,
      "d": 134.6149583333172,
      "v": 48
    },
    {
      "midi": 54,
      "hit": false,
      "t": 169836.0006458312,
      "d": 149.037989583303,
      "v": 54
    },
    {
      "midi": 64,
      "hit": false,
      "t": 169840.80832291453,
      "d": 115.3842500000028,
      "v": 49
    },
    {
      "midi": 71,
      "hit": false,
      "t": 170283.11461458117,
      "d": 139.4226354166749,
      "v": 54
    },
    {
      "midi": 76,
      "hit": false,
      "t": 170283.11461458117,
      "d": 149.0379895833321,
      "v": 57
    },
    {
      "midi": 60,
      "hit": false,
      "t": 170283.11461458117,
      "d": 177.8840520833328,
      "v": 51
    },
    {
      "midi": 83,
      "hit": false,
      "t": 170283.11461458117,
      "d": 182.6917291666614,
      "v": 52
    },
    {
      "midi": 64,
      "hit": false,
      "t": 170287.9222916645,
      "d": 173.0763750000042,
      "v": 51
    },
    {
      "midi": 54,
      "hit": false,
      "t": 170287.9222916645,
      "d": 182.6917291666614,
      "v": 49
    },
    {
      "midi": 54,
      "hit": false,
      "t": 171057.15062499783,
      "d": 134.6149583333172,
      "v": 69
    },
    {
      "midi": 88,
      "hit": false,
      "t": 171061.95830208116,
      "d": 86.5381875000021,
      "v": 80
    },
    {
      "midi": 60,
      "hit": false,
      "t": 171061.95830208116,
      "d": 124.99960416665999,
      "v": 67
    },
    {
      "midi": 83,
      "hit": false,
      "t": 171066.76597916448,
      "d": 96.1535416666593,
      "v": 74
    },
    {
      "midi": 76,
      "hit": false,
      "t": 171066.76597916448,
      "d": 100.96121874998789,
      "v": 71
    },
    {
      "midi": 64,
      "hit": false,
      "t": 171071.5736562478,
      "d": 91.3458645833307,
      "v": 62
    },
    {
      "midi": 54,
      "hit": false,
      "t": 171220.61164583114,
      "d": 230.76849999994738,
      "v": 23
    },
    {
      "midi": 60,
      "hit": false,
      "t": 171235.03467708113,
      "d": 124.99960416663089,
      "v": 33
    },
    {
      "midi": 64,
      "hit": false,
      "t": 171239.84235416446,
      "d": 144.2303124999744,
      "v": 35
    },
    {
      "midi": 86,
      "hit": false,
      "t": 171244.6500312478,
      "d": 96.1535416666593,
      "v": 28
    },
    {
      "midi": 74,
      "hit": false,
      "t": 171249.45770833112,
      "d": 76.9228333333449,
      "v": 36
    },
    {
      "midi": 62,
      "hit": false,
      "t": 171509.0722708311,
      "d": 499.9984166666691,
      "v": 71
    },
    {
      "midi": 86,
      "hit": false,
      "t": 171513.87994791442,
      "d": 471.1523541666684,
      "v": 71
    },
    {
      "midi": 82,
      "hit": false,
      "t": 171513.87994791442,
      "d": 490.3830625000119,
      "v": 71
    },
    {
      "midi": 57,
      "hit": false,
      "t": 171513.87994791442,
      "d": 514.4214479166549,
      "v": 66
    },
    {
      "midi": 58,
      "hit": false,
      "t": 171513.87994791442,
      "d": 524.0368020833121,
      "v": 58
    },
    {
      "midi": 77,
      "hit": false,
      "t": 171518.68762499775,
      "d": 456.7293229166826,
      "v": 78
    },
    {
      "midi": 89,
      "hit": false,
      "t": 171518.68762499775,
      "d": 466.3446770833398,
      "v": 79
    },
    {
      "midi": 53,
      "hit": false,
      "t": 171523.49530208108,
      "d": 490.3830625000119,
      "v": 61
    },
    {
      "midi": 58,
      "hit": false,
      "t": 172110.03190624775,
      "d": 96.15354166660109,
      "v": 37
    },
    {
      "midi": 62,
      "hit": false,
      "t": 172114.83958333108,
      "d": 62.49980208330089,
      "v": 56
    },
    {
      "midi": 57,
      "hit": false,
      "t": 172129.26261458106,
      "d": 38.4614166666579,
      "v": 32
    },
    {
      "midi": 86,
      "hit": false,
      "t": 172129.26261458106,
      "d": 96.15354166663019,
      "v": 41
    },
    {
      "midi": 74,
      "hit": false,
      "t": 172134.0702916644,
      "d": 57.69212499997229,
      "v": 35
    },
    {
      "midi": 58,
      "hit": false,
      "t": 172590.79961458102,
      "d": 158.6533437499602,
      "v": 40
    },
    {
      "midi": 62,
      "hit": false,
      "t": 172590.79961458102,
      "d": 163.46102083328879,
      "v": 61
    },
    {
      "midi": 89,
      "hit": false,
      "t": 172590.79961458102,
      "d": 163.46102083328879,
      "v": 55
    },
    {
      "midi": 77,
      "hit": false,
      "t": 172595.60729166435,
      "d": 144.2303124999744,
      "v": 35
    },
    {
      "midi": 86,
      "hit": false,
      "t": 172595.60729166435,
      "d": 158.6533437499602,
      "v": 37
    },
    {
      "midi": 82,
      "hit": false,
      "t": 172600.41496874767,
      "d": 129.8072812499886,
      "v": 31
    },
    {
      "midi": 57,
      "hit": false,
      "t": 172600.41496874767,
      "d": 153.8456666666316,
      "v": 42
    },
    {
      "midi": 53,
      "hit": false,
      "t": 172610.03032291433,
      "d": 124.99960416665999,
      "v": 37
    },
    {
      "midi": 62,
      "hit": false,
      "t": 173412.91239583096,
      "d": 110.5765729166742,
      "v": 74
    },
    {
      "midi": 86,
      "hit": false,
      "t": 173412.91239583096,
      "d": 115.3842500000028,
      "v": 87
    },
    {
      "midi": 58,
      "hit": false,
      "t": 173412.91239583096,
      "d": 134.6149583333463,
      "v": 64
    },
    {
      "midi": 52,
      "hit": false,
      "t": 173417.7200729143,
      "d": 105.7688958333456,
      "v": 79
    },
    {
      "midi": 62,
      "hit": false,
      "t": 173624.45018749766,
      "d": 221.15314583329018,
      "v": 63
    },
    {
      "midi": 86,
      "hit": false,
      "t": 173629.25786458098,
      "d": 192.3070833333186,
      "v": 60
    },
    {
      "midi": 58,
      "hit": false,
      "t": 173629.25786458098,
      "d": 211.53779166663298,
      "v": 48
    },
    {
      "midi": 52,
      "hit": false,
      "t": 173634.0655416643,
      "d": 182.6917291666614,
      "v": 64
    },
    {
      "midi": 77,
      "hit": false,
      "t": 173634.0655416643,
      "d": 192.3070833333186,
      "v": 54
    },
    {
      "midi": 89,
      "hit": false,
      "t": 173634.0655416643,
      "d": 221.15314583329018,
      "v": 71
    },
    {
      "midi": 82,
      "hit": false,
      "t": 173638.87321874764,
      "d": 192.3070833333186,
      "v": 48
    },
    {
      "midi": 86,
      "hit": false,
      "t": 173989.83364583092,
      "d": 182.69172916663229,
      "v": 71
    },
    {
      "midi": 52,
      "hit": false,
      "t": 173994.64132291425,
      "d": 158.6533437499893,
      "v": 62
    },
    {
      "midi": 62,
      "hit": false,
      "t": 173994.64132291425,
      "d": 173.0763749999751,
      "v": 48
    },
    {
      "midi": 58,
      "hit": false,
      "t": 173999.44899999758,
      "d": 221.1531458333193,
      "v": 40
    },
    {
      "midi": 77,
      "hit": false,
      "t": 174004.2566770809,
      "d": 158.6533437499893,
      "v": 48
    },
    {
      "midi": 82,
      "hit": false,
      "t": 174013.87203124756,
      "d": 149.0379895833321,
      "v": 34
    },
    {
      "midi": 52,
      "hit": false,
      "t": 174297.52497916424,
      "d": 91.34586458330159,
      "v": 66
    },
    {
      "midi": 77,
      "hit": false,
      "t": 174302.33265624757,
      "d": 81.73051041664439,
      "v": 70
    },
    {
      "midi": 82,
      "hit": false,
      "t": 174302.33265624757,
      "d": 86.53818749997299,
      "v": 61
    },
    {
      "midi": 61,
      "hit": false,
      "t": 174302.33265624757,
      "d": 91.34586458330159,
      "v": 64
    },
    {
      "midi": 85,
      "hit": false,
      "t": 174302.33265624757,
      "d": 100.96121874995879,
      "v": 64
    },
    {
      "midi": 58,
      "hit": false,
      "t": 174302.33265624757,
      "d": 124.99960416663089,
      "v": 59
    },
    {
      "midi": 89,
      "hit": false,
      "t": 174311.94801041423,
      "d": 72.1151562499872,
      "v": 69
    },
    {
      "midi": 86,
      "hit": false,
      "t": 175196.56059374753,
      "d": 67.3074791666877,
      "v": 80
    },
    {
      "midi": 89,
      "hit": false,
      "t": 175379.25232291422,
      "d": 24.038385416642996,
      "v": 77
    },
    {
      "midi": 84,
      "hit": false,
      "t": 175384.05999999755,
      "d": 24.038385416642996,
      "v": 74
    },
    {
      "midi": 77,
      "hit": false,
      "t": 175388.86767708088,
      "d": 28.846062499971595,
      "v": 66
    },
    {
      "midi": 72,
      "hit": false,
      "t": 175677.32830208086,
      "d": 394.2295208333235,
      "v": 73
    },
    {
      "midi": 69,
      "hit": false,
      "t": 175677.32830208086,
      "d": 399.0371979166521,
      "v": 69
    },
    {
      "midi": 64,
      "hit": false,
      "t": 175677.32830208086,
      "d": 461.5369999999821,
      "v": 79
    },
    {
      "midi": 65,
      "hit": false,
      "t": 175682.1359791642,
      "d": 423.0755833333242,
      "v": 71
    },
    {
      "midi": 57,
      "hit": false,
      "t": 175686.94365624752,
      "d": 504.8060937499977,
      "v": 69
    },
    {
      "midi": 64,
      "hit": false,
      "t": 176292.7109687475,
      "d": 86.53818749997299,
      "v": 55
    },
    {
      "midi": 57,
      "hit": false,
      "t": 176302.32632291416,
      "d": 52.8844479166728,
      "v": 50
    },
    {
      "midi": 60,
      "hit": false,
      "t": 176302.32632291416,
      "d": 52.8844479166728,
      "v": 54
    },
    {
      "midi": 69,
      "hit": false,
      "t": 176302.32632291416,
      "d": 62.499802083329996,
      "v": 55
    },
    {
      "midi": 65,
      "hit": false,
      "t": 176307.1339999975,
      "d": 67.3074791666586,
      "v": 55
    },
    {
      "midi": 60,
      "hit": false,
      "t": 176739.82493749747,
      "d": 100.96121874998789,
      "v": 64
    },
    {
      "midi": 65,
      "hit": false,
      "t": 176744.6326145808,
      "d": 134.6149583333172,
      "v": 58
    },
    {
      "midi": 57,
      "hit": false,
      "t": 176749.44029166413,
      "d": 72.1151562499872,
      "v": 55
    },
    {
      "midi": 63,
      "hit": false,
      "t": 177191.7465833308,
      "d": 240.3838541666628,
      "v": 51
    },
    {
      "midi": 75,
      "hit": false,
      "t": 177191.7465833308,
      "d": 259.6145624999772,
      "v": 64
    },
    {
      "midi": 60,
      "hit": false,
      "t": 177191.7465833308,
      "d": 269.2299166666344,
      "v": 43
    },
    {
      "midi": 55,
      "hit": false,
      "t": 177196.55426041412,
      "d": 182.6917291666614,
      "v": 53
    },
    {
      "midi": 72,
      "hit": false,
      "t": 177196.55426041412,
      "d": 269.2299166666344,
      "v": 66
    },
    {
      "midi": 67,
      "hit": false,
      "t": 177201.36193749745,
      "d": 235.5761770833342,
      "v": 63
    },
    {
      "midi": 77,
      "hit": false,
      "t": 177509.05327083074,
      "d": 100.96121874998789,
      "v": 71
    },
    {
      "midi": 72,
      "hit": false,
      "t": 177513.86094791407,
      "d": 115.38424999997369,
      "v": 62
    },
    {
      "midi": 55,
      "hit": false,
      "t": 177513.86094791407,
      "d": 293.2683020832774,
      "v": 68
    },
    {
      "midi": 67,
      "hit": false,
      "t": 177518.6686249974,
      "d": 96.1535416666593,
      "v": 38
    },
    {
      "midi": 60,
      "hit": false,
      "t": 177518.6686249974,
      "d": 360.57578124993597,
      "v": 41
    },
    {
      "midi": 63,
      "hit": false,
      "t": 177528.28397916406,
      "d": 24.0383854166721,
      "v": 34
    },
    {
      "midi": 63,
      "hit": false,
      "t": 177648.47590624736,
      "d": 249.99920833331998,
      "v": 45
    },
    {
      "midi": 67,
      "hit": false,
      "t": 177672.51429166403,
      "d": 110.57657291664509,
      "v": 19
    },
    {
      "midi": 75,
      "hit": false,
      "t": 177686.93732291402,
      "d": 192.3070833333186,
      "v": 43
    },
    {
      "midi": 66,
      "hit": false,
      "t": 177960.974916664,
      "d": 177.8840520833037,
      "v": 53
    },
    {
      "midi": 70,
      "hit": false,
      "t": 177960.974916664,
      "d": 216.34546874996158,
      "v": 60
    },
    {
      "midi": 74,
      "hit": false,
      "t": 177960.974916664,
      "d": 216.34546874996158,
      "v": 68
    },
    {
      "midi": 60,
      "hit": false,
      "t": 177970.59027083067,
      "d": 225.96082291664788,
      "v": 63
    },
    {
      "midi": 64,
      "hit": false,
      "t": 177970.59027083067,
      "d": 230.76849999997648,
      "v": 68
    },
    {
      "midi": 54,
      "hit": false,
      "t": 177970.59027083067,
      "d": 259.6145624999772,
      "v": 57
    },
    {
      "midi": 60,
      "hit": false,
      "t": 178432.12727083065,
      "d": 28.8460625000007,
      "v": 54
    },
    {
      "midi": 96,
      "hit": false,
      "t": 178595.58829166397,
      "d": 81.73051041664439,
      "v": 91
    },
    {
      "midi": 89,
      "hit": false,
      "t": 178600.3959687473,
      "d": 24.038385416642996,
      "v": 83
    },
    {
      "midi": 84,
      "hit": false,
      "t": 178600.3959687473,
      "d": 43.269093749986496,
      "v": 95
    },
    {
      "midi": 93,
      "hit": false,
      "t": 178605.20364583062,
      "d": 72.1151562499872,
      "v": 80
    },
    {
      "midi": 58,
      "hit": false,
      "t": 178605.20364583062,
      "d": 86.53818749997299,
      "v": 67
    },
    {
      "midi": 60,
      "hit": false,
      "t": 178605.20364583062,
      "d": 91.34586458330159,
      "v": 79
    },
    {
      "midi": 54,
      "hit": false,
      "t": 178610.01132291395,
      "d": 67.3074791666586,
      "v": 74
    },
    {
      "midi": 64,
      "hit": false,
      "t": 178614.81899999728,
      "d": 33.6537395833293,
      "v": 75
    },
    {
      "midi": 54,
      "hit": false,
      "t": 178735.01092708058,
      "d": 225.96082291664788,
      "v": 57
    },
    {
      "midi": 96,
      "hit": false,
      "t": 178739.8186041639,
      "d": 120.19192708330229,
      "v": 77
    },
    {
      "midi": 60,
      "hit": false,
      "t": 178744.62628124724,
      "d": 100.96121874998789,
      "v": 38
    },
    {
      "midi": 64,
      "hit": false,
      "t": 178744.62628124724,
      "d": 158.6533437499893,
      "v": 65
    },
    {
      "midi": 58,
      "hit": false,
      "t": 178749.43395833057,
      "d": 216.3454687499907,
      "v": 57
    },
    {
      "midi": 93,
      "hit": false,
      "t": 178754.2416354139,
      "d": 91.3458645833307,
      "v": 60
    },
    {
      "midi": 89,
      "hit": false,
      "t": 178754.2416354139,
      "d": 100.96121874998789,
      "v": 77
    },
    {
      "midi": 84,
      "hit": false,
      "t": 178754.2416354139,
      "d": 129.8072812499886,
      "v": 79
    },
    {
      "midi": 58,
      "hit": false,
      "t": 179028.2792291639,
      "d": 759.6129791666172,
      "v": 49
    },
    {
      "midi": 93,
      "hit": false,
      "t": 179037.89458333055,
      "d": 572.1135729166563,
      "v": 84
    },
    {
      "midi": 62,
      "hit": false,
      "t": 179037.89458333055,
      "d": 716.3438854166598,
      "v": 69
    },
    {
      "midi": 57,
      "hit": false,
      "t": 179042.70226041388,
      "d": 740.3822708333028,
      "v": 62
    },
    {
      "midi": 81,
      "hit": false,
      "t": 179047.5099374972,
      "d": 620.1903437500005,
      "v": 70
    },
    {
      "midi": 53,
      "hit": false,
      "t": 179047.5099374972,
      "d": 721.1515624999884,
      "v": 60
    },
    {
      "midi": 89,
      "hit": false,
      "t": 179052.31761458053,
      "d": 562.4982187499991,
      "v": 71
    },
    {
      "midi": 86,
      "hit": false,
      "t": 179052.31761458053,
      "d": 567.3058958333277,
      "v": 68
    },
    {
      "midi": 89,
      "hit": false,
      "t": 179850.39201041384,
      "d": 28.846062499971595,
      "v": 55
    },
    {
      "midi": 84,
      "hit": false,
      "t": 179860.0073645805,
      "d": 28.846062499971595,
      "v": 55
    },
    {
      "midi": 77,
      "hit": false,
      "t": 179860.0073645805,
      "d": 43.26909374995739,
      "v": 38
    },
    {
      "midi": 62,
      "hit": false,
      "t": 179864.81504166382,
      "d": 57.69212499994319,
      "v": 60
    },
    {
      "midi": 58,
      "hit": false,
      "t": 179869.62271874715,
      "d": 67.30747916660039,
      "v": 39
    },
    {
      "midi": 57,
      "hit": false,
      "t": 179879.2380729138,
      "d": 33.653739583300194,
      "v": 34
    },
    {
      "midi": 58,
      "hit": false,
      "t": 180898.46561458043,
      "d": 182.69172916663229,
      "v": 37
    },
    {
      "midi": 62,
      "hit": false,
      "t": 180903.27329166376,
      "d": 163.4610208333179,
      "v": 54
    },
    {
      "midi": 96,
      "hit": false,
      "t": 180908.0809687471,
      "d": 173.0763749999751,
      "v": 66
    },
    {
      "midi": 84,
      "hit": false,
      "t": 180908.0809687471,
      "d": 177.8840520833037,
      "v": 54
    },
    {
      "midi": 93,
      "hit": false,
      "t": 180908.0809687471,
      "d": 187.49940624996088,
      "v": 57
    },
    {
      "midi": 52,
      "hit": false,
      "t": 180912.88864583042,
      "d": 144.2303125000035,
      "v": 49
    },
    {
      "midi": 89,
      "hit": false,
      "t": 180912.88864583042,
      "d": 163.4610208333179,
      "v": 48
    },
    {
      "midi": 62,
      "hit": false,
      "t": 181360.0026145804,
      "d": 216.34546874996158,
      "v": 64
    },
    {
      "midi": 58,
      "hit": false,
      "t": 181360.0026145804,
      "d": 221.15314583329018,
      "v": 42
    },
    {
      "midi": 96,
      "hit": false,
      "t": 181369.61796874704,
      "d": 134.6149583333172,
      "v": 65
    },
    {
      "midi": 52,
      "hit": false,
      "t": 181369.61796874704,
      "d": 158.6533437499893,
      "v": 59
    },
    {
      "midi": 93,
      "hit": false,
      "t": 181369.61796874704,
      "d": 158.6533437499893,
      "v": 57
    },
    {
      "midi": 84,
      "hit": false,
      "t": 181369.61796874704,
      "d": 177.8840520833037,
      "v": 62
    },
    {
      "midi": 89,
      "hit": false,
      "t": 181379.2333229137,
      "d": 158.6533437499893,
      "v": 49
    },
    {
      "midi": 93,
      "hit": false,
      "t": 181816.731937497,
      "d": 96.15354166663019,
      "v": 54
    },
    {
      "midi": 62,
      "hit": false,
      "t": 181816.731937497,
      "d": 149.03798958327388,
      "v": 53
    },
    {
      "midi": 58,
      "hit": false,
      "t": 181816.731937497,
      "d": 168.26869791661738,
      "v": 37
    },
    {
      "midi": 88,
      "hit": false,
      "t": 181826.34729166367,
      "d": 72.1151562499872,
      "v": 49
    },
    {
      "midi": 52,
      "hit": false,
      "t": 181831.154968747,
      "d": 115.38424999997369,
      "v": 45
    },
    {
      "midi": 81,
      "hit": false,
      "t": 181835.96264583032,
      "d": 124.99960416663089,
      "v": 27
    },
    {
      "midi": 77,
      "hit": false,
      "t": 182148.46165624697,
      "d": 346.1527499999793,
      "v": 53
    },
    {
      "midi": 89,
      "hit": false,
      "t": 182148.46165624697,
      "d": 384.6141666666372,
      "v": 55
    },
    {
      "midi": 84,
      "hit": false,
      "t": 182153.2693333303,
      "d": 365.3834583333228,
      "v": 57
    },
    {
      "midi": 58,
      "hit": false,
      "t": 182153.2693333303,
      "d": 495.19073958328227,
      "v": 47
    },
    {
      "midi": 62,
      "hit": false,
      "t": 182158.07701041363,
      "d": 451.92164583329577,
      "v": 52
    },
    {
      "midi": 52,
      "hit": false,
      "t": 182162.88468749696,
      "d": 384.6141666666372,
      "v": 51
    },
    {
      "midi": 96,
      "hit": false,
      "t": 182744.61361458024,
      "d": 456.7293229166535,
      "v": 91
    },
    {
      "midi": 58,
      "hit": false,
      "t": 182744.61361458024,
      "d": 629.8056979166577,
      "v": 60
    },
    {
      "midi": 89,
      "hit": false,
      "t": 182749.42129166357,
      "d": 475.960031249997,
      "v": 80
    },
    {
      "midi": 84,
      "hit": false,
      "t": 182749.42129166357,
      "d": 490.38306249998277,
      "v": 88
    },
    {
      "midi": 57,
      "hit": false,
      "t": 182749.42129166357,
      "d": 572.1135729166563,
      "v": 68
    },
    {
      "midi": 62,
      "hit": false,
      "t": 182749.42129166357,
      "d": 596.1519583333284,
      "v": 75
    },
    {
      "midi": 93,
      "hit": false,
      "t": 182759.03664583023,
      "d": 461.5370000000112,
      "v": 75
    },
    {
      "midi": 53,
      "hit": false,
      "t": 182759.03664583023,
      "d": 620.1903437500005,
      "v": 69
    },
    {
      "midi": 93,
      "hit": false,
      "t": 183509.03427083022,
      "d": 28.846062499971595,
      "v": 57
    },
    {
      "midi": 81,
      "hit": false,
      "t": 183513.84194791355,
      "d": 57.69212499997229,
      "v": 56
    },
    {
      "midi": 58,
      "hit": false,
      "t": 183513.84194791355,
      "d": 62.49980208330089,
      "v": 58
    },
    {
      "midi": 86,
      "hit": false,
      "t": 183518.64962499688,
      "d": 28.846062499971595,
      "v": 48
    },
    {
      "midi": 62,
      "hit": false,
      "t": 183518.64962499688,
      "d": 33.653739583300194,
      "v": 66
    },
    {
      "midi": 57,
      "hit": false,
      "t": 183523.4573020802,
      "d": 24.038385416642996,
      "v": 49
    },
    {
      "midi": 89,
      "hit": false,
      "t": 183523.4573020802,
      "d": 28.846062499971595,
      "v": 32
    },
    {
      "midi": 51,
      "hit": false,
      "t": 184465.7620104135,
      "d": 86.53818749997299,
      "v": 34
    },
    {
      "midi": 52,
      "hit": false,
      "t": 184537.8771666635,
      "d": 67.30747916662949,
      "v": 57
    },
    {
      "midi": 65,
      "hit": false,
      "t": 184576.33858333016,
      "d": 442.3062916666386,
      "v": 51
    },
    {
      "midi": 58,
      "hit": false,
      "t": 184576.33858333016,
      "d": 903.8432916665624,
      "v": 35
    },
    {
      "midi": 55,
      "hit": false,
      "t": 184581.1462604135,
      "d": 355.7681041666365,
      "v": 40
    },
    {
      "midi": 62,
      "hit": false,
      "t": 184585.95393749682,
      "d": 384.6141666666372,
      "v": 55
    },
    {
      "midi": 53,
      "hit": false,
      "t": 184595.56929166347,
      "d": 471.15235416663927,
      "v": 46
    },
    {
      "midi": 55,
      "hit": false,
      "t": 185047.4909374968,
      "d": 201.92243749997579,
      "v": 35
    },
    {
      "midi": 62,
      "hit": false,
      "t": 185047.4909374968,
      "d": 264.4222395833058,
      "v": 42
    },
    {
      "midi": 50,
      "hit": false,
      "t": 185061.91396874678,
      "d": 403.84487499995157,
      "v": 31
    },
    {
      "midi": 55,
      "hit": false,
      "t": 185350.37459374676,
      "d": 110.57657291664509,
      "v": 73
    },
    {
      "midi": 64,
      "hit": false,
      "t": 185355.1822708301,
      "d": 129.8072812499595,
      "v": 62
    },
    {
      "midi": 52,
      "hit": false,
      "t": 185355.1822708301,
      "d": 149.037989583303,
      "v": 66
    },
    {
      "midi": 53,
      "hit": false,
      "t": 185513.83561458005,
      "d": 302.8836562499637,
      "v": 50
    },
    {
      "midi": 58,
      "hit": false,
      "t": 185518.64329166338,
      "d": 259.6145624999772,
      "v": 26
    },
    {
      "midi": 55,
      "hit": false,
      "t": 185523.4509687467,
      "d": 221.1531458333193,
      "v": 49
    },
    {
      "midi": 65,
      "hit": false,
      "t": 185528.25864583004,
      "d": 235.5761770833342,
      "v": 49
    },
    {
      "midi": 62,
      "hit": false,
      "t": 185542.68167708002,
      "d": 173.0763750000042,
      "v": 55
    },
    {
      "midi": 50,
      "hit": false,
      "t": 185821.52694791334,
      "d": 413.4602291666379,
      "v": 38
    },
    {
      "midi": 62,
      "hit": false,
      "t": 185845.56533333,
      "d": 43.269093749986496,
      "v": 25
    },
    {
      "midi": 52,
      "hit": false,
      "t": 185984.98796874666,
      "d": 298.0759791666351,
      "v": 50
    },
    {
      "midi": 55,
      "hit": false,
      "t": 185989.79564583,
      "d": 105.76889583331649,
      "v": 31
    },
    {
      "midi": 64,
      "hit": false,
      "t": 185999.41099999665,
      "d": 129.8072812499886,
      "v": 54
    },
    {
      "midi": 58,
      "hit": false,
      "t": 186004.21867707997,
      "d": 91.3458645833307,
      "v": 13
    },
    {
      "midi": 65,
      "hit": false,
      "t": 186268.6409166633,
      "d": 96.15354166663019,
      "v": 72
    },
    {
      "midi": 53,
      "hit": false,
      "t": 186268.6409166633,
      "d": 120.19192708327319,
      "v": 70
    },
    {
      "midi": 58,
      "hit": false,
      "t": 186268.6409166633,
      "d": 124.99960416660178,
      "v": 68
    },
    {
      "midi": 55,
      "hit": false,
      "t": 186278.25627082997,
      "d": 105.76889583328739,
      "v": 74
    },
    {
      "midi": 62,
      "hit": false,
      "t": 186287.87162499662,
      "d": 33.6537395833293,
      "v": 50
    },
    {
      "midi": 64,
      "hit": false,
      "t": 186297.48697916328,
      "d": 38.4614166666579,
      "v": 37
    },
    {
      "midi": 52,
      "hit": false,
      "t": 186436.9096145799,
      "d": 278.8452708333207,
      "v": 54
    },
    {
      "midi": 57,
      "hit": false,
      "t": 186451.33264582988,
      "d": 221.1531458333484,
      "v": 54
    },
    {
      "midi": 64,
      "hit": false,
      "t": 186451.33264582988,
      "d": 254.8068854166777,
      "v": 53
    },
    {
      "midi": 60,
      "hit": false,
      "t": 186470.56335416323,
      "d": 168.2686979166756,
      "v": 45
    },
    {
      "midi": 53,
      "hit": false,
      "t": 186494.6017395799,
      "d": 163.461020833347,
      "v": 17
    },
    {
      "midi": 53,
      "hit": false,
      "t": 186749.40862499655,
      "d": 24.0383854166721,
      "v": 26
    },
    {
      "midi": 57,
      "hit": false,
      "t": 186749.40862499655,
      "d": 28.8460625000007,
      "v": 38
    },
    {
      "midi": 60,
      "hit": false,
      "t": 186749.40862499655,
      "d": 28.8460625000007,
      "v": 40
    },
    {
      "midi": 48,
      "hit": false,
      "t": 186754.21630207988,
      "d": 33.6537395833293,
      "v": 51
    },
    {
      "midi": 62,
      "hit": false,
      "t": 187340.75290624655,
      "d": 124.99960416665999,
      "v": 56
    },
    {
      "midi": 72,
      "hit": false,
      "t": 187345.56058332988,
      "d": 129.8072812499886,
      "v": 48
    },
    {
      "midi": 57,
      "hit": false,
      "t": 187350.3682604132,
      "d": 105.7688958333456,
      "v": 54
    },
    {
      "midi": 67,
      "hit": false,
      "t": 187350.3682604132,
      "d": 124.99960416665999,
      "v": 53
    },
    {
      "midi": 62,
      "hit": false,
      "t": 187768.6361666632,
      "d": 192.3070833333186,
      "v": 42
    },
    {
      "midi": 53,
      "hit": false,
      "t": 187778.25152082986,
      "d": 96.1535416666593,
      "v": 53
    },
    {
      "midi": 69,
      "hit": false,
      "t": 187778.25152082986,
      "d": 221.1531458333193,
      "v": 41
    },
    {
      "midi": 67,
      "hit": false,
      "t": 187783.0591979132,
      "d": 216.3454687499907,
      "v": 40
    },
    {
      "midi": 79,
      "hit": false,
      "t": 188629.21036457983,
      "d": 538.459833333327,
      "v": 76
    },
    {
      "midi": 72,
      "hit": false,
      "t": 188634.01804166316,
      "d": 485.57538541665417,
      "v": 78
    },
    {
      "midi": 76,
      "hit": false,
      "t": 188634.01804166316,
      "d": 485.57538541665417,
      "v": 74
    },
    {
      "midi": 67,
      "hit": false,
      "t": 188638.8257187465,
      "d": 471.1523541666684,
      "v": 76
    },
    {
      "midi": 56,
      "hit": false,
      "t": 188638.8257187465,
      "d": 509.61377083332627,
      "v": 64
    },
    {
      "midi": 62,
      "hit": false,
      "t": 188643.63339582982,
      "d": 480.7677083333256,
      "v": 64
    },
    {
      "midi": 56,
      "hit": false,
      "t": 189249.40070832983,
      "d": 115.3842500000028,
      "v": 46
    },
    {
      "midi": 62,
      "hit": false,
      "t": 189254.20838541316,
      "d": 81.7305104166735,
      "v": 41
    },
    {
      "midi": 67,
      "hit": false,
      "t": 189254.20838541316,
      "d": 105.7688958333456,
      "v": 37
    },
    {
      "midi": 76,
      "hit": false,
      "t": 189259.0160624965,
      "d": 153.8456666666898,
      "v": 43
    },
    {
      "midi": 72,
      "hit": false,
      "t": 189278.24677082984,
      "d": 81.7305104166735,
      "v": 38
    },
    {
      "midi": 56,
      "hit": false,
      "t": 189696.51467707986,
      "d": 423.07558333329507,
      "v": 46
    },
    {
      "midi": 67,
      "hit": false,
      "t": 189701.3223541632,
      "d": 168.2686979166465,
      "v": 41
    },
    {
      "midi": 72,
      "hit": false,
      "t": 189706.13003124652,
      "d": 129.8072812499886,
      "v": 43
    },
    {
      "midi": 62,
      "hit": false,
      "t": 189710.93770832985,
      "d": 173.0763749999751,
      "v": 30
    },
    {
      "midi": 62,
      "hit": false,
      "t": 190138.82096874647,
      "d": 67.3074791666586,
      "v": 46
    },
    {
      "midi": 72,
      "hit": false,
      "t": 190138.82096874647,
      "d": 91.3458645833307,
      "v": 47
    },
    {
      "midi": 67,
      "hit": false,
      "t": 190143.6286458298,
      "d": 86.5381875000021,
      "v": 52
    },
    {
      "midi": 57,
      "hit": false,
      "t": 190148.43632291313,
      "d": 105.7688958333456,
      "v": 46
    },
    {
      "midi": 56,
      "hit": false,
      "t": 190297.47431249646,
      "d": 86.5381875000021,
      "v": 33
    },
    {
      "midi": 72,
      "hit": false,
      "t": 190408.05088541313,
      "d": 379.8064895833377,
      "v": 60
    },
    {
      "midi": 57,
      "hit": false,
      "t": 190408.05088541313,
      "d": 629.8056979166868,
      "v": 55
    },
    {
      "midi": 67,
      "hit": false,
      "t": 190412.85856249646,
      "d": 403.8448750000098,
      "v": 68
    },
    {
      "midi": 62,
      "hit": false,
      "t": 190412.85856249646,
      "d": 485.5753854166833,
      "v": 63
    },
    {
      "midi": 53,
      "hit": false,
      "t": 191066.70264582982,
      "d": 43.269093749986496,
      "v": 43
    },
    {
      "midi": 69,
      "hit": false,
      "t": 191071.51032291315,
      "d": 81.73051041664439,
      "v": 52
    },
    {
      "midi": 60,
      "hit": false,
      "t": 191076.31799999648,
      "d": 62.499802083329996,
      "v": 45
    },
    {
      "midi": 64,
      "hit": false,
      "t": 191076.31799999648,
      "d": 76.9228333333158,
      "v": 39
    },
    {
      "midi": 76,
      "hit": false,
      "t": 191975.3536145798,
      "d": 322.1143645833072,
      "v": 79
    },
    {
      "midi": 68,
      "hit": false,
      "t": 191980.16129166313,
      "d": 317.3066874999786,
      "v": 81
    },
    {
      "midi": 71,
      "hit": false,
      "t": 191984.96896874646,
      "d": 307.6913333333214,
      "v": 79
    },
    {
      "midi": 64,
      "hit": false,
      "t": 191989.77664582978,
      "d": 326.9220416666649,
      "v": 82
    },
    {
      "midi": 65,
      "hit": false,
      "t": 191994.5843229131,
      "d": 298.0759791666642,
      "v": 81
    },
    {
      "midi": 62,
      "hit": false,
      "t": 192345.54474999645,
      "d": 81.7305104166735,
      "v": 48
    },
    {
      "midi": 76,
      "hit": false,
      "t": 192441.6982916631,
      "d": 288.4606249999779,
      "v": 75
    },
    {
      "midi": 68,
      "hit": false,
      "t": 192446.50596874644,
      "d": 269.2299166666635,
      "v": 69
    },
    {
      "midi": 65,
      "hit": false,
      "t": 192451.31364582977,
      "d": 240.3838541666628,
      "v": 71
    },
    {
      "midi": 71,
      "hit": false,
      "t": 192451.31364582977,
      "d": 274.0375937499921,
      "v": 68
    },
    {
      "midi": 64,
      "hit": false,
      "t": 192451.31364582977,
      "d": 350.9604270832788,
      "v": 71
    },
    {
      "midi": 65,
      "hit": false,
      "t": 192773.42801041307,
      "d": 365.3834583332937,
      "v": 50
    },
    {
      "midi": 68,
      "hit": false,
      "t": 192773.42801041307,
      "d": 374.9988124999509,
      "v": 32
    },
    {
      "midi": 74,
      "hit": false,
      "t": 192778.2356874964,
      "d": 346.1527499999793,
      "v": 64
    },
    {
      "midi": 71,
      "hit": false,
      "t": 192778.2356874964,
      "d": 350.9604270833079,
      "v": 50
    },
    {
      "midi": 62,
      "hit": false,
      "t": 192787.85104166306,
      "d": 274.0375937499921,
      "v": 55
    },
    {
      "midi": 77,
      "hit": false,
      "t": 193364.77229166302,
      "d": 293.2683020833356,
      "v": 73
    },
    {
      "midi": 70,
      "hit": false,
      "t": 193364.77229166302,
      "d": 312.49901041665,
      "v": 67
    },
    {
      "midi": 65,
      "hit": false,
      "t": 193369.57996874634,
      "d": 288.460625000007,
      "v": 72
    },
    {
      "midi": 74,
      "hit": false,
      "t": 193369.57996874634,
      "d": 293.2683020833356,
      "v": 71
    },
    {
      "midi": 62,
      "hit": false,
      "t": 193374.38764582967,
      "d": 283.6529479166784,
      "v": 49
    },
    {
      "midi": 55,
      "hit": false,
      "t": 193398.42603124634,
      "d": 24.0383854166721,
      "v": 51
    },
    {
      "midi": 55,
      "hit": false,
      "t": 193701.30968749634,
      "d": 33.6537395833293,
      "v": 32
    },
    {
      "midi": 55,
      "hit": false,
      "t": 193816.69393749634,
      "d": 254.80688541664858,
      "v": 33
    },
    {
      "midi": 70,
      "hit": false,
      "t": 193826.309291663,
      "d": 216.3454687499907,
      "v": 54
    },
    {
      "midi": 77,
      "hit": false,
      "t": 193831.11696874633,
      "d": 259.6145625000063,
      "v": 63
    },
    {
      "midi": 62,
      "hit": false,
      "t": 193831.11696874633,
      "d": 278.8452708333498,
      "v": 47
    },
    {
      "midi": 65,
      "hit": false,
      "t": 193835.92464582965,
      "d": 206.7301145833335,
      "v": 53
    },
    {
      "midi": 74,
      "hit": false,
      "t": 193845.5399999963,
      "d": 144.2303125000035,
      "v": 45
    },
    {
      "midi": 74,
      "hit": false,
      "t": 194158.039010413,
      "d": 163.46102083328879,
      "v": 66
    },
    {
      "midi": 70,
      "hit": false,
      "t": 194158.039010413,
      "d": 168.26869791661738,
      "v": 57
    },
    {
      "midi": 58,
      "hit": false,
      "t": 194162.84668749632,
      "d": 149.037989583303,
      "v": 47
    },
    {
      "midi": 65,
      "hit": false,
      "t": 194167.65436457965,
      "d": 120.19192708330229,
      "v": 62
    },
    {
      "midi": 55,
      "hit": false,
      "t": 194182.07739582963,
      "d": 43.269093749986496,
      "v": 35
    },
    {
      "midi": 84,
      "hit": false,
      "t": 194749.38329166293,
      "d": 249.99920833331998,
      "v": 85
    },
    {
      "midi": 72,
      "hit": false,
      "t": 194754.19096874626,
      "d": 298.0759791666351,
      "v": 80
    },
    {
      "midi": 58,
      "hit": false,
      "t": 194758.9986458296,
      "d": 216.3454687499907,
      "v": 44
    },
    {
      "midi": 77,
      "hit": false,
      "t": 194763.80632291292,
      "d": 245.19153124999139,
      "v": 64
    },
    {
      "midi": 81,
      "hit": false,
      "t": 194763.80632291292,
      "d": 245.19153124999139,
      "v": 57
    },
    {
      "midi": 57,
      "hit": false,
      "t": 194768.61399999625,
      "d": 163.461020833347,
      "v": 45
    },
    {
      "midi": 62,
      "hit": false,
      "t": 194768.61399999625,
      "d": 240.3838541666628,
      "v": 57
    },
    {
      "midi": 57,
      "hit": false,
      "t": 195081.1130104129,
      "d": 38.4614166666579,
      "v": 37
    },
    {
      "midi": 77,
      "hit": false,
      "t": 195220.53564582954,
      "d": 259.6145624999772,
      "v": 55
    },
    {
      "midi": 69,
      "hit": false,
      "t": 195220.53564582954,
      "d": 264.4222395833058,
      "v": 59
    },
    {
      "midi": 81,
      "hit": false,
      "t": 195225.34332291287,
      "d": 230.7685000000056,
      "v": 52
    },
    {
      "midi": 62,
      "hit": false,
      "t": 195225.34332291287,
      "d": 245.19153124999139,
      "v": 59
    },
    {
      "midi": 57,
      "hit": false,
      "t": 195230.1509999962,
      "d": 235.5761770833342,
      "v": 37
    },
    {
      "midi": 74,
      "hit": false,
      "t": 195230.1509999962,
      "d": 245.19153124999139,
      "v": 57
    },
    {
      "midi": 58,
      "hit": false,
      "t": 195230.1509999962,
      "d": 254.80688541664858,
      "v": 38
    },
    {
      "midi": 53,
      "hit": false,
      "t": 195239.76635416286,
      "d": 240.3838541666628,
      "v": 37
    },
    {
      "midi": 79,
      "hit": false,
      "t": 195682.07264582952,
      "d": 134.6149583333172,
      "v": 55
    },
    {
      "midi": 58,
      "hit": false,
      "t": 195682.07264582952,
      "d": 139.4226354166458,
      "v": 38
    },
    {
      "midi": 62,
      "hit": false,
      "t": 195691.68799999618,
      "d": 124.99960416665999,
      "v": 46
    },
    {
      "midi": 67,
      "hit": false,
      "t": 195691.68799999618,
      "d": 134.6149583333172,
      "v": 41
    },
    {
      "midi": 52,
      "hit": false,
      "t": 195701.30335416284,
      "d": 86.5381875000021,
      "v": 43
    },
    {
      "midi": 74,
      "hit": false,
      "t": 195701.30335416284,
      "d": 124.99960416665999,
      "v": 50
    },
    {
      "midi": 58,
      "hit": false,
      "t": 196148.41732291284,
      "d": 153.8456666666316,
      "v": 38
    },
    {
      "midi": 76,
      "hit": false,
      "t": 196153.22499999616,
      "d": 134.6149583333172,
      "v": 49
    },
    {
      "midi": 64,
      "hit": false,
      "t": 196153.22499999616,
      "d": 177.8840520833037,
      "v": 46
    },
    {
      "midi": 71,
      "hit": false,
      "t": 196158.0326770795,
      "d": 134.6149583333172,
      "v": 49
    },
    {
      "midi": 52,
      "hit": false,
      "t": 196162.84035416282,
      "d": 120.1919270833314,
      "v": 42
    },
    {
      "midi": 60,
      "hit": false,
      "t": 196590.72361457947,
      "d": 28.846062499971595,
      "v": 54
    },
    {
      "midi": 72,
      "hit": false,
      "t": 196595.5312916628,
      "d": 91.34586458327249,
      "v": 40
    },
    {
      "midi": 67,
      "hit": false,
      "t": 196605.14664582946,
      "d": 38.46141666662879,
      "v": 43
    },
    {
      "midi": 58,
      "hit": false,
      "t": 196605.14664582946,
      "d": 67.30747916662949,
      "v": 47
    },
    {
      "midi": 52,
      "hit": false,
      "t": 196609.9543229128,
      "d": 24.038385416642996,
      "v": 51
    },
    {
      "midi": 62,
      "hit": false,
      "t": 197393.60568749608,
      "d": 124.99960416663089,
      "v": 74
    },
    {
      "midi": 80,
      "hit": false,
      "t": 197393.60568749608,
      "d": 153.8456666666316,
      "v": 83
    },
    {
      "midi": 56,
      "hit": false,
      "t": 197393.60568749608,
      "d": 187.49940624996088,
      "v": 74
    },
    {
      "midi": 68,
      "hit": false,
      "t": 197398.4133645794,
      "d": 163.46102083328879,
      "v": 91
    },
    {
      "midi": 67,
      "hit": false,
      "t": 197403.22104166273,
      "d": 115.38424999997369,
      "v": 78
    },
    {
      "midi": 64,
      "hit": false,
      "t": 197638.79721874604,
      "d": 81.73051041664439,
      "v": 49
    },
    {
      "midi": 55,
      "hit": false,
      "t": 197638.79721874604,
      "d": 115.38424999997369,
      "v": 57
    },
    {
      "midi": 67,
      "hit": false,
      "t": 197643.60489582937,
      "d": 96.1535416666593,
      "v": 53
    },
    {
      "midi": 60,
      "hit": false,
      "t": 197643.60489582937,
      "d": 105.76889583331649,
      "v": 46
    },
    {
      "midi": 78,
      "hit": false,
      "t": 197648.4125729127,
      "d": 33.6537395833293,
      "v": 29
    },
    {
      "midi": 79,
      "hit": false,
      "t": 197648.4125729127,
      "d": 67.3074791666586,
      "v": 48
    },
    {
      "midi": 76,
      "hit": false,
      "t": 197658.02792707935,
      "d": 33.6537395833293,
      "v": 46
    },
    {
      "midi": 76,
      "hit": false,
      "t": 197912.834812496,
      "d": 331.7297187499935,
      "v": 65
    },
    {
      "midi": 79,
      "hit": false,
      "t": 197917.64248957933,
      "d": 331.7297187499935,
      "v": 60
    },
    {
      "midi": 67,
      "hit": false,
      "t": 197917.64248957933,
      "d": 379.8064895833377,
      "v": 64
    },
    {
      "midi": 64,
      "hit": false,
      "t": 197917.64248957933,
      "d": 399.0371979166812,
      "v": 57
    },
    {
      "midi": 60,
      "hit": false,
      "t": 197922.45016666266,
      "d": 408.6525520833384,
      "v": 47
    },
    {
      "midi": 55,
      "hit": false,
      "t": 197922.45016666266,
      "d": 423.0755833333242,
      "v": 55
    },
    {
      "midi": 60,
      "hit": false,
      "t": 198465.71767707932,
      "d": 62.49980208330089,
      "v": 48
    },
    {
      "midi": 64,
      "hit": false,
      "t": 198475.33303124597,
      "d": 38.4614166666579,
      "v": 50
    },
    {
      "midi": 55,
      "hit": false,
      "t": 198480.1407083293,
      "d": 38.4614166666579,
      "v": 35
    },
    {
      "midi": 76,
      "hit": false,
      "t": 198484.94838541263,
      "d": 76.9228333333158,
      "v": 24
    },
    {
      "midi": 69,
      "hit": false,
      "t": 198494.5637395793,
      "d": 33.6537395833293,
      "v": 39
    },
    {
      "midi": 67,
      "hit": false,
      "t": 198778.21668749594,
      "d": 33.6537395833293,
      "v": 73
    },
    {
      "midi": 79,
      "hit": false,
      "t": 198778.21668749594,
      "d": 62.49980208330089,
      "v": 76
    },
    {
      "midi": 55,
      "hit": false,
      "t": 198787.8320416626,
      "d": 28.8460625000007,
      "v": 63
    },
    {
      "midi": 64,
      "hit": false,
      "t": 198787.8320416626,
      "d": 33.6537395833293,
      "v": 54
    },
    {
      "midi": 60,
      "hit": false,
      "t": 198787.8320416626,
      "d": 38.4614166666579,
      "v": 60
    },
    {
      "midi": 64,
      "hit": false,
      "t": 198927.25467707924,
      "d": 91.34586458330159,
      "v": 57
    },
    {
      "midi": 55,
      "hit": false,
      "t": 198932.06235416257,
      "d": 115.38424999997369,
      "v": 71
    },
    {
      "midi": 60,
      "hit": false,
      "t": 198932.06235416257,
      "d": 115.38424999997369,
      "v": 58
    },
    {
      "midi": 84,
      "hit": false,
      "t": 198936.8700312459,
      "d": 24.038385416642996,
      "v": 77
    },
    {
      "midi": 71,
      "hit": false,
      "t": 198941.67770832923,
      "d": 43.269093749986496,
      "v": 46
    },
    {
      "midi": 72,
      "hit": false,
      "t": 198946.48538541255,
      "d": 52.884447916643694,
      "v": 57
    },
    {
      "midi": 86,
      "hit": false,
      "t": 199220.52297916255,
      "d": 91.3458645833307,
      "v": 88
    },
    {
      "midi": 55,
      "hit": false,
      "t": 199225.33065624587,
      "d": 57.6921250000014,
      "v": 75
    },
    {
      "midi": 74,
      "hit": false,
      "t": 199225.33065624587,
      "d": 67.3074791666586,
      "v": 80
    },
    {
      "midi": 64,
      "hit": false,
      "t": 199230.1383333292,
      "d": 57.6921250000014,
      "v": 74
    },
    {
      "midi": 76,
      "hit": false,
      "t": 199234.94601041253,
      "d": 24.0383854166721,
      "v": 64
    },
    {
      "midi": 60,
      "hit": false,
      "t": 199234.94601041253,
      "d": 110.5765729166742,
      "v": 67
    },
    {
      "midi": 76,
      "hit": false,
      "t": 199403.21470832918,
      "d": 163.4610208333179,
      "v": 62
    },
    {
      "midi": 64,
      "hit": false,
      "t": 199403.21470832918,
      "d": 168.2686979166465,
      "v": 50
    },
    {
      "midi": 88,
      "hit": false,
      "t": 199403.21470832918,
      "d": 168.2686979166465,
      "v": 66
    },
    {
      "midi": 54,
      "hit": false,
      "t": 199408.0223854125,
      "d": 173.0763749999751,
      "v": 58
    },
    {
      "midi": 60,
      "hit": false,
      "t": 199408.0223854125,
      "d": 177.8840520833037,
      "v": 55
    },
    {
      "midi": 83,
      "hit": false,
      "t": 199412.83006249584,
      "d": 153.8456666666607,
      "v": 47
    },
    {
      "midi": 80,
      "hit": false,
      "t": 199417.63773957916,
      "d": 139.4226354166749,
      "v": 31
    },
    {
      "midi": 88,
      "hit": false,
      "t": 199682.05997916247,
      "d": 105.76889583328739,
      "v": 60
    },
    {
      "midi": 76,
      "hit": false,
      "t": 199686.8676562458,
      "d": 91.34586458330159,
      "v": 57
    },
    {
      "midi": 83,
      "hit": false,
      "t": 199691.67533332913,
      "d": 86.53818749997299,
      "v": 46
    },
    {
      "midi": 80,
      "hit": false,
      "t": 199696.48301041246,
      "d": 72.1151562499872,
      "v": 36
    },
    {
      "midi": 54,
      "hit": false,
      "t": 199696.48301041246,
      "d": 76.9228333333158,
      "v": 50
    },
    {
      "midi": 64,
      "hit": false,
      "t": 199701.29068749578,
      "d": 62.499802083329996,
      "v": 46
    },
    {
      "midi": 60,
      "hit": false,
      "t": 199701.29068749578,
      "d": 72.1151562499872,
      "v": 47
    },
    {
      "midi": 80,
      "hit": false,
      "t": 200633.98004166243,
      "d": 43.269093749986496,
      "v": 52
    },
    {
      "midi": 88,
      "hit": false,
      "t": 200633.98004166243,
      "d": 62.49980208330089,
      "v": 71
    },
    {
      "midi": 76,
      "hit": false,
      "t": 200638.78771874576,
      "d": 33.6537395833293,
      "v": 71
    },
    {
      "midi": 64,
      "hit": false,
      "t": 200638.78771874576,
      "d": 52.884447916643694,
      "v": 71
    },
    {
      "midi": 83,
      "hit": false,
      "t": 200643.5953958291,
      "d": 33.6537395833293,
      "v": 58
    },
    {
      "midi": 60,
      "hit": false,
      "t": 200643.5953958291,
      "d": 57.69212499997229,
      "v": 68
    },
    {
      "midi": 54,
      "hit": false,
      "t": 200643.5953958291,
      "d": 62.49980208330089,
      "v": 60
    },
    {
      "midi": 60,
      "hit": false,
      "t": 201061.86330207906,
      "d": 28.846062499971595,
      "v": 65
    },
    {
      "midi": 54,
      "hit": false,
      "t": 201061.86330207906,
      "d": 52.88444791661459,
      "v": 64
    },
    {
      "midi": 64,
      "hit": false,
      "t": 201066.6709791624,
      "d": 38.46141666662879,
      "v": 72
    },
    {
      "midi": 80,
      "hit": false,
      "t": 201066.6709791624,
      "d": 86.53818749994389,
      "v": 71
    },
    {
      "midi": 83,
      "hit": false,
      "t": 201071.47865624572,
      "d": 57.69212499994319,
      "v": 74
    },
    {
      "midi": 88,
      "hit": false,
      "t": 201071.47865624572,
      "d": 57.69212499994319,
      "v": 73
    },
    {
      "midi": 76,
      "hit": false,
      "t": 201071.47865624572,
      "d": 62.49980208327179,
      "v": 85
    },
    {
      "midi": 86,
      "hit": false,
      "t": 201081.09401041237,
      "d": 28.846062499971595,
      "v": 54
    },
    {
      "midi": 62,
      "hit": false,
      "t": 201239.74735416233,
      "d": 105.76889583328739,
      "v": 44
    },
    {
      "midi": 74,
      "hit": false,
      "t": 201244.55503124566,
      "d": 62.499802083329996,
      "v": 69
    },
    {
      "midi": 66,
      "hit": false,
      "t": 201244.55503124566,
      "d": 72.1151562499872,
      "v": 57
    },
    {
      "midi": 86,
      "hit": false,
      "t": 201249.362708329,
      "d": 57.6921250000014,
      "v": 41
    },
    {
      "midi": 57,
      "hit": false,
      "t": 201249.362708329,
      "d": 81.73051041664439,
      "v": 56
    },
    {
      "midi": 78,
      "hit": false,
      "t": 201268.59341666233,
      "d": 24.0383854166721,
      "v": 27
    },
    {
      "midi": 61,
      "hit": false,
      "t": 201268.59341666233,
      "d": 100.96121874995879,
      "v": 29
    },
    {
      "midi": 86,
      "hit": false,
      "t": 201682.05364582897,
      "d": 168.2686979166465,
      "v": 72
    },
    {
      "midi": 74,
      "hit": false,
      "t": 201686.8613229123,
      "d": 100.96121874998789,
      "v": 72
    },
    {
      "midi": 66,
      "hit": false,
      "t": 201686.8613229123,
      "d": 110.57657291664509,
      "v": 55
    },
    {
      "midi": 78,
      "hit": false,
      "t": 201686.8613229123,
      "d": 134.6149583333172,
      "v": 62
    },
    {
      "midi": 57,
      "hit": false,
      "t": 201691.66899999563,
      "d": 110.57657291664509,
      "v": 50
    },
    {
      "midi": 62,
      "hit": false,
      "t": 201696.47667707896,
      "d": 28.8460625000007,
      "v": 54
    },
    {
      "midi": 61,
      "hit": false,
      "t": 201696.47667707896,
      "d": 182.6917291666614,
      "v": 44
    },
    {
      "midi": 95,
      "hit": false,
      "t": 202143.59064582895,
      "d": 177.8840520833328,
      "v": 92
    },
    {
      "midi": 83,
      "hit": false,
      "t": 202148.39832291228,
      "d": 187.49940624999,
      "v": 89
    },
    {
      "midi": 66,
      "hit": false,
      "t": 202148.39832291228,
      "d": 197.1147604166472,
      "v": 77
    },
    {
      "midi": 57,
      "hit": false,
      "t": 202153.2059999956,
      "d": 163.461020833347,
      "v": 68
    },
    {
      "midi": 62,
      "hit": false,
      "t": 202158.01367707894,
      "d": 173.0763750000042,
      "v": 68
    },
    {
      "midi": 61,
      "hit": false,
      "t": 202158.01367707894,
      "d": 182.6917291666614,
      "v": 59
    },
    {
      "midi": 95,
      "hit": false,
      "t": 202441.6666249956,
      "d": 43.269093749986496,
      "v": 75
    },
    {
      "midi": 83,
      "hit": false,
      "t": 202446.47430207892,
      "d": 52.884447916643694,
      "v": 68
    },
    {
      "midi": 66,
      "hit": false,
      "t": 202456.08965624557,
      "d": 28.8460625000007,
      "v": 42
    },
    {
      "midi": 66,
      "hit": false,
      "t": 202605.12764582888,
      "d": 38.46141666662879,
      "v": 46
    },
    {
      "midi": 89,
      "hit": false,
      "t": 202609.9353229122,
      "d": 28.846062499971595,
      "v": 49
    },
    {
      "midi": 77,
      "hit": false,
      "t": 202624.3583541622,
      "d": 24.038385416642996,
      "v": 25
    },
    {
      "midi": 66,
      "hit": false,
      "t": 202879.16523957884,
      "d": 100.961218750017,
      "v": 57
    },
    {
      "midi": 57,
      "hit": false,
      "t": 202898.39594791218,
      "d": 28.8460625000007,
      "v": 24
    },
    {
      "midi": 89,
      "hit": false,
      "t": 202903.2036249955,
      "d": 57.6921250000014,
      "v": 76
    },
    {
      "midi": 77,
      "hit": false,
      "t": 202908.01130207884,
      "d": 52.8844479166728,
      "v": 66
    },
    {
      "midi": 67,
      "hit": false,
      "t": 203066.66464582886,
      "d": 182.6917291666614,
      "v": 63
    },
    {
      "midi": 76,
      "hit": false,
      "t": 203066.66464582886,
      "d": 197.1147604166472,
      "v": 53
    },
    {
      "midi": 88,
      "hit": false,
      "t": 203066.66464582886,
      "d": 197.1147604166472,
      "v": 62
    },
    {
      "midi": 56,
      "hit": false,
      "t": 203071.4723229122,
      "d": 192.3070833333186,
      "v": 49
    },
    {
      "midi": 62,
      "hit": false,
      "t": 203071.4723229122,
      "d": 211.5377916666621,
      "v": 54
    },
    {
      "midi": 84,
      "hit": false,
      "t": 203076.27999999552,
      "d": 182.6917291666614,
      "v": 53
    },
    {
      "midi": 84,
      "hit": false,
      "t": 203364.74062499552,
      "d": 317.3066874999786,
      "v": 68
    },
    {
      "midi": 62,
      "hit": false,
      "t": 203364.74062499552,
      "d": 370.1911354166223,
      "v": 55
    },
    {
      "midi": 88,
      "hit": false,
      "t": 203369.54830207885,
      "d": 302.8836562499928,
      "v": 57
    },
    {
      "midi": 76,
      "hit": false,
      "t": 203369.54830207885,
      "d": 355.7681041666365,
      "v": 63
    },
    {
      "midi": 67,
      "hit": false,
      "t": 203369.54830207885,
      "d": 374.9988124999509,
      "v": 64
    },
    {
      "midi": 56,
      "hit": false,
      "t": 203369.54830207885,
      "d": 413.46022916660877,
      "v": 58
    },
    {
      "midi": 67,
      "hit": false,
      "t": 203980.12329166214,
      "d": 173.0763749999751,
      "v": 60
    },
    {
      "midi": 56,
      "hit": false,
      "t": 203980.12329166214,
      "d": 187.49940624996088,
      "v": 53
    },
    {
      "midi": 72,
      "hit": false,
      "t": 203984.93096874547,
      "d": 182.69172916663229,
      "v": 51
    },
    {
      "midi": 62,
      "hit": false,
      "t": 203989.7386458288,
      "d": 173.0763749999751,
      "v": 49
    },
    {
      "midi": 79,
      "hit": false,
      "t": 203989.7386458288,
      "d": 182.69172916663229,
      "v": 43
    },
    {
      "midi": 76,
      "hit": false,
      "t": 204004.16167707878,
      "d": 139.4226354166749,
      "v": 40
    },
    {
      "midi": 79,
      "hit": false,
      "t": 204287.81462499543,
      "d": 221.1531458333193,
      "v": 71
    },
    {
      "midi": 76,
      "hit": false,
      "t": 204287.81462499543,
      "d": 235.57617708330508,
      "v": 71
    },
    {
      "midi": 72,
      "hit": false,
      "t": 204292.62230207876,
      "d": 249.99920833331998,
      "v": 66
    },
    {
      "midi": 56,
      "hit": false,
      "t": 204292.62230207876,
      "d": 293.2683020833065,
      "v": 67
    },
    {
      "midi": 67,
      "hit": false,
      "t": 204297.4299791621,
      "d": 211.5377916666621,
      "v": 71
    },
    {
      "midi": 62,
      "hit": false,
      "t": 204297.4299791621,
      "d": 221.1531458333193,
      "v": 64
    },
    {
      "midi": 61,
      "hit": false,
      "t": 204898.38961457871,
      "d": 62.49980208327179,
      "v": 46
    },
    {
      "midi": 64,
      "hit": false,
      "t": 204908.00496874537,
      "d": 38.46141666662879,
      "v": 55
    },
    {
      "midi": 68,
      "hit": false,
      "t": 204912.8126458287,
      "d": 24.038385416642996,
      "v": 38
    },
    {
      "midi": 54,
      "hit": false,
      "t": 204912.8126458287,
      "d": 28.846062499971595,
      "v": 39
    },
    {
      "midi": 73,
      "hit": false,
      "t": 204922.42799999536,
      "d": 24.038385416642996,
      "v": 21
    },
    {
      "midi": 76,
      "hit": false,
      "t": 204922.42799999536,
      "d": 24.038385416642996,
      "v": 24
    },
    {
      "midi": 76,
      "hit": false,
      "t": 205196.46559374532,
      "d": 519.2291249999835,
      "v": 71
    },
    {
      "midi": 64,
      "hit": false,
      "t": 205201.27327082865,
      "d": 278.8452708333207,
      "v": 65
    },
    {
      "midi": 68,
      "hit": false,
      "t": 205201.27327082865,
      "d": 447.11396874996717,
      "v": 70
    },
    {
      "midi": 73,
      "hit": false,
      "t": 205201.27327082865,
      "d": 495.19073958331137,
      "v": 55
    },
    {
      "midi": 54,
      "hit": false,
      "t": 205206.08094791198,
      "d": 389.4218437499949,
      "v": 53
    },
    {
      "midi": 61,
      "hit": false,
      "t": 205206.08094791198,
      "d": 403.8448749999807,
      "v": 44
    },
    {
      "midi": 68,
      "hit": false,
      "t": 205826.27129166198,
      "d": 177.88405208327458,
      "v": 40
    },
    {
      "midi": 64,
      "hit": false,
      "t": 205831.0789687453,
      "d": 144.2303124999744,
      "v": 45
    },
    {
      "midi": 61,
      "hit": false,
      "t": 205835.88664582864,
      "d": 144.2303124999744,
      "v": 46
    },
    {
      "midi": 54,
      "hit": false,
      "t": 205845.5019999953,
      "d": 144.2303124999744,
      "v": 37
    },
    {
      "midi": 84,
      "hit": false,
      "t": 206278.19293749525,
      "d": 96.1535416666593,
      "v": 81
    },
    {
      "midi": 72,
      "hit": false,
      "t": 206287.8082916619,
      "d": 67.3074791666586,
      "v": 65
    },
    {
      "midi": 61,
      "hit": false,
      "t": 206292.61596874523,
      "d": 134.6149583333463,
      "v": 60
    },
    {
      "midi": 54,
      "hit": false,
      "t": 206297.42364582856,
      "d": 96.1535416666884,
      "v": 57
    },
    {
      "midi": 65,
      "hit": false,
      "t": 206758.96064582857,
      "d": 211.5377916666621,
      "v": 71
    },
    {
      "midi": 61,
      "hit": false,
      "t": 206758.96064582857,
      "d": 235.5761770833342,
      "v": 55
    },
    {
      "midi": 75,
      "hit": false,
      "t": 206763.7683229119,
      "d": 187.4994062500191,
      "v": 83
    },
    {
      "midi": 55,
      "hit": false,
      "t": 206763.7683229119,
      "d": 197.1147604166763,
      "v": 70
    },
    {
      "midi": 87,
      "hit": false,
      "t": 206763.7683229119,
      "d": 197.1147604166763,
      "v": 86
    },
    {
      "midi": 60,
      "hit": false,
      "t": 206763.7683229119,
      "d": 211.5377916666621,
      "v": 61
    },
    {
      "midi": 64,
      "hit": false,
      "t": 206782.99903124524,
      "d": 28.8460625000007,
      "v": 37
    },
    {
      "midi": 61,
      "hit": false,
      "t": 207066.6519791619,
      "d": 124.99960416663089,
      "v": 59
    },
    {
      "midi": 89,
      "hit": false,
      "t": 207071.45965624522,
      "d": 72.1151562499872,
      "v": 78
    },
    {
      "midi": 65,
      "hit": false,
      "t": 207071.45965624522,
      "d": 86.53818749997299,
      "v": 72
    },
    {
      "midi": 60,
      "hit": false,
      "t": 207071.45965624522,
      "d": 110.57657291664509,
      "v": 71
    },
    {
      "midi": 77,
      "hit": false,
      "t": 207081.07501041188,
      "d": 62.499802083329996,
      "v": 71
    },
    {
      "midi": 55,
      "hit": false,
      "t": 207081.07501041188,
      "d": 72.1151562499872,
      "v": 58
    },
    {
      "midi": 65,
      "hit": false,
      "t": 207234.9206770785,
      "d": 149.0379895833321,
      "v": 48
    },
    {
      "midi": 60,
      "hit": false,
      "t": 207239.72835416184,
      "d": 144.2303125000035,
      "v": 36
    },
    {
      "midi": 61,
      "hit": false,
      "t": 207239.72835416184,
      "d": 187.49940624999,
      "v": 52
    },
    {
      "midi": 55,
      "hit": false,
      "t": 207244.53603124517,
      "d": 120.1919270833314,
      "v": 52
    },
    {
      "midi": 87,
      "hit": false,
      "t": 207258.95906249515,
      "d": 139.4226354166749,
      "v": 47
    },
    {
      "midi": 75,
      "hit": false,
      "t": 207258.95906249515,
      "d": 182.6917291666614,
      "v": 48
    },
    {
      "midi": 64,
      "hit": false,
      "t": 207518.57362499516,
      "d": 192.3070833333186,
      "v": 78
    },
    {
      "midi": 60,
      "hit": false,
      "t": 207518.57362499516,
      "d": 197.1147604166472,
      "v": 74
    },
    {
      "midi": 86,
      "hit": false,
      "t": 207523.3813020785,
      "d": 177.8840520833328,
      "v": 74
    },
    {
      "midi": 54,
      "hit": false,
      "t": 207523.3813020785,
      "d": 197.1147604166472,
      "v": 73
    },
    {
      "midi": 74,
      "hit": false,
      "t": 207528.18897916182,
      "d": 134.6149583333463,
      "v": 77
    },
    {
      "midi": 80,
      "hit": false,
      "t": 207547.41968749516,
      "d": 28.8460625000007,
      "v": 32
    },
    {
      "midi": 60,
      "hit": false,
      "t": 207840.68798957847,
      "d": 62.49980208330089,
      "v": 79
    },
    {
      "midi": 64,
      "hit": false,
      "t": 207845.4956666618,
      "d": 43.269093749986496,
      "v": 78
    },
    {
      "midi": 54,
      "hit": false,
      "t": 207845.4956666618,
      "d": 57.69212499997229,
      "v": 77
    },
    {
      "midi": 96,
      "hit": false,
      "t": 207845.4956666618,
      "d": 57.69212499997229,
      "v": 88
    },
    {
      "midi": 84,
      "hit": false,
      "t": 207855.11102082845,
      "d": 24.0383854166721,
      "v": 72
    },
    {
      "midi": 96,
      "hit": false,
      "t": 207980.1106249951,
      "d": 57.69212499997229,
      "v": 85
    },
    {
      "midi": 60,
      "hit": false,
      "t": 207980.1106249951,
      "d": 72.11515624995809,
      "v": 71
    },
    {
      "midi": 64,
      "hit": false,
      "t": 207984.91830207844,
      "d": 38.4614166666579,
      "v": 76
    },
    {
      "midi": 84,
      "hit": false,
      "t": 207984.91830207844,
      "d": 43.269093749986496,
      "v": 82
    },
    {
      "midi": 54,
      "hit": false,
      "t": 207984.91830207844,
      "d": 52.884447916643694,
      "v": 71
    },
    {
      "midi": 64,
      "hit": false,
      "t": 208124.34093749506,
      "d": 33.6537395833293,
      "v": 73
    },
    {
      "midi": 60,
      "hit": false,
      "t": 208124.34093749506,
      "d": 57.6921250000014,
      "v": 67
    },
    {
      "midi": 54,
      "hit": false,
      "t": 208129.1486145784,
      "d": 52.8844479166728,
      "v": 67
    },
    {
      "midi": 93,
      "hit": false,
      "t": 208129.1486145784,
      "d": 57.6921250000014,
      "v": 83
    },
    {
      "midi": 81,
      "hit": false,
      "t": 208138.76396874504,
      "d": 38.461416666687,
      "v": 72
    },
    {
      "midi": 54,
      "hit": false,
      "t": 208273.3789270784,
      "d": 76.92283333328669,
      "v": 69
    },
    {
      "midi": 60,
      "hit": false,
      "t": 208278.18660416172,
      "d": 28.846062499971595,
      "v": 63
    },
    {
      "midi": 64,
      "hit": false,
      "t": 208278.18660416172,
      "d": 28.846062499971595,
      "v": 66
    },
    {
      "midi": 93,
      "hit": false,
      "t": 208282.99428124505,
      "d": 24.038385416642996,
      "v": 74
    },
    {
      "midi": 81,
      "hit": false,
      "t": 208292.6096354117,
      "d": 24.038385416642996,
      "v": 61
    },
    {
      "midi": 58,
      "hit": false,
      "t": 208422.41691666166,
      "d": 249.99920833331998,
      "v": 74
    },
    {
      "midi": 62,
      "hit": false,
      "t": 208427.224593745,
      "d": 254.80688541664858,
      "v": 90
    },
    {
      "midi": 57,
      "hit": false,
      "t": 208427.224593745,
      "d": 259.6145624999772,
      "v": 77
    },
    {
      "midi": 89,
      "hit": false,
      "t": 208432.03227082832,
      "d": 197.1147604166763,
      "v": 88
    },
    {
      "midi": 77,
      "hit": false,
      "t": 208436.83994791165,
      "d": 240.3838541666628,
      "v": 92
    },
    {
      "midi": 53,
      "hit": false,
      "t": 208436.83994791165,
      "d": 249.99920833331998,
      "v": 76
    },
    {
      "midi": 65,
      "hit": false,
      "t": 209528.1826458283,
      "d": 187.49940624999,
      "v": 44
    },
    {
      "midi": 55,
      "hit": false,
      "t": 209532.99032291162,
      "d": 192.3070833333186,
      "v": 29
    },
    {
      "midi": 58,
      "hit": false,
      "t": 209532.99032291162,
      "d": 197.1147604166472,
      "v": 35
    },
    {
      "midi": 52,
      "hit": false,
      "t": 209537.79799999495,
      "d": 38.4614166666579,
      "v": 35
    },
    {
      "midi": 62,
      "hit": false,
      "t": 209537.79799999495,
      "d": 192.3070833333186,
      "v": 38
    },
    {
      "midi": 53,
      "hit": false,
      "t": 209542.60567707827,
      "d": 197.1147604166472,
      "v": 44
    },
    {
      "midi": 51,
      "hit": false,
      "t": 210369.52613541158,
      "d": 62.499802083329996,
      "v": 25
    },
    {
      "midi": 52,
      "hit": false,
      "t": 210436.83361457824,
      "d": 62.49980208330089,
      "v": 39
    },
    {
      "midi": 55,
      "hit": false,
      "t": 210451.25664582822,
      "d": 514.4214479166549,
      "v": 66
    },
    {
      "midi": 65,
      "hit": false,
      "t": 210456.06432291155,
      "d": 519.2291249999835,
      "v": 51
    },
    {
      "midi": 58,
      "hit": false,
      "t": 210460.87199999488,
      "d": 519.2291249999835,
      "v": 37
    },
    {
      "midi": 53,
      "hit": false,
      "t": 210465.6796770782,
      "d": 514.4214479166549,
      "v": 48
    },
    {
      "midi": 61,
      "hit": false,
      "t": 210465.6796770782,
      "d": 524.0368020833121,
      "v": 35
    },
    {
      "midi": 55,
      "hit": false,
      "t": 211191.63891666153,
      "d": 24.0383854166721,
      "v": 62
    },
    {
      "midi": 58,
      "hit": false,
      "t": 211191.63891666153,
      "d": 43.2690937500156,
      "v": 52
    },
    {
      "midi": 65,
      "hit": false,
      "t": 211191.63891666153,
      "d": 72.1151562499872,
      "v": 66
    },
    {
      "midi": 61,
      "hit": false,
      "t": 211196.44659374485,
      "d": 52.8844479166728,
      "v": 50
    },
    {
      "midi": 53,
      "hit": false,
      "t": 211196.44659374485,
      "d": 62.499802083329996,
      "v": 65
    },
    {
      "midi": 80,
      "hit": false,
      "t": 211412.79206249485,
      "d": 28.8460625000007,
      "v": 28
    },
    {
      "midi": 62,
      "hit": false,
      "t": 211528.17631249485,
      "d": 33.6537395833293,
      "v": 67
    },
    {
      "midi": 57,
      "hit": false,
      "t": 211532.98398957818,
      "d": 28.8460625000007,
      "v": 54
    },
    {
      "midi": 72,
      "hit": false,
      "t": 211532.98398957818,
      "d": 38.4614166666579,
      "v": 79
    },
    {
      "midi": 84,
      "hit": false,
      "t": 211532.98398957818,
      "d": 43.269093749986496,
      "v": 82
    },
    {
      "midi": 58,
      "hit": false,
      "t": 211537.7916666615,
      "d": 43.269093749986496,
      "v": 46
    },
    {
      "midi": 84,
      "hit": false,
      "t": 211657.98359374484,
      "d": 48.076770833315095,
      "v": 78
    },
    {
      "midi": 62,
      "hit": false,
      "t": 211662.79127082817,
      "d": 28.8460625000007,
      "v": 64
    },
    {
      "midi": 72,
      "hit": false,
      "t": 211662.79127082817,
      "d": 43.269093749986496,
      "v": 74
    },
    {
      "midi": 58,
      "hit": false,
      "t": 211662.79127082817,
      "d": 52.884447916643694,
      "v": 45
    },
    {
      "midi": 57,
      "hit": false,
      "t": 211667.5989479115,
      "d": 28.8460625000007,
      "v": 37
    },
    {
      "midi": 62,
      "hit": false,
      "t": 211802.2139062448,
      "d": 33.653739583300194,
      "v": 64
    },
    {
      "midi": 57,
      "hit": false,
      "t": 211811.82926041147,
      "d": 28.846062499971595,
      "v": 41
    },
    {
      "midi": 58,
      "hit": false,
      "t": 211811.82926041147,
      "d": 48.076770833315095,
      "v": 51
    },
    {
      "midi": 81,
      "hit": false,
      "t": 211816.6369374948,
      "d": 24.038385416642996,
      "v": 74
    },
    {
      "midi": 69,
      "hit": false,
      "t": 211821.44461457813,
      "d": 38.4614166666579,
      "v": 65
    },
    {
      "midi": 81,
      "hit": false,
      "t": 211975.2902812448,
      "d": 24.038385416642996,
      "v": 66
    },
    {
      "midi": 62,
      "hit": false,
      "t": 211975.2902812448,
      "d": 28.846062499971595,
      "v": 48
    },
    {
      "midi": 69,
      "hit": false,
      "t": 211980.09795832812,
      "d": 24.038385416642996,
      "v": 71
    },
    {
      "midi": 58,
      "hit": false,
      "t": 211984.90563541144,
      "d": 28.846062499971595,
      "v": 35
    },
    {
      "midi": 57,
      "hit": false,
      "t": 211989.71331249477,
      "d": 28.846062499971595,
      "v": 35
    },
    {
      "midi": 77,
      "hit": false,
      "t": 212157.98201041142,
      "d": 24.038385416642996,
      "v": 78
    },
    {
      "midi": 58,
      "hit": false,
      "t": 212157.98201041142,
      "d": 43.26909374995739,
      "v": 65
    },
    {
      "midi": 57,
      "hit": false,
      "t": 212162.78968749475,
      "d": 24.038385416642996,
      "v": 55
    },
    {
      "midi": 65,
      "hit": false,
      "t": 212167.59736457808,
      "d": 19.230708333314396,
      "v": 71
    },
    {
      "midi": 62,
      "hit": false,
      "t": 212167.59736457808,
      "d": 24.038385416642996,
      "v": 54
    },
    {
      "midi": 51,
      "hit": false,
      "t": 212542.59617707806,
      "d": 43.269093749986496,
      "v": 29
    },
    {
      "midi": 52,
      "hit": false,
      "t": 212576.24991666139,
      "d": 43.269093749986496,
      "v": 70
    },
    {
      "midi": 58,
      "hit": false,
      "t": 212581.0575937447,
      "d": 985.5738020833232,
      "v": 57
    },
    {
      "midi": 65,
      "hit": false,
      "t": 212581.0575937447,
      "d": 1043.2659270833246,
      "v": 65
    },
    {
      "midi": 62,
      "hit": false,
      "t": 212585.86527082804,
      "d": 918.2663229166646,
      "v": 64
    },
    {
      "midi": 55,
      "hit": false,
      "t": 212585.86527082804,
      "d": 923.0739999999932,
      "v": 71
    },
    {
      "midi": 53,
      "hit": false,
      "t": 212595.4806249947,
      "d": 1134.6117916666553,
      "v": 62
    },
    {
      "midi": 55,
      "hit": false,
      "t": 213682.01564582804,
      "d": 144.2303124999744,
      "v": 53
    },
    {
      "midi": 62,
      "hit": false,
      "t": 213682.01564582804,
      "d": 149.037989583303,
      "v": 45
    },
    {
      "midi": 50,
      "hit": false,
      "t": 213686.82332291137,
      "d": 134.6149583333172,
      "v": 47
    },
    {
      "midi": 58,
      "hit": false,
      "t": 213691.6309999947,
      "d": 177.8840520833037,
      "v": 33
    },
    {
      "midi": 50,
      "hit": false,
      "t": 214052.20678124466,
      "d": 43.269093749986496,
      "v": 24
    },
    {
      "midi": 51,
      "hit": false,
      "t": 214109.89890624463,
      "d": 91.34586458330159,
      "v": 23
    },
    {
      "midi": 55,
      "hit": false,
      "t": 214148.3603229113,
      "d": 221.1531458333193,
      "v": 47
    },
    {
      "midi": 58,
      "hit": false,
      "t": 214157.97567707795,
      "d": 211.5377916666621,
      "v": 34
    },
    {
      "midi": 52,
      "hit": false,
      "t": 214157.97567707795,
      "d": 221.1531458333193,
      "v": 44
    },
    {
      "midi": 61,
      "hit": false,
      "t": 214162.78335416128,
      "d": 206.7301145833335,
      "v": 35
    },
    {
      "midi": 64,
      "hit": false,
      "t": 214167.5910312446,
      "d": 201.9224375000049,
      "v": 53
    },
    {
      "midi": 55,
      "hit": false,
      "t": 214614.7049999946,
      "d": 163.4610208333179,
      "v": 54
    },
    {
      "midi": 61,
      "hit": false,
      "t": 214619.51267707793,
      "d": 173.0763749999751,
      "v": 36
    },
    {
      "midi": 58,
      "hit": false,
      "t": 214619.51267707793,
      "d": 182.69172916663229,
      "v": 39
    },
    {
      "midi": 65,
      "hit": false,
      "t": 214624.32035416126,
      "d": 153.8456666666607,
      "v": 50
    },
    {
      "midi": 53,
      "hit": false,
      "t": 214624.32035416126,
      "d": 249.99920833329088,
      "v": 55
    },
    {
      "midi": 55,
      "hit": false,
      "t": 215066.6266458279,
      "d": 312.4990104166209,
      "v": 56
    },
    {
      "midi": 58,
      "hit": false,
      "t": 215076.24199999456,
      "d": 206.73011458330438,
      "v": 50
    },
    {
      "midi": 61,
      "hit": false,
      "t": 215085.8573541612,
      "d": 201.92243749997579,
      "v": 45
    },
    {
      "midi": 67,
      "hit": false,
      "t": 215085.8573541612,
      "d": 221.1531458333193,
      "v": 54
    },
    {
      "midi": 64,
      "hit": false,
      "t": 215090.66503124454,
      "d": 158.6533437499893,
      "v": 47
    },
    {
      "midi": 58,
      "hit": false,
      "t": 215388.74101041118,
      "d": 197.1147604166472,
      "v": 44
    },
    {
      "midi": 61,
      "hit": false,
      "t": 215398.35636457783,
      "d": 197.1147604166472,
      "v": 55
    },
    {
      "midi": 64,
      "hit": false,
      "t": 215407.9717187445,
      "d": 144.2303125000035,
      "v": 51
    },
    {
      "midi": 52,
      "hit": false,
      "t": 215412.77939582782,
      "d": 168.2686979166756,
      "v": 44
    },
    {
      "midi": 55,
      "hit": false,
      "t": 215845.4703333278,
      "d": 423.0755833333242,
      "v": 58
    },
    {
      "midi": 60,
      "hit": false,
      "t": 215845.4703333278,
      "d": 475.960031249997,
      "v": 60
    },
    {
      "midi": 48,
      "hit": false,
      "t": 215850.27801041113,
      "d": 485.57538541665417,
      "v": 50
    },
    {
      "midi": 57,
      "hit": false,
      "t": 215855.08568749446,
      "d": 461.5370000000112,
      "v": 53
    },
    {
      "midi": 72,
      "hit": false,
      "t": 216893.54393749445,
      "d": 57.69212499997229,
      "v": 81
    },
    {
      "midi": 62,
      "hit": false,
      "t": 216898.35161457778,
      "d": 24.0383854166721,
      "v": 80
    },
    {
      "midi": 57,
      "hit": false,
      "t": 216898.35161457778,
      "d": 33.6537395833293,
      "v": 68
    },
    {
      "midi": 60,
      "hit": false,
      "t": 216898.35161457778,
      "d": 38.4614166666579,
      "v": 73
    },
    {
      "midi": 67,
      "hit": false,
      "t": 216903.1592916611,
      "d": 24.0383854166721,
      "v": 68
    },
    {
      "midi": 79,
      "hit": false,
      "t": 217826.2332916611,
      "d": 456.7293229166535,
      "v": 87
    },
    {
      "midi": 67,
      "hit": false,
      "t": 217831.04096874443,
      "d": 471.1523541666684,
      "v": 89
    },
    {
      "midi": 72,
      "hit": false,
      "t": 217831.04096874443,
      "d": 475.960031249997,
      "v": 84
    },
    {
      "midi": 76,
      "hit": false,
      "t": 217831.04096874443,
      "d": 475.960031249997,
      "v": 84
    },
    {
      "midi": 62,
      "hit": false,
      "t": 217831.04096874443,
      "d": 495.1907395833405,
      "v": 83
    },
    {
      "midi": 56,
      "hit": false,
      "t": 217835.84864582776,
      "d": 495.1907395833405,
      "v": 77
    },
    {
      "midi": 72,
      "hit": false,
      "t": 218605.0769791611,
      "d": 586.536604166613,
      "v": 60
    },
    {
      "midi": 64,
      "hit": false,
      "t": 218614.69233332775,
      "d": 427.88326041662367,
      "v": 53
    },
    {
      "midi": 67,
      "hit": false,
      "t": 218619.50001041108,
      "d": 552.8828645832837,
      "v": 60
    },
    {
      "midi": 62,
      "hit": false,
      "t": 218624.3076874944,
      "d": 533.6521562499693,
      "v": 58
    },
    {
      "midi": 56,
      "hit": false,
      "t": 218629.11536457774,
      "d": 610.5749895833142,
      "v": 46
    },
    {
      "midi": 79,
      "hit": false,
      "t": 219672.38129166106,
      "d": 480.76770833329647,
      "v": 73
    },
    {
      "midi": 67,
      "hit": false,
      "t": 219677.1889687444,
      "d": 524.0368020833121,
      "v": 68
    },
    {
      "midi": 76,
      "hit": false,
      "t": 219681.99664582772,
      "d": 490.38306249998277,
      "v": 61
    },
    {
      "midi": 64,
      "hit": false,
      "t": 219681.99664582772,
      "d": 509.61377083332627,
      "v": 65
    },
    {
      "midi": 72,
      "hit": false,
      "t": 219686.80432291105,
      "d": 504.8060937499977,
      "v": 59
    },
    {
      "midi": 55,
      "hit": false,
      "t": 219686.80432291105,
      "d": 524.0368020833121,
      "v": 55
    },
    {
      "midi": 60,
      "hit": false,
      "t": 219686.80432291105,
      "d": 538.4598333332979,
      "v": 50
    },
    {
      "midi": 57,
      "hit": false,
      "t": 219691.61199999438,
      "d": 552.8828645833128,
      "v": 50
    },
    {
      "midi": 72,
      "hit": false,
      "t": 220460.84033332768,
      "d": 605.7673124999856,
      "v": 62
    },
    {
      "midi": 64,
      "hit": false,
      "t": 220465.648010411,
      "d": 533.6521562499984,
      "v": 60
    },
    {
      "midi": 55,
      "hit": false,
      "t": 220470.45568749434,
      "d": 533.6521562499984,
      "v": 53
    },
    {
      "midi": 67,
      "hit": false,
      "t": 220470.45568749434,
      "d": 567.3058958333277,
      "v": 62
    },
    {
      "midi": 60,
      "hit": false,
      "t": 220480.071041661,
      "d": 538.459833333327,
      "v": 44
    },
    {
      "midi": 57,
      "hit": false,
      "t": 220480.071041661,
      "d": 557.6905416666705,
      "v": 49
    },
    {
      "midi": 79,
      "hit": false,
      "t": 221532.952322911,
      "d": 403.8448749999807,
      "v": 87
    },
    {
      "midi": 71,
      "hit": false,
      "t": 221532.952322911,
      "d": 490.38306249995367,
      "v": 87
    },
    {
      "midi": 68,
      "hit": false,
      "t": 221532.952322911,
      "d": 499.99841666661086,
      "v": 87
    },
    {
      "midi": 67,
      "hit": false,
      "t": 221542.56767707766,
      "d": 384.6141666666663,
      "v": 83
    },
    {
      "midi": 74,
      "hit": false,
      "t": 221547.375354161,
      "d": 461.5369999999821,
      "v": 73
    },
    {
      "midi": 74,
      "hit": false,
      "t": 222316.6036874943,
      "d": 312.49901041665,
      "v": 82
    },
    {
      "midi": 67,
      "hit": false,
      "t": 222326.21904166095,
      "d": 307.6913333333214,
      "v": 66
    },
    {
      "midi": 70,
      "hit": false,
      "t": 222326.21904166095,
      "d": 317.3066874999786,
      "v": 55
    },
    {
      "midi": 64,
      "hit": false,
      "t": 222326.21904166095,
      "d": 346.1527499999502,
      "v": 71
    },
    {
      "midi": 62,
      "hit": false,
      "t": 222335.8343958276,
      "d": 322.1143645833072,
      "v": 64
    },
    {
      "midi": 56,
      "hit": false,
      "t": 222340.64207291094,
      "d": 360.5757812499651,
      "v": 52
    },
    {
      "midi": 65,
      "hit": false,
      "t": 222792.56371874423,
      "d": 509.61377083329717,
      "v": 73
    },
    {
      "midi": 70,
      "hit": false,
      "t": 222797.37139582756,
      "d": 57.69212499997229,
      "v": 55
    },
    {
      "midi": 62,
      "hit": false,
      "t": 222797.37139582756,
      "d": 475.96003124996787,
      "v": 68
    },
    {
      "midi": 56,
      "hit": false,
      "t": 222802.1790729109,
      "d": 490.38306249998277,
      "v": 59
    },
    {
      "midi": 68,
      "hit": false,
      "t": 222806.98674999422,
      "d": 552.8828645833128,
      "v": 64
    },
    {
      "midi": 62,
      "hit": false,
      "t": 223398.3310312442,
      "d": 91.34586458330159,
      "v": 48
    },
    {
      "midi": 57,
      "hit": false,
      "t": 223403.13870832752,
      "d": 100.96121874995879,
      "v": 44
    },
    {
      "midi": 58,
      "hit": false,
      "t": 223407.94638541085,
      "d": 100.96121874995879,
      "v": 46
    },
    {
      "midi": 65,
      "hit": false,
      "t": 223412.75406249418,
      "d": 62.499802083329996,
      "v": 54
    },
    {
      "midi": 69,
      "hit": false,
      "t": 223417.5617395775,
      "d": 72.1151562499872,
      "v": 60
    },
    {
      "midi": 62,
      "hit": false,
      "t": 223845.44499999413,
      "d": 197.11476041661808,
      "v": 44
    },
    {
      "midi": 65,
      "hit": false,
      "t": 223850.25267707746,
      "d": 163.46102083328879,
      "v": 50
    },
    {
      "midi": 58,
      "hit": false,
      "t": 223850.25267707746,
      "d": 173.07637499994598,
      "v": 38
    },
    {
      "midi": 57,
      "hit": false,
      "t": 223855.06035416079,
      "d": 221.15314583329018,
      "v": 43
    },
    {
      "midi": 58,
      "hit": false,
      "t": 224321.40503124407,
      "d": 216.3454687500198,
      "v": 35
    },
    {
      "midi": 62,
      "hit": false,
      "t": 224321.40503124407,
      "d": 216.3454687500198,
      "v": 49
    },
    {
      "midi": 55,
      "hit": false,
      "t": 224326.2127083274,
      "d": 192.3070833333477,
      "v": 39
    },
    {
      "midi": 52,
      "hit": false,
      "t": 224595.4426249941,
      "d": 57.69212499997229,
      "v": 64
    },
    {
      "midi": 58,
      "hit": false,
      "t": 224609.86565624407,
      "d": 163.4610208333179,
      "v": 50
    },
    {
      "midi": 62,
      "hit": false,
      "t": 224619.48101041073,
      "d": 144.2303125000035,
      "v": 51
    },
    {
      "midi": 55,
      "hit": false,
      "t": 224624.28868749406,
      "d": 81.7305104166735,
      "v": 68
    },
    {
      "midi": 53,
      "hit": false,
      "t": 224624.28868749406,
      "d": 225.96082291664788,
      "v": 57
    },
    {
      "midi": 65,
      "hit": false,
      "t": 224629.0963645774,
      "d": 105.7688958333456,
      "v": 61
    },
    {
      "midi": 55,
      "hit": false,
      "t": 224811.78809374405,
      "d": 105.76889583331649,
      "v": 28
    },
    {
      "midi": 52,
      "hit": false,
      "t": 225037.7489166607,
      "d": 86.53818749997299,
      "v": 50
    },
    {
      "midi": 62,
      "hit": false,
      "t": 225081.01801041068,
      "d": 115.38424999997369,
      "v": 70
    },
    {
      "midi": 58,
      "hit": false,
      "t": 225081.01801041068,
      "d": 139.42263541661669,
      "v": 57
    },
    {
      "midi": 55,
      "hit": false,
      "t": 225085.825687494,
      "d": 120.19192708330229,
      "v": 72
    },
    {
      "midi": 53,
      "hit": false,
      "t": 225085.825687494,
      "d": 197.11476041661808,
      "v": 68
    },
    {
      "midi": 65,
      "hit": false,
      "t": 225090.63336457734,
      "d": 120.19192708330229,
      "v": 62
    },
    {
      "midi": 55,
      "hit": false,
      "t": 225278.1327708273,
      "d": 124.99960416665999,
      "v": 54
    },
    {
      "midi": 58,
      "hit": false,
      "t": 225278.1327708273,
      "d": 134.6149583333172,
      "v": 39
    },
    {
      "midi": 64,
      "hit": false,
      "t": 225282.94044791063,
      "d": 134.6149583333172,
      "v": 50
    },
    {
      "midi": 52,
      "hit": false,
      "t": 225287.74812499396,
      "d": 124.99960416665999,
      "v": 52
    },
    {
      "midi": 55,
      "hit": false,
      "t": 225696.40067707727,
      "d": 221.1531458333193,
      "v": 55
    },
    {
      "midi": 58,
      "hit": false,
      "t": 225701.2083541606,
      "d": 264.4222395833349,
      "v": 36
    },
    {
      "midi": 61,
      "hit": false,
      "t": 225701.2083541606,
      "d": 312.4990104166791,
      "v": 43
    },
    {
      "midi": 64,
      "hit": false,
      "t": 225701.2083541606,
      "d": 326.9220416666649,
      "v": 55
    },
    {
      "midi": 52,
      "hit": false,
      "t": 225706.01603124393,
      "d": 307.6913333333505,
      "v": 54
    },
    {
      "midi": 54,
      "hit": false,
      "t": 226898.31994791058,
      "d": 96.1535416666593,
      "v": 61
    },
    {
      "midi": 63,
      "hit": false,
      "t": 226898.31994791058,
      "d": 120.1919270833314,
      "v": 59
    },
    {
      "midi": 92,
      "hit": false,
      "t": 226903.1276249939,
      "d": 120.1919270833314,
      "v": 81
    },
    {
      "midi": 80,
      "hit": false,
      "t": 226903.1276249939,
      "d": 129.8072812499886,
      "v": 80
    },
    {
      "midi": 58,
      "hit": false,
      "t": 226907.93530207724,
      "d": 110.5765729166742,
      "v": 45
    },
    {
      "midi": 87,
      "hit": false,
      "t": 226907.93530207724,
      "d": 124.99960416665999,
      "v": 77
    },
    {
      "midi": 59,
      "hit": false,
      "t": 226917.5506562439,
      "d": 28.8460625000007,
      "v": 50
    },
    {
      "midi": 64,
      "hit": false,
      "t": 227105.0500624939,
      "d": 67.30747916662949,
      "v": 49
    },
    {
      "midi": 60,
      "hit": false,
      "t": 227109.85773957722,
      "d": 67.30747916662949,
      "v": 36
    },
    {
      "midi": 91,
      "hit": false,
      "t": 227114.66541666054,
      "d": 43.269093749986496,
      "v": 55
    },
    {
      "midi": 55,
      "hit": false,
      "t": 227119.47309374387,
      "d": 33.6537395833293,
      "v": 46
    },
    {
      "midi": 79,
      "hit": false,
      "t": 227119.47309374387,
      "d": 48.076770833315095,
      "v": 35
    },
    {
      "midi": 86,
      "hit": false,
      "t": 227129.08844791053,
      "d": 24.0383854166721,
      "v": 52
    },
    {
      "midi": 60,
      "hit": false,
      "t": 227398.31836457716,
      "d": 379.8064895833377,
      "v": 55
    },
    {
      "midi": 76,
      "hit": false,
      "t": 227403.1260416605,
      "d": 331.7297187500226,
      "v": 72
    },
    {
      "midi": 64,
      "hit": false,
      "t": 227403.1260416605,
      "d": 384.6141666666663,
      "v": 60
    },
    {
      "midi": 83,
      "hit": false,
      "t": 227407.93371874382,
      "d": 278.8452708333498,
      "v": 73
    },
    {
      "midi": 88,
      "hit": false,
      "t": 227407.93371874382,
      "d": 278.8452708333498,
      "v": 71
    },
    {
      "midi": 55,
      "hit": false,
      "t": 227407.93371874382,
      "d": 384.6141666666663,
      "v": 69
    },
    {
      "midi": 84,
      "hit": false,
      "t": 227965.62426041046,
      "d": 24.038385416642996,
      "v": 54
    },
    {
      "midi": 64,
      "hit": false,
      "t": 227965.62426041046,
      "d": 33.653739583300194,
      "v": 38
    },
    {
      "midi": 60,
      "hit": false,
      "t": 227970.4319374938,
      "d": 28.846062499971595,
      "v": 36
    },
    {
      "midi": 55,
      "hit": false,
      "t": 227970.4319374938,
      "d": 43.26909374995739,
      "v": 53
    },
    {
      "midi": 72,
      "hit": false,
      "t": 227970.4319374938,
      "d": 52.88444791661459,
      "v": 41
    },
    {
      "midi": 79,
      "hit": false,
      "t": 227980.04729166045,
      "d": 33.653739583300194,
      "v": 33
    },
    {
      "midi": 64,
      "hit": false,
      "t": 228412.7382291604,
      "d": 67.3074791666586,
      "v": 37
    },
    {
      "midi": 69,
      "hit": false,
      "t": 228412.7382291604,
      "d": 72.1151562499872,
      "v": 56
    },
    {
      "midi": 55,
      "hit": false,
      "t": 228412.7382291604,
      "d": 81.73051041664439,
      "v": 54
    },
    {
      "midi": 76,
      "hit": false,
      "t": 228412.7382291604,
      "d": 110.57657291664509,
      "v": 55
    },
    {
      "midi": 81,
      "hit": false,
      "t": 228417.54590624373,
      "d": 120.19192708330229,
      "v": 50
    },
    {
      "midi": 60,
      "hit": false,
      "t": 228422.35358332706,
      "d": 91.3458645833307,
      "v": 37
    },
    {
      "midi": 71,
      "hit": false,
      "t": 228898.31361457703,
      "d": 105.76889583331649,
      "v": 73
    },
    {
      "midi": 83,
      "hit": false,
      "t": 228898.31361457703,
      "d": 139.4226354166458,
      "v": 71
    },
    {
      "midi": 64,
      "hit": false,
      "t": 228907.92896874368,
      "d": 129.8072812499886,
      "v": 57
    },
    {
      "midi": 54,
      "hit": false,
      "t": 228907.92896874368,
      "d": 139.4226354166458,
      "v": 60
    },
    {
      "midi": 60,
      "hit": false,
      "t": 228907.92896874368,
      "d": 139.4226354166458,
      "v": 66
    },
    {
      "midi": 80,
      "hit": false,
      "t": 228907.92896874368,
      "d": 144.2303124999744,
      "v": 35
    },
    {
      "midi": 76,
      "hit": false,
      "t": 228912.736645827,
      "d": 105.76889583331649,
      "v": 55
    },
    {
      "midi": 80,
      "hit": false,
      "t": 229345.427583327,
      "d": 274.037593749963,
      "v": 50
    },
    {
      "midi": 71,
      "hit": false,
      "t": 229355.04293749365,
      "d": 216.3454687499907,
      "v": 64
    },
    {
      "midi": 76,
      "hit": false,
      "t": 229355.04293749365,
      "d": 216.3454687499907,
      "v": 63
    },
    {
      "midi": 83,
      "hit": false,
      "t": 229355.04293749365,
      "d": 235.5761770833342,
      "v": 64
    },
    {
      "midi": 64,
      "hit": false,
      "t": 229359.85061457698,
      "d": 249.99920833331998,
      "v": 58
    },
    {
      "midi": 60,
      "hit": false,
      "t": 229364.6582916603,
      "d": 240.3838541666628,
      "v": 57
    },
    {
      "midi": 54,
      "hit": false,
      "t": 229364.6582916603,
      "d": 259.6145624999772,
      "v": 52
    },
    {
      "midi": 84,
      "hit": false,
      "t": 229821.38761457696,
      "d": 91.3458645833307,
      "v": 66
    },
    {
      "midi": 64,
      "hit": false,
      "t": 229826.1952916603,
      "d": 115.3842500000028,
      "v": 58
    },
    {
      "midi": 54,
      "hit": false,
      "t": 229826.1952916603,
      "d": 168.2686979166756,
      "v": 53
    },
    {
      "midi": 72,
      "hit": false,
      "t": 229831.00296874362,
      "d": 100.961218750017,
      "v": 49
    },
    {
      "midi": 60,
      "hit": false,
      "t": 229831.00296874362,
      "d": 144.2303125000035,
      "v": 54
    },
    {
      "midi": 81,
      "hit": false,
      "t": 229835.81064582695,
      "d": 67.3074791666877,
      "v": 44
    },
    {
      "midi": 77,
      "hit": false,
      "t": 229835.81064582695,
      "d": 76.9228333333449,
      "v": 53
    },
    {
      "midi": 77,
      "hit": false,
      "t": 230143.5019791603,
      "d": 158.6533437499893,
      "v": 54
    },
    {
      "midi": 74,
      "hit": false,
      "t": 230143.5019791603,
      "d": 173.0763749999751,
      "v": 61
    },
    {
      "midi": 81,
      "hit": false,
      "t": 230148.30965624363,
      "d": 129.8072812499886,
      "v": 49
    },
    {
      "midi": 69,
      "hit": false,
      "t": 230148.30965624363,
      "d": 187.49940624996088,
      "v": 57
    },
    {
      "midi": 60,
      "hit": false,
      "t": 230153.11733332695,
      "d": 158.6533437499893,
      "v": 62
    },
    {
      "midi": 64,
      "hit": false,
      "t": 230153.11733332695,
      "d": 177.8840520833037,
      "v": 62
    },
    {
      "midi": 54,
      "hit": false,
      "t": 230153.11733332695,
      "d": 197.11476041661808,
      "v": 57
    },
    {
      "midi": 77,
      "hit": false,
      "t": 230600.2313020769,
      "d": 341.3450729166798,
      "v": 80
    },
    {
      "midi": 74,
      "hit": false,
      "t": 230600.2313020769,
      "d": 346.1527500000084,
      "v": 83
    },
    {
      "midi": 70,
      "hit": false,
      "t": 230600.2313020769,
      "d": 394.2295208333526,
      "v": 80
    },
    {
      "midi": 67,
      "hit": false,
      "t": 230600.2313020769,
      "d": 413.4602291666961,
      "v": 89
    },
    {
      "midi": 62,
      "hit": false,
      "t": 230605.03897916022,
      "d": 605.7673125000438,
      "v": 92
    },
    {
      "midi": 60,
      "hit": false,
      "t": 230609.84665624355,
      "d": 24.0383854166721,
      "v": 74
    },
    {
      "midi": 58,
      "hit": false,
      "t": 231230.0369999936,
      "d": 76.9228333333158,
      "v": 61
    },
    {
      "midi": 65,
      "hit": false,
      "t": 231239.65235416027,
      "d": 81.73051041664439,
      "v": 65
    },
    {
      "midi": 74,
      "hit": false,
      "t": 231244.4600312436,
      "d": 62.499802083329996,
      "v": 62
    },
    {
      "midi": 70,
      "hit": false,
      "t": 231249.26770832692,
      "d": 72.1151562499872,
      "v": 47
    },
    {
      "midi": 51,
      "hit": false,
      "t": 231605.0358124936,
      "d": 91.3458645833307,
      "v": 35
    },
    {
      "midi": 50,
      "hit": false,
      "t": 231609.84348957692,
      "d": 38.4614166666579,
      "v": 29
    },
    {
      "midi": 52,
      "hit": false,
      "t": 231667.53561457692,
      "d": 28.8460625000007,
      "v": 38
    },
    {
      "midi": 55,
      "hit": false,
      "t": 231686.76632291026,
      "d": 254.80688541664858,
      "v": 55
    },
    {
      "midi": 58,
      "hit": false,
      "t": 231686.76632291026,
      "d": 283.6529479166493,
      "v": 37
    },
    {
      "midi": 65,
      "hit": false,
      "t": 231686.76632291026,
      "d": 307.6913333333214,
      "v": 49
    },
    {
      "midi": 62,
      "hit": false,
      "t": 231691.5739999936,
      "d": 240.3838541666628,
      "v": 48
    },
    {
      "midi": 53,
      "hit": false,
      "t": 231705.99703124358,
      "d": 365.3834583333519,
      "v": 42
    },
    {
      "midi": 50,
      "hit": false,
      "t": 232143.49564582692,
      "d": 129.8072812499886,
      "v": 44
    },
    {
      "midi": 62,
      "hit": false,
      "t": 232153.11099999357,
      "d": 153.8456666666607,
      "v": 46
    },
    {
      "midi": 58,
      "hit": false,
      "t": 232153.11099999357,
      "d": 177.8840520833328,
      "v": 35
    },
    {
      "midi": 55,
      "hit": false,
      "t": 232157.9186770769,
      "d": 124.99960416665999,
      "v": 47
    },
    {
      "midi": 58,
      "hit": false,
      "t": 232609.84032291023,
      "d": 91.34586458330159,
      "v": 45
    },
    {
      "midi": 55,
      "hit": false,
      "t": 232624.2633541602,
      "d": 28.8460625000007,
      "v": 47
    },
    {
      "midi": 48,
      "hit": false,
      "t": 232624.2633541602,
      "d": 33.6537395833293,
      "v": 48
    },
    {
      "midi": 62,
      "hit": false,
      "t": 232624.2633541602,
      "d": 76.9228333333158,
      "v": 53
    },
    {
      "midi": 65,
      "hit": false,
      "t": 232624.2633541602,
      "d": 96.1535416666593,
      "v": 38
    },
    {
      "midi": 69,
      "hit": false,
      "t": 232927.1470104102,
      "d": 100.96121874998789,
      "v": 74
    },
    {
      "midi": 62,
      "hit": false,
      "t": 232931.95468749353,
      "d": 120.1919270833314,
      "v": 77
    },
    {
      "midi": 66,
      "hit": false,
      "t": 232931.95468749353,
      "d": 134.6149583333172,
      "v": 60
    },
    {
      "midi": 58,
      "hit": false,
      "t": 232941.5700416602,
      "d": 124.99960416665999,
      "v": 62
    },
    {
      "midi": 58,
      "hit": false,
      "t": 233124.26177082685,
      "d": 139.4226354166458,
      "v": 37
    },
    {
      "midi": 69,
      "hit": false,
      "t": 233133.8771249935,
      "d": 110.57657291664509,
      "v": 59
    },
    {
      "midi": 66,
      "hit": false,
      "t": 233133.8771249935,
      "d": 129.8072812499886,
      "v": 42
    },
    {
      "midi": 62,
      "hit": false,
      "t": 233138.68480207684,
      "d": 100.96121874998789,
      "v": 62
    },
    {
      "midi": 58,
      "hit": false,
      "t": 233379.0686562435,
      "d": 100.96121874995879,
      "v": 56
    },
    {
      "midi": 66,
      "hit": false,
      "t": 233388.68401041016,
      "d": 110.57657291661599,
      "v": 56
    },
    {
      "midi": 62,
      "hit": false,
      "t": 233393.4916874935,
      "d": 76.9228333333158,
      "v": 74
    },
    {
      "midi": 69,
      "hit": false,
      "t": 233398.29936457681,
      "d": 67.3074791666586,
      "v": 62
    },
    {
      "midi": 58,
      "hit": false,
      "t": 233580.99109374345,
      "d": 91.34586458327249,
      "v": 39
    },
    {
      "midi": 66,
      "hit": false,
      "t": 233590.6064479101,
      "d": 96.15354166660109,
      "v": 43
    },
    {
      "midi": 69,
      "hit": false,
      "t": 233595.41412499343,
      "d": 57.69212499997229,
      "v": 39
    },
    {
      "midi": 62,
      "hit": false,
      "t": 233600.22180207676,
      "d": 57.69212499997229,
      "v": 54
    },
    {
      "midi": 52,
      "hit": false,
      "t": 233609.83715624342,
      "d": 28.8460625000007,
      "v": 29
    },
    {
      "midi": 58,
      "hit": false,
      "t": 233855.02868749338,
      "d": 86.53818749997299,
      "v": 60
    },
    {
      "midi": 66,
      "hit": false,
      "t": 233859.8363645767,
      "d": 149.037989583303,
      "v": 52
    },
    {
      "midi": 62,
      "hit": false,
      "t": 233864.64404166004,
      "d": 129.8072812499886,
      "v": 71
    },
    {
      "midi": 69,
      "hit": false,
      "t": 233869.45171874337,
      "d": 100.96121874998789,
      "v": 60
    },
    {
      "midi": 52,
      "hit": false,
      "t": 233874.2593958267,
      "d": 38.4614166666579,
      "v": 50
    },
    {
      "midi": 48,
      "hit": false,
      "t": 234287.71962499336,
      "d": 28.846062499971595,
      "v": 59
    },
    {
      "midi": 65,
      "hit": false,
      "t": 234292.5273020767,
      "d": 33.653739583300194,
      "v": 55
    },
    {
      "midi": 60,
      "hit": false,
      "t": 234292.5273020767,
      "d": 48.07677083328599,
      "v": 58
    },
    {
      "midi": 62,
      "hit": false,
      "t": 234297.33497916002,
      "d": 38.46141666662879,
      "v": 47
    },
    {
      "midi": 57,
      "hit": false,
      "t": 234302.14265624335,
      "d": 24.038385416642996,
      "v": 45
    },
    {
      "midi": 41,
      "hit": false,
      "t": 234311.75801041,
      "d": 38.46141666662879,
      "v": 26
    },
    {
      "midi": 45,
      "hit": false,
      "t": 234715.60288540996,
      "d": 533.6521562499984,
      "v": 82
    },
    {
      "midi": 58,
      "hit": false,
      "t": 235350.21626040994,
      "d": 124.99960416665999,
      "v": 38
    },
    {
      "midi": 46,
      "hit": false,
      "t": 235355.02393749327,
      "d": 96.1535416666593,
      "v": 35
    },
    {
      "midi": 47,
      "hit": false,
      "t": 235821.3686145766,
      "d": 91.3458645833307,
      "v": 42
    },
    {
      "midi": 59,
      "hit": false,
      "t": 235821.3686145766,
      "d": 100.96121874998789,
      "v": 45
    },
    {
      "midi": 60,
      "hit": false,
      "t": 236273.29026040994,
      "d": 182.6917291666614,
      "v": 49
    },
    {
      "midi": 48,
      "hit": false,
      "t": 236278.09793749326,
      "d": 144.2303125000035,
      "v": 33
    },
    {
      "midi": 41,
      "hit": false,
      "t": 236980.0187916599,
      "d": 1610.5718229166814,
      "v": 50
    },
    {
      "midi": 48,
      "hit": false,
      "t": 237028.09556249325,
      "d": 1567.3027291666658,
      "v": 37
    },
    {
      "midi": 62,
      "hit": false,
      "t": 237052.13394790993,
      "d": 105.76889583331649,
      "v": 49
    },
    {
      "midi": 57,
      "hit": false,
      "t": 237080.98001040993,
      "d": 1490.379895833321,
      "v": 50
    },
    {
      "midi": 67,
      "hit": false,
      "t": 237114.63374999326,
      "d": 120.1919270833314,
      "v": 52
    },
    {
      "midi": 71,
      "hit": false,
      "t": 237186.74890624324,
      "d": 86.5381875000021,
      "v": 56
    },
    {
      "midi": 74,
      "hit": false,
      "t": 237282.9024479099,
      "d": 24.0383854166721,
      "v": 58
    },
    {
      "midi": 79,
      "hit": false,
      "t": 237369.4406354099,
      "d": 86.5381875000021,
      "v": 68
    },
    {
      "midi": 83,
      "hit": false,
      "t": 237518.47862499324,
      "d": 33.6537395833293,
      "v": 66
    },
    {
      "midi": 86,
      "hit": false,
      "t": 237657.9012604099,
      "d": 33.6537395833293,
      "v": 61
    },
    {
      "midi": 91,
      "hit": false,
      "t": 237826.1699583266,
      "d": 33.6537395833293,
      "v": 53
    },
    {
      "midi": 95,
      "hit": false,
      "t": 237994.43865624326,
      "d": 33.6537395833293,
      "v": 53
    },
    {
      "midi": 98,
      "hit": false,
      "t": 238157.89967707658,
      "d": 48.0767708333442,
      "v": 57
    },
    {
      "midi": 103,
      "hit": false,
      "t": 238355.01443749326,
      "d": 177.8840520833328,
      "v": 41
    }
  ]
}