{
  "jsonPath": "Latin/Latin/Edith Márquez/juramentos.json",
  "path": "Latin\\Latin\\Edith Márquez\\Juramentos.mid",
  "name": "Juramentos",
  "difficulty": "Advanced",
  "bpm": 90.00171003249062,
  "notes": [
    {
      "midi": 76,
      "hit": false,
      "t": 21332.927999999996,
      "d": 758.3189250000032,
      "v": 89
    },
    {
      "midi": 57,
      "hit": false,
      "t": 21332.927999999996,
      "d": 2649.949650000006,
      "v": 78
    },
    {
      "midi": 69,
      "hit": false,
      "t": 21666.254999999997,
      "d": 649.9876500000028,
      "v": 49
    },
    {
      "midi": 73,
      "hit": false,
      "t": 21999.582,
      "d": 705.5421500000011,
      "v": 69
    },
    {
      "midi": 69,
      "hit": false,
      "t": 22332.909,
      "d": 649.9876499999991,
      "v": 40
    },
    {
      "midi": 76,
      "hit": false,
      "t": 22666.236,
      "d": 670.8205874999985,
      "v": 84
    },
    {
      "midi": 69,
      "hit": false,
      "t": 22999.563,
      "d": 649.9876500000028,
      "v": 48
    },
    {
      "midi": 73,
      "hit": false,
      "t": 23332.89,
      "d": 1316.641650000005,
      "v": 69
    },
    {
      "midi": 69,
      "hit": false,
      "t": 23666.217,
      "d": 649.9876500000028,
      "v": 42
    },
    {
      "midi": 76,
      "hit": false,
      "t": 23999.544,
      "d": 649.9876500000028,
      "v": 77
    },
    {
      "midi": 61,
      "hit": false,
      "t": 23999.544,
      "d": 2705.5041500000007,
      "v": 55
    },
    {
      "midi": 68,
      "hit": false,
      "t": 24332.871000000003,
      "d": 649.9876500000028,
      "v": 43
    },
    {
      "midi": 73,
      "hit": false,
      "t": 24666.198000000004,
      "d": 716.6530500000008,
      "v": 68
    },
    {
      "midi": 68,
      "hit": false,
      "t": 24999.525000000005,
      "d": 649.9876499999991,
      "v": 48
    },
    {
      "midi": 76,
      "hit": false,
      "t": 25332.852000000006,
      "d": 705.5421499999975,
      "v": 72
    },
    {
      "midi": 68,
      "hit": false,
      "t": 25666.179000000004,
      "d": 649.9876499999991,
      "v": 41
    },
    {
      "midi": 73,
      "hit": false,
      "t": 25999.506000000005,
      "d": 649.9876499999991,
      "v": 68
    },
    {
      "midi": 68,
      "hit": false,
      "t": 26332.833000000002,
      "d": 649.9876499999991,
      "v": 36
    },
    {
      "midi": 76,
      "hit": false,
      "t": 26666.160000000003,
      "d": 649.9876499999991,
      "v": 70
    },
    {
      "midi": 64,
      "hit": false,
      "t": 26666.160000000003,
      "d": 1983.2956500000037,
      "v": 68
    },
    {
      "midi": 68,
      "hit": false,
      "t": 26999.487,
      "d": 649.9876500000028,
      "v": 39
    },
    {
      "midi": 71,
      "hit": false,
      "t": 27332.814000000002,
      "d": 670.8205875000021,
      "v": 62
    },
    {
      "midi": 68,
      "hit": false,
      "t": 27666.141000000003,
      "d": 649.9876500000028,
      "v": 35
    },
    {
      "midi": 76,
      "hit": false,
      "t": 27999.468000000004,
      "d": 649.9876500000028,
      "v": 73
    },
    {
      "midi": 68,
      "hit": false,
      "t": 28332.795000000006,
      "d": 649.9876500000028,
      "v": 30
    },
    {
      "midi": 52,
      "hit": false,
      "t": 28666.122000000007,
      "d": 649.9876500000028,
      "v": 60
    },
    {
      "midi": 71,
      "hit": false,
      "t": 28666.122000000007,
      "d": 649.9876500000028,
      "v": 67
    },
    {
      "midi": 68,
      "hit": false,
      "t": 28999.449000000008,
      "d": 649.9876500000028,
      "v": 34
    },
    {
      "midi": 76,
      "hit": false,
      "t": 29332.77600000001,
      "d": 649.9876500000028,
      "v": 71
    },
    {
      "midi": 57,
      "hit": false,
      "t": 29332.77600000001,
      "d": 2649.949650000006,
      "v": 79
    },
    {
      "midi": 69,
      "hit": false,
      "t": 29666.10300000001,
      "d": 649.9876500000028,
      "v": 39
    },
    {
      "midi": 73,
      "hit": false,
      "t": 29999.43000000001,
      "d": 726.3750875000005,
      "v": 67
    },
    {
      "midi": 69,
      "hit": false,
      "t": 30332.757000000012,
      "d": 649.9876499999991,
      "v": 51
    },
    {
      "midi": 76,
      "hit": false,
      "t": 30666.084000000013,
      "d": 649.9876499999991,
      "v": 70
    },
    {
      "midi": 69,
      "hit": false,
      "t": 30999.41100000001,
      "d": 649.9876500000028,
      "v": 50
    },
    {
      "midi": 73,
      "hit": false,
      "t": 31332.738000000012,
      "d": 649.9876500000028,
      "v": 63
    },
    {
      "midi": 69,
      "hit": false,
      "t": 31666.065000000013,
      "d": 649.9876500000028,
      "v": 35
    },
    {
      "midi": 76,
      "hit": false,
      "t": 31999.392000000014,
      "d": 758.3189250000032,
      "v": 86
    },
    {
      "midi": 57,
      "hit": false,
      "t": 31999.392000000014,
      "d": 2649.949649999995,
      "v": 65
    },
    {
      "midi": 69,
      "hit": false,
      "t": 32332.719000000016,
      "d": 649.9876499999991,
      "v": 52
    },
    {
      "midi": 73,
      "hit": false,
      "t": 32666.046000000017,
      "d": 705.5421499999939,
      "v": 63
    },
    {
      "midi": 69,
      "hit": false,
      "t": 32999.373000000014,
      "d": 649.9876499999955,
      "v": 36
    },
    {
      "midi": 76,
      "hit": false,
      "t": 33332.70000000001,
      "d": 670.8205874999985,
      "v": 83
    },
    {
      "midi": 69,
      "hit": false,
      "t": 33666.02700000001,
      "d": 649.9876500000028,
      "v": 47
    },
    {
      "midi": 73,
      "hit": false,
      "t": 33999.35400000001,
      "d": 1316.6416499999978,
      "v": 67
    },
    {
      "midi": 69,
      "hit": false,
      "t": 34332.68100000001,
      "d": 649.9876499999955,
      "v": 41
    },
    {
      "midi": 76,
      "hit": false,
      "t": 34666.00800000001,
      "d": 649.9876499999955,
      "v": 70
    },
    {
      "midi": 61,
      "hit": false,
      "t": 34666.00800000001,
      "d": 2649.9496499999805,
      "v": 61
    },
    {
      "midi": 68,
      "hit": false,
      "t": 34999.33500000001,
      "d": 649.9876499999955,
      "v": 44
    },
    {
      "midi": 73,
      "hit": false,
      "t": 35332.662000000004,
      "d": 716.6530499999935,
      "v": 67
    },
    {
      "midi": 68,
      "hit": false,
      "t": 35665.989,
      "d": 649.9876499999955,
      "v": 47
    },
    {
      "midi": 76,
      "hit": false,
      "t": 35999.316,
      "d": 705.5421499999939,
      "v": 74
    },
    {
      "midi": 68,
      "hit": false,
      "t": 36332.643,
      "d": 649.9876499999955,
      "v": 39
    },
    {
      "midi": 73,
      "hit": false,
      "t": 36665.969999999994,
      "d": 649.9876499999955,
      "v": 67
    },
    {
      "midi": 68,
      "hit": false,
      "t": 36999.29699999999,
      "d": 649.9876499999955,
      "v": 36
    },
    {
      "midi": 78,
      "hit": false,
      "t": 37332.62399999999,
      "d": 649.9876499999955,
      "v": 73
    },
    {
      "midi": 62,
      "hit": false,
      "t": 37332.62399999999,
      "d": 1983.2956499999927,
      "v": 65
    },
    {
      "midi": 69,
      "hit": false,
      "t": 37665.95099999999,
      "d": 649.9876499999955,
      "v": 37
    },
    {
      "midi": 74,
      "hit": false,
      "t": 37999.277999999984,
      "d": 670.8205874999985,
      "v": 59
    },
    {
      "midi": 69,
      "hit": false,
      "t": 38332.60499999998,
      "d": 649.9876500000028,
      "v": 37
    },
    {
      "midi": 78,
      "hit": false,
      "t": 38665.93199999998,
      "d": 649.9876500000028,
      "v": 71
    },
    {
      "midi": 69,
      "hit": false,
      "t": 38999.258999999984,
      "d": 649.9876499999955,
      "v": 35
    },
    {
      "midi": 62,
      "hit": false,
      "t": 39332.58599999998,
      "d": 649.9876499999955,
      "v": 55
    },
    {
      "midi": 74,
      "hit": false,
      "t": 39332.58599999998,
      "d": 649.9876499999955,
      "v": 70
    },
    {
      "midi": 69,
      "hit": false,
      "t": 39665.91299999998,
      "d": 649.9876499999955,
      "v": 27
    },
    {
      "midi": 52,
      "hit": false,
      "t": 39999.239999999976,
      "d": 2649.9496500000023,
      "v": 86
    },
    {
      "midi": 59,
      "hit": false,
      "t": 40332.56699999997,
      "d": 879.1499624999997,
      "v": 73
    },
    {
      "midi": 64,
      "hit": false,
      "t": 40665.89399999997,
      "d": 494.43505000000005,
      "v": 66
    },
    {
      "midi": 69,
      "hit": false,
      "t": 40999.22099999997,
      "d": 327.77155000000494,
      "v": 98
    },
    {
      "midi": 68,
      "hit": false,
      "t": 41332.54799999997,
      "d": 393.0480874999994,
      "v": 93
    },
    {
      "midi": 64,
      "hit": false,
      "t": 41665.87499999997,
      "d": 483.32415000000765,
      "v": 86
    },
    {
      "midi": 59,
      "hit": false,
      "t": 41999.201999999976,
      "d": 649.9876500000028,
      "v": 78
    },
    {
      "midi": 56,
      "hit": false,
      "t": 42332.52899999998,
      "d": 316.660649999998,
      "v": 42
    },
    {
      "midi": 47,
      "hit": false,
      "t": 42665.85599999998,
      "d": 2619.3946749999814,
      "v": 88
    },
    {
      "midi": 54,
      "hit": false,
      "t": 42999.182999999975,
      "d": 2302.7340249999834,
      "v": 72
    },
    {
      "midi": 59,
      "hit": false,
      "t": 43332.50999999997,
      "d": 1399.973399999988,
      "v": 70
    },
    {
      "midi": 66,
      "hit": false,
      "t": 43665.83699999997,
      "d": 531.9343374999953,
      "v": 89
    },
    {
      "midi": 71,
      "hit": false,
      "t": 43999.16399999997,
      "d": 1487.4717374999964,
      "v": 103
    },
    {
      "midi": 66,
      "hit": false,
      "t": 44332.490999999965,
      "d": 1147.2004249999954,
      "v": 94
    },
    {
      "midi": 62,
      "hit": false,
      "t": 44665.81799999996,
      "d": 802.7625249999983,
      "v": 88
    },
    {
      "midi": 59,
      "hit": false,
      "t": 44999.14499999996,
      "d": 480.54642500000045,
      "v": 70
    },
    {
      "midi": 40,
      "hit": false,
      "t": 45332.47199999996,
      "d": 1163.8667750000022,
      "v": 74
    },
    {
      "midi": 52,
      "hit": false,
      "t": 45665.79899999996,
      "d": 1786.0771749999985,
      "v": 72
    },
    {
      "midi": 59,
      "hit": false,
      "t": 45999.12599999996,
      "d": 983.3146500000003,
      "v": 80
    },
    {
      "midi": 69,
      "hit": false,
      "t": 46332.45299999996,
      "d": 726.3750875000042,
      "v": 93
    },
    {
      "midi": 68,
      "hit": false,
      "t": 46665.77999999996,
      "d": 1168.0333624999985,
      "v": 76
    },
    {
      "midi": 64,
      "hit": false,
      "t": 46999.10699999996,
      "d": 918.0381124999985,
      "v": 75
    },
    {
      "midi": 59,
      "hit": false,
      "t": 47332.433999999965,
      "d": 605.5440499999968,
      "v": 67
    },
    {
      "midi": 52,
      "hit": false,
      "t": 47665.76099999996,
      "d": 466.65780000000086,
      "v": 72
    },
    {
      "midi": 45,
      "hit": false,
      "t": 47999.08799999996,
      "d": 2649.9496500000023,
      "v": 84
    },
    {
      "midi": 57,
      "hit": false,
      "t": 48332.414999999964,
      "d": 1570.8034874999867,
      "v": 71
    },
    {
      "midi": 61,
      "hit": false,
      "t": 48665.74199999996,
      "d": 931.9267374999908,
      "v": 75
    },
    {
      "midi": 64,
      "hit": false,
      "t": 48999.06899999996,
      "d": 369.43742499999644,
      "v": 84
    },
    {
      "midi": 69,
      "hit": false,
      "t": 49332.39599999996,
      "d": 1073.5907125000012,
      "v": 83
    },
    {
      "midi": 64,
      "hit": false,
      "t": 49665.722999999954,
      "d": 379.1594624999998,
      "v": 78
    },
    {
      "midi": 61,
      "hit": false,
      "t": 49999.04999999995,
      "d": 480.54642500000773,
      "v": 66
    },
    {
      "midi": 57,
      "hit": false,
      "t": 50332.37699999996,
      "d": 365.2708375000075,
      "v": 56
    },
    {
      "midi": 50,
      "hit": false,
      "t": 50665.70399999996,
      "d": 2427.731650000016,
      "v": 83
    },
    {
      "midi": 57,
      "hit": false,
      "t": 50999.030999999966,
      "d": 987.4812374999965,
      "v": 72
    },
    {
      "midi": 62,
      "hit": false,
      "t": 51332.357999999964,
      "d": 668.0428625000059,
      "v": 67
    },
    {
      "midi": 67,
      "hit": false,
      "t": 51665.68499999996,
      "d": 1511.0824000000139,
      "v": 95
    },
    {
      "midi": 66,
      "hit": false,
      "t": 51999.011999999966,
      "d": 362.49311250000756,
      "v": 72
    },
    {
      "midi": 64,
      "hit": false,
      "t": 52332.33899999997,
      "d": 344.43790000000445,
      "v": 82
    },
    {
      "midi": 62,
      "hit": false,
      "t": 52665.665999999976,
      "d": 494.43505000000005,
      "v": 87
    },
    {
      "midi": 45,
      "hit": false,
      "t": 53332.31999999998,
      "d": 2279.1233624999877,
      "v": 82
    },
    {
      "midi": 52,
      "hit": false,
      "t": 53665.646999999975,
      "d": 1918.019112499991,
      "v": 69
    },
    {
      "midi": 57,
      "hit": false,
      "t": 53998.97399999997,
      "d": 1473.5831124999968,
      "v": 78
    },
    {
      "midi": 61,
      "hit": false,
      "t": 54332.30099999997,
      "d": 698.5978374999977,
      "v": 77
    },
    {
      "midi": 69,
      "hit": false,
      "t": 54665.62799999997,
      "d": 1476.3608374999967,
      "v": 88
    },
    {
      "midi": 64,
      "hit": false,
      "t": 54998.954999999965,
      "d": 924.982425000002,
      "v": 84
    },
    {
      "midi": 61,
      "hit": false,
      "t": 55332.28199999997,
      "d": 556.9338624999946,
      "v": 79
    },
    {
      "midi": 57,
      "hit": false,
      "t": 55665.60899999997,
      "d": 261.1061499999996,
      "v": 68
    },
    {
      "midi": 54,
      "hit": false,
      "t": 55998.935999999965,
      "d": 2677.7269000000015,
      "v": 62
    },
    {
      "midi": 61,
      "hit": false,
      "t": 56332.26299999996,
      "d": 2320.7892374999938,
      "v": 74
    },
    {
      "midi": 66,
      "hit": false,
      "t": 56665.58999999996,
      "d": 1251.365112499996,
      "v": 62
    },
    {
      "midi": 73,
      "hit": false,
      "t": 56998.91699999996,
      "d": 438.8805499999944,
      "v": 89
    },
    {
      "midi": 78,
      "hit": false,
      "t": 57332.243999999955,
      "d": 1087.4793375000008,
      "v": 94
    },
    {
      "midi": 73,
      "hit": false,
      "t": 57665.57099999995,
      "d": 768.0409625000029,
      "v": 79
    },
    {
      "midi": 69,
      "hit": false,
      "t": 57998.89799999996,
      "d": 393.0480874999994,
      "v": 74
    },
    {
      "midi": 66,
      "hit": false,
      "t": 58332.224999999955,
      "d": 337.4935875000083,
      "v": 62
    },
    {
      "midi": 49,
      "hit": false,
      "t": 58665.55199999996,
      "d": 2268.012462499988,
      "v": 72
    },
    {
      "midi": 61,
      "hit": false,
      "t": 58998.878999999964,
      "d": 1774.9662749999843,
      "v": 74
    },
    {
      "midi": 64,
      "hit": false,
      "t": 59332.20599999996,
      "d": 1115.2565874999927,
      "v": 70
    },
    {
      "midi": 68,
      "hit": false,
      "t": 59665.53299999996,
      "d": 462.49121249999735,
      "v": 82
    },
    {
      "midi": 73,
      "hit": false,
      "t": 59998.85999999996,
      "d": 997.2032749999926,
      "v": 80
    },
    {
      "midi": 68,
      "hit": false,
      "t": 60332.186999999954,
      "d": 786.0961749999915,
      "v": 83
    },
    {
      "midi": 64,
      "hit": false,
      "t": 60665.51399999995,
      "d": 469.4355249999935,
      "v": 66
    },
    {
      "midi": 61,
      "hit": false,
      "t": 60998.84099999995,
      "d": 309.71633749999455,
      "v": 60
    },
    {
      "midi": 59,
      "hit": false,
      "t": 61332.16799999995,
      "d": 2295.7897125000018,
      "v": 77
    },
    {
      "midi": 52,
      "hit": false,
      "t": 61332.16799999995,
      "d": 2323.566962500001,
      "v": 72
    },
    {
      "midi": 64,
      "hit": false,
      "t": 61332.16799999995,
      "d": 2323.566962500001,
      "v": 62
    },
    {
      "midi": 57,
      "hit": false,
      "t": 74665.24799999995,
      "d": 649.9876499999955,
      "v": 69
    },
    {
      "midi": 62,
      "hit": false,
      "t": 74665.24799999995,
      "d": 649.9876499999955,
      "v": 76
    },
    {
      "midi": 66,
      "hit": false,
      "t": 74665.24799999995,
      "d": 649.9876499999955,
      "v": 71
    },
    {
      "midi": 57,
      "hit": false,
      "t": 75331.90199999994,
      "d": 649.9876499999955,
      "v": 69
    },
    {
      "midi": 62,
      "hit": false,
      "t": 75331.90199999994,
      "d": 649.9876499999955,
      "v": 80
    },
    {
      "midi": 66,
      "hit": false,
      "t": 75331.90199999994,
      "d": 649.9876499999955,
      "v": 80
    },
    {
      "midi": 57,
      "hit": false,
      "t": 75998.55599999994,
      "d": 649.9876499999955,
      "v": 64
    },
    {
      "midi": 61,
      "hit": false,
      "t": 75998.55599999994,
      "d": 649.9876499999955,
      "v": 79
    },
    {
      "midi": 66,
      "hit": false,
      "t": 75998.55599999994,
      "d": 649.9876499999955,
      "v": 84
    },
    {
      "midi": 57,
      "hit": false,
      "t": 76665.20999999993,
      "d": 649.9876499999955,
      "v": 71
    },
    {
      "midi": 61,
      "hit": false,
      "t": 76665.20999999993,
      "d": 649.9876499999955,
      "v": 76
    },
    {
      "midi": 66,
      "hit": false,
      "t": 76665.20999999993,
      "d": 649.9876499999955,
      "v": 77
    },
    {
      "midi": 56,
      "hit": false,
      "t": 77331.86399999993,
      "d": 649.9876499999955,
      "v": 73
    },
    {
      "midi": 61,
      "hit": false,
      "t": 77331.86399999993,
      "d": 649.9876499999955,
      "v": 76
    },
    {
      "midi": 64,
      "hit": false,
      "t": 77331.86399999993,
      "d": 649.9876499999955,
      "v": 77
    },
    {
      "midi": 56,
      "hit": false,
      "t": 77998.51799999992,
      "d": 649.9876499999955,
      "v": 74
    },
    {
      "midi": 61,
      "hit": false,
      "t": 77998.51799999992,
      "d": 649.9876499999955,
      "v": 71
    },
    {
      "midi": 64,
      "hit": false,
      "t": 77998.51799999992,
      "d": 649.9876499999955,
      "v": 78
    },
    {
      "midi": 57,
      "hit": false,
      "t": 78665.17199999992,
      "d": 649.9876499999955,
      "v": 67
    },
    {
      "midi": 61,
      "hit": false,
      "t": 78665.17199999992,
      "d": 649.9876499999955,
      "v": 68
    },
    {
      "midi": 66,
      "hit": false,
      "t": 78665.17199999992,
      "d": 649.9876499999955,
      "v": 72
    },
    {
      "midi": 57,
      "hit": false,
      "t": 79331.82599999991,
      "d": 649.9876499999955,
      "v": 75
    },
    {
      "midi": 61,
      "hit": false,
      "t": 79331.82599999991,
      "d": 649.9876499999955,
      "v": 77
    },
    {
      "midi": 66,
      "hit": false,
      "t": 79331.82599999991,
      "d": 649.9876499999955,
      "v": 77
    },
    {
      "midi": 57,
      "hit": false,
      "t": 79998.47999999991,
      "d": 316.66065000000526,
      "v": 72
    },
    {
      "midi": 61,
      "hit": false,
      "t": 79998.47999999991,
      "d": 649.98765000001,
      "v": 75
    },
    {
      "midi": 64,
      "hit": false,
      "t": 79998.47999999991,
      "d": 649.98765000001,
      "v": 71
    },
    {
      "midi": 57,
      "hit": false,
      "t": 80331.80699999991,
      "d": 316.66065000000526,
      "v": 64
    },
    {
      "midi": 57,
      "hit": false,
      "t": 80665.13399999992,
      "d": 649.9876499999955,
      "v": 76
    },
    {
      "midi": 61,
      "hit": false,
      "t": 80665.13399999992,
      "d": 649.9876499999955,
      "v": 78
    },
    {
      "midi": 64,
      "hit": false,
      "t": 80665.13399999992,
      "d": 649.9876499999955,
      "v": 74
    },
    {
      "midi": 57,
      "hit": false,
      "t": 81331.78799999991,
      "d": 316.66065000000526,
      "v": 70
    },
    {
      "midi": 61,
      "hit": false,
      "t": 81331.78799999991,
      "d": 649.98765000001,
      "v": 70
    },
    {
      "midi": 64,
      "hit": false,
      "t": 81331.78799999991,
      "d": 649.98765000001,
      "v": 68
    },
    {
      "midi": 57,
      "hit": false,
      "t": 81665.11499999992,
      "d": 316.66065000000526,
      "v": 67
    },
    {
      "midi": 57,
      "hit": false,
      "t": 81998.44199999992,
      "d": 316.66065000000526,
      "v": 79
    },
    {
      "midi": 61,
      "hit": false,
      "t": 81998.44199999992,
      "d": 649.98765000001,
      "v": 75
    },
    {
      "midi": 64,
      "hit": false,
      "t": 81998.44199999992,
      "d": 649.98765000001,
      "v": 77
    },
    {
      "midi": 57,
      "hit": false,
      "t": 82331.76899999993,
      "d": 316.66065000000526,
      "v": 59
    },
    {
      "midi": 59,
      "hit": false,
      "t": 82665.09599999993,
      "d": 649.9876499999955,
      "v": 70
    },
    {
      "midi": 62,
      "hit": false,
      "t": 82665.09599999993,
      "d": 649.9876499999955,
      "v": 73
    },
    {
      "midi": 66,
      "hit": false,
      "t": 82665.09599999993,
      "d": 649.9876499999955,
      "v": 79
    },
    {
      "midi": 59,
      "hit": false,
      "t": 83331.74999999993,
      "d": 316.66065000000526,
      "v": 70
    },
    {
      "midi": 62,
      "hit": false,
      "t": 83331.74999999993,
      "d": 649.98765000001,
      "v": 76
    },
    {
      "midi": 66,
      "hit": false,
      "t": 83331.74999999993,
      "d": 649.98765000001,
      "v": 76
    },
    {
      "midi": 59,
      "hit": false,
      "t": 83665.07699999993,
      "d": 316.66065000000526,
      "v": 67
    },
    {
      "midi": 59,
      "hit": false,
      "t": 83998.40399999994,
      "d": 649.9876499999955,
      "v": 70
    },
    {
      "midi": 62,
      "hit": false,
      "t": 83998.40399999994,
      "d": 649.9876499999955,
      "v": 70
    },
    {
      "midi": 66,
      "hit": false,
      "t": 83998.40399999994,
      "d": 649.9876499999955,
      "v": 72
    },
    {
      "midi": 59,
      "hit": false,
      "t": 84665.05799999993,
      "d": 649.9876499999955,
      "v": 68
    },
    {
      "midi": 62,
      "hit": false,
      "t": 84665.05799999993,
      "d": 649.9876499999955,
      "v": 69
    },
    {
      "midi": 66,
      "hit": false,
      "t": 84665.05799999993,
      "d": 649.9876499999955,
      "v": 75
    },
    {
      "midi": 57,
      "hit": false,
      "t": 85331.71199999993,
      "d": 649.9876499999955,
      "v": 67
    },
    {
      "midi": 61,
      "hit": false,
      "t": 85331.71199999993,
      "d": 649.9876499999955,
      "v": 74
    },
    {
      "midi": 64,
      "hit": false,
      "t": 85331.71199999993,
      "d": 649.9876499999955,
      "v": 69
    },
    {
      "midi": 57,
      "hit": false,
      "t": 85998.36599999992,
      "d": 316.66065000000526,
      "v": 71
    },
    {
      "midi": 61,
      "hit": false,
      "t": 85998.36599999992,
      "d": 649.98765000001,
      "v": 74
    },
    {
      "midi": 64,
      "hit": false,
      "t": 85998.36599999992,
      "d": 649.98765000001,
      "v": 72
    },
    {
      "midi": 57,
      "hit": false,
      "t": 86331.69299999993,
      "d": 316.66065000000526,
      "v": 64
    },
    {
      "midi": 57,
      "hit": false,
      "t": 86665.01999999993,
      "d": 649.9876499999955,
      "v": 76
    },
    {
      "midi": 61,
      "hit": false,
      "t": 86665.01999999993,
      "d": 649.9876499999955,
      "v": 70
    },
    {
      "midi": 64,
      "hit": false,
      "t": 86665.01999999993,
      "d": 649.9876499999955,
      "v": 73
    },
    {
      "midi": 57,
      "hit": false,
      "t": 87331.67399999993,
      "d": 316.66065000000526,
      "v": 74
    },
    {
      "midi": 61,
      "hit": false,
      "t": 87331.67399999993,
      "d": 649.98765000001,
      "v": 68
    },
    {
      "midi": 64,
      "hit": false,
      "t": 87331.67399999993,
      "d": 649.98765000001,
      "v": 70
    },
    {
      "midi": 57,
      "hit": false,
      "t": 87665.00099999993,
      "d": 316.66065000000526,
      "v": 62
    },
    {
      "midi": 57,
      "hit": false,
      "t": 87998.32799999994,
      "d": 649.9876499999955,
      "v": 71
    },
    {
      "midi": 61,
      "hit": false,
      "t": 87998.32799999994,
      "d": 649.9876499999955,
      "v": 69
    },
    {
      "midi": 64,
      "hit": false,
      "t": 87998.32799999994,
      "d": 649.9876499999955,
      "v": 75
    },
    {
      "midi": 57,
      "hit": false,
      "t": 88664.98199999993,
      "d": 316.66065000000526,
      "v": 70
    },
    {
      "midi": 61,
      "hit": false,
      "t": 88664.98199999993,
      "d": 649.98765000001,
      "v": 75
    },
    {
      "midi": 64,
      "hit": false,
      "t": 88664.98199999993,
      "d": 649.98765000001,
      "v": 75
    },
    {
      "midi": 57,
      "hit": false,
      "t": 88998.30899999994,
      "d": 316.66065000000526,
      "v": 63
    },
    {
      "midi": 57,
      "hit": false,
      "t": 89331.63599999994,
      "d": 316.66065000000526,
      "v": 76
    },
    {
      "midi": 61,
      "hit": false,
      "t": 89331.63599999994,
      "d": 649.98765000001,
      "v": 72
    },
    {
      "midi": 64,
      "hit": false,
      "t": 89331.63599999994,
      "d": 649.98765000001,
      "v": 76
    },
    {
      "midi": 57,
      "hit": false,
      "t": 89664.96299999995,
      "d": 316.66065000000526,
      "v": 71
    },
    {
      "midi": 57,
      "hit": false,
      "t": 89998.28999999995,
      "d": 649.9876499999955,
      "v": 64
    },
    {
      "midi": 61,
      "hit": false,
      "t": 89998.28999999995,
      "d": 649.9876499999955,
      "v": 62
    },
    {
      "midi": 64,
      "hit": false,
      "t": 89998.28999999995,
      "d": 649.9876499999955,
      "v": 63
    },
    {
      "midi": 57,
      "hit": false,
      "t": 143997.26399999994,
      "d": 649.9876499999955,
      "v": 70
    },
    {
      "midi": 62,
      "hit": false,
      "t": 143997.26399999994,
      "d": 649.9876499999955,
      "v": 76
    },
    {
      "midi": 66,
      "hit": false,
      "t": 143997.26399999994,
      "d": 649.9876499999955,
      "v": 72
    },
    {
      "midi": 57,
      "hit": false,
      "t": 144663.91799999995,
      "d": 649.9876499999955,
      "v": 70
    },
    {
      "midi": 62,
      "hit": false,
      "t": 144663.91799999995,
      "d": 649.9876499999955,
      "v": 84
    },
    {
      "midi": 66,
      "hit": false,
      "t": 144663.91799999995,
      "d": 649.9876499999955,
      "v": 82
    },
    {
      "midi": 57,
      "hit": false,
      "t": 145330.57199999996,
      "d": 649.9876499999955,
      "v": 66
    },
    {
      "midi": 61,
      "hit": false,
      "t": 145330.57199999996,
      "d": 649.9876499999955,
      "v": 82
    },
    {
      "midi": 66,
      "hit": false,
      "t": 145330.57199999996,
      "d": 649.9876499999955,
      "v": 83
    },
    {
      "midi": 57,
      "hit": false,
      "t": 145997.22599999997,
      "d": 649.9876499999955,
      "v": 71
    },
    {
      "midi": 61,
      "hit": false,
      "t": 145997.22599999997,
      "d": 649.9876499999955,
      "v": 78
    },
    {
      "midi": 66,
      "hit": false,
      "t": 145997.22599999997,
      "d": 649.9876499999955,
      "v": 77
    },
    {
      "midi": 56,
      "hit": false,
      "t": 146663.87999999998,
      "d": 649.9876499999955,
      "v": 73
    },
    {
      "midi": 61,
      "hit": false,
      "t": 146663.87999999998,
      "d": 649.9876499999955,
      "v": 77
    },
    {
      "midi": 64,
      "hit": false,
      "t": 146663.87999999998,
      "d": 649.9876499999955,
      "v": 77
    },
    {
      "midi": 56,
      "hit": false,
      "t": 147330.53399999999,
      "d": 649.9876499999955,
      "v": 74
    },
    {
      "midi": 61,
      "hit": false,
      "t": 147330.53399999999,
      "d": 649.9876499999955,
      "v": 72
    },
    {
      "midi": 64,
      "hit": false,
      "t": 147330.53399999999,
      "d": 649.9876499999955,
      "v": 74
    },
    {
      "midi": 57,
      "hit": false,
      "t": 147997.188,
      "d": 649.9876499999955,
      "v": 65
    },
    {
      "midi": 61,
      "hit": false,
      "t": 147997.188,
      "d": 649.9876499999955,
      "v": 71
    },
    {
      "midi": 66,
      "hit": false,
      "t": 147997.188,
      "d": 649.9876499999955,
      "v": 72
    },
    {
      "midi": 57,
      "hit": false,
      "t": 148663.842,
      "d": 649.9876499999955,
      "v": 70
    },
    {
      "midi": 61,
      "hit": false,
      "t": 148663.842,
      "d": 649.9876499999955,
      "v": 72
    },
    {
      "midi": 66,
      "hit": false,
      "t": 148663.842,
      "d": 649.9876499999955,
      "v": 79
    },
    {
      "midi": 57,
      "hit": false,
      "t": 149330.496,
      "d": 316.66065000000526,
      "v": 71
    },
    {
      "midi": 61,
      "hit": false,
      "t": 149330.496,
      "d": 649.9876500000246,
      "v": 72
    },
    {
      "midi": 64,
      "hit": false,
      "t": 149330.496,
      "d": 649.9876500000246,
      "v": 71
    },
    {
      "midi": 57,
      "hit": false,
      "t": 149663.82300000003,
      "d": 316.66065000000526,
      "v": 67
    },
    {
      "midi": 57,
      "hit": false,
      "t": 149997.15000000005,
      "d": 649.9876499999955,
      "v": 72
    },
    {
      "midi": 61,
      "hit": false,
      "t": 149997.15000000005,
      "d": 649.9876499999955,
      "v": 80
    },
    {
      "midi": 64,
      "hit": false,
      "t": 149997.15000000005,
      "d": 649.9876499999955,
      "v": 76
    },
    {
      "midi": 57,
      "hit": false,
      "t": 150663.80400000006,
      "d": 316.66065000000526,
      "v": 70
    },
    {
      "midi": 61,
      "hit": false,
      "t": 150663.80400000006,
      "d": 649.9876500000246,
      "v": 71
    },
    {
      "midi": 64,
      "hit": false,
      "t": 150663.80400000006,
      "d": 649.9876500000246,
      "v": 69
    },
    {
      "midi": 57,
      "hit": false,
      "t": 150997.13100000008,
      "d": 316.66065000000526,
      "v": 71
    },
    {
      "midi": 57,
      "hit": false,
      "t": 151330.4580000001,
      "d": 316.66065000000526,
      "v": 78
    },
    {
      "midi": 61,
      "hit": false,
      "t": 151330.4580000001,
      "d": 649.9876500000246,
      "v": 79
    },
    {
      "midi": 64,
      "hit": false,
      "t": 151330.4580000001,
      "d": 649.9876500000246,
      "v": 73
    },
    {
      "midi": 57,
      "hit": false,
      "t": 151663.78500000012,
      "d": 316.66065000000526,
      "v": 64
    },
    {
      "midi": 59,
      "hit": false,
      "t": 151997.11200000014,
      "d": 649.9876499999955,
      "v": 70
    },
    {
      "midi": 62,
      "hit": false,
      "t": 151997.11200000014,
      "d": 649.9876499999955,
      "v": 71
    },
    {
      "midi": 66,
      "hit": false,
      "t": 151997.11200000014,
      "d": 649.9876499999955,
      "v": 80
    },
    {
      "midi": 59,
      "hit": false,
      "t": 152663.76600000015,
      "d": 316.66065000000526,
      "v": 75
    },
    {
      "midi": 62,
      "hit": false,
      "t": 152663.76600000015,
      "d": 649.9876500000246,
      "v": 74
    },
    {
      "midi": 66,
      "hit": false,
      "t": 152663.76600000015,
      "d": 649.9876500000246,
      "v": 75
    },
    {
      "midi": 59,
      "hit": false,
      "t": 152997.09300000017,
      "d": 316.66065000000526,
      "v": 61
    },
    {
      "midi": 59,
      "hit": false,
      "t": 153330.4200000002,
      "d": 649.9876499999955,
      "v": 74
    },
    {
      "midi": 62,
      "hit": false,
      "t": 153330.4200000002,
      "d": 649.9876499999955,
      "v": 76
    },
    {
      "midi": 66,
      "hit": false,
      "t": 153330.4200000002,
      "d": 649.9876499999955,
      "v": 72
    },
    {
      "midi": 59,
      "hit": false,
      "t": 153997.0740000002,
      "d": 649.9876499999955,
      "v": 74
    },
    {
      "midi": 62,
      "hit": false,
      "t": 153997.0740000002,
      "d": 649.9876499999955,
      "v": 71
    },
    {
      "midi": 66,
      "hit": false,
      "t": 153997.0740000002,
      "d": 649.9876499999955,
      "v": 76
    },
    {
      "midi": 57,
      "hit": false,
      "t": 154663.7280000002,
      "d": 649.9876499999955,
      "v": 67
    },
    {
      "midi": 61,
      "hit": false,
      "t": 154663.7280000002,
      "d": 649.9876499999955,
      "v": 71
    },
    {
      "midi": 64,
      "hit": false,
      "t": 154663.7280000002,
      "d": 649.9876499999955,
      "v": 76
    },
    {
      "midi": 57,
      "hit": false,
      "t": 155330.38200000022,
      "d": 316.66065000000526,
      "v": 71
    },
    {
      "midi": 61,
      "hit": false,
      "t": 155330.38200000022,
      "d": 649.9876500000246,
      "v": 71
    },
    {
      "midi": 64,
      "hit": false,
      "t": 155330.38200000022,
      "d": 649.9876500000246,
      "v": 71
    },
    {
      "midi": 57,
      "hit": false,
      "t": 155663.70900000024,
      "d": 316.66065000000526,
      "v": 66
    },
    {
      "midi": 57,
      "hit": false,
      "t": 155997.03600000025,
      "d": 649.9876499999955,
      "v": 76
    },
    {
      "midi": 61,
      "hit": false,
      "t": 155997.03600000025,
      "d": 649.9876499999955,
      "v": 73
    },
    {
      "midi": 64,
      "hit": false,
      "t": 155997.03600000025,
      "d": 649.9876499999955,
      "v": 76
    },
    {
      "midi": 57,
      "hit": false,
      "t": 156663.69000000026,
      "d": 316.66065000000526,
      "v": 71
    },
    {
      "midi": 61,
      "hit": false,
      "t": 156663.69000000026,
      "d": 649.9876500000246,
      "v": 72
    },
    {
      "midi": 64,
      "hit": false,
      "t": 156663.69000000026,
      "d": 649.9876500000246,
      "v": 69
    },
    {
      "midi": 57,
      "hit": false,
      "t": 156997.01700000028,
      "d": 316.66065000000526,
      "v": 64
    },
    {
      "midi": 57,
      "hit": false,
      "t": 157330.3440000003,
      "d": 649.9876499999955,
      "v": 71
    },
    {
      "midi": 61,
      "hit": false,
      "t": 157330.3440000003,
      "d": 649.9876499999955,
      "v": 73
    },
    {
      "midi": 64,
      "hit": false,
      "t": 157330.3440000003,
      "d": 649.9876499999955,
      "v": 78
    },
    {
      "midi": 57,
      "hit": false,
      "t": 157996.9980000003,
      "d": 316.66065000000526,
      "v": 76
    },
    {
      "midi": 61,
      "hit": false,
      "t": 157996.9980000003,
      "d": 649.9876500000246,
      "v": 68
    },
    {
      "midi": 64,
      "hit": false,
      "t": 157996.9980000003,
      "d": 649.9876500000246,
      "v": 73
    },
    {
      "midi": 57,
      "hit": false,
      "t": 158330.32500000033,
      "d": 316.66065000000526,
      "v": 69
    },
    {
      "midi": 57,
      "hit": false,
      "t": 158663.65200000035,
      "d": 316.66065000000526,
      "v": 72
    },
    {
      "midi": 61,
      "hit": false,
      "t": 158663.65200000035,
      "d": 649.9876500000246,
      "v": 72
    },
    {
      "midi": 64,
      "hit": false,
      "t": 158663.65200000035,
      "d": 649.9876500000246,
      "v": 79
    },
    {
      "midi": 57,
      "hit": false,
      "t": 158996.97900000037,
      "d": 316.66065000000526,
      "v": 70
    },
    {
      "midi": 57,
      "hit": false,
      "t": 159330.3060000004,
      "d": 316.66065000000526,
      "v": 72
    },
    {
      "midi": 61,
      "hit": false,
      "t": 159330.3060000004,
      "d": 649.9876500000246,
      "v": 74
    },
    {
      "midi": 64,
      "hit": false,
      "t": 159330.3060000004,
      "d": 649.9876500000246,
      "v": 73
    },
    {
      "midi": 57,
      "hit": false,
      "t": 159663.6330000004,
      "d": 330.5492749999976,
      "v": 66
    },
    {
      "midi": 57,
      "hit": false,
      "t": 170663.4240000004,
      "d": 649.9876499999955,
      "v": 73
    },
    {
      "midi": 62,
      "hit": false,
      "t": 170663.4240000004,
      "d": 649.9876499999955,
      "v": 76
    },
    {
      "midi": 66,
      "hit": false,
      "t": 170663.4240000004,
      "d": 649.9876499999955,
      "v": 71
    },
    {
      "midi": 57,
      "hit": false,
      "t": 171330.07800000042,
      "d": 649.9876499999955,
      "v": 74
    },
    {
      "midi": 62,
      "hit": false,
      "t": 171330.07800000042,
      "d": 649.9876499999955,
      "v": 81
    },
    {
      "midi": 66,
      "hit": false,
      "t": 171330.07800000042,
      "d": 649.9876499999955,
      "v": 85
    },
    {
      "midi": 57,
      "hit": false,
      "t": 171996.73200000043,
      "d": 649.9876499999955,
      "v": 62
    },
    {
      "midi": 61,
      "hit": false,
      "t": 171996.73200000043,
      "d": 649.9876499999955,
      "v": 81
    },
    {
      "midi": 66,
      "hit": false,
      "t": 171996.73200000043,
      "d": 649.9876499999955,
      "v": 78
    },
    {
      "midi": 57,
      "hit": false,
      "t": 172663.38600000044,
      "d": 649.9876499999955,
      "v": 72
    },
    {
      "midi": 61,
      "hit": false,
      "t": 172663.38600000044,
      "d": 649.9876499999955,
      "v": 74
    },
    {
      "midi": 66,
      "hit": false,
      "t": 172663.38600000044,
      "d": 649.9876499999955,
      "v": 80
    },
    {
      "midi": 56,
      "hit": false,
      "t": 173330.04000000044,
      "d": 649.9876499999955,
      "v": 74
    },
    {
      "midi": 61,
      "hit": false,
      "t": 173330.04000000044,
      "d": 649.9876499999955,
      "v": 77
    },
    {
      "midi": 64,
      "hit": false,
      "t": 173330.04000000044,
      "d": 649.9876499999955,
      "v": 79
    },
    {
      "midi": 56,
      "hit": false,
      "t": 173996.69400000045,
      "d": 649.9876499999955,
      "v": 70
    },
    {
      "midi": 61,
      "hit": false,
      "t": 173996.69400000045,
      "d": 649.9876499999955,
      "v": 76
    },
    {
      "midi": 64,
      "hit": false,
      "t": 173996.69400000045,
      "d": 649.9876499999955,
      "v": 79
    },
    {
      "midi": 57,
      "hit": false,
      "t": 174663.34800000046,
      "d": 649.9876499999955,
      "v": 70
    },
    {
      "midi": 61,
      "hit": false,
      "t": 174663.34800000046,
      "d": 649.9876499999955,
      "v": 71
    },
    {
      "midi": 66,
      "hit": false,
      "t": 174663.34800000046,
      "d": 649.9876499999955,
      "v": 72
    },
    {
      "midi": 57,
      "hit": false,
      "t": 175330.00200000047,
      "d": 649.9876499999955,
      "v": 74
    },
    {
      "midi": 61,
      "hit": false,
      "t": 175330.00200000047,
      "d": 649.9876499999955,
      "v": 78
    },
    {
      "midi": 66,
      "hit": false,
      "t": 175330.00200000047,
      "d": 649.9876499999955,
      "v": 81
    },
    {
      "midi": 57,
      "hit": false,
      "t": 175996.65600000048,
      "d": 316.66065000000526,
      "v": 76
    },
    {
      "midi": 61,
      "hit": false,
      "t": 175996.65600000048,
      "d": 649.9876500000246,
      "v": 75
    },
    {
      "midi": 64,
      "hit": false,
      "t": 175996.65600000048,
      "d": 649.9876500000246,
      "v": 77
    },
    {
      "midi": 57,
      "hit": false,
      "t": 176329.9830000005,
      "d": 316.66065000000526,
      "v": 68
    },
    {
      "midi": 57,
      "hit": false,
      "t": 176663.31000000052,
      "d": 649.9876499999955,
      "v": 76
    },
    {
      "midi": 61,
      "hit": false,
      "t": 176663.31000000052,
      "d": 649.9876499999955,
      "v": 78
    },
    {
      "midi": 64,
      "hit": false,
      "t": 176663.31000000052,
      "d": 649.9876499999955,
      "v": 76
    },
    {
      "midi": 57,
      "hit": false,
      "t": 177329.96400000053,
      "d": 316.66065000000526,
      "v": 71
    },
    {
      "midi": 61,
      "hit": false,
      "t": 177329.96400000053,
      "d": 649.9876500000246,
      "v": 69
    },
    {
      "midi": 64,
      "hit": false,
      "t": 177329.96400000053,
      "d": 649.9876500000246,
      "v": 73
    },
    {
      "midi": 57,
      "hit": false,
      "t": 177663.29100000055,
      "d": 316.66065000000526,
      "v": 67
    },
    {
      "midi": 57,
      "hit": false,
      "t": 177996.61800000057,
      "d": 316.66065000000526,
      "v": 78
    },
    {
      "midi": 61,
      "hit": false,
      "t": 177996.61800000057,
      "d": 649.9876500000246,
      "v": 75
    },
    {
      "midi": 64,
      "hit": false,
      "t": 177996.61800000057,
      "d": 649.9876500000246,
      "v": 74
    },
    {
      "midi": 57,
      "hit": false,
      "t": 178329.9450000006,
      "d": 316.66065000000526,
      "v": 65
    },
    {
      "midi": 59,
      "hit": false,
      "t": 178663.2720000006,
      "d": 649.9876499999955,
      "v": 72
    },
    {
      "midi": 62,
      "hit": false,
      "t": 178663.2720000006,
      "d": 649.9876499999955,
      "v": 71
    },
    {
      "midi": 66,
      "hit": false,
      "t": 178663.2720000006,
      "d": 649.9876499999955,
      "v": 74
    },
    {
      "midi": 59,
      "hit": false,
      "t": 179329.92600000062,
      "d": 316.66065000000526,
      "v": 69
    },
    {
      "midi": 62,
      "hit": false,
      "t": 179329.92600000062,
      "d": 649.9876500000246,
      "v": 70
    },
    {
      "midi": 66,
      "hit": false,
      "t": 179329.92600000062,
      "d": 649.9876500000246,
      "v": 76
    },
    {
      "midi": 59,
      "hit": false,
      "t": 179663.25300000064,
      "d": 316.66065000000526,
      "v": 64
    },
    {
      "midi": 59,
      "hit": false,
      "t": 179996.58000000066,
      "d": 649.9876499999955,
      "v": 74
    },
    {
      "midi": 62,
      "hit": false,
      "t": 179996.58000000066,
      "d": 649.9876499999955,
      "v": 72
    },
    {
      "midi": 66,
      "hit": false,
      "t": 179996.58000000066,
      "d": 649.9876499999955,
      "v": 73
    },
    {
      "midi": 59,
      "hit": false,
      "t": 180663.23400000067,
      "d": 649.9876499999955,
      "v": 68
    },
    {
      "midi": 62,
      "hit": false,
      "t": 180663.23400000067,
      "d": 649.9876499999955,
      "v": 74
    },
    {
      "midi": 66,
      "hit": false,
      "t": 180663.23400000067,
      "d": 649.9876499999955,
      "v": 74
    },
    {
      "midi": 69,
      "hit": false,
      "t": 181329.888,
      "d": 1327.7525500000047,
      "v": 1
    },
    {
      "midi": 68,
      "hit": false,
      "t": 182663.19600000003,
      "d": 1327.7525500000047,
      "v": 1
    },
    {
      "midi": 66,
      "hit": false,
      "t": 183996.50400000004,
      "d": 1327.7525500000047,
      "v": 1
    },
    {
      "midi": 68,
      "hit": false,
      "t": 185329.81200000006,
      "d": 1327.7525500000047,
      "v": 1
    },
    {
      "midi": 69,
      "hit": false,
      "t": 186663.12000000008,
      "d": 1327.7525500000047,
      "v": 1
    },
    {
      "midi": 68,
      "hit": false,
      "t": 187996.4280000001,
      "d": 1327.7525500000047,
      "v": 1
    },
    {
      "midi": 66,
      "hit": false,
      "t": 189329.73600000012,
      "d": 994.4255500000145,
      "v": 1
    },
    {
      "midi": 69,
      "hit": false,
      "t": 190329.71700000015,
      "d": 327.77155000000494,
      "v": 1
    },
    {
      "midi": 68,
      "hit": false,
      "t": 190663.04400000017,
      "d": 994.4255499999854,
      "v": 1
    },
    {
      "midi": 57,
      "hit": false,
      "t": 191663.02500000017,
      "d": 327.77155000000494,
      "v": 1
    },
    {
      "midi": 66,
      "hit": false,
      "t": 191996.3520000002,
      "d": 661.0985499999952,
      "v": 1
    },
    {
      "midi": 57,
      "hit": false,
      "t": 191996.35200000065,
      "d": 649.9876499999955,
      "v": 71
    },
    {
      "midi": 62,
      "hit": false,
      "t": 191996.35200000065,
      "d": 649.9876499999955,
      "v": 77
    },
    {
      "midi": 66,
      "hit": false,
      "t": 191996.35200000065,
      "d": 649.9876499999955,
      "v": 75
    },
    {
      "midi": 68,
      "hit": false,
      "t": 192663.0060000002,
      "d": 327.77155000000494,
      "v": 1
    },
    {
      "midi": 57,
      "hit": false,
      "t": 192663.00600000066,
      "d": 649.9876499999955,
      "v": 70
    },
    {
      "midi": 62,
      "hit": false,
      "t": 192663.00600000066,
      "d": 649.9876499999955,
      "v": 78
    },
    {
      "midi": 66,
      "hit": false,
      "t": 192663.00600000066,
      "d": 649.9876499999955,
      "v": 85
    },
    {
      "midi": 69,
      "hit": false,
      "t": 192996.33300000022,
      "d": 661.0985499999952,
      "v": 1
    },
    {
      "midi": 57,
      "hit": false,
      "t": 193329.66000000067,
      "d": 649.9876499999955,
      "v": 66
    },
    {
      "midi": 61,
      "hit": false,
      "t": 193329.66000000067,
      "d": 649.9876499999955,
      "v": 81
    },
    {
      "midi": 66,
      "hit": false,
      "t": 193329.66000000067,
      "d": 649.9876499999955,
      "v": 81
    },
    {
      "midi": 68,
      "hit": false,
      "t": 193662.98700000023,
      "d": 327.77155000000494,
      "v": 1
    },
    {
      "midi": 66,
      "hit": false,
      "t": 193996.31400000025,
      "d": 327.77155000000494,
      "v": 1
    },
    {
      "midi": 57,
      "hit": false,
      "t": 193996.31400000068,
      "d": 649.9876499999955,
      "v": 71
    },
    {
      "midi": 61,
      "hit": false,
      "t": 193996.31400000068,
      "d": 649.9876499999955,
      "v": 77
    },
    {
      "midi": 66,
      "hit": false,
      "t": 193996.31400000068,
      "d": 649.9876499999955,
      "v": 82
    },
    {
      "midi": 64,
      "hit": false,
      "t": 194329.64100000027,
      "d": 327.77155000000494,
      "v": 1
    },
    {
      "midi": 68,
      "hit": false,
      "t": 194662.96800000028,
      "d": 661.0985499999952,
      "v": 1
    },
    {
      "midi": 56,
      "hit": false,
      "t": 194662.9680000007,
      "d": 649.9876499999955,
      "v": 77
    },
    {
      "midi": 61,
      "hit": false,
      "t": 194662.9680000007,
      "d": 649.9876499999955,
      "v": 78
    },
    {
      "midi": 64,
      "hit": false,
      "t": 194662.9680000007,
      "d": 649.9876499999955,
      "v": 80
    },
    {
      "midi": 69,
      "hit": false,
      "t": 195329.6220000003,
      "d": 327.77155000000494,
      "v": 1
    },
    {
      "midi": 56,
      "hit": false,
      "t": 195329.6220000007,
      "d": 649.9876499999955,
      "v": 75
    },
    {
      "midi": 61,
      "hit": false,
      "t": 195329.6220000007,
      "d": 649.9876499999955,
      "v": 78
    },
    {
      "midi": 64,
      "hit": false,
      "t": 195329.6220000007,
      "d": 649.9876499999955,
      "v": 75
    },
    {
      "midi": 71,
      "hit": false,
      "t": 195662.9490000003,
      "d": 661.0985499999952,
      "v": 1
    },
    {
      "midi": 57,
      "hit": false,
      "t": 195996.2760000007,
      "d": 649.9876499999955,
      "v": 65
    },
    {
      "midi": 61,
      "hit": false,
      "t": 195996.2760000007,
      "d": 649.9876499999955,
      "v": 69
    },
    {
      "midi": 66,
      "hit": false,
      "t": 195996.2760000007,
      "d": 649.9876499999955,
      "v": 76
    },
    {
      "midi": 69,
      "hit": false,
      "t": 196329.60300000032,
      "d": 327.77155000000494,
      "v": 1
    },
    {
      "midi": 68,
      "hit": false,
      "t": 196662.93000000034,
      "d": 327.77155000000494,
      "v": 1
    },
    {
      "midi": 57,
      "hit": false,
      "t": 196662.93000000072,
      "d": 649.9876499999955,
      "v": 69
    },
    {
      "midi": 61,
      "hit": false,
      "t": 196662.93000000072,
      "d": 649.9876499999955,
      "v": 78
    },
    {
      "midi": 66,
      "hit": false,
      "t": 196662.93000000072,
      "d": 649.9876499999955,
      "v": 82
    },
    {
      "midi": 66,
      "hit": false,
      "t": 196996.25700000036,
      "d": 661.0985499999952,
      "v": 1
    },
    {
      "midi": 57,
      "hit": false,
      "t": 197329.58400000073,
      "d": 316.66065000000526,
      "v": 73
    },
    {
      "midi": 61,
      "hit": false,
      "t": 197329.58400000073,
      "d": 649.9876500000246,
      "v": 76
    },
    {
      "midi": 64,
      "hit": false,
      "t": 197329.58400000073,
      "d": 649.9876500000246,
      "v": 77
    },
    {
      "midi": 64,
      "hit": false,
      "t": 197662.91100000037,
      "d": 2994.387550000014,
      "v": 1
    },
    {
      "midi": 57,
      "hit": false,
      "t": 197662.91100000075,
      "d": 316.66065000000526,
      "v": 61
    },
    {
      "midi": 57,
      "hit": false,
      "t": 197996.23800000077,
      "d": 649.9876499999955,
      "v": 76
    },
    {
      "midi": 61,
      "hit": false,
      "t": 197996.23800000077,
      "d": 649.9876499999955,
      "v": 74
    },
    {
      "midi": 64,
      "hit": false,
      "t": 197996.23800000077,
      "d": 649.9876499999955,
      "v": 78
    },
    {
      "midi": 57,
      "hit": false,
      "t": 198662.89200000078,
      "d": 316.66065000000526,
      "v": 75
    },
    {
      "midi": 61,
      "hit": false,
      "t": 198662.89200000078,
      "d": 649.9876500000246,
      "v": 72
    },
    {
      "midi": 64,
      "hit": false,
      "t": 198662.89200000078,
      "d": 649.9876500000246,
      "v": 70
    },
    {
      "midi": 57,
      "hit": false,
      "t": 198996.2190000008,
      "d": 316.66065000000526,
      "v": 74
    },
    {
      "midi": 57,
      "hit": false,
      "t": 199329.54600000082,
      "d": 316.66065000000526,
      "v": 74
    },
    {
      "midi": 61,
      "hit": false,
      "t": 199329.54600000082,
      "d": 649.9876500000246,
      "v": 75
    },
    {
      "midi": 64,
      "hit": false,
      "t": 199329.54600000082,
      "d": 649.9876500000246,
      "v": 76
    },
    {
      "midi": 57,
      "hit": false,
      "t": 199662.87300000084,
      "d": 316.66065000000526,
      "v": 63
    },
    {
      "midi": 59,
      "hit": false,
      "t": 199996.20000000086,
      "d": 649.9876499999955,
      "v": 70
    },
    {
      "midi": 62,
      "hit": false,
      "t": 199996.20000000086,
      "d": 649.9876499999955,
      "v": 74
    },
    {
      "midi": 66,
      "hit": false,
      "t": 199996.20000000086,
      "d": 649.9876499999955,
      "v": 74
    },
    {
      "midi": 71,
      "hit": false,
      "t": 200662.8540000004,
      "d": 327.77155000000494,
      "v": 1
    },
    {
      "midi": 59,
      "hit": false,
      "t": 200662.85400000087,
      "d": 316.66065000000526,
      "v": 71
    },
    {
      "midi": 62,
      "hit": false,
      "t": 200662.85400000087,
      "d": 649.9876500000246,
      "v": 75
    },
    {
      "midi": 66,
      "hit": false,
      "t": 200662.85400000087,
      "d": 649.9876500000246,
      "v": 70
    },
    {
      "midi": 69,
      "hit": false,
      "t": 200996.18100000042,
      "d": 327.77155000000494,
      "v": 1
    },
    {
      "midi": 59,
      "hit": false,
      "t": 200996.18100000088,
      "d": 316.66065000000526,
      "v": 64
    },
    {
      "midi": 71,
      "hit": false,
      "t": 201329.50800000044,
      "d": 327.77155000000494,
      "v": 1
    },
    {
      "midi": 59,
      "hit": false,
      "t": 201329.5080000009,
      "d": 649.9876499999955,
      "v": 72
    },
    {
      "midi": 62,
      "hit": false,
      "t": 201329.5080000009,
      "d": 649.9876499999955,
      "v": 70
    },
    {
      "midi": 66,
      "hit": false,
      "t": 201329.5080000009,
      "d": 649.9876499999955,
      "v": 72
    },
    {
      "midi": 69,
      "hit": false,
      "t": 201662.83500000046,
      "d": 327.77155000000494,
      "v": 1
    },
    {
      "midi": 71,
      "hit": false,
      "t": 201996.16200000048,
      "d": 327.77155000000494,
      "v": 1
    },
    {
      "midi": 59,
      "hit": false,
      "t": 201996.1620000009,
      "d": 649.9876499999955,
      "v": 69
    },
    {
      "midi": 62,
      "hit": false,
      "t": 201996.1620000009,
      "d": 649.9876499999955,
      "v": 73
    },
    {
      "midi": 66,
      "hit": false,
      "t": 201996.1620000009,
      "d": 649.9876499999955,
      "v": 72
    },
    {
      "midi": 69,
      "hit": false,
      "t": 202329.4890000005,
      "d": 1661.079549999995,
      "v": 1
    },
    {
      "midi": 57,
      "hit": false,
      "t": 202662.8160000005,
      "d": 3994.368550000043,
      "v": 1
    },
    {
      "midi": 68,
      "hit": false,
      "t": 203996.1240000005,
      "d": 1327.7525500000047,
      "v": 1
    },
    {
      "midi": 66,
      "hit": false,
      "t": 205329.43200000052,
      "d": 1327.7525500000047,
      "v": 1
    },
    {
      "midi": 61,
      "hit": false,
      "t": 206662.74000000054,
      "d": 661.0985499999952,
      "v": 1
    },
    {
      "midi": 68,
      "hit": false,
      "t": 206662.74000000054,
      "d": 1327.7525500000047,
      "v": 1
    },
    {
      "midi": 59,
      "hit": false,
      "t": 207329.39400000055,
      "d": 661.0985499999952,
      "v": 1
    },
    {
      "midi": 57,
      "hit": false,
      "t": 207996.04800000056,
      "d": 1327.7525500000047,
      "v": 1
    },
    {
      "midi": 69,
      "hit": false,
      "t": 207996.04800000056,
      "d": 1327.7525500000047,
      "v": 1
    },
    {
      "midi": 59,
      "hit": false,
      "t": 209329.35600000058,
      "d": 661.0985499999952,
      "v": 1
    },
    {
      "midi": 68,
      "hit": false,
      "t": 209329.35600000058,
      "d": 1327.7525500000338,
      "v": 1
    },
    {
      "midi": 57,
      "hit": false,
      "t": 209996.0100000006,
      "d": 327.77155000000494,
      "v": 1
    },
    {
      "midi": 59,
      "hit": false,
      "t": 210329.3370000006,
      "d": 661.0985500000243,
      "v": 1
    },
    {
      "midi": 66,
      "hit": false,
      "t": 210662.66400000063,
      "d": 994.4255500000145,
      "v": 1
    },
    {
      "midi": 57,
      "hit": false,
      "t": 210995.99100000065,
      "d": 994.4255500000145,
      "v": 1
    },
    {
      "midi": 69,
      "hit": false,
      "t": 211662.64500000066,
      "d": 327.77155000000494,
      "v": 1
    },
    {
      "midi": 61,
      "hit": false,
      "t": 211995.97200000068,
      "d": 661.0985499999952,
      "v": 1
    },
    {
      "midi": 68,
      "hit": false,
      "t": 211995.97200000068,
      "d": 994.4255500000145,
      "v": 1
    },
    {
      "midi": 59,
      "hit": false,
      "t": 212662.6260000007,
      "d": 327.77155000000494,
      "v": 1
    },
    {
      "midi": 57,
      "hit": false,
      "t": 212995.9530000007,
      "d": 327.77155000000494,
      "v": 1
    },
    {
      "midi": 66,
      "hit": false,
      "t": 213329.28000000073,
      "d": 661.0985499999952,
      "v": 1
    },
    {
      "midi": 57,
      "hit": false,
      "t": 213329.2800000009,
      "d": 649.9876499999955,
      "v": 70
    },
    {
      "midi": 62,
      "hit": false,
      "t": 213329.2800000009,
      "d": 649.9876499999955,
      "v": 74
    },
    {
      "midi": 66,
      "hit": false,
      "t": 213329.2800000009,
      "d": 649.9876499999955,
      "v": 76
    },
    {
      "midi": 68,
      "hit": false,
      "t": 213995.93400000074,
      "d": 327.77155000000494,
      "v": 1
    },
    {
      "midi": 57,
      "hit": false,
      "t": 213995.9340000009,
      "d": 649.9876499999955,
      "v": 69
    },
    {
      "midi": 62,
      "hit": false,
      "t": 213995.9340000009,
      "d": 649.9876499999955,
      "v": 83
    },
    {
      "midi": 66,
      "hit": false,
      "t": 213995.9340000009,
      "d": 649.9876499999955,
      "v": 79
    },
    {
      "midi": 69,
      "hit": false,
      "t": 214329.26100000076,
      "d": 661.0985499999952,
      "v": 1
    },
    {
      "midi": 57,
      "hit": false,
      "t": 214662.58800000092,
      "d": 649.9876499999955,
      "v": 66
    },
    {
      "midi": 61,
      "hit": false,
      "t": 214662.58800000092,
      "d": 649.9876499999955,
      "v": 79
    },
    {
      "midi": 66,
      "hit": false,
      "t": 214662.58800000092,
      "d": 649.9876499999955,
      "v": 80
    },
    {
      "midi": 68,
      "hit": false,
      "t": 214995.91500000076,
      "d": 327.77155000000494,
      "v": 1
    },
    {
      "midi": 66,
      "hit": false,
      "t": 215329.24200000078,
      "d": 327.77155000000494,
      "v": 1
    },
    {
      "midi": 57,
      "hit": false,
      "t": 215329.24200000093,
      "d": 649.9876499999955,
      "v": 73
    },
    {
      "midi": 61,
      "hit": false,
      "t": 215329.24200000093,
      "d": 649.9876499999955,
      "v": 75
    },
    {
      "midi": 66,
      "hit": false,
      "t": 215329.24200000093,
      "d": 649.9876499999955,
      "v": 80
    },
    {
      "midi": 64,
      "hit": false,
      "t": 215662.5690000008,
      "d": 327.77155000000494,
      "v": 1
    },
    {
      "midi": 68,
      "hit": false,
      "t": 215995.89600000082,
      "d": 661.0985499999952,
      "v": 1
    },
    {
      "midi": 56,
      "hit": false,
      "t": 215995.89600000094,
      "d": 649.9876499999955,
      "v": 76
    },
    {
      "midi": 61,
      "hit": false,
      "t": 215995.89600000094,
      "d": 649.9876499999955,
      "v": 72
    },
    {
      "midi": 64,
      "hit": false,
      "t": 215995.89600000094,
      "d": 649.9876499999955,
      "v": 74
    },
    {
      "midi": 69,
      "hit": false,
      "t": 216662.55000000083,
      "d": 327.77155000000494,
      "v": 1
    },
    {
      "midi": 56,
      "hit": false,
      "t": 216662.55000000095,
      "d": 649.9876499999955,
      "v": 71
    },
    {
      "midi": 61,
      "hit": false,
      "t": 216662.55000000095,
      "d": 649.9876499999955,
      "v": 72
    },
    {
      "midi": 64,
      "hit": false,
      "t": 216662.55000000095,
      "d": 649.9876499999955,
      "v": 80
    },
    {
      "midi": 71,
      "hit": false,
      "t": 216995.87700000085,
      "d": 661.0985499999952,
      "v": 1
    },
    {
      "midi": 57,
      "hit": false,
      "t": 217329.20400000096,
      "d": 649.9876499999955,
      "v": 65
    },
    {
      "midi": 61,
      "hit": false,
      "t": 217329.20400000096,
      "d": 649.9876499999955,
      "v": 73
    },
    {
      "midi": 66,
      "hit": false,
      "t": 217329.20400000096,
      "d": 649.9876499999955,
      "v": 72
    },
    {
      "midi": 69,
      "hit": false,
      "t": 217662.53100000086,
      "d": 327.77155000000494,
      "v": 1
    },
    {
      "midi": 68,
      "hit": false,
      "t": 217995.85800000088,
      "d": 327.77155000000494,
      "v": 1
    },
    {
      "midi": 57,
      "hit": false,
      "t": 217995.85800000097,
      "d": 649.9876499999955,
      "v": 69
    },
    {
      "midi": 61,
      "hit": false,
      "t": 217995.85800000097,
      "d": 649.9876499999955,
      "v": 71
    },
    {
      "midi": 66,
      "hit": false,
      "t": 217995.85800000097,
      "d": 649.9876499999955,
      "v": 75
    },
    {
      "midi": 66,
      "hit": false,
      "t": 218329.1850000009,
      "d": 661.0985499999952,
      "v": 1
    },
    {
      "midi": 57,
      "hit": false,
      "t": 218662.51200000098,
      "d": 316.66065000000526,
      "v": 73
    },
    {
      "midi": 61,
      "hit": false,
      "t": 218662.51200000098,
      "d": 649.9876500000246,
      "v": 75
    },
    {
      "midi": 64,
      "hit": false,
      "t": 218662.51200000098,
      "d": 649.9876500000246,
      "v": 73
    },
    {
      "midi": 64,
      "hit": false,
      "t": 218995.8390000009,
      "d": 2994.387550000014,
      "v": 1
    },
    {
      "midi": 57,
      "hit": false,
      "t": 218995.839000001,
      "d": 316.66065000000526,
      "v": 62
    },
    {
      "midi": 57,
      "hit": false,
      "t": 219329.16600000102,
      "d": 649.9876499999955,
      "v": 72
    },
    {
      "midi": 61,
      "hit": false,
      "t": 219329.16600000102,
      "d": 649.9876499999955,
      "v": 80
    },
    {
      "midi": 64,
      "hit": false,
      "t": 219329.16600000102,
      "d": 649.9876499999955,
      "v": 80
    },
    {
      "midi": 57,
      "hit": false,
      "t": 219995.82000000103,
      "d": 316.66065000000526,
      "v": 73
    },
    {
      "midi": 61,
      "hit": false,
      "t": 219995.82000000103,
      "d": 649.9876500000246,
      "v": 73
    },
    {
      "midi": 64,
      "hit": false,
      "t": 219995.82000000103,
      "d": 649.9876500000246,
      "v": 71
    },
    {
      "midi": 57,
      "hit": false,
      "t": 220329.14700000104,
      "d": 316.66065000000526,
      "v": 68
    },
    {
      "midi": 57,
      "hit": false,
      "t": 220662.47400000106,
      "d": 316.66065000000526,
      "v": 78
    },
    {
      "midi": 61,
      "hit": false,
      "t": 220662.47400000106,
      "d": 649.9876500000246,
      "v": 81
    },
    {
      "midi": 64,
      "hit": false,
      "t": 220662.47400000106,
      "d": 649.9876500000246,
      "v": 71
    },
    {
      "midi": 57,
      "hit": false,
      "t": 220995.80100000108,
      "d": 316.66065000000526,
      "v": 62
    },
    {
      "midi": 59,
      "hit": false,
      "t": 221329.1280000011,
      "d": 649.9876499999955,
      "v": 71
    },
    {
      "midi": 62,
      "hit": false,
      "t": 221329.1280000011,
      "d": 649.9876499999955,
      "v": 71
    },
    {
      "midi": 66,
      "hit": false,
      "t": 221329.1280000011,
      "d": 649.9876499999955,
      "v": 75
    },
    {
      "midi": 71,
      "hit": false,
      "t": 221995.78200000094,
      "d": 327.77155000000494,
      "v": 1
    },
    {
      "midi": 59,
      "hit": false,
      "t": 221995.7820000011,
      "d": 316.66065000000526,
      "v": 75
    },
    {
      "midi": 62,
      "hit": false,
      "t": 221995.7820000011,
      "d": 649.9876500000246,
      "v": 75
    },
    {
      "midi": 66,
      "hit": false,
      "t": 221995.7820000011,
      "d": 649.9876500000246,
      "v": 73
    },
    {
      "midi": 69,
      "hit": false,
      "t": 222329.10900000096,
      "d": 327.77155000000494,
      "v": 1
    },
    {
      "midi": 59,
      "hit": false,
      "t": 222329.10900000113,
      "d": 316.66065000000526,
      "v": 63
    },
    {
      "midi": 71,
      "hit": false,
      "t": 222662.43600000098,
      "d": 327.77155000000494,
      "v": 1
    },
    {
      "midi": 59,
      "hit": false,
      "t": 222662.43600000115,
      "d": 649.9876499999955,
      "v": 70
    },
    {
      "midi": 62,
      "hit": false,
      "t": 222662.43600000115,
      "d": 649.9876499999955,
      "v": 74
    },
    {
      "midi": 66,
      "hit": false,
      "t": 222662.43600000115,
      "d": 649.9876499999955,
      "v": 68
    },
    {
      "midi": 69,
      "hit": false,
      "t": 222995.763000001,
      "d": 327.77155000000494,
      "v": 1
    },
    {
      "midi": 71,
      "hit": false,
      "t": 223329.09000000102,
      "d": 327.77155000000494,
      "v": 1
    },
    {
      "midi": 59,
      "hit": false,
      "t": 223329.09000000116,
      "d": 649.9876499999955,
      "v": 70
    },
    {
      "midi": 62,
      "hit": false,
      "t": 223329.09000000116,
      "d": 649.9876499999955,
      "v": 74
    },
    {
      "midi": 66,
      "hit": false,
      "t": 223329.09000000116,
      "d": 649.9876499999955,
      "v": 73
    },
    {
      "midi": 69,
      "hit": false,
      "t": 223662.41700000103,
      "d": 327.77155000000494,
      "v": 1
    },
    {
      "midi": 73,
      "hit": false,
      "t": 223995.74400000105,
      "d": 3327.7145500000042,
      "v": 1
    },
    {
      "midi": 57,
      "hit": false,
      "t": 223995.74400000105,
      "d": 3994.368550000014,
      "v": 1
    },
    {
      "midi": 61,
      "hit": false,
      "t": 227995.66800000108,
      "d": 661.0985499999952,
      "v": 1
    },
    {
      "midi": 59,
      "hit": false,
      "t": 228662.3220000011,
      "d": 661.0985499999952,
      "v": 1
    },
    {
      "midi": 57,
      "hit": false,
      "t": 229328.9760000011,
      "d": 1327.7525500000047,
      "v": 1
    },
    {
      "midi": 59,
      "hit": false,
      "t": 230662.28400000112,
      "d": 661.0985499999952,
      "v": 1
    },
    {
      "midi": 57,
      "hit": false,
      "t": 231328.93800000113,
      "d": 327.77155000000494,
      "v": 1
    },
    {
      "midi": 59,
      "hit": false,
      "t": 231662.26500000115,
      "d": 661.0985499999952,
      "v": 1
    },
    {
      "midi": 57,
      "hit": false,
      "t": 232328.91900000116,
      "d": 994.4255499999854,
      "v": 1
    },
    {
      "midi": 61,
      "hit": false,
      "t": 233328.90000000116,
      "d": 661.0985499999952,
      "v": 1
    },
    {
      "midi": 59,
      "hit": false,
      "t": 233995.55400000117,
      "d": 327.77155000000494,
      "v": 1
    },
    {
      "midi": 57,
      "hit": false,
      "t": 234328.8810000012,
      "d": 327.77155000000494,
      "v": 1
    },
    {
      "midi": 57,
      "hit": false,
      "t": 234662.20800000115,
      "d": 649.9876499999955,
      "v": 74
    },
    {
      "midi": 62,
      "hit": false,
      "t": 234662.20800000115,
      "d": 649.9876499999955,
      "v": 76
    },
    {
      "midi": 66,
      "hit": false,
      "t": 234662.20800000115,
      "d": 649.9876499999955,
      "v": 76
    },
    {
      "midi": 66,
      "hit": false,
      "t": 234662.2080000012,
      "d": 661.0985499999952,
      "v": 1
    },
    {
      "midi": 57,
      "hit": false,
      "t": 235328.86200000116,
      "d": 649.9876499999955,
      "v": 74
    },
    {
      "midi": 62,
      "hit": false,
      "t": 235328.86200000116,
      "d": 649.9876499999955,
      "v": 82
    },
    {
      "midi": 66,
      "hit": false,
      "t": 235328.86200000116,
      "d": 649.9876499999955,
      "v": 78
    },
    {
      "midi": 68,
      "hit": false,
      "t": 235328.86200000122,
      "d": 327.77155000000494,
      "v": 1
    },
    {
      "midi": 69,
      "hit": false,
      "t": 235662.18900000124,
      "d": 661.0985499999952,
      "v": 1
    },
    {
      "midi": 57,
      "hit": false,
      "t": 235995.51600000117,
      "d": 649.9876499999955,
      "v": 67
    },
    {
      "midi": 61,
      "hit": false,
      "t": 235995.51600000117,
      "d": 649.9876499999955,
      "v": 81
    },
    {
      "midi": 66,
      "hit": false,
      "t": 235995.51600000117,
      "d": 649.9876499999955,
      "v": 79
    },
    {
      "midi": 68,
      "hit": false,
      "t": 236328.84300000124,
      "d": 327.77155000000494,
      "v": 1
    },
    {
      "midi": 57,
      "hit": false,
      "t": 236662.17000000118,
      "d": 649.9876499999955,
      "v": 76
    },
    {
      "midi": 61,
      "hit": false,
      "t": 236662.17000000118,
      "d": 649.9876499999955,
      "v": 81
    },
    {
      "midi": 66,
      "hit": false,
      "t": 236662.17000000118,
      "d": 649.9876499999955,
      "v": 77
    },
    {
      "midi": 66,
      "hit": false,
      "t": 236662.17000000126,
      "d": 327.77155000000494,
      "v": 1
    },
    {
      "midi": 64,
      "hit": false,
      "t": 236995.49700000128,
      "d": 327.77155000000494,
      "v": 1
    },
    {
      "midi": 56,
      "hit": false,
      "t": 237328.8240000012,
      "d": 649.9876499999955,
      "v": 71
    },
    {
      "midi": 61,
      "hit": false,
      "t": 237328.8240000012,
      "d": 649.9876499999955,
      "v": 76
    },
    {
      "midi": 64,
      "hit": false,
      "t": 237328.8240000012,
      "d": 649.9876499999955,
      "v": 78
    },
    {
      "midi": 68,
      "hit": false,
      "t": 237328.8240000013,
      "d": 661.0985499999952,
      "v": 1
    },
    {
      "midi": 56,
      "hit": false,
      "t": 237995.4780000012,
      "d": 649.9876499999955,
      "v": 73
    },
    {
      "midi": 61,
      "hit": false,
      "t": 237995.4780000012,
      "d": 649.9876499999955,
      "v": 78
    },
    {
      "midi": 64,
      "hit": false,
      "t": 237995.4780000012,
      "d": 649.9876499999955,
      "v": 76
    },
    {
      "midi": 69,
      "hit": false,
      "t": 237995.4780000013,
      "d": 327.77155000000494,
      "v": 1
    },
    {
      "midi": 71,
      "hit": false,
      "t": 238328.80500000133,
      "d": 661.0985499999952,
      "v": 1
    },
    {
      "midi": 57,
      "hit": false,
      "t": 238662.1320000012,
      "d": 649.9876499999955,
      "v": 71
    },
    {
      "midi": 61,
      "hit": false,
      "t": 238662.1320000012,
      "d": 649.9876499999955,
      "v": 70
    },
    {
      "midi": 66,
      "hit": false,
      "t": 238662.1320000012,
      "d": 649.9876499999955,
      "v": 76
    },
    {
      "midi": 69,
      "hit": false,
      "t": 238995.45900000134,
      "d": 327.77155000000494,
      "v": 1
    },
    {
      "midi": 57,
      "hit": false,
      "t": 239328.78600000122,
      "d": 649.9876499999955,
      "v": 69
    },
    {
      "midi": 61,
      "hit": false,
      "t": 239328.78600000122,
      "d": 649.9876499999955,
      "v": 72
    },
    {
      "midi": 66,
      "hit": false,
      "t": 239328.78600000122,
      "d": 649.9876499999955,
      "v": 77
    },
    {
      "midi": 68,
      "hit": false,
      "t": 239328.78600000136,
      "d": 327.77155000000494,
      "v": 1
    },
    {
      "midi": 66,
      "hit": false,
      "t": 239662.11300000138,
      "d": 661.0985499999952,
      "v": 1
    },
    {
      "midi": 57,
      "hit": false,
      "t": 239995.44000000122,
      "d": 316.66065000000526,
      "v": 72
    },
    {
      "midi": 61,
      "hit": false,
      "t": 239995.44000000122,
      "d": 649.9876500000246,
      "v": 71
    },
    {
      "midi": 64,
      "hit": false,
      "t": 239995.44000000122,
      "d": 649.9876500000246,
      "v": 74
    },
    {
      "midi": 57,
      "hit": false,
      "t": 240328.76700000124,
      "d": 316.66065000000526,
      "v": 66
    },
    {
      "midi": 64,
      "hit": false,
      "t": 240328.7670000014,
      "d": 2994.387550000014,
      "v": 1
    },
    {
      "midi": 57,
      "hit": false,
      "t": 240662.09400000126,
      "d": 649.9876499999955,
      "v": 78
    },
    {
      "midi": 61,
      "hit": false,
      "t": 240662.09400000126,
      "d": 649.9876499999955,
      "v": 75
    },
    {
      "midi": 64,
      "hit": false,
      "t": 240662.09400000126,
      "d": 649.9876499999955,
      "v": 75
    },
    {
      "midi": 57,
      "hit": false,
      "t": 241328.74800000127,
      "d": 316.66065000000526,
      "v": 72
    },
    {
      "midi": 61,
      "hit": false,
      "t": 241328.74800000127,
      "d": 649.9876500000246,
      "v": 69
    },
    {
      "midi": 64,
      "hit": false,
      "t": 241328.74800000127,
      "d": 649.9876500000246,
      "v": 74
    },
    {
      "midi": 57,
      "hit": false,
      "t": 241662.0750000013,
      "d": 316.66065000000526,
      "v": 68
    },
    {
      "midi": 57,
      "hit": false,
      "t": 241995.4020000013,
      "d": 316.66065000000526,
      "v": 79
    },
    {
      "midi": 61,
      "hit": false,
      "t": 241995.4020000013,
      "d": 649.9876500000246,
      "v": 77
    },
    {
      "midi": 64,
      "hit": false,
      "t": 241995.4020000013,
      "d": 649.9876500000246,
      "v": 77
    },
    {
      "midi": 57,
      "hit": false,
      "t": 242328.72900000133,
      "d": 316.66065000000526,
      "v": 60
    },
    {
      "midi": 59,
      "hit": false,
      "t": 242662.05600000135,
      "d": 649.9876499999955,
      "v": 68
    },
    {
      "midi": 62,
      "hit": false,
      "t": 242662.05600000135,
      "d": 649.9876499999955,
      "v": 75
    },
    {
      "midi": 66,
      "hit": false,
      "t": 242662.05600000135,
      "d": 649.9876499999955,
      "v": 75
    },
    {
      "midi": 59,
      "hit": false,
      "t": 243328.71000000136,
      "d": 316.66065000000526,
      "v": 76
    },
    {
      "midi": 62,
      "hit": false,
      "t": 243328.71000000136,
      "d": 649.9876500000246,
      "v": 72
    },
    {
      "midi": 66,
      "hit": false,
      "t": 243328.71000000136,
      "d": 649.9876500000246,
      "v": 71
    },
    {
      "midi": 71,
      "hit": false,
      "t": 243328.71000000142,
      "d": 327.77155000000494,
      "v": 1
    },
    {
      "midi": 59,
      "hit": false,
      "t": 243662.03700000138,
      "d": 316.66065000000526,
      "v": 62
    },
    {
      "midi": 69,
      "hit": false,
      "t": 243662.03700000144,
      "d": 327.77155000000494,
      "v": 1
    },
    {
      "midi": 59,
      "hit": false,
      "t": 243995.3640000014,
      "d": 649.9876499999955,
      "v": 67
    },
    {
      "midi": 62,
      "hit": false,
      "t": 243995.3640000014,
      "d": 649.9876499999955,
      "v": 75
    },
    {
      "midi": 66,
      "hit": false,
      "t": 243995.3640000014,
      "d": 649.9876499999955,
      "v": 75
    },
    {
      "midi": 71,
      "hit": false,
      "t": 243995.36400000146,
      "d": 327.77155000000494,
      "v": 1
    },
    {
      "midi": 69,
      "hit": false,
      "t": 244328.69100000148,
      "d": 327.77155000000494,
      "v": 1
    },
    {
      "midi": 59,
      "hit": false,
      "t": 244662.0180000014,
      "d": 649.9876499999955,
      "v": 75
    },
    {
      "midi": 62,
      "hit": false,
      "t": 244662.0180000014,
      "d": 649.9876499999955,
      "v": 72
    },
    {
      "midi": 66,
      "hit": false,
      "t": 244662.0180000014,
      "d": 649.9876499999955,
      "v": 75
    },
    {
      "midi": 71,
      "hit": false,
      "t": 244662.0180000015,
      "d": 327.77155000000494,
      "v": 1
    },
    {
      "midi": 69,
      "hit": false,
      "t": 244995.34500000151,
      "d": 1661.079549999995,
      "v": 1
    },
    {
      "midi": 57,
      "hit": false,
      "t": 245328.6720000015,
      "d": 3994.368550000043,
      "v": 1
    },
    {
      "midi": 68,
      "hit": false,
      "t": 246661.98000000152,
      "d": 1327.7525500000047,
      "v": 1
    },
    {
      "midi": 66,
      "hit": false,
      "t": 247995.28800000154,
      "d": 1327.7525500000047,
      "v": 1
    },
    {
      "midi": 61,
      "hit": false,
      "t": 249328.59600000156,
      "d": 661.0985499999952,
      "v": 1
    },
    {
      "midi": 68,
      "hit": false,
      "t": 249328.59600000156,
      "d": 1327.7525500000047,
      "v": 1
    },
    {
      "midi": 59,
      "hit": false,
      "t": 249995.25000000157,
      "d": 661.0985499999952,
      "v": 1
    },
    {
      "midi": 57,
      "hit": false,
      "t": 250661.90400000158,
      "d": 1327.7525500000047,
      "v": 1
    },
    {
      "midi": 69,
      "hit": false,
      "t": 250661.90400000158,
      "d": 1327.7525500000047,
      "v": 1
    },
    {
      "midi": 59,
      "hit": false,
      "t": 251995.2120000016,
      "d": 661.0985499999952,
      "v": 1
    },
    {
      "midi": 68,
      "hit": false,
      "t": 251995.2120000016,
      "d": 1327.7525500000338,
      "v": 1
    },
    {
      "midi": 57,
      "hit": false,
      "t": 252661.8660000016,
      "d": 327.77155000000494,
      "v": 1
    },
    {
      "midi": 59,
      "hit": false,
      "t": 252995.19300000163,
      "d": 661.0985500000243,
      "v": 1
    },
    {
      "midi": 66,
      "hit": false,
      "t": 253328.52000000165,
      "d": 994.4255500000145,
      "v": 1
    },
    {
      "midi": 57,
      "hit": false,
      "t": 253661.84700000167,
      "d": 994.4255500000145,
      "v": 1
    },
    {
      "midi": 69,
      "hit": false,
      "t": 254328.50100000168,
      "d": 327.77155000000494,
      "v": 1
    },
    {
      "midi": 61,
      "hit": false,
      "t": 254661.8280000017,
      "d": 661.0985499999952,
      "v": 1
    },
    {
      "midi": 68,
      "hit": false,
      "t": 254661.8280000017,
      "d": 994.4255500000145,
      "v": 1
    },
    {
      "midi": 59,
      "hit": false,
      "t": 255328.4820000017,
      "d": 327.77155000000494,
      "v": 1
    },
    {
      "midi": 57,
      "hit": false,
      "t": 255661.80900000173,
      "d": 327.77155000000494,
      "v": 1
    },
    {
      "midi": 57,
      "hit": false,
      "t": 255995.1360000014,
      "d": 649.9876499999955,
      "v": 68
    },
    {
      "midi": 62,
      "hit": false,
      "t": 255995.1360000014,
      "d": 649.9876499999955,
      "v": 75
    },
    {
      "midi": 66,
      "hit": false,
      "t": 255995.1360000014,
      "d": 649.9876499999955,
      "v": 75
    },
    {
      "midi": 66,
      "hit": false,
      "t": 255995.13600000174,
      "d": 661.0985499999952,
      "v": 1
    },
    {
      "midi": 57,
      "hit": false,
      "t": 256661.7900000014,
      "d": 649.9876499999955,
      "v": 70
    },
    {
      "midi": 62,
      "hit": false,
      "t": 256661.7900000014,
      "d": 649.9876499999955,
      "v": 78
    },
    {
      "midi": 66,
      "hit": false,
      "t": 256661.7900000014,
      "d": 649.9876499999955,
      "v": 78
    },
    {
      "midi": 68,
      "hit": false,
      "t": 256661.79000000175,
      "d": 327.77155000000494,
      "v": 1
    },
    {
      "midi": 69,
      "hit": false,
      "t": 256995.11700000177,
      "d": 661.0985499999952,
      "v": 1
    },
    {
      "midi": 57,
      "hit": false,
      "t": 257328.44400000141,
      "d": 649.9876499999955,
      "v": 64
    },
    {
      "midi": 61,
      "hit": false,
      "t": 257328.44400000141,
      "d": 649.9876499999955,
      "v": 85
    },
    {
      "midi": 66,
      "hit": false,
      "t": 257328.44400000141,
      "d": 649.9876499999955,
      "v": 80
    },
    {
      "midi": 68,
      "hit": false,
      "t": 257661.77100000178,
      "d": 327.77155000000494,
      "v": 1
    },
    {
      "midi": 57,
      "hit": false,
      "t": 257995.09800000142,
      "d": 649.9876499999955,
      "v": 74
    },
    {
      "midi": 61,
      "hit": false,
      "t": 257995.09800000142,
      "d": 649.9876499999955,
      "v": 77
    },
    {
      "midi": 66,
      "hit": false,
      "t": 257995.09800000142,
      "d": 649.9876499999955,
      "v": 75
    },
    {
      "midi": 66,
      "hit": false,
      "t": 257995.0980000018,
      "d": 327.77155000000494,
      "v": 1
    },
    {
      "midi": 64,
      "hit": false,
      "t": 258328.42500000182,
      "d": 327.77155000000494,
      "v": 1
    },
    {
      "midi": 56,
      "hit": false,
      "t": 258661.75200000143,
      "d": 649.9876499999955,
      "v": 76
    },
    {
      "midi": 61,
      "hit": false,
      "t": 258661.75200000143,
      "d": 649.9876499999955,
      "v": 71
    },
    {
      "midi": 64,
      "hit": false,
      "t": 258661.75200000143,
      "d": 649.9876499999955,
      "v": 77
    },
    {
      "midi": 68,
      "hit": false,
      "t": 258661.75200000184,
      "d": 661.0985499999952,
      "v": 1
    },
    {
      "midi": 56,
      "hit": false,
      "t": 259328.40600000144,
      "d": 649.9876499999955,
      "v": 70
    },
    {
      "midi": 61,
      "hit": false,
      "t": 259328.40600000144,
      "d": 649.9876499999955,
      "v": 73
    },
    {
      "midi": 64,
      "hit": false,
      "t": 259328.40600000144,
      "d": 649.9876499999955,
      "v": 81
    },
    {
      "midi": 69,
      "hit": false,
      "t": 259328.40600000185,
      "d": 327.77155000000494,
      "v": 1
    },
    {
      "midi": 71,
      "hit": false,
      "t": 259661.73300000187,
      "d": 661.0985499999952,
      "v": 1
    },
    {
      "midi": 57,
      "hit": false,
      "t": 259995.06000000145,
      "d": 649.9876499999955,
      "v": 67
    },
    {
      "midi": 61,
      "hit": false,
      "t": 259995.06000000145,
      "d": 649.9876499999955,
      "v": 68
    },
    {
      "midi": 66,
      "hit": false,
      "t": 259995.06000000145,
      "d": 649.9876499999955,
      "v": 76
    },
    {
      "midi": 69,
      "hit": false,
      "t": 260328.38700000188,
      "d": 327.77155000000494,
      "v": 1
    },
    {
      "midi": 57,
      "hit": false,
      "t": 260661.71400000146,
      "d": 649.9876499999955,
      "v": 74
    },
    {
      "midi": 61,
      "hit": false,
      "t": 260661.71400000146,
      "d": 649.9876499999955,
      "v": 77
    },
    {
      "midi": 66,
      "hit": false,
      "t": 260661.71400000146,
      "d": 649.9876499999955,
      "v": 82
    },
    {
      "midi": 68,
      "hit": false,
      "t": 260661.7140000019,
      "d": 327.77155000000494,
      "v": 1
    },
    {
      "midi": 66,
      "hit": false,
      "t": 260995.04100000192,
      "d": 661.0985499999952,
      "v": 1
    },
    {
      "midi": 57,
      "hit": false,
      "t": 261328.36800000147,
      "d": 316.66065000000526,
      "v": 73
    },
    {
      "midi": 61,
      "hit": false,
      "t": 261328.36800000147,
      "d": 649.9876500000246,
      "v": 73
    },
    {
      "midi": 64,
      "hit": false,
      "t": 261328.36800000147,
      "d": 649.9876500000246,
      "v": 73
    },
    {
      "midi": 57,
      "hit": false,
      "t": 261661.6950000015,
      "d": 316.66065000000526,
      "v": 64
    },
    {
      "midi": 64,
      "hit": false,
      "t": 261661.69500000193,
      "d": 2994.387549999985,
      "v": 1
    },
    {
      "midi": 57,
      "hit": false,
      "t": 261995.0220000015,
      "d": 649.9876500000246,
      "v": 77
    },
    {
      "midi": 61,
      "hit": false,
      "t": 261995.0220000015,
      "d": 649.9876500000246,
      "v": 73
    },
    {
      "midi": 64,
      "hit": false,
      "t": 261995.0220000015,
      "d": 649.9876500000246,
      "v": 80
    },
    {
      "midi": 57,
      "hit": false,
      "t": 262661.67600000155,
      "d": 316.66064999997616,
      "v": 69
    },
    {
      "midi": 61,
      "hit": false,
      "t": 262661.67600000155,
      "d": 649.9876499999664,
      "v": 69
    },
    {
      "midi": 64,
      "hit": false,
      "t": 262661.67600000155,
      "d": 649.9876499999664,
      "v": 71
    },
    {
      "midi": 57,
      "hit": false,
      "t": 262995.00300000154,
      "d": 316.66064999997616,
      "v": 73
    },
    {
      "midi": 57,
      "hit": false,
      "t": 263328.33000000153,
      "d": 316.66064999997616,
      "v": 77
    },
    {
      "midi": 61,
      "hit": false,
      "t": 263328.33000000153,
      "d": 649.9876499999664,
      "v": 78
    },
    {
      "midi": 64,
      "hit": false,
      "t": 263328.33000000153,
      "d": 649.9876499999664,
      "v": 74
    },
    {
      "midi": 57,
      "hit": false,
      "t": 263661.6570000015,
      "d": 316.66064999997616,
      "v": 60
    },
    {
      "midi": 59,
      "hit": false,
      "t": 263994.9840000015,
      "d": 649.9876500000246,
      "v": 71
    },
    {
      "midi": 62,
      "hit": false,
      "t": 263994.9840000015,
      "d": 649.9876500000246,
      "v": 79
    },
    {
      "midi": 66,
      "hit": false,
      "t": 263994.9840000015,
      "d": 649.9876500000246,
      "v": 76
    },
    {
      "midi": 59,
      "hit": false,
      "t": 264661.63800000155,
      "d": 316.66064999997616,
      "v": 73
    },
    {
      "midi": 62,
      "hit": false,
      "t": 264661.63800000155,
      "d": 649.9876499999664,
      "v": 76
    },
    {
      "midi": 66,
      "hit": false,
      "t": 264661.63800000155,
      "d": 649.9876499999664,
      "v": 76
    },
    {
      "midi": 71,
      "hit": false,
      "t": 264661.6380000019,
      "d": 327.77155000000494,
      "v": 1
    },
    {
      "midi": 59,
      "hit": false,
      "t": 264994.96500000154,
      "d": 316.66064999997616,
      "v": 66
    },
    {
      "midi": 69,
      "hit": false,
      "t": 264994.9650000019,
      "d": 327.77155000000494,
      "v": 1
    },
    {
      "midi": 59,
      "hit": false,
      "t": 265328.29200000153,
      "d": 649.9876500000246,
      "v": 74
    },
    {
      "midi": 62,
      "hit": false,
      "t": 265328.29200000153,
      "d": 649.9876500000246,
      "v": 76
    },
    {
      "midi": 66,
      "hit": false,
      "t": 265328.29200000153,
      "d": 649.9876500000246,
      "v": 68
    },
    {
      "midi": 71,
      "hit": false,
      "t": 265328.2920000019,
      "d": 327.77155000000494,
      "v": 1
    },
    {
      "midi": 69,
      "hit": false,
      "t": 265661.61900000187,
      "d": 327.77155000000494,
      "v": 1
    },
    {
      "midi": 59,
      "hit": false,
      "t": 265994.94600000157,
      "d": 649.9876500000246,
      "v": 70
    },
    {
      "midi": 62,
      "hit": false,
      "t": 265994.94600000157,
      "d": 649.9876500000246,
      "v": 73
    },
    {
      "midi": 66,
      "hit": false,
      "t": 265994.94600000157,
      "d": 649.9876500000246,
      "v": 75
    },
    {
      "midi": 71,
      "hit": false,
      "t": 265994.94600000186,
      "d": 327.77155000000494,
      "v": 1
    },
    {
      "midi": 69,
      "hit": false,
      "t": 266328.27300000185,
      "d": 327.77155000000494,
      "v": 1
    },
    {
      "midi": 57,
      "hit": false,
      "t": 266661.6000000016,
      "d": 5316.565650000004,
      "v": 72
    },
    {
      "midi": 61,
      "hit": false,
      "t": 266661.6000000016,
      "d": 5316.565650000004,
      "v": 73
    },
    {
      "midi": 64,
      "hit": false,
      "t": 266661.6000000016,
      "d": 5316.565650000004,
      "v": 71
    },
    {
      "midi": 73,
      "hit": false,
      "t": 266661.60000000184,
      "d": 7994.292550000071,
      "v": 1
    }
  ]
}