{
  "jsonPath": "Rock/Deep Christian Rock/Al Denson/be-the-one.json",
  "path": "Rock\\Deep Christian Rock\\Al Denson\\Be The One.mid",
  "name": "Be The One",
  "difficulty": "Advanced",
  "bpm": 65.00013541694878,
  "notes": [
    {
      "midi": 68,
      "hit": false,
      "t": 3692.2999999999993,
      "d": 919.2288541666667,
      "v": 64
    },
    {
      "midi": 76,
      "hit": false,
      "t": 3692.2999999999993,
      "d": 919.2288541666667,
      "v": 64
    },
    {
      "midi": 61,
      "hit": false,
      "t": 3692.2999999999993,
      "d": 1842.3038541666665,
      "v": 64
    },
    {
      "midi": 68,
      "hit": false,
      "t": 3692.3,
      "d": 919.2288541666667,
      "v": 64
    },
    {
      "midi": 76,
      "hit": false,
      "t": 3692.3,
      "d": 919.2288541666667,
      "v": 64
    },
    {
      "midi": 61,
      "hit": false,
      "t": 3692.3,
      "d": 1842.3038541666665,
      "v": 64
    },
    {
      "midi": 76,
      "hit": false,
      "t": 4615.374999999999,
      "d": 688.4601041666665,
      "v": 64
    },
    {
      "midi": 68,
      "hit": false,
      "t": 4615.374999999999,
      "d": 919.2288541666667,
      "v": 64
    },
    {
      "midi": 76,
      "hit": false,
      "t": 4615.375,
      "d": 688.4601041666665,
      "v": 64
    },
    {
      "midi": 68,
      "hit": false,
      "t": 4615.375,
      "d": 919.2288541666667,
      "v": 64
    },
    {
      "midi": 78,
      "hit": false,
      "t": 5307.681249999999,
      "d": 226.92260416666704,
      "v": 64
    },
    {
      "midi": 78,
      "hit": false,
      "t": 5307.68125,
      "d": 226.92260416666704,
      "v": 64
    },
    {
      "midi": 75,
      "hit": false,
      "t": 5538.449999999999,
      "d": 919.2288541666667,
      "v": 64
    },
    {
      "midi": 59,
      "hit": false,
      "t": 5538.449999999999,
      "d": 1842.3038541666665,
      "v": 64
    },
    {
      "midi": 66,
      "hit": false,
      "t": 5538.449999999999,
      "d": 1842.3038541666665,
      "v": 64
    },
    {
      "midi": 75,
      "hit": false,
      "t": 5538.45,
      "d": 919.2288541666667,
      "v": 64
    },
    {
      "midi": 59,
      "hit": false,
      "t": 5538.45,
      "d": 1842.3038541666665,
      "v": 64
    },
    {
      "midi": 66,
      "hit": false,
      "t": 5538.45,
      "d": 1842.3038541666665,
      "v": 64
    },
    {
      "midi": 75,
      "hit": false,
      "t": 6461.524999999999,
      "d": 688.4601041666665,
      "v": 64
    },
    {
      "midi": 75,
      "hit": false,
      "t": 6461.525,
      "d": 688.4601041666665,
      "v": 64
    },
    {
      "midi": 76,
      "hit": false,
      "t": 7153.831249999998,
      "d": 226.92260416666704,
      "v": 64
    },
    {
      "midi": 76,
      "hit": false,
      "t": 7153.831249999999,
      "d": 226.92260416666704,
      "v": 64
    },
    {
      "midi": 66,
      "hit": false,
      "t": 7384.5999999999985,
      "d": 919.2288541666676,
      "v": 64
    },
    {
      "midi": 68,
      "hit": false,
      "t": 7384.5999999999985,
      "d": 919.2288541666676,
      "v": 64
    },
    {
      "midi": 73,
      "hit": false,
      "t": 7384.5999999999985,
      "d": 919.2288541666676,
      "v": 64
    },
    {
      "midi": 58,
      "hit": false,
      "t": 7384.5999999999985,
      "d": 3688.453854166666,
      "v": 64
    },
    {
      "midi": 66,
      "hit": false,
      "t": 7384.599999999999,
      "d": 919.2288541666667,
      "v": 64
    },
    {
      "midi": 68,
      "hit": false,
      "t": 7384.599999999999,
      "d": 919.2288541666667,
      "v": 64
    },
    {
      "midi": 73,
      "hit": false,
      "t": 7384.599999999999,
      "d": 919.2288541666667,
      "v": 64
    },
    {
      "midi": 58,
      "hit": false,
      "t": 7384.599999999999,
      "d": 3688.453854166665,
      "v": 64
    },
    {
      "midi": 66,
      "hit": false,
      "t": 8307.675,
      "d": 919.2288541666676,
      "v": 64
    },
    {
      "midi": 68,
      "hit": false,
      "t": 8307.675,
      "d": 919.2288541666676,
      "v": 64
    },
    {
      "midi": 73,
      "hit": false,
      "t": 8307.675,
      "d": 919.2288541666676,
      "v": 64
    },
    {
      "midi": 66,
      "hit": false,
      "t": 8307.675,
      "d": 919.2288541666676,
      "v": 64
    },
    {
      "midi": 68,
      "hit": false,
      "t": 8307.675,
      "d": 919.2288541666676,
      "v": 64
    },
    {
      "midi": 73,
      "hit": false,
      "t": 8307.675,
      "d": 919.2288541666676,
      "v": 64
    },
    {
      "midi": 66,
      "hit": false,
      "t": 9230.75,
      "d": 1149.9976041666669,
      "v": 64
    },
    {
      "midi": 68,
      "hit": false,
      "t": 9230.75,
      "d": 1149.9976041666669,
      "v": 64
    },
    {
      "midi": 73,
      "hit": false,
      "t": 9230.75,
      "d": 1149.9976041666669,
      "v": 64
    },
    {
      "midi": 66,
      "hit": false,
      "t": 9230.75,
      "d": 1149.9976041666669,
      "v": 64
    },
    {
      "midi": 68,
      "hit": false,
      "t": 9230.75,
      "d": 1149.9976041666669,
      "v": 64
    },
    {
      "midi": 73,
      "hit": false,
      "t": 9230.75,
      "d": 1149.9976041666669,
      "v": 64
    },
    {
      "midi": 66,
      "hit": false,
      "t": 10384.59375,
      "d": 226.92260416666613,
      "v": 64
    },
    {
      "midi": 66,
      "hit": false,
      "t": 10384.59375,
      "d": 226.92260416666613,
      "v": 64
    },
    {
      "midi": 73,
      "hit": false,
      "t": 10615.3625,
      "d": 226.92260416666613,
      "v": 64
    },
    {
      "midi": 73,
      "hit": false,
      "t": 10615.3625,
      "d": 226.92260416666613,
      "v": 64
    },
    {
      "midi": 75,
      "hit": false,
      "t": 10846.131249999999,
      "d": 230.76874999999927,
      "v": 64
    },
    {
      "midi": 75,
      "hit": false,
      "t": 10846.131249999999,
      "d": 230.76874999999927,
      "v": 64
    },
    {
      "midi": 57,
      "hit": false,
      "t": 11076.899999999998,
      "d": 919.2288541666676,
      "v": 64
    },
    {
      "midi": 61,
      "hit": false,
      "t": 11076.899999999998,
      "d": 919.2288541666676,
      "v": 64
    },
    {
      "midi": 68,
      "hit": false,
      "t": 11076.899999999998,
      "d": 919.2288541666676,
      "v": 64
    },
    {
      "midi": 76,
      "hit": false,
      "t": 11076.899999999998,
      "d": 919.2288541666676,
      "v": 64
    },
    {
      "midi": 57,
      "hit": false,
      "t": 11076.899999999998,
      "d": 919.2288541666676,
      "v": 64
    },
    {
      "midi": 61,
      "hit": false,
      "t": 11076.899999999998,
      "d": 919.2288541666676,
      "v": 64
    },
    {
      "midi": 68,
      "hit": false,
      "t": 11076.899999999998,
      "d": 919.2288541666676,
      "v": 64
    },
    {
      "midi": 76,
      "hit": false,
      "t": 11076.899999999998,
      "d": 919.2288541666676,
      "v": 64
    },
    {
      "midi": 56,
      "hit": false,
      "t": 11999.974999999999,
      "d": 919.2288541666676,
      "v": 64
    },
    {
      "midi": 59,
      "hit": false,
      "t": 11999.974999999999,
      "d": 919.2288541666676,
      "v": 64
    },
    {
      "midi": 66,
      "hit": false,
      "t": 11999.974999999999,
      "d": 919.2288541666676,
      "v": 64
    },
    {
      "midi": 75,
      "hit": false,
      "t": 11999.974999999999,
      "d": 919.2288541666676,
      "v": 64
    },
    {
      "midi": 56,
      "hit": false,
      "t": 11999.974999999999,
      "d": 919.2288541666676,
      "v": 64
    },
    {
      "midi": 59,
      "hit": false,
      "t": 11999.974999999999,
      "d": 919.2288541666676,
      "v": 64
    },
    {
      "midi": 66,
      "hit": false,
      "t": 11999.974999999999,
      "d": 919.2288541666676,
      "v": 64
    },
    {
      "midi": 75,
      "hit": false,
      "t": 11999.974999999999,
      "d": 919.2288541666676,
      "v": 64
    },
    {
      "midi": 54,
      "hit": false,
      "t": 12923.05,
      "d": 1842.3038541666665,
      "v": 64
    },
    {
      "midi": 58,
      "hit": false,
      "t": 12923.05,
      "d": 1842.3038541666665,
      "v": 64
    },
    {
      "midi": 66,
      "hit": false,
      "t": 12923.05,
      "d": 1842.3038541666665,
      "v": 64
    },
    {
      "midi": 68,
      "hit": false,
      "t": 12923.05,
      "d": 1842.3038541666665,
      "v": 64
    },
    {
      "midi": 73,
      "hit": false,
      "t": 12923.05,
      "d": 1842.3038541666665,
      "v": 64
    },
    {
      "midi": 54,
      "hit": false,
      "t": 12923.05,
      "d": 1842.3038541666665,
      "v": 64
    },
    {
      "midi": 58,
      "hit": false,
      "t": 12923.05,
      "d": 1842.3038541666665,
      "v": 64
    },
    {
      "midi": 66,
      "hit": false,
      "t": 12923.05,
      "d": 1842.3038541666665,
      "v": 64
    },
    {
      "midi": 68,
      "hit": false,
      "t": 12923.05,
      "d": 1842.3038541666665,
      "v": 64
    },
    {
      "midi": 73,
      "hit": false,
      "t": 12923.05,
      "d": 1842.3038541666665,
      "v": 64
    },
    {
      "midi": 42,
      "hit": false,
      "t": 14769.199999999999,
      "d": 919.2288541666658,
      "v": 64
    },
    {
      "midi": 54,
      "hit": false,
      "t": 14769.199999999999,
      "d": 919.2288541666658,
      "v": 64
    },
    {
      "midi": 61,
      "hit": false,
      "t": 14769.199999999999,
      "d": 919.2288541666658,
      "v": 64
    },
    {
      "midi": 64,
      "hit": false,
      "t": 14769.199999999999,
      "d": 919.2288541666658,
      "v": 64
    },
    {
      "midi": 69,
      "hit": false,
      "t": 14769.199999999999,
      "d": 919.2288541666658,
      "v": 64
    },
    {
      "midi": 73,
      "hit": false,
      "t": 14769.199999999999,
      "d": 919.2288541666658,
      "v": 64
    },
    {
      "midi": 42,
      "hit": false,
      "t": 14769.199999999999,
      "d": 919.2288541666658,
      "v": 64
    },
    {
      "midi": 54,
      "hit": false,
      "t": 14769.199999999999,
      "d": 919.2288541666658,
      "v": 64
    },
    {
      "midi": 61,
      "hit": false,
      "t": 14769.199999999999,
      "d": 919.2288541666658,
      "v": 64
    },
    {
      "midi": 64,
      "hit": false,
      "t": 14769.199999999999,
      "d": 919.2288541666658,
      "v": 64
    },
    {
      "midi": 69,
      "hit": false,
      "t": 14769.199999999999,
      "d": 919.2288541666658,
      "v": 64
    },
    {
      "midi": 73,
      "hit": false,
      "t": 14769.199999999999,
      "d": 919.2288541666658,
      "v": 64
    },
    {
      "midi": 59,
      "hit": false,
      "t": 15692.274999999998,
      "d": 457.6913541666672,
      "v": 64
    },
    {
      "midi": 64,
      "hit": false,
      "t": 15692.274999999998,
      "d": 457.6913541666672,
      "v": 64
    },
    {
      "midi": 71,
      "hit": false,
      "t": 15692.274999999998,
      "d": 457.6913541666672,
      "v": 64
    },
    {
      "midi": 44,
      "hit": false,
      "t": 15692.274999999998,
      "d": 919.2288541666676,
      "v": 64
    },
    {
      "midi": 56,
      "hit": false,
      "t": 15692.274999999998,
      "d": 919.2288541666676,
      "v": 64
    },
    {
      "midi": 59,
      "hit": false,
      "t": 15692.274999999998,
      "d": 457.6913541666672,
      "v": 64
    },
    {
      "midi": 64,
      "hit": false,
      "t": 15692.274999999998,
      "d": 457.6913541666672,
      "v": 64
    },
    {
      "midi": 71,
      "hit": false,
      "t": 15692.274999999998,
      "d": 457.6913541666672,
      "v": 64
    },
    {
      "midi": 44,
      "hit": false,
      "t": 15692.274999999998,
      "d": 919.2288541666676,
      "v": 64
    },
    {
      "midi": 56,
      "hit": false,
      "t": 15692.274999999998,
      "d": 919.2288541666676,
      "v": 64
    },
    {
      "midi": 68,
      "hit": false,
      "t": 16153.812499999998,
      "d": 457.6913541666672,
      "v": 64
    },
    {
      "midi": 68,
      "hit": false,
      "t": 16153.812499999998,
      "d": 457.6913541666672,
      "v": 64
    },
    {
      "midi": 59,
      "hit": false,
      "t": 16615.35,
      "d": 919.2288541666676,
      "v": 64
    },
    {
      "midi": 64,
      "hit": false,
      "t": 16615.35,
      "d": 919.2288541666676,
      "v": 64
    },
    {
      "midi": 66,
      "hit": false,
      "t": 16615.35,
      "d": 919.2288541666676,
      "v": 64
    },
    {
      "midi": 35,
      "hit": false,
      "t": 16615.35,
      "d": 3688.453854166666,
      "v": 64
    },
    {
      "midi": 47,
      "hit": false,
      "t": 16615.35,
      "d": 3688.453854166666,
      "v": 64
    },
    {
      "midi": 59,
      "hit": false,
      "t": 16615.35,
      "d": 919.2288541666676,
      "v": 64
    },
    {
      "midi": 64,
      "hit": false,
      "t": 16615.35,
      "d": 919.2288541666676,
      "v": 64
    },
    {
      "midi": 66,
      "hit": false,
      "t": 16615.35,
      "d": 919.2288541666676,
      "v": 64
    },
    {
      "midi": 35,
      "hit": false,
      "t": 16615.35,
      "d": 3688.453854166666,
      "v": 64
    },
    {
      "midi": 47,
      "hit": false,
      "t": 16615.35,
      "d": 3688.453854166666,
      "v": 64
    },
    {
      "midi": 59,
      "hit": false,
      "t": 17538.425,
      "d": 919.2288541666676,
      "v": 64
    },
    {
      "midi": 64,
      "hit": false,
      "t": 17538.425,
      "d": 919.2288541666676,
      "v": 64
    },
    {
      "midi": 66,
      "hit": false,
      "t": 17538.425,
      "d": 919.2288541666676,
      "v": 64
    },
    {
      "midi": 59,
      "hit": false,
      "t": 17538.425,
      "d": 919.2288541666676,
      "v": 64
    },
    {
      "midi": 64,
      "hit": false,
      "t": 17538.425,
      "d": 919.2288541666676,
      "v": 64
    },
    {
      "midi": 66,
      "hit": false,
      "t": 17538.425,
      "d": 919.2288541666676,
      "v": 64
    },
    {
      "midi": 59,
      "hit": false,
      "t": 18461.5,
      "d": 919.2288541666676,
      "v": 64
    },
    {
      "midi": 64,
      "hit": false,
      "t": 18461.5,
      "d": 919.2288541666676,
      "v": 64
    },
    {
      "midi": 66,
      "hit": false,
      "t": 18461.5,
      "d": 919.2288541666676,
      "v": 64
    },
    {
      "midi": 59,
      "hit": false,
      "t": 18461.5,
      "d": 919.2288541666676,
      "v": 64
    },
    {
      "midi": 64,
      "hit": false,
      "t": 18461.5,
      "d": 919.2288541666676,
      "v": 64
    },
    {
      "midi": 66,
      "hit": false,
      "t": 18461.5,
      "d": 919.2288541666676,
      "v": 64
    },
    {
      "midi": 59,
      "hit": false,
      "t": 19384.575,
      "d": 226.92260416666613,
      "v": 64
    },
    {
      "midi": 64,
      "hit": false,
      "t": 19384.575,
      "d": 226.92260416666613,
      "v": 64
    },
    {
      "midi": 66,
      "hit": false,
      "t": 19384.575,
      "d": 226.92260416666613,
      "v": 64
    },
    {
      "midi": 59,
      "hit": false,
      "t": 19384.575,
      "d": 226.92260416666613,
      "v": 64
    },
    {
      "midi": 64,
      "hit": false,
      "t": 19384.575,
      "d": 226.92260416666613,
      "v": 64
    },
    {
      "midi": 66,
      "hit": false,
      "t": 19384.575,
      "d": 226.92260416666613,
      "v": 64
    },
    {
      "midi": 64,
      "hit": false,
      "t": 19615.34375,
      "d": 226.92260416666613,
      "v": 64
    },
    {
      "midi": 64,
      "hit": false,
      "t": 19615.34375,
      "d": 226.92260416666613,
      "v": 64
    },
    {
      "midi": 66,
      "hit": false,
      "t": 19846.1125,
      "d": 226.92260416666613,
      "v": 64
    },
    {
      "midi": 66,
      "hit": false,
      "t": 19846.1125,
      "d": 226.92260416666613,
      "v": 64
    },
    {
      "midi": 73,
      "hit": false,
      "t": 20076.88125,
      "d": 226.92260416666613,
      "v": 64
    },
    {
      "midi": 73,
      "hit": false,
      "t": 20076.88125,
      "d": 226.92260416666613,
      "v": 64
    },
    {
      "midi": 35,
      "hit": false,
      "t": 20307.649999999998,
      "d": 3688.453854166666,
      "v": 64
    },
    {
      "midi": 47,
      "hit": false,
      "t": 20307.649999999998,
      "d": 3688.453854166666,
      "v": 64
    },
    {
      "midi": 63,
      "hit": false,
      "t": 20307.649999999998,
      "d": 3688.453854166666,
      "v": 64
    },
    {
      "midi": 66,
      "hit": false,
      "t": 20307.649999999998,
      "d": 3688.453854166666,
      "v": 64
    },
    {
      "midi": 71,
      "hit": false,
      "t": 20307.649999999998,
      "d": 3688.453854166666,
      "v": 64
    },
    {
      "midi": 35,
      "hit": false,
      "t": 20307.649999999998,
      "d": 3688.453854166666,
      "v": 64
    },
    {
      "midi": 47,
      "hit": false,
      "t": 20307.649999999998,
      "d": 3688.453854166666,
      "v": 64
    },
    {
      "midi": 63,
      "hit": false,
      "t": 20307.649999999998,
      "d": 3688.453854166666,
      "v": 64
    },
    {
      "midi": 66,
      "hit": false,
      "t": 20307.649999999998,
      "d": 3688.453854166666,
      "v": 64
    },
    {
      "midi": 71,
      "hit": false,
      "t": 20307.649999999998,
      "d": 3688.453854166666,
      "v": 64
    },
    {
      "midi": 59,
      "hit": false,
      "t": 23999.949999999997,
      "d": 919.2288541666676,
      "v": 64
    },
    {
      "midi": 66,
      "hit": false,
      "t": 23999.949999999997,
      "d": 919.2288541666676,
      "v": 64
    },
    {
      "midi": 68,
      "hit": false,
      "t": 23999.949999999997,
      "d": 919.2288541666676,
      "v": 64
    },
    {
      "midi": 40,
      "hit": false,
      "t": 23999.949999999997,
      "d": 1380.7663541666661,
      "v": 64
    },
    {
      "midi": 59,
      "hit": false,
      "t": 23999.949999999997,
      "d": 919.2288541666676,
      "v": 64
    },
    {
      "midi": 66,
      "hit": false,
      "t": 23999.949999999997,
      "d": 919.2288541666676,
      "v": 64
    },
    {
      "midi": 68,
      "hit": false,
      "t": 23999.949999999997,
      "d": 919.2288541666676,
      "v": 64
    },
    {
      "midi": 40,
      "hit": false,
      "t": 23999.949999999997,
      "d": 1380.7663541666661,
      "v": 64
    },
    {
      "midi": 59,
      "hit": false,
      "t": 24923.024999999998,
      "d": 919.228854166664,
      "v": 64
    },
    {
      "midi": 66,
      "hit": false,
      "t": 24923.024999999998,
      "d": 919.228854166664,
      "v": 64
    },
    {
      "midi": 68,
      "hit": false,
      "t": 24923.024999999998,
      "d": 919.228854166664,
      "v": 64
    },
    {
      "midi": 59,
      "hit": false,
      "t": 24923.024999999998,
      "d": 919.228854166664,
      "v": 64
    },
    {
      "midi": 66,
      "hit": false,
      "t": 24923.024999999998,
      "d": 919.228854166664,
      "v": 64
    },
    {
      "midi": 68,
      "hit": false,
      "t": 24923.024999999998,
      "d": 919.228854166664,
      "v": 64
    },
    {
      "midi": 40,
      "hit": false,
      "t": 25384.562499999996,
      "d": 457.6913541666654,
      "v": 64
    },
    {
      "midi": 40,
      "hit": false,
      "t": 25384.562499999996,
      "d": 457.6913541666654,
      "v": 64
    },
    {
      "midi": 59,
      "hit": false,
      "t": 25846.099999999995,
      "d": 919.2288541666676,
      "v": 64
    },
    {
      "midi": 64,
      "hit": false,
      "t": 25846.099999999995,
      "d": 919.2288541666676,
      "v": 64
    },
    {
      "midi": 68,
      "hit": false,
      "t": 25846.099999999995,
      "d": 919.2288541666676,
      "v": 64
    },
    {
      "midi": 40,
      "hit": false,
      "t": 25846.099999999995,
      "d": 1842.3038541666683,
      "v": 64
    },
    {
      "midi": 59,
      "hit": false,
      "t": 25846.099999999995,
      "d": 919.2288541666676,
      "v": 64
    },
    {
      "midi": 64,
      "hit": false,
      "t": 25846.099999999995,
      "d": 919.2288541666676,
      "v": 64
    },
    {
      "midi": 68,
      "hit": false,
      "t": 25846.099999999995,
      "d": 919.2288541666676,
      "v": 64
    },
    {
      "midi": 40,
      "hit": false,
      "t": 25846.099999999995,
      "d": 1842.3038541666683,
      "v": 64
    },
    {
      "midi": 59,
      "hit": false,
      "t": 26769.174999999996,
      "d": 919.2288541666676,
      "v": 64
    },
    {
      "midi": 64,
      "hit": false,
      "t": 26769.174999999996,
      "d": 919.2288541666676,
      "v": 64
    },
    {
      "midi": 68,
      "hit": false,
      "t": 26769.174999999996,
      "d": 919.2288541666676,
      "v": 64
    },
    {
      "midi": 59,
      "hit": false,
      "t": 26769.174999999996,
      "d": 919.2288541666676,
      "v": 64
    },
    {
      "midi": 64,
      "hit": false,
      "t": 26769.174999999996,
      "d": 919.2288541666676,
      "v": 64
    },
    {
      "midi": 68,
      "hit": false,
      "t": 26769.174999999996,
      "d": 919.2288541666676,
      "v": 64
    },
    {
      "midi": 61,
      "hit": false,
      "t": 27692.249999999996,
      "d": 919.2288541666676,
      "v": 64
    },
    {
      "midi": 64,
      "hit": false,
      "t": 27692.249999999996,
      "d": 919.2288541666676,
      "v": 64
    },
    {
      "midi": 69,
      "hit": false,
      "t": 27692.249999999996,
      "d": 919.2288541666676,
      "v": 64
    },
    {
      "midi": 40,
      "hit": false,
      "t": 27692.249999999996,
      "d": 1380.7663541666661,
      "v": 64
    },
    {
      "midi": 61,
      "hit": false,
      "t": 27692.249999999996,
      "d": 919.2288541666676,
      "v": 64
    },
    {
      "midi": 64,
      "hit": false,
      "t": 27692.249999999996,
      "d": 919.2288541666676,
      "v": 64
    },
    {
      "midi": 69,
      "hit": false,
      "t": 27692.249999999996,
      "d": 919.2288541666676,
      "v": 64
    },
    {
      "midi": 40,
      "hit": false,
      "t": 27692.249999999996,
      "d": 1380.7663541666661,
      "v": 64
    },
    {
      "midi": 61,
      "hit": false,
      "t": 28615.324999999997,
      "d": 919.228854166664,
      "v": 64
    },
    {
      "midi": 64,
      "hit": false,
      "t": 28615.324999999997,
      "d": 919.228854166664,
      "v": 64
    },
    {
      "midi": 69,
      "hit": false,
      "t": 28615.324999999997,
      "d": 919.228854166664,
      "v": 64
    },
    {
      "midi": 61,
      "hit": false,
      "t": 28615.324999999997,
      "d": 919.228854166664,
      "v": 64
    },
    {
      "midi": 64,
      "hit": false,
      "t": 28615.324999999997,
      "d": 919.228854166664,
      "v": 64
    },
    {
      "midi": 69,
      "hit": false,
      "t": 28615.324999999997,
      "d": 919.228854166664,
      "v": 64
    },
    {
      "midi": 40,
      "hit": false,
      "t": 29076.862499999996,
      "d": 457.6913541666654,
      "v": 64
    },
    {
      "midi": 40,
      "hit": false,
      "t": 29076.862499999996,
      "d": 457.6913541666654,
      "v": 64
    },
    {
      "midi": 40,
      "hit": false,
      "t": 29538.399999999994,
      "d": 919.2288541666676,
      "v": 64
    },
    {
      "midi": 61,
      "hit": false,
      "t": 29538.399999999994,
      "d": 919.2288541666676,
      "v": 64
    },
    {
      "midi": 64,
      "hit": false,
      "t": 29538.399999999994,
      "d": 919.2288541666676,
      "v": 64
    },
    {
      "midi": 69,
      "hit": false,
      "t": 29538.399999999994,
      "d": 919.2288541666676,
      "v": 64
    },
    {
      "midi": 40,
      "hit": false,
      "t": 29538.399999999994,
      "d": 919.2288541666676,
      "v": 64
    },
    {
      "midi": 61,
      "hit": false,
      "t": 29538.399999999994,
      "d": 919.2288541666676,
      "v": 64
    },
    {
      "midi": 64,
      "hit": false,
      "t": 29538.399999999994,
      "d": 919.2288541666676,
      "v": 64
    },
    {
      "midi": 69,
      "hit": false,
      "t": 29538.399999999994,
      "d": 919.2288541666676,
      "v": 64
    },
    {
      "midi": 59,
      "hit": false,
      "t": 30461.474999999995,
      "d": 457.6913541666654,
      "v": 64
    },
    {
      "midi": 66,
      "hit": false,
      "t": 30461.474999999995,
      "d": 457.6913541666654,
      "v": 64
    },
    {
      "midi": 71,
      "hit": false,
      "t": 30461.474999999995,
      "d": 457.6913541666654,
      "v": 64
    },
    {
      "midi": 39,
      "hit": false,
      "t": 30461.474999999995,
      "d": 919.228854166664,
      "v": 64
    },
    {
      "midi": 59,
      "hit": false,
      "t": 30461.474999999995,
      "d": 457.6913541666654,
      "v": 64
    },
    {
      "midi": 66,
      "hit": false,
      "t": 30461.474999999995,
      "d": 457.6913541666654,
      "v": 64
    },
    {
      "midi": 71,
      "hit": false,
      "t": 30461.474999999995,
      "d": 457.6913541666654,
      "v": 64
    },
    {
      "midi": 39,
      "hit": false,
      "t": 30461.474999999995,
      "d": 919.228854166664,
      "v": 64
    },
    {
      "midi": 66,
      "hit": false,
      "t": 30923.012499999993,
      "d": 457.6913541666654,
      "v": 64
    },
    {
      "midi": 66,
      "hit": false,
      "t": 30923.012499999993,
      "d": 457.6913541666654,
      "v": 64
    },
    {
      "midi": 61,
      "hit": false,
      "t": 31384.549999999992,
      "d": 919.2288541666676,
      "v": 64
    },
    {
      "midi": 64,
      "hit": false,
      "t": 31384.549999999992,
      "d": 919.2288541666676,
      "v": 64
    },
    {
      "midi": 68,
      "hit": false,
      "t": 31384.549999999992,
      "d": 919.2288541666676,
      "v": 64
    },
    {
      "midi": 37,
      "hit": false,
      "t": 31384.549999999992,
      "d": 1380.7663541666661,
      "v": 64
    },
    {
      "midi": 61,
      "hit": false,
      "t": 31384.549999999992,
      "d": 919.2288541666676,
      "v": 64
    },
    {
      "midi": 64,
      "hit": false,
      "t": 31384.549999999992,
      "d": 919.2288541666676,
      "v": 64
    },
    {
      "midi": 68,
      "hit": false,
      "t": 31384.549999999992,
      "d": 919.2288541666676,
      "v": 64
    },
    {
      "midi": 37,
      "hit": false,
      "t": 31384.549999999992,
      "d": 1380.7663541666661,
      "v": 64
    },
    {
      "midi": 61,
      "hit": false,
      "t": 32307.624999999993,
      "d": 919.228854166664,
      "v": 64
    },
    {
      "midi": 64,
      "hit": false,
      "t": 32307.624999999993,
      "d": 919.228854166664,
      "v": 64
    },
    {
      "midi": 68,
      "hit": false,
      "t": 32307.624999999993,
      "d": 919.228854166664,
      "v": 64
    },
    {
      "midi": 61,
      "hit": false,
      "t": 32307.624999999993,
      "d": 919.228854166664,
      "v": 64
    },
    {
      "midi": 64,
      "hit": false,
      "t": 32307.624999999993,
      "d": 919.228854166664,
      "v": 64
    },
    {
      "midi": 68,
      "hit": false,
      "t": 32307.624999999993,
      "d": 919.228854166664,
      "v": 64
    },
    {
      "midi": 37,
      "hit": false,
      "t": 32769.16249999999,
      "d": 457.6913541666654,
      "v": 64
    },
    {
      "midi": 37,
      "hit": false,
      "t": 32769.16249999999,
      "d": 457.6913541666654,
      "v": 64
    },
    {
      "midi": 61,
      "hit": false,
      "t": 33230.69999999999,
      "d": 919.228854166664,
      "v": 64
    },
    {
      "midi": 64,
      "hit": false,
      "t": 33230.69999999999,
      "d": 919.228854166664,
      "v": 64
    },
    {
      "midi": 68,
      "hit": false,
      "t": 33230.69999999999,
      "d": 919.228854166664,
      "v": 64
    },
    {
      "midi": 35,
      "hit": false,
      "t": 33230.69999999999,
      "d": 1380.7663541666625,
      "v": 64
    },
    {
      "midi": 61,
      "hit": false,
      "t": 33230.69999999999,
      "d": 919.228854166664,
      "v": 64
    },
    {
      "midi": 64,
      "hit": false,
      "t": 33230.69999999999,
      "d": 919.228854166664,
      "v": 64
    },
    {
      "midi": 68,
      "hit": false,
      "t": 33230.69999999999,
      "d": 919.228854166664,
      "v": 64
    },
    {
      "midi": 35,
      "hit": false,
      "t": 33230.69999999999,
      "d": 1380.7663541666625,
      "v": 64
    },
    {
      "midi": 61,
      "hit": false,
      "t": 34153.77499999999,
      "d": 919.228854166664,
      "v": 64
    },
    {
      "midi": 64,
      "hit": false,
      "t": 34153.77499999999,
      "d": 919.228854166664,
      "v": 64
    },
    {
      "midi": 68,
      "hit": false,
      "t": 34153.77499999999,
      "d": 919.228854166664,
      "v": 64
    },
    {
      "midi": 61,
      "hit": false,
      "t": 34153.77499999999,
      "d": 919.228854166664,
      "v": 64
    },
    {
      "midi": 64,
      "hit": false,
      "t": 34153.77499999999,
      "d": 919.228854166664,
      "v": 64
    },
    {
      "midi": 68,
      "hit": false,
      "t": 34153.77499999999,
      "d": 919.228854166664,
      "v": 64
    },
    {
      "midi": 35,
      "hit": false,
      "t": 34615.312499999985,
      "d": 457.6913541666654,
      "v": 64
    },
    {
      "midi": 35,
      "hit": false,
      "t": 34615.312499999985,
      "d": 457.6913541666654,
      "v": 64
    },
    {
      "midi": 57,
      "hit": false,
      "t": 35076.849999999984,
      "d": 919.228854166664,
      "v": 64
    },
    {
      "midi": 61,
      "hit": false,
      "t": 35076.849999999984,
      "d": 919.228854166664,
      "v": 64
    },
    {
      "midi": 64,
      "hit": false,
      "t": 35076.849999999984,
      "d": 919.228854166664,
      "v": 64
    },
    {
      "midi": 45,
      "hit": false,
      "t": 35076.849999999984,
      "d": 1380.7663541666625,
      "v": 64
    },
    {
      "midi": 57,
      "hit": false,
      "t": 35076.849999999984,
      "d": 919.228854166664,
      "v": 64
    },
    {
      "midi": 61,
      "hit": false,
      "t": 35076.849999999984,
      "d": 919.228854166664,
      "v": 64
    },
    {
      "midi": 64,
      "hit": false,
      "t": 35076.849999999984,
      "d": 919.228854166664,
      "v": 64
    },
    {
      "midi": 45,
      "hit": false,
      "t": 35076.849999999984,
      "d": 1380.7663541666625,
      "v": 64
    },
    {
      "midi": 57,
      "hit": false,
      "t": 35999.92499999998,
      "d": 919.228854166664,
      "v": 64
    },
    {
      "midi": 61,
      "hit": false,
      "t": 35999.92499999998,
      "d": 919.228854166664,
      "v": 64
    },
    {
      "midi": 64,
      "hit": false,
      "t": 35999.92499999998,
      "d": 919.228854166664,
      "v": 64
    },
    {
      "midi": 57,
      "hit": false,
      "t": 35999.92499999998,
      "d": 919.228854166664,
      "v": 64
    },
    {
      "midi": 61,
      "hit": false,
      "t": 35999.92499999998,
      "d": 919.228854166664,
      "v": 64
    },
    {
      "midi": 64,
      "hit": false,
      "t": 35999.92499999998,
      "d": 919.228854166664,
      "v": 64
    },
    {
      "midi": 45,
      "hit": false,
      "t": 36461.46249999998,
      "d": 2303.841354166674,
      "v": 64
    },
    {
      "midi": 45,
      "hit": false,
      "t": 36461.46249999998,
      "d": 2303.841354166674,
      "v": 64
    },
    {
      "midi": 57,
      "hit": false,
      "t": 36922.99999999998,
      "d": 1149.9976041666669,
      "v": 64
    },
    {
      "midi": 61,
      "hit": false,
      "t": 36922.99999999998,
      "d": 1149.9976041666669,
      "v": 64
    },
    {
      "midi": 64,
      "hit": false,
      "t": 36922.99999999998,
      "d": 1149.9976041666669,
      "v": 64
    },
    {
      "midi": 57,
      "hit": false,
      "t": 36922.99999999998,
      "d": 1149.9976041666669,
      "v": 64
    },
    {
      "midi": 61,
      "hit": false,
      "t": 36922.99999999998,
      "d": 1149.9976041666669,
      "v": 64
    },
    {
      "midi": 64,
      "hit": false,
      "t": 36922.99999999998,
      "d": 1149.9976041666669,
      "v": 64
    },
    {
      "midi": 59,
      "hit": false,
      "t": 38076.84374999998,
      "d": 226.92260416666977,
      "v": 64
    },
    {
      "midi": 59,
      "hit": false,
      "t": 38076.84374999998,
      "d": 226.92260416666977,
      "v": 64
    },
    {
      "midi": 61,
      "hit": false,
      "t": 38307.61249999998,
      "d": 226.92260416666977,
      "v": 64
    },
    {
      "midi": 61,
      "hit": false,
      "t": 38307.61249999998,
      "d": 226.92260416666977,
      "v": 64
    },
    {
      "midi": 68,
      "hit": false,
      "t": 38538.381249999984,
      "d": 226.92260416666977,
      "v": 64
    },
    {
      "midi": 68,
      "hit": false,
      "t": 38538.381249999984,
      "d": 226.92260416666977,
      "v": 64
    },
    {
      "midi": 61,
      "hit": false,
      "t": 38769.14999999999,
      "d": 919.228854166664,
      "v": 64
    },
    {
      "midi": 64,
      "hit": false,
      "t": 38769.14999999999,
      "d": 919.228854166664,
      "v": 64
    },
    {
      "midi": 69,
      "hit": false,
      "t": 38769.14999999999,
      "d": 919.228854166664,
      "v": 64
    },
    {
      "midi": 42,
      "hit": false,
      "t": 38769.14999999999,
      "d": 1380.7663541666625,
      "v": 64
    },
    {
      "midi": 61,
      "hit": false,
      "t": 38769.14999999999,
      "d": 919.228854166664,
      "v": 64
    },
    {
      "midi": 64,
      "hit": false,
      "t": 38769.14999999999,
      "d": 919.228854166664,
      "v": 64
    },
    {
      "midi": 69,
      "hit": false,
      "t": 38769.14999999999,
      "d": 919.228854166664,
      "v": 64
    },
    {
      "midi": 42,
      "hit": false,
      "t": 38769.14999999999,
      "d": 1380.7663541666625,
      "v": 64
    },
    {
      "midi": 61,
      "hit": false,
      "t": 39692.224999999984,
      "d": 919.228854166664,
      "v": 64
    },
    {
      "midi": 64,
      "hit": false,
      "t": 39692.224999999984,
      "d": 919.228854166664,
      "v": 64
    },
    {
      "midi": 69,
      "hit": false,
      "t": 39692.224999999984,
      "d": 919.228854166664,
      "v": 64
    },
    {
      "midi": 61,
      "hit": false,
      "t": 39692.224999999984,
      "d": 919.228854166664,
      "v": 64
    },
    {
      "midi": 64,
      "hit": false,
      "t": 39692.224999999984,
      "d": 919.228854166664,
      "v": 64
    },
    {
      "midi": 69,
      "hit": false,
      "t": 39692.224999999984,
      "d": 919.228854166664,
      "v": 64
    },
    {
      "midi": 42,
      "hit": false,
      "t": 40153.76249999998,
      "d": 457.6913541666654,
      "v": 64
    },
    {
      "midi": 42,
      "hit": false,
      "t": 40153.76249999998,
      "d": 457.6913541666654,
      "v": 64
    },
    {
      "midi": 42,
      "hit": false,
      "t": 40615.29999999998,
      "d": 919.228854166664,
      "v": 64
    },
    {
      "midi": 61,
      "hit": false,
      "t": 40615.29999999998,
      "d": 919.228854166664,
      "v": 64
    },
    {
      "midi": 64,
      "hit": false,
      "t": 40615.29999999998,
      "d": 919.228854166664,
      "v": 64
    },
    {
      "midi": 69,
      "hit": false,
      "t": 40615.29999999998,
      "d": 919.228854166664,
      "v": 64
    },
    {
      "midi": 42,
      "hit": false,
      "t": 40615.29999999998,
      "d": 919.228854166664,
      "v": 64
    },
    {
      "midi": 61,
      "hit": false,
      "t": 40615.29999999998,
      "d": 919.228854166664,
      "v": 64
    },
    {
      "midi": 64,
      "hit": false,
      "t": 40615.29999999998,
      "d": 919.228854166664,
      "v": 64
    },
    {
      "midi": 69,
      "hit": false,
      "t": 40615.29999999998,
      "d": 919.228854166664,
      "v": 64
    },
    {
      "midi": 39,
      "hit": false,
      "t": 41538.37499999998,
      "d": 919.228854166664,
      "v": 64
    },
    {
      "midi": 59,
      "hit": false,
      "t": 41538.37499999998,
      "d": 919.228854166664,
      "v": 64
    },
    {
      "midi": 66,
      "hit": false,
      "t": 41538.37499999998,
      "d": 919.228854166664,
      "v": 64
    },
    {
      "midi": 39,
      "hit": false,
      "t": 41538.37499999998,
      "d": 919.228854166664,
      "v": 64
    },
    {
      "midi": 59,
      "hit": false,
      "t": 41538.37499999998,
      "d": 919.228854166664,
      "v": 64
    },
    {
      "midi": 66,
      "hit": false,
      "t": 41538.37499999998,
      "d": 919.228854166664,
      "v": 64
    },
    {
      "midi": 40,
      "hit": false,
      "t": 42461.449999999975,
      "d": 1380.7663541666698,
      "v": 64
    },
    {
      "midi": 59,
      "hit": false,
      "t": 42461.449999999975,
      "d": 1380.7663541666698,
      "v": 64
    },
    {
      "midi": 64,
      "hit": false,
      "t": 42461.449999999975,
      "d": 1380.7663541666698,
      "v": 64
    },
    {
      "midi": 68,
      "hit": false,
      "t": 42461.449999999975,
      "d": 1380.7663541666698,
      "v": 64
    },
    {
      "midi": 40,
      "hit": false,
      "t": 42461.449999999975,
      "d": 1380.7663541666698,
      "v": 64
    },
    {
      "midi": 59,
      "hit": false,
      "t": 42461.449999999975,
      "d": 1380.7663541666698,
      "v": 64
    },
    {
      "midi": 64,
      "hit": false,
      "t": 42461.449999999975,
      "d": 1380.7663541666698,
      "v": 64
    },
    {
      "midi": 68,
      "hit": false,
      "t": 42461.449999999975,
      "d": 1380.7663541666698,
      "v": 64
    },
    {
      "midi": 40,
      "hit": false,
      "t": 43846.06249999998,
      "d": 226.92260416666977,
      "v": 64
    },
    {
      "midi": 68,
      "hit": false,
      "t": 43846.06249999998,
      "d": 226.92260416666977,
      "v": 64
    },
    {
      "midi": 40,
      "hit": false,
      "t": 43846.06249999998,
      "d": 226.92260416666977,
      "v": 64
    },
    {
      "midi": 68,
      "hit": false,
      "t": 43846.06249999998,
      "d": 226.92260416666977,
      "v": 64
    },
    {
      "midi": 42,
      "hit": false,
      "t": 44076.83124999998,
      "d": 226.92260416666977,
      "v": 64
    },
    {
      "midi": 71,
      "hit": false,
      "t": 44076.83124999998,
      "d": 226.92260416666977,
      "v": 64
    },
    {
      "midi": 42,
      "hit": false,
      "t": 44076.83124999998,
      "d": 226.92260416666977,
      "v": 64
    },
    {
      "midi": 71,
      "hit": false,
      "t": 44076.83124999998,
      "d": 226.92260416666977,
      "v": 64
    },
    {
      "midi": 59,
      "hit": false,
      "t": 44307.599999999984,
      "d": 457.6913541666654,
      "v": 64
    },
    {
      "midi": 64,
      "hit": false,
      "t": 44307.599999999984,
      "d": 457.6913541666654,
      "v": 64
    },
    {
      "midi": 71,
      "hit": false,
      "t": 44307.599999999984,
      "d": 457.6913541666654,
      "v": 64
    },
    {
      "midi": 44,
      "hit": false,
      "t": 44307.599999999984,
      "d": 688.4601041666683,
      "v": 64
    },
    {
      "midi": 59,
      "hit": false,
      "t": 44307.599999999984,
      "d": 457.6913541666654,
      "v": 64
    },
    {
      "midi": 64,
      "hit": false,
      "t": 44307.599999999984,
      "d": 457.6913541666654,
      "v": 64
    },
    {
      "midi": 71,
      "hit": false,
      "t": 44307.599999999984,
      "d": 457.6913541666654,
      "v": 64
    },
    {
      "midi": 44,
      "hit": false,
      "t": 44307.599999999984,
      "d": 688.4601041666683,
      "v": 64
    },
    {
      "midi": 71,
      "hit": false,
      "t": 44769.13749999998,
      "d": 226.92260416666977,
      "v": 64
    },
    {
      "midi": 71,
      "hit": false,
      "t": 44769.13749999998,
      "d": 226.92260416666977,
      "v": 64
    },
    {
      "midi": 42,
      "hit": false,
      "t": 44999.906249999985,
      "d": 688.4601041666683,
      "v": 64
    },
    {
      "midi": 59,
      "hit": false,
      "t": 44999.906249999985,
      "d": 688.4601041666683,
      "v": 64
    },
    {
      "midi": 64,
      "hit": false,
      "t": 44999.906249999985,
      "d": 688.4601041666683,
      "v": 64
    },
    {
      "midi": 69,
      "hit": false,
      "t": 44999.906249999985,
      "d": 688.4601041666683,
      "v": 64
    },
    {
      "midi": 42,
      "hit": false,
      "t": 44999.906249999985,
      "d": 688.4601041666683,
      "v": 64
    },
    {
      "midi": 59,
      "hit": false,
      "t": 44999.906249999985,
      "d": 688.4601041666683,
      "v": 64
    },
    {
      "midi": 64,
      "hit": false,
      "t": 44999.906249999985,
      "d": 688.4601041666683,
      "v": 64
    },
    {
      "midi": 69,
      "hit": false,
      "t": 44999.906249999985,
      "d": 688.4601041666683,
      "v": 64
    },
    {
      "midi": 40,
      "hit": false,
      "t": 45692.21249999999,
      "d": 226.92260416666977,
      "v": 64
    },
    {
      "midi": 59,
      "hit": false,
      "t": 45692.21249999999,
      "d": 457.6913541666727,
      "v": 64
    },
    {
      "midi": 64,
      "hit": false,
      "t": 45692.21249999999,
      "d": 457.6913541666727,
      "v": 64
    },
    {
      "midi": 68,
      "hit": false,
      "t": 45692.21249999999,
      "d": 457.6913541666727,
      "v": 64
    },
    {
      "midi": 40,
      "hit": false,
      "t": 45692.21249999999,
      "d": 226.92260416666977,
      "v": 64
    },
    {
      "midi": 59,
      "hit": false,
      "t": 45692.21249999999,
      "d": 457.6913541666727,
      "v": 64
    },
    {
      "midi": 64,
      "hit": false,
      "t": 45692.21249999999,
      "d": 457.6913541666727,
      "v": 64
    },
    {
      "midi": 68,
      "hit": false,
      "t": 45692.21249999999,
      "d": 457.6913541666727,
      "v": 64
    },
    {
      "midi": 57,
      "hit": false,
      "t": 46153.74999999999,
      "d": 919.228854166664,
      "v": 64
    },
    {
      "midi": 61,
      "hit": false,
      "t": 46153.74999999999,
      "d": 919.228854166664,
      "v": 64
    },
    {
      "midi": 64,
      "hit": false,
      "t": 46153.74999999999,
      "d": 919.228854166664,
      "v": 64
    },
    {
      "midi": 45,
      "hit": false,
      "t": 46153.74999999999,
      "d": 1380.7663541666625,
      "v": 64
    },
    {
      "midi": 57,
      "hit": false,
      "t": 46153.74999999999,
      "d": 919.228854166664,
      "v": 64
    },
    {
      "midi": 61,
      "hit": false,
      "t": 46153.74999999999,
      "d": 919.228854166664,
      "v": 64
    },
    {
      "midi": 64,
      "hit": false,
      "t": 46153.74999999999,
      "d": 919.228854166664,
      "v": 64
    },
    {
      "midi": 45,
      "hit": false,
      "t": 46153.74999999999,
      "d": 1380.7663541666625,
      "v": 64
    },
    {
      "midi": 57,
      "hit": false,
      "t": 47076.82499999999,
      "d": 919.228854166664,
      "v": 64
    },
    {
      "midi": 61,
      "hit": false,
      "t": 47076.82499999999,
      "d": 919.228854166664,
      "v": 64
    },
    {
      "midi": 64,
      "hit": false,
      "t": 47076.82499999999,
      "d": 919.228854166664,
      "v": 64
    },
    {
      "midi": 57,
      "hit": false,
      "t": 47076.82499999999,
      "d": 919.228854166664,
      "v": 64
    },
    {
      "midi": 61,
      "hit": false,
      "t": 47076.82499999999,
      "d": 919.228854166664,
      "v": 64
    },
    {
      "midi": 64,
      "hit": false,
      "t": 47076.82499999999,
      "d": 919.228854166664,
      "v": 64
    },
    {
      "midi": 45,
      "hit": false,
      "t": 47538.36249999999,
      "d": 457.6913541666654,
      "v": 64
    },
    {
      "midi": 45,
      "hit": false,
      "t": 47538.36249999999,
      "d": 457.6913541666654,
      "v": 64
    },
    {
      "midi": 57,
      "hit": false,
      "t": 47999.89999999999,
      "d": 457.6913541666654,
      "v": 64
    },
    {
      "midi": 61,
      "hit": false,
      "t": 47999.89999999999,
      "d": 457.6913541666654,
      "v": 64
    },
    {
      "midi": 64,
      "hit": false,
      "t": 47999.89999999999,
      "d": 457.6913541666654,
      "v": 64
    },
    {
      "midi": 45,
      "hit": false,
      "t": 47999.89999999999,
      "d": 919.2288541666712,
      "v": 64
    },
    {
      "midi": 57,
      "hit": false,
      "t": 47999.89999999999,
      "d": 457.6913541666654,
      "v": 64
    },
    {
      "midi": 61,
      "hit": false,
      "t": 47999.89999999999,
      "d": 457.6913541666654,
      "v": 64
    },
    {
      "midi": 64,
      "hit": false,
      "t": 47999.89999999999,
      "d": 457.6913541666654,
      "v": 64
    },
    {
      "midi": 45,
      "hit": false,
      "t": 47999.89999999999,
      "d": 919.2288541666712,
      "v": 64
    },
    {
      "midi": 61,
      "hit": false,
      "t": 48461.437499999985,
      "d": 226.92260416666977,
      "v": 64
    },
    {
      "midi": 61,
      "hit": false,
      "t": 48461.437499999985,
      "d": 226.92260416666977,
      "v": 64
    },
    {
      "midi": 64,
      "hit": false,
      "t": 48692.20624999999,
      "d": 226.92260416666977,
      "v": 64
    },
    {
      "midi": 64,
      "hit": false,
      "t": 48692.20624999999,
      "d": 226.92260416666977,
      "v": 64
    },
    {
      "midi": 59,
      "hit": false,
      "t": 48922.97499999999,
      "d": 457.6913541666654,
      "v": 64
    },
    {
      "midi": 63,
      "hit": false,
      "t": 48922.97499999999,
      "d": 457.6913541666654,
      "v": 64
    },
    {
      "midi": 66,
      "hit": false,
      "t": 48922.97499999999,
      "d": 457.6913541666654,
      "v": 64
    },
    {
      "midi": 47,
      "hit": false,
      "t": 48922.97499999999,
      "d": 919.2288541666712,
      "v": 64
    },
    {
      "midi": 59,
      "hit": false,
      "t": 48922.97499999999,
      "d": 457.6913541666654,
      "v": 64
    },
    {
      "midi": 63,
      "hit": false,
      "t": 48922.97499999999,
      "d": 457.6913541666654,
      "v": 64
    },
    {
      "midi": 66,
      "hit": false,
      "t": 48922.97499999999,
      "d": 457.6913541666654,
      "v": 64
    },
    {
      "midi": 47,
      "hit": false,
      "t": 48922.97499999999,
      "d": 919.2288541666712,
      "v": 64
    },
    {
      "midi": 59,
      "hit": false,
      "t": 49384.51249999999,
      "d": 226.92260416666977,
      "v": 64
    },
    {
      "midi": 59,
      "hit": false,
      "t": 49384.51249999999,
      "d": 226.92260416666977,
      "v": 64
    },
    {
      "midi": 66,
      "hit": false,
      "t": 49615.28124999999,
      "d": 226.92260416666977,
      "v": 64
    },
    {
      "midi": 66,
      "hit": false,
      "t": 49615.28124999999,
      "d": 226.92260416666977,
      "v": 64
    },
    {
      "midi": 59,
      "hit": false,
      "t": 49846.049999999996,
      "d": 919.228854166664,
      "v": 64
    },
    {
      "midi": 66,
      "hit": false,
      "t": 49846.049999999996,
      "d": 919.228854166664,
      "v": 64
    },
    {
      "midi": 68,
      "hit": false,
      "t": 49846.049999999996,
      "d": 919.228854166664,
      "v": 64
    },
    {
      "midi": 40,
      "hit": false,
      "t": 49846.049999999996,
      "d": 1380.7663541666625,
      "v": 64
    },
    {
      "midi": 59,
      "hit": false,
      "t": 49846.049999999996,
      "d": 919.228854166664,
      "v": 64
    },
    {
      "midi": 66,
      "hit": false,
      "t": 49846.049999999996,
      "d": 919.228854166664,
      "v": 64
    },
    {
      "midi": 68,
      "hit": false,
      "t": 49846.049999999996,
      "d": 919.228854166664,
      "v": 64
    },
    {
      "midi": 40,
      "hit": false,
      "t": 49846.049999999996,
      "d": 1380.7663541666625,
      "v": 64
    },
    {
      "midi": 59,
      "hit": false,
      "t": 50769.12499999999,
      "d": 919.228854166664,
      "v": 64
    },
    {
      "midi": 66,
      "hit": false,
      "t": 50769.12499999999,
      "d": 919.228854166664,
      "v": 64
    },
    {
      "midi": 68,
      "hit": false,
      "t": 50769.12499999999,
      "d": 919.228854166664,
      "v": 64
    },
    {
      "midi": 59,
      "hit": false,
      "t": 50769.12499999999,
      "d": 919.228854166664,
      "v": 64
    },
    {
      "midi": 66,
      "hit": false,
      "t": 50769.12499999999,
      "d": 919.228854166664,
      "v": 64
    },
    {
      "midi": 68,
      "hit": false,
      "t": 50769.12499999999,
      "d": 919.228854166664,
      "v": 64
    },
    {
      "midi": 40,
      "hit": false,
      "t": 51230.66249999999,
      "d": 457.6913541666654,
      "v": 64
    },
    {
      "midi": 40,
      "hit": false,
      "t": 51230.66249999999,
      "d": 457.6913541666654,
      "v": 64
    },
    {
      "midi": 59,
      "hit": false,
      "t": 51692.19999999999,
      "d": 919.228854166664,
      "v": 64
    },
    {
      "midi": 64,
      "hit": false,
      "t": 51692.19999999999,
      "d": 919.228854166664,
      "v": 64
    },
    {
      "midi": 68,
      "hit": false,
      "t": 51692.19999999999,
      "d": 919.228854166664,
      "v": 64
    },
    {
      "midi": 40,
      "hit": false,
      "t": 51692.19999999999,
      "d": 1842.303854166661,
      "v": 64
    },
    {
      "midi": 59,
      "hit": false,
      "t": 51692.19999999999,
      "d": 919.228854166664,
      "v": 64
    },
    {
      "midi": 64,
      "hit": false,
      "t": 51692.19999999999,
      "d": 919.228854166664,
      "v": 64
    },
    {
      "midi": 68,
      "hit": false,
      "t": 51692.19999999999,
      "d": 919.228854166664,
      "v": 64
    },
    {
      "midi": 40,
      "hit": false,
      "t": 51692.19999999999,
      "d": 1842.303854166661,
      "v": 64
    },
    {
      "midi": 59,
      "hit": false,
      "t": 52615.27499999999,
      "d": 919.228854166664,
      "v": 64
    },
    {
      "midi": 64,
      "hit": false,
      "t": 52615.27499999999,
      "d": 919.228854166664,
      "v": 64
    },
    {
      "midi": 68,
      "hit": false,
      "t": 52615.27499999999,
      "d": 919.228854166664,
      "v": 64
    },
    {
      "midi": 59,
      "hit": false,
      "t": 52615.27499999999,
      "d": 919.228854166664,
      "v": 64
    },
    {
      "midi": 64,
      "hit": false,
      "t": 52615.27499999999,
      "d": 919.228854166664,
      "v": 64
    },
    {
      "midi": 68,
      "hit": false,
      "t": 52615.27499999999,
      "d": 919.228854166664,
      "v": 64
    },
    {
      "midi": 61,
      "hit": false,
      "t": 53538.349999999984,
      "d": 919.228854166664,
      "v": 64
    },
    {
      "midi": 64,
      "hit": false,
      "t": 53538.349999999984,
      "d": 919.228854166664,
      "v": 64
    },
    {
      "midi": 69,
      "hit": false,
      "t": 53538.349999999984,
      "d": 919.228854166664,
      "v": 64
    },
    {
      "midi": 40,
      "hit": false,
      "t": 53538.349999999984,
      "d": 1380.7663541666625,
      "v": 64
    },
    {
      "midi": 61,
      "hit": false,
      "t": 53538.349999999984,
      "d": 919.228854166664,
      "v": 64
    },
    {
      "midi": 64,
      "hit": false,
      "t": 53538.349999999984,
      "d": 919.228854166664,
      "v": 64
    },
    {
      "midi": 69,
      "hit": false,
      "t": 53538.349999999984,
      "d": 919.228854166664,
      "v": 64
    },
    {
      "midi": 40,
      "hit": false,
      "t": 53538.349999999984,
      "d": 1380.7663541666625,
      "v": 64
    },
    {
      "midi": 61,
      "hit": false,
      "t": 54461.42499999998,
      "d": 919.228854166664,
      "v": 64
    },
    {
      "midi": 64,
      "hit": false,
      "t": 54461.42499999998,
      "d": 919.228854166664,
      "v": 64
    },
    {
      "midi": 69,
      "hit": false,
      "t": 54461.42499999998,
      "d": 919.228854166664,
      "v": 64
    },
    {
      "midi": 61,
      "hit": false,
      "t": 54461.42499999998,
      "d": 919.228854166664,
      "v": 64
    },
    {
      "midi": 64,
      "hit": false,
      "t": 54461.42499999998,
      "d": 919.228854166664,
      "v": 64
    },
    {
      "midi": 69,
      "hit": false,
      "t": 54461.42499999998,
      "d": 919.228854166664,
      "v": 64
    },
    {
      "midi": 40,
      "hit": false,
      "t": 54922.96249999998,
      "d": 457.6913541666654,
      "v": 64
    },
    {
      "midi": 40,
      "hit": false,
      "t": 54922.96249999998,
      "d": 457.6913541666654,
      "v": 64
    },
    {
      "midi": 40,
      "hit": false,
      "t": 55384.49999999998,
      "d": 919.228854166664,
      "v": 64
    },
    {
      "midi": 61,
      "hit": false,
      "t": 55384.49999999998,
      "d": 919.228854166664,
      "v": 64
    },
    {
      "midi": 64,
      "hit": false,
      "t": 55384.49999999998,
      "d": 919.228854166664,
      "v": 64
    },
    {
      "midi": 69,
      "hit": false,
      "t": 55384.49999999998,
      "d": 919.228854166664,
      "v": 64
    },
    {
      "midi": 40,
      "hit": false,
      "t": 55384.49999999998,
      "d": 919.228854166664,
      "v": 64
    },
    {
      "midi": 61,
      "hit": false,
      "t": 55384.49999999998,
      "d": 919.228854166664,
      "v": 64
    },
    {
      "midi": 64,
      "hit": false,
      "t": 55384.49999999998,
      "d": 919.228854166664,
      "v": 64
    },
    {
      "midi": 69,
      "hit": false,
      "t": 55384.49999999998,
      "d": 919.228854166664,
      "v": 64
    },
    {
      "midi": 59,
      "hit": false,
      "t": 56307.574999999975,
      "d": 457.6913541666654,
      "v": 64
    },
    {
      "midi": 66,
      "hit": false,
      "t": 56307.574999999975,
      "d": 457.6913541666654,
      "v": 64
    },
    {
      "midi": 71,
      "hit": false,
      "t": 56307.574999999975,
      "d": 457.6913541666654,
      "v": 64
    },
    {
      "midi": 39,
      "hit": false,
      "t": 56307.574999999975,
      "d": 919.2288541666712,
      "v": 64
    },
    {
      "midi": 59,
      "hit": false,
      "t": 56307.574999999975,
      "d": 457.6913541666654,
      "v": 64
    },
    {
      "midi": 66,
      "hit": false,
      "t": 56307.574999999975,
      "d": 457.6913541666654,
      "v": 64
    },
    {
      "midi": 71,
      "hit": false,
      "t": 56307.574999999975,
      "d": 457.6913541666654,
      "v": 64
    },
    {
      "midi": 39,
      "hit": false,
      "t": 56307.574999999975,
      "d": 919.2288541666712,
      "v": 64
    },
    {
      "midi": 66,
      "hit": false,
      "t": 56769.112499999974,
      "d": 226.92260416666977,
      "v": 64
    },
    {
      "midi": 66,
      "hit": false,
      "t": 56769.112499999974,
      "d": 226.92260416666977,
      "v": 64
    },
    {
      "midi": 71,
      "hit": false,
      "t": 56999.88124999998,
      "d": 226.92260416666977,
      "v": 64
    },
    {
      "midi": 71,
      "hit": false,
      "t": 56999.88124999998,
      "d": 226.92260416666977,
      "v": 64
    },
    {
      "midi": 61,
      "hit": false,
      "t": 57230.64999999998,
      "d": 919.228854166664,
      "v": 64
    },
    {
      "midi": 64,
      "hit": false,
      "t": 57230.64999999998,
      "d": 919.228854166664,
      "v": 64
    },
    {
      "midi": 68,
      "hit": false,
      "t": 57230.64999999998,
      "d": 919.228854166664,
      "v": 64
    },
    {
      "midi": 37,
      "hit": false,
      "t": 57230.64999999998,
      "d": 1380.7663541666625,
      "v": 64
    },
    {
      "midi": 61,
      "hit": false,
      "t": 57230.64999999998,
      "d": 919.228854166664,
      "v": 64
    },
    {
      "midi": 64,
      "hit": false,
      "t": 57230.64999999998,
      "d": 919.228854166664,
      "v": 64
    },
    {
      "midi": 68,
      "hit": false,
      "t": 57230.64999999998,
      "d": 919.228854166664,
      "v": 64
    },
    {
      "midi": 37,
      "hit": false,
      "t": 57230.64999999998,
      "d": 1380.7663541666625,
      "v": 64
    },
    {
      "midi": 61,
      "hit": false,
      "t": 58153.72499999998,
      "d": 919.228854166664,
      "v": 64
    },
    {
      "midi": 64,
      "hit": false,
      "t": 58153.72499999998,
      "d": 919.228854166664,
      "v": 64
    },
    {
      "midi": 68,
      "hit": false,
      "t": 58153.72499999998,
      "d": 919.228854166664,
      "v": 64
    },
    {
      "midi": 61,
      "hit": false,
      "t": 58153.72499999998,
      "d": 919.228854166664,
      "v": 64
    },
    {
      "midi": 64,
      "hit": false,
      "t": 58153.72499999998,
      "d": 919.228854166664,
      "v": 64
    },
    {
      "midi": 68,
      "hit": false,
      "t": 58153.72499999998,
      "d": 919.228854166664,
      "v": 64
    },
    {
      "midi": 37,
      "hit": false,
      "t": 58615.262499999975,
      "d": 457.6913541666654,
      "v": 64
    },
    {
      "midi": 37,
      "hit": false,
      "t": 58615.262499999975,
      "d": 457.6913541666654,
      "v": 64
    },
    {
      "midi": 59,
      "hit": false,
      "t": 59076.799999999974,
      "d": 919.228854166664,
      "v": 64
    },
    {
      "midi": 64,
      "hit": false,
      "t": 59076.799999999974,
      "d": 919.228854166664,
      "v": 64
    },
    {
      "midi": 68,
      "hit": false,
      "t": 59076.799999999974,
      "d": 919.228854166664,
      "v": 64
    },
    {
      "midi": 44,
      "hit": false,
      "t": 59076.799999999974,
      "d": 1380.7663541666625,
      "v": 64
    },
    {
      "midi": 59,
      "hit": false,
      "t": 59076.799999999974,
      "d": 919.228854166664,
      "v": 64
    },
    {
      "midi": 64,
      "hit": false,
      "t": 59076.799999999974,
      "d": 919.228854166664,
      "v": 64
    },
    {
      "midi": 68,
      "hit": false,
      "t": 59076.799999999974,
      "d": 919.228854166664,
      "v": 64
    },
    {
      "midi": 44,
      "hit": false,
      "t": 59076.799999999974,
      "d": 1380.7663541666625,
      "v": 64
    },
    {
      "midi": 59,
      "hit": false,
      "t": 59999.87499999997,
      "d": 919.228854166664,
      "v": 64
    },
    {
      "midi": 64,
      "hit": false,
      "t": 59999.87499999997,
      "d": 919.228854166664,
      "v": 64
    },
    {
      "midi": 68,
      "hit": false,
      "t": 59999.87499999997,
      "d": 919.228854166664,
      "v": 64
    },
    {
      "midi": 59,
      "hit": false,
      "t": 59999.87499999997,
      "d": 919.228854166664,
      "v": 64
    },
    {
      "midi": 64,
      "hit": false,
      "t": 59999.87499999997,
      "d": 919.228854166664,
      "v": 64
    },
    {
      "midi": 68,
      "hit": false,
      "t": 59999.87499999997,
      "d": 919.228854166664,
      "v": 64
    },
    {
      "midi": 44,
      "hit": false,
      "t": 60461.41249999997,
      "d": 457.6913541666654,
      "v": 64
    },
    {
      "midi": 44,
      "hit": false,
      "t": 60461.41249999997,
      "d": 457.6913541666654,
      "v": 64
    },
    {
      "midi": 61,
      "hit": false,
      "t": 60922.94999999997,
      "d": 919.228854166664,
      "v": 64
    },
    {
      "midi": 64,
      "hit": false,
      "t": 60922.94999999997,
      "d": 919.228854166664,
      "v": 64
    },
    {
      "midi": 69,
      "hit": false,
      "t": 60922.94999999997,
      "d": 919.228854166664,
      "v": 64
    },
    {
      "midi": 45,
      "hit": false,
      "t": 60922.94999999997,
      "d": 1380.7663541666625,
      "v": 64
    },
    {
      "midi": 61,
      "hit": false,
      "t": 60922.94999999997,
      "d": 919.228854166664,
      "v": 64
    },
    {
      "midi": 64,
      "hit": false,
      "t": 60922.94999999997,
      "d": 919.228854166664,
      "v": 64
    },
    {
      "midi": 69,
      "hit": false,
      "t": 60922.94999999997,
      "d": 919.228854166664,
      "v": 64
    },
    {
      "midi": 45,
      "hit": false,
      "t": 60922.94999999997,
      "d": 1380.7663541666625,
      "v": 64
    },
    {
      "midi": 61,
      "hit": false,
      "t": 61846.024999999965,
      "d": 919.228854166664,
      "v": 64
    },
    {
      "midi": 64,
      "hit": false,
      "t": 61846.024999999965,
      "d": 919.228854166664,
      "v": 64
    },
    {
      "midi": 69,
      "hit": false,
      "t": 61846.024999999965,
      "d": 919.228854166664,
      "v": 64
    },
    {
      "midi": 61,
      "hit": false,
      "t": 61846.024999999965,
      "d": 919.228854166664,
      "v": 64
    },
    {
      "midi": 64,
      "hit": false,
      "t": 61846.024999999965,
      "d": 919.228854166664,
      "v": 64
    },
    {
      "midi": 69,
      "hit": false,
      "t": 61846.024999999965,
      "d": 919.228854166664,
      "v": 64
    },
    {
      "midi": 45,
      "hit": false,
      "t": 62307.56249999996,
      "d": 457.6913541666654,
      "v": 64
    },
    {
      "midi": 45,
      "hit": false,
      "t": 62307.56249999996,
      "d": 457.6913541666654,
      "v": 64
    },
    {
      "midi": 61,
      "hit": false,
      "t": 62769.09999999996,
      "d": 1149.9976041666669,
      "v": 64
    },
    {
      "midi": 64,
      "hit": false,
      "t": 62769.09999999996,
      "d": 1149.9976041666669,
      "v": 64
    },
    {
      "midi": 69,
      "hit": false,
      "t": 62769.09999999996,
      "d": 1149.9976041666669,
      "v": 64
    },
    {
      "midi": 45,
      "hit": false,
      "t": 62769.09999999996,
      "d": 1842.3038541666756,
      "v": 64
    },
    {
      "midi": 61,
      "hit": false,
      "t": 62769.09999999996,
      "d": 1149.9976041666669,
      "v": 64
    },
    {
      "midi": 64,
      "hit": false,
      "t": 62769.09999999996,
      "d": 1149.9976041666669,
      "v": 64
    },
    {
      "midi": 69,
      "hit": false,
      "t": 62769.09999999996,
      "d": 1149.9976041666669,
      "v": 64
    },
    {
      "midi": 45,
      "hit": false,
      "t": 62769.09999999996,
      "d": 1842.3038541666756,
      "v": 64
    },
    {
      "midi": 59,
      "hit": false,
      "t": 63922.94374999996,
      "d": 226.92260416666977,
      "v": 64
    },
    {
      "midi": 59,
      "hit": false,
      "t": 63922.94374999996,
      "d": 226.92260416666977,
      "v": 64
    },
    {
      "midi": 61,
      "hit": false,
      "t": 64153.712499999965,
      "d": 226.92260416666977,
      "v": 64
    },
    {
      "midi": 61,
      "hit": false,
      "t": 64153.712499999965,
      "d": 226.92260416666977,
      "v": 64
    },
    {
      "midi": 68,
      "hit": false,
      "t": 64384.48124999997,
      "d": 226.92260416666977,
      "v": 64
    },
    {
      "midi": 68,
      "hit": false,
      "t": 64384.48124999997,
      "d": 226.92260416666977,
      "v": 64
    },
    {
      "midi": 61,
      "hit": false,
      "t": 64615.24999999997,
      "d": 919.228854166664,
      "v": 64
    },
    {
      "midi": 64,
      "hit": false,
      "t": 64615.24999999997,
      "d": 919.228854166664,
      "v": 64
    },
    {
      "midi": 69,
      "hit": false,
      "t": 64615.24999999997,
      "d": 919.228854166664,
      "v": 64
    },
    {
      "midi": 42,
      "hit": false,
      "t": 64615.24999999997,
      "d": 1380.7663541666698,
      "v": 64
    },
    {
      "midi": 61,
      "hit": false,
      "t": 64615.24999999997,
      "d": 919.228854166664,
      "v": 64
    },
    {
      "midi": 64,
      "hit": false,
      "t": 64615.24999999997,
      "d": 919.228854166664,
      "v": 64
    },
    {
      "midi": 69,
      "hit": false,
      "t": 64615.24999999997,
      "d": 919.228854166664,
      "v": 64
    },
    {
      "midi": 42,
      "hit": false,
      "t": 64615.24999999997,
      "d": 1380.7663541666698,
      "v": 64
    },
    {
      "midi": 61,
      "hit": false,
      "t": 65538.32499999997,
      "d": 919.2288541666785,
      "v": 64
    },
    {
      "midi": 64,
      "hit": false,
      "t": 65538.32499999997,
      "d": 919.2288541666785,
      "v": 64
    },
    {
      "midi": 69,
      "hit": false,
      "t": 65538.32499999997,
      "d": 919.2288541666785,
      "v": 64
    },
    {
      "midi": 61,
      "hit": false,
      "t": 65538.32499999997,
      "d": 919.2288541666785,
      "v": 64
    },
    {
      "midi": 64,
      "hit": false,
      "t": 65538.32499999997,
      "d": 919.2288541666785,
      "v": 64
    },
    {
      "midi": 69,
      "hit": false,
      "t": 65538.32499999997,
      "d": 919.2288541666785,
      "v": 64
    },
    {
      "midi": 42,
      "hit": false,
      "t": 65999.86249999997,
      "d": 457.6913541666727,
      "v": 64
    },
    {
      "midi": 42,
      "hit": false,
      "t": 65999.86249999997,
      "d": 457.6913541666727,
      "v": 64
    },
    {
      "midi": 42,
      "hit": false,
      "t": 66461.39999999998,
      "d": 919.228854166664,
      "v": 64
    },
    {
      "midi": 61,
      "hit": false,
      "t": 66461.39999999998,
      "d": 919.228854166664,
      "v": 64
    },
    {
      "midi": 64,
      "hit": false,
      "t": 66461.39999999998,
      "d": 919.228854166664,
      "v": 64
    },
    {
      "midi": 69,
      "hit": false,
      "t": 66461.39999999998,
      "d": 919.228854166664,
      "v": 64
    },
    {
      "midi": 42,
      "hit": false,
      "t": 66461.39999999998,
      "d": 919.228854166664,
      "v": 64
    },
    {
      "midi": 61,
      "hit": false,
      "t": 66461.39999999998,
      "d": 919.228854166664,
      "v": 64
    },
    {
      "midi": 64,
      "hit": false,
      "t": 66461.39999999998,
      "d": 919.228854166664,
      "v": 64
    },
    {
      "midi": 69,
      "hit": false,
      "t": 66461.39999999998,
      "d": 919.228854166664,
      "v": 64
    },
    {
      "midi": 39,
      "hit": false,
      "t": 67384.47499999998,
      "d": 919.228854166664,
      "v": 64
    },
    {
      "midi": 59,
      "hit": false,
      "t": 67384.47499999998,
      "d": 919.228854166664,
      "v": 64
    },
    {
      "midi": 66,
      "hit": false,
      "t": 67384.47499999998,
      "d": 919.228854166664,
      "v": 64
    },
    {
      "midi": 39,
      "hit": false,
      "t": 67384.47499999998,
      "d": 919.228854166664,
      "v": 64
    },
    {
      "midi": 59,
      "hit": false,
      "t": 67384.47499999998,
      "d": 919.228854166664,
      "v": 64
    },
    {
      "midi": 66,
      "hit": false,
      "t": 67384.47499999998,
      "d": 919.228854166664,
      "v": 64
    },
    {
      "midi": 40,
      "hit": false,
      "t": 68307.54999999997,
      "d": 1380.7663541666698,
      "v": 64
    },
    {
      "midi": 59,
      "hit": false,
      "t": 68307.54999999997,
      "d": 1380.7663541666698,
      "v": 64
    },
    {
      "midi": 64,
      "hit": false,
      "t": 68307.54999999997,
      "d": 1380.7663541666698,
      "v": 64
    },
    {
      "midi": 68,
      "hit": false,
      "t": 68307.54999999997,
      "d": 1380.7663541666698,
      "v": 64
    },
    {
      "midi": 40,
      "hit": false,
      "t": 68307.54999999997,
      "d": 1380.7663541666698,
      "v": 64
    },
    {
      "midi": 59,
      "hit": false,
      "t": 68307.54999999997,
      "d": 1380.7663541666698,
      "v": 64
    },
    {
      "midi": 64,
      "hit": false,
      "t": 68307.54999999997,
      "d": 1380.7663541666698,
      "v": 64
    },
    {
      "midi": 68,
      "hit": false,
      "t": 68307.54999999997,
      "d": 1380.7663541666698,
      "v": 64
    },
    {
      "midi": 40,
      "hit": false,
      "t": 69692.16249999998,
      "d": 226.92260416666977,
      "v": 64
    },
    {
      "midi": 68,
      "hit": false,
      "t": 69692.16249999998,
      "d": 226.92260416666977,
      "v": 64
    },
    {
      "midi": 40,
      "hit": false,
      "t": 69692.16249999998,
      "d": 226.92260416666977,
      "v": 64
    },
    {
      "midi": 68,
      "hit": false,
      "t": 69692.16249999998,
      "d": 226.92260416666977,
      "v": 64
    },
    {
      "midi": 42,
      "hit": false,
      "t": 69922.93124999998,
      "d": 226.92260416666977,
      "v": 64
    },
    {
      "midi": 69,
      "hit": false,
      "t": 69922.93124999998,
      "d": 226.92260416666977,
      "v": 64
    },
    {
      "midi": 42,
      "hit": false,
      "t": 69922.93124999998,
      "d": 226.92260416666977,
      "v": 64
    },
    {
      "midi": 69,
      "hit": false,
      "t": 69922.93124999998,
      "d": 226.92260416666977,
      "v": 64
    },
    {
      "midi": 59,
      "hit": false,
      "t": 70153.69999999998,
      "d": 457.6913541666727,
      "v": 64
    },
    {
      "midi": 64,
      "hit": false,
      "t": 70153.69999999998,
      "d": 457.6913541666727,
      "v": 64
    },
    {
      "midi": 71,
      "hit": false,
      "t": 70153.69999999998,
      "d": 457.6913541666727,
      "v": 64
    },
    {
      "midi": 44,
      "hit": false,
      "t": 70153.69999999998,
      "d": 688.4601041666756,
      "v": 64
    },
    {
      "midi": 59,
      "hit": false,
      "t": 70153.69999999998,
      "d": 457.6913541666727,
      "v": 64
    },
    {
      "midi": 64,
      "hit": false,
      "t": 70153.69999999998,
      "d": 457.6913541666727,
      "v": 64
    },
    {
      "midi": 71,
      "hit": false,
      "t": 70153.69999999998,
      "d": 457.6913541666727,
      "v": 64
    },
    {
      "midi": 44,
      "hit": false,
      "t": 70153.69999999998,
      "d": 688.4601041666756,
      "v": 64
    },
    {
      "midi": 71,
      "hit": false,
      "t": 70615.23749999999,
      "d": 226.92260416666977,
      "v": 64
    },
    {
      "midi": 71,
      "hit": false,
      "t": 70615.23749999999,
      "d": 226.92260416666977,
      "v": 64
    },
    {
      "midi": 42,
      "hit": false,
      "t": 70846.00624999999,
      "d": 688.460104166661,
      "v": 64
    },
    {
      "midi": 59,
      "hit": false,
      "t": 70846.00624999999,
      "d": 688.460104166661,
      "v": 64
    },
    {
      "midi": 64,
      "hit": false,
      "t": 70846.00624999999,
      "d": 688.460104166661,
      "v": 64
    },
    {
      "midi": 69,
      "hit": false,
      "t": 70846.00624999999,
      "d": 688.460104166661,
      "v": 64
    },
    {
      "midi": 42,
      "hit": false,
      "t": 70846.00624999999,
      "d": 688.460104166661,
      "v": 64
    },
    {
      "midi": 59,
      "hit": false,
      "t": 70846.00624999999,
      "d": 688.460104166661,
      "v": 64
    },
    {
      "midi": 64,
      "hit": false,
      "t": 70846.00624999999,
      "d": 688.460104166661,
      "v": 64
    },
    {
      "midi": 69,
      "hit": false,
      "t": 70846.00624999999,
      "d": 688.460104166661,
      "v": 64
    },
    {
      "midi": 40,
      "hit": false,
      "t": 71538.31249999999,
      "d": 457.6913541666727,
      "v": 64
    },
    {
      "midi": 59,
      "hit": false,
      "t": 71538.31249999999,
      "d": 457.6913541666727,
      "v": 64
    },
    {
      "midi": 64,
      "hit": false,
      "t": 71538.31249999999,
      "d": 457.6913541666727,
      "v": 64
    },
    {
      "midi": 68,
      "hit": false,
      "t": 71538.31249999999,
      "d": 457.6913541666727,
      "v": 64
    },
    {
      "midi": 40,
      "hit": false,
      "t": 71538.31249999999,
      "d": 457.6913541666727,
      "v": 64
    },
    {
      "midi": 59,
      "hit": false,
      "t": 71538.31249999999,
      "d": 457.6913541666727,
      "v": 64
    },
    {
      "midi": 64,
      "hit": false,
      "t": 71538.31249999999,
      "d": 457.6913541666727,
      "v": 64
    },
    {
      "midi": 68,
      "hit": false,
      "t": 71538.31249999999,
      "d": 457.6913541666727,
      "v": 64
    },
    {
      "midi": 57,
      "hit": false,
      "t": 71999.84999999999,
      "d": 919.228854166664,
      "v": 64
    },
    {
      "midi": 64,
      "hit": false,
      "t": 71999.84999999999,
      "d": 919.228854166664,
      "v": 64
    },
    {
      "midi": 66,
      "hit": false,
      "t": 71999.84999999999,
      "d": 919.228854166664,
      "v": 64
    },
    {
      "midi": 38,
      "hit": false,
      "t": 71999.84999999999,
      "d": 1380.7663541666698,
      "v": 64
    },
    {
      "midi": 57,
      "hit": false,
      "t": 71999.84999999999,
      "d": 919.228854166664,
      "v": 64
    },
    {
      "midi": 64,
      "hit": false,
      "t": 71999.84999999999,
      "d": 919.228854166664,
      "v": 64
    },
    {
      "midi": 66,
      "hit": false,
      "t": 71999.84999999999,
      "d": 919.228854166664,
      "v": 64
    },
    {
      "midi": 38,
      "hit": false,
      "t": 71999.84999999999,
      "d": 1380.7663541666698,
      "v": 64
    },
    {
      "midi": 57,
      "hit": false,
      "t": 72922.92499999999,
      "d": 919.2288541666785,
      "v": 64
    },
    {
      "midi": 64,
      "hit": false,
      "t": 72922.92499999999,
      "d": 919.2288541666785,
      "v": 64
    },
    {
      "midi": 66,
      "hit": false,
      "t": 72922.92499999999,
      "d": 919.2288541666785,
      "v": 64
    },
    {
      "midi": 57,
      "hit": false,
      "t": 72922.92499999999,
      "d": 919.2288541666785,
      "v": 64
    },
    {
      "midi": 64,
      "hit": false,
      "t": 72922.92499999999,
      "d": 919.2288541666785,
      "v": 64
    },
    {
      "midi": 66,
      "hit": false,
      "t": 72922.92499999999,
      "d": 919.2288541666785,
      "v": 64
    },
    {
      "midi": 38,
      "hit": false,
      "t": 73384.4625,
      "d": 457.6913541666727,
      "v": 64
    },
    {
      "midi": 38,
      "hit": false,
      "t": 73384.4625,
      "d": 457.6913541666727,
      "v": 64
    },
    {
      "midi": 57,
      "hit": false,
      "t": 73846,
      "d": 919.228854166664,
      "v": 64
    },
    {
      "midi": 62,
      "hit": false,
      "t": 73846,
      "d": 919.228854166664,
      "v": 64
    },
    {
      "midi": 66,
      "hit": false,
      "t": 73846,
      "d": 919.228854166664,
      "v": 64
    },
    {
      "midi": 38,
      "hit": false,
      "t": 73846,
      "d": 1842.3038541666756,
      "v": 64
    },
    {
      "midi": 57,
      "hit": false,
      "t": 73846,
      "d": 919.228854166664,
      "v": 64
    },
    {
      "midi": 62,
      "hit": false,
      "t": 73846,
      "d": 919.228854166664,
      "v": 64
    },
    {
      "midi": 66,
      "hit": false,
      "t": 73846,
      "d": 919.228854166664,
      "v": 64
    },
    {
      "midi": 38,
      "hit": false,
      "t": 73846,
      "d": 1842.3038541666756,
      "v": 64
    },
    {
      "midi": 57,
      "hit": false,
      "t": 74769.075,
      "d": 457.6913541666727,
      "v": 64
    },
    {
      "midi": 62,
      "hit": false,
      "t": 74769.075,
      "d": 457.6913541666727,
      "v": 64
    },
    {
      "midi": 66,
      "hit": false,
      "t": 74769.075,
      "d": 457.6913541666727,
      "v": 64
    },
    {
      "midi": 57,
      "hit": false,
      "t": 74769.075,
      "d": 457.6913541666727,
      "v": 64
    },
    {
      "midi": 62,
      "hit": false,
      "t": 74769.075,
      "d": 457.6913541666727,
      "v": 64
    },
    {
      "midi": 66,
      "hit": false,
      "t": 74769.075,
      "d": 457.6913541666727,
      "v": 64
    },
    {
      "midi": 64,
      "hit": false,
      "t": 75230.6125,
      "d": 226.92260416666977,
      "v": 64
    },
    {
      "midi": 64,
      "hit": false,
      "t": 75230.6125,
      "d": 226.92260416666977,
      "v": 64
    },
    {
      "midi": 68,
      "hit": false,
      "t": 75461.38125,
      "d": 226.92260416666977,
      "v": 64
    },
    {
      "midi": 68,
      "hit": false,
      "t": 75461.38125,
      "d": 226.92260416666977,
      "v": 64
    },
    {
      "midi": 57,
      "hit": false,
      "t": 75692.15000000001,
      "d": 919.228854166664,
      "v": 64
    },
    {
      "midi": 64,
      "hit": false,
      "t": 75692.15000000001,
      "d": 919.228854166664,
      "v": 64
    },
    {
      "midi": 66,
      "hit": false,
      "t": 75692.15000000001,
      "d": 919.228854166664,
      "v": 64
    },
    {
      "midi": 47,
      "hit": false,
      "t": 75692.15000000001,
      "d": 1380.7663541666698,
      "v": 64
    },
    {
      "midi": 57,
      "hit": false,
      "t": 75692.15000000001,
      "d": 919.228854166664,
      "v": 64
    },
    {
      "midi": 64,
      "hit": false,
      "t": 75692.15000000001,
      "d": 919.228854166664,
      "v": 64
    },
    {
      "midi": 66,
      "hit": false,
      "t": 75692.15000000001,
      "d": 919.228854166664,
      "v": 64
    },
    {
      "midi": 47,
      "hit": false,
      "t": 75692.15000000001,
      "d": 1380.7663541666698,
      "v": 64
    },
    {
      "midi": 57,
      "hit": false,
      "t": 76615.225,
      "d": 919.2288541666785,
      "v": 64
    },
    {
      "midi": 64,
      "hit": false,
      "t": 76615.225,
      "d": 919.2288541666785,
      "v": 64
    },
    {
      "midi": 66,
      "hit": false,
      "t": 76615.225,
      "d": 919.2288541666785,
      "v": 64
    },
    {
      "midi": 57,
      "hit": false,
      "t": 76615.225,
      "d": 919.2288541666785,
      "v": 64
    },
    {
      "midi": 64,
      "hit": false,
      "t": 76615.225,
      "d": 919.2288541666785,
      "v": 64
    },
    {
      "midi": 66,
      "hit": false,
      "t": 76615.225,
      "d": 919.2288541666785,
      "v": 64
    },
    {
      "midi": 47,
      "hit": false,
      "t": 77076.76250000001,
      "d": 457.6913541666727,
      "v": 64
    },
    {
      "midi": 47,
      "hit": false,
      "t": 77076.76250000001,
      "d": 457.6913541666727,
      "v": 64
    },
    {
      "midi": 57,
      "hit": false,
      "t": 77538.30000000002,
      "d": 457.6913541666727,
      "v": 64
    },
    {
      "midi": 61,
      "hit": false,
      "t": 77538.30000000002,
      "d": 457.6913541666727,
      "v": 64
    },
    {
      "midi": 64,
      "hit": false,
      "t": 77538.30000000002,
      "d": 457.6913541666727,
      "v": 64
    },
    {
      "midi": 47,
      "hit": false,
      "t": 77538.30000000002,
      "d": 919.2288541666785,
      "v": 64
    },
    {
      "midi": 57,
      "hit": false,
      "t": 77538.30000000002,
      "d": 457.6913541666727,
      "v": 64
    },
    {
      "midi": 61,
      "hit": false,
      "t": 77538.30000000002,
      "d": 457.6913541666727,
      "v": 64
    },
    {
      "midi": 64,
      "hit": false,
      "t": 77538.30000000002,
      "d": 457.6913541666727,
      "v": 64
    },
    {
      "midi": 47,
      "hit": false,
      "t": 77538.30000000002,
      "d": 919.2288541666785,
      "v": 64
    },
    {
      "midi": 66,
      "hit": false,
      "t": 77999.83750000002,
      "d": 457.6913541666727,
      "v": 64
    },
    {
      "midi": 66,
      "hit": false,
      "t": 77999.83750000002,
      "d": 457.6913541666727,
      "v": 64
    },
    {
      "midi": 57,
      "hit": false,
      "t": 78461.37500000003,
      "d": 457.6913541666727,
      "v": 64
    },
    {
      "midi": 63,
      "hit": false,
      "t": 78461.37500000003,
      "d": 457.6913541666727,
      "v": 64
    },
    {
      "midi": 68,
      "hit": false,
      "t": 78461.37500000003,
      "d": 457.6913541666727,
      "v": 64
    },
    {
      "midi": 47,
      "hit": false,
      "t": 78461.37500000003,
      "d": 919.2288541666785,
      "v": 64
    },
    {
      "midi": 57,
      "hit": false,
      "t": 78461.37500000003,
      "d": 457.6913541666727,
      "v": 64
    },
    {
      "midi": 63,
      "hit": false,
      "t": 78461.37500000003,
      "d": 457.6913541666727,
      "v": 64
    },
    {
      "midi": 68,
      "hit": false,
      "t": 78461.37500000003,
      "d": 457.6913541666727,
      "v": 64
    },
    {
      "midi": 47,
      "hit": false,
      "t": 78461.37500000003,
      "d": 919.2288541666785,
      "v": 64
    },
    {
      "midi": 69,
      "hit": false,
      "t": 78922.91250000003,
      "d": 226.92260416666977,
      "v": 64
    },
    {
      "midi": 69,
      "hit": false,
      "t": 78922.91250000003,
      "d": 226.92260416666977,
      "v": 64
    },
    {
      "midi": 71,
      "hit": false,
      "t": 79153.68125000004,
      "d": 226.92260416666977,
      "v": 64
    },
    {
      "midi": 71,
      "hit": false,
      "t": 79153.68125000004,
      "d": 226.92260416666977,
      "v": 64
    },
    {
      "midi": 59,
      "hit": false,
      "t": 79384.45000000004,
      "d": 919.228854166664,
      "v": 64
    },
    {
      "midi": 64,
      "hit": false,
      "t": 79384.45000000004,
      "d": 919.228854166664,
      "v": 64
    },
    {
      "midi": 68,
      "hit": false,
      "t": 79384.45000000004,
      "d": 919.228854166664,
      "v": 64
    },
    {
      "midi": 71,
      "hit": false,
      "t": 79384.45000000004,
      "d": 919.228854166664,
      "v": 64
    },
    {
      "midi": 40,
      "hit": false,
      "t": 79384.45000000004,
      "d": 1380.7663541666698,
      "v": 64
    },
    {
      "midi": 59,
      "hit": false,
      "t": 79384.45000000004,
      "d": 919.228854166664,
      "v": 64
    },
    {
      "midi": 64,
      "hit": false,
      "t": 79384.45000000004,
      "d": 919.228854166664,
      "v": 64
    },
    {
      "midi": 68,
      "hit": false,
      "t": 79384.45000000004,
      "d": 919.228854166664,
      "v": 64
    },
    {
      "midi": 71,
      "hit": false,
      "t": 79384.45000000004,
      "d": 919.228854166664,
      "v": 64
    },
    {
      "midi": 40,
      "hit": false,
      "t": 79384.45000000004,
      "d": 1380.7663541666698,
      "v": 64
    },
    {
      "midi": 59,
      "hit": false,
      "t": 80307.52500000004,
      "d": 919.2288541666785,
      "v": 64
    },
    {
      "midi": 64,
      "hit": false,
      "t": 80307.52500000004,
      "d": 919.2288541666785,
      "v": 64
    },
    {
      "midi": 68,
      "hit": false,
      "t": 80307.52500000004,
      "d": 919.2288541666785,
      "v": 64
    },
    {
      "midi": 71,
      "hit": false,
      "t": 80307.52500000004,
      "d": 919.2288541666785,
      "v": 64
    },
    {
      "midi": 59,
      "hit": false,
      "t": 80307.52500000004,
      "d": 919.2288541666785,
      "v": 64
    },
    {
      "midi": 64,
      "hit": false,
      "t": 80307.52500000004,
      "d": 919.2288541666785,
      "v": 64
    },
    {
      "midi": 68,
      "hit": false,
      "t": 80307.52500000004,
      "d": 919.2288541666785,
      "v": 64
    },
    {
      "midi": 71,
      "hit": false,
      "t": 80307.52500000004,
      "d": 919.2288541666785,
      "v": 64
    },
    {
      "midi": 40,
      "hit": false,
      "t": 80769.06250000004,
      "d": 226.92260416666977,
      "v": 64
    },
    {
      "midi": 40,
      "hit": false,
      "t": 80769.06250000004,
      "d": 226.92260416666977,
      "v": 64
    },
    {
      "midi": 42,
      "hit": false,
      "t": 80999.83125000005,
      "d": 226.92260416666977,
      "v": 64
    },
    {
      "midi": 42,
      "hit": false,
      "t": 80999.83125000005,
      "d": 226.92260416666977,
      "v": 64
    },
    {
      "midi": 59,
      "hit": false,
      "t": 81230.60000000005,
      "d": 919.228854166664,
      "v": 64
    },
    {
      "midi": 64,
      "hit": false,
      "t": 81230.60000000005,
      "d": 919.228854166664,
      "v": 64
    },
    {
      "midi": 71,
      "hit": false,
      "t": 81230.60000000005,
      "d": 919.228854166664,
      "v": 64
    },
    {
      "midi": 44,
      "hit": false,
      "t": 81230.60000000005,
      "d": 1380.7663541666698,
      "v": 64
    },
    {
      "midi": 59,
      "hit": false,
      "t": 81230.60000000005,
      "d": 919.228854166664,
      "v": 64
    },
    {
      "midi": 64,
      "hit": false,
      "t": 81230.60000000005,
      "d": 919.228854166664,
      "v": 64
    },
    {
      "midi": 71,
      "hit": false,
      "t": 81230.60000000005,
      "d": 919.228854166664,
      "v": 64
    },
    {
      "midi": 44,
      "hit": false,
      "t": 81230.60000000005,
      "d": 1380.7663541666698,
      "v": 64
    },
    {
      "midi": 59,
      "hit": false,
      "t": 82153.67500000005,
      "d": 919.2288541666785,
      "v": 64
    },
    {
      "midi": 64,
      "hit": false,
      "t": 82153.67500000005,
      "d": 919.2288541666785,
      "v": 64
    },
    {
      "midi": 71,
      "hit": false,
      "t": 82153.67500000005,
      "d": 919.2288541666785,
      "v": 64
    },
    {
      "midi": 59,
      "hit": false,
      "t": 82153.67500000005,
      "d": 919.2288541666785,
      "v": 64
    },
    {
      "midi": 64,
      "hit": false,
      "t": 82153.67500000005,
      "d": 919.2288541666785,
      "v": 64
    },
    {
      "midi": 71,
      "hit": false,
      "t": 82153.67500000005,
      "d": 919.2288541666785,
      "v": 64
    },
    {
      "midi": 44,
      "hit": false,
      "t": 82615.21250000005,
      "d": 457.6913541666727,
      "v": 64
    },
    {
      "midi": 44,
      "hit": false,
      "t": 82615.21250000005,
      "d": 457.6913541666727,
      "v": 64
    },
    {
      "midi": 57,
      "hit": false,
      "t": 83076.75000000006,
      "d": 919.228854166664,
      "v": 64
    },
    {
      "midi": 61,
      "hit": false,
      "t": 83076.75000000006,
      "d": 919.228854166664,
      "v": 64
    },
    {
      "midi": 64,
      "hit": false,
      "t": 83076.75000000006,
      "d": 919.228854166664,
      "v": 64
    },
    {
      "midi": 45,
      "hit": false,
      "t": 83076.75000000006,
      "d": 1380.7663541666698,
      "v": 64
    },
    {
      "midi": 57,
      "hit": false,
      "t": 83076.75000000006,
      "d": 919.228854166664,
      "v": 64
    },
    {
      "midi": 61,
      "hit": false,
      "t": 83076.75000000006,
      "d": 919.228854166664,
      "v": 64
    },
    {
      "midi": 64,
      "hit": false,
      "t": 83076.75000000006,
      "d": 919.228854166664,
      "v": 64
    },
    {
      "midi": 45,
      "hit": false,
      "t": 83076.75000000006,
      "d": 1380.7663541666698,
      "v": 64
    },
    {
      "midi": 57,
      "hit": false,
      "t": 83999.82500000006,
      "d": 919.2288541666785,
      "v": 64
    },
    {
      "midi": 61,
      "hit": false,
      "t": 83999.82500000006,
      "d": 919.2288541666785,
      "v": 64
    },
    {
      "midi": 64,
      "hit": false,
      "t": 83999.82500000006,
      "d": 919.2288541666785,
      "v": 64
    },
    {
      "midi": 57,
      "hit": false,
      "t": 83999.82500000006,
      "d": 919.2288541666785,
      "v": 64
    },
    {
      "midi": 61,
      "hit": false,
      "t": 83999.82500000006,
      "d": 919.2288541666785,
      "v": 64
    },
    {
      "midi": 64,
      "hit": false,
      "t": 83999.82500000006,
      "d": 919.2288541666785,
      "v": 64
    },
    {
      "midi": 45,
      "hit": false,
      "t": 84461.36250000006,
      "d": 457.6913541666727,
      "v": 64
    },
    {
      "midi": 45,
      "hit": false,
      "t": 84461.36250000006,
      "d": 457.6913541666727,
      "v": 64
    },
    {
      "midi": 47,
      "hit": false,
      "t": 84922.90000000007,
      "d": 919.228854166664,
      "v": 64
    },
    {
      "midi": 57,
      "hit": false,
      "t": 84922.90000000007,
      "d": 919.228854166664,
      "v": 64
    },
    {
      "midi": 61,
      "hit": false,
      "t": 84922.90000000007,
      "d": 919.228854166664,
      "v": 64
    },
    {
      "midi": 64,
      "hit": false,
      "t": 84922.90000000007,
      "d": 919.228854166664,
      "v": 64
    },
    {
      "midi": 47,
      "hit": false,
      "t": 84922.90000000007,
      "d": 919.228854166664,
      "v": 64
    },
    {
      "midi": 57,
      "hit": false,
      "t": 84922.90000000007,
      "d": 919.228854166664,
      "v": 64
    },
    {
      "midi": 61,
      "hit": false,
      "t": 84922.90000000007,
      "d": 919.228854166664,
      "v": 64
    },
    {
      "midi": 64,
      "hit": false,
      "t": 84922.90000000007,
      "d": 919.228854166664,
      "v": 64
    },
    {
      "midi": 73,
      "hit": false,
      "t": 85845.97500000006,
      "d": 457.6913541666727,
      "v": 64
    },
    {
      "midi": 45,
      "hit": false,
      "t": 85845.97500000006,
      "d": 919.2288541666785,
      "v": 64
    },
    {
      "midi": 63,
      "hit": false,
      "t": 85845.97500000006,
      "d": 919.2288541666785,
      "v": 64
    },
    {
      "midi": 66,
      "hit": false,
      "t": 85845.97500000006,
      "d": 919.2288541666785,
      "v": 64
    },
    {
      "midi": 73,
      "hit": false,
      "t": 85845.97500000006,
      "d": 457.6913541666727,
      "v": 64
    },
    {
      "midi": 45,
      "hit": false,
      "t": 85845.97500000006,
      "d": 919.2288541666785,
      "v": 64
    },
    {
      "midi": 63,
      "hit": false,
      "t": 85845.97500000006,
      "d": 919.2288541666785,
      "v": 64
    },
    {
      "midi": 66,
      "hit": false,
      "t": 85845.97500000006,
      "d": 919.2288541666785,
      "v": 64
    },
    {
      "midi": 75,
      "hit": false,
      "t": 86307.51250000007,
      "d": 457.6913541666727,
      "v": 64
    },
    {
      "midi": 75,
      "hit": false,
      "t": 86307.51250000007,
      "d": 457.6913541666727,
      "v": 64
    },
    {
      "midi": 63,
      "hit": false,
      "t": 86769.05000000008,
      "d": 919.228854166664,
      "v": 64
    },
    {
      "midi": 66,
      "hit": false,
      "t": 86769.05000000008,
      "d": 919.228854166664,
      "v": 64
    },
    {
      "midi": 71,
      "hit": false,
      "t": 86769.05000000008,
      "d": 919.228854166664,
      "v": 64
    },
    {
      "midi": 44,
      "hit": false,
      "t": 86769.05000000008,
      "d": 1380.7663541666698,
      "v": 64
    },
    {
      "midi": 63,
      "hit": false,
      "t": 86769.05000000008,
      "d": 919.228854166664,
      "v": 64
    },
    {
      "midi": 66,
      "hit": false,
      "t": 86769.05000000008,
      "d": 919.228854166664,
      "v": 64
    },
    {
      "midi": 71,
      "hit": false,
      "t": 86769.05000000008,
      "d": 919.228854166664,
      "v": 64
    },
    {
      "midi": 44,
      "hit": false,
      "t": 86769.05000000008,
      "d": 1380.7663541666698,
      "v": 64
    },
    {
      "midi": 63,
      "hit": false,
      "t": 87692.12500000007,
      "d": 919.2288541666785,
      "v": 64
    },
    {
      "midi": 66,
      "hit": false,
      "t": 87692.12500000007,
      "d": 919.2288541666785,
      "v": 64
    },
    {
      "midi": 71,
      "hit": false,
      "t": 87692.12500000007,
      "d": 919.2288541666785,
      "v": 64
    },
    {
      "midi": 63,
      "hit": false,
      "t": 87692.12500000007,
      "d": 919.2288541666785,
      "v": 64
    },
    {
      "midi": 66,
      "hit": false,
      "t": 87692.12500000007,
      "d": 919.2288541666785,
      "v": 64
    },
    {
      "midi": 71,
      "hit": false,
      "t": 87692.12500000007,
      "d": 919.2288541666785,
      "v": 64
    },
    {
      "midi": 44,
      "hit": false,
      "t": 88153.66250000008,
      "d": 457.6913541666727,
      "v": 64
    },
    {
      "midi": 44,
      "hit": false,
      "t": 88153.66250000008,
      "d": 457.6913541666727,
      "v": 64
    },
    {
      "midi": 49,
      "hit": false,
      "t": 88615.20000000008,
      "d": 919.228854166664,
      "v": 64
    },
    {
      "midi": 64,
      "hit": false,
      "t": 88615.20000000008,
      "d": 919.228854166664,
      "v": 64
    },
    {
      "midi": 68,
      "hit": false,
      "t": 88615.20000000008,
      "d": 919.228854166664,
      "v": 64
    },
    {
      "midi": 71,
      "hit": false,
      "t": 88615.20000000008,
      "d": 919.228854166664,
      "v": 64
    },
    {
      "midi": 49,
      "hit": false,
      "t": 88615.20000000008,
      "d": 919.228854166664,
      "v": 64
    },
    {
      "midi": 64,
      "hit": false,
      "t": 88615.20000000008,
      "d": 919.228854166664,
      "v": 64
    },
    {
      "midi": 68,
      "hit": false,
      "t": 88615.20000000008,
      "d": 919.228854166664,
      "v": 64
    },
    {
      "midi": 71,
      "hit": false,
      "t": 88615.20000000008,
      "d": 919.228854166664,
      "v": 64
    },
    {
      "midi": 37,
      "hit": false,
      "t": 89538.27500000008,
      "d": 919.228854166664,
      "v": 64
    },
    {
      "midi": 64,
      "hit": false,
      "t": 89538.27500000008,
      "d": 919.228854166664,
      "v": 64
    },
    {
      "midi": 68,
      "hit": false,
      "t": 89538.27500000008,
      "d": 919.228854166664,
      "v": 64
    },
    {
      "midi": 71,
      "hit": false,
      "t": 89538.27500000008,
      "d": 919.228854166664,
      "v": 64
    },
    {
      "midi": 37,
      "hit": false,
      "t": 89538.27500000008,
      "d": 919.228854166664,
      "v": 64
    },
    {
      "midi": 64,
      "hit": false,
      "t": 89538.27500000008,
      "d": 919.228854166664,
      "v": 64
    },
    {
      "midi": 68,
      "hit": false,
      "t": 89538.27500000008,
      "d": 919.228854166664,
      "v": 64
    },
    {
      "midi": 71,
      "hit": false,
      "t": 89538.27500000008,
      "d": 919.228854166664,
      "v": 64
    },
    {
      "midi": 61,
      "hit": false,
      "t": 90461.35000000008,
      "d": 919.228854166664,
      "v": 64
    },
    {
      "midi": 64,
      "hit": false,
      "t": 90461.35000000008,
      "d": 919.228854166664,
      "v": 64
    },
    {
      "midi": 69,
      "hit": false,
      "t": 90461.35000000008,
      "d": 919.228854166664,
      "v": 64
    },
    {
      "midi": 42,
      "hit": false,
      "t": 90461.35000000008,
      "d": 1380.7663541666698,
      "v": 64
    },
    {
      "midi": 61,
      "hit": false,
      "t": 90461.35000000008,
      "d": 919.228854166664,
      "v": 64
    },
    {
      "midi": 64,
      "hit": false,
      "t": 90461.35000000008,
      "d": 919.228854166664,
      "v": 64
    },
    {
      "midi": 69,
      "hit": false,
      "t": 90461.35000000008,
      "d": 919.228854166664,
      "v": 64
    },
    {
      "midi": 42,
      "hit": false,
      "t": 90461.35000000008,
      "d": 1380.7663541666698,
      "v": 64
    },
    {
      "midi": 61,
      "hit": false,
      "t": 91384.42500000008,
      "d": 919.2288541666785,
      "v": 64
    },
    {
      "midi": 64,
      "hit": false,
      "t": 91384.42500000008,
      "d": 919.2288541666785,
      "v": 64
    },
    {
      "midi": 69,
      "hit": false,
      "t": 91384.42500000008,
      "d": 919.2288541666785,
      "v": 64
    },
    {
      "midi": 61,
      "hit": false,
      "t": 91384.42500000008,
      "d": 919.2288541666785,
      "v": 64
    },
    {
      "midi": 64,
      "hit": false,
      "t": 91384.42500000008,
      "d": 919.2288541666785,
      "v": 64
    },
    {
      "midi": 69,
      "hit": false,
      "t": 91384.42500000008,
      "d": 919.2288541666785,
      "v": 64
    },
    {
      "midi": 42,
      "hit": false,
      "t": 91845.96250000008,
      "d": 457.6913541666727,
      "v": 64
    },
    {
      "midi": 42,
      "hit": false,
      "t": 91845.96250000008,
      "d": 457.6913541666727,
      "v": 64
    },
    {
      "midi": 57,
      "hit": false,
      "t": 92307.50000000009,
      "d": 457.6913541666727,
      "v": 64
    },
    {
      "midi": 61,
      "hit": false,
      "t": 92307.50000000009,
      "d": 457.6913541666727,
      "v": 64
    },
    {
      "midi": 64,
      "hit": false,
      "t": 92307.50000000009,
      "d": 457.6913541666727,
      "v": 64
    },
    {
      "midi": 47,
      "hit": false,
      "t": 92307.50000000009,
      "d": 919.2288541666785,
      "v": 64
    },
    {
      "midi": 57,
      "hit": false,
      "t": 92307.50000000009,
      "d": 457.6913541666727,
      "v": 64
    },
    {
      "midi": 61,
      "hit": false,
      "t": 92307.50000000009,
      "d": 457.6913541666727,
      "v": 64
    },
    {
      "midi": 64,
      "hit": false,
      "t": 92307.50000000009,
      "d": 457.6913541666727,
      "v": 64
    },
    {
      "midi": 47,
      "hit": false,
      "t": 92307.50000000009,
      "d": 919.2288541666785,
      "v": 64
    },
    {
      "midi": 66,
      "hit": false,
      "t": 92769.0375000001,
      "d": 457.6913541666727,
      "v": 64
    },
    {
      "midi": 66,
      "hit": false,
      "t": 92769.0375000001,
      "d": 457.6913541666727,
      "v": 64
    },
    {
      "midi": 57,
      "hit": false,
      "t": 93230.5750000001,
      "d": 457.6913541666727,
      "v": 64
    },
    {
      "midi": 61,
      "hit": false,
      "t": 93230.5750000001,
      "d": 457.6913541666727,
      "v": 64
    },
    {
      "midi": 68,
      "hit": false,
      "t": 93230.5750000001,
      "d": 457.6913541666727,
      "v": 64
    },
    {
      "midi": 47,
      "hit": false,
      "t": 93230.5750000001,
      "d": 919.2288541666785,
      "v": 64
    },
    {
      "midi": 57,
      "hit": false,
      "t": 93230.5750000001,
      "d": 457.6913541666727,
      "v": 64
    },
    {
      "midi": 61,
      "hit": false,
      "t": 93230.5750000001,
      "d": 457.6913541666727,
      "v": 64
    },
    {
      "midi": 68,
      "hit": false,
      "t": 93230.5750000001,
      "d": 457.6913541666727,
      "v": 64
    },
    {
      "midi": 47,
      "hit": false,
      "t": 93230.5750000001,
      "d": 919.2288541666785,
      "v": 64
    },
    {
      "midi": 69,
      "hit": false,
      "t": 93692.1125000001,
      "d": 226.92260416666977,
      "v": 64
    },
    {
      "midi": 69,
      "hit": false,
      "t": 93692.1125000001,
      "d": 226.92260416666977,
      "v": 64
    },
    {
      "midi": 71,
      "hit": false,
      "t": 93922.88125000011,
      "d": 226.92260416666977,
      "v": 64
    },
    {
      "midi": 71,
      "hit": false,
      "t": 93922.88125000011,
      "d": 226.92260416666977,
      "v": 64
    },
    {
      "midi": 59,
      "hit": false,
      "t": 94153.65000000011,
      "d": 919.228854166664,
      "v": 64
    },
    {
      "midi": 64,
      "hit": false,
      "t": 94153.65000000011,
      "d": 919.228854166664,
      "v": 64
    },
    {
      "midi": 68,
      "hit": false,
      "t": 94153.65000000011,
      "d": 919.228854166664,
      "v": 64
    },
    {
      "midi": 71,
      "hit": false,
      "t": 94153.65000000011,
      "d": 919.228854166664,
      "v": 64
    },
    {
      "midi": 37,
      "hit": false,
      "t": 94153.65000000011,
      "d": 1380.7663541666698,
      "v": 64
    },
    {
      "midi": 59,
      "hit": false,
      "t": 94153.65000000011,
      "d": 919.228854166664,
      "v": 64
    },
    {
      "midi": 64,
      "hit": false,
      "t": 94153.65000000011,
      "d": 919.228854166664,
      "v": 64
    },
    {
      "midi": 68,
      "hit": false,
      "t": 94153.65000000011,
      "d": 919.228854166664,
      "v": 64
    },
    {
      "midi": 71,
      "hit": false,
      "t": 94153.65000000011,
      "d": 919.228854166664,
      "v": 64
    },
    {
      "midi": 37,
      "hit": false,
      "t": 94153.65000000011,
      "d": 1380.7663541666698,
      "v": 64
    },
    {
      "midi": 59,
      "hit": false,
      "t": 95076.72500000011,
      "d": 919.2288541666785,
      "v": 64
    },
    {
      "midi": 64,
      "hit": false,
      "t": 95076.72500000011,
      "d": 919.2288541666785,
      "v": 64
    },
    {
      "midi": 68,
      "hit": false,
      "t": 95076.72500000011,
      "d": 919.2288541666785,
      "v": 64
    },
    {
      "midi": 71,
      "hit": false,
      "t": 95076.72500000011,
      "d": 919.2288541666785,
      "v": 64
    },
    {
      "midi": 59,
      "hit": false,
      "t": 95076.72500000011,
      "d": 919.2288541666785,
      "v": 64
    },
    {
      "midi": 64,
      "hit": false,
      "t": 95076.72500000011,
      "d": 919.2288541666785,
      "v": 64
    },
    {
      "midi": 68,
      "hit": false,
      "t": 95076.72500000011,
      "d": 919.2288541666785,
      "v": 64
    },
    {
      "midi": 71,
      "hit": false,
      "t": 95076.72500000011,
      "d": 919.2288541666785,
      "v": 64
    },
    {
      "midi": 37,
      "hit": false,
      "t": 95538.26250000011,
      "d": 457.6913541666727,
      "v": 64
    },
    {
      "midi": 37,
      "hit": false,
      "t": 95538.26250000011,
      "d": 457.6913541666727,
      "v": 64
    },
    {
      "midi": 63,
      "hit": false,
      "t": 95999.80000000012,
      "d": 919.228854166664,
      "v": 64
    },
    {
      "midi": 66,
      "hit": false,
      "t": 95999.80000000012,
      "d": 919.228854166664,
      "v": 64
    },
    {
      "midi": 71,
      "hit": false,
      "t": 95999.80000000012,
      "d": 919.228854166664,
      "v": 64
    },
    {
      "midi": 44,
      "hit": false,
      "t": 95999.80000000012,
      "d": 1842.303854166661,
      "v": 64
    },
    {
      "midi": 63,
      "hit": false,
      "t": 95999.80000000012,
      "d": 919.228854166664,
      "v": 64
    },
    {
      "midi": 66,
      "hit": false,
      "t": 95999.80000000012,
      "d": 919.228854166664,
      "v": 64
    },
    {
      "midi": 71,
      "hit": false,
      "t": 95999.80000000012,
      "d": 919.228854166664,
      "v": 64
    },
    {
      "midi": 44,
      "hit": false,
      "t": 95999.80000000012,
      "d": 1842.303854166661,
      "v": 64
    },
    {
      "midi": 63,
      "hit": false,
      "t": 96922.87500000012,
      "d": 919.228854166664,
      "v": 64
    },
    {
      "midi": 66,
      "hit": false,
      "t": 96922.87500000012,
      "d": 919.228854166664,
      "v": 64
    },
    {
      "midi": 71,
      "hit": false,
      "t": 96922.87500000012,
      "d": 919.228854166664,
      "v": 64
    },
    {
      "midi": 63,
      "hit": false,
      "t": 96922.87500000012,
      "d": 919.228854166664,
      "v": 64
    },
    {
      "midi": 66,
      "hit": false,
      "t": 96922.87500000012,
      "d": 919.228854166664,
      "v": 64
    },
    {
      "midi": 71,
      "hit": false,
      "t": 96922.87500000012,
      "d": 919.228854166664,
      "v": 64
    },
    {
      "midi": 45,
      "hit": false,
      "t": 97845.95000000011,
      "d": 919.228854166664,
      "v": 64
    },
    {
      "midi": 64,
      "hit": false,
      "t": 97845.95000000011,
      "d": 919.228854166664,
      "v": 64
    },
    {
      "midi": 69,
      "hit": false,
      "t": 97845.95000000011,
      "d": 919.228854166664,
      "v": 64
    },
    {
      "midi": 73,
      "hit": false,
      "t": 97845.95000000011,
      "d": 919.228854166664,
      "v": 64
    },
    {
      "midi": 45,
      "hit": false,
      "t": 97845.95000000011,
      "d": 919.228854166664,
      "v": 64
    },
    {
      "midi": 64,
      "hit": false,
      "t": 97845.95000000011,
      "d": 919.228854166664,
      "v": 64
    },
    {
      "midi": 69,
      "hit": false,
      "t": 97845.95000000011,
      "d": 919.228854166664,
      "v": 64
    },
    {
      "midi": 73,
      "hit": false,
      "t": 97845.95000000011,
      "d": 919.228854166664,
      "v": 64
    },
    {
      "midi": 71,
      "hit": false,
      "t": 98769.02500000011,
      "d": 457.6913541666727,
      "v": 64
    },
    {
      "midi": 47,
      "hit": false,
      "t": 98769.02500000011,
      "d": 919.2288541666785,
      "v": 64
    },
    {
      "midi": 63,
      "hit": false,
      "t": 98769.02500000011,
      "d": 919.2288541666785,
      "v": 64
    },
    {
      "midi": 66,
      "hit": false,
      "t": 98769.02500000011,
      "d": 919.2288541666785,
      "v": 64
    },
    {
      "midi": 71,
      "hit": false,
      "t": 98769.02500000011,
      "d": 457.6913541666727,
      "v": 64
    },
    {
      "midi": 47,
      "hit": false,
      "t": 98769.02500000011,
      "d": 919.2288541666785,
      "v": 64
    },
    {
      "midi": 63,
      "hit": false,
      "t": 98769.02500000011,
      "d": 919.2288541666785,
      "v": 64
    },
    {
      "midi": 66,
      "hit": false,
      "t": 98769.02500000011,
      "d": 919.2288541666785,
      "v": 64
    },
    {
      "midi": 68,
      "hit": false,
      "t": 99230.56250000012,
      "d": 457.6913541666727,
      "v": 64
    },
    {
      "midi": 68,
      "hit": false,
      "t": 99230.56250000012,
      "d": 457.6913541666727,
      "v": 64
    },
    {
      "midi": 59,
      "hit": false,
      "t": 99692.10000000012,
      "d": 919.228854166664,
      "v": 64
    },
    {
      "midi": 66,
      "hit": false,
      "t": 99692.10000000012,
      "d": 919.228854166664,
      "v": 64
    },
    {
      "midi": 68,
      "hit": false,
      "t": 99692.10000000012,
      "d": 919.228854166664,
      "v": 64
    },
    {
      "midi": 49,
      "hit": false,
      "t": 99692.10000000012,
      "d": 1380.7663541666698,
      "v": 64
    },
    {
      "midi": 59,
      "hit": false,
      "t": 99692.10000000012,
      "d": 919.228854166664,
      "v": 64
    },
    {
      "midi": 66,
      "hit": false,
      "t": 99692.10000000012,
      "d": 919.228854166664,
      "v": 64
    },
    {
      "midi": 68,
      "hit": false,
      "t": 99692.10000000012,
      "d": 919.228854166664,
      "v": 64
    },
    {
      "midi": 49,
      "hit": false,
      "t": 99692.10000000012,
      "d": 1380.7663541666698,
      "v": 64
    },
    {
      "midi": 59,
      "hit": false,
      "t": 100615.17500000012,
      "d": 919.2288541666785,
      "v": 64
    },
    {
      "midi": 66,
      "hit": false,
      "t": 100615.17500000012,
      "d": 919.2288541666785,
      "v": 64
    },
    {
      "midi": 68,
      "hit": false,
      "t": 100615.17500000012,
      "d": 919.2288541666785,
      "v": 64
    },
    {
      "midi": 59,
      "hit": false,
      "t": 100615.17500000012,
      "d": 919.2288541666785,
      "v": 64
    },
    {
      "midi": 66,
      "hit": false,
      "t": 100615.17500000012,
      "d": 919.2288541666785,
      "v": 64
    },
    {
      "midi": 68,
      "hit": false,
      "t": 100615.17500000012,
      "d": 919.2288541666785,
      "v": 64
    },
    {
      "midi": 45,
      "hit": false,
      "t": 101076.71250000013,
      "d": 226.92260416666977,
      "v": 64
    },
    {
      "midi": 45,
      "hit": false,
      "t": 101076.71250000013,
      "d": 226.92260416666977,
      "v": 64
    },
    {
      "midi": 44,
      "hit": false,
      "t": 101307.48125000013,
      "d": 226.92260416666977,
      "v": 64
    },
    {
      "midi": 44,
      "hit": false,
      "t": 101307.48125000013,
      "d": 226.92260416666977,
      "v": 64
    },
    {
      "midi": 37,
      "hit": false,
      "t": 101538.25000000013,
      "d": 1842.303854166661,
      "v": 64
    },
    {
      "midi": 59,
      "hit": false,
      "t": 101538.25000000013,
      "d": 1842.303854166661,
      "v": 64
    },
    {
      "midi": 64,
      "hit": false,
      "t": 101538.25000000013,
      "d": 1842.303854166661,
      "v": 64
    },
    {
      "midi": 68,
      "hit": false,
      "t": 101538.25000000013,
      "d": 1842.303854166661,
      "v": 64
    },
    {
      "midi": 37,
      "hit": false,
      "t": 101538.25000000013,
      "d": 1842.303854166661,
      "v": 64
    },
    {
      "midi": 59,
      "hit": false,
      "t": 101538.25000000013,
      "d": 1842.303854166661,
      "v": 64
    },
    {
      "midi": 64,
      "hit": false,
      "t": 101538.25000000013,
      "d": 1842.303854166661,
      "v": 64
    },
    {
      "midi": 68,
      "hit": false,
      "t": 101538.25000000013,
      "d": 1842.303854166661,
      "v": 64
    },
    {
      "midi": 61,
      "hit": false,
      "t": 103384.40000000013,
      "d": 919.228854166664,
      "v": 64
    },
    {
      "midi": 64,
      "hit": false,
      "t": 103384.40000000013,
      "d": 919.228854166664,
      "v": 64
    },
    {
      "midi": 69,
      "hit": false,
      "t": 103384.40000000013,
      "d": 919.228854166664,
      "v": 64
    },
    {
      "midi": 42,
      "hit": false,
      "t": 103384.40000000013,
      "d": 2303.841354166667,
      "v": 64
    },
    {
      "midi": 61,
      "hit": false,
      "t": 103384.40000000013,
      "d": 919.228854166664,
      "v": 64
    },
    {
      "midi": 64,
      "hit": false,
      "t": 103384.40000000013,
      "d": 919.228854166664,
      "v": 64
    },
    {
      "midi": 69,
      "hit": false,
      "t": 103384.40000000013,
      "d": 919.228854166664,
      "v": 64
    },
    {
      "midi": 42,
      "hit": false,
      "t": 103384.40000000013,
      "d": 2303.841354166667,
      "v": 64
    },
    {
      "midi": 61,
      "hit": false,
      "t": 104307.47500000012,
      "d": 919.228854166664,
      "v": 64
    },
    {
      "midi": 64,
      "hit": false,
      "t": 104307.47500000012,
      "d": 919.228854166664,
      "v": 64
    },
    {
      "midi": 69,
      "hit": false,
      "t": 104307.47500000012,
      "d": 919.228854166664,
      "v": 64
    },
    {
      "midi": 61,
      "hit": false,
      "t": 104307.47500000012,
      "d": 919.228854166664,
      "v": 64
    },
    {
      "midi": 64,
      "hit": false,
      "t": 104307.47500000012,
      "d": 919.228854166664,
      "v": 64
    },
    {
      "midi": 69,
      "hit": false,
      "t": 104307.47500000012,
      "d": 919.228854166664,
      "v": 64
    },
    {
      "midi": 61,
      "hit": false,
      "t": 105230.55000000012,
      "d": 919.2288541666785,
      "v": 64
    },
    {
      "midi": 64,
      "hit": false,
      "t": 105230.55000000012,
      "d": 919.2288541666785,
      "v": 64
    },
    {
      "midi": 69,
      "hit": false,
      "t": 105230.55000000012,
      "d": 919.2288541666785,
      "v": 64
    },
    {
      "midi": 61,
      "hit": false,
      "t": 105230.55000000012,
      "d": 919.2288541666785,
      "v": 64
    },
    {
      "midi": 64,
      "hit": false,
      "t": 105230.55000000012,
      "d": 919.2288541666785,
      "v": 64
    },
    {
      "midi": 69,
      "hit": false,
      "t": 105230.55000000012,
      "d": 919.2288541666785,
      "v": 64
    },
    {
      "midi": 44,
      "hit": false,
      "t": 105692.08750000013,
      "d": 226.92260416666977,
      "v": 64
    },
    {
      "midi": 44,
      "hit": false,
      "t": 105692.08750000013,
      "d": 226.92260416666977,
      "v": 64
    },
    {
      "midi": 45,
      "hit": false,
      "t": 105922.85625000013,
      "d": 226.92260416666977,
      "v": 64
    },
    {
      "midi": 45,
      "hit": false,
      "t": 105922.85625000013,
      "d": 226.92260416666977,
      "v": 64
    },
    {
      "midi": 47,
      "hit": false,
      "t": 106153.62500000013,
      "d": 919.228854166664,
      "v": 64
    },
    {
      "midi": 57,
      "hit": false,
      "t": 106153.62500000013,
      "d": 919.228854166664,
      "v": 64
    },
    {
      "midi": 61,
      "hit": false,
      "t": 106153.62500000013,
      "d": 919.228854166664,
      "v": 64
    },
    {
      "midi": 64,
      "hit": false,
      "t": 106153.62500000013,
      "d": 919.228854166664,
      "v": 64
    },
    {
      "midi": 47,
      "hit": false,
      "t": 106153.62500000013,
      "d": 919.228854166664,
      "v": 64
    },
    {
      "midi": 57,
      "hit": false,
      "t": 106153.62500000013,
      "d": 919.228854166664,
      "v": 64
    },
    {
      "midi": 61,
      "hit": false,
      "t": 106153.62500000013,
      "d": 919.228854166664,
      "v": 64
    },
    {
      "midi": 64,
      "hit": false,
      "t": 106153.62500000013,
      "d": 919.228854166664,
      "v": 64
    },
    {
      "midi": 57,
      "hit": false,
      "t": 107076.70000000013,
      "d": 919.228854166664,
      "v": 64
    },
    {
      "midi": 61,
      "hit": false,
      "t": 107076.70000000013,
      "d": 919.228854166664,
      "v": 64
    },
    {
      "midi": 64,
      "hit": false,
      "t": 107076.70000000013,
      "d": 919.228854166664,
      "v": 64
    },
    {
      "midi": 45,
      "hit": false,
      "t": 107076.70000000013,
      "d": 2765.378854166658,
      "v": 64
    },
    {
      "midi": 57,
      "hit": false,
      "t": 107076.70000000013,
      "d": 919.228854166664,
      "v": 64
    },
    {
      "midi": 61,
      "hit": false,
      "t": 107076.70000000013,
      "d": 919.228854166664,
      "v": 64
    },
    {
      "midi": 64,
      "hit": false,
      "t": 107076.70000000013,
      "d": 919.228854166664,
      "v": 64
    },
    {
      "midi": 45,
      "hit": false,
      "t": 107076.70000000013,
      "d": 2765.378854166658,
      "v": 64
    },
    {
      "midi": 57,
      "hit": false,
      "t": 107999.77500000013,
      "d": 919.228854166664,
      "v": 64
    },
    {
      "midi": 61,
      "hit": false,
      "t": 107999.77500000013,
      "d": 919.228854166664,
      "v": 64
    },
    {
      "midi": 64,
      "hit": false,
      "t": 107999.77500000013,
      "d": 919.228854166664,
      "v": 64
    },
    {
      "midi": 57,
      "hit": false,
      "t": 107999.77500000013,
      "d": 919.228854166664,
      "v": 64
    },
    {
      "midi": 61,
      "hit": false,
      "t": 107999.77500000013,
      "d": 919.228854166664,
      "v": 64
    },
    {
      "midi": 64,
      "hit": false,
      "t": 107999.77500000013,
      "d": 919.228854166664,
      "v": 64
    },
    {
      "midi": 57,
      "hit": false,
      "t": 108922.85000000012,
      "d": 919.228854166664,
      "v": 64
    },
    {
      "midi": 61,
      "hit": false,
      "t": 108922.85000000012,
      "d": 919.228854166664,
      "v": 64
    },
    {
      "midi": 64,
      "hit": false,
      "t": 108922.85000000012,
      "d": 919.228854166664,
      "v": 64
    },
    {
      "midi": 57,
      "hit": false,
      "t": 108922.85000000012,
      "d": 919.228854166664,
      "v": 64
    },
    {
      "midi": 61,
      "hit": false,
      "t": 108922.85000000012,
      "d": 919.228854166664,
      "v": 64
    },
    {
      "midi": 64,
      "hit": false,
      "t": 108922.85000000012,
      "d": 919.228854166664,
      "v": 64
    },
    {
      "midi": 49,
      "hit": false,
      "t": 109845.92500000012,
      "d": 457.6913541666727,
      "v": 64
    },
    {
      "midi": 57,
      "hit": false,
      "t": 109845.92500000012,
      "d": 919.2288541666785,
      "v": 64
    },
    {
      "midi": 61,
      "hit": false,
      "t": 109845.92500000012,
      "d": 919.2288541666785,
      "v": 64
    },
    {
      "midi": 64,
      "hit": false,
      "t": 109845.92500000012,
      "d": 919.2288541666785,
      "v": 64
    },
    {
      "midi": 49,
      "hit": false,
      "t": 109845.92500000012,
      "d": 457.6913541666727,
      "v": 64
    },
    {
      "midi": 57,
      "hit": false,
      "t": 109845.92500000012,
      "d": 919.2288541666785,
      "v": 64
    },
    {
      "midi": 61,
      "hit": false,
      "t": 109845.92500000012,
      "d": 919.2288541666785,
      "v": 64
    },
    {
      "midi": 64,
      "hit": false,
      "t": 109845.92500000012,
      "d": 919.2288541666785,
      "v": 64
    },
    {
      "midi": 47,
      "hit": false,
      "t": 110307.46250000013,
      "d": 226.92260416666977,
      "v": 64
    },
    {
      "midi": 47,
      "hit": false,
      "t": 110307.46250000013,
      "d": 226.92260416666977,
      "v": 64
    },
    {
      "midi": 45,
      "hit": false,
      "t": 110538.23125000013,
      "d": 226.92260416666977,
      "v": 64
    },
    {
      "midi": 45,
      "hit": false,
      "t": 110538.23125000013,
      "d": 226.92260416666977,
      "v": 64
    },
    {
      "midi": 59,
      "hit": false,
      "t": 110769.00000000013,
      "d": 919.228854166664,
      "v": 64
    },
    {
      "midi": 64,
      "hit": false,
      "t": 110769.00000000013,
      "d": 919.228854166664,
      "v": 64
    },
    {
      "midi": 44,
      "hit": false,
      "t": 110769.00000000013,
      "d": 3226.916354166664,
      "v": 64
    },
    {
      "midi": 59,
      "hit": false,
      "t": 110769.00000000013,
      "d": 919.228854166664,
      "v": 64
    },
    {
      "midi": 64,
      "hit": false,
      "t": 110769.00000000013,
      "d": 919.228854166664,
      "v": 64
    },
    {
      "midi": 44,
      "hit": false,
      "t": 110769.00000000013,
      "d": 3226.916354166664,
      "v": 64
    },
    {
      "midi": 59,
      "hit": false,
      "t": 111692.07500000013,
      "d": 919.228854166664,
      "v": 64
    },
    {
      "midi": 64,
      "hit": false,
      "t": 111692.07500000013,
      "d": 919.228854166664,
      "v": 64
    },
    {
      "midi": 59,
      "hit": false,
      "t": 111692.07500000013,
      "d": 919.228854166664,
      "v": 64
    },
    {
      "midi": 64,
      "hit": false,
      "t": 111692.07500000013,
      "d": 919.228854166664,
      "v": 64
    },
    {
      "midi": 59,
      "hit": false,
      "t": 112615.15000000013,
      "d": 919.228854166664,
      "v": 64
    },
    {
      "midi": 64,
      "hit": false,
      "t": 112615.15000000013,
      "d": 919.228854166664,
      "v": 64
    },
    {
      "midi": 71,
      "hit": false,
      "t": 112615.15000000013,
      "d": 919.228854166664,
      "v": 64
    },
    {
      "midi": 59,
      "hit": false,
      "t": 112615.15000000013,
      "d": 919.228854166664,
      "v": 64
    },
    {
      "midi": 64,
      "hit": false,
      "t": 112615.15000000013,
      "d": 919.228854166664,
      "v": 64
    },
    {
      "midi": 71,
      "hit": false,
      "t": 112615.15000000013,
      "d": 919.228854166664,
      "v": 64
    },
    {
      "midi": 59,
      "hit": false,
      "t": 113538.22500000012,
      "d": 919.2288541666785,
      "v": 64
    },
    {
      "midi": 64,
      "hit": false,
      "t": 113538.22500000012,
      "d": 919.2288541666785,
      "v": 64
    },
    {
      "midi": 71,
      "hit": false,
      "t": 113538.22500000012,
      "d": 919.2288541666785,
      "v": 64
    },
    {
      "midi": 59,
      "hit": false,
      "t": 113538.22500000012,
      "d": 919.2288541666785,
      "v": 64
    },
    {
      "midi": 64,
      "hit": false,
      "t": 113538.22500000012,
      "d": 919.2288541666785,
      "v": 64
    },
    {
      "midi": 71,
      "hit": false,
      "t": 113538.22500000012,
      "d": 919.2288541666785,
      "v": 64
    },
    {
      "midi": 45,
      "hit": false,
      "t": 113999.76250000013,
      "d": 226.92260416666977,
      "v": 64
    },
    {
      "midi": 45,
      "hit": false,
      "t": 113999.76250000013,
      "d": 226.92260416666977,
      "v": 64
    },
    {
      "midi": 44,
      "hit": false,
      "t": 114230.53125000013,
      "d": 226.92260416666977,
      "v": 64
    },
    {
      "midi": 44,
      "hit": false,
      "t": 114230.53125000013,
      "d": 226.92260416666977,
      "v": 64
    },
    {
      "midi": 57,
      "hit": false,
      "t": 114461.30000000013,
      "d": 919.228854166664,
      "v": 64
    },
    {
      "midi": 61,
      "hit": false,
      "t": 114461.30000000013,
      "d": 919.228854166664,
      "v": 64
    },
    {
      "midi": 64,
      "hit": false,
      "t": 114461.30000000013,
      "d": 919.228854166664,
      "v": 64
    },
    {
      "midi": 42,
      "hit": false,
      "t": 114461.30000000013,
      "d": 1380.7663541666698,
      "v": 64
    },
    {
      "midi": 57,
      "hit": false,
      "t": 114461.30000000013,
      "d": 919.228854166664,
      "v": 64
    },
    {
      "midi": 61,
      "hit": false,
      "t": 114461.30000000013,
      "d": 919.228854166664,
      "v": 64
    },
    {
      "midi": 64,
      "hit": false,
      "t": 114461.30000000013,
      "d": 919.228854166664,
      "v": 64
    },
    {
      "midi": 42,
      "hit": false,
      "t": 114461.30000000013,
      "d": 1380.7663541666698,
      "v": 64
    },
    {
      "midi": 57,
      "hit": false,
      "t": 115384.37500000013,
      "d": 919.2288541666785,
      "v": 64
    },
    {
      "midi": 61,
      "hit": false,
      "t": 115384.37500000013,
      "d": 919.2288541666785,
      "v": 64
    },
    {
      "midi": 64,
      "hit": false,
      "t": 115384.37500000013,
      "d": 919.2288541666785,
      "v": 64
    },
    {
      "midi": 57,
      "hit": false,
      "t": 115384.37500000013,
      "d": 919.2288541666785,
      "v": 64
    },
    {
      "midi": 61,
      "hit": false,
      "t": 115384.37500000013,
      "d": 919.2288541666785,
      "v": 64
    },
    {
      "midi": 64,
      "hit": false,
      "t": 115384.37500000013,
      "d": 919.2288541666785,
      "v": 64
    },
    {
      "midi": 42,
      "hit": false,
      "t": 115845.91250000014,
      "d": 457.6913541666727,
      "v": 64
    },
    {
      "midi": 42,
      "hit": false,
      "t": 115845.91250000014,
      "d": 457.6913541666727,
      "v": 64
    },
    {
      "midi": 47,
      "hit": false,
      "t": 116307.45000000014,
      "d": 919.228854166664,
      "v": 64
    },
    {
      "midi": 57,
      "hit": false,
      "t": 116307.45000000014,
      "d": 1842.303854166661,
      "v": 64
    },
    {
      "midi": 61,
      "hit": false,
      "t": 116307.45000000014,
      "d": 1842.303854166661,
      "v": 64
    },
    {
      "midi": 64,
      "hit": false,
      "t": 116307.45000000014,
      "d": 1842.303854166661,
      "v": 64
    },
    {
      "midi": 47,
      "hit": false,
      "t": 116307.45000000014,
      "d": 919.228854166664,
      "v": 64
    },
    {
      "midi": 57,
      "hit": false,
      "t": 116307.45000000014,
      "d": 1842.303854166661,
      "v": 64
    },
    {
      "midi": 61,
      "hit": false,
      "t": 116307.45000000014,
      "d": 1842.303854166661,
      "v": 64
    },
    {
      "midi": 64,
      "hit": false,
      "t": 116307.45000000014,
      "d": 1842.303854166661,
      "v": 64
    },
    {
      "midi": 47,
      "hit": false,
      "t": 117230.52500000014,
      "d": 919.228854166664,
      "v": 64
    },
    {
      "midi": 47,
      "hit": false,
      "t": 117230.52500000014,
      "d": 919.228854166664,
      "v": 64
    },
    {
      "midi": 59,
      "hit": false,
      "t": 118153.60000000014,
      "d": 919.228854166664,
      "v": 64
    },
    {
      "midi": 66,
      "hit": false,
      "t": 118153.60000000014,
      "d": 919.228854166664,
      "v": 64
    },
    {
      "midi": 68,
      "hit": false,
      "t": 118153.60000000014,
      "d": 919.228854166664,
      "v": 64
    },
    {
      "midi": 40,
      "hit": false,
      "t": 118153.60000000014,
      "d": 1380.7663541666698,
      "v": 64
    },
    {
      "midi": 59,
      "hit": false,
      "t": 118153.60000000014,
      "d": 919.228854166664,
      "v": 64
    },
    {
      "midi": 66,
      "hit": false,
      "t": 118153.60000000014,
      "d": 919.228854166664,
      "v": 64
    },
    {
      "midi": 68,
      "hit": false,
      "t": 118153.60000000014,
      "d": 919.228854166664,
      "v": 64
    },
    {
      "midi": 40,
      "hit": false,
      "t": 118153.60000000014,
      "d": 1380.7663541666698,
      "v": 64
    },
    {
      "midi": 59,
      "hit": false,
      "t": 119076.67500000013,
      "d": 919.2288541666785,
      "v": 64
    },
    {
      "midi": 66,
      "hit": false,
      "t": 119076.67500000013,
      "d": 919.2288541666785,
      "v": 64
    },
    {
      "midi": 68,
      "hit": false,
      "t": 119076.67500000013,
      "d": 919.2288541666785,
      "v": 64
    },
    {
      "midi": 59,
      "hit": false,
      "t": 119076.67500000013,
      "d": 919.2288541666785,
      "v": 64
    },
    {
      "midi": 66,
      "hit": false,
      "t": 119076.67500000013,
      "d": 919.2288541666785,
      "v": 64
    },
    {
      "midi": 68,
      "hit": false,
      "t": 119076.67500000013,
      "d": 919.2288541666785,
      "v": 64
    },
    {
      "midi": 40,
      "hit": false,
      "t": 119538.21250000014,
      "d": 457.6913541666727,
      "v": 64
    },
    {
      "midi": 40,
      "hit": false,
      "t": 119538.21250000014,
      "d": 457.6913541666727,
      "v": 64
    },
    {
      "midi": 59,
      "hit": false,
      "t": 119999.75000000015,
      "d": 919.228854166664,
      "v": 64
    },
    {
      "midi": 64,
      "hit": false,
      "t": 119999.75000000015,
      "d": 919.228854166664,
      "v": 64
    },
    {
      "midi": 68,
      "hit": false,
      "t": 119999.75000000015,
      "d": 919.228854166664,
      "v": 64
    },
    {
      "midi": 40,
      "hit": false,
      "t": 119999.75000000015,
      "d": 1842.303854166661,
      "v": 64
    },
    {
      "midi": 59,
      "hit": false,
      "t": 119999.75000000015,
      "d": 919.228854166664,
      "v": 64
    },
    {
      "midi": 64,
      "hit": false,
      "t": 119999.75000000015,
      "d": 919.228854166664,
      "v": 64
    },
    {
      "midi": 68,
      "hit": false,
      "t": 119999.75000000015,
      "d": 919.228854166664,
      "v": 64
    },
    {
      "midi": 40,
      "hit": false,
      "t": 119999.75000000015,
      "d": 1842.303854166661,
      "v": 64
    },
    {
      "midi": 59,
      "hit": false,
      "t": 120922.82500000014,
      "d": 919.228854166664,
      "v": 64
    },
    {
      "midi": 64,
      "hit": false,
      "t": 120922.82500000014,
      "d": 919.228854166664,
      "v": 64
    },
    {
      "midi": 68,
      "hit": false,
      "t": 120922.82500000014,
      "d": 919.228854166664,
      "v": 64
    },
    {
      "midi": 59,
      "hit": false,
      "t": 120922.82500000014,
      "d": 919.228854166664,
      "v": 64
    },
    {
      "midi": 64,
      "hit": false,
      "t": 120922.82500000014,
      "d": 919.228854166664,
      "v": 64
    },
    {
      "midi": 68,
      "hit": false,
      "t": 120922.82500000014,
      "d": 919.228854166664,
      "v": 64
    },
    {
      "midi": 61,
      "hit": false,
      "t": 121845.90000000014,
      "d": 919.228854166664,
      "v": 64
    },
    {
      "midi": 64,
      "hit": false,
      "t": 121845.90000000014,
      "d": 919.228854166664,
      "v": 64
    },
    {
      "midi": 69,
      "hit": false,
      "t": 121845.90000000014,
      "d": 919.228854166664,
      "v": 64
    },
    {
      "midi": 40,
      "hit": false,
      "t": 121845.90000000014,
      "d": 1380.7663541666698,
      "v": 64
    },
    {
      "midi": 61,
      "hit": false,
      "t": 121845.90000000014,
      "d": 919.228854166664,
      "v": 64
    },
    {
      "midi": 64,
      "hit": false,
      "t": 121845.90000000014,
      "d": 919.228854166664,
      "v": 64
    },
    {
      "midi": 69,
      "hit": false,
      "t": 121845.90000000014,
      "d": 919.228854166664,
      "v": 64
    },
    {
      "midi": 40,
      "hit": false,
      "t": 121845.90000000014,
      "d": 1380.7663541666698,
      "v": 64
    },
    {
      "midi": 61,
      "hit": false,
      "t": 122768.97500000014,
      "d": 919.2288541666785,
      "v": 64
    },
    {
      "midi": 64,
      "hit": false,
      "t": 122768.97500000014,
      "d": 919.2288541666785,
      "v": 64
    },
    {
      "midi": 69,
      "hit": false,
      "t": 122768.97500000014,
      "d": 919.2288541666785,
      "v": 64
    },
    {
      "midi": 61,
      "hit": false,
      "t": 122768.97500000014,
      "d": 919.2288541666785,
      "v": 64
    },
    {
      "midi": 64,
      "hit": false,
      "t": 122768.97500000014,
      "d": 919.2288541666785,
      "v": 64
    },
    {
      "midi": 69,
      "hit": false,
      "t": 122768.97500000014,
      "d": 919.2288541666785,
      "v": 64
    },
    {
      "midi": 40,
      "hit": false,
      "t": 123230.51250000014,
      "d": 457.6913541666727,
      "v": 64
    },
    {
      "midi": 40,
      "hit": false,
      "t": 123230.51250000014,
      "d": 457.6913541666727,
      "v": 64
    },
    {
      "midi": 40,
      "hit": false,
      "t": 123692.05000000015,
      "d": 919.228854166664,
      "v": 64
    },
    {
      "midi": 61,
      "hit": false,
      "t": 123692.05000000015,
      "d": 919.228854166664,
      "v": 64
    },
    {
      "midi": 64,
      "hit": false,
      "t": 123692.05000000015,
      "d": 919.228854166664,
      "v": 64
    },
    {
      "midi": 69,
      "hit": false,
      "t": 123692.05000000015,
      "d": 919.228854166664,
      "v": 64
    },
    {
      "midi": 40,
      "hit": false,
      "t": 123692.05000000015,
      "d": 919.228854166664,
      "v": 64
    },
    {
      "midi": 61,
      "hit": false,
      "t": 123692.05000000015,
      "d": 919.228854166664,
      "v": 64
    },
    {
      "midi": 64,
      "hit": false,
      "t": 123692.05000000015,
      "d": 919.228854166664,
      "v": 64
    },
    {
      "midi": 69,
      "hit": false,
      "t": 123692.05000000015,
      "d": 919.228854166664,
      "v": 64
    },
    {
      "midi": 59,
      "hit": false,
      "t": 124615.12500000015,
      "d": 457.6913541666727,
      "v": 64
    },
    {
      "midi": 66,
      "hit": false,
      "t": 124615.12500000015,
      "d": 457.6913541666727,
      "v": 64
    },
    {
      "midi": 71,
      "hit": false,
      "t": 124615.12500000015,
      "d": 457.6913541666727,
      "v": 64
    },
    {
      "midi": 39,
      "hit": false,
      "t": 124615.12500000015,
      "d": 919.2288541666785,
      "v": 64
    },
    {
      "midi": 59,
      "hit": false,
      "t": 124615.12500000015,
      "d": 457.6913541666727,
      "v": 64
    },
    {
      "midi": 66,
      "hit": false,
      "t": 124615.12500000015,
      "d": 457.6913541666727,
      "v": 64
    },
    {
      "midi": 71,
      "hit": false,
      "t": 124615.12500000015,
      "d": 457.6913541666727,
      "v": 64
    },
    {
      "midi": 39,
      "hit": false,
      "t": 124615.12500000015,
      "d": 919.2288541666785,
      "v": 64
    },
    {
      "midi": 66,
      "hit": false,
      "t": 125076.66250000015,
      "d": 457.6913541666727,
      "v": 64
    },
    {
      "midi": 66,
      "hit": false,
      "t": 125076.66250000015,
      "d": 457.6913541666727,
      "v": 64
    },
    {
      "midi": 61,
      "hit": false,
      "t": 125538.20000000016,
      "d": 919.228854166664,
      "v": 64
    },
    {
      "midi": 64,
      "hit": false,
      "t": 125538.20000000016,
      "d": 919.228854166664,
      "v": 64
    },
    {
      "midi": 68,
      "hit": false,
      "t": 125538.20000000016,
      "d": 919.228854166664,
      "v": 64
    },
    {
      "midi": 37,
      "hit": false,
      "t": 125538.20000000016,
      "d": 1380.7663541666698,
      "v": 64
    },
    {
      "midi": 61,
      "hit": false,
      "t": 125538.20000000016,
      "d": 919.228854166664,
      "v": 64
    },
    {
      "midi": 64,
      "hit": false,
      "t": 125538.20000000016,
      "d": 919.228854166664,
      "v": 64
    },
    {
      "midi": 68,
      "hit": false,
      "t": 125538.20000000016,
      "d": 919.228854166664,
      "v": 64
    },
    {
      "midi": 37,
      "hit": false,
      "t": 125538.20000000016,
      "d": 1380.7663541666698,
      "v": 64
    },
    {
      "midi": 61,
      "hit": false,
      "t": 126461.27500000015,
      "d": 919.2288541666785,
      "v": 64
    },
    {
      "midi": 64,
      "hit": false,
      "t": 126461.27500000015,
      "d": 919.2288541666785,
      "v": 64
    },
    {
      "midi": 68,
      "hit": false,
      "t": 126461.27500000015,
      "d": 919.2288541666785,
      "v": 64
    },
    {
      "midi": 61,
      "hit": false,
      "t": 126461.27500000015,
      "d": 919.2288541666785,
      "v": 64
    },
    {
      "midi": 64,
      "hit": false,
      "t": 126461.27500000015,
      "d": 919.2288541666785,
      "v": 64
    },
    {
      "midi": 68,
      "hit": false,
      "t": 126461.27500000015,
      "d": 919.2288541666785,
      "v": 64
    },
    {
      "midi": 37,
      "hit": false,
      "t": 126922.81250000016,
      "d": 457.6913541666727,
      "v": 64
    },
    {
      "midi": 37,
      "hit": false,
      "t": 126922.81250000016,
      "d": 457.6913541666727,
      "v": 64
    },
    {
      "midi": 61,
      "hit": false,
      "t": 127384.35000000017,
      "d": 919.228854166664,
      "v": 64
    },
    {
      "midi": 64,
      "hit": false,
      "t": 127384.35000000017,
      "d": 919.228854166664,
      "v": 64
    },
    {
      "midi": 68,
      "hit": false,
      "t": 127384.35000000017,
      "d": 919.228854166664,
      "v": 64
    },
    {
      "midi": 35,
      "hit": false,
      "t": 127384.35000000017,
      "d": 1380.7663541666698,
      "v": 64
    },
    {
      "midi": 61,
      "hit": false,
      "t": 127384.35000000017,
      "d": 919.228854166664,
      "v": 64
    },
    {
      "midi": 64,
      "hit": false,
      "t": 127384.35000000017,
      "d": 919.228854166664,
      "v": 64
    },
    {
      "midi": 68,
      "hit": false,
      "t": 127384.35000000017,
      "d": 919.228854166664,
      "v": 64
    },
    {
      "midi": 35,
      "hit": false,
      "t": 127384.35000000017,
      "d": 1380.7663541666698,
      "v": 64
    },
    {
      "midi": 61,
      "hit": false,
      "t": 128307.42500000016,
      "d": 919.2288541666785,
      "v": 64
    },
    {
      "midi": 64,
      "hit": false,
      "t": 128307.42500000016,
      "d": 919.2288541666785,
      "v": 64
    },
    {
      "midi": 68,
      "hit": false,
      "t": 128307.42500000016,
      "d": 919.2288541666785,
      "v": 64
    },
    {
      "midi": 61,
      "hit": false,
      "t": 128307.42500000016,
      "d": 919.2288541666785,
      "v": 64
    },
    {
      "midi": 64,
      "hit": false,
      "t": 128307.42500000016,
      "d": 919.2288541666785,
      "v": 64
    },
    {
      "midi": 68,
      "hit": false,
      "t": 128307.42500000016,
      "d": 919.2288541666785,
      "v": 64
    },
    {
      "midi": 35,
      "hit": false,
      "t": 128768.96250000017,
      "d": 457.6913541666727,
      "v": 64
    },
    {
      "midi": 35,
      "hit": false,
      "t": 128768.96250000017,
      "d": 457.6913541666727,
      "v": 64
    },
    {
      "midi": 57,
      "hit": false,
      "t": 129230.50000000017,
      "d": 919.228854166664,
      "v": 64
    },
    {
      "midi": 61,
      "hit": false,
      "t": 129230.50000000017,
      "d": 919.228854166664,
      "v": 64
    },
    {
      "midi": 64,
      "hit": false,
      "t": 129230.50000000017,
      "d": 919.228854166664,
      "v": 64
    },
    {
      "midi": 45,
      "hit": false,
      "t": 129230.50000000017,
      "d": 1380.7663541666698,
      "v": 64
    },
    {
      "midi": 57,
      "hit": false,
      "t": 129230.50000000017,
      "d": 919.228854166664,
      "v": 64
    },
    {
      "midi": 61,
      "hit": false,
      "t": 129230.50000000017,
      "d": 919.228854166664,
      "v": 64
    },
    {
      "midi": 64,
      "hit": false,
      "t": 129230.50000000017,
      "d": 919.228854166664,
      "v": 64
    },
    {
      "midi": 45,
      "hit": false,
      "t": 129230.50000000017,
      "d": 1380.7663541666698,
      "v": 64
    },
    {
      "midi": 57,
      "hit": false,
      "t": 130153.57500000017,
      "d": 919.2288541666785,
      "v": 64
    },
    {
      "midi": 61,
      "hit": false,
      "t": 130153.57500000017,
      "d": 919.2288541666785,
      "v": 64
    },
    {
      "midi": 64,
      "hit": false,
      "t": 130153.57500000017,
      "d": 919.2288541666785,
      "v": 64
    },
    {
      "midi": 57,
      "hit": false,
      "t": 130153.57500000017,
      "d": 919.2288541666785,
      "v": 64
    },
    {
      "midi": 61,
      "hit": false,
      "t": 130153.57500000017,
      "d": 919.2288541666785,
      "v": 64
    },
    {
      "midi": 64,
      "hit": false,
      "t": 130153.57500000017,
      "d": 919.2288541666785,
      "v": 64
    },
    {
      "midi": 45,
      "hit": false,
      "t": 130615.11250000018,
      "d": 2303.841354166725,
      "v": 64
    },
    {
      "midi": 45,
      "hit": false,
      "t": 130615.11250000018,
      "d": 2303.841354166725,
      "v": 64
    },
    {
      "midi": 57,
      "hit": false,
      "t": 131076.6500000002,
      "d": 1149.9976041666523,
      "v": 64
    },
    {
      "midi": 61,
      "hit": false,
      "t": 131076.6500000002,
      "d": 1149.9976041666523,
      "v": 64
    },
    {
      "midi": 64,
      "hit": false,
      "t": 131076.6500000002,
      "d": 1149.9976041666523,
      "v": 64
    },
    {
      "midi": 57,
      "hit": false,
      "t": 131076.6500000002,
      "d": 1149.9976041666523,
      "v": 64
    },
    {
      "midi": 61,
      "hit": false,
      "t": 131076.6500000002,
      "d": 1149.9976041666523,
      "v": 64
    },
    {
      "midi": 64,
      "hit": false,
      "t": 131076.6500000002,
      "d": 1149.9976041666523,
      "v": 64
    },
    {
      "midi": 59,
      "hit": false,
      "t": 132230.4937500002,
      "d": 226.92260416666977,
      "v": 64
    },
    {
      "midi": 59,
      "hit": false,
      "t": 132230.4937500002,
      "d": 226.92260416666977,
      "v": 64
    },
    {
      "midi": 61,
      "hit": false,
      "t": 132461.26250000022,
      "d": 226.92260416666977,
      "v": 64
    },
    {
      "midi": 61,
      "hit": false,
      "t": 132461.26250000022,
      "d": 226.92260416666977,
      "v": 64
    },
    {
      "midi": 68,
      "hit": false,
      "t": 132692.03125000023,
      "d": 226.92260416666977,
      "v": 64
    },
    {
      "midi": 68,
      "hit": false,
      "t": 132692.03125000023,
      "d": 226.92260416666977,
      "v": 64
    },
    {
      "midi": 61,
      "hit": false,
      "t": 132922.80000000025,
      "d": 919.228854166664,
      "v": 64
    },
    {
      "midi": 64,
      "hit": false,
      "t": 132922.80000000025,
      "d": 919.228854166664,
      "v": 64
    },
    {
      "midi": 69,
      "hit": false,
      "t": 132922.80000000025,
      "d": 919.228854166664,
      "v": 64
    },
    {
      "midi": 42,
      "hit": false,
      "t": 132922.80000000025,
      "d": 1380.7663541666698,
      "v": 64
    },
    {
      "midi": 61,
      "hit": false,
      "t": 132922.80000000025,
      "d": 919.228854166664,
      "v": 64
    },
    {
      "midi": 64,
      "hit": false,
      "t": 132922.80000000025,
      "d": 919.228854166664,
      "v": 64
    },
    {
      "midi": 69,
      "hit": false,
      "t": 132922.80000000025,
      "d": 919.228854166664,
      "v": 64
    },
    {
      "midi": 42,
      "hit": false,
      "t": 132922.80000000025,
      "d": 1380.7663541666698,
      "v": 64
    },
    {
      "midi": 61,
      "hit": false,
      "t": 133845.87500000026,
      "d": 919.228854166664,
      "v": 64
    },
    {
      "midi": 64,
      "hit": false,
      "t": 133845.87500000026,
      "d": 919.228854166664,
      "v": 64
    },
    {
      "midi": 69,
      "hit": false,
      "t": 133845.87500000026,
      "d": 919.228854166664,
      "v": 64
    },
    {
      "midi": 61,
      "hit": false,
      "t": 133845.87500000026,
      "d": 919.228854166664,
      "v": 64
    },
    {
      "midi": 64,
      "hit": false,
      "t": 133845.87500000026,
      "d": 919.228854166664,
      "v": 64
    },
    {
      "midi": 69,
      "hit": false,
      "t": 133845.87500000026,
      "d": 919.228854166664,
      "v": 64
    },
    {
      "midi": 42,
      "hit": false,
      "t": 134307.41250000027,
      "d": 457.69135416665813,
      "v": 64
    },
    {
      "midi": 42,
      "hit": false,
      "t": 134307.41250000027,
      "d": 457.69135416665813,
      "v": 64
    },
    {
      "midi": 42,
      "hit": false,
      "t": 134768.95000000027,
      "d": 919.228854166664,
      "v": 64
    },
    {
      "midi": 61,
      "hit": false,
      "t": 134768.95000000027,
      "d": 919.228854166664,
      "v": 64
    },
    {
      "midi": 64,
      "hit": false,
      "t": 134768.95000000027,
      "d": 919.228854166664,
      "v": 64
    },
    {
      "midi": 69,
      "hit": false,
      "t": 134768.95000000027,
      "d": 919.228854166664,
      "v": 64
    },
    {
      "midi": 42,
      "hit": false,
      "t": 134768.95000000027,
      "d": 919.228854166664,
      "v": 64
    },
    {
      "midi": 61,
      "hit": false,
      "t": 134768.95000000027,
      "d": 919.228854166664,
      "v": 64
    },
    {
      "midi": 64,
      "hit": false,
      "t": 134768.95000000027,
      "d": 919.228854166664,
      "v": 64
    },
    {
      "midi": 69,
      "hit": false,
      "t": 134768.95000000027,
      "d": 919.228854166664,
      "v": 64
    },
    {
      "midi": 39,
      "hit": false,
      "t": 135692.02500000029,
      "d": 919.228854166664,
      "v": 64
    },
    {
      "midi": 59,
      "hit": false,
      "t": 135692.02500000029,
      "d": 919.228854166664,
      "v": 64
    },
    {
      "midi": 66,
      "hit": false,
      "t": 135692.02500000029,
      "d": 919.228854166664,
      "v": 64
    },
    {
      "midi": 39,
      "hit": false,
      "t": 135692.02500000029,
      "d": 919.228854166664,
      "v": 64
    },
    {
      "midi": 59,
      "hit": false,
      "t": 135692.02500000029,
      "d": 919.228854166664,
      "v": 64
    },
    {
      "midi": 66,
      "hit": false,
      "t": 135692.02500000029,
      "d": 919.228854166664,
      "v": 64
    },
    {
      "midi": 40,
      "hit": false,
      "t": 136615.1000000003,
      "d": 1380.7663541666698,
      "v": 64
    },
    {
      "midi": 59,
      "hit": false,
      "t": 136615.1000000003,
      "d": 1380.7663541666698,
      "v": 64
    },
    {
      "midi": 64,
      "hit": false,
      "t": 136615.1000000003,
      "d": 1380.7663541666698,
      "v": 64
    },
    {
      "midi": 68,
      "hit": false,
      "t": 136615.1000000003,
      "d": 1380.7663541666698,
      "v": 64
    },
    {
      "midi": 40,
      "hit": false,
      "t": 136615.1000000003,
      "d": 1380.7663541666698,
      "v": 64
    },
    {
      "midi": 59,
      "hit": false,
      "t": 136615.1000000003,
      "d": 1380.7663541666698,
      "v": 64
    },
    {
      "midi": 64,
      "hit": false,
      "t": 136615.1000000003,
      "d": 1380.7663541666698,
      "v": 64
    },
    {
      "midi": 68,
      "hit": false,
      "t": 136615.1000000003,
      "d": 1380.7663541666698,
      "v": 64
    },
    {
      "midi": 40,
      "hit": false,
      "t": 137999.7125000003,
      "d": 226.92260416666977,
      "v": 64
    },
    {
      "midi": 68,
      "hit": false,
      "t": 137999.7125000003,
      "d": 226.92260416666977,
      "v": 64
    },
    {
      "midi": 40,
      "hit": false,
      "t": 137999.7125000003,
      "d": 226.92260416666977,
      "v": 64
    },
    {
      "midi": 68,
      "hit": false,
      "t": 137999.7125000003,
      "d": 226.92260416666977,
      "v": 64
    },
    {
      "midi": 42,
      "hit": false,
      "t": 138230.48125000033,
      "d": 226.92260416666977,
      "v": 64
    },
    {
      "midi": 71,
      "hit": false,
      "t": 138230.48125000033,
      "d": 226.92260416666977,
      "v": 64
    },
    {
      "midi": 42,
      "hit": false,
      "t": 138230.48125000033,
      "d": 226.92260416666977,
      "v": 64
    },
    {
      "midi": 71,
      "hit": false,
      "t": 138230.48125000033,
      "d": 226.92260416666977,
      "v": 64
    },
    {
      "midi": 59,
      "hit": false,
      "t": 138461.25000000035,
      "d": 457.69135416665813,
      "v": 64
    },
    {
      "midi": 64,
      "hit": false,
      "t": 138461.25000000035,
      "d": 457.69135416665813,
      "v": 64
    },
    {
      "midi": 71,
      "hit": false,
      "t": 138461.25000000035,
      "d": 457.69135416665813,
      "v": 64
    },
    {
      "midi": 44,
      "hit": false,
      "t": 138461.25000000035,
      "d": 688.4601041666756,
      "v": 64
    },
    {
      "midi": 59,
      "hit": false,
      "t": 138461.25000000035,
      "d": 457.69135416665813,
      "v": 64
    },
    {
      "midi": 64,
      "hit": false,
      "t": 138461.25000000035,
      "d": 457.69135416665813,
      "v": 64
    },
    {
      "midi": 71,
      "hit": false,
      "t": 138461.25000000035,
      "d": 457.69135416665813,
      "v": 64
    },
    {
      "midi": 44,
      "hit": false,
      "t": 138461.25000000035,
      "d": 688.4601041666756,
      "v": 64
    },
    {
      "midi": 71,
      "hit": false,
      "t": 138922.78750000036,
      "d": 226.92260416666977,
      "v": 64
    },
    {
      "midi": 71,
      "hit": false,
      "t": 138922.78750000036,
      "d": 226.92260416666977,
      "v": 64
    },
    {
      "midi": 42,
      "hit": false,
      "t": 139153.55625000037,
      "d": 688.4601041666756,
      "v": 64
    },
    {
      "midi": 59,
      "hit": false,
      "t": 139153.55625000037,
      "d": 688.4601041666756,
      "v": 64
    },
    {
      "midi": 64,
      "hit": false,
      "t": 139153.55625000037,
      "d": 688.4601041666756,
      "v": 64
    },
    {
      "midi": 69,
      "hit": false,
      "t": 139153.55625000037,
      "d": 688.4601041666756,
      "v": 64
    },
    {
      "midi": 42,
      "hit": false,
      "t": 139153.55625000037,
      "d": 688.4601041666756,
      "v": 64
    },
    {
      "midi": 59,
      "hit": false,
      "t": 139153.55625000037,
      "d": 688.4601041666756,
      "v": 64
    },
    {
      "midi": 64,
      "hit": false,
      "t": 139153.55625000037,
      "d": 688.4601041666756,
      "v": 64
    },
    {
      "midi": 69,
      "hit": false,
      "t": 139153.55625000037,
      "d": 688.4601041666756,
      "v": 64
    },
    {
      "midi": 40,
      "hit": false,
      "t": 139845.8625000004,
      "d": 226.92260416666977,
      "v": 64
    },
    {
      "midi": 59,
      "hit": false,
      "t": 139845.8625000004,
      "d": 457.69135416665813,
      "v": 64
    },
    {
      "midi": 64,
      "hit": false,
      "t": 139845.8625000004,
      "d": 457.69135416665813,
      "v": 64
    },
    {
      "midi": 68,
      "hit": false,
      "t": 139845.8625000004,
      "d": 457.69135416665813,
      "v": 64
    },
    {
      "midi": 40,
      "hit": false,
      "t": 139845.8625000004,
      "d": 226.92260416666977,
      "v": 64
    },
    {
      "midi": 59,
      "hit": false,
      "t": 139845.8625000004,
      "d": 457.69135416665813,
      "v": 64
    },
    {
      "midi": 64,
      "hit": false,
      "t": 139845.8625000004,
      "d": 457.69135416665813,
      "v": 64
    },
    {
      "midi": 68,
      "hit": false,
      "t": 139845.8625000004,
      "d": 457.69135416665813,
      "v": 64
    },
    {
      "midi": 57,
      "hit": false,
      "t": 140307.4000000004,
      "d": 919.228854166664,
      "v": 64
    },
    {
      "midi": 61,
      "hit": false,
      "t": 140307.4000000004,
      "d": 919.228854166664,
      "v": 64
    },
    {
      "midi": 64,
      "hit": false,
      "t": 140307.4000000004,
      "d": 919.228854166664,
      "v": 64
    },
    {
      "midi": 45,
      "hit": false,
      "t": 140307.4000000004,
      "d": 1380.7663541666698,
      "v": 64
    },
    {
      "midi": 57,
      "hit": false,
      "t": 140307.4000000004,
      "d": 919.228854166664,
      "v": 64
    },
    {
      "midi": 61,
      "hit": false,
      "t": 140307.4000000004,
      "d": 919.228854166664,
      "v": 64
    },
    {
      "midi": 64,
      "hit": false,
      "t": 140307.4000000004,
      "d": 919.228854166664,
      "v": 64
    },
    {
      "midi": 45,
      "hit": false,
      "t": 140307.4000000004,
      "d": 1380.7663541666698,
      "v": 64
    },
    {
      "midi": 57,
      "hit": false,
      "t": 141230.4750000004,
      "d": 919.228854166664,
      "v": 64
    },
    {
      "midi": 61,
      "hit": false,
      "t": 141230.4750000004,
      "d": 919.228854166664,
      "v": 64
    },
    {
      "midi": 64,
      "hit": false,
      "t": 141230.4750000004,
      "d": 919.228854166664,
      "v": 64
    },
    {
      "midi": 57,
      "hit": false,
      "t": 141230.4750000004,
      "d": 919.228854166664,
      "v": 64
    },
    {
      "midi": 61,
      "hit": false,
      "t": 141230.4750000004,
      "d": 919.228854166664,
      "v": 64
    },
    {
      "midi": 64,
      "hit": false,
      "t": 141230.4750000004,
      "d": 919.228854166664,
      "v": 64
    },
    {
      "midi": 45,
      "hit": false,
      "t": 141692.01250000042,
      "d": 457.69135416665813,
      "v": 64
    },
    {
      "midi": 45,
      "hit": false,
      "t": 141692.01250000042,
      "d": 457.69135416665813,
      "v": 64
    },
    {
      "midi": 57,
      "hit": false,
      "t": 142153.55000000042,
      "d": 457.69135416665813,
      "v": 64
    },
    {
      "midi": 61,
      "hit": false,
      "t": 142153.55000000042,
      "d": 457.69135416665813,
      "v": 64
    },
    {
      "midi": 64,
      "hit": false,
      "t": 142153.55000000042,
      "d": 457.69135416665813,
      "v": 64
    },
    {
      "midi": 45,
      "hit": false,
      "t": 142153.55000000042,
      "d": 919.228854166693,
      "v": 64
    },
    {
      "midi": 57,
      "hit": false,
      "t": 142153.55000000042,
      "d": 457.69135416665813,
      "v": 64
    },
    {
      "midi": 61,
      "hit": false,
      "t": 142153.55000000042,
      "d": 457.69135416665813,
      "v": 64
    },
    {
      "midi": 64,
      "hit": false,
      "t": 142153.55000000042,
      "d": 457.69135416665813,
      "v": 64
    },
    {
      "midi": 45,
      "hit": false,
      "t": 142153.55000000042,
      "d": 919.228854166693,
      "v": 64
    },
    {
      "midi": 61,
      "hit": false,
      "t": 142615.08750000043,
      "d": 226.92260416666977,
      "v": 64
    },
    {
      "midi": 61,
      "hit": false,
      "t": 142615.08750000043,
      "d": 226.92260416666977,
      "v": 64
    },
    {
      "midi": 64,
      "hit": false,
      "t": 142845.85625000045,
      "d": 226.92260416666977,
      "v": 64
    },
    {
      "midi": 64,
      "hit": false,
      "t": 142845.85625000045,
      "d": 226.92260416666977,
      "v": 64
    },
    {
      "midi": 59,
      "hit": false,
      "t": 143076.62500000047,
      "d": 457.69135416665813,
      "v": 64
    },
    {
      "midi": 63,
      "hit": false,
      "t": 143076.62500000047,
      "d": 457.69135416665813,
      "v": 64
    },
    {
      "midi": 66,
      "hit": false,
      "t": 143076.62500000047,
      "d": 457.69135416665813,
      "v": 64
    },
    {
      "midi": 47,
      "hit": false,
      "t": 143076.62500000047,
      "d": 919.228854166693,
      "v": 64
    },
    {
      "midi": 59,
      "hit": false,
      "t": 143076.62500000047,
      "d": 457.69135416665813,
      "v": 64
    },
    {
      "midi": 63,
      "hit": false,
      "t": 143076.62500000047,
      "d": 457.69135416665813,
      "v": 64
    },
    {
      "midi": 66,
      "hit": false,
      "t": 143076.62500000047,
      "d": 457.69135416665813,
      "v": 64
    },
    {
      "midi": 47,
      "hit": false,
      "t": 143076.62500000047,
      "d": 919.228854166693,
      "v": 64
    },
    {
      "midi": 59,
      "hit": false,
      "t": 143538.16250000047,
      "d": 226.92260416666977,
      "v": 64
    },
    {
      "midi": 59,
      "hit": false,
      "t": 143538.16250000047,
      "d": 226.92260416666977,
      "v": 64
    },
    {
      "midi": 66,
      "hit": false,
      "t": 143768.9312500005,
      "d": 226.92260416666977,
      "v": 64
    },
    {
      "midi": 66,
      "hit": false,
      "t": 143768.9312500005,
      "d": 226.92260416666977,
      "v": 64
    },
    {
      "midi": 59,
      "hit": false,
      "t": 143999.7000000005,
      "d": 919.228854166664,
      "v": 64
    },
    {
      "midi": 66,
      "hit": false,
      "t": 143999.7000000005,
      "d": 919.228854166664,
      "v": 64
    },
    {
      "midi": 68,
      "hit": false,
      "t": 143999.7000000005,
      "d": 919.228854166664,
      "v": 64
    },
    {
      "midi": 40,
      "hit": false,
      "t": 143999.7000000005,
      "d": 1380.7663541666698,
      "v": 64
    },
    {
      "midi": 59,
      "hit": false,
      "t": 143999.7000000005,
      "d": 919.228854166664,
      "v": 64
    },
    {
      "midi": 66,
      "hit": false,
      "t": 143999.7000000005,
      "d": 919.228854166664,
      "v": 64
    },
    {
      "midi": 68,
      "hit": false,
      "t": 143999.7000000005,
      "d": 919.228854166664,
      "v": 64
    },
    {
      "midi": 40,
      "hit": false,
      "t": 143999.7000000005,
      "d": 1380.7663541666698,
      "v": 64
    },
    {
      "midi": 59,
      "hit": false,
      "t": 144922.77500000052,
      "d": 919.228854166664,
      "v": 64
    },
    {
      "midi": 66,
      "hit": false,
      "t": 144922.77500000052,
      "d": 919.228854166664,
      "v": 64
    },
    {
      "midi": 68,
      "hit": false,
      "t": 144922.77500000052,
      "d": 919.228854166664,
      "v": 64
    },
    {
      "midi": 59,
      "hit": false,
      "t": 144922.77500000052,
      "d": 919.228854166664,
      "v": 64
    },
    {
      "midi": 66,
      "hit": false,
      "t": 144922.77500000052,
      "d": 919.228854166664,
      "v": 64
    },
    {
      "midi": 68,
      "hit": false,
      "t": 144922.77500000052,
      "d": 919.228854166664,
      "v": 64
    },
    {
      "midi": 40,
      "hit": false,
      "t": 145384.31250000052,
      "d": 457.69135416665813,
      "v": 64
    },
    {
      "midi": 40,
      "hit": false,
      "t": 145384.31250000052,
      "d": 457.69135416665813,
      "v": 64
    },
    {
      "midi": 59,
      "hit": false,
      "t": 145845.85000000053,
      "d": 919.228854166664,
      "v": 64
    },
    {
      "midi": 64,
      "hit": false,
      "t": 145845.85000000053,
      "d": 919.228854166664,
      "v": 64
    },
    {
      "midi": 68,
      "hit": false,
      "t": 145845.85000000053,
      "d": 919.228854166664,
      "v": 64
    },
    {
      "midi": 40,
      "hit": false,
      "t": 145845.85000000053,
      "d": 1842.3038541666756,
      "v": 64
    },
    {
      "midi": 59,
      "hit": false,
      "t": 145845.85000000053,
      "d": 919.228854166664,
      "v": 64
    },
    {
      "midi": 64,
      "hit": false,
      "t": 145845.85000000053,
      "d": 919.228854166664,
      "v": 64
    },
    {
      "midi": 68,
      "hit": false,
      "t": 145845.85000000053,
      "d": 919.228854166664,
      "v": 64
    },
    {
      "midi": 40,
      "hit": false,
      "t": 145845.85000000053,
      "d": 1842.3038541666756,
      "v": 64
    },
    {
      "midi": 59,
      "hit": false,
      "t": 146768.92500000054,
      "d": 919.228854166664,
      "v": 64
    },
    {
      "midi": 64,
      "hit": false,
      "t": 146768.92500000054,
      "d": 919.228854166664,
      "v": 64
    },
    {
      "midi": 68,
      "hit": false,
      "t": 146768.92500000054,
      "d": 919.228854166664,
      "v": 64
    },
    {
      "midi": 59,
      "hit": false,
      "t": 146768.92500000054,
      "d": 919.228854166664,
      "v": 64
    },
    {
      "midi": 64,
      "hit": false,
      "t": 146768.92500000054,
      "d": 919.228854166664,
      "v": 64
    },
    {
      "midi": 68,
      "hit": false,
      "t": 146768.92500000054,
      "d": 919.228854166664,
      "v": 64
    },
    {
      "midi": 61,
      "hit": false,
      "t": 147692.00000000055,
      "d": 919.228854166664,
      "v": 64
    },
    {
      "midi": 64,
      "hit": false,
      "t": 147692.00000000055,
      "d": 919.228854166664,
      "v": 64
    },
    {
      "midi": 69,
      "hit": false,
      "t": 147692.00000000055,
      "d": 919.228854166664,
      "v": 64
    },
    {
      "midi": 40,
      "hit": false,
      "t": 147692.00000000055,
      "d": 1380.7663541666698,
      "v": 64
    },
    {
      "midi": 61,
      "hit": false,
      "t": 147692.00000000055,
      "d": 919.228854166664,
      "v": 64
    },
    {
      "midi": 64,
      "hit": false,
      "t": 147692.00000000055,
      "d": 919.228854166664,
      "v": 64
    },
    {
      "midi": 69,
      "hit": false,
      "t": 147692.00000000055,
      "d": 919.228854166664,
      "v": 64
    },
    {
      "midi": 40,
      "hit": false,
      "t": 147692.00000000055,
      "d": 1380.7663541666698,
      "v": 64
    },
    {
      "midi": 61,
      "hit": false,
      "t": 148615.07500000056,
      "d": 919.228854166664,
      "v": 64
    },
    {
      "midi": 64,
      "hit": false,
      "t": 148615.07500000056,
      "d": 919.228854166664,
      "v": 64
    },
    {
      "midi": 69,
      "hit": false,
      "t": 148615.07500000056,
      "d": 919.228854166664,
      "v": 64
    },
    {
      "midi": 61,
      "hit": false,
      "t": 148615.07500000056,
      "d": 919.228854166664,
      "v": 64
    },
    {
      "midi": 64,
      "hit": false,
      "t": 148615.07500000056,
      "d": 919.228854166664,
      "v": 64
    },
    {
      "midi": 69,
      "hit": false,
      "t": 148615.07500000056,
      "d": 919.228854166664,
      "v": 64
    },
    {
      "midi": 40,
      "hit": false,
      "t": 149076.61250000057,
      "d": 457.69135416665813,
      "v": 64
    },
    {
      "midi": 40,
      "hit": false,
      "t": 149076.61250000057,
      "d": 457.69135416665813,
      "v": 64
    },
    {
      "midi": 40,
      "hit": false,
      "t": 149538.15000000058,
      "d": 919.228854166664,
      "v": 64
    },
    {
      "midi": 61,
      "hit": false,
      "t": 149538.15000000058,
      "d": 919.228854166664,
      "v": 64
    },
    {
      "midi": 64,
      "hit": false,
      "t": 149538.15000000058,
      "d": 919.228854166664,
      "v": 64
    },
    {
      "midi": 69,
      "hit": false,
      "t": 149538.15000000058,
      "d": 919.228854166664,
      "v": 64
    },
    {
      "midi": 40,
      "hit": false,
      "t": 149538.15000000058,
      "d": 919.228854166664,
      "v": 64
    },
    {
      "midi": 61,
      "hit": false,
      "t": 149538.15000000058,
      "d": 919.228854166664,
      "v": 64
    },
    {
      "midi": 64,
      "hit": false,
      "t": 149538.15000000058,
      "d": 919.228854166664,
      "v": 64
    },
    {
      "midi": 69,
      "hit": false,
      "t": 149538.15000000058,
      "d": 919.228854166664,
      "v": 64
    },
    {
      "midi": 59,
      "hit": false,
      "t": 150461.2250000006,
      "d": 457.69135416665813,
      "v": 64
    },
    {
      "midi": 66,
      "hit": false,
      "t": 150461.2250000006,
      "d": 457.69135416665813,
      "v": 64
    },
    {
      "midi": 71,
      "hit": false,
      "t": 150461.2250000006,
      "d": 457.69135416665813,
      "v": 64
    },
    {
      "midi": 39,
      "hit": false,
      "t": 150461.2250000006,
      "d": 919.228854166693,
      "v": 64
    },
    {
      "midi": 59,
      "hit": false,
      "t": 150461.2250000006,
      "d": 457.69135416665813,
      "v": 64
    },
    {
      "midi": 66,
      "hit": false,
      "t": 150461.2250000006,
      "d": 457.69135416665813,
      "v": 64
    },
    {
      "midi": 71,
      "hit": false,
      "t": 150461.2250000006,
      "d": 457.69135416665813,
      "v": 64
    },
    {
      "midi": 39,
      "hit": false,
      "t": 150461.2250000006,
      "d": 919.228854166693,
      "v": 64
    },
    {
      "midi": 66,
      "hit": false,
      "t": 150922.7625000006,
      "d": 226.92260416666977,
      "v": 64
    },
    {
      "midi": 66,
      "hit": false,
      "t": 150922.7625000006,
      "d": 226.92260416666977,
      "v": 64
    },
    {
      "midi": 71,
      "hit": false,
      "t": 151153.5312500006,
      "d": 226.92260416666977,
      "v": 64
    },
    {
      "midi": 71,
      "hit": false,
      "t": 151153.5312500006,
      "d": 226.92260416666977,
      "v": 64
    },
    {
      "midi": 61,
      "hit": false,
      "t": 151384.30000000063,
      "d": 919.228854166664,
      "v": 64
    },
    {
      "midi": 64,
      "hit": false,
      "t": 151384.30000000063,
      "d": 919.228854166664,
      "v": 64
    },
    {
      "midi": 68,
      "hit": false,
      "t": 151384.30000000063,
      "d": 919.228854166664,
      "v": 64
    },
    {
      "midi": 37,
      "hit": false,
      "t": 151384.30000000063,
      "d": 1380.7663541666698,
      "v": 64
    },
    {
      "midi": 61,
      "hit": false,
      "t": 151384.30000000063,
      "d": 919.228854166664,
      "v": 64
    },
    {
      "midi": 64,
      "hit": false,
      "t": 151384.30000000063,
      "d": 919.228854166664,
      "v": 64
    },
    {
      "midi": 68,
      "hit": false,
      "t": 151384.30000000063,
      "d": 919.228854166664,
      "v": 64
    },
    {
      "midi": 37,
      "hit": false,
      "t": 151384.30000000063,
      "d": 1380.7663541666698,
      "v": 64
    },
    {
      "midi": 61,
      "hit": false,
      "t": 152307.37500000064,
      "d": 919.228854166664,
      "v": 64
    },
    {
      "midi": 64,
      "hit": false,
      "t": 152307.37500000064,
      "d": 919.228854166664,
      "v": 64
    },
    {
      "midi": 68,
      "hit": false,
      "t": 152307.37500000064,
      "d": 919.228854166664,
      "v": 64
    },
    {
      "midi": 61,
      "hit": false,
      "t": 152307.37500000064,
      "d": 919.228854166664,
      "v": 64
    },
    {
      "midi": 64,
      "hit": false,
      "t": 152307.37500000064,
      "d": 919.228854166664,
      "v": 64
    },
    {
      "midi": 68,
      "hit": false,
      "t": 152307.37500000064,
      "d": 919.228854166664,
      "v": 64
    },
    {
      "midi": 37,
      "hit": false,
      "t": 152768.91250000065,
      "d": 457.69135416665813,
      "v": 64
    },
    {
      "midi": 37,
      "hit": false,
      "t": 152768.91250000065,
      "d": 457.69135416665813,
      "v": 64
    },
    {
      "midi": 59,
      "hit": false,
      "t": 153230.45000000065,
      "d": 919.228854166664,
      "v": 64
    },
    {
      "midi": 64,
      "hit": false,
      "t": 153230.45000000065,
      "d": 919.228854166664,
      "v": 64
    },
    {
      "midi": 68,
      "hit": false,
      "t": 153230.45000000065,
      "d": 919.228854166664,
      "v": 64
    },
    {
      "midi": 44,
      "hit": false,
      "t": 153230.45000000065,
      "d": 1380.7663541666698,
      "v": 64
    },
    {
      "midi": 59,
      "hit": false,
      "t": 153230.45000000065,
      "d": 919.228854166664,
      "v": 64
    },
    {
      "midi": 64,
      "hit": false,
      "t": 153230.45000000065,
      "d": 919.228854166664,
      "v": 64
    },
    {
      "midi": 68,
      "hit": false,
      "t": 153230.45000000065,
      "d": 919.228854166664,
      "v": 64
    },
    {
      "midi": 44,
      "hit": false,
      "t": 153230.45000000065,
      "d": 1380.7663541666698,
      "v": 64
    },
    {
      "midi": 59,
      "hit": false,
      "t": 154153.52500000066,
      "d": 919.228854166664,
      "v": 64
    },
    {
      "midi": 64,
      "hit": false,
      "t": 154153.52500000066,
      "d": 919.228854166664,
      "v": 64
    },
    {
      "midi": 68,
      "hit": false,
      "t": 154153.52500000066,
      "d": 919.228854166664,
      "v": 64
    },
    {
      "midi": 59,
      "hit": false,
      "t": 154153.52500000066,
      "d": 919.228854166664,
      "v": 64
    },
    {
      "midi": 64,
      "hit": false,
      "t": 154153.52500000066,
      "d": 919.228854166664,
      "v": 64
    },
    {
      "midi": 68,
      "hit": false,
      "t": 154153.52500000066,
      "d": 919.228854166664,
      "v": 64
    },
    {
      "midi": 44,
      "hit": false,
      "t": 154615.06250000067,
      "d": 457.69135416665813,
      "v": 64
    },
    {
      "midi": 44,
      "hit": false,
      "t": 154615.06250000067,
      "d": 457.69135416665813,
      "v": 64
    },
    {
      "midi": 61,
      "hit": false,
      "t": 155076.60000000068,
      "d": 919.228854166664,
      "v": 64
    },
    {
      "midi": 64,
      "hit": false,
      "t": 155076.60000000068,
      "d": 919.228854166664,
      "v": 64
    },
    {
      "midi": 69,
      "hit": false,
      "t": 155076.60000000068,
      "d": 919.228854166664,
      "v": 64
    },
    {
      "midi": 45,
      "hit": false,
      "t": 155076.60000000068,
      "d": 1380.7663541666698,
      "v": 64
    },
    {
      "midi": 61,
      "hit": false,
      "t": 155076.60000000068,
      "d": 919.228854166664,
      "v": 64
    },
    {
      "midi": 64,
      "hit": false,
      "t": 155076.60000000068,
      "d": 919.228854166664,
      "v": 64
    },
    {
      "midi": 69,
      "hit": false,
      "t": 155076.60000000068,
      "d": 919.228854166664,
      "v": 64
    },
    {
      "midi": 45,
      "hit": false,
      "t": 155076.60000000068,
      "d": 1380.7663541666698,
      "v": 64
    },
    {
      "midi": 61,
      "hit": false,
      "t": 155999.6750000007,
      "d": 919.228854166664,
      "v": 64
    },
    {
      "midi": 64,
      "hit": false,
      "t": 155999.6750000007,
      "d": 919.228854166664,
      "v": 64
    },
    {
      "midi": 69,
      "hit": false,
      "t": 155999.6750000007,
      "d": 919.228854166664,
      "v": 64
    },
    {
      "midi": 61,
      "hit": false,
      "t": 155999.6750000007,
      "d": 919.228854166664,
      "v": 64
    },
    {
      "midi": 64,
      "hit": false,
      "t": 155999.6750000007,
      "d": 919.228854166664,
      "v": 64
    },
    {
      "midi": 69,
      "hit": false,
      "t": 155999.6750000007,
      "d": 919.228854166664,
      "v": 64
    },
    {
      "midi": 45,
      "hit": false,
      "t": 156461.2125000007,
      "d": 457.69135416665813,
      "v": 64
    },
    {
      "midi": 45,
      "hit": false,
      "t": 156461.2125000007,
      "d": 457.69135416665813,
      "v": 64
    },
    {
      "midi": 61,
      "hit": false,
      "t": 156922.7500000007,
      "d": 1149.9976041666523,
      "v": 64
    },
    {
      "midi": 64,
      "hit": false,
      "t": 156922.7500000007,
      "d": 1149.9976041666523,
      "v": 64
    },
    {
      "midi": 69,
      "hit": false,
      "t": 156922.7500000007,
      "d": 1149.9976041666523,
      "v": 64
    },
    {
      "midi": 45,
      "hit": false,
      "t": 156922.7500000007,
      "d": 1842.3038541667047,
      "v": 64
    },
    {
      "midi": 61,
      "hit": false,
      "t": 156922.7500000007,
      "d": 1149.9976041666523,
      "v": 64
    },
    {
      "midi": 64,
      "hit": false,
      "t": 156922.7500000007,
      "d": 1149.9976041666523,
      "v": 64
    },
    {
      "midi": 69,
      "hit": false,
      "t": 156922.7500000007,
      "d": 1149.9976041666523,
      "v": 64
    },
    {
      "midi": 45,
      "hit": false,
      "t": 156922.7500000007,
      "d": 1842.3038541667047,
      "v": 64
    },
    {
      "midi": 59,
      "hit": false,
      "t": 158076.5937500007,
      "d": 226.92260416666977,
      "v": 64
    },
    {
      "midi": 59,
      "hit": false,
      "t": 158076.5937500007,
      "d": 226.92260416666977,
      "v": 64
    },
    {
      "midi": 61,
      "hit": false,
      "t": 158307.36250000072,
      "d": 226.92260416666977,
      "v": 64
    },
    {
      "midi": 61,
      "hit": false,
      "t": 158307.36250000072,
      "d": 226.92260416666977,
      "v": 64
    },
    {
      "midi": 68,
      "hit": false,
      "t": 158538.13125000073,
      "d": 226.92260416666977,
      "v": 64
    },
    {
      "midi": 68,
      "hit": false,
      "t": 158538.13125000073,
      "d": 226.92260416666977,
      "v": 64
    },
    {
      "midi": 61,
      "hit": false,
      "t": 158768.90000000075,
      "d": 919.228854166664,
      "v": 64
    },
    {
      "midi": 64,
      "hit": false,
      "t": 158768.90000000075,
      "d": 919.228854166664,
      "v": 64
    },
    {
      "midi": 69,
      "hit": false,
      "t": 158768.90000000075,
      "d": 919.228854166664,
      "v": 64
    },
    {
      "midi": 42,
      "hit": false,
      "t": 158768.90000000075,
      "d": 1380.7663541666698,
      "v": 64
    },
    {
      "midi": 61,
      "hit": false,
      "t": 158768.90000000075,
      "d": 919.228854166664,
      "v": 64
    },
    {
      "midi": 64,
      "hit": false,
      "t": 158768.90000000075,
      "d": 919.228854166664,
      "v": 64
    },
    {
      "midi": 69,
      "hit": false,
      "t": 158768.90000000075,
      "d": 919.228854166664,
      "v": 64
    },
    {
      "midi": 42,
      "hit": false,
      "t": 158768.90000000075,
      "d": 1380.7663541666698,
      "v": 64
    },
    {
      "midi": 61,
      "hit": false,
      "t": 159691.97500000076,
      "d": 919.228854166664,
      "v": 64
    },
    {
      "midi": 64,
      "hit": false,
      "t": 159691.97500000076,
      "d": 919.228854166664,
      "v": 64
    },
    {
      "midi": 69,
      "hit": false,
      "t": 159691.97500000076,
      "d": 919.228854166664,
      "v": 64
    },
    {
      "midi": 61,
      "hit": false,
      "t": 159691.97500000076,
      "d": 919.228854166664,
      "v": 64
    },
    {
      "midi": 64,
      "hit": false,
      "t": 159691.97500000076,
      "d": 919.228854166664,
      "v": 64
    },
    {
      "midi": 69,
      "hit": false,
      "t": 159691.97500000076,
      "d": 919.228854166664,
      "v": 64
    },
    {
      "midi": 42,
      "hit": false,
      "t": 160153.51250000077,
      "d": 457.69135416665813,
      "v": 64
    },
    {
      "midi": 42,
      "hit": false,
      "t": 160153.51250000077,
      "d": 457.69135416665813,
      "v": 64
    },
    {
      "midi": 42,
      "hit": false,
      "t": 160615.05000000077,
      "d": 919.228854166664,
      "v": 64
    },
    {
      "midi": 61,
      "hit": false,
      "t": 160615.05000000077,
      "d": 919.228854166664,
      "v": 64
    },
    {
      "midi": 64,
      "hit": false,
      "t": 160615.05000000077,
      "d": 919.228854166664,
      "v": 64
    },
    {
      "midi": 69,
      "hit": false,
      "t": 160615.05000000077,
      "d": 919.228854166664,
      "v": 64
    },
    {
      "midi": 42,
      "hit": false,
      "t": 160615.05000000077,
      "d": 919.228854166664,
      "v": 64
    },
    {
      "midi": 61,
      "hit": false,
      "t": 160615.05000000077,
      "d": 919.228854166664,
      "v": 64
    },
    {
      "midi": 64,
      "hit": false,
      "t": 160615.05000000077,
      "d": 919.228854166664,
      "v": 64
    },
    {
      "midi": 69,
      "hit": false,
      "t": 160615.05000000077,
      "d": 919.228854166664,
      "v": 64
    },
    {
      "midi": 39,
      "hit": false,
      "t": 161538.1250000008,
      "d": 919.228854166664,
      "v": 64
    },
    {
      "midi": 59,
      "hit": false,
      "t": 161538.1250000008,
      "d": 919.228854166664,
      "v": 64
    },
    {
      "midi": 66,
      "hit": false,
      "t": 161538.1250000008,
      "d": 919.228854166664,
      "v": 64
    },
    {
      "midi": 39,
      "hit": false,
      "t": 161538.1250000008,
      "d": 919.228854166664,
      "v": 64
    },
    {
      "midi": 59,
      "hit": false,
      "t": 161538.1250000008,
      "d": 919.228854166664,
      "v": 64
    },
    {
      "midi": 66,
      "hit": false,
      "t": 161538.1250000008,
      "d": 919.228854166664,
      "v": 64
    },
    {
      "midi": 40,
      "hit": false,
      "t": 162461.2000000008,
      "d": 1380.7663541666698,
      "v": 64
    },
    {
      "midi": 59,
      "hit": false,
      "t": 162461.2000000008,
      "d": 1380.7663541666698,
      "v": 64
    },
    {
      "midi": 64,
      "hit": false,
      "t": 162461.2000000008,
      "d": 1380.7663541666698,
      "v": 64
    },
    {
      "midi": 68,
      "hit": false,
      "t": 162461.2000000008,
      "d": 1380.7663541666698,
      "v": 64
    },
    {
      "midi": 40,
      "hit": false,
      "t": 162461.2000000008,
      "d": 1380.7663541666698,
      "v": 64
    },
    {
      "midi": 59,
      "hit": false,
      "t": 162461.2000000008,
      "d": 1380.7663541666698,
      "v": 64
    },
    {
      "midi": 64,
      "hit": false,
      "t": 162461.2000000008,
      "d": 1380.7663541666698,
      "v": 64
    },
    {
      "midi": 68,
      "hit": false,
      "t": 162461.2000000008,
      "d": 1380.7663541666698,
      "v": 64
    },
    {
      "midi": 40,
      "hit": false,
      "t": 163845.81250000081,
      "d": 226.92260416666977,
      "v": 64
    },
    {
      "midi": 68,
      "hit": false,
      "t": 163845.81250000081,
      "d": 226.92260416666977,
      "v": 64
    },
    {
      "midi": 40,
      "hit": false,
      "t": 163845.81250000081,
      "d": 226.92260416666977,
      "v": 64
    },
    {
      "midi": 68,
      "hit": false,
      "t": 163845.81250000081,
      "d": 226.92260416666977,
      "v": 64
    },
    {
      "midi": 42,
      "hit": false,
      "t": 164076.58125000083,
      "d": 226.92260416666977,
      "v": 64
    },
    {
      "midi": 69,
      "hit": false,
      "t": 164076.58125000083,
      "d": 226.92260416666977,
      "v": 64
    },
    {
      "midi": 42,
      "hit": false,
      "t": 164076.58125000083,
      "d": 226.92260416666977,
      "v": 64
    },
    {
      "midi": 69,
      "hit": false,
      "t": 164076.58125000083,
      "d": 226.92260416666977,
      "v": 64
    },
    {
      "midi": 59,
      "hit": false,
      "t": 164307.35000000085,
      "d": 457.69135416665813,
      "v": 64
    },
    {
      "midi": 64,
      "hit": false,
      "t": 164307.35000000085,
      "d": 457.69135416665813,
      "v": 64
    },
    {
      "midi": 71,
      "hit": false,
      "t": 164307.35000000085,
      "d": 457.69135416665813,
      "v": 64
    },
    {
      "midi": 44,
      "hit": false,
      "t": 164307.35000000085,
      "d": 688.4601041666756,
      "v": 64
    },
    {
      "midi": 59,
      "hit": false,
      "t": 164307.35000000085,
      "d": 457.69135416665813,
      "v": 64
    },
    {
      "midi": 64,
      "hit": false,
      "t": 164307.35000000085,
      "d": 457.69135416665813,
      "v": 64
    },
    {
      "midi": 71,
      "hit": false,
      "t": 164307.35000000085,
      "d": 457.69135416665813,
      "v": 64
    },
    {
      "midi": 44,
      "hit": false,
      "t": 164307.35000000085,
      "d": 688.4601041666756,
      "v": 64
    },
    {
      "midi": 71,
      "hit": false,
      "t": 164768.88750000086,
      "d": 226.92260416666977,
      "v": 64
    },
    {
      "midi": 71,
      "hit": false,
      "t": 164768.88750000086,
      "d": 226.92260416666977,
      "v": 64
    },
    {
      "midi": 42,
      "hit": false,
      "t": 164999.65625000087,
      "d": 688.4601041666756,
      "v": 64
    },
    {
      "midi": 59,
      "hit": false,
      "t": 164999.65625000087,
      "d": 688.4601041666756,
      "v": 64
    },
    {
      "midi": 64,
      "hit": false,
      "t": 164999.65625000087,
      "d": 688.4601041666756,
      "v": 64
    },
    {
      "midi": 69,
      "hit": false,
      "t": 164999.65625000087,
      "d": 688.4601041666756,
      "v": 64
    },
    {
      "midi": 42,
      "hit": false,
      "t": 164999.65625000087,
      "d": 688.4601041666756,
      "v": 64
    },
    {
      "midi": 59,
      "hit": false,
      "t": 164999.65625000087,
      "d": 688.4601041666756,
      "v": 64
    },
    {
      "midi": 64,
      "hit": false,
      "t": 164999.65625000087,
      "d": 688.4601041666756,
      "v": 64
    },
    {
      "midi": 69,
      "hit": false,
      "t": 164999.65625000087,
      "d": 688.4601041666756,
      "v": 64
    },
    {
      "midi": 40,
      "hit": false,
      "t": 165691.9625000009,
      "d": 457.69135416665813,
      "v": 64
    },
    {
      "midi": 59,
      "hit": false,
      "t": 165691.9625000009,
      "d": 457.69135416665813,
      "v": 64
    },
    {
      "midi": 64,
      "hit": false,
      "t": 165691.9625000009,
      "d": 457.69135416665813,
      "v": 64
    },
    {
      "midi": 68,
      "hit": false,
      "t": 165691.9625000009,
      "d": 457.69135416665813,
      "v": 64
    },
    {
      "midi": 40,
      "hit": false,
      "t": 165691.9625000009,
      "d": 457.69135416665813,
      "v": 64
    },
    {
      "midi": 59,
      "hit": false,
      "t": 165691.9625000009,
      "d": 457.69135416665813,
      "v": 64
    },
    {
      "midi": 64,
      "hit": false,
      "t": 165691.9625000009,
      "d": 457.69135416665813,
      "v": 64
    },
    {
      "midi": 68,
      "hit": false,
      "t": 165691.9625000009,
      "d": 457.69135416665813,
      "v": 64
    },
    {
      "midi": 57,
      "hit": false,
      "t": 166153.5000000009,
      "d": 919.228854166664,
      "v": 64
    },
    {
      "midi": 64,
      "hit": false,
      "t": 166153.5000000009,
      "d": 919.228854166664,
      "v": 64
    },
    {
      "midi": 66,
      "hit": false,
      "t": 166153.5000000009,
      "d": 919.228854166664,
      "v": 64
    },
    {
      "midi": 38,
      "hit": false,
      "t": 166153.5000000009,
      "d": 1380.7663541666698,
      "v": 64
    },
    {
      "midi": 57,
      "hit": false,
      "t": 166153.5000000009,
      "d": 919.228854166664,
      "v": 64
    },
    {
      "midi": 64,
      "hit": false,
      "t": 166153.5000000009,
      "d": 919.228854166664,
      "v": 64
    },
    {
      "midi": 66,
      "hit": false,
      "t": 166153.5000000009,
      "d": 919.228854166664,
      "v": 64
    },
    {
      "midi": 38,
      "hit": false,
      "t": 166153.5000000009,
      "d": 1380.7663541666698,
      "v": 64
    },
    {
      "midi": 57,
      "hit": false,
      "t": 167076.5750000009,
      "d": 919.228854166664,
      "v": 64
    },
    {
      "midi": 64,
      "hit": false,
      "t": 167076.5750000009,
      "d": 919.228854166664,
      "v": 64
    },
    {
      "midi": 66,
      "hit": false,
      "t": 167076.5750000009,
      "d": 919.228854166664,
      "v": 64
    },
    {
      "midi": 57,
      "hit": false,
      "t": 167076.5750000009,
      "d": 919.228854166664,
      "v": 64
    },
    {
      "midi": 64,
      "hit": false,
      "t": 167076.5750000009,
      "d": 919.228854166664,
      "v": 64
    },
    {
      "midi": 66,
      "hit": false,
      "t": 167076.5750000009,
      "d": 919.228854166664,
      "v": 64
    },
    {
      "midi": 38,
      "hit": false,
      "t": 167538.11250000092,
      "d": 457.69135416665813,
      "v": 64
    },
    {
      "midi": 38,
      "hit": false,
      "t": 167538.11250000092,
      "d": 457.69135416665813,
      "v": 64
    },
    {
      "midi": 57,
      "hit": false,
      "t": 167999.65000000093,
      "d": 919.228854166664,
      "v": 64
    },
    {
      "midi": 62,
      "hit": false,
      "t": 167999.65000000093,
      "d": 919.228854166664,
      "v": 64
    },
    {
      "midi": 66,
      "hit": false,
      "t": 167999.65000000093,
      "d": 919.228854166664,
      "v": 64
    },
    {
      "midi": 38,
      "hit": false,
      "t": 167999.65000000093,
      "d": 1842.3038541667047,
      "v": 64
    },
    {
      "midi": 57,
      "hit": false,
      "t": 167999.65000000093,
      "d": 919.228854166664,
      "v": 64
    },
    {
      "midi": 62,
      "hit": false,
      "t": 167999.65000000093,
      "d": 919.228854166664,
      "v": 64
    },
    {
      "midi": 66,
      "hit": false,
      "t": 167999.65000000093,
      "d": 919.228854166664,
      "v": 64
    },
    {
      "midi": 38,
      "hit": false,
      "t": 167999.65000000093,
      "d": 1842.3038541667047,
      "v": 64
    },
    {
      "midi": 57,
      "hit": false,
      "t": 168922.72500000094,
      "d": 457.69135416665813,
      "v": 64
    },
    {
      "midi": 62,
      "hit": false,
      "t": 168922.72500000094,
      "d": 457.69135416665813,
      "v": 64
    },
    {
      "midi": 66,
      "hit": false,
      "t": 168922.72500000094,
      "d": 457.69135416665813,
      "v": 64
    },
    {
      "midi": 57,
      "hit": false,
      "t": 168922.72500000094,
      "d": 457.69135416665813,
      "v": 64
    },
    {
      "midi": 62,
      "hit": false,
      "t": 168922.72500000094,
      "d": 457.69135416665813,
      "v": 64
    },
    {
      "midi": 66,
      "hit": false,
      "t": 168922.72500000094,
      "d": 457.69135416665813,
      "v": 64
    },
    {
      "midi": 64,
      "hit": false,
      "t": 169384.26250000094,
      "d": 226.92260416666977,
      "v": 64
    },
    {
      "midi": 64,
      "hit": false,
      "t": 169384.26250000094,
      "d": 226.92260416666977,
      "v": 64
    },
    {
      "midi": 68,
      "hit": false,
      "t": 169615.03125000096,
      "d": 226.92260416666977,
      "v": 64
    },
    {
      "midi": 68,
      "hit": false,
      "t": 169615.03125000096,
      "d": 226.92260416666977,
      "v": 64
    },
    {
      "midi": 57,
      "hit": false,
      "t": 169845.80000000098,
      "d": 919.228854166664,
      "v": 64
    },
    {
      "midi": 64,
      "hit": false,
      "t": 169845.80000000098,
      "d": 919.228854166664,
      "v": 64
    },
    {
      "midi": 66,
      "hit": false,
      "t": 169845.80000000098,
      "d": 919.228854166664,
      "v": 64
    },
    {
      "midi": 47,
      "hit": false,
      "t": 169845.80000000098,
      "d": 1380.7663541666698,
      "v": 64
    },
    {
      "midi": 57,
      "hit": false,
      "t": 169845.80000000098,
      "d": 919.228854166664,
      "v": 64
    },
    {
      "midi": 64,
      "hit": false,
      "t": 169845.80000000098,
      "d": 919.228854166664,
      "v": 64
    },
    {
      "midi": 66,
      "hit": false,
      "t": 169845.80000000098,
      "d": 919.228854166664,
      "v": 64
    },
    {
      "midi": 47,
      "hit": false,
      "t": 169845.80000000098,
      "d": 1380.7663541666698,
      "v": 64
    },
    {
      "midi": 57,
      "hit": false,
      "t": 170768.875000001,
      "d": 919.228854166664,
      "v": 64
    },
    {
      "midi": 64,
      "hit": false,
      "t": 170768.875000001,
      "d": 919.228854166664,
      "v": 64
    },
    {
      "midi": 66,
      "hit": false,
      "t": 170768.875000001,
      "d": 919.228854166664,
      "v": 64
    },
    {
      "midi": 57,
      "hit": false,
      "t": 170768.875000001,
      "d": 919.228854166664,
      "v": 64
    },
    {
      "midi": 64,
      "hit": false,
      "t": 170768.875000001,
      "d": 919.228854166664,
      "v": 64
    },
    {
      "midi": 66,
      "hit": false,
      "t": 170768.875000001,
      "d": 919.228854166664,
      "v": 64
    },
    {
      "midi": 47,
      "hit": false,
      "t": 171230.412500001,
      "d": 457.69135416665813,
      "v": 64
    },
    {
      "midi": 47,
      "hit": false,
      "t": 171230.412500001,
      "d": 457.69135416665813,
      "v": 64
    },
    {
      "midi": 57,
      "hit": false,
      "t": 171691.950000001,
      "d": 457.69135416665813,
      "v": 64
    },
    {
      "midi": 61,
      "hit": false,
      "t": 171691.950000001,
      "d": 457.69135416665813,
      "v": 64
    },
    {
      "midi": 64,
      "hit": false,
      "t": 171691.950000001,
      "d": 457.69135416665813,
      "v": 64
    },
    {
      "midi": 47,
      "hit": false,
      "t": 171691.950000001,
      "d": 919.228854166664,
      "v": 64
    },
    {
      "midi": 57,
      "hit": false,
      "t": 171691.950000001,
      "d": 457.69135416665813,
      "v": 64
    },
    {
      "midi": 61,
      "hit": false,
      "t": 171691.950000001,
      "d": 457.69135416665813,
      "v": 64
    },
    {
      "midi": 64,
      "hit": false,
      "t": 171691.950000001,
      "d": 457.69135416665813,
      "v": 64
    },
    {
      "midi": 47,
      "hit": false,
      "t": 171691.950000001,
      "d": 919.228854166664,
      "v": 64
    },
    {
      "midi": 66,
      "hit": false,
      "t": 172153.487500001,
      "d": 457.69135416665813,
      "v": 64
    },
    {
      "midi": 66,
      "hit": false,
      "t": 172153.487500001,
      "d": 457.69135416665813,
      "v": 64
    },
    {
      "midi": 57,
      "hit": false,
      "t": 172615.025000001,
      "d": 457.69135416665813,
      "v": 64
    },
    {
      "midi": 63,
      "hit": false,
      "t": 172615.025000001,
      "d": 457.69135416665813,
      "v": 64
    },
    {
      "midi": 68,
      "hit": false,
      "t": 172615.025000001,
      "d": 457.69135416665813,
      "v": 64
    },
    {
      "midi": 47,
      "hit": false,
      "t": 172615.025000001,
      "d": 919.228854166693,
      "v": 64
    },
    {
      "midi": 57,
      "hit": false,
      "t": 172615.025000001,
      "d": 457.69135416665813,
      "v": 64
    },
    {
      "midi": 63,
      "hit": false,
      "t": 172615.025000001,
      "d": 457.69135416665813,
      "v": 64
    },
    {
      "midi": 68,
      "hit": false,
      "t": 172615.025000001,
      "d": 457.69135416665813,
      "v": 64
    },
    {
      "midi": 47,
      "hit": false,
      "t": 172615.025000001,
      "d": 919.228854166693,
      "v": 64
    },
    {
      "midi": 69,
      "hit": false,
      "t": 173076.56250000102,
      "d": 226.92260416666977,
      "v": 64
    },
    {
      "midi": 69,
      "hit": false,
      "t": 173076.56250000102,
      "d": 226.92260416666977,
      "v": 64
    },
    {
      "midi": 71,
      "hit": false,
      "t": 173307.33125000104,
      "d": 226.92260416666977,
      "v": 64
    },
    {
      "midi": 71,
      "hit": false,
      "t": 173307.33125000104,
      "d": 226.92260416666977,
      "v": 64
    },
    {
      "midi": 59,
      "hit": false,
      "t": 173538.10000000105,
      "d": 919.228854166664,
      "v": 64
    },
    {
      "midi": 64,
      "hit": false,
      "t": 173538.10000000105,
      "d": 919.228854166664,
      "v": 64
    },
    {
      "midi": 68,
      "hit": false,
      "t": 173538.10000000105,
      "d": 919.228854166664,
      "v": 64
    },
    {
      "midi": 71,
      "hit": false,
      "t": 173538.10000000105,
      "d": 919.228854166664,
      "v": 64
    },
    {
      "midi": 40,
      "hit": false,
      "t": 173538.10000000105,
      "d": 1380.7663541666698,
      "v": 64
    },
    {
      "midi": 59,
      "hit": false,
      "t": 173538.10000000105,
      "d": 919.228854166664,
      "v": 64
    },
    {
      "midi": 64,
      "hit": false,
      "t": 173538.10000000105,
      "d": 919.228854166664,
      "v": 64
    },
    {
      "midi": 68,
      "hit": false,
      "t": 173538.10000000105,
      "d": 919.228854166664,
      "v": 64
    },
    {
      "midi": 71,
      "hit": false,
      "t": 173538.10000000105,
      "d": 919.228854166664,
      "v": 64
    },
    {
      "midi": 40,
      "hit": false,
      "t": 173538.10000000105,
      "d": 1380.7663541666698,
      "v": 64
    },
    {
      "midi": 59,
      "hit": false,
      "t": 174461.17500000107,
      "d": 919.228854166693,
      "v": 64
    },
    {
      "midi": 64,
      "hit": false,
      "t": 174461.17500000107,
      "d": 919.228854166693,
      "v": 64
    },
    {
      "midi": 68,
      "hit": false,
      "t": 174461.17500000107,
      "d": 919.228854166693,
      "v": 64
    },
    {
      "midi": 71,
      "hit": false,
      "t": 174461.17500000107,
      "d": 919.228854166693,
      "v": 64
    },
    {
      "midi": 59,
      "hit": false,
      "t": 174461.17500000107,
      "d": 919.228854166693,
      "v": 64
    },
    {
      "midi": 64,
      "hit": false,
      "t": 174461.17500000107,
      "d": 919.228854166693,
      "v": 64
    },
    {
      "midi": 68,
      "hit": false,
      "t": 174461.17500000107,
      "d": 919.228854166693,
      "v": 64
    },
    {
      "midi": 71,
      "hit": false,
      "t": 174461.17500000107,
      "d": 919.228854166693,
      "v": 64
    },
    {
      "midi": 40,
      "hit": false,
      "t": 174922.71250000107,
      "d": 226.92260416666977,
      "v": 64
    },
    {
      "midi": 40,
      "hit": false,
      "t": 174922.71250000107,
      "d": 226.92260416666977,
      "v": 64
    },
    {
      "midi": 42,
      "hit": false,
      "t": 175153.4812500011,
      "d": 226.92260416666977,
      "v": 64
    },
    {
      "midi": 42,
      "hit": false,
      "t": 175153.4812500011,
      "d": 226.92260416666977,
      "v": 64
    },
    {
      "midi": 59,
      "hit": false,
      "t": 175384.2500000011,
      "d": 919.228854166664,
      "v": 64
    },
    {
      "midi": 64,
      "hit": false,
      "t": 175384.2500000011,
      "d": 919.228854166664,
      "v": 64
    },
    {
      "midi": 71,
      "hit": false,
      "t": 175384.2500000011,
      "d": 919.228854166664,
      "v": 64
    },
    {
      "midi": 44,
      "hit": false,
      "t": 175384.2500000011,
      "d": 1380.7663541666698,
      "v": 64
    },
    {
      "midi": 59,
      "hit": false,
      "t": 175384.2500000011,
      "d": 919.228854166664,
      "v": 64
    },
    {
      "midi": 64,
      "hit": false,
      "t": 175384.2500000011,
      "d": 919.228854166664,
      "v": 64
    },
    {
      "midi": 71,
      "hit": false,
      "t": 175384.2500000011,
      "d": 919.228854166664,
      "v": 64
    },
    {
      "midi": 44,
      "hit": false,
      "t": 175384.2500000011,
      "d": 1380.7663541666698,
      "v": 64
    },
    {
      "midi": 59,
      "hit": false,
      "t": 176307.32500000112,
      "d": 919.228854166664,
      "v": 64
    },
    {
      "midi": 64,
      "hit": false,
      "t": 176307.32500000112,
      "d": 919.228854166664,
      "v": 64
    },
    {
      "midi": 71,
      "hit": false,
      "t": 176307.32500000112,
      "d": 919.228854166664,
      "v": 64
    },
    {
      "midi": 59,
      "hit": false,
      "t": 176307.32500000112,
      "d": 919.228854166664,
      "v": 64
    },
    {
      "midi": 64,
      "hit": false,
      "t": 176307.32500000112,
      "d": 919.228854166664,
      "v": 64
    },
    {
      "midi": 71,
      "hit": false,
      "t": 176307.32500000112,
      "d": 919.228854166664,
      "v": 64
    },
    {
      "midi": 44,
      "hit": false,
      "t": 176768.86250000112,
      "d": 457.69135416665813,
      "v": 64
    },
    {
      "midi": 44,
      "hit": false,
      "t": 176768.86250000112,
      "d": 457.69135416665813,
      "v": 64
    },
    {
      "midi": 57,
      "hit": false,
      "t": 177230.40000000113,
      "d": 919.228854166664,
      "v": 64
    },
    {
      "midi": 61,
      "hit": false,
      "t": 177230.40000000113,
      "d": 919.228854166664,
      "v": 64
    },
    {
      "midi": 64,
      "hit": false,
      "t": 177230.40000000113,
      "d": 919.228854166664,
      "v": 64
    },
    {
      "midi": 45,
      "hit": false,
      "t": 177230.40000000113,
      "d": 1380.7663541666698,
      "v": 64
    },
    {
      "midi": 57,
      "hit": false,
      "t": 177230.40000000113,
      "d": 919.228854166664,
      "v": 64
    },
    {
      "midi": 61,
      "hit": false,
      "t": 177230.40000000113,
      "d": 919.228854166664,
      "v": 64
    },
    {
      "midi": 64,
      "hit": false,
      "t": 177230.40000000113,
      "d": 919.228854166664,
      "v": 64
    },
    {
      "midi": 45,
      "hit": false,
      "t": 177230.40000000113,
      "d": 1380.7663541666698,
      "v": 64
    },
    {
      "midi": 57,
      "hit": false,
      "t": 178153.47500000114,
      "d": 919.228854166664,
      "v": 64
    },
    {
      "midi": 61,
      "hit": false,
      "t": 178153.47500000114,
      "d": 919.228854166664,
      "v": 64
    },
    {
      "midi": 64,
      "hit": false,
      "t": 178153.47500000114,
      "d": 919.228854166664,
      "v": 64
    },
    {
      "midi": 57,
      "hit": false,
      "t": 178153.47500000114,
      "d": 919.228854166664,
      "v": 64
    },
    {
      "midi": 61,
      "hit": false,
      "t": 178153.47500000114,
      "d": 919.228854166664,
      "v": 64
    },
    {
      "midi": 64,
      "hit": false,
      "t": 178153.47500000114,
      "d": 919.228854166664,
      "v": 64
    },
    {
      "midi": 45,
      "hit": false,
      "t": 178615.01250000115,
      "d": 457.69135416665813,
      "v": 64
    },
    {
      "midi": 45,
      "hit": false,
      "t": 178615.01250000115,
      "d": 457.69135416665813,
      "v": 64
    },
    {
      "midi": 47,
      "hit": false,
      "t": 179076.55000000115,
      "d": 919.228854166664,
      "v": 64
    },
    {
      "midi": 57,
      "hit": false,
      "t": 179076.55000000115,
      "d": 919.228854166664,
      "v": 64
    },
    {
      "midi": 61,
      "hit": false,
      "t": 179076.55000000115,
      "d": 919.228854166664,
      "v": 64
    },
    {
      "midi": 64,
      "hit": false,
      "t": 179076.55000000115,
      "d": 919.228854166664,
      "v": 64
    },
    {
      "midi": 47,
      "hit": false,
      "t": 179076.55000000115,
      "d": 919.228854166664,
      "v": 64
    },
    {
      "midi": 57,
      "hit": false,
      "t": 179076.55000000115,
      "d": 919.228854166664,
      "v": 64
    },
    {
      "midi": 61,
      "hit": false,
      "t": 179076.55000000115,
      "d": 919.228854166664,
      "v": 64
    },
    {
      "midi": 64,
      "hit": false,
      "t": 179076.55000000115,
      "d": 919.228854166664,
      "v": 64
    },
    {
      "midi": 73,
      "hit": false,
      "t": 179999.62500000116,
      "d": 457.69135416665813,
      "v": 64
    },
    {
      "midi": 45,
      "hit": false,
      "t": 179999.62500000116,
      "d": 919.228854166664,
      "v": 64
    },
    {
      "midi": 63,
      "hit": false,
      "t": 179999.62500000116,
      "d": 919.228854166664,
      "v": 64
    },
    {
      "midi": 66,
      "hit": false,
      "t": 179999.62500000116,
      "d": 919.228854166664,
      "v": 64
    },
    {
      "midi": 73,
      "hit": false,
      "t": 179999.62500000116,
      "d": 457.69135416665813,
      "v": 64
    },
    {
      "midi": 45,
      "hit": false,
      "t": 179999.62500000116,
      "d": 919.228854166664,
      "v": 64
    },
    {
      "midi": 63,
      "hit": false,
      "t": 179999.62500000116,
      "d": 919.228854166664,
      "v": 64
    },
    {
      "midi": 66,
      "hit": false,
      "t": 179999.62500000116,
      "d": 919.228854166664,
      "v": 64
    },
    {
      "midi": 75,
      "hit": false,
      "t": 180461.16250000117,
      "d": 457.69135416665813,
      "v": 64
    },
    {
      "midi": 75,
      "hit": false,
      "t": 180461.16250000117,
      "d": 457.69135416665813,
      "v": 64
    },
    {
      "midi": 63,
      "hit": false,
      "t": 180922.70000000118,
      "d": 919.228854166664,
      "v": 64
    },
    {
      "midi": 66,
      "hit": false,
      "t": 180922.70000000118,
      "d": 919.228854166664,
      "v": 64
    },
    {
      "midi": 71,
      "hit": false,
      "t": 180922.70000000118,
      "d": 919.228854166664,
      "v": 64
    },
    {
      "midi": 44,
      "hit": false,
      "t": 180922.70000000118,
      "d": 1380.7663541666698,
      "v": 64
    },
    {
      "midi": 63,
      "hit": false,
      "t": 180922.70000000118,
      "d": 919.228854166664,
      "v": 64
    },
    {
      "midi": 66,
      "hit": false,
      "t": 180922.70000000118,
      "d": 919.228854166664,
      "v": 64
    },
    {
      "midi": 71,
      "hit": false,
      "t": 180922.70000000118,
      "d": 919.228854166664,
      "v": 64
    },
    {
      "midi": 44,
      "hit": false,
      "t": 180922.70000000118,
      "d": 1380.7663541666698,
      "v": 64
    },
    {
      "midi": 63,
      "hit": false,
      "t": 181845.7750000012,
      "d": 919.228854166664,
      "v": 64
    },
    {
      "midi": 66,
      "hit": false,
      "t": 181845.7750000012,
      "d": 919.228854166664,
      "v": 64
    },
    {
      "midi": 71,
      "hit": false,
      "t": 181845.7750000012,
      "d": 919.228854166664,
      "v": 64
    },
    {
      "midi": 63,
      "hit": false,
      "t": 181845.7750000012,
      "d": 919.228854166664,
      "v": 64
    },
    {
      "midi": 66,
      "hit": false,
      "t": 181845.7750000012,
      "d": 919.228854166664,
      "v": 64
    },
    {
      "midi": 71,
      "hit": false,
      "t": 181845.7750000012,
      "d": 919.228854166664,
      "v": 64
    },
    {
      "midi": 44,
      "hit": false,
      "t": 182307.3125000012,
      "d": 457.69135416665813,
      "v": 64
    },
    {
      "midi": 44,
      "hit": false,
      "t": 182307.3125000012,
      "d": 457.69135416665813,
      "v": 64
    },
    {
      "midi": 49,
      "hit": false,
      "t": 182768.8500000012,
      "d": 919.228854166664,
      "v": 64
    },
    {
      "midi": 64,
      "hit": false,
      "t": 182768.8500000012,
      "d": 919.228854166664,
      "v": 64
    },
    {
      "midi": 68,
      "hit": false,
      "t": 182768.8500000012,
      "d": 919.228854166664,
      "v": 64
    },
    {
      "midi": 71,
      "hit": false,
      "t": 182768.8500000012,
      "d": 919.228854166664,
      "v": 64
    },
    {
      "midi": 49,
      "hit": false,
      "t": 182768.8500000012,
      "d": 919.228854166664,
      "v": 64
    },
    {
      "midi": 64,
      "hit": false,
      "t": 182768.8500000012,
      "d": 919.228854166664,
      "v": 64
    },
    {
      "midi": 68,
      "hit": false,
      "t": 182768.8500000012,
      "d": 919.228854166664,
      "v": 64
    },
    {
      "midi": 71,
      "hit": false,
      "t": 182768.8500000012,
      "d": 919.228854166664,
      "v": 64
    },
    {
      "midi": 37,
      "hit": false,
      "t": 183691.9250000012,
      "d": 919.228854166664,
      "v": 64
    },
    {
      "midi": 64,
      "hit": false,
      "t": 183691.9250000012,
      "d": 919.228854166664,
      "v": 64
    },
    {
      "midi": 68,
      "hit": false,
      "t": 183691.9250000012,
      "d": 919.228854166664,
      "v": 64
    },
    {
      "midi": 71,
      "hit": false,
      "t": 183691.9250000012,
      "d": 919.228854166664,
      "v": 64
    },
    {
      "midi": 37,
      "hit": false,
      "t": 183691.9250000012,
      "d": 919.228854166664,
      "v": 64
    },
    {
      "midi": 64,
      "hit": false,
      "t": 183691.9250000012,
      "d": 919.228854166664,
      "v": 64
    },
    {
      "midi": 68,
      "hit": false,
      "t": 183691.9250000012,
      "d": 919.228854166664,
      "v": 64
    },
    {
      "midi": 71,
      "hit": false,
      "t": 183691.9250000012,
      "d": 919.228854166664,
      "v": 64
    },
    {
      "midi": 61,
      "hit": false,
      "t": 184615.00000000122,
      "d": 919.228854166664,
      "v": 64
    },
    {
      "midi": 64,
      "hit": false,
      "t": 184615.00000000122,
      "d": 919.228854166664,
      "v": 64
    },
    {
      "midi": 69,
      "hit": false,
      "t": 184615.00000000122,
      "d": 919.228854166664,
      "v": 64
    },
    {
      "midi": 42,
      "hit": false,
      "t": 184615.00000000122,
      "d": 1380.7663541666698,
      "v": 64
    },
    {
      "midi": 61,
      "hit": false,
      "t": 184615.00000000122,
      "d": 919.228854166664,
      "v": 64
    },
    {
      "midi": 64,
      "hit": false,
      "t": 184615.00000000122,
      "d": 919.228854166664,
      "v": 64
    },
    {
      "midi": 69,
      "hit": false,
      "t": 184615.00000000122,
      "d": 919.228854166664,
      "v": 64
    },
    {
      "midi": 42,
      "hit": false,
      "t": 184615.00000000122,
      "d": 1380.7663541666698,
      "v": 64
    },
    {
      "midi": 61,
      "hit": false,
      "t": 185538.07500000123,
      "d": 919.228854166664,
      "v": 64
    },
    {
      "midi": 64,
      "hit": false,
      "t": 185538.07500000123,
      "d": 919.228854166664,
      "v": 64
    },
    {
      "midi": 69,
      "hit": false,
      "t": 185538.07500000123,
      "d": 919.228854166664,
      "v": 64
    },
    {
      "midi": 61,
      "hit": false,
      "t": 185538.07500000123,
      "d": 919.228854166664,
      "v": 64
    },
    {
      "midi": 64,
      "hit": false,
      "t": 185538.07500000123,
      "d": 919.228854166664,
      "v": 64
    },
    {
      "midi": 69,
      "hit": false,
      "t": 185538.07500000123,
      "d": 919.228854166664,
      "v": 64
    },
    {
      "midi": 42,
      "hit": false,
      "t": 185999.61250000124,
      "d": 457.69135416665813,
      "v": 64
    },
    {
      "midi": 42,
      "hit": false,
      "t": 185999.61250000124,
      "d": 457.69135416665813,
      "v": 64
    },
    {
      "midi": 57,
      "hit": false,
      "t": 186461.15000000125,
      "d": 457.69135416665813,
      "v": 64
    },
    {
      "midi": 61,
      "hit": false,
      "t": 186461.15000000125,
      "d": 457.69135416665813,
      "v": 64
    },
    {
      "midi": 64,
      "hit": false,
      "t": 186461.15000000125,
      "d": 457.69135416665813,
      "v": 64
    },
    {
      "midi": 47,
      "hit": false,
      "t": 186461.15000000125,
      "d": 919.228854166664,
      "v": 64
    },
    {
      "midi": 57,
      "hit": false,
      "t": 186461.15000000125,
      "d": 457.69135416665813,
      "v": 64
    },
    {
      "midi": 61,
      "hit": false,
      "t": 186461.15000000125,
      "d": 457.69135416665813,
      "v": 64
    },
    {
      "midi": 64,
      "hit": false,
      "t": 186461.15000000125,
      "d": 457.69135416665813,
      "v": 64
    },
    {
      "midi": 47,
      "hit": false,
      "t": 186461.15000000125,
      "d": 919.228854166664,
      "v": 64
    },
    {
      "midi": 66,
      "hit": false,
      "t": 186922.68750000125,
      "d": 457.69135416665813,
      "v": 64
    },
    {
      "midi": 66,
      "hit": false,
      "t": 186922.68750000125,
      "d": 457.69135416665813,
      "v": 64
    },
    {
      "midi": 57,
      "hit": false,
      "t": 187384.22500000126,
      "d": 457.69135416665813,
      "v": 64
    },
    {
      "midi": 61,
      "hit": false,
      "t": 187384.22500000126,
      "d": 457.69135416665813,
      "v": 64
    },
    {
      "midi": 68,
      "hit": false,
      "t": 187384.22500000126,
      "d": 457.69135416665813,
      "v": 64
    },
    {
      "midi": 47,
      "hit": false,
      "t": 187384.22500000126,
      "d": 919.228854166693,
      "v": 64
    },
    {
      "midi": 57,
      "hit": false,
      "t": 187384.22500000126,
      "d": 457.69135416665813,
      "v": 64
    },
    {
      "midi": 61,
      "hit": false,
      "t": 187384.22500000126,
      "d": 457.69135416665813,
      "v": 64
    },
    {
      "midi": 68,
      "hit": false,
      "t": 187384.22500000126,
      "d": 457.69135416665813,
      "v": 64
    },
    {
      "midi": 47,
      "hit": false,
      "t": 187384.22500000126,
      "d": 919.228854166693,
      "v": 64
    },
    {
      "midi": 69,
      "hit": false,
      "t": 187845.76250000126,
      "d": 226.92260416666977,
      "v": 64
    },
    {
      "midi": 69,
      "hit": false,
      "t": 187845.76250000126,
      "d": 226.92260416666977,
      "v": 64
    },
    {
      "midi": 71,
      "hit": false,
      "t": 188076.53125000128,
      "d": 226.92260416666977,
      "v": 64
    },
    {
      "midi": 71,
      "hit": false,
      "t": 188076.53125000128,
      "d": 226.92260416666977,
      "v": 64
    },
    {
      "midi": 59,
      "hit": false,
      "t": 188307.3000000013,
      "d": 919.228854166664,
      "v": 64
    },
    {
      "midi": 64,
      "hit": false,
      "t": 188307.3000000013,
      "d": 919.228854166664,
      "v": 64
    },
    {
      "midi": 68,
      "hit": false,
      "t": 188307.3000000013,
      "d": 919.228854166664,
      "v": 64
    },
    {
      "midi": 71,
      "hit": false,
      "t": 188307.3000000013,
      "d": 919.228854166664,
      "v": 64
    },
    {
      "midi": 37,
      "hit": false,
      "t": 188307.3000000013,
      "d": 1380.7663541666698,
      "v": 64
    },
    {
      "midi": 59,
      "hit": false,
      "t": 188307.3000000013,
      "d": 919.228854166664,
      "v": 64
    },
    {
      "midi": 64,
      "hit": false,
      "t": 188307.3000000013,
      "d": 919.228854166664,
      "v": 64
    },
    {
      "midi": 68,
      "hit": false,
      "t": 188307.3000000013,
      "d": 919.228854166664,
      "v": 64
    },
    {
      "midi": 71,
      "hit": false,
      "t": 188307.3000000013,
      "d": 919.228854166664,
      "v": 64
    },
    {
      "midi": 37,
      "hit": false,
      "t": 188307.3000000013,
      "d": 1380.7663541666698,
      "v": 64
    },
    {
      "midi": 59,
      "hit": false,
      "t": 189230.3750000013,
      "d": 919.228854166664,
      "v": 64
    },
    {
      "midi": 64,
      "hit": false,
      "t": 189230.3750000013,
      "d": 919.228854166664,
      "v": 64
    },
    {
      "midi": 68,
      "hit": false,
      "t": 189230.3750000013,
      "d": 919.228854166664,
      "v": 64
    },
    {
      "midi": 71,
      "hit": false,
      "t": 189230.3750000013,
      "d": 919.228854166664,
      "v": 64
    },
    {
      "midi": 59,
      "hit": false,
      "t": 189230.3750000013,
      "d": 919.228854166664,
      "v": 64
    },
    {
      "midi": 64,
      "hit": false,
      "t": 189230.3750000013,
      "d": 919.228854166664,
      "v": 64
    },
    {
      "midi": 68,
      "hit": false,
      "t": 189230.3750000013,
      "d": 919.228854166664,
      "v": 64
    },
    {
      "midi": 71,
      "hit": false,
      "t": 189230.3750000013,
      "d": 919.228854166664,
      "v": 64
    },
    {
      "midi": 37,
      "hit": false,
      "t": 189691.91250000132,
      "d": 457.69135416665813,
      "v": 64
    },
    {
      "midi": 37,
      "hit": false,
      "t": 189691.91250000132,
      "d": 457.69135416665813,
      "v": 64
    },
    {
      "midi": 63,
      "hit": false,
      "t": 190153.45000000132,
      "d": 919.228854166664,
      "v": 64
    },
    {
      "midi": 66,
      "hit": false,
      "t": 190153.45000000132,
      "d": 919.228854166664,
      "v": 64
    },
    {
      "midi": 71,
      "hit": false,
      "t": 190153.45000000132,
      "d": 919.228854166664,
      "v": 64
    },
    {
      "midi": 44,
      "hit": false,
      "t": 190153.45000000132,
      "d": 1842.3038541666756,
      "v": 64
    },
    {
      "midi": 63,
      "hit": false,
      "t": 190153.45000000132,
      "d": 919.228854166664,
      "v": 64
    },
    {
      "midi": 66,
      "hit": false,
      "t": 190153.45000000132,
      "d": 919.228854166664,
      "v": 64
    },
    {
      "midi": 71,
      "hit": false,
      "t": 190153.45000000132,
      "d": 919.228854166664,
      "v": 64
    },
    {
      "midi": 44,
      "hit": false,
      "t": 190153.45000000132,
      "d": 1842.3038541666756,
      "v": 64
    },
    {
      "midi": 63,
      "hit": false,
      "t": 191076.52500000133,
      "d": 919.228854166664,
      "v": 64
    },
    {
      "midi": 66,
      "hit": false,
      "t": 191076.52500000133,
      "d": 919.228854166664,
      "v": 64
    },
    {
      "midi": 71,
      "hit": false,
      "t": 191076.52500000133,
      "d": 919.228854166664,
      "v": 64
    },
    {
      "midi": 63,
      "hit": false,
      "t": 191076.52500000133,
      "d": 919.228854166664,
      "v": 64
    },
    {
      "midi": 66,
      "hit": false,
      "t": 191076.52500000133,
      "d": 919.228854166664,
      "v": 64
    },
    {
      "midi": 71,
      "hit": false,
      "t": 191076.52500000133,
      "d": 919.228854166664,
      "v": 64
    },
    {
      "midi": 45,
      "hit": false,
      "t": 191999.60000000134,
      "d": 919.228854166664,
      "v": 64
    },
    {
      "midi": 64,
      "hit": false,
      "t": 191999.60000000134,
      "d": 919.228854166664,
      "v": 64
    },
    {
      "midi": 69,
      "hit": false,
      "t": 191999.60000000134,
      "d": 919.228854166664,
      "v": 64
    },
    {
      "midi": 73,
      "hit": false,
      "t": 191999.60000000134,
      "d": 919.228854166664,
      "v": 64
    },
    {
      "midi": 45,
      "hit": false,
      "t": 191999.60000000134,
      "d": 919.228854166664,
      "v": 64
    },
    {
      "midi": 64,
      "hit": false,
      "t": 191999.60000000134,
      "d": 919.228854166664,
      "v": 64
    },
    {
      "midi": 69,
      "hit": false,
      "t": 191999.60000000134,
      "d": 919.228854166664,
      "v": 64
    },
    {
      "midi": 73,
      "hit": false,
      "t": 191999.60000000134,
      "d": 919.228854166664,
      "v": 64
    },
    {
      "midi": 47,
      "hit": false,
      "t": 192922.67500000136,
      "d": 919.228854166664,
      "v": 64
    },
    {
      "midi": 64,
      "hit": false,
      "t": 192922.67500000136,
      "d": 919.228854166664,
      "v": 64
    },
    {
      "midi": 71,
      "hit": false,
      "t": 192922.67500000136,
      "d": 919.228854166664,
      "v": 64
    },
    {
      "midi": 75,
      "hit": false,
      "t": 192922.67500000136,
      "d": 919.228854166664,
      "v": 64
    },
    {
      "midi": 47,
      "hit": false,
      "t": 192922.67500000136,
      "d": 919.228854166664,
      "v": 64
    },
    {
      "midi": 64,
      "hit": false,
      "t": 192922.67500000136,
      "d": 919.228854166664,
      "v": 64
    },
    {
      "midi": 71,
      "hit": false,
      "t": 192922.67500000136,
      "d": 919.228854166664,
      "v": 64
    },
    {
      "midi": 75,
      "hit": false,
      "t": 192922.67500000136,
      "d": 919.228854166664,
      "v": 64
    },
    {
      "midi": 68,
      "hit": false,
      "t": 193845.75000000137,
      "d": 919.228854166664,
      "v": 64
    },
    {
      "midi": 73,
      "hit": false,
      "t": 193845.75000000137,
      "d": 919.228854166664,
      "v": 64
    },
    {
      "midi": 76,
      "hit": false,
      "t": 193845.75000000137,
      "d": 919.228854166664,
      "v": 64
    },
    {
      "midi": 49,
      "hit": false,
      "t": 193845.75000000137,
      "d": 1380.7663541666698,
      "v": 64
    },
    {
      "midi": 68,
      "hit": false,
      "t": 193845.75000000137,
      "d": 919.228854166664,
      "v": 64
    },
    {
      "midi": 73,
      "hit": false,
      "t": 193845.75000000137,
      "d": 919.228854166664,
      "v": 64
    },
    {
      "midi": 76,
      "hit": false,
      "t": 193845.75000000137,
      "d": 919.228854166664,
      "v": 64
    },
    {
      "midi": 49,
      "hit": false,
      "t": 193845.75000000137,
      "d": 1380.7663541666698,
      "v": 64
    },
    {
      "midi": 68,
      "hit": false,
      "t": 194768.82500000138,
      "d": 919.228854166693,
      "v": 64
    },
    {
      "midi": 73,
      "hit": false,
      "t": 194768.82500000138,
      "d": 919.228854166693,
      "v": 64
    },
    {
      "midi": 76,
      "hit": false,
      "t": 194768.82500000138,
      "d": 919.228854166693,
      "v": 64
    },
    {
      "midi": 68,
      "hit": false,
      "t": 194768.82500000138,
      "d": 919.228854166693,
      "v": 64
    },
    {
      "midi": 73,
      "hit": false,
      "t": 194768.82500000138,
      "d": 919.228854166693,
      "v": 64
    },
    {
      "midi": 76,
      "hit": false,
      "t": 194768.82500000138,
      "d": 919.228854166693,
      "v": 64
    },
    {
      "midi": 45,
      "hit": false,
      "t": 195230.36250000139,
      "d": 226.92260416666977,
      "v": 64
    },
    {
      "midi": 45,
      "hit": false,
      "t": 195230.36250000139,
      "d": 226.92260416666977,
      "v": 64
    },
    {
      "midi": 44,
      "hit": false,
      "t": 195461.1312500014,
      "d": 226.92260416666977,
      "v": 64
    },
    {
      "midi": 44,
      "hit": false,
      "t": 195461.1312500014,
      "d": 226.92260416666977,
      "v": 64
    },
    {
      "midi": 64,
      "hit": false,
      "t": 195691.90000000142,
      "d": 919.228854166664,
      "v": 64
    },
    {
      "midi": 69,
      "hit": false,
      "t": 195691.90000000142,
      "d": 919.228854166664,
      "v": 64
    },
    {
      "midi": 73,
      "hit": false,
      "t": 195691.90000000142,
      "d": 919.228854166664,
      "v": 64
    },
    {
      "midi": 76,
      "hit": false,
      "t": 195691.90000000142,
      "d": 919.228854166664,
      "v": 64
    },
    {
      "midi": 42,
      "hit": false,
      "t": 195691.90000000142,
      "d": 1380.7663541666698,
      "v": 64
    },
    {
      "midi": 64,
      "hit": false,
      "t": 195691.90000000142,
      "d": 919.228854166664,
      "v": 64
    },
    {
      "midi": 69,
      "hit": false,
      "t": 195691.90000000142,
      "d": 919.228854166664,
      "v": 64
    },
    {
      "midi": 73,
      "hit": false,
      "t": 195691.90000000142,
      "d": 919.228854166664,
      "v": 64
    },
    {
      "midi": 76,
      "hit": false,
      "t": 195691.90000000142,
      "d": 919.228854166664,
      "v": 64
    },
    {
      "midi": 42,
      "hit": false,
      "t": 195691.90000000142,
      "d": 1380.7663541666698,
      "v": 64
    },
    {
      "midi": 64,
      "hit": false,
      "t": 196614.97500000143,
      "d": 919.228854166693,
      "v": 64
    },
    {
      "midi": 69,
      "hit": false,
      "t": 196614.97500000143,
      "d": 919.228854166693,
      "v": 64
    },
    {
      "midi": 73,
      "hit": false,
      "t": 196614.97500000143,
      "d": 919.228854166693,
      "v": 64
    },
    {
      "midi": 76,
      "hit": false,
      "t": 196614.97500000143,
      "d": 919.228854166693,
      "v": 64
    },
    {
      "midi": 64,
      "hit": false,
      "t": 196614.97500000143,
      "d": 919.228854166693,
      "v": 64
    },
    {
      "midi": 69,
      "hit": false,
      "t": 196614.97500000143,
      "d": 919.228854166693,
      "v": 64
    },
    {
      "midi": 73,
      "hit": false,
      "t": 196614.97500000143,
      "d": 919.228854166693,
      "v": 64
    },
    {
      "midi": 76,
      "hit": false,
      "t": 196614.97500000143,
      "d": 919.228854166693,
      "v": 64
    },
    {
      "midi": 42,
      "hit": false,
      "t": 197076.51250000144,
      "d": 226.92260416666977,
      "v": 64
    },
    {
      "midi": 42,
      "hit": false,
      "t": 197076.51250000144,
      "d": 226.92260416666977,
      "v": 64
    },
    {
      "midi": 45,
      "hit": false,
      "t": 197307.28125000146,
      "d": 226.92260416666977,
      "v": 64
    },
    {
      "midi": 45,
      "hit": false,
      "t": 197307.28125000146,
      "d": 226.92260416666977,
      "v": 64
    },
    {
      "midi": 47,
      "hit": false,
      "t": 197538.05000000147,
      "d": 919.228854166664,
      "v": 64
    },
    {
      "midi": 64,
      "hit": false,
      "t": 197538.05000000147,
      "d": 919.228854166664,
      "v": 64
    },
    {
      "midi": 69,
      "hit": false,
      "t": 197538.05000000147,
      "d": 919.228854166664,
      "v": 64
    },
    {
      "midi": 73,
      "hit": false,
      "t": 197538.05000000147,
      "d": 919.228854166664,
      "v": 64
    },
    {
      "midi": 76,
      "hit": false,
      "t": 197538.05000000147,
      "d": 919.228854166664,
      "v": 64
    },
    {
      "midi": 47,
      "hit": false,
      "t": 197538.05000000147,
      "d": 919.228854166664,
      "v": 64
    },
    {
      "midi": 64,
      "hit": false,
      "t": 197538.05000000147,
      "d": 919.228854166664,
      "v": 64
    },
    {
      "midi": 69,
      "hit": false,
      "t": 197538.05000000147,
      "d": 919.228854166664,
      "v": 64
    },
    {
      "midi": 73,
      "hit": false,
      "t": 197538.05000000147,
      "d": 919.228854166664,
      "v": 64
    },
    {
      "midi": 76,
      "hit": false,
      "t": 197538.05000000147,
      "d": 919.228854166664,
      "v": 64
    },
    {
      "midi": 47,
      "hit": false,
      "t": 198461.12500000148,
      "d": 919.228854166664,
      "v": 64
    },
    {
      "midi": 64,
      "hit": false,
      "t": 198461.12500000148,
      "d": 919.228854166664,
      "v": 64
    },
    {
      "midi": 69,
      "hit": false,
      "t": 198461.12500000148,
      "d": 919.228854166664,
      "v": 64
    },
    {
      "midi": 73,
      "hit": false,
      "t": 198461.12500000148,
      "d": 919.228854166664,
      "v": 64
    },
    {
      "midi": 76,
      "hit": false,
      "t": 198461.12500000148,
      "d": 919.228854166664,
      "v": 64
    },
    {
      "midi": 47,
      "hit": false,
      "t": 198461.12500000148,
      "d": 919.228854166664,
      "v": 64
    },
    {
      "midi": 64,
      "hit": false,
      "t": 198461.12500000148,
      "d": 919.228854166664,
      "v": 64
    },
    {
      "midi": 69,
      "hit": false,
      "t": 198461.12500000148,
      "d": 919.228854166664,
      "v": 64
    },
    {
      "midi": 73,
      "hit": false,
      "t": 198461.12500000148,
      "d": 919.228854166664,
      "v": 64
    },
    {
      "midi": 76,
      "hit": false,
      "t": 198461.12500000148,
      "d": 919.228854166664,
      "v": 64
    },
    {
      "midi": 47,
      "hit": false,
      "t": 199384.2000000015,
      "d": 457.69135416665813,
      "v": 64
    },
    {
      "midi": 64,
      "hit": false,
      "t": 199384.2000000015,
      "d": 919.228854166664,
      "v": 64
    },
    {
      "midi": 68,
      "hit": false,
      "t": 199384.2000000015,
      "d": 919.228854166664,
      "v": 64
    },
    {
      "midi": 71,
      "hit": false,
      "t": 199384.2000000015,
      "d": 919.228854166664,
      "v": 64
    },
    {
      "midi": 47,
      "hit": false,
      "t": 199384.2000000015,
      "d": 457.69135416665813,
      "v": 64
    },
    {
      "midi": 64,
      "hit": false,
      "t": 199384.2000000015,
      "d": 919.228854166664,
      "v": 64
    },
    {
      "midi": 68,
      "hit": false,
      "t": 199384.2000000015,
      "d": 919.228854166664,
      "v": 64
    },
    {
      "midi": 71,
      "hit": false,
      "t": 199384.2000000015,
      "d": 919.228854166664,
      "v": 64
    },
    {
      "midi": 47,
      "hit": false,
      "t": 199845.7375000015,
      "d": 919.228854166664,
      "v": 64
    },
    {
      "midi": 47,
      "hit": false,
      "t": 199845.7375000015,
      "d": 919.228854166664,
      "v": 64
    },
    {
      "midi": 64,
      "hit": false,
      "t": 200307.2750000015,
      "d": 919.228854166664,
      "v": 64
    },
    {
      "midi": 68,
      "hit": false,
      "t": 200307.2750000015,
      "d": 919.228854166664,
      "v": 64
    },
    {
      "midi": 71,
      "hit": false,
      "t": 200307.2750000015,
      "d": 919.228854166664,
      "v": 64
    },
    {
      "midi": 64,
      "hit": false,
      "t": 200307.2750000015,
      "d": 919.228854166664,
      "v": 64
    },
    {
      "midi": 68,
      "hit": false,
      "t": 200307.2750000015,
      "d": 919.228854166664,
      "v": 64
    },
    {
      "midi": 71,
      "hit": false,
      "t": 200307.2750000015,
      "d": 919.228854166664,
      "v": 64
    },
    {
      "midi": 47,
      "hit": false,
      "t": 200768.8125000015,
      "d": 457.69135416665813,
      "v": 64
    },
    {
      "midi": 47,
      "hit": false,
      "t": 200768.8125000015,
      "d": 457.69135416665813,
      "v": 64
    },
    {
      "midi": 47,
      "hit": false,
      "t": 201230.35000000152,
      "d": 457.69135416665813,
      "v": 64
    },
    {
      "midi": 64,
      "hit": false,
      "t": 201230.35000000152,
      "d": 919.228854166664,
      "v": 64
    },
    {
      "midi": 68,
      "hit": false,
      "t": 201230.35000000152,
      "d": 919.228854166664,
      "v": 64
    },
    {
      "midi": 71,
      "hit": false,
      "t": 201230.35000000152,
      "d": 919.228854166664,
      "v": 64
    },
    {
      "midi": 47,
      "hit": false,
      "t": 201230.35000000152,
      "d": 457.69135416665813,
      "v": 64
    },
    {
      "midi": 64,
      "hit": false,
      "t": 201230.35000000152,
      "d": 919.228854166664,
      "v": 64
    },
    {
      "midi": 68,
      "hit": false,
      "t": 201230.35000000152,
      "d": 919.228854166664,
      "v": 64
    },
    {
      "midi": 71,
      "hit": false,
      "t": 201230.35000000152,
      "d": 919.228854166664,
      "v": 64
    },
    {
      "midi": 47,
      "hit": false,
      "t": 201691.88750000153,
      "d": 1380.766354166728,
      "v": 64
    },
    {
      "midi": 47,
      "hit": false,
      "t": 201691.88750000153,
      "d": 1380.766354166728,
      "v": 64
    },
    {
      "midi": 59,
      "hit": false,
      "t": 202153.42500000153,
      "d": 226.92260416666977,
      "v": 64
    },
    {
      "midi": 59,
      "hit": false,
      "t": 202153.42500000153,
      "d": 226.92260416666977,
      "v": 64
    },
    {
      "midi": 64,
      "hit": false,
      "t": 202384.19375000155,
      "d": 226.92260416666977,
      "v": 64
    },
    {
      "midi": 64,
      "hit": false,
      "t": 202384.19375000155,
      "d": 226.92260416666977,
      "v": 64
    },
    {
      "midi": 66,
      "hit": false,
      "t": 202614.96250000157,
      "d": 226.92260416666977,
      "v": 64
    },
    {
      "midi": 66,
      "hit": false,
      "t": 202614.96250000157,
      "d": 226.92260416666977,
      "v": 64
    },
    {
      "midi": 68,
      "hit": false,
      "t": 202845.73125000158,
      "d": 226.92260416666977,
      "v": 64
    },
    {
      "midi": 68,
      "hit": false,
      "t": 202845.73125000158,
      "d": 226.92260416666977,
      "v": 64
    },
    {
      "midi": 47,
      "hit": false,
      "t": 203076.5000000016,
      "d": 457.69135416665813,
      "v": 64
    },
    {
      "midi": 61,
      "hit": false,
      "t": 203076.5000000016,
      "d": 919.228854166664,
      "v": 64
    },
    {
      "midi": 64,
      "hit": false,
      "t": 203076.5000000016,
      "d": 919.228854166664,
      "v": 64
    },
    {
      "midi": 69,
      "hit": false,
      "t": 203076.5000000016,
      "d": 919.228854166664,
      "v": 64
    },
    {
      "midi": 47,
      "hit": false,
      "t": 203076.5000000016,
      "d": 457.69135416665813,
      "v": 64
    },
    {
      "midi": 61,
      "hit": false,
      "t": 203076.5000000016,
      "d": 919.228854166664,
      "v": 64
    },
    {
      "midi": 64,
      "hit": false,
      "t": 203076.5000000016,
      "d": 919.228854166664,
      "v": 64
    },
    {
      "midi": 69,
      "hit": false,
      "t": 203076.5000000016,
      "d": 919.228854166664,
      "v": 64
    },
    {
      "midi": 47,
      "hit": false,
      "t": 203538.0375000016,
      "d": 919.228854166664,
      "v": 64
    },
    {
      "midi": 47,
      "hit": false,
      "t": 203538.0375000016,
      "d": 919.228854166664,
      "v": 64
    },
    {
      "midi": 61,
      "hit": false,
      "t": 203999.5750000016,
      "d": 919.228854166664,
      "v": 64
    },
    {
      "midi": 64,
      "hit": false,
      "t": 203999.5750000016,
      "d": 919.228854166664,
      "v": 64
    },
    {
      "midi": 69,
      "hit": false,
      "t": 203999.5750000016,
      "d": 919.228854166664,
      "v": 64
    },
    {
      "midi": 61,
      "hit": false,
      "t": 203999.5750000016,
      "d": 919.228854166664,
      "v": 64
    },
    {
      "midi": 64,
      "hit": false,
      "t": 203999.5750000016,
      "d": 919.228854166664,
      "v": 64
    },
    {
      "midi": 69,
      "hit": false,
      "t": 203999.5750000016,
      "d": 919.228854166664,
      "v": 64
    },
    {
      "midi": 47,
      "hit": false,
      "t": 204461.11250000162,
      "d": 457.69135416665813,
      "v": 64
    },
    {
      "midi": 47,
      "hit": false,
      "t": 204461.11250000162,
      "d": 457.69135416665813,
      "v": 64
    },
    {
      "midi": 47,
      "hit": false,
      "t": 204922.65000000162,
      "d": 457.69135416665813,
      "v": 64
    },
    {
      "midi": 61,
      "hit": false,
      "t": 204922.65000000162,
      "d": 919.228854166664,
      "v": 64
    },
    {
      "midi": 64,
      "hit": false,
      "t": 204922.65000000162,
      "d": 919.228854166664,
      "v": 64
    },
    {
      "midi": 69,
      "hit": false,
      "t": 204922.65000000162,
      "d": 919.228854166664,
      "v": 64
    },
    {
      "midi": 47,
      "hit": false,
      "t": 204922.65000000162,
      "d": 457.69135416665813,
      "v": 64
    },
    {
      "midi": 61,
      "hit": false,
      "t": 204922.65000000162,
      "d": 919.228854166664,
      "v": 64
    },
    {
      "midi": 64,
      "hit": false,
      "t": 204922.65000000162,
      "d": 919.228854166664,
      "v": 64
    },
    {
      "midi": 69,
      "hit": false,
      "t": 204922.65000000162,
      "d": 919.228854166664,
      "v": 64
    },
    {
      "midi": 47,
      "hit": false,
      "t": 205384.18750000163,
      "d": 1380.766354166728,
      "v": 64
    },
    {
      "midi": 47,
      "hit": false,
      "t": 205384.18750000163,
      "d": 1380.766354166728,
      "v": 64
    },
    {
      "midi": 61,
      "hit": false,
      "t": 205845.72500000164,
      "d": 226.92260416666977,
      "v": 64
    },
    {
      "midi": 61,
      "hit": false,
      "t": 205845.72500000164,
      "d": 226.92260416666977,
      "v": 64
    },
    {
      "midi": 64,
      "hit": false,
      "t": 206076.49375000165,
      "d": 226.92260416666977,
      "v": 64
    },
    {
      "midi": 64,
      "hit": false,
      "t": 206076.49375000165,
      "d": 226.92260416666977,
      "v": 64
    },
    {
      "midi": 69,
      "hit": false,
      "t": 206307.26250000167,
      "d": 226.92260416666977,
      "v": 64
    },
    {
      "midi": 69,
      "hit": false,
      "t": 206307.26250000167,
      "d": 226.92260416666977,
      "v": 64
    },
    {
      "midi": 73,
      "hit": false,
      "t": 206538.0312500017,
      "d": 226.92260416666977,
      "v": 64
    },
    {
      "midi": 73,
      "hit": false,
      "t": 206538.0312500017,
      "d": 226.92260416666977,
      "v": 64
    },
    {
      "midi": 49,
      "hit": false,
      "t": 206768.8000000017,
      "d": 457.69135416665813,
      "v": 64
    },
    {
      "midi": 64,
      "hit": false,
      "t": 206768.8000000017,
      "d": 919.228854166664,
      "v": 64
    },
    {
      "midi": 68,
      "hit": false,
      "t": 206768.8000000017,
      "d": 919.228854166664,
      "v": 64
    },
    {
      "midi": 71,
      "hit": false,
      "t": 206768.8000000017,
      "d": 919.228854166664,
      "v": 64
    },
    {
      "midi": 49,
      "hit": false,
      "t": 206768.8000000017,
      "d": 457.69135416665813,
      "v": 64
    },
    {
      "midi": 64,
      "hit": false,
      "t": 206768.8000000017,
      "d": 919.228854166664,
      "v": 64
    },
    {
      "midi": 68,
      "hit": false,
      "t": 206768.8000000017,
      "d": 919.228854166664,
      "v": 64
    },
    {
      "midi": 71,
      "hit": false,
      "t": 206768.8000000017,
      "d": 919.228854166664,
      "v": 64
    },
    {
      "midi": 49,
      "hit": false,
      "t": 207230.3375000017,
      "d": 919.228854166664,
      "v": 64
    },
    {
      "midi": 49,
      "hit": false,
      "t": 207230.3375000017,
      "d": 919.228854166664,
      "v": 64
    },
    {
      "midi": 64,
      "hit": false,
      "t": 207691.87500000172,
      "d": 919.228854166664,
      "v": 64
    },
    {
      "midi": 68,
      "hit": false,
      "t": 207691.87500000172,
      "d": 919.228854166664,
      "v": 64
    },
    {
      "midi": 71,
      "hit": false,
      "t": 207691.87500000172,
      "d": 919.228854166664,
      "v": 64
    },
    {
      "midi": 64,
      "hit": false,
      "t": 207691.87500000172,
      "d": 919.228854166664,
      "v": 64
    },
    {
      "midi": 68,
      "hit": false,
      "t": 207691.87500000172,
      "d": 919.228854166664,
      "v": 64
    },
    {
      "midi": 71,
      "hit": false,
      "t": 207691.87500000172,
      "d": 919.228854166664,
      "v": 64
    },
    {
      "midi": 49,
      "hit": false,
      "t": 208153.41250000172,
      "d": 457.69135416665813,
      "v": 64
    },
    {
      "midi": 49,
      "hit": false,
      "t": 208153.41250000172,
      "d": 457.69135416665813,
      "v": 64
    },
    {
      "midi": 49,
      "hit": false,
      "t": 208614.95000000173,
      "d": 457.69135416665813,
      "v": 64
    },
    {
      "midi": 64,
      "hit": false,
      "t": 208614.95000000173,
      "d": 919.228854166664,
      "v": 64
    },
    {
      "midi": 68,
      "hit": false,
      "t": 208614.95000000173,
      "d": 919.228854166664,
      "v": 64
    },
    {
      "midi": 71,
      "hit": false,
      "t": 208614.95000000173,
      "d": 919.228854166664,
      "v": 64
    },
    {
      "midi": 49,
      "hit": false,
      "t": 208614.95000000173,
      "d": 457.69135416665813,
      "v": 64
    },
    {
      "midi": 64,
      "hit": false,
      "t": 208614.95000000173,
      "d": 919.228854166664,
      "v": 64
    },
    {
      "midi": 68,
      "hit": false,
      "t": 208614.95000000173,
      "d": 919.228854166664,
      "v": 64
    },
    {
      "midi": 71,
      "hit": false,
      "t": 208614.95000000173,
      "d": 919.228854166664,
      "v": 64
    },
    {
      "midi": 49,
      "hit": false,
      "t": 209076.48750000173,
      "d": 1380.766354166728,
      "v": 64
    },
    {
      "midi": 49,
      "hit": false,
      "t": 209076.48750000173,
      "d": 1380.766354166728,
      "v": 64
    },
    {
      "midi": 64,
      "hit": false,
      "t": 209538.02500000174,
      "d": 226.92260416666977,
      "v": 64
    },
    {
      "midi": 64,
      "hit": false,
      "t": 209538.02500000174,
      "d": 226.92260416666977,
      "v": 64
    },
    {
      "midi": 68,
      "hit": false,
      "t": 209768.79375000176,
      "d": 226.92260416666977,
      "v": 64
    },
    {
      "midi": 68,
      "hit": false,
      "t": 209768.79375000176,
      "d": 226.92260416666977,
      "v": 64
    },
    {
      "midi": 69,
      "hit": false,
      "t": 209999.56250000178,
      "d": 226.92260416666977,
      "v": 64
    },
    {
      "midi": 69,
      "hit": false,
      "t": 209999.56250000178,
      "d": 226.92260416666977,
      "v": 64
    },
    {
      "midi": 71,
      "hit": false,
      "t": 210230.3312500018,
      "d": 226.92260416666977,
      "v": 64
    },
    {
      "midi": 71,
      "hit": false,
      "t": 210230.3312500018,
      "d": 226.92260416666977,
      "v": 64
    },
    {
      "midi": 45,
      "hit": false,
      "t": 210461.1000000018,
      "d": 688.4601041666756,
      "v": 64
    },
    {
      "midi": 57,
      "hit": false,
      "t": 210461.1000000018,
      "d": 688.4601041666756,
      "v": 64
    },
    {
      "midi": 64,
      "hit": false,
      "t": 210461.1000000018,
      "d": 688.4601041666756,
      "v": 64
    },
    {
      "midi": 69,
      "hit": false,
      "t": 210461.1000000018,
      "d": 688.4601041666756,
      "v": 64
    },
    {
      "midi": 73,
      "hit": false,
      "t": 210461.1000000018,
      "d": 688.4601041666756,
      "v": 64
    },
    {
      "midi": 45,
      "hit": false,
      "t": 210461.1000000018,
      "d": 688.4601041666756,
      "v": 64
    },
    {
      "midi": 57,
      "hit": false,
      "t": 210461.1000000018,
      "d": 688.4601041666756,
      "v": 64
    },
    {
      "midi": 64,
      "hit": false,
      "t": 210461.1000000018,
      "d": 688.4601041666756,
      "v": 64
    },
    {
      "midi": 69,
      "hit": false,
      "t": 210461.1000000018,
      "d": 688.4601041666756,
      "v": 64
    },
    {
      "midi": 73,
      "hit": false,
      "t": 210461.1000000018,
      "d": 688.4601041666756,
      "v": 64
    },
    {
      "midi": 44,
      "hit": false,
      "t": 211153.40625000183,
      "d": 688.4601041666756,
      "v": 64
    },
    {
      "midi": 56,
      "hit": false,
      "t": 211153.40625000183,
      "d": 688.4601041666756,
      "v": 64
    },
    {
      "midi": 66,
      "hit": false,
      "t": 211153.40625000183,
      "d": 688.4601041666756,
      "v": 64
    },
    {
      "midi": 71,
      "hit": false,
      "t": 211153.40625000183,
      "d": 688.4601041666756,
      "v": 64
    },
    {
      "midi": 75,
      "hit": false,
      "t": 211153.40625000183,
      "d": 688.4601041666756,
      "v": 64
    },
    {
      "midi": 44,
      "hit": false,
      "t": 211153.40625000183,
      "d": 688.4601041666756,
      "v": 64
    },
    {
      "midi": 56,
      "hit": false,
      "t": 211153.40625000183,
      "d": 688.4601041666756,
      "v": 64
    },
    {
      "midi": 66,
      "hit": false,
      "t": 211153.40625000183,
      "d": 688.4601041666756,
      "v": 64
    },
    {
      "midi": 71,
      "hit": false,
      "t": 211153.40625000183,
      "d": 688.4601041666756,
      "v": 64
    },
    {
      "midi": 75,
      "hit": false,
      "t": 211153.40625000183,
      "d": 688.4601041666756,
      "v": 64
    },
    {
      "midi": 42,
      "hit": false,
      "t": 211845.71250000186,
      "d": 2303.8413541666523,
      "v": 64
    },
    {
      "midi": 54,
      "hit": false,
      "t": 211845.71250000186,
      "d": 2303.8413541666523,
      "v": 64
    },
    {
      "midi": 64,
      "hit": false,
      "t": 211845.71250000186,
      "d": 2303.8413541666523,
      "v": 64
    },
    {
      "midi": 69,
      "hit": false,
      "t": 211845.71250000186,
      "d": 2303.8413541666523,
      "v": 64
    },
    {
      "midi": 73,
      "hit": false,
      "t": 211845.71250000186,
      "d": 2303.8413541666523,
      "v": 64
    },
    {
      "midi": 76,
      "hit": false,
      "t": 211845.71250000186,
      "d": 2303.8413541666523,
      "v": 64
    },
    {
      "midi": 42,
      "hit": false,
      "t": 211845.71250000186,
      "d": 2303.8413541666523,
      "v": 64
    },
    {
      "midi": 54,
      "hit": false,
      "t": 211845.71250000186,
      "d": 2303.8413541666523,
      "v": 64
    },
    {
      "midi": 64,
      "hit": false,
      "t": 211845.71250000186,
      "d": 2303.8413541666523,
      "v": 64
    },
    {
      "midi": 69,
      "hit": false,
      "t": 211845.71250000186,
      "d": 2303.8413541666523,
      "v": 64
    },
    {
      "midi": 73,
      "hit": false,
      "t": 211845.71250000186,
      "d": 2303.8413541666523,
      "v": 64
    },
    {
      "midi": 76,
      "hit": false,
      "t": 211845.71250000186,
      "d": 2303.8413541666523,
      "v": 64
    },
    {
      "midi": 36,
      "hit": false,
      "t": 214153.40000000186,
      "d": 1380.7663541666698,
      "v": 64
    },
    {
      "midi": 48,
      "hit": false,
      "t": 214153.40000000186,
      "d": 1380.7663541666698,
      "v": 64
    },
    {
      "midi": 65,
      "hit": false,
      "t": 214153.40000000186,
      "d": 1842.3038541666756,
      "v": 64
    },
    {
      "midi": 70,
      "hit": false,
      "t": 214153.40000000186,
      "d": 1842.3038541666756,
      "v": 64
    },
    {
      "midi": 74,
      "hit": false,
      "t": 214153.40000000186,
      "d": 1842.3038541666756,
      "v": 64
    },
    {
      "midi": 77,
      "hit": false,
      "t": 214153.40000000186,
      "d": 1842.3038541666756,
      "v": 64
    },
    {
      "midi": 36,
      "hit": false,
      "t": 214153.40000000186,
      "d": 1380.7663541666698,
      "v": 64
    },
    {
      "midi": 48,
      "hit": false,
      "t": 214153.40000000186,
      "d": 1380.7663541666698,
      "v": 64
    },
    {
      "midi": 65,
      "hit": false,
      "t": 214153.40000000186,
      "d": 1842.3038541666756,
      "v": 64
    },
    {
      "midi": 70,
      "hit": false,
      "t": 214153.40000000186,
      "d": 1842.3038541666756,
      "v": 64
    },
    {
      "midi": 74,
      "hit": false,
      "t": 214153.40000000186,
      "d": 1842.3038541666756,
      "v": 64
    },
    {
      "midi": 77,
      "hit": false,
      "t": 214153.40000000186,
      "d": 1842.3038541666756,
      "v": 64
    },
    {
      "midi": 36,
      "hit": false,
      "t": 215538.01250000187,
      "d": 457.69135416665813,
      "v": 64
    },
    {
      "midi": 36,
      "hit": false,
      "t": 215538.01250000187,
      "d": 457.69135416665813,
      "v": 64
    },
    {
      "midi": 65,
      "hit": false,
      "t": 215999.55000000188,
      "d": 226.92260416666977,
      "v": 64
    },
    {
      "midi": 70,
      "hit": false,
      "t": 215999.55000000188,
      "d": 226.92260416666977,
      "v": 64
    },
    {
      "midi": 74,
      "hit": false,
      "t": 215999.55000000188,
      "d": 226.92260416666977,
      "v": 64
    },
    {
      "midi": 77,
      "hit": false,
      "t": 215999.55000000188,
      "d": 226.92260416666977,
      "v": 64
    },
    {
      "midi": 48,
      "hit": false,
      "t": 215999.55000000188,
      "d": 1842.3038541667338,
      "v": 64
    },
    {
      "midi": 65,
      "hit": false,
      "t": 215999.55000000188,
      "d": 226.92260416666977,
      "v": 64
    },
    {
      "midi": 70,
      "hit": false,
      "t": 215999.55000000188,
      "d": 226.92260416666977,
      "v": 64
    },
    {
      "midi": 74,
      "hit": false,
      "t": 215999.55000000188,
      "d": 226.92260416666977,
      "v": 64
    },
    {
      "midi": 77,
      "hit": false,
      "t": 215999.55000000188,
      "d": 226.92260416666977,
      "v": 64
    },
    {
      "midi": 48,
      "hit": false,
      "t": 215999.55000000188,
      "d": 1842.3038541667338,
      "v": 64
    },
    {
      "midi": 67,
      "hit": false,
      "t": 216230.3187500019,
      "d": 688.4601041666756,
      "v": 64
    },
    {
      "midi": 72,
      "hit": false,
      "t": 216230.3187500019,
      "d": 688.4601041666756,
      "v": 64
    },
    {
      "midi": 76,
      "hit": false,
      "t": 216230.3187500019,
      "d": 688.4601041666756,
      "v": 64
    },
    {
      "midi": 67,
      "hit": false,
      "t": 216230.3187500019,
      "d": 688.4601041666756,
      "v": 64
    },
    {
      "midi": 72,
      "hit": false,
      "t": 216230.3187500019,
      "d": 688.4601041666756,
      "v": 64
    },
    {
      "midi": 76,
      "hit": false,
      "t": 216230.3187500019,
      "d": 688.4601041666756,
      "v": 64
    },
    {
      "midi": 65,
      "hit": false,
      "t": 216922.62500000192,
      "d": 457.69135416665813,
      "v": 64
    },
    {
      "midi": 70,
      "hit": false,
      "t": 216922.62500000192,
      "d": 457.69135416665813,
      "v": 64
    },
    {
      "midi": 74,
      "hit": false,
      "t": 216922.62500000192,
      "d": 457.69135416665813,
      "v": 64
    },
    {
      "midi": 65,
      "hit": false,
      "t": 216922.62500000192,
      "d": 457.69135416665813,
      "v": 64
    },
    {
      "midi": 70,
      "hit": false,
      "t": 216922.62500000192,
      "d": 457.69135416665813,
      "v": 64
    },
    {
      "midi": 74,
      "hit": false,
      "t": 216922.62500000192,
      "d": 457.69135416665813,
      "v": 64
    },
    {
      "midi": 67,
      "hit": false,
      "t": 217384.16250000193,
      "d": 226.92260416666977,
      "v": 64
    },
    {
      "midi": 72,
      "hit": false,
      "t": 217384.16250000193,
      "d": 226.92260416666977,
      "v": 64
    },
    {
      "midi": 76,
      "hit": false,
      "t": 217384.16250000193,
      "d": 226.92260416666977,
      "v": 64
    },
    {
      "midi": 67,
      "hit": false,
      "t": 217384.16250000193,
      "d": 226.92260416666977,
      "v": 64
    },
    {
      "midi": 72,
      "hit": false,
      "t": 217384.16250000193,
      "d": 226.92260416666977,
      "v": 64
    },
    {
      "midi": 76,
      "hit": false,
      "t": 217384.16250000193,
      "d": 226.92260416666977,
      "v": 64
    },
    {
      "midi": 65,
      "hit": false,
      "t": 217614.93125000194,
      "d": 226.92260416666977,
      "v": 64
    },
    {
      "midi": 69,
      "hit": false,
      "t": 217614.93125000194,
      "d": 226.92260416666977,
      "v": 64
    },
    {
      "midi": 72,
      "hit": false,
      "t": 217614.93125000194,
      "d": 226.92260416666977,
      "v": 64
    },
    {
      "midi": 65,
      "hit": false,
      "t": 217614.93125000194,
      "d": 226.92260416666977,
      "v": 64
    },
    {
      "midi": 69,
      "hit": false,
      "t": 217614.93125000194,
      "d": 226.92260416666977,
      "v": 64
    },
    {
      "midi": 72,
      "hit": false,
      "t": 217614.93125000194,
      "d": 226.92260416666977,
      "v": 64
    },
    {
      "midi": 65,
      "hit": false,
      "t": 217845.70000000196,
      "d": 919.228854166664,
      "v": 64
    },
    {
      "midi": 69,
      "hit": false,
      "t": 217845.70000000196,
      "d": 919.228854166664,
      "v": 64
    },
    {
      "midi": 72,
      "hit": false,
      "t": 217845.70000000196,
      "d": 919.228854166664,
      "v": 64
    },
    {
      "midi": 41,
      "hit": false,
      "t": 217845.70000000196,
      "d": 1380.7663541666698,
      "v": 64
    },
    {
      "midi": 65,
      "hit": false,
      "t": 217845.70000000196,
      "d": 919.228854166664,
      "v": 64
    },
    {
      "midi": 69,
      "hit": false,
      "t": 217845.70000000196,
      "d": 919.228854166664,
      "v": 64
    },
    {
      "midi": 72,
      "hit": false,
      "t": 217845.70000000196,
      "d": 919.228854166664,
      "v": 64
    },
    {
      "midi": 41,
      "hit": false,
      "t": 217845.70000000196,
      "d": 1380.7663541666698,
      "v": 64
    },
    {
      "midi": 65,
      "hit": false,
      "t": 218768.77500000197,
      "d": 919.228854166693,
      "v": 64
    },
    {
      "midi": 69,
      "hit": false,
      "t": 218768.77500000197,
      "d": 919.228854166693,
      "v": 64
    },
    {
      "midi": 72,
      "hit": false,
      "t": 218768.77500000197,
      "d": 919.228854166693,
      "v": 64
    },
    {
      "midi": 65,
      "hit": false,
      "t": 218768.77500000197,
      "d": 919.228854166693,
      "v": 64
    },
    {
      "midi": 69,
      "hit": false,
      "t": 218768.77500000197,
      "d": 919.228854166693,
      "v": 64
    },
    {
      "midi": 72,
      "hit": false,
      "t": 218768.77500000197,
      "d": 919.228854166693,
      "v": 64
    },
    {
      "midi": 41,
      "hit": false,
      "t": 219230.31250000198,
      "d": 226.92260416666977,
      "v": 64
    },
    {
      "midi": 41,
      "hit": false,
      "t": 219230.31250000198,
      "d": 226.92260416666977,
      "v": 64
    },
    {
      "midi": 43,
      "hit": false,
      "t": 219461.081250002,
      "d": 226.92260416666977,
      "v": 64
    },
    {
      "midi": 43,
      "hit": false,
      "t": 219461.081250002,
      "d": 226.92260416666977,
      "v": 64
    },
    {
      "midi": 65,
      "hit": false,
      "t": 219691.850000002,
      "d": 457.69135416665813,
      "v": 64
    },
    {
      "midi": 69,
      "hit": false,
      "t": 219691.850000002,
      "d": 457.69135416665813,
      "v": 64
    },
    {
      "midi": 72,
      "hit": false,
      "t": 219691.850000002,
      "d": 457.69135416665813,
      "v": 64
    },
    {
      "midi": 45,
      "hit": false,
      "t": 219691.850000002,
      "d": 1842.3038541667047,
      "v": 64
    },
    {
      "midi": 65,
      "hit": false,
      "t": 219691.850000002,
      "d": 457.69135416665813,
      "v": 64
    },
    {
      "midi": 69,
      "hit": false,
      "t": 219691.850000002,
      "d": 457.69135416665813,
      "v": 64
    },
    {
      "midi": 72,
      "hit": false,
      "t": 219691.850000002,
      "d": 457.69135416665813,
      "v": 64
    },
    {
      "midi": 45,
      "hit": false,
      "t": 219691.850000002,
      "d": 1842.3038541667047,
      "v": 64
    },
    {
      "midi": 70,
      "hit": false,
      "t": 220153.38750000202,
      "d": 226.92260416666977,
      "v": 64
    },
    {
      "midi": 70,
      "hit": false,
      "t": 220153.38750000202,
      "d": 226.92260416666977,
      "v": 64
    },
    {
      "midi": 69,
      "hit": false,
      "t": 220384.15625000204,
      "d": 688.4601041666756,
      "v": 64
    },
    {
      "midi": 69,
      "hit": false,
      "t": 220384.15625000204,
      "d": 688.4601041666756,
      "v": 64
    },
    {
      "midi": 67,
      "hit": false,
      "t": 221076.46250000206,
      "d": 457.69135416665813,
      "v": 64
    },
    {
      "midi": 67,
      "hit": false,
      "t": 221076.46250000206,
      "d": 457.69135416665813,
      "v": 64
    },
    {
      "midi": 58,
      "hit": false,
      "t": 221538.00000000207,
      "d": 919.228854166664,
      "v": 64
    },
    {
      "midi": 62,
      "hit": false,
      "t": 221538.00000000207,
      "d": 919.228854166664,
      "v": 64
    },
    {
      "midi": 65,
      "hit": false,
      "t": 221538.00000000207,
      "d": 919.228854166664,
      "v": 64
    },
    {
      "midi": 46,
      "hit": false,
      "t": 221538.00000000207,
      "d": 1380.7663541666698,
      "v": 64
    },
    {
      "midi": 58,
      "hit": false,
      "t": 221538.00000000207,
      "d": 919.228854166664,
      "v": 64
    },
    {
      "midi": 62,
      "hit": false,
      "t": 221538.00000000207,
      "d": 919.228854166664,
      "v": 64
    },
    {
      "midi": 65,
      "hit": false,
      "t": 221538.00000000207,
      "d": 919.228854166664,
      "v": 64
    },
    {
      "midi": 46,
      "hit": false,
      "t": 221538.00000000207,
      "d": 1380.7663541666698,
      "v": 64
    },
    {
      "midi": 58,
      "hit": false,
      "t": 222461.07500000208,
      "d": 919.228854166664,
      "v": 64
    },
    {
      "midi": 62,
      "hit": false,
      "t": 222461.07500000208,
      "d": 919.228854166664,
      "v": 64
    },
    {
      "midi": 65,
      "hit": false,
      "t": 222461.07500000208,
      "d": 919.228854166664,
      "v": 64
    },
    {
      "midi": 58,
      "hit": false,
      "t": 222461.07500000208,
      "d": 919.228854166664,
      "v": 64
    },
    {
      "midi": 62,
      "hit": false,
      "t": 222461.07500000208,
      "d": 919.228854166664,
      "v": 64
    },
    {
      "midi": 65,
      "hit": false,
      "t": 222461.07500000208,
      "d": 919.228854166664,
      "v": 64
    },
    {
      "midi": 46,
      "hit": false,
      "t": 222922.61250000208,
      "d": 457.69135416665813,
      "v": 64
    },
    {
      "midi": 46,
      "hit": false,
      "t": 222922.61250000208,
      "d": 457.69135416665813,
      "v": 64
    },
    {
      "midi": 65,
      "hit": false,
      "t": 223384.1500000021,
      "d": 457.69135416665813,
      "v": 64
    },
    {
      "midi": 74,
      "hit": false,
      "t": 223384.1500000021,
      "d": 457.69135416665813,
      "v": 64
    },
    {
      "midi": 77,
      "hit": false,
      "t": 223384.1500000021,
      "d": 457.69135416665813,
      "v": 64
    },
    {
      "midi": 48,
      "hit": false,
      "t": 223384.1500000021,
      "d": 919.228854166693,
      "v": 64
    },
    {
      "midi": 65,
      "hit": false,
      "t": 223384.1500000021,
      "d": 457.69135416665813,
      "v": 64
    },
    {
      "midi": 74,
      "hit": false,
      "t": 223384.1500000021,
      "d": 457.69135416665813,
      "v": 64
    },
    {
      "midi": 77,
      "hit": false,
      "t": 223384.1500000021,
      "d": 457.69135416665813,
      "v": 64
    },
    {
      "midi": 48,
      "hit": false,
      "t": 223384.1500000021,
      "d": 919.228854166693,
      "v": 64
    },
    {
      "midi": 64,
      "hit": false,
      "t": 223845.6875000021,
      "d": 226.92260416666977,
      "v": 64
    },
    {
      "midi": 72,
      "hit": false,
      "t": 223845.6875000021,
      "d": 226.92260416666977,
      "v": 64
    },
    {
      "midi": 76,
      "hit": false,
      "t": 223845.6875000021,
      "d": 226.92260416666977,
      "v": 64
    },
    {
      "midi": 64,
      "hit": false,
      "t": 223845.6875000021,
      "d": 226.92260416666977,
      "v": 64
    },
    {
      "midi": 72,
      "hit": false,
      "t": 223845.6875000021,
      "d": 226.92260416666977,
      "v": 64
    },
    {
      "midi": 76,
      "hit": false,
      "t": 223845.6875000021,
      "d": 226.92260416666977,
      "v": 64
    },
    {
      "midi": 62,
      "hit": false,
      "t": 224076.4562500021,
      "d": 688.4601041666756,
      "v": 64
    },
    {
      "midi": 70,
      "hit": false,
      "t": 224076.4562500021,
      "d": 688.4601041666756,
      "v": 64
    },
    {
      "midi": 74,
      "hit": false,
      "t": 224076.4562500021,
      "d": 688.4601041666756,
      "v": 64
    },
    {
      "midi": 62,
      "hit": false,
      "t": 224076.4562500021,
      "d": 688.4601041666756,
      "v": 64
    },
    {
      "midi": 70,
      "hit": false,
      "t": 224076.4562500021,
      "d": 688.4601041666756,
      "v": 64
    },
    {
      "midi": 74,
      "hit": false,
      "t": 224076.4562500021,
      "d": 688.4601041666756,
      "v": 64
    },
    {
      "midi": 36,
      "hit": false,
      "t": 224307.22500000213,
      "d": 919.228854166664,
      "v": 64
    },
    {
      "midi": 36,
      "hit": false,
      "t": 224307.22500000213,
      "d": 919.228854166664,
      "v": 64
    },
    {
      "midi": 64,
      "hit": false,
      "t": 224768.76250000214,
      "d": 457.69135416665813,
      "v": 64
    },
    {
      "midi": 72,
      "hit": false,
      "t": 224768.76250000214,
      "d": 457.69135416665813,
      "v": 64
    },
    {
      "midi": 76,
      "hit": false,
      "t": 224768.76250000214,
      "d": 457.69135416665813,
      "v": 64
    },
    {
      "midi": 64,
      "hit": false,
      "t": 224768.76250000214,
      "d": 457.69135416665813,
      "v": 64
    },
    {
      "midi": 72,
      "hit": false,
      "t": 224768.76250000214,
      "d": 457.69135416665813,
      "v": 64
    },
    {
      "midi": 76,
      "hit": false,
      "t": 224768.76250000214,
      "d": 457.69135416665813,
      "v": 64
    },
    {
      "midi": 60,
      "hit": false,
      "t": 225230.30000000214,
      "d": 919.228854166664,
      "v": 64
    },
    {
      "midi": 64,
      "hit": false,
      "t": 225230.30000000214,
      "d": 919.228854166664,
      "v": 64
    },
    {
      "midi": 67,
      "hit": false,
      "t": 225230.30000000214,
      "d": 919.228854166664,
      "v": 64
    },
    {
      "midi": 72,
      "hit": false,
      "t": 225230.30000000214,
      "d": 919.228854166664,
      "v": 64
    },
    {
      "midi": 45,
      "hit": false,
      "t": 225230.30000000214,
      "d": 1380.7663541666698,
      "v": 64
    },
    {
      "midi": 60,
      "hit": false,
      "t": 225230.30000000214,
      "d": 919.228854166664,
      "v": 64
    },
    {
      "midi": 64,
      "hit": false,
      "t": 225230.30000000214,
      "d": 919.228854166664,
      "v": 64
    },
    {
      "midi": 67,
      "hit": false,
      "t": 225230.30000000214,
      "d": 919.228854166664,
      "v": 64
    },
    {
      "midi": 72,
      "hit": false,
      "t": 225230.30000000214,
      "d": 919.228854166664,
      "v": 64
    },
    {
      "midi": 45,
      "hit": false,
      "t": 225230.30000000214,
      "d": 1380.7663541666698,
      "v": 64
    },
    {
      "midi": 60,
      "hit": false,
      "t": 226153.37500000215,
      "d": 919.228854166693,
      "v": 64
    },
    {
      "midi": 64,
      "hit": false,
      "t": 226153.37500000215,
      "d": 919.228854166693,
      "v": 64
    },
    {
      "midi": 67,
      "hit": false,
      "t": 226153.37500000215,
      "d": 919.228854166693,
      "v": 64
    },
    {
      "midi": 72,
      "hit": false,
      "t": 226153.37500000215,
      "d": 919.228854166693,
      "v": 64
    },
    {
      "midi": 60,
      "hit": false,
      "t": 226153.37500000215,
      "d": 919.228854166693,
      "v": 64
    },
    {
      "midi": 64,
      "hit": false,
      "t": 226153.37500000215,
      "d": 919.228854166693,
      "v": 64
    },
    {
      "midi": 67,
      "hit": false,
      "t": 226153.37500000215,
      "d": 919.228854166693,
      "v": 64
    },
    {
      "midi": 72,
      "hit": false,
      "t": 226153.37500000215,
      "d": 919.228854166693,
      "v": 64
    },
    {
      "midi": 45,
      "hit": false,
      "t": 226614.91250000216,
      "d": 226.92260416666977,
      "v": 64
    },
    {
      "midi": 45,
      "hit": false,
      "t": 226614.91250000216,
      "d": 226.92260416666977,
      "v": 64
    },
    {
      "midi": 36,
      "hit": false,
      "t": 226845.68125000218,
      "d": 226.92260416666977,
      "v": 64
    },
    {
      "midi": 36,
      "hit": false,
      "t": 226845.68125000218,
      "d": 226.92260416666977,
      "v": 64
    },
    {
      "midi": 60,
      "hit": false,
      "t": 227076.4500000022,
      "d": 457.69135416665813,
      "v": 64
    },
    {
      "midi": 65,
      "hit": false,
      "t": 227076.4500000022,
      "d": 457.69135416665813,
      "v": 64
    },
    {
      "midi": 72,
      "hit": false,
      "t": 227076.4500000022,
      "d": 457.69135416665813,
      "v": 64
    },
    {
      "midi": 38,
      "hit": false,
      "t": 227076.4500000022,
      "d": 1842.3038541667047,
      "v": 64
    },
    {
      "midi": 60,
      "hit": false,
      "t": 227076.4500000022,
      "d": 457.69135416665813,
      "v": 64
    },
    {
      "midi": 65,
      "hit": false,
      "t": 227076.4500000022,
      "d": 457.69135416665813,
      "v": 64
    },
    {
      "midi": 72,
      "hit": false,
      "t": 227076.4500000022,
      "d": 457.69135416665813,
      "v": 64
    },
    {
      "midi": 38,
      "hit": false,
      "t": 227076.4500000022,
      "d": 1842.3038541667047,
      "v": 64
    },
    {
      "midi": 65,
      "hit": false,
      "t": 227537.9875000022,
      "d": 226.92260416666977,
      "v": 64
    },
    {
      "midi": 65,
      "hit": false,
      "t": 227537.9875000022,
      "d": 226.92260416666977,
      "v": 64
    },
    {
      "midi": 60,
      "hit": false,
      "t": 227768.75625000222,
      "d": 688.4601041666756,
      "v": 64
    },
    {
      "midi": 67,
      "hit": false,
      "t": 227768.75625000222,
      "d": 688.4601041666756,
      "v": 64
    },
    {
      "midi": 60,
      "hit": false,
      "t": 227768.75625000222,
      "d": 688.4601041666756,
      "v": 64
    },
    {
      "midi": 67,
      "hit": false,
      "t": 227768.75625000222,
      "d": 688.4601041666756,
      "v": 64
    },
    {
      "midi": 60,
      "hit": false,
      "t": 228461.06250000224,
      "d": 457.69135416665813,
      "v": 64
    },
    {
      "midi": 65,
      "hit": false,
      "t": 228461.06250000224,
      "d": 457.69135416665813,
      "v": 64
    },
    {
      "midi": 69,
      "hit": false,
      "t": 228461.06250000224,
      "d": 457.69135416665813,
      "v": 64
    },
    {
      "midi": 60,
      "hit": false,
      "t": 228461.06250000224,
      "d": 457.69135416665813,
      "v": 64
    },
    {
      "midi": 65,
      "hit": false,
      "t": 228461.06250000224,
      "d": 457.69135416665813,
      "v": 64
    },
    {
      "midi": 69,
      "hit": false,
      "t": 228461.06250000224,
      "d": 457.69135416665813,
      "v": 64
    },
    {
      "midi": 58,
      "hit": false,
      "t": 228922.60000000225,
      "d": 919.228854166664,
      "v": 64
    },
    {
      "midi": 63,
      "hit": false,
      "t": 228922.60000000225,
      "d": 919.228854166664,
      "v": 64
    },
    {
      "midi": 67,
      "hit": false,
      "t": 228922.60000000225,
      "d": 919.228854166664,
      "v": 64
    },
    {
      "midi": 39,
      "hit": false,
      "t": 228922.60000000225,
      "d": 1380.7663541666698,
      "v": 64
    },
    {
      "midi": 58,
      "hit": false,
      "t": 228922.60000000225,
      "d": 919.228854166664,
      "v": 64
    },
    {
      "midi": 63,
      "hit": false,
      "t": 228922.60000000225,
      "d": 919.228854166664,
      "v": 64
    },
    {
      "midi": 67,
      "hit": false,
      "t": 228922.60000000225,
      "d": 919.228854166664,
      "v": 64
    },
    {
      "midi": 39,
      "hit": false,
      "t": 228922.60000000225,
      "d": 1380.7663541666698,
      "v": 64
    },
    {
      "midi": 58,
      "hit": false,
      "t": 229845.67500000226,
      "d": 919.228854166664,
      "v": 64
    },
    {
      "midi": 63,
      "hit": false,
      "t": 229845.67500000226,
      "d": 919.228854166664,
      "v": 64
    },
    {
      "midi": 67,
      "hit": false,
      "t": 229845.67500000226,
      "d": 919.228854166664,
      "v": 64
    },
    {
      "midi": 58,
      "hit": false,
      "t": 229845.67500000226,
      "d": 919.228854166664,
      "v": 64
    },
    {
      "midi": 63,
      "hit": false,
      "t": 229845.67500000226,
      "d": 919.228854166664,
      "v": 64
    },
    {
      "midi": 67,
      "hit": false,
      "t": 229845.67500000226,
      "d": 919.228854166664,
      "v": 64
    },
    {
      "midi": 39,
      "hit": false,
      "t": 230307.21250000226,
      "d": 457.69135416665813,
      "v": 64
    },
    {
      "midi": 39,
      "hit": false,
      "t": 230307.21250000226,
      "d": 457.69135416665813,
      "v": 64
    },
    {
      "midi": 58,
      "hit": false,
      "t": 230768.75000000227,
      "d": 457.69135416665813,
      "v": 64
    },
    {
      "midi": 62,
      "hit": false,
      "t": 230768.75000000227,
      "d": 457.69135416665813,
      "v": 64
    },
    {
      "midi": 65,
      "hit": false,
      "t": 230768.75000000227,
      "d": 457.69135416665813,
      "v": 64
    },
    {
      "midi": 36,
      "hit": false,
      "t": 230768.75000000227,
      "d": 919.228854166693,
      "v": 64
    },
    {
      "midi": 58,
      "hit": false,
      "t": 230768.75000000227,
      "d": 457.69135416665813,
      "v": 64
    },
    {
      "midi": 62,
      "hit": false,
      "t": 230768.75000000227,
      "d": 457.69135416665813,
      "v": 64
    },
    {
      "midi": 65,
      "hit": false,
      "t": 230768.75000000227,
      "d": 457.69135416665813,
      "v": 64
    },
    {
      "midi": 36,
      "hit": false,
      "t": 230768.75000000227,
      "d": 919.228854166693,
      "v": 64
    },
    {
      "midi": 67,
      "hit": false,
      "t": 231230.28750000228,
      "d": 226.92260416666977,
      "v": 64
    },
    {
      "midi": 67,
      "hit": false,
      "t": 231230.28750000228,
      "d": 226.92260416666977,
      "v": 64
    },
    {
      "midi": 58,
      "hit": false,
      "t": 231461.0562500023,
      "d": 688.4601041666756,
      "v": 64
    },
    {
      "midi": 62,
      "hit": false,
      "t": 231461.0562500023,
      "d": 688.4601041666756,
      "v": 64
    },
    {
      "midi": 65,
      "hit": false,
      "t": 231461.0562500023,
      "d": 688.4601041666756,
      "v": 64
    },
    {
      "midi": 69,
      "hit": false,
      "t": 231461.0562500023,
      "d": 688.4601041666756,
      "v": 64
    },
    {
      "midi": 58,
      "hit": false,
      "t": 231461.0562500023,
      "d": 688.4601041666756,
      "v": 64
    },
    {
      "midi": 62,
      "hit": false,
      "t": 231461.0562500023,
      "d": 688.4601041666756,
      "v": 64
    },
    {
      "midi": 65,
      "hit": false,
      "t": 231461.0562500023,
      "d": 688.4601041666756,
      "v": 64
    },
    {
      "midi": 69,
      "hit": false,
      "t": 231461.0562500023,
      "d": 688.4601041666756,
      "v": 64
    },
    {
      "midi": 48,
      "hit": false,
      "t": 231691.8250000023,
      "d": 919.228854166693,
      "v": 64
    },
    {
      "midi": 48,
      "hit": false,
      "t": 231691.8250000023,
      "d": 919.228854166693,
      "v": 64
    },
    {
      "midi": 70,
      "hit": false,
      "t": 232153.36250000232,
      "d": 226.92260416666977,
      "v": 64
    },
    {
      "midi": 70,
      "hit": false,
      "t": 232153.36250000232,
      "d": 226.92260416666977,
      "v": 64
    },
    {
      "midi": 72,
      "hit": false,
      "t": 232384.13125000233,
      "d": 226.92260416666977,
      "v": 64
    },
    {
      "midi": 72,
      "hit": false,
      "t": 232384.13125000233,
      "d": 226.92260416666977,
      "v": 64
    },
    {
      "midi": 60,
      "hit": false,
      "t": 232614.90000000235,
      "d": 919.228854166664,
      "v": 64
    },
    {
      "midi": 65,
      "hit": false,
      "t": 232614.90000000235,
      "d": 919.228854166664,
      "v": 64
    },
    {
      "midi": 69,
      "hit": false,
      "t": 232614.90000000235,
      "d": 919.228854166664,
      "v": 64
    },
    {
      "midi": 72,
      "hit": false,
      "t": 232614.90000000235,
      "d": 919.228854166664,
      "v": 64
    },
    {
      "midi": 38,
      "hit": false,
      "t": 232614.90000000235,
      "d": 1380.7663541666698,
      "v": 64
    },
    {
      "midi": 60,
      "hit": false,
      "t": 232614.90000000235,
      "d": 919.228854166664,
      "v": 64
    },
    {
      "midi": 65,
      "hit": false,
      "t": 232614.90000000235,
      "d": 919.228854166664,
      "v": 64
    },
    {
      "midi": 69,
      "hit": false,
      "t": 232614.90000000235,
      "d": 919.228854166664,
      "v": 64
    },
    {
      "midi": 72,
      "hit": false,
      "t": 232614.90000000235,
      "d": 919.228854166664,
      "v": 64
    },
    {
      "midi": 38,
      "hit": false,
      "t": 232614.90000000235,
      "d": 1380.7663541666698,
      "v": 64
    },
    {
      "midi": 60,
      "hit": false,
      "t": 233537.97500000236,
      "d": 919.228854166664,
      "v": 64
    },
    {
      "midi": 65,
      "hit": false,
      "t": 233537.97500000236,
      "d": 919.228854166664,
      "v": 64
    },
    {
      "midi": 69,
      "hit": false,
      "t": 233537.97500000236,
      "d": 919.228854166664,
      "v": 64
    },
    {
      "midi": 72,
      "hit": false,
      "t": 233537.97500000236,
      "d": 919.228854166664,
      "v": 64
    },
    {
      "midi": 60,
      "hit": false,
      "t": 233537.97500000236,
      "d": 919.228854166664,
      "v": 64
    },
    {
      "midi": 65,
      "hit": false,
      "t": 233537.97500000236,
      "d": 919.228854166664,
      "v": 64
    },
    {
      "midi": 69,
      "hit": false,
      "t": 233537.97500000236,
      "d": 919.228854166664,
      "v": 64
    },
    {
      "midi": 72,
      "hit": false,
      "t": 233537.97500000236,
      "d": 919.228854166664,
      "v": 64
    },
    {
      "midi": 38,
      "hit": false,
      "t": 233999.51250000237,
      "d": 457.69135416665813,
      "v": 64
    },
    {
      "midi": 38,
      "hit": false,
      "t": 233999.51250000237,
      "d": 457.69135416665813,
      "v": 64
    },
    {
      "midi": 60,
      "hit": false,
      "t": 234461.05000000237,
      "d": 919.228854166664,
      "v": 64
    },
    {
      "midi": 64,
      "hit": false,
      "t": 234461.05000000237,
      "d": 919.228854166664,
      "v": 64
    },
    {
      "midi": 67,
      "hit": false,
      "t": 234461.05000000237,
      "d": 919.228854166664,
      "v": 64
    },
    {
      "midi": 72,
      "hit": false,
      "t": 234461.05000000237,
      "d": 919.228854166664,
      "v": 64
    },
    {
      "midi": 45,
      "hit": false,
      "t": 234461.05000000237,
      "d": 1380.7663541666698,
      "v": 64
    },
    {
      "midi": 60,
      "hit": false,
      "t": 234461.05000000237,
      "d": 919.228854166664,
      "v": 64
    },
    {
      "midi": 64,
      "hit": false,
      "t": 234461.05000000237,
      "d": 919.228854166664,
      "v": 64
    },
    {
      "midi": 67,
      "hit": false,
      "t": 234461.05000000237,
      "d": 919.228854166664,
      "v": 64
    },
    {
      "midi": 72,
      "hit": false,
      "t": 234461.05000000237,
      "d": 919.228854166664,
      "v": 64
    },
    {
      "midi": 45,
      "hit": false,
      "t": 234461.05000000237,
      "d": 1380.7663541666698,
      "v": 64
    },
    {
      "midi": 60,
      "hit": false,
      "t": 235384.1250000024,
      "d": 919.228854166664,
      "v": 64
    },
    {
      "midi": 64,
      "hit": false,
      "t": 235384.1250000024,
      "d": 919.228854166664,
      "v": 64
    },
    {
      "midi": 67,
      "hit": false,
      "t": 235384.1250000024,
      "d": 919.228854166664,
      "v": 64
    },
    {
      "midi": 72,
      "hit": false,
      "t": 235384.1250000024,
      "d": 919.228854166664,
      "v": 64
    },
    {
      "midi": 60,
      "hit": false,
      "t": 235384.1250000024,
      "d": 919.228854166664,
      "v": 64
    },
    {
      "midi": 64,
      "hit": false,
      "t": 235384.1250000024,
      "d": 919.228854166664,
      "v": 64
    },
    {
      "midi": 67,
      "hit": false,
      "t": 235384.1250000024,
      "d": 919.228854166664,
      "v": 64
    },
    {
      "midi": 72,
      "hit": false,
      "t": 235384.1250000024,
      "d": 919.228854166664,
      "v": 64
    },
    {
      "midi": 45,
      "hit": false,
      "t": 235845.6625000024,
      "d": 457.69135416665813,
      "v": 64
    },
    {
      "midi": 45,
      "hit": false,
      "t": 235845.6625000024,
      "d": 457.69135416665813,
      "v": 64
    },
    {
      "midi": 46,
      "hit": false,
      "t": 236307.2000000024,
      "d": 919.228854166664,
      "v": 64
    },
    {
      "midi": 58,
      "hit": false,
      "t": 236307.2000000024,
      "d": 919.228854166664,
      "v": 64
    },
    {
      "midi": 62,
      "hit": false,
      "t": 236307.2000000024,
      "d": 919.228854166664,
      "v": 64
    },
    {
      "midi": 65,
      "hit": false,
      "t": 236307.2000000024,
      "d": 919.228854166664,
      "v": 64
    },
    {
      "midi": 70,
      "hit": false,
      "t": 236307.2000000024,
      "d": 919.228854166664,
      "v": 64
    },
    {
      "midi": 74,
      "hit": false,
      "t": 236307.2000000024,
      "d": 919.228854166664,
      "v": 64
    },
    {
      "midi": 46,
      "hit": false,
      "t": 236307.2000000024,
      "d": 919.228854166664,
      "v": 64
    },
    {
      "midi": 58,
      "hit": false,
      "t": 236307.2000000024,
      "d": 919.228854166664,
      "v": 64
    },
    {
      "midi": 62,
      "hit": false,
      "t": 236307.2000000024,
      "d": 919.228854166664,
      "v": 64
    },
    {
      "midi": 65,
      "hit": false,
      "t": 236307.2000000024,
      "d": 919.228854166664,
      "v": 64
    },
    {
      "midi": 70,
      "hit": false,
      "t": 236307.2000000024,
      "d": 919.228854166664,
      "v": 64
    },
    {
      "midi": 74,
      "hit": false,
      "t": 236307.2000000024,
      "d": 919.228854166664,
      "v": 64
    },
    {
      "midi": 48,
      "hit": false,
      "t": 237230.2750000024,
      "d": 919.228854166664,
      "v": 64
    },
    {
      "midi": 60,
      "hit": false,
      "t": 237230.2750000024,
      "d": 919.228854166664,
      "v": 64
    },
    {
      "midi": 64,
      "hit": false,
      "t": 237230.2750000024,
      "d": 919.228854166664,
      "v": 64
    },
    {
      "midi": 67,
      "hit": false,
      "t": 237230.2750000024,
      "d": 919.228854166664,
      "v": 64
    },
    {
      "midi": 72,
      "hit": false,
      "t": 237230.2750000024,
      "d": 919.228854166664,
      "v": 64
    },
    {
      "midi": 76,
      "hit": false,
      "t": 237230.2750000024,
      "d": 919.228854166664,
      "v": 64
    },
    {
      "midi": 48,
      "hit": false,
      "t": 237230.2750000024,
      "d": 919.228854166664,
      "v": 64
    },
    {
      "midi": 60,
      "hit": false,
      "t": 237230.2750000024,
      "d": 919.228854166664,
      "v": 64
    },
    {
      "midi": 64,
      "hit": false,
      "t": 237230.2750000024,
      "d": 919.228854166664,
      "v": 64
    },
    {
      "midi": 67,
      "hit": false,
      "t": 237230.2750000024,
      "d": 919.228854166664,
      "v": 64
    },
    {
      "midi": 72,
      "hit": false,
      "t": 237230.2750000024,
      "d": 919.228854166664,
      "v": 64
    },
    {
      "midi": 76,
      "hit": false,
      "t": 237230.2750000024,
      "d": 919.228854166664,
      "v": 64
    },
    {
      "midi": 65,
      "hit": false,
      "t": 238153.35000000242,
      "d": 919.228854166664,
      "v": 64
    },
    {
      "midi": 69,
      "hit": false,
      "t": 238153.35000000242,
      "d": 919.228854166664,
      "v": 64
    },
    {
      "midi": 74,
      "hit": false,
      "t": 238153.35000000242,
      "d": 919.228854166664,
      "v": 64
    },
    {
      "midi": 77,
      "hit": false,
      "t": 238153.35000000242,
      "d": 919.228854166664,
      "v": 64
    },
    {
      "midi": 38,
      "hit": false,
      "t": 238153.35000000242,
      "d": 1380.7663541666698,
      "v": 64
    },
    {
      "midi": 50,
      "hit": false,
      "t": 238153.35000000242,
      "d": 1380.7663541666698,
      "v": 64
    },
    {
      "midi": 65,
      "hit": false,
      "t": 238153.35000000242,
      "d": 919.228854166664,
      "v": 64
    },
    {
      "midi": 69,
      "hit": false,
      "t": 238153.35000000242,
      "d": 919.228854166664,
      "v": 64
    },
    {
      "midi": 74,
      "hit": false,
      "t": 238153.35000000242,
      "d": 919.228854166664,
      "v": 64
    },
    {
      "midi": 77,
      "hit": false,
      "t": 238153.35000000242,
      "d": 919.228854166664,
      "v": 64
    },
    {
      "midi": 38,
      "hit": false,
      "t": 238153.35000000242,
      "d": 1380.7663541666698,
      "v": 64
    },
    {
      "midi": 50,
      "hit": false,
      "t": 238153.35000000242,
      "d": 1380.7663541666698,
      "v": 64
    },
    {
      "midi": 65,
      "hit": false,
      "t": 239076.42500000243,
      "d": 919.228854166664,
      "v": 64
    },
    {
      "midi": 69,
      "hit": false,
      "t": 239076.42500000243,
      "d": 919.228854166664,
      "v": 64
    },
    {
      "midi": 74,
      "hit": false,
      "t": 239076.42500000243,
      "d": 919.228854166664,
      "v": 64
    },
    {
      "midi": 77,
      "hit": false,
      "t": 239076.42500000243,
      "d": 919.228854166664,
      "v": 64
    },
    {
      "midi": 65,
      "hit": false,
      "t": 239076.42500000243,
      "d": 919.228854166664,
      "v": 64
    },
    {
      "midi": 69,
      "hit": false,
      "t": 239076.42500000243,
      "d": 919.228854166664,
      "v": 64
    },
    {
      "midi": 74,
      "hit": false,
      "t": 239076.42500000243,
      "d": 919.228854166664,
      "v": 64
    },
    {
      "midi": 77,
      "hit": false,
      "t": 239076.42500000243,
      "d": 919.228854166664,
      "v": 64
    },
    {
      "midi": 38,
      "hit": false,
      "t": 239537.96250000244,
      "d": 457.69135416665813,
      "v": 64
    },
    {
      "midi": 38,
      "hit": false,
      "t": 239537.96250000244,
      "d": 457.69135416665813,
      "v": 64
    },
    {
      "midi": 65,
      "hit": false,
      "t": 239999.50000000244,
      "d": 919.228854166664,
      "v": 64
    },
    {
      "midi": 69,
      "hit": false,
      "t": 239999.50000000244,
      "d": 919.228854166664,
      "v": 64
    },
    {
      "midi": 74,
      "hit": false,
      "t": 239999.50000000244,
      "d": 919.228854166664,
      "v": 64
    },
    {
      "midi": 77,
      "hit": false,
      "t": 239999.50000000244,
      "d": 919.228854166664,
      "v": 64
    },
    {
      "midi": 50,
      "hit": false,
      "t": 239999.50000000244,
      "d": 1380.7663541666698,
      "v": 64
    },
    {
      "midi": 65,
      "hit": false,
      "t": 239999.50000000244,
      "d": 919.228854166664,
      "v": 64
    },
    {
      "midi": 69,
      "hit": false,
      "t": 239999.50000000244,
      "d": 919.228854166664,
      "v": 64
    },
    {
      "midi": 74,
      "hit": false,
      "t": 239999.50000000244,
      "d": 919.228854166664,
      "v": 64
    },
    {
      "midi": 77,
      "hit": false,
      "t": 239999.50000000244,
      "d": 919.228854166664,
      "v": 64
    },
    {
      "midi": 50,
      "hit": false,
      "t": 239999.50000000244,
      "d": 1380.7663541666698,
      "v": 64
    },
    {
      "midi": 65,
      "hit": false,
      "t": 240922.57500000246,
      "d": 919.228854166664,
      "v": 64
    },
    {
      "midi": 69,
      "hit": false,
      "t": 240922.57500000246,
      "d": 919.228854166664,
      "v": 64
    },
    {
      "midi": 74,
      "hit": false,
      "t": 240922.57500000246,
      "d": 919.228854166664,
      "v": 64
    },
    {
      "midi": 77,
      "hit": false,
      "t": 240922.57500000246,
      "d": 919.228854166664,
      "v": 64
    },
    {
      "midi": 65,
      "hit": false,
      "t": 240922.57500000246,
      "d": 919.228854166664,
      "v": 64
    },
    {
      "midi": 69,
      "hit": false,
      "t": 240922.57500000246,
      "d": 919.228854166664,
      "v": 64
    },
    {
      "midi": 74,
      "hit": false,
      "t": 240922.57500000246,
      "d": 919.228854166664,
      "v": 64
    },
    {
      "midi": 77,
      "hit": false,
      "t": 240922.57500000246,
      "d": 919.228854166664,
      "v": 64
    },
    {
      "midi": 45,
      "hit": false,
      "t": 241384.11250000246,
      "d": 457.69135416665813,
      "v": 64
    },
    {
      "midi": 45,
      "hit": false,
      "t": 241384.11250000246,
      "d": 457.69135416665813,
      "v": 64
    },
    {
      "midi": 60,
      "hit": false,
      "t": 241845.65000000247,
      "d": 919.228854166664,
      "v": 64
    },
    {
      "midi": 65,
      "hit": false,
      "t": 241845.65000000247,
      "d": 919.228854166664,
      "v": 64
    },
    {
      "midi": 69,
      "hit": false,
      "t": 241845.65000000247,
      "d": 919.228854166664,
      "v": 64
    },
    {
      "midi": 38,
      "hit": false,
      "t": 241845.65000000247,
      "d": 1842.3038541666756,
      "v": 64
    },
    {
      "midi": 60,
      "hit": false,
      "t": 241845.65000000247,
      "d": 919.228854166664,
      "v": 64
    },
    {
      "midi": 65,
      "hit": false,
      "t": 241845.65000000247,
      "d": 919.228854166664,
      "v": 64
    },
    {
      "midi": 69,
      "hit": false,
      "t": 241845.65000000247,
      "d": 919.228854166664,
      "v": 64
    },
    {
      "midi": 38,
      "hit": false,
      "t": 241845.65000000247,
      "d": 1842.3038541666756,
      "v": 64
    },
    {
      "midi": 60,
      "hit": false,
      "t": 242768.72500000248,
      "d": 919.228854166664,
      "v": 64
    },
    {
      "midi": 65,
      "hit": false,
      "t": 242768.72500000248,
      "d": 919.228854166664,
      "v": 64
    },
    {
      "midi": 69,
      "hit": false,
      "t": 242768.72500000248,
      "d": 919.228854166664,
      "v": 64
    },
    {
      "midi": 60,
      "hit": false,
      "t": 242768.72500000248,
      "d": 919.228854166664,
      "v": 64
    },
    {
      "midi": 65,
      "hit": false,
      "t": 242768.72500000248,
      "d": 919.228854166664,
      "v": 64
    },
    {
      "midi": 69,
      "hit": false,
      "t": 242768.72500000248,
      "d": 919.228854166664,
      "v": 64
    },
    {
      "midi": 62,
      "hit": false,
      "t": 243691.8000000025,
      "d": 919.228854166664,
      "v": 64
    },
    {
      "midi": 65,
      "hit": false,
      "t": 243691.8000000025,
      "d": 919.228854166664,
      "v": 64
    },
    {
      "midi": 70,
      "hit": false,
      "t": 243691.8000000025,
      "d": 919.228854166664,
      "v": 64
    },
    {
      "midi": 72,
      "hit": false,
      "t": 243691.8000000025,
      "d": 919.228854166664,
      "v": 64
    },
    {
      "midi": 43,
      "hit": false,
      "t": 243691.8000000025,
      "d": 1380.7663541666698,
      "v": 64
    },
    {
      "midi": 62,
      "hit": false,
      "t": 243691.8000000025,
      "d": 919.228854166664,
      "v": 64
    },
    {
      "midi": 65,
      "hit": false,
      "t": 243691.8000000025,
      "d": 919.228854166664,
      "v": 64
    },
    {
      "midi": 70,
      "hit": false,
      "t": 243691.8000000025,
      "d": 919.228854166664,
      "v": 64
    },
    {
      "midi": 72,
      "hit": false,
      "t": 243691.8000000025,
      "d": 919.228854166664,
      "v": 64
    },
    {
      "midi": 43,
      "hit": false,
      "t": 243691.8000000025,
      "d": 1380.7663541666698,
      "v": 64
    },
    {
      "midi": 62,
      "hit": false,
      "t": 244614.8750000025,
      "d": 919.228854166664,
      "v": 64
    },
    {
      "midi": 65,
      "hit": false,
      "t": 244614.8750000025,
      "d": 919.228854166664,
      "v": 64
    },
    {
      "midi": 70,
      "hit": false,
      "t": 244614.8750000025,
      "d": 919.228854166664,
      "v": 64
    },
    {
      "midi": 72,
      "hit": false,
      "t": 244614.8750000025,
      "d": 919.228854166664,
      "v": 64
    },
    {
      "midi": 62,
      "hit": false,
      "t": 244614.8750000025,
      "d": 919.228854166664,
      "v": 64
    },
    {
      "midi": 65,
      "hit": false,
      "t": 244614.8750000025,
      "d": 919.228854166664,
      "v": 64
    },
    {
      "midi": 70,
      "hit": false,
      "t": 244614.8750000025,
      "d": 919.228854166664,
      "v": 64
    },
    {
      "midi": 72,
      "hit": false,
      "t": 244614.8750000025,
      "d": 919.228854166664,
      "v": 64
    },
    {
      "midi": 38,
      "hit": false,
      "t": 245076.4125000025,
      "d": 457.69135416665813,
      "v": 64
    },
    {
      "midi": 38,
      "hit": false,
      "t": 245076.4125000025,
      "d": 457.69135416665813,
      "v": 64
    },
    {
      "midi": 62,
      "hit": false,
      "t": 245537.95000000251,
      "d": 919.228854166664,
      "v": 64
    },
    {
      "midi": 65,
      "hit": false,
      "t": 245537.95000000251,
      "d": 919.228854166664,
      "v": 64
    },
    {
      "midi": 70,
      "hit": false,
      "t": 245537.95000000251,
      "d": 919.228854166664,
      "v": 64
    },
    {
      "midi": 72,
      "hit": false,
      "t": 245537.95000000251,
      "d": 919.228854166664,
      "v": 64
    },
    {
      "midi": 43,
      "hit": false,
      "t": 245537.95000000251,
      "d": 1842.3038541666756,
      "v": 64
    },
    {
      "midi": 62,
      "hit": false,
      "t": 245537.95000000251,
      "d": 919.228854166664,
      "v": 64
    },
    {
      "midi": 65,
      "hit": false,
      "t": 245537.95000000251,
      "d": 919.228854166664,
      "v": 64
    },
    {
      "midi": 70,
      "hit": false,
      "t": 245537.95000000251,
      "d": 919.228854166664,
      "v": 64
    },
    {
      "midi": 72,
      "hit": false,
      "t": 245537.95000000251,
      "d": 919.228854166664,
      "v": 64
    },
    {
      "midi": 43,
      "hit": false,
      "t": 245537.95000000251,
      "d": 1842.3038541666756,
      "v": 64
    },
    {
      "midi": 62,
      "hit": false,
      "t": 246461.02500000253,
      "d": 919.228854166664,
      "v": 64
    },
    {
      "midi": 65,
      "hit": false,
      "t": 246461.02500000253,
      "d": 919.228854166664,
      "v": 64
    },
    {
      "midi": 70,
      "hit": false,
      "t": 246461.02500000253,
      "d": 919.228854166664,
      "v": 64
    },
    {
      "midi": 72,
      "hit": false,
      "t": 246461.02500000253,
      "d": 919.228854166664,
      "v": 64
    },
    {
      "midi": 62,
      "hit": false,
      "t": 246461.02500000253,
      "d": 919.228854166664,
      "v": 64
    },
    {
      "midi": 65,
      "hit": false,
      "t": 246461.02500000253,
      "d": 919.228854166664,
      "v": 64
    },
    {
      "midi": 70,
      "hit": false,
      "t": 246461.02500000253,
      "d": 919.228854166664,
      "v": 64
    },
    {
      "midi": 72,
      "hit": false,
      "t": 246461.02500000253,
      "d": 919.228854166664,
      "v": 64
    },
    {
      "midi": 60,
      "hit": false,
      "t": 247384.10000000254,
      "d": 919.228854166664,
      "v": 64
    },
    {
      "midi": 65,
      "hit": false,
      "t": 247384.10000000254,
      "d": 919.228854166664,
      "v": 64
    },
    {
      "midi": 69,
      "hit": false,
      "t": 247384.10000000254,
      "d": 919.228854166664,
      "v": 64
    },
    {
      "midi": 72,
      "hit": false,
      "t": 247384.10000000254,
      "d": 919.228854166664,
      "v": 64
    },
    {
      "midi": 45,
      "hit": false,
      "t": 247384.10000000254,
      "d": 1380.7663541666698,
      "v": 64
    },
    {
      "midi": 60,
      "hit": false,
      "t": 247384.10000000254,
      "d": 919.228854166664,
      "v": 64
    },
    {
      "midi": 65,
      "hit": false,
      "t": 247384.10000000254,
      "d": 919.228854166664,
      "v": 64
    },
    {
      "midi": 69,
      "hit": false,
      "t": 247384.10000000254,
      "d": 919.228854166664,
      "v": 64
    },
    {
      "midi": 72,
      "hit": false,
      "t": 247384.10000000254,
      "d": 919.228854166664,
      "v": 64
    },
    {
      "midi": 45,
      "hit": false,
      "t": 247384.10000000254,
      "d": 1380.7663541666698,
      "v": 64
    },
    {
      "midi": 60,
      "hit": false,
      "t": 248307.17500000255,
      "d": 919.228854166664,
      "v": 64
    },
    {
      "midi": 65,
      "hit": false,
      "t": 248307.17500000255,
      "d": 919.228854166664,
      "v": 64
    },
    {
      "midi": 69,
      "hit": false,
      "t": 248307.17500000255,
      "d": 919.228854166664,
      "v": 64
    },
    {
      "midi": 72,
      "hit": false,
      "t": 248307.17500000255,
      "d": 919.228854166664,
      "v": 64
    },
    {
      "midi": 60,
      "hit": false,
      "t": 248307.17500000255,
      "d": 919.228854166664,
      "v": 64
    },
    {
      "midi": 65,
      "hit": false,
      "t": 248307.17500000255,
      "d": 919.228854166664,
      "v": 64
    },
    {
      "midi": 69,
      "hit": false,
      "t": 248307.17500000255,
      "d": 919.228854166664,
      "v": 64
    },
    {
      "midi": 72,
      "hit": false,
      "t": 248307.17500000255,
      "d": 919.228854166664,
      "v": 64
    },
    {
      "midi": 45,
      "hit": false,
      "t": 248768.71250000256,
      "d": 457.69135416665813,
      "v": 64
    },
    {
      "midi": 45,
      "hit": false,
      "t": 248768.71250000256,
      "d": 457.69135416665813,
      "v": 64
    },
    {
      "midi": 60,
      "hit": false,
      "t": 249230.25000000256,
      "d": 919.228854166664,
      "v": 64
    },
    {
      "midi": 65,
      "hit": false,
      "t": 249230.25000000256,
      "d": 919.228854166664,
      "v": 64
    },
    {
      "midi": 69,
      "hit": false,
      "t": 249230.25000000256,
      "d": 919.228854166664,
      "v": 64
    },
    {
      "midi": 72,
      "hit": false,
      "t": 249230.25000000256,
      "d": 919.228854166664,
      "v": 64
    },
    {
      "midi": 45,
      "hit": false,
      "t": 249230.25000000256,
      "d": 1380.7663541666698,
      "v": 64
    },
    {
      "midi": 60,
      "hit": false,
      "t": 249230.25000000256,
      "d": 919.228854166664,
      "v": 64
    },
    {
      "midi": 65,
      "hit": false,
      "t": 249230.25000000256,
      "d": 919.228854166664,
      "v": 64
    },
    {
      "midi": 69,
      "hit": false,
      "t": 249230.25000000256,
      "d": 919.228854166664,
      "v": 64
    },
    {
      "midi": 72,
      "hit": false,
      "t": 249230.25000000256,
      "d": 919.228854166664,
      "v": 64
    },
    {
      "midi": 45,
      "hit": false,
      "t": 249230.25000000256,
      "d": 1380.7663541666698,
      "v": 64
    },
    {
      "midi": 60,
      "hit": false,
      "t": 250153.32500000257,
      "d": 919.228854166664,
      "v": 64
    },
    {
      "midi": 65,
      "hit": false,
      "t": 250153.32500000257,
      "d": 919.228854166664,
      "v": 64
    },
    {
      "midi": 69,
      "hit": false,
      "t": 250153.32500000257,
      "d": 919.228854166664,
      "v": 64
    },
    {
      "midi": 72,
      "hit": false,
      "t": 250153.32500000257,
      "d": 919.228854166664,
      "v": 64
    },
    {
      "midi": 60,
      "hit": false,
      "t": 250153.32500000257,
      "d": 919.228854166664,
      "v": 64
    },
    {
      "midi": 65,
      "hit": false,
      "t": 250153.32500000257,
      "d": 919.228854166664,
      "v": 64
    },
    {
      "midi": 69,
      "hit": false,
      "t": 250153.32500000257,
      "d": 919.228854166664,
      "v": 64
    },
    {
      "midi": 72,
      "hit": false,
      "t": 250153.32500000257,
      "d": 919.228854166664,
      "v": 64
    },
    {
      "midi": 45,
      "hit": false,
      "t": 250614.86250000258,
      "d": 457.69135416665813,
      "v": 64
    },
    {
      "midi": 45,
      "hit": false,
      "t": 250614.86250000258,
      "d": 457.69135416665813,
      "v": 64
    },
    {
      "midi": 62,
      "hit": false,
      "t": 251076.40000000258,
      "d": 919.228854166664,
      "v": 64
    },
    {
      "midi": 65,
      "hit": false,
      "t": 251076.40000000258,
      "d": 919.228854166664,
      "v": 64
    },
    {
      "midi": 70,
      "hit": false,
      "t": 251076.40000000258,
      "d": 919.228854166664,
      "v": 64
    },
    {
      "midi": 72,
      "hit": false,
      "t": 251076.40000000258,
      "d": 919.228854166664,
      "v": 64
    },
    {
      "midi": 46,
      "hit": false,
      "t": 251076.40000000258,
      "d": 1380.7663541666698,
      "v": 64
    },
    {
      "midi": 62,
      "hit": false,
      "t": 251076.40000000258,
      "d": 919.228854166664,
      "v": 64
    },
    {
      "midi": 65,
      "hit": false,
      "t": 251076.40000000258,
      "d": 919.228854166664,
      "v": 64
    },
    {
      "midi": 70,
      "hit": false,
      "t": 251076.40000000258,
      "d": 919.228854166664,
      "v": 64
    },
    {
      "midi": 72,
      "hit": false,
      "t": 251076.40000000258,
      "d": 919.228854166664,
      "v": 64
    },
    {
      "midi": 46,
      "hit": false,
      "t": 251076.40000000258,
      "d": 1380.7663541666698,
      "v": 64
    },
    {
      "midi": 62,
      "hit": false,
      "t": 251999.4750000026,
      "d": 919.228854166664,
      "v": 64
    },
    {
      "midi": 65,
      "hit": false,
      "t": 251999.4750000026,
      "d": 919.228854166664,
      "v": 64
    },
    {
      "midi": 70,
      "hit": false,
      "t": 251999.4750000026,
      "d": 919.228854166664,
      "v": 64
    },
    {
      "midi": 72,
      "hit": false,
      "t": 251999.4750000026,
      "d": 919.228854166664,
      "v": 64
    },
    {
      "midi": 62,
      "hit": false,
      "t": 251999.4750000026,
      "d": 919.228854166664,
      "v": 64
    },
    {
      "midi": 65,
      "hit": false,
      "t": 251999.4750000026,
      "d": 919.228854166664,
      "v": 64
    },
    {
      "midi": 70,
      "hit": false,
      "t": 251999.4750000026,
      "d": 919.228854166664,
      "v": 64
    },
    {
      "midi": 72,
      "hit": false,
      "t": 251999.4750000026,
      "d": 919.228854166664,
      "v": 64
    },
    {
      "midi": 46,
      "hit": false,
      "t": 252461.0125000026,
      "d": 457.69135416665813,
      "v": 64
    },
    {
      "midi": 46,
      "hit": false,
      "t": 252461.0125000026,
      "d": 457.69135416665813,
      "v": 64
    },
    {
      "midi": 62,
      "hit": false,
      "t": 252922.5500000026,
      "d": 919.228854166664,
      "v": 64
    },
    {
      "midi": 65,
      "hit": false,
      "t": 252922.5500000026,
      "d": 919.228854166664,
      "v": 64
    },
    {
      "midi": 70,
      "hit": false,
      "t": 252922.5500000026,
      "d": 919.228854166664,
      "v": 64
    },
    {
      "midi": 72,
      "hit": false,
      "t": 252922.5500000026,
      "d": 919.228854166664,
      "v": 64
    },
    {
      "midi": 46,
      "hit": false,
      "t": 252922.5500000026,
      "d": 1380.7663541666698,
      "v": 64
    },
    {
      "midi": 62,
      "hit": false,
      "t": 252922.5500000026,
      "d": 919.228854166664,
      "v": 64
    },
    {
      "midi": 65,
      "hit": false,
      "t": 252922.5500000026,
      "d": 919.228854166664,
      "v": 64
    },
    {
      "midi": 70,
      "hit": false,
      "t": 252922.5500000026,
      "d": 919.228854166664,
      "v": 64
    },
    {
      "midi": 72,
      "hit": false,
      "t": 252922.5500000026,
      "d": 919.228854166664,
      "v": 64
    },
    {
      "midi": 46,
      "hit": false,
      "t": 252922.5500000026,
      "d": 1380.7663541666698,
      "v": 64
    },
    {
      "midi": 62,
      "hit": false,
      "t": 253845.62500000262,
      "d": 919.228854166664,
      "v": 64
    },
    {
      "midi": 65,
      "hit": false,
      "t": 253845.62500000262,
      "d": 919.228854166664,
      "v": 64
    },
    {
      "midi": 70,
      "hit": false,
      "t": 253845.62500000262,
      "d": 919.228854166664,
      "v": 64
    },
    {
      "midi": 72,
      "hit": false,
      "t": 253845.62500000262,
      "d": 919.228854166664,
      "v": 64
    },
    {
      "midi": 62,
      "hit": false,
      "t": 253845.62500000262,
      "d": 919.228854166664,
      "v": 64
    },
    {
      "midi": 65,
      "hit": false,
      "t": 253845.62500000262,
      "d": 919.228854166664,
      "v": 64
    },
    {
      "midi": 70,
      "hit": false,
      "t": 253845.62500000262,
      "d": 919.228854166664,
      "v": 64
    },
    {
      "midi": 72,
      "hit": false,
      "t": 253845.62500000262,
      "d": 919.228854166664,
      "v": 64
    },
    {
      "midi": 46,
      "hit": false,
      "t": 254307.16250000263,
      "d": 457.69135416665813,
      "v": 64
    },
    {
      "midi": 46,
      "hit": false,
      "t": 254307.16250000263,
      "d": 457.69135416665813,
      "v": 64
    },
    {
      "midi": 60,
      "hit": false,
      "t": 254768.70000000263,
      "d": 919.228854166664,
      "v": 64
    },
    {
      "midi": 64,
      "hit": false,
      "t": 254768.70000000263,
      "d": 919.228854166664,
      "v": 64
    },
    {
      "midi": 67,
      "hit": false,
      "t": 254768.70000000263,
      "d": 919.228854166664,
      "v": 64
    },
    {
      "midi": 72,
      "hit": false,
      "t": 254768.70000000263,
      "d": 919.228854166664,
      "v": 64
    },
    {
      "midi": 48,
      "hit": false,
      "t": 254768.70000000263,
      "d": 1380.7663541666698,
      "v": 64
    },
    {
      "midi": 60,
      "hit": false,
      "t": 254768.70000000263,
      "d": 919.228854166664,
      "v": 64
    },
    {
      "midi": 64,
      "hit": false,
      "t": 254768.70000000263,
      "d": 919.228854166664,
      "v": 64
    },
    {
      "midi": 67,
      "hit": false,
      "t": 254768.70000000263,
      "d": 919.228854166664,
      "v": 64
    },
    {
      "midi": 72,
      "hit": false,
      "t": 254768.70000000263,
      "d": 919.228854166664,
      "v": 64
    },
    {
      "midi": 48,
      "hit": false,
      "t": 254768.70000000263,
      "d": 1380.7663541666698,
      "v": 64
    },
    {
      "midi": 60,
      "hit": false,
      "t": 255691.77500000264,
      "d": 919.228854166664,
      "v": 64
    },
    {
      "midi": 64,
      "hit": false,
      "t": 255691.77500000264,
      "d": 919.228854166664,
      "v": 64
    },
    {
      "midi": 67,
      "hit": false,
      "t": 255691.77500000264,
      "d": 919.228854166664,
      "v": 64
    },
    {
      "midi": 72,
      "hit": false,
      "t": 255691.77500000264,
      "d": 919.228854166664,
      "v": 64
    },
    {
      "midi": 60,
      "hit": false,
      "t": 255691.77500000264,
      "d": 919.228854166664,
      "v": 64
    },
    {
      "midi": 64,
      "hit": false,
      "t": 255691.77500000264,
      "d": 919.228854166664,
      "v": 64
    },
    {
      "midi": 67,
      "hit": false,
      "t": 255691.77500000264,
      "d": 919.228854166664,
      "v": 64
    },
    {
      "midi": 72,
      "hit": false,
      "t": 255691.77500000264,
      "d": 919.228854166664,
      "v": 64
    },
    {
      "midi": 48,
      "hit": false,
      "t": 256153.31250000265,
      "d": 457.69135416665813,
      "v": 64
    },
    {
      "midi": 48,
      "hit": false,
      "t": 256153.31250000265,
      "d": 457.69135416665813,
      "v": 64
    },
    {
      "midi": 36,
      "hit": false,
      "t": 256614.85000000265,
      "d": 1842.3038541666756,
      "v": 64
    },
    {
      "midi": 48,
      "hit": false,
      "t": 256614.85000000265,
      "d": 1842.3038541666756,
      "v": 64
    },
    {
      "midi": 60,
      "hit": false,
      "t": 256614.85000000265,
      "d": 1842.3038541666756,
      "v": 64
    },
    {
      "midi": 64,
      "hit": false,
      "t": 256614.85000000265,
      "d": 1842.3038541666756,
      "v": 64
    },
    {
      "midi": 67,
      "hit": false,
      "t": 256614.85000000265,
      "d": 1842.3038541666756,
      "v": 64
    },
    {
      "midi": 72,
      "hit": false,
      "t": 256614.85000000265,
      "d": 1842.3038541666756,
      "v": 64
    },
    {
      "midi": 36,
      "hit": false,
      "t": 256614.85000000265,
      "d": 1842.3038541666756,
      "v": 64
    },
    {
      "midi": 48,
      "hit": false,
      "t": 256614.85000000265,
      "d": 1842.3038541666756,
      "v": 64
    },
    {
      "midi": 60,
      "hit": false,
      "t": 256614.85000000265,
      "d": 1842.3038541666756,
      "v": 64
    },
    {
      "midi": 64,
      "hit": false,
      "t": 256614.85000000265,
      "d": 1842.3038541666756,
      "v": 64
    },
    {
      "midi": 67,
      "hit": false,
      "t": 256614.85000000265,
      "d": 1842.3038541666756,
      "v": 64
    },
    {
      "midi": 72,
      "hit": false,
      "t": 256614.85000000265,
      "d": 1842.3038541666756,
      "v": 64
    },
    {
      "midi": 60,
      "hit": false,
      "t": 258461.00000000268,
      "d": 919.228854166664,
      "v": 64
    },
    {
      "midi": 65,
      "hit": false,
      "t": 258461.00000000268,
      "d": 919.228854166664,
      "v": 64
    },
    {
      "midi": 70,
      "hit": false,
      "t": 258461.00000000268,
      "d": 919.228854166664,
      "v": 64
    },
    {
      "midi": 72,
      "hit": false,
      "t": 258461.00000000268,
      "d": 919.228854166664,
      "v": 64
    },
    {
      "midi": 38,
      "hit": false,
      "t": 258461.00000000268,
      "d": 1380.7663541666698,
      "v": 64
    },
    {
      "midi": 60,
      "hit": false,
      "t": 258461.00000000268,
      "d": 919.228854166664,
      "v": 64
    },
    {
      "midi": 65,
      "hit": false,
      "t": 258461.00000000268,
      "d": 919.228854166664,
      "v": 64
    },
    {
      "midi": 70,
      "hit": false,
      "t": 258461.00000000268,
      "d": 919.228854166664,
      "v": 64
    },
    {
      "midi": 72,
      "hit": false,
      "t": 258461.00000000268,
      "d": 919.228854166664,
      "v": 64
    },
    {
      "midi": 38,
      "hit": false,
      "t": 258461.00000000268,
      "d": 1380.7663541666698,
      "v": 64
    },
    {
      "midi": 60,
      "hit": false,
      "t": 259384.0750000027,
      "d": 919.228854166664,
      "v": 64
    },
    {
      "midi": 65,
      "hit": false,
      "t": 259384.0750000027,
      "d": 919.228854166664,
      "v": 64
    },
    {
      "midi": 70,
      "hit": false,
      "t": 259384.0750000027,
      "d": 919.228854166664,
      "v": 64
    },
    {
      "midi": 72,
      "hit": false,
      "t": 259384.0750000027,
      "d": 919.228854166664,
      "v": 64
    },
    {
      "midi": 60,
      "hit": false,
      "t": 259384.0750000027,
      "d": 919.228854166664,
      "v": 64
    },
    {
      "midi": 65,
      "hit": false,
      "t": 259384.0750000027,
      "d": 919.228854166664,
      "v": 64
    },
    {
      "midi": 70,
      "hit": false,
      "t": 259384.0750000027,
      "d": 919.228854166664,
      "v": 64
    },
    {
      "midi": 72,
      "hit": false,
      "t": 259384.0750000027,
      "d": 919.228854166664,
      "v": 64
    },
    {
      "midi": 36,
      "hit": false,
      "t": 259845.6125000027,
      "d": 457.69135416665813,
      "v": 64
    },
    {
      "midi": 36,
      "hit": false,
      "t": 259845.6125000027,
      "d": 457.69135416665813,
      "v": 64
    },
    {
      "midi": 60,
      "hit": false,
      "t": 260307.1500000027,
      "d": 919.228854166664,
      "v": 64
    },
    {
      "midi": 65,
      "hit": false,
      "t": 260307.1500000027,
      "d": 919.228854166664,
      "v": 64
    },
    {
      "midi": 70,
      "hit": false,
      "t": 260307.1500000027,
      "d": 919.228854166664,
      "v": 64
    },
    {
      "midi": 72,
      "hit": false,
      "t": 260307.1500000027,
      "d": 919.228854166664,
      "v": 64
    },
    {
      "midi": 50,
      "hit": false,
      "t": 260307.1500000027,
      "d": 1380.7663541666698,
      "v": 64
    },
    {
      "midi": 60,
      "hit": false,
      "t": 260307.1500000027,
      "d": 919.228854166664,
      "v": 64
    },
    {
      "midi": 65,
      "hit": false,
      "t": 260307.1500000027,
      "d": 919.228854166664,
      "v": 64
    },
    {
      "midi": 70,
      "hit": false,
      "t": 260307.1500000027,
      "d": 919.228854166664,
      "v": 64
    },
    {
      "midi": 72,
      "hit": false,
      "t": 260307.1500000027,
      "d": 919.228854166664,
      "v": 64
    },
    {
      "midi": 50,
      "hit": false,
      "t": 260307.1500000027,
      "d": 1380.7663541666698,
      "v": 64
    },
    {
      "midi": 60,
      "hit": false,
      "t": 261230.2250000027,
      "d": 919.228854166693,
      "v": 64
    },
    {
      "midi": 65,
      "hit": false,
      "t": 261230.2250000027,
      "d": 919.228854166693,
      "v": 64
    },
    {
      "midi": 70,
      "hit": false,
      "t": 261230.2250000027,
      "d": 919.228854166693,
      "v": 64
    },
    {
      "midi": 72,
      "hit": false,
      "t": 261230.2250000027,
      "d": 919.228854166693,
      "v": 64
    },
    {
      "midi": 60,
      "hit": false,
      "t": 261230.2250000027,
      "d": 919.228854166693,
      "v": 64
    },
    {
      "midi": 65,
      "hit": false,
      "t": 261230.2250000027,
      "d": 919.228854166693,
      "v": 64
    },
    {
      "midi": 70,
      "hit": false,
      "t": 261230.2250000027,
      "d": 919.228854166693,
      "v": 64
    },
    {
      "midi": 72,
      "hit": false,
      "t": 261230.2250000027,
      "d": 919.228854166693,
      "v": 64
    },
    {
      "midi": 38,
      "hit": false,
      "t": 261691.76250000272,
      "d": 457.69135416668723,
      "v": 64
    },
    {
      "midi": 38,
      "hit": false,
      "t": 261691.76250000272,
      "d": 457.69135416668723,
      "v": 64
    },
    {
      "midi": 60,
      "hit": false,
      "t": 262153.3000000027,
      "d": 919.228854166693,
      "v": 64
    },
    {
      "midi": 65,
      "hit": false,
      "t": 262153.3000000027,
      "d": 919.228854166693,
      "v": 64
    },
    {
      "midi": 69,
      "hit": false,
      "t": 262153.3000000027,
      "d": 919.228854166693,
      "v": 64
    },
    {
      "midi": 72,
      "hit": false,
      "t": 262153.3000000027,
      "d": 919.228854166693,
      "v": 64
    },
    {
      "midi": 36,
      "hit": false,
      "t": 262153.3000000027,
      "d": 1380.7663541666698,
      "v": 64
    },
    {
      "midi": 60,
      "hit": false,
      "t": 262153.3000000027,
      "d": 919.228854166693,
      "v": 64
    },
    {
      "midi": 65,
      "hit": false,
      "t": 262153.3000000027,
      "d": 919.228854166693,
      "v": 64
    },
    {
      "midi": 69,
      "hit": false,
      "t": 262153.3000000027,
      "d": 919.228854166693,
      "v": 64
    },
    {
      "midi": 72,
      "hit": false,
      "t": 262153.3000000027,
      "d": 919.228854166693,
      "v": 64
    },
    {
      "midi": 36,
      "hit": false,
      "t": 262153.3000000027,
      "d": 1380.7663541666698,
      "v": 64
    },
    {
      "midi": 60,
      "hit": false,
      "t": 263076.37500000274,
      "d": 919.2288541666348,
      "v": 64
    },
    {
      "midi": 65,
      "hit": false,
      "t": 263076.37500000274,
      "d": 919.2288541666348,
      "v": 64
    },
    {
      "midi": 69,
      "hit": false,
      "t": 263076.37500000274,
      "d": 919.2288541666348,
      "v": 64
    },
    {
      "midi": 72,
      "hit": false,
      "t": 263076.37500000274,
      "d": 919.2288541666348,
      "v": 64
    },
    {
      "midi": 60,
      "hit": false,
      "t": 263076.37500000274,
      "d": 919.2288541666348,
      "v": 64
    },
    {
      "midi": 65,
      "hit": false,
      "t": 263076.37500000274,
      "d": 919.2288541666348,
      "v": 64
    },
    {
      "midi": 69,
      "hit": false,
      "t": 263076.37500000274,
      "d": 919.2288541666348,
      "v": 64
    },
    {
      "midi": 72,
      "hit": false,
      "t": 263076.37500000274,
      "d": 919.2288541666348,
      "v": 64
    },
    {
      "midi": 36,
      "hit": false,
      "t": 263537.9125000027,
      "d": 457.69135416665813,
      "v": 64
    },
    {
      "midi": 36,
      "hit": false,
      "t": 263537.9125000027,
      "d": 457.69135416665813,
      "v": 64
    },
    {
      "midi": 60,
      "hit": false,
      "t": 263999.4500000027,
      "d": 919.228854166693,
      "v": 64
    },
    {
      "midi": 65,
      "hit": false,
      "t": 263999.4500000027,
      "d": 919.228854166693,
      "v": 64
    },
    {
      "midi": 69,
      "hit": false,
      "t": 263999.4500000027,
      "d": 919.228854166693,
      "v": 64
    },
    {
      "midi": 72,
      "hit": false,
      "t": 263999.4500000027,
      "d": 919.228854166693,
      "v": 64
    },
    {
      "midi": 48,
      "hit": false,
      "t": 263999.4500000027,
      "d": 1380.7663541666698,
      "v": 64
    },
    {
      "midi": 60,
      "hit": false,
      "t": 263999.4500000027,
      "d": 919.228854166693,
      "v": 64
    },
    {
      "midi": 65,
      "hit": false,
      "t": 263999.4500000027,
      "d": 919.228854166693,
      "v": 64
    },
    {
      "midi": 69,
      "hit": false,
      "t": 263999.4500000027,
      "d": 919.228854166693,
      "v": 64
    },
    {
      "midi": 72,
      "hit": false,
      "t": 263999.4500000027,
      "d": 919.228854166693,
      "v": 64
    },
    {
      "midi": 48,
      "hit": false,
      "t": 263999.4500000027,
      "d": 1380.7663541666698,
      "v": 64
    },
    {
      "midi": 60,
      "hit": false,
      "t": 264922.5250000027,
      "d": 919.2288541666348,
      "v": 64
    },
    {
      "midi": 65,
      "hit": false,
      "t": 264922.5250000027,
      "d": 919.2288541666348,
      "v": 64
    },
    {
      "midi": 69,
      "hit": false,
      "t": 264922.5250000027,
      "d": 919.2288541666348,
      "v": 64
    },
    {
      "midi": 72,
      "hit": false,
      "t": 264922.5250000027,
      "d": 919.2288541666348,
      "v": 64
    },
    {
      "midi": 60,
      "hit": false,
      "t": 264922.5250000027,
      "d": 919.2288541666348,
      "v": 64
    },
    {
      "midi": 65,
      "hit": false,
      "t": 264922.5250000027,
      "d": 919.2288541666348,
      "v": 64
    },
    {
      "midi": 69,
      "hit": false,
      "t": 264922.5250000027,
      "d": 919.2288541666348,
      "v": 64
    },
    {
      "midi": 72,
      "hit": false,
      "t": 264922.5250000027,
      "d": 919.2288541666348,
      "v": 64
    },
    {
      "midi": 45,
      "hit": false,
      "t": 265384.0625000027,
      "d": 457.69135416665813,
      "v": 64
    },
    {
      "midi": 45,
      "hit": false,
      "t": 265384.0625000027,
      "d": 457.69135416665813,
      "v": 64
    },
    {
      "midi": 60,
      "hit": false,
      "t": 265845.60000000265,
      "d": 919.228854166693,
      "v": 64
    },
    {
      "midi": 65,
      "hit": false,
      "t": 265845.60000000265,
      "d": 919.228854166693,
      "v": 64
    },
    {
      "midi": 70,
      "hit": false,
      "t": 265845.60000000265,
      "d": 919.228854166693,
      "v": 64
    },
    {
      "midi": 72,
      "hit": false,
      "t": 265845.60000000265,
      "d": 919.228854166693,
      "v": 64
    },
    {
      "midi": 46,
      "hit": false,
      "t": 265845.60000000265,
      "d": 1380.7663541666698,
      "v": 64
    },
    {
      "midi": 58,
      "hit": false,
      "t": 265845.60000000265,
      "d": 1380.7663541666698,
      "v": 64
    },
    {
      "midi": 60,
      "hit": false,
      "t": 265845.60000000265,
      "d": 919.228854166693,
      "v": 64
    },
    {
      "midi": 65,
      "hit": false,
      "t": 265845.60000000265,
      "d": 919.228854166693,
      "v": 64
    },
    {
      "midi": 70,
      "hit": false,
      "t": 265845.60000000265,
      "d": 919.228854166693,
      "v": 64
    },
    {
      "midi": 72,
      "hit": false,
      "t": 265845.60000000265,
      "d": 919.228854166693,
      "v": 64
    },
    {
      "midi": 46,
      "hit": false,
      "t": 265845.60000000265,
      "d": 1380.7663541666698,
      "v": 64
    },
    {
      "midi": 58,
      "hit": false,
      "t": 265845.60000000265,
      "d": 1380.7663541666698,
      "v": 64
    },
    {
      "midi": 60,
      "hit": false,
      "t": 266768.67500000267,
      "d": 919.2288541666348,
      "v": 64
    },
    {
      "midi": 65,
      "hit": false,
      "t": 266768.67500000267,
      "d": 919.2288541666348,
      "v": 64
    },
    {
      "midi": 70,
      "hit": false,
      "t": 266768.67500000267,
      "d": 919.2288541666348,
      "v": 64
    },
    {
      "midi": 72,
      "hit": false,
      "t": 266768.67500000267,
      "d": 919.2288541666348,
      "v": 64
    },
    {
      "midi": 60,
      "hit": false,
      "t": 266768.67500000267,
      "d": 919.2288541666348,
      "v": 64
    },
    {
      "midi": 65,
      "hit": false,
      "t": 266768.67500000267,
      "d": 919.2288541666348,
      "v": 64
    },
    {
      "midi": 70,
      "hit": false,
      "t": 266768.67500000267,
      "d": 919.2288541666348,
      "v": 64
    },
    {
      "midi": 72,
      "hit": false,
      "t": 266768.67500000267,
      "d": 919.2288541666348,
      "v": 64
    },
    {
      "midi": 46,
      "hit": false,
      "t": 267230.21250000264,
      "d": 457.69135416665813,
      "v": 64
    },
    {
      "midi": 58,
      "hit": false,
      "t": 267230.21250000264,
      "d": 457.69135416665813,
      "v": 64
    },
    {
      "midi": 46,
      "hit": false,
      "t": 267230.21250000264,
      "d": 457.69135416665813,
      "v": 64
    },
    {
      "midi": 58,
      "hit": false,
      "t": 267230.21250000264,
      "d": 457.69135416665813,
      "v": 64
    },
    {
      "midi": 60,
      "hit": false,
      "t": 267691.7500000026,
      "d": 919.228854166693,
      "v": 64
    },
    {
      "midi": 65,
      "hit": false,
      "t": 267691.7500000026,
      "d": 919.228854166693,
      "v": 64
    },
    {
      "midi": 67,
      "hit": false,
      "t": 267691.7500000026,
      "d": 919.228854166693,
      "v": 64
    },
    {
      "midi": 72,
      "hit": false,
      "t": 267691.7500000026,
      "d": 919.228854166693,
      "v": 64
    },
    {
      "midi": 36,
      "hit": false,
      "t": 267691.7500000026,
      "d": 1842.3038541667047,
      "v": 64
    },
    {
      "midi": 48,
      "hit": false,
      "t": 267691.7500000026,
      "d": 1842.3038541667047,
      "v": 64
    },
    {
      "midi": 60,
      "hit": false,
      "t": 267691.7500000026,
      "d": 919.228854166693,
      "v": 64
    },
    {
      "midi": 65,
      "hit": false,
      "t": 267691.7500000026,
      "d": 919.228854166693,
      "v": 64
    },
    {
      "midi": 67,
      "hit": false,
      "t": 267691.7500000026,
      "d": 919.228854166693,
      "v": 64
    },
    {
      "midi": 72,
      "hit": false,
      "t": 267691.7500000026,
      "d": 919.228854166693,
      "v": 64
    },
    {
      "midi": 36,
      "hit": false,
      "t": 267691.7500000026,
      "d": 1842.3038541667047,
      "v": 64
    },
    {
      "midi": 48,
      "hit": false,
      "t": 267691.7500000026,
      "d": 1842.3038541667047,
      "v": 64
    },
    {
      "midi": 60,
      "hit": false,
      "t": 268614.82500000263,
      "d": 919.228854166693,
      "v": 64
    },
    {
      "midi": 64,
      "hit": false,
      "t": 268614.82500000263,
      "d": 919.228854166693,
      "v": 64
    },
    {
      "midi": 67,
      "hit": false,
      "t": 268614.82500000263,
      "d": 919.228854166693,
      "v": 64
    },
    {
      "midi": 72,
      "hit": false,
      "t": 268614.82500000263,
      "d": 919.228854166693,
      "v": 64
    },
    {
      "midi": 60,
      "hit": false,
      "t": 268614.82500000263,
      "d": 919.228854166693,
      "v": 64
    },
    {
      "midi": 64,
      "hit": false,
      "t": 268614.82500000263,
      "d": 919.228854166693,
      "v": 64
    },
    {
      "midi": 67,
      "hit": false,
      "t": 268614.82500000263,
      "d": 919.228854166693,
      "v": 64
    },
    {
      "midi": 72,
      "hit": false,
      "t": 268614.82500000263,
      "d": 919.228854166693,
      "v": 64
    },
    {
      "midi": 41,
      "hit": false,
      "t": 269537.90000000264,
      "d": 7380.753854166658,
      "v": 64
    },
    {
      "midi": 53,
      "hit": false,
      "t": 269537.90000000264,
      "d": 7380.753854166658,
      "v": 64
    },
    {
      "midi": 60,
      "hit": false,
      "t": 269537.90000000264,
      "d": 7380.753854166658,
      "v": 64
    },
    {
      "midi": 65,
      "hit": false,
      "t": 269537.90000000264,
      "d": 7380.753854166658,
      "v": 64
    },
    {
      "midi": 69,
      "hit": false,
      "t": 269537.90000000264,
      "d": 7380.753854166658,
      "v": 64
    },
    {
      "midi": 72,
      "hit": false,
      "t": 269537.90000000264,
      "d": 7380.753854166658,
      "v": 64
    },
    {
      "midi": 41,
      "hit": false,
      "t": 269537.90000000264,
      "d": 7380.753854166658,
      "v": 64
    },
    {
      "midi": 53,
      "hit": false,
      "t": 269537.90000000264,
      "d": 7380.753854166658,
      "v": 64
    },
    {
      "midi": 60,
      "hit": false,
      "t": 269537.90000000264,
      "d": 7380.753854166658,
      "v": 64
    },
    {
      "midi": 65,
      "hit": false,
      "t": 269537.90000000264,
      "d": 7380.753854166658,
      "v": 64
    },
    {
      "midi": 69,
      "hit": false,
      "t": 269537.90000000264,
      "d": 7380.753854166658,
      "v": 64
    },
    {
      "midi": 72,
      "hit": false,
      "t": 269537.90000000264,
      "d": 7380.753854166658,
      "v": 64
    }
  ]
}