{
  "jsonPath": "Rock/Country Rock/LITTLE TEXAS/my-love-album-version.json",
  "path": "Rock\\Country Rock\\LITTLE TEXAS\\My Love (Album Version).mid",
  "name": "My Love (Album Version)",
  "difficulty": "Advanced",
  "bpm": 92.00012880018032,
  "notes": [
    {
      "midi": 52,
      "hit": false,
      "t": 2608.692,
      "d": 975.5421125000003,
      "v": 67
    },
    {
      "midi": 57,
      "hit": false,
      "t": 2608.692,
      "d": 975.5421125000003,
      "v": 70
    },
    {
      "midi": 61,
      "hit": false,
      "t": 2608.692,
      "d": 975.5421125000003,
      "v": 66
    },
    {
      "midi": 64,
      "hit": false,
      "t": 2608.692,
      "d": 975.5421125000003,
      "v": 71
    },
    {
      "midi": 69,
      "hit": false,
      "t": 2608.692,
      "d": 975.5421125000003,
      "v": 70
    },
    {
      "midi": 45,
      "hit": false,
      "t": 3584.2341125000003,
      "d": 975.5421124999993,
      "v": 71
    },
    {
      "midi": 52,
      "hit": false,
      "t": 3586.9515,
      "d": 1627.7151124999982,
      "v": 65
    },
    {
      "midi": 57,
      "hit": false,
      "t": 3586.9515,
      "d": 1627.7151124999982,
      "v": 64
    },
    {
      "midi": 61,
      "hit": false,
      "t": 3586.9515,
      "d": 1627.7151124999982,
      "v": 68
    },
    {
      "midi": 64,
      "hit": false,
      "t": 3586.9515,
      "d": 1627.7151124999982,
      "v": 69
    },
    {
      "midi": 76,
      "hit": false,
      "t": 3913.038,
      "d": 323.3691125,
      "v": 119
    },
    {
      "midi": 74,
      "hit": false,
      "t": 4239.1245,
      "d": 323.3691124999996,
      "v": 113
    },
    {
      "midi": 45,
      "hit": false,
      "t": 4562.4936124999995,
      "d": 323.3691124999996,
      "v": 72
    },
    {
      "midi": 73,
      "hit": false,
      "t": 4565.210999999999,
      "d": 323.3691124999996,
      "v": 119
    },
    {
      "midi": 47,
      "hit": false,
      "t": 4888.580112499999,
      "d": 323.3691124999996,
      "v": 71
    },
    {
      "midi": 69,
      "hit": false,
      "t": 4891.297499999999,
      "d": 323.3691124999996,
      "v": 113
    },
    {
      "midi": 49,
      "hit": false,
      "t": 5214.666612499998,
      "d": 866.8466124999995,
      "v": 72
    },
    {
      "midi": 56,
      "hit": false,
      "t": 5217.383999999998,
      "d": 866.8466124999995,
      "v": 67
    },
    {
      "midi": 64,
      "hit": false,
      "t": 5217.383999999998,
      "d": 866.8466124999995,
      "v": 70
    },
    {
      "midi": 68,
      "hit": false,
      "t": 5217.383999999998,
      "d": 866.8466124999995,
      "v": 65
    },
    {
      "midi": 49,
      "hit": false,
      "t": 6192.9261124999975,
      "d": 975.5421125000003,
      "v": 71
    },
    {
      "midi": 56,
      "hit": false,
      "t": 6195.643499999997,
      "d": 1627.7151124999991,
      "v": 67
    },
    {
      "midi": 61,
      "hit": false,
      "t": 6195.643499999997,
      "d": 1627.7151124999991,
      "v": 64
    },
    {
      "midi": 64,
      "hit": false,
      "t": 6195.643499999997,
      "d": 1627.7151124999991,
      "v": 67
    },
    {
      "midi": 68,
      "hit": false,
      "t": 6195.643499999997,
      "d": 1627.7151124999991,
      "v": 64
    },
    {
      "midi": 71,
      "hit": false,
      "t": 6521.729999999998,
      "d": 649.4556124999999,
      "v": 119
    },
    {
      "midi": 49,
      "hit": false,
      "t": 7171.185612499998,
      "d": 323.3691124999996,
      "v": 72
    },
    {
      "midi": 73,
      "hit": false,
      "t": 7173.9029999999975,
      "d": 323.3691124999996,
      "v": 119
    },
    {
      "midi": 45,
      "hit": false,
      "t": 7497.272112499997,
      "d": 323.3691124999996,
      "v": 71
    },
    {
      "midi": 50,
      "hit": false,
      "t": 7826.075999999996,
      "d": 864.1292249999997,
      "v": 66
    },
    {
      "midi": 57,
      "hit": false,
      "t": 7826.075999999996,
      "d": 975.5421125000003,
      "v": 67
    },
    {
      "midi": 62,
      "hit": false,
      "t": 7826.075999999996,
      "d": 975.5421125000003,
      "v": 72
    },
    {
      "midi": 66,
      "hit": false,
      "t": 7826.075999999996,
      "d": 975.5421125000003,
      "v": 70
    },
    {
      "midi": 69,
      "hit": false,
      "t": 7826.075999999996,
      "d": 975.5421125000003,
      "v": 63
    },
    {
      "midi": 50,
      "hit": false,
      "t": 8804.335499999997,
      "d": 2.7173875000007683,
      "v": 65
    },
    {
      "midi": 57,
      "hit": false,
      "t": 8804.335499999997,
      "d": 1627.7151125000037,
      "v": 64
    },
    {
      "midi": 62,
      "hit": false,
      "t": 8804.335499999997,
      "d": 1627.7151125000037,
      "v": 71
    },
    {
      "midi": 66,
      "hit": false,
      "t": 8804.335499999997,
      "d": 1627.7151125000037,
      "v": 70
    },
    {
      "midi": 69,
      "hit": false,
      "t": 8804.335499999997,
      "d": 1627.7151125000037,
      "v": 63
    },
    {
      "midi": 50,
      "hit": false,
      "t": 9779.877612499999,
      "d": 323.3691125000005,
      "v": 72
    },
    {
      "midi": 45,
      "hit": false,
      "t": 10105.9641125,
      "d": 323.3691125000005,
      "v": 71
    },
    {
      "midi": 52,
      "hit": false,
      "t": 10434.768000000002,
      "d": 972.8247250000004,
      "v": 69
    },
    {
      "midi": 59,
      "hit": false,
      "t": 10434.768000000002,
      "d": 975.5421125000012,
      "v": 69
    },
    {
      "midi": 64,
      "hit": false,
      "t": 10434.768000000002,
      "d": 975.5421125000012,
      "v": 65
    },
    {
      "midi": 68,
      "hit": false,
      "t": 10434.768000000002,
      "d": 975.5421125000012,
      "v": 65
    },
    {
      "midi": 71,
      "hit": false,
      "t": 10434.768000000002,
      "d": 975.5421125000012,
      "v": 67
    },
    {
      "midi": 50,
      "hit": false,
      "t": 11413.027500000004,
      "d": 646.738225000001,
      "v": 68
    },
    {
      "midi": 57,
      "hit": false,
      "t": 11413.027500000004,
      "d": 975.542112500003,
      "v": 69
    },
    {
      "midi": 62,
      "hit": false,
      "t": 11413.027500000004,
      "d": 975.542112500003,
      "v": 69
    },
    {
      "midi": 69,
      "hit": false,
      "t": 11413.027500000004,
      "d": 975.542112500003,
      "v": 68
    },
    {
      "midi": 45,
      "hit": false,
      "t": 12062.483112500006,
      "d": 323.3691125000005,
      "v": 71
    },
    {
      "midi": 50,
      "hit": false,
      "t": 12388.569612500007,
      "d": 2.7173875000007683,
      "v": 72
    },
    {
      "midi": 59,
      "hit": false,
      "t": 12391.287000000008,
      "d": 649.4556125000017,
      "v": 69
    },
    {
      "midi": 64,
      "hit": false,
      "t": 12391.287000000008,
      "d": 649.4556125000017,
      "v": 64
    },
    {
      "midi": 68,
      "hit": false,
      "t": 12391.287000000008,
      "d": 649.4556125000017,
      "v": 64
    },
    {
      "midi": 52,
      "hit": false,
      "t": 12714.656112500008,
      "d": 323.3691125000005,
      "v": 71
    },
    {
      "midi": 45,
      "hit": false,
      "t": 13043.46000000001,
      "d": 864.1292250000006,
      "v": 63
    },
    {
      "midi": 52,
      "hit": false,
      "t": 13043.46000000001,
      "d": 975.5421125000012,
      "v": 68
    },
    {
      "midi": 57,
      "hit": false,
      "t": 13043.46000000001,
      "d": 975.5421125000012,
      "v": 69
    },
    {
      "midi": 61,
      "hit": false,
      "t": 13043.46000000001,
      "d": 975.5421125000012,
      "v": 65
    },
    {
      "midi": 64,
      "hit": false,
      "t": 13043.46000000001,
      "d": 975.5421125000012,
      "v": 70
    },
    {
      "midi": 69,
      "hit": false,
      "t": 13043.46000000001,
      "d": 975.5421125000012,
      "v": 63
    },
    {
      "midi": 45,
      "hit": false,
      "t": 14019.002112500011,
      "d": 2.7173875000007683,
      "v": 71
    },
    {
      "midi": 52,
      "hit": false,
      "t": 14021.719500000012,
      "d": 1627.7151125000037,
      "v": 63
    },
    {
      "midi": 57,
      "hit": false,
      "t": 14021.719500000012,
      "d": 1627.7151125000037,
      "v": 69
    },
    {
      "midi": 61,
      "hit": false,
      "t": 14021.719500000012,
      "d": 1627.7151125000037,
      "v": 68
    },
    {
      "midi": 64,
      "hit": false,
      "t": 14021.719500000012,
      "d": 1627.7151125000037,
      "v": 64
    },
    {
      "midi": 76,
      "hit": false,
      "t": 14347.806000000011,
      "d": 323.3691125000005,
      "v": 119
    },
    {
      "midi": 74,
      "hit": false,
      "t": 14673.892500000013,
      "d": 323.3691125000005,
      "v": 113
    },
    {
      "midi": 45,
      "hit": false,
      "t": 14997.261612500013,
      "d": 323.3691125000005,
      "v": 72
    },
    {
      "midi": 73,
      "hit": false,
      "t": 14999.979000000014,
      "d": 323.3691125000005,
      "v": 119
    },
    {
      "midi": 47,
      "hit": false,
      "t": 15323.348112500014,
      "d": 323.3691125000005,
      "v": 71
    },
    {
      "midi": 69,
      "hit": false,
      "t": 15326.065500000015,
      "d": 323.3691125000005,
      "v": 113
    },
    {
      "midi": 49,
      "hit": false,
      "t": 15652.152000000016,
      "d": 864.1292250000006,
      "v": 69
    },
    {
      "midi": 56,
      "hit": false,
      "t": 15652.152000000016,
      "d": 975.5421124999993,
      "v": 65
    },
    {
      "midi": 61,
      "hit": false,
      "t": 15652.152000000016,
      "d": 975.5421124999993,
      "v": 64
    },
    {
      "midi": 64,
      "hit": false,
      "t": 15652.152000000016,
      "d": 975.5421124999993,
      "v": 71
    },
    {
      "midi": 68,
      "hit": false,
      "t": 15652.152000000016,
      "d": 975.5421124999993,
      "v": 69
    },
    {
      "midi": 49,
      "hit": false,
      "t": 16630.411500000017,
      "d": 2.7173875000007683,
      "v": 63
    },
    {
      "midi": 56,
      "hit": false,
      "t": 16630.411500000017,
      "d": 1627.7151125000055,
      "v": 69
    },
    {
      "midi": 61,
      "hit": false,
      "t": 16630.411500000017,
      "d": 1627.7151125000055,
      "v": 68
    },
    {
      "midi": 64,
      "hit": false,
      "t": 16630.411500000017,
      "d": 1627.7151125000055,
      "v": 65
    },
    {
      "midi": 68,
      "hit": false,
      "t": 16630.411500000017,
      "d": 1627.7151125000055,
      "v": 69
    },
    {
      "midi": 71,
      "hit": false,
      "t": 16956.498000000018,
      "d": 649.4556125000017,
      "v": 119
    },
    {
      "midi": 49,
      "hit": false,
      "t": 17605.95361250002,
      "d": 323.3691125000005,
      "v": 72
    },
    {
      "midi": 73,
      "hit": false,
      "t": 17608.67100000002,
      "d": 323.3691125000005,
      "v": 119
    },
    {
      "midi": 45,
      "hit": false,
      "t": 17932.04011250002,
      "d": 323.3691125000005,
      "v": 71
    },
    {
      "midi": 50,
      "hit": false,
      "t": 18260.844000000023,
      "d": 864.1292250000006,
      "v": 65
    },
    {
      "midi": 57,
      "hit": false,
      "t": 18260.844000000023,
      "d": 975.5421124999993,
      "v": 65
    },
    {
      "midi": 62,
      "hit": false,
      "t": 18260.844000000023,
      "d": 975.5421124999993,
      "v": 72
    },
    {
      "midi": 66,
      "hit": false,
      "t": 18260.844000000023,
      "d": 975.5421124999993,
      "v": 70
    },
    {
      "midi": 69,
      "hit": false,
      "t": 18260.844000000023,
      "d": 975.5421124999993,
      "v": 68
    },
    {
      "midi": 50,
      "hit": false,
      "t": 19239.103500000023,
      "d": 2.7173875000007683,
      "v": 65
    },
    {
      "midi": 57,
      "hit": false,
      "t": 19239.103500000023,
      "d": 1627.7151125000019,
      "v": 65
    },
    {
      "midi": 62,
      "hit": false,
      "t": 19239.103500000023,
      "d": 1627.7151125000019,
      "v": 71
    },
    {
      "midi": 66,
      "hit": false,
      "t": 19239.103500000023,
      "d": 1627.7151125000019,
      "v": 64
    },
    {
      "midi": 69,
      "hit": false,
      "t": 19239.103500000023,
      "d": 1627.7151125000019,
      "v": 66
    },
    {
      "midi": 50,
      "hit": false,
      "t": 20214.645612500022,
      "d": 323.3691125000005,
      "v": 72
    },
    {
      "midi": 45,
      "hit": false,
      "t": 20540.732112500024,
      "d": 323.3691125000005,
      "v": 71
    },
    {
      "midi": 52,
      "hit": false,
      "t": 20869.536000000026,
      "d": 320.6517249999997,
      "v": 69
    },
    {
      "midi": 59,
      "hit": false,
      "t": 20869.536000000026,
      "d": 323.3691125000005,
      "v": 68
    },
    {
      "midi": 64,
      "hit": false,
      "t": 20869.536000000026,
      "d": 323.3691125000005,
      "v": 71
    },
    {
      "midi": 68,
      "hit": false,
      "t": 20869.536000000026,
      "d": 323.3691125000005,
      "v": 69
    },
    {
      "midi": 52,
      "hit": false,
      "t": 21192.905112500026,
      "d": 2.7173875000007683,
      "v": 71
    },
    {
      "midi": 59,
      "hit": false,
      "t": 21195.622500000027,
      "d": 323.3691125000005,
      "v": 64
    },
    {
      "midi": 64,
      "hit": false,
      "t": 21195.622500000027,
      "d": 323.3691125000005,
      "v": 64
    },
    {
      "midi": 68,
      "hit": false,
      "t": 21195.622500000027,
      "d": 323.3691125000005,
      "v": 69
    },
    {
      "midi": 50,
      "hit": false,
      "t": 21847.79550000003,
      "d": 1624.997725000001,
      "v": 71
    },
    {
      "midi": 57,
      "hit": false,
      "t": 21847.79550000003,
      "d": 1627.7151125000019,
      "v": 67
    },
    {
      "midi": 62,
      "hit": false,
      "t": 21847.79550000003,
      "d": 1627.7151125000019,
      "v": 73
    },
    {
      "midi": 66,
      "hit": false,
      "t": 21847.79550000003,
      "d": 1627.7151125000019,
      "v": 74
    },
    {
      "midi": 69,
      "hit": false,
      "t": 21847.79550000003,
      "d": 1627.7151125000019,
      "v": 74
    },
    {
      "midi": 45,
      "hit": false,
      "t": 23478.228000000032,
      "d": 972.8247249999986,
      "v": 65
    },
    {
      "midi": 52,
      "hit": false,
      "t": 23478.228000000032,
      "d": 2605.974612500002,
      "v": 69
    },
    {
      "midi": 57,
      "hit": false,
      "t": 23478.228000000032,
      "d": 2605.974612500002,
      "v": 68
    },
    {
      "midi": 59,
      "hit": false,
      "t": 23478.228000000032,
      "d": 2605.974612500002,
      "v": 67
    },
    {
      "midi": 64,
      "hit": false,
      "t": 23478.228000000032,
      "d": 2605.974612500002,
      "v": 65
    },
    {
      "midi": 69,
      "hit": false,
      "t": 23478.228000000032,
      "d": 2605.974612500002,
      "v": 65
    },
    {
      "midi": 45,
      "hit": false,
      "t": 24453.77011250003,
      "d": 1627.7151125000019,
      "v": 71
    },
    {
      "midi": 49,
      "hit": false,
      "t": 26086.920000000035,
      "d": 972.8247249999986,
      "v": 68
    },
    {
      "midi": 54,
      "hit": false,
      "t": 26086.920000000035,
      "d": 2605.974612500002,
      "v": 68
    },
    {
      "midi": 61,
      "hit": false,
      "t": 26086.920000000035,
      "d": 2605.974612500002,
      "v": 68
    },
    {
      "midi": 64,
      "hit": false,
      "t": 26086.920000000035,
      "d": 2605.974612500002,
      "v": 65
    },
    {
      "midi": 68,
      "hit": false,
      "t": 26086.920000000035,
      "d": 2605.974612500002,
      "v": 67
    },
    {
      "midi": 49,
      "hit": false,
      "t": 27062.462112500034,
      "d": 1627.7151125000019,
      "v": 71
    },
    {
      "midi": 50,
      "hit": false,
      "t": 28695.612000000037,
      "d": 972.8247249999986,
      "v": 69
    },
    {
      "midi": 57,
      "hit": false,
      "t": 28695.612000000037,
      "d": 2605.974612500002,
      "v": 69
    },
    {
      "midi": 62,
      "hit": false,
      "t": 28695.612000000037,
      "d": 2605.974612500002,
      "v": 64
    },
    {
      "midi": 66,
      "hit": false,
      "t": 28695.612000000037,
      "d": 2605.974612500002,
      "v": 67
    },
    {
      "midi": 50,
      "hit": false,
      "t": 29671.154112500037,
      "d": 1627.7151125000019,
      "v": 71
    },
    {
      "midi": 50,
      "hit": false,
      "t": 31304.30400000004,
      "d": 2.7173875000007683,
      "v": 67
    },
    {
      "midi": 74,
      "hit": false,
      "t": 31304.30400000004,
      "d": 975.5421124999993,
      "v": 119
    },
    {
      "midi": 57,
      "hit": false,
      "t": 31304.30400000004,
      "d": 2605.974612500002,
      "v": 67
    },
    {
      "midi": 62,
      "hit": false,
      "t": 31304.30400000004,
      "d": 2605.974612500002,
      "v": 67
    },
    {
      "midi": 66,
      "hit": false,
      "t": 31304.30400000004,
      "d": 2605.974612500002,
      "v": 62
    },
    {
      "midi": 81,
      "hit": false,
      "t": 31630.390500000038,
      "d": 323.3691125000005,
      "v": 107
    },
    {
      "midi": 83,
      "hit": false,
      "t": 31956.47700000004,
      "d": 323.3691125000005,
      "v": 119
    },
    {
      "midi": 88,
      "hit": false,
      "t": 31956.47700000004,
      "d": 323.3691125000005,
      "v": 119
    },
    {
      "midi": 81,
      "hit": false,
      "t": 32282.56350000004,
      "d": 1953.8016124999995,
      "v": 107
    },
    {
      "midi": 86,
      "hit": false,
      "t": 32282.56350000004,
      "d": 1953.8016124999995,
      "v": 107
    },
    {
      "midi": 52,
      "hit": false,
      "t": 33258.10561250004,
      "d": 646.738225000001,
      "v": 71
    },
    {
      "midi": 45,
      "hit": false,
      "t": 33912.99600000004,
      "d": 972.8247249999986,
      "v": 65
    },
    {
      "midi": 52,
      "hit": false,
      "t": 33912.99600000004,
      "d": 2605.974612500002,
      "v": 69
    },
    {
      "midi": 57,
      "hit": false,
      "t": 33912.99600000004,
      "d": 2605.974612500002,
      "v": 68
    },
    {
      "midi": 61,
      "hit": false,
      "t": 33912.99600000004,
      "d": 2605.974612500002,
      "v": 67
    },
    {
      "midi": 64,
      "hit": false,
      "t": 33912.99600000004,
      "d": 2605.974612500002,
      "v": 69
    },
    {
      "midi": 69,
      "hit": false,
      "t": 33912.99600000004,
      "d": 2605.974612500002,
      "v": 69
    },
    {
      "midi": 45,
      "hit": false,
      "t": 34888.53811250004,
      "d": 1627.7151125000019,
      "v": 71
    },
    {
      "midi": 49,
      "hit": false,
      "t": 36521.688000000046,
      "d": 972.8247249999986,
      "v": 68
    },
    {
      "midi": 56,
      "hit": false,
      "t": 36521.688000000046,
      "d": 2605.974612500002,
      "v": 69
    },
    {
      "midi": 61,
      "hit": false,
      "t": 36521.688000000046,
      "d": 2605.974612500002,
      "v": 68
    },
    {
      "midi": 64,
      "hit": false,
      "t": 36521.688000000046,
      "d": 2605.974612500002,
      "v": 69
    },
    {
      "midi": 68,
      "hit": false,
      "t": 36521.688000000046,
      "d": 2605.974612500002,
      "v": 70
    },
    {
      "midi": 49,
      "hit": false,
      "t": 37497.230112500045,
      "d": 1627.7151125000019,
      "v": 71
    },
    {
      "midi": 50,
      "hit": false,
      "t": 39130.38000000005,
      "d": 972.8247249999986,
      "v": 69
    },
    {
      "midi": 57,
      "hit": false,
      "t": 39130.38000000005,
      "d": 2605.974612500002,
      "v": 68
    },
    {
      "midi": 62,
      "hit": false,
      "t": 39130.38000000005,
      "d": 2605.974612500002,
      "v": 64
    },
    {
      "midi": 66,
      "hit": false,
      "t": 39130.38000000005,
      "d": 2605.974612500002,
      "v": 64
    },
    {
      "midi": 50,
      "hit": false,
      "t": 40105.92211250005,
      "d": 1627.7151125000019,
      "v": 71
    },
    {
      "midi": 50,
      "hit": false,
      "t": 41739.07200000005,
      "d": 2.7173875000007683,
      "v": 67
    },
    {
      "midi": 74,
      "hit": false,
      "t": 41739.07200000005,
      "d": 975.5421124999921,
      "v": 119
    },
    {
      "midi": 57,
      "hit": false,
      "t": 41739.07200000005,
      "d": 2605.9746124999874,
      "v": 63
    },
    {
      "midi": 62,
      "hit": false,
      "t": 41739.07200000005,
      "d": 2605.9746124999874,
      "v": 66
    },
    {
      "midi": 66,
      "hit": false,
      "t": 41739.07200000005,
      "d": 2605.9746124999874,
      "v": 68
    },
    {
      "midi": 81,
      "hit": false,
      "t": 42065.15850000005,
      "d": 323.36911249999685,
      "v": 107
    },
    {
      "midi": 83,
      "hit": false,
      "t": 42391.245000000046,
      "d": 323.36911249999685,
      "v": 119
    },
    {
      "midi": 88,
      "hit": false,
      "t": 42391.245000000046,
      "d": 323.36911249999685,
      "v": 119
    },
    {
      "midi": 50,
      "hit": false,
      "t": 42714.61411250004,
      "d": 649.4556125000017,
      "v": 71
    },
    {
      "midi": 81,
      "hit": false,
      "t": 42717.331500000044,
      "d": 1953.8016124999922,
      "v": 107
    },
    {
      "midi": 86,
      "hit": false,
      "t": 42717.331500000044,
      "d": 1953.8016124999922,
      "v": 107
    },
    {
      "midi": 49,
      "hit": false,
      "t": 43366.787112500046,
      "d": 323.36911249999685,
      "v": 71
    },
    {
      "midi": 47,
      "hit": false,
      "t": 43692.87361250004,
      "d": 323.36911249999685,
      "v": 69
    },
    {
      "midi": 44,
      "hit": false,
      "t": 44018.96011250004,
      "d": 323.36911249999685,
      "v": 70
    },
    {
      "midi": 40,
      "hit": false,
      "t": 44345.04661250004,
      "d": 2605.9746124999947,
      "v": 72
    },
    {
      "midi": 47,
      "hit": false,
      "t": 44347.76400000004,
      "d": 2605.9746124999947,
      "v": 62
    },
    {
      "midi": 52,
      "hit": false,
      "t": 44347.76400000004,
      "d": 2605.9746124999947,
      "v": 69
    },
    {
      "midi": 59,
      "hit": false,
      "t": 44347.76400000004,
      "d": 2605.9746124999947,
      "v": 65
    },
    {
      "midi": 64,
      "hit": false,
      "t": 44347.76400000004,
      "d": 2605.9746124999947,
      "v": 64
    },
    {
      "midi": 68,
      "hit": false,
      "t": 44347.76400000004,
      "d": 2605.9746124999947,
      "v": 69
    },
    {
      "midi": 71,
      "hit": false,
      "t": 44347.76400000004,
      "d": 2605.9746124999947,
      "v": 69
    },
    {
      "midi": 40,
      "hit": false,
      "t": 46953.738612500034,
      "d": 2605.9746124999947,
      "v": 72
    },
    {
      "midi": 52,
      "hit": false,
      "t": 46956.456000000035,
      "d": 2605.9746124999947,
      "v": 69
    },
    {
      "midi": 59,
      "hit": false,
      "t": 46956.456000000035,
      "d": 2605.9746124999947,
      "v": 68
    },
    {
      "midi": 64,
      "hit": false,
      "t": 46956.456000000035,
      "d": 2605.9746124999947,
      "v": 67
    },
    {
      "midi": 68,
      "hit": false,
      "t": 46956.456000000035,
      "d": 2605.9746124999947,
      "v": 62
    },
    {
      "midi": 49,
      "hit": false,
      "t": 49236.34411250003,
      "d": 323.36911249999685,
      "v": 71
    },
    {
      "midi": 50,
      "hit": false,
      "t": 49565.14800000003,
      "d": 2603.257225000001,
      "v": 69
    },
    {
      "midi": 57,
      "hit": false,
      "t": 49565.14800000003,
      "d": 2605.974612500002,
      "v": 69
    },
    {
      "midi": 62,
      "hit": false,
      "t": 49565.14800000003,
      "d": 2605.974612500002,
      "v": 69
    },
    {
      "midi": 66,
      "hit": false,
      "t": 49565.14800000003,
      "d": 2605.974612500002,
      "v": 69
    },
    {
      "midi": 69,
      "hit": false,
      "t": 49565.14800000003,
      "d": 2605.974612500002,
      "v": 65
    },
    {
      "midi": 52,
      "hit": false,
      "t": 52499.92650000003,
      "d": 320.65172500000335,
      "v": 65
    },
    {
      "midi": 59,
      "hit": false,
      "t": 52499.92650000003,
      "d": 323.3691125000041,
      "v": 69
    },
    {
      "midi": 64,
      "hit": false,
      "t": 52499.92650000003,
      "d": 323.3691125000041,
      "v": 65
    },
    {
      "midi": 68,
      "hit": false,
      "t": 52499.92650000003,
      "d": 323.3691125000041,
      "v": 70
    },
    {
      "midi": 52,
      "hit": false,
      "t": 52823.295612500035,
      "d": 2.7173875000007683,
      "v": 72
    },
    {
      "midi": 59,
      "hit": false,
      "t": 52826.013000000035,
      "d": 323.36911249999685,
      "v": 68
    },
    {
      "midi": 64,
      "hit": false,
      "t": 52826.013000000035,
      "d": 323.36911249999685,
      "v": 67
    },
    {
      "midi": 68,
      "hit": false,
      "t": 52826.013000000035,
      "d": 323.36911249999685,
      "v": 63
    },
    {
      "midi": 52,
      "hit": false,
      "t": 53152.09950000003,
      "d": 320.65172500000335,
      "v": 67
    },
    {
      "midi": 59,
      "hit": false,
      "t": 53152.09950000003,
      "d": 323.3691125000041,
      "v": 65
    },
    {
      "midi": 64,
      "hit": false,
      "t": 53152.09950000003,
      "d": 323.3691125000041,
      "v": 64
    },
    {
      "midi": 68,
      "hit": false,
      "t": 53152.09950000003,
      "d": 323.3691125000041,
      "v": 64
    },
    {
      "midi": 52,
      "hit": false,
      "t": 53478.18600000004,
      "d": 2.7173875000007683,
      "v": 66
    },
    {
      "midi": 59,
      "hit": false,
      "t": 53478.18600000004,
      "d": 323.3691125000041,
      "v": 65
    },
    {
      "midi": 64,
      "hit": false,
      "t": 53478.18600000004,
      "d": 323.3691125000041,
      "v": 66
    },
    {
      "midi": 68,
      "hit": false,
      "t": 53478.18600000004,
      "d": 323.3691125000041,
      "v": 71
    },
    {
      "midi": 45,
      "hit": false,
      "t": 54782.53200000004,
      "d": 972.8247249999986,
      "v": 67
    },
    {
      "midi": 52,
      "hit": false,
      "t": 54782.53200000004,
      "d": 975.5421124999993,
      "v": 70
    },
    {
      "midi": 57,
      "hit": false,
      "t": 54782.53200000004,
      "d": 975.5421124999993,
      "v": 69
    },
    {
      "midi": 61,
      "hit": false,
      "t": 54782.53200000004,
      "d": 975.5421124999993,
      "v": 68
    },
    {
      "midi": 64,
      "hit": false,
      "t": 54782.53200000004,
      "d": 975.5421124999993,
      "v": 65
    },
    {
      "midi": 69,
      "hit": false,
      "t": 54782.53200000004,
      "d": 975.5421124999993,
      "v": 66
    },
    {
      "midi": 45,
      "hit": false,
      "t": 55758.07411250004,
      "d": 2.7173875000007683,
      "v": 71
    },
    {
      "midi": 57,
      "hit": false,
      "t": 55760.79150000004,
      "d": 1627.7151124999946,
      "v": 66
    },
    {
      "midi": 61,
      "hit": false,
      "t": 55760.79150000004,
      "d": 1627.7151124999946,
      "v": 63
    },
    {
      "midi": 64,
      "hit": false,
      "t": 55760.79150000004,
      "d": 1627.7151124999946,
      "v": 64
    },
    {
      "midi": 69,
      "hit": false,
      "t": 55760.79150000004,
      "d": 1627.7151124999946,
      "v": 64
    },
    {
      "midi": 45,
      "hit": false,
      "t": 56736.33361250004,
      "d": 323.36911249999685,
      "v": 72
    },
    {
      "midi": 47,
      "hit": false,
      "t": 57062.42011250004,
      "d": 323.36911249999685,
      "v": 71
    },
    {
      "midi": 49,
      "hit": false,
      "t": 57391.22400000004,
      "d": 972.8247249999986,
      "v": 66
    },
    {
      "midi": 56,
      "hit": false,
      "t": 57391.22400000004,
      "d": 975.5421124999993,
      "v": 68
    },
    {
      "midi": 61,
      "hit": false,
      "t": 57391.22400000004,
      "d": 975.5421124999993,
      "v": 69
    },
    {
      "midi": 64,
      "hit": false,
      "t": 57391.22400000004,
      "d": 975.5421124999993,
      "v": 68
    },
    {
      "midi": 68,
      "hit": false,
      "t": 57391.22400000004,
      "d": 975.5421124999993,
      "v": 65
    },
    {
      "midi": 49,
      "hit": false,
      "t": 58366.76611250004,
      "d": 2.7173875000007683,
      "v": 71
    },
    {
      "midi": 56,
      "hit": false,
      "t": 58369.48350000004,
      "d": 1627.7151124999946,
      "v": 61
    },
    {
      "midi": 61,
      "hit": false,
      "t": 58369.48350000004,
      "d": 1627.7151124999946,
      "v": 63
    },
    {
      "midi": 64,
      "hit": false,
      "t": 58369.48350000004,
      "d": 1627.7151124999946,
      "v": 69
    },
    {
      "midi": 68,
      "hit": false,
      "t": 58369.48350000004,
      "d": 1627.7151124999946,
      "v": 64
    },
    {
      "midi": 49,
      "hit": false,
      "t": 59345.02561250004,
      "d": 323.36911249999685,
      "v": 72
    },
    {
      "midi": 45,
      "hit": false,
      "t": 59671.112112500035,
      "d": 323.36911249999685,
      "v": 71
    },
    {
      "midi": 50,
      "hit": false,
      "t": 59999.916000000034,
      "d": 972.8247249999986,
      "v": 64
    },
    {
      "midi": 57,
      "hit": false,
      "t": 59999.916000000034,
      "d": 975.5421124999993,
      "v": 66
    },
    {
      "midi": 62,
      "hit": false,
      "t": 59999.916000000034,
      "d": 975.5421124999993,
      "v": 69
    },
    {
      "midi": 66,
      "hit": false,
      "t": 59999.916000000034,
      "d": 975.5421124999993,
      "v": 68
    },
    {
      "midi": 69,
      "hit": false,
      "t": 59999.916000000034,
      "d": 975.5421124999993,
      "v": 68
    },
    {
      "midi": 50,
      "hit": false,
      "t": 60978.175500000034,
      "d": 2.7173875000007683,
      "v": 66
    },
    {
      "midi": 57,
      "hit": false,
      "t": 60978.175500000034,
      "d": 1627.7151124999946,
      "v": 63
    },
    {
      "midi": 62,
      "hit": false,
      "t": 60978.175500000034,
      "d": 1627.7151124999946,
      "v": 66
    },
    {
      "midi": 66,
      "hit": false,
      "t": 60978.175500000034,
      "d": 1627.7151124999946,
      "v": 67
    },
    {
      "midi": 69,
      "hit": false,
      "t": 60978.175500000034,
      "d": 1627.7151124999946,
      "v": 63
    },
    {
      "midi": 50,
      "hit": false,
      "t": 61953.71761250003,
      "d": 323.36911249999685,
      "v": 72
    },
    {
      "midi": 45,
      "hit": false,
      "t": 62279.80411250003,
      "d": 323.36911249999685,
      "v": 71
    },
    {
      "midi": 52,
      "hit": false,
      "t": 62608.60800000003,
      "d": 320.65172500000335,
      "v": 64
    },
    {
      "midi": 59,
      "hit": false,
      "t": 62608.60800000003,
      "d": 975.5421125000066,
      "v": 68
    },
    {
      "midi": 64,
      "hit": false,
      "t": 62608.60800000003,
      "d": 975.5421125000066,
      "v": 67
    },
    {
      "midi": 68,
      "hit": false,
      "t": 62608.60800000003,
      "d": 975.5421125000066,
      "v": 67
    },
    {
      "midi": 40,
      "hit": false,
      "t": 62931.97711250003,
      "d": 975.5421125000066,
      "v": 71
    },
    {
      "midi": 52,
      "hit": false,
      "t": 63584.150112500036,
      "d": 2.7173875000007683,
      "v": 71
    },
    {
      "midi": 59,
      "hit": false,
      "t": 63586.86750000004,
      "d": 1627.7151125000019,
      "v": 65
    },
    {
      "midi": 64,
      "hit": false,
      "t": 63586.86750000004,
      "d": 1627.7151125000019,
      "v": 65
    },
    {
      "midi": 68,
      "hit": false,
      "t": 63586.86750000004,
      "d": 1627.7151125000019,
      "v": 66
    },
    {
      "midi": 40,
      "hit": false,
      "t": 64236.32311250004,
      "d": 323.36911249999685,
      "v": 71
    },
    {
      "midi": 52,
      "hit": false,
      "t": 64562.409612500036,
      "d": 649.4556125000017,
      "v": 72
    },
    {
      "midi": 45,
      "hit": false,
      "t": 65217.30000000004,
      "d": 972.8247250000059,
      "v": 66
    },
    {
      "midi": 52,
      "hit": false,
      "t": 65217.30000000004,
      "d": 975.5421125000066,
      "v": 70
    },
    {
      "midi": 57,
      "hit": false,
      "t": 65217.30000000004,
      "d": 975.5421125000066,
      "v": 65
    },
    {
      "midi": 61,
      "hit": false,
      "t": 65217.30000000004,
      "d": 975.5421125000066,
      "v": 69
    },
    {
      "midi": 64,
      "hit": false,
      "t": 65217.30000000004,
      "d": 975.5421125000066,
      "v": 65
    },
    {
      "midi": 69,
      "hit": false,
      "t": 65217.30000000004,
      "d": 975.5421125000066,
      "v": 69
    },
    {
      "midi": 45,
      "hit": false,
      "t": 66192.84211250005,
      "d": 2.7173875000007683,
      "v": 71
    },
    {
      "midi": 57,
      "hit": false,
      "t": 66195.55950000005,
      "d": 1627.7151125000091,
      "v": 65
    },
    {
      "midi": 61,
      "hit": false,
      "t": 66195.55950000005,
      "d": 1627.7151125000091,
      "v": 69
    },
    {
      "midi": 64,
      "hit": false,
      "t": 66195.55950000005,
      "d": 1627.7151125000091,
      "v": 66
    },
    {
      "midi": 69,
      "hit": false,
      "t": 66195.55950000005,
      "d": 1627.7151125000091,
      "v": 68
    },
    {
      "midi": 45,
      "hit": false,
      "t": 67171.10161250005,
      "d": 323.3691125000041,
      "v": 72
    },
    {
      "midi": 47,
      "hit": false,
      "t": 67497.18811250005,
      "d": 323.3691125000041,
      "v": 71
    },
    {
      "midi": 49,
      "hit": false,
      "t": 67825.99200000006,
      "d": 972.8247249999986,
      "v": 62
    },
    {
      "midi": 56,
      "hit": false,
      "t": 67825.99200000006,
      "d": 975.5421124999993,
      "v": 67
    },
    {
      "midi": 61,
      "hit": false,
      "t": 67825.99200000006,
      "d": 975.5421124999993,
      "v": 67
    },
    {
      "midi": 64,
      "hit": false,
      "t": 67825.99200000006,
      "d": 975.5421124999993,
      "v": 69
    },
    {
      "midi": 68,
      "hit": false,
      "t": 67825.99200000006,
      "d": 975.5421124999993,
      "v": 69
    },
    {
      "midi": 49,
      "hit": false,
      "t": 68801.53411250006,
      "d": 2.7173875000007683,
      "v": 71
    },
    {
      "midi": 56,
      "hit": false,
      "t": 68804.25150000006,
      "d": 1627.7151125000091,
      "v": 61
    },
    {
      "midi": 61,
      "hit": false,
      "t": 68804.25150000006,
      "d": 1627.7151125000091,
      "v": 64
    },
    {
      "midi": 64,
      "hit": false,
      "t": 68804.25150000006,
      "d": 1627.7151125000091,
      "v": 63
    },
    {
      "midi": 68,
      "hit": false,
      "t": 68804.25150000006,
      "d": 1627.7151125000091,
      "v": 68
    },
    {
      "midi": 49,
      "hit": false,
      "t": 69779.79361250006,
      "d": 323.3691125000041,
      "v": 72
    },
    {
      "midi": 45,
      "hit": false,
      "t": 70105.88011250006,
      "d": 323.3691125000041,
      "v": 71
    },
    {
      "midi": 50,
      "hit": false,
      "t": 70434.68400000007,
      "d": 972.8247249999986,
      "v": 69
    },
    {
      "midi": 57,
      "hit": false,
      "t": 70434.68400000007,
      "d": 975.5421124999993,
      "v": 65
    },
    {
      "midi": 62,
      "hit": false,
      "t": 70434.68400000007,
      "d": 975.5421124999993,
      "v": 67
    },
    {
      "midi": 66,
      "hit": false,
      "t": 70434.68400000007,
      "d": 975.5421124999993,
      "v": 64
    },
    {
      "midi": 50,
      "hit": false,
      "t": 71412.94350000007,
      "d": 2.7173875000007683,
      "v": 67
    },
    {
      "midi": 57,
      "hit": false,
      "t": 71412.94350000007,
      "d": 1627.7151125000091,
      "v": 65
    },
    {
      "midi": 62,
      "hit": false,
      "t": 71412.94350000007,
      "d": 1627.7151125000091,
      "v": 62
    },
    {
      "midi": 66,
      "hit": false,
      "t": 71412.94350000007,
      "d": 1627.7151125000091,
      "v": 66
    },
    {
      "midi": 69,
      "hit": false,
      "t": 71412.94350000007,
      "d": 1627.7151125000091,
      "v": 64
    },
    {
      "midi": 50,
      "hit": false,
      "t": 72388.48561250007,
      "d": 323.3691125000041,
      "v": 72
    },
    {
      "midi": 45,
      "hit": false,
      "t": 72714.57211250007,
      "d": 323.3691125000041,
      "v": 71
    },
    {
      "midi": 51,
      "hit": false,
      "t": 73043.37600000008,
      "d": 972.8247249999986,
      "v": 67
    },
    {
      "midi": 54,
      "hit": false,
      "t": 73043.37600000008,
      "d": 975.5421124999993,
      "v": 64
    },
    {
      "midi": 59,
      "hit": false,
      "t": 73043.37600000008,
      "d": 975.5421124999993,
      "v": 63
    },
    {
      "midi": 63,
      "hit": false,
      "t": 73043.37600000008,
      "d": 975.5421124999993,
      "v": 65
    },
    {
      "midi": 66,
      "hit": false,
      "t": 73043.37600000008,
      "d": 975.5421124999993,
      "v": 67
    },
    {
      "midi": 71,
      "hit": false,
      "t": 73043.37600000008,
      "d": 975.5421124999993,
      "v": 67
    },
    {
      "midi": 47,
      "hit": false,
      "t": 74018.91811250008,
      "d": 2.7173875000007683,
      "v": 71
    },
    {
      "midi": 59,
      "hit": false,
      "t": 74021.63550000008,
      "d": 1627.7151125000091,
      "v": 64
    },
    {
      "midi": 63,
      "hit": false,
      "t": 74021.63550000008,
      "d": 1627.7151125000091,
      "v": 64
    },
    {
      "midi": 66,
      "hit": false,
      "t": 74021.63550000008,
      "d": 1627.7151125000091,
      "v": 65
    },
    {
      "midi": 71,
      "hit": false,
      "t": 74021.63550000008,
      "d": 1627.7151125000091,
      "v": 66
    },
    {
      "midi": 47,
      "hit": false,
      "t": 74997.17761250008,
      "d": 323.3691125000041,
      "v": 72
    },
    {
      "midi": 49,
      "hit": false,
      "t": 75323.26411250008,
      "d": 323.3691125000041,
      "v": 71
    },
    {
      "midi": 50,
      "hit": false,
      "t": 75652.06800000009,
      "d": 972.8247249999986,
      "v": 70
    },
    {
      "midi": 57,
      "hit": false,
      "t": 75652.06800000009,
      "d": 975.5421124999993,
      "v": 65
    },
    {
      "midi": 62,
      "hit": false,
      "t": 75652.06800000009,
      "d": 975.5421124999993,
      "v": 65
    },
    {
      "midi": 66,
      "hit": false,
      "t": 75652.06800000009,
      "d": 975.5421124999993,
      "v": 69
    },
    {
      "midi": 50,
      "hit": false,
      "t": 76630.32750000009,
      "d": 2.7173875000007683,
      "v": 68
    },
    {
      "midi": 57,
      "hit": false,
      "t": 76630.32750000009,
      "d": 975.5421125000139,
      "v": 64
    },
    {
      "midi": 62,
      "hit": false,
      "t": 76630.32750000009,
      "d": 975.5421125000139,
      "v": 62
    },
    {
      "midi": 66,
      "hit": false,
      "t": 76630.32750000009,
      "d": 975.5421125000139,
      "v": 63
    },
    {
      "midi": 50,
      "hit": false,
      "t": 76953.69661250009,
      "d": 323.3691125000041,
      "v": 72
    },
    {
      "midi": 49,
      "hit": false,
      "t": 77279.7831125001,
      "d": 323.3691125000041,
      "v": 71
    },
    {
      "midi": 47,
      "hit": false,
      "t": 77605.8696125001,
      "d": 323.3691125000041,
      "v": 72
    },
    {
      "midi": 50,
      "hit": false,
      "t": 77608.5870000001,
      "d": 323.3691125000041,
      "v": 71
    },
    {
      "midi": 57,
      "hit": false,
      "t": 77608.5870000001,
      "d": 323.3691125000041,
      "v": 69
    },
    {
      "midi": 62,
      "hit": false,
      "t": 77608.5870000001,
      "d": 323.3691125000041,
      "v": 70
    },
    {
      "midi": 66,
      "hit": false,
      "t": 77608.5870000001,
      "d": 323.3691125000041,
      "v": 65
    },
    {
      "midi": 45,
      "hit": false,
      "t": 77931.9561125001,
      "d": 323.3691125000041,
      "v": 71
    },
    {
      "midi": 40,
      "hit": false,
      "t": 78258.04261250011,
      "d": 2605.9746125000092,
      "v": 72
    },
    {
      "midi": 47,
      "hit": false,
      "t": 78260.76000000011,
      "d": 323.3691125000041,
      "v": 64
    },
    {
      "midi": 59,
      "hit": false,
      "t": 78260.76000000011,
      "d": 323.3691125000041,
      "v": 67
    },
    {
      "midi": 52,
      "hit": false,
      "t": 78260.76000000011,
      "d": 2605.9746125000092,
      "v": 71
    },
    {
      "midi": 64,
      "hit": false,
      "t": 78260.76000000011,
      "d": 2605.9746125000092,
      "v": 69
    },
    {
      "midi": 68,
      "hit": false,
      "t": 78260.76000000011,
      "d": 2605.9746125000092,
      "v": 64
    },
    {
      "midi": 45,
      "hit": false,
      "t": 80869.45200000012,
      "d": 972.8247249999986,
      "v": 63
    },
    {
      "midi": 52,
      "hit": false,
      "t": 80869.45200000012,
      "d": 975.5421124999993,
      "v": 68
    },
    {
      "midi": 57,
      "hit": false,
      "t": 80869.45200000012,
      "d": 975.5421124999993,
      "v": 69
    },
    {
      "midi": 61,
      "hit": false,
      "t": 80869.45200000012,
      "d": 975.5421124999993,
      "v": 65
    },
    {
      "midi": 64,
      "hit": false,
      "t": 80869.45200000012,
      "d": 975.5421124999993,
      "v": 70
    },
    {
      "midi": 69,
      "hit": false,
      "t": 80869.45200000012,
      "d": 975.5421124999993,
      "v": 63
    },
    {
      "midi": 45,
      "hit": false,
      "t": 81844.99411250012,
      "d": 2.7173875000007683,
      "v": 71
    },
    {
      "midi": 52,
      "hit": false,
      "t": 81847.71150000012,
      "d": 1627.7151125000237,
      "v": 63
    },
    {
      "midi": 57,
      "hit": false,
      "t": 81847.71150000012,
      "d": 1627.7151125000237,
      "v": 69
    },
    {
      "midi": 61,
      "hit": false,
      "t": 81847.71150000012,
      "d": 1627.7151125000237,
      "v": 68
    },
    {
      "midi": 64,
      "hit": false,
      "t": 81847.71150000012,
      "d": 1627.7151125000237,
      "v": 64
    },
    {
      "midi": 76,
      "hit": false,
      "t": 82173.79800000013,
      "d": 323.3691125000041,
      "v": 119
    },
    {
      "midi": 74,
      "hit": false,
      "t": 82499.88450000013,
      "d": 323.3691125000041,
      "v": 113
    },
    {
      "midi": 45,
      "hit": false,
      "t": 82823.25361250014,
      "d": 323.3691125000041,
      "v": 72
    },
    {
      "midi": 73,
      "hit": false,
      "t": 82825.97100000014,
      "d": 323.3691125000041,
      "v": 119
    },
    {
      "midi": 47,
      "hit": false,
      "t": 83149.34011250014,
      "d": 323.3691125000041,
      "v": 71
    },
    {
      "midi": 69,
      "hit": false,
      "t": 83152.05750000014,
      "d": 323.3691125000041,
      "v": 113
    },
    {
      "midi": 49,
      "hit": false,
      "t": 83478.14400000015,
      "d": 972.8247249999986,
      "v": 69
    },
    {
      "midi": 56,
      "hit": false,
      "t": 83478.14400000015,
      "d": 975.5421124999993,
      "v": 65
    },
    {
      "midi": 61,
      "hit": false,
      "t": 83478.14400000015,
      "d": 975.5421124999993,
      "v": 64
    },
    {
      "midi": 64,
      "hit": false,
      "t": 83478.14400000015,
      "d": 975.5421124999993,
      "v": 71
    },
    {
      "midi": 68,
      "hit": false,
      "t": 83478.14400000015,
      "d": 975.5421124999993,
      "v": 69
    },
    {
      "midi": 49,
      "hit": false,
      "t": 84456.40350000015,
      "d": 2.7173875000007683,
      "v": 63
    },
    {
      "midi": 56,
      "hit": false,
      "t": 84456.40350000015,
      "d": 1627.7151125000091,
      "v": 69
    },
    {
      "midi": 61,
      "hit": false,
      "t": 84456.40350000015,
      "d": 1627.7151125000091,
      "v": 68
    },
    {
      "midi": 64,
      "hit": false,
      "t": 84456.40350000015,
      "d": 1627.7151125000091,
      "v": 65
    },
    {
      "midi": 68,
      "hit": false,
      "t": 84456.40350000015,
      "d": 1627.7151125000091,
      "v": 69
    },
    {
      "midi": 71,
      "hit": false,
      "t": 84782.49000000015,
      "d": 649.4556124999945,
      "v": 119
    },
    {
      "midi": 49,
      "hit": false,
      "t": 85431.94561250015,
      "d": 323.3691125000041,
      "v": 72
    },
    {
      "midi": 73,
      "hit": false,
      "t": 85434.66300000015,
      "d": 323.3691125000041,
      "v": 119
    },
    {
      "midi": 45,
      "hit": false,
      "t": 85758.03211250015,
      "d": 323.3691125000041,
      "v": 71
    },
    {
      "midi": 50,
      "hit": false,
      "t": 86086.83600000016,
      "d": 864.129224999997,
      "v": 65
    },
    {
      "midi": 57,
      "hit": false,
      "t": 86086.83600000016,
      "d": 975.5421124999993,
      "v": 65
    },
    {
      "midi": 62,
      "hit": false,
      "t": 86086.83600000016,
      "d": 975.5421124999993,
      "v": 72
    },
    {
      "midi": 66,
      "hit": false,
      "t": 86086.83600000016,
      "d": 975.5421124999993,
      "v": 70
    },
    {
      "midi": 69,
      "hit": false,
      "t": 86086.83600000016,
      "d": 975.5421124999993,
      "v": 68
    },
    {
      "midi": 50,
      "hit": false,
      "t": 87065.09550000016,
      "d": 2.7173875000007683,
      "v": 65
    },
    {
      "midi": 57,
      "hit": false,
      "t": 87065.09550000016,
      "d": 1627.7151125000091,
      "v": 65
    },
    {
      "midi": 62,
      "hit": false,
      "t": 87065.09550000016,
      "d": 1627.7151125000091,
      "v": 71
    },
    {
      "midi": 66,
      "hit": false,
      "t": 87065.09550000016,
      "d": 1627.7151125000091,
      "v": 64
    },
    {
      "midi": 69,
      "hit": false,
      "t": 87065.09550000016,
      "d": 1627.7151125000091,
      "v": 66
    },
    {
      "midi": 50,
      "hit": false,
      "t": 88040.63761250016,
      "d": 323.3691125000041,
      "v": 72
    },
    {
      "midi": 45,
      "hit": false,
      "t": 88366.72411250016,
      "d": 323.3691125000041,
      "v": 71
    },
    {
      "midi": 52,
      "hit": false,
      "t": 88692.81061250017,
      "d": 323.3691125000041,
      "v": 72
    },
    {
      "midi": 74,
      "hit": false,
      "t": 88695.52800000017,
      "d": 975.5421125000139,
      "v": 119
    },
    {
      "midi": 52,
      "hit": false,
      "t": 89018.89711250017,
      "d": 323.3691125000041,
      "v": 71
    },
    {
      "midi": 81,
      "hit": false,
      "t": 89021.61450000017,
      "d": 323.3691125000041,
      "v": 107
    },
    {
      "midi": 83,
      "hit": false,
      "t": 89347.70100000018,
      "d": 323.3691125000041,
      "v": 119
    },
    {
      "midi": 88,
      "hit": false,
      "t": 89347.70100000018,
      "d": 323.3691125000041,
      "v": 119
    },
    {
      "midi": 50,
      "hit": false,
      "t": 89673.78750000018,
      "d": 972.8247249999986,
      "v": 50
    },
    {
      "midi": 57,
      "hit": false,
      "t": 89673.78750000018,
      "d": 1627.7151124999946,
      "v": 50
    },
    {
      "midi": 62,
      "hit": false,
      "t": 89673.78750000018,
      "d": 1627.7151124999946,
      "v": 50
    },
    {
      "midi": 66,
      "hit": false,
      "t": 89673.78750000018,
      "d": 1627.7151124999946,
      "v": 50
    },
    {
      "midi": 69,
      "hit": false,
      "t": 89673.78750000018,
      "d": 1627.7151124999946,
      "v": 50
    },
    {
      "midi": 81,
      "hit": false,
      "t": 89673.78750000018,
      "d": 1953.8016124999995,
      "v": 107
    },
    {
      "midi": 86,
      "hit": false,
      "t": 89673.78750000018,
      "d": 1953.8016124999995,
      "v": 107
    },
    {
      "midi": 52,
      "hit": false,
      "t": 90649.32961250018,
      "d": 649.4556124999945,
      "v": 72
    },
    {
      "midi": 45,
      "hit": false,
      "t": 91304.22000000018,
      "d": 972.8247249999986,
      "v": 65
    },
    {
      "midi": 52,
      "hit": false,
      "t": 91304.22000000018,
      "d": 2605.9746124999947,
      "v": 69
    },
    {
      "midi": 57,
      "hit": false,
      "t": 91304.22000000018,
      "d": 2605.9746124999947,
      "v": 68
    },
    {
      "midi": 59,
      "hit": false,
      "t": 91304.22000000018,
      "d": 2605.9746124999947,
      "v": 67
    },
    {
      "midi": 64,
      "hit": false,
      "t": 91304.22000000018,
      "d": 2605.9746124999947,
      "v": 65
    },
    {
      "midi": 69,
      "hit": false,
      "t": 91304.22000000018,
      "d": 2605.9746124999947,
      "v": 65
    },
    {
      "midi": 45,
      "hit": false,
      "t": 92279.76211250018,
      "d": 1627.7151124999946,
      "v": 71
    },
    {
      "midi": 49,
      "hit": false,
      "t": 93912.91200000017,
      "d": 972.8247249999986,
      "v": 68
    },
    {
      "midi": 56,
      "hit": false,
      "t": 93912.91200000017,
      "d": 2605.9746124999947,
      "v": 68
    },
    {
      "midi": 59,
      "hit": false,
      "t": 93912.91200000017,
      "d": 2605.9746124999947,
      "v": 68
    },
    {
      "midi": 64,
      "hit": false,
      "t": 93912.91200000017,
      "d": 2605.9746124999947,
      "v": 65
    },
    {
      "midi": 68,
      "hit": false,
      "t": 93912.91200000017,
      "d": 2605.9746124999947,
      "v": 67
    },
    {
      "midi": 49,
      "hit": false,
      "t": 94888.45411250017,
      "d": 1627.7151124999946,
      "v": 71
    },
    {
      "midi": 50,
      "hit": false,
      "t": 96521.60400000017,
      "d": 972.8247249999986,
      "v": 69
    },
    {
      "midi": 57,
      "hit": false,
      "t": 96521.60400000017,
      "d": 2605.9746124999947,
      "v": 69
    },
    {
      "midi": 62,
      "hit": false,
      "t": 96521.60400000017,
      "d": 2605.9746124999947,
      "v": 64
    },
    {
      "midi": 66,
      "hit": false,
      "t": 96521.60400000017,
      "d": 2605.9746124999947,
      "v": 67
    },
    {
      "midi": 50,
      "hit": false,
      "t": 97497.14611250017,
      "d": 1627.7151124999946,
      "v": 71
    },
    {
      "midi": 50,
      "hit": false,
      "t": 99130.29600000016,
      "d": 2.7173875000007683,
      "v": 67
    },
    {
      "midi": 74,
      "hit": false,
      "t": 99130.29600000016,
      "d": 975.5421125000139,
      "v": 119
    },
    {
      "midi": 57,
      "hit": false,
      "t": 99130.29600000016,
      "d": 2605.9746125000092,
      "v": 67
    },
    {
      "midi": 62,
      "hit": false,
      "t": 99130.29600000016,
      "d": 2605.9746125000092,
      "v": 67
    },
    {
      "midi": 66,
      "hit": false,
      "t": 99130.29600000016,
      "d": 2605.9746125000092,
      "v": 62
    },
    {
      "midi": 81,
      "hit": false,
      "t": 99456.38250000017,
      "d": 323.3691125000041,
      "v": 107
    },
    {
      "midi": 83,
      "hit": false,
      "t": 99782.46900000017,
      "d": 323.3691125000041,
      "v": 119
    },
    {
      "midi": 88,
      "hit": false,
      "t": 99782.46900000017,
      "d": 323.3691125000041,
      "v": 119
    },
    {
      "midi": 50,
      "hit": false,
      "t": 100105.83811250018,
      "d": 649.4556124999945,
      "v": 71
    },
    {
      "midi": 81,
      "hit": false,
      "t": 100108.55550000018,
      "d": 1953.8016124999995,
      "v": 107
    },
    {
      "midi": 86,
      "hit": false,
      "t": 100108.55550000018,
      "d": 1953.8016124999995,
      "v": 107
    },
    {
      "midi": 45,
      "hit": false,
      "t": 100758.01111250017,
      "d": 323.3691125000041,
      "v": 71
    },
    {
      "midi": 50,
      "hit": false,
      "t": 101084.09761250018,
      "d": 649.4556124999945,
      "v": 72
    },
    {
      "midi": 45,
      "hit": false,
      "t": 101738.98800000017,
      "d": 972.8247249999986,
      "v": 65
    },
    {
      "midi": 52,
      "hit": false,
      "t": 101738.98800000017,
      "d": 2605.9746124999947,
      "v": 69
    },
    {
      "midi": 57,
      "hit": false,
      "t": 101738.98800000017,
      "d": 2605.9746124999947,
      "v": 68
    },
    {
      "midi": 59,
      "hit": false,
      "t": 101738.98800000017,
      "d": 2605.9746124999947,
      "v": 67
    },
    {
      "midi": 64,
      "hit": false,
      "t": 101738.98800000017,
      "d": 2605.9746124999947,
      "v": 69
    },
    {
      "midi": 69,
      "hit": false,
      "t": 101738.98800000017,
      "d": 2605.9746124999947,
      "v": 69
    },
    {
      "midi": 45,
      "hit": false,
      "t": 102714.53011250017,
      "d": 1627.7151124999946,
      "v": 71
    },
    {
      "midi": 49,
      "hit": false,
      "t": 104347.68000000017,
      "d": 972.8247249999986,
      "v": 68
    },
    {
      "midi": 56,
      "hit": false,
      "t": 104347.68000000017,
      "d": 2605.9746124999947,
      "v": 69
    },
    {
      "midi": 61,
      "hit": false,
      "t": 104347.68000000017,
      "d": 2605.9746124999947,
      "v": 68
    },
    {
      "midi": 64,
      "hit": false,
      "t": 104347.68000000017,
      "d": 2605.9746124999947,
      "v": 69
    },
    {
      "midi": 68,
      "hit": false,
      "t": 104347.68000000017,
      "d": 2605.9746124999947,
      "v": 70
    },
    {
      "midi": 49,
      "hit": false,
      "t": 105323.22211250017,
      "d": 1627.7151124999946,
      "v": 71
    },
    {
      "midi": 50,
      "hit": false,
      "t": 106956.37200000016,
      "d": 972.8247249999986,
      "v": 69
    },
    {
      "midi": 57,
      "hit": false,
      "t": 106956.37200000016,
      "d": 2605.9746124999947,
      "v": 68
    },
    {
      "midi": 62,
      "hit": false,
      "t": 106956.37200000016,
      "d": 2605.9746124999947,
      "v": 64
    },
    {
      "midi": 66,
      "hit": false,
      "t": 106956.37200000016,
      "d": 2605.9746124999947,
      "v": 64
    },
    {
      "midi": 50,
      "hit": false,
      "t": 107931.91411250016,
      "d": 1627.7151124999946,
      "v": 71
    },
    {
      "midi": 50,
      "hit": false,
      "t": 109565.06400000016,
      "d": 2.7173875000007683,
      "v": 67
    },
    {
      "midi": 74,
      "hit": false,
      "t": 109565.06400000016,
      "d": 975.5421125000139,
      "v": 119
    },
    {
      "midi": 57,
      "hit": false,
      "t": 109565.06400000016,
      "d": 2605.974612500024,
      "v": 63
    },
    {
      "midi": 62,
      "hit": false,
      "t": 109565.06400000016,
      "d": 2605.974612500024,
      "v": 66
    },
    {
      "midi": 66,
      "hit": false,
      "t": 109565.06400000016,
      "d": 2605.974612500024,
      "v": 68
    },
    {
      "midi": 81,
      "hit": false,
      "t": 109891.15050000016,
      "d": 323.3691125000041,
      "v": 107
    },
    {
      "midi": 83,
      "hit": false,
      "t": 110217.23700000017,
      "d": 323.3691125000041,
      "v": 119
    },
    {
      "midi": 88,
      "hit": false,
      "t": 110217.23700000017,
      "d": 323.3691125000041,
      "v": 119
    },
    {
      "midi": 50,
      "hit": false,
      "t": 110540.60611250017,
      "d": 649.4556124999945,
      "v": 71
    },
    {
      "midi": 81,
      "hit": false,
      "t": 110543.32350000017,
      "d": 1953.801612500014,
      "v": 107
    },
    {
      "midi": 86,
      "hit": false,
      "t": 110543.32350000017,
      "d": 1953.801612500014,
      "v": 107
    },
    {
      "midi": 49,
      "hit": false,
      "t": 111192.77911250017,
      "d": 323.3691125000041,
      "v": 71
    },
    {
      "midi": 47,
      "hit": false,
      "t": 111518.86561250017,
      "d": 323.3691125000041,
      "v": 69
    },
    {
      "midi": 44,
      "hit": false,
      "t": 111844.95211250018,
      "d": 323.3691125000041,
      "v": 70
    },
    {
      "midi": 40,
      "hit": false,
      "t": 112171.03861250018,
      "d": 2605.9746125000092,
      "v": 72
    },
    {
      "midi": 47,
      "hit": false,
      "t": 112173.75600000018,
      "d": 2605.9746125000092,
      "v": 62
    },
    {
      "midi": 52,
      "hit": false,
      "t": 112173.75600000018,
      "d": 2605.9746125000092,
      "v": 69
    },
    {
      "midi": 59,
      "hit": false,
      "t": 112173.75600000018,
      "d": 2605.9746125000092,
      "v": 65
    },
    {
      "midi": 64,
      "hit": false,
      "t": 112173.75600000018,
      "d": 2605.9746125000092,
      "v": 64
    },
    {
      "midi": 68,
      "hit": false,
      "t": 112173.75600000018,
      "d": 2605.9746125000092,
      "v": 69
    },
    {
      "midi": 71,
      "hit": false,
      "t": 112173.75600000018,
      "d": 2605.9746125000092,
      "v": 69
    },
    {
      "midi": 40,
      "hit": false,
      "t": 114779.73061250019,
      "d": 2605.9746125000092,
      "v": 72
    },
    {
      "midi": 52,
      "hit": false,
      "t": 114782.4480000002,
      "d": 2605.9746125000092,
      "v": 69
    },
    {
      "midi": 59,
      "hit": false,
      "t": 114782.4480000002,
      "d": 2605.9746125000092,
      "v": 68
    },
    {
      "midi": 64,
      "hit": false,
      "t": 114782.4480000002,
      "d": 2605.9746125000092,
      "v": 67
    },
    {
      "midi": 68,
      "hit": false,
      "t": 114782.4480000002,
      "d": 2605.9746125000092,
      "v": 62
    },
    {
      "midi": 49,
      "hit": false,
      "t": 117062.3361125002,
      "d": 323.3691125000041,
      "v": 71
    },
    {
      "midi": 50,
      "hit": false,
      "t": 117391.1400000002,
      "d": 2603.257224999994,
      "v": 69
    },
    {
      "midi": 57,
      "hit": false,
      "t": 117391.1400000002,
      "d": 2605.9746124999947,
      "v": 69
    },
    {
      "midi": 62,
      "hit": false,
      "t": 117391.1400000002,
      "d": 2605.9746124999947,
      "v": 69
    },
    {
      "midi": 66,
      "hit": false,
      "t": 117391.1400000002,
      "d": 2605.9746124999947,
      "v": 69
    },
    {
      "midi": 69,
      "hit": false,
      "t": 117391.1400000002,
      "d": 2605.9746124999947,
      "v": 65
    },
    {
      "midi": 52,
      "hit": false,
      "t": 120325.9185000002,
      "d": 320.65172500000335,
      "v": 65
    },
    {
      "midi": 59,
      "hit": false,
      "t": 120325.9185000002,
      "d": 323.3691125000041,
      "v": 69
    },
    {
      "midi": 64,
      "hit": false,
      "t": 120325.9185000002,
      "d": 323.3691125000041,
      "v": 65
    },
    {
      "midi": 68,
      "hit": false,
      "t": 120325.9185000002,
      "d": 323.3691125000041,
      "v": 70
    },
    {
      "midi": 52,
      "hit": false,
      "t": 120649.28761250021,
      "d": 2.7173875000007683,
      "v": 72
    },
    {
      "midi": 59,
      "hit": false,
      "t": 120652.00500000021,
      "d": 323.3691125000041,
      "v": 68
    },
    {
      "midi": 64,
      "hit": false,
      "t": 120652.00500000021,
      "d": 323.3691125000041,
      "v": 67
    },
    {
      "midi": 68,
      "hit": false,
      "t": 120652.00500000021,
      "d": 323.3691125000041,
      "v": 63
    },
    {
      "midi": 52,
      "hit": false,
      "t": 120978.09150000021,
      "d": 320.65172500000335,
      "v": 67
    },
    {
      "midi": 59,
      "hit": false,
      "t": 120978.09150000021,
      "d": 323.3691125000041,
      "v": 65
    },
    {
      "midi": 64,
      "hit": false,
      "t": 120978.09150000021,
      "d": 323.3691125000041,
      "v": 64
    },
    {
      "midi": 68,
      "hit": false,
      "t": 120978.09150000021,
      "d": 323.3691125000041,
      "v": 64
    },
    {
      "midi": 52,
      "hit": false,
      "t": 121304.17800000022,
      "d": 2.7173875000007683,
      "v": 66
    },
    {
      "midi": 59,
      "hit": false,
      "t": 121304.17800000022,
      "d": 323.3691125000041,
      "v": 65
    },
    {
      "midi": 64,
      "hit": false,
      "t": 121304.17800000022,
      "d": 323.3691125000041,
      "v": 66
    },
    {
      "midi": 68,
      "hit": false,
      "t": 121304.17800000022,
      "d": 323.3691125000041,
      "v": 71
    },
    {
      "midi": 45,
      "hit": false,
      "t": 122608.52400000022,
      "d": 972.8247249999986,
      "v": 67
    },
    {
      "midi": 52,
      "hit": false,
      "t": 122608.52400000022,
      "d": 975.5421124999993,
      "v": 70
    },
    {
      "midi": 57,
      "hit": false,
      "t": 122608.52400000022,
      "d": 975.5421124999993,
      "v": 69
    },
    {
      "midi": 61,
      "hit": false,
      "t": 122608.52400000022,
      "d": 975.5421124999993,
      "v": 68
    },
    {
      "midi": 64,
      "hit": false,
      "t": 122608.52400000022,
      "d": 975.5421124999993,
      "v": 65
    },
    {
      "midi": 69,
      "hit": false,
      "t": 122608.52400000022,
      "d": 975.5421124999993,
      "v": 66
    },
    {
      "midi": 45,
      "hit": false,
      "t": 123584.06611250022,
      "d": 2.7173875000007683,
      "v": 71
    },
    {
      "midi": 57,
      "hit": false,
      "t": 123586.78350000022,
      "d": 1627.7151125000091,
      "v": 66
    },
    {
      "midi": 61,
      "hit": false,
      "t": 123586.78350000022,
      "d": 1627.7151125000091,
      "v": 63
    },
    {
      "midi": 64,
      "hit": false,
      "t": 123586.78350000022,
      "d": 1627.7151125000091,
      "v": 64
    },
    {
      "midi": 69,
      "hit": false,
      "t": 123586.78350000022,
      "d": 1627.7151125000091,
      "v": 64
    },
    {
      "midi": 45,
      "hit": false,
      "t": 124562.32561250022,
      "d": 323.3691125000041,
      "v": 72
    },
    {
      "midi": 47,
      "hit": false,
      "t": 124888.41211250023,
      "d": 323.3691125000041,
      "v": 71
    },
    {
      "midi": 49,
      "hit": false,
      "t": 125217.21600000023,
      "d": 972.8247249999986,
      "v": 66
    },
    {
      "midi": 56,
      "hit": false,
      "t": 125217.21600000023,
      "d": 975.5421124999993,
      "v": 68
    },
    {
      "midi": 61,
      "hit": false,
      "t": 125217.21600000023,
      "d": 975.5421124999993,
      "v": 69
    },
    {
      "midi": 64,
      "hit": false,
      "t": 125217.21600000023,
      "d": 975.5421124999993,
      "v": 68
    },
    {
      "midi": 68,
      "hit": false,
      "t": 125217.21600000023,
      "d": 975.5421124999993,
      "v": 65
    },
    {
      "midi": 49,
      "hit": false,
      "t": 126192.75811250023,
      "d": 2.7173875000007683,
      "v": 71
    },
    {
      "midi": 56,
      "hit": false,
      "t": 126195.47550000023,
      "d": 1627.7151125000091,
      "v": 61
    },
    {
      "midi": 61,
      "hit": false,
      "t": 126195.47550000023,
      "d": 1627.7151125000091,
      "v": 63
    },
    {
      "midi": 64,
      "hit": false,
      "t": 126195.47550000023,
      "d": 1627.7151125000091,
      "v": 69
    },
    {
      "midi": 68,
      "hit": false,
      "t": 126195.47550000023,
      "d": 1627.7151125000091,
      "v": 64
    },
    {
      "midi": 49,
      "hit": false,
      "t": 127171.01761250023,
      "d": 323.3691125000041,
      "v": 72
    },
    {
      "midi": 45,
      "hit": false,
      "t": 127497.10411250024,
      "d": 323.3691125000041,
      "v": 71
    },
    {
      "midi": 50,
      "hit": false,
      "t": 127825.90800000024,
      "d": 972.8247249999986,
      "v": 64
    },
    {
      "midi": 57,
      "hit": false,
      "t": 127825.90800000024,
      "d": 975.5421124999993,
      "v": 66
    },
    {
      "midi": 62,
      "hit": false,
      "t": 127825.90800000024,
      "d": 975.5421124999993,
      "v": 69
    },
    {
      "midi": 66,
      "hit": false,
      "t": 127825.90800000024,
      "d": 975.5421124999993,
      "v": 68
    },
    {
      "midi": 69,
      "hit": false,
      "t": 127825.90800000024,
      "d": 975.5421124999993,
      "v": 68
    },
    {
      "midi": 50,
      "hit": false,
      "t": 128804.16750000024,
      "d": 2.7173875000007683,
      "v": 66
    },
    {
      "midi": 57,
      "hit": false,
      "t": 128804.16750000024,
      "d": 1627.7151125000091,
      "v": 63
    },
    {
      "midi": 62,
      "hit": false,
      "t": 128804.16750000024,
      "d": 1627.7151125000091,
      "v": 66
    },
    {
      "midi": 66,
      "hit": false,
      "t": 128804.16750000024,
      "d": 1627.7151125000091,
      "v": 67
    },
    {
      "midi": 69,
      "hit": false,
      "t": 128804.16750000024,
      "d": 1627.7151125000091,
      "v": 63
    },
    {
      "midi": 50,
      "hit": false,
      "t": 129779.70961250024,
      "d": 323.3691125000041,
      "v": 72
    },
    {
      "midi": 45,
      "hit": false,
      "t": 130105.79611250025,
      "d": 323.3691125000041,
      "v": 71
    },
    {
      "midi": 52,
      "hit": false,
      "t": 130434.60000000025,
      "d": 320.65172500000335,
      "v": 64
    },
    {
      "midi": 59,
      "hit": false,
      "t": 130434.60000000025,
      "d": 975.5421125000139,
      "v": 68
    },
    {
      "midi": 64,
      "hit": false,
      "t": 130434.60000000025,
      "d": 975.5421125000139,
      "v": 67
    },
    {
      "midi": 68,
      "hit": false,
      "t": 130434.60000000025,
      "d": 975.5421125000139,
      "v": 67
    },
    {
      "midi": 40,
      "hit": false,
      "t": 130757.96911250026,
      "d": 975.5421124999993,
      "v": 71
    },
    {
      "midi": 52,
      "hit": false,
      "t": 131410.14211250027,
      "d": 2.7173874999862164,
      "v": 71
    },
    {
      "midi": 59,
      "hit": false,
      "t": 131412.85950000025,
      "d": 1627.715112499951,
      "v": 65
    },
    {
      "midi": 64,
      "hit": false,
      "t": 131412.85950000025,
      "d": 1627.715112499951,
      "v": 65
    },
    {
      "midi": 68,
      "hit": false,
      "t": 131412.85950000025,
      "d": 1627.715112499951,
      "v": 66
    },
    {
      "midi": 40,
      "hit": false,
      "t": 132062.31511250025,
      "d": 323.36911249998957,
      "v": 71
    },
    {
      "midi": 52,
      "hit": false,
      "t": 132388.40161250022,
      "d": 649.4556124999945,
      "v": 72
    },
    {
      "midi": 45,
      "hit": false,
      "t": 133043.2920000002,
      "d": 972.8247250000131,
      "v": 66
    },
    {
      "midi": 52,
      "hit": false,
      "t": 133043.2920000002,
      "d": 975.5421124999993,
      "v": 70
    },
    {
      "midi": 57,
      "hit": false,
      "t": 133043.2920000002,
      "d": 975.5421124999993,
      "v": 65
    },
    {
      "midi": 61,
      "hit": false,
      "t": 133043.2920000002,
      "d": 975.5421124999993,
      "v": 69
    },
    {
      "midi": 64,
      "hit": false,
      "t": 133043.2920000002,
      "d": 975.5421124999993,
      "v": 65
    },
    {
      "midi": 69,
      "hit": false,
      "t": 133043.2920000002,
      "d": 975.5421124999993,
      "v": 69
    },
    {
      "midi": 45,
      "hit": false,
      "t": 134018.8341125002,
      "d": 2.7173874999862164,
      "v": 71
    },
    {
      "midi": 57,
      "hit": false,
      "t": 134021.55150000018,
      "d": 1627.715112499951,
      "v": 65
    },
    {
      "midi": 61,
      "hit": false,
      "t": 134021.55150000018,
      "d": 1627.715112499951,
      "v": 69
    },
    {
      "midi": 64,
      "hit": false,
      "t": 134021.55150000018,
      "d": 1627.715112499951,
      "v": 66
    },
    {
      "midi": 69,
      "hit": false,
      "t": 134021.55150000018,
      "d": 1627.715112499951,
      "v": 68
    },
    {
      "midi": 45,
      "hit": false,
      "t": 134997.09361250018,
      "d": 323.36911249998957,
      "v": 72
    },
    {
      "midi": 47,
      "hit": false,
      "t": 135323.18011250015,
      "d": 323.36911249998957,
      "v": 71
    },
    {
      "midi": 49,
      "hit": false,
      "t": 135651.9840000001,
      "d": 972.8247250000131,
      "v": 62
    },
    {
      "midi": 56,
      "hit": false,
      "t": 135651.9840000001,
      "d": 975.5421124999993,
      "v": 67
    },
    {
      "midi": 61,
      "hit": false,
      "t": 135651.9840000001,
      "d": 975.5421124999993,
      "v": 67
    },
    {
      "midi": 64,
      "hit": false,
      "t": 135651.9840000001,
      "d": 975.5421124999993,
      "v": 69
    },
    {
      "midi": 68,
      "hit": false,
      "t": 135651.9840000001,
      "d": 975.5421124999993,
      "v": 69
    },
    {
      "midi": 49,
      "hit": false,
      "t": 136627.5261125001,
      "d": 2.7173874999862164,
      "v": 71
    },
    {
      "midi": 56,
      "hit": false,
      "t": 136630.2435000001,
      "d": 1627.715112499951,
      "v": 61
    },
    {
      "midi": 61,
      "hit": false,
      "t": 136630.2435000001,
      "d": 1627.715112499951,
      "v": 64
    },
    {
      "midi": 64,
      "hit": false,
      "t": 136630.2435000001,
      "d": 1627.715112499951,
      "v": 63
    },
    {
      "midi": 68,
      "hit": false,
      "t": 136630.2435000001,
      "d": 1627.715112499951,
      "v": 68
    },
    {
      "midi": 49,
      "hit": false,
      "t": 137605.7856125001,
      "d": 323.36911249998957,
      "v": 72
    },
    {
      "midi": 45,
      "hit": false,
      "t": 137931.87211250007,
      "d": 323.36911249998957,
      "v": 71
    },
    {
      "midi": 50,
      "hit": false,
      "t": 138260.67600000004,
      "d": 972.8247250000131,
      "v": 69
    },
    {
      "midi": 57,
      "hit": false,
      "t": 138260.67600000004,
      "d": 975.5421124999993,
      "v": 65
    },
    {
      "midi": 62,
      "hit": false,
      "t": 138260.67600000004,
      "d": 975.5421124999993,
      "v": 67
    },
    {
      "midi": 66,
      "hit": false,
      "t": 138260.67600000004,
      "d": 975.5421124999993,
      "v": 64
    },
    {
      "midi": 50,
      "hit": false,
      "t": 139238.93550000002,
      "d": 2.7173874999862164,
      "v": 67
    },
    {
      "midi": 57,
      "hit": false,
      "t": 139238.93550000002,
      "d": 1627.715112499951,
      "v": 65
    },
    {
      "midi": 62,
      "hit": false,
      "t": 139238.93550000002,
      "d": 1627.715112499951,
      "v": 62
    },
    {
      "midi": 66,
      "hit": false,
      "t": 139238.93550000002,
      "d": 1627.715112499951,
      "v": 66
    },
    {
      "midi": 69,
      "hit": false,
      "t": 139238.93550000002,
      "d": 1627.715112499951,
      "v": 64
    },
    {
      "midi": 50,
      "hit": false,
      "t": 140214.47761250002,
      "d": 323.36911249998957,
      "v": 72
    },
    {
      "midi": 45,
      "hit": false,
      "t": 140540.5641125,
      "d": 323.36911249998957,
      "v": 71
    },
    {
      "midi": 51,
      "hit": false,
      "t": 140869.36799999996,
      "d": 972.8247250000131,
      "v": 67
    },
    {
      "midi": 54,
      "hit": false,
      "t": 140869.36799999996,
      "d": 975.5421124999993,
      "v": 64
    },
    {
      "midi": 59,
      "hit": false,
      "t": 140869.36799999996,
      "d": 975.5421124999993,
      "v": 63
    },
    {
      "midi": 63,
      "hit": false,
      "t": 140869.36799999996,
      "d": 975.5421124999993,
      "v": 65
    },
    {
      "midi": 66,
      "hit": false,
      "t": 140869.36799999996,
      "d": 975.5421124999993,
      "v": 67
    },
    {
      "midi": 71,
      "hit": false,
      "t": 140869.36799999996,
      "d": 975.5421124999993,
      "v": 67
    },
    {
      "midi": 47,
      "hit": false,
      "t": 141844.91011249996,
      "d": 2.7173874999862164,
      "v": 71
    },
    {
      "midi": 59,
      "hit": false,
      "t": 141847.62749999994,
      "d": 1627.715112499951,
      "v": 64
    },
    {
      "midi": 63,
      "hit": false,
      "t": 141847.62749999994,
      "d": 1627.715112499951,
      "v": 64
    },
    {
      "midi": 66,
      "hit": false,
      "t": 141847.62749999994,
      "d": 1627.715112499951,
      "v": 65
    },
    {
      "midi": 71,
      "hit": false,
      "t": 141847.62749999994,
      "d": 1627.715112499951,
      "v": 66
    },
    {
      "midi": 47,
      "hit": false,
      "t": 142823.16961249994,
      "d": 323.36911249998957,
      "v": 72
    },
    {
      "midi": 49,
      "hit": false,
      "t": 143149.25611249992,
      "d": 323.36911249998957,
      "v": 71
    },
    {
      "midi": 50,
      "hit": false,
      "t": 143478.05999999988,
      "d": 972.8247250000131,
      "v": 70
    },
    {
      "midi": 57,
      "hit": false,
      "t": 143478.05999999988,
      "d": 975.5421124999993,
      "v": 65
    },
    {
      "midi": 62,
      "hit": false,
      "t": 143478.05999999988,
      "d": 975.5421124999993,
      "v": 65
    },
    {
      "midi": 66,
      "hit": false,
      "t": 143478.05999999988,
      "d": 975.5421124999993,
      "v": 69
    },
    {
      "midi": 50,
      "hit": false,
      "t": 144456.31949999987,
      "d": 2.7173874999862164,
      "v": 68
    },
    {
      "midi": 57,
      "hit": false,
      "t": 144456.31949999987,
      "d": 975.5421124999411,
      "v": 64
    },
    {
      "midi": 62,
      "hit": false,
      "t": 144456.31949999987,
      "d": 975.5421124999411,
      "v": 62
    },
    {
      "midi": 66,
      "hit": false,
      "t": 144456.31949999987,
      "d": 975.5421124999411,
      "v": 63
    },
    {
      "midi": 50,
      "hit": false,
      "t": 144779.68861249986,
      "d": 323.36911249998957,
      "v": 72
    },
    {
      "midi": 49,
      "hit": false,
      "t": 145105.77511249983,
      "d": 323.36911249998957,
      "v": 71
    },
    {
      "midi": 47,
      "hit": false,
      "t": 145431.8616124998,
      "d": 323.36911249998957,
      "v": 72
    },
    {
      "midi": 50,
      "hit": false,
      "t": 145434.5789999998,
      "d": 323.36911249998957,
      "v": 71
    },
    {
      "midi": 57,
      "hit": false,
      "t": 145434.5789999998,
      "d": 323.36911249998957,
      "v": 69
    },
    {
      "midi": 62,
      "hit": false,
      "t": 145434.5789999998,
      "d": 323.36911249998957,
      "v": 70
    },
    {
      "midi": 66,
      "hit": false,
      "t": 145434.5789999998,
      "d": 323.36911249998957,
      "v": 65
    },
    {
      "midi": 45,
      "hit": false,
      "t": 145757.94811249978,
      "d": 323.36911249998957,
      "v": 71
    },
    {
      "midi": 52,
      "hit": false,
      "t": 146086.75199999975,
      "d": 646.7382250000082,
      "v": 71
    },
    {
      "midi": 47,
      "hit": false,
      "t": 146086.75199999975,
      "d": 975.5421124999702,
      "v": 64
    },
    {
      "midi": 59,
      "hit": false,
      "t": 146086.75199999975,
      "d": 975.5421124999702,
      "v": 67
    },
    {
      "midi": 64,
      "hit": false,
      "t": 146086.75199999975,
      "d": 975.5421124999702,
      "v": 69
    },
    {
      "midi": 68,
      "hit": false,
      "t": 146086.75199999975,
      "d": 975.5421124999702,
      "v": 64
    },
    {
      "midi": 52,
      "hit": false,
      "t": 146736.20761249974,
      "d": 323.36911249998957,
      "v": 72
    },
    {
      "midi": 40,
      "hit": false,
      "t": 147062.29411249972,
      "d": 323.36911249998957,
      "v": 71
    },
    {
      "midi": 47,
      "hit": false,
      "t": 147065.0114999997,
      "d": 975.5421124999411,
      "v": 64
    },
    {
      "midi": 59,
      "hit": false,
      "t": 147065.0114999997,
      "d": 975.5421124999411,
      "v": 67
    },
    {
      "midi": 64,
      "hit": false,
      "t": 147065.0114999997,
      "d": 975.5421124999411,
      "v": 69
    },
    {
      "midi": 68,
      "hit": false,
      "t": 147065.0114999997,
      "d": 975.5421124999411,
      "v": 64
    },
    {
      "midi": 52,
      "hit": false,
      "t": 147388.3806124997,
      "d": 323.36911249998957,
      "v": 72
    },
    {
      "midi": 40,
      "hit": false,
      "t": 147714.46711249967,
      "d": 323.36911249998957,
      "v": 71
    },
    {
      "midi": 52,
      "hit": false,
      "t": 148040.55361249964,
      "d": 2.7173874999862164,
      "v": 72
    },
    {
      "midi": 45,
      "hit": false,
      "t": 148695.4439999996,
      "d": 972.8247250000131,
      "v": 67
    },
    {
      "midi": 52,
      "hit": false,
      "t": 148695.4439999996,
      "d": 975.5421124999993,
      "v": 65
    },
    {
      "midi": 57,
      "hit": false,
      "t": 148695.4439999996,
      "d": 975.5421124999993,
      "v": 68
    },
    {
      "midi": 61,
      "hit": false,
      "t": 148695.4439999996,
      "d": 975.5421124999993,
      "v": 68
    },
    {
      "midi": 64,
      "hit": false,
      "t": 148695.4439999996,
      "d": 975.5421124999993,
      "v": 69
    },
    {
      "midi": 69,
      "hit": false,
      "t": 148695.4439999996,
      "d": 975.5421124999993,
      "v": 64
    },
    {
      "midi": 45,
      "hit": false,
      "t": 149670.9861124996,
      "d": 2.7173874999862164,
      "v": 71
    },
    {
      "midi": 52,
      "hit": false,
      "t": 149673.7034999996,
      "d": 1627.7151125000091,
      "v": 63
    },
    {
      "midi": 57,
      "hit": false,
      "t": 149673.7034999996,
      "d": 1627.7151125000091,
      "v": 69
    },
    {
      "midi": 61,
      "hit": false,
      "t": 149673.7034999996,
      "d": 1627.7151125000091,
      "v": 69
    },
    {
      "midi": 64,
      "hit": false,
      "t": 149673.7034999996,
      "d": 1627.7151125000091,
      "v": 70
    },
    {
      "midi": 69,
      "hit": false,
      "t": 149673.7034999996,
      "d": 1627.7151125000091,
      "v": 69
    },
    {
      "midi": 49,
      "hit": false,
      "t": 151304.1359999996,
      "d": 972.8247250000131,
      "v": 71
    },
    {
      "midi": 56,
      "hit": false,
      "t": 151304.1359999996,
      "d": 975.5421124999993,
      "v": 71
    },
    {
      "midi": 61,
      "hit": false,
      "t": 151304.1359999996,
      "d": 975.5421124999993,
      "v": 70
    },
    {
      "midi": 64,
      "hit": false,
      "t": 151304.1359999996,
      "d": 975.5421124999993,
      "v": 66
    },
    {
      "midi": 68,
      "hit": false,
      "t": 151304.1359999996,
      "d": 975.5421124999993,
      "v": 64
    },
    {
      "midi": 49,
      "hit": false,
      "t": 152279.6781124996,
      "d": 2.7173874999862164,
      "v": 71
    },
    {
      "midi": 56,
      "hit": false,
      "t": 152282.39549999958,
      "d": 1627.7151125000091,
      "v": 66
    },
    {
      "midi": 61,
      "hit": false,
      "t": 152282.39549999958,
      "d": 1627.7151125000091,
      "v": 64
    },
    {
      "midi": 64,
      "hit": false,
      "t": 152282.39549999958,
      "d": 1627.7151125000091,
      "v": 64
    },
    {
      "midi": 68,
      "hit": false,
      "t": 152282.39549999958,
      "d": 1627.7151125000091,
      "v": 65
    },
    {
      "midi": 50,
      "hit": false,
      "t": 153912.82799999957,
      "d": 972.8247250000131,
      "v": 70
    },
    {
      "midi": 57,
      "hit": false,
      "t": 153912.82799999957,
      "d": 975.5421124999993,
      "v": 65
    },
    {
      "midi": 62,
      "hit": false,
      "t": 153912.82799999957,
      "d": 975.5421124999993,
      "v": 65
    },
    {
      "midi": 66,
      "hit": false,
      "t": 153912.82799999957,
      "d": 975.5421124999993,
      "v": 69
    },
    {
      "midi": 50,
      "hit": false,
      "t": 154891.08749999956,
      "d": 2.7173874999862164,
      "v": 66
    },
    {
      "midi": 57,
      "hit": false,
      "t": 154891.08749999956,
      "d": 1301.6286124999751,
      "v": 69
    },
    {
      "midi": 62,
      "hit": false,
      "t": 154891.08749999956,
      "d": 1301.6286124999751,
      "v": 63
    },
    {
      "midi": 66,
      "hit": false,
      "t": 154891.08749999956,
      "d": 1301.6286124999751,
      "v": 63
    },
    {
      "midi": 69,
      "hit": false,
      "t": 154891.08749999956,
      "d": 1301.6286124999751,
      "v": 68
    },
    {
      "midi": 38,
      "hit": false,
      "t": 156195.43349999952,
      "d": 323.36911249998957,
      "v": 67
    },
    {
      "midi": 57,
      "hit": false,
      "t": 156195.43349999952,
      "d": 323.36911249998957,
      "v": 59
    },
    {
      "midi": 50,
      "hit": false,
      "t": 156521.5199999995,
      "d": 1624.9977249999938,
      "v": 71
    },
    {
      "midi": 57,
      "hit": false,
      "t": 156521.5199999995,
      "d": 1627.71511249998,
      "v": 70
    },
    {
      "midi": 66,
      "hit": false,
      "t": 156521.5199999995,
      "d": 1627.71511249998,
      "v": 65
    },
    {
      "midi": 69,
      "hit": false,
      "t": 156521.5199999995,
      "d": 1627.71511249998,
      "v": 71
    },
    {
      "midi": 50,
      "hit": false,
      "t": 158149.23511249947,
      "d": 2.7173874999862164,
      "v": 71
    },
    {
      "midi": 52,
      "hit": false,
      "t": 158478.03899999944,
      "d": 644.0208374999929,
      "v": 70
    },
    {
      "midi": 47,
      "hit": false,
      "t": 158478.03899999944,
      "d": 646.7382249999791,
      "v": 60
    },
    {
      "midi": 59,
      "hit": false,
      "t": 158478.03899999944,
      "d": 646.7382249999791,
      "v": 71
    },
    {
      "midi": 64,
      "hit": false,
      "t": 158478.03899999944,
      "d": 646.7382249999791,
      "v": 73
    },
    {
      "midi": 68,
      "hit": false,
      "t": 158478.03899999944,
      "d": 646.7382249999791,
      "v": 64
    },
    {
      "midi": 45,
      "hit": false,
      "t": 159130.2119999994,
      "d": 972.8247250000131,
      "v": 67
    },
    {
      "midi": 52,
      "hit": false,
      "t": 159130.2119999994,
      "d": 975.5421124999993,
      "v": 70
    },
    {
      "midi": 57,
      "hit": false,
      "t": 159130.2119999994,
      "d": 975.5421124999993,
      "v": 69
    },
    {
      "midi": 61,
      "hit": false,
      "t": 159130.2119999994,
      "d": 975.5421124999993,
      "v": 72
    },
    {
      "midi": 64,
      "hit": false,
      "t": 159130.2119999994,
      "d": 975.5421124999993,
      "v": 64
    },
    {
      "midi": 69,
      "hit": false,
      "t": 159130.2119999994,
      "d": 975.5421124999993,
      "v": 69
    },
    {
      "midi": 45,
      "hit": false,
      "t": 160105.7541124994,
      "d": 2.7173874999862164,
      "v": 71
    },
    {
      "midi": 61,
      "hit": false,
      "t": 160108.47149999937,
      "d": 1627.7151125000091,
      "v": 65
    },
    {
      "midi": 64,
      "hit": false,
      "t": 160108.47149999937,
      "d": 1627.7151125000091,
      "v": 68
    },
    {
      "midi": 69,
      "hit": false,
      "t": 160108.47149999937,
      "d": 1627.7151125000091,
      "v": 64
    },
    {
      "midi": 49,
      "hit": false,
      "t": 161738.90399999937,
      "d": 972.8247250000131,
      "v": 72
    },
    {
      "midi": 56,
      "hit": false,
      "t": 161738.90399999937,
      "d": 975.5421124999993,
      "v": 66
    },
    {
      "midi": 61,
      "hit": false,
      "t": 161738.90399999937,
      "d": 975.5421124999993,
      "v": 72
    },
    {
      "midi": 64,
      "hit": false,
      "t": 161738.90399999937,
      "d": 975.5421124999993,
      "v": 71
    },
    {
      "midi": 68,
      "hit": false,
      "t": 161738.90399999937,
      "d": 975.5421124999993,
      "v": 66
    },
    {
      "midi": 49,
      "hit": false,
      "t": 162714.44611249937,
      "d": 652.1729999999807,
      "v": 71
    },
    {
      "midi": 56,
      "hit": false,
      "t": 162717.16349999935,
      "d": 1627.71511249998,
      "v": 61
    },
    {
      "midi": 61,
      "hit": false,
      "t": 162717.16349999935,
      "d": 1627.71511249998,
      "v": 64
    },
    {
      "midi": 64,
      "hit": false,
      "t": 162717.16349999935,
      "d": 1627.71511249998,
      "v": 66
    },
    {
      "midi": 68,
      "hit": false,
      "t": 162717.16349999935,
      "d": 1627.71511249998,
      "v": 69
    },
    {
      "midi": 50,
      "hit": false,
      "t": 164347.59599999932,
      "d": 972.8247250000131,
      "v": 69
    },
    {
      "midi": 57,
      "hit": false,
      "t": 164347.59599999932,
      "d": 975.5421124999993,
      "v": 69
    },
    {
      "midi": 62,
      "hit": false,
      "t": 164347.59599999932,
      "d": 975.5421124999993,
      "v": 69
    },
    {
      "midi": 66,
      "hit": false,
      "t": 164347.59599999932,
      "d": 975.5421124999993,
      "v": 69
    },
    {
      "midi": 69,
      "hit": false,
      "t": 164347.59599999932,
      "d": 975.5421124999993,
      "v": 69
    },
    {
      "midi": 50,
      "hit": false,
      "t": 165325.8554999993,
      "d": 2.7173874999862164,
      "v": 64
    },
    {
      "midi": 57,
      "hit": false,
      "t": 165325.8554999993,
      "d": 1627.71511249998,
      "v": 68
    },
    {
      "midi": 62,
      "hit": false,
      "t": 165325.8554999993,
      "d": 1627.71511249998,
      "v": 69
    },
    {
      "midi": 66,
      "hit": false,
      "t": 165325.8554999993,
      "d": 1627.71511249998,
      "v": 64
    },
    {
      "midi": 50,
      "hit": false,
      "t": 166956.28799999927,
      "d": 2.7173874999862164,
      "v": 67
    },
    {
      "midi": 57,
      "hit": false,
      "t": 166956.28799999927,
      "d": 2605.9746124999074,
      "v": 64
    },
    {
      "midi": 62,
      "hit": false,
      "t": 166956.28799999927,
      "d": 2605.9746124999074,
      "v": 69
    },
    {
      "midi": 66,
      "hit": false,
      "t": 166956.28799999927,
      "d": 2605.9746124999074,
      "v": 66
    },
    {
      "midi": 50,
      "hit": false,
      "t": 167931.83011249927,
      "d": 649.4556124999945,
      "v": 71
    },
    {
      "midi": 49,
      "hit": false,
      "t": 168584.00311249925,
      "d": 323.36911249998957,
      "v": 71
    },
    {
      "midi": 47,
      "hit": false,
      "t": 168910.08961249923,
      "d": 323.36911249998957,
      "v": 69
    },
    {
      "midi": 44,
      "hit": false,
      "t": 169236.1761124992,
      "d": 323.36911249998957,
      "v": 70
    },
    {
      "midi": 40,
      "hit": false,
      "t": 169562.26261249918,
      "d": 2605.9746124999947,
      "v": 72
    },
    {
      "midi": 47,
      "hit": false,
      "t": 169564.97999999917,
      "d": 2605.9746124999947,
      "v": 62
    },
    {
      "midi": 52,
      "hit": false,
      "t": 169564.97999999917,
      "d": 2605.9746124999947,
      "v": 69
    },
    {
      "midi": 59,
      "hit": false,
      "t": 169564.97999999917,
      "d": 2605.9746124999947,
      "v": 65
    },
    {
      "midi": 64,
      "hit": false,
      "t": 169564.97999999917,
      "d": 2605.9746124999947,
      "v": 64
    },
    {
      "midi": 68,
      "hit": false,
      "t": 169564.97999999917,
      "d": 2605.9746124999947,
      "v": 69
    },
    {
      "midi": 71,
      "hit": false,
      "t": 169564.97999999917,
      "d": 2605.9746124999947,
      "v": 69
    },
    {
      "midi": 40,
      "hit": false,
      "t": 172170.95461249916,
      "d": 2605.9746124999656,
      "v": 72
    },
    {
      "midi": 52,
      "hit": false,
      "t": 172173.67199999915,
      "d": 2605.9746124999656,
      "v": 69
    },
    {
      "midi": 59,
      "hit": false,
      "t": 172173.67199999915,
      "d": 2605.9746124999656,
      "v": 68
    },
    {
      "midi": 64,
      "hit": false,
      "t": 172173.67199999915,
      "d": 2605.9746124999656,
      "v": 67
    },
    {
      "midi": 68,
      "hit": false,
      "t": 172173.67199999915,
      "d": 2605.9746124999656,
      "v": 62
    },
    {
      "midi": 49,
      "hit": false,
      "t": 174453.56011249914,
      "d": 323.36911249998957,
      "v": 71
    },
    {
      "midi": 50,
      "hit": false,
      "t": 174782.3639999991,
      "d": 2603.2572250000085,
      "v": 69
    },
    {
      "midi": 57,
      "hit": false,
      "t": 174782.3639999991,
      "d": 2605.9746124999947,
      "v": 69
    },
    {
      "midi": 62,
      "hit": false,
      "t": 174782.3639999991,
      "d": 2605.9746124999947,
      "v": 69
    },
    {
      "midi": 66,
      "hit": false,
      "t": 174782.3639999991,
      "d": 2605.9746124999947,
      "v": 69
    },
    {
      "midi": 69,
      "hit": false,
      "t": 174782.3639999991,
      "d": 2605.9746124999947,
      "v": 65
    },
    {
      "midi": 52,
      "hit": false,
      "t": 177717.14249999908,
      "d": 320.65172500000335,
      "v": 65
    },
    {
      "midi": 59,
      "hit": false,
      "t": 177717.14249999908,
      "d": 323.36911249998957,
      "v": 69
    },
    {
      "midi": 64,
      "hit": false,
      "t": 177717.14249999908,
      "d": 323.36911249998957,
      "v": 65
    },
    {
      "midi": 68,
      "hit": false,
      "t": 177717.14249999908,
      "d": 323.36911249998957,
      "v": 70
    },
    {
      "midi": 52,
      "hit": false,
      "t": 178040.51161249907,
      "d": 2.7173874999862164,
      "v": 72
    },
    {
      "midi": 59,
      "hit": false,
      "t": 178043.22899999906,
      "d": 323.36911249998957,
      "v": 68
    },
    {
      "midi": 64,
      "hit": false,
      "t": 178043.22899999906,
      "d": 323.36911249998957,
      "v": 67
    },
    {
      "midi": 68,
      "hit": false,
      "t": 178043.22899999906,
      "d": 323.36911249998957,
      "v": 63
    },
    {
      "midi": 52,
      "hit": false,
      "t": 178369.31549999904,
      "d": 320.65172500000335,
      "v": 67
    },
    {
      "midi": 59,
      "hit": false,
      "t": 178369.31549999904,
      "d": 323.36911249998957,
      "v": 65
    },
    {
      "midi": 64,
      "hit": false,
      "t": 178369.31549999904,
      "d": 323.36911249998957,
      "v": 64
    },
    {
      "midi": 68,
      "hit": false,
      "t": 178369.31549999904,
      "d": 323.36911249998957,
      "v": 64
    },
    {
      "midi": 52,
      "hit": false,
      "t": 178695.401999999,
      "d": 2.7173874999862164,
      "v": 66
    },
    {
      "midi": 59,
      "hit": false,
      "t": 178695.401999999,
      "d": 323.36911249998957,
      "v": 65
    },
    {
      "midi": 64,
      "hit": false,
      "t": 178695.401999999,
      "d": 323.36911249998957,
      "v": 66
    },
    {
      "midi": 68,
      "hit": false,
      "t": 178695.401999999,
      "d": 323.36911249998957,
      "v": 71
    },
    {
      "midi": 47,
      "hit": false,
      "t": 179999.74799999897,
      "d": 972.8247250000131,
      "v": 67
    },
    {
      "midi": 54,
      "hit": false,
      "t": 179999.74799999897,
      "d": 975.5421124999993,
      "v": 70
    },
    {
      "midi": 59,
      "hit": false,
      "t": 179999.74799999897,
      "d": 975.5421124999993,
      "v": 69
    },
    {
      "midi": 63,
      "hit": false,
      "t": 179999.74799999897,
      "d": 975.5421124999993,
      "v": 68
    },
    {
      "midi": 66,
      "hit": false,
      "t": 179999.74799999897,
      "d": 975.5421124999993,
      "v": 65
    },
    {
      "midi": 71,
      "hit": false,
      "t": 179999.74799999897,
      "d": 975.5421124999993,
      "v": 66
    },
    {
      "midi": 47,
      "hit": false,
      "t": 180975.29011249897,
      "d": 2.7173874999862164,
      "v": 71
    },
    {
      "midi": 59,
      "hit": false,
      "t": 180978.00749999896,
      "d": 1627.715112499951,
      "v": 66
    },
    {
      "midi": 63,
      "hit": false,
      "t": 180978.00749999896,
      "d": 1627.715112499951,
      "v": 63
    },
    {
      "midi": 66,
      "hit": false,
      "t": 180978.00749999896,
      "d": 1627.715112499951,
      "v": 64
    },
    {
      "midi": 71,
      "hit": false,
      "t": 180978.00749999896,
      "d": 1627.715112499951,
      "v": 64
    },
    {
      "midi": 47,
      "hit": false,
      "t": 181953.54961249896,
      "d": 323.36911249998957,
      "v": 72
    },
    {
      "midi": 49,
      "hit": false,
      "t": 182279.63611249893,
      "d": 323.36911249998957,
      "v": 71
    },
    {
      "midi": 51,
      "hit": false,
      "t": 182608.4399999989,
      "d": 972.8247250000131,
      "v": 66
    },
    {
      "midi": 58,
      "hit": false,
      "t": 182608.4399999989,
      "d": 975.5421124999993,
      "v": 68
    },
    {
      "midi": 63,
      "hit": false,
      "t": 182608.4399999989,
      "d": 975.5421124999993,
      "v": 69
    },
    {
      "midi": 66,
      "hit": false,
      "t": 182608.4399999989,
      "d": 975.5421124999993,
      "v": 68
    },
    {
      "midi": 70,
      "hit": false,
      "t": 182608.4399999989,
      "d": 975.5421124999993,
      "v": 65
    },
    {
      "midi": 51,
      "hit": false,
      "t": 183583.9821124989,
      "d": 2.7173874999862164,
      "v": 71
    },
    {
      "midi": 58,
      "hit": false,
      "t": 183586.69949999888,
      "d": 1627.715112499951,
      "v": 61
    },
    {
      "midi": 63,
      "hit": false,
      "t": 183586.69949999888,
      "d": 1627.715112499951,
      "v": 63
    },
    {
      "midi": 66,
      "hit": false,
      "t": 183586.69949999888,
      "d": 1627.715112499951,
      "v": 69
    },
    {
      "midi": 70,
      "hit": false,
      "t": 183586.69949999888,
      "d": 1627.715112499951,
      "v": 64
    },
    {
      "midi": 51,
      "hit": false,
      "t": 184562.24161249888,
      "d": 323.36911249998957,
      "v": 72
    },
    {
      "midi": 47,
      "hit": false,
      "t": 184888.32811249886,
      "d": 323.36911249998957,
      "v": 71
    },
    {
      "midi": 52,
      "hit": false,
      "t": 185217.13199999882,
      "d": 972.8247250000131,
      "v": 64
    },
    {
      "midi": 59,
      "hit": false,
      "t": 185217.13199999882,
      "d": 975.5421124999993,
      "v": 66
    },
    {
      "midi": 64,
      "hit": false,
      "t": 185217.13199999882,
      "d": 975.5421124999993,
      "v": 69
    },
    {
      "midi": 68,
      "hit": false,
      "t": 185217.13199999882,
      "d": 975.5421124999993,
      "v": 68
    },
    {
      "midi": 71,
      "hit": false,
      "t": 185217.13199999882,
      "d": 975.5421124999993,
      "v": 68
    },
    {
      "midi": 52,
      "hit": false,
      "t": 186195.3914999988,
      "d": 2.7173874999862164,
      "v": 66
    },
    {
      "midi": 59,
      "hit": false,
      "t": 186195.3914999988,
      "d": 1627.715112499951,
      "v": 63
    },
    {
      "midi": 64,
      "hit": false,
      "t": 186195.3914999988,
      "d": 1627.715112499951,
      "v": 66
    },
    {
      "midi": 68,
      "hit": false,
      "t": 186195.3914999988,
      "d": 1627.715112499951,
      "v": 67
    },
    {
      "midi": 71,
      "hit": false,
      "t": 186195.3914999988,
      "d": 1627.715112499951,
      "v": 63
    },
    {
      "midi": 52,
      "hit": false,
      "t": 187170.9336124988,
      "d": 323.36911249998957,
      "v": 72
    },
    {
      "midi": 47,
      "hit": false,
      "t": 187497.02011249878,
      "d": 323.36911249998957,
      "v": 71
    },
    {
      "midi": 54,
      "hit": false,
      "t": 187825.82399999874,
      "d": 320.65172500000335,
      "v": 64
    },
    {
      "midi": 61,
      "hit": false,
      "t": 187825.82399999874,
      "d": 975.5421124999993,
      "v": 68
    },
    {
      "midi": 66,
      "hit": false,
      "t": 187825.82399999874,
      "d": 975.5421124999993,
      "v": 67
    },
    {
      "midi": 70,
      "hit": false,
      "t": 187825.82399999874,
      "d": 975.5421124999993,
      "v": 67
    },
    {
      "midi": 42,
      "hit": false,
      "t": 188149.19311249873,
      "d": 975.5421124999993,
      "v": 71
    },
    {
      "midi": 54,
      "hit": false,
      "t": 188801.36611249874,
      "d": 2.7173874999862164,
      "v": 71
    },
    {
      "midi": 61,
      "hit": false,
      "t": 188804.08349999873,
      "d": 1627.715112499951,
      "v": 65
    },
    {
      "midi": 66,
      "hit": false,
      "t": 188804.08349999873,
      "d": 1627.715112499951,
      "v": 65
    },
    {
      "midi": 70,
      "hit": false,
      "t": 188804.08349999873,
      "d": 1627.715112499951,
      "v": 66
    },
    {
      "midi": 42,
      "hit": false,
      "t": 189453.53911249872,
      "d": 323.36911249998957,
      "v": 71
    },
    {
      "midi": 54,
      "hit": false,
      "t": 189779.6256124987,
      "d": 649.4556124999945,
      "v": 72
    },
    {
      "midi": 47,
      "hit": false,
      "t": 190434.51599999866,
      "d": 972.8247250000131,
      "v": 66
    },
    {
      "midi": 54,
      "hit": false,
      "t": 190434.51599999866,
      "d": 975.5421124999993,
      "v": 70
    },
    {
      "midi": 59,
      "hit": false,
      "t": 190434.51599999866,
      "d": 975.5421124999993,
      "v": 65
    },
    {
      "midi": 63,
      "hit": false,
      "t": 190434.51599999866,
      "d": 975.5421124999993,
      "v": 69
    },
    {
      "midi": 66,
      "hit": false,
      "t": 190434.51599999866,
      "d": 975.5421124999993,
      "v": 65
    },
    {
      "midi": 71,
      "hit": false,
      "t": 190434.51599999866,
      "d": 975.5421124999993,
      "v": 69
    },
    {
      "midi": 47,
      "hit": false,
      "t": 191410.05811249866,
      "d": 2.7173874999862164,
      "v": 71
    },
    {
      "midi": 59,
      "hit": false,
      "t": 191412.77549999865,
      "d": 1627.715112499951,
      "v": 65
    },
    {
      "midi": 63,
      "hit": false,
      "t": 191412.77549999865,
      "d": 1627.715112499951,
      "v": 69
    },
    {
      "midi": 66,
      "hit": false,
      "t": 191412.77549999865,
      "d": 1627.715112499951,
      "v": 66
    },
    {
      "midi": 71,
      "hit": false,
      "t": 191412.77549999865,
      "d": 1627.715112499951,
      "v": 68
    },
    {
      "midi": 47,
      "hit": false,
      "t": 192388.31761249865,
      "d": 323.36911249998957,
      "v": 72
    },
    {
      "midi": 49,
      "hit": false,
      "t": 192714.40411249863,
      "d": 323.36911249998957,
      "v": 71
    },
    {
      "midi": 51,
      "hit": false,
      "t": 193043.2079999986,
      "d": 972.8247250000131,
      "v": 62
    },
    {
      "midi": 58,
      "hit": false,
      "t": 193043.2079999986,
      "d": 975.5421124999993,
      "v": 67
    },
    {
      "midi": 63,
      "hit": false,
      "t": 193043.2079999986,
      "d": 975.5421124999993,
      "v": 67
    },
    {
      "midi": 66,
      "hit": false,
      "t": 193043.2079999986,
      "d": 975.5421124999993,
      "v": 69
    },
    {
      "midi": 70,
      "hit": false,
      "t": 193043.2079999986,
      "d": 975.5421124999993,
      "v": 69
    },
    {
      "midi": 51,
      "hit": false,
      "t": 194018.7501124986,
      "d": 2.7173874999862164,
      "v": 71
    },
    {
      "midi": 58,
      "hit": false,
      "t": 194021.46749999857,
      "d": 1627.715112499951,
      "v": 61
    },
    {
      "midi": 63,
      "hit": false,
      "t": 194021.46749999857,
      "d": 1627.715112499951,
      "v": 64
    },
    {
      "midi": 66,
      "hit": false,
      "t": 194021.46749999857,
      "d": 1627.715112499951,
      "v": 63
    },
    {
      "midi": 70,
      "hit": false,
      "t": 194021.46749999857,
      "d": 1627.715112499951,
      "v": 68
    },
    {
      "midi": 51,
      "hit": false,
      "t": 194997.00961249857,
      "d": 323.36911249998957,
      "v": 72
    },
    {
      "midi": 47,
      "hit": false,
      "t": 195323.09611249855,
      "d": 323.36911249998957,
      "v": 71
    },
    {
      "midi": 52,
      "hit": false,
      "t": 195651.8999999985,
      "d": 972.8247250000131,
      "v": 69
    },
    {
      "midi": 59,
      "hit": false,
      "t": 195651.8999999985,
      "d": 975.5421124999993,
      "v": 65
    },
    {
      "midi": 64,
      "hit": false,
      "t": 195651.8999999985,
      "d": 975.5421124999993,
      "v": 67
    },
    {
      "midi": 68,
      "hit": false,
      "t": 195651.8999999985,
      "d": 975.5421124999993,
      "v": 64
    },
    {
      "midi": 52,
      "hit": false,
      "t": 196630.1594999985,
      "d": 2.7173874999862164,
      "v": 67
    },
    {
      "midi": 59,
      "hit": false,
      "t": 196630.1594999985,
      "d": 1627.715112499951,
      "v": 65
    },
    {
      "midi": 64,
      "hit": false,
      "t": 196630.1594999985,
      "d": 1627.715112499951,
      "v": 62
    },
    {
      "midi": 68,
      "hit": false,
      "t": 196630.1594999985,
      "d": 1627.715112499951,
      "v": 66
    },
    {
      "midi": 71,
      "hit": false,
      "t": 196630.1594999985,
      "d": 1627.715112499951,
      "v": 64
    },
    {
      "midi": 52,
      "hit": false,
      "t": 197605.7016124985,
      "d": 323.36911249998957,
      "v": 72
    },
    {
      "midi": 47,
      "hit": false,
      "t": 197931.78811249847,
      "d": 323.36911249998957,
      "v": 71
    },
    {
      "midi": 53,
      "hit": false,
      "t": 198260.59199999843,
      "d": 972.8247250000131,
      "v": 67
    },
    {
      "midi": 56,
      "hit": false,
      "t": 198260.59199999843,
      "d": 975.5421124999993,
      "v": 64
    },
    {
      "midi": 61,
      "hit": false,
      "t": 198260.59199999843,
      "d": 975.5421124999993,
      "v": 63
    },
    {
      "midi": 65,
      "hit": false,
      "t": 198260.59199999843,
      "d": 975.5421124999993,
      "v": 65
    },
    {
      "midi": 68,
      "hit": false,
      "t": 198260.59199999843,
      "d": 975.5421124999993,
      "v": 67
    },
    {
      "midi": 73,
      "hit": false,
      "t": 198260.59199999843,
      "d": 975.5421124999993,
      "v": 67
    },
    {
      "midi": 49,
      "hit": false,
      "t": 199236.13411249843,
      "d": 2.7173874999862164,
      "v": 71
    },
    {
      "midi": 61,
      "hit": false,
      "t": 199238.85149999842,
      "d": 1627.715112499951,
      "v": 64
    },
    {
      "midi": 65,
      "hit": false,
      "t": 199238.85149999842,
      "d": 1627.715112499951,
      "v": 64
    },
    {
      "midi": 68,
      "hit": false,
      "t": 199238.85149999842,
      "d": 1627.715112499951,
      "v": 65
    },
    {
      "midi": 73,
      "hit": false,
      "t": 199238.85149999842,
      "d": 1627.715112499951,
      "v": 66
    },
    {
      "midi": 49,
      "hit": false,
      "t": 200214.39361249842,
      "d": 323.36911249998957,
      "v": 72
    },
    {
      "midi": 51,
      "hit": false,
      "t": 200540.4801124984,
      "d": 323.36911249998957,
      "v": 71
    },
    {
      "midi": 52,
      "hit": false,
      "t": 200869.28399999836,
      "d": 972.8247250000131,
      "v": 70
    },
    {
      "midi": 59,
      "hit": false,
      "t": 200869.28399999836,
      "d": 975.5421124999993,
      "v": 65
    },
    {
      "midi": 64,
      "hit": false,
      "t": 200869.28399999836,
      "d": 975.5421124999993,
      "v": 65
    },
    {
      "midi": 68,
      "hit": false,
      "t": 200869.28399999836,
      "d": 975.5421124999993,
      "v": 69
    },
    {
      "midi": 52,
      "hit": false,
      "t": 201847.54349999834,
      "d": 2.7173874999862164,
      "v": 68
    },
    {
      "midi": 59,
      "hit": false,
      "t": 201847.54349999834,
      "d": 975.5421124999411,
      "v": 64
    },
    {
      "midi": 64,
      "hit": false,
      "t": 201847.54349999834,
      "d": 975.5421124999411,
      "v": 62
    },
    {
      "midi": 68,
      "hit": false,
      "t": 201847.54349999834,
      "d": 975.5421124999411,
      "v": 63
    },
    {
      "midi": 52,
      "hit": false,
      "t": 202170.91261249833,
      "d": 323.36911249998957,
      "v": 72
    },
    {
      "midi": 51,
      "hit": false,
      "t": 202496.9991124983,
      "d": 323.36911249998957,
      "v": 71
    },
    {
      "midi": 49,
      "hit": false,
      "t": 202823.08561249828,
      "d": 323.36911249998957,
      "v": 72
    },
    {
      "midi": 52,
      "hit": false,
      "t": 202825.80299999827,
      "d": 323.36911249998957,
      "v": 71
    },
    {
      "midi": 59,
      "hit": false,
      "t": 202825.80299999827,
      "d": 323.36911249998957,
      "v": 69
    },
    {
      "midi": 64,
      "hit": false,
      "t": 202825.80299999827,
      "d": 323.36911249998957,
      "v": 70
    },
    {
      "midi": 68,
      "hit": false,
      "t": 202825.80299999827,
      "d": 323.36911249998957,
      "v": 65
    },
    {
      "midi": 47,
      "hit": false,
      "t": 203149.17211249826,
      "d": 323.36911249998957,
      "v": 71
    },
    {
      "midi": 54,
      "hit": false,
      "t": 203477.97599999822,
      "d": 646.7382250000082,
      "v": 71
    },
    {
      "midi": 49,
      "hit": false,
      "t": 203477.97599999822,
      "d": 975.5421124999702,
      "v": 64
    },
    {
      "midi": 61,
      "hit": false,
      "t": 203477.97599999822,
      "d": 975.5421124999702,
      "v": 67
    },
    {
      "midi": 66,
      "hit": false,
      "t": 203477.97599999822,
      "d": 975.5421124999702,
      "v": 69
    },
    {
      "midi": 70,
      "hit": false,
      "t": 203477.97599999822,
      "d": 975.5421124999702,
      "v": 64
    },
    {
      "midi": 54,
      "hit": false,
      "t": 204127.4316124982,
      "d": 323.36911249998957,
      "v": 72
    },
    {
      "midi": 42,
      "hit": false,
      "t": 204453.5181124982,
      "d": 323.36911249998957,
      "v": 71
    },
    {
      "midi": 49,
      "hit": false,
      "t": 204456.23549999818,
      "d": 975.5421124999411,
      "v": 64
    },
    {
      "midi": 61,
      "hit": false,
      "t": 204456.23549999818,
      "d": 975.5421124999411,
      "v": 67
    },
    {
      "midi": 66,
      "hit": false,
      "t": 204456.23549999818,
      "d": 975.5421124999411,
      "v": 69
    },
    {
      "midi": 70,
      "hit": false,
      "t": 204456.23549999818,
      "d": 975.5421124999411,
      "v": 64
    },
    {
      "midi": 54,
      "hit": false,
      "t": 204779.60461249817,
      "d": 323.36911249998957,
      "v": 72
    },
    {
      "midi": 42,
      "hit": false,
      "t": 205105.69111249814,
      "d": 323.36911249998957,
      "v": 71
    },
    {
      "midi": 54,
      "hit": false,
      "t": 205431.77761249812,
      "d": 2.7173874999862164,
      "v": 72
    },
    {
      "midi": 47,
      "hit": false,
      "t": 206086.66799999808,
      "d": 972.8247250000131,
      "v": 65
    },
    {
      "midi": 54,
      "hit": false,
      "t": 206086.66799999808,
      "d": 975.5421124999993,
      "v": 64
    },
    {
      "midi": 59,
      "hit": false,
      "t": 206086.66799999808,
      "d": 975.5421124999993,
      "v": 64
    },
    {
      "midi": 63,
      "hit": false,
      "t": 206086.66799999808,
      "d": 975.5421124999993,
      "v": 63
    },
    {
      "midi": 66,
      "hit": false,
      "t": 206086.66799999808,
      "d": 975.5421124999993,
      "v": 67
    },
    {
      "midi": 71,
      "hit": false,
      "t": 206086.66799999808,
      "d": 975.5421124999993,
      "v": 67
    },
    {
      "midi": 47,
      "hit": false,
      "t": 207064.92749999807,
      "d": 2.7173874999862164,
      "v": 63
    },
    {
      "midi": 54,
      "hit": false,
      "t": 207064.92749999807,
      "d": 1627.715112499951,
      "v": 65
    },
    {
      "midi": 59,
      "hit": false,
      "t": 207064.92749999807,
      "d": 1627.715112499951,
      "v": 68
    },
    {
      "midi": 63,
      "hit": false,
      "t": 207064.92749999807,
      "d": 1627.715112499951,
      "v": 65
    },
    {
      "midi": 66,
      "hit": false,
      "t": 207064.92749999807,
      "d": 1627.715112499951,
      "v": 66
    },
    {
      "midi": 71,
      "hit": false,
      "t": 207064.92749999807,
      "d": 1627.715112499951,
      "v": 67
    },
    {
      "midi": 47,
      "hit": false,
      "t": 208040.46961249807,
      "d": 323.36911249998957,
      "v": 72
    },
    {
      "midi": 49,
      "hit": false,
      "t": 208366.55611249804,
      "d": 323.36911249998957,
      "v": 71
    },
    {
      "midi": 51,
      "hit": false,
      "t": 208695.359999998,
      "d": 972.8247250000131,
      "v": 70
    },
    {
      "midi": 58,
      "hit": false,
      "t": 208695.359999998,
      "d": 975.5421124999993,
      "v": 65
    },
    {
      "midi": 63,
      "hit": false,
      "t": 208695.359999998,
      "d": 975.5421124999993,
      "v": 63
    },
    {
      "midi": 66,
      "hit": false,
      "t": 208695.359999998,
      "d": 975.5421124999993,
      "v": 67
    },
    {
      "midi": 70,
      "hit": false,
      "t": 208695.359999998,
      "d": 975.5421124999993,
      "v": 67
    },
    {
      "midi": 51,
      "hit": false,
      "t": 209670.902112498,
      "d": 2.7173874999862164,
      "v": 71
    },
    {
      "midi": 58,
      "hit": false,
      "t": 209673.619499998,
      "d": 1627.715112499951,
      "v": 64
    },
    {
      "midi": 63,
      "hit": false,
      "t": 209673.619499998,
      "d": 1627.715112499951,
      "v": 65
    },
    {
      "midi": 66,
      "hit": false,
      "t": 209673.619499998,
      "d": 1627.715112499951,
      "v": 66
    },
    {
      "midi": 70,
      "hit": false,
      "t": 209673.619499998,
      "d": 1627.715112499951,
      "v": 67
    },
    {
      "midi": 51,
      "hit": false,
      "t": 210649.161612498,
      "d": 323.36911249998957,
      "v": 72
    },
    {
      "midi": 47,
      "hit": false,
      "t": 210975.24811249797,
      "d": 323.36911249998957,
      "v": 71
    },
    {
      "midi": 52,
      "hit": false,
      "t": 211304.05199999793,
      "d": 972.8247250000131,
      "v": 69
    },
    {
      "midi": 59,
      "hit": false,
      "t": 211304.05199999793,
      "d": 975.5421124999993,
      "v": 69
    },
    {
      "midi": 64,
      "hit": false,
      "t": 211304.05199999793,
      "d": 975.5421124999993,
      "v": 67
    },
    {
      "midi": 68,
      "hit": false,
      "t": 211304.05199999793,
      "d": 975.5421124999993,
      "v": 63
    },
    {
      "midi": 71,
      "hit": false,
      "t": 211304.05199999793,
      "d": 975.5421124999993,
      "v": 63
    },
    {
      "midi": 52,
      "hit": false,
      "t": 212279.59411249793,
      "d": 2.7173874999862164,
      "v": 71
    },
    {
      "midi": 59,
      "hit": false,
      "t": 212282.31149999792,
      "d": 1627.715112499951,
      "v": 66
    },
    {
      "midi": 64,
      "hit": false,
      "t": 212282.31149999792,
      "d": 1627.715112499951,
      "v": 64
    },
    {
      "midi": 68,
      "hit": false,
      "t": 212282.31149999792,
      "d": 1627.715112499951,
      "v": 66
    },
    {
      "midi": 52,
      "hit": false,
      "t": 213257.85361249791,
      "d": 323.36911249998957,
      "v": 72
    },
    {
      "midi": 47,
      "hit": false,
      "t": 213583.9401124979,
      "d": 323.36911249998957,
      "v": 71
    },
    {
      "midi": 54,
      "hit": false,
      "t": 213912.74399999785,
      "d": 320.65172500000335,
      "v": 69
    },
    {
      "midi": 61,
      "hit": false,
      "t": 213912.74399999785,
      "d": 975.5421124999993,
      "v": 69
    },
    {
      "midi": 66,
      "hit": false,
      "t": 213912.74399999785,
      "d": 975.5421124999993,
      "v": 63
    },
    {
      "midi": 70,
      "hit": false,
      "t": 213912.74399999785,
      "d": 975.5421124999993,
      "v": 64
    },
    {
      "midi": 42,
      "hit": false,
      "t": 214236.11311249784,
      "d": 975.5421124999702,
      "v": 71
    },
    {
      "midi": 54,
      "hit": false,
      "t": 214891.00349999784,
      "d": 2.7173874999862164,
      "v": 68
    },
    {
      "midi": 61,
      "hit": false,
      "t": 214891.00349999784,
      "d": 1627.7151124999218,
      "v": 64
    },
    {
      "midi": 42,
      "hit": false,
      "t": 215540.4591124978,
      "d": 323.36911249998957,
      "v": 71
    },
    {
      "midi": 54,
      "hit": false,
      "t": 215869.26299999777,
      "d": 646.7382250000082,
      "v": 61
    },
    {
      "midi": 66,
      "hit": false,
      "t": 215869.26299999777,
      "d": 649.4556124999945,
      "v": 64
    },
    {
      "midi": 70,
      "hit": false,
      "t": 215869.26299999777,
      "d": 649.4556124999945,
      "v": 63
    },
    {
      "midi": 47,
      "hit": false,
      "t": 216521.43599999775,
      "d": 972.8247250000131,
      "v": 65
    },
    {
      "midi": 54,
      "hit": false,
      "t": 216521.43599999775,
      "d": 975.5421124999993,
      "v": 64
    },
    {
      "midi": 59,
      "hit": false,
      "t": 216521.43599999775,
      "d": 975.5421124999993,
      "v": 64
    },
    {
      "midi": 63,
      "hit": false,
      "t": 216521.43599999775,
      "d": 975.5421124999993,
      "v": 63
    },
    {
      "midi": 66,
      "hit": false,
      "t": 216521.43599999775,
      "d": 975.5421124999993,
      "v": 67
    },
    {
      "midi": 71,
      "hit": false,
      "t": 216521.43599999775,
      "d": 975.5421124999993,
      "v": 67
    },
    {
      "midi": 47,
      "hit": false,
      "t": 217499.69549999773,
      "d": 2.7173874999862164,
      "v": 63
    },
    {
      "midi": 54,
      "hit": false,
      "t": 217499.69549999773,
      "d": 1627.715112499951,
      "v": 65
    },
    {
      "midi": 59,
      "hit": false,
      "t": 217499.69549999773,
      "d": 1627.715112499951,
      "v": 68
    },
    {
      "midi": 63,
      "hit": false,
      "t": 217499.69549999773,
      "d": 1627.715112499951,
      "v": 65
    },
    {
      "midi": 66,
      "hit": false,
      "t": 217499.69549999773,
      "d": 1627.715112499951,
      "v": 66
    },
    {
      "midi": 71,
      "hit": false,
      "t": 217499.69549999773,
      "d": 1627.715112499951,
      "v": 67
    },
    {
      "midi": 47,
      "hit": false,
      "t": 218475.23761249773,
      "d": 323.36911249998957,
      "v": 72
    },
    {
      "midi": 49,
      "hit": false,
      "t": 218801.3241124977,
      "d": 323.36911249998957,
      "v": 71
    },
    {
      "midi": 51,
      "hit": false,
      "t": 219130.12799999767,
      "d": 972.8247250000131,
      "v": 70
    },
    {
      "midi": 58,
      "hit": false,
      "t": 219130.12799999767,
      "d": 975.5421124999993,
      "v": 65
    },
    {
      "midi": 63,
      "hit": false,
      "t": 219130.12799999767,
      "d": 975.5421124999993,
      "v": 63
    },
    {
      "midi": 66,
      "hit": false,
      "t": 219130.12799999767,
      "d": 975.5421124999993,
      "v": 67
    },
    {
      "midi": 70,
      "hit": false,
      "t": 219130.12799999767,
      "d": 975.5421124999993,
      "v": 67
    },
    {
      "midi": 51,
      "hit": false,
      "t": 220105.67011249767,
      "d": 2.7173874999862164,
      "v": 71
    },
    {
      "midi": 58,
      "hit": false,
      "t": 220108.38749999765,
      "d": 1627.715112499951,
      "v": 64
    },
    {
      "midi": 63,
      "hit": false,
      "t": 220108.38749999765,
      "d": 1627.715112499951,
      "v": 65
    },
    {
      "midi": 66,
      "hit": false,
      "t": 220108.38749999765,
      "d": 1627.715112499951,
      "v": 66
    },
    {
      "midi": 70,
      "hit": false,
      "t": 220108.38749999765,
      "d": 1627.715112499951,
      "v": 67
    },
    {
      "midi": 51,
      "hit": false,
      "t": 221083.92961249765,
      "d": 323.36911249998957,
      "v": 72
    },
    {
      "midi": 47,
      "hit": false,
      "t": 221410.01611249763,
      "d": 323.36911249998957,
      "v": 71
    },
    {
      "midi": 52,
      "hit": false,
      "t": 221738.8199999976,
      "d": 972.8247250000131,
      "v": 69
    },
    {
      "midi": 59,
      "hit": false,
      "t": 221738.8199999976,
      "d": 975.5421124999993,
      "v": 69
    },
    {
      "midi": 64,
      "hit": false,
      "t": 221738.8199999976,
      "d": 975.5421124999993,
      "v": 67
    },
    {
      "midi": 68,
      "hit": false,
      "t": 221738.8199999976,
      "d": 975.5421124999993,
      "v": 63
    },
    {
      "midi": 71,
      "hit": false,
      "t": 221738.8199999976,
      "d": 975.5421124999993,
      "v": 63
    },
    {
      "midi": 52,
      "hit": false,
      "t": 222714.3621124976,
      "d": 2.7173874999862164,
      "v": 71
    },
    {
      "midi": 59,
      "hit": false,
      "t": 222717.07949999758,
      "d": 1627.715112499951,
      "v": 66
    },
    {
      "midi": 64,
      "hit": false,
      "t": 222717.07949999758,
      "d": 1627.715112499951,
      "v": 64
    },
    {
      "midi": 68,
      "hit": false,
      "t": 222717.07949999758,
      "d": 1627.715112499951,
      "v": 66
    },
    {
      "midi": 52,
      "hit": false,
      "t": 223692.62161249758,
      "d": 323.36911249998957,
      "v": 72
    },
    {
      "midi": 47,
      "hit": false,
      "t": 224018.70811249755,
      "d": 323.36911249998957,
      "v": 71
    },
    {
      "midi": 54,
      "hit": false,
      "t": 224347.5119999975,
      "d": 320.65172500000335,
      "v": 69
    },
    {
      "midi": 61,
      "hit": false,
      "t": 224347.5119999975,
      "d": 975.5421124999993,
      "v": 69
    },
    {
      "midi": 66,
      "hit": false,
      "t": 224347.5119999975,
      "d": 975.5421124999993,
      "v": 63
    },
    {
      "midi": 70,
      "hit": false,
      "t": 224347.5119999975,
      "d": 975.5421124999993,
      "v": 64
    },
    {
      "midi": 42,
      "hit": false,
      "t": 224670.8811124975,
      "d": 975.5421124999702,
      "v": 71
    },
    {
      "midi": 54,
      "hit": false,
      "t": 225325.7714999975,
      "d": 2.7173874999862164,
      "v": 68
    },
    {
      "midi": 61,
      "hit": false,
      "t": 225325.7714999975,
      "d": 1627.7151124999218,
      "v": 64
    },
    {
      "midi": 42,
      "hit": false,
      "t": 225975.22711249746,
      "d": 323.36911249998957,
      "v": 71
    },
    {
      "midi": 54,
      "hit": false,
      "t": 226304.03099999743,
      "d": 646.7382250000082,
      "v": 61
    },
    {
      "midi": 66,
      "hit": false,
      "t": 226304.03099999743,
      "d": 649.4556124999945,
      "v": 64
    },
    {
      "midi": 70,
      "hit": false,
      "t": 226304.03099999743,
      "d": 649.4556124999945,
      "v": 63
    },
    {
      "midi": 47,
      "hit": false,
      "t": 226956.2039999974,
      "d": 972.8247250000131,
      "v": 65
    },
    {
      "midi": 54,
      "hit": false,
      "t": 226956.2039999974,
      "d": 975.5421124999993,
      "v": 64
    },
    {
      "midi": 59,
      "hit": false,
      "t": 226956.2039999974,
      "d": 975.5421124999993,
      "v": 64
    },
    {
      "midi": 63,
      "hit": false,
      "t": 226956.2039999974,
      "d": 975.5421124999993,
      "v": 63
    },
    {
      "midi": 66,
      "hit": false,
      "t": 226956.2039999974,
      "d": 975.5421124999993,
      "v": 67
    },
    {
      "midi": 71,
      "hit": false,
      "t": 226956.2039999974,
      "d": 975.5421124999993,
      "v": 67
    },
    {
      "midi": 47,
      "hit": false,
      "t": 227934.4634999974,
      "d": 2.7173874999862164,
      "v": 63
    },
    {
      "midi": 54,
      "hit": false,
      "t": 227934.4634999974,
      "d": 1627.715112499951,
      "v": 65
    },
    {
      "midi": 59,
      "hit": false,
      "t": 227934.4634999974,
      "d": 1627.715112499951,
      "v": 68
    },
    {
      "midi": 63,
      "hit": false,
      "t": 227934.4634999974,
      "d": 1627.715112499951,
      "v": 65
    },
    {
      "midi": 66,
      "hit": false,
      "t": 227934.4634999974,
      "d": 1627.715112499951,
      "v": 66
    },
    {
      "midi": 71,
      "hit": false,
      "t": 227934.4634999974,
      "d": 1627.715112499951,
      "v": 67
    },
    {
      "midi": 47,
      "hit": false,
      "t": 228910.0056124974,
      "d": 323.36911249998957,
      "v": 72
    },
    {
      "midi": 49,
      "hit": false,
      "t": 229236.09211249737,
      "d": 323.36911249998957,
      "v": 71
    },
    {
      "midi": 51,
      "hit": false,
      "t": 229564.89599999733,
      "d": 972.8247250000131,
      "v": 70
    },
    {
      "midi": 58,
      "hit": false,
      "t": 229564.89599999733,
      "d": 975.5421124999993,
      "v": 65
    },
    {
      "midi": 63,
      "hit": false,
      "t": 229564.89599999733,
      "d": 975.5421124999993,
      "v": 63
    },
    {
      "midi": 66,
      "hit": false,
      "t": 229564.89599999733,
      "d": 975.5421124999993,
      "v": 67
    },
    {
      "midi": 70,
      "hit": false,
      "t": 229564.89599999733,
      "d": 975.5421124999993,
      "v": 67
    },
    {
      "midi": 51,
      "hit": false,
      "t": 230540.43811249733,
      "d": 2.7173874999862164,
      "v": 71
    },
    {
      "midi": 58,
      "hit": false,
      "t": 230543.15549999732,
      "d": 1627.715112499951,
      "v": 64
    },
    {
      "midi": 63,
      "hit": false,
      "t": 230543.15549999732,
      "d": 1627.715112499951,
      "v": 65
    },
    {
      "midi": 66,
      "hit": false,
      "t": 230543.15549999732,
      "d": 1627.715112499951,
      "v": 66
    },
    {
      "midi": 70,
      "hit": false,
      "t": 230543.15549999732,
      "d": 1627.715112499951,
      "v": 67
    },
    {
      "midi": 51,
      "hit": false,
      "t": 231518.69761249732,
      "d": 323.36911249998957,
      "v": 72
    },
    {
      "midi": 47,
      "hit": false,
      "t": 231844.7841124973,
      "d": 323.36911249998957,
      "v": 71
    },
    {
      "midi": 52,
      "hit": false,
      "t": 232173.58799999725,
      "d": 972.8247250000131,
      "v": 69
    },
    {
      "midi": 59,
      "hit": false,
      "t": 232173.58799999725,
      "d": 975.5421124999993,
      "v": 69
    },
    {
      "midi": 64,
      "hit": false,
      "t": 232173.58799999725,
      "d": 975.5421124999993,
      "v": 67
    },
    {
      "midi": 68,
      "hit": false,
      "t": 232173.58799999725,
      "d": 975.5421124999993,
      "v": 63
    },
    {
      "midi": 71,
      "hit": false,
      "t": 232173.58799999725,
      "d": 975.5421124999993,
      "v": 63
    },
    {
      "midi": 52,
      "hit": false,
      "t": 233149.13011249725,
      "d": 2.7173874999862164,
      "v": 71
    },
    {
      "midi": 59,
      "hit": false,
      "t": 233151.84749999724,
      "d": 1627.715112499951,
      "v": 66
    },
    {
      "midi": 64,
      "hit": false,
      "t": 233151.84749999724,
      "d": 1627.715112499951,
      "v": 64
    },
    {
      "midi": 68,
      "hit": false,
      "t": 233151.84749999724,
      "d": 1627.715112499951,
      "v": 66
    },
    {
      "midi": 52,
      "hit": false,
      "t": 234127.38961249724,
      "d": 323.36911249998957,
      "v": 72
    },
    {
      "midi": 47,
      "hit": false,
      "t": 234453.4761124972,
      "d": 323.36911249998957,
      "v": 71
    },
    {
      "midi": 54,
      "hit": false,
      "t": 234782.27999999718,
      "d": 320.65172500000335,
      "v": 69
    },
    {
      "midi": 61,
      "hit": false,
      "t": 234782.27999999718,
      "d": 975.5421124999993,
      "v": 69
    },
    {
      "midi": 66,
      "hit": false,
      "t": 234782.27999999718,
      "d": 975.5421124999993,
      "v": 63
    },
    {
      "midi": 70,
      "hit": false,
      "t": 234782.27999999718,
      "d": 975.5421124999993,
      "v": 64
    },
    {
      "midi": 71,
      "hit": false,
      "t": 234782.27999999718,
      "d": 975.5421124999993,
      "v": 119
    },
    {
      "midi": 75,
      "hit": false,
      "t": 234782.27999999718,
      "d": 975.5421124999993,
      "v": 100
    },
    {
      "midi": 42,
      "hit": false,
      "t": 235105.64911249717,
      "d": 975.5421124999702,
      "v": 71
    },
    {
      "midi": 54,
      "hit": false,
      "t": 235760.53949999716,
      "d": 2.7173874999862164,
      "v": 68
    },
    {
      "midi": 66,
      "hit": false,
      "t": 235760.53949999716,
      "d": 975.5421124999411,
      "v": 119
    },
    {
      "midi": 71,
      "hit": false,
      "t": 235760.53949999716,
      "d": 975.5421124999411,
      "v": 100
    },
    {
      "midi": 61,
      "hit": false,
      "t": 235760.53949999716,
      "d": 1627.7151124999218,
      "v": 64
    },
    {
      "midi": 42,
      "hit": false,
      "t": 236409.99511249713,
      "d": 323.36911249998957,
      "v": 71
    },
    {
      "midi": 54,
      "hit": false,
      "t": 236738.7989999971,
      "d": 646.7382250000082,
      "v": 61
    },
    {
      "midi": 64,
      "hit": false,
      "t": 236738.7989999971,
      "d": 649.4556124999945,
      "v": 119
    },
    {
      "midi": 66,
      "hit": false,
      "t": 236738.7989999971,
      "d": 649.4556124999945,
      "v": 64
    },
    {
      "midi": 70,
      "hit": false,
      "t": 236738.7989999971,
      "d": 649.4556124999945,
      "v": 63
    },
    {
      "midi": 71,
      "hit": false,
      "t": 236738.7989999971,
      "d": 649.4556124999945,
      "v": 110
    },
    {
      "midi": 47,
      "hit": false,
      "t": 237390.97199999707,
      "d": 972.8247250000131,
      "v": 65
    },
    {
      "midi": 54,
      "hit": false,
      "t": 237390.97199999707,
      "d": 975.5421124999993,
      "v": 64
    },
    {
      "midi": 59,
      "hit": false,
      "t": 237390.97199999707,
      "d": 975.5421124999993,
      "v": 64
    },
    {
      "midi": 63,
      "hit": false,
      "t": 237390.97199999707,
      "d": 975.5421124999993,
      "v": 127
    },
    {
      "midi": 66,
      "hit": false,
      "t": 237390.97199999707,
      "d": 975.5421124999993,
      "v": 110
    },
    {
      "midi": 71,
      "hit": false,
      "t": 237390.97199999707,
      "d": 975.5421124999993,
      "v": 67
    },
    {
      "midi": 47,
      "hit": false,
      "t": 238369.23149999705,
      "d": 2.7173874999862164,
      "v": 63
    },
    {
      "midi": 63,
      "hit": false,
      "t": 238369.23149999705,
      "d": 1301.6286124999751,
      "v": 65
    },
    {
      "midi": 66,
      "hit": false,
      "t": 238369.23149999705,
      "d": 1301.6286124999751,
      "v": 66
    },
    {
      "midi": 54,
      "hit": false,
      "t": 238369.23149999705,
      "d": 1627.715112499951,
      "v": 65
    },
    {
      "midi": 59,
      "hit": false,
      "t": 238369.23149999705,
      "d": 1627.715112499951,
      "v": 68
    },
    {
      "midi": 71,
      "hit": false,
      "t": 238369.23149999705,
      "d": 1627.715112499951,
      "v": 67
    },
    {
      "midi": 47,
      "hit": false,
      "t": 239344.77361249705,
      "d": 323.36911249998957,
      "v": 72
    },
    {
      "midi": 49,
      "hit": false,
      "t": 239670.86011249703,
      "d": 323.36911249998957,
      "v": 71
    },
    {
      "midi": 51,
      "hit": false,
      "t": 239999.663999997,
      "d": 972.8247250000131,
      "v": 70
    },
    {
      "midi": 58,
      "hit": false,
      "t": 239999.663999997,
      "d": 975.5421124999993,
      "v": 65
    },
    {
      "midi": 63,
      "hit": false,
      "t": 239999.663999997,
      "d": 975.5421124999993,
      "v": 63
    },
    {
      "midi": 66,
      "hit": false,
      "t": 239999.663999997,
      "d": 975.5421124999993,
      "v": 67
    },
    {
      "midi": 70,
      "hit": false,
      "t": 239999.663999997,
      "d": 975.5421124999993,
      "v": 67
    },
    {
      "midi": 51,
      "hit": false,
      "t": 240975.206112497,
      "d": 2.7173874999862164,
      "v": 71
    },
    {
      "midi": 58,
      "hit": false,
      "t": 240977.92349999698,
      "d": 1627.715112499951,
      "v": 64
    },
    {
      "midi": 63,
      "hit": false,
      "t": 240977.92349999698,
      "d": 1627.715112499951,
      "v": 65
    },
    {
      "midi": 66,
      "hit": false,
      "t": 240977.92349999698,
      "d": 1627.715112499951,
      "v": 66
    },
    {
      "midi": 70,
      "hit": false,
      "t": 240977.92349999698,
      "d": 1627.715112499951,
      "v": 67
    },
    {
      "midi": 51,
      "hit": false,
      "t": 241953.46561249698,
      "d": 323.36911249998957,
      "v": 72
    },
    {
      "midi": 47,
      "hit": false,
      "t": 242279.55211249695,
      "d": 323.36911249998957,
      "v": 71
    },
    {
      "midi": 52,
      "hit": false,
      "t": 242608.35599999691,
      "d": 972.8247250000131,
      "v": 69
    },
    {
      "midi": 59,
      "hit": false,
      "t": 242608.35599999691,
      "d": 975.5421124999993,
      "v": 69
    },
    {
      "midi": 64,
      "hit": false,
      "t": 242608.35599999691,
      "d": 975.5421124999993,
      "v": 67
    },
    {
      "midi": 68,
      "hit": false,
      "t": 242608.35599999691,
      "d": 975.5421124999993,
      "v": 63
    },
    {
      "midi": 71,
      "hit": false,
      "t": 242608.35599999691,
      "d": 975.5421124999993,
      "v": 63
    },
    {
      "midi": 52,
      "hit": false,
      "t": 243583.8981124969,
      "d": 2.7173874999862164,
      "v": 71
    },
    {
      "midi": 59,
      "hit": false,
      "t": 243586.6154999969,
      "d": 1627.715112499951,
      "v": 66
    },
    {
      "midi": 64,
      "hit": false,
      "t": 243586.6154999969,
      "d": 1627.715112499951,
      "v": 64
    },
    {
      "midi": 68,
      "hit": false,
      "t": 243586.6154999969,
      "d": 1627.715112499951,
      "v": 66
    },
    {
      "midi": 52,
      "hit": false,
      "t": 244562.1576124969,
      "d": 323.36911249998957,
      "v": 72
    },
    {
      "midi": 47,
      "hit": false,
      "t": 244888.24411249688,
      "d": 323.36911249998957,
      "v": 71
    },
    {
      "midi": 54,
      "hit": false,
      "t": 245217.04799999684,
      "d": 320.65172500000335,
      "v": 69
    },
    {
      "midi": 61,
      "hit": false,
      "t": 245217.04799999684,
      "d": 975.5421124999993,
      "v": 69
    },
    {
      "midi": 66,
      "hit": false,
      "t": 245217.04799999684,
      "d": 975.5421124999993,
      "v": 63
    },
    {
      "midi": 70,
      "hit": false,
      "t": 245217.04799999684,
      "d": 975.5421124999993,
      "v": 64
    },
    {
      "midi": 71,
      "hit": false,
      "t": 245217.04799999684,
      "d": 975.5421124999993,
      "v": 119
    },
    {
      "midi": 75,
      "hit": false,
      "t": 245217.04799999684,
      "d": 975.5421124999993,
      "v": 100
    },
    {
      "midi": 42,
      "hit": false,
      "t": 245540.41711249683,
      "d": 975.5421124999702,
      "v": 71
    },
    {
      "midi": 54,
      "hit": false,
      "t": 246195.30749999682,
      "d": 2.7173874999862164,
      "v": 68
    },
    {
      "midi": 66,
      "hit": false,
      "t": 246195.30749999682,
      "d": 975.5421124999411,
      "v": 119
    },
    {
      "midi": 71,
      "hit": false,
      "t": 246195.30749999682,
      "d": 975.5421124999411,
      "v": 100
    },
    {
      "midi": 61,
      "hit": false,
      "t": 246195.30749999682,
      "d": 1627.7151124999218,
      "v": 64
    },
    {
      "midi": 42,
      "hit": false,
      "t": 246844.7631124968,
      "d": 323.36911249998957,
      "v": 71
    },
    {
      "midi": 54,
      "hit": false,
      "t": 247173.56699999675,
      "d": 646.7382250000082,
      "v": 61
    },
    {
      "midi": 64,
      "hit": false,
      "t": 247173.56699999675,
      "d": 649.4556124999945,
      "v": 119
    },
    {
      "midi": 66,
      "hit": false,
      "t": 247173.56699999675,
      "d": 649.4556124999945,
      "v": 64
    },
    {
      "midi": 70,
      "hit": false,
      "t": 247173.56699999675,
      "d": 649.4556124999945,
      "v": 63
    },
    {
      "midi": 71,
      "hit": false,
      "t": 247173.56699999675,
      "d": 649.4556124999945,
      "v": 110
    },
    {
      "midi": 47,
      "hit": false,
      "t": 247823.02261249674,
      "d": 3260.8649999999907,
      "v": 72
    },
    {
      "midi": 51,
      "hit": false,
      "t": 247825.73999999673,
      "d": 3260.8649999999907,
      "v": 65
    },
    {
      "midi": 54,
      "hit": false,
      "t": 247825.73999999673,
      "d": 3260.8649999999907,
      "v": 65
    },
    {
      "midi": 59,
      "hit": false,
      "t": 247825.73999999673,
      "d": 3260.8649999999907,
      "v": 65
    },
    {
      "midi": 63,
      "hit": false,
      "t": 247825.73999999673,
      "d": 3260.8649999999907,
      "v": 127
    },
    {
      "midi": 66,
      "hit": false,
      "t": 247825.73999999673,
      "d": 3260.8649999999907,
      "v": 110
    },
    {
      "midi": 71,
      "hit": false,
      "t": 247825.73999999673,
      "d": 3260.8649999999907,
      "v": 65
    }
  ]
}