{
  "jsonPath": "Soundtracks/Hollywood/John Travolta/right-time-of-the-night.json",
  "path": "Soundtracks\\Hollywood\\John Travolta\\Right Time Of The Night.mid",
  "name": "Right Time Of The Night",
  "difficulty": "Advanced",
  "bpm": 100,
  "notes": [
    {
      "midi": 60,
      "hit": false,
      "t": 2400,
      "d": 1200,
      "v": 65
    },
    {
      "midi": 68,
      "hit": false,
      "t": 2700,
      "d": 900,
      "v": 54
    },
    {
      "midi": 56,
      "hit": false,
      "t": 3600,
      "d": 1200,
      "v": 66
    },
    {
      "midi": 65,
      "hit": false,
      "t": 3600,
      "d": 1200,
      "v": 46
    },
    {
      "midi": 60,
      "hit": false,
      "t": 4800,
      "d": 1200,
      "v": 65
    },
    {
      "midi": 68,
      "hit": false,
      "t": 5100,
      "d": 900,
      "v": 54
    },
    {
      "midi": 56,
      "hit": false,
      "t": 6000,
      "d": 1200,
      "v": 65
    },
    {
      "midi": 65,
      "hit": false,
      "t": 6300,
      "d": 900,
      "v": 54
    },
    {
      "midi": 60,
      "hit": false,
      "t": 7200,
      "d": 850,
      "v": 65
    },
    {
      "midi": 68,
      "hit": false,
      "t": 7500,
      "d": 550,
      "v": 54
    },
    {
      "midi": 56,
      "hit": false,
      "t": 8100,
      "d": 1490,
      "v": 66
    },
    {
      "midi": 65,
      "hit": false,
      "t": 8100,
      "d": 1490,
      "v": 46
    },
    {
      "midi": 60,
      "hit": false,
      "t": 9900,
      "d": 2100,
      "v": 66
    },
    {
      "midi": 68,
      "hit": false,
      "t": 10200,
      "d": 1800,
      "v": 58
    },
    {
      "midi": 75,
      "hit": false,
      "t": 10500,
      "d": 1500,
      "v": 50
    },
    {
      "midi": 49,
      "hit": false,
      "t": 12000,
      "d": 2400,
      "v": 61
    },
    {
      "midi": 61,
      "hit": false,
      "t": 12000,
      "d": 2400,
      "v": 83
    },
    {
      "midi": 65,
      "hit": false,
      "t": 12000,
      "d": 2400,
      "v": 49
    },
    {
      "midi": 68,
      "hit": false,
      "t": 12000,
      "d": 2400,
      "v": 62
    },
    {
      "midi": 56,
      "hit": false,
      "t": 14400,
      "d": 2050,
      "v": 70
    },
    {
      "midi": 58,
      "hit": false,
      "t": 14400,
      "d": 2050,
      "v": 60
    },
    {
      "midi": 61,
      "hit": false,
      "t": 14400,
      "d": 2050,
      "v": 47
    },
    {
      "midi": 65,
      "hit": false,
      "t": 14400,
      "d": 2050,
      "v": 62
    },
    {
      "midi": 61,
      "hit": false,
      "t": 16500,
      "d": 4750,
      "v": 63
    },
    {
      "midi": 68,
      "hit": false,
      "t": 17100,
      "d": 4150,
      "v": 80
    },
    {
      "midi": 65,
      "hit": false,
      "t": 17400,
      "d": 3850,
      "v": 57
    },
    {
      "midi": 56,
      "hit": false,
      "t": 17700,
      "d": 3550,
      "v": 80
    },
    {
      "midi": 70,
      "hit": false,
      "t": 20400,
      "d": 850,
      "v": 47
    },
    {
      "midi": 60,
      "hit": false,
      "t": 21300,
      "d": 1490,
      "v": 66
    },
    {
      "midi": 68,
      "hit": false,
      "t": 21300,
      "d": 1490,
      "v": 46
    },
    {
      "midi": 58,
      "hit": false,
      "t": 22800,
      "d": 1200,
      "v": 66
    },
    {
      "midi": 63,
      "hit": false,
      "t": 22800,
      "d": 1200,
      "v": 46
    },
    {
      "midi": 56,
      "hit": false,
      "t": 24000,
      "d": 1200,
      "v": 65
    },
    {
      "midi": 65,
      "hit": false,
      "t": 24300,
      "d": 900,
      "v": 54
    },
    {
      "midi": 56,
      "hit": false,
      "t": 25200,
      "d": 850,
      "v": 65
    },
    {
      "midi": 61,
      "hit": false,
      "t": 25500,
      "d": 550,
      "v": 54
    },
    {
      "midi": 60,
      "hit": false,
      "t": 26100,
      "d": 1150,
      "v": 66
    },
    {
      "midi": 68,
      "hit": false,
      "t": 26100,
      "d": 1150,
      "v": 46
    },
    {
      "midi": 58,
      "hit": false,
      "t": 27300,
      "d": 1490,
      "v": 65
    },
    {
      "midi": 63,
      "hit": false,
      "t": 27900,
      "d": 900,
      "v": 54
    },
    {
      "midi": 56,
      "hit": false,
      "t": 28800,
      "d": 850,
      "v": 66
    },
    {
      "midi": 65,
      "hit": false,
      "t": 28800,
      "d": 850,
      "v": 46
    },
    {
      "midi": 56,
      "hit": false,
      "t": 29700,
      "d": 1150,
      "v": 66
    },
    {
      "midi": 61,
      "hit": false,
      "t": 29700,
      "d": 1150,
      "v": 46
    },
    {
      "midi": 60,
      "hit": false,
      "t": 30900,
      "d": 1150,
      "v": 65
    },
    {
      "midi": 68,
      "hit": false,
      "t": 31500,
      "d": 550,
      "v": 54
    },
    {
      "midi": 58,
      "hit": false,
      "t": 32100,
      "d": 1490,
      "v": 66
    },
    {
      "midi": 63,
      "hit": false,
      "t": 32100,
      "d": 1490,
      "v": 46
    },
    {
      "midi": 56,
      "hit": false,
      "t": 33600,
      "d": 850,
      "v": 65
    },
    {
      "midi": 65,
      "hit": false,
      "t": 33900,
      "d": 550,
      "v": 54
    },
    {
      "midi": 56,
      "hit": false,
      "t": 35100,
      "d": 900,
      "v": 59
    },
    {
      "midi": 61,
      "hit": false,
      "t": 35100,
      "d": 900,
      "v": 56
    },
    {
      "midi": 60,
      "hit": false,
      "t": 36000,
      "d": 1200,
      "v": 65
    },
    {
      "midi": 68,
      "hit": false,
      "t": 36300,
      "d": 900,
      "v": 54
    },
    {
      "midi": 56,
      "hit": false,
      "t": 37200,
      "d": 1200,
      "v": 66
    },
    {
      "midi": 61,
      "hit": false,
      "t": 37200,
      "d": 1200,
      "v": 46
    },
    {
      "midi": 60,
      "hit": false,
      "t": 38400,
      "d": 1200,
      "v": 65
    },
    {
      "midi": 68,
      "hit": false,
      "t": 38700,
      "d": 900,
      "v": 54
    },
    {
      "midi": 56,
      "hit": false,
      "t": 39600,
      "d": 850,
      "v": 65
    },
    {
      "midi": 61,
      "hit": false,
      "t": 39900,
      "d": 550,
      "v": 54
    },
    {
      "midi": 60,
      "hit": false,
      "t": 40500,
      "d": 1490,
      "v": 66
    },
    {
      "midi": 68,
      "hit": false,
      "t": 40500,
      "d": 1490,
      "v": 46
    },
    {
      "midi": 56,
      "hit": false,
      "t": 42300,
      "d": 900,
      "v": 59
    },
    {
      "midi": 65,
      "hit": false,
      "t": 42300,
      "d": 900,
      "v": 56
    },
    {
      "midi": 60,
      "hit": false,
      "t": 43200,
      "d": 850,
      "v": 66
    },
    {
      "midi": 68,
      "hit": false,
      "t": 43200,
      "d": 850,
      "v": 46
    },
    {
      "midi": 56,
      "hit": false,
      "t": 44100,
      "d": 1490,
      "v": 65
    },
    {
      "midi": 65,
      "hit": false,
      "t": 44700,
      "d": 900,
      "v": 54
    },
    {
      "midi": 60,
      "hit": false,
      "t": 45900,
      "d": 550,
      "v": 59
    },
    {
      "midi": 68,
      "hit": false,
      "t": 45900,
      "d": 550,
      "v": 56
    },
    {
      "midi": 56,
      "hit": false,
      "t": 47100,
      "d": 550,
      "v": 59
    },
    {
      "midi": 65,
      "hit": false,
      "t": 47100,
      "d": 550,
      "v": 56
    },
    {
      "midi": 60,
      "hit": false,
      "t": 47700,
      "d": 2350,
      "v": 70
    },
    {
      "midi": 63,
      "hit": false,
      "t": 47700,
      "d": 2350,
      "v": 60
    },
    {
      "midi": 68,
      "hit": false,
      "t": 47700,
      "d": 2350,
      "v": 47
    },
    {
      "midi": 72,
      "hit": false,
      "t": 47700,
      "d": 2350,
      "v": 62
    },
    {
      "midi": 56,
      "hit": false,
      "t": 50700,
      "d": 2100,
      "v": 66
    },
    {
      "midi": 65,
      "hit": false,
      "t": 51000,
      "d": 1800,
      "v": 58
    },
    {
      "midi": 73,
      "hit": false,
      "t": 51300,
      "d": 1500,
      "v": 50
    },
    {
      "midi": 46,
      "hit": false,
      "t": 52800,
      "d": 2400,
      "v": 61
    },
    {
      "midi": 56,
      "hit": false,
      "t": 52800,
      "d": 2400,
      "v": 83
    },
    {
      "midi": 58,
      "hit": false,
      "t": 52800,
      "d": 2400,
      "v": 49
    },
    {
      "midi": 61,
      "hit": false,
      "t": 52800,
      "d": 2400,
      "v": 72
    },
    {
      "midi": 65,
      "hit": false,
      "t": 52800,
      "d": 2400,
      "v": 62
    },
    {
      "midi": 58,
      "hit": false,
      "t": 55200,
      "d": 4790,
      "v": 57
    },
    {
      "midi": 61,
      "hit": false,
      "t": 55200,
      "d": 4790,
      "v": 57
    },
    {
      "midi": 65,
      "hit": false,
      "t": 55200,
      "d": 4790,
      "v": 57
    },
    {
      "midi": 68,
      "hit": false,
      "t": 55200,
      "d": 4790,
      "v": 57
    },
    {
      "midi": 60,
      "hit": false,
      "t": 60000,
      "d": 850,
      "v": 65
    },
    {
      "midi": 68,
      "hit": false,
      "t": 60300,
      "d": 550,
      "v": 54
    },
    {
      "midi": 58,
      "hit": false,
      "t": 61500,
      "d": 900,
      "v": 59
    },
    {
      "midi": 63,
      "hit": false,
      "t": 61500,
      "d": 900,
      "v": 56
    },
    {
      "midi": 56,
      "hit": false,
      "t": 62700,
      "d": 900,
      "v": 59
    },
    {
      "midi": 65,
      "hit": false,
      "t": 62700,
      "d": 900,
      "v": 56
    },
    {
      "midi": 56,
      "hit": false,
      "t": 63900,
      "d": 900,
      "v": 59
    },
    {
      "midi": 61,
      "hit": false,
      "t": 63900,
      "d": 900,
      "v": 56
    },
    {
      "midi": 60,
      "hit": false,
      "t": 65100,
      "d": 900,
      "v": 59
    },
    {
      "midi": 68,
      "hit": false,
      "t": 65100,
      "d": 900,
      "v": 56
    },
    {
      "midi": 58,
      "hit": false,
      "t": 66000,
      "d": 1200,
      "v": 66
    },
    {
      "midi": 63,
      "hit": false,
      "t": 66000,
      "d": 1200,
      "v": 46
    },
    {
      "midi": 56,
      "hit": false,
      "t": 67500,
      "d": 900,
      "v": 59
    },
    {
      "midi": 65,
      "hit": false,
      "t": 67500,
      "d": 900,
      "v": 56
    },
    {
      "midi": 56,
      "hit": false,
      "t": 68700,
      "d": 900,
      "v": 59
    },
    {
      "midi": 61,
      "hit": false,
      "t": 68700,
      "d": 900,
      "v": 56
    },
    {
      "midi": 60,
      "hit": false,
      "t": 69900,
      "d": 550,
      "v": 59
    },
    {
      "midi": 68,
      "hit": false,
      "t": 69900,
      "d": 550,
      "v": 56
    },
    {
      "midi": 58,
      "hit": false,
      "t": 71100,
      "d": 550,
      "v": 59
    },
    {
      "midi": 63,
      "hit": false,
      "t": 71100,
      "d": 550,
      "v": 56
    },
    {
      "midi": 56,
      "hit": false,
      "t": 71700,
      "d": 1490,
      "v": 66
    },
    {
      "midi": 65,
      "hit": false,
      "t": 71700,
      "d": 1490,
      "v": 46
    },
    {
      "midi": 56,
      "hit": false,
      "t": 73200,
      "d": 1200,
      "v": 66
    },
    {
      "midi": 61,
      "hit": false,
      "t": 73200,
      "d": 1200,
      "v": 46
    },
    {
      "midi": 60,
      "hit": false,
      "t": 74400,
      "d": 1200,
      "v": 65
    },
    {
      "midi": 68,
      "hit": false,
      "t": 74700,
      "d": 900,
      "v": 54
    },
    {
      "midi": 56,
      "hit": false,
      "t": 75600,
      "d": 850,
      "v": 65
    },
    {
      "midi": 61,
      "hit": false,
      "t": 75900,
      "d": 550,
      "v": 54
    },
    {
      "midi": 60,
      "hit": false,
      "t": 76500,
      "d": 2350,
      "v": 70
    },
    {
      "midi": 63,
      "hit": false,
      "t": 76500,
      "d": 2350,
      "v": 60
    },
    {
      "midi": 68,
      "hit": false,
      "t": 76500,
      "d": 2350,
      "v": 47
    },
    {
      "midi": 72,
      "hit": false,
      "t": 76500,
      "d": 2350,
      "v": 62
    },
    {
      "midi": 55,
      "hit": false,
      "t": 78900,
      "d": 4195,
      "v": 83
    },
    {
      "midi": 58,
      "hit": false,
      "t": 78900,
      "d": 4415,
      "v": 49
    },
    {
      "midi": 39,
      "hit": false,
      "t": 78900,
      "d": 5045,
      "v": 61
    },
    {
      "midi": 61,
      "hit": false,
      "t": 78900,
      "d": 5090,
      "v": 72
    },
    {
      "midi": 63,
      "hit": false,
      "t": 78900,
      "d": 5090,
      "v": 62
    },
    {
      "midi": 51,
      "hit": false,
      "t": 83100,
      "d": 860,
      "v": 64
    },
    {
      "midi": 55,
      "hit": false,
      "t": 83400,
      "d": 560,
      "v": 72
    },
    {
      "midi": 58,
      "hit": false,
      "t": 83850,
      "d": 150,
      "v": 55
    },
    {
      "midi": 58,
      "hit": false,
      "t": 84000,
      "d": 1200,
      "v": 66
    },
    {
      "midi": 63,
      "hit": false,
      "t": 84000,
      "d": 1200,
      "v": 46
    },
    {
      "midi": 58,
      "hit": false,
      "t": 85200,
      "d": 1200,
      "v": 65
    },
    {
      "midi": 64,
      "hit": false,
      "t": 85500,
      "d": 900,
      "v": 54
    },
    {
      "midi": 56,
      "hit": false,
      "t": 86400,
      "d": 2050,
      "v": 70
    },
    {
      "midi": 60,
      "hit": false,
      "t": 86400,
      "d": 2050,
      "v": 60
    },
    {
      "midi": 65,
      "hit": false,
      "t": 86400,
      "d": 2050,
      "v": 47
    },
    {
      "midi": 68,
      "hit": false,
      "t": 86400,
      "d": 2050,
      "v": 62
    },
    {
      "midi": 56,
      "hit": false,
      "t": 88500,
      "d": 2965,
      "v": 70
    },
    {
      "midi": 58,
      "hit": false,
      "t": 88500,
      "d": 2985,
      "v": 60
    },
    {
      "midi": 62,
      "hit": false,
      "t": 88500,
      "d": 3580,
      "v": 47
    },
    {
      "midi": 65,
      "hit": false,
      "t": 88500,
      "d": 3735,
      "v": 62
    },
    {
      "midi": 56,
      "hit": false,
      "t": 91800,
      "d": 1550,
      "v": 69
    },
    {
      "midi": 58,
      "hit": false,
      "t": 92100,
      "d": 1220,
      "v": 41
    },
    {
      "midi": 62,
      "hit": false,
      "t": 92700,
      "d": 650,
      "v": 36
    },
    {
      "midi": 70,
      "hit": false,
      "t": 93000,
      "d": 350,
      "v": 47
    },
    {
      "midi": 56,
      "hit": false,
      "t": 93900,
      "d": 2100,
      "v": 66
    },
    {
      "midi": 65,
      "hit": false,
      "t": 94200,
      "d": 1800,
      "v": 58
    },
    {
      "midi": 73,
      "hit": false,
      "t": 94500,
      "d": 1500,
      "v": 50
    },
    {
      "midi": 58,
      "hit": false,
      "t": 96000,
      "d": 2400,
      "v": 57
    },
    {
      "midi": 61,
      "hit": false,
      "t": 96000,
      "d": 2400,
      "v": 57
    },
    {
      "midi": 65,
      "hit": false,
      "t": 96000,
      "d": 2400,
      "v": 57
    },
    {
      "midi": 68,
      "hit": false,
      "t": 96000,
      "d": 2400,
      "v": 57
    },
    {
      "midi": 60,
      "hit": false,
      "t": 98400,
      "d": 1200,
      "v": 66
    },
    {
      "midi": 68,
      "hit": false,
      "t": 98400,
      "d": 1200,
      "v": 46
    },
    {
      "midi": 58,
      "hit": false,
      "t": 99600,
      "d": 850,
      "v": 66
    },
    {
      "midi": 63,
      "hit": false,
      "t": 99600,
      "d": 850,
      "v": 46
    },
    {
      "midi": 56,
      "hit": false,
      "t": 100500,
      "d": 1150,
      "v": 66
    },
    {
      "midi": 65,
      "hit": false,
      "t": 100500,
      "d": 1150,
      "v": 46
    },
    {
      "midi": 56,
      "hit": false,
      "t": 101700,
      "d": 1150,
      "v": 65
    },
    {
      "midi": 61,
      "hit": false,
      "t": 102300,
      "d": 550,
      "v": 54
    },
    {
      "midi": 60,
      "hit": false,
      "t": 102900,
      "d": 1490,
      "v": 66
    },
    {
      "midi": 68,
      "hit": false,
      "t": 102900,
      "d": 1490,
      "v": 46
    },
    {
      "midi": 58,
      "hit": false,
      "t": 104400,
      "d": 850,
      "v": 66
    },
    {
      "midi": 63,
      "hit": false,
      "t": 104400,
      "d": 850,
      "v": 46
    },
    {
      "midi": 56,
      "hit": false,
      "t": 105900,
      "d": 550,
      "v": 59
    },
    {
      "midi": 65,
      "hit": false,
      "t": 105900,
      "d": 550,
      "v": 56
    },
    {
      "midi": 56,
      "hit": false,
      "t": 106500,
      "d": 1150,
      "v": 65
    },
    {
      "midi": 61,
      "hit": false,
      "t": 107100,
      "d": 550,
      "v": 54
    },
    {
      "midi": 60,
      "hit": false,
      "t": 107700,
      "d": 1150,
      "v": 66
    },
    {
      "midi": 68,
      "hit": false,
      "t": 107700,
      "d": 1150,
      "v": 46
    },
    {
      "midi": 58,
      "hit": false,
      "t": 108900,
      "d": 1490,
      "v": 65
    },
    {
      "midi": 63,
      "hit": false,
      "t": 109500,
      "d": 900,
      "v": 54
    },
    {
      "midi": 56,
      "hit": false,
      "t": 110700,
      "d": 550,
      "v": 59
    },
    {
      "midi": 65,
      "hit": false,
      "t": 110700,
      "d": 550,
      "v": 56
    },
    {
      "midi": 56,
      "hit": false,
      "t": 111900,
      "d": 900,
      "v": 59
    },
    {
      "midi": 61,
      "hit": false,
      "t": 111900,
      "d": 900,
      "v": 56
    },
    {
      "midi": 60,
      "hit": false,
      "t": 112800,
      "d": 850,
      "v": 65
    },
    {
      "midi": 68,
      "hit": false,
      "t": 113100,
      "d": 550,
      "v": 54
    },
    {
      "midi": 56,
      "hit": false,
      "t": 113700,
      "d": 1490,
      "v": 65
    },
    {
      "midi": 61,
      "hit": false,
      "t": 114300,
      "d": 900,
      "v": 54
    },
    {
      "midi": 57,
      "hit": false,
      "t": 115200,
      "d": 1200,
      "v": 66
    },
    {
      "midi": 62,
      "hit": false,
      "t": 115200,
      "d": 1200,
      "v": 46
    },
    {
      "midi": 57,
      "hit": false,
      "t": 116700,
      "d": 550,
      "v": 59
    },
    {
      "midi": 62,
      "hit": false,
      "t": 116700,
      "d": 550,
      "v": 56
    },
    {
      "midi": 52,
      "hit": false,
      "t": 117900,
      "d": 550,
      "v": 59
    },
    {
      "midi": 61,
      "hit": false,
      "t": 117900,
      "d": 550,
      "v": 56
    },
    {
      "midi": 59,
      "hit": false,
      "t": 119100,
      "d": 550,
      "v": 59
    },
    {
      "midi": 64,
      "hit": false,
      "t": 119100,
      "d": 550,
      "v": 56
    },
    {
      "midi": 57,
      "hit": false,
      "t": 120300,
      "d": 900,
      "v": 59
    },
    {
      "midi": 66,
      "hit": false,
      "t": 120300,
      "d": 900,
      "v": 56
    },
    {
      "midi": 57,
      "hit": false,
      "t": 121200,
      "d": 1200,
      "v": 66
    },
    {
      "midi": 62,
      "hit": false,
      "t": 121200,
      "d": 1200,
      "v": 46
    },
    {
      "midi": 52,
      "hit": false,
      "t": 122700,
      "d": 550,
      "v": 59
    },
    {
      "midi": 61,
      "hit": false,
      "t": 122700,
      "d": 550,
      "v": 56
    },
    {
      "midi": 59,
      "hit": false,
      "t": 123900,
      "d": 550,
      "v": 59
    },
    {
      "midi": 64,
      "hit": false,
      "t": 123900,
      "d": 550,
      "v": 56
    },
    {
      "midi": 57,
      "hit": false,
      "t": 125100,
      "d": 900,
      "v": 59
    },
    {
      "midi": 66,
      "hit": false,
      "t": 125100,
      "d": 900,
      "v": 56
    },
    {
      "midi": 57,
      "hit": false,
      "t": 126300,
      "d": 900,
      "v": 59
    },
    {
      "midi": 62,
      "hit": false,
      "t": 126300,
      "d": 900,
      "v": 56
    },
    {
      "midi": 52,
      "hit": false,
      "t": 127200,
      "d": 850,
      "v": 65
    },
    {
      "midi": 61,
      "hit": false,
      "t": 127500,
      "d": 550,
      "v": 54
    },
    {
      "midi": 59,
      "hit": false,
      "t": 128100,
      "d": 1490,
      "v": 65
    },
    {
      "midi": 64,
      "hit": false,
      "t": 128700,
      "d": 900,
      "v": 54
    },
    {
      "midi": 57,
      "hit": false,
      "t": 129900,
      "d": 550,
      "v": 59
    },
    {
      "midi": 66,
      "hit": false,
      "t": 129900,
      "d": 550,
      "v": 56
    },
    {
      "midi": 57,
      "hit": false,
      "t": 130500,
      "d": 1490,
      "v": 66
    },
    {
      "midi": 62,
      "hit": false,
      "t": 130500,
      "d": 1490,
      "v": 46
    },
    {
      "midi": 52,
      "hit": false,
      "t": 132000,
      "d": 850,
      "v": 66
    },
    {
      "midi": 61,
      "hit": false,
      "t": 132000,
      "d": 850,
      "v": 46
    },
    {
      "midi": 57,
      "hit": false,
      "t": 132900,
      "d": 1490,
      "v": 65
    },
    {
      "midi": 62,
      "hit": false,
      "t": 133500,
      "d": 900,
      "v": 54
    },
    {
      "midi": 52,
      "hit": false,
      "t": 134400,
      "d": 850,
      "v": 66
    },
    {
      "midi": 61,
      "hit": false,
      "t": 134400,
      "d": 850,
      "v": 46
    },
    {
      "midi": 57,
      "hit": false,
      "t": 135300,
      "d": 1150,
      "v": 66
    },
    {
      "midi": 62,
      "hit": false,
      "t": 135300,
      "d": 1150,
      "v": 46
    },
    {
      "midi": 52,
      "hit": false,
      "t": 137100,
      "d": 900,
      "v": 59
    },
    {
      "midi": 61,
      "hit": false,
      "t": 137100,
      "d": 900,
      "v": 56
    },
    {
      "midi": 59,
      "hit": false,
      "t": 138300,
      "d": 900,
      "v": 59
    },
    {
      "midi": 64,
      "hit": false,
      "t": 138300,
      "d": 900,
      "v": 56
    },
    {
      "midi": 57,
      "hit": false,
      "t": 139500,
      "d": 900,
      "v": 59
    },
    {
      "midi": 66,
      "hit": false,
      "t": 139500,
      "d": 900,
      "v": 56
    },
    {
      "midi": 57,
      "hit": false,
      "t": 140400,
      "d": 1200,
      "v": 65
    },
    {
      "midi": 62,
      "hit": false,
      "t": 140700,
      "d": 900,
      "v": 54
    },
    {
      "midi": 52,
      "hit": false,
      "t": 141600,
      "d": 850,
      "v": 66
    },
    {
      "midi": 61,
      "hit": false,
      "t": 141600,
      "d": 850,
      "v": 46
    },
    {
      "midi": 59,
      "hit": false,
      "t": 142500,
      "d": 1490,
      "v": 66
    },
    {
      "midi": 64,
      "hit": false,
      "t": 142500,
      "d": 1490,
      "v": 46
    },
    {
      "midi": 57,
      "hit": false,
      "t": 144000,
      "d": 1200,
      "v": 65
    },
    {
      "midi": 66,
      "hit": false,
      "t": 144300,
      "d": 900,
      "v": 54
    },
    {
      "midi": 57,
      "hit": false,
      "t": 145200,
      "d": 850,
      "v": 65
    },
    {
      "midi": 62,
      "hit": false,
      "t": 145500,
      "d": 550,
      "v": 54
    },
    {
      "midi": 52,
      "hit": false,
      "t": 146100,
      "d": 1150,
      "v": 66
    },
    {
      "midi": 61,
      "hit": false,
      "t": 146100,
      "d": 1150,
      "v": 46
    },
    {
      "midi": 59,
      "hit": false,
      "t": 147300,
      "d": 1490,
      "v": 66
    },
    {
      "midi": 64,
      "hit": false,
      "t": 147300,
      "d": 1490,
      "v": 46
    },
    {
      "midi": 57,
      "hit": false,
      "t": 148800,
      "d": 1200,
      "v": 65
    },
    {
      "midi": 66,
      "hit": false,
      "t": 149100,
      "d": 900,
      "v": 54
    },
    {
      "midi": 57,
      "hit": false,
      "t": 150000,
      "d": 1200,
      "v": 65
    },
    {
      "midi": 62,
      "hit": false,
      "t": 150300,
      "d": 900,
      "v": 54
    },
    {
      "midi": 52,
      "hit": false,
      "t": 151200,
      "d": 1200,
      "v": 66
    },
    {
      "midi": 61,
      "hit": false,
      "t": 151200,
      "d": 1200,
      "v": 46
    },
    {
      "midi": 57,
      "hit": false,
      "t": 152700,
      "d": 550,
      "v": 59
    },
    {
      "midi": 62,
      "hit": false,
      "t": 152700,
      "d": 550,
      "v": 56
    },
    {
      "midi": 52,
      "hit": false,
      "t": 153300,
      "d": 1490,
      "v": 65
    },
    {
      "midi": 61,
      "hit": false,
      "t": 153900,
      "d": 900,
      "v": 54
    },
    {
      "midi": 57,
      "hit": false,
      "t": 154800,
      "d": 1200,
      "v": 65
    },
    {
      "midi": 62,
      "hit": false,
      "t": 155100,
      "d": 900,
      "v": 54
    }
  ]
}