{
  "jsonPath": "Unknown/Unknown/Lesser Birds of Paradise/and-i-miss-you.json",
  "path": "Unknown\\Unknown\\Lesser Birds of Paradise\\And_ I Miss You.mid",
  "name": "And_ I Miss You",
  "difficulty": "Advanced",
  "bpm": 70.00007000007,
  "notes": [
    {
      "midi": 41,
      "hit": false,
      "t": 3464.2822500000007,
      "d": 249.99974999999995,
      "v": 93
    },
    {
      "midi": 48,
      "hit": false,
      "t": 3678.5677500000006,
      "d": 285.71399999999994,
      "v": 84
    },
    {
      "midi": 53,
      "hit": false,
      "t": 3892.8532500000006,
      "d": 1214.2845000000002,
      "v": 45
    },
    {
      "midi": 57,
      "hit": false,
      "t": 4107.138750000001,
      "d": 678.5707499999999,
      "v": 64
    },
    {
      "midi": 60,
      "hit": false,
      "t": 4285.710000000001,
      "d": 535.7137499999999,
      "v": 90
    },
    {
      "midi": 65,
      "hit": false,
      "t": 4499.995500000001,
      "d": 428.5709999999999,
      "v": 59
    },
    {
      "midi": 69,
      "hit": false,
      "t": 4714.281000000001,
      "d": 321.42824999999993,
      "v": 67
    },
    {
      "midi": 41,
      "hit": false,
      "t": 4749.995250000001,
      "d": 214.28549999999996,
      "v": 62
    },
    {
      "midi": 48,
      "hit": false,
      "t": 4928.566500000001,
      "d": 107.14274999999998,
      "v": 81
    },
    {
      "midi": 43,
      "hit": false,
      "t": 5142.852000000001,
      "d": 1499.9984999999997,
      "v": 100
    },
    {
      "midi": 50,
      "hit": false,
      "t": 5321.423250000001,
      "d": 1285.7129999999997,
      "v": 78
    },
    {
      "midi": 55,
      "hit": false,
      "t": 5535.708750000001,
      "d": 1035.7132499999998,
      "v": 62
    },
    {
      "midi": 59,
      "hit": false,
      "t": 5749.994250000001,
      "d": 1142.8559999999998,
      "v": 66
    },
    {
      "midi": 62,
      "hit": false,
      "t": 5964.279750000001,
      "d": 499.9994999999999,
      "v": 62
    },
    {
      "midi": 67,
      "hit": false,
      "t": 6214.279500000001,
      "d": 428.5709999999999,
      "v": 70
    },
    {
      "midi": 71,
      "hit": false,
      "t": 6428.5650000000005,
      "d": 107.14274999999998,
      "v": 90
    },
    {
      "midi": 69,
      "hit": false,
      "t": 6642.8505000000005,
      "d": 214.28549999999996,
      "v": 90
    },
    {
      "midi": 40,
      "hit": false,
      "t": 6857.136,
      "d": 178.57124999999996,
      "v": 104
    },
    {
      "midi": 64,
      "hit": false,
      "t": 6857.136,
      "d": 214.28549999999996,
      "v": 93
    },
    {
      "midi": 67,
      "hit": false,
      "t": 6857.136,
      "d": 285.71399999999994,
      "v": 90
    },
    {
      "midi": 59,
      "hit": false,
      "t": 7071.4215,
      "d": 428.5709999999999,
      "v": 63
    },
    {
      "midi": 52,
      "hit": false,
      "t": 7285.707,
      "d": 999.9990000000016,
      "v": 97
    },
    {
      "midi": 55,
      "hit": false,
      "t": 7499.9925,
      "d": 749.9992500000008,
      "v": 80
    },
    {
      "midi": 64,
      "hit": false,
      "t": 7714.278,
      "d": 107.14274999999998,
      "v": 99
    },
    {
      "midi": 59,
      "hit": false,
      "t": 7714.278,
      "d": 499.9994999999999,
      "v": 90
    },
    {
      "midi": 65,
      "hit": false,
      "t": 7892.84925,
      "d": 107.14274999999998,
      "v": 114
    },
    {
      "midi": 67,
      "hit": false,
      "t": 8142.849,
      "d": 107.14275000000089,
      "v": 91
    },
    {
      "midi": 71,
      "hit": false,
      "t": 8321.420250000003,
      "d": 178.57125000000087,
      "v": 89
    },
    {
      "midi": 69,
      "hit": false,
      "t": 8535.705750000005,
      "d": 428.57100000000173,
      "v": 80
    },
    {
      "midi": 45,
      "hit": false,
      "t": 8535.705750000005,
      "d": 714.2850000000035,
      "v": 92
    },
    {
      "midi": 52,
      "hit": false,
      "t": 8785.705500000005,
      "d": 607.1422500000026,
      "v": 68
    },
    {
      "midi": 57,
      "hit": false,
      "t": 8999.991000000007,
      "d": 428.57100000000173,
      "v": 65
    },
    {
      "midi": 60,
      "hit": false,
      "t": 9214.276500000007,
      "d": 249.99975000000268,
      "v": 83
    },
    {
      "midi": 45,
      "hit": false,
      "t": 9428.562000000009,
      "d": 571.4280000000017,
      "v": 93
    },
    {
      "midi": 67,
      "hit": false,
      "t": 9428.562000000009,
      "d": 642.8565000000017,
      "v": 90
    },
    {
      "midi": 71,
      "hit": false,
      "t": 9428.562000000009,
      "d": 749.9992500000026,
      "v": 92
    },
    {
      "midi": 60,
      "hit": false,
      "t": 9642.84750000001,
      "d": 285.71399999999994,
      "v": 66
    },
    {
      "midi": 52,
      "hit": false,
      "t": 9857.13300000001,
      "d": 142.85699999999997,
      "v": 80
    },
    {
      "midi": 60,
      "hit": false,
      "t": 10071.41850000001,
      "d": 249.99975000000268,
      "v": 74
    },
    {
      "midi": 65,
      "hit": false,
      "t": 10285.704000000012,
      "d": 214.28550000000178,
      "v": 69
    },
    {
      "midi": 69,
      "hit": false,
      "t": 10285.704000000012,
      "d": 392.85675000000265,
      "v": 84
    },
    {
      "midi": 41,
      "hit": false,
      "t": 10285.704000000012,
      "d": 1571.4270000000106,
      "v": 93
    },
    {
      "midi": 48,
      "hit": false,
      "t": 10499.989500000014,
      "d": 892.8562500000044,
      "v": 70
    },
    {
      "midi": 53,
      "hit": false,
      "t": 10714.275000000016,
      "d": 928.5705000000053,
      "v": 53
    },
    {
      "midi": 57,
      "hit": false,
      "t": 10892.846250000017,
      "d": 678.5707500000026,
      "v": 66
    },
    {
      "midi": 60,
      "hit": false,
      "t": 11107.131750000017,
      "d": 499.99950000000354,
      "v": 70
    },
    {
      "midi": 65,
      "hit": false,
      "t": 11357.131500000018,
      "d": 464.28525000000445,
      "v": 77
    },
    {
      "midi": 69,
      "hit": false,
      "t": 11571.41700000002,
      "d": 321.4282500000045,
      "v": 93
    },
    {
      "midi": 48,
      "hit": false,
      "t": 11749.988250000022,
      "d": 107.14275000000089,
      "v": 58
    },
    {
      "midi": 53,
      "hit": false,
      "t": 11857.131000000023,
      "d": 142.8570000000018,
      "v": 58
    },
    {
      "midi": 59,
      "hit": false,
      "t": 11999.988000000025,
      "d": 464.28525000000263,
      "v": 79
    },
    {
      "midi": 43,
      "hit": false,
      "t": 11999.988000000025,
      "d": 1428.5700000000052,
      "v": 102
    },
    {
      "midi": 50,
      "hit": false,
      "t": 12214.273500000027,
      "d": 1142.8560000000034,
      "v": 69
    },
    {
      "midi": 55,
      "hit": false,
      "t": 12464.273250000027,
      "d": 892.8562500000025,
      "v": 57
    },
    {
      "midi": 59,
      "hit": false,
      "t": 12642.844500000028,
      "d": 571.4279999999999,
      "v": 56
    },
    {
      "midi": 62,
      "hit": false,
      "t": 12857.130000000028,
      "d": 464.2852500000008,
      "v": 85
    },
    {
      "midi": 36,
      "hit": false,
      "t": 13714.27200000003,
      "d": 107.14275000000089,
      "v": 104
    },
    {
      "midi": 64,
      "hit": false,
      "t": 13714.27200000003,
      "d": 285.71400000000176,
      "v": 104
    },
    {
      "midi": 55,
      "hit": false,
      "t": 13964.27175000003,
      "d": 285.71400000000176,
      "v": 78
    },
    {
      "midi": 48,
      "hit": false,
      "t": 14178.557250000033,
      "d": 1035.7132500000043,
      "v": 83
    },
    {
      "midi": 60,
      "hit": false,
      "t": 14392.842750000033,
      "d": 107.14275000000089,
      "v": 91
    },
    {
      "midi": 62,
      "hit": false,
      "t": 14571.414000000033,
      "d": 142.85699999999997,
      "v": 101
    },
    {
      "midi": 52,
      "hit": false,
      "t": 14571.414000000033,
      "d": 535.7137500000026,
      "v": 91
    },
    {
      "midi": 64,
      "hit": false,
      "t": 14785.699500000033,
      "d": 178.57125000000087,
      "v": 97
    },
    {
      "midi": 62,
      "hit": false,
      "t": 14999.985000000035,
      "d": 178.57125000000087,
      "v": 95
    },
    {
      "midi": 55,
      "hit": false,
      "t": 14999.985000000035,
      "d": 464.28525000000445,
      "v": 77
    },
    {
      "midi": 60,
      "hit": false,
      "t": 15178.556250000036,
      "d": 178.57125000000087,
      "v": 95
    },
    {
      "midi": 59,
      "hit": false,
      "t": 15392.841750000038,
      "d": 464.28525000000263,
      "v": 105
    },
    {
      "midi": 43,
      "hit": false,
      "t": 15392.841750000038,
      "d": 1392.855750000008,
      "v": 112
    },
    {
      "midi": 50,
      "hit": false,
      "t": 15607.12725000004,
      "d": 678.5707500000026,
      "v": 68
    },
    {
      "midi": 55,
      "hit": false,
      "t": 15857.12700000004,
      "d": 214.28549999999996,
      "v": 69
    },
    {
      "midi": 59,
      "hit": false,
      "t": 16071.41250000004,
      "d": 107.14275000000089,
      "v": 78
    },
    {
      "midi": 62,
      "hit": false,
      "t": 16285.698000000042,
      "d": 428.57100000000173,
      "v": 104
    },
    {
      "midi": 59,
      "hit": false,
      "t": 16285.698000000042,
      "d": 464.28525000000263,
      "v": 99
    },
    {
      "midi": 67,
      "hit": false,
      "t": 16285.698000000042,
      "d": 535.7137500000044,
      "v": 102
    },
    {
      "midi": 50,
      "hit": false,
      "t": 16714.269000000044,
      "d": 71.4285000000018,
      "v": 69
    },
    {
      "midi": 36,
      "hit": false,
      "t": 17107.125750000047,
      "d": 107.1427500000027,
      "v": 61
    },
    {
      "midi": 55,
      "hit": false,
      "t": 17178.55425000005,
      "d": 428.57100000000355,
      "v": 57
    },
    {
      "midi": 60,
      "hit": false,
      "t": 17178.55425000005,
      "d": 464.28525000000445,
      "v": 70
    },
    {
      "midi": 64,
      "hit": false,
      "t": 17178.55425000005,
      "d": 642.8565000000053,
      "v": 92
    },
    {
      "midi": 48,
      "hit": false,
      "t": 17428.55400000005,
      "d": 1178.570250000008,
      "v": 70
    },
    {
      "midi": 52,
      "hit": false,
      "t": 17607.125250000052,
      "d": 571.4280000000035,
      "v": 91
    },
    {
      "midi": 55,
      "hit": false,
      "t": 17821.410750000054,
      "d": 392.85675000000265,
      "v": 91
    },
    {
      "midi": 67,
      "hit": false,
      "t": 18035.696250000055,
      "d": 642.8565000000053,
      "v": 101
    },
    {
      "midi": 64,
      "hit": false,
      "t": 18249.981750000057,
      "d": 821.4277500000062,
      "v": 76
    },
    {
      "midi": 52,
      "hit": false,
      "t": 18464.26725000006,
      "d": 142.85699999999997,
      "v": 66
    },
    {
      "midi": 60,
      "hit": false,
      "t": 18678.55275000006,
      "d": 249.99975000000268,
      "v": 53
    },
    {
      "midi": 55,
      "hit": false,
      "t": 18678.55275000006,
      "d": 285.7140000000036,
      "v": 99
    },
    {
      "midi": 40,
      "hit": false,
      "t": 18857.12400000006,
      "d": 1535.7127500000097,
      "v": 109
    },
    {
      "midi": 47,
      "hit": false,
      "t": 19071.409500000063,
      "d": 1035.7132500000043,
      "v": 91
    },
    {
      "midi": 52,
      "hit": false,
      "t": 19321.409250000062,
      "d": 1071.4275000000089,
      "v": 99
    },
    {
      "midi": 55,
      "hit": false,
      "t": 19499.980500000063,
      "d": 785.7135000000053,
      "v": 87
    },
    {
      "midi": 59,
      "hit": false,
      "t": 19714.266000000065,
      "d": 249.99975000000268,
      "v": 89
    },
    {
      "midi": 64,
      "hit": false,
      "t": 19928.551500000067,
      "d": 214.28550000000178,
      "v": 56
    },
    {
      "midi": 67,
      "hit": false,
      "t": 20107.122750000068,
      "d": 249.99975000000268,
      "v": 74
    },
    {
      "midi": 47,
      "hit": false,
      "t": 20357.12250000007,
      "d": 71.4285000000018,
      "v": 71
    },
    {
      "midi": 45,
      "hit": false,
      "t": 20607.122250000073,
      "d": 1357.1415000000015,
      "v": 108
    },
    {
      "midi": 52,
      "hit": false,
      "t": 20821.40775000007,
      "d": 1071.4275000000016,
      "v": 72
    },
    {
      "midi": 57,
      "hit": false,
      "t": 21071.40750000007,
      "d": 785.7135000000017,
      "v": 54
    },
    {
      "midi": 60,
      "hit": false,
      "t": 21214.26450000007,
      "d": 678.5707500000026,
      "v": 86
    },
    {
      "midi": 64,
      "hit": false,
      "t": 21428.550000000072,
      "d": 321.42825000000084,
      "v": 90
    },
    {
      "midi": 69,
      "hit": false,
      "t": 21642.835500000074,
      "d": 214.28549999999814,
      "v": 58
    },
    {
      "midi": 64,
      "hit": false,
      "t": 21857.121000000072,
      "d": 214.2855000000054,
      "v": 89
    },
    {
      "midi": 60,
      "hit": false,
      "t": 22035.692250000076,
      "d": 142.85699999999997,
      "v": 90
    },
    {
      "midi": 36,
      "hit": false,
      "t": 22249.97775000008,
      "d": 107.1427500000027,
      "v": 109
    },
    {
      "midi": 48,
      "hit": false,
      "t": 22249.97775000008,
      "d": 142.8570000000036,
      "v": 90
    },
    {
      "midi": 64,
      "hit": false,
      "t": 22464.263250000084,
      "d": 321.42825000000084,
      "v": 88
    },
    {
      "midi": 67,
      "hit": false,
      "t": 22678.548750000085,
      "d": 178.57125000000087,
      "v": 88
    },
    {
      "midi": 55,
      "hit": false,
      "t": 22678.548750000085,
      "d": 1107.1417500000098,
      "v": 86
    },
    {
      "midi": 69,
      "hit": false,
      "t": 22892.834250000087,
      "d": 178.57125000000087,
      "v": 87
    },
    {
      "midi": 70,
      "hit": false,
      "t": 23107.11975000009,
      "d": 249.99975000000268,
      "v": 99
    },
    {
      "midi": 52,
      "hit": false,
      "t": 23142.83400000009,
      "d": 642.8565000000053,
      "v": 63
    },
    {
      "midi": 58,
      "hit": false,
      "t": 23321.40525000009,
      "d": 285.7140000000036,
      "v": 50
    },
    {
      "midi": 64,
      "hit": false,
      "t": 23321.40525000009,
      "d": 285.7140000000036,
      "v": 88
    },
    {
      "midi": 60,
      "hit": false,
      "t": 23571.405000000093,
      "d": 142.85699999999997,
      "v": 88
    },
    {
      "midi": 72,
      "hit": false,
      "t": 23571.405000000093,
      "d": 249.99975000000268,
      "v": 98
    },
    {
      "midi": 64,
      "hit": false,
      "t": 23785.690500000095,
      "d": 107.1427500000027,
      "v": 76
    },
    {
      "midi": 41,
      "hit": false,
      "t": 23999.976000000097,
      "d": 142.8570000000036,
      "v": 105
    },
    {
      "midi": 69,
      "hit": false,
      "t": 23999.976000000097,
      "d": 464.28525000000445,
      "v": 95
    },
    {
      "midi": 60,
      "hit": false,
      "t": 24285.6900000001,
      "d": 249.99975000000268,
      "v": 63
    },
    {
      "midi": 53,
      "hit": false,
      "t": 24428.5470000001,
      "d": 1035.713250000008,
      "v": 93
    },
    {
      "midi": 57,
      "hit": false,
      "t": 24642.832500000102,
      "d": 249.99975000000268,
      "v": 82
    },
    {
      "midi": 72,
      "hit": false,
      "t": 24857.118000000104,
      "d": 392.85675000000265,
      "v": 97
    },
    {
      "midi": 69,
      "hit": false,
      "t": 25035.689250000105,
      "d": 428.57100000000355,
      "v": 94
    },
    {
      "midi": 57,
      "hit": false,
      "t": 25249.974750000107,
      "d": 178.57125000000087,
      "v": 81
    },
    {
      "midi": 65,
      "hit": false,
      "t": 25321.40325000011,
      "d": 249.99975000000268,
      "v": 66
    },
    {
      "midi": 60,
      "hit": false,
      "t": 25499.97450000011,
      "d": 285.7140000000036,
      "v": 61
    },
    {
      "midi": 45,
      "hit": false,
      "t": 25714.26000000011,
      "d": 1464.2842500000115,
      "v": 97
    },
    {
      "midi": 52,
      "hit": false,
      "t": 25964.259750000114,
      "d": 1107.1417500000098,
      "v": 80
    },
    {
      "midi": 57,
      "hit": false,
      "t": 26178.545250000116,
      "d": 857.1420000000071,
      "v": 71
    },
    {
      "midi": 60,
      "hit": false,
      "t": 26392.830750000117,
      "d": 928.5705000000089,
      "v": 76
    },
    {
      "midi": 64,
      "hit": false,
      "t": 26607.11625000012,
      "d": 285.7140000000036,
      "v": 77
    },
    {
      "midi": 69,
      "hit": false,
      "t": 26821.40175000012,
      "d": 214.28550000000178,
      "v": 91
    },
    {
      "midi": 72,
      "hit": false,
      "t": 26999.973000000122,
      "d": 249.99975000000268,
      "v": 90
    },
    {
      "midi": 69,
      "hit": false,
      "t": 27214.258500000124,
      "d": 178.5712500000045,
      "v": 83
    },
    {
      "midi": 38,
      "hit": false,
      "t": 27428.54400000013,
      "d": 142.85699999999997,
      "v": 101
    },
    {
      "midi": 50,
      "hit": false,
      "t": 27428.54400000013,
      "d": 214.28550000000178,
      "v": 92
    },
    {
      "midi": 65,
      "hit": false,
      "t": 27428.54400000013,
      "d": 642.8565000000053,
      "v": 98
    },
    {
      "midi": 50,
      "hit": false,
      "t": 27857.115000000133,
      "d": 999.9990000000071,
      "v": 93
    },
    {
      "midi": 53,
      "hit": false,
      "t": 28071.400500000134,
      "d": 285.7140000000036,
      "v": 85
    },
    {
      "midi": 62,
      "hit": false,
      "t": 28285.686000000136,
      "d": 107.1427500000027,
      "v": 115
    },
    {
      "midi": 57,
      "hit": false,
      "t": 28285.686000000136,
      "d": 464.28525000000445,
      "v": 86
    },
    {
      "midi": 64,
      "hit": false,
      "t": 28499.971500000138,
      "d": 71.4285000000018,
      "v": 120
    },
    {
      "midi": 65,
      "hit": false,
      "t": 28714.25700000014,
      "d": 142.85699999999997,
      "v": 114
    },
    {
      "midi": 69,
      "hit": false,
      "t": 28928.54250000014,
      "d": 142.85699999999997,
      "v": 93
    },
    {
      "midi": 50,
      "hit": false,
      "t": 29035.68525000014,
      "d": 142.8570000000036,
      "v": 79
    },
    {
      "midi": 59,
      "hit": false,
      "t": 29107.113750000142,
      "d": 499.99950000000536,
      "v": 82
    },
    {
      "midi": 55,
      "hit": false,
      "t": 29142.828000000143,
      "d": 107.1427500000027,
      "v": 57
    },
    {
      "midi": 62,
      "hit": false,
      "t": 29142.828000000143,
      "d": 678.5707500000062,
      "v": 85
    },
    {
      "midi": 43,
      "hit": false,
      "t": 29142.828000000143,
      "d": 1249.9987500000134,
      "v": 96
    },
    {
      "midi": 67,
      "hit": false,
      "t": 29214.256500000145,
      "d": 678.5707500000062,
      "v": 87
    },
    {
      "midi": 50,
      "hit": false,
      "t": 29428.542000000147,
      "d": 857.1420000000071,
      "v": 77
    },
    {
      "midi": 53,
      "hit": false,
      "t": 29607.113250000148,
      "d": 678.5707500000062,
      "v": 67
    },
    {
      "midi": 59,
      "hit": false,
      "t": 29785.68450000015,
      "d": 285.7140000000036,
      "v": 75
    },
    {
      "midi": 62,
      "hit": false,
      "t": 29999.97000000015,
      "d": 249.99975000000268,
      "v": 74
    },
    {
      "midi": 67,
      "hit": false,
      "t": 29999.97000000015,
      "d": 249.99975000000268,
      "v": 92
    },
    {
      "midi": 62,
      "hit": false,
      "t": 30428.541000000158,
      "d": 142.85699999999997,
      "v": 89
    },
    {
      "midi": 65,
      "hit": false,
      "t": 30428.541000000158,
      "d": 321.42825000000084,
      "v": 78
    },
    {
      "midi": 43,
      "hit": false,
      "t": 30642.82650000016,
      "d": 178.57125000000087,
      "v": 70
    },
    {
      "midi": 55,
      "hit": false,
      "t": 30821.39775000016,
      "d": 464.2852500000008,
      "v": 64
    },
    {
      "midi": 64,
      "hit": false,
      "t": 30821.39775000016,
      "d": 499.9995000000017,
      "v": 83
    },
    {
      "midi": 60,
      "hit": false,
      "t": 30821.39775000016,
      "d": 535.7137500000026,
      "v": 81
    },
    {
      "midi": 36,
      "hit": false,
      "t": 30821.39775000016,
      "d": 785.7135000000053,
      "v": 78
    },
    {
      "midi": 48,
      "hit": false,
      "t": 31285.68300000016,
      "d": 964.2847500000098,
      "v": 57
    },
    {
      "midi": 55,
      "hit": false,
      "t": 31535.682750000164,
      "d": 428.57100000000355,
      "v": 77
    },
    {
      "midi": 67,
      "hit": false,
      "t": 31714.254000000165,
      "d": 321.4282500000045,
      "v": 94
    },
    {
      "midi": 36,
      "hit": false,
      "t": 31749.968250000165,
      "d": 464.28525000000445,
      "v": 84
    },
    {
      "midi": 64,
      "hit": false,
      "t": 31964.253750000167,
      "d": 249.99975000000268,
      "v": 80
    },
    {
      "midi": 43,
      "hit": false,
      "t": 32178.53925000017,
      "d": 71.4285000000018,
      "v": 54
    },
    {
      "midi": 60,
      "hit": false,
      "t": 32178.53925000017,
      "d": 214.28550000000178,
      "v": 86
    },
    {
      "midi": 55,
      "hit": false,
      "t": 32392.82475000017,
      "d": 249.99975000000268,
      "v": 67
    },
    {
      "midi": 59,
      "hit": false,
      "t": 32571.39600000017,
      "d": 249.99974999999904,
      "v": 96
    },
    {
      "midi": 40,
      "hit": false,
      "t": 32571.39600000017,
      "d": 428.5709999999999,
      "v": 94
    },
    {
      "midi": 55,
      "hit": false,
      "t": 32785.68150000017,
      "d": 142.85699999999633,
      "v": 77
    },
    {
      "midi": 52,
      "hit": false,
      "t": 33035.68125000017,
      "d": 1035.7132500000007,
      "v": 76
    },
    {
      "midi": 59,
      "hit": false,
      "t": 33214.25250000017,
      "d": 499.9994999999981,
      "v": 77
    },
    {
      "midi": 71,
      "hit": false,
      "t": 33428.53800000017,
      "d": 214.28549999999814,
      "v": 94
    },
    {
      "midi": 55,
      "hit": false,
      "t": 33428.53800000017,
      "d": 642.8565000000017,
      "v": 91
    },
    {
      "midi": 67,
      "hit": false,
      "t": 33642.823500000166,
      "d": 214.2855000000054,
      "v": 78
    },
    {
      "midi": 64,
      "hit": false,
      "t": 33857.10900000017,
      "d": 214.28549999999814,
      "v": 86
    },
    {
      "midi": 59,
      "hit": false,
      "t": 34035.68025000017,
      "d": 107.14274999999907,
      "v": 57
    },
    {
      "midi": 64,
      "hit": false,
      "t": 34249.96575000017,
      "d": 428.5709999999963,
      "v": 71
    },
    {
      "midi": 69,
      "hit": false,
      "t": 34249.96575000017,
      "d": 607.1422499999971,
      "v": 91
    },
    {
      "midi": 45,
      "hit": false,
      "t": 34285.68000000017,
      "d": 1178.570249999997,
      "v": 92
    },
    {
      "midi": 52,
      "hit": false,
      "t": 34499.965500000166,
      "d": 857.1419999999998,
      "v": 66
    },
    {
      "midi": 57,
      "hit": false,
      "t": 34749.96525000017,
      "d": 499.9994999999981,
      "v": 65
    },
    {
      "midi": 69,
      "hit": false,
      "t": 35142.82200000017,
      "d": 142.85699999999633,
      "v": 114
    },
    {
      "midi": 71,
      "hit": false,
      "t": 35357.107500000166,
      "d": 71.4285000000018,
      "v": 95
    },
    {
      "midi": 72,
      "hit": false,
      "t": 35571.393000000164,
      "d": 142.8570000000036,
      "v": 95
    },
    {
      "midi": 43,
      "hit": false,
      "t": 35642.821500000166,
      "d": 357.14250000000175,
      "v": 90
    },
    {
      "midi": 74,
      "hit": false,
      "t": 35785.67850000017,
      "d": 107.14274999999907,
      "v": 90
    },
    {
      "midi": 36,
      "hit": false,
      "t": 35964.24975000017,
      "d": 107.14274999999907,
      "v": 104
    },
    {
      "midi": 48,
      "hit": false,
      "t": 35964.24975000017,
      "d": 142.85699999999633,
      "v": 99
    },
    {
      "midi": 76,
      "hit": false,
      "t": 35964.24975000017,
      "d": 214.28549999999814,
      "v": 102
    },
    {
      "midi": 74,
      "hit": false,
      "t": 36392.820750000166,
      "d": 107.14274999999907,
      "v": 104
    },
    {
      "midi": 55,
      "hit": false,
      "t": 36571.39200000017,
      "d": 678.5707499999844,
      "v": 81
    },
    {
      "midi": 52,
      "hit": false,
      "t": 36607.106250000164,
      "d": 678.5707499999844,
      "v": 33
    },
    {
      "midi": 58,
      "hit": false,
      "t": 36714.24900000016,
      "d": 499.9994999999908,
      "v": 64
    },
    {
      "midi": 60,
      "hit": false,
      "t": 36749.96325000016,
      "d": 464.28524999999354,
      "v": 82
    },
    {
      "midi": 64,
      "hit": false,
      "t": 36785.67750000016,
      "d": 428.5709999999963,
      "v": 45
    },
    {
      "midi": 67,
      "hit": false,
      "t": 36821.391750000155,
      "d": 428.5709999999963,
      "v": 75
    },
    {
      "midi": 72,
      "hit": false,
      "t": 36857.10600000015,
      "d": 464.28524999999354,
      "v": 93
    },
    {
      "midi": 70,
      "hit": false,
      "t": 37285.67700000015,
      "d": 142.85699999999633,
      "v": 79
    },
    {
      "midi": 48,
      "hit": false,
      "t": 37499.96250000015,
      "d": 214.28549999999814,
      "v": 69
    },
    {
      "midi": 41,
      "hit": false,
      "t": 37678.53375000015,
      "d": 107.14274999999907,
      "v": 79
    },
    {
      "midi": 53,
      "hit": false,
      "t": 37678.53375000015,
      "d": 178.57125000000087,
      "v": 54
    },
    {
      "midi": 60,
      "hit": false,
      "t": 37678.53375000015,
      "d": 499.9994999999981,
      "v": 53
    },
    {
      "midi": 65,
      "hit": false,
      "t": 37714.248000000145,
      "d": 607.1422500000044,
      "v": 67
    },
    {
      "midi": 69,
      "hit": false,
      "t": 37714.248000000145,
      "d": 642.8565000000017,
      "v": 87
    },
    {
      "midi": 53,
      "hit": false,
      "t": 38142.81900000015,
      "d": 964.2847499999916,
      "v": 67
    },
    {
      "midi": 60,
      "hit": false,
      "t": 38392.818750000144,
      "d": 464.2852500000008,
      "v": 55
    },
    {
      "midi": 72,
      "hit": false,
      "t": 38571.390000000145,
      "d": 285.71399999999994,
      "v": 99
    },
    {
      "midi": 57,
      "hit": false,
      "t": 38571.390000000145,
      "d": 499.9994999999981,
      "v": 75
    },
    {
      "midi": 69,
      "hit": false,
      "t": 38785.67550000014,
      "d": 249.99975000000268,
      "v": 90
    },
    {
      "midi": 65,
      "hit": false,
      "t": 38999.96100000015,
      "d": 214.28549999999086,
      "v": 90
    },
    {
      "midi": 60,
      "hit": false,
      "t": 39178.53225000014,
      "d": 178.57125000000087,
      "v": 80
    },
    {
      "midi": 62,
      "hit": false,
      "t": 39428.532000000145,
      "d": 607.1422499999971,
      "v": 96
    },
    {
      "midi": 43,
      "hit": false,
      "t": 39428.532000000145,
      "d": 1607.1412499999642,
      "v": 92
    },
    {
      "midi": 50,
      "hit": false,
      "t": 39678.53175000014,
      "d": 571.4279999999926,
      "v": 54
    },
    {
      "midi": 55,
      "hit": false,
      "t": 39892.81725000014,
      "d": 285.71399999999267,
      "v": 67
    },
    {
      "midi": 59,
      "hit": false,
      "t": 40071.38850000014,
      "d": 71.42849999999453,
      "v": 74
    },
    {
      "midi": 62,
      "hit": false,
      "t": 40107.10275000014,
      "d": 71.42849999999453,
      "v": 45
    },
    {
      "midi": 60,
      "hit": false,
      "t": 40285.67400000013,
      "d": 285.71399999999267,
      "v": 71
    },
    {
      "midi": 64,
      "hit": false,
      "t": 40285.67400000013,
      "d": 357.14249999999447,
      "v": 78
    },
    {
      "midi": 55,
      "hit": false,
      "t": 40321.38825000013,
      "d": 71.42849999999453,
      "v": 48
    },
    {
      "midi": 50,
      "hit": false,
      "t": 40499.95950000012,
      "d": 214.28549999999814,
      "v": 77
    },
    {
      "midi": 65,
      "hit": false,
      "t": 40714.24500000012,
      "d": 178.5712499999936,
      "v": 82
    },
    {
      "midi": 62,
      "hit": false,
      "t": 40749.959250000116,
      "d": 107.14274999999907,
      "v": 94
    },
    {
      "midi": 50,
      "hit": false,
      "t": 40964.244750000114,
      "d": 35.714249999997264,
      "v": 66
    },
    {
      "midi": 55,
      "hit": false,
      "t": 41178.530250000105,
      "d": 392.85674999999173,
      "v": 70
    },
    {
      "midi": 60,
      "hit": false,
      "t": 41178.530250000105,
      "d": 392.85674999999173,
      "v": 90
    },
    {
      "midi": 64,
      "hit": false,
      "t": 41178.530250000105,
      "d": 428.570999999989,
      "v": 82
    },
    {
      "midi": 36,
      "hit": false,
      "t": 41214.2445000001,
      "d": 1178.5702499999825,
      "v": 101
    },
    {
      "midi": 60,
      "hit": false,
      "t": 41785.672500000095,
      "d": 249.9997499999954,
      "v": 98
    },
    {
      "midi": 55,
      "hit": false,
      "t": 41785.672500000095,
      "d": 285.71399999999267,
      "v": 85
    },
    {
      "midi": 64,
      "hit": false,
      "t": 41785.672500000095,
      "d": 285.71399999999267,
      "v": 98
    },
    {
      "midi": 48,
      "hit": false,
      "t": 41999.95800000009,
      "d": 535.7137499999881,
      "v": 110
    },
    {
      "midi": 55,
      "hit": false,
      "t": 42428.52900000008,
      "d": 178.57125000000087,
      "v": 113
    },
    {
      "midi": 60,
      "hit": false,
      "t": 42428.52900000008,
      "d": 178.57125000000087,
      "v": 105
    },
    {
      "midi": 64,
      "hit": false,
      "t": 42428.52900000008,
      "d": 214.28549999999814,
      "v": 101
    },
    {
      "midi": 67,
      "hit": false,
      "t": 42428.52900000008,
      "d": 249.9997499999954,
      "v": 104
    },
    {
      "midi": 36,
      "hit": false,
      "t": 42642.81450000008,
      "d": 71.42849999999453,
      "v": 117
    },
    {
      "midi": 45,
      "hit": false,
      "t": 42857.10000000007,
      "d": 35.714249999997264,
      "v": 113
    },
    {
      "midi": 59,
      "hit": false,
      "t": 42857.10000000007,
      "d": 392.856749999999,
      "v": 107
    },
    {
      "midi": 62,
      "hit": false,
      "t": 42857.10000000007,
      "d": 392.856749999999,
      "v": 108
    },
    {
      "midi": 67,
      "hit": false,
      "t": 42857.10000000007,
      "d": 392.856749999999,
      "v": 110
    },
    {
      "midi": 55,
      "hit": false,
      "t": 43249.95675000007,
      "d": 107.14274999999907,
      "v": 97
    },
    {
      "midi": 59,
      "hit": false,
      "t": 43464.24225000007,
      "d": 428.5709999999963,
      "v": 120
    },
    {
      "midi": 62,
      "hit": false,
      "t": 43464.24225000007,
      "d": 428.5709999999963,
      "v": 127
    },
    {
      "midi": 67,
      "hit": false,
      "t": 43464.24225000007,
      "d": 571.4279999999999,
      "v": 125
    },
    {
      "midi": 53,
      "hit": false,
      "t": 43678.52775000007,
      "d": 571.4280000000072,
      "v": 118
    },
    {
      "midi": 59,
      "hit": false,
      "t": 44107.09875000007,
      "d": 249.99975000000268,
      "v": 98
    },
    {
      "midi": 62,
      "hit": false,
      "t": 44107.09875000007,
      "d": 249.99975000000268,
      "v": 105
    },
    {
      "midi": 65,
      "hit": false,
      "t": 44107.09875000007,
      "d": 249.99975000000268,
      "v": 99
    },
    {
      "midi": 43,
      "hit": false,
      "t": 44321.384250000076,
      "d": 35.714249999997264,
      "v": 95
    },
    {
      "midi": 50,
      "hit": false,
      "t": 44321.384250000076,
      "d": 35.714249999997264,
      "v": 92
    },
    {
      "midi": 64,
      "hit": false,
      "t": 44571.38400000008,
      "d": 35.714249999997264,
      "v": 71
    },
    {
      "midi": 67,
      "hit": false,
      "t": 44571.38400000008,
      "d": 35.714249999997264,
      "v": 86
    },
    {
      "midi": 72,
      "hit": false,
      "t": 44571.38400000008,
      "d": 71.42849999999453,
      "v": 88
    },
    {
      "midi": 36,
      "hit": false,
      "t": 44571.38400000008,
      "d": 1571.4270000000179,
      "v": 108
    },
    {
      "midi": 64,
      "hit": false,
      "t": 44785.66950000007,
      "d": 71.4285000000018,
      "v": 70
    },
    {
      "midi": 67,
      "hit": false,
      "t": 44785.66950000007,
      "d": 71.4285000000018,
      "v": 81
    },
    {
      "midi": 72,
      "hit": false,
      "t": 44785.66950000007,
      "d": 71.4285000000018,
      "v": 88
    },
    {
      "midi": 64,
      "hit": false,
      "t": 44999.955000000075,
      "d": 71.4285000000018,
      "v": 63
    },
    {
      "midi": 67,
      "hit": false,
      "t": 44999.955000000075,
      "d": 71.4285000000018,
      "v": 74
    },
    {
      "midi": 72,
      "hit": false,
      "t": 44999.955000000075,
      "d": 71.4285000000018,
      "v": 81
    },
    {
      "midi": 64,
      "hit": false,
      "t": 45214.24050000008,
      "d": 35.714249999997264,
      "v": 59
    },
    {
      "midi": 67,
      "hit": false,
      "t": 45214.24050000008,
      "d": 35.714249999997264,
      "v": 67
    },
    {
      "midi": 72,
      "hit": false,
      "t": 45214.24050000008,
      "d": 71.42849999999453,
      "v": 68
    },
    {
      "midi": 64,
      "hit": false,
      "t": 45428.52600000008,
      "d": 71.4285000000018,
      "v": 62
    },
    {
      "midi": 67,
      "hit": false,
      "t": 45428.52600000008,
      "d": 71.4285000000018,
      "v": 66
    },
    {
      "midi": 72,
      "hit": false,
      "t": 45428.52600000008,
      "d": 71.4285000000018,
      "v": 62
    },
    {
      "midi": 64,
      "hit": false,
      "t": 45642.81150000008,
      "d": 71.4285000000018,
      "v": 56
    },
    {
      "midi": 67,
      "hit": false,
      "t": 45642.81150000008,
      "d": 71.4285000000018,
      "v": 63
    },
    {
      "midi": 72,
      "hit": false,
      "t": 45642.81150000008,
      "d": 71.4285000000018,
      "v": 71
    },
    {
      "midi": 64,
      "hit": false,
      "t": 45857.09700000009,
      "d": 71.4285000000018,
      "v": 57
    },
    {
      "midi": 67,
      "hit": false,
      "t": 45857.09700000009,
      "d": 71.4285000000018,
      "v": 82
    },
    {
      "midi": 72,
      "hit": false,
      "t": 45857.09700000009,
      "d": 71.4285000000018,
      "v": 82
    },
    {
      "midi": 64,
      "hit": false,
      "t": 46071.382500000094,
      "d": 71.4285000000018,
      "v": 76
    },
    {
      "midi": 67,
      "hit": false,
      "t": 46071.382500000094,
      "d": 71.4285000000018,
      "v": 87
    },
    {
      "midi": 48,
      "hit": false,
      "t": 46071.382500000094,
      "d": 107.14274999999907,
      "v": 90
    },
    {
      "midi": 72,
      "hit": false,
      "t": 46071.382500000094,
      "d": 107.14274999999907,
      "v": 92
    },
    {
      "midi": 67,
      "hit": false,
      "t": 46285.66800000009,
      "d": 35.714249999997264,
      "v": 90
    },
    {
      "midi": 64,
      "hit": false,
      "t": 46285.66800000009,
      "d": 71.42849999999453,
      "v": 88
    },
    {
      "midi": 71,
      "hit": false,
      "t": 46285.66800000009,
      "d": 71.42849999999453,
      "v": 86
    },
    {
      "midi": 40,
      "hit": false,
      "t": 46285.66800000009,
      "d": 1464.2842499999897,
      "v": 107
    },
    {
      "midi": 64,
      "hit": false,
      "t": 46499.95350000009,
      "d": 35.714249999997264,
      "v": 90
    },
    {
      "midi": 67,
      "hit": false,
      "t": 46499.95350000009,
      "d": 35.714249999997264,
      "v": 101
    },
    {
      "midi": 71,
      "hit": false,
      "t": 46499.95350000009,
      "d": 35.714249999997264,
      "v": 97
    },
    {
      "midi": 64,
      "hit": false,
      "t": 46714.23900000009,
      "d": 35.714249999997264,
      "v": 87
    },
    {
      "midi": 67,
      "hit": false,
      "t": 46714.23900000009,
      "d": 35.714249999997264,
      "v": 98
    },
    {
      "midi": 71,
      "hit": false,
      "t": 46714.23900000009,
      "d": 35.714249999997264,
      "v": 93
    },
    {
      "midi": 64,
      "hit": false,
      "t": 46928.52450000009,
      "d": 35.714249999997264,
      "v": 82
    },
    {
      "midi": 67,
      "hit": false,
      "t": 46928.52450000009,
      "d": 35.714249999997264,
      "v": 94
    },
    {
      "midi": 71,
      "hit": false,
      "t": 46928.52450000009,
      "d": 35.714249999997264,
      "v": 92
    },
    {
      "midi": 71,
      "hit": false,
      "t": 47142.810000000085,
      "d": 35.714249999997264,
      "v": 64
    },
    {
      "midi": 64,
      "hit": false,
      "t": 47142.810000000085,
      "d": 71.42849999999453,
      "v": 67
    },
    {
      "midi": 67,
      "hit": false,
      "t": 47142.810000000085,
      "d": 71.42849999999453,
      "v": 68
    },
    {
      "midi": 64,
      "hit": false,
      "t": 47357.09550000008,
      "d": 71.4285000000018,
      "v": 67
    },
    {
      "midi": 67,
      "hit": false,
      "t": 47357.09550000008,
      "d": 71.4285000000018,
      "v": 79
    },
    {
      "midi": 71,
      "hit": false,
      "t": 47357.09550000008,
      "d": 71.4285000000018,
      "v": 62
    },
    {
      "midi": 71,
      "hit": false,
      "t": 47571.38100000009,
      "d": 35.714249999997264,
      "v": 57
    },
    {
      "midi": 64,
      "hit": false,
      "t": 47571.38100000009,
      "d": 71.42849999999453,
      "v": 59
    },
    {
      "midi": 67,
      "hit": false,
      "t": 47571.38100000009,
      "d": 71.42849999999453,
      "v": 69
    },
    {
      "midi": 64,
      "hit": false,
      "t": 47785.66650000008,
      "d": 35.714249999997264,
      "v": 70
    },
    {
      "midi": 67,
      "hit": false,
      "t": 47785.66650000008,
      "d": 35.714249999997264,
      "v": 78
    },
    {
      "midi": 71,
      "hit": false,
      "t": 47785.66650000008,
      "d": 35.714249999997264,
      "v": 66
    },
    {
      "midi": 52,
      "hit": false,
      "t": 47785.66650000008,
      "d": 71.42849999999453,
      "v": 88
    },
    {
      "midi": 60,
      "hit": false,
      "t": 47999.95200000008,
      "d": 35.714249999997264,
      "v": 69
    },
    {
      "midi": 64,
      "hit": false,
      "t": 47999.95200000008,
      "d": 35.714249999997264,
      "v": 83
    },
    {
      "midi": 69,
      "hit": false,
      "t": 47999.95200000008,
      "d": 71.42849999999453,
      "v": 88
    },
    {
      "midi": 45,
      "hit": false,
      "t": 47999.95200000008,
      "d": 1535.7127500000133,
      "v": 57
    },
    {
      "midi": 64,
      "hit": false,
      "t": 48214.237500000076,
      "d": 35.714249999997264,
      "v": 54
    },
    {
      "midi": 69,
      "hit": false,
      "t": 48214.237500000076,
      "d": 35.714249999997264,
      "v": 67
    },
    {
      "midi": 60,
      "hit": false,
      "t": 48214.237500000076,
      "d": 107.14274999999907,
      "v": 54
    },
    {
      "midi": 60,
      "hit": false,
      "t": 48428.523000000074,
      "d": 35.714249999997264,
      "v": 54
    },
    {
      "midi": 64,
      "hit": false,
      "t": 48428.523000000074,
      "d": 35.714249999997264,
      "v": 66
    },
    {
      "midi": 69,
      "hit": false,
      "t": 48428.523000000074,
      "d": 71.42849999999453,
      "v": 69
    },
    {
      "midi": 60,
      "hit": false,
      "t": 48642.80850000007,
      "d": 71.4285000000018,
      "v": 54
    },
    {
      "midi": 64,
      "hit": false,
      "t": 48642.80850000007,
      "d": 71.4285000000018,
      "v": 67
    },
    {
      "midi": 69,
      "hit": false,
      "t": 48642.80850000007,
      "d": 71.4285000000018,
      "v": 70
    },
    {
      "midi": 60,
      "hit": false,
      "t": 48857.09400000008,
      "d": 71.4285000000018,
      "v": 63
    },
    {
      "midi": 64,
      "hit": false,
      "t": 48857.09400000008,
      "d": 71.4285000000018,
      "v": 69
    },
    {
      "midi": 69,
      "hit": false,
      "t": 48857.09400000008,
      "d": 71.4285000000018,
      "v": 65
    },
    {
      "midi": 60,
      "hit": false,
      "t": 49071.37950000008,
      "d": 71.4285000000018,
      "v": 56
    },
    {
      "midi": 64,
      "hit": false,
      "t": 49071.37950000008,
      "d": 71.4285000000018,
      "v": 65
    },
    {
      "midi": 69,
      "hit": false,
      "t": 49071.37950000008,
      "d": 71.4285000000018,
      "v": 65
    },
    {
      "midi": 60,
      "hit": false,
      "t": 49285.66500000009,
      "d": 71.4285000000018,
      "v": 56
    },
    {
      "midi": 64,
      "hit": false,
      "t": 49285.66500000009,
      "d": 71.4285000000018,
      "v": 76
    },
    {
      "midi": 69,
      "hit": false,
      "t": 49285.66500000009,
      "d": 71.4285000000018,
      "v": 67
    },
    {
      "midi": 64,
      "hit": false,
      "t": 49499.95050000009,
      "d": 71.42849999999453,
      "v": 86
    },
    {
      "midi": 69,
      "hit": false,
      "t": 49499.95050000009,
      "d": 71.42849999999453,
      "v": 82
    },
    {
      "midi": 62,
      "hit": false,
      "t": 49714.23600000009,
      "d": 71.4285000000018,
      "v": 92
    },
    {
      "midi": 65,
      "hit": false,
      "t": 49714.23600000009,
      "d": 71.4285000000018,
      "v": 98
    },
    {
      "midi": 70,
      "hit": false,
      "t": 49714.23600000009,
      "d": 71.4285000000018,
      "v": 95
    },
    {
      "midi": 43,
      "hit": false,
      "t": 49714.23600000009,
      "d": 642.8564999999944,
      "v": 108
    },
    {
      "midi": 65,
      "hit": false,
      "t": 49928.5215000001,
      "d": 35.714249999997264,
      "v": 84
    },
    {
      "midi": 62,
      "hit": false,
      "t": 49928.5215000001,
      "d": 71.42849999999453,
      "v": 66
    },
    {
      "midi": 70,
      "hit": false,
      "t": 49928.5215000001,
      "d": 107.14274999999179,
      "v": 76
    },
    {
      "midi": 65,
      "hit": false,
      "t": 50142.80700000009,
      "d": 35.714249999997264,
      "v": 77
    },
    {
      "midi": 62,
      "hit": false,
      "t": 50142.80700000009,
      "d": 71.42849999999453,
      "v": 67
    },
    {
      "midi": 70,
      "hit": false,
      "t": 50142.80700000009,
      "d": 71.42849999999453,
      "v": 78
    },
    {
      "midi": 62,
      "hit": false,
      "t": 50357.092500000086,
      "d": 71.4285000000018,
      "v": 63
    },
    {
      "midi": 65,
      "hit": false,
      "t": 50357.092500000086,
      "d": 71.4285000000018,
      "v": 86
    },
    {
      "midi": 70,
      "hit": false,
      "t": 50357.092500000086,
      "d": 107.14274999999907,
      "v": 66
    },
    {
      "midi": 64,
      "hit": false,
      "t": 50571.378000000084,
      "d": 71.4285000000018,
      "v": 54
    },
    {
      "midi": 67,
      "hit": false,
      "t": 50571.378000000084,
      "d": 107.14274999999907,
      "v": 88
    },
    {
      "midi": 72,
      "hit": false,
      "t": 50571.378000000084,
      "d": 107.14274999999907,
      "v": 90
    },
    {
      "midi": 36,
      "hit": false,
      "t": 50571.378000000084,
      "d": 678.5707499999917,
      "v": 113
    },
    {
      "midi": 64,
      "hit": false,
      "t": 50785.66350000008,
      "d": 71.42849999999453,
      "v": 66
    },
    {
      "midi": 67,
      "hit": false,
      "t": 50785.66350000008,
      "d": 71.42849999999453,
      "v": 80
    },
    {
      "midi": 72,
      "hit": false,
      "t": 50785.66350000008,
      "d": 107.14274999999179,
      "v": 82
    },
    {
      "midi": 64,
      "hit": false,
      "t": 50999.94900000007,
      "d": 71.4285000000018,
      "v": 91
    },
    {
      "midi": 67,
      "hit": false,
      "t": 50999.94900000007,
      "d": 71.4285000000018,
      "v": 99
    },
    {
      "midi": 48,
      "hit": false,
      "t": 50999.94900000007,
      "d": 107.14274999999907,
      "v": 98
    },
    {
      "midi": 70,
      "hit": false,
      "t": 50999.94900000007,
      "d": 178.57125000000087,
      "v": 94
    },
    {
      "midi": 43,
      "hit": false,
      "t": 51178.520250000074,
      "d": 107.14274999999907,
      "v": 90
    },
    {
      "midi": 41,
      "hit": false,
      "t": 51428.52000000008,
      "d": 71.42849999999453,
      "v": 115
    },
    {
      "midi": 60,
      "hit": false,
      "t": 51428.52000000008,
      "d": 107.14274999999179,
      "v": 90
    },
    {
      "midi": 65,
      "hit": false,
      "t": 51428.52000000008,
      "d": 249.99974999998813,
      "v": 92
    },
    {
      "midi": 69,
      "hit": false,
      "t": 51428.52000000008,
      "d": 357.1424999999872,
      "v": 93
    },
    {
      "midi": 60,
      "hit": false,
      "t": 51642.80550000007,
      "d": 321.4282499999972,
      "v": 94
    },
    {
      "midi": 57,
      "hit": false,
      "t": 51857.091000000066,
      "d": 178.57125000000087,
      "v": 80
    },
    {
      "midi": 60,
      "hit": false,
      "t": 52107.09075000007,
      "d": 214.28549999999814,
      "v": 54
    },
    {
      "midi": 41,
      "hit": false,
      "t": 52321.37625000007,
      "d": 71.4285000000018,
      "v": 102
    },
    {
      "midi": 72,
      "hit": false,
      "t": 52321.37625000007,
      "d": 178.57125000000087,
      "v": 98
    },
    {
      "midi": 69,
      "hit": false,
      "t": 52499.94750000007,
      "d": 249.9997499999954,
      "v": 94
    },
    {
      "midi": 53,
      "hit": false,
      "t": 52714.233000000066,
      "d": 178.57125000000087,
      "v": 83
    },
    {
      "midi": 57,
      "hit": false,
      "t": 52714.233000000066,
      "d": 178.57125000000087,
      "v": 89
    },
    {
      "midi": 65,
      "hit": false,
      "t": 52714.233000000066,
      "d": 214.28549999999814,
      "v": 93
    },
    {
      "midi": 60,
      "hit": false,
      "t": 52928.518500000064,
      "d": 142.8570000000036,
      "v": 88
    },
    {
      "midi": 45,
      "hit": false,
      "t": 53107.089750000065,
      "d": 1464.2842499999897,
      "v": 108
    },
    {
      "midi": 60,
      "hit": false,
      "t": 53321.37525000006,
      "d": 321.4282500000045,
      "v": 93
    },
    {
      "midi": 64,
      "hit": false,
      "t": 53571.375000000065,
      "d": 142.8570000000036,
      "v": 91
    },
    {
      "midi": 52,
      "hit": false,
      "t": 53571.375000000065,
      "d": 428.5709999999963,
      "v": 57
    },
    {
      "midi": 60,
      "hit": false,
      "t": 53749.946250000066,
      "d": 321.4282499999972,
      "v": 101
    },
    {
      "midi": 72,
      "hit": false,
      "t": 53964.231750000064,
      "d": 214.28549999999814,
      "v": 100
    },
    {
      "midi": 57,
      "hit": false,
      "t": 53964.231750000064,
      "d": 499.9994999999908,
      "v": 91
    },
    {
      "midi": 69,
      "hit": false,
      "t": 54214.23150000006,
      "d": 214.28549999999814,
      "v": 84
    },
    {
      "midi": 64,
      "hit": false,
      "t": 54392.80275000006,
      "d": 249.99974999998813,
      "v": 90
    },
    {
      "midi": 52,
      "hit": false,
      "t": 54428.51700000006,
      "d": 71.42849999999453,
      "v": 76
    },
    {
      "midi": 60,
      "hit": false,
      "t": 54607.08825000005,
      "d": 107.14274999999907,
      "v": 85
    },
    {
      "midi": 38,
      "hit": false,
      "t": 54857.08800000005,
      "d": 71.42849999999453,
      "v": 91
    },
    {
      "midi": 50,
      "hit": false,
      "t": 54857.08800000005,
      "d": 107.14274999999179,
      "v": 86
    },
    {
      "midi": 62,
      "hit": false,
      "t": 54857.08800000005,
      "d": 321.4282499999972,
      "v": 82
    },
    {
      "midi": 65,
      "hit": false,
      "t": 54857.08800000005,
      "d": 392.856749999999,
      "v": 99
    },
    {
      "midi": 50,
      "hit": false,
      "t": 55107.08775000004,
      "d": 71.4285000000018,
      "v": 51
    },
    {
      "midi": 53,
      "hit": false,
      "t": 55285.65900000004,
      "d": 392.85674999999173,
      "v": 86
    },
    {
      "midi": 64,
      "hit": false,
      "t": 55499.94450000004,
      "d": 107.14274999999907,
      "v": 98
    },
    {
      "midi": 67,
      "hit": false,
      "t": 55499.94450000004,
      "d": 142.85699999999633,
      "v": 95
    },
    {
      "midi": 57,
      "hit": false,
      "t": 55571.37300000004,
      "d": 142.85699999998906,
      "v": 53
    },
    {
      "midi": 65,
      "hit": false,
      "t": 55714.23000000003,
      "d": 71.42849999999453,
      "v": 98
    },
    {
      "midi": 69,
      "hit": false,
      "t": 55714.23000000003,
      "d": 71.42849999999453,
      "v": 98
    },
    {
      "midi": 50,
      "hit": false,
      "t": 55714.23000000003,
      "d": 714.2849999999962,
      "v": 85
    },
    {
      "midi": 53,
      "hit": false,
      "t": 55928.51550000003,
      "d": 535.7137499999953,
      "v": 68
    },
    {
      "midi": 69,
      "hit": false,
      "t": 56178.51525000003,
      "d": 392.85674999999173,
      "v": 110
    },
    {
      "midi": 72,
      "hit": false,
      "t": 56178.51525000003,
      "d": 428.570999999989,
      "v": 108
    },
    {
      "midi": 57,
      "hit": false,
      "t": 56392.80075000003,
      "d": 107.14274999999179,
      "v": 71
    },
    {
      "midi": 67,
      "hit": false,
      "t": 56607.08625000002,
      "d": 285.71399999999994,
      "v": 101
    },
    {
      "midi": 71,
      "hit": false,
      "t": 56607.08625000002,
      "d": 321.4282499999972,
      "v": 98
    },
    {
      "midi": 43,
      "hit": false,
      "t": 56642.80050000002,
      "d": 678.570749999999,
      "v": 113
    },
    {
      "midi": 50,
      "hit": false,
      "t": 56821.37175000002,
      "d": 178.57125000000087,
      "v": 56
    },
    {
      "midi": 65,
      "hit": false,
      "t": 57035.65725000002,
      "d": 321.4282499999972,
      "v": 76
    },
    {
      "midi": 69,
      "hit": false,
      "t": 57035.65725000002,
      "d": 357.14249999999447,
      "v": 90
    },
    {
      "midi": 55,
      "hit": false,
      "t": 57249.94275000002,
      "d": 178.5712499999936,
      "v": 101
    },
    {
      "midi": 64,
      "hit": false,
      "t": 57464.22825000001,
      "d": 321.4282500000045,
      "v": 91
    },
    {
      "midi": 67,
      "hit": false,
      "t": 57464.22825000001,
      "d": 357.14250000000175,
      "v": 92
    },
    {
      "midi": 43,
      "hit": false,
      "t": 57464.22825000001,
      "d": 678.5707499999917,
      "v": 110
    },
    {
      "midi": 50,
      "hit": false,
      "t": 57678.51375000001,
      "d": 214.28549999999086,
      "v": 65
    },
    {
      "midi": 62,
      "hit": false,
      "t": 57857.08500000001,
      "d": 214.28549999999814,
      "v": 82
    },
    {
      "midi": 55,
      "hit": false,
      "t": 57892.799250000004,
      "d": 178.57125000000087,
      "v": 101
    },
    {
      "midi": 65,
      "hit": false,
      "t": 57892.799250000004,
      "d": 214.28549999999814,
      "v": 78
    },
    {
      "midi": 50,
      "hit": false,
      "t": 58107.08475,
      "d": 35.714249999997264,
      "v": 66
    },
    {
      "midi": 64,
      "hit": false,
      "t": 58285.655999999995,
      "d": 285.71399999999267,
      "v": 90
    },
    {
      "midi": 60,
      "hit": false,
      "t": 58321.37024999999,
      "d": 214.28549999999814,
      "v": 83
    },
    {
      "midi": 36,
      "hit": false,
      "t": 58321.37024999999,
      "d": 607.1422499999971,
      "v": 109
    },
    {
      "midi": 55,
      "hit": false,
      "t": 58499.94149999999,
      "d": 249.9997499999954,
      "v": 81
    },
    {
      "midi": 67,
      "hit": false,
      "t": 58714.22699999999,
      "d": 214.28549999999814,
      "v": 100
    },
    {
      "midi": 60,
      "hit": false,
      "t": 58749.94124999999,
      "d": 178.57125000000087,
      "v": 95
    },
    {
      "midi": 64,
      "hit": false,
      "t": 58749.94124999999,
      "d": 178.57125000000087,
      "v": 86
    },
    {
      "midi": 48,
      "hit": false,
      "t": 58749.94124999999,
      "d": 392.856749999999,
      "v": 74
    },
    {
      "midi": 55,
      "hit": false,
      "t": 58928.51249999999,
      "d": 249.9997499999954,
      "v": 74
    },
    {
      "midi": 60,
      "hit": false,
      "t": 59142.79799999999,
      "d": 178.5712499999936,
      "v": 96
    },
    {
      "midi": 64,
      "hit": false,
      "t": 59142.79799999999,
      "d": 214.28549999999086,
      "v": 100
    },
    {
      "midi": 67,
      "hit": false,
      "t": 59142.79799999999,
      "d": 249.99974999998813,
      "v": 92
    },
    {
      "midi": 36,
      "hit": false,
      "t": 59142.79799999999,
      "d": 642.8564999999871,
      "v": 112
    },
    {
      "midi": 55,
      "hit": false,
      "t": 59321.36924999998,
      "d": 285.71399999999267,
      "v": 58
    },
    {
      "midi": 60,
      "hit": false,
      "t": 59571.36899999998,
      "d": 214.28549999999814,
      "v": 89
    },
    {
      "midi": 64,
      "hit": false,
      "t": 59571.36899999998,
      "d": 214.28549999999814,
      "v": 96
    },
    {
      "midi": 48,
      "hit": false,
      "t": 59785.654499999975,
      "d": 107.14274999999907,
      "v": 90
    },
    {
      "midi": 55,
      "hit": false,
      "t": 59785.654499999975,
      "d": 249.9997499999954,
      "v": 90
    },
    {
      "midi": 59,
      "hit": false,
      "t": 59999.93999999997,
      "d": 214.28549999999814,
      "v": 110
    },
    {
      "midi": 64,
      "hit": false,
      "t": 59999.93999999997,
      "d": 214.28549999999814,
      "v": 87
    },
    {
      "midi": 67,
      "hit": false,
      "t": 59999.93999999997,
      "d": 214.28549999999814,
      "v": 96
    },
    {
      "midi": 40,
      "hit": false,
      "t": 59999.93999999997,
      "d": 714.2849999999817,
      "v": 92
    },
    {
      "midi": 55,
      "hit": false,
      "t": 60214.22549999997,
      "d": 285.71399999999267,
      "v": 90
    },
    {
      "midi": 59,
      "hit": false,
      "t": 60428.51099999997,
      "d": 71.42849999999453,
      "v": 96
    },
    {
      "midi": 52,
      "hit": false,
      "t": 60464.22524999997,
      "d": 71.42849999999453,
      "v": 67
    },
    {
      "midi": 64,
      "hit": false,
      "t": 60464.22524999997,
      "d": 71.42849999999453,
      "v": 92
    },
    {
      "midi": 67,
      "hit": false,
      "t": 60464.22524999997,
      "d": 107.14274999999179,
      "v": 93
    },
    {
      "midi": 52,
      "hit": false,
      "t": 60678.51074999996,
      "d": 214.28549999999814,
      "v": 93
    },
    {
      "midi": 64,
      "hit": false,
      "t": 60857.08199999996,
      "d": 214.28549999999814,
      "v": 97
    },
    {
      "midi": 67,
      "hit": false,
      "t": 60857.08199999996,
      "d": 214.28549999999814,
      "v": 98
    },
    {
      "midi": 71,
      "hit": false,
      "t": 60857.08199999996,
      "d": 214.28549999999814,
      "v": 91
    },
    {
      "midi": 40,
      "hit": false,
      "t": 60857.08199999996,
      "d": 642.8564999999944,
      "v": 99
    },
    {
      "midi": 59,
      "hit": false,
      "t": 60892.796249999956,
      "d": 35.714249999997264,
      "v": 63
    },
    {
      "midi": 59,
      "hit": false,
      "t": 61071.36749999996,
      "d": 285.71399999999994,
      "v": 76
    },
    {
      "midi": 52,
      "hit": false,
      "t": 61107.081749999954,
      "d": 107.14274999999907,
      "v": 56
    },
    {
      "midi": 64,
      "hit": false,
      "t": 61285.652999999955,
      "d": 107.14274999999907,
      "v": 78
    },
    {
      "midi": 67,
      "hit": false,
      "t": 61285.652999999955,
      "d": 107.14274999999907,
      "v": 91
    },
    {
      "midi": 47,
      "hit": false,
      "t": 61464.224249999956,
      "d": 71.42849999999453,
      "v": 78
    },
    {
      "midi": 57,
      "hit": false,
      "t": 61714.22399999995,
      "d": 142.85699999999633,
      "v": 68
    },
    {
      "midi": 72,
      "hit": false,
      "t": 61749.93824999995,
      "d": 178.57125000000087,
      "v": 98
    },
    {
      "midi": 45,
      "hit": false,
      "t": 61749.93824999995,
      "d": 1535.7127499999915,
      "v": 87
    },
    {
      "midi": 69,
      "hit": false,
      "t": 61928.50949999995,
      "d": 178.57125000000087,
      "v": 78
    },
    {
      "midi": 64,
      "hit": false,
      "t": 62142.79499999995,
      "d": 178.57125000000087,
      "v": 86
    },
    {
      "midi": 52,
      "hit": false,
      "t": 62142.79499999995,
      "d": 392.856749999999,
      "v": 74
    },
    {
      "midi": 60,
      "hit": false,
      "t": 62321.36624999995,
      "d": 178.57125000000087,
      "v": 69
    },
    {
      "midi": 69,
      "hit": false,
      "t": 62535.651749999946,
      "d": 214.28549999999814,
      "v": 98
    },
    {
      "midi": 57,
      "hit": false,
      "t": 62535.651749999946,
      "d": 499.9994999999908,
      "v": 57
    },
    {
      "midi": 64,
      "hit": false,
      "t": 62785.65149999994,
      "d": 392.856749999999,
      "v": 75
    },
    {
      "midi": 52,
      "hit": false,
      "t": 62999.93699999994,
      "d": 214.28549999999814,
      "v": 66
    },
    {
      "midi": 60,
      "hit": false,
      "t": 63178.50824999994,
      "d": 142.85699999999633,
      "v": 77
    },
    {
      "midi": 36,
      "hit": false,
      "t": 63392.79374999994,
      "d": 178.57125000000087,
      "v": 115
    },
    {
      "midi": 64,
      "hit": false,
      "t": 63607.07924999994,
      "d": 357.1424999999872,
      "v": 91
    },
    {
      "midi": 60,
      "hit": false,
      "t": 63821.364749999935,
      "d": 71.42849999999453,
      "v": 69
    },
    {
      "midi": 58,
      "hit": false,
      "t": 63821.364749999935,
      "d": 107.14274999999179,
      "v": 75
    },
    {
      "midi": 55,
      "hit": false,
      "t": 63857.07899999993,
      "d": 71.42849999999453,
      "v": 68
    },
    {
      "midi": 67,
      "hit": false,
      "t": 64035.650249999926,
      "d": 178.57125000000087,
      "v": 92
    },
    {
      "midi": 36,
      "hit": false,
      "t": 64249.935749999924,
      "d": 71.4285000000018,
      "v": 92
    },
    {
      "midi": 67,
      "hit": false,
      "t": 64249.935749999924,
      "d": 178.57125000000087,
      "v": 57
    },
    {
      "midi": 74,
      "hit": false,
      "t": 64249.935749999924,
      "d": 214.28549999999814,
      "v": 92
    },
    {
      "midi": 64,
      "hit": false,
      "t": 64464.22124999992,
      "d": 142.8570000000036,
      "v": 54
    },
    {
      "midi": 58,
      "hit": false,
      "t": 64678.50674999993,
      "d": 71.4285000000018,
      "v": 71
    },
    {
      "midi": 60,
      "hit": false,
      "t": 64678.50674999993,
      "d": 71.4285000000018,
      "v": 63
    },
    {
      "midi": 55,
      "hit": false,
      "t": 64678.50674999993,
      "d": 107.14274999999907,
      "v": 82
    },
    {
      "midi": 67,
      "hit": false,
      "t": 64678.50674999993,
      "d": 178.57125000000087,
      "v": 89
    },
    {
      "midi": 72,
      "hit": false,
      "t": 64678.50674999993,
      "d": 285.71399999999994,
      "v": 95
    },
    {
      "midi": 64,
      "hit": false,
      "t": 64892.792249999926,
      "d": 107.14274999999907,
      "v": 69
    },
    {
      "midi": 41,
      "hit": false,
      "t": 65107.077749999924,
      "d": 107.14274999999907,
      "v": 88
    },
    {
      "midi": 53,
      "hit": false,
      "t": 65107.077749999924,
      "d": 178.57125000000087,
      "v": 74
    },
    {
      "midi": 69,
      "hit": false,
      "t": 65107.077749999924,
      "d": 249.9997499999954,
      "v": 75
    },
    {
      "midi": 60,
      "hit": false,
      "t": 65321.36324999992,
      "d": 249.99975000000268,
      "v": 67
    },
    {
      "midi": 53,
      "hit": false,
      "t": 65571.36299999992,
      "d": 71.42849999999453,
      "v": 54
    },
    {
      "midi": 57,
      "hit": false,
      "t": 65571.36299999992,
      "d": 71.42849999999453,
      "v": 70
    },
    {
      "midi": 60,
      "hit": false,
      "t": 65785.64849999992,
      "d": 178.5712499999936,
      "v": 65
    },
    {
      "midi": 41,
      "hit": false,
      "t": 65999.93399999992,
      "d": 71.42849999999453,
      "v": 86
    },
    {
      "midi": 53,
      "hit": false,
      "t": 65999.93399999992,
      "d": 107.14274999999907,
      "v": 63
    },
    {
      "midi": 72,
      "hit": false,
      "t": 65999.93399999992,
      "d": 249.99975000000268,
      "v": 92
    },
    {
      "midi": 69,
      "hit": false,
      "t": 66214.21949999992,
      "d": 249.99975000000268,
      "v": 83
    },
    {
      "midi": 53,
      "hit": false,
      "t": 66428.50499999992,
      "d": 107.14274999999907,
      "v": 62
    },
    {
      "midi": 57,
      "hit": false,
      "t": 66428.50499999992,
      "d": 107.14274999999907,
      "v": 78
    },
    {
      "midi": 65,
      "hit": false,
      "t": 66428.50499999992,
      "d": 249.99975000000268,
      "v": 77
    },
    {
      "midi": 60,
      "hit": false,
      "t": 66642.79049999992,
      "d": 107.14274999999907,
      "v": 51
    },
    {
      "midi": 71,
      "hit": false,
      "t": 66857.07599999991,
      "d": 249.99975000000268,
      "v": 80
    },
    {
      "midi": 43,
      "hit": false,
      "t": 66892.79024999992,
      "d": 1392.855750000017,
      "v": 95
    },
    {
      "midi": 50,
      "hit": false,
      "t": 67107.07574999992,
      "d": 214.28549999999814,
      "v": 57
    },
    {
      "midi": 59,
      "hit": false,
      "t": 67285.64699999991,
      "d": 142.8570000000036,
      "v": 72
    },
    {
      "midi": 55,
      "hit": false,
      "t": 67285.64699999991,
      "d": 357.14250000000175,
      "v": 66
    },
    {
      "midi": 59,
      "hit": false,
      "t": 67535.64674999991,
      "d": 107.14274999999907,
      "v": 85
    },
    {
      "midi": 50,
      "hit": false,
      "t": 67714.2179999999,
      "d": 392.85675000002084,
      "v": 69
    },
    {
      "midi": 69,
      "hit": false,
      "t": 67749.93224999991,
      "d": 607.142250000019,
      "v": 76
    },
    {
      "midi": 65,
      "hit": false,
      "t": 67785.64649999992,
      "d": 178.57125000000815,
      "v": 63
    },
    {
      "midi": 59,
      "hit": false,
      "t": 67928.50349999992,
      "d": 214.2855000000127,
      "v": 95
    },
    {
      "midi": 55,
      "hit": false,
      "t": 68107.07474999993,
      "d": 71.42850000000908,
      "v": 67
    },
    {
      "midi": 59,
      "hit": false,
      "t": 68357.07449999993,
      "d": 178.5712499999936,
      "v": 80
    },
    {
      "midi": 43,
      "hit": false,
      "t": 68464.21724999993,
      "d": 142.8570000000036,
      "v": 85
    },
    {
      "midi": 64,
      "hit": false,
      "t": 68571.35999999993,
      "d": 178.57125000000815,
      "v": 80
    },
    {
      "midi": 67,
      "hit": false,
      "t": 68571.35999999993,
      "d": 178.57125000000815,
      "v": 90
    },
    {
      "midi": 72,
      "hit": false,
      "t": 68571.35999999993,
      "d": 178.57125000000815,
      "v": 93
    },
    {
      "midi": 36,
      "hit": false,
      "t": 68607.07424999993,
      "d": 107.14274999999907,
      "v": 113
    },
    {
      "midi": 48,
      "hit": false,
      "t": 68785.64549999994,
      "d": 142.8570000000036,
      "v": 108
    },
    {
      "midi": 64,
      "hit": false,
      "t": 68785.64549999994,
      "d": 1249.9987499999988,
      "v": 93
    },
    {
      "midi": 72,
      "hit": false,
      "t": 68785.64549999994,
      "d": 1249.9987499999988,
      "v": 104
    },
    {
      "midi": 67,
      "hit": false,
      "t": 68785.64549999994,
      "d": 1285.7130000000034,
      "v": 101
    },
    {
      "midi": 36,
      "hit": false,
      "t": 68964.21674999995,
      "d": 142.8570000000036,
      "v": 112
    },
    {
      "midi": 48,
      "hit": false,
      "t": 69214.21649999995,
      "d": 178.5712499999936,
      "v": 127
    },
    {
      "midi": 36,
      "hit": false,
      "t": 69428.50199999995,
      "d": 178.5712499999936,
      "v": 127
    },
    {
      "midi": 48,
      "hit": false,
      "t": 69642.78749999995,
      "d": 178.5712499999936,
      "v": 125
    },
    {
      "midi": 36,
      "hit": false,
      "t": 69857.07299999995,
      "d": 178.5712499999936,
      "v": 127
    },
    {
      "midi": 48,
      "hit": false,
      "t": 70071.35849999994,
      "d": 142.8570000000036,
      "v": 114
    },
    {
      "midi": 74,
      "hit": false,
      "t": 70249.92974999995,
      "d": 178.57125000000815,
      "v": 107
    },
    {
      "midi": 65,
      "hit": false,
      "t": 70285.64399999996,
      "d": 107.14274999999907,
      "v": 108
    },
    {
      "midi": 67,
      "hit": false,
      "t": 70285.64399999996,
      "d": 107.14274999999907,
      "v": 107
    },
    {
      "midi": 70,
      "hit": false,
      "t": 70285.64399999996,
      "d": 142.8570000000036,
      "v": 106
    },
    {
      "midi": 36,
      "hit": false,
      "t": 70285.64399999996,
      "d": 214.2855000000127,
      "v": 125
    },
    {
      "midi": 74,
      "hit": false,
      "t": 70464.21524999996,
      "d": 428.5710000000108,
      "v": 109
    },
    {
      "midi": 65,
      "hit": false,
      "t": 70464.21524999996,
      "d": 499.9995000000199,
      "v": 105
    },
    {
      "midi": 67,
      "hit": false,
      "t": 70464.21524999996,
      "d": 499.9995000000199,
      "v": 101
    },
    {
      "midi": 70,
      "hit": false,
      "t": 70464.21524999996,
      "d": 499.9995000000199,
      "v": 99
    },
    {
      "midi": 48,
      "hit": false,
      "t": 70535.64374999997,
      "d": 178.57125000000815,
      "v": 113
    },
    {
      "midi": 36,
      "hit": false,
      "t": 70714.21499999998,
      "d": 178.5712499999936,
      "v": 125
    },
    {
      "midi": 48,
      "hit": false,
      "t": 70928.50049999998,
      "d": 178.57125000000815,
      "v": 114
    },
    {
      "midi": 67,
      "hit": false,
      "t": 71142.786,
      "d": 71.42850000000908,
      "v": 105
    },
    {
      "midi": 64,
      "hit": false,
      "t": 71142.786,
      "d": 107.14275000001362,
      "v": 104
    },
    {
      "midi": 72,
      "hit": false,
      "t": 71142.786,
      "d": 107.14275000001362,
      "v": 99
    },
    {
      "midi": 76,
      "hit": false,
      "t": 71142.786,
      "d": 107.14275000001362,
      "v": 105
    },
    {
      "midi": 36,
      "hit": false,
      "t": 71142.786,
      "d": 178.57125000000815,
      "v": 127
    },
    {
      "midi": 67,
      "hit": false,
      "t": 71321.35725,
      "d": 249.99975000000268,
      "v": 113
    },
    {
      "midi": 76,
      "hit": false,
      "t": 71321.35725,
      "d": 249.99975000000268,
      "v": 106
    },
    {
      "midi": 48,
      "hit": false,
      "t": 71357.0715,
      "d": 178.5712499999936,
      "v": 118
    },
    {
      "midi": 64,
      "hit": false,
      "t": 71357.0715,
      "d": 214.28549999999814,
      "v": 112
    },
    {
      "midi": 72,
      "hit": false,
      "t": 71357.0715,
      "d": 249.99975000000268,
      "v": 108
    },
    {
      "midi": 36,
      "hit": false,
      "t": 71535.64275,
      "d": 214.2855000000127,
      "v": 125
    },
    {
      "midi": 48,
      "hit": false,
      "t": 71749.92825000001,
      "d": 35.71425000000454,
      "v": 115
    },
    {
      "midi": 69,
      "hit": false,
      "t": 71964.21375000002,
      "d": 749.9992499999935,
      "v": 92
    },
    {
      "midi": 72,
      "hit": false,
      "t": 71964.21375000002,
      "d": 821.427749999988,
      "v": 98
    },
    {
      "midi": 41,
      "hit": false,
      "t": 71999.92800000003,
      "d": 178.57125000000815,
      "v": 117
    },
    {
      "midi": 65,
      "hit": false,
      "t": 71999.92800000003,
      "d": 607.1422499999899,
      "v": 94
    },
    {
      "midi": 77,
      "hit": false,
      "t": 71999.92800000003,
      "d": 785.7134999999835,
      "v": 91
    },
    {
      "midi": 53,
      "hit": false,
      "t": 72178.49925000004,
      "d": 71.42849999999453,
      "v": 104
    },
    {
      "midi": 57,
      "hit": false,
      "t": 72428.49900000003,
      "d": 357.1424999999872,
      "v": 67
    },
    {
      "midi": 60,
      "hit": false,
      "t": 72642.78450000002,
      "d": 214.28549999999814,
      "v": 90
    },
    {
      "midi": 65,
      "hit": false,
      "t": 72821.35575000002,
      "d": 178.57125000000815,
      "v": 110
    },
    {
      "midi": 53,
      "hit": false,
      "t": 72821.35575000002,
      "d": 642.8565000000381,
      "v": 92
    },
    {
      "midi": 69,
      "hit": false,
      "t": 73035.64125000003,
      "d": 71.42850000000908,
      "v": 120
    },
    {
      "midi": 57,
      "hit": false,
      "t": 73071.35550000003,
      "d": 214.2855000000127,
      "v": 85
    },
    {
      "midi": 72,
      "hit": false,
      "t": 73249.92675000004,
      "d": 71.42850000000908,
      "v": 94
    },
    {
      "midi": 60,
      "hit": false,
      "t": 73249.92675000004,
      "d": 357.1425000000163,
      "v": 77
    },
    {
      "midi": 77,
      "hit": false,
      "t": 73428.49800000005,
      "d": 107.14274999999907,
      "v": 98
    },
    {
      "midi": 57,
      "hit": false,
      "t": 73428.49800000005,
      "d": 142.8570000000036,
      "v": 70
    },
    {
      "midi": 79,
      "hit": false,
      "t": 73642.78350000006,
      "d": 178.5712499999936,
      "v": 113
    },
    {
      "midi": 55,
      "hit": false,
      "t": 73678.49775000007,
      "d": 535.7137499999953,
      "v": 99
    },
    {
      "midi": 59,
      "hit": false,
      "t": 73857.06900000006,
      "d": 357.14250000000175,
      "v": 55
    },
    {
      "midi": 62,
      "hit": false,
      "t": 74107.06875000006,
      "d": 71.42849999999453,
      "v": 71
    },
    {
      "midi": 67,
      "hit": false,
      "t": 74285.64000000006,
      "d": 214.28549999999814,
      "v": 88
    },
    {
      "midi": 67,
      "hit": false,
      "t": 74535.63975000006,
      "d": 71.42849999999453,
      "v": 82
    },
    {
      "midi": 71,
      "hit": false,
      "t": 74535.63975000006,
      "d": 214.28549999999814,
      "v": 99
    },
    {
      "midi": 43,
      "hit": false,
      "t": 74535.63975000006,
      "d": 249.99975000000268,
      "v": 109
    },
    {
      "midi": 74,
      "hit": false,
      "t": 74535.63975000006,
      "d": 357.14250000000175,
      "v": 105
    },
    {
      "midi": 67,
      "hit": false,
      "t": 74749.92525000006,
      "d": 107.14274999999907,
      "v": 54
    },
    {
      "midi": 55,
      "hit": false,
      "t": 74749.92525000006,
      "d": 142.8570000000036,
      "v": 67
    },
    {
      "midi": 69,
      "hit": false,
      "t": 74964.21075000006,
      "d": 142.8570000000036,
      "v": 104
    },
    {
      "midi": 72,
      "hit": false,
      "t": 74964.21075000006,
      "d": 142.8570000000036,
      "v": 100
    },
    {
      "midi": 43,
      "hit": false,
      "t": 74964.21075000006,
      "d": 214.28549999999814,
      "v": 108
    },
    {
      "midi": 50,
      "hit": false,
      "t": 75178.49625000005,
      "d": 35.71425000000454,
      "v": 89
    },
    {
      "midi": 40,
      "hit": false,
      "t": 75357.06750000006,
      "d": 214.28549999999814,
      "v": 107
    },
    {
      "midi": 67,
      "hit": false,
      "t": 75392.78175000007,
      "d": 428.5709999999963,
      "v": 101
    },
    {
      "midi": 71,
      "hit": false,
      "t": 75392.78175000007,
      "d": 535.7137499999953,
      "v": 99
    },
    {
      "midi": 52,
      "hit": false,
      "t": 75571.35300000006,
      "d": 71.42850000000908,
      "v": 98
    },
    {
      "midi": 64,
      "hit": false,
      "t": 75607.06725000007,
      "d": 285.71399999999267,
      "v": 63
    },
    {
      "midi": 55,
      "hit": false,
      "t": 75821.35275000006,
      "d": 357.14250000000175,
      "v": 85
    },
    {
      "midi": 59,
      "hit": false,
      "t": 76071.35250000007,
      "d": 178.5712499999936,
      "v": 71
    },
    {
      "midi": 76,
      "hit": false,
      "t": 76249.92375000006,
      "d": 428.5709999999963,
      "v": 95
    },
    {
      "midi": 64,
      "hit": false,
      "t": 76249.92375000006,
      "d": 571.4279999999999,
      "v": 90
    },
    {
      "midi": 67,
      "hit": false,
      "t": 76249.92375000006,
      "d": 571.4279999999999,
      "v": 98
    },
    {
      "midi": 52,
      "hit": false,
      "t": 76249.92375000006,
      "d": 642.856500000009,
      "v": 81
    },
    {
      "midi": 55,
      "hit": false,
      "t": 76464.20925000006,
      "d": 428.5710000000108,
      "v": 53
    },
    {
      "midi": 59,
      "hit": false,
      "t": 76714.20900000006,
      "d": 142.8570000000036,
      "v": 53
    },
    {
      "midi": 74,
      "hit": false,
      "t": 76892.78025000007,
      "d": 142.8570000000036,
      "v": 97
    },
    {
      "midi": 72,
      "hit": false,
      "t": 77071.35150000008,
      "d": 249.99975000000268,
      "v": 84
    },
    {
      "midi": 45,
      "hit": false,
      "t": 77107.06575000008,
      "d": 535.7137499999953,
      "v": 91
    },
    {
      "midi": 52,
      "hit": false,
      "t": 77285.63700000008,
      "d": 214.28549999999814,
      "v": 70
    },
    {
      "midi": 69,
      "hit": false,
      "t": 77321.35125000008,
      "d": 178.5712499999936,
      "v": 49
    },
    {
      "midi": 64,
      "hit": false,
      "t": 77499.92250000007,
      "d": 321.42825000001176,
      "v": 49
    },
    {
      "midi": 57,
      "hit": false,
      "t": 77535.63675000008,
      "d": 428.5710000000108,
      "v": 54
    },
    {
      "midi": 69,
      "hit": false,
      "t": 77749.92225000008,
      "d": 178.57125000000815,
      "v": 83
    },
    {
      "midi": 52,
      "hit": false,
      "t": 77785.63650000008,
      "d": 178.57125000000815,
      "v": 44
    },
    {
      "midi": 76,
      "hit": false,
      "t": 77964.20775000009,
      "d": 249.99975000000268,
      "v": 98
    },
    {
      "midi": 45,
      "hit": false,
      "t": 77964.20775000009,
      "d": 714.2850000000035,
      "v": 90
    },
    {
      "midi": 72,
      "hit": false,
      "t": 78214.20750000009,
      "d": 249.99975000000268,
      "v": 71
    },
    {
      "midi": 52,
      "hit": false,
      "t": 78214.20750000009,
      "d": 428.5709999999963,
      "v": 57
    },
    {
      "midi": 69,
      "hit": false,
      "t": 78428.49300000009,
      "d": 214.28549999999814,
      "v": 88
    },
    {
      "midi": 57,
      "hit": false,
      "t": 78464.2072500001,
      "d": 107.14274999999907,
      "v": 69
    },
    {
      "midi": 64,
      "hit": false,
      "t": 78642.77850000009,
      "d": 178.57125000000815,
      "v": 80
    },
    {
      "midi": 38,
      "hit": false,
      "t": 78857.0640000001,
      "d": 107.14274999999907,
      "v": 102
    },
    {
      "midi": 65,
      "hit": false,
      "t": 78857.0640000001,
      "d": 214.28549999999814,
      "v": 95
    },
    {
      "midi": 50,
      "hit": false,
      "t": 78892.7782500001,
      "d": 107.14274999999907,
      "v": 82
    },
    {
      "midi": 62,
      "hit": false,
      "t": 79071.3495000001,
      "d": 249.99974999998813,
      "v": 70
    },
    {
      "midi": 53,
      "hit": false,
      "t": 79249.92075000009,
      "d": 428.5710000000108,
      "v": 45
    },
    {
      "midi": 65,
      "hit": false,
      "t": 79321.34925000009,
      "d": 142.8570000000036,
      "v": 86
    },
    {
      "midi": 57,
      "hit": false,
      "t": 79499.9205000001,
      "d": 214.2855000000127,
      "v": 51
    },
    {
      "midi": 69,
      "hit": false,
      "t": 79535.6347500001,
      "d": 35.71425000000454,
      "v": 92
    },
    {
      "midi": 74,
      "hit": false,
      "t": 79714.20600000011,
      "d": 142.8570000000036,
      "v": 96
    },
    {
      "midi": 50,
      "hit": false,
      "t": 79714.20600000011,
      "d": 714.2850000000035,
      "v": 65
    },
    {
      "midi": 65,
      "hit": false,
      "t": 79928.4915000001,
      "d": 214.28549999999814,
      "v": 80
    },
    {
      "midi": 57,
      "hit": false,
      "t": 79999.9200000001,
      "d": 499.9995000000199,
      "v": 53
    },
    {
      "midi": 69,
      "hit": false,
      "t": 80142.7770000001,
      "d": 249.99975000000268,
      "v": 89
    },
    {
      "midi": 74,
      "hit": false,
      "t": 80357.0625000001,
      "d": 107.14275000001362,
      "v": 82
    },
    {
      "midi": 43,
      "hit": false,
      "t": 80607.06225000012,
      "d": 178.57125000000815,
      "v": 118
    },
    {
      "midi": 55,
      "hit": false,
      "t": 80785.63350000013,
      "d": 142.8570000000036,
      "v": 88
    },
    {
      "midi": 67,
      "hit": false,
      "t": 80964.20475000014,
      "d": 249.99975000000268,
      "v": 78
    },
    {
      "midi": 69,
      "hit": false,
      "t": 81178.49025000013,
      "d": 142.8570000000036,
      "v": 92
    },
    {
      "midi": 59,
      "hit": false,
      "t": 81178.49025000013,
      "d": 249.99975000000268,
      "v": 51
    },
    {
      "midi": 71,
      "hit": false,
      "t": 81392.77575000013,
      "d": 249.99975000001723,
      "v": 101
    },
    {
      "midi": 62,
      "hit": false,
      "t": 81392.77575000013,
      "d": 642.856500000009,
      "v": 68
    },
    {
      "midi": 65,
      "hit": false,
      "t": 81607.06125000014,
      "d": 321.4282499999972,
      "v": 80
    },
    {
      "midi": 55,
      "hit": false,
      "t": 81821.34675000014,
      "d": 249.99975000000268,
      "v": 65
    },
    {
      "midi": 74,
      "hit": false,
      "t": 81821.34675000014,
      "d": 249.99975000000268,
      "v": 96
    },
    {
      "midi": 59,
      "hit": false,
      "t": 82035.63225000014,
      "d": 71.42850000000908,
      "v": 76
    },
    {
      "midi": 72,
      "hit": false,
      "t": 82249.91775000015,
      "d": 535.7137499999953,
      "v": 91
    },
    {
      "midi": 48,
      "hit": false,
      "t": 82249.91775000015,
      "d": 1607.1412500000297,
      "v": 93
    },
    {
      "midi": 55,
      "hit": false,
      "t": 82464.20325000015,
      "d": 499.99950000000536,
      "v": 68
    },
    {
      "midi": 60,
      "hit": false,
      "t": 82714.20300000015,
      "d": 285.7140000000072,
      "v": 75
    },
    {
      "midi": 64,
      "hit": false,
      "t": 82928.48850000015,
      "d": 535.7137500000099,
      "v": 83
    },
    {
      "midi": 55,
      "hit": false,
      "t": 83142.77400000016,
      "d": 249.99975000000268,
      "v": 66
    },
    {
      "midi": 67,
      "hit": false,
      "t": 83142.77400000016,
      "d": 321.4282499999972,
      "v": 90
    },
    {
      "midi": 60,
      "hit": false,
      "t": 83392.77375000017,
      "d": 357.14250000000175,
      "v": 59
    },
    {
      "midi": 69,
      "hit": false,
      "t": 83607.05925000017,
      "d": 178.57125000000815,
      "v": 88
    },
    {
      "midi": 55,
      "hit": false,
      "t": 83821.34475000018,
      "d": 142.8570000000036,
      "v": 67
    },
    {
      "midi": 60,
      "hit": false,
      "t": 83964.20175000018,
      "d": 142.8570000000036,
      "v": 81
    },
    {
      "midi": 64,
      "hit": false,
      "t": 83964.20175000018,
      "d": 178.57125000000815,
      "v": 77
    },
    {
      "midi": 48,
      "hit": false,
      "t": 83964.20175000018,
      "d": 1464.2842499999824,
      "v": 54
    },
    {
      "midi": 67,
      "hit": false,
      "t": 83999.91600000019,
      "d": 107.14274999999907,
      "v": 84
    },
    {
      "midi": 70,
      "hit": false,
      "t": 84035.63025000019,
      "d": 464.28524999998626,
      "v": 105
    },
    {
      "midi": 55,
      "hit": false,
      "t": 84249.91575000019,
      "d": 249.99974999998813,
      "v": 77
    },
    {
      "midi": 58,
      "hit": false,
      "t": 84428.48700000018,
      "d": 321.4282499999972,
      "v": 83
    },
    {
      "midi": 72,
      "hit": false,
      "t": 84642.77250000018,
      "d": 71.42849999999453,
      "v": 95
    },
    {
      "midi": 74,
      "hit": false,
      "t": 84857.05800000018,
      "d": 71.42849999999453,
      "v": 112
    },
    {
      "midi": 55,
      "hit": false,
      "t": 84857.05800000018,
      "d": 285.71399999999267,
      "v": 76
    },
    {
      "midi": 76,
      "hit": false,
      "t": 85035.62925000017,
      "d": 71.42849999999453,
      "v": 107
    },
    {
      "midi": 58,
      "hit": false,
      "t": 85107.05775000017,
      "d": 249.99975000000268,
      "v": 56
    },
    {
      "midi": 77,
      "hit": false,
      "t": 85285.62900000018,
      "d": 71.42849999999453,
      "v": 113
    },
    {
      "midi": 79,
      "hit": false,
      "t": 85499.91450000016,
      "d": 142.8570000000036,
      "v": 102
    },
    {
      "midi": 41,
      "hit": false,
      "t": 85678.48575000017,
      "d": 107.14274999999907,
      "v": 88
    },
    {
      "midi": 53,
      "hit": false,
      "t": 85714.20000000017,
      "d": 71.42849999999453,
      "v": 75
    },
    {
      "midi": 81,
      "hit": false,
      "t": 85714.20000000017,
      "d": 678.570749999999,
      "v": 98
    },
    {
      "midi": 72,
      "hit": false,
      "t": 85928.48550000017,
      "d": 357.14250000000175,
      "v": 90
    },
    {
      "midi": 57,
      "hit": false,
      "t": 86142.77100000017,
      "d": 392.8567500000063,
      "v": 78
    },
    {
      "midi": 60,
      "hit": false,
      "t": 86357.05650000017,
      "d": 178.57125000000815,
      "v": 57
    },
    {
      "midi": 72,
      "hit": false,
      "t": 86571.34200000018,
      "d": 35.71425000000454,
      "v": 54
    },
    {
      "midi": 84,
      "hit": false,
      "t": 86571.34200000018,
      "d": 214.28549999999814,
      "v": 95
    },
    {
      "midi": 53,
      "hit": false,
      "t": 86571.34200000018,
      "d": 535.7137499999953,
      "v": 83
    },
    {
      "midi": 72,
      "hit": false,
      "t": 86785.62750000018,
      "d": 214.28549999999814,
      "v": 65
    },
    {
      "midi": 60,
      "hit": false,
      "t": 86964.19875000017,
      "d": 107.14274999999907,
      "v": 71
    },
    {
      "midi": 81,
      "hit": false,
      "t": 86964.19875000017,
      "d": 214.28549999999814,
      "v": 95
    },
    {
      "midi": 72,
      "hit": false,
      "t": 87178.48425000017,
      "d": 142.8570000000036,
      "v": 59
    },
    {
      "midi": 83,
      "hit": false,
      "t": 87392.76975000017,
      "d": 178.5712499999936,
      "v": 93
    },
    {
      "midi": 43,
      "hit": false,
      "t": 87392.76975000017,
      "d": 464.28524999998626,
      "v": 91
    },
    {
      "midi": 50,
      "hit": false,
      "t": 87642.76950000015,
      "d": 249.99975000000268,
      "v": 51
    },
    {
      "midi": 55,
      "hit": false,
      "t": 87892.76925000016,
      "d": 321.4282499999972,
      "v": 48
    },
    {
      "midi": 50,
      "hit": false,
      "t": 88071.34050000015,
      "d": 142.8570000000036,
      "v": 64
    },
    {
      "midi": 71,
      "hit": false,
      "t": 88214.19750000015,
      "d": 142.85700000001816,
      "v": 80
    },
    {
      "midi": 74,
      "hit": false,
      "t": 88249.91175000016,
      "d": 107.14275000001362,
      "v": 100
    },
    {
      "midi": 43,
      "hit": false,
      "t": 88249.91175000016,
      "d": 321.4282500000263,
      "v": 91
    },
    {
      "midi": 79,
      "hit": false,
      "t": 88285.62600000016,
      "d": 107.14275000001362,
      "v": 85
    },
    {
      "midi": 83,
      "hit": false,
      "t": 88321.34025000017,
      "d": 107.14275000001362,
      "v": 97
    },
    {
      "midi": 50,
      "hit": false,
      "t": 88464.19725000019,
      "d": 178.57125000000815,
      "v": 69
    },
    {
      "midi": 55,
      "hit": false,
      "t": 88607.05425000019,
      "d": 321.4282499999972,
      "v": 62
    },
    {
      "midi": 71,
      "hit": false,
      "t": 88642.7685000002,
      "d": 178.5712499999936,
      "v": 71
    },
    {
      "midi": 77,
      "hit": false,
      "t": 88678.4827500002,
      "d": 178.5712499999936,
      "v": 95
    },
    {
      "midi": 81,
      "hit": false,
      "t": 88749.9112500002,
      "d": 285.7140000000072,
      "v": 90
    },
    {
      "midi": 43,
      "hit": false,
      "t": 88928.48250000019,
      "d": 71.42850000000908,
      "v": 54
    },
    {
      "midi": 50,
      "hit": false,
      "t": 88964.19675000019,
      "d": 71.42850000000908,
      "v": 89
    },
    {
      "midi": 71,
      "hit": false,
      "t": 89107.0537500002,
      "d": 178.57125000000815,
      "v": 82
    },
    {
      "midi": 40,
      "hit": false,
      "t": 89142.7680000002,
      "d": 214.28549999999814,
      "v": 99
    },
    {
      "midi": 76,
      "hit": false,
      "t": 89142.7680000002,
      "d": 249.99975000000268,
      "v": 88
    },
    {
      "midi": 79,
      "hit": false,
      "t": 89178.4822500002,
      "d": 249.99975000000268,
      "v": 78
    },
    {
      "midi": 47,
      "hit": false,
      "t": 89428.48200000021,
      "d": 178.5712499999936,
      "v": 47
    },
    {
      "midi": 55,
      "hit": false,
      "t": 89642.7675000002,
      "d": 107.14274999999907,
      "v": 75
    },
    {
      "midi": 52,
      "hit": false,
      "t": 89821.3387500002,
      "d": 142.8570000000036,
      "v": 59
    },
    {
      "midi": 62,
      "hit": false,
      "t": 89999.9100000002,
      "d": 107.14274999999907,
      "v": 98
    },
    {
      "midi": 55,
      "hit": false,
      "t": 89999.9100000002,
      "d": 428.5709999999963,
      "v": 88
    },
    {
      "midi": 64,
      "hit": false,
      "t": 90214.1955000002,
      "d": 107.14274999999907,
      "v": 99
    },
    {
      "midi": 59,
      "hit": false,
      "t": 90214.1955000002,
      "d": 428.5709999999963,
      "v": 63
    },
    {
      "midi": 52,
      "hit": false,
      "t": 90428.4810000002,
      "d": 214.28549999999814,
      "v": 76
    },
    {
      "midi": 62,
      "hit": false,
      "t": 90642.7665000002,
      "d": 71.42849999999453,
      "v": 90
    },
    {
      "midi": 43,
      "hit": false,
      "t": 90857.0520000002,
      "d": 35.71425000000454,
      "v": 82
    },
    {
      "midi": 60,
      "hit": false,
      "t": 90857.0520000002,
      "d": 357.14250000000175,
      "v": 95
    },
    {
      "midi": 45,
      "hit": false,
      "t": 90857.0520000002,
      "d": 499.99950000000536,
      "v": 69
    },
    {
      "midi": 52,
      "hit": false,
      "t": 91035.62325000021,
      "d": 678.570749999999,
      "v": 57
    },
    {
      "midi": 57,
      "hit": false,
      "t": 91321.3372500002,
      "d": 428.5710000000108,
      "v": 64
    },
    {
      "midi": 60,
      "hit": false,
      "t": 91499.90850000021,
      "d": 142.8570000000036,
      "v": 90
    },
    {
      "midi": 45,
      "hit": false,
      "t": 91714.1940000002,
      "d": 214.28549999999814,
      "v": 108
    },
    {
      "midi": 60,
      "hit": false,
      "t": 91714.1940000002,
      "d": 357.14250000000175,
      "v": 86
    },
    {
      "midi": 64,
      "hit": false,
      "t": 91714.1940000002,
      "d": 392.8567500000063,
      "v": 105
    },
    {
      "midi": 69,
      "hit": false,
      "t": 91714.1940000002,
      "d": 678.5707500000135,
      "v": 104
    },
    {
      "midi": 52,
      "hit": false,
      "t": 91928.4795000002,
      "d": 107.14274999999907,
      "v": 61
    },
    {
      "midi": 67,
      "hit": false,
      "t": 92142.76500000022,
      "d": 285.7140000000072,
      "v": 101
    },
    {
      "midi": 43,
      "hit": false,
      "t": 92178.47925000022,
      "d": 178.5712499999936,
      "v": 112
    },
    {
      "midi": 55,
      "hit": false,
      "t": 92357.05050000022,
      "d": 107.14275000001362,
      "v": 93
    },
    {
      "midi": 41,
      "hit": false,
      "t": 92571.33600000023,
      "d": 214.28549999999814,
      "v": 110
    },
    {
      "midi": 60,
      "hit": false,
      "t": 92571.33600000023,
      "d": 214.28549999999814,
      "v": 96
    },
    {
      "midi": 65,
      "hit": false,
      "t": 92571.33600000023,
      "d": 321.4282499999972,
      "v": 104
    },
    {
      "midi": 69,
      "hit": false,
      "t": 92571.33600000023,
      "d": 392.85674999999173,
      "v": 99
    },
    {
      "midi": 53,
      "hit": false,
      "t": 92785.62150000023,
      "d": 71.42849999999453,
      "v": 105
    },
    {
      "midi": 57,
      "hit": false,
      "t": 93035.62125000021,
      "d": 357.1424999999872,
      "v": 77
    },
    {
      "midi": 60,
      "hit": false,
      "t": 93214.19250000021,
      "d": 178.5712499999936,
      "v": 76
    },
    {
      "midi": 65,
      "hit": false,
      "t": 93428.4780000002,
      "d": 535.7137499999953,
      "v": 90
    },
    {
      "midi": 69,
      "hit": false,
      "t": 93428.4780000002,
      "d": 642.8564999999944,
      "v": 98
    },
    {
      "midi": 53,
      "hit": false,
      "t": 93428.4780000002,
      "d": 678.570749999999,
      "v": 82
    },
    {
      "midi": 72,
      "hit": false,
      "t": 93428.4780000002,
      "d": 749.9992499999935,
      "v": 98
    },
    {
      "midi": 57,
      "hit": false,
      "t": 93642.7635000002,
      "d": 249.99975000000268,
      "v": 54
    },
    {
      "midi": 60,
      "hit": false,
      "t": 93857.0490000002,
      "d": 214.28549999999814,
      "v": 77
    },
    {
      "midi": 57,
      "hit": false,
      "t": 94035.6202500002,
      "d": 71.42850000000908,
      "v": 88
    },
    {
      "midi": 67,
      "hit": false,
      "t": 94249.9057500002,
      "d": 214.28549999999814,
      "v": 94
    },
    {
      "midi": 71,
      "hit": false,
      "t": 94249.9057500002,
      "d": 428.5709999999963,
      "v": 98
    },
    {
      "midi": 43,
      "hit": false,
      "t": 94285.6200000002,
      "d": 535.7137499999953,
      "v": 105
    },
    {
      "midi": 50,
      "hit": false,
      "t": 94464.19125000019,
      "d": 285.7140000000072,
      "v": 78
    },
    {
      "midi": 55,
      "hit": false,
      "t": 94714.1910000002,
      "d": 321.4282499999972,
      "v": 67
    },
    {
      "midi": 59,
      "hit": false,
      "t": 94892.76225000019,
      "d": 464.28525000001537,
      "v": 72
    },
    {
      "midi": 50,
      "hit": false,
      "t": 94928.4765000002,
      "d": 142.8570000000036,
      "v": 63
    },
    {
      "midi": 67,
      "hit": false,
      "t": 95071.3335000002,
      "d": 285.7140000000072,
      "v": 98
    },
    {
      "midi": 71,
      "hit": false,
      "t": 95107.0477500002,
      "d": 142.8570000000036,
      "v": 98
    },
    {
      "midi": 62,
      "hit": false,
      "t": 95107.0477500002,
      "d": 214.28549999999814,
      "v": 101
    },
    {
      "midi": 43,
      "hit": false,
      "t": 95107.0477500002,
      "d": 571.4279999999999,
      "v": 102
    },
    {
      "midi": 59,
      "hit": false,
      "t": 95464.1902500002,
      "d": 285.7140000000072,
      "v": 80
    },
    {
      "midi": 65,
      "hit": false,
      "t": 95464.1902500002,
      "d": 321.42825000001176,
      "v": 93
    },
    {
      "midi": 69,
      "hit": false,
      "t": 95464.1902500002,
      "d": 321.42825000001176,
      "v": 96
    },
    {
      "midi": 50,
      "hit": false,
      "t": 95678.4757500002,
      "d": 35.71425000000454,
      "v": 85
    },
    {
      "midi": 59,
      "hit": false,
      "t": 95928.4755000002,
      "d": 35.71425000000454,
      "v": 81
    },
    {
      "midi": 36,
      "hit": false,
      "t": 95928.4755000002,
      "d": 214.2855000000127,
      "v": 118
    },
    {
      "midi": 67,
      "hit": false,
      "t": 95928.4755000002,
      "d": 678.570749999999,
      "v": 99
    },
    {
      "midi": 64,
      "hit": false,
      "t": 95928.4755000002,
      "d": 714.2850000000035,
      "v": 102
    },
    {
      "midi": 48,
      "hit": false,
      "t": 96178.47525000022,
      "d": 71.42849999999453,
      "v": 95
    },
    {
      "midi": 52,
      "hit": false,
      "t": 96428.47500000021,
      "d": 357.14250000000175,
      "v": 83
    },
    {
      "midi": 55,
      "hit": false,
      "t": 96642.76050000021,
      "d": 178.57125000000815,
      "v": 70
    },
    {
      "midi": 60,
      "hit": false,
      "t": 96642.76050000021,
      "d": 285.71400000002177,
      "v": 75
    },
    {
      "midi": 67,
      "hit": false,
      "t": 96857.04600000022,
      "d": 249.99975000001723,
      "v": 92
    },
    {
      "midi": 48,
      "hit": false,
      "t": 96857.04600000022,
      "d": 678.5707500000135,
      "v": 93
    },
    {
      "midi": 64,
      "hit": false,
      "t": 96892.76025000022,
      "d": 178.57125000000815,
      "v": 85
    },
    {
      "midi": 52,
      "hit": false,
      "t": 97071.33150000023,
      "d": 249.99975000000268,
      "v": 53
    },
    {
      "midi": 72,
      "hit": false,
      "t": 97285.61700000023,
      "d": 107.14274999999907,
      "v": 98
    },
    {
      "midi": 67,
      "hit": false,
      "t": 97285.61700000023,
      "d": 142.8570000000036,
      "v": 76
    },
    {
      "midi": 60,
      "hit": false,
      "t": 97321.33125000024,
      "d": 107.14274999999907,
      "v": 78
    },
    {
      "midi": 64,
      "hit": false,
      "t": 97321.33125000024,
      "d": 107.14274999999907,
      "v": 91
    },
    {
      "midi": 55,
      "hit": false,
      "t": 97321.33125000024,
      "d": 285.7140000000072,
      "v": 63
    },
    {
      "midi": 64,
      "hit": false,
      "t": 97499.90250000023,
      "d": 71.42850000000908,
      "v": 71
    },
    {
      "midi": 52,
      "hit": false,
      "t": 97499.90250000023,
      "d": 107.14275000001362,
      "v": 72
    },
    {
      "midi": 71,
      "hit": false,
      "t": 97499.90250000023,
      "d": 107.14275000001362,
      "v": 95
    },
    {
      "midi": 60,
      "hit": false,
      "t": 97535.61675000023,
      "d": 35.71425000000454,
      "v": 84
    },
    {
      "midi": 60,
      "hit": false,
      "t": 97714.18800000024,
      "d": 428.5709999999963,
      "v": 102
    },
    {
      "midi": 64,
      "hit": false,
      "t": 97714.18800000024,
      "d": 499.9994999999908,
      "v": 105
    },
    {
      "midi": 45,
      "hit": false,
      "t": 97714.18800000024,
      "d": 642.8564999999944,
      "v": 112
    },
    {
      "midi": 69,
      "hit": false,
      "t": 97714.18800000024,
      "d": 642.8564999999944,
      "v": 99
    },
    {
      "midi": 52,
      "hit": false,
      "t": 97928.47350000024,
      "d": 285.71399999999267,
      "v": 65
    },
    {
      "midi": 57,
      "hit": false,
      "t": 98142.75900000024,
      "d": 428.5709999999963,
      "v": 63
    },
    {
      "midi": 52,
      "hit": false,
      "t": 98357.04450000024,
      "d": 178.5712499999936,
      "v": 83
    },
    {
      "midi": 60,
      "hit": false,
      "t": 98357.04450000024,
      "d": 357.14250000000175,
      "v": 67
    },
    {
      "midi": 45,
      "hit": false,
      "t": 98571.33000000023,
      "d": 499.99950000000536,
      "v": 92
    },
    {
      "midi": 64,
      "hit": false,
      "t": 98607.04425000024,
      "d": 321.4282499999972,
      "v": 76
    },
    {
      "midi": 52,
      "hit": false,
      "t": 98785.61550000023,
      "d": 249.99975000000268,
      "v": 85
    },
    {
      "midi": 57,
      "hit": false,
      "t": 98999.90100000023,
      "d": 71.42850000000908,
      "v": 78
    },
    {
      "midi": 69,
      "hit": false,
      "t": 98999.90100000023,
      "d": 178.57125000000815,
      "v": 98
    },
    {
      "midi": 60,
      "hit": false,
      "t": 98999.90100000023,
      "d": 249.99975000001723,
      "v": 98
    },
    {
      "midi": 64,
      "hit": false,
      "t": 98999.90100000023,
      "d": 321.4282500000263,
      "v": 99
    },
    {
      "midi": 67,
      "hit": false,
      "t": 99178.47225000024,
      "d": 178.5712500000227,
      "v": 88
    },
    {
      "midi": 43,
      "hit": false,
      "t": 99214.18650000024,
      "d": 71.42850000000908,
      "v": 107
    },
    {
      "midi": 55,
      "hit": false,
      "t": 99214.18650000024,
      "d": 71.42850000000908,
      "v": 91
    },
    {
      "midi": 65,
      "hit": false,
      "t": 99428.47200000026,
      "d": 214.2855000000127,
      "v": 106
    },
    {
      "midi": 60,
      "hit": false,
      "t": 99428.47200000026,
      "d": 357.1425000000163,
      "v": 98
    },
    {
      "midi": 69,
      "hit": false,
      "t": 99428.47200000026,
      "d": 357.1425000000163,
      "v": 93
    },
    {
      "midi": 41,
      "hit": false,
      "t": 99428.47200000026,
      "d": 678.570750000028,
      "v": 113
    },
    {
      "midi": 48,
      "hit": false,
      "t": 99607.04325000026,
      "d": 678.5707500000135,
      "v": 66
    },
    {
      "midi": 65,
      "hit": false,
      "t": 99749.90025000027,
      "d": 71.42850000000908,
      "v": 14
    },
    {
      "midi": 53,
      "hit": false,
      "t": 99857.04300000028,
      "d": 857.1419999999925,
      "v": 57
    },
    {
      "midi": 57,
      "hit": false,
      "t": 100071.32850000028,
      "d": 714.2850000000035,
      "v": 88
    },
    {
      "midi": 60,
      "hit": false,
      "t": 100285.61400000028,
      "d": 607.1422500000044,
      "v": 94
    },
    {
      "midi": 41,
      "hit": false,
      "t": 100285.61400000028,
      "d": 678.5707500000135,
      "v": 92
    },
    {
      "midi": 65,
      "hit": false,
      "t": 100535.61375000028,
      "d": 392.8567500000063,
      "v": 82
    },
    {
      "midi": 69,
      "hit": false,
      "t": 100714.18500000027,
      "d": 285.71400000002177,
      "v": 94
    },
    {
      "midi": 48,
      "hit": false,
      "t": 100749.89925000028,
      "d": 249.99975000001723,
      "v": 53
    },
    {
      "midi": 53,
      "hit": false,
      "t": 100928.47050000029,
      "d": 214.2855000000127,
      "v": 68
    },
    {
      "midi": 59,
      "hit": false,
      "t": 101142.7560000003,
      "d": 392.85674999999173,
      "v": 69
    },
    {
      "midi": 62,
      "hit": false,
      "t": 101142.7560000003,
      "d": 464.2852500000008,
      "v": 93
    },
    {
      "midi": 67,
      "hit": false,
      "t": 101142.7560000003,
      "d": 464.2852500000008,
      "v": 82
    },
    {
      "midi": 71,
      "hit": false,
      "t": 101142.7560000003,
      "d": 464.2852500000008,
      "v": 98
    },
    {
      "midi": 43,
      "hit": false,
      "t": 101142.7560000003,
      "d": 749.9992499999935,
      "v": 101
    },
    {
      "midi": 50,
      "hit": false,
      "t": 101357.0415000003,
      "d": 321.4282499999972,
      "v": 57
    },
    {
      "midi": 55,
      "hit": false,
      "t": 101571.3270000003,
      "d": 571.4279999999853,
      "v": 65
    },
    {
      "midi": 59,
      "hit": false,
      "t": 101785.6125000003,
      "d": 642.8564999999944,
      "v": 63
    },
    {
      "midi": 71,
      "hit": false,
      "t": 101964.18375000029,
      "d": 285.71399999999267,
      "v": 105
    },
    {
      "midi": 43,
      "hit": false,
      "t": 101964.18375000029,
      "d": 642.8564999999944,
      "v": 104
    },
    {
      "midi": 50,
      "hit": false,
      "t": 102214.18350000028,
      "d": 321.42825000001176,
      "v": 57
    },
    {
      "midi": 55,
      "hit": false,
      "t": 102392.75475000028,
      "d": 107.14274999999907,
      "v": 74
    },
    {
      "midi": 59,
      "hit": false,
      "t": 102607.04025000028,
      "d": 107.14274999999907,
      "v": 69
    },
    {
      "midi": 36,
      "hit": false,
      "t": 102785.61150000028,
      "d": 178.57125000000815,
      "v": 101
    },
    {
      "midi": 64,
      "hit": false,
      "t": 102821.32575000028,
      "d": 464.28525000001537,
      "v": 101
    },
    {
      "midi": 52,
      "hit": false,
      "t": 103249.89675000029,
      "d": 357.14250000000175,
      "v": 62
    },
    {
      "midi": 60,
      "hit": false,
      "t": 103464.18225000029,
      "d": 107.14274999999907,
      "v": 67
    },
    {
      "midi": 55,
      "hit": false,
      "t": 103464.18225000029,
      "d": 178.57125000000815,
      "v": 51
    },
    {
      "midi": 72,
      "hit": false,
      "t": 103642.7535000003,
      "d": 214.2855000000127,
      "v": 98
    },
    {
      "midi": 60,
      "hit": false,
      "t": 103678.4677500003,
      "d": 142.8570000000036,
      "v": 90
    },
    {
      "midi": 64,
      "hit": false,
      "t": 103678.4677500003,
      "d": 249.99975000000268,
      "v": 93
    },
    {
      "midi": 48,
      "hit": false,
      "t": 103678.4677500003,
      "d": 678.570749999999,
      "v": 65
    },
    {
      "midi": 52,
      "hit": false,
      "t": 103928.4675000003,
      "d": 428.5709999999963,
      "v": 67
    },
    {
      "midi": 64,
      "hit": false,
      "t": 104107.0387500003,
      "d": 214.28549999999814,
      "v": 98
    },
    {
      "midi": 71,
      "hit": false,
      "t": 104107.0387500003,
      "d": 214.28549999999814,
      "v": 101
    },
    {
      "midi": 60,
      "hit": false,
      "t": 104107.0387500003,
      "d": 249.99975000000268,
      "v": 95
    },
    {
      "midi": 55,
      "hit": false,
      "t": 104321.3242500003,
      "d": 178.57125000000815,
      "v": 75
    },
    {
      "midi": 69,
      "hit": false,
      "t": 104499.8955000003,
      "d": 642.8565000000235,
      "v": 98
    },
    {
      "midi": 43,
      "hit": false,
      "t": 104535.60975000031,
      "d": 35.71425000000454,
      "v": 108
    },
    {
      "midi": 60,
      "hit": false,
      "t": 104535.60975000031,
      "d": 428.5710000000108,
      "v": 96
    },
    {
      "midi": 64,
      "hit": false,
      "t": 104535.60975000031,
      "d": 571.4280000000144,
      "v": 101
    },
    {
      "midi": 45,
      "hit": false,
      "t": 104535.60975000031,
      "d": 714.285000000018,
      "v": 108
    },
    {
      "midi": 52,
      "hit": false,
      "t": 104749.89525000032,
      "d": 714.2850000000035,
      "v": 95
    },
    {
      "midi": 57,
      "hit": false,
      "t": 104999.89500000032,
      "d": 107.14274999999907,
      "v": 68
    },
    {
      "midi": 60,
      "hit": false,
      "t": 105214.18050000032,
      "d": 142.8570000000036,
      "v": 81
    },
    {
      "midi": 57,
      "hit": false,
      "t": 105249.89475000033,
      "d": 214.28549999999814,
      "v": 86
    },
    {
      "midi": 60,
      "hit": false,
      "t": 105428.46600000032,
      "d": 71.42850000000908,
      "v": 94
    },
    {
      "midi": 45,
      "hit": false,
      "t": 105428.46600000032,
      "d": 249.99975000001723,
      "v": 115
    },
    {
      "midi": 64,
      "hit": false,
      "t": 105428.46600000032,
      "d": 249.99975000001723,
      "v": 101
    },
    {
      "midi": 69,
      "hit": false,
      "t": 105428.46600000032,
      "d": 285.71400000002177,
      "v": 105
    },
    {
      "midi": 52,
      "hit": false,
      "t": 105642.75150000033,
      "d": 107.14275000001362,
      "v": 89
    },
    {
      "midi": 60,
      "hit": false,
      "t": 105678.46575000034,
      "d": 142.8570000000036,
      "v": 77
    },
    {
      "midi": 60,
      "hit": false,
      "t": 105857.03700000035,
      "d": 71.42849999999453,
      "v": 88
    },
    {
      "midi": 43,
      "hit": false,
      "t": 105857.03700000035,
      "d": 214.28549999999814,
      "v": 114
    },
    {
      "midi": 67,
      "hit": false,
      "t": 105857.03700000035,
      "d": 249.99975000000268,
      "v": 92
    },
    {
      "midi": 64,
      "hit": false,
      "t": 105857.03700000035,
      "d": 285.7140000000072,
      "v": 100
    },
    {
      "midi": 55,
      "hit": false,
      "t": 106071.32250000034,
      "d": 107.14275000001362,
      "v": 99
    },
    {
      "midi": 60,
      "hit": false,
      "t": 106107.03675000035,
      "d": 71.42850000000908,
      "v": 75
    },
    {
      "midi": 60,
      "hit": false,
      "t": 106285.60800000036,
      "d": 499.9994999999908,
      "v": 98
    },
    {
      "midi": 65,
      "hit": false,
      "t": 106285.60800000036,
      "d": 607.1422499999899,
      "v": 101
    },
    {
      "midi": 69,
      "hit": false,
      "t": 106285.60800000036,
      "d": 607.1422499999899,
      "v": 96
    },
    {
      "midi": 41,
      "hit": false,
      "t": 106285.60800000036,
      "d": 678.5707499999844,
      "v": 113
    },
    {
      "midi": 53,
      "hit": false,
      "t": 106535.60775000034,
      "d": 142.8570000000036,
      "v": 54
    },
    {
      "midi": 48,
      "hit": false,
      "t": 106749.89325000034,
      "d": 392.85674999999173,
      "v": 63
    },
    {
      "midi": 53,
      "hit": false,
      "t": 106964.17875000034,
      "d": 214.28549999999814,
      "v": 79
    },
    {
      "midi": 57,
      "hit": false,
      "t": 107142.75000000033,
      "d": 392.85674999999173,
      "v": 91
    },
    {
      "midi": 41,
      "hit": false,
      "t": 107142.75000000033,
      "d": 678.5707499999844,
      "v": 108
    },
    {
      "midi": 60,
      "hit": false,
      "t": 107142.75000000033,
      "d": 785.7134999999835,
      "v": 89
    },
    {
      "midi": 48,
      "hit": false,
      "t": 107357.03550000033,
      "d": 535.7137499999808,
      "v": 76
    },
    {
      "midi": 53,
      "hit": false,
      "t": 107607.03525000032,
      "d": 392.8567500000063,
      "v": 76
    },
    {
      "midi": 57,
      "hit": false,
      "t": 107821.32075000032,
      "d": 71.42849999999453,
      "v": 90
    },
    {
      "midi": 59,
      "hit": false,
      "t": 107999.89200000033,
      "d": 464.2852500000008,
      "v": 91
    },
    {
      "midi": 62,
      "hit": false,
      "t": 107999.89200000033,
      "d": 571.4279999999999,
      "v": 97
    },
    {
      "midi": 43,
      "hit": false,
      "t": 107999.89200000033,
      "d": 678.570749999999,
      "v": 109
    },
    {
      "midi": 50,
      "hit": false,
      "t": 108249.89175000033,
      "d": 607.1422500000044,
      "v": 66
    },
    {
      "midi": 55,
      "hit": false,
      "t": 108464.17725000033,
      "d": 857.1420000000071,
      "v": 67
    },
    {
      "midi": 59,
      "hit": false,
      "t": 108642.74850000032,
      "d": 714.285000000018,
      "v": 88
    },
    {
      "midi": 43,
      "hit": false,
      "t": 108821.31975000033,
      "d": 678.5707500000135,
      "v": 104
    },
    {
      "midi": 62,
      "hit": false,
      "t": 108892.74825000034,
      "d": 357.14250000000175,
      "v": 79
    },
    {
      "midi": 50,
      "hit": false,
      "t": 109357.03350000034,
      "d": 107.14274999999907,
      "v": 78
    },
    {
      "midi": 36,
      "hit": false,
      "t": 109714.17600000034,
      "d": 71.42849999999453,
      "v": 102
    },
    {
      "midi": 55,
      "hit": false,
      "t": 109714.17600000034,
      "d": 392.85674999999173,
      "v": 91
    },
    {
      "midi": 60,
      "hit": false,
      "t": 109714.17600000034,
      "d": 464.28524999998626,
      "v": 97
    },
    {
      "midi": 64,
      "hit": false,
      "t": 109714.17600000034,
      "d": 535.7137499999808,
      "v": 94
    },
    {
      "midi": 48,
      "hit": false,
      "t": 109928.46150000034,
      "d": 464.28524999998626,
      "v": 79
    },
    {
      "midi": 52,
      "hit": false,
      "t": 110178.46125000033,
      "d": 249.99975000000268,
      "v": 65
    },
    {
      "midi": 53,
      "hit": false,
      "t": 110464.17525000033,
      "d": 142.8570000000036,
      "v": 57
    },
    {
      "midi": 41,
      "hit": false,
      "t": 110607.03225000034,
      "d": 178.5712499999936,
      "v": 108
    },
    {
      "midi": 74,
      "hit": false,
      "t": 110607.03225000034,
      "d": 499.99950000000536,
      "v": 98
    },
    {
      "midi": 65,
      "hit": false,
      "t": 110607.03225000034,
      "d": 642.856500000009,
      "v": 93
    },
    {
      "midi": 68,
      "hit": false,
      "t": 110607.03225000034,
      "d": 642.856500000009,
      "v": 92
    },
    {
      "midi": 53,
      "hit": false,
      "t": 110821.31775000034,
      "d": 35.71425000000454,
      "v": 88
    },
    {
      "midi": 56,
      "hit": false,
      "t": 111035.60325000033,
      "d": 285.71400000002177,
      "v": 83
    },
    {
      "midi": 72,
      "hit": false,
      "t": 111071.31750000034,
      "d": 249.99975000001723,
      "v": 104
    },
    {
      "midi": 60,
      "hit": false,
      "t": 111285.60300000035,
      "d": 249.99975000000268,
      "v": 54
    },
    {
      "midi": 64,
      "hit": false,
      "t": 111499.88850000035,
      "d": 464.2852500000008,
      "v": 74
    },
    {
      "midi": 67,
      "hit": false,
      "t": 111535.60275000035,
      "d": 678.5707499999844,
      "v": 83
    },
    {
      "midi": 72,
      "hit": false,
      "t": 111535.60275000035,
      "d": 821.427749999988,
      "v": 81
    },
    {
      "midi": 48,
      "hit": false,
      "t": 111535.60275000035,
      "d": 1249.9987499999988,
      "v": 96
    },
    {
      "midi": 76,
      "hit": false,
      "t": 111571.31700000036,
      "d": 1642.8555000000051,
      "v": 92
    },
    {
      "midi": 55,
      "hit": false,
      "t": 111785.60250000036,
      "d": 999.9989999999962,
      "v": 57
    },
    {
      "midi": 60,
      "hit": false,
      "t": 112035.60225000035,
      "d": 714.2850000000035,
      "v": 57
    },
    {
      "midi": 64,
      "hit": false,
      "t": 112214.17350000034,
      "d": 1035.7132500000298,
      "v": 66
    },
    {
      "midi": 36,
      "hit": false,
      "t": 113178.45825000036,
      "d": 35.71425000000454,
      "v": 61
    }
  ]
}