{
  "jsonPath": "Pop/Classic Belgian Pop/Benny Neyman/niemandsland.json",
  "path": "Pop\\Classic Belgian Pop\\Benny Neyman\\Niemandsland.mid",
  "name": "Niemandsland",
  "difficulty": "Advanced",
  "bpm": 69.85028755035042,
  "notes": [
    {
      "midi": 69,
      "hit": false,
      "t": 9663.525,
      "d": 483.17625000000226,
      "v": 94
    },
    {
      "midi": 74,
      "hit": false,
      "t": 9878.27,
      "d": 290.8005208333343,
      "v": 92
    },
    {
      "midi": 76,
      "hit": false,
      "t": 10093.015000000001,
      "d": 116.32020833333263,
      "v": 92
    },
    {
      "midi": 69,
      "hit": false,
      "t": 10307.76,
      "d": 246.0619791666668,
      "v": 97
    },
    {
      "midi": 77,
      "hit": false,
      "t": 10307.76,
      "d": 433.96385416666635,
      "v": 104
    },
    {
      "midi": 74,
      "hit": false,
      "t": 10307.76,
      "d": 451.85927083333263,
      "v": 110
    },
    {
      "midi": 62,
      "hit": false,
      "t": 10307.76,
      "d": 1373.4732291666642,
      "v": 69
    },
    {
      "midi": 50,
      "hit": false,
      "t": 10307.76,
      "d": 1377.9470833333307,
      "v": 117
    },
    {
      "midi": 69,
      "hit": false,
      "t": 10737.25,
      "d": 554.7579166666656,
      "v": 101
    },
    {
      "midi": 76,
      "hit": false,
      "t": 10951.994999999999,
      "d": 295.2743750000009,
      "v": 94
    },
    {
      "midi": 79,
      "hit": false,
      "t": 10951.994999999999,
      "d": 308.6959375000006,
      "v": 99
    },
    {
      "midi": 74,
      "hit": false,
      "t": 11381.484999999999,
      "d": 237.11427083333365,
      "v": 104
    },
    {
      "midi": 69,
      "hit": false,
      "t": 11381.484999999999,
      "d": 246.0619791666668,
      "v": 94
    },
    {
      "midi": 77,
      "hit": false,
      "t": 11381.484999999999,
      "d": 277.3789583333328,
      "v": 92
    },
    {
      "midi": 67,
      "hit": false,
      "t": 12025.719999999998,
      "d": 295.2743750000009,
      "v": 99
    },
    {
      "midi": 76,
      "hit": false,
      "t": 12025.719999999998,
      "d": 451.85927083333445,
      "v": 97
    },
    {
      "midi": 72,
      "hit": false,
      "t": 12025.719999999998,
      "d": 474.2285416666673,
      "v": 110
    },
    {
      "midi": 60,
      "hit": false,
      "t": 12025.719999999998,
      "d": 1225.8360416666656,
      "v": 78
    },
    {
      "midi": 48,
      "hit": false,
      "t": 12025.719999999998,
      "d": 1248.2053124999984,
      "v": 92
    },
    {
      "midi": 67,
      "hit": false,
      "t": 12455.21,
      "d": 550.2840624999972,
      "v": 97
    },
    {
      "midi": 74,
      "hit": false,
      "t": 12669.954999999998,
      "d": 290.8005208333325,
      "v": 104
    },
    {
      "midi": 77,
      "hit": false,
      "t": 12669.954999999998,
      "d": 317.6436458333319,
      "v": 104
    },
    {
      "midi": 72,
      "hit": false,
      "t": 13099.444999999996,
      "d": 143.16333333333387,
      "v": 104
    },
    {
      "midi": 67,
      "hit": false,
      "t": 13099.444999999996,
      "d": 152.111041666667,
      "v": 94
    },
    {
      "midi": 76,
      "hit": false,
      "t": 13099.444999999996,
      "d": 161.05875000000015,
      "v": 92
    },
    {
      "midi": 65,
      "hit": false,
      "t": 13743.679999999997,
      "d": 317.6436458333319,
      "v": 94
    },
    {
      "midi": 70,
      "hit": false,
      "t": 13743.679999999997,
      "d": 322.1174999999985,
      "v": 92
    },
    {
      "midi": 74,
      "hit": false,
      "t": 13743.679999999997,
      "d": 331.0652083333316,
      "v": 97
    },
    {
      "midi": 46,
      "hit": false,
      "t": 13743.679999999997,
      "d": 2308.5087500000027,
      "v": 63
    },
    {
      "midi": 53,
      "hit": false,
      "t": 13958.424999999996,
      "d": 2008.760520833337,
      "v": 75
    },
    {
      "midi": 58,
      "hit": false,
      "t": 14173.169999999995,
      "d": 1847.7017708333387,
      "v": 79
    },
    {
      "midi": 60,
      "hit": false,
      "t": 14387.914999999995,
      "d": 143.16333333333387,
      "v": 82
    },
    {
      "midi": 62,
      "hit": false,
      "t": 14602.659999999996,
      "d": 76.0555208333335,
      "v": 82
    },
    {
      "midi": 65,
      "hit": false,
      "t": 14817.404999999997,
      "d": 71.58166666666693,
      "v": 83
    },
    {
      "midi": 70,
      "hit": false,
      "t": 15032.149999999998,
      "d": 85.00322916666664,
      "v": 86
    },
    {
      "midi": 72,
      "hit": false,
      "t": 15246.894999999999,
      "d": 67.10781250000036,
      "v": 92
    },
    {
      "midi": 74,
      "hit": false,
      "t": 15461.64,
      "d": 67.10781250000036,
      "v": 90
    },
    {
      "midi": 58,
      "hit": false,
      "t": 17179.600000000002,
      "d": 487.65010416666337,
      "v": 84
    },
    {
      "midi": 65,
      "hit": false,
      "t": 17179.600000000002,
      "d": 595.0226041666647,
      "v": 125
    },
    {
      "midi": 46,
      "hit": false,
      "t": 17179.600000000002,
      "d": 3176.436458333319,
      "v": 71
    },
    {
      "midi": 70,
      "hit": false,
      "t": 17394.345,
      "d": 187.90187499999956,
      "v": 73
    },
    {
      "midi": 72,
      "hit": false,
      "t": 17609.09,
      "d": 568.1794791666653,
      "v": 73
    },
    {
      "midi": 64,
      "hit": false,
      "t": 17823.835,
      "d": 867.9277083333291,
      "v": 120
    },
    {
      "midi": 65,
      "hit": false,
      "t": 18038.579999999998,
      "d": 125.26791666666759,
      "v": 46
    },
    {
      "midi": 58,
      "hit": false,
      "t": 18038.579999999998,
      "d": 671.0781249999964,
      "v": 46
    },
    {
      "midi": 70,
      "hit": false,
      "t": 18253.324999999997,
      "d": 201.32343749999927,
      "v": 66
    },
    {
      "midi": 72,
      "hit": false,
      "t": 18468.069999999996,
      "d": 563.7056249999987,
      "v": 69
    },
    {
      "midi": 62,
      "hit": false,
      "t": 18682.814999999995,
      "d": 872.4015624999956,
      "v": 113
    },
    {
      "midi": 58,
      "hit": false,
      "t": 18897.559999999994,
      "d": 671.0781249999964,
      "v": 57
    },
    {
      "midi": 70,
      "hit": false,
      "t": 19112.304999999993,
      "d": 210.2711458333324,
      "v": 60
    },
    {
      "midi": 72,
      "hit": false,
      "t": 19327.049999999992,
      "d": 599.4964583333312,
      "v": 66
    },
    {
      "midi": 64,
      "hit": false,
      "t": 19541.79499999999,
      "d": 729.2382291666654,
      "v": 120
    },
    {
      "midi": 58,
      "hit": false,
      "t": 19756.53999999999,
      "d": 532.3886458333327,
      "v": 69
    },
    {
      "midi": 70,
      "hit": false,
      "t": 19971.28499999999,
      "d": 196.8495833333327,
      "v": 69
    },
    {
      "midi": 65,
      "hit": false,
      "t": 20186.029999999988,
      "d": 263.9573958333349,
      "v": 117
    },
    {
      "midi": 72,
      "hit": false,
      "t": 20186.029999999988,
      "d": 447.3854166666679,
      "v": 78
    },
    {
      "midi": 65,
      "hit": false,
      "t": 20615.51999999999,
      "d": 630.8134374999972,
      "v": 120
    },
    {
      "midi": 55,
      "hit": false,
      "t": 20615.51999999999,
      "d": 720.2905208333286,
      "v": 72
    },
    {
      "midi": 43,
      "hit": false,
      "t": 20615.51999999999,
      "d": 3136.17177083332,
      "v": 85
    },
    {
      "midi": 67,
      "hit": false,
      "t": 20830.26499999999,
      "d": 201.32343749999927,
      "v": 69
    },
    {
      "midi": 72,
      "hit": false,
      "t": 21045.009999999987,
      "d": 541.3363541666658,
      "v": 66
    },
    {
      "midi": 64,
      "hit": false,
      "t": 21259.754999999986,
      "d": 800.8198958333342,
      "v": 123
    },
    {
      "midi": 55,
      "hit": false,
      "t": 21474.499999999985,
      "d": 796.3460416666676,
      "v": 66
    },
    {
      "midi": 67,
      "hit": false,
      "t": 21689.244999999988,
      "d": 259.4835416666647,
      "v": 63
    },
    {
      "midi": 72,
      "hit": false,
      "t": 21903.989999999987,
      "d": 572.6533333333318,
      "v": 62
    },
    {
      "midi": 62,
      "hit": false,
      "t": 22118.734999999986,
      "d": 854.5061458333294,
      "v": 117
    },
    {
      "midi": 55,
      "hit": false,
      "t": 22333.479999999985,
      "d": 684.4996874999961,
      "v": 62
    },
    {
      "midi": 67,
      "hit": false,
      "t": 22548.224999999984,
      "d": 237.11427083333183,
      "v": 56
    },
    {
      "midi": 72,
      "hit": false,
      "t": 22762.969999999983,
      "d": 568.1794791666653,
      "v": 59
    },
    {
      "midi": 64,
      "hit": false,
      "t": 22977.714999999982,
      "d": 1006.6171874999927,
      "v": 120
    },
    {
      "midi": 55,
      "hit": false,
      "t": 23192.45999999998,
      "d": 599.4964583333276,
      "v": 63
    },
    {
      "midi": 67,
      "hit": false,
      "t": 23407.20499999998,
      "d": 277.37895833333096,
      "v": 68
    },
    {
      "midi": 72,
      "hit": false,
      "t": 23621.94999999998,
      "d": 487.65010416665973,
      "v": 70
    },
    {
      "midi": 65,
      "hit": false,
      "t": 24051.439999999973,
      "d": 653.1827083333301,
      "v": 120
    },
    {
      "midi": 58,
      "hit": false,
      "t": 24051.439999999973,
      "d": 675.5519791666629,
      "v": 79
    },
    {
      "midi": 46,
      "hit": false,
      "t": 24051.439999999973,
      "d": 3297.2305208333273,
      "v": 69
    },
    {
      "midi": 70,
      "hit": false,
      "t": 24266.184999999972,
      "d": 205.79729166666584,
      "v": 59
    },
    {
      "midi": 72,
      "hit": false,
      "t": 24480.92999999997,
      "d": 536.8624999999993,
      "v": 69
    },
    {
      "midi": 66,
      "hit": false,
      "t": 24695.67499999997,
      "d": 22.36927083333285,
      "v": 47
    },
    {
      "midi": 64,
      "hit": false,
      "t": 24695.67499999997,
      "d": 836.6107291666667,
      "v": 123
    },
    {
      "midi": 58,
      "hit": false,
      "t": 24910.41999999997,
      "d": 729.238229166669,
      "v": 68
    },
    {
      "midi": 70,
      "hit": false,
      "t": 25125.16499999997,
      "d": 178.95416666666642,
      "v": 58
    },
    {
      "midi": 72,
      "hit": false,
      "t": 25339.90999999997,
      "d": 541.3363541666695,
      "v": 67
    },
    {
      "midi": 62,
      "hit": false,
      "t": 25554.65499999997,
      "d": 814.2414583333375,
      "v": 120
    },
    {
      "midi": 58,
      "hit": false,
      "t": 25769.399999999972,
      "d": 720.2905208333323,
      "v": 73
    },
    {
      "midi": 70,
      "hit": false,
      "t": 25984.144999999975,
      "d": 214.74499999999898,
      "v": 75
    },
    {
      "midi": 72,
      "hit": false,
      "t": 26198.889999999974,
      "d": 626.3395833333307,
      "v": 69
    },
    {
      "midi": 64,
      "hit": false,
      "t": 26413.634999999973,
      "d": 653.1827083333301,
      "v": 123
    },
    {
      "midi": 58,
      "hit": false,
      "t": 26628.379999999972,
      "d": 666.6042708333298,
      "v": 73
    },
    {
      "midi": 70,
      "hit": false,
      "t": 26843.12499999997,
      "d": 170.00645833333328,
      "v": 69
    },
    {
      "midi": 65,
      "hit": false,
      "t": 27057.86999999997,
      "d": 246.06197916666497,
      "v": 120
    },
    {
      "midi": 72,
      "hit": false,
      "t": 27057.86999999997,
      "d": 483.1762499999968,
      "v": 79
    },
    {
      "midi": 65,
      "hit": false,
      "t": 27487.359999999968,
      "d": 666.6042708333298,
      "v": 120
    },
    {
      "midi": 55,
      "hit": false,
      "t": 27487.359999999968,
      "d": 702.3951041666623,
      "v": 82
    },
    {
      "midi": 43,
      "hit": false,
      "t": 27487.359999999968,
      "d": 3377.759895833329,
      "v": 83
    },
    {
      "midi": 67,
      "hit": false,
      "t": 27702.104999999967,
      "d": 178.95416666666642,
      "v": 66
    },
    {
      "midi": 72,
      "hit": false,
      "t": 27916.849999999966,
      "d": 541.3363541666658,
      "v": 68
    },
    {
      "midi": 64,
      "hit": false,
      "t": 28131.594999999965,
      "d": 845.5584374999999,
      "v": 120
    },
    {
      "midi": 55,
      "hit": false,
      "t": 28346.339999999964,
      "d": 724.7643749999988,
      "v": 66
    },
    {
      "midi": 67,
      "hit": false,
      "t": 28561.084999999966,
      "d": 232.64041666666526,
      "v": 65
    },
    {
      "midi": 72,
      "hit": false,
      "t": 28775.829999999965,
      "d": 523.4409374999996,
      "v": 58
    },
    {
      "midi": 62,
      "hit": false,
      "t": 28990.574999999964,
      "d": 863.4538541666661,
      "v": 110
    },
    {
      "midi": 55,
      "hit": false,
      "t": 29205.319999999963,
      "d": 693.4473958333328,
      "v": 67
    },
    {
      "midi": 67,
      "hit": false,
      "t": 29420.064999999966,
      "d": 228.1665624999987,
      "v": 58
    },
    {
      "midi": 72,
      "hit": false,
      "t": 29634.809999999965,
      "d": 514.4932291666664,
      "v": 62
    },
    {
      "midi": 64,
      "hit": false,
      "t": 29849.554999999964,
      "d": 1055.8295833333323,
      "v": 113
    },
    {
      "midi": 55,
      "hit": false,
      "t": 30064.299999999963,
      "d": 791.872187500001,
      "v": 66
    },
    {
      "midi": 67,
      "hit": false,
      "t": 30279.044999999966,
      "d": 205.79729166666584,
      "v": 58
    },
    {
      "midi": 72,
      "hit": false,
      "t": 30493.789999999964,
      "d": 353.4344791666663,
      "v": 66
    },
    {
      "midi": 67,
      "hit": false,
      "t": 30923.279999999962,
      "d": 706.8689583333289,
      "v": 120
    },
    {
      "midi": 41,
      "hit": false,
      "t": 30923.279999999962,
      "d": 3203.2795833333294,
      "v": 68
    },
    {
      "midi": 53,
      "hit": false,
      "t": 30923.279999999962,
      "d": 3230.122708333329,
      "v": 62
    },
    {
      "midi": 65,
      "hit": false,
      "t": 31138.02499999996,
      "d": 724.7643749999952,
      "v": 66
    },
    {
      "midi": 60,
      "hit": false,
      "t": 31352.76999999996,
      "d": 568.1794791666616,
      "v": 66
    },
    {
      "midi": 69,
      "hit": false,
      "t": 31567.51499999996,
      "d": 921.6139583333243,
      "v": 117
    },
    {
      "midi": 65,
      "hit": false,
      "t": 31997.004999999954,
      "d": 787.3983333333308,
      "v": 73
    },
    {
      "midi": 60,
      "hit": false,
      "t": 32211.749999999953,
      "d": 657.6565624999967,
      "v": 71
    },
    {
      "midi": 70,
      "hit": false,
      "t": 32426.49499999995,
      "d": 872.4015625000029,
      "v": 109
    },
    {
      "midi": 65,
      "hit": false,
      "t": 32855.98499999995,
      "d": 742.6597916666724,
      "v": 66
    },
    {
      "midi": 60,
      "hit": false,
      "t": 33070.72999999995,
      "d": 617.3918750000012,
      "v": 60
    },
    {
      "midi": 72,
      "hit": false,
      "t": 33285.474999999955,
      "d": 666.6042708333334,
      "v": 107
    },
    {
      "midi": 65,
      "hit": false,
      "t": 33714.96499999995,
      "d": 720.2905208333395,
      "v": 72
    },
    {
      "midi": 69,
      "hit": false,
      "t": 33929.709999999955,
      "d": 469.75468750000437,
      "v": 113
    },
    {
      "midi": 60,
      "hit": false,
      "t": 33929.709999999955,
      "d": 501.07166666667035,
      "v": 63
    },
    {
      "midi": 72,
      "hit": false,
      "t": 34359.19999999996,
      "d": 662.1304166666669,
      "v": 110
    },
    {
      "midi": 58,
      "hit": false,
      "t": 34359.19999999996,
      "d": 3189.858020833337,
      "v": 66
    },
    {
      "midi": 46,
      "hit": false,
      "t": 34359.19999999996,
      "d": 3230.122708333336,
      "v": 58
    },
    {
      "midi": 65,
      "hit": false,
      "t": 34573.944999999956,
      "d": 738.1859375000058,
      "v": 71
    },
    {
      "midi": 62,
      "hit": false,
      "t": 34788.68999999996,
      "d": 586.0748958333352,
      "v": 55
    },
    {
      "midi": 70,
      "hit": false,
      "t": 35003.43499999996,
      "d": 854.5061458333366,
      "v": 109
    },
    {
      "midi": 65,
      "hit": false,
      "t": 35432.92499999996,
      "d": 747.133645833339,
      "v": 74
    },
    {
      "midi": 62,
      "hit": false,
      "t": 35647.66999999996,
      "d": 577.127187500002,
      "v": 57
    },
    {
      "midi": 70,
      "hit": false,
      "t": 35862.414999999964,
      "d": 13.421562499999709,
      "v": 71
    },
    {
      "midi": 69,
      "hit": false,
      "t": 35862.414999999964,
      "d": 814.2414583333375,
      "v": 123
    },
    {
      "midi": 62,
      "hit": false,
      "t": 36506.649999999965,
      "d": 599.4964583333349,
      "v": 68
    },
    {
      "midi": 65,
      "hit": false,
      "t": 36721.39499999997,
      "d": 335.5390625,
      "v": 117
    },
    {
      "midi": 65,
      "hit": false,
      "t": 37150.884999999966,
      "d": 246.0619791666686,
      "v": 72
    },
    {
      "midi": 67,
      "hit": false,
      "t": 37365.62999999997,
      "d": 259.48354166666104,
      "v": 110
    },
    {
      "midi": 65,
      "hit": false,
      "t": 37580.37499999996,
      "d": 429.49000000000524,
      "v": 55
    },
    {
      "midi": 67,
      "hit": false,
      "t": 37795.119999999966,
      "d": 666.6042708333407,
      "v": 123
    },
    {
      "midi": 53,
      "hit": false,
      "t": 37795.119999999966,
      "d": 3386.7076041666805,
      "v": 59
    },
    {
      "midi": 41,
      "hit": false,
      "t": 37795.119999999966,
      "d": 3480.6585416666785,
      "v": 80
    },
    {
      "midi": 65,
      "hit": false,
      "t": 38009.86499999997,
      "d": 733.7120833333393,
      "v": 73
    },
    {
      "midi": 60,
      "hit": false,
      "t": 38224.60999999997,
      "d": 527.9147916666698,
      "v": 61
    },
    {
      "midi": 69,
      "hit": false,
      "t": 38439.354999999974,
      "d": 885.8231250000026,
      "v": 110
    },
    {
      "midi": 65,
      "hit": false,
      "t": 38868.84499999997,
      "d": 765.0290625000052,
      "v": 71
    },
    {
      "midi": 60,
      "hit": false,
      "t": 39083.589999999975,
      "d": 550.2840625000026,
      "v": 65
    },
    {
      "midi": 70,
      "hit": false,
      "t": 39298.33499999998,
      "d": 845.5584375000035,
      "v": 96
    },
    {
      "midi": 65,
      "hit": false,
      "t": 39727.824999999975,
      "d": 724.7643750000061,
      "v": 73
    },
    {
      "midi": 60,
      "hit": false,
      "t": 39942.56999999998,
      "d": 545.810208333336,
      "v": 64
    },
    {
      "midi": 69,
      "hit": false,
      "t": 40157.31499999998,
      "d": 975.300208333334,
      "v": 113
    },
    {
      "midi": 65,
      "hit": false,
      "t": 40586.80499999998,
      "d": 639.761145833334,
      "v": 76
    },
    {
      "midi": 60,
      "hit": false,
      "t": 40801.54999999998,
      "d": 384.75145833333227,
      "v": 75
    },
    {
      "midi": 67,
      "hit": false,
      "t": 41231.03999999998,
      "d": 635.2872916666747,
      "v": 117
    },
    {
      "midi": 48,
      "hit": false,
      "t": 41231.03999999998,
      "d": 3395.6553125000064,
      "v": 66
    },
    {
      "midi": 60,
      "hit": false,
      "t": 41445.78499999998,
      "d": 563.7056250000023,
      "v": 47
    },
    {
      "midi": 72,
      "hit": false,
      "t": 41660.529999999984,
      "d": 550.2840625000026,
      "v": 52
    },
    {
      "midi": 65,
      "hit": false,
      "t": 41875.27499999999,
      "d": 805.2937499999971,
      "v": 117
    },
    {
      "midi": 60,
      "hit": false,
      "t": 42304.764999999985,
      "d": 1288.4700000000012,
      "v": 51
    },
    {
      "midi": 72,
      "hit": false,
      "t": 42519.50999999999,
      "d": 1167.6759374999965,
      "v": 46
    },
    {
      "midi": 60,
      "hit": false,
      "t": 43593.234999999986,
      "d": 429.48999999999796,
      "v": 69
    },
    {
      "midi": 72,
      "hit": false,
      "t": 43807.97999999998,
      "d": 832.1368750000038,
      "v": 85
    },
    {
      "midi": 67,
      "hit": false,
      "t": 44022.724999999984,
      "d": 608.444166666668,
      "v": 97
    },
    {
      "midi": 64,
      "hit": false,
      "t": 44237.46999999999,
      "d": 281.85281250000116,
      "v": 85
    },
    {
      "midi": 60,
      "hit": false,
      "t": 44452.21499999999,
      "d": 223.69270833332848,
      "v": 79
    },
    {
      "midi": 58,
      "hit": false,
      "t": 44666.959999999985,
      "d": 487.65010416667064,
      "v": 84
    },
    {
      "midi": 65,
      "hit": false,
      "t": 44666.959999999985,
      "d": 595.0226041666683,
      "v": 125
    },
    {
      "midi": 46,
      "hit": false,
      "t": 44666.959999999985,
      "d": 3176.4364583333445,
      "v": 71
    },
    {
      "midi": 70,
      "hit": false,
      "t": 44881.70499999999,
      "d": 187.9018750000032,
      "v": 73
    },
    {
      "midi": 72,
      "hit": false,
      "t": 45096.44999999999,
      "d": 568.1794791666616,
      "v": 73
    },
    {
      "midi": 64,
      "hit": false,
      "t": 45311.194999999985,
      "d": 429.48999999999796,
      "v": 120
    },
    {
      "midi": 58,
      "hit": false,
      "t": 45525.93999999999,
      "d": 671.078125,
      "v": 46
    },
    {
      "midi": 70,
      "hit": false,
      "t": 45740.68499999998,
      "d": 201.3234375000029,
      "v": 66
    },
    {
      "midi": 72,
      "hit": false,
      "t": 45955.429999999986,
      "d": 563.7056250000023,
      "v": 69
    },
    {
      "midi": 62,
      "hit": false,
      "t": 46170.17499999999,
      "d": 872.4015625000029,
      "v": 113
    },
    {
      "midi": 58,
      "hit": false,
      "t": 46384.91999999999,
      "d": 671.078125,
      "v": 57
    },
    {
      "midi": 70,
      "hit": false,
      "t": 46599.664999999986,
      "d": 210.27114583333605,
      "v": 60
    },
    {
      "midi": 72,
      "hit": false,
      "t": 46814.40999999999,
      "d": 599.4964583333422,
      "v": 66
    },
    {
      "midi": 64,
      "hit": false,
      "t": 47029.15499999999,
      "d": 729.2382291666727,
      "v": 120
    },
    {
      "midi": 58,
      "hit": false,
      "t": 47243.899999999994,
      "d": 532.3886458333363,
      "v": 69
    },
    {
      "midi": 70,
      "hit": false,
      "t": 47458.645,
      "d": 196.84958333333634,
      "v": 69
    },
    {
      "midi": 65,
      "hit": false,
      "t": 47673.39,
      "d": 263.9573958333276,
      "v": 117
    },
    {
      "midi": 72,
      "hit": false,
      "t": 47673.39,
      "d": 447.38541666665697,
      "v": 78
    },
    {
      "midi": 65,
      "hit": false,
      "t": 48102.87999999999,
      "d": 630.8134375000081,
      "v": 120
    },
    {
      "midi": 60,
      "hit": false,
      "t": 48102.87999999999,
      "d": 720.2905208333395,
      "v": 72
    },
    {
      "midi": 48,
      "hit": false,
      "t": 48102.87999999999,
      "d": 3136.1717708333235,
      "v": 85
    },
    {
      "midi": 67,
      "hit": false,
      "t": 48317.62499999999,
      "d": 201.3234375000029,
      "v": 69
    },
    {
      "midi": 72,
      "hit": false,
      "t": 48532.369999999995,
      "d": 541.3363541666622,
      "v": 66
    },
    {
      "midi": 64,
      "hit": false,
      "t": 48747.115,
      "d": 800.8198958333232,
      "v": 123
    },
    {
      "midi": 60,
      "hit": false,
      "t": 48961.85999999999,
      "d": 796.3460416666567,
      "v": 66
    },
    {
      "midi": 67,
      "hit": false,
      "t": 49176.60499999999,
      "d": 259.4835416666683,
      "v": 63
    },
    {
      "midi": 72,
      "hit": false,
      "t": 49391.34999999999,
      "d": 572.6533333333209,
      "v": 62
    },
    {
      "midi": 62,
      "hit": false,
      "t": 49606.09499999999,
      "d": 854.5061458333294,
      "v": 117
    },
    {
      "midi": 60,
      "hit": false,
      "t": 49820.83999999998,
      "d": 684.4996874999997,
      "v": 62
    },
    {
      "midi": 67,
      "hit": false,
      "t": 50035.58499999998,
      "d": 237.11427083333547,
      "v": 56
    },
    {
      "midi": 72,
      "hit": false,
      "t": 50250.32999999998,
      "d": 568.1794791666689,
      "v": 59
    },
    {
      "midi": 64,
      "hit": false,
      "t": 50465.07499999998,
      "d": 1006.6171875,
      "v": 120
    },
    {
      "midi": 60,
      "hit": false,
      "t": 50679.819999999985,
      "d": 599.4964583333276,
      "v": 63
    },
    {
      "midi": 67,
      "hit": false,
      "t": 50894.56499999998,
      "d": 277.3789583333346,
      "v": 68
    },
    {
      "midi": 72,
      "hit": false,
      "t": 51109.30999999998,
      "d": 487.65010416666337,
      "v": 70
    },
    {
      "midi": 65,
      "hit": false,
      "t": 51538.79999999998,
      "d": 653.1827083333337,
      "v": 120
    },
    {
      "midi": 58,
      "hit": false,
      "t": 51538.79999999998,
      "d": 675.5519791666666,
      "v": 79
    },
    {
      "midi": 46,
      "hit": false,
      "t": 51538.79999999998,
      "d": 3297.2305208333346,
      "v": 69
    },
    {
      "midi": 70,
      "hit": false,
      "t": 51753.54499999998,
      "d": 205.79729166666948,
      "v": 59
    },
    {
      "midi": 72,
      "hit": false,
      "t": 51968.28999999998,
      "d": 536.8625000000029,
      "v": 69
    },
    {
      "midi": 64,
      "hit": false,
      "t": 52183.03499999998,
      "d": 836.6107291666704,
      "v": 123
    },
    {
      "midi": 58,
      "hit": false,
      "t": 52397.779999999984,
      "d": 729.2382291666654,
      "v": 68
    },
    {
      "midi": 70,
      "hit": false,
      "t": 52612.52499999998,
      "d": 178.95416666667006,
      "v": 58
    },
    {
      "midi": 72,
      "hit": false,
      "t": 52827.26999999998,
      "d": 541.3363541666622,
      "v": 67
    },
    {
      "midi": 62,
      "hit": false,
      "t": 53042.014999999985,
      "d": 814.2414583333302,
      "v": 120
    },
    {
      "midi": 58,
      "hit": false,
      "t": 53256.75999999998,
      "d": 720.2905208333323,
      "v": 73
    },
    {
      "midi": 70,
      "hit": false,
      "t": 53471.504999999976,
      "d": 214.74500000000262,
      "v": 75
    },
    {
      "midi": 72,
      "hit": false,
      "t": 53686.24999999998,
      "d": 626.3395833333343,
      "v": 69
    },
    {
      "midi": 64,
      "hit": false,
      "t": 53900.99499999998,
      "d": 653.1827083333337,
      "v": 123
    },
    {
      "midi": 58,
      "hit": false,
      "t": 54115.739999999976,
      "d": 666.6042708333407,
      "v": 73
    },
    {
      "midi": 70,
      "hit": false,
      "t": 54330.48499999998,
      "d": 170.00645833333692,
      "v": 69
    },
    {
      "midi": 65,
      "hit": false,
      "t": 54545.22999999998,
      "d": 246.0619791666686,
      "v": 120
    },
    {
      "midi": 72,
      "hit": false,
      "t": 54545.22999999998,
      "d": 483.1762499999968,
      "v": 79
    },
    {
      "midi": 65,
      "hit": false,
      "t": 54974.71999999998,
      "d": 666.6042708333334,
      "v": 120
    },
    {
      "midi": 60,
      "hit": false,
      "t": 54974.71999999998,
      "d": 702.395104166666,
      "v": 82
    },
    {
      "midi": 48,
      "hit": false,
      "t": 54974.71999999998,
      "d": 3377.7598958333183,
      "v": 83
    },
    {
      "midi": 67,
      "hit": false,
      "t": 55189.464999999975,
      "d": 178.95416666667006,
      "v": 66
    },
    {
      "midi": 72,
      "hit": false,
      "t": 55404.20999999998,
      "d": 541.3363541666622,
      "v": 68
    },
    {
      "midi": 64,
      "hit": false,
      "t": 55618.95499999998,
      "d": 845.5584374999962,
      "v": 120
    },
    {
      "midi": 60,
      "hit": false,
      "t": 55833.699999999975,
      "d": 724.7643749999988,
      "v": 66
    },
    {
      "midi": 67,
      "hit": false,
      "t": 56048.44499999997,
      "d": 232.6404166666689,
      "v": 65
    },
    {
      "midi": 72,
      "hit": false,
      "t": 56263.18999999997,
      "d": 523.4409374999959,
      "v": 58
    },
    {
      "midi": 62,
      "hit": false,
      "t": 56477.934999999976,
      "d": 863.4538541666625,
      "v": 110
    },
    {
      "midi": 60,
      "hit": false,
      "t": 56692.67999999997,
      "d": 693.4473958333328,
      "v": 67
    },
    {
      "midi": 67,
      "hit": false,
      "t": 56907.42499999997,
      "d": 228.16656250000233,
      "v": 58
    },
    {
      "midi": 72,
      "hit": false,
      "t": 57122.16999999997,
      "d": 514.4932291666628,
      "v": 62
    },
    {
      "midi": 64,
      "hit": false,
      "t": 57336.91499999997,
      "d": 1055.829583333325,
      "v": 113
    },
    {
      "midi": 60,
      "hit": false,
      "t": 57551.65999999997,
      "d": 791.8721874999974,
      "v": 66
    },
    {
      "midi": 67,
      "hit": false,
      "t": 57766.40499999996,
      "d": 205.79729166666948,
      "v": 58
    },
    {
      "midi": 72,
      "hit": false,
      "t": 57981.149999999965,
      "d": 353.4344791666663,
      "v": 66
    },
    {
      "midi": 67,
      "hit": false,
      "t": 58410.63999999996,
      "d": 706.8689583333398,
      "v": 120
    },
    {
      "midi": 41,
      "hit": false,
      "t": 58410.63999999996,
      "d": 3203.279583333351,
      "v": 68
    },
    {
      "midi": 53,
      "hit": false,
      "t": 58410.63999999996,
      "d": 3230.1227083333506,
      "v": 62
    },
    {
      "midi": 65,
      "hit": false,
      "t": 58625.384999999966,
      "d": 724.7643750000061,
      "v": 66
    },
    {
      "midi": 60,
      "hit": false,
      "t": 58840.12999999997,
      "d": 568.1794791666689,
      "v": 66
    },
    {
      "midi": 69,
      "hit": false,
      "t": 59054.87499999997,
      "d": 921.6139583333352,
      "v": 117
    },
    {
      "midi": 65,
      "hit": false,
      "t": 59484.36499999997,
      "d": 787.3983333333381,
      "v": 73
    },
    {
      "midi": 60,
      "hit": false,
      "t": 59699.10999999997,
      "d": 657.6565625000003,
      "v": 71
    },
    {
      "midi": 70,
      "hit": false,
      "t": 59913.854999999974,
      "d": 872.4015625000029,
      "v": 109
    },
    {
      "midi": 65,
      "hit": false,
      "t": 60343.34499999997,
      "d": 742.6597916666724,
      "v": 66
    },
    {
      "midi": 60,
      "hit": false,
      "t": 60558.089999999975,
      "d": 617.3918750000012,
      "v": 60
    },
    {
      "midi": 72,
      "hit": false,
      "t": 60772.83499999998,
      "d": 666.6042708333334,
      "v": 107
    },
    {
      "midi": 65,
      "hit": false,
      "t": 61202.324999999975,
      "d": 720.2905208333395,
      "v": 72
    },
    {
      "midi": 69,
      "hit": false,
      "t": 61417.06999999998,
      "d": 469.75468750000437,
      "v": 113
    },
    {
      "midi": 60,
      "hit": false,
      "t": 61417.06999999998,
      "d": 501.07166666667035,
      "v": 63
    },
    {
      "midi": 46,
      "hit": false,
      "t": 61846.55999999998,
      "d": 4321.743125000023,
      "v": 71
    },
    {
      "midi": 58,
      "hit": false,
      "t": 61846.55999999998,
      "d": 4335.16468750003,
      "v": 84
    },
    {
      "midi": 65,
      "hit": false,
      "t": 62061.30499999998,
      "d": 872.4015625000029,
      "v": 75
    },
    {
      "midi": 62,
      "hit": false,
      "t": 62276.04999999998,
      "d": 648.7088541666672,
      "v": 72
    },
    {
      "midi": 72,
      "hit": false,
      "t": 62490.794999999984,
      "d": 17.89541666666628,
      "v": 109
    },
    {
      "midi": 72,
      "hit": false,
      "t": 62920.28499999998,
      "d": 214.74500000000262,
      "v": 104
    },
    {
      "midi": 77,
      "hit": false,
      "t": 63135.029999999984,
      "d": 250.53583333333518,
      "v": 94
    },
    {
      "midi": 81,
      "hit": false,
      "t": 63349.77499999999,
      "d": 232.6404166666689,
      "v": 85
    },
    {
      "midi": 82,
      "hit": false,
      "t": 63564.51999999999,
      "d": 268.43125000000146,
      "v": 92
    },
    {
      "midi": 81,
      "hit": false,
      "t": 63779.26499999999,
      "d": 246.06197916666133,
      "v": 99
    },
    {
      "midi": 77,
      "hit": false,
      "t": 63994.00999999999,
      "d": 214.74500000000262,
      "v": 80
    },
    {
      "midi": 72,
      "hit": false,
      "t": 64208.75499999999,
      "d": 214.74500000000262,
      "v": 83
    },
    {
      "midi": 70,
      "hit": false,
      "t": 64423.49999999999,
      "d": 214.74500000000262,
      "v": 104
    },
    {
      "midi": 72,
      "hit": false,
      "t": 64423.49999999999,
      "d": 429.49000000000524,
      "v": 110
    },
    {
      "midi": 69,
      "hit": false,
      "t": 64638.244999999995,
      "d": 210.27114583333605,
      "v": 86
    },
    {
      "midi": 65,
      "hit": false,
      "t": 64852.99,
      "d": 214.74500000000262,
      "v": 97
    },
    {
      "midi": 60,
      "hit": false,
      "t": 65067.735,
      "d": 214.74500000000262,
      "v": 79
    },
    {
      "midi": 67,
      "hit": false,
      "t": 65282.48,
      "d": 214.74499999999534,
      "v": 107
    },
    {
      "midi": 53,
      "hit": false,
      "t": 65282.48,
      "d": 460.8069791666712,
      "v": 79
    },
    {
      "midi": 41,
      "hit": false,
      "t": 65282.48,
      "d": 3440.3938541667376,
      "v": 90
    },
    {
      "midi": 69,
      "hit": false,
      "t": 65497.225,
      "d": 1874.5448958333654,
      "v": 92
    },
    {
      "midi": 53,
      "hit": false,
      "t": 65926.71500000001,
      "d": 693.4473958333401,
      "v": 92
    },
    {
      "midi": 65,
      "hit": false,
      "t": 66356.20500000002,
      "d": 219.2188541666692,
      "v": 86
    },
    {
      "midi": 60,
      "hit": false,
      "t": 66570.95000000001,
      "d": 639.7611458333413,
      "v": 82
    },
    {
      "midi": 53,
      "hit": false,
      "t": 66785.69500000002,
      "d": 702.3951041666878,
      "v": 85
    },
    {
      "midi": 65,
      "hit": false,
      "t": 67215.18500000003,
      "d": 384.7514583333541,
      "v": 73
    },
    {
      "midi": 60,
      "hit": false,
      "t": 67429.93000000004,
      "d": 697.921250000014,
      "v": 86
    },
    {
      "midi": 53,
      "hit": false,
      "t": 67644.67500000005,
      "d": 693.4473958333401,
      "v": 82
    },
    {
      "midi": 65,
      "hit": false,
      "t": 68074.16500000005,
      "d": 237.11427083333547,
      "v": 80
    },
    {
      "midi": 60,
      "hit": false,
      "t": 68288.91000000005,
      "d": 152.11104166667792,
      "v": 92
    },
    {
      "midi": 53,
      "hit": false,
      "t": 68503.65500000006,
      "d": 174.4803125000035,
      "v": 74
    },
    {
      "midi": 60,
      "hit": false,
      "t": 68718.40000000007,
      "d": 214.7450000000099,
      "v": 85
    },
    {
      "midi": 64,
      "hit": false,
      "t": 68718.40000000007,
      "d": 469.75468750001164,
      "v": 73
    },
    {
      "midi": 48,
      "hit": false,
      "t": 68718.40000000007,
      "d": 1163.2020833333518,
      "v": 75
    },
    {
      "midi": 60,
      "hit": false,
      "t": 68933.14500000008,
      "d": 214.74499999999534,
      "v": 66
    },
    {
      "midi": 55,
      "hit": false,
      "t": 69147.89000000007,
      "d": 290.80052083334886,
      "v": 79
    },
    {
      "midi": 62,
      "hit": false,
      "t": 69362.63500000008,
      "d": 541.3363541666768,
      "v": 90
    },
    {
      "midi": 65,
      "hit": false,
      "t": 69362.63500000008,
      "d": 814.2414583333593,
      "v": 86
    },
    {
      "midi": 60,
      "hit": false,
      "t": 69792.12500000009,
      "d": 290.80052083334886,
      "v": 80
    },
    {
      "midi": 55,
      "hit": false,
      "t": 70006.8700000001,
      "d": 1749.2769791666797,
      "v": 58
    },
    {
      "midi": 60,
      "hit": false,
      "t": 70221.6150000001,
      "d": 214.7450000000099,
      "v": 72
    },
    {
      "midi": 64,
      "hit": false,
      "t": 70436.36000000012,
      "d": 1543.4796874999884,
      "v": 86
    },
    {
      "midi": 67,
      "hit": false,
      "t": 70436.36000000012,
      "d": 1543.4796874999884,
      "v": 79
    },
    {
      "midi": 48,
      "hit": false,
      "t": 70436.36000000012,
      "d": 2008.7605208333262,
      "v": 75
    },
    {
      "midi": 60,
      "hit": false,
      "t": 72154.32000000011,
      "d": 474.22854166667094,
      "v": 72
    },
    {
      "midi": 65,
      "hit": false,
      "t": 72154.32000000011,
      "d": 487.6501041666779,
      "v": 68
    },
    {
      "midi": 57,
      "hit": false,
      "t": 72154.32000000011,
      "d": 492.12395833335177,
      "v": 65
    },
    {
      "midi": 41,
      "hit": false,
      "t": 72154.32000000011,
      "d": 1346.6301041666884,
      "v": 62
    },
    {
      "midi": 53,
      "hit": false,
      "t": 72592.75770833345,
      "d": 858.9800000000105,
      "v": 44
    },
    {
      "midi": 65,
      "hit": false,
      "t": 73017.7738541668,
      "d": 688.9735416666663,
      "v": 73
    },
    {
      "midi": 57,
      "hit": false,
      "t": 73022.24770833347,
      "d": 313.1697916666599,
      "v": 62
    },
    {
      "midi": 60,
      "hit": false,
      "t": 73022.24770833347,
      "d": 697.9212499999994,
      "v": 76
    },
    {
      "midi": 57,
      "hit": false,
      "t": 73456.21156250013,
      "d": 290.8005208333343,
      "v": 63
    },
    {
      "midi": 60,
      "hit": false,
      "t": 73894.64927083347,
      "d": 487.6501041666779,
      "v": 73
    },
    {
      "midi": 65,
      "hit": false,
      "t": 73899.12312500014,
      "d": 483.1762500000041,
      "v": 70
    },
    {
      "midi": 57,
      "hit": false,
      "t": 73899.12312500014,
      "d": 492.1239583333372,
      "v": 67
    },
    {
      "midi": 41,
      "hit": false,
      "t": 73908.07083333348,
      "d": 1641.9044791666965,
      "v": 63
    },
    {
      "midi": 53,
      "hit": false,
      "t": 74324.13927083348,
      "d": 711.342812500021,
      "v": 61
    },
    {
      "midi": 65,
      "hit": false,
      "t": 74731.26000000015,
      "d": 635.287291666682,
      "v": 62
    },
    {
      "midi": 60,
      "hit": false,
      "t": 74735.73385416683,
      "d": 612.9180208333419,
      "v": 68
    },
    {
      "midi": 57,
      "hit": false,
      "t": 74740.2077083335,
      "d": 308.6959375000006,
      "v": 72
    },
    {
      "midi": 57,
      "hit": false,
      "t": 75183.1192708335,
      "d": 201.3234375000029,
      "v": 61
    },
    {
      "midi": 53,
      "hit": false,
      "t": 75375.49500000017,
      "d": 147.63718750000407,
      "v": 64
    },
    {
      "midi": 65,
      "hit": false,
      "t": 75612.6092708335,
      "d": 630.8134375000227,
      "v": 70
    },
    {
      "midi": 57,
      "hit": false,
      "t": 75617.08312500018,
      "d": 111.84635416667152,
      "v": 73
    },
    {
      "midi": 60,
      "hit": false,
      "t": 75617.08312500018,
      "d": 174.4803125000035,
      "v": 76
    },
    {
      "midi": 46,
      "hit": false,
      "t": 75617.08312500018,
      "d": 1225.8360416666983,
      "v": 57
    },
    {
      "midi": 62,
      "hit": false,
      "t": 75822.88041666686,
      "d": 429.49000000000524,
      "v": 77
    },
    {
      "midi": 58,
      "hit": false,
      "t": 75827.35427083353,
      "d": 411.5945833333244,
      "v": 64
    },
    {
      "midi": 65,
      "hit": false,
      "t": 76453.69385416686,
      "d": 671.0781250000291,
      "v": 67
    },
    {
      "midi": 58,
      "hit": false,
      "t": 76458.16770833354,
      "d": 290.8005208333343,
      "v": 53
    },
    {
      "midi": 62,
      "hit": false,
      "t": 76467.11541666687,
      "d": 612.9180208333419,
      "v": 82
    },
    {
      "midi": 58,
      "hit": false,
      "t": 76856.34072916688,
      "d": 246.0619791666686,
      "v": 44
    },
    {
      "midi": 46,
      "hit": false,
      "t": 77053.19031250021,
      "d": 143.16333333334478,
      "v": 48
    },
    {
      "midi": 65,
      "hit": false,
      "t": 77299.2522916669,
      "d": 621.865729166675,
      "v": 77
    },
    {
      "midi": 58,
      "hit": false,
      "t": 77308.20000000023,
      "d": 389.22531249999884,
      "v": 64
    },
    {
      "midi": 62,
      "hit": false,
      "t": 77308.20000000023,
      "d": 595.0226041666756,
      "v": 84
    },
    {
      "midi": 46,
      "hit": false,
      "t": 77308.20000000023,
      "d": 1266.1007291666901,
      "v": 64
    },
    {
      "midi": 82,
      "hit": false,
      "t": 77352.9385416669,
      "d": 854.5061458333512,
      "v": 86
    },
    {
      "midi": 58,
      "hit": false,
      "t": 77737.69000000024,
      "d": 192.37572916666977,
      "v": 32
    },
    {
      "midi": 57,
      "hit": false,
      "t": 78180.60156250023,
      "d": 317.6436458333483,
      "v": 67
    },
    {
      "midi": 65,
      "hit": false,
      "t": 78185.0754166669,
      "d": 639.7611458333558,
      "v": 56
    },
    {
      "midi": 62,
      "hit": false,
      "t": 78185.0754166669,
      "d": 653.1827083333628,
      "v": 72
    },
    {
      "midi": 81,
      "hit": false,
      "t": 78198.49697916691,
      "d": 841.0845833333733,
      "v": 82
    },
    {
      "midi": 57,
      "hit": false,
      "t": 78605.6177083336,
      "d": 255.0096875000163,
      "v": 64
    },
    {
      "midi": 46,
      "hit": false,
      "t": 78802.46729166692,
      "d": 255.00968750003085,
      "v": 53
    },
    {
      "midi": 41,
      "hit": false,
      "t": 79035.10770833361,
      "d": 1503.215000000011,
      "v": 68
    },
    {
      "midi": 72,
      "hit": false,
      "t": 79035.10770833361,
      "d": 2335.351875000051,
      "v": 81
    },
    {
      "midi": 60,
      "hit": false,
      "t": 79039.58156250029,
      "d": 563.7056249999878,
      "v": 78
    },
    {
      "midi": 65,
      "hit": false,
      "t": 79039.58156250029,
      "d": 590.5487499999872,
      "v": 68
    },
    {
      "midi": 57,
      "hit": false,
      "t": 79039.58156250029,
      "d": 603.9703124999942,
      "v": 72
    },
    {
      "midi": 53,
      "hit": false,
      "t": 79478.01927083361,
      "d": 836.6107291666849,
      "v": 26
    },
    {
      "midi": 65,
      "hit": false,
      "t": 79898.56156250028,
      "d": 644.2350000000151,
      "v": 70
    },
    {
      "midi": 57,
      "hit": false,
      "t": 79903.03541666696,
      "d": 666.6042708333407,
      "v": 68
    },
    {
      "midi": 60,
      "hit": false,
      "t": 79903.03541666696,
      "d": 666.6042708333407,
      "v": 72
    },
    {
      "midi": 53,
      "hit": false,
      "t": 80520.42729166696,
      "d": 304.22208333335584,
      "v": 61
    },
    {
      "midi": 41,
      "hit": false,
      "t": 80744.1200000003,
      "d": 1650.8521875000588,
      "v": 69
    },
    {
      "midi": 65,
      "hit": false,
      "t": 80748.59385416697,
      "d": 590.5487500000017,
      "v": 72
    },
    {
      "midi": 60,
      "hit": false,
      "t": 80757.54156250031,
      "d": 595.0226041666756,
      "v": 78
    },
    {
      "midi": 57,
      "hit": false,
      "t": 80757.54156250031,
      "d": 599.4964583333494,
      "v": 68
    },
    {
      "midi": 53,
      "hit": false,
      "t": 81187.03156250031,
      "d": 483.1762500000186,
      "v": 47
    },
    {
      "midi": 60,
      "hit": false,
      "t": 81620.99541666699,
      "d": 688.9735416666954,
      "v": 72
    },
    {
      "midi": 65,
      "hit": false,
      "t": 81629.94312500033,
      "d": 635.287291666682,
      "v": 74
    },
    {
      "midi": 57,
      "hit": false,
      "t": 81638.89083333366,
      "d": 277.37895833334187,
      "v": 69
    },
    {
      "midi": 57,
      "hit": false,
      "t": 82063.906979167,
      "d": 241.5881250000093,
      "v": 60
    },
    {
      "midi": 53,
      "hit": false,
      "t": 82269.70427083368,
      "d": 178.9541666666919,
      "v": 59
    },
    {
      "midi": 60,
      "hit": false,
      "t": 82484.4492708337,
      "d": 518.9670833333512,
      "v": 67
    },
    {
      "midi": 48,
      "hit": false,
      "t": 82488.92312500038,
      "d": 908.19239583335,
      "v": 69
    },
    {
      "midi": 55,
      "hit": false,
      "t": 82493.39697916705,
      "d": 595.0226041666756,
      "v": 64
    },
    {
      "midi": 64,
      "hit": false,
      "t": 82502.34468750039,
      "d": 505.5455208333442,
      "v": 71
    },
    {
      "midi": 60,
      "hit": false,
      "t": 83330.00770833372,
      "d": 85.0032291666721,
      "v": 74
    },
    {
      "midi": 64,
      "hit": false,
      "t": 83334.4815625004,
      "d": 107.37249999999767,
      "v": 72
    },
    {
      "midi": 55,
      "hit": false,
      "t": 83343.42927083373,
      "d": 62.633958333331975,
      "v": 71
    },
    {
      "midi": 48,
      "hit": false,
      "t": 83750.5500000004,
      "d": 196.84958333332906,
      "v": 67
    },
    {
      "midi": 77,
      "hit": false,
      "t": 83965.29500000039,
      "d": 107.37249999999767,
      "v": 93
    },
    {
      "midi": 67,
      "hit": false,
      "t": 83965.29500000039,
      "d": 214.7450000000099,
      "v": 82
    },
    {
      "midi": 72,
      "hit": false,
      "t": 83965.29500000039,
      "d": 214.7450000000099,
      "v": 95
    },
    {
      "midi": 48,
      "hit": false,
      "t": 84130.82760416706,
      "d": 1364.5255208333401,
      "v": 73
    },
    {
      "midi": 67,
      "hit": false,
      "t": 84180.0400000004,
      "d": 214.74499999999534,
      "v": 102
    },
    {
      "midi": 72,
      "hit": false,
      "t": 84180.0400000004,
      "d": 214.74499999999534,
      "v": 109
    },
    {
      "midi": 76,
      "hit": false,
      "t": 84180.0400000004,
      "d": 429.4899999999907,
      "v": 111
    },
    {
      "midi": 72,
      "hit": false,
      "t": 84394.7850000004,
      "d": 246.0619791666686,
      "v": 104
    },
    {
      "midi": 67,
      "hit": false,
      "t": 84609.53000000039,
      "d": 98.42479166667908,
      "v": 117
    },
    {
      "midi": 65,
      "hit": false,
      "t": 85039.0200000004,
      "d": 228.16656250000233,
      "v": 104
    },
    {
      "midi": 64,
      "hit": false,
      "t": 85253.76500000039,
      "d": 201.3234375000029,
      "v": 109
    },
    {
      "midi": 60,
      "hit": false,
      "t": 85468.5100000004,
      "d": 322.117499999993,
      "v": 109
    },
    {
      "midi": 48,
      "hit": false,
      "t": 85683.2550000004,
      "d": 187.90187499999593,
      "v": 83
    },
    {
      "midi": 57,
      "hit": false,
      "t": 85898.0000000004,
      "d": 747.1336458333681,
      "v": 67
    },
    {
      "midi": 60,
      "hit": false,
      "t": 85902.47385416707,
      "d": 724.7643750000134,
      "v": 72
    },
    {
      "midi": 65,
      "hit": false,
      "t": 85902.47385416707,
      "d": 729.2382291666872,
      "v": 62
    },
    {
      "midi": 41,
      "hit": false,
      "t": 85920.36927083373,
      "d": 1462.9503125000338,
      "v": 65
    },
    {
      "midi": 53,
      "hit": false,
      "t": 86367.7546875004,
      "d": 845.5584375000326,
      "v": 34
    },
    {
      "midi": 57,
      "hit": false,
      "t": 86783.82312500043,
      "d": 277.37895833334187,
      "v": 58
    },
    {
      "midi": 65,
      "hit": false,
      "t": 86788.2969791671,
      "d": 626.3395833333343,
      "v": 78
    },
    {
      "midi": 60,
      "hit": false,
      "t": 86788.2969791671,
      "d": 635.2872916666674,
      "v": 76
    },
    {
      "midi": 57,
      "hit": false,
      "t": 87195.41770833377,
      "d": 268.43125000000873,
      "v": 61
    },
    {
      "midi": 53,
      "hit": false,
      "t": 87405.6888541671,
      "d": 232.64041666669073,
      "v": 58
    },
    {
      "midi": 41,
      "hit": false,
      "t": 87611.48614583378,
      "d": 1597.1659375000454,
      "v": 66
    },
    {
      "midi": 60,
      "hit": false,
      "t": 87620.43385416712,
      "d": 617.3918750000157,
      "v": 68
    },
    {
      "midi": 65,
      "hit": false,
      "t": 87620.43385416712,
      "d": 635.2872916666965,
      "v": 70
    },
    {
      "midi": 57,
      "hit": false,
      "t": 87633.85541666712,
      "d": 608.4441666666826,
      "v": 63
    },
    {
      "midi": 53,
      "hit": false,
      "t": 88072.29312500046,
      "d": 648.708854166689,
      "v": 42
    },
    {
      "midi": 60,
      "hit": false,
      "t": 88479.41385416714,
      "d": 608.4441666666826,
      "v": 70
    },
    {
      "midi": 57,
      "hit": false,
      "t": 88483.88770833382,
      "d": 304.2220833333413,
      "v": 65
    },
    {
      "midi": 65,
      "hit": false,
      "t": 88483.88770833382,
      "d": 653.1827083333483,
      "v": 70
    },
    {
      "midi": 57,
      "hit": false,
      "t": 88940.22083333382,
      "d": 214.7450000000099,
      "v": 76
    },
    {
      "midi": 53,
      "hit": false,
      "t": 89137.07041666716,
      "d": 134.2156249999971,
      "v": 69
    },
    {
      "midi": 60,
      "hit": false,
      "t": 89338.39385416717,
      "d": 201.32343750001746,
      "v": 86
    },
    {
      "midi": 65,
      "hit": false,
      "t": 89347.3415625005,
      "d": 170.0064583333442,
      "v": 79
    },
    {
      "midi": 57,
      "hit": false,
      "t": 89351.81541666717,
      "d": 120.79406250000466,
      "v": 88
    },
    {
      "midi": 46,
      "hit": false,
      "t": 89351.81541666717,
      "d": 1301.8915625000373,
      "v": 64
    },
    {
      "midi": 65,
      "hit": false,
      "t": 89566.56041666718,
      "d": 429.4900000000198,
      "v": 56
    },
    {
      "midi": 62,
      "hit": false,
      "t": 89571.03427083386,
      "d": 416.0684375000128,
      "v": 82
    },
    {
      "midi": 58,
      "hit": false,
      "t": 89575.50812500053,
      "d": 447.3854166666715,
      "v": 61
    },
    {
      "midi": 65,
      "hit": false,
      "t": 90206.32156250054,
      "d": 648.7088541666744,
      "v": 70
    },
    {
      "midi": 58,
      "hit": false,
      "t": 90215.26927083387,
      "d": 317.6436458333337,
      "v": 61
    },
    {
      "midi": 62,
      "hit": false,
      "t": 90224.2169791672,
      "d": 617.3918750000012,
      "v": 80
    },
    {
      "midi": 58,
      "hit": false,
      "t": 90631.33770833387,
      "d": 237.11427083335002,
      "v": 45
    },
    {
      "midi": 46,
      "hit": false,
      "t": 90832.66114583387,
      "d": 107.37250000001222,
      "v": 42
    },
    {
      "midi": 46,
      "hit": false,
      "t": 91074.24927083388,
      "d": 295.2743750000227,
      "v": 56
    },
    {
      "midi": 65,
      "hit": false,
      "t": 91078.72312500056,
      "d": 313.169791666689,
      "v": 69
    },
    {
      "midi": 62,
      "hit": false,
      "t": 91087.67083333389,
      "d": 304.22208333335584,
      "v": 81
    },
    {
      "midi": 58,
      "hit": false,
      "t": 91096.61854166724,
      "d": 299.748229166682,
      "v": 64
    },
    {
      "midi": 46,
      "hit": false,
      "t": 91512.68697916725,
      "d": 116.32020833333081,
      "v": 42
    },
    {
      "midi": 58,
      "hit": false,
      "t": 91897.43843750058,
      "d": 353.4344791666663,
      "v": 64
    },
    {
      "midi": 62,
      "hit": false,
      "t": 91906.38614583391,
      "d": 344.48677083333314,
      "v": 76
    },
    {
      "midi": 53,
      "hit": false,
      "t": 91910.86000000058,
      "d": 313.1697916666599,
      "v": 72
    },
    {
      "midi": 46,
      "hit": false,
      "t": 91910.86000000058,
      "d": 411.59458333333896,
      "v": 59
    },
    {
      "midi": 60,
      "hit": false,
      "t": 92317.98072916725,
      "d": 348.96062500002154,
      "v": 84
    },
    {
      "midi": 64,
      "hit": false,
      "t": 92326.9284375006,
      "d": 344.4867708333477,
      "v": 77
    },
    {
      "midi": 55,
      "hit": false,
      "t": 92331.40229166727,
      "d": 304.22208333332674,
      "v": 68
    },
    {
      "midi": 48,
      "hit": false,
      "t": 92340.3500000006,
      "d": 438.43770833335293,
      "v": 75
    },
    {
      "midi": 50,
      "hit": false,
      "t": 92756.41843750062,
      "d": 1283.9961458333564,
      "v": 83
    },
    {
      "midi": 65,
      "hit": false,
      "t": 92760.89229166729,
      "d": 724.7643750000134,
      "v": 85
    },
    {
      "midi": 57,
      "hit": false,
      "t": 92769.84000000062,
      "d": 702.3951041666733,
      "v": 76
    },
    {
      "midi": 62,
      "hit": false,
      "t": 92769.84000000062,
      "d": 706.8689583333471,
      "v": 84
    },
    {
      "midi": 57,
      "hit": false,
      "t": 93606.4507291673,
      "d": 295.2743749999936,
      "v": 69
    },
    {
      "midi": 65,
      "hit": false,
      "t": 93615.39843750064,
      "d": 715.8166666666657,
      "v": 72
    },
    {
      "midi": 62,
      "hit": false,
      "t": 93615.39843750064,
      "d": 724.7643749999988,
      "v": 68
    },
    {
      "midi": 57,
      "hit": false,
      "t": 94044.88843750065,
      "d": 277.3789583333273,
      "v": 72
    },
    {
      "midi": 50,
      "hit": false,
      "t": 94259.63343750064,
      "d": 170.00645833332965,
      "v": 71
    },
    {
      "midi": 60,
      "hit": false,
      "t": 94474.37843750064,
      "d": 545.8102083333506,
      "v": 74
    },
    {
      "midi": 55,
      "hit": false,
      "t": 94478.85229166731,
      "d": 644.2350000000151,
      "v": 74
    },
    {
      "midi": 64,
      "hit": false,
      "t": 94478.85229166731,
      "d": 662.1304166666814,
      "v": 70
    },
    {
      "midi": 48,
      "hit": false,
      "t": 94492.27385416732,
      "d": 912.6662500000093,
      "v": 68
    },
    {
      "midi": 60,
      "hit": false,
      "t": 95328.88458333399,
      "d": 599.4964583333494,
      "v": 81
    },
    {
      "midi": 55,
      "hit": false,
      "t": 95333.35843750066,
      "d": 237.11427083333547,
      "v": 75
    },
    {
      "midi": 64,
      "hit": false,
      "t": 95333.35843750066,
      "d": 595.0226041666756,
      "v": 76
    },
    {
      "midi": 55,
      "hit": false,
      "t": 95780.74385416733,
      "d": 187.90187500001048,
      "v": 58
    },
    {
      "midi": 48,
      "hit": false,
      "t": 95982.06729166735,
      "d": 120.79406250000466,
      "v": 65
    },
    {
      "midi": 46,
      "hit": false,
      "t": 96169.96916666736,
      "d": 742.6597916666942,
      "v": 59
    },
    {
      "midi": 58,
      "hit": false,
      "t": 96192.3384375007,
      "d": 572.65333333335,
      "v": 81
    },
    {
      "midi": 53,
      "hit": false,
      "t": 96201.28614583403,
      "d": 268.43125000000873,
      "v": 78
    },
    {
      "midi": 62,
      "hit": false,
      "t": 96201.28614583403,
      "d": 1234.7837500000169,
      "v": 80
    },
    {
      "midi": 53,
      "hit": false,
      "t": 96581.56375000071,
      "d": 456.33312500000466,
      "v": 64
    },
    {
      "midi": 60,
      "hit": false,
      "t": 96809.73031250072,
      "d": 595.022604166661,
      "v": 85
    },
    {
      "midi": 46,
      "hit": false,
      "t": 96993.15833333405,
      "d": 143.16333333333023,
      "v": 50
    },
    {
      "midi": 77,
      "hit": false,
      "t": 97708.97500000072,
      "d": 1002.1433333333407,
      "v": 88
    },
    {
      "midi": 74,
      "hit": false,
      "t": 97780.55666666738,
      "d": 715.8166666666802,
      "v": 88
    },
    {
      "midi": 72,
      "hit": false,
      "t": 97852.13833333405,
      "d": 572.65333333335,
      "v": 88
    },
    {
      "midi": 70,
      "hit": false,
      "t": 97937.14156250072,
      "d": 429.49000000000524,
      "v": 88
    },
    {
      "midi": 58,
      "hit": false,
      "t": 99641.68000000074,
      "d": 487.65010416666337,
      "v": 84
    },
    {
      "midi": 65,
      "hit": false,
      "t": 99641.68000000074,
      "d": 595.022604166661,
      "v": 93
    },
    {
      "midi": 46,
      "hit": false,
      "t": 99641.68000000074,
      "d": 3176.4364583333518,
      "v": 71
    },
    {
      "midi": 70,
      "hit": false,
      "t": 99856.42500000073,
      "d": 187.90187499999593,
      "v": 73
    },
    {
      "midi": 72,
      "hit": false,
      "t": 100071.17000000073,
      "d": 568.1794791666762,
      "v": 73
    },
    {
      "midi": 64,
      "hit": false,
      "t": 100285.91500000074,
      "d": 867.9277083333436,
      "v": 92
    },
    {
      "midi": 58,
      "hit": false,
      "t": 100500.66000000073,
      "d": 671.0781250000146,
      "v": 46
    },
    {
      "midi": 70,
      "hit": false,
      "t": 100715.40500000074,
      "d": 201.3234375000029,
      "v": 66
    },
    {
      "midi": 72,
      "hit": false,
      "t": 100930.15000000075,
      "d": 563.7056249999878,
      "v": 69
    },
    {
      "midi": 62,
      "hit": false,
      "t": 101144.89500000075,
      "d": 872.4015625000029,
      "v": 92
    },
    {
      "midi": 58,
      "hit": false,
      "t": 101359.64000000074,
      "d": 671.0781250000146,
      "v": 57
    },
    {
      "midi": 70,
      "hit": false,
      "t": 101574.38500000074,
      "d": 210.27114583333605,
      "v": 60
    },
    {
      "midi": 72,
      "hit": false,
      "t": 101789.13000000075,
      "d": 599.4964583333349,
      "v": 66
    },
    {
      "midi": 64,
      "hit": false,
      "t": 102003.87500000074,
      "d": 729.2382291666727,
      "v": 92
    },
    {
      "midi": 58,
      "hit": false,
      "t": 102218.62000000075,
      "d": 532.3886458333291,
      "v": 69
    },
    {
      "midi": 70,
      "hit": false,
      "t": 102433.36500000075,
      "d": 196.84958333332906,
      "v": 69
    },
    {
      "midi": 65,
      "hit": false,
      "t": 102648.11000000074,
      "d": 263.95739583334944,
      "v": 92
    },
    {
      "midi": 72,
      "hit": false,
      "t": 102648.11000000074,
      "d": 447.38541666668607,
      "v": 78
    },
    {
      "midi": 65,
      "hit": false,
      "t": 103077.60000000076,
      "d": 630.8134375000081,
      "v": 92
    },
    {
      "midi": 60,
      "hit": false,
      "t": 103077.60000000076,
      "d": 720.2905208333541,
      "v": 72
    },
    {
      "midi": 48,
      "hit": false,
      "t": 103077.60000000076,
      "d": 3136.171770833389,
      "v": 85
    },
    {
      "midi": 67,
      "hit": false,
      "t": 103292.34500000076,
      "d": 201.3234375000029,
      "v": 69
    },
    {
      "midi": 72,
      "hit": false,
      "t": 103507.09000000077,
      "d": 541.3363541666913,
      "v": 66
    },
    {
      "midi": 64,
      "hit": false,
      "t": 103721.83500000078,
      "d": 800.8198958333523,
      "v": 91
    },
    {
      "midi": 60,
      "hit": false,
      "t": 103936.58000000079,
      "d": 796.3460416666785,
      "v": 66
    },
    {
      "midi": 67,
      "hit": false,
      "t": 104151.3250000008,
      "d": 259.48354166666104,
      "v": 63
    },
    {
      "midi": 72,
      "hit": false,
      "t": 104366.0700000008,
      "d": 572.6533333333355,
      "v": 62
    },
    {
      "midi": 62,
      "hit": false,
      "t": 104580.8150000008,
      "d": 854.5061458333221,
      "v": 91
    },
    {
      "midi": 60,
      "hit": false,
      "t": 104795.5600000008,
      "d": 684.499687500007,
      "v": 62
    },
    {
      "midi": 67,
      "hit": false,
      "t": 105010.3050000008,
      "d": 237.11427083333547,
      "v": 56
    },
    {
      "midi": 72,
      "hit": false,
      "t": 105225.05000000079,
      "d": 568.1794791666907,
      "v": 59
    },
    {
      "midi": 64,
      "hit": false,
      "t": 105439.7950000008,
      "d": 1006.6171875000291,
      "v": 91
    },
    {
      "midi": 60,
      "hit": false,
      "t": 105654.54000000081,
      "d": 599.4964583333494,
      "v": 63
    },
    {
      "midi": 67,
      "hit": false,
      "t": 105869.28500000082,
      "d": 277.3789583333273,
      "v": 68
    },
    {
      "midi": 72,
      "hit": false,
      "t": 106084.03000000081,
      "d": 487.6501041666925,
      "v": 70
    },
    {
      "midi": 65,
      "hit": false,
      "t": 106513.52000000083,
      "d": 653.1827083333337,
      "v": 91
    },
    {
      "midi": 58,
      "hit": false,
      "t": 106513.52000000083,
      "d": 675.5519791666738,
      "v": 79
    },
    {
      "midi": 46,
      "hit": false,
      "t": 106513.52000000083,
      "d": 3297.2305208333564,
      "v": 69
    },
    {
      "midi": 70,
      "hit": false,
      "t": 106728.26500000084,
      "d": 205.7972916666622,
      "v": 59
    },
    {
      "midi": 72,
      "hit": false,
      "t": 106943.01000000084,
      "d": 536.8625000000029,
      "v": 69
    },
    {
      "midi": 64,
      "hit": false,
      "t": 107157.75500000083,
      "d": 836.6107291666704,
      "v": 91
    },
    {
      "midi": 58,
      "hit": false,
      "t": 107372.50000000084,
      "d": 729.2382291666727,
      "v": 68
    },
    {
      "midi": 70,
      "hit": false,
      "t": 107587.24500000084,
      "d": 178.9541666666628,
      "v": 58
    },
    {
      "midi": 72,
      "hit": false,
      "t": 107801.99000000083,
      "d": 541.3363541666913,
      "v": 67
    },
    {
      "midi": 62,
      "hit": false,
      "t": 108016.73500000084,
      "d": 814.2414583333448,
      "v": 90
    },
    {
      "midi": 58,
      "hit": false,
      "t": 108231.48000000085,
      "d": 720.2905208333395,
      "v": 73
    },
    {
      "midi": 70,
      "hit": false,
      "t": 108446.22500000086,
      "d": 214.74499999999534,
      "v": 75
    },
    {
      "midi": 72,
      "hit": false,
      "t": 108660.97000000086,
      "d": 626.3395833333343,
      "v": 69
    },
    {
      "midi": 64,
      "hit": false,
      "t": 108875.71500000086,
      "d": 653.1827083333337,
      "v": 90
    },
    {
      "midi": 58,
      "hit": false,
      "t": 109090.46000000086,
      "d": 666.6042708333262,
      "v": 73
    },
    {
      "midi": 70,
      "hit": false,
      "t": 109305.20500000086,
      "d": 170.00645833332965,
      "v": 69
    },
    {
      "midi": 65,
      "hit": false,
      "t": 109519.95000000086,
      "d": 246.0619791666686,
      "v": 90
    },
    {
      "midi": 72,
      "hit": false,
      "t": 109519.95000000086,
      "d": 483.1762500000041,
      "v": 79
    },
    {
      "midi": 65,
      "hit": false,
      "t": 109949.44000000086,
      "d": 666.6042708333262,
      "v": 90
    },
    {
      "midi": 60,
      "hit": false,
      "t": 109949.44000000086,
      "d": 702.3951041666587,
      "v": 82
    },
    {
      "midi": 48,
      "hit": false,
      "t": 109949.44000000086,
      "d": 3377.7598958333692,
      "v": 83
    },
    {
      "midi": 67,
      "hit": false,
      "t": 110164.18500000086,
      "d": 178.9541666666628,
      "v": 66
    },
    {
      "midi": 72,
      "hit": false,
      "t": 110378.93000000085,
      "d": 541.3363541666768,
      "v": 68
    },
    {
      "midi": 64,
      "hit": false,
      "t": 110593.67500000085,
      "d": 845.558437500018,
      "v": 95
    },
    {
      "midi": 60,
      "hit": false,
      "t": 110808.42000000086,
      "d": 724.7643750000134,
      "v": 66
    },
    {
      "midi": 67,
      "hit": false,
      "t": 111023.16500000087,
      "d": 232.64041666666162,
      "v": 65
    },
    {
      "midi": 72,
      "hit": false,
      "t": 111237.91000000086,
      "d": 523.4409375000105,
      "v": 58
    },
    {
      "midi": 62,
      "hit": false,
      "t": 111452.65500000087,
      "d": 863.4538541666843,
      "v": 93
    },
    {
      "midi": 60,
      "hit": false,
      "t": 111667.40000000087,
      "d": 693.4473958333547,
      "v": 67
    },
    {
      "midi": 67,
      "hit": false,
      "t": 111882.14500000088,
      "d": 228.16656250000233,
      "v": 58
    },
    {
      "midi": 72,
      "hit": false,
      "t": 112096.89000000087,
      "d": 514.4932291666919,
      "v": 62
    },
    {
      "midi": 64,
      "hit": false,
      "t": 112311.63500000088,
      "d": 1055.829583333354,
      "v": 91
    },
    {
      "midi": 60,
      "hit": false,
      "t": 112526.38000000089,
      "d": 791.8721875000047,
      "v": 66
    },
    {
      "midi": 67,
      "hit": false,
      "t": 112741.1250000009,
      "d": 205.7972916666622,
      "v": 58
    },
    {
      "midi": 72,
      "hit": false,
      "t": 112955.8700000009,
      "d": 353.4344791666663,
      "v": 66
    },
    {
      "midi": 67,
      "hit": false,
      "t": 113385.3600000009,
      "d": 706.868958333318,
      "v": 90
    },
    {
      "midi": 41,
      "hit": false,
      "t": 113385.3600000009,
      "d": 3203.279583333322,
      "v": 68
    },
    {
      "midi": 53,
      "hit": false,
      "t": 113385.3600000009,
      "d": 3230.1227083333215,
      "v": 62
    },
    {
      "midi": 65,
      "hit": false,
      "t": 113600.1050000009,
      "d": 724.7643749999843,
      "v": 66
    },
    {
      "midi": 60,
      "hit": false,
      "t": 113814.8500000009,
      "d": 568.1794791666616,
      "v": 66
    },
    {
      "midi": 69,
      "hit": false,
      "t": 114029.59500000089,
      "d": 921.6139583333279,
      "v": 90
    },
    {
      "midi": 65,
      "hit": false,
      "t": 114459.0850000009,
      "d": 787.3983333333163,
      "v": 73
    },
    {
      "midi": 60,
      "hit": false,
      "t": 114673.83000000089,
      "d": 657.656562499993,
      "v": 71
    },
    {
      "midi": 70,
      "hit": false,
      "t": 114888.57500000088,
      "d": 872.4015625000029,
      "v": 90
    },
    {
      "midi": 65,
      "hit": false,
      "t": 115318.06500000088,
      "d": 742.6597916666797,
      "v": 66
    },
    {
      "midi": 60,
      "hit": false,
      "t": 115532.81000000089,
      "d": 617.3918750000012,
      "v": 60
    },
    {
      "midi": 65,
      "hit": false,
      "t": 116177.04500000089,
      "d": 720.2905208333541,
      "v": 72
    },
    {
      "midi": 72,
      "hit": false,
      "t": 116391.79000000088,
      "d": 22.369270833340124,
      "v": 90
    },
    {
      "midi": 60,
      "hit": false,
      "t": 116391.79000000088,
      "d": 501.0716666666849,
      "v": 63
    },
    {
      "midi": 72,
      "hit": false,
      "t": 116821.28000000089,
      "d": 40.2646875000064,
      "v": 90
    },
    {
      "midi": 58,
      "hit": false,
      "t": 116821.28000000089,
      "d": 554.7579166666837,
      "v": 84
    },
    {
      "midi": 46,
      "hit": false,
      "t": 116821.28000000089,
      "d": 2925.900625000053,
      "v": 84
    },
    {
      "midi": 65,
      "hit": false,
      "t": 117036.02500000091,
      "d": 760.5552083333314,
      "v": 55
    },
    {
      "midi": 62,
      "hit": false,
      "t": 117250.7700000009,
      "d": 568.1794791666762,
      "v": 55
    },
    {
      "midi": 58,
      "hit": false,
      "t": 117465.51500000092,
      "d": 720.2905208333395,
      "v": 55
    },
    {
      "midi": 65,
      "hit": false,
      "t": 117895.00500000092,
      "d": 706.8689583333326,
      "v": 55
    },
    {
      "midi": 62,
      "hit": false,
      "t": 118109.75000000092,
      "d": 554.7579166666692,
      "v": 55
    },
    {
      "midi": 58,
      "hit": false,
      "t": 118324.49500000093,
      "d": 711.3428124999919,
      "v": 55
    },
    {
      "midi": 65,
      "hit": false,
      "t": 118753.98500000092,
      "d": 348.960625000007,
      "v": 55
    },
    {
      "midi": 62,
      "hit": false,
      "t": 118968.73000000091,
      "d": 469.75468750001164,
      "v": 55
    },
    {
      "midi": 58,
      "hit": false,
      "t": 119183.47500000092,
      "d": 532.3886458333436,
      "v": 55
    },
    {
      "midi": 65,
      "hit": false,
      "t": 119612.96500000093,
      "d": 308.69593750001513,
      "v": 55
    },
    {
      "midi": 62,
      "hit": false,
      "t": 119827.71000000094,
      "d": 425.0161458333314,
      "v": 55
    },
    {
      "midi": 53,
      "hit": false,
      "t": 120257.20000000094,
      "d": 474.22854166667094,
      "v": 75
    },
    {
      "midi": 41,
      "hit": false,
      "t": 120257.20000000094,
      "d": 3283.808958333364,
      "v": 75
    },
    {
      "midi": 65,
      "hit": false,
      "t": 120471.94500000095,
      "d": 568.1794791666616,
      "v": 55
    },
    {
      "midi": 60,
      "hit": false,
      "t": 120686.69000000095,
      "d": 411.59458333333896,
      "v": 55
    },
    {
      "midi": 53,
      "hit": false,
      "t": 120901.43500000094,
      "d": 702.3951041666733,
      "v": 55
    },
    {
      "midi": 65,
      "hit": false,
      "t": 121330.92500000095,
      "d": 563.7056250000023,
      "v": 55
    },
    {
      "midi": 60,
      "hit": false,
      "t": 121545.67000000094,
      "d": 603.9703125000087,
      "v": 55
    },
    {
      "midi": 53,
      "hit": false,
      "t": 121760.41500000095,
      "d": 756.0813541666721,
      "v": 55
    },
    {
      "midi": 65,
      "hit": false,
      "t": 122189.90500000096,
      "d": 550.2840625000099,
      "v": 55
    },
    {
      "midi": 60,
      "hit": false,
      "t": 122404.65000000095,
      "d": 626.3395833333489,
      "v": 55
    },
    {
      "midi": 53,
      "hit": false,
      "t": 122619.39500000096,
      "d": 603.9703125000087,
      "v": 55
    },
    {
      "midi": 65,
      "hit": false,
      "t": 123048.88500000097,
      "d": 304.2220833333413,
      "v": 55
    },
    {
      "midi": 60,
      "hit": false,
      "t": 123263.63000000098,
      "d": 223.69270833332848,
      "v": 55
    },
    {
      "midi": 53,
      "hit": false,
      "t": 123478.37500000097,
      "d": 170.00645833332965,
      "v": 55
    },
    {
      "midi": 48,
      "hit": false,
      "t": 123693.12000000097,
      "d": 3435.920000000013,
      "v": 71
    },
    {
      "midi": 72,
      "hit": false,
      "t": 123907.86500000097,
      "d": 635.2872916666674,
      "v": 55
    },
    {
      "midi": 67,
      "hit": false,
      "t": 124122.61000000098,
      "d": 442.9115624999977,
      "v": 55
    },
    {
      "midi": 60,
      "hit": false,
      "t": 124337.35500000097,
      "d": 653.1827083333337,
      "v": 55
    },
    {
      "midi": 72,
      "hit": false,
      "t": 124766.84500000098,
      "d": 577.1271874999948,
      "v": 55
    },
    {
      "midi": 67,
      "hit": false,
      "t": 124981.59000000097,
      "d": 398.173020833332,
      "v": 52
    },
    {
      "midi": 60,
      "hit": false,
      "t": 125196.33500000097,
      "d": 724.7643749999988,
      "v": 52
    },
    {
      "midi": 72,
      "hit": false,
      "t": 125625.82500000097,
      "d": 612.9180208333273,
      "v": 53
    },
    {
      "midi": 67,
      "hit": false,
      "t": 125840.57000000097,
      "d": 581.6010416666686,
      "v": 53
    },
    {
      "midi": 60,
      "hit": false,
      "t": 126055.31500000096,
      "d": 608.444166666668,
      "v": 55
    },
    {
      "midi": 72,
      "hit": false,
      "t": 126484.80500000097,
      "d": 536.8624999999884,
      "v": 58
    },
    {
      "midi": 67,
      "hit": false,
      "t": 126699.55000000096,
      "d": 326.59135416666686,
      "v": 60
    },
    {
      "midi": 60,
      "hit": false,
      "t": 126914.29500000096,
      "d": 170.0064583333442,
      "v": 62
    },
    {
      "midi": 60,
      "hit": false,
      "t": 127129.04000000098,
      "d": 505.5455208333442,
      "v": 63
    },
    {
      "midi": 65,
      "hit": false,
      "t": 127129.04000000098,
      "d": 510.01937500001804,
      "v": 54
    },
    {
      "midi": 57,
      "hit": false,
      "t": 127129.04000000098,
      "d": 518.9670833333512,
      "v": 55
    },
    {
      "midi": 41,
      "hit": false,
      "t": 127129.04000000098,
      "d": 1530.058125000025,
      "v": 51
    },
    {
      "midi": 53,
      "hit": false,
      "t": 127558.53000000099,
      "d": 818.7153125000186,
      "v": 28
    },
    {
      "midi": 57,
      "hit": false,
      "t": 127988.02000000101,
      "d": 331.06520833332615,
      "v": 61
    },
    {
      "midi": 65,
      "hit": false,
      "t": 127988.02000000101,
      "d": 675.5519791666738,
      "v": 66
    },
    {
      "midi": 60,
      "hit": false,
      "t": 127988.02000000101,
      "d": 688.9735416666808,
      "v": 72
    },
    {
      "midi": 57,
      "hit": false,
      "t": 128417.51000000101,
      "d": 281.8528125000157,
      "v": 53
    },
    {
      "midi": 53,
      "hit": false,
      "t": 128632.25500000101,
      "d": 250.535833333357,
      "v": 56
    },
    {
      "midi": 60,
      "hit": false,
      "t": 128847.00000000103,
      "d": 559.2317708333285,
      "v": 57
    },
    {
      "midi": 57,
      "hit": false,
      "t": 128847.00000000103,
      "d": 572.6533333333355,
      "v": 61
    },
    {
      "midi": 65,
      "hit": false,
      "t": 128847.00000000103,
      "d": 581.6010416666686,
      "v": 59
    },
    {
      "midi": 41,
      "hit": false,
      "t": 128847.00000000103,
      "d": 1574.7966666666762,
      "v": 55
    },
    {
      "midi": 53,
      "hit": false,
      "t": 129276.49000000102,
      "d": 675.5519791666738,
      "v": 42
    },
    {
      "midi": 57,
      "hit": false,
      "t": 129705.98000000103,
      "d": 290.8005208333343,
      "v": 75
    },
    {
      "midi": 60,
      "hit": false,
      "t": 129705.98000000103,
      "d": 550.2840625000099,
      "v": 75
    },
    {
      "midi": 65,
      "hit": false,
      "t": 129705.98000000103,
      "d": 568.1794791666762,
      "v": 72
    },
    {
      "midi": 57,
      "hit": false,
      "t": 130135.47000000103,
      "d": 205.79729166667676,
      "v": 75
    },
    {
      "midi": 53,
      "hit": false,
      "t": 130350.21500000104,
      "d": 125.26791666666395,
      "v": 66
    },
    {
      "midi": 57,
      "hit": false,
      "t": 130564.96000000105,
      "d": 107.37249999999767,
      "v": 86
    },
    {
      "midi": 65,
      "hit": false,
      "t": 130564.96000000105,
      "d": 161.0587499999965,
      "v": 72
    },
    {
      "midi": 60,
      "hit": false,
      "t": 130564.96000000105,
      "d": 201.3234375000029,
      "v": 86
    },
    {
      "midi": 46,
      "hit": false,
      "t": 130564.96000000105,
      "d": 1342.1562500000146,
      "v": 56
    },
    {
      "midi": 62,
      "hit": false,
      "t": 130779.70500000106,
      "d": 407.1207291666651,
      "v": 71
    },
    {
      "midi": 65,
      "hit": false,
      "t": 130779.70500000106,
      "d": 505.5455208333442,
      "v": 52
    },
    {
      "midi": 58,
      "hit": false,
      "t": 130779.70500000106,
      "d": 514.4932291666919,
      "v": 51
    },
    {
      "midi": 58,
      "hit": false,
      "t": 131423.94000000108,
      "d": 317.6436458333337,
      "v": 56
    },
    {
      "midi": 62,
      "hit": false,
      "t": 131423.94000000108,
      "d": 483.1762499999895,
      "v": 82
    },
    {
      "midi": 65,
      "hit": false,
      "t": 131423.94000000108,
      "d": 626.3395833333198,
      "v": 68
    },
    {
      "midi": 58,
      "hit": false,
      "t": 131853.43000000107,
      "d": 241.5881250000093,
      "v": 31
    },
    {
      "midi": 46,
      "hit": false,
      "t": 132068.17500000107,
      "d": 107.37250000002678,
      "v": 34
    },
    {
      "midi": 62,
      "hit": false,
      "t": 132282.9200000011,
      "d": 460.80697916666395,
      "v": 73
    },
    {
      "midi": 65,
      "hit": false,
      "t": 132282.9200000011,
      "d": 523.4409375000105,
      "v": 60
    },
    {
      "midi": 58,
      "hit": false,
      "t": 132282.9200000011,
      "d": 586.074895833357,
      "v": 50
    },
    {
      "midi": 46,
      "hit": false,
      "t": 132282.9200000011,
      "d": 970.8263541666674,
      "v": 46
    },
    {
      "midi": 58,
      "hit": false,
      "t": 133141.9000000011,
      "d": 313.1697916666453,
      "v": 50
    },
    {
      "midi": 65,
      "hit": false,
      "t": 133141.9000000011,
      "d": 586.0748958333279,
      "v": 72
    },
    {
      "midi": 62,
      "hit": false,
      "t": 133141.9000000011,
      "d": 648.7088541666453,
      "v": 74
    },
    {
      "midi": 58,
      "hit": false,
      "t": 133571.3900000011,
      "d": 192.37572916666977,
      "v": 49
    },
    {
      "midi": 46,
      "hit": false,
      "t": 133786.1350000011,
      "d": 170.0064583333151,
      "v": 51
    },
    {
      "midi": 60,
      "hit": false,
      "t": 134000.88000000108,
      "d": 599.4964583333349,
      "v": 70
    },
    {
      "midi": 65,
      "hit": false,
      "t": 134000.88000000108,
      "d": 599.4964583333349,
      "v": 62
    },
    {
      "midi": 57,
      "hit": false,
      "t": 134000.88000000108,
      "d": 603.9703124999942,
      "v": 65
    },
    {
      "midi": 41,
      "hit": false,
      "t": 134000.88000000108,
      "d": 1574.7966666666616,
      "v": 61
    },
    {
      "midi": 53,
      "hit": false,
      "t": 134430.37000000107,
      "d": 876.8754166666477,
      "v": 18
    },
    {
      "midi": 57,
      "hit": false,
      "t": 134859.86000000106,
      "d": 335.5390625,
      "v": 62
    },
    {
      "midi": 65,
      "hit": false,
      "t": 134859.86000000106,
      "d": 688.9735416666663,
      "v": 66
    },
    {
      "midi": 60,
      "hit": false,
      "t": 134859.86000000106,
      "d": 756.0813541666721,
      "v": 74
    },
    {
      "midi": 57,
      "hit": false,
      "t": 135289.35000000105,
      "d": 290.80052083334886,
      "v": 55
    },
    {
      "midi": 53,
      "hit": false,
      "t": 135504.09500000105,
      "d": 496.5978125000256,
      "v": 48
    },
    {
      "midi": 57,
      "hit": false,
      "t": 135718.84000000107,
      "d": 295.27437500000815,
      "v": 39
    },
    {
      "midi": 65,
      "hit": false,
      "t": 135718.84000000107,
      "d": 724.7643750000279,
      "v": 70
    },
    {
      "midi": 41,
      "hit": false,
      "t": 135718.84000000107,
      "d": 1668.7476041667105,
      "v": 53
    },
    {
      "midi": 60,
      "hit": false,
      "t": 135933.58500000107,
      "d": 460.80697916669305,
      "v": 60
    },
    {
      "midi": 57,
      "hit": false,
      "t": 136148.3300000011,
      "d": 290.80052083334886,
      "v": 52
    },
    {
      "midi": 53,
      "hit": false,
      "t": 136363.0750000011,
      "d": 541.3363541667059,
      "v": 52
    },
    {
      "midi": 57,
      "hit": false,
      "t": 136577.8200000011,
      "d": 259.4835416666756,
      "v": 66
    },
    {
      "midi": 65,
      "hit": false,
      "t": 136577.8200000011,
      "d": 684.499687500007,
      "v": 71
    },
    {
      "midi": 60,
      "hit": false,
      "t": 136577.8200000011,
      "d": 706.8689583333326,
      "v": 76
    },
    {
      "midi": 57,
      "hit": false,
      "t": 137007.31000000113,
      "d": 259.4835416666465,
      "v": 64
    },
    {
      "midi": 53,
      "hit": false,
      "t": 137222.05500000113,
      "d": 129.74177083332324,
      "v": 62
    },
    {
      "midi": 60,
      "hit": false,
      "t": 137436.80000000112,
      "d": 577.1271875000093,
      "v": 63
    },
    {
      "midi": 64,
      "hit": false,
      "t": 137436.80000000112,
      "d": 608.4441666666826,
      "v": 57
    },
    {
      "midi": 55,
      "hit": false,
      "t": 137436.80000000112,
      "d": 666.6042708333407,
      "v": 57
    },
    {
      "midi": 48,
      "hit": false,
      "t": 137436.80000000112,
      "d": 1337.6823958333407,
      "v": 65
    },
    {
      "midi": 55,
      "hit": false,
      "t": 138295.78000000113,
      "d": 357.9083333333256,
      "v": 58
    },
    {
      "midi": 60,
      "hit": false,
      "t": 138295.78000000113,
      "d": 778.4506249999977,
      "v": 68
    },
    {
      "midi": 64,
      "hit": false,
      "t": 138295.78000000113,
      "d": 778.4506249999977,
      "v": 66
    },
    {
      "midi": 55,
      "hit": false,
      "t": 138725.27000000112,
      "d": 313.1697916666744,
      "v": 48
    },
    {
      "midi": 48,
      "hit": false,
      "t": 138940.01500000112,
      "d": 138.68947916667094,
      "v": 51
    },
    {
      "midi": 55,
      "hit": false,
      "t": 139154.76000000112,
      "d": 371.32989583333256,
      "v": 48
    },
    {
      "midi": 64,
      "hit": false,
      "t": 139154.76000000112,
      "d": 626.3395833333198,
      "v": 54
    },
    {
      "midi": 60,
      "hit": false,
      "t": 139154.76000000112,
      "d": 635.2872916666674,
      "v": 57
    },
    {
      "midi": 48,
      "hit": false,
      "t": 139154.76000000112,
      "d": 1216.888333333336,
      "v": 53
    },
    {
      "midi": 55,
      "hit": false,
      "t": 139584.2500000011,
      "d": 219.21885416668374,
      "v": 41
    },
    {
      "midi": 55,
      "hit": false,
      "t": 140013.74000000113,
      "d": 304.22208333332674,
      "v": 63
    },
    {
      "midi": 60,
      "hit": false,
      "t": 140013.74000000113,
      "d": 644.234999999986,
      "v": 71
    },
    {
      "midi": 64,
      "hit": false,
      "t": 140013.74000000113,
      "d": 702.3951041666442,
      "v": 65
    },
    {
      "midi": 55,
      "hit": false,
      "t": 140443.23000000112,
      "d": 174.4803125000035,
      "v": 60
    },
    {
      "midi": 48,
      "hit": false,
      "t": 140657.9750000011,
      "d": 196.84958333332906,
      "v": 55
    },
    {
      "midi": 57,
      "hit": false,
      "t": 140872.7200000011,
      "d": 586.0748958333279,
      "v": 59
    },
    {
      "midi": 60,
      "hit": false,
      "t": 140872.7200000011,
      "d": 599.4964583333349,
      "v": 66
    },
    {
      "midi": 65,
      "hit": false,
      "t": 140872.7200000011,
      "d": 617.3918750000012,
      "v": 68
    },
    {
      "midi": 41,
      "hit": false,
      "t": 140872.7200000011,
      "d": 1467.424166666664,
      "v": 58
    },
    {
      "midi": 53,
      "hit": false,
      "t": 141302.2100000011,
      "d": 845.5584375000035,
      "v": 25
    },
    {
      "midi": 57,
      "hit": false,
      "t": 141731.70000000112,
      "d": 326.5913541666523,
      "v": 65
    },
    {
      "midi": 65,
      "hit": false,
      "t": 141731.70000000112,
      "d": 639.7611458333267,
      "v": 65
    },
    {
      "midi": 60,
      "hit": false,
      "t": 141731.70000000112,
      "d": 680.0258333333477,
      "v": 68
    },
    {
      "midi": 57,
      "hit": false,
      "t": 142161.1900000011,
      "d": 241.5881250000093,
      "v": 59
    },
    {
      "midi": 53,
      "hit": false,
      "t": 142375.9350000011,
      "d": 223.69270833337214,
      "v": 54
    },
    {
      "midi": 60,
      "hit": false,
      "t": 142590.68000000113,
      "d": 541.3363541666768,
      "v": 54
    },
    {
      "midi": 57,
      "hit": false,
      "t": 142590.68000000113,
      "d": 545.810208333336,
      "v": 51
    },
    {
      "midi": 65,
      "hit": false,
      "t": 142590.68000000113,
      "d": 559.231770833343,
      "v": 60
    },
    {
      "midi": 41,
      "hit": false,
      "t": 142590.68000000113,
      "d": 1570.3228125000314,
      "v": 57
    },
    {
      "midi": 53,
      "hit": false,
      "t": 143020.17000000115,
      "d": 469.75468749998254,
      "v": 48
    },
    {
      "midi": 57,
      "hit": false,
      "t": 143449.66000000114,
      "d": 299.74822916666744,
      "v": 71
    },
    {
      "midi": 65,
      "hit": false,
      "t": 143449.66000000114,
      "d": 626.3395833333489,
      "v": 67
    },
    {
      "midi": 60,
      "hit": false,
      "t": 143449.66000000114,
      "d": 630.8134375000081,
      "v": 73
    },
    {
      "midi": 57,
      "hit": false,
      "t": 143879.15000000113,
      "d": 134.21562500001164,
      "v": 51
    },
    {
      "midi": 53,
      "hit": false,
      "t": 144093.89500000115,
      "d": 125.26791666666395,
      "v": 54
    },
    {
      "midi": 62,
      "hit": false,
      "t": 144308.64000000115,
      "d": 469.75468750001164,
      "v": 73
    },
    {
      "midi": 65,
      "hit": false,
      "t": 144308.64000000115,
      "d": 577.1271875000093,
      "v": 70
    },
    {
      "midi": 58,
      "hit": false,
      "t": 144308.64000000115,
      "d": 621.8657291666896,
      "v": 58
    },
    {
      "midi": 46,
      "hit": false,
      "t": 144308.64000000115,
      "d": 845.5584375000326,
      "v": 68
    },
    {
      "midi": 58,
      "hit": false,
      "t": 145167.6200000012,
      "d": 366.85604166667326,
      "v": 37
    },
    {
      "midi": 62,
      "hit": false,
      "t": 145167.6200000012,
      "d": 460.80697916669305,
      "v": 61
    },
    {
      "midi": 65,
      "hit": false,
      "t": 145167.6200000012,
      "d": 532.3886458333582,
      "v": 57
    },
    {
      "midi": 46,
      "hit": false,
      "t": 145597.1100000012,
      "d": 487.6501041666488,
      "v": 25
    },
    {
      "midi": 62,
      "hit": false,
      "t": 146026.6000000012,
      "d": 393.69916666665813,
      "v": 66
    },
    {
      "midi": 58,
      "hit": false,
      "t": 146026.6000000012,
      "d": 411.5945833333244,
      "v": 43
    },
    {
      "midi": 65,
      "hit": false,
      "t": 146026.6000000012,
      "d": 447.38541666665697,
      "v": 58
    },
    {
      "midi": 46,
      "hit": false,
      "t": 146456.0900000012,
      "d": 398.1730208333465,
      "v": 28
    },
    {
      "midi": 58,
      "hit": false,
      "t": 146885.5800000012,
      "d": 71.58166666666511,
      "v": 49
    },
    {
      "midi": 62,
      "hit": false,
      "t": 146885.5800000012,
      "d": 76.05552083332441,
      "v": 62
    },
    {
      "midi": 65,
      "hit": false,
      "t": 146885.5800000012,
      "d": 120.79406250000466,
      "v": 55
    },
    {
      "midi": 46,
      "hit": false,
      "t": 147315.0700000012,
      "d": 411.5945833333244,
      "v": 20
    },
    {
      "midi": 77,
      "hit": false,
      "t": 147744.5600000012,
      "d": 344.4867708333477,
      "v": 62
    },
    {
      "midi": 81,
      "hit": false,
      "t": 147744.5600000012,
      "d": 353.4344791666954,
      "v": 59
    },
    {
      "midi": 74,
      "hit": false,
      "t": 147744.5600000012,
      "d": 425.0161458333605,
      "v": 57
    },
    {
      "midi": 50,
      "hit": false,
      "t": 147744.5600000012,
      "d": 1360.0516666666663,
      "v": 75
    },
    {
      "midi": 79,
      "hit": false,
      "t": 148388.7950000012,
      "d": 304.22208333332674,
      "v": 66
    },
    {
      "midi": 74,
      "hit": false,
      "t": 148388.7950000012,
      "d": 313.1697916666744,
      "v": 62
    },
    {
      "midi": 82,
      "hit": false,
      "t": 148388.7950000012,
      "d": 317.6436458333337,
      "v": 56
    },
    {
      "midi": 74,
      "hit": false,
      "t": 148818.2850000012,
      "d": 295.27437500000815,
      "v": 60
    },
    {
      "midi": 81,
      "hit": false,
      "t": 148818.2850000012,
      "d": 478.70239583335933,
      "v": 74
    },
    {
      "midi": 77,
      "hit": false,
      "t": 148818.2850000012,
      "d": 483.1762500000186,
      "v": 67
    },
    {
      "midi": 50,
      "hit": false,
      "t": 149247.77500000122,
      "d": 196.84958333332906,
      "v": 66
    },
    {
      "midi": 72,
      "hit": false,
      "t": 149462.5200000012,
      "d": 344.4867708333477,
      "v": 64
    },
    {
      "midi": 79,
      "hit": false,
      "t": 149462.5200000012,
      "d": 532.3886458333582,
      "v": 65
    },
    {
      "midi": 76,
      "hit": false,
      "t": 149462.5200000012,
      "d": 563.7056250000314,
      "v": 64
    },
    {
      "midi": 48,
      "hit": false,
      "t": 149462.5200000012,
      "d": 1279.5222916667117,
      "v": 59
    },
    {
      "midi": 72,
      "hit": false,
      "t": 149892.01000000123,
      "d": 129.74177083335235,
      "v": 46
    },
    {
      "midi": 72,
      "hit": false,
      "t": 150106.75500000126,
      "d": 335.5390625000291,
      "v": 65
    },
    {
      "midi": 81,
      "hit": false,
      "t": 150106.75500000126,
      "d": 357.9083333333547,
      "v": 67
    },
    {
      "midi": 77,
      "hit": false,
      "t": 150106.75500000126,
      "d": 371.32989583336166,
      "v": 71
    },
    {
      "midi": 79,
      "hit": false,
      "t": 150536.24500000128,
      "d": 398.1730208333174,
      "v": 66
    },
    {
      "midi": 72,
      "hit": false,
      "t": 150536.24500000128,
      "d": 402.6468749999767,
      "v": 73
    },
    {
      "midi": 76,
      "hit": false,
      "t": 150536.24500000128,
      "d": 402.6468749999767,
      "v": 67
    },
    {
      "midi": 48,
      "hit": false,
      "t": 150965.73500000127,
      "d": 187.90187500001048,
      "v": 62
    },
    {
      "midi": 70,
      "hit": false,
      "t": 151180.48000000126,
      "d": 272.9051041666535,
      "v": 51
    },
    {
      "midi": 74,
      "hit": false,
      "t": 151180.48000000126,
      "d": 447.38541666665697,
      "v": 71
    },
    {
      "midi": 77,
      "hit": false,
      "t": 151180.48000000126,
      "d": 478.70239583333023,
      "v": 57
    },
    {
      "midi": 46,
      "hit": false,
      "t": 151180.48000000126,
      "d": 2518.779895833315,
      "v": 45
    },
    {
      "midi": 70,
      "hit": false,
      "t": 151609.97000000125,
      "d": 125.26791666666395,
      "v": 19
    },
    {
      "midi": 69,
      "hit": false,
      "t": 151824.71500000125,
      "d": 232.64041666666162,
      "v": 64
    },
    {
      "midi": 72,
      "hit": false,
      "t": 151824.71500000125,
      "d": 277.37895833334187,
      "v": 80
    },
    {
      "midi": 77,
      "hit": false,
      "t": 151824.71500000125,
      "d": 308.69593750001513,
      "v": 66
    },
    {
      "midi": 74,
      "hit": false,
      "t": 152254.20500000127,
      "d": 304.22208333332674,
      "v": 75
    },
    {
      "midi": 77,
      "hit": false,
      "t": 152254.20500000127,
      "d": 313.1697916666744,
      "v": 66
    },
    {
      "midi": 70,
      "hit": false,
      "t": 152254.20500000127,
      "d": 335.5390625,
      "v": 62
    },
    {
      "midi": 65,
      "hit": false,
      "t": 152898.44000000125,
      "d": 854.5061458333221,
      "v": 72
    },
    {
      "midi": 70,
      "hit": false,
      "t": 152898.44000000125,
      "d": 863.4538541666698,
      "v": 83
    },
    {
      "midi": 67,
      "hit": false,
      "t": 154616.40000000125,
      "d": 630.8134375000081,
      "v": 66
    },
    {
      "midi": 62,
      "hit": false,
      "t": 154616.40000000125,
      "d": 639.7611458333558,
      "v": 78
    },
    {
      "midi": 58,
      "hit": false,
      "t": 154616.40000000125,
      "d": 657.6565625000221,
      "v": 60
    },
    {
      "midi": 62,
      "hit": false,
      "t": 155475.38000000126,
      "d": 272.9051041666535,
      "v": 69
    },
    {
      "midi": 67,
      "hit": false,
      "t": 155475.38000000126,
      "d": 277.37895833331277,
      "v": 65
    },
    {
      "midi": 58,
      "hit": false,
      "t": 155475.38000000126,
      "d": 290.80052083331975,
      "v": 42
    },
    {
      "midi": 62,
      "hit": false,
      "t": 156334.36000000124,
      "d": 219.21885416665464,
      "v": 70
    },
    {
      "midi": 67,
      "hit": false,
      "t": 156334.36000000124,
      "d": 250.5358333333279,
      "v": 60
    },
    {
      "midi": 58,
      "hit": false,
      "t": 156334.36000000124,
      "d": 259.4835416666756,
      "v": 42
    },
    {
      "midi": 58,
      "hit": false,
      "t": 157193.34000000125,
      "d": 161.0587499999965,
      "v": 53
    },
    {
      "midi": 62,
      "hit": false,
      "t": 157193.34000000125,
      "d": 183.42802083332208,
      "v": 91
    },
    {
      "midi": 67,
      "hit": false,
      "t": 157193.34000000125,
      "d": 196.84958333332906,
      "v": 66
    },
    {
      "midi": 67,
      "hit": false,
      "t": 158052.32000000123,
      "d": 657.656562499993,
      "v": 58
    },
    {
      "midi": 60,
      "hit": false,
      "t": 158052.32000000123,
      "d": 662.1304166666523,
      "v": 66
    },
    {
      "midi": 64,
      "hit": false,
      "t": 158052.32000000123,
      "d": 671.078125,
      "v": 61
    },
    {
      "midi": 64,
      "hit": false,
      "t": 158911.30000000124,
      "d": 272.9051041666535,
      "v": 55
    },
    {
      "midi": 60,
      "hit": false,
      "t": 158911.30000000124,
      "d": 277.37895833331277,
      "v": 54
    },
    {
      "midi": 67,
      "hit": false,
      "t": 158911.30000000124,
      "d": 281.85281249997206,
      "v": 54
    },
    {
      "midi": 60,
      "hit": false,
      "t": 159770.28000000122,
      "d": 165.5326041666558,
      "v": 60
    },
    {
      "midi": 64,
      "hit": false,
      "t": 159770.28000000122,
      "d": 170.0064583333151,
      "v": 62
    },
    {
      "midi": 67,
      "hit": false,
      "t": 159770.28000000122,
      "d": 196.84958333332906,
      "v": 59
    },
    {
      "midi": 60,
      "hit": false,
      "t": 160629.2600000012,
      "d": 147.63718749998952,
      "v": 62
    },
    {
      "midi": 64,
      "hit": false,
      "t": 160629.2600000012,
      "d": 147.63718749998952,
      "v": 66
    },
    {
      "midi": 67,
      "hit": false,
      "t": 160629.2600000012,
      "d": 165.5326041666558,
      "v": 58
    },
    {
      "midi": 60,
      "hit": false,
      "t": 161488.2400000012,
      "d": 765.0290624999907,
      "v": 62
    },
    {
      "midi": 69,
      "hit": false,
      "t": 161488.2400000012,
      "d": 765.0290624999907,
      "v": 66
    },
    {
      "midi": 65,
      "hit": false,
      "t": 161488.2400000012,
      "d": 769.50291666665,
      "v": 70
    },
    {
      "midi": 69,
      "hit": false,
      "t": 162347.2200000012,
      "d": 460.80697916666395,
      "v": 58
    },
    {
      "midi": 60,
      "hit": false,
      "t": 162347.2200000012,
      "d": 483.1762499999895,
      "v": 58
    },
    {
      "midi": 65,
      "hit": false,
      "t": 162347.2200000012,
      "d": 487.6501041666488,
      "v": 62
    },
    {
      "midi": 60,
      "hit": false,
      "t": 163206.20000000118,
      "d": 295.27437500000815,
      "v": 57
    },
    {
      "midi": 69,
      "hit": false,
      "t": 163206.20000000118,
      "d": 308.69593750001513,
      "v": 60
    },
    {
      "midi": 65,
      "hit": false,
      "t": 163206.20000000118,
      "d": 326.5913541666814,
      "v": 65
    },
    {
      "midi": 60,
      "hit": false,
      "t": 164065.18000000122,
      "d": 433.96385416665,
      "v": 64
    },
    {
      "midi": 67,
      "hit": false,
      "t": 164065.18000000122,
      "d": 442.9115624999977,
      "v": 62
    },
    {
      "midi": 63,
      "hit": false,
      "t": 164065.18000000122,
      "d": 447.38541666665697,
      "v": 56
    },
    {
      "midi": 65,
      "hit": false,
      "t": 164924.1600000012,
      "d": 536.8625000000175,
      "v": 73
    },
    {
      "midi": 62,
      "hit": false,
      "t": 164924.1600000012,
      "d": 541.3363541666768,
      "v": 76
    },
    {
      "midi": 58,
      "hit": false,
      "t": 164924.1600000012,
      "d": 568.1794791666907,
      "v": 49
    },
    {
      "midi": 62,
      "hit": false,
      "t": 165783.1400000012,
      "d": 205.79729166667676,
      "v": 68
    },
    {
      "midi": 65,
      "hit": false,
      "t": 165783.1400000012,
      "d": 228.16656250000233,
      "v": 62
    },
    {
      "midi": 58,
      "hit": false,
      "t": 165783.1400000012,
      "d": 241.5881250000093,
      "v": 49
    },
    {
      "midi": 65,
      "hit": false,
      "t": 166642.12000000122,
      "d": 143.16333333333023,
      "v": 66
    },
    {
      "midi": 62,
      "hit": false,
      "t": 166642.12000000122,
      "d": 152.11104166667792,
      "v": 73
    },
    {
      "midi": 58,
      "hit": false,
      "t": 166642.12000000122,
      "d": 161.0587500000256,
      "v": 50
    },
    {
      "midi": 60,
      "hit": false,
      "t": 167501.10000000123,
      "d": 420.5422916666721,
      "v": 68
    },
    {
      "midi": 57,
      "hit": false,
      "t": 167501.10000000123,
      "d": 425.0161458333314,
      "v": 62
    },
    {
      "midi": 65,
      "hit": false,
      "t": 167501.10000000123,
      "d": 425.0161458333314,
      "v": 63
    },
    {
      "midi": 62,
      "hit": false,
      "t": 168360.08000000124,
      "d": 559.231770833343,
      "v": 72
    },
    {
      "midi": 67,
      "hit": false,
      "t": 168360.08000000124,
      "d": 581.6010416666686,
      "v": 66
    },
    {
      "midi": 58,
      "hit": false,
      "t": 168360.08000000124,
      "d": 595.0226041666756,
      "v": 49
    },
    {
      "midi": 62,
      "hit": false,
      "t": 169219.06000000125,
      "d": 250.5358333333279,
      "v": 69
    },
    {
      "midi": 67,
      "hit": false,
      "t": 169219.06000000125,
      "d": 250.5358333333279,
      "v": 59
    },
    {
      "midi": 58,
      "hit": false,
      "t": 169219.06000000125,
      "d": 255.0096874999872,
      "v": 46
    },
    {
      "midi": 62,
      "hit": false,
      "t": 170078.04000000123,
      "d": 187.90187500001048,
      "v": 66
    },
    {
      "midi": 58,
      "hit": false,
      "t": 170078.04000000123,
      "d": 201.32343750001746,
      "v": 44
    },
    {
      "midi": 67,
      "hit": false,
      "t": 170078.04000000123,
      "d": 214.74500000002445,
      "v": 60
    },
    {
      "midi": 58,
      "hit": false,
      "t": 170937.02000000124,
      "d": 129.74177083332324,
      "v": 51
    },
    {
      "midi": 62,
      "hit": false,
      "t": 170937.02000000124,
      "d": 129.74177083332324,
      "v": 74
    },
    {
      "midi": 67,
      "hit": false,
      "t": 170937.02000000124,
      "d": 156.5848958333372,
      "v": 65
    },
    {
      "midi": 64,
      "hit": false,
      "t": 171796.00000000125,
      "d": 536.8624999999884,
      "v": 71
    },
    {
      "midi": 67,
      "hit": false,
      "t": 171796.00000000125,
      "d": 536.8624999999884,
      "v": 62
    },
    {
      "midi": 60,
      "hit": false,
      "t": 171796.00000000125,
      "d": 541.3363541666477,
      "v": 68
    },
    {
      "midi": 64,
      "hit": false,
      "t": 172654.98000000123,
      "d": 250.5358333333279,
      "v": 65
    },
    {
      "midi": 60,
      "hit": false,
      "t": 172654.98000000123,
      "d": 255.0096874999872,
      "v": 66
    },
    {
      "midi": 67,
      "hit": false,
      "t": 172654.98000000123,
      "d": 263.9573958333349,
      "v": 62
    },
    {
      "midi": 64,
      "hit": false,
      "t": 173513.96000000124,
      "d": 187.90187500001048,
      "v": 62
    },
    {
      "midi": 60,
      "hit": false,
      "t": 173513.96000000124,
      "d": 201.32343750001746,
      "v": 62
    },
    {
      "midi": 67,
      "hit": false,
      "t": 173513.96000000124,
      "d": 210.27114583336515,
      "v": 62
    },
    {
      "midi": 60,
      "hit": false,
      "t": 174372.94000000128,
      "d": 107.37249999999767,
      "v": 58
    },
    {
      "midi": 67,
      "hit": false,
      "t": 174372.94000000128,
      "d": 116.32020833334536,
      "v": 62
    },
    {
      "midi": 64,
      "hit": false,
      "t": 174372.94000000128,
      "d": 120.79406250000466,
      "v": 60
    },
    {
      "midi": 60,
      "hit": false,
      "t": 175231.92000000126,
      "d": 501.0716666666558,
      "v": 71
    },
    {
      "midi": 65,
      "hit": false,
      "t": 175231.92000000126,
      "d": 505.5455208333151,
      "v": 62
    },
    {
      "midi": 57,
      "hit": false,
      "t": 175231.92000000126,
      "d": 510.0193749999744,
      "v": 62
    },
    {
      "midi": 65,
      "hit": false,
      "t": 176090.90000000125,
      "d": 250.5358333333279,
      "v": 62
    },
    {
      "midi": 57,
      "hit": false,
      "t": 176090.90000000125,
      "d": 277.37895833334187,
      "v": 57
    },
    {
      "midi": 60,
      "hit": false,
      "t": 176090.90000000125,
      "d": 277.37895833334187,
      "v": 66
    },
    {
      "midi": 57,
      "hit": false,
      "t": 176949.88000000126,
      "d": 143.16333333333023,
      "v": 58
    },
    {
      "midi": 60,
      "hit": false,
      "t": 176949.88000000126,
      "d": 147.63718749998952,
      "v": 67
    },
    {
      "midi": 65,
      "hit": false,
      "t": 176949.88000000126,
      "d": 156.5848958333372,
      "v": 58
    },
    {
      "midi": 60,
      "hit": false,
      "t": 177808.86000000127,
      "d": 331.0652083333116,
      "v": 72
    },
    {
      "midi": 65,
      "hit": false,
      "t": 177808.86000000127,
      "d": 335.5390624999709,
      "v": 66
    },
    {
      "midi": 57,
      "hit": false,
      "t": 177808.86000000127,
      "d": 348.9606249999779,
      "v": 66
    },
    {
      "midi": 63,
      "hit": false,
      "t": 177808.86000000127,
      "d": 348.9606249999779,
      "v": 56
    },
    {
      "midi": 62,
      "hit": false,
      "t": 178667.84000000125,
      "d": 416.0684374999837,
      "v": 75
    },
    {
      "midi": 65,
      "hit": false,
      "t": 178667.84000000125,
      "d": 420.542291666643,
      "v": 69
    },
    {
      "midi": 58,
      "hit": false,
      "t": 178667.84000000125,
      "d": 447.38541666665697,
      "v": 46
    },
    {
      "midi": 65,
      "hit": false,
      "t": 179526.82000000123,
      "d": 232.64041666666162,
      "v": 70
    },
    {
      "midi": 62,
      "hit": false,
      "t": 179526.82000000123,
      "d": 241.5881250000093,
      "v": 76
    },
    {
      "midi": 58,
      "hit": false,
      "t": 179526.82000000123,
      "d": 272.9051041666826,
      "v": 49
    },
    {
      "midi": 65,
      "hit": false,
      "t": 180385.80000000124,
      "d": 161.0587499999965,
      "v": 70
    },
    {
      "midi": 58,
      "hit": false,
      "t": 180385.80000000124,
      "d": 165.5326041666558,
      "v": 46
    },
    {
      "midi": 62,
      "hit": false,
      "t": 180385.80000000124,
      "d": 165.5326041666558,
      "v": 70
    },
    {
      "midi": 60,
      "hit": false,
      "t": 181244.78000000125,
      "d": 196.84958333332906,
      "v": 80
    },
    {
      "midi": 57,
      "hit": false,
      "t": 181244.78000000125,
      "d": 205.79729166667676,
      "v": 71
    },
    {
      "midi": 64,
      "hit": false,
      "t": 181244.78000000125,
      "d": 205.79729166667676,
      "v": 74
    },
    {
      "midi": 60,
      "hit": false,
      "t": 181674.27000000127,
      "d": 259.4835416666756,
      "v": 80
    },
    {
      "midi": 57,
      "hit": false,
      "t": 181674.27000000127,
      "d": 263.9573958333349,
      "v": 71
    },
    {
      "midi": 64,
      "hit": false,
      "t": 181674.27000000127,
      "d": 286.32666666666046,
      "v": 74
    },
    {
      "midi": 57,
      "hit": false,
      "t": 182103.76000000126,
      "d": 778.4506249999977,
      "v": 65
    },
    {
      "midi": 62,
      "hit": false,
      "t": 182103.76000000126,
      "d": 935.0355208333349,
      "v": 92
    },
    {
      "midi": 65,
      "hit": false,
      "t": 182103.76000000126,
      "d": 1122.9373958333454,
      "v": 72
    },
    {
      "midi": 57,
      "hit": false,
      "t": 182962.74000000127,
      "d": 635.2872916666674,
      "v": 27
    },
    {
      "midi": 62,
      "hit": false,
      "t": 183177.48500000127,
      "d": 384.75145833333954,
      "v": 69
    },
    {
      "midi": 65,
      "hit": false,
      "t": 183392.23000000126,
      "d": 161.0587499999965,
      "v": 72
    },
    {
      "midi": 55,
      "hit": false,
      "t": 183821.72000000128,
      "d": 639.7611458333267,
      "v": 69
    },
    {
      "midi": 60,
      "hit": false,
      "t": 183821.72000000128,
      "d": 885.8231249999953,
      "v": 78
    },
    {
      "midi": 64,
      "hit": false,
      "t": 183821.72000000128,
      "d": 1087.1465625000128,
      "v": 73
    },
    {
      "midi": 55,
      "hit": false,
      "t": 184680.70000000126,
      "d": 554.7579166666837,
      "v": 52
    },
    {
      "midi": 60,
      "hit": false,
      "t": 184895.4450000013,
      "d": 331.0652083333407,
      "v": 66
    },
    {
      "midi": 64,
      "hit": false,
      "t": 185110.19000000128,
      "d": 120.79406250000466,
      "v": 67
    },
    {
      "midi": 53,
      "hit": false,
      "t": 185539.68000000127,
      "d": 1087.1465625000128,
      "v": 55
    },
    {
      "midi": 58,
      "hit": false,
      "t": 185539.68000000127,
      "d": 1328.734687499993,
      "v": 59
    },
    {
      "midi": 62,
      "hit": false,
      "t": 185539.68000000127,
      "d": 1525.584270833322,
      "v": 71
    },
    {
      "midi": 53,
      "hit": false,
      "t": 186828.15000000127,
      "d": 943.9832291666535,
      "v": 51
    },
    {
      "midi": 58,
      "hit": false,
      "t": 187042.89500000127,
      "d": 756.0813541666721,
      "v": 52
    },
    {
      "midi": 62,
      "hit": false,
      "t": 187472.38500000126,
      "d": 295.27437500000815,
      "v": 55
    },
    {
      "midi": 69,
      "hit": false,
      "t": 188935.33531250127,
      "d": 308.69593749998603,
      "v": 66
    },
    {
      "midi": 74,
      "hit": false,
      "t": 188939.80916666792,
      "d": 595.0226041666465,
      "v": 66
    },
    {
      "midi": 77,
      "hit": false,
      "t": 188944.28302083458,
      "d": 590.5487499999872,
      "v": 66
    },
    {
      "midi": 62,
      "hit": false,
      "t": 188944.28302083458,
      "d": 1717.960000000021,
      "v": 66
    },
    {
      "midi": 69,
      "hit": false,
      "t": 189373.77302083457,
      "d": 174.4803125000035,
      "v": 66
    },
    {
      "midi": 69,
      "hit": false,
      "t": 189592.99187500126,
      "d": 353.4344791666663,
      "v": 66
    },
    {
      "midi": 76,
      "hit": false,
      "t": 189597.46572916792,
      "d": 451.85927083334536,
      "v": 66
    },
    {
      "midi": 79,
      "hit": false,
      "t": 189601.93958333458,
      "d": 447.38541666668607,
      "v": 66
    },
    {
      "midi": 69,
      "hit": false,
      "t": 190049.32500000126,
      "d": 545.810208333336,
      "v": 66
    },
    {
      "midi": 77,
      "hit": false,
      "t": 190058.2727083346,
      "d": 523.4409374999814,
      "v": 66
    },
    {
      "midi": 74,
      "hit": false,
      "t": 190062.74656250127,
      "d": 527.9147916666698,
      "v": 66
    },
    {
      "midi": 76,
      "hit": false,
      "t": 190680.13843750127,
      "d": 603.9703125000233,
      "v": 64
    },
    {
      "midi": 72,
      "hit": false,
      "t": 190684.61229166793,
      "d": 134.21562500001164,
      "v": 64
    },
    {
      "midi": 67,
      "hit": false,
      "t": 190684.61229166793,
      "d": 599.496458333364,
      "v": 64
    },
    {
      "midi": 60,
      "hit": false,
      "t": 190684.61229166793,
      "d": 1664.2737500000512,
      "v": 64
    },
    {
      "midi": 72,
      "hit": false,
      "t": 190903.8311458346,
      "d": 398.1730208333465,
      "v": 84
    },
    {
      "midi": 67,
      "hit": false,
      "t": 191333.32114583463,
      "d": 344.4867708333477,
      "v": 65
    },
    {
      "midi": 74,
      "hit": false,
      "t": 191342.26885416798,
      "d": 353.4344791666663,
      "v": 65
    },
    {
      "midi": 77,
      "hit": false,
      "t": 191346.74270833464,
      "d": 335.5390625,
      "v": 65
    },
    {
      "midi": 67,
      "hit": false,
      "t": 191767.2850000013,
      "d": 492.1239583333372,
      "v": 65
    },
    {
      "midi": 72,
      "hit": false,
      "t": 191771.75885416797,
      "d": 483.1762500000186,
      "v": 65
    },
    {
      "midi": 76,
      "hit": false,
      "t": 191776.23270833463,
      "d": 469.75468750001164,
      "v": 65
    },
    {
      "midi": 58,
      "hit": false,
      "t": 192411.52000000133,
      "d": 58.16010416665813,
      "v": 75
    },
    {
      "midi": 65,
      "hit": false,
      "t": 192411.52000000133,
      "d": 429.4899999999907,
      "v": 75
    },
    {
      "midi": 74,
      "hit": false,
      "t": 192411.52000000133,
      "d": 438.4377083333384,
      "v": 75
    },
    {
      "midi": 70,
      "hit": false,
      "t": 192411.52000000133,
      "d": 451.85927083334536,
      "v": 75
    },
    {
      "midi": 58,
      "hit": false,
      "t": 192626.26500000132,
      "d": 2899.0575000000827,
      "v": 75
    },
    {
      "midi": 60,
      "hit": false,
      "t": 192841.01000000132,
      "d": 438.4377083333675,
      "v": 75
    },
    {
      "midi": 62,
      "hit": false,
      "t": 193055.75500000134,
      "d": 2456.145937500056,
      "v": 74
    },
    {
      "midi": 65,
      "hit": false,
      "t": 193270.50000000134,
      "d": 778.4506250000268,
      "v": 74
    },
    {
      "midi": 70,
      "hit": false,
      "t": 193485.24500000136,
      "d": 362.38218749998487,
      "v": 74
    },
    {
      "midi": 72,
      "hit": false,
      "t": 193699.99000000136,
      "d": 246.0619791666686,
      "v": 73
    },
    {
      "midi": 74,
      "hit": false,
      "t": 193914.73500000135,
      "d": 143.16333333335933,
      "v": 73
    },
    {
      "midi": 72,
      "hit": false,
      "t": 194129.48000000138,
      "d": 1342.15625,
      "v": 73
    },
    {
      "midi": 65,
      "hit": false,
      "t": 194129.48000000138,
      "d": 1355.577812500007,
      "v": 73
    },
    {
      "midi": 60,
      "hit": false,
      "t": 195847.4400000014,
      "d": 505.5455208333151,
      "v": 63
    },
    {
      "midi": 65,
      "hit": false,
      "t": 195847.4400000014,
      "d": 510.0193749999744,
      "v": 54
    },
    {
      "midi": 57,
      "hit": false,
      "t": 195847.4400000014,
      "d": 518.9670833333221,
      "v": 55
    },
    {
      "midi": 41,
      "hit": false,
      "t": 195847.4400000014,
      "d": 1530.0581249999814,
      "v": 51
    },
    {
      "midi": 53,
      "hit": false,
      "t": 196276.9300000014,
      "d": 818.7153124999895,
      "v": 28
    },
    {
      "midi": 57,
      "hit": false,
      "t": 196706.42000000138,
      "d": 331.0652083333407,
      "v": 61
    },
    {
      "midi": 65,
      "hit": false,
      "t": 196706.42000000138,
      "d": 675.5519791666593,
      "v": 66
    },
    {
      "midi": 60,
      "hit": false,
      "t": 196706.42000000138,
      "d": 688.9735416666663,
      "v": 72
    },
    {
      "midi": 57,
      "hit": false,
      "t": 197135.91000000137,
      "d": 281.85281250000116,
      "v": 53
    },
    {
      "midi": 53,
      "hit": false,
      "t": 197350.65500000137,
      "d": 250.5358333333279,
      "v": 56
    },
    {
      "midi": 60,
      "hit": false,
      "t": 197565.40000000136,
      "d": 559.231770833343,
      "v": 57
    },
    {
      "midi": 57,
      "hit": false,
      "t": 197565.40000000136,
      "d": 572.65333333335,
      "v": 61
    },
    {
      "midi": 65,
      "hit": false,
      "t": 197565.40000000136,
      "d": 581.6010416666977,
      "v": 59
    },
    {
      "midi": 41,
      "hit": false,
      "t": 197565.40000000136,
      "d": 1574.796666666749,
      "v": 55
    },
    {
      "midi": 53,
      "hit": false,
      "t": 197994.89000000138,
      "d": 675.5519791666884,
      "v": 42
    },
    {
      "midi": 57,
      "hit": false,
      "t": 198424.3800000014,
      "d": 290.80052083334886,
      "v": 75
    },
    {
      "midi": 60,
      "hit": false,
      "t": 198424.3800000014,
      "d": 550.2840625000244,
      "v": 75
    },
    {
      "midi": 65,
      "hit": false,
      "t": 198424.3800000014,
      "d": 568.1794791666907,
      "v": 72
    },
    {
      "midi": 57,
      "hit": false,
      "t": 198853.87000000142,
      "d": 205.79729166667676,
      "v": 75
    },
    {
      "midi": 53,
      "hit": false,
      "t": 199068.61500000145,
      "d": 125.26791666666395,
      "v": 66
    },
    {
      "midi": 57,
      "hit": false,
      "t": 199283.36000000144,
      "d": 107.37249999999767,
      "v": 86
    },
    {
      "midi": 65,
      "hit": false,
      "t": 199283.36000000144,
      "d": 161.0587499999965,
      "v": 72
    },
    {
      "midi": 60,
      "hit": false,
      "t": 199283.36000000144,
      "d": 201.32343749998836,
      "v": 86
    },
    {
      "midi": 46,
      "hit": false,
      "t": 199283.36000000144,
      "d": 1342.15625,
      "v": 56
    },
    {
      "midi": 62,
      "hit": false,
      "t": 199498.10500000144,
      "d": 407.1207291666651,
      "v": 71
    },
    {
      "midi": 65,
      "hit": false,
      "t": 199498.10500000144,
      "d": 505.5455208333442,
      "v": 52
    },
    {
      "midi": 58,
      "hit": false,
      "t": 199498.10500000144,
      "d": 514.4932291666919,
      "v": 51
    },
    {
      "midi": 58,
      "hit": false,
      "t": 200142.34000000145,
      "d": 317.6436458333337,
      "v": 56
    },
    {
      "midi": 62,
      "hit": false,
      "t": 200142.34000000145,
      "d": 483.1762499999895,
      "v": 82
    },
    {
      "midi": 65,
      "hit": false,
      "t": 200142.34000000145,
      "d": 626.3395833333198,
      "v": 68
    },
    {
      "midi": 58,
      "hit": false,
      "t": 200571.83000000144,
      "d": 241.5881250000093,
      "v": 31
    },
    {
      "midi": 46,
      "hit": false,
      "t": 200786.57500000144,
      "d": 107.37250000002678,
      "v": 34
    },
    {
      "midi": 62,
      "hit": false,
      "t": 201001.32000000146,
      "d": 460.80697916666395,
      "v": 73
    },
    {
      "midi": 65,
      "hit": false,
      "t": 201001.32000000146,
      "d": 523.4409375000105,
      "v": 60
    },
    {
      "midi": 58,
      "hit": false,
      "t": 201001.32000000146,
      "d": 586.074895833357,
      "v": 50
    },
    {
      "midi": 46,
      "hit": false,
      "t": 201001.32000000146,
      "d": 970.8263541666674,
      "v": 46
    },
    {
      "midi": 58,
      "hit": false,
      "t": 201860.30000000147,
      "d": 313.1697916666453,
      "v": 50
    },
    {
      "midi": 65,
      "hit": false,
      "t": 201860.30000000147,
      "d": 586.0748958333279,
      "v": 72
    },
    {
      "midi": 62,
      "hit": false,
      "t": 201860.30000000147,
      "d": 648.7088541666453,
      "v": 74
    },
    {
      "midi": 58,
      "hit": false,
      "t": 202289.79000000146,
      "d": 192.37572916666977,
      "v": 49
    },
    {
      "midi": 46,
      "hit": false,
      "t": 202504.53500000146,
      "d": 170.0064583333151,
      "v": 51
    },
    {
      "midi": 60,
      "hit": false,
      "t": 202719.28000000145,
      "d": 599.4964583333349,
      "v": 70
    },
    {
      "midi": 65,
      "hit": false,
      "t": 202719.28000000145,
      "d": 599.4964583333349,
      "v": 62
    },
    {
      "midi": 57,
      "hit": false,
      "t": 202719.28000000145,
      "d": 603.9703124999942,
      "v": 65
    },
    {
      "midi": 41,
      "hit": false,
      "t": 202719.28000000145,
      "d": 1574.7966666666616,
      "v": 61
    },
    {
      "midi": 53,
      "hit": false,
      "t": 203148.77000000144,
      "d": 876.8754166666477,
      "v": 18
    },
    {
      "midi": 57,
      "hit": false,
      "t": 203578.26000000144,
      "d": 335.5390625,
      "v": 62
    },
    {
      "midi": 65,
      "hit": false,
      "t": 203578.26000000144,
      "d": 688.9735416666663,
      "v": 66
    },
    {
      "midi": 60,
      "hit": false,
      "t": 203578.26000000144,
      "d": 756.0813541666721,
      "v": 74
    },
    {
      "midi": 57,
      "hit": false,
      "t": 204007.75000000143,
      "d": 290.80052083334886,
      "v": 55
    },
    {
      "midi": 53,
      "hit": false,
      "t": 204222.49500000142,
      "d": 496.5978125000256,
      "v": 48
    },
    {
      "midi": 57,
      "hit": false,
      "t": 204437.24000000145,
      "d": 295.27437500000815,
      "v": 39
    },
    {
      "midi": 65,
      "hit": false,
      "t": 204437.24000000145,
      "d": 724.7643750000279,
      "v": 70
    },
    {
      "midi": 41,
      "hit": false,
      "t": 204437.24000000145,
      "d": 1668.7476041667105,
      "v": 53
    },
    {
      "midi": 60,
      "hit": false,
      "t": 204651.98500000144,
      "d": 460.80697916669305,
      "v": 60
    },
    {
      "midi": 57,
      "hit": false,
      "t": 204866.73000000147,
      "d": 290.80052083334886,
      "v": 52
    },
    {
      "midi": 53,
      "hit": false,
      "t": 205081.47500000146,
      "d": 541.3363541667059,
      "v": 52
    },
    {
      "midi": 57,
      "hit": false,
      "t": 205296.2200000015,
      "d": 259.4835416666756,
      "v": 66
    },
    {
      "midi": 65,
      "hit": false,
      "t": 205296.2200000015,
      "d": 684.499687500007,
      "v": 71
    },
    {
      "midi": 60,
      "hit": false,
      "t": 205296.2200000015,
      "d": 706.8689583333326,
      "v": 76
    },
    {
      "midi": 57,
      "hit": false,
      "t": 205725.7100000015,
      "d": 259.4835416666465,
      "v": 64
    },
    {
      "midi": 53,
      "hit": false,
      "t": 205940.4550000015,
      "d": 129.74177083332324,
      "v": 62
    },
    {
      "midi": 60,
      "hit": false,
      "t": 206155.2000000015,
      "d": 577.1271875000093,
      "v": 63
    },
    {
      "midi": 64,
      "hit": false,
      "t": 206155.2000000015,
      "d": 608.4441666666826,
      "v": 57
    },
    {
      "midi": 55,
      "hit": false,
      "t": 206155.2000000015,
      "d": 666.6042708333407,
      "v": 57
    },
    {
      "midi": 48,
      "hit": false,
      "t": 206155.2000000015,
      "d": 1337.6823958333407,
      "v": 65
    },
    {
      "midi": 55,
      "hit": false,
      "t": 207014.1800000015,
      "d": 357.9083333333256,
      "v": 58
    },
    {
      "midi": 60,
      "hit": false,
      "t": 207014.1800000015,
      "d": 778.4506249999977,
      "v": 68
    },
    {
      "midi": 64,
      "hit": false,
      "t": 207014.1800000015,
      "d": 778.4506249999977,
      "v": 66
    },
    {
      "midi": 55,
      "hit": false,
      "t": 207443.6700000015,
      "d": 313.1697916666744,
      "v": 48
    },
    {
      "midi": 48,
      "hit": false,
      "t": 207658.4150000015,
      "d": 138.68947916667094,
      "v": 51
    },
    {
      "midi": 55,
      "hit": false,
      "t": 207873.1600000015,
      "d": 371.32989583333256,
      "v": 48
    },
    {
      "midi": 64,
      "hit": false,
      "t": 207873.1600000015,
      "d": 626.3395833333198,
      "v": 54
    },
    {
      "midi": 60,
      "hit": false,
      "t": 207873.1600000015,
      "d": 635.2872916666674,
      "v": 57
    },
    {
      "midi": 48,
      "hit": false,
      "t": 207873.1600000015,
      "d": 1216.888333333336,
      "v": 53
    },
    {
      "midi": 55,
      "hit": false,
      "t": 208302.65000000148,
      "d": 219.21885416668374,
      "v": 41
    },
    {
      "midi": 60,
      "hit": false,
      "t": 208732.1400000015,
      "d": 644.234999999986,
      "v": 71
    },
    {
      "midi": 64,
      "hit": false,
      "t": 208732.1400000015,
      "d": 702.3951041666442,
      "v": 65
    },
    {
      "midi": 55,
      "hit": false,
      "t": 209161.6300000015,
      "d": 174.4803125000035,
      "v": 60
    },
    {
      "midi": 48,
      "hit": false,
      "t": 209376.37500000148,
      "d": 196.84958333332906,
      "v": 55
    },
    {
      "midi": 57,
      "hit": false,
      "t": 209591.12000000148,
      "d": 586.0748958333279,
      "v": 59
    },
    {
      "midi": 60,
      "hit": false,
      "t": 209591.12000000148,
      "d": 599.4964583333349,
      "v": 66
    },
    {
      "midi": 65,
      "hit": false,
      "t": 209591.12000000148,
      "d": 617.3918750000012,
      "v": 68
    },
    {
      "midi": 41,
      "hit": false,
      "t": 209591.12000000148,
      "d": 1467.424166666664,
      "v": 58
    },
    {
      "midi": 53,
      "hit": false,
      "t": 210020.61000000147,
      "d": 845.5584375000035,
      "v": 25
    },
    {
      "midi": 57,
      "hit": false,
      "t": 210450.1000000015,
      "d": 326.5913541666523,
      "v": 65
    },
    {
      "midi": 65,
      "hit": false,
      "t": 210450.1000000015,
      "d": 639.7611458333267,
      "v": 65
    },
    {
      "midi": 60,
      "hit": false,
      "t": 210450.1000000015,
      "d": 680.0258333333477,
      "v": 68
    },
    {
      "midi": 57,
      "hit": false,
      "t": 210879.59000000148,
      "d": 241.5881250000093,
      "v": 59
    },
    {
      "midi": 53,
      "hit": false,
      "t": 211094.33500000148,
      "d": 223.69270833337214,
      "v": 54
    },
    {
      "midi": 60,
      "hit": false,
      "t": 211309.0800000015,
      "d": 541.3363541666768,
      "v": 54
    },
    {
      "midi": 57,
      "hit": false,
      "t": 211309.0800000015,
      "d": 545.810208333336,
      "v": 51
    },
    {
      "midi": 65,
      "hit": false,
      "t": 211309.0800000015,
      "d": 559.231770833343,
      "v": 60
    },
    {
      "midi": 41,
      "hit": false,
      "t": 211309.0800000015,
      "d": 1570.3228125000314,
      "v": 57
    },
    {
      "midi": 53,
      "hit": false,
      "t": 211738.57000000152,
      "d": 469.75468749998254,
      "v": 48
    },
    {
      "midi": 57,
      "hit": false,
      "t": 212168.0600000015,
      "d": 299.74822916666744,
      "v": 71
    },
    {
      "midi": 65,
      "hit": false,
      "t": 212168.0600000015,
      "d": 626.3395833333489,
      "v": 67
    },
    {
      "midi": 60,
      "hit": false,
      "t": 212168.0600000015,
      "d": 630.8134375000081,
      "v": 73
    },
    {
      "midi": 57,
      "hit": false,
      "t": 212597.5500000015,
      "d": 134.21562500001164,
      "v": 51
    },
    {
      "midi": 53,
      "hit": false,
      "t": 212812.29500000153,
      "d": 125.26791666666395,
      "v": 54
    },
    {
      "midi": 62,
      "hit": false,
      "t": 213027.04000000152,
      "d": 469.75468750001164,
      "v": 73
    },
    {
      "midi": 65,
      "hit": false,
      "t": 213027.04000000152,
      "d": 577.1271875000093,
      "v": 70
    },
    {
      "midi": 58,
      "hit": false,
      "t": 213027.04000000152,
      "d": 621.8657291666896,
      "v": 58
    },
    {
      "midi": 46,
      "hit": false,
      "t": 213027.04000000152,
      "d": 845.5584375000326,
      "v": 68
    },
    {
      "midi": 58,
      "hit": false,
      "t": 213886.02000000156,
      "d": 366.85604166667326,
      "v": 37
    },
    {
      "midi": 62,
      "hit": false,
      "t": 213886.02000000156,
      "d": 460.80697916669305,
      "v": 61
    },
    {
      "midi": 65,
      "hit": false,
      "t": 213886.02000000156,
      "d": 532.3886458333582,
      "v": 57
    },
    {
      "midi": 46,
      "hit": false,
      "t": 214315.51000000158,
      "d": 487.6501041666488,
      "v": 25
    },
    {
      "midi": 62,
      "hit": false,
      "t": 214745.00000000157,
      "d": 393.69916666665813,
      "v": 66
    },
    {
      "midi": 58,
      "hit": false,
      "t": 214745.00000000157,
      "d": 411.5945833333244,
      "v": 43
    },
    {
      "midi": 65,
      "hit": false,
      "t": 214745.00000000157,
      "d": 447.38541666665697,
      "v": 58
    },
    {
      "midi": 46,
      "hit": false,
      "t": 215174.49000000156,
      "d": 398.1730208333465,
      "v": 28
    },
    {
      "midi": 58,
      "hit": false,
      "t": 215603.98000000158,
      "d": 71.58166666666511,
      "v": 49
    },
    {
      "midi": 62,
      "hit": false,
      "t": 215603.98000000158,
      "d": 76.05552083332441,
      "v": 62
    },
    {
      "midi": 65,
      "hit": false,
      "t": 215603.98000000158,
      "d": 120.79406250000466,
      "v": 55
    },
    {
      "midi": 46,
      "hit": false,
      "t": 216033.47000000157,
      "d": 411.5945833333244,
      "v": 20
    },
    {
      "midi": 62,
      "hit": false,
      "t": 223334.80000000156,
      "d": 635.2872916666674,
      "v": 57
    },
    {
      "midi": 65,
      "hit": false,
      "t": 223334.80000000156,
      "d": 711.3428124999919,
      "v": 48
    },
    {
      "midi": 57,
      "hit": false,
      "t": 223334.80000000156,
      "d": 720.2905208333395,
      "v": 36
    },
    {
      "midi": 50,
      "hit": false,
      "t": 223334.80000000156,
      "d": 1149.7805208333593,
      "v": 61
    },
    {
      "midi": 57,
      "hit": false,
      "t": 224193.78000000157,
      "d": 246.0619791666686,
      "v": 54
    },
    {
      "midi": 62,
      "hit": false,
      "t": 224193.78000000157,
      "d": 595.0226041666756,
      "v": 63
    },
    {
      "midi": 65,
      "hit": false,
      "t": 224193.78000000157,
      "d": 617.3918750000012,
      "v": 58
    },
    {
      "midi": 57,
      "hit": false,
      "t": 224623.2700000016,
      "d": 165.5326041666558,
      "v": 54
    },
    {
      "midi": 50,
      "hit": false,
      "t": 224838.0150000016,
      "d": 201.32343750001746,
      "v": 62
    },
    {
      "midi": 60,
      "hit": false,
      "t": 225052.7600000016,
      "d": 648.7088541666744,
      "v": 51
    },
    {
      "midi": 64,
      "hit": false,
      "t": 225052.7600000016,
      "d": 662.1304166666814,
      "v": 55
    },
    {
      "midi": 67,
      "hit": false,
      "t": 225052.7600000016,
      "d": 671.0781250000291,
      "v": 46
    },
    {
      "midi": 48,
      "hit": false,
      "t": 225052.7600000016,
      "d": 899.2446875000314,
      "v": 57
    },
    {
      "midi": 60,
      "hit": false,
      "t": 225911.74000000165,
      "d": 241.5881249999802,
      "v": 66
    },
    {
      "midi": 64,
      "hit": false,
      "t": 225911.74000000165,
      "d": 241.5881249999802,
      "v": 72
    },
    {
      "midi": 67,
      "hit": false,
      "t": 225911.74000000165,
      "d": 268.4312499999942,
      "v": 72
    },
    {
      "midi": 48,
      "hit": false,
      "t": 226341.23000000164,
      "d": 411.5945833333535,
      "v": 45
    },
    {
      "midi": 58,
      "hit": false,
      "t": 226770.72000000166,
      "d": 277.37895833334187,
      "v": 37
    },
    {
      "midi": 62,
      "hit": false,
      "t": 226770.72000000166,
      "d": 281.85281250000116,
      "v": 62
    },
    {
      "midi": 65,
      "hit": false,
      "t": 226770.72000000166,
      "d": 308.69593750001513,
      "v": 51
    },
    {
      "midi": 46,
      "hit": false,
      "t": 226770.72000000166,
      "d": 2778.2634374999907,
      "v": 39
    },
    {
      "midi": 58,
      "hit": false,
      "t": 227629.70000000167,
      "d": 1928.231145833328,
      "v": 34
    },
    {
      "midi": 65,
      "hit": false,
      "t": 227844.44500000167,
      "d": 210.27114583333605,
      "v": 54
    },
    {
      "midi": 70,
      "hit": false,
      "t": 228059.19000000166,
      "d": 76.05552083332441,
      "v": 63
    },
    {
      "midi": 72,
      "hit": false,
      "t": 228273.93500000166,
      "d": 40.26468749999185,
      "v": 61
    },
    {
      "midi": 72,
      "hit": false,
      "t": 228488.68000000165,
      "d": 120.79406250000466,
      "v": 74
    },
    {
      "midi": 77,
      "hit": false,
      "t": 228488.68000000165,
      "d": 1096.0942708333605,
      "v": 72
    },
    {
      "midi": 74,
      "hit": false,
      "t": 228703.42500000165,
      "d": 997.6694791667105,
      "v": 58
    },
    {
      "midi": 60,
      "hit": false,
      "t": 230220.06156250168,
      "d": 3292.7566666666826,
      "v": 61
    },
    {
      "midi": 55,
      "hit": false,
      "t": 230229.00927083503,
      "d": 885.8231249999953,
      "v": 55
    },
    {
      "midi": 41,
      "hit": false,
      "t": 230229.00927083503,
      "d": 2764.8418749999837,
      "v": 48
    },
    {
      "midi": 65,
      "hit": false,
      "t": 230229.00927083503,
      "d": 3221.1749999999884,
      "v": 58
    },
    {
      "midi": 53,
      "hit": false,
      "t": 230229.00927083503,
      "d": 3364.3383333333477,
      "v": 53
    },
    {
      "midi": 57,
      "hit": false,
      "t": 230246.9046875017,
      "d": 3221.1749999999884,
      "v": 58
    },
    {
      "midi": 72,
      "hit": false,
      "t": 233553.08291666835,
      "d": 8379.52885416674,
      "v": 50
    },
    {
      "midi": 70,
      "hit": false,
      "t": 233562.0306250017,
      "d": 8357.159583333385,
      "v": 43
    },
    {
      "midi": 65,
      "hit": false,
      "t": 233602.29531250172,
      "d": 8321.368750000023,
      "v": 41
    },
    {
      "midi": 46,
      "hit": false,
      "t": 233620.1907291684,
      "d": 8330.316458333371,
      "v": 49
    },
    {
      "midi": 60,
      "hit": false,
      "t": 233629.13843750174,
      "d": 8294.52562500001,
      "v": 72
    },
    {
      "midi": 58,
      "hit": false,
      "t": 233638.08614583508,
      "d": 8307.947187500016,
      "v": 58
    }
  ]
}