{
  "jsonPath": "Soundtracks/Video Game Music/Metal Gear Solid 2/metal-gear-solid-2-sons-of-liberty-maintheme.json",
  "path": "Soundtracks\\Video Game Music\\Metal Gear Solid 2\\Metal_Gear_Solid_2_Sons_of_Liberty_MainTheme.mid",
  "name": "Metal_Gear_Solid_2_Sons_of_Liberty_MainTheme",
  "difficulty": "Advanced",
  "bpm": 135.000135000135,
  "notes": [
    {
      "midi": 52,
      "hit": false,
      "t": 0,
      "d": 633.9279375,
      "v": 110
    },
    {
      "midi": 57,
      "hit": false,
      "t": 0,
      "d": 633.9279375,
      "v": 110
    },
    {
      "midi": 33,
      "hit": false,
      "t": 0,
      "d": 714.2850000000001,
      "v": 110
    },
    {
      "midi": 45,
      "hit": false,
      "t": 0,
      "d": 714.2850000000001,
      "v": 110
    },
    {
      "midi": 52,
      "hit": false,
      "t": 642.8565,
      "d": 633.9279375,
      "v": 110
    },
    {
      "midi": 57,
      "hit": false,
      "t": 642.8565,
      "d": 633.9279375,
      "v": 110
    },
    {
      "midi": 52,
      "hit": false,
      "t": 1285.713,
      "d": 419.6424374999999,
      "v": 110
    },
    {
      "midi": 59,
      "hit": false,
      "t": 1285.713,
      "d": 419.6424374999999,
      "v": 110
    },
    {
      "midi": 33,
      "hit": false,
      "t": 1285.7130000000002,
      "d": 419.64243750000014,
      "v": 110
    },
    {
      "midi": 45,
      "hit": false,
      "t": 1285.7130000000002,
      "d": 419.64243750000014,
      "v": 110
    },
    {
      "midi": 33,
      "hit": false,
      "t": 2571.4260000000004,
      "d": 419.64243750000014,
      "v": 110
    },
    {
      "midi": 45,
      "hit": false,
      "t": 2571.4260000000004,
      "d": 419.64243750000014,
      "v": 110
    },
    {
      "midi": 33,
      "hit": false,
      "t": 2999.9970000000008,
      "d": 419.64243750000014,
      "v": 110
    },
    {
      "midi": 45,
      "hit": false,
      "t": 2999.9970000000008,
      "d": 419.64243750000014,
      "v": 110
    },
    {
      "midi": 33,
      "hit": false,
      "t": 3428.568000000001,
      "d": 714.2849999999999,
      "v": 110
    },
    {
      "midi": 45,
      "hit": false,
      "t": 3428.568000000001,
      "d": 714.2849999999999,
      "v": 110
    },
    {
      "midi": 33,
      "hit": false,
      "t": 4714.281000000001,
      "d": 419.6424374999997,
      "v": 110
    },
    {
      "midi": 45,
      "hit": false,
      "t": 4714.281000000001,
      "d": 419.6424374999997,
      "v": 110
    },
    {
      "midi": 52,
      "hit": false,
      "t": 5999.994000000001,
      "d": 205.35693749999973,
      "v": 110
    },
    {
      "midi": 33,
      "hit": false,
      "t": 5999.994000000001,
      "d": 419.6424374999997,
      "v": 110
    },
    {
      "midi": 45,
      "hit": false,
      "t": 5999.994000000001,
      "d": 419.6424374999997,
      "v": 110
    },
    {
      "midi": 53,
      "hit": false,
      "t": 6214.279500000001,
      "d": 205.35693749999973,
      "v": 110
    },
    {
      "midi": 55,
      "hit": false,
      "t": 6428.5650000000005,
      "d": 205.35693749999973,
      "v": 110
    },
    {
      "midi": 33,
      "hit": false,
      "t": 6428.5650000000005,
      "d": 419.6424374999997,
      "v": 110
    },
    {
      "midi": 45,
      "hit": false,
      "t": 6428.5650000000005,
      "d": 419.6424374999997,
      "v": 110
    },
    {
      "midi": 57,
      "hit": false,
      "t": 6642.8505000000005,
      "d": 205.35693749999973,
      "v": 110
    },
    {
      "midi": 52,
      "hit": false,
      "t": 6857.136,
      "d": 633.9279374999996,
      "v": 110
    },
    {
      "midi": 59,
      "hit": false,
      "t": 6857.136,
      "d": 633.9279374999996,
      "v": 110
    },
    {
      "midi": 33,
      "hit": false,
      "t": 6857.136,
      "d": 714.2849999999999,
      "v": 110
    },
    {
      "midi": 45,
      "hit": false,
      "t": 6857.136,
      "d": 714.2849999999999,
      "v": 110
    },
    {
      "midi": 52,
      "hit": false,
      "t": 7499.9925,
      "d": 633.9279374999996,
      "v": 110
    },
    {
      "midi": 59,
      "hit": false,
      "t": 7499.9925,
      "d": 633.9279374999996,
      "v": 110
    },
    {
      "midi": 53,
      "hit": false,
      "t": 8142.849,
      "d": 419.6424375000006,
      "v": 110
    },
    {
      "midi": 60,
      "hit": false,
      "t": 8142.849,
      "d": 419.6424375000006,
      "v": 110
    },
    {
      "midi": 33,
      "hit": false,
      "t": 8142.849,
      "d": 419.6424375000006,
      "v": 110
    },
    {
      "midi": 45,
      "hit": false,
      "t": 8142.849,
      "d": 419.6424375000006,
      "v": 110
    },
    {
      "midi": 33,
      "hit": false,
      "t": 9428.562000000002,
      "d": 419.6424375000006,
      "v": 110
    },
    {
      "midi": 45,
      "hit": false,
      "t": 9428.562000000002,
      "d": 419.6424375000006,
      "v": 110
    },
    {
      "midi": 33,
      "hit": false,
      "t": 9857.133000000002,
      "d": 419.6424375000006,
      "v": 110
    },
    {
      "midi": 45,
      "hit": false,
      "t": 9857.133000000002,
      "d": 419.6424375000006,
      "v": 110
    },
    {
      "midi": 33,
      "hit": false,
      "t": 10285.704000000002,
      "d": 714.2849999999999,
      "v": 110
    },
    {
      "midi": 45,
      "hit": false,
      "t": 10285.704000000002,
      "d": 714.2849999999999,
      "v": 110
    },
    {
      "midi": 33,
      "hit": false,
      "t": 11571.417000000001,
      "d": 419.6424375000006,
      "v": 110
    },
    {
      "midi": 45,
      "hit": false,
      "t": 11571.417000000001,
      "d": 419.6424375000006,
      "v": 110
    },
    {
      "midi": 53,
      "hit": false,
      "t": 12857.130000000001,
      "d": 205.35693750000064,
      "v": 110
    },
    {
      "midi": 33,
      "hit": false,
      "t": 12857.130000000001,
      "d": 419.6424375000006,
      "v": 110
    },
    {
      "midi": 45,
      "hit": false,
      "t": 12857.130000000001,
      "d": 419.6424375000006,
      "v": 110
    },
    {
      "midi": 55,
      "hit": false,
      "t": 13071.415500000001,
      "d": 205.35693750000064,
      "v": 110
    },
    {
      "midi": 57,
      "hit": false,
      "t": 13285.701000000001,
      "d": 205.35693750000064,
      "v": 110
    },
    {
      "midi": 33,
      "hit": false,
      "t": 13285.701000000001,
      "d": 419.6424375000006,
      "v": 110
    },
    {
      "midi": 45,
      "hit": false,
      "t": 13285.701000000001,
      "d": 419.6424375000006,
      "v": 110
    },
    {
      "midi": 59,
      "hit": false,
      "t": 13499.9865,
      "d": 205.35693750000064,
      "v": 110
    },
    {
      "midi": 53,
      "hit": false,
      "t": 13714.272,
      "d": 633.9279375000006,
      "v": 110
    },
    {
      "midi": 60,
      "hit": false,
      "t": 13714.272,
      "d": 633.9279375000006,
      "v": 110
    },
    {
      "midi": 33,
      "hit": false,
      "t": 13714.272,
      "d": 714.2849999999999,
      "v": 110
    },
    {
      "midi": 45,
      "hit": false,
      "t": 13714.272,
      "d": 714.2849999999999,
      "v": 110
    },
    {
      "midi": 53,
      "hit": false,
      "t": 14357.1285,
      "d": 633.9279375000006,
      "v": 110
    },
    {
      "midi": 60,
      "hit": false,
      "t": 14357.1285,
      "d": 633.9279375000006,
      "v": 110
    },
    {
      "midi": 55,
      "hit": false,
      "t": 14999.985,
      "d": 419.6424375000006,
      "v": 110
    },
    {
      "midi": 62,
      "hit": false,
      "t": 14999.985,
      "d": 419.6424375000006,
      "v": 110
    },
    {
      "midi": 33,
      "hit": false,
      "t": 14999.985,
      "d": 419.6424375000006,
      "v": 110
    },
    {
      "midi": 45,
      "hit": false,
      "t": 14999.985,
      "d": 419.6424375000006,
      "v": 110
    },
    {
      "midi": 53,
      "hit": false,
      "t": 15428.556,
      "d": 419.6424375000006,
      "v": 110
    },
    {
      "midi": 60,
      "hit": false,
      "t": 15428.556,
      "d": 419.6424375000006,
      "v": 110
    },
    {
      "midi": 52,
      "hit": false,
      "t": 15857.127,
      "d": 419.6424375000006,
      "v": 110
    },
    {
      "midi": 59,
      "hit": false,
      "t": 15857.127,
      "d": 419.6424375000006,
      "v": 110
    },
    {
      "midi": 33,
      "hit": false,
      "t": 16285.698,
      "d": 714.2849999999999,
      "v": 110
    },
    {
      "midi": 45,
      "hit": false,
      "t": 16285.698,
      "d": 714.2849999999999,
      "v": 110
    },
    {
      "midi": 57,
      "hit": false,
      "t": 17142.84,
      "d": 633.9279375000006,
      "v": 110
    },
    {
      "midi": 64,
      "hit": false,
      "t": 17142.84,
      "d": 633.9279375000006,
      "v": 110
    },
    {
      "midi": 33,
      "hit": false,
      "t": 17142.84,
      "d": 714.2849999999999,
      "v": 110
    },
    {
      "midi": 45,
      "hit": false,
      "t": 17142.84,
      "d": 714.2849999999999,
      "v": 110
    },
    {
      "midi": 57,
      "hit": false,
      "t": 17785.696500000002,
      "d": 633.9279375000006,
      "v": 110
    },
    {
      "midi": 64,
      "hit": false,
      "t": 17785.696500000002,
      "d": 633.9279375000006,
      "v": 110
    },
    {
      "midi": 33,
      "hit": false,
      "t": 18428.553,
      "d": 419.6424374999988,
      "v": 110
    },
    {
      "midi": 45,
      "hit": false,
      "t": 18428.553,
      "d": 419.6424374999988,
      "v": 110
    },
    {
      "midi": 57,
      "hit": false,
      "t": 18428.553000000004,
      "d": 419.6424374999988,
      "v": 110
    },
    {
      "midi": 65,
      "hit": false,
      "t": 18428.553000000004,
      "d": 419.6424374999988,
      "v": 110
    },
    {
      "midi": 57,
      "hit": false,
      "t": 18857.124000000003,
      "d": 419.6424374999988,
      "v": 110
    },
    {
      "midi": 64,
      "hit": false,
      "t": 18857.124000000003,
      "d": 419.6424374999988,
      "v": 110
    },
    {
      "midi": 57,
      "hit": false,
      "t": 19285.695000000003,
      "d": 419.6424374999988,
      "v": 110
    },
    {
      "midi": 62,
      "hit": false,
      "t": 19285.695000000003,
      "d": 419.6424374999988,
      "v": 110
    },
    {
      "midi": 33,
      "hit": false,
      "t": 19714.266,
      "d": 714.2849999999999,
      "v": 110
    },
    {
      "midi": 45,
      "hit": false,
      "t": 19714.266,
      "d": 714.2849999999999,
      "v": 110
    },
    {
      "midi": 33,
      "hit": false,
      "t": 20571.408,
      "d": 714.2849999999999,
      "v": 110
    },
    {
      "midi": 45,
      "hit": false,
      "t": 20571.408,
      "d": 714.2849999999999,
      "v": 110
    },
    {
      "midi": 59,
      "hit": false,
      "t": 20571.408000000003,
      "d": 633.9279375000006,
      "v": 110
    },
    {
      "midi": 67,
      "hit": false,
      "t": 20571.408000000003,
      "d": 633.9279375000006,
      "v": 110
    },
    {
      "midi": 59,
      "hit": false,
      "t": 21214.264500000005,
      "d": 633.9279375000006,
      "v": 110
    },
    {
      "midi": 67,
      "hit": false,
      "t": 21214.264500000005,
      "d": 633.9279375000006,
      "v": 110
    },
    {
      "midi": 33,
      "hit": false,
      "t": 21857.121,
      "d": 419.6424374999988,
      "v": 110
    },
    {
      "midi": 45,
      "hit": false,
      "t": 21857.121,
      "d": 419.6424374999988,
      "v": 110
    },
    {
      "midi": 60,
      "hit": false,
      "t": 21857.121000000006,
      "d": 419.6424374999988,
      "v": 110
    },
    {
      "midi": 69,
      "hit": false,
      "t": 21857.121000000006,
      "d": 419.6424374999988,
      "v": 110
    },
    {
      "midi": 33,
      "hit": false,
      "t": 23142.834,
      "d": 419.6424374999988,
      "v": 110
    },
    {
      "midi": 45,
      "hit": false,
      "t": 23142.834,
      "d": 419.6424374999988,
      "v": 110
    },
    {
      "midi": 33,
      "hit": false,
      "t": 23571.405,
      "d": 419.6424374999988,
      "v": 110
    },
    {
      "midi": 45,
      "hit": false,
      "t": 23571.405,
      "d": 419.6424374999988,
      "v": 110
    },
    {
      "midi": 33,
      "hit": false,
      "t": 23999.976,
      "d": 714.2849999999999,
      "v": 110
    },
    {
      "midi": 45,
      "hit": false,
      "t": 23999.976,
      "d": 714.2849999999999,
      "v": 110
    },
    {
      "midi": 33,
      "hit": false,
      "t": 25285.689,
      "d": 419.6424374999988,
      "v": 110
    },
    {
      "midi": 45,
      "hit": false,
      "t": 25285.689,
      "d": 419.6424374999988,
      "v": 110
    },
    {
      "midi": 33,
      "hit": false,
      "t": 26571.402,
      "d": 714.2849999999999,
      "v": 110
    },
    {
      "midi": 45,
      "hit": false,
      "t": 26571.402,
      "d": 714.2849999999999,
      "v": 110
    },
    {
      "midi": 64,
      "hit": false,
      "t": 26571.402000000006,
      "d": 419.6424374999988,
      "v": 110
    },
    {
      "midi": 62,
      "hit": false,
      "t": 26999.973000000005,
      "d": 419.6424374999988,
      "v": 110
    },
    {
      "midi": 33,
      "hit": false,
      "t": 27428.543999999998,
      "d": 714.2849999999999,
      "v": 110
    },
    {
      "midi": 45,
      "hit": false,
      "t": 27428.543999999998,
      "d": 714.2849999999999,
      "v": 110
    },
    {
      "midi": 60,
      "hit": false,
      "t": 27428.544000000005,
      "d": 1499.9985000000015,
      "v": 110
    },
    {
      "midi": 52,
      "hit": false,
      "t": 28714.256999999998,
      "d": 419.6424374999988,
      "v": 110
    },
    {
      "midi": 57,
      "hit": false,
      "t": 28714.256999999998,
      "d": 419.6424374999988,
      "v": 110
    },
    {
      "midi": 33,
      "hit": false,
      "t": 29571.398999999998,
      "d": 419.6424374999988,
      "v": 110
    },
    {
      "midi": 45,
      "hit": false,
      "t": 29571.398999999998,
      "d": 419.6424374999988,
      "v": 110
    },
    {
      "midi": 62,
      "hit": false,
      "t": 29571.39900000001,
      "d": 419.6424374999988,
      "v": 110
    },
    {
      "midi": 64,
      "hit": false,
      "t": 29999.97000000001,
      "d": 419.6424374999988,
      "v": 110
    },
    {
      "midi": 57,
      "hit": false,
      "t": 30428.54100000001,
      "d": 419.6424374999988,
      "v": 110
    },
    {
      "midi": 29,
      "hit": false,
      "t": 30857.111999999997,
      "d": 714.2849999999999,
      "v": 110
    },
    {
      "midi": 41,
      "hit": false,
      "t": 30857.111999999997,
      "d": 714.2849999999999,
      "v": 110
    },
    {
      "midi": 64,
      "hit": false,
      "t": 30857.11200000001,
      "d": 714.2849999999999,
      "v": 110
    },
    {
      "midi": 62,
      "hit": false,
      "t": 31714.254000000008,
      "d": 714.2849999999999,
      "v": 110
    },
    {
      "midi": 53,
      "hit": false,
      "t": 32142.824999999997,
      "d": 419.6424374999988,
      "v": 110
    },
    {
      "midi": 57,
      "hit": false,
      "t": 32142.824999999997,
      "d": 419.6424374999988,
      "v": 110
    },
    {
      "midi": 29,
      "hit": false,
      "t": 32999.967,
      "d": 419.6424374999988,
      "v": 110
    },
    {
      "midi": 41,
      "hit": false,
      "t": 32999.967,
      "d": 419.6424374999988,
      "v": 110
    },
    {
      "midi": 60,
      "hit": false,
      "t": 33428.53800000001,
      "d": 419.6424374999988,
      "v": 110
    },
    {
      "midi": 62,
      "hit": false,
      "t": 33857.109000000004,
      "d": 419.6424374999988,
      "v": 110
    },
    {
      "midi": 36,
      "hit": false,
      "t": 34285.67999999999,
      "d": 714.2850000000035,
      "v": 110
    },
    {
      "midi": 48,
      "hit": false,
      "t": 34285.67999999999,
      "d": 714.2850000000035,
      "v": 110
    },
    {
      "midi": 64,
      "hit": false,
      "t": 34285.68,
      "d": 1499.9985000000015,
      "v": 110
    },
    {
      "midi": 55,
      "hit": false,
      "t": 35571.393,
      "d": 419.6424374999988,
      "v": 110
    },
    {
      "midi": 60,
      "hit": false,
      "t": 35571.393,
      "d": 419.6424374999988,
      "v": 110
    },
    {
      "midi": 36,
      "hit": false,
      "t": 36428.534999999996,
      "d": 419.6424374999988,
      "v": 110
    },
    {
      "midi": 48,
      "hit": false,
      "t": 36428.534999999996,
      "d": 419.6424374999988,
      "v": 110
    },
    {
      "midi": 69,
      "hit": false,
      "t": 36428.535,
      "d": 419.6424374999988,
      "v": 110
    },
    {
      "midi": 67,
      "hit": false,
      "t": 36857.106,
      "d": 419.6424374999988,
      "v": 110
    },
    {
      "midi": 64,
      "hit": false,
      "t": 37285.676999999996,
      "d": 419.6424374999988,
      "v": 110
    },
    {
      "midi": 60,
      "hit": false,
      "t": 37714.24799999999,
      "d": 714.2850000000035,
      "v": 110
    },
    {
      "midi": 31,
      "hit": false,
      "t": 37714.24799999999,
      "d": 714.2850000000035,
      "v": 110
    },
    {
      "midi": 43,
      "hit": false,
      "t": 37714.24799999999,
      "d": 714.2850000000035,
      "v": 110
    },
    {
      "midi": 62,
      "hit": false,
      "t": 38571.39,
      "d": 1499.9985000000015,
      "v": 110
    },
    {
      "midi": 55,
      "hit": false,
      "t": 38999.960999999996,
      "d": 419.6424374999988,
      "v": 110
    },
    {
      "midi": 59,
      "hit": false,
      "t": 38999.960999999996,
      "d": 419.6424374999988,
      "v": 110
    },
    {
      "midi": 31,
      "hit": false,
      "t": 39857.102999999996,
      "d": 419.6424374999988,
      "v": 110
    },
    {
      "midi": 43,
      "hit": false,
      "t": 39857.102999999996,
      "d": 419.6424374999988,
      "v": 110
    },
    {
      "midi": 64,
      "hit": false,
      "t": 40285.674,
      "d": 419.6424374999988,
      "v": 110
    },
    {
      "midi": 69,
      "hit": false,
      "t": 40714.244999999995,
      "d": 419.6424374999988,
      "v": 110
    },
    {
      "midi": 72,
      "hit": false,
      "t": 41142.81599999999,
      "d": 1499.9985000000015,
      "v": 110
    },
    {
      "midi": 33,
      "hit": false,
      "t": 41142.81599999999,
      "d": 714.2850000000035,
      "v": 110
    },
    {
      "midi": 45,
      "hit": false,
      "t": 41142.81599999999,
      "d": 714.2850000000035,
      "v": 110
    },
    {
      "midi": 52,
      "hit": false,
      "t": 42428.528999999995,
      "d": 419.6424374999988,
      "v": 110
    },
    {
      "midi": 60,
      "hit": false,
      "t": 42428.528999999995,
      "d": 419.6424374999988,
      "v": 110
    },
    {
      "midi": 71,
      "hit": false,
      "t": 43285.670999999995,
      "d": 419.6424374999988,
      "v": 110
    },
    {
      "midi": 33,
      "hit": false,
      "t": 43285.670999999995,
      "d": 419.6424374999988,
      "v": 110
    },
    {
      "midi": 45,
      "hit": false,
      "t": 43285.670999999995,
      "d": 419.6424374999988,
      "v": 110
    },
    {
      "midi": 72,
      "hit": false,
      "t": 43714.24199999999,
      "d": 419.6424374999988,
      "v": 110
    },
    {
      "midi": 74,
      "hit": false,
      "t": 44142.81299999999,
      "d": 419.6424374999988,
      "v": 110
    },
    {
      "midi": 72,
      "hit": false,
      "t": 44571.383999999984,
      "d": 714.2850000000035,
      "v": 110
    },
    {
      "midi": 29,
      "hit": false,
      "t": 44571.38399999999,
      "d": 714.2850000000035,
      "v": 110
    },
    {
      "midi": 41,
      "hit": false,
      "t": 44571.38399999999,
      "d": 714.2850000000035,
      "v": 110
    },
    {
      "midi": 69,
      "hit": false,
      "t": 45428.52599999999,
      "d": 1499.9985000000015,
      "v": 110
    },
    {
      "midi": 53,
      "hit": false,
      "t": 45857.096999999994,
      "d": 419.6424374999988,
      "v": 110
    },
    {
      "midi": 57,
      "hit": false,
      "t": 45857.096999999994,
      "d": 419.6424374999988,
      "v": 110
    },
    {
      "midi": 29,
      "hit": false,
      "t": 46714.238999999994,
      "d": 419.6424374999988,
      "v": 110
    },
    {
      "midi": 41,
      "hit": false,
      "t": 46714.238999999994,
      "d": 419.6424374999988,
      "v": 110
    },
    {
      "midi": 67,
      "hit": false,
      "t": 47142.80999999999,
      "d": 419.6424374999988,
      "v": 110
    },
    {
      "midi": 69,
      "hit": false,
      "t": 47571.38099999999,
      "d": 419.6424374999988,
      "v": 110
    },
    {
      "midi": 71,
      "hit": false,
      "t": 47999.95199999998,
      "d": 714.2850000000035,
      "v": 110
    },
    {
      "midi": 28,
      "hit": false,
      "t": 47999.95199999999,
      "d": 714.2850000000035,
      "v": 110
    },
    {
      "midi": 40,
      "hit": false,
      "t": 47999.95199999999,
      "d": 714.2850000000035,
      "v": 110
    },
    {
      "midi": 72,
      "hit": false,
      "t": 49285.664999999986,
      "d": 419.6424374999988,
      "v": 110
    },
    {
      "midi": 52,
      "hit": false,
      "t": 49285.66499999999,
      "d": 419.6424374999988,
      "v": 110
    },
    {
      "midi": 55,
      "hit": false,
      "t": 49285.66499999999,
      "d": 419.6424374999988,
      "v": 110
    },
    {
      "midi": 59,
      "hit": false,
      "t": 49285.66499999999,
      "d": 419.6424374999988,
      "v": 110
    },
    {
      "midi": 71,
      "hit": false,
      "t": 49714.23599999998,
      "d": 562.4994375000024,
      "v": 110
    },
    {
      "midi": 28,
      "hit": false,
      "t": 50142.80699999999,
      "d": 419.6424374999988,
      "v": 110
    },
    {
      "midi": 40,
      "hit": false,
      "t": 50142.80699999999,
      "d": 419.6424374999988,
      "v": 110
    },
    {
      "midi": 69,
      "hit": false,
      "t": 50285.66399999998,
      "d": 562.4994375000024,
      "v": 110
    },
    {
      "midi": 67,
      "hit": false,
      "t": 50857.09199999998,
      "d": 562.4994375000024,
      "v": 110
    },
    {
      "midi": 69,
      "hit": false,
      "t": 51428.51999999998,
      "d": 3214.282500000001,
      "v": 110
    },
    {
      "midi": 26,
      "hit": false,
      "t": 51428.51999999999,
      "d": 714.2850000000035,
      "v": 110
    },
    {
      "midi": 38,
      "hit": false,
      "t": 51428.51999999999,
      "d": 714.2850000000035,
      "v": 110
    },
    {
      "midi": 50,
      "hit": false,
      "t": 52714.23299999999,
      "d": 419.6424374999988,
      "v": 110
    },
    {
      "midi": 55,
      "hit": false,
      "t": 52714.23299999999,
      "d": 419.6424374999988,
      "v": 110
    },
    {
      "midi": 57,
      "hit": false,
      "t": 52714.23299999999,
      "d": 419.6424374999988,
      "v": 110
    },
    {
      "midi": 50,
      "hit": false,
      "t": 53571.37499999999,
      "d": 419.6424374999988,
      "v": 110
    },
    {
      "midi": 45,
      "hit": false,
      "t": 54428.51699999999,
      "d": 419.6424374999988,
      "v": 110
    },
    {
      "midi": 69,
      "hit": false,
      "t": 54857.08799999998,
      "d": 1499.9985000000015,
      "v": 110
    },
    {
      "midi": 74,
      "hit": false,
      "t": 54857.08799999998,
      "d": 1499.9985000000015,
      "v": 110
    },
    {
      "midi": 78,
      "hit": false,
      "t": 54857.08799999998,
      "d": 1499.9985000000015,
      "v": 110
    },
    {
      "midi": 81,
      "hit": false,
      "t": 54857.08799999998,
      "d": 1499.9985000000015,
      "v": 110
    },
    {
      "midi": 26,
      "hit": false,
      "t": 54857.08799999999,
      "d": 714.2850000000035,
      "v": 110
    },
    {
      "midi": 38,
      "hit": false,
      "t": 54857.08799999999,
      "d": 714.2850000000035,
      "v": 110
    },
    {
      "midi": 50,
      "hit": false,
      "t": 56142.80099999999,
      "d": 419.6424374999988,
      "v": 110
    },
    {
      "midi": 54,
      "hit": false,
      "t": 56142.80099999999,
      "d": 419.6424374999988,
      "v": 110
    },
    {
      "midi": 57,
      "hit": false,
      "t": 56142.80099999999,
      "d": 419.6424374999988,
      "v": 110
    },
    {
      "midi": 64,
      "hit": false,
      "t": 56571.37199999998,
      "d": 714.2850000000035,
      "v": 110
    },
    {
      "midi": 76,
      "hit": false,
      "t": 56571.37199999998,
      "d": 714.2850000000035,
      "v": 110
    },
    {
      "midi": 62,
      "hit": false,
      "t": 57428.51399999999,
      "d": 714.2850000000035,
      "v": 110
    },
    {
      "midi": 74,
      "hit": false,
      "t": 57428.51399999999,
      "d": 714.2850000000035,
      "v": 110
    },
    {
      "midi": 26,
      "hit": false,
      "t": 57428.51399999999,
      "d": 714.2850000000035,
      "v": 110
    },
    {
      "midi": 38,
      "hit": false,
      "t": 57428.51399999999,
      "d": 714.2850000000035,
      "v": 110
    },
    {
      "midi": 60,
      "hit": false,
      "t": 58285.655999999995,
      "d": 1499.9985000000015,
      "v": 110
    },
    {
      "midi": 72,
      "hit": false,
      "t": 58285.655999999995,
      "d": 1499.9985000000015,
      "v": 110
    },
    {
      "midi": 33,
      "hit": false,
      "t": 58285.655999999995,
      "d": 714.2850000000035,
      "v": 110
    },
    {
      "midi": 45,
      "hit": false,
      "t": 58285.655999999995,
      "d": 714.2850000000035,
      "v": 110
    },
    {
      "midi": 52,
      "hit": false,
      "t": 59571.369,
      "d": 419.6424374999988,
      "v": 110
    },
    {
      "midi": 57,
      "hit": false,
      "t": 59571.369,
      "d": 419.6424374999988,
      "v": 110
    },
    {
      "midi": 62,
      "hit": false,
      "t": 60428.511,
      "d": 419.6424374999988,
      "v": 110
    },
    {
      "midi": 74,
      "hit": false,
      "t": 60428.511,
      "d": 419.6424374999988,
      "v": 110
    },
    {
      "midi": 33,
      "hit": false,
      "t": 60428.511,
      "d": 419.6424374999988,
      "v": 110
    },
    {
      "midi": 45,
      "hit": false,
      "t": 60428.511,
      "d": 419.6424374999988,
      "v": 110
    },
    {
      "midi": 64,
      "hit": false,
      "t": 60857.081999999995,
      "d": 419.6424374999988,
      "v": 110
    },
    {
      "midi": 76,
      "hit": false,
      "t": 60857.081999999995,
      "d": 419.6424374999988,
      "v": 110
    },
    {
      "midi": 57,
      "hit": false,
      "t": 61285.65299999999,
      "d": 419.6424374999988,
      "v": 110
    },
    {
      "midi": 69,
      "hit": false,
      "t": 61285.65299999999,
      "d": 419.6424374999988,
      "v": 110
    },
    {
      "midi": 64,
      "hit": false,
      "t": 61714.22399999999,
      "d": 714.2850000000035,
      "v": 110
    },
    {
      "midi": 76,
      "hit": false,
      "t": 61714.22399999999,
      "d": 714.2850000000035,
      "v": 110
    },
    {
      "midi": 29,
      "hit": false,
      "t": 61714.223999999995,
      "d": 714.2850000000035,
      "v": 110
    },
    {
      "midi": 41,
      "hit": false,
      "t": 61714.223999999995,
      "d": 714.2850000000035,
      "v": 110
    },
    {
      "midi": 62,
      "hit": false,
      "t": 62571.365999999995,
      "d": 714.2850000000035,
      "v": 110
    },
    {
      "midi": 74,
      "hit": false,
      "t": 62571.365999999995,
      "d": 714.2850000000035,
      "v": 110
    },
    {
      "midi": 53,
      "hit": false,
      "t": 62999.937,
      "d": 419.6424374999988,
      "v": 110
    },
    {
      "midi": 57,
      "hit": false,
      "t": 62999.937,
      "d": 419.6424374999988,
      "v": 110
    },
    {
      "midi": 29,
      "hit": false,
      "t": 63857.079,
      "d": 419.6424374999988,
      "v": 110
    },
    {
      "midi": 41,
      "hit": false,
      "t": 63857.079,
      "d": 419.6424374999988,
      "v": 110
    },
    {
      "midi": 60,
      "hit": false,
      "t": 64285.65,
      "d": 419.6424374999988,
      "v": 110
    },
    {
      "midi": 72,
      "hit": false,
      "t": 64285.65,
      "d": 419.6424374999988,
      "v": 110
    },
    {
      "midi": 62,
      "hit": false,
      "t": 64714.221,
      "d": 419.6424374999988,
      "v": 110
    },
    {
      "midi": 74,
      "hit": false,
      "t": 64714.221,
      "d": 419.6424374999988,
      "v": 110
    },
    {
      "midi": 64,
      "hit": false,
      "t": 65142.791999999994,
      "d": 1499.9984999999942,
      "v": 110
    },
    {
      "midi": 76,
      "hit": false,
      "t": 65142.791999999994,
      "d": 1499.9984999999942,
      "v": 110
    },
    {
      "midi": 36,
      "hit": false,
      "t": 65142.791999999994,
      "d": 714.2849999999962,
      "v": 110
    },
    {
      "midi": 48,
      "hit": false,
      "t": 65142.791999999994,
      "d": 714.2849999999962,
      "v": 110
    },
    {
      "midi": 55,
      "hit": false,
      "t": 66428.50499999999,
      "d": 419.64243750000605,
      "v": 110
    },
    {
      "midi": 60,
      "hit": false,
      "t": 66428.50499999999,
      "d": 419.64243750000605,
      "v": 110
    },
    {
      "midi": 69,
      "hit": false,
      "t": 67285.64699999998,
      "d": 419.64243750000605,
      "v": 110
    },
    {
      "midi": 81,
      "hit": false,
      "t": 67285.64699999998,
      "d": 419.64243750000605,
      "v": 110
    },
    {
      "midi": 36,
      "hit": false,
      "t": 67285.647,
      "d": 419.64243750000605,
      "v": 110
    },
    {
      "midi": 48,
      "hit": false,
      "t": 67285.647,
      "d": 419.64243750000605,
      "v": 110
    },
    {
      "midi": 67,
      "hit": false,
      "t": 67714.218,
      "d": 419.64243750000605,
      "v": 110
    },
    {
      "midi": 79,
      "hit": false,
      "t": 67714.218,
      "d": 419.64243750000605,
      "v": 110
    },
    {
      "midi": 64,
      "hit": false,
      "t": 68142.789,
      "d": 419.64243750000605,
      "v": 110
    },
    {
      "midi": 76,
      "hit": false,
      "t": 68142.789,
      "d": 419.64243750000605,
      "v": 110
    },
    {
      "midi": 31,
      "hit": false,
      "t": 68571.36,
      "d": 714.2850000000035,
      "v": 110
    },
    {
      "midi": 43,
      "hit": false,
      "t": 68571.36,
      "d": 714.2850000000035,
      "v": 110
    },
    {
      "midi": 60,
      "hit": false,
      "t": 68571.36000000002,
      "d": 714.2850000000035,
      "v": 110
    },
    {
      "midi": 72,
      "hit": false,
      "t": 68571.36000000002,
      "d": 714.2850000000035,
      "v": 110
    },
    {
      "midi": 62,
      "hit": false,
      "t": 69428.50200000002,
      "d": 1499.9985000000015,
      "v": 110
    },
    {
      "midi": 74,
      "hit": false,
      "t": 69428.50200000002,
      "d": 1499.9985000000015,
      "v": 110
    },
    {
      "midi": 55,
      "hit": false,
      "t": 69857.073,
      "d": 419.64243750000605,
      "v": 110
    },
    {
      "midi": 59,
      "hit": false,
      "t": 69857.073,
      "d": 419.64243750000605,
      "v": 110
    },
    {
      "midi": 31,
      "hit": false,
      "t": 70714.21500000001,
      "d": 419.64243750000605,
      "v": 110
    },
    {
      "midi": 43,
      "hit": false,
      "t": 70714.21500000001,
      "d": 419.64243750000605,
      "v": 110
    },
    {
      "midi": 64,
      "hit": false,
      "t": 71142.78600000002,
      "d": 419.64243750000605,
      "v": 110
    },
    {
      "midi": 76,
      "hit": false,
      "t": 71142.78600000002,
      "d": 419.64243750000605,
      "v": 110
    },
    {
      "midi": 69,
      "hit": false,
      "t": 71571.35700000003,
      "d": 419.64243750000605,
      "v": 110
    },
    {
      "midi": 81,
      "hit": false,
      "t": 71571.35700000003,
      "d": 419.64243750000605,
      "v": 110
    },
    {
      "midi": 33,
      "hit": false,
      "t": 71999.92800000001,
      "d": 714.2850000000035,
      "v": 110
    },
    {
      "midi": 45,
      "hit": false,
      "t": 71999.92800000001,
      "d": 714.2850000000035,
      "v": 110
    },
    {
      "midi": 72,
      "hit": false,
      "t": 71999.92800000004,
      "d": 1499.9985000000015,
      "v": 110
    },
    {
      "midi": 84,
      "hit": false,
      "t": 71999.92800000004,
      "d": 1499.9985000000015,
      "v": 110
    },
    {
      "midi": 52,
      "hit": false,
      "t": 73285.64100000002,
      "d": 419.64243750000605,
      "v": 110
    },
    {
      "midi": 60,
      "hit": false,
      "t": 73285.64100000002,
      "d": 419.64243750000605,
      "v": 110
    },
    {
      "midi": 33,
      "hit": false,
      "t": 74142.78300000002,
      "d": 419.64243750000605,
      "v": 110
    },
    {
      "midi": 45,
      "hit": false,
      "t": 74142.78300000002,
      "d": 419.64243750000605,
      "v": 110
    },
    {
      "midi": 71,
      "hit": false,
      "t": 74142.78300000004,
      "d": 419.64243750000605,
      "v": 110
    },
    {
      "midi": 83,
      "hit": false,
      "t": 74142.78300000004,
      "d": 419.64243750000605,
      "v": 110
    },
    {
      "midi": 72,
      "hit": false,
      "t": 74571.35400000005,
      "d": 419.64243750000605,
      "v": 110
    },
    {
      "midi": 84,
      "hit": false,
      "t": 74571.35400000005,
      "d": 419.64243750000605,
      "v": 110
    },
    {
      "midi": 74,
      "hit": false,
      "t": 74999.92500000006,
      "d": 419.64243750000605,
      "v": 110
    },
    {
      "midi": 86,
      "hit": false,
      "t": 74999.92500000006,
      "d": 419.64243750000605,
      "v": 110
    },
    {
      "midi": 29,
      "hit": false,
      "t": 75428.49600000003,
      "d": 714.2850000000035,
      "v": 110
    },
    {
      "midi": 41,
      "hit": false,
      "t": 75428.49600000003,
      "d": 714.2850000000035,
      "v": 110
    },
    {
      "midi": 72,
      "hit": false,
      "t": 75428.49600000007,
      "d": 714.2850000000035,
      "v": 110
    },
    {
      "midi": 84,
      "hit": false,
      "t": 75428.49600000007,
      "d": 714.2850000000035,
      "v": 110
    },
    {
      "midi": 69,
      "hit": false,
      "t": 76285.63800000008,
      "d": 1499.9985000000015,
      "v": 110
    },
    {
      "midi": 81,
      "hit": false,
      "t": 76285.63800000008,
      "d": 1499.9985000000015,
      "v": 110
    },
    {
      "midi": 53,
      "hit": false,
      "t": 76714.20900000003,
      "d": 419.64243750000605,
      "v": 110
    },
    {
      "midi": 57,
      "hit": false,
      "t": 76714.20900000003,
      "d": 419.64243750000605,
      "v": 110
    },
    {
      "midi": 29,
      "hit": false,
      "t": 77571.35100000004,
      "d": 419.64243750000605,
      "v": 110
    },
    {
      "midi": 41,
      "hit": false,
      "t": 77571.35100000004,
      "d": 419.64243750000605,
      "v": 110
    },
    {
      "midi": 67,
      "hit": false,
      "t": 77999.92200000008,
      "d": 419.64243750000605,
      "v": 110
    },
    {
      "midi": 79,
      "hit": false,
      "t": 77999.92200000008,
      "d": 419.64243750000605,
      "v": 110
    },
    {
      "midi": 69,
      "hit": false,
      "t": 78428.49300000009,
      "d": 419.64243750000605,
      "v": 110
    },
    {
      "midi": 81,
      "hit": false,
      "t": 78428.49300000009,
      "d": 419.64243750000605,
      "v": 110
    },
    {
      "midi": 28,
      "hit": false,
      "t": 78857.06400000004,
      "d": 714.2850000000035,
      "v": 110
    },
    {
      "midi": 40,
      "hit": false,
      "t": 78857.06400000004,
      "d": 714.2850000000035,
      "v": 110
    },
    {
      "midi": 71,
      "hit": false,
      "t": 78857.0640000001,
      "d": 714.2850000000035,
      "v": 110
    },
    {
      "midi": 83,
      "hit": false,
      "t": 78857.0640000001,
      "d": 714.2850000000035,
      "v": 110
    },
    {
      "midi": 52,
      "hit": false,
      "t": 80142.77700000005,
      "d": 419.64243750000605,
      "v": 110
    },
    {
      "midi": 55,
      "hit": false,
      "t": 80142.77700000005,
      "d": 419.64243750000605,
      "v": 110
    },
    {
      "midi": 59,
      "hit": false,
      "t": 80142.77700000005,
      "d": 419.64243750000605,
      "v": 110
    },
    {
      "midi": 72,
      "hit": false,
      "t": 80142.7770000001,
      "d": 419.64243750000605,
      "v": 110
    },
    {
      "midi": 84,
      "hit": false,
      "t": 80142.7770000001,
      "d": 419.64243750000605,
      "v": 110
    },
    {
      "midi": 71,
      "hit": false,
      "t": 80571.34800000011,
      "d": 562.4994374999951,
      "v": 110
    },
    {
      "midi": 83,
      "hit": false,
      "t": 80571.34800000011,
      "d": 562.4994374999951,
      "v": 110
    },
    {
      "midi": 28,
      "hit": false,
      "t": 80999.91900000005,
      "d": 419.64243750000605,
      "v": 110
    },
    {
      "midi": 40,
      "hit": false,
      "t": 80999.91900000005,
      "d": 419.64243750000605,
      "v": 110
    },
    {
      "midi": 69,
      "hit": false,
      "t": 81142.77600000011,
      "d": 562.4994374999951,
      "v": 110
    },
    {
      "midi": 81,
      "hit": false,
      "t": 81142.77600000011,
      "d": 562.4994374999951,
      "v": 110
    },
    {
      "midi": 67,
      "hit": false,
      "t": 81714.20400000011,
      "d": 562.4994374999951,
      "v": 110
    },
    {
      "midi": 79,
      "hit": false,
      "t": 81714.20400000011,
      "d": 562.4994374999951,
      "v": 110
    },
    {
      "midi": 26,
      "hit": false,
      "t": 82285.63200000006,
      "d": 714.2850000000035,
      "v": 110
    },
    {
      "midi": 38,
      "hit": false,
      "t": 82285.63200000006,
      "d": 714.2850000000035,
      "v": 110
    },
    {
      "midi": 69,
      "hit": false,
      "t": 82285.63200000011,
      "d": 3214.282500000001,
      "v": 110
    },
    {
      "midi": 81,
      "hit": false,
      "t": 82285.63200000011,
      "d": 3214.282500000001,
      "v": 110
    },
    {
      "midi": 50,
      "hit": false,
      "t": 83571.34500000006,
      "d": 419.64243750000605,
      "v": 110
    },
    {
      "midi": 55,
      "hit": false,
      "t": 83571.34500000006,
      "d": 419.64243750000605,
      "v": 110
    },
    {
      "midi": 57,
      "hit": false,
      "t": 83571.34500000006,
      "d": 419.64243750000605,
      "v": 110
    },
    {
      "midi": 50,
      "hit": false,
      "t": 84428.48700000007,
      "d": 419.64243750000605,
      "v": 110
    },
    {
      "midi": 45,
      "hit": false,
      "t": 85285.62900000007,
      "d": 419.64243750000605,
      "v": 110
    },
    {
      "midi": 38,
      "hit": false,
      "t": 85714.20000000008,
      "d": 1499.9985000000015,
      "v": 110
    },
    {
      "midi": 50,
      "hit": false,
      "t": 85714.20000000008,
      "d": 1499.9985000000015,
      "v": 110
    },
    {
      "midi": 62,
      "hit": false,
      "t": 85714.20000000011,
      "d": 1499.9985000000015,
      "v": 110
    },
    {
      "midi": 31,
      "hit": false,
      "t": 87428.48400000008,
      "d": 1499.9985000000015,
      "v": 110
    },
    {
      "midi": 43,
      "hit": false,
      "t": 87428.48400000008,
      "d": 1499.9985000000015,
      "v": 110
    },
    {
      "midi": 55,
      "hit": false,
      "t": 87428.48400000011,
      "d": 1499.9985000000015,
      "v": 110
    },
    {
      "midi": 43,
      "hit": false,
      "t": 89142.76800000008,
      "d": 1499.9985000000015,
      "v": 110
    },
    {
      "midi": 55,
      "hit": false,
      "t": 89142.76800000008,
      "d": 1499.9985000000015,
      "v": 110
    },
    {
      "midi": 67,
      "hit": false,
      "t": 89142.76800000011,
      "d": 1142.8559999999998,
      "v": 110
    },
    {
      "midi": 65,
      "hit": false,
      "t": 90428.48100000012,
      "d": 205.35693749999336,
      "v": 110
    },
    {
      "midi": 63,
      "hit": false,
      "t": 90642.76650000011,
      "d": 205.35693749999336,
      "v": 110
    },
    {
      "midi": 38,
      "hit": false,
      "t": 90857.05200000008,
      "d": 1499.9985000000015,
      "v": 110
    },
    {
      "midi": 50,
      "hit": false,
      "t": 90857.05200000008,
      "d": 1499.9985000000015,
      "v": 110
    },
    {
      "midi": 62,
      "hit": false,
      "t": 90857.05200000011,
      "d": 1499.9985000000015,
      "v": 110
    },
    {
      "midi": 31,
      "hit": false,
      "t": 92571.33600000008,
      "d": 1499.9985000000015,
      "v": 110
    },
    {
      "midi": 43,
      "hit": false,
      "t": 92571.33600000008,
      "d": 1499.9985000000015,
      "v": 110
    },
    {
      "midi": 67,
      "hit": false,
      "t": 92571.33600000011,
      "d": 1499.9985000000015,
      "v": 110
    },
    {
      "midi": 26,
      "hit": false,
      "t": 94285.62000000008,
      "d": 1499.9985000000015,
      "v": 110
    },
    {
      "midi": 38,
      "hit": false,
      "t": 94285.62000000008,
      "d": 1499.9985000000015,
      "v": 110
    },
    {
      "midi": 62,
      "hit": false,
      "t": 94285.62000000011,
      "d": 1499.9985000000015,
      "v": 110
    },
    {
      "midi": 34,
      "hit": false,
      "t": 95999.90400000008,
      "d": 1499.9985000000015,
      "v": 110
    },
    {
      "midi": 46,
      "hit": false,
      "t": 95999.90400000008,
      "d": 1499.9985000000015,
      "v": 110
    },
    {
      "midi": 70,
      "hit": false,
      "t": 95999.90400000011,
      "d": 1142.8559999999998,
      "v": 110
    },
    {
      "midi": 69,
      "hit": false,
      "t": 97285.61700000011,
      "d": 205.35693749999336,
      "v": 110
    },
    {
      "midi": 67,
      "hit": false,
      "t": 97499.90250000011,
      "d": 205.35693749999336,
      "v": 110
    },
    {
      "midi": 42,
      "hit": false,
      "t": 97714.18800000008,
      "d": 1499.9985000000015,
      "v": 110
    },
    {
      "midi": 54,
      "hit": false,
      "t": 97714.18800000008,
      "d": 1499.9985000000015,
      "v": 110
    },
    {
      "midi": 66,
      "hit": false,
      "t": 97714.18800000011,
      "d": 1499.9985000000015,
      "v": 110
    },
    {
      "midi": 38,
      "hit": false,
      "t": 99428.47200000008,
      "d": 714.2850000000035,
      "v": 110
    },
    {
      "midi": 50,
      "hit": false,
      "t": 99428.47200000008,
      "d": 714.2850000000035,
      "v": 110
    },
    {
      "midi": 62,
      "hit": false,
      "t": 99428.47200000011,
      "d": 1499.9985000000015,
      "v": 110
    },
    {
      "midi": 74,
      "hit": false,
      "t": 99428.47200000011,
      "d": 1499.9985000000015,
      "v": 110
    },
    {
      "midi": 38,
      "hit": false,
      "t": 100285.61400000009,
      "d": 714.2850000000035,
      "v": 110
    },
    {
      "midi": 50,
      "hit": false,
      "t": 100285.61400000009,
      "d": 714.2850000000035,
      "v": 110
    },
    {
      "midi": 31,
      "hit": false,
      "t": 101142.7560000001,
      "d": 419.64243750000605,
      "v": 110
    },
    {
      "midi": 43,
      "hit": false,
      "t": 101142.7560000001,
      "d": 419.64243750000605,
      "v": 110
    },
    {
      "midi": 55,
      "hit": false,
      "t": 101142.75600000011,
      "d": 1499.9985000000015,
      "v": 110
    },
    {
      "midi": 67,
      "hit": false,
      "t": 101142.75600000011,
      "d": 1499.9985000000015,
      "v": 110
    },
    {
      "midi": 31,
      "hit": false,
      "t": 101571.3270000001,
      "d": 419.64243750000605,
      "v": 110
    },
    {
      "midi": 43,
      "hit": false,
      "t": 101571.3270000001,
      "d": 419.64243750000605,
      "v": 110
    },
    {
      "midi": 67,
      "hit": false,
      "t": 102857.04000000011,
      "d": 1142.8559999999998,
      "v": 110
    },
    {
      "midi": 79,
      "hit": false,
      "t": 102857.04000000011,
      "d": 1142.8559999999998,
      "v": 110
    },
    {
      "midi": 43,
      "hit": false,
      "t": 102857.04000000011,
      "d": 1499.9985000000015,
      "v": 110
    },
    {
      "midi": 55,
      "hit": false,
      "t": 102857.04000000011,
      "d": 1499.9985000000015,
      "v": 110
    },
    {
      "midi": 65,
      "hit": false,
      "t": 104142.75300000011,
      "d": 205.35693749999336,
      "v": 110
    },
    {
      "midi": 77,
      "hit": false,
      "t": 104142.75300000011,
      "d": 205.35693749999336,
      "v": 110
    },
    {
      "midi": 63,
      "hit": false,
      "t": 104357.03850000011,
      "d": 205.35693749999336,
      "v": 110
    },
    {
      "midi": 75,
      "hit": false,
      "t": 104357.03850000011,
      "d": 205.35693749999336,
      "v": 110
    },
    {
      "midi": 62,
      "hit": false,
      "t": 104571.32400000011,
      "d": 1499.9985000000015,
      "v": 110
    },
    {
      "midi": 74,
      "hit": false,
      "t": 104571.32400000011,
      "d": 1499.9985000000015,
      "v": 110
    },
    {
      "midi": 38,
      "hit": false,
      "t": 104571.32400000011,
      "d": 419.64243750000605,
      "v": 110
    },
    {
      "midi": 50,
      "hit": false,
      "t": 104571.32400000011,
      "d": 419.64243750000605,
      "v": 110
    },
    {
      "midi": 38,
      "hit": false,
      "t": 104999.89500000012,
      "d": 419.64243750000605,
      "v": 110
    },
    {
      "midi": 50,
      "hit": false,
      "t": 104999.89500000012,
      "d": 419.64243750000605,
      "v": 110
    },
    {
      "midi": 67,
      "hit": false,
      "t": 106285.60800000011,
      "d": 1499.9985000000015,
      "v": 110
    },
    {
      "midi": 79,
      "hit": false,
      "t": 106285.60800000011,
      "d": 1499.9985000000015,
      "v": 110
    },
    {
      "midi": 43,
      "hit": false,
      "t": 106285.60800000012,
      "d": 1499.9985000000015,
      "v": 110
    },
    {
      "midi": 55,
      "hit": false,
      "t": 106285.60800000012,
      "d": 1499.9985000000015,
      "v": 110
    },
    {
      "midi": 74,
      "hit": false,
      "t": 107999.89200000011,
      "d": 1499.9985000000015,
      "v": 110
    },
    {
      "midi": 86,
      "hit": false,
      "t": 107999.89200000011,
      "d": 1499.9985000000015,
      "v": 110
    },
    {
      "midi": 38,
      "hit": false,
      "t": 107999.89200000012,
      "d": 1499.9985000000015,
      "v": 110
    },
    {
      "midi": 50,
      "hit": false,
      "t": 107999.89200000012,
      "d": 1499.9985000000015,
      "v": 110
    },
    {
      "midi": 72,
      "hit": false,
      "t": 109714.17600000011,
      "d": 1142.8559999999998,
      "v": 110
    },
    {
      "midi": 84,
      "hit": false,
      "t": 109714.17600000011,
      "d": 1142.8559999999998,
      "v": 110
    },
    {
      "midi": 48,
      "hit": false,
      "t": 109714.17600000012,
      "d": 1142.8559999999998,
      "v": 110
    },
    {
      "midi": 60,
      "hit": false,
      "t": 109714.17600000012,
      "d": 1142.8559999999998,
      "v": 110
    },
    {
      "midi": 70,
      "hit": false,
      "t": 110999.88900000011,
      "d": 205.35693749999336,
      "v": 110
    },
    {
      "midi": 82,
      "hit": false,
      "t": 110999.88900000011,
      "d": 205.35693749999336,
      "v": 110
    },
    {
      "midi": 46,
      "hit": false,
      "t": 110999.88900000013,
      "d": 205.35693749999336,
      "v": 110
    },
    {
      "midi": 58,
      "hit": false,
      "t": 110999.88900000013,
      "d": 205.35693749999336,
      "v": 110
    },
    {
      "midi": 69,
      "hit": false,
      "t": 111214.17450000011,
      "d": 205.35693749999336,
      "v": 110
    },
    {
      "midi": 81,
      "hit": false,
      "t": 111214.17450000011,
      "d": 205.35693749999336,
      "v": 110
    },
    {
      "midi": 45,
      "hit": false,
      "t": 111214.17450000012,
      "d": 205.35693749999336,
      "v": 110
    },
    {
      "midi": 57,
      "hit": false,
      "t": 111214.17450000012,
      "d": 205.35693749999336,
      "v": 110
    },
    {
      "midi": 67,
      "hit": false,
      "t": 111428.46000000011,
      "d": 1499.9985000000015,
      "v": 110
    },
    {
      "midi": 79,
      "hit": false,
      "t": 111428.46000000011,
      "d": 1499.9985000000015,
      "v": 110
    },
    {
      "midi": 43,
      "hit": false,
      "t": 111428.46000000012,
      "d": 1499.9985000000015,
      "v": 110
    },
    {
      "midi": 55,
      "hit": false,
      "t": 111428.46000000012,
      "d": 1499.9985000000015,
      "v": 110
    },
    {
      "midi": 55,
      "hit": false,
      "t": 116999.8830000001,
      "d": 419.64243750000605,
      "v": 110
    },
    {
      "midi": 60,
      "hit": false,
      "t": 116999.8830000001,
      "d": 419.64243750000605,
      "v": 110
    },
    {
      "midi": 36,
      "hit": false,
      "t": 116999.88300000012,
      "d": 419.64243750000605,
      "v": 110
    },
    {
      "midi": 48,
      "hit": false,
      "t": 116999.88300000012,
      "d": 419.64243750000605,
      "v": 110
    },
    {
      "midi": 55,
      "hit": false,
      "t": 117857.02500000011,
      "d": 419.64243750000605,
      "v": 110
    },
    {
      "midi": 60,
      "hit": false,
      "t": 117857.02500000011,
      "d": 419.64243750000605,
      "v": 110
    },
    {
      "midi": 36,
      "hit": false,
      "t": 117857.02500000013,
      "d": 419.64243750000605,
      "v": 110
    },
    {
      "midi": 48,
      "hit": false,
      "t": 117857.02500000013,
      "d": 419.64243750000605,
      "v": 110
    },
    {
      "midi": 55,
      "hit": false,
      "t": 118285.59600000012,
      "d": 714.2850000000035,
      "v": 110
    },
    {
      "midi": 62,
      "hit": false,
      "t": 118285.59600000012,
      "d": 714.2850000000035,
      "v": 110
    },
    {
      "midi": 36,
      "hit": false,
      "t": 118285.59600000014,
      "d": 714.2850000000035,
      "v": 110
    },
    {
      "midi": 48,
      "hit": false,
      "t": 118285.59600000014,
      "d": 714.2850000000035,
      "v": 110
    },
    {
      "midi": 55,
      "hit": false,
      "t": 119142.73800000013,
      "d": 419.64243750000605,
      "v": 110
    },
    {
      "midi": 62,
      "hit": false,
      "t": 119142.73800000013,
      "d": 419.64243750000605,
      "v": 110
    },
    {
      "midi": 36,
      "hit": false,
      "t": 119142.73800000014,
      "d": 419.64243750000605,
      "v": 110
    },
    {
      "midi": 48,
      "hit": false,
      "t": 119142.73800000014,
      "d": 419.64243750000605,
      "v": 110
    },
    {
      "midi": 55,
      "hit": false,
      "t": 119571.30900000014,
      "d": 419.64243750000605,
      "v": 110
    },
    {
      "midi": 63,
      "hit": false,
      "t": 119571.30900000014,
      "d": 419.64243750000605,
      "v": 110
    },
    {
      "midi": 36,
      "hit": false,
      "t": 119571.30900000015,
      "d": 419.64243750000605,
      "v": 110
    },
    {
      "midi": 48,
      "hit": false,
      "t": 119571.30900000015,
      "d": 419.64243750000605,
      "v": 110
    },
    {
      "midi": 55,
      "hit": false,
      "t": 120428.45100000015,
      "d": 419.64243750000605,
      "v": 110
    },
    {
      "midi": 63,
      "hit": false,
      "t": 120428.45100000015,
      "d": 419.64243750000605,
      "v": 110
    },
    {
      "midi": 36,
      "hit": false,
      "t": 120428.45100000016,
      "d": 419.64243750000605,
      "v": 110
    },
    {
      "midi": 48,
      "hit": false,
      "t": 120428.45100000016,
      "d": 419.64243750000605,
      "v": 110
    },
    {
      "midi": 55,
      "hit": false,
      "t": 120857.02200000016,
      "d": 714.2850000000035,
      "v": 110
    },
    {
      "midi": 65,
      "hit": false,
      "t": 120857.02200000016,
      "d": 714.2850000000035,
      "v": 110
    },
    {
      "midi": 36,
      "hit": false,
      "t": 120857.02200000017,
      "d": 714.2850000000035,
      "v": 110
    },
    {
      "midi": 48,
      "hit": false,
      "t": 120857.02200000017,
      "d": 714.2850000000035,
      "v": 110
    },
    {
      "midi": 56,
      "hit": false,
      "t": 121714.16400000016,
      "d": 562.4994374999951,
      "v": 110
    },
    {
      "midi": 61,
      "hit": false,
      "t": 121714.16400000016,
      "d": 562.4994374999951,
      "v": 110
    },
    {
      "midi": 66,
      "hit": false,
      "t": 121714.16400000016,
      "d": 562.4994374999951,
      "v": 110
    },
    {
      "midi": 37,
      "hit": false,
      "t": 121714.16400000018,
      "d": 562.4994374999951,
      "v": 110
    },
    {
      "midi": 49,
      "hit": false,
      "t": 121714.16400000018,
      "d": 562.4994374999951,
      "v": 110
    },
    {
      "midi": 57,
      "hit": false,
      "t": 122285.59200000016,
      "d": 562.4994374999951,
      "v": 110
    },
    {
      "midi": 62,
      "hit": false,
      "t": 122285.59200000016,
      "d": 562.4994374999951,
      "v": 110
    },
    {
      "midi": 67,
      "hit": false,
      "t": 122285.59200000016,
      "d": 562.4994374999951,
      "v": 110
    },
    {
      "midi": 38,
      "hit": false,
      "t": 122285.59200000018,
      "d": 562.4994374999951,
      "v": 110
    },
    {
      "midi": 50,
      "hit": false,
      "t": 122285.59200000018,
      "d": 562.4994374999951,
      "v": 110
    },
    {
      "midi": 58,
      "hit": false,
      "t": 122857.02000000016,
      "d": 562.4994374999951,
      "v": 110
    },
    {
      "midi": 63,
      "hit": false,
      "t": 122857.02000000016,
      "d": 562.4994374999951,
      "v": 110
    },
    {
      "midi": 68,
      "hit": false,
      "t": 122857.02000000016,
      "d": 562.4994374999951,
      "v": 110
    },
    {
      "midi": 39,
      "hit": false,
      "t": 122857.02000000018,
      "d": 562.4994374999951,
      "v": 110
    },
    {
      "midi": 51,
      "hit": false,
      "t": 122857.02000000018,
      "d": 562.4994374999951,
      "v": 110
    },
    {
      "midi": 58,
      "hit": false,
      "t": 123857.01900000016,
      "d": 419.64243750000605,
      "v": 110
    },
    {
      "midi": 63,
      "hit": false,
      "t": 123857.01900000016,
      "d": 419.64243750000605,
      "v": 110
    },
    {
      "midi": 39,
      "hit": false,
      "t": 123857.01900000017,
      "d": 419.64243750000605,
      "v": 110
    },
    {
      "midi": 51,
      "hit": false,
      "t": 123857.01900000017,
      "d": 419.64243750000605,
      "v": 110
    },
    {
      "midi": 58,
      "hit": false,
      "t": 124714.16100000017,
      "d": 419.64243750000605,
      "v": 110
    },
    {
      "midi": 63,
      "hit": false,
      "t": 124714.16100000017,
      "d": 419.64243750000605,
      "v": 110
    },
    {
      "midi": 39,
      "hit": false,
      "t": 124714.16100000018,
      "d": 419.64243750000605,
      "v": 110
    },
    {
      "midi": 51,
      "hit": false,
      "t": 124714.16100000018,
      "d": 419.64243750000605,
      "v": 110
    },
    {
      "midi": 58,
      "hit": false,
      "t": 125142.73200000018,
      "d": 714.2850000000035,
      "v": 110
    },
    {
      "midi": 65,
      "hit": false,
      "t": 125142.73200000018,
      "d": 714.2850000000035,
      "v": 110
    },
    {
      "midi": 39,
      "hit": false,
      "t": 125142.7320000002,
      "d": 714.2850000000035,
      "v": 110
    },
    {
      "midi": 51,
      "hit": false,
      "t": 125142.7320000002,
      "d": 714.2850000000035,
      "v": 110
    },
    {
      "midi": 58,
      "hit": false,
      "t": 125999.87400000019,
      "d": 419.64243750000605,
      "v": 110
    },
    {
      "midi": 65,
      "hit": false,
      "t": 125999.87400000019,
      "d": 419.64243750000605,
      "v": 110
    },
    {
      "midi": 39,
      "hit": false,
      "t": 125999.8740000002,
      "d": 419.64243750000605,
      "v": 110
    },
    {
      "midi": 51,
      "hit": false,
      "t": 125999.8740000002,
      "d": 419.64243750000605,
      "v": 110
    },
    {
      "midi": 58,
      "hit": false,
      "t": 126428.4450000002,
      "d": 419.64243750000605,
      "v": 110
    },
    {
      "midi": 66,
      "hit": false,
      "t": 126428.4450000002,
      "d": 419.64243750000605,
      "v": 110
    },
    {
      "midi": 39,
      "hit": false,
      "t": 126428.44500000021,
      "d": 419.64243750000605,
      "v": 110
    },
    {
      "midi": 51,
      "hit": false,
      "t": 126428.44500000021,
      "d": 419.64243750000605,
      "v": 110
    },
    {
      "midi": 58,
      "hit": false,
      "t": 127285.5870000002,
      "d": 419.64243750000605,
      "v": 110
    },
    {
      "midi": 66,
      "hit": false,
      "t": 127285.5870000002,
      "d": 419.64243750000605,
      "v": 110
    },
    {
      "midi": 39,
      "hit": false,
      "t": 127285.58700000022,
      "d": 419.64243750000605,
      "v": 110
    },
    {
      "midi": 51,
      "hit": false,
      "t": 127285.58700000022,
      "d": 419.64243750000605,
      "v": 110
    },
    {
      "midi": 59,
      "hit": false,
      "t": 127714.15800000021,
      "d": 714.2850000000035,
      "v": 110
    },
    {
      "midi": 68,
      "hit": false,
      "t": 127714.15800000021,
      "d": 714.2850000000035,
      "v": 110
    },
    {
      "midi": 39,
      "hit": false,
      "t": 127714.15800000023,
      "d": 714.2850000000035,
      "v": 110
    },
    {
      "midi": 51,
      "hit": false,
      "t": 127714.15800000023,
      "d": 714.2850000000035,
      "v": 110
    },
    {
      "midi": 60,
      "hit": false,
      "t": 128571.30000000022,
      "d": 562.4994374999951,
      "v": 110
    },
    {
      "midi": 64,
      "hit": false,
      "t": 128571.30000000022,
      "d": 562.4994374999951,
      "v": 110
    },
    {
      "midi": 69,
      "hit": false,
      "t": 128571.30000000022,
      "d": 562.4994374999951,
      "v": 110
    },
    {
      "midi": 40,
      "hit": false,
      "t": 128571.30000000024,
      "d": 562.4994374999951,
      "v": 110
    },
    {
      "midi": 52,
      "hit": false,
      "t": 128571.30000000024,
      "d": 562.4994374999951,
      "v": 110
    },
    {
      "midi": 61,
      "hit": false,
      "t": 129142.72800000022,
      "d": 562.4994374999951,
      "v": 110
    },
    {
      "midi": 65,
      "hit": false,
      "t": 129142.72800000022,
      "d": 562.4994374999951,
      "v": 110
    },
    {
      "midi": 70,
      "hit": false,
      "t": 129142.72800000022,
      "d": 562.4994374999951,
      "v": 110
    },
    {
      "midi": 41,
      "hit": false,
      "t": 129142.72800000024,
      "d": 562.4994374999951,
      "v": 110
    },
    {
      "midi": 53,
      "hit": false,
      "t": 129142.72800000024,
      "d": 562.4994374999951,
      "v": 110
    },
    {
      "midi": 62,
      "hit": false,
      "t": 129714.15600000022,
      "d": 562.4994374999951,
      "v": 110
    },
    {
      "midi": 66,
      "hit": false,
      "t": 129714.15600000022,
      "d": 562.4994374999951,
      "v": 110
    },
    {
      "midi": 71,
      "hit": false,
      "t": 129714.15600000022,
      "d": 562.4994374999951,
      "v": 110
    },
    {
      "midi": 42,
      "hit": false,
      "t": 129714.15600000024,
      "d": 562.4994374999951,
      "v": 110
    },
    {
      "midi": 54,
      "hit": false,
      "t": 129714.15600000024,
      "d": 562.4994374999951,
      "v": 110
    },
    {
      "midi": 76,
      "hit": false,
      "t": 131999.86800000022,
      "d": 714.2850000000035,
      "v": 110
    },
    {
      "midi": 74,
      "hit": false,
      "t": 132857.0100000002,
      "d": 714.2850000000035,
      "v": 110
    },
    {
      "midi": 72,
      "hit": false,
      "t": 133714.1520000002,
      "d": 1499.998499999987,
      "v": 110
    },
    {
      "midi": 45,
      "hit": false,
      "t": 133714.15200000023,
      "d": 428.5709999999963,
      "v": 110
    },
    {
      "midi": 52,
      "hit": false,
      "t": 134142.72300000023,
      "d": 428.5709999999963,
      "v": 110
    },
    {
      "midi": 57,
      "hit": false,
      "t": 134571.29400000023,
      "d": 428.5709999999963,
      "v": 110
    },
    {
      "midi": 59,
      "hit": false,
      "t": 134999.86500000022,
      "d": 428.5709999999963,
      "v": 110
    },
    {
      "midi": 60,
      "hit": false,
      "t": 135428.43600000022,
      "d": 428.5709999999963,
      "v": 110
    },
    {
      "midi": 74,
      "hit": false,
      "t": 135857.0070000002,
      "d": 419.64243750000605,
      "v": 110
    },
    {
      "midi": 59,
      "hit": false,
      "t": 135857.00700000022,
      "d": 428.5709999999963,
      "v": 110
    },
    {
      "midi": 76,
      "hit": false,
      "t": 136285.57800000018,
      "d": 419.64243750000605,
      "v": 110
    },
    {
      "midi": 57,
      "hit": false,
      "t": 136285.5780000002,
      "d": 428.5709999999963,
      "v": 110
    },
    {
      "midi": 69,
      "hit": false,
      "t": 136714.14900000018,
      "d": 419.64243750000605,
      "v": 110
    },
    {
      "midi": 52,
      "hit": false,
      "t": 136714.1490000002,
      "d": 419.64243750000605,
      "v": 110
    },
    {
      "midi": 76,
      "hit": false,
      "t": 137142.72000000018,
      "d": 714.2850000000035,
      "v": 110
    },
    {
      "midi": 41,
      "hit": false,
      "t": 137142.7200000002,
      "d": 428.5709999999963,
      "v": 110
    },
    {
      "midi": 48,
      "hit": false,
      "t": 137571.2910000002,
      "d": 428.5709999999963,
      "v": 110
    },
    {
      "midi": 74,
      "hit": false,
      "t": 137999.86200000017,
      "d": 714.2850000000035,
      "v": 110
    },
    {
      "midi": 53,
      "hit": false,
      "t": 137999.8620000002,
      "d": 428.5709999999963,
      "v": 110
    },
    {
      "midi": 55,
      "hit": false,
      "t": 138428.4330000002,
      "d": 428.5709999999963,
      "v": 110
    },
    {
      "midi": 57,
      "hit": false,
      "t": 138857.0040000002,
      "d": 857.1419999999925,
      "v": 110
    },
    {
      "midi": 72,
      "hit": false,
      "t": 139714.14600000018,
      "d": 419.64243750000605,
      "v": 110
    },
    {
      "midi": 53,
      "hit": false,
      "t": 139714.14600000018,
      "d": 428.5709999999963,
      "v": 110
    },
    {
      "midi": 74,
      "hit": false,
      "t": 140142.71700000018,
      "d": 419.64243750000605,
      "v": 110
    },
    {
      "midi": 48,
      "hit": false,
      "t": 140142.71700000018,
      "d": 419.64243750000605,
      "v": 110
    },
    {
      "midi": 76,
      "hit": false,
      "t": 140571.28800000018,
      "d": 1499.998499999987,
      "v": 110
    },
    {
      "midi": 48,
      "hit": false,
      "t": 140571.28800000018,
      "d": 428.5709999999963,
      "v": 110
    },
    {
      "midi": 55,
      "hit": false,
      "t": 140999.85900000017,
      "d": 428.5709999999963,
      "v": 110
    },
    {
      "midi": 60,
      "hit": false,
      "t": 141428.43000000017,
      "d": 428.5709999999963,
      "v": 110
    },
    {
      "midi": 62,
      "hit": false,
      "t": 141857.00100000016,
      "d": 428.5709999999963,
      "v": 110
    },
    {
      "midi": 64,
      "hit": false,
      "t": 142285.57200000016,
      "d": 428.5709999999963,
      "v": 110
    },
    {
      "midi": 81,
      "hit": false,
      "t": 142714.14300000016,
      "d": 419.64243750000605,
      "v": 110
    },
    {
      "midi": 62,
      "hit": false,
      "t": 142714.14300000016,
      "d": 428.5709999999963,
      "v": 110
    },
    {
      "midi": 79,
      "hit": false,
      "t": 143142.71400000015,
      "d": 419.64243750000605,
      "v": 110
    },
    {
      "midi": 60,
      "hit": false,
      "t": 143142.71400000015,
      "d": 428.5709999999963,
      "v": 110
    },
    {
      "midi": 76,
      "hit": false,
      "t": 143571.28500000015,
      "d": 419.64243750000605,
      "v": 110
    },
    {
      "midi": 55,
      "hit": false,
      "t": 143571.28500000015,
      "d": 419.64243750000605,
      "v": 110
    },
    {
      "midi": 72,
      "hit": false,
      "t": 143999.85600000015,
      "d": 714.2850000000035,
      "v": 110
    },
    {
      "midi": 43,
      "hit": false,
      "t": 143999.85600000015,
      "d": 428.5709999999963,
      "v": 110
    },
    {
      "midi": 50,
      "hit": false,
      "t": 144428.42700000014,
      "d": 428.5709999999963,
      "v": 110
    },
    {
      "midi": 74,
      "hit": false,
      "t": 144856.99800000014,
      "d": 1499.998499999987,
      "v": 110
    },
    {
      "midi": 57,
      "hit": false,
      "t": 144856.99800000014,
      "d": 428.5709999999963,
      "v": 110
    },
    {
      "midi": 59,
      "hit": false,
      "t": 145285.56900000013,
      "d": 428.5709999999963,
      "v": 110
    },
    {
      "midi": 60,
      "hit": false,
      "t": 145714.14000000013,
      "d": 428.5709999999963,
      "v": 110
    },
    {
      "midi": 59,
      "hit": false,
      "t": 146142.71100000013,
      "d": 428.5709999999963,
      "v": 110
    },
    {
      "midi": 76,
      "hit": false,
      "t": 146571.28200000012,
      "d": 419.64243750000605,
      "v": 110
    },
    {
      "midi": 57,
      "hit": false,
      "t": 146571.28200000012,
      "d": 428.5709999999963,
      "v": 110
    },
    {
      "midi": 81,
      "hit": false,
      "t": 146999.85300000012,
      "d": 419.64243750000605,
      "v": 110
    },
    {
      "midi": 52,
      "hit": false,
      "t": 146999.85300000012,
      "d": 419.64243750000605,
      "v": 110
    },
    {
      "midi": 76,
      "hit": false,
      "t": 147428.42400000012,
      "d": 1499.998499999987,
      "v": 110
    },
    {
      "midi": 84,
      "hit": false,
      "t": 147428.42400000012,
      "d": 1499.998499999987,
      "v": 110
    },
    {
      "midi": 45,
      "hit": false,
      "t": 147428.42400000012,
      "d": 428.5709999999963,
      "v": 110
    },
    {
      "midi": 52,
      "hit": false,
      "t": 147856.9950000001,
      "d": 428.5709999999963,
      "v": 110
    },
    {
      "midi": 57,
      "hit": false,
      "t": 148285.5660000001,
      "d": 428.5709999999963,
      "v": 110
    },
    {
      "midi": 59,
      "hit": false,
      "t": 148714.1370000001,
      "d": 428.5709999999963,
      "v": 110
    },
    {
      "midi": 60,
      "hit": false,
      "t": 149142.7080000001,
      "d": 428.5709999999963,
      "v": 110
    },
    {
      "midi": 74,
      "hit": false,
      "t": 149571.2790000001,
      "d": 419.64243750000605,
      "v": 110
    },
    {
      "midi": 83,
      "hit": false,
      "t": 149571.2790000001,
      "d": 419.64243750000605,
      "v": 110
    },
    {
      "midi": 59,
      "hit": false,
      "t": 149571.2790000001,
      "d": 428.5709999999963,
      "v": 110
    },
    {
      "midi": 76,
      "hit": false,
      "t": 149999.8500000001,
      "d": 419.64243750000605,
      "v": 110
    },
    {
      "midi": 84,
      "hit": false,
      "t": 149999.8500000001,
      "d": 419.64243750000605,
      "v": 110
    },
    {
      "midi": 57,
      "hit": false,
      "t": 149999.8500000001,
      "d": 428.5709999999963,
      "v": 110
    },
    {
      "midi": 77,
      "hit": false,
      "t": 150428.4210000001,
      "d": 419.64243750000605,
      "v": 110
    },
    {
      "midi": 86,
      "hit": false,
      "t": 150428.4210000001,
      "d": 419.64243750000605,
      "v": 110
    },
    {
      "midi": 52,
      "hit": false,
      "t": 150428.4210000001,
      "d": 419.64243750000605,
      "v": 110
    },
    {
      "midi": 76,
      "hit": false,
      "t": 150856.9920000001,
      "d": 714.2850000000035,
      "v": 110
    },
    {
      "midi": 84,
      "hit": false,
      "t": 150856.9920000001,
      "d": 714.2850000000035,
      "v": 110
    },
    {
      "midi": 41,
      "hit": false,
      "t": 150856.9920000001,
      "d": 428.5709999999963,
      "v": 110
    },
    {
      "midi": 48,
      "hit": false,
      "t": 151285.56300000008,
      "d": 428.5709999999963,
      "v": 110
    },
    {
      "midi": 72,
      "hit": false,
      "t": 151714.13400000008,
      "d": 1499.998499999987,
      "v": 110
    },
    {
      "midi": 81,
      "hit": false,
      "t": 151714.13400000008,
      "d": 1499.998499999987,
      "v": 110
    },
    {
      "midi": 53,
      "hit": false,
      "t": 151714.13400000008,
      "d": 428.5709999999963,
      "v": 110
    },
    {
      "midi": 55,
      "hit": false,
      "t": 152142.70500000007,
      "d": 428.5709999999963,
      "v": 110
    },
    {
      "midi": 57,
      "hit": false,
      "t": 152571.27600000007,
      "d": 857.1419999999925,
      "v": 110
    },
    {
      "midi": 71,
      "hit": false,
      "t": 153428.41800000006,
      "d": 419.64243750000605,
      "v": 110
    },
    {
      "midi": 79,
      "hit": false,
      "t": 153428.41800000006,
      "d": 419.64243750000605,
      "v": 110
    },
    {
      "midi": 53,
      "hit": false,
      "t": 153428.41800000006,
      "d": 428.5709999999963,
      "v": 110
    },
    {
      "midi": 72,
      "hit": false,
      "t": 153856.98900000006,
      "d": 419.64243750000605,
      "v": 110
    },
    {
      "midi": 81,
      "hit": false,
      "t": 153856.98900000006,
      "d": 419.64243750000605,
      "v": 110
    },
    {
      "midi": 48,
      "hit": false,
      "t": 153856.98900000006,
      "d": 419.64243750000605,
      "v": 110
    },
    {
      "midi": 74,
      "hit": false,
      "t": 154285.56000000006,
      "d": 714.2850000000035,
      "v": 110
    },
    {
      "midi": 83,
      "hit": false,
      "t": 154285.56000000006,
      "d": 714.2850000000035,
      "v": 110
    },
    {
      "midi": 40,
      "hit": false,
      "t": 154285.56000000006,
      "d": 428.5709999999963,
      "v": 110
    },
    {
      "midi": 47,
      "hit": false,
      "t": 154714.13100000005,
      "d": 428.5709999999963,
      "v": 110
    },
    {
      "midi": 52,
      "hit": false,
      "t": 155142.70200000005,
      "d": 428.5709999999963,
      "v": 110
    },
    {
      "midi": 55,
      "hit": false,
      "t": 155571.27300000004,
      "d": 428.5709999999963,
      "v": 110
    },
    {
      "midi": 76,
      "hit": false,
      "t": 155571.27300000007,
      "d": 419.64243750000605,
      "v": 110
    },
    {
      "midi": 84,
      "hit": false,
      "t": 155571.27300000007,
      "d": 419.64243750000605,
      "v": 110
    },
    {
      "midi": 59,
      "hit": false,
      "t": 155999.84400000004,
      "d": 428.5709999999963,
      "v": 110
    },
    {
      "midi": 74,
      "hit": false,
      "t": 155999.84400000007,
      "d": 562.4994374999951,
      "v": 110
    },
    {
      "midi": 83,
      "hit": false,
      "t": 155999.84400000007,
      "d": 562.4994374999951,
      "v": 110
    },
    {
      "midi": 55,
      "hit": false,
      "t": 156428.41500000004,
      "d": 428.5709999999963,
      "v": 110
    },
    {
      "midi": 72,
      "hit": false,
      "t": 156571.27200000006,
      "d": 562.4994374999951,
      "v": 110
    },
    {
      "midi": 81,
      "hit": false,
      "t": 156571.27200000006,
      "d": 562.4994374999951,
      "v": 110
    },
    {
      "midi": 52,
      "hit": false,
      "t": 156856.98600000003,
      "d": 428.5709999999963,
      "v": 110
    },
    {
      "midi": 71,
      "hit": false,
      "t": 157142.70000000004,
      "d": 562.4994374999951,
      "v": 110
    },
    {
      "midi": 79,
      "hit": false,
      "t": 157142.70000000004,
      "d": 562.4994374999951,
      "v": 110
    },
    {
      "midi": 47,
      "hit": false,
      "t": 157285.55700000003,
      "d": 419.64243750000605,
      "v": 110
    },
    {
      "midi": 69,
      "hit": false,
      "t": 157714.12800000003,
      "d": 1499.998499999987,
      "v": 110
    },
    {
      "midi": 74,
      "hit": false,
      "t": 157714.12800000003,
      "d": 1499.998499999987,
      "v": 110
    },
    {
      "midi": 78,
      "hit": false,
      "t": 157714.12800000003,
      "d": 1499.998499999987,
      "v": 110
    },
    {
      "midi": 81,
      "hit": false,
      "t": 157714.12800000003,
      "d": 1499.998499999987,
      "v": 110
    },
    {
      "midi": 38,
      "hit": false,
      "t": 157714.12800000003,
      "d": 428.5709999999963,
      "v": 110
    },
    {
      "midi": 45,
      "hit": false,
      "t": 158142.69900000002,
      "d": 428.5709999999963,
      "v": 110
    },
    {
      "midi": 50,
      "hit": false,
      "t": 158571.27000000002,
      "d": 428.5709999999963,
      "v": 110
    },
    {
      "midi": 54,
      "hit": false,
      "t": 158999.84100000001,
      "d": 428.5709999999963,
      "v": 110
    },
    {
      "midi": 57,
      "hit": false,
      "t": 159428.412,
      "d": 419.64243750000605,
      "v": 110
    },
    {
      "midi": 62,
      "hit": false,
      "t": 159856.983,
      "d": 419.64243750000605,
      "v": 110
    },
    {
      "midi": 66,
      "hit": false,
      "t": 160285.554,
      "d": 428.5709999999963,
      "v": 110
    },
    {
      "midi": 69,
      "hit": false,
      "t": 160714.125,
      "d": 419.64243750000605,
      "v": 110
    },
    {
      "midi": 74,
      "hit": false,
      "t": 161142.696,
      "d": 1499.998499999987,
      "v": 110
    },
    {
      "midi": 64,
      "hit": false,
      "t": 162856.97999999998,
      "d": 714.2850000000035,
      "v": 110
    },
    {
      "midi": 76,
      "hit": false,
      "t": 162856.97999999998,
      "d": 714.2850000000035,
      "v": 110
    },
    {
      "midi": 62,
      "hit": false,
      "t": 163714.12199999997,
      "d": 714.2850000000035,
      "v": 110
    },
    {
      "midi": 74,
      "hit": false,
      "t": 163714.12199999997,
      "d": 714.2850000000035,
      "v": 110
    },
    {
      "midi": 60,
      "hit": false,
      "t": 164571.26399999997,
      "d": 1499.998499999987,
      "v": 110
    },
    {
      "midi": 72,
      "hit": false,
      "t": 164571.26399999997,
      "d": 1499.998499999987,
      "v": 110
    },
    {
      "midi": 45,
      "hit": false,
      "t": 164571.26400000002,
      "d": 205.35693750000792,
      "v": 110
    },
    {
      "midi": 48,
      "hit": false,
      "t": 164571.26400000002,
      "d": 205.35693750000792,
      "v": 110
    },
    {
      "midi": 52,
      "hit": false,
      "t": 164571.26400000002,
      "d": 205.35693750000792,
      "v": 110
    },
    {
      "midi": 45,
      "hit": false,
      "t": 164785.54950000002,
      "d": 205.35693750000792,
      "v": 110
    },
    {
      "midi": 48,
      "hit": false,
      "t": 164785.54950000002,
      "d": 205.35693750000792,
      "v": 110
    },
    {
      "midi": 52,
      "hit": false,
      "t": 164785.54950000002,
      "d": 205.35693750000792,
      "v": 110
    },
    {
      "midi": 45,
      "hit": false,
      "t": 164999.83500000002,
      "d": 205.35693750000792,
      "v": 110
    },
    {
      "midi": 48,
      "hit": false,
      "t": 164999.83500000002,
      "d": 205.35693750000792,
      "v": 110
    },
    {
      "midi": 52,
      "hit": false,
      "t": 164999.83500000002,
      "d": 205.35693750000792,
      "v": 110
    },
    {
      "midi": 45,
      "hit": false,
      "t": 165856.97700000004,
      "d": 205.35693750000792,
      "v": 110
    },
    {
      "midi": 48,
      "hit": false,
      "t": 165856.97700000004,
      "d": 205.35693750000792,
      "v": 110
    },
    {
      "midi": 52,
      "hit": false,
      "t": 165856.97700000004,
      "d": 205.35693750000792,
      "v": 110
    },
    {
      "midi": 45,
      "hit": false,
      "t": 166071.26250000004,
      "d": 205.35693750000792,
      "v": 110
    },
    {
      "midi": 48,
      "hit": false,
      "t": 166071.26250000004,
      "d": 205.35693750000792,
      "v": 110
    },
    {
      "midi": 52,
      "hit": false,
      "t": 166071.26250000004,
      "d": 205.35693750000792,
      "v": 110
    },
    {
      "midi": 45,
      "hit": false,
      "t": 166285.54800000004,
      "d": 205.35693750000792,
      "v": 110
    },
    {
      "midi": 48,
      "hit": false,
      "t": 166285.54800000004,
      "d": 205.35693750000792,
      "v": 110
    },
    {
      "midi": 52,
      "hit": false,
      "t": 166285.54800000004,
      "d": 205.35693750000792,
      "v": 110
    },
    {
      "midi": 62,
      "hit": false,
      "t": 166714.11899999995,
      "d": 419.64243750000605,
      "v": 110
    },
    {
      "midi": 74,
      "hit": false,
      "t": 166714.11899999995,
      "d": 419.64243750000605,
      "v": 110
    },
    {
      "midi": 64,
      "hit": false,
      "t": 167142.68999999994,
      "d": 419.64243750000605,
      "v": 110
    },
    {
      "midi": 76,
      "hit": false,
      "t": 167142.68999999994,
      "d": 419.64243750000605,
      "v": 110
    },
    {
      "midi": 45,
      "hit": false,
      "t": 167142.69000000006,
      "d": 205.35693750000792,
      "v": 110
    },
    {
      "midi": 48,
      "hit": false,
      "t": 167142.69000000006,
      "d": 205.35693750000792,
      "v": 110
    },
    {
      "midi": 52,
      "hit": false,
      "t": 167142.69000000006,
      "d": 205.35693750000792,
      "v": 110
    },
    {
      "midi": 45,
      "hit": false,
      "t": 167356.97550000006,
      "d": 205.35693750000792,
      "v": 110
    },
    {
      "midi": 48,
      "hit": false,
      "t": 167356.97550000006,
      "d": 205.35693750000792,
      "v": 110
    },
    {
      "midi": 52,
      "hit": false,
      "t": 167356.97550000006,
      "d": 205.35693750000792,
      "v": 110
    },
    {
      "midi": 57,
      "hit": false,
      "t": 167571.26099999994,
      "d": 419.64243750000605,
      "v": 110
    },
    {
      "midi": 69,
      "hit": false,
      "t": 167571.26099999994,
      "d": 419.64243750000605,
      "v": 110
    },
    {
      "midi": 45,
      "hit": false,
      "t": 167571.26100000006,
      "d": 205.35693750000792,
      "v": 110
    },
    {
      "midi": 48,
      "hit": false,
      "t": 167571.26100000006,
      "d": 205.35693750000792,
      "v": 110
    },
    {
      "midi": 52,
      "hit": false,
      "t": 167571.26100000006,
      "d": 205.35693750000792,
      "v": 110
    },
    {
      "midi": 64,
      "hit": false,
      "t": 167999.83199999994,
      "d": 714.2850000000035,
      "v": 110
    },
    {
      "midi": 76,
      "hit": false,
      "t": 167999.83199999994,
      "d": 714.2850000000035,
      "v": 110
    },
    {
      "midi": 41,
      "hit": false,
      "t": 167999.83200000005,
      "d": 205.35693750000792,
      "v": 110
    },
    {
      "midi": 45,
      "hit": false,
      "t": 167999.83200000005,
      "d": 205.35693750000792,
      "v": 110
    },
    {
      "midi": 48,
      "hit": false,
      "t": 167999.83200000005,
      "d": 205.35693750000792,
      "v": 110
    },
    {
      "midi": 41,
      "hit": false,
      "t": 168214.11750000005,
      "d": 205.35693750000792,
      "v": 110
    },
    {
      "midi": 45,
      "hit": false,
      "t": 168214.11750000005,
      "d": 205.35693750000792,
      "v": 110
    },
    {
      "midi": 48,
      "hit": false,
      "t": 168214.11750000005,
      "d": 205.35693750000792,
      "v": 110
    },
    {
      "midi": 41,
      "hit": false,
      "t": 168428.40300000005,
      "d": 205.35693750000792,
      "v": 110
    },
    {
      "midi": 45,
      "hit": false,
      "t": 168428.40300000005,
      "d": 205.35693750000792,
      "v": 110
    },
    {
      "midi": 48,
      "hit": false,
      "t": 168428.40300000005,
      "d": 205.35693750000792,
      "v": 110
    },
    {
      "midi": 62,
      "hit": false,
      "t": 168856.97399999993,
      "d": 714.2850000000035,
      "v": 110
    },
    {
      "midi": 74,
      "hit": false,
      "t": 168856.97399999993,
      "d": 714.2850000000035,
      "v": 110
    },
    {
      "midi": 41,
      "hit": false,
      "t": 169285.54500000007,
      "d": 205.35693750000792,
      "v": 110
    },
    {
      "midi": 45,
      "hit": false,
      "t": 169285.54500000007,
      "d": 205.35693750000792,
      "v": 110
    },
    {
      "midi": 48,
      "hit": false,
      "t": 169285.54500000007,
      "d": 205.35693750000792,
      "v": 110
    },
    {
      "midi": 41,
      "hit": false,
      "t": 169499.83050000007,
      "d": 205.35693750000792,
      "v": 110
    },
    {
      "midi": 45,
      "hit": false,
      "t": 169499.83050000007,
      "d": 205.35693750000792,
      "v": 110
    },
    {
      "midi": 48,
      "hit": false,
      "t": 169499.83050000007,
      "d": 205.35693750000792,
      "v": 110
    },
    {
      "midi": 41,
      "hit": false,
      "t": 169714.11600000007,
      "d": 205.35693750000792,
      "v": 110
    },
    {
      "midi": 45,
      "hit": false,
      "t": 169714.11600000007,
      "d": 205.35693750000792,
      "v": 110
    },
    {
      "midi": 48,
      "hit": false,
      "t": 169714.11600000007,
      "d": 205.35693750000792,
      "v": 110
    },
    {
      "midi": 60,
      "hit": false,
      "t": 170571.25799999994,
      "d": 419.64243750000605,
      "v": 110
    },
    {
      "midi": 72,
      "hit": false,
      "t": 170571.25799999994,
      "d": 419.64243750000605,
      "v": 110
    },
    {
      "midi": 41,
      "hit": false,
      "t": 170571.2580000001,
      "d": 205.35693750000792,
      "v": 110
    },
    {
      "midi": 45,
      "hit": false,
      "t": 170571.2580000001,
      "d": 205.35693750000792,
      "v": 110
    },
    {
      "midi": 48,
      "hit": false,
      "t": 170571.2580000001,
      "d": 205.35693750000792,
      "v": 110
    },
    {
      "midi": 41,
      "hit": false,
      "t": 170785.5435000001,
      "d": 205.35693750000792,
      "v": 110
    },
    {
      "midi": 45,
      "hit": false,
      "t": 170785.5435000001,
      "d": 205.35693750000792,
      "v": 110
    },
    {
      "midi": 48,
      "hit": false,
      "t": 170785.5435000001,
      "d": 205.35693750000792,
      "v": 110
    },
    {
      "midi": 62,
      "hit": false,
      "t": 170999.82899999994,
      "d": 419.64243750000605,
      "v": 110
    },
    {
      "midi": 74,
      "hit": false,
      "t": 170999.82899999994,
      "d": 419.64243750000605,
      "v": 110
    },
    {
      "midi": 41,
      "hit": false,
      "t": 170999.82900000009,
      "d": 205.35693750000792,
      "v": 110
    },
    {
      "midi": 45,
      "hit": false,
      "t": 170999.82900000009,
      "d": 205.35693750000792,
      "v": 110
    },
    {
      "midi": 48,
      "hit": false,
      "t": 170999.82900000009,
      "d": 205.35693750000792,
      "v": 110
    },
    {
      "midi": 64,
      "hit": false,
      "t": 171428.39999999994,
      "d": 1499.998499999987,
      "v": 110
    },
    {
      "midi": 76,
      "hit": false,
      "t": 171428.39999999994,
      "d": 1499.998499999987,
      "v": 110
    },
    {
      "midi": 48,
      "hit": false,
      "t": 171428.40000000008,
      "d": 205.35693750000792,
      "v": 110
    },
    {
      "midi": 52,
      "hit": false,
      "t": 171428.40000000008,
      "d": 205.35693750000792,
      "v": 110
    },
    {
      "midi": 55,
      "hit": false,
      "t": 171428.40000000008,
      "d": 205.35693750000792,
      "v": 110
    },
    {
      "midi": 48,
      "hit": false,
      "t": 171642.68550000008,
      "d": 205.35693750000792,
      "v": 110
    },
    {
      "midi": 52,
      "hit": false,
      "t": 171642.68550000008,
      "d": 205.35693750000792,
      "v": 110
    },
    {
      "midi": 55,
      "hit": false,
      "t": 171642.68550000008,
      "d": 205.35693750000792,
      "v": 110
    },
    {
      "midi": 48,
      "hit": false,
      "t": 171856.97100000008,
      "d": 205.35693750000792,
      "v": 110
    },
    {
      "midi": 52,
      "hit": false,
      "t": 171856.97100000008,
      "d": 205.35693750000792,
      "v": 110
    },
    {
      "midi": 55,
      "hit": false,
      "t": 171856.97100000008,
      "d": 205.35693750000792,
      "v": 110
    },
    {
      "midi": 48,
      "hit": false,
      "t": 172714.1130000001,
      "d": 205.35693750000792,
      "v": 110
    },
    {
      "midi": 52,
      "hit": false,
      "t": 172714.1130000001,
      "d": 205.35693750000792,
      "v": 110
    },
    {
      "midi": 55,
      "hit": false,
      "t": 172714.1130000001,
      "d": 205.35693750000792,
      "v": 110
    },
    {
      "midi": 48,
      "hit": false,
      "t": 172928.3985000001,
      "d": 205.35693750000792,
      "v": 110
    },
    {
      "midi": 52,
      "hit": false,
      "t": 172928.3985000001,
      "d": 205.35693750000792,
      "v": 110
    },
    {
      "midi": 55,
      "hit": false,
      "t": 172928.3985000001,
      "d": 205.35693750000792,
      "v": 110
    },
    {
      "midi": 48,
      "hit": false,
      "t": 173142.6840000001,
      "d": 205.35693750000792,
      "v": 110
    },
    {
      "midi": 52,
      "hit": false,
      "t": 173142.6840000001,
      "d": 205.35693750000792,
      "v": 110
    },
    {
      "midi": 55,
      "hit": false,
      "t": 173142.6840000001,
      "d": 205.35693750000792,
      "v": 110
    },
    {
      "midi": 69,
      "hit": false,
      "t": 173571.25499999992,
      "d": 419.64243750000605,
      "v": 110
    },
    {
      "midi": 81,
      "hit": false,
      "t": 173571.25499999992,
      "d": 419.64243750000605,
      "v": 110
    },
    {
      "midi": 67,
      "hit": false,
      "t": 173999.8259999999,
      "d": 419.64243750000605,
      "v": 110
    },
    {
      "midi": 79,
      "hit": false,
      "t": 173999.8259999999,
      "d": 419.64243750000605,
      "v": 110
    },
    {
      "midi": 48,
      "hit": false,
      "t": 173999.82600000012,
      "d": 205.35693750000792,
      "v": 110
    },
    {
      "midi": 52,
      "hit": false,
      "t": 173999.82600000012,
      "d": 205.35693750000792,
      "v": 110
    },
    {
      "midi": 55,
      "hit": false,
      "t": 173999.82600000012,
      "d": 205.35693750000792,
      "v": 110
    },
    {
      "midi": 48,
      "hit": false,
      "t": 174214.11150000012,
      "d": 205.35693750000792,
      "v": 110
    },
    {
      "midi": 52,
      "hit": false,
      "t": 174214.11150000012,
      "d": 205.35693750000792,
      "v": 110
    },
    {
      "midi": 55,
      "hit": false,
      "t": 174214.11150000012,
      "d": 205.35693750000792,
      "v": 110
    },
    {
      "midi": 64,
      "hit": false,
      "t": 174428.3969999999,
      "d": 419.64243750000605,
      "v": 110
    },
    {
      "midi": 76,
      "hit": false,
      "t": 174428.3969999999,
      "d": 419.64243750000605,
      "v": 110
    },
    {
      "midi": 48,
      "hit": false,
      "t": 174428.3970000001,
      "d": 205.35693750000792,
      "v": 110
    },
    {
      "midi": 52,
      "hit": false,
      "t": 174428.3970000001,
      "d": 205.35693750000792,
      "v": 110
    },
    {
      "midi": 55,
      "hit": false,
      "t": 174428.3970000001,
      "d": 205.35693750000792,
      "v": 110
    },
    {
      "midi": 60,
      "hit": false,
      "t": 174856.9679999999,
      "d": 714.2850000000035,
      "v": 110
    },
    {
      "midi": 72,
      "hit": false,
      "t": 174856.9679999999,
      "d": 714.2850000000035,
      "v": 110
    },
    {
      "midi": 43,
      "hit": false,
      "t": 174856.9680000001,
      "d": 205.35693750000792,
      "v": 110
    },
    {
      "midi": 47,
      "hit": false,
      "t": 174856.9680000001,
      "d": 205.35693750000792,
      "v": 110
    },
    {
      "midi": 50,
      "hit": false,
      "t": 174856.9680000001,
      "d": 205.35693750000792,
      "v": 110
    },
    {
      "midi": 43,
      "hit": false,
      "t": 175071.2535000001,
      "d": 205.35693750000792,
      "v": 110
    },
    {
      "midi": 47,
      "hit": false,
      "t": 175071.2535000001,
      "d": 205.35693750000792,
      "v": 110
    },
    {
      "midi": 50,
      "hit": false,
      "t": 175071.2535000001,
      "d": 205.35693750000792,
      "v": 110
    },
    {
      "midi": 43,
      "hit": false,
      "t": 175285.5390000001,
      "d": 205.35693750000792,
      "v": 110
    },
    {
      "midi": 47,
      "hit": false,
      "t": 175285.5390000001,
      "d": 205.35693750000792,
      "v": 110
    },
    {
      "midi": 50,
      "hit": false,
      "t": 175285.5390000001,
      "d": 205.35693750000792,
      "v": 110
    },
    {
      "midi": 62,
      "hit": false,
      "t": 175714.1099999999,
      "d": 1499.998499999987,
      "v": 110
    },
    {
      "midi": 74,
      "hit": false,
      "t": 175714.1099999999,
      "d": 1499.998499999987,
      "v": 110
    },
    {
      "midi": 43,
      "hit": false,
      "t": 176142.68100000013,
      "d": 205.35693750000792,
      "v": 110
    },
    {
      "midi": 47,
      "hit": false,
      "t": 176142.68100000013,
      "d": 205.35693750000792,
      "v": 110
    },
    {
      "midi": 50,
      "hit": false,
      "t": 176142.68100000013,
      "d": 205.35693750000792,
      "v": 110
    },
    {
      "midi": 43,
      "hit": false,
      "t": 176356.96650000013,
      "d": 205.35693750000792,
      "v": 110
    },
    {
      "midi": 47,
      "hit": false,
      "t": 176356.96650000013,
      "d": 205.35693750000792,
      "v": 110
    },
    {
      "midi": 50,
      "hit": false,
      "t": 176356.96650000013,
      "d": 205.35693750000792,
      "v": 110
    },
    {
      "midi": 43,
      "hit": false,
      "t": 176571.25200000012,
      "d": 205.35693750000792,
      "v": 110
    },
    {
      "midi": 47,
      "hit": false,
      "t": 176571.25200000012,
      "d": 205.35693750000792,
      "v": 110
    },
    {
      "midi": 50,
      "hit": false,
      "t": 176571.25200000012,
      "d": 205.35693750000792,
      "v": 110
    },
    {
      "midi": 64,
      "hit": false,
      "t": 177428.39399999988,
      "d": 419.64243750000605,
      "v": 110
    },
    {
      "midi": 76,
      "hit": false,
      "t": 177428.39399999988,
      "d": 419.64243750000605,
      "v": 110
    },
    {
      "midi": 43,
      "hit": false,
      "t": 177428.39400000015,
      "d": 205.35693750000792,
      "v": 110
    },
    {
      "midi": 47,
      "hit": false,
      "t": 177428.39400000015,
      "d": 205.35693750000792,
      "v": 110
    },
    {
      "midi": 50,
      "hit": false,
      "t": 177428.39400000015,
      "d": 205.35693750000792,
      "v": 110
    },
    {
      "midi": 43,
      "hit": false,
      "t": 177642.67950000014,
      "d": 205.35693750000792,
      "v": 110
    },
    {
      "midi": 47,
      "hit": false,
      "t": 177642.67950000014,
      "d": 205.35693750000792,
      "v": 110
    },
    {
      "midi": 50,
      "hit": false,
      "t": 177642.67950000014,
      "d": 205.35693750000792,
      "v": 110
    },
    {
      "midi": 69,
      "hit": false,
      "t": 177856.96499999988,
      "d": 419.64243750000605,
      "v": 110
    },
    {
      "midi": 81,
      "hit": false,
      "t": 177856.96499999988,
      "d": 419.64243750000605,
      "v": 110
    },
    {
      "midi": 43,
      "hit": false,
      "t": 177856.96500000014,
      "d": 205.35693750000792,
      "v": 110
    },
    {
      "midi": 47,
      "hit": false,
      "t": 177856.96500000014,
      "d": 205.35693750000792,
      "v": 110
    },
    {
      "midi": 50,
      "hit": false,
      "t": 177856.96500000014,
      "d": 205.35693750000792,
      "v": 110
    },
    {
      "midi": 72,
      "hit": false,
      "t": 178285.53599999988,
      "d": 1499.998499999987,
      "v": 110
    },
    {
      "midi": 84,
      "hit": false,
      "t": 178285.53599999988,
      "d": 1499.998499999987,
      "v": 110
    },
    {
      "midi": 45,
      "hit": false,
      "t": 178285.53600000014,
      "d": 205.35693750000792,
      "v": 110
    },
    {
      "midi": 48,
      "hit": false,
      "t": 178285.53600000014,
      "d": 205.35693750000792,
      "v": 110
    },
    {
      "midi": 52,
      "hit": false,
      "t": 178285.53600000014,
      "d": 205.35693750000792,
      "v": 110
    },
    {
      "midi": 45,
      "hit": false,
      "t": 178499.82150000014,
      "d": 205.35693750000792,
      "v": 110
    },
    {
      "midi": 48,
      "hit": false,
      "t": 178499.82150000014,
      "d": 205.35693750000792,
      "v": 110
    },
    {
      "midi": 52,
      "hit": false,
      "t": 178499.82150000014,
      "d": 205.35693750000792,
      "v": 110
    },
    {
      "midi": 45,
      "hit": false,
      "t": 178714.10700000013,
      "d": 205.35693750000792,
      "v": 110
    },
    {
      "midi": 48,
      "hit": false,
      "t": 178714.10700000013,
      "d": 205.35693750000792,
      "v": 110
    },
    {
      "midi": 52,
      "hit": false,
      "t": 178714.10700000013,
      "d": 205.35693750000792,
      "v": 110
    },
    {
      "midi": 45,
      "hit": false,
      "t": 179571.24900000016,
      "d": 205.35693750000792,
      "v": 110
    },
    {
      "midi": 48,
      "hit": false,
      "t": 179571.24900000016,
      "d": 205.35693750000792,
      "v": 110
    },
    {
      "midi": 52,
      "hit": false,
      "t": 179571.24900000016,
      "d": 205.35693750000792,
      "v": 110
    },
    {
      "midi": 45,
      "hit": false,
      "t": 179785.53450000015,
      "d": 205.35693750000792,
      "v": 110
    },
    {
      "midi": 48,
      "hit": false,
      "t": 179785.53450000015,
      "d": 205.35693750000792,
      "v": 110
    },
    {
      "midi": 52,
      "hit": false,
      "t": 179785.53450000015,
      "d": 205.35693750000792,
      "v": 110
    },
    {
      "midi": 45,
      "hit": false,
      "t": 179999.82000000015,
      "d": 205.35693750000792,
      "v": 110
    },
    {
      "midi": 48,
      "hit": false,
      "t": 179999.82000000015,
      "d": 205.35693750000792,
      "v": 110
    },
    {
      "midi": 52,
      "hit": false,
      "t": 179999.82000000015,
      "d": 205.35693750000792,
      "v": 110
    },
    {
      "midi": 71,
      "hit": false,
      "t": 180428.39099999986,
      "d": 419.64243750000605,
      "v": 110
    },
    {
      "midi": 83,
      "hit": false,
      "t": 180428.39099999986,
      "d": 419.64243750000605,
      "v": 110
    },
    {
      "midi": 72,
      "hit": false,
      "t": 180856.96199999985,
      "d": 419.64243750000605,
      "v": 110
    },
    {
      "midi": 84,
      "hit": false,
      "t": 180856.96199999985,
      "d": 419.64243750000605,
      "v": 110
    },
    {
      "midi": 45,
      "hit": false,
      "t": 180856.96200000017,
      "d": 205.35693750000792,
      "v": 110
    },
    {
      "midi": 48,
      "hit": false,
      "t": 180856.96200000017,
      "d": 205.35693750000792,
      "v": 110
    },
    {
      "midi": 52,
      "hit": false,
      "t": 180856.96200000017,
      "d": 205.35693750000792,
      "v": 110
    },
    {
      "midi": 45,
      "hit": false,
      "t": 181071.24750000017,
      "d": 205.35693750000792,
      "v": 110
    },
    {
      "midi": 48,
      "hit": false,
      "t": 181071.24750000017,
      "d": 205.35693750000792,
      "v": 110
    },
    {
      "midi": 52,
      "hit": false,
      "t": 181071.24750000017,
      "d": 205.35693750000792,
      "v": 110
    },
    {
      "midi": 74,
      "hit": false,
      "t": 181285.53299999985,
      "d": 419.64243750000605,
      "v": 110
    },
    {
      "midi": 86,
      "hit": false,
      "t": 181285.53299999985,
      "d": 419.64243750000605,
      "v": 110
    },
    {
      "midi": 45,
      "hit": false,
      "t": 181285.53300000017,
      "d": 205.35693750000792,
      "v": 110
    },
    {
      "midi": 48,
      "hit": false,
      "t": 181285.53300000017,
      "d": 205.35693750000792,
      "v": 110
    },
    {
      "midi": 52,
      "hit": false,
      "t": 181285.53300000017,
      "d": 205.35693750000792,
      "v": 110
    },
    {
      "midi": 72,
      "hit": false,
      "t": 181714.10399999985,
      "d": 714.2850000000035,
      "v": 110
    },
    {
      "midi": 84,
      "hit": false,
      "t": 181714.10399999985,
      "d": 714.2850000000035,
      "v": 110
    },
    {
      "midi": 41,
      "hit": false,
      "t": 181714.10400000017,
      "d": 205.35693750000792,
      "v": 110
    },
    {
      "midi": 45,
      "hit": false,
      "t": 181714.10400000017,
      "d": 205.35693750000792,
      "v": 110
    },
    {
      "midi": 48,
      "hit": false,
      "t": 181714.10400000017,
      "d": 205.35693750000792,
      "v": 110
    },
    {
      "midi": 41,
      "hit": false,
      "t": 181928.38950000016,
      "d": 205.35693750000792,
      "v": 110
    },
    {
      "midi": 45,
      "hit": false,
      "t": 181928.38950000016,
      "d": 205.35693750000792,
      "v": 110
    },
    {
      "midi": 48,
      "hit": false,
      "t": 181928.38950000016,
      "d": 205.35693750000792,
      "v": 110
    },
    {
      "midi": 41,
      "hit": false,
      "t": 182142.67500000016,
      "d": 205.35693750000792,
      "v": 110
    },
    {
      "midi": 45,
      "hit": false,
      "t": 182142.67500000016,
      "d": 205.35693750000792,
      "v": 110
    },
    {
      "midi": 48,
      "hit": false,
      "t": 182142.67500000016,
      "d": 205.35693750000792,
      "v": 110
    },
    {
      "midi": 69,
      "hit": false,
      "t": 182571.24599999984,
      "d": 1499.998499999987,
      "v": 110
    },
    {
      "midi": 81,
      "hit": false,
      "t": 182571.24599999984,
      "d": 1499.998499999987,
      "v": 110
    },
    {
      "midi": 41,
      "hit": false,
      "t": 182999.81700000018,
      "d": 205.35693750000792,
      "v": 110
    },
    {
      "midi": 45,
      "hit": false,
      "t": 182999.81700000018,
      "d": 205.35693750000792,
      "v": 110
    },
    {
      "midi": 48,
      "hit": false,
      "t": 182999.81700000018,
      "d": 205.35693750000792,
      "v": 110
    },
    {
      "midi": 41,
      "hit": false,
      "t": 183214.10250000018,
      "d": 205.35693750000792,
      "v": 110
    },
    {
      "midi": 45,
      "hit": false,
      "t": 183214.10250000018,
      "d": 205.35693750000792,
      "v": 110
    },
    {
      "midi": 48,
      "hit": false,
      "t": 183214.10250000018,
      "d": 205.35693750000792,
      "v": 110
    },
    {
      "midi": 41,
      "hit": false,
      "t": 183428.38800000018,
      "d": 205.35693750000792,
      "v": 110
    },
    {
      "midi": 45,
      "hit": false,
      "t": 183428.38800000018,
      "d": 205.35693750000792,
      "v": 110
    },
    {
      "midi": 48,
      "hit": false,
      "t": 183428.38800000018,
      "d": 205.35693750000792,
      "v": 110
    },
    {
      "midi": 67,
      "hit": false,
      "t": 184285.52999999982,
      "d": 419.64243750000605,
      "v": 110
    },
    {
      "midi": 79,
      "hit": false,
      "t": 184285.52999999982,
      "d": 419.64243750000605,
      "v": 110
    },
    {
      "midi": 41,
      "hit": false,
      "t": 184285.5300000002,
      "d": 205.35693750000792,
      "v": 110
    },
    {
      "midi": 45,
      "hit": false,
      "t": 184285.5300000002,
      "d": 205.35693750000792,
      "v": 110
    },
    {
      "midi": 48,
      "hit": false,
      "t": 184285.5300000002,
      "d": 205.35693750000792,
      "v": 110
    },
    {
      "midi": 41,
      "hit": false,
      "t": 184499.8155000002,
      "d": 205.35693750000792,
      "v": 110
    },
    {
      "midi": 45,
      "hit": false,
      "t": 184499.8155000002,
      "d": 205.35693750000792,
      "v": 110
    },
    {
      "midi": 48,
      "hit": false,
      "t": 184499.8155000002,
      "d": 205.35693750000792,
      "v": 110
    },
    {
      "midi": 69,
      "hit": false,
      "t": 184714.10099999982,
      "d": 419.64243750000605,
      "v": 110
    },
    {
      "midi": 81,
      "hit": false,
      "t": 184714.10099999982,
      "d": 419.64243750000605,
      "v": 110
    },
    {
      "midi": 41,
      "hit": false,
      "t": 184714.1010000002,
      "d": 205.35693750000792,
      "v": 110
    },
    {
      "midi": 45,
      "hit": false,
      "t": 184714.1010000002,
      "d": 205.35693750000792,
      "v": 110
    },
    {
      "midi": 48,
      "hit": false,
      "t": 184714.1010000002,
      "d": 205.35693750000792,
      "v": 110
    },
    {
      "midi": 71,
      "hit": false,
      "t": 185142.67199999982,
      "d": 714.2850000000035,
      "v": 110
    },
    {
      "midi": 83,
      "hit": false,
      "t": 185142.67199999982,
      "d": 714.2850000000035,
      "v": 110
    },
    {
      "midi": 40,
      "hit": false,
      "t": 185142.6720000002,
      "d": 205.35693750000792,
      "v": 110
    },
    {
      "midi": 43,
      "hit": false,
      "t": 185142.6720000002,
      "d": 205.35693750000792,
      "v": 110
    },
    {
      "midi": 47,
      "hit": false,
      "t": 185142.6720000002,
      "d": 205.35693750000792,
      "v": 110
    },
    {
      "midi": 40,
      "hit": false,
      "t": 185356.9575000002,
      "d": 205.35693750000792,
      "v": 110
    },
    {
      "midi": 43,
      "hit": false,
      "t": 185356.9575000002,
      "d": 205.35693750000792,
      "v": 110
    },
    {
      "midi": 47,
      "hit": false,
      "t": 185356.9575000002,
      "d": 205.35693750000792,
      "v": 110
    },
    {
      "midi": 40,
      "hit": false,
      "t": 185571.2430000002,
      "d": 205.35693750000792,
      "v": 110
    },
    {
      "midi": 43,
      "hit": false,
      "t": 185571.2430000002,
      "d": 205.35693750000792,
      "v": 110
    },
    {
      "midi": 47,
      "hit": false,
      "t": 185571.2430000002,
      "d": 205.35693750000792,
      "v": 110
    },
    {
      "midi": 72,
      "hit": false,
      "t": 186428.38499999983,
      "d": 419.64243750000605,
      "v": 110
    },
    {
      "midi": 84,
      "hit": false,
      "t": 186428.38499999983,
      "d": 419.64243750000605,
      "v": 110
    },
    {
      "midi": 40,
      "hit": false,
      "t": 186428.3850000002,
      "d": 205.35693750000792,
      "v": 110
    },
    {
      "midi": 43,
      "hit": false,
      "t": 186428.3850000002,
      "d": 205.35693750000792,
      "v": 110
    },
    {
      "midi": 47,
      "hit": false,
      "t": 186428.3850000002,
      "d": 205.35693750000792,
      "v": 110
    },
    {
      "midi": 40,
      "hit": false,
      "t": 186642.6705000002,
      "d": 205.35693750000792,
      "v": 110
    },
    {
      "midi": 43,
      "hit": false,
      "t": 186642.6705000002,
      "d": 205.35693750000792,
      "v": 110
    },
    {
      "midi": 47,
      "hit": false,
      "t": 186642.6705000002,
      "d": 205.35693750000792,
      "v": 110
    },
    {
      "midi": 71,
      "hit": false,
      "t": 186856.95599999983,
      "d": 562.4994374999951,
      "v": 110
    },
    {
      "midi": 83,
      "hit": false,
      "t": 186856.95599999983,
      "d": 562.4994374999951,
      "v": 110
    },
    {
      "midi": 40,
      "hit": false,
      "t": 186856.9560000002,
      "d": 205.35693750000792,
      "v": 110
    },
    {
      "midi": 43,
      "hit": false,
      "t": 186856.9560000002,
      "d": 205.35693750000792,
      "v": 110
    },
    {
      "midi": 47,
      "hit": false,
      "t": 186856.9560000002,
      "d": 205.35693750000792,
      "v": 110
    },
    {
      "midi": 69,
      "hit": false,
      "t": 187428.38399999982,
      "d": 562.4994374999951,
      "v": 110
    },
    {
      "midi": 81,
      "hit": false,
      "t": 187428.38399999982,
      "d": 562.4994374999951,
      "v": 110
    },
    {
      "midi": 40,
      "hit": false,
      "t": 187714.09800000023,
      "d": 205.35693750000792,
      "v": 110
    },
    {
      "midi": 43,
      "hit": false,
      "t": 187714.09800000023,
      "d": 205.35693750000792,
      "v": 110
    },
    {
      "midi": 47,
      "hit": false,
      "t": 187714.09800000023,
      "d": 205.35693750000792,
      "v": 110
    },
    {
      "midi": 40,
      "hit": false,
      "t": 187928.38350000023,
      "d": 205.35693750000792,
      "v": 110
    },
    {
      "midi": 43,
      "hit": false,
      "t": 187928.38350000023,
      "d": 205.35693750000792,
      "v": 110
    },
    {
      "midi": 47,
      "hit": false,
      "t": 187928.38350000023,
      "d": 205.35693750000792,
      "v": 110
    },
    {
      "midi": 67,
      "hit": false,
      "t": 187999.8119999998,
      "d": 562.4994374999951,
      "v": 110
    },
    {
      "midi": 79,
      "hit": false,
      "t": 187999.8119999998,
      "d": 562.4994374999951,
      "v": 110
    },
    {
      "midi": 40,
      "hit": false,
      "t": 188142.66900000023,
      "d": 205.35693750000792,
      "v": 110
    },
    {
      "midi": 43,
      "hit": false,
      "t": 188142.66900000023,
      "d": 205.35693750000792,
      "v": 110
    },
    {
      "midi": 47,
      "hit": false,
      "t": 188142.66900000023,
      "d": 205.35693750000792,
      "v": 110
    },
    {
      "midi": 69,
      "hit": false,
      "t": 188571.2399999998,
      "d": 205.35693750000792,
      "v": 110
    },
    {
      "midi": 74,
      "hit": false,
      "t": 188571.2399999998,
      "d": 205.35693750000792,
      "v": 110
    },
    {
      "midi": 78,
      "hit": false,
      "t": 188571.2399999998,
      "d": 205.35693750000792,
      "v": 110
    },
    {
      "midi": 81,
      "hit": false,
      "t": 188571.2399999998,
      "d": 205.35693750000792,
      "v": 110
    },
    {
      "midi": 38,
      "hit": false,
      "t": 188571.24000000022,
      "d": 205.35693750000792,
      "v": 110
    },
    {
      "midi": 42,
      "hit": false,
      "t": 188571.24000000022,
      "d": 205.35693750000792,
      "v": 110
    },
    {
      "midi": 45,
      "hit": false,
      "t": 188571.24000000022,
      "d": 205.35693750000792,
      "v": 110
    },
    {
      "midi": 78,
      "hit": false,
      "t": 188785.52549999979,
      "d": 205.35693750000792,
      "v": 110
    },
    {
      "midi": 38,
      "hit": false,
      "t": 188785.52550000022,
      "d": 205.35693750000792,
      "v": 110
    },
    {
      "midi": 42,
      "hit": false,
      "t": 188785.52550000022,
      "d": 205.35693750000792,
      "v": 110
    },
    {
      "midi": 45,
      "hit": false,
      "t": 188785.52550000022,
      "d": 205.35693750000792,
      "v": 110
    },
    {
      "midi": 74,
      "hit": false,
      "t": 188999.81099999978,
      "d": 205.35693750000792,
      "v": 110
    },
    {
      "midi": 38,
      "hit": false,
      "t": 188999.81100000022,
      "d": 205.35693750000792,
      "v": 110
    },
    {
      "midi": 42,
      "hit": false,
      "t": 188999.81100000022,
      "d": 205.35693750000792,
      "v": 110
    },
    {
      "midi": 45,
      "hit": false,
      "t": 188999.81100000022,
      "d": 205.35693750000792,
      "v": 110
    },
    {
      "midi": 69,
      "hit": false,
      "t": 189214.09649999978,
      "d": 205.35693750000792,
      "v": 110
    },
    {
      "midi": 66,
      "hit": false,
      "t": 189428.38199999978,
      "d": 205.35693750000792,
      "v": 110
    },
    {
      "midi": 62,
      "hit": false,
      "t": 189642.66749999978,
      "d": 205.35693750000792,
      "v": 110
    },
    {
      "midi": 57,
      "hit": false,
      "t": 189856.95300000024,
      "d": 205.35693750000792,
      "v": 110
    },
    {
      "midi": 54,
      "hit": false,
      "t": 190071.23850000024,
      "d": 205.35693750000792,
      "v": 110
    },
    {
      "midi": 50,
      "hit": false,
      "t": 190285.52400000024,
      "d": 205.35693750000792,
      "v": 110
    },
    {
      "midi": 38,
      "hit": false,
      "t": 190714.09500000023,
      "d": 205.35693750000792,
      "v": 110
    },
    {
      "midi": 50,
      "hit": false,
      "t": 190714.09500000023,
      "d": 205.35693750000792,
      "v": 110
    },
    {
      "midi": 38,
      "hit": false,
      "t": 190928.38050000023,
      "d": 205.35693750000792,
      "v": 110
    },
    {
      "midi": 50,
      "hit": false,
      "t": 190928.38050000023,
      "d": 205.35693750000792,
      "v": 110
    },
    {
      "midi": 38,
      "hit": false,
      "t": 191142.66600000023,
      "d": 205.35693750000792,
      "v": 110
    },
    {
      "midi": 50,
      "hit": false,
      "t": 191142.66600000023,
      "d": 205.35693750000792,
      "v": 110
    }
  ]
}