{
  "jsonPath": "Rock/Classic Rock/The Mamas  The Papas/twelve-thirty-young-girls-are-coming-to-the-canyon.json",
  "path": "Rock\\Classic Rock\\The Mamas  The Papas\\Twelve Thirty (Young Girls Are Coming To The Canyon).mid",
  "name": "Twelve Thirty (Young Girls Are Coming To The Canyon)",
  "difficulty": "Advanced",
  "bpm": 116.99988885010559,
  "notes": [
    {
      "midi": 73,
      "hit": false,
      "t": 3589.7470000000003,
      "d": 256.41049999999996,
      "v": 100
    },
    {
      "midi": 75,
      "hit": false,
      "t": 3846.1575000000003,
      "d": 128.20524999999998,
      "v": 100
    },
    {
      "midi": 77,
      "hit": false,
      "t": 4102.568,
      "d": 256.41049999999996,
      "v": 100
    },
    {
      "midi": 58,
      "hit": false,
      "t": 4102.568,
      "d": 1025.6419999999998,
      "v": 100
    },
    {
      "midi": 65,
      "hit": false,
      "t": 4358.9785,
      "d": 256.41049999999996,
      "v": 100
    },
    {
      "midi": 70,
      "hit": false,
      "t": 4615.389,
      "d": 256.41049999999996,
      "v": 100
    },
    {
      "midi": 73,
      "hit": false,
      "t": 4871.7995,
      "d": 256.41049999999996,
      "v": 100
    },
    {
      "midi": 77,
      "hit": false,
      "t": 5128.21,
      "d": 256.41049999999996,
      "v": 100
    },
    {
      "midi": 56,
      "hit": false,
      "t": 5128.21,
      "d": 1025.6419999999998,
      "v": 100
    },
    {
      "midi": 65,
      "hit": false,
      "t": 5384.6205,
      "d": 256.41049999999996,
      "v": 100
    },
    {
      "midi": 80,
      "hit": false,
      "t": 5641.031,
      "d": 256.41049999999996,
      "v": 100
    },
    {
      "midi": 73,
      "hit": false,
      "t": 5897.4415,
      "d": 256.41049999999996,
      "v": 100
    },
    {
      "midi": 55,
      "hit": false,
      "t": 6153.852,
      "d": 213.67541666666693,
      "v": 100
    },
    {
      "midi": 79,
      "hit": false,
      "t": 6153.852,
      "d": 256.41049999999996,
      "v": 100
    },
    {
      "midi": 58,
      "hit": false,
      "t": 6410.2625,
      "d": 256.41049999999996,
      "v": 100
    },
    {
      "midi": 67,
      "hit": false,
      "t": 6410.2625,
      "d": 256.41049999999996,
      "v": 100
    },
    {
      "midi": 67,
      "hit": false,
      "t": 6666.673,
      "d": 256.41049999999996,
      "v": 100
    },
    {
      "midi": 63,
      "hit": false,
      "t": 6666.673,
      "d": 512.8209999999999,
      "v": 100
    },
    {
      "midi": 79,
      "hit": false,
      "t": 6923.0835,
      "d": 256.41049999999996,
      "v": 100
    },
    {
      "midi": 55,
      "hit": false,
      "t": 7179.494,
      "d": 256.41049999999996,
      "v": 100
    },
    {
      "midi": 80,
      "hit": false,
      "t": 7179.494,
      "d": 256.41049999999996,
      "v": 100
    },
    {
      "midi": 58,
      "hit": false,
      "t": 7435.9045,
      "d": 256.41049999999996,
      "v": 100
    },
    {
      "midi": 63,
      "hit": false,
      "t": 7692.315,
      "d": 512.8210000000008,
      "v": 100
    },
    {
      "midi": 79,
      "hit": false,
      "t": 7692.315,
      "d": 512.8210000000008,
      "v": 100
    },
    {
      "midi": 67,
      "hit": false,
      "t": 7948.7255,
      "d": 256.41050000000087,
      "v": 100
    },
    {
      "midi": 72,
      "hit": false,
      "t": 8205.136,
      "d": 256.41049999999996,
      "v": 100
    },
    {
      "midi": 80,
      "hit": false,
      "t": 8205.136,
      "d": 512.8209999999999,
      "v": 100
    },
    {
      "midi": 56,
      "hit": false,
      "t": 8205.136,
      "d": 1025.6419999999998,
      "v": 100
    },
    {
      "midi": 63,
      "hit": false,
      "t": 8461.5465,
      "d": 256.41049999999996,
      "v": 100
    },
    {
      "midi": 72,
      "hit": false,
      "t": 8717.957,
      "d": 256.41049999999996,
      "v": 100
    },
    {
      "midi": 75,
      "hit": false,
      "t": 8974.3675,
      "d": 256.41049999999996,
      "v": 100
    },
    {
      "midi": 80,
      "hit": false,
      "t": 9230.778,
      "d": 256.41049999999996,
      "v": 100
    },
    {
      "midi": 54,
      "hit": false,
      "t": 9230.778,
      "d": 1025.6419999999998,
      "v": 100
    },
    {
      "midi": 60,
      "hit": false,
      "t": 9487.1885,
      "d": 256.41049999999996,
      "v": 100
    },
    {
      "midi": 75,
      "hit": false,
      "t": 9743.599,
      "d": 256.41049999999996,
      "v": 100
    },
    {
      "midi": 80,
      "hit": false,
      "t": 10000.0095,
      "d": 256.41049999999996,
      "v": 100
    },
    {
      "midi": 49,
      "hit": false,
      "t": 10256.42,
      "d": 512.8209999999999,
      "v": 100
    },
    {
      "midi": 80,
      "hit": false,
      "t": 10256.42,
      "d": 512.8209999999999,
      "v": 100
    },
    {
      "midi": 56,
      "hit": false,
      "t": 10512.8305,
      "d": 256.41049999999996,
      "v": 100
    },
    {
      "midi": 61,
      "hit": false,
      "t": 10769.241,
      "d": 256.41049999999996,
      "v": 100
    },
    {
      "midi": 65,
      "hit": false,
      "t": 11025.6515,
      "d": 256.41049999999996,
      "v": 100
    },
    {
      "midi": 51,
      "hit": false,
      "t": 11282.062,
      "d": 512.8209999999999,
      "v": 100
    },
    {
      "midi": 80,
      "hit": false,
      "t": 11282.062,
      "d": 512.8209999999999,
      "v": 100
    },
    {
      "midi": 56,
      "hit": false,
      "t": 11538.4725,
      "d": 256.41049999999996,
      "v": 100
    },
    {
      "midi": 60,
      "hit": false,
      "t": 11794.883,
      "d": 256.41049999999996,
      "v": 100
    },
    {
      "midi": 63,
      "hit": false,
      "t": 12051.2935,
      "d": 256.41049999999996,
      "v": 100
    },
    {
      "midi": 77,
      "hit": false,
      "t": 12307.704,
      "d": 256.41049999999996,
      "v": 100
    },
    {
      "midi": 46,
      "hit": false,
      "t": 12307.704,
      "d": 1025.6420000000016,
      "v": 100
    },
    {
      "midi": 65,
      "hit": false,
      "t": 12564.1145,
      "d": 256.41049999999996,
      "v": 100
    },
    {
      "midi": 70,
      "hit": false,
      "t": 12820.525,
      "d": 256.41049999999996,
      "v": 100
    },
    {
      "midi": 70,
      "hit": false,
      "t": 13076.9355,
      "d": 128.2052500000009,
      "v": 100
    },
    {
      "midi": 72,
      "hit": false,
      "t": 13205.14075,
      "d": 128.2052500000009,
      "v": 100
    },
    {
      "midi": 73,
      "hit": false,
      "t": 13333.346000000001,
      "d": 256.41049999999996,
      "v": 100
    },
    {
      "midi": 56,
      "hit": false,
      "t": 13333.346000000001,
      "d": 1025.6419999999998,
      "v": 100
    },
    {
      "midi": 65,
      "hit": false,
      "t": 13589.756500000001,
      "d": 256.41049999999996,
      "v": 100
    },
    {
      "midi": 70,
      "hit": false,
      "t": 13846.167000000001,
      "d": 256.41049999999996,
      "v": 100
    },
    {
      "midi": 73,
      "hit": false,
      "t": 14102.577500000001,
      "d": 256.41049999999996,
      "v": 100
    },
    {
      "midi": 75,
      "hit": false,
      "t": 14358.988000000001,
      "d": 256.41049999999996,
      "v": 100
    },
    {
      "midi": 51,
      "hit": false,
      "t": 14358.988000000001,
      "d": 1025.6419999999998,
      "v": 100
    },
    {
      "midi": 66,
      "hit": false,
      "t": 14615.398500000001,
      "d": 256.41049999999996,
      "v": 100
    },
    {
      "midi": 70,
      "hit": false,
      "t": 14871.809000000001,
      "d": 256.41049999999996,
      "v": 100
    },
    {
      "midi": 66,
      "hit": false,
      "t": 15128.219500000001,
      "d": 256.41049999999996,
      "v": 100
    },
    {
      "midi": 70,
      "hit": false,
      "t": 15384.630000000001,
      "d": 256.41049999999996,
      "v": 100
    },
    {
      "midi": 51,
      "hit": false,
      "t": 15384.630000000001,
      "d": 1025.6419999999998,
      "v": 100
    },
    {
      "midi": 66,
      "hit": false,
      "t": 15641.040500000001,
      "d": 256.41049999999996,
      "v": 100
    },
    {
      "midi": 77,
      "hit": false,
      "t": 15897.451000000001,
      "d": 256.41049999999996,
      "v": 100
    },
    {
      "midi": 73,
      "hit": false,
      "t": 16153.8615,
      "d": 256.41049999999996,
      "v": 100
    },
    {
      "midi": 72,
      "hit": false,
      "t": 16410.272,
      "d": 256.4105000000018,
      "v": 100
    },
    {
      "midi": 80,
      "hit": false,
      "t": 16410.272,
      "d": 512.8210000000036,
      "v": 100
    },
    {
      "midi": 56,
      "hit": false,
      "t": 16410.272,
      "d": 1025.642000000007,
      "v": 100
    },
    {
      "midi": 75,
      "hit": false,
      "t": 16666.682500000003,
      "d": 256.4105000000018,
      "v": 100
    },
    {
      "midi": 72,
      "hit": false,
      "t": 16923.093000000004,
      "d": 256.4105000000018,
      "v": 100
    },
    {
      "midi": 68,
      "hit": false,
      "t": 17179.503500000006,
      "d": 256.4105000000018,
      "v": 100
    },
    {
      "midi": 72,
      "hit": false,
      "t": 17435.914000000008,
      "d": 256.4105000000018,
      "v": 100
    },
    {
      "midi": 80,
      "hit": false,
      "t": 17435.914000000008,
      "d": 512.8210000000036,
      "v": 100
    },
    {
      "midi": 54,
      "hit": false,
      "t": 17435.914000000008,
      "d": 1025.642000000007,
      "v": 100
    },
    {
      "midi": 75,
      "hit": false,
      "t": 17692.32450000001,
      "d": 256.4105000000018,
      "v": 100
    },
    {
      "midi": 72,
      "hit": false,
      "t": 17948.73500000001,
      "d": 256.4105000000018,
      "v": 100
    },
    {
      "midi": 68,
      "hit": false,
      "t": 18205.145500000013,
      "d": 256.4105000000018,
      "v": 100
    },
    {
      "midi": 53,
      "hit": false,
      "t": 18461.556000000015,
      "d": 512.8210000000036,
      "v": 100
    },
    {
      "midi": 80,
      "hit": false,
      "t": 18461.556000000015,
      "d": 512.8210000000036,
      "v": 100
    },
    {
      "midi": 77,
      "hit": false,
      "t": 18717.966500000017,
      "d": 256.4105000000018,
      "v": 100
    },
    {
      "midi": 73,
      "hit": false,
      "t": 18974.37700000002,
      "d": 256.4105000000018,
      "v": 100
    },
    {
      "midi": 61,
      "hit": false,
      "t": 18974.37700000002,
      "d": 512.8210000000036,
      "v": 100
    },
    {
      "midi": 68,
      "hit": false,
      "t": 19230.78750000002,
      "d": 256.4105000000018,
      "v": 100
    },
    {
      "midi": 51,
      "hit": false,
      "t": 19487.198000000022,
      "d": 512.8210000000036,
      "v": 100
    },
    {
      "midi": 80,
      "hit": false,
      "t": 19487.198000000022,
      "d": 512.8210000000036,
      "v": 100
    },
    {
      "midi": 75,
      "hit": false,
      "t": 19743.608500000024,
      "d": 256.4105000000018,
      "v": 100
    },
    {
      "midi": 60,
      "hit": false,
      "t": 20000.019000000026,
      "d": 256.4105000000018,
      "v": 100
    },
    {
      "midi": 63,
      "hit": false,
      "t": 20256.429500000027,
      "d": 256.4105000000018,
      "v": 100
    },
    {
      "midi": 77,
      "hit": false,
      "t": 20512.84000000003,
      "d": 256.4105000000018,
      "v": 100
    },
    {
      "midi": 58,
      "hit": false,
      "t": 20512.84000000003,
      "d": 1025.642000000007,
      "v": 100
    },
    {
      "midi": 65,
      "hit": false,
      "t": 20769.25050000003,
      "d": 256.4105000000018,
      "v": 100
    },
    {
      "midi": 70,
      "hit": false,
      "t": 21025.661000000033,
      "d": 256.4105000000018,
      "v": 100
    },
    {
      "midi": 73,
      "hit": false,
      "t": 21282.071500000035,
      "d": 256.4105000000018,
      "v": 100
    },
    {
      "midi": 77,
      "hit": false,
      "t": 21538.482000000036,
      "d": 256.4105000000018,
      "v": 100
    },
    {
      "midi": 56,
      "hit": false,
      "t": 21538.482000000036,
      "d": 1025.642000000007,
      "v": 100
    },
    {
      "midi": 65,
      "hit": false,
      "t": 21794.892500000038,
      "d": 256.4105000000018,
      "v": 100
    },
    {
      "midi": 80,
      "hit": false,
      "t": 22051.30300000004,
      "d": 256.4105000000018,
      "v": 100
    },
    {
      "midi": 73,
      "hit": false,
      "t": 22307.71350000004,
      "d": 256.4105000000018,
      "v": 100
    },
    {
      "midi": 51,
      "hit": false,
      "t": 22564.124000000043,
      "d": 213.67541666666511,
      "v": 100
    },
    {
      "midi": 78,
      "hit": false,
      "t": 22564.124000000043,
      "d": 256.41049999999814,
      "v": 100
    },
    {
      "midi": 58,
      "hit": false,
      "t": 22820.53450000004,
      "d": 256.4105000000018,
      "v": 100
    },
    {
      "midi": 66,
      "hit": false,
      "t": 22820.53450000004,
      "d": 256.4105000000018,
      "v": 100
    },
    {
      "midi": 66,
      "hit": false,
      "t": 23076.945000000043,
      "d": 256.4105000000018,
      "v": 100
    },
    {
      "midi": 63,
      "hit": false,
      "t": 23076.945000000043,
      "d": 512.8210000000036,
      "v": 100
    },
    {
      "midi": 78,
      "hit": false,
      "t": 23333.355500000045,
      "d": 256.4105000000018,
      "v": 100
    },
    {
      "midi": 54,
      "hit": false,
      "t": 23589.766000000047,
      "d": 256.4105000000018,
      "v": 100
    },
    {
      "midi": 82,
      "hit": false,
      "t": 23589.766000000047,
      "d": 256.4105000000018,
      "v": 100
    },
    {
      "midi": 70,
      "hit": false,
      "t": 23846.17650000005,
      "d": 256.4105000000018,
      "v": 100
    },
    {
      "midi": 70,
      "hit": false,
      "t": 24102.58700000005,
      "d": 512.8210000000036,
      "v": 100
    },
    {
      "midi": 75,
      "hit": false,
      "t": 24102.58700000005,
      "d": 512.8210000000036,
      "v": 100
    },
    {
      "midi": 66,
      "hit": false,
      "t": 24358.997500000052,
      "d": 256.4105000000018,
      "v": 100
    },
    {
      "midi": 72,
      "hit": false,
      "t": 24615.408000000054,
      "d": 256.4105000000018,
      "v": 100
    },
    {
      "midi": 80,
      "hit": false,
      "t": 24615.408000000054,
      "d": 512.8210000000036,
      "v": 100
    },
    {
      "midi": 56,
      "hit": false,
      "t": 24615.408000000054,
      "d": 1025.642000000007,
      "v": 100
    },
    {
      "midi": 63,
      "hit": false,
      "t": 24871.818500000056,
      "d": 256.4105000000018,
      "v": 100
    },
    {
      "midi": 72,
      "hit": false,
      "t": 25128.229000000058,
      "d": 256.4105000000018,
      "v": 100
    },
    {
      "midi": 75,
      "hit": false,
      "t": 25384.63950000006,
      "d": 256.4105000000018,
      "v": 100
    },
    {
      "midi": 80,
      "hit": false,
      "t": 25641.05000000006,
      "d": 256.4105000000018,
      "v": 100
    },
    {
      "midi": 56,
      "hit": false,
      "t": 25641.05000000006,
      "d": 1025.642000000007,
      "v": 100
    },
    {
      "midi": 60,
      "hit": false,
      "t": 25897.460500000063,
      "d": 256.4105000000018,
      "v": 100
    },
    {
      "midi": 75,
      "hit": false,
      "t": 26153.871000000065,
      "d": 256.4105000000018,
      "v": 100
    },
    {
      "midi": 80,
      "hit": false,
      "t": 26410.281500000066,
      "d": 256.4105000000018,
      "v": 100
    },
    {
      "midi": 50,
      "hit": false,
      "t": 26666.69200000007,
      "d": 512.8210000000036,
      "v": 100
    },
    {
      "midi": 80,
      "hit": false,
      "t": 26666.69200000007,
      "d": 512.8210000000036,
      "v": 100
    },
    {
      "midi": 56,
      "hit": false,
      "t": 26923.10250000007,
      "d": 256.4105000000018,
      "v": 100
    },
    {
      "midi": 64,
      "hit": false,
      "t": 27179.51300000007,
      "d": 256.4105000000018,
      "v": 100
    },
    {
      "midi": 59,
      "hit": false,
      "t": 27435.923500000074,
      "d": 256.4105000000018,
      "v": 100
    },
    {
      "midi": 80,
      "hit": false,
      "t": 27435.923500000074,
      "d": 256.4105000000018,
      "v": 100
    },
    {
      "midi": 51,
      "hit": false,
      "t": 27692.334000000075,
      "d": 512.8210000000036,
      "v": 100
    },
    {
      "midi": 68,
      "hit": false,
      "t": 27692.334000000075,
      "d": 512.8210000000036,
      "v": 100
    },
    {
      "midi": 56,
      "hit": false,
      "t": 27948.744500000077,
      "d": 256.4105000000018,
      "v": 100
    },
    {
      "midi": 60,
      "hit": false,
      "t": 28205.15500000008,
      "d": 256.4105000000018,
      "v": 100
    },
    {
      "midi": 63,
      "hit": false,
      "t": 28461.56550000008,
      "d": 256.4105000000018,
      "v": 100
    },
    {
      "midi": 77,
      "hit": false,
      "t": 28717.976000000082,
      "d": 256.4105000000018,
      "v": 100
    },
    {
      "midi": 58,
      "hit": false,
      "t": 28717.976000000082,
      "d": 1025.642000000007,
      "v": 100
    },
    {
      "midi": 65,
      "hit": false,
      "t": 28974.386500000084,
      "d": 256.4105000000018,
      "v": 100
    },
    {
      "midi": 70,
      "hit": false,
      "t": 29230.797000000086,
      "d": 256.4105000000018,
      "v": 100
    },
    {
      "midi": 73,
      "hit": false,
      "t": 29487.207500000088,
      "d": 256.4105000000018,
      "v": 100
    },
    {
      "midi": 77,
      "hit": false,
      "t": 29743.61800000009,
      "d": 256.4105000000018,
      "v": 100
    },
    {
      "midi": 58,
      "hit": false,
      "t": 29743.61800000009,
      "d": 1025.642000000007,
      "v": 100
    },
    {
      "midi": 65,
      "hit": false,
      "t": 30000.02850000009,
      "d": 256.4105000000018,
      "v": 100
    },
    {
      "midi": 70,
      "hit": false,
      "t": 30256.439000000093,
      "d": 256.4105000000018,
      "v": 100
    },
    {
      "midi": 73,
      "hit": false,
      "t": 30512.849500000095,
      "d": 256.4105000000018,
      "v": 100
    },
    {
      "midi": 76,
      "hit": false,
      "t": 30769.260000000097,
      "d": 256.4105000000018,
      "v": 100
    },
    {
      "midi": 57,
      "hit": false,
      "t": 30769.260000000097,
      "d": 1025.642000000007,
      "v": 100
    },
    {
      "midi": 64,
      "hit": false,
      "t": 31025.6705000001,
      "d": 256.4105000000018,
      "v": 100
    },
    {
      "midi": 69,
      "hit": false,
      "t": 31282.0810000001,
      "d": 256.4105000000018,
      "v": 100
    },
    {
      "midi": 73,
      "hit": false,
      "t": 31538.491500000102,
      "d": 256.4105000000018,
      "v": 100
    },
    {
      "midi": 85,
      "hit": false,
      "t": 31794.902000000104,
      "d": 256.4105000000018,
      "v": 100
    },
    {
      "midi": 57,
      "hit": false,
      "t": 31794.902000000104,
      "d": 1025.642000000007,
      "v": 100
    },
    {
      "midi": 81,
      "hit": false,
      "t": 32051.312500000106,
      "d": 256.4105000000018,
      "v": 100
    },
    {
      "midi": 76,
      "hit": false,
      "t": 32307.723000000107,
      "d": 256.4105000000018,
      "v": 100
    },
    {
      "midi": 73,
      "hit": false,
      "t": 32564.13350000011,
      "d": 256.4105000000018,
      "v": 100
    },
    {
      "midi": 73,
      "hit": false,
      "t": 32820.54400000011,
      "d": 256.41049999999814,
      "v": 100
    },
    {
      "midi": 56,
      "hit": false,
      "t": 32820.54400000011,
      "d": 1025.6419999999925,
      "v": 100
    },
    {
      "midi": 72,
      "hit": false,
      "t": 33076.95450000011,
      "d": 256.41049999999814,
      "v": 100
    },
    {
      "midi": 63,
      "hit": false,
      "t": 33333.36500000011,
      "d": 256.41049999999814,
      "v": 100
    },
    {
      "midi": 68,
      "hit": false,
      "t": 33589.775500000105,
      "d": 256.41049999999814,
      "v": 100
    },
    {
      "midi": 70,
      "hit": false,
      "t": 33846.1860000001,
      "d": 256.41049999999814,
      "v": 100
    },
    {
      "midi": 56,
      "hit": false,
      "t": 33846.1860000001,
      "d": 1025.6419999999925,
      "v": 100
    },
    {
      "midi": 72,
      "hit": false,
      "t": 34102.5965000001,
      "d": 256.41049999999814,
      "v": 100
    },
    {
      "midi": 68,
      "hit": false,
      "t": 34359.0070000001,
      "d": 256.41049999999814,
      "v": 100
    },
    {
      "midi": 63,
      "hit": false,
      "t": 34615.4175000001,
      "d": 256.41049999999814,
      "v": 100
    },
    {
      "midi": 84,
      "hit": false,
      "t": 34871.828000000096,
      "d": 256.41049999999814,
      "v": 100
    },
    {
      "midi": 56,
      "hit": false,
      "t": 34871.828000000096,
      "d": 1025.6419999999925,
      "v": 100
    },
    {
      "midi": 72,
      "hit": false,
      "t": 35128.238500000094,
      "d": 256.41049999999814,
      "v": 100
    },
    {
      "midi": 68,
      "hit": false,
      "t": 35384.64900000009,
      "d": 256.41049999999814,
      "v": 100
    },
    {
      "midi": 72,
      "hit": false,
      "t": 35641.05950000009,
      "d": 256.41049999999814,
      "v": 100
    },
    {
      "midi": 73,
      "hit": false,
      "t": 35897.47000000009,
      "d": 512.8210000000036,
      "v": 100
    },
    {
      "midi": 85,
      "hit": false,
      "t": 35897.47000000009,
      "d": 512.8210000000036,
      "v": 100
    },
    {
      "midi": 75,
      "hit": false,
      "t": 36410.29100000009,
      "d": 512.8210000000036,
      "v": 100
    },
    {
      "midi": 87,
      "hit": false,
      "t": 36410.29100000009,
      "d": 512.8210000000036,
      "v": 100
    },
    {
      "midi": 49,
      "hit": false,
      "t": 36923.112000000096,
      "d": 256.41049999999814,
      "v": 100
    },
    {
      "midi": 49,
      "hit": false,
      "t": 37179.522500000094,
      "d": 512.8209999999963,
      "v": 100
    },
    {
      "midi": 53,
      "hit": false,
      "t": 37435.93300000009,
      "d": 512.8209999999963,
      "v": 100
    },
    {
      "midi": 56,
      "hit": false,
      "t": 37435.93300000009,
      "d": 512.8209999999963,
      "v": 100
    },
    {
      "midi": 61,
      "hit": false,
      "t": 37435.93300000009,
      "d": 512.8209999999963,
      "v": 100
    },
    {
      "midi": 49,
      "hit": false,
      "t": 37820.54875000009,
      "d": 128.20524999999907,
      "v": 100
    },
    {
      "midi": 44,
      "hit": false,
      "t": 37948.75400000009,
      "d": 256.41049999999814,
      "v": 100
    },
    {
      "midi": 44,
      "hit": false,
      "t": 38205.164500000086,
      "d": 512.8209999999963,
      "v": 100
    },
    {
      "midi": 53,
      "hit": false,
      "t": 38461.575000000084,
      "d": 512.8209999999963,
      "v": 100
    },
    {
      "midi": 56,
      "hit": false,
      "t": 38461.575000000084,
      "d": 512.8209999999963,
      "v": 100
    },
    {
      "midi": 61,
      "hit": false,
      "t": 38461.575000000084,
      "d": 512.8209999999963,
      "v": 100
    },
    {
      "midi": 49,
      "hit": false,
      "t": 38846.19075000008,
      "d": 128.20524999999907,
      "v": 100
    },
    {
      "midi": 49,
      "hit": false,
      "t": 38974.39600000008,
      "d": 256.41049999999814,
      "v": 100
    },
    {
      "midi": 49,
      "hit": false,
      "t": 39230.80650000008,
      "d": 512.8209999999963,
      "v": 100
    },
    {
      "midi": 53,
      "hit": false,
      "t": 39487.21700000008,
      "d": 512.8209999999963,
      "v": 100
    },
    {
      "midi": 56,
      "hit": false,
      "t": 39487.21700000008,
      "d": 512.8209999999963,
      "v": 100
    },
    {
      "midi": 61,
      "hit": false,
      "t": 39487.21700000008,
      "d": 512.8209999999963,
      "v": 100
    },
    {
      "midi": 49,
      "hit": false,
      "t": 39871.832750000074,
      "d": 128.20524999999907,
      "v": 100
    },
    {
      "midi": 44,
      "hit": false,
      "t": 40000.03800000007,
      "d": 256.41049999999814,
      "v": 100
    },
    {
      "midi": 44,
      "hit": false,
      "t": 40256.44850000007,
      "d": 512.8209999999963,
      "v": 100
    },
    {
      "midi": 53,
      "hit": false,
      "t": 40512.85900000007,
      "d": 512.8209999999963,
      "v": 100
    },
    {
      "midi": 56,
      "hit": false,
      "t": 40512.85900000007,
      "d": 512.8209999999963,
      "v": 100
    },
    {
      "midi": 61,
      "hit": false,
      "t": 40512.85900000007,
      "d": 512.8209999999963,
      "v": 100
    },
    {
      "midi": 49,
      "hit": false,
      "t": 40897.47475000007,
      "d": 128.20524999999907,
      "v": 100
    },
    {
      "midi": 44,
      "hit": false,
      "t": 41025.680000000066,
      "d": 256.41049999999814,
      "v": 100
    },
    {
      "midi": 60,
      "hit": false,
      "t": 41025.680000000066,
      "d": 512.8209999999963,
      "v": 100
    },
    {
      "midi": 44,
      "hit": false,
      "t": 41282.090500000064,
      "d": 256.41049999999814,
      "v": 100
    },
    {
      "midi": 60,
      "hit": false,
      "t": 41538.50100000006,
      "d": 512.8210000000036,
      "v": 100
    },
    {
      "midi": 66,
      "hit": false,
      "t": 41538.50100000006,
      "d": 512.8210000000036,
      "v": 100
    },
    {
      "midi": 39,
      "hit": false,
      "t": 42051.322000000066,
      "d": 256.41049999999814,
      "v": 100
    },
    {
      "midi": 60,
      "hit": false,
      "t": 42051.322000000066,
      "d": 512.8209999999963,
      "v": 100
    },
    {
      "midi": 39,
      "hit": false,
      "t": 42307.732500000064,
      "d": 256.41049999999814,
      "v": 100
    },
    {
      "midi": 60,
      "hit": false,
      "t": 42564.14300000006,
      "d": 512.8210000000036,
      "v": 100
    },
    {
      "midi": 66,
      "hit": false,
      "t": 42564.14300000006,
      "d": 512.8210000000036,
      "v": 100
    },
    {
      "midi": 44,
      "hit": false,
      "t": 43076.964000000065,
      "d": 256.41049999999814,
      "v": 100
    },
    {
      "midi": 60,
      "hit": false,
      "t": 43076.964000000065,
      "d": 512.8209999999963,
      "v": 100
    },
    {
      "midi": 44,
      "hit": false,
      "t": 43333.37450000006,
      "d": 256.41049999999814,
      "v": 100
    },
    {
      "midi": 60,
      "hit": false,
      "t": 43589.78500000006,
      "d": 384.6157499999972,
      "v": 100
    },
    {
      "midi": 66,
      "hit": false,
      "t": 43589.78500000006,
      "d": 384.6157499999972,
      "v": 100
    },
    {
      "midi": 60,
      "hit": false,
      "t": 43974.40075000006,
      "d": 128.20524999999907,
      "v": 100
    },
    {
      "midi": 66,
      "hit": false,
      "t": 43974.40075000006,
      "d": 128.20524999999907,
      "v": 100
    },
    {
      "midi": 39,
      "hit": false,
      "t": 44102.60600000006,
      "d": 256.41049999999814,
      "v": 100
    },
    {
      "midi": 60,
      "hit": false,
      "t": 44102.60600000006,
      "d": 512.8209999999963,
      "v": 100
    },
    {
      "midi": 39,
      "hit": false,
      "t": 44359.016500000056,
      "d": 256.41049999999814,
      "v": 100
    },
    {
      "midi": 60,
      "hit": false,
      "t": 44615.427000000054,
      "d": 512.8210000000036,
      "v": 100
    },
    {
      "midi": 66,
      "hit": false,
      "t": 44615.427000000054,
      "d": 512.8210000000036,
      "v": 100
    },
    {
      "midi": 42,
      "hit": false,
      "t": 45128.24800000006,
      "d": 256.41049999999814,
      "v": 100
    },
    {
      "midi": 58,
      "hit": false,
      "t": 45128.24800000006,
      "d": 512.8209999999963,
      "v": 100
    },
    {
      "midi": 42,
      "hit": false,
      "t": 45384.658500000056,
      "d": 256.41049999999814,
      "v": 100
    },
    {
      "midi": 58,
      "hit": false,
      "t": 45641.069000000054,
      "d": 512.8210000000036,
      "v": 100
    },
    {
      "midi": 66,
      "hit": false,
      "t": 45641.069000000054,
      "d": 512.8210000000036,
      "v": 100
    },
    {
      "midi": 37,
      "hit": false,
      "t": 46153.89000000006,
      "d": 256.41049999999814,
      "v": 100
    },
    {
      "midi": 58,
      "hit": false,
      "t": 46153.89000000006,
      "d": 512.8209999999963,
      "v": 100
    },
    {
      "midi": 37,
      "hit": false,
      "t": 46410.300500000056,
      "d": 256.41049999999814,
      "v": 100
    },
    {
      "midi": 58,
      "hit": false,
      "t": 46666.711000000054,
      "d": 512.8210000000036,
      "v": 100
    },
    {
      "midi": 66,
      "hit": false,
      "t": 46666.711000000054,
      "d": 512.8210000000036,
      "v": 100
    },
    {
      "midi": 46,
      "hit": false,
      "t": 47179.53200000006,
      "d": 256.41049999999814,
      "v": 100
    },
    {
      "midi": 58,
      "hit": false,
      "t": 47179.53200000006,
      "d": 512.8209999999963,
      "v": 100
    },
    {
      "midi": 46,
      "hit": false,
      "t": 47435.942500000056,
      "d": 256.41049999999814,
      "v": 100
    },
    {
      "midi": 58,
      "hit": false,
      "t": 47692.353000000054,
      "d": 384.6157499999972,
      "v": 100
    },
    {
      "midi": 61,
      "hit": false,
      "t": 47692.353000000054,
      "d": 384.6157499999972,
      "v": 100
    },
    {
      "midi": 65,
      "hit": false,
      "t": 47692.353000000054,
      "d": 384.6157499999972,
      "v": 100
    },
    {
      "midi": 58,
      "hit": false,
      "t": 48076.96875000005,
      "d": 128.20524999999907,
      "v": 100
    },
    {
      "midi": 65,
      "hit": false,
      "t": 48076.96875000005,
      "d": 128.20524999999907,
      "v": 100
    },
    {
      "midi": 46,
      "hit": false,
      "t": 48205.17400000005,
      "d": 256.41049999999814,
      "v": 100
    },
    {
      "midi": 58,
      "hit": false,
      "t": 48205.17400000005,
      "d": 512.8209999999963,
      "v": 100
    },
    {
      "midi": 46,
      "hit": false,
      "t": 48461.58450000005,
      "d": 256.41049999999814,
      "v": 100
    },
    {
      "midi": 58,
      "hit": false,
      "t": 48717.995000000046,
      "d": 512.8210000000036,
      "v": 100
    },
    {
      "midi": 61,
      "hit": false,
      "t": 48717.995000000046,
      "d": 512.8210000000036,
      "v": 100
    },
    {
      "midi": 65,
      "hit": false,
      "t": 48717.995000000046,
      "d": 512.8210000000036,
      "v": 100
    },
    {
      "midi": 44,
      "hit": false,
      "t": 49230.81600000005,
      "d": 256.41049999999814,
      "v": 100
    },
    {
      "midi": 60,
      "hit": false,
      "t": 49230.81600000005,
      "d": 512.8209999999963,
      "v": 100
    },
    {
      "midi": 44,
      "hit": false,
      "t": 49487.22650000005,
      "d": 256.41049999999814,
      "v": 100
    },
    {
      "midi": 60,
      "hit": false,
      "t": 49743.637000000046,
      "d": 512.8209999999963,
      "v": 100
    },
    {
      "midi": 66,
      "hit": false,
      "t": 49743.637000000046,
      "d": 512.8209999999963,
      "v": 100
    },
    {
      "midi": 68,
      "hit": false,
      "t": 50128.25275000004,
      "d": 128.20524999999907,
      "v": 100
    },
    {
      "midi": 39,
      "hit": false,
      "t": 50256.45800000004,
      "d": 256.41049999999814,
      "v": 100
    },
    {
      "midi": 60,
      "hit": false,
      "t": 50256.45800000004,
      "d": 512.8209999999963,
      "v": 100
    },
    {
      "midi": 68,
      "hit": false,
      "t": 50256.45800000004,
      "d": 512.8209999999963,
      "v": 100
    },
    {
      "midi": 39,
      "hit": false,
      "t": 50512.86850000004,
      "d": 256.41049999999814,
      "v": 100
    },
    {
      "midi": 60,
      "hit": false,
      "t": 50769.27900000004,
      "d": 512.8210000000036,
      "v": 100
    },
    {
      "midi": 66,
      "hit": false,
      "t": 50769.27900000004,
      "d": 512.8210000000036,
      "v": 100
    },
    {
      "midi": 68,
      "hit": false,
      "t": 50769.27900000004,
      "d": 512.8210000000036,
      "v": 100
    },
    {
      "midi": 44,
      "hit": false,
      "t": 51282.10000000004,
      "d": 256.41049999999814,
      "v": 100
    },
    {
      "midi": 60,
      "hit": false,
      "t": 51282.10000000004,
      "d": 512.8209999999963,
      "v": 100
    },
    {
      "midi": 68,
      "hit": false,
      "t": 51282.10000000004,
      "d": 512.8209999999963,
      "v": 100
    },
    {
      "midi": 44,
      "hit": false,
      "t": 51538.51050000004,
      "d": 256.41049999999814,
      "v": 100
    },
    {
      "midi": 60,
      "hit": false,
      "t": 51794.92100000004,
      "d": 384.6157499999972,
      "v": 100
    },
    {
      "midi": 66,
      "hit": false,
      "t": 51794.92100000004,
      "d": 384.6157499999972,
      "v": 100
    },
    {
      "midi": 68,
      "hit": false,
      "t": 51794.92100000004,
      "d": 384.6157499999972,
      "v": 100
    },
    {
      "midi": 60,
      "hit": false,
      "t": 52179.536750000036,
      "d": 128.20524999999907,
      "v": 100
    },
    {
      "midi": 66,
      "hit": false,
      "t": 52179.536750000036,
      "d": 128.20524999999907,
      "v": 100
    },
    {
      "midi": 39,
      "hit": false,
      "t": 52307.742000000035,
      "d": 256.41049999999814,
      "v": 100
    },
    {
      "midi": 60,
      "hit": false,
      "t": 52307.742000000035,
      "d": 512.8209999999963,
      "v": 100
    },
    {
      "midi": 68,
      "hit": false,
      "t": 52307.742000000035,
      "d": 512.8209999999963,
      "v": 100
    },
    {
      "midi": 39,
      "hit": false,
      "t": 52564.15250000003,
      "d": 256.41049999999814,
      "v": 100
    },
    {
      "midi": 60,
      "hit": false,
      "t": 52820.56300000003,
      "d": 512.8210000000036,
      "v": 100
    },
    {
      "midi": 66,
      "hit": false,
      "t": 52820.56300000003,
      "d": 512.8210000000036,
      "v": 100
    },
    {
      "midi": 68,
      "hit": false,
      "t": 52820.56300000003,
      "d": 512.8210000000036,
      "v": 100
    },
    {
      "midi": 49,
      "hit": false,
      "t": 53333.384000000035,
      "d": 256.41049999999814,
      "v": 100
    },
    {
      "midi": 49,
      "hit": false,
      "t": 53589.79450000003,
      "d": 512.8209999999963,
      "v": 100
    },
    {
      "midi": 53,
      "hit": false,
      "t": 53846.20500000003,
      "d": 512.8209999999963,
      "v": 100
    },
    {
      "midi": 56,
      "hit": false,
      "t": 53846.20500000003,
      "d": 512.8209999999963,
      "v": 100
    },
    {
      "midi": 61,
      "hit": false,
      "t": 53846.20500000003,
      "d": 512.8209999999963,
      "v": 100
    },
    {
      "midi": 49,
      "hit": false,
      "t": 54230.82075000003,
      "d": 128.20524999999907,
      "v": 100
    },
    {
      "midi": 44,
      "hit": false,
      "t": 54359.02600000003,
      "d": 256.41049999999814,
      "v": 100
    },
    {
      "midi": 44,
      "hit": false,
      "t": 54615.436500000025,
      "d": 512.8209999999963,
      "v": 100
    },
    {
      "midi": 53,
      "hit": false,
      "t": 54871.84700000002,
      "d": 512.8209999999963,
      "v": 100
    },
    {
      "midi": 56,
      "hit": false,
      "t": 54871.84700000002,
      "d": 512.8209999999963,
      "v": 100
    },
    {
      "midi": 61,
      "hit": false,
      "t": 54871.84700000002,
      "d": 512.8209999999963,
      "v": 100
    },
    {
      "midi": 49,
      "hit": false,
      "t": 55256.46275000002,
      "d": 128.20524999999907,
      "v": 100
    },
    {
      "midi": 49,
      "hit": false,
      "t": 55384.66800000002,
      "d": 256.41049999999814,
      "v": 100
    },
    {
      "midi": 49,
      "hit": false,
      "t": 55641.07850000002,
      "d": 512.8209999999963,
      "v": 100
    },
    {
      "midi": 53,
      "hit": false,
      "t": 55897.489000000016,
      "d": 512.8209999999963,
      "v": 100
    },
    {
      "midi": 56,
      "hit": false,
      "t": 55897.489000000016,
      "d": 512.8209999999963,
      "v": 100
    },
    {
      "midi": 61,
      "hit": false,
      "t": 55897.489000000016,
      "d": 512.8209999999963,
      "v": 100
    },
    {
      "midi": 49,
      "hit": false,
      "t": 56282.10475000001,
      "d": 128.20524999999907,
      "v": 100
    },
    {
      "midi": 44,
      "hit": false,
      "t": 56410.31000000001,
      "d": 256.41049999999814,
      "v": 100
    },
    {
      "midi": 44,
      "hit": false,
      "t": 56666.72050000001,
      "d": 512.8209999999963,
      "v": 100
    },
    {
      "midi": 53,
      "hit": false,
      "t": 56923.13100000001,
      "d": 512.8209999999963,
      "v": 100
    },
    {
      "midi": 56,
      "hit": false,
      "t": 56923.13100000001,
      "d": 512.8209999999963,
      "v": 100
    },
    {
      "midi": 61,
      "hit": false,
      "t": 56923.13100000001,
      "d": 512.8209999999963,
      "v": 100
    },
    {
      "midi": 49,
      "hit": false,
      "t": 57307.746750000006,
      "d": 128.20524999999907,
      "v": 100
    },
    {
      "midi": 44,
      "hit": false,
      "t": 57435.952000000005,
      "d": 256.41049999999814,
      "v": 100
    },
    {
      "midi": 60,
      "hit": false,
      "t": 57435.952000000005,
      "d": 512.8209999999963,
      "v": 100
    },
    {
      "midi": 44,
      "hit": false,
      "t": 57692.3625,
      "d": 256.41049999999814,
      "v": 100
    },
    {
      "midi": 60,
      "hit": false,
      "t": 57948.773,
      "d": 512.8210000000036,
      "v": 100
    },
    {
      "midi": 66,
      "hit": false,
      "t": 57948.773,
      "d": 512.8210000000036,
      "v": 100
    },
    {
      "midi": 39,
      "hit": false,
      "t": 58461.594000000005,
      "d": 256.41049999999814,
      "v": 100
    },
    {
      "midi": 60,
      "hit": false,
      "t": 58461.594000000005,
      "d": 512.8209999999963,
      "v": 100
    },
    {
      "midi": 39,
      "hit": false,
      "t": 58718.0045,
      "d": 256.41049999999814,
      "v": 100
    },
    {
      "midi": 60,
      "hit": false,
      "t": 58974.415,
      "d": 512.8210000000036,
      "v": 100
    },
    {
      "midi": 66,
      "hit": false,
      "t": 58974.415,
      "d": 512.8210000000036,
      "v": 100
    },
    {
      "midi": 44,
      "hit": false,
      "t": 59487.236000000004,
      "d": 256.41049999999814,
      "v": 100
    },
    {
      "midi": 60,
      "hit": false,
      "t": 59487.236000000004,
      "d": 512.8209999999963,
      "v": 100
    },
    {
      "midi": 44,
      "hit": false,
      "t": 59743.6465,
      "d": 256.41049999999814,
      "v": 100
    },
    {
      "midi": 60,
      "hit": false,
      "t": 60000.057,
      "d": 384.6157499999972,
      "v": 100
    },
    {
      "midi": 66,
      "hit": false,
      "t": 60000.057,
      "d": 384.6157499999972,
      "v": 100
    },
    {
      "midi": 60,
      "hit": false,
      "t": 60384.67275,
      "d": 128.20524999999907,
      "v": 100
    },
    {
      "midi": 66,
      "hit": false,
      "t": 60384.67275,
      "d": 128.20524999999907,
      "v": 100
    },
    {
      "midi": 39,
      "hit": false,
      "t": 60512.878,
      "d": 256.41049999999814,
      "v": 100
    },
    {
      "midi": 60,
      "hit": false,
      "t": 60512.878,
      "d": 512.8209999999963,
      "v": 100
    },
    {
      "midi": 39,
      "hit": false,
      "t": 60769.288499999995,
      "d": 256.41049999999814,
      "v": 100
    },
    {
      "midi": 60,
      "hit": false,
      "t": 61025.69899999999,
      "d": 512.8210000000036,
      "v": 100
    },
    {
      "midi": 66,
      "hit": false,
      "t": 61025.69899999999,
      "d": 512.8210000000036,
      "v": 100
    },
    {
      "midi": 42,
      "hit": false,
      "t": 61538.52,
      "d": 256.41049999999814,
      "v": 100
    },
    {
      "midi": 58,
      "hit": false,
      "t": 61538.52,
      "d": 512.8209999999963,
      "v": 100
    },
    {
      "midi": 42,
      "hit": false,
      "t": 61794.930499999995,
      "d": 256.41049999999814,
      "v": 100
    },
    {
      "midi": 58,
      "hit": false,
      "t": 62051.34099999999,
      "d": 512.8210000000036,
      "v": 100
    },
    {
      "midi": 66,
      "hit": false,
      "t": 62051.34099999999,
      "d": 512.8210000000036,
      "v": 100
    },
    {
      "midi": 37,
      "hit": false,
      "t": 62564.162,
      "d": 256.41049999999814,
      "v": 100
    },
    {
      "midi": 58,
      "hit": false,
      "t": 62564.162,
      "d": 512.8209999999963,
      "v": 100
    },
    {
      "midi": 37,
      "hit": false,
      "t": 62820.572499999995,
      "d": 256.41049999999814,
      "v": 100
    },
    {
      "midi": 58,
      "hit": false,
      "t": 63076.98299999999,
      "d": 512.8210000000036,
      "v": 100
    },
    {
      "midi": 66,
      "hit": false,
      "t": 63076.98299999999,
      "d": 512.8210000000036,
      "v": 100
    },
    {
      "midi": 42,
      "hit": false,
      "t": 63589.804,
      "d": 256.41049999999814,
      "v": 100
    },
    {
      "midi": 57,
      "hit": false,
      "t": 63589.804,
      "d": 512.8209999999963,
      "v": 100
    },
    {
      "midi": 42,
      "hit": false,
      "t": 63846.214499999995,
      "d": 256.41049999999814,
      "v": 100
    },
    {
      "midi": 57,
      "hit": false,
      "t": 64102.62499999999,
      "d": 512.8210000000036,
      "v": 100
    },
    {
      "midi": 65,
      "hit": false,
      "t": 64102.62499999999,
      "d": 512.8210000000036,
      "v": 100
    },
    {
      "midi": 37,
      "hit": false,
      "t": 64615.445999999996,
      "d": 256.41049999999814,
      "v": 100
    },
    {
      "midi": 57,
      "hit": false,
      "t": 64615.445999999996,
      "d": 512.8209999999963,
      "v": 100
    },
    {
      "midi": 37,
      "hit": false,
      "t": 64871.856499999994,
      "d": 256.41049999999814,
      "v": 100
    },
    {
      "midi": 57,
      "hit": false,
      "t": 65128.26699999999,
      "d": 512.8209999999963,
      "v": 100
    },
    {
      "midi": 65,
      "hit": false,
      "t": 65128.26699999999,
      "d": 512.8209999999963,
      "v": 100
    },
    {
      "midi": 49,
      "hit": false,
      "t": 65641.08799999999,
      "d": 256.41049999999814,
      "v": 100
    },
    {
      "midi": 49,
      "hit": false,
      "t": 65897.49849999999,
      "d": 512.8209999999963,
      "v": 100
    },
    {
      "midi": 53,
      "hit": false,
      "t": 66153.90899999999,
      "d": 512.8209999999963,
      "v": 100
    },
    {
      "midi": 56,
      "hit": false,
      "t": 66153.90899999999,
      "d": 512.8209999999963,
      "v": 100
    },
    {
      "midi": 61,
      "hit": false,
      "t": 66153.90899999999,
      "d": 512.8209999999963,
      "v": 100
    },
    {
      "midi": 49,
      "hit": false,
      "t": 66538.52474999998,
      "d": 128.20524999999907,
      "v": 100
    },
    {
      "midi": 44,
      "hit": false,
      "t": 66666.72999999998,
      "d": 256.41049999999814,
      "v": 100
    },
    {
      "midi": 44,
      "hit": false,
      "t": 66923.14049999998,
      "d": 512.8209999999963,
      "v": 100
    },
    {
      "midi": 53,
      "hit": false,
      "t": 67179.55099999998,
      "d": 512.8209999999963,
      "v": 100
    },
    {
      "midi": 56,
      "hit": false,
      "t": 67179.55099999998,
      "d": 512.8209999999963,
      "v": 100
    },
    {
      "midi": 61,
      "hit": false,
      "t": 67179.55099999998,
      "d": 512.8209999999963,
      "v": 100
    },
    {
      "midi": 49,
      "hit": false,
      "t": 67564.16674999997,
      "d": 128.20524999999907,
      "v": 100
    },
    {
      "midi": 49,
      "hit": false,
      "t": 67692.37199999997,
      "d": 256.41049999999814,
      "v": 100
    },
    {
      "midi": 49,
      "hit": false,
      "t": 67948.78249999997,
      "d": 512.8209999999963,
      "v": 100
    },
    {
      "midi": 53,
      "hit": false,
      "t": 68205.19299999997,
      "d": 512.8209999999963,
      "v": 100
    },
    {
      "midi": 56,
      "hit": false,
      "t": 68205.19299999997,
      "d": 512.8209999999963,
      "v": 100
    },
    {
      "midi": 61,
      "hit": false,
      "t": 68205.19299999997,
      "d": 512.8209999999963,
      "v": 100
    },
    {
      "midi": 49,
      "hit": false,
      "t": 68589.80874999997,
      "d": 128.20524999999907,
      "v": 100
    },
    {
      "midi": 44,
      "hit": false,
      "t": 68718.01399999997,
      "d": 256.41049999999814,
      "v": 100
    },
    {
      "midi": 44,
      "hit": false,
      "t": 68974.42449999996,
      "d": 512.8209999999963,
      "v": 100
    },
    {
      "midi": 53,
      "hit": false,
      "t": 69230.83499999996,
      "d": 512.8209999999963,
      "v": 100
    },
    {
      "midi": 56,
      "hit": false,
      "t": 69230.83499999996,
      "d": 512.8209999999963,
      "v": 100
    },
    {
      "midi": 61,
      "hit": false,
      "t": 69230.83499999996,
      "d": 512.8209999999963,
      "v": 100
    },
    {
      "midi": 49,
      "hit": false,
      "t": 69615.45074999996,
      "d": 128.20524999999907,
      "v": 100
    },
    {
      "midi": 77,
      "hit": false,
      "t": 69743.65599999996,
      "d": 256.41049999999814,
      "v": 100
    },
    {
      "midi": 58,
      "hit": false,
      "t": 69743.65599999996,
      "d": 1025.6419999999925,
      "v": 100
    },
    {
      "midi": 65,
      "hit": false,
      "t": 70000.06649999996,
      "d": 256.41049999999814,
      "v": 100
    },
    {
      "midi": 70,
      "hit": false,
      "t": 70256.47699999996,
      "d": 256.41049999999814,
      "v": 100
    },
    {
      "midi": 73,
      "hit": false,
      "t": 70512.88749999995,
      "d": 256.41049999999814,
      "v": 100
    },
    {
      "midi": 77,
      "hit": false,
      "t": 70769.29799999995,
      "d": 256.41049999999814,
      "v": 100
    },
    {
      "midi": 56,
      "hit": false,
      "t": 70769.29799999995,
      "d": 1025.6419999999925,
      "v": 100
    },
    {
      "midi": 65,
      "hit": false,
      "t": 71025.70849999995,
      "d": 256.41049999999814,
      "v": 100
    },
    {
      "midi": 80,
      "hit": false,
      "t": 71282.11899999995,
      "d": 256.41049999999814,
      "v": 100
    },
    {
      "midi": 73,
      "hit": false,
      "t": 71538.52949999995,
      "d": 256.41049999999814,
      "v": 100
    },
    {
      "midi": 55,
      "hit": false,
      "t": 71794.93999999994,
      "d": 213.67541666666511,
      "v": 100
    },
    {
      "midi": 79,
      "hit": false,
      "t": 71794.93999999994,
      "d": 256.41049999999814,
      "v": 100
    },
    {
      "midi": 58,
      "hit": false,
      "t": 72051.35049999994,
      "d": 256.41049999999814,
      "v": 100
    },
    {
      "midi": 67,
      "hit": false,
      "t": 72051.35049999994,
      "d": 256.41049999999814,
      "v": 100
    },
    {
      "midi": 67,
      "hit": false,
      "t": 72307.76099999994,
      "d": 256.41049999999814,
      "v": 100
    },
    {
      "midi": 63,
      "hit": false,
      "t": 72307.76099999994,
      "d": 512.8209999999963,
      "v": 100
    },
    {
      "midi": 79,
      "hit": false,
      "t": 72564.17149999994,
      "d": 256.41049999999814,
      "v": 100
    },
    {
      "midi": 55,
      "hit": false,
      "t": 72820.58199999994,
      "d": 256.41049999999814,
      "v": 100
    },
    {
      "midi": 80,
      "hit": false,
      "t": 72820.58199999994,
      "d": 256.41049999999814,
      "v": 100
    },
    {
      "midi": 58,
      "hit": false,
      "t": 73076.99249999993,
      "d": 256.41049999999814,
      "v": 100
    },
    {
      "midi": 63,
      "hit": false,
      "t": 73333.40299999993,
      "d": 512.8209999999963,
      "v": 100
    },
    {
      "midi": 79,
      "hit": false,
      "t": 73333.40299999993,
      "d": 512.8209999999963,
      "v": 100
    },
    {
      "midi": 67,
      "hit": false,
      "t": 73589.81349999993,
      "d": 256.41049999999814,
      "v": 100
    },
    {
      "midi": 72,
      "hit": false,
      "t": 73846.22399999993,
      "d": 256.41049999999814,
      "v": 100
    },
    {
      "midi": 80,
      "hit": false,
      "t": 73846.22399999993,
      "d": 512.8209999999963,
      "v": 100
    },
    {
      "midi": 56,
      "hit": false,
      "t": 73846.22399999993,
      "d": 1025.6419999999925,
      "v": 100
    },
    {
      "midi": 63,
      "hit": false,
      "t": 74102.63449999993,
      "d": 256.41049999999814,
      "v": 100
    },
    {
      "midi": 72,
      "hit": false,
      "t": 74359.04499999993,
      "d": 256.41049999999814,
      "v": 100
    },
    {
      "midi": 75,
      "hit": false,
      "t": 74615.45549999992,
      "d": 256.41049999999814,
      "v": 100
    },
    {
      "midi": 80,
      "hit": false,
      "t": 74871.86599999992,
      "d": 256.41049999999814,
      "v": 100
    },
    {
      "midi": 54,
      "hit": false,
      "t": 74871.86599999992,
      "d": 1025.6419999999925,
      "v": 100
    },
    {
      "midi": 60,
      "hit": false,
      "t": 75128.27649999992,
      "d": 256.41049999999814,
      "v": 100
    },
    {
      "midi": 75,
      "hit": false,
      "t": 75384.68699999992,
      "d": 256.41049999999814,
      "v": 100
    },
    {
      "midi": 80,
      "hit": false,
      "t": 75641.09749999992,
      "d": 256.41049999999814,
      "v": 100
    },
    {
      "midi": 49,
      "hit": false,
      "t": 75897.50799999991,
      "d": 512.8209999999963,
      "v": 100
    },
    {
      "midi": 80,
      "hit": false,
      "t": 75897.50799999991,
      "d": 512.8209999999963,
      "v": 100
    },
    {
      "midi": 56,
      "hit": false,
      "t": 76153.91849999991,
      "d": 256.41049999999814,
      "v": 100
    },
    {
      "midi": 61,
      "hit": false,
      "t": 76410.32899999991,
      "d": 256.41049999999814,
      "v": 100
    },
    {
      "midi": 65,
      "hit": false,
      "t": 76666.73949999991,
      "d": 256.41049999999814,
      "v": 100
    },
    {
      "midi": 51,
      "hit": false,
      "t": 76923.1499999999,
      "d": 512.8209999999963,
      "v": 100
    },
    {
      "midi": 80,
      "hit": false,
      "t": 76923.1499999999,
      "d": 512.8209999999963,
      "v": 100
    },
    {
      "midi": 56,
      "hit": false,
      "t": 77179.5604999999,
      "d": 256.41049999999814,
      "v": 100
    },
    {
      "midi": 60,
      "hit": false,
      "t": 77435.9709999999,
      "d": 256.41049999999814,
      "v": 100
    },
    {
      "midi": 63,
      "hit": false,
      "t": 77692.3814999999,
      "d": 256.41049999999814,
      "v": 100
    },
    {
      "midi": 77,
      "hit": false,
      "t": 77948.7919999999,
      "d": 256.41049999999814,
      "v": 100
    },
    {
      "midi": 46,
      "hit": false,
      "t": 77948.7919999999,
      "d": 1025.6419999999925,
      "v": 100
    },
    {
      "midi": 65,
      "hit": false,
      "t": 78205.2024999999,
      "d": 256.41049999999814,
      "v": 100
    },
    {
      "midi": 70,
      "hit": false,
      "t": 78461.6129999999,
      "d": 256.41049999999814,
      "v": 100
    },
    {
      "midi": 70,
      "hit": false,
      "t": 78718.0234999999,
      "d": 128.20524999999907,
      "v": 100
    },
    {
      "midi": 72,
      "hit": false,
      "t": 78846.2287499999,
      "d": 128.20524999999907,
      "v": 100
    },
    {
      "midi": 73,
      "hit": false,
      "t": 78974.43399999989,
      "d": 256.41049999999814,
      "v": 100
    },
    {
      "midi": 56,
      "hit": false,
      "t": 78974.43399999989,
      "d": 1025.6419999999925,
      "v": 100
    },
    {
      "midi": 65,
      "hit": false,
      "t": 79230.84449999989,
      "d": 256.41049999999814,
      "v": 100
    },
    {
      "midi": 70,
      "hit": false,
      "t": 79487.25499999989,
      "d": 256.41049999999814,
      "v": 100
    },
    {
      "midi": 73,
      "hit": false,
      "t": 79743.66549999989,
      "d": 256.41049999999814,
      "v": 100
    },
    {
      "midi": 75,
      "hit": false,
      "t": 80000.07599999988,
      "d": 256.41049999999814,
      "v": 100
    },
    {
      "midi": 51,
      "hit": false,
      "t": 80000.07599999988,
      "d": 1025.6419999999925,
      "v": 100
    },
    {
      "midi": 66,
      "hit": false,
      "t": 80256.48649999988,
      "d": 256.41049999999814,
      "v": 100
    },
    {
      "midi": 70,
      "hit": false,
      "t": 80512.89699999988,
      "d": 256.41049999999814,
      "v": 100
    },
    {
      "midi": 66,
      "hit": false,
      "t": 80769.30749999988,
      "d": 256.41049999999814,
      "v": 100
    },
    {
      "midi": 70,
      "hit": false,
      "t": 81025.71799999988,
      "d": 256.41049999999814,
      "v": 100
    },
    {
      "midi": 51,
      "hit": false,
      "t": 81025.71799999988,
      "d": 1025.6419999999925,
      "v": 100
    },
    {
      "midi": 66,
      "hit": false,
      "t": 81282.12849999988,
      "d": 256.41049999999814,
      "v": 100
    },
    {
      "midi": 77,
      "hit": false,
      "t": 81538.53899999987,
      "d": 256.41049999999814,
      "v": 100
    },
    {
      "midi": 73,
      "hit": false,
      "t": 81794.94949999987,
      "d": 256.41049999999814,
      "v": 100
    },
    {
      "midi": 72,
      "hit": false,
      "t": 82051.35999999987,
      "d": 256.41049999999814,
      "v": 100
    },
    {
      "midi": 80,
      "hit": false,
      "t": 82051.35999999987,
      "d": 512.8209999999963,
      "v": 100
    },
    {
      "midi": 56,
      "hit": false,
      "t": 82051.35999999987,
      "d": 1025.6419999999925,
      "v": 100
    },
    {
      "midi": 75,
      "hit": false,
      "t": 82307.77049999987,
      "d": 256.41049999999814,
      "v": 100
    },
    {
      "midi": 72,
      "hit": false,
      "t": 82564.18099999987,
      "d": 256.41049999999814,
      "v": 100
    },
    {
      "midi": 68,
      "hit": false,
      "t": 82820.59149999986,
      "d": 256.41049999999814,
      "v": 100
    },
    {
      "midi": 72,
      "hit": false,
      "t": 83077.00199999986,
      "d": 256.41049999999814,
      "v": 100
    },
    {
      "midi": 80,
      "hit": false,
      "t": 83077.00199999986,
      "d": 512.8209999999963,
      "v": 100
    },
    {
      "midi": 54,
      "hit": false,
      "t": 83077.00199999986,
      "d": 1025.6419999999925,
      "v": 100
    },
    {
      "midi": 75,
      "hit": false,
      "t": 83333.41249999986,
      "d": 256.41049999999814,
      "v": 100
    },
    {
      "midi": 72,
      "hit": false,
      "t": 83589.82299999986,
      "d": 256.41049999999814,
      "v": 100
    },
    {
      "midi": 68,
      "hit": false,
      "t": 83846.23349999986,
      "d": 256.41049999999814,
      "v": 100
    },
    {
      "midi": 53,
      "hit": false,
      "t": 84102.64399999985,
      "d": 512.8209999999963,
      "v": 100
    },
    {
      "midi": 80,
      "hit": false,
      "t": 84102.64399999985,
      "d": 512.8209999999963,
      "v": 100
    },
    {
      "midi": 77,
      "hit": false,
      "t": 84359.05449999985,
      "d": 256.41049999999814,
      "v": 100
    },
    {
      "midi": 73,
      "hit": false,
      "t": 84615.46499999985,
      "d": 256.41049999999814,
      "v": 100
    },
    {
      "midi": 61,
      "hit": false,
      "t": 84615.46499999985,
      "d": 512.8209999999963,
      "v": 100
    },
    {
      "midi": 68,
      "hit": false,
      "t": 84871.87549999985,
      "d": 256.41049999999814,
      "v": 100
    },
    {
      "midi": 51,
      "hit": false,
      "t": 85128.28599999985,
      "d": 512.8209999999963,
      "v": 100
    },
    {
      "midi": 80,
      "hit": false,
      "t": 85128.28599999985,
      "d": 512.8209999999963,
      "v": 100
    },
    {
      "midi": 75,
      "hit": false,
      "t": 85384.69649999985,
      "d": 256.41049999999814,
      "v": 100
    },
    {
      "midi": 60,
      "hit": false,
      "t": 85641.10699999984,
      "d": 256.41049999999814,
      "v": 100
    },
    {
      "midi": 63,
      "hit": false,
      "t": 85897.51749999984,
      "d": 256.41049999999814,
      "v": 100
    },
    {
      "midi": 77,
      "hit": false,
      "t": 86153.92799999984,
      "d": 256.41049999999814,
      "v": 100
    },
    {
      "midi": 58,
      "hit": false,
      "t": 86153.92799999984,
      "d": 1025.6419999999925,
      "v": 100
    },
    {
      "midi": 65,
      "hit": false,
      "t": 86410.33849999984,
      "d": 256.41049999999814,
      "v": 100
    },
    {
      "midi": 70,
      "hit": false,
      "t": 86666.74899999984,
      "d": 256.41049999999814,
      "v": 100
    },
    {
      "midi": 73,
      "hit": false,
      "t": 86923.15949999983,
      "d": 256.41049999999814,
      "v": 100
    },
    {
      "midi": 77,
      "hit": false,
      "t": 87179.56999999983,
      "d": 256.41049999999814,
      "v": 100
    },
    {
      "midi": 56,
      "hit": false,
      "t": 87179.56999999983,
      "d": 1025.6419999999925,
      "v": 100
    },
    {
      "midi": 65,
      "hit": false,
      "t": 87435.98049999983,
      "d": 256.41049999999814,
      "v": 100
    },
    {
      "midi": 80,
      "hit": false,
      "t": 87692.39099999983,
      "d": 256.41049999999814,
      "v": 100
    },
    {
      "midi": 73,
      "hit": false,
      "t": 87948.80149999983,
      "d": 256.41049999999814,
      "v": 100
    },
    {
      "midi": 51,
      "hit": false,
      "t": 88205.21199999982,
      "d": 213.67541666666511,
      "v": 100
    },
    {
      "midi": 78,
      "hit": false,
      "t": 88205.21199999982,
      "d": 256.41049999999814,
      "v": 100
    },
    {
      "midi": 58,
      "hit": false,
      "t": 88461.62249999982,
      "d": 256.41049999999814,
      "v": 100
    },
    {
      "midi": 66,
      "hit": false,
      "t": 88461.62249999982,
      "d": 256.41049999999814,
      "v": 100
    },
    {
      "midi": 66,
      "hit": false,
      "t": 88718.03299999982,
      "d": 256.41049999999814,
      "v": 100
    },
    {
      "midi": 63,
      "hit": false,
      "t": 88718.03299999982,
      "d": 512.8209999999963,
      "v": 100
    },
    {
      "midi": 78,
      "hit": false,
      "t": 88974.44349999982,
      "d": 256.41049999999814,
      "v": 100
    },
    {
      "midi": 54,
      "hit": false,
      "t": 89230.85399999982,
      "d": 256.41049999999814,
      "v": 100
    },
    {
      "midi": 82,
      "hit": false,
      "t": 89230.85399999982,
      "d": 256.41049999999814,
      "v": 100
    },
    {
      "midi": 70,
      "hit": false,
      "t": 89487.26449999982,
      "d": 256.41049999999814,
      "v": 100
    },
    {
      "midi": 70,
      "hit": false,
      "t": 89743.67499999981,
      "d": 512.8209999999963,
      "v": 100
    },
    {
      "midi": 75,
      "hit": false,
      "t": 89743.67499999981,
      "d": 512.8209999999963,
      "v": 100
    },
    {
      "midi": 66,
      "hit": false,
      "t": 90000.08549999981,
      "d": 256.41049999999814,
      "v": 100
    },
    {
      "midi": 72,
      "hit": false,
      "t": 90256.49599999981,
      "d": 256.41049999999814,
      "v": 100
    },
    {
      "midi": 80,
      "hit": false,
      "t": 90256.49599999981,
      "d": 512.8209999999963,
      "v": 100
    },
    {
      "midi": 56,
      "hit": false,
      "t": 90256.49599999981,
      "d": 1025.6419999999925,
      "v": 100
    },
    {
      "midi": 63,
      "hit": false,
      "t": 90512.90649999981,
      "d": 256.41049999999814,
      "v": 100
    },
    {
      "midi": 72,
      "hit": false,
      "t": 90769.3169999998,
      "d": 256.41049999999814,
      "v": 100
    },
    {
      "midi": 75,
      "hit": false,
      "t": 91025.7274999998,
      "d": 256.41049999999814,
      "v": 100
    },
    {
      "midi": 80,
      "hit": false,
      "t": 91282.1379999998,
      "d": 256.41049999999814,
      "v": 100
    },
    {
      "midi": 56,
      "hit": false,
      "t": 91282.1379999998,
      "d": 1025.6419999999925,
      "v": 100
    },
    {
      "midi": 60,
      "hit": false,
      "t": 91538.5484999998,
      "d": 256.41049999999814,
      "v": 100
    },
    {
      "midi": 75,
      "hit": false,
      "t": 91794.9589999998,
      "d": 256.41049999999814,
      "v": 100
    },
    {
      "midi": 80,
      "hit": false,
      "t": 92051.3694999998,
      "d": 256.41049999999814,
      "v": 100
    },
    {
      "midi": 50,
      "hit": false,
      "t": 92307.7799999998,
      "d": 512.8209999999963,
      "v": 100
    },
    {
      "midi": 80,
      "hit": false,
      "t": 92307.7799999998,
      "d": 512.8209999999963,
      "v": 100
    },
    {
      "midi": 56,
      "hit": false,
      "t": 92564.1904999998,
      "d": 256.41049999999814,
      "v": 100
    },
    {
      "midi": 64,
      "hit": false,
      "t": 92820.60099999979,
      "d": 256.41049999999814,
      "v": 100
    },
    {
      "midi": 59,
      "hit": false,
      "t": 93077.01149999979,
      "d": 256.41049999999814,
      "v": 100
    },
    {
      "midi": 80,
      "hit": false,
      "t": 93077.01149999979,
      "d": 256.41049999999814,
      "v": 100
    },
    {
      "midi": 51,
      "hit": false,
      "t": 93333.42199999979,
      "d": 512.8209999999963,
      "v": 100
    },
    {
      "midi": 68,
      "hit": false,
      "t": 93333.42199999979,
      "d": 512.8209999999963,
      "v": 100
    },
    {
      "midi": 56,
      "hit": false,
      "t": 93589.83249999979,
      "d": 256.41049999999814,
      "v": 100
    },
    {
      "midi": 60,
      "hit": false,
      "t": 93846.24299999978,
      "d": 256.41049999999814,
      "v": 100
    },
    {
      "midi": 63,
      "hit": false,
      "t": 94102.65349999978,
      "d": 256.41049999999814,
      "v": 100
    },
    {
      "midi": 77,
      "hit": false,
      "t": 94359.06399999978,
      "d": 256.41049999999814,
      "v": 100
    },
    {
      "midi": 58,
      "hit": false,
      "t": 94359.06399999978,
      "d": 1025.6419999999925,
      "v": 100
    },
    {
      "midi": 65,
      "hit": false,
      "t": 94615.47449999978,
      "d": 256.41049999999814,
      "v": 100
    },
    {
      "midi": 70,
      "hit": false,
      "t": 94871.88499999978,
      "d": 256.41049999999814,
      "v": 100
    },
    {
      "midi": 73,
      "hit": false,
      "t": 95128.29549999977,
      "d": 256.41049999999814,
      "v": 100
    },
    {
      "midi": 77,
      "hit": false,
      "t": 95384.70599999977,
      "d": 256.41049999999814,
      "v": 100
    },
    {
      "midi": 58,
      "hit": false,
      "t": 95384.70599999977,
      "d": 1025.6419999999925,
      "v": 100
    },
    {
      "midi": 65,
      "hit": false,
      "t": 95641.11649999977,
      "d": 256.41049999999814,
      "v": 100
    },
    {
      "midi": 70,
      "hit": false,
      "t": 95897.52699999977,
      "d": 256.41049999999814,
      "v": 100
    },
    {
      "midi": 73,
      "hit": false,
      "t": 96153.93749999977,
      "d": 256.41049999999814,
      "v": 100
    },
    {
      "midi": 76,
      "hit": false,
      "t": 96410.34799999977,
      "d": 256.41049999999814,
      "v": 100
    },
    {
      "midi": 57,
      "hit": false,
      "t": 96410.34799999977,
      "d": 1025.6419999999925,
      "v": 100
    },
    {
      "midi": 64,
      "hit": false,
      "t": 96666.75849999976,
      "d": 256.41049999999814,
      "v": 100
    },
    {
      "midi": 69,
      "hit": false,
      "t": 96923.16899999976,
      "d": 256.41049999999814,
      "v": 100
    },
    {
      "midi": 73,
      "hit": false,
      "t": 97179.57949999976,
      "d": 256.41049999999814,
      "v": 100
    },
    {
      "midi": 85,
      "hit": false,
      "t": 97435.98999999976,
      "d": 256.41049999999814,
      "v": 100
    },
    {
      "midi": 57,
      "hit": false,
      "t": 97435.98999999976,
      "d": 1025.6419999999925,
      "v": 100
    },
    {
      "midi": 81,
      "hit": false,
      "t": 97692.40049999976,
      "d": 256.41049999999814,
      "v": 100
    },
    {
      "midi": 76,
      "hit": false,
      "t": 97948.81099999975,
      "d": 256.41049999999814,
      "v": 100
    },
    {
      "midi": 73,
      "hit": false,
      "t": 98205.22149999975,
      "d": 256.41049999999814,
      "v": 100
    },
    {
      "midi": 73,
      "hit": false,
      "t": 98461.63199999975,
      "d": 256.41049999999814,
      "v": 100
    },
    {
      "midi": 56,
      "hit": false,
      "t": 98461.63199999975,
      "d": 1025.6419999999925,
      "v": 100
    },
    {
      "midi": 72,
      "hit": false,
      "t": 98718.04249999975,
      "d": 256.41049999999814,
      "v": 100
    },
    {
      "midi": 63,
      "hit": false,
      "t": 98974.45299999975,
      "d": 256.41049999999814,
      "v": 100
    },
    {
      "midi": 68,
      "hit": false,
      "t": 99230.86349999974,
      "d": 256.41049999999814,
      "v": 100
    },
    {
      "midi": 70,
      "hit": false,
      "t": 99487.27399999974,
      "d": 256.41049999999814,
      "v": 100
    },
    {
      "midi": 56,
      "hit": false,
      "t": 99487.27399999974,
      "d": 1025.6419999999925,
      "v": 100
    },
    {
      "midi": 72,
      "hit": false,
      "t": 99743.68449999974,
      "d": 256.41049999999814,
      "v": 100
    },
    {
      "midi": 68,
      "hit": false,
      "t": 100000.09499999974,
      "d": 256.41049999999814,
      "v": 100
    },
    {
      "midi": 63,
      "hit": false,
      "t": 100256.50549999974,
      "d": 256.41049999999814,
      "v": 100
    },
    {
      "midi": 84,
      "hit": false,
      "t": 100512.91599999974,
      "d": 256.41049999999814,
      "v": 100
    },
    {
      "midi": 56,
      "hit": false,
      "t": 100512.91599999974,
      "d": 1025.6419999999925,
      "v": 100
    },
    {
      "midi": 72,
      "hit": false,
      "t": 100769.32649999973,
      "d": 256.41049999999814,
      "v": 100
    },
    {
      "midi": 68,
      "hit": false,
      "t": 101025.73699999973,
      "d": 256.41049999999814,
      "v": 100
    },
    {
      "midi": 72,
      "hit": false,
      "t": 101282.14749999973,
      "d": 256.41049999999814,
      "v": 100
    },
    {
      "midi": 73,
      "hit": false,
      "t": 101538.55799999973,
      "d": 512.8209999999963,
      "v": 100
    },
    {
      "midi": 85,
      "hit": false,
      "t": 101538.55799999973,
      "d": 512.8209999999963,
      "v": 100
    },
    {
      "midi": 75,
      "hit": false,
      "t": 102051.37899999972,
      "d": 512.8209999999963,
      "v": 100
    },
    {
      "midi": 87,
      "hit": false,
      "t": 102051.37899999972,
      "d": 512.8209999999963,
      "v": 100
    },
    {
      "midi": 49,
      "hit": false,
      "t": 102564.19999999972,
      "d": 256.41049999999814,
      "v": 100
    },
    {
      "midi": 49,
      "hit": false,
      "t": 102820.61049999972,
      "d": 512.8209999999963,
      "v": 100
    },
    {
      "midi": 53,
      "hit": false,
      "t": 103077.02099999972,
      "d": 512.8209999999963,
      "v": 100
    },
    {
      "midi": 56,
      "hit": false,
      "t": 103077.02099999972,
      "d": 512.8209999999963,
      "v": 100
    },
    {
      "midi": 61,
      "hit": false,
      "t": 103077.02099999972,
      "d": 512.8209999999963,
      "v": 100
    },
    {
      "midi": 49,
      "hit": false,
      "t": 103461.63674999971,
      "d": 128.20524999999907,
      "v": 100
    },
    {
      "midi": 44,
      "hit": false,
      "t": 103589.84199999971,
      "d": 256.41049999999814,
      "v": 100
    },
    {
      "midi": 44,
      "hit": false,
      "t": 103846.25249999971,
      "d": 512.8209999999963,
      "v": 100
    },
    {
      "midi": 53,
      "hit": false,
      "t": 104102.66299999971,
      "d": 512.8209999999963,
      "v": 100
    },
    {
      "midi": 56,
      "hit": false,
      "t": 104102.66299999971,
      "d": 512.8209999999963,
      "v": 100
    },
    {
      "midi": 61,
      "hit": false,
      "t": 104102.66299999971,
      "d": 512.8209999999963,
      "v": 100
    },
    {
      "midi": 49,
      "hit": false,
      "t": 104487.2787499997,
      "d": 128.20524999999907,
      "v": 100
    },
    {
      "midi": 49,
      "hit": false,
      "t": 104615.4839999997,
      "d": 256.41049999999814,
      "v": 100
    },
    {
      "midi": 49,
      "hit": false,
      "t": 104871.8944999997,
      "d": 512.8209999999963,
      "v": 100
    },
    {
      "midi": 53,
      "hit": false,
      "t": 105128.3049999997,
      "d": 512.8209999999963,
      "v": 100
    },
    {
      "midi": 56,
      "hit": false,
      "t": 105128.3049999997,
      "d": 512.8209999999963,
      "v": 100
    },
    {
      "midi": 61,
      "hit": false,
      "t": 105128.3049999997,
      "d": 512.8209999999963,
      "v": 100
    },
    {
      "midi": 49,
      "hit": false,
      "t": 105512.9207499997,
      "d": 128.20524999999907,
      "v": 100
    },
    {
      "midi": 44,
      "hit": false,
      "t": 105641.1259999997,
      "d": 256.41049999999814,
      "v": 100
    },
    {
      "midi": 44,
      "hit": false,
      "t": 105897.5364999997,
      "d": 512.8209999999963,
      "v": 100
    },
    {
      "midi": 53,
      "hit": false,
      "t": 106153.9469999997,
      "d": 512.8209999999963,
      "v": 100
    },
    {
      "midi": 56,
      "hit": false,
      "t": 106153.9469999997,
      "d": 512.8209999999963,
      "v": 100
    },
    {
      "midi": 61,
      "hit": false,
      "t": 106153.9469999997,
      "d": 512.8209999999963,
      "v": 100
    },
    {
      "midi": 49,
      "hit": false,
      "t": 106538.56274999969,
      "d": 128.20524999999907,
      "v": 100
    },
    {
      "midi": 44,
      "hit": false,
      "t": 106666.76799999969,
      "d": 256.41049999999814,
      "v": 100
    },
    {
      "midi": 60,
      "hit": false,
      "t": 106666.76799999969,
      "d": 512.8209999999963,
      "v": 100
    },
    {
      "midi": 44,
      "hit": false,
      "t": 106923.17849999969,
      "d": 256.41049999999814,
      "v": 100
    },
    {
      "midi": 60,
      "hit": false,
      "t": 107179.58899999969,
      "d": 512.8209999999963,
      "v": 100
    },
    {
      "midi": 66,
      "hit": false,
      "t": 107179.58899999969,
      "d": 512.8209999999963,
      "v": 100
    },
    {
      "midi": 39,
      "hit": false,
      "t": 107692.40999999968,
      "d": 256.41049999999814,
      "v": 100
    },
    {
      "midi": 60,
      "hit": false,
      "t": 107692.40999999968,
      "d": 512.8209999999963,
      "v": 100
    },
    {
      "midi": 39,
      "hit": false,
      "t": 107948.82049999968,
      "d": 256.41049999999814,
      "v": 100
    },
    {
      "midi": 60,
      "hit": false,
      "t": 108205.23099999968,
      "d": 512.8209999999963,
      "v": 100
    },
    {
      "midi": 66,
      "hit": false,
      "t": 108205.23099999968,
      "d": 512.8209999999963,
      "v": 100
    },
    {
      "midi": 44,
      "hit": false,
      "t": 108718.05199999968,
      "d": 256.41049999999814,
      "v": 100
    },
    {
      "midi": 60,
      "hit": false,
      "t": 108718.05199999968,
      "d": 512.8209999999963,
      "v": 100
    },
    {
      "midi": 44,
      "hit": false,
      "t": 108974.46249999967,
      "d": 256.41049999999814,
      "v": 100
    },
    {
      "midi": 60,
      "hit": false,
      "t": 109230.87299999967,
      "d": 384.6157499999972,
      "v": 100
    },
    {
      "midi": 66,
      "hit": false,
      "t": 109230.87299999967,
      "d": 384.6157499999972,
      "v": 100
    },
    {
      "midi": 60,
      "hit": false,
      "t": 109615.48874999967,
      "d": 128.20524999999907,
      "v": 100
    },
    {
      "midi": 66,
      "hit": false,
      "t": 109615.48874999967,
      "d": 128.20524999999907,
      "v": 100
    },
    {
      "midi": 39,
      "hit": false,
      "t": 109743.69399999967,
      "d": 256.41049999999814,
      "v": 100
    },
    {
      "midi": 60,
      "hit": false,
      "t": 109743.69399999967,
      "d": 512.8209999999963,
      "v": 100
    },
    {
      "midi": 39,
      "hit": false,
      "t": 110000.10449999967,
      "d": 256.41049999999814,
      "v": 100
    },
    {
      "midi": 60,
      "hit": false,
      "t": 110256.51499999966,
      "d": 512.8209999999963,
      "v": 100
    },
    {
      "midi": 66,
      "hit": false,
      "t": 110256.51499999966,
      "d": 512.8209999999963,
      "v": 100
    },
    {
      "midi": 42,
      "hit": false,
      "t": 110769.33599999966,
      "d": 256.41049999999814,
      "v": 100
    },
    {
      "midi": 58,
      "hit": false,
      "t": 110769.33599999966,
      "d": 512.8209999999963,
      "v": 100
    },
    {
      "midi": 42,
      "hit": false,
      "t": 111025.74649999966,
      "d": 256.41049999999814,
      "v": 100
    },
    {
      "midi": 58,
      "hit": false,
      "t": 111282.15699999966,
      "d": 512.8209999999963,
      "v": 100
    },
    {
      "midi": 66,
      "hit": false,
      "t": 111282.15699999966,
      "d": 512.8209999999963,
      "v": 100
    },
    {
      "midi": 37,
      "hit": false,
      "t": 111794.97799999965,
      "d": 256.41049999999814,
      "v": 100
    },
    {
      "midi": 58,
      "hit": false,
      "t": 111794.97799999965,
      "d": 512.8209999999963,
      "v": 100
    },
    {
      "midi": 37,
      "hit": false,
      "t": 112051.38849999965,
      "d": 256.41049999999814,
      "v": 100
    },
    {
      "midi": 58,
      "hit": false,
      "t": 112307.79899999965,
      "d": 512.8209999999963,
      "v": 100
    },
    {
      "midi": 66,
      "hit": false,
      "t": 112307.79899999965,
      "d": 512.8209999999963,
      "v": 100
    },
    {
      "midi": 46,
      "hit": false,
      "t": 112820.61999999965,
      "d": 256.41049999999814,
      "v": 100
    },
    {
      "midi": 58,
      "hit": false,
      "t": 112820.61999999965,
      "d": 512.8209999999963,
      "v": 100
    },
    {
      "midi": 46,
      "hit": false,
      "t": 113077.03049999964,
      "d": 256.41049999999814,
      "v": 100
    },
    {
      "midi": 58,
      "hit": false,
      "t": 113333.44099999964,
      "d": 384.6157499999972,
      "v": 100
    },
    {
      "midi": 61,
      "hit": false,
      "t": 113333.44099999964,
      "d": 384.6157499999972,
      "v": 100
    },
    {
      "midi": 65,
      "hit": false,
      "t": 113333.44099999964,
      "d": 384.6157499999972,
      "v": 100
    },
    {
      "midi": 58,
      "hit": false,
      "t": 113718.05674999964,
      "d": 128.20524999999907,
      "v": 100
    },
    {
      "midi": 65,
      "hit": false,
      "t": 113718.05674999964,
      "d": 128.20524999999907,
      "v": 100
    },
    {
      "midi": 46,
      "hit": false,
      "t": 113846.26199999964,
      "d": 256.41049999999814,
      "v": 100
    },
    {
      "midi": 58,
      "hit": false,
      "t": 113846.26199999964,
      "d": 512.8209999999963,
      "v": 100
    },
    {
      "midi": 46,
      "hit": false,
      "t": 114102.67249999964,
      "d": 256.41049999999814,
      "v": 100
    },
    {
      "midi": 58,
      "hit": false,
      "t": 114359.08299999963,
      "d": 512.8209999999963,
      "v": 100
    },
    {
      "midi": 61,
      "hit": false,
      "t": 114359.08299999963,
      "d": 512.8209999999963,
      "v": 100
    },
    {
      "midi": 65,
      "hit": false,
      "t": 114359.08299999963,
      "d": 512.8209999999963,
      "v": 100
    },
    {
      "midi": 44,
      "hit": false,
      "t": 114871.90399999963,
      "d": 256.41049999999814,
      "v": 100
    },
    {
      "midi": 60,
      "hit": false,
      "t": 114871.90399999963,
      "d": 512.8209999999963,
      "v": 100
    },
    {
      "midi": 44,
      "hit": false,
      "t": 115128.31449999963,
      "d": 256.41049999999814,
      "v": 100
    },
    {
      "midi": 60,
      "hit": false,
      "t": 115384.72499999963,
      "d": 512.8209999999963,
      "v": 100
    },
    {
      "midi": 66,
      "hit": false,
      "t": 115384.72499999963,
      "d": 512.8209999999963,
      "v": 100
    },
    {
      "midi": 68,
      "hit": false,
      "t": 115769.34074999962,
      "d": 128.20524999999907,
      "v": 100
    },
    {
      "midi": 39,
      "hit": false,
      "t": 115897.54599999962,
      "d": 256.41049999999814,
      "v": 100
    },
    {
      "midi": 60,
      "hit": false,
      "t": 115897.54599999962,
      "d": 512.8209999999963,
      "v": 100
    },
    {
      "midi": 68,
      "hit": false,
      "t": 115897.54599999962,
      "d": 512.8209999999963,
      "v": 100
    },
    {
      "midi": 39,
      "hit": false,
      "t": 116153.95649999962,
      "d": 256.41049999999814,
      "v": 100
    },
    {
      "midi": 60,
      "hit": false,
      "t": 116410.36699999962,
      "d": 512.8209999999963,
      "v": 100
    },
    {
      "midi": 66,
      "hit": false,
      "t": 116410.36699999962,
      "d": 512.8209999999963,
      "v": 100
    },
    {
      "midi": 68,
      "hit": false,
      "t": 116410.36699999962,
      "d": 512.8209999999963,
      "v": 100
    },
    {
      "midi": 44,
      "hit": false,
      "t": 116923.18799999962,
      "d": 256.41049999999814,
      "v": 100
    },
    {
      "midi": 60,
      "hit": false,
      "t": 116923.18799999962,
      "d": 512.8209999999963,
      "v": 100
    },
    {
      "midi": 68,
      "hit": false,
      "t": 116923.18799999962,
      "d": 512.8209999999963,
      "v": 100
    },
    {
      "midi": 44,
      "hit": false,
      "t": 117179.59849999961,
      "d": 256.41049999999814,
      "v": 100
    },
    {
      "midi": 60,
      "hit": false,
      "t": 117436.00899999961,
      "d": 384.6157499999972,
      "v": 100
    },
    {
      "midi": 66,
      "hit": false,
      "t": 117436.00899999961,
      "d": 384.6157499999972,
      "v": 100
    },
    {
      "midi": 68,
      "hit": false,
      "t": 117436.00899999961,
      "d": 384.6157499999972,
      "v": 100
    },
    {
      "midi": 60,
      "hit": false,
      "t": 117820.62474999961,
      "d": 128.20524999999907,
      "v": 100
    },
    {
      "midi": 66,
      "hit": false,
      "t": 117820.62474999961,
      "d": 128.20524999999907,
      "v": 100
    },
    {
      "midi": 39,
      "hit": false,
      "t": 117948.82999999961,
      "d": 256.41049999999814,
      "v": 100
    },
    {
      "midi": 60,
      "hit": false,
      "t": 117948.82999999961,
      "d": 512.8209999999963,
      "v": 100
    },
    {
      "midi": 68,
      "hit": false,
      "t": 117948.82999999961,
      "d": 512.8209999999963,
      "v": 100
    },
    {
      "midi": 39,
      "hit": false,
      "t": 118205.2404999996,
      "d": 256.41049999999814,
      "v": 100
    },
    {
      "midi": 60,
      "hit": false,
      "t": 118461.6509999996,
      "d": 512.8209999999963,
      "v": 100
    },
    {
      "midi": 66,
      "hit": false,
      "t": 118461.6509999996,
      "d": 512.8209999999963,
      "v": 100
    },
    {
      "midi": 68,
      "hit": false,
      "t": 118461.6509999996,
      "d": 512.8209999999963,
      "v": 100
    },
    {
      "midi": 49,
      "hit": false,
      "t": 118974.4719999996,
      "d": 256.41049999999814,
      "v": 100
    },
    {
      "midi": 49,
      "hit": false,
      "t": 119230.8824999996,
      "d": 512.8209999999963,
      "v": 100
    },
    {
      "midi": 53,
      "hit": false,
      "t": 119487.2929999996,
      "d": 512.8209999999963,
      "v": 100
    },
    {
      "midi": 56,
      "hit": false,
      "t": 119487.2929999996,
      "d": 512.8209999999963,
      "v": 100
    },
    {
      "midi": 61,
      "hit": false,
      "t": 119487.2929999996,
      "d": 512.8209999999963,
      "v": 100
    },
    {
      "midi": 49,
      "hit": false,
      "t": 119871.9087499996,
      "d": 128.20524999999907,
      "v": 100
    },
    {
      "midi": 44,
      "hit": false,
      "t": 120000.1139999996,
      "d": 256.41049999999814,
      "v": 100
    },
    {
      "midi": 44,
      "hit": false,
      "t": 120256.52449999959,
      "d": 512.8209999999963,
      "v": 100
    },
    {
      "midi": 53,
      "hit": false,
      "t": 120512.93499999959,
      "d": 512.8209999999963,
      "v": 100
    },
    {
      "midi": 56,
      "hit": false,
      "t": 120512.93499999959,
      "d": 512.8209999999963,
      "v": 100
    },
    {
      "midi": 61,
      "hit": false,
      "t": 120512.93499999959,
      "d": 512.8209999999963,
      "v": 100
    },
    {
      "midi": 49,
      "hit": false,
      "t": 120897.55074999959,
      "d": 128.20524999999907,
      "v": 100
    },
    {
      "midi": 49,
      "hit": false,
      "t": 121025.75599999959,
      "d": 256.41049999999814,
      "v": 100
    },
    {
      "midi": 49,
      "hit": false,
      "t": 121282.16649999958,
      "d": 512.8209999999963,
      "v": 100
    },
    {
      "midi": 53,
      "hit": false,
      "t": 121538.57699999958,
      "d": 512.8209999999963,
      "v": 100
    },
    {
      "midi": 56,
      "hit": false,
      "t": 121538.57699999958,
      "d": 512.8209999999963,
      "v": 100
    },
    {
      "midi": 61,
      "hit": false,
      "t": 121538.57699999958,
      "d": 512.8209999999963,
      "v": 100
    },
    {
      "midi": 49,
      "hit": false,
      "t": 121923.19274999958,
      "d": 128.20524999999907,
      "v": 100
    },
    {
      "midi": 44,
      "hit": false,
      "t": 122051.39799999958,
      "d": 256.41049999999814,
      "v": 100
    },
    {
      "midi": 44,
      "hit": false,
      "t": 122307.80849999958,
      "d": 512.8209999999963,
      "v": 100
    },
    {
      "midi": 53,
      "hit": false,
      "t": 122564.21899999958,
      "d": 512.8209999999963,
      "v": 100
    },
    {
      "midi": 56,
      "hit": false,
      "t": 122564.21899999958,
      "d": 512.8209999999963,
      "v": 100
    },
    {
      "midi": 61,
      "hit": false,
      "t": 122564.21899999958,
      "d": 512.8209999999963,
      "v": 100
    },
    {
      "midi": 49,
      "hit": false,
      "t": 122948.83474999957,
      "d": 128.20524999999907,
      "v": 100
    },
    {
      "midi": 44,
      "hit": false,
      "t": 123077.03999999957,
      "d": 256.41049999999814,
      "v": 100
    },
    {
      "midi": 60,
      "hit": false,
      "t": 123077.03999999957,
      "d": 512.8209999999963,
      "v": 100
    },
    {
      "midi": 44,
      "hit": false,
      "t": 123333.45049999957,
      "d": 256.41049999999814,
      "v": 100
    },
    {
      "midi": 60,
      "hit": false,
      "t": 123589.86099999957,
      "d": 512.8209999999963,
      "v": 100
    },
    {
      "midi": 66,
      "hit": false,
      "t": 123589.86099999957,
      "d": 512.8209999999963,
      "v": 100
    },
    {
      "midi": 39,
      "hit": false,
      "t": 124102.68199999956,
      "d": 256.41049999999814,
      "v": 100
    },
    {
      "midi": 60,
      "hit": false,
      "t": 124102.68199999956,
      "d": 512.8209999999963,
      "v": 100
    },
    {
      "midi": 39,
      "hit": false,
      "t": 124359.09249999956,
      "d": 256.41049999999814,
      "v": 100
    },
    {
      "midi": 60,
      "hit": false,
      "t": 124615.50299999956,
      "d": 512.8209999999963,
      "v": 100
    },
    {
      "midi": 66,
      "hit": false,
      "t": 124615.50299999956,
      "d": 512.8209999999963,
      "v": 100
    },
    {
      "midi": 44,
      "hit": false,
      "t": 125128.32399999956,
      "d": 256.41049999999814,
      "v": 100
    },
    {
      "midi": 60,
      "hit": false,
      "t": 125128.32399999956,
      "d": 512.8209999999963,
      "v": 100
    },
    {
      "midi": 44,
      "hit": false,
      "t": 125384.73449999955,
      "d": 256.41049999999814,
      "v": 100
    },
    {
      "midi": 60,
      "hit": false,
      "t": 125641.14499999955,
      "d": 384.6157499999972,
      "v": 100
    },
    {
      "midi": 66,
      "hit": false,
      "t": 125641.14499999955,
      "d": 384.6157499999972,
      "v": 100
    },
    {
      "midi": 60,
      "hit": false,
      "t": 126025.76074999955,
      "d": 128.20524999999907,
      "v": 100
    },
    {
      "midi": 66,
      "hit": false,
      "t": 126025.76074999955,
      "d": 128.20524999999907,
      "v": 100
    },
    {
      "midi": 39,
      "hit": false,
      "t": 126153.96599999955,
      "d": 256.41049999999814,
      "v": 100
    },
    {
      "midi": 60,
      "hit": false,
      "t": 126153.96599999955,
      "d": 512.8209999999963,
      "v": 100
    },
    {
      "midi": 39,
      "hit": false,
      "t": 126410.37649999955,
      "d": 256.41049999999814,
      "v": 100
    },
    {
      "midi": 60,
      "hit": false,
      "t": 126666.78699999955,
      "d": 512.8209999999963,
      "v": 100
    },
    {
      "midi": 66,
      "hit": false,
      "t": 126666.78699999955,
      "d": 512.8209999999963,
      "v": 100
    },
    {
      "midi": 42,
      "hit": false,
      "t": 127179.60799999954,
      "d": 256.41049999999814,
      "v": 100
    },
    {
      "midi": 58,
      "hit": false,
      "t": 127179.60799999954,
      "d": 512.8209999999963,
      "v": 100
    },
    {
      "midi": 42,
      "hit": false,
      "t": 127436.01849999954,
      "d": 256.41049999999814,
      "v": 100
    },
    {
      "midi": 58,
      "hit": false,
      "t": 127692.42899999954,
      "d": 512.8209999999963,
      "v": 100
    },
    {
      "midi": 66,
      "hit": false,
      "t": 127692.42899999954,
      "d": 512.8209999999963,
      "v": 100
    },
    {
      "midi": 37,
      "hit": false,
      "t": 128205.24999999953,
      "d": 256.41049999999814,
      "v": 100
    },
    {
      "midi": 58,
      "hit": false,
      "t": 128205.24999999953,
      "d": 512.8209999999963,
      "v": 100
    },
    {
      "midi": 37,
      "hit": false,
      "t": 128461.66049999953,
      "d": 256.41049999999814,
      "v": 100
    },
    {
      "midi": 58,
      "hit": false,
      "t": 128718.07099999953,
      "d": 512.8209999999963,
      "v": 100
    },
    {
      "midi": 66,
      "hit": false,
      "t": 128718.07099999953,
      "d": 512.8209999999963,
      "v": 100
    },
    {
      "midi": 42,
      "hit": false,
      "t": 129230.89199999953,
      "d": 256.41049999999814,
      "v": 100
    },
    {
      "midi": 57,
      "hit": false,
      "t": 129230.89199999953,
      "d": 512.8209999999963,
      "v": 100
    },
    {
      "midi": 42,
      "hit": false,
      "t": 129487.30249999953,
      "d": 256.41049999999814,
      "v": 100
    },
    {
      "midi": 57,
      "hit": false,
      "t": 129743.71299999952,
      "d": 512.8209999999963,
      "v": 100
    },
    {
      "midi": 65,
      "hit": false,
      "t": 129743.71299999952,
      "d": 512.8209999999963,
      "v": 100
    },
    {
      "midi": 37,
      "hit": false,
      "t": 130256.53399999952,
      "d": 256.41049999999814,
      "v": 100
    },
    {
      "midi": 57,
      "hit": false,
      "t": 130256.53399999952,
      "d": 512.8209999999963,
      "v": 100
    },
    {
      "midi": 37,
      "hit": false,
      "t": 130512.94449999952,
      "d": 256.41049999999814,
      "v": 100
    },
    {
      "midi": 57,
      "hit": false,
      "t": 130769.35499999952,
      "d": 512.8209999999963,
      "v": 100
    },
    {
      "midi": 65,
      "hit": false,
      "t": 130769.35499999952,
      "d": 512.8209999999963,
      "v": 100
    },
    {
      "midi": 49,
      "hit": false,
      "t": 131282.1759999995,
      "d": 256.41049999999814,
      "v": 100
    },
    {
      "midi": 49,
      "hit": false,
      "t": 131538.5864999995,
      "d": 512.8209999999963,
      "v": 100
    },
    {
      "midi": 53,
      "hit": false,
      "t": 131794.9969999995,
      "d": 512.8209999999963,
      "v": 100
    },
    {
      "midi": 56,
      "hit": false,
      "t": 131794.9969999995,
      "d": 512.8209999999963,
      "v": 100
    },
    {
      "midi": 61,
      "hit": false,
      "t": 131794.9969999995,
      "d": 512.8209999999963,
      "v": 100
    },
    {
      "midi": 49,
      "hit": false,
      "t": 132179.6127499995,
      "d": 128.20524999999907,
      "v": 100
    },
    {
      "midi": 44,
      "hit": false,
      "t": 132307.8179999995,
      "d": 256.41049999999814,
      "v": 100
    },
    {
      "midi": 44,
      "hit": false,
      "t": 132564.2284999995,
      "d": 512.8209999999963,
      "v": 100
    },
    {
      "midi": 53,
      "hit": false,
      "t": 132820.6389999995,
      "d": 512.8209999999963,
      "v": 100
    },
    {
      "midi": 56,
      "hit": false,
      "t": 132820.6389999995,
      "d": 512.8209999999963,
      "v": 100
    },
    {
      "midi": 61,
      "hit": false,
      "t": 132820.6389999995,
      "d": 512.8209999999963,
      "v": 100
    },
    {
      "midi": 49,
      "hit": false,
      "t": 133205.2547499995,
      "d": 128.20524999999907,
      "v": 100
    },
    {
      "midi": 49,
      "hit": false,
      "t": 133333.4599999995,
      "d": 256.41049999999814,
      "v": 100
    },
    {
      "midi": 49,
      "hit": false,
      "t": 133589.8704999995,
      "d": 512.8209999999963,
      "v": 100
    },
    {
      "midi": 53,
      "hit": false,
      "t": 133846.2809999995,
      "d": 512.8209999999963,
      "v": 100
    },
    {
      "midi": 56,
      "hit": false,
      "t": 133846.2809999995,
      "d": 512.8209999999963,
      "v": 100
    },
    {
      "midi": 61,
      "hit": false,
      "t": 133846.2809999995,
      "d": 512.8209999999963,
      "v": 100
    },
    {
      "midi": 49,
      "hit": false,
      "t": 134230.8967499995,
      "d": 128.20524999999907,
      "v": 100
    },
    {
      "midi": 44,
      "hit": false,
      "t": 134359.1019999995,
      "d": 256.41049999999814,
      "v": 100
    },
    {
      "midi": 44,
      "hit": false,
      "t": 134615.5124999995,
      "d": 512.8209999999963,
      "v": 100
    },
    {
      "midi": 53,
      "hit": false,
      "t": 134871.9229999995,
      "d": 512.8209999999963,
      "v": 100
    },
    {
      "midi": 56,
      "hit": false,
      "t": 134871.9229999995,
      "d": 512.8209999999963,
      "v": 100
    },
    {
      "midi": 61,
      "hit": false,
      "t": 134871.9229999995,
      "d": 512.8209999999963,
      "v": 100
    },
    {
      "midi": 49,
      "hit": false,
      "t": 135256.53874999948,
      "d": 128.20524999999907,
      "v": 100
    },
    {
      "midi": 77,
      "hit": false,
      "t": 135384.74399999948,
      "d": 256.41049999999814,
      "v": 100
    },
    {
      "midi": 58,
      "hit": false,
      "t": 135384.74399999948,
      "d": 1025.6419999999925,
      "v": 100
    },
    {
      "midi": 65,
      "hit": false,
      "t": 135641.15449999948,
      "d": 256.41049999999814,
      "v": 100
    },
    {
      "midi": 70,
      "hit": false,
      "t": 135897.56499999948,
      "d": 256.41049999999814,
      "v": 100
    },
    {
      "midi": 73,
      "hit": false,
      "t": 136153.97549999948,
      "d": 256.41049999999814,
      "v": 100
    },
    {
      "midi": 77,
      "hit": false,
      "t": 136410.38599999947,
      "d": 256.41049999999814,
      "v": 100
    },
    {
      "midi": 56,
      "hit": false,
      "t": 136410.38599999947,
      "d": 1025.6419999999925,
      "v": 100
    },
    {
      "midi": 65,
      "hit": false,
      "t": 136666.79649999947,
      "d": 256.41049999999814,
      "v": 100
    },
    {
      "midi": 80,
      "hit": false,
      "t": 136923.20699999947,
      "d": 256.41049999999814,
      "v": 100
    },
    {
      "midi": 73,
      "hit": false,
      "t": 137179.61749999947,
      "d": 256.41049999999814,
      "v": 100
    },
    {
      "midi": 55,
      "hit": false,
      "t": 137436.02799999947,
      "d": 213.67541666666511,
      "v": 100
    },
    {
      "midi": 79,
      "hit": false,
      "t": 137436.02799999947,
      "d": 256.41049999999814,
      "v": 100
    },
    {
      "midi": 58,
      "hit": false,
      "t": 137692.43849999947,
      "d": 256.41049999999814,
      "v": 100
    },
    {
      "midi": 67,
      "hit": false,
      "t": 137692.43849999947,
      "d": 256.41049999999814,
      "v": 100
    },
    {
      "midi": 67,
      "hit": false,
      "t": 137948.84899999946,
      "d": 256.41049999999814,
      "v": 100
    },
    {
      "midi": 63,
      "hit": false,
      "t": 137948.84899999946,
      "d": 512.8209999999963,
      "v": 100
    },
    {
      "midi": 79,
      "hit": false,
      "t": 138205.25949999946,
      "d": 256.41049999999814,
      "v": 100
    },
    {
      "midi": 55,
      "hit": false,
      "t": 138461.66999999946,
      "d": 256.41049999999814,
      "v": 100
    },
    {
      "midi": 80,
      "hit": false,
      "t": 138461.66999999946,
      "d": 256.41049999999814,
      "v": 100
    },
    {
      "midi": 58,
      "hit": false,
      "t": 138718.08049999946,
      "d": 256.41049999999814,
      "v": 100
    },
    {
      "midi": 63,
      "hit": false,
      "t": 138974.49099999946,
      "d": 512.8209999999963,
      "v": 100
    },
    {
      "midi": 79,
      "hit": false,
      "t": 138974.49099999946,
      "d": 512.8209999999963,
      "v": 100
    },
    {
      "midi": 67,
      "hit": false,
      "t": 139230.90149999945,
      "d": 256.41049999999814,
      "v": 100
    },
    {
      "midi": 72,
      "hit": false,
      "t": 139487.31199999945,
      "d": 256.41049999999814,
      "v": 100
    },
    {
      "midi": 80,
      "hit": false,
      "t": 139487.31199999945,
      "d": 512.8209999999963,
      "v": 100
    },
    {
      "midi": 56,
      "hit": false,
      "t": 139487.31199999945,
      "d": 1025.6419999999925,
      "v": 100
    },
    {
      "midi": 63,
      "hit": false,
      "t": 139743.72249999945,
      "d": 256.41049999999814,
      "v": 100
    },
    {
      "midi": 72,
      "hit": false,
      "t": 140000.13299999945,
      "d": 256.41049999999814,
      "v": 100
    },
    {
      "midi": 75,
      "hit": false,
      "t": 140256.54349999945,
      "d": 256.41049999999814,
      "v": 100
    },
    {
      "midi": 80,
      "hit": false,
      "t": 140512.95399999944,
      "d": 256.41049999999814,
      "v": 100
    },
    {
      "midi": 54,
      "hit": false,
      "t": 140512.95399999944,
      "d": 1025.6419999999925,
      "v": 100
    },
    {
      "midi": 60,
      "hit": false,
      "t": 140769.36449999944,
      "d": 256.41049999999814,
      "v": 100
    },
    {
      "midi": 75,
      "hit": false,
      "t": 141025.77499999944,
      "d": 256.41049999999814,
      "v": 100
    },
    {
      "midi": 80,
      "hit": false,
      "t": 141282.18549999944,
      "d": 256.41049999999814,
      "v": 100
    },
    {
      "midi": 49,
      "hit": false,
      "t": 141538.59599999944,
      "d": 512.8209999999963,
      "v": 100
    },
    {
      "midi": 80,
      "hit": false,
      "t": 141538.59599999944,
      "d": 512.8209999999963,
      "v": 100
    },
    {
      "midi": 56,
      "hit": false,
      "t": 141795.00649999944,
      "d": 256.41049999999814,
      "v": 100
    },
    {
      "midi": 61,
      "hit": false,
      "t": 142051.41699999943,
      "d": 256.41049999999814,
      "v": 100
    },
    {
      "midi": 65,
      "hit": false,
      "t": 142307.82749999943,
      "d": 256.41049999999814,
      "v": 100
    },
    {
      "midi": 51,
      "hit": false,
      "t": 142564.23799999943,
      "d": 512.8209999999963,
      "v": 100
    },
    {
      "midi": 80,
      "hit": false,
      "t": 142564.23799999943,
      "d": 512.8209999999963,
      "v": 100
    },
    {
      "midi": 56,
      "hit": false,
      "t": 142820.64849999943,
      "d": 256.41049999999814,
      "v": 100
    },
    {
      "midi": 60,
      "hit": false,
      "t": 143077.05899999943,
      "d": 256.41049999999814,
      "v": 100
    },
    {
      "midi": 63,
      "hit": false,
      "t": 143333.46949999942,
      "d": 256.41049999999814,
      "v": 100
    },
    {
      "midi": 77,
      "hit": false,
      "t": 143589.87999999942,
      "d": 256.41049999999814,
      "v": 100
    },
    {
      "midi": 46,
      "hit": false,
      "t": 143589.87999999942,
      "d": 1025.6419999999925,
      "v": 100
    },
    {
      "midi": 65,
      "hit": false,
      "t": 143846.29049999942,
      "d": 256.41049999999814,
      "v": 100
    },
    {
      "midi": 70,
      "hit": false,
      "t": 144102.70099999942,
      "d": 256.41049999999814,
      "v": 100
    },
    {
      "midi": 70,
      "hit": false,
      "t": 144359.11149999942,
      "d": 128.20524999999907,
      "v": 100
    },
    {
      "midi": 72,
      "hit": false,
      "t": 144487.31674999942,
      "d": 128.20524999999907,
      "v": 100
    },
    {
      "midi": 73,
      "hit": false,
      "t": 144615.52199999942,
      "d": 256.41049999999814,
      "v": 100
    },
    {
      "midi": 56,
      "hit": false,
      "t": 144615.52199999942,
      "d": 1025.6419999999925,
      "v": 100
    },
    {
      "midi": 65,
      "hit": false,
      "t": 144871.9324999994,
      "d": 256.41049999999814,
      "v": 100
    },
    {
      "midi": 70,
      "hit": false,
      "t": 145128.3429999994,
      "d": 256.41049999999814,
      "v": 100
    },
    {
      "midi": 73,
      "hit": false,
      "t": 145384.7534999994,
      "d": 256.41049999999814,
      "v": 100
    },
    {
      "midi": 75,
      "hit": false,
      "t": 145641.1639999994,
      "d": 256.41049999999814,
      "v": 100
    },
    {
      "midi": 51,
      "hit": false,
      "t": 145641.1639999994,
      "d": 1025.6419999999925,
      "v": 100
    },
    {
      "midi": 66,
      "hit": false,
      "t": 145897.5744999994,
      "d": 256.41049999999814,
      "v": 100
    },
    {
      "midi": 70,
      "hit": false,
      "t": 146153.9849999994,
      "d": 256.41049999999814,
      "v": 100
    },
    {
      "midi": 66,
      "hit": false,
      "t": 146410.3954999994,
      "d": 256.41049999999814,
      "v": 100
    },
    {
      "midi": 70,
      "hit": false,
      "t": 146666.8059999994,
      "d": 256.41049999999814,
      "v": 100
    },
    {
      "midi": 51,
      "hit": false,
      "t": 146666.8059999994,
      "d": 1025.6419999999925,
      "v": 100
    },
    {
      "midi": 66,
      "hit": false,
      "t": 146923.2164999994,
      "d": 256.41049999999814,
      "v": 100
    },
    {
      "midi": 77,
      "hit": false,
      "t": 147179.6269999994,
      "d": 256.41049999999814,
      "v": 100
    },
    {
      "midi": 73,
      "hit": false,
      "t": 147436.0374999994,
      "d": 256.41049999999814,
      "v": 100
    },
    {
      "midi": 72,
      "hit": false,
      "t": 147692.4479999994,
      "d": 256.41049999999814,
      "v": 100
    },
    {
      "midi": 80,
      "hit": false,
      "t": 147692.4479999994,
      "d": 512.8209999999963,
      "v": 100
    },
    {
      "midi": 56,
      "hit": false,
      "t": 147692.4479999994,
      "d": 1025.6419999999925,
      "v": 100
    },
    {
      "midi": 75,
      "hit": false,
      "t": 147948.8584999994,
      "d": 256.41049999999814,
      "v": 100
    },
    {
      "midi": 72,
      "hit": false,
      "t": 148205.2689999994,
      "d": 256.41049999999814,
      "v": 100
    },
    {
      "midi": 68,
      "hit": false,
      "t": 148461.6794999994,
      "d": 256.41049999999814,
      "v": 100
    },
    {
      "midi": 72,
      "hit": false,
      "t": 148718.08999999939,
      "d": 256.41049999999814,
      "v": 100
    },
    {
      "midi": 80,
      "hit": false,
      "t": 148718.08999999939,
      "d": 512.8209999999963,
      "v": 100
    },
    {
      "midi": 54,
      "hit": false,
      "t": 148718.08999999939,
      "d": 1025.6419999999925,
      "v": 100
    },
    {
      "midi": 75,
      "hit": false,
      "t": 148974.50049999938,
      "d": 256.41049999999814,
      "v": 100
    },
    {
      "midi": 72,
      "hit": false,
      "t": 149230.91099999938,
      "d": 256.41049999999814,
      "v": 100
    },
    {
      "midi": 68,
      "hit": false,
      "t": 149487.32149999938,
      "d": 256.41049999999814,
      "v": 100
    },
    {
      "midi": 53,
      "hit": false,
      "t": 149743.73199999938,
      "d": 512.8209999999963,
      "v": 100
    },
    {
      "midi": 80,
      "hit": false,
      "t": 149743.73199999938,
      "d": 512.8209999999963,
      "v": 100
    },
    {
      "midi": 77,
      "hit": false,
      "t": 150000.14249999938,
      "d": 256.41049999999814,
      "v": 100
    },
    {
      "midi": 73,
      "hit": false,
      "t": 150256.55299999937,
      "d": 256.41049999999814,
      "v": 100
    },
    {
      "midi": 61,
      "hit": false,
      "t": 150256.55299999937,
      "d": 512.8209999999963,
      "v": 100
    },
    {
      "midi": 68,
      "hit": false,
      "t": 150512.96349999937,
      "d": 256.41049999999814,
      "v": 100
    },
    {
      "midi": 51,
      "hit": false,
      "t": 150769.37399999937,
      "d": 512.8209999999963,
      "v": 100
    },
    {
      "midi": 80,
      "hit": false,
      "t": 150769.37399999937,
      "d": 512.8209999999963,
      "v": 100
    },
    {
      "midi": 75,
      "hit": false,
      "t": 151025.78449999937,
      "d": 256.41049999999814,
      "v": 100
    },
    {
      "midi": 60,
      "hit": false,
      "t": 151282.19499999937,
      "d": 256.41049999999814,
      "v": 100
    },
    {
      "midi": 63,
      "hit": false,
      "t": 151538.60549999936,
      "d": 256.41049999999814,
      "v": 100
    },
    {
      "midi": 77,
      "hit": false,
      "t": 151795.01599999936,
      "d": 256.41049999999814,
      "v": 100
    },
    {
      "midi": 58,
      "hit": false,
      "t": 151795.01599999936,
      "d": 1025.6419999999925,
      "v": 100
    },
    {
      "midi": 65,
      "hit": false,
      "t": 152051.42649999936,
      "d": 256.41049999999814,
      "v": 100
    },
    {
      "midi": 70,
      "hit": false,
      "t": 152307.83699999936,
      "d": 256.41049999999814,
      "v": 100
    },
    {
      "midi": 73,
      "hit": false,
      "t": 152564.24749999936,
      "d": 256.41049999999814,
      "v": 100
    },
    {
      "midi": 77,
      "hit": false,
      "t": 152820.65799999936,
      "d": 256.41049999999814,
      "v": 100
    },
    {
      "midi": 56,
      "hit": false,
      "t": 152820.65799999936,
      "d": 1025.6419999999925,
      "v": 100
    },
    {
      "midi": 65,
      "hit": false,
      "t": 153077.06849999935,
      "d": 256.41049999999814,
      "v": 100
    },
    {
      "midi": 80,
      "hit": false,
      "t": 153333.47899999935,
      "d": 256.41049999999814,
      "v": 100
    },
    {
      "midi": 73,
      "hit": false,
      "t": 153589.88949999935,
      "d": 256.41049999999814,
      "v": 100
    },
    {
      "midi": 51,
      "hit": false,
      "t": 153846.29999999935,
      "d": 213.67541666666511,
      "v": 100
    },
    {
      "midi": 78,
      "hit": false,
      "t": 153846.29999999935,
      "d": 256.41049999999814,
      "v": 100
    },
    {
      "midi": 58,
      "hit": false,
      "t": 154102.71049999935,
      "d": 256.41049999999814,
      "v": 100
    },
    {
      "midi": 66,
      "hit": false,
      "t": 154102.71049999935,
      "d": 256.41049999999814,
      "v": 100
    },
    {
      "midi": 66,
      "hit": false,
      "t": 154359.12099999934,
      "d": 256.41049999999814,
      "v": 100
    },
    {
      "midi": 63,
      "hit": false,
      "t": 154359.12099999934,
      "d": 512.8209999999963,
      "v": 100
    },
    {
      "midi": 78,
      "hit": false,
      "t": 154615.53149999934,
      "d": 256.41049999999814,
      "v": 100
    },
    {
      "midi": 54,
      "hit": false,
      "t": 154871.94199999934,
      "d": 256.41049999999814,
      "v": 100
    },
    {
      "midi": 82,
      "hit": false,
      "t": 154871.94199999934,
      "d": 256.41049999999814,
      "v": 100
    },
    {
      "midi": 70,
      "hit": false,
      "t": 155128.35249999934,
      "d": 256.41049999999814,
      "v": 100
    },
    {
      "midi": 70,
      "hit": false,
      "t": 155384.76299999934,
      "d": 512.8209999999963,
      "v": 100
    },
    {
      "midi": 75,
      "hit": false,
      "t": 155384.76299999934,
      "d": 512.8209999999963,
      "v": 100
    },
    {
      "midi": 66,
      "hit": false,
      "t": 155641.17349999934,
      "d": 256.41049999999814,
      "v": 100
    },
    {
      "midi": 72,
      "hit": false,
      "t": 155897.58399999933,
      "d": 256.41049999999814,
      "v": 100
    },
    {
      "midi": 80,
      "hit": false,
      "t": 155897.58399999933,
      "d": 512.8209999999963,
      "v": 100
    },
    {
      "midi": 56,
      "hit": false,
      "t": 155897.58399999933,
      "d": 1025.6419999999925,
      "v": 100
    },
    {
      "midi": 63,
      "hit": false,
      "t": 156153.99449999933,
      "d": 256.41049999999814,
      "v": 100
    },
    {
      "midi": 72,
      "hit": false,
      "t": 156410.40499999933,
      "d": 256.41049999999814,
      "v": 100
    },
    {
      "midi": 75,
      "hit": false,
      "t": 156666.81549999933,
      "d": 256.41049999999814,
      "v": 100
    },
    {
      "midi": 80,
      "hit": false,
      "t": 156923.22599999933,
      "d": 256.41049999999814,
      "v": 100
    },
    {
      "midi": 56,
      "hit": false,
      "t": 156923.22599999933,
      "d": 1025.6419999999925,
      "v": 100
    },
    {
      "midi": 60,
      "hit": false,
      "t": 157179.63649999932,
      "d": 256.41049999999814,
      "v": 100
    },
    {
      "midi": 75,
      "hit": false,
      "t": 157436.04699999932,
      "d": 256.41049999999814,
      "v": 100
    },
    {
      "midi": 80,
      "hit": false,
      "t": 157692.45749999932,
      "d": 256.41049999999814,
      "v": 100
    },
    {
      "midi": 50,
      "hit": false,
      "t": 157948.86799999932,
      "d": 512.8209999999963,
      "v": 100
    },
    {
      "midi": 80,
      "hit": false,
      "t": 157948.86799999932,
      "d": 512.8209999999963,
      "v": 100
    },
    {
      "midi": 56,
      "hit": false,
      "t": 158205.27849999932,
      "d": 256.41049999999814,
      "v": 100
    },
    {
      "midi": 64,
      "hit": false,
      "t": 158461.6889999993,
      "d": 256.41049999999814,
      "v": 100
    },
    {
      "midi": 59,
      "hit": false,
      "t": 158718.0994999993,
      "d": 256.41049999999814,
      "v": 100
    },
    {
      "midi": 80,
      "hit": false,
      "t": 158718.0994999993,
      "d": 256.41049999999814,
      "v": 100
    },
    {
      "midi": 51,
      "hit": false,
      "t": 158974.5099999993,
      "d": 512.8209999999963,
      "v": 100
    },
    {
      "midi": 68,
      "hit": false,
      "t": 158974.5099999993,
      "d": 512.8209999999963,
      "v": 100
    },
    {
      "midi": 56,
      "hit": false,
      "t": 159230.9204999993,
      "d": 256.41049999999814,
      "v": 100
    },
    {
      "midi": 60,
      "hit": false,
      "t": 159487.3309999993,
      "d": 256.41049999999814,
      "v": 100
    },
    {
      "midi": 63,
      "hit": false,
      "t": 159743.7414999993,
      "d": 256.41049999999814,
      "v": 100
    },
    {
      "midi": 77,
      "hit": false,
      "t": 160000.1519999993,
      "d": 256.41049999999814,
      "v": 100
    },
    {
      "midi": 58,
      "hit": false,
      "t": 160000.1519999993,
      "d": 1025.6419999999925,
      "v": 100
    },
    {
      "midi": 65,
      "hit": false,
      "t": 160256.5624999993,
      "d": 256.41049999999814,
      "v": 100
    },
    {
      "midi": 70,
      "hit": false,
      "t": 160512.9729999993,
      "d": 256.41049999999814,
      "v": 100
    },
    {
      "midi": 73,
      "hit": false,
      "t": 160769.3834999993,
      "d": 256.41049999999814,
      "v": 100
    },
    {
      "midi": 77,
      "hit": false,
      "t": 161025.7939999993,
      "d": 256.41049999999814,
      "v": 100
    },
    {
      "midi": 58,
      "hit": false,
      "t": 161025.7939999993,
      "d": 1025.6419999999925,
      "v": 100
    },
    {
      "midi": 65,
      "hit": false,
      "t": 161282.2044999993,
      "d": 256.41049999999814,
      "v": 100
    },
    {
      "midi": 70,
      "hit": false,
      "t": 161538.6149999993,
      "d": 256.41049999999814,
      "v": 100
    },
    {
      "midi": 73,
      "hit": false,
      "t": 161795.0254999993,
      "d": 256.41049999999814,
      "v": 100
    },
    {
      "midi": 76,
      "hit": false,
      "t": 162051.4359999993,
      "d": 256.41049999999814,
      "v": 100
    },
    {
      "midi": 57,
      "hit": false,
      "t": 162051.4359999993,
      "d": 1025.6419999999925,
      "v": 100
    },
    {
      "midi": 64,
      "hit": false,
      "t": 162307.8464999993,
      "d": 256.41049999999814,
      "v": 100
    },
    {
      "midi": 69,
      "hit": false,
      "t": 162564.25699999928,
      "d": 256.41049999999814,
      "v": 100
    },
    {
      "midi": 73,
      "hit": false,
      "t": 162820.66749999928,
      "d": 256.41049999999814,
      "v": 100
    },
    {
      "midi": 85,
      "hit": false,
      "t": 163077.07799999928,
      "d": 256.41049999999814,
      "v": 100
    },
    {
      "midi": 57,
      "hit": false,
      "t": 163077.07799999928,
      "d": 1025.6419999999925,
      "v": 100
    },
    {
      "midi": 81,
      "hit": false,
      "t": 163333.48849999928,
      "d": 256.41049999999814,
      "v": 100
    },
    {
      "midi": 76,
      "hit": false,
      "t": 163589.89899999928,
      "d": 256.41049999999814,
      "v": 100
    },
    {
      "midi": 73,
      "hit": false,
      "t": 163846.30949999928,
      "d": 256.41049999999814,
      "v": 100
    },
    {
      "midi": 73,
      "hit": false,
      "t": 164102.71999999927,
      "d": 256.41049999999814,
      "v": 100
    },
    {
      "midi": 56,
      "hit": false,
      "t": 164102.71999999927,
      "d": 1025.6419999999925,
      "v": 100
    },
    {
      "midi": 72,
      "hit": false,
      "t": 164359.13049999927,
      "d": 256.41049999999814,
      "v": 100
    },
    {
      "midi": 63,
      "hit": false,
      "t": 164615.54099999927,
      "d": 256.41049999999814,
      "v": 100
    },
    {
      "midi": 68,
      "hit": false,
      "t": 164871.95149999927,
      "d": 256.41049999999814,
      "v": 100
    },
    {
      "midi": 70,
      "hit": false,
      "t": 165128.36199999927,
      "d": 256.41049999999814,
      "v": 100
    },
    {
      "midi": 56,
      "hit": false,
      "t": 165128.36199999927,
      "d": 1025.6419999999925,
      "v": 100
    },
    {
      "midi": 72,
      "hit": false,
      "t": 165384.77249999926,
      "d": 256.41049999999814,
      "v": 100
    },
    {
      "midi": 68,
      "hit": false,
      "t": 165641.18299999926,
      "d": 256.41049999999814,
      "v": 100
    },
    {
      "midi": 63,
      "hit": false,
      "t": 165897.59349999926,
      "d": 256.41049999999814,
      "v": 100
    },
    {
      "midi": 84,
      "hit": false,
      "t": 166154.00399999926,
      "d": 256.41049999999814,
      "v": 100
    },
    {
      "midi": 56,
      "hit": false,
      "t": 166154.00399999926,
      "d": 1025.6419999999925,
      "v": 100
    },
    {
      "midi": 72,
      "hit": false,
      "t": 166410.41449999926,
      "d": 256.41049999999814,
      "v": 100
    },
    {
      "midi": 68,
      "hit": false,
      "t": 166666.82499999925,
      "d": 256.41049999999814,
      "v": 100
    },
    {
      "midi": 72,
      "hit": false,
      "t": 166923.23549999925,
      "d": 256.41049999999814,
      "v": 100
    },
    {
      "midi": 73,
      "hit": false,
      "t": 167179.64599999925,
      "d": 512.8209999999963,
      "v": 100
    },
    {
      "midi": 85,
      "hit": false,
      "t": 167179.64599999925,
      "d": 512.8209999999963,
      "v": 100
    },
    {
      "midi": 75,
      "hit": false,
      "t": 167692.46699999925,
      "d": 512.8209999999963,
      "v": 100
    },
    {
      "midi": 87,
      "hit": false,
      "t": 167692.46699999925,
      "d": 512.8209999999963,
      "v": 100
    },
    {
      "midi": 49,
      "hit": false,
      "t": 168205.28799999924,
      "d": 256.41049999999814,
      "v": 100
    },
    {
      "midi": 49,
      "hit": false,
      "t": 168461.69849999924,
      "d": 512.8209999999963,
      "v": 100
    },
    {
      "midi": 53,
      "hit": false,
      "t": 168718.10899999924,
      "d": 512.8209999999963,
      "v": 100
    },
    {
      "midi": 56,
      "hit": false,
      "t": 168718.10899999924,
      "d": 512.8209999999963,
      "v": 100
    },
    {
      "midi": 61,
      "hit": false,
      "t": 168718.10899999924,
      "d": 512.8209999999963,
      "v": 100
    },
    {
      "midi": 49,
      "hit": false,
      "t": 169102.72474999924,
      "d": 128.20524999999907,
      "v": 100
    },
    {
      "midi": 44,
      "hit": false,
      "t": 169230.92999999924,
      "d": 256.41049999999814,
      "v": 100
    },
    {
      "midi": 44,
      "hit": false,
      "t": 169487.34049999923,
      "d": 512.8209999999963,
      "v": 100
    },
    {
      "midi": 53,
      "hit": false,
      "t": 169743.75099999923,
      "d": 512.8209999999963,
      "v": 100
    },
    {
      "midi": 56,
      "hit": false,
      "t": 169743.75099999923,
      "d": 512.8209999999963,
      "v": 100
    },
    {
      "midi": 61,
      "hit": false,
      "t": 169743.75099999923,
      "d": 512.8209999999963,
      "v": 100
    },
    {
      "midi": 49,
      "hit": false,
      "t": 170128.36674999923,
      "d": 128.20524999999907,
      "v": 100
    },
    {
      "midi": 49,
      "hit": false,
      "t": 170256.57199999923,
      "d": 256.41049999999814,
      "v": 100
    },
    {
      "midi": 49,
      "hit": false,
      "t": 170512.98249999923,
      "d": 512.8209999999963,
      "v": 100
    },
    {
      "midi": 53,
      "hit": false,
      "t": 170769.39299999923,
      "d": 512.8209999999963,
      "v": 100
    },
    {
      "midi": 56,
      "hit": false,
      "t": 170769.39299999923,
      "d": 512.8209999999963,
      "v": 100
    },
    {
      "midi": 61,
      "hit": false,
      "t": 170769.39299999923,
      "d": 512.8209999999963,
      "v": 100
    },
    {
      "midi": 49,
      "hit": false,
      "t": 171154.00874999922,
      "d": 128.20524999999907,
      "v": 100
    },
    {
      "midi": 44,
      "hit": false,
      "t": 171282.21399999922,
      "d": 256.41049999999814,
      "v": 100
    },
    {
      "midi": 44,
      "hit": false,
      "t": 171538.62449999922,
      "d": 512.8209999999963,
      "v": 100
    },
    {
      "midi": 53,
      "hit": false,
      "t": 171795.03499999922,
      "d": 512.8209999999963,
      "v": 100
    },
    {
      "midi": 56,
      "hit": false,
      "t": 171795.03499999922,
      "d": 512.8209999999963,
      "v": 100
    },
    {
      "midi": 61,
      "hit": false,
      "t": 171795.03499999922,
      "d": 512.8209999999963,
      "v": 100
    },
    {
      "midi": 49,
      "hit": false,
      "t": 172179.65074999921,
      "d": 128.20524999999907,
      "v": 100
    },
    {
      "midi": 44,
      "hit": false,
      "t": 172307.8559999992,
      "d": 256.41049999999814,
      "v": 100
    },
    {
      "midi": 60,
      "hit": false,
      "t": 172307.8559999992,
      "d": 512.8209999999963,
      "v": 100
    },
    {
      "midi": 44,
      "hit": false,
      "t": 172564.2664999992,
      "d": 256.41049999999814,
      "v": 100
    },
    {
      "midi": 60,
      "hit": false,
      "t": 172820.6769999992,
      "d": 512.8209999999963,
      "v": 100
    },
    {
      "midi": 66,
      "hit": false,
      "t": 172820.6769999992,
      "d": 512.8209999999963,
      "v": 100
    },
    {
      "midi": 39,
      "hit": false,
      "t": 173333.4979999992,
      "d": 256.41049999999814,
      "v": 100
    },
    {
      "midi": 60,
      "hit": false,
      "t": 173333.4979999992,
      "d": 512.8209999999963,
      "v": 100
    },
    {
      "midi": 39,
      "hit": false,
      "t": 173589.9084999992,
      "d": 256.41049999999814,
      "v": 100
    },
    {
      "midi": 60,
      "hit": false,
      "t": 173846.3189999992,
      "d": 512.8209999999963,
      "v": 100
    },
    {
      "midi": 66,
      "hit": false,
      "t": 173846.3189999992,
      "d": 512.8209999999963,
      "v": 100
    },
    {
      "midi": 44,
      "hit": false,
      "t": 174359.1399999992,
      "d": 256.41049999999814,
      "v": 100
    },
    {
      "midi": 60,
      "hit": false,
      "t": 174359.1399999992,
      "d": 512.8209999999963,
      "v": 100
    },
    {
      "midi": 44,
      "hit": false,
      "t": 174615.5504999992,
      "d": 256.41049999999814,
      "v": 100
    },
    {
      "midi": 60,
      "hit": false,
      "t": 174871.9609999992,
      "d": 384.6157499999972,
      "v": 100
    },
    {
      "midi": 66,
      "hit": false,
      "t": 174871.9609999992,
      "d": 384.6157499999972,
      "v": 100
    },
    {
      "midi": 60,
      "hit": false,
      "t": 175256.5767499992,
      "d": 128.20524999999907,
      "v": 100
    },
    {
      "midi": 66,
      "hit": false,
      "t": 175256.5767499992,
      "d": 128.20524999999907,
      "v": 100
    },
    {
      "midi": 39,
      "hit": false,
      "t": 175384.7819999992,
      "d": 256.41049999999814,
      "v": 100
    },
    {
      "midi": 60,
      "hit": false,
      "t": 175384.7819999992,
      "d": 512.8209999999963,
      "v": 100
    },
    {
      "midi": 39,
      "hit": false,
      "t": 175641.1924999992,
      "d": 256.41049999999814,
      "v": 100
    },
    {
      "midi": 60,
      "hit": false,
      "t": 175897.6029999992,
      "d": 512.8209999999963,
      "v": 100
    },
    {
      "midi": 66,
      "hit": false,
      "t": 175897.6029999992,
      "d": 512.8209999999963,
      "v": 100
    },
    {
      "midi": 42,
      "hit": false,
      "t": 176410.42399999918,
      "d": 256.41049999999814,
      "v": 100
    },
    {
      "midi": 58,
      "hit": false,
      "t": 176410.42399999918,
      "d": 512.8209999999963,
      "v": 100
    },
    {
      "midi": 42,
      "hit": false,
      "t": 176666.83449999918,
      "d": 256.41049999999814,
      "v": 100
    },
    {
      "midi": 58,
      "hit": false,
      "t": 176923.24499999918,
      "d": 512.8209999999963,
      "v": 100
    },
    {
      "midi": 66,
      "hit": false,
      "t": 176923.24499999918,
      "d": 512.8209999999963,
      "v": 100
    },
    {
      "midi": 37,
      "hit": false,
      "t": 177436.06599999918,
      "d": 256.41049999999814,
      "v": 100
    },
    {
      "midi": 58,
      "hit": false,
      "t": 177436.06599999918,
      "d": 512.8209999999963,
      "v": 100
    },
    {
      "midi": 37,
      "hit": false,
      "t": 177692.47649999917,
      "d": 256.41049999999814,
      "v": 100
    },
    {
      "midi": 58,
      "hit": false,
      "t": 177948.88699999917,
      "d": 512.8209999999963,
      "v": 100
    },
    {
      "midi": 66,
      "hit": false,
      "t": 177948.88699999917,
      "d": 512.8209999999963,
      "v": 100
    },
    {
      "midi": 46,
      "hit": false,
      "t": 178461.70799999917,
      "d": 256.41049999999814,
      "v": 100
    },
    {
      "midi": 58,
      "hit": false,
      "t": 178461.70799999917,
      "d": 512.8209999999963,
      "v": 100
    },
    {
      "midi": 46,
      "hit": false,
      "t": 178718.11849999917,
      "d": 256.41049999999814,
      "v": 100
    },
    {
      "midi": 58,
      "hit": false,
      "t": 178974.52899999917,
      "d": 384.6157499999972,
      "v": 100
    },
    {
      "midi": 61,
      "hit": false,
      "t": 178974.52899999917,
      "d": 384.6157499999972,
      "v": 100
    },
    {
      "midi": 65,
      "hit": false,
      "t": 178974.52899999917,
      "d": 384.6157499999972,
      "v": 100
    },
    {
      "midi": 58,
      "hit": false,
      "t": 179359.14474999916,
      "d": 128.20524999999907,
      "v": 100
    },
    {
      "midi": 65,
      "hit": false,
      "t": 179359.14474999916,
      "d": 128.20524999999907,
      "v": 100
    },
    {
      "midi": 46,
      "hit": false,
      "t": 179487.34999999916,
      "d": 256.41049999999814,
      "v": 100
    },
    {
      "midi": 58,
      "hit": false,
      "t": 179487.34999999916,
      "d": 512.8209999999963,
      "v": 100
    },
    {
      "midi": 46,
      "hit": false,
      "t": 179743.76049999916,
      "d": 256.41049999999814,
      "v": 100
    },
    {
      "midi": 58,
      "hit": false,
      "t": 180000.17099999916,
      "d": 512.8209999999963,
      "v": 100
    },
    {
      "midi": 61,
      "hit": false,
      "t": 180000.17099999916,
      "d": 512.8209999999963,
      "v": 100
    },
    {
      "midi": 65,
      "hit": false,
      "t": 180000.17099999916,
      "d": 512.8209999999963,
      "v": 100
    },
    {
      "midi": 44,
      "hit": false,
      "t": 180512.99199999915,
      "d": 256.41049999999814,
      "v": 100
    },
    {
      "midi": 60,
      "hit": false,
      "t": 180512.99199999915,
      "d": 512.8209999999963,
      "v": 100
    },
    {
      "midi": 44,
      "hit": false,
      "t": 180769.40249999915,
      "d": 256.41049999999814,
      "v": 100
    },
    {
      "midi": 60,
      "hit": false,
      "t": 181025.81299999915,
      "d": 512.8209999999963,
      "v": 100
    },
    {
      "midi": 66,
      "hit": false,
      "t": 181025.81299999915,
      "d": 512.8209999999963,
      "v": 100
    },
    {
      "midi": 68,
      "hit": false,
      "t": 181410.42874999915,
      "d": 128.20524999999907,
      "v": 100
    },
    {
      "midi": 39,
      "hit": false,
      "t": 181538.63399999915,
      "d": 256.41049999999814,
      "v": 100
    },
    {
      "midi": 60,
      "hit": false,
      "t": 181538.63399999915,
      "d": 512.8209999999963,
      "v": 100
    },
    {
      "midi": 68,
      "hit": false,
      "t": 181538.63399999915,
      "d": 512.8209999999963,
      "v": 100
    },
    {
      "midi": 39,
      "hit": false,
      "t": 181795.04449999915,
      "d": 256.41049999999814,
      "v": 100
    },
    {
      "midi": 60,
      "hit": false,
      "t": 182051.45499999914,
      "d": 512.8209999999963,
      "v": 100
    },
    {
      "midi": 66,
      "hit": false,
      "t": 182051.45499999914,
      "d": 512.8209999999963,
      "v": 100
    },
    {
      "midi": 68,
      "hit": false,
      "t": 182051.45499999914,
      "d": 512.8209999999963,
      "v": 100
    },
    {
      "midi": 44,
      "hit": false,
      "t": 182564.27599999914,
      "d": 256.41049999999814,
      "v": 100
    },
    {
      "midi": 60,
      "hit": false,
      "t": 182564.27599999914,
      "d": 512.8209999999963,
      "v": 100
    },
    {
      "midi": 68,
      "hit": false,
      "t": 182564.27599999914,
      "d": 512.8209999999963,
      "v": 100
    },
    {
      "midi": 44,
      "hit": false,
      "t": 182820.68649999914,
      "d": 256.41049999999814,
      "v": 100
    },
    {
      "midi": 60,
      "hit": false,
      "t": 183077.09699999914,
      "d": 384.6157499999972,
      "v": 100
    },
    {
      "midi": 66,
      "hit": false,
      "t": 183077.09699999914,
      "d": 384.6157499999972,
      "v": 100
    },
    {
      "midi": 68,
      "hit": false,
      "t": 183077.09699999914,
      "d": 384.6157499999972,
      "v": 100
    },
    {
      "midi": 60,
      "hit": false,
      "t": 183461.71274999913,
      "d": 128.20524999999907,
      "v": 100
    },
    {
      "midi": 66,
      "hit": false,
      "t": 183461.71274999913,
      "d": 128.20524999999907,
      "v": 100
    },
    {
      "midi": 39,
      "hit": false,
      "t": 183589.91799999913,
      "d": 256.41049999999814,
      "v": 100
    },
    {
      "midi": 60,
      "hit": false,
      "t": 183589.91799999913,
      "d": 512.8209999999963,
      "v": 100
    },
    {
      "midi": 68,
      "hit": false,
      "t": 183589.91799999913,
      "d": 512.8209999999963,
      "v": 100
    },
    {
      "midi": 39,
      "hit": false,
      "t": 183846.32849999913,
      "d": 256.41049999999814,
      "v": 100
    },
    {
      "midi": 60,
      "hit": false,
      "t": 184102.73899999913,
      "d": 512.8209999999963,
      "v": 100
    },
    {
      "midi": 66,
      "hit": false,
      "t": 184102.73899999913,
      "d": 512.8209999999963,
      "v": 100
    },
    {
      "midi": 68,
      "hit": false,
      "t": 184102.73899999913,
      "d": 512.8209999999963,
      "v": 100
    },
    {
      "midi": 49,
      "hit": false,
      "t": 184615.55999999912,
      "d": 256.41049999999814,
      "v": 100
    },
    {
      "midi": 49,
      "hit": false,
      "t": 184871.97049999912,
      "d": 512.8209999999963,
      "v": 100
    },
    {
      "midi": 53,
      "hit": false,
      "t": 185128.38099999912,
      "d": 512.8209999999963,
      "v": 100
    },
    {
      "midi": 56,
      "hit": false,
      "t": 185128.38099999912,
      "d": 512.8209999999963,
      "v": 100
    },
    {
      "midi": 61,
      "hit": false,
      "t": 185128.38099999912,
      "d": 512.8209999999963,
      "v": 100
    },
    {
      "midi": 49,
      "hit": false,
      "t": 185512.99674999912,
      "d": 128.20524999999907,
      "v": 100
    },
    {
      "midi": 44,
      "hit": false,
      "t": 185641.20199999912,
      "d": 256.41049999999814,
      "v": 100
    },
    {
      "midi": 44,
      "hit": false,
      "t": 185897.61249999912,
      "d": 512.8209999999963,
      "v": 100
    },
    {
      "midi": 53,
      "hit": false,
      "t": 186154.0229999991,
      "d": 512.8209999999963,
      "v": 100
    },
    {
      "midi": 56,
      "hit": false,
      "t": 186154.0229999991,
      "d": 512.8209999999963,
      "v": 100
    },
    {
      "midi": 61,
      "hit": false,
      "t": 186154.0229999991,
      "d": 512.8209999999963,
      "v": 100
    },
    {
      "midi": 49,
      "hit": false,
      "t": 186538.6387499991,
      "d": 128.20524999999907,
      "v": 100
    },
    {
      "midi": 49,
      "hit": false,
      "t": 186666.8439999991,
      "d": 256.41049999999814,
      "v": 100
    },
    {
      "midi": 49,
      "hit": false,
      "t": 186923.2544999991,
      "d": 512.8209999999963,
      "v": 100
    },
    {
      "midi": 53,
      "hit": false,
      "t": 187179.6649999991,
      "d": 512.8209999999963,
      "v": 100
    },
    {
      "midi": 56,
      "hit": false,
      "t": 187179.6649999991,
      "d": 512.8209999999963,
      "v": 100
    },
    {
      "midi": 61,
      "hit": false,
      "t": 187179.6649999991,
      "d": 512.8209999999963,
      "v": 100
    },
    {
      "midi": 49,
      "hit": false,
      "t": 187564.2807499991,
      "d": 128.20524999999907,
      "v": 100
    },
    {
      "midi": 44,
      "hit": false,
      "t": 187692.4859999991,
      "d": 256.41049999999814,
      "v": 100
    },
    {
      "midi": 44,
      "hit": false,
      "t": 187948.8964999991,
      "d": 512.8209999999963,
      "v": 100
    },
    {
      "midi": 53,
      "hit": false,
      "t": 188205.3069999991,
      "d": 512.8209999999963,
      "v": 100
    },
    {
      "midi": 56,
      "hit": false,
      "t": 188205.3069999991,
      "d": 512.8209999999963,
      "v": 100
    },
    {
      "midi": 61,
      "hit": false,
      "t": 188205.3069999991,
      "d": 512.8209999999963,
      "v": 100
    },
    {
      "midi": 49,
      "hit": false,
      "t": 188589.9227499991,
      "d": 128.20524999999907,
      "v": 100
    },
    {
      "midi": 44,
      "hit": false,
      "t": 188718.1279999991,
      "d": 256.41049999999814,
      "v": 100
    },
    {
      "midi": 60,
      "hit": false,
      "t": 188718.1279999991,
      "d": 512.8209999999963,
      "v": 100
    },
    {
      "midi": 44,
      "hit": false,
      "t": 188974.5384999991,
      "d": 256.41049999999814,
      "v": 100
    },
    {
      "midi": 60,
      "hit": false,
      "t": 189230.9489999991,
      "d": 512.8209999999963,
      "v": 100
    },
    {
      "midi": 66,
      "hit": false,
      "t": 189230.9489999991,
      "d": 512.8209999999963,
      "v": 100
    },
    {
      "midi": 39,
      "hit": false,
      "t": 189743.7699999991,
      "d": 256.41049999999814,
      "v": 100
    },
    {
      "midi": 60,
      "hit": false,
      "t": 189743.7699999991,
      "d": 512.8209999999963,
      "v": 100
    },
    {
      "midi": 39,
      "hit": false,
      "t": 190000.18049999909,
      "d": 256.41049999999814,
      "v": 100
    },
    {
      "midi": 60,
      "hit": false,
      "t": 190256.59099999908,
      "d": 512.8209999999963,
      "v": 100
    },
    {
      "midi": 66,
      "hit": false,
      "t": 190256.59099999908,
      "d": 512.8209999999963,
      "v": 100
    },
    {
      "midi": 44,
      "hit": false,
      "t": 190769.41199999908,
      "d": 256.41049999999814,
      "v": 100
    },
    {
      "midi": 60,
      "hit": false,
      "t": 190769.41199999908,
      "d": 512.8209999999963,
      "v": 100
    },
    {
      "midi": 44,
      "hit": false,
      "t": 191025.82249999908,
      "d": 256.41049999999814,
      "v": 100
    },
    {
      "midi": 60,
      "hit": false,
      "t": 191282.23299999908,
      "d": 384.6157499999972,
      "v": 100
    },
    {
      "midi": 66,
      "hit": false,
      "t": 191282.23299999908,
      "d": 384.6157499999972,
      "v": 100
    },
    {
      "midi": 60,
      "hit": false,
      "t": 191666.84874999907,
      "d": 128.20524999999907,
      "v": 100
    },
    {
      "midi": 66,
      "hit": false,
      "t": 191666.84874999907,
      "d": 128.20524999999907,
      "v": 100
    },
    {
      "midi": 39,
      "hit": false,
      "t": 191795.05399999907,
      "d": 256.41049999999814,
      "v": 100
    },
    {
      "midi": 60,
      "hit": false,
      "t": 191795.05399999907,
      "d": 512.8209999999963,
      "v": 100
    },
    {
      "midi": 39,
      "hit": false,
      "t": 192051.46449999907,
      "d": 256.41049999999814,
      "v": 100
    },
    {
      "midi": 60,
      "hit": false,
      "t": 192307.87499999907,
      "d": 512.8209999999963,
      "v": 100
    },
    {
      "midi": 66,
      "hit": false,
      "t": 192307.87499999907,
      "d": 512.8209999999963,
      "v": 100
    },
    {
      "midi": 42,
      "hit": false,
      "t": 192820.69599999906,
      "d": 256.41049999999814,
      "v": 100
    },
    {
      "midi": 58,
      "hit": false,
      "t": 192820.69599999906,
      "d": 512.8209999999963,
      "v": 100
    },
    {
      "midi": 42,
      "hit": false,
      "t": 193077.10649999906,
      "d": 256.41049999999814,
      "v": 97
    },
    {
      "midi": 58,
      "hit": false,
      "t": 193333.51699999906,
      "d": 512.8209999999963,
      "v": 94
    },
    {
      "midi": 66,
      "hit": false,
      "t": 193333.51699999906,
      "d": 512.8209999999963,
      "v": 94
    },
    {
      "midi": 37,
      "hit": false,
      "t": 193846.33799999906,
      "d": 256.41049999999814,
      "v": 88
    },
    {
      "midi": 58,
      "hit": false,
      "t": 193846.33799999906,
      "d": 512.8209999999963,
      "v": 88
    },
    {
      "midi": 37,
      "hit": false,
      "t": 194102.74849999906,
      "d": 256.41049999999814,
      "v": 85
    },
    {
      "midi": 58,
      "hit": false,
      "t": 194359.15899999905,
      "d": 512.8209999999963,
      "v": 82
    },
    {
      "midi": 66,
      "hit": false,
      "t": 194359.15899999905,
      "d": 512.8209999999963,
      "v": 82
    },
    {
      "midi": 42,
      "hit": false,
      "t": 194871.97999999905,
      "d": 256.41049999999814,
      "v": 75
    },
    {
      "midi": 57,
      "hit": false,
      "t": 194871.97999999905,
      "d": 512.8209999999963,
      "v": 75
    },
    {
      "midi": 42,
      "hit": false,
      "t": 195128.39049999905,
      "d": 256.41049999999814,
      "v": 72
    },
    {
      "midi": 57,
      "hit": false,
      "t": 195384.80099999905,
      "d": 512.8209999999963,
      "v": 69
    },
    {
      "midi": 65,
      "hit": false,
      "t": 195384.80099999905,
      "d": 512.8209999999963,
      "v": 69
    },
    {
      "midi": 37,
      "hit": false,
      "t": 195897.62199999904,
      "d": 256.41049999999814,
      "v": 63
    },
    {
      "midi": 57,
      "hit": false,
      "t": 195897.62199999904,
      "d": 512.8209999999963,
      "v": 63
    },
    {
      "midi": 37,
      "hit": false,
      "t": 196154.03249999904,
      "d": 256.41049999999814,
      "v": 60
    },
    {
      "midi": 57,
      "hit": false,
      "t": 196410.44299999904,
      "d": 512.8209999999963,
      "v": 57
    },
    {
      "midi": 65,
      "hit": false,
      "t": 196410.44299999904,
      "d": 512.8209999999963,
      "v": 57
    },
    {
      "midi": 49,
      "hit": false,
      "t": 196923.26399999904,
      "d": 256.41049999999814,
      "v": 50
    },
    {
      "midi": 49,
      "hit": false,
      "t": 197179.67449999903,
      "d": 512.8209999999963,
      "v": 47
    },
    {
      "midi": 53,
      "hit": false,
      "t": 197436.08499999903,
      "d": 512.8209999999963,
      "v": 44
    },
    {
      "midi": 56,
      "hit": false,
      "t": 197436.08499999903,
      "d": 512.8209999999963,
      "v": 44
    },
    {
      "midi": 61,
      "hit": false,
      "t": 197436.08499999903,
      "d": 512.8209999999963,
      "v": 44
    },
    {
      "midi": 49,
      "hit": false,
      "t": 197820.70074999903,
      "d": 128.20524999999907,
      "v": 40
    },
    {
      "midi": 44,
      "hit": false,
      "t": 197948.90599999903,
      "d": 256.41049999999814,
      "v": 38
    },
    {
      "midi": 44,
      "hit": false,
      "t": 198205.31649999903,
      "d": 512.8209999999963,
      "v": 35
    },
    {
      "midi": 53,
      "hit": false,
      "t": 198461.72699999902,
      "d": 512.8209999999963,
      "v": 32
    },
    {
      "midi": 56,
      "hit": false,
      "t": 198461.72699999902,
      "d": 512.8209999999963,
      "v": 32
    },
    {
      "midi": 61,
      "hit": false,
      "t": 198461.72699999902,
      "d": 512.8209999999963,
      "v": 32
    },
    {
      "midi": 49,
      "hit": false,
      "t": 198846.34274999902,
      "d": 128.20524999999907,
      "v": 27
    },
    {
      "midi": 49,
      "hit": false,
      "t": 198974.54799999902,
      "d": 256.41049999999814,
      "v": 25
    },
    {
      "midi": 49,
      "hit": false,
      "t": 199230.95849999902,
      "d": 512.8209999999963,
      "v": 22
    },
    {
      "midi": 53,
      "hit": false,
      "t": 199487.36899999902,
      "d": 512.8209999999963,
      "v": 19
    },
    {
      "midi": 56,
      "hit": false,
      "t": 199487.36899999902,
      "d": 512.8209999999963,
      "v": 19
    },
    {
      "midi": 61,
      "hit": false,
      "t": 199487.36899999902,
      "d": 512.8209999999963,
      "v": 19
    },
    {
      "midi": 49,
      "hit": false,
      "t": 199871.984749999,
      "d": 128.20524999999907,
      "v": 15
    },
    {
      "midi": 44,
      "hit": false,
      "t": 200000.189999999,
      "d": 256.41049999999814,
      "v": 13
    },
    {
      "midi": 44,
      "hit": false,
      "t": 200256.600499999,
      "d": 512.8209999999963,
      "v": 10
    },
    {
      "midi": 53,
      "hit": false,
      "t": 200513.010999999,
      "d": 512.8209999999963,
      "v": 7
    },
    {
      "midi": 56,
      "hit": false,
      "t": 200513.010999999,
      "d": 512.8209999999963,
      "v": 7
    },
    {
      "midi": 61,
      "hit": false,
      "t": 200513.010999999,
      "d": 512.8209999999963,
      "v": 7
    },
    {
      "midi": 49,
      "hit": false,
      "t": 200897.626749999,
      "d": 128.20524999999907,
      "v": 2
    }
  ]
}