{
  "jsonPath": "Rock/Blues-Rock Guitar/Johnny Rawls/gonna-keep-on.json",
  "path": "Rock\\Blues-Rock Guitar\\Johnny Rawls\\Gonna Keep On.mid",
  "name": "Gonna Keep On",
  "difficulty": "Advanced",
  "bpm": 72.00002880001152,
  "notes": [
    {
      "midi": 74,
      "hit": false,
      "t": 3333.3319999999994,
      "d": 373.2637395833335,
      "v": 127
    },
    {
      "midi": 54,
      "hit": false,
      "t": 3342.0125520833335,
      "d": 199.6526979166665,
      "v": 55
    },
    {
      "midi": 54,
      "hit": false,
      "t": 3550.345802083333,
      "d": 199.6526979166665,
      "v": 23
    },
    {
      "midi": 70,
      "hit": false,
      "t": 3741.317947916666,
      "d": 425.347052083333,
      "v": 94
    },
    {
      "midi": 54,
      "hit": false,
      "t": 3758.679052083333,
      "d": 199.6526979166665,
      "v": 46
    },
    {
      "midi": 54,
      "hit": false,
      "t": 3967.0123020833325,
      "d": 199.6526979166665,
      "v": 12
    },
    {
      "midi": 67,
      "hit": false,
      "t": 4157.984447916666,
      "d": 416.66650000000027,
      "v": 108
    },
    {
      "midi": 54,
      "hit": false,
      "t": 4175.345552083332,
      "d": 199.6526979166665,
      "v": 111
    },
    {
      "midi": 54,
      "hit": false,
      "t": 4383.678802083332,
      "d": 199.6526979166665,
      "v": 20
    },
    {
      "midi": 75,
      "hit": false,
      "t": 4574.650947916666,
      "d": 1744.7909687500005,
      "v": 127
    },
    {
      "midi": 54,
      "hit": false,
      "t": 4592.012052083332,
      "d": 199.6526979166665,
      "v": 68
    },
    {
      "midi": 54,
      "hit": false,
      "t": 4800.345302083331,
      "d": 199.6526979166665,
      "v": 14
    },
    {
      "midi": 54,
      "hit": false,
      "t": 5008.678552083331,
      "d": 199.6526979166665,
      "v": 56
    },
    {
      "midi": 54,
      "hit": false,
      "t": 5217.011802083331,
      "d": 199.6526979166665,
      "v": 22
    },
    {
      "midi": 54,
      "hit": false,
      "t": 5425.34505208333,
      "d": 199.6526979166665,
      "v": 49
    },
    {
      "midi": 54,
      "hit": false,
      "t": 5633.67830208333,
      "d": 199.6526979166665,
      "v": 10
    },
    {
      "midi": 54,
      "hit": false,
      "t": 5842.01155208333,
      "d": 199.6526979166665,
      "v": 116
    },
    {
      "midi": 54,
      "hit": false,
      "t": 6050.344802083329,
      "d": 199.6526979166665,
      "v": 24
    },
    {
      "midi": 54,
      "hit": false,
      "t": 6258.678052083329,
      "d": 199.6526979166665,
      "v": 40
    },
    {
      "midi": 54,
      "hit": false,
      "t": 6467.011302083329,
      "d": 199.6526979166665,
      "v": 11
    },
    {
      "midi": 70,
      "hit": false,
      "t": 6649.302895833333,
      "d": 434.0276041666675,
      "v": 115
    },
    {
      "midi": 54,
      "hit": false,
      "t": 6675.344552083328,
      "d": 199.6526979166665,
      "v": 56
    },
    {
      "midi": 54,
      "hit": false,
      "t": 6883.677802083328,
      "d": 199.6526979166665,
      "v": 20
    },
    {
      "midi": 72,
      "hit": false,
      "t": 7057.2888437500005,
      "d": 425.34705208333344,
      "v": 90
    },
    {
      "midi": 54,
      "hit": false,
      "t": 7092.011052083328,
      "d": 199.6526979166665,
      "v": 48
    },
    {
      "midi": 54,
      "hit": false,
      "t": 7300.344302083327,
      "d": 199.6526979166665,
      "v": 14
    },
    {
      "midi": 74,
      "hit": false,
      "t": 7491.316447916667,
      "d": 390.62484374999985,
      "v": 119
    },
    {
      "midi": 54,
      "hit": false,
      "t": 7508.677552083327,
      "d": 199.6526979166665,
      "v": 109
    },
    {
      "midi": 54,
      "hit": false,
      "t": 7717.010802083327,
      "d": 199.6526979166665,
      "v": 16
    },
    {
      "midi": 72,
      "hit": false,
      "t": 7916.663500000001,
      "d": 789.9302395833329,
      "v": 127
    },
    {
      "midi": 54,
      "hit": false,
      "t": 7925.3440520833265,
      "d": 199.6526979166665,
      "v": 67
    },
    {
      "midi": 54,
      "hit": false,
      "t": 8133.677302083326,
      "d": 199.6526979166665,
      "v": 15
    },
    {
      "midi": 54,
      "hit": false,
      "t": 8342.010552083326,
      "d": 199.6526979166665,
      "v": 53
    },
    {
      "midi": 54,
      "hit": false,
      "t": 8550.343802083325,
      "d": 199.6526979166665,
      "v": 16
    },
    {
      "midi": 74,
      "hit": false,
      "t": 8749.9965,
      "d": 173.611041666667,
      "v": 108
    },
    {
      "midi": 54,
      "hit": false,
      "t": 8758.677052083325,
      "d": 199.6526979166665,
      "v": 45
    },
    {
      "midi": 54,
      "hit": false,
      "t": 8967.010302083325,
      "d": 199.6526979166665,
      "v": 9
    },
    {
      "midi": 54,
      "hit": false,
      "t": 9175.343552083325,
      "d": 199.6526979166665,
      "v": 109
    },
    {
      "midi": 54,
      "hit": false,
      "t": 9383.676802083324,
      "d": 199.6526979166665,
      "v": 24
    },
    {
      "midi": 74,
      "hit": false,
      "t": 9557.28784375,
      "d": 199.6526979166665,
      "v": 78
    },
    {
      "midi": 75,
      "hit": false,
      "t": 9565.968395833333,
      "d": 121.52772916666618,
      "v": 59
    },
    {
      "midi": 54,
      "hit": false,
      "t": 9592.010052083324,
      "d": 199.6526979166665,
      "v": 43
    },
    {
      "midi": 54,
      "hit": false,
      "t": 9800.343302083324,
      "d": 199.6526979166665,
      "v": 9
    },
    {
      "midi": 74,
      "hit": false,
      "t": 9999.996000000001,
      "d": 486.1109166666665,
      "v": 127
    },
    {
      "midi": 54,
      "hit": false,
      "t": 10008.676552083323,
      "d": 199.6526979166665,
      "v": 55
    },
    {
      "midi": 54,
      "hit": false,
      "t": 10217.009802083323,
      "d": 199.6526979166665,
      "v": 19
    },
    {
      "midi": 54,
      "hit": false,
      "t": 10425.343052083323,
      "d": 199.6526979166665,
      "v": 48
    },
    {
      "midi": 70,
      "hit": false,
      "t": 10425.343052083334,
      "d": 416.6665000000012,
      "v": 94
    },
    {
      "midi": 54,
      "hit": false,
      "t": 10633.676302083322,
      "d": 199.6526979166665,
      "v": 10
    },
    {
      "midi": 67,
      "hit": false,
      "t": 10833.329000000002,
      "d": 355.9026354166672,
      "v": 79
    },
    {
      "midi": 54,
      "hit": false,
      "t": 10842.009552083322,
      "d": 199.6526979166665,
      "v": 114
    },
    {
      "midi": 54,
      "hit": false,
      "t": 11050.342802083322,
      "d": 199.6526979166665,
      "v": 22
    },
    {
      "midi": 75,
      "hit": false,
      "t": 11232.634395833335,
      "d": 1059.0273541666666,
      "v": 127
    },
    {
      "midi": 54,
      "hit": false,
      "t": 11258.676052083321,
      "d": 199.6526979166665,
      "v": 64
    },
    {
      "midi": 54,
      "hit": false,
      "t": 11467.009302083321,
      "d": 199.6526979166665,
      "v": 9
    },
    {
      "midi": 54,
      "hit": false,
      "t": 11675.34255208332,
      "d": 199.6526979166665,
      "v": 55
    },
    {
      "midi": 54,
      "hit": false,
      "t": 11883.67580208332,
      "d": 199.6526979166665,
      "v": 20
    },
    {
      "midi": 54,
      "hit": false,
      "t": 12092.00905208332,
      "d": 199.6526979166665,
      "v": 48
    },
    {
      "midi": 54,
      "hit": false,
      "t": 12300.34230208332,
      "d": 199.6526979166665,
      "v": 10
    },
    {
      "midi": 75,
      "hit": false,
      "t": 12499.995,
      "d": 182.29159375000017,
      "v": 127
    },
    {
      "midi": 54,
      "hit": false,
      "t": 12508.67555208332,
      "d": 199.6526979166665,
      "v": 109
    },
    {
      "midi": 77,
      "hit": false,
      "t": 12690.967145833334,
      "d": 234.37490624999919,
      "v": 112
    },
    {
      "midi": 54,
      "hit": false,
      "t": 12717.00880208332,
      "d": 199.6526979166665,
      "v": 18
    },
    {
      "midi": 79,
      "hit": false,
      "t": 12899.300395833334,
      "d": 208.33324999999968,
      "v": 102
    },
    {
      "midi": 54,
      "hit": false,
      "t": 12925.342052083319,
      "d": 199.6526979166665,
      "v": 44
    },
    {
      "midi": 81,
      "hit": false,
      "t": 13090.272541666667,
      "d": 164.93048958333384,
      "v": 119
    },
    {
      "midi": 54,
      "hit": false,
      "t": 13133.675302083318,
      "d": 199.6526979166665,
      "v": 17
    },
    {
      "midi": 82,
      "hit": false,
      "t": 13307.286343750002,
      "d": 572.9164375,
      "v": 127
    },
    {
      "midi": 54,
      "hit": false,
      "t": 13342.008552083318,
      "d": 199.6526979166665,
      "v": 52
    },
    {
      "midi": 54,
      "hit": false,
      "t": 13550.341802083318,
      "d": 199.6526979166665,
      "v": 20
    },
    {
      "midi": 54,
      "hit": false,
      "t": 13758.675052083317,
      "d": 199.6526979166665,
      "v": 46
    },
    {
      "midi": 81,
      "hit": false,
      "t": 13932.286093750003,
      "d": 598.9580937499995,
      "v": 127
    },
    {
      "midi": 54,
      "hit": false,
      "t": 13967.008302083317,
      "d": 199.6526979166665,
      "v": 17
    },
    {
      "midi": 54,
      "hit": false,
      "t": 14175.341552083317,
      "d": 199.6526979166665,
      "v": 109
    },
    {
      "midi": 54,
      "hit": false,
      "t": 14383.674802083317,
      "d": 199.6526979166665,
      "v": 21
    },
    {
      "midi": 77,
      "hit": false,
      "t": 14557.285843750002,
      "d": 1692.7076562500006,
      "v": 119
    },
    {
      "midi": 54,
      "hit": false,
      "t": 14592.008052083316,
      "d": 199.6526979166665,
      "v": 68
    },
    {
      "midi": 54,
      "hit": false,
      "t": 14800.341302083316,
      "d": 199.6526979166665,
      "v": 14
    },
    {
      "midi": 54,
      "hit": false,
      "t": 15008.674552083316,
      "d": 199.6526979166665,
      "v": 55
    },
    {
      "midi": 54,
      "hit": false,
      "t": 15217.007802083315,
      "d": 199.6526979166665,
      "v": 18
    },
    {
      "midi": 54,
      "hit": false,
      "t": 15425.341052083315,
      "d": 130.20828124999935,
      "v": 41
    },
    {
      "midi": 70,
      "hit": false,
      "t": 15624.993749999981,
      "d": 26.041656249999505,
      "v": 26
    },
    {
      "midi": 82,
      "hit": false,
      "t": 15833.326999999981,
      "d": 8.680552083333168,
      "v": 70
    },
    {
      "midi": 54,
      "hit": false,
      "t": 15833.326999999981,
      "d": 17.361104166666337,
      "v": 103
    },
    {
      "midi": 70,
      "hit": false,
      "t": 16249.99349999998,
      "d": 26.041656249999505,
      "v": 59
    },
    {
      "midi": 82,
      "hit": false,
      "t": 16449.64619791667,
      "d": 69.44441666666535,
      "v": 97
    },
    {
      "midi": 70,
      "hit": false,
      "t": 16458.32674999998,
      "d": 26.041656249999505,
      "v": 26
    },
    {
      "midi": 82,
      "hit": false,
      "t": 16640.618343750004,
      "d": 373.2637395833335,
      "v": 127
    },
    {
      "midi": 82,
      "hit": false,
      "t": 16666.659999999978,
      "d": 8.680552083333168,
      "v": 70
    },
    {
      "midi": 70,
      "hit": false,
      "t": 17083.326499999977,
      "d": 26.041656249999505,
      "v": 59
    },
    {
      "midi": 81,
      "hit": false,
      "t": 17083.326500000003,
      "d": 60.76386458333218,
      "v": 59
    },
    {
      "midi": 81,
      "hit": false,
      "t": 17282.97919791667,
      "d": 520.833125000001,
      "v": 124
    },
    {
      "midi": 82,
      "hit": false,
      "t": 17499.992999999977,
      "d": 8.680552083333168,
      "v": 70
    },
    {
      "midi": 79,
      "hit": false,
      "t": 17907.978947916672,
      "d": 60.76386458333218,
      "v": 92
    },
    {
      "midi": 70,
      "hit": false,
      "t": 17916.659499999976,
      "d": 26.041656249999505,
      "v": 59
    },
    {
      "midi": 79,
      "hit": false,
      "t": 18107.63164583334,
      "d": 477.4303645833352,
      "v": 127
    },
    {
      "midi": 70,
      "hit": false,
      "t": 18124.992749999976,
      "d": 26.041656249999505,
      "v": 26
    },
    {
      "midi": 82,
      "hit": false,
      "t": 18333.325999999975,
      "d": 8.680552083333168,
      "v": 70
    },
    {
      "midi": 77,
      "hit": false,
      "t": 18706.58973958334,
      "d": 164.93048958333384,
      "v": 92
    },
    {
      "midi": 70,
      "hit": false,
      "t": 18749.992499999975,
      "d": 26.041656249999505,
      "v": 59
    },
    {
      "midi": 77,
      "hit": false,
      "t": 19131.936791666674,
      "d": 624.999749999999,
      "v": 124
    },
    {
      "midi": 82,
      "hit": false,
      "t": 19166.658999999974,
      "d": 8.680552083333168,
      "v": 70
    },
    {
      "midi": 54,
      "hit": false,
      "t": 19166.658999999974,
      "d": 17.361104166666337,
      "v": 103
    },
    {
      "midi": 70,
      "hit": false,
      "t": 19583.325499999974,
      "d": 26.041656249999505,
      "v": 59
    },
    {
      "midi": 74,
      "hit": false,
      "t": 19774.29764583334,
      "d": 182.29159375000017,
      "v": 61
    },
    {
      "midi": 70,
      "hit": false,
      "t": 19791.658749999973,
      "d": 26.041656249999505,
      "v": 26
    },
    {
      "midi": 77,
      "hit": false,
      "t": 19991.311447916672,
      "d": 234.37490624999919,
      "v": 99
    },
    {
      "midi": 82,
      "hit": false,
      "t": 19999.991999999973,
      "d": 8.680552083333168,
      "v": 70
    },
    {
      "midi": 74,
      "hit": false,
      "t": 20190.96414583334,
      "d": 494.7914687499979,
      "v": 102
    },
    {
      "midi": 70,
      "hit": false,
      "t": 20416.658499999972,
      "d": 26.041656249999505,
      "v": 59
    },
    {
      "midi": 72,
      "hit": false,
      "t": 20763.880583333335,
      "d": 78.12496874999852,
      "v": 127
    },
    {
      "midi": 74,
      "hit": false,
      "t": 20807.28334375,
      "d": 442.70815624999886,
      "v": 90
    },
    {
      "midi": 82,
      "hit": false,
      "t": 20833.32499999997,
      "d": 8.680552083333168,
      "v": 70
    },
    {
      "midi": 70,
      "hit": false,
      "t": 21249.99149999997,
      "d": 26.041656249999505,
      "v": 59
    },
    {
      "midi": 77,
      "hit": false,
      "t": 21249.9915,
      "d": 390.62484374999985,
      "v": 127
    },
    {
      "midi": 70,
      "hit": false,
      "t": 21458.32474999997,
      "d": 26.041656249999505,
      "v": 26
    },
    {
      "midi": 72,
      "hit": false,
      "t": 21614.5746875,
      "d": 52.08331249999901,
      "v": 112
    },
    {
      "midi": 74,
      "hit": false,
      "t": 21640.61634375,
      "d": 199.6526979166665,
      "v": 90
    },
    {
      "midi": 82,
      "hit": false,
      "t": 21666.65799999997,
      "d": 8.680552083333168,
      "v": 70
    },
    {
      "midi": 72,
      "hit": false,
      "t": 21805.546833333334,
      "d": 243.05545833333235,
      "v": 102
    },
    {
      "midi": 70,
      "hit": false,
      "t": 22048.602291666666,
      "d": 407.9859479166662,
      "v": 74
    },
    {
      "midi": 70,
      "hit": false,
      "t": 22083.32449999997,
      "d": 26.041656249999505,
      "v": 59
    },
    {
      "midi": 69,
      "hit": false,
      "t": 22482.629895833332,
      "d": 434.0276041666657,
      "v": 108
    },
    {
      "midi": 82,
      "hit": false,
      "t": 22499.99099999997,
      "d": 8.680552083333168,
      "v": 70
    },
    {
      "midi": 54,
      "hit": false,
      "t": 22499.99099999997,
      "d": 17.361104166666337,
      "v": 103
    },
    {
      "midi": 70,
      "hit": false,
      "t": 22907.976947916664,
      "d": 303.81932291666817,
      "v": 99
    },
    {
      "midi": 70,
      "hit": false,
      "t": 22916.65749999997,
      "d": 26.041656249999505,
      "v": 59
    },
    {
      "midi": 70,
      "hit": false,
      "t": 23124.990749999968,
      "d": 26.041656249999505,
      "v": 26
    },
    {
      "midi": 82,
      "hit": false,
      "t": 23333.323999999968,
      "d": 8.680552083333168,
      "v": 70
    },
    {
      "midi": 82,
      "hit": false,
      "t": 23333.324,
      "d": 329.8609791666677,
      "v": 99
    },
    {
      "midi": 70,
      "hit": false,
      "t": 23749.990499999967,
      "d": 26.041656249999505,
      "v": 59
    },
    {
      "midi": 81,
      "hit": false,
      "t": 23749.9905,
      "d": 60.76386458333218,
      "v": 72
    },
    {
      "midi": 81,
      "hit": false,
      "t": 23958.32375,
      "d": 546.8747812500005,
      "v": 119
    },
    {
      "midi": 82,
      "hit": false,
      "t": 24166.656999999967,
      "d": 8.680552083333168,
      "v": 70
    },
    {
      "midi": 79,
      "hit": false,
      "t": 24574.642947916665,
      "d": 60.76386458333218,
      "v": 88
    },
    {
      "midi": 70,
      "hit": false,
      "t": 24583.323499999966,
      "d": 26.041656249999505,
      "v": 59
    },
    {
      "midi": 70,
      "hit": false,
      "t": 24791.656749999966,
      "d": 26.041656249999505,
      "v": 26
    },
    {
      "midi": 79,
      "hit": false,
      "t": 24791.65675,
      "d": 494.7914687500015,
      "v": 115
    },
    {
      "midi": 82,
      "hit": false,
      "t": 24999.989999999965,
      "d": 8.680552083333168,
      "v": 70
    },
    {
      "midi": 70,
      "hit": false,
      "t": 25416.656499999965,
      "d": 26.041656249999505,
      "v": 59
    },
    {
      "midi": 79,
      "hit": false,
      "t": 25425.337052083334,
      "d": 112.84717708333483,
      "v": 97
    },
    {
      "midi": 77,
      "hit": false,
      "t": 25425.337052083334,
      "d": 182.29159375000017,
      "v": 99
    },
    {
      "midi": 82,
      "hit": false,
      "t": 25833.322999999964,
      "d": 8.680552083333168,
      "v": 70
    },
    {
      "midi": 54,
      "hit": false,
      "t": 25833.322999999964,
      "d": 17.361104166666337,
      "v": 103
    },
    {
      "midi": 77,
      "hit": false,
      "t": 25833.323,
      "d": 659.7219583333317,
      "v": 127
    },
    {
      "midi": 70,
      "hit": false,
      "t": 26249.989499999963,
      "d": 26.041656249999505,
      "v": 59
    },
    {
      "midi": 70,
      "hit": false,
      "t": 26458.322749999963,
      "d": 26.041656249999505,
      "v": 26
    },
    {
      "midi": 74,
      "hit": false,
      "t": 26493.044958333332,
      "d": 147.5693854166675,
      "v": 68
    },
    {
      "midi": 82,
      "hit": false,
      "t": 26666.655999999963,
      "d": 8.680552083333168,
      "v": 70
    },
    {
      "midi": 77,
      "hit": false,
      "t": 26675.336552083332,
      "d": 182.29159375000017,
      "v": 127
    },
    {
      "midi": 74,
      "hit": false,
      "t": 26883.669802083332,
      "d": 1901.0409062500003,
      "v": 97
    },
    {
      "midi": 70,
      "hit": false,
      "t": 27083.322499999962,
      "d": 26.041656249999505,
      "v": 59
    },
    {
      "midi": 82,
      "hit": false,
      "t": 27499.98899999996,
      "d": 8.680552083333168,
      "v": 70
    },
    {
      "midi": 70,
      "hit": false,
      "t": 27916.65549999996,
      "d": 26.041656249999505,
      "v": 59
    },
    {
      "midi": 70,
      "hit": false,
      "t": 28124.98874999996,
      "d": 26.041656249999505,
      "v": 26
    },
    {
      "midi": 82,
      "hit": false,
      "t": 28333.32199999996,
      "d": 8.680552083333168,
      "v": 70
    },
    {
      "midi": 70,
      "hit": false,
      "t": 28749.98849999996,
      "d": 26.041656249999505,
      "v": 59
    },
    {
      "midi": 74,
      "hit": false,
      "t": 29123.252239583333,
      "d": 243.05545833333235,
      "v": 127
    },
    {
      "midi": 82,
      "hit": false,
      "t": 29166.65499999996,
      "d": 8.680552083333168,
      "v": 70
    },
    {
      "midi": 54,
      "hit": false,
      "t": 29166.65499999996,
      "d": 17.361104166666337,
      "v": 103
    },
    {
      "midi": 75,
      "hit": false,
      "t": 29340.266041666666,
      "d": 173.611041666667,
      "v": 112
    },
    {
      "midi": 77,
      "hit": false,
      "t": 29565.960395833332,
      "d": 269.09711458333186,
      "v": 124
    },
    {
      "midi": 70,
      "hit": false,
      "t": 29583.321499999958,
      "d": 26.041656249999505,
      "v": 59
    },
    {
      "midi": 70,
      "hit": false,
      "t": 29791.654749999958,
      "d": 26.041656249999505,
      "v": 26
    },
    {
      "midi": 77,
      "hit": false,
      "t": 29991.307447916664,
      "d": 399.305395833333,
      "v": 127
    },
    {
      "midi": 82,
      "hit": false,
      "t": 29999.987999999958,
      "d": 8.680552083333168,
      "v": 70
    },
    {
      "midi": 70,
      "hit": false,
      "t": 30416.654499999957,
      "d": 26.041656249999505,
      "v": 59
    },
    {
      "midi": 75,
      "hit": false,
      "t": 30416.654499999997,
      "d": 86.80552083333168,
      "v": 88
    },
    {
      "midi": 75,
      "hit": false,
      "t": 30633.66830208333,
      "d": 572.9164375,
      "v": 127
    },
    {
      "midi": 82,
      "hit": false,
      "t": 30833.320999999956,
      "d": 8.680552083333168,
      "v": 70
    },
    {
      "midi": 70,
      "hit": false,
      "t": 31249.987499999956,
      "d": 26.041656249999505,
      "v": 59
    },
    {
      "midi": 77,
      "hit": false,
      "t": 31249.987499999996,
      "d": 130.20828125000116,
      "v": 97
    },
    {
      "midi": 70,
      "hit": false,
      "t": 31458.320749999955,
      "d": 26.041656249999505,
      "v": 26
    },
    {
      "midi": 79,
      "hit": false,
      "t": 31458.320749999995,
      "d": 529.5136770833342,
      "v": 127
    },
    {
      "midi": 82,
      "hit": false,
      "t": 31666.653999999955,
      "d": 8.680552083333168,
      "v": 70
    },
    {
      "midi": 70,
      "hit": false,
      "t": 32083.320499999954,
      "d": 26.041656249999505,
      "v": 59
    },
    {
      "midi": 77,
      "hit": false,
      "t": 32083.320499999994,
      "d": 225.69435416666602,
      "v": 115
    },
    {
      "midi": 77,
      "hit": false,
      "t": 32491.30644791666,
      "d": 546.8747812499969,
      "v": 127
    },
    {
      "midi": 82,
      "hit": false,
      "t": 32499.986999999954,
      "d": 8.680552083333168,
      "v": 70
    },
    {
      "midi": 54,
      "hit": false,
      "t": 32499.986999999954,
      "d": 17.361104166666337,
      "v": 103
    },
    {
      "midi": 70,
      "hit": false,
      "t": 32916.65349999996,
      "d": 26.041656250003143,
      "v": 59
    },
    {
      "midi": 70,
      "hit": false,
      "t": 33124.98674999996,
      "d": 26.041656250003143,
      "v": 26
    },
    {
      "midi": 74,
      "hit": false,
      "t": 33124.98674999999,
      "d": 208.33325000000332,
      "v": 108
    },
    {
      "midi": 82,
      "hit": false,
      "t": 33333.31999999996,
      "d": 8.680552083336806,
      "v": 70
    },
    {
      "midi": 72,
      "hit": false,
      "t": 33342.00055208333,
      "d": 347.222083333334,
      "v": 112
    },
    {
      "midi": 70,
      "hit": false,
      "t": 33741.30594791666,
      "d": 95.48607291666849,
      "v": 92
    },
    {
      "midi": 70,
      "hit": false,
      "t": 33749.98649999997,
      "d": 26.041656250003143,
      "v": 59
    },
    {
      "midi": 70,
      "hit": false,
      "t": 33949.639197916666,
      "d": 2161.457468749999,
      "v": 115
    },
    {
      "midi": 82,
      "hit": false,
      "t": 34166.65299999998,
      "d": 8.680552083336806,
      "v": 70
    },
    {
      "midi": 70,
      "hit": false,
      "t": 34583.31949999998,
      "d": 26.041656250003143,
      "v": 59
    },
    {
      "midi": 70,
      "hit": false,
      "t": 34791.65274999999,
      "d": 26.041656250003143,
      "v": 26
    },
    {
      "midi": 82,
      "hit": false,
      "t": 34999.98599999999,
      "d": 8.680552083336806,
      "v": 70
    },
    {
      "midi": 70,
      "hit": false,
      "t": 35416.6525,
      "d": 26.041656250003143,
      "v": 59
    },
    {
      "midi": 82,
      "hit": false,
      "t": 35833.319,
      "d": 8.680552083336806,
      "v": 70
    },
    {
      "midi": 54,
      "hit": false,
      "t": 35833.319,
      "d": 17.361104166673613,
      "v": 103
    },
    {
      "midi": 70,
      "hit": false,
      "t": 36249.985499999995,
      "d": 173.61104166666337,
      "v": 105
    },
    {
      "midi": 70,
      "hit": false,
      "t": 36249.98550000001,
      "d": 26.041656250003143,
      "v": 59
    },
    {
      "midi": 72,
      "hit": false,
      "t": 36432.277093749995,
      "d": 156.24993749999703,
      "v": 97
    },
    {
      "midi": 70,
      "hit": false,
      "t": 36458.31875000001,
      "d": 26.041656250003143,
      "v": 26
    },
    {
      "midi": 74,
      "hit": false,
      "t": 36649.29089583333,
      "d": 355.90263541666354,
      "v": 127
    },
    {
      "midi": 82,
      "hit": false,
      "t": 36666.65200000002,
      "d": 8.680552083336806,
      "v": 70
    },
    {
      "midi": 72,
      "hit": false,
      "t": 37083.318499999994,
      "d": 69.44441666666535,
      "v": 92
    },
    {
      "midi": 70,
      "hit": false,
      "t": 37083.31850000002,
      "d": 26.041656250003143,
      "v": 59
    },
    {
      "midi": 72,
      "hit": false,
      "t": 37282.97119791666,
      "d": 581.5969895833332,
      "v": 127
    },
    {
      "midi": 82,
      "hit": false,
      "t": 37499.98500000003,
      "d": 8.680552083336806,
      "v": 70
    },
    {
      "midi": 74,
      "hit": false,
      "t": 37916.65149999999,
      "d": 173.61104166666337,
      "v": 94
    },
    {
      "midi": 70,
      "hit": false,
      "t": 37916.651500000036,
      "d": 26.041656250003143,
      "v": 59
    },
    {
      "midi": 75,
      "hit": false,
      "t": 38116.30419791666,
      "d": 572.9164374999964,
      "v": 127
    },
    {
      "midi": 70,
      "hit": false,
      "t": 38124.98475000004,
      "d": 26.041656250003143,
      "v": 26
    },
    {
      "midi": 82,
      "hit": false,
      "t": 38333.31800000004,
      "d": 8.680552083336806,
      "v": 70
    },
    {
      "midi": 77,
      "hit": false,
      "t": 38723.94284374999,
      "d": 399.305395833333,
      "v": 119
    },
    {
      "midi": 70,
      "hit": false,
      "t": 38749.98450000005,
      "d": 26.041656250003143,
      "v": 59
    },
    {
      "midi": 79,
      "hit": false,
      "t": 39149.289895833324,
      "d": 390.6248437500035,
      "v": 127
    },
    {
      "midi": 82,
      "hit": false,
      "t": 39166.651000000056,
      "d": 8.680552083336806,
      "v": 70
    },
    {
      "midi": 54,
      "hit": false,
      "t": 39166.651000000056,
      "d": 17.361104166673613,
      "v": 103
    },
    {
      "midi": 77,
      "hit": false,
      "t": 39574.63694791666,
      "d": 407.98594791666983,
      "v": 119
    },
    {
      "midi": 70,
      "hit": false,
      "t": 39583.31750000006,
      "d": 26.041656250003143,
      "v": 59
    },
    {
      "midi": 70,
      "hit": false,
      "t": 39791.650750000066,
      "d": 26.041656250003143,
      "v": 26
    },
    {
      "midi": 74,
      "hit": false,
      "t": 39991.30344791667,
      "d": 416.66650000000664,
      "v": 119
    },
    {
      "midi": 82,
      "hit": false,
      "t": 39999.98400000007,
      "d": 8.680552083336806,
      "v": 70
    },
    {
      "midi": 72,
      "hit": false,
      "t": 40399.28939583334,
      "d": 104.1666250000053,
      "v": 83
    },
    {
      "midi": 70,
      "hit": false,
      "t": 40416.650500000076,
      "d": 26.041656250003143,
      "v": 59
    },
    {
      "midi": 72,
      "hit": false,
      "t": 40598.94209375001,
      "d": 1397.5688854166656,
      "v": 97
    },
    {
      "midi": 82,
      "hit": false,
      "t": 40833.31700000008,
      "d": 8.680552083336806,
      "v": 70
    },
    {
      "midi": 70,
      "hit": false,
      "t": 41249.98350000009,
      "d": 26.041656250003143,
      "v": 59
    },
    {
      "midi": 70,
      "hit": false,
      "t": 41458.31675000009,
      "d": 26.041656250003143,
      "v": 26
    },
    {
      "midi": 82,
      "hit": false,
      "t": 41666.650000000096,
      "d": 8.680552083336806,
      "v": 70
    },
    {
      "midi": 70,
      "hit": false,
      "t": 42083.3165000001,
      "d": 26.041656250003143,
      "v": 59
    },
    {
      "midi": 72,
      "hit": false,
      "t": 42309.01085416668,
      "d": 260.4165625000023,
      "v": 36
    },
    {
      "midi": 82,
      "hit": false,
      "t": 42499.98300000011,
      "d": 8.680552083336806,
      "v": 70
    },
    {
      "midi": 54,
      "hit": false,
      "t": 42499.98300000011,
      "d": 17.361104166673613,
      "v": 103
    },
    {
      "midi": 79,
      "hit": false,
      "t": 42543.38576041668,
      "d": 303.8193229166718,
      "v": 127
    },
    {
      "midi": 81,
      "hit": false,
      "t": 42890.60784375002,
      "d": 347.222083333334,
      "v": 108
    },
    {
      "midi": 70,
      "hit": false,
      "t": 42916.649500000116,
      "d": 26.041656250003143,
      "v": 59
    },
    {
      "midi": 70,
      "hit": false,
      "t": 43124.98275000012,
      "d": 26.041656250003143,
      "v": 26
    },
    {
      "midi": 82,
      "hit": false,
      "t": 43307.27434375002,
      "d": 347.222083333334,
      "v": 124
    },
    {
      "midi": 82,
      "hit": false,
      "t": 43333.31600000012,
      "d": 8.680552083336806,
      "v": 70
    },
    {
      "midi": 82,
      "hit": false,
      "t": 43741.30194791668,
      "d": 321.18042708333087,
      "v": 124
    },
    {
      "midi": 70,
      "hit": false,
      "t": 43749.98250000013,
      "d": 26.041656250003143,
      "v": 59
    },
    {
      "midi": 82,
      "hit": false,
      "t": 44157.96844791668,
      "d": 321.18042708333087,
      "v": 115
    },
    {
      "midi": 82,
      "hit": false,
      "t": 44166.649000000136,
      "d": 8.680552083336806,
      "v": 70
    },
    {
      "midi": 81,
      "hit": false,
      "t": 44565.954395833345,
      "d": 303.81932291666453,
      "v": 124
    },
    {
      "midi": 70,
      "hit": false,
      "t": 44583.31550000014,
      "d": 26.041656250003143,
      "v": 59
    },
    {
      "midi": 70,
      "hit": false,
      "t": 44791.648750000146,
      "d": 26.041656250003143,
      "v": 26
    },
    {
      "midi": 81,
      "hit": false,
      "t": 44991.301447916674,
      "d": 364.58318750000035,
      "v": 127
    },
    {
      "midi": 82,
      "hit": false,
      "t": 44999.98200000015,
      "d": 8.680552083336806,
      "v": 70
    },
    {
      "midi": 70,
      "hit": false,
      "t": 45416.648500000156,
      "d": 26.041656250003143,
      "v": 59
    },
    {
      "midi": 79,
      "hit": false,
      "t": 45442.690156250006,
      "d": 86.80552083333168,
      "v": 108
    },
    {
      "midi": 79,
      "hit": false,
      "t": 45642.34285416667,
      "d": 512.1525729166679,
      "v": 127
    },
    {
      "midi": 82,
      "hit": false,
      "t": 45833.31500000016,
      "d": 8.680552083336806,
      "v": 70
    },
    {
      "midi": 54,
      "hit": false,
      "t": 45833.31500000016,
      "d": 17.361104166673613,
      "v": 103
    },
    {
      "midi": 77,
      "hit": false,
      "t": 46241.30094791667,
      "d": 329.8609791666677,
      "v": 127
    },
    {
      "midi": 70,
      "hit": false,
      "t": 46249.98150000017,
      "d": 26.041656250003143,
      "v": 59
    },
    {
      "midi": 70,
      "hit": false,
      "t": 46458.31475000017,
      "d": 26.041656250003143,
      "v": 26
    },
    {
      "midi": 77,
      "hit": false,
      "t": 46657.96744791667,
      "d": 390.6248437500035,
      "v": 124
    },
    {
      "midi": 82,
      "hit": false,
      "t": 46666.648000000176,
      "d": 8.680552083336806,
      "v": 70
    },
    {
      "midi": 74,
      "hit": false,
      "t": 47057.27284375001,
      "d": 1684.0271041666638,
      "v": 78
    },
    {
      "midi": 70,
      "hit": false,
      "t": 47083.31450000018,
      "d": 26.041656250003143,
      "v": 59
    },
    {
      "midi": 82,
      "hit": false,
      "t": 47499.98100000019,
      "d": 8.680552083336806,
      "v": 70
    },
    {
      "midi": 70,
      "hit": false,
      "t": 47916.647500000196,
      "d": 26.041656250003143,
      "v": 59
    },
    {
      "midi": 70,
      "hit": false,
      "t": 48124.9807500002,
      "d": 26.041656250003143,
      "v": 26
    },
    {
      "midi": 82,
      "hit": false,
      "t": 48333.3140000002,
      "d": 8.680552083336806,
      "v": 70
    },
    {
      "midi": 70,
      "hit": false,
      "t": 48749.98050000021,
      "d": 26.041656250003143,
      "v": 59
    },
    {
      "midi": 74,
      "hit": false,
      "t": 48958.31375000001,
      "d": 190.9721458333297,
      "v": 105
    },
    {
      "midi": 79,
      "hit": false,
      "t": 49157.966447916675,
      "d": 338.5415312499972,
      "v": 127
    },
    {
      "midi": 82,
      "hit": false,
      "t": 49166.647000000215,
      "d": 8.680552083336806,
      "v": 70
    },
    {
      "midi": 54,
      "hit": false,
      "t": 49166.647000000215,
      "d": 17.361104166673613,
      "v": 103
    },
    {
      "midi": 81,
      "hit": false,
      "t": 49557.27184375001,
      "d": 355.90263541666354,
      "v": 115
    },
    {
      "midi": 70,
      "hit": false,
      "t": 49583.31350000022,
      "d": 26.041656250003143,
      "v": 59
    },
    {
      "midi": 70,
      "hit": false,
      "t": 49791.646750000225,
      "d": 26.041656250003143,
      "v": 26
    },
    {
      "midi": 82,
      "hit": false,
      "t": 49982.61889583334,
      "d": 321.18042708333087,
      "v": 127
    },
    {
      "midi": 82,
      "hit": false,
      "t": 49999.98000000023,
      "d": 8.680552083336806,
      "v": 70
    },
    {
      "midi": 82,
      "hit": false,
      "t": 50416.6465,
      "d": 69.44441666666535,
      "v": 105
    },
    {
      "midi": 70,
      "hit": false,
      "t": 50416.646500000235,
      "d": 26.041656250003143,
      "v": 59
    },
    {
      "midi": 82,
      "hit": false,
      "t": 50590.257541666666,
      "d": 538.1942291666637,
      "v": 127
    },
    {
      "midi": 82,
      "hit": false,
      "t": 50833.31300000024,
      "d": 8.680552083336806,
      "v": 70
    },
    {
      "midi": 81,
      "hit": false,
      "t": 51206.57673958333,
      "d": 303.81932291666453,
      "v": 108
    },
    {
      "midi": 70,
      "hit": false,
      "t": 51249.97950000025,
      "d": 26.041656250003143,
      "v": 59
    },
    {
      "midi": 70,
      "hit": false,
      "t": 51458.31275000025,
      "d": 26.041656250003143,
      "v": 26
    },
    {
      "midi": 81,
      "hit": false,
      "t": 51640.60434375,
      "d": 364.58318750000035,
      "v": 127
    },
    {
      "midi": 82,
      "hit": false,
      "t": 51666.646000000255,
      "d": 8.680552083336806,
      "v": 70
    },
    {
      "midi": 79,
      "hit": false,
      "t": 52083.3125,
      "d": 225.69435416666965,
      "v": 102
    },
    {
      "midi": 70,
      "hit": false,
      "t": 52083.31250000026,
      "d": 26.041656250003143,
      "v": 59
    },
    {
      "midi": 79,
      "hit": false,
      "t": 52465.25679166667,
      "d": 590.27754166667,
      "v": 119
    },
    {
      "midi": 82,
      "hit": false,
      "t": 52499.97900000027,
      "d": 8.680552083336806,
      "v": 70
    },
    {
      "midi": 54,
      "hit": false,
      "t": 52499.97900000027,
      "d": 17.361104166673613,
      "v": 103
    },
    {
      "midi": 70,
      "hit": false,
      "t": 52916.645500000275,
      "d": 26.041656250003143,
      "v": 59
    },
    {
      "midi": 77,
      "hit": false,
      "t": 53107.617645833336,
      "d": 104.16662499999802,
      "v": 66
    },
    {
      "midi": 70,
      "hit": false,
      "t": 53124.97875000028,
      "d": 26.041656250003143,
      "v": 26
    },
    {
      "midi": 77,
      "hit": false,
      "t": 53315.95089583333,
      "d": 434.0276041666657,
      "v": 127
    },
    {
      "midi": 82,
      "hit": false,
      "t": 53333.31200000028,
      "d": 8.680552083336806,
      "v": 70
    },
    {
      "midi": 74,
      "hit": false,
      "t": 53732.61739583333,
      "d": 147.5693854166675,
      "v": 61
    },
    {
      "midi": 70,
      "hit": false,
      "t": 53749.97850000029,
      "d": 26.041656250003143,
      "v": 59
    },
    {
      "midi": 74,
      "hit": false,
      "t": 53949.631197916664,
      "d": 1623.2632395833352,
      "v": 97
    },
    {
      "midi": 82,
      "hit": false,
      "t": 54166.645000000295,
      "d": 8.680552083336806,
      "v": 70
    },
    {
      "midi": 70,
      "hit": false,
      "t": 54583.3115000003,
      "d": 26.041656250003143,
      "v": 59
    },
    {
      "midi": 70,
      "hit": false,
      "t": 54791.644750000305,
      "d": 26.041656250003143,
      "v": 26
    },
    {
      "midi": 82,
      "hit": false,
      "t": 54999.97800000031,
      "d": 8.680552083336806,
      "v": 70
    },
    {
      "midi": 70,
      "hit": false,
      "t": 55416.644500000315,
      "d": 26.041656250003143,
      "v": 59
    },
    {
      "midi": 74,
      "hit": false,
      "t": 55789.90823958333,
      "d": 260.4165625000023,
      "v": 127
    },
    {
      "midi": 82,
      "hit": false,
      "t": 55833.31100000032,
      "d": 8.680552083336806,
      "v": 70
    },
    {
      "midi": 54,
      "hit": false,
      "t": 55833.31100000032,
      "d": 17.361104166673613,
      "v": 103
    },
    {
      "midi": 75,
      "hit": false,
      "t": 56015.60259375,
      "d": 156.24993749999703,
      "v": 108
    },
    {
      "midi": 77,
      "hit": false,
      "t": 56232.616395833335,
      "d": 295.138770833335,
      "v": 127
    },
    {
      "midi": 70,
      "hit": false,
      "t": 56249.97750000033,
      "d": 26.041656250003143,
      "v": 59
    },
    {
      "midi": 70,
      "hit": false,
      "t": 56458.31075000033,
      "d": 26.041656250003143,
      "v": 26
    },
    {
      "midi": 77,
      "hit": false,
      "t": 56666.644,
      "d": 373.2637395833299,
      "v": 127
    },
    {
      "midi": 82,
      "hit": false,
      "t": 56666.644000000335,
      "d": 8.680552083336806,
      "v": 70
    },
    {
      "midi": 75,
      "hit": false,
      "t": 57083.3105,
      "d": 78.12496875000215,
      "v": 105
    },
    {
      "midi": 70,
      "hit": false,
      "t": 57083.31050000034,
      "d": 26.041656250003143,
      "v": 59
    },
    {
      "midi": 75,
      "hit": false,
      "t": 57282.963197916666,
      "d": 538.1942291666637,
      "v": 127
    },
    {
      "midi": 82,
      "hit": false,
      "t": 57499.97700000035,
      "d": 8.680552083336806,
      "v": 70
    },
    {
      "midi": 77,
      "hit": false,
      "t": 57890.601843749995,
      "d": 138.8888333333307,
      "v": 127
    },
    {
      "midi": 70,
      "hit": false,
      "t": 57916.643500000355,
      "d": 26.041656250003143,
      "v": 59
    },
    {
      "midi": 79,
      "hit": false,
      "t": 58090.25454166666,
      "d": 581.5969895833332,
      "v": 127
    },
    {
      "midi": 70,
      "hit": false,
      "t": 58124.97675000036,
      "d": 26.041656250003143,
      "v": 26
    },
    {
      "midi": 82,
      "hit": false,
      "t": 58333.31000000036,
      "d": 8.680552083336806,
      "v": 70
    },
    {
      "midi": 77,
      "hit": false,
      "t": 58749.9765,
      "d": 86.80552083333168,
      "v": 102
    },
    {
      "midi": 70,
      "hit": false,
      "t": 58749.97650000037,
      "d": 26.041656250003143,
      "v": 59
    },
    {
      "midi": 77,
      "hit": false,
      "t": 58949.62919791666,
      "d": 425.34705208333617,
      "v": 127
    },
    {
      "midi": 82,
      "hit": false,
      "t": 59166.643000000375,
      "d": 8.680552083336806,
      "v": 70
    },
    {
      "midi": 54,
      "hit": false,
      "t": 59166.643000000375,
      "d": 17.361104166673613,
      "v": 103
    },
    {
      "midi": 74,
      "hit": false,
      "t": 59340.25404166667,
      "d": 425.34705208333617,
      "v": 102
    },
    {
      "midi": 70,
      "hit": false,
      "t": 59583.30950000038,
      "d": 26.041656250003143,
      "v": 59
    },
    {
      "midi": 72,
      "hit": false,
      "t": 59774.28164583334,
      "d": 112.84717708333483,
      "v": 78
    },
    {
      "midi": 70,
      "hit": false,
      "t": 59791.642750000385,
      "d": 26.041656250003143,
      "v": 26
    },
    {
      "midi": 74,
      "hit": false,
      "t": 59878.44827083334,
      "d": 121.52772916667163,
      "v": 88
    },
    {
      "midi": 72,
      "hit": false,
      "t": 59999.97600000001,
      "d": 425.34705208333617,
      "v": 127
    },
    {
      "midi": 82,
      "hit": false,
      "t": 59999.97600000039,
      "d": 8.680552083336806,
      "v": 70
    },
    {
      "midi": 70,
      "hit": false,
      "t": 60416.64250000001,
      "d": 78.12496875000215,
      "v": 99
    },
    {
      "midi": 70,
      "hit": false,
      "t": 60416.642500000395,
      "d": 26.041656250003143,
      "v": 59
    },
    {
      "midi": 70,
      "hit": false,
      "t": 60616.295197916676,
      "d": 1918.4020104166702,
      "v": 127
    },
    {
      "midi": 82,
      "hit": false,
      "t": 60833.3090000004,
      "d": 8.680552083336806,
      "v": 70
    },
    {
      "midi": 70,
      "hit": false,
      "t": 61249.97550000041,
      "d": 26.041656250003143,
      "v": 59
    },
    {
      "midi": 70,
      "hit": false,
      "t": 61458.30875000041,
      "d": 26.041656250003143,
      "v": 26
    },
    {
      "midi": 82,
      "hit": false,
      "t": 61666.642000000415,
      "d": 8.680552083336806,
      "v": 70
    },
    {
      "midi": 70,
      "hit": false,
      "t": 62083.30850000042,
      "d": 26.041656250003143,
      "v": 59
    },
    {
      "midi": 82,
      "hit": false,
      "t": 62499.97500000043,
      "d": 8.680552083336806,
      "v": 70
    },
    {
      "midi": 54,
      "hit": false,
      "t": 62499.97500000043,
      "d": 17.361104166673613,
      "v": 103
    },
    {
      "midi": 70,
      "hit": false,
      "t": 62743.03045833335,
      "d": 182.29159375000017,
      "v": 127
    },
    {
      "midi": 70,
      "hit": false,
      "t": 62916.641500000434,
      "d": 26.041656250003143,
      "v": 59
    },
    {
      "midi": 72,
      "hit": false,
      "t": 62925.32205208335,
      "d": 156.24993749999703,
      "v": 105
    },
    {
      "midi": 74,
      "hit": false,
      "t": 63124.974750000016,
      "d": 78.12496875000215,
      "v": 112
    },
    {
      "midi": 70,
      "hit": false,
      "t": 63124.97475000044,
      "d": 26.041656250003143,
      "v": 26
    },
    {
      "midi": 74,
      "hit": false,
      "t": 63324.62744791668,
      "d": 164.93048958333384,
      "v": 127
    },
    {
      "midi": 82,
      "hit": false,
      "t": 63333.30800000044,
      "d": 8.680552083336806,
      "v": 70
    },
    {
      "midi": 72,
      "hit": false,
      "t": 63524.28014583335,
      "d": 78.12496875000215,
      "v": 108
    },
    {
      "midi": 72,
      "hit": false,
      "t": 63732.61339583335,
      "d": 989.582937500003,
      "v": 127
    },
    {
      "midi": 70,
      "hit": false,
      "t": 63749.97450000045,
      "d": 26.041656250003143,
      "v": 59
    },
    {
      "midi": 82,
      "hit": false,
      "t": 64166.641000000454,
      "d": 8.680552083336806,
      "v": 70
    },
    {
      "midi": 70,
      "hit": false,
      "t": 64583.30750000046,
      "d": 26.041656250003143,
      "v": 59
    },
    {
      "midi": 70,
      "hit": false,
      "t": 64756.91854166669,
      "d": 156.24993749999703,
      "v": 83
    },
    {
      "midi": 70,
      "hit": false,
      "t": 64791.640750000464,
      "d": 26.041656250003143,
      "v": 26
    },
    {
      "midi": 79,
      "hit": false,
      "t": 64982.61289583335,
      "d": 329.8609791666677,
      "v": 127
    },
    {
      "midi": 82,
      "hit": false,
      "t": 64999.97400000047,
      "d": 8.680552083336806,
      "v": 70
    },
    {
      "midi": 70,
      "hit": false,
      "t": 65416.640500000474,
      "d": 26.041656250003143,
      "v": 59
    },
    {
      "midi": 77,
      "hit": false,
      "t": 65425.32105208335,
      "d": 60.76386458333582,
      "v": 115
    },
    {
      "midi": 77,
      "hit": false,
      "t": 65607.61264583336,
      "d": 355.9026354166708,
      "v": 127
    },
    {
      "midi": 82,
      "hit": false,
      "t": 65833.30700000048,
      "d": 8.68055208332953,
      "v": 70
    },
    {
      "midi": 54,
      "hit": false,
      "t": 65833.30700000048,
      "d": 17.36110416665906,
      "v": 103
    },
    {
      "midi": 75,
      "hit": false,
      "t": 66006.9180416667,
      "d": 434.0276041666657,
      "v": 127
    },
    {
      "midi": 70,
      "hit": false,
      "t": 66249.97350000047,
      "d": 26.041656250003143,
      "v": 59
    },
    {
      "midi": 74,
      "hit": false,
      "t": 66440.94564583336,
      "d": 190.97214583333698,
      "v": 58
    },
    {
      "midi": 70,
      "hit": false,
      "t": 66458.30675000047,
      "d": 26.041656250003143,
      "v": 26
    },
    {
      "midi": 72,
      "hit": false,
      "t": 66666.64000000003,
      "d": 1076.3884583333274,
      "v": 127
    },
    {
      "midi": 82,
      "hit": false,
      "t": 66666.64000000047,
      "d": 8.68055208332953,
      "v": 70
    },
    {
      "midi": 70,
      "hit": false,
      "t": 67083.30650000046,
      "d": 26.041656250003143,
      "v": 59
    },
    {
      "midi": 82,
      "hit": false,
      "t": 67499.97300000046,
      "d": 8.68055208332953,
      "v": 70
    },
    {
      "midi": 72,
      "hit": false,
      "t": 67907.95894791669,
      "d": 112.84717708332755,
      "v": 105
    },
    {
      "midi": 70,
      "hit": false,
      "t": 67916.63950000046,
      "d": 26.041656250003143,
      "v": 59
    },
    {
      "midi": 70,
      "hit": false,
      "t": 68124.97275000045,
      "d": 26.041656250003143,
      "v": 26
    },
    {
      "midi": 72,
      "hit": false,
      "t": 68307.26434375002,
      "d": 486.110916666672,
      "v": 127
    },
    {
      "midi": 82,
      "hit": false,
      "t": 68333.30600000045,
      "d": 8.68055208332953,
      "v": 70
    },
    {
      "midi": 70,
      "hit": false,
      "t": 68749.97250000044,
      "d": 26.041656250003143,
      "v": 59
    },
    {
      "midi": 72,
      "hit": false,
      "t": 68940.94464583336,
      "d": 225.69435416666965,
      "v": 119
    },
    {
      "midi": 54,
      "hit": false,
      "t": 68966.98630208378,
      "d": 199.6526979166665,
      "v": 13
    },
    {
      "midi": 79,
      "hit": false,
      "t": 69166.63900000002,
      "d": 381.94429166667396,
      "v": 127
    },
    {
      "midi": 54,
      "hit": false,
      "t": 69175.31955208378,
      "d": 199.6526979166665,
      "v": 115
    },
    {
      "midi": 54,
      "hit": false,
      "t": 69383.65280208377,
      "d": 199.6526979166665,
      "v": 23
    },
    {
      "midi": 81,
      "hit": false,
      "t": 69583.30550000003,
      "d": 373.2637395833299,
      "v": 127
    },
    {
      "midi": 54,
      "hit": false,
      "t": 69591.98605208377,
      "d": 199.6526979166665,
      "v": 42
    },
    {
      "midi": 54,
      "hit": false,
      "t": 69800.31930208376,
      "d": 199.6526979166665,
      "v": 10
    },
    {
      "midi": 82,
      "hit": false,
      "t": 69999.97200000002,
      "d": 5590.275541666662,
      "v": 127
    },
    {
      "midi": 54,
      "hit": false,
      "t": 70008.65255208376,
      "d": 199.6526979166665,
      "v": 55
    },
    {
      "midi": 54,
      "hit": false,
      "t": 70216.98580208376,
      "d": 199.6526979166665,
      "v": 23
    },
    {
      "midi": 54,
      "hit": false,
      "t": 70425.31905208375,
      "d": 199.6526979166665,
      "v": 46
    },
    {
      "midi": 54,
      "hit": false,
      "t": 70633.65230208375,
      "d": 199.6526979166665,
      "v": 12
    },
    {
      "midi": 54,
      "hit": false,
      "t": 70841.98555208374,
      "d": 199.6526979166665,
      "v": 111
    },
    {
      "midi": 54,
      "hit": false,
      "t": 71050.31880208374,
      "d": 199.6526979166665,
      "v": 20
    },
    {
      "midi": 54,
      "hit": false,
      "t": 71258.65205208374,
      "d": 199.6526979166665,
      "v": 68
    },
    {
      "midi": 54,
      "hit": false,
      "t": 71466.98530208373,
      "d": 199.6526979166665,
      "v": 14
    },
    {
      "midi": 54,
      "hit": false,
      "t": 71675.31855208373,
      "d": 199.6526979166665,
      "v": 56
    },
    {
      "midi": 54,
      "hit": false,
      "t": 71883.65180208372,
      "d": 199.6526979166665,
      "v": 22
    },
    {
      "midi": 54,
      "hit": false,
      "t": 72091.98505208372,
      "d": 199.6526979166665,
      "v": 49
    },
    {
      "midi": 54,
      "hit": false,
      "t": 72300.31830208372,
      "d": 199.6526979166665,
      "v": 10
    },
    {
      "midi": 54,
      "hit": false,
      "t": 72508.65155208371,
      "d": 199.6526979166665,
      "v": 116
    },
    {
      "midi": 54,
      "hit": false,
      "t": 72716.98480208371,
      "d": 199.6526979166665,
      "v": 24
    },
    {
      "midi": 54,
      "hit": false,
      "t": 72925.3180520837,
      "d": 199.6526979166665,
      "v": 40
    },
    {
      "midi": 54,
      "hit": false,
      "t": 73133.6513020837,
      "d": 199.6526979166665,
      "v": 11
    },
    {
      "midi": 54,
      "hit": false,
      "t": 73341.9845520837,
      "d": 199.6526979166665,
      "v": 56
    },
    {
      "midi": 54,
      "hit": false,
      "t": 73550.3178020837,
      "d": 199.6526979166665,
      "v": 20
    },
    {
      "midi": 54,
      "hit": false,
      "t": 73758.65105208369,
      "d": 199.6526979166665,
      "v": 48
    },
    {
      "midi": 54,
      "hit": false,
      "t": 73966.98430208369,
      "d": 199.6526979166665,
      "v": 14
    },
    {
      "midi": 54,
      "hit": false,
      "t": 74175.31755208368,
      "d": 199.6526979166665,
      "v": 109
    },
    {
      "midi": 54,
      "hit": false,
      "t": 74383.65080208368,
      "d": 199.6526979166665,
      "v": 16
    },
    {
      "midi": 54,
      "hit": false,
      "t": 74591.98405208367,
      "d": 199.6526979166665,
      "v": 67
    },
    {
      "midi": 54,
      "hit": false,
      "t": 74800.31730208367,
      "d": 199.6526979166665,
      "v": 15
    },
    {
      "midi": 77,
      "hit": false,
      "t": 74939.2061354167,
      "d": 546.8747812499932,
      "v": 94
    },
    {
      "midi": 54,
      "hit": false,
      "t": 75008.65055208367,
      "d": 199.6526979166665,
      "v": 53
    },
    {
      "midi": 54,
      "hit": false,
      "t": 75216.98380208366,
      "d": 199.6526979166665,
      "v": 16
    },
    {
      "midi": 54,
      "hit": false,
      "t": 75425.31705208366,
      "d": 199.6526979166665,
      "v": 45
    },
    {
      "midi": 77,
      "hit": false,
      "t": 75598.92809375002,
      "d": 199.6526979166665,
      "v": 108
    },
    {
      "midi": 54,
      "hit": false,
      "t": 75633.65030208365,
      "d": 199.6526979166665,
      "v": 9
    },
    {
      "midi": 79,
      "hit": false,
      "t": 75824.62244791668,
      "d": 199.6526979166665,
      "v": 127
    },
    {
      "midi": 54,
      "hit": false,
      "t": 75841.98355208365,
      "d": 199.6526979166665,
      "v": 109
    },
    {
      "midi": 77,
      "hit": false,
      "t": 76024.27514583335,
      "d": 581.5969895833405,
      "v": 119
    },
    {
      "midi": 54,
      "hit": false,
      "t": 76050.31680208365,
      "d": 199.6526979166665,
      "v": 24
    },
    {
      "midi": 54,
      "hit": false,
      "t": 76258.65005208364,
      "d": 199.6526979166665,
      "v": 43
    },
    {
      "midi": 54,
      "hit": false,
      "t": 76466.98330208364,
      "d": 199.6526979166665,
      "v": 9
    },
    {
      "midi": 74,
      "hit": false,
      "t": 76640.59434375002,
      "d": 1085.0690104166715,
      "v": 105
    },
    {
      "midi": 54,
      "hit": false,
      "t": 76675.31655208363,
      "d": 199.6526979166665,
      "v": 55
    },
    {
      "midi": 54,
      "hit": false,
      "t": 76883.64980208363,
      "d": 199.6526979166665,
      "v": 19
    },
    {
      "midi": 54,
      "hit": false,
      "t": 77091.98305208363,
      "d": 199.6526979166665,
      "v": 48
    },
    {
      "midi": 54,
      "hit": false,
      "t": 77300.31630208362,
      "d": 199.6526979166665,
      "v": 10
    },
    {
      "midi": 54,
      "hit": false,
      "t": 77508.64955208362,
      "d": 199.6526979166665,
      "v": 114
    },
    {
      "midi": 54,
      "hit": false,
      "t": 77716.98280208361,
      "d": 199.6526979166665,
      "v": 22
    },
    {
      "midi": 75,
      "hit": false,
      "t": 77881.9132916667,
      "d": 147.56938541666023,
      "v": 127
    },
    {
      "midi": 54,
      "hit": false,
      "t": 77925.31605208361,
      "d": 199.6526979166665,
      "v": 64
    },
    {
      "midi": 54,
      "hit": false,
      "t": 78133.6493020836,
      "d": 199.6526979166665,
      "v": 9
    },
    {
      "midi": 75,
      "hit": false,
      "t": 78333.30200000003,
      "d": 434.02760416668025,
      "v": 127
    },
    {
      "midi": 54,
      "hit": false,
      "t": 78341.9825520836,
      "d": 199.6526979166665,
      "v": 55
    },
    {
      "midi": 54,
      "hit": false,
      "t": 78550.3158020836,
      "d": 199.6526979166665,
      "v": 20
    },
    {
      "midi": 74,
      "hit": false,
      "t": 78749.96850000003,
      "d": 798.6107916666806,
      "v": 127
    },
    {
      "midi": 54,
      "hit": false,
      "t": 78758.6490520836,
      "d": 199.6526979166665,
      "v": 48
    },
    {
      "midi": 54,
      "hit": false,
      "t": 78966.98230208359,
      "d": 199.6526979166665,
      "v": 10
    },
    {
      "midi": 54,
      "hit": false,
      "t": 79175.31555208359,
      "d": 199.6526979166665,
      "v": 109
    },
    {
      "midi": 54,
      "hit": false,
      "t": 79383.64880208358,
      "d": 199.6526979166665,
      "v": 18
    },
    {
      "midi": 72,
      "hit": false,
      "t": 79565.94039583339,
      "d": 2621.526729166668,
      "v": 127
    },
    {
      "midi": 54,
      "hit": false,
      "t": 79591.98205208358,
      "d": 199.6526979166665,
      "v": 44
    },
    {
      "midi": 54,
      "hit": false,
      "t": 79800.31530208357,
      "d": 199.6526979166665,
      "v": 17
    },
    {
      "midi": 54,
      "hit": false,
      "t": 80008.64855208357,
      "d": 199.6526979166665,
      "v": 52
    },
    {
      "midi": 54,
      "hit": false,
      "t": 80216.98180208357,
      "d": 199.6526979166665,
      "v": 20
    },
    {
      "midi": 54,
      "hit": false,
      "t": 80425.31505208356,
      "d": 199.6526979166665,
      "v": 46
    },
    {
      "midi": 54,
      "hit": false,
      "t": 80633.64830208356,
      "d": 199.6526979166665,
      "v": 17
    },
    {
      "midi": 54,
      "hit": false,
      "t": 80841.98155208355,
      "d": 199.6526979166665,
      "v": 109
    },
    {
      "midi": 54,
      "hit": false,
      "t": 81050.31480208355,
      "d": 199.6526979166665,
      "v": 21
    },
    {
      "midi": 54,
      "hit": false,
      "t": 81258.64805208355,
      "d": 199.6526979166665,
      "v": 68
    },
    {
      "midi": 54,
      "hit": false,
      "t": 81466.98130208354,
      "d": 199.6526979166665,
      "v": 14
    },
    {
      "midi": 54,
      "hit": false,
      "t": 81675.31455208354,
      "d": 34.722208333332674,
      "v": 55
    },
    {
      "midi": 54,
      "hit": false,
      "t": 81883.64780208353,
      "d": 199.6526979166665,
      "v": 18
    },
    {
      "midi": 54,
      "hit": false,
      "t": 82091.98105208353,
      "d": 199.6526979166665,
      "v": 41
    },
    {
      "midi": 72,
      "hit": false,
      "t": 82300.31430208338,
      "d": 305.9894609375042,
      "v": 119
    },
    {
      "midi": 54,
      "hit": false,
      "t": 82300.31430208353,
      "d": 199.6526979166665,
      "v": 13
    },
    {
      "midi": 54,
      "hit": false,
      "t": 82508.64755208352,
      "d": 199.6526979166665,
      "v": 115
    },
    {
      "midi": 79,
      "hit": false,
      "t": 82560.73086458338,
      "d": 338.5415312499972,
      "v": 127
    },
    {
      "midi": 54,
      "hit": false,
      "t": 82716.98080208352,
      "d": 199.6526979166665,
      "v": 23
    },
    {
      "midi": 81,
      "hit": false,
      "t": 82907.95294791671,
      "d": 399.305395833333,
      "v": 127
    },
    {
      "midi": 54,
      "hit": false,
      "t": 82925.31405208351,
      "d": 199.6526979166665,
      "v": 42
    },
    {
      "midi": 54,
      "hit": false,
      "t": 83133.64730208351,
      "d": 199.6526979166665,
      "v": 10
    },
    {
      "midi": 82,
      "hit": false,
      "t": 83307.25834375004,
      "d": 5399.30339583334,
      "v": 127
    },
    {
      "midi": 54,
      "hit": false,
      "t": 83341.9805520835,
      "d": 199.6526979166665,
      "v": 55
    },
    {
      "midi": 54,
      "hit": false,
      "t": 83550.3138020835,
      "d": 199.6526979166665,
      "v": 23
    },
    {
      "midi": 54,
      "hit": false,
      "t": 83758.6470520835,
      "d": 199.6526979166665,
      "v": 46
    },
    {
      "midi": 54,
      "hit": false,
      "t": 83966.9803020835,
      "d": 199.6526979166665,
      "v": 12
    },
    {
      "midi": 54,
      "hit": false,
      "t": 84175.31355208349,
      "d": 199.6526979166665,
      "v": 111
    },
    {
      "midi": 54,
      "hit": false,
      "t": 84383.64680208349,
      "d": 199.6526979166665,
      "v": 20
    },
    {
      "midi": 54,
      "hit": false,
      "t": 84591.98005208348,
      "d": 199.6526979166665,
      "v": 68
    },
    {
      "midi": 54,
      "hit": false,
      "t": 84800.31330208348,
      "d": 199.6526979166665,
      "v": 14
    },
    {
      "midi": 54,
      "hit": false,
      "t": 85008.64655208348,
      "d": 199.6526979166665,
      "v": 56
    },
    {
      "midi": 54,
      "hit": false,
      "t": 85216.97980208347,
      "d": 199.6526979166665,
      "v": 22
    },
    {
      "midi": 54,
      "hit": false,
      "t": 85425.31305208347,
      "d": 199.6526979166665,
      "v": 49
    },
    {
      "midi": 54,
      "hit": false,
      "t": 85633.64630208346,
      "d": 199.6526979166665,
      "v": 10
    },
    {
      "midi": 54,
      "hit": false,
      "t": 85841.97955208346,
      "d": 199.6526979166665,
      "v": 116
    },
    {
      "midi": 54,
      "hit": false,
      "t": 86050.31280208346,
      "d": 199.6526979166665,
      "v": 24
    },
    {
      "midi": 54,
      "hit": false,
      "t": 86258.64605208345,
      "d": 199.6526979166665,
      "v": 40
    },
    {
      "midi": 54,
      "hit": false,
      "t": 86466.97930208345,
      "d": 199.6526979166665,
      "v": 11
    },
    {
      "midi": 54,
      "hit": false,
      "t": 86675.31255208344,
      "d": 199.6526979166665,
      "v": 56
    },
    {
      "midi": 54,
      "hit": false,
      "t": 86883.64580208344,
      "d": 199.6526979166665,
      "v": 20
    },
    {
      "midi": 54,
      "hit": false,
      "t": 87091.97905208344,
      "d": 199.6526979166665,
      "v": 48
    },
    {
      "midi": 54,
      "hit": false,
      "t": 87300.31230208343,
      "d": 199.6526979166665,
      "v": 14
    },
    {
      "midi": 54,
      "hit": false,
      "t": 87508.64555208343,
      "d": 199.6526979166665,
      "v": 109
    },
    {
      "midi": 54,
      "hit": false,
      "t": 87716.97880208342,
      "d": 199.6526979166665,
      "v": 16
    },
    {
      "midi": 54,
      "hit": false,
      "t": 87925.31205208342,
      "d": 199.6526979166665,
      "v": 67
    },
    {
      "midi": 54,
      "hit": false,
      "t": 88133.64530208342,
      "d": 199.6526979166665,
      "v": 15
    },
    {
      "midi": 54,
      "hit": false,
      "t": 88341.97855208341,
      "d": 199.6526979166665,
      "v": 53
    },
    {
      "midi": 54,
      "hit": false,
      "t": 88550.31180208341,
      "d": 199.6526979166665,
      "v": 16
    },
    {
      "midi": 77,
      "hit": false,
      "t": 88732.60339583339,
      "d": 182.2915937499929,
      "v": 119
    },
    {
      "midi": 54,
      "hit": false,
      "t": 88758.6450520834,
      "d": 199.6526979166665,
      "v": 45
    },
    {
      "midi": 79,
      "hit": false,
      "t": 88932.25609375005,
      "d": 407.98594791666255,
      "v": 112
    },
    {
      "midi": 54,
      "hit": false,
      "t": 88966.9783020834,
      "d": 199.6526979166665,
      "v": 9
    },
    {
      "midi": 54,
      "hit": false,
      "t": 89175.3115520834,
      "d": 199.6526979166665,
      "v": 109
    },
    {
      "midi": 77,
      "hit": false,
      "t": 89340.24204166672,
      "d": 451.3887083333393,
      "v": 112
    },
    {
      "midi": 54,
      "hit": false,
      "t": 89383.64480208339,
      "d": 199.6526979166665,
      "v": 24
    },
    {
      "midi": 54,
      "hit": false,
      "t": 89591.97805208339,
      "d": 199.6526979166665,
      "v": 43
    },
    {
      "midi": 74,
      "hit": false,
      "t": 89756.90854166672,
      "d": 130.20828125000116,
      "v": 73
    },
    {
      "midi": 54,
      "hit": false,
      "t": 89800.31130208338,
      "d": 199.6526979166665,
      "v": 9
    },
    {
      "midi": 74,
      "hit": false,
      "t": 89982.60289583339,
      "d": 1657.985447916668,
      "v": 127
    },
    {
      "midi": 54,
      "hit": false,
      "t": 90008.64455208338,
      "d": 199.6526979166665,
      "v": 55
    },
    {
      "midi": 54,
      "hit": false,
      "t": 90216.97780208338,
      "d": 199.6526979166665,
      "v": 19
    },
    {
      "midi": 54,
      "hit": false,
      "t": 90425.31105208337,
      "d": 199.6526979166665,
      "v": 48
    },
    {
      "midi": 54,
      "hit": false,
      "t": 90633.64430208337,
      "d": 199.6526979166665,
      "v": 10
    },
    {
      "midi": 54,
      "hit": false,
      "t": 90841.97755208336,
      "d": 199.6526979166665,
      "v": 114
    },
    {
      "midi": 54,
      "hit": false,
      "t": 91050.31080208336,
      "d": 199.6526979166665,
      "v": 22
    },
    {
      "midi": 54,
      "hit": false,
      "t": 91258.64405208336,
      "d": 199.6526979166665,
      "v": 64
    },
    {
      "midi": 54,
      "hit": false,
      "t": 91466.97730208335,
      "d": 199.6526979166665,
      "v": 9
    },
    {
      "midi": 75,
      "hit": false,
      "t": 91657.94944791673,
      "d": 477.4303645833279,
      "v": 127
    },
    {
      "midi": 54,
      "hit": false,
      "t": 91675.31055208335,
      "d": 199.6526979166665,
      "v": 55
    },
    {
      "midi": 54,
      "hit": false,
      "t": 91883.64380208334,
      "d": 199.6526979166665,
      "v": 20
    },
    {
      "midi": 54,
      "hit": false,
      "t": 92091.97705208334,
      "d": 199.6526979166665,
      "v": 48
    },
    {
      "midi": 74,
      "hit": false,
      "t": 92091.9770520834,
      "d": 815.9718958333251,
      "v": 127
    },
    {
      "midi": 54,
      "hit": false,
      "t": 92300.31030208334,
      "d": 199.6526979166665,
      "v": 10
    },
    {
      "midi": 54,
      "hit": false,
      "t": 92508.64355208333,
      "d": 199.6526979166665,
      "v": 109
    },
    {
      "midi": 54,
      "hit": false,
      "t": 92716.97680208333,
      "d": 199.6526979166665,
      "v": 18
    },
    {
      "midi": 72,
      "hit": false,
      "t": 92907.94894791672,
      "d": 277.7776666666614,
      "v": 94
    },
    {
      "midi": 54,
      "hit": false,
      "t": 92925.31005208332,
      "d": 199.6526979166665,
      "v": 44
    },
    {
      "midi": 54,
      "hit": false,
      "t": 93133.64330208332,
      "d": 199.6526979166665,
      "v": 17
    },
    {
      "midi": 72,
      "hit": false,
      "t": 93333.29600000005,
      "d": 2465.2767916666635,
      "v": 115
    },
    {
      "midi": 54,
      "hit": false,
      "t": 93341.97655208332,
      "d": 199.6526979166665,
      "v": 52
    },
    {
      "midi": 54,
      "hit": false,
      "t": 93550.30980208331,
      "d": 199.6526979166665,
      "v": 20
    },
    {
      "midi": 54,
      "hit": false,
      "t": 93758.64305208331,
      "d": 199.6526979166665,
      "v": 46
    },
    {
      "midi": 54,
      "hit": false,
      "t": 93966.9763020833,
      "d": 199.6526979166665,
      "v": 17
    },
    {
      "midi": 54,
      "hit": false,
      "t": 94175.3095520833,
      "d": 199.6526979166665,
      "v": 109
    },
    {
      "midi": 54,
      "hit": false,
      "t": 94383.6428020833,
      "d": 199.6526979166665,
      "v": 21
    },
    {
      "midi": 54,
      "hit": false,
      "t": 94591.9760520833,
      "d": 199.6526979166665,
      "v": 68
    },
    {
      "midi": 54,
      "hit": false,
      "t": 94800.30930208329,
      "d": 60.76386458333582,
      "v": 14
    },
    {
      "midi": 82,
      "hit": false,
      "t": 94999.96199999996,
      "d": 8.68055208332953,
      "v": 70
    },
    {
      "midi": 54,
      "hit": false,
      "t": 95416.62849999995,
      "d": 17.361104166673613,
      "v": 22
    },
    {
      "midi": 70,
      "hit": false,
      "t": 95416.62849999995,
      "d": 26.041656250003143,
      "v": 59
    },
    {
      "midi": 70,
      "hit": false,
      "t": 95624.96174999994,
      "d": 26.041656250003143,
      "v": 26
    },
    {
      "midi": 82,
      "hit": false,
      "t": 95833.29499999994,
      "d": 8.68055208332953,
      "v": 70
    },
    {
      "midi": 54,
      "hit": false,
      "t": 95833.29499999994,
      "d": 17.36110416665906,
      "v": 103
    },
    {
      "midi": 82,
      "hit": false,
      "t": 96232.60039583337,
      "d": 208.33324999999604,
      "v": 127
    },
    {
      "midi": 70,
      "hit": false,
      "t": 96249.96149999993,
      "d": 26.041656250003143,
      "v": 59
    },
    {
      "midi": 70,
      "hit": false,
      "t": 96458.29474999993,
      "d": 26.041656250003143,
      "v": 26
    },
    {
      "midi": 82,
      "hit": false,
      "t": 96631.90579166671,
      "d": 355.9026354166708,
      "v": 127
    },
    {
      "midi": 82,
      "hit": false,
      "t": 96666.62799999992,
      "d": 8.68055208332953,
      "v": 70
    },
    {
      "midi": 70,
      "hit": false,
      "t": 97083.29449999992,
      "d": 26.041656250003143,
      "v": 59
    },
    {
      "midi": 81,
      "hit": false,
      "t": 97083.29450000005,
      "d": 69.44441666666535,
      "v": 79
    },
    {
      "midi": 81,
      "hit": false,
      "t": 97282.94719791671,
      "d": 512.1525729166606,
      "v": 119
    },
    {
      "midi": 82,
      "hit": false,
      "t": 97499.96099999992,
      "d": 8.68055208332953,
      "v": 70
    },
    {
      "midi": 79,
      "hit": false,
      "t": 97899.26639583337,
      "d": 69.44441666666535,
      "v": 86
    },
    {
      "midi": 70,
      "hit": false,
      "t": 97916.62749999992,
      "d": 26.041656250003143,
      "v": 59
    },
    {
      "midi": 79,
      "hit": false,
      "t": 98090.23854166671,
      "d": 503.47202083333104,
      "v": 127
    },
    {
      "midi": 70,
      "hit": false,
      "t": 98124.96074999991,
      "d": 26.041656250003143,
      "v": 26
    },
    {
      "midi": 82,
      "hit": false,
      "t": 98333.2939999999,
      "d": 8.68055208332953,
      "v": 70
    },
    {
      "midi": 77,
      "hit": false,
      "t": 98697.87718750004,
      "d": 52.083312500006286,
      "v": 84
    },
    {
      "midi": 70,
      "hit": false,
      "t": 98749.9604999999,
      "d": 26.041656250003143,
      "v": 59
    },
    {
      "midi": 77,
      "hit": false,
      "t": 98923.57154166671,
      "d": 859.3746562500019,
      "v": 127
    },
    {
      "midi": 82,
      "hit": false,
      "t": 99166.6269999999,
      "d": 8.68055208332953,
      "v": 70
    },
    {
      "midi": 54,
      "hit": false,
      "t": 99166.6269999999,
      "d": 17.36110416665906,
      "v": 103
    },
    {
      "midi": 70,
      "hit": false,
      "t": 99583.2934999999,
      "d": 26.041656250003143,
      "v": 59
    },
    {
      "midi": 70,
      "hit": false,
      "t": 99791.6267499999,
      "d": 26.041656250003143,
      "v": 26
    },
    {
      "midi": 74,
      "hit": false,
      "t": 99791.62675000004,
      "d": 147.56938541666023,
      "v": 53
    },
    {
      "midi": 77,
      "hit": false,
      "t": 99991.2794479167,
      "d": 208.3332500000106,
      "v": 102
    },
    {
      "midi": 82,
      "hit": false,
      "t": 99999.95999999989,
      "d": 8.68055208332953,
      "v": 70
    },
    {
      "midi": 74,
      "hit": false,
      "t": 100182.25159375004,
      "d": 538.1942291666783,
      "v": 97
    },
    {
      "midi": 70,
      "hit": false,
      "t": 100416.62649999988,
      "d": 26.041656250003143,
      "v": 59
    },
    {
      "midi": 72,
      "hit": false,
      "t": 100772.52913541673,
      "d": 130.20828125000116,
      "v": 127
    },
    {
      "midi": 82,
      "hit": false,
      "t": 100833.29299999989,
      "d": 8.68055208332953,
      "v": 70
    },
    {
      "midi": 74,
      "hit": false,
      "t": 100859.33465625007,
      "d": 364.58318750000035,
      "v": 88
    },
    {
      "midi": 70,
      "hit": false,
      "t": 101249.95949999988,
      "d": 26.041656250003143,
      "v": 59
    },
    {
      "midi": 77,
      "hit": false,
      "t": 101249.95950000007,
      "d": 347.22208333332674,
      "v": 127
    },
    {
      "midi": 70,
      "hit": false,
      "t": 101458.29274999988,
      "d": 26.041656250003143,
      "v": 26
    },
    {
      "midi": 72,
      "hit": false,
      "t": 101605.86213541673,
      "d": 60.76386458333582,
      "v": 105
    },
    {
      "midi": 74,
      "hit": false,
      "t": 101657.94544791673,
      "d": 182.29159375000745,
      "v": 77
    },
    {
      "midi": 82,
      "hit": false,
      "t": 101666.62599999987,
      "d": 8.68055208332953,
      "v": 70
    },
    {
      "midi": 72,
      "hit": false,
      "t": 101822.87593750007,
      "d": 329.8609791666677,
      "v": 88
    },
    {
      "midi": 70,
      "hit": false,
      "t": 102074.61194791674,
      "d": 381.9442916666594,
      "v": 90
    },
    {
      "midi": 70,
      "hit": false,
      "t": 102083.29249999986,
      "d": 26.041656250003143,
      "v": 59
    },
    {
      "midi": 69,
      "hit": false,
      "t": 102465.23679166673,
      "d": 616.3191979166731,
      "v": 99
    },
    {
      "midi": 82,
      "hit": false,
      "t": 102499.95899999987,
      "d": 8.68055208332953,
      "v": 70
    },
    {
      "midi": 54,
      "hit": false,
      "t": 102499.95899999987,
      "d": 17.36110416665906,
      "v": 103
    },
    {
      "midi": 70,
      "hit": false,
      "t": 102916.62549999986,
      "d": 26.041656250003143,
      "v": 59
    },
    {
      "midi": 70,
      "hit": false,
      "t": 103124.95874999986,
      "d": 26.041656250003143,
      "v": 26
    },
    {
      "midi": 82,
      "hit": false,
      "t": 103307.25034375007,
      "d": 390.6248437500035,
      "v": 127
    },
    {
      "midi": 82,
      "hit": false,
      "t": 103333.29199999986,
      "d": 8.68055208332953,
      "v": 70
    },
    {
      "midi": 81,
      "hit": false,
      "t": 103741.27794791674,
      "d": 78.12496874999488,
      "v": 75
    },
    {
      "midi": 70,
      "hit": false,
      "t": 103749.95849999985,
      "d": 26.041656250003143,
      "v": 59
    },
    {
      "midi": 81,
      "hit": false,
      "t": 103949.61119791673,
      "d": 546.8747812499932,
      "v": 127
    },
    {
      "midi": 82,
      "hit": false,
      "t": 104166.62499999985,
      "d": 8.68055208332953,
      "v": 70
    },
    {
      "midi": 70,
      "hit": false,
      "t": 104583.29149999985,
      "d": 26.041656250003143,
      "v": 59
    },
    {
      "midi": 79,
      "hit": false,
      "t": 104583.29150000006,
      "d": 69.44441666666535,
      "v": 84
    },
    {
      "midi": 70,
      "hit": false,
      "t": 104791.62474999984,
      "d": 26.041656250003143,
      "v": 26
    },
    {
      "midi": 79,
      "hit": false,
      "t": 104791.62475000006,
      "d": 529.5136770833342,
      "v": 108
    },
    {
      "midi": 82,
      "hit": false,
      "t": 104999.95799999984,
      "d": 8.68055208332953,
      "v": 70
    },
    {
      "midi": 70,
      "hit": false,
      "t": 105416.62449999983,
      "d": 26.041656250003143,
      "v": 59
    },
    {
      "midi": 77,
      "hit": false,
      "t": 105416.62450000006,
      "d": 199.6526979166665,
      "v": 70
    },
    {
      "midi": 77,
      "hit": false,
      "t": 105815.9298958334,
      "d": 642.3608541666617,
      "v": 124
    },
    {
      "midi": 82,
      "hit": false,
      "t": 105833.29099999984,
      "d": 8.68055208332953,
      "v": 70
    },
    {
      "midi": 54,
      "hit": false,
      "t": 105833.29099999984,
      "d": 17.36110416665906,
      "v": 103
    },
    {
      "midi": 70,
      "hit": false,
      "t": 106249.95749999983,
      "d": 26.041656250003143,
      "v": 59
    },
    {
      "midi": 70,
      "hit": false,
      "t": 106458.29074999983,
      "d": 26.041656250003143,
      "v": 26
    },
    {
      "midi": 74,
      "hit": false,
      "t": 106475.65185416673,
      "d": 147.56938541666023,
      "v": 46
    },
    {
      "midi": 77,
      "hit": false,
      "t": 106657.94344791672,
      "d": 399.305395833333,
      "v": 112
    },
    {
      "midi": 82,
      "hit": false,
      "t": 106666.62399999982,
      "d": 8.68055208332953,
      "v": 70
    },
    {
      "midi": 70,
      "hit": false,
      "t": 107083.29049999981,
      "d": 26.041656250003143,
      "v": 59
    },
    {
      "midi": 74,
      "hit": false,
      "t": 107091.97105208339,
      "d": 112.84717708332755,
      "v": 33
    },
    {
      "midi": 74,
      "hit": false,
      "t": 107308.98485416672,
      "d": 1501.7355104166636,
      "v": 86
    },
    {
      "midi": 82,
      "hit": false,
      "t": 107499.95699999982,
      "d": 8.68055208332953,
      "v": 70
    },
    {
      "midi": 70,
      "hit": false,
      "t": 107916.62349999981,
      "d": 26.041656250003143,
      "v": 59
    },
    {
      "midi": 70,
      "hit": false,
      "t": 108124.95674999981,
      "d": 26.041656250003143,
      "v": 26
    },
    {
      "midi": 82,
      "hit": false,
      "t": 108333.2899999998,
      "d": 8.68055208332953,
      "v": 70
    },
    {
      "midi": 70,
      "hit": false,
      "t": 108749.9564999998,
      "d": 26.041656250003143,
      "v": 59
    },
    {
      "midi": 74,
      "hit": false,
      "t": 109105.85913541671,
      "d": 225.69435416666965,
      "v": 127
    },
    {
      "midi": 82,
      "hit": false,
      "t": 109166.6229999998,
      "d": 8.68055208332953,
      "v": 70
    },
    {
      "midi": 54,
      "hit": false,
      "t": 109166.6229999998,
      "d": 17.36110416665906,
      "v": 103
    },
    {
      "midi": 75,
      "hit": false,
      "t": 109340.23404166671,
      "d": 225.69435416666965,
      "v": 99
    },
    {
      "midi": 77,
      "hit": false,
      "t": 109574.60894791671,
      "d": 303.81932291666453,
      "v": 127
    },
    {
      "midi": 70,
      "hit": false,
      "t": 109583.2894999998,
      "d": 26.041656250003143,
      "v": 59
    },
    {
      "midi": 70,
      "hit": false,
      "t": 109791.62274999979,
      "d": 26.041656250003143,
      "v": 26
    },
    {
      "midi": 82,
      "hit": false,
      "t": 109999.95599999979,
      "d": 8.68055208332953,
      "v": 70
    },
    {
      "midi": 77,
      "hit": false,
      "t": 109999.95600000005,
      "d": 390.6248437500035,
      "v": 127
    },
    {
      "midi": 70,
      "hit": false,
      "t": 110416.62249999978,
      "d": 26.041656250003143,
      "v": 59
    },
    {
      "midi": 75,
      "hit": false,
      "t": 110425.30305208339,
      "d": 86.80552083333896,
      "v": 83
    },
    {
      "midi": 75,
      "hit": false,
      "t": 110633.6363020834,
      "d": 598.9580937499995,
      "v": 108
    },
    {
      "midi": 82,
      "hit": false,
      "t": 110833.28899999979,
      "d": 8.68055208332953,
      "v": 70
    },
    {
      "midi": 70,
      "hit": false,
      "t": 111249.95549999978,
      "d": 26.041656250003143,
      "v": 59
    },
    {
      "midi": 77,
      "hit": false,
      "t": 111249.95550000007,
      "d": 173.61104166666337,
      "v": 102
    },
    {
      "midi": 70,
      "hit": false,
      "t": 111458.28874999977,
      "d": 26.041656250003143,
      "v": 26
    },
    {
      "midi": 79,
      "hit": false,
      "t": 111458.28875000007,
      "d": 529.5136770833342,
      "v": 127
    },
    {
      "midi": 82,
      "hit": false,
      "t": 111666.62199999977,
      "d": 8.68055208332953,
      "v": 70
    },
    {
      "midi": 70,
      "hit": false,
      "t": 112083.28849999976,
      "d": 26.041656250003143,
      "v": 59
    },
    {
      "midi": 77,
      "hit": false,
      "t": 112083.28850000007,
      "d": 251.7360104166728,
      "v": 119
    },
    {
      "midi": 77,
      "hit": false,
      "t": 112491.27444791674,
      "d": 373.2637395833299,
      "v": 127
    },
    {
      "midi": 82,
      "hit": false,
      "t": 112499.95499999977,
      "d": 8.68055208332953,
      "v": 70
    },
    {
      "midi": 54,
      "hit": false,
      "t": 112499.95499999977,
      "d": 17.36110416665906,
      "v": 103
    },
    {
      "midi": 70,
      "hit": false,
      "t": 112916.62149999976,
      "d": 26.041656250003143,
      "v": 59
    },
    {
      "midi": 74,
      "hit": false,
      "t": 112916.62150000008,
      "d": 338.5415312499972,
      "v": 102
    },
    {
      "midi": 70,
      "hit": false,
      "t": 113124.95474999976,
      "d": 26.041656250003143,
      "v": 26
    },
    {
      "midi": 72,
      "hit": false,
      "t": 113324.60744791674,
      "d": 347.22208333332674,
      "v": 127
    },
    {
      "midi": 82,
      "hit": false,
      "t": 113333.28799999975,
      "d": 8.68055208332953,
      "v": 70
    },
    {
      "midi": 70,
      "hit": false,
      "t": 113741.27394791674,
      "d": 104.16662499999802,
      "v": 90
    },
    {
      "midi": 70,
      "hit": false,
      "t": 113749.95449999975,
      "d": 26.041656250003143,
      "v": 59
    },
    {
      "midi": 70,
      "hit": false,
      "t": 113949.60719791673,
      "d": 1857.6381458333344,
      "v": 108
    },
    {
      "midi": 82,
      "hit": false,
      "t": 114166.62099999975,
      "d": 8.68055208332953,
      "v": 70
    },
    {
      "midi": 70,
      "hit": false,
      "t": 114583.28749999974,
      "d": 26.041656250003143,
      "v": 59
    },
    {
      "midi": 70,
      "hit": false,
      "t": 114791.62074999974,
      "d": 26.041656250003143,
      "v": 26
    },
    {
      "midi": 82,
      "hit": false,
      "t": 114999.95399999974,
      "d": 8.68055208332953,
      "v": 70
    },
    {
      "midi": 70,
      "hit": false,
      "t": 115416.62049999973,
      "d": 26.041656250003143,
      "v": 59
    },
    {
      "midi": 82,
      "hit": false,
      "t": 115833.28699999973,
      "d": 8.68055208332953,
      "v": 70
    },
    {
      "midi": 54,
      "hit": false,
      "t": 115833.28699999973,
      "d": 17.36110416665906,
      "v": 103
    },
    {
      "midi": 70,
      "hit": false,
      "t": 116067.66190625007,
      "d": 182.2915937499929,
      "v": 127
    },
    {
      "midi": 70,
      "hit": false,
      "t": 116249.95349999973,
      "d": 26.041656250003143,
      "v": 59
    },
    {
      "midi": 72,
      "hit": false,
      "t": 116267.31460416674,
      "d": 173.61104166666337,
      "v": 112
    },
    {
      "midi": 70,
      "hit": false,
      "t": 116458.28674999972,
      "d": 26.041656250003143,
      "v": 26
    },
    {
      "midi": 74,
      "hit": false,
      "t": 116458.28675000007,
      "d": 104.16662499999802,
      "v": 108
    },
    {
      "midi": 74,
      "hit": false,
      "t": 116657.93944791674,
      "d": 390.6248437500035,
      "v": 124
    },
    {
      "midi": 82,
      "hit": false,
      "t": 116666.61999999972,
      "d": 8.68055208332953,
      "v": 70
    },
    {
      "midi": 70,
      "hit": false,
      "t": 117083.28649999971,
      "d": 26.041656250003143,
      "v": 59
    },
    {
      "midi": 72,
      "hit": false,
      "t": 117091.9670520834,
      "d": 95.48607291666849,
      "v": 105
    },
    {
      "midi": 72,
      "hit": false,
      "t": 117291.61975000007,
      "d": 642.3608541666617,
      "v": 124
    },
    {
      "midi": 82,
      "hit": false,
      "t": 117499.95299999972,
      "d": 8.68055208332953,
      "v": 70
    },
    {
      "midi": 70,
      "hit": false,
      "t": 117916.61949999971,
      "d": 26.041656250003143,
      "v": 59
    },
    {
      "midi": 75,
      "hit": false,
      "t": 117933.98060416673,
      "d": 225.69435416666965,
      "v": 119
    },
    {
      "midi": 70,
      "hit": false,
      "t": 118124.9527499997,
      "d": 26.041656250003143,
      "v": 26
    },
    {
      "midi": 75,
      "hit": false,
      "t": 118307.24434375006,
      "d": 381.94429166667396,
      "v": 127
    },
    {
      "midi": 82,
      "hit": false,
      "t": 118333.2859999997,
      "d": 8.68055208332953,
      "v": 70
    },
    {
      "midi": 77,
      "hit": false,
      "t": 118732.5913958334,
      "d": 329.8609791666677,
      "v": 119
    },
    {
      "midi": 70,
      "hit": false,
      "t": 118749.9524999997,
      "d": 26.041656250003143,
      "v": 59
    },
    {
      "midi": 79,
      "hit": false,
      "t": 119140.57734375006,
      "d": 373.2637395833299,
      "v": 124
    },
    {
      "midi": 82,
      "hit": false,
      "t": 119166.6189999997,
      "d": 8.68055208332953,
      "v": 70
    },
    {
      "midi": 54,
      "hit": false,
      "t": 119166.6189999997,
      "d": 17.36110416665906,
      "v": 103
    },
    {
      "midi": 77,
      "hit": false,
      "t": 119574.60494791673,
      "d": 390.6248437500035,
      "v": 124
    },
    {
      "midi": 70,
      "hit": false,
      "t": 119583.28549999969,
      "d": 26.041656250003143,
      "v": 59
    },
    {
      "midi": 70,
      "hit": false,
      "t": 119791.61874999969,
      "d": 26.041656250003143,
      "v": 26
    },
    {
      "midi": 74,
      "hit": false,
      "t": 119982.5908958334,
      "d": 364.58318750000035,
      "v": 115
    },
    {
      "midi": 82,
      "hit": false,
      "t": 119999.95199999968,
      "d": 8.68055208332953,
      "v": 70
    },
    {
      "midi": 72,
      "hit": false,
      "t": 120399.25739583341,
      "d": 95.48607291666849,
      "v": 102
    },
    {
      "midi": 70,
      "hit": false,
      "t": 120416.61849999968,
      "d": 26.041656250003143,
      "v": 59
    },
    {
      "midi": 72,
      "hit": false,
      "t": 120590.22954166675,
      "d": 1484.3744062500045,
      "v": 108
    },
    {
      "midi": 82,
      "hit": false,
      "t": 120833.28499999968,
      "d": 8.68055208332953,
      "v": 70
    },
    {
      "midi": 70,
      "hit": false,
      "t": 121249.95149999968,
      "d": 26.041656250003143,
      "v": 59
    },
    {
      "midi": 70,
      "hit": false,
      "t": 121458.28474999967,
      "d": 26.041656250003143,
      "v": 26
    },
    {
      "midi": 82,
      "hit": false,
      "t": 121666.61799999967,
      "d": 8.68055208332953,
      "v": 70
    },
    {
      "midi": 70,
      "hit": false,
      "t": 122083.28449999966,
      "d": 26.041656250003143,
      "v": 59
    },
    {
      "midi": 72,
      "hit": false,
      "t": 122274.25664583342,
      "d": 199.6526979166665,
      "v": 112
    },
    {
      "midi": 77,
      "hit": false,
      "t": 122482.58989583341,
      "d": 329.8609791666677,
      "v": 112
    },
    {
      "midi": 82,
      "hit": false,
      "t": 122499.95099999967,
      "d": 8.68055208332953,
      "v": 70
    },
    {
      "midi": 54,
      "hit": false,
      "t": 122499.95099999967,
      "d": 17.36110416665906,
      "v": 103
    },
    {
      "midi": 79,
      "hit": false,
      "t": 122890.57584375008,
      "d": 321.18042708333815,
      "v": 112
    },
    {
      "midi": 70,
      "hit": false,
      "t": 122916.61749999966,
      "d": 26.041656250003143,
      "v": 59
    },
    {
      "midi": 70,
      "hit": false,
      "t": 123124.95074999965,
      "d": 26.041656250003143,
      "v": 26
    },
    {
      "midi": 82,
      "hit": false,
      "t": 123315.92289583341,
      "d": 321.18042708333815,
      "v": 124
    },
    {
      "midi": 82,
      "hit": false,
      "t": 123333.28399999965,
      "d": 8.68055208332953,
      "v": 70
    },
    {
      "midi": 82,
      "hit": false,
      "t": 123741.26994791675,
      "d": 303.81932291666453,
      "v": 124
    },
    {
      "midi": 70,
      "hit": false,
      "t": 123749.95049999964,
      "d": 26.041656250003143,
      "v": 59
    },
    {
      "midi": 82,
      "hit": false,
      "t": 124157.93644791674,
      "d": 329.8609791666677,
      "v": 115
    },
    {
      "midi": 82,
      "hit": false,
      "t": 124166.61699999965,
      "d": 8.68055208332953,
      "v": 70
    },
    {
      "midi": 81,
      "hit": false,
      "t": 124574.60294791675,
      "d": 286.45821875000547,
      "v": 119
    },
    {
      "midi": 70,
      "hit": false,
      "t": 124583.28349999964,
      "d": 26.041656250003143,
      "v": 59
    },
    {
      "midi": 70,
      "hit": false,
      "t": 124791.61674999964,
      "d": 26.041656250003143,
      "v": 26
    },
    {
      "midi": 81,
      "hit": false,
      "t": 124991.26944791675,
      "d": 338.5415312499972,
      "v": 127
    },
    {
      "midi": 82,
      "hit": false,
      "t": 124999.94999999963,
      "d": 8.68055208332953,
      "v": 70
    },
    {
      "midi": 70,
      "hit": false,
      "t": 125416.61649999963,
      "d": 26.041656250003143,
      "v": 59
    },
    {
      "midi": 79,
      "hit": false,
      "t": 125425.29705208342,
      "d": 295.138770833335,
      "v": 108
    },
    {
      "midi": 82,
      "hit": false,
      "t": 125833.28299999963,
      "d": 8.68055208332953,
      "v": 70
    },
    {
      "midi": 54,
      "hit": false,
      "t": 125833.28299999963,
      "d": 17.36110416665906,
      "v": 103
    },
    {
      "midi": 79,
      "hit": false,
      "t": 125833.28300000008,
      "d": 312.49987499999406,
      "v": 124
    },
    {
      "midi": 77,
      "hit": false,
      "t": 126241.26894791675,
      "d": 321.18042708333815,
      "v": 119
    },
    {
      "midi": 70,
      "hit": false,
      "t": 126249.94949999962,
      "d": 26.041656250003143,
      "v": 59
    },
    {
      "midi": 70,
      "hit": false,
      "t": 126458.28274999962,
      "d": 26.041656250003143,
      "v": 26
    },
    {
      "midi": 82,
      "hit": false,
      "t": 126666.61599999962,
      "d": 8.68055208332953,
      "v": 70
    },
    {
      "midi": 77,
      "hit": false,
      "t": 126666.61600000008,
      "d": 407.98594791666255,
      "v": 127
    },
    {
      "midi": 74,
      "hit": false,
      "t": 127065.92139583341,
      "d": 121.52772916665708,
      "v": 69
    },
    {
      "midi": 70,
      "hit": false,
      "t": 127083.28249999961,
      "d": 26.041656250003143,
      "v": 59
    },
    {
      "midi": 74,
      "hit": false,
      "t": 127274.25464583341,
      "d": 1510.4160624999931,
      "v": 105
    },
    {
      "midi": 82,
      "hit": false,
      "t": 127499.94899999961,
      "d": 8.68055208332953,
      "v": 70
    },
    {
      "midi": 70,
      "hit": false,
      "t": 127916.6154999996,
      "d": 26.041656250003143,
      "v": 59
    },
    {
      "midi": 70,
      "hit": false,
      "t": 128124.9487499996,
      "d": 26.041656250003143,
      "v": 26
    },
    {
      "midi": 82,
      "hit": false,
      "t": 128333.2819999996,
      "d": 8.68055208332953,
      "v": 70
    },
    {
      "midi": 70,
      "hit": false,
      "t": 128749.94849999959,
      "d": 26.041656250003143,
      "v": 59
    },
    {
      "midi": 74,
      "hit": false,
      "t": 128958.28175000007,
      "d": 190.97214583333698,
      "v": 119
    },
    {
      "midi": 79,
      "hit": false,
      "t": 129157.93444791673,
      "d": 338.5415312499972,
      "v": 127
    },
    {
      "midi": 82,
      "hit": false,
      "t": 129166.6149999996,
      "d": 8.68055208332953,
      "v": 70
    },
    {
      "midi": 54,
      "hit": false,
      "t": 129166.6149999996,
      "d": 17.36110416665906,
      "v": 103
    },
    {
      "midi": 81,
      "hit": false,
      "t": 129557.23984375007,
      "d": 347.22208333332674,
      "v": 127
    },
    {
      "midi": 70,
      "hit": false,
      "t": 129583.28149999959,
      "d": 26.041656250003143,
      "v": 59
    },
    {
      "midi": 70,
      "hit": false,
      "t": 129791.61474999959,
      "d": 26.041656250003143,
      "v": 26
    },
    {
      "midi": 82,
      "hit": false,
      "t": 129982.58689583339,
      "d": 312.49987499999406,
      "v": 119
    },
    {
      "midi": 82,
      "hit": false,
      "t": 129999.94799999958,
      "d": 8.68055208332953,
      "v": 70
    },
    {
      "midi": 70,
      "hit": false,
      "t": 130416.61449999957,
      "d": 26.041656250003143,
      "v": 59
    },
    {
      "midi": 82,
      "hit": false,
      "t": 130416.61450000005,
      "d": 69.44441666666535,
      "v": 105
    },
    {
      "midi": 82,
      "hit": false,
      "t": 130598.90609375005,
      "d": 538.1942291666783,
      "v": 127
    },
    {
      "midi": 82,
      "hit": false,
      "t": 130833.28099999958,
      "d": 8.68055208332953,
      "v": 70
    },
    {
      "midi": 81,
      "hit": false,
      "t": 131223.90584375005,
      "d": 86.80552083332441,
      "v": 86
    },
    {
      "midi": 70,
      "hit": false,
      "t": 131249.94749999957,
      "d": 26.04165624998859,
      "v": 59
    },
    {
      "midi": 81,
      "hit": false,
      "t": 131432.23909375005,
      "d": 78.12496874999488,
      "v": 105
    },
    {
      "midi": 70,
      "hit": false,
      "t": 131458.28074999957,
      "d": 26.04165624998859,
      "v": 26
    },
    {
      "midi": 81,
      "hit": false,
      "t": 131649.25289583337,
      "d": 364.5831874999858,
      "v": 127
    },
    {
      "midi": 82,
      "hit": false,
      "t": 131666.61399999956,
      "d": 8.68055208332953,
      "v": 70
    },
    {
      "midi": 79,
      "hit": false,
      "t": 132074.5999479167,
      "d": 78.12496874999488,
      "v": 84
    },
    {
      "midi": 70,
      "hit": false,
      "t": 132083.28049999956,
      "d": 26.04165624998859,
      "v": 59
    },
    {
      "midi": 79,
      "hit": false,
      "t": 132291.61375000002,
      "d": 520.8331250000047,
      "v": 127
    },
    {
      "midi": 82,
      "hit": false,
      "t": 132499.94699999955,
      "d": 8.68055208332953,
      "v": 70
    },
    {
      "midi": 54,
      "hit": false,
      "t": 132499.94699999955,
      "d": 17.36110416665906,
      "v": 103
    },
    {
      "midi": 77,
      "hit": false,
      "t": 132907.93294791668,
      "d": 303.8193229166791,
      "v": 124
    },
    {
      "midi": 70,
      "hit": false,
      "t": 132916.61349999954,
      "d": 26.04165624998859,
      "v": 59
    },
    {
      "midi": 70,
      "hit": false,
      "t": 133124.94674999954,
      "d": 26.04165624998859,
      "v": 26
    },
    {
      "midi": 77,
      "hit": false,
      "t": 133324.5994479167,
      "d": 407.98594791666255,
      "v": 127
    },
    {
      "midi": 82,
      "hit": false,
      "t": 133333.27999999953,
      "d": 8.68055208332953,
      "v": 70
    },
    {
      "midi": 70,
      "hit": false,
      "t": 133749.94649999953,
      "d": 26.04165624998859,
      "v": 59
    },
    {
      "midi": 74,
      "hit": false,
      "t": 133749.94650000002,
      "d": 104.16662500001257,
      "v": 78
    },
    {
      "midi": 74,
      "hit": false,
      "t": 133949.5991979167,
      "d": 1649.3048958333384,
      "v": 99
    },
    {
      "midi": 82,
      "hit": false,
      "t": 134166.61299999952,
      "d": 8.68055208332953,
      "v": 70
    },
    {
      "midi": 70,
      "hit": false,
      "t": 134583.2794999995,
      "d": 26.04165624998859,
      "v": 59
    },
    {
      "midi": 70,
      "hit": false,
      "t": 134791.6127499995,
      "d": 26.04165624998859,
      "v": 26
    },
    {
      "midi": 82,
      "hit": false,
      "t": 134999.9459999995,
      "d": 8.68055208332953,
      "v": 70
    },
    {
      "midi": 70,
      "hit": false,
      "t": 135416.6124999995,
      "d": 26.04165624998859,
      "v": 59
    },
    {
      "midi": 82,
      "hit": false,
      "t": 135833.2789999995,
      "d": 8.68055208332953,
      "v": 70
    },
    {
      "midi": 54,
      "hit": false,
      "t": 135833.2789999995,
      "d": 17.36110416665906,
      "v": 103
    },
    {
      "midi": 74,
      "hit": false,
      "t": 135833.27900000004,
      "d": 234.37490624998463,
      "v": 127
    },
    {
      "midi": 75,
      "hit": false,
      "t": 136041.61225000003,
      "d": 138.8888333333307,
      "v": 112
    },
    {
      "midi": 70,
      "hit": false,
      "t": 136249.94549999948,
      "d": 26.04165624998859,
      "v": 59
    },
    {
      "midi": 77,
      "hit": false,
      "t": 136249.94550000003,
      "d": 277.7776666666614,
      "v": 127
    },
    {
      "midi": 70,
      "hit": false,
      "t": 136458.27874999947,
      "d": 26.04165624998859,
      "v": 26
    },
    {
      "midi": 82,
      "hit": false,
      "t": 136666.61199999947,
      "d": 8.68055208332953,
      "v": 70
    },
    {
      "midi": 77,
      "hit": false,
      "t": 136666.61200000002,
      "d": 407.98594791666255,
      "v": 127
    },
    {
      "midi": 75,
      "hit": false,
      "t": 137074.59794791669,
      "d": 121.52772916667163,
      "v": 115
    },
    {
      "midi": 70,
      "hit": false,
      "t": 137083.27849999946,
      "d": 26.04165624998859,
      "v": 59
    },
    {
      "midi": 75,
      "hit": false,
      "t": 137282.93119791668,
      "d": 529.5136770833342,
      "v": 112
    },
    {
      "midi": 82,
      "hit": false,
      "t": 137499.94499999945,
      "d": 8.68055208332953,
      "v": 70
    },
    {
      "midi": 77,
      "hit": false,
      "t": 137899.25039583334,
      "d": 355.90263541665627,
      "v": 127
    },
    {
      "midi": 70,
      "hit": false,
      "t": 137916.61149999945,
      "d": 26.04165624998859,
      "v": 59
    },
    {
      "midi": 70,
      "hit": false,
      "t": 138124.94474999944,
      "d": 26.04165624998859,
      "v": 26
    },
    {
      "midi": 79,
      "hit": false,
      "t": 138324.59744791666,
      "d": 329.8609791666677,
      "v": 127
    },
    {
      "midi": 82,
      "hit": false,
      "t": 138333.27799999944,
      "d": 8.68055208332953,
      "v": 70
    },
    {
      "midi": 70,
      "hit": false,
      "t": 138749.94449999943,
      "d": 26.04165624998859,
      "v": 59
    },
    {
      "midi": 77,
      "hit": false,
      "t": 138758.62505208334,
      "d": 78.12496874999488,
      "v": 102
    },
    {
      "midi": 77,
      "hit": false,
      "t": 138940.91664583335,
      "d": 416.6664999999921,
      "v": 127
    },
    {
      "midi": 82,
      "hit": false,
      "t": 139166.61099999942,
      "d": 8.68055208332953,
      "v": 70
    },
    {
      "midi": 54,
      "hit": false,
      "t": 139166.61099999942,
      "d": 17.36110416665906,
      "v": 103
    },
    {
      "midi": 75,
      "hit": false,
      "t": 139383.62480208333,
      "d": 381.94429166667396,
      "v": 119
    },
    {
      "midi": 70,
      "hit": false,
      "t": 139583.2774999994,
      "d": 26.04165624998859,
      "v": 59
    },
    {
      "midi": 74,
      "hit": false,
      "t": 139765.56909375,
      "d": 112.8471770833421,
      "v": 92
    },
    {
      "midi": 70,
      "hit": false,
      "t": 139791.6107499994,
      "d": 26.04165624998859,
      "v": 26
    },
    {
      "midi": 72,
      "hit": false,
      "t": 139904.45792708333,
      "d": 538.1942291666928,
      "v": 102
    },
    {
      "midi": 74,
      "hit": false,
      "t": 139991.26344791666,
      "d": 43.402760416676756,
      "v": 112
    },
    {
      "midi": 82,
      "hit": false,
      "t": 139999.9439999994,
      "d": 8.68055208332953,
      "v": 70
    },
    {
      "midi": 70,
      "hit": false,
      "t": 140407.92994791668,
      "d": 95.48607291668304,
      "v": 62
    },
    {
      "midi": 70,
      "hit": false,
      "t": 140416.6104999994,
      "d": 26.04165624998859,
      "v": 59
    },
    {
      "midi": 70,
      "hit": false,
      "t": 140590.2215416667,
      "d": 1970.4853229166765,
      "v": 99
    },
    {
      "midi": 82,
      "hit": false,
      "t": 140833.2769999994,
      "d": 8.68055208332953,
      "v": 70
    },
    {
      "midi": 70,
      "hit": false,
      "t": 141249.94349999938,
      "d": 26.04165624998859,
      "v": 59
    },
    {
      "midi": 70,
      "hit": false,
      "t": 141458.27674999938,
      "d": 26.04165624998859,
      "v": 26
    },
    {
      "midi": 82,
      "hit": false,
      "t": 141666.60999999937,
      "d": 8.68055208332953,
      "v": 70
    },
    {
      "midi": 70,
      "hit": false,
      "t": 142083.27649999937,
      "d": 26.04165624998859,
      "v": 59
    },
    {
      "midi": 82,
      "hit": false,
      "t": 142499.94299999936,
      "d": 8.68055208332953,
      "v": 70
    },
    {
      "midi": 54,
      "hit": false,
      "t": 142499.94299999936,
      "d": 17.36110416665906,
      "v": 103
    },
    {
      "midi": 70,
      "hit": false,
      "t": 142716.95680208335,
      "d": 225.6943541666842,
      "v": 127
    },
    {
      "midi": 72,
      "hit": false,
      "t": 142907.9289479167,
      "d": 147.56938541668933,
      "v": 105
    },
    {
      "midi": 70,
      "hit": false,
      "t": 142916.60949999935,
      "d": 26.04165624998859,
      "v": 59
    },
    {
      "midi": 74,
      "hit": false,
      "t": 143116.26219791672,
      "d": 69.44441666666535,
      "v": 108
    },
    {
      "midi": 70,
      "hit": false,
      "t": 143124.94274999935,
      "d": 26.04165624998859,
      "v": 26
    },
    {
      "midi": 74,
      "hit": false,
      "t": 143315.91489583338,
      "d": 164.9304895833193,
      "v": 127
    },
    {
      "midi": 82,
      "hit": false,
      "t": 143333.27599999934,
      "d": 8.68055208332953,
      "v": 70
    },
    {
      "midi": 72,
      "hit": false,
      "t": 143506.8870416667,
      "d": 112.8471770833421,
      "v": 127
    },
    {
      "midi": 72,
      "hit": false,
      "t": 143741.2619479167,
      "d": 954.8607291666558,
      "v": 119
    },
    {
      "midi": 70,
      "hit": false,
      "t": 143749.94249999934,
      "d": 26.04165624998859,
      "v": 59
    },
    {
      "midi": 82,
      "hit": false,
      "t": 144166.60899999933,
      "d": 8.68055208332953,
      "v": 70
    },
    {
      "midi": 70,
      "hit": false,
      "t": 144583.27549999932,
      "d": 26.04165624998859,
      "v": 59
    },
    {
      "midi": 70,
      "hit": false,
      "t": 144748.20598958337,
      "d": 138.8888333333307,
      "v": 102
    },
    {
      "midi": 70,
      "hit": false,
      "t": 144791.60874999932,
      "d": 26.04165624998859,
      "v": 26
    },
    {
      "midi": 79,
      "hit": false,
      "t": 144973.90034375002,
      "d": 399.305395833333,
      "v": 127
    },
    {
      "midi": 82,
      "hit": false,
      "t": 144999.9419999993,
      "d": 8.68055208332953,
      "v": 70
    },
    {
      "midi": 77,
      "hit": false,
      "t": 145390.56684375,
      "d": 69.44441666666535,
      "v": 124
    },
    {
      "midi": 70,
      "hit": false,
      "t": 145416.6084999993,
      "d": 26.04165624998859,
      "v": 59
    },
    {
      "midi": 77,
      "hit": false,
      "t": 145590.21954166668,
      "d": 850.6941041666723,
      "v": 127
    },
    {
      "midi": 82,
      "hit": false,
      "t": 145833.2749999993,
      "d": 8.68055208332953,
      "v": 70
    },
    {
      "midi": 54,
      "hit": false,
      "t": 145833.2749999993,
      "d": 17.36110416665906,
      "v": 103
    },
    {
      "midi": 70,
      "hit": false,
      "t": 146249.9414999993,
      "d": 26.04165624998859,
      "v": 59
    },
    {
      "midi": 70,
      "hit": false,
      "t": 146458.27474999928,
      "d": 26.04165624998859,
      "v": 26
    },
    {
      "midi": 74,
      "hit": false,
      "t": 146458.27475,
      "d": 182.29159375000745,
      "v": 99
    },
    {
      "midi": 82,
      "hit": false,
      "t": 146666.60799999928,
      "d": 8.68055208332953,
      "v": 70
    },
    {
      "midi": 72,
      "hit": false,
      "t": 146666.608,
      "d": 1119.7912187500042,
      "v": 127
    },
    {
      "midi": 70,
      "hit": false,
      "t": 147083.27449999927,
      "d": 26.04165624998859,
      "v": 59
    },
    {
      "midi": 82,
      "hit": false,
      "t": 147499.94099999926,
      "d": 8.68055208332953,
      "v": 70
    },
    {
      "midi": 72,
      "hit": false,
      "t": 147907.92694791668,
      "d": 147.56938541666023,
      "v": 73
    },
    {
      "midi": 70,
      "hit": false,
      "t": 147916.60749999926,
      "d": 26.04165624998859,
      "v": 59
    },
    {
      "midi": 70,
      "hit": false,
      "t": 148124.94074999925,
      "d": 26.04165624998859,
      "v": 26
    },
    {
      "midi": 72,
      "hit": false,
      "t": 148315.91289583335,
      "d": 182.29159375000745,
      "v": 115
    },
    {
      "midi": 82,
      "hit": false,
      "t": 148333.27399999925,
      "d": 8.68055208332953,
      "v": 70
    },
    {
      "midi": 72,
      "hit": false,
      "t": 148732.57939583337,
      "d": 399.305395833333,
      "v": 115
    },
    {
      "midi": 54,
      "hit": false,
      "t": 148758.62105208257,
      "d": 199.6526979166665,
      "v": 41
    },
    {
      "midi": 54,
      "hit": false,
      "t": 148966.95430208257,
      "d": 199.6526979166665,
      "v": 13
    },
    {
      "midi": 79,
      "hit": false,
      "t": 149149.24589583336,
      "d": 373.26373958334443,
      "v": 127
    },
    {
      "midi": 54,
      "hit": false,
      "t": 149175.28755208256,
      "d": 199.6526979166665,
      "v": 115
    },
    {
      "midi": 54,
      "hit": false,
      "t": 149383.62080208256,
      "d": 199.6526979166665,
      "v": 23
    },
    {
      "midi": 81,
      "hit": false,
      "t": 149557.23184375005,
      "d": 399.305395833333,
      "v": 127
    },
    {
      "midi": 54,
      "hit": false,
      "t": 149591.95405208255,
      "d": 199.6526979166665,
      "v": 42
    },
    {
      "midi": 54,
      "hit": false,
      "t": 149800.28730208255,
      "d": 199.6526979166665,
      "v": 10
    },
    {
      "midi": 82,
      "hit": false,
      "t": 149982.57889583337,
      "d": 1137.1523229166633,
      "v": 127
    },
    {
      "midi": 54,
      "hit": false,
      "t": 150008.62055208255,
      "d": 199.6526979166665,
      "v": 55
    },
    {
      "midi": 54,
      "hit": false,
      "t": 150216.95380208254,
      "d": 199.6526979166665,
      "v": 23
    },
    {
      "midi": 54,
      "hit": false,
      "t": 150425.28705208254,
      "d": 199.6526979166665,
      "v": 46
    },
    {
      "midi": 54,
      "hit": false,
      "t": 150633.62030208253,
      "d": 199.6526979166665,
      "v": 12
    },
    {
      "midi": 54,
      "hit": false,
      "t": 150841.95355208253,
      "d": 199.6526979166665,
      "v": 111
    },
    {
      "midi": 54,
      "hit": false,
      "t": 151050.28680208253,
      "d": 199.6526979166665,
      "v": 20
    },
    {
      "midi": 82,
      "hit": false,
      "t": 151249.93950000004,
      "d": 1571.1799270833435,
      "v": 127
    },
    {
      "midi": 54,
      "hit": false,
      "t": 151258.62005208252,
      "d": 199.6526979166665,
      "v": 68
    },
    {
      "midi": 54,
      "hit": false,
      "t": 151466.95330208252,
      "d": 199.6526979166665,
      "v": 14
    },
    {
      "midi": 54,
      "hit": false,
      "t": 151675.2865520825,
      "d": 199.6526979166665,
      "v": 56
    },
    {
      "midi": 54,
      "hit": false,
      "t": 151883.6198020825,
      "d": 199.6526979166665,
      "v": 22
    },
    {
      "midi": 54,
      "hit": false,
      "t": 152091.9530520825,
      "d": 199.6526979166665,
      "v": 49
    },
    {
      "midi": 54,
      "hit": false,
      "t": 152300.2863020825,
      "d": 199.6526979166665,
      "v": 10
    },
    {
      "midi": 54,
      "hit": false,
      "t": 152508.6195520825,
      "d": 199.6526979166665,
      "v": 116
    },
    {
      "midi": 54,
      "hit": false,
      "t": 152716.9528020825,
      "d": 199.6526979166665,
      "v": 24
    },
    {
      "midi": 82,
      "hit": false,
      "t": 152916.60550000003,
      "d": 121.52772916667163,
      "v": 55
    },
    {
      "midi": 54,
      "hit": false,
      "t": 152925.2860520825,
      "d": 199.6526979166665,
      "v": 40
    },
    {
      "midi": 82,
      "hit": false,
      "t": 153116.2581979167,
      "d": 86.80552083332441,
      "v": 53
    },
    {
      "midi": 54,
      "hit": false,
      "t": 153133.6193020825,
      "d": 199.6526979166665,
      "v": 11
    },
    {
      "midi": 82,
      "hit": false,
      "t": 153333.27200000003,
      "d": 564.2358854166523,
      "v": 127
    },
    {
      "midi": 54,
      "hit": false,
      "t": 153341.95255208248,
      "d": 199.6526979166665,
      "v": 56
    },
    {
      "midi": 54,
      "hit": false,
      "t": 153550.28580208248,
      "d": 199.6526979166665,
      "v": 20
    },
    {
      "midi": 54,
      "hit": false,
      "t": 153758.61905208247,
      "d": 199.6526979166665,
      "v": 48
    },
    {
      "midi": 54,
      "hit": false,
      "t": 153966.95230208247,
      "d": 199.6526979166665,
      "v": 14
    },
    {
      "midi": 82,
      "hit": false,
      "t": 153984.31340625,
      "d": 590.27754166667,
      "v": 127
    },
    {
      "midi": 54,
      "hit": false,
      "t": 154175.28555208247,
      "d": 199.6526979166665,
      "v": 109
    },
    {
      "midi": 54,
      "hit": false,
      "t": 154383.61880208246,
      "d": 199.6526979166665,
      "v": 16
    },
    {
      "midi": 77,
      "hit": false,
      "t": 154583.2715,
      "d": 685.7636145833239,
      "v": 119
    },
    {
      "midi": 54,
      "hit": false,
      "t": 154591.95205208246,
      "d": 199.6526979166665,
      "v": 67
    },
    {
      "midi": 54,
      "hit": false,
      "t": 154800.28530208246,
      "d": 199.6526979166665,
      "v": 15
    },
    {
      "midi": 54,
      "hit": false,
      "t": 155008.61855208245,
      "d": 199.6526979166665,
      "v": 53
    },
    {
      "midi": 54,
      "hit": false,
      "t": 155216.95180208245,
      "d": 199.6526979166665,
      "v": 16
    },
    {
      "midi": 54,
      "hit": false,
      "t": 155425.28505208244,
      "d": 199.6526979166665,
      "v": 45
    },
    {
      "midi": 77,
      "hit": false,
      "t": 155433.96560416665,
      "d": 381.94429166667396,
      "v": 127
    },
    {
      "midi": 54,
      "hit": false,
      "t": 155633.61830208244,
      "d": 199.6526979166665,
      "v": 9
    },
    {
      "midi": 79,
      "hit": false,
      "t": 155833.27099999998,
      "d": 425.3470520833216,
      "v": 127
    },
    {
      "midi": 54,
      "hit": false,
      "t": 155841.95155208244,
      "d": 199.6526979166665,
      "v": 109
    },
    {
      "midi": 54,
      "hit": false,
      "t": 156050.28480208243,
      "d": 199.6526979166665,
      "v": 24
    },
    {
      "midi": 54,
      "hit": false,
      "t": 156258.61805208243,
      "d": 199.6526979166665,
      "v": 43
    },
    {
      "midi": 77,
      "hit": false,
      "t": 156258.6180520833,
      "d": 407.98594791666255,
      "v": 108
    },
    {
      "midi": 54,
      "hit": false,
      "t": 156466.95130208242,
      "d": 199.6526979166665,
      "v": 9
    },
    {
      "midi": 74,
      "hit": false,
      "t": 156666.60399999996,
      "d": 1128.4717708333337,
      "v": 127
    },
    {
      "midi": 54,
      "hit": false,
      "t": 156675.28455208242,
      "d": 199.6526979166665,
      "v": 55
    },
    {
      "midi": 54,
      "hit": false,
      "t": 156883.61780208242,
      "d": 199.6526979166665,
      "v": 19
    },
    {
      "midi": 54,
      "hit": false,
      "t": 157091.9510520824,
      "d": 199.6526979166665,
      "v": 48
    },
    {
      "midi": 54,
      "hit": false,
      "t": 157300.2843020824,
      "d": 199.6526979166665,
      "v": 10
    },
    {
      "midi": 54,
      "hit": false,
      "t": 157508.6175520824,
      "d": 199.6526979166665,
      "v": 114
    },
    {
      "midi": 54,
      "hit": false,
      "t": 157716.9508020824,
      "d": 199.6526979166665,
      "v": 22
    },
    {
      "midi": 75,
      "hit": false,
      "t": 157890.56184374995,
      "d": 807.2913437499956,
      "v": 127
    },
    {
      "midi": 54,
      "hit": false,
      "t": 157925.2840520824,
      "d": 199.6526979166665,
      "v": 64
    },
    {
      "midi": 54,
      "hit": false,
      "t": 158133.6173020824,
      "d": 199.6526979166665,
      "v": 9
    },
    {
      "midi": 54,
      "hit": false,
      "t": 158341.9505520824,
      "d": 199.6526979166665,
      "v": 55
    },
    {
      "midi": 54,
      "hit": false,
      "t": 158550.28380208238,
      "d": 199.6526979166665,
      "v": 20
    },
    {
      "midi": 74,
      "hit": false,
      "t": 158741.25594791662,
      "d": 807.2913437499956,
      "v": 127
    },
    {
      "midi": 54,
      "hit": false,
      "t": 158758.61705208238,
      "d": 199.6526979166665,
      "v": 48
    },
    {
      "midi": 54,
      "hit": false,
      "t": 158966.95030208238,
      "d": 199.6526979166665,
      "v": 10
    },
    {
      "midi": 54,
      "hit": false,
      "t": 159175.28355208237,
      "d": 199.6526979166665,
      "v": 109
    },
    {
      "midi": 54,
      "hit": false,
      "t": 159383.61680208237,
      "d": 199.6526979166665,
      "v": 18
    },
    {
      "midi": 72,
      "hit": false,
      "t": 159583.26949999997,
      "d": 190.97214583333698,
      "v": 112
    },
    {
      "midi": 54,
      "hit": false,
      "t": 159591.95005208236,
      "d": 199.6526979166665,
      "v": 44
    },
    {
      "midi": 74,
      "hit": false,
      "t": 159782.92219791663,
      "d": 208.33324999999604,
      "v": 115
    },
    {
      "midi": 54,
      "hit": false,
      "t": 159800.28330208236,
      "d": 199.6526979166665,
      "v": 17
    },
    {
      "midi": 72,
      "hit": false,
      "t": 159991.25544791663,
      "d": 2065.9713958333305,
      "v": 127
    },
    {
      "midi": 54,
      "hit": false,
      "t": 160008.61655208236,
      "d": 199.6526979166665,
      "v": 52
    },
    {
      "midi": 54,
      "hit": false,
      "t": 160216.94980208235,
      "d": 199.6526979166665,
      "v": 20
    },
    {
      "midi": 54,
      "hit": false,
      "t": 160425.28305208235,
      "d": 199.6526979166665,
      "v": 46
    },
    {
      "midi": 54,
      "hit": false,
      "t": 160633.61630208234,
      "d": 199.6526979166665,
      "v": 17
    },
    {
      "midi": 54,
      "hit": false,
      "t": 160841.94955208234,
      "d": 199.6526979166665,
      "v": 109
    },
    {
      "midi": 54,
      "hit": false,
      "t": 161050.28280208234,
      "d": 199.6526979166665,
      "v": 21
    },
    {
      "midi": 54,
      "hit": false,
      "t": 161258.61605208233,
      "d": 199.6526979166665,
      "v": 68
    },
    {
      "midi": 54,
      "hit": false,
      "t": 161466.94930208233,
      "d": 199.6526979166665,
      "v": 14
    },
    {
      "midi": 54,
      "hit": false,
      "t": 161675.28255208232,
      "d": 199.6526979166665,
      "v": 55
    },
    {
      "midi": 54,
      "hit": false,
      "t": 161883.61580208232,
      "d": 199.6526979166665,
      "v": 18
    },
    {
      "midi": 54,
      "hit": false,
      "t": 162091.94905208232,
      "d": 199.6526979166665,
      "v": 41
    },
    {
      "midi": 72,
      "hit": false,
      "t": 162265.56009374995,
      "d": 190.97214583333698,
      "v": 124
    },
    {
      "midi": 54,
      "hit": false,
      "t": 162300.2823020823,
      "d": 199.6526979166665,
      "v": 13
    },
    {
      "midi": 79,
      "hit": false,
      "t": 162486.91417187496,
      "d": 360.2429114583356,
      "v": 127
    },
    {
      "midi": 54,
      "hit": false,
      "t": 162508.6155520823,
      "d": 199.6526979166665,
      "v": 115
    },
    {
      "midi": 54,
      "hit": false,
      "t": 162716.9488020823,
      "d": 199.6526979166665,
      "v": 23
    },
    {
      "midi": 81,
      "hit": false,
      "t": 162890.55984374997,
      "d": 347.22208333332674,
      "v": 127
    },
    {
      "midi": 54,
      "hit": false,
      "t": 162925.2820520823,
      "d": 199.6526979166665,
      "v": 42
    },
    {
      "midi": 54,
      "hit": false,
      "t": 163133.6153020823,
      "d": 199.6526979166665,
      "v": 10
    },
    {
      "midi": 82,
      "hit": false,
      "t": 163315.9068958333,
      "d": 1128.4717708333337,
      "v": 127
    },
    {
      "midi": 54,
      "hit": false,
      "t": 163341.9485520823,
      "d": 199.6526979166665,
      "v": 55
    },
    {
      "midi": 54,
      "hit": false,
      "t": 163550.2818020823,
      "d": 199.6526979166665,
      "v": 23
    },
    {
      "midi": 54,
      "hit": false,
      "t": 163758.61505208228,
      "d": 199.6526979166665,
      "v": 46
    },
    {
      "midi": 54,
      "hit": false,
      "t": 163966.94830208228,
      "d": 199.6526979166665,
      "v": 12
    },
    {
      "midi": 54,
      "hit": false,
      "t": 164175.28155208228,
      "d": 199.6526979166665,
      "v": 111
    },
    {
      "midi": 54,
      "hit": false,
      "t": 164383.61480208227,
      "d": 199.6526979166665,
      "v": 20
    },
    {
      "midi": 82,
      "hit": false,
      "t": 164574.58694791663,
      "d": 1571.1799270833435,
      "v": 127
    },
    {
      "midi": 54,
      "hit": false,
      "t": 164591.94805208227,
      "d": 199.6526979166665,
      "v": 68
    },
    {
      "midi": 54,
      "hit": false,
      "t": 164800.28130208227,
      "d": 199.6526979166665,
      "v": 14
    },
    {
      "midi": 54,
      "hit": false,
      "t": 165008.61455208226,
      "d": 199.6526979166665,
      "v": 56
    },
    {
      "midi": 54,
      "hit": false,
      "t": 165216.94780208226,
      "d": 199.6526979166665,
      "v": 22
    },
    {
      "midi": 54,
      "hit": false,
      "t": 165425.28105208225,
      "d": 199.6526979166665,
      "v": 49
    },
    {
      "midi": 54,
      "hit": false,
      "t": 165633.61430208225,
      "d": 199.6526979166665,
      "v": 10
    },
    {
      "midi": 54,
      "hit": false,
      "t": 165841.94755208225,
      "d": 199.6526979166665,
      "v": 116
    },
    {
      "midi": 54,
      "hit": false,
      "t": 166050.28080208224,
      "d": 199.6526979166665,
      "v": 24
    },
    {
      "midi": 54,
      "hit": false,
      "t": 166258.61405208224,
      "d": 199.6526979166665,
      "v": 40
    },
    {
      "midi": 82,
      "hit": false,
      "t": 166293.33626041663,
      "d": 86.80552083332441,
      "v": 54
    },
    {
      "midi": 54,
      "hit": false,
      "t": 166466.94730208223,
      "d": 199.6526979166665,
      "v": 11
    },
    {
      "midi": 82,
      "hit": false,
      "t": 166484.30840624997,
      "d": 60.76386458333582,
      "v": 78
    },
    {
      "midi": 82,
      "hit": false,
      "t": 166666.59999999998,
      "d": 538.1942291666637,
      "v": 127
    },
    {
      "midi": 54,
      "hit": false,
      "t": 166675.28055208223,
      "d": 199.6526979166665,
      "v": 56
    },
    {
      "midi": 54,
      "hit": false,
      "t": 166883.61380208223,
      "d": 199.6526979166665,
      "v": 20
    },
    {
      "midi": 54,
      "hit": false,
      "t": 167091.94705208222,
      "d": 199.6526979166665,
      "v": 48
    },
    {
      "midi": 82,
      "hit": false,
      "t": 167282.91919791664,
      "d": 572.9164375000109,
      "v": 108
    },
    {
      "midi": 54,
      "hit": false,
      "t": 167300.28030208222,
      "d": 199.6526979166665,
      "v": 14
    },
    {
      "midi": 54,
      "hit": false,
      "t": 167508.6135520822,
      "d": 199.6526979166665,
      "v": 109
    },
    {
      "midi": 54,
      "hit": false,
      "t": 167716.9468020822,
      "d": 199.6526979166665,
      "v": 16
    },
    {
      "midi": 77,
      "hit": false,
      "t": 167899.23839583332,
      "d": 920.1385208333377,
      "v": 124
    },
    {
      "midi": 54,
      "hit": false,
      "t": 167925.2800520822,
      "d": 199.6526979166665,
      "v": 67
    },
    {
      "midi": 54,
      "hit": false,
      "t": 168133.6133020822,
      "d": 199.6526979166665,
      "v": 15
    },
    {
      "midi": 54,
      "hit": false,
      "t": 168341.9465520822,
      "d": 199.6526979166665,
      "v": 53
    },
    {
      "midi": 54,
      "hit": false,
      "t": 168550.2798020822,
      "d": 199.6526979166665,
      "v": 16
    },
    {
      "midi": 54,
      "hit": false,
      "t": 168758.6130520822,
      "d": 199.6526979166665,
      "v": 45
    },
    {
      "midi": 54,
      "hit": false,
      "t": 168966.9463020822,
      "d": 199.6526979166665,
      "v": 9
    },
    {
      "midi": 77,
      "hit": false,
      "t": 168984.30740624998,
      "d": 182.29159375000745,
      "v": 127
    },
    {
      "midi": 54,
      "hit": false,
      "t": 169175.27955208218,
      "d": 199.6526979166665,
      "v": 109
    },
    {
      "midi": 79,
      "hit": false,
      "t": 169175.27955208332,
      "d": 399.305395833333,
      "v": 127
    },
    {
      "midi": 54,
      "hit": false,
      "t": 169383.61280208218,
      "d": 199.6526979166665,
      "v": 24
    },
    {
      "midi": 77,
      "hit": false,
      "t": 169583.26549999998,
      "d": 416.6664999999921,
      "v": 112
    },
    {
      "midi": 54,
      "hit": false,
      "t": 169591.94605208217,
      "d": 199.6526979166665,
      "v": 43
    },
    {
      "midi": 54,
      "hit": false,
      "t": 169800.27930208217,
      "d": 199.6526979166665,
      "v": 9
    },
    {
      "midi": 74,
      "hit": false,
      "t": 169999.93199999997,
      "d": 1137.1523229166633,
      "v": 124
    },
    {
      "midi": 54,
      "hit": false,
      "t": 170008.61255208217,
      "d": 199.6526979166665,
      "v": 55
    },
    {
      "midi": 54,
      "hit": false,
      "t": 170216.94580208216,
      "d": 199.6526979166665,
      "v": 19
    },
    {
      "midi": 54,
      "hit": false,
      "t": 170425.27905208216,
      "d": 199.6526979166665,
      "v": 48
    },
    {
      "midi": 54,
      "hit": false,
      "t": 170633.61230208215,
      "d": 199.6526979166665,
      "v": 10
    },
    {
      "midi": 54,
      "hit": false,
      "t": 170841.94555208215,
      "d": 199.6526979166665,
      "v": 114
    },
    {
      "midi": 54,
      "hit": false,
      "t": 171050.27880208215,
      "d": 199.6526979166665,
      "v": 22
    },
    {
      "midi": 75,
      "hit": false,
      "t": 171249.93149999998,
      "d": 798.610791666666,
      "v": 127
    },
    {
      "midi": 54,
      "hit": false,
      "t": 171258.61205208214,
      "d": 199.6526979166665,
      "v": 64
    },
    {
      "midi": 54,
      "hit": false,
      "t": 171466.94530208214,
      "d": 199.6526979166665,
      "v": 9
    },
    {
      "midi": 54,
      "hit": false,
      "t": 171675.27855208213,
      "d": 199.6526979166665,
      "v": 55
    },
    {
      "midi": 54,
      "hit": false,
      "t": 171883.61180208213,
      "d": 199.6526979166665,
      "v": 20
    },
    {
      "midi": 74,
      "hit": false,
      "t": 172083.2645,
      "d": 815.9718958333251,
      "v": 127
    },
    {
      "midi": 54,
      "hit": false,
      "t": 172091.94505208213,
      "d": 199.6526979166665,
      "v": 48
    },
    {
      "midi": 54,
      "hit": false,
      "t": 172300.27830208212,
      "d": 199.6526979166665,
      "v": 10
    },
    {
      "midi": 54,
      "hit": false,
      "t": 172508.61155208212,
      "d": 199.6526979166665,
      "v": 109
    },
    {
      "midi": 54,
      "hit": false,
      "t": 172716.94480208211,
      "d": 199.6526979166665,
      "v": 18
    },
    {
      "midi": 72,
      "hit": false,
      "t": 172916.59749999997,
      "d": 173.61104166667792,
      "v": 97
    },
    {
      "midi": 54,
      "hit": false,
      "t": 172925.2780520821,
      "d": 199.6526979166665,
      "v": 44
    },
    {
      "midi": 74,
      "hit": false,
      "t": 173107.5696458333,
      "d": 199.6526979166665,
      "v": 99
    },
    {
      "midi": 54,
      "hit": false,
      "t": 173133.6113020821,
      "d": 199.6526979166665,
      "v": 17
    },
    {
      "midi": 72,
      "hit": false,
      "t": 173307.22234374998,
      "d": 2890.623843750014,
      "v": 119
    },
    {
      "midi": 54,
      "hit": false,
      "t": 173341.9445520821,
      "d": 199.6526979166665,
      "v": 52
    },
    {
      "midi": 54,
      "hit": false,
      "t": 173550.2778020821,
      "d": 199.6526979166665,
      "v": 20
    },
    {
      "midi": 54,
      "hit": false,
      "t": 173758.6110520821,
      "d": 199.6526979166665,
      "v": 46
    },
    {
      "midi": 54,
      "hit": false,
      "t": 173966.9443020821,
      "d": 199.6526979166665,
      "v": 17
    },
    {
      "midi": 54,
      "hit": false,
      "t": 174175.2775520821,
      "d": 199.6526979166665,
      "v": 109
    },
    {
      "midi": 54,
      "hit": false,
      "t": 174383.61080208208,
      "d": 199.6526979166665,
      "v": 21
    },
    {
      "midi": 54,
      "hit": false,
      "t": 174591.94405208208,
      "d": 199.6526979166665,
      "v": 68
    },
    {
      "midi": 54,
      "hit": false,
      "t": 174800.27730208208,
      "d": 190.97214583333698,
      "v": 14
    },
    {
      "midi": 82,
      "hit": false,
      "t": 174999.92999999874,
      "d": 8.68055208332953,
      "v": 70
    },
    {
      "midi": 54,
      "hit": false,
      "t": 175416.59649999873,
      "d": 17.36110416665906,
      "v": 22
    },
    {
      "midi": 70,
      "hit": false,
      "t": 175416.59649999873,
      "d": 26.04165624998859,
      "v": 59
    },
    {
      "midi": 70,
      "hit": false,
      "t": 175624.92974999873,
      "d": 26.04165624998859,
      "v": 26
    },
    {
      "midi": 82,
      "hit": false,
      "t": 175833.26299999873,
      "d": 8.68055208332953,
      "v": 70
    },
    {
      "midi": 54,
      "hit": false,
      "t": 175833.26299999873,
      "d": 17.36110416665906,
      "v": 103
    },
    {
      "midi": 70,
      "hit": false,
      "t": 176249.92949999872,
      "d": 26.04165624998859,
      "v": 59
    },
    {
      "midi": 70,
      "hit": false,
      "t": 176458.2627499987,
      "d": 26.04165624998859,
      "v": 26
    },
    {
      "midi": 82,
      "hit": false,
      "t": 176640.55434375,
      "d": 338.5415312499972,
      "v": 112
    },
    {
      "midi": 82,
      "hit": false,
      "t": 176666.5959999987,
      "d": 8.68055208332953,
      "v": 70
    },
    {
      "midi": 81,
      "hit": false,
      "t": 177074.58194791665,
      "d": 78.12496874999488,
      "v": 60
    },
    {
      "midi": 70,
      "hit": false,
      "t": 177083.2624999987,
      "d": 26.04165624998859,
      "v": 59
    },
    {
      "midi": 81,
      "hit": false,
      "t": 177282.91519791665,
      "d": 373.26373958334443,
      "v": 99
    },
    {
      "midi": 82,
      "hit": false,
      "t": 177499.9289999987,
      "d": 8.68055208332953,
      "v": 70
    },
    {
      "midi": 79,
      "hit": false,
      "t": 177716.94280208333,
      "d": 251.7360104166728,
      "v": 84
    },
    {
      "midi": 70,
      "hit": false,
      "t": 177916.5954999987,
      "d": 26.04165624998859,
      "v": 59
    },
    {
      "midi": 79,
      "hit": false,
      "t": 178107.56764583333,
      "d": 52.083312500006286,
      "v": 55
    },
    {
      "midi": 70,
      "hit": false,
      "t": 178124.92874999868,
      "d": 26.04165624998859,
      "v": 26
    },
    {
      "midi": 79,
      "hit": false,
      "t": 178298.53979166667,
      "d": 329.8609791666677,
      "v": 119
    },
    {
      "midi": 82,
      "hit": false,
      "t": 178333.26199999868,
      "d": 8.68055208332953,
      "v": 70
    },
    {
      "midi": 77,
      "hit": false,
      "t": 178732.56739583335,
      "d": 60.76386458333582,
      "v": 57
    },
    {
      "midi": 70,
      "hit": false,
      "t": 178749.92849999867,
      "d": 26.04165624998859,
      "v": 59
    },
    {
      "midi": 77,
      "hit": false,
      "t": 178932.22009375002,
      "d": 286.4582187499909,
      "v": 115
    },
    {
      "midi": 82,
      "hit": false,
      "t": 179166.59499999866,
      "d": 8.68055208332953,
      "v": 70
    },
    {
      "midi": 54,
      "hit": false,
      "t": 179166.59499999866,
      "d": 17.36110416665906,
      "v": 103
    },
    {
      "midi": 77,
      "hit": false,
      "t": 179357.56714583334,
      "d": 434.02760416668025,
      "v": 72
    },
    {
      "midi": 70,
      "hit": false,
      "t": 179583.26149999865,
      "d": 26.04165624998859,
      "v": 59
    },
    {
      "midi": 70,
      "hit": false,
      "t": 179791.59474999865,
      "d": 26.04165624998859,
      "v": 26
    },
    {
      "midi": 74,
      "hit": false,
      "t": 179808.95585416668,
      "d": 156.24993749998976,
      "v": 63
    },
    {
      "midi": 82,
      "hit": false,
      "t": 179999.92799999865,
      "d": 8.68055208332953,
      "v": 70
    },
    {
      "midi": 77,
      "hit": false,
      "t": 179999.928,
      "d": 373.26373958334443,
      "v": 99
    },
    {
      "midi": 74,
      "hit": false,
      "t": 180407.9139479167,
      "d": 112.8471770833421,
      "v": 48
    },
    {
      "midi": 70,
      "hit": false,
      "t": 180416.59449999864,
      "d": 26.04165624998859,
      "v": 59
    },
    {
      "midi": 74,
      "hit": false,
      "t": 180607.56664583337,
      "d": 1519.0966145833372,
      "v": 73
    },
    {
      "midi": 82,
      "hit": false,
      "t": 180833.26099999863,
      "d": 8.68055208332953,
      "v": 70
    },
    {
      "midi": 70,
      "hit": false,
      "t": 181249.92749999862,
      "d": 26.04165624998859,
      "v": 59
    },
    {
      "midi": 70,
      "hit": false,
      "t": 181458.26074999862,
      "d": 26.04165624998859,
      "v": 26
    },
    {
      "midi": 82,
      "hit": false,
      "t": 181666.59399999861,
      "d": 8.68055208332953,
      "v": 70
    },
    {
      "midi": 70,
      "hit": false,
      "t": 182083.2604999986,
      "d": 26.04165624998859,
      "v": 59
    },
    {
      "midi": 74,
      "hit": false,
      "t": 182274.23264583337,
      "d": 173.61104166667792,
      "v": 90
    },
    {
      "midi": 79,
      "hit": false,
      "t": 182491.24644791672,
      "d": 338.5415312499972,
      "v": 99
    },
    {
      "midi": 82,
      "hit": false,
      "t": 182499.9269999986,
      "d": 8.68055208332953,
      "v": 70
    },
    {
      "midi": 54,
      "hit": false,
      "t": 182499.9269999986,
      "d": 17.36110416665906,
      "v": 103
    },
    {
      "midi": 81,
      "hit": false,
      "t": 182881.87129166673,
      "d": 373.26373958334443,
      "v": 99
    },
    {
      "midi": 70,
      "hit": false,
      "t": 182916.5934999986,
      "d": 26.04165624998859,
      "v": 59
    },
    {
      "midi": 70,
      "hit": false,
      "t": 183124.9267499986,
      "d": 26.04165624998859,
      "v": 26
    },
    {
      "midi": 82,
      "hit": false,
      "t": 183315.8988958334,
      "d": 312.4998750000086,
      "v": 97
    },
    {
      "midi": 82,
      "hit": false,
      "t": 183333.25999999858,
      "d": 8.68055208332953,
      "v": 70
    },
    {
      "midi": 82,
      "hit": false,
      "t": 183741.24594791676,
      "d": 69.44441666666535,
      "v": 62
    },
    {
      "midi": 70,
      "hit": false,
      "t": 183749.92649999858,
      "d": 26.04165624998859,
      "v": 59
    },
    {
      "midi": 82,
      "hit": false,
      "t": 183906.17643750008,
      "d": 581.5969895833405,
      "v": 99
    },
    {
      "midi": 82,
      "hit": false,
      "t": 184166.59299999857,
      "d": 8.68055208332953,
      "v": 70
    },
    {
      "midi": 81,
      "hit": false,
      "t": 184557.21784375008,
      "d": 286.4582187499909,
      "v": 97
    },
    {
      "midi": 70,
      "hit": false,
      "t": 184583.25949999856,
      "d": 26.04165624998859,
      "v": 59
    },
    {
      "midi": 70,
      "hit": false,
      "t": 184791.59274999856,
      "d": 26.04165624998859,
      "v": 26
    },
    {
      "midi": 81,
      "hit": false,
      "t": 184982.5648958334,
      "d": 347.22208333332674,
      "v": 105
    },
    {
      "midi": 82,
      "hit": false,
      "t": 184999.92599999855,
      "d": 8.68055208332953,
      "v": 70
    },
    {
      "midi": 70,
      "hit": false,
      "t": 185416.59249999854,
      "d": 26.04165624998859,
      "v": 59
    },
    {
      "midi": 79,
      "hit": false,
      "t": 185416.59250000006,
      "d": 69.44441666666535,
      "v": 61
    },
    {
      "midi": 79,
      "hit": false,
      "t": 185616.24519791672,
      "d": 520.8331250000047,
      "v": 88
    },
    {
      "midi": 82,
      "hit": false,
      "t": 185833.25899999854,
      "d": 8.68055208332953,
      "v": 70
    },
    {
      "midi": 54,
      "hit": false,
      "t": 185833.25899999854,
      "d": 17.36110416665906,
      "v": 103
    },
    {
      "midi": 70,
      "hit": false,
      "t": 186249.92549999853,
      "d": 26.04165624998859,
      "v": 59
    },
    {
      "midi": 77,
      "hit": false,
      "t": 186249.92550000007,
      "d": 321.18042708333815,
      "v": 97
    },
    {
      "midi": 70,
      "hit": false,
      "t": 186458.25874999852,
      "d": 26.04165624998859,
      "v": 26
    },
    {
      "midi": 82,
      "hit": false,
      "t": 186666.59199999852,
      "d": 8.68055208332953,
      "v": 70
    },
    {
      "midi": 77,
      "hit": false,
      "t": 186666.59200000006,
      "d": 442.7081562500098,
      "v": 105
    },
    {
      "midi": 74,
      "hit": false,
      "t": 187074.57794791672,
      "d": 112.8471770833421,
      "v": 57
    },
    {
      "midi": 70,
      "hit": false,
      "t": 187083.2584999985,
      "d": 26.04165624998859,
      "v": 59
    },
    {
      "midi": 74,
      "hit": false,
      "t": 187282.91119791672,
      "d": 1675.346552083327,
      "v": 105
    },
    {
      "midi": 82,
      "hit": false,
      "t": 187499.9249999985,
      "d": 8.68055208332953,
      "v": 70
    },
    {
      "midi": 70,
      "hit": false,
      "t": 187916.5914999985,
      "d": 26.04165624998859,
      "v": 59
    },
    {
      "midi": 70,
      "hit": false,
      "t": 188124.9247499985,
      "d": 26.04165624998859,
      "v": 26
    },
    {
      "midi": 82,
      "hit": false,
      "t": 188333.2579999985,
      "d": 8.68055208332953,
      "v": 70
    },
    {
      "midi": 70,
      "hit": false,
      "t": 188749.92449999848,
      "d": 26.04165624998859,
      "v": 59
    },
    {
      "midi": 82,
      "hit": false,
      "t": 189166.59099999847,
      "d": 8.68055208332953,
      "v": 70
    },
    {
      "midi": 54,
      "hit": false,
      "t": 189166.59099999847,
      "d": 17.36110416665906,
      "v": 103
    },
    {
      "midi": 74,
      "hit": false,
      "t": 189166.59100000004,
      "d": 295.13877083332045,
      "v": 127
    },
    {
      "midi": 75,
      "hit": false,
      "t": 189366.2436979167,
      "d": 190.97214583330788,
      "v": 92
    },
    {
      "midi": 70,
      "hit": false,
      "t": 189583.25749999846,
      "d": 26.04165624998859,
      "v": 59
    },
    {
      "midi": 77,
      "hit": false,
      "t": 189591.93805208337,
      "d": 303.8193229166791,
      "v": 127
    },
    {
      "midi": 70,
      "hit": false,
      "t": 189791.59074999846,
      "d": 26.04165624998859,
      "v": 26
    },
    {
      "midi": 77,
      "hit": false,
      "t": 189991.2434479167,
      "d": 347.22208333332674,
      "v": 127
    },
    {
      "midi": 82,
      "hit": false,
      "t": 189999.92399999846,
      "d": 8.68055208332953,
      "v": 70
    },
    {
      "midi": 70,
      "hit": false,
      "t": 190416.59049999845,
      "d": 26.04165624998859,
      "v": 59
    },
    {
      "midi": 75,
      "hit": false,
      "t": 190416.59050000002,
      "d": 95.48607291665394,
      "v": 72
    },
    {
      "midi": 75,
      "hit": false,
      "t": 190624.92375000002,
      "d": 546.8747812499932,
      "v": 105
    },
    {
      "midi": 82,
      "hit": false,
      "t": 190833.25699999844,
      "d": 8.68055208332953,
      "v": 70
    },
    {
      "midi": 77,
      "hit": false,
      "t": 191206.52073958336,
      "d": 303.8193229166791,
      "v": 99
    },
    {
      "midi": 70,
      "hit": false,
      "t": 191249.92349999843,
      "d": 26.04165624998859,
      "v": 59
    },
    {
      "midi": 70,
      "hit": false,
      "t": 191458.25674999843,
      "d": 26.04165624998859,
      "v": 26
    },
    {
      "midi": 79,
      "hit": false,
      "t": 191623.18723958338,
      "d": 338.5415312499972,
      "v": 115
    },
    {
      "midi": 82,
      "hit": false,
      "t": 191666.58999999842,
      "d": 8.68055208332953,
      "v": 70
    },
    {
      "midi": 77,
      "hit": false,
      "t": 192057.21484375003,
      "d": 95.48607291665394,
      "v": 94
    },
    {
      "midi": 70,
      "hit": false,
      "t": 192083.25649999842,
      "d": 26.04165624998859,
      "v": 59
    },
    {
      "midi": 77,
      "hit": false,
      "t": 192248.18698958334,
      "d": 407.98594791666255,
      "v": 102
    },
    {
      "midi": 82,
      "hit": false,
      "t": 192499.9229999984,
      "d": 8.68055208332953,
      "v": 70
    },
    {
      "midi": 54,
      "hit": false,
      "t": 192499.9229999984,
      "d": 17.36110416665906,
      "v": 103
    },
    {
      "midi": 74,
      "hit": false,
      "t": 192682.21459375,
      "d": 373.26373958334443,
      "v": 78
    },
    {
      "midi": 70,
      "hit": false,
      "t": 192916.5894999984,
      "d": 26.04165624998859,
      "v": 59
    },
    {
      "midi": 72,
      "hit": false,
      "t": 193098.88109375,
      "d": 86.80552083335351,
      "v": 33
    },
    {
      "midi": 70,
      "hit": false,
      "t": 193124.9227499984,
      "d": 26.04165624998859,
      "v": 26
    },
    {
      "midi": 74,
      "hit": false,
      "t": 193142.2838541667,
      "d": 156.24993750001886,
      "v": 75
    },
    {
      "midi": 72,
      "hit": false,
      "t": 193307.21434375003,
      "d": 451.3887083333393,
      "v": 115
    },
    {
      "midi": 82,
      "hit": false,
      "t": 193333.2559999984,
      "d": 8.68055208332953,
      "v": 70
    },
    {
      "midi": 70,
      "hit": false,
      "t": 193741.24194791671,
      "d": 95.48607291665394,
      "v": 69
    },
    {
      "midi": 70,
      "hit": false,
      "t": 193749.92249999839,
      "d": 26.04165624998859,
      "v": 59
    },
    {
      "midi": 70,
      "hit": false,
      "t": 193932.21409375002,
      "d": 1901.0409062500112,
      "v": 112
    },
    {
      "midi": 82,
      "hit": false,
      "t": 194166.58899999838,
      "d": 8.68055208332953,
      "v": 70
    },
    {
      "midi": 70,
      "hit": false,
      "t": 194583.25549999837,
      "d": 26.04165624998859,
      "v": 59
    },
    {
      "midi": 70,
      "hit": false,
      "t": 194791.58874999837,
      "d": 26.04165624998859,
      "v": 26
    },
    {
      "midi": 82,
      "hit": false,
      "t": 194999.92199999836,
      "d": 8.68055208332953,
      "v": 70
    },
    {
      "midi": 70,
      "hit": false,
      "t": 195416.58849999835,
      "d": 26.04165624998859,
      "v": 59
    },
    {
      "midi": 82,
      "hit": false,
      "t": 195833.25499999835,
      "d": 8.68055208332953,
      "v": 70
    },
    {
      "midi": 54,
      "hit": false,
      "t": 195833.25499999835,
      "d": 17.36110416665906,
      "v": 103
    },
    {
      "midi": 70,
      "hit": false,
      "t": 196015.54659375004,
      "d": 199.6526979166665,
      "v": 105
    },
    {
      "midi": 72,
      "hit": false,
      "t": 196232.56039583337,
      "d": 199.6526979166665,
      "v": 102
    },
    {
      "midi": 70,
      "hit": false,
      "t": 196249.92149999834,
      "d": 26.04165624998859,
      "v": 59
    },
    {
      "midi": 74,
      "hit": false,
      "t": 196432.21309375003,
      "d": 86.80552083332441,
      "v": 105
    },
    {
      "midi": 70,
      "hit": false,
      "t": 196458.25474999833,
      "d": 26.04165624998859,
      "v": 26
    },
    {
      "midi": 74,
      "hit": false,
      "t": 196631.8657916667,
      "d": 173.61104166667792,
      "v": 127
    },
    {
      "midi": 82,
      "hit": false,
      "t": 196666.58799999833,
      "d": 8.68055208332953,
      "v": 70
    },
    {
      "midi": 72,
      "hit": false,
      "t": 196857.56014583338,
      "d": 121.52772916667163,
      "v": 119
    },
    {
      "midi": 72,
      "hit": false,
      "t": 197065.89339583338,
      "d": 980.9023854166735,
      "v": 119
    },
    {
      "midi": 70,
      "hit": false,
      "t": 197083.25449999832,
      "d": 26.04165624998859,
      "v": 59
    },
    {
      "midi": 82,
      "hit": false,
      "t": 197499.9209999983,
      "d": 8.68055208332953,
      "v": 70
    },
    {
      "midi": 70,
      "hit": false,
      "t": 197916.5874999983,
      "d": 26.04165624998859,
      "v": 59
    },
    {
      "midi": 70,
      "hit": false,
      "t": 198064.1568854167,
      "d": 199.6526979166665,
      "v": 68
    },
    {
      "midi": 70,
      "hit": false,
      "t": 198124.9207499983,
      "d": 26.04165624998859,
      "v": 26
    },
    {
      "midi": 77,
      "hit": false,
      "t": 198315.89289583339,
      "d": 347.22208333332674,
      "v": 127
    },
    {
      "midi": 82,
      "hit": false,
      "t": 198333.2539999983,
      "d": 8.68055208332953,
      "v": 70
    },
    {
      "midi": 77,
      "hit": false,
      "t": 198732.55939583338,
      "d": 95.48607291665394,
      "v": 92
    },
    {
      "midi": 70,
      "hit": false,
      "t": 198749.9204999983,
      "d": 26.04165624998859,
      "v": 59
    },
    {
      "midi": 77,
      "hit": false,
      "t": 198949.5731979167,
      "d": 529.5136770833342,
      "v": 127
    },
    {
      "midi": 82,
      "hit": false,
      "t": 199166.58699999828,
      "d": 8.68055208332953,
      "v": 70
    },
    {
      "midi": 54,
      "hit": false,
      "t": 199166.58699999828,
      "d": 17.36110416665906,
      "v": 103
    },
    {
      "midi": 74,
      "hit": false,
      "t": 199574.5729479167,
      "d": 399.305395833333,
      "v": 127
    },
    {
      "midi": 70,
      "hit": false,
      "t": 199583.25349999827,
      "d": 26.04165624998859,
      "v": 59
    },
    {
      "midi": 70,
      "hit": false,
      "t": 199791.58674999827,
      "d": 26.04165624998859,
      "v": 26
    },
    {
      "midi": 82,
      "hit": false,
      "t": 199999.91999999827,
      "d": 8.68055208332953,
      "v": 70
    },
    {
      "midi": 72,
      "hit": false,
      "t": 199999.92,
      "d": 3272.568135416659,
      "v": 127
    },
    {
      "midi": 70,
      "hit": false,
      "t": 200416.58649999826,
      "d": 26.04165624998859,
      "v": 59
    },
    {
      "midi": 82,
      "hit": false,
      "t": 200833.25299999825,
      "d": 8.68055208332953,
      "v": 70
    },
    {
      "midi": 70,
      "hit": false,
      "t": 201249.91949999824,
      "d": 26.04165624998859,
      "v": 59
    },
    {
      "midi": 70,
      "hit": false,
      "t": 201458.25274999824,
      "d": 26.04165624998859,
      "v": 26
    },
    {
      "midi": 82,
      "hit": false,
      "t": 201666.58599999823,
      "d": 8.68055208332953,
      "v": 70
    },
    {
      "midi": 54,
      "hit": false,
      "t": 202091.93305208156,
      "d": 199.6526979166665,
      "v": 41
    },
    {
      "midi": 54,
      "hit": false,
      "t": 202300.26630208155,
      "d": 199.6526979166665,
      "v": 13
    },
    {
      "midi": 54,
      "hit": false,
      "t": 202508.59955208155,
      "d": 199.6526979166665,
      "v": 115
    },
    {
      "midi": 54,
      "hit": false,
      "t": 202716.93280208154,
      "d": 199.6526979166665,
      "v": 23
    },
    {
      "midi": 54,
      "hit": false,
      "t": 202925.26605208154,
      "d": 199.6526979166665,
      "v": 42
    },
    {
      "midi": 54,
      "hit": false,
      "t": 203133.59930208154,
      "d": 199.6526979166665,
      "v": 10
    },
    {
      "midi": 74,
      "hit": false,
      "t": 203315.89089583335,
      "d": 1249.9995000000054,
      "v": 124
    },
    {
      "midi": 54,
      "hit": false,
      "t": 203341.93255208153,
      "d": 199.6526979166665,
      "v": 55
    },
    {
      "midi": 54,
      "hit": false,
      "t": 203550.26580208153,
      "d": 199.6526979166665,
      "v": 23
    },
    {
      "midi": 54,
      "hit": false,
      "t": 203758.59905208152,
      "d": 199.6526979166665,
      "v": 46
    },
    {
      "midi": 54,
      "hit": false,
      "t": 203966.93230208152,
      "d": 199.6526979166665,
      "v": 12
    },
    {
      "midi": 54,
      "hit": false,
      "t": 204175.26555208152,
      "d": 199.6526979166665,
      "v": 111
    },
    {
      "midi": 54,
      "hit": false,
      "t": 204383.5988020815,
      "d": 199.6526979166665,
      "v": 20
    },
    {
      "midi": 72,
      "hit": false,
      "t": 204583.2515,
      "d": 277.7776666666905,
      "v": 127
    },
    {
      "midi": 54,
      "hit": false,
      "t": 204591.9320520815,
      "d": 199.6526979166665,
      "v": 68
    },
    {
      "midi": 74,
      "hit": false,
      "t": 204756.8625416667,
      "d": 217.01380208335468,
      "v": 94
    },
    {
      "midi": 54,
      "hit": false,
      "t": 204800.2653020815,
      "d": 199.6526979166665,
      "v": 14
    },
    {
      "midi": 75,
      "hit": false,
      "t": 204982.55689583338,
      "d": 399.305395833333,
      "v": 127
    },
    {
      "midi": 54,
      "hit": false,
      "t": 205008.5985520815,
      "d": 199.6526979166665,
      "v": 56
    },
    {
      "midi": 54,
      "hit": false,
      "t": 205216.9318020815,
      "d": 199.6526979166665,
      "v": 22
    },
    {
      "midi": 74,
      "hit": false,
      "t": 205399.22339583337,
      "d": 416.6664999999921,
      "v": 105
    },
    {
      "midi": 54,
      "hit": false,
      "t": 205425.2650520815,
      "d": 199.6526979166665,
      "v": 49
    },
    {
      "midi": 54,
      "hit": false,
      "t": 205633.5983020815,
      "d": 199.6526979166665,
      "v": 10
    },
    {
      "midi": 72,
      "hit": false,
      "t": 205807.20934375003,
      "d": 434.02760416665114,
      "v": 127
    },
    {
      "midi": 54,
      "hit": false,
      "t": 205841.93155208149,
      "d": 199.6526979166665,
      "v": 116
    },
    {
      "midi": 54,
      "hit": false,
      "t": 206050.26480208148,
      "d": 199.6526979166665,
      "v": 24
    },
    {
      "midi": 70,
      "hit": false,
      "t": 206241.23694791668,
      "d": 225.6943541666551,
      "v": 86
    },
    {
      "midi": 54,
      "hit": false,
      "t": 206258.59805208148,
      "d": 199.6526979166665,
      "v": 40
    },
    {
      "midi": 54,
      "hit": false,
      "t": 206466.93130208147,
      "d": 199.6526979166665,
      "v": 11
    },
    {
      "midi": 70,
      "hit": false,
      "t": 206640.54234375,
      "d": 494.79146875001607,
      "v": 127
    },
    {
      "midi": 54,
      "hit": false,
      "t": 206675.26455208147,
      "d": 199.6526979166665,
      "v": 56
    },
    {
      "midi": 54,
      "hit": false,
      "t": 206883.59780208147,
      "d": 199.6526979166665,
      "v": 20
    },
    {
      "midi": 72,
      "hit": false,
      "t": 207083.25050000002,
      "d": 416.6664999999921,
      "v": 94
    },
    {
      "midi": 54,
      "hit": false,
      "t": 207091.93105208146,
      "d": 199.6526979166665,
      "v": 48
    },
    {
      "midi": 54,
      "hit": false,
      "t": 207300.26430208146,
      "d": 199.6526979166665,
      "v": 14
    },
    {
      "midi": 74,
      "hit": false,
      "t": 207499.91700000002,
      "d": 399.305395833333,
      "v": 124
    },
    {
      "midi": 54,
      "hit": false,
      "t": 207508.59755208145,
      "d": 199.6526979166665,
      "v": 109
    },
    {
      "midi": 54,
      "hit": false,
      "t": 207716.93080208145,
      "d": 199.6526979166665,
      "v": 16
    },
    {
      "midi": 72,
      "hit": false,
      "t": 207916.5835,
      "d": 833.3330000000133,
      "v": 127
    },
    {
      "midi": 54,
      "hit": false,
      "t": 207925.26405208145,
      "d": 199.6526979166665,
      "v": 67
    },
    {
      "midi": 54,
      "hit": false,
      "t": 208133.59730208144,
      "d": 199.6526979166665,
      "v": 15
    },
    {
      "midi": 54,
      "hit": false,
      "t": 208341.93055208144,
      "d": 199.6526979166665,
      "v": 53
    },
    {
      "midi": 54,
      "hit": false,
      "t": 208550.26380208143,
      "d": 199.6526979166665,
      "v": 16
    },
    {
      "midi": 74,
      "hit": false,
      "t": 208749.91650000002,
      "d": 407.98594791666255,
      "v": 127
    },
    {
      "midi": 54,
      "hit": false,
      "t": 208758.59705208143,
      "d": 199.6526979166665,
      "v": 45
    },
    {
      "midi": 54,
      "hit": false,
      "t": 208966.93030208143,
      "d": 199.6526979166665,
      "v": 9
    },
    {
      "midi": 54,
      "hit": false,
      "t": 209175.26355208142,
      "d": 199.6526979166665,
      "v": 109
    },
    {
      "midi": 54,
      "hit": false,
      "t": 209383.59680208142,
      "d": 199.6526979166665,
      "v": 24
    },
    {
      "midi": 74,
      "hit": false,
      "t": 209557.20784375002,
      "d": 842.0135520833428,
      "v": 127
    },
    {
      "midi": 54,
      "hit": false,
      "t": 209591.9300520814,
      "d": 199.6526979166665,
      "v": 43
    },
    {
      "midi": 54,
      "hit": false,
      "t": 209800.2633020814,
      "d": 199.6526979166665,
      "v": 9
    },
    {
      "midi": 54,
      "hit": false,
      "t": 210008.5965520814,
      "d": 199.6526979166665,
      "v": 55
    },
    {
      "midi": 54,
      "hit": false,
      "t": 210216.9298020814,
      "d": 199.6526979166665,
      "v": 19
    },
    {
      "midi": 70,
      "hit": false,
      "t": 210407.9019479167,
      "d": 781.249687500007,
      "v": 99
    },
    {
      "midi": 54,
      "hit": false,
      "t": 210425.2630520814,
      "d": 199.6526979166665,
      "v": 48
    },
    {
      "midi": 54,
      "hit": false,
      "t": 210633.5963020814,
      "d": 199.6526979166665,
      "v": 10
    },
    {
      "midi": 54,
      "hit": false,
      "t": 210841.9295520814,
      "d": 199.6526979166665,
      "v": 114
    },
    {
      "midi": 54,
      "hit": false,
      "t": 211050.2628020814,
      "d": 199.6526979166665,
      "v": 22
    },
    {
      "midi": 75,
      "hit": false,
      "t": 211232.55439583337,
      "d": 763.8885833333188,
      "v": 127
    },
    {
      "midi": 54,
      "hit": false,
      "t": 211258.59605208138,
      "d": 199.6526979166665,
      "v": 64
    },
    {
      "midi": 54,
      "hit": false,
      "t": 211466.92930208138,
      "d": 199.6526979166665,
      "v": 9
    },
    {
      "midi": 54,
      "hit": false,
      "t": 211675.26255208137,
      "d": 199.6526979166665,
      "v": 55
    },
    {
      "midi": 54,
      "hit": false,
      "t": 211883.59580208137,
      "d": 199.6526979166665,
      "v": 20
    },
    {
      "midi": 74,
      "hit": false,
      "t": 212074.5679479167,
      "d": 807.2913437499956,
      "v": 124
    },
    {
      "midi": 54,
      "hit": false,
      "t": 212091.92905208137,
      "d": 199.6526979166665,
      "v": 48
    },
    {
      "midi": 54,
      "hit": false,
      "t": 212300.26230208136,
      "d": 199.6526979166665,
      "v": 10
    },
    {
      "midi": 54,
      "hit": false,
      "t": 212508.59555208136,
      "d": 199.6526979166665,
      "v": 109
    },
    {
      "midi": 54,
      "hit": false,
      "t": 212716.92880208135,
      "d": 199.6526979166665,
      "v": 18
    },
    {
      "midi": 72,
      "hit": false,
      "t": 212916.58150000003,
      "d": 3185.7626145833347,
      "v": 127
    },
    {
      "midi": 54,
      "hit": false,
      "t": 212925.26205208135,
      "d": 199.6526979166665,
      "v": 44
    },
    {
      "midi": 54,
      "hit": false,
      "t": 213133.59530208135,
      "d": 199.6526979166665,
      "v": 17
    },
    {
      "midi": 54,
      "hit": false,
      "t": 213341.92855208134,
      "d": 199.6526979166665,
      "v": 52
    },
    {
      "midi": 54,
      "hit": false,
      "t": 213550.26180208134,
      "d": 199.6526979166665,
      "v": 20
    },
    {
      "midi": 54,
      "hit": false,
      "t": 213758.59505208133,
      "d": 199.6526979166665,
      "v": 46
    },
    {
      "midi": 54,
      "hit": false,
      "t": 213966.92830208133,
      "d": 199.6526979166665,
      "v": 17
    },
    {
      "midi": 54,
      "hit": false,
      "t": 214175.26155208133,
      "d": 199.6526979166665,
      "v": 109
    },
    {
      "midi": 54,
      "hit": false,
      "t": 214383.59480208132,
      "d": 199.6526979166665,
      "v": 21
    },
    {
      "midi": 54,
      "hit": false,
      "t": 214591.92805208132,
      "d": 199.6526979166665,
      "v": 68
    },
    {
      "midi": 54,
      "hit": false,
      "t": 214800.26130208132,
      "d": 138.8888333333307,
      "v": 14
    },
    {
      "midi": 54,
      "hit": false,
      "t": 215008.5945520813,
      "d": 199.6526979166665,
      "v": 55
    },
    {
      "midi": 54,
      "hit": false,
      "t": 215216.9278020813,
      "d": 199.6526979166665,
      "v": 18
    },
    {
      "midi": 54,
      "hit": false,
      "t": 215425.2610520813,
      "d": 199.6526979166665,
      "v": 41
    },
    {
      "midi": 54,
      "hit": false,
      "t": 215633.5943020813,
      "d": 199.6526979166665,
      "v": 13
    },
    {
      "midi": 54,
      "hit": false,
      "t": 215841.9275520813,
      "d": 199.6526979166665,
      "v": 115
    },
    {
      "midi": 54,
      "hit": false,
      "t": 216050.2608020813,
      "d": 199.6526979166665,
      "v": 23
    },
    {
      "midi": 72,
      "hit": false,
      "t": 216241.2329479167,
      "d": 373.26373958334443,
      "v": 127
    },
    {
      "midi": 54,
      "hit": false,
      "t": 216258.5940520813,
      "d": 199.6526979166665,
      "v": 42
    },
    {
      "midi": 54,
      "hit": false,
      "t": 216466.92730208128,
      "d": 199.6526979166665,
      "v": 10
    },
    {
      "midi": 74,
      "hit": false,
      "t": 216640.53834375003,
      "d": 1050.3468020833388,
      "v": 127
    },
    {
      "midi": 54,
      "hit": false,
      "t": 216675.26055208128,
      "d": 199.6526979166665,
      "v": 55
    },
    {
      "midi": 54,
      "hit": false,
      "t": 216883.59380208128,
      "d": 199.6526979166665,
      "v": 23
    },
    {
      "midi": 54,
      "hit": false,
      "t": 217091.92705208127,
      "d": 199.6526979166665,
      "v": 46
    },
    {
      "midi": 54,
      "hit": false,
      "t": 217300.26030208127,
      "d": 199.6526979166665,
      "v": 12
    },
    {
      "midi": 54,
      "hit": false,
      "t": 217508.59355208126,
      "d": 199.6526979166665,
      "v": 111
    },
    {
      "midi": 54,
      "hit": false,
      "t": 217716.92680208126,
      "d": 199.6526979166665,
      "v": 20
    },
    {
      "midi": 74,
      "hit": false,
      "t": 217899.21839583336,
      "d": 78.12496874999488,
      "v": 105
    },
    {
      "midi": 54,
      "hit": false,
      "t": 217925.26005208126,
      "d": 199.6526979166665,
      "v": 68
    },
    {
      "midi": 74,
      "hit": false,
      "t": 218090.1905416667,
      "d": 156.24993749998976,
      "v": 94
    },
    {
      "midi": 54,
      "hit": false,
      "t": 218133.59330208125,
      "d": 199.6526979166665,
      "v": 14
    },
    {
      "midi": 75,
      "hit": false,
      "t": 218315.88489583335,
      "d": 460.06926041666884,
      "v": 127
    },
    {
      "midi": 54,
      "hit": false,
      "t": 218341.92655208125,
      "d": 199.6526979166665,
      "v": 56
    },
    {
      "midi": 54,
      "hit": false,
      "t": 218550.25980208124,
      "d": 199.6526979166665,
      "v": 22
    },
    {
      "midi": 74,
      "hit": false,
      "t": 218741.23194791668,
      "d": 434.02760416668025,
      "v": 124
    },
    {
      "midi": 54,
      "hit": false,
      "t": 218758.59305208124,
      "d": 199.6526979166665,
      "v": 49
    },
    {
      "midi": 54,
      "hit": false,
      "t": 218966.92630208124,
      "d": 199.6526979166665,
      "v": 10
    },
    {
      "midi": 72,
      "hit": false,
      "t": 219166.57900000003,
      "d": 381.94429166667396,
      "v": 105
    },
    {
      "midi": 54,
      "hit": false,
      "t": 219175.25955208123,
      "d": 199.6526979166665,
      "v": 116
    },
    {
      "midi": 54,
      "hit": false,
      "t": 219383.59280208123,
      "d": 199.6526979166665,
      "v": 24
    },
    {
      "midi": 70,
      "hit": false,
      "t": 219574.5649479167,
      "d": 260.4165625000023,
      "v": 108
    },
    {
      "midi": 54,
      "hit": false,
      "t": 219591.92605208122,
      "d": 199.6526979166665,
      "v": 40
    },
    {
      "midi": 54,
      "hit": false,
      "t": 219800.25930208122,
      "d": 199.6526979166665,
      "v": 11
    },
    {
      "midi": 70,
      "hit": false,
      "t": 219982.55089583335,
      "d": 416.6664999999921,
      "v": 127
    },
    {
      "midi": 54,
      "hit": false,
      "t": 220008.59255208122,
      "d": 199.6526979166665,
      "v": 56
    },
    {
      "midi": 54,
      "hit": false,
      "t": 220216.9258020812,
      "d": 199.6526979166665,
      "v": 20
    },
    {
      "midi": 72,
      "hit": false,
      "t": 220399.21739583334,
      "d": 434.02760416668025,
      "v": 78
    },
    {
      "midi": 54,
      "hit": false,
      "t": 220425.2590520812,
      "d": 199.6526979166665,
      "v": 48
    },
    {
      "midi": 54,
      "hit": false,
      "t": 220633.5923020812,
      "d": 199.6526979166665,
      "v": 14
    },
    {
      "midi": 74,
      "hit": false,
      "t": 220833.24500000002,
      "d": 381.94429166667396,
      "v": 127
    },
    {
      "midi": 54,
      "hit": false,
      "t": 220841.9255520812,
      "d": 199.6526979166665,
      "v": 109
    },
    {
      "midi": 54,
      "hit": false,
      "t": 221050.2588020812,
      "d": 199.6526979166665,
      "v": 16
    },
    {
      "midi": 72,
      "hit": false,
      "t": 221241.2309479167,
      "d": 928.8190729166672,
      "v": 127
    },
    {
      "midi": 54,
      "hit": false,
      "t": 221258.5920520812,
      "d": 199.6526979166665,
      "v": 67
    },
    {
      "midi": 54,
      "hit": false,
      "t": 221466.9253020812,
      "d": 199.6526979166665,
      "v": 15
    },
    {
      "midi": 54,
      "hit": false,
      "t": 221675.25855208118,
      "d": 199.6526979166665,
      "v": 53
    },
    {
      "midi": 54,
      "hit": false,
      "t": 221883.59180208118,
      "d": 199.6526979166665,
      "v": 16
    },
    {
      "midi": 54,
      "hit": false,
      "t": 222091.92505208118,
      "d": 199.6526979166665,
      "v": 45
    },
    {
      "midi": 74,
      "hit": false,
      "t": 222135.3278125,
      "d": 312.4998750000086,
      "v": 124
    },
    {
      "midi": 54,
      "hit": false,
      "t": 222300.25830208117,
      "d": 199.6526979166665,
      "v": 9
    },
    {
      "midi": 54,
      "hit": false,
      "t": 222508.59155208117,
      "d": 199.6526979166665,
      "v": 109
    },
    {
      "midi": 54,
      "hit": false,
      "t": 222716.92480208116,
      "d": 199.6526979166665,
      "v": 24
    },
    {
      "midi": 74,
      "hit": false,
      "t": 222890.53584375003,
      "d": 824.6524479166546,
      "v": 127
    },
    {
      "midi": 54,
      "hit": false,
      "t": 222925.25805208116,
      "d": 199.6526979166665,
      "v": 43
    },
    {
      "midi": 54,
      "hit": false,
      "t": 223133.59130208116,
      "d": 199.6526979166665,
      "v": 9
    },
    {
      "midi": 54,
      "hit": false,
      "t": 223341.92455208115,
      "d": 199.6526979166665,
      "v": 55
    },
    {
      "midi": 54,
      "hit": false,
      "t": 223550.25780208115,
      "d": 199.6526979166665,
      "v": 19
    },
    {
      "midi": 70,
      "hit": false,
      "t": 223749.91050000003,
      "d": 746.5274791666598,
      "v": 99
    },
    {
      "midi": 54,
      "hit": false,
      "t": 223758.59105208114,
      "d": 199.6526979166665,
      "v": 48
    },
    {
      "midi": 54,
      "hit": false,
      "t": 223966.92430208114,
      "d": 199.6526979166665,
      "v": 10
    },
    {
      "midi": 54,
      "hit": false,
      "t": 224175.25755208114,
      "d": 199.6526979166665,
      "v": 114
    },
    {
      "midi": 54,
      "hit": false,
      "t": 224383.59080208113,
      "d": 199.6526979166665,
      "v": 22
    },
    {
      "midi": 75,
      "hit": false,
      "t": 224548.5212916667,
      "d": 789.9302395833365,
      "v": 115
    },
    {
      "midi": 54,
      "hit": false,
      "t": 224591.92405208113,
      "d": 199.6526979166665,
      "v": 64
    },
    {
      "midi": 54,
      "hit": false,
      "t": 224800.25730208113,
      "d": 199.6526979166665,
      "v": 9
    },
    {
      "midi": 54,
      "hit": false,
      "t": 225008.59055208112,
      "d": 199.6526979166665,
      "v": 55
    },
    {
      "midi": 54,
      "hit": false,
      "t": 225216.92380208112,
      "d": 199.6526979166665,
      "v": 20
    },
    {
      "midi": 74,
      "hit": false,
      "t": 225416.57650000002,
      "d": 815.9718958333251,
      "v": 115
    },
    {
      "midi": 54,
      "hit": false,
      "t": 225425.2570520811,
      "d": 199.6526979166665,
      "v": 48
    },
    {
      "midi": 54,
      "hit": false,
      "t": 225633.5903020811,
      "d": 199.6526979166665,
      "v": 10
    },
    {
      "midi": 54,
      "hit": false,
      "t": 225841.9235520811,
      "d": 199.6526979166665,
      "v": 109
    },
    {
      "midi": 54,
      "hit": false,
      "t": 226050.2568020811,
      "d": 199.6526979166665,
      "v": 18
    },
    {
      "midi": 72,
      "hit": false,
      "t": 226249.9095,
      "d": 269.09711458333186,
      "v": 127
    },
    {
      "midi": 54,
      "hit": false,
      "t": 226258.5900520811,
      "d": 199.6526979166665,
      "v": 44
    },
    {
      "midi": 54,
      "hit": false,
      "t": 226466.9233020811,
      "d": 199.6526979166665,
      "v": 17
    },
    {
      "midi": 72,
      "hit": false,
      "t": 226657.89544791667,
      "d": 1137.1523229166633,
      "v": 127
    },
    {
      "midi": 54,
      "hit": false,
      "t": 226675.2565520811,
      "d": 199.6526979166665,
      "v": 52
    },
    {
      "midi": 54,
      "hit": false,
      "t": 226883.5898020811,
      "d": 199.6526979166665,
      "v": 20
    },
    {
      "midi": 54,
      "hit": false,
      "t": 227091.92305208108,
      "d": 199.6526979166665,
      "v": 46
    },
    {
      "midi": 54,
      "hit": false,
      "t": 227300.25630208108,
      "d": 199.6526979166665,
      "v": 17
    },
    {
      "midi": 54,
      "hit": false,
      "t": 227508.58955208107,
      "d": 199.6526979166665,
      "v": 109
    },
    {
      "midi": 54,
      "hit": false,
      "t": 227716.92280208107,
      "d": 199.6526979166665,
      "v": 21
    },
    {
      "midi": 54,
      "hit": false,
      "t": 227925.25605208107,
      "d": 199.6526979166665,
      "v": 68
    },
    {
      "midi": 72,
      "hit": false,
      "t": 227925.25605208334,
      "d": 60.76386458333582,
      "v": 74
    },
    {
      "midi": 72,
      "hit": false,
      "t": 228124.90875,
      "d": 381.94429166667396,
      "v": 127
    },
    {
      "midi": 54,
      "hit": false,
      "t": 228133.58930208106,
      "d": 199.6526979166665,
      "v": 14
    },
    {
      "midi": 54,
      "hit": false,
      "t": 228341.92255208106,
      "d": 199.6526979166665,
      "v": 55
    },
    {
      "midi": 70,
      "hit": false,
      "t": 228532.89469791666,
      "d": 208.33324999999604,
      "v": 108
    },
    {
      "midi": 54,
      "hit": false,
      "t": 228550.25580208105,
      "d": 199.6526979166665,
      "v": 18
    },
    {
      "midi": 69,
      "hit": false,
      "t": 228732.54739583333,
      "d": 156.24993749998976,
      "v": 86
    },
    {
      "midi": 54,
      "hit": false,
      "t": 228758.58905208105,
      "d": 199.6526979166665,
      "v": 41
    },
    {
      "midi": 70,
      "hit": false,
      "t": 228923.51954166667,
      "d": 182.29159375000745,
      "v": 83
    },
    {
      "midi": 54,
      "hit": false,
      "t": 228966.92230208105,
      "d": 199.6526979166665,
      "v": 13
    },
    {
      "midi": 67,
      "hit": false,
      "t": 229131.85279166666,
      "d": 850.6941041666723,
      "v": 88
    },
    {
      "midi": 54,
      "hit": false,
      "t": 229175.25555208104,
      "d": 199.6526979166665,
      "v": 115
    },
    {
      "midi": 54,
      "hit": false,
      "t": 229383.58880208104,
      "d": 104.16662500001257,
      "v": 23
    },
    {
      "midi": 54,
      "hit": false,
      "t": 229591.92205208106,
      "d": 199.6526979166665,
      "v": 42
    },
    {
      "midi": 54,
      "hit": false,
      "t": 229800.25530208106,
      "d": 199.6526979166665,
      "v": 10
    },
    {
      "midi": 74,
      "hit": false,
      "t": 229973.86634375,
      "d": 1258.6800520833349,
      "v": 102
    },
    {
      "midi": 54,
      "hit": false,
      "t": 230008.58855208106,
      "d": 199.6526979166665,
      "v": 55
    },
    {
      "midi": 54,
      "hit": false,
      "t": 230216.92180208105,
      "d": 199.6526979166665,
      "v": 23
    },
    {
      "midi": 54,
      "hit": false,
      "t": 230425.25505208105,
      "d": 199.6526979166665,
      "v": 46
    },
    {
      "midi": 54,
      "hit": false,
      "t": 230633.58830208104,
      "d": 199.6526979166665,
      "v": 12
    },
    {
      "midi": 54,
      "hit": false,
      "t": 230841.92155208104,
      "d": 199.6526979166665,
      "v": 111
    },
    {
      "midi": 54,
      "hit": false,
      "t": 231050.25480208104,
      "d": 199.6526979166665,
      "v": 20
    },
    {
      "midi": 72,
      "hit": false,
      "t": 231249.9075,
      "d": 295.13877083332045,
      "v": 115
    },
    {
      "midi": 54,
      "hit": false,
      "t": 231258.58805208103,
      "d": 199.6526979166665,
      "v": 68
    },
    {
      "midi": 74,
      "hit": false,
      "t": 231449.56019791667,
      "d": 190.97214583330788,
      "v": 86
    },
    {
      "midi": 54,
      "hit": false,
      "t": 231466.92130208103,
      "d": 199.6526979166665,
      "v": 14
    },
    {
      "midi": 75,
      "hit": false,
      "t": 231657.89344791663,
      "d": 399.305395833333,
      "v": 119
    },
    {
      "midi": 54,
      "hit": false,
      "t": 231675.25455208102,
      "d": 199.6526979166665,
      "v": 56
    },
    {
      "midi": 54,
      "hit": false,
      "t": 231883.58780208102,
      "d": 199.6526979166665,
      "v": 22
    },
    {
      "midi": 74,
      "hit": false,
      "t": 232065.8793958333,
      "d": 381.94429166667396,
      "v": 102
    },
    {
      "midi": 54,
      "hit": false,
      "t": 232091.92105208102,
      "d": 199.6526979166665,
      "v": 49
    },
    {
      "midi": 54,
      "hit": false,
      "t": 232300.254302081,
      "d": 199.6526979166665,
      "v": 10
    },
    {
      "midi": 72,
      "hit": false,
      "t": 232482.54589583332,
      "d": 425.3470520833216,
      "v": 124
    },
    {
      "midi": 54,
      "hit": false,
      "t": 232508.587552081,
      "d": 199.6526979166665,
      "v": 116
    },
    {
      "midi": 54,
      "hit": false,
      "t": 232716.920802081,
      "d": 199.6526979166665,
      "v": 24
    },
    {
      "midi": 70,
      "hit": false,
      "t": 232916.57349999997,
      "d": 208.33324999999604,
      "v": 105
    },
    {
      "midi": 54,
      "hit": false,
      "t": 232925.254052081,
      "d": 199.6526979166665,
      "v": 40
    },
    {
      "midi": 54,
      "hit": false,
      "t": 233133.587302081,
      "d": 199.6526979166665,
      "v": 11
    },
    {
      "midi": 70,
      "hit": false,
      "t": 233315.8788958333,
      "d": 486.11091666668653,
      "v": 127
    },
    {
      "midi": 54,
      "hit": false,
      "t": 233341.920552081,
      "d": 199.6526979166665,
      "v": 56
    },
    {
      "midi": 54,
      "hit": false,
      "t": 233550.253802081,
      "d": 199.6526979166665,
      "v": 20
    },
    {
      "midi": 72,
      "hit": false,
      "t": 233749.90649999998,
      "d": 399.305395833333,
      "v": 112
    },
    {
      "midi": 54,
      "hit": false,
      "t": 233758.58705208098,
      "d": 199.6526979166665,
      "v": 48
    },
    {
      "midi": 54,
      "hit": false,
      "t": 233966.92030208098,
      "d": 199.6526979166665,
      "v": 14
    },
    {
      "midi": 74,
      "hit": false,
      "t": 234149.21189583332,
      "d": 407.98594791666255,
      "v": 115
    },
    {
      "midi": 54,
      "hit": false,
      "t": 234175.25355208098,
      "d": 199.6526979166665,
      "v": 109
    },
    {
      "midi": 54,
      "hit": false,
      "t": 234383.58680208097,
      "d": 199.6526979166665,
      "v": 16
    },
    {
      "midi": 72,
      "hit": false,
      "t": 234574.55894791664,
      "d": 842.0135520833137,
      "v": 127
    },
    {
      "midi": 54,
      "hit": false,
      "t": 234591.92005208097,
      "d": 199.6526979166665,
      "v": 67
    },
    {
      "midi": 54,
      "hit": false,
      "t": 234800.25330208096,
      "d": 199.6526979166665,
      "v": 15
    },
    {
      "midi": 54,
      "hit": false,
      "t": 235008.58655208096,
      "d": 199.6526979166665,
      "v": 53
    },
    {
      "midi": 54,
      "hit": false,
      "t": 235216.91980208096,
      "d": 199.6526979166665,
      "v": 16
    },
    {
      "midi": 74,
      "hit": false,
      "t": 235399.2113958333,
      "d": 321.18042708333815,
      "v": 115
    },
    {
      "midi": 54,
      "hit": false,
      "t": 235425.25305208095,
      "d": 199.6526979166665,
      "v": 45
    },
    {
      "midi": 54,
      "hit": false,
      "t": 235633.58630208095,
      "d": 199.6526979166665,
      "v": 9
    },
    {
      "midi": 54,
      "hit": false,
      "t": 235841.91955208094,
      "d": 199.6526979166665,
      "v": 109
    },
    {
      "midi": 54,
      "hit": false,
      "t": 236050.25280208094,
      "d": 199.6526979166665,
      "v": 24
    },
    {
      "midi": 74,
      "hit": false,
      "t": 236241.22494791663,
      "d": 842.0135520833428,
      "v": 127
    },
    {
      "midi": 54,
      "hit": false,
      "t": 236258.58605208094,
      "d": 199.6526979166665,
      "v": 43
    },
    {
      "midi": 54,
      "hit": false,
      "t": 236466.91930208093,
      "d": 199.6526979166665,
      "v": 9
    },
    {
      "midi": 54,
      "hit": false,
      "t": 236675.25255208093,
      "d": 199.6526979166665,
      "v": 55
    },
    {
      "midi": 54,
      "hit": false,
      "t": 236883.58580208092,
      "d": 199.6526979166665,
      "v": 19
    },
    {
      "midi": 70,
      "hit": false,
      "t": 237083.23849999998,
      "d": 815.9718958333251,
      "v": 97
    },
    {
      "midi": 54,
      "hit": false,
      "t": 237091.91905208092,
      "d": 199.6526979166665,
      "v": 48
    },
    {
      "midi": 54,
      "hit": false,
      "t": 237300.25230208092,
      "d": 199.6526979166665,
      "v": 10
    },
    {
      "midi": 54,
      "hit": false,
      "t": 237508.5855520809,
      "d": 199.6526979166665,
      "v": 114
    },
    {
      "midi": 54,
      "hit": false,
      "t": 237716.9188020809,
      "d": 199.6526979166665,
      "v": 22
    },
    {
      "midi": 75,
      "hit": false,
      "t": 237907.89094791663,
      "d": 755.2080312499893,
      "v": 127
    },
    {
      "midi": 54,
      "hit": false,
      "t": 237925.2520520809,
      "d": 199.6526979166665,
      "v": 64
    },
    {
      "midi": 54,
      "hit": false,
      "t": 238133.5853020809,
      "d": 199.6526979166665,
      "v": 9
    },
    {
      "midi": 54,
      "hit": false,
      "t": 238341.9185520809,
      "d": 199.6526979166665,
      "v": 55
    },
    {
      "midi": 54,
      "hit": false,
      "t": 238550.2518020809,
      "d": 199.6526979166665,
      "v": 20
    },
    {
      "midi": 74,
      "hit": false,
      "t": 238723.86284374996,
      "d": 833.3330000000133,
      "v": 124
    },
    {
      "midi": 54,
      "hit": false,
      "t": 238758.5850520809,
      "d": 199.6526979166665,
      "v": 48
    },
    {
      "midi": 54,
      "hit": false,
      "t": 238966.91830208089,
      "d": 199.6526979166665,
      "v": 10
    },
    {
      "midi": 54,
      "hit": false,
      "t": 239175.25155208088,
      "d": 199.6526979166665,
      "v": 109
    },
    {
      "midi": 54,
      "hit": false,
      "t": 239383.58480208088,
      "d": 199.6526979166665,
      "v": 18
    },
    {
      "midi": 72,
      "hit": false,
      "t": 239583.23749999996,
      "d": 269.09711458333186,
      "v": 127
    },
    {
      "midi": 54,
      "hit": false,
      "t": 239591.91805208087,
      "d": 199.6526979166665,
      "v": 44
    },
    {
      "midi": 54,
      "hit": false,
      "t": 239800.25130208087,
      "d": 199.6526979166665,
      "v": 17
    },
    {
      "midi": 72,
      "hit": false,
      "t": 239999.90399999995,
      "d": 1223.9578437499877,
      "v": 127
    },
    {
      "midi": 54,
      "hit": false,
      "t": 240008.58455208087,
      "d": 199.6526979166665,
      "v": 52
    },
    {
      "midi": 54,
      "hit": false,
      "t": 240216.91780208086,
      "d": 199.6526979166665,
      "v": 20
    },
    {
      "midi": 54,
      "hit": false,
      "t": 240425.25105208086,
      "d": 199.6526979166665,
      "v": 46
    },
    {
      "midi": 54,
      "hit": false,
      "t": 240633.58430208085,
      "d": 199.6526979166665,
      "v": 17
    },
    {
      "midi": 54,
      "hit": false,
      "t": 240841.91755208085,
      "d": 199.6526979166665,
      "v": 109
    },
    {
      "midi": 54,
      "hit": false,
      "t": 241050.25080208085,
      "d": 199.6526979166665,
      "v": 21
    },
    {
      "midi": 70,
      "hit": false,
      "t": 241249.90349999993,
      "d": 69.44441666666535,
      "v": 94
    },
    {
      "midi": 54,
      "hit": false,
      "t": 241258.58405208084,
      "d": 199.6526979166665,
      "v": 68
    },
    {
      "midi": 70,
      "hit": false,
      "t": 241432.19509374994,
      "d": 355.90263541665627,
      "v": 124
    },
    {
      "midi": 54,
      "hit": false,
      "t": 241466.91730208084,
      "d": 199.6526979166665,
      "v": 14
    },
    {
      "midi": 54,
      "hit": false,
      "t": 241675.25055208083,
      "d": 199.6526979166665,
      "v": 55
    },
    {
      "midi": 69,
      "hit": false,
      "t": 241840.1810416666,
      "d": 78.12496874999488,
      "v": 52
    },
    {
      "midi": 54,
      "hit": false,
      "t": 241883.58380208083,
      "d": 199.6526979166665,
      "v": 18
    },
    {
      "midi": 69,
      "hit": false,
      "t": 242057.19484374992,
      "d": 390.6248437500035,
      "v": 124
    },
    {
      "midi": 54,
      "hit": false,
      "t": 242091.91705208083,
      "d": 199.6526979166665,
      "v": 41
    },
    {
      "midi": 54,
      "hit": false,
      "t": 242300.25030208082,
      "d": 199.6526979166665,
      "v": 13
    },
    {
      "midi": 67,
      "hit": false,
      "t": 242482.54189583327,
      "d": 494.79146875001607,
      "v": 112
    },
    {
      "midi": 54,
      "hit": false,
      "t": 242508.58355208082,
      "d": 199.6526979166665,
      "v": 115
    },
    {
      "midi": 54,
      "hit": false,
      "t": 242716.9168020808,
      "d": 199.6526979166665,
      "v": 23
    },
    {
      "midi": 74,
      "hit": false,
      "t": 242916.56949999995,
      "d": 312.4998750000086,
      "v": 119
    },
    {
      "midi": 54,
      "hit": false,
      "t": 242925.2500520808,
      "d": 199.6526979166665,
      "v": 42
    },
    {
      "midi": 54,
      "hit": false,
      "t": 243133.5833020808,
      "d": 199.6526979166665,
      "v": 10
    },
    {
      "midi": 74,
      "hit": false,
      "t": 243333.23599999998,
      "d": 989.582937500003,
      "v": 127
    },
    {
      "midi": 54,
      "hit": false,
      "t": 243341.9165520808,
      "d": 199.6526979166665,
      "v": 55
    },
    {
      "midi": 54,
      "hit": false,
      "t": 243550.2498020808,
      "d": 199.6526979166665,
      "v": 23
    },
    {
      "midi": 54,
      "hit": false,
      "t": 243758.5830520808,
      "d": 199.6526979166665,
      "v": 46
    },
    {
      "midi": 54,
      "hit": false,
      "t": 243966.9163020808,
      "d": 199.6526979166665,
      "v": 12
    },
    {
      "midi": 54,
      "hit": false,
      "t": 244175.2495520808,
      "d": 199.6526979166665,
      "v": 111
    },
    {
      "midi": 54,
      "hit": false,
      "t": 244383.58280208078,
      "d": 199.6526979166665,
      "v": 20
    },
    {
      "midi": 54,
      "hit": false,
      "t": 244591.91605208078,
      "d": 199.6526979166665,
      "v": 68
    },
    {
      "midi": 74,
      "hit": false,
      "t": 244591.9160520833,
      "d": 69.44441666666535,
      "v": 97
    },
    {
      "midi": 74,
      "hit": false,
      "t": 244791.56874999998,
      "d": 156.24993749998976,
      "v": 97
    },
    {
      "midi": 54,
      "hit": false,
      "t": 244800.24930208077,
      "d": 199.6526979166665,
      "v": 14
    },
    {
      "midi": 75,
      "hit": false,
      "t": 244999.90199999997,
      "d": 442.7081562499807,
      "v": 127
    },
    {
      "midi": 54,
      "hit": false,
      "t": 245008.58255208077,
      "d": 199.6526979166665,
      "v": 56
    },
    {
      "midi": 54,
      "hit": false,
      "t": 245216.91580208077,
      "d": 199.6526979166665,
      "v": 22
    },
    {
      "midi": 74,
      "hit": false,
      "t": 245416.56849999996,
      "d": 425.3470520833216,
      "v": 119
    },
    {
      "midi": 54,
      "hit": false,
      "t": 245425.24905208076,
      "d": 199.6526979166665,
      "v": 49
    },
    {
      "midi": 54,
      "hit": false,
      "t": 245633.58230208076,
      "d": 199.6526979166665,
      "v": 10
    },
    {
      "midi": 72,
      "hit": false,
      "t": 245824.55444791663,
      "d": 572.9164375000109,
      "v": 90
    },
    {
      "midi": 54,
      "hit": false,
      "t": 245841.91555208075,
      "d": 199.6526979166665,
      "v": 116
    },
    {
      "midi": 54,
      "hit": false,
      "t": 246050.24880208075,
      "d": 199.6526979166665,
      "v": 24
    },
    {
      "midi": 54,
      "hit": false,
      "t": 246258.58205208075,
      "d": 199.6526979166665,
      "v": 40
    },
    {
      "midi": 70,
      "hit": false,
      "t": 246293.30426041663,
      "d": 225.6943541666842,
      "v": 42
    },
    {
      "midi": 54,
      "hit": false,
      "t": 246466.91530208074,
      "d": 199.6526979166665,
      "v": 11
    },
    {
      "midi": 70,
      "hit": false,
      "t": 246649.2068958333,
      "d": 425.3470520833216,
      "v": 127
    },
    {
      "midi": 54,
      "hit": false,
      "t": 246675.24855208074,
      "d": 199.6526979166665,
      "v": 56
    },
    {
      "midi": 54,
      "hit": false,
      "t": 246883.58180208073,
      "d": 199.6526979166665,
      "v": 20
    },
    {
      "midi": 72,
      "hit": false,
      "t": 247065.8733958333,
      "d": 381.94429166667396,
      "v": 74
    },
    {
      "midi": 54,
      "hit": false,
      "t": 247091.91505208073,
      "d": 199.6526979166665,
      "v": 48
    },
    {
      "midi": 54,
      "hit": false,
      "t": 247300.24830208073,
      "d": 199.6526979166665,
      "v": 14
    },
    {
      "midi": 74,
      "hit": false,
      "t": 247456.4982395833,
      "d": 381.94429166667396,
      "v": 108
    },
    {
      "midi": 54,
      "hit": false,
      "t": 247508.58155208072,
      "d": 199.6526979166665,
      "v": 109
    },
    {
      "midi": 54,
      "hit": false,
      "t": 247716.91480208072,
      "d": 199.6526979166665,
      "v": 16
    },
    {
      "midi": 72,
      "hit": false,
      "t": 247873.16473958333,
      "d": 850.6941041666723,
      "v": 108
    },
    {
      "midi": 54,
      "hit": false,
      "t": 247925.24805208071,
      "d": 199.6526979166665,
      "v": 67
    },
    {
      "midi": 54,
      "hit": false,
      "t": 248133.5813020807,
      "d": 199.6526979166665,
      "v": 15
    },
    {
      "midi": 54,
      "hit": false,
      "t": 248341.9145520807,
      "d": 199.6526979166665,
      "v": 53
    },
    {
      "midi": 54,
      "hit": false,
      "t": 248550.2478020807,
      "d": 199.6526979166665,
      "v": 16
    },
    {
      "midi": 74,
      "hit": false,
      "t": 248706.49773958334,
      "d": 407.98594791666255,
      "v": 83
    },
    {
      "midi": 54,
      "hit": false,
      "t": 248758.5810520807,
      "d": 199.6526979166665,
      "v": 45
    },
    {
      "midi": 54,
      "hit": false,
      "t": 248966.9143020807,
      "d": 199.6526979166665,
      "v": 9
    },
    {
      "midi": 54,
      "hit": false,
      "t": 249175.2475520807,
      "d": 199.6526979166665,
      "v": 109
    },
    {
      "midi": 54,
      "hit": false,
      "t": 249383.5808020807,
      "d": 199.6526979166665,
      "v": 24
    },
    {
      "midi": 74,
      "hit": false,
      "t": 249548.51129166668,
      "d": 842.0135520833428,
      "v": 105
    },
    {
      "midi": 54,
      "hit": false,
      "t": 249591.91405208068,
      "d": 199.6526979166665,
      "v": 43
    },
    {
      "midi": 54,
      "hit": false,
      "t": 249800.24730208068,
      "d": 199.6526979166665,
      "v": 9
    },
    {
      "midi": 54,
      "hit": false,
      "t": 250008.58055208068,
      "d": 199.6526979166665,
      "v": 55
    },
    {
      "midi": 54,
      "hit": false,
      "t": 250216.91380208067,
      "d": 199.6526979166665,
      "v": 19
    },
    {
      "midi": 70,
      "hit": false,
      "t": 250399.20539583336,
      "d": 824.6524479166546,
      "v": 74
    },
    {
      "midi": 54,
      "hit": false,
      "t": 250425.24705208067,
      "d": 199.6526979166665,
      "v": 48
    },
    {
      "midi": 54,
      "hit": false,
      "t": 250633.58030208066,
      "d": 199.6526979166665,
      "v": 10
    },
    {
      "midi": 54,
      "hit": false,
      "t": 250841.91355208066,
      "d": 199.6526979166665,
      "v": 114
    },
    {
      "midi": 54,
      "hit": false,
      "t": 251050.24680208066,
      "d": 199.6526979166665,
      "v": 22
    },
    {
      "midi": 75,
      "hit": false,
      "t": 251223.85784375,
      "d": 842.0135520833428,
      "v": 99
    },
    {
      "midi": 54,
      "hit": false,
      "t": 251258.58005208065,
      "d": 199.6526979166665,
      "v": 64
    },
    {
      "midi": 54,
      "hit": false,
      "t": 251466.91330208065,
      "d": 199.6526979166665,
      "v": 9
    },
    {
      "midi": 54,
      "hit": false,
      "t": 251675.24655208064,
      "d": 199.6526979166665,
      "v": 55
    },
    {
      "midi": 54,
      "hit": false,
      "t": 251883.57980208064,
      "d": 199.6526979166665,
      "v": 20
    },
    {
      "midi": 74,
      "hit": false,
      "t": 252065.87139583335,
      "d": 798.610791666666,
      "v": 127
    },
    {
      "midi": 54,
      "hit": false,
      "t": 252091.91305208064,
      "d": 199.6526979166665,
      "v": 48
    },
    {
      "midi": 54,
      "hit": false,
      "t": 252300.24630208063,
      "d": 199.6526979166665,
      "v": 10
    },
    {
      "midi": 54,
      "hit": false,
      "t": 252508.57955208063,
      "d": 199.6526979166665,
      "v": 109
    },
    {
      "midi": 54,
      "hit": false,
      "t": 252716.91280208062,
      "d": 199.6526979166665,
      "v": 18
    },
    {
      "midi": 72,
      "hit": false,
      "t": 252899.20439583337,
      "d": 234.37490625001374,
      "v": 97
    },
    {
      "midi": 54,
      "hit": false,
      "t": 252925.24605208062,
      "d": 199.6526979166665,
      "v": 44
    },
    {
      "midi": 54,
      "hit": false,
      "t": 253133.57930208062,
      "d": 199.6526979166665,
      "v": 17
    },
    {
      "midi": 72,
      "hit": false,
      "t": 253298.5097916667,
      "d": 2291.6657499999856,
      "v": 115
    },
    {
      "midi": 54,
      "hit": false,
      "t": 253341.9125520806,
      "d": 199.6526979166665,
      "v": 52
    },
    {
      "midi": 54,
      "hit": false,
      "t": 253550.2458020806,
      "d": 199.6526979166665,
      "v": 20
    },
    {
      "midi": 54,
      "hit": false,
      "t": 253758.5790520806,
      "d": 199.6526979166665,
      "v": 46
    },
    {
      "midi": 54,
      "hit": false,
      "t": 253966.9123020806,
      "d": 199.6526979166665,
      "v": 17
    },
    {
      "midi": 54,
      "hit": false,
      "t": 254175.2455520806,
      "d": 199.6526979166665,
      "v": 109
    },
    {
      "midi": 54,
      "hit": false,
      "t": 254383.5788020806,
      "d": 199.6526979166665,
      "v": 21
    },
    {
      "midi": 54,
      "hit": false,
      "t": 254591.9120520806,
      "d": 199.6526979166665,
      "v": 68
    },
    {
      "midi": 54,
      "hit": false,
      "t": 254800.24530208058,
      "d": 199.6526979166665,
      "v": 14
    },
    {
      "midi": 54,
      "hit": false,
      "t": 255008.57855208058,
      "d": 199.6526979166665,
      "v": 55
    },
    {
      "midi": 54,
      "hit": false,
      "t": 255216.91180208058,
      "d": 199.6526979166665,
      "v": 18
    },
    {
      "midi": 54,
      "hit": false,
      "t": 255425.24505208057,
      "d": 199.6526979166665,
      "v": 41
    },
    {
      "midi": 70,
      "hit": false,
      "t": 255581.49498958336,
      "d": 234.37490624998463,
      "v": 119
    },
    {
      "midi": 54,
      "hit": false,
      "t": 255633.57830208057,
      "d": 199.6526979166665,
      "v": 13
    },
    {
      "midi": 69,
      "hit": false,
      "t": 255798.50879166668,
      "d": 407.98594791666255,
      "v": 94
    },
    {
      "midi": 54,
      "hit": false,
      "t": 255841.91155208056,
      "d": 199.6526979166665,
      "v": 115
    },
    {
      "midi": 54,
      "hit": false,
      "t": 256050.24480208056,
      "d": 199.6526979166665,
      "v": 23
    },
    {
      "midi": 67,
      "hit": false,
      "t": 256232.53639583333,
      "d": 321.18042708333815,
      "v": 112
    },
    {
      "midi": 54,
      "hit": false,
      "t": 256258.57805208056,
      "d": 199.6526979166665,
      "v": 42
    },
    {
      "midi": 54,
      "hit": false,
      "t": 256466.91130208055,
      "d": 199.6526979166665,
      "v": 10
    },
    {
      "midi": 67,
      "hit": false,
      "t": 256649.20289583332,
      "d": 269.09711458333186,
      "v": 127
    },
    {
      "midi": 54,
      "hit": false,
      "t": 256675.24455208055,
      "d": 199.6526979166665,
      "v": 55
    },
    {
      "midi": 54,
      "hit": false,
      "t": 256883.57780208054,
      "d": 199.6526979166665,
      "v": 23
    },
    {
      "midi": 54,
      "hit": false,
      "t": 257091.91105208054,
      "d": 199.6526979166665,
      "v": 46
    },
    {
      "midi": 54,
      "hit": false,
      "t": 257300.24430208054,
      "d": 199.6526979166665,
      "v": 12
    },
    {
      "midi": 67,
      "hit": false,
      "t": 257300.24430208333,
      "d": 78.12496874999488,
      "v": 127
    },
    {
      "midi": 54,
      "hit": false,
      "t": 257508.57755208053,
      "d": 199.6526979166665,
      "v": 111
    },
    {
      "midi": 54,
      "hit": false,
      "t": 257716.91080208053,
      "d": 199.6526979166665,
      "v": 20
    },
    {
      "midi": 54,
      "hit": false,
      "t": 257925.24405208052,
      "d": 199.6526979166665,
      "v": 68
    },
    {
      "midi": 67,
      "hit": false,
      "t": 257942.60515624998,
      "d": 52.083312500006286,
      "v": 127
    },
    {
      "midi": 54,
      "hit": false,
      "t": 258133.57730208052,
      "d": 199.6526979166665,
      "v": 14
    },
    {
      "midi": 54,
      "hit": false,
      "t": 258341.91055208052,
      "d": 199.6526979166665,
      "v": 56
    },
    {
      "midi": 67,
      "hit": false,
      "t": 258541.56324999998,
      "d": 52.083312500006286,
      "v": 127
    },
    {
      "midi": 54,
      "hit": false,
      "t": 258550.2438020805,
      "d": 199.6526979166665,
      "v": 22
    },
    {
      "midi": 54,
      "hit": false,
      "t": 258758.5770520805,
      "d": 199.6526979166665,
      "v": 49
    },
    {
      "midi": 67,
      "hit": false,
      "t": 258958.22974999997,
      "d": 104.16662500001257,
      "v": 38
    },
    {
      "midi": 54,
      "hit": false,
      "t": 258966.9103020805,
      "d": 199.6526979166665,
      "v": 10
    },
    {
      "midi": 65,
      "hit": false,
      "t": 259166.563,
      "d": 69.44441666666535,
      "v": 127
    },
    {
      "midi": 54,
      "hit": false,
      "t": 259175.2435520805,
      "d": 199.6526979166665,
      "v": 116
    },
    {
      "midi": 54,
      "hit": false,
      "t": 259383.5768020805,
      "d": 199.6526979166665,
      "v": 24
    },
    {
      "midi": 54,
      "hit": false,
      "t": 259591.9100520805,
      "d": 199.6526979166665,
      "v": 40
    },
    {
      "midi": 67,
      "hit": false,
      "t": 259591.91005208332,
      "d": 78.12496874999488,
      "v": 90
    },
    {
      "midi": 67,
      "hit": false,
      "t": 259782.88219791665,
      "d": 69.44441666666535,
      "v": 73
    },
    {
      "midi": 54,
      "hit": false,
      "t": 259800.2433020805,
      "d": 199.6526979166665,
      "v": 11
    },
    {
      "midi": 67,
      "hit": false,
      "t": 259982.53489583332,
      "d": 86.80552083332441,
      "v": 127
    },
    {
      "midi": 54,
      "hit": false,
      "t": 260008.57655208049,
      "d": 199.6526979166665,
      "v": 56
    },
    {
      "midi": 54,
      "hit": false,
      "t": 260216.90980208048,
      "d": 199.6526979166665,
      "v": 20
    },
    {
      "midi": 67,
      "hit": false,
      "t": 260416.56249999997,
      "d": 52.083312500006286,
      "v": 50
    },
    {
      "midi": 54,
      "hit": false,
      "t": 260425.24305208048,
      "d": 199.6526979166665,
      "v": 48
    },
    {
      "midi": 67,
      "hit": false,
      "t": 260624.89574999997,
      "d": 43.402760416676756,
      "v": 127
    },
    {
      "midi": 54,
      "hit": false,
      "t": 260633.57630208047,
      "d": 199.6526979166665,
      "v": 14
    },
    {
      "midi": 54,
      "hit": false,
      "t": 260841.90955208047,
      "d": 199.6526979166665,
      "v": 109
    },
    {
      "midi": 54,
      "hit": false,
      "t": 261050.24280208047,
      "d": 199.6526979166665,
      "v": 16
    },
    {
      "midi": 67,
      "hit": false,
      "t": 261249.89549999998,
      "d": 52.083312500006286,
      "v": 127
    },
    {
      "midi": 54,
      "hit": false,
      "t": 261258.57605208046,
      "d": 199.6526979166665,
      "v": 67
    },
    {
      "midi": 54,
      "hit": false,
      "t": 261466.90930208046,
      "d": 199.6526979166665,
      "v": 15
    },
    {
      "midi": 67,
      "hit": false,
      "t": 261657.88144791665,
      "d": 104.16662500001257,
      "v": 73
    },
    {
      "midi": 54,
      "hit": false,
      "t": 261675.24255208045,
      "d": 199.6526979166665,
      "v": 53
    },
    {
      "midi": 65,
      "hit": false,
      "t": 261874.89525,
      "d": 60.76386458333582,
      "v": 127
    },
    {
      "midi": 54,
      "hit": false,
      "t": 261883.57580208045,
      "d": 199.6526979166665,
      "v": 16
    },
    {
      "midi": 54,
      "hit": false,
      "t": 262091.90905208045,
      "d": 199.65269791669562,
      "v": 45
    },
    {
      "midi": 67,
      "hit": false,
      "t": 262282.8811979167,
      "d": 112.847177083313,
      "v": 59
    },
    {
      "midi": 54,
      "hit": false,
      "t": 262300.2423020805,
      "d": 199.6526979166665,
      "v": 9
    },
    {
      "midi": 65,
      "hit": false,
      "t": 262499.895,
      "d": 86.80552083335351,
      "v": 127
    },
    {
      "midi": 54,
      "hit": false,
      "t": 262508.5755520805,
      "d": 199.6526979166665,
      "v": 109
    },
    {
      "midi": 54,
      "hit": false,
      "t": 262716.90880208055,
      "d": 199.6526979166665,
      "v": 24
    },
    {
      "midi": 65,
      "hit": false,
      "t": 262916.5615,
      "d": 69.44441666669445,
      "v": 127
    },
    {
      "midi": 54,
      "hit": false,
      "t": 262925.2420520806,
      "d": 199.6526979166665,
      "v": 43
    },
    {
      "midi": 54,
      "hit": false,
      "t": 263133.5753020806,
      "d": 199.6526979166665,
      "v": 9
    },
    {
      "midi": 67,
      "hit": false,
      "t": 263324.5474479167,
      "d": 86.80552083335351,
      "v": 127
    },
    {
      "midi": 54,
      "hit": false,
      "t": 263341.9085520806,
      "d": 199.6526979166665,
      "v": 55
    },
    {
      "midi": 67,
      "hit": false,
      "t": 263541.56125,
      "d": 52.08331249997718,
      "v": 45
    },
    {
      "midi": 54,
      "hit": false,
      "t": 263550.24180208065,
      "d": 199.6526979166665,
      "v": 19
    },
    {
      "midi": 54,
      "hit": false,
      "t": 263758.5750520807,
      "d": 199.6526979166665,
      "v": 48
    },
    {
      "midi": 67,
      "hit": false,
      "t": 263801.97781250003,
      "d": 60.76386458333582,
      "v": 60
    },
    {
      "midi": 54,
      "hit": false,
      "t": 263966.9083020807,
      "d": 199.6526979166665,
      "v": 10
    },
    {
      "midi": 67,
      "hit": false,
      "t": 263966.9083020834,
      "d": 78.12496874999488,
      "v": 127
    },
    {
      "midi": 54,
      "hit": false,
      "t": 264175.2415520807,
      "d": 199.6526979166665,
      "v": 114
    },
    {
      "midi": 54,
      "hit": false,
      "t": 264383.57480208075,
      "d": 199.6526979166665,
      "v": 22
    },
    {
      "midi": 67,
      "hit": false,
      "t": 264426.97756250005,
      "d": 78.12496874999488,
      "v": 45
    },
    {
      "midi": 67,
      "hit": false,
      "t": 264583.22750000004,
      "d": 69.44441666669445,
      "v": 127
    },
    {
      "midi": 54,
      "hit": false,
      "t": 264591.9080520808,
      "d": 199.6526979166665,
      "v": 64
    },
    {
      "midi": 54,
      "hit": false,
      "t": 264800.2413020808,
      "d": 199.6526979166665,
      "v": 9
    },
    {
      "midi": 67,
      "hit": false,
      "t": 264999.8940000001,
      "d": 112.847177083313,
      "v": 77
    },
    {
      "midi": 54,
      "hit": false,
      "t": 265008.5745520808,
      "d": 199.6526979166665,
      "v": 55
    },
    {
      "midi": 67,
      "hit": false,
      "t": 265208.22725000005,
      "d": 69.44441666669445,
      "v": 112
    },
    {
      "midi": 54,
      "hit": false,
      "t": 265216.90780208085,
      "d": 199.6526979166665,
      "v": 20
    },
    {
      "midi": 54,
      "hit": false,
      "t": 265425.2410520809,
      "d": 199.6526979166665,
      "v": 48
    },
    {
      "midi": 67,
      "hit": false,
      "t": 265425.24105208344,
      "d": 69.44441666669445,
      "v": 67
    },
    {
      "midi": 67,
      "hit": false,
      "t": 265624.8937500001,
      "d": 95.48607291665394,
      "v": 78
    },
    {
      "midi": 54,
      "hit": false,
      "t": 265633.5743020809,
      "d": 199.6526979166665,
      "v": 10
    },
    {
      "midi": 65,
      "hit": false,
      "t": 265833.2270000001,
      "d": 164.9304895833484,
      "v": 127
    },
    {
      "midi": 54,
      "hit": false,
      "t": 265841.9075520809,
      "d": 199.6526979166665,
      "v": 109
    },
    {
      "midi": 54,
      "hit": false,
      "t": 266050.24080208095,
      "d": 199.6526979166665,
      "v": 18
    },
    {
      "midi": 54,
      "hit": false,
      "t": 266258.574052081,
      "d": 199.6526979166665,
      "v": 44
    },
    {
      "midi": 67,
      "hit": false,
      "t": 266258.5740520834,
      "d": 173.61104166664882,
      "v": 65
    },
    {
      "midi": 54,
      "hit": false,
      "t": 266466.907302081,
      "d": 173.61104166664882,
      "v": 17
    }
  ]
}