{
  "jsonPath": "Rock/Black Metal/Rotting Christ/under-the-name-of-legion.json",
  "path": "Rock\\Black Metal\\Rotting Christ\\Under The Name Of Legion.mid",
  "name": "Under The Name Of Legion",
  "difficulty": "Advanced",
  "bpm": 150,
  "notes": [
    {
      "midi": 64,
      "hit": false,
      "t": 2600,
      "d": 193.33333333333348,
      "v": 64
    },
    {
      "midi": 66,
      "hit": false,
      "t": 2800,
      "d": 193.33333333333348,
      "v": 64
    },
    {
      "midi": 67,
      "hit": false,
      "t": 3000,
      "d": 193.33333333333348,
      "v": 64
    },
    {
      "midi": 64,
      "hit": false,
      "t": 3200,
      "d": 193.33333333333348,
      "v": 64
    },
    {
      "midi": 67,
      "hit": false,
      "t": 3200,
      "d": 493.3333333333335,
      "v": 64
    },
    {
      "midi": 71,
      "hit": false,
      "t": 3200,
      "d": 680,
      "v": 64
    },
    {
      "midi": 64,
      "hit": false,
      "t": 3400,
      "d": 573.3333333333335,
      "v": 64
    },
    {
      "midi": 67,
      "hit": false,
      "t": 3800,
      "d": 193.33333333333348,
      "v": 64
    },
    {
      "midi": 64,
      "hit": false,
      "t": 4000,
      "d": 193.33333333333303,
      "v": 64
    },
    {
      "midi": 71,
      "hit": false,
      "t": 4000,
      "d": 373.33333333333303,
      "v": 64
    },
    {
      "midi": 67,
      "hit": false,
      "t": 4000,
      "d": 400,
      "v": 64
    },
    {
      "midi": 62,
      "hit": false,
      "t": 4000,
      "d": 760,
      "v": 64
    },
    {
      "midi": 64,
      "hit": false,
      "t": 4200,
      "d": 193.33333333333303,
      "v": 64
    },
    {
      "midi": 64,
      "hit": false,
      "t": 4400,
      "d": 186.66666666666697,
      "v": 64
    },
    {
      "midi": 69,
      "hit": false,
      "t": 4400,
      "d": 186.66666666666697,
      "v": 64
    },
    {
      "midi": 71,
      "hit": false,
      "t": 4600,
      "d": 186.66666666666697,
      "v": 64
    },
    {
      "midi": 67,
      "hit": false,
      "t": 4600,
      "d": 200,
      "v": 64
    },
    {
      "midi": 64,
      "hit": false,
      "t": 4800,
      "d": 186.66666666666697,
      "v": 64
    },
    {
      "midi": 60,
      "hit": false,
      "t": 4800,
      "d": 360,
      "v": 64
    },
    {
      "midi": 69,
      "hit": false,
      "t": 4800,
      "d": 400,
      "v": 64
    },
    {
      "midi": 64,
      "hit": false,
      "t": 5000,
      "d": 546.666666666667,
      "v": 64
    },
    {
      "midi": 67,
      "hit": false,
      "t": 5200,
      "d": 320,
      "v": 64
    },
    {
      "midi": 60,
      "hit": false,
      "t": 5200,
      "d": 400,
      "v": 64
    },
    {
      "midi": 67,
      "hit": false,
      "t": 5600,
      "d": 533.333333333333,
      "v": 64
    },
    {
      "midi": 59,
      "hit": false,
      "t": 5600,
      "d": 573.333333333333,
      "v": 64
    },
    {
      "midi": 64,
      "hit": false,
      "t": 5600,
      "d": 746.666666666667,
      "v": 64
    },
    {
      "midi": 59,
      "hit": false,
      "t": 6200,
      "d": 186.66666666666697,
      "v": 64
    },
    {
      "midi": 67,
      "hit": false,
      "t": 6200,
      "d": 186.66666666666697,
      "v": 64
    },
    {
      "midi": 64,
      "hit": false,
      "t": 6400,
      "d": 160,
      "v": 64
    },
    {
      "midi": 60,
      "hit": false,
      "t": 6400,
      "d": 293.33333333333303,
      "v": 64
    },
    {
      "midi": 57,
      "hit": false,
      "t": 6400,
      "d": 386.66666666666606,
      "v": 64
    },
    {
      "midi": 64,
      "hit": false,
      "t": 6600,
      "d": 199.9999999999991,
      "v": 64
    },
    {
      "midi": 66,
      "hit": false,
      "t": 6799.999999999999,
      "d": 173.33333333333303,
      "v": 64
    },
    {
      "midi": 60,
      "hit": false,
      "t": 6799.999999999999,
      "d": 293.33333333333303,
      "v": 64
    },
    {
      "midi": 67,
      "hit": false,
      "t": 6999.999999999999,
      "d": 200,
      "v": 64
    },
    {
      "midi": 64,
      "hit": false,
      "t": 7199.999999999999,
      "d": 346.66666666666697,
      "v": 64
    },
    {
      "midi": 55,
      "hit": false,
      "t": 7199.999999999999,
      "d": 386.66666666666697,
      "v": 64
    },
    {
      "midi": 59,
      "hit": false,
      "t": 7199.999999999999,
      "d": 386.66666666666697,
      "v": 64
    },
    {
      "midi": 67,
      "hit": false,
      "t": 7599.999999999999,
      "d": 346.66666666666697,
      "v": 64
    },
    {
      "midi": 66,
      "hit": false,
      "t": 7999.999999999999,
      "d": 226.66666666666697,
      "v": 64
    },
    {
      "midi": 59,
      "hit": false,
      "t": 7999.999999999999,
      "d": 386.66666666666697,
      "v": 64
    },
    {
      "midi": 71,
      "hit": false,
      "t": 8200,
      "d": 186.66666666666606,
      "v": 64
    },
    {
      "midi": 67,
      "hit": false,
      "t": 8400,
      "d": 186.66666666666606,
      "v": 64
    },
    {
      "midi": 69,
      "hit": false,
      "t": 8600,
      "d": 186.66666666666606,
      "v": 64
    },
    {
      "midi": 64,
      "hit": false,
      "t": 8800,
      "d": 773.3333333333321,
      "v": 64
    },
    {
      "midi": 47,
      "hit": false,
      "t": 8800,
      "d": 1173.3333333333303,
      "v": 64
    },
    {
      "midi": 75,
      "hit": false,
      "t": 9200,
      "d": 186.66666666666606,
      "v": 64
    },
    {
      "midi": 87,
      "hit": false,
      "t": 9200,
      "d": 186.66666666666606,
      "v": 64
    },
    {
      "midi": 76,
      "hit": false,
      "t": 9599.999999999998,
      "d": 186.66666666666606,
      "v": 64
    },
    {
      "midi": 88,
      "hit": false,
      "t": 9599.999999999998,
      "d": 186.66666666666606,
      "v": 64
    },
    {
      "midi": 64,
      "hit": false,
      "t": 9599.999999999998,
      "d": 193.33333333333212,
      "v": 64
    },
    {
      "midi": 67,
      "hit": false,
      "t": 9599.999999999998,
      "d": 493.3333333333321,
      "v": 64
    },
    {
      "midi": 71,
      "hit": false,
      "t": 9599.999999999998,
      "d": 679.9999999999982,
      "v": 64
    },
    {
      "midi": 64,
      "hit": false,
      "t": 9799.999999999996,
      "d": 573.3333333333339,
      "v": 64
    },
    {
      "midi": 67,
      "hit": false,
      "t": 10199.999999999996,
      "d": 193.33333333333394,
      "v": 64
    },
    {
      "midi": 64,
      "hit": false,
      "t": 10399.999999999996,
      "d": 193.33333333333394,
      "v": 64
    },
    {
      "midi": 71,
      "hit": false,
      "t": 10399.999999999996,
      "d": 373.33333333333394,
      "v": 64
    },
    {
      "midi": 67,
      "hit": false,
      "t": 10399.999999999996,
      "d": 400,
      "v": 64
    },
    {
      "midi": 62,
      "hit": false,
      "t": 10399.999999999996,
      "d": 760,
      "v": 64
    },
    {
      "midi": 64,
      "hit": false,
      "t": 10599.999999999996,
      "d": 193.33333333333394,
      "v": 64
    },
    {
      "midi": 64,
      "hit": false,
      "t": 10799.999999999996,
      "d": 186.66666666666606,
      "v": 64
    },
    {
      "midi": 69,
      "hit": false,
      "t": 10799.999999999996,
      "d": 186.66666666666606,
      "v": 64
    },
    {
      "midi": 71,
      "hit": false,
      "t": 10999.999999999996,
      "d": 186.66666666666606,
      "v": 64
    },
    {
      "midi": 67,
      "hit": false,
      "t": 10999.999999999996,
      "d": 200,
      "v": 64
    },
    {
      "midi": 60,
      "hit": false,
      "t": 11199.999999999996,
      "d": 360,
      "v": 64
    },
    {
      "midi": 64,
      "hit": false,
      "t": 11199.999999999996,
      "d": 386.66666666666606,
      "v": 64
    },
    {
      "midi": 69,
      "hit": false,
      "t": 11199.999999999996,
      "d": 400,
      "v": 64
    },
    {
      "midi": 67,
      "hit": false,
      "t": 11599.999999999996,
      "d": 320,
      "v": 64
    },
    {
      "midi": 60,
      "hit": false,
      "t": 11599.999999999996,
      "d": 400,
      "v": 64
    },
    {
      "midi": 64,
      "hit": false,
      "t": 11999.999999999996,
      "d": 413.33333333333394,
      "v": 64
    },
    {
      "midi": 67,
      "hit": false,
      "t": 11999.999999999996,
      "d": 533.3333333333339,
      "v": 64
    },
    {
      "midi": 59,
      "hit": false,
      "t": 11999.999999999996,
      "d": 573.3333333333339,
      "v": 64
    },
    {
      "midi": 59,
      "hit": false,
      "t": 12599.999999999996,
      "d": 186.66666666666606,
      "v": 64
    },
    {
      "midi": 67,
      "hit": false,
      "t": 12599.999999999996,
      "d": 186.66666666666606,
      "v": 64
    },
    {
      "midi": 60,
      "hit": false,
      "t": 12799.999999999996,
      "d": 293.33333333333394,
      "v": 64
    },
    {
      "midi": 57,
      "hit": false,
      "t": 12799.999999999996,
      "d": 386.6666666666679,
      "v": 64
    },
    {
      "midi": 64,
      "hit": false,
      "t": 12799.999999999996,
      "d": 386.6666666666679,
      "v": 64
    },
    {
      "midi": 66,
      "hit": false,
      "t": 13199.999999999998,
      "d": 173.33333333333394,
      "v": 64
    },
    {
      "midi": 60,
      "hit": false,
      "t": 13199.999999999998,
      "d": 293.33333333333394,
      "v": 64
    },
    {
      "midi": 67,
      "hit": false,
      "t": 13399.999999999998,
      "d": 200,
      "v": 64
    },
    {
      "midi": 64,
      "hit": false,
      "t": 13599.999999999998,
      "d": 346.66666666666606,
      "v": 64
    },
    {
      "midi": 55,
      "hit": false,
      "t": 13599.999999999998,
      "d": 386.66666666666606,
      "v": 64
    },
    {
      "midi": 59,
      "hit": false,
      "t": 13599.999999999998,
      "d": 386.66666666666606,
      "v": 64
    },
    {
      "midi": 67,
      "hit": false,
      "t": 13999.999999999998,
      "d": 346.66666666666606,
      "v": 64
    },
    {
      "midi": 66,
      "hit": false,
      "t": 14399.999999999998,
      "d": 226.66666666666606,
      "v": 64
    },
    {
      "midi": 59,
      "hit": false,
      "t": 14399.999999999998,
      "d": 386.66666666666606,
      "v": 64
    },
    {
      "midi": 71,
      "hit": false,
      "t": 14599.999999999998,
      "d": 186.66666666666606,
      "v": 64
    },
    {
      "midi": 67,
      "hit": false,
      "t": 14799.999999999998,
      "d": 186.66666666666606,
      "v": 64
    },
    {
      "midi": 69,
      "hit": false,
      "t": 14999.999999999998,
      "d": 186.66666666666606,
      "v": 64
    },
    {
      "midi": 47,
      "hit": false,
      "t": 15199.999999999998,
      "d": 1173.333333333334,
      "v": 64
    },
    {
      "midi": 75,
      "hit": false,
      "t": 15599.999999999998,
      "d": 186.66666666666606,
      "v": 64
    },
    {
      "midi": 87,
      "hit": false,
      "t": 15599.999999999998,
      "d": 186.66666666666606,
      "v": 64
    },
    {
      "midi": 64,
      "hit": false,
      "t": 15999.999999999998,
      "d": 120,
      "v": 64
    },
    {
      "midi": 88,
      "hit": false,
      "t": 15999.999999999998,
      "d": 186.66666666666606,
      "v": 64
    },
    {
      "midi": 76,
      "hit": false,
      "t": 15999.999999999998,
      "d": 213.33333333333394,
      "v": 64
    },
    {
      "midi": 67,
      "hit": false,
      "t": 15999.999999999998,
      "d": 493.33333333333394,
      "v": 64
    },
    {
      "midi": 71,
      "hit": false,
      "t": 15999.999999999998,
      "d": 680.0000000000018,
      "v": 64
    },
    {
      "midi": 64,
      "hit": false,
      "t": 16199.999999999998,
      "d": 573.3333333333339,
      "v": 64
    },
    {
      "midi": 67,
      "hit": false,
      "t": 16600,
      "d": 193.33333333333212,
      "v": 64
    },
    {
      "midi": 64,
      "hit": false,
      "t": 16800,
      "d": 193.33333333333212,
      "v": 64
    },
    {
      "midi": 71,
      "hit": false,
      "t": 16800,
      "d": 373.3333333333321,
      "v": 64
    },
    {
      "midi": 67,
      "hit": false,
      "t": 16800,
      "d": 400,
      "v": 64
    },
    {
      "midi": 62,
      "hit": false,
      "t": 16800,
      "d": 760,
      "v": 64
    },
    {
      "midi": 64,
      "hit": false,
      "t": 17000,
      "d": 193.33333333333212,
      "v": 64
    },
    {
      "midi": 64,
      "hit": false,
      "t": 17200,
      "d": 186.66666666666788,
      "v": 64
    },
    {
      "midi": 69,
      "hit": false,
      "t": 17200,
      "d": 186.66666666666788,
      "v": 64
    },
    {
      "midi": 71,
      "hit": false,
      "t": 17400,
      "d": 186.66666666666788,
      "v": 64
    },
    {
      "midi": 67,
      "hit": false,
      "t": 17400,
      "d": 200,
      "v": 64
    },
    {
      "midi": 64,
      "hit": false,
      "t": 17600,
      "d": 186.66666666666788,
      "v": 64
    },
    {
      "midi": 60,
      "hit": false,
      "t": 17600,
      "d": 360,
      "v": 64
    },
    {
      "midi": 69,
      "hit": false,
      "t": 17600,
      "d": 400,
      "v": 64
    },
    {
      "midi": 64,
      "hit": false,
      "t": 17800,
      "d": 546.6666666666679,
      "v": 64
    },
    {
      "midi": 67,
      "hit": false,
      "t": 18000,
      "d": 320,
      "v": 64
    },
    {
      "midi": 60,
      "hit": false,
      "t": 18000,
      "d": 400,
      "v": 64
    },
    {
      "midi": 64,
      "hit": false,
      "t": 18400,
      "d": 133.33333333333212,
      "v": 64
    },
    {
      "midi": 66,
      "hit": false,
      "t": 18400,
      "d": 186.66666666666424,
      "v": 64
    },
    {
      "midi": 59,
      "hit": false,
      "t": 18400,
      "d": 786.6666666666606,
      "v": 64
    },
    {
      "midi": 64,
      "hit": false,
      "t": 18599.999999999996,
      "d": 186.66666666666788,
      "v": 64
    },
    {
      "midi": 67,
      "hit": false,
      "t": 18599.999999999996,
      "d": 213.33333333333212,
      "v": 64
    },
    {
      "midi": 66,
      "hit": false,
      "t": 18799.999999999996,
      "d": 373.3333333333321,
      "v": 64
    },
    {
      "midi": 64,
      "hit": false,
      "t": 18799.999999999996,
      "d": 386.66666666666424,
      "v": 64
    },
    {
      "midi": 64,
      "hit": false,
      "t": 19199.999999999993,
      "d": 193.33333333333212,
      "v": 64
    },
    {
      "midi": 67,
      "hit": false,
      "t": 19199.999999999993,
      "d": 493.3333333333321,
      "v": 64
    },
    {
      "midi": 71,
      "hit": false,
      "t": 19199.999999999993,
      "d": 680,
      "v": 64
    },
    {
      "midi": 64,
      "hit": false,
      "t": 19399.999999999993,
      "d": 573.3333333333321,
      "v": 64
    },
    {
      "midi": 67,
      "hit": false,
      "t": 19799.999999999993,
      "d": 193.33333333333212,
      "v": 64
    },
    {
      "midi": 64,
      "hit": false,
      "t": 19999.999999999993,
      "d": 193.33333333333212,
      "v": 64
    },
    {
      "midi": 71,
      "hit": false,
      "t": 19999.999999999993,
      "d": 373.3333333333321,
      "v": 64
    },
    {
      "midi": 67,
      "hit": false,
      "t": 19999.999999999993,
      "d": 400,
      "v": 64
    },
    {
      "midi": 62,
      "hit": false,
      "t": 19999.999999999993,
      "d": 760,
      "v": 64
    },
    {
      "midi": 64,
      "hit": false,
      "t": 20199.999999999993,
      "d": 193.33333333333212,
      "v": 64
    },
    {
      "midi": 64,
      "hit": false,
      "t": 20399.999999999993,
      "d": 186.66666666666788,
      "v": 64
    },
    {
      "midi": 69,
      "hit": false,
      "t": 20399.999999999993,
      "d": 186.66666666666788,
      "v": 64
    },
    {
      "midi": 71,
      "hit": false,
      "t": 20599.999999999993,
      "d": 186.66666666666788,
      "v": 64
    },
    {
      "midi": 67,
      "hit": false,
      "t": 20599.999999999993,
      "d": 200,
      "v": 64
    },
    {
      "midi": 64,
      "hit": false,
      "t": 20799.999999999993,
      "d": 186.66666666666788,
      "v": 64
    },
    {
      "midi": 60,
      "hit": false,
      "t": 20799.999999999993,
      "d": 360,
      "v": 64
    },
    {
      "midi": 69,
      "hit": false,
      "t": 20799.999999999993,
      "d": 400,
      "v": 64
    },
    {
      "midi": 64,
      "hit": false,
      "t": 20999.999999999993,
      "d": 546.6666666666679,
      "v": 64
    },
    {
      "midi": 67,
      "hit": false,
      "t": 21199.999999999993,
      "d": 320,
      "v": 64
    },
    {
      "midi": 60,
      "hit": false,
      "t": 21199.999999999993,
      "d": 400,
      "v": 64
    },
    {
      "midi": 67,
      "hit": false,
      "t": 21599.999999999993,
      "d": 533.3333333333321,
      "v": 64
    },
    {
      "midi": 59,
      "hit": false,
      "t": 21599.999999999993,
      "d": 573.3333333333321,
      "v": 64
    },
    {
      "midi": 64,
      "hit": false,
      "t": 21599.999999999993,
      "d": 746.6666666666679,
      "v": 64
    },
    {
      "midi": 59,
      "hit": false,
      "t": 22199.999999999993,
      "d": 186.66666666666788,
      "v": 64
    },
    {
      "midi": 67,
      "hit": false,
      "t": 22199.999999999993,
      "d": 186.66666666666788,
      "v": 64
    },
    {
      "midi": 64,
      "hit": false,
      "t": 22399.999999999993,
      "d": 160,
      "v": 64
    },
    {
      "midi": 60,
      "hit": false,
      "t": 22399.999999999993,
      "d": 293.3333333333321,
      "v": 64
    },
    {
      "midi": 57,
      "hit": false,
      "t": 22399.999999999993,
      "d": 386.66666666666424,
      "v": 64
    },
    {
      "midi": 64,
      "hit": false,
      "t": 22599.999999999993,
      "d": 199.99999999999636,
      "v": 64
    },
    {
      "midi": 66,
      "hit": false,
      "t": 22799.99999999999,
      "d": 173.33333333333212,
      "v": 64
    },
    {
      "midi": 60,
      "hit": false,
      "t": 22799.99999999999,
      "d": 293.3333333333321,
      "v": 64
    },
    {
      "midi": 67,
      "hit": false,
      "t": 22999.99999999999,
      "d": 200,
      "v": 64
    },
    {
      "midi": 64,
      "hit": false,
      "t": 23199.99999999999,
      "d": 346.6666666666679,
      "v": 64
    },
    {
      "midi": 55,
      "hit": false,
      "t": 23199.99999999999,
      "d": 386.6666666666679,
      "v": 64
    },
    {
      "midi": 59,
      "hit": false,
      "t": 23199.99999999999,
      "d": 386.6666666666679,
      "v": 64
    },
    {
      "midi": 67,
      "hit": false,
      "t": 23599.99999999999,
      "d": 346.6666666666679,
      "v": 64
    },
    {
      "midi": 66,
      "hit": false,
      "t": 23999.99999999999,
      "d": 226.66666666666788,
      "v": 64
    },
    {
      "midi": 59,
      "hit": false,
      "t": 23999.99999999999,
      "d": 386.6666666666679,
      "v": 64
    },
    {
      "midi": 71,
      "hit": false,
      "t": 24199.99999999999,
      "d": 186.66666666666788,
      "v": 64
    },
    {
      "midi": 67,
      "hit": false,
      "t": 24399.99999999999,
      "d": 186.66666666666788,
      "v": 64
    },
    {
      "midi": 69,
      "hit": false,
      "t": 24599.99999999999,
      "d": 186.66666666666788,
      "v": 64
    },
    {
      "midi": 47,
      "hit": false,
      "t": 24799.99999999999,
      "d": 720,
      "v": 64
    },
    {
      "midi": 64,
      "hit": false,
      "t": 24799.99999999999,
      "d": 773.3333333333321,
      "v": 64
    },
    {
      "midi": 75,
      "hit": false,
      "t": 25199.99999999999,
      "d": 186.66666666666788,
      "v": 64
    },
    {
      "midi": 87,
      "hit": false,
      "t": 25199.99999999999,
      "d": 186.66666666666788,
      "v": 64
    },
    {
      "midi": 64,
      "hit": false,
      "t": 25599.99999999999,
      "d": 266.6666666666679,
      "v": 64
    },
    {
      "midi": 88,
      "hit": false,
      "t": 25599.99999999999,
      "d": 280,
      "v": 64
    },
    {
      "midi": 76,
      "hit": false,
      "t": 25599.99999999999,
      "d": 373.3333333333321,
      "v": 64
    },
    {
      "midi": 52,
      "hit": false,
      "t": 25599.99999999999,
      "d": 786.6666666666642,
      "v": 64
    },
    {
      "midi": 59,
      "hit": false,
      "t": 25799.99999999999,
      "d": 200,
      "v": 64
    },
    {
      "midi": 64,
      "hit": false,
      "t": 25999.99999999999,
      "d": 373.3333333333321,
      "v": 64
    },
    {
      "midi": 67,
      "hit": false,
      "t": 26399.999999999985,
      "d": 373.3333333333321,
      "v": 64
    },
    {
      "midi": 50,
      "hit": false,
      "t": 26399.999999999985,
      "d": 786.6666666666642,
      "v": 64
    },
    {
      "midi": 69,
      "hit": false,
      "t": 26799.999999999985,
      "d": 213.33333333333212,
      "v": 64
    },
    {
      "midi": 71,
      "hit": false,
      "t": 26999.999999999985,
      "d": 213.33333333332848,
      "v": 64
    },
    {
      "midi": 52,
      "hit": false,
      "t": 27199.99999999998,
      "d": 706.6666666666642,
      "v": 64
    },
    {
      "midi": 59,
      "hit": false,
      "t": 27266.666666666646,
      "d": 706.6666666666679,
      "v": 64
    },
    {
      "midi": 71,
      "hit": false,
      "t": 27266.666666666646,
      "d": 853.3333333333358,
      "v": 64
    },
    {
      "midi": 64,
      "hit": false,
      "t": 27333.333333333314,
      "d": 640,
      "v": 64
    },
    {
      "midi": 47,
      "hit": false,
      "t": 27999.99999999998,
      "d": 786.6666666666679,
      "v": 64
    },
    {
      "midi": 59,
      "hit": false,
      "t": 27999.99999999998,
      "d": 786.6666666666679,
      "v": 64
    },
    {
      "midi": 63,
      "hit": false,
      "t": 27999.99999999998,
      "d": 786.6666666666679,
      "v": 64
    },
    {
      "midi": 88,
      "hit": false,
      "t": 111999.99999999999,
      "d": 106.66666666667152,
      "v": 64
    },
    {
      "midi": 88,
      "hit": false,
      "t": 112199.99999999999,
      "d": 106.66666666667152,
      "v": 64
    },
    {
      "midi": 88,
      "hit": false,
      "t": 112399.99999999999,
      "d": 106.66666666667152,
      "v": 64
    },
    {
      "midi": 88,
      "hit": false,
      "t": 113399.99999999999,
      "d": 106.66666666667152,
      "v": 64
    },
    {
      "midi": 88,
      "hit": false,
      "t": 113599.99999999999,
      "d": 106.66666666667152,
      "v": 64
    },
    {
      "midi": 88,
      "hit": false,
      "t": 113799.99999999999,
      "d": 106.66666666667152,
      "v": 64
    },
    {
      "midi": 88,
      "hit": false,
      "t": 113999.99999999999,
      "d": 106.66666666667152,
      "v": 64
    },
    {
      "midi": 88,
      "hit": false,
      "t": 115199.99999999999,
      "d": 106.66666666667152,
      "v": 64
    },
    {
      "midi": 88,
      "hit": false,
      "t": 115399.99999999999,
      "d": 106.66666666667152,
      "v": 64
    },
    {
      "midi": 88,
      "hit": false,
      "t": 115599.99999999999,
      "d": 106.66666666667152,
      "v": 64
    },
    {
      "midi": 88,
      "hit": false,
      "t": 116599.99999999999,
      "d": 106.66666666667152,
      "v": 64
    },
    {
      "midi": 88,
      "hit": false,
      "t": 116799.99999999999,
      "d": 106.66666666667152,
      "v": 64
    },
    {
      "midi": 88,
      "hit": false,
      "t": 116999.99999999999,
      "d": 106.66666666667152,
      "v": 64
    },
    {
      "midi": 88,
      "hit": false,
      "t": 117199.99999999999,
      "d": 106.66666666667152,
      "v": 64
    },
    {
      "midi": 88,
      "hit": false,
      "t": 118399.99999999999,
      "d": 106.66666666667152,
      "v": 64
    },
    {
      "midi": 88,
      "hit": false,
      "t": 118599.99999999999,
      "d": 106.66666666667152,
      "v": 64
    },
    {
      "midi": 88,
      "hit": false,
      "t": 118799.99999999999,
      "d": 106.66666666667152,
      "v": 64
    },
    {
      "midi": 88,
      "hit": false,
      "t": 119799.99999999999,
      "d": 106.66666666667152,
      "v": 64
    },
    {
      "midi": 88,
      "hit": false,
      "t": 119999.99999999999,
      "d": 106.66666666667152,
      "v": 64
    },
    {
      "midi": 88,
      "hit": false,
      "t": 120199.99999999999,
      "d": 106.66666666667152,
      "v": 64
    },
    {
      "midi": 88,
      "hit": false,
      "t": 120399.99999999999,
      "d": 106.66666666667152,
      "v": 64
    },
    {
      "midi": 88,
      "hit": false,
      "t": 121599.99999999999,
      "d": 106.66666666667152,
      "v": 64
    },
    {
      "midi": 88,
      "hit": false,
      "t": 121799.99999999999,
      "d": 106.66666666667152,
      "v": 64
    },
    {
      "midi": 88,
      "hit": false,
      "t": 121999.99999999999,
      "d": 106.66666666667152,
      "v": 64
    },
    {
      "midi": 88,
      "hit": false,
      "t": 122999.99999999999,
      "d": 106.66666666667152,
      "v": 64
    },
    {
      "midi": 88,
      "hit": false,
      "t": 123199.99999999999,
      "d": 106.66666666667152,
      "v": 64
    },
    {
      "midi": 88,
      "hit": false,
      "t": 123399.99999999999,
      "d": 106.66666666667152,
      "v": 64
    },
    {
      "midi": 88,
      "hit": false,
      "t": 123599.99999999999,
      "d": 106.66666666667152,
      "v": 64
    },
    {
      "midi": 88,
      "hit": false,
      "t": 127999.99999999999,
      "d": 106.66666666667152,
      "v": 64
    },
    {
      "midi": 88,
      "hit": false,
      "t": 128199.99999999999,
      "d": 106.66666666667152,
      "v": 64
    },
    {
      "midi": 88,
      "hit": false,
      "t": 128399.99999999999,
      "d": 106.66666666667152,
      "v": 64
    },
    {
      "midi": 88,
      "hit": false,
      "t": 129399.99999999999,
      "d": 106.66666666667152,
      "v": 64
    },
    {
      "midi": 88,
      "hit": false,
      "t": 129599.99999999999,
      "d": 106.66666666667152,
      "v": 64
    },
    {
      "midi": 88,
      "hit": false,
      "t": 129799.99999999999,
      "d": 106.66666666667152,
      "v": 64
    },
    {
      "midi": 88,
      "hit": false,
      "t": 129999.99999999999,
      "d": 106.66666666667152,
      "v": 64
    },
    {
      "midi": 88,
      "hit": false,
      "t": 131199.99999999997,
      "d": 106.66666666665697,
      "v": 64
    },
    {
      "midi": 88,
      "hit": false,
      "t": 131399.99999999997,
      "d": 106.66666666665697,
      "v": 64
    },
    {
      "midi": 88,
      "hit": false,
      "t": 131599.99999999997,
      "d": 106.66666666665697,
      "v": 64
    },
    {
      "midi": 88,
      "hit": false,
      "t": 132599.99999999997,
      "d": 106.66666666665697,
      "v": 64
    },
    {
      "midi": 88,
      "hit": false,
      "t": 132799.99999999997,
      "d": 106.66666666665697,
      "v": 64
    },
    {
      "midi": 88,
      "hit": false,
      "t": 132999.99999999997,
      "d": 106.66666666665697,
      "v": 64
    },
    {
      "midi": 88,
      "hit": false,
      "t": 133199.99999999997,
      "d": 106.66666666665697,
      "v": 64
    },
    {
      "midi": 88,
      "hit": false,
      "t": 134399.99999999997,
      "d": 106.66666666665697,
      "v": 64
    },
    {
      "midi": 88,
      "hit": false,
      "t": 134599.99999999997,
      "d": 106.66666666665697,
      "v": 64
    },
    {
      "midi": 88,
      "hit": false,
      "t": 134799.99999999997,
      "d": 106.66666666665697,
      "v": 64
    },
    {
      "midi": 88,
      "hit": false,
      "t": 135799.99999999997,
      "d": 106.66666666665697,
      "v": 64
    },
    {
      "midi": 88,
      "hit": false,
      "t": 135999.99999999997,
      "d": 106.66666666665697,
      "v": 64
    },
    {
      "midi": 88,
      "hit": false,
      "t": 136199.99999999997,
      "d": 106.66666666665697,
      "v": 64
    },
    {
      "midi": 88,
      "hit": false,
      "t": 136399.99999999997,
      "d": 106.66666666665697,
      "v": 64
    },
    {
      "midi": 88,
      "hit": false,
      "t": 137599.99999999997,
      "d": 106.66666666665697,
      "v": 64
    },
    {
      "midi": 88,
      "hit": false,
      "t": 137799.99999999997,
      "d": 106.66666666665697,
      "v": 64
    },
    {
      "midi": 88,
      "hit": false,
      "t": 137999.99999999997,
      "d": 106.66666666665697,
      "v": 64
    },
    {
      "midi": 88,
      "hit": false,
      "t": 138999.99999999997,
      "d": 106.66666666665697,
      "v": 64
    },
    {
      "midi": 88,
      "hit": false,
      "t": 139199.99999999997,
      "d": 106.66666666665697,
      "v": 64
    },
    {
      "midi": 88,
      "hit": false,
      "t": 139399.99999999997,
      "d": 106.66666666665697,
      "v": 64
    },
    {
      "midi": 88,
      "hit": false,
      "t": 139599.99999999997,
      "d": 106.66666666665697,
      "v": 64
    },
    {
      "midi": 88,
      "hit": false,
      "t": 140799.99999999997,
      "d": 106.66666666665697,
      "v": 64
    },
    {
      "midi": 88,
      "hit": false,
      "t": 140999.99999999997,
      "d": 106.66666666665697,
      "v": 64
    },
    {
      "midi": 88,
      "hit": false,
      "t": 141199.99999999997,
      "d": 106.66666666665697,
      "v": 64
    },
    {
      "midi": 88,
      "hit": false,
      "t": 142199.99999999997,
      "d": 106.66666666665697,
      "v": 64
    },
    {
      "midi": 88,
      "hit": false,
      "t": 142399.99999999997,
      "d": 106.66666666665697,
      "v": 64
    },
    {
      "midi": 88,
      "hit": false,
      "t": 142599.99999999997,
      "d": 106.66666666665697,
      "v": 64
    },
    {
      "midi": 88,
      "hit": false,
      "t": 142799.99999999997,
      "d": 106.66666666665697,
      "v": 64
    },
    {
      "midi": 88,
      "hit": false,
      "t": 143999.99999999997,
      "d": 106.66666666665697,
      "v": 64
    },
    {
      "midi": 88,
      "hit": false,
      "t": 144199.99999999997,
      "d": 106.66666666665697,
      "v": 64
    },
    {
      "midi": 88,
      "hit": false,
      "t": 144399.99999999994,
      "d": 106.66666666665697,
      "v": 64
    },
    {
      "midi": 88,
      "hit": false,
      "t": 145399.99999999994,
      "d": 106.66666666665697,
      "v": 64
    },
    {
      "midi": 88,
      "hit": false,
      "t": 145599.99999999994,
      "d": 106.66666666665697,
      "v": 64
    },
    {
      "midi": 88,
      "hit": false,
      "t": 145799.99999999994,
      "d": 106.66666666665697,
      "v": 64
    },
    {
      "midi": 88,
      "hit": false,
      "t": 145999.99999999994,
      "d": 106.66666666665697,
      "v": 64
    },
    {
      "midi": 88,
      "hit": false,
      "t": 147199.99999999994,
      "d": 106.66666666665697,
      "v": 64
    },
    {
      "midi": 88,
      "hit": false,
      "t": 147399.99999999994,
      "d": 106.66666666665697,
      "v": 64
    },
    {
      "midi": 88,
      "hit": false,
      "t": 147599.99999999994,
      "d": 106.66666666665697,
      "v": 64
    },
    {
      "midi": 88,
      "hit": false,
      "t": 148599.99999999994,
      "d": 106.66666666665697,
      "v": 64
    },
    {
      "midi": 88,
      "hit": false,
      "t": 148799.99999999994,
      "d": 106.66666666665697,
      "v": 64
    },
    {
      "midi": 88,
      "hit": false,
      "t": 148999.99999999994,
      "d": 106.66666666665697,
      "v": 64
    },
    {
      "midi": 88,
      "hit": false,
      "t": 149199.99999999994,
      "d": 106.66666666665697,
      "v": 64
    },
    {
      "midi": 88,
      "hit": false,
      "t": 150399.99999999994,
      "d": 106.66666666665697,
      "v": 64
    },
    {
      "midi": 88,
      "hit": false,
      "t": 150599.99999999994,
      "d": 106.66666666665697,
      "v": 64
    },
    {
      "midi": 88,
      "hit": false,
      "t": 150799.99999999994,
      "d": 106.66666666665697,
      "v": 64
    },
    {
      "midi": 88,
      "hit": false,
      "t": 151799.99999999994,
      "d": 106.66666666665697,
      "v": 64
    },
    {
      "midi": 88,
      "hit": false,
      "t": 151999.99999999994,
      "d": 106.66666666665697,
      "v": 64
    },
    {
      "midi": 88,
      "hit": false,
      "t": 152199.99999999994,
      "d": 106.66666666665697,
      "v": 64
    },
    {
      "midi": 88,
      "hit": false,
      "t": 152399.99999999994,
      "d": 106.66666666665697,
      "v": 64
    },
    {
      "midi": 76,
      "hit": false,
      "t": 188999.99999999994,
      "d": 86.66666666665697,
      "v": 64
    },
    {
      "midi": 76,
      "hit": false,
      "t": 189199.99999999994,
      "d": 86.66666666665697,
      "v": 64
    },
    {
      "midi": 78,
      "hit": false,
      "t": 189399.99999999994,
      "d": 86.66666666665697,
      "v": 64
    },
    {
      "midi": 79,
      "hit": false,
      "t": 189599.99999999994,
      "d": 86.66666666665697,
      "v": 64
    },
    {
      "midi": 78,
      "hit": false,
      "t": 190199.99999999994,
      "d": 86.66666666665697,
      "v": 64
    },
    {
      "midi": 76,
      "hit": false,
      "t": 190799.99999999994,
      "d": 86.66666666665697,
      "v": 64
    },
    {
      "midi": 71,
      "hit": false,
      "t": 193999.99999999994,
      "d": 86.66666666665697,
      "v": 64
    },
    {
      "midi": 71,
      "hit": false,
      "t": 194399.99999999994,
      "d": 86.66666666665697,
      "v": 64
    },
    {
      "midi": 71,
      "hit": false,
      "t": 194599.99999999994,
      "d": 86.66666666665697,
      "v": 64
    },
    {
      "midi": 72,
      "hit": false,
      "t": 195599.99999999994,
      "d": 86.66666666665697,
      "v": 64
    },
    {
      "midi": 81,
      "hit": false,
      "t": 195599.99999999994,
      "d": 86.66666666665697,
      "v": 64
    },
    {
      "midi": 74,
      "hit": false,
      "t": 195799.99999999994,
      "d": 86.66666666665697,
      "v": 64
    },
    {
      "midi": 83,
      "hit": false,
      "t": 195799.99999999994,
      "d": 86.66666666665697,
      "v": 64
    },
    {
      "midi": 76,
      "hit": false,
      "t": 195999.99999999994,
      "d": 86.66666666665697,
      "v": 64
    },
    {
      "midi": 84,
      "hit": false,
      "t": 195999.99999999994,
      "d": 86.66666666665697,
      "v": 64
    },
    {
      "midi": 71,
      "hit": false,
      "t": 196799.99999999994,
      "d": 86.66666666665697,
      "v": 64
    },
    {
      "midi": 79,
      "hit": false,
      "t": 196799.99999999994,
      "d": 86.66666666665697,
      "v": 64
    },
    {
      "midi": 72,
      "hit": false,
      "t": 196999.99999999994,
      "d": 86.66666666665697,
      "v": 64
    },
    {
      "midi": 81,
      "hit": false,
      "t": 196999.99999999994,
      "d": 86.66666666665697,
      "v": 64
    },
    {
      "midi": 74,
      "hit": false,
      "t": 197199.99999999994,
      "d": 86.66666666665697,
      "v": 64
    },
    {
      "midi": 83,
      "hit": false,
      "t": 197199.99999999994,
      "d": 86.66666666665697,
      "v": 64
    },
    {
      "midi": 67,
      "hit": false,
      "t": 199399.99999999994,
      "d": 86.66666666665697,
      "v": 64
    },
    {
      "midi": 76,
      "hit": false,
      "t": 199399.99999999994,
      "d": 86.66666666665697,
      "v": 64
    },
    {
      "midi": 69,
      "hit": false,
      "t": 199599.99999999994,
      "d": 86.66666666665697,
      "v": 64
    },
    {
      "midi": 79,
      "hit": false,
      "t": 199599.99999999994,
      "d": 86.66666666665697,
      "v": 64
    },
    {
      "midi": 71,
      "hit": false,
      "t": 199999.99999999994,
      "d": 640,
      "v": 64
    },
    {
      "midi": 81,
      "hit": false,
      "t": 199999.99999999994,
      "d": 640,
      "v": 64
    },
    {
      "midi": 67,
      "hit": false,
      "t": 200799.99999999994,
      "d": 86.66666666665697,
      "v": 64
    },
    {
      "midi": 79,
      "hit": false,
      "t": 200799.99999999994,
      "d": 86.66666666665697,
      "v": 64
    },
    {
      "midi": 64,
      "hit": false,
      "t": 200999.99999999994,
      "d": 86.66666666665697,
      "v": 64
    },
    {
      "midi": 74,
      "hit": false,
      "t": 200999.99999999994,
      "d": 86.66666666665697,
      "v": 64
    },
    {
      "midi": 64,
      "hit": false,
      "t": 201199.99999999994,
      "d": 86.66666666665697,
      "v": 64
    },
    {
      "midi": 71,
      "hit": false,
      "t": 201199.99999999994,
      "d": 86.66666666665697,
      "v": 64
    },
    {
      "midi": 66,
      "hit": false,
      "t": 203199.99999999994,
      "d": 86.66666666665697,
      "v": 64
    },
    {
      "midi": 71,
      "hit": false,
      "t": 203199.99999999994,
      "d": 86.66666666665697,
      "v": 64
    },
    {
      "midi": 67,
      "hit": false,
      "t": 203399.99999999994,
      "d": 86.66666666665697,
      "v": 64
    },
    {
      "midi": 66,
      "hit": false,
      "t": 203599.99999999994,
      "d": 86.66666666665697,
      "v": 64
    },
    {
      "midi": 71,
      "hit": false,
      "t": 203599.99999999994,
      "d": 86.66666666665697,
      "v": 64
    },
    {
      "midi": 64,
      "hit": false,
      "t": 204399.99999999994,
      "d": 86.66666666665697,
      "v": 64
    },
    {
      "midi": 71,
      "hit": false,
      "t": 204399.99999999994,
      "d": 86.66666666665697,
      "v": 64
    },
    {
      "midi": 67,
      "hit": false,
      "t": 204599.99999999994,
      "d": 86.66666666665697,
      "v": 64
    },
    {
      "midi": 64,
      "hit": false,
      "t": 204799.99999999994,
      "d": 86.66666666665697,
      "v": 64
    },
    {
      "midi": 71,
      "hit": false,
      "t": 204799.99999999994,
      "d": 86.66666666665697,
      "v": 64
    },
    {
      "midi": 67,
      "hit": false,
      "t": 206399.99999999997,
      "d": 86.66666666665697,
      "v": 64
    },
    {
      "midi": 71,
      "hit": false,
      "t": 206399.99999999997,
      "d": 86.66666666665697,
      "v": 64
    },
    {
      "midi": 70,
      "hit": false,
      "t": 207999.9999999999,
      "d": 86.66666666665697,
      "v": 64
    },
    {
      "midi": 71,
      "hit": false,
      "t": 207999.9999999999,
      "d": 86.66666666665697,
      "v": 64
    },
    {
      "midi": 72,
      "hit": false,
      "t": 207999.9999999999,
      "d": 86.66666666665697,
      "v": 64
    },
    {
      "midi": 73,
      "hit": false,
      "t": 207999.9999999999,
      "d": 86.66666666665697,
      "v": 64
    },
    {
      "midi": 74,
      "hit": false,
      "t": 207999.9999999999,
      "d": 86.66666666665697,
      "v": 64
    },
    {
      "midi": 75,
      "hit": false,
      "t": 207999.9999999999,
      "d": 86.66666666665697,
      "v": 64
    },
    {
      "midi": 76,
      "hit": false,
      "t": 207999.9999999999,
      "d": 86.66666666665697,
      "v": 64
    },
    {
      "midi": 76,
      "hit": false,
      "t": 208099.9999999999,
      "d": 86.66666666665697,
      "v": 64
    },
    {
      "midi": 75,
      "hit": false,
      "t": 208199.9999999999,
      "d": 86.66666666665697,
      "v": 64
    },
    {
      "midi": 76,
      "hit": false,
      "t": 208299.9999999999,
      "d": 86.66666666665697,
      "v": 64
    },
    {
      "midi": 71,
      "hit": false,
      "t": 208399.9999999999,
      "d": 86.66666666665697,
      "v": 64
    },
    {
      "midi": 72,
      "hit": false,
      "t": 208399.9999999999,
      "d": 86.66666666665697,
      "v": 64
    },
    {
      "midi": 73,
      "hit": false,
      "t": 208399.9999999999,
      "d": 86.66666666665697,
      "v": 64
    },
    {
      "midi": 74,
      "hit": false,
      "t": 208399.9999999999,
      "d": 86.66666666665697,
      "v": 64
    },
    {
      "midi": 75,
      "hit": false,
      "t": 208399.9999999999,
      "d": 86.66666666665697,
      "v": 64
    },
    {
      "midi": 76,
      "hit": false,
      "t": 208399.9999999999,
      "d": 86.66666666665697,
      "v": 64
    },
    {
      "midi": 70,
      "hit": false,
      "t": 208499.9999999999,
      "d": 86.66666666665697,
      "v": 64
    },
    {
      "midi": 70,
      "hit": false,
      "t": 208599.9999999999,
      "d": 86.66666666665697,
      "v": 64
    },
    {
      "midi": 71,
      "hit": false,
      "t": 208599.9999999999,
      "d": 86.66666666665697,
      "v": 64
    },
    {
      "midi": 72,
      "hit": false,
      "t": 208599.9999999999,
      "d": 86.66666666665697,
      "v": 64
    },
    {
      "midi": 73,
      "hit": false,
      "t": 208599.9999999999,
      "d": 86.66666666665697,
      "v": 64
    },
    {
      "midi": 74,
      "hit": false,
      "t": 208599.9999999999,
      "d": 86.66666666665697,
      "v": 64
    },
    {
      "midi": 75,
      "hit": false,
      "t": 208599.9999999999,
      "d": 86.66666666665697,
      "v": 64
    },
    {
      "midi": 76,
      "hit": false,
      "t": 208599.9999999999,
      "d": 86.66666666665697,
      "v": 64
    },
    {
      "midi": 73,
      "hit": false,
      "t": 208699.9999999999,
      "d": 86.66666666665697,
      "v": 64
    },
    {
      "midi": 76,
      "hit": false,
      "t": 208699.9999999999,
      "d": 86.66666666665697,
      "v": 64
    },
    {
      "midi": 73,
      "hit": false,
      "t": 208799.9999999999,
      "d": 86.66666666665697,
      "v": 64
    },
    {
      "midi": 76,
      "hit": false,
      "t": 208799.9999999999,
      "d": 86.66666666665697,
      "v": 64
    },
    {
      "midi": 73,
      "hit": false,
      "t": 208899.9999999999,
      "d": 86.66666666665697,
      "v": 64
    },
    {
      "midi": 76,
      "hit": false,
      "t": 208899.9999999999,
      "d": 86.66666666665697,
      "v": 64
    },
    {
      "midi": 74,
      "hit": false,
      "t": 208999.9999999999,
      "d": 86.66666666665697,
      "v": 64
    },
    {
      "midi": 75,
      "hit": false,
      "t": 208999.9999999999,
      "d": 86.66666666665697,
      "v": 64
    },
    {
      "midi": 70,
      "hit": false,
      "t": 209099.9999999999,
      "d": 86.66666666665697,
      "v": 64
    },
    {
      "midi": 71,
      "hit": false,
      "t": 209199.9999999999,
      "d": 86.66666666665697,
      "v": 64
    },
    {
      "midi": 72,
      "hit": false,
      "t": 209199.9999999999,
      "d": 86.66666666665697,
      "v": 64
    },
    {
      "midi": 73,
      "hit": false,
      "t": 209199.9999999999,
      "d": 86.66666666665697,
      "v": 64
    },
    {
      "midi": 74,
      "hit": false,
      "t": 209199.9999999999,
      "d": 86.66666666665697,
      "v": 64
    },
    {
      "midi": 75,
      "hit": false,
      "t": 209199.9999999999,
      "d": 86.66666666665697,
      "v": 64
    },
    {
      "midi": 76,
      "hit": false,
      "t": 209199.9999999999,
      "d": 86.66666666665697,
      "v": 64
    },
    {
      "midi": 73,
      "hit": false,
      "t": 209299.9999999999,
      "d": 86.66666666665697,
      "v": 64
    },
    {
      "midi": 76,
      "hit": false,
      "t": 209299.9999999999,
      "d": 86.66666666665697,
      "v": 64
    },
    {
      "midi": 73,
      "hit": false,
      "t": 209399.9999999999,
      "d": 86.66666666665697,
      "v": 64
    },
    {
      "midi": 76,
      "hit": false,
      "t": 209399.9999999999,
      "d": 86.66666666665697,
      "v": 64
    },
    {
      "midi": 73,
      "hit": false,
      "t": 209499.9999999999,
      "d": 86.66666666665697,
      "v": 64
    },
    {
      "midi": 76,
      "hit": false,
      "t": 209499.9999999999,
      "d": 86.66666666665697,
      "v": 64
    },
    {
      "midi": 71,
      "hit": false,
      "t": 209599.9999999999,
      "d": 86.66666666665697,
      "v": 64
    },
    {
      "midi": 72,
      "hit": false,
      "t": 209599.9999999999,
      "d": 86.66666666665697,
      "v": 64
    },
    {
      "midi": 73,
      "hit": false,
      "t": 209599.9999999999,
      "d": 86.66666666665697,
      "v": 64
    },
    {
      "midi": 74,
      "hit": false,
      "t": 209599.9999999999,
      "d": 86.66666666665697,
      "v": 64
    },
    {
      "midi": 75,
      "hit": false,
      "t": 209599.9999999999,
      "d": 86.66666666665697,
      "v": 64
    },
    {
      "midi": 70,
      "hit": false,
      "t": 209699.9999999999,
      "d": 86.66666666665697,
      "v": 64
    },
    {
      "midi": 76,
      "hit": false,
      "t": 209699.9999999999,
      "d": 86.66666666665697,
      "v": 64
    },
    {
      "midi": 71,
      "hit": false,
      "t": 209799.9999999999,
      "d": 86.66666666665697,
      "v": 64
    },
    {
      "midi": 72,
      "hit": false,
      "t": 209799.9999999999,
      "d": 86.66666666665697,
      "v": 64
    },
    {
      "midi": 73,
      "hit": false,
      "t": 209799.9999999999,
      "d": 86.66666666665697,
      "v": 64
    },
    {
      "midi": 74,
      "hit": false,
      "t": 209799.9999999999,
      "d": 86.66666666665697,
      "v": 64
    },
    {
      "midi": 75,
      "hit": false,
      "t": 209799.9999999999,
      "d": 86.66666666665697,
      "v": 64
    },
    {
      "midi": 70,
      "hit": false,
      "t": 209899.9999999999,
      "d": 86.66666666665697,
      "v": 64
    },
    {
      "midi": 70,
      "hit": false,
      "t": 209999.9999999999,
      "d": 86.66666666665697,
      "v": 64
    },
    {
      "midi": 70,
      "hit": false,
      "t": 210099.9999999999,
      "d": 86.66666666665697,
      "v": 64
    },
    {
      "midi": 71,
      "hit": false,
      "t": 210199.9999999999,
      "d": 86.66666666665697,
      "v": 64
    },
    {
      "midi": 72,
      "hit": false,
      "t": 210199.9999999999,
      "d": 86.66666666665697,
      "v": 64
    },
    {
      "midi": 73,
      "hit": false,
      "t": 210199.9999999999,
      "d": 86.66666666665697,
      "v": 64
    },
    {
      "midi": 74,
      "hit": false,
      "t": 210199.9999999999,
      "d": 86.66666666665697,
      "v": 64
    },
    {
      "midi": 75,
      "hit": false,
      "t": 210199.9999999999,
      "d": 86.66666666665697,
      "v": 64
    },
    {
      "midi": 76,
      "hit": false,
      "t": 210299.9999999999,
      "d": 86.66666666665697,
      "v": 64
    },
    {
      "midi": 70,
      "hit": false,
      "t": 210399.9999999999,
      "d": 86.66666666665697,
      "v": 64
    },
    {
      "midi": 74,
      "hit": false,
      "t": 210399.9999999999,
      "d": 86.66666666665697,
      "v": 64
    },
    {
      "midi": 75,
      "hit": false,
      "t": 210399.9999999999,
      "d": 86.66666666665697,
      "v": 64
    },
    {
      "midi": 76,
      "hit": false,
      "t": 210399.9999999999,
      "d": 86.66666666665697,
      "v": 64
    },
    {
      "midi": 70,
      "hit": false,
      "t": 210499.9999999999,
      "d": 86.66666666665697,
      "v": 64
    },
    {
      "midi": 73,
      "hit": false,
      "t": 210499.9999999999,
      "d": 86.66666666665697,
      "v": 64
    },
    {
      "midi": 76,
      "hit": false,
      "t": 210499.9999999999,
      "d": 86.66666666665697,
      "v": 64
    },
    {
      "midi": 70,
      "hit": false,
      "t": 210599.9999999999,
      "d": 86.66666666665697,
      "v": 64
    },
    {
      "midi": 73,
      "hit": false,
      "t": 210599.9999999999,
      "d": 86.66666666665697,
      "v": 64
    },
    {
      "midi": 76,
      "hit": false,
      "t": 210599.9999999999,
      "d": 86.66666666665697,
      "v": 64
    },
    {
      "midi": 70,
      "hit": false,
      "t": 210699.9999999999,
      "d": 86.66666666665697,
      "v": 64
    },
    {
      "midi": 73,
      "hit": false,
      "t": 210699.9999999999,
      "d": 86.66666666665697,
      "v": 64
    },
    {
      "midi": 76,
      "hit": false,
      "t": 210699.9999999999,
      "d": 86.66666666665697,
      "v": 64
    },
    {
      "midi": 71,
      "hit": false,
      "t": 210799.9999999999,
      "d": 86.66666666665697,
      "v": 64
    },
    {
      "midi": 72,
      "hit": false,
      "t": 210799.9999999999,
      "d": 86.66666666665697,
      "v": 64
    },
    {
      "midi": 76,
      "hit": false,
      "t": 210799.9999999999,
      "d": 86.66666666665697,
      "v": 64
    }
  ]
}