{
  "jsonPath": "World/Chanson/Dany Brillant/suzette.json",
  "path": "World\\Chanson\\Dany Brillant\\Suzette.mid",
  "name": "Suzette",
  "difficulty": "Advanced",
  "bpm": 210.00021000021,
  "notes": [
    {
      "midi": 57,
      "hit": false,
      "t": 24279.737625000005,
      "d": 928.5704999999944,
      "v": 64
    },
    {
      "midi": 61,
      "hit": false,
      "t": 24327.356625000004,
      "d": 889.8800624999967,
      "v": 73
    },
    {
      "midi": 69,
      "hit": false,
      "t": 24374.975625000003,
      "d": 845.2372499999983,
      "v": 86
    },
    {
      "midi": 73,
      "hit": false,
      "t": 24422.594625,
      "d": 797.6182499999995,
      "v": 100
    },
    {
      "midi": 79,
      "hit": false,
      "t": 24470.213625,
      "d": 744.046875,
      "v": 96
    },
    {
      "midi": 81,
      "hit": false,
      "t": 24517.832625,
      "d": 702.380250000002,
      "v": 99
    },
    {
      "midi": 57,
      "hit": false,
      "t": 26565.449625,
      "d": 928.5704999999944,
      "v": 64
    },
    {
      "midi": 65,
      "hit": false,
      "t": 26613.068625,
      "d": 889.8800624999967,
      "v": 73
    },
    {
      "midi": 69,
      "hit": false,
      "t": 26660.687625,
      "d": 845.2372499999983,
      "v": 86
    },
    {
      "midi": 72,
      "hit": false,
      "t": 26708.306624999997,
      "d": 797.6182499999995,
      "v": 100
    },
    {
      "midi": 74,
      "hit": false,
      "t": 26755.925624999996,
      "d": 744.046875,
      "v": 96
    },
    {
      "midi": 81,
      "hit": false,
      "t": 26803.544624999995,
      "d": 702.380250000002,
      "v": 99
    },
    {
      "midi": 59,
      "hit": false,
      "t": 28851.161624999997,
      "d": 928.5704999999944,
      "v": 64
    },
    {
      "midi": 66,
      "hit": false,
      "t": 28898.780624999996,
      "d": 889.8800624999967,
      "v": 73
    },
    {
      "midi": 69,
      "hit": false,
      "t": 28946.399624999995,
      "d": 845.2372499999983,
      "v": 86
    },
    {
      "midi": 75,
      "hit": false,
      "t": 28994.018624999993,
      "d": 797.6182499999995,
      "v": 100
    },
    {
      "midi": 78,
      "hit": false,
      "t": 29041.637624999992,
      "d": 744.046875,
      "v": 96
    },
    {
      "midi": 83,
      "hit": false,
      "t": 29089.25662499999,
      "d": 702.380250000002,
      "v": 99
    },
    {
      "midi": 57,
      "hit": false,
      "t": 31136.873624999993,
      "d": 928.5704999999944,
      "v": 64
    },
    {
      "midi": 65,
      "hit": false,
      "t": 31184.49262499999,
      "d": 889.8800624999967,
      "v": 73
    },
    {
      "midi": 69,
      "hit": false,
      "t": 31232.11162499999,
      "d": 845.2372499999983,
      "v": 86
    },
    {
      "midi": 72,
      "hit": false,
      "t": 31279.73062499999,
      "d": 797.6182499999995,
      "v": 100
    },
    {
      "midi": 74,
      "hit": false,
      "t": 31327.349624999988,
      "d": 744.046875,
      "v": 96
    },
    {
      "midi": 81,
      "hit": false,
      "t": 31374.968624999987,
      "d": 702.380250000002,
      "v": 99
    },
    {
      "midi": 68,
      "hit": false,
      "t": 32374.96762499999,
      "d": 497.02331250000134,
      "v": 96
    },
    {
      "midi": 80,
      "hit": false,
      "t": 32374.96762499999,
      "d": 499.9994999999981,
      "v": 102
    },
    {
      "midi": 76,
      "hit": false,
      "t": 32374.96762499999,
      "d": 508.9280624999956,
      "v": 84
    },
    {
      "midi": 56,
      "hit": false,
      "t": 32374.96762499999,
      "d": 517.8566249999931,
      "v": 83
    },
    {
      "midi": 64,
      "hit": false,
      "t": 32374.96762499999,
      "d": 517.8566249999931,
      "v": 90
    },
    {
      "midi": 74,
      "hit": false,
      "t": 32374.96762499999,
      "d": 517.8566249999931,
      "v": 85
    },
    {
      "midi": 64,
      "hit": false,
      "t": 33526.75218749998,
      "d": 735.1183124999952,
      "v": 83
    },
    {
      "midi": 76,
      "hit": false,
      "t": 33529.72837499998,
      "d": 720.237374999997,
      "v": 98
    },
    {
      "midi": 72,
      "hit": false,
      "t": 33529.72837499998,
      "d": 732.1421249999985,
      "v": 86
    },
    {
      "midi": 57,
      "hit": false,
      "t": 33532.704562499974,
      "d": 723.213562500001,
      "v": 89
    },
    {
      "midi": 88,
      "hit": false,
      "t": 42940.43324999997,
      "d": 62.49993749999703,
      "v": 92
    },
    {
      "midi": 93,
      "hit": false,
      "t": 42940.43324999997,
      "d": 62.49993749999703,
      "v": 90
    },
    {
      "midi": 84,
      "hit": false,
      "t": 42940.43324999997,
      "d": 68.45231249999779,
      "v": 90
    },
    {
      "midi": 76,
      "hit": false,
      "t": 42946.38562499997,
      "d": 53.571374999999534,
      "v": 88
    },
    {
      "midi": 81,
      "hit": false,
      "t": 42946.38562499997,
      "d": 56.547562499996275,
      "v": 86
    },
    {
      "midi": 84,
      "hit": false,
      "t": 43416.62324999997,
      "d": 68.45231249999779,
      "v": 90
    },
    {
      "midi": 88,
      "hit": false,
      "t": 43416.62324999997,
      "d": 68.45231249999779,
      "v": 91
    },
    {
      "midi": 93,
      "hit": false,
      "t": 43416.62324999997,
      "d": 68.45231249999779,
      "v": 91
    },
    {
      "midi": 81,
      "hit": false,
      "t": 43422.57562499997,
      "d": 53.571374999999534,
      "v": 88
    },
    {
      "midi": 76,
      "hit": false,
      "t": 43422.57562499997,
      "d": 56.547562499996275,
      "v": 88
    },
    {
      "midi": 84,
      "hit": false,
      "t": 43797.575249999965,
      "d": 62.49993749999703,
      "v": 91
    },
    {
      "midi": 88,
      "hit": false,
      "t": 43797.575249999965,
      "d": 65.47612499999377,
      "v": 90
    },
    {
      "midi": 93,
      "hit": false,
      "t": 43797.575249999965,
      "d": 65.47612499999377,
      "v": 91
    },
    {
      "midi": 76,
      "hit": false,
      "t": 43803.527624999966,
      "d": 53.571374999999534,
      "v": 88
    },
    {
      "midi": 81,
      "hit": false,
      "t": 43803.527624999966,
      "d": 53.571374999999534,
      "v": 87
    },
    {
      "midi": 84,
      "hit": false,
      "t": 44273.76524999996,
      "d": 65.47612500000105,
      "v": 91
    },
    {
      "midi": 93,
      "hit": false,
      "t": 44273.76524999996,
      "d": 65.47612500000105,
      "v": 90
    },
    {
      "midi": 88,
      "hit": false,
      "t": 44273.76524999996,
      "d": 71.4285000000018,
      "v": 90
    },
    {
      "midi": 81,
      "hit": false,
      "t": 44279.71762499996,
      "d": 53.571374999999534,
      "v": 86
    },
    {
      "midi": 76,
      "hit": false,
      "t": 44279.71762499996,
      "d": 59.52375000000029,
      "v": 88
    },
    {
      "midi": 84,
      "hit": false,
      "t": 44654.717249999965,
      "d": 62.49993749999703,
      "v": 91
    },
    {
      "midi": 88,
      "hit": false,
      "t": 44654.717249999965,
      "d": 62.49993749999703,
      "v": 91
    },
    {
      "midi": 93,
      "hit": false,
      "t": 44654.717249999965,
      "d": 62.49993749999703,
      "v": 90
    },
    {
      "midi": 81,
      "hit": false,
      "t": 44660.669624999966,
      "d": 53.571374999999534,
      "v": 87
    },
    {
      "midi": 76,
      "hit": false,
      "t": 44660.669624999966,
      "d": 56.547562499996275,
      "v": 86
    },
    {
      "midi": 84,
      "hit": false,
      "t": 45226.145249999965,
      "d": 62.49993750000431,
      "v": 91
    },
    {
      "midi": 93,
      "hit": false,
      "t": 45226.145249999965,
      "d": 65.47612500000105,
      "v": 90
    },
    {
      "midi": 88,
      "hit": false,
      "t": 45226.145249999965,
      "d": 68.45231249999779,
      "v": 90
    },
    {
      "midi": 81,
      "hit": false,
      "t": 45232.097624999966,
      "d": 56.54756250000355,
      "v": 86
    },
    {
      "midi": 76,
      "hit": false,
      "t": 45232.097624999966,
      "d": 59.52375000000029,
      "v": 86
    },
    {
      "midi": 84,
      "hit": false,
      "t": 45702.33524999996,
      "d": 65.47612500000105,
      "v": 91
    },
    {
      "midi": 88,
      "hit": false,
      "t": 45702.33524999996,
      "d": 65.47612500000105,
      "v": 90
    },
    {
      "midi": 93,
      "hit": false,
      "t": 45702.33524999996,
      "d": 65.47612500000105,
      "v": 89
    },
    {
      "midi": 76,
      "hit": false,
      "t": 45708.28762499996,
      "d": 59.52375000000029,
      "v": 86
    },
    {
      "midi": 81,
      "hit": false,
      "t": 45708.28762499996,
      "d": 59.52375000000029,
      "v": 87
    },
    {
      "midi": 86,
      "hit": false,
      "t": 46083.28724999996,
      "d": 68.45231249999051,
      "v": 92
    },
    {
      "midi": 92,
      "hit": false,
      "t": 46083.28724999996,
      "d": 68.45231249999051,
      "v": 90
    },
    {
      "midi": 95,
      "hit": false,
      "t": 46083.28724999996,
      "d": 68.45231249999051,
      "v": 90
    },
    {
      "midi": 80,
      "hit": false,
      "t": 46089.23962499996,
      "d": 53.571374999999534,
      "v": 87
    },
    {
      "midi": 68,
      "hit": false,
      "t": 46089.23962499996,
      "d": 56.547562499996275,
      "v": 86
    },
    {
      "midi": 76,
      "hit": false,
      "t": 46089.23962499996,
      "d": 59.523749999993015,
      "v": 86
    },
    {
      "midi": 86,
      "hit": false,
      "t": 46559.477249999945,
      "d": 62.49993749999703,
      "v": 92
    },
    {
      "midi": 95,
      "hit": false,
      "t": 46559.477249999945,
      "d": 65.47612499999377,
      "v": 91
    },
    {
      "midi": 92,
      "hit": false,
      "t": 46559.477249999945,
      "d": 71.42849999999453,
      "v": 90
    },
    {
      "midi": 76,
      "hit": false,
      "t": 46565.429624999946,
      "d": 53.571374999999534,
      "v": 87
    },
    {
      "midi": 68,
      "hit": false,
      "t": 46565.429624999946,
      "d": 56.547562499996275,
      "v": 88
    },
    {
      "midi": 80,
      "hit": false,
      "t": 46565.429624999946,
      "d": 56.547562499996275,
      "v": 86
    },
    {
      "midi": 86,
      "hit": false,
      "t": 46940.42924999994,
      "d": 65.47612499999377,
      "v": 90
    },
    {
      "midi": 95,
      "hit": false,
      "t": 46940.42924999994,
      "d": 68.45231249999051,
      "v": 90
    },
    {
      "midi": 92,
      "hit": false,
      "t": 46940.42924999994,
      "d": 71.42849999998725,
      "v": 89
    },
    {
      "midi": 68,
      "hit": false,
      "t": 46946.38162499994,
      "d": 50.595187500002794,
      "v": 87
    },
    {
      "midi": 80,
      "hit": false,
      "t": 46946.38162499994,
      "d": 53.571374999999534,
      "v": 86
    },
    {
      "midi": 76,
      "hit": false,
      "t": 46946.38162499994,
      "d": 56.547562499996275,
      "v": 87
    },
    {
      "midi": 86,
      "hit": false,
      "t": 47511.85724999993,
      "d": 65.47612500000105,
      "v": 91
    },
    {
      "midi": 89,
      "hit": false,
      "t": 47511.85724999993,
      "d": 65.47612500000105,
      "v": 91
    },
    {
      "midi": 93,
      "hit": false,
      "t": 47511.85724999993,
      "d": 74.40468749999854,
      "v": 91
    },
    {
      "midi": 74,
      "hit": false,
      "t": 47517.80962499993,
      "d": 56.54756250000355,
      "v": 86
    },
    {
      "midi": 81,
      "hit": false,
      "t": 47517.80962499993,
      "d": 56.54756250000355,
      "v": 88
    },
    {
      "midi": 86,
      "hit": false,
      "t": 47988.04724999992,
      "d": 68.45231249999779,
      "v": 91
    },
    {
      "midi": 89,
      "hit": false,
      "t": 47988.04724999992,
      "d": 68.45231249999779,
      "v": 90
    },
    {
      "midi": 93,
      "hit": false,
      "t": 47988.04724999992,
      "d": 68.45231249999779,
      "v": 90
    },
    {
      "midi": 81,
      "hit": false,
      "t": 47993.999624999924,
      "d": 56.54756250000355,
      "v": 88
    },
    {
      "midi": 74,
      "hit": false,
      "t": 47993.999624999924,
      "d": 59.52375000000029,
      "v": 86
    },
    {
      "midi": 92,
      "hit": false,
      "t": 48368.99924999992,
      "d": 65.47612500000105,
      "v": 91
    },
    {
      "midi": 86,
      "hit": false,
      "t": 48368.99924999992,
      "d": 68.45231249999779,
      "v": 92
    },
    {
      "midi": 95,
      "hit": false,
      "t": 48368.99924999992,
      "d": 71.42849999999453,
      "v": 91
    },
    {
      "midi": 68,
      "hit": false,
      "t": 48374.95162499992,
      "d": 56.54756250000355,
      "v": 86
    },
    {
      "midi": 76,
      "hit": false,
      "t": 48374.95162499992,
      "d": 59.52375000000029,
      "v": 86
    },
    {
      "midi": 80,
      "hit": false,
      "t": 48374.95162499992,
      "d": 59.52375000000029,
      "v": 86
    },
    {
      "midi": 86,
      "hit": false,
      "t": 48845.189249999916,
      "d": 62.49993750000431,
      "v": 90
    },
    {
      "midi": 95,
      "hit": false,
      "t": 48845.189249999916,
      "d": 62.49993750000431,
      "v": 92
    },
    {
      "midi": 92,
      "hit": false,
      "t": 48845.189249999916,
      "d": 68.45231249999779,
      "v": 92
    },
    {
      "midi": 68,
      "hit": false,
      "t": 48851.14162499992,
      "d": 59.52375000000029,
      "v": 87
    },
    {
      "midi": 76,
      "hit": false,
      "t": 48851.14162499992,
      "d": 59.52375000000029,
      "v": 88
    },
    {
      "midi": 80,
      "hit": false,
      "t": 48851.14162499992,
      "d": 59.52375000000029,
      "v": 86
    },
    {
      "midi": 86,
      "hit": false,
      "t": 49226.14124999991,
      "d": 68.45231249999779,
      "v": 92
    },
    {
      "midi": 92,
      "hit": false,
      "t": 49226.14124999991,
      "d": 68.45231249999779,
      "v": 91
    },
    {
      "midi": 95,
      "hit": false,
      "t": 49226.14124999991,
      "d": 68.45231249999779,
      "v": 91
    },
    {
      "midi": 68,
      "hit": false,
      "t": 49232.093624999914,
      "d": 53.571374999999534,
      "v": 87
    },
    {
      "midi": 76,
      "hit": false,
      "t": 49232.093624999914,
      "d": 59.52375000000029,
      "v": 88
    },
    {
      "midi": 80,
      "hit": false,
      "t": 49232.093624999914,
      "d": 59.52375000000029,
      "v": 87
    },
    {
      "midi": 86,
      "hit": false,
      "t": 49797.56924999991,
      "d": 65.47612500000105,
      "v": 92
    },
    {
      "midi": 89,
      "hit": false,
      "t": 49797.56924999991,
      "d": 71.4285000000018,
      "v": 92
    },
    {
      "midi": 93,
      "hit": false,
      "t": 49797.56924999991,
      "d": 74.40468749999854,
      "v": 91
    },
    {
      "midi": 74,
      "hit": false,
      "t": 49803.521624999914,
      "d": 56.54756250000355,
      "v": 88
    },
    {
      "midi": 81,
      "hit": false,
      "t": 49803.521624999914,
      "d": 59.52375000000029,
      "v": 86
    },
    {
      "midi": 95,
      "hit": false,
      "t": 50273.75924999991,
      "d": 62.49993750000431,
      "v": 90
    },
    {
      "midi": 86,
      "hit": false,
      "t": 50273.75924999991,
      "d": 65.47612500000105,
      "v": 90
    },
    {
      "midi": 92,
      "hit": false,
      "t": 50273.75924999991,
      "d": 68.45231249999779,
      "v": 89
    },
    {
      "midi": 76,
      "hit": false,
      "t": 50279.71162499991,
      "d": 56.54756250000355,
      "v": 87
    },
    {
      "midi": 80,
      "hit": false,
      "t": 50279.71162499991,
      "d": 56.54756250000355,
      "v": 86
    },
    {
      "midi": 68,
      "hit": false,
      "t": 50279.71162499991,
      "d": 59.52375000000029,
      "v": 86
    },
    {
      "midi": 84,
      "hit": false,
      "t": 50654.711249999906,
      "d": 68.45231249999779,
      "v": 91
    },
    {
      "midi": 88,
      "hit": false,
      "t": 50654.711249999906,
      "d": 68.45231249999779,
      "v": 91
    },
    {
      "midi": 93,
      "hit": false,
      "t": 50654.711249999906,
      "d": 68.45231249999779,
      "v": 90
    },
    {
      "midi": 76,
      "hit": false,
      "t": 50660.66362499991,
      "d": 56.54756250000355,
      "v": 87
    },
    {
      "midi": 81,
      "hit": false,
      "t": 50660.66362499991,
      "d": 59.52375000000029,
      "v": 86
    },
    {
      "midi": 93,
      "hit": false,
      "t": 51130.9012499999,
      "d": 62.49993750000431,
      "v": 90
    },
    {
      "midi": 88,
      "hit": false,
      "t": 51130.9012499999,
      "d": 65.47612500000105,
      "v": 92
    },
    {
      "midi": 84,
      "hit": false,
      "t": 51130.9012499999,
      "d": 68.45231249999779,
      "v": 90
    },
    {
      "midi": 76,
      "hit": false,
      "t": 51136.8536249999,
      "d": 56.54756250000355,
      "v": 87
    },
    {
      "midi": 81,
      "hit": false,
      "t": 51136.8536249999,
      "d": 59.52375000000029,
      "v": 87
    },
    {
      "midi": 84,
      "hit": false,
      "t": 51511.8532499999,
      "d": 65.47612500000105,
      "v": 92
    },
    {
      "midi": 93,
      "hit": false,
      "t": 51511.8532499999,
      "d": 68.45231249999779,
      "v": 90
    },
    {
      "midi": 88,
      "hit": false,
      "t": 51511.8532499999,
      "d": 74.40468749999854,
      "v": 90
    },
    {
      "midi": 76,
      "hit": false,
      "t": 51517.8056249999,
      "d": 56.54756250000355,
      "v": 86
    },
    {
      "midi": 81,
      "hit": false,
      "t": 51517.8056249999,
      "d": 56.54756250000355,
      "v": 86
    },
    {
      "midi": 88,
      "hit": false,
      "t": 52083.2812499999,
      "d": 62.49993749999703,
      "v": 92
    },
    {
      "midi": 93,
      "hit": false,
      "t": 52083.2812499999,
      "d": 62.49993749999703,
      "v": 90
    },
    {
      "midi": 84,
      "hit": false,
      "t": 52083.2812499999,
      "d": 68.45231249999779,
      "v": 90
    },
    {
      "midi": 76,
      "hit": false,
      "t": 52089.2336249999,
      "d": 53.571374999999534,
      "v": 88
    },
    {
      "midi": 81,
      "hit": false,
      "t": 52089.2336249999,
      "d": 56.547562499996275,
      "v": 86
    },
    {
      "midi": 84,
      "hit": false,
      "t": 52559.47124999989,
      "d": 68.45231249999779,
      "v": 90
    },
    {
      "midi": 88,
      "hit": false,
      "t": 52559.47124999989,
      "d": 68.45231249999779,
      "v": 91
    },
    {
      "midi": 93,
      "hit": false,
      "t": 52559.47124999989,
      "d": 68.45231249999779,
      "v": 91
    },
    {
      "midi": 81,
      "hit": false,
      "t": 52565.423624999894,
      "d": 53.571374999999534,
      "v": 88
    },
    {
      "midi": 76,
      "hit": false,
      "t": 52565.423624999894,
      "d": 56.547562499996275,
      "v": 88
    },
    {
      "midi": 84,
      "hit": false,
      "t": 52940.42324999989,
      "d": 62.49993749999703,
      "v": 91
    },
    {
      "midi": 88,
      "hit": false,
      "t": 52940.42324999989,
      "d": 65.47612499999377,
      "v": 90
    },
    {
      "midi": 93,
      "hit": false,
      "t": 52940.42324999989,
      "d": 65.47612499999377,
      "v": 91
    },
    {
      "midi": 76,
      "hit": false,
      "t": 52946.37562499989,
      "d": 53.571374999999534,
      "v": 88
    },
    {
      "midi": 81,
      "hit": false,
      "t": 52946.37562499989,
      "d": 53.571374999999534,
      "v": 87
    },
    {
      "midi": 84,
      "hit": false,
      "t": 53416.613249999886,
      "d": 65.47612500000105,
      "v": 91
    },
    {
      "midi": 93,
      "hit": false,
      "t": 53416.613249999886,
      "d": 65.47612500000105,
      "v": 90
    },
    {
      "midi": 88,
      "hit": false,
      "t": 53416.613249999886,
      "d": 71.4285000000018,
      "v": 90
    },
    {
      "midi": 81,
      "hit": false,
      "t": 53422.56562499989,
      "d": 53.571374999999534,
      "v": 86
    },
    {
      "midi": 76,
      "hit": false,
      "t": 53422.56562499989,
      "d": 59.52375000000029,
      "v": 88
    },
    {
      "midi": 84,
      "hit": false,
      "t": 53797.56524999989,
      "d": 62.49993749999703,
      "v": 91
    },
    {
      "midi": 88,
      "hit": false,
      "t": 53797.56524999989,
      "d": 62.49993749999703,
      "v": 91
    },
    {
      "midi": 93,
      "hit": false,
      "t": 53797.56524999989,
      "d": 62.49993749999703,
      "v": 90
    },
    {
      "midi": 81,
      "hit": false,
      "t": 53803.51762499989,
      "d": 53.571374999999534,
      "v": 87
    },
    {
      "midi": 76,
      "hit": false,
      "t": 53803.51762499989,
      "d": 56.547562499996275,
      "v": 86
    },
    {
      "midi": 84,
      "hit": false,
      "t": 54368.99324999989,
      "d": 62.49993750000431,
      "v": 91
    },
    {
      "midi": 93,
      "hit": false,
      "t": 54368.99324999989,
      "d": 65.47612500000105,
      "v": 90
    },
    {
      "midi": 88,
      "hit": false,
      "t": 54368.99324999989,
      "d": 68.45231249999779,
      "v": 90
    },
    {
      "midi": 81,
      "hit": false,
      "t": 54374.94562499989,
      "d": 56.54756250000355,
      "v": 86
    },
    {
      "midi": 76,
      "hit": false,
      "t": 54374.94562499989,
      "d": 59.52375000000029,
      "v": 86
    },
    {
      "midi": 84,
      "hit": false,
      "t": 54845.183249999885,
      "d": 65.47612500000105,
      "v": 91
    },
    {
      "midi": 88,
      "hit": false,
      "t": 54845.183249999885,
      "d": 65.47612500000105,
      "v": 90
    },
    {
      "midi": 93,
      "hit": false,
      "t": 54845.183249999885,
      "d": 65.47612500000105,
      "v": 89
    },
    {
      "midi": 76,
      "hit": false,
      "t": 54851.135624999886,
      "d": 59.52375000000029,
      "v": 86
    },
    {
      "midi": 81,
      "hit": false,
      "t": 54851.135624999886,
      "d": 59.52375000000029,
      "v": 87
    },
    {
      "midi": 86,
      "hit": false,
      "t": 55226.13524999988,
      "d": 68.45231249999051,
      "v": 92
    },
    {
      "midi": 92,
      "hit": false,
      "t": 55226.13524999988,
      "d": 68.45231249999051,
      "v": 90
    },
    {
      "midi": 95,
      "hit": false,
      "t": 55226.13524999988,
      "d": 68.45231249999051,
      "v": 90
    },
    {
      "midi": 80,
      "hit": false,
      "t": 55232.087624999884,
      "d": 53.571374999999534,
      "v": 87
    },
    {
      "midi": 68,
      "hit": false,
      "t": 55232.087624999884,
      "d": 56.547562499996275,
      "v": 86
    },
    {
      "midi": 76,
      "hit": false,
      "t": 55232.087624999884,
      "d": 59.523749999993015,
      "v": 86
    },
    {
      "midi": 86,
      "hit": false,
      "t": 55702.32524999987,
      "d": 62.49993749999703,
      "v": 92
    },
    {
      "midi": 95,
      "hit": false,
      "t": 55702.32524999987,
      "d": 65.47612499999377,
      "v": 91
    },
    {
      "midi": 92,
      "hit": false,
      "t": 55702.32524999987,
      "d": 71.42849999999453,
      "v": 90
    },
    {
      "midi": 76,
      "hit": false,
      "t": 55708.27762499987,
      "d": 53.571374999999534,
      "v": 87
    },
    {
      "midi": 68,
      "hit": false,
      "t": 55708.27762499987,
      "d": 56.547562499996275,
      "v": 88
    },
    {
      "midi": 80,
      "hit": false,
      "t": 55708.27762499987,
      "d": 56.547562499996275,
      "v": 86
    },
    {
      "midi": 86,
      "hit": false,
      "t": 56083.27724999987,
      "d": 65.47612499999377,
      "v": 90
    },
    {
      "midi": 95,
      "hit": false,
      "t": 56083.27724999987,
      "d": 68.45231249999051,
      "v": 90
    },
    {
      "midi": 92,
      "hit": false,
      "t": 56083.27724999987,
      "d": 71.42849999998725,
      "v": 89
    },
    {
      "midi": 68,
      "hit": false,
      "t": 56089.22962499987,
      "d": 50.595187500002794,
      "v": 87
    },
    {
      "midi": 80,
      "hit": false,
      "t": 56089.22962499987,
      "d": 53.571374999999534,
      "v": 86
    },
    {
      "midi": 76,
      "hit": false,
      "t": 56089.22962499987,
      "d": 56.547562499996275,
      "v": 87
    },
    {
      "midi": 86,
      "hit": false,
      "t": 56654.70524999985,
      "d": 65.47612500000105,
      "v": 91
    },
    {
      "midi": 89,
      "hit": false,
      "t": 56654.70524999985,
      "d": 65.47612500000105,
      "v": 91
    },
    {
      "midi": 93,
      "hit": false,
      "t": 56654.70524999985,
      "d": 74.40468749999854,
      "v": 91
    },
    {
      "midi": 74,
      "hit": false,
      "t": 56660.657624999854,
      "d": 56.54756250000355,
      "v": 86
    },
    {
      "midi": 81,
      "hit": false,
      "t": 56660.657624999854,
      "d": 56.54756250000355,
      "v": 88
    },
    {
      "midi": 86,
      "hit": false,
      "t": 57130.89524999985,
      "d": 68.45231249999779,
      "v": 91
    },
    {
      "midi": 89,
      "hit": false,
      "t": 57130.89524999985,
      "d": 68.45231249999779,
      "v": 90
    },
    {
      "midi": 93,
      "hit": false,
      "t": 57130.89524999985,
      "d": 68.45231249999779,
      "v": 90
    },
    {
      "midi": 81,
      "hit": false,
      "t": 57136.84762499985,
      "d": 56.54756250000355,
      "v": 88
    },
    {
      "midi": 74,
      "hit": false,
      "t": 57136.84762499985,
      "d": 59.52375000000029,
      "v": 86
    },
    {
      "midi": 92,
      "hit": false,
      "t": 57511.847249999846,
      "d": 65.47612500000105,
      "v": 91
    },
    {
      "midi": 86,
      "hit": false,
      "t": 57511.847249999846,
      "d": 68.45231249999779,
      "v": 92
    },
    {
      "midi": 95,
      "hit": false,
      "t": 57511.847249999846,
      "d": 71.42849999999453,
      "v": 91
    },
    {
      "midi": 68,
      "hit": false,
      "t": 57517.79962499985,
      "d": 56.54756250000355,
      "v": 86
    },
    {
      "midi": 76,
      "hit": false,
      "t": 57517.79962499985,
      "d": 59.52375000000029,
      "v": 86
    },
    {
      "midi": 80,
      "hit": false,
      "t": 57517.79962499985,
      "d": 59.52375000000029,
      "v": 86
    },
    {
      "midi": 86,
      "hit": false,
      "t": 57988.03724999984,
      "d": 62.49993750000431,
      "v": 90
    },
    {
      "midi": 95,
      "hit": false,
      "t": 57988.03724999984,
      "d": 62.49993750000431,
      "v": 92
    },
    {
      "midi": 92,
      "hit": false,
      "t": 57988.03724999984,
      "d": 68.45231249999779,
      "v": 92
    },
    {
      "midi": 68,
      "hit": false,
      "t": 57993.98962499984,
      "d": 59.52375000000029,
      "v": 87
    },
    {
      "midi": 76,
      "hit": false,
      "t": 57993.98962499984,
      "d": 59.52375000000029,
      "v": 88
    },
    {
      "midi": 80,
      "hit": false,
      "t": 57993.98962499984,
      "d": 59.52375000000029,
      "v": 86
    },
    {
      "midi": 86,
      "hit": false,
      "t": 58368.98924999984,
      "d": 68.45231249999779,
      "v": 92
    },
    {
      "midi": 92,
      "hit": false,
      "t": 58368.98924999984,
      "d": 68.45231249999779,
      "v": 91
    },
    {
      "midi": 95,
      "hit": false,
      "t": 58368.98924999984,
      "d": 68.45231249999779,
      "v": 91
    },
    {
      "midi": 68,
      "hit": false,
      "t": 58374.94162499984,
      "d": 53.571374999999534,
      "v": 87
    },
    {
      "midi": 76,
      "hit": false,
      "t": 58374.94162499984,
      "d": 59.52375000000029,
      "v": 88
    },
    {
      "midi": 80,
      "hit": false,
      "t": 58374.94162499984,
      "d": 59.52375000000029,
      "v": 87
    },
    {
      "midi": 86,
      "hit": false,
      "t": 58940.41724999984,
      "d": 65.47612500000105,
      "v": 92
    },
    {
      "midi": 89,
      "hit": false,
      "t": 58940.41724999984,
      "d": 71.4285000000018,
      "v": 92
    },
    {
      "midi": 93,
      "hit": false,
      "t": 58940.41724999984,
      "d": 74.40468749999854,
      "v": 91
    },
    {
      "midi": 74,
      "hit": false,
      "t": 58946.36962499984,
      "d": 56.54756250000355,
      "v": 88
    },
    {
      "midi": 81,
      "hit": false,
      "t": 58946.36962499984,
      "d": 59.52375000000029,
      "v": 86
    },
    {
      "midi": 95,
      "hit": false,
      "t": 59416.60724999983,
      "d": 62.49993750000431,
      "v": 90
    },
    {
      "midi": 86,
      "hit": false,
      "t": 59416.60724999983,
      "d": 65.47612500000105,
      "v": 90
    },
    {
      "midi": 92,
      "hit": false,
      "t": 59416.60724999983,
      "d": 68.45231249999779,
      "v": 89
    },
    {
      "midi": 76,
      "hit": false,
      "t": 59422.559624999834,
      "d": 56.54756250000355,
      "v": 87
    },
    {
      "midi": 80,
      "hit": false,
      "t": 59422.559624999834,
      "d": 56.54756250000355,
      "v": 86
    },
    {
      "midi": 68,
      "hit": false,
      "t": 59422.559624999834,
      "d": 59.52375000000029,
      "v": 86
    },
    {
      "midi": 84,
      "hit": false,
      "t": 59797.55924999983,
      "d": 68.45231249999779,
      "v": 91
    },
    {
      "midi": 88,
      "hit": false,
      "t": 59797.55924999983,
      "d": 68.45231249999779,
      "v": 91
    },
    {
      "midi": 93,
      "hit": false,
      "t": 59797.55924999983,
      "d": 68.45231249999779,
      "v": 90
    },
    {
      "midi": 76,
      "hit": false,
      "t": 59803.51162499983,
      "d": 56.54756250000355,
      "v": 87
    },
    {
      "midi": 81,
      "hit": false,
      "t": 59803.51162499983,
      "d": 59.52375000000029,
      "v": 86
    },
    {
      "midi": 93,
      "hit": false,
      "t": 60273.749249999826,
      "d": 62.49993750000431,
      "v": 90
    },
    {
      "midi": 88,
      "hit": false,
      "t": 60273.749249999826,
      "d": 65.47612500000105,
      "v": 92
    },
    {
      "midi": 84,
      "hit": false,
      "t": 60273.749249999826,
      "d": 68.45231249999779,
      "v": 90
    },
    {
      "midi": 76,
      "hit": false,
      "t": 60279.70162499983,
      "d": 56.54756250000355,
      "v": 87
    },
    {
      "midi": 81,
      "hit": false,
      "t": 60279.70162499983,
      "d": 59.52375000000029,
      "v": 87
    },
    {
      "midi": 69,
      "hit": false,
      "t": 60946.367624999824,
      "d": 1065.4751249999972,
      "v": 84
    },
    {
      "midi": 77,
      "hit": false,
      "t": 60946.367624999824,
      "d": 1065.4751249999972,
      "v": 91
    },
    {
      "midi": 72,
      "hit": false,
      "t": 60946.367624999824,
      "d": 1074.4036874999947,
      "v": 88
    },
    {
      "midi": 83,
      "hit": false,
      "t": 62089.22362499982,
      "d": 169.64268750000338,
      "v": 95
    },
    {
      "midi": 86,
      "hit": false,
      "t": 62089.22362499982,
      "d": 169.64268750000338,
      "v": 95
    },
    {
      "midi": 84,
      "hit": false,
      "t": 62270.77106249982,
      "d": 133.92843749999884,
      "v": 89
    },
    {
      "midi": 81,
      "hit": false,
      "t": 62273.74724999982,
      "d": 133.92843749999884,
      "v": 89
    },
    {
      "midi": 83,
      "hit": false,
      "t": 62464.22324999982,
      "d": 124.99987499999406,
      "v": 84
    },
    {
      "midi": 79,
      "hit": false,
      "t": 62467.19943749982,
      "d": 124.99987499999406,
      "v": 84
    },
    {
      "midi": 81,
      "hit": false,
      "t": 62651.72306249981,
      "d": 136.90462499999558,
      "v": 87
    },
    {
      "midi": 77,
      "hit": false,
      "t": 62654.69924999981,
      "d": 136.90462499999558,
      "v": 87
    },
    {
      "midi": 79,
      "hit": false,
      "t": 62836.246687499806,
      "d": 133.92843749999884,
      "v": 84
    },
    {
      "midi": 76,
      "hit": false,
      "t": 62839.2228749998,
      "d": 133.92843749999884,
      "v": 84
    },
    {
      "midi": 77,
      "hit": false,
      "t": 63038.6274374998,
      "d": 139.8808124999996,
      "v": 85
    },
    {
      "midi": 74,
      "hit": false,
      "t": 63041.6036249998,
      "d": 139.8808124999996,
      "v": 85
    },
    {
      "midi": 76,
      "hit": false,
      "t": 63223.1510624998,
      "d": 997.0228124999994,
      "v": 84
    },
    {
      "midi": 72,
      "hit": false,
      "t": 63226.127249999794,
      "d": 997.0228124999994,
      "v": 84
    },
    {
      "midi": 84,
      "hit": false,
      "t": 64368.983249999794,
      "d": 148.8093749999971,
      "v": 95
    },
    {
      "midi": 81,
      "hit": false,
      "t": 64371.95943749979,
      "d": 148.8093749999971,
      "v": 95
    },
    {
      "midi": 83,
      "hit": false,
      "t": 64547.55449999979,
      "d": 127.97606249999808,
      "v": 88
    },
    {
      "midi": 79,
      "hit": false,
      "t": 64550.530687499784,
      "d": 127.97606249999808,
      "v": 88
    },
    {
      "midi": 81,
      "hit": false,
      "t": 64746.95906249978,
      "d": 133.92843749999884,
      "v": 94
    },
    {
      "midi": 77,
      "hit": false,
      "t": 64749.93524999978,
      "d": 133.92843749999884,
      "v": 94
    },
    {
      "midi": 79,
      "hit": false,
      "t": 64937.435062499775,
      "d": 130.95224999999482,
      "v": 85
    },
    {
      "midi": 76,
      "hit": false,
      "t": 64940.41124999977,
      "d": 130.95224999999482,
      "v": 85
    },
    {
      "midi": 77,
      "hit": false,
      "t": 65124.934874999766,
      "d": 130.95224999999482,
      "v": 83
    },
    {
      "midi": 74,
      "hit": false,
      "t": 65127.91106249976,
      "d": 130.95224999999482,
      "v": 83
    },
    {
      "midi": 76,
      "hit": false,
      "t": 65321.363249999755,
      "d": 133.92843749999884,
      "v": 87
    },
    {
      "midi": 72,
      "hit": false,
      "t": 65324.33943749975,
      "d": 133.92843749999884,
      "v": 87
    },
    {
      "midi": 74,
      "hit": false,
      "t": 65502.91068749975,
      "d": 901.7848125000019,
      "v": 87
    },
    {
      "midi": 71,
      "hit": false,
      "t": 65505.88687499975,
      "d": 901.7848125000019,
      "v": 87
    },
    {
      "midi": 83,
      "hit": false,
      "t": 66651.71906249975,
      "d": 124.99987499999406,
      "v": 95
    },
    {
      "midi": 80,
      "hit": false,
      "t": 66654.69524999974,
      "d": 124.99987499999406,
      "v": 95
    },
    {
      "midi": 81,
      "hit": false,
      "t": 66839.21887499973,
      "d": 142.8570000000036,
      "v": 88
    },
    {
      "midi": 77,
      "hit": false,
      "t": 66842.19506249973,
      "d": 142.8570000000036,
      "v": 88
    },
    {
      "midi": 80,
      "hit": false,
      "t": 67038.62343749973,
      "d": 124.99987499999406,
      "v": 84
    },
    {
      "midi": 76,
      "hit": false,
      "t": 67041.59962499973,
      "d": 124.99987499999406,
      "v": 84
    },
    {
      "midi": 77,
      "hit": false,
      "t": 67223.14706249972,
      "d": 133.92843749999884,
      "v": 84
    },
    {
      "midi": 74,
      "hit": false,
      "t": 67226.12324999971,
      "d": 133.92843749999884,
      "v": 84
    },
    {
      "midi": 76,
      "hit": false,
      "t": 67416.59924999971,
      "d": 136.90462499999558,
      "v": 87
    },
    {
      "midi": 72,
      "hit": false,
      "t": 67419.5754374997,
      "d": 136.90462499999558,
      "v": 87
    },
    {
      "midi": 74,
      "hit": false,
      "t": 67604.0990624997,
      "d": 133.92843749999884,
      "v": 81
    },
    {
      "midi": 71,
      "hit": false,
      "t": 67607.0752499997,
      "d": 133.92843749999884,
      "v": 81
    },
    {
      "midi": 69,
      "hit": false,
      "t": 67800.5274374997,
      "d": 422.6186250000028,
      "v": 78
    },
    {
      "midi": 64,
      "hit": false,
      "t": 67800.5274374997,
      "d": 425.59481249999953,
      "v": 77
    },
    {
      "midi": 72,
      "hit": false,
      "t": 67800.5274374997,
      "d": 428.5709999999963,
      "v": 81
    },
    {
      "midi": 76,
      "hit": false,
      "t": 68368.9792499997,
      "d": 333.3329999999987,
      "v": 93
    },
    {
      "midi": 69,
      "hit": false,
      "t": 68371.9554374997,
      "d": 336.30918749999546,
      "v": 90
    },
    {
      "midi": 72,
      "hit": false,
      "t": 68371.9554374997,
      "d": 339.2853749999922,
      "v": 89
    },
    {
      "midi": 57,
      "hit": false,
      "t": 68845.16924999969,
      "d": 630.9517499999929,
      "v": 81
    },
    {
      "midi": 61,
      "hit": false,
      "t": 68895.76443749969,
      "d": 571.4279999999999,
      "v": 73
    },
    {
      "midi": 64,
      "hit": false,
      "t": 68940.40724999968,
      "d": 523.8090000000084,
      "v": 87
    },
    {
      "midi": 69,
      "hit": false,
      "t": 68970.16912499968,
      "d": 482.14237500001036,
      "v": 84
    },
    {
      "midi": 73,
      "hit": false,
      "t": 68993.97862499968,
      "d": 476.1900000000023,
      "v": 89
    },
    {
      "midi": 57,
      "hit": false,
      "t": 69505.88287499968,
      "d": 416.66624999999476,
      "v": 70
    },
    {
      "midi": 64,
      "hit": false,
      "t": 69505.88287499968,
      "d": 425.59481249999953,
      "v": 76
    },
    {
      "midi": 73,
      "hit": false,
      "t": 69508.85906249967,
      "d": 431.547187499993,
      "v": 82
    },
    {
      "midi": 76,
      "hit": false,
      "t": 69508.85906249967,
      "d": 437.4995624999865,
      "v": 89
    },
    {
      "midi": 67,
      "hit": false,
      "t": 69511.83524999967,
      "d": 422.6186250000028,
      "v": 76
    },
    {
      "midi": 69,
      "hit": false,
      "t": 70089.21562499966,
      "d": 1065.4751249999972,
      "v": 84
    },
    {
      "midi": 77,
      "hit": false,
      "t": 70089.21562499966,
      "d": 1065.4751249999972,
      "v": 91
    },
    {
      "midi": 72,
      "hit": false,
      "t": 70089.21562499966,
      "d": 1074.403687500002,
      "v": 88
    },
    {
      "midi": 83,
      "hit": false,
      "t": 71232.07162499966,
      "d": 169.64268750000338,
      "v": 95
    },
    {
      "midi": 86,
      "hit": false,
      "t": 71232.07162499966,
      "d": 169.64268750000338,
      "v": 95
    },
    {
      "midi": 84,
      "hit": false,
      "t": 71413.61906249967,
      "d": 133.92843749999884,
      "v": 89
    },
    {
      "midi": 81,
      "hit": false,
      "t": 71416.59524999966,
      "d": 133.92843749999884,
      "v": 89
    },
    {
      "midi": 83,
      "hit": false,
      "t": 71607.07124999966,
      "d": 124.99987499999406,
      "v": 84
    },
    {
      "midi": 79,
      "hit": false,
      "t": 71610.04743749966,
      "d": 124.99987499999406,
      "v": 84
    },
    {
      "midi": 81,
      "hit": false,
      "t": 71794.57106249964,
      "d": 136.90462499999558,
      "v": 87
    },
    {
      "midi": 77,
      "hit": false,
      "t": 71797.54724999964,
      "d": 136.90462499999558,
      "v": 87
    },
    {
      "midi": 79,
      "hit": false,
      "t": 71979.09468749963,
      "d": 133.92843749999884,
      "v": 84
    },
    {
      "midi": 76,
      "hit": false,
      "t": 71982.07087499963,
      "d": 133.92843749999884,
      "v": 84
    },
    {
      "midi": 77,
      "hit": false,
      "t": 72181.47543749963,
      "d": 139.88081249999232,
      "v": 85
    },
    {
      "midi": 74,
      "hit": false,
      "t": 72184.45162499962,
      "d": 139.88081249999232,
      "v": 85
    },
    {
      "midi": 76,
      "hit": false,
      "t": 72365.99906249961,
      "d": 997.0228124999994,
      "v": 84
    },
    {
      "midi": 72,
      "hit": false,
      "t": 72368.97524999961,
      "d": 997.0228124999994,
      "v": 84
    },
    {
      "midi": 84,
      "hit": false,
      "t": 73511.83124999961,
      "d": 148.8093749999971,
      "v": 95
    },
    {
      "midi": 81,
      "hit": false,
      "t": 73514.8074374996,
      "d": 148.8093749999971,
      "v": 95
    },
    {
      "midi": 83,
      "hit": false,
      "t": 73690.4024999996,
      "d": 127.9760624999908,
      "v": 88
    },
    {
      "midi": 79,
      "hit": false,
      "t": 73693.3786874996,
      "d": 127.9760624999908,
      "v": 88
    },
    {
      "midi": 81,
      "hit": false,
      "t": 73889.80706249959,
      "d": 133.92843749999884,
      "v": 94
    },
    {
      "midi": 77,
      "hit": false,
      "t": 73892.78324999959,
      "d": 133.92843749999884,
      "v": 94
    },
    {
      "midi": 79,
      "hit": false,
      "t": 74080.28306249958,
      "d": 130.9522500000021,
      "v": 85
    },
    {
      "midi": 76,
      "hit": false,
      "t": 74083.25924999958,
      "d": 130.9522500000021,
      "v": 85
    },
    {
      "midi": 77,
      "hit": false,
      "t": 74267.78287499958,
      "d": 130.9522500000021,
      "v": 83
    },
    {
      "midi": 74,
      "hit": false,
      "t": 74270.75906249958,
      "d": 130.9522500000021,
      "v": 83
    },
    {
      "midi": 76,
      "hit": false,
      "t": 74464.21124999959,
      "d": 133.92843749999884,
      "v": 87
    },
    {
      "midi": 72,
      "hit": false,
      "t": 74467.18743749958,
      "d": 133.92843749999884,
      "v": 87
    },
    {
      "midi": 75,
      "hit": false,
      "t": 74648.73487499959,
      "d": 830.3563124999928,
      "v": 91
    },
    {
      "midi": 66,
      "hit": false,
      "t": 74648.73487499959,
      "d": 836.3086874999863,
      "v": 85
    },
    {
      "midi": 71,
      "hit": false,
      "t": 74654.68724999958,
      "d": 848.2134374999878,
      "v": 88
    },
    {
      "midi": 59,
      "hit": false,
      "t": 74654.68724999958,
      "d": 854.1658124999813,
      "v": 82
    },
    {
      "midi": 66,
      "hit": false,
      "t": 75794.56706249957,
      "d": 1011.9037499999831,
      "v": 94
    },
    {
      "midi": 71,
      "hit": false,
      "t": 75797.54324999957,
      "d": 1005.9513749999896,
      "v": 84
    },
    {
      "midi": 59,
      "hit": false,
      "t": 75797.54324999957,
      "d": 1017.8561249999912,
      "v": 90
    },
    {
      "midi": 75,
      "hit": false,
      "t": 75800.51943749956,
      "d": 1023.8084999999992,
      "v": 85
    },
    {
      "midi": 50,
      "hit": false,
      "t": 76937.42306249957,
      "d": 833.3324999999895,
      "v": 73
    },
    {
      "midi": 74,
      "hit": false,
      "t": 76937.42306249957,
      "d": 857.141999999978,
      "v": 91
    },
    {
      "midi": 65,
      "hit": false,
      "t": 76940.39924999957,
      "d": 845.237249999991,
      "v": 84
    },
    {
      "midi": 57,
      "hit": false,
      "t": 76940.39924999957,
      "d": 848.2134374999878,
      "v": 82
    },
    {
      "midi": 62,
      "hit": false,
      "t": 76940.39924999957,
      "d": 860.1181874999747,
      "v": 85
    },
    {
      "midi": 72,
      "hit": false,
      "t": 76946.35162499956,
      "d": 845.237249999991,
      "v": 83
    },
    {
      "midi": 68,
      "hit": false,
      "t": 78068.37431249954,
      "d": 916.6657499999856,
      "v": 84
    },
    {
      "midi": 76,
      "hit": false,
      "t": 78068.37431249954,
      "d": 916.6657499999856,
      "v": 86
    },
    {
      "midi": 52,
      "hit": false,
      "t": 78071.35049999953,
      "d": 916.6657499999856,
      "v": 87
    },
    {
      "midi": 71,
      "hit": false,
      "t": 78071.35049999953,
      "d": 916.6657499999856,
      "v": 93
    },
    {
      "midi": 62,
      "hit": false,
      "t": 78074.32668749953,
      "d": 916.6657499999856,
      "v": 91
    },
    {
      "midi": 59,
      "hit": false,
      "t": 78077.30287499953,
      "d": 916.6657499999856,
      "v": 93
    },
    {
      "midi": 60,
      "hit": false,
      "t": 79232.06362499952,
      "d": 83.33324999999604,
      "v": 83
    },
    {
      "midi": 69,
      "hit": false,
      "t": 79232.06362499952,
      "d": 89.28562499998952,
      "v": 84
    },
    {
      "midi": 76,
      "hit": false,
      "t": 79232.06362499952,
      "d": 89.28562499998952,
      "v": 88
    },
    {
      "midi": 81,
      "hit": false,
      "t": 79232.06362499952,
      "d": 89.28562499998952,
      "v": 86
    },
    {
      "midi": 81,
      "hit": false,
      "t": 79988.0152499995,
      "d": 80.3570624999993,
      "v": 88
    },
    {
      "midi": 69,
      "hit": false,
      "t": 79988.0152499995,
      "d": 83.33324999999604,
      "v": 88
    },
    {
      "midi": 76,
      "hit": false,
      "t": 79988.0152499995,
      "d": 83.33324999999604,
      "v": 86
    },
    {
      "midi": 60,
      "hit": false,
      "t": 79988.0152499995,
      "d": 86.30943749999278,
      "v": 88
    },
    {
      "midi": 76,
      "hit": false,
      "t": 80368.96724999949,
      "d": 80.3570624999993,
      "v": 81
    },
    {
      "midi": 60,
      "hit": false,
      "t": 80368.96724999949,
      "d": 83.33324999999604,
      "v": 77
    },
    {
      "midi": 69,
      "hit": false,
      "t": 80368.96724999949,
      "d": 83.33324999999604,
      "v": 86
    },
    {
      "midi": 81,
      "hit": false,
      "t": 80368.96724999949,
      "d": 86.30943749999278,
      "v": 84
    },
    {
      "midi": 60,
      "hit": false,
      "t": 81130.87124999949,
      "d": 83.33324999999604,
      "v": 84
    },
    {
      "midi": 69,
      "hit": false,
      "t": 81130.87124999949,
      "d": 83.33324999999604,
      "v": 86
    },
    {
      "midi": 76,
      "hit": false,
      "t": 81130.87124999949,
      "d": 83.33324999999604,
      "v": 87
    },
    {
      "midi": 81,
      "hit": false,
      "t": 81130.87124999949,
      "d": 86.30943749999278,
      "v": 89
    },
    {
      "midi": 74,
      "hit": false,
      "t": 81511.82324999948,
      "d": 83.33324999999604,
      "v": 85
    },
    {
      "midi": 77,
      "hit": false,
      "t": 81511.82324999948,
      "d": 86.30943749999278,
      "v": 88
    },
    {
      "midi": 62,
      "hit": false,
      "t": 81511.82324999948,
      "d": 92.26181249998626,
      "v": 83
    },
    {
      "midi": 69,
      "hit": false,
      "t": 81511.82324999948,
      "d": 101.19037499999104,
      "v": 78
    },
    {
      "midi": 62,
      "hit": false,
      "t": 82273.72724999947,
      "d": 83.33324999999604,
      "v": 94
    },
    {
      "midi": 69,
      "hit": false,
      "t": 82273.72724999947,
      "d": 83.33324999999604,
      "v": 94
    },
    {
      "midi": 74,
      "hit": false,
      "t": 82273.72724999947,
      "d": 86.30943749999278,
      "v": 93
    },
    {
      "midi": 77,
      "hit": false,
      "t": 82273.72724999947,
      "d": 86.30943749999278,
      "v": 93
    },
    {
      "midi": 77,
      "hit": false,
      "t": 82654.67924999946,
      "d": 71.42849999999453,
      "v": 83
    },
    {
      "midi": 62,
      "hit": false,
      "t": 82654.67924999946,
      "d": 77.38087499998801,
      "v": 78
    },
    {
      "midi": 69,
      "hit": false,
      "t": 82654.67924999946,
      "d": 77.38087499998801,
      "v": 83
    },
    {
      "midi": 74,
      "hit": false,
      "t": 82654.67924999946,
      "d": 83.33324999998149,
      "v": 79
    },
    {
      "midi": 69,
      "hit": false,
      "t": 83416.58324999944,
      "d": 71.42849999999453,
      "v": 87
    },
    {
      "midi": 77,
      "hit": false,
      "t": 83416.58324999944,
      "d": 71.42849999999453,
      "v": 87
    },
    {
      "midi": 62,
      "hit": false,
      "t": 83416.58324999944,
      "d": 77.38087499998801,
      "v": 87
    },
    {
      "midi": 74,
      "hit": false,
      "t": 83416.58324999944,
      "d": 83.33324999998149,
      "v": 86
    },
    {
      "midi": 64,
      "hit": false,
      "t": 83797.53524999942,
      "d": 83.33324999999604,
      "v": 81
    },
    {
      "midi": 74,
      "hit": false,
      "t": 83797.53524999942,
      "d": 83.33324999999604,
      "v": 83
    },
    {
      "midi": 83,
      "hit": false,
      "t": 83797.53524999942,
      "d": 86.30943749999278,
      "v": 87
    },
    {
      "midi": 76,
      "hit": false,
      "t": 83797.53524999942,
      "d": 89.28562499998952,
      "v": 88
    },
    {
      "midi": 71,
      "hit": false,
      "t": 83797.53524999942,
      "d": 92.26181249998626,
      "v": 84
    },
    {
      "midi": 64,
      "hit": false,
      "t": 84559.4392499994,
      "d": 83.33324999999604,
      "v": 95
    },
    {
      "midi": 71,
      "hit": false,
      "t": 84559.4392499994,
      "d": 83.33324999999604,
      "v": 95
    },
    {
      "midi": 74,
      "hit": false,
      "t": 84559.4392499994,
      "d": 83.33324999999604,
      "v": 84
    },
    {
      "midi": 76,
      "hit": false,
      "t": 84559.4392499994,
      "d": 83.33324999999604,
      "v": 94
    },
    {
      "midi": 83,
      "hit": false,
      "t": 84559.4392499994,
      "d": 83.33324999999604,
      "v": 84
    },
    {
      "midi": 64,
      "hit": false,
      "t": 84940.39124999939,
      "d": 80.3570624999993,
      "v": 88
    },
    {
      "midi": 71,
      "hit": false,
      "t": 84940.39124999939,
      "d": 80.3570624999993,
      "v": 83
    },
    {
      "midi": 76,
      "hit": false,
      "t": 84940.39124999939,
      "d": 80.3570624999993,
      "v": 84
    },
    {
      "midi": 83,
      "hit": false,
      "t": 84940.39124999939,
      "d": 80.3570624999993,
      "v": 85
    },
    {
      "midi": 74,
      "hit": false,
      "t": 84940.39124999939,
      "d": 83.33324999999604,
      "v": 89
    },
    {
      "midi": 64,
      "hit": false,
      "t": 85702.29524999938,
      "d": 80.3570624999993,
      "v": 87
    },
    {
      "midi": 71,
      "hit": false,
      "t": 85702.29524999938,
      "d": 80.3570624999993,
      "v": 88
    },
    {
      "midi": 76,
      "hit": false,
      "t": 85702.29524999938,
      "d": 86.30943749999278,
      "v": 87
    },
    {
      "midi": 83,
      "hit": false,
      "t": 85702.29524999938,
      "d": 86.30943749999278,
      "v": 86
    },
    {
      "midi": 74,
      "hit": false,
      "t": 85702.29524999938,
      "d": 92.26181249998626,
      "v": 88
    },
    {
      "midi": 71,
      "hit": false,
      "t": 86083.24724999937,
      "d": 80.3570624999993,
      "v": 81
    },
    {
      "midi": 78,
      "hit": false,
      "t": 86083.24724999937,
      "d": 83.33324999999604,
      "v": 83
    },
    {
      "midi": 59,
      "hit": false,
      "t": 86083.24724999937,
      "d": 86.30943749999278,
      "v": 78
    },
    {
      "midi": 63,
      "hit": false,
      "t": 86083.24724999937,
      "d": 86.30943749999278,
      "v": 82
    },
    {
      "midi": 75,
      "hit": false,
      "t": 86083.24724999937,
      "d": 86.30943749999278,
      "v": 81
    },
    {
      "midi": 75,
      "hit": false,
      "t": 86845.15124999937,
      "d": 71.42849999999453,
      "v": 95
    },
    {
      "midi": 59,
      "hit": false,
      "t": 86845.15124999937,
      "d": 83.33324999999604,
      "v": 95
    },
    {
      "midi": 63,
      "hit": false,
      "t": 86845.15124999937,
      "d": 83.33324999999604,
      "v": 94
    },
    {
      "midi": 71,
      "hit": false,
      "t": 86845.15124999937,
      "d": 83.33324999999604,
      "v": 94
    },
    {
      "midi": 78,
      "hit": false,
      "t": 86845.15124999937,
      "d": 86.30943749999278,
      "v": 95
    },
    {
      "midi": 74,
      "hit": false,
      "t": 87226.10324999936,
      "d": 80.3570624999993,
      "v": 84
    },
    {
      "midi": 68,
      "hit": false,
      "t": 87226.10324999936,
      "d": 83.33324999999604,
      "v": 82
    },
    {
      "midi": 80,
      "hit": false,
      "t": 87226.10324999936,
      "d": 89.28562499998952,
      "v": 85
    },
    {
      "midi": 71,
      "hit": false,
      "t": 87226.10324999936,
      "d": 92.26181249998626,
      "v": 82
    },
    {
      "midi": 64,
      "hit": false,
      "t": 87226.10324999936,
      "d": 95.237999999983,
      "v": 81
    },
    {
      "midi": 74,
      "hit": false,
      "t": 87988.00724999934,
      "d": 77.38087500000256,
      "v": 87
    },
    {
      "midi": 80,
      "hit": false,
      "t": 87988.00724999934,
      "d": 77.38087500000256,
      "v": 88
    },
    {
      "midi": 68,
      "hit": false,
      "t": 87988.00724999934,
      "d": 83.33324999999604,
      "v": 88
    },
    {
      "midi": 71,
      "hit": false,
      "t": 87988.00724999934,
      "d": 83.33324999999604,
      "v": 88
    },
    {
      "midi": 64,
      "hit": false,
      "t": 87988.00724999934,
      "d": 104.16656250000233,
      "v": 87
    },
    {
      "midi": 60,
      "hit": false,
      "t": 88374.91162499934,
      "d": 83.33324999999604,
      "v": 83
    },
    {
      "midi": 69,
      "hit": false,
      "t": 88374.91162499934,
      "d": 89.28562499998952,
      "v": 84
    },
    {
      "midi": 76,
      "hit": false,
      "t": 88374.91162499934,
      "d": 89.28562499998952,
      "v": 88
    },
    {
      "midi": 81,
      "hit": false,
      "t": 88374.91162499934,
      "d": 89.28562499998952,
      "v": 86
    },
    {
      "midi": 81,
      "hit": false,
      "t": 89130.86324999933,
      "d": 80.3570624999993,
      "v": 88
    },
    {
      "midi": 69,
      "hit": false,
      "t": 89130.86324999933,
      "d": 83.33324999999604,
      "v": 88
    },
    {
      "midi": 76,
      "hit": false,
      "t": 89130.86324999933,
      "d": 83.33324999999604,
      "v": 86
    },
    {
      "midi": 60,
      "hit": false,
      "t": 89130.86324999933,
      "d": 86.30943749999278,
      "v": 88
    },
    {
      "midi": 76,
      "hit": false,
      "t": 89511.81524999932,
      "d": 80.3570624999993,
      "v": 81
    },
    {
      "midi": 60,
      "hit": false,
      "t": 89511.81524999932,
      "d": 83.33324999999604,
      "v": 77
    },
    {
      "midi": 69,
      "hit": false,
      "t": 89511.81524999932,
      "d": 83.33324999999604,
      "v": 86
    },
    {
      "midi": 81,
      "hit": false,
      "t": 89511.81524999932,
      "d": 86.30943749999278,
      "v": 84
    },
    {
      "midi": 60,
      "hit": false,
      "t": 90273.71924999931,
      "d": 83.33324999999604,
      "v": 84
    },
    {
      "midi": 69,
      "hit": false,
      "t": 90273.71924999931,
      "d": 83.33324999999604,
      "v": 86
    },
    {
      "midi": 76,
      "hit": false,
      "t": 90273.71924999931,
      "d": 83.33324999999604,
      "v": 87
    },
    {
      "midi": 81,
      "hit": false,
      "t": 90273.71924999931,
      "d": 86.30943749999278,
      "v": 89
    },
    {
      "midi": 74,
      "hit": false,
      "t": 90654.6712499993,
      "d": 83.33324999999604,
      "v": 85
    },
    {
      "midi": 77,
      "hit": false,
      "t": 90654.6712499993,
      "d": 86.30943749999278,
      "v": 88
    },
    {
      "midi": 62,
      "hit": false,
      "t": 90654.6712499993,
      "d": 92.26181249998626,
      "v": 83
    },
    {
      "midi": 69,
      "hit": false,
      "t": 90654.6712499993,
      "d": 101.19037499999104,
      "v": 78
    },
    {
      "midi": 62,
      "hit": false,
      "t": 91416.5752499993,
      "d": 83.33324999999604,
      "v": 94
    },
    {
      "midi": 69,
      "hit": false,
      "t": 91416.5752499993,
      "d": 83.33324999999604,
      "v": 94
    },
    {
      "midi": 74,
      "hit": false,
      "t": 91416.5752499993,
      "d": 86.30943749999278,
      "v": 93
    },
    {
      "midi": 77,
      "hit": false,
      "t": 91416.5752499993,
      "d": 86.30943749999278,
      "v": 93
    },
    {
      "midi": 77,
      "hit": false,
      "t": 91797.52724999929,
      "d": 71.42849999999453,
      "v": 83
    },
    {
      "midi": 62,
      "hit": false,
      "t": 91797.52724999929,
      "d": 77.38087499998801,
      "v": 78
    },
    {
      "midi": 69,
      "hit": false,
      "t": 91797.52724999929,
      "d": 77.38087499998801,
      "v": 83
    },
    {
      "midi": 74,
      "hit": false,
      "t": 91797.52724999929,
      "d": 83.33324999998149,
      "v": 79
    },
    {
      "midi": 69,
      "hit": false,
      "t": 92559.43124999927,
      "d": 71.42849999999453,
      "v": 87
    },
    {
      "midi": 77,
      "hit": false,
      "t": 92559.43124999927,
      "d": 71.42849999999453,
      "v": 87
    },
    {
      "midi": 62,
      "hit": false,
      "t": 92559.43124999927,
      "d": 77.38087499998801,
      "v": 87
    },
    {
      "midi": 74,
      "hit": false,
      "t": 92559.43124999927,
      "d": 83.33324999998149,
      "v": 86
    },
    {
      "midi": 64,
      "hit": false,
      "t": 92940.38324999924,
      "d": 83.33324999999604,
      "v": 81
    },
    {
      "midi": 74,
      "hit": false,
      "t": 92940.38324999924,
      "d": 83.33324999999604,
      "v": 83
    },
    {
      "midi": 83,
      "hit": false,
      "t": 92940.38324999924,
      "d": 86.30943749999278,
      "v": 87
    },
    {
      "midi": 76,
      "hit": false,
      "t": 92940.38324999924,
      "d": 89.28562499998952,
      "v": 88
    },
    {
      "midi": 71,
      "hit": false,
      "t": 92940.38324999924,
      "d": 92.26181249998626,
      "v": 84
    },
    {
      "midi": 64,
      "hit": false,
      "t": 93702.28724999922,
      "d": 83.33324999999604,
      "v": 95
    },
    {
      "midi": 71,
      "hit": false,
      "t": 93702.28724999922,
      "d": 83.33324999999604,
      "v": 95
    },
    {
      "midi": 74,
      "hit": false,
      "t": 93702.28724999922,
      "d": 83.33324999999604,
      "v": 84
    },
    {
      "midi": 76,
      "hit": false,
      "t": 93702.28724999922,
      "d": 83.33324999999604,
      "v": 94
    },
    {
      "midi": 83,
      "hit": false,
      "t": 93702.28724999922,
      "d": 83.33324999999604,
      "v": 84
    },
    {
      "midi": 64,
      "hit": false,
      "t": 94083.23924999921,
      "d": 80.3570624999993,
      "v": 88
    },
    {
      "midi": 71,
      "hit": false,
      "t": 94083.23924999921,
      "d": 80.3570624999993,
      "v": 83
    },
    {
      "midi": 76,
      "hit": false,
      "t": 94083.23924999921,
      "d": 80.3570624999993,
      "v": 84
    },
    {
      "midi": 83,
      "hit": false,
      "t": 94083.23924999921,
      "d": 80.3570624999993,
      "v": 85
    },
    {
      "midi": 74,
      "hit": false,
      "t": 94083.23924999921,
      "d": 83.33324999999604,
      "v": 89
    },
    {
      "midi": 64,
      "hit": false,
      "t": 94845.14324999921,
      "d": 80.3570624999993,
      "v": 87
    },
    {
      "midi": 71,
      "hit": false,
      "t": 94845.14324999921,
      "d": 80.3570624999993,
      "v": 88
    },
    {
      "midi": 76,
      "hit": false,
      "t": 94845.14324999921,
      "d": 86.30943749999278,
      "v": 87
    },
    {
      "midi": 83,
      "hit": false,
      "t": 94845.14324999921,
      "d": 86.30943749999278,
      "v": 86
    },
    {
      "midi": 74,
      "hit": false,
      "t": 94845.14324999921,
      "d": 92.26181249998626,
      "v": 88
    },
    {
      "midi": 71,
      "hit": false,
      "t": 95226.0952499992,
      "d": 80.3570624999993,
      "v": 81
    },
    {
      "midi": 78,
      "hit": false,
      "t": 95226.0952499992,
      "d": 83.33324999999604,
      "v": 83
    },
    {
      "midi": 59,
      "hit": false,
      "t": 95226.0952499992,
      "d": 86.30943749999278,
      "v": 78
    },
    {
      "midi": 63,
      "hit": false,
      "t": 95226.0952499992,
      "d": 86.30943749999278,
      "v": 82
    },
    {
      "midi": 75,
      "hit": false,
      "t": 95226.0952499992,
      "d": 86.30943749999278,
      "v": 81
    },
    {
      "midi": 75,
      "hit": false,
      "t": 95987.9992499992,
      "d": 71.42849999999453,
      "v": 95
    },
    {
      "midi": 59,
      "hit": false,
      "t": 95987.9992499992,
      "d": 83.33324999999604,
      "v": 95
    },
    {
      "midi": 63,
      "hit": false,
      "t": 95987.9992499992,
      "d": 83.33324999999604,
      "v": 94
    },
    {
      "midi": 71,
      "hit": false,
      "t": 95987.9992499992,
      "d": 83.33324999999604,
      "v": 94
    },
    {
      "midi": 78,
      "hit": false,
      "t": 95987.9992499992,
      "d": 86.30943749999278,
      "v": 95
    },
    {
      "midi": 74,
      "hit": false,
      "t": 96368.95124999918,
      "d": 80.3570624999993,
      "v": 84
    },
    {
      "midi": 68,
      "hit": false,
      "t": 96368.95124999918,
      "d": 83.33324999999604,
      "v": 82
    },
    {
      "midi": 80,
      "hit": false,
      "t": 96368.95124999918,
      "d": 89.28562499998952,
      "v": 85
    },
    {
      "midi": 71,
      "hit": false,
      "t": 96368.95124999918,
      "d": 92.26181249998626,
      "v": 82
    },
    {
      "midi": 64,
      "hit": false,
      "t": 96368.95124999918,
      "d": 95.237999999983,
      "v": 81
    },
    {
      "midi": 74,
      "hit": false,
      "t": 97130.85524999916,
      "d": 77.38087500000256,
      "v": 87
    },
    {
      "midi": 80,
      "hit": false,
      "t": 97130.85524999916,
      "d": 77.38087500000256,
      "v": 88
    },
    {
      "midi": 68,
      "hit": false,
      "t": 97130.85524999916,
      "d": 83.33324999999604,
      "v": 88
    },
    {
      "midi": 71,
      "hit": false,
      "t": 97130.85524999916,
      "d": 83.33324999999604,
      "v": 88
    },
    {
      "midi": 64,
      "hit": false,
      "t": 97130.85524999916,
      "d": 104.16656250000233,
      "v": 87
    },
    {
      "midi": 69,
      "hit": false,
      "t": 97517.75962499916,
      "d": 89.28562500000407,
      "v": 94
    },
    {
      "midi": 60,
      "hit": false,
      "t": 97517.75962499916,
      "d": 95.23799999999756,
      "v": 94
    },
    {
      "midi": 81,
      "hit": false,
      "t": 97517.75962499916,
      "d": 98.2141874999943,
      "v": 94
    },
    {
      "midi": 76,
      "hit": false,
      "t": 97517.75962499916,
      "d": 101.19037499999104,
      "v": 93
    },
    {
      "midi": 60,
      "hit": false,
      "t": 99422.51962499916,
      "d": 324.40443749999395,
      "v": 90
    },
    {
      "midi": 69,
      "hit": false,
      "t": 99422.51962499916,
      "d": 336.30918749999546,
      "v": 90
    },
    {
      "midi": 81,
      "hit": false,
      "t": 99422.51962499916,
      "d": 336.30918749999546,
      "v": 93
    },
    {
      "midi": 76,
      "hit": false,
      "t": 99422.51962499916,
      "d": 342.26156249998894,
      "v": 91
    },
    {
      "midi": 62,
      "hit": false,
      "t": 99803.47162499915,
      "d": 98.2141874999943,
      "v": 91
    },
    {
      "midi": 69,
      "hit": false,
      "t": 99803.47162499915,
      "d": 104.16656249998778,
      "v": 94
    },
    {
      "midi": 77,
      "hit": false,
      "t": 99803.47162499915,
      "d": 113.09512499999255,
      "v": 93
    },
    {
      "midi": 74,
      "hit": false,
      "t": 99803.47162499915,
      "d": 116.07131249998929,
      "v": 94
    },
    {
      "midi": 69,
      "hit": false,
      "t": 101708.23162499914,
      "d": 318.45206250000047,
      "v": 88
    },
    {
      "midi": 77,
      "hit": false,
      "t": 101708.23162499914,
      "d": 318.45206250000047,
      "v": 93
    },
    {
      "midi": 62,
      "hit": false,
      "t": 101708.23162499914,
      "d": 324.40443749999395,
      "v": 88
    },
    {
      "midi": 74,
      "hit": false,
      "t": 101708.23162499914,
      "d": 327.3806249999907,
      "v": 91
    },
    {
      "midi": 59,
      "hit": false,
      "t": 102089.18362499913,
      "d": 110.11893749999581,
      "v": 94
    },
    {
      "midi": 69,
      "hit": false,
      "t": 102089.18362499913,
      "d": 110.11893749999581,
      "v": 94
    },
    {
      "midi": 75,
      "hit": false,
      "t": 102089.18362499913,
      "d": 110.11893749999581,
      "v": 91
    },
    {
      "midi": 78,
      "hit": false,
      "t": 102089.18362499913,
      "d": 110.11893749999581,
      "v": 93
    },
    {
      "midi": 75,
      "hit": false,
      "t": 103993.94362499913,
      "d": 363.0948749999952,
      "v": 92
    },
    {
      "midi": 59,
      "hit": false,
      "t": 103993.94362499913,
      "d": 366.07106249999197,
      "v": 89
    },
    {
      "midi": 69,
      "hit": false,
      "t": 103993.94362499913,
      "d": 366.07106249999197,
      "v": 91
    },
    {
      "midi": 78,
      "hit": false,
      "t": 103993.94362499913,
      "d": 369.0472499999887,
      "v": 95
    },
    {
      "midi": 62,
      "hit": false,
      "t": 104374.89562499912,
      "d": 101.19037500000559,
      "v": 94
    },
    {
      "midi": 74,
      "hit": false,
      "t": 104374.89562499912,
      "d": 104.16656250000233,
      "v": 93
    },
    {
      "midi": 77,
      "hit": false,
      "t": 104374.89562499912,
      "d": 104.16656250000233,
      "v": 94
    },
    {
      "midi": 69,
      "hit": false,
      "t": 104374.89562499912,
      "d": 107.14274999999907,
      "v": 91
    },
    {
      "midi": 62,
      "hit": false,
      "t": 105422.51362499912,
      "d": 50.595187500002794,
      "v": 90
    },
    {
      "midi": 69,
      "hit": false,
      "t": 105422.51362499912,
      "d": 53.571374999999534,
      "v": 90
    },
    {
      "midi": 77,
      "hit": false,
      "t": 105422.51362499912,
      "d": 53.571374999999534,
      "v": 95
    },
    {
      "midi": 74,
      "hit": false,
      "t": 105422.51362499912,
      "d": 56.547562499996275,
      "v": 92
    },
    {
      "midi": 64,
      "hit": false,
      "t": 105517.75162499912,
      "d": 136.90462499999558,
      "v": 78
    },
    {
      "midi": 71,
      "hit": false,
      "t": 105517.75162499912,
      "d": 136.90462499999558,
      "v": 77
    },
    {
      "midi": 74,
      "hit": false,
      "t": 105517.75162499912,
      "d": 145.83318750000035,
      "v": 75
    },
    {
      "midi": 80,
      "hit": false,
      "t": 105517.75162499912,
      "d": 145.83318750000035,
      "v": 78
    },
    {
      "midi": 71,
      "hit": false,
      "t": 105803.46562499912,
      "d": 133.92843749999884,
      "v": 82
    },
    {
      "midi": 74,
      "hit": false,
      "t": 105803.46562499912,
      "d": 136.90462499999558,
      "v": 82
    },
    {
      "midi": 64,
      "hit": false,
      "t": 105803.46562499912,
      "d": 142.85699999998906,
      "v": 81
    },
    {
      "midi": 80,
      "hit": false,
      "t": 105803.46562499912,
      "d": 142.85699999998906,
      "v": 83
    },
    {
      "midi": 71,
      "hit": false,
      "t": 106089.17962499912,
      "d": 119.04750000000058,
      "v": 93
    },
    {
      "midi": 64,
      "hit": false,
      "t": 106089.17962499912,
      "d": 122.02368749999732,
      "v": 91
    },
    {
      "midi": 74,
      "hit": false,
      "t": 106089.17962499912,
      "d": 127.9760624999908,
      "v": 91
    },
    {
      "midi": 80,
      "hit": false,
      "t": 106089.17962499912,
      "d": 127.9760624999908,
      "v": 91
    },
    {
      "midi": 64,
      "hit": false,
      "t": 106374.89362499911,
      "d": 113.0951250000071,
      "v": 84
    },
    {
      "midi": 74,
      "hit": false,
      "t": 106374.89362499911,
      "d": 116.07131250000384,
      "v": 84
    },
    {
      "midi": 80,
      "hit": false,
      "t": 106374.89362499911,
      "d": 116.07131250000384,
      "v": 84
    },
    {
      "midi": 71,
      "hit": false,
      "t": 106374.89362499911,
      "d": 119.04750000000058,
      "v": 84
    },
    {
      "midi": 88,
      "hit": false,
      "t": 106940.36924999912,
      "d": 62.499937499989755,
      "v": 92
    },
    {
      "midi": 93,
      "hit": false,
      "t": 106940.36924999912,
      "d": 62.499937499989755,
      "v": 90
    },
    {
      "midi": 84,
      "hit": false,
      "t": 106940.36924999912,
      "d": 68.45231249998324,
      "v": 90
    },
    {
      "midi": 76,
      "hit": false,
      "t": 106946.32162499911,
      "d": 53.571374999999534,
      "v": 88
    },
    {
      "midi": 81,
      "hit": false,
      "t": 106946.32162499911,
      "d": 56.547562499996275,
      "v": 86
    },
    {
      "midi": 84,
      "hit": false,
      "t": 107416.5592499991,
      "d": 68.45231249998324,
      "v": 90
    },
    {
      "midi": 88,
      "hit": false,
      "t": 107416.5592499991,
      "d": 68.45231249998324,
      "v": 91
    },
    {
      "midi": 93,
      "hit": false,
      "t": 107416.5592499991,
      "d": 68.45231249998324,
      "v": 91
    },
    {
      "midi": 81,
      "hit": false,
      "t": 107422.5116249991,
      "d": 53.571374999999534,
      "v": 88
    },
    {
      "midi": 76,
      "hit": false,
      "t": 107422.5116249991,
      "d": 56.547562499996275,
      "v": 88
    },
    {
      "midi": 84,
      "hit": false,
      "t": 107797.5112499991,
      "d": 62.499937499989755,
      "v": 91
    },
    {
      "midi": 88,
      "hit": false,
      "t": 107797.5112499991,
      "d": 65.4761249999865,
      "v": 90
    },
    {
      "midi": 93,
      "hit": false,
      "t": 107797.5112499991,
      "d": 65.4761249999865,
      "v": 91
    },
    {
      "midi": 76,
      "hit": false,
      "t": 107803.46362499909,
      "d": 53.571374999999534,
      "v": 88
    },
    {
      "midi": 81,
      "hit": false,
      "t": 107803.46362499909,
      "d": 53.571374999999534,
      "v": 87
    },
    {
      "midi": 84,
      "hit": false,
      "t": 108273.70124999908,
      "d": 65.4761249999865,
      "v": 91
    },
    {
      "midi": 93,
      "hit": false,
      "t": 108273.70124999908,
      "d": 65.4761249999865,
      "v": 90
    },
    {
      "midi": 88,
      "hit": false,
      "t": 108273.70124999908,
      "d": 71.42849999997998,
      "v": 90
    },
    {
      "midi": 81,
      "hit": false,
      "t": 108279.65362499907,
      "d": 53.571374999999534,
      "v": 86
    },
    {
      "midi": 76,
      "hit": false,
      "t": 108279.65362499907,
      "d": 59.523749999993015,
      "v": 88
    },
    {
      "midi": 84,
      "hit": false,
      "t": 108654.65324999906,
      "d": 62.499937499989755,
      "v": 91
    },
    {
      "midi": 88,
      "hit": false,
      "t": 108654.65324999906,
      "d": 62.499937499989755,
      "v": 91
    },
    {
      "midi": 93,
      "hit": false,
      "t": 108654.65324999906,
      "d": 62.499937499989755,
      "v": 90
    },
    {
      "midi": 81,
      "hit": false,
      "t": 108660.60562499905,
      "d": 53.571374999999534,
      "v": 87
    },
    {
      "midi": 76,
      "hit": false,
      "t": 108660.60562499905,
      "d": 56.547562499996275,
      "v": 86
    },
    {
      "midi": 84,
      "hit": false,
      "t": 109226.08124999904,
      "d": 62.499937499989755,
      "v": 91
    },
    {
      "midi": 93,
      "hit": false,
      "t": 109226.08124999904,
      "d": 65.4761249999865,
      "v": 90
    },
    {
      "midi": 88,
      "hit": false,
      "t": 109226.08124999904,
      "d": 68.45231249998324,
      "v": 90
    },
    {
      "midi": 81,
      "hit": false,
      "t": 109232.03362499904,
      "d": 56.547562499996275,
      "v": 86
    },
    {
      "midi": 76,
      "hit": false,
      "t": 109232.03362499904,
      "d": 59.523749999993015,
      "v": 86
    },
    {
      "midi": 84,
      "hit": false,
      "t": 109702.27124999903,
      "d": 65.4761249999865,
      "v": 91
    },
    {
      "midi": 88,
      "hit": false,
      "t": 109702.27124999903,
      "d": 65.4761249999865,
      "v": 90
    },
    {
      "midi": 93,
      "hit": false,
      "t": 109702.27124999903,
      "d": 65.4761249999865,
      "v": 89
    },
    {
      "midi": 76,
      "hit": false,
      "t": 109708.22362499902,
      "d": 59.523749999993015,
      "v": 86
    },
    {
      "midi": 81,
      "hit": false,
      "t": 109708.22362499902,
      "d": 59.523749999993015,
      "v": 87
    },
    {
      "midi": 86,
      "hit": false,
      "t": 110083.22324999902,
      "d": 68.45231249998324,
      "v": 92
    },
    {
      "midi": 92,
      "hit": false,
      "t": 110083.22324999902,
      "d": 68.45231249998324,
      "v": 90
    },
    {
      "midi": 95,
      "hit": false,
      "t": 110083.22324999902,
      "d": 68.45231249998324,
      "v": 90
    },
    {
      "midi": 80,
      "hit": false,
      "t": 110089.17562499901,
      "d": 53.571374999999534,
      "v": 87
    },
    {
      "midi": 68,
      "hit": false,
      "t": 110089.17562499901,
      "d": 56.547562499996275,
      "v": 86
    },
    {
      "midi": 76,
      "hit": false,
      "t": 110089.17562499901,
      "d": 59.523749999993015,
      "v": 86
    },
    {
      "midi": 86,
      "hit": false,
      "t": 110559.41324999901,
      "d": 62.499937499989755,
      "v": 92
    },
    {
      "midi": 95,
      "hit": false,
      "t": 110559.41324999901,
      "d": 65.4761249999865,
      "v": 91
    },
    {
      "midi": 92,
      "hit": false,
      "t": 110559.41324999901,
      "d": 71.42849999997998,
      "v": 90
    },
    {
      "midi": 76,
      "hit": false,
      "t": 110565.365624999,
      "d": 53.571374999999534,
      "v": 87
    },
    {
      "midi": 68,
      "hit": false,
      "t": 110565.365624999,
      "d": 56.547562499996275,
      "v": 88
    },
    {
      "midi": 80,
      "hit": false,
      "t": 110565.365624999,
      "d": 56.547562499996275,
      "v": 86
    },
    {
      "midi": 86,
      "hit": false,
      "t": 110940.36524999898,
      "d": 65.4761249999865,
      "v": 90
    },
    {
      "midi": 95,
      "hit": false,
      "t": 110940.36524999898,
      "d": 68.45231249998324,
      "v": 90
    },
    {
      "midi": 92,
      "hit": false,
      "t": 110940.36524999898,
      "d": 71.42849999997998,
      "v": 89
    },
    {
      "midi": 68,
      "hit": false,
      "t": 110946.31762499898,
      "d": 50.595187500002794,
      "v": 87
    },
    {
      "midi": 80,
      "hit": false,
      "t": 110946.31762499898,
      "d": 53.571374999999534,
      "v": 86
    },
    {
      "midi": 76,
      "hit": false,
      "t": 110946.31762499898,
      "d": 56.547562499996275,
      "v": 87
    },
    {
      "midi": 86,
      "hit": false,
      "t": 111511.79324999897,
      "d": 65.4761249999865,
      "v": 91
    },
    {
      "midi": 89,
      "hit": false,
      "t": 111511.79324999897,
      "d": 65.4761249999865,
      "v": 91
    },
    {
      "midi": 93,
      "hit": false,
      "t": 111511.79324999897,
      "d": 74.40468749999127,
      "v": 91
    },
    {
      "midi": 74,
      "hit": false,
      "t": 111517.74562499896,
      "d": 56.547562499996275,
      "v": 86
    },
    {
      "midi": 81,
      "hit": false,
      "t": 111517.74562499896,
      "d": 56.547562499996275,
      "v": 88
    },
    {
      "midi": 86,
      "hit": false,
      "t": 111987.98324999896,
      "d": 68.45231249998324,
      "v": 91
    },
    {
      "midi": 89,
      "hit": false,
      "t": 111987.98324999896,
      "d": 68.45231249998324,
      "v": 90
    },
    {
      "midi": 93,
      "hit": false,
      "t": 111987.98324999896,
      "d": 68.45231249998324,
      "v": 90
    },
    {
      "midi": 81,
      "hit": false,
      "t": 111993.93562499895,
      "d": 56.547562499996275,
      "v": 88
    },
    {
      "midi": 74,
      "hit": false,
      "t": 111993.93562499895,
      "d": 59.523749999993015,
      "v": 86
    },
    {
      "midi": 92,
      "hit": false,
      "t": 112368.93524999895,
      "d": 65.4761249999865,
      "v": 91
    },
    {
      "midi": 86,
      "hit": false,
      "t": 112368.93524999895,
      "d": 68.45231249998324,
      "v": 92
    },
    {
      "midi": 95,
      "hit": false,
      "t": 112368.93524999895,
      "d": 71.42849999997998,
      "v": 91
    },
    {
      "midi": 68,
      "hit": false,
      "t": 112374.88762499894,
      "d": 56.547562499996275,
      "v": 86
    },
    {
      "midi": 76,
      "hit": false,
      "t": 112374.88762499894,
      "d": 59.523749999993015,
      "v": 86
    },
    {
      "midi": 80,
      "hit": false,
      "t": 112374.88762499894,
      "d": 59.523749999993015,
      "v": 86
    },
    {
      "midi": 86,
      "hit": false,
      "t": 112845.12524999892,
      "d": 62.499937499989755,
      "v": 90
    },
    {
      "midi": 95,
      "hit": false,
      "t": 112845.12524999892,
      "d": 62.499937499989755,
      "v": 92
    },
    {
      "midi": 92,
      "hit": false,
      "t": 112845.12524999892,
      "d": 68.45231249998324,
      "v": 92
    },
    {
      "midi": 68,
      "hit": false,
      "t": 112851.07762499891,
      "d": 59.523749999993015,
      "v": 87
    },
    {
      "midi": 76,
      "hit": false,
      "t": 112851.07762499891,
      "d": 59.523749999993015,
      "v": 88
    },
    {
      "midi": 80,
      "hit": false,
      "t": 112851.07762499891,
      "d": 59.523749999993015,
      "v": 86
    },
    {
      "midi": 86,
      "hit": false,
      "t": 113226.07724999891,
      "d": 68.45231249998324,
      "v": 92
    },
    {
      "midi": 92,
      "hit": false,
      "t": 113226.07724999891,
      "d": 68.45231249998324,
      "v": 91
    },
    {
      "midi": 95,
      "hit": false,
      "t": 113226.07724999891,
      "d": 68.45231249998324,
      "v": 91
    },
    {
      "midi": 68,
      "hit": false,
      "t": 113232.0296249989,
      "d": 53.571374999999534,
      "v": 87
    },
    {
      "midi": 76,
      "hit": false,
      "t": 113232.0296249989,
      "d": 59.523749999993015,
      "v": 88
    },
    {
      "midi": 80,
      "hit": false,
      "t": 113232.0296249989,
      "d": 59.523749999993015,
      "v": 87
    },
    {
      "midi": 86,
      "hit": false,
      "t": 113797.5052499989,
      "d": 65.4761249999865,
      "v": 92
    },
    {
      "midi": 89,
      "hit": false,
      "t": 113797.5052499989,
      "d": 71.42849999997998,
      "v": 92
    },
    {
      "midi": 93,
      "hit": false,
      "t": 113797.5052499989,
      "d": 74.40468749997672,
      "v": 91
    },
    {
      "midi": 74,
      "hit": false,
      "t": 113803.45762499889,
      "d": 56.547562499996275,
      "v": 88
    },
    {
      "midi": 81,
      "hit": false,
      "t": 113803.45762499889,
      "d": 59.523749999993015,
      "v": 86
    },
    {
      "midi": 95,
      "hit": false,
      "t": 114273.69524999887,
      "d": 62.499937499989755,
      "v": 90
    },
    {
      "midi": 86,
      "hit": false,
      "t": 114273.69524999887,
      "d": 65.4761249999865,
      "v": 90
    },
    {
      "midi": 92,
      "hit": false,
      "t": 114273.69524999887,
      "d": 68.45231249998324,
      "v": 89
    },
    {
      "midi": 76,
      "hit": false,
      "t": 114279.64762499886,
      "d": 56.547562499996275,
      "v": 87
    },
    {
      "midi": 80,
      "hit": false,
      "t": 114279.64762499886,
      "d": 56.547562499996275,
      "v": 86
    },
    {
      "midi": 68,
      "hit": false,
      "t": 114279.64762499886,
      "d": 59.523749999993015,
      "v": 86
    },
    {
      "midi": 84,
      "hit": false,
      "t": 114654.64724999886,
      "d": 68.45231249998324,
      "v": 91
    },
    {
      "midi": 88,
      "hit": false,
      "t": 114654.64724999886,
      "d": 68.45231249998324,
      "v": 91
    },
    {
      "midi": 93,
      "hit": false,
      "t": 114654.64724999886,
      "d": 68.45231249998324,
      "v": 90
    },
    {
      "midi": 76,
      "hit": false,
      "t": 114660.59962499885,
      "d": 56.547562499996275,
      "v": 87
    },
    {
      "midi": 81,
      "hit": false,
      "t": 114660.59962499885,
      "d": 59.523749999993015,
      "v": 86
    },
    {
      "midi": 93,
      "hit": false,
      "t": 115130.83724999885,
      "d": 62.499937499989755,
      "v": 90
    },
    {
      "midi": 88,
      "hit": false,
      "t": 115130.83724999885,
      "d": 65.4761249999865,
      "v": 92
    },
    {
      "midi": 84,
      "hit": false,
      "t": 115130.83724999885,
      "d": 68.45231249998324,
      "v": 90
    },
    {
      "midi": 76,
      "hit": false,
      "t": 115136.78962499884,
      "d": 56.547562499996275,
      "v": 87
    },
    {
      "midi": 81,
      "hit": false,
      "t": 115136.78962499884,
      "d": 59.523749999993015,
      "v": 87
    },
    {
      "midi": 84,
      "hit": false,
      "t": 115511.78924999884,
      "d": 65.4761249999865,
      "v": 92
    },
    {
      "midi": 93,
      "hit": false,
      "t": 115511.78924999884,
      "d": 68.45231249998324,
      "v": 90
    },
    {
      "midi": 88,
      "hit": false,
      "t": 115511.78924999884,
      "d": 74.40468749997672,
      "v": 90
    },
    {
      "midi": 76,
      "hit": false,
      "t": 115517.74162499883,
      "d": 56.547562499996275,
      "v": 86
    },
    {
      "midi": 81,
      "hit": false,
      "t": 115517.74162499883,
      "d": 56.547562499996275,
      "v": 86
    },
    {
      "midi": 88,
      "hit": false,
      "t": 116083.21724999881,
      "d": 62.499937499989755,
      "v": 92
    },
    {
      "midi": 93,
      "hit": false,
      "t": 116083.21724999881,
      "d": 62.499937499989755,
      "v": 90
    },
    {
      "midi": 84,
      "hit": false,
      "t": 116083.21724999881,
      "d": 68.45231249998324,
      "v": 90
    },
    {
      "midi": 76,
      "hit": false,
      "t": 116089.1696249988,
      "d": 53.571374999999534,
      "v": 88
    },
    {
      "midi": 81,
      "hit": false,
      "t": 116089.1696249988,
      "d": 56.547562499996275,
      "v": 86
    },
    {
      "midi": 84,
      "hit": false,
      "t": 116559.4072499988,
      "d": 68.45231249998324,
      "v": 90
    },
    {
      "midi": 88,
      "hit": false,
      "t": 116559.4072499988,
      "d": 68.45231249998324,
      "v": 91
    },
    {
      "midi": 93,
      "hit": false,
      "t": 116559.4072499988,
      "d": 68.45231249998324,
      "v": 91
    },
    {
      "midi": 81,
      "hit": false,
      "t": 116565.35962499879,
      "d": 53.571374999999534,
      "v": 88
    },
    {
      "midi": 76,
      "hit": false,
      "t": 116565.35962499879,
      "d": 56.547562499996275,
      "v": 88
    },
    {
      "midi": 84,
      "hit": false,
      "t": 116940.35924999879,
      "d": 62.499937499989755,
      "v": 91
    },
    {
      "midi": 88,
      "hit": false,
      "t": 116940.35924999879,
      "d": 65.4761249999865,
      "v": 90
    },
    {
      "midi": 93,
      "hit": false,
      "t": 116940.35924999879,
      "d": 65.4761249999865,
      "v": 91
    },
    {
      "midi": 76,
      "hit": false,
      "t": 116946.31162499878,
      "d": 53.571374999999534,
      "v": 88
    },
    {
      "midi": 81,
      "hit": false,
      "t": 116946.31162499878,
      "d": 53.571374999999534,
      "v": 87
    },
    {
      "midi": 84,
      "hit": false,
      "t": 117416.54924999877,
      "d": 65.4761249999865,
      "v": 91
    },
    {
      "midi": 93,
      "hit": false,
      "t": 117416.54924999877,
      "d": 65.4761249999865,
      "v": 90
    },
    {
      "midi": 88,
      "hit": false,
      "t": 117416.54924999877,
      "d": 71.42849999997998,
      "v": 90
    },
    {
      "midi": 81,
      "hit": false,
      "t": 117422.50162499877,
      "d": 53.571374999999534,
      "v": 86
    },
    {
      "midi": 76,
      "hit": false,
      "t": 117422.50162499877,
      "d": 59.523749999993015,
      "v": 88
    },
    {
      "midi": 84,
      "hit": false,
      "t": 117797.50124999875,
      "d": 62.499937499989755,
      "v": 91
    },
    {
      "midi": 88,
      "hit": false,
      "t": 117797.50124999875,
      "d": 62.499937499989755,
      "v": 91
    },
    {
      "midi": 93,
      "hit": false,
      "t": 117797.50124999875,
      "d": 62.499937499989755,
      "v": 90
    },
    {
      "midi": 81,
      "hit": false,
      "t": 117803.45362499874,
      "d": 53.571374999999534,
      "v": 87
    },
    {
      "midi": 76,
      "hit": false,
      "t": 117803.45362499874,
      "d": 56.547562499996275,
      "v": 86
    },
    {
      "midi": 84,
      "hit": false,
      "t": 118368.92924999874,
      "d": 62.499937499989755,
      "v": 91
    },
    {
      "midi": 93,
      "hit": false,
      "t": 118368.92924999874,
      "d": 65.4761249999865,
      "v": 90
    },
    {
      "midi": 88,
      "hit": false,
      "t": 118368.92924999874,
      "d": 68.45231249998324,
      "v": 90
    },
    {
      "midi": 81,
      "hit": false,
      "t": 118374.88162499873,
      "d": 56.547562499996275,
      "v": 86
    },
    {
      "midi": 76,
      "hit": false,
      "t": 118374.88162499873,
      "d": 59.523749999993015,
      "v": 86
    },
    {
      "midi": 84,
      "hit": false,
      "t": 118845.11924999872,
      "d": 65.4761249999865,
      "v": 91
    },
    {
      "midi": 88,
      "hit": false,
      "t": 118845.11924999872,
      "d": 65.4761249999865,
      "v": 90
    },
    {
      "midi": 93,
      "hit": false,
      "t": 118845.11924999872,
      "d": 65.4761249999865,
      "v": 89
    },
    {
      "midi": 76,
      "hit": false,
      "t": 118851.07162499872,
      "d": 59.523749999993015,
      "v": 86
    },
    {
      "midi": 81,
      "hit": false,
      "t": 118851.07162499872,
      "d": 59.523749999993015,
      "v": 87
    },
    {
      "midi": 86,
      "hit": false,
      "t": 119226.07124999871,
      "d": 68.45231249998324,
      "v": 92
    },
    {
      "midi": 92,
      "hit": false,
      "t": 119226.07124999871,
      "d": 68.45231249998324,
      "v": 90
    },
    {
      "midi": 95,
      "hit": false,
      "t": 119226.07124999871,
      "d": 68.45231249998324,
      "v": 90
    },
    {
      "midi": 80,
      "hit": false,
      "t": 119232.0236249987,
      "d": 53.571374999999534,
      "v": 87
    },
    {
      "midi": 68,
      "hit": false,
      "t": 119232.0236249987,
      "d": 56.547562499996275,
      "v": 86
    },
    {
      "midi": 76,
      "hit": false,
      "t": 119232.0236249987,
      "d": 59.523749999993015,
      "v": 86
    },
    {
      "midi": 86,
      "hit": false,
      "t": 119702.2612499987,
      "d": 62.499937499989755,
      "v": 92
    },
    {
      "midi": 95,
      "hit": false,
      "t": 119702.2612499987,
      "d": 65.4761249999865,
      "v": 91
    },
    {
      "midi": 92,
      "hit": false,
      "t": 119702.2612499987,
      "d": 71.42849999997998,
      "v": 90
    },
    {
      "midi": 76,
      "hit": false,
      "t": 119708.2136249987,
      "d": 53.571374999999534,
      "v": 87
    },
    {
      "midi": 68,
      "hit": false,
      "t": 119708.2136249987,
      "d": 56.547562499996275,
      "v": 88
    },
    {
      "midi": 80,
      "hit": false,
      "t": 119708.2136249987,
      "d": 56.547562499996275,
      "v": 86
    },
    {
      "midi": 86,
      "hit": false,
      "t": 120083.21324999868,
      "d": 65.4761249999865,
      "v": 90
    },
    {
      "midi": 95,
      "hit": false,
      "t": 120083.21324999868,
      "d": 68.45231249998324,
      "v": 90
    },
    {
      "midi": 92,
      "hit": false,
      "t": 120083.21324999868,
      "d": 71.42849999997998,
      "v": 89
    },
    {
      "midi": 68,
      "hit": false,
      "t": 120089.16562499867,
      "d": 50.595187500002794,
      "v": 87
    },
    {
      "midi": 80,
      "hit": false,
      "t": 120089.16562499867,
      "d": 53.571374999999534,
      "v": 86
    },
    {
      "midi": 76,
      "hit": false,
      "t": 120089.16562499867,
      "d": 56.547562499996275,
      "v": 87
    },
    {
      "midi": 86,
      "hit": false,
      "t": 120654.64124999866,
      "d": 65.4761249999865,
      "v": 91
    },
    {
      "midi": 89,
      "hit": false,
      "t": 120654.64124999866,
      "d": 65.4761249999865,
      "v": 91
    },
    {
      "midi": 93,
      "hit": false,
      "t": 120654.64124999866,
      "d": 74.40468749999127,
      "v": 91
    },
    {
      "midi": 74,
      "hit": false,
      "t": 120660.59362499866,
      "d": 56.547562499996275,
      "v": 86
    },
    {
      "midi": 81,
      "hit": false,
      "t": 120660.59362499866,
      "d": 56.547562499996275,
      "v": 88
    },
    {
      "midi": 86,
      "hit": false,
      "t": 121130.83124999865,
      "d": 68.45231249998324,
      "v": 91
    },
    {
      "midi": 89,
      "hit": false,
      "t": 121130.83124999865,
      "d": 68.45231249998324,
      "v": 90
    },
    {
      "midi": 93,
      "hit": false,
      "t": 121130.83124999865,
      "d": 68.45231249998324,
      "v": 90
    },
    {
      "midi": 81,
      "hit": false,
      "t": 121136.78362499864,
      "d": 56.547562499996275,
      "v": 88
    },
    {
      "midi": 74,
      "hit": false,
      "t": 121136.78362499864,
      "d": 59.523749999993015,
      "v": 86
    },
    {
      "midi": 92,
      "hit": false,
      "t": 121511.78324999864,
      "d": 65.4761249999865,
      "v": 91
    },
    {
      "midi": 86,
      "hit": false,
      "t": 121511.78324999864,
      "d": 68.45231249998324,
      "v": 92
    },
    {
      "midi": 95,
      "hit": false,
      "t": 121511.78324999864,
      "d": 71.42849999997998,
      "v": 91
    },
    {
      "midi": 68,
      "hit": false,
      "t": 121517.73562499863,
      "d": 56.547562499996275,
      "v": 86
    },
    {
      "midi": 76,
      "hit": false,
      "t": 121517.73562499863,
      "d": 59.523749999993015,
      "v": 86
    },
    {
      "midi": 80,
      "hit": false,
      "t": 121517.73562499863,
      "d": 59.523749999993015,
      "v": 86
    },
    {
      "midi": 86,
      "hit": false,
      "t": 121987.97324999861,
      "d": 62.499937499989755,
      "v": 90
    },
    {
      "midi": 95,
      "hit": false,
      "t": 121987.97324999861,
      "d": 62.499937499989755,
      "v": 92
    },
    {
      "midi": 92,
      "hit": false,
      "t": 121987.97324999861,
      "d": 68.45231249998324,
      "v": 92
    },
    {
      "midi": 68,
      "hit": false,
      "t": 121993.9256249986,
      "d": 59.523749999993015,
      "v": 87
    },
    {
      "midi": 76,
      "hit": false,
      "t": 121993.9256249986,
      "d": 59.523749999993015,
      "v": 88
    },
    {
      "midi": 80,
      "hit": false,
      "t": 121993.9256249986,
      "d": 59.523749999993015,
      "v": 86
    },
    {
      "midi": 86,
      "hit": false,
      "t": 122368.9252499986,
      "d": 68.45231249998324,
      "v": 92
    },
    {
      "midi": 92,
      "hit": false,
      "t": 122368.9252499986,
      "d": 68.45231249998324,
      "v": 91
    },
    {
      "midi": 95,
      "hit": false,
      "t": 122368.9252499986,
      "d": 68.45231249998324,
      "v": 91
    },
    {
      "midi": 68,
      "hit": false,
      "t": 122374.8776249986,
      "d": 53.571374999999534,
      "v": 87
    },
    {
      "midi": 76,
      "hit": false,
      "t": 122374.8776249986,
      "d": 59.523749999993015,
      "v": 88
    },
    {
      "midi": 80,
      "hit": false,
      "t": 122374.8776249986,
      "d": 59.523749999993015,
      "v": 87
    },
    {
      "midi": 86,
      "hit": false,
      "t": 122940.35324999859,
      "d": 65.4761249999865,
      "v": 92
    },
    {
      "midi": 89,
      "hit": false,
      "t": 122940.35324999859,
      "d": 71.42849999997998,
      "v": 92
    },
    {
      "midi": 93,
      "hit": false,
      "t": 122940.35324999859,
      "d": 74.40468749997672,
      "v": 91
    },
    {
      "midi": 74,
      "hit": false,
      "t": 122946.30562499858,
      "d": 56.547562499996275,
      "v": 88
    },
    {
      "midi": 81,
      "hit": false,
      "t": 122946.30562499858,
      "d": 59.523749999993015,
      "v": 86
    },
    {
      "midi": 95,
      "hit": false,
      "t": 123416.54324999856,
      "d": 62.499937499989755,
      "v": 90
    },
    {
      "midi": 86,
      "hit": false,
      "t": 123416.54324999856,
      "d": 65.4761249999865,
      "v": 90
    },
    {
      "midi": 92,
      "hit": false,
      "t": 123416.54324999856,
      "d": 68.45231249998324,
      "v": 89
    },
    {
      "midi": 76,
      "hit": false,
      "t": 123422.49562499856,
      "d": 56.547562499996275,
      "v": 87
    },
    {
      "midi": 80,
      "hit": false,
      "t": 123422.49562499856,
      "d": 56.547562499996275,
      "v": 86
    },
    {
      "midi": 68,
      "hit": false,
      "t": 123422.49562499856,
      "d": 59.523749999993015,
      "v": 86
    },
    {
      "midi": 84,
      "hit": false,
      "t": 123797.49524999855,
      "d": 68.45231249998324,
      "v": 91
    },
    {
      "midi": 88,
      "hit": false,
      "t": 123797.49524999855,
      "d": 68.45231249998324,
      "v": 91
    },
    {
      "midi": 93,
      "hit": false,
      "t": 123797.49524999855,
      "d": 68.45231249998324,
      "v": 90
    },
    {
      "midi": 76,
      "hit": false,
      "t": 123803.44762499855,
      "d": 56.547562499996275,
      "v": 87
    },
    {
      "midi": 81,
      "hit": false,
      "t": 123803.44762499855,
      "d": 59.523749999993015,
      "v": 86
    },
    {
      "midi": 93,
      "hit": false,
      "t": 124273.68524999854,
      "d": 62.499937499989755,
      "v": 90
    },
    {
      "midi": 88,
      "hit": false,
      "t": 124273.68524999854,
      "d": 65.4761249999865,
      "v": 92
    },
    {
      "midi": 84,
      "hit": false,
      "t": 124273.68524999854,
      "d": 68.45231249998324,
      "v": 90
    },
    {
      "midi": 76,
      "hit": false,
      "t": 124279.63762499853,
      "d": 56.547562499996275,
      "v": 87
    },
    {
      "midi": 81,
      "hit": false,
      "t": 124279.63762499853,
      "d": 59.523749999993015,
      "v": 87
    },
    {
      "midi": 69,
      "hit": false,
      "t": 124946.30362499852,
      "d": 1065.4751249999972,
      "v": 84
    },
    {
      "midi": 77,
      "hit": false,
      "t": 124946.30362499852,
      "d": 1065.4751249999972,
      "v": 91
    },
    {
      "midi": 72,
      "hit": false,
      "t": 124946.30362499852,
      "d": 1074.403687500002,
      "v": 88
    },
    {
      "midi": 83,
      "hit": false,
      "t": 126089.15962499852,
      "d": 169.64268750000338,
      "v": 95
    },
    {
      "midi": 86,
      "hit": false,
      "t": 126089.15962499852,
      "d": 169.64268750000338,
      "v": 95
    },
    {
      "midi": 84,
      "hit": false,
      "t": 126270.70706249852,
      "d": 133.92843749999884,
      "v": 89
    },
    {
      "midi": 81,
      "hit": false,
      "t": 126273.68324999852,
      "d": 133.92843749999884,
      "v": 89
    },
    {
      "midi": 83,
      "hit": false,
      "t": 126464.15924999851,
      "d": 124.99987499999406,
      "v": 84
    },
    {
      "midi": 79,
      "hit": false,
      "t": 126467.13543749851,
      "d": 124.99987499999406,
      "v": 84
    },
    {
      "midi": 81,
      "hit": false,
      "t": 126651.6590624985,
      "d": 136.90462499999558,
      "v": 87
    },
    {
      "midi": 77,
      "hit": false,
      "t": 126654.6352499985,
      "d": 136.90462499999558,
      "v": 87
    },
    {
      "midi": 79,
      "hit": false,
      "t": 126836.18268749848,
      "d": 133.92843749999884,
      "v": 84
    },
    {
      "midi": 76,
      "hit": false,
      "t": 126839.15887499848,
      "d": 133.92843749999884,
      "v": 84
    },
    {
      "midi": 77,
      "hit": false,
      "t": 127038.56343749848,
      "d": 139.88081249999232,
      "v": 85
    },
    {
      "midi": 74,
      "hit": false,
      "t": 127041.53962499848,
      "d": 139.88081249999232,
      "v": 85
    },
    {
      "midi": 76,
      "hit": false,
      "t": 127223.08706249847,
      "d": 997.0228124999994,
      "v": 84
    },
    {
      "midi": 72,
      "hit": false,
      "t": 127226.06324999846,
      "d": 997.0228124999994,
      "v": 84
    },
    {
      "midi": 84,
      "hit": false,
      "t": 128368.91924999846,
      "d": 148.8093749999971,
      "v": 95
    },
    {
      "midi": 81,
      "hit": false,
      "t": 128371.89543749846,
      "d": 148.8093749999971,
      "v": 95
    },
    {
      "midi": 83,
      "hit": false,
      "t": 128547.49049999846,
      "d": 127.9760624999908,
      "v": 88
    },
    {
      "midi": 79,
      "hit": false,
      "t": 128550.46668749845,
      "d": 127.9760624999908,
      "v": 88
    },
    {
      "midi": 81,
      "hit": false,
      "t": 128746.89506249844,
      "d": 133.92843749999884,
      "v": 94
    },
    {
      "midi": 77,
      "hit": false,
      "t": 128749.87124999844,
      "d": 133.92843749999884,
      "v": 94
    },
    {
      "midi": 79,
      "hit": false,
      "t": 128937.37106249844,
      "d": 130.9522500000021,
      "v": 85
    },
    {
      "midi": 76,
      "hit": false,
      "t": 128940.34724999843,
      "d": 130.9522500000021,
      "v": 85
    },
    {
      "midi": 77,
      "hit": false,
      "t": 129124.87087499844,
      "d": 130.9522500000021,
      "v": 83
    },
    {
      "midi": 74,
      "hit": false,
      "t": 129127.84706249843,
      "d": 130.9522500000021,
      "v": 83
    },
    {
      "midi": 76,
      "hit": false,
      "t": 129321.29924999844,
      "d": 133.92843749999884,
      "v": 87
    },
    {
      "midi": 72,
      "hit": false,
      "t": 129324.27543749844,
      "d": 133.92843749999884,
      "v": 87
    },
    {
      "midi": 74,
      "hit": false,
      "t": 129502.84668749843,
      "d": 901.7848125000019,
      "v": 87
    },
    {
      "midi": 71,
      "hit": false,
      "t": 129505.82287499843,
      "d": 901.7848125000019,
      "v": 87
    },
    {
      "midi": 83,
      "hit": false,
      "t": 130651.65506249842,
      "d": 124.99987499999406,
      "v": 95
    },
    {
      "midi": 80,
      "hit": false,
      "t": 130654.63124999842,
      "d": 124.99987499999406,
      "v": 95
    },
    {
      "midi": 81,
      "hit": false,
      "t": 130839.1548749984,
      "d": 142.8570000000036,
      "v": 88
    },
    {
      "midi": 77,
      "hit": false,
      "t": 130842.1310624984,
      "d": 142.8570000000036,
      "v": 88
    },
    {
      "midi": 80,
      "hit": false,
      "t": 131038.5594374984,
      "d": 124.99987499999406,
      "v": 84
    },
    {
      "midi": 76,
      "hit": false,
      "t": 131041.5356249984,
      "d": 124.99987499999406,
      "v": 84
    },
    {
      "midi": 77,
      "hit": false,
      "t": 131223.0830624984,
      "d": 133.92843749999884,
      "v": 84
    },
    {
      "midi": 74,
      "hit": false,
      "t": 131226.0592499984,
      "d": 133.92843749999884,
      "v": 84
    },
    {
      "midi": 76,
      "hit": false,
      "t": 131416.5352499984,
      "d": 136.90462499999558,
      "v": 87
    },
    {
      "midi": 72,
      "hit": false,
      "t": 131419.51143749838,
      "d": 136.90462499999558,
      "v": 87
    },
    {
      "midi": 74,
      "hit": false,
      "t": 131604.03506249838,
      "d": 133.92843749999884,
      "v": 81
    },
    {
      "midi": 71,
      "hit": false,
      "t": 131607.01124999838,
      "d": 133.92843749999884,
      "v": 81
    },
    {
      "midi": 69,
      "hit": false,
      "t": 131800.46343749837,
      "d": 422.6186250000028,
      "v": 78
    },
    {
      "midi": 64,
      "hit": false,
      "t": 131800.46343749837,
      "d": 425.59481249999953,
      "v": 77
    },
    {
      "midi": 72,
      "hit": false,
      "t": 131800.46343749837,
      "d": 428.5709999999963,
      "v": 81
    },
    {
      "midi": 76,
      "hit": false,
      "t": 132368.91524999836,
      "d": 333.33299999998417,
      "v": 93
    },
    {
      "midi": 69,
      "hit": false,
      "t": 132371.89143749836,
      "d": 336.3091874999809,
      "v": 90
    },
    {
      "midi": 72,
      "hit": false,
      "t": 132371.89143749836,
      "d": 339.28537499997765,
      "v": 89
    },
    {
      "midi": 57,
      "hit": false,
      "t": 132845.10524999833,
      "d": 630.9517499999783,
      "v": 81
    },
    {
      "midi": 61,
      "hit": false,
      "t": 132895.70043749834,
      "d": 571.4279999999853,
      "v": 73
    },
    {
      "midi": 64,
      "hit": false,
      "t": 132940.34324999835,
      "d": 523.8089999999793,
      "v": 87
    },
    {
      "midi": 69,
      "hit": false,
      "t": 132970.10512499834,
      "d": 482.1423749999958,
      "v": 84
    },
    {
      "midi": 73,
      "hit": false,
      "t": 132993.91462499835,
      "d": 476.1899999999732,
      "v": 89
    },
    {
      "midi": 57,
      "hit": false,
      "t": 133505.8188749983,
      "d": 416.6662499999802,
      "v": 70
    },
    {
      "midi": 64,
      "hit": false,
      "t": 133505.8188749983,
      "d": 425.59481249997043,
      "v": 76
    },
    {
      "midi": 73,
      "hit": false,
      "t": 133508.7950624983,
      "d": 431.5471874999639,
      "v": 82
    },
    {
      "midi": 76,
      "hit": false,
      "t": 133508.7950624983,
      "d": 437.4995624999574,
      "v": 89
    },
    {
      "midi": 67,
      "hit": false,
      "t": 133511.7712499983,
      "d": 422.6186249999737,
      "v": 76
    },
    {
      "midi": 69,
      "hit": false,
      "t": 134089.15162499825,
      "d": 1065.4751249999972,
      "v": 84
    },
    {
      "midi": 77,
      "hit": false,
      "t": 134089.15162499825,
      "d": 1065.4751249999972,
      "v": 91
    },
    {
      "midi": 72,
      "hit": false,
      "t": 134089.15162499825,
      "d": 1074.4036874999874,
      "v": 88
    },
    {
      "midi": 83,
      "hit": false,
      "t": 135232.00762499825,
      "d": 169.64268749998882,
      "v": 95
    },
    {
      "midi": 86,
      "hit": false,
      "t": 135232.00762499825,
      "d": 169.64268749998882,
      "v": 95
    },
    {
      "midi": 84,
      "hit": false,
      "t": 135413.55506249823,
      "d": 133.92843749999884,
      "v": 89
    },
    {
      "midi": 81,
      "hit": false,
      "t": 135416.53124999822,
      "d": 133.92843749999884,
      "v": 89
    },
    {
      "midi": 83,
      "hit": false,
      "t": 135607.00724999822,
      "d": 124.99987500000861,
      "v": 84
    },
    {
      "midi": 79,
      "hit": false,
      "t": 135609.98343749822,
      "d": 124.99987500000861,
      "v": 84
    },
    {
      "midi": 81,
      "hit": false,
      "t": 135794.50706249822,
      "d": 136.90462499999558,
      "v": 87
    },
    {
      "midi": 77,
      "hit": false,
      "t": 135797.48324999821,
      "d": 136.90462499999558,
      "v": 87
    },
    {
      "midi": 79,
      "hit": false,
      "t": 135979.03068749822,
      "d": 133.92843749999884,
      "v": 84
    },
    {
      "midi": 76,
      "hit": false,
      "t": 135982.00687499822,
      "d": 133.92843749999884,
      "v": 84
    },
    {
      "midi": 77,
      "hit": false,
      "t": 136181.4114374982,
      "d": 139.88081249999232,
      "v": 85
    },
    {
      "midi": 74,
      "hit": false,
      "t": 136184.3876249982,
      "d": 139.88081249999232,
      "v": 85
    },
    {
      "midi": 76,
      "hit": false,
      "t": 136365.9350624982,
      "d": 997.0228124999849,
      "v": 84
    },
    {
      "midi": 72,
      "hit": false,
      "t": 136368.9112499982,
      "d": 997.0228124999849,
      "v": 84
    },
    {
      "midi": 84,
      "hit": false,
      "t": 137511.76724999817,
      "d": 148.80937499998254,
      "v": 95
    },
    {
      "midi": 81,
      "hit": false,
      "t": 137514.74343749817,
      "d": 148.80937499998254,
      "v": 95
    },
    {
      "midi": 83,
      "hit": false,
      "t": 137690.33849999815,
      "d": 127.97606250000536,
      "v": 88
    },
    {
      "midi": 79,
      "hit": false,
      "t": 137693.31468749815,
      "d": 127.97606250000536,
      "v": 88
    },
    {
      "midi": 81,
      "hit": false,
      "t": 137889.74306249816,
      "d": 133.92843749999884,
      "v": 94
    },
    {
      "midi": 77,
      "hit": false,
      "t": 137892.71924999816,
      "d": 133.92843749999884,
      "v": 94
    },
    {
      "midi": 79,
      "hit": false,
      "t": 138080.21906249816,
      "d": 130.9522500000021,
      "v": 85
    },
    {
      "midi": 76,
      "hit": false,
      "t": 138083.19524999816,
      "d": 130.9522500000021,
      "v": 85
    },
    {
      "midi": 77,
      "hit": false,
      "t": 138267.71887499816,
      "d": 130.9522500000021,
      "v": 83
    },
    {
      "midi": 74,
      "hit": false,
      "t": 138270.69506249815,
      "d": 130.9522500000021,
      "v": 83
    },
    {
      "midi": 76,
      "hit": false,
      "t": 138464.14724999815,
      "d": 133.92843749999884,
      "v": 87
    },
    {
      "midi": 72,
      "hit": false,
      "t": 138467.12343749814,
      "d": 133.92843749999884,
      "v": 87
    },
    {
      "midi": 75,
      "hit": false,
      "t": 138648.67087499815,
      "d": 830.3563124999928,
      "v": 91
    },
    {
      "midi": 66,
      "hit": false,
      "t": 138648.67087499815,
      "d": 836.3086874999863,
      "v": 85
    },
    {
      "midi": 71,
      "hit": false,
      "t": 138654.62324999814,
      "d": 848.2134375000023,
      "v": 88
    },
    {
      "midi": 59,
      "hit": false,
      "t": 138654.62324999814,
      "d": 854.1658124999958,
      "v": 82
    },
    {
      "midi": 66,
      "hit": false,
      "t": 139794.50306249814,
      "d": 1011.9037499999977,
      "v": 94
    },
    {
      "midi": 71,
      "hit": false,
      "t": 139797.47924999814,
      "d": 1005.9513750000042,
      "v": 84
    },
    {
      "midi": 59,
      "hit": false,
      "t": 139797.47924999814,
      "d": 1017.8561249999912,
      "v": 90
    },
    {
      "midi": 75,
      "hit": false,
      "t": 139800.45543749814,
      "d": 1023.8084999999846,
      "v": 85
    },
    {
      "midi": 50,
      "hit": false,
      "t": 140937.35906249812,
      "d": 833.3324999999895,
      "v": 73
    },
    {
      "midi": 74,
      "hit": false,
      "t": 140937.35906249812,
      "d": 857.1419999999925,
      "v": 91
    },
    {
      "midi": 65,
      "hit": false,
      "t": 140940.3352499981,
      "d": 845.2372500000056,
      "v": 84
    },
    {
      "midi": 57,
      "hit": false,
      "t": 140940.3352499981,
      "d": 848.2134375000023,
      "v": 82
    },
    {
      "midi": 62,
      "hit": false,
      "t": 140940.3352499981,
      "d": 860.1181874999893,
      "v": 85
    },
    {
      "midi": 72,
      "hit": false,
      "t": 140946.2876249981,
      "d": 845.2372500000056,
      "v": 83
    },
    {
      "midi": 68,
      "hit": false,
      "t": 142068.3103124981,
      "d": 916.6657499999856,
      "v": 84
    },
    {
      "midi": 76,
      "hit": false,
      "t": 142068.3103124981,
      "d": 916.6657499999856,
      "v": 86
    },
    {
      "midi": 52,
      "hit": false,
      "t": 142071.2864999981,
      "d": 916.6657499999856,
      "v": 87
    },
    {
      "midi": 71,
      "hit": false,
      "t": 142071.2864999981,
      "d": 916.6657499999856,
      "v": 93
    },
    {
      "midi": 62,
      "hit": false,
      "t": 142074.2626874981,
      "d": 916.6657499999856,
      "v": 91
    },
    {
      "midi": 59,
      "hit": false,
      "t": 142077.2388749981,
      "d": 916.6657499999856,
      "v": 93
    },
    {
      "midi": 60,
      "hit": false,
      "t": 143231.99962499808,
      "d": 83.33324999999604,
      "v": 83
    },
    {
      "midi": 69,
      "hit": false,
      "t": 143231.99962499808,
      "d": 89.28562499998952,
      "v": 84
    },
    {
      "midi": 76,
      "hit": false,
      "t": 143231.99962499808,
      "d": 89.28562499998952,
      "v": 88
    },
    {
      "midi": 81,
      "hit": false,
      "t": 143231.99962499808,
      "d": 89.28562499998952,
      "v": 86
    },
    {
      "midi": 81,
      "hit": false,
      "t": 143987.95124999806,
      "d": 80.3570624999993,
      "v": 88
    },
    {
      "midi": 69,
      "hit": false,
      "t": 143987.95124999806,
      "d": 83.33324999999604,
      "v": 88
    },
    {
      "midi": 76,
      "hit": false,
      "t": 143987.95124999806,
      "d": 83.33324999999604,
      "v": 86
    },
    {
      "midi": 60,
      "hit": false,
      "t": 143987.95124999806,
      "d": 86.30943749999278,
      "v": 88
    },
    {
      "midi": 76,
      "hit": false,
      "t": 144368.90324999805,
      "d": 80.3570624999993,
      "v": 81
    },
    {
      "midi": 60,
      "hit": false,
      "t": 144368.90324999805,
      "d": 83.33324999999604,
      "v": 77
    },
    {
      "midi": 69,
      "hit": false,
      "t": 144368.90324999805,
      "d": 83.33324999999604,
      "v": 86
    },
    {
      "midi": 81,
      "hit": false,
      "t": 144368.90324999805,
      "d": 86.30943749999278,
      "v": 84
    },
    {
      "midi": 60,
      "hit": false,
      "t": 145130.80724999803,
      "d": 83.33324999999604,
      "v": 84
    },
    {
      "midi": 69,
      "hit": false,
      "t": 145130.80724999803,
      "d": 83.33324999999604,
      "v": 86
    },
    {
      "midi": 76,
      "hit": false,
      "t": 145130.80724999803,
      "d": 83.33324999999604,
      "v": 87
    },
    {
      "midi": 81,
      "hit": false,
      "t": 145130.80724999803,
      "d": 86.30943749999278,
      "v": 89
    },
    {
      "midi": 74,
      "hit": false,
      "t": 145511.75924999802,
      "d": 83.33324999999604,
      "v": 85
    },
    {
      "midi": 77,
      "hit": false,
      "t": 145511.75924999802,
      "d": 86.30943749999278,
      "v": 88
    },
    {
      "midi": 62,
      "hit": false,
      "t": 145511.75924999802,
      "d": 92.26181249998626,
      "v": 83
    },
    {
      "midi": 69,
      "hit": false,
      "t": 145511.75924999802,
      "d": 101.19037499997648,
      "v": 78
    },
    {
      "midi": 62,
      "hit": false,
      "t": 146273.663249998,
      "d": 83.33324999999604,
      "v": 94
    },
    {
      "midi": 69,
      "hit": false,
      "t": 146273.663249998,
      "d": 83.33324999999604,
      "v": 94
    },
    {
      "midi": 74,
      "hit": false,
      "t": 146273.663249998,
      "d": 86.30943749999278,
      "v": 93
    },
    {
      "midi": 77,
      "hit": false,
      "t": 146273.663249998,
      "d": 86.30943749999278,
      "v": 93
    },
    {
      "midi": 77,
      "hit": false,
      "t": 146654.615249998,
      "d": 71.42850000000908,
      "v": 83
    },
    {
      "midi": 62,
      "hit": false,
      "t": 146654.615249998,
      "d": 77.38087500000256,
      "v": 78
    },
    {
      "midi": 69,
      "hit": false,
      "t": 146654.615249998,
      "d": 77.38087500000256,
      "v": 83
    },
    {
      "midi": 74,
      "hit": false,
      "t": 146654.615249998,
      "d": 83.33324999999604,
      "v": 79
    },
    {
      "midi": 69,
      "hit": false,
      "t": 147416.519249998,
      "d": 71.42850000000908,
      "v": 87
    },
    {
      "midi": 77,
      "hit": false,
      "t": 147416.519249998,
      "d": 71.42850000000908,
      "v": 87
    },
    {
      "midi": 62,
      "hit": false,
      "t": 147416.519249998,
      "d": 77.38087500000256,
      "v": 87
    },
    {
      "midi": 74,
      "hit": false,
      "t": 147416.519249998,
      "d": 83.33324999999604,
      "v": 86
    },
    {
      "midi": 64,
      "hit": false,
      "t": 147797.471249998,
      "d": 83.33324999999604,
      "v": 81
    },
    {
      "midi": 74,
      "hit": false,
      "t": 147797.471249998,
      "d": 83.33324999999604,
      "v": 83
    },
    {
      "midi": 83,
      "hit": false,
      "t": 147797.471249998,
      "d": 86.30943749999278,
      "v": 87
    },
    {
      "midi": 76,
      "hit": false,
      "t": 147797.471249998,
      "d": 89.28562499998952,
      "v": 88
    },
    {
      "midi": 71,
      "hit": false,
      "t": 147797.471249998,
      "d": 92.26181249998626,
      "v": 84
    },
    {
      "midi": 64,
      "hit": false,
      "t": 148559.37524999797,
      "d": 83.33324999999604,
      "v": 95
    },
    {
      "midi": 71,
      "hit": false,
      "t": 148559.37524999797,
      "d": 83.33324999999604,
      "v": 95
    },
    {
      "midi": 74,
      "hit": false,
      "t": 148559.37524999797,
      "d": 83.33324999999604,
      "v": 84
    },
    {
      "midi": 76,
      "hit": false,
      "t": 148559.37524999797,
      "d": 83.33324999999604,
      "v": 94
    },
    {
      "midi": 83,
      "hit": false,
      "t": 148559.37524999797,
      "d": 83.33324999999604,
      "v": 84
    },
    {
      "midi": 64,
      "hit": false,
      "t": 148940.32724999796,
      "d": 80.3570624999993,
      "v": 88
    },
    {
      "midi": 71,
      "hit": false,
      "t": 148940.32724999796,
      "d": 80.3570624999993,
      "v": 83
    },
    {
      "midi": 76,
      "hit": false,
      "t": 148940.32724999796,
      "d": 80.3570624999993,
      "v": 84
    },
    {
      "midi": 83,
      "hit": false,
      "t": 148940.32724999796,
      "d": 80.3570624999993,
      "v": 85
    },
    {
      "midi": 74,
      "hit": false,
      "t": 148940.32724999796,
      "d": 83.33324999999604,
      "v": 89
    },
    {
      "midi": 64,
      "hit": false,
      "t": 149702.23124999797,
      "d": 80.3570624999993,
      "v": 87
    },
    {
      "midi": 71,
      "hit": false,
      "t": 149702.23124999797,
      "d": 80.3570624999993,
      "v": 88
    },
    {
      "midi": 76,
      "hit": false,
      "t": 149702.23124999797,
      "d": 86.30943749999278,
      "v": 87
    },
    {
      "midi": 83,
      "hit": false,
      "t": 149702.23124999797,
      "d": 86.30943749999278,
      "v": 86
    },
    {
      "midi": 74,
      "hit": false,
      "t": 149702.23124999797,
      "d": 92.26181249998626,
      "v": 88
    },
    {
      "midi": 71,
      "hit": false,
      "t": 150083.18324999796,
      "d": 80.3570624999993,
      "v": 81
    },
    {
      "midi": 78,
      "hit": false,
      "t": 150083.18324999796,
      "d": 83.33324999999604,
      "v": 83
    },
    {
      "midi": 59,
      "hit": false,
      "t": 150083.18324999796,
      "d": 86.30943749999278,
      "v": 78
    },
    {
      "midi": 63,
      "hit": false,
      "t": 150083.18324999796,
      "d": 86.30943749999278,
      "v": 82
    },
    {
      "midi": 75,
      "hit": false,
      "t": 150083.18324999796,
      "d": 86.30943749999278,
      "v": 81
    },
    {
      "midi": 75,
      "hit": false,
      "t": 150845.08724999795,
      "d": 71.42850000000908,
      "v": 95
    },
    {
      "midi": 59,
      "hit": false,
      "t": 150845.08724999795,
      "d": 83.33324999999604,
      "v": 95
    },
    {
      "midi": 63,
      "hit": false,
      "t": 150845.08724999795,
      "d": 83.33324999999604,
      "v": 94
    },
    {
      "midi": 71,
      "hit": false,
      "t": 150845.08724999795,
      "d": 83.33324999999604,
      "v": 94
    },
    {
      "midi": 78,
      "hit": false,
      "t": 150845.08724999795,
      "d": 86.30943749999278,
      "v": 95
    },
    {
      "midi": 74,
      "hit": false,
      "t": 151226.03924999794,
      "d": 80.3570624999993,
      "v": 84
    },
    {
      "midi": 68,
      "hit": false,
      "t": 151226.03924999794,
      "d": 83.33324999999604,
      "v": 82
    },
    {
      "midi": 80,
      "hit": false,
      "t": 151226.03924999794,
      "d": 89.28562499998952,
      "v": 85
    },
    {
      "midi": 71,
      "hit": false,
      "t": 151226.03924999794,
      "d": 92.26181249998626,
      "v": 82
    },
    {
      "midi": 64,
      "hit": false,
      "t": 151226.03924999794,
      "d": 95.237999999983,
      "v": 81
    },
    {
      "midi": 74,
      "hit": false,
      "t": 151987.94324999792,
      "d": 77.38087500000256,
      "v": 87
    },
    {
      "midi": 80,
      "hit": false,
      "t": 151987.94324999792,
      "d": 77.38087500000256,
      "v": 88
    },
    {
      "midi": 68,
      "hit": false,
      "t": 151987.94324999792,
      "d": 83.33324999999604,
      "v": 88
    },
    {
      "midi": 71,
      "hit": false,
      "t": 151987.94324999792,
      "d": 83.33324999999604,
      "v": 88
    },
    {
      "midi": 64,
      "hit": false,
      "t": 151987.94324999792,
      "d": 104.16656250000233,
      "v": 87
    },
    {
      "midi": 60,
      "hit": false,
      "t": 152374.84762499793,
      "d": 83.33324999999604,
      "v": 83
    },
    {
      "midi": 69,
      "hit": false,
      "t": 152374.84762499793,
      "d": 89.28562499998952,
      "v": 84
    },
    {
      "midi": 76,
      "hit": false,
      "t": 152374.84762499793,
      "d": 89.28562499998952,
      "v": 88
    },
    {
      "midi": 81,
      "hit": false,
      "t": 152374.84762499793,
      "d": 89.28562499998952,
      "v": 86
    },
    {
      "midi": 81,
      "hit": false,
      "t": 153130.79924999792,
      "d": 80.3570624999993,
      "v": 88
    },
    {
      "midi": 69,
      "hit": false,
      "t": 153130.79924999792,
      "d": 83.33324999999604,
      "v": 88
    },
    {
      "midi": 76,
      "hit": false,
      "t": 153130.79924999792,
      "d": 83.33324999999604,
      "v": 86
    },
    {
      "midi": 60,
      "hit": false,
      "t": 153130.79924999792,
      "d": 86.30943749999278,
      "v": 88
    },
    {
      "midi": 76,
      "hit": false,
      "t": 153511.7512499979,
      "d": 80.3570624999993,
      "v": 81
    },
    {
      "midi": 60,
      "hit": false,
      "t": 153511.7512499979,
      "d": 83.33324999999604,
      "v": 77
    },
    {
      "midi": 69,
      "hit": false,
      "t": 153511.7512499979,
      "d": 83.33324999999604,
      "v": 86
    },
    {
      "midi": 81,
      "hit": false,
      "t": 153511.7512499979,
      "d": 86.30943749999278,
      "v": 84
    },
    {
      "midi": 60,
      "hit": false,
      "t": 154273.6552499979,
      "d": 83.33324999999604,
      "v": 84
    },
    {
      "midi": 69,
      "hit": false,
      "t": 154273.6552499979,
      "d": 83.33324999999604,
      "v": 86
    },
    {
      "midi": 76,
      "hit": false,
      "t": 154273.6552499979,
      "d": 83.33324999999604,
      "v": 87
    },
    {
      "midi": 81,
      "hit": false,
      "t": 154273.6552499979,
      "d": 86.30943749999278,
      "v": 89
    },
    {
      "midi": 74,
      "hit": false,
      "t": 154654.60724999788,
      "d": 83.33324999999604,
      "v": 85
    },
    {
      "midi": 77,
      "hit": false,
      "t": 154654.60724999788,
      "d": 86.30943749999278,
      "v": 88
    },
    {
      "midi": 62,
      "hit": false,
      "t": 154654.60724999788,
      "d": 92.26181249998626,
      "v": 83
    },
    {
      "midi": 69,
      "hit": false,
      "t": 154654.60724999788,
      "d": 101.19037499997648,
      "v": 78
    },
    {
      "midi": 62,
      "hit": false,
      "t": 155416.51124999786,
      "d": 83.33324999999604,
      "v": 94
    },
    {
      "midi": 69,
      "hit": false,
      "t": 155416.51124999786,
      "d": 83.33324999999604,
      "v": 94
    },
    {
      "midi": 74,
      "hit": false,
      "t": 155416.51124999786,
      "d": 86.30943749999278,
      "v": 93
    },
    {
      "midi": 77,
      "hit": false,
      "t": 155416.51124999786,
      "d": 86.30943749999278,
      "v": 93
    },
    {
      "midi": 77,
      "hit": false,
      "t": 155797.46324999785,
      "d": 71.42850000000908,
      "v": 83
    },
    {
      "midi": 62,
      "hit": false,
      "t": 155797.46324999785,
      "d": 77.38087500000256,
      "v": 78
    },
    {
      "midi": 69,
      "hit": false,
      "t": 155797.46324999785,
      "d": 77.38087500000256,
      "v": 83
    },
    {
      "midi": 74,
      "hit": false,
      "t": 155797.46324999785,
      "d": 83.33324999999604,
      "v": 79
    },
    {
      "midi": 69,
      "hit": false,
      "t": 156559.36724999786,
      "d": 71.42850000000908,
      "v": 87
    },
    {
      "midi": 77,
      "hit": false,
      "t": 156559.36724999786,
      "d": 71.42850000000908,
      "v": 87
    },
    {
      "midi": 62,
      "hit": false,
      "t": 156559.36724999786,
      "d": 77.38087500000256,
      "v": 87
    },
    {
      "midi": 74,
      "hit": false,
      "t": 156559.36724999786,
      "d": 83.33324999999604,
      "v": 86
    },
    {
      "midi": 64,
      "hit": false,
      "t": 156940.31924999785,
      "d": 83.33324999999604,
      "v": 81
    },
    {
      "midi": 74,
      "hit": false,
      "t": 156940.31924999785,
      "d": 83.33324999999604,
      "v": 83
    },
    {
      "midi": 83,
      "hit": false,
      "t": 156940.31924999785,
      "d": 86.30943749999278,
      "v": 87
    },
    {
      "midi": 76,
      "hit": false,
      "t": 156940.31924999785,
      "d": 89.28562499998952,
      "v": 88
    },
    {
      "midi": 71,
      "hit": false,
      "t": 156940.31924999785,
      "d": 92.26181249998626,
      "v": 84
    },
    {
      "midi": 64,
      "hit": false,
      "t": 157702.22324999783,
      "d": 83.33324999999604,
      "v": 95
    },
    {
      "midi": 71,
      "hit": false,
      "t": 157702.22324999783,
      "d": 83.33324999999604,
      "v": 95
    },
    {
      "midi": 74,
      "hit": false,
      "t": 157702.22324999783,
      "d": 83.33324999999604,
      "v": 84
    },
    {
      "midi": 76,
      "hit": false,
      "t": 157702.22324999783,
      "d": 83.33324999999604,
      "v": 94
    },
    {
      "midi": 83,
      "hit": false,
      "t": 157702.22324999783,
      "d": 83.33324999999604,
      "v": 84
    },
    {
      "midi": 64,
      "hit": false,
      "t": 158083.17524999782,
      "d": 80.3570624999993,
      "v": 88
    },
    {
      "midi": 71,
      "hit": false,
      "t": 158083.17524999782,
      "d": 80.3570624999993,
      "v": 83
    },
    {
      "midi": 76,
      "hit": false,
      "t": 158083.17524999782,
      "d": 80.3570624999993,
      "v": 84
    },
    {
      "midi": 83,
      "hit": false,
      "t": 158083.17524999782,
      "d": 80.3570624999993,
      "v": 85
    },
    {
      "midi": 74,
      "hit": false,
      "t": 158083.17524999782,
      "d": 83.33324999999604,
      "v": 89
    },
    {
      "midi": 64,
      "hit": false,
      "t": 158845.07924999783,
      "d": 80.3570624999993,
      "v": 87
    },
    {
      "midi": 71,
      "hit": false,
      "t": 158845.07924999783,
      "d": 80.3570624999993,
      "v": 88
    },
    {
      "midi": 76,
      "hit": false,
      "t": 158845.07924999783,
      "d": 86.30943749999278,
      "v": 87
    },
    {
      "midi": 83,
      "hit": false,
      "t": 158845.07924999783,
      "d": 86.30943749999278,
      "v": 86
    },
    {
      "midi": 74,
      "hit": false,
      "t": 158845.07924999783,
      "d": 92.26181249998626,
      "v": 88
    },
    {
      "midi": 71,
      "hit": false,
      "t": 159226.03124999782,
      "d": 80.3570624999993,
      "v": 81
    },
    {
      "midi": 78,
      "hit": false,
      "t": 159226.03124999782,
      "d": 83.33324999999604,
      "v": 83
    },
    {
      "midi": 59,
      "hit": false,
      "t": 159226.03124999782,
      "d": 86.30943749999278,
      "v": 78
    },
    {
      "midi": 63,
      "hit": false,
      "t": 159226.03124999782,
      "d": 86.30943749999278,
      "v": 82
    },
    {
      "midi": 75,
      "hit": false,
      "t": 159226.03124999782,
      "d": 86.30943749999278,
      "v": 81
    },
    {
      "midi": 75,
      "hit": false,
      "t": 159987.9352499978,
      "d": 71.42850000000908,
      "v": 95
    },
    {
      "midi": 59,
      "hit": false,
      "t": 159987.9352499978,
      "d": 83.33324999999604,
      "v": 95
    },
    {
      "midi": 63,
      "hit": false,
      "t": 159987.9352499978,
      "d": 83.33324999999604,
      "v": 94
    },
    {
      "midi": 71,
      "hit": false,
      "t": 159987.9352499978,
      "d": 83.33324999999604,
      "v": 94
    },
    {
      "midi": 78,
      "hit": false,
      "t": 159987.9352499978,
      "d": 86.30943749999278,
      "v": 95
    },
    {
      "midi": 74,
      "hit": false,
      "t": 160368.8872499978,
      "d": 80.3570624999993,
      "v": 84
    },
    {
      "midi": 68,
      "hit": false,
      "t": 160368.8872499978,
      "d": 83.33324999999604,
      "v": 82
    },
    {
      "midi": 80,
      "hit": false,
      "t": 160368.8872499978,
      "d": 89.28562499998952,
      "v": 85
    },
    {
      "midi": 71,
      "hit": false,
      "t": 160368.8872499978,
      "d": 92.26181249998626,
      "v": 82
    },
    {
      "midi": 64,
      "hit": false,
      "t": 160368.8872499978,
      "d": 95.237999999983,
      "v": 81
    },
    {
      "midi": 74,
      "hit": false,
      "t": 161130.79124999777,
      "d": 77.38087500000256,
      "v": 87
    },
    {
      "midi": 80,
      "hit": false,
      "t": 161130.79124999777,
      "d": 77.38087500000256,
      "v": 88
    },
    {
      "midi": 68,
      "hit": false,
      "t": 161130.79124999777,
      "d": 83.33324999999604,
      "v": 88
    },
    {
      "midi": 71,
      "hit": false,
      "t": 161130.79124999777,
      "d": 83.33324999999604,
      "v": 88
    },
    {
      "midi": 64,
      "hit": false,
      "t": 161130.79124999777,
      "d": 104.16656250000233,
      "v": 87
    },
    {
      "midi": 69,
      "hit": false,
      "t": 161517.69562499778,
      "d": 89.28562499998952,
      "v": 94
    },
    {
      "midi": 60,
      "hit": false,
      "t": 161517.69562499778,
      "d": 95.237999999983,
      "v": 94
    },
    {
      "midi": 81,
      "hit": false,
      "t": 161517.69562499778,
      "d": 98.21418749997974,
      "v": 94
    },
    {
      "midi": 76,
      "hit": false,
      "t": 161517.69562499778,
      "d": 101.19037499997648,
      "v": 93
    },
    {
      "midi": 60,
      "hit": false,
      "t": 163422.45562499776,
      "d": 324.40443749999395,
      "v": 90
    },
    {
      "midi": 69,
      "hit": false,
      "t": 163422.45562499776,
      "d": 336.3091874999809,
      "v": 90
    },
    {
      "midi": 81,
      "hit": false,
      "t": 163422.45562499776,
      "d": 336.3091874999809,
      "v": 93
    },
    {
      "midi": 76,
      "hit": false,
      "t": 163422.45562499776,
      "d": 342.2615624999744,
      "v": 91
    },
    {
      "midi": 62,
      "hit": false,
      "t": 163803.40762499772,
      "d": 98.21418750000885,
      "v": 91
    },
    {
      "midi": 69,
      "hit": false,
      "t": 163803.40762499772,
      "d": 104.16656250000233,
      "v": 94
    },
    {
      "midi": 77,
      "hit": false,
      "t": 163803.40762499772,
      "d": 113.09512499999255,
      "v": 93
    },
    {
      "midi": 74,
      "hit": false,
      "t": 163803.40762499772,
      "d": 116.07131249998929,
      "v": 94
    },
    {
      "midi": 69,
      "hit": false,
      "t": 165708.1676249977,
      "d": 318.45206250000047,
      "v": 88
    },
    {
      "midi": 77,
      "hit": false,
      "t": 165708.1676249977,
      "d": 318.45206250000047,
      "v": 93
    },
    {
      "midi": 62,
      "hit": false,
      "t": 165708.1676249977,
      "d": 324.40443749999395,
      "v": 88
    },
    {
      "midi": 74,
      "hit": false,
      "t": 165708.1676249977,
      "d": 327.3806249999907,
      "v": 91
    },
    {
      "midi": 59,
      "hit": false,
      "t": 166089.1196249977,
      "d": 110.11893749999581,
      "v": 94
    },
    {
      "midi": 69,
      "hit": false,
      "t": 166089.1196249977,
      "d": 110.11893749999581,
      "v": 94
    },
    {
      "midi": 75,
      "hit": false,
      "t": 166089.1196249977,
      "d": 110.11893749999581,
      "v": 91
    },
    {
      "midi": 78,
      "hit": false,
      "t": 166089.1196249977,
      "d": 110.11893749999581,
      "v": 93
    },
    {
      "midi": 75,
      "hit": false,
      "t": 167993.8796249977,
      "d": 363.0948750000098,
      "v": 92
    },
    {
      "midi": 59,
      "hit": false,
      "t": 167993.8796249977,
      "d": 366.0710625000065,
      "v": 89
    },
    {
      "midi": 69,
      "hit": false,
      "t": 167993.8796249977,
      "d": 366.0710625000065,
      "v": 91
    },
    {
      "midi": 78,
      "hit": false,
      "t": 167993.8796249977,
      "d": 369.04725000000326,
      "v": 95
    },
    {
      "midi": 62,
      "hit": false,
      "t": 168374.8316249977,
      "d": 101.19037500000559,
      "v": 94
    },
    {
      "midi": 74,
      "hit": false,
      "t": 168374.8316249977,
      "d": 104.16656250000233,
      "v": 93
    },
    {
      "midi": 77,
      "hit": false,
      "t": 168374.8316249977,
      "d": 104.16656250000233,
      "v": 94
    },
    {
      "midi": 69,
      "hit": false,
      "t": 168374.8316249977,
      "d": 107.14274999999907,
      "v": 91
    },
    {
      "midi": 62,
      "hit": false,
      "t": 169422.44962499768,
      "d": 50.595187500002794,
      "v": 90
    },
    {
      "midi": 69,
      "hit": false,
      "t": 169422.44962499768,
      "d": 53.571374999999534,
      "v": 90
    },
    {
      "midi": 77,
      "hit": false,
      "t": 169422.44962499768,
      "d": 53.571374999999534,
      "v": 95
    },
    {
      "midi": 74,
      "hit": false,
      "t": 169422.44962499768,
      "d": 56.547562499996275,
      "v": 92
    },
    {
      "midi": 64,
      "hit": false,
      "t": 169517.68762499766,
      "d": 136.90462499999558,
      "v": 78
    },
    {
      "midi": 71,
      "hit": false,
      "t": 169517.68762499766,
      "d": 136.90462499999558,
      "v": 77
    },
    {
      "midi": 74,
      "hit": false,
      "t": 169517.68762499766,
      "d": 145.8331874999858,
      "v": 75
    },
    {
      "midi": 80,
      "hit": false,
      "t": 169517.68762499766,
      "d": 145.8331874999858,
      "v": 78
    },
    {
      "midi": 71,
      "hit": false,
      "t": 169803.40162499764,
      "d": 133.92843749999884,
      "v": 82
    },
    {
      "midi": 74,
      "hit": false,
      "t": 169803.40162499764,
      "d": 136.90462499999558,
      "v": 82
    },
    {
      "midi": 64,
      "hit": false,
      "t": 169803.40162499764,
      "d": 142.85699999998906,
      "v": 81
    },
    {
      "midi": 80,
      "hit": false,
      "t": 169803.40162499764,
      "d": 142.85699999998906,
      "v": 83
    },
    {
      "midi": 71,
      "hit": false,
      "t": 170089.11562499762,
      "d": 119.04749999998603,
      "v": 93
    },
    {
      "midi": 64,
      "hit": false,
      "t": 170089.11562499762,
      "d": 122.02368749998277,
      "v": 91
    },
    {
      "midi": 74,
      "hit": false,
      "t": 170089.11562499762,
      "d": 127.97606249997625,
      "v": 91
    },
    {
      "midi": 80,
      "hit": false,
      "t": 170089.11562499762,
      "d": 127.97606249997625,
      "v": 91
    },
    {
      "midi": 64,
      "hit": false,
      "t": 170374.8296249976,
      "d": 113.09512499999255,
      "v": 84
    },
    {
      "midi": 74,
      "hit": false,
      "t": 170374.8296249976,
      "d": 116.07131249998929,
      "v": 84
    },
    {
      "midi": 80,
      "hit": false,
      "t": 170374.8296249976,
      "d": 116.07131249998929,
      "v": 84
    },
    {
      "midi": 71,
      "hit": false,
      "t": 170374.8296249976,
      "d": 119.04749999998603,
      "v": 84
    },
    {
      "midi": 88,
      "hit": false,
      "t": 170940.3052499976,
      "d": 62.499937499989755,
      "v": 92
    },
    {
      "midi": 93,
      "hit": false,
      "t": 170940.3052499976,
      "d": 62.499937499989755,
      "v": 90
    },
    {
      "midi": 84,
      "hit": false,
      "t": 170940.3052499976,
      "d": 68.45231249998324,
      "v": 90
    },
    {
      "midi": 76,
      "hit": false,
      "t": 170946.25762499758,
      "d": 53.571374999999534,
      "v": 88
    },
    {
      "midi": 81,
      "hit": false,
      "t": 170946.25762499758,
      "d": 56.547562499996275,
      "v": 86
    },
    {
      "midi": 84,
      "hit": false,
      "t": 171416.49524999756,
      "d": 68.45231249998324,
      "v": 90
    },
    {
      "midi": 88,
      "hit": false,
      "t": 171416.49524999756,
      "d": 68.45231249998324,
      "v": 91
    },
    {
      "midi": 93,
      "hit": false,
      "t": 171416.49524999756,
      "d": 68.45231249998324,
      "v": 91
    },
    {
      "midi": 81,
      "hit": false,
      "t": 171422.44762499756,
      "d": 53.571374999999534,
      "v": 88
    },
    {
      "midi": 76,
      "hit": false,
      "t": 171422.44762499756,
      "d": 56.547562499996275,
      "v": 88
    },
    {
      "midi": 84,
      "hit": false,
      "t": 171797.44724999755,
      "d": 62.499937499989755,
      "v": 91
    },
    {
      "midi": 88,
      "hit": false,
      "t": 171797.44724999755,
      "d": 65.4761249999865,
      "v": 90
    },
    {
      "midi": 93,
      "hit": false,
      "t": 171797.44724999755,
      "d": 65.4761249999865,
      "v": 91
    },
    {
      "midi": 76,
      "hit": false,
      "t": 171803.39962499755,
      "d": 53.571374999999534,
      "v": 88
    },
    {
      "midi": 81,
      "hit": false,
      "t": 171803.39962499755,
      "d": 53.571374999999534,
      "v": 87
    },
    {
      "midi": 84,
      "hit": false,
      "t": 172273.63724999753,
      "d": 65.4761249999865,
      "v": 91
    },
    {
      "midi": 93,
      "hit": false,
      "t": 172273.63724999753,
      "d": 65.4761249999865,
      "v": 90
    },
    {
      "midi": 88,
      "hit": false,
      "t": 172273.63724999753,
      "d": 71.42849999997998,
      "v": 90
    },
    {
      "midi": 81,
      "hit": false,
      "t": 172279.58962499752,
      "d": 53.571374999999534,
      "v": 86
    },
    {
      "midi": 76,
      "hit": false,
      "t": 172279.58962499752,
      "d": 59.523749999993015,
      "v": 88
    },
    {
      "midi": 84,
      "hit": false,
      "t": 172654.58924999752,
      "d": 62.499937499989755,
      "v": 91
    },
    {
      "midi": 88,
      "hit": false,
      "t": 172654.58924999752,
      "d": 62.499937499989755,
      "v": 91
    },
    {
      "midi": 93,
      "hit": false,
      "t": 172654.58924999752,
      "d": 62.499937499989755,
      "v": 90
    },
    {
      "midi": 81,
      "hit": false,
      "t": 172660.5416249975,
      "d": 53.571374999999534,
      "v": 87
    },
    {
      "midi": 76,
      "hit": false,
      "t": 172660.5416249975,
      "d": 56.547562499996275,
      "v": 86
    },
    {
      "midi": 84,
      "hit": false,
      "t": 173226.0172499975,
      "d": 62.499937499989755,
      "v": 91
    },
    {
      "midi": 93,
      "hit": false,
      "t": 173226.0172499975,
      "d": 65.4761249999865,
      "v": 90
    },
    {
      "midi": 88,
      "hit": false,
      "t": 173226.0172499975,
      "d": 68.45231249998324,
      "v": 90
    },
    {
      "midi": 81,
      "hit": false,
      "t": 173231.9696249975,
      "d": 56.547562499996275,
      "v": 86
    },
    {
      "midi": 76,
      "hit": false,
      "t": 173231.9696249975,
      "d": 59.523749999993015,
      "v": 86
    },
    {
      "midi": 84,
      "hit": false,
      "t": 173702.20724999747,
      "d": 65.4761249999865,
      "v": 91
    },
    {
      "midi": 88,
      "hit": false,
      "t": 173702.20724999747,
      "d": 65.4761249999865,
      "v": 90
    },
    {
      "midi": 93,
      "hit": false,
      "t": 173702.20724999747,
      "d": 65.4761249999865,
      "v": 89
    },
    {
      "midi": 76,
      "hit": false,
      "t": 173708.15962499747,
      "d": 59.523749999993015,
      "v": 86
    },
    {
      "midi": 81,
      "hit": false,
      "t": 173708.15962499747,
      "d": 59.523749999993015,
      "v": 87
    },
    {
      "midi": 86,
      "hit": false,
      "t": 174083.15924999746,
      "d": 68.45231249998324,
      "v": 92
    },
    {
      "midi": 92,
      "hit": false,
      "t": 174083.15924999746,
      "d": 68.45231249998324,
      "v": 90
    },
    {
      "midi": 95,
      "hit": false,
      "t": 174083.15924999746,
      "d": 68.45231249998324,
      "v": 90
    },
    {
      "midi": 80,
      "hit": false,
      "t": 174089.11162499746,
      "d": 53.571374999999534,
      "v": 87
    },
    {
      "midi": 68,
      "hit": false,
      "t": 174089.11162499746,
      "d": 56.547562499996275,
      "v": 86
    },
    {
      "midi": 76,
      "hit": false,
      "t": 174089.11162499746,
      "d": 59.523749999993015,
      "v": 86
    },
    {
      "midi": 86,
      "hit": false,
      "t": 174559.34924999744,
      "d": 62.499937499989755,
      "v": 92
    },
    {
      "midi": 95,
      "hit": false,
      "t": 174559.34924999744,
      "d": 65.4761249999865,
      "v": 91
    },
    {
      "midi": 92,
      "hit": false,
      "t": 174559.34924999744,
      "d": 71.42849999997998,
      "v": 90
    },
    {
      "midi": 76,
      "hit": false,
      "t": 174565.30162499743,
      "d": 53.571374999999534,
      "v": 87
    },
    {
      "midi": 68,
      "hit": false,
      "t": 174565.30162499743,
      "d": 56.547562499996275,
      "v": 88
    },
    {
      "midi": 80,
      "hit": false,
      "t": 174565.30162499743,
      "d": 56.547562499996275,
      "v": 86
    },
    {
      "midi": 86,
      "hit": false,
      "t": 174940.30124999743,
      "d": 65.4761249999865,
      "v": 90
    },
    {
      "midi": 95,
      "hit": false,
      "t": 174940.30124999743,
      "d": 68.45231249998324,
      "v": 90
    },
    {
      "midi": 92,
      "hit": false,
      "t": 174940.30124999743,
      "d": 71.42849999997998,
      "v": 89
    },
    {
      "midi": 68,
      "hit": false,
      "t": 174946.25362499742,
      "d": 50.595187500002794,
      "v": 87
    },
    {
      "midi": 80,
      "hit": false,
      "t": 174946.25362499742,
      "d": 53.571374999999534,
      "v": 86
    },
    {
      "midi": 76,
      "hit": false,
      "t": 174946.25362499742,
      "d": 56.547562499996275,
      "v": 87
    },
    {
      "midi": 86,
      "hit": false,
      "t": 175511.7292499974,
      "d": 65.4761249999865,
      "v": 91
    },
    {
      "midi": 89,
      "hit": false,
      "t": 175511.7292499974,
      "d": 65.4761249999865,
      "v": 91
    },
    {
      "midi": 93,
      "hit": false,
      "t": 175511.7292499974,
      "d": 74.40468749997672,
      "v": 91
    },
    {
      "midi": 74,
      "hit": false,
      "t": 175517.6816249974,
      "d": 56.547562499996275,
      "v": 86
    },
    {
      "midi": 81,
      "hit": false,
      "t": 175517.6816249974,
      "d": 56.547562499996275,
      "v": 88
    },
    {
      "midi": 86,
      "hit": false,
      "t": 175987.9192499974,
      "d": 68.45231249998324,
      "v": 91
    },
    {
      "midi": 89,
      "hit": false,
      "t": 175987.9192499974,
      "d": 68.45231249998324,
      "v": 90
    },
    {
      "midi": 93,
      "hit": false,
      "t": 175987.9192499974,
      "d": 68.45231249998324,
      "v": 90
    },
    {
      "midi": 81,
      "hit": false,
      "t": 175993.87162499738,
      "d": 56.547562499996275,
      "v": 88
    },
    {
      "midi": 74,
      "hit": false,
      "t": 175993.87162499738,
      "d": 59.523749999993015,
      "v": 86
    },
    {
      "midi": 92,
      "hit": false,
      "t": 176368.87124999738,
      "d": 65.4761249999865,
      "v": 91
    },
    {
      "midi": 86,
      "hit": false,
      "t": 176368.87124999738,
      "d": 68.45231249998324,
      "v": 92
    },
    {
      "midi": 95,
      "hit": false,
      "t": 176368.87124999738,
      "d": 71.42849999997998,
      "v": 91
    },
    {
      "midi": 68,
      "hit": false,
      "t": 176374.82362499737,
      "d": 56.547562499996275,
      "v": 86
    },
    {
      "midi": 76,
      "hit": false,
      "t": 176374.82362499737,
      "d": 59.523749999993015,
      "v": 86
    },
    {
      "midi": 80,
      "hit": false,
      "t": 176374.82362499737,
      "d": 59.523749999993015,
      "v": 86
    },
    {
      "midi": 86,
      "hit": false,
      "t": 176845.06124999735,
      "d": 62.499937499989755,
      "v": 90
    },
    {
      "midi": 95,
      "hit": false,
      "t": 176845.06124999735,
      "d": 62.499937499989755,
      "v": 92
    },
    {
      "midi": 92,
      "hit": false,
      "t": 176845.06124999735,
      "d": 68.45231249998324,
      "v": 92
    },
    {
      "midi": 68,
      "hit": false,
      "t": 176851.01362499734,
      "d": 59.523749999993015,
      "v": 87
    },
    {
      "midi": 76,
      "hit": false,
      "t": 176851.01362499734,
      "d": 59.523749999993015,
      "v": 88
    },
    {
      "midi": 80,
      "hit": false,
      "t": 176851.01362499734,
      "d": 59.523749999993015,
      "v": 86
    },
    {
      "midi": 86,
      "hit": false,
      "t": 177226.01324999734,
      "d": 68.45231249998324,
      "v": 92
    },
    {
      "midi": 92,
      "hit": false,
      "t": 177226.01324999734,
      "d": 68.45231249998324,
      "v": 91
    },
    {
      "midi": 95,
      "hit": false,
      "t": 177226.01324999734,
      "d": 68.45231249998324,
      "v": 91
    },
    {
      "midi": 68,
      "hit": false,
      "t": 177231.96562499733,
      "d": 53.571374999999534,
      "v": 87
    },
    {
      "midi": 76,
      "hit": false,
      "t": 177231.96562499733,
      "d": 59.523749999993015,
      "v": 88
    },
    {
      "midi": 80,
      "hit": false,
      "t": 177231.96562499733,
      "d": 59.523749999993015,
      "v": 87
    },
    {
      "midi": 86,
      "hit": false,
      "t": 177797.44124999733,
      "d": 65.4761249999865,
      "v": 92
    },
    {
      "midi": 89,
      "hit": false,
      "t": 177797.44124999733,
      "d": 71.42849999997998,
      "v": 92
    },
    {
      "midi": 93,
      "hit": false,
      "t": 177797.44124999733,
      "d": 74.40468749997672,
      "v": 91
    },
    {
      "midi": 74,
      "hit": false,
      "t": 177803.39362499732,
      "d": 56.547562499996275,
      "v": 88
    },
    {
      "midi": 81,
      "hit": false,
      "t": 177803.39362499732,
      "d": 59.523749999993015,
      "v": 86
    },
    {
      "midi": 95,
      "hit": false,
      "t": 178273.6312499973,
      "d": 62.499937499989755,
      "v": 90
    },
    {
      "midi": 86,
      "hit": false,
      "t": 178273.6312499973,
      "d": 65.4761249999865,
      "v": 90
    },
    {
      "midi": 92,
      "hit": false,
      "t": 178273.6312499973,
      "d": 68.45231249998324,
      "v": 89
    },
    {
      "midi": 76,
      "hit": false,
      "t": 178279.5836249973,
      "d": 56.547562499996275,
      "v": 87
    },
    {
      "midi": 80,
      "hit": false,
      "t": 178279.5836249973,
      "d": 56.547562499996275,
      "v": 86
    },
    {
      "midi": 68,
      "hit": false,
      "t": 178279.5836249973,
      "d": 59.523749999993015,
      "v": 86
    },
    {
      "midi": 84,
      "hit": false,
      "t": 178654.5832499973,
      "d": 68.45231249998324,
      "v": 91
    },
    {
      "midi": 88,
      "hit": false,
      "t": 178654.5832499973,
      "d": 68.45231249998324,
      "v": 91
    },
    {
      "midi": 93,
      "hit": false,
      "t": 178654.5832499973,
      "d": 68.45231249998324,
      "v": 90
    },
    {
      "midi": 76,
      "hit": false,
      "t": 178660.53562499728,
      "d": 56.547562499996275,
      "v": 87
    },
    {
      "midi": 81,
      "hit": false,
      "t": 178660.53562499728,
      "d": 59.523749999993015,
      "v": 86
    },
    {
      "midi": 93,
      "hit": false,
      "t": 179130.77324999726,
      "d": 62.499937499989755,
      "v": 90
    },
    {
      "midi": 88,
      "hit": false,
      "t": 179130.77324999726,
      "d": 65.4761249999865,
      "v": 92
    },
    {
      "midi": 84,
      "hit": false,
      "t": 179130.77324999726,
      "d": 68.45231249998324,
      "v": 90
    },
    {
      "midi": 76,
      "hit": false,
      "t": 179136.72562499726,
      "d": 56.547562499996275,
      "v": 87
    },
    {
      "midi": 81,
      "hit": false,
      "t": 179136.72562499726,
      "d": 59.523749999993015,
      "v": 87
    },
    {
      "midi": 84,
      "hit": false,
      "t": 179511.72524999725,
      "d": 65.4761249999865,
      "v": 92
    },
    {
      "midi": 93,
      "hit": false,
      "t": 179511.72524999725,
      "d": 68.45231249998324,
      "v": 90
    },
    {
      "midi": 88,
      "hit": false,
      "t": 179511.72524999725,
      "d": 74.40468749997672,
      "v": 90
    },
    {
      "midi": 76,
      "hit": false,
      "t": 179517.67762499725,
      "d": 56.547562499996275,
      "v": 86
    },
    {
      "midi": 81,
      "hit": false,
      "t": 179517.67762499725,
      "d": 56.547562499996275,
      "v": 86
    },
    {
      "midi": 88,
      "hit": false,
      "t": 180083.15324999724,
      "d": 62.499937499989755,
      "v": 92
    },
    {
      "midi": 93,
      "hit": false,
      "t": 180083.15324999724,
      "d": 62.499937499989755,
      "v": 90
    },
    {
      "midi": 84,
      "hit": false,
      "t": 180083.15324999724,
      "d": 68.45231249998324,
      "v": 90
    },
    {
      "midi": 76,
      "hit": false,
      "t": 180089.10562499723,
      "d": 53.571374999999534,
      "v": 88
    },
    {
      "midi": 81,
      "hit": false,
      "t": 180089.10562499723,
      "d": 56.547562499996275,
      "v": 86
    },
    {
      "midi": 84,
      "hit": false,
      "t": 180559.3432499972,
      "d": 68.45231249998324,
      "v": 90
    },
    {
      "midi": 88,
      "hit": false,
      "t": 180559.3432499972,
      "d": 68.45231249998324,
      "v": 91
    },
    {
      "midi": 93,
      "hit": false,
      "t": 180559.3432499972,
      "d": 68.45231249998324,
      "v": 91
    },
    {
      "midi": 81,
      "hit": false,
      "t": 180565.2956249972,
      "d": 53.571374999999534,
      "v": 88
    },
    {
      "midi": 76,
      "hit": false,
      "t": 180565.2956249972,
      "d": 56.547562499996275,
      "v": 88
    },
    {
      "midi": 84,
      "hit": false,
      "t": 180940.2952499972,
      "d": 62.499937499989755,
      "v": 91
    },
    {
      "midi": 88,
      "hit": false,
      "t": 180940.2952499972,
      "d": 65.4761249999865,
      "v": 90
    },
    {
      "midi": 93,
      "hit": false,
      "t": 180940.2952499972,
      "d": 65.4761249999865,
      "v": 91
    },
    {
      "midi": 76,
      "hit": false,
      "t": 180946.2476249972,
      "d": 53.571374999999534,
      "v": 88
    },
    {
      "midi": 81,
      "hit": false,
      "t": 180946.2476249972,
      "d": 53.571374999999534,
      "v": 87
    },
    {
      "midi": 84,
      "hit": false,
      "t": 181416.48524999717,
      "d": 65.4761249999865,
      "v": 91
    },
    {
      "midi": 93,
      "hit": false,
      "t": 181416.48524999717,
      "d": 65.4761249999865,
      "v": 90
    },
    {
      "midi": 88,
      "hit": false,
      "t": 181416.48524999717,
      "d": 71.42849999997998,
      "v": 90
    },
    {
      "midi": 81,
      "hit": false,
      "t": 181422.43762499717,
      "d": 53.571374999999534,
      "v": 86
    },
    {
      "midi": 76,
      "hit": false,
      "t": 181422.43762499717,
      "d": 59.523749999993015,
      "v": 88
    },
    {
      "midi": 84,
      "hit": false,
      "t": 181797.43724999717,
      "d": 62.499937499989755,
      "v": 91
    },
    {
      "midi": 88,
      "hit": false,
      "t": 181797.43724999717,
      "d": 62.499937499989755,
      "v": 91
    },
    {
      "midi": 93,
      "hit": false,
      "t": 181797.43724999717,
      "d": 62.499937499989755,
      "v": 90
    },
    {
      "midi": 81,
      "hit": false,
      "t": 181803.38962499716,
      "d": 53.571374999999534,
      "v": 87
    },
    {
      "midi": 76,
      "hit": false,
      "t": 181803.38962499716,
      "d": 56.547562499996275,
      "v": 86
    },
    {
      "midi": 84,
      "hit": false,
      "t": 182368.86524999715,
      "d": 62.499937499989755,
      "v": 91
    },
    {
      "midi": 93,
      "hit": false,
      "t": 182368.86524999715,
      "d": 65.4761249999865,
      "v": 90
    },
    {
      "midi": 88,
      "hit": false,
      "t": 182368.86524999715,
      "d": 68.45231249998324,
      "v": 90
    },
    {
      "midi": 81,
      "hit": false,
      "t": 182374.81762499714,
      "d": 56.547562499996275,
      "v": 86
    },
    {
      "midi": 76,
      "hit": false,
      "t": 182374.81762499714,
      "d": 59.523749999993015,
      "v": 86
    },
    {
      "midi": 84,
      "hit": false,
      "t": 182845.05524999712,
      "d": 65.4761249999865,
      "v": 91
    },
    {
      "midi": 88,
      "hit": false,
      "t": 182845.05524999712,
      "d": 65.4761249999865,
      "v": 90
    },
    {
      "midi": 93,
      "hit": false,
      "t": 182845.05524999712,
      "d": 65.4761249999865,
      "v": 89
    },
    {
      "midi": 76,
      "hit": false,
      "t": 182851.00762499712,
      "d": 59.523749999993015,
      "v": 86
    },
    {
      "midi": 81,
      "hit": false,
      "t": 182851.00762499712,
      "d": 59.523749999993015,
      "v": 87
    },
    {
      "midi": 86,
      "hit": false,
      "t": 183226.0072499971,
      "d": 68.45231249998324,
      "v": 92
    },
    {
      "midi": 92,
      "hit": false,
      "t": 183226.0072499971,
      "d": 68.45231249998324,
      "v": 90
    },
    {
      "midi": 95,
      "hit": false,
      "t": 183226.0072499971,
      "d": 68.45231249998324,
      "v": 90
    },
    {
      "midi": 80,
      "hit": false,
      "t": 183231.9596249971,
      "d": 53.571374999999534,
      "v": 87
    },
    {
      "midi": 68,
      "hit": false,
      "t": 183231.9596249971,
      "d": 56.547562499996275,
      "v": 86
    },
    {
      "midi": 76,
      "hit": false,
      "t": 183231.9596249971,
      "d": 59.523749999993015,
      "v": 86
    },
    {
      "midi": 86,
      "hit": false,
      "t": 183702.1972499971,
      "d": 62.499937499989755,
      "v": 92
    },
    {
      "midi": 95,
      "hit": false,
      "t": 183702.1972499971,
      "d": 65.4761249999865,
      "v": 91
    },
    {
      "midi": 92,
      "hit": false,
      "t": 183702.1972499971,
      "d": 71.42849999997998,
      "v": 90
    },
    {
      "midi": 76,
      "hit": false,
      "t": 183708.14962499708,
      "d": 53.571374999999534,
      "v": 87
    },
    {
      "midi": 68,
      "hit": false,
      "t": 183708.14962499708,
      "d": 56.547562499996275,
      "v": 88
    },
    {
      "midi": 80,
      "hit": false,
      "t": 183708.14962499708,
      "d": 56.547562499996275,
      "v": 86
    },
    {
      "midi": 86,
      "hit": false,
      "t": 184083.14924999708,
      "d": 65.4761249999865,
      "v": 90
    },
    {
      "midi": 95,
      "hit": false,
      "t": 184083.14924999708,
      "d": 68.45231249998324,
      "v": 90
    },
    {
      "midi": 92,
      "hit": false,
      "t": 184083.14924999708,
      "d": 71.42849999997998,
      "v": 89
    },
    {
      "midi": 68,
      "hit": false,
      "t": 184089.10162499707,
      "d": 50.595187500002794,
      "v": 87
    },
    {
      "midi": 80,
      "hit": false,
      "t": 184089.10162499707,
      "d": 53.571374999999534,
      "v": 86
    },
    {
      "midi": 76,
      "hit": false,
      "t": 184089.10162499707,
      "d": 56.547562499996275,
      "v": 87
    },
    {
      "midi": 86,
      "hit": false,
      "t": 184654.57724999706,
      "d": 65.4761249999865,
      "v": 91
    },
    {
      "midi": 89,
      "hit": false,
      "t": 184654.57724999706,
      "d": 65.4761249999865,
      "v": 91
    },
    {
      "midi": 93,
      "hit": false,
      "t": 184654.57724999706,
      "d": 74.40468749997672,
      "v": 91
    },
    {
      "midi": 74,
      "hit": false,
      "t": 184660.52962499706,
      "d": 56.547562499996275,
      "v": 86
    },
    {
      "midi": 81,
      "hit": false,
      "t": 184660.52962499706,
      "d": 56.547562499996275,
      "v": 88
    },
    {
      "midi": 86,
      "hit": false,
      "t": 185130.76724999704,
      "d": 68.45231249998324,
      "v": 91
    },
    {
      "midi": 89,
      "hit": false,
      "t": 185130.76724999704,
      "d": 68.45231249998324,
      "v": 90
    },
    {
      "midi": 93,
      "hit": false,
      "t": 185130.76724999704,
      "d": 68.45231249998324,
      "v": 90
    },
    {
      "midi": 81,
      "hit": false,
      "t": 185136.71962499703,
      "d": 56.547562499996275,
      "v": 88
    },
    {
      "midi": 74,
      "hit": false,
      "t": 185136.71962499703,
      "d": 59.523749999993015,
      "v": 86
    },
    {
      "midi": 92,
      "hit": false,
      "t": 185511.71924999703,
      "d": 65.4761249999865,
      "v": 91
    },
    {
      "midi": 86,
      "hit": false,
      "t": 185511.71924999703,
      "d": 68.45231249998324,
      "v": 92
    },
    {
      "midi": 95,
      "hit": false,
      "t": 185511.71924999703,
      "d": 71.42849999997998,
      "v": 91
    },
    {
      "midi": 68,
      "hit": false,
      "t": 185517.67162499702,
      "d": 56.547562499996275,
      "v": 86
    },
    {
      "midi": 76,
      "hit": false,
      "t": 185517.67162499702,
      "d": 59.523749999993015,
      "v": 86
    },
    {
      "midi": 80,
      "hit": false,
      "t": 185517.67162499702,
      "d": 59.523749999993015,
      "v": 86
    },
    {
      "midi": 86,
      "hit": false,
      "t": 185987.909249997,
      "d": 62.499937499989755,
      "v": 90
    },
    {
      "midi": 95,
      "hit": false,
      "t": 185987.909249997,
      "d": 62.499937499989755,
      "v": 92
    },
    {
      "midi": 92,
      "hit": false,
      "t": 185987.909249997,
      "d": 68.45231249998324,
      "v": 92
    },
    {
      "midi": 68,
      "hit": false,
      "t": 185993.861624997,
      "d": 59.523749999993015,
      "v": 87
    },
    {
      "midi": 76,
      "hit": false,
      "t": 185993.861624997,
      "d": 59.523749999993015,
      "v": 88
    },
    {
      "midi": 80,
      "hit": false,
      "t": 185993.861624997,
      "d": 59.523749999993015,
      "v": 86
    },
    {
      "midi": 86,
      "hit": false,
      "t": 186368.861249997,
      "d": 68.45231249998324,
      "v": 92
    },
    {
      "midi": 92,
      "hit": false,
      "t": 186368.861249997,
      "d": 68.45231249998324,
      "v": 91
    },
    {
      "midi": 95,
      "hit": false,
      "t": 186368.861249997,
      "d": 68.45231249998324,
      "v": 91
    },
    {
      "midi": 68,
      "hit": false,
      "t": 186374.81362499698,
      "d": 53.571374999999534,
      "v": 87
    },
    {
      "midi": 76,
      "hit": false,
      "t": 186374.81362499698,
      "d": 59.523749999993015,
      "v": 88
    },
    {
      "midi": 80,
      "hit": false,
      "t": 186374.81362499698,
      "d": 59.523749999993015,
      "v": 87
    },
    {
      "midi": 86,
      "hit": false,
      "t": 186940.28924999697,
      "d": 65.4761249999865,
      "v": 92
    },
    {
      "midi": 89,
      "hit": false,
      "t": 186940.28924999697,
      "d": 71.42849999997998,
      "v": 92
    },
    {
      "midi": 93,
      "hit": false,
      "t": 186940.28924999697,
      "d": 74.40468749997672,
      "v": 91
    },
    {
      "midi": 74,
      "hit": false,
      "t": 186946.24162499697,
      "d": 56.547562499996275,
      "v": 88
    },
    {
      "midi": 81,
      "hit": false,
      "t": 186946.24162499697,
      "d": 59.523749999993015,
      "v": 86
    },
    {
      "midi": 95,
      "hit": false,
      "t": 187416.47924999695,
      "d": 62.499937499989755,
      "v": 90
    },
    {
      "midi": 86,
      "hit": false,
      "t": 187416.47924999695,
      "d": 65.4761249999865,
      "v": 90
    },
    {
      "midi": 92,
      "hit": false,
      "t": 187416.47924999695,
      "d": 68.45231249998324,
      "v": 89
    },
    {
      "midi": 76,
      "hit": false,
      "t": 187422.43162499694,
      "d": 56.547562499996275,
      "v": 87
    },
    {
      "midi": 80,
      "hit": false,
      "t": 187422.43162499694,
      "d": 56.547562499996275,
      "v": 86
    },
    {
      "midi": 68,
      "hit": false,
      "t": 187422.43162499694,
      "d": 59.523749999993015,
      "v": 86
    },
    {
      "midi": 84,
      "hit": false,
      "t": 187797.43124999694,
      "d": 68.45231249998324,
      "v": 91
    },
    {
      "midi": 88,
      "hit": false,
      "t": 187797.43124999694,
      "d": 68.45231249998324,
      "v": 91
    },
    {
      "midi": 93,
      "hit": false,
      "t": 187797.43124999694,
      "d": 68.45231249998324,
      "v": 90
    },
    {
      "midi": 76,
      "hit": false,
      "t": 187803.38362499693,
      "d": 56.547562499996275,
      "v": 87
    },
    {
      "midi": 81,
      "hit": false,
      "t": 187803.38362499693,
      "d": 59.523749999993015,
      "v": 86
    },
    {
      "midi": 93,
      "hit": false,
      "t": 188273.6212499969,
      "d": 62.499937499989755,
      "v": 90
    },
    {
      "midi": 88,
      "hit": false,
      "t": 188273.6212499969,
      "d": 65.4761249999865,
      "v": 92
    },
    {
      "midi": 84,
      "hit": false,
      "t": 188273.6212499969,
      "d": 68.45231249998324,
      "v": 90
    },
    {
      "midi": 76,
      "hit": false,
      "t": 188279.5736249969,
      "d": 56.547562499996275,
      "v": 87
    },
    {
      "midi": 81,
      "hit": false,
      "t": 188279.5736249969,
      "d": 59.523749999993015,
      "v": 87
    },
    {
      "midi": 88,
      "hit": false,
      "t": 189226.0012499969,
      "d": 62.499937499989755,
      "v": 92
    },
    {
      "midi": 93,
      "hit": false,
      "t": 189226.0012499969,
      "d": 62.499937499989755,
      "v": 90
    },
    {
      "midi": 84,
      "hit": false,
      "t": 189226.0012499969,
      "d": 68.45231249998324,
      "v": 90
    },
    {
      "midi": 76,
      "hit": false,
      "t": 189231.95362499688,
      "d": 53.571374999999534,
      "v": 88
    },
    {
      "midi": 81,
      "hit": false,
      "t": 189231.95362499688,
      "d": 56.547562499996275,
      "v": 86
    },
    {
      "midi": 84,
      "hit": false,
      "t": 189702.19124999686,
      "d": 68.45231249998324,
      "v": 90
    },
    {
      "midi": 88,
      "hit": false,
      "t": 189702.19124999686,
      "d": 68.45231249998324,
      "v": 91
    },
    {
      "midi": 93,
      "hit": false,
      "t": 189702.19124999686,
      "d": 68.45231249998324,
      "v": 91
    },
    {
      "midi": 81,
      "hit": false,
      "t": 189708.14362499685,
      "d": 53.571374999999534,
      "v": 88
    },
    {
      "midi": 76,
      "hit": false,
      "t": 189708.14362499685,
      "d": 56.547562499996275,
      "v": 88
    },
    {
      "midi": 84,
      "hit": false,
      "t": 190083.14324999685,
      "d": 62.499937499989755,
      "v": 91
    },
    {
      "midi": 88,
      "hit": false,
      "t": 190083.14324999685,
      "d": 65.4761249999865,
      "v": 90
    },
    {
      "midi": 93,
      "hit": false,
      "t": 190083.14324999685,
      "d": 65.4761249999865,
      "v": 91
    },
    {
      "midi": 76,
      "hit": false,
      "t": 190089.09562499684,
      "d": 53.571374999999534,
      "v": 88
    },
    {
      "midi": 81,
      "hit": false,
      "t": 190089.09562499684,
      "d": 53.571374999999534,
      "v": 87
    },
    {
      "midi": 84,
      "hit": false,
      "t": 190559.33324999682,
      "d": 65.4761249999865,
      "v": 91
    },
    {
      "midi": 93,
      "hit": false,
      "t": 190559.33324999682,
      "d": 65.4761249999865,
      "v": 90
    },
    {
      "midi": 88,
      "hit": false,
      "t": 190559.33324999682,
      "d": 71.42849999997998,
      "v": 90
    },
    {
      "midi": 81,
      "hit": false,
      "t": 190565.28562499682,
      "d": 53.571374999999534,
      "v": 86
    },
    {
      "midi": 76,
      "hit": false,
      "t": 190565.28562499682,
      "d": 59.523749999993015,
      "v": 88
    },
    {
      "midi": 84,
      "hit": false,
      "t": 190940.2852499968,
      "d": 62.499937499989755,
      "v": 91
    },
    {
      "midi": 88,
      "hit": false,
      "t": 190940.2852499968,
      "d": 62.499937499989755,
      "v": 91
    },
    {
      "midi": 93,
      "hit": false,
      "t": 190940.2852499968,
      "d": 62.499937499989755,
      "v": 90
    },
    {
      "midi": 81,
      "hit": false,
      "t": 190946.2376249968,
      "d": 53.571374999999534,
      "v": 87
    },
    {
      "midi": 76,
      "hit": false,
      "t": 190946.2376249968,
      "d": 56.547562499996275,
      "v": 86
    },
    {
      "midi": 84,
      "hit": false,
      "t": 191511.7132499968,
      "d": 62.499937499989755,
      "v": 91
    },
    {
      "midi": 93,
      "hit": false,
      "t": 191511.7132499968,
      "d": 65.4761249999865,
      "v": 90
    },
    {
      "midi": 88,
      "hit": false,
      "t": 191511.7132499968,
      "d": 68.45231249998324,
      "v": 90
    },
    {
      "midi": 81,
      "hit": false,
      "t": 191517.6656249968,
      "d": 56.547562499996275,
      "v": 86
    },
    {
      "midi": 76,
      "hit": false,
      "t": 191517.6656249968,
      "d": 59.523749999993015,
      "v": 86
    },
    {
      "midi": 84,
      "hit": false,
      "t": 191987.90324999677,
      "d": 65.4761249999865,
      "v": 91
    },
    {
      "midi": 88,
      "hit": false,
      "t": 191987.90324999677,
      "d": 65.4761249999865,
      "v": 90
    },
    {
      "midi": 93,
      "hit": false,
      "t": 191987.90324999677,
      "d": 65.4761249999865,
      "v": 89
    },
    {
      "midi": 76,
      "hit": false,
      "t": 191993.85562499677,
      "d": 59.523749999993015,
      "v": 86
    },
    {
      "midi": 81,
      "hit": false,
      "t": 191993.85562499677,
      "d": 59.523749999993015,
      "v": 87
    },
    {
      "midi": 86,
      "hit": false,
      "t": 192368.85524999676,
      "d": 68.45231249998324,
      "v": 92
    },
    {
      "midi": 92,
      "hit": false,
      "t": 192368.85524999676,
      "d": 68.45231249998324,
      "v": 90
    },
    {
      "midi": 95,
      "hit": false,
      "t": 192368.85524999676,
      "d": 68.45231249998324,
      "v": 90
    },
    {
      "midi": 80,
      "hit": false,
      "t": 192374.80762499676,
      "d": 53.571374999999534,
      "v": 87
    },
    {
      "midi": 68,
      "hit": false,
      "t": 192374.80762499676,
      "d": 56.547562499996275,
      "v": 86
    },
    {
      "midi": 76,
      "hit": false,
      "t": 192374.80762499676,
      "d": 59.523749999993015,
      "v": 86
    },
    {
      "midi": 86,
      "hit": false,
      "t": 192845.04524999674,
      "d": 62.499937499989755,
      "v": 92
    },
    {
      "midi": 95,
      "hit": false,
      "t": 192845.04524999674,
      "d": 65.4761249999865,
      "v": 91
    },
    {
      "midi": 92,
      "hit": false,
      "t": 192845.04524999674,
      "d": 71.42849999997998,
      "v": 90
    },
    {
      "midi": 76,
      "hit": false,
      "t": 192850.99762499673,
      "d": 53.571374999999534,
      "v": 87
    },
    {
      "midi": 68,
      "hit": false,
      "t": 192850.99762499673,
      "d": 56.547562499996275,
      "v": 88
    },
    {
      "midi": 80,
      "hit": false,
      "t": 192850.99762499673,
      "d": 56.547562499996275,
      "v": 86
    },
    {
      "midi": 86,
      "hit": false,
      "t": 193225.99724999673,
      "d": 65.4761249999865,
      "v": 90
    },
    {
      "midi": 95,
      "hit": false,
      "t": 193225.99724999673,
      "d": 68.45231249998324,
      "v": 90
    },
    {
      "midi": 92,
      "hit": false,
      "t": 193225.99724999673,
      "d": 71.42849999997998,
      "v": 89
    },
    {
      "midi": 68,
      "hit": false,
      "t": 193231.94962499672,
      "d": 50.595187500002794,
      "v": 87
    },
    {
      "midi": 80,
      "hit": false,
      "t": 193231.94962499672,
      "d": 53.571374999999534,
      "v": 86
    },
    {
      "midi": 76,
      "hit": false,
      "t": 193231.94962499672,
      "d": 56.547562499996275,
      "v": 87
    },
    {
      "midi": 86,
      "hit": false,
      "t": 193797.4252499967,
      "d": 65.4761249999865,
      "v": 91
    },
    {
      "midi": 89,
      "hit": false,
      "t": 193797.4252499967,
      "d": 65.4761249999865,
      "v": 91
    },
    {
      "midi": 93,
      "hit": false,
      "t": 193797.4252499967,
      "d": 74.40468749997672,
      "v": 91
    },
    {
      "midi": 74,
      "hit": false,
      "t": 193803.3776249967,
      "d": 56.547562499996275,
      "v": 86
    },
    {
      "midi": 81,
      "hit": false,
      "t": 193803.3776249967,
      "d": 56.547562499996275,
      "v": 88
    },
    {
      "midi": 86,
      "hit": false,
      "t": 194273.61524999668,
      "d": 68.45231249998324,
      "v": 91
    },
    {
      "midi": 89,
      "hit": false,
      "t": 194273.61524999668,
      "d": 68.45231249998324,
      "v": 90
    },
    {
      "midi": 93,
      "hit": false,
      "t": 194273.61524999668,
      "d": 68.45231249998324,
      "v": 90
    },
    {
      "midi": 81,
      "hit": false,
      "t": 194279.56762499668,
      "d": 56.547562499996275,
      "v": 88
    },
    {
      "midi": 74,
      "hit": false,
      "t": 194279.56762499668,
      "d": 59.523749999993015,
      "v": 86
    },
    {
      "midi": 92,
      "hit": false,
      "t": 194654.56724999667,
      "d": 65.4761249999865,
      "v": 91
    },
    {
      "midi": 86,
      "hit": false,
      "t": 194654.56724999667,
      "d": 68.45231249998324,
      "v": 92
    },
    {
      "midi": 95,
      "hit": false,
      "t": 194654.56724999667,
      "d": 71.42849999997998,
      "v": 91
    },
    {
      "midi": 68,
      "hit": false,
      "t": 194660.51962499667,
      "d": 56.547562499996275,
      "v": 86
    },
    {
      "midi": 76,
      "hit": false,
      "t": 194660.51962499667,
      "d": 59.523749999993015,
      "v": 86
    },
    {
      "midi": 80,
      "hit": false,
      "t": 194660.51962499667,
      "d": 59.523749999993015,
      "v": 86
    },
    {
      "midi": 86,
      "hit": false,
      "t": 195130.75724999665,
      "d": 62.499937499989755,
      "v": 90
    },
    {
      "midi": 95,
      "hit": false,
      "t": 195130.75724999665,
      "d": 62.499937499989755,
      "v": 92
    },
    {
      "midi": 92,
      "hit": false,
      "t": 195130.75724999665,
      "d": 68.45231249998324,
      "v": 92
    },
    {
      "midi": 68,
      "hit": false,
      "t": 195136.70962499664,
      "d": 59.523749999993015,
      "v": 87
    },
    {
      "midi": 76,
      "hit": false,
      "t": 195136.70962499664,
      "d": 59.523749999993015,
      "v": 88
    },
    {
      "midi": 80,
      "hit": false,
      "t": 195136.70962499664,
      "d": 59.523749999993015,
      "v": 86
    },
    {
      "midi": 86,
      "hit": false,
      "t": 195511.70924999664,
      "d": 68.45231249998324,
      "v": 92
    },
    {
      "midi": 92,
      "hit": false,
      "t": 195511.70924999664,
      "d": 68.45231249998324,
      "v": 91
    },
    {
      "midi": 95,
      "hit": false,
      "t": 195511.70924999664,
      "d": 68.45231249998324,
      "v": 91
    },
    {
      "midi": 68,
      "hit": false,
      "t": 195517.66162499663,
      "d": 53.571374999999534,
      "v": 87
    },
    {
      "midi": 76,
      "hit": false,
      "t": 195517.66162499663,
      "d": 59.523749999993015,
      "v": 88
    },
    {
      "midi": 80,
      "hit": false,
      "t": 195517.66162499663,
      "d": 59.523749999993015,
      "v": 87
    },
    {
      "midi": 86,
      "hit": false,
      "t": 196083.13724999662,
      "d": 65.4761249999865,
      "v": 92
    },
    {
      "midi": 89,
      "hit": false,
      "t": 196083.13724999662,
      "d": 71.42849999997998,
      "v": 92
    },
    {
      "midi": 93,
      "hit": false,
      "t": 196083.13724999662,
      "d": 74.40468749997672,
      "v": 91
    },
    {
      "midi": 74,
      "hit": false,
      "t": 196089.08962499662,
      "d": 56.547562499996275,
      "v": 88
    },
    {
      "midi": 81,
      "hit": false,
      "t": 196089.08962499662,
      "d": 59.523749999993015,
      "v": 86
    },
    {
      "midi": 95,
      "hit": false,
      "t": 196559.3272499966,
      "d": 62.499937499989755,
      "v": 90
    },
    {
      "midi": 86,
      "hit": false,
      "t": 196559.3272499966,
      "d": 65.4761249999865,
      "v": 90
    },
    {
      "midi": 92,
      "hit": false,
      "t": 196559.3272499966,
      "d": 68.45231249998324,
      "v": 89
    },
    {
      "midi": 76,
      "hit": false,
      "t": 196565.2796249966,
      "d": 56.547562499996275,
      "v": 87
    },
    {
      "midi": 80,
      "hit": false,
      "t": 196565.2796249966,
      "d": 56.547562499996275,
      "v": 86
    },
    {
      "midi": 68,
      "hit": false,
      "t": 196565.2796249966,
      "d": 59.523749999993015,
      "v": 86
    },
    {
      "midi": 84,
      "hit": false,
      "t": 196940.2792499966,
      "d": 68.45231249998324,
      "v": 91
    },
    {
      "midi": 88,
      "hit": false,
      "t": 196940.2792499966,
      "d": 68.45231249998324,
      "v": 91
    },
    {
      "midi": 93,
      "hit": false,
      "t": 196940.2792499966,
      "d": 68.45231249998324,
      "v": 90
    },
    {
      "midi": 76,
      "hit": false,
      "t": 196946.23162499658,
      "d": 56.547562499996275,
      "v": 87
    },
    {
      "midi": 81,
      "hit": false,
      "t": 196946.23162499658,
      "d": 59.523749999993015,
      "v": 86
    },
    {
      "midi": 93,
      "hit": false,
      "t": 197416.46924999656,
      "d": 62.499937499989755,
      "v": 90
    },
    {
      "midi": 88,
      "hit": false,
      "t": 197416.46924999656,
      "d": 65.4761249999865,
      "v": 92
    },
    {
      "midi": 84,
      "hit": false,
      "t": 197416.46924999656,
      "d": 68.45231249998324,
      "v": 90
    },
    {
      "midi": 76,
      "hit": false,
      "t": 197422.42162499655,
      "d": 56.547562499996275,
      "v": 87
    },
    {
      "midi": 81,
      "hit": false,
      "t": 197422.42162499655,
      "d": 59.523749999993015,
      "v": 87
    },
    {
      "midi": 84,
      "hit": false,
      "t": 197797.42124999655,
      "d": 65.4761249999865,
      "v": 92
    },
    {
      "midi": 93,
      "hit": false,
      "t": 197797.42124999655,
      "d": 68.45231249998324,
      "v": 90
    },
    {
      "midi": 88,
      "hit": false,
      "t": 197797.42124999655,
      "d": 74.40468749997672,
      "v": 90
    },
    {
      "midi": 76,
      "hit": false,
      "t": 197803.37362499654,
      "d": 56.547562499996275,
      "v": 86
    },
    {
      "midi": 81,
      "hit": false,
      "t": 197803.37362499654,
      "d": 56.547562499996275,
      "v": 86
    },
    {
      "midi": 88,
      "hit": false,
      "t": 198368.84924999654,
      "d": 62.499937499989755,
      "v": 92
    },
    {
      "midi": 93,
      "hit": false,
      "t": 198368.84924999654,
      "d": 62.499937499989755,
      "v": 90
    },
    {
      "midi": 84,
      "hit": false,
      "t": 198368.84924999654,
      "d": 68.45231249998324,
      "v": 90
    },
    {
      "midi": 76,
      "hit": false,
      "t": 198374.80162499653,
      "d": 53.571374999999534,
      "v": 88
    },
    {
      "midi": 81,
      "hit": false,
      "t": 198374.80162499653,
      "d": 56.547562499996275,
      "v": 86
    },
    {
      "midi": 84,
      "hit": false,
      "t": 198845.0392499965,
      "d": 68.45231249998324,
      "v": 90
    },
    {
      "midi": 88,
      "hit": false,
      "t": 198845.0392499965,
      "d": 68.45231249998324,
      "v": 91
    },
    {
      "midi": 93,
      "hit": false,
      "t": 198845.0392499965,
      "d": 68.45231249998324,
      "v": 91
    },
    {
      "midi": 81,
      "hit": false,
      "t": 198850.9916249965,
      "d": 53.571374999999534,
      "v": 88
    },
    {
      "midi": 76,
      "hit": false,
      "t": 198850.9916249965,
      "d": 56.547562499996275,
      "v": 88
    },
    {
      "midi": 84,
      "hit": false,
      "t": 199225.9912499965,
      "d": 62.499937499989755,
      "v": 91
    },
    {
      "midi": 88,
      "hit": false,
      "t": 199225.9912499965,
      "d": 65.4761249999865,
      "v": 90
    },
    {
      "midi": 93,
      "hit": false,
      "t": 199225.9912499965,
      "d": 65.4761249999865,
      "v": 91
    },
    {
      "midi": 76,
      "hit": false,
      "t": 199231.9436249965,
      "d": 53.571374999999534,
      "v": 88
    },
    {
      "midi": 81,
      "hit": false,
      "t": 199231.9436249965,
      "d": 53.571374999999534,
      "v": 87
    },
    {
      "midi": 84,
      "hit": false,
      "t": 199702.18124999647,
      "d": 65.4761249999865,
      "v": 91
    },
    {
      "midi": 93,
      "hit": false,
      "t": 199702.18124999647,
      "d": 65.4761249999865,
      "v": 90
    },
    {
      "midi": 88,
      "hit": false,
      "t": 199702.18124999647,
      "d": 71.42849999997998,
      "v": 90
    },
    {
      "midi": 81,
      "hit": false,
      "t": 199708.13362499647,
      "d": 53.571374999999534,
      "v": 86
    },
    {
      "midi": 76,
      "hit": false,
      "t": 199708.13362499647,
      "d": 59.523749999993015,
      "v": 88
    },
    {
      "midi": 84,
      "hit": false,
      "t": 200083.13324999646,
      "d": 62.499937499989755,
      "v": 91
    },
    {
      "midi": 88,
      "hit": false,
      "t": 200083.13324999646,
      "d": 62.499937499989755,
      "v": 91
    },
    {
      "midi": 93,
      "hit": false,
      "t": 200083.13324999646,
      "d": 62.499937499989755,
      "v": 90
    },
    {
      "midi": 81,
      "hit": false,
      "t": 200089.08562499646,
      "d": 53.571374999999534,
      "v": 87
    },
    {
      "midi": 76,
      "hit": false,
      "t": 200089.08562499646,
      "d": 56.547562499996275,
      "v": 86
    },
    {
      "midi": 84,
      "hit": false,
      "t": 200654.56124999645,
      "d": 62.499937499989755,
      "v": 91
    },
    {
      "midi": 93,
      "hit": false,
      "t": 200654.56124999645,
      "d": 65.4761249999865,
      "v": 90
    },
    {
      "midi": 88,
      "hit": false,
      "t": 200654.56124999645,
      "d": 68.45231249998324,
      "v": 90
    },
    {
      "midi": 81,
      "hit": false,
      "t": 200660.51362499644,
      "d": 56.547562499996275,
      "v": 86
    },
    {
      "midi": 76,
      "hit": false,
      "t": 200660.51362499644,
      "d": 59.523749999993015,
      "v": 86
    },
    {
      "midi": 84,
      "hit": false,
      "t": 201130.75124999642,
      "d": 65.4761249999865,
      "v": 91
    },
    {
      "midi": 88,
      "hit": false,
      "t": 201130.75124999642,
      "d": 65.4761249999865,
      "v": 90
    },
    {
      "midi": 93,
      "hit": false,
      "t": 201130.75124999642,
      "d": 65.4761249999865,
      "v": 89
    },
    {
      "midi": 76,
      "hit": false,
      "t": 201136.70362499641,
      "d": 59.523749999993015,
      "v": 86
    },
    {
      "midi": 81,
      "hit": false,
      "t": 201136.70362499641,
      "d": 59.523749999993015,
      "v": 87
    },
    {
      "midi": 86,
      "hit": false,
      "t": 201511.7032499964,
      "d": 68.45231249998324,
      "v": 92
    },
    {
      "midi": 92,
      "hit": false,
      "t": 201511.7032499964,
      "d": 68.45231249998324,
      "v": 90
    },
    {
      "midi": 95,
      "hit": false,
      "t": 201511.7032499964,
      "d": 68.45231249998324,
      "v": 90
    },
    {
      "midi": 80,
      "hit": false,
      "t": 201517.6556249964,
      "d": 53.571374999999534,
      "v": 87
    },
    {
      "midi": 68,
      "hit": false,
      "t": 201517.6556249964,
      "d": 56.547562499996275,
      "v": 86
    },
    {
      "midi": 76,
      "hit": false,
      "t": 201517.6556249964,
      "d": 59.523749999993015,
      "v": 86
    },
    {
      "midi": 86,
      "hit": false,
      "t": 201987.89324999638,
      "d": 62.499937499989755,
      "v": 92
    },
    {
      "midi": 95,
      "hit": false,
      "t": 201987.89324999638,
      "d": 65.4761249999865,
      "v": 91
    },
    {
      "midi": 92,
      "hit": false,
      "t": 201987.89324999638,
      "d": 71.42849999997998,
      "v": 90
    },
    {
      "midi": 76,
      "hit": false,
      "t": 201993.84562499638,
      "d": 53.571374999999534,
      "v": 87
    },
    {
      "midi": 68,
      "hit": false,
      "t": 201993.84562499638,
      "d": 56.547562499996275,
      "v": 88
    },
    {
      "midi": 80,
      "hit": false,
      "t": 201993.84562499638,
      "d": 56.547562499996275,
      "v": 86
    },
    {
      "midi": 86,
      "hit": false,
      "t": 202368.84524999638,
      "d": 65.4761249999865,
      "v": 90
    },
    {
      "midi": 95,
      "hit": false,
      "t": 202368.84524999638,
      "d": 68.45231249998324,
      "v": 90
    },
    {
      "midi": 92,
      "hit": false,
      "t": 202368.84524999638,
      "d": 71.42849999997998,
      "v": 89
    },
    {
      "midi": 68,
      "hit": false,
      "t": 202374.79762499637,
      "d": 50.595187500002794,
      "v": 87
    },
    {
      "midi": 80,
      "hit": false,
      "t": 202374.79762499637,
      "d": 53.571374999999534,
      "v": 86
    },
    {
      "midi": 76,
      "hit": false,
      "t": 202374.79762499637,
      "d": 56.547562499996275,
      "v": 87
    },
    {
      "midi": 86,
      "hit": false,
      "t": 202940.27324999636,
      "d": 65.4761249999865,
      "v": 91
    },
    {
      "midi": 89,
      "hit": false,
      "t": 202940.27324999636,
      "d": 65.4761249999865,
      "v": 91
    },
    {
      "midi": 93,
      "hit": false,
      "t": 202940.27324999636,
      "d": 74.40468749997672,
      "v": 91
    },
    {
      "midi": 74,
      "hit": false,
      "t": 202946.22562499635,
      "d": 56.547562499996275,
      "v": 86
    },
    {
      "midi": 81,
      "hit": false,
      "t": 202946.22562499635,
      "d": 56.547562499996275,
      "v": 88
    },
    {
      "midi": 86,
      "hit": false,
      "t": 203416.46324999633,
      "d": 68.45231249998324,
      "v": 91
    },
    {
      "midi": 89,
      "hit": false,
      "t": 203416.46324999633,
      "d": 68.45231249998324,
      "v": 90
    },
    {
      "midi": 93,
      "hit": false,
      "t": 203416.46324999633,
      "d": 68.45231249998324,
      "v": 90
    },
    {
      "midi": 81,
      "hit": false,
      "t": 203422.41562499633,
      "d": 56.547562499996275,
      "v": 88
    },
    {
      "midi": 74,
      "hit": false,
      "t": 203422.41562499633,
      "d": 59.523749999993015,
      "v": 86
    },
    {
      "midi": 92,
      "hit": false,
      "t": 203797.41524999632,
      "d": 65.4761249999865,
      "v": 91
    },
    {
      "midi": 86,
      "hit": false,
      "t": 203797.41524999632,
      "d": 68.45231249998324,
      "v": 92
    },
    {
      "midi": 95,
      "hit": false,
      "t": 203797.41524999632,
      "d": 71.42849999997998,
      "v": 91
    },
    {
      "midi": 68,
      "hit": false,
      "t": 203803.36762499632,
      "d": 56.547562499996275,
      "v": 86
    },
    {
      "midi": 76,
      "hit": false,
      "t": 203803.36762499632,
      "d": 59.523749999993015,
      "v": 86
    },
    {
      "midi": 80,
      "hit": false,
      "t": 203803.36762499632,
      "d": 59.523749999993015,
      "v": 86
    },
    {
      "midi": 86,
      "hit": false,
      "t": 204273.6052499963,
      "d": 62.499937499989755,
      "v": 90
    },
    {
      "midi": 95,
      "hit": false,
      "t": 204273.6052499963,
      "d": 62.499937499989755,
      "v": 92
    },
    {
      "midi": 92,
      "hit": false,
      "t": 204273.6052499963,
      "d": 68.45231249998324,
      "v": 92
    },
    {
      "midi": 68,
      "hit": false,
      "t": 204279.5576249963,
      "d": 59.523749999993015,
      "v": 87
    },
    {
      "midi": 76,
      "hit": false,
      "t": 204279.5576249963,
      "d": 59.523749999993015,
      "v": 88
    },
    {
      "midi": 80,
      "hit": false,
      "t": 204279.5576249963,
      "d": 59.523749999993015,
      "v": 86
    },
    {
      "midi": 86,
      "hit": false,
      "t": 204654.5572499963,
      "d": 68.45231249998324,
      "v": 92
    },
    {
      "midi": 92,
      "hit": false,
      "t": 204654.5572499963,
      "d": 68.45231249998324,
      "v": 91
    },
    {
      "midi": 95,
      "hit": false,
      "t": 204654.5572499963,
      "d": 68.45231249998324,
      "v": 91
    },
    {
      "midi": 68,
      "hit": false,
      "t": 204660.50962499628,
      "d": 53.571374999999534,
      "v": 87
    },
    {
      "midi": 76,
      "hit": false,
      "t": 204660.50962499628,
      "d": 59.523749999993015,
      "v": 88
    },
    {
      "midi": 80,
      "hit": false,
      "t": 204660.50962499628,
      "d": 59.523749999993015,
      "v": 87
    },
    {
      "midi": 86,
      "hit": false,
      "t": 205225.98524999627,
      "d": 65.4761249999865,
      "v": 92
    },
    {
      "midi": 89,
      "hit": false,
      "t": 205225.98524999627,
      "d": 71.42849999997998,
      "v": 92
    },
    {
      "midi": 93,
      "hit": false,
      "t": 205225.98524999627,
      "d": 74.40468749997672,
      "v": 91
    },
    {
      "midi": 74,
      "hit": false,
      "t": 205231.93762499627,
      "d": 56.547562499996275,
      "v": 88
    },
    {
      "midi": 81,
      "hit": false,
      "t": 205231.93762499627,
      "d": 59.523749999993015,
      "v": 86
    },
    {
      "midi": 95,
      "hit": false,
      "t": 205702.17524999625,
      "d": 62.499937499989755,
      "v": 90
    },
    {
      "midi": 86,
      "hit": false,
      "t": 205702.17524999625,
      "d": 65.4761249999865,
      "v": 90
    },
    {
      "midi": 92,
      "hit": false,
      "t": 205702.17524999625,
      "d": 68.45231249998324,
      "v": 89
    },
    {
      "midi": 76,
      "hit": false,
      "t": 205708.12762499624,
      "d": 56.547562499996275,
      "v": 87
    },
    {
      "midi": 80,
      "hit": false,
      "t": 205708.12762499624,
      "d": 56.547562499996275,
      "v": 86
    },
    {
      "midi": 68,
      "hit": false,
      "t": 205708.12762499624,
      "d": 59.523749999993015,
      "v": 86
    },
    {
      "midi": 84,
      "hit": false,
      "t": 206083.12724999624,
      "d": 68.45231249998324,
      "v": 91
    },
    {
      "midi": 88,
      "hit": false,
      "t": 206083.12724999624,
      "d": 68.45231249998324,
      "v": 91
    },
    {
      "midi": 93,
      "hit": false,
      "t": 206083.12724999624,
      "d": 68.45231249998324,
      "v": 90
    },
    {
      "midi": 76,
      "hit": false,
      "t": 206089.07962499623,
      "d": 56.547562499996275,
      "v": 87
    },
    {
      "midi": 81,
      "hit": false,
      "t": 206089.07962499623,
      "d": 59.523749999993015,
      "v": 86
    },
    {
      "midi": 93,
      "hit": false,
      "t": 206559.3172499962,
      "d": 62.499937499989755,
      "v": 90
    },
    {
      "midi": 88,
      "hit": false,
      "t": 206559.3172499962,
      "d": 65.4761249999865,
      "v": 92
    },
    {
      "midi": 84,
      "hit": false,
      "t": 206559.3172499962,
      "d": 68.45231249998324,
      "v": 90
    },
    {
      "midi": 76,
      "hit": false,
      "t": 206565.2696249962,
      "d": 56.547562499996275,
      "v": 87
    },
    {
      "midi": 81,
      "hit": false,
      "t": 206565.2696249962,
      "d": 59.523749999993015,
      "v": 87
    },
    {
      "midi": 88,
      "hit": false,
      "t": 207511.69724999618,
      "d": 62.499937499989755,
      "v": 92
    },
    {
      "midi": 93,
      "hit": false,
      "t": 207511.69724999618,
      "d": 62.499937499989755,
      "v": 90
    },
    {
      "midi": 84,
      "hit": false,
      "t": 207511.69724999618,
      "d": 68.45231249998324,
      "v": 90
    },
    {
      "midi": 76,
      "hit": false,
      "t": 207517.64962499618,
      "d": 53.571374999999534,
      "v": 88
    },
    {
      "midi": 81,
      "hit": false,
      "t": 207517.64962499618,
      "d": 56.547562499996275,
      "v": 86
    },
    {
      "midi": 84,
      "hit": false,
      "t": 207987.88724999616,
      "d": 68.45231249998324,
      "v": 90
    },
    {
      "midi": 88,
      "hit": false,
      "t": 207987.88724999616,
      "d": 68.45231249998324,
      "v": 91
    },
    {
      "midi": 93,
      "hit": false,
      "t": 207987.88724999616,
      "d": 68.45231249998324,
      "v": 91
    },
    {
      "midi": 81,
      "hit": false,
      "t": 207993.83962499615,
      "d": 53.571374999999534,
      "v": 88
    },
    {
      "midi": 76,
      "hit": false,
      "t": 207993.83962499615,
      "d": 56.547562499996275,
      "v": 88
    },
    {
      "midi": 84,
      "hit": false,
      "t": 208368.83924999615,
      "d": 62.499937499989755,
      "v": 91
    },
    {
      "midi": 88,
      "hit": false,
      "t": 208368.83924999615,
      "d": 65.4761249999865,
      "v": 90
    },
    {
      "midi": 93,
      "hit": false,
      "t": 208368.83924999615,
      "d": 65.4761249999865,
      "v": 91
    },
    {
      "midi": 76,
      "hit": false,
      "t": 208374.79162499614,
      "d": 53.571374999999534,
      "v": 88
    },
    {
      "midi": 81,
      "hit": false,
      "t": 208374.79162499614,
      "d": 53.571374999999534,
      "v": 87
    },
    {
      "midi": 84,
      "hit": false,
      "t": 208845.02924999612,
      "d": 65.4761249999865,
      "v": 91
    },
    {
      "midi": 93,
      "hit": false,
      "t": 208845.02924999612,
      "d": 65.4761249999865,
      "v": 90
    },
    {
      "midi": 88,
      "hit": false,
      "t": 208845.02924999612,
      "d": 71.42849999997998,
      "v": 90
    },
    {
      "midi": 81,
      "hit": false,
      "t": 208850.98162499611,
      "d": 53.571374999999534,
      "v": 86
    },
    {
      "midi": 76,
      "hit": false,
      "t": 208850.98162499611,
      "d": 59.523749999993015,
      "v": 88
    },
    {
      "midi": 84,
      "hit": false,
      "t": 209225.9812499961,
      "d": 62.499937499989755,
      "v": 91
    },
    {
      "midi": 88,
      "hit": false,
      "t": 209225.9812499961,
      "d": 62.499937499989755,
      "v": 91
    },
    {
      "midi": 93,
      "hit": false,
      "t": 209225.9812499961,
      "d": 62.499937499989755,
      "v": 90
    },
    {
      "midi": 81,
      "hit": false,
      "t": 209231.9336249961,
      "d": 53.571374999999534,
      "v": 87
    },
    {
      "midi": 76,
      "hit": false,
      "t": 209231.9336249961,
      "d": 56.547562499996275,
      "v": 86
    },
    {
      "midi": 84,
      "hit": false,
      "t": 209797.4092499961,
      "d": 62.499937499989755,
      "v": 91
    },
    {
      "midi": 93,
      "hit": false,
      "t": 209797.4092499961,
      "d": 65.4761249999865,
      "v": 90
    },
    {
      "midi": 88,
      "hit": false,
      "t": 209797.4092499961,
      "d": 68.45231249998324,
      "v": 90
    },
    {
      "midi": 81,
      "hit": false,
      "t": 209803.3616249961,
      "d": 56.547562499996275,
      "v": 86
    },
    {
      "midi": 76,
      "hit": false,
      "t": 209803.3616249961,
      "d": 59.523749999993015,
      "v": 86
    },
    {
      "midi": 84,
      "hit": false,
      "t": 210273.59924999607,
      "d": 65.4761249999865,
      "v": 91
    },
    {
      "midi": 88,
      "hit": false,
      "t": 210273.59924999607,
      "d": 65.4761249999865,
      "v": 90
    },
    {
      "midi": 93,
      "hit": false,
      "t": 210273.59924999607,
      "d": 65.4761249999865,
      "v": 89
    },
    {
      "midi": 76,
      "hit": false,
      "t": 210279.55162499606,
      "d": 59.523749999993015,
      "v": 86
    },
    {
      "midi": 81,
      "hit": false,
      "t": 210279.55162499606,
      "d": 59.523749999993015,
      "v": 87
    },
    {
      "midi": 86,
      "hit": false,
      "t": 210654.55124999606,
      "d": 68.45231249998324,
      "v": 92
    },
    {
      "midi": 92,
      "hit": false,
      "t": 210654.55124999606,
      "d": 68.45231249998324,
      "v": 90
    },
    {
      "midi": 95,
      "hit": false,
      "t": 210654.55124999606,
      "d": 68.45231249998324,
      "v": 90
    },
    {
      "midi": 80,
      "hit": false,
      "t": 210660.50362499605,
      "d": 53.571374999999534,
      "v": 87
    },
    {
      "midi": 68,
      "hit": false,
      "t": 210660.50362499605,
      "d": 56.547562499996275,
      "v": 86
    },
    {
      "midi": 76,
      "hit": false,
      "t": 210660.50362499605,
      "d": 59.523749999993015,
      "v": 86
    },
    {
      "midi": 86,
      "hit": false,
      "t": 211130.74124999603,
      "d": 62.499937499989755,
      "v": 92
    },
    {
      "midi": 95,
      "hit": false,
      "t": 211130.74124999603,
      "d": 65.4761249999865,
      "v": 91
    },
    {
      "midi": 92,
      "hit": false,
      "t": 211130.74124999603,
      "d": 71.42849999997998,
      "v": 90
    },
    {
      "midi": 76,
      "hit": false,
      "t": 211136.69362499603,
      "d": 53.571374999999534,
      "v": 87
    },
    {
      "midi": 68,
      "hit": false,
      "t": 211136.69362499603,
      "d": 56.547562499996275,
      "v": 88
    },
    {
      "midi": 80,
      "hit": false,
      "t": 211136.69362499603,
      "d": 56.547562499996275,
      "v": 86
    },
    {
      "midi": 86,
      "hit": false,
      "t": 211511.69324999602,
      "d": 65.4761249999865,
      "v": 90
    },
    {
      "midi": 95,
      "hit": false,
      "t": 211511.69324999602,
      "d": 68.45231249998324,
      "v": 90
    },
    {
      "midi": 92,
      "hit": false,
      "t": 211511.69324999602,
      "d": 71.42849999997998,
      "v": 89
    },
    {
      "midi": 68,
      "hit": false,
      "t": 211517.64562499602,
      "d": 50.595187500002794,
      "v": 87
    },
    {
      "midi": 80,
      "hit": false,
      "t": 211517.64562499602,
      "d": 53.571374999999534,
      "v": 86
    },
    {
      "midi": 76,
      "hit": false,
      "t": 211517.64562499602,
      "d": 56.547562499996275,
      "v": 87
    },
    {
      "midi": 86,
      "hit": false,
      "t": 212083.121249996,
      "d": 65.4761249999865,
      "v": 91
    },
    {
      "midi": 89,
      "hit": false,
      "t": 212083.121249996,
      "d": 65.4761249999865,
      "v": 91
    },
    {
      "midi": 93,
      "hit": false,
      "t": 212083.121249996,
      "d": 74.40468749997672,
      "v": 91
    },
    {
      "midi": 74,
      "hit": false,
      "t": 212089.073624996,
      "d": 56.547562499996275,
      "v": 86
    },
    {
      "midi": 81,
      "hit": false,
      "t": 212089.073624996,
      "d": 56.547562499996275,
      "v": 88
    },
    {
      "midi": 86,
      "hit": false,
      "t": 212559.31124999598,
      "d": 68.45231249998324,
      "v": 91
    },
    {
      "midi": 89,
      "hit": false,
      "t": 212559.31124999598,
      "d": 68.45231249998324,
      "v": 90
    },
    {
      "midi": 93,
      "hit": false,
      "t": 212559.31124999598,
      "d": 68.45231249998324,
      "v": 90
    },
    {
      "midi": 81,
      "hit": false,
      "t": 212565.26362499598,
      "d": 56.547562499996275,
      "v": 88
    },
    {
      "midi": 74,
      "hit": false,
      "t": 212565.26362499598,
      "d": 59.523749999993015,
      "v": 86
    },
    {
      "midi": 92,
      "hit": false,
      "t": 212940.26324999597,
      "d": 65.4761249999865,
      "v": 91
    },
    {
      "midi": 86,
      "hit": false,
      "t": 212940.26324999597,
      "d": 68.45231249998324,
      "v": 92
    },
    {
      "midi": 95,
      "hit": false,
      "t": 212940.26324999597,
      "d": 71.42849999997998,
      "v": 91
    },
    {
      "midi": 68,
      "hit": false,
      "t": 212946.21562499597,
      "d": 56.547562499996275,
      "v": 86
    },
    {
      "midi": 76,
      "hit": false,
      "t": 212946.21562499597,
      "d": 59.523749999993015,
      "v": 86
    },
    {
      "midi": 80,
      "hit": false,
      "t": 212946.21562499597,
      "d": 59.523749999993015,
      "v": 86
    },
    {
      "midi": 86,
      "hit": false,
      "t": 213416.45324999595,
      "d": 62.499937499989755,
      "v": 90
    },
    {
      "midi": 95,
      "hit": false,
      "t": 213416.45324999595,
      "d": 62.499937499989755,
      "v": 92
    },
    {
      "midi": 92,
      "hit": false,
      "t": 213416.45324999595,
      "d": 68.45231249998324,
      "v": 92
    },
    {
      "midi": 68,
      "hit": false,
      "t": 213422.40562499594,
      "d": 59.523749999993015,
      "v": 87
    },
    {
      "midi": 76,
      "hit": false,
      "t": 213422.40562499594,
      "d": 59.523749999993015,
      "v": 88
    },
    {
      "midi": 80,
      "hit": false,
      "t": 213422.40562499594,
      "d": 59.523749999993015,
      "v": 86
    },
    {
      "midi": 86,
      "hit": false,
      "t": 213797.40524999594,
      "d": 68.45231249998324,
      "v": 92
    },
    {
      "midi": 92,
      "hit": false,
      "t": 213797.40524999594,
      "d": 68.45231249998324,
      "v": 91
    },
    {
      "midi": 95,
      "hit": false,
      "t": 213797.40524999594,
      "d": 68.45231249998324,
      "v": 91
    },
    {
      "midi": 68,
      "hit": false,
      "t": 213803.35762499593,
      "d": 53.571374999999534,
      "v": 87
    },
    {
      "midi": 76,
      "hit": false,
      "t": 213803.35762499593,
      "d": 59.523749999993015,
      "v": 88
    },
    {
      "midi": 80,
      "hit": false,
      "t": 213803.35762499593,
      "d": 59.523749999993015,
      "v": 87
    },
    {
      "midi": 86,
      "hit": false,
      "t": 214368.83324999592,
      "d": 65.4761249999865,
      "v": 92
    },
    {
      "midi": 89,
      "hit": false,
      "t": 214368.83324999592,
      "d": 71.42849999997998,
      "v": 92
    },
    {
      "midi": 93,
      "hit": false,
      "t": 214368.83324999592,
      "d": 74.40468749997672,
      "v": 91
    },
    {
      "midi": 74,
      "hit": false,
      "t": 214374.78562499591,
      "d": 56.547562499996275,
      "v": 88
    },
    {
      "midi": 81,
      "hit": false,
      "t": 214374.78562499591,
      "d": 59.523749999993015,
      "v": 86
    },
    {
      "midi": 95,
      "hit": false,
      "t": 214845.0232499959,
      "d": 62.499937499989755,
      "v": 90
    },
    {
      "midi": 86,
      "hit": false,
      "t": 214845.0232499959,
      "d": 65.4761249999865,
      "v": 90
    },
    {
      "midi": 92,
      "hit": false,
      "t": 214845.0232499959,
      "d": 68.45231249998324,
      "v": 89
    },
    {
      "midi": 76,
      "hit": false,
      "t": 214850.9756249959,
      "d": 56.547562499996275,
      "v": 87
    },
    {
      "midi": 80,
      "hit": false,
      "t": 214850.9756249959,
      "d": 56.547562499996275,
      "v": 86
    },
    {
      "midi": 68,
      "hit": false,
      "t": 214850.9756249959,
      "d": 59.523749999993015,
      "v": 86
    },
    {
      "midi": 84,
      "hit": false,
      "t": 215225.97524999588,
      "d": 68.45231249998324,
      "v": 91
    },
    {
      "midi": 88,
      "hit": false,
      "t": 215225.97524999588,
      "d": 68.45231249998324,
      "v": 91
    },
    {
      "midi": 93,
      "hit": false,
      "t": 215225.97524999588,
      "d": 68.45231249998324,
      "v": 90
    },
    {
      "midi": 76,
      "hit": false,
      "t": 215231.92762499588,
      "d": 56.547562499996275,
      "v": 87
    },
    {
      "midi": 81,
      "hit": false,
      "t": 215231.92762499588,
      "d": 59.523749999993015,
      "v": 86
    },
    {
      "midi": 93,
      "hit": false,
      "t": 215702.16524999586,
      "d": 62.499937499989755,
      "v": 90
    },
    {
      "midi": 88,
      "hit": false,
      "t": 215702.16524999586,
      "d": 65.4761249999865,
      "v": 92
    },
    {
      "midi": 84,
      "hit": false,
      "t": 215702.16524999586,
      "d": 68.45231249998324,
      "v": 90
    },
    {
      "midi": 76,
      "hit": false,
      "t": 215708.11762499585,
      "d": 56.547562499996275,
      "v": 87
    },
    {
      "midi": 81,
      "hit": false,
      "t": 215708.11762499585,
      "d": 59.523749999993015,
      "v": 87
    },
    {
      "midi": 84,
      "hit": false,
      "t": 216083.11724999585,
      "d": 65.4761249999865,
      "v": 92
    },
    {
      "midi": 93,
      "hit": false,
      "t": 216083.11724999585,
      "d": 68.45231249998324,
      "v": 90
    },
    {
      "midi": 88,
      "hit": false,
      "t": 216083.11724999585,
      "d": 74.40468749997672,
      "v": 90
    },
    {
      "midi": 76,
      "hit": false,
      "t": 216089.06962499584,
      "d": 56.547562499996275,
      "v": 86
    },
    {
      "midi": 81,
      "hit": false,
      "t": 216089.06962499584,
      "d": 56.547562499996275,
      "v": 86
    },
    {
      "midi": 88,
      "hit": false,
      "t": 216654.54524999583,
      "d": 62.499937499989755,
      "v": 92
    },
    {
      "midi": 93,
      "hit": false,
      "t": 216654.54524999583,
      "d": 62.499937499989755,
      "v": 90
    },
    {
      "midi": 84,
      "hit": false,
      "t": 216654.54524999583,
      "d": 68.45231249998324,
      "v": 90
    },
    {
      "midi": 76,
      "hit": false,
      "t": 216660.49762499583,
      "d": 53.571374999999534,
      "v": 88
    },
    {
      "midi": 81,
      "hit": false,
      "t": 216660.49762499583,
      "d": 56.547562499996275,
      "v": 86
    },
    {
      "midi": 84,
      "hit": false,
      "t": 217130.7352499958,
      "d": 68.45231249998324,
      "v": 90
    },
    {
      "midi": 88,
      "hit": false,
      "t": 217130.7352499958,
      "d": 68.45231249998324,
      "v": 91
    },
    {
      "midi": 93,
      "hit": false,
      "t": 217130.7352499958,
      "d": 68.45231249998324,
      "v": 91
    },
    {
      "midi": 81,
      "hit": false,
      "t": 217136.6876249958,
      "d": 53.571374999999534,
      "v": 88
    },
    {
      "midi": 76,
      "hit": false,
      "t": 217136.6876249958,
      "d": 56.547562499996275,
      "v": 88
    },
    {
      "midi": 84,
      "hit": false,
      "t": 217511.6872499958,
      "d": 62.499937499989755,
      "v": 91
    },
    {
      "midi": 88,
      "hit": false,
      "t": 217511.6872499958,
      "d": 65.4761249999865,
      "v": 90
    },
    {
      "midi": 93,
      "hit": false,
      "t": 217511.6872499958,
      "d": 65.4761249999865,
      "v": 91
    },
    {
      "midi": 76,
      "hit": false,
      "t": 217517.6396249958,
      "d": 53.571374999999534,
      "v": 88
    },
    {
      "midi": 81,
      "hit": false,
      "t": 217517.6396249958,
      "d": 53.571374999999534,
      "v": 87
    },
    {
      "midi": 84,
      "hit": false,
      "t": 217987.87724999577,
      "d": 65.4761249999865,
      "v": 91
    },
    {
      "midi": 93,
      "hit": false,
      "t": 217987.87724999577,
      "d": 65.4761249999865,
      "v": 90
    },
    {
      "midi": 88,
      "hit": false,
      "t": 217987.87724999577,
      "d": 71.42849999997998,
      "v": 90
    },
    {
      "midi": 81,
      "hit": false,
      "t": 217993.82962499576,
      "d": 53.571374999999534,
      "v": 86
    },
    {
      "midi": 76,
      "hit": false,
      "t": 217993.82962499576,
      "d": 59.523749999993015,
      "v": 88
    },
    {
      "midi": 84,
      "hit": false,
      "t": 218368.82924999576,
      "d": 62.499937499989755,
      "v": 91
    },
    {
      "midi": 88,
      "hit": false,
      "t": 218368.82924999576,
      "d": 62.499937499989755,
      "v": 91
    },
    {
      "midi": 93,
      "hit": false,
      "t": 218368.82924999576,
      "d": 62.499937499989755,
      "v": 90
    },
    {
      "midi": 81,
      "hit": false,
      "t": 218374.78162499575,
      "d": 53.571374999999534,
      "v": 87
    },
    {
      "midi": 76,
      "hit": false,
      "t": 218374.78162499575,
      "d": 56.547562499996275,
      "v": 86
    },
    {
      "midi": 84,
      "hit": false,
      "t": 218940.25724999575,
      "d": 62.499937499989755,
      "v": 91
    },
    {
      "midi": 93,
      "hit": false,
      "t": 218940.25724999575,
      "d": 65.4761249999865,
      "v": 90
    },
    {
      "midi": 88,
      "hit": false,
      "t": 218940.25724999575,
      "d": 68.45231249998324,
      "v": 90
    },
    {
      "midi": 81,
      "hit": false,
      "t": 218946.20962499574,
      "d": 56.547562499996275,
      "v": 86
    },
    {
      "midi": 76,
      "hit": false,
      "t": 218946.20962499574,
      "d": 59.523749999993015,
      "v": 86
    },
    {
      "midi": 84,
      "hit": false,
      "t": 219416.44724999572,
      "d": 65.4761249999865,
      "v": 91
    },
    {
      "midi": 88,
      "hit": false,
      "t": 219416.44724999572,
      "d": 65.4761249999865,
      "v": 90
    },
    {
      "midi": 93,
      "hit": false,
      "t": 219416.44724999572,
      "d": 65.4761249999865,
      "v": 89
    },
    {
      "midi": 76,
      "hit": false,
      "t": 219422.3996249957,
      "d": 59.523749999993015,
      "v": 86
    },
    {
      "midi": 81,
      "hit": false,
      "t": 219422.3996249957,
      "d": 59.523749999993015,
      "v": 87
    },
    {
      "midi": 86,
      "hit": false,
      "t": 219797.3992499957,
      "d": 68.45231249998324,
      "v": 92
    },
    {
      "midi": 92,
      "hit": false,
      "t": 219797.3992499957,
      "d": 68.45231249998324,
      "v": 90
    },
    {
      "midi": 95,
      "hit": false,
      "t": 219797.3992499957,
      "d": 68.45231249998324,
      "v": 90
    },
    {
      "midi": 80,
      "hit": false,
      "t": 219803.3516249957,
      "d": 53.571374999999534,
      "v": 87
    },
    {
      "midi": 68,
      "hit": false,
      "t": 219803.3516249957,
      "d": 56.547562499996275,
      "v": 86
    },
    {
      "midi": 76,
      "hit": false,
      "t": 219803.3516249957,
      "d": 59.523749999993015,
      "v": 86
    },
    {
      "midi": 86,
      "hit": false,
      "t": 220273.58924999568,
      "d": 62.499937499989755,
      "v": 92
    },
    {
      "midi": 95,
      "hit": false,
      "t": 220273.58924999568,
      "d": 65.4761249999865,
      "v": 91
    },
    {
      "midi": 92,
      "hit": false,
      "t": 220273.58924999568,
      "d": 71.42849999997998,
      "v": 90
    },
    {
      "midi": 76,
      "hit": false,
      "t": 220279.54162499568,
      "d": 53.571374999999534,
      "v": 87
    },
    {
      "midi": 68,
      "hit": false,
      "t": 220279.54162499568,
      "d": 56.547562499996275,
      "v": 88
    },
    {
      "midi": 80,
      "hit": false,
      "t": 220279.54162499568,
      "d": 56.547562499996275,
      "v": 86
    },
    {
      "midi": 86,
      "hit": false,
      "t": 220654.54124999567,
      "d": 65.4761249999865,
      "v": 90
    },
    {
      "midi": 95,
      "hit": false,
      "t": 220654.54124999567,
      "d": 68.45231249998324,
      "v": 90
    },
    {
      "midi": 92,
      "hit": false,
      "t": 220654.54124999567,
      "d": 71.42849999997998,
      "v": 89
    },
    {
      "midi": 68,
      "hit": false,
      "t": 220660.49362499567,
      "d": 50.595187500002794,
      "v": 87
    },
    {
      "midi": 80,
      "hit": false,
      "t": 220660.49362499567,
      "d": 53.571374999999534,
      "v": 86
    },
    {
      "midi": 76,
      "hit": false,
      "t": 220660.49362499567,
      "d": 56.547562499996275,
      "v": 87
    },
    {
      "midi": 86,
      "hit": false,
      "t": 221225.96924999566,
      "d": 65.4761249999865,
      "v": 91
    },
    {
      "midi": 89,
      "hit": false,
      "t": 221225.96924999566,
      "d": 65.4761249999865,
      "v": 91
    },
    {
      "midi": 93,
      "hit": false,
      "t": 221225.96924999566,
      "d": 74.40468749997672,
      "v": 91
    },
    {
      "midi": 74,
      "hit": false,
      "t": 221231.92162499565,
      "d": 56.547562499996275,
      "v": 86
    },
    {
      "midi": 81,
      "hit": false,
      "t": 221231.92162499565,
      "d": 56.547562499996275,
      "v": 88
    },
    {
      "midi": 86,
      "hit": false,
      "t": 221702.15924999563,
      "d": 68.45231249998324,
      "v": 91
    },
    {
      "midi": 89,
      "hit": false,
      "t": 221702.15924999563,
      "d": 68.45231249998324,
      "v": 90
    },
    {
      "midi": 93,
      "hit": false,
      "t": 221702.15924999563,
      "d": 68.45231249998324,
      "v": 90
    },
    {
      "midi": 81,
      "hit": false,
      "t": 221708.11162499562,
      "d": 56.547562499996275,
      "v": 88
    },
    {
      "midi": 74,
      "hit": false,
      "t": 221708.11162499562,
      "d": 59.523749999993015,
      "v": 86
    },
    {
      "midi": 92,
      "hit": false,
      "t": 222083.11124999562,
      "d": 65.4761249999865,
      "v": 91
    },
    {
      "midi": 86,
      "hit": false,
      "t": 222083.11124999562,
      "d": 68.45231249998324,
      "v": 92
    },
    {
      "midi": 95,
      "hit": false,
      "t": 222083.11124999562,
      "d": 71.42849999997998,
      "v": 91
    },
    {
      "midi": 68,
      "hit": false,
      "t": 222089.06362499562,
      "d": 56.547562499996275,
      "v": 86
    },
    {
      "midi": 76,
      "hit": false,
      "t": 222089.06362499562,
      "d": 59.523749999993015,
      "v": 86
    },
    {
      "midi": 80,
      "hit": false,
      "t": 222089.06362499562,
      "d": 59.523749999993015,
      "v": 86
    },
    {
      "midi": 86,
      "hit": false,
      "t": 222559.3012499956,
      "d": 62.499937499989755,
      "v": 90
    },
    {
      "midi": 95,
      "hit": false,
      "t": 222559.3012499956,
      "d": 62.499937499989755,
      "v": 92
    },
    {
      "midi": 92,
      "hit": false,
      "t": 222559.3012499956,
      "d": 68.45231249998324,
      "v": 92
    },
    {
      "midi": 68,
      "hit": false,
      "t": 222565.2536249956,
      "d": 59.523749999993015,
      "v": 87
    },
    {
      "midi": 76,
      "hit": false,
      "t": 222565.2536249956,
      "d": 59.523749999993015,
      "v": 88
    },
    {
      "midi": 80,
      "hit": false,
      "t": 222565.2536249956,
      "d": 59.523749999993015,
      "v": 86
    },
    {
      "midi": 86,
      "hit": false,
      "t": 222940.25324999559,
      "d": 68.45231249998324,
      "v": 92
    },
    {
      "midi": 92,
      "hit": false,
      "t": 222940.25324999559,
      "d": 68.45231249998324,
      "v": 91
    },
    {
      "midi": 95,
      "hit": false,
      "t": 222940.25324999559,
      "d": 68.45231249998324,
      "v": 91
    },
    {
      "midi": 68,
      "hit": false,
      "t": 222946.20562499558,
      "d": 53.571374999999534,
      "v": 87
    },
    {
      "midi": 76,
      "hit": false,
      "t": 222946.20562499558,
      "d": 59.523749999993015,
      "v": 88
    },
    {
      "midi": 80,
      "hit": false,
      "t": 222946.20562499558,
      "d": 59.523749999993015,
      "v": 87
    },
    {
      "midi": 86,
      "hit": false,
      "t": 223511.68124999557,
      "d": 65.4761249999865,
      "v": 92
    },
    {
      "midi": 89,
      "hit": false,
      "t": 223511.68124999557,
      "d": 71.42849999997998,
      "v": 92
    },
    {
      "midi": 93,
      "hit": false,
      "t": 223511.68124999557,
      "d": 74.40468749997672,
      "v": 91
    },
    {
      "midi": 74,
      "hit": false,
      "t": 223517.63362499556,
      "d": 56.547562499996275,
      "v": 88
    },
    {
      "midi": 81,
      "hit": false,
      "t": 223517.63362499556,
      "d": 59.523749999993015,
      "v": 86
    },
    {
      "midi": 95,
      "hit": false,
      "t": 223987.87124999554,
      "d": 62.499937499989755,
      "v": 90
    },
    {
      "midi": 86,
      "hit": false,
      "t": 223987.87124999554,
      "d": 65.4761249999865,
      "v": 90
    },
    {
      "midi": 92,
      "hit": false,
      "t": 223987.87124999554,
      "d": 68.45231249998324,
      "v": 89
    },
    {
      "midi": 76,
      "hit": false,
      "t": 223993.82362499554,
      "d": 56.547562499996275,
      "v": 87
    },
    {
      "midi": 80,
      "hit": false,
      "t": 223993.82362499554,
      "d": 56.547562499996275,
      "v": 86
    },
    {
      "midi": 68,
      "hit": false,
      "t": 223993.82362499554,
      "d": 59.523749999993015,
      "v": 86
    },
    {
      "midi": 84,
      "hit": false,
      "t": 224368.82324999553,
      "d": 68.45231249998324,
      "v": 91
    },
    {
      "midi": 88,
      "hit": false,
      "t": 224368.82324999553,
      "d": 68.45231249998324,
      "v": 91
    },
    {
      "midi": 93,
      "hit": false,
      "t": 224368.82324999553,
      "d": 68.45231249998324,
      "v": 90
    },
    {
      "midi": 76,
      "hit": false,
      "t": 224374.77562499553,
      "d": 56.547562499996275,
      "v": 87
    },
    {
      "midi": 81,
      "hit": false,
      "t": 224374.77562499553,
      "d": 59.523749999993015,
      "v": 86
    },
    {
      "midi": 93,
      "hit": false,
      "t": 224845.0132499955,
      "d": 62.499937499989755,
      "v": 90
    },
    {
      "midi": 88,
      "hit": false,
      "t": 224845.0132499955,
      "d": 65.4761249999865,
      "v": 92
    },
    {
      "midi": 84,
      "hit": false,
      "t": 224845.0132499955,
      "d": 68.45231249998324,
      "v": 90
    },
    {
      "midi": 76,
      "hit": false,
      "t": 224850.9656249955,
      "d": 56.547562499996275,
      "v": 87
    },
    {
      "midi": 81,
      "hit": false,
      "t": 224850.9656249955,
      "d": 59.523749999993015,
      "v": 87
    },
    {
      "midi": 88,
      "hit": false,
      "t": 225797.39324999548,
      "d": 62.499937499989755,
      "v": 92
    },
    {
      "midi": 93,
      "hit": false,
      "t": 225797.39324999548,
      "d": 62.499937499989755,
      "v": 90
    },
    {
      "midi": 84,
      "hit": false,
      "t": 225797.39324999548,
      "d": 68.45231249998324,
      "v": 90
    },
    {
      "midi": 76,
      "hit": false,
      "t": 225803.34562499548,
      "d": 53.571374999999534,
      "v": 88
    },
    {
      "midi": 81,
      "hit": false,
      "t": 225803.34562499548,
      "d": 56.547562499996275,
      "v": 86
    },
    {
      "midi": 84,
      "hit": false,
      "t": 226273.58324999546,
      "d": 68.45231249998324,
      "v": 90
    },
    {
      "midi": 88,
      "hit": false,
      "t": 226273.58324999546,
      "d": 68.45231249998324,
      "v": 91
    },
    {
      "midi": 93,
      "hit": false,
      "t": 226273.58324999546,
      "d": 68.45231249998324,
      "v": 91
    },
    {
      "midi": 81,
      "hit": false,
      "t": 226279.53562499545,
      "d": 53.571374999999534,
      "v": 88
    },
    {
      "midi": 76,
      "hit": false,
      "t": 226279.53562499545,
      "d": 56.547562499996275,
      "v": 88
    },
    {
      "midi": 84,
      "hit": false,
      "t": 226654.53524999545,
      "d": 62.499937499989755,
      "v": 91
    },
    {
      "midi": 88,
      "hit": false,
      "t": 226654.53524999545,
      "d": 65.4761249999865,
      "v": 90
    },
    {
      "midi": 93,
      "hit": false,
      "t": 226654.53524999545,
      "d": 65.4761249999865,
      "v": 91
    },
    {
      "midi": 76,
      "hit": false,
      "t": 226660.48762499544,
      "d": 53.571374999999534,
      "v": 88
    },
    {
      "midi": 81,
      "hit": false,
      "t": 226660.48762499544,
      "d": 53.571374999999534,
      "v": 87
    },
    {
      "midi": 84,
      "hit": false,
      "t": 227130.72524999542,
      "d": 65.4761249999865,
      "v": 91
    },
    {
      "midi": 93,
      "hit": false,
      "t": 227130.72524999542,
      "d": 65.4761249999865,
      "v": 90
    },
    {
      "midi": 88,
      "hit": false,
      "t": 227130.72524999542,
      "d": 71.42849999997998,
      "v": 90
    },
    {
      "midi": 81,
      "hit": false,
      "t": 227136.6776249954,
      "d": 53.571374999999534,
      "v": 86
    },
    {
      "midi": 76,
      "hit": false,
      "t": 227136.6776249954,
      "d": 59.523749999993015,
      "v": 88
    },
    {
      "midi": 84,
      "hit": false,
      "t": 227511.6772499954,
      "d": 62.499937499989755,
      "v": 91
    },
    {
      "midi": 88,
      "hit": false,
      "t": 227511.6772499954,
      "d": 62.499937499989755,
      "v": 91
    },
    {
      "midi": 93,
      "hit": false,
      "t": 227511.6772499954,
      "d": 62.499937499989755,
      "v": 90
    },
    {
      "midi": 81,
      "hit": false,
      "t": 227517.6296249954,
      "d": 53.571374999999534,
      "v": 87
    },
    {
      "midi": 76,
      "hit": false,
      "t": 227517.6296249954,
      "d": 56.547562499996275,
      "v": 86
    },
    {
      "midi": 84,
      "hit": false,
      "t": 228083.1052499954,
      "d": 62.499937499989755,
      "v": 91
    },
    {
      "midi": 93,
      "hit": false,
      "t": 228083.1052499954,
      "d": 65.4761249999865,
      "v": 90
    },
    {
      "midi": 88,
      "hit": false,
      "t": 228083.1052499954,
      "d": 68.45231249998324,
      "v": 90
    },
    {
      "midi": 81,
      "hit": false,
      "t": 228089.0576249954,
      "d": 56.547562499996275,
      "v": 86
    },
    {
      "midi": 76,
      "hit": false,
      "t": 228089.0576249954,
      "d": 59.523749999993015,
      "v": 86
    },
    {
      "midi": 84,
      "hit": false,
      "t": 228559.29524999537,
      "d": 65.4761249999865,
      "v": 91
    },
    {
      "midi": 88,
      "hit": false,
      "t": 228559.29524999537,
      "d": 65.4761249999865,
      "v": 90
    },
    {
      "midi": 93,
      "hit": false,
      "t": 228559.29524999537,
      "d": 65.4761249999865,
      "v": 89
    },
    {
      "midi": 76,
      "hit": false,
      "t": 228565.24762499536,
      "d": 59.523749999993015,
      "v": 86
    },
    {
      "midi": 81,
      "hit": false,
      "t": 228565.24762499536,
      "d": 59.523749999993015,
      "v": 87
    },
    {
      "midi": 86,
      "hit": false,
      "t": 228940.24724999536,
      "d": 68.45231249998324,
      "v": 92
    },
    {
      "midi": 92,
      "hit": false,
      "t": 228940.24724999536,
      "d": 68.45231249998324,
      "v": 90
    },
    {
      "midi": 95,
      "hit": false,
      "t": 228940.24724999536,
      "d": 68.45231249998324,
      "v": 90
    },
    {
      "midi": 80,
      "hit": false,
      "t": 228946.19962499535,
      "d": 53.571374999999534,
      "v": 87
    },
    {
      "midi": 68,
      "hit": false,
      "t": 228946.19962499535,
      "d": 56.547562499996275,
      "v": 86
    },
    {
      "midi": 76,
      "hit": false,
      "t": 228946.19962499535,
      "d": 59.523749999993015,
      "v": 86
    },
    {
      "midi": 86,
      "hit": false,
      "t": 229416.43724999533,
      "d": 62.499937499989755,
      "v": 92
    },
    {
      "midi": 95,
      "hit": false,
      "t": 229416.43724999533,
      "d": 65.4761249999865,
      "v": 91
    },
    {
      "midi": 92,
      "hit": false,
      "t": 229416.43724999533,
      "d": 71.42849999997998,
      "v": 90
    },
    {
      "midi": 76,
      "hit": false,
      "t": 229422.38962499532,
      "d": 53.571374999999534,
      "v": 87
    },
    {
      "midi": 68,
      "hit": false,
      "t": 229422.38962499532,
      "d": 56.547562499996275,
      "v": 88
    },
    {
      "midi": 80,
      "hit": false,
      "t": 229422.38962499532,
      "d": 56.547562499996275,
      "v": 86
    },
    {
      "midi": 86,
      "hit": false,
      "t": 229797.38924999532,
      "d": 65.4761249999865,
      "v": 90
    },
    {
      "midi": 95,
      "hit": false,
      "t": 229797.38924999532,
      "d": 68.45231249998324,
      "v": 90
    },
    {
      "midi": 92,
      "hit": false,
      "t": 229797.38924999532,
      "d": 71.42849999997998,
      "v": 89
    },
    {
      "midi": 68,
      "hit": false,
      "t": 229803.34162499532,
      "d": 50.595187500002794,
      "v": 87
    },
    {
      "midi": 80,
      "hit": false,
      "t": 229803.34162499532,
      "d": 53.571374999999534,
      "v": 86
    },
    {
      "midi": 76,
      "hit": false,
      "t": 229803.34162499532,
      "d": 56.547562499996275,
      "v": 87
    },
    {
      "midi": 86,
      "hit": false,
      "t": 230368.8172499953,
      "d": 65.4761249999865,
      "v": 91
    },
    {
      "midi": 89,
      "hit": false,
      "t": 230368.8172499953,
      "d": 65.4761249999865,
      "v": 91
    },
    {
      "midi": 93,
      "hit": false,
      "t": 230368.8172499953,
      "d": 74.40468749997672,
      "v": 91
    },
    {
      "midi": 74,
      "hit": false,
      "t": 230374.7696249953,
      "d": 56.547562499996275,
      "v": 86
    },
    {
      "midi": 81,
      "hit": false,
      "t": 230374.7696249953,
      "d": 56.547562499996275,
      "v": 88
    },
    {
      "midi": 86,
      "hit": false,
      "t": 230845.00724999528,
      "d": 68.45231249998324,
      "v": 91
    },
    {
      "midi": 89,
      "hit": false,
      "t": 230845.00724999528,
      "d": 68.45231249998324,
      "v": 90
    },
    {
      "midi": 93,
      "hit": false,
      "t": 230845.00724999528,
      "d": 68.45231249998324,
      "v": 90
    },
    {
      "midi": 81,
      "hit": false,
      "t": 230850.95962499527,
      "d": 56.547562499996275,
      "v": 88
    },
    {
      "midi": 74,
      "hit": false,
      "t": 230850.95962499527,
      "d": 59.523749999993015,
      "v": 86
    },
    {
      "midi": 92,
      "hit": false,
      "t": 231225.95924999527,
      "d": 65.4761249999865,
      "v": 91
    },
    {
      "midi": 86,
      "hit": false,
      "t": 231225.95924999527,
      "d": 68.45231249998324,
      "v": 92
    },
    {
      "midi": 95,
      "hit": false,
      "t": 231225.95924999527,
      "d": 71.42849999997998,
      "v": 91
    },
    {
      "midi": 68,
      "hit": false,
      "t": 231231.91162499526,
      "d": 56.547562499996275,
      "v": 86
    },
    {
      "midi": 76,
      "hit": false,
      "t": 231231.91162499526,
      "d": 59.523749999993015,
      "v": 86
    },
    {
      "midi": 80,
      "hit": false,
      "t": 231231.91162499526,
      "d": 59.523749999993015,
      "v": 86
    },
    {
      "midi": 86,
      "hit": false,
      "t": 231702.14924999524,
      "d": 62.499937499989755,
      "v": 90
    },
    {
      "midi": 95,
      "hit": false,
      "t": 231702.14924999524,
      "d": 62.499937499989755,
      "v": 92
    },
    {
      "midi": 92,
      "hit": false,
      "t": 231702.14924999524,
      "d": 68.45231249998324,
      "v": 92
    },
    {
      "midi": 68,
      "hit": false,
      "t": 231708.10162499524,
      "d": 59.523749999993015,
      "v": 87
    },
    {
      "midi": 76,
      "hit": false,
      "t": 231708.10162499524,
      "d": 59.523749999993015,
      "v": 88
    },
    {
      "midi": 80,
      "hit": false,
      "t": 231708.10162499524,
      "d": 59.523749999993015,
      "v": 86
    },
    {
      "midi": 86,
      "hit": false,
      "t": 232083.10124999523,
      "d": 68.45231249998324,
      "v": 92
    },
    {
      "midi": 92,
      "hit": false,
      "t": 232083.10124999523,
      "d": 68.45231249998324,
      "v": 91
    },
    {
      "midi": 95,
      "hit": false,
      "t": 232083.10124999523,
      "d": 68.45231249998324,
      "v": 91
    },
    {
      "midi": 68,
      "hit": false,
      "t": 232089.05362499523,
      "d": 53.571374999999534,
      "v": 87
    },
    {
      "midi": 76,
      "hit": false,
      "t": 232089.05362499523,
      "d": 59.523749999993015,
      "v": 88
    },
    {
      "midi": 80,
      "hit": false,
      "t": 232089.05362499523,
      "d": 59.523749999993015,
      "v": 87
    },
    {
      "midi": 86,
      "hit": false,
      "t": 232654.52924999522,
      "d": 65.4761249999865,
      "v": 92
    },
    {
      "midi": 89,
      "hit": false,
      "t": 232654.52924999522,
      "d": 71.42849999997998,
      "v": 92
    },
    {
      "midi": 93,
      "hit": false,
      "t": 232654.52924999522,
      "d": 74.40468749997672,
      "v": 91
    },
    {
      "midi": 74,
      "hit": false,
      "t": 232660.4816249952,
      "d": 56.547562499996275,
      "v": 88
    },
    {
      "midi": 81,
      "hit": false,
      "t": 232660.4816249952,
      "d": 59.523749999993015,
      "v": 86
    },
    {
      "midi": 95,
      "hit": false,
      "t": 233130.7192499952,
      "d": 62.499937499989755,
      "v": 90
    },
    {
      "midi": 86,
      "hit": false,
      "t": 233130.7192499952,
      "d": 65.4761249999865,
      "v": 90
    },
    {
      "midi": 92,
      "hit": false,
      "t": 233130.7192499952,
      "d": 68.45231249998324,
      "v": 89
    },
    {
      "midi": 76,
      "hit": false,
      "t": 233136.6716249952,
      "d": 56.547562499996275,
      "v": 87
    },
    {
      "midi": 80,
      "hit": false,
      "t": 233136.6716249952,
      "d": 56.547562499996275,
      "v": 86
    },
    {
      "midi": 68,
      "hit": false,
      "t": 233136.6716249952,
      "d": 59.523749999993015,
      "v": 86
    },
    {
      "midi": 84,
      "hit": false,
      "t": 233511.67124999518,
      "d": 68.45231249998324,
      "v": 91
    },
    {
      "midi": 88,
      "hit": false,
      "t": 233511.67124999518,
      "d": 68.45231249998324,
      "v": 91
    },
    {
      "midi": 93,
      "hit": false,
      "t": 233511.67124999518,
      "d": 68.45231249998324,
      "v": 90
    },
    {
      "midi": 76,
      "hit": false,
      "t": 233517.62362499518,
      "d": 56.547562499996275,
      "v": 87
    },
    {
      "midi": 81,
      "hit": false,
      "t": 233517.62362499518,
      "d": 59.523749999993015,
      "v": 86
    },
    {
      "midi": 93,
      "hit": false,
      "t": 233987.86124999516,
      "d": 62.499937499989755,
      "v": 102
    },
    {
      "midi": 88,
      "hit": false,
      "t": 233987.86124999516,
      "d": 65.4761249999865,
      "v": 103
    },
    {
      "midi": 84,
      "hit": false,
      "t": 233987.86124999516,
      "d": 68.45231249998324,
      "v": 103
    },
    {
      "midi": 76,
      "hit": false,
      "t": 233993.81362499515,
      "d": 56.547562499996275,
      "v": 99
    },
    {
      "midi": 81,
      "hit": false,
      "t": 233993.81362499515,
      "d": 59.523749999993015,
      "v": 98
    }
  ]
}