{
  "jsonPath": "Unknown/Unknown/Electro Mode All Stars/go-west-as-made-famous-by-pet-shop-boys.json",
  "path": "Unknown\\Unknown\\Electro Mode All Stars\\Go West (as made famous by Pet Shop Boys).mid",
  "name": "Go West (as made famous by Pet Shop Boys)",
  "difficulty": "Advanced",
  "bpm": 120,
  "notes": [
    {
      "midi": 72,
      "hit": false,
      "t": 4000,
      "d": 1945.3125,
      "v": 95
    },
    {
      "midi": 76,
      "hit": false,
      "t": 4000,
      "d": 2013.020833333333,
      "v": 95
    },
    {
      "midi": 67,
      "hit": false,
      "t": 4000,
      "d": 3880.208333333333,
      "v": 92
    },
    {
      "midi": 55,
      "hit": false,
      "t": 4000,
      "d": 3999.999999999999,
      "v": 95
    },
    {
      "midi": 76,
      "hit": false,
      "t": 4000,
      "d": 1533.854166666667,
      "v": 95
    },
    {
      "midi": 60,
      "hit": false,
      "t": 4000,
      "d": 2000.000000000001,
      "v": 95
    },
    {
      "midi": 74,
      "hit": false,
      "t": 5500,
      "d": 273.4375000000009,
      "v": 97
    },
    {
      "midi": 72,
      "hit": false,
      "t": 5747.395833333334,
      "d": 257.8125,
      "v": 97
    },
    {
      "midi": 74,
      "hit": false,
      "t": 5997.395833333333,
      "d": 1911.458333333333,
      "v": 95
    },
    {
      "midi": 74,
      "hit": false,
      "t": 5997.395833333334,
      "d": 494.79166666666697,
      "v": 97
    },
    {
      "midi": 71,
      "hit": false,
      "t": 6000,
      "d": 1979.166666666666,
      "v": 95
    },
    {
      "midi": 67,
      "hit": false,
      "t": 6497.395833333334,
      "d": 1557.291666666667,
      "v": 95
    },
    {
      "midi": 59,
      "hit": false,
      "t": 6994.791666666667,
      "d": 486.97916666666697,
      "v": 95
    },
    {
      "midi": 60,
      "hit": false,
      "t": 7497.395833333334,
      "d": 549.479166666667,
      "v": 95
    },
    {
      "midi": 72,
      "hit": false,
      "t": 7997.395833333334,
      "d": 1505.208333333334,
      "v": 95
    },
    {
      "midi": 57,
      "hit": false,
      "t": 7997.395833333334,
      "d": 2000,
      "v": 95
    },
    {
      "midi": 69,
      "hit": false,
      "t": 7999.999999999999,
      "d": 1953.125000000001,
      "v": 97
    },
    {
      "midi": 72,
      "hit": false,
      "t": 8002.604166666666,
      "d": 1986.9791666666679,
      "v": 97
    },
    {
      "midi": 64,
      "hit": false,
      "t": 8002.604166666666,
      "d": 3807.2916666666697,
      "v": 97
    },
    {
      "midi": 52,
      "hit": false,
      "t": 8002.604166666666,
      "d": 4000.0000000000055,
      "v": 97
    },
    {
      "midi": 71,
      "hit": false,
      "t": 9494.791666666668,
      "d": 283.85416666666606,
      "v": 97
    },
    {
      "midi": 69,
      "hit": false,
      "t": 9744.791666666668,
      "d": 257.8125,
      "v": 97
    },
    {
      "midi": 71,
      "hit": false,
      "t": 9994.791666666668,
      "d": 1929.6875000000018,
      "v": 95
    },
    {
      "midi": 71,
      "hit": false,
      "t": 9994.791666666668,
      "d": 502.60416666666606,
      "v": 97
    },
    {
      "midi": 67,
      "hit": false,
      "t": 10000.000000000002,
      "d": 1953.1250000000018,
      "v": 95
    },
    {
      "midi": 64,
      "hit": false,
      "t": 10494.791666666668,
      "d": 1585.9375,
      "v": 97
    },
    {
      "midi": 55,
      "hit": false,
      "t": 10997.395833333334,
      "d": 497.39583333333394,
      "v": 97
    },
    {
      "midi": 57,
      "hit": false,
      "t": 11497.395833333334,
      "d": 533.8541666666679,
      "v": 97
    },
    {
      "midi": 69,
      "hit": false,
      "t": 11997.395833333334,
      "d": 2020.8333333333358,
      "v": 92
    },
    {
      "midi": 65,
      "hit": false,
      "t": 11997.395833333338,
      "d": 1867.1875,
      "v": 80
    },
    {
      "midi": 69,
      "hit": false,
      "t": 11997.395833333338,
      "d": 2000,
      "v": 86
    },
    {
      "midi": 48,
      "hit": false,
      "t": 11997.395833333338,
      "d": 4023.4375,
      "v": 74
    },
    {
      "midi": 48,
      "hit": false,
      "t": 12002.604166666668,
      "d": 997.3958333333321,
      "v": 97
    },
    {
      "midi": 60,
      "hit": false,
      "t": 12002.604166666672,
      "d": 3809.895833333332,
      "v": 97
    },
    {
      "midi": 57,
      "hit": false,
      "t": 12997.395833333334,
      "d": 528.6458333333339,
      "v": 97
    },
    {
      "midi": 55,
      "hit": false,
      "t": 13497.395833333334,
      "d": 268.2291666666679,
      "v": 97
    },
    {
      "midi": 53,
      "hit": false,
      "t": 13744.791666666668,
      "d": 302.08333333333576,
      "v": 97
    },
    {
      "midi": 64,
      "hit": false,
      "t": 13994.791666666672,
      "d": 1846.354166666666,
      "v": 93
    },
    {
      "midi": 67,
      "hit": false,
      "t": 13994.791666666672,
      "d": 1960.9375,
      "v": 93
    },
    {
      "midi": 67,
      "hit": false,
      "t": 13997.395833333336,
      "d": 750.0000000000018,
      "v": 98
    },
    {
      "midi": 55,
      "hit": false,
      "t": 14002.60416666667,
      "d": 536.4583333333339,
      "v": 97
    },
    {
      "midi": 48,
      "hit": false,
      "t": 14502.60416666667,
      "d": 466.14583333333394,
      "v": 97
    },
    {
      "midi": 72,
      "hit": false,
      "t": 14750.000000000004,
      "d": 3250,
      "v": 97
    },
    {
      "midi": 60,
      "hit": false,
      "t": 14997.395833333338,
      "d": 497.39583333333394,
      "v": 97
    },
    {
      "midi": 59,
      "hit": false,
      "t": 15497.395833333338,
      "d": 500,
      "v": 97
    },
    {
      "midi": 62,
      "hit": false,
      "t": 15994.791666666672,
      "d": 1890.6249999999964,
      "v": 72
    },
    {
      "midi": 65,
      "hit": false,
      "t": 15997.395833333338,
      "d": 1820.3124999999982,
      "v": 97
    },
    {
      "midi": 50,
      "hit": false,
      "t": 15997.395833333338,
      "d": 2005.2083333333303,
      "v": 97
    },
    {
      "midi": 69,
      "hit": false,
      "t": 15997.395833333338,
      "d": 2018.2291666666624,
      "v": 97
    },
    {
      "midi": 57,
      "hit": false,
      "t": 15997.395833333338,
      "d": 1971.354166666666,
      "v": 97
    },
    {
      "midi": 71,
      "hit": false,
      "t": 17994.791666666668,
      "d": 1846.3541666666642,
      "v": 74
    },
    {
      "midi": 67,
      "hit": false,
      "t": 17994.791666666668,
      "d": 1848.9583333333321,
      "v": 92
    },
    {
      "midi": 62,
      "hit": false,
      "t": 17994.791666666668,
      "d": 1872.3958333333321,
      "v": 72
    },
    {
      "midi": 76,
      "hit": false,
      "t": 17994.79166666667,
      "d": 557.2916666666642,
      "v": 76
    },
    {
      "midi": 55,
      "hit": false,
      "t": 17997.395833333336,
      "d": 1830.7291666666642,
      "v": 95
    },
    {
      "midi": 64,
      "hit": false,
      "t": 18000.000000000004,
      "d": 500,
      "v": 95
    },
    {
      "midi": 74,
      "hit": false,
      "t": 18497.395833333336,
      "d": 1388.0208333333358,
      "v": 95
    },
    {
      "midi": 65,
      "hit": false,
      "t": 18500.000000000004,
      "d": 250,
      "v": 95
    },
    {
      "midi": 62,
      "hit": false,
      "t": 18750.000000000004,
      "d": 1398.4375,
      "v": 95
    },
    {
      "midi": 55,
      "hit": false,
      "t": 19002.604166666668,
      "d": 950.5208333333358,
      "v": 98
    },
    {
      "midi": 62,
      "hit": false,
      "t": 19005.208333333336,
      "d": 937.5,
      "v": 127
    },
    {
      "midi": 59,
      "hit": false,
      "t": 19005.208333333336,
      "d": 947.9166666666679,
      "v": 127
    },
    {
      "midi": 72,
      "hit": false,
      "t": 20000,
      "d": 1945.3125,
      "v": 95
    },
    {
      "midi": 76,
      "hit": false,
      "t": 20000,
      "d": 2013.0208333333321,
      "v": 95
    },
    {
      "midi": 67,
      "hit": false,
      "t": 20000,
      "d": 3880.208333333332,
      "v": 92
    },
    {
      "midi": 55,
      "hit": false,
      "t": 20000,
      "d": 3999.9999999999964,
      "v": 95
    },
    {
      "midi": 96,
      "hit": false,
      "t": 20000,
      "d": 1976.5625,
      "v": 95
    },
    {
      "midi": 76,
      "hit": false,
      "t": 20000.000000000004,
      "d": 1533.8541666666679,
      "v": 95
    },
    {
      "midi": 60,
      "hit": false,
      "t": 20000.000000000004,
      "d": 2000.0000000000036,
      "v": 95
    },
    {
      "midi": 36,
      "hit": false,
      "t": 20005.208333333332,
      "d": 315.1041666666679,
      "v": 126
    },
    {
      "midi": 36,
      "hit": false,
      "t": 20497.395833333332,
      "d": 247.39583333333212,
      "v": 126
    },
    {
      "midi": 36,
      "hit": false,
      "t": 20872.395833333332,
      "d": 57.29166666666788,
      "v": 126
    },
    {
      "midi": 36,
      "hit": false,
      "t": 21002.604166666668,
      "d": 138.02083333333212,
      "v": 126
    },
    {
      "midi": 36,
      "hit": false,
      "t": 21250,
      "d": 127.60416666666788,
      "v": 124
    },
    {
      "midi": 36,
      "hit": false,
      "t": 21500,
      "d": 148.4375,
      "v": 124
    },
    {
      "midi": 74,
      "hit": false,
      "t": 21500.000000000004,
      "d": 273.43750000000364,
      "v": 97
    },
    {
      "midi": 36,
      "hit": false,
      "t": 21747.395833333332,
      "d": 122.39583333333212,
      "v": 122
    },
    {
      "midi": 72,
      "hit": false,
      "t": 21747.39583333334,
      "d": 257.8125,
      "v": 97
    },
    {
      "midi": 95,
      "hit": false,
      "t": 21992.1875,
      "d": 1989.5833333333321,
      "v": 95
    },
    {
      "midi": 31,
      "hit": false,
      "t": 21997.395833333332,
      "d": 330.7291666666679,
      "v": 122
    },
    {
      "midi": 74,
      "hit": false,
      "t": 21997.395833333332,
      "d": 1911.4583333333321,
      "v": 95
    },
    {
      "midi": 74,
      "hit": false,
      "t": 21997.39583333334,
      "d": 494.7916666666679,
      "v": 97
    },
    {
      "midi": 71,
      "hit": false,
      "t": 22000,
      "d": 1979.1666666666642,
      "v": 95
    },
    {
      "midi": 31,
      "hit": false,
      "t": 22497.395833333332,
      "d": 276.0416666666679,
      "v": 122
    },
    {
      "midi": 67,
      "hit": false,
      "t": 22497.39583333334,
      "d": 1557.2916666666679,
      "v": 95
    },
    {
      "midi": 31,
      "hit": false,
      "t": 22877.604166666668,
      "d": 78.125,
      "v": 122
    },
    {
      "midi": 59,
      "hit": false,
      "t": 22994.79166666667,
      "d": 486.9791666666679,
      "v": 95
    },
    {
      "midi": 31,
      "hit": false,
      "t": 23005.208333333336,
      "d": 161.45833333333212,
      "v": 122
    },
    {
      "midi": 31,
      "hit": false,
      "t": 23255.208333333336,
      "d": 138.02083333333212,
      "v": 122
    },
    {
      "midi": 60,
      "hit": false,
      "t": 23497.39583333334,
      "d": 549.4791666666679,
      "v": 95
    },
    {
      "midi": 31,
      "hit": false,
      "t": 23502.604166666668,
      "d": 145.83333333333212,
      "v": 122
    },
    {
      "midi": 31,
      "hit": false,
      "t": 23752.604166666668,
      "d": 111.97916666666788,
      "v": 122
    },
    {
      "midi": 72,
      "hit": false,
      "t": 23997.39583333334,
      "d": 1505.2083333333358,
      "v": 95
    },
    {
      "midi": 57,
      "hit": false,
      "t": 23997.39583333334,
      "d": 2000.0000000000036,
      "v": 95
    },
    {
      "midi": 69,
      "hit": false,
      "t": 23999.999999999996,
      "d": 1953.125,
      "v": 97
    },
    {
      "midi": 72,
      "hit": false,
      "t": 24002.604166666664,
      "d": 1986.9791666666642,
      "v": 97
    },
    {
      "midi": 64,
      "hit": false,
      "t": 24002.604166666664,
      "d": 3807.2916666666606,
      "v": 97
    },
    {
      "midi": 52,
      "hit": false,
      "t": 24002.604166666664,
      "d": 3999.999999999989,
      "v": 97
    },
    {
      "midi": 33,
      "hit": false,
      "t": 24002.604166666668,
      "d": 328.125,
      "v": 122
    },
    {
      "midi": 93,
      "hit": false,
      "t": 24005.208333333332,
      "d": 2000,
      "v": 93
    },
    {
      "midi": 33,
      "hit": false,
      "t": 24502.604166666668,
      "d": 260.4166666666679,
      "v": 124
    },
    {
      "midi": 33,
      "hit": false,
      "t": 24877.604166666668,
      "d": 65.10416666666788,
      "v": 124
    },
    {
      "midi": 33,
      "hit": false,
      "t": 25005.208333333336,
      "d": 145.83333333333212,
      "v": 124
    },
    {
      "midi": 33,
      "hit": false,
      "t": 25255.208333333336,
      "d": 132.8125,
      "v": 124
    },
    {
      "midi": 71,
      "hit": false,
      "t": 25494.791666666675,
      "d": 283.8541666666679,
      "v": 97
    },
    {
      "midi": 33,
      "hit": false,
      "t": 25502.604166666668,
      "d": 122.39583333333212,
      "v": 124
    },
    {
      "midi": 69,
      "hit": false,
      "t": 25744.791666666675,
      "d": 257.8125,
      "v": 97
    },
    {
      "midi": 33,
      "hit": false,
      "t": 25747.395833333332,
      "d": 114.58333333333212,
      "v": 124
    },
    {
      "midi": 71,
      "hit": false,
      "t": 25994.79166666666,
      "d": 1929.6874999999964,
      "v": 95
    },
    {
      "midi": 71,
      "hit": false,
      "t": 25994.791666666675,
      "d": 502.6041666666679,
      "v": 97
    },
    {
      "midi": 28,
      "hit": false,
      "t": 25997.395833333332,
      "d": 276.0416666666679,
      "v": 124
    },
    {
      "midi": 67,
      "hit": false,
      "t": 25999.999999999993,
      "d": 1953.1249999999964,
      "v": 95
    },
    {
      "midi": 91,
      "hit": false,
      "t": 26000,
      "d": 2010.4166666666642,
      "v": 93
    },
    {
      "midi": 64,
      "hit": false,
      "t": 26494.791666666675,
      "d": 1585.9375,
      "v": 97
    },
    {
      "midi": 28,
      "hit": false,
      "t": 26497.395833333332,
      "d": 247.39583333333212,
      "v": 124
    },
    {
      "midi": 28,
      "hit": false,
      "t": 26872.395833333332,
      "d": 59.89583333333212,
      "v": 124
    },
    {
      "midi": 28,
      "hit": false,
      "t": 26997.395833333332,
      "d": 130.20833333333212,
      "v": 124
    },
    {
      "midi": 55,
      "hit": false,
      "t": 26997.395833333343,
      "d": 497.3958333333321,
      "v": 97
    },
    {
      "midi": 28,
      "hit": false,
      "t": 27247.395833333332,
      "d": 122.39583333333212,
      "v": 124
    },
    {
      "midi": 28,
      "hit": false,
      "t": 27497.395833333332,
      "d": 130.20833333333212,
      "v": 124
    },
    {
      "midi": 57,
      "hit": false,
      "t": 27497.395833333343,
      "d": 533.8541666666642,
      "v": 97
    },
    {
      "midi": 28,
      "hit": false,
      "t": 27747.395833333332,
      "d": 125,
      "v": 124
    },
    {
      "midi": 65,
      "hit": false,
      "t": 27997.39583333332,
      "d": 1867.1875,
      "v": 80
    },
    {
      "midi": 69,
      "hit": false,
      "t": 27997.39583333332,
      "d": 2000,
      "v": 86
    },
    {
      "midi": 48,
      "hit": false,
      "t": 27997.39583333332,
      "d": 4023.4375,
      "v": 74
    },
    {
      "midi": 69,
      "hit": false,
      "t": 27997.395833333343,
      "d": 2020.8333333333285,
      "v": 92
    },
    {
      "midi": 60,
      "hit": false,
      "t": 28002.604166666653,
      "d": 3809.8958333333358,
      "v": 97
    },
    {
      "midi": 29,
      "hit": false,
      "t": 28002.604166666664,
      "d": 325.5208333333321,
      "v": 124
    },
    {
      "midi": 48,
      "hit": false,
      "t": 28002.604166666675,
      "d": 997.3958333333358,
      "v": 97
    },
    {
      "midi": 89,
      "hit": false,
      "t": 28005.208333333332,
      "d": 2007.8125,
      "v": 95
    },
    {
      "midi": 29,
      "hit": false,
      "t": 28502.604166666664,
      "d": 236.97916666666788,
      "v": 124
    },
    {
      "midi": 29,
      "hit": false,
      "t": 28872.395833333332,
      "d": 65.10416666666788,
      "v": 124
    },
    {
      "midi": 29,
      "hit": false,
      "t": 28997.395833333332,
      "d": 145.83333333333212,
      "v": 124
    },
    {
      "midi": 57,
      "hit": false,
      "t": 28997.395833333343,
      "d": 528.6458333333321,
      "v": 97
    },
    {
      "midi": 29,
      "hit": false,
      "t": 29252.604166666664,
      "d": 135.41666666666788,
      "v": 124
    },
    {
      "midi": 55,
      "hit": false,
      "t": 29497.395833333343,
      "d": 268.22916666666424,
      "v": 97
    },
    {
      "midi": 29,
      "hit": false,
      "t": 29502.604166666664,
      "d": 140.625,
      "v": 124
    },
    {
      "midi": 53,
      "hit": false,
      "t": 29744.791666666675,
      "d": 302.0833333333285,
      "v": 97
    },
    {
      "midi": 29,
      "hit": false,
      "t": 29752.604166666664,
      "d": 125,
      "v": 124
    },
    {
      "midi": 64,
      "hit": false,
      "t": 29994.791666666653,
      "d": 1846.3541666666679,
      "v": 93
    },
    {
      "midi": 67,
      "hit": false,
      "t": 29994.791666666653,
      "d": 1960.9375,
      "v": 93
    },
    {
      "midi": 67,
      "hit": false,
      "t": 29997.39583333334,
      "d": 749.9999999999964,
      "v": 98
    },
    {
      "midi": 36,
      "hit": false,
      "t": 30002.604166666664,
      "d": 299.4791666666679,
      "v": 124
    },
    {
      "midi": 88,
      "hit": false,
      "t": 30002.604166666664,
      "d": 2031.25,
      "v": 97
    },
    {
      "midi": 55,
      "hit": false,
      "t": 30002.60416666667,
      "d": 536.4583333333321,
      "v": 97
    },
    {
      "midi": 36,
      "hit": false,
      "t": 30502.604166666664,
      "d": 213.54166666666788,
      "v": 124
    },
    {
      "midi": 48,
      "hit": false,
      "t": 30502.60416666667,
      "d": 466.1458333333321,
      "v": 97
    },
    {
      "midi": 72,
      "hit": false,
      "t": 30750.000000000004,
      "d": 3249.9999999999964,
      "v": 97
    },
    {
      "midi": 36,
      "hit": false,
      "t": 30872.395833333332,
      "d": 57.29166666666788,
      "v": 124
    },
    {
      "midi": 36,
      "hit": false,
      "t": 30997.395833333332,
      "d": 138.02083333333212,
      "v": 124
    },
    {
      "midi": 60,
      "hit": false,
      "t": 30997.395833333336,
      "d": 497.3958333333321,
      "v": 97
    },
    {
      "midi": 36,
      "hit": false,
      "t": 31249.999999999996,
      "d": 119.79166666666788,
      "v": 124
    },
    {
      "midi": 59,
      "hit": false,
      "t": 31497.395833333336,
      "d": 500,
      "v": 97
    },
    {
      "midi": 36,
      "hit": false,
      "t": 31502.604166666664,
      "d": 140.625,
      "v": 124
    },
    {
      "midi": 36,
      "hit": false,
      "t": 31749.999999999996,
      "d": 135.41666666666788,
      "v": 124
    },
    {
      "midi": 62,
      "hit": false,
      "t": 31994.791666666653,
      "d": 1890.6250000000036,
      "v": 72
    },
    {
      "midi": 65,
      "hit": false,
      "t": 31997.39583333332,
      "d": 1820.3125,
      "v": 97
    },
    {
      "midi": 50,
      "hit": false,
      "t": 31997.39583333332,
      "d": 2005.2083333333358,
      "v": 97
    },
    {
      "midi": 69,
      "hit": false,
      "t": 31997.39583333332,
      "d": 2018.2291666666715,
      "v": 97
    },
    {
      "midi": 57,
      "hit": false,
      "t": 31997.395833333336,
      "d": 1971.3541666666642,
      "v": 97
    },
    {
      "midi": 38,
      "hit": false,
      "t": 32002.604166666664,
      "d": 315.1041666666679,
      "v": 124
    },
    {
      "midi": 86,
      "hit": false,
      "t": 32002.604166666664,
      "d": 2039.0625,
      "v": 95
    },
    {
      "midi": 38,
      "hit": false,
      "t": 32497.395833333332,
      "d": 239.58333333333212,
      "v": 124
    },
    {
      "midi": 38,
      "hit": false,
      "t": 32872.39583333333,
      "d": 65.10416666666424,
      "v": 124
    },
    {
      "midi": 38,
      "hit": false,
      "t": 32997.39583333333,
      "d": 138.02083333333576,
      "v": 124
    },
    {
      "midi": 38,
      "hit": false,
      "t": 33247.39583333333,
      "d": 125,
      "v": 124
    },
    {
      "midi": 38,
      "hit": false,
      "t": 33497.39583333333,
      "d": 153.64583333333576,
      "v": 124
    },
    {
      "midi": 38,
      "hit": false,
      "t": 33747.39583333333,
      "d": 125,
      "v": 124
    },
    {
      "midi": 71,
      "hit": false,
      "t": 33994.79166666666,
      "d": 1846.3541666666715,
      "v": 74
    },
    {
      "midi": 67,
      "hit": false,
      "t": 33994.79166666666,
      "d": 1848.9583333333358,
      "v": 92
    },
    {
      "midi": 62,
      "hit": false,
      "t": 33994.79166666666,
      "d": 1872.3958333333358,
      "v": 72
    },
    {
      "midi": 76,
      "hit": false,
      "t": 33994.791666666664,
      "d": 557.2916666666715,
      "v": 76
    },
    {
      "midi": 55,
      "hit": false,
      "t": 33997.39583333332,
      "d": 1830.7291666666715,
      "v": 95
    },
    {
      "midi": 64,
      "hit": false,
      "t": 34000,
      "d": 500,
      "v": 95
    },
    {
      "midi": 43,
      "hit": false,
      "t": 34002.604166666664,
      "d": 354.16666666666424,
      "v": 124
    },
    {
      "midi": 88,
      "hit": false,
      "t": 34002.604166666664,
      "d": 546.875,
      "v": 97
    },
    {
      "midi": 74,
      "hit": false,
      "t": 34497.395833333336,
      "d": 1388.0208333333285,
      "v": 95
    },
    {
      "midi": 65,
      "hit": false,
      "t": 34500,
      "d": 250,
      "v": 95
    },
    {
      "midi": 43,
      "hit": false,
      "t": 34502.604166666664,
      "d": 260.41666666666424,
      "v": 124
    },
    {
      "midi": 89,
      "hit": false,
      "t": 34502.604166666664,
      "d": 289.0625,
      "v": 95
    },
    {
      "midi": 62,
      "hit": false,
      "t": 34750,
      "d": 1398.4375,
      "v": 95
    },
    {
      "midi": 86,
      "hit": false,
      "t": 34752.604166666664,
      "d": 1093.75,
      "v": 95
    },
    {
      "midi": 43,
      "hit": false,
      "t": 34877.604166666664,
      "d": 70.3125,
      "v": 124
    },
    {
      "midi": 43,
      "hit": false,
      "t": 35005.20833333333,
      "d": 231.77083333333576,
      "v": 124
    },
    {
      "midi": 41,
      "hit": false,
      "t": 35252.604166666664,
      "d": 236.97916666666424,
      "v": 124
    },
    {
      "midi": 40,
      "hit": false,
      "t": 35499.99999999999,
      "d": 317.7083333333285,
      "v": 124
    },
    {
      "midi": 38,
      "hit": false,
      "t": 35752.60416666666,
      "d": 289.0625,
      "v": 124
    },
    {
      "midi": 55,
      "hit": false,
      "t": 35877.604166666664,
      "d": 148.4375,
      "v": 111
    },
    {
      "midi": 67,
      "hit": false,
      "t": 35877.604166666664,
      "d": 156.25,
      "v": 111
    },
    {
      "midi": 72,
      "hit": false,
      "t": 35999.99999999999,
      "d": 1945.3125,
      "v": 95
    },
    {
      "midi": 76,
      "hit": false,
      "t": 35999.99999999999,
      "d": 2013.0208333333358,
      "v": 95
    },
    {
      "midi": 67,
      "hit": false,
      "t": 35999.99999999999,
      "d": 3880.2083333333358,
      "v": 92
    },
    {
      "midi": 55,
      "hit": false,
      "t": 35999.99999999999,
      "d": 4000.0000000000073,
      "v": 95
    },
    {
      "midi": 76,
      "hit": false,
      "t": 36000,
      "d": 273.4375,
      "v": 78
    },
    {
      "midi": 64,
      "hit": false,
      "t": 36002.604166666664,
      "d": 257.8125,
      "v": 111
    },
    {
      "midi": 60,
      "hit": false,
      "t": 36002.604166666664,
      "d": 75.52083333333576,
      "v": 91
    },
    {
      "midi": 36,
      "hit": false,
      "t": 36005.20833333332,
      "d": 315.1041666666715,
      "v": 126
    },
    {
      "midi": 60,
      "hit": false,
      "t": 36122.395833333336,
      "d": 70.3125,
      "v": 91
    },
    {
      "midi": 67,
      "hit": false,
      "t": 36252.604166666664,
      "d": 294.27083333333576,
      "v": 111
    },
    {
      "midi": 55,
      "hit": false,
      "t": 36252.604166666664,
      "d": 299.4791666666715,
      "v": 111
    },
    {
      "midi": 60,
      "hit": false,
      "t": 36252.60416666667,
      "d": 39.0625,
      "v": 91
    },
    {
      "midi": 60,
      "hit": false,
      "t": 36372.395833333336,
      "d": 72.91666666666424,
      "v": 91
    },
    {
      "midi": 36,
      "hit": false,
      "t": 36497.39583333333,
      "d": 247.39583333333576,
      "v": 126
    },
    {
      "midi": 60,
      "hit": false,
      "t": 36497.395833333336,
      "d": 70.3125,
      "v": 91
    },
    {
      "midi": 60,
      "hit": false,
      "t": 36622.395833333336,
      "d": 65.10416666666424,
      "v": 91
    },
    {
      "midi": 60,
      "hit": false,
      "t": 36747.395833333336,
      "d": 57.29166666666424,
      "v": 91
    },
    {
      "midi": 36,
      "hit": false,
      "t": 36872.39583333333,
      "d": 57.29166666666424,
      "v": 126
    },
    {
      "midi": 60,
      "hit": false,
      "t": 36872.395833333336,
      "d": 67.70833333333576,
      "v": 91
    },
    {
      "midi": 60,
      "hit": false,
      "t": 37000.00000000001,
      "d": 57.29166666666424,
      "v": 91
    },
    {
      "midi": 36,
      "hit": false,
      "t": 37002.60416666666,
      "d": 138.02083333333576,
      "v": 126
    },
    {
      "midi": 60,
      "hit": false,
      "t": 37125.00000000001,
      "d": 54.6875,
      "v": 91
    },
    {
      "midi": 36,
      "hit": false,
      "t": 37249.99999999999,
      "d": 127.60416666666424,
      "v": 124
    },
    {
      "midi": 60,
      "hit": false,
      "t": 37252.60416666667,
      "d": 54.6875,
      "v": 91
    },
    {
      "midi": 60,
      "hit": false,
      "t": 37375.00000000001,
      "d": 62.5,
      "v": 91
    },
    {
      "midi": 36,
      "hit": false,
      "t": 37499.99999999999,
      "d": 148.4375,
      "v": 124
    },
    {
      "midi": 76,
      "hit": false,
      "t": 37500,
      "d": 250,
      "v": 113
    },
    {
      "midi": 60,
      "hit": false,
      "t": 37502.60416666667,
      "d": 59.89583333333576,
      "v": 91
    },
    {
      "midi": 60,
      "hit": false,
      "t": 37627.60416666667,
      "d": 57.29166666666424,
      "v": 91
    },
    {
      "midi": 36,
      "hit": false,
      "t": 37747.39583333333,
      "d": 122.39583333333576,
      "v": 122
    },
    {
      "midi": 72,
      "hit": false,
      "t": 37747.395833333336,
      "d": 333.33333333333576,
      "v": 113
    },
    {
      "midi": 60,
      "hit": false,
      "t": 37747.395833333336,
      "d": 59.89583333333576,
      "v": 91
    },
    {
      "midi": 60,
      "hit": false,
      "t": 37875.00000000001,
      "d": 54.6875,
      "v": 91
    },
    {
      "midi": 31,
      "hit": false,
      "t": 37997.39583333333,
      "d": 330.72916666666424,
      "v": 122
    },
    {
      "midi": 74,
      "hit": false,
      "t": 37997.39583333333,
      "d": 1911.4583333333358,
      "v": 95
    },
    {
      "midi": 71,
      "hit": false,
      "t": 37999.99999999999,
      "d": 1979.1666666666715,
      "v": 95
    },
    {
      "midi": 55,
      "hit": false,
      "t": 38002.60416666667,
      "d": 52.08333333333576,
      "v": 91
    },
    {
      "midi": 74,
      "hit": false,
      "t": 38005.208333333336,
      "d": 395.83333333333576,
      "v": 113
    },
    {
      "midi": 55,
      "hit": false,
      "t": 38122.39583333334,
      "d": 78.125,
      "v": 91
    },
    {
      "midi": 55,
      "hit": false,
      "t": 38247.39583333334,
      "d": 52.08333333333576,
      "v": 91
    },
    {
      "midi": 55,
      "hit": false,
      "t": 38372.39583333334,
      "d": 70.3125,
      "v": 91
    },
    {
      "midi": 71,
      "hit": false,
      "t": 38380.208333333336,
      "d": 375,
      "v": 113
    },
    {
      "midi": 31,
      "hit": false,
      "t": 38497.39583333333,
      "d": 276.04166666666424,
      "v": 122
    },
    {
      "midi": 55,
      "hit": false,
      "t": 38502.60416666668,
      "d": 57.29166666666424,
      "v": 91
    },
    {
      "midi": 55,
      "hit": false,
      "t": 38627.60416666668,
      "d": 62.5,
      "v": 91
    },
    {
      "midi": 55,
      "hit": false,
      "t": 38752.60416666668,
      "d": 52.08333333333576,
      "v": 91
    },
    {
      "midi": 67,
      "hit": false,
      "t": 38755.208333333336,
      "d": 783.8541666666642,
      "v": 113
    },
    {
      "midi": 31,
      "hit": false,
      "t": 38877.60416666666,
      "d": 78.125,
      "v": 122
    },
    {
      "midi": 55,
      "hit": false,
      "t": 38877.60416666668,
      "d": 62.5,
      "v": 91
    },
    {
      "midi": 55,
      "hit": false,
      "t": 39002.60416666668,
      "d": 59.89583333333576,
      "v": 91
    },
    {
      "midi": 31,
      "hit": false,
      "t": 39005.20833333332,
      "d": 161.45833333333576,
      "v": 122
    },
    {
      "midi": 55,
      "hit": false,
      "t": 39127.60416666668,
      "d": 57.29166666666424,
      "v": 91
    },
    {
      "midi": 55,
      "hit": false,
      "t": 39252.60416666668,
      "d": 54.6875,
      "v": 91
    },
    {
      "midi": 31,
      "hit": false,
      "t": 39255.20833333332,
      "d": 138.02083333333576,
      "v": 122
    },
    {
      "midi": 55,
      "hit": false,
      "t": 39377.60416666668,
      "d": 70.3125,
      "v": 91
    },
    {
      "midi": 31,
      "hit": false,
      "t": 39502.60416666666,
      "d": 145.83333333333576,
      "v": 122
    },
    {
      "midi": 55,
      "hit": false,
      "t": 39505.20833333334,
      "d": 52.08333333333576,
      "v": 91
    },
    {
      "midi": 55,
      "hit": false,
      "t": 39627.60416666668,
      "d": 39.0625,
      "v": 91
    },
    {
      "midi": 31,
      "hit": false,
      "t": 39752.60416666666,
      "d": 111.97916666666424,
      "v": 122
    },
    {
      "midi": 55,
      "hit": false,
      "t": 39752.60416666668,
      "d": 49.47916666666424,
      "v": 91
    },
    {
      "midi": 55,
      "hit": false,
      "t": 39877.60416666668,
      "d": 75.52083333333576,
      "v": 91
    },
    {
      "midi": 59,
      "hit": false,
      "t": 39880.208333333336,
      "d": 119.79166666666424,
      "v": 111
    },
    {
      "midi": 71,
      "hit": false,
      "t": 39880.208333333336,
      "d": 127.60416666665697,
      "v": 111
    },
    {
      "midi": 69,
      "hit": false,
      "t": 40000,
      "d": 1953.125,
      "v": 97
    },
    {
      "midi": 33,
      "hit": false,
      "t": 40002.60416666666,
      "d": 328.125,
      "v": 122
    },
    {
      "midi": 72,
      "hit": false,
      "t": 40002.604166666664,
      "d": 296.8749999999927,
      "v": 76
    },
    {
      "midi": 72,
      "hit": false,
      "t": 40002.604166666664,
      "d": 1986.9791666666715,
      "v": 97
    },
    {
      "midi": 64,
      "hit": false,
      "t": 40002.604166666664,
      "d": 3807.291666666679,
      "v": 97
    },
    {
      "midi": 52,
      "hit": false,
      "t": 40002.604166666664,
      "d": 4000.000000000022,
      "v": 97
    },
    {
      "midi": 57,
      "hit": false,
      "t": 40002.60416666668,
      "d": 59.89583333333576,
      "v": 91
    },
    {
      "midi": 60,
      "hit": false,
      "t": 40005.20833333333,
      "d": 252.60416666666424,
      "v": 111
    },
    {
      "midi": 57,
      "hit": false,
      "t": 40127.60416666668,
      "d": 62.5,
      "v": 91
    },
    {
      "midi": 69,
      "hit": false,
      "t": 40252.60416666666,
      "d": 330.72916666666424,
      "v": 111
    },
    {
      "midi": 57,
      "hit": false,
      "t": 40252.60416666666,
      "d": 338.54166666666424,
      "v": 111
    },
    {
      "midi": 57,
      "hit": false,
      "t": 40252.60416666668,
      "d": 52.08333333333576,
      "v": 91
    },
    {
      "midi": 57,
      "hit": false,
      "t": 40377.60416666668,
      "d": 62.5,
      "v": 91
    },
    {
      "midi": 33,
      "hit": false,
      "t": 40502.60416666666,
      "d": 260.41666666666424,
      "v": 124
    },
    {
      "midi": 57,
      "hit": false,
      "t": 40502.60416666668,
      "d": 49.47916666666424,
      "v": 91
    },
    {
      "midi": 57,
      "hit": false,
      "t": 40627.60416666668,
      "d": 75.52083333333576,
      "v": 91
    },
    {
      "midi": 57,
      "hit": false,
      "t": 40752.60416666668,
      "d": 46.875,
      "v": 95
    },
    {
      "midi": 33,
      "hit": false,
      "t": 40877.60416666666,
      "d": 65.10416666666424,
      "v": 124
    },
    {
      "midi": 57,
      "hit": false,
      "t": 40877.60416666668,
      "d": 62.5,
      "v": 95
    },
    {
      "midi": 57,
      "hit": false,
      "t": 41002.60416666668,
      "d": 54.6875,
      "v": 95
    },
    {
      "midi": 33,
      "hit": false,
      "t": 41005.20833333332,
      "d": 145.83333333333576,
      "v": 124
    },
    {
      "midi": 57,
      "hit": false,
      "t": 41127.60416666668,
      "d": 67.70833333333576,
      "v": 95
    },
    {
      "midi": 57,
      "hit": false,
      "t": 41247.39583333335,
      "d": 59.89583333333576,
      "v": 95
    },
    {
      "midi": 33,
      "hit": false,
      "t": 41255.20833333332,
      "d": 132.8125,
      "v": 124
    },
    {
      "midi": 57,
      "hit": false,
      "t": 41372.39583333335,
      "d": 62.5,
      "v": 95
    },
    {
      "midi": 57,
      "hit": false,
      "t": 41497.39583333335,
      "d": 59.89583333333576,
      "v": 95
    },
    {
      "midi": 33,
      "hit": false,
      "t": 41502.60416666666,
      "d": 122.39583333333576,
      "v": 124
    },
    {
      "midi": 72,
      "hit": false,
      "t": 41502.604166666664,
      "d": 244.79166666666424,
      "v": 113
    },
    {
      "midi": 57,
      "hit": false,
      "t": 41622.39583333335,
      "d": 59.89583333333576,
      "v": 95
    },
    {
      "midi": 57,
      "hit": false,
      "t": 41744.791666666686,
      "d": 65.10416666666424,
      "v": 95
    },
    {
      "midi": 33,
      "hit": false,
      "t": 41747.39583333333,
      "d": 114.58333333333576,
      "v": 124
    },
    {
      "midi": 69,
      "hit": false,
      "t": 41752.604166666664,
      "d": 294.27083333333576,
      "v": 113
    },
    {
      "midi": 57,
      "hit": false,
      "t": 41872.39583333335,
      "d": 57.29166666666424,
      "v": 95
    },
    {
      "midi": 71,
      "hit": false,
      "t": 41994.79166666667,
      "d": 1929.6875000000073,
      "v": 95
    },
    {
      "midi": 28,
      "hit": false,
      "t": 41997.39583333333,
      "d": 276.04166666666424,
      "v": 124
    },
    {
      "midi": 52,
      "hit": false,
      "t": 41997.39583333335,
      "d": 52.08333333333576,
      "v": 95
    },
    {
      "midi": 67,
      "hit": false,
      "t": 42000.00000000001,
      "d": 1953.1250000000073,
      "v": 95
    },
    {
      "midi": 71,
      "hit": false,
      "t": 42002.604166666664,
      "d": 544.2708333333358,
      "v": 113
    },
    {
      "midi": 52,
      "hit": false,
      "t": 42122.39583333335,
      "d": 65.10416666666424,
      "v": 95
    },
    {
      "midi": 52,
      "hit": false,
      "t": 42247.39583333335,
      "d": 52.08333333333576,
      "v": 95
    },
    {
      "midi": 52,
      "hit": false,
      "t": 42375.00000000002,
      "d": 62.5,
      "v": 95
    },
    {
      "midi": 28,
      "hit": false,
      "t": 42497.39583333333,
      "d": 247.39583333333576,
      "v": 124
    },
    {
      "midi": 52,
      "hit": false,
      "t": 42497.39583333336,
      "d": 54.6875,
      "v": 95
    },
    {
      "midi": 67,
      "hit": false,
      "t": 42505.208333333336,
      "d": 242.1875,
      "v": 113
    },
    {
      "midi": 52,
      "hit": false,
      "t": 42622.39583333336,
      "d": 70.3125,
      "v": 95
    },
    {
      "midi": 52,
      "hit": false,
      "t": 42747.39583333336,
      "d": 49.47916666666424,
      "v": 95
    },
    {
      "midi": 64,
      "hit": false,
      "t": 42752.60416666667,
      "d": 611.9791666666642,
      "v": 111
    },
    {
      "midi": 52,
      "hit": false,
      "t": 42869.791666666686,
      "d": 70.3125,
      "v": 95
    },
    {
      "midi": 28,
      "hit": false,
      "t": 42872.39583333333,
      "d": 59.89583333333576,
      "v": 124
    },
    {
      "midi": 28,
      "hit": false,
      "t": 42997.39583333333,
      "d": 130.20833333333576,
      "v": 124
    },
    {
      "midi": 52,
      "hit": false,
      "t": 42997.39583333335,
      "d": 49.47916666666424,
      "v": 95
    },
    {
      "midi": 52,
      "hit": false,
      "t": 43122.39583333335,
      "d": 62.5,
      "v": 95
    },
    {
      "midi": 28,
      "hit": false,
      "t": 43247.39583333333,
      "d": 122.39583333333576,
      "v": 124
    },
    {
      "midi": 52,
      "hit": false,
      "t": 43247.39583333335,
      "d": 54.6875,
      "v": 95
    },
    {
      "midi": 52,
      "hit": false,
      "t": 43369.791666666686,
      "d": 70.3125,
      "v": 95
    },
    {
      "midi": 28,
      "hit": false,
      "t": 43497.39583333333,
      "d": 130.20833333333576,
      "v": 124
    },
    {
      "midi": 52,
      "hit": false,
      "t": 43497.39583333335,
      "d": 57.29166666666424,
      "v": 95
    },
    {
      "midi": 52,
      "hit": false,
      "t": 43625.000000000015,
      "d": 44.27083333333576,
      "v": 95
    },
    {
      "midi": 28,
      "hit": false,
      "t": 43747.39583333333,
      "d": 125,
      "v": 124
    },
    {
      "midi": 52,
      "hit": false,
      "t": 43747.39583333335,
      "d": 52.08333333333576,
      "v": 95
    },
    {
      "midi": 52,
      "hit": false,
      "t": 43872.39583333335,
      "d": 67.70833333333576,
      "v": 95
    },
    {
      "midi": 67,
      "hit": false,
      "t": 43880.20833333332,
      "d": 122.39583333333576,
      "v": 113
    },
    {
      "midi": 55,
      "hit": false,
      "t": 43880.20833333332,
      "d": 125,
      "v": 113
    },
    {
      "midi": 65,
      "hit": false,
      "t": 43997.39583333335,
      "d": 1867.1875,
      "v": 80
    },
    {
      "midi": 69,
      "hit": false,
      "t": 43997.39583333335,
      "d": 2000,
      "v": 86
    },
    {
      "midi": 48,
      "hit": false,
      "t": 43997.39583333335,
      "d": 4023.4375,
      "v": 74
    },
    {
      "midi": 53,
      "hit": false,
      "t": 43997.39583333335,
      "d": 57.29166666666424,
      "v": 95
    },
    {
      "midi": 57,
      "hit": false,
      "t": 44002.60416666666,
      "d": 242.1875,
      "v": 113
    },
    {
      "midi": 69,
      "hit": false,
      "t": 44002.60416666666,
      "d": 247.39583333333576,
      "v": 113
    },
    {
      "midi": 29,
      "hit": false,
      "t": 44002.604166666664,
      "d": 325.52083333333576,
      "v": 124
    },
    {
      "midi": 60,
      "hit": false,
      "t": 44002.604166666686,
      "d": 3809.8958333333285,
      "v": 97
    },
    {
      "midi": 53,
      "hit": false,
      "t": 44122.39583333335,
      "d": 59.89583333333576,
      "v": 95
    },
    {
      "midi": 53,
      "hit": false,
      "t": 44247.39583333335,
      "d": 54.6875,
      "v": 95
    },
    {
      "midi": 60,
      "hit": false,
      "t": 44255.20833333333,
      "d": 307.29166666666424,
      "v": 117
    },
    {
      "midi": 48,
      "hit": false,
      "t": 44255.20833333333,
      "d": 328.125,
      "v": 117
    },
    {
      "midi": 53,
      "hit": false,
      "t": 44372.39583333335,
      "d": 59.89583333333576,
      "v": 95
    },
    {
      "midi": 53,
      "hit": false,
      "t": 44497.39583333335,
      "d": 52.08333333333576,
      "v": 95
    },
    {
      "midi": 29,
      "hit": false,
      "t": 44502.604166666664,
      "d": 236.97916666666424,
      "v": 124
    },
    {
      "midi": 53,
      "hit": false,
      "t": 44627.604166666686,
      "d": 59.89583333333576,
      "v": 95
    },
    {
      "midi": 53,
      "hit": false,
      "t": 44747.39583333336,
      "d": 54.6875,
      "v": 95
    },
    {
      "midi": 29,
      "hit": false,
      "t": 44872.39583333333,
      "d": 65.10416666666424,
      "v": 124
    },
    {
      "midi": 53,
      "hit": false,
      "t": 44875.00000000002,
      "d": 59.89583333333576,
      "v": 95
    },
    {
      "midi": 29,
      "hit": false,
      "t": 44997.39583333333,
      "d": 145.83333333333576,
      "v": 124
    },
    {
      "midi": 53,
      "hit": false,
      "t": 45000.00000000002,
      "d": 59.89583333333576,
      "v": 95
    },
    {
      "midi": 53,
      "hit": false,
      "t": 45127.60416666669,
      "d": 67.70833333333576,
      "v": 95
    },
    {
      "midi": 29,
      "hit": false,
      "t": 45252.604166666664,
      "d": 135.41666666666424,
      "v": 124
    },
    {
      "midi": 53,
      "hit": false,
      "t": 45252.60416666669,
      "d": 57.29166666666424,
      "v": 95
    },
    {
      "midi": 53,
      "hit": false,
      "t": 45372.39583333336,
      "d": 78.125,
      "v": 95
    },
    {
      "midi": 53,
      "hit": false,
      "t": 45497.39583333336,
      "d": 62.5,
      "v": 95
    },
    {
      "midi": 29,
      "hit": false,
      "t": 45502.604166666664,
      "d": 140.625,
      "v": 124
    },
    {
      "midi": 65,
      "hit": false,
      "t": 45502.60416666667,
      "d": 151.04166666666424,
      "v": 109
    },
    {
      "midi": 53,
      "hit": false,
      "t": 45627.60416666669,
      "d": 67.70833333333576,
      "v": 95
    },
    {
      "midi": 53,
      "hit": false,
      "t": 45747.395833333365,
      "d": 57.29166666666424,
      "v": 95
    },
    {
      "midi": 65,
      "hit": false,
      "t": 45750,
      "d": 231.77083333333576,
      "v": 109
    },
    {
      "midi": 29,
      "hit": false,
      "t": 45752.604166666664,
      "d": 125,
      "v": 124
    },
    {
      "midi": 53,
      "hit": false,
      "t": 45872.395833333365,
      "d": 59.89583333333576,
      "v": 95
    },
    {
      "midi": 64,
      "hit": false,
      "t": 45994.791666666686,
      "d": 1846.3541666666642,
      "v": 93
    },
    {
      "midi": 67,
      "hit": false,
      "t": 45994.791666666686,
      "d": 1960.9375,
      "v": 93
    },
    {
      "midi": 48,
      "hit": false,
      "t": 45997.395833333365,
      "d": 49.47916666666424,
      "v": 95
    },
    {
      "midi": 36,
      "hit": false,
      "t": 46002.604166666664,
      "d": 299.47916666666424,
      "v": 124
    },
    {
      "midi": 64,
      "hit": false,
      "t": 46005.208333333336,
      "d": 416.6666666666715,
      "v": 109
    },
    {
      "midi": 48,
      "hit": false,
      "t": 46127.60416666669,
      "d": 62.5,
      "v": 95
    },
    {
      "midi": 48,
      "hit": false,
      "t": 46247.39583333336,
      "d": 49.47916666666424,
      "v": 95
    },
    {
      "midi": 48,
      "hit": false,
      "t": 46372.39583333336,
      "d": 59.89583333333576,
      "v": 95
    },
    {
      "midi": 67,
      "hit": false,
      "t": 46377.60416666667,
      "d": 382.8125000000073,
      "v": 109
    },
    {
      "midi": 48,
      "hit": false,
      "t": 46500.00000000003,
      "d": 52.08333333333576,
      "v": 95
    },
    {
      "midi": 36,
      "hit": false,
      "t": 46502.604166666664,
      "d": 213.54166666666424,
      "v": 124
    },
    {
      "midi": 48,
      "hit": false,
      "t": 46627.6041666667,
      "d": 65.10416666666424,
      "v": 95
    },
    {
      "midi": 48,
      "hit": false,
      "t": 46752.6041666667,
      "d": 52.08333333333576,
      "v": 95
    },
    {
      "midi": 72,
      "hit": false,
      "t": 46755.20833333334,
      "d": 848.9583333333358,
      "v": 109
    },
    {
      "midi": 36,
      "hit": false,
      "t": 46872.39583333333,
      "d": 57.29166666666424,
      "v": 124
    },
    {
      "midi": 48,
      "hit": false,
      "t": 46877.6041666667,
      "d": 62.5,
      "v": 95
    },
    {
      "midi": 36,
      "hit": false,
      "t": 46997.39583333333,
      "d": 138.02083333333576,
      "v": 124
    },
    {
      "midi": 48,
      "hit": false,
      "t": 47002.6041666667,
      "d": 54.6875,
      "v": 95
    },
    {
      "midi": 48,
      "hit": false,
      "t": 47127.6041666667,
      "d": 67.70833333333576,
      "v": 95
    },
    {
      "midi": 36,
      "hit": false,
      "t": 47250,
      "d": 119.79166666666424,
      "v": 124
    },
    {
      "midi": 48,
      "hit": false,
      "t": 47252.6041666667,
      "d": 54.6875,
      "v": 95
    },
    {
      "midi": 48,
      "hit": false,
      "t": 47377.6041666667,
      "d": 78.125,
      "v": 95
    },
    {
      "midi": 36,
      "hit": false,
      "t": 47502.604166666664,
      "d": 140.625,
      "v": 124
    },
    {
      "midi": 48,
      "hit": false,
      "t": 47502.6041666667,
      "d": 54.6875,
      "v": 95
    },
    {
      "midi": 48,
      "hit": false,
      "t": 47627.6041666667,
      "d": 70.3125,
      "v": 95
    },
    {
      "midi": 36,
      "hit": false,
      "t": 47750,
      "d": 135.41666666666424,
      "v": 124
    },
    {
      "midi": 48,
      "hit": false,
      "t": 47752.6041666667,
      "d": 54.6875,
      "v": 95
    },
    {
      "midi": 59,
      "hit": false,
      "t": 47877.604166666664,
      "d": 101.5625,
      "v": 113
    },
    {
      "midi": 71,
      "hit": false,
      "t": 47877.604166666664,
      "d": 125,
      "v": 113
    },
    {
      "midi": 48,
      "hit": false,
      "t": 47877.6041666667,
      "d": 70.3125,
      "v": 95
    },
    {
      "midi": 62,
      "hit": false,
      "t": 47994.791666666686,
      "d": 1890.625,
      "v": 72
    },
    {
      "midi": 72,
      "hit": false,
      "t": 47997.39583333333,
      "d": 322.9166666666715,
      "v": 117
    },
    {
      "midi": 65,
      "hit": false,
      "t": 47997.39583333335,
      "d": 1820.3125,
      "v": 97
    },
    {
      "midi": 50,
      "hit": false,
      "t": 47997.39583333335,
      "d": 2005.2083333333358,
      "v": 97
    },
    {
      "midi": 69,
      "hit": false,
      "t": 47997.39583333335,
      "d": 2018.2291666666715,
      "v": 97
    },
    {
      "midi": 38,
      "hit": false,
      "t": 48002.604166666664,
      "d": 315.10416666666424,
      "v": 124
    },
    {
      "midi": 60,
      "hit": false,
      "t": 48002.604166666664,
      "d": 289.0625,
      "v": 113
    },
    {
      "midi": 50,
      "hit": false,
      "t": 48002.6041666667,
      "d": 57.29166666666424,
      "v": 95
    },
    {
      "midi": 50,
      "hit": false,
      "t": 48127.6041666667,
      "d": 59.89583333333576,
      "v": 95
    },
    {
      "midi": 50,
      "hit": false,
      "t": 48247.39583333337,
      "d": 46.875,
      "v": 95
    },
    {
      "midi": 57,
      "hit": false,
      "t": 48252.604166666664,
      "d": 343.7500000000073,
      "v": 117
    },
    {
      "midi": 69,
      "hit": false,
      "t": 48255.20833333333,
      "d": 328.1250000000073,
      "v": 113
    },
    {
      "midi": 50,
      "hit": false,
      "t": 48372.39583333337,
      "d": 65.10416666666424,
      "v": 95
    },
    {
      "midi": 38,
      "hit": false,
      "t": 48497.39583333333,
      "d": 239.58333333333576,
      "v": 124
    },
    {
      "midi": 50,
      "hit": false,
      "t": 48497.39583333337,
      "d": 52.08333333333576,
      "v": 95
    },
    {
      "midi": 50,
      "hit": false,
      "t": 48627.60416666671,
      "d": 62.5,
      "v": 95
    },
    {
      "midi": 50,
      "hit": false,
      "t": 48747.39583333337,
      "d": 52.08333333333576,
      "v": 93
    },
    {
      "midi": 38,
      "hit": false,
      "t": 48872.39583333333,
      "d": 65.10416666666424,
      "v": 124
    },
    {
      "midi": 50,
      "hit": false,
      "t": 48872.39583333337,
      "d": 70.3125,
      "v": 93
    },
    {
      "midi": 38,
      "hit": false,
      "t": 48997.39583333333,
      "d": 138.02083333333576,
      "v": 124
    },
    {
      "midi": 50,
      "hit": false,
      "t": 48997.39583333337,
      "d": 54.6875,
      "v": 93
    },
    {
      "midi": 50,
      "hit": false,
      "t": 49125.00000000004,
      "d": 57.29166666666424,
      "v": 93
    },
    {
      "midi": 38,
      "hit": false,
      "t": 49247.39583333333,
      "d": 125,
      "v": 124
    },
    {
      "midi": 50,
      "hit": false,
      "t": 49252.6041666667,
      "d": 54.6875,
      "v": 93
    },
    {
      "midi": 50,
      "hit": false,
      "t": 49372.395833333365,
      "d": 65.10416666666424,
      "v": 93
    },
    {
      "midi": 38,
      "hit": false,
      "t": 49497.39583333333,
      "d": 153.64583333333576,
      "v": 124
    },
    {
      "midi": 71,
      "hit": false,
      "t": 49497.39583333334,
      "d": 291.6666666666715,
      "v": 111
    },
    {
      "midi": 50,
      "hit": false,
      "t": 49502.60416666669,
      "d": 54.6875,
      "v": 93
    },
    {
      "midi": 50,
      "hit": false,
      "t": 49627.60416666669,
      "d": 31.25,
      "v": 93
    },
    {
      "midi": 38,
      "hit": false,
      "t": 49747.39583333333,
      "d": 125,
      "v": 124
    },
    {
      "midi": 72,
      "hit": false,
      "t": 49752.60416666668,
      "d": 263.02083333333576,
      "v": 111
    },
    {
      "midi": 50,
      "hit": false,
      "t": 49752.60416666669,
      "d": 46.875,
      "v": 93
    },
    {
      "midi": 50,
      "hit": false,
      "t": 49877.60416666669,
      "d": 70.3125,
      "v": 93
    },
    {
      "midi": 71,
      "hit": false,
      "t": 49994.791666666686,
      "d": 1846.3541666666715,
      "v": 74
    },
    {
      "midi": 67,
      "hit": false,
      "t": 49994.791666666686,
      "d": 1848.9583333333358,
      "v": 92
    },
    {
      "midi": 62,
      "hit": false,
      "t": 49994.791666666686,
      "d": 1872.3958333333358,
      "v": 72
    },
    {
      "midi": 55,
      "hit": false,
      "t": 49997.39583333335,
      "d": 1830.7291666666715,
      "v": 95
    },
    {
      "midi": 31,
      "hit": false,
      "t": 49999.99999999999,
      "d": 354.16666666666424,
      "v": 124
    },
    {
      "midi": 55,
      "hit": false,
      "t": 50002.60416666669,
      "d": 54.6875,
      "v": 93
    },
    {
      "midi": 76,
      "hit": false,
      "t": 50005.20833333335,
      "d": 398.4375,
      "v": 111
    },
    {
      "midi": 55,
      "hit": false,
      "t": 50127.60416666669,
      "d": 59.89583333333576,
      "v": 93
    },
    {
      "midi": 55,
      "hit": false,
      "t": 50252.60416666669,
      "d": 44.27083333333576,
      "v": 93
    },
    {
      "midi": 55,
      "hit": false,
      "t": 50377.60416666669,
      "d": 62.5,
      "v": 93
    },
    {
      "midi": 77,
      "hit": false,
      "t": 50380.20833333335,
      "d": 369.79166666666424,
      "v": 111
    },
    {
      "midi": 31,
      "hit": false,
      "t": 50499.99999999999,
      "d": 260.41666666666424,
      "v": 124
    },
    {
      "midi": 55,
      "hit": false,
      "t": 50502.60416666669,
      "d": 46.875,
      "v": 93
    },
    {
      "midi": 55,
      "hit": false,
      "t": 50627.60416666669,
      "d": 54.6875,
      "v": 93
    },
    {
      "midi": 74,
      "hit": false,
      "t": 50750.000000000015,
      "d": 906.25,
      "v": 111
    },
    {
      "midi": 55,
      "hit": false,
      "t": 50752.60416666669,
      "d": 54.6875,
      "v": 93
    },
    {
      "midi": 31,
      "hit": false,
      "t": 50874.99999999999,
      "d": 70.3125,
      "v": 124
    },
    {
      "midi": 55,
      "hit": false,
      "t": 50877.60416666669,
      "d": 59.89583333333576,
      "v": 93
    },
    {
      "midi": 31,
      "hit": false,
      "t": 51002.60416666666,
      "d": 231.77083333333576,
      "v": 124
    },
    {
      "midi": 55,
      "hit": false,
      "t": 51002.60416666669,
      "d": 54.6875,
      "v": 93
    },
    {
      "midi": 55,
      "hit": false,
      "t": 51127.60416666669,
      "d": 62.5,
      "v": 93
    },
    {
      "midi": 31,
      "hit": false,
      "t": 51249.99999999999,
      "d": 236.97916666666424,
      "v": 124
    },
    {
      "midi": 55,
      "hit": false,
      "t": 51252.60416666669,
      "d": 54.6875,
      "v": 93
    },
    {
      "midi": 55,
      "hit": false,
      "t": 51377.60416666669,
      "d": 52.08333333333576,
      "v": 93
    },
    {
      "midi": 31,
      "hit": false,
      "t": 51499.99999999999,
      "d": 250,
      "v": 124
    },
    {
      "midi": 55,
      "hit": false,
      "t": 51502.60416666669,
      "d": 52.08333333333576,
      "v": 93
    },
    {
      "midi": 55,
      "hit": false,
      "t": 51627.60416666669,
      "d": 62.5,
      "v": 93
    },
    {
      "midi": 33,
      "hit": false,
      "t": 51749.99999999999,
      "d": 122.39583333333576,
      "v": 124
    },
    {
      "midi": 55,
      "hit": false,
      "t": 51752.60416666669,
      "d": 46.875,
      "v": 93
    },
    {
      "midi": 35,
      "hit": false,
      "t": 51874.99999999999,
      "d": 122.39583333333576,
      "v": 124
    },
    {
      "midi": 55,
      "hit": false,
      "t": 51875.00000000003,
      "d": 46.875,
      "v": 93
    },
    {
      "midi": 55,
      "hit": false,
      "t": 51877.60416666667,
      "d": 148.4375,
      "v": 111
    },
    {
      "midi": 67,
      "hit": false,
      "t": 51877.60416666667,
      "d": 156.25,
      "v": 111
    },
    {
      "midi": 76,
      "hit": false,
      "t": 52000.00000000001,
      "d": 273.4375,
      "v": 78
    },
    {
      "midi": 72,
      "hit": false,
      "t": 52000.00000000002,
      "d": 1945.3125,
      "v": 95
    },
    {
      "midi": 76,
      "hit": false,
      "t": 52000.00000000002,
      "d": 2013.0208333333358,
      "v": 95
    },
    {
      "midi": 67,
      "hit": false,
      "t": 52000.00000000002,
      "d": 3880.2083333333358,
      "v": 92
    },
    {
      "midi": 55,
      "hit": false,
      "t": 52000.00000000002,
      "d": 4000.0000000000073,
      "v": 95
    },
    {
      "midi": 64,
      "hit": false,
      "t": 52002.60416666667,
      "d": 257.8125,
      "v": 111
    },
    {
      "midi": 60,
      "hit": false,
      "t": 52002.60416666669,
      "d": 75.52083333333576,
      "v": 91
    },
    {
      "midi": 36,
      "hit": false,
      "t": 52005.20833333333,
      "d": 315.10416666666424,
      "v": 126
    },
    {
      "midi": 60,
      "hit": false,
      "t": 52122.395833333365,
      "d": 70.3125,
      "v": 91
    },
    {
      "midi": 67,
      "hit": false,
      "t": 52252.60416666667,
      "d": 294.27083333333576,
      "v": 111
    },
    {
      "midi": 55,
      "hit": false,
      "t": 52252.60416666667,
      "d": 299.4791666666715,
      "v": 111
    },
    {
      "midi": 60,
      "hit": false,
      "t": 52252.6041666667,
      "d": 39.0625,
      "v": 91
    },
    {
      "midi": 60,
      "hit": false,
      "t": 52372.395833333365,
      "d": 72.91666666666424,
      "v": 91
    },
    {
      "midi": 36,
      "hit": false,
      "t": 52497.39583333333,
      "d": 247.39583333333576,
      "v": 126
    },
    {
      "midi": 60,
      "hit": false,
      "t": 52497.395833333365,
      "d": 70.3125,
      "v": 91
    },
    {
      "midi": 60,
      "hit": false,
      "t": 52622.395833333365,
      "d": 65.10416666666424,
      "v": 91
    },
    {
      "midi": 60,
      "hit": false,
      "t": 52747.395833333365,
      "d": 57.29166666666424,
      "v": 91
    },
    {
      "midi": 36,
      "hit": false,
      "t": 52872.39583333333,
      "d": 57.29166666666424,
      "v": 126
    },
    {
      "midi": 60,
      "hit": false,
      "t": 52872.395833333365,
      "d": 67.70833333333576,
      "v": 91
    },
    {
      "midi": 60,
      "hit": false,
      "t": 53000.00000000004,
      "d": 57.29166666666424,
      "v": 91
    },
    {
      "midi": 36,
      "hit": false,
      "t": 53002.60416666666,
      "d": 138.02083333333576,
      "v": 126
    },
    {
      "midi": 60,
      "hit": false,
      "t": 53125.00000000004,
      "d": 54.6875,
      "v": 91
    },
    {
      "midi": 36,
      "hit": false,
      "t": 53249.99999999999,
      "d": 127.60416666666424,
      "v": 124
    },
    {
      "midi": 60,
      "hit": false,
      "t": 53252.6041666667,
      "d": 54.6875,
      "v": 91
    },
    {
      "midi": 60,
      "hit": false,
      "t": 53375.00000000004,
      "d": 62.5,
      "v": 91
    },
    {
      "midi": 36,
      "hit": false,
      "t": 53499.99999999999,
      "d": 148.4375,
      "v": 124
    },
    {
      "midi": 76,
      "hit": false,
      "t": 53500.000000000015,
      "d": 250,
      "v": 113
    },
    {
      "midi": 60,
      "hit": false,
      "t": 53502.6041666667,
      "d": 59.89583333333576,
      "v": 91
    },
    {
      "midi": 60,
      "hit": false,
      "t": 53627.6041666667,
      "d": 57.29166666666424,
      "v": 91
    },
    {
      "midi": 36,
      "hit": false,
      "t": 53747.39583333333,
      "d": 122.39583333333576,
      "v": 122
    },
    {
      "midi": 72,
      "hit": false,
      "t": 53747.39583333335,
      "d": 333.33333333333576,
      "v": 113
    },
    {
      "midi": 60,
      "hit": false,
      "t": 53747.395833333365,
      "d": 59.89583333333576,
      "v": 91
    },
    {
      "midi": 60,
      "hit": false,
      "t": 53875.00000000004,
      "d": 54.6875,
      "v": 91
    },
    {
      "midi": 31,
      "hit": false,
      "t": 53997.39583333333,
      "d": 330.72916666666424,
      "v": 122
    },
    {
      "midi": 74,
      "hit": false,
      "t": 53997.39583333336,
      "d": 1911.4583333333358,
      "v": 95
    },
    {
      "midi": 71,
      "hit": false,
      "t": 54000.00000000002,
      "d": 1979.1666666666715,
      "v": 95
    },
    {
      "midi": 55,
      "hit": false,
      "t": 54002.6041666667,
      "d": 52.08333333333576,
      "v": 91
    },
    {
      "midi": 74,
      "hit": false,
      "t": 54005.20833333335,
      "d": 395.83333333333576,
      "v": 113
    },
    {
      "midi": 55,
      "hit": false,
      "t": 54122.39583333337,
      "d": 78.125,
      "v": 91
    },
    {
      "midi": 55,
      "hit": false,
      "t": 54247.39583333337,
      "d": 52.08333333333576,
      "v": 91
    },
    {
      "midi": 55,
      "hit": false,
      "t": 54372.39583333337,
      "d": 70.3125,
      "v": 91
    },
    {
      "midi": 71,
      "hit": false,
      "t": 54380.20833333335,
      "d": 375,
      "v": 113
    },
    {
      "midi": 31,
      "hit": false,
      "t": 54497.39583333333,
      "d": 276.04166666666424,
      "v": 122
    },
    {
      "midi": 55,
      "hit": false,
      "t": 54502.60416666671,
      "d": 57.29166666666424,
      "v": 91
    },
    {
      "midi": 55,
      "hit": false,
      "t": 54627.60416666671,
      "d": 62.5,
      "v": 91
    },
    {
      "midi": 55,
      "hit": false,
      "t": 54752.60416666671,
      "d": 52.08333333333576,
      "v": 91
    },
    {
      "midi": 67,
      "hit": false,
      "t": 54755.20833333335,
      "d": 783.8541666666642,
      "v": 113
    },
    {
      "midi": 31,
      "hit": false,
      "t": 54877.60416666666,
      "d": 78.125,
      "v": 122
    },
    {
      "midi": 55,
      "hit": false,
      "t": 54877.60416666671,
      "d": 62.5,
      "v": 91
    },
    {
      "midi": 55,
      "hit": false,
      "t": 55002.60416666671,
      "d": 59.89583333333576,
      "v": 91
    },
    {
      "midi": 31,
      "hit": false,
      "t": 55005.20833333332,
      "d": 161.45833333333576,
      "v": 122
    },
    {
      "midi": 55,
      "hit": false,
      "t": 55127.60416666671,
      "d": 57.29166666666424,
      "v": 91
    },
    {
      "midi": 55,
      "hit": false,
      "t": 55252.60416666671,
      "d": 54.6875,
      "v": 91
    },
    {
      "midi": 31,
      "hit": false,
      "t": 55255.20833333332,
      "d": 138.02083333333576,
      "v": 122
    },
    {
      "midi": 55,
      "hit": false,
      "t": 55377.60416666671,
      "d": 70.3125,
      "v": 91
    },
    {
      "midi": 31,
      "hit": false,
      "t": 55502.60416666666,
      "d": 145.83333333333576,
      "v": 122
    },
    {
      "midi": 55,
      "hit": false,
      "t": 55505.20833333337,
      "d": 52.08333333333576,
      "v": 91
    },
    {
      "midi": 55,
      "hit": false,
      "t": 55627.60416666671,
      "d": 39.0625,
      "v": 91
    },
    {
      "midi": 31,
      "hit": false,
      "t": 55752.60416666666,
      "d": 111.97916666666424,
      "v": 122
    },
    {
      "midi": 55,
      "hit": false,
      "t": 55752.60416666671,
      "d": 49.47916666666424,
      "v": 91
    },
    {
      "midi": 55,
      "hit": false,
      "t": 55877.60416666671,
      "d": 75.52083333333576,
      "v": 91
    },
    {
      "midi": 59,
      "hit": false,
      "t": 55880.20833333334,
      "d": 119.79166666666424,
      "v": 111
    },
    {
      "midi": 71,
      "hit": false,
      "t": 55880.20833333334,
      "d": 127.60416666665697,
      "v": 111
    },
    {
      "midi": 69,
      "hit": false,
      "t": 56000.00000000003,
      "d": 1953.125,
      "v": 97
    },
    {
      "midi": 33,
      "hit": false,
      "t": 56002.60416666666,
      "d": 328.125,
      "v": 122
    },
    {
      "midi": 72,
      "hit": false,
      "t": 56002.60416666667,
      "d": 296.8749999999927,
      "v": 76
    },
    {
      "midi": 72,
      "hit": false,
      "t": 56002.60416666669,
      "d": 1986.9791666666715,
      "v": 97
    },
    {
      "midi": 64,
      "hit": false,
      "t": 56002.60416666669,
      "d": 3807.291666666679,
      "v": 97
    },
    {
      "midi": 52,
      "hit": false,
      "t": 56002.60416666669,
      "d": 4000.000000000022,
      "v": 97
    },
    {
      "midi": 57,
      "hit": false,
      "t": 56002.60416666671,
      "d": 59.89583333333576,
      "v": 91
    },
    {
      "midi": 60,
      "hit": false,
      "t": 56005.208333333336,
      "d": 252.60416666666424,
      "v": 111
    },
    {
      "midi": 57,
      "hit": false,
      "t": 56127.60416666671,
      "d": 62.5,
      "v": 91
    },
    {
      "midi": 69,
      "hit": false,
      "t": 56252.604166666664,
      "d": 330.72916666666424,
      "v": 111
    },
    {
      "midi": 57,
      "hit": false,
      "t": 56252.604166666664,
      "d": 338.54166666666424,
      "v": 111
    },
    {
      "midi": 57,
      "hit": false,
      "t": 56252.60416666671,
      "d": 52.08333333333576,
      "v": 91
    },
    {
      "midi": 57,
      "hit": false,
      "t": 56377.60416666671,
      "d": 62.5,
      "v": 91
    },
    {
      "midi": 33,
      "hit": false,
      "t": 56502.60416666666,
      "d": 260.41666666666424,
      "v": 124
    },
    {
      "midi": 57,
      "hit": false,
      "t": 56502.60416666671,
      "d": 49.47916666666424,
      "v": 91
    },
    {
      "midi": 57,
      "hit": false,
      "t": 56627.60416666671,
      "d": 75.52083333333576,
      "v": 91
    },
    {
      "midi": 57,
      "hit": false,
      "t": 56752.60416666671,
      "d": 46.875,
      "v": 95
    },
    {
      "midi": 33,
      "hit": false,
      "t": 56877.60416666666,
      "d": 65.10416666666424,
      "v": 124
    },
    {
      "midi": 57,
      "hit": false,
      "t": 56877.60416666671,
      "d": 62.5,
      "v": 95
    },
    {
      "midi": 57,
      "hit": false,
      "t": 57002.60416666671,
      "d": 54.6875,
      "v": 95
    },
    {
      "midi": 33,
      "hit": false,
      "t": 57005.20833333332,
      "d": 145.83333333333576,
      "v": 124
    },
    {
      "midi": 57,
      "hit": false,
      "t": 57127.60416666671,
      "d": 67.70833333333576,
      "v": 95
    },
    {
      "midi": 57,
      "hit": false,
      "t": 57247.39583333338,
      "d": 59.89583333333576,
      "v": 95
    },
    {
      "midi": 33,
      "hit": false,
      "t": 57255.20833333332,
      "d": 132.8125,
      "v": 124
    },
    {
      "midi": 57,
      "hit": false,
      "t": 57372.39583333338,
      "d": 62.5,
      "v": 95
    },
    {
      "midi": 57,
      "hit": false,
      "t": 57497.39583333338,
      "d": 59.89583333333576,
      "v": 95
    },
    {
      "midi": 33,
      "hit": false,
      "t": 57502.60416666666,
      "d": 122.39583333333576,
      "v": 124
    },
    {
      "midi": 72,
      "hit": false,
      "t": 57502.60416666668,
      "d": 244.79166666666424,
      "v": 113
    },
    {
      "midi": 57,
      "hit": false,
      "t": 57622.39583333338,
      "d": 59.89583333333576,
      "v": 95
    },
    {
      "midi": 57,
      "hit": false,
      "t": 57744.791666666715,
      "d": 65.10416666666424,
      "v": 95
    },
    {
      "midi": 33,
      "hit": false,
      "t": 57747.39583333333,
      "d": 114.58333333333576,
      "v": 124
    },
    {
      "midi": 69,
      "hit": false,
      "t": 57752.60416666668,
      "d": 294.27083333333576,
      "v": 113
    },
    {
      "midi": 57,
      "hit": false,
      "t": 57872.39583333338,
      "d": 57.29166666666424,
      "v": 95
    },
    {
      "midi": 71,
      "hit": false,
      "t": 57994.7916666667,
      "d": 1929.6875000000073,
      "v": 95
    },
    {
      "midi": 28,
      "hit": false,
      "t": 57997.39583333333,
      "d": 276.04166666666424,
      "v": 124
    },
    {
      "midi": 52,
      "hit": false,
      "t": 57997.39583333338,
      "d": 52.08333333333576,
      "v": 95
    },
    {
      "midi": 67,
      "hit": false,
      "t": 58000.00000000004,
      "d": 1953.1250000000073,
      "v": 95
    },
    {
      "midi": 71,
      "hit": false,
      "t": 58002.60416666668,
      "d": 544.2708333333358,
      "v": 113
    },
    {
      "midi": 52,
      "hit": false,
      "t": 58122.39583333338,
      "d": 65.10416666666424,
      "v": 95
    },
    {
      "midi": 52,
      "hit": false,
      "t": 58247.39583333338,
      "d": 52.08333333333576,
      "v": 95
    },
    {
      "midi": 52,
      "hit": false,
      "t": 58375.00000000005,
      "d": 62.5,
      "v": 95
    },
    {
      "midi": 28,
      "hit": false,
      "t": 58497.39583333333,
      "d": 247.39583333333576,
      "v": 124
    },
    {
      "midi": 52,
      "hit": false,
      "t": 58497.39583333339,
      "d": 54.6875,
      "v": 95
    },
    {
      "midi": 67,
      "hit": false,
      "t": 58505.20833333335,
      "d": 242.1875,
      "v": 113
    },
    {
      "midi": 52,
      "hit": false,
      "t": 58622.39583333339,
      "d": 70.3125,
      "v": 95
    },
    {
      "midi": 52,
      "hit": false,
      "t": 58747.39583333339,
      "d": 49.47916666666424,
      "v": 95
    },
    {
      "midi": 64,
      "hit": false,
      "t": 58752.604166666686,
      "d": 611.9791666666642,
      "v": 111
    },
    {
      "midi": 52,
      "hit": false,
      "t": 58869.791666666715,
      "d": 70.3125,
      "v": 95
    },
    {
      "midi": 28,
      "hit": false,
      "t": 58872.39583333333,
      "d": 59.89583333333576,
      "v": 124
    },
    {
      "midi": 28,
      "hit": false,
      "t": 58997.39583333333,
      "d": 130.20833333333576,
      "v": 124
    },
    {
      "midi": 52,
      "hit": false,
      "t": 58997.39583333338,
      "d": 49.47916666666424,
      "v": 95
    },
    {
      "midi": 52,
      "hit": false,
      "t": 59122.39583333338,
      "d": 62.5,
      "v": 95
    },
    {
      "midi": 28,
      "hit": false,
      "t": 59247.39583333333,
      "d": 122.39583333333576,
      "v": 124
    },
    {
      "midi": 52,
      "hit": false,
      "t": 59247.39583333338,
      "d": 54.6875,
      "v": 95
    },
    {
      "midi": 52,
      "hit": false,
      "t": 59369.791666666715,
      "d": 70.3125,
      "v": 95
    },
    {
      "midi": 28,
      "hit": false,
      "t": 59497.39583333333,
      "d": 130.20833333333576,
      "v": 124
    },
    {
      "midi": 52,
      "hit": false,
      "t": 59497.39583333338,
      "d": 57.29166666666424,
      "v": 95
    },
    {
      "midi": 52,
      "hit": false,
      "t": 59625.000000000044,
      "d": 44.27083333333576,
      "v": 95
    },
    {
      "midi": 28,
      "hit": false,
      "t": 59747.39583333333,
      "d": 125,
      "v": 124
    },
    {
      "midi": 52,
      "hit": false,
      "t": 59747.39583333338,
      "d": 52.08333333333576,
      "v": 95
    },
    {
      "midi": 52,
      "hit": false,
      "t": 59872.39583333338,
      "d": 67.70833333333576,
      "v": 95
    },
    {
      "midi": 67,
      "hit": false,
      "t": 59880.20833333333,
      "d": 122.39583333333576,
      "v": 113
    },
    {
      "midi": 55,
      "hit": false,
      "t": 59880.20833333333,
      "d": 125,
      "v": 113
    },
    {
      "midi": 65,
      "hit": false,
      "t": 59997.39583333338,
      "d": 1867.1875,
      "v": 80
    },
    {
      "midi": 69,
      "hit": false,
      "t": 59997.39583333338,
      "d": 2000,
      "v": 86
    },
    {
      "midi": 48,
      "hit": false,
      "t": 59997.39583333338,
      "d": 4023.4375,
      "v": 74
    },
    {
      "midi": 53,
      "hit": false,
      "t": 59997.39583333338,
      "d": 57.29166666666424,
      "v": 95
    },
    {
      "midi": 29,
      "hit": false,
      "t": 60002.604166666664,
      "d": 325.52083333333576,
      "v": 124
    },
    {
      "midi": 57,
      "hit": false,
      "t": 60002.604166666664,
      "d": 242.1875,
      "v": 113
    },
    {
      "midi": 69,
      "hit": false,
      "t": 60002.604166666664,
      "d": 247.39583333333576,
      "v": 113
    },
    {
      "midi": 60,
      "hit": false,
      "t": 60002.604166666715,
      "d": 3809.8958333333285,
      "v": 97
    },
    {
      "midi": 53,
      "hit": false,
      "t": 60122.39583333338,
      "d": 59.89583333333576,
      "v": 95
    },
    {
      "midi": 53,
      "hit": false,
      "t": 60247.39583333338,
      "d": 54.6875,
      "v": 95
    },
    {
      "midi": 60,
      "hit": false,
      "t": 60255.208333333336,
      "d": 307.29166666666424,
      "v": 117
    },
    {
      "midi": 48,
      "hit": false,
      "t": 60255.208333333336,
      "d": 328.125,
      "v": 117
    },
    {
      "midi": 53,
      "hit": false,
      "t": 60372.39583333338,
      "d": 59.89583333333576,
      "v": 95
    },
    {
      "midi": 53,
      "hit": false,
      "t": 60497.39583333338,
      "d": 52.08333333333576,
      "v": 95
    },
    {
      "midi": 29,
      "hit": false,
      "t": 60502.604166666664,
      "d": 236.97916666666424,
      "v": 124
    },
    {
      "midi": 53,
      "hit": false,
      "t": 60627.604166666715,
      "d": 59.89583333333576,
      "v": 95
    },
    {
      "midi": 53,
      "hit": false,
      "t": 60747.39583333339,
      "d": 54.6875,
      "v": 95
    },
    {
      "midi": 29,
      "hit": false,
      "t": 60872.39583333333,
      "d": 65.10416666666424,
      "v": 124
    },
    {
      "midi": 53,
      "hit": false,
      "t": 60875.00000000005,
      "d": 59.89583333333576,
      "v": 95
    },
    {
      "midi": 29,
      "hit": false,
      "t": 60997.39583333333,
      "d": 145.83333333333576,
      "v": 124
    },
    {
      "midi": 53,
      "hit": false,
      "t": 61000.00000000005,
      "d": 59.89583333333576,
      "v": 95
    },
    {
      "midi": 53,
      "hit": false,
      "t": 61127.60416666672,
      "d": 67.70833333333576,
      "v": 95
    },
    {
      "midi": 29,
      "hit": false,
      "t": 61252.604166666664,
      "d": 135.41666666666424,
      "v": 124
    },
    {
      "midi": 53,
      "hit": false,
      "t": 61252.60416666672,
      "d": 57.29166666666424,
      "v": 95
    },
    {
      "midi": 53,
      "hit": false,
      "t": 61372.39583333339,
      "d": 78.125,
      "v": 95
    },
    {
      "midi": 53,
      "hit": false,
      "t": 61497.39583333339,
      "d": 62.5,
      "v": 95
    },
    {
      "midi": 29,
      "hit": false,
      "t": 61502.604166666664,
      "d": 140.625,
      "v": 124
    },
    {
      "midi": 65,
      "hit": false,
      "t": 61502.604166666686,
      "d": 151.04166666666424,
      "v": 109
    },
    {
      "midi": 53,
      "hit": false,
      "t": 61627.60416666672,
      "d": 67.70833333333576,
      "v": 95
    },
    {
      "midi": 53,
      "hit": false,
      "t": 61747.395833333394,
      "d": 57.29166666666424,
      "v": 95
    },
    {
      "midi": 65,
      "hit": false,
      "t": 61750.000000000015,
      "d": 231.77083333333576,
      "v": 109
    },
    {
      "midi": 29,
      "hit": false,
      "t": 61752.604166666664,
      "d": 125,
      "v": 124
    },
    {
      "midi": 53,
      "hit": false,
      "t": 61872.395833333394,
      "d": 59.89583333333576,
      "v": 95
    },
    {
      "midi": 64,
      "hit": false,
      "t": 61994.791666666715,
      "d": 1846.3541666666642,
      "v": 93
    },
    {
      "midi": 67,
      "hit": false,
      "t": 61994.791666666715,
      "d": 1960.9375,
      "v": 93
    },
    {
      "midi": 48,
      "hit": false,
      "t": 61997.395833333394,
      "d": 49.47916666666424,
      "v": 95
    },
    {
      "midi": 36,
      "hit": false,
      "t": 62002.604166666664,
      "d": 299.47916666666424,
      "v": 124
    },
    {
      "midi": 64,
      "hit": false,
      "t": 62005.20833333335,
      "d": 416.6666666666715,
      "v": 109
    },
    {
      "midi": 48,
      "hit": false,
      "t": 62127.60416666672,
      "d": 62.5,
      "v": 95
    },
    {
      "midi": 48,
      "hit": false,
      "t": 62247.39583333339,
      "d": 49.47916666666424,
      "v": 95
    },
    {
      "midi": 48,
      "hit": false,
      "t": 62372.39583333339,
      "d": 59.89583333333576,
      "v": 95
    },
    {
      "midi": 67,
      "hit": false,
      "t": 62377.604166666686,
      "d": 382.8125000000073,
      "v": 109
    },
    {
      "midi": 48,
      "hit": false,
      "t": 62500.00000000006,
      "d": 52.08333333333576,
      "v": 95
    },
    {
      "midi": 36,
      "hit": false,
      "t": 62502.604166666664,
      "d": 213.54166666666424,
      "v": 124
    },
    {
      "midi": 48,
      "hit": false,
      "t": 62627.60416666673,
      "d": 65.10416666666424,
      "v": 95
    },
    {
      "midi": 48,
      "hit": false,
      "t": 62752.60416666673,
      "d": 52.08333333333576,
      "v": 95
    },
    {
      "midi": 72,
      "hit": false,
      "t": 62755.20833333336,
      "d": 848.9583333333358,
      "v": 109
    },
    {
      "midi": 36,
      "hit": false,
      "t": 62872.39583333333,
      "d": 57.29166666666424,
      "v": 124
    },
    {
      "midi": 48,
      "hit": false,
      "t": 62877.60416666673,
      "d": 62.5,
      "v": 95
    },
    {
      "midi": 36,
      "hit": false,
      "t": 62997.39583333333,
      "d": 138.02083333333576,
      "v": 124
    },
    {
      "midi": 48,
      "hit": false,
      "t": 63002.60416666673,
      "d": 54.6875,
      "v": 95
    },
    {
      "midi": 48,
      "hit": false,
      "t": 63127.60416666673,
      "d": 67.70833333333576,
      "v": 95
    },
    {
      "midi": 36,
      "hit": false,
      "t": 63250,
      "d": 119.79166666666424,
      "v": 124
    },
    {
      "midi": 48,
      "hit": false,
      "t": 63252.60416666673,
      "d": 54.6875,
      "v": 95
    },
    {
      "midi": 48,
      "hit": false,
      "t": 63377.60416666673,
      "d": 78.125,
      "v": 95
    },
    {
      "midi": 36,
      "hit": false,
      "t": 63502.604166666664,
      "d": 140.625,
      "v": 124
    },
    {
      "midi": 48,
      "hit": false,
      "t": 63502.60416666673,
      "d": 54.6875,
      "v": 95
    },
    {
      "midi": 48,
      "hit": false,
      "t": 63627.60416666673,
      "d": 70.3125,
      "v": 95
    },
    {
      "midi": 36,
      "hit": false,
      "t": 63750,
      "d": 135.41666666666424,
      "v": 124
    },
    {
      "midi": 48,
      "hit": false,
      "t": 63752.60416666673,
      "d": 54.6875,
      "v": 95
    },
    {
      "midi": 59,
      "hit": false,
      "t": 63877.60416666667,
      "d": 101.5625,
      "v": 113
    },
    {
      "midi": 71,
      "hit": false,
      "t": 63877.60416666667,
      "d": 125,
      "v": 113
    },
    {
      "midi": 48,
      "hit": false,
      "t": 63877.60416666673,
      "d": 70.3125,
      "v": 95
    },
    {
      "midi": 62,
      "hit": false,
      "t": 63994.791666666715,
      "d": 1890.6249999999854,
      "v": 72
    },
    {
      "midi": 72,
      "hit": false,
      "t": 63997.395833333336,
      "d": 322.9166666666715,
      "v": 117
    },
    {
      "midi": 65,
      "hit": false,
      "t": 63997.39583333338,
      "d": 1820.3124999999927,
      "v": 97
    },
    {
      "midi": 50,
      "hit": false,
      "t": 63997.39583333338,
      "d": 2005.2083333333212,
      "v": 97
    },
    {
      "midi": 69,
      "hit": false,
      "t": 63997.39583333338,
      "d": 2018.2291666666497,
      "v": 97
    },
    {
      "midi": 38,
      "hit": false,
      "t": 64002.604166666664,
      "d": 315.10416666666424,
      "v": 124
    },
    {
      "midi": 60,
      "hit": false,
      "t": 64002.60416666667,
      "d": 289.0625,
      "v": 113
    },
    {
      "midi": 50,
      "hit": false,
      "t": 64002.60416666673,
      "d": 57.29166666666424,
      "v": 95
    },
    {
      "midi": 50,
      "hit": false,
      "t": 64127.60416666673,
      "d": 59.89583333333576,
      "v": 95
    },
    {
      "midi": 50,
      "hit": false,
      "t": 64247.3958333334,
      "d": 46.875,
      "v": 95
    },
    {
      "midi": 57,
      "hit": false,
      "t": 64252.60416666667,
      "d": 343.7500000000073,
      "v": 117
    },
    {
      "midi": 69,
      "hit": false,
      "t": 64255.208333333336,
      "d": 328.1250000000073,
      "v": 113
    },
    {
      "midi": 50,
      "hit": false,
      "t": 64372.3958333334,
      "d": 65.10416666666424,
      "v": 95
    },
    {
      "midi": 38,
      "hit": false,
      "t": 64497.39583333333,
      "d": 239.58333333333576,
      "v": 124
    },
    {
      "midi": 50,
      "hit": false,
      "t": 64497.3958333334,
      "d": 52.08333333333576,
      "v": 95
    },
    {
      "midi": 50,
      "hit": false,
      "t": 64627.60416666674,
      "d": 62.5,
      "v": 95
    },
    {
      "midi": 50,
      "hit": false,
      "t": 64747.3958333334,
      "d": 52.08333333333576,
      "v": 93
    },
    {
      "midi": 38,
      "hit": false,
      "t": 64872.39583333333,
      "d": 65.10416666666424,
      "v": 124
    },
    {
      "midi": 50,
      "hit": false,
      "t": 64872.3958333334,
      "d": 70.3125,
      "v": 93
    },
    {
      "midi": 38,
      "hit": false,
      "t": 64997.39583333333,
      "d": 138.02083333333576,
      "v": 124
    },
    {
      "midi": 50,
      "hit": false,
      "t": 64997.3958333334,
      "d": 54.6875,
      "v": 93
    },
    {
      "midi": 50,
      "hit": false,
      "t": 65125.000000000065,
      "d": 57.29166666666424,
      "v": 93
    },
    {
      "midi": 38,
      "hit": false,
      "t": 65247.39583333333,
      "d": 125,
      "v": 124
    },
    {
      "midi": 50,
      "hit": false,
      "t": 65252.60416666673,
      "d": 54.6875,
      "v": 93
    },
    {
      "midi": 50,
      "hit": false,
      "t": 65372.395833333394,
      "d": 65.10416666666424,
      "v": 93
    },
    {
      "midi": 38,
      "hit": false,
      "t": 65497.39583333333,
      "d": 153.64583333332848,
      "v": 124
    },
    {
      "midi": 71,
      "hit": false,
      "t": 65497.39583333336,
      "d": 291.66666666665697,
      "v": 111
    },
    {
      "midi": 50,
      "hit": false,
      "t": 65502.60416666672,
      "d": 54.687499999992724,
      "v": 93
    },
    {
      "midi": 50,
      "hit": false,
      "t": 65627.60416666672,
      "d": 31.25,
      "v": 93
    },
    {
      "midi": 38,
      "hit": false,
      "t": 65747.39583333333,
      "d": 125,
      "v": 124
    },
    {
      "midi": 72,
      "hit": false,
      "t": 65752.60416666669,
      "d": 263.0208333333285,
      "v": 111
    },
    {
      "midi": 50,
      "hit": false,
      "t": 65752.60416666672,
      "d": 46.875,
      "v": 93
    },
    {
      "midi": 50,
      "hit": false,
      "t": 65877.60416666672,
      "d": 70.3125,
      "v": 93
    },
    {
      "midi": 71,
      "hit": false,
      "t": 65994.7916666667,
      "d": 1846.354166666657,
      "v": 74
    },
    {
      "midi": 67,
      "hit": false,
      "t": 65994.7916666667,
      "d": 1848.9583333333285,
      "v": 92
    },
    {
      "midi": 62,
      "hit": false,
      "t": 65994.7916666667,
      "d": 1872.3958333333285,
      "v": 72
    },
    {
      "midi": 55,
      "hit": false,
      "t": 65997.39583333337,
      "d": 1830.729166666657,
      "v": 95
    },
    {
      "midi": 31,
      "hit": false,
      "t": 66000,
      "d": 354.1666666666715,
      "v": 124
    },
    {
      "midi": 55,
      "hit": false,
      "t": 66002.60416666672,
      "d": 54.6875,
      "v": 93
    },
    {
      "midi": 76,
      "hit": false,
      "t": 66005.20833333334,
      "d": 398.4375,
      "v": 111
    },
    {
      "midi": 55,
      "hit": false,
      "t": 66127.60416666672,
      "d": 59.89583333332848,
      "v": 93
    },
    {
      "midi": 55,
      "hit": false,
      "t": 66252.60416666672,
      "d": 44.27083333332848,
      "v": 93
    },
    {
      "midi": 55,
      "hit": false,
      "t": 66377.60416666672,
      "d": 62.5,
      "v": 93
    },
    {
      "midi": 77,
      "hit": false,
      "t": 66380.20833333334,
      "d": 369.7916666666715,
      "v": 111
    },
    {
      "midi": 31,
      "hit": false,
      "t": 66500,
      "d": 260.4166666666715,
      "v": 124
    },
    {
      "midi": 55,
      "hit": false,
      "t": 66502.60416666672,
      "d": 46.875,
      "v": 93
    },
    {
      "midi": 55,
      "hit": false,
      "t": 66627.60416666672,
      "d": 54.6875,
      "v": 93
    },
    {
      "midi": 74,
      "hit": false,
      "t": 66750.00000000001,
      "d": 906.25,
      "v": 111
    },
    {
      "midi": 55,
      "hit": false,
      "t": 66752.60416666672,
      "d": 54.6875,
      "v": 93
    },
    {
      "midi": 31,
      "hit": false,
      "t": 66875,
      "d": 70.3125,
      "v": 124
    },
    {
      "midi": 55,
      "hit": false,
      "t": 66877.60416666672,
      "d": 59.89583333332848,
      "v": 93
    },
    {
      "midi": 31,
      "hit": false,
      "t": 67002.60416666667,
      "d": 231.77083333332848,
      "v": 124
    },
    {
      "midi": 55,
      "hit": false,
      "t": 67002.60416666672,
      "d": 54.6875,
      "v": 93
    },
    {
      "midi": 55,
      "hit": false,
      "t": 67127.60416666672,
      "d": 62.5,
      "v": 93
    },
    {
      "midi": 31,
      "hit": false,
      "t": 67250,
      "d": 236.97916666667152,
      "v": 124
    },
    {
      "midi": 55,
      "hit": false,
      "t": 67252.60416666672,
      "d": 54.6875,
      "v": 93
    },
    {
      "midi": 55,
      "hit": false,
      "t": 67377.60416666672,
      "d": 52.08333333332848,
      "v": 93
    },
    {
      "midi": 31,
      "hit": false,
      "t": 67500,
      "d": 250,
      "v": 124
    },
    {
      "midi": 67,
      "hit": false,
      "t": 67502.60416666669,
      "d": 335.9375,
      "v": 115
    },
    {
      "midi": 55,
      "hit": false,
      "t": 67502.60416666672,
      "d": 52.08333333332848,
      "v": 93
    },
    {
      "midi": 55,
      "hit": false,
      "t": 67505.20833333336,
      "d": 463.54166666665697,
      "v": 117
    },
    {
      "midi": 55,
      "hit": false,
      "t": 67627.60416666672,
      "d": 62.5,
      "v": 93
    },
    {
      "midi": 33,
      "hit": false,
      "t": 67750,
      "d": 122.39583333332848,
      "v": 124
    },
    {
      "midi": 55,
      "hit": false,
      "t": 67752.60416666672,
      "d": 46.875,
      "v": 93
    },
    {
      "midi": 35,
      "hit": false,
      "t": 67875,
      "d": 122.39583333332848,
      "v": 124
    },
    {
      "midi": 55,
      "hit": false,
      "t": 67875.00000000004,
      "d": 46.875,
      "v": 93
    },
    {
      "midi": 96,
      "hit": false,
      "t": 68000,
      "d": 1976.5625,
      "v": 95
    },
    {
      "midi": 72,
      "hit": false,
      "t": 68000.00000000003,
      "d": 1945.3125,
      "v": 95
    },
    {
      "midi": 76,
      "hit": false,
      "t": 68000.00000000003,
      "d": 2013.0208333333285,
      "v": 95
    },
    {
      "midi": 67,
      "hit": false,
      "t": 68000.00000000003,
      "d": 3880.2083333333285,
      "v": 92
    },
    {
      "midi": 55,
      "hit": false,
      "t": 68000.00000000003,
      "d": 3999.9999999999854,
      "v": 95
    },
    {
      "midi": 72,
      "hit": false,
      "t": 68002.60416666669,
      "d": 1210.9375,
      "v": 98
    },
    {
      "midi": 67,
      "hit": false,
      "t": 68002.60416666669,
      "d": 1213.5416666666715,
      "v": 109
    },
    {
      "midi": 60,
      "hit": false,
      "t": 68002.60416666672,
      "d": 75.52083333332848,
      "v": 91
    },
    {
      "midi": 36,
      "hit": false,
      "t": 68005.20833333333,
      "d": 315.1041666666715,
      "v": 126
    },
    {
      "midi": 76,
      "hit": false,
      "t": 68005.20833333336,
      "d": 1210.9375,
      "v": 117
    },
    {
      "midi": 60,
      "hit": false,
      "t": 68005.20833333336,
      "d": 1273.4375,
      "v": 117
    },
    {
      "midi": 60,
      "hit": false,
      "t": 68122.39583333337,
      "d": 70.3125,
      "v": 91
    },
    {
      "midi": 60,
      "hit": false,
      "t": 68252.6041666667,
      "d": 39.0625,
      "v": 91
    },
    {
      "midi": 60,
      "hit": false,
      "t": 68372.39583333337,
      "d": 72.91666666667152,
      "v": 91
    },
    {
      "midi": 36,
      "hit": false,
      "t": 68497.39583333333,
      "d": 247.39583333332848,
      "v": 126
    },
    {
      "midi": 60,
      "hit": false,
      "t": 68497.39583333337,
      "d": 70.3125,
      "v": 91
    },
    {
      "midi": 60,
      "hit": false,
      "t": 68622.39583333337,
      "d": 65.10416666667152,
      "v": 91
    },
    {
      "midi": 60,
      "hit": false,
      "t": 68747.39583333337,
      "d": 57.29166666667152,
      "v": 91
    },
    {
      "midi": 36,
      "hit": false,
      "t": 68872.39583333333,
      "d": 57.29166666667152,
      "v": 126
    },
    {
      "midi": 60,
      "hit": false,
      "t": 68872.39583333337,
      "d": 67.70833333332848,
      "v": 91
    },
    {
      "midi": 60,
      "hit": false,
      "t": 69000.00000000003,
      "d": 57.29166666667152,
      "v": 91
    },
    {
      "midi": 36,
      "hit": false,
      "t": 69002.60416666667,
      "d": 138.02083333332848,
      "v": 126
    },
    {
      "midi": 60,
      "hit": false,
      "t": 69125.00000000003,
      "d": 54.6875,
      "v": 91
    },
    {
      "midi": 36,
      "hit": false,
      "t": 69250,
      "d": 127.60416666667152,
      "v": 124
    },
    {
      "midi": 60,
      "hit": false,
      "t": 69252.6041666667,
      "d": 54.6875,
      "v": 91
    },
    {
      "midi": 60,
      "hit": false,
      "t": 69375.00000000003,
      "d": 62.5,
      "v": 91
    },
    {
      "midi": 36,
      "hit": false,
      "t": 69500,
      "d": 148.4375,
      "v": 124
    },
    {
      "midi": 74,
      "hit": false,
      "t": 69500.00000000001,
      "d": 250,
      "v": 113
    },
    {
      "midi": 60,
      "hit": false,
      "t": 69502.6041666667,
      "d": 59.89583333332848,
      "v": 91
    },
    {
      "midi": 60,
      "hit": false,
      "t": 69627.6041666667,
      "d": 57.29166666667152,
      "v": 91
    },
    {
      "midi": 36,
      "hit": false,
      "t": 69747.39583333333,
      "d": 122.39583333332848,
      "v": 122
    },
    {
      "midi": 60,
      "hit": false,
      "t": 69747.39583333337,
      "d": 59.89583333332848,
      "v": 91
    },
    {
      "midi": 72,
      "hit": false,
      "t": 69750.00000000001,
      "d": 333.3333333333285,
      "v": 113
    },
    {
      "midi": 60,
      "hit": false,
      "t": 69875.00000000003,
      "d": 54.6875,
      "v": 91
    },
    {
      "midi": 95,
      "hit": false,
      "t": 69992.1875,
      "d": 1989.5833333333285,
      "v": 95
    },
    {
      "midi": 31,
      "hit": false,
      "t": 69997.39583333333,
      "d": 330.7291666666715,
      "v": 122
    },
    {
      "midi": 74,
      "hit": false,
      "t": 69997.39583333336,
      "d": 1911.4583333333285,
      "v": 95
    },
    {
      "midi": 74,
      "hit": false,
      "t": 70000.00000000001,
      "d": 395.8333333333285,
      "v": 113
    },
    {
      "midi": 71,
      "hit": false,
      "t": 70000.00000000003,
      "d": 1979.166666666657,
      "v": 95
    },
    {
      "midi": 55,
      "hit": false,
      "t": 70002.6041666667,
      "d": 52.08333333332848,
      "v": 91
    },
    {
      "midi": 55,
      "hit": false,
      "t": 70122.39583333336,
      "d": 78.125,
      "v": 91
    },
    {
      "midi": 55,
      "hit": false,
      "t": 70247.39583333336,
      "d": 52.08333333332848,
      "v": 91
    },
    {
      "midi": 55,
      "hit": false,
      "t": 70372.39583333336,
      "d": 70.3125,
      "v": 91
    },
    {
      "midi": 71,
      "hit": false,
      "t": 70380.20833333334,
      "d": 375,
      "v": 113
    },
    {
      "midi": 31,
      "hit": false,
      "t": 70497.39583333333,
      "d": 276.0416666666715,
      "v": 122
    },
    {
      "midi": 55,
      "hit": false,
      "t": 70502.60416666669,
      "d": 57.29166666667152,
      "v": 91
    },
    {
      "midi": 55,
      "hit": false,
      "t": 70627.60416666669,
      "d": 62.5,
      "v": 91
    },
    {
      "midi": 55,
      "hit": false,
      "t": 70752.60416666669,
      "d": 52.08333333332848,
      "v": 91
    },
    {
      "midi": 67,
      "hit": false,
      "t": 70755.20833333334,
      "d": 783.8541666666715,
      "v": 113
    },
    {
      "midi": 31,
      "hit": false,
      "t": 70877.60416666667,
      "d": 78.125,
      "v": 122
    },
    {
      "midi": 55,
      "hit": false,
      "t": 70877.60416666669,
      "d": 62.5,
      "v": 91
    },
    {
      "midi": 55,
      "hit": false,
      "t": 71002.60416666669,
      "d": 59.89583333332848,
      "v": 91
    },
    {
      "midi": 31,
      "hit": false,
      "t": 71005.20833333334,
      "d": 161.45833333332848,
      "v": 122
    },
    {
      "midi": 55,
      "hit": false,
      "t": 71127.60416666669,
      "d": 57.29166666667152,
      "v": 91
    },
    {
      "midi": 55,
      "hit": false,
      "t": 71252.60416666669,
      "d": 54.6875,
      "v": 91
    },
    {
      "midi": 31,
      "hit": false,
      "t": 71255.20833333334,
      "d": 138.02083333332848,
      "v": 122
    },
    {
      "midi": 55,
      "hit": false,
      "t": 71377.60416666669,
      "d": 70.3125,
      "v": 91
    },
    {
      "midi": 31,
      "hit": false,
      "t": 71502.60416666667,
      "d": 145.83333333332848,
      "v": 122
    },
    {
      "midi": 55,
      "hit": false,
      "t": 71502.60416666669,
      "d": 513.0208333333576,
      "v": 109
    },
    {
      "midi": 67,
      "hit": false,
      "t": 71505.20833333336,
      "d": 369.7916666666715,
      "v": 119
    },
    {
      "midi": 55,
      "hit": false,
      "t": 71505.20833333336,
      "d": 52.08333333332848,
      "v": 91
    },
    {
      "midi": 55,
      "hit": false,
      "t": 71627.60416666669,
      "d": 39.0625,
      "v": 91
    },
    {
      "midi": 31,
      "hit": false,
      "t": 71752.60416666667,
      "d": 111.97916666667152,
      "v": 122
    },
    {
      "midi": 55,
      "hit": false,
      "t": 71752.60416666669,
      "d": 49.47916666667152,
      "v": 91
    },
    {
      "midi": 55,
      "hit": false,
      "t": 71877.60416666669,
      "d": 75.52083333332848,
      "v": 91
    },
    {
      "midi": 69,
      "hit": false,
      "t": 72000.00000000001,
      "d": 1953.125,
      "v": 97
    },
    {
      "midi": 33,
      "hit": false,
      "t": 72002.60416666667,
      "d": 328.125,
      "v": 122
    },
    {
      "midi": 72,
      "hit": false,
      "t": 72002.60416666669,
      "d": 1986.979166666657,
      "v": 97
    },
    {
      "midi": 64,
      "hit": false,
      "t": 72002.60416666669,
      "d": 3807.2916666666424,
      "v": 97
    },
    {
      "midi": 52,
      "hit": false,
      "t": 72002.60416666669,
      "d": 3999.9999999999563,
      "v": 97
    },
    {
      "midi": 57,
      "hit": false,
      "t": 72002.60416666669,
      "d": 59.89583333332848,
      "v": 91
    },
    {
      "midi": 72,
      "hit": false,
      "t": 72002.6041666667,
      "d": 1309.895833333343,
      "v": 92
    },
    {
      "midi": 69,
      "hit": false,
      "t": 72002.6041666667,
      "d": 1315.1041666666715,
      "v": 115
    },
    {
      "midi": 64,
      "hit": false,
      "t": 72002.6041666667,
      "d": 1328.125,
      "v": 109
    },
    {
      "midi": 93,
      "hit": false,
      "t": 72005.20833333333,
      "d": 2000,
      "v": 93
    },
    {
      "midi": 57,
      "hit": false,
      "t": 72005.20833333337,
      "d": 1335.9375,
      "v": 119
    },
    {
      "midi": 57,
      "hit": false,
      "t": 72127.60416666669,
      "d": 62.5,
      "v": 91
    },
    {
      "midi": 57,
      "hit": false,
      "t": 72252.60416666669,
      "d": 52.08333333332848,
      "v": 91
    },
    {
      "midi": 57,
      "hit": false,
      "t": 72377.60416666669,
      "d": 62.5,
      "v": 91
    },
    {
      "midi": 33,
      "hit": false,
      "t": 72502.60416666667,
      "d": 260.4166666666715,
      "v": 124
    },
    {
      "midi": 57,
      "hit": false,
      "t": 72502.60416666669,
      "d": 49.47916666667152,
      "v": 91
    },
    {
      "midi": 57,
      "hit": false,
      "t": 72627.60416666669,
      "d": 75.52083333332848,
      "v": 91
    },
    {
      "midi": 57,
      "hit": false,
      "t": 72752.60416666669,
      "d": 46.875,
      "v": 95
    },
    {
      "midi": 33,
      "hit": false,
      "t": 72877.60416666667,
      "d": 65.10416666667152,
      "v": 124
    },
    {
      "midi": 57,
      "hit": false,
      "t": 72877.60416666669,
      "d": 62.5,
      "v": 95
    },
    {
      "midi": 57,
      "hit": false,
      "t": 73002.60416666669,
      "d": 54.6875,
      "v": 95
    },
    {
      "midi": 33,
      "hit": false,
      "t": 73005.20833333334,
      "d": 145.83333333332848,
      "v": 124
    },
    {
      "midi": 57,
      "hit": false,
      "t": 73127.60416666669,
      "d": 67.70833333332848,
      "v": 95
    },
    {
      "midi": 57,
      "hit": false,
      "t": 73247.39583333334,
      "d": 59.89583333332848,
      "v": 95
    },
    {
      "midi": 33,
      "hit": false,
      "t": 73255.20833333334,
      "d": 132.8125,
      "v": 124
    },
    {
      "midi": 57,
      "hit": false,
      "t": 73372.39583333334,
      "d": 62.5,
      "v": 95
    },
    {
      "midi": 57,
      "hit": false,
      "t": 73497.39583333334,
      "d": 59.89583333332848,
      "v": 95
    },
    {
      "midi": 33,
      "hit": false,
      "t": 73502.60416666667,
      "d": 122.39583333332848,
      "v": 124
    },
    {
      "midi": 72,
      "hit": false,
      "t": 73502.60416666669,
      "d": 244.79166666667152,
      "v": 113
    },
    {
      "midi": 57,
      "hit": false,
      "t": 73622.39583333334,
      "d": 59.89583333332848,
      "v": 95
    },
    {
      "midi": 57,
      "hit": false,
      "t": 73744.79166666667,
      "d": 65.10416666667152,
      "v": 95
    },
    {
      "midi": 33,
      "hit": false,
      "t": 73747.39583333333,
      "d": 114.58333333332848,
      "v": 124
    },
    {
      "midi": 69,
      "hit": false,
      "t": 73752.60416666669,
      "d": 294.2708333333285,
      "v": 113
    },
    {
      "midi": 57,
      "hit": false,
      "t": 73872.39583333334,
      "d": 57.29166666667152,
      "v": 95
    },
    {
      "midi": 71,
      "hit": false,
      "t": 73994.79166666667,
      "d": 1929.6874999999854,
      "v": 95
    },
    {
      "midi": 28,
      "hit": false,
      "t": 73997.39583333333,
      "d": 276.0416666666715,
      "v": 124
    },
    {
      "midi": 52,
      "hit": false,
      "t": 73997.39583333334,
      "d": 52.08333333332848,
      "v": 95
    },
    {
      "midi": 67,
      "hit": false,
      "t": 74000,
      "d": 1953.1249999999854,
      "v": 95
    },
    {
      "midi": 91,
      "hit": false,
      "t": 74000,
      "d": 2010.416666666657,
      "v": 93
    },
    {
      "midi": 71,
      "hit": false,
      "t": 74002.60416666669,
      "d": 375,
      "v": 113
    },
    {
      "midi": 52,
      "hit": false,
      "t": 74122.39583333334,
      "d": 65.10416666667152,
      "v": 95
    },
    {
      "midi": 52,
      "hit": false,
      "t": 74247.39583333334,
      "d": 52.08333333332848,
      "v": 95
    },
    {
      "midi": 52,
      "hit": false,
      "t": 74375,
      "d": 62.5,
      "v": 95
    },
    {
      "midi": 67,
      "hit": false,
      "t": 74375.00000000001,
      "d": 375,
      "v": 113
    },
    {
      "midi": 28,
      "hit": false,
      "t": 74497.39583333333,
      "d": 247.39583333332848,
      "v": 124
    },
    {
      "midi": 52,
      "hit": false,
      "t": 74497.39583333333,
      "d": 54.6875,
      "v": 95
    },
    {
      "midi": 52,
      "hit": false,
      "t": 74622.39583333333,
      "d": 70.3125,
      "v": 95
    },
    {
      "midi": 52,
      "hit": false,
      "t": 74747.39583333333,
      "d": 49.47916666667152,
      "v": 95
    },
    {
      "midi": 64,
      "hit": false,
      "t": 74752.60416666669,
      "d": 611.9791666666715,
      "v": 111
    },
    {
      "midi": 52,
      "hit": false,
      "t": 74869.79166666667,
      "d": 70.3125,
      "v": 95
    },
    {
      "midi": 28,
      "hit": false,
      "t": 74872.39583333333,
      "d": 59.89583333332848,
      "v": 124
    },
    {
      "midi": 28,
      "hit": false,
      "t": 74997.39583333333,
      "d": 130.20833333332848,
      "v": 124
    },
    {
      "midi": 52,
      "hit": false,
      "t": 74997.39583333334,
      "d": 49.47916666667152,
      "v": 95
    },
    {
      "midi": 52,
      "hit": false,
      "t": 75122.39583333334,
      "d": 62.5,
      "v": 95
    },
    {
      "midi": 28,
      "hit": false,
      "t": 75247.39583333333,
      "d": 122.39583333332848,
      "v": 124
    },
    {
      "midi": 52,
      "hit": false,
      "t": 75247.39583333334,
      "d": 54.6875,
      "v": 95
    },
    {
      "midi": 52,
      "hit": false,
      "t": 75369.79166666667,
      "d": 70.3125,
      "v": 95
    },
    {
      "midi": 28,
      "hit": false,
      "t": 75497.39583333333,
      "d": 130.20833333332848,
      "v": 124
    },
    {
      "midi": 52,
      "hit": false,
      "t": 75497.39583333334,
      "d": 57.29166666667152,
      "v": 95
    },
    {
      "midi": 64,
      "hit": false,
      "t": 75505.20833333337,
      "d": 364.5833333333285,
      "v": 119
    },
    {
      "midi": 52,
      "hit": false,
      "t": 75505.20833333337,
      "d": 494.79166666665697,
      "v": 119
    },
    {
      "midi": 52,
      "hit": false,
      "t": 75625.00000000001,
      "d": 44.27083333332848,
      "v": 95
    },
    {
      "midi": 28,
      "hit": false,
      "t": 75747.39583333333,
      "d": 125,
      "v": 124
    },
    {
      "midi": 52,
      "hit": false,
      "t": 75747.39583333334,
      "d": 52.08333333332848,
      "v": 95
    },
    {
      "midi": 52,
      "hit": false,
      "t": 75872.39583333334,
      "d": 67.70833333332848,
      "v": 95
    },
    {
      "midi": 65,
      "hit": false,
      "t": 75997.39583333331,
      "d": 1867.1875,
      "v": 80
    },
    {
      "midi": 69,
      "hit": false,
      "t": 75997.39583333331,
      "d": 2000,
      "v": 86
    },
    {
      "midi": 48,
      "hit": false,
      "t": 75997.39583333331,
      "d": 4023.4375,
      "v": 74
    },
    {
      "midi": 53,
      "hit": false,
      "t": 75997.39583333334,
      "d": 57.29166666667152,
      "v": 95
    },
    {
      "midi": 60,
      "hit": false,
      "t": 76002.60416666664,
      "d": 3809.895833333343,
      "v": 97
    },
    {
      "midi": 29,
      "hit": false,
      "t": 76002.60416666666,
      "d": 325.5208333333285,
      "v": 124
    },
    {
      "midi": 65,
      "hit": false,
      "t": 76002.6041666667,
      "d": 1304.6875,
      "v": 115
    },
    {
      "midi": 72,
      "hit": false,
      "t": 76002.6041666667,
      "d": 1322.916666666657,
      "v": 86
    },
    {
      "midi": 89,
      "hit": false,
      "t": 76005.20833333333,
      "d": 2007.8125,
      "v": 95
    },
    {
      "midi": 69,
      "hit": false,
      "t": 76005.20833333337,
      "d": 1307.291666666657,
      "v": 119
    },
    {
      "midi": 53,
      "hit": false,
      "t": 76005.20833333337,
      "d": 1325.520833333314,
      "v": 119
    },
    {
      "midi": 53,
      "hit": false,
      "t": 76122.39583333334,
      "d": 59.89583333332848,
      "v": 95
    },
    {
      "midi": 53,
      "hit": false,
      "t": 76247.39583333334,
      "d": 54.6875,
      "v": 95
    },
    {
      "midi": 53,
      "hit": false,
      "t": 76372.39583333334,
      "d": 59.89583333332848,
      "v": 95
    },
    {
      "midi": 53,
      "hit": false,
      "t": 76497.39583333334,
      "d": 52.08333333332848,
      "v": 95
    },
    {
      "midi": 29,
      "hit": false,
      "t": 76502.60416666666,
      "d": 236.97916666667152,
      "v": 124
    },
    {
      "midi": 53,
      "hit": false,
      "t": 76627.60416666667,
      "d": 59.89583333332848,
      "v": 95
    },
    {
      "midi": 53,
      "hit": false,
      "t": 76747.39583333333,
      "d": 54.6875,
      "v": 95
    },
    {
      "midi": 29,
      "hit": false,
      "t": 76872.39583333333,
      "d": 65.10416666667152,
      "v": 124
    },
    {
      "midi": 53,
      "hit": false,
      "t": 76875,
      "d": 59.89583333332848,
      "v": 95
    },
    {
      "midi": 29,
      "hit": false,
      "t": 76997.39583333333,
      "d": 145.83333333332848,
      "v": 124
    },
    {
      "midi": 53,
      "hit": false,
      "t": 77000,
      "d": 59.89583333332848,
      "v": 95
    },
    {
      "midi": 53,
      "hit": false,
      "t": 77127.60416666666,
      "d": 67.70833333332848,
      "v": 95
    },
    {
      "midi": 29,
      "hit": false,
      "t": 77252.60416666666,
      "d": 135.41666666667152,
      "v": 124
    },
    {
      "midi": 53,
      "hit": false,
      "t": 77252.60416666666,
      "d": 57.29166666667152,
      "v": 95
    },
    {
      "midi": 53,
      "hit": false,
      "t": 77372.39583333333,
      "d": 78.125,
      "v": 95
    },
    {
      "midi": 53,
      "hit": false,
      "t": 77497.39583333333,
      "d": 62.5,
      "v": 95
    },
    {
      "midi": 29,
      "hit": false,
      "t": 77502.60416666666,
      "d": 140.625,
      "v": 124
    },
    {
      "midi": 65,
      "hit": false,
      "t": 77502.60416666669,
      "d": 151.04166666667152,
      "v": 109
    },
    {
      "midi": 53,
      "hit": false,
      "t": 77627.60416666666,
      "d": 67.70833333332848,
      "v": 95
    },
    {
      "midi": 53,
      "hit": false,
      "t": 77747.39583333331,
      "d": 57.29166666667152,
      "v": 95
    },
    {
      "midi": 65,
      "hit": false,
      "t": 77750.00000000003,
      "d": 231.77083333332848,
      "v": 109
    },
    {
      "midi": 29,
      "hit": false,
      "t": 77752.60416666666,
      "d": 125,
      "v": 124
    },
    {
      "midi": 53,
      "hit": false,
      "t": 77872.39583333331,
      "d": 59.89583333332848,
      "v": 95
    },
    {
      "midi": 64,
      "hit": false,
      "t": 77994.79166666664,
      "d": 1846.3541666666715,
      "v": 93
    },
    {
      "midi": 67,
      "hit": false,
      "t": 77994.79166666664,
      "d": 1960.9375,
      "v": 93
    },
    {
      "midi": 48,
      "hit": false,
      "t": 77997.39583333331,
      "d": 49.47916666667152,
      "v": 95
    },
    {
      "midi": 36,
      "hit": false,
      "t": 78002.60416666666,
      "d": 299.4791666666715,
      "v": 124
    },
    {
      "midi": 88,
      "hit": false,
      "t": 78002.60416666666,
      "d": 2031.25,
      "v": 97
    },
    {
      "midi": 64,
      "hit": false,
      "t": 78005.20833333336,
      "d": 500,
      "v": 109
    },
    {
      "midi": 48,
      "hit": false,
      "t": 78127.60416666666,
      "d": 62.5,
      "v": 95
    },
    {
      "midi": 48,
      "hit": false,
      "t": 78247.39583333333,
      "d": 49.47916666667152,
      "v": 95
    },
    {
      "midi": 48,
      "hit": false,
      "t": 78372.39583333333,
      "d": 59.89583333332848,
      "v": 95
    },
    {
      "midi": 48,
      "hit": false,
      "t": 78499.99999999999,
      "d": 52.08333333332848,
      "v": 95
    },
    {
      "midi": 67,
      "hit": false,
      "t": 78500.00000000003,
      "d": 250,
      "v": 109
    },
    {
      "midi": 36,
      "hit": false,
      "t": 78502.60416666666,
      "d": 213.54166666667152,
      "v": 124
    },
    {
      "midi": 48,
      "hit": false,
      "t": 78627.60416666664,
      "d": 65.10416666667152,
      "v": 95
    },
    {
      "midi": 48,
      "hit": false,
      "t": 78752.60416666664,
      "d": 52.08333333332848,
      "v": 95
    },
    {
      "midi": 72,
      "hit": false,
      "t": 78755.20833333336,
      "d": 848.9583333333285,
      "v": 109
    },
    {
      "midi": 36,
      "hit": false,
      "t": 78872.39583333333,
      "d": 57.29166666667152,
      "v": 124
    },
    {
      "midi": 48,
      "hit": false,
      "t": 78877.60416666664,
      "d": 62.5,
      "v": 95
    },
    {
      "midi": 36,
      "hit": false,
      "t": 78997.39583333333,
      "d": 138.02083333332848,
      "v": 124
    },
    {
      "midi": 48,
      "hit": false,
      "t": 79002.60416666664,
      "d": 54.6875,
      "v": 95
    },
    {
      "midi": 48,
      "hit": false,
      "t": 79127.60416666664,
      "d": 67.70833333332848,
      "v": 95
    },
    {
      "midi": 36,
      "hit": false,
      "t": 79249.99999999999,
      "d": 119.79166666667152,
      "v": 124
    },
    {
      "midi": 48,
      "hit": false,
      "t": 79252.60416666664,
      "d": 54.6875,
      "v": 95
    },
    {
      "midi": 48,
      "hit": false,
      "t": 79377.60416666664,
      "d": 78.125,
      "v": 95
    },
    {
      "midi": 48,
      "hit": false,
      "t": 79502.60416666664,
      "d": 54.6875,
      "v": 95
    },
    {
      "midi": 36,
      "hit": false,
      "t": 79502.60416666666,
      "d": 140.625,
      "v": 124
    },
    {
      "midi": 60,
      "hit": false,
      "t": 79505.20833333336,
      "d": 328.125,
      "v": 117
    },
    {
      "midi": 72,
      "hit": false,
      "t": 79505.20833333336,
      "d": 335.9375,
      "v": 117
    },
    {
      "midi": 48,
      "hit": false,
      "t": 79627.60416666664,
      "d": 70.3125,
      "v": 95
    },
    {
      "midi": 36,
      "hit": false,
      "t": 79749.99999999999,
      "d": 135.41666666667152,
      "v": 124
    },
    {
      "midi": 48,
      "hit": false,
      "t": 79752.60416666664,
      "d": 54.6875,
      "v": 95
    },
    {
      "midi": 48,
      "hit": false,
      "t": 79877.60416666664,
      "d": 70.3125,
      "v": 95
    },
    {
      "midi": 62,
      "hit": false,
      "t": 79994.79166666664,
      "d": 1890.625,
      "v": 72
    },
    {
      "midi": 65,
      "hit": false,
      "t": 79997.39583333331,
      "d": 1820.3125,
      "v": 97
    },
    {
      "midi": 50,
      "hit": false,
      "t": 79997.39583333331,
      "d": 2005.2083333333285,
      "v": 97
    },
    {
      "midi": 69,
      "hit": false,
      "t": 79997.39583333331,
      "d": 2018.229166666657,
      "v": 97
    },
    {
      "midi": 65,
      "hit": false,
      "t": 79997.39583333336,
      "d": 1315.104166666657,
      "v": 109
    },
    {
      "midi": 50,
      "hit": false,
      "t": 80002.60416666664,
      "d": 57.29166666667152,
      "v": 95
    },
    {
      "midi": 38,
      "hit": false,
      "t": 80002.60416666666,
      "d": 315.1041666666715,
      "v": 124
    },
    {
      "midi": 86,
      "hit": false,
      "t": 80002.60416666666,
      "d": 2039.0625,
      "v": 95
    },
    {
      "midi": 69,
      "hit": false,
      "t": 80002.60416666669,
      "d": 1317.7083333333285,
      "v": 117
    },
    {
      "midi": 72,
      "hit": false,
      "t": 80002.60416666669,
      "d": 1317.7083333333285,
      "v": 117
    },
    {
      "midi": 53,
      "hit": false,
      "t": 80002.60416666669,
      "d": 1328.125,
      "v": 117
    },
    {
      "midi": 50,
      "hit": false,
      "t": 80127.60416666664,
      "d": 59.89583333332848,
      "v": 95
    },
    {
      "midi": 50,
      "hit": false,
      "t": 80247.3958333333,
      "d": 46.875,
      "v": 95
    },
    {
      "midi": 50,
      "hit": false,
      "t": 80372.3958333333,
      "d": 65.10416666667152,
      "v": 95
    },
    {
      "midi": 50,
      "hit": false,
      "t": 80497.3958333333,
      "d": 52.08333333332848,
      "v": 95
    },
    {
      "midi": 38,
      "hit": false,
      "t": 80497.39583333333,
      "d": 239.58333333332848,
      "v": 124
    },
    {
      "midi": 50,
      "hit": false,
      "t": 80627.60416666663,
      "d": 62.5,
      "v": 95
    },
    {
      "midi": 50,
      "hit": false,
      "t": 80747.3958333333,
      "d": 52.08333333332848,
      "v": 93
    },
    {
      "midi": 72,
      "hit": false,
      "t": 80750.00000000001,
      "d": 351.5625,
      "v": 111
    },
    {
      "midi": 50,
      "hit": false,
      "t": 80872.3958333333,
      "d": 70.3125,
      "v": 93
    },
    {
      "midi": 38,
      "hit": false,
      "t": 80872.39583333333,
      "d": 65.10416666667152,
      "v": 124
    },
    {
      "midi": 50,
      "hit": false,
      "t": 80997.3958333333,
      "d": 54.6875,
      "v": 93
    },
    {
      "midi": 38,
      "hit": false,
      "t": 80997.39583333333,
      "d": 138.02083333332848,
      "v": 124
    },
    {
      "midi": 50,
      "hit": false,
      "t": 81124.99999999997,
      "d": 57.29166666667152,
      "v": 93
    },
    {
      "midi": 38,
      "hit": false,
      "t": 81247.39583333333,
      "d": 125,
      "v": 124
    },
    {
      "midi": 50,
      "hit": false,
      "t": 81252.60416666664,
      "d": 54.6875,
      "v": 93
    },
    {
      "midi": 72,
      "hit": false,
      "t": 81260.41666666669,
      "d": 242.1875,
      "v": 111
    },
    {
      "midi": 50,
      "hit": false,
      "t": 81372.39583333331,
      "d": 65.10416666667152,
      "v": 93
    },
    {
      "midi": 38,
      "hit": false,
      "t": 81497.39583333333,
      "d": 153.64583333332848,
      "v": 124
    },
    {
      "midi": 50,
      "hit": false,
      "t": 81502.60416666666,
      "d": 54.6875,
      "v": 93
    },
    {
      "midi": 69,
      "hit": false,
      "t": 81515.62500000001,
      "d": 260.4166666666715,
      "v": 111
    },
    {
      "midi": 50,
      "hit": false,
      "t": 81627.60416666666,
      "d": 31.25,
      "v": 93
    },
    {
      "midi": 38,
      "hit": false,
      "t": 81747.39583333333,
      "d": 125,
      "v": 124
    },
    {
      "midi": 50,
      "hit": false,
      "t": 81752.60416666666,
      "d": 46.875,
      "v": 93
    },
    {
      "midi": 72,
      "hit": false,
      "t": 81752.60416666669,
      "d": 296.875,
      "v": 111
    },
    {
      "midi": 50,
      "hit": false,
      "t": 81877.60416666666,
      "d": 70.3125,
      "v": 93
    },
    {
      "midi": 71,
      "hit": false,
      "t": 81994.79166666664,
      "d": 1846.354166666657,
      "v": 74
    },
    {
      "midi": 67,
      "hit": false,
      "t": 81994.79166666664,
      "d": 1848.9583333333285,
      "v": 92
    },
    {
      "midi": 62,
      "hit": false,
      "t": 81994.79166666664,
      "d": 1872.3958333333285,
      "v": 72
    },
    {
      "midi": 55,
      "hit": false,
      "t": 81997.39583333331,
      "d": 1830.729166666657,
      "v": 95
    },
    {
      "midi": 43,
      "hit": false,
      "t": 82002.60416666666,
      "d": 354.1666666666715,
      "v": 124
    },
    {
      "midi": 88,
      "hit": false,
      "t": 82002.60416666666,
      "d": 546.875,
      "v": 97
    },
    {
      "midi": 55,
      "hit": false,
      "t": 82002.60416666666,
      "d": 54.6875,
      "v": 93
    },
    {
      "midi": 76,
      "hit": false,
      "t": 82018.22916666669,
      "d": 380.20833333334303,
      "v": 111
    },
    {
      "midi": 55,
      "hit": false,
      "t": 82127.60416666666,
      "d": 59.89583333332848,
      "v": 93
    },
    {
      "midi": 55,
      "hit": false,
      "t": 82252.60416666666,
      "d": 44.27083333332848,
      "v": 93
    },
    {
      "midi": 55,
      "hit": false,
      "t": 82377.60416666666,
      "d": 62.5,
      "v": 93
    },
    {
      "midi": 77,
      "hit": false,
      "t": 82380.20833333336,
      "d": 403.64583333334303,
      "v": 111
    },
    {
      "midi": 43,
      "hit": false,
      "t": 82502.60416666666,
      "d": 260.4166666666715,
      "v": 124
    },
    {
      "midi": 89,
      "hit": false,
      "t": 82502.60416666666,
      "d": 289.0625,
      "v": 95
    },
    {
      "midi": 55,
      "hit": false,
      "t": 82502.60416666666,
      "d": 46.875,
      "v": 93
    },
    {
      "midi": 55,
      "hit": false,
      "t": 82627.60416666666,
      "d": 54.6875,
      "v": 93
    },
    {
      "midi": 86,
      "hit": false,
      "t": 82752.60416666666,
      "d": 1093.75,
      "v": 95
    },
    {
      "midi": 55,
      "hit": false,
      "t": 82752.60416666666,
      "d": 54.6875,
      "v": 93
    },
    {
      "midi": 74,
      "hit": false,
      "t": 82760.4166666667,
      "d": 963.5416666666715,
      "v": 111
    },
    {
      "midi": 43,
      "hit": false,
      "t": 82877.60416666666,
      "d": 70.3125,
      "v": 124
    },
    {
      "midi": 55,
      "hit": false,
      "t": 82877.60416666666,
      "d": 59.89583333332848,
      "v": 93
    },
    {
      "midi": 55,
      "hit": false,
      "t": 83002.60416666666,
      "d": 54.6875,
      "v": 93
    },
    {
      "midi": 43,
      "hit": false,
      "t": 83005.20833333333,
      "d": 231.77083333332848,
      "v": 124
    },
    {
      "midi": 67,
      "hit": false,
      "t": 83125,
      "d": 153.64583333332848,
      "v": 111
    },
    {
      "midi": 55,
      "hit": false,
      "t": 83127.60416666666,
      "d": 62.5,
      "v": 93
    },
    {
      "midi": 69,
      "hit": false,
      "t": 83250,
      "d": 143.22916666665697,
      "v": 111
    },
    {
      "midi": 41,
      "hit": false,
      "t": 83252.60416666666,
      "d": 236.97916666667152,
      "v": 124
    },
    {
      "midi": 55,
      "hit": false,
      "t": 83252.60416666666,
      "d": 54.6875,
      "v": 93
    },
    {
      "midi": 55,
      "hit": false,
      "t": 83377.60416666666,
      "d": 52.08333333332848,
      "v": 93
    },
    {
      "midi": 72,
      "hit": false,
      "t": 83499.99999999999,
      "d": 164.0625,
      "v": 111
    },
    {
      "midi": 40,
      "hit": false,
      "t": 83500,
      "d": 317.70833333334303,
      "v": 124
    },
    {
      "midi": 55,
      "hit": false,
      "t": 83502.60416666666,
      "d": 52.08333333332848,
      "v": 93
    },
    {
      "midi": 55,
      "hit": false,
      "t": 83627.60416666666,
      "d": 62.5,
      "v": 93
    },
    {
      "midi": 74,
      "hit": false,
      "t": 83627.60416666666,
      "d": 145.83333333332848,
      "v": 111
    },
    {
      "midi": 55,
      "hit": false,
      "t": 83752.60416666666,
      "d": 46.875,
      "v": 93
    },
    {
      "midi": 75,
      "hit": false,
      "t": 83752.60416666666,
      "d": 153.64583333332848,
      "v": 111
    },
    {
      "midi": 38,
      "hit": false,
      "t": 83752.60416666667,
      "d": 289.0625,
      "v": 124
    },
    {
      "midi": 55,
      "hit": false,
      "t": 83874.99999999999,
      "d": 46.875,
      "v": 93
    },
    {
      "midi": 76,
      "hit": false,
      "t": 83877.60416666666,
      "d": 226.5625,
      "v": 111
    },
    {
      "midi": 60,
      "hit": false,
      "t": 84002.60416666666,
      "d": 75.52083333332848,
      "v": 91
    },
    {
      "midi": 36,
      "hit": false,
      "t": 84005.20833333334,
      "d": 315.10416666665697,
      "v": 126
    },
    {
      "midi": 60,
      "hit": false,
      "t": 84122.39583333331,
      "d": 70.3125,
      "v": 91
    },
    {
      "midi": 60,
      "hit": false,
      "t": 84252.60416666664,
      "d": 39.0625,
      "v": 91
    },
    {
      "midi": 64,
      "hit": false,
      "t": 84252.60416666667,
      "d": 200.52083333332848,
      "v": 109
    },
    {
      "midi": 60,
      "hit": false,
      "t": 84252.60416666667,
      "d": 210.9375,
      "v": 109
    },
    {
      "midi": 55,
      "hit": false,
      "t": 84252.60416666667,
      "d": 213.54166666667152,
      "v": 109
    },
    {
      "midi": 60,
      "hit": false,
      "t": 84372.39583333331,
      "d": 72.91666666667152,
      "v": 91
    },
    {
      "midi": 60,
      "hit": false,
      "t": 84497.39583333331,
      "d": 70.3125,
      "v": 91
    },
    {
      "midi": 36,
      "hit": false,
      "t": 84497.39583333333,
      "d": 247.39583333332848,
      "v": 126
    },
    {
      "midi": 60,
      "hit": false,
      "t": 84622.39583333331,
      "d": 65.10416666667152,
      "v": 91
    },
    {
      "midi": 55,
      "hit": false,
      "t": 84627.60416666667,
      "d": 182.29166666667152,
      "v": 98
    },
    {
      "midi": 60,
      "hit": false,
      "t": 84630.20833333334,
      "d": 182.29166666667152,
      "v": 111
    },
    {
      "midi": 64,
      "hit": false,
      "t": 84630.20833333334,
      "d": 184.89583333334303,
      "v": 111
    },
    {
      "midi": 60,
      "hit": false,
      "t": 84747.39583333331,
      "d": 57.29166666667152,
      "v": 91
    },
    {
      "midi": 60,
      "hit": false,
      "t": 84872.39583333331,
      "d": 67.70833333332848,
      "v": 91
    },
    {
      "midi": 36,
      "hit": false,
      "t": 84872.39583333333,
      "d": 57.29166666667152,
      "v": 126
    },
    {
      "midi": 60,
      "hit": false,
      "t": 84999.99999999997,
      "d": 57.29166666667152,
      "v": 91
    },
    {
      "midi": 36,
      "hit": false,
      "t": 85002.60416666667,
      "d": 138.02083333332848,
      "v": 126
    },
    {
      "midi": 64,
      "hit": false,
      "t": 85002.60416666669,
      "d": 158.85416666667152,
      "v": 111
    },
    {
      "midi": 60,
      "hit": false,
      "t": 85002.60416666669,
      "d": 161.45833333334303,
      "v": 111
    },
    {
      "midi": 55,
      "hit": false,
      "t": 85002.60416666669,
      "d": 164.06250000001455,
      "v": 111
    },
    {
      "midi": 60,
      "hit": false,
      "t": 85124.99999999997,
      "d": 54.6875,
      "v": 91
    },
    {
      "midi": 69,
      "hit": false,
      "t": 85247.39583333333,
      "d": 70.31250000001455,
      "v": 113
    },
    {
      "midi": 79,
      "hit": false,
      "t": 85247.39583333333,
      "d": 91.14583333334303,
      "v": 113
    },
    {
      "midi": 36,
      "hit": false,
      "t": 85250,
      "d": 127.60416666667152,
      "v": 124
    },
    {
      "midi": 72,
      "hit": false,
      "t": 85250,
      "d": 65.10416666667152,
      "v": 78
    },
    {
      "midi": 60,
      "hit": false,
      "t": 85252.60416666664,
      "d": 54.6875,
      "v": 91
    },
    {
      "midi": 76,
      "hit": false,
      "t": 85252.60416666667,
      "d": 59.89583333332848,
      "v": 113
    },
    {
      "midi": 64,
      "hit": false,
      "t": 85372.39583333337,
      "d": 161.45833333332848,
      "v": 111
    },
    {
      "midi": 55,
      "hit": false,
      "t": 85372.39583333337,
      "d": 171.875,
      "v": 111
    },
    {
      "midi": 60,
      "hit": false,
      "t": 85372.39583333337,
      "d": 174.47916666667152,
      "v": 111
    },
    {
      "midi": 60,
      "hit": false,
      "t": 85374.99999999997,
      "d": 62.5,
      "v": 91
    },
    {
      "midi": 72,
      "hit": false,
      "t": 85377.60416666667,
      "d": 135.41666666667152,
      "v": 113
    },
    {
      "midi": 76,
      "hit": false,
      "t": 85377.60416666667,
      "d": 135.41666666667152,
      "v": 113
    },
    {
      "midi": 79,
      "hit": false,
      "t": 85377.60416666667,
      "d": 151.04166666667152,
      "v": 113
    },
    {
      "midi": 69,
      "hit": false,
      "t": 85377.60416666667,
      "d": 153.64583333334303,
      "v": 113
    },
    {
      "midi": 36,
      "hit": false,
      "t": 85500,
      "d": 148.4375,
      "v": 124
    },
    {
      "midi": 60,
      "hit": false,
      "t": 85502.60416666664,
      "d": 59.89583333332848,
      "v": 91
    },
    {
      "midi": 69,
      "hit": false,
      "t": 85622.39583333334,
      "d": 75.52083333334303,
      "v": 98
    },
    {
      "midi": 79,
      "hit": false,
      "t": 85622.39583333334,
      "d": 98.95833333334303,
      "v": 115
    },
    {
      "midi": 60,
      "hit": false,
      "t": 85627.60416666664,
      "d": 57.29166666667152,
      "v": 91
    },
    {
      "midi": 76,
      "hit": false,
      "t": 85627.60416666667,
      "d": 57.29166666667152,
      "v": 113
    },
    {
      "midi": 72,
      "hit": false,
      "t": 85627.60416666667,
      "d": 67.70833333334303,
      "v": 113
    },
    {
      "midi": 55,
      "hit": false,
      "t": 85744.79166666672,
      "d": 164.0625,
      "v": 80
    },
    {
      "midi": 60,
      "hit": false,
      "t": 85747.39583333331,
      "d": 59.89583333332848,
      "v": 91
    },
    {
      "midi": 36,
      "hit": false,
      "t": 85747.39583333333,
      "d": 122.39583333332848,
      "v": 122
    },
    {
      "midi": 60,
      "hit": false,
      "t": 85747.39583333339,
      "d": 177.08333333332848,
      "v": 111
    },
    {
      "midi": 64,
      "hit": false,
      "t": 85747.39583333339,
      "d": 182.29166666665697,
      "v": 111
    },
    {
      "midi": 72,
      "hit": false,
      "t": 85752.60416666669,
      "d": 125,
      "v": 113
    },
    {
      "midi": 76,
      "hit": false,
      "t": 85752.60416666669,
      "d": 143.22916666667152,
      "v": 113
    },
    {
      "midi": 60,
      "hit": false,
      "t": 85874.99999999997,
      "d": 54.6875,
      "v": 91
    },
    {
      "midi": 31,
      "hit": false,
      "t": 85997.39583333333,
      "d": 330.7291666666715,
      "v": 122
    },
    {
      "midi": 55,
      "hit": false,
      "t": 86002.60416666664,
      "d": 52.08333333332848,
      "v": 91
    },
    {
      "midi": 72,
      "hit": false,
      "t": 86002.60416666669,
      "d": 406.25,
      "v": 113
    },
    {
      "midi": 76,
      "hit": false,
      "t": 86002.60416666669,
      "d": 406.25,
      "v": 113
    },
    {
      "midi": 81,
      "hit": false,
      "t": 86002.60416666669,
      "d": 502.6041666666715,
      "v": 113
    },
    {
      "midi": 55,
      "hit": false,
      "t": 86122.3958333333,
      "d": 78.125,
      "v": 91
    },
    {
      "midi": 55,
      "hit": false,
      "t": 86247.3958333333,
      "d": 52.08333333332848,
      "v": 91
    },
    {
      "midi": 55,
      "hit": false,
      "t": 86247.39583333337,
      "d": 195.3125,
      "v": 111
    },
    {
      "midi": 62,
      "hit": false,
      "t": 86247.39583333337,
      "d": 223.95833333332848,
      "v": 111
    },
    {
      "midi": 59,
      "hit": false,
      "t": 86252.6041666667,
      "d": 187.5,
      "v": 111
    },
    {
      "midi": 55,
      "hit": false,
      "t": 86372.3958333333,
      "d": 70.3125,
      "v": 91
    },
    {
      "midi": 31,
      "hit": false,
      "t": 86497.39583333333,
      "d": 276.0416666666715,
      "v": 122
    },
    {
      "midi": 55,
      "hit": false,
      "t": 86502.60416666663,
      "d": 57.29166666667152,
      "v": 91
    },
    {
      "midi": 72,
      "hit": false,
      "t": 86502.60416666669,
      "d": 145.83333333334303,
      "v": 113
    },
    {
      "midi": 76,
      "hit": false,
      "t": 86502.60416666669,
      "d": 156.25000000001455,
      "v": 113
    },
    {
      "midi": 55,
      "hit": false,
      "t": 86627.60416666663,
      "d": 62.5,
      "v": 91
    },
    {
      "midi": 55,
      "hit": false,
      "t": 86627.6041666667,
      "d": 187.5,
      "v": 111
    },
    {
      "midi": 59,
      "hit": false,
      "t": 86630.20833333337,
      "d": 169.27083333332848,
      "v": 111
    },
    {
      "midi": 62,
      "hit": false,
      "t": 86630.20833333337,
      "d": 184.89583333332848,
      "v": 111
    },
    {
      "midi": 71,
      "hit": false,
      "t": 86750.00000000003,
      "d": 375.00000000001455,
      "v": 78
    },
    {
      "midi": 55,
      "hit": false,
      "t": 86752.60416666663,
      "d": 52.08333333332848,
      "v": 91
    },
    {
      "midi": 79,
      "hit": false,
      "t": 86752.6041666667,
      "d": 375.00000000001455,
      "v": 115
    },
    {
      "midi": 76,
      "hit": false,
      "t": 86755.20833333337,
      "d": 375.00000000001455,
      "v": 113
    },
    {
      "midi": 55,
      "hit": false,
      "t": 86877.60416666663,
      "d": 62.5,
      "v": 91
    },
    {
      "midi": 31,
      "hit": false,
      "t": 86877.60416666667,
      "d": 78.125,
      "v": 122
    },
    {
      "midi": 74,
      "hit": false,
      "t": 86997.39583333336,
      "d": 393.22916666665697,
      "v": 77
    },
    {
      "midi": 55,
      "hit": false,
      "t": 87002.60416666663,
      "d": 59.89583333332848,
      "v": 91
    },
    {
      "midi": 59,
      "hit": false,
      "t": 87002.6041666667,
      "d": 177.08333333334303,
      "v": 78
    },
    {
      "midi": 55,
      "hit": false,
      "t": 87002.6041666667,
      "d": 182.29166666667152,
      "v": 80
    },
    {
      "midi": 31,
      "hit": false,
      "t": 87005.20833333334,
      "d": 161.45833333332848,
      "v": 122
    },
    {
      "midi": 62,
      "hit": false,
      "t": 87005.20833333337,
      "d": 184.89583333332848,
      "v": 111
    },
    {
      "midi": 55,
      "hit": false,
      "t": 87127.60416666663,
      "d": 57.29166666667152,
      "v": 91
    },
    {
      "midi": 81,
      "hit": false,
      "t": 87250.00000000006,
      "d": 187.5,
      "v": 113
    },
    {
      "midi": 69,
      "hit": false,
      "t": 87250.00000000006,
      "d": 234.375,
      "v": 113
    },
    {
      "midi": 55,
      "hit": false,
      "t": 87252.60416666663,
      "d": 54.6875,
      "v": 91
    },
    {
      "midi": 31,
      "hit": false,
      "t": 87255.20833333334,
      "d": 138.02083333332848,
      "v": 122
    },
    {
      "midi": 55,
      "hit": false,
      "t": 87377.60416666663,
      "d": 70.3125,
      "v": 91
    },
    {
      "midi": 69,
      "hit": false,
      "t": 87377.60416666669,
      "d": 356.7708333333285,
      "v": 77
    },
    {
      "midi": 59,
      "hit": false,
      "t": 87377.6041666667,
      "d": 195.3125,
      "v": 111
    },
    {
      "midi": 55,
      "hit": false,
      "t": 87377.6041666667,
      "d": 200.52083333332848,
      "v": 111
    },
    {
      "midi": 62,
      "hit": false,
      "t": 87377.6041666667,
      "d": 208.33333333332848,
      "v": 111
    },
    {
      "midi": 31,
      "hit": false,
      "t": 87502.60416666667,
      "d": 145.83333333332848,
      "v": 122
    },
    {
      "midi": 55,
      "hit": false,
      "t": 87505.2083333333,
      "d": 52.08333333332848,
      "v": 91
    },
    {
      "midi": 72,
      "hit": false,
      "t": 87505.20833333339,
      "d": 130.20833333332848,
      "v": 113
    },
    {
      "midi": 84,
      "hit": false,
      "t": 87505.20833333339,
      "d": 140.625,
      "v": 113
    },
    {
      "midi": 55,
      "hit": false,
      "t": 87627.60416666663,
      "d": 39.0625,
      "v": 91
    },
    {
      "midi": 86,
      "hit": false,
      "t": 87630.20833333339,
      "d": 177.08333333332848,
      "v": 113
    },
    {
      "midi": 74,
      "hit": false,
      "t": 87630.20833333339,
      "d": 210.9375,
      "v": 113
    },
    {
      "midi": 72,
      "hit": false,
      "t": 87744.79166666669,
      "d": 830.7291666666715,
      "v": 77
    },
    {
      "midi": 55,
      "hit": false,
      "t": 87747.39583333336,
      "d": 200.52083333332848,
      "v": 111
    },
    {
      "midi": 55,
      "hit": false,
      "t": 87752.60416666663,
      "d": 49.47916666667152,
      "v": 91
    },
    {
      "midi": 31,
      "hit": false,
      "t": 87752.60416666667,
      "d": 111.97916666667152,
      "v": 122
    },
    {
      "midi": 59,
      "hit": false,
      "t": 87752.60416666669,
      "d": 195.3125,
      "v": 111
    },
    {
      "midi": 62,
      "hit": false,
      "t": 87752.60416666669,
      "d": 200.52083333332848,
      "v": 111
    },
    {
      "midi": 55,
      "hit": false,
      "t": 87877.60416666663,
      "d": 75.52083333332848,
      "v": 91
    },
    {
      "midi": 72,
      "hit": false,
      "t": 87880.20833333339,
      "d": 242.1875,
      "v": 98
    },
    {
      "midi": 84,
      "hit": false,
      "t": 87882.81250000006,
      "d": 255.20833333332848,
      "v": 113
    },
    {
      "midi": 57,
      "hit": false,
      "t": 88002.60416666663,
      "d": 59.89583333332848,
      "v": 91
    },
    {
      "midi": 33,
      "hit": false,
      "t": 88002.60416666667,
      "d": 328.125,
      "v": 122
    },
    {
      "midi": 57,
      "hit": false,
      "t": 88127.60416666663,
      "d": 62.5,
      "v": 91
    },
    {
      "midi": 57,
      "hit": false,
      "t": 88247.39583333334,
      "d": 252.60416666667152,
      "v": 98
    },
    {
      "midi": 57,
      "hit": false,
      "t": 88252.60416666663,
      "d": 52.08333333332848,
      "v": 91
    },
    {
      "midi": 52,
      "hit": false,
      "t": 88252.60416666667,
      "d": 229.16666666667152,
      "v": 111
    },
    {
      "midi": 60,
      "hit": false,
      "t": 88252.60416666667,
      "d": 239.58333333334303,
      "v": 111
    },
    {
      "midi": 57,
      "hit": false,
      "t": 88377.60416666663,
      "d": 62.5,
      "v": 91
    },
    {
      "midi": 57,
      "hit": false,
      "t": 88502.60416666663,
      "d": 49.47916666667152,
      "v": 91
    },
    {
      "midi": 33,
      "hit": false,
      "t": 88502.60416666667,
      "d": 260.4166666666715,
      "v": 124
    },
    {
      "midi": 57,
      "hit": false,
      "t": 88627.60416666663,
      "d": 75.52083333332848,
      "v": 91
    },
    {
      "midi": 57,
      "hit": false,
      "t": 88627.60416666669,
      "d": 187.5,
      "v": 98
    },
    {
      "midi": 52,
      "hit": false,
      "t": 88630.20833333336,
      "d": 164.0625,
      "v": 111
    },
    {
      "midi": 60,
      "hit": false,
      "t": 88630.20833333336,
      "d": 187.5,
      "v": 111
    },
    {
      "midi": 57,
      "hit": false,
      "t": 88752.60416666663,
      "d": 46.875,
      "v": 95
    },
    {
      "midi": 57,
      "hit": false,
      "t": 88877.60416666663,
      "d": 62.5,
      "v": 95
    },
    {
      "midi": 33,
      "hit": false,
      "t": 88877.60416666667,
      "d": 65.10416666667152,
      "v": 124
    },
    {
      "midi": 57,
      "hit": false,
      "t": 89002.60416666663,
      "d": 54.6875,
      "v": 95
    },
    {
      "midi": 33,
      "hit": false,
      "t": 89005.20833333334,
      "d": 145.83333333332848,
      "v": 124
    },
    {
      "midi": 60,
      "hit": false,
      "t": 89005.20833333336,
      "d": 203.125,
      "v": 111
    },
    {
      "midi": 52,
      "hit": false,
      "t": 89005.20833333336,
      "d": 208.33333333332848,
      "v": 111
    },
    {
      "midi": 57,
      "hit": false,
      "t": 89005.20833333336,
      "d": 213.54166666665697,
      "v": 111
    },
    {
      "midi": 57,
      "hit": false,
      "t": 89127.60416666663,
      "d": 67.70833333332848,
      "v": 95
    },
    {
      "midi": 57,
      "hit": false,
      "t": 89247.39583333328,
      "d": 59.89583333332848,
      "v": 95
    },
    {
      "midi": 33,
      "hit": false,
      "t": 89255.20833333334,
      "d": 132.8125,
      "v": 124
    },
    {
      "midi": 57,
      "hit": false,
      "t": 89372.39583333328,
      "d": 62.5,
      "v": 95
    },
    {
      "midi": 52,
      "hit": false,
      "t": 89377.60416666669,
      "d": 208.33333333334303,
      "v": 70
    },
    {
      "midi": 60,
      "hit": false,
      "t": 89380.20833333336,
      "d": 210.9375,
      "v": 111
    },
    {
      "midi": 57,
      "hit": false,
      "t": 89380.20833333336,
      "d": 213.54166666667152,
      "v": 111
    },
    {
      "midi": 57,
      "hit": false,
      "t": 89497.39583333328,
      "d": 59.89583333332848,
      "v": 95
    },
    {
      "midi": 33,
      "hit": false,
      "t": 89502.60416666667,
      "d": 122.39583333332848,
      "v": 124
    },
    {
      "midi": 57,
      "hit": false,
      "t": 89622.39583333328,
      "d": 59.89583333332848,
      "v": 95
    },
    {
      "midi": 57,
      "hit": false,
      "t": 89744.79166666661,
      "d": 65.10416666667152,
      "v": 95
    },
    {
      "midi": 33,
      "hit": false,
      "t": 89747.39583333333,
      "d": 114.58333333332848,
      "v": 124
    },
    {
      "midi": 57,
      "hit": false,
      "t": 89752.6041666667,
      "d": 231.77083333334303,
      "v": 104
    },
    {
      "midi": 52,
      "hit": false,
      "t": 89755.20833333337,
      "d": 195.3125,
      "v": 111
    },
    {
      "midi": 60,
      "hit": false,
      "t": 89755.20833333337,
      "d": 236.97916666667152,
      "v": 111
    },
    {
      "midi": 57,
      "hit": false,
      "t": 89872.39583333328,
      "d": 57.29166666667152,
      "v": 95
    },
    {
      "midi": 71,
      "hit": false,
      "t": 89877.60416666672,
      "d": 195.3125,
      "v": 111
    },
    {
      "midi": 83,
      "hit": false,
      "t": 89880.20833333339,
      "d": 145.83333333332848,
      "v": 111
    },
    {
      "midi": 52,
      "hit": false,
      "t": 89997.39583333328,
      "d": 52.08333333332848,
      "v": 95
    },
    {
      "midi": 28,
      "hit": false,
      "t": 89997.39583333333,
      "d": 276.0416666666715,
      "v": 124
    },
    {
      "midi": 52,
      "hit": false,
      "t": 90122.39583333328,
      "d": 65.10416666667152,
      "v": 95
    },
    {
      "midi": 82,
      "hit": false,
      "t": 90127.60416666672,
      "d": 91.14583333334303,
      "v": 62
    },
    {
      "midi": 70,
      "hit": false,
      "t": 90130.20833333339,
      "d": 143.22916666667152,
      "v": 111
    },
    {
      "midi": 52,
      "hit": false,
      "t": 90247.39583333328,
      "d": 52.08333333332848,
      "v": 95
    },
    {
      "midi": 52,
      "hit": false,
      "t": 90252.60416666672,
      "d": 221.35416666667152,
      "v": 111
    },
    {
      "midi": 59,
      "hit": false,
      "t": 90252.60416666672,
      "d": 231.77083333334303,
      "v": 111
    },
    {
      "midi": 55,
      "hit": false,
      "t": 90252.60416666672,
      "d": 234.37500000001455,
      "v": 111
    },
    {
      "midi": 76,
      "hit": false,
      "t": 90255.20833333336,
      "d": 218.75,
      "v": 82
    },
    {
      "midi": 69,
      "hit": false,
      "t": 90255.20833333339,
      "d": 127.60416666667152,
      "v": 111
    },
    {
      "midi": 81,
      "hit": false,
      "t": 90255.20833333339,
      "d": 138.02083333334303,
      "v": 111
    },
    {
      "midi": 52,
      "hit": false,
      "t": 90374.99999999994,
      "d": 62.5,
      "v": 95
    },
    {
      "midi": 52,
      "hit": false,
      "t": 90497.39583333327,
      "d": 54.6875,
      "v": 95
    },
    {
      "midi": 28,
      "hit": false,
      "t": 90497.39583333333,
      "d": 247.39583333332848,
      "v": 124
    },
    {
      "midi": 79,
      "hit": false,
      "t": 90502.60416666673,
      "d": 145.83333333334303,
      "v": 98
    },
    {
      "midi": 67,
      "hit": false,
      "t": 90505.2083333334,
      "d": 161.45833333334303,
      "v": 111
    },
    {
      "midi": 52,
      "hit": false,
      "t": 90622.39583333327,
      "d": 70.3125,
      "v": 95
    },
    {
      "midi": 76,
      "hit": false,
      "t": 90630.20833333336,
      "d": 236.97916666667152,
      "v": 82
    },
    {
      "midi": 81,
      "hit": false,
      "t": 90630.2083333334,
      "d": 125.00000000001455,
      "v": 111
    },
    {
      "midi": 69,
      "hit": false,
      "t": 90630.2083333334,
      "d": 151.04166666668607,
      "v": 111
    },
    {
      "midi": 52,
      "hit": false,
      "t": 90630.2083333334,
      "d": 174.47916666667152,
      "v": 111
    },
    {
      "midi": 59,
      "hit": false,
      "t": 90630.2083333334,
      "d": 195.3125,
      "v": 111
    },
    {
      "midi": 55,
      "hit": false,
      "t": 90630.2083333334,
      "d": 200.52083333332848,
      "v": 111
    },
    {
      "midi": 52,
      "hit": false,
      "t": 90747.39583333327,
      "d": 49.47916666667152,
      "v": 95
    },
    {
      "midi": 52,
      "hit": false,
      "t": 90869.79166666661,
      "d": 70.3125,
      "v": 95
    },
    {
      "midi": 28,
      "hit": false,
      "t": 90872.39583333333,
      "d": 59.89583333332848,
      "v": 124
    },
    {
      "midi": 83,
      "hit": false,
      "t": 90877.60416666676,
      "d": 130.20833333332848,
      "v": 111
    },
    {
      "midi": 71,
      "hit": false,
      "t": 90877.60416666676,
      "d": 148.4375,
      "v": 111
    },
    {
      "midi": 52,
      "hit": false,
      "t": 90997.39583333328,
      "d": 49.47916666667152,
      "v": 95
    },
    {
      "midi": 28,
      "hit": false,
      "t": 90997.39583333333,
      "d": 130.20833333332848,
      "v": 124
    },
    {
      "midi": 55,
      "hit": false,
      "t": 91002.60416666673,
      "d": 208.33333333334303,
      "v": 98
    },
    {
      "midi": 59,
      "hit": false,
      "t": 91002.60416666673,
      "d": 221.35416666667152,
      "v": 86
    },
    {
      "midi": 76,
      "hit": false,
      "t": 91005.20833333336,
      "d": 385.4166666666715,
      "v": 82
    },
    {
      "midi": 52,
      "hit": false,
      "t": 91005.2083333334,
      "d": 190.10416666667152,
      "v": 111
    },
    {
      "midi": 52,
      "hit": false,
      "t": 91122.39583333328,
      "d": 62.5,
      "v": 95
    },
    {
      "midi": 82,
      "hit": false,
      "t": 91127.60416666676,
      "d": 93.75,
      "v": 111
    },
    {
      "midi": 70,
      "hit": false,
      "t": 91127.60416666676,
      "d": 109.375,
      "v": 111
    },
    {
      "midi": 52,
      "hit": false,
      "t": 91247.39583333328,
      "d": 54.6875,
      "v": 95
    },
    {
      "midi": 28,
      "hit": false,
      "t": 91247.39583333333,
      "d": 122.39583333332848,
      "v": 124
    },
    {
      "midi": 81,
      "hit": false,
      "t": 91252.60416666676,
      "d": 143.22916666667152,
      "v": 111
    },
    {
      "midi": 69,
      "hit": false,
      "t": 91252.60416666676,
      "d": 161.45833333334303,
      "v": 111
    },
    {
      "midi": 52,
      "hit": false,
      "t": 91369.79166666661,
      "d": 70.3125,
      "v": 95
    },
    {
      "midi": 52,
      "hit": false,
      "t": 91377.60416666673,
      "d": 156.25,
      "v": 111
    },
    {
      "midi": 59,
      "hit": false,
      "t": 91377.60416666673,
      "d": 179.6875,
      "v": 111
    },
    {
      "midi": 55,
      "hit": false,
      "t": 91377.60416666673,
      "d": 195.3125,
      "v": 111
    },
    {
      "midi": 77,
      "hit": false,
      "t": 91380.20833333336,
      "d": 341.14583333334303,
      "v": 82
    },
    {
      "midi": 52,
      "hit": false,
      "t": 91497.39583333328,
      "d": 57.29166666667152,
      "v": 95
    },
    {
      "midi": 28,
      "hit": false,
      "t": 91497.39583333333,
      "d": 130.20833333332848,
      "v": 124
    },
    {
      "midi": 67,
      "hit": false,
      "t": 91497.39583333343,
      "d": 205.72916666667152,
      "v": 111
    },
    {
      "midi": 79,
      "hit": false,
      "t": 91500.0000000001,
      "d": 145.83333333332848,
      "v": 111
    },
    {
      "midi": 52,
      "hit": false,
      "t": 91624.99999999996,
      "d": 44.27083333332848,
      "v": 95
    },
    {
      "midi": 57,
      "hit": false,
      "t": 91744.79166666677,
      "d": 140.62499999998545,
      "v": 98
    },
    {
      "midi": 52,
      "hit": false,
      "t": 91747.39583333328,
      "d": 52.08333333332848,
      "v": 95
    },
    {
      "midi": 28,
      "hit": false,
      "t": 91747.39583333333,
      "d": 125,
      "v": 124
    },
    {
      "midi": 55,
      "hit": false,
      "t": 91747.3958333334,
      "d": 218.75000000001455,
      "v": 98
    },
    {
      "midi": 59,
      "hit": false,
      "t": 91750.00000000007,
      "d": 216.14583333334303,
      "v": 86
    },
    {
      "midi": 69,
      "hit": false,
      "t": 91750.0000000001,
      "d": 210.93749999998545,
      "v": 111
    },
    {
      "midi": 52,
      "hit": false,
      "t": 91752.60416666674,
      "d": 171.875,
      "v": 109
    },
    {
      "midi": 79,
      "hit": false,
      "t": 91755.20833333337,
      "d": 434.8958333333285,
      "v": 82
    },
    {
      "midi": 52,
      "hit": false,
      "t": 91872.39583333328,
      "d": 67.70833333332848,
      "v": 95
    },
    {
      "midi": 65,
      "hit": false,
      "t": 91872.39583333343,
      "d": 177.08333333332848,
      "v": 111
    },
    {
      "midi": 77,
      "hit": false,
      "t": 91877.60416666676,
      "d": 161.45833333332848,
      "v": 111
    },
    {
      "midi": 53,
      "hit": false,
      "t": 91997.39583333328,
      "d": 57.29166666667152,
      "v": 95
    },
    {
      "midi": 29,
      "hit": false,
      "t": 92002.60416666666,
      "d": 325.5208333333285,
      "v": 124
    },
    {
      "midi": 53,
      "hit": false,
      "t": 92122.39583333328,
      "d": 59.89583333332848,
      "v": 95
    },
    {
      "midi": 55,
      "hit": false,
      "t": 92127.60416666676,
      "d": 151.04166666665697,
      "v": 111
    },
    {
      "midi": 67,
      "hit": false,
      "t": 92127.60416666676,
      "d": 177.08333333332848,
      "v": 111
    },
    {
      "midi": 76,
      "hit": false,
      "t": 92244.7916666667,
      "d": 500,
      "v": 82
    },
    {
      "midi": 53,
      "hit": false,
      "t": 92247.39583333328,
      "d": 54.6875,
      "v": 95
    },
    {
      "midi": 57,
      "hit": false,
      "t": 92247.39583333342,
      "d": 239.58333333334303,
      "v": 107
    },
    {
      "midi": 60,
      "hit": false,
      "t": 92247.39583333342,
      "d": 247.39583333334303,
      "v": 107
    },
    {
      "midi": 57,
      "hit": false,
      "t": 92250.00000000009,
      "d": 151.04166666667152,
      "v": 111
    },
    {
      "midi": 69,
      "hit": false,
      "t": 92250.00000000009,
      "d": 177.08333333334303,
      "v": 111
    },
    {
      "midi": 53,
      "hit": false,
      "t": 92250.00000000009,
      "d": 218.75,
      "v": 109
    },
    {
      "midi": 53,
      "hit": false,
      "t": 92372.39583333328,
      "d": 59.89583333332848,
      "v": 95
    },
    {
      "midi": 53,
      "hit": false,
      "t": 92497.39583333328,
      "d": 52.08333333332848,
      "v": 95
    },
    {
      "midi": 64,
      "hit": false,
      "t": 92500.0000000001,
      "d": 257.8125,
      "v": 104
    },
    {
      "midi": 29,
      "hit": false,
      "t": 92502.60416666666,
      "d": 236.97916666667152,
      "v": 124
    },
    {
      "midi": 76,
      "hit": false,
      "t": 92502.60416666677,
      "d": 234.375,
      "v": 111
    },
    {
      "midi": 53,
      "hit": false,
      "t": 92627.60416666661,
      "d": 59.89583333332848,
      "v": 95
    },
    {
      "midi": 53,
      "hit": false,
      "t": 92627.60416666676,
      "d": 177.08333333334303,
      "v": 78
    },
    {
      "midi": 60,
      "hit": false,
      "t": 92627.60416666676,
      "d": 213.54166666667152,
      "v": 74
    },
    {
      "midi": 72,
      "hit": false,
      "t": 92630.20833333337,
      "d": 1291.666666666657,
      "v": 82
    },
    {
      "midi": 57,
      "hit": false,
      "t": 92630.20833333343,
      "d": 195.3125,
      "v": 111
    },
    {
      "midi": 53,
      "hit": false,
      "t": 92747.39583333327,
      "d": 54.6875,
      "v": 95
    },
    {
      "midi": 74,
      "hit": false,
      "t": 92750.0000000001,
      "d": 166.66666666667152,
      "v": 111
    },
    {
      "midi": 62,
      "hit": false,
      "t": 92750.0000000001,
      "d": 169.27083333334303,
      "v": 111
    },
    {
      "midi": 29,
      "hit": false,
      "t": 92872.39583333333,
      "d": 65.10416666667152,
      "v": 124
    },
    {
      "midi": 53,
      "hit": false,
      "t": 92874.99999999994,
      "d": 59.89583333332848,
      "v": 95
    },
    {
      "midi": 72,
      "hit": false,
      "t": 92875.0000000001,
      "d": 177.08333333334303,
      "v": 111
    },
    {
      "midi": 60,
      "hit": false,
      "t": 92875.0000000001,
      "d": 197.91666666667152,
      "v": 111
    },
    {
      "midi": 29,
      "hit": false,
      "t": 92997.39583333333,
      "d": 145.83333333332848,
      "v": 124
    },
    {
      "midi": 53,
      "hit": false,
      "t": 92999.99999999994,
      "d": 59.89583333332848,
      "v": 95
    },
    {
      "midi": 57,
      "hit": false,
      "t": 93002.60416666676,
      "d": 197.91666666667152,
      "v": 113
    },
    {
      "midi": 53,
      "hit": false,
      "t": 93002.60416666676,
      "d": 208.33333333334303,
      "v": 113
    },
    {
      "midi": 60,
      "hit": false,
      "t": 93002.60416666676,
      "d": 216.14583333334303,
      "v": 113
    },
    {
      "midi": 53,
      "hit": false,
      "t": 93127.6041666666,
      "d": 67.70833333332848,
      "v": 95
    },
    {
      "midi": 57,
      "hit": false,
      "t": 93130.20833333344,
      "d": 130.20833333332848,
      "v": 111
    },
    {
      "midi": 69,
      "hit": false,
      "t": 93130.20833333344,
      "d": 190.10416666665697,
      "v": 111
    },
    {
      "midi": 55,
      "hit": false,
      "t": 93244.79166666677,
      "d": 148.4375,
      "v": 111
    },
    {
      "midi": 53,
      "hit": false,
      "t": 93252.6041666666,
      "d": 57.29166666667152,
      "v": 95
    },
    {
      "midi": 29,
      "hit": false,
      "t": 93252.60416666666,
      "d": 135.41666666667152,
      "v": 124
    },
    {
      "midi": 67,
      "hit": false,
      "t": 93255.20833333344,
      "d": 171.875,
      "v": 111
    },
    {
      "midi": 53,
      "hit": false,
      "t": 93372.39583333327,
      "d": 78.125,
      "v": 95
    },
    {
      "midi": 53,
      "hit": false,
      "t": 93377.60416666677,
      "d": 161.45833333332848,
      "v": 113
    },
    {
      "midi": 60,
      "hit": false,
      "t": 93377.60416666677,
      "d": 192.70833333332848,
      "v": 113
    },
    {
      "midi": 57,
      "hit": false,
      "t": 93377.60416666677,
      "d": 205.72916666665697,
      "v": 113
    },
    {
      "midi": 53,
      "hit": false,
      "t": 93497.39583333327,
      "d": 62.5,
      "v": 95
    },
    {
      "midi": 52,
      "hit": false,
      "t": 93500.00000000012,
      "d": 182.29166666667152,
      "v": 76
    },
    {
      "midi": 29,
      "hit": false,
      "t": 93502.60416666666,
      "d": 140.625,
      "v": 124
    },
    {
      "midi": 64,
      "hit": false,
      "t": 93502.60416666679,
      "d": 164.0625,
      "v": 111
    },
    {
      "midi": 53,
      "hit": false,
      "t": 93627.6041666666,
      "d": 67.70833333332848,
      "v": 95
    },
    {
      "midi": 53,
      "hit": false,
      "t": 93627.60416666679,
      "d": 127.60416666667152,
      "v": 111
    },
    {
      "midi": 65,
      "hit": false,
      "t": 93627.60416666679,
      "d": 130.20833333334303,
      "v": 111
    },
    {
      "midi": 53,
      "hit": false,
      "t": 93747.39583333326,
      "d": 57.29166666667152,
      "v": 95
    },
    {
      "midi": 60,
      "hit": false,
      "t": 93750.0000000001,
      "d": 247.39583333334303,
      "v": 68
    },
    {
      "midi": 29,
      "hit": false,
      "t": 93752.60416666666,
      "d": 125,
      "v": 124
    },
    {
      "midi": 53,
      "hit": false,
      "t": 93752.60416666677,
      "d": 174.47916666667152,
      "v": 113
    },
    {
      "midi": 57,
      "hit": false,
      "t": 93752.60416666677,
      "d": 229.16666666667152,
      "v": 113
    },
    {
      "midi": 54,
      "hit": false,
      "t": 93752.60416666679,
      "d": 169.27083333334303,
      "v": 111
    },
    {
      "midi": 66,
      "hit": false,
      "t": 93755.20833333346,
      "d": 101.5625,
      "v": 111
    },
    {
      "midi": 53,
      "hit": false,
      "t": 93872.39583333326,
      "d": 59.89583333332848,
      "v": 95
    },
    {
      "midi": 55,
      "hit": false,
      "t": 93877.6041666668,
      "d": 486.97916666665697,
      "v": 124
    },
    {
      "midi": 67,
      "hit": false,
      "t": 93877.6041666668,
      "d": 1000,
      "v": 124
    },
    {
      "midi": 48,
      "hit": false,
      "t": 93997.39583333326,
      "d": 49.47916666667152,
      "v": 95
    },
    {
      "midi": 36,
      "hit": false,
      "t": 94002.60416666666,
      "d": 299.4791666666715,
      "v": 124
    },
    {
      "midi": 48,
      "hit": false,
      "t": 94127.6041666666,
      "d": 62.5,
      "v": 95
    },
    {
      "midi": 48,
      "hit": false,
      "t": 94247.39583333327,
      "d": 49.47916666667152,
      "v": 95
    },
    {
      "midi": 72,
      "hit": false,
      "t": 94247.39583333336,
      "d": 429.6875,
      "v": 80
    },
    {
      "midi": 52,
      "hit": false,
      "t": 94252.60416666677,
      "d": 216.14583333332848,
      "v": 113
    },
    {
      "midi": 60,
      "hit": false,
      "t": 94252.60416666677,
      "d": 231.77083333332848,
      "v": 113
    },
    {
      "midi": 55,
      "hit": false,
      "t": 94252.60416666677,
      "d": 242.1875,
      "v": 113
    },
    {
      "midi": 48,
      "hit": false,
      "t": 94372.39583333327,
      "d": 59.89583333332848,
      "v": 95
    },
    {
      "midi": 48,
      "hit": false,
      "t": 94499.99999999993,
      "d": 52.08333333332848,
      "v": 95
    },
    {
      "midi": 36,
      "hit": false,
      "t": 94502.60416666666,
      "d": 213.54166666667152,
      "v": 124
    },
    {
      "midi": 74,
      "hit": false,
      "t": 94622.39583333336,
      "d": 437.5,
      "v": 80
    },
    {
      "midi": 48,
      "hit": false,
      "t": 94627.60416666658,
      "d": 65.10416666667152,
      "v": 95
    },
    {
      "midi": 52,
      "hit": false,
      "t": 94630.20833333344,
      "d": 169.27083333332848,
      "v": 113
    },
    {
      "midi": 60,
      "hit": false,
      "t": 94630.20833333344,
      "d": 192.70833333332848,
      "v": 113
    },
    {
      "midi": 55,
      "hit": false,
      "t": 94630.20833333344,
      "d": 205.72916666665697,
      "v": 113
    },
    {
      "midi": 48,
      "hit": false,
      "t": 94752.60416666658,
      "d": 52.08333333332848,
      "v": 95
    },
    {
      "midi": 36,
      "hit": false,
      "t": 94872.39583333333,
      "d": 57.29166666667152,
      "v": 124
    },
    {
      "midi": 48,
      "hit": false,
      "t": 94877.60416666658,
      "d": 62.5,
      "v": 95
    },
    {
      "midi": 36,
      "hit": false,
      "t": 94997.39583333333,
      "d": 138.02083333332848,
      "v": 124
    },
    {
      "midi": 48,
      "hit": false,
      "t": 95002.60416666658,
      "d": 54.6875,
      "v": 95
    },
    {
      "midi": 76,
      "hit": false,
      "t": 95002.60416666669,
      "d": 429.6875,
      "v": 80
    },
    {
      "midi": 52,
      "hit": false,
      "t": 95005.20833333343,
      "d": 184.89583333332848,
      "v": 113
    },
    {
      "midi": 60,
      "hit": false,
      "t": 95005.20833333343,
      "d": 200.52083333332848,
      "v": 113
    },
    {
      "midi": 55,
      "hit": false,
      "t": 95005.20833333343,
      "d": 210.9375,
      "v": 113
    },
    {
      "midi": 76,
      "hit": false,
      "t": 95122.39583333347,
      "d": 138.02083333332848,
      "v": 115
    },
    {
      "midi": 72,
      "hit": false,
      "t": 95122.39583333347,
      "d": 151.04166666665697,
      "v": 115
    },
    {
      "midi": 69,
      "hit": false,
      "t": 95122.39583333347,
      "d": 192.70833333332848,
      "v": 115
    },
    {
      "midi": 79,
      "hit": false,
      "t": 95122.39583333347,
      "d": 203.125,
      "v": 115
    },
    {
      "midi": 48,
      "hit": false,
      "t": 95127.60416666658,
      "d": 67.70833333332848,
      "v": 95
    },
    {
      "midi": 36,
      "hit": false,
      "t": 95249.99999999999,
      "d": 119.79166666667152,
      "v": 124
    },
    {
      "midi": 48,
      "hit": false,
      "t": 95252.60416666658,
      "d": 54.6875,
      "v": 95
    },
    {
      "midi": 64,
      "hit": false,
      "t": 95372.39583333347,
      "d": 166.66666666665697,
      "v": 107
    },
    {
      "midi": 48,
      "hit": false,
      "t": 95377.60416666658,
      "d": 78.125,
      "v": 95
    },
    {
      "midi": 77,
      "hit": false,
      "t": 95377.60416666669,
      "d": 398.4375,
      "v": 80
    },
    {
      "midi": 52,
      "hit": false,
      "t": 95377.60416666676,
      "d": 174.47916666667152,
      "v": 113
    },
    {
      "midi": 60,
      "hit": false,
      "t": 95377.60416666676,
      "d": 205.72916666667152,
      "v": 113
    },
    {
      "midi": 55,
      "hit": false,
      "t": 95377.60416666676,
      "d": 210.9375,
      "v": 113
    },
    {
      "midi": 76,
      "hit": false,
      "t": 95377.6041666668,
      "d": 166.66666666665697,
      "v": 111
    },
    {
      "midi": 48,
      "hit": false,
      "t": 95502.60416666658,
      "d": 54.6875,
      "v": 95
    },
    {
      "midi": 36,
      "hit": false,
      "t": 95502.60416666666,
      "d": 140.625,
      "v": 124
    },
    {
      "midi": 69,
      "hit": false,
      "t": 95502.6041666668,
      "d": 130.20833333332848,
      "v": 113
    },
    {
      "midi": 81,
      "hit": false,
      "t": 95502.6041666668,
      "d": 171.875,
      "v": 113
    },
    {
      "midi": 48,
      "hit": false,
      "t": 95627.60416666658,
      "d": 70.3125,
      "v": 95
    },
    {
      "midi": 79,
      "hit": false,
      "t": 95627.60416666679,
      "d": 171.87500000001455,
      "v": 113
    },
    {
      "midi": 67,
      "hit": false,
      "t": 95630.20833333346,
      "d": 138.02083333334303,
      "v": 113
    },
    {
      "midi": 55,
      "hit": false,
      "t": 95747.39583333343,
      "d": 229.16666666665697,
      "v": 109
    },
    {
      "midi": 60,
      "hit": false,
      "t": 95747.39583333343,
      "d": 229.16666666665697,
      "v": 109
    },
    {
      "midi": 76,
      "hit": false,
      "t": 95747.39583333347,
      "d": 111.97916666665697,
      "v": 113
    },
    {
      "midi": 36,
      "hit": false,
      "t": 95749.99999999999,
      "d": 135.41666666667152,
      "v": 124
    },
    {
      "midi": 48,
      "hit": false,
      "t": 95752.60416666658,
      "d": 54.6875,
      "v": 95
    },
    {
      "midi": 76,
      "hit": false,
      "t": 95752.60416666669,
      "d": 580.7291666666715,
      "v": 80
    },
    {
      "midi": 52,
      "hit": false,
      "t": 95752.60416666676,
      "d": 171.875,
      "v": 111
    },
    {
      "midi": 64,
      "hit": false,
      "t": 95755.20833333347,
      "d": 124.99999999998545,
      "v": 113
    },
    {
      "midi": 48,
      "hit": false,
      "t": 95877.60416666658,
      "d": 70.3125,
      "v": 95
    },
    {
      "midi": 50,
      "hit": false,
      "t": 96002.60416666658,
      "d": 57.29166666667152,
      "v": 95
    },
    {
      "midi": 38,
      "hit": false,
      "t": 96002.60416666666,
      "d": 315.1041666666715,
      "v": 124
    },
    {
      "midi": 76,
      "hit": false,
      "t": 96002.60416666679,
      "d": 500,
      "v": 86
    },
    {
      "midi": 65,
      "hit": false,
      "t": 96005.20833333346,
      "d": 398.4375,
      "v": 113
    },
    {
      "midi": 69,
      "hit": false,
      "t": 96005.20833333346,
      "d": 406.25,
      "v": 113
    },
    {
      "midi": 72,
      "hit": false,
      "t": 96005.20833333346,
      "d": 500,
      "v": 113
    },
    {
      "midi": 50,
      "hit": false,
      "t": 96127.60416666658,
      "d": 59.89583333332848,
      "v": 95
    },
    {
      "midi": 50,
      "hit": false,
      "t": 96247.39583333324,
      "d": 46.875,
      "v": 95
    },
    {
      "midi": 53,
      "hit": false,
      "t": 96247.39583333342,
      "d": 221.35416666667152,
      "v": 111
    },
    {
      "midi": 57,
      "hit": false,
      "t": 96247.39583333342,
      "d": 236.97916666667152,
      "v": 111
    },
    {
      "midi": 60,
      "hit": false,
      "t": 96247.39583333342,
      "d": 244.79166666667152,
      "v": 111
    },
    {
      "midi": 79,
      "hit": false,
      "t": 96369.79166666669,
      "d": 960.9375,
      "v": 80
    },
    {
      "midi": 50,
      "hit": false,
      "t": 96372.39583333324,
      "d": 65.10416666667152,
      "v": 95
    },
    {
      "midi": 50,
      "hit": false,
      "t": 96497.39583333324,
      "d": 52.08333333332848,
      "v": 95
    },
    {
      "midi": 38,
      "hit": false,
      "t": 96497.39583333333,
      "d": 239.58333333332848,
      "v": 124
    },
    {
      "midi": 65,
      "hit": false,
      "t": 96502.60416666679,
      "d": 164.0625,
      "v": 113
    },
    {
      "midi": 69,
      "hit": false,
      "t": 96502.60416666679,
      "d": 171.875,
      "v": 113
    },
    {
      "midi": 50,
      "hit": false,
      "t": 96627.60416666657,
      "d": 62.5,
      "v": 95
    },
    {
      "midi": 53,
      "hit": false,
      "t": 96627.60416666676,
      "d": 182.29166666667152,
      "v": 111
    },
    {
      "midi": 57,
      "hit": false,
      "t": 96627.60416666676,
      "d": 190.10416666667152,
      "v": 111
    },
    {
      "midi": 60,
      "hit": false,
      "t": 96627.60416666676,
      "d": 197.91666666667152,
      "v": 111
    },
    {
      "midi": 50,
      "hit": false,
      "t": 96747.39583333324,
      "d": 52.08333333332848,
      "v": 93
    },
    {
      "midi": 69,
      "hit": false,
      "t": 96752.60416666679,
      "d": 260.4166666666715,
      "v": 115
    },
    {
      "midi": 65,
      "hit": false,
      "t": 96755.20833333346,
      "d": 210.9375,
      "v": 113
    },
    {
      "midi": 72,
      "hit": false,
      "t": 96755.20833333346,
      "d": 289.0625,
      "v": 113
    },
    {
      "midi": 50,
      "hit": false,
      "t": 96872.39583333324,
      "d": 70.3125,
      "v": 93
    },
    {
      "midi": 38,
      "hit": false,
      "t": 96872.39583333333,
      "d": 65.10416666667152,
      "v": 124
    },
    {
      "midi": 50,
      "hit": false,
      "t": 96997.39583333324,
      "d": 54.6875,
      "v": 93
    },
    {
      "midi": 38,
      "hit": false,
      "t": 96997.39583333333,
      "d": 138.02083333332848,
      "v": 124
    },
    {
      "midi": 53,
      "hit": false,
      "t": 97002.60416666676,
      "d": 177.08333333332848,
      "v": 111
    },
    {
      "midi": 57,
      "hit": false,
      "t": 97002.60416666676,
      "d": 192.70833333332848,
      "v": 111
    },
    {
      "midi": 60,
      "hit": false,
      "t": 97002.60416666676,
      "d": 205.72916666665697,
      "v": 111
    },
    {
      "midi": 50,
      "hit": false,
      "t": 97124.99999999991,
      "d": 57.29166666667152,
      "v": 93
    },
    {
      "midi": 38,
      "hit": false,
      "t": 97247.39583333333,
      "d": 125,
      "v": 124
    },
    {
      "midi": 76,
      "hit": false,
      "t": 97247.39583333336,
      "d": 705.729166666657,
      "v": 80
    },
    {
      "midi": 74,
      "hit": false,
      "t": 97247.39583333346,
      "d": 138.02083333334303,
      "v": 109
    },
    {
      "midi": 62,
      "hit": false,
      "t": 97250.00000000013,
      "d": 169.27083333334303,
      "v": 113
    },
    {
      "midi": 50,
      "hit": false,
      "t": 97252.60416666658,
      "d": 54.6875,
      "v": 93
    },
    {
      "midi": 50,
      "hit": false,
      "t": 97372.39583333326,
      "d": 65.10416666667152,
      "v": 93
    },
    {
      "midi": 53,
      "hit": false,
      "t": 97372.39583333342,
      "d": 161.45833333332848,
      "v": 92
    },
    {
      "midi": 60,
      "hit": false,
      "t": 97372.39583333342,
      "d": 200.52083333332848,
      "v": 74
    },
    {
      "midi": 57,
      "hit": false,
      "t": 97377.60416666674,
      "d": 184.89583333332848,
      "v": 111
    },
    {
      "midi": 38,
      "hit": false,
      "t": 97497.39583333333,
      "d": 153.64583333332848,
      "v": 124
    },
    {
      "midi": 64,
      "hit": false,
      "t": 97497.39583333347,
      "d": 138.02083333332848,
      "v": 104
    },
    {
      "midi": 50,
      "hit": false,
      "t": 97502.6041666666,
      "d": 54.6875,
      "v": 93
    },
    {
      "midi": 76,
      "hit": false,
      "t": 97502.6041666668,
      "d": 166.66666666667152,
      "v": 113
    },
    {
      "midi": 67,
      "hit": false,
      "t": 97622.39583333347,
      "d": 143.22916666668607,
      "v": 113
    },
    {
      "midi": 50,
      "hit": false,
      "t": 97627.6041666666,
      "d": 31.25,
      "v": 93
    },
    {
      "midi": 79,
      "hit": false,
      "t": 97630.20833333347,
      "d": 111.97916666667152,
      "v": 113
    },
    {
      "midi": 38,
      "hit": false,
      "t": 97747.39583333333,
      "d": 125,
      "v": 124
    },
    {
      "midi": 53,
      "hit": false,
      "t": 97747.39583333342,
      "d": 184.89583333332848,
      "v": 111
    },
    {
      "midi": 57,
      "hit": false,
      "t": 97747.39583333342,
      "d": 203.125,
      "v": 111
    },
    {
      "midi": 60,
      "hit": false,
      "t": 97747.39583333342,
      "d": 218.75,
      "v": 111
    },
    {
      "midi": 50,
      "hit": false,
      "t": 97752.6041666666,
      "d": 46.875,
      "v": 93
    },
    {
      "midi": 69,
      "hit": false,
      "t": 97752.60416666682,
      "d": 156.25,
      "v": 104
    },
    {
      "midi": 81,
      "hit": false,
      "t": 97755.20833333349,
      "d": 166.66666666665697,
      "v": 113
    },
    {
      "midi": 50,
      "hit": false,
      "t": 97877.6041666666,
      "d": 70.3125,
      "v": 93
    },
    {
      "midi": 79,
      "hit": false,
      "t": 97880.20833333349,
      "d": 924.479166666657,
      "v": 126
    },
    {
      "midi": 67,
      "hit": false,
      "t": 97880.20833333349,
      "d": 945.3124999999854,
      "v": 126
    },
    {
      "midi": 55,
      "hit": false,
      "t": 98002.6041666666,
      "d": 54.6875,
      "v": 93
    },
    {
      "midi": 43,
      "hit": false,
      "t": 98002.60416666666,
      "d": 354.1666666666715,
      "v": 124
    },
    {
      "midi": 55,
      "hit": false,
      "t": 98127.6041666666,
      "d": 59.89583333332848,
      "v": 93
    },
    {
      "midi": 55,
      "hit": false,
      "t": 98250.00000000009,
      "d": 187.5,
      "v": 98
    },
    {
      "midi": 55,
      "hit": false,
      "t": 98252.6041666666,
      "d": 44.27083333332848,
      "v": 93
    },
    {
      "midi": 59,
      "hit": false,
      "t": 98252.60416666676,
      "d": 192.70833333332848,
      "v": 111
    },
    {
      "midi": 62,
      "hit": false,
      "t": 98252.60416666676,
      "d": 205.72916666665697,
      "v": 111
    },
    {
      "midi": 55,
      "hit": false,
      "t": 98377.6041666666,
      "d": 62.5,
      "v": 93
    },
    {
      "midi": 55,
      "hit": false,
      "t": 98502.6041666666,
      "d": 46.875,
      "v": 93
    },
    {
      "midi": 43,
      "hit": false,
      "t": 98502.60416666666,
      "d": 260.4166666666715,
      "v": 124
    },
    {
      "midi": 55,
      "hit": false,
      "t": 98627.6041666666,
      "d": 54.6875,
      "v": 93
    },
    {
      "midi": 59,
      "hit": false,
      "t": 98627.60416666674,
      "d": 161.45833333332848,
      "v": 111
    },
    {
      "midi": 55,
      "hit": false,
      "t": 98627.60416666674,
      "d": 166.66666666665697,
      "v": 111
    },
    {
      "midi": 62,
      "hit": false,
      "t": 98627.60416666674,
      "d": 192.70833333332848,
      "v": 111
    },
    {
      "midi": 55,
      "hit": false,
      "t": 98752.6041666666,
      "d": 54.6875,
      "v": 93
    },
    {
      "midi": 55,
      "hit": false,
      "t": 98877.6041666666,
      "d": 59.89583333332848,
      "v": 93
    },
    {
      "midi": 43,
      "hit": false,
      "t": 98877.60416666666,
      "d": 70.3125,
      "v": 124
    },
    {
      "midi": 55,
      "hit": false,
      "t": 99002.6041666666,
      "d": 54.6875,
      "v": 93
    },
    {
      "midi": 59,
      "hit": false,
      "t": 99002.60416666674,
      "d": 179.6875,
      "v": 98
    },
    {
      "midi": 55,
      "hit": false,
      "t": 99002.60416666674,
      "d": 184.89583333332848,
      "v": 98
    },
    {
      "midi": 67,
      "hit": false,
      "t": 99002.60416666682,
      "d": 270.8333333333285,
      "v": 126
    },
    {
      "midi": 79,
      "hit": false,
      "t": 99002.60416666682,
      "d": 291.66666666665697,
      "v": 126
    },
    {
      "midi": 43,
      "hit": false,
      "t": 99005.20833333333,
      "d": 231.77083333332848,
      "v": 124
    },
    {
      "midi": 62,
      "hit": false,
      "t": 99005.20833333342,
      "d": 182.29166666665697,
      "v": 111
    },
    {
      "midi": 55,
      "hit": false,
      "t": 99127.6041666666,
      "d": 62.5,
      "v": 93
    },
    {
      "midi": 43,
      "hit": false,
      "t": 99249.99999999999,
      "d": 236.97916666667152,
      "v": 124
    },
    {
      "midi": 55,
      "hit": false,
      "t": 99252.6041666666,
      "d": 54.6875,
      "v": 93
    },
    {
      "midi": 55,
      "hit": false,
      "t": 99375.00000000007,
      "d": 203.125,
      "v": 92
    },
    {
      "midi": 55,
      "hit": false,
      "t": 99377.6041666666,
      "d": 52.08333333332848,
      "v": 93
    },
    {
      "midi": 59,
      "hit": false,
      "t": 99377.60416666674,
      "d": 203.125,
      "v": 111
    },
    {
      "midi": 62,
      "hit": false,
      "t": 99377.60416666674,
      "d": 213.54166666667152,
      "v": 111
    },
    {
      "midi": 79,
      "hit": false,
      "t": 99500.00000000015,
      "d": 299.4791666666715,
      "v": 127
    },
    {
      "midi": 55,
      "hit": false,
      "t": 99502.6041666666,
      "d": 52.08333333332848,
      "v": 93
    },
    {
      "midi": 67,
      "hit": false,
      "t": 99502.60416666682,
      "d": 307.2916666666715,
      "v": 126
    },
    {
      "midi": 55,
      "hit": false,
      "t": 99627.6041666666,
      "d": 62.5,
      "v": 93
    },
    {
      "midi": 43,
      "hit": false,
      "t": 99749.99999999999,
      "d": 67.70833333332848,
      "v": 124
    },
    {
      "midi": 55,
      "hit": false,
      "t": 99752.6041666666,
      "d": 46.875,
      "v": 93
    },
    {
      "midi": 55,
      "hit": false,
      "t": 99752.60416666674,
      "d": 174.47916666667152,
      "v": 111
    },
    {
      "midi": 59,
      "hit": false,
      "t": 99752.60416666674,
      "d": 182.29166666667152,
      "v": 111
    },
    {
      "midi": 62,
      "hit": false,
      "t": 99752.60416666674,
      "d": 184.89583333334303,
      "v": 111
    },
    {
      "midi": 55,
      "hit": false,
      "t": 99874.99999999993,
      "d": 46.875,
      "v": 93
    },
    {
      "midi": 55,
      "hit": false,
      "t": 99877.60416666669,
      "d": 148.4375,
      "v": 111
    },
    {
      "midi": 67,
      "hit": false,
      "t": 99877.60416666669,
      "d": 156.25,
      "v": 111
    },
    {
      "midi": 72,
      "hit": false,
      "t": 99999.99999999997,
      "d": 1945.3125,
      "v": 95
    },
    {
      "midi": 76,
      "hit": false,
      "t": 99999.99999999997,
      "d": 2013.0208333333285,
      "v": 95
    },
    {
      "midi": 67,
      "hit": false,
      "t": 99999.99999999997,
      "d": 3880.2083333333285,
      "v": 92
    },
    {
      "midi": 55,
      "hit": false,
      "t": 99999.99999999997,
      "d": 3999.9999999999854,
      "v": 95
    },
    {
      "midi": 76,
      "hit": false,
      "t": 100000.00000000001,
      "d": 273.4375,
      "v": 78
    },
    {
      "midi": 60,
      "hit": false,
      "t": 100002.6041666666,
      "d": 75.52083333332848,
      "v": 91
    },
    {
      "midi": 64,
      "hit": false,
      "t": 100002.60416666669,
      "d": 257.8125,
      "v": 111
    },
    {
      "midi": 36,
      "hit": false,
      "t": 100005.20833333331,
      "d": 315.1041666666715,
      "v": 126
    },
    {
      "midi": 60,
      "hit": false,
      "t": 100122.39583333326,
      "d": 70.3125,
      "v": 91
    },
    {
      "midi": 60,
      "hit": false,
      "t": 100252.60416666658,
      "d": 39.0625,
      "v": 91
    },
    {
      "midi": 67,
      "hit": false,
      "t": 100252.60416666669,
      "d": 294.2708333333285,
      "v": 111
    },
    {
      "midi": 55,
      "hit": false,
      "t": 100252.60416666669,
      "d": 299.47916666665697,
      "v": 111
    },
    {
      "midi": 60,
      "hit": false,
      "t": 100372.39583333326,
      "d": 72.91666666667152,
      "v": 91
    },
    {
      "midi": 60,
      "hit": false,
      "t": 100497.39583333326,
      "d": 70.3125,
      "v": 91
    },
    {
      "midi": 36,
      "hit": false,
      "t": 100497.39583333331,
      "d": 247.39583333332848,
      "v": 126
    },
    {
      "midi": 60,
      "hit": false,
      "t": 100622.39583333326,
      "d": 65.10416666667152,
      "v": 91
    },
    {
      "midi": 60,
      "hit": false,
      "t": 100747.39583333326,
      "d": 57.29166666667152,
      "v": 91
    },
    {
      "midi": 60,
      "hit": false,
      "t": 100872.39583333326,
      "d": 67.70833333332848,
      "v": 91
    },
    {
      "midi": 36,
      "hit": false,
      "t": 100872.39583333331,
      "d": 57.29166666667152,
      "v": 126
    },
    {
      "midi": 60,
      "hit": false,
      "t": 100999.99999999991,
      "d": 57.29166666667152,
      "v": 91
    },
    {
      "midi": 36,
      "hit": false,
      "t": 101002.60416666666,
      "d": 138.02083333332848,
      "v": 126
    },
    {
      "midi": 60,
      "hit": false,
      "t": 101124.99999999991,
      "d": 54.6875,
      "v": 91
    },
    {
      "midi": 36,
      "hit": false,
      "t": 101249.99999999999,
      "d": 127.60416666667152,
      "v": 124
    },
    {
      "midi": 60,
      "hit": false,
      "t": 101252.60416666658,
      "d": 54.6875,
      "v": 91
    },
    {
      "midi": 60,
      "hit": false,
      "t": 101374.99999999991,
      "d": 62.5,
      "v": 91
    },
    {
      "midi": 36,
      "hit": false,
      "t": 101499.99999999999,
      "d": 148.4375,
      "v": 124
    },
    {
      "midi": 76,
      "hit": false,
      "t": 101500.00000000004,
      "d": 250,
      "v": 113
    },
    {
      "midi": 60,
      "hit": false,
      "t": 101502.60416666658,
      "d": 59.89583333332848,
      "v": 91
    },
    {
      "midi": 60,
      "hit": false,
      "t": 101627.60416666658,
      "d": 57.29166666667152,
      "v": 91
    },
    {
      "midi": 60,
      "hit": false,
      "t": 101747.39583333326,
      "d": 59.89583333332848,
      "v": 91
    },
    {
      "midi": 36,
      "hit": false,
      "t": 101747.39583333331,
      "d": 122.39583333332848,
      "v": 122
    },
    {
      "midi": 72,
      "hit": false,
      "t": 101747.39583333337,
      "d": 333.3333333333285,
      "v": 113
    },
    {
      "midi": 60,
      "hit": false,
      "t": 101874.99999999991,
      "d": 54.6875,
      "v": 91
    },
    {
      "midi": 74,
      "hit": false,
      "t": 101997.3958333333,
      "d": 1911.4583333333285,
      "v": 95
    },
    {
      "midi": 31,
      "hit": false,
      "t": 101997.39583333331,
      "d": 330.7291666666715,
      "v": 122
    },
    {
      "midi": 71,
      "hit": false,
      "t": 101999.99999999997,
      "d": 1979.166666666657,
      "v": 95
    },
    {
      "midi": 55,
      "hit": false,
      "t": 102002.60416666658,
      "d": 52.08333333332848,
      "v": 91
    },
    {
      "midi": 74,
      "hit": false,
      "t": 102005.20833333337,
      "d": 395.8333333333285,
      "v": 113
    },
    {
      "midi": 55,
      "hit": false,
      "t": 102122.39583333324,
      "d": 78.125,
      "v": 91
    },
    {
      "midi": 55,
      "hit": false,
      "t": 102247.39583333324,
      "d": 52.08333333332848,
      "v": 91
    },
    {
      "midi": 55,
      "hit": false,
      "t": 102372.39583333324,
      "d": 70.3125,
      "v": 91
    },
    {
      "midi": 71,
      "hit": false,
      "t": 102380.20833333337,
      "d": 375,
      "v": 113
    },
    {
      "midi": 31,
      "hit": false,
      "t": 102497.39583333331,
      "d": 276.0416666666715,
      "v": 122
    },
    {
      "midi": 55,
      "hit": false,
      "t": 102502.60416666657,
      "d": 57.29166666667152,
      "v": 91
    },
    {
      "midi": 55,
      "hit": false,
      "t": 102627.60416666657,
      "d": 62.5,
      "v": 91
    },
    {
      "midi": 55,
      "hit": false,
      "t": 102752.60416666657,
      "d": 52.08333333332848,
      "v": 91
    },
    {
      "midi": 67,
      "hit": false,
      "t": 102755.20833333337,
      "d": 783.8541666666715,
      "v": 113
    },
    {
      "midi": 55,
      "hit": false,
      "t": 102877.60416666657,
      "d": 62.5,
      "v": 91
    },
    {
      "midi": 31,
      "hit": false,
      "t": 102877.60416666666,
      "d": 78.125,
      "v": 122
    },
    {
      "midi": 55,
      "hit": false,
      "t": 103002.60416666657,
      "d": 59.89583333332848,
      "v": 91
    },
    {
      "midi": 31,
      "hit": false,
      "t": 103005.20833333333,
      "d": 161.45833333332848,
      "v": 122
    },
    {
      "midi": 55,
      "hit": false,
      "t": 103127.60416666657,
      "d": 57.29166666667152,
      "v": 91
    },
    {
      "midi": 55,
      "hit": false,
      "t": 103252.60416666657,
      "d": 54.6875,
      "v": 91
    },
    {
      "midi": 31,
      "hit": false,
      "t": 103255.20833333333,
      "d": 138.02083333332848,
      "v": 122
    },
    {
      "midi": 55,
      "hit": false,
      "t": 103377.60416666657,
      "d": 70.3125,
      "v": 91
    },
    {
      "midi": 31,
      "hit": false,
      "t": 103502.60416666666,
      "d": 145.83333333332848,
      "v": 122
    },
    {
      "midi": 55,
      "hit": false,
      "t": 103505.20833333324,
      "d": 52.08333333332848,
      "v": 91
    },
    {
      "midi": 55,
      "hit": false,
      "t": 103627.60416666657,
      "d": 39.0625,
      "v": 91
    },
    {
      "midi": 55,
      "hit": false,
      "t": 103752.60416666657,
      "d": 49.47916666667152,
      "v": 91
    },
    {
      "midi": 31,
      "hit": false,
      "t": 103752.60416666666,
      "d": 111.97916666667152,
      "v": 122
    },
    {
      "midi": 55,
      "hit": false,
      "t": 103877.60416666657,
      "d": 75.52083333332848,
      "v": 91
    },
    {
      "midi": 59,
      "hit": false,
      "t": 103880.20833333334,
      "d": 119.79166666667152,
      "v": 111
    },
    {
      "midi": 71,
      "hit": false,
      "t": 103880.20833333334,
      "d": 127.60416666668607,
      "v": 111
    },
    {
      "midi": 69,
      "hit": false,
      "t": 103999.99999999996,
      "d": 1953.125,
      "v": 97
    },
    {
      "midi": 57,
      "hit": false,
      "t": 104002.60416666657,
      "d": 59.89583333332848,
      "v": 91
    },
    {
      "midi": 72,
      "hit": false,
      "t": 104002.60416666663,
      "d": 1986.979166666657,
      "v": 97
    },
    {
      "midi": 64,
      "hit": false,
      "t": 104002.60416666663,
      "d": 3807.2916666666424,
      "v": 97
    },
    {
      "midi": 52,
      "hit": false,
      "t": 104002.60416666663,
      "d": 3999.9999999999563,
      "v": 97
    },
    {
      "midi": 33,
      "hit": false,
      "t": 104002.60416666666,
      "d": 328.125,
      "v": 122
    },
    {
      "midi": 72,
      "hit": false,
      "t": 104002.60416666669,
      "d": 296.87500000001455,
      "v": 76
    },
    {
      "midi": 60,
      "hit": false,
      "t": 104005.20833333336,
      "d": 252.60416666667152,
      "v": 111
    },
    {
      "midi": 57,
      "hit": false,
      "t": 104127.60416666657,
      "d": 62.5,
      "v": 91
    },
    {
      "midi": 57,
      "hit": false,
      "t": 104252.60416666657,
      "d": 52.08333333332848,
      "v": 91
    },
    {
      "midi": 69,
      "hit": false,
      "t": 104252.6041666667,
      "d": 330.7291666666715,
      "v": 111
    },
    {
      "midi": 57,
      "hit": false,
      "t": 104252.6041666667,
      "d": 338.5416666666715,
      "v": 111
    },
    {
      "midi": 57,
      "hit": false,
      "t": 104377.60416666657,
      "d": 62.5,
      "v": 91
    },
    {
      "midi": 57,
      "hit": false,
      "t": 104502.60416666657,
      "d": 49.47916666667152,
      "v": 91
    },
    {
      "midi": 33,
      "hit": false,
      "t": 104502.60416666666,
      "d": 260.4166666666715,
      "v": 124
    },
    {
      "midi": 57,
      "hit": false,
      "t": 104627.60416666657,
      "d": 75.52083333332848,
      "v": 91
    },
    {
      "midi": 57,
      "hit": false,
      "t": 104752.60416666657,
      "d": 46.875,
      "v": 95
    },
    {
      "midi": 57,
      "hit": false,
      "t": 104877.60416666657,
      "d": 62.5,
      "v": 95
    },
    {
      "midi": 33,
      "hit": false,
      "t": 104877.60416666666,
      "d": 65.10416666667152,
      "v": 124
    },
    {
      "midi": 57,
      "hit": false,
      "t": 105002.60416666657,
      "d": 54.6875,
      "v": 95
    },
    {
      "midi": 33,
      "hit": false,
      "t": 105005.20833333333,
      "d": 145.83333333332848,
      "v": 124
    },
    {
      "midi": 57,
      "hit": false,
      "t": 105127.60416666657,
      "d": 67.70833333332848,
      "v": 95
    },
    {
      "midi": 57,
      "hit": false,
      "t": 105247.39583333323,
      "d": 59.89583333332848,
      "v": 95
    },
    {
      "midi": 33,
      "hit": false,
      "t": 105255.20833333333,
      "d": 132.8125,
      "v": 124
    },
    {
      "midi": 57,
      "hit": false,
      "t": 105372.39583333323,
      "d": 62.5,
      "v": 95
    },
    {
      "midi": 57,
      "hit": false,
      "t": 105497.39583333323,
      "d": 59.89583333332848,
      "v": 95
    },
    {
      "midi": 33,
      "hit": false,
      "t": 105502.60416666666,
      "d": 122.39583333332848,
      "v": 124
    },
    {
      "midi": 72,
      "hit": false,
      "t": 105502.60416666672,
      "d": 244.79166666667152,
      "v": 113
    },
    {
      "midi": 57,
      "hit": false,
      "t": 105622.39583333323,
      "d": 59.89583333332848,
      "v": 95
    },
    {
      "midi": 57,
      "hit": false,
      "t": 105744.79166666656,
      "d": 65.10416666667152,
      "v": 95
    },
    {
      "midi": 33,
      "hit": false,
      "t": 105747.39583333331,
      "d": 114.58333333332848,
      "v": 124
    },
    {
      "midi": 69,
      "hit": false,
      "t": 105752.60416666672,
      "d": 294.2708333333285,
      "v": 113
    },
    {
      "midi": 57,
      "hit": false,
      "t": 105872.39583333323,
      "d": 57.29166666667152,
      "v": 95
    },
    {
      "midi": 71,
      "hit": false,
      "t": 105994.79166666661,
      "d": 1929.6874999999854,
      "v": 95
    },
    {
      "midi": 52,
      "hit": false,
      "t": 105997.39583333323,
      "d": 52.08333333332848,
      "v": 95
    },
    {
      "midi": 28,
      "hit": false,
      "t": 105997.39583333331,
      "d": 276.0416666666715,
      "v": 124
    },
    {
      "midi": 67,
      "hit": false,
      "t": 105999.99999999994,
      "d": 1953.1249999999854,
      "v": 95
    },
    {
      "midi": 71,
      "hit": false,
      "t": 106002.60416666672,
      "d": 544.2708333333285,
      "v": 113
    },
    {
      "midi": 52,
      "hit": false,
      "t": 106122.39583333323,
      "d": 65.10416666667152,
      "v": 95
    },
    {
      "midi": 52,
      "hit": false,
      "t": 106247.39583333323,
      "d": 52.08333333332848,
      "v": 95
    },
    {
      "midi": 52,
      "hit": false,
      "t": 106374.99999999988,
      "d": 62.5,
      "v": 95
    },
    {
      "midi": 52,
      "hit": false,
      "t": 106497.39583333321,
      "d": 54.6875,
      "v": 95
    },
    {
      "midi": 28,
      "hit": false,
      "t": 106497.39583333331,
      "d": 247.39583333332848,
      "v": 124
    },
    {
      "midi": 67,
      "hit": false,
      "t": 106505.20833333337,
      "d": 242.1875,
      "v": 113
    },
    {
      "midi": 52,
      "hit": false,
      "t": 106622.39583333321,
      "d": 70.3125,
      "v": 95
    },
    {
      "midi": 52,
      "hit": false,
      "t": 106747.39583333321,
      "d": 49.47916666667152,
      "v": 95
    },
    {
      "midi": 64,
      "hit": false,
      "t": 106752.6041666667,
      "d": 611.9791666666715,
      "v": 111
    },
    {
      "midi": 52,
      "hit": false,
      "t": 106869.79166666656,
      "d": 70.3125,
      "v": 95
    },
    {
      "midi": 28,
      "hit": false,
      "t": 106872.39583333331,
      "d": 59.89583333332848,
      "v": 124
    },
    {
      "midi": 52,
      "hit": false,
      "t": 106997.39583333323,
      "d": 49.47916666667152,
      "v": 95
    },
    {
      "midi": 28,
      "hit": false,
      "t": 106997.39583333331,
      "d": 130.20833333332848,
      "v": 124
    },
    {
      "midi": 52,
      "hit": false,
      "t": 107122.39583333323,
      "d": 62.5,
      "v": 95
    },
    {
      "midi": 52,
      "hit": false,
      "t": 107247.39583333323,
      "d": 54.6875,
      "v": 95
    },
    {
      "midi": 28,
      "hit": false,
      "t": 107247.39583333331,
      "d": 122.39583333332848,
      "v": 124
    },
    {
      "midi": 52,
      "hit": false,
      "t": 107369.79166666656,
      "d": 70.3125,
      "v": 95
    },
    {
      "midi": 52,
      "hit": false,
      "t": 107497.39583333323,
      "d": 57.29166666667152,
      "v": 95
    },
    {
      "midi": 28,
      "hit": false,
      "t": 107497.39583333331,
      "d": 130.20833333332848,
      "v": 124
    },
    {
      "midi": 52,
      "hit": false,
      "t": 107624.9999999999,
      "d": 44.27083333332848,
      "v": 95
    },
    {
      "midi": 52,
      "hit": false,
      "t": 107747.39583333323,
      "d": 52.08333333332848,
      "v": 95
    },
    {
      "midi": 28,
      "hit": false,
      "t": 107747.39583333331,
      "d": 125,
      "v": 124
    },
    {
      "midi": 52,
      "hit": false,
      "t": 107872.39583333323,
      "d": 67.70833333332848,
      "v": 95
    },
    {
      "midi": 67,
      "hit": false,
      "t": 107880.20833333337,
      "d": 122.39583333332848,
      "v": 113
    },
    {
      "midi": 55,
      "hit": false,
      "t": 107880.20833333337,
      "d": 125,
      "v": 113
    },
    {
      "midi": 53,
      "hit": false,
      "t": 107997.39583333323,
      "d": 57.29166666667152,
      "v": 95
    },
    {
      "midi": 65,
      "hit": false,
      "t": 107997.39583333326,
      "d": 1867.1875,
      "v": 80
    },
    {
      "midi": 69,
      "hit": false,
      "t": 107997.39583333326,
      "d": 2000,
      "v": 86
    },
    {
      "midi": 48,
      "hit": false,
      "t": 107997.39583333326,
      "d": 4023.4375,
      "v": 74
    },
    {
      "midi": 60,
      "hit": false,
      "t": 108002.60416666658,
      "d": 3809.895833333343,
      "v": 97
    },
    {
      "midi": 29,
      "hit": false,
      "t": 108002.60416666664,
      "d": 325.5208333333285,
      "v": 124
    },
    {
      "midi": 57,
      "hit": false,
      "t": 108002.6041666667,
      "d": 242.1875,
      "v": 113
    },
    {
      "midi": 69,
      "hit": false,
      "t": 108002.6041666667,
      "d": 247.39583333332848,
      "v": 113
    },
    {
      "midi": 53,
      "hit": false,
      "t": 108122.39583333323,
      "d": 59.89583333332848,
      "v": 95
    },
    {
      "midi": 53,
      "hit": false,
      "t": 108247.39583333323,
      "d": 54.6875,
      "v": 95
    },
    {
      "midi": 60,
      "hit": false,
      "t": 108255.20833333336,
      "d": 307.2916666666715,
      "v": 117
    },
    {
      "midi": 48,
      "hit": false,
      "t": 108255.20833333336,
      "d": 328.125,
      "v": 117
    },
    {
      "midi": 53,
      "hit": false,
      "t": 108372.39583333323,
      "d": 59.89583333332848,
      "v": 95
    },
    {
      "midi": 53,
      "hit": false,
      "t": 108497.39583333323,
      "d": 52.08333333332848,
      "v": 95
    },
    {
      "midi": 29,
      "hit": false,
      "t": 108502.60416666664,
      "d": 236.97916666667152,
      "v": 124
    },
    {
      "midi": 53,
      "hit": false,
      "t": 108627.60416666656,
      "d": 59.89583333332848,
      "v": 95
    },
    {
      "midi": 53,
      "hit": false,
      "t": 108747.39583333321,
      "d": 54.6875,
      "v": 95
    },
    {
      "midi": 29,
      "hit": false,
      "t": 108872.39583333331,
      "d": 65.10416666667152,
      "v": 124
    },
    {
      "midi": 53,
      "hit": false,
      "t": 108874.99999999988,
      "d": 59.89583333332848,
      "v": 95
    },
    {
      "midi": 29,
      "hit": false,
      "t": 108997.39583333331,
      "d": 145.83333333332848,
      "v": 124
    },
    {
      "midi": 53,
      "hit": false,
      "t": 108999.99999999988,
      "d": 59.89583333332848,
      "v": 95
    },
    {
      "midi": 53,
      "hit": false,
      "t": 109127.60416666654,
      "d": 67.70833333332848,
      "v": 95
    },
    {
      "midi": 53,
      "hit": false,
      "t": 109252.60416666654,
      "d": 57.29166666667152,
      "v": 95
    },
    {
      "midi": 29,
      "hit": false,
      "t": 109252.60416666664,
      "d": 135.41666666667152,
      "v": 124
    },
    {
      "midi": 53,
      "hit": false,
      "t": 109372.39583333321,
      "d": 78.125,
      "v": 95
    },
    {
      "midi": 53,
      "hit": false,
      "t": 109497.39583333321,
      "d": 62.5,
      "v": 95
    },
    {
      "midi": 29,
      "hit": false,
      "t": 109502.60416666664,
      "d": 140.625,
      "v": 124
    },
    {
      "midi": 65,
      "hit": false,
      "t": 109502.6041666667,
      "d": 151.04166666667152,
      "v": 109
    },
    {
      "midi": 53,
      "hit": false,
      "t": 109627.60416666654,
      "d": 67.70833333332848,
      "v": 95
    },
    {
      "midi": 53,
      "hit": false,
      "t": 109747.3958333332,
      "d": 57.29166666667152,
      "v": 95
    },
    {
      "midi": 65,
      "hit": false,
      "t": 109750.00000000004,
      "d": 231.77083333332848,
      "v": 109
    },
    {
      "midi": 29,
      "hit": false,
      "t": 109752.60416666664,
      "d": 125,
      "v": 124
    },
    {
      "midi": 53,
      "hit": false,
      "t": 109872.3958333332,
      "d": 59.89583333332848,
      "v": 95
    },
    {
      "midi": 64,
      "hit": false,
      "t": 109994.79166666658,
      "d": 1846.3541666666715,
      "v": 93
    },
    {
      "midi": 67,
      "hit": false,
      "t": 109994.79166666658,
      "d": 1960.9375,
      "v": 93
    },
    {
      "midi": 48,
      "hit": false,
      "t": 109997.3958333332,
      "d": 49.47916666667152,
      "v": 95
    },
    {
      "midi": 36,
      "hit": false,
      "t": 110002.60416666664,
      "d": 299.4791666666715,
      "v": 124
    },
    {
      "midi": 64,
      "hit": false,
      "t": 110005.20833333337,
      "d": 416.66666666665697,
      "v": 109
    },
    {
      "midi": 48,
      "hit": false,
      "t": 110127.60416666654,
      "d": 62.5,
      "v": 95
    },
    {
      "midi": 48,
      "hit": false,
      "t": 110247.39583333321,
      "d": 49.47916666667152,
      "v": 95
    },
    {
      "midi": 48,
      "hit": false,
      "t": 110372.39583333321,
      "d": 59.89583333332848,
      "v": 95
    },
    {
      "midi": 67,
      "hit": false,
      "t": 110377.6041666667,
      "d": 382.81249999998545,
      "v": 109
    },
    {
      "midi": 48,
      "hit": false,
      "t": 110499.99999999987,
      "d": 52.08333333332848,
      "v": 95
    },
    {
      "midi": 36,
      "hit": false,
      "t": 110502.60416666664,
      "d": 213.54166666667152,
      "v": 124
    },
    {
      "midi": 48,
      "hit": false,
      "t": 110627.60416666653,
      "d": 65.10416666667152,
      "v": 95
    },
    {
      "midi": 48,
      "hit": false,
      "t": 110752.60416666653,
      "d": 52.08333333332848,
      "v": 95
    },
    {
      "midi": 72,
      "hit": false,
      "t": 110755.20833333336,
      "d": 848.9583333333285,
      "v": 109
    },
    {
      "midi": 36,
      "hit": false,
      "t": 110872.39583333331,
      "d": 57.29166666667152,
      "v": 124
    },
    {
      "midi": 48,
      "hit": false,
      "t": 110877.60416666653,
      "d": 62.5,
      "v": 95
    },
    {
      "midi": 36,
      "hit": false,
      "t": 110997.39583333331,
      "d": 138.02083333332848,
      "v": 124
    },
    {
      "midi": 48,
      "hit": false,
      "t": 111002.60416666653,
      "d": 54.6875,
      "v": 95
    },
    {
      "midi": 48,
      "hit": false,
      "t": 111127.60416666653,
      "d": 67.70833333332848,
      "v": 95
    },
    {
      "midi": 36,
      "hit": false,
      "t": 111249.99999999997,
      "d": 119.79166666667152,
      "v": 124
    },
    {
      "midi": 48,
      "hit": false,
      "t": 111252.60416666653,
      "d": 54.6875,
      "v": 95
    },
    {
      "midi": 48,
      "hit": false,
      "t": 111377.60416666653,
      "d": 78.125,
      "v": 95
    },
    {
      "midi": 48,
      "hit": false,
      "t": 111502.60416666653,
      "d": 54.6875,
      "v": 95
    },
    {
      "midi": 36,
      "hit": false,
      "t": 111502.60416666664,
      "d": 140.625,
      "v": 124
    },
    {
      "midi": 48,
      "hit": false,
      "t": 111627.60416666653,
      "d": 70.3125,
      "v": 95
    },
    {
      "midi": 36,
      "hit": false,
      "t": 111749.99999999997,
      "d": 135.41666666667152,
      "v": 124
    },
    {
      "midi": 48,
      "hit": false,
      "t": 111752.60416666653,
      "d": 54.6875,
      "v": 95
    },
    {
      "midi": 48,
      "hit": false,
      "t": 111877.60416666653,
      "d": 70.3125,
      "v": 95
    },
    {
      "midi": 59,
      "hit": false,
      "t": 111877.60416666669,
      "d": 101.5625,
      "v": 113
    },
    {
      "midi": 71,
      "hit": false,
      "t": 111877.60416666669,
      "d": 125,
      "v": 113
    },
    {
      "midi": 62,
      "hit": false,
      "t": 111994.79166666658,
      "d": 1890.625,
      "v": 72
    },
    {
      "midi": 65,
      "hit": false,
      "t": 111997.39583333326,
      "d": 1820.3125,
      "v": 97
    },
    {
      "midi": 50,
      "hit": false,
      "t": 111997.39583333326,
      "d": 2005.2083333333285,
      "v": 97
    },
    {
      "midi": 69,
      "hit": false,
      "t": 111997.39583333326,
      "d": 2018.229166666657,
      "v": 97
    },
    {
      "midi": 72,
      "hit": false,
      "t": 111997.39583333336,
      "d": 322.91666666665697,
      "v": 117
    },
    {
      "midi": 50,
      "hit": false,
      "t": 112002.60416666653,
      "d": 57.29166666667152,
      "v": 95
    },
    {
      "midi": 38,
      "hit": false,
      "t": 112002.60416666664,
      "d": 315.1041666666715,
      "v": 124
    },
    {
      "midi": 60,
      "hit": false,
      "t": 112002.60416666669,
      "d": 289.0625,
      "v": 113
    },
    {
      "midi": 50,
      "hit": false,
      "t": 112127.60416666653,
      "d": 59.89583333332848,
      "v": 95
    },
    {
      "midi": 50,
      "hit": false,
      "t": 112247.39583333318,
      "d": 46.875,
      "v": 95
    },
    {
      "midi": 57,
      "hit": false,
      "t": 112252.60416666669,
      "d": 343.74999999998545,
      "v": 117
    },
    {
      "midi": 69,
      "hit": false,
      "t": 112255.20833333336,
      "d": 328.12499999998545,
      "v": 113
    },
    {
      "midi": 50,
      "hit": false,
      "t": 112372.39583333318,
      "d": 65.10416666667152,
      "v": 95
    },
    {
      "midi": 50,
      "hit": false,
      "t": 112497.39583333318,
      "d": 52.08333333332848,
      "v": 95
    },
    {
      "midi": 38,
      "hit": false,
      "t": 112497.39583333331,
      "d": 239.58333333332848,
      "v": 124
    },
    {
      "midi": 50,
      "hit": false,
      "t": 112627.60416666651,
      "d": 62.5,
      "v": 95
    },
    {
      "midi": 50,
      "hit": false,
      "t": 112747.39583333318,
      "d": 52.08333333332848,
      "v": 93
    },
    {
      "midi": 50,
      "hit": false,
      "t": 112872.39583333318,
      "d": 70.3125,
      "v": 93
    },
    {
      "midi": 38,
      "hit": false,
      "t": 112872.39583333331,
      "d": 65.10416666667152,
      "v": 124
    },
    {
      "midi": 50,
      "hit": false,
      "t": 112997.39583333318,
      "d": 54.6875,
      "v": 93
    },
    {
      "midi": 38,
      "hit": false,
      "t": 112997.39583333331,
      "d": 138.02083333332848,
      "v": 124
    },
    {
      "midi": 50,
      "hit": false,
      "t": 113124.99999999985,
      "d": 57.29166666667152,
      "v": 93
    },
    {
      "midi": 38,
      "hit": false,
      "t": 113247.39583333331,
      "d": 125,
      "v": 124
    },
    {
      "midi": 50,
      "hit": false,
      "t": 113252.60416666653,
      "d": 54.6875,
      "v": 93
    },
    {
      "midi": 50,
      "hit": false,
      "t": 113372.3958333332,
      "d": 65.10416666667152,
      "v": 93
    },
    {
      "midi": 38,
      "hit": false,
      "t": 113497.39583333331,
      "d": 153.64583333332848,
      "v": 124
    },
    {
      "midi": 71,
      "hit": false,
      "t": 113497.39583333336,
      "d": 291.66666666665697,
      "v": 111
    },
    {
      "midi": 50,
      "hit": false,
      "t": 113502.60416666654,
      "d": 54.6875,
      "v": 93
    },
    {
      "midi": 50,
      "hit": false,
      "t": 113627.60416666654,
      "d": 31.25,
      "v": 93
    },
    {
      "midi": 38,
      "hit": false,
      "t": 113747.39583333331,
      "d": 125,
      "v": 124
    },
    {
      "midi": 50,
      "hit": false,
      "t": 113752.60416666654,
      "d": 46.875,
      "v": 93
    },
    {
      "midi": 72,
      "hit": false,
      "t": 113752.60416666669,
      "d": 263.0208333333285,
      "v": 111
    },
    {
      "midi": 50,
      "hit": false,
      "t": 113877.60416666654,
      "d": 70.3125,
      "v": 93
    },
    {
      "midi": 71,
      "hit": false,
      "t": 113994.79166666658,
      "d": 1846.354166666657,
      "v": 74
    },
    {
      "midi": 67,
      "hit": false,
      "t": 113994.79166666658,
      "d": 1848.9583333333285,
      "v": 92
    },
    {
      "midi": 62,
      "hit": false,
      "t": 113994.79166666658,
      "d": 1872.3958333333285,
      "v": 72
    },
    {
      "midi": 55,
      "hit": false,
      "t": 113997.39583333326,
      "d": 1830.729166666657,
      "v": 95
    },
    {
      "midi": 31,
      "hit": false,
      "t": 113999.99999999999,
      "d": 354.1666666666715,
      "v": 124
    },
    {
      "midi": 55,
      "hit": false,
      "t": 114002.60416666654,
      "d": 54.6875,
      "v": 93
    },
    {
      "midi": 76,
      "hit": false,
      "t": 114005.20833333334,
      "d": 398.4375,
      "v": 111
    },
    {
      "midi": 55,
      "hit": false,
      "t": 114127.60416666654,
      "d": 59.89583333332848,
      "v": 93
    },
    {
      "midi": 55,
      "hit": false,
      "t": 114252.60416666654,
      "d": 44.27083333332848,
      "v": 93
    },
    {
      "midi": 55,
      "hit": false,
      "t": 114377.60416666654,
      "d": 62.5,
      "v": 93
    },
    {
      "midi": 77,
      "hit": false,
      "t": 114380.20833333334,
      "d": 369.7916666666715,
      "v": 111
    },
    {
      "midi": 31,
      "hit": false,
      "t": 114499.99999999999,
      "d": 260.4166666666715,
      "v": 124
    },
    {
      "midi": 55,
      "hit": false,
      "t": 114502.60416666654,
      "d": 46.875,
      "v": 93
    },
    {
      "midi": 67,
      "hit": false,
      "t": 114539.0625,
      "d": 528.645833333343,
      "v": 98
    },
    {
      "midi": 55,
      "hit": false,
      "t": 114549.47916666667,
      "d": 541.6666666666715,
      "v": 98
    },
    {
      "midi": 55,
      "hit": false,
      "t": 114627.60416666654,
      "d": 54.6875,
      "v": 93
    },
    {
      "midi": 74,
      "hit": false,
      "t": 114750.00000000001,
      "d": 906.25,
      "v": 111
    },
    {
      "midi": 55,
      "hit": false,
      "t": 114752.60416666654,
      "d": 54.6875,
      "v": 93
    },
    {
      "midi": 31,
      "hit": false,
      "t": 114874.99999999999,
      "d": 70.3125,
      "v": 124
    },
    {
      "midi": 55,
      "hit": false,
      "t": 114877.60416666654,
      "d": 59.89583333332848,
      "v": 93
    },
    {
      "midi": 55,
      "hit": false,
      "t": 115002.60416666654,
      "d": 54.6875,
      "v": 93
    },
    {
      "midi": 31,
      "hit": false,
      "t": 115002.60416666666,
      "d": 231.77083333332848,
      "v": 124
    },
    {
      "midi": 57,
      "hit": false,
      "t": 115033.85416666667,
      "d": 518.2291666666715,
      "v": 115
    },
    {
      "midi": 69,
      "hit": false,
      "t": 115041.66666666667,
      "d": 513.020833333343,
      "v": 109
    },
    {
      "midi": 55,
      "hit": false,
      "t": 115127.60416666654,
      "d": 62.5,
      "v": 93
    },
    {
      "midi": 31,
      "hit": false,
      "t": 115249.99999999999,
      "d": 236.97916666667152,
      "v": 124
    },
    {
      "midi": 55,
      "hit": false,
      "t": 115252.60416666654,
      "d": 54.6875,
      "v": 93
    },
    {
      "midi": 55,
      "hit": false,
      "t": 115377.60416666654,
      "d": 52.08333333332848,
      "v": 93
    },
    {
      "midi": 31,
      "hit": false,
      "t": 115499.99999999999,
      "d": 250,
      "v": 124
    },
    {
      "midi": 55,
      "hit": false,
      "t": 115502.60416666654,
      "d": 52.08333333332848,
      "v": 93
    },
    {
      "midi": 71,
      "hit": false,
      "t": 115536.45833333334,
      "d": 403.64583333334303,
      "v": 86
    },
    {
      "midi": 59,
      "hit": false,
      "t": 115544.27083333334,
      "d": 403.64583333334303,
      "v": 98
    },
    {
      "midi": 55,
      "hit": false,
      "t": 115627.60416666654,
      "d": 62.5,
      "v": 93
    },
    {
      "midi": 33,
      "hit": false,
      "t": 115749.99999999999,
      "d": 122.39583333332848,
      "v": 124
    },
    {
      "midi": 55,
      "hit": false,
      "t": 115752.60416666654,
      "d": 46.875,
      "v": 93
    },
    {
      "midi": 55,
      "hit": false,
      "t": 115874.99999999987,
      "d": 46.875,
      "v": 93
    },
    {
      "midi": 35,
      "hit": false,
      "t": 115874.99999999999,
      "d": 122.39583333332848,
      "v": 124
    },
    {
      "midi": 55,
      "hit": false,
      "t": 115877.60416666669,
      "d": 148.4375,
      "v": 111
    },
    {
      "midi": 67,
      "hit": false,
      "t": 115877.60416666669,
      "d": 156.25,
      "v": 111
    },
    {
      "midi": 72,
      "hit": false,
      "t": 115999.99999999991,
      "d": 1945.3125,
      "v": 95
    },
    {
      "midi": 76,
      "hit": false,
      "t": 115999.99999999991,
      "d": 2013.0208333333285,
      "v": 95
    },
    {
      "midi": 67,
      "hit": false,
      "t": 115999.99999999991,
      "d": 3880.2083333333285,
      "v": 92
    },
    {
      "midi": 55,
      "hit": false,
      "t": 115999.99999999991,
      "d": 3999.9999999999854,
      "v": 95
    },
    {
      "midi": 76,
      "hit": false,
      "t": 115999.99999999999,
      "d": 2026.0416666666715,
      "v": 98
    },
    {
      "midi": 52,
      "hit": false,
      "t": 116000,
      "d": 2078.1250000000146,
      "v": 97
    },
    {
      "midi": 64,
      "hit": false,
      "t": 116000,
      "d": 2080.729166666686,
      "v": 97
    },
    {
      "midi": 76,
      "hit": false,
      "t": 116000.00000000001,
      "d": 273.4375,
      "v": 78
    },
    {
      "midi": 60,
      "hit": false,
      "t": 116002.60416666654,
      "d": 75.52083333332848,
      "v": 91
    },
    {
      "midi": 64,
      "hit": false,
      "t": 116002.60416666669,
      "d": 257.8125,
      "v": 111
    },
    {
      "midi": 36,
      "hit": false,
      "t": 116005.20833333331,
      "d": 315.1041666666715,
      "v": 126
    },
    {
      "midi": 60,
      "hit": false,
      "t": 116122.3958333332,
      "d": 70.3125,
      "v": 91
    },
    {
      "midi": 60,
      "hit": false,
      "t": 116252.60416666653,
      "d": 39.0625,
      "v": 91
    },
    {
      "midi": 67,
      "hit": false,
      "t": 116252.60416666669,
      "d": 294.2708333333285,
      "v": 111
    },
    {
      "midi": 55,
      "hit": false,
      "t": 116252.60416666669,
      "d": 299.47916666665697,
      "v": 111
    },
    {
      "midi": 60,
      "hit": false,
      "t": 116372.3958333332,
      "d": 72.91666666667152,
      "v": 91
    },
    {
      "midi": 60,
      "hit": false,
      "t": 116497.3958333332,
      "d": 70.3125,
      "v": 91
    },
    {
      "midi": 36,
      "hit": false,
      "t": 116497.39583333331,
      "d": 247.39583333332848,
      "v": 126
    },
    {
      "midi": 60,
      "hit": false,
      "t": 116622.3958333332,
      "d": 65.10416666667152,
      "v": 91
    },
    {
      "midi": 60,
      "hit": false,
      "t": 116747.3958333332,
      "d": 57.29166666667152,
      "v": 91
    },
    {
      "midi": 60,
      "hit": false,
      "t": 116872.3958333332,
      "d": 67.70833333332848,
      "v": 91
    },
    {
      "midi": 36,
      "hit": false,
      "t": 116872.39583333331,
      "d": 57.29166666667152,
      "v": 126
    },
    {
      "midi": 60,
      "hit": false,
      "t": 116999.99999999985,
      "d": 57.29166666667152,
      "v": 91
    },
    {
      "midi": 36,
      "hit": false,
      "t": 117002.60416666666,
      "d": 138.02083333332848,
      "v": 126
    },
    {
      "midi": 60,
      "hit": false,
      "t": 117124.99999999985,
      "d": 54.6875,
      "v": 91
    },
    {
      "midi": 36,
      "hit": false,
      "t": 117249.99999999999,
      "d": 127.60416666667152,
      "v": 124
    },
    {
      "midi": 60,
      "hit": false,
      "t": 117252.60416666653,
      "d": 54.6875,
      "v": 91
    },
    {
      "midi": 60,
      "hit": false,
      "t": 117374.99999999985,
      "d": 62.5,
      "v": 91
    },
    {
      "midi": 36,
      "hit": false,
      "t": 117499.99999999999,
      "d": 148.4375,
      "v": 124
    },
    {
      "midi": 76,
      "hit": false,
      "t": 117500.00000000001,
      "d": 250,
      "v": 113
    },
    {
      "midi": 60,
      "hit": false,
      "t": 117502.60416666653,
      "d": 59.89583333332848,
      "v": 91
    },
    {
      "midi": 60,
      "hit": false,
      "t": 117627.60416666653,
      "d": 57.29166666667152,
      "v": 91
    },
    {
      "midi": 60,
      "hit": false,
      "t": 117747.3958333332,
      "d": 59.89583333332848,
      "v": 91
    },
    {
      "midi": 36,
      "hit": false,
      "t": 117747.39583333331,
      "d": 122.39583333332848,
      "v": 122
    },
    {
      "midi": 72,
      "hit": false,
      "t": 117747.39583333334,
      "d": 333.3333333333285,
      "v": 113
    },
    {
      "midi": 60,
      "hit": false,
      "t": 117874.99999999985,
      "d": 54.6875,
      "v": 91
    },
    {
      "midi": 74,
      "hit": false,
      "t": 117997.39583333324,
      "d": 1911.4583333333285,
      "v": 95
    },
    {
      "midi": 31,
      "hit": false,
      "t": 117997.39583333331,
      "d": 330.7291666666715,
      "v": 122
    },
    {
      "midi": 71,
      "hit": false,
      "t": 117999.99999999991,
      "d": 1979.166666666657,
      "v": 95
    },
    {
      "midi": 55,
      "hit": false,
      "t": 118002.60416666653,
      "d": 52.08333333332848,
      "v": 91
    },
    {
      "midi": 74,
      "hit": false,
      "t": 118002.60416666666,
      "d": 2026.0416666666715,
      "v": 98
    },
    {
      "midi": 62,
      "hit": false,
      "t": 118002.60416666667,
      "d": 2049.479166666686,
      "v": 74
    },
    {
      "midi": 74,
      "hit": false,
      "t": 118005.20833333334,
      "d": 395.8333333333285,
      "v": 113
    },
    {
      "midi": 50,
      "hit": false,
      "t": 118005.20833333334,
      "d": 2026.041666666686,
      "v": 95
    },
    {
      "midi": 55,
      "hit": false,
      "t": 118122.39583333318,
      "d": 78.125,
      "v": 91
    },
    {
      "midi": 55,
      "hit": false,
      "t": 118247.39583333318,
      "d": 52.08333333332848,
      "v": 91
    },
    {
      "midi": 55,
      "hit": false,
      "t": 118372.39583333318,
      "d": 70.3125,
      "v": 91
    },
    {
      "midi": 71,
      "hit": false,
      "t": 118380.20833333334,
      "d": 375,
      "v": 113
    },
    {
      "midi": 31,
      "hit": false,
      "t": 118497.39583333331,
      "d": 276.0416666666715,
      "v": 122
    },
    {
      "midi": 55,
      "hit": false,
      "t": 118502.60416666651,
      "d": 57.29166666667152,
      "v": 91
    },
    {
      "midi": 55,
      "hit": false,
      "t": 118627.60416666651,
      "d": 62.5,
      "v": 91
    },
    {
      "midi": 55,
      "hit": false,
      "t": 118752.60416666651,
      "d": 52.08333333332848,
      "v": 91
    },
    {
      "midi": 67,
      "hit": false,
      "t": 118755.20833333334,
      "d": 783.8541666666715,
      "v": 113
    },
    {
      "midi": 55,
      "hit": false,
      "t": 118877.60416666651,
      "d": 62.5,
      "v": 91
    },
    {
      "midi": 31,
      "hit": false,
      "t": 118877.60416666666,
      "d": 78.125,
      "v": 122
    },
    {
      "midi": 55,
      "hit": false,
      "t": 119002.60416666651,
      "d": 59.89583333332848,
      "v": 91
    },
    {
      "midi": 31,
      "hit": false,
      "t": 119005.20833333333,
      "d": 161.45833333332848,
      "v": 122
    },
    {
      "midi": 55,
      "hit": false,
      "t": 119127.60416666651,
      "d": 57.29166666667152,
      "v": 91
    },
    {
      "midi": 55,
      "hit": false,
      "t": 119252.60416666651,
      "d": 54.6875,
      "v": 91
    },
    {
      "midi": 31,
      "hit": false,
      "t": 119255.20833333333,
      "d": 138.02083333332848,
      "v": 122
    },
    {
      "midi": 55,
      "hit": false,
      "t": 119377.60416666651,
      "d": 70.3125,
      "v": 91
    },
    {
      "midi": 31,
      "hit": false,
      "t": 119502.60416666666,
      "d": 145.83333333332848,
      "v": 122
    },
    {
      "midi": 55,
      "hit": false,
      "t": 119505.20833333318,
      "d": 52.08333333332848,
      "v": 91
    },
    {
      "midi": 55,
      "hit": false,
      "t": 119627.60416666651,
      "d": 39.0625,
      "v": 91
    },
    {
      "midi": 55,
      "hit": false,
      "t": 119752.60416666651,
      "d": 49.47916666667152,
      "v": 91
    },
    {
      "midi": 31,
      "hit": false,
      "t": 119752.60416666666,
      "d": 111.97916666667152,
      "v": 122
    },
    {
      "midi": 55,
      "hit": false,
      "t": 119877.60416666651,
      "d": 75.52083333332848,
      "v": 91
    },
    {
      "midi": 59,
      "hit": false,
      "t": 119880.20833333334,
      "d": 119.79166666667152,
      "v": 111
    },
    {
      "midi": 71,
      "hit": false,
      "t": 119880.20833333334,
      "d": 127.60416666668607,
      "v": 111
    },
    {
      "midi": 72,
      "hit": false,
      "t": 119997.39583333333,
      "d": 2072.916666666657,
      "v": 100
    },
    {
      "midi": 69,
      "hit": false,
      "t": 119999.9999999999,
      "d": 1953.125,
      "v": 97
    },
    {
      "midi": 57,
      "hit": false,
      "t": 120002.60416666651,
      "d": 59.89583333332848,
      "v": 91
    },
    {
      "midi": 72,
      "hit": false,
      "t": 120002.60416666657,
      "d": 1986.979166666657,
      "v": 97
    },
    {
      "midi": 64,
      "hit": false,
      "t": 120002.60416666657,
      "d": 3807.2916666666424,
      "v": 97
    },
    {
      "midi": 52,
      "hit": false,
      "t": 120002.60416666657,
      "d": 3999.9999999999563,
      "v": 97
    },
    {
      "midi": 33,
      "hit": false,
      "t": 120002.60416666666,
      "d": 328.125,
      "v": 122
    },
    {
      "midi": 72,
      "hit": false,
      "t": 120002.60416666669,
      "d": 296.87500000001455,
      "v": 76
    },
    {
      "midi": 60,
      "hit": false,
      "t": 120005.20833333336,
      "d": 252.60416666667152,
      "v": 111
    },
    {
      "midi": 60,
      "hit": false,
      "t": 120005.20833333336,
      "d": 2015.625,
      "v": 94
    },
    {
      "midi": 48,
      "hit": false,
      "t": 120005.20833333336,
      "d": 2033.8541666666715,
      "v": 94
    },
    {
      "midi": 57,
      "hit": false,
      "t": 120127.60416666651,
      "d": 62.5,
      "v": 91
    },
    {
      "midi": 57,
      "hit": false,
      "t": 120252.60416666651,
      "d": 52.08333333332848,
      "v": 91
    },
    {
      "midi": 69,
      "hit": false,
      "t": 120252.6041666667,
      "d": 330.7291666666715,
      "v": 111
    },
    {
      "midi": 57,
      "hit": false,
      "t": 120252.6041666667,
      "d": 338.5416666666715,
      "v": 111
    },
    {
      "midi": 57,
      "hit": false,
      "t": 120377.60416666651,
      "d": 62.5,
      "v": 91
    },
    {
      "midi": 57,
      "hit": false,
      "t": 120502.60416666651,
      "d": 49.47916666667152,
      "v": 91
    },
    {
      "midi": 33,
      "hit": false,
      "t": 120502.60416666666,
      "d": 260.4166666666715,
      "v": 124
    },
    {
      "midi": 57,
      "hit": false,
      "t": 120627.60416666651,
      "d": 75.52083333332848,
      "v": 91
    },
    {
      "midi": 57,
      "hit": false,
      "t": 120752.60416666651,
      "d": 46.875,
      "v": 95
    },
    {
      "midi": 57,
      "hit": false,
      "t": 120877.60416666651,
      "d": 62.5,
      "v": 95
    },
    {
      "midi": 33,
      "hit": false,
      "t": 120877.60416666666,
      "d": 65.10416666667152,
      "v": 124
    },
    {
      "midi": 57,
      "hit": false,
      "t": 121002.60416666651,
      "d": 54.6875,
      "v": 95
    },
    {
      "midi": 33,
      "hit": false,
      "t": 121005.20833333333,
      "d": 145.83333333332848,
      "v": 124
    },
    {
      "midi": 57,
      "hit": false,
      "t": 121127.60416666651,
      "d": 67.70833333332848,
      "v": 95
    },
    {
      "midi": 57,
      "hit": false,
      "t": 121247.39583333317,
      "d": 59.89583333332848,
      "v": 95
    },
    {
      "midi": 33,
      "hit": false,
      "t": 121255.20833333333,
      "d": 132.8125,
      "v": 124
    },
    {
      "midi": 57,
      "hit": false,
      "t": 121372.39583333317,
      "d": 62.5,
      "v": 95
    },
    {
      "midi": 57,
      "hit": false,
      "t": 121497.39583333317,
      "d": 59.89583333332848,
      "v": 95
    },
    {
      "midi": 33,
      "hit": false,
      "t": 121502.60416666666,
      "d": 122.39583333332848,
      "v": 124
    },
    {
      "midi": 72,
      "hit": false,
      "t": 121502.60416666669,
      "d": 244.79166666667152,
      "v": 113
    },
    {
      "midi": 57,
      "hit": false,
      "t": 121622.39583333317,
      "d": 59.89583333332848,
      "v": 95
    },
    {
      "midi": 57,
      "hit": false,
      "t": 121744.7916666665,
      "d": 65.10416666667152,
      "v": 95
    },
    {
      "midi": 33,
      "hit": false,
      "t": 121747.39583333331,
      "d": 114.58333333332848,
      "v": 124
    },
    {
      "midi": 69,
      "hit": false,
      "t": 121752.60416666669,
      "d": 294.2708333333285,
      "v": 113
    },
    {
      "midi": 57,
      "hit": false,
      "t": 121872.39583333317,
      "d": 57.29166666667152,
      "v": 95
    },
    {
      "midi": 71,
      "hit": false,
      "t": 121994.79166666656,
      "d": 1929.6874999999854,
      "v": 95
    },
    {
      "midi": 52,
      "hit": false,
      "t": 121997.39583333317,
      "d": 52.08333333332848,
      "v": 95
    },
    {
      "midi": 28,
      "hit": false,
      "t": 121997.39583333331,
      "d": 276.0416666666715,
      "v": 124
    },
    {
      "midi": 67,
      "hit": false,
      "t": 121999.99999999988,
      "d": 1953.1249999999854,
      "v": 95
    },
    {
      "midi": 71,
      "hit": false,
      "t": 122002.60416666666,
      "d": 2015.625,
      "v": 98
    },
    {
      "midi": 71,
      "hit": false,
      "t": 122002.60416666669,
      "d": 544.2708333333285,
      "v": 113
    },
    {
      "midi": 47,
      "hit": false,
      "t": 122005.20833333336,
      "d": 1471.3541666666715,
      "v": 95
    },
    {
      "midi": 59,
      "hit": false,
      "t": 122005.20833333336,
      "d": 1505.2083333333285,
      "v": 95
    },
    {
      "midi": 52,
      "hit": false,
      "t": 122122.39583333317,
      "d": 65.10416666667152,
      "v": 95
    },
    {
      "midi": 52,
      "hit": false,
      "t": 122247.39583333317,
      "d": 52.08333333332848,
      "v": 95
    },
    {
      "midi": 52,
      "hit": false,
      "t": 122374.99999999983,
      "d": 62.5,
      "v": 95
    },
    {
      "midi": 52,
      "hit": false,
      "t": 122497.39583333315,
      "d": 54.6875,
      "v": 95
    },
    {
      "midi": 28,
      "hit": false,
      "t": 122497.39583333331,
      "d": 247.39583333332848,
      "v": 124
    },
    {
      "midi": 67,
      "hit": false,
      "t": 122505.20833333334,
      "d": 242.1875,
      "v": 113
    },
    {
      "midi": 52,
      "hit": false,
      "t": 122622.39583333315,
      "d": 70.3125,
      "v": 95
    },
    {
      "midi": 52,
      "hit": false,
      "t": 122747.39583333315,
      "d": 49.47916666667152,
      "v": 95
    },
    {
      "midi": 64,
      "hit": false,
      "t": 122752.60416666667,
      "d": 611.9791666666715,
      "v": 111
    },
    {
      "midi": 52,
      "hit": false,
      "t": 122869.7916666665,
      "d": 70.3125,
      "v": 95
    },
    {
      "midi": 28,
      "hit": false,
      "t": 122872.39583333331,
      "d": 59.89583333332848,
      "v": 124
    },
    {
      "midi": 52,
      "hit": false,
      "t": 122997.39583333317,
      "d": 49.47916666667152,
      "v": 95
    },
    {
      "midi": 28,
      "hit": false,
      "t": 122997.39583333331,
      "d": 130.20833333332848,
      "v": 124
    },
    {
      "midi": 52,
      "hit": false,
      "t": 123122.39583333317,
      "d": 62.5,
      "v": 95
    },
    {
      "midi": 52,
      "hit": false,
      "t": 123247.39583333317,
      "d": 54.6875,
      "v": 95
    },
    {
      "midi": 28,
      "hit": false,
      "t": 123247.39583333331,
      "d": 122.39583333332848,
      "v": 124
    },
    {
      "midi": 52,
      "hit": false,
      "t": 123369.7916666665,
      "d": 70.3125,
      "v": 95
    },
    {
      "midi": 52,
      "hit": false,
      "t": 123497.39583333317,
      "d": 57.29166666667152,
      "v": 95
    },
    {
      "midi": 28,
      "hit": false,
      "t": 123497.39583333331,
      "d": 130.20833333332848,
      "v": 124
    },
    {
      "midi": 67,
      "hit": false,
      "t": 123497.39583333336,
      "d": 531.25,
      "v": 94
    },
    {
      "midi": 55,
      "hit": false,
      "t": 123502.60416666669,
      "d": 546.875,
      "v": 95
    },
    {
      "midi": 52,
      "hit": false,
      "t": 123624.99999999984,
      "d": 44.27083333332848,
      "v": 95
    },
    {
      "midi": 52,
      "hit": false,
      "t": 123747.39583333317,
      "d": 52.08333333332848,
      "v": 95
    },
    {
      "midi": 28,
      "hit": false,
      "t": 123747.39583333331,
      "d": 125,
      "v": 124
    },
    {
      "midi": 52,
      "hit": false,
      "t": 123872.39583333317,
      "d": 67.70833333332848,
      "v": 95
    },
    {
      "midi": 67,
      "hit": false,
      "t": 123880.20833333337,
      "d": 122.39583333332848,
      "v": 113
    },
    {
      "midi": 55,
      "hit": false,
      "t": 123880.20833333337,
      "d": 125,
      "v": 113
    },
    {
      "midi": 53,
      "hit": false,
      "t": 123997.39583333317,
      "d": 57.29166666667152,
      "v": 95
    },
    {
      "midi": 65,
      "hit": false,
      "t": 123997.3958333332,
      "d": 1867.1875,
      "v": 80
    },
    {
      "midi": 69,
      "hit": false,
      "t": 123997.3958333332,
      "d": 2000,
      "v": 86
    },
    {
      "midi": 48,
      "hit": false,
      "t": 123997.3958333332,
      "d": 4023.4375,
      "v": 74
    },
    {
      "midi": 65,
      "hit": false,
      "t": 123997.39583333336,
      "d": 1742.1875,
      "v": 92
    },
    {
      "midi": 60,
      "hit": false,
      "t": 124002.60416666653,
      "d": 3809.895833333343,
      "v": 97
    },
    {
      "midi": 29,
      "hit": false,
      "t": 124002.60416666664,
      "d": 325.5208333333285,
      "v": 124
    },
    {
      "midi": 69,
      "hit": false,
      "t": 124002.60416666666,
      "d": 2052.083333333343,
      "v": 100
    },
    {
      "midi": 57,
      "hit": false,
      "t": 124002.60416666666,
      "d": 2067.708333333343,
      "v": 100
    },
    {
      "midi": 53,
      "hit": false,
      "t": 124002.60416666669,
      "d": 1739.583333333343,
      "v": 95
    },
    {
      "midi": 57,
      "hit": false,
      "t": 124002.6041666667,
      "d": 242.1875,
      "v": 113
    },
    {
      "midi": 69,
      "hit": false,
      "t": 124002.6041666667,
      "d": 247.39583333332848,
      "v": 113
    },
    {
      "midi": 53,
      "hit": false,
      "t": 124122.39583333317,
      "d": 59.89583333332848,
      "v": 95
    },
    {
      "midi": 53,
      "hit": false,
      "t": 124247.39583333317,
      "d": 54.6875,
      "v": 95
    },
    {
      "midi": 60,
      "hit": false,
      "t": 124255.20833333336,
      "d": 307.2916666666715,
      "v": 117
    },
    {
      "midi": 48,
      "hit": false,
      "t": 124255.20833333336,
      "d": 328.125,
      "v": 117
    },
    {
      "midi": 53,
      "hit": false,
      "t": 124372.39583333317,
      "d": 59.89583333332848,
      "v": 95
    },
    {
      "midi": 53,
      "hit": false,
      "t": 124497.39583333317,
      "d": 52.08333333332848,
      "v": 95
    },
    {
      "midi": 29,
      "hit": false,
      "t": 124502.60416666664,
      "d": 236.97916666667152,
      "v": 124
    },
    {
      "midi": 53,
      "hit": false,
      "t": 124627.6041666665,
      "d": 59.89583333332848,
      "v": 95
    },
    {
      "midi": 53,
      "hit": false,
      "t": 124747.39583333315,
      "d": 54.6875,
      "v": 95
    },
    {
      "midi": 29,
      "hit": false,
      "t": 124872.39583333331,
      "d": 65.10416666667152,
      "v": 124
    },
    {
      "midi": 53,
      "hit": false,
      "t": 124874.99999999983,
      "d": 59.89583333332848,
      "v": 95
    },
    {
      "midi": 29,
      "hit": false,
      "t": 124997.39583333331,
      "d": 145.83333333332848,
      "v": 124
    },
    {
      "midi": 53,
      "hit": false,
      "t": 124999.99999999983,
      "d": 59.89583333332848,
      "v": 95
    },
    {
      "midi": 53,
      "hit": false,
      "t": 125127.60416666648,
      "d": 67.70833333332848,
      "v": 95
    },
    {
      "midi": 53,
      "hit": false,
      "t": 125252.60416666648,
      "d": 57.29166666667152,
      "v": 95
    },
    {
      "midi": 29,
      "hit": false,
      "t": 125252.60416666664,
      "d": 135.41666666667152,
      "v": 124
    },
    {
      "midi": 53,
      "hit": false,
      "t": 125372.39583333315,
      "d": 78.125,
      "v": 95
    },
    {
      "midi": 53,
      "hit": false,
      "t": 125497.39583333315,
      "d": 62.5,
      "v": 95
    },
    {
      "midi": 29,
      "hit": false,
      "t": 125502.60416666664,
      "d": 140.625,
      "v": 124
    },
    {
      "midi": 65,
      "hit": false,
      "t": 125502.60416666667,
      "d": 151.04166666667152,
      "v": 109
    },
    {
      "midi": 53,
      "hit": false,
      "t": 125627.60416666648,
      "d": 67.70833333332848,
      "v": 95
    },
    {
      "midi": 50,
      "hit": false,
      "t": 125744.7916666667,
      "d": 338.54166666665697,
      "v": 80
    },
    {
      "midi": 53,
      "hit": false,
      "t": 125747.39583333314,
      "d": 57.29166666667152,
      "v": 95
    },
    {
      "midi": 62,
      "hit": false,
      "t": 125747.39583333337,
      "d": 330.72916666665697,
      "v": 97
    },
    {
      "midi": 65,
      "hit": false,
      "t": 125750.00000000001,
      "d": 231.77083333332848,
      "v": 109
    },
    {
      "midi": 29,
      "hit": false,
      "t": 125752.60416666664,
      "d": 125,
      "v": 124
    },
    {
      "midi": 53,
      "hit": false,
      "t": 125872.39583333314,
      "d": 59.89583333332848,
      "v": 95
    },
    {
      "midi": 64,
      "hit": false,
      "t": 125994.79166666653,
      "d": 1846.3541666666715,
      "v": 93
    },
    {
      "midi": 67,
      "hit": false,
      "t": 125994.79166666653,
      "d": 1960.9375,
      "v": 93
    },
    {
      "midi": 48,
      "hit": false,
      "t": 125997.39583333314,
      "d": 49.47916666667152,
      "v": 95
    },
    {
      "midi": 36,
      "hit": false,
      "t": 126002.60416666664,
      "d": 299.4791666666715,
      "v": 124
    },
    {
      "midi": 52,
      "hit": false,
      "t": 126002.6041666667,
      "d": 901.041666666657,
      "v": 97
    },
    {
      "midi": 64,
      "hit": false,
      "t": 126002.6041666667,
      "d": 908.854166666657,
      "v": 97
    },
    {
      "midi": 55,
      "hit": false,
      "t": 126005.20833333333,
      "d": 2023.4375000000146,
      "v": 100
    },
    {
      "midi": 67,
      "hit": false,
      "t": 126005.20833333333,
      "d": 2023.4375000000146,
      "v": 100
    },
    {
      "midi": 64,
      "hit": false,
      "t": 126005.20833333334,
      "d": 416.66666666665697,
      "v": 109
    },
    {
      "midi": 48,
      "hit": false,
      "t": 126127.60416666648,
      "d": 62.5,
      "v": 95
    },
    {
      "midi": 48,
      "hit": false,
      "t": 126247.39583333315,
      "d": 49.47916666667152,
      "v": 95
    },
    {
      "midi": 48,
      "hit": false,
      "t": 126372.39583333315,
      "d": 59.89583333332848,
      "v": 95
    },
    {
      "midi": 67,
      "hit": false,
      "t": 126377.60416666667,
      "d": 382.81249999998545,
      "v": 109
    },
    {
      "midi": 48,
      "hit": false,
      "t": 126499.99999999981,
      "d": 52.08333333332848,
      "v": 95
    },
    {
      "midi": 36,
      "hit": false,
      "t": 126502.60416666664,
      "d": 213.54166666667152,
      "v": 124
    },
    {
      "midi": 48,
      "hit": false,
      "t": 126627.60416666647,
      "d": 65.10416666667152,
      "v": 95
    },
    {
      "midi": 48,
      "hit": false,
      "t": 126752.60416666647,
      "d": 52.08333333332848,
      "v": 95
    },
    {
      "midi": 72,
      "hit": false,
      "t": 126755.20833333333,
      "d": 848.9583333333285,
      "v": 109
    },
    {
      "midi": 36,
      "hit": false,
      "t": 126872.39583333331,
      "d": 57.29166666667152,
      "v": 124
    },
    {
      "midi": 48,
      "hit": false,
      "t": 126877.60416666647,
      "d": 62.5,
      "v": 95
    },
    {
      "midi": 62,
      "hit": false,
      "t": 126877.60416666669,
      "d": 190.10416666667152,
      "v": 97
    },
    {
      "midi": 50,
      "hit": false,
      "t": 126877.60416666669,
      "d": 192.70833333334303,
      "v": 97
    },
    {
      "midi": 36,
      "hit": false,
      "t": 126997.39583333331,
      "d": 138.02083333332848,
      "v": 124
    },
    {
      "midi": 48,
      "hit": false,
      "t": 127002.60416666647,
      "d": 54.6875,
      "v": 95
    },
    {
      "midi": 60,
      "hit": false,
      "t": 127005.20833333336,
      "d": 817.708333333343,
      "v": 97
    },
    {
      "midi": 48,
      "hit": false,
      "t": 127005.20833333336,
      "d": 820.3125000000146,
      "v": 97
    },
    {
      "midi": 48,
      "hit": false,
      "t": 127127.60416666647,
      "d": 67.70833333332848,
      "v": 95
    },
    {
      "midi": 36,
      "hit": false,
      "t": 127249.99999999997,
      "d": 119.79166666667152,
      "v": 124
    },
    {
      "midi": 48,
      "hit": false,
      "t": 127252.60416666647,
      "d": 54.6875,
      "v": 95
    },
    {
      "midi": 48,
      "hit": false,
      "t": 127377.60416666647,
      "d": 78.125,
      "v": 95
    },
    {
      "midi": 48,
      "hit": false,
      "t": 127502.60416666647,
      "d": 54.6875,
      "v": 95
    },
    {
      "midi": 36,
      "hit": false,
      "t": 127502.60416666664,
      "d": 140.625,
      "v": 124
    },
    {
      "midi": 48,
      "hit": false,
      "t": 127627.60416666647,
      "d": 70.3125,
      "v": 95
    },
    {
      "midi": 36,
      "hit": false,
      "t": 127749.99999999997,
      "d": 135.41666666667152,
      "v": 124
    },
    {
      "midi": 48,
      "hit": false,
      "t": 127752.60416666647,
      "d": 54.6875,
      "v": 95
    },
    {
      "midi": 47,
      "hit": false,
      "t": 127872.39583333337,
      "d": 161.45833333332848,
      "v": 97
    },
    {
      "midi": 59,
      "hit": false,
      "t": 127872.39583333337,
      "d": 171.875,
      "v": 97
    },
    {
      "midi": 48,
      "hit": false,
      "t": 127877.60416666647,
      "d": 70.3125,
      "v": 95
    },
    {
      "midi": 59,
      "hit": false,
      "t": 127877.60416666669,
      "d": 101.5625,
      "v": 113
    },
    {
      "midi": 71,
      "hit": false,
      "t": 127877.60416666669,
      "d": 125,
      "v": 113
    },
    {
      "midi": 62,
      "hit": false,
      "t": 127994.79166666653,
      "d": 1890.625,
      "v": 72
    },
    {
      "midi": 65,
      "hit": false,
      "t": 127997.3958333332,
      "d": 1820.3125,
      "v": 97
    },
    {
      "midi": 50,
      "hit": false,
      "t": 127997.3958333332,
      "d": 2005.2083333333285,
      "v": 97
    },
    {
      "midi": 69,
      "hit": false,
      "t": 127997.3958333332,
      "d": 2018.229166666657,
      "v": 97
    },
    {
      "midi": 72,
      "hit": false,
      "t": 127997.39583333336,
      "d": 322.91666666665697,
      "v": 117
    },
    {
      "midi": 57,
      "hit": false,
      "t": 128000,
      "d": 2049.4791666666715,
      "v": 92
    },
    {
      "midi": 50,
      "hit": false,
      "t": 128002.60416666647,
      "d": 57.29166666667152,
      "v": 95
    },
    {
      "midi": 38,
      "hit": false,
      "t": 128002.60416666664,
      "d": 315.1041666666715,
      "v": 124
    },
    {
      "midi": 69,
      "hit": false,
      "t": 128002.60416666667,
      "d": 2065.1041666666715,
      "v": 98
    },
    {
      "midi": 60,
      "hit": false,
      "t": 128002.60416666669,
      "d": 289.0625,
      "v": 113
    },
    {
      "midi": 45,
      "hit": false,
      "t": 128002.6041666667,
      "d": 2031.25,
      "v": 97
    },
    {
      "midi": 57,
      "hit": false,
      "t": 128002.6041666667,
      "d": 2059.8958333333285,
      "v": 97
    },
    {
      "midi": 50,
      "hit": false,
      "t": 128127.60416666647,
      "d": 59.89583333332848,
      "v": 95
    },
    {
      "midi": 50,
      "hit": false,
      "t": 128247.39583333312,
      "d": 46.875,
      "v": 95
    },
    {
      "midi": 57,
      "hit": false,
      "t": 128252.60416666669,
      "d": 343.74999999998545,
      "v": 117
    },
    {
      "midi": 69,
      "hit": false,
      "t": 128255.20833333336,
      "d": 328.12499999998545,
      "v": 113
    },
    {
      "midi": 50,
      "hit": false,
      "t": 128372.39583333312,
      "d": 65.10416666667152,
      "v": 95
    },
    {
      "midi": 50,
      "hit": false,
      "t": 128497.39583333312,
      "d": 52.08333333332848,
      "v": 95
    },
    {
      "midi": 38,
      "hit": false,
      "t": 128497.39583333331,
      "d": 239.58333333332848,
      "v": 124
    },
    {
      "midi": 50,
      "hit": false,
      "t": 128627.60416666645,
      "d": 62.5,
      "v": 95
    },
    {
      "midi": 50,
      "hit": false,
      "t": 128747.39583333312,
      "d": 52.08333333332848,
      "v": 93
    },
    {
      "midi": 50,
      "hit": false,
      "t": 128872.39583333312,
      "d": 70.3125,
      "v": 93
    },
    {
      "midi": 38,
      "hit": false,
      "t": 128872.39583333331,
      "d": 65.10416666667152,
      "v": 124
    },
    {
      "midi": 50,
      "hit": false,
      "t": 128997.39583333312,
      "d": 54.6875,
      "v": 93
    },
    {
      "midi": 38,
      "hit": false,
      "t": 128997.39583333331,
      "d": 138.02083333332848,
      "v": 124
    },
    {
      "midi": 50,
      "hit": false,
      "t": 129124.9999999998,
      "d": 57.29166666667152,
      "v": 93
    },
    {
      "midi": 38,
      "hit": false,
      "t": 129247.39583333331,
      "d": 125,
      "v": 124
    },
    {
      "midi": 50,
      "hit": false,
      "t": 129252.60416666647,
      "d": 54.6875,
      "v": 93
    },
    {
      "midi": 50,
      "hit": false,
      "t": 129372.39583333314,
      "d": 65.10416666667152,
      "v": 93
    },
    {
      "midi": 38,
      "hit": false,
      "t": 129497.39583333331,
      "d": 153.64583333332848,
      "v": 124
    },
    {
      "midi": 71,
      "hit": false,
      "t": 129497.39583333333,
      "d": 291.66666666665697,
      "v": 111
    },
    {
      "midi": 50,
      "hit": false,
      "t": 129502.60416666648,
      "d": 54.6875,
      "v": 93
    },
    {
      "midi": 50,
      "hit": false,
      "t": 129627.60416666648,
      "d": 31.25,
      "v": 93
    },
    {
      "midi": 38,
      "hit": false,
      "t": 129747.39583333331,
      "d": 125,
      "v": 124
    },
    {
      "midi": 50,
      "hit": false,
      "t": 129752.60416666648,
      "d": 46.875,
      "v": 93
    },
    {
      "midi": 72,
      "hit": false,
      "t": 129752.60416666666,
      "d": 263.0208333333285,
      "v": 111
    },
    {
      "midi": 50,
      "hit": false,
      "t": 129877.60416666648,
      "d": 70.3125,
      "v": 93
    },
    {
      "midi": 71,
      "hit": false,
      "t": 129994.79166666653,
      "d": 1846.3541666666715,
      "v": 74
    },
    {
      "midi": 67,
      "hit": false,
      "t": 129994.79166666653,
      "d": 1848.9583333333285,
      "v": 92
    },
    {
      "midi": 62,
      "hit": false,
      "t": 129994.79166666653,
      "d": 1872.3958333333285,
      "v": 72
    },
    {
      "midi": 55,
      "hit": false,
      "t": 129997.3958333332,
      "d": 1830.729166666657,
      "v": 95
    },
    {
      "midi": 31,
      "hit": false,
      "t": 129999.99999999999,
      "d": 354.1666666666715,
      "v": 124
    },
    {
      "midi": 55,
      "hit": false,
      "t": 130002.60416666648,
      "d": 54.6875,
      "v": 93
    },
    {
      "midi": 64,
      "hit": false,
      "t": 130002.60416666667,
      "d": 429.6875,
      "v": 97
    },
    {
      "midi": 76,
      "hit": false,
      "t": 130002.60416666667,
      "d": 445.3125,
      "v": 97
    },
    {
      "midi": 43,
      "hit": false,
      "t": 130002.6041666667,
      "d": 1971.3541666666715,
      "v": 97
    },
    {
      "midi": 55,
      "hit": false,
      "t": 130002.6041666667,
      "d": 1973.9583333333285,
      "v": 97
    },
    {
      "midi": 76,
      "hit": false,
      "t": 130005.20833333331,
      "d": 398.4375,
      "v": 111
    },
    {
      "midi": 55,
      "hit": false,
      "t": 130127.60416666648,
      "d": 59.89583333332848,
      "v": 93
    },
    {
      "midi": 55,
      "hit": false,
      "t": 130252.60416666648,
      "d": 44.27083333332848,
      "v": 93
    },
    {
      "midi": 55,
      "hit": false,
      "t": 130377.60416666648,
      "d": 62.5,
      "v": 93
    },
    {
      "midi": 77,
      "hit": false,
      "t": 130380.20833333331,
      "d": 369.7916666666715,
      "v": 111
    },
    {
      "midi": 77,
      "hit": false,
      "t": 130380.20833333334,
      "d": 348.9583333333285,
      "v": 97
    },
    {
      "midi": 65,
      "hit": false,
      "t": 130380.20833333334,
      "d": 367.1875,
      "v": 97
    },
    {
      "midi": 31,
      "hit": false,
      "t": 130499.99999999999,
      "d": 260.4166666666715,
      "v": 124
    },
    {
      "midi": 55,
      "hit": false,
      "t": 130502.60416666648,
      "d": 46.875,
      "v": 93
    },
    {
      "midi": 55,
      "hit": false,
      "t": 130627.60416666648,
      "d": 54.6875,
      "v": 93
    },
    {
      "midi": 74,
      "hit": false,
      "t": 130749.99999999999,
      "d": 906.2500000000146,
      "v": 111
    },
    {
      "midi": 55,
      "hit": false,
      "t": 130752.60416666648,
      "d": 54.6875,
      "v": 93
    },
    {
      "midi": 62,
      "hit": false,
      "t": 130752.60416666667,
      "d": 1184.8958333333285,
      "v": 98
    },
    {
      "midi": 74,
      "hit": false,
      "t": 130752.60416666667,
      "d": 1197.9166666666715,
      "v": 98
    },
    {
      "midi": 31,
      "hit": false,
      "t": 130874.99999999999,
      "d": 70.3125,
      "v": 124
    },
    {
      "midi": 55,
      "hit": false,
      "t": 130877.60416666648,
      "d": 59.89583333332848,
      "v": 93
    },
    {
      "midi": 55,
      "hit": false,
      "t": 131002.60416666648,
      "d": 54.6875,
      "v": 93
    },
    {
      "midi": 31,
      "hit": false,
      "t": 131002.60416666666,
      "d": 231.77083333334303,
      "v": 124
    },
    {
      "midi": 55,
      "hit": false,
      "t": 131127.60416666648,
      "d": 62.5,
      "v": 93
    },
    {
      "midi": 31,
      "hit": false,
      "t": 131250,
      "d": 236.97916666665697,
      "v": 124
    },
    {
      "midi": 55,
      "hit": false,
      "t": 131252.60416666648,
      "d": 54.6875,
      "v": 93
    },
    {
      "midi": 55,
      "hit": false,
      "t": 131377.60416666648,
      "d": 52.083333333343035,
      "v": 93
    },
    {
      "midi": 31,
      "hit": false,
      "t": 131500,
      "d": 250,
      "v": 124
    },
    {
      "midi": 55,
      "hit": false,
      "t": 131502.60416666648,
      "d": 52.083333333343035,
      "v": 93
    },
    {
      "midi": 67,
      "hit": false,
      "t": 131502.6041666667,
      "d": 335.9375,
      "v": 115
    },
    {
      "midi": 55,
      "hit": false,
      "t": 131505.20833333334,
      "d": 463.54166666668607,
      "v": 114
    },
    {
      "midi": 55,
      "hit": false,
      "t": 131627.60416666648,
      "d": 62.5,
      "v": 93
    },
    {
      "midi": 33,
      "hit": false,
      "t": 131750,
      "d": 122.39583333334303,
      "v": 124
    },
    {
      "midi": 55,
      "hit": false,
      "t": 131752.60416666648,
      "d": 46.875,
      "v": 93
    },
    {
      "midi": 55,
      "hit": false,
      "t": 131874.99999999983,
      "d": 46.875,
      "v": 93
    },
    {
      "midi": 35,
      "hit": false,
      "t": 131875,
      "d": 122.39583333334303,
      "v": 124
    },
    {
      "midi": 72,
      "hit": false,
      "t": 131999.99999999985,
      "d": 1945.3125,
      "v": 95
    },
    {
      "midi": 76,
      "hit": false,
      "t": 131999.99999999985,
      "d": 2013.020833333343,
      "v": 95
    },
    {
      "midi": 67,
      "hit": false,
      "t": 131999.99999999985,
      "d": 3880.208333333343,
      "v": 92
    },
    {
      "midi": 55,
      "hit": false,
      "t": 131999.99999999985,
      "d": 4000.000000000029,
      "v": 95
    },
    {
      "midi": 96,
      "hit": false,
      "t": 132000,
      "d": 1976.5625,
      "v": 95
    },
    {
      "midi": 60,
      "hit": false,
      "t": 132002.60416666648,
      "d": 75.52083333334303,
      "v": 91
    },
    {
      "midi": 72,
      "hit": false,
      "t": 132002.6041666667,
      "d": 1210.9375,
      "v": 98
    },
    {
      "midi": 67,
      "hit": false,
      "t": 132002.6041666667,
      "d": 1213.541666666657,
      "v": 109
    },
    {
      "midi": 36,
      "hit": false,
      "t": 132005.20833333334,
      "d": 315.10416666665697,
      "v": 126
    },
    {
      "midi": 76,
      "hit": false,
      "t": 132005.20833333334,
      "d": 1210.9375,
      "v": 114
    },
    {
      "midi": 60,
      "hit": false,
      "t": 132005.20833333334,
      "d": 1273.4375,
      "v": 114
    },
    {
      "midi": 60,
      "hit": false,
      "t": 132122.39583333317,
      "d": 70.3125,
      "v": 91
    },
    {
      "midi": 60,
      "hit": false,
      "t": 132252.6041666665,
      "d": 39.0625,
      "v": 91
    },
    {
      "midi": 60,
      "hit": false,
      "t": 132372.39583333317,
      "d": 72.91666666665697,
      "v": 91
    },
    {
      "midi": 60,
      "hit": false,
      "t": 132497.39583333317,
      "d": 70.3125,
      "v": 91
    },
    {
      "midi": 36,
      "hit": false,
      "t": 132497.39583333334,
      "d": 247.39583333334303,
      "v": 126
    },
    {
      "midi": 60,
      "hit": false,
      "t": 132622.39583333317,
      "d": 65.10416666665697,
      "v": 91
    },
    {
      "midi": 60,
      "hit": false,
      "t": 132747.39583333317,
      "d": 57.291666666656965,
      "v": 91
    },
    {
      "midi": 60,
      "hit": false,
      "t": 132872.39583333317,
      "d": 67.70833333334303,
      "v": 91
    },
    {
      "midi": 36,
      "hit": false,
      "t": 132872.39583333334,
      "d": 57.291666666656965,
      "v": 126
    },
    {
      "midi": 60,
      "hit": false,
      "t": 132999.99999999985,
      "d": 57.291666666656965,
      "v": 91
    },
    {
      "midi": 36,
      "hit": false,
      "t": 133002.60416666666,
      "d": 138.02083333334303,
      "v": 126
    },
    {
      "midi": 60,
      "hit": false,
      "t": 133124.99999999985,
      "d": 54.6875,
      "v": 91
    },
    {
      "midi": 36,
      "hit": false,
      "t": 133250,
      "d": 127.60416666665697,
      "v": 124
    },
    {
      "midi": 60,
      "hit": false,
      "t": 133252.6041666665,
      "d": 54.6875,
      "v": 91
    },
    {
      "midi": 60,
      "hit": false,
      "t": 133374.99999999985,
      "d": 62.5,
      "v": 91
    },
    {
      "midi": 36,
      "hit": false,
      "t": 133500,
      "d": 148.4375,
      "v": 124
    },
    {
      "midi": 74,
      "hit": false,
      "t": 133500,
      "d": 250,
      "v": 113
    },
    {
      "midi": 60,
      "hit": false,
      "t": 133502.6041666665,
      "d": 59.895833333343035,
      "v": 91
    },
    {
      "midi": 60,
      "hit": false,
      "t": 133627.6041666665,
      "d": 57.291666666656965,
      "v": 91
    },
    {
      "midi": 60,
      "hit": false,
      "t": 133747.39583333317,
      "d": 59.895833333343035,
      "v": 91
    },
    {
      "midi": 36,
      "hit": false,
      "t": 133747.39583333334,
      "d": 122.39583333334303,
      "v": 122
    },
    {
      "midi": 72,
      "hit": false,
      "t": 133750,
      "d": 333.33333333334303,
      "v": 113
    },
    {
      "midi": 60,
      "hit": false,
      "t": 133874.99999999985,
      "d": 54.6875,
      "v": 91
    },
    {
      "midi": 95,
      "hit": false,
      "t": 133992.1875,
      "d": 1989.583333333343,
      "v": 95
    },
    {
      "midi": 74,
      "hit": false,
      "t": 133997.3958333332,
      "d": 1911.458333333343,
      "v": 95
    },
    {
      "midi": 31,
      "hit": false,
      "t": 133997.39583333334,
      "d": 330.72916666665697,
      "v": 122
    },
    {
      "midi": 71,
      "hit": false,
      "t": 133999.99999999985,
      "d": 1979.166666666686,
      "v": 95
    },
    {
      "midi": 74,
      "hit": false,
      "t": 134000,
      "d": 395.83333333334303,
      "v": 113
    },
    {
      "midi": 55,
      "hit": false,
      "t": 134002.6041666665,
      "d": 52.083333333343035,
      "v": 91
    },
    {
      "midi": 55,
      "hit": false,
      "t": 134122.3958333332,
      "d": 78.125,
      "v": 91
    },
    {
      "midi": 55,
      "hit": false,
      "t": 134247.3958333332,
      "d": 52.083333333343035,
      "v": 91
    },
    {
      "midi": 55,
      "hit": false,
      "t": 134372.3958333332,
      "d": 70.3125,
      "v": 91
    },
    {
      "midi": 71,
      "hit": false,
      "t": 134380.20833333334,
      "d": 375,
      "v": 113
    },
    {
      "midi": 31,
      "hit": false,
      "t": 134497.39583333334,
      "d": 276.04166666665697,
      "v": 122
    },
    {
      "midi": 55,
      "hit": false,
      "t": 134502.60416666654,
      "d": 57.291666666656965,
      "v": 91
    },
    {
      "midi": 55,
      "hit": false,
      "t": 134627.60416666654,
      "d": 62.5,
      "v": 91
    },
    {
      "midi": 55,
      "hit": false,
      "t": 134752.60416666654,
      "d": 52.083333333343035,
      "v": 91
    },
    {
      "midi": 67,
      "hit": false,
      "t": 134755.20833333334,
      "d": 783.854166666657,
      "v": 113
    },
    {
      "midi": 55,
      "hit": false,
      "t": 134877.60416666654,
      "d": 62.5,
      "v": 91
    },
    {
      "midi": 31,
      "hit": false,
      "t": 134877.60416666666,
      "d": 78.125,
      "v": 122
    },
    {
      "midi": 55,
      "hit": false,
      "t": 135002.60416666654,
      "d": 59.895833333343035,
      "v": 91
    },
    {
      "midi": 31,
      "hit": false,
      "t": 135005.2083333333,
      "d": 161.45833333334303,
      "v": 122
    },
    {
      "midi": 55,
      "hit": false,
      "t": 135127.60416666654,
      "d": 57.291666666656965,
      "v": 91
    },
    {
      "midi": 55,
      "hit": false,
      "t": 135252.60416666654,
      "d": 54.6875,
      "v": 91
    },
    {
      "midi": 31,
      "hit": false,
      "t": 135255.2083333333,
      "d": 138.02083333334303,
      "v": 122
    },
    {
      "midi": 55,
      "hit": false,
      "t": 135377.60416666654,
      "d": 70.3125,
      "v": 91
    },
    {
      "midi": 31,
      "hit": false,
      "t": 135502.60416666666,
      "d": 145.83333333334303,
      "v": 122
    },
    {
      "midi": 55,
      "hit": false,
      "t": 135502.6041666667,
      "d": 513.0208333332848,
      "v": 109
    },
    {
      "midi": 55,
      "hit": false,
      "t": 135505.2083333332,
      "d": 52.083333333343035,
      "v": 91
    },
    {
      "midi": 67,
      "hit": false,
      "t": 135505.20833333334,
      "d": 369.79166666665697,
      "v": 119
    },
    {
      "midi": 55,
      "hit": false,
      "t": 135627.60416666654,
      "d": 39.0625,
      "v": 91
    },
    {
      "midi": 55,
      "hit": false,
      "t": 135752.60416666654,
      "d": 49.479166666656965,
      "v": 91
    },
    {
      "midi": 31,
      "hit": false,
      "t": 135752.60416666666,
      "d": 111.97916666665697,
      "v": 122
    },
    {
      "midi": 55,
      "hit": false,
      "t": 135877.60416666654,
      "d": 75.52083333334303,
      "v": 91
    },
    {
      "midi": 69,
      "hit": false,
      "t": 135999.99999999988,
      "d": 1953.125,
      "v": 97
    },
    {
      "midi": 72,
      "hit": false,
      "t": 136002.60416666654,
      "d": 1986.979166666686,
      "v": 97
    },
    {
      "midi": 64,
      "hit": false,
      "t": 136002.60416666654,
      "d": 3807.291666666715,
      "v": 97
    },
    {
      "midi": 52,
      "hit": false,
      "t": 136002.60416666654,
      "d": 4000.0000000000873,
      "v": 97
    },
    {
      "midi": 57,
      "hit": false,
      "t": 136002.60416666654,
      "d": 59.895833333343035,
      "v": 91
    },
    {
      "midi": 33,
      "hit": false,
      "t": 136002.60416666666,
      "d": 328.125,
      "v": 122
    },
    {
      "midi": 72,
      "hit": false,
      "t": 136002.60416666666,
      "d": 1309.895833333314,
      "v": 92
    },
    {
      "midi": 69,
      "hit": false,
      "t": 136002.60416666666,
      "d": 1315.104166666657,
      "v": 115
    },
    {
      "midi": 64,
      "hit": false,
      "t": 136002.60416666666,
      "d": 1328.125,
      "v": 109
    },
    {
      "midi": 57,
      "hit": false,
      "t": 136005.2083333333,
      "d": 1335.9375,
      "v": 119
    },
    {
      "midi": 93,
      "hit": false,
      "t": 136005.20833333334,
      "d": 2000,
      "v": 93
    },
    {
      "midi": 57,
      "hit": false,
      "t": 136127.60416666654,
      "d": 62.5,
      "v": 91
    },
    {
      "midi": 57,
      "hit": false,
      "t": 136252.60416666654,
      "d": 52.083333333343035,
      "v": 91
    },
    {
      "midi": 57,
      "hit": false,
      "t": 136377.60416666654,
      "d": 62.5,
      "v": 91
    },
    {
      "midi": 57,
      "hit": false,
      "t": 136502.60416666654,
      "d": 49.479166666656965,
      "v": 91
    },
    {
      "midi": 33,
      "hit": false,
      "t": 136502.60416666666,
      "d": 260.41666666665697,
      "v": 124
    },
    {
      "midi": 57,
      "hit": false,
      "t": 136627.60416666654,
      "d": 75.52083333334303,
      "v": 91
    },
    {
      "midi": 57,
      "hit": false,
      "t": 136752.60416666654,
      "d": 46.875,
      "v": 95
    },
    {
      "midi": 57,
      "hit": false,
      "t": 136877.60416666654,
      "d": 62.5,
      "v": 95
    },
    {
      "midi": 33,
      "hit": false,
      "t": 136877.60416666666,
      "d": 65.10416666665697,
      "v": 124
    },
    {
      "midi": 57,
      "hit": false,
      "t": 137002.60416666654,
      "d": 54.6875,
      "v": 95
    },
    {
      "midi": 33,
      "hit": false,
      "t": 137005.2083333333,
      "d": 145.83333333334303,
      "v": 124
    },
    {
      "midi": 57,
      "hit": false,
      "t": 137127.60416666654,
      "d": 67.70833333334303,
      "v": 95
    },
    {
      "midi": 57,
      "hit": false,
      "t": 137247.39583333323,
      "d": 59.895833333343035,
      "v": 95
    },
    {
      "midi": 33,
      "hit": false,
      "t": 137255.2083333333,
      "d": 132.8125,
      "v": 124
    },
    {
      "midi": 57,
      "hit": false,
      "t": 137372.39583333323,
      "d": 62.5,
      "v": 95
    },
    {
      "midi": 57,
      "hit": false,
      "t": 137497.39583333323,
      "d": 59.895833333343035,
      "v": 95
    },
    {
      "midi": 33,
      "hit": false,
      "t": 137502.60416666666,
      "d": 122.39583333334303,
      "v": 124
    },
    {
      "midi": 72,
      "hit": false,
      "t": 137502.60416666666,
      "d": 244.79166666665697,
      "v": 113
    },
    {
      "midi": 57,
      "hit": false,
      "t": 137622.39583333323,
      "d": 59.895833333343035,
      "v": 95
    },
    {
      "midi": 57,
      "hit": false,
      "t": 137744.79166666657,
      "d": 65.10416666665697,
      "v": 95
    },
    {
      "midi": 33,
      "hit": false,
      "t": 137747.39583333334,
      "d": 114.58333333334303,
      "v": 124
    },
    {
      "midi": 69,
      "hit": false,
      "t": 137752.60416666666,
      "d": 294.27083333334303,
      "v": 113
    },
    {
      "midi": 57,
      "hit": false,
      "t": 137872.39583333323,
      "d": 57.291666666656965,
      "v": 95
    },
    {
      "midi": 71,
      "hit": false,
      "t": 137994.79166666657,
      "d": 1929.687500000029,
      "v": 95
    },
    {
      "midi": 52,
      "hit": false,
      "t": 137997.39583333323,
      "d": 52.083333333343035,
      "v": 95
    },
    {
      "midi": 28,
      "hit": false,
      "t": 137997.39583333334,
      "d": 276.04166666665697,
      "v": 124
    },
    {
      "midi": 67,
      "hit": false,
      "t": 137999.9999999999,
      "d": 1953.125000000029,
      "v": 95
    },
    {
      "midi": 91,
      "hit": false,
      "t": 138000,
      "d": 2010.416666666686,
      "v": 93
    },
    {
      "midi": 71,
      "hit": false,
      "t": 138002.60416666666,
      "d": 375,
      "v": 113
    },
    {
      "midi": 52,
      "hit": false,
      "t": 138122.39583333323,
      "d": 65.10416666665697,
      "v": 95
    },
    {
      "midi": 52,
      "hit": false,
      "t": 138247.39583333323,
      "d": 52.083333333343035,
      "v": 95
    },
    {
      "midi": 52,
      "hit": false,
      "t": 138374.9999999999,
      "d": 62.5,
      "v": 95
    },
    {
      "midi": 67,
      "hit": false,
      "t": 138375,
      "d": 375,
      "v": 113
    },
    {
      "midi": 52,
      "hit": false,
      "t": 138497.39583333326,
      "d": 54.6875,
      "v": 95
    },
    {
      "midi": 28,
      "hit": false,
      "t": 138497.39583333334,
      "d": 247.39583333334303,
      "v": 124
    },
    {
      "midi": 52,
      "hit": false,
      "t": 138622.39583333326,
      "d": 70.3125,
      "v": 95
    },
    {
      "midi": 52,
      "hit": false,
      "t": 138747.39583333326,
      "d": 49.479166666656965,
      "v": 95
    },
    {
      "midi": 64,
      "hit": false,
      "t": 138752.60416666666,
      "d": 611.979166666657,
      "v": 111
    },
    {
      "midi": 52,
      "hit": false,
      "t": 138869.79166666657,
      "d": 70.3125,
      "v": 95
    },
    {
      "midi": 28,
      "hit": false,
      "t": 138872.39583333334,
      "d": 59.895833333343035,
      "v": 124
    },
    {
      "midi": 52,
      "hit": false,
      "t": 138997.39583333323,
      "d": 49.479166666656965,
      "v": 95
    },
    {
      "midi": 28,
      "hit": false,
      "t": 138997.39583333334,
      "d": 130.20833333334303,
      "v": 124
    },
    {
      "midi": 52,
      "hit": false,
      "t": 139122.39583333323,
      "d": 62.5,
      "v": 95
    },
    {
      "midi": 52,
      "hit": false,
      "t": 139247.39583333323,
      "d": 54.6875,
      "v": 95
    },
    {
      "midi": 28,
      "hit": false,
      "t": 139247.39583333334,
      "d": 122.39583333334303,
      "v": 124
    },
    {
      "midi": 52,
      "hit": false,
      "t": 139369.79166666657,
      "d": 70.3125,
      "v": 95
    },
    {
      "midi": 52,
      "hit": false,
      "t": 139497.39583333323,
      "d": 57.291666666656965,
      "v": 95
    },
    {
      "midi": 28,
      "hit": false,
      "t": 139497.39583333334,
      "d": 130.20833333334303,
      "v": 124
    },
    {
      "midi": 64,
      "hit": false,
      "t": 139505.2083333333,
      "d": 364.58333333334303,
      "v": 119
    },
    {
      "midi": 52,
      "hit": false,
      "t": 139505.2083333333,
      "d": 494.79166666668607,
      "v": 119
    },
    {
      "midi": 52,
      "hit": false,
      "t": 139624.99999999988,
      "d": 44.270833333343035,
      "v": 95
    },
    {
      "midi": 52,
      "hit": false,
      "t": 139747.39583333323,
      "d": 52.083333333343035,
      "v": 95
    },
    {
      "midi": 28,
      "hit": false,
      "t": 139747.39583333334,
      "d": 125,
      "v": 124
    },
    {
      "midi": 52,
      "hit": false,
      "t": 139872.39583333323,
      "d": 67.70833333334303,
      "v": 95
    },
    {
      "midi": 53,
      "hit": false,
      "t": 139997.39583333323,
      "d": 57.291666666656965,
      "v": 95
    },
    {
      "midi": 65,
      "hit": false,
      "t": 139997.39583333328,
      "d": 1867.1875,
      "v": 80
    },
    {
      "midi": 69,
      "hit": false,
      "t": 139997.39583333328,
      "d": 2000,
      "v": 86
    },
    {
      "midi": 48,
      "hit": false,
      "t": 139997.39583333328,
      "d": 4023.4375,
      "v": 74
    },
    {
      "midi": 60,
      "hit": false,
      "t": 140002.60416666663,
      "d": 3809.895833333314,
      "v": 97
    },
    {
      "midi": 65,
      "hit": false,
      "t": 140002.60416666666,
      "d": 1304.6875,
      "v": 115
    },
    {
      "midi": 72,
      "hit": false,
      "t": 140002.60416666666,
      "d": 1322.916666666686,
      "v": 86
    },
    {
      "midi": 29,
      "hit": false,
      "t": 140002.6041666667,
      "d": 325.52083333334303,
      "v": 124
    },
    {
      "midi": 69,
      "hit": false,
      "t": 140005.2083333333,
      "d": 1307.291666666686,
      "v": 119
    },
    {
      "midi": 53,
      "hit": false,
      "t": 140005.2083333333,
      "d": 1325.5208333333721,
      "v": 119
    },
    {
      "midi": 89,
      "hit": false,
      "t": 140005.20833333334,
      "d": 2007.8125,
      "v": 95
    },
    {
      "midi": 53,
      "hit": false,
      "t": 140122.39583333323,
      "d": 59.895833333343035,
      "v": 95
    },
    {
      "midi": 53,
      "hit": false,
      "t": 140247.39583333323,
      "d": 54.6875,
      "v": 95
    },
    {
      "midi": 53,
      "hit": false,
      "t": 140372.39583333323,
      "d": 59.895833333343035,
      "v": 95
    },
    {
      "midi": 53,
      "hit": false,
      "t": 140497.39583333323,
      "d": 52.083333333343035,
      "v": 95
    },
    {
      "midi": 29,
      "hit": false,
      "t": 140502.6041666667,
      "d": 236.97916666665697,
      "v": 124
    },
    {
      "midi": 53,
      "hit": false,
      "t": 140627.60416666657,
      "d": 59.895833333343035,
      "v": 95
    },
    {
      "midi": 53,
      "hit": false,
      "t": 140747.39583333326,
      "d": 54.6875,
      "v": 95
    },
    {
      "midi": 29,
      "hit": false,
      "t": 140872.39583333334,
      "d": 65.10416666665697,
      "v": 124
    },
    {
      "midi": 53,
      "hit": false,
      "t": 140874.9999999999,
      "d": 59.895833333343035,
      "v": 95
    },
    {
      "midi": 29,
      "hit": false,
      "t": 140997.39583333334,
      "d": 145.83333333334303,
      "v": 124
    },
    {
      "midi": 53,
      "hit": false,
      "t": 140999.9999999999,
      "d": 59.895833333343035,
      "v": 95
    },
    {
      "midi": 53,
      "hit": false,
      "t": 141127.6041666666,
      "d": 67.70833333334303,
      "v": 95
    },
    {
      "midi": 53,
      "hit": false,
      "t": 141252.6041666666,
      "d": 57.291666666656965,
      "v": 95
    },
    {
      "midi": 29,
      "hit": false,
      "t": 141252.6041666667,
      "d": 135.41666666665697,
      "v": 124
    },
    {
      "midi": 53,
      "hit": false,
      "t": 141372.39583333326,
      "d": 78.125,
      "v": 95
    },
    {
      "midi": 53,
      "hit": false,
      "t": 141497.39583333326,
      "d": 62.5,
      "v": 95
    },
    {
      "midi": 65,
      "hit": false,
      "t": 141502.60416666666,
      "d": 151.04166666665697,
      "v": 109
    },
    {
      "midi": 29,
      "hit": false,
      "t": 141502.6041666667,
      "d": 140.625,
      "v": 124
    },
    {
      "midi": 53,
      "hit": false,
      "t": 141627.6041666666,
      "d": 67.70833333334303,
      "v": 95
    },
    {
      "midi": 53,
      "hit": false,
      "t": 141747.39583333328,
      "d": 57.291666666656965,
      "v": 95
    },
    {
      "midi": 65,
      "hit": false,
      "t": 141749.99999999997,
      "d": 231.77083333334303,
      "v": 109
    },
    {
      "midi": 29,
      "hit": false,
      "t": 141752.6041666667,
      "d": 125,
      "v": 124
    },
    {
      "midi": 53,
      "hit": false,
      "t": 141872.39583333328,
      "d": 59.895833333343035,
      "v": 95
    },
    {
      "midi": 64,
      "hit": false,
      "t": 141994.79166666663,
      "d": 1846.354166666657,
      "v": 93
    },
    {
      "midi": 67,
      "hit": false,
      "t": 141994.79166666663,
      "d": 1960.9375,
      "v": 93
    },
    {
      "midi": 48,
      "hit": false,
      "t": 141997.39583333328,
      "d": 49.479166666656965,
      "v": 95
    },
    {
      "midi": 36,
      "hit": false,
      "t": 142002.6041666667,
      "d": 299.47916666665697,
      "v": 124
    },
    {
      "midi": 88,
      "hit": false,
      "t": 142002.6041666667,
      "d": 2031.25,
      "v": 97
    },
    {
      "midi": 64,
      "hit": false,
      "t": 142005.2083333333,
      "d": 500,
      "v": 109
    },
    {
      "midi": 48,
      "hit": false,
      "t": 142127.6041666666,
      "d": 62.5,
      "v": 95
    },
    {
      "midi": 48,
      "hit": false,
      "t": 142247.39583333326,
      "d": 49.479166666656965,
      "v": 95
    },
    {
      "midi": 48,
      "hit": false,
      "t": 142372.39583333326,
      "d": 59.895833333343035,
      "v": 95
    },
    {
      "midi": 48,
      "hit": false,
      "t": 142499.99999999994,
      "d": 52.083333333343035,
      "v": 95
    },
    {
      "midi": 67,
      "hit": false,
      "t": 142499.99999999997,
      "d": 250,
      "v": 109
    },
    {
      "midi": 36,
      "hit": false,
      "t": 142502.6041666667,
      "d": 213.54166666665697,
      "v": 124
    },
    {
      "midi": 48,
      "hit": false,
      "t": 142627.60416666663,
      "d": 65.10416666665697,
      "v": 95
    },
    {
      "midi": 48,
      "hit": false,
      "t": 142752.60416666663,
      "d": 52.083333333343035,
      "v": 95
    },
    {
      "midi": 72,
      "hit": false,
      "t": 142755.2083333333,
      "d": 848.958333333343,
      "v": 109
    },
    {
      "midi": 36,
      "hit": false,
      "t": 142872.39583333334,
      "d": 57.291666666656965,
      "v": 124
    },
    {
      "midi": 48,
      "hit": false,
      "t": 142877.60416666663,
      "d": 62.5,
      "v": 95
    },
    {
      "midi": 36,
      "hit": false,
      "t": 142997.39583333334,
      "d": 138.02083333334303,
      "v": 124
    },
    {
      "midi": 48,
      "hit": false,
      "t": 143002.60416666663,
      "d": 54.6875,
      "v": 95
    },
    {
      "midi": 48,
      "hit": false,
      "t": 143127.60416666663,
      "d": 67.70833333334303,
      "v": 95
    },
    {
      "midi": 36,
      "hit": false,
      "t": 143250.00000000003,
      "d": 119.79166666665697,
      "v": 124
    },
    {
      "midi": 48,
      "hit": false,
      "t": 143252.60416666663,
      "d": 54.6875,
      "v": 95
    },
    {
      "midi": 48,
      "hit": false,
      "t": 143377.60416666663,
      "d": 78.125,
      "v": 95
    },
    {
      "midi": 48,
      "hit": false,
      "t": 143502.60416666663,
      "d": 54.6875,
      "v": 95
    },
    {
      "midi": 36,
      "hit": false,
      "t": 143502.6041666667,
      "d": 140.625,
      "v": 124
    },
    {
      "midi": 60,
      "hit": false,
      "t": 143505.20833333334,
      "d": 328.125,
      "v": 117
    },
    {
      "midi": 72,
      "hit": false,
      "t": 143505.20833333334,
      "d": 335.9375,
      "v": 117
    },
    {
      "midi": 48,
      "hit": false,
      "t": 143627.60416666663,
      "d": 70.3125,
      "v": 95
    },
    {
      "midi": 36,
      "hit": false,
      "t": 143750.00000000003,
      "d": 135.41666666665697,
      "v": 124
    },
    {
      "midi": 48,
      "hit": false,
      "t": 143752.60416666663,
      "d": 54.6875,
      "v": 95
    },
    {
      "midi": 48,
      "hit": false,
      "t": 143877.60416666663,
      "d": 70.3125,
      "v": 95
    },
    {
      "midi": 62,
      "hit": false,
      "t": 143994.79166666663,
      "d": 1890.625,
      "v": 72
    },
    {
      "midi": 65,
      "hit": false,
      "t": 143997.39583333328,
      "d": 1820.3125,
      "v": 97
    },
    {
      "midi": 50,
      "hit": false,
      "t": 143997.39583333328,
      "d": 2005.208333333343,
      "v": 97
    },
    {
      "midi": 69,
      "hit": false,
      "t": 143997.39583333328,
      "d": 2018.229166666686,
      "v": 97
    },
    {
      "midi": 65,
      "hit": false,
      "t": 143997.39583333334,
      "d": 1315.104166666686,
      "v": 109
    },
    {
      "midi": 50,
      "hit": false,
      "t": 144002.60416666663,
      "d": 57.291666666656965,
      "v": 95
    },
    {
      "midi": 38,
      "hit": false,
      "t": 144002.6041666667,
      "d": 315.10416666665697,
      "v": 124
    },
    {
      "midi": 69,
      "hit": false,
      "t": 144002.6041666667,
      "d": 1317.708333333343,
      "v": 117
    },
    {
      "midi": 72,
      "hit": false,
      "t": 144002.6041666667,
      "d": 1317.708333333343,
      "v": 117
    },
    {
      "midi": 53,
      "hit": false,
      "t": 144002.6041666667,
      "d": 1328.125,
      "v": 117
    },
    {
      "midi": 86,
      "hit": false,
      "t": 144002.6041666667,
      "d": 2039.0625,
      "v": 95
    },
    {
      "midi": 50,
      "hit": false,
      "t": 144127.60416666663,
      "d": 59.895833333343035,
      "v": 95
    },
    {
      "midi": 50,
      "hit": false,
      "t": 144247.3958333333,
      "d": 46.875,
      "v": 95
    },
    {
      "midi": 50,
      "hit": false,
      "t": 144372.3958333333,
      "d": 65.10416666665697,
      "v": 95
    },
    {
      "midi": 50,
      "hit": false,
      "t": 144497.3958333333,
      "d": 52.083333333343035,
      "v": 95
    },
    {
      "midi": 38,
      "hit": false,
      "t": 144497.39583333334,
      "d": 239.58333333334303,
      "v": 124
    },
    {
      "midi": 50,
      "hit": false,
      "t": 144627.60416666666,
      "d": 62.5,
      "v": 95
    },
    {
      "midi": 50,
      "hit": false,
      "t": 144747.3958333333,
      "d": 52.083333333343035,
      "v": 93
    },
    {
      "midi": 72,
      "hit": false,
      "t": 144750,
      "d": 351.5625,
      "v": 111
    },
    {
      "midi": 50,
      "hit": false,
      "t": 144872.3958333333,
      "d": 70.3125,
      "v": 93
    },
    {
      "midi": 38,
      "hit": false,
      "t": 144872.39583333334,
      "d": 65.10416666665697,
      "v": 124
    },
    {
      "midi": 50,
      "hit": false,
      "t": 144997.3958333333,
      "d": 54.6875,
      "v": 93
    },
    {
      "midi": 38,
      "hit": false,
      "t": 144997.39583333334,
      "d": 138.02083333334303,
      "v": 124
    },
    {
      "midi": 50,
      "hit": false,
      "t": 145124.99999999997,
      "d": 57.291666666656965,
      "v": 93
    },
    {
      "midi": 38,
      "hit": false,
      "t": 145247.39583333334,
      "d": 125,
      "v": 124
    },
    {
      "midi": 50,
      "hit": false,
      "t": 145252.60416666663,
      "d": 54.6875,
      "v": 93
    },
    {
      "midi": 72,
      "hit": false,
      "t": 145260.41666666666,
      "d": 242.1875,
      "v": 111
    },
    {
      "midi": 50,
      "hit": false,
      "t": 145372.39583333328,
      "d": 65.10416666665697,
      "v": 93
    },
    {
      "midi": 38,
      "hit": false,
      "t": 145497.39583333334,
      "d": 153.64583333334303,
      "v": 124
    },
    {
      "midi": 50,
      "hit": false,
      "t": 145502.6041666666,
      "d": 54.6875,
      "v": 93
    },
    {
      "midi": 69,
      "hit": false,
      "t": 145515.625,
      "d": 260.41666666665697,
      "v": 111
    },
    {
      "midi": 50,
      "hit": false,
      "t": 145627.6041666666,
      "d": 31.25,
      "v": 93
    },
    {
      "midi": 38,
      "hit": false,
      "t": 145747.39583333334,
      "d": 125,
      "v": 124
    },
    {
      "midi": 50,
      "hit": false,
      "t": 145752.6041666666,
      "d": 46.875,
      "v": 93
    },
    {
      "midi": 72,
      "hit": false,
      "t": 145752.60416666666,
      "d": 296.875,
      "v": 111
    },
    {
      "midi": 50,
      "hit": false,
      "t": 145877.6041666666,
      "d": 70.3125,
      "v": 93
    },
    {
      "midi": 71,
      "hit": false,
      "t": 145994.79166666663,
      "d": 1846.354166666686,
      "v": 74
    },
    {
      "midi": 67,
      "hit": false,
      "t": 145994.79166666663,
      "d": 1848.958333333343,
      "v": 92
    },
    {
      "midi": 62,
      "hit": false,
      "t": 145994.79166666663,
      "d": 1872.395833333343,
      "v": 72
    },
    {
      "midi": 55,
      "hit": false,
      "t": 145997.39583333328,
      "d": 1830.729166666686,
      "v": 95
    },
    {
      "midi": 55,
      "hit": false,
      "t": 146002.6041666666,
      "d": 54.6875,
      "v": 93
    },
    {
      "midi": 43,
      "hit": false,
      "t": 146002.6041666667,
      "d": 354.16666666665697,
      "v": 124
    },
    {
      "midi": 88,
      "hit": false,
      "t": 146002.6041666667,
      "d": 546.875,
      "v": 97
    },
    {
      "midi": 76,
      "hit": false,
      "t": 146018.22916666666,
      "d": 380.20833333331393,
      "v": 111
    },
    {
      "midi": 55,
      "hit": false,
      "t": 146127.6041666666,
      "d": 59.895833333343035,
      "v": 93
    },
    {
      "midi": 55,
      "hit": false,
      "t": 146252.6041666666,
      "d": 44.270833333343035,
      "v": 93
    },
    {
      "midi": 55,
      "hit": false,
      "t": 146377.6041666666,
      "d": 62.5,
      "v": 93
    },
    {
      "midi": 77,
      "hit": false,
      "t": 146380.2083333333,
      "d": 403.64583333331393,
      "v": 111
    },
    {
      "midi": 55,
      "hit": false,
      "t": 146502.6041666666,
      "d": 46.875,
      "v": 93
    },
    {
      "midi": 43,
      "hit": false,
      "t": 146502.6041666667,
      "d": 260.41666666665697,
      "v": 124
    },
    {
      "midi": 89,
      "hit": false,
      "t": 146502.6041666667,
      "d": 289.0625,
      "v": 95
    },
    {
      "midi": 55,
      "hit": false,
      "t": 146627.6041666666,
      "d": 54.6875,
      "v": 93
    },
    {
      "midi": 55,
      "hit": false,
      "t": 146752.6041666666,
      "d": 54.6875,
      "v": 93
    },
    {
      "midi": 86,
      "hit": false,
      "t": 146752.6041666667,
      "d": 1093.75,
      "v": 95
    },
    {
      "midi": 74,
      "hit": false,
      "t": 146760.41666666663,
      "d": 963.541666666657,
      "v": 111
    },
    {
      "midi": 55,
      "hit": false,
      "t": 146877.6041666666,
      "d": 59.895833333343035,
      "v": 93
    },
    {
      "midi": 43,
      "hit": false,
      "t": 146877.6041666667,
      "d": 70.3125,
      "v": 124
    },
    {
      "midi": 55,
      "hit": false,
      "t": 147002.6041666666,
      "d": 54.6875,
      "v": 93
    },
    {
      "midi": 43,
      "hit": false,
      "t": 147005.20833333334,
      "d": 231.77083333334303,
      "v": 124
    },
    {
      "midi": 55,
      "hit": false,
      "t": 147127.6041666666,
      "d": 62.5,
      "v": 93
    },
    {
      "midi": 55,
      "hit": false,
      "t": 147252.6041666666,
      "d": 54.6875,
      "v": 93
    },
    {
      "midi": 41,
      "hit": false,
      "t": 147252.6041666667,
      "d": 236.97916666665697,
      "v": 124
    },
    {
      "midi": 55,
      "hit": false,
      "t": 147377.6041666666,
      "d": 52.083333333343035,
      "v": 93
    },
    {
      "midi": 40,
      "hit": false,
      "t": 147500,
      "d": 317.70833333331393,
      "v": 124
    },
    {
      "midi": 55,
      "hit": false,
      "t": 147502.6041666666,
      "d": 52.083333333343035,
      "v": 93
    },
    {
      "midi": 67,
      "hit": false,
      "t": 147502.6041666667,
      "d": 335.9375,
      "v": 115
    },
    {
      "midi": 55,
      "hit": false,
      "t": 147505.20833333334,
      "d": 463.54166666668607,
      "v": 114
    },
    {
      "midi": 55,
      "hit": false,
      "t": 147627.6041666666,
      "d": 62.5,
      "v": 93
    },
    {
      "midi": 55,
      "hit": false,
      "t": 147752.6041666666,
      "d": 46.875,
      "v": 93
    },
    {
      "midi": 38,
      "hit": false,
      "t": 147752.60416666666,
      "d": 289.0625,
      "v": 124
    },
    {
      "midi": 55,
      "hit": false,
      "t": 147874.99999999994,
      "d": 46.875,
      "v": 93
    },
    {
      "midi": 72,
      "hit": false,
      "t": 147999.99999999997,
      "d": 1945.3125,
      "v": 95
    },
    {
      "midi": 76,
      "hit": false,
      "t": 147999.99999999997,
      "d": 2013.020833333343,
      "v": 95
    },
    {
      "midi": 67,
      "hit": false,
      "t": 147999.99999999997,
      "d": 3880.208333333343,
      "v": 92
    },
    {
      "midi": 55,
      "hit": false,
      "t": 147999.99999999997,
      "d": 4000.000000000029,
      "v": 95
    },
    {
      "midi": 96,
      "hit": false,
      "t": 148000.00000000003,
      "d": 1976.5625,
      "v": 95
    },
    {
      "midi": 60,
      "hit": false,
      "t": 148002.6041666666,
      "d": 75.52083333334303,
      "v": 91
    },
    {
      "midi": 72,
      "hit": false,
      "t": 148002.6041666667,
      "d": 1210.9375,
      "v": 98
    },
    {
      "midi": 67,
      "hit": false,
      "t": 148002.6041666667,
      "d": 1213.541666666657,
      "v": 109
    },
    {
      "midi": 36,
      "hit": false,
      "t": 148005.2083333333,
      "d": 315.10416666668607,
      "v": 126
    },
    {
      "midi": 76,
      "hit": false,
      "t": 148005.20833333334,
      "d": 1210.9375,
      "v": 114
    },
    {
      "midi": 60,
      "hit": false,
      "t": 148005.20833333334,
      "d": 1273.4375,
      "v": 114
    },
    {
      "midi": 60,
      "hit": false,
      "t": 148122.39583333328,
      "d": 70.3125,
      "v": 91
    },
    {
      "midi": 60,
      "hit": false,
      "t": 148252.60416666663,
      "d": 39.0625,
      "v": 91
    },
    {
      "midi": 60,
      "hit": false,
      "t": 148372.39583333328,
      "d": 72.91666666665697,
      "v": 91
    },
    {
      "midi": 67,
      "hit": false,
      "t": 148380.2083333335,
      "d": 138.02083333334303,
      "v": 111
    },
    {
      "midi": 79,
      "hit": false,
      "t": 148380.2083333335,
      "d": 138.02083333334303,
      "v": 111
    },
    {
      "midi": 60,
      "hit": false,
      "t": 148497.39583333328,
      "d": 70.3125,
      "v": 91
    },
    {
      "midi": 36,
      "hit": false,
      "t": 148497.39583333334,
      "d": 247.39583333334303,
      "v": 126
    },
    {
      "midi": 60,
      "hit": false,
      "t": 148622.39583333328,
      "d": 65.10416666665697,
      "v": 91
    },
    {
      "midi": 79,
      "hit": false,
      "t": 148627.60416666683,
      "d": 117.1875,
      "v": 111
    },
    {
      "midi": 67,
      "hit": false,
      "t": 148627.60416666683,
      "d": 161.45833333331393,
      "v": 111
    },
    {
      "midi": 60,
      "hit": false,
      "t": 148747.39583333328,
      "d": 57.291666666656965,
      "v": 91
    },
    {
      "midi": 78,
      "hit": false,
      "t": 148755.2083333335,
      "d": 161.45833333331393,
      "v": 111
    },
    {
      "midi": 66,
      "hit": false,
      "t": 148755.2083333335,
      "d": 192.70833333331393,
      "v": 111
    },
    {
      "midi": 60,
      "hit": false,
      "t": 148872.39583333328,
      "d": 67.70833333334303,
      "v": 91
    },
    {
      "midi": 36,
      "hit": false,
      "t": 148872.39583333334,
      "d": 57.291666666656965,
      "v": 126
    },
    {
      "midi": 60,
      "hit": false,
      "t": 148999.99999999997,
      "d": 57.291666666656965,
      "v": 91
    },
    {
      "midi": 36,
      "hit": false,
      "t": 149002.60416666666,
      "d": 138.02083333334303,
      "v": 126
    },
    {
      "midi": 67,
      "hit": false,
      "t": 149002.6041666668,
      "d": 265.625,
      "v": 92
    },
    {
      "midi": 79,
      "hit": false,
      "t": 149005.20833333346,
      "d": 263.02083333334303,
      "v": 111
    },
    {
      "midi": 60,
      "hit": false,
      "t": 149124.99999999997,
      "d": 54.6875,
      "v": 91
    },
    {
      "midi": 36,
      "hit": false,
      "t": 149250,
      "d": 127.60416666665697,
      "v": 124
    },
    {
      "midi": 60,
      "hit": false,
      "t": 149252.60416666663,
      "d": 54.6875,
      "v": 91
    },
    {
      "midi": 60,
      "hit": false,
      "t": 149374.99999999997,
      "d": 62.5,
      "v": 91
    },
    {
      "midi": 74,
      "hit": false,
      "t": 149499.99999999994,
      "d": 250,
      "v": 113
    },
    {
      "midi": 36,
      "hit": false,
      "t": 149500,
      "d": 148.4375,
      "v": 124
    },
    {
      "midi": 60,
      "hit": false,
      "t": 149502.60416666663,
      "d": 59.895833333343035,
      "v": 91
    },
    {
      "midi": 60,
      "hit": false,
      "t": 149627.60416666663,
      "d": 57.291666666656965,
      "v": 91
    },
    {
      "midi": 60,
      "hit": false,
      "t": 149747.39583333328,
      "d": 59.895833333343035,
      "v": 91
    },
    {
      "midi": 36,
      "hit": false,
      "t": 149747.39583333334,
      "d": 122.39583333334303,
      "v": 122
    },
    {
      "midi": 72,
      "hit": false,
      "t": 149749.99999999994,
      "d": 333.33333333334303,
      "v": 113
    },
    {
      "midi": 60,
      "hit": false,
      "t": 149874.99999999997,
      "d": 54.6875,
      "v": 91
    },
    {
      "midi": 95,
      "hit": false,
      "t": 149992.18750000003,
      "d": 1989.583333333343,
      "v": 95
    },
    {
      "midi": 74,
      "hit": false,
      "t": 149997.3958333333,
      "d": 1911.458333333343,
      "v": 95
    },
    {
      "midi": 31,
      "hit": false,
      "t": 149997.39583333334,
      "d": 330.72916666665697,
      "v": 122
    },
    {
      "midi": 74,
      "hit": false,
      "t": 149999.99999999994,
      "d": 395.83333333334303,
      "v": 113
    },
    {
      "midi": 71,
      "hit": false,
      "t": 149999.99999999997,
      "d": 1979.166666666686,
      "v": 95
    },
    {
      "midi": 55,
      "hit": false,
      "t": 150002.60416666663,
      "d": 52.083333333343035,
      "v": 91
    },
    {
      "midi": 55,
      "hit": false,
      "t": 150122.3958333333,
      "d": 78.125,
      "v": 91
    },
    {
      "midi": 55,
      "hit": false,
      "t": 150247.3958333333,
      "d": 52.083333333343035,
      "v": 91
    },
    {
      "midi": 55,
      "hit": false,
      "t": 150372.3958333333,
      "d": 70.3125,
      "v": 91
    },
    {
      "midi": 71,
      "hit": false,
      "t": 150380.20833333328,
      "d": 375,
      "v": 113
    },
    {
      "midi": 31,
      "hit": false,
      "t": 150497.39583333334,
      "d": 276.04166666665697,
      "v": 122
    },
    {
      "midi": 55,
      "hit": false,
      "t": 150502.60416666666,
      "d": 57.291666666656965,
      "v": 91
    },
    {
      "midi": 55,
      "hit": false,
      "t": 150627.60416666666,
      "d": 62.5,
      "v": 91
    },
    {
      "midi": 55,
      "hit": false,
      "t": 150752.60416666666,
      "d": 52.083333333343035,
      "v": 91
    },
    {
      "midi": 67,
      "hit": false,
      "t": 150755.20833333328,
      "d": 783.854166666657,
      "v": 113
    },
    {
      "midi": 31,
      "hit": false,
      "t": 150877.60416666666,
      "d": 78.125,
      "v": 122
    },
    {
      "midi": 55,
      "hit": false,
      "t": 150877.60416666666,
      "d": 62.5,
      "v": 91
    },
    {
      "midi": 55,
      "hit": false,
      "t": 151002.60416666666,
      "d": 59.895833333343035,
      "v": 91
    },
    {
      "midi": 31,
      "hit": false,
      "t": 151005.2083333333,
      "d": 161.45833333334303,
      "v": 122
    },
    {
      "midi": 55,
      "hit": false,
      "t": 151127.60416666666,
      "d": 57.291666666656965,
      "v": 91
    },
    {
      "midi": 55,
      "hit": false,
      "t": 151252.60416666666,
      "d": 54.6875,
      "v": 91
    },
    {
      "midi": 31,
      "hit": false,
      "t": 151255.2083333333,
      "d": 138.02083333334303,
      "v": 122
    },
    {
      "midi": 55,
      "hit": false,
      "t": 151377.60416666666,
      "d": 70.3125,
      "v": 91
    },
    {
      "midi": 31,
      "hit": false,
      "t": 151502.60416666666,
      "d": 145.83333333334303,
      "v": 122
    },
    {
      "midi": 55,
      "hit": false,
      "t": 151502.6041666667,
      "d": 513.0208333332848,
      "v": 109
    },
    {
      "midi": 55,
      "hit": false,
      "t": 151505.2083333333,
      "d": 52.083333333343035,
      "v": 91
    },
    {
      "midi": 67,
      "hit": false,
      "t": 151505.20833333334,
      "d": 369.79166666665697,
      "v": 119
    },
    {
      "midi": 55,
      "hit": false,
      "t": 151627.60416666666,
      "d": 39.0625,
      "v": 91
    },
    {
      "midi": 31,
      "hit": false,
      "t": 151752.60416666666,
      "d": 111.97916666665697,
      "v": 122
    },
    {
      "midi": 55,
      "hit": false,
      "t": 151752.60416666666,
      "d": 49.479166666656965,
      "v": 91
    },
    {
      "midi": 55,
      "hit": false,
      "t": 151877.60416666666,
      "d": 75.52083333334303,
      "v": 91
    },
    {
      "midi": 69,
      "hit": false,
      "t": 152000,
      "d": 1953.125,
      "v": 97
    },
    {
      "midi": 33,
      "hit": false,
      "t": 152002.60416666666,
      "d": 328.125,
      "v": 122
    },
    {
      "midi": 72,
      "hit": false,
      "t": 152002.60416666666,
      "d": 1309.895833333314,
      "v": 92
    },
    {
      "midi": 69,
      "hit": false,
      "t": 152002.60416666666,
      "d": 1315.104166666657,
      "v": 115
    },
    {
      "midi": 64,
      "hit": false,
      "t": 152002.60416666666,
      "d": 1328.125,
      "v": 109
    },
    {
      "midi": 72,
      "hit": false,
      "t": 152002.60416666666,
      "d": 1986.979166666686,
      "v": 97
    },
    {
      "midi": 64,
      "hit": false,
      "t": 152002.60416666666,
      "d": 3807.291666666715,
      "v": 97
    },
    {
      "midi": 52,
      "hit": false,
      "t": 152002.60416666666,
      "d": 4000.0000000000873,
      "v": 97
    },
    {
      "midi": 57,
      "hit": false,
      "t": 152002.60416666666,
      "d": 59.895833333343035,
      "v": 91
    },
    {
      "midi": 57,
      "hit": false,
      "t": 152005.2083333333,
      "d": 1335.9375,
      "v": 119
    },
    {
      "midi": 93,
      "hit": false,
      "t": 152005.20833333337,
      "d": 2000,
      "v": 93
    },
    {
      "midi": 57,
      "hit": false,
      "t": 152127.60416666666,
      "d": 62.5,
      "v": 91
    },
    {
      "midi": 57,
      "hit": false,
      "t": 152252.60416666666,
      "d": 52.083333333343035,
      "v": 91
    },
    {
      "midi": 57,
      "hit": false,
      "t": 152377.60416666666,
      "d": 62.5,
      "v": 91
    },
    {
      "midi": 69,
      "hit": false,
      "t": 152377.6041666668,
      "d": 138.02083333334303,
      "v": 92
    },
    {
      "midi": 81,
      "hit": false,
      "t": 152380.20833333346,
      "d": 130.20833333334303,
      "v": 112
    },
    {
      "midi": 33,
      "hit": false,
      "t": 152502.60416666666,
      "d": 260.41666666665697,
      "v": 124
    },
    {
      "midi": 57,
      "hit": false,
      "t": 152502.60416666666,
      "d": 49.479166666656965,
      "v": 91
    },
    {
      "midi": 69,
      "hit": false,
      "t": 152622.3958333335,
      "d": 153.64583333334303,
      "v": 111
    },
    {
      "midi": 57,
      "hit": false,
      "t": 152627.60416666666,
      "d": 75.52083333334303,
      "v": 91
    },
    {
      "midi": 81,
      "hit": false,
      "t": 152627.60416666683,
      "d": 138.02083333334303,
      "v": 111
    },
    {
      "midi": 67,
      "hit": false,
      "t": 152750.00000000017,
      "d": 182.29166666665697,
      "v": 109
    },
    {
      "midi": 57,
      "hit": false,
      "t": 152752.60416666666,
      "d": 46.875,
      "v": 95
    },
    {
      "midi": 79,
      "hit": false,
      "t": 152752.60416666683,
      "d": 158.85416666665697,
      "v": 112
    },
    {
      "midi": 33,
      "hit": false,
      "t": 152877.60416666666,
      "d": 65.10416666665697,
      "v": 124
    },
    {
      "midi": 57,
      "hit": false,
      "t": 152877.60416666666,
      "d": 62.5,
      "v": 95
    },
    {
      "midi": 81,
      "hit": false,
      "t": 152997.3958333335,
      "d": 263.02083333334303,
      "v": 112
    },
    {
      "midi": 69,
      "hit": false,
      "t": 152997.3958333335,
      "d": 296.875,
      "v": 112
    },
    {
      "midi": 57,
      "hit": false,
      "t": 153002.60416666666,
      "d": 54.6875,
      "v": 95
    },
    {
      "midi": 33,
      "hit": false,
      "t": 153005.2083333333,
      "d": 145.83333333334303,
      "v": 124
    },
    {
      "midi": 57,
      "hit": false,
      "t": 153127.60416666666,
      "d": 67.70833333334303,
      "v": 95
    },
    {
      "midi": 57,
      "hit": false,
      "t": 153247.39583333334,
      "d": 59.895833333343035,
      "v": 95
    },
    {
      "midi": 33,
      "hit": false,
      "t": 153255.2083333333,
      "d": 132.8125,
      "v": 124
    },
    {
      "midi": 57,
      "hit": false,
      "t": 153372.39583333334,
      "d": 62.5,
      "v": 95
    },
    {
      "midi": 57,
      "hit": false,
      "t": 153497.39583333334,
      "d": 59.895833333343035,
      "v": 95
    },
    {
      "midi": 72,
      "hit": false,
      "t": 153502.6041666666,
      "d": 244.79166666665697,
      "v": 113
    },
    {
      "midi": 33,
      "hit": false,
      "t": 153502.60416666666,
      "d": 122.39583333334303,
      "v": 124
    },
    {
      "midi": 57,
      "hit": false,
      "t": 153622.39583333334,
      "d": 59.895833333343035,
      "v": 95
    },
    {
      "midi": 57,
      "hit": false,
      "t": 153744.7916666667,
      "d": 65.10416666665697,
      "v": 95
    },
    {
      "midi": 33,
      "hit": false,
      "t": 153747.39583333334,
      "d": 114.58333333334303,
      "v": 124
    },
    {
      "midi": 69,
      "hit": false,
      "t": 153752.6041666666,
      "d": 294.27083333334303,
      "v": 113
    },
    {
      "midi": 57,
      "hit": false,
      "t": 153872.39583333334,
      "d": 57.291666666656965,
      "v": 95
    },
    {
      "midi": 71,
      "hit": false,
      "t": 153994.7916666667,
      "d": 1929.687500000029,
      "v": 95
    },
    {
      "midi": 28,
      "hit": false,
      "t": 153997.39583333334,
      "d": 276.04166666665697,
      "v": 124
    },
    {
      "midi": 52,
      "hit": false,
      "t": 153997.39583333334,
      "d": 52.083333333343035,
      "v": 95
    },
    {
      "midi": 67,
      "hit": false,
      "t": 154000.00000000003,
      "d": 1953.125000000029,
      "v": 95
    },
    {
      "midi": 91,
      "hit": false,
      "t": 154000.00000000003,
      "d": 2010.416666666686,
      "v": 93
    },
    {
      "midi": 71,
      "hit": false,
      "t": 154002.6041666666,
      "d": 375,
      "v": 113
    },
    {
      "midi": 52,
      "hit": false,
      "t": 154122.39583333334,
      "d": 65.10416666665697,
      "v": 95
    },
    {
      "midi": 52,
      "hit": false,
      "t": 154247.39583333334,
      "d": 52.083333333343035,
      "v": 95
    },
    {
      "midi": 67,
      "hit": false,
      "t": 154374.99999999994,
      "d": 375,
      "v": 113
    },
    {
      "midi": 52,
      "hit": false,
      "t": 154375.00000000003,
      "d": 62.5,
      "v": 95
    },
    {
      "midi": 28,
      "hit": false,
      "t": 154497.39583333334,
      "d": 247.39583333334303,
      "v": 124
    },
    {
      "midi": 52,
      "hit": false,
      "t": 154497.39583333337,
      "d": 54.6875,
      "v": 95
    },
    {
      "midi": 52,
      "hit": false,
      "t": 154622.39583333337,
      "d": 70.3125,
      "v": 95
    },
    {
      "midi": 52,
      "hit": false,
      "t": 154747.39583333337,
      "d": 49.479166666656965,
      "v": 95
    },
    {
      "midi": 64,
      "hit": false,
      "t": 154752.6041666666,
      "d": 611.979166666657,
      "v": 111
    },
    {
      "midi": 52,
      "hit": false,
      "t": 154869.7916666667,
      "d": 70.3125,
      "v": 95
    },
    {
      "midi": 28,
      "hit": false,
      "t": 154872.39583333334,
      "d": 59.895833333343035,
      "v": 124
    },
    {
      "midi": 28,
      "hit": false,
      "t": 154997.39583333334,
      "d": 130.20833333334303,
      "v": 124
    },
    {
      "midi": 52,
      "hit": false,
      "t": 154997.39583333334,
      "d": 49.479166666656965,
      "v": 95
    },
    {
      "midi": 52,
      "hit": false,
      "t": 155122.39583333334,
      "d": 62.5,
      "v": 95
    },
    {
      "midi": 28,
      "hit": false,
      "t": 155247.39583333334,
      "d": 122.39583333334303,
      "v": 124
    },
    {
      "midi": 52,
      "hit": false,
      "t": 155247.39583333334,
      "d": 54.6875,
      "v": 95
    },
    {
      "midi": 52,
      "hit": false,
      "t": 155369.7916666667,
      "d": 70.3125,
      "v": 95
    },
    {
      "midi": 28,
      "hit": false,
      "t": 155497.39583333334,
      "d": 130.20833333334303,
      "v": 124
    },
    {
      "midi": 52,
      "hit": false,
      "t": 155497.39583333334,
      "d": 57.291666666656965,
      "v": 95
    },
    {
      "midi": 64,
      "hit": false,
      "t": 155505.2083333333,
      "d": 364.58333333334303,
      "v": 119
    },
    {
      "midi": 52,
      "hit": false,
      "t": 155505.2083333333,
      "d": 494.79166666668607,
      "v": 119
    },
    {
      "midi": 52,
      "hit": false,
      "t": 155625,
      "d": 44.270833333343035,
      "v": 95
    },
    {
      "midi": 28,
      "hit": false,
      "t": 155747.39583333334,
      "d": 125,
      "v": 124
    },
    {
      "midi": 52,
      "hit": false,
      "t": 155747.39583333334,
      "d": 52.083333333343035,
      "v": 95
    },
    {
      "midi": 52,
      "hit": false,
      "t": 155872.39583333334,
      "d": 67.70833333334303,
      "v": 95
    },
    {
      "midi": 53,
      "hit": false,
      "t": 155997.39583333334,
      "d": 57.291666666656965,
      "v": 95
    },
    {
      "midi": 65,
      "hit": false,
      "t": 155997.3958333334,
      "d": 1867.1875,
      "v": 80
    },
    {
      "midi": 69,
      "hit": false,
      "t": 155997.3958333334,
      "d": 2000,
      "v": 86
    },
    {
      "midi": 48,
      "hit": false,
      "t": 155997.3958333334,
      "d": 4023.4375,
      "v": 74
    },
    {
      "midi": 65,
      "hit": false,
      "t": 156002.60416666666,
      "d": 1304.6875,
      "v": 115
    },
    {
      "midi": 72,
      "hit": false,
      "t": 156002.60416666666,
      "d": 1322.916666666686,
      "v": 86
    },
    {
      "midi": 29,
      "hit": false,
      "t": 156002.6041666667,
      "d": 325.52083333334303,
      "v": 124
    },
    {
      "midi": 60,
      "hit": false,
      "t": 156002.60416666674,
      "d": 3809.895833333314,
      "v": 97
    },
    {
      "midi": 69,
      "hit": false,
      "t": 156005.2083333333,
      "d": 1307.291666666686,
      "v": 119
    },
    {
      "midi": 53,
      "hit": false,
      "t": 156005.2083333333,
      "d": 1325.5208333333721,
      "v": 119
    },
    {
      "midi": 89,
      "hit": false,
      "t": 156005.20833333337,
      "d": 2007.8125,
      "v": 95
    },
    {
      "midi": 53,
      "hit": false,
      "t": 156122.39583333334,
      "d": 59.895833333343035,
      "v": 95
    },
    {
      "midi": 53,
      "hit": false,
      "t": 156247.39583333334,
      "d": 54.6875,
      "v": 95
    },
    {
      "midi": 53,
      "hit": false,
      "t": 156372.39583333334,
      "d": 59.895833333343035,
      "v": 95
    },
    {
      "midi": 53,
      "hit": false,
      "t": 156497.39583333334,
      "d": 52.083333333343035,
      "v": 95
    },
    {
      "midi": 29,
      "hit": false,
      "t": 156502.6041666667,
      "d": 236.97916666665697,
      "v": 124
    },
    {
      "midi": 53,
      "hit": false,
      "t": 156627.6041666667,
      "d": 59.895833333343035,
      "v": 95
    },
    {
      "midi": 53,
      "hit": false,
      "t": 156747.39583333337,
      "d": 54.6875,
      "v": 95
    },
    {
      "midi": 29,
      "hit": false,
      "t": 156872.39583333334,
      "d": 65.10416666665697,
      "v": 124
    },
    {
      "midi": 53,
      "hit": false,
      "t": 156875.00000000003,
      "d": 59.895833333343035,
      "v": 95
    },
    {
      "midi": 77,
      "hit": false,
      "t": 156880.2083333335,
      "d": 278.64583333334303,
      "v": 114
    },
    {
      "midi": 65,
      "hit": false,
      "t": 156880.2083333335,
      "d": 283.85416666668607,
      "v": 114
    },
    {
      "midi": 29,
      "hit": false,
      "t": 156997.39583333334,
      "d": 145.83333333334303,
      "v": 124
    },
    {
      "midi": 53,
      "hit": false,
      "t": 157000.00000000003,
      "d": 59.895833333343035,
      "v": 95
    },
    {
      "midi": 53,
      "hit": false,
      "t": 157127.60416666672,
      "d": 67.70833333334303,
      "v": 95
    },
    {
      "midi": 67,
      "hit": false,
      "t": 157130.2083333335,
      "d": 117.1875000000291,
      "v": 114
    },
    {
      "midi": 79,
      "hit": false,
      "t": 157130.2083333335,
      "d": 158.85416666668607,
      "v": 114
    },
    {
      "midi": 29,
      "hit": false,
      "t": 157252.6041666667,
      "d": 135.41666666665697,
      "v": 124
    },
    {
      "midi": 53,
      "hit": false,
      "t": 157252.60416666672,
      "d": 57.291666666656965,
      "v": 95
    },
    {
      "midi": 80,
      "hit": false,
      "t": 157255.20833333352,
      "d": 127.60416666662786,
      "v": 114
    },
    {
      "midi": 68,
      "hit": false,
      "t": 157255.20833333352,
      "d": 145.83333333328483,
      "v": 114
    },
    {
      "midi": 53,
      "hit": false,
      "t": 157372.39583333337,
      "d": 78.125,
      "v": 95
    },
    {
      "midi": 81,
      "hit": false,
      "t": 157377.60416666683,
      "d": 273.4374999999709,
      "v": 104
    },
    {
      "midi": 69,
      "hit": false,
      "t": 157380.2083333335,
      "d": 276.04166666665697,
      "v": 114
    },
    {
      "midi": 53,
      "hit": false,
      "t": 157497.39583333337,
      "d": 62.5,
      "v": 95
    },
    {
      "midi": 65,
      "hit": false,
      "t": 157502.6041666666,
      "d": 151.04166666665697,
      "v": 109
    },
    {
      "midi": 29,
      "hit": false,
      "t": 157502.6041666667,
      "d": 140.625,
      "v": 124
    },
    {
      "midi": 53,
      "hit": false,
      "t": 157627.60416666672,
      "d": 67.70833333334303,
      "v": 95
    },
    {
      "midi": 53,
      "hit": false,
      "t": 157747.3958333334,
      "d": 57.291666666656965,
      "v": 95
    },
    {
      "midi": 65,
      "hit": false,
      "t": 157749.9999999999,
      "d": 231.77083333334303,
      "v": 109
    },
    {
      "midi": 29,
      "hit": false,
      "t": 157752.6041666667,
      "d": 125,
      "v": 124
    },
    {
      "midi": 53,
      "hit": false,
      "t": 157872.3958333334,
      "d": 59.895833333343035,
      "v": 95
    },
    {
      "midi": 64,
      "hit": false,
      "t": 157994.79166666674,
      "d": 1846.354166666657,
      "v": 93
    },
    {
      "midi": 67,
      "hit": false,
      "t": 157994.79166666674,
      "d": 1960.9375,
      "v": 93
    },
    {
      "midi": 48,
      "hit": false,
      "t": 157997.3958333334,
      "d": 49.479166666656965,
      "v": 95
    },
    {
      "midi": 36,
      "hit": false,
      "t": 158002.6041666667,
      "d": 299.47916666665697,
      "v": 124
    },
    {
      "midi": 88,
      "hit": false,
      "t": 158002.60416666672,
      "d": 2031.25,
      "v": 97
    },
    {
      "midi": 64,
      "hit": false,
      "t": 158005.20833333326,
      "d": 500,
      "v": 109
    },
    {
      "midi": 48,
      "hit": false,
      "t": 158127.60416666672,
      "d": 62.5,
      "v": 95
    },
    {
      "midi": 48,
      "hit": false,
      "t": 158247.39583333337,
      "d": 49.479166666656965,
      "v": 95
    },
    {
      "midi": 48,
      "hit": false,
      "t": 158372.39583333337,
      "d": 59.895833333343035,
      "v": 95
    },
    {
      "midi": 67,
      "hit": false,
      "t": 158499.9999999999,
      "d": 250,
      "v": 109
    },
    {
      "midi": 48,
      "hit": false,
      "t": 158500.00000000006,
      "d": 52.083333333343035,
      "v": 95
    },
    {
      "midi": 36,
      "hit": false,
      "t": 158502.6041666667,
      "d": 213.54166666665697,
      "v": 124
    },
    {
      "midi": 48,
      "hit": false,
      "t": 158627.60416666674,
      "d": 65.10416666665697,
      "v": 95
    },
    {
      "midi": 48,
      "hit": false,
      "t": 158752.60416666674,
      "d": 52.083333333343035,
      "v": 95
    },
    {
      "midi": 72,
      "hit": false,
      "t": 158755.20833333326,
      "d": 848.958333333343,
      "v": 109
    },
    {
      "midi": 36,
      "hit": false,
      "t": 158872.39583333334,
      "d": 57.291666666656965,
      "v": 124
    },
    {
      "midi": 48,
      "hit": false,
      "t": 158877.60416666674,
      "d": 62.5,
      "v": 95
    },
    {
      "midi": 36,
      "hit": false,
      "t": 158997.39583333334,
      "d": 138.02083333334303,
      "v": 124
    },
    {
      "midi": 48,
      "hit": false,
      "t": 159002.60416666674,
      "d": 54.6875,
      "v": 95
    },
    {
      "midi": 48,
      "hit": false,
      "t": 159127.60416666674,
      "d": 67.70833333334303,
      "v": 95
    },
    {
      "midi": 36,
      "hit": false,
      "t": 159250.00000000003,
      "d": 119.79166666665697,
      "v": 124
    },
    {
      "midi": 48,
      "hit": false,
      "t": 159252.60416666674,
      "d": 54.6875,
      "v": 95
    },
    {
      "midi": 48,
      "hit": false,
      "t": 159377.60416666674,
      "d": 78.125,
      "v": 95
    },
    {
      "midi": 36,
      "hit": false,
      "t": 159502.6041666667,
      "d": 140.625,
      "v": 124
    },
    {
      "midi": 48,
      "hit": false,
      "t": 159502.60416666674,
      "d": 54.6875,
      "v": 95
    },
    {
      "midi": 60,
      "hit": false,
      "t": 159505.20833333334,
      "d": 328.125,
      "v": 117
    },
    {
      "midi": 72,
      "hit": false,
      "t": 159505.20833333334,
      "d": 335.9375,
      "v": 117
    },
    {
      "midi": 48,
      "hit": false,
      "t": 159627.60416666674,
      "d": 70.3125,
      "v": 95
    },
    {
      "midi": 36,
      "hit": false,
      "t": 159750.00000000003,
      "d": 135.41666666665697,
      "v": 124
    },
    {
      "midi": 48,
      "hit": false,
      "t": 159752.60416666674,
      "d": 54.6875,
      "v": 95
    },
    {
      "midi": 48,
      "hit": false,
      "t": 159877.60416666674,
      "d": 70.3125,
      "v": 95
    },
    {
      "midi": 62,
      "hit": false,
      "t": 159994.79166666674,
      "d": 1890.625,
      "v": 72
    },
    {
      "midi": 65,
      "hit": false,
      "t": 159997.39583333334,
      "d": 250,
      "v": 109
    },
    {
      "midi": 65,
      "hit": false,
      "t": 159997.3958333334,
      "d": 1820.3125,
      "v": 97
    },
    {
      "midi": 50,
      "hit": false,
      "t": 159997.3958333334,
      "d": 2005.208333333343,
      "v": 97
    },
    {
      "midi": 69,
      "hit": false,
      "t": 159997.3958333334,
      "d": 2018.229166666686,
      "v": 97
    },
    {
      "midi": 38,
      "hit": false,
      "t": 160002.6041666667,
      "d": 315.10416666665697,
      "v": 124
    },
    {
      "midi": 69,
      "hit": false,
      "t": 160002.6041666667,
      "d": 250,
      "v": 117
    },
    {
      "midi": 72,
      "hit": false,
      "t": 160002.6041666667,
      "d": 250,
      "v": 117
    },
    {
      "midi": 53,
      "hit": false,
      "t": 160002.6041666667,
      "d": 1328.125,
      "v": 117
    },
    {
      "midi": 86,
      "hit": false,
      "t": 160002.60416666672,
      "d": 2039.0625,
      "v": 95
    },
    {
      "midi": 50,
      "hit": false,
      "t": 160002.60416666674,
      "d": 57.291666666656965,
      "v": 95
    },
    {
      "midi": 50,
      "hit": false,
      "t": 160127.60416666674,
      "d": 59.895833333343035,
      "v": 95
    },
    {
      "midi": 50,
      "hit": false,
      "t": 160247.39583333343,
      "d": 46.875,
      "v": 95
    },
    {
      "midi": 77,
      "hit": false,
      "t": 160250.00000000015,
      "d": 187.5,
      "v": 98
    },
    {
      "midi": 81,
      "hit": false,
      "t": 160252.6041666668,
      "d": 192.70833333334303,
      "v": 120
    },
    {
      "midi": 50,
      "hit": false,
      "t": 160372.39583333343,
      "d": 65.10416666665697,
      "v": 95
    },
    {
      "midi": 38,
      "hit": false,
      "t": 160497.39583333334,
      "d": 239.58333333334303,
      "v": 124
    },
    {
      "midi": 50,
      "hit": false,
      "t": 160497.39583333343,
      "d": 52.083333333343035,
      "v": 95
    },
    {
      "midi": 50,
      "hit": false,
      "t": 160627.60416666677,
      "d": 62.5,
      "v": 95
    },
    {
      "midi": 79,
      "hit": false,
      "t": 160630.2083333335,
      "d": 197.91666666665697,
      "v": 121
    },
    {
      "midi": 83,
      "hit": false,
      "t": 160630.2083333335,
      "d": 200.52083333331393,
      "v": 121
    },
    {
      "midi": 50,
      "hit": false,
      "t": 160747.39583333343,
      "d": 52.083333333343035,
      "v": 93
    },
    {
      "midi": 72,
      "hit": false,
      "t": 160752.6041666667,
      "d": 335.9375,
      "v": 118
    },
    {
      "midi": 69,
      "hit": false,
      "t": 160752.6041666667,
      "d": 385.41666666665697,
      "v": 118
    },
    {
      "midi": 38,
      "hit": false,
      "t": 160872.39583333334,
      "d": 65.10416666665697,
      "v": 124
    },
    {
      "midi": 50,
      "hit": false,
      "t": 160872.39583333343,
      "d": 70.3125,
      "v": 93
    },
    {
      "midi": 38,
      "hit": false,
      "t": 160997.39583333334,
      "d": 138.02083333334303,
      "v": 124
    },
    {
      "midi": 50,
      "hit": false,
      "t": 160997.39583333343,
      "d": 54.6875,
      "v": 93
    },
    {
      "midi": 81,
      "hit": false,
      "t": 161000.00000000015,
      "d": 226.5625,
      "v": 121
    },
    {
      "midi": 84,
      "hit": false,
      "t": 161000.00000000015,
      "d": 244.79166666665697,
      "v": 121
    },
    {
      "midi": 50,
      "hit": false,
      "t": 161125.0000000001,
      "d": 57.291666666656965,
      "v": 93
    },
    {
      "midi": 38,
      "hit": false,
      "t": 161247.39583333334,
      "d": 125,
      "v": 124
    },
    {
      "midi": 72,
      "hit": false,
      "t": 161247.39583333334,
      "d": 286.45833333334303,
      "v": 114
    },
    {
      "midi": 69,
      "hit": false,
      "t": 161252.6041666667,
      "d": 164.0625,
      "v": 117
    },
    {
      "midi": 50,
      "hit": false,
      "t": 161252.60416666674,
      "d": 54.6875,
      "v": 93
    },
    {
      "midi": 50,
      "hit": false,
      "t": 161372.3958333334,
      "d": 65.10416666665697,
      "v": 93
    },
    {
      "midi": 38,
      "hit": false,
      "t": 161497.39583333334,
      "d": 153.64583333334303,
      "v": 124
    },
    {
      "midi": 50,
      "hit": false,
      "t": 161502.60416666672,
      "d": 54.6875,
      "v": 93
    },
    {
      "midi": 69,
      "hit": false,
      "t": 161505.20833333334,
      "d": 151.04166666668607,
      "v": 117
    },
    {
      "midi": 50,
      "hit": false,
      "t": 161627.60416666672,
      "d": 31.25,
      "v": 93
    },
    {
      "midi": 38,
      "hit": false,
      "t": 161747.39583333334,
      "d": 125,
      "v": 124
    },
    {
      "midi": 72,
      "hit": false,
      "t": 161747.39583333337,
      "d": 320.3125,
      "v": 114
    },
    {
      "midi": 50,
      "hit": false,
      "t": 161752.60416666672,
      "d": 46.875,
      "v": 93
    },
    {
      "midi": 69,
      "hit": false,
      "t": 161755.20833333337,
      "d": 148.4375,
      "v": 117
    },
    {
      "midi": 50,
      "hit": false,
      "t": 161877.60416666672,
      "d": 70.3125,
      "v": 93
    },
    {
      "midi": 71,
      "hit": false,
      "t": 161994.79166666674,
      "d": 1846.354166666686,
      "v": 74
    },
    {
      "midi": 67,
      "hit": false,
      "t": 161994.79166666674,
      "d": 1848.958333333343,
      "v": 92
    },
    {
      "midi": 62,
      "hit": false,
      "t": 161994.79166666674,
      "d": 1872.395833333343,
      "v": 72
    },
    {
      "midi": 55,
      "hit": false,
      "t": 161997.3958333334,
      "d": 1830.729166666686,
      "v": 95
    },
    {
      "midi": 43,
      "hit": false,
      "t": 162002.6041666667,
      "d": 354.16666666665697,
      "v": 124
    },
    {
      "midi": 67,
      "hit": false,
      "t": 162002.60416666672,
      "d": 421.875,
      "v": 115
    },
    {
      "midi": 88,
      "hit": false,
      "t": 162002.60416666672,
      "d": 546.875,
      "v": 97
    },
    {
      "midi": 55,
      "hit": false,
      "t": 162002.60416666672,
      "d": 54.6875,
      "v": 93
    },
    {
      "midi": 79,
      "hit": false,
      "t": 162002.6041666668,
      "d": 1997.395833333314,
      "v": 121
    },
    {
      "midi": 76,
      "hit": false,
      "t": 162005.20833333337,
      "d": 390.625,
      "v": 117
    },
    {
      "midi": 67,
      "hit": false,
      "t": 162005.20833333346,
      "d": 1984.375,
      "v": 127
    },
    {
      "midi": 55,
      "hit": false,
      "t": 162127.60416666672,
      "d": 59.895833333343035,
      "v": 93
    },
    {
      "midi": 55,
      "hit": false,
      "t": 162252.60416666672,
      "d": 44.270833333343035,
      "v": 93
    },
    {
      "midi": 77,
      "hit": false,
      "t": 162377.60416666672,
      "d": 380.20833333334303,
      "v": 117
    },
    {
      "midi": 55,
      "hit": false,
      "t": 162377.60416666672,
      "d": 62.5,
      "v": 93
    },
    {
      "midi": 43,
      "hit": false,
      "t": 162502.6041666667,
      "d": 260.41666666665697,
      "v": 124
    },
    {
      "midi": 67,
      "hit": false,
      "t": 162502.60416666672,
      "d": 140.625,
      "v": 117
    },
    {
      "midi": 89,
      "hit": false,
      "t": 162502.60416666672,
      "d": 289.0625,
      "v": 95
    },
    {
      "midi": 55,
      "hit": false,
      "t": 162502.60416666672,
      "d": 46.875,
      "v": 93
    },
    {
      "midi": 55,
      "hit": false,
      "t": 162627.60416666672,
      "d": 54.6875,
      "v": 93
    },
    {
      "midi": 74,
      "hit": false,
      "t": 162747.39583333337,
      "d": 966.145833333343,
      "v": 114
    },
    {
      "midi": 67,
      "hit": false,
      "t": 162752.60416666672,
      "d": 950.520833333343,
      "v": 117
    },
    {
      "midi": 86,
      "hit": false,
      "t": 162752.60416666672,
      "d": 1093.75,
      "v": 95
    },
    {
      "midi": 55,
      "hit": false,
      "t": 162752.60416666672,
      "d": 54.6875,
      "v": 93
    },
    {
      "midi": 43,
      "hit": false,
      "t": 162877.6041666667,
      "d": 70.3125,
      "v": 124
    },
    {
      "midi": 55,
      "hit": false,
      "t": 162877.60416666672,
      "d": 59.895833333343035,
      "v": 93
    },
    {
      "midi": 55,
      "hit": false,
      "t": 163002.60416666672,
      "d": 54.6875,
      "v": 93
    },
    {
      "midi": 43,
      "hit": false,
      "t": 163005.20833333334,
      "d": 231.77083333334303,
      "v": 124
    },
    {
      "midi": 55,
      "hit": false,
      "t": 163127.60416666672,
      "d": 62.5,
      "v": 93
    },
    {
      "midi": 41,
      "hit": false,
      "t": 163252.6041666667,
      "d": 236.97916666665697,
      "v": 124
    },
    {
      "midi": 55,
      "hit": false,
      "t": 163252.60416666672,
      "d": 54.6875,
      "v": 93
    },
    {
      "midi": 55,
      "hit": false,
      "t": 163377.60416666672,
      "d": 52.083333333343035,
      "v": 93
    },
    {
      "midi": 40,
      "hit": false,
      "t": 163500,
      "d": 317.70833333331393,
      "v": 124
    },
    {
      "midi": 55,
      "hit": false,
      "t": 163502.60416666672,
      "d": 52.083333333343035,
      "v": 93
    },
    {
      "midi": 55,
      "hit": false,
      "t": 163627.60416666672,
      "d": 62.5,
      "v": 93
    },
    {
      "midi": 38,
      "hit": false,
      "t": 163752.60416666666,
      "d": 289.0625,
      "v": 124
    },
    {
      "midi": 55,
      "hit": false,
      "t": 163752.60416666672,
      "d": 46.875,
      "v": 93
    },
    {
      "midi": 55,
      "hit": false,
      "t": 163875.00000000006,
      "d": 46.875,
      "v": 93
    },
    {
      "midi": 40,
      "hit": false,
      "t": 164002.60416666666,
      "d": 281.25,
      "v": 122
    },
    {
      "midi": 67,
      "hit": false,
      "t": 164005.20833333343,
      "d": 1833.333333333343,
      "v": 95
    },
    {
      "midi": 64,
      "hit": false,
      "t": 164005.20833333343,
      "d": 1864.583333333343,
      "v": 95
    },
    {
      "midi": 71,
      "hit": false,
      "t": 164005.20833333343,
      "d": 1911.458333333343,
      "v": 95
    },
    {
      "midi": 62,
      "hit": false,
      "t": 164247.39583333334,
      "d": 171.875,
      "v": 111
    },
    {
      "midi": 40,
      "hit": false,
      "t": 164497.3958333333,
      "d": 226.5625,
      "v": 123
    },
    {
      "midi": 67,
      "hit": false,
      "t": 164502.6041666667,
      "d": 177.08333333334303,
      "v": 112
    },
    {
      "midi": 62,
      "hit": false,
      "t": 164752.6041666667,
      "d": 226.5625,
      "v": 112
    },
    {
      "midi": 40,
      "hit": false,
      "t": 164872.3958333333,
      "d": 62.5,
      "v": 123
    },
    {
      "midi": 59,
      "hit": false,
      "t": 165002.6041666666,
      "d": 398.4375,
      "v": 109
    },
    {
      "midi": 40,
      "hit": false,
      "t": 165002.60416666666,
      "d": 164.0625,
      "v": 123
    },
    {
      "midi": 40,
      "hit": false,
      "t": 165252.60416666666,
      "d": 127.60416666665697,
      "v": 123
    },
    {
      "midi": 57,
      "hit": false,
      "t": 165377.6041666666,
      "d": 375,
      "v": 109
    },
    {
      "midi": 40,
      "hit": false,
      "t": 165502.60416666666,
      "d": 132.8125,
      "v": 122
    },
    {
      "midi": 59,
      "hit": false,
      "t": 165747.39583333326,
      "d": 328.125,
      "v": 109
    },
    {
      "midi": 40,
      "hit": false,
      "t": 165752.60416666666,
      "d": 205.72916666665697,
      "v": 122
    },
    {
      "midi": 33,
      "hit": false,
      "t": 166002.60416666666,
      "d": 356.77083333334303,
      "v": 122
    },
    {
      "midi": 72,
      "hit": false,
      "t": 166002.60416666677,
      "d": 1817.708333333343,
      "v": 97
    },
    {
      "midi": 64,
      "hit": false,
      "t": 166002.60416666677,
      "d": 1875,
      "v": 97
    },
    {
      "midi": 69,
      "hit": false,
      "t": 166002.60416666677,
      "d": 1901.041666666657,
      "v": 97
    },
    {
      "midi": 60,
      "hit": false,
      "t": 166005.20833333326,
      "d": 375,
      "v": 109
    },
    {
      "midi": 59,
      "hit": false,
      "t": 166377.6041666666,
      "d": 382.8125,
      "v": 109
    },
    {
      "midi": 33,
      "hit": false,
      "t": 166502.60416666666,
      "d": 234.375,
      "v": 122
    },
    {
      "midi": 57,
      "hit": false,
      "t": 166747.39583333326,
      "d": 789.0625,
      "v": 109
    },
    {
      "midi": 33,
      "hit": false,
      "t": 166877.60416666666,
      "d": 67.70833333334303,
      "v": 122
    },
    {
      "midi": 33,
      "hit": false,
      "t": 167002.60416666666,
      "d": 161.45833333334303,
      "v": 122
    },
    {
      "midi": 33,
      "hit": false,
      "t": 167252.60416666666,
      "d": 153.64583333334303,
      "v": 122
    },
    {
      "midi": 33,
      "hit": false,
      "t": 167502.60416666666,
      "d": 151.04166666665697,
      "v": 122
    },
    {
      "midi": 52,
      "hit": false,
      "t": 167752.6041666666,
      "d": 278.64583333331393,
      "v": 109
    },
    {
      "midi": 33,
      "hit": false,
      "t": 167752.60416666666,
      "d": 171.875,
      "v": 122
    },
    {
      "midi": 29,
      "hit": false,
      "t": 168000,
      "d": 372.39583333334303,
      "v": 122
    },
    {
      "midi": 65,
      "hit": false,
      "t": 168002.60416666677,
      "d": 1880.208333333343,
      "v": 97
    },
    {
      "midi": 60,
      "hit": false,
      "t": 168002.60416666677,
      "d": 1895.833333333343,
      "v": 97
    },
    {
      "midi": 69,
      "hit": false,
      "t": 168002.60416666677,
      "d": 1916.666666666686,
      "v": 97
    },
    {
      "midi": 55,
      "hit": false,
      "t": 168005.20833333326,
      "d": 822.916666666657,
      "v": 109
    },
    {
      "midi": 60,
      "hit": false,
      "t": 168247.39583333334,
      "d": 151.04166666665697,
      "v": 114
    },
    {
      "midi": 72,
      "hit": false,
      "t": 168497.39583333337,
      "d": 148.4375,
      "v": 111
    },
    {
      "midi": 67,
      "hit": false,
      "t": 168502.60416666666,
      "d": 190.10416666665697,
      "v": 114
    },
    {
      "midi": 29,
      "hit": false,
      "t": 168502.6041666667,
      "d": 281.25,
      "v": 122
    },
    {
      "midi": 60,
      "hit": false,
      "t": 168502.60416666672,
      "d": 101.5625,
      "v": 112
    },
    {
      "midi": 60,
      "hit": false,
      "t": 168752.60416666666,
      "d": 221.35416666665697,
      "v": 112
    },
    {
      "midi": 60,
      "hit": false,
      "t": 168752.60416666672,
      "d": 234.375,
      "v": 112
    },
    {
      "midi": 72,
      "hit": false,
      "t": 168752.60416666672,
      "d": 270.83333333334303,
      "v": 112
    },
    {
      "midi": 29,
      "hit": false,
      "t": 168877.6041666667,
      "d": 70.3125,
      "v": 122
    },
    {
      "midi": 29,
      "hit": false,
      "t": 169002.6041666667,
      "d": 148.4375,
      "v": 122
    },
    {
      "midi": 29,
      "hit": false,
      "t": 169252.6041666667,
      "d": 130.20833333334303,
      "v": 122
    },
    {
      "midi": 53,
      "hit": false,
      "t": 169255.20833333326,
      "d": 408.85416666665697,
      "v": 109
    },
    {
      "midi": 29,
      "hit": false,
      "t": 169502.6041666667,
      "d": 151.04166666665697,
      "v": 122
    },
    {
      "midi": 57,
      "hit": false,
      "t": 169630.20833333326,
      "d": 361.97916666665697,
      "v": 109
    },
    {
      "midi": 29,
      "hit": false,
      "t": 169750,
      "d": 169.27083333334303,
      "v": 122
    },
    {
      "midi": 55,
      "hit": false,
      "t": 170002.60416666657,
      "d": 388.02083333334303,
      "v": 109
    },
    {
      "midi": 36,
      "hit": false,
      "t": 170002.6041666667,
      "d": 341.14583333334303,
      "v": 122
    },
    {
      "midi": 60,
      "hit": false,
      "t": 170002.6041666668,
      "d": 1851.5625,
      "v": 97
    },
    {
      "midi": 64,
      "hit": false,
      "t": 170002.6041666668,
      "d": 1854.166666666657,
      "v": 97
    },
    {
      "midi": 67,
      "hit": false,
      "t": 170002.6041666668,
      "d": 1903.645833333314,
      "v": 97
    },
    {
      "midi": 53,
      "hit": false,
      "t": 170377.60416666657,
      "d": 377.60416666665697,
      "v": 109
    },
    {
      "midi": 71,
      "hit": false,
      "t": 170500.00000000006,
      "d": 1000,
      "v": 114
    },
    {
      "midi": 36,
      "hit": false,
      "t": 170502.6041666667,
      "d": 213.54166666665697,
      "v": 122
    },
    {
      "midi": 64,
      "hit": false,
      "t": 170505.2083333334,
      "d": 1445.3125,
      "v": 106
    },
    {
      "midi": 67,
      "hit": false,
      "t": 170505.2083333334,
      "d": 1473.958333333343,
      "v": 106
    },
    {
      "midi": 52,
      "hit": false,
      "t": 170752.60416666657,
      "d": 609.375,
      "v": 109
    },
    {
      "midi": 36,
      "hit": false,
      "t": 170872.39583333334,
      "d": 67.70833333334303,
      "v": 122
    },
    {
      "midi": 36,
      "hit": false,
      "t": 171002.6041666667,
      "d": 135.41666666665697,
      "v": 122
    },
    {
      "midi": 72,
      "hit": false,
      "t": 171002.60416666674,
      "d": 1026.041666666657,
      "v": 121
    },
    {
      "midi": 36,
      "hit": false,
      "t": 171252.6041666667,
      "d": 143.22916666665697,
      "v": 122
    },
    {
      "midi": 38,
      "hit": false,
      "t": 171497.39583333334,
      "d": 153.64583333334303,
      "v": 122
    },
    {
      "midi": 76,
      "hit": false,
      "t": 171497.3958333334,
      "d": 531.25,
      "v": 127
    },
    {
      "midi": 38,
      "hit": false,
      "t": 171747.39583333334,
      "d": 234.375,
      "v": 122
    },
    {
      "midi": 64,
      "hit": false,
      "t": 171986.97916666674,
      "d": 1955.729166666657,
      "v": 115
    },
    {
      "midi": 40,
      "hit": false,
      "t": 171997.39583333334,
      "d": 377.60416666665697,
      "v": 122
    },
    {
      "midi": 52,
      "hit": false,
      "t": 171997.3958333334,
      "d": 1942.708333333343,
      "v": 112
    },
    {
      "midi": 71,
      "hit": false,
      "t": 172002.60416666677,
      "d": 1945.312499999971,
      "v": 78
    },
    {
      "midi": 67,
      "hit": false,
      "t": 172005.20833333343,
      "d": 1869.791666666657,
      "v": 98
    },
    {
      "midi": 64,
      "hit": false,
      "t": 172005.20833333343,
      "d": 1880.208333333314,
      "v": 98
    },
    {
      "midi": 62,
      "hit": false,
      "t": 172252.60416666666,
      "d": 164.0625,
      "v": 112
    },
    {
      "midi": 40,
      "hit": false,
      "t": 172502.60416666666,
      "d": 229.16666666665697,
      "v": 122
    },
    {
      "midi": 67,
      "hit": false,
      "t": 172502.60416666666,
      "d": 174.47916666665697,
      "v": 112
    },
    {
      "midi": 62,
      "hit": false,
      "t": 172755.2083333333,
      "d": 190.10416666665697,
      "v": 112
    },
    {
      "midi": 40,
      "hit": false,
      "t": 172872.3958333333,
      "d": 65.10416666665697,
      "v": 122
    },
    {
      "midi": 59,
      "hit": false,
      "t": 172997.39583333323,
      "d": 419.27083333334303,
      "v": 111
    },
    {
      "midi": 40,
      "hit": false,
      "t": 172999.99999999997,
      "d": 156.25,
      "v": 122
    },
    {
      "midi": 40,
      "hit": false,
      "t": 173252.60416666663,
      "d": 151.04166666665697,
      "v": 122
    },
    {
      "midi": 57,
      "hit": false,
      "t": 173377.60416666657,
      "d": 372.39583333331393,
      "v": 111
    },
    {
      "midi": 40,
      "hit": false,
      "t": 173499.99999999994,
      "d": 143.22916666665697,
      "v": 122
    },
    {
      "midi": 55,
      "hit": false,
      "t": 173500.00000000006,
      "d": 388.02083333334303,
      "v": 121
    },
    {
      "midi": 67,
      "hit": false,
      "t": 173505.2083333334,
      "d": 388.02083333334303,
      "v": 120
    },
    {
      "midi": 59,
      "hit": false,
      "t": 173747.39583333323,
      "d": 361.97916666665697,
      "v": 111
    },
    {
      "midi": 40,
      "hit": false,
      "t": 173752.6041666666,
      "d": 231.77083333334303,
      "v": 122
    },
    {
      "midi": 33,
      "hit": false,
      "t": 174002.6041666666,
      "d": 338.54166666665697,
      "v": 122
    },
    {
      "midi": 64,
      "hit": false,
      "t": 174002.60416666674,
      "d": 1903.645833333314,
      "v": 86
    },
    {
      "midi": 69,
      "hit": false,
      "t": 174002.60416666674,
      "d": 1914.062499999971,
      "v": 98
    },
    {
      "midi": 60,
      "hit": false,
      "t": 174005.20833333323,
      "d": 367.1875,
      "v": 111
    },
    {
      "midi": 72,
      "hit": false,
      "t": 174005.2083333334,
      "d": 1877.604166666657,
      "v": 95
    },
    {
      "midi": 59,
      "hit": false,
      "t": 174374.99999999988,
      "d": 406.25,
      "v": 111
    },
    {
      "midi": 33,
      "hit": false,
      "t": 174502.6041666666,
      "d": 231.77083333334303,
      "v": 122
    },
    {
      "midi": 57,
      "hit": false,
      "t": 174749.99999999988,
      "d": 695.3125,
      "v": 111
    },
    {
      "midi": 33,
      "hit": false,
      "t": 174872.39583333328,
      "d": 67.70833333334303,
      "v": 122
    },
    {
      "midi": 33,
      "hit": false,
      "t": 174997.39583333328,
      "d": 148.4375,
      "v": 122
    },
    {
      "midi": 33,
      "hit": false,
      "t": 175252.60416666663,
      "d": 140.625,
      "v": 122
    },
    {
      "midi": 33,
      "hit": false,
      "t": 175502.60416666663,
      "d": 156.25,
      "v": 122
    },
    {
      "midi": 57,
      "hit": false,
      "t": 175747.39583333323,
      "d": 291.66666666665697,
      "v": 111
    },
    {
      "midi": 33,
      "hit": false,
      "t": 175752.60416666663,
      "d": 236.97916666665697,
      "v": 122
    },
    {
      "midi": 26,
      "hit": false,
      "t": 176002.60416666663,
      "d": 398.4375,
      "v": 122
    },
    {
      "midi": 65,
      "hit": false,
      "t": 176002.60416666672,
      "d": 1874.999999999971,
      "v": 80
    },
    {
      "midi": 62,
      "hit": false,
      "t": 176002.60416666672,
      "d": 1893.2291666666279,
      "v": 78
    },
    {
      "midi": 60,
      "hit": false,
      "t": 176005.20833333323,
      "d": 1104.166666666657,
      "v": 111
    },
    {
      "midi": 72,
      "hit": false,
      "t": 176005.20833333337,
      "d": 1861.979166666657,
      "v": 98
    },
    {
      "midi": 69,
      "hit": false,
      "t": 176005.20833333337,
      "d": 1914.062499999971,
      "v": 98
    },
    {
      "midi": 57,
      "hit": false,
      "t": 176252.60416666663,
      "d": 190.10416666665697,
      "v": 112
    },
    {
      "midi": 26,
      "hit": false,
      "t": 176502.60416666663,
      "d": 216.14583333334303,
      "v": 122
    },
    {
      "midi": 60,
      "hit": false,
      "t": 176502.60416666663,
      "d": 171.875,
      "v": 112
    },
    {
      "midi": 60,
      "hit": false,
      "t": 176502.60416666674,
      "d": 153.64583333334303,
      "v": 117
    },
    {
      "midi": 72,
      "hit": false,
      "t": 176502.60416666674,
      "d": 164.0625,
      "v": 117
    },
    {
      "midi": 65,
      "hit": false,
      "t": 176752.60416666663,
      "d": 252.60416666665697,
      "v": 111
    },
    {
      "midi": 60,
      "hit": false,
      "t": 176752.60416666674,
      "d": 250,
      "v": 117
    },
    {
      "midi": 72,
      "hit": false,
      "t": 176752.60416666674,
      "d": 283.85416666665697,
      "v": 117
    },
    {
      "midi": 26,
      "hit": false,
      "t": 176872.3958333333,
      "d": 75.52083333334303,
      "v": 122
    },
    {
      "midi": 26,
      "hit": false,
      "t": 177002.60416666666,
      "d": 140.625,
      "v": 122
    },
    {
      "midi": 57,
      "hit": false,
      "t": 177247.39583333323,
      "d": 429.6875,
      "v": 111
    },
    {
      "midi": 26,
      "hit": false,
      "t": 177247.3958333333,
      "d": 130.20833333334303,
      "v": 122
    },
    {
      "midi": 26,
      "hit": false,
      "t": 177502.60416666666,
      "d": 127.60416666665697,
      "v": 122
    },
    {
      "midi": 60,
      "hit": false,
      "t": 177630.20833333323,
      "d": 437.5,
      "v": 111
    },
    {
      "midi": 26,
      "hit": false,
      "t": 177749.99999999997,
      "d": 171.875,
      "v": 122
    },
    {
      "midi": 64,
      "hit": false,
      "t": 177999.99999999988,
      "d": 343.75,
      "v": 111
    },
    {
      "midi": 31,
      "hit": false,
      "t": 177999.99999999997,
      "d": 231.77083333334303,
      "v": 122
    },
    {
      "midi": 71,
      "hit": false,
      "t": 178002.6041666667,
      "d": 1945.312499999971,
      "v": 80
    },
    {
      "midi": 62,
      "hit": false,
      "t": 178002.6041666667,
      "d": 1966.145833333314,
      "v": 80
    },
    {
      "midi": 67,
      "hit": false,
      "t": 178005.20833333334,
      "d": 1940.104166666657,
      "v": 98
    },
    {
      "midi": 43,
      "hit": false,
      "t": 178252.60416666666,
      "d": 195.3125,
      "v": 122
    },
    {
      "midi": 65,
      "hit": false,
      "t": 178377.60416666654,
      "d": 398.4375,
      "v": 111
    },
    {
      "midi": 29,
      "hit": false,
      "t": 178502.60416666666,
      "d": 244.79166666665697,
      "v": 122
    },
    {
      "midi": 57,
      "hit": false,
      "t": 178502.60416666674,
      "d": 518.229166666657,
      "v": 107
    },
    {
      "midi": 69,
      "hit": false,
      "t": 178502.60416666674,
      "d": 518.229166666657,
      "v": 107
    },
    {
      "midi": 41,
      "hit": false,
      "t": 178747.3958333333,
      "d": 200.52083333334303,
      "v": 122
    },
    {
      "midi": 62,
      "hit": false,
      "t": 178752.60416666654,
      "d": 945.3125,
      "v": 109
    },
    {
      "midi": 28,
      "hit": false,
      "t": 178997.3958333333,
      "d": 236.97916666665697,
      "v": 122
    },
    {
      "midi": 59,
      "hit": false,
      "t": 178997.3958333334,
      "d": 544.270833333343,
      "v": 117
    },
    {
      "midi": 71,
      "hit": false,
      "t": 179002.60416666674,
      "d": 557.291666666657,
      "v": 120
    },
    {
      "midi": 40,
      "hit": false,
      "t": 179247.3958333333,
      "d": 182.29166666665697,
      "v": 122
    },
    {
      "midi": 26,
      "hit": false,
      "t": 179497.3958333333,
      "d": 244.79166666665697,
      "v": 122
    },
    {
      "midi": 74,
      "hit": false,
      "t": 179502.60416666674,
      "d": 463.54166666665697,
      "v": 124
    },
    {
      "midi": 62,
      "hit": false,
      "t": 179502.60416666674,
      "d": 473.95833333331393,
      "v": 124
    },
    {
      "midi": 38,
      "hit": false,
      "t": 179747.3958333333,
      "d": 268.22916666665697,
      "v": 122
    },
    {
      "midi": 55,
      "hit": false,
      "t": 179877.60416666674,
      "d": 148.4374999999709,
      "v": 111
    },
    {
      "midi": 67,
      "hit": false,
      "t": 179877.60416666674,
      "d": 156.2499999999709,
      "v": 111
    },
    {
      "midi": 76,
      "hit": false,
      "t": 180000.00000000006,
      "d": 273.4375,
      "v": 78
    },
    {
      "midi": 67,
      "hit": false,
      "t": 180002.60416666666,
      "d": 1942.708333333343,
      "v": 98
    },
    {
      "midi": 72,
      "hit": false,
      "t": 180002.60416666666,
      "d": 1950.520833333343,
      "v": 98
    },
    {
      "midi": 64,
      "hit": false,
      "t": 180002.60416666666,
      "d": 1955.729166666686,
      "v": 98
    },
    {
      "midi": 48,
      "hit": false,
      "t": 180002.60416666666,
      "d": 2065.104166666686,
      "v": 98
    },
    {
      "midi": 64,
      "hit": false,
      "t": 180002.60416666672,
      "d": 257.8125,
      "v": 111
    },
    {
      "midi": 67,
      "hit": false,
      "t": 180252.60416666672,
      "d": 294.27083333334303,
      "v": 111
    },
    {
      "midi": 55,
      "hit": false,
      "t": 180252.60416666672,
      "d": 299.47916666668607,
      "v": 111
    },
    {
      "midi": 67,
      "hit": false,
      "t": 180997.39583333337,
      "d": 1625,
      "v": 97
    },
    {
      "midi": 79,
      "hit": false,
      "t": 181000.00000000003,
      "d": 1611.979166666686,
      "v": 97
    },
    {
      "midi": 76,
      "hit": false,
      "t": 181499.99999999988,
      "d": 250,
      "v": 113
    },
    {
      "midi": 72,
      "hit": false,
      "t": 181747.39583333323,
      "d": 333.33333333334303,
      "v": 113
    },
    {
      "midi": 62,
      "hit": false,
      "t": 182000,
      "d": 1799.479166666686,
      "v": 78
    },
    {
      "midi": 74,
      "hit": false,
      "t": 182005.20833333323,
      "d": 395.83333333334303,
      "v": 113
    },
    {
      "midi": 67,
      "hit": false,
      "t": 182005.20833333334,
      "d": 1861.979166666686,
      "v": 98
    },
    {
      "midi": 71,
      "hit": false,
      "t": 182005.20833333334,
      "d": 1861.979166666686,
      "v": 98
    },
    {
      "midi": 43,
      "hit": false,
      "t": 182005.20833333334,
      "d": 1984.375000000029,
      "v": 98
    },
    {
      "midi": 71,
      "hit": false,
      "t": 182380.20833333323,
      "d": 375,
      "v": 113
    },
    {
      "midi": 77,
      "hit": false,
      "t": 182505.20833333337,
      "d": 518.229166666657,
      "v": 95
    },
    {
      "midi": 65,
      "hit": false,
      "t": 182505.20833333337,
      "d": 544.2708333333139,
      "v": 95
    },
    {
      "midi": 67,
      "hit": false,
      "t": 182755.20833333323,
      "d": 783.854166666657,
      "v": 113
    },
    {
      "midi": 64,
      "hit": false,
      "t": 183002.60416666672,
      "d": 536.4583333333139,
      "v": 80
    },
    {
      "midi": 76,
      "hit": false,
      "t": 183005.20833333337,
      "d": 526.041666666657,
      "v": 95
    },
    {
      "midi": 62,
      "hit": false,
      "t": 183500.00000000003,
      "d": 570.3124999999709,
      "v": 64
    },
    {
      "midi": 74,
      "hit": false,
      "t": 183502.6041666667,
      "d": 544.2708333333139,
      "v": 95
    },
    {
      "midi": 59,
      "hit": false,
      "t": 183880.2083333334,
      "d": 119.79166666665697,
      "v": 111
    },
    {
      "midi": 71,
      "hit": false,
      "t": 183880.2083333334,
      "d": 127.60416666662786,
      "v": 111
    },
    {
      "midi": 72,
      "hit": false,
      "t": 184002.6041666667,
      "d": 929.6875,
      "v": 64
    },
    {
      "midi": 72,
      "hit": false,
      "t": 184002.60416666672,
      "d": 296.8749999999709,
      "v": 76
    },
    {
      "midi": 72,
      "hit": false,
      "t": 184002.60416666672,
      "d": 1921.875,
      "v": 97
    },
    {
      "midi": 64,
      "hit": false,
      "t": 184002.60416666672,
      "d": 1950.520833333343,
      "v": 97
    },
    {
      "midi": 69,
      "hit": false,
      "t": 184002.60416666672,
      "d": 1986.979166666686,
      "v": 97
    },
    {
      "midi": 45,
      "hit": false,
      "t": 184002.60416666672,
      "d": 1994.791666666686,
      "v": 97
    },
    {
      "midi": 60,
      "hit": false,
      "t": 184005.20833333334,
      "d": 921.875,
      "v": 95
    },
    {
      "midi": 60,
      "hit": false,
      "t": 184005.20833333337,
      "d": 252.60416666665697,
      "v": 111
    },
    {
      "midi": 69,
      "hit": false,
      "t": 184252.6041666667,
      "d": 330.72916666665697,
      "v": 111
    },
    {
      "midi": 57,
      "hit": false,
      "t": 184252.6041666667,
      "d": 338.54166666665697,
      "v": 111
    },
    {
      "midi": 76,
      "hit": false,
      "t": 185000.00000000003,
      "d": 1546.875,
      "v": 95
    },
    {
      "midi": 64,
      "hit": false,
      "t": 185000.00000000003,
      "d": 1549.479166666657,
      "v": 95
    },
    {
      "midi": 72,
      "hit": false,
      "t": 185502.60416666654,
      "d": 244.79166666665697,
      "v": 113
    },
    {
      "midi": 69,
      "hit": false,
      "t": 185752.60416666654,
      "d": 294.27083333334303,
      "v": 113
    },
    {
      "midi": 71,
      "hit": false,
      "t": 186000.00000000006,
      "d": 1833.333333333343,
      "v": 98
    },
    {
      "midi": 71,
      "hit": false,
      "t": 186002.60416666654,
      "d": 544.270833333343,
      "v": 113
    },
    {
      "midi": 64,
      "hit": false,
      "t": 186005.2083333334,
      "d": 1830.729166666657,
      "v": 98
    },
    {
      "midi": 67,
      "hit": false,
      "t": 186005.2083333334,
      "d": 1921.875,
      "v": 98
    },
    {
      "midi": 40,
      "hit": false,
      "t": 186005.2083333334,
      "d": 2002.604166666657,
      "v": 98
    },
    {
      "midi": 67,
      "hit": false,
      "t": 186505.20833333323,
      "d": 242.1875,
      "v": 113
    },
    {
      "midi": 74,
      "hit": false,
      "t": 186505.20833333337,
      "d": 539.0624999999709,
      "v": 97
    },
    {
      "midi": 62,
      "hit": false,
      "t": 186505.20833333337,
      "d": 549.4791666666279,
      "v": 97
    },
    {
      "midi": 64,
      "hit": false,
      "t": 186752.60416666657,
      "d": 611.979166666657,
      "v": 111
    },
    {
      "midi": 72,
      "hit": false,
      "t": 187005.20833333334,
      "d": 544.270833333343,
      "v": 97
    },
    {
      "midi": 60,
      "hit": false,
      "t": 187005.20833333334,
      "d": 552.083333333343,
      "v": 97
    },
    {
      "midi": 71,
      "hit": false,
      "t": 187505.20833333334,
      "d": 539.0625,
      "v": 97
    },
    {
      "midi": 59,
      "hit": false,
      "t": 187505.20833333334,
      "d": 559.895833333343,
      "v": 97
    },
    {
      "midi": 67,
      "hit": false,
      "t": 187880.20833333334,
      "d": 122.39583333334303,
      "v": 113
    },
    {
      "midi": 55,
      "hit": false,
      "t": 187880.20833333334,
      "d": 125,
      "v": 113
    },
    {
      "midi": 57,
      "hit": false,
      "t": 188002.6041666667,
      "d": 242.1875,
      "v": 113
    },
    {
      "midi": 69,
      "hit": false,
      "t": 188002.6041666667,
      "d": 247.39583333334303,
      "v": 113
    },
    {
      "midi": 60,
      "hit": false,
      "t": 188002.60416666674,
      "d": 1914.062499999971,
      "v": 76
    },
    {
      "midi": 69,
      "hit": false,
      "t": 188002.60416666674,
      "d": 2002.6041666666279,
      "v": 92
    },
    {
      "midi": 41,
      "hit": false,
      "t": 188002.60416666674,
      "d": 2072.916666666628,
      "v": 80
    },
    {
      "midi": 57,
      "hit": false,
      "t": 188005.20833333334,
      "d": 872.395833333343,
      "v": 97
    },
    {
      "midi": 69,
      "hit": false,
      "t": 188005.20833333334,
      "d": 901.0416666666861,
      "v": 97
    },
    {
      "midi": 65,
      "hit": false,
      "t": 188005.2083333334,
      "d": 1927.083333333314,
      "v": 95
    },
    {
      "midi": 60,
      "hit": false,
      "t": 188255.20833333337,
      "d": 307.29166666665697,
      "v": 117
    },
    {
      "midi": 48,
      "hit": false,
      "t": 188255.20833333337,
      "d": 328.125,
      "v": 117
    },
    {
      "midi": 72,
      "hit": false,
      "t": 189005.20833333337,
      "d": 992.1875,
      "v": 100
    },
    {
      "midi": 60,
      "hit": false,
      "t": 189005.20833333337,
      "d": 1041.666666666657,
      "v": 100
    },
    {
      "midi": 65,
      "hit": false,
      "t": 189502.60416666657,
      "d": 151.04166666665697,
      "v": 109
    },
    {
      "midi": 65,
      "hit": false,
      "t": 189749.99999999988,
      "d": 231.77083333334303,
      "v": 109
    },
    {
      "midi": 72,
      "hit": false,
      "t": 190000.00000000006,
      "d": 1757.812499999971,
      "v": 76
    },
    {
      "midi": 64,
      "hit": false,
      "t": 190000.00000000006,
      "d": 1776.0416666666279,
      "v": 104
    },
    {
      "midi": 48,
      "hit": false,
      "t": 190000.00000000006,
      "d": 1945.312499999971,
      "v": 86
    },
    {
      "midi": 67,
      "hit": false,
      "t": 190002.60416666672,
      "d": 1739.583333333314,
      "v": 95
    },
    {
      "midi": 64,
      "hit": false,
      "t": 190005.20833333323,
      "d": 416.66666666668607,
      "v": 109
    },
    {
      "midi": 67,
      "hit": false,
      "t": 190005.20833333337,
      "d": 1023.4374999999709,
      "v": 100
    },
    {
      "midi": 55,
      "hit": false,
      "t": 190005.20833333337,
      "d": 1028.645833333314,
      "v": 100
    },
    {
      "midi": 67,
      "hit": false,
      "t": 190377.60416666657,
      "d": 382.8125000000291,
      "v": 109
    },
    {
      "midi": 72,
      "hit": false,
      "t": 190755.20833333326,
      "d": 848.958333333343,
      "v": 109
    },
    {
      "midi": 76,
      "hit": false,
      "t": 191002.6041666667,
      "d": 2083.333333333343,
      "v": 72
    },
    {
      "midi": 64,
      "hit": false,
      "t": 191005.20833333334,
      "d": 2080.729166666686,
      "v": 100
    },
    {
      "midi": 59,
      "hit": false,
      "t": 191877.60416666672,
      "d": 101.5625,
      "v": 113
    },
    {
      "midi": 71,
      "hit": false,
      "t": 191877.60416666672,
      "d": 125,
      "v": 113
    },
    {
      "midi": 72,
      "hit": false,
      "t": 191997.39583333337,
      "d": 322.91666666668607,
      "v": 117
    },
    {
      "midi": 62,
      "hit": false,
      "t": 191997.39583333337,
      "d": 1927.083333333343,
      "v": 76
    },
    {
      "midi": 72,
      "hit": false,
      "t": 191997.39583333337,
      "d": 1937.5,
      "v": 78
    },
    {
      "midi": 69,
      "hit": false,
      "t": 191997.39583333337,
      "d": 1973.958333333343,
      "v": 98
    },
    {
      "midi": 50,
      "hit": false,
      "t": 191997.39583333337,
      "d": 2083.333333333343,
      "v": 86
    },
    {
      "midi": 60,
      "hit": false,
      "t": 192002.60416666672,
      "d": 289.0625,
      "v": 113
    },
    {
      "midi": 65,
      "hit": false,
      "t": 192002.60416666672,
      "d": 1914.0625,
      "v": 97
    },
    {
      "midi": 57,
      "hit": false,
      "t": 192252.60416666672,
      "d": 343.7500000000291,
      "v": 117
    },
    {
      "midi": 69,
      "hit": false,
      "t": 192255.20833333337,
      "d": 328.1250000000291,
      "v": 113
    },
    {
      "midi": 72,
      "hit": false,
      "t": 193119.7916666667,
      "d": 973.958333333343,
      "v": 74
    },
    {
      "midi": 60,
      "hit": false,
      "t": 193122.39583333334,
      "d": 958.333333333343,
      "v": 97
    },
    {
      "midi": 71,
      "hit": false,
      "t": 193497.39583333326,
      "d": 291.66666666668607,
      "v": 111
    },
    {
      "midi": 72,
      "hit": false,
      "t": 193752.6041666666,
      "d": 263.02083333334303,
      "v": 111
    },
    {
      "midi": 76,
      "hit": false,
      "t": 194005.20833333328,
      "d": 398.4375,
      "v": 111
    },
    {
      "midi": 62,
      "hit": false,
      "t": 194005.20833333334,
      "d": 1981.7708333332266,
      "v": 97
    },
    {
      "midi": 71,
      "hit": false,
      "t": 194005.20833333337,
      "d": 1908.854166666686,
      "v": 95
    },
    {
      "midi": 67,
      "hit": false,
      "t": 194005.20833333337,
      "d": 1919.270833333343,
      "v": 95
    },
    {
      "midi": 62,
      "hit": false,
      "t": 194005.20833333337,
      "d": 1934.895833333343,
      "v": 95
    },
    {
      "midi": 43,
      "hit": false,
      "t": 194005.20833333337,
      "d": 1953.125,
      "v": 95
    },
    {
      "midi": 77,
      "hit": false,
      "t": 194380.20833333328,
      "d": 369.79166666665697,
      "v": 111
    },
    {
      "midi": 74,
      "hit": false,
      "t": 194749.99999999994,
      "d": 906.25,
      "v": 111
    },
    {
      "midi": 79,
      "hit": false,
      "t": 195000.00000000003,
      "d": 161.45833333331393,
      "v": 97
    },
    {
      "midi": 67,
      "hit": false,
      "t": 195002.6041666667,
      "d": 161.45833333331393,
      "v": 92
    },
    {
      "midi": 81,
      "hit": false,
      "t": 195125.00000000003,
      "d": 156.2499999999709,
      "v": 98
    },
    {
      "midi": 69,
      "hit": false,
      "t": 195127.6041666667,
      "d": 156.2499999999709,
      "v": 95
    },
    {
      "midi": 83,
      "hit": false,
      "t": 195250,
      "d": 83.33333333331393,
      "v": 101
    },
    {
      "midi": 71,
      "hit": false,
      "t": 195252.60416666666,
      "d": 83.33333333331393,
      "v": 98
    },
    {
      "midi": 84,
      "hit": false,
      "t": 195369.79166666663,
      "d": 130.20833333331393,
      "v": 104
    },
    {
      "midi": 72,
      "hit": false,
      "t": 195372.39583333328,
      "d": 130.20833333331393,
      "v": 103
    },
    {
      "midi": 74,
      "hit": false,
      "t": 195497.39583333328,
      "d": 130.20833333331393,
      "v": 107
    },
    {
      "midi": 86,
      "hit": false,
      "t": 195499.99999999994,
      "d": 130.20833333331393,
      "v": 109
    },
    {
      "midi": 67,
      "hit": false,
      "t": 195502.60416666674,
      "d": 335.9375,
      "v": 115
    },
    {
      "midi": 55,
      "hit": false,
      "t": 195505.2083333334,
      "d": 463.54166666668607,
      "v": 114
    },
    {
      "midi": 76,
      "hit": false,
      "t": 195619.7916666666,
      "d": 127.60416666665697,
      "v": 109
    },
    {
      "midi": 88,
      "hit": false,
      "t": 195624.99999999994,
      "d": 127.60416666662786,
      "v": 114
    },
    {
      "midi": 77,
      "hit": false,
      "t": 195744.7916666666,
      "d": 171.8749999999709,
      "v": 114
    },
    {
      "midi": 89,
      "hit": false,
      "t": 195749.9999999999,
      "d": 171.875,
      "v": 118
    },
    {
      "midi": 79,
      "hit": false,
      "t": 195872.39583333323,
      "d": 174.47916666668607,
      "v": 118
    },
    {
      "midi": 91,
      "hit": false,
      "t": 195877.60416666657,
      "d": 174.47916666668607,
      "v": 123
    },
    {
      "midi": 72,
      "hit": false,
      "t": 196000.00000000003,
      "d": 1945.3125,
      "v": 95
    },
    {
      "midi": 76,
      "hit": false,
      "t": 196000.00000000003,
      "d": 2013.020833333343,
      "v": 95
    },
    {
      "midi": 67,
      "hit": false,
      "t": 196000.00000000003,
      "d": 3880.208333333343,
      "v": 92
    },
    {
      "midi": 55,
      "hit": false,
      "t": 196000.00000000003,
      "d": 4000.000000000029,
      "v": 95
    },
    {
      "midi": 96,
      "hit": false,
      "t": 196000.00000000006,
      "d": 1976.5625,
      "v": 95
    },
    {
      "midi": 72,
      "hit": false,
      "t": 196002.60416666674,
      "d": 1210.9375,
      "v": 98
    },
    {
      "midi": 67,
      "hit": false,
      "t": 196002.60416666674,
      "d": 1213.541666666657,
      "v": 109
    },
    {
      "midi": 76,
      "hit": false,
      "t": 196005.2083333334,
      "d": 1210.9375,
      "v": 114
    },
    {
      "midi": 60,
      "hit": false,
      "t": 196005.2083333334,
      "d": 1273.4375,
      "v": 114
    },
    {
      "midi": 64,
      "hit": false,
      "t": 196252.60416666674,
      "d": 200.52083333334303,
      "v": 109
    },
    {
      "midi": 60,
      "hit": false,
      "t": 196252.60416666674,
      "d": 210.9375,
      "v": 109
    },
    {
      "midi": 55,
      "hit": false,
      "t": 196252.60416666674,
      "d": 213.54166666665697,
      "v": 109
    },
    {
      "midi": 67,
      "hit": false,
      "t": 196502.60416666677,
      "d": 294.27083333331393,
      "v": 115
    },
    {
      "midi": 79,
      "hit": false,
      "t": 196505.20833333343,
      "d": 283.85416666665697,
      "v": 121
    },
    {
      "midi": 55,
      "hit": false,
      "t": 196627.60416666674,
      "d": 182.29166666665697,
      "v": 98
    },
    {
      "midi": 60,
      "hit": false,
      "t": 196630.2083333334,
      "d": 182.29166666665697,
      "v": 111
    },
    {
      "midi": 64,
      "hit": false,
      "t": 196630.2083333334,
      "d": 184.89583333331393,
      "v": 111
    },
    {
      "midi": 67,
      "hit": false,
      "t": 196877.60416666674,
      "d": 171.875,
      "v": 120
    },
    {
      "midi": 79,
      "hit": false,
      "t": 196877.60416666674,
      "d": 187.5,
      "v": 120
    },
    {
      "midi": 64,
      "hit": false,
      "t": 197002.60416666672,
      "d": 158.85416666665697,
      "v": 111
    },
    {
      "midi": 60,
      "hit": false,
      "t": 197002.60416666672,
      "d": 161.45833333331393,
      "v": 111
    },
    {
      "midi": 55,
      "hit": false,
      "t": 197002.60416666672,
      "d": 164.0624999999709,
      "v": 111
    },
    {
      "midi": 64,
      "hit": false,
      "t": 197372.39583333334,
      "d": 161.45833333334303,
      "v": 111
    },
    {
      "midi": 55,
      "hit": false,
      "t": 197372.39583333334,
      "d": 171.875,
      "v": 111
    },
    {
      "midi": 60,
      "hit": false,
      "t": 197372.39583333334,
      "d": 174.47916666665697,
      "v": 111
    },
    {
      "midi": 74,
      "hit": false,
      "t": 197499.99999999994,
      "d": 250,
      "v": 113
    },
    {
      "midi": 55,
      "hit": false,
      "t": 197744.79166666666,
      "d": 164.0625,
      "v": 80
    },
    {
      "midi": 60,
      "hit": false,
      "t": 197747.3958333333,
      "d": 177.08333333334303,
      "v": 111
    },
    {
      "midi": 64,
      "hit": false,
      "t": 197747.3958333333,
      "d": 182.29166666668607,
      "v": 111
    },
    {
      "midi": 72,
      "hit": false,
      "t": 197749.99999999994,
      "d": 333.33333333334303,
      "v": 113
    },
    {
      "midi": 95,
      "hit": false,
      "t": 197992.18750000006,
      "d": 1989.583333333343,
      "v": 95
    },
    {
      "midi": 74,
      "hit": false,
      "t": 197997.39583333337,
      "d": 1911.458333333343,
      "v": 95
    },
    {
      "midi": 74,
      "hit": false,
      "t": 197999.99999999994,
      "d": 395.83333333334303,
      "v": 113
    },
    {
      "midi": 71,
      "hit": false,
      "t": 198000.00000000003,
      "d": 1979.166666666686,
      "v": 95
    },
    {
      "midi": 55,
      "hit": false,
      "t": 198247.39583333334,
      "d": 195.3125,
      "v": 111
    },
    {
      "midi": 62,
      "hit": false,
      "t": 198247.39583333334,
      "d": 223.95833333334303,
      "v": 111
    },
    {
      "midi": 59,
      "hit": false,
      "t": 198252.6041666667,
      "d": 187.5,
      "v": 111
    },
    {
      "midi": 71,
      "hit": false,
      "t": 198380.20833333328,
      "d": 375,
      "v": 113
    },
    {
      "midi": 55,
      "hit": false,
      "t": 198627.6041666667,
      "d": 187.5,
      "v": 111
    },
    {
      "midi": 59,
      "hit": false,
      "t": 198630.20833333334,
      "d": 169.27083333334303,
      "v": 111
    },
    {
      "midi": 62,
      "hit": false,
      "t": 198630.20833333334,
      "d": 184.89583333334303,
      "v": 111
    },
    {
      "midi": 67,
      "hit": false,
      "t": 198755.20833333328,
      "d": 783.854166666657,
      "v": 113
    },
    {
      "midi": 59,
      "hit": false,
      "t": 199002.6041666667,
      "d": 177.08333333331393,
      "v": 78
    },
    {
      "midi": 55,
      "hit": false,
      "t": 199002.6041666667,
      "d": 182.29166666665697,
      "v": 80
    },
    {
      "midi": 62,
      "hit": false,
      "t": 199005.20833333334,
      "d": 184.89583333334303,
      "v": 111
    },
    {
      "midi": 59,
      "hit": false,
      "t": 199377.6041666667,
      "d": 195.3125,
      "v": 111
    },
    {
      "midi": 55,
      "hit": false,
      "t": 199377.6041666667,
      "d": 200.52083333334303,
      "v": 111
    },
    {
      "midi": 62,
      "hit": false,
      "t": 199377.6041666667,
      "d": 208.33333333334303,
      "v": 111
    },
    {
      "midi": 55,
      "hit": false,
      "t": 199502.60416666674,
      "d": 513.0208333332848,
      "v": 109
    },
    {
      "midi": 67,
      "hit": false,
      "t": 199505.2083333334,
      "d": 369.79166666665697,
      "v": 119
    },
    {
      "midi": 55,
      "hit": false,
      "t": 199747.39583333337,
      "d": 200.52083333334303,
      "v": 111
    },
    {
      "midi": 59,
      "hit": false,
      "t": 199752.60416666672,
      "d": 195.3125,
      "v": 111
    },
    {
      "midi": 62,
      "hit": false,
      "t": 199752.60416666672,
      "d": 200.52083333334303,
      "v": 111
    },
    {
      "midi": 69,
      "hit": false,
      "t": 200000.00000000006,
      "d": 1953.125,
      "v": 97
    },
    {
      "midi": 72,
      "hit": false,
      "t": 200002.60416666672,
      "d": 1309.895833333314,
      "v": 92
    },
    {
      "midi": 69,
      "hit": false,
      "t": 200002.60416666672,
      "d": 1315.104166666657,
      "v": 115
    },
    {
      "midi": 64,
      "hit": false,
      "t": 200002.60416666672,
      "d": 1328.125,
      "v": 109
    },
    {
      "midi": 72,
      "hit": false,
      "t": 200002.60416666672,
      "d": 1986.979166666686,
      "v": 97
    },
    {
      "midi": 64,
      "hit": false,
      "t": 200002.60416666672,
      "d": 3807.291666666715,
      "v": 97
    },
    {
      "midi": 52,
      "hit": false,
      "t": 200002.60416666672,
      "d": 4000.0000000000873,
      "v": 97
    },
    {
      "midi": 57,
      "hit": false,
      "t": 200005.20833333337,
      "d": 1335.9375,
      "v": 119
    },
    {
      "midi": 93,
      "hit": false,
      "t": 200005.2083333334,
      "d": 2000,
      "v": 93
    },
    {
      "midi": 57,
      "hit": false,
      "t": 200247.3958333334,
      "d": 252.60416666665697,
      "v": 98
    },
    {
      "midi": 52,
      "hit": false,
      "t": 200252.60416666674,
      "d": 229.16666666665697,
      "v": 111
    },
    {
      "midi": 60,
      "hit": false,
      "t": 200252.60416666674,
      "d": 239.58333333331393,
      "v": 111
    },
    {
      "midi": 72,
      "hit": false,
      "t": 200502.60416666674,
      "d": 177.08333333334303,
      "v": 92
    },
    {
      "midi": 60,
      "hit": false,
      "t": 200505.2083333334,
      "d": 169.27083333334303,
      "v": 120
    },
    {
      "midi": 57,
      "hit": false,
      "t": 200627.60416666672,
      "d": 187.5,
      "v": 98
    },
    {
      "midi": 52,
      "hit": false,
      "t": 200630.20833333337,
      "d": 164.0625,
      "v": 111
    },
    {
      "midi": 60,
      "hit": false,
      "t": 200630.20833333337,
      "d": 187.5,
      "v": 111
    },
    {
      "midi": 74,
      "hit": false,
      "t": 200630.2083333334,
      "d": 153.64583333334303,
      "v": 120
    },
    {
      "midi": 62,
      "hit": false,
      "t": 200630.2083333334,
      "d": 203.125,
      "v": 120
    },
    {
      "midi": 64,
      "hit": false,
      "t": 200877.60416666674,
      "d": 296.875,
      "v": 127
    },
    {
      "midi": 76,
      "hit": false,
      "t": 200880.2083333334,
      "d": 247.39583333334303,
      "v": 118
    },
    {
      "midi": 60,
      "hit": false,
      "t": 201005.20833333337,
      "d": 203.125,
      "v": 111
    },
    {
      "midi": 52,
      "hit": false,
      "t": 201005.20833333337,
      "d": 208.33333333334303,
      "v": 111
    },
    {
      "midi": 57,
      "hit": false,
      "t": 201005.20833333337,
      "d": 213.54166666668607,
      "v": 111
    },
    {
      "midi": 52,
      "hit": false,
      "t": 201377.60416666672,
      "d": 208.33333333331393,
      "v": 70
    },
    {
      "midi": 60,
      "hit": false,
      "t": 201380.20833333337,
      "d": 210.9375,
      "v": 111
    },
    {
      "midi": 57,
      "hit": false,
      "t": 201380.20833333337,
      "d": 213.54166666665697,
      "v": 111
    },
    {
      "midi": 72,
      "hit": false,
      "t": 201502.6041666666,
      "d": 244.79166666665697,
      "v": 113
    },
    {
      "midi": 69,
      "hit": false,
      "t": 201752.6041666666,
      "d": 294.27083333334303,
      "v": 113
    },
    {
      "midi": 57,
      "hit": false,
      "t": 201752.6041666667,
      "d": 231.77083333331393,
      "v": 104
    },
    {
      "midi": 52,
      "hit": false,
      "t": 201755.20833333334,
      "d": 195.3125,
      "v": 111
    },
    {
      "midi": 60,
      "hit": false,
      "t": 201755.20833333334,
      "d": 236.97916666665697,
      "v": 111
    },
    {
      "midi": 71,
      "hit": false,
      "t": 201994.79166666674,
      "d": 1929.687500000029,
      "v": 95
    },
    {
      "midi": 91,
      "hit": false,
      "t": 202000.00000000006,
      "d": 2010.416666666686,
      "v": 93
    },
    {
      "midi": 67,
      "hit": false,
      "t": 202000.0000000001,
      "d": 1953.125000000029,
      "v": 95
    },
    {
      "midi": 71,
      "hit": false,
      "t": 202002.6041666666,
      "d": 375,
      "v": 113
    },
    {
      "midi": 52,
      "hit": false,
      "t": 202252.60416666666,
      "d": 221.35416666665697,
      "v": 111
    },
    {
      "midi": 59,
      "hit": false,
      "t": 202252.60416666666,
      "d": 231.77083333331393,
      "v": 111
    },
    {
      "midi": 55,
      "hit": false,
      "t": 202252.60416666666,
      "d": 234.3749999999709,
      "v": 111
    },
    {
      "midi": 67,
      "hit": false,
      "t": 202374.99999999994,
      "d": 375,
      "v": 113
    },
    {
      "midi": 52,
      "hit": false,
      "t": 202630.20833333328,
      "d": 174.47916666665697,
      "v": 111
    },
    {
      "midi": 59,
      "hit": false,
      "t": 202630.20833333328,
      "d": 195.3125,
      "v": 111
    },
    {
      "midi": 55,
      "hit": false,
      "t": 202630.20833333328,
      "d": 200.52083333334303,
      "v": 111
    },
    {
      "midi": 64,
      "hit": false,
      "t": 202752.6041666666,
      "d": 611.979166666657,
      "v": 111
    },
    {
      "midi": 55,
      "hit": false,
      "t": 203002.60416666663,
      "d": 208.33333333331393,
      "v": 98
    },
    {
      "midi": 59,
      "hit": false,
      "t": 203002.60416666663,
      "d": 221.35416666665697,
      "v": 86
    },
    {
      "midi": 52,
      "hit": false,
      "t": 203005.20833333328,
      "d": 190.10416666665697,
      "v": 111
    },
    {
      "midi": 52,
      "hit": false,
      "t": 203377.60416666663,
      "d": 156.25,
      "v": 111
    },
    {
      "midi": 59,
      "hit": false,
      "t": 203377.60416666663,
      "d": 179.6875,
      "v": 111
    },
    {
      "midi": 55,
      "hit": false,
      "t": 203377.60416666663,
      "d": 195.3125,
      "v": 111
    },
    {
      "midi": 64,
      "hit": false,
      "t": 203505.20833333337,
      "d": 364.58333333334303,
      "v": 119
    },
    {
      "midi": 52,
      "hit": false,
      "t": 203505.20833333337,
      "d": 494.79166666668607,
      "v": 119
    },
    {
      "midi": 55,
      "hit": false,
      "t": 203747.39583333328,
      "d": 218.7499999999709,
      "v": 98
    },
    {
      "midi": 59,
      "hit": false,
      "t": 203749.99999999994,
      "d": 216.14583333331393,
      "v": 86
    },
    {
      "midi": 52,
      "hit": false,
      "t": 203752.6041666666,
      "d": 171.875,
      "v": 109
    },
    {
      "midi": 65,
      "hit": false,
      "t": 203997.39583333346,
      "d": 1867.1875,
      "v": 80
    },
    {
      "midi": 69,
      "hit": false,
      "t": 203997.39583333346,
      "d": 2000,
      "v": 86
    },
    {
      "midi": 48,
      "hit": false,
      "t": 203997.39583333346,
      "d": 4023.4375,
      "v": 74
    },
    {
      "midi": 65,
      "hit": false,
      "t": 204002.60416666672,
      "d": 1304.6875,
      "v": 115
    },
    {
      "midi": 72,
      "hit": false,
      "t": 204002.60416666672,
      "d": 1322.916666666686,
      "v": 86
    },
    {
      "midi": 60,
      "hit": false,
      "t": 204002.6041666668,
      "d": 3809.895833333314,
      "v": 97
    },
    {
      "midi": 69,
      "hit": false,
      "t": 204005.20833333337,
      "d": 1307.291666666686,
      "v": 119
    },
    {
      "midi": 53,
      "hit": false,
      "t": 204005.20833333337,
      "d": 1325.5208333333721,
      "v": 119
    },
    {
      "midi": 89,
      "hit": false,
      "t": 204005.2083333334,
      "d": 2007.8125,
      "v": 95
    },
    {
      "midi": 57,
      "hit": false,
      "t": 204247.39583333326,
      "d": 239.58333333331393,
      "v": 107
    },
    {
      "midi": 60,
      "hit": false,
      "t": 204247.39583333326,
      "d": 247.39583333331393,
      "v": 107
    },
    {
      "midi": 53,
      "hit": false,
      "t": 204249.9999999999,
      "d": 218.75,
      "v": 109
    },
    {
      "midi": 69,
      "hit": false,
      "t": 204505.2083333334,
      "d": 351.5625,
      "v": 118
    },
    {
      "midi": 81,
      "hit": false,
      "t": 204505.2083333334,
      "d": 356.77083333334303,
      "v": 118
    },
    {
      "midi": 53,
      "hit": false,
      "t": 204627.60416666657,
      "d": 177.08333333331393,
      "v": 78
    },
    {
      "midi": 60,
      "hit": false,
      "t": 204627.60416666657,
      "d": 213.54166666665697,
      "v": 74
    },
    {
      "midi": 57,
      "hit": false,
      "t": 204630.20833333323,
      "d": 195.3125,
      "v": 111
    },
    {
      "midi": 84,
      "hit": false,
      "t": 204877.60416666674,
      "d": 263.02083333331393,
      "v": 98
    },
    {
      "midi": 72,
      "hit": false,
      "t": 204880.2083333334,
      "d": 289.0625,
      "v": 120
    },
    {
      "midi": 57,
      "hit": false,
      "t": 205002.60416666657,
      "d": 197.91666666665697,
      "v": 113
    },
    {
      "midi": 53,
      "hit": false,
      "t": 205002.60416666657,
      "d": 208.33333333331393,
      "v": 113
    },
    {
      "midi": 60,
      "hit": false,
      "t": 205002.60416666657,
      "d": 216.14583333331393,
      "v": 113
    },
    {
      "midi": 53,
      "hit": false,
      "t": 205377.60416666654,
      "d": 161.45833333334303,
      "v": 113
    },
    {
      "midi": 60,
      "hit": false,
      "t": 205377.60416666654,
      "d": 192.70833333334303,
      "v": 113
    },
    {
      "midi": 57,
      "hit": false,
      "t": 205377.60416666654,
      "d": 205.72916666668607,
      "v": 113
    },
    {
      "midi": 65,
      "hit": false,
      "t": 205502.6041666666,
      "d": 151.04166666665697,
      "v": 109
    },
    {
      "midi": 60,
      "hit": false,
      "t": 205749.99999999988,
      "d": 247.39583333331393,
      "v": 68
    },
    {
      "midi": 65,
      "hit": false,
      "t": 205749.9999999999,
      "d": 231.77083333334303,
      "v": 109
    },
    {
      "midi": 53,
      "hit": false,
      "t": 205752.60416666654,
      "d": 174.47916666665697,
      "v": 113
    },
    {
      "midi": 57,
      "hit": false,
      "t": 205752.60416666654,
      "d": 229.16666666665697,
      "v": 113
    },
    {
      "midi": 64,
      "hit": false,
      "t": 205994.7916666668,
      "d": 1846.354166666657,
      "v": 93
    },
    {
      "midi": 67,
      "hit": false,
      "t": 205994.7916666668,
      "d": 1960.9375,
      "v": 93
    },
    {
      "midi": 88,
      "hit": false,
      "t": 206002.60416666674,
      "d": 2031.25,
      "v": 97
    },
    {
      "midi": 64,
      "hit": false,
      "t": 206005.20833333326,
      "d": 500,
      "v": 109
    },
    {
      "midi": 52,
      "hit": false,
      "t": 206252.60416666654,
      "d": 216.14583333334303,
      "v": 113
    },
    {
      "midi": 60,
      "hit": false,
      "t": 206252.60416666654,
      "d": 231.77083333334303,
      "v": 113
    },
    {
      "midi": 55,
      "hit": false,
      "t": 206252.60416666654,
      "d": 242.1875,
      "v": 113
    },
    {
      "midi": 67,
      "hit": false,
      "t": 206499.9999999999,
      "d": 250,
      "v": 109
    },
    {
      "midi": 72,
      "hit": false,
      "t": 206502.6041666666,
      "d": 125,
      "v": 112
    },
    {
      "midi": 71,
      "hit": false,
      "t": 206622.39583333326,
      "d": 169.27083333334303,
      "v": 112
    },
    {
      "midi": 52,
      "hit": false,
      "t": 206630.2083333332,
      "d": 169.27083333334303,
      "v": 113
    },
    {
      "midi": 60,
      "hit": false,
      "t": 206630.2083333332,
      "d": 192.70833333334303,
      "v": 113
    },
    {
      "midi": 55,
      "hit": false,
      "t": 206630.2083333332,
      "d": 205.72916666668607,
      "v": 113
    },
    {
      "midi": 72,
      "hit": false,
      "t": 206747.39583333326,
      "d": 164.0625,
      "v": 112
    },
    {
      "midi": 72,
      "hit": false,
      "t": 206755.20833333326,
      "d": 848.958333333343,
      "v": 109
    },
    {
      "midi": 74,
      "hit": false,
      "t": 206872.39583333326,
      "d": 177.08333333334303,
      "v": 112
    },
    {
      "midi": 76,
      "hit": false,
      "t": 207002.6041666666,
      "d": 148.4375,
      "v": 112
    },
    {
      "midi": 52,
      "hit": false,
      "t": 207005.20833333323,
      "d": 184.89583333334303,
      "v": 113
    },
    {
      "midi": 60,
      "hit": false,
      "t": 207005.20833333323,
      "d": 200.52083333334303,
      "v": 113
    },
    {
      "midi": 55,
      "hit": false,
      "t": 207005.20833333323,
      "d": 210.9375,
      "v": 113
    },
    {
      "midi": 77,
      "hit": false,
      "t": 207127.6041666666,
      "d": 171.875,
      "v": 112
    },
    {
      "midi": 76,
      "hit": false,
      "t": 207252.6041666666,
      "d": 192.70833333334303,
      "v": 112
    },
    {
      "midi": 52,
      "hit": false,
      "t": 207377.60416666657,
      "d": 174.47916666665697,
      "v": 113
    },
    {
      "midi": 60,
      "hit": false,
      "t": 207377.60416666657,
      "d": 205.72916666665697,
      "v": 113
    },
    {
      "midi": 55,
      "hit": false,
      "t": 207377.60416666657,
      "d": 210.9375,
      "v": 113
    },
    {
      "midi": 74,
      "hit": false,
      "t": 207377.6041666666,
      "d": 158.85416666665697,
      "v": 112
    },
    {
      "midi": 72,
      "hit": false,
      "t": 207502.6041666666,
      "d": 127.60416666665697,
      "v": 112
    },
    {
      "midi": 60,
      "hit": false,
      "t": 207505.2083333334,
      "d": 328.125,
      "v": 117
    },
    {
      "midi": 72,
      "hit": false,
      "t": 207505.2083333334,
      "d": 335.9375,
      "v": 117
    },
    {
      "midi": 71,
      "hit": false,
      "t": 207622.39583333326,
      "d": 153.64583333334303,
      "v": 112
    },
    {
      "midi": 55,
      "hit": false,
      "t": 207747.39583333323,
      "d": 229.16666666668607,
      "v": 109
    },
    {
      "midi": 60,
      "hit": false,
      "t": 207747.39583333323,
      "d": 229.16666666668607,
      "v": 109
    },
    {
      "midi": 52,
      "hit": false,
      "t": 207752.60416666657,
      "d": 171.875,
      "v": 111
    },
    {
      "midi": 69,
      "hit": false,
      "t": 207752.6041666666,
      "d": 164.0625,
      "v": 112
    },
    {
      "midi": 67,
      "hit": false,
      "t": 207880.20833333326,
      "d": 161.45833333334303,
      "v": 112
    },
    {
      "midi": 62,
      "hit": false,
      "t": 207994.7916666668,
      "d": 1890.625,
      "v": 72
    },
    {
      "midi": 65,
      "hit": false,
      "t": 207997.3958333334,
      "d": 250,
      "v": 109
    },
    {
      "midi": 65,
      "hit": false,
      "t": 207997.39583333346,
      "d": 1820.3125,
      "v": 97
    },
    {
      "midi": 50,
      "hit": false,
      "t": 207997.39583333346,
      "d": 2005.208333333343,
      "v": 97
    },
    {
      "midi": 69,
      "hit": false,
      "t": 207997.39583333346,
      "d": 2018.229166666686,
      "v": 97
    },
    {
      "midi": 69,
      "hit": false,
      "t": 208002.60416666674,
      "d": 1317.708333333314,
      "v": 117
    },
    {
      "midi": 72,
      "hit": false,
      "t": 208002.60416666674,
      "d": 1317.708333333314,
      "v": 117
    },
    {
      "midi": 53,
      "hit": false,
      "t": 208002.60416666674,
      "d": 1328.124999999971,
      "v": 117
    },
    {
      "midi": 86,
      "hit": false,
      "t": 208002.60416666674,
      "d": 2039.0625,
      "v": 95
    },
    {
      "midi": 69,
      "hit": false,
      "t": 208005.20833333326,
      "d": 549.4791666666861,
      "v": 112
    },
    {
      "midi": 53,
      "hit": false,
      "t": 208247.39583333326,
      "d": 221.35416666665697,
      "v": 111
    },
    {
      "midi": 57,
      "hit": false,
      "t": 208247.39583333326,
      "d": 236.97916666665697,
      "v": 111
    },
    {
      "midi": 60,
      "hit": false,
      "t": 208247.39583333326,
      "d": 244.79166666665697,
      "v": 111
    },
    {
      "midi": 65,
      "hit": false,
      "t": 208500.00000000006,
      "d": 158.85416666665697,
      "v": 118
    },
    {
      "midi": 77,
      "hit": false,
      "t": 208505.2083333334,
      "d": 101.5625,
      "v": 118
    },
    {
      "midi": 81,
      "hit": false,
      "t": 208505.2083333334,
      "d": 117.1875,
      "v": 118
    },
    {
      "midi": 79,
      "hit": false,
      "t": 208625.00000000006,
      "d": 171.875,
      "v": 118
    },
    {
      "midi": 83,
      "hit": false,
      "t": 208625.00000000006,
      "d": 179.6875,
      "v": 118
    },
    {
      "midi": 67,
      "hit": false,
      "t": 208625.00000000006,
      "d": 242.1875,
      "v": 118
    },
    {
      "midi": 53,
      "hit": false,
      "t": 208627.60416666657,
      "d": 182.29166666665697,
      "v": 111
    },
    {
      "midi": 57,
      "hit": false,
      "t": 208627.60416666657,
      "d": 190.10416666665697,
      "v": 111
    },
    {
      "midi": 60,
      "hit": false,
      "t": 208627.60416666657,
      "d": 197.91666666665697,
      "v": 111
    },
    {
      "midi": 72,
      "hit": false,
      "t": 208749.99999999994,
      "d": 351.5625,
      "v": 111
    },
    {
      "midi": 69,
      "hit": false,
      "t": 208875.00000000006,
      "d": 304.6874999999709,
      "v": 121
    },
    {
      "midi": 81,
      "hit": false,
      "t": 208875.00000000006,
      "d": 315.10416666662786,
      "v": 109
    },
    {
      "midi": 84,
      "hit": false,
      "t": 208877.60416666672,
      "d": 291.66666666665697,
      "v": 118
    },
    {
      "midi": 53,
      "hit": false,
      "t": 209002.60416666657,
      "d": 177.08333333334303,
      "v": 111
    },
    {
      "midi": 57,
      "hit": false,
      "t": 209002.60416666657,
      "d": 192.70833333334303,
      "v": 111
    },
    {
      "midi": 60,
      "hit": false,
      "t": 209002.60416666657,
      "d": 205.72916666668607,
      "v": 111
    },
    {
      "midi": 72,
      "hit": false,
      "t": 209260.4166666666,
      "d": 242.1875,
      "v": 111
    },
    {
      "midi": 53,
      "hit": false,
      "t": 209372.39583333326,
      "d": 161.45833333334303,
      "v": 92
    },
    {
      "midi": 60,
      "hit": false,
      "t": 209372.39583333326,
      "d": 200.52083333334303,
      "v": 74
    },
    {
      "midi": 57,
      "hit": false,
      "t": 209377.6041666666,
      "d": 184.89583333334303,
      "v": 111
    },
    {
      "midi": 69,
      "hit": false,
      "t": 209515.62499999994,
      "d": 260.41666666665697,
      "v": 111
    },
    {
      "midi": 53,
      "hit": false,
      "t": 209747.39583333326,
      "d": 184.89583333334303,
      "v": 111
    },
    {
      "midi": 57,
      "hit": false,
      "t": 209747.39583333326,
      "d": 203.125,
      "v": 111
    },
    {
      "midi": 60,
      "hit": false,
      "t": 209747.39583333326,
      "d": 218.75,
      "v": 111
    },
    {
      "midi": 72,
      "hit": false,
      "t": 209752.6041666666,
      "d": 296.875,
      "v": 111
    },
    {
      "midi": 62,
      "hit": false,
      "t": 209994.7916666668,
      "d": 4000,
      "v": 72
    },
    {
      "midi": 67,
      "hit": false,
      "t": 209994.7916666668,
      "d": 4000,
      "v": 92
    },
    {
      "midi": 71,
      "hit": false,
      "t": 209994.7916666668,
      "d": 4000,
      "v": 74
    },
    {
      "midi": 55,
      "hit": false,
      "t": 209997.39583333346,
      "d": 4000,
      "v": 97
    },
    {
      "midi": 74,
      "hit": false,
      "t": 209999.99999999994,
      "d": 166.66666666668607,
      "v": 111
    },
    {
      "midi": 88,
      "hit": false,
      "t": 210002.60416666674,
      "d": 546.875,
      "v": 97
    },
    {
      "midi": 76,
      "hit": false,
      "t": 210018.2291666666,
      "d": 380.20833333331393,
      "v": 111
    },
    {
      "midi": 76,
      "hit": false,
      "t": 210122.39583333328,
      "d": 140.625,
      "v": 112
    },
    {
      "midi": 77,
      "hit": false,
      "t": 210247.39583333328,
      "d": 145.83333333334303,
      "v": 111
    },
    {
      "midi": 55,
      "hit": false,
      "t": 210249.9999999999,
      "d": 187.5,
      "v": 98
    },
    {
      "midi": 59,
      "hit": false,
      "t": 210252.60416666657,
      "d": 192.70833333334303,
      "v": 111
    },
    {
      "midi": 62,
      "hit": false,
      "t": 210252.60416666657,
      "d": 205.72916666668607,
      "v": 111
    },
    {
      "midi": 79,
      "hit": false,
      "t": 210372.39583333328,
      "d": 101.5625,
      "v": 111
    },
    {
      "midi": 77,
      "hit": false,
      "t": 210380.20833333326,
      "d": 403.64583333331393,
      "v": 111
    },
    {
      "midi": 76,
      "hit": false,
      "t": 210497.39583333328,
      "d": 145.83333333334303,
      "v": 111
    },
    {
      "midi": 89,
      "hit": false,
      "t": 210502.60416666674,
      "d": 289.0625,
      "v": 95
    },
    {
      "midi": 77,
      "hit": false,
      "t": 210622.39583333328,
      "d": 153.64583333334303,
      "v": 111
    },
    {
      "midi": 59,
      "hit": false,
      "t": 210627.6041666666,
      "d": 161.45833333334303,
      "v": 111
    },
    {
      "midi": 55,
      "hit": false,
      "t": 210627.6041666666,
      "d": 166.66666666668607,
      "v": 111
    },
    {
      "midi": 62,
      "hit": false,
      "t": 210627.6041666666,
      "d": 192.70833333334303,
      "v": 111
    },
    {
      "midi": 79,
      "hit": false,
      "t": 210747.39583333328,
      "d": 135.41666666665697,
      "v": 111
    },
    {
      "midi": 86,
      "hit": false,
      "t": 210752.60416666674,
      "d": 3250,
      "v": 95
    },
    {
      "midi": 74,
      "hit": false,
      "t": 210760.41666666657,
      "d": 963.541666666657,
      "v": 111
    },
    {
      "midi": 81,
      "hit": false,
      "t": 210872.39583333328,
      "d": 109.375,
      "v": 111
    },
    {
      "midi": 77,
      "hit": false,
      "t": 210997.39583333328,
      "d": 130.20833333334303,
      "v": 111
    },
    {
      "midi": 71,
      "hit": false,
      "t": 210997.39583333337,
      "d": 1304.687499999971,
      "v": 104
    },
    {
      "midi": 59,
      "hit": false,
      "t": 211000.00000000003,
      "d": 1291.666666666657,
      "v": 111
    },
    {
      "midi": 59,
      "hit": false,
      "t": 211002.6041666666,
      "d": 179.6875,
      "v": 98
    },
    {
      "midi": 55,
      "hit": false,
      "t": 211002.6041666666,
      "d": 184.89583333334303,
      "v": 98
    },
    {
      "midi": 62,
      "hit": false,
      "t": 211005.20833333326,
      "d": 182.29166666668607,
      "v": 111
    },
    {
      "midi": 79,
      "hit": false,
      "t": 211119.79166666663,
      "d": 156.25,
      "v": 111
    },
    {
      "midi": 81,
      "hit": false,
      "t": 211244.79166666663,
      "d": 140.625,
      "v": 111
    },
    {
      "midi": 83,
      "hit": false,
      "t": 211369.79166666663,
      "d": 125,
      "v": 111
    },
    {
      "midi": 55,
      "hit": false,
      "t": 211374.99999999994,
      "d": 203.125,
      "v": 92
    },
    {
      "midi": 59,
      "hit": false,
      "t": 211377.6041666666,
      "d": 203.125,
      "v": 111
    },
    {
      "midi": 62,
      "hit": false,
      "t": 211377.6041666666,
      "d": 213.54166666665697,
      "v": 111
    },
    {
      "midi": 79,
      "hit": false,
      "t": 211497.39583333328,
      "d": 151.04166666665697,
      "v": 111
    },
    {
      "midi": 81,
      "hit": false,
      "t": 211622.39583333328,
      "d": 153.64583333334303,
      "v": 111
    },
    {
      "midi": 83,
      "hit": false,
      "t": 211747.39583333328,
      "d": 132.8125,
      "v": 111
    },
    {
      "midi": 55,
      "hit": false,
      "t": 211752.6041666666,
      "d": 174.47916666665697,
      "v": 111
    },
    {
      "midi": 59,
      "hit": false,
      "t": 211752.6041666666,
      "d": 182.29166666665697,
      "v": 111
    },
    {
      "midi": 62,
      "hit": false,
      "t": 211752.6041666666,
      "d": 184.89583333331393,
      "v": 111
    },
    {
      "midi": 84,
      "hit": false,
      "t": 211872.39583333328,
      "d": 184.89583333331393,
      "v": 112
    },
    {
      "midi": 81,
      "hit": false,
      "t": 211999.99999999994,
      "d": 208.33333333331393,
      "v": 112
    },
    {
      "midi": 83,
      "hit": false,
      "t": 212127.6041666666,
      "d": 156.25,
      "v": 112
    },
    {
      "midi": 55,
      "hit": false,
      "t": 212252.6041666667,
      "d": 218.75,
      "v": 112
    },
    {
      "midi": 67,
      "hit": false,
      "t": 212252.6041666667,
      "d": 260.41666666665697,
      "v": 112
    },
    {
      "midi": 84,
      "hit": false,
      "t": 212255.20833333326,
      "d": 164.0625,
      "v": 112
    },
    {
      "midi": 86,
      "hit": false,
      "t": 212377.6041666666,
      "d": 130.20833333334303,
      "v": 112
    },
    {
      "midi": 59,
      "hit": false,
      "t": 212497.39583333334,
      "d": 221.35416666665697,
      "v": 114
    },
    {
      "midi": 71,
      "hit": false,
      "t": 212497.39583333334,
      "d": 229.16666666665697,
      "v": 114
    },
    {
      "midi": 83,
      "hit": false,
      "t": 212502.6041666666,
      "d": 174.47916666668607,
      "v": 112
    },
    {
      "midi": 84,
      "hit": false,
      "t": 212630.20833333328,
      "d": 148.4375,
      "v": 112
    },
    {
      "midi": 55,
      "hit": false,
      "t": 212744.79166666666,
      "d": 236.97916666665697,
      "v": 115
    },
    {
      "midi": 67,
      "hit": false,
      "t": 212744.79166666666,
      "d": 250,
      "v": 115
    },
    {
      "midi": 86,
      "hit": false,
      "t": 212752.60416666663,
      "d": 151.04166666665697,
      "v": 112
    },
    {
      "midi": 88,
      "hit": false,
      "t": 212877.60416666663,
      "d": 75.52083333331393,
      "v": 112
    },
    {
      "midi": 71,
      "hit": false,
      "t": 212994.79166666666,
      "d": 1143.2291666665988,
      "v": 109
    },
    {
      "midi": 59,
      "hit": false,
      "t": 212997.3958333333,
      "d": 205.72916666665697,
      "v": 118
    },
    {
      "midi": 84,
      "hit": false,
      "t": 213005.20833333328,
      "d": 231.77083333334303,
      "v": 112
    },
    {
      "midi": 86,
      "hit": false,
      "t": 213127.60416666663,
      "d": 125,
      "v": 112
    },
    {
      "midi": 55,
      "hit": false,
      "t": 213244.79166666663,
      "d": 236.97916666665697,
      "v": 120
    },
    {
      "midi": 88,
      "hit": false,
      "t": 213249.99999999997,
      "d": 182.29166666665697,
      "v": 112
    },
    {
      "midi": 90,
      "hit": false,
      "t": 213377.60416666663,
      "d": 143.22916666665697,
      "v": 112
    },
    {
      "midi": 59,
      "hit": false,
      "t": 213497.39583333328,
      "d": 291.66666666665697,
      "v": 120
    },
    {
      "midi": 69,
      "hit": false,
      "t": 213502.60416666663,
      "d": 335.9374999999709,
      "v": 115
    },
    {
      "midi": 86,
      "hit": false,
      "t": 213502.60416666663,
      "d": 148.4375,
      "v": 112
    },
    {
      "midi": 57,
      "hit": false,
      "t": 213505.20833333328,
      "d": 463.54166666665697,
      "v": 114
    },
    {
      "midi": 88,
      "hit": false,
      "t": 213627.60416666663,
      "d": 158.85416666665697,
      "v": 112
    },
    {
      "midi": 61,
      "hit": false,
      "t": 213747.39583333328,
      "d": 372.39583333331393,
      "v": 123
    },
    {
      "midi": 90,
      "hit": false,
      "t": 213752.60416666663,
      "d": 140.625,
      "v": 112
    },
    {
      "midi": 91,
      "hit": false,
      "t": 213877.60416666663,
      "d": 156.25,
      "v": 112
    },
    {
      "midi": 38,
      "hit": false,
      "t": 213999.99999999997,
      "d": 315.10416666665697,
      "v": 126
    },
    {
      "midi": 98,
      "hit": false,
      "t": 214000.0000000001,
      "d": 1976.5625,
      "v": 95
    },
    {
      "midi": 74,
      "hit": false,
      "t": 214000.00000000012,
      "d": 1945.3125,
      "v": 95
    },
    {
      "midi": 78,
      "hit": false,
      "t": 214000.00000000012,
      "d": 2013.020833333343,
      "v": 95
    },
    {
      "midi": 69,
      "hit": false,
      "t": 214000.00000000012,
      "d": 3880.208333333343,
      "v": 92
    },
    {
      "midi": 57,
      "hit": false,
      "t": 214000.00000000012,
      "d": 4000.000000000029,
      "v": 95
    },
    {
      "midi": 74,
      "hit": false,
      "t": 214002.6041666666,
      "d": 1210.9375,
      "v": 98
    },
    {
      "midi": 69,
      "hit": false,
      "t": 214002.6041666666,
      "d": 1213.541666666657,
      "v": 109
    },
    {
      "midi": 62,
      "hit": false,
      "t": 214002.60416666672,
      "d": 75.52083333334303,
      "v": 91
    },
    {
      "midi": 78,
      "hit": false,
      "t": 214005.20833333326,
      "d": 1210.9375,
      "v": 114
    },
    {
      "midi": 62,
      "hit": false,
      "t": 214005.20833333326,
      "d": 1273.4375,
      "v": 114
    },
    {
      "midi": 62,
      "hit": false,
      "t": 214122.3958333334,
      "d": 70.3125,
      "v": 91
    },
    {
      "midi": 62,
      "hit": false,
      "t": 214252.60416666674,
      "d": 39.0625,
      "v": 91
    },
    {
      "midi": 62,
      "hit": false,
      "t": 214372.3958333334,
      "d": 72.91666666665697,
      "v": 91
    },
    {
      "midi": 38,
      "hit": false,
      "t": 214492.18749999997,
      "d": 247.39583333334303,
      "v": 126
    },
    {
      "midi": 62,
      "hit": false,
      "t": 214497.3958333334,
      "d": 70.3125,
      "v": 91
    },
    {
      "midi": 62,
      "hit": false,
      "t": 214622.3958333334,
      "d": 65.10416666665697,
      "v": 91
    },
    {
      "midi": 62,
      "hit": false,
      "t": 214747.3958333334,
      "d": 57.291666666656965,
      "v": 91
    },
    {
      "midi": 38,
      "hit": false,
      "t": 214867.18749999997,
      "d": 57.291666666656965,
      "v": 126
    },
    {
      "midi": 62,
      "hit": false,
      "t": 214872.3958333334,
      "d": 67.70833333334303,
      "v": 91
    },
    {
      "midi": 38,
      "hit": false,
      "t": 214997.39583333328,
      "d": 138.02083333334303,
      "v": 126
    },
    {
      "midi": 62,
      "hit": false,
      "t": 215000.0000000001,
      "d": 57.291666666656965,
      "v": 91
    },
    {
      "midi": 62,
      "hit": false,
      "t": 215125.0000000001,
      "d": 54.6875,
      "v": 91
    },
    {
      "midi": 38,
      "hit": false,
      "t": 215244.79166666663,
      "d": 127.60416666665697,
      "v": 124
    },
    {
      "midi": 62,
      "hit": false,
      "t": 215252.60416666674,
      "d": 54.6875,
      "v": 91
    },
    {
      "midi": 62,
      "hit": false,
      "t": 215375.0000000001,
      "d": 62.5,
      "v": 91
    },
    {
      "midi": 38,
      "hit": false,
      "t": 215494.79166666663,
      "d": 148.4375,
      "v": 124
    },
    {
      "midi": 76,
      "hit": false,
      "t": 215499.99999999988,
      "d": 250,
      "v": 113
    },
    {
      "midi": 62,
      "hit": false,
      "t": 215502.60416666674,
      "d": 59.895833333343035,
      "v": 91
    },
    {
      "midi": 62,
      "hit": false,
      "t": 215627.60416666674,
      "d": 57.291666666656965,
      "v": 91
    },
    {
      "midi": 38,
      "hit": false,
      "t": 215742.18749999997,
      "d": 122.39583333334303,
      "v": 122
    },
    {
      "midi": 62,
      "hit": false,
      "t": 215747.3958333334,
      "d": 59.895833333343035,
      "v": 91
    },
    {
      "midi": 74,
      "hit": false,
      "t": 215749.99999999988,
      "d": 333.33333333334303,
      "v": 113
    },
    {
      "midi": 62,
      "hit": false,
      "t": 215875.0000000001,
      "d": 54.6875,
      "v": 91
    },
    {
      "midi": 33,
      "hit": false,
      "t": 215992.18749999997,
      "d": 330.72916666665697,
      "v": 122
    },
    {
      "midi": 97,
      "hit": false,
      "t": 215992.1875000001,
      "d": 1989.583333333343,
      "v": 95
    },
    {
      "midi": 76,
      "hit": false,
      "t": 215997.39583333346,
      "d": 1911.458333333343,
      "v": 95
    },
    {
      "midi": 76,
      "hit": false,
      "t": 215999.99999999988,
      "d": 395.83333333334303,
      "v": 113
    },
    {
      "midi": 73,
      "hit": false,
      "t": 216000.00000000012,
      "d": 1979.166666666686,
      "v": 95
    },
    {
      "midi": 57,
      "hit": false,
      "t": 216002.60416666674,
      "d": 52.083333333343035,
      "v": 91
    },
    {
      "midi": 57,
      "hit": false,
      "t": 216122.39583333343,
      "d": 78.125,
      "v": 91
    },
    {
      "midi": 57,
      "hit": false,
      "t": 216247.39583333343,
      "d": 52.083333333343035,
      "v": 91
    },
    {
      "midi": 57,
      "hit": false,
      "t": 216372.39583333343,
      "d": 70.3125,
      "v": 91
    },
    {
      "midi": 73,
      "hit": false,
      "t": 216380.20833333323,
      "d": 375,
      "v": 113
    },
    {
      "midi": 33,
      "hit": false,
      "t": 216492.18749999997,
      "d": 276.04166666665697,
      "v": 122
    },
    {
      "midi": 57,
      "hit": false,
      "t": 216502.60416666677,
      "d": 57.291666666656965,
      "v": 91
    },
    {
      "midi": 57,
      "hit": false,
      "t": 216627.60416666677,
      "d": 62.5,
      "v": 91
    },
    {
      "midi": 57,
      "hit": false,
      "t": 216752.60416666677,
      "d": 52.083333333343035,
      "v": 91
    },
    {
      "midi": 69,
      "hit": false,
      "t": 216755.20833333323,
      "d": 783.854166666657,
      "v": 113
    },
    {
      "midi": 33,
      "hit": false,
      "t": 216872.39583333328,
      "d": 78.125,
      "v": 122
    },
    {
      "midi": 57,
      "hit": false,
      "t": 216877.60416666677,
      "d": 62.5,
      "v": 91
    },
    {
      "midi": 33,
      "hit": false,
      "t": 216999.99999999994,
      "d": 161.45833333334303,
      "v": 122
    },
    {
      "midi": 57,
      "hit": false,
      "t": 217002.60416666677,
      "d": 59.895833333343035,
      "v": 91
    },
    {
      "midi": 57,
      "hit": false,
      "t": 217127.60416666677,
      "d": 57.291666666656965,
      "v": 91
    },
    {
      "midi": 33,
      "hit": false,
      "t": 217249.99999999994,
      "d": 138.02083333334303,
      "v": 122
    },
    {
      "midi": 57,
      "hit": false,
      "t": 217252.60416666677,
      "d": 54.6875,
      "v": 91
    },
    {
      "midi": 57,
      "hit": false,
      "t": 217377.60416666677,
      "d": 70.3125,
      "v": 91
    },
    {
      "midi": 33,
      "hit": false,
      "t": 217497.39583333328,
      "d": 145.83333333334303,
      "v": 122
    },
    {
      "midi": 57,
      "hit": false,
      "t": 217502.6041666666,
      "d": 513.0208333332848,
      "v": 109
    },
    {
      "midi": 69,
      "hit": false,
      "t": 217505.20833333326,
      "d": 369.79166666665697,
      "v": 119
    },
    {
      "midi": 57,
      "hit": false,
      "t": 217505.20833333343,
      "d": 52.083333333343035,
      "v": 91
    },
    {
      "midi": 57,
      "hit": false,
      "t": 217627.60416666677,
      "d": 39.0625,
      "v": 91
    },
    {
      "midi": 33,
      "hit": false,
      "t": 217747.39583333328,
      "d": 111.97916666665697,
      "v": 122
    },
    {
      "midi": 57,
      "hit": false,
      "t": 217752.60416666677,
      "d": 49.479166666656965,
      "v": 91
    },
    {
      "midi": 57,
      "hit": false,
      "t": 217877.60416666677,
      "d": 75.52083333334303,
      "v": 91
    },
    {
      "midi": 35,
      "hit": false,
      "t": 217997.39583333328,
      "d": 328.125,
      "v": 122
    },
    {
      "midi": 71,
      "hit": false,
      "t": 218000.00000000015,
      "d": 1953.125,
      "v": 97
    },
    {
      "midi": 74,
      "hit": false,
      "t": 218002.60416666657,
      "d": 1309.895833333314,
      "v": 92
    },
    {
      "midi": 71,
      "hit": false,
      "t": 218002.60416666657,
      "d": 1315.104166666657,
      "v": 115
    },
    {
      "midi": 66,
      "hit": false,
      "t": 218002.60416666657,
      "d": 1328.125,
      "v": 109
    },
    {
      "midi": 59,
      "hit": false,
      "t": 218002.60416666677,
      "d": 59.895833333343035,
      "v": 91
    },
    {
      "midi": 74,
      "hit": false,
      "t": 218002.6041666668,
      "d": 1986.979166666686,
      "v": 97
    },
    {
      "midi": 66,
      "hit": false,
      "t": 218002.6041666668,
      "d": 3807.291666666715,
      "v": 97
    },
    {
      "midi": 54,
      "hit": false,
      "t": 218002.6041666668,
      "d": 4000.0000000000873,
      "v": 97
    },
    {
      "midi": 59,
      "hit": false,
      "t": 218005.20833333323,
      "d": 1335.9375,
      "v": 119
    },
    {
      "midi": 95,
      "hit": false,
      "t": 218005.20833333343,
      "d": 2000,
      "v": 93
    },
    {
      "midi": 59,
      "hit": false,
      "t": 218127.60416666677,
      "d": 62.5,
      "v": 91
    },
    {
      "midi": 59,
      "hit": false,
      "t": 218252.60416666677,
      "d": 52.083333333343035,
      "v": 91
    },
    {
      "midi": 59,
      "hit": false,
      "t": 218377.60416666677,
      "d": 62.5,
      "v": 91
    },
    {
      "midi": 35,
      "hit": false,
      "t": 218497.39583333328,
      "d": 260.41666666665697,
      "v": 124
    },
    {
      "midi": 59,
      "hit": false,
      "t": 218502.60416666677,
      "d": 49.479166666656965,
      "v": 91
    },
    {
      "midi": 59,
      "hit": false,
      "t": 218627.60416666677,
      "d": 75.52083333334303,
      "v": 91
    },
    {
      "midi": 59,
      "hit": false,
      "t": 218752.60416666677,
      "d": 46.875,
      "v": 95
    },
    {
      "midi": 35,
      "hit": false,
      "t": 218872.39583333328,
      "d": 65.10416666665697,
      "v": 124
    },
    {
      "midi": 59,
      "hit": false,
      "t": 218877.60416666677,
      "d": 62.5,
      "v": 95
    },
    {
      "midi": 35,
      "hit": false,
      "t": 218999.99999999994,
      "d": 145.83333333334303,
      "v": 124
    },
    {
      "midi": 59,
      "hit": false,
      "t": 219002.60416666677,
      "d": 54.6875,
      "v": 95
    },
    {
      "midi": 59,
      "hit": false,
      "t": 219127.60416666677,
      "d": 67.70833333334303,
      "v": 95
    },
    {
      "midi": 59,
      "hit": false,
      "t": 219247.39583333346,
      "d": 59.895833333343035,
      "v": 95
    },
    {
      "midi": 35,
      "hit": false,
      "t": 219249.99999999994,
      "d": 132.8125,
      "v": 124
    },
    {
      "midi": 59,
      "hit": false,
      "t": 219372.39583333346,
      "d": 62.5,
      "v": 95
    },
    {
      "midi": 35,
      "hit": false,
      "t": 219497.39583333328,
      "d": 122.39583333334303,
      "v": 124
    },
    {
      "midi": 59,
      "hit": false,
      "t": 219497.39583333346,
      "d": 59.895833333343035,
      "v": 95
    },
    {
      "midi": 74,
      "hit": false,
      "t": 219502.60416666654,
      "d": 244.79166666665697,
      "v": 113
    },
    {
      "midi": 59,
      "hit": false,
      "t": 219622.39583333346,
      "d": 59.895833333343035,
      "v": 95
    },
    {
      "midi": 35,
      "hit": false,
      "t": 219742.18749999997,
      "d": 114.58333333334303,
      "v": 124
    },
    {
      "midi": 59,
      "hit": false,
      "t": 219744.7916666668,
      "d": 65.10416666665697,
      "v": 95
    },
    {
      "midi": 71,
      "hit": false,
      "t": 219752.60416666654,
      "d": 294.27083333334303,
      "v": 113
    },
    {
      "midi": 59,
      "hit": false,
      "t": 219872.39583333346,
      "d": 57.291666666656965,
      "v": 95
    },
    {
      "midi": 30,
      "hit": false,
      "t": 219992.18749999997,
      "d": 276.04166666665697,
      "v": 124
    },
    {
      "midi": 73,
      "hit": false,
      "t": 219994.79166666683,
      "d": 1929.687500000029,
      "v": 95
    },
    {
      "midi": 54,
      "hit": false,
      "t": 219997.39583333346,
      "d": 52.083333333343035,
      "v": 95
    },
    {
      "midi": 93,
      "hit": false,
      "t": 220000.0000000001,
      "d": 2010.416666666686,
      "v": 93
    },
    {
      "midi": 69,
      "hit": false,
      "t": 220000.00000000017,
      "d": 1953.125000000029,
      "v": 95
    },
    {
      "midi": 73,
      "hit": false,
      "t": 220002.60416666654,
      "d": 375,
      "v": 113
    },
    {
      "midi": 54,
      "hit": false,
      "t": 220122.39583333346,
      "d": 65.10416666665697,
      "v": 95
    },
    {
      "midi": 54,
      "hit": false,
      "t": 220247.39583333346,
      "d": 52.083333333343035,
      "v": 95
    },
    {
      "midi": 69,
      "hit": false,
      "t": 220374.99999999988,
      "d": 375,
      "v": 113
    },
    {
      "midi": 54,
      "hit": false,
      "t": 220375.00000000015,
      "d": 62.5,
      "v": 95
    },
    {
      "midi": 30,
      "hit": false,
      "t": 220492.18749999997,
      "d": 247.39583333334303,
      "v": 124
    },
    {
      "midi": 54,
      "hit": false,
      "t": 220497.3958333335,
      "d": 54.6875,
      "v": 95
    },
    {
      "midi": 54,
      "hit": false,
      "t": 220622.3958333335,
      "d": 70.3125,
      "v": 95
    },
    {
      "midi": 54,
      "hit": false,
      "t": 220747.3958333335,
      "d": 49.479166666656965,
      "v": 95
    },
    {
      "midi": 66,
      "hit": false,
      "t": 220752.60416666654,
      "d": 611.979166666657,
      "v": 111
    },
    {
      "midi": 30,
      "hit": false,
      "t": 220867.18749999997,
      "d": 59.895833333343035,
      "v": 124
    },
    {
      "midi": 54,
      "hit": false,
      "t": 220869.7916666668,
      "d": 70.3125,
      "v": 95
    },
    {
      "midi": 30,
      "hit": false,
      "t": 220992.18749999997,
      "d": 130.20833333334303,
      "v": 124
    },
    {
      "midi": 54,
      "hit": false,
      "t": 220997.39583333346,
      "d": 49.479166666656965,
      "v": 95
    },
    {
      "midi": 54,
      "hit": false,
      "t": 221122.39583333346,
      "d": 62.5,
      "v": 95
    },
    {
      "midi": 30,
      "hit": false,
      "t": 221242.18749999997,
      "d": 122.39583333334303,
      "v": 124
    },
    {
      "midi": 54,
      "hit": false,
      "t": 221247.39583333346,
      "d": 54.6875,
      "v": 95
    },
    {
      "midi": 54,
      "hit": false,
      "t": 221369.7916666668,
      "d": 70.3125,
      "v": 95
    },
    {
      "midi": 30,
      "hit": false,
      "t": 221492.18749999997,
      "d": 130.20833333334303,
      "v": 124
    },
    {
      "midi": 54,
      "hit": false,
      "t": 221497.39583333346,
      "d": 57.291666666656965,
      "v": 95
    },
    {
      "midi": 66,
      "hit": false,
      "t": 221505.20833333323,
      "d": 364.58333333334303,
      "v": 119
    },
    {
      "midi": 54,
      "hit": false,
      "t": 221505.20833333323,
      "d": 494.79166666668607,
      "v": 119
    },
    {
      "midi": 54,
      "hit": false,
      "t": 221625.00000000012,
      "d": 44.270833333343035,
      "v": 95
    },
    {
      "midi": 30,
      "hit": false,
      "t": 221742.18749999997,
      "d": 125,
      "v": 124
    },
    {
      "midi": 54,
      "hit": false,
      "t": 221747.39583333346,
      "d": 52.083333333343035,
      "v": 95
    },
    {
      "midi": 54,
      "hit": false,
      "t": 221872.39583333346,
      "d": 67.70833333334303,
      "v": 95
    },
    {
      "midi": 31,
      "hit": false,
      "t": 221997.3958333333,
      "d": 325.52083333334303,
      "v": 124
    },
    {
      "midi": 55,
      "hit": false,
      "t": 221997.39583333346,
      "d": 57.291666666656965,
      "v": 95
    },
    {
      "midi": 67,
      "hit": false,
      "t": 221997.39583333355,
      "d": 1867.1875,
      "v": 80
    },
    {
      "midi": 71,
      "hit": false,
      "t": 221997.39583333355,
      "d": 2000,
      "v": 86
    },
    {
      "midi": 50,
      "hit": false,
      "t": 221997.39583333355,
      "d": 4023.4375,
      "v": 74
    },
    {
      "midi": 67,
      "hit": false,
      "t": 222002.60416666657,
      "d": 1304.6875,
      "v": 115
    },
    {
      "midi": 74,
      "hit": false,
      "t": 222002.60416666657,
      "d": 1322.916666666686,
      "v": 86
    },
    {
      "midi": 62,
      "hit": false,
      "t": 222002.6041666669,
      "d": 3809.895833333314,
      "v": 97
    },
    {
      "midi": 71,
      "hit": false,
      "t": 222005.20833333323,
      "d": 1307.291666666686,
      "v": 119
    },
    {
      "midi": 55,
      "hit": false,
      "t": 222005.20833333323,
      "d": 1325.5208333333721,
      "v": 119
    },
    {
      "midi": 91,
      "hit": false,
      "t": 222005.20833333343,
      "d": 2007.8125,
      "v": 95
    },
    {
      "midi": 55,
      "hit": false,
      "t": 222122.39583333346,
      "d": 59.895833333343035,
      "v": 95
    },
    {
      "midi": 55,
      "hit": false,
      "t": 222247.39583333346,
      "d": 54.6875,
      "v": 95
    },
    {
      "midi": 55,
      "hit": false,
      "t": 222372.39583333346,
      "d": 59.895833333343035,
      "v": 95
    },
    {
      "midi": 31,
      "hit": false,
      "t": 222497.3958333333,
      "d": 236.97916666665697,
      "v": 124
    },
    {
      "midi": 55,
      "hit": false,
      "t": 222497.39583333346,
      "d": 52.083333333343035,
      "v": 95
    },
    {
      "midi": 55,
      "hit": false,
      "t": 222627.6041666668,
      "d": 59.895833333343035,
      "v": 95
    },
    {
      "midi": 55,
      "hit": false,
      "t": 222747.3958333335,
      "d": 54.6875,
      "v": 95
    },
    {
      "midi": 31,
      "hit": false,
      "t": 222867.18749999997,
      "d": 65.10416666665697,
      "v": 124
    },
    {
      "midi": 55,
      "hit": false,
      "t": 222875.00000000015,
      "d": 59.895833333343035,
      "v": 95
    },
    {
      "midi": 31,
      "hit": false,
      "t": 222992.18749999997,
      "d": 145.83333333334303,
      "v": 124
    },
    {
      "midi": 55,
      "hit": false,
      "t": 223000.00000000015,
      "d": 59.895833333343035,
      "v": 95
    },
    {
      "midi": 55,
      "hit": false,
      "t": 223127.60416666683,
      "d": 67.70833333334303,
      "v": 95
    },
    {
      "midi": 31,
      "hit": false,
      "t": 223247.3958333333,
      "d": 135.41666666665697,
      "v": 124
    },
    {
      "midi": 55,
      "hit": false,
      "t": 223252.60416666683,
      "d": 57.291666666656965,
      "v": 95
    },
    {
      "midi": 55,
      "hit": false,
      "t": 223372.3958333335,
      "d": 78.125,
      "v": 95
    },
    {
      "midi": 31,
      "hit": false,
      "t": 223497.3958333333,
      "d": 140.625,
      "v": 124
    },
    {
      "midi": 55,
      "hit": false,
      "t": 223497.3958333335,
      "d": 62.5,
      "v": 95
    },
    {
      "midi": 67,
      "hit": false,
      "t": 223502.60416666654,
      "d": 151.04166666665697,
      "v": 109
    },
    {
      "midi": 55,
      "hit": false,
      "t": 223627.60416666683,
      "d": 67.70833333334303,
      "v": 95
    },
    {
      "midi": 31,
      "hit": false,
      "t": 223747.3958333333,
      "d": 125,
      "v": 124
    },
    {
      "midi": 55,
      "hit": false,
      "t": 223747.39583333352,
      "d": 57.291666666656965,
      "v": 95
    },
    {
      "midi": 67,
      "hit": false,
      "t": 223749.99999999985,
      "d": 231.77083333334303,
      "v": 109
    },
    {
      "midi": 55,
      "hit": false,
      "t": 223872.39583333352,
      "d": 59.895833333343035,
      "v": 95
    },
    {
      "midi": 66,
      "hit": false,
      "t": 223994.7916666669,
      "d": 1846.354166666657,
      "v": 93
    },
    {
      "midi": 69,
      "hit": false,
      "t": 223994.7916666669,
      "d": 1960.9375,
      "v": 93
    },
    {
      "midi": 38,
      "hit": false,
      "t": 223997.3958333333,
      "d": 299.47916666665697,
      "v": 124
    },
    {
      "midi": 50,
      "hit": false,
      "t": 223997.39583333352,
      "d": 49.479166666656965,
      "v": 95
    },
    {
      "midi": 90,
      "hit": false,
      "t": 224002.60416666677,
      "d": 2031.25,
      "v": 97
    },
    {
      "midi": 66,
      "hit": false,
      "t": 224005.2083333332,
      "d": 500,
      "v": 109
    },
    {
      "midi": 50,
      "hit": false,
      "t": 224127.60416666683,
      "d": 62.5,
      "v": 95
    },
    {
      "midi": 50,
      "hit": false,
      "t": 224247.3958333335,
      "d": 49.479166666656965,
      "v": 95
    },
    {
      "midi": 50,
      "hit": false,
      "t": 224372.3958333335,
      "d": 59.895833333343035,
      "v": 95
    },
    {
      "midi": 38,
      "hit": false,
      "t": 224497.3958333333,
      "d": 213.54166666665697,
      "v": 124
    },
    {
      "midi": 69,
      "hit": false,
      "t": 224499.99999999985,
      "d": 250,
      "v": 109
    },
    {
      "midi": 50,
      "hit": false,
      "t": 224500.00000000017,
      "d": 52.083333333343035,
      "v": 95
    },
    {
      "midi": 50,
      "hit": false,
      "t": 224627.60416666686,
      "d": 65.10416666665697,
      "v": 95
    },
    {
      "midi": 50,
      "hit": false,
      "t": 224752.60416666686,
      "d": 52.083333333343035,
      "v": 95
    },
    {
      "midi": 74,
      "hit": false,
      "t": 224755.2083333332,
      "d": 848.958333333343,
      "v": 109
    },
    {
      "midi": 38,
      "hit": false,
      "t": 224867.18749999997,
      "d": 57.291666666656965,
      "v": 124
    },
    {
      "midi": 50,
      "hit": false,
      "t": 224877.60416666686,
      "d": 62.5,
      "v": 95
    },
    {
      "midi": 38,
      "hit": false,
      "t": 224992.18749999997,
      "d": 138.02083333334303,
      "v": 124
    },
    {
      "midi": 50,
      "hit": false,
      "t": 225002.60416666686,
      "d": 54.6875,
      "v": 95
    },
    {
      "midi": 50,
      "hit": false,
      "t": 225127.60416666686,
      "d": 67.70833333334303,
      "v": 95
    },
    {
      "midi": 38,
      "hit": false,
      "t": 225244.79166666666,
      "d": 119.79166666665697,
      "v": 124
    },
    {
      "midi": 50,
      "hit": false,
      "t": 225252.60416666686,
      "d": 54.6875,
      "v": 95
    },
    {
      "midi": 50,
      "hit": false,
      "t": 225377.60416666686,
      "d": 78.125,
      "v": 95
    },
    {
      "midi": 38,
      "hit": false,
      "t": 225497.3958333333,
      "d": 140.625,
      "v": 124
    },
    {
      "midi": 50,
      "hit": false,
      "t": 225502.60416666686,
      "d": 54.6875,
      "v": 95
    },
    {
      "midi": 62,
      "hit": false,
      "t": 225505.20833333326,
      "d": 328.125,
      "v": 117
    },
    {
      "midi": 74,
      "hit": false,
      "t": 225505.20833333326,
      "d": 335.9375,
      "v": 117
    },
    {
      "midi": 50,
      "hit": false,
      "t": 225627.60416666686,
      "d": 70.3125,
      "v": 95
    },
    {
      "midi": 38,
      "hit": false,
      "t": 225744.79166666666,
      "d": 135.41666666665697,
      "v": 124
    },
    {
      "midi": 50,
      "hit": false,
      "t": 225752.60416666686,
      "d": 54.6875,
      "v": 95
    },
    {
      "midi": 50,
      "hit": false,
      "t": 225877.60416666686,
      "d": 70.3125,
      "v": 95
    },
    {
      "midi": 64,
      "hit": false,
      "t": 225994.7916666669,
      "d": 1890.625,
      "v": 72
    },
    {
      "midi": 67,
      "hit": false,
      "t": 225997.39583333326,
      "d": 1315.104166666686,
      "v": 109
    },
    {
      "midi": 40,
      "hit": false,
      "t": 225997.3958333333,
      "d": 315.10416666665697,
      "v": 124
    },
    {
      "midi": 67,
      "hit": false,
      "t": 225997.39583333355,
      "d": 1820.3125,
      "v": 97
    },
    {
      "midi": 52,
      "hit": false,
      "t": 225997.39583333355,
      "d": 2005.208333333343,
      "v": 97
    },
    {
      "midi": 71,
      "hit": false,
      "t": 225997.39583333355,
      "d": 2018.229166666686,
      "v": 97
    },
    {
      "midi": 71,
      "hit": false,
      "t": 226002.6041666666,
      "d": 1317.708333333343,
      "v": 117
    },
    {
      "midi": 74,
      "hit": false,
      "t": 226002.6041666666,
      "d": 1317.708333333343,
      "v": 117
    },
    {
      "midi": 55,
      "hit": false,
      "t": 226002.6041666666,
      "d": 1328.125,
      "v": 117
    },
    {
      "midi": 88,
      "hit": false,
      "t": 226002.60416666677,
      "d": 2039.0625,
      "v": 95
    },
    {
      "midi": 52,
      "hit": false,
      "t": 226002.60416666686,
      "d": 57.291666666656965,
      "v": 95
    },
    {
      "midi": 52,
      "hit": false,
      "t": 226127.60416666686,
      "d": 59.895833333343035,
      "v": 95
    },
    {
      "midi": 52,
      "hit": false,
      "t": 226247.39583333355,
      "d": 46.875,
      "v": 95
    },
    {
      "midi": 52,
      "hit": false,
      "t": 226372.39583333355,
      "d": 65.10416666665697,
      "v": 95
    },
    {
      "midi": 40,
      "hit": false,
      "t": 226492.18749999997,
      "d": 239.58333333334303,
      "v": 124
    },
    {
      "midi": 52,
      "hit": false,
      "t": 226497.39583333355,
      "d": 52.083333333343035,
      "v": 95
    },
    {
      "midi": 52,
      "hit": false,
      "t": 226627.6041666669,
      "d": 62.5,
      "v": 95
    },
    {
      "midi": 52,
      "hit": false,
      "t": 226747.39583333355,
      "d": 52.083333333343035,
      "v": 93
    },
    {
      "midi": 74,
      "hit": false,
      "t": 226749.99999999988,
      "d": 351.5625,
      "v": 111
    },
    {
      "midi": 40,
      "hit": false,
      "t": 226867.18749999997,
      "d": 65.10416666665697,
      "v": 124
    },
    {
      "midi": 52,
      "hit": false,
      "t": 226872.39583333355,
      "d": 70.3125,
      "v": 93
    },
    {
      "midi": 40,
      "hit": false,
      "t": 226992.18749999997,
      "d": 138.02083333334303,
      "v": 124
    },
    {
      "midi": 52,
      "hit": false,
      "t": 226997.39583333355,
      "d": 54.6875,
      "v": 93
    },
    {
      "midi": 52,
      "hit": false,
      "t": 227125.0000000002,
      "d": 57.291666666656965,
      "v": 93
    },
    {
      "midi": 40,
      "hit": false,
      "t": 227242.18749999997,
      "d": 125,
      "v": 124
    },
    {
      "midi": 52,
      "hit": false,
      "t": 227252.60416666686,
      "d": 54.6875,
      "v": 93
    },
    {
      "midi": 74,
      "hit": false,
      "t": 227260.41666666654,
      "d": 242.1875,
      "v": 111
    },
    {
      "midi": 52,
      "hit": false,
      "t": 227372.39583333352,
      "d": 65.10416666665697,
      "v": 93
    },
    {
      "midi": 40,
      "hit": false,
      "t": 227492.18749999997,
      "d": 153.64583333334303,
      "v": 124
    },
    {
      "midi": 52,
      "hit": false,
      "t": 227502.60416666683,
      "d": 54.6875,
      "v": 93
    },
    {
      "midi": 71,
      "hit": false,
      "t": 227515.62499999988,
      "d": 260.41666666665697,
      "v": 111
    },
    {
      "midi": 52,
      "hit": false,
      "t": 227627.60416666683,
      "d": 31.25,
      "v": 93
    },
    {
      "midi": 40,
      "hit": false,
      "t": 227742.18749999997,
      "d": 125,
      "v": 124
    },
    {
      "midi": 74,
      "hit": false,
      "t": 227752.60416666654,
      "d": 296.875,
      "v": 111
    },
    {
      "midi": 52,
      "hit": false,
      "t": 227752.60416666683,
      "d": 46.875,
      "v": 93
    },
    {
      "midi": 52,
      "hit": false,
      "t": 227877.60416666683,
      "d": 70.3125,
      "v": 93
    },
    {
      "midi": 73,
      "hit": false,
      "t": 227994.7916666669,
      "d": 1846.354166666686,
      "v": 74
    },
    {
      "midi": 69,
      "hit": false,
      "t": 227994.7916666669,
      "d": 1848.958333333343,
      "v": 92
    },
    {
      "midi": 64,
      "hit": false,
      "t": 227994.7916666669,
      "d": 1872.395833333343,
      "v": 72
    },
    {
      "midi": 57,
      "hit": false,
      "t": 227997.39583333355,
      "d": 1830.729166666686,
      "v": 95
    },
    {
      "midi": 45,
      "hit": false,
      "t": 227999.99999999997,
      "d": 354.16666666665697,
      "v": 124
    },
    {
      "midi": 90,
      "hit": false,
      "t": 228002.60416666677,
      "d": 546.875,
      "v": 97
    },
    {
      "midi": 57,
      "hit": false,
      "t": 228002.60416666683,
      "d": 54.6875,
      "v": 93
    },
    {
      "midi": 78,
      "hit": false,
      "t": 228018.22916666654,
      "d": 380.20833333331393,
      "v": 111
    },
    {
      "midi": 57,
      "hit": false,
      "t": 228127.60416666683,
      "d": 59.895833333343035,
      "v": 93
    },
    {
      "midi": 57,
      "hit": false,
      "t": 228252.60416666683,
      "d": 44.270833333343035,
      "v": 93
    },
    {
      "midi": 57,
      "hit": false,
      "t": 228377.60416666683,
      "d": 62.5,
      "v": 93
    },
    {
      "midi": 79,
      "hit": false,
      "t": 228380.2083333332,
      "d": 403.64583333331393,
      "v": 111
    },
    {
      "midi": 45,
      "hit": false,
      "t": 228499.99999999997,
      "d": 260.41666666665697,
      "v": 124
    },
    {
      "midi": 91,
      "hit": false,
      "t": 228502.60416666677,
      "d": 289.0625,
      "v": 95
    },
    {
      "midi": 57,
      "hit": false,
      "t": 228502.60416666683,
      "d": 46.875,
      "v": 93
    },
    {
      "midi": 57,
      "hit": false,
      "t": 228627.60416666683,
      "d": 54.6875,
      "v": 93
    },
    {
      "midi": 88,
      "hit": false,
      "t": 228752.60416666677,
      "d": 1093.75,
      "v": 95
    },
    {
      "midi": 57,
      "hit": false,
      "t": 228752.60416666683,
      "d": 54.6875,
      "v": 93
    },
    {
      "midi": 76,
      "hit": false,
      "t": 228760.4166666665,
      "d": 963.541666666657,
      "v": 111
    },
    {
      "midi": 45,
      "hit": false,
      "t": 228874.99999999997,
      "d": 70.3125,
      "v": 124
    },
    {
      "midi": 57,
      "hit": false,
      "t": 228877.60416666683,
      "d": 59.895833333343035,
      "v": 93
    },
    {
      "midi": 45,
      "hit": false,
      "t": 229002.60416666663,
      "d": 231.77083333334303,
      "v": 124
    },
    {
      "midi": 57,
      "hit": false,
      "t": 229002.60416666683,
      "d": 54.6875,
      "v": 93
    },
    {
      "midi": 81,
      "hit": false,
      "t": 229122.39583333334,
      "d": 171.875,
      "v": 114
    },
    {
      "midi": 69,
      "hit": false,
      "t": 229127.6041666667,
      "d": 177.08333333331393,
      "v": 114
    },
    {
      "midi": 57,
      "hit": false,
      "t": 229127.60416666683,
      "d": 62.5,
      "v": 93
    },
    {
      "midi": 43,
      "hit": false,
      "t": 229249.99999999997,
      "d": 236.97916666665697,
      "v": 124
    },
    {
      "midi": 57,
      "hit": false,
      "t": 229252.60416666683,
      "d": 54.6875,
      "v": 93
    },
    {
      "midi": 66,
      "hit": false,
      "t": 229372.39583333334,
      "d": 78.125,
      "v": 114
    },
    {
      "midi": 78,
      "hit": false,
      "t": 229372.39583333334,
      "d": 174.47916666665697,
      "v": 114
    },
    {
      "midi": 57,
      "hit": false,
      "t": 229377.60416666683,
      "d": 52.083333333343035,
      "v": 93
    },
    {
      "midi": 42,
      "hit": false,
      "t": 229497.39583333328,
      "d": 317.70833333331393,
      "v": 124
    },
    {
      "midi": 64,
      "hit": false,
      "t": 229497.39583333334,
      "d": 132.8124999999709,
      "v": 114
    },
    {
      "midi": 76,
      "hit": false,
      "t": 229500,
      "d": 119.79166666665697,
      "v": 115
    },
    {
      "midi": 57,
      "hit": false,
      "t": 229502.60416666683,
      "d": 52.083333333343035,
      "v": 93
    },
    {
      "midi": 61,
      "hit": false,
      "t": 229622.3958333333,
      "d": 125,
      "v": 114
    },
    {
      "midi": 73,
      "hit": false,
      "t": 229627.60416666666,
      "d": 98.95833333331393,
      "v": 114
    },
    {
      "midi": 57,
      "hit": false,
      "t": 229627.60416666683,
      "d": 62.5,
      "v": 93
    },
    {
      "midi": 40,
      "hit": false,
      "t": 229749.99999999994,
      "d": 289.0625,
      "v": 124
    },
    {
      "midi": 57,
      "hit": false,
      "t": 229752.60416666666,
      "d": 117.1875,
      "v": 115
    },
    {
      "midi": 69,
      "hit": false,
      "t": 229752.60416666666,
      "d": 132.8125,
      "v": 115
    },
    {
      "midi": 57,
      "hit": false,
      "t": 229752.60416666683,
      "d": 46.875,
      "v": 93
    },
    {
      "midi": 57,
      "hit": false,
      "t": 229875.00000000017,
      "d": 46.875,
      "v": 93
    },
    {
      "midi": 78,
      "hit": false,
      "t": 229997.3958333333,
      "d": 1953.125,
      "v": 114
    },
    {
      "midi": 38,
      "hit": false,
      "t": 229999.99999999994,
      "d": 315.10416666665697,
      "v": 126
    },
    {
      "midi": 98,
      "hit": false,
      "t": 230000.00000000012,
      "d": 1976.5625,
      "v": 95
    },
    {
      "midi": 74,
      "hit": false,
      "t": 230000.00000000023,
      "d": 1945.3125,
      "v": 95
    },
    {
      "midi": 78,
      "hit": false,
      "t": 230000.00000000023,
      "d": 2013.020833333343,
      "v": 95
    },
    {
      "midi": 69,
      "hit": false,
      "t": 230000.00000000023,
      "d": 3880.208333333343,
      "v": 92
    },
    {
      "midi": 57,
      "hit": false,
      "t": 230000.00000000023,
      "d": 4000.000000000029,
      "v": 95
    },
    {
      "midi": 66,
      "hit": false,
      "t": 230002.60416666663,
      "d": 1940.104166666686,
      "v": 114
    },
    {
      "midi": 62,
      "hit": false,
      "t": 230002.60416666683,
      "d": 75.52083333334303,
      "v": 91
    },
    {
      "midi": 62,
      "hit": false,
      "t": 230122.39583333352,
      "d": 70.3125,
      "v": 91
    },
    {
      "midi": 62,
      "hit": false,
      "t": 230252.60416666686,
      "d": 39.0625,
      "v": 91
    },
    {
      "midi": 62,
      "hit": false,
      "t": 230372.39583333352,
      "d": 72.91666666665697,
      "v": 91
    },
    {
      "midi": 38,
      "hit": false,
      "t": 230492.18749999994,
      "d": 247.39583333334303,
      "v": 126
    },
    {
      "midi": 62,
      "hit": false,
      "t": 230497.39583333352,
      "d": 70.3125,
      "v": 91
    },
    {
      "midi": 62,
      "hit": false,
      "t": 230622.39583333352,
      "d": 65.10416666665697,
      "v": 91
    },
    {
      "midi": 62,
      "hit": false,
      "t": 230747.39583333352,
      "d": 57.291666666656965,
      "v": 91
    },
    {
      "midi": 38,
      "hit": false,
      "t": 230867.18749999994,
      "d": 57.291666666656965,
      "v": 126
    },
    {
      "midi": 62,
      "hit": false,
      "t": 230872.39583333352,
      "d": 67.70833333334303,
      "v": 91
    },
    {
      "midi": 38,
      "hit": false,
      "t": 230997.39583333326,
      "d": 138.02083333334303,
      "v": 126
    },
    {
      "midi": 62,
      "hit": false,
      "t": 231000.0000000002,
      "d": 57.291666666656965,
      "v": 91
    },
    {
      "midi": 62,
      "hit": false,
      "t": 231125.0000000002,
      "d": 54.6875,
      "v": 91
    },
    {
      "midi": 38,
      "hit": false,
      "t": 231244.7916666666,
      "d": 127.60416666665697,
      "v": 124
    },
    {
      "midi": 62,
      "hit": false,
      "t": 231252.60416666686,
      "d": 54.6875,
      "v": 91
    },
    {
      "midi": 62,
      "hit": false,
      "t": 231375.0000000002,
      "d": 62.5,
      "v": 91
    },
    {
      "midi": 38,
      "hit": false,
      "t": 231494.7916666666,
      "d": 148.4375,
      "v": 124
    },
    {
      "midi": 78,
      "hit": false,
      "t": 231499.99999999994,
      "d": 250,
      "v": 113
    },
    {
      "midi": 62,
      "hit": false,
      "t": 231502.60416666686,
      "d": 59.895833333343035,
      "v": 91
    },
    {
      "midi": 62,
      "hit": false,
      "t": 231627.60416666686,
      "d": 57.291666666656965,
      "v": 91
    },
    {
      "midi": 38,
      "hit": false,
      "t": 231742.18749999994,
      "d": 122.39583333334303,
      "v": 122
    },
    {
      "midi": 62,
      "hit": false,
      "t": 231747.39583333352,
      "d": 59.895833333343035,
      "v": 91
    },
    {
      "midi": 74,
      "hit": false,
      "t": 231749.99999999994,
      "d": 333.33333333334303,
      "v": 113
    },
    {
      "midi": 62,
      "hit": false,
      "t": 231875.0000000002,
      "d": 54.6875,
      "v": 91
    },
    {
      "midi": 33,
      "hit": false,
      "t": 231992.18749999994,
      "d": 330.72916666665697,
      "v": 122
    },
    {
      "midi": 97,
      "hit": false,
      "t": 231992.18750000012,
      "d": 1989.583333333343,
      "v": 95
    },
    {
      "midi": 76,
      "hit": false,
      "t": 231997.39583333358,
      "d": 1911.458333333343,
      "v": 95
    },
    {
      "midi": 76,
      "hit": false,
      "t": 231999.99999999994,
      "d": 395.83333333334303,
      "v": 113
    },
    {
      "midi": 73,
      "hit": false,
      "t": 232000.00000000023,
      "d": 1979.166666666686,
      "v": 95
    },
    {
      "midi": 57,
      "hit": false,
      "t": 232002.60416666686,
      "d": 52.083333333343035,
      "v": 91
    },
    {
      "midi": 57,
      "hit": false,
      "t": 232122.39583333355,
      "d": 78.125,
      "v": 91
    },
    {
      "midi": 57,
      "hit": false,
      "t": 232247.39583333355,
      "d": 52.083333333343035,
      "v": 91
    },
    {
      "midi": 57,
      "hit": false,
      "t": 232372.39583333355,
      "d": 70.3125,
      "v": 91
    },
    {
      "midi": 73,
      "hit": false,
      "t": 232380.20833333328,
      "d": 375,
      "v": 113
    },
    {
      "midi": 33,
      "hit": false,
      "t": 232492.18749999994,
      "d": 276.04166666665697,
      "v": 122
    },
    {
      "midi": 57,
      "hit": false,
      "t": 232502.6041666669,
      "d": 57.291666666656965,
      "v": 91
    },
    {
      "midi": 57,
      "hit": false,
      "t": 232627.6041666669,
      "d": 62.5,
      "v": 91
    },
    {
      "midi": 57,
      "hit": false,
      "t": 232752.6041666669,
      "d": 52.083333333343035,
      "v": 91
    },
    {
      "midi": 69,
      "hit": false,
      "t": 232755.20833333328,
      "d": 783.854166666657,
      "v": 113
    },
    {
      "midi": 33,
      "hit": false,
      "t": 232872.39583333326,
      "d": 78.125,
      "v": 122
    },
    {
      "midi": 57,
      "hit": false,
      "t": 232877.6041666669,
      "d": 62.5,
      "v": 91
    },
    {
      "midi": 33,
      "hit": false,
      "t": 232999.9999999999,
      "d": 161.45833333334303,
      "v": 122
    },
    {
      "midi": 57,
      "hit": false,
      "t": 233002.6041666669,
      "d": 59.895833333343035,
      "v": 91
    },
    {
      "midi": 57,
      "hit": false,
      "t": 233127.6041666669,
      "d": 57.291666666656965,
      "v": 91
    },
    {
      "midi": 33,
      "hit": false,
      "t": 233249.9999999999,
      "d": 138.02083333334303,
      "v": 122
    },
    {
      "midi": 64,
      "hit": false,
      "t": 233252.6041666665,
      "d": 471.35416666665697,
      "v": 115
    },
    {
      "midi": 57,
      "hit": false,
      "t": 233252.6041666669,
      "d": 54.6875,
      "v": 91
    },
    {
      "midi": 57,
      "hit": false,
      "t": 233377.6041666669,
      "d": 70.3125,
      "v": 91
    },
    {
      "midi": 33,
      "hit": false,
      "t": 233497.39583333326,
      "d": 145.83333333334303,
      "v": 122
    },
    {
      "midi": 57,
      "hit": false,
      "t": 233505.20833333355,
      "d": 52.083333333343035,
      "v": 91
    },
    {
      "midi": 57,
      "hit": false,
      "t": 233627.6041666669,
      "d": 39.0625,
      "v": 91
    },
    {
      "midi": 61,
      "hit": false,
      "t": 233747.39583333317,
      "d": 289.0625,
      "v": 115
    },
    {
      "midi": 33,
      "hit": false,
      "t": 233747.39583333326,
      "d": 111.97916666665697,
      "v": 122
    },
    {
      "midi": 57,
      "hit": false,
      "t": 233752.6041666669,
      "d": 49.479166666656965,
      "v": 91
    },
    {
      "midi": 57,
      "hit": false,
      "t": 233877.6041666669,
      "d": 75.52083333334303,
      "v": 91
    },
    {
      "midi": 35,
      "hit": false,
      "t": 233997.39583333326,
      "d": 328.125,
      "v": 122
    },
    {
      "midi": 71,
      "hit": false,
      "t": 234000.00000000026,
      "d": 1953.125,
      "v": 97
    },
    {
      "midi": 62,
      "hit": false,
      "t": 234002.60416666663,
      "d": 1968.75,
      "v": 123
    },
    {
      "midi": 74,
      "hit": false,
      "t": 234002.60416666663,
      "d": 1971.354166666657,
      "v": 123
    },
    {
      "midi": 59,
      "hit": false,
      "t": 234002.6041666669,
      "d": 59.895833333343035,
      "v": 91
    },
    {
      "midi": 74,
      "hit": false,
      "t": 234002.60416666692,
      "d": 1986.979166666686,
      "v": 97
    },
    {
      "midi": 66,
      "hit": false,
      "t": 234002.60416666692,
      "d": 3807.291666666715,
      "v": 97
    },
    {
      "midi": 54,
      "hit": false,
      "t": 234002.60416666692,
      "d": 4000.0000000000873,
      "v": 97
    },
    {
      "midi": 62,
      "hit": false,
      "t": 234005.20833333317,
      "d": 1182.291666666657,
      "v": 115
    },
    {
      "midi": 95,
      "hit": false,
      "t": 234005.20833333346,
      "d": 2000,
      "v": 93
    },
    {
      "midi": 59,
      "hit": false,
      "t": 234127.6041666669,
      "d": 62.5,
      "v": 91
    },
    {
      "midi": 59,
      "hit": false,
      "t": 234252.6041666669,
      "d": 52.083333333343035,
      "v": 91
    },
    {
      "midi": 59,
      "hit": false,
      "t": 234377.6041666669,
      "d": 62.5,
      "v": 91
    },
    {
      "midi": 35,
      "hit": false,
      "t": 234497.39583333326,
      "d": 260.41666666665697,
      "v": 124
    },
    {
      "midi": 59,
      "hit": false,
      "t": 234502.6041666669,
      "d": 49.479166666656965,
      "v": 91
    },
    {
      "midi": 59,
      "hit": false,
      "t": 234627.6041666669,
      "d": 75.52083333334303,
      "v": 91
    },
    {
      "midi": 59,
      "hit": false,
      "t": 234752.6041666669,
      "d": 46.875,
      "v": 95
    },
    {
      "midi": 35,
      "hit": false,
      "t": 234872.39583333326,
      "d": 65.10416666665697,
      "v": 124
    },
    {
      "midi": 59,
      "hit": false,
      "t": 234877.6041666669,
      "d": 62.5,
      "v": 95
    },
    {
      "midi": 35,
      "hit": false,
      "t": 234999.9999999999,
      "d": 145.83333333334303,
      "v": 124
    },
    {
      "midi": 59,
      "hit": false,
      "t": 235002.6041666669,
      "d": 54.6875,
      "v": 95
    },
    {
      "midi": 59,
      "hit": false,
      "t": 235127.6041666669,
      "d": 67.70833333334303,
      "v": 95
    },
    {
      "midi": 59,
      "hit": false,
      "t": 235247.39583333358,
      "d": 59.895833333343035,
      "v": 95
    },
    {
      "midi": 35,
      "hit": false,
      "t": 235249.9999999999,
      "d": 132.8125,
      "v": 124
    },
    {
      "midi": 59,
      "hit": false,
      "t": 235372.39583333358,
      "d": 62.5,
      "v": 95
    },
    {
      "midi": 35,
      "hit": false,
      "t": 235497.39583333326,
      "d": 122.39583333334303,
      "v": 124
    },
    {
      "midi": 59,
      "hit": false,
      "t": 235497.39583333358,
      "d": 59.895833333343035,
      "v": 95
    },
    {
      "midi": 74,
      "hit": false,
      "t": 235502.6041666666,
      "d": 244.79166666665697,
      "v": 113
    },
    {
      "midi": 59,
      "hit": false,
      "t": 235622.39583333358,
      "d": 59.895833333343035,
      "v": 95
    },
    {
      "midi": 35,
      "hit": false,
      "t": 235742.18749999994,
      "d": 114.58333333334303,
      "v": 124
    },
    {
      "midi": 59,
      "hit": false,
      "t": 235744.79166666692,
      "d": 65.10416666665697,
      "v": 95
    },
    {
      "midi": 71,
      "hit": false,
      "t": 235752.6041666666,
      "d": 294.27083333334303,
      "v": 113
    },
    {
      "midi": 59,
      "hit": false,
      "t": 235872.39583333358,
      "d": 57.291666666656965,
      "v": 95
    },
    {
      "midi": 30,
      "hit": false,
      "t": 235992.18749999994,
      "d": 276.04166666665697,
      "v": 124
    },
    {
      "midi": 73,
      "hit": false,
      "t": 235994.79166666695,
      "d": 1929.687500000029,
      "v": 95
    },
    {
      "midi": 54,
      "hit": false,
      "t": 235997.39583333358,
      "d": 52.083333333343035,
      "v": 95
    },
    {
      "midi": 93,
      "hit": false,
      "t": 236000.00000000012,
      "d": 2010.416666666686,
      "v": 93
    },
    {
      "midi": 69,
      "hit": false,
      "t": 236000.0000000003,
      "d": 1953.125000000029,
      "v": 95
    },
    {
      "midi": 73,
      "hit": false,
      "t": 236002.6041666666,
      "d": 375,
      "v": 113
    },
    {
      "midi": 54,
      "hit": false,
      "t": 236122.39583333358,
      "d": 65.10416666665697,
      "v": 95
    },
    {
      "midi": 54,
      "hit": false,
      "t": 236247.39583333358,
      "d": 52.083333333343035,
      "v": 95
    },
    {
      "midi": 69,
      "hit": false,
      "t": 236374.99999999994,
      "d": 375,
      "v": 113
    },
    {
      "midi": 54,
      "hit": false,
      "t": 236375.00000000026,
      "d": 62.5,
      "v": 95
    },
    {
      "midi": 30,
      "hit": false,
      "t": 236492.18749999994,
      "d": 247.39583333334303,
      "v": 124
    },
    {
      "midi": 54,
      "hit": false,
      "t": 236497.3958333336,
      "d": 54.6875,
      "v": 95
    },
    {
      "midi": 54,
      "hit": false,
      "t": 236622.3958333336,
      "d": 70.3125,
      "v": 95
    },
    {
      "midi": 54,
      "hit": false,
      "t": 236747.3958333336,
      "d": 49.479166666656965,
      "v": 95
    },
    {
      "midi": 66,
      "hit": false,
      "t": 236752.6041666666,
      "d": 611.979166666657,
      "v": 111
    },
    {
      "midi": 30,
      "hit": false,
      "t": 236867.18749999994,
      "d": 59.895833333343035,
      "v": 124
    },
    {
      "midi": 54,
      "hit": false,
      "t": 236869.79166666692,
      "d": 70.3125,
      "v": 95
    },
    {
      "midi": 30,
      "hit": false,
      "t": 236992.18749999994,
      "d": 130.20833333334303,
      "v": 124
    },
    {
      "midi": 54,
      "hit": false,
      "t": 236997.39583333358,
      "d": 49.479166666656965,
      "v": 95
    },
    {
      "midi": 54,
      "hit": false,
      "t": 237122.39583333358,
      "d": 62.5,
      "v": 95
    },
    {
      "midi": 81,
      "hit": false,
      "t": 237124.99999999994,
      "d": 153.64583333334303,
      "v": 126
    },
    {
      "midi": 69,
      "hit": false,
      "t": 237124.99999999994,
      "d": 166.66666666668607,
      "v": 126
    },
    {
      "midi": 30,
      "hit": false,
      "t": 237242.18749999994,
      "d": 122.39583333334303,
      "v": 124
    },
    {
      "midi": 64,
      "hit": false,
      "t": 237247.39583333317,
      "d": 500,
      "v": 114
    },
    {
      "midi": 54,
      "hit": false,
      "t": 237247.39583333358,
      "d": 54.6875,
      "v": 95
    },
    {
      "midi": 54,
      "hit": false,
      "t": 237369.79166666692,
      "d": 70.3125,
      "v": 95
    },
    {
      "midi": 79,
      "hit": false,
      "t": 237380.20833333328,
      "d": 145.83333333334303,
      "v": 126
    },
    {
      "midi": 67,
      "hit": false,
      "t": 237380.20833333328,
      "d": 151.04166666668607,
      "v": 126
    },
    {
      "midi": 30,
      "hit": false,
      "t": 237492.18749999994,
      "d": 130.20833333334303,
      "v": 124
    },
    {
      "midi": 54,
      "hit": false,
      "t": 237497.39583333358,
      "d": 57.291666666656965,
      "v": 95
    },
    {
      "midi": 66,
      "hit": false,
      "t": 237505.20833333328,
      "d": 270.83333333334303,
      "v": 126
    },
    {
      "midi": 78,
      "hit": false,
      "t": 237505.20833333328,
      "d": 270.83333333334303,
      "v": 126
    },
    {
      "midi": 54,
      "hit": false,
      "t": 237625.00000000023,
      "d": 44.270833333343035,
      "v": 95
    },
    {
      "midi": 30,
      "hit": false,
      "t": 237742.18749999994,
      "d": 125,
      "v": 124
    },
    {
      "midi": 54,
      "hit": false,
      "t": 237747.39583333358,
      "d": 52.083333333343035,
      "v": 95
    },
    {
      "midi": 61,
      "hit": false,
      "t": 237749.99999999983,
      "d": 250,
      "v": 114
    },
    {
      "midi": 54,
      "hit": false,
      "t": 237872.39583333358,
      "d": 67.70833333334303,
      "v": 95
    },
    {
      "midi": 31,
      "hit": false,
      "t": 237997.39583333328,
      "d": 325.52083333334303,
      "v": 124
    },
    {
      "midi": 55,
      "hit": false,
      "t": 237997.39583333358,
      "d": 57.291666666656965,
      "v": 95
    },
    {
      "midi": 67,
      "hit": false,
      "t": 237997.39583333366,
      "d": 1867.1875,
      "v": 80
    },
    {
      "midi": 71,
      "hit": false,
      "t": 237997.39583333366,
      "d": 2000,
      "v": 86
    },
    {
      "midi": 50,
      "hit": false,
      "t": 237997.39583333366,
      "d": 4023.4375,
      "v": 74
    },
    {
      "midi": 62,
      "hit": false,
      "t": 237999.99999999983,
      "d": 1231.770833333343,
      "v": 114
    },
    {
      "midi": 71,
      "hit": false,
      "t": 238002.60416666663,
      "d": 1833.333333333314,
      "v": 115
    },
    {
      "midi": 59,
      "hit": false,
      "t": 238002.60416666663,
      "d": 1848.958333333314,
      "v": 62
    },
    {
      "midi": 62,
      "hit": false,
      "t": 238002.604166667,
      "d": 3809.895833333314,
      "v": 97
    },
    {
      "midi": 57,
      "hit": false,
      "t": 238005.20833333328,
      "d": 41.666666666656965,
      "v": 125
    },
    {
      "midi": 91,
      "hit": false,
      "t": 238005.20833333346,
      "d": 2007.8125,
      "v": 95
    },
    {
      "midi": 55,
      "hit": false,
      "t": 238122.39583333358,
      "d": 59.895833333343035,
      "v": 95
    },
    {
      "midi": 55,
      "hit": false,
      "t": 238247.39583333358,
      "d": 54.6875,
      "v": 95
    },
    {
      "midi": 55,
      "hit": false,
      "t": 238372.39583333358,
      "d": 59.895833333343035,
      "v": 95
    },
    {
      "midi": 31,
      "hit": false,
      "t": 238497.39583333328,
      "d": 236.97916666665697,
      "v": 124
    },
    {
      "midi": 55,
      "hit": false,
      "t": 238497.39583333358,
      "d": 52.083333333343035,
      "v": 95
    },
    {
      "midi": 55,
      "hit": false,
      "t": 238627.60416666692,
      "d": 59.895833333343035,
      "v": 95
    },
    {
      "midi": 55,
      "hit": false,
      "t": 238747.3958333336,
      "d": 54.6875,
      "v": 95
    },
    {
      "midi": 31,
      "hit": false,
      "t": 238867.18749999994,
      "d": 65.10416666665697,
      "v": 124
    },
    {
      "midi": 55,
      "hit": false,
      "t": 238875.00000000026,
      "d": 59.895833333343035,
      "v": 95
    },
    {
      "midi": 31,
      "hit": false,
      "t": 238992.18749999994,
      "d": 145.83333333334303,
      "v": 124
    },
    {
      "midi": 55,
      "hit": false,
      "t": 239000.00000000026,
      "d": 59.895833333343035,
      "v": 95
    },
    {
      "midi": 55,
      "hit": false,
      "t": 239127.60416666695,
      "d": 67.70833333334303,
      "v": 95
    },
    {
      "midi": 31,
      "hit": false,
      "t": 239247.39583333328,
      "d": 135.41666666665697,
      "v": 124
    },
    {
      "midi": 55,
      "hit": false,
      "t": 239252.60416666695,
      "d": 57.291666666656965,
      "v": 95
    },
    {
      "midi": 55,
      "hit": false,
      "t": 239372.3958333336,
      "d": 78.125,
      "v": 95
    },
    {
      "midi": 31,
      "hit": false,
      "t": 239497.39583333328,
      "d": 140.625,
      "v": 124
    },
    {
      "midi": 55,
      "hit": false,
      "t": 239497.3958333336,
      "d": 62.5,
      "v": 95
    },
    {
      "midi": 67,
      "hit": false,
      "t": 239502.6041666666,
      "d": 151.04166666665697,
      "v": 109
    },
    {
      "midi": 55,
      "hit": false,
      "t": 239627.60416666695,
      "d": 67.70833333334303,
      "v": 95
    },
    {
      "midi": 31,
      "hit": false,
      "t": 239747.39583333328,
      "d": 125,
      "v": 124
    },
    {
      "midi": 55,
      "hit": false,
      "t": 239747.39583333363,
      "d": 57.291666666656965,
      "v": 95
    },
    {
      "midi": 67,
      "hit": false,
      "t": 239749.9999999999,
      "d": 231.77083333334303,
      "v": 109
    },
    {
      "midi": 55,
      "hit": false,
      "t": 239872.39583333363,
      "d": 59.895833333343035,
      "v": 95
    },
    {
      "midi": 66,
      "hit": false,
      "t": 239994.791666667,
      "d": 1846.354166666657,
      "v": 93
    },
    {
      "midi": 69,
      "hit": false,
      "t": 239994.791666667,
      "d": 1960.9375,
      "v": 93
    },
    {
      "midi": 38,
      "hit": false,
      "t": 239997.39583333328,
      "d": 299.47916666665697,
      "v": 124
    },
    {
      "midi": 50,
      "hit": false,
      "t": 239997.39583333363,
      "d": 49.479166666656965,
      "v": 95
    },
    {
      "midi": 90,
      "hit": false,
      "t": 240002.6041666668,
      "d": 2031.25,
      "v": 97
    },
    {
      "midi": 66,
      "hit": false,
      "t": 240005.20833333326,
      "d": 500,
      "v": 109
    },
    {
      "midi": 50,
      "hit": false,
      "t": 240127.60416666695,
      "d": 62.5,
      "v": 95
    },
    {
      "midi": 50,
      "hit": false,
      "t": 240247.3958333336,
      "d": 49.479166666656965,
      "v": 95
    },
    {
      "midi": 50,
      "hit": false,
      "t": 240372.3958333336,
      "d": 59.895833333343035,
      "v": 95
    },
    {
      "midi": 38,
      "hit": false,
      "t": 240497.39583333328,
      "d": 213.54166666665697,
      "v": 124
    },
    {
      "midi": 69,
      "hit": false,
      "t": 240499.9999999999,
      "d": 250,
      "v": 109
    },
    {
      "midi": 50,
      "hit": false,
      "t": 240500.0000000003,
      "d": 52.083333333343035,
      "v": 95
    },
    {
      "midi": 50,
      "hit": false,
      "t": 240627.60416666698,
      "d": 65.10416666665697,
      "v": 95
    },
    {
      "midi": 50,
      "hit": false,
      "t": 240752.60416666698,
      "d": 52.083333333343035,
      "v": 95
    },
    {
      "midi": 74,
      "hit": false,
      "t": 240755.20833333326,
      "d": 848.958333333343,
      "v": 109
    },
    {
      "midi": 38,
      "hit": false,
      "t": 240867.18749999994,
      "d": 57.291666666656965,
      "v": 124
    },
    {
      "midi": 50,
      "hit": false,
      "t": 240877.60416666698,
      "d": 62.5,
      "v": 95
    },
    {
      "midi": 38,
      "hit": false,
      "t": 240992.18749999994,
      "d": 138.02083333334303,
      "v": 124
    },
    {
      "midi": 50,
      "hit": false,
      "t": 241002.60416666698,
      "d": 54.6875,
      "v": 95
    },
    {
      "midi": 50,
      "hit": false,
      "t": 241127.60416666698,
      "d": 67.70833333334303,
      "v": 95
    },
    {
      "midi": 38,
      "hit": false,
      "t": 241244.79166666663,
      "d": 119.79166666665697,
      "v": 124
    },
    {
      "midi": 64,
      "hit": false,
      "t": 241247.39583333317,
      "d": 507.8125,
      "v": 121
    },
    {
      "midi": 62,
      "hit": false,
      "t": 241247.39583333328,
      "d": 164.0625,
      "v": 123
    },
    {
      "midi": 74,
      "hit": false,
      "t": 241247.39583333328,
      "d": 171.875,
      "v": 123
    },
    {
      "midi": 50,
      "hit": false,
      "t": 241252.60416666698,
      "d": 54.6875,
      "v": 95
    },
    {
      "midi": 76,
      "hit": false,
      "t": 241372.39583333328,
      "d": 140.625,
      "v": 123
    },
    {
      "midi": 64,
      "hit": false,
      "t": 241377.60416666663,
      "d": 138.02083333331393,
      "v": 123
    },
    {
      "midi": 50,
      "hit": false,
      "t": 241377.60416666698,
      "d": 78.125,
      "v": 95
    },
    {
      "midi": 38,
      "hit": false,
      "t": 241497.39583333328,
      "d": 140.625,
      "v": 124
    },
    {
      "midi": 66,
      "hit": false,
      "t": 241497.39583333328,
      "d": 119.79166666665697,
      "v": 123
    },
    {
      "midi": 78,
      "hit": false,
      "t": 241497.39583333328,
      "d": 143.22916666665697,
      "v": 123
    },
    {
      "midi": 50,
      "hit": false,
      "t": 241502.60416666698,
      "d": 54.6875,
      "v": 95
    },
    {
      "midi": 79,
      "hit": false,
      "t": 241622.39583333328,
      "d": 158.85416666665697,
      "v": 123
    },
    {
      "midi": 67,
      "hit": false,
      "t": 241622.39583333328,
      "d": 161.45833333331393,
      "v": 123
    },
    {
      "midi": 50,
      "hit": false,
      "t": 241627.60416666698,
      "d": 70.3125,
      "v": 95
    },
    {
      "midi": 61,
      "hit": false,
      "t": 241744.7916666665,
      "d": 359.375,
      "v": 118
    },
    {
      "midi": 38,
      "hit": false,
      "t": 241744.79166666663,
      "d": 135.41666666665697,
      "v": 124
    },
    {
      "midi": 78,
      "hit": false,
      "t": 241747.39583333328,
      "d": 252.60416666665697,
      "v": 123
    },
    {
      "midi": 66,
      "hit": false,
      "t": 241747.39583333328,
      "d": 286.45833333331393,
      "v": 123
    },
    {
      "midi": 50,
      "hit": false,
      "t": 241752.60416666698,
      "d": 54.6875,
      "v": 95
    },
    {
      "midi": 50,
      "hit": false,
      "t": 241877.60416666698,
      "d": 70.3125,
      "v": 95
    },
    {
      "midi": 64,
      "hit": false,
      "t": 241994.791666667,
      "d": 1890.625,
      "v": 72
    },
    {
      "midi": 40,
      "hit": false,
      "t": 241997.39583333328,
      "d": 315.10416666665697,
      "v": 124
    },
    {
      "midi": 67,
      "hit": false,
      "t": 241997.39583333366,
      "d": 1820.3125,
      "v": 97
    },
    {
      "midi": 52,
      "hit": false,
      "t": 241997.39583333366,
      "d": 2005.208333333343,
      "v": 97
    },
    {
      "midi": 71,
      "hit": false,
      "t": 241997.39583333366,
      "d": 2018.229166666686,
      "v": 97
    },
    {
      "midi": 74,
      "hit": false,
      "t": 241999.99999999994,
      "d": 1906.25,
      "v": 109
    },
    {
      "midi": 62,
      "hit": false,
      "t": 242002.6041666666,
      "d": 1906.25,
      "v": 123
    },
    {
      "midi": 88,
      "hit": false,
      "t": 242002.6041666668,
      "d": 2039.0625,
      "v": 95
    },
    {
      "midi": 52,
      "hit": false,
      "t": 242002.60416666698,
      "d": 57.291666666656965,
      "v": 95
    },
    {
      "midi": 62,
      "hit": false,
      "t": 242005.20833333317,
      "d": 1281.25,
      "v": 118
    },
    {
      "midi": 52,
      "hit": false,
      "t": 242127.60416666698,
      "d": 59.895833333343035,
      "v": 95
    },
    {
      "midi": 52,
      "hit": false,
      "t": 242247.39583333366,
      "d": 46.875,
      "v": 95
    },
    {
      "midi": 52,
      "hit": false,
      "t": 242372.39583333366,
      "d": 65.10416666665697,
      "v": 95
    },
    {
      "midi": 40,
      "hit": false,
      "t": 242492.18749999994,
      "d": 239.58333333334303,
      "v": 124
    },
    {
      "midi": 52,
      "hit": false,
      "t": 242497.39583333366,
      "d": 52.083333333343035,
      "v": 95
    },
    {
      "midi": 52,
      "hit": false,
      "t": 242627.604166667,
      "d": 62.5,
      "v": 95
    },
    {
      "midi": 52,
      "hit": false,
      "t": 242747.39583333366,
      "d": 52.083333333343035,
      "v": 93
    },
    {
      "midi": 74,
      "hit": false,
      "t": 242749.99999999994,
      "d": 351.5625,
      "v": 111
    },
    {
      "midi": 40,
      "hit": false,
      "t": 242867.18749999994,
      "d": 65.10416666665697,
      "v": 124
    },
    {
      "midi": 52,
      "hit": false,
      "t": 242872.39583333366,
      "d": 70.3125,
      "v": 93
    },
    {
      "midi": 40,
      "hit": false,
      "t": 242992.18749999994,
      "d": 138.02083333334303,
      "v": 124
    },
    {
      "midi": 52,
      "hit": false,
      "t": 242997.39583333366,
      "d": 54.6875,
      "v": 93
    },
    {
      "midi": 52,
      "hit": false,
      "t": 243125.00000000032,
      "d": 57.291666666656965,
      "v": 93
    },
    {
      "midi": 40,
      "hit": false,
      "t": 243242.18749999994,
      "d": 125,
      "v": 124
    },
    {
      "midi": 52,
      "hit": false,
      "t": 243252.60416666698,
      "d": 54.6875,
      "v": 93
    },
    {
      "midi": 74,
      "hit": false,
      "t": 243260.4166666666,
      "d": 242.1875,
      "v": 111
    },
    {
      "midi": 52,
      "hit": false,
      "t": 243372.39583333363,
      "d": 65.10416666665697,
      "v": 93
    },
    {
      "midi": 40,
      "hit": false,
      "t": 243492.18749999994,
      "d": 153.64583333334303,
      "v": 124
    },
    {
      "midi": 52,
      "hit": false,
      "t": 243502.60416666695,
      "d": 54.6875,
      "v": 93
    },
    {
      "midi": 71,
      "hit": false,
      "t": 243515.62499999994,
      "d": 260.41666666665697,
      "v": 111
    },
    {
      "midi": 52,
      "hit": false,
      "t": 243627.60416666695,
      "d": 31.25,
      "v": 93
    },
    {
      "midi": 40,
      "hit": false,
      "t": 243742.18749999994,
      "d": 125,
      "v": 124
    },
    {
      "midi": 74,
      "hit": false,
      "t": 243752.6041666666,
      "d": 296.875,
      "v": 111
    },
    {
      "midi": 52,
      "hit": false,
      "t": 243752.60416666695,
      "d": 46.875,
      "v": 93
    },
    {
      "midi": 52,
      "hit": false,
      "t": 243877.60416666695,
      "d": 70.3125,
      "v": 93
    },
    {
      "midi": 73,
      "hit": false,
      "t": 243994.791666667,
      "d": 1846.354166666686,
      "v": 74
    },
    {
      "midi": 69,
      "hit": false,
      "t": 243994.791666667,
      "d": 1848.958333333343,
      "v": 92
    },
    {
      "midi": 64,
      "hit": false,
      "t": 243994.791666667,
      "d": 1872.395833333343,
      "v": 72
    },
    {
      "midi": 57,
      "hit": false,
      "t": 243997.39583333366,
      "d": 1830.729166666686,
      "v": 95
    },
    {
      "midi": 33,
      "hit": false,
      "t": 243999.99999999994,
      "d": 354.16666666665697,
      "v": 124
    },
    {
      "midi": 69,
      "hit": false,
      "t": 244002.6041666666,
      "d": 83.33333333331393,
      "v": 115
    },
    {
      "midi": 90,
      "hit": false,
      "t": 244002.6041666668,
      "d": 546.875,
      "v": 97
    },
    {
      "midi": 57,
      "hit": false,
      "t": 244002.60416666695,
      "d": 54.6875,
      "v": 93
    },
    {
      "midi": 57,
      "hit": false,
      "t": 244005.20833333326,
      "d": 65.10416666665697,
      "v": 125
    },
    {
      "midi": 78,
      "hit": false,
      "t": 244018.2291666666,
      "d": 380.20833333331393,
      "v": 111
    },
    {
      "midi": 57,
      "hit": false,
      "t": 244127.60416666695,
      "d": 59.895833333343035,
      "v": 93
    },
    {
      "midi": 57,
      "hit": false,
      "t": 244130.20833333326,
      "d": 122.39583333334303,
      "v": 125
    },
    {
      "midi": 69,
      "hit": false,
      "t": 244130.20833333326,
      "d": 132.8125,
      "v": 125
    },
    {
      "midi": 57,
      "hit": false,
      "t": 244252.60416666695,
      "d": 44.270833333343035,
      "v": 93
    },
    {
      "midi": 69,
      "hit": false,
      "t": 244377.6041666666,
      "d": 85.9374999999709,
      "v": 104
    },
    {
      "midi": 57,
      "hit": false,
      "t": 244377.60416666695,
      "d": 62.5,
      "v": 93
    },
    {
      "midi": 79,
      "hit": false,
      "t": 244380.20833333326,
      "d": 403.64583333331393,
      "v": 111
    },
    {
      "midi": 57,
      "hit": false,
      "t": 244380.20833333326,
      "d": 65.10416666665697,
      "v": 125
    },
    {
      "midi": 33,
      "hit": false,
      "t": 244499.99999999994,
      "d": 260.41666666665697,
      "v": 124
    },
    {
      "midi": 91,
      "hit": false,
      "t": 244502.6041666668,
      "d": 289.0625,
      "v": 95
    },
    {
      "midi": 57,
      "hit": false,
      "t": 244502.60416666695,
      "d": 46.875,
      "v": 93
    },
    {
      "midi": 57,
      "hit": false,
      "t": 244505.20833333323,
      "d": 106.77083333334303,
      "v": 125
    },
    {
      "midi": 69,
      "hit": false,
      "t": 244505.20833333323,
      "d": 117.1875,
      "v": 125
    },
    {
      "midi": 57,
      "hit": false,
      "t": 244627.60416666695,
      "d": 54.6875,
      "v": 93
    },
    {
      "midi": 57,
      "hit": false,
      "t": 244752.60416666657,
      "d": 52.083333333343035,
      "v": 125
    },
    {
      "midi": 69,
      "hit": false,
      "t": 244752.60416666657,
      "d": 80.72916666668607,
      "v": 125
    },
    {
      "midi": 88,
      "hit": false,
      "t": 244752.6041666668,
      "d": 1093.75,
      "v": 95
    },
    {
      "midi": 57,
      "hit": false,
      "t": 244752.60416666695,
      "d": 54.6875,
      "v": 93
    },
    {
      "midi": 76,
      "hit": false,
      "t": 244760.41666666657,
      "d": 963.541666666657,
      "v": 111
    },
    {
      "midi": 33,
      "hit": false,
      "t": 244874.99999999994,
      "d": 70.3125,
      "v": 124
    },
    {
      "midi": 69,
      "hit": false,
      "t": 244877.6041666666,
      "d": 114.58333333334303,
      "v": 125
    },
    {
      "midi": 57,
      "hit": false,
      "t": 244877.6041666666,
      "d": 119.79166666668607,
      "v": 125
    },
    {
      "midi": 57,
      "hit": false,
      "t": 244877.60416666695,
      "d": 59.895833333343035,
      "v": 93
    },
    {
      "midi": 33,
      "hit": false,
      "t": 245002.6041666666,
      "d": 231.77083333334303,
      "v": 124
    },
    {
      "midi": 57,
      "hit": false,
      "t": 245002.60416666695,
      "d": 54.6875,
      "v": 93
    },
    {
      "midi": 57,
      "hit": false,
      "t": 245122.39583333328,
      "d": 59.895833333343035,
      "v": 125
    },
    {
      "midi": 69,
      "hit": false,
      "t": 245122.39583333328,
      "d": 88.54166666668607,
      "v": 125
    },
    {
      "midi": 57,
      "hit": false,
      "t": 245127.60416666695,
      "d": 62.5,
      "v": 93
    },
    {
      "midi": 33,
      "hit": false,
      "t": 245249.99999999994,
      "d": 236.97916666665697,
      "v": 124
    },
    {
      "midi": 69,
      "hit": false,
      "t": 245252.60416666663,
      "d": 166.66666666665697,
      "v": 125
    },
    {
      "midi": 57,
      "hit": false,
      "t": 245252.60416666663,
      "d": 174.47916666665697,
      "v": 125
    },
    {
      "midi": 57,
      "hit": false,
      "t": 245252.60416666695,
      "d": 54.6875,
      "v": 93
    },
    {
      "midi": 57,
      "hit": false,
      "t": 245377.60416666695,
      "d": 52.083333333343035,
      "v": 93
    },
    {
      "midi": 74,
      "hit": false,
      "t": 245497.39583333328,
      "d": 273.4374999999709,
      "v": 125
    },
    {
      "midi": 35,
      "hit": false,
      "t": 245499.99999999994,
      "d": 317.70833333334303,
      "v": 124
    },
    {
      "midi": 62,
      "hit": false,
      "t": 245499.99999999994,
      "d": 294.27083333331393,
      "v": 125
    },
    {
      "midi": 69,
      "hit": false,
      "t": 245502.60416666657,
      "d": 335.9375,
      "v": 115
    },
    {
      "midi": 57,
      "hit": false,
      "t": 245502.60416666695,
      "d": 52.083333333343035,
      "v": 93
    },
    {
      "midi": 57,
      "hit": false,
      "t": 245505.20833333323,
      "d": 463.54166666668607,
      "v": 114
    },
    {
      "midi": 57,
      "hit": false,
      "t": 245627.60416666695,
      "d": 62.5,
      "v": 93
    },
    {
      "midi": 37,
      "hit": false,
      "t": 245749.99999999994,
      "d": 289.0625,
      "v": 124
    },
    {
      "midi": 76,
      "hit": false,
      "t": 245752.6041666666,
      "d": 229.16666666665697,
      "v": 125
    },
    {
      "midi": 64,
      "hit": false,
      "t": 245752.6041666666,
      "d": 239.58333333331393,
      "v": 125
    },
    {
      "midi": 57,
      "hit": false,
      "t": 245752.60416666695,
      "d": 46.875,
      "v": 93
    },
    {
      "midi": 57,
      "hit": false,
      "t": 245875.0000000003,
      "d": 46.875,
      "v": 93
    },
    {
      "midi": 78,
      "hit": false,
      "t": 245999.9999999999,
      "d": 125,
      "v": 121
    },
    {
      "midi": 38,
      "hit": false,
      "t": 245999.99999999994,
      "d": 315.10416666665697,
      "v": 126
    },
    {
      "midi": 98,
      "hit": false,
      "t": 246000.00000000015,
      "d": 1976.5625,
      "v": 95
    },
    {
      "midi": 74,
      "hit": false,
      "t": 246000.00000000035,
      "d": 1945.3125,
      "v": 95
    },
    {
      "midi": 78,
      "hit": false,
      "t": 246000.00000000035,
      "d": 2013.020833333343,
      "v": 95
    },
    {
      "midi": 69,
      "hit": false,
      "t": 246000.00000000035,
      "d": 3880.208333333343,
      "v": 92
    },
    {
      "midi": 57,
      "hit": false,
      "t": 246000.00000000035,
      "d": 4000.000000000029,
      "v": 95
    },
    {
      "midi": 74,
      "hit": false,
      "t": 246002.60416666657,
      "d": 1210.9375,
      "v": 98
    },
    {
      "midi": 69,
      "hit": false,
      "t": 246002.60416666657,
      "d": 1213.541666666657,
      "v": 109
    },
    {
      "midi": 66,
      "hit": false,
      "t": 246002.60416666657,
      "d": 1999.9999999999127,
      "v": 127
    },
    {
      "midi": 62,
      "hit": false,
      "t": 246002.60416666695,
      "d": 75.52083333334303,
      "v": 91
    },
    {
      "midi": 78,
      "hit": false,
      "t": 246005.20833333323,
      "d": 1210.9375,
      "v": 114
    },
    {
      "midi": 62,
      "hit": false,
      "t": 246005.20833333323,
      "d": 1273.4375,
      "v": 114
    },
    {
      "midi": 62,
      "hit": false,
      "t": 246122.39583333363,
      "d": 70.3125,
      "v": 91
    },
    {
      "midi": 78,
      "hit": false,
      "t": 246252.60416666657,
      "d": 75.52083333331393,
      "v": 92
    },
    {
      "midi": 62,
      "hit": false,
      "t": 246252.60416666698,
      "d": 39.0625,
      "v": 91
    },
    {
      "midi": 81,
      "hit": false,
      "t": 246255.20833333323,
      "d": 65.10416666665697,
      "v": 126
    },
    {
      "midi": 62,
      "hit": false,
      "t": 246372.39583333363,
      "d": 72.91666666665697,
      "v": 91
    },
    {
      "midi": 81,
      "hit": false,
      "t": 246380.20833333323,
      "d": 119.79166666665697,
      "v": 127
    },
    {
      "midi": 78,
      "hit": false,
      "t": 246380.20833333323,
      "d": 127.60416666665697,
      "v": 127
    },
    {
      "midi": 38,
      "hit": false,
      "t": 246492.18749999994,
      "d": 247.39583333334303,
      "v": 126
    },
    {
      "midi": 62,
      "hit": false,
      "t": 246497.39583333363,
      "d": 70.3125,
      "v": 91
    },
    {
      "midi": 62,
      "hit": false,
      "t": 246622.39583333363,
      "d": 65.10416666665697,
      "v": 91
    },
    {
      "midi": 78,
      "hit": false,
      "t": 246627.60416666654,
      "d": 78.125,
      "v": 127
    },
    {
      "midi": 81,
      "hit": false,
      "t": 246627.60416666654,
      "d": 83.33333333334303,
      "v": 127
    },
    {
      "midi": 62,
      "hit": false,
      "t": 246747.39583333363,
      "d": 57.291666666656965,
      "v": 91
    },
    {
      "midi": 76,
      "hit": false,
      "t": 246752.60416666654,
      "d": 125,
      "v": 126
    },
    {
      "midi": 79,
      "hit": false,
      "t": 246752.60416666654,
      "d": 151.04166666665697,
      "v": 126
    },
    {
      "midi": 38,
      "hit": false,
      "t": 246867.18749999994,
      "d": 57.291666666656965,
      "v": 126
    },
    {
      "midi": 62,
      "hit": false,
      "t": 246872.39583333363,
      "d": 67.70833333334303,
      "v": 91
    },
    {
      "midi": 78,
      "hit": false,
      "t": 246997.3958333332,
      "d": 328.1249999999709,
      "v": 127
    },
    {
      "midi": 38,
      "hit": false,
      "t": 246997.39583333326,
      "d": 138.02083333334303,
      "v": 126
    },
    {
      "midi": 81,
      "hit": false,
      "t": 246999.99999999985,
      "d": 307.29166666665697,
      "v": 125
    },
    {
      "midi": 62,
      "hit": false,
      "t": 247000.00000000032,
      "d": 57.291666666656965,
      "v": 91
    },
    {
      "midi": 62,
      "hit": false,
      "t": 247125.00000000032,
      "d": 54.6875,
      "v": 91
    },
    {
      "midi": 38,
      "hit": false,
      "t": 247244.7916666666,
      "d": 127.60416666665697,
      "v": 124
    },
    {
      "midi": 62,
      "hit": false,
      "t": 247252.60416666698,
      "d": 54.6875,
      "v": 91
    },
    {
      "midi": 62,
      "hit": false,
      "t": 247375.00000000032,
      "d": 62.5,
      "v": 91
    },
    {
      "midi": 38,
      "hit": false,
      "t": 247494.7916666666,
      "d": 148.4375,
      "v": 124
    },
    {
      "midi": 76,
      "hit": false,
      "t": 247499.99999999983,
      "d": 250,
      "v": 113
    },
    {
      "midi": 62,
      "hit": false,
      "t": 247502.60416666698,
      "d": 59.895833333343035,
      "v": 91
    },
    {
      "midi": 62,
      "hit": false,
      "t": 247627.60416666698,
      "d": 57.291666666656965,
      "v": 91
    },
    {
      "midi": 38,
      "hit": false,
      "t": 247742.18749999994,
      "d": 122.39583333334303,
      "v": 122
    },
    {
      "midi": 62,
      "hit": false,
      "t": 247747.39583333363,
      "d": 59.895833333343035,
      "v": 91
    },
    {
      "midi": 74,
      "hit": false,
      "t": 247749.99999999983,
      "d": 333.33333333334303,
      "v": 113
    },
    {
      "midi": 62,
      "hit": false,
      "t": 247875.00000000032,
      "d": 54.6875,
      "v": 91
    },
    {
      "midi": 33,
      "hit": false,
      "t": 247992.18749999994,
      "d": 330.72916666665697,
      "v": 122
    },
    {
      "midi": 97,
      "hit": false,
      "t": 247992.18750000015,
      "d": 1989.583333333343,
      "v": 95
    },
    {
      "midi": 76,
      "hit": false,
      "t": 247997.3958333337,
      "d": 1911.458333333343,
      "v": 95
    },
    {
      "midi": 76,
      "hit": false,
      "t": 247999.99999999983,
      "d": 395.83333333334303,
      "v": 113
    },
    {
      "midi": 73,
      "hit": false,
      "t": 248000.00000000035,
      "d": 1979.166666666686,
      "v": 95
    },
    {
      "midi": 57,
      "hit": false,
      "t": 248002.60416666698,
      "d": 52.083333333343035,
      "v": 91
    },
    {
      "midi": 57,
      "hit": false,
      "t": 248122.39583333366,
      "d": 78.125,
      "v": 91
    },
    {
      "midi": 57,
      "hit": false,
      "t": 248247.39583333366,
      "d": 52.083333333343035,
      "v": 91
    },
    {
      "midi": 57,
      "hit": false,
      "t": 248372.39583333366,
      "d": 70.3125,
      "v": 91
    },
    {
      "midi": 73,
      "hit": false,
      "t": 248380.20833333317,
      "d": 375,
      "v": 113
    },
    {
      "midi": 33,
      "hit": false,
      "t": 248492.18749999994,
      "d": 276.04166666665697,
      "v": 122
    },
    {
      "midi": 57,
      "hit": false,
      "t": 248502.604166667,
      "d": 57.291666666656965,
      "v": 91
    },
    {
      "midi": 57,
      "hit": false,
      "t": 248627.604166667,
      "d": 62.5,
      "v": 91
    },
    {
      "midi": 57,
      "hit": false,
      "t": 248752.604166667,
      "d": 52.083333333343035,
      "v": 91
    },
    {
      "midi": 69,
      "hit": false,
      "t": 248755.20833333317,
      "d": 783.854166666657,
      "v": 113
    },
    {
      "midi": 33,
      "hit": false,
      "t": 248872.39583333326,
      "d": 78.125,
      "v": 122
    },
    {
      "midi": 57,
      "hit": false,
      "t": 248877.604166667,
      "d": 62.5,
      "v": 91
    },
    {
      "midi": 33,
      "hit": false,
      "t": 248999.9999999999,
      "d": 161.45833333334303,
      "v": 122
    },
    {
      "midi": 57,
      "hit": false,
      "t": 249002.604166667,
      "d": 59.895833333343035,
      "v": 91
    },
    {
      "midi": 57,
      "hit": false,
      "t": 249127.604166667,
      "d": 57.291666666656965,
      "v": 91
    },
    {
      "midi": 33,
      "hit": false,
      "t": 249249.9999999999,
      "d": 138.02083333334303,
      "v": 122
    },
    {
      "midi": 57,
      "hit": false,
      "t": 249252.604166667,
      "d": 54.6875,
      "v": 91
    },
    {
      "midi": 57,
      "hit": false,
      "t": 249377.604166667,
      "d": 70.3125,
      "v": 91
    },
    {
      "midi": 33,
      "hit": false,
      "t": 249497.39583333326,
      "d": 145.83333333334303,
      "v": 122
    },
    {
      "midi": 57,
      "hit": false,
      "t": 249502.60416666657,
      "d": 513.0208333332848,
      "v": 109
    },
    {
      "midi": 69,
      "hit": false,
      "t": 249505.20833333323,
      "d": 369.79166666665697,
      "v": 119
    },
    {
      "midi": 57,
      "hit": false,
      "t": 249505.20833333366,
      "d": 52.083333333343035,
      "v": 91
    },
    {
      "midi": 57,
      "hit": false,
      "t": 249627.604166667,
      "d": 39.0625,
      "v": 91
    },
    {
      "midi": 33,
      "hit": false,
      "t": 249747.39583333326,
      "d": 111.97916666665697,
      "v": 122
    },
    {
      "midi": 57,
      "hit": false,
      "t": 249752.604166667,
      "d": 49.479166666656965,
      "v": 91
    },
    {
      "midi": 57,
      "hit": false,
      "t": 249877.604166667,
      "d": 75.52083333334303,
      "v": 91
    },
    {
      "midi": 35,
      "hit": false,
      "t": 249997.39583333326,
      "d": 328.125,
      "v": 122
    },
    {
      "midi": 71,
      "hit": false,
      "t": 250000.00000000038,
      "d": 1953.125,
      "v": 97
    },
    {
      "midi": 74,
      "hit": false,
      "t": 250002.60416666654,
      "d": 1309.895833333314,
      "v": 92
    },
    {
      "midi": 71,
      "hit": false,
      "t": 250002.60416666654,
      "d": 1315.104166666657,
      "v": 115
    },
    {
      "midi": 66,
      "hit": false,
      "t": 250002.60416666654,
      "d": 1328.125,
      "v": 109
    },
    {
      "midi": 59,
      "hit": false,
      "t": 250002.604166667,
      "d": 59.895833333343035,
      "v": 91
    },
    {
      "midi": 74,
      "hit": false,
      "t": 250002.60416666704,
      "d": 1986.979166666686,
      "v": 97
    },
    {
      "midi": 66,
      "hit": false,
      "t": 250002.60416666704,
      "d": 3807.291666666715,
      "v": 97
    },
    {
      "midi": 54,
      "hit": false,
      "t": 250002.60416666704,
      "d": 4000.0000000000873,
      "v": 97
    },
    {
      "midi": 59,
      "hit": false,
      "t": 250005.2083333332,
      "d": 1335.9375,
      "v": 119
    },
    {
      "midi": 95,
      "hit": false,
      "t": 250005.2083333335,
      "d": 2000,
      "v": 93
    },
    {
      "midi": 59,
      "hit": false,
      "t": 250127.604166667,
      "d": 62.5,
      "v": 91
    },
    {
      "midi": 78,
      "hit": false,
      "t": 250252.60416666648,
      "d": 75.52083333331393,
      "v": 92
    },
    {
      "midi": 59,
      "hit": false,
      "t": 250252.604166667,
      "d": 52.083333333343035,
      "v": 91
    },
    {
      "midi": 83,
      "hit": false,
      "t": 250255.20833333314,
      "d": 65.10416666665697,
      "v": 125
    },
    {
      "midi": 59,
      "hit": false,
      "t": 250377.604166667,
      "d": 62.5,
      "v": 91
    },
    {
      "midi": 83,
      "hit": false,
      "t": 250380.20833333314,
      "d": 125,
      "v": 125
    },
    {
      "midi": 78,
      "hit": false,
      "t": 250380.20833333314,
      "d": 127.60416666665697,
      "v": 125
    },
    {
      "midi": 35,
      "hit": false,
      "t": 250497.39583333326,
      "d": 260.41666666665697,
      "v": 124
    },
    {
      "midi": 59,
      "hit": false,
      "t": 250502.604166667,
      "d": 49.479166666656965,
      "v": 91
    },
    {
      "midi": 83,
      "hit": false,
      "t": 250627.60416666645,
      "d": 93.75,
      "v": 125
    },
    {
      "midi": 78,
      "hit": false,
      "t": 250627.60416666645,
      "d": 104.16666666665697,
      "v": 125
    },
    {
      "midi": 59,
      "hit": false,
      "t": 250627.604166667,
      "d": 75.52083333334303,
      "v": 91
    },
    {
      "midi": 78,
      "hit": false,
      "t": 250752.60416666645,
      "d": 117.1875,
      "v": 125
    },
    {
      "midi": 81,
      "hit": false,
      "t": 250752.60416666645,
      "d": 132.8125,
      "v": 125
    },
    {
      "midi": 59,
      "hit": false,
      "t": 250752.604166667,
      "d": 46.875,
      "v": 95
    },
    {
      "midi": 35,
      "hit": false,
      "t": 250872.39583333326,
      "d": 65.10416666665697,
      "v": 124
    },
    {
      "midi": 59,
      "hit": false,
      "t": 250877.604166667,
      "d": 62.5,
      "v": 95
    },
    {
      "midi": 78,
      "hit": false,
      "t": 250997.3958333331,
      "d": 354.16666666668607,
      "v": 125
    },
    {
      "midi": 35,
      "hit": false,
      "t": 250999.9999999999,
      "d": 145.83333333334303,
      "v": 124
    },
    {
      "midi": 83,
      "hit": false,
      "t": 251002.60416666645,
      "d": 341.14583333334303,
      "v": 125
    },
    {
      "midi": 59,
      "hit": false,
      "t": 251002.604166667,
      "d": 54.6875,
      "v": 95
    },
    {
      "midi": 59,
      "hit": false,
      "t": 251127.604166667,
      "d": 67.70833333334303,
      "v": 95
    },
    {
      "midi": 59,
      "hit": false,
      "t": 251247.3958333337,
      "d": 59.895833333343035,
      "v": 95
    },
    {
      "midi": 35,
      "hit": false,
      "t": 251249.9999999999,
      "d": 132.8125,
      "v": 124
    },
    {
      "midi": 59,
      "hit": false,
      "t": 251372.3958333337,
      "d": 62.5,
      "v": 95
    },
    {
      "midi": 35,
      "hit": false,
      "t": 251497.39583333326,
      "d": 122.39583333334303,
      "v": 124
    },
    {
      "midi": 59,
      "hit": false,
      "t": 251497.3958333337,
      "d": 59.895833333343035,
      "v": 95
    },
    {
      "midi": 74,
      "hit": false,
      "t": 251502.60416666648,
      "d": 244.79166666665697,
      "v": 113
    },
    {
      "midi": 59,
      "hit": false,
      "t": 251622.3958333337,
      "d": 59.895833333343035,
      "v": 95
    },
    {
      "midi": 35,
      "hit": false,
      "t": 251742.18749999994,
      "d": 114.58333333334303,
      "v": 124
    },
    {
      "midi": 59,
      "hit": false,
      "t": 251744.79166666704,
      "d": 65.10416666665697,
      "v": 95
    },
    {
      "midi": 71,
      "hit": false,
      "t": 251752.60416666648,
      "d": 294.27083333334303,
      "v": 113
    },
    {
      "midi": 59,
      "hit": false,
      "t": 251872.3958333337,
      "d": 57.291666666656965,
      "v": 95
    },
    {
      "midi": 30,
      "hit": false,
      "t": 251992.18749999994,
      "d": 276.04166666665697,
      "v": 124
    },
    {
      "midi": 73,
      "hit": false,
      "t": 251994.79166666706,
      "d": 1929.687500000029,
      "v": 95
    },
    {
      "midi": 54,
      "hit": false,
      "t": 251997.3958333337,
      "d": 52.083333333343035,
      "v": 95
    },
    {
      "midi": 93,
      "hit": false,
      "t": 252000.00000000015,
      "d": 2010.416666666686,
      "v": 93
    },
    {
      "midi": 69,
      "hit": false,
      "t": 252000.0000000004,
      "d": 1953.125000000029,
      "v": 95
    },
    {
      "midi": 73,
      "hit": false,
      "t": 252002.60416666648,
      "d": 375,
      "v": 113
    },
    {
      "midi": 54,
      "hit": false,
      "t": 252122.3958333337,
      "d": 65.10416666665697,
      "v": 95
    },
    {
      "midi": 54,
      "hit": false,
      "t": 252247.3958333337,
      "d": 52.083333333343035,
      "v": 95
    },
    {
      "midi": 69,
      "hit": false,
      "t": 252374.99999999983,
      "d": 375,
      "v": 113
    },
    {
      "midi": 54,
      "hit": false,
      "t": 252375.00000000038,
      "d": 62.5,
      "v": 95
    },
    {
      "midi": 30,
      "hit": false,
      "t": 252492.18749999994,
      "d": 247.39583333334303,
      "v": 124
    },
    {
      "midi": 54,
      "hit": false,
      "t": 252497.39583333372,
      "d": 54.6875,
      "v": 95
    },
    {
      "midi": 54,
      "hit": false,
      "t": 252622.39583333372,
      "d": 70.3125,
      "v": 95
    },
    {
      "midi": 54,
      "hit": false,
      "t": 252747.39583333372,
      "d": 49.479166666656965,
      "v": 95
    },
    {
      "midi": 66,
      "hit": false,
      "t": 252752.60416666648,
      "d": 611.979166666657,
      "v": 111
    },
    {
      "midi": 30,
      "hit": false,
      "t": 252867.18749999994,
      "d": 59.895833333343035,
      "v": 124
    },
    {
      "midi": 54,
      "hit": false,
      "t": 252869.79166666704,
      "d": 70.3125,
      "v": 95
    },
    {
      "midi": 30,
      "hit": false,
      "t": 252992.18749999994,
      "d": 130.20833333334303,
      "v": 124
    },
    {
      "midi": 54,
      "hit": false,
      "t": 252997.3958333337,
      "d": 49.479166666656965,
      "v": 95
    },
    {
      "midi": 54,
      "hit": false,
      "t": 253122.3958333337,
      "d": 62.5,
      "v": 95
    },
    {
      "midi": 30,
      "hit": false,
      "t": 253242.18749999994,
      "d": 122.39583333334303,
      "v": 124
    },
    {
      "midi": 54,
      "hit": false,
      "t": 253247.3958333337,
      "d": 54.6875,
      "v": 95
    },
    {
      "midi": 54,
      "hit": false,
      "t": 253369.79166666704,
      "d": 70.3125,
      "v": 95
    },
    {
      "midi": 30,
      "hit": false,
      "t": 253492.18749999994,
      "d": 130.20833333334303,
      "v": 124
    },
    {
      "midi": 54,
      "hit": false,
      "t": 253497.3958333337,
      "d": 57.291666666656965,
      "v": 95
    },
    {
      "midi": 66,
      "hit": false,
      "t": 253505.2083333332,
      "d": 364.58333333334303,
      "v": 119
    },
    {
      "midi": 54,
      "hit": false,
      "t": 253505.2083333332,
      "d": 494.79166666668607,
      "v": 119
    },
    {
      "midi": 54,
      "hit": false,
      "t": 253625.00000000035,
      "d": 44.270833333343035,
      "v": 95
    },
    {
      "midi": 30,
      "hit": false,
      "t": 253742.18749999994,
      "d": 125,
      "v": 124
    },
    {
      "midi": 54,
      "hit": false,
      "t": 253747.3958333337,
      "d": 52.083333333343035,
      "v": 95
    },
    {
      "midi": 54,
      "hit": false,
      "t": 253872.3958333337,
      "d": 67.70833333334303,
      "v": 95
    },
    {
      "midi": 31,
      "hit": false,
      "t": 253997.39583333328,
      "d": 325.52083333334303,
      "v": 124
    },
    {
      "midi": 55,
      "hit": false,
      "t": 253997.3958333337,
      "d": 57.291666666656965,
      "v": 95
    },
    {
      "midi": 67,
      "hit": false,
      "t": 253997.39583333378,
      "d": 1867.1875,
      "v": 80
    },
    {
      "midi": 71,
      "hit": false,
      "t": 253997.39583333378,
      "d": 2000,
      "v": 86
    },
    {
      "midi": 50,
      "hit": false,
      "t": 253997.39583333378,
      "d": 4023.4375,
      "v": 74
    },
    {
      "midi": 67,
      "hit": false,
      "t": 254002.60416666654,
      "d": 1304.6875,
      "v": 115
    },
    {
      "midi": 74,
      "hit": false,
      "t": 254002.60416666654,
      "d": 1322.916666666686,
      "v": 86
    },
    {
      "midi": 62,
      "hit": false,
      "t": 254002.60416666712,
      "d": 3809.895833333314,
      "v": 97
    },
    {
      "midi": 71,
      "hit": false,
      "t": 254005.2083333332,
      "d": 1307.291666666686,
      "v": 119
    },
    {
      "midi": 55,
      "hit": false,
      "t": 254005.2083333332,
      "d": 1325.5208333333721,
      "v": 119
    },
    {
      "midi": 91,
      "hit": false,
      "t": 254005.2083333335,
      "d": 2007.8125,
      "v": 95
    },
    {
      "midi": 55,
      "hit": false,
      "t": 254122.3958333337,
      "d": 59.895833333343035,
      "v": 95
    },
    {
      "midi": 55,
      "hit": false,
      "t": 254247.3958333337,
      "d": 54.6875,
      "v": 95
    },
    {
      "midi": 55,
      "hit": false,
      "t": 254372.3958333337,
      "d": 59.895833333343035,
      "v": 95
    },
    {
      "midi": 31,
      "hit": false,
      "t": 254497.39583333328,
      "d": 236.97916666665697,
      "v": 124
    },
    {
      "midi": 55,
      "hit": false,
      "t": 254497.3958333337,
      "d": 52.083333333343035,
      "v": 95
    },
    {
      "midi": 55,
      "hit": false,
      "t": 254627.60416666704,
      "d": 59.895833333343035,
      "v": 95
    },
    {
      "midi": 55,
      "hit": false,
      "t": 254747.39583333372,
      "d": 54.6875,
      "v": 95
    },
    {
      "midi": 31,
      "hit": false,
      "t": 254867.18749999994,
      "d": 65.10416666665697,
      "v": 124
    },
    {
      "midi": 67,
      "hit": false,
      "t": 254874.9999999998,
      "d": 375,
      "v": 125
    },
    {
      "midi": 79,
      "hit": false,
      "t": 254874.9999999998,
      "d": 375,
      "v": 104
    },
    {
      "midi": 55,
      "hit": false,
      "t": 254875.00000000038,
      "d": 59.895833333343035,
      "v": 95
    },
    {
      "midi": 31,
      "hit": false,
      "t": 254992.18749999994,
      "d": 145.83333333334303,
      "v": 124
    },
    {
      "midi": 55,
      "hit": false,
      "t": 255000.00000000038,
      "d": 59.895833333343035,
      "v": 95
    },
    {
      "midi": 55,
      "hit": false,
      "t": 255127.60416666706,
      "d": 67.70833333334303,
      "v": 95
    },
    {
      "midi": 69,
      "hit": false,
      "t": 255244.79166666645,
      "d": 119.79166666668607,
      "v": 92
    },
    {
      "midi": 81,
      "hit": false,
      "t": 255244.79166666645,
      "d": 161.45833333334303,
      "v": 125
    },
    {
      "midi": 31,
      "hit": false,
      "t": 255247.39583333328,
      "d": 135.41666666665697,
      "v": 124
    },
    {
      "midi": 55,
      "hit": false,
      "t": 255252.60416666706,
      "d": 57.291666666656965,
      "v": 95
    },
    {
      "midi": 82,
      "hit": false,
      "t": 255372.39583333314,
      "d": 119.79166666665697,
      "v": 126
    },
    {
      "midi": 70,
      "hit": false,
      "t": 255372.39583333314,
      "d": 156.25,
      "v": 126
    },
    {
      "midi": 55,
      "hit": false,
      "t": 255372.39583333372,
      "d": 78.125,
      "v": 95
    },
    {
      "midi": 71,
      "hit": false,
      "t": 255497.39583333314,
      "d": 294.27083333334303,
      "v": 126
    },
    {
      "midi": 31,
      "hit": false,
      "t": 255497.39583333328,
      "d": 140.625,
      "v": 124
    },
    {
      "midi": 55,
      "hit": false,
      "t": 255497.39583333372,
      "d": 62.5,
      "v": 95
    },
    {
      "midi": 83,
      "hit": false,
      "t": 255499.9999999998,
      "d": 291.66666666668607,
      "v": 125
    },
    {
      "midi": 67,
      "hit": false,
      "t": 255502.60416666648,
      "d": 151.04166666665697,
      "v": 109
    },
    {
      "midi": 55,
      "hit": false,
      "t": 255627.60416666706,
      "d": 67.70833333334303,
      "v": 95
    },
    {
      "midi": 31,
      "hit": false,
      "t": 255747.39583333328,
      "d": 125,
      "v": 124
    },
    {
      "midi": 55,
      "hit": false,
      "t": 255747.39583333375,
      "d": 57.291666666656965,
      "v": 95
    },
    {
      "midi": 67,
      "hit": false,
      "t": 255749.9999999998,
      "d": 231.77083333334303,
      "v": 109
    },
    {
      "midi": 55,
      "hit": false,
      "t": 255872.39583333375,
      "d": 59.895833333343035,
      "v": 95
    },
    {
      "midi": 66,
      "hit": false,
      "t": 255994.79166666712,
      "d": 1846.354166666657,
      "v": 93
    },
    {
      "midi": 69,
      "hit": false,
      "t": 255994.79166666712,
      "d": 1960.9375,
      "v": 93
    },
    {
      "midi": 38,
      "hit": false,
      "t": 255997.39583333328,
      "d": 299.47916666665697,
      "v": 124
    },
    {
      "midi": 50,
      "hit": false,
      "t": 255997.39583333375,
      "d": 49.479166666656965,
      "v": 95
    },
    {
      "midi": 90,
      "hit": false,
      "t": 256002.60416666683,
      "d": 2031.25,
      "v": 97
    },
    {
      "midi": 66,
      "hit": false,
      "t": 256005.20833333314,
      "d": 500,
      "v": 109
    },
    {
      "midi": 50,
      "hit": false,
      "t": 256127.60416666706,
      "d": 62.5,
      "v": 95
    },
    {
      "midi": 50,
      "hit": false,
      "t": 256247.39583333372,
      "d": 49.479166666656965,
      "v": 95
    },
    {
      "midi": 50,
      "hit": false,
      "t": 256372.39583333372,
      "d": 59.895833333343035,
      "v": 95
    },
    {
      "midi": 38,
      "hit": false,
      "t": 256497.39583333328,
      "d": 213.54166666665697,
      "v": 124
    },
    {
      "midi": 69,
      "hit": false,
      "t": 256499.9999999998,
      "d": 250,
      "v": 109
    },
    {
      "midi": 50,
      "hit": false,
      "t": 256500.0000000004,
      "d": 52.083333333343035,
      "v": 95
    },
    {
      "midi": 50,
      "hit": false,
      "t": 256627.6041666671,
      "d": 65.10416666665697,
      "v": 95
    },
    {
      "midi": 50,
      "hit": false,
      "t": 256752.6041666671,
      "d": 52.083333333343035,
      "v": 95
    },
    {
      "midi": 74,
      "hit": false,
      "t": 256755.20833333314,
      "d": 848.958333333343,
      "v": 109
    },
    {
      "midi": 38,
      "hit": false,
      "t": 256867.18749999994,
      "d": 57.291666666656965,
      "v": 124
    },
    {
      "midi": 50,
      "hit": false,
      "t": 256877.6041666671,
      "d": 62.5,
      "v": 95
    },
    {
      "midi": 38,
      "hit": false,
      "t": 256992.18749999994,
      "d": 138.02083333334303,
      "v": 124
    },
    {
      "midi": 50,
      "hit": false,
      "t": 257002.6041666671,
      "d": 54.6875,
      "v": 95
    },
    {
      "midi": 50,
      "hit": false,
      "t": 257127.6041666671,
      "d": 67.70833333334303,
      "v": 95
    },
    {
      "midi": 38,
      "hit": false,
      "t": 257244.79166666663,
      "d": 119.79166666665697,
      "v": 124
    },
    {
      "midi": 50,
      "hit": false,
      "t": 257252.6041666671,
      "d": 54.6875,
      "v": 95
    },
    {
      "midi": 50,
      "hit": false,
      "t": 257377.6041666671,
      "d": 78.125,
      "v": 95
    },
    {
      "midi": 38,
      "hit": false,
      "t": 257497.39583333328,
      "d": 140.625,
      "v": 124
    },
    {
      "midi": 50,
      "hit": false,
      "t": 257502.6041666671,
      "d": 54.6875,
      "v": 95
    },
    {
      "midi": 62,
      "hit": false,
      "t": 257505.20833333323,
      "d": 328.125,
      "v": 117
    },
    {
      "midi": 74,
      "hit": false,
      "t": 257505.20833333323,
      "d": 335.9375,
      "v": 117
    },
    {
      "midi": 50,
      "hit": false,
      "t": 257627.6041666671,
      "d": 70.3125,
      "v": 95
    },
    {
      "midi": 38,
      "hit": false,
      "t": 257744.79166666663,
      "d": 135.41666666665697,
      "v": 124
    },
    {
      "midi": 50,
      "hit": false,
      "t": 257752.6041666671,
      "d": 54.6875,
      "v": 95
    },
    {
      "midi": 50,
      "hit": false,
      "t": 257877.6041666671,
      "d": 70.3125,
      "v": 95
    },
    {
      "midi": 64,
      "hit": false,
      "t": 257994.79166666712,
      "d": 1890.625,
      "v": 72
    },
    {
      "midi": 67,
      "hit": false,
      "t": 257997.39583333323,
      "d": 1315.104166666686,
      "v": 109
    },
    {
      "midi": 40,
      "hit": false,
      "t": 257997.39583333328,
      "d": 315.10416666665697,
      "v": 124
    },
    {
      "midi": 67,
      "hit": false,
      "t": 257997.39583333378,
      "d": 1820.3125,
      "v": 105
    },
    {
      "midi": 52,
      "hit": false,
      "t": 257997.39583333378,
      "d": 2005.208333333343,
      "v": 105
    },
    {
      "midi": 71,
      "hit": false,
      "t": 257997.39583333378,
      "d": 2018.229166666686,
      "v": 105
    },
    {
      "midi": 71,
      "hit": false,
      "t": 258002.60416666657,
      "d": 1317.708333333343,
      "v": 117
    },
    {
      "midi": 74,
      "hit": false,
      "t": 258002.60416666657,
      "d": 1317.708333333343,
      "v": 117
    },
    {
      "midi": 55,
      "hit": false,
      "t": 258002.60416666657,
      "d": 1328.125,
      "v": 117
    },
    {
      "midi": 88,
      "hit": false,
      "t": 258002.60416666683,
      "d": 2039.0625,
      "v": 95
    },
    {
      "midi": 52,
      "hit": false,
      "t": 258002.6041666671,
      "d": 57.291666666656965,
      "v": 95
    },
    {
      "midi": 52,
      "hit": false,
      "t": 258127.6041666671,
      "d": 59.895833333343035,
      "v": 95
    },
    {
      "midi": 52,
      "hit": false,
      "t": 258247.39583333378,
      "d": 46.875,
      "v": 95
    },
    {
      "midi": 52,
      "hit": false,
      "t": 258372.39583333378,
      "d": 65.10416666665697,
      "v": 95
    },
    {
      "midi": 40,
      "hit": false,
      "t": 258492.18749999994,
      "d": 239.58333333334303,
      "v": 124
    },
    {
      "midi": 52,
      "hit": false,
      "t": 258497.39583333378,
      "d": 52.083333333343035,
      "v": 95
    },
    {
      "midi": 52,
      "hit": false,
      "t": 258627.60416666712,
      "d": 62.5,
      "v": 95
    },
    {
      "midi": 52,
      "hit": false,
      "t": 258747.39583333378,
      "d": 52.083333333343035,
      "v": 93
    },
    {
      "midi": 74,
      "hit": false,
      "t": 258749.99999999983,
      "d": 351.5625,
      "v": 111
    },
    {
      "midi": 40,
      "hit": false,
      "t": 258867.18749999994,
      "d": 65.10416666665697,
      "v": 124
    },
    {
      "midi": 52,
      "hit": false,
      "t": 258872.39583333378,
      "d": 70.3125,
      "v": 93
    },
    {
      "midi": 40,
      "hit": false,
      "t": 258992.18749999994,
      "d": 138.02083333334303,
      "v": 124
    },
    {
      "midi": 52,
      "hit": false,
      "t": 258997.39583333378,
      "d": 54.6875,
      "v": 93
    },
    {
      "midi": 52,
      "hit": false,
      "t": 259125.00000000044,
      "d": 57.291666666656965,
      "v": 93
    },
    {
      "midi": 40,
      "hit": false,
      "t": 259242.18749999994,
      "d": 125,
      "v": 124
    },
    {
      "midi": 52,
      "hit": false,
      "t": 259252.6041666671,
      "d": 54.6875,
      "v": 93
    },
    {
      "midi": 74,
      "hit": false,
      "t": 259260.41666666648,
      "d": 242.1875,
      "v": 111
    },
    {
      "midi": 52,
      "hit": false,
      "t": 259372.39583333375,
      "d": 65.10416666665697,
      "v": 93
    },
    {
      "midi": 40,
      "hit": false,
      "t": 259492.18749999994,
      "d": 153.64583333334303,
      "v": 124
    },
    {
      "midi": 52,
      "hit": false,
      "t": 259502.60416666706,
      "d": 54.6875,
      "v": 93
    },
    {
      "midi": 71,
      "hit": false,
      "t": 259515.62499999983,
      "d": 260.41666666665697,
      "v": 111
    },
    {
      "midi": 52,
      "hit": false,
      "t": 259627.60416666706,
      "d": 31.25,
      "v": 93
    },
    {
      "midi": 40,
      "hit": false,
      "t": 259742.18749999994,
      "d": 125,
      "v": 124
    },
    {
      "midi": 74,
      "hit": false,
      "t": 259752.60416666648,
      "d": 296.875,
      "v": 111
    },
    {
      "midi": 52,
      "hit": false,
      "t": 259752.60416666706,
      "d": 46.875,
      "v": 93
    },
    {
      "midi": 52,
      "hit": false,
      "t": 259877.60416666706,
      "d": 70.3125,
      "v": 93
    },
    {
      "midi": 64,
      "hit": false,
      "t": 259994.79166666712,
      "d": 4000.000000000029,
      "v": 72
    },
    {
      "midi": 69,
      "hit": false,
      "t": 259994.79166666712,
      "d": 4000.000000000029,
      "v": 92
    },
    {
      "midi": 73,
      "hit": false,
      "t": 259994.79166666712,
      "d": 4000.000000000029,
      "v": 74
    },
    {
      "midi": 57,
      "hit": false,
      "t": 259997.39583333378,
      "d": 4000.000000000058,
      "v": 111
    },
    {
      "midi": 76,
      "hit": false,
      "t": 259999.99999999983,
      "d": 1861.979166666657,
      "v": 109
    },
    {
      "midi": 33,
      "hit": false,
      "t": 259999.99999999994,
      "d": 354.16666666665697,
      "v": 124
    },
    {
      "midi": 64,
      "hit": false,
      "t": 260002.60416666648,
      "d": 3377.604166666657,
      "v": 125
    },
    {
      "midi": 90,
      "hit": false,
      "t": 260002.60416666683,
      "d": 546.875,
      "v": 97
    },
    {
      "midi": 57,
      "hit": false,
      "t": 260002.60416666706,
      "d": 54.6875,
      "v": 93
    },
    {
      "midi": 78,
      "hit": false,
      "t": 260018.22916666648,
      "d": 380.20833333331393,
      "v": 111
    },
    {
      "midi": 57,
      "hit": false,
      "t": 260127.60416666706,
      "d": 59.895833333343035,
      "v": 93
    },
    {
      "midi": 57,
      "hit": false,
      "t": 260252.60416666706,
      "d": 44.270833333343035,
      "v": 93
    },
    {
      "midi": 57,
      "hit": false,
      "t": 260377.60416666706,
      "d": 62.5,
      "v": 93
    },
    {
      "midi": 79,
      "hit": false,
      "t": 260380.20833333314,
      "d": 403.64583333331393,
      "v": 111
    },
    {
      "midi": 33,
      "hit": false,
      "t": 260499.99999999994,
      "d": 260.41666666665697,
      "v": 124
    },
    {
      "midi": 91,
      "hit": false,
      "t": 260502.60416666683,
      "d": 289.0625,
      "v": 95
    },
    {
      "midi": 57,
      "hit": false,
      "t": 260502.60416666706,
      "d": 46.875,
      "v": 93
    },
    {
      "midi": 57,
      "hit": false,
      "t": 260627.60416666706,
      "d": 54.6875,
      "v": 93
    },
    {
      "midi": 88,
      "hit": false,
      "t": 260752.60416666683,
      "d": 3250.000000000029,
      "v": 102
    },
    {
      "midi": 57,
      "hit": false,
      "t": 260752.60416666706,
      "d": 54.6875,
      "v": 93
    },
    {
      "midi": 76,
      "hit": false,
      "t": 260760.41666666645,
      "d": 963.541666666657,
      "v": 111
    },
    {
      "midi": 33,
      "hit": false,
      "t": 260874.99999999994,
      "d": 70.3125,
      "v": 124
    },
    {
      "midi": 57,
      "hit": false,
      "t": 260877.60416666706,
      "d": 59.895833333343035,
      "v": 93
    },
    {
      "midi": 33,
      "hit": false,
      "t": 261002.6041666666,
      "d": 231.77083333334303,
      "v": 124
    },
    {
      "midi": 57,
      "hit": false,
      "t": 261002.60416666706,
      "d": 54.6875,
      "v": 93
    },
    {
      "midi": 57,
      "hit": false,
      "t": 261127.60416666706,
      "d": 62.5,
      "v": 93
    },
    {
      "midi": 33,
      "hit": false,
      "t": 261249.99999999994,
      "d": 236.97916666665697,
      "v": 124
    },
    {
      "midi": 57,
      "hit": false,
      "t": 261252.60416666706,
      "d": 54.6875,
      "v": 93
    },
    {
      "midi": 57,
      "hit": false,
      "t": 261377.60416666706,
      "d": 52.083333333343035,
      "v": 93
    },
    {
      "midi": 35,
      "hit": false,
      "t": 261499.99999999994,
      "d": 317.70833333334303,
      "v": 124
    },
    {
      "midi": 57,
      "hit": false,
      "t": 261502.60416666706,
      "d": 52.083333333343035,
      "v": 93
    },
    {
      "midi": 57,
      "hit": false,
      "t": 261627.60416666706,
      "d": 62.5,
      "v": 93
    },
    {
      "midi": 37,
      "hit": false,
      "t": 261749.99999999994,
      "d": 289.0625,
      "v": 124
    },
    {
      "midi": 57,
      "hit": false,
      "t": 261752.60416666706,
      "d": 46.875,
      "v": 93
    },
    {
      "midi": 57,
      "hit": false,
      "t": 261875.0000000004,
      "d": 46.875,
      "v": 95
    },
    {
      "midi": 57,
      "hit": false,
      "t": 262000.0000000004,
      "d": 54.6875,
      "v": 95
    },
    {
      "midi": 78,
      "hit": false,
      "t": 262002.60416666648,
      "d": 395.83333333334303,
      "v": 123
    },
    {
      "midi": 69,
      "hit": false,
      "t": 262005.20833333323,
      "d": 98.95833333334303,
      "v": 119
    },
    {
      "midi": 57,
      "hit": false,
      "t": 262065.10416666657,
      "d": 83.33333333331393,
      "v": 119
    },
    {
      "midi": 57,
      "hit": false,
      "t": 262125.0000000004,
      "d": 59.89583333331393,
      "v": 98
    },
    {
      "midi": 57,
      "hit": false,
      "t": 262192.7083333332,
      "d": 138.02083333331393,
      "v": 119
    },
    {
      "midi": 69,
      "hit": false,
      "t": 262244.7916666665,
      "d": 135.41666666668607,
      "v": 119
    },
    {
      "midi": 57,
      "hit": false,
      "t": 262250.0000000004,
      "d": 44.27083333331393,
      "v": 99
    },
    {
      "midi": 57,
      "hit": false,
      "t": 262375.0000000004,
      "d": 62.5,
      "v": 99
    },
    {
      "midi": 79,
      "hit": false,
      "t": 262377.6041666665,
      "d": 348.95833333331393,
      "v": 125
    },
    {
      "midi": 69,
      "hit": false,
      "t": 262380.2083333332,
      "d": 80.72916666668607,
      "v": 120
    },
    {
      "midi": 57,
      "hit": false,
      "t": 262421.8749999999,
      "d": 65.10416666668607,
      "v": 120
    },
    {
      "midi": 57,
      "hit": false,
      "t": 262500.0000000004,
      "d": 46.875,
      "v": 101
    },
    {
      "midi": 69,
      "hit": false,
      "t": 262505.20833333326,
      "d": 98.95833333331393,
      "v": 120
    },
    {
      "midi": 57,
      "hit": false,
      "t": 262549.47916666657,
      "d": 104.16666666668607,
      "v": 120
    },
    {
      "midi": 57,
      "hit": false,
      "t": 262625.0000000004,
      "d": 54.6875,
      "v": 101
    },
    {
      "midi": 69,
      "hit": false,
      "t": 262747.39583333326,
      "d": 72.91666666668607,
      "v": 119
    },
    {
      "midi": 57,
      "hit": false,
      "t": 262750.0000000004,
      "d": 54.6875,
      "v": 104
    },
    {
      "midi": 76,
      "hit": false,
      "t": 262752.6041666665,
      "d": 614.5833333333139,
      "v": 125
    },
    {
      "midi": 57,
      "hit": false,
      "t": 262768.22916666657,
      "d": 49.47916666668607,
      "v": 119
    },
    {
      "midi": 57,
      "hit": false,
      "t": 262875.0000000004,
      "d": 59.89583333331393,
      "v": 105
    },
    {
      "midi": 69,
      "hit": false,
      "t": 262877.6041666666,
      "d": 119.79166666668607,
      "v": 109
    },
    {
      "midi": 57,
      "hit": false,
      "t": 262880.2083333333,
      "d": 122.39583333331393,
      "v": 119
    },
    {
      "midi": 57,
      "hit": false,
      "t": 263000.0000000004,
      "d": 54.6875,
      "v": 106
    },
    {
      "midi": 69,
      "hit": false,
      "t": 263122.3958333333,
      "d": 67.70833333331393,
      "v": 116
    },
    {
      "midi": 57,
      "hit": false,
      "t": 263125.0000000004,
      "d": 62.5,
      "v": 106
    },
    {
      "midi": 57,
      "hit": false,
      "t": 263143.2291666666,
      "d": 49.47916666668607,
      "v": 119
    },
    {
      "midi": 57,
      "hit": false,
      "t": 263244.7916666666,
      "d": 125,
      "v": 116
    },
    {
      "midi": 57,
      "hit": false,
      "t": 263250.0000000004,
      "d": 54.6875,
      "v": 108
    },
    {
      "midi": 69,
      "hit": false,
      "t": 263252.6041666666,
      "d": 96.35416666668607,
      "v": 119
    },
    {
      "midi": 57,
      "hit": false,
      "t": 263375.0000000004,
      "d": 52.08333333331393,
      "v": 108
    },
    {
      "midi": 57,
      "hit": false,
      "t": 263481.7708333333,
      "d": 447.91666666668607,
      "v": 121
    },
    {
      "midi": 64,
      "hit": false,
      "t": 263497.39583333314,
      "d": 322.91666666668607,
      "v": 125
    },
    {
      "midi": 76,
      "hit": false,
      "t": 263497.39583333314,
      "d": 442.70833333337214,
      "v": 125
    },
    {
      "midi": 69,
      "hit": false,
      "t": 263497.3958333333,
      "d": 479.16666666668607,
      "v": 119
    },
    {
      "midi": 57,
      "hit": false,
      "t": 263500.0000000004,
      "d": 52.08333333331393,
      "v": 109
    },
    {
      "midi": 57,
      "hit": false,
      "t": 263625.0000000004,
      "d": 62.5,
      "v": 109
    },
    {
      "midi": 57,
      "hit": false,
      "t": 263750.0000000004,
      "d": 46.875,
      "v": 109
    },
    {
      "midi": 57,
      "hit": false,
      "t": 263872.3958333337,
      "d": 46.875,
      "v": 109
    },
    {
      "midi": 62,
      "hit": false,
      "t": 264000,
      "d": 1500,
      "v": 116
    },
    {
      "midi": 66,
      "hit": false,
      "t": 264000,
      "d": 1500,
      "v": 116
    },
    {
      "midi": 76,
      "hit": false,
      "t": 264000,
      "d": 1500,
      "v": 116
    },
    {
      "midi": 50,
      "hit": false,
      "t": 264000.0000000005,
      "d": 1570.3125000000582,
      "v": 109
    },
    {
      "midi": 69,
      "hit": false,
      "t": 264002.6041666665,
      "d": 1500,
      "v": 125
    },
    {
      "midi": 81,
      "hit": false,
      "t": 264002.6041666665,
      "d": 1500,
      "v": 125
    },
    {
      "midi": 38,
      "hit": false,
      "t": 264002.6041666666,
      "d": 1528.645833333314,
      "v": 127
    },
    {
      "midi": 50,
      "hit": false,
      "t": 264002.6041666666,
      "d": 1531.25,
      "v": 127
    },
    {
      "midi": 81,
      "hit": false,
      "t": 264002.6041666672,
      "d": 1557.291666666686,
      "v": 113
    },
    {
      "midi": 78,
      "hit": false,
      "t": 264002.6041666672,
      "d": 1578.1250000000582,
      "v": 113
    },
    {
      "midi": 69,
      "hit": false,
      "t": 264002.6041666672,
      "d": 1580.7291666667443,
      "v": 113
    },
    {
      "midi": 74,
      "hit": false,
      "t": 264002.6041666672,
      "d": 1585.9375000000582,
      "v": 113
    },
    {
      "midi": 69,
      "hit": false,
      "t": 264005.2083333333,
      "d": 1500,
      "v": 125
    },
    {
      "midi": 74,
      "hit": false,
      "t": 264005.2083333333,
      "d": 1500,
      "v": 125
    },
    {
      "midi": 38,
      "hit": false,
      "t": 265999.99999999994,
      "d": 315.10416666668607,
      "v": 126
    },
    {
      "midi": 62,
      "hit": false,
      "t": 266000,
      "d": 333.33333333331393,
      "v": 80
    },
    {
      "midi": 62,
      "hit": false,
      "t": 266002.60416666704,
      "d": 75.52083333331393,
      "v": 91
    },
    {
      "midi": 62,
      "hit": false,
      "t": 266122.39583333366,
      "d": 70.3125,
      "v": 91
    },
    {
      "midi": 62,
      "hit": false,
      "t": 266252.604166667,
      "d": 39.0625,
      "v": 91
    },
    {
      "midi": 74,
      "hit": false,
      "t": 266372.3958333333,
      "d": 367.1875,
      "v": 80
    },
    {
      "midi": 62,
      "hit": false,
      "t": 266372.39583333366,
      "d": 72.91666666668607,
      "v": 91
    },
    {
      "midi": 38,
      "hit": false,
      "t": 266492.18749999994,
      "d": 247.39583333331393,
      "v": 126
    },
    {
      "midi": 62,
      "hit": false,
      "t": 266497.39583333366,
      "d": 70.3125,
      "v": 91
    },
    {
      "midi": 62,
      "hit": false,
      "t": 266622.39583333366,
      "d": 65.10416666668607,
      "v": 91
    },
    {
      "midi": 62,
      "hit": false,
      "t": 266747.3958333333,
      "d": 429.6875,
      "v": 80
    },
    {
      "midi": 62,
      "hit": false,
      "t": 266747.39583333366,
      "d": 57.29166666668607,
      "v": 91
    },
    {
      "midi": 38,
      "hit": false,
      "t": 266867.18749999994,
      "d": 57.29166666668607,
      "v": 126
    },
    {
      "midi": 62,
      "hit": false,
      "t": 266872.39583333366,
      "d": 67.70833333331393,
      "v": 91
    },
    {
      "midi": 38,
      "hit": false,
      "t": 266997.3958333333,
      "d": 138.02083333331393,
      "v": 126
    },
    {
      "midi": 62,
      "hit": false,
      "t": 267000.0000000003,
      "d": 57.29166666668607,
      "v": 91
    },
    {
      "midi": 62,
      "hit": false,
      "t": 267125.0000000003,
      "d": 54.6875,
      "v": 91
    },
    {
      "midi": 74,
      "hit": false,
      "t": 267127.6041666666,
      "d": 437.5,
      "v": 80
    },
    {
      "midi": 70,
      "hit": false,
      "t": 267247.3958333333,
      "d": 750,
      "v": 89
    },
    {
      "midi": 34,
      "hit": false,
      "t": 267249.99999999994,
      "d": 127.60416666668607,
      "v": 124
    },
    {
      "midi": 58,
      "hit": false,
      "t": 267250.0000000003,
      "d": 54.6875,
      "v": 91
    },
    {
      "midi": 58,
      "hit": false,
      "t": 267252.6041666666,
      "d": 750,
      "v": 83
    },
    {
      "midi": 58,
      "hit": false,
      "t": 267372.3958333336,
      "d": 62.5,
      "v": 91
    },
    {
      "midi": 34,
      "hit": false,
      "t": 267499.99999999994,
      "d": 148.4375,
      "v": 124
    },
    {
      "midi": 58,
      "hit": false,
      "t": 267500.0000000003,
      "d": 59.89583333331393,
      "v": 91
    },
    {
      "midi": 55,
      "hit": false,
      "t": 267502.6041666666,
      "d": 221.35416666668607,
      "v": 80
    },
    {
      "midi": 58,
      "hit": false,
      "t": 267625.0000000003,
      "d": 57.29166666668607,
      "v": 91
    },
    {
      "midi": 58,
      "hit": false,
      "t": 267744.791666667,
      "d": 59.89583333331393,
      "v": 91
    },
    {
      "midi": 34,
      "hit": false,
      "t": 267747.39583333326,
      "d": 122.39583333331393,
      "v": 122
    },
    {
      "midi": 67,
      "hit": false,
      "t": 267747.3958333333,
      "d": 265.625,
      "v": 80
    },
    {
      "midi": 58,
      "hit": false,
      "t": 267872.3958333336,
      "d": 54.6875,
      "v": 91
    },
    {
      "midi": 38,
      "hit": false,
      "t": 267999.9999999999,
      "d": 330.72916666668607,
      "v": 122
    },
    {
      "midi": 62,
      "hit": false,
      "t": 268000.0000000003,
      "d": 52.08333333331393,
      "v": 91
    },
    {
      "midi": 62,
      "hit": false,
      "t": 268002.6041666666,
      "d": 377.60416666668607,
      "v": 80
    },
    {
      "midi": 62,
      "hit": false,
      "t": 268119.7916666669,
      "d": 78.125,
      "v": 91
    },
    {
      "midi": 62,
      "hit": false,
      "t": 268244.7916666669,
      "d": 52.08333333331393,
      "v": 91
    },
    {
      "midi": 62,
      "hit": false,
      "t": 268369.7916666669,
      "d": 70.3125,
      "v": 91
    },
    {
      "midi": 74,
      "hit": false,
      "t": 268377.6041666666,
      "d": 382.8125,
      "v": 79
    },
    {
      "midi": 38,
      "hit": false,
      "t": 268499.9999999999,
      "d": 276.04166666668607,
      "v": 122
    },
    {
      "midi": 62,
      "hit": false,
      "t": 268500.00000000023,
      "d": 57.29166666668607,
      "v": 91
    },
    {
      "midi": 62,
      "hit": false,
      "t": 268625.00000000023,
      "d": 62.5,
      "v": 91
    },
    {
      "midi": 62,
      "hit": false,
      "t": 268750.00000000023,
      "d": 52.08333333331393,
      "v": 91
    },
    {
      "midi": 62,
      "hit": false,
      "t": 268752.6041666666,
      "d": 395.83333333331393,
      "v": 79
    },
    {
      "midi": 62,
      "hit": false,
      "t": 268875.00000000023,
      "d": 62.5,
      "v": 91
    },
    {
      "midi": 38,
      "hit": false,
      "t": 268880.20833333326,
      "d": 78.125,
      "v": 122
    },
    {
      "midi": 62,
      "hit": false,
      "t": 269000.00000000023,
      "d": 59.89583333331393,
      "v": 91
    },
    {
      "midi": 38,
      "hit": false,
      "t": 269007.81249999994,
      "d": 161.45833333331393,
      "v": 122
    },
    {
      "midi": 62,
      "hit": false,
      "t": 269125.00000000023,
      "d": 57.29166666668607,
      "v": 91
    },
    {
      "midi": 74,
      "hit": false,
      "t": 269127.6041666666,
      "d": 546.8749999999418,
      "v": 79
    },
    {
      "midi": 62,
      "hit": false,
      "t": 269250.00000000023,
      "d": 54.6875,
      "v": 91
    },
    {
      "midi": 38,
      "hit": false,
      "t": 269257.81249999994,
      "d": 138.02083333331393,
      "v": 122
    },
    {
      "midi": 62,
      "hit": false,
      "t": 269375.00000000023,
      "d": 70.3125,
      "v": 91
    },
    {
      "midi": 62,
      "hit": false,
      "t": 269502.6041666669,
      "d": 52.08333333331393,
      "v": 91
    },
    {
      "midi": 38,
      "hit": false,
      "t": 269505.20833333326,
      "d": 145.83333333331393,
      "v": 122
    },
    {
      "midi": 55,
      "hit": false,
      "t": 269505.20833333326,
      "d": 200.52083333331393,
      "v": 79
    },
    {
      "midi": 62,
      "hit": false,
      "t": 269625.00000000023,
      "d": 39.0625,
      "v": 91
    },
    {
      "midi": 62,
      "hit": false,
      "t": 269750.00000000023,
      "d": 49.47916666668607,
      "v": 91
    },
    {
      "midi": 67,
      "hit": false,
      "t": 269752.60416666657,
      "d": 257.8125,
      "v": 79
    },
    {
      "midi": 38,
      "hit": false,
      "t": 269755.20833333326,
      "d": 111.97916666668607,
      "v": 122
    },
    {
      "midi": 62,
      "hit": false,
      "t": 269875.00000000023,
      "d": 75.52083333331393,
      "v": 91
    },
    {
      "midi": 38,
      "hit": false,
      "t": 269999.99999999994,
      "d": 328.125,
      "v": 122
    },
    {
      "midi": 62,
      "hit": false,
      "t": 270002.60416666686,
      "d": 75.52083333331393,
      "v": 91
    },
    {
      "midi": 62,
      "hit": false,
      "t": 270005.20833333326,
      "d": 333.33333333331393,
      "v": 80
    },
    {
      "midi": 62,
      "hit": false,
      "t": 270122.3958333335,
      "d": 70.3125,
      "v": 91
    },
    {
      "midi": 62,
      "hit": false,
      "t": 270252.6041666668,
      "d": 39.0625,
      "v": 91
    },
    {
      "midi": 62,
      "hit": false,
      "t": 270372.3958333335,
      "d": 72.91666666668607,
      "v": 91
    },
    {
      "midi": 74,
      "hit": false,
      "t": 270377.60416666657,
      "d": 369.79166666668607,
      "v": 80
    },
    {
      "midi": 62,
      "hit": false,
      "t": 270497.3958333335,
      "d": 70.3125,
      "v": 91
    },
    {
      "midi": 38,
      "hit": false,
      "t": 270499.99999999994,
      "d": 260.41666666668607,
      "v": 124
    },
    {
      "midi": 62,
      "hit": false,
      "t": 270622.3958333335,
      "d": 65.10416666668607,
      "v": 91
    },
    {
      "midi": 62,
      "hit": false,
      "t": 270747.3958333335,
      "d": 57.29166666668607,
      "v": 91
    },
    {
      "midi": 62,
      "hit": false,
      "t": 270752.60416666657,
      "d": 385.41666666668607,
      "v": 80
    },
    {
      "midi": 62,
      "hit": false,
      "t": 270872.3958333335,
      "d": 67.70833333331393,
      "v": 91
    },
    {
      "midi": 38,
      "hit": false,
      "t": 270874.99999999994,
      "d": 65.10416666668607,
      "v": 124
    },
    {
      "midi": 62,
      "hit": false,
      "t": 271000.0000000001,
      "d": 57.29166666668607,
      "v": 91
    },
    {
      "midi": 38,
      "hit": false,
      "t": 271002.6041666666,
      "d": 145.83333333331393,
      "v": 124
    },
    {
      "midi": 62,
      "hit": false,
      "t": 271125.0000000001,
      "d": 54.6875,
      "v": 91
    },
    {
      "midi": 74,
      "hit": false,
      "t": 271127.60416666657,
      "d": 445.3125,
      "v": 80
    },
    {
      "midi": 70,
      "hit": false,
      "t": 271247.3958333333,
      "d": 760.4166666666861,
      "v": 95
    },
    {
      "midi": 34,
      "hit": false,
      "t": 271249.99999999994,
      "d": 132.8125,
      "v": 124
    },
    {
      "midi": 58,
      "hit": false,
      "t": 271250,
      "d": 739.5833333333139,
      "v": 85
    },
    {
      "midi": 58,
      "hit": false,
      "t": 271250.0000000001,
      "d": 54.6875,
      "v": 91
    },
    {
      "midi": 58,
      "hit": false,
      "t": 271372.39583333343,
      "d": 62.5,
      "v": 91
    },
    {
      "midi": 34,
      "hit": false,
      "t": 271497.39583333326,
      "d": 122.39583333331393,
      "v": 124
    },
    {
      "midi": 58,
      "hit": false,
      "t": 271500.0000000001,
      "d": 59.89583333331393,
      "v": 91
    },
    {
      "midi": 55,
      "hit": false,
      "t": 271505.20833333326,
      "d": 210.9375,
      "v": 80
    },
    {
      "midi": 58,
      "hit": false,
      "t": 271625.0000000001,
      "d": 57.29166666668607,
      "v": 91
    },
    {
      "midi": 34,
      "hit": false,
      "t": 271742.1874999999,
      "d": 114.58333333331393,
      "v": 124
    },
    {
      "midi": 58,
      "hit": false,
      "t": 271744.7916666668,
      "d": 59.89583333331393,
      "v": 91
    },
    {
      "midi": 67,
      "hit": false,
      "t": 271755.20833333326,
      "d": 250,
      "v": 80
    },
    {
      "midi": 58,
      "hit": false,
      "t": 271872.39583333343,
      "d": 54.6875,
      "v": 91
    },
    {
      "midi": 38,
      "hit": false,
      "t": 271999.9999999999,
      "d": 276.04166666668607,
      "v": 124
    },
    {
      "midi": 62,
      "hit": false,
      "t": 272000.0000000001,
      "d": 52.08333333331393,
      "v": 91
    },
    {
      "midi": 62,
      "hit": false,
      "t": 272005.20833333326,
      "d": 333.33333333331393,
      "v": 80
    },
    {
      "midi": 62,
      "hit": false,
      "t": 272119.79166666674,
      "d": 78.125,
      "v": 91
    },
    {
      "midi": 62,
      "hit": false,
      "t": 272244.79166666674,
      "d": 52.08333333331393,
      "v": 91
    },
    {
      "midi": 62,
      "hit": false,
      "t": 272369.79166666674,
      "d": 70.3125,
      "v": 91
    },
    {
      "midi": 74,
      "hit": false,
      "t": 272372.39583333326,
      "d": 382.8125,
      "v": 80
    },
    {
      "midi": 38,
      "hit": false,
      "t": 272499.9999999999,
      "d": 247.39583333331393,
      "v": 124
    },
    {
      "midi": 62,
      "hit": false,
      "t": 272500.00000000006,
      "d": 57.29166666668607,
      "v": 91
    },
    {
      "midi": 62,
      "hit": false,
      "t": 272625.00000000006,
      "d": 62.5,
      "v": 91
    },
    {
      "midi": 62,
      "hit": false,
      "t": 272750.00000000006,
      "d": 52.08333333331393,
      "v": 91
    },
    {
      "midi": 62,
      "hit": false,
      "t": 272752.60416666657,
      "d": 455.72916666668607,
      "v": 80
    },
    {
      "midi": 38,
      "hit": false,
      "t": 272874.9999999999,
      "d": 59.89583333331393,
      "v": 124
    },
    {
      "midi": 62,
      "hit": false,
      "t": 272875.00000000006,
      "d": 62.5,
      "v": 91
    },
    {
      "midi": 38,
      "hit": false,
      "t": 272999.9999999999,
      "d": 130.20833333331393,
      "v": 124
    },
    {
      "midi": 62,
      "hit": false,
      "t": 273000.00000000006,
      "d": 59.89583333331393,
      "v": 91
    },
    {
      "midi": 62,
      "hit": false,
      "t": 273125.00000000006,
      "d": 57.29166666668607,
      "v": 91
    },
    {
      "midi": 74,
      "hit": false,
      "t": 273130.20833333326,
      "d": 367.1875,
      "v": 79
    },
    {
      "midi": 38,
      "hit": false,
      "t": 273249.9999999999,
      "d": 122.39583333331393,
      "v": 124
    },
    {
      "midi": 62,
      "hit": false,
      "t": 273250.00000000006,
      "d": 54.6875,
      "v": 91
    },
    {
      "midi": 62,
      "hit": false,
      "t": 273375.00000000006,
      "d": 70.3125,
      "v": 91
    },
    {
      "midi": 38,
      "hit": false,
      "t": 273499.9999999999,
      "d": 130.20833333331393,
      "v": 124
    },
    {
      "midi": 55,
      "hit": false,
      "t": 273502.60416666657,
      "d": 265.625,
      "v": 79
    },
    {
      "midi": 55,
      "hit": false,
      "t": 273502.6041666666,
      "d": 526.0416666666861,
      "v": 109
    },
    {
      "midi": 58,
      "hit": false,
      "t": 273502.6041666666,
      "d": 526.0416666666861,
      "v": 109
    },
    {
      "midi": 62,
      "hit": false,
      "t": 273502.60416666674,
      "d": 52.08333333331393,
      "v": 91
    },
    {
      "midi": 62,
      "hit": false,
      "t": 273625.00000000006,
      "d": 39.0625,
      "v": 91
    },
    {
      "midi": 38,
      "hit": false,
      "t": 273749.9999999999,
      "d": 125,
      "v": 124
    },
    {
      "midi": 62,
      "hit": false,
      "t": 273750.00000000006,
      "d": 49.47916666668607,
      "v": 91
    },
    {
      "midi": 67,
      "hit": false,
      "t": 273752.60416666657,
      "d": 250,
      "v": 79
    },
    {
      "midi": 62,
      "hit": false,
      "t": 273875.00000000006,
      "d": 75.52083333331393,
      "v": 91
    },
    {
      "midi": 38,
      "hit": false,
      "t": 273999.9999999999,
      "d": 315.10416666668607,
      "v": 126
    },
    {
      "midi": 62,
      "hit": false,
      "t": 273999.9999999999,
      "d": 333.33333333337214,
      "v": 79
    },
    {
      "midi": 78,
      "hit": false,
      "t": 274002.60416666645,
      "d": 1302.083333333314,
      "v": 95
    },
    {
      "midi": 57,
      "hit": false,
      "t": 274002.6041666666,
      "d": 333.33333333337214,
      "v": 115
    },
    {
      "midi": 62,
      "hit": false,
      "t": 274002.6041666667,
      "d": 75.52083333331393,
      "v": 91
    },
    {
      "midi": 54,
      "hit": false,
      "t": 274005.2083333333,
      "d": 320.3125,
      "v": 109
    },
    {
      "midi": 62,
      "hit": false,
      "t": 274122.3958333333,
      "d": 70.3125,
      "v": 91
    },
    {
      "midi": 62,
      "hit": false,
      "t": 274252.6041666666,
      "d": 39.0625,
      "v": 91
    },
    {
      "midi": 74,
      "hit": false,
      "t": 274372.39583333326,
      "d": 367.1875,
      "v": 76
    },
    {
      "midi": 62,
      "hit": false,
      "t": 274372.3958333333,
      "d": 72.91666666668607,
      "v": 91
    },
    {
      "midi": 38,
      "hit": false,
      "t": 274492.1874999999,
      "d": 247.39583333331393,
      "v": 126
    },
    {
      "midi": 62,
      "hit": false,
      "t": 274497.3958333333,
      "d": 70.3125,
      "v": 91
    },
    {
      "midi": 62,
      "hit": false,
      "t": 274622.3958333333,
      "d": 65.10416666668607,
      "v": 91
    },
    {
      "midi": 62,
      "hit": false,
      "t": 274747.39583333326,
      "d": 429.6875,
      "v": 76
    },
    {
      "midi": 62,
      "hit": false,
      "t": 274747.3958333333,
      "d": 57.29166666668607,
      "v": 91
    },
    {
      "midi": 38,
      "hit": false,
      "t": 274867.1874999999,
      "d": 57.29166666668607,
      "v": 126
    },
    {
      "midi": 62,
      "hit": false,
      "t": 274872.3958333333,
      "d": 67.70833333331393,
      "v": 91
    },
    {
      "midi": 38,
      "hit": false,
      "t": 274997.39583333326,
      "d": 138.02083333331393,
      "v": 126
    },
    {
      "midi": 62,
      "hit": false,
      "t": 274999.99999999994,
      "d": 57.29166666668607,
      "v": 91
    },
    {
      "midi": 62,
      "hit": false,
      "t": 275124.99999999994,
      "d": 54.6875,
      "v": 91
    },
    {
      "midi": 74,
      "hit": false,
      "t": 275127.60416666657,
      "d": 437.5,
      "v": 76
    },
    {
      "midi": 70,
      "hit": false,
      "t": 275247.3958333333,
      "d": 820.3125,
      "v": 97
    },
    {
      "midi": 34,
      "hit": false,
      "t": 275249.9999999999,
      "d": 127.60416666668607,
      "v": 124
    },
    {
      "midi": 58,
      "hit": false,
      "t": 275249.99999999994,
      "d": 54.6875,
      "v": 91
    },
    {
      "midi": 58,
      "hit": false,
      "t": 275250,
      "d": 796.875,
      "v": 83
    },
    {
      "midi": 81,
      "hit": false,
      "t": 275252.60416666645,
      "d": 406.2499999999418,
      "v": 95
    },
    {
      "midi": 58,
      "hit": false,
      "t": 275372.39583333326,
      "d": 62.5,
      "v": 91
    },
    {
      "midi": 34,
      "hit": false,
      "t": 275499.9999999999,
      "d": 148.4375,
      "v": 124
    },
    {
      "midi": 58,
      "hit": false,
      "t": 275499.99999999994,
      "d": 59.89583333331393,
      "v": 91
    },
    {
      "midi": 55,
      "hit": false,
      "t": 275502.60416666657,
      "d": 221.35416666668607,
      "v": 76
    },
    {
      "midi": 58,
      "hit": false,
      "t": 275624.99999999994,
      "d": 57.29166666668607,
      "v": 91
    },
    {
      "midi": 79,
      "hit": false,
      "t": 275630.2083333331,
      "d": 375,
      "v": 95
    },
    {
      "midi": 58,
      "hit": false,
      "t": 275744.7916666666,
      "d": 59.89583333331393,
      "v": 91
    },
    {
      "midi": 34,
      "hit": false,
      "t": 275747.3958333332,
      "d": 122.39583333331393,
      "v": 122
    },
    {
      "midi": 67,
      "hit": false,
      "t": 275747.39583333326,
      "d": 265.625,
      "v": 76
    },
    {
      "midi": 58,
      "hit": false,
      "t": 275872.39583333326,
      "d": 54.6875,
      "v": 91
    },
    {
      "midi": 38,
      "hit": false,
      "t": 275999.9999999998,
      "d": 330.72916666668607,
      "v": 122
    },
    {
      "midi": 62,
      "hit": false,
      "t": 275999.99999999994,
      "d": 52.08333333331393,
      "v": 91
    },
    {
      "midi": 78,
      "hit": false,
      "t": 276002.6041666664,
      "d": 346.35416666668607,
      "v": 95
    },
    {
      "midi": 62,
      "hit": false,
      "t": 276002.60416666657,
      "d": 377.60416666668607,
      "v": 76
    },
    {
      "midi": 62,
      "hit": false,
      "t": 276119.79166666657,
      "d": 78.125,
      "v": 91
    },
    {
      "midi": 62,
      "hit": false,
      "t": 276244.79166666657,
      "d": 52.08333333331393,
      "v": 91
    },
    {
      "midi": 62,
      "hit": false,
      "t": 276369.79166666657,
      "d": 70.3125,
      "v": 91
    },
    {
      "midi": 76,
      "hit": false,
      "t": 276372.3958333331,
      "d": 140.625,
      "v": 95
    },
    {
      "midi": 74,
      "hit": false,
      "t": 276377.60416666657,
      "d": 382.8125,
      "v": 76
    },
    {
      "midi": 74,
      "hit": false,
      "t": 276497.3958333331,
      "d": 328.125,
      "v": 95
    },
    {
      "midi": 38,
      "hit": false,
      "t": 276499.9999999998,
      "d": 276.04166666668607,
      "v": 122
    },
    {
      "midi": 62,
      "hit": false,
      "t": 276499.9999999999,
      "d": 57.29166666668607,
      "v": 91
    },
    {
      "midi": 62,
      "hit": false,
      "t": 276624.9999999999,
      "d": 62.5,
      "v": 91
    },
    {
      "midi": 62,
      "hit": false,
      "t": 276749.9999999999,
      "d": 52.08333333331393,
      "v": 91
    },
    {
      "midi": 70,
      "hit": false,
      "t": 276752.6041666664,
      "d": 533.8541666666861,
      "v": 95
    },
    {
      "midi": 62,
      "hit": false,
      "t": 276752.60416666657,
      "d": 395.83333333331393,
      "v": 80
    },
    {
      "midi": 62,
      "hit": false,
      "t": 276874.9999999999,
      "d": 62.5,
      "v": 91
    },
    {
      "midi": 38,
      "hit": false,
      "t": 276880.2083333332,
      "d": 78.125,
      "v": 122
    },
    {
      "midi": 62,
      "hit": false,
      "t": 276999.9999999999,
      "d": 59.89583333331393,
      "v": 91
    },
    {
      "midi": 38,
      "hit": false,
      "t": 277007.8124999999,
      "d": 161.45833333331393,
      "v": 122
    },
    {
      "midi": 62,
      "hit": false,
      "t": 277124.9999999999,
      "d": 57.29166666668607,
      "v": 91
    },
    {
      "midi": 74,
      "hit": false,
      "t": 277127.60416666657,
      "d": 546.8749999999418,
      "v": 80
    },
    {
      "midi": 69,
      "hit": false,
      "t": 277247.3958333331,
      "d": 528.6458333333139,
      "v": 95
    },
    {
      "midi": 62,
      "hit": false,
      "t": 277249.9999999999,
      "d": 54.6875,
      "v": 91
    },
    {
      "midi": 38,
      "hit": false,
      "t": 277257.8124999999,
      "d": 138.02083333331393,
      "v": 122
    },
    {
      "midi": 62,
      "hit": false,
      "t": 277374.9999999999,
      "d": 70.3125,
      "v": 91
    },
    {
      "midi": 62,
      "hit": false,
      "t": 277502.60416666657,
      "d": 52.08333333331393,
      "v": 91
    },
    {
      "midi": 55,
      "hit": false,
      "t": 277502.6041666667,
      "d": 473.95833333331393,
      "v": 121
    },
    {
      "midi": 51,
      "hit": false,
      "t": 277502.6041666667,
      "d": 518.2291666666279,
      "v": 121
    },
    {
      "midi": 38,
      "hit": false,
      "t": 277505.2083333332,
      "d": 145.83333333331393,
      "v": 122
    },
    {
      "midi": 55,
      "hit": false,
      "t": 277505.2083333332,
      "d": 200.52083333331393,
      "v": 80
    },
    {
      "midi": 62,
      "hit": false,
      "t": 277624.9999999999,
      "d": 39.0625,
      "v": 91
    },
    {
      "midi": 62,
      "hit": false,
      "t": 277749.9999999999,
      "d": 49.47916666668607,
      "v": 91
    },
    {
      "midi": 67,
      "hit": false,
      "t": 277752.6041666665,
      "d": 257.8125,
      "v": 80
    },
    {
      "midi": 38,
      "hit": false,
      "t": 277755.2083333332,
      "d": 111.97916666668607,
      "v": 122
    },
    {
      "midi": 62,
      "hit": false,
      "t": 277874.9999999999,
      "d": 75.52083333331393,
      "v": 91
    },
    {
      "midi": 54,
      "hit": false,
      "t": 277997.3958333333,
      "d": 466.14583333331393,
      "v": 119
    },
    {
      "midi": 38,
      "hit": false,
      "t": 277999.9999999999,
      "d": 328.125,
      "v": 122
    },
    {
      "midi": 78,
      "hit": false,
      "t": 278002.6041666664,
      "d": 1260.4166666666279,
      "v": 95
    },
    {
      "midi": 62,
      "hit": false,
      "t": 278002.6041666665,
      "d": 75.52083333331393,
      "v": 91
    },
    {
      "midi": 50,
      "hit": false,
      "t": 278002.6041666666,
      "d": 453.125,
      "v": 121
    },
    {
      "midi": 62,
      "hit": false,
      "t": 278005.2083333332,
      "d": 333.33333333331393,
      "v": 80
    },
    {
      "midi": 62,
      "hit": false,
      "t": 278122.39583333314,
      "d": 70.3125,
      "v": 91
    },
    {
      "midi": 62,
      "hit": false,
      "t": 278252.60416666645,
      "d": 39.0625,
      "v": 91
    },
    {
      "midi": 62,
      "hit": false,
      "t": 278372.39583333314,
      "d": 72.91666666668607,
      "v": 91
    },
    {
      "midi": 74,
      "hit": false,
      "t": 278377.6041666665,
      "d": 369.79166666668607,
      "v": 80
    },
    {
      "midi": 62,
      "hit": false,
      "t": 278497.39583333314,
      "d": 70.3125,
      "v": 91
    },
    {
      "midi": 38,
      "hit": false,
      "t": 278499.9999999999,
      "d": 260.41666666668607,
      "v": 124
    },
    {
      "midi": 62,
      "hit": false,
      "t": 278622.39583333314,
      "d": 65.10416666668607,
      "v": 91
    },
    {
      "midi": 62,
      "hit": false,
      "t": 278747.39583333314,
      "d": 57.29166666668607,
      "v": 91
    },
    {
      "midi": 62,
      "hit": false,
      "t": 278752.6041666665,
      "d": 385.41666666668607,
      "v": 80
    },
    {
      "midi": 62,
      "hit": false,
      "t": 278872.39583333314,
      "d": 67.70833333331393,
      "v": 91
    },
    {
      "midi": 38,
      "hit": false,
      "t": 278874.9999999999,
      "d": 65.10416666668607,
      "v": 124
    },
    {
      "midi": 62,
      "hit": false,
      "t": 278999.99999999977,
      "d": 57.29166666668607,
      "v": 91
    },
    {
      "midi": 38,
      "hit": false,
      "t": 279002.60416666657,
      "d": 145.83333333331393,
      "v": 124
    },
    {
      "midi": 62,
      "hit": false,
      "t": 279124.99999999977,
      "d": 54.6875,
      "v": 91
    },
    {
      "midi": 74,
      "hit": false,
      "t": 279127.6041666665,
      "d": 445.3125,
      "v": 80
    },
    {
      "midi": 81,
      "hit": false,
      "t": 279249.9999999997,
      "d": 419.27083333331393,
      "v": 97
    },
    {
      "midi": 58,
      "hit": false,
      "t": 279249.99999999977,
      "d": 54.6875,
      "v": 91
    },
    {
      "midi": 34,
      "hit": false,
      "t": 279249.9999999999,
      "d": 132.8125,
      "v": 124
    },
    {
      "midi": 58,
      "hit": false,
      "t": 279250,
      "d": 697.9166666666861,
      "v": 76
    },
    {
      "midi": 70,
      "hit": false,
      "t": 279252.6041666667,
      "d": 700.5208333333139,
      "v": 83
    },
    {
      "midi": 58,
      "hit": false,
      "t": 279372.3958333331,
      "d": 62.5,
      "v": 91
    },
    {
      "midi": 34,
      "hit": false,
      "t": 279497.3958333332,
      "d": 122.39583333331393,
      "v": 124
    },
    {
      "midi": 58,
      "hit": false,
      "t": 279499.99999999977,
      "d": 59.89583333331393,
      "v": 91
    },
    {
      "midi": 55,
      "hit": false,
      "t": 279505.2083333332,
      "d": 210.9375,
      "v": 80
    },
    {
      "midi": 58,
      "hit": false,
      "t": 279624.99999999977,
      "d": 57.29166666668607,
      "v": 91
    },
    {
      "midi": 79,
      "hit": false,
      "t": 279630.208333333,
      "d": 382.8125,
      "v": 97
    },
    {
      "midi": 34,
      "hit": false,
      "t": 279742.1874999998,
      "d": 114.58333333331393,
      "v": 124
    },
    {
      "midi": 58,
      "hit": false,
      "t": 279744.79166666645,
      "d": 59.89583333331393,
      "v": 91
    },
    {
      "midi": 67,
      "hit": false,
      "t": 279755.2083333332,
      "d": 250,
      "v": 80
    },
    {
      "midi": 58,
      "hit": false,
      "t": 279872.3958333331,
      "d": 54.6875,
      "v": 91
    },
    {
      "midi": 62,
      "hit": false,
      "t": 279999.99999999977,
      "d": 52.08333333331393,
      "v": 91
    },
    {
      "midi": 38,
      "hit": false,
      "t": 279999.9999999998,
      "d": 276.04166666668607,
      "v": 124
    },
    {
      "midi": 78,
      "hit": false,
      "t": 280002.60416666634,
      "d": 361.97916666668607,
      "v": 97
    },
    {
      "midi": 62,
      "hit": false,
      "t": 280005.2083333332,
      "d": 333.33333333331393,
      "v": 80
    },
    {
      "midi": 62,
      "hit": false,
      "t": 280119.7916666664,
      "d": 78.125,
      "v": 91
    },
    {
      "midi": 62,
      "hit": false,
      "t": 280244.7916666664,
      "d": 52.08333333331393,
      "v": 91
    },
    {
      "midi": 62,
      "hit": false,
      "t": 280369.7916666664,
      "d": 70.3125,
      "v": 91
    },
    {
      "midi": 76,
      "hit": false,
      "t": 280372.395833333,
      "d": 151.04166666668607,
      "v": 97
    },
    {
      "midi": 74,
      "hit": false,
      "t": 280372.3958333332,
      "d": 382.8125,
      "v": 80
    },
    {
      "midi": 74,
      "hit": false,
      "t": 280497.395833333,
      "d": 315.10416666668607,
      "v": 97
    },
    {
      "midi": 62,
      "hit": false,
      "t": 280499.9999999997,
      "d": 57.29166666668607,
      "v": 91
    },
    {
      "midi": 38,
      "hit": false,
      "t": 280499.9999999998,
      "d": 247.39583333331393,
      "v": 124
    },
    {
      "midi": 62,
      "hit": false,
      "t": 280624.9999999997,
      "d": 62.5,
      "v": 91
    },
    {
      "midi": 62,
      "hit": false,
      "t": 280749.9999999997,
      "d": 52.08333333331393,
      "v": 91
    },
    {
      "midi": 70,
      "hit": false,
      "t": 280752.6041666664,
      "d": 549.4791666666279,
      "v": 97
    },
    {
      "midi": 62,
      "hit": false,
      "t": 280752.6041666665,
      "d": 455.72916666668607,
      "v": 80
    },
    {
      "midi": 62,
      "hit": false,
      "t": 280874.9999999997,
      "d": 62.5,
      "v": 91
    },
    {
      "midi": 38,
      "hit": false,
      "t": 280874.9999999998,
      "d": 59.89583333331393,
      "v": 124
    },
    {
      "midi": 62,
      "hit": false,
      "t": 280999.9999999997,
      "d": 59.89583333331393,
      "v": 91
    },
    {
      "midi": 38,
      "hit": false,
      "t": 280999.9999999998,
      "d": 130.20833333331393,
      "v": 124
    },
    {
      "midi": 62,
      "hit": false,
      "t": 281124.9999999997,
      "d": 57.29166666668607,
      "v": 91
    },
    {
      "midi": 74,
      "hit": false,
      "t": 281130.2083333332,
      "d": 367.1875,
      "v": 80
    },
    {
      "midi": 62,
      "hit": false,
      "t": 281249.9999999997,
      "d": 54.6875,
      "v": 91
    },
    {
      "midi": 38,
      "hit": false,
      "t": 281249.9999999998,
      "d": 122.39583333331393,
      "v": 124
    },
    {
      "midi": 69,
      "hit": false,
      "t": 281255.208333333,
      "d": 528.6458333333139,
      "v": 97
    },
    {
      "midi": 62,
      "hit": false,
      "t": 281374.9999999997,
      "d": 70.3125,
      "v": 91
    },
    {
      "midi": 38,
      "hit": false,
      "t": 281499.9999999998,
      "d": 130.20833333331393,
      "v": 124
    },
    {
      "midi": 62,
      "hit": false,
      "t": 281502.6041666664,
      "d": 52.08333333331393,
      "v": 91
    },
    {
      "midi": 55,
      "hit": false,
      "t": 281502.6041666665,
      "d": 265.625,
      "v": 80
    },
    {
      "midi": 55,
      "hit": false,
      "t": 281502.6041666666,
      "d": 526.0416666666861,
      "v": 109
    },
    {
      "midi": 58,
      "hit": false,
      "t": 281502.6041666666,
      "d": 526.0416666666861,
      "v": 109
    },
    {
      "midi": 62,
      "hit": false,
      "t": 281624.9999999997,
      "d": 39.0625,
      "v": 91
    },
    {
      "midi": 62,
      "hit": false,
      "t": 281749.9999999997,
      "d": 49.47916666668607,
      "v": 91
    },
    {
      "midi": 38,
      "hit": false,
      "t": 281749.9999999998,
      "d": 125,
      "v": 124
    },
    {
      "midi": 67,
      "hit": false,
      "t": 281752.6041666665,
      "d": 250,
      "v": 80
    },
    {
      "midi": 62,
      "hit": false,
      "t": 281874.9999999997,
      "d": 75.52083333331393,
      "v": 91
    },
    {
      "midi": 78,
      "hit": false,
      "t": 281997.395833333,
      "d": 1296.8750000000582,
      "v": 99
    },
    {
      "midi": 38,
      "hit": false,
      "t": 281999.9999999998,
      "d": 315.10416666668607,
      "v": 126
    },
    {
      "midi": 62,
      "hit": false,
      "t": 281999.9999999998,
      "d": 333.33333333331393,
      "v": 80
    },
    {
      "midi": 62,
      "hit": false,
      "t": 282002.6041666664,
      "d": 75.52083333331393,
      "v": 91
    },
    {
      "midi": 57,
      "hit": false,
      "t": 282002.6041666666,
      "d": 333.33333333337214,
      "v": 115
    },
    {
      "midi": 54,
      "hit": false,
      "t": 282005.2083333333,
      "d": 320.3125,
      "v": 109
    },
    {
      "midi": 62,
      "hit": false,
      "t": 282122.395833333,
      "d": 70.3125,
      "v": 91
    },
    {
      "midi": 62,
      "hit": false,
      "t": 282252.6041666664,
      "d": 39.0625,
      "v": 91
    },
    {
      "midi": 62,
      "hit": false,
      "t": 282372.3958333331,
      "d": 72.91666666668607,
      "v": 91
    },
    {
      "midi": 74,
      "hit": false,
      "t": 282372.39583333314,
      "d": 367.1875,
      "v": 80
    },
    {
      "midi": 38,
      "hit": false,
      "t": 282492.1874999998,
      "d": 247.39583333331393,
      "v": 126
    },
    {
      "midi": 62,
      "hit": false,
      "t": 282497.3958333331,
      "d": 70.3125,
      "v": 91
    },
    {
      "midi": 62,
      "hit": false,
      "t": 282622.3958333331,
      "d": 65.10416666668607,
      "v": 91
    },
    {
      "midi": 62,
      "hit": false,
      "t": 282747.3958333331,
      "d": 57.29166666668607,
      "v": 91
    },
    {
      "midi": 62,
      "hit": false,
      "t": 282747.39583333314,
      "d": 429.6875000000582,
      "v": 80
    },
    {
      "midi": 38,
      "hit": false,
      "t": 282867.1874999998,
      "d": 57.29166666668607,
      "v": 126
    },
    {
      "midi": 62,
      "hit": false,
      "t": 282872.3958333331,
      "d": 67.70833333337214,
      "v": 91
    },
    {
      "midi": 38,
      "hit": false,
      "t": 282997.3958333332,
      "d": 138.02083333337214,
      "v": 126
    },
    {
      "midi": 62,
      "hit": false,
      "t": 282999.99999999977,
      "d": 57.29166666668607,
      "v": 91
    },
    {
      "midi": 62,
      "hit": false,
      "t": 283124.99999999977,
      "d": 54.6875,
      "v": 91
    },
    {
      "midi": 74,
      "hit": false,
      "t": 283127.6041666665,
      "d": 437.5000000000582,
      "v": 97
    },
    {
      "midi": 70,
      "hit": false,
      "t": 283247.3958333333,
      "d": 750,
      "v": 89
    },
    {
      "midi": 58,
      "hit": false,
      "t": 283249.99999999977,
      "d": 54.6875,
      "v": 91
    },
    {
      "midi": 34,
      "hit": false,
      "t": 283249.9999999999,
      "d": 127.60416666668607,
      "v": 124
    },
    {
      "midi": 81,
      "hit": false,
      "t": 283252.6041666664,
      "d": 445.3125,
      "v": 97
    },
    {
      "midi": 58,
      "hit": false,
      "t": 283252.6041666667,
      "d": 750,
      "v": 85
    },
    {
      "midi": 58,
      "hit": false,
      "t": 283372.3958333331,
      "d": 62.5,
      "v": 91
    },
    {
      "midi": 58,
      "hit": false,
      "t": 283499.99999999977,
      "d": 59.89583333331393,
      "v": 91
    },
    {
      "midi": 34,
      "hit": false,
      "t": 283499.9999999999,
      "d": 148.4375,
      "v": 124
    },
    {
      "midi": 55,
      "hit": false,
      "t": 283502.60416666657,
      "d": 221.35416666662786,
      "v": 97
    },
    {
      "midi": 58,
      "hit": false,
      "t": 283624.99999999977,
      "d": 57.29166666668607,
      "v": 91
    },
    {
      "midi": 79,
      "hit": false,
      "t": 283630.2083333331,
      "d": 374.9999999999418,
      "v": 97
    },
    {
      "midi": 58,
      "hit": false,
      "t": 283744.79166666645,
      "d": 59.89583333331393,
      "v": 91
    },
    {
      "midi": 34,
      "hit": false,
      "t": 283747.3958333332,
      "d": 122.39583333337214,
      "v": 122
    },
    {
      "midi": 67,
      "hit": false,
      "t": 283747.3958333332,
      "d": 265.6250000000582,
      "v": 83
    },
    {
      "midi": 58,
      "hit": false,
      "t": 283872.3958333331,
      "d": 54.6875,
      "v": 91
    },
    {
      "midi": 62,
      "hit": false,
      "t": 283999.99999999977,
      "d": 52.08333333331393,
      "v": 91
    },
    {
      "midi": 38,
      "hit": false,
      "t": 283999.9999999999,
      "d": 330.72916666668607,
      "v": 122
    },
    {
      "midi": 62,
      "hit": false,
      "t": 284002.60416666657,
      "d": 377.6041666667443,
      "v": 82
    },
    {
      "midi": 78,
      "hit": false,
      "t": 284005.208333333,
      "d": 361.97916666668607,
      "v": 97
    },
    {
      "midi": 62,
      "hit": false,
      "t": 284119.7916666664,
      "d": 78.125,
      "v": 91
    },
    {
      "midi": 62,
      "hit": false,
      "t": 284244.7916666664,
      "d": 52.08333333331393,
      "v": 91
    },
    {
      "midi": 62,
      "hit": false,
      "t": 284369.7916666664,
      "d": 70.3125,
      "v": 91
    },
    {
      "midi": 76,
      "hit": false,
      "t": 284377.6041666664,
      "d": 164.0624999999418,
      "v": 97
    },
    {
      "midi": 74,
      "hit": false,
      "t": 284377.6041666666,
      "d": 382.8125000000582,
      "v": 82
    },
    {
      "midi": 62,
      "hit": false,
      "t": 284499.9999999997,
      "d": 57.29166666668607,
      "v": 91
    },
    {
      "midi": 38,
      "hit": false,
      "t": 284499.9999999999,
      "d": 276.04166666668607,
      "v": 122
    },
    {
      "midi": 74,
      "hit": false,
      "t": 284505.208333333,
      "d": 307.29166666662786,
      "v": 97
    },
    {
      "midi": 62,
      "hit": false,
      "t": 284624.9999999997,
      "d": 62.5,
      "v": 91
    },
    {
      "midi": 62,
      "hit": false,
      "t": 284749.9999999997,
      "d": 52.08333333331393,
      "v": 91
    },
    {
      "midi": 62,
      "hit": false,
      "t": 284752.6041666667,
      "d": 395.83333333331393,
      "v": 80
    },
    {
      "midi": 70,
      "hit": false,
      "t": 284755.20833333296,
      "d": 544.2708333333139,
      "v": 97
    },
    {
      "midi": 62,
      "hit": false,
      "t": 284874.9999999997,
      "d": 62.5,
      "v": 91
    },
    {
      "midi": 38,
      "hit": false,
      "t": 284880.2083333332,
      "d": 78.125,
      "v": 122
    },
    {
      "midi": 62,
      "hit": false,
      "t": 284999.9999999997,
      "d": 59.89583333331393,
      "v": 91
    },
    {
      "midi": 38,
      "hit": false,
      "t": 285007.8124999999,
      "d": 161.45833333331393,
      "v": 122
    },
    {
      "midi": 62,
      "hit": false,
      "t": 285124.9999999997,
      "d": 57.29166666668607,
      "v": 91
    },
    {
      "midi": 74,
      "hit": false,
      "t": 285127.6041666667,
      "d": 546.875,
      "v": 80
    },
    {
      "midi": 62,
      "hit": false,
      "t": 285249.9999999997,
      "d": 54.6875,
      "v": 91
    },
    {
      "midi": 69,
      "hit": false,
      "t": 285255.20833333296,
      "d": 486.97916666662786,
      "v": 97
    },
    {
      "midi": 38,
      "hit": false,
      "t": 285257.8124999999,
      "d": 138.02083333331393,
      "v": 122
    },
    {
      "midi": 62,
      "hit": false,
      "t": 285374.9999999997,
      "d": 70.3125,
      "v": 91
    },
    {
      "midi": 62,
      "hit": false,
      "t": 285502.6041666664,
      "d": 52.08333333331393,
      "v": 91
    },
    {
      "midi": 55,
      "hit": false,
      "t": 285502.6041666667,
      "d": 473.95833333331393,
      "v": 121
    },
    {
      "midi": 51,
      "hit": false,
      "t": 285502.6041666667,
      "d": 518.2291666666861,
      "v": 121
    },
    {
      "midi": 38,
      "hit": false,
      "t": 285505.2083333332,
      "d": 145.83333333337214,
      "v": 122
    },
    {
      "midi": 55,
      "hit": false,
      "t": 285505.2083333333,
      "d": 200.52083333337214,
      "v": 80
    },
    {
      "midi": 62,
      "hit": false,
      "t": 285624.9999999997,
      "d": 39.0625,
      "v": 91
    },
    {
      "midi": 62,
      "hit": false,
      "t": 285749.9999999997,
      "d": 49.47916666668607,
      "v": 91
    },
    {
      "midi": 67,
      "hit": false,
      "t": 285752.6041666667,
      "d": 257.8124999999418,
      "v": 80
    },
    {
      "midi": 38,
      "hit": false,
      "t": 285755.2083333332,
      "d": 111.97916666668607,
      "v": 122
    },
    {
      "midi": 62,
      "hit": false,
      "t": 285874.9999999997,
      "d": 75.52083333331393,
      "v": 91
    },
    {
      "midi": 78,
      "hit": false,
      "t": 285997.3958333329,
      "d": 1335.9375000000582,
      "v": 97
    },
    {
      "midi": 54,
      "hit": false,
      "t": 285997.3958333333,
      "d": 466.14583333343035,
      "v": 119
    },
    {
      "midi": 38,
      "hit": false,
      "t": 285999.9999999999,
      "d": 328.125,
      "v": 122
    },
    {
      "midi": 62,
      "hit": false,
      "t": 286002.6041666664,
      "d": 75.52083333331393,
      "v": 91
    },
    {
      "midi": 50,
      "hit": false,
      "t": 286002.6041666667,
      "d": 453.1250000000582,
      "v": 121
    },
    {
      "midi": 62,
      "hit": false,
      "t": 286005.2083333333,
      "d": 333.33333333331393,
      "v": 80
    },
    {
      "midi": 62,
      "hit": false,
      "t": 286122.395833333,
      "d": 70.3125,
      "v": 91
    },
    {
      "midi": 62,
      "hit": false,
      "t": 286252.6041666664,
      "d": 39.0625,
      "v": 91
    },
    {
      "midi": 62,
      "hit": false,
      "t": 286372.3958333331,
      "d": 72.91666666668607,
      "v": 91
    },
    {
      "midi": 74,
      "hit": false,
      "t": 286377.6041666666,
      "d": 369.79166666662786,
      "v": 80
    },
    {
      "midi": 62,
      "hit": false,
      "t": 286497.3958333331,
      "d": 70.3125,
      "v": 91
    },
    {
      "midi": 38,
      "hit": false,
      "t": 286499.9999999999,
      "d": 260.41666666668607,
      "v": 124
    },
    {
      "midi": 62,
      "hit": false,
      "t": 286622.3958333331,
      "d": 65.10416666668607,
      "v": 91
    },
    {
      "midi": 62,
      "hit": false,
      "t": 286747.3958333331,
      "d": 57.29166666668607,
      "v": 91
    },
    {
      "midi": 62,
      "hit": false,
      "t": 286752.6041666666,
      "d": 385.41666666668607,
      "v": 80
    },
    {
      "midi": 62,
      "hit": false,
      "t": 286872.3958333331,
      "d": 67.70833333337214,
      "v": 91
    },
    {
      "midi": 38,
      "hit": false,
      "t": 286874.9999999999,
      "d": 65.10416666668607,
      "v": 124
    },
    {
      "midi": 62,
      "hit": false,
      "t": 286999.99999999977,
      "d": 57.29166666668607,
      "v": 91
    },
    {
      "midi": 38,
      "hit": false,
      "t": 287002.60416666657,
      "d": 145.83333333331393,
      "v": 124
    },
    {
      "midi": 62,
      "hit": false,
      "t": 287124.99999999977,
      "d": 54.6875,
      "v": 91
    },
    {
      "midi": 74,
      "hit": false,
      "t": 287127.6041666666,
      "d": 445.3125,
      "v": 80
    },
    {
      "midi": 70,
      "hit": false,
      "t": 287247.3958333333,
      "d": 760.4166666666861,
      "v": 83
    },
    {
      "midi": 58,
      "hit": false,
      "t": 287249.99999999977,
      "d": 54.6875,
      "v": 91
    },
    {
      "midi": 34,
      "hit": false,
      "t": 287249.9999999999,
      "d": 132.8125,
      "v": 124
    },
    {
      "midi": 58,
      "hit": false,
      "t": 287250,
      "d": 739.5833333333139,
      "v": 83
    },
    {
      "midi": 81,
      "hit": false,
      "t": 287252.6041666663,
      "d": 403.64583333337214,
      "v": 97
    },
    {
      "midi": 58,
      "hit": false,
      "t": 287372.3958333331,
      "d": 62.5,
      "v": 91
    },
    {
      "midi": 34,
      "hit": false,
      "t": 287497.3958333332,
      "d": 122.39583333337214,
      "v": 124
    },
    {
      "midi": 58,
      "hit": false,
      "t": 287499.99999999977,
      "d": 59.89583333331393,
      "v": 91
    },
    {
      "midi": 55,
      "hit": false,
      "t": 287505.2083333333,
      "d": 210.9374999999418,
      "v": 80
    },
    {
      "midi": 58,
      "hit": false,
      "t": 287624.99999999977,
      "d": 57.29166666668607,
      "v": 91
    },
    {
      "midi": 79,
      "hit": false,
      "t": 287630.20833333296,
      "d": 377.60416666668607,
      "v": 97
    },
    {
      "midi": 34,
      "hit": false,
      "t": 287742.1874999999,
      "d": 114.58333333331393,
      "v": 124
    },
    {
      "midi": 58,
      "hit": false,
      "t": 287744.79166666645,
      "d": 59.89583333331393,
      "v": 91
    },
    {
      "midi": 67,
      "hit": false,
      "t": 287755.20833333326,
      "d": 250,
      "v": 80
    },
    {
      "midi": 58,
      "hit": false,
      "t": 287872.3958333331,
      "d": 54.6875,
      "v": 91
    },
    {
      "midi": 62,
      "hit": false,
      "t": 287999.99999999977,
      "d": 52.08333333331393,
      "v": 91
    },
    {
      "midi": 38,
      "hit": false,
      "t": 287999.9999999999,
      "d": 276.04166666668607,
      "v": 124
    },
    {
      "midi": 78,
      "hit": false,
      "t": 288002.60416666634,
      "d": 361.97916666662786,
      "v": 97
    },
    {
      "midi": 62,
      "hit": false,
      "t": 288005.20833333326,
      "d": 333.33333333337214,
      "v": 80
    },
    {
      "midi": 62,
      "hit": false,
      "t": 288119.7916666664,
      "d": 78.125,
      "v": 91
    },
    {
      "midi": 62,
      "hit": false,
      "t": 288244.7916666664,
      "d": 52.08333333331393,
      "v": 91
    },
    {
      "midi": 62,
      "hit": false,
      "t": 288369.7916666664,
      "d": 70.3125,
      "v": 91
    },
    {
      "midi": 76,
      "hit": false,
      "t": 288372.39583333296,
      "d": 171.8750000000582,
      "v": 97
    },
    {
      "midi": 74,
      "hit": false,
      "t": 288372.3958333333,
      "d": 382.8125000000582,
      "v": 80
    },
    {
      "midi": 62,
      "hit": false,
      "t": 288499.9999999997,
      "d": 57.29166666668607,
      "v": 91
    },
    {
      "midi": 38,
      "hit": false,
      "t": 288499.9999999999,
      "d": 247.39583333331393,
      "v": 124
    },
    {
      "midi": 74,
      "hit": false,
      "t": 288502.60416666634,
      "d": 302.08333333337214,
      "v": 97
    },
    {
      "midi": 62,
      "hit": false,
      "t": 288624.9999999997,
      "d": 62.5,
      "v": 91
    },
    {
      "midi": 62,
      "hit": false,
      "t": 288749.9999999997,
      "d": 52.08333333331393,
      "v": 91
    },
    {
      "midi": 70,
      "hit": false,
      "t": 288752.6041666664,
      "d": 544.2708333333139,
      "v": 97
    },
    {
      "midi": 62,
      "hit": false,
      "t": 288752.6041666667,
      "d": 455.72916666668607,
      "v": 80
    },
    {
      "midi": 62,
      "hit": false,
      "t": 288874.9999999997,
      "d": 62.5,
      "v": 91
    },
    {
      "midi": 38,
      "hit": false,
      "t": 288874.9999999999,
      "d": 59.89583333331393,
      "v": 124
    },
    {
      "midi": 62,
      "hit": false,
      "t": 288999.9999999997,
      "d": 59.89583333331393,
      "v": 91
    },
    {
      "midi": 38,
      "hit": false,
      "t": 288999.9999999999,
      "d": 130.20833333331393,
      "v": 124
    },
    {
      "midi": 62,
      "hit": false,
      "t": 289124.9999999997,
      "d": 57.29166666668607,
      "v": 91
    },
    {
      "midi": 74,
      "hit": false,
      "t": 289130.2083333334,
      "d": 367.1875,
      "v": 79
    },
    {
      "midi": 62,
      "hit": false,
      "t": 289249.9999999997,
      "d": 54.6875,
      "v": 91
    },
    {
      "midi": 38,
      "hit": false,
      "t": 289249.9999999999,
      "d": 122.39583333331393,
      "v": 124
    },
    {
      "midi": 69,
      "hit": false,
      "t": 289252.6041666664,
      "d": 398.4375,
      "v": 97
    },
    {
      "midi": 62,
      "hit": false,
      "t": 289374.9999999997,
      "d": 70.3125,
      "v": 91
    },
    {
      "midi": 38,
      "hit": false,
      "t": 289499.9999999999,
      "d": 130.20833333331393,
      "v": 124
    },
    {
      "midi": 62,
      "hit": false,
      "t": 289502.6041666664,
      "d": 52.08333333331393,
      "v": 91
    },
    {
      "midi": 55,
      "hit": false,
      "t": 289502.60416666674,
      "d": 526.0416666666861,
      "v": 109
    },
    {
      "midi": 58,
      "hit": false,
      "t": 289502.60416666674,
      "d": 526.0416666666861,
      "v": 109
    },
    {
      "midi": 55,
      "hit": false,
      "t": 289502.60416666674,
      "d": 265.625,
      "v": 79
    },
    {
      "midi": 62,
      "hit": false,
      "t": 289624.9999999997,
      "d": 39.0625,
      "v": 91
    },
    {
      "midi": 62,
      "hit": false,
      "t": 289749.9999999997,
      "d": 49.47916666668607,
      "v": 91
    },
    {
      "midi": 38,
      "hit": false,
      "t": 289749.9999999999,
      "d": 125,
      "v": 124
    },
    {
      "midi": 67,
      "hit": false,
      "t": 289752.60416666674,
      "d": 250,
      "v": 79
    },
    {
      "midi": 62,
      "hit": false,
      "t": 289874.9999999997,
      "d": 75.52083333331393,
      "v": 91
    },
    {
      "midi": 78,
      "hit": false,
      "t": 289999.9999999997,
      "d": 291.66666666668607,
      "v": 97
    },
    {
      "midi": 38,
      "hit": false,
      "t": 289999.9999999999,
      "d": 315.10416666668607,
      "v": 126
    },
    {
      "midi": 62,
      "hit": false,
      "t": 290000.00000000006,
      "d": 333.33333333331393,
      "v": 79
    },
    {
      "midi": 62,
      "hit": false,
      "t": 290002.6041666664,
      "d": 75.52083333331393,
      "v": 91
    },
    {
      "midi": 57,
      "hit": false,
      "t": 290002.60416666674,
      "d": 333.33333333337214,
      "v": 115
    },
    {
      "midi": 54,
      "hit": false,
      "t": 290005.20833333343,
      "d": 320.3125,
      "v": 109
    },
    {
      "midi": 62,
      "hit": false,
      "t": 290122.395833333,
      "d": 70.3125,
      "v": 91
    },
    {
      "midi": 76,
      "hit": false,
      "t": 290252.6041666664,
      "d": 174.47916666662786,
      "v": 97
    },
    {
      "midi": 62,
      "hit": false,
      "t": 290252.6041666664,
      "d": 39.0625,
      "v": 91
    },
    {
      "midi": 62,
      "hit": false,
      "t": 290372.3958333331,
      "d": 72.91666666668607,
      "v": 91
    },
    {
      "midi": 74,
      "hit": false,
      "t": 290372.3958333334,
      "d": 367.1875,
      "v": 79
    },
    {
      "midi": 38,
      "hit": false,
      "t": 290492.1874999999,
      "d": 247.39583333331393,
      "v": 126
    },
    {
      "midi": 62,
      "hit": false,
      "t": 290497.3958333331,
      "d": 70.3125,
      "v": 91
    },
    {
      "midi": 76,
      "hit": false,
      "t": 290502.6041666664,
      "d": 268.22916666668607,
      "v": 97
    },
    {
      "midi": 62,
      "hit": false,
      "t": 290622.3958333331,
      "d": 65.10416666668607,
      "v": 91
    },
    {
      "midi": 62,
      "hit": false,
      "t": 290747.3958333331,
      "d": 57.29166666668607,
      "v": 91
    },
    {
      "midi": 62,
      "hit": false,
      "t": 290747.3958333334,
      "d": 429.6875000000582,
      "v": 79
    },
    {
      "midi": 74,
      "hit": false,
      "t": 290752.6041666664,
      "d": 265.6250000000582,
      "v": 95
    },
    {
      "midi": 38,
      "hit": false,
      "t": 290867.1874999999,
      "d": 57.29166666668607,
      "v": 126
    },
    {
      "midi": 62,
      "hit": false,
      "t": 290872.3958333331,
      "d": 67.70833333337214,
      "v": 91
    },
    {
      "midi": 38,
      "hit": false,
      "t": 290997.39583333326,
      "d": 138.02083333337214,
      "v": 126
    },
    {
      "midi": 62,
      "hit": false,
      "t": 290999.99999999977,
      "d": 57.29166666668607,
      "v": 91
    },
    {
      "midi": 62,
      "hit": false,
      "t": 291124.99999999977,
      "d": 54.6875,
      "v": 91
    },
    {
      "midi": 74,
      "hit": false,
      "t": 291127.60416666674,
      "d": 437.5000000000582,
      "v": 79
    },
    {
      "midi": 70,
      "hit": false,
      "t": 291247.3958333333,
      "d": 820.3125,
      "v": 86
    },
    {
      "midi": 58,
      "hit": false,
      "t": 291249.99999999977,
      "d": 54.6875,
      "v": 91
    },
    {
      "midi": 34,
      "hit": false,
      "t": 291249.99999999994,
      "d": 127.60416666668607,
      "v": 124
    },
    {
      "midi": 58,
      "hit": false,
      "t": 291250,
      "d": 796.875,
      "v": 86
    },
    {
      "midi": 58,
      "hit": false,
      "t": 291372.3958333331,
      "d": 62.5,
      "v": 91
    },
    {
      "midi": 58,
      "hit": false,
      "t": 291499.99999999977,
      "d": 59.89583333331393,
      "v": 91
    },
    {
      "midi": 34,
      "hit": false,
      "t": 291499.99999999994,
      "d": 148.4375,
      "v": 124
    },
    {
      "midi": 55,
      "hit": false,
      "t": 291502.6041666668,
      "d": 221.35416666662786,
      "v": 79
    },
    {
      "midi": 58,
      "hit": false,
      "t": 291624.99999999977,
      "d": 57.29166666668607,
      "v": 91
    },
    {
      "midi": 58,
      "hit": false,
      "t": 291744.79166666645,
      "d": 59.89583333331393,
      "v": 91
    },
    {
      "midi": 34,
      "hit": false,
      "t": 291747.39583333326,
      "d": 122.39583333337214,
      "v": 122
    },
    {
      "midi": 67,
      "hit": false,
      "t": 291747.39583333343,
      "d": 265.6250000000582,
      "v": 79
    },
    {
      "midi": 58,
      "hit": false,
      "t": 291872.3958333331,
      "d": 54.6875,
      "v": 91
    },
    {
      "midi": 78,
      "hit": false,
      "t": 291997.3958333331,
      "d": 299.47916666668607,
      "v": 93
    },
    {
      "midi": 62,
      "hit": false,
      "t": 291999.99999999977,
      "d": 52.08333333331393,
      "v": 91
    },
    {
      "midi": 38,
      "hit": false,
      "t": 291999.99999999994,
      "d": 330.72916666668607,
      "v": 122
    },
    {
      "midi": 62,
      "hit": false,
      "t": 292002.6041666668,
      "d": 377.6041666667443,
      "v": 79
    },
    {
      "midi": 62,
      "hit": false,
      "t": 292119.7916666664,
      "d": 78.125,
      "v": 91
    },
    {
      "midi": 62,
      "hit": false,
      "t": 292244.7916666664,
      "d": 52.08333333331393,
      "v": 91
    },
    {
      "midi": 76,
      "hit": false,
      "t": 292252.60416666645,
      "d": 166.66666666662786,
      "v": 93
    },
    {
      "midi": 62,
      "hit": false,
      "t": 292369.7916666664,
      "d": 70.3125,
      "v": 91
    },
    {
      "midi": 74,
      "hit": false,
      "t": 292377.60416666686,
      "d": 382.8125000000582,
      "v": 79
    },
    {
      "midi": 62,
      "hit": false,
      "t": 292499.9999999997,
      "d": 57.29166666668607,
      "v": 91
    },
    {
      "midi": 38,
      "hit": false,
      "t": 292499.99999999994,
      "d": 276.04166666668607,
      "v": 122
    },
    {
      "midi": 76,
      "hit": false,
      "t": 292502.60416666645,
      "d": 289.0625,
      "v": 97
    },
    {
      "midi": 62,
      "hit": false,
      "t": 292624.9999999997,
      "d": 62.5,
      "v": 91
    },
    {
      "midi": 62,
      "hit": false,
      "t": 292749.9999999997,
      "d": 52.08333333331393,
      "v": 91
    },
    {
      "midi": 74,
      "hit": false,
      "t": 292752.60416666645,
      "d": 322.91666666662786,
      "v": 99
    },
    {
      "midi": 62,
      "hit": false,
      "t": 292752.6041666669,
      "d": 395.83333333331393,
      "v": 79
    },
    {
      "midi": 62,
      "hit": false,
      "t": 292874.9999999997,
      "d": 62.5,
      "v": 91
    },
    {
      "midi": 38,
      "hit": false,
      "t": 292880.20833333326,
      "d": 78.125,
      "v": 122
    },
    {
      "midi": 62,
      "hit": false,
      "t": 292999.9999999997,
      "d": 59.89583333331393,
      "v": 91
    },
    {
      "midi": 38,
      "hit": false,
      "t": 293007.81249999994,
      "d": 161.45833333331393,
      "v": 122
    },
    {
      "midi": 62,
      "hit": false,
      "t": 293124.9999999997,
      "d": 57.29166666668607,
      "v": 91
    },
    {
      "midi": 74,
      "hit": false,
      "t": 293127.6041666669,
      "d": 546.875,
      "v": 79
    },
    {
      "midi": 62,
      "hit": false,
      "t": 293249.9999999997,
      "d": 54.6875,
      "v": 91
    },
    {
      "midi": 38,
      "hit": false,
      "t": 293257.81249999994,
      "d": 138.02083333331393,
      "v": 122
    },
    {
      "midi": 62,
      "hit": false,
      "t": 293374.9999999997,
      "d": 70.3125,
      "v": 91
    },
    {
      "midi": 62,
      "hit": false,
      "t": 293502.6041666664,
      "d": 52.08333333331393,
      "v": 91
    },
    {
      "midi": 55,
      "hit": false,
      "t": 293502.6041666668,
      "d": 473.95833333331393,
      "v": 121
    },
    {
      "midi": 51,
      "hit": false,
      "t": 293502.6041666668,
      "d": 518.2291666666861,
      "v": 121
    },
    {
      "midi": 38,
      "hit": false,
      "t": 293505.20833333326,
      "d": 145.83333333337214,
      "v": 122
    },
    {
      "midi": 55,
      "hit": false,
      "t": 293505.20833333355,
      "d": 200.52083333337214,
      "v": 79
    },
    {
      "midi": 62,
      "hit": false,
      "t": 293624.9999999997,
      "d": 39.0625,
      "v": 91
    },
    {
      "midi": 62,
      "hit": false,
      "t": 293749.9999999997,
      "d": 49.47916666668607,
      "v": 91
    },
    {
      "midi": 67,
      "hit": false,
      "t": 293752.6041666669,
      "d": 257.8124999999418,
      "v": 80
    },
    {
      "midi": 38,
      "hit": false,
      "t": 293755.20833333326,
      "d": 111.97916666668607,
      "v": 122
    },
    {
      "midi": 62,
      "hit": false,
      "t": 293874.9999999997,
      "d": 75.52083333331393,
      "v": 91
    },
    {
      "midi": 78,
      "hit": false,
      "t": 293997.3958333331,
      "d": 296.8750000000582,
      "v": 99
    },
    {
      "midi": 54,
      "hit": false,
      "t": 293997.39583333343,
      "d": 466.14583333343035,
      "v": 119
    },
    {
      "midi": 38,
      "hit": false,
      "t": 293999.99999999994,
      "d": 328.125,
      "v": 122
    },
    {
      "midi": 62,
      "hit": false,
      "t": 294002.6041666664,
      "d": 75.52083333331393,
      "v": 91
    },
    {
      "midi": 50,
      "hit": false,
      "t": 294002.6041666668,
      "d": 453.1250000000582,
      "v": 121
    },
    {
      "midi": 62,
      "hit": false,
      "t": 294005.20833333355,
      "d": 333.33333333331393,
      "v": 80
    },
    {
      "midi": 62,
      "hit": false,
      "t": 294122.395833333,
      "d": 70.3125,
      "v": 91
    },
    {
      "midi": 62,
      "hit": false,
      "t": 294252.6041666664,
      "d": 39.0625,
      "v": 91
    },
    {
      "midi": 76,
      "hit": false,
      "t": 294252.60416666645,
      "d": 164.0625000000582,
      "v": 99
    },
    {
      "midi": 62,
      "hit": false,
      "t": 294372.3958333331,
      "d": 72.91666666668607,
      "v": 91
    },
    {
      "midi": 74,
      "hit": false,
      "t": 294377.60416666686,
      "d": 369.79166666662786,
      "v": 80
    },
    {
      "midi": 62,
      "hit": false,
      "t": 294497.3958333331,
      "d": 70.3125,
      "v": 91
    },
    {
      "midi": 76,
      "hit": false,
      "t": 294499.9999999998,
      "d": 273.4375,
      "v": 99
    },
    {
      "midi": 38,
      "hit": false,
      "t": 294499.99999999994,
      "d": 260.41666666668607,
      "v": 124
    },
    {
      "midi": 62,
      "hit": false,
      "t": 294622.3958333331,
      "d": 65.10416666668607,
      "v": 91
    },
    {
      "midi": 62,
      "hit": false,
      "t": 294747.3958333331,
      "d": 57.29166666668607,
      "v": 91
    },
    {
      "midi": 74,
      "hit": false,
      "t": 294752.6041666665,
      "d": 302.08333333331393,
      "v": 99
    },
    {
      "midi": 62,
      "hit": false,
      "t": 294752.60416666686,
      "d": 385.41666666668607,
      "v": 80
    },
    {
      "midi": 62,
      "hit": false,
      "t": 294872.3958333331,
      "d": 67.70833333337214,
      "v": 91
    },
    {
      "midi": 38,
      "hit": false,
      "t": 294874.99999999994,
      "d": 65.10416666668607,
      "v": 124
    },
    {
      "midi": 62,
      "hit": false,
      "t": 294999.99999999977,
      "d": 57.29166666668607,
      "v": 91
    },
    {
      "midi": 38,
      "hit": false,
      "t": 295002.6041666666,
      "d": 145.83333333331393,
      "v": 124
    },
    {
      "midi": 62,
      "hit": false,
      "t": 295124.99999999977,
      "d": 54.6875,
      "v": 91
    },
    {
      "midi": 74,
      "hit": false,
      "t": 295127.60416666686,
      "d": 445.3125,
      "v": 80
    },
    {
      "midi": 58,
      "hit": false,
      "t": 295249.99999999977,
      "d": 54.6875,
      "v": 91
    },
    {
      "midi": 34,
      "hit": false,
      "t": 295249.99999999994,
      "d": 132.8125,
      "v": 124
    },
    {
      "midi": 58,
      "hit": false,
      "t": 295250,
      "d": 697.9166666666861,
      "v": 76
    },
    {
      "midi": 70,
      "hit": false,
      "t": 295252.6041666667,
      "d": 700.5208333333139,
      "v": 85
    },
    {
      "midi": 58,
      "hit": false,
      "t": 295372.3958333331,
      "d": 62.5,
      "v": 91
    },
    {
      "midi": 34,
      "hit": false,
      "t": 295497.39583333326,
      "d": 122.39583333337214,
      "v": 124
    },
    {
      "midi": 58,
      "hit": false,
      "t": 295499.99999999977,
      "d": 59.89583333331393,
      "v": 91
    },
    {
      "midi": 55,
      "hit": false,
      "t": 295505.20833333355,
      "d": 210.9374999999418,
      "v": 80
    },
    {
      "midi": 58,
      "hit": false,
      "t": 295624.99999999977,
      "d": 57.29166666668607,
      "v": 91
    },
    {
      "midi": 34,
      "hit": false,
      "t": 295742.18749999994,
      "d": 114.58333333331393,
      "v": 124
    },
    {
      "midi": 58,
      "hit": false,
      "t": 295744.79166666645,
      "d": 59.89583333331393,
      "v": 91
    },
    {
      "midi": 67,
      "hit": false,
      "t": 295755.2083333335,
      "d": 250,
      "v": 80
    },
    {
      "midi": 58,
      "hit": false,
      "t": 295872.3958333331,
      "d": 54.6875,
      "v": 91
    },
    {
      "midi": 62,
      "hit": false,
      "t": 295999.99999999977,
      "d": 52.08333333331393,
      "v": 91
    },
    {
      "midi": 78,
      "hit": false,
      "t": 295999.9999999998,
      "d": 263.02083333331393,
      "v": 99
    },
    {
      "midi": 38,
      "hit": false,
      "t": 295999.99999999994,
      "d": 276.04166666668607,
      "v": 124
    },
    {
      "midi": 62,
      "hit": false,
      "t": 296005.2083333335,
      "d": 333.33333333337214,
      "v": 80
    },
    {
      "midi": 62,
      "hit": false,
      "t": 296119.7916666664,
      "d": 78.125,
      "v": 91
    },
    {
      "midi": 62,
      "hit": false,
      "t": 296244.7916666664,
      "d": 52.08333333331393,
      "v": 91
    },
    {
      "midi": 76,
      "hit": false,
      "t": 296247.39583333314,
      "d": 169.27083333337214,
      "v": 99
    },
    {
      "midi": 62,
      "hit": false,
      "t": 296369.7916666664,
      "d": 70.3125,
      "v": 91
    },
    {
      "midi": 74,
      "hit": false,
      "t": 296372.39583333355,
      "d": 382.8125000000582,
      "v": 80
    },
    {
      "midi": 76,
      "hit": false,
      "t": 296497.3958333332,
      "d": 281.2500000000582,
      "v": 99
    },
    {
      "midi": 62,
      "hit": false,
      "t": 296499.9999999997,
      "d": 57.29166666668607,
      "v": 91
    },
    {
      "midi": 38,
      "hit": false,
      "t": 296499.99999999994,
      "d": 247.39583333331393,
      "v": 124
    },
    {
      "midi": 62,
      "hit": false,
      "t": 296624.9999999997,
      "d": 62.5,
      "v": 91
    },
    {
      "midi": 62,
      "hit": false,
      "t": 296749.9999999997,
      "d": 52.08333333331393,
      "v": 91
    },
    {
      "midi": 74,
      "hit": false,
      "t": 296752.60416666657,
      "d": 283.85416666668607,
      "v": 99
    },
    {
      "midi": 62,
      "hit": false,
      "t": 296752.6041666669,
      "d": 455.72916666668607,
      "v": 80
    },
    {
      "midi": 62,
      "hit": false,
      "t": 296874.9999999997,
      "d": 62.5,
      "v": 91
    },
    {
      "midi": 38,
      "hit": false,
      "t": 296874.99999999994,
      "d": 59.89583333331393,
      "v": 124
    },
    {
      "midi": 62,
      "hit": false,
      "t": 296999.9999999997,
      "d": 59.89583333331393,
      "v": 91
    },
    {
      "midi": 38,
      "hit": false,
      "t": 296999.99999999994,
      "d": 130.20833333331393,
      "v": 124
    },
    {
      "midi": 62,
      "hit": false,
      "t": 297124.9999999997,
      "d": 57.29166666668607,
      "v": 91
    },
    {
      "midi": 74,
      "hit": false,
      "t": 297130.2083333336,
      "d": 367.1875,
      "v": 80
    },
    {
      "midi": 62,
      "hit": false,
      "t": 297249.9999999997,
      "d": 54.6875,
      "v": 91
    },
    {
      "midi": 38,
      "hit": false,
      "t": 297249.99999999994,
      "d": 122.39583333331393,
      "v": 124
    },
    {
      "midi": 62,
      "hit": false,
      "t": 297374.9999999997,
      "d": 70.3125,
      "v": 91
    },
    {
      "midi": 38,
      "hit": false,
      "t": 297499.99999999994,
      "d": 130.20833333331393,
      "v": 124
    },
    {
      "midi": 62,
      "hit": false,
      "t": 297502.6041666664,
      "d": 52.08333333331393,
      "v": 91
    },
    {
      "midi": 55,
      "hit": false,
      "t": 297502.60416666686,
      "d": 526.0416666666279,
      "v": 109
    },
    {
      "midi": 58,
      "hit": false,
      "t": 297502.60416666686,
      "d": 526.0416666666279,
      "v": 109
    },
    {
      "midi": 55,
      "hit": false,
      "t": 297502.604166667,
      "d": 265.625,
      "v": 80
    },
    {
      "midi": 62,
      "hit": false,
      "t": 297624.9999999997,
      "d": 39.0625,
      "v": 91
    },
    {
      "midi": 62,
      "hit": false,
      "t": 297749.9999999997,
      "d": 49.47916666668607,
      "v": 91
    },
    {
      "midi": 38,
      "hit": false,
      "t": 297749.99999999994,
      "d": 125,
      "v": 124
    },
    {
      "midi": 67,
      "hit": false,
      "t": 297752.604166667,
      "d": 250,
      "v": 80
    },
    {
      "midi": 62,
      "hit": false,
      "t": 297874.9999999997,
      "d": 75.52083333331393,
      "v": 91
    }
  ]
}