{
  "jsonPath": "Unknown/Unknown/Chip Taylor_ Carrie Rodriguez/fall.json",
  "path": "Unknown\\Unknown\\Chip Taylor_ Carrie Rodriguez\\Fall.mid",
  "name": "Fall",
  "difficulty": "Advanced",
  "bpm": 136.9997511171188,
  "notes": [
    {
      "midi": 67,
      "hit": false,
      "t": 1733.8890000000001,
      "d": 915.1080833333335,
      "v": 105
    },
    {
      "midi": 55,
      "hit": false,
      "t": 1733.8890000000001,
      "d": 2203.4839374999997,
      "v": 105
    },
    {
      "midi": 48,
      "hit": false,
      "t": 1733.8890000000001,
      "d": 4099.92503125,
      "v": 90
    },
    {
      "midi": 60,
      "hit": false,
      "t": 2311.8520000000003,
      "d": 325.1041875000001,
      "v": 77
    },
    {
      "midi": 62,
      "hit": false,
      "t": 2600.8335,
      "d": 174.5929895833333,
      "v": 74
    },
    {
      "midi": 64,
      "hit": false,
      "t": 2889.815,
      "d": 535.8198645833331,
      "v": 109
    },
    {
      "midi": 60,
      "hit": false,
      "t": 3467.778,
      "d": 427.4518020833334,
      "v": 95
    },
    {
      "midi": 60,
      "hit": false,
      "t": 4045.741,
      "d": 746.5355416666662,
      "v": 90
    },
    {
      "midi": 65,
      "hit": false,
      "t": 4045.741,
      "d": 752.555989583333,
      "v": 100
    },
    {
      "midi": 53,
      "hit": false,
      "t": 4045.741,
      "d": 1842.2570624999998,
      "v": 81
    },
    {
      "midi": 57,
      "hit": false,
      "t": 4623.704,
      "d": 264.89970833333336,
      "v": 39
    },
    {
      "midi": 67,
      "hit": false,
      "t": 4912.6855,
      "d": 590.0038958333334,
      "v": 109
    },
    {
      "midi": 60,
      "hit": false,
      "t": 4912.6855,
      "d": 740.5150937500002,
      "v": 100
    },
    {
      "midi": 57,
      "hit": false,
      "t": 5201.6669999999995,
      "d": 547.8607604166673,
      "v": 81
    },
    {
      "midi": 60,
      "hit": false,
      "t": 5779.63,
      "d": 433.4722499999998,
      "v": 90
    },
    {
      "midi": 65,
      "hit": false,
      "t": 5779.63,
      "d": 445.5131458333335,
      "v": 100
    },
    {
      "midi": 60,
      "hit": false,
      "t": 6357.593000000001,
      "d": 686.3310624999995,
      "v": 85
    },
    {
      "midi": 55,
      "hit": false,
      "t": 6357.593000000001,
      "d": 698.3719583333332,
      "v": 100
    },
    {
      "midi": 48,
      "hit": false,
      "t": 6357.593000000001,
      "d": 4455.1314583333315,
      "v": 85
    },
    {
      "midi": 52,
      "hit": false,
      "t": 6935.5560000000005,
      "d": 1324.498541666666,
      "v": 65
    },
    {
      "midi": 60,
      "hit": false,
      "t": 7224.5375,
      "d": 114.38851041666658,
      "v": 50
    },
    {
      "midi": 62,
      "hit": false,
      "t": 7224.5375,
      "d": 120.40895833333343,
      "v": 53
    },
    {
      "midi": 55,
      "hit": false,
      "t": 7224.5375,
      "d": 1222.1509270833321,
      "v": 81
    },
    {
      "midi": 60,
      "hit": false,
      "t": 7513.519,
      "d": 252.85881249999966,
      "v": 105
    },
    {
      "midi": 64,
      "hit": false,
      "t": 7513.519,
      "d": 258.8792604166665,
      "v": 109
    },
    {
      "midi": 60,
      "hit": false,
      "t": 7802.5005,
      "d": 60.204479166666715,
      "v": 43
    },
    {
      "midi": 62,
      "hit": false,
      "t": 7802.5005,
      "d": 270.9201562500002,
      "v": 105
    },
    {
      "midi": 60,
      "hit": false,
      "t": 8091.482,
      "d": 451.53359374999854,
      "v": 95
    },
    {
      "midi": 65,
      "hit": false,
      "t": 8669.444999999998,
      "d": 692.3515104166672,
      "v": 100
    },
    {
      "midi": 60,
      "hit": false,
      "t": 8669.444999999998,
      "d": 722.4537500000006,
      "v": 95
    },
    {
      "midi": 53,
      "hit": false,
      "t": 8669.444999999998,
      "d": 1884.4001979166678,
      "v": 90
    },
    {
      "midi": 57,
      "hit": false,
      "t": 9247.407999999998,
      "d": 391.32911458333547,
      "v": 81
    },
    {
      "midi": 60,
      "hit": false,
      "t": 9536.3895,
      "d": 511.7380729166671,
      "v": 90
    },
    {
      "midi": 67,
      "hit": false,
      "t": 9536.3895,
      "d": 577.9629999999997,
      "v": 109
    },
    {
      "midi": 57,
      "hit": false,
      "t": 9825.371,
      "d": 734.4946458333325,
      "v": 85
    },
    {
      "midi": 65,
      "hit": false,
      "t": 10403.333999999999,
      "d": 349.1859791666666,
      "v": 95
    },
    {
      "midi": 60,
      "hit": false,
      "t": 10403.333999999999,
      "d": 385.3086666666659,
      "v": 95
    },
    {
      "midi": 55,
      "hit": false,
      "t": 10981.296999999999,
      "d": 716.4333020833328,
      "v": 85
    },
    {
      "midi": 60,
      "hit": false,
      "t": 10981.296999999999,
      "d": 975.3125624999993,
      "v": 100
    },
    {
      "midi": 64,
      "hit": false,
      "t": 10981.296999999999,
      "d": 1282.3554062499989,
      "v": 95
    },
    {
      "midi": 48,
      "hit": false,
      "t": 10981.296999999999,
      "d": 4358.804291666667,
      "v": 90
    },
    {
      "midi": 52,
      "hit": false,
      "t": 11559.259999999998,
      "d": 1414.805260416666,
      "v": 68
    },
    {
      "midi": 55,
      "hit": false,
      "t": 12137.222999999998,
      "d": 1011.4352500000005,
      "v": 100
    },
    {
      "midi": 60,
      "hit": false,
      "t": 12426.204499999998,
      "d": 746.535541666668,
      "v": 85
    },
    {
      "midi": 64,
      "hit": false,
      "t": 12715.185999999998,
      "d": 252.85881250000057,
      "v": 81
    },
    {
      "midi": 67,
      "hit": false,
      "t": 13004.167499999998,
      "d": 210.71567708333532,
      "v": 90
    },
    {
      "midi": 60,
      "hit": false,
      "t": 13293.149,
      "d": 517.758520833333,
      "v": 95
    },
    {
      "midi": 65,
      "hit": false,
      "t": 13293.149,
      "d": 1065.6192812499994,
      "v": 95
    },
    {
      "midi": 53,
      "hit": false,
      "t": 13293.149,
      "d": 1818.1752708333333,
      "v": 85
    },
    {
      "midi": 57,
      "hit": false,
      "t": 13871.112,
      "d": 397.3495624999996,
      "v": 81
    },
    {
      "midi": 60,
      "hit": false,
      "t": 13871.112,
      "d": 427.45180208333295,
      "v": 29
    },
    {
      "midi": 60,
      "hit": false,
      "t": 14449.074999999999,
      "d": 433.4722500000007,
      "v": 90
    },
    {
      "midi": 57,
      "hit": false,
      "t": 14449.074999999999,
      "d": 626.1265833333346,
      "v": 100
    },
    {
      "midi": 67,
      "hit": false,
      "t": 14449.074999999999,
      "d": 1017.4556979166664,
      "v": 105
    },
    {
      "midi": 65,
      "hit": false,
      "t": 15027.038,
      "d": 373.2677708333322,
      "v": 55
    },
    {
      "midi": 60,
      "hit": false,
      "t": 15027.038,
      "d": 421.4313541666652,
      "v": 55
    },
    {
      "midi": 60,
      "hit": false,
      "t": 15605.000999999998,
      "d": 915.1080833333344,
      "v": 100
    },
    {
      "midi": 64,
      "hit": false,
      "t": 15605.000999999998,
      "d": 933.1694270833341,
      "v": 100
    },
    {
      "midi": 59,
      "hit": false,
      "t": 15605.000999999998,
      "d": 939.1898750000018,
      "v": 100
    },
    {
      "midi": 55,
      "hit": false,
      "t": 15605.000999999998,
      "d": 1035.5170416666679,
      "v": 90
    },
    {
      "midi": 48,
      "hit": false,
      "t": 15605.000999999998,
      "d": 1270.314510416667,
      "v": 100
    },
    {
      "midi": 59,
      "hit": false,
      "t": 16760.927,
      "d": 939.189875,
      "v": 105
    },
    {
      "midi": 60,
      "hit": false,
      "t": 16760.927,
      "d": 939.189875,
      "v": 105
    },
    {
      "midi": 64,
      "hit": false,
      "t": 16760.927,
      "d": 975.3125624999993,
      "v": 105
    },
    {
      "midi": 55,
      "hit": false,
      "t": 17338.89,
      "d": 373.2677708333322,
      "v": 100
    },
    {
      "midi": 48,
      "hit": false,
      "t": 17916.853,
      "d": 1475.0097395833327,
      "v": 105
    },
    {
      "midi": 57,
      "hit": false,
      "t": 17916.853,
      "d": 1631.5413854166654,
      "v": 100
    },
    {
      "midi": 65,
      "hit": false,
      "t": 17916.853,
      "d": 1944.604677083331,
      "v": 105
    },
    {
      "midi": 60,
      "hit": false,
      "t": 20228.704999999998,
      "d": 975.3125624999993,
      "v": 100
    },
    {
      "midi": 55,
      "hit": false,
      "t": 20228.704999999998,
      "d": 2143.2794583333343,
      "v": 95
    },
    {
      "midi": 48,
      "hit": false,
      "t": 20228.704999999998,
      "d": 3961.454729166675,
      "v": 77
    },
    {
      "midi": 52,
      "hit": false,
      "t": 20806.667999999998,
      "d": 3275.1236666666737,
      "v": 33
    },
    {
      "midi": 60,
      "hit": false,
      "t": 21384.630999999998,
      "d": 361.2268750000003,
      "v": 90
    },
    {
      "midi": 67,
      "hit": false,
      "t": 21384.630999999998,
      "d": 1107.7624166666683,
      "v": 105
    },
    {
      "midi": 64,
      "hit": false,
      "t": 21673.6125,
      "d": 264.89970833333064,
      "v": 71
    },
    {
      "midi": 64,
      "hit": false,
      "t": 21962.593999999997,
      "d": 48.16358333333483,
      "v": 36
    },
    {
      "midi": 60,
      "hit": false,
      "t": 21962.593999999997,
      "d": 475.6153854166696,
      "v": 85
    },
    {
      "midi": 53,
      "hit": false,
      "t": 22540.557,
      "d": 529.7994166666685,
      "v": 81
    },
    {
      "midi": 60,
      "hit": false,
      "t": 22540.557,
      "d": 951.2307708333356,
      "v": 95
    },
    {
      "midi": 65,
      "hit": false,
      "t": 22540.557,
      "d": 969.2921145833352,
      "v": 90
    },
    {
      "midi": 55,
      "hit": false,
      "t": 23118.520000000004,
      "d": 933.1694270833359,
      "v": 18
    },
    {
      "midi": 60,
      "hit": false,
      "t": 23696.483000000004,
      "d": 331.12463541666875,
      "v": 90
    },
    {
      "midi": 67,
      "hit": false,
      "t": 23696.483000000004,
      "d": 1125.823760416668,
      "v": 109
    },
    {
      "midi": 65,
      "hit": false,
      "t": 23985.464500000006,
      "d": 559.9016562500001,
      "v": 71
    },
    {
      "midi": 60,
      "hit": false,
      "t": 24274.446000000007,
      "d": 355.2064270833325,
      "v": 50
    },
    {
      "midi": 55,
      "hit": false,
      "t": 24852.409000000003,
      "d": 776.6377812499995,
      "v": 100
    },
    {
      "midi": 60,
      "hit": false,
      "t": 24852.409000000003,
      "d": 1216.1304791666662,
      "v": 74
    },
    {
      "midi": 64,
      "hit": false,
      "t": 24852.409000000003,
      "d": 1288.3758541666648,
      "v": 74
    },
    {
      "midi": 48,
      "hit": false,
      "t": 24852.409000000003,
      "d": 4142.068166666657,
      "v": 90
    },
    {
      "midi": 52,
      "hit": false,
      "t": 25430.372000000003,
      "d": 1763.9912395833271,
      "v": 63
    },
    {
      "midi": 55,
      "hit": false,
      "t": 26008.335000000003,
      "d": 1155.9259999999958,
      "v": 100
    },
    {
      "midi": 60,
      "hit": false,
      "t": 26297.3165,
      "d": 692.3515104166654,
      "v": 90
    },
    {
      "midi": 64,
      "hit": false,
      "t": 26586.298000000003,
      "d": 276.94060416666616,
      "v": 90
    },
    {
      "midi": 67,
      "hit": false,
      "t": 26875.2795,
      "d": 252.85881249999875,
      "v": 85
    },
    {
      "midi": 67,
      "hit": false,
      "t": 27164.261,
      "d": 12.040895833331888,
      "v": 40
    },
    {
      "midi": 60,
      "hit": false,
      "t": 27164.261,
      "d": 939.1898749999964,
      "v": 90
    },
    {
      "midi": 65,
      "hit": false,
      "t": 27164.261,
      "d": 1011.435249999995,
      "v": 90
    },
    {
      "midi": 53,
      "hit": false,
      "t": 27164.261,
      "d": 1806.1343749999942,
      "v": 90
    },
    {
      "midi": 60,
      "hit": false,
      "t": 28320.186999999994,
      "d": 969.2921145833316,
      "v": 95
    },
    {
      "midi": 67,
      "hit": false,
      "t": 28320.186999999994,
      "d": 1089.701072916665,
      "v": 109
    },
    {
      "midi": 65,
      "hit": false,
      "t": 28898.149999999994,
      "d": 367.2473229166644,
      "v": 63
    },
    {
      "midi": 55,
      "hit": false,
      "t": 29476.112999999994,
      "d": 818.7809166666666,
      "v": 90
    },
    {
      "midi": 60,
      "hit": false,
      "t": 29476.112999999994,
      "d": 999.3943541666667,
      "v": 85
    },
    {
      "midi": 64,
      "hit": false,
      "t": 29476.112999999994,
      "d": 1210.1100312499984,
      "v": 90
    },
    {
      "midi": 48,
      "hit": false,
      "t": 29476.112999999994,
      "d": 3973.495625000007,
      "v": 77
    },
    {
      "midi": 52,
      "hit": false,
      "t": 30054.075999999994,
      "d": 1782.052583333334,
      "v": 63
    },
    {
      "midi": 55,
      "hit": false,
      "t": 30632.038999999993,
      "d": 2859.712760416671,
      "v": 95
    },
    {
      "midi": 60,
      "hit": false,
      "t": 30921.02049999999,
      "d": 734.4946458333325,
      "v": 95
    },
    {
      "midi": 64,
      "hit": false,
      "t": 31210.001999999993,
      "d": 270.9201562499984,
      "v": 100
    },
    {
      "midi": 67,
      "hit": false,
      "t": 31498.98349999999,
      "d": 240.81791666666686,
      "v": 85
    },
    {
      "midi": 60,
      "hit": false,
      "t": 31787.964999999993,
      "d": 897.0467395833366,
      "v": 85
    },
    {
      "midi": 65,
      "hit": false,
      "t": 31787.964999999993,
      "d": 975.312562500003,
      "v": 90
    },
    {
      "midi": 53,
      "hit": false,
      "t": 31787.964999999993,
      "d": 1547.2551145833386,
      "v": 77
    },
    {
      "midi": 60,
      "hit": false,
      "t": 32943.890999999996,
      "d": 921.128531250004,
      "v": 100
    },
    {
      "midi": 67,
      "hit": false,
      "t": 32943.890999999996,
      "d": 1047.5579375000016,
      "v": 105
    },
    {
      "midi": 55,
      "hit": false,
      "t": 34099.816999999995,
      "d": 662.2492708333302,
      "v": 71
    },
    {
      "midi": 59,
      "hit": false,
      "t": 34099.816999999995,
      "d": 903.0671874999971,
      "v": 90
    },
    {
      "midi": 62,
      "hit": false,
      "t": 34099.816999999995,
      "d": 999.3943541666667,
      "v": 85
    },
    {
      "midi": 43,
      "hit": false,
      "t": 34099.816999999995,
      "d": 2143.279458333338,
      "v": 65
    },
    {
      "midi": 50,
      "hit": false,
      "t": 34099.816999999995,
      "d": 2185.4225937500014,
      "v": 77
    },
    {
      "midi": 59,
      "hit": false,
      "t": 35255.742999999995,
      "d": 523.7789687500044,
      "v": 90
    },
    {
      "midi": 55,
      "hit": false,
      "t": 35255.742999999995,
      "d": 830.8218125000058,
      "v": 74
    },
    {
      "midi": 62,
      "hit": false,
      "t": 35544.7245,
      "d": 240.81791666666686,
      "v": 77
    },
    {
      "midi": 59,
      "hit": false,
      "t": 35833.706,
      "d": 367.2473229166717,
      "v": 74
    },
    {
      "midi": 67,
      "hit": false,
      "t": 35833.706,
      "d": 475.6153854166623,
      "v": 95
    },
    {
      "midi": 60,
      "hit": false,
      "t": 36411.668999999994,
      "d": 854.9036041666695,
      "v": 100
    },
    {
      "midi": 57,
      "hit": false,
      "t": 36411.668999999994,
      "d": 1053.578385416673,
      "v": 105
    },
    {
      "midi": 45,
      "hit": false,
      "t": 36411.668999999994,
      "d": 1198.0691354166702,
      "v": 90
    },
    {
      "midi": 47,
      "hit": false,
      "t": 37567.595,
      "d": 475.6153854166623,
      "v": 90
    },
    {
      "midi": 59,
      "hit": false,
      "t": 37567.595,
      "d": 981.3330104166598,
      "v": 105
    },
    {
      "midi": 62,
      "hit": false,
      "t": 37567.595,
      "d": 1011.435249999995,
      "v": 109
    },
    {
      "midi": 55,
      "hit": false,
      "t": 38723.52099999999,
      "d": 866.9445000000051,
      "v": 85
    },
    {
      "midi": 60,
      "hit": false,
      "t": 38723.52099999999,
      "d": 1288.3758541666757,
      "v": 90
    },
    {
      "midi": 64,
      "hit": false,
      "t": 38723.52099999999,
      "d": 1318.4780937500109,
      "v": 95
    },
    {
      "midi": 48,
      "hit": false,
      "t": 38723.52099999999,
      "d": 4190.231749999992,
      "v": 77
    },
    {
      "midi": 52,
      "hit": false,
      "t": 39301.484,
      "d": 1643.5822812499973,
      "v": 41
    },
    {
      "midi": 55,
      "hit": false,
      "t": 39879.447,
      "d": 1089.7010729166577,
      "v": 95
    },
    {
      "midi": 60,
      "hit": false,
      "t": 40168.4285,
      "d": 204.69522916666756,
      "v": 57
    },
    {
      "midi": 60,
      "hit": false,
      "t": 40457.41,
      "d": 60.20447916666308,
      "v": 71
    },
    {
      "midi": 64,
      "hit": false,
      "t": 40457.41,
      "d": 307.04284374999406,
      "v": 105
    },
    {
      "midi": 67,
      "hit": false,
      "t": 40457.41,
      "d": 331.12463541665784,
      "v": 105
    },
    {
      "midi": 60,
      "hit": false,
      "t": 40746.3915,
      "d": 198.67478124999616,
      "v": 85
    },
    {
      "midi": 65,
      "hit": false,
      "t": 41035.37299999999,
      "d": 993.3739062500026,
      "v": 85
    },
    {
      "midi": 60,
      "hit": false,
      "t": 41035.37299999999,
      "d": 1035.517041666666,
      "v": 74
    },
    {
      "midi": 53,
      "hit": false,
      "t": 41035.37299999999,
      "d": 1962.666020833327,
      "v": 90
    },
    {
      "midi": 57,
      "hit": false,
      "t": 41613.335999999996,
      "d": 674.2901666666585,
      "v": 44
    },
    {
      "midi": 60,
      "hit": false,
      "t": 42191.29899999999,
      "d": 72.2453749999986,
      "v": 63
    },
    {
      "midi": 65,
      "hit": false,
      "t": 42191.29899999999,
      "d": 638.1674791666592,
      "v": 90
    },
    {
      "midi": 67,
      "hit": false,
      "t": 42191.29899999999,
      "d": 1137.8646562499925,
      "v": 109
    },
    {
      "midi": 60,
      "hit": false,
      "t": 42769.26199999999,
      "d": 433.4722499999989,
      "v": 65
    },
    {
      "midi": 55,
      "hit": false,
      "t": 43347.224999999984,
      "d": 740.5150937500002,
      "v": 95
    },
    {
      "midi": 60,
      "hit": false,
      "t": 43347.224999999984,
      "d": 1119.8033125000002,
      "v": 81
    },
    {
      "midi": 64,
      "hit": false,
      "t": 43347.224999999984,
      "d": 1336.539437499996,
      "v": 81
    },
    {
      "midi": 67,
      "hit": false,
      "t": 43347.224999999984,
      "d": 1444.907499999994,
      "v": 46
    },
    {
      "midi": 48,
      "hit": false,
      "t": 43347.224999999984,
      "d": 4322.681604166668,
      "v": 74
    },
    {
      "midi": 52,
      "hit": false,
      "t": 43925.18799999999,
      "d": 1739.9094479166597,
      "v": 71
    },
    {
      "midi": 55,
      "hit": false,
      "t": 44503.15099999998,
      "d": 1667.6640729166684,
      "v": 100
    },
    {
      "midi": 60,
      "hit": false,
      "t": 44792.13249999998,
      "d": 656.2288229166661,
      "v": 90
    },
    {
      "midi": 64,
      "hit": false,
      "t": 45081.11399999998,
      "d": 331.1246354166651,
      "v": 77
    },
    {
      "midi": 67,
      "hit": false,
      "t": 45370.09549999998,
      "d": 276.94060416666616,
      "v": 74
    },
    {
      "midi": 67,
      "hit": false,
      "t": 45659.07699999998,
      "d": 54.18403124999895,
      "v": 77
    },
    {
      "midi": 60,
      "hit": false,
      "t": 45659.07699999998,
      "d": 529.7994166666685,
      "v": 95
    },
    {
      "midi": 65,
      "hit": false,
      "t": 45659.07699999998,
      "d": 963.2716666666674,
      "v": 85
    },
    {
      "midi": 53,
      "hit": false,
      "t": 45659.07699999998,
      "d": 1836.2366145833366,
      "v": 85
    },
    {
      "midi": 60,
      "hit": false,
      "t": 46237.039999999986,
      "d": 957.251218749996,
      "v": 39
    },
    {
      "midi": 55,
      "hit": false,
      "t": 46237.039999999986,
      "d": 1306.437197916668,
      "v": 81
    },
    {
      "midi": 65,
      "hit": false,
      "t": 46815.00299999998,
      "d": 728.474197916672,
      "v": 90
    },
    {
      "midi": 67,
      "hit": false,
      "t": 46815.00299999998,
      "d": 1107.762416666672,
      "v": 109
    },
    {
      "midi": 60,
      "hit": false,
      "t": 47392.965999999986,
      "d": 409.3904583333351,
      "v": 71
    },
    {
      "midi": 64,
      "hit": false,
      "t": 47970.92899999999,
      "d": 927.1489791666681,
      "v": 81
    },
    {
      "midi": 60,
      "hit": false,
      "t": 47970.92899999999,
      "d": 981.3330104166671,
      "v": 90
    },
    {
      "midi": 55,
      "hit": false,
      "t": 47970.92899999999,
      "d": 2083.0749791666676,
      "v": 100
    },
    {
      "midi": 48,
      "hit": false,
      "t": 47970.92899999999,
      "d": 3666.4527812499946,
      "v": 74
    },
    {
      "midi": 60,
      "hit": false,
      "t": 49126.85499999999,
      "d": 373.2677708333358,
      "v": 68
    },
    {
      "midi": 67,
      "hit": false,
      "t": 49126.85499999999,
      "d": 1095.7215208333364,
      "v": 109
    },
    {
      "midi": 64,
      "hit": false,
      "t": 49415.83649999999,
      "d": 397.3495624999996,
      "v": 68
    },
    {
      "midi": 60,
      "hit": false,
      "t": 49704.81799999999,
      "d": 397.3495624999996,
      "v": 85
    },
    {
      "midi": 57,
      "hit": false,
      "t": 50282.78099999999,
      "d": 421.43135416666337,
      "v": 95
    },
    {
      "midi": 65,
      "hit": false,
      "t": 50282.78099999999,
      "d": 921.1285312499967,
      "v": 95
    },
    {
      "midi": 60,
      "hit": false,
      "t": 50282.78099999999,
      "d": 939.1898749999964,
      "v": 95
    },
    {
      "midi": 53,
      "hit": false,
      "t": 50282.78099999999,
      "d": 1306.4371979166608,
      "v": 85
    },
    {
      "midi": 57,
      "hit": false,
      "t": 50860.743999999984,
      "d": 668.2697187500016,
      "v": 90
    },
    {
      "midi": 60,
      "hit": false,
      "t": 51438.70699999999,
      "d": 427.4518020833275,
      "v": 95
    },
    {
      "midi": 65,
      "hit": false,
      "t": 51438.70699999999,
      "d": 620.1061354166595,
      "v": 100
    },
    {
      "midi": 69,
      "hit": false,
      "t": 51438.70699999999,
      "d": 728.4741979166574,
      "v": 112
    },
    {
      "midi": 60,
      "hit": false,
      "t": 52016.669999999984,
      "d": 367.2473229166644,
      "v": 46
    },
    {
      "midi": 62,
      "hit": false,
      "t": 52594.63299999998,
      "d": 806.7400208333347,
      "v": 90
    },
    {
      "midi": 60,
      "hit": false,
      "t": 52594.63299999998,
      "d": 909.0876354166685,
      "v": 95
    },
    {
      "midi": 50,
      "hit": false,
      "t": 52594.63299999998,
      "d": 1035.517041666666,
      "v": 85
    },
    {
      "midi": 43,
      "hit": false,
      "t": 52594.63299999998,
      "d": 1071.6397291666653,
      "v": 77
    },
    {
      "midi": 55,
      "hit": false,
      "t": 52594.63299999998,
      "d": 1420.82570833333,
      "v": 100
    },
    {
      "midi": 62,
      "hit": false,
      "t": 53750.55899999998,
      "d": 1071.639729166658,
      "v": 105
    },
    {
      "midi": 60,
      "hit": false,
      "t": 54039.540499999974,
      "d": 415.41090624999924,
      "v": 68
    },
    {
      "midi": 55,
      "hit": false,
      "t": 54328.521999999975,
      "d": 367.2473229166644,
      "v": 81
    },
    {
      "midi": 55,
      "hit": false,
      "t": 54906.48499999997,
      "d": 704.3924062500009,
      "v": 105
    },
    {
      "midi": 59,
      "hit": false,
      "t": 54906.48499999997,
      "d": 734.4946458333361,
      "v": 105
    },
    {
      "midi": 43,
      "hit": false,
      "t": 54906.48499999997,
      "d": 764.5968854166713,
      "v": 77
    },
    {
      "midi": 50,
      "hit": false,
      "t": 54906.48499999997,
      "d": 1727.8685520833387,
      "v": 90
    },
    {
      "midi": 57,
      "hit": false,
      "t": 55773.42949999998,
      "d": 710.412854166665,
      "v": 100
    },
    {
      "midi": 60,
      "hit": false,
      "t": 55773.42949999998,
      "d": 740.5150937500002,
      "v": 105
    },
    {
      "midi": 45,
      "hit": false,
      "t": 55773.42949999998,
      "d": 776.6377812499995,
      "v": 85
    },
    {
      "midi": 60,
      "hit": false,
      "t": 56640.373999999974,
      "d": 12.040895833335526,
      "v": 85
    },
    {
      "midi": 47,
      "hit": false,
      "t": 56640.373999999974,
      "d": 132.44985416666896,
      "v": 74
    },
    {
      "midi": 59,
      "hit": false,
      "t": 56640.373999999974,
      "d": 415.41090624999924,
      "v": 105
    },
    {
      "midi": 62,
      "hit": false,
      "t": 56640.373999999974,
      "d": 445.5131458333344,
      "v": 105
    },
    {
      "midi": 60,
      "hit": false,
      "t": 57218.33699999998,
      "d": 848.8831562499981,
      "v": 105
    },
    {
      "midi": 55,
      "hit": false,
      "t": 57218.33699999998,
      "d": 987.3534583333312,
      "v": 90
    },
    {
      "midi": 48,
      "hit": false,
      "t": 57218.33699999998,
      "d": 1216.1304791666626,
      "v": 74
    },
    {
      "midi": 52,
      "hit": false,
      "t": 57218.33699999998,
      "d": 1342.5598854166674,
      "v": 77
    },
    {
      "midi": 55,
      "hit": false,
      "t": 58374.26299999998,
      "d": 72.2453749999986,
      "v": 71
    },
    {
      "midi": 60,
      "hit": false,
      "t": 58374.26299999998,
      "d": 547.8607604166682,
      "v": 100
    },
    {
      "midi": 64,
      "hit": false,
      "t": 58374.26299999998,
      "d": 680.3106145833372,
      "v": 100
    },
    {
      "midi": 60,
      "hit": false,
      "t": 58952.22599999998,
      "d": 379.28821874999994,
      "v": 31
    },
    {
      "midi": 55,
      "hit": false,
      "t": 58952.22599999998,
      "d": 499.6971770833334,
      "v": 81
    },
    {
      "midi": 48,
      "hit": false,
      "t": 58952.22599999998,
      "d": 2438.281406250004,
      "v": 85
    },
    {
      "midi": 53,
      "hit": false,
      "t": 59530.188999999984,
      "d": 343.16553125000064,
      "v": 95
    },
    {
      "midi": 55,
      "hit": false,
      "t": 59530.188999999984,
      "d": 367.2473229166644,
      "v": 55
    },
    {
      "midi": 60,
      "hit": false,
      "t": 59530.188999999984,
      "d": 608.0652395833313,
      "v": 85
    },
    {
      "midi": 65,
      "hit": false,
      "t": 59530.188999999984,
      "d": 632.147031249995,
      "v": 90
    },
    {
      "midi": 53,
      "hit": false,
      "t": 60108.15199999998,
      "d": 1186.0282395833347,
      "v": 95
    },
    {
      "midi": 60,
      "hit": false,
      "t": 60686.114999999976,
      "d": 1005.4148020833381,
      "v": 109
    },
    {
      "midi": 65,
      "hit": false,
      "t": 60686.114999999976,
      "d": 1065.6192812500012,
      "v": 105
    },
    {
      "midi": 55,
      "hit": false,
      "t": 61264.07799999998,
      "d": 463.57448958333407,
      "v": 77
    },
    {
      "midi": 60,
      "hit": false,
      "t": 61842.040999999976,
      "d": 770.6173333333354,
      "v": 81
    },
    {
      "midi": 55,
      "hit": false,
      "t": 61842.040999999976,
      "d": 963.2716666666674,
      "v": 77
    },
    {
      "midi": 52,
      "hit": false,
      "t": 61842.040999999976,
      "d": 2034.9113958333328,
      "v": 95
    },
    {
      "midi": 48,
      "hit": false,
      "t": 61842.040999999976,
      "d": 4250.436229166669,
      "v": 85
    },
    {
      "midi": 64,
      "hit": false,
      "t": 62997.966999999975,
      "d": 313.06329166666546,
      "v": 100
    },
    {
      "midi": 60,
      "hit": false,
      "t": 62997.966999999975,
      "d": 337.14508333332924,
      "v": 100
    },
    {
      "midi": 55,
      "hit": false,
      "t": 63286.94849999998,
      "d": 632.147031249995,
      "v": 77
    },
    {
      "midi": 60,
      "hit": false,
      "t": 63575.92999999997,
      "d": 361.2268750000003,
      "v": 85
    },
    {
      "midi": 64,
      "hit": false,
      "t": 63864.91149999997,
      "d": 216.7361249999958,
      "v": 77
    },
    {
      "midi": 53,
      "hit": false,
      "t": 64153.89299999997,
      "d": 409.3904583333351,
      "v": 95
    },
    {
      "midi": 65,
      "hit": false,
      "t": 64153.89299999997,
      "d": 764.5968854166713,
      "v": 105
    },
    {
      "midi": 60,
      "hit": false,
      "t": 64153.89299999997,
      "d": 776.6377812500068,
      "v": 105
    },
    {
      "midi": 55,
      "hit": false,
      "t": 64153.89299999997,
      "d": 1047.5579375000088,
      "v": 95
    },
    {
      "midi": 53,
      "hit": false,
      "t": 64731.85599999997,
      "d": 1258.2736145833478,
      "v": 90
    },
    {
      "midi": 60,
      "hit": false,
      "t": 65309.818999999974,
      "d": 150.5111979166686,
      "v": 95
    },
    {
      "midi": 65,
      "hit": false,
      "t": 65309.818999999974,
      "d": 313.06329166668,
      "v": 109
    },
    {
      "midi": 55,
      "hit": false,
      "t": 65309.818999999974,
      "d": 1059.598833333337,
      "v": 53
    },
    {
      "midi": 64,
      "hit": false,
      "t": 65598.80049999998,
      "d": 228.7770208333386,
      "v": 74
    },
    {
      "midi": 62,
      "hit": false,
      "t": 65887.78199999999,
      "d": 451.53359374999127,
      "v": 90
    },
    {
      "midi": 64,
      "hit": false,
      "t": 66465.74499999998,
      "d": 764.5968854166713,
      "v": 90
    },
    {
      "midi": 60,
      "hit": false,
      "t": 66465.74499999998,
      "d": 945.2103229166678,
      "v": 95
    },
    {
      "midi": 55,
      "hit": false,
      "t": 66465.74499999998,
      "d": 999.3943541666667,
      "v": 71
    },
    {
      "midi": 48,
      "hit": false,
      "t": 66465.74499999998,
      "d": 2167.3612500000017,
      "v": 90
    },
    {
      "midi": 52,
      "hit": false,
      "t": 67043.70799999998,
      "d": 927.1489791666681,
      "v": 77
    },
    {
      "midi": 55,
      "hit": false,
      "t": 67621.67099999999,
      "d": 331.1246354166651,
      "v": 81
    },
    {
      "midi": 64,
      "hit": false,
      "t": 67621.67099999999,
      "d": 1017.4556979166664,
      "v": 105
    },
    {
      "midi": 60,
      "hit": false,
      "t": 67910.65249999998,
      "d": 656.2288229166734,
      "v": 65
    },
    {
      "midi": 52,
      "hit": false,
      "t": 68199.63399999999,
      "d": 258.8792604166665,
      "v": 81
    },
    {
      "midi": 55,
      "hit": false,
      "t": 68199.63399999999,
      "d": 337.1450833333365,
      "v": 71
    },
    {
      "midi": 53,
      "hit": false,
      "t": 68777.597,
      "d": 409.3904583333351,
      "v": 100
    },
    {
      "midi": 60,
      "hit": false,
      "t": 68777.597,
      "d": 945.2103229166678,
      "v": 90
    },
    {
      "midi": 57,
      "hit": false,
      "t": 68777.597,
      "d": 999.3943541666667,
      "v": 95
    },
    {
      "midi": 48,
      "hit": false,
      "t": 68777.597,
      "d": 1842.257062500008,
      "v": 90
    },
    {
      "midi": 53,
      "hit": false,
      "t": 69355.56,
      "d": 909.0876354166685,
      "v": 85
    },
    {
      "midi": 57,
      "hit": false,
      "t": 69933.523,
      "d": 42.1431354166707,
      "v": 71
    },
    {
      "midi": 60,
      "hit": false,
      "t": 69933.523,
      "d": 686.3310625000013,
      "v": 105
    },
    {
      "midi": 65,
      "hit": false,
      "t": 69933.523,
      "d": 1071.6397291666653,
      "v": 95
    },
    {
      "midi": 57,
      "hit": false,
      "t": 70511.486,
      "d": 379.28821874999267,
      "v": 81
    },
    {
      "midi": 59,
      "hit": false,
      "t": 71089.449,
      "d": 921.1285312499967,
      "v": 74
    },
    {
      "midi": 55,
      "hit": false,
      "t": 71089.449,
      "d": 999.3943541666667,
      "v": 90
    },
    {
      "midi": 43,
      "hit": false,
      "t": 71089.449,
      "d": 1872.3593020833505,
      "v": 85
    },
    {
      "midi": 50,
      "hit": false,
      "t": 71089.449,
      "d": 2125.2181145833456,
      "v": 100
    },
    {
      "midi": 55,
      "hit": false,
      "t": 72245.375,
      "d": 313.06329166666546,
      "v": 65
    },
    {
      "midi": 59,
      "hit": false,
      "t": 72245.375,
      "d": 710.4128541666723,
      "v": 100
    },
    {
      "midi": 62,
      "hit": false,
      "t": 72245.375,
      "d": 1053.5783854166657,
      "v": 109
    },
    {
      "midi": 55,
      "hit": false,
      "t": 72823.338,
      "d": 421.43135416666337,
      "v": 68
    },
    {
      "midi": 55,
      "hit": false,
      "t": 73401.30099999999,
      "d": 457.55404166666267,
      "v": 95
    },
    {
      "midi": 60,
      "hit": false,
      "t": 73401.30099999999,
      "d": 626.1265833333164,
      "v": 95
    },
    {
      "midi": 45,
      "hit": false,
      "t": 73401.30099999999,
      "d": 764.5968854166567,
      "v": 90
    },
    {
      "midi": 62,
      "hit": false,
      "t": 73401.30099999999,
      "d": 776.637781249985,
      "v": 90
    },
    {
      "midi": 50,
      "hit": false,
      "t": 73401.30099999999,
      "d": 969.2921145833097,
      "v": 68
    },
    {
      "midi": 55,
      "hit": false,
      "t": 73979.26399999998,
      "d": 403.3700104166637,
      "v": 61
    },
    {
      "midi": 62,
      "hit": false,
      "t": 74268.24549999998,
      "d": 108.3680624999979,
      "v": 1
    },
    {
      "midi": 55,
      "hit": false,
      "t": 74557.22699999998,
      "d": 385.30866666666407,
      "v": 90
    },
    {
      "midi": 47,
      "hit": false,
      "t": 74557.22699999998,
      "d": 475.6153854166623,
      "v": 81
    },
    {
      "midi": 59,
      "hit": false,
      "t": 74557.22699999998,
      "d": 559.9016562499892,
      "v": 105
    },
    {
      "midi": 62,
      "hit": false,
      "t": 74557.22699999998,
      "d": 1095.7215208333218,
      "v": 105
    },
    {
      "midi": 55,
      "hit": false,
      "t": 75135.18999999997,
      "d": 385.30866666666407,
      "v": 53
    },
    {
      "midi": 60,
      "hit": false,
      "t": 75713.15299999998,
      "d": 680.3106145833299,
      "v": 85
    },
    {
      "midi": 55,
      "hit": false,
      "t": 75713.15299999998,
      "d": 969.2921145833243,
      "v": 95
    },
    {
      "midi": 52,
      "hit": false,
      "t": 75713.15299999998,
      "d": 1324.4985416666605,
      "v": 85
    },
    {
      "midi": 48,
      "hit": false,
      "t": 75713.15299999998,
      "d": 2251.647520833314,
      "v": 81
    },
    {
      "midi": 64,
      "hit": false,
      "t": 76869.07899999997,
      "d": 391.32911458333547,
      "v": 95
    },
    {
      "midi": 60,
      "hit": false,
      "t": 76869.07899999997,
      "d": 397.34956250000687,
      "v": 95
    },
    {
      "midi": 55,
      "hit": false,
      "t": 76869.07899999997,
      "d": 722.4537500000006,
      "v": 63
    },
    {
      "midi": 60,
      "hit": false,
      "t": 77447.04199999997,
      "d": 343.16553124999336,
      "v": 85
    },
    {
      "midi": 52,
      "hit": false,
      "t": 77447.04199999997,
      "d": 355.2064270833216,
      "v": 71
    },
    {
      "midi": 64,
      "hit": false,
      "t": 77447.04199999997,
      "d": 361.226874999993,
      "v": 90
    },
    {
      "midi": 55,
      "hit": false,
      "t": 77736.02349999997,
      "d": 216.7361249999958,
      "v": 63
    },
    {
      "midi": 53,
      "hit": false,
      "t": 78025.00499999996,
      "d": 397.34956250000687,
      "v": 90
    },
    {
      "midi": 60,
      "hit": false,
      "t": 78025.00499999996,
      "d": 710.4128541666723,
      "v": 90
    },
    {
      "midi": 65,
      "hit": false,
      "t": 78025.00499999996,
      "d": 764.5968854166713,
      "v": 85
    },
    {
      "midi": 55,
      "hit": false,
      "t": 78025.00499999996,
      "d": 1041.5374895833374,
      "v": 90
    },
    {
      "midi": 48,
      "hit": false,
      "t": 78025.00499999996,
      "d": 1770.0116875000094,
      "v": 21
    },
    {
      "midi": 53,
      "hit": false,
      "t": 78602.96799999996,
      "d": 1131.8442083333357,
      "v": 90
    },
    {
      "midi": 55,
      "hit": false,
      "t": 79180.93099999997,
      "d": 421.43135416666337,
      "v": 71
    },
    {
      "midi": 60,
      "hit": false,
      "t": 79180.93099999997,
      "d": 740.5150937500002,
      "v": 105
    },
    {
      "midi": 65,
      "hit": false,
      "t": 79180.93099999997,
      "d": 1023.4761458333232,
      "v": 105
    },
    {
      "midi": 55,
      "hit": false,
      "t": 79758.89399999997,
      "d": 397.3495624999923,
      "v": 68
    },
    {
      "midi": 60,
      "hit": false,
      "t": 80336.85699999996,
      "d": 836.8422604166699,
      "v": 95
    },
    {
      "midi": 55,
      "hit": false,
      "t": 80336.85699999996,
      "d": 1005.4148020833381,
      "v": 100
    },
    {
      "midi": 52,
      "hit": false,
      "t": 80336.85699999996,
      "d": 1438.8870520833443,
      "v": 95
    },
    {
      "midi": 48,
      "hit": false,
      "t": 80336.85699999996,
      "d": 1565.3164583333419,
      "v": 85
    },
    {
      "midi": 55,
      "hit": false,
      "t": 81492.78299999997,
      "d": 349.18597916666477,
      "v": 57
    },
    {
      "midi": 64,
      "hit": false,
      "t": 81492.78299999997,
      "d": 571.942552083332,
      "v": 90
    },
    {
      "midi": 60,
      "hit": false,
      "t": 81492.78299999997,
      "d": 788.6786770833278,
      "v": 95
    },
    {
      "midi": 48,
      "hit": false,
      "t": 82070.74599999997,
      "d": 144.4907499999972,
      "v": 41
    },
    {
      "midi": 55,
      "hit": false,
      "t": 82070.74599999997,
      "d": 469.5949374999909,
      "v": 85
    },
    {
      "midi": 48,
      "hit": false,
      "t": 82359.72749999996,
      "d": 96.32716666666965,
      "v": 74
    },
    {
      "midi": 52,
      "hit": false,
      "t": 82359.72749999996,
      "d": 204.69522916666756,
      "v": 77
    },
    {
      "midi": 55,
      "hit": false,
      "t": 82648.70899999996,
      "d": 421.43135416666337,
      "v": 59
    },
    {
      "midi": 60,
      "hit": false,
      "t": 82648.70899999996,
      "d": 740.5150937500002,
      "v": 85
    },
    {
      "midi": 64,
      "hit": false,
      "t": 82648.70899999996,
      "d": 830.8218124999985,
      "v": 74
    },
    {
      "midi": 48,
      "hit": false,
      "t": 82648.70899999996,
      "d": 1763.9912395833235,
      "v": 90
    },
    {
      "midi": 55,
      "hit": false,
      "t": 83226.67199999996,
      "d": 523.7789687499899,
      "v": 61
    },
    {
      "midi": 52,
      "hit": false,
      "t": 83226.67199999996,
      "d": 1149.9055520833208,
      "v": 95
    },
    {
      "midi": 55,
      "hit": false,
      "t": 83804.63499999995,
      "d": 367.2473229166644,
      "v": 74
    },
    {
      "midi": 64,
      "hit": false,
      "t": 83804.63499999995,
      "d": 614.0856875000027,
      "v": 95
    },
    {
      "midi": 60,
      "hit": false,
      "t": 83804.63499999995,
      "d": 644.1879270833306,
      "v": 90
    },
    {
      "midi": 55,
      "hit": false,
      "t": 84382.59799999995,
      "d": 481.6358333333337,
      "v": 77
    },
    {
      "midi": 60,
      "hit": false,
      "t": 84960.56099999996,
      "d": 951.2307708333392,
      "v": 90
    },
    {
      "midi": 55,
      "hit": false,
      "t": 84960.56099999996,
      "d": 1011.4352500000095,
      "v": 77
    },
    {
      "midi": 48,
      "hit": false,
      "t": 84960.56099999996,
      "d": 1872.3593020833505,
      "v": 90
    },
    {
      "midi": 52,
      "hit": false,
      "t": 85538.52399999996,
      "d": 1264.2940625000047,
      "v": 63
    },
    {
      "midi": 55,
      "hit": false,
      "t": 86116.48699999996,
      "d": 349.18597916666477,
      "v": 74
    },
    {
      "midi": 64,
      "hit": false,
      "t": 86116.48699999996,
      "d": 1077.6601770833513,
      "v": 100
    },
    {
      "midi": 60,
      "hit": false,
      "t": 86405.46849999996,
      "d": 252.85881250000966,
      "v": 85
    },
    {
      "midi": 60,
      "hit": false,
      "t": 86694.44999999997,
      "d": 114.3885104166693,
      "v": 31
    },
    {
      "midi": 55,
      "hit": false,
      "t": 86694.44999999997,
      "d": 349.1859791666793,
      "v": 95
    },
    {
      "midi": 57,
      "hit": false,
      "t": 87272.41299999999,
      "d": 445.5131458333344,
      "v": 90
    },
    {
      "midi": 60,
      "hit": false,
      "t": 87272.41299999999,
      "d": 644.1879270833306,
      "v": 95
    },
    {
      "midi": 53,
      "hit": false,
      "t": 87272.41299999999,
      "d": 1318.4780937500036,
      "v": 95
    },
    {
      "midi": 48,
      "hit": false,
      "t": 87272.41299999999,
      "d": 1631.5413854166836,
      "v": 90
    },
    {
      "midi": 57,
      "hit": false,
      "t": 87850.37599999999,
      "d": 481.6358333333337,
      "v": 68
    },
    {
      "midi": 57,
      "hit": false,
      "t": 88428.33899999999,
      "d": 319.08373958333686,
      "v": 85
    },
    {
      "midi": 60,
      "hit": false,
      "t": 88428.33899999999,
      "d": 596.024343750003,
      "v": 100
    },
    {
      "midi": 65,
      "hit": false,
      "t": 88428.33899999999,
      "d": 1017.4556979166664,
      "v": 95
    },
    {
      "midi": 57,
      "hit": false,
      "t": 89006.302,
      "d": 427.45180208333477,
      "v": 90
    },
    {
      "midi": 59,
      "hit": false,
      "t": 89584.265,
      "d": 824.8013645833271,
      "v": 85
    },
    {
      "midi": 55,
      "hit": false,
      "t": 89584.265,
      "d": 957.251218749996,
      "v": 95
    },
    {
      "midi": 43,
      "hit": false,
      "t": 89584.265,
      "d": 2071.0340833333175,
      "v": 77
    },
    {
      "midi": 50,
      "hit": false,
      "t": 89584.265,
      "d": 2167.361249999987,
      "v": 90
    },
    {
      "midi": 55,
      "hit": false,
      "t": 90740.19099999999,
      "d": 397.34956250000687,
      "v": 74
    },
    {
      "midi": 59,
      "hit": false,
      "t": 90740.19099999999,
      "d": 698.3719583333295,
      "v": 90
    },
    {
      "midi": 62,
      "hit": false,
      "t": 90740.19099999999,
      "d": 1053.5783854166657,
      "v": 95
    },
    {
      "midi": 55,
      "hit": false,
      "t": 91318.154,
      "d": 415.41090624999197,
      "v": 81
    },
    {
      "midi": 60,
      "hit": false,
      "t": 91896.11699999998,
      "d": 770.6173333333281,
      "v": 90
    },
    {
      "midi": 55,
      "hit": false,
      "t": 91896.11699999998,
      "d": 981.3330104166671,
      "v": 95
    },
    {
      "midi": 45,
      "hit": false,
      "t": 91896.11699999998,
      "d": 1005.4148020833381,
      "v": 90
    },
    {
      "midi": 50,
      "hit": false,
      "t": 91896.11699999998,
      "d": 1029.4965937500092,
      "v": 65
    },
    {
      "midi": 62,
      "hit": false,
      "t": 91896.11699999998,
      "d": 1035.5170416666806,
      "v": 90
    },
    {
      "midi": 55,
      "hit": false,
      "t": 93052.04299999999,
      "d": 475.6153854166623,
      "v": 95
    },
    {
      "midi": 59,
      "hit": false,
      "t": 93052.04299999999,
      "d": 559.9016562499892,
      "v": 95
    },
    {
      "midi": 47,
      "hit": false,
      "t": 93052.04299999999,
      "d": 632.1470312499878,
      "v": 85
    },
    {
      "midi": 50,
      "hit": false,
      "t": 93052.04299999999,
      "d": 680.3106145833153,
      "v": 65
    },
    {
      "midi": 62,
      "hit": false,
      "t": 93052.04299999999,
      "d": 1059.598833333308,
      "v": 95
    },
    {
      "midi": 55,
      "hit": false,
      "t": 93630.00599999998,
      "d": 415.41090624999197,
      "v": 29
    },
    {
      "midi": 60,
      "hit": false,
      "t": 94207.96899999997,
      "d": 866.9444999999978,
      "v": 90
    },
    {
      "midi": 55,
      "hit": false,
      "t": 94207.96899999997,
      "d": 1029.4965937499946,
      "v": 85
    },
    {
      "midi": 48,
      "hit": false,
      "t": 94207.96899999997,
      "d": 1932.5637812499772,
      "v": 85
    },
    {
      "midi": 52,
      "hit": false,
      "t": 94785.93199999997,
      "d": 1294.396302083318,
      "v": 61
    },
    {
      "midi": 55,
      "hit": false,
      "t": 95363.89499999996,
      "d": 409.39045833332057,
      "v": 68
    },
    {
      "midi": 64,
      "hit": false,
      "t": 95363.89499999996,
      "d": 1011.4352499999804,
      "v": 109
    },
    {
      "midi": 60,
      "hit": false,
      "t": 95652.87649999995,
      "d": 313.06329166666546,
      "v": 77
    },
    {
      "midi": 55,
      "hit": false,
      "t": 95941.85799999995,
      "d": 186.6338854166679,
      "v": 90
    },
    {
      "midi": 52,
      "hit": false,
      "t": 96230.83949999994,
      "d": 132.44985416666896,
      "v": 68
    },
    {
      "midi": 48,
      "hit": false,
      "t": 96230.83949999994,
      "d": 144.4907499999972,
      "v": 77
    },
    {
      "midi": 55,
      "hit": false,
      "t": 96230.83949999994,
      "d": 150.5111979166686,
      "v": 44
    },
    {
      "midi": 60,
      "hit": false,
      "t": 96230.83949999994,
      "d": 174.59298958333966,
      "v": 68
    },
    {
      "midi": 60,
      "hit": false,
      "t": 96519.82099999995,
      "d": 78.26582291667,
      "v": 71
    },
    {
      "midi": 55,
      "hit": false,
      "t": 96519.82099999995,
      "d": 343.1655312500079,
      "v": 85
    },
    {
      "midi": 48,
      "hit": false,
      "t": 96519.82099999995,
      "d": 1264.29406249999,
      "v": 90
    },
    {
      "midi": 52,
      "hit": false,
      "t": 96519.82099999995,
      "d": 2089.0954270833026,
      "v": 77
    },
    {
      "midi": 60,
      "hit": false,
      "t": 96808.80249999996,
      "d": 156.53164583332546,
      "v": 68
    },
    {
      "midi": 55,
      "hit": false,
      "t": 97097.78399999996,
      "d": 415.41090624999197,
      "v": 100
    },
    {
      "midi": 60,
      "hit": false,
      "t": 97386.76549999995,
      "d": 168.57254166666826,
      "v": 74
    },
    {
      "midi": 55,
      "hit": false,
      "t": 97675.74699999994,
      "d": 337.14508333332196,
      "v": 95
    },
    {
      "midi": 64,
      "hit": false,
      "t": 97675.74699999994,
      "d": 680.3106145833153,
      "v": 105
    },
    {
      "midi": 60,
      "hit": false,
      "t": 97964.72849999994,
      "d": 361.226874999993,
      "v": 68
    },
    {
      "midi": 55,
      "hit": false,
      "t": 98253.70999999993,
      "d": 114.38851041665475,
      "v": 44
    },
    {
      "midi": 64,
      "hit": false,
      "t": 98831.67299999992,
      "d": 945.2103229166678,
      "v": 81
    },
    {
      "midi": 59,
      "hit": false,
      "t": 98831.67299999992,
      "d": 1023.4761458333378,
      "v": 85
    },
    {
      "midi": 56,
      "hit": false,
      "t": 98831.67299999992,
      "d": 1818.1752708333515,
      "v": 101
    },
    {
      "midi": 52,
      "hit": false,
      "t": 98831.67299999992,
      "d": 1902.461541666693,
      "v": 81
    },
    {
      "midi": 64,
      "hit": false,
      "t": 99987.59899999993,
      "d": 24.08179166667105,
      "v": 81
    },
    {
      "midi": 59,
      "hit": false,
      "t": 99987.59899999993,
      "d": 403.37001041667827,
      "v": 63
    },
    {
      "midi": 68,
      "hit": false,
      "t": 99987.59899999993,
      "d": 1161.9464479166782,
      "v": 106
    },
    {
      "midi": 64,
      "hit": false,
      "t": 100276.58049999994,
      "d": 415.4109062500065,
      "v": 63
    },
    {
      "midi": 59,
      "hit": false,
      "t": 100565.56199999995,
      "d": 397.3495624999923,
      "v": 65
    },
    {
      "midi": 52,
      "hit": false,
      "t": 100854.54349999994,
      "d": 156.53164583332546,
      "v": 65
    },
    {
      "midi": 64,
      "hit": false,
      "t": 100854.54349999994,
      "d": 162.55209374999686,
      "v": 40
    },
    {
      "midi": 59,
      "hit": false,
      "t": 101143.52499999994,
      "d": 445.5131458333344,
      "v": 81
    },
    {
      "midi": 64,
      "hit": false,
      "t": 101143.52499999994,
      "d": 632.1470312500023,
      "v": 68
    },
    {
      "midi": 52,
      "hit": false,
      "t": 101143.52499999994,
      "d": 1643.5822812499973,
      "v": 81
    },
    {
      "midi": 59,
      "hit": false,
      "t": 101721.48799999994,
      "d": 397.3495624999923,
      "v": 55
    },
    {
      "midi": 56,
      "hit": false,
      "t": 101721.48799999994,
      "d": 1505.1119791666424,
      "v": 101
    },
    {
      "midi": 64,
      "hit": false,
      "t": 102010.46949999993,
      "d": 66.2249270833272,
      "v": 35
    },
    {
      "midi": 66,
      "hit": false,
      "t": 102299.45099999993,
      "d": 12.04089583332825,
      "v": 70
    },
    {
      "midi": 59,
      "hit": false,
      "t": 102299.45099999993,
      "d": 391.32911458333547,
      "v": 61
    },
    {
      "midi": 64,
      "hit": false,
      "t": 102299.45099999993,
      "d": 698.3719583333295,
      "v": 100
    },
    {
      "midi": 68,
      "hit": false,
      "t": 102299.45099999993,
      "d": 1041.537489583323,
      "v": 106
    },
    {
      "midi": 59,
      "hit": false,
      "t": 102877.41399999993,
      "d": 282.961052083323,
      "v": 43
    },
    {
      "midi": 65,
      "hit": false,
      "t": 103455.37699999992,
      "d": 740.5150937500002,
      "v": 95
    },
    {
      "midi": 57,
      "hit": false,
      "t": 103455.37699999992,
      "d": 957.251218749996,
      "v": 95
    },
    {
      "midi": 53,
      "hit": false,
      "t": 103455.37699999992,
      "d": 1011.435249999995,
      "v": 90
    },
    {
      "midi": 60,
      "hit": false,
      "t": 103455.37699999992,
      "d": 1023.4761458333232,
      "v": 90
    },
    {
      "midi": 53,
      "hit": false,
      "t": 104611.30299999991,
      "d": 325.1041874999937,
      "v": 81
    },
    {
      "midi": 57,
      "hit": false,
      "t": 104611.30299999991,
      "d": 481.6358333333337,
      "v": 90
    },
    {
      "midi": 65,
      "hit": false,
      "t": 104611.30299999991,
      "d": 481.6358333333337,
      "v": 100
    },
    {
      "midi": 69,
      "hit": false,
      "t": 104611.30299999991,
      "d": 493.67672916666197,
      "v": 109
    },
    {
      "midi": 64,
      "hit": false,
      "t": 105189.2659999999,
      "d": 415.4109062500065,
      "v": 105
    },
    {
      "midi": 57,
      "hit": false,
      "t": 105189.2659999999,
      "d": 463.57448958333407,
      "v": 68
    },
    {
      "midi": 52,
      "hit": false,
      "t": 105189.2659999999,
      "d": 499.6971770833334,
      "v": 77
    },
    {
      "midi": 67,
      "hit": false,
      "t": 105189.2659999999,
      "d": 517.758520833333,
      "v": 100
    },
    {
      "midi": 62,
      "hit": false,
      "t": 105767.2289999999,
      "d": 999.3943541666667,
      "v": 90
    },
    {
      "midi": 65,
      "hit": false,
      "t": 105767.2289999999,
      "d": 999.3943541666667,
      "v": 77
    },
    {
      "midi": 57,
      "hit": false,
      "t": 105767.2289999999,
      "d": 1216.130479166677,
      "v": 95
    },
    {
      "midi": 50,
      "hit": false,
      "t": 105767.2289999999,
      "d": 1258.2736145833478,
      "v": 95
    },
    {
      "midi": 62,
      "hit": false,
      "t": 106923.15499999991,
      "d": 517.7585208333476,
      "v": 100
    },
    {
      "midi": 65,
      "hit": false,
      "t": 106923.15499999991,
      "d": 1101.7419687500078,
      "v": 95
    },
    {
      "midi": 55,
      "hit": false,
      "t": 108079.08099999992,
      "d": 842.8627083333267,
      "v": 95
    },
    {
      "midi": 59,
      "hit": false,
      "t": 108079.08099999992,
      "d": 854.903604166655,
      "v": 81
    },
    {
      "midi": 43,
      "hit": false,
      "t": 108079.08099999992,
      "d": 1932.5637812499772,
      "v": 77
    },
    {
      "midi": 50,
      "hit": false,
      "t": 108079.08099999992,
      "d": 2083.074979166646,
      "v": 95
    },
    {
      "midi": 55,
      "hit": false,
      "t": 109235.00699999991,
      "d": 385.30866666666407,
      "v": 95
    },
    {
      "midi": 62,
      "hit": false,
      "t": 109235.00699999991,
      "d": 1053.5783854166511,
      "v": 95
    },
    {
      "midi": 59,
      "hit": false,
      "t": 109523.9884999999,
      "d": 276.94060416666616,
      "v": 63
    },
    {
      "midi": 55,
      "hit": false,
      "t": 109812.9699999999,
      "d": 379.28821874999267,
      "v": 90
    },
    {
      "midi": 55,
      "hit": false,
      "t": 110390.93299999989,
      "d": 475.6153854166623,
      "v": 95
    },
    {
      "midi": 60,
      "hit": false,
      "t": 110390.93299999989,
      "d": 1005.4148020833236,
      "v": 100
    },
    {
      "midi": 50,
      "hit": false,
      "t": 110390.93299999989,
      "d": 1065.619281249994,
      "v": 81
    },
    {
      "midi": 45,
      "hit": false,
      "t": 110390.93299999989,
      "d": 1071.6397291666653,
      "v": 90
    },
    {
      "midi": 55,
      "hit": false,
      "t": 110968.89599999988,
      "d": 469.59493750000547,
      "v": 68
    },
    {
      "midi": 59,
      "hit": false,
      "t": 111546.85899999988,
      "d": 740.5150937500002,
      "v": 90
    },
    {
      "midi": 47,
      "hit": false,
      "t": 111546.85899999988,
      "d": 752.5559895833285,
      "v": 85
    },
    {
      "midi": 55,
      "hit": false,
      "t": 111546.85899999988,
      "d": 975.3125624999957,
      "v": 85
    },
    {
      "midi": 62,
      "hit": false,
      "t": 111546.85899999988,
      "d": 1041.537489583323,
      "v": 95
    },
    {
      "midi": 50,
      "hit": false,
      "t": 111546.85899999988,
      "d": 1077.6601770833222,
      "v": 61
    },
    {
      "midi": 60,
      "hit": false,
      "t": 112702.78499999987,
      "d": 945.2103229166678,
      "v": 105
    },
    {
      "midi": 55,
      "hit": false,
      "t": 112702.78499999987,
      "d": 993.3739062499953,
      "v": 100
    },
    {
      "midi": 48,
      "hit": false,
      "t": 112702.78499999987,
      "d": 1860.3184062499786,
      "v": 81
    },
    {
      "midi": 52,
      "hit": false,
      "t": 113280.74799999988,
      "d": 885.0058437499829,
      "v": 77
    },
    {
      "midi": 55,
      "hit": false,
      "t": 113858.71099999986,
      "d": 391.3291145833209,
      "v": 90
    },
    {
      "midi": 64,
      "hit": false,
      "t": 113858.71099999986,
      "d": 547.8607604166609,
      "v": 95
    },
    {
      "midi": 60,
      "hit": false,
      "t": 114147.69249999986,
      "d": 891.0262916666543,
      "v": 65
    },
    {
      "midi": 55,
      "hit": false,
      "t": 114436.67399999985,
      "d": 975.3125624999811,
      "v": 81
    },
    {
      "midi": 52,
      "hit": false,
      "t": 114725.65549999985,
      "d": 361.226874999993,
      "v": 81
    },
    {
      "midi": 48,
      "hit": false,
      "t": 115014.63699999984,
      "d": 1499.0915312499856,
      "v": 77
    },
    {
      "midi": 52,
      "hit": false,
      "t": 115592.59999999983,
      "d": 349.18597916666477,
      "v": 85
    },
    {
      "midi": 55,
      "hit": false,
      "t": 115592.59999999983,
      "d": 463.57448958333407,
      "v": 95
    },
    {
      "midi": 60,
      "hit": false,
      "t": 115592.59999999983,
      "d": 680.3106145833299,
      "v": 100
    },
    {
      "midi": 64,
      "hit": false,
      "t": 115592.59999999983,
      "d": 770.6173333333281,
      "v": 95
    },
    {
      "midi": 55,
      "hit": false,
      "t": 116170.56299999983,
      "d": 403.3700104166637,
      "v": 57
    },
    {
      "midi": 52,
      "hit": false,
      "t": 116170.56299999983,
      "d": 1035.517041666666,
      "v": 100
    },
    {
      "midi": 60,
      "hit": false,
      "t": 116459.54449999983,
      "d": 529.7994166666758,
      "v": 85
    },
    {
      "midi": 64,
      "hit": false,
      "t": 116459.54449999983,
      "d": 656.2288229166734,
      "v": 95
    },
    {
      "midi": 55,
      "hit": false,
      "t": 116748.52599999984,
      "d": 313.06329166666546,
      "v": 85
    },
    {
      "midi": 56,
      "hit": false,
      "t": 117326.48899999983,
      "d": 481.6358333333337,
      "v": 56
    },
    {
      "midi": 64,
      "hit": false,
      "t": 117326.48899999983,
      "d": 951.2307708333392,
      "v": 105
    },
    {
      "midi": 59,
      "hit": false,
      "t": 117326.48899999983,
      "d": 993.3739062500099,
      "v": 95
    },
    {
      "midi": 52,
      "hit": false,
      "t": 117326.48899999983,
      "d": 1902.4615416666784,
      "v": 68
    },
    {
      "midi": 56,
      "hit": false,
      "t": 117904.45199999983,
      "d": 1180.0077916666778,
      "v": 94
    },
    {
      "midi": 59,
      "hit": false,
      "t": 118482.41499999983,
      "d": 415.4109062500065,
      "v": 81
    },
    {
      "midi": 68,
      "hit": false,
      "t": 118482.41499999983,
      "d": 1095.7215208333218,
      "v": 106
    },
    {
      "midi": 64,
      "hit": false,
      "t": 119060.37799999984,
      "d": 54.18403124999895,
      "v": 59
    },
    {
      "midi": 59,
      "hit": false,
      "t": 119060.37799999984,
      "d": 355.2064270833216,
      "v": 77
    },
    {
      "midi": 56,
      "hit": false,
      "t": 119349.35949999983,
      "d": 138.4703020833258,
      "v": 35
    },
    {
      "midi": 64,
      "hit": false,
      "t": 119349.35949999983,
      "d": 210.7156770833244,
      "v": 48
    },
    {
      "midi": 59,
      "hit": false,
      "t": 119638.34099999983,
      "d": 451.5335937500058,
      "v": 74
    },
    {
      "midi": 64,
      "hit": false,
      "t": 119638.34099999983,
      "d": 644.1879270833306,
      "v": 71
    },
    {
      "midi": 52,
      "hit": false,
      "t": 119638.34099999983,
      "d": 1625.5209374999831,
      "v": 77
    },
    {
      "midi": 59,
      "hit": false,
      "t": 120216.30399999983,
      "d": 132.4498541666544,
      "v": 47
    },
    {
      "midi": 56,
      "hit": false,
      "t": 120216.30399999983,
      "d": 1330.5189895833028,
      "v": 94
    },
    {
      "midi": 64,
      "hit": false,
      "t": 120505.28549999982,
      "d": 54.18403124999895,
      "v": 33
    },
    {
      "midi": 59,
      "hit": false,
      "t": 120505.28549999982,
      "d": 126.42940624999756,
      "v": 38
    },
    {
      "midi": 59,
      "hit": false,
      "t": 120794.26699999982,
      "d": 337.14508333332196,
      "v": 74
    },
    {
      "midi": 68,
      "hit": false,
      "t": 120794.26699999982,
      "d": 1017.4556979166518,
      "v": 106
    },
    {
      "midi": 64,
      "hit": false,
      "t": 121083.24849999981,
      "d": 409.39045833332057,
      "v": 61
    },
    {
      "midi": 59,
      "hit": false,
      "t": 121372.2299999998,
      "d": 264.89970833332336,
      "v": 63
    },
    {
      "midi": 65,
      "hit": false,
      "t": 121950.19299999981,
      "d": 674.290166666673,
      "v": 100
    },
    {
      "midi": 57,
      "hit": false,
      "t": 121950.19299999981,
      "d": 951.2307708333392,
      "v": 100
    },
    {
      "midi": 60,
      "hit": false,
      "t": 121950.19299999981,
      "d": 1017.4556979166664,
      "v": 90
    },
    {
      "midi": 53,
      "hit": false,
      "t": 121950.19299999981,
      "d": 1023.4761458333378,
      "v": 90
    },
    {
      "midi": 53,
      "hit": false,
      "t": 123106.11899999982,
      "d": 337.1450833333365,
      "v": 81
    },
    {
      "midi": 65,
      "hit": false,
      "t": 123106.11899999982,
      "d": 469.59493750000547,
      "v": 95
    },
    {
      "midi": 57,
      "hit": false,
      "t": 123106.11899999982,
      "d": 475.6153854166769,
      "v": 81
    },
    {
      "midi": 69,
      "hit": false,
      "t": 123106.11899999982,
      "d": 493.6767291666765,
      "v": 105
    },
    {
      "midi": 64,
      "hit": false,
      "t": 123684.08199999982,
      "d": 427.45180208333477,
      "v": 95
    },
    {
      "midi": 57,
      "hit": false,
      "t": 123684.08199999982,
      "d": 433.47225000000617,
      "v": 59
    },
    {
      "midi": 52,
      "hit": false,
      "t": 123684.08199999982,
      "d": 457.5540416666772,
      "v": 68
    },
    {
      "midi": 67,
      "hit": false,
      "t": 123684.08199999982,
      "d": 523.7789687500044,
      "v": 95
    },
    {
      "midi": 57,
      "hit": false,
      "t": 124262.04499999982,
      "d": 764.5968854166713,
      "v": 90
    },
    {
      "midi": 62,
      "hit": false,
      "t": 124262.04499999982,
      "d": 818.7809166666702,
      "v": 95
    },
    {
      "midi": 65,
      "hit": false,
      "t": 124262.04499999982,
      "d": 993.3739062499953,
      "v": 90
    },
    {
      "midi": 50,
      "hit": false,
      "t": 124262.04499999982,
      "d": 1523.1733229166566,
      "v": 81
    },
    {
      "midi": 62,
      "hit": false,
      "t": 125128.98949999982,
      "d": 90.30671874999825,
      "v": 16
    },
    {
      "midi": 57,
      "hit": false,
      "t": 125417.97099999982,
      "d": 301.0223958333372,
      "v": 105
    },
    {
      "midi": 62,
      "hit": false,
      "t": 125417.97099999982,
      "d": 710.4128541666578,
      "v": 95
    },
    {
      "midi": 65,
      "hit": false,
      "t": 125417.97099999982,
      "d": 1101.7419687499932,
      "v": 95
    },
    {
      "midi": 55,
      "hit": false,
      "t": 126573.89699999981,
      "d": 872.9649479166692,
      "v": 100
    },
    {
      "midi": 59,
      "hit": false,
      "t": 126573.89699999981,
      "d": 903.0671874999971,
      "v": 77
    },
    {
      "midi": 43,
      "hit": false,
      "t": 126573.89699999981,
      "d": 2125.2181145833165,
      "v": 77
    },
    {
      "midi": 50,
      "hit": false,
      "t": 126573.89699999981,
      "d": 2143.279458333316,
      "v": 90
    },
    {
      "midi": 55,
      "hit": false,
      "t": 127729.8229999998,
      "d": 391.3291145833209,
      "v": 100
    },
    {
      "midi": 62,
      "hit": false,
      "t": 127729.8229999998,
      "d": 1047.5579374999943,
      "v": 95
    },
    {
      "midi": 59,
      "hit": false,
      "t": 128018.8044999998,
      "d": 445.5131458333344,
      "v": 51
    },
    {
      "midi": 55,
      "hit": false,
      "t": 128307.78599999979,
      "d": 415.4109062500065,
      "v": 77
    },
    {
      "midi": 59,
      "hit": false,
      "t": 128596.7674999998,
      "d": 198.67478124999616,
      "v": 1
    },
    {
      "midi": 57,
      "hit": false,
      "t": 128885.74899999979,
      "d": 198.67478124999616,
      "v": 85
    },
    {
      "midi": 55,
      "hit": false,
      "t": 128885.74899999979,
      "d": 1011.435249999995,
      "v": 81
    },
    {
      "midi": 50,
      "hit": false,
      "t": 128885.74899999979,
      "d": 1017.4556979166664,
      "v": 77
    },
    {
      "midi": 60,
      "hit": false,
      "t": 128885.74899999979,
      "d": 1023.4761458333378,
      "v": 95
    },
    {
      "midi": 62,
      "hit": false,
      "t": 128885.74899999979,
      "d": 1023.4761458333378,
      "v": 95
    },
    {
      "midi": 45,
      "hit": false,
      "t": 128885.74899999979,
      "d": 1041.5374895833374,
      "v": 90
    },
    {
      "midi": 55,
      "hit": false,
      "t": 130041.6749999998,
      "d": 987.3534583333385,
      "v": 85
    },
    {
      "midi": 62,
      "hit": false,
      "t": 130041.6749999998,
      "d": 1005.4148020833381,
      "v": 81
    },
    {
      "midi": 50,
      "hit": false,
      "t": 130041.6749999998,
      "d": 1143.8851041666785,
      "v": 77
    },
    {
      "midi": 47,
      "hit": false,
      "t": 130041.6749999998,
      "d": 1228.17137500002,
      "v": 95
    },
    {
      "midi": 55,
      "hit": false,
      "t": 131197.60099999982,
      "d": 945.2103229166532,
      "v": 95
    },
    {
      "midi": 60,
      "hit": false,
      "t": 131197.60099999982,
      "d": 945.2103229166532,
      "v": 105
    },
    {
      "midi": 48,
      "hit": false,
      "t": 131197.60099999982,
      "d": 1788.07303124998,
      "v": 85
    },
    {
      "midi": 55,
      "hit": false,
      "t": 132353.5269999998,
      "d": 385.3086666666495,
      "v": 90
    },
    {
      "midi": 64,
      "hit": false,
      "t": 132353.5269999998,
      "d": 1053.5783854166802,
      "v": 90
    },
    {
      "midi": 60,
      "hit": false,
      "t": 132642.5084999998,
      "d": 331.1246354166651,
      "v": 71
    },
    {
      "midi": 55,
      "hit": false,
      "t": 132931.4899999998,
      "d": 451.5335937500349,
      "v": 81
    },
    {
      "midi": 60,
      "hit": false,
      "t": 133220.4714999998,
      "d": 114.3885104166693,
      "v": 5
    },
    {
      "midi": 48,
      "hit": false,
      "t": 133220.4714999998,
      "d": 192.6543333333393,
      "v": 81
    },
    {
      "midi": 55,
      "hit": false,
      "t": 133509.4529999998,
      "d": 385.3086666666786,
      "v": 81
    },
    {
      "midi": 60,
      "hit": false,
      "t": 133509.4529999998,
      "d": 590.0038958333607,
      "v": 77
    },
    {
      "midi": 48,
      "hit": false,
      "t": 133509.4529999998,
      "d": 1896.4410937500943,
      "v": 90
    },
    {
      "midi": 55,
      "hit": false,
      "t": 134087.41599999982,
      "d": 415.4109062500356,
      "v": 59
    },
    {
      "midi": 52,
      "hit": false,
      "t": 134087.41599999982,
      "d": 1258.2736145834206,
      "v": 77
    },
    {
      "midi": 60,
      "hit": false,
      "t": 134376.39749999985,
      "d": 144.4907500000263,
      "v": 42
    },
    {
      "midi": 55,
      "hit": false,
      "t": 134665.37899999987,
      "d": 379.2882187500072,
      "v": 95
    },
    {
      "midi": 64,
      "hit": false,
      "t": 134665.37899999987,
      "d": 1077.6601770833659,
      "v": 100
    },
    {
      "midi": 60,
      "hit": false,
      "t": 134954.36049999986,
      "d": 337.1450833333656,
      "v": 61
    },
    {
      "midi": 55,
      "hit": false,
      "t": 135243.3419999999,
      "d": 439.4926979166921,
      "v": 81
    },
    {
      "midi": 55,
      "hit": false,
      "t": 135821.3049999999,
      "d": 933.1694270833395,
      "v": 95
    },
    {
      "midi": 59,
      "hit": false,
      "t": 135821.3049999999,
      "d": 945.2103229166823,
      "v": 85
    },
    {
      "midi": 43,
      "hit": false,
      "t": 135821.3049999999,
      "d": 1872.3593020833505,
      "v": 77
    },
    {
      "midi": 50,
      "hit": false,
      "t": 135821.3049999999,
      "d": 1878.3797500000219,
      "v": 81
    },
    {
      "midi": 55,
      "hit": false,
      "t": 136977.2309999999,
      "d": 403.3700104166637,
      "v": 95
    },
    {
      "midi": 62,
      "hit": false,
      "t": 136977.2309999999,
      "d": 1613.480041666684,
      "v": 90
    },
    {
      "midi": 59,
      "hit": false,
      "t": 137266.2124999999,
      "d": 276.9406041666807,
      "v": 50
    },
    {
      "midi": 55,
      "hit": false,
      "t": 137555.19399999993,
      "d": 186.6338854166679,
      "v": 77
    },
    {
      "midi": 43,
      "hit": false,
      "t": 137844.17549999992,
      "d": 96.3271666666551,
      "v": 68
    },
    {
      "midi": 50,
      "hit": false,
      "t": 137844.17549999992,
      "d": 150.5111979166686,
      "v": 71
    },
    {
      "midi": 55,
      "hit": false,
      "t": 137844.17549999992,
      "d": 216.7361249999958,
      "v": 42
    },
    {
      "midi": 55,
      "hit": false,
      "t": 138133.15699999992,
      "d": 367.2473229166644,
      "v": 68
    },
    {
      "midi": 43,
      "hit": false,
      "t": 138133.15699999992,
      "d": 1553.27556249997,
      "v": 85
    },
    {
      "midi": 50,
      "hit": false,
      "t": 138133.15699999992,
      "d": 1601.439145833283,
      "v": 81
    },
    {
      "midi": 55,
      "hit": false,
      "t": 138711.11999999994,
      "d": 421.4313541666488,
      "v": 95
    },
    {
      "midi": 59,
      "hit": false,
      "t": 139000.10149999993,
      "d": 192.6543333333102,
      "v": 81
    },
    {
      "midi": 55,
      "hit": false,
      "t": 139289.0829999999,
      "d": 421.4313541666488,
      "v": 95
    },
    {
      "midi": 62,
      "hit": false,
      "t": 139289.0829999999,
      "d": 1047.5579374999506,
      "v": 105
    },
    {
      "midi": 59,
      "hit": false,
      "t": 139578.0644999999,
      "d": 325.1041874999646,
      "v": 85
    },
    {
      "midi": 55,
      "hit": false,
      "t": 139867.04599999986,
      "d": 433.4722499999916,
      "v": 81
    },
    {
      "midi": 53,
      "hit": false,
      "t": 140445.00899999985,
      "d": 933.1694270833395,
      "v": 95
    },
    {
      "midi": 57,
      "hit": false,
      "t": 140445.00899999985,
      "d": 939.1898750000109,
      "v": 100
    },
    {
      "midi": 41,
      "hit": false,
      "t": 140445.00899999985,
      "d": 1450.9279479166726,
      "v": 77
    },
    {
      "midi": 48,
      "hit": false,
      "t": 140445.00899999985,
      "d": 1848.2775104166649,
      "v": 90
    },
    {
      "midi": 53,
      "hit": false,
      "t": 141600.93499999985,
      "d": 397.3495624999923,
      "v": 100
    },
    {
      "midi": 60,
      "hit": false,
      "t": 141600.93499999985,
      "d": 993.3739062499953,
      "v": 95
    },
    {
      "midi": 57,
      "hit": false,
      "t": 141889.91649999985,
      "d": 638.1674791666737,
      "v": 51
    },
    {
      "midi": 53,
      "hit": false,
      "t": 142178.89799999984,
      "d": 349.1859791666793,
      "v": 95
    },
    {
      "midi": 57,
      "hit": false,
      "t": 142756.86099999986,
      "d": 481.6358333333337,
      "v": 85
    },
    {
      "midi": 53,
      "hit": false,
      "t": 142756.86099999986,
      "d": 493.6767291666765,
      "v": 95
    },
    {
      "midi": 62,
      "hit": false,
      "t": 142756.86099999986,
      "d": 710.4128541666723,
      "v": 100
    },
    {
      "midi": 50,
      "hit": false,
      "t": 142756.86099999986,
      "d": 1306.4371979166754,
      "v": 68
    },
    {
      "midi": 57,
      "hit": false,
      "t": 143334.82399999988,
      "d": 493.6767291666474,
      "v": 59
    },
    {
      "midi": 53,
      "hit": false,
      "t": 143334.82399999988,
      "d": 722.453749999986,
      "v": 74
    },
    {
      "midi": 57,
      "hit": false,
      "t": 143912.78699999987,
      "d": 433.4722499999916,
      "v": 90
    },
    {
      "midi": 62,
      "hit": false,
      "t": 143912.78699999987,
      "d": 674.2901666666439,
      "v": 100
    },
    {
      "midi": 65,
      "hit": false,
      "t": 143912.78699999987,
      "d": 1053.5783854166511,
      "v": 105
    },
    {
      "midi": 57,
      "hit": false,
      "t": 144490.74999999985,
      "d": 385.3086666666495,
      "v": 74
    },
    {
      "midi": 60,
      "hit": false,
      "t": 145068.71299999984,
      "d": 656.2288229166588,
      "v": 90
    },
    {
      "midi": 57,
      "hit": false,
      "t": 145068.71299999984,
      "d": 975.3125624999811,
      "v": 74
    },
    {
      "midi": 52,
      "hit": false,
      "t": 145068.71299999984,
      "d": 2161.3408020832867,
      "v": 95
    },
    {
      "midi": 45,
      "hit": false,
      "t": 145068.71299999984,
      "d": 2167.361249999958,
      "v": 85
    },
    {
      "midi": 57,
      "hit": false,
      "t": 146224.63899999982,
      "d": 403.3700104166637,
      "v": 100
    },
    {
      "midi": 64,
      "hit": false,
      "t": 146224.63899999982,
      "d": 1017.4556979166518,
      "v": 109
    },
    {
      "midi": 60,
      "hit": false,
      "t": 146513.62049999982,
      "d": 439.492697916663,
      "v": 68
    },
    {
      "midi": 57,
      "hit": false,
      "t": 146802.6019999998,
      "d": 391.3291145833209,
      "v": 71
    },
    {
      "midi": 56,
      "hit": false,
      "t": 147380.5649999998,
      "d": 397.3495624999923,
      "v": 106
    },
    {
      "midi": 59,
      "hit": false,
      "t": 147380.5649999998,
      "d": 445.5131458333344,
      "v": 81
    },
    {
      "midi": 64,
      "hit": false,
      "t": 147380.5649999998,
      "d": 981.3330104166525,
      "v": 100
    },
    {
      "midi": 52,
      "hit": false,
      "t": 147380.5649999998,
      "d": 1878.3797499999928,
      "v": 81
    },
    {
      "midi": 59,
      "hit": false,
      "t": 147958.5279999998,
      "d": 469.5949374999909,
      "v": 50
    },
    {
      "midi": 56,
      "hit": false,
      "t": 147958.5279999998,
      "d": 1252.2531666666619,
      "v": 94
    },
    {
      "midi": 66,
      "hit": false,
      "t": 148536.49099999978,
      "d": 12.040895833342802,
      "v": 70
    },
    {
      "midi": 64,
      "hit": false,
      "t": 148536.49099999978,
      "d": 24.081791666685604,
      "v": 85
    },
    {
      "midi": 59,
      "hit": false,
      "t": 148536.49099999978,
      "d": 409.3904583333642,
      "v": 81
    },
    {
      "midi": 68,
      "hit": false,
      "t": 148536.49099999978,
      "d": 1023.4761458333523,
      "v": 106
    },
    {
      "midi": 64,
      "hit": false,
      "t": 148825.4724999998,
      "d": 728.4741979166574,
      "v": 55
    },
    {
      "midi": 59,
      "hit": false,
      "t": 149114.4539999998,
      "d": 433.4722499999916,
      "v": 68
    },
    {
      "midi": 60,
      "hit": false,
      "t": 149692.41699999978,
      "d": 614.0856874999881,
      "v": 105
    },
    {
      "midi": 55,
      "hit": false,
      "t": 149692.41699999978,
      "d": 1270.314510416676,
      "v": 100
    },
    {
      "midi": 48,
      "hit": false,
      "t": 149692.41699999978,
      "d": 1276.3349583333475,
      "v": 85
    },
    {
      "midi": 62,
      "hit": false,
      "t": 150270.37999999977,
      "d": 162.5520937500114,
      "v": 77
    },
    {
      "midi": 52,
      "hit": false,
      "t": 150270.37999999977,
      "d": 686.3310625000158,
      "v": 71
    },
    {
      "midi": 60,
      "hit": false,
      "t": 150559.3614999998,
      "d": 222.7565729166672,
      "v": 71
    },
    {
      "midi": 60,
      "hit": false,
      "t": 150848.3429999998,
      "d": 355.2064270833216,
      "v": 65
    },
    {
      "midi": 67,
      "hit": false,
      "t": 150848.3429999998,
      "d": 836.8422604166553,
      "v": 112
    },
    {
      "midi": 62,
      "hit": false,
      "t": 151137.32449999978,
      "d": 246.8383645833237,
      "v": 71
    },
    {
      "midi": 60,
      "hit": false,
      "t": 151426.30599999978,
      "d": 258.8792604166665,
      "v": 100
    },
    {
      "midi": 60,
      "hit": false,
      "t": 152004.26899999977,
      "d": 457.5540416666772,
      "v": 74
    },
    {
      "midi": 55,
      "hit": false,
      "t": 152004.26899999977,
      "d": 493.6767291666765,
      "v": 95
    },
    {
      "midi": 48,
      "hit": false,
      "t": 152004.26899999977,
      "d": 1553.275562499999,
      "v": 90
    },
    {
      "midi": 60,
      "hit": false,
      "t": 152582.23199999979,
      "d": 433.4722499999916,
      "v": 68
    },
    {
      "midi": 55,
      "hit": false,
      "t": 152582.23199999979,
      "d": 891.0262916666397,
      "v": 95
    },
    {
      "midi": 60,
      "hit": false,
      "t": 153160.19499999977,
      "d": 391.3291145833209,
      "v": 85
    },
    {
      "midi": 67,
      "hit": false,
      "t": 153160.19499999977,
      "d": 746.5355416666716,
      "v": 109
    },
    {
      "midi": 64,
      "hit": false,
      "t": 153449.17649999977,
      "d": 331.1246354166651,
      "v": 42
    },
    {
      "midi": 60,
      "hit": false,
      "t": 153738.15799999976,
      "d": 325.1041875000228,
      "v": 81
    },
    {
      "midi": 59,
      "hit": false,
      "t": 154316.12099999978,
      "d": 704.3924062500009,
      "v": 68
    },
    {
      "midi": 55,
      "hit": false,
      "t": 154316.12099999978,
      "d": 981.3330104166816,
      "v": 90
    },
    {
      "midi": 50,
      "hit": false,
      "t": 154316.12099999978,
      "d": 1836.236614583322,
      "v": 95
    },
    {
      "midi": 43,
      "hit": false,
      "t": 154316.12099999978,
      "d": 1878.3797499999928,
      "v": 81
    },
    {
      "midi": 59,
      "hit": false,
      "t": 155472.0469999998,
      "d": 30.1022395833279,
      "v": 77
    },
    {
      "midi": 55,
      "hit": false,
      "t": 155472.0469999998,
      "d": 391.3291145833209,
      "v": 68
    },
    {
      "midi": 62,
      "hit": false,
      "t": 155472.0469999998,
      "d": 939.1898749999818,
      "v": 90
    },
    {
      "midi": 59,
      "hit": false,
      "t": 155761.02849999978,
      "d": 319.0837395833223,
      "v": 43
    },
    {
      "midi": 55,
      "hit": false,
      "t": 156050.00999999978,
      "d": 391.3291145833209,
      "v": 90
    },
    {
      "midi": 59,
      "hit": false,
      "t": 156338.99149999977,
      "d": 150.5111979166686,
      "v": 22
    },
    {
      "midi": 50,
      "hit": false,
      "t": 156338.99149999977,
      "d": 192.6543333333393,
      "v": 77
    },
    {
      "midi": 50,
      "hit": false,
      "t": 156627.97299999977,
      "d": 192.6543333333393,
      "v": 59
    },
    {
      "midi": 43,
      "hit": false,
      "t": 156627.97299999977,
      "d": 270.9201562500093,
      "v": 74
    },
    {
      "midi": 55,
      "hit": false,
      "t": 156627.97299999977,
      "d": 313.06329166668,
      "v": 77
    },
    {
      "midi": 55,
      "hit": false,
      "t": 157205.93599999978,
      "d": 355.2064270833216,
      "v": 95
    },
    {
      "midi": 59,
      "hit": false,
      "t": 157205.93599999978,
      "d": 487.656281249976,
      "v": 105
    },
    {
      "midi": 62,
      "hit": false,
      "t": 157205.93599999978,
      "d": 692.3515104166581,
      "v": 109
    },
    {
      "midi": 43,
      "hit": false,
      "t": 157205.93599999978,
      "d": 1035.517041666637,
      "v": 71
    },
    {
      "midi": 50,
      "hit": false,
      "t": 157205.93599999978,
      "d": 1426.846156249987,
      "v": 71
    },
    {
      "midi": 55,
      "hit": false,
      "t": 157783.89899999977,
      "d": 421.4313541666488,
      "v": 95
    },
    {
      "midi": 59,
      "hit": false,
      "t": 158072.88049999977,
      "d": 409.3904583333351,
      "v": 85
    },
    {
      "midi": 62,
      "hit": false,
      "t": 158072.88049999977,
      "d": 758.5764375000144,
      "v": 77
    },
    {
      "midi": 55,
      "hit": false,
      "t": 158361.86199999976,
      "d": 222.7565729166672,
      "v": 74
    },
    {
      "midi": 60,
      "hit": false,
      "t": 158939.82499999978,
      "d": 975.3125625000102,
      "v": 90
    },
    {
      "midi": 57,
      "hit": false,
      "t": 158939.82499999978,
      "d": 981.3330104166816,
      "v": 95
    },
    {
      "midi": 41,
      "hit": false,
      "t": 158939.82499999978,
      "d": 1432.8666041666875,
      "v": 85
    },
    {
      "midi": 48,
      "hit": false,
      "t": 158939.82499999978,
      "d": 1926.543333333364,
      "v": 95
    },
    {
      "midi": 57,
      "hit": false,
      "t": 160095.7509999998,
      "d": 463.5744895833486,
      "v": 95
    },
    {
      "midi": 65,
      "hit": false,
      "t": 160095.7509999998,
      "d": 505.7176250000193,
      "v": 105
    },
    {
      "midi": 57,
      "hit": false,
      "t": 160673.7139999998,
      "d": 415.4109062500065,
      "v": 90
    },
    {
      "midi": 64,
      "hit": false,
      "t": 160673.7139999998,
      "d": 463.5744895833486,
      "v": 100
    },
    {
      "midi": 53,
      "hit": false,
      "t": 161251.67699999982,
      "d": 427.4518020833202,
      "v": 85
    },
    {
      "midi": 62,
      "hit": false,
      "t": 161251.67699999982,
      "d": 1023.4761458333232,
      "v": 95
    },
    {
      "midi": 50,
      "hit": false,
      "t": 161251.67699999982,
      "d": 1499.0915312499856,
      "v": 77
    },
    {
      "midi": 57,
      "hit": false,
      "t": 161829.6399999998,
      "d": 409.3904583333351,
      "v": 46
    },
    {
      "midi": 53,
      "hit": false,
      "t": 161829.6399999998,
      "d": 945.2103229166532,
      "v": 85
    },
    {
      "midi": 57,
      "hit": false,
      "t": 162407.6029999998,
      "d": 421.4313541666779,
      "v": 90
    },
    {
      "midi": 65,
      "hit": false,
      "t": 162407.6029999998,
      "d": 1029.4965937500237,
      "v": 95
    },
    {
      "midi": 62,
      "hit": false,
      "t": 162696.5844999998,
      "d": 301.0223958333663,
      "v": 33
    },
    {
      "midi": 57,
      "hit": false,
      "t": 162985.56599999982,
      "d": 421.4313541666779,
      "v": 77
    },
    {
      "midi": 62,
      "hit": false,
      "t": 163563.52899999983,
      "d": 927.1489791666681,
      "v": 105
    },
    {
      "midi": 60,
      "hit": false,
      "t": 163563.52899999983,
      "d": 939.1898750000109,
      "v": 100
    },
    {
      "midi": 55,
      "hit": false,
      "t": 163563.52899999983,
      "d": 1173.987343750021,
      "v": 100
    },
    {
      "midi": 43,
      "hit": false,
      "t": 163563.52899999983,
      "d": 1685.7254166666826,
      "v": 90
    },
    {
      "midi": 62,
      "hit": false,
      "t": 164719.45499999984,
      "d": 493.6767291666765,
      "v": 109
    },
    {
      "midi": 60,
      "hit": false,
      "t": 164719.45499999984,
      "d": 517.758520833333,
      "v": 105
    },
    {
      "midi": 55,
      "hit": false,
      "t": 165297.41799999986,
      "d": 451.5335937500058,
      "v": 100
    },
    {
      "midi": 60,
      "hit": false,
      "t": 165297.41799999986,
      "d": 475.6153854166623,
      "v": 61
    },
    {
      "midi": 62,
      "hit": false,
      "t": 165297.41799999986,
      "d": 505.7176249999902,
      "v": 63
    },
    {
      "midi": 50,
      "hit": false,
      "t": 165875.38099999985,
      "d": 343.1655312500079,
      "v": 81
    },
    {
      "midi": 55,
      "hit": false,
      "t": 165875.38099999985,
      "d": 391.32911458335,
      "v": 90
    },
    {
      "midi": 43,
      "hit": false,
      "t": 165875.38099999985,
      "d": 415.4109062500065,
      "v": 81
    },
    {
      "midi": 60,
      "hit": false,
      "t": 165875.38099999985,
      "d": 608.0652395833458,
      "v": 95
    },
    {
      "midi": 55,
      "hit": false,
      "t": 166453.34399999987,
      "d": 451.5335937500058,
      "v": 63
    },
    {
      "midi": 50,
      "hit": false,
      "t": 166453.34399999987,
      "d": 469.59493750002,
      "v": 71
    },
    {
      "midi": 43,
      "hit": false,
      "t": 166453.34399999987,
      "d": 547.86076041669,
      "v": 68
    },
    {
      "midi": 55,
      "hit": false,
      "t": 167031.30699999988,
      "d": 963.2716666666674,
      "v": 95
    },
    {
      "midi": 50,
      "hit": false,
      "t": 167031.30699999988,
      "d": 987.3534583333239,
      "v": 90
    },
    {
      "midi": 62,
      "hit": false,
      "t": 167031.30699999988,
      "d": 1023.4761458333232,
      "v": 105
    },
    {
      "midi": 43,
      "hit": false,
      "t": 167031.30699999988,
      "d": 1041.5374895833374,
      "v": 71
    },
    {
      "midi": 60,
      "hit": false,
      "t": 168187.2329999999,
      "d": 909.0876354166539,
      "v": 95
    },
    {
      "midi": 55,
      "hit": false,
      "t": 168187.2329999999,
      "d": 1041.5374895833083,
      "v": 95
    },
    {
      "midi": 48,
      "hit": false,
      "t": 168187.2329999999,
      "d": 1902.4615416666202,
      "v": 95
    },
    {
      "midi": 55,
      "hit": false,
      "t": 169343.15899999987,
      "d": 445.5131458333344,
      "v": 65
    },
    {
      "midi": 64,
      "hit": false,
      "t": 169343.15899999987,
      "d": 963.2716666666383,
      "v": 100
    },
    {
      "midi": 55,
      "hit": false,
      "t": 169921.12199999986,
      "d": 499.6971770833188,
      "v": 85
    },
    {
      "midi": 60,
      "hit": false,
      "t": 170210.10349999985,
      "d": 222.7565729166672,
      "v": 74
    },
    {
      "midi": 52,
      "hit": false,
      "t": 170499.08499999985,
      "d": 343.1655312500079,
      "v": 95
    },
    {
      "midi": 55,
      "hit": false,
      "t": 170499.08499999985,
      "d": 451.5335937500058,
      "v": 74
    },
    {
      "midi": 64,
      "hit": false,
      "t": 170499.08499999985,
      "d": 981.3330104167107,
      "v": 85
    },
    {
      "midi": 48,
      "hit": false,
      "t": 170499.08499999985,
      "d": 1770.011687500024,
      "v": 85
    },
    {
      "midi": 55,
      "hit": false,
      "t": 171077.04799999986,
      "d": 162.5520937500114,
      "v": 74
    },
    {
      "midi": 52,
      "hit": false,
      "t": 171077.04799999986,
      "d": 1228.1713750000054,
      "v": 81
    },
    {
      "midi": 60,
      "hit": false,
      "t": 171366.0294999999,
      "d": 90.3067187500128,
      "v": 38
    },
    {
      "midi": 55,
      "hit": false,
      "t": 171366.0294999999,
      "d": 180.6134374999965,
      "v": 59
    },
    {
      "midi": 55,
      "hit": false,
      "t": 171655.01099999988,
      "d": 204.695229166653,
      "v": 95
    },
    {
      "midi": 64,
      "hit": false,
      "t": 171655.01099999988,
      "d": 325.1041874999937,
      "v": 105
    },
    {
      "midi": 55,
      "hit": false,
      "t": 171943.99249999988,
      "d": 168.5725416666537,
      "v": 53
    },
    {
      "midi": 62,
      "hit": false,
      "t": 171943.99249999988,
      "d": 246.8383645833237,
      "v": 85
    },
    {
      "midi": 55,
      "hit": false,
      "t": 172232.97399999987,
      "d": 403.3700104166637,
      "v": 77
    },
    {
      "midi": 60,
      "hit": false,
      "t": 172232.97399999987,
      "d": 481.6358333333337,
      "v": 100
    },
    {
      "midi": 55,
      "hit": false,
      "t": 172810.93699999986,
      "d": 945.2103229166532,
      "v": 95
    },
    {
      "midi": 59,
      "hit": false,
      "t": 172810.93699999986,
      "d": 945.2103229166532,
      "v": 95
    },
    {
      "midi": 43,
      "hit": false,
      "t": 172810.93699999986,
      "d": 2089.095427083317,
      "v": 77
    },
    {
      "midi": 50,
      "hit": false,
      "t": 172810.93699999986,
      "d": 2149.299906249973,
      "v": 95
    },
    {
      "midi": 55,
      "hit": false,
      "t": 173966.86299999984,
      "d": 415.4109062500065,
      "v": 95
    },
    {
      "midi": 62,
      "hit": false,
      "t": 173966.86299999984,
      "d": 1035.517041666666,
      "v": 95
    },
    {
      "midi": 55,
      "hit": false,
      "t": 174544.82599999986,
      "d": 192.6543333333393,
      "v": 81
    },
    {
      "midi": 55,
      "hit": false,
      "t": 174833.80749999985,
      "d": 144.4907499999972,
      "v": 51
    },
    {
      "midi": 57,
      "hit": false,
      "t": 174833.80749999985,
      "d": 198.6747812499816,
      "v": 81
    },
    {
      "midi": 50,
      "hit": false,
      "t": 175122.78899999984,
      "d": 397.3495624999923,
      "v": 81
    },
    {
      "midi": 55,
      "hit": false,
      "t": 175122.78899999984,
      "d": 427.4518020833202,
      "v": 90
    },
    {
      "midi": 43,
      "hit": false,
      "t": 175122.78899999984,
      "d": 499.6971770833188,
      "v": 81
    },
    {
      "midi": 59,
      "hit": false,
      "t": 175122.78899999984,
      "d": 722.453749999986,
      "v": 90
    },
    {
      "midi": 62,
      "hit": false,
      "t": 175122.78899999984,
      "d": 927.148979166639,
      "v": 77
    },
    {
      "midi": 55,
      "hit": false,
      "t": 175700.75199999983,
      "d": 451.5335937500058,
      "v": 25
    },
    {
      "midi": 43,
      "hit": false,
      "t": 175700.75199999983,
      "d": 1095.7215208333218,
      "v": 71
    },
    {
      "midi": 50,
      "hit": false,
      "t": 175700.75199999983,
      "d": 1161.946447916649,
      "v": 77
    },
    {
      "midi": 59,
      "hit": false,
      "t": 175989.73349999983,
      "d": 72.2453749999986,
      "v": 11
    },
    {
      "midi": 55,
      "hit": false,
      "t": 176278.71499999985,
      "d": 313.0632916666509,
      "v": 95
    },
    {
      "midi": 59,
      "hit": false,
      "t": 176278.71499999985,
      "d": 349.1859791666502,
      "v": 95
    },
    {
      "midi": 62,
      "hit": false,
      "t": 176278.71499999985,
      "d": 1095.7215208333218,
      "v": 90
    },
    {
      "midi": 57,
      "hit": false,
      "t": 176567.69649999985,
      "d": 337.1450833333074,
      "v": 90
    },
    {
      "midi": 55,
      "hit": false,
      "t": 176856.6779999998,
      "d": 427.4518020833493,
      "v": 85
    },
    {
      "midi": 53,
      "hit": false,
      "t": 177434.64099999983,
      "d": 903.0671875000116,
      "v": 95
    },
    {
      "midi": 57,
      "hit": false,
      "t": 177434.64099999983,
      "d": 921.1285312500258,
      "v": 85
    },
    {
      "midi": 41,
      "hit": false,
      "t": 177434.64099999983,
      "d": 1643.58228125007,
      "v": 85
    },
    {
      "midi": 48,
      "hit": false,
      "t": 177434.64099999983,
      "d": 1733.889000000083,
      "v": 100
    },
    {
      "midi": 53,
      "hit": false,
      "t": 178590.56699999986,
      "d": 385.3086666666786,
      "v": 100
    },
    {
      "midi": 57,
      "hit": false,
      "t": 178590.56699999986,
      "d": 469.59493750002,
      "v": 100
    },
    {
      "midi": 40,
      "hit": false,
      "t": 179168.5299999999,
      "d": 282.961052083323,
      "v": 68
    },
    {
      "midi": 52,
      "hit": false,
      "t": 179168.5299999999,
      "d": 439.492697916663,
      "v": 90
    },
    {
      "midi": 55,
      "hit": false,
      "t": 179168.5299999999,
      "d": 511.7380729166616,
      "v": 100
    },
    {
      "midi": 50,
      "hit": false,
      "t": 179746.4929999999,
      "d": 993.3739062499953,
      "v": 90
    },
    {
      "midi": 53,
      "hit": false,
      "t": 179746.4929999999,
      "d": 993.3739062499953,
      "v": 100
    },
    {
      "midi": 38,
      "hit": false,
      "t": 179746.4929999999,
      "d": 1396.743916666659,
      "v": 55
    },
    {
      "midi": 50,
      "hit": false,
      "t": 180902.4189999999,
      "d": 397.3495624999923,
      "v": 100
    },
    {
      "midi": 57,
      "hit": false,
      "t": 180902.4189999999,
      "d": 975.3125625000102,
      "v": 109
    },
    {
      "midi": 53,
      "hit": false,
      "t": 181191.4004999999,
      "d": 632.1470312500023,
      "v": 59
    },
    {
      "midi": 50,
      "hit": false,
      "t": 181480.3819999999,
      "d": 270.9201562500093,
      "v": 59
    },
    {
      "midi": 46,
      "hit": false,
      "t": 182058.3449999999,
      "d": 96.3271666666551,
      "v": 29
    },
    {
      "midi": 57,
      "hit": false,
      "t": 182058.3449999999,
      "d": 457.5540416666481,
      "v": 95
    },
    {
      "midi": 60,
      "hit": false,
      "t": 182058.3449999999,
      "d": 1005.414802083309,
      "v": 100
    },
    {
      "midi": 52,
      "hit": false,
      "t": 182058.3449999999,
      "d": 1017.4556979166518,
      "v": 57
    },
    {
      "midi": 45,
      "hit": false,
      "t": 182058.3449999999,
      "d": 1035.517041666666,
      "v": 77
    },
    {
      "midi": 57,
      "hit": false,
      "t": 182636.3079999999,
      "d": 439.492697916663,
      "v": 59
    },
    {
      "midi": 57,
      "hit": false,
      "t": 183214.27099999992,
      "d": 421.4313541666488,
      "v": 95
    },
    {
      "midi": 52,
      "hit": false,
      "t": 183214.27099999992,
      "d": 788.6786770833132,
      "v": 77
    },
    {
      "midi": 45,
      "hit": false,
      "t": 183214.27099999992,
      "d": 963.2716666666383,
      "v": 77
    },
    {
      "midi": 64,
      "hit": false,
      "t": 183214.27099999992,
      "d": 1059.5988333332934,
      "v": 105
    },
    {
      "midi": 60,
      "hit": false,
      "t": 183503.25249999992,
      "d": 325.1041874999937,
      "v": 71
    },
    {
      "midi": 57,
      "hit": false,
      "t": 183792.2339999999,
      "d": 379.2882187499781,
      "v": 85
    },
    {
      "midi": 55,
      "hit": false,
      "t": 184370.19699999987,
      "d": 481.6358333333337,
      "v": 90
    },
    {
      "midi": 50,
      "hit": false,
      "t": 184370.19699999987,
      "d": 487.6562812500051,
      "v": 81
    },
    {
      "midi": 59,
      "hit": false,
      "t": 184370.19699999987,
      "d": 704.39240625003,
      "v": 85
    },
    {
      "midi": 43,
      "hit": false,
      "t": 184370.19699999987,
      "d": 2167.3612500000454,
      "v": 81
    },
    {
      "midi": 55,
      "hit": false,
      "t": 184948.1599999999,
      "d": 415.4109062500065,
      "v": 42
    },
    {
      "midi": 50,
      "hit": false,
      "t": 184948.1599999999,
      "d": 1505.111979166686,
      "v": 77
    },
    {
      "midi": 59,
      "hit": false,
      "t": 185526.1229999999,
      "d": 349.1859791666502,
      "v": 105
    },
    {
      "midi": 55,
      "hit": false,
      "t": 185526.1229999999,
      "d": 361.226874999993,
      "v": 95
    },
    {
      "midi": 57,
      "hit": false,
      "t": 185815.1044999999,
      "d": 301.0223958333372,
      "v": 85
    },
    {
      "midi": 55,
      "hit": false,
      "t": 186104.0859999999,
      "d": 385.3086666666786,
      "v": 77
    },
    {
      "midi": 55,
      "hit": false,
      "t": 186682.0489999999,
      "d": 1210.1100312500203,
      "v": 90
    },
    {
      "midi": 60,
      "hit": false,
      "t": 186682.0489999999,
      "d": 1264.2940625000338,
      "v": 95
    },
    {
      "midi": 48,
      "hit": false,
      "t": 186682.0489999999,
      "d": 1962.6660208333633,
      "v": 90
    },
    {
      "midi": 52,
      "hit": false,
      "t": 187837.97499999992,
      "d": 662.2492708333593,
      "v": 95
    },
    {
      "midi": 55,
      "hit": false,
      "t": 188126.95649999994,
      "d": 246.8383645833237,
      "v": 81
    },
    {
      "midi": 55,
      "hit": false,
      "t": 188415.93799999994,
      "d": 301.0223958333372,
      "v": 20
    },
    {
      "midi": 60,
      "hit": false,
      "t": 188415.93799999994,
      "d": 337.1450833333365,
      "v": 71
    },
    {
      "midi": 64,
      "hit": false,
      "t": 188704.91949999993,
      "d": 126.42940625001211,
      "v": 59
    },
    {
      "midi": 57,
      "hit": false,
      "t": 188993.90099999995,
      "d": 680.3106145833444,
      "v": 100
    },
    {
      "midi": 65,
      "hit": false,
      "t": 188993.90099999995,
      "d": 764.5968854166858,
      "v": 109
    },
    {
      "midi": 53,
      "hit": false,
      "t": 188993.90099999995,
      "d": 770.6173333333572,
      "v": 100
    },
    {
      "midi": 55,
      "hit": false,
      "t": 189860.84549999997,
      "d": 680.3106145833444,
      "v": 95
    },
    {
      "midi": 64,
      "hit": false,
      "t": 189860.84549999997,
      "d": 770.6173333333572,
      "v": 100
    },
    {
      "midi": 52,
      "hit": false,
      "t": 189860.84549999997,
      "d": 800.7195729166851,
      "v": 85
    },
    {
      "midi": 53,
      "hit": false,
      "t": 190727.78999999998,
      "d": 337.1450833333365,
      "v": 95
    },
    {
      "midi": 50,
      "hit": false,
      "t": 190727.78999999998,
      "d": 409.3904583333351,
      "v": 81
    },
    {
      "midi": 62,
      "hit": false,
      "t": 190727.78999999998,
      "d": 409.3904583333351,
      "v": 85
    },
    {
      "midi": 60,
      "hit": false,
      "t": 191305.75299999997,
      "d": 848.8831562499981,
      "v": 105
    },
    {
      "midi": 55,
      "hit": false,
      "t": 191305.75299999997,
      "d": 987.3534583333239,
      "v": 90
    },
    {
      "midi": 48,
      "hit": false,
      "t": 191305.75299999997,
      "d": 1216.1304791666334,
      "v": 74
    },
    {
      "midi": 52,
      "hit": false,
      "t": 191305.75299999997,
      "d": 1342.5598854166456,
      "v": 77
    },
    {
      "midi": 55,
      "hit": false,
      "t": 192461.67899999995,
      "d": 72.2453749999986,
      "v": 71
    },
    {
      "midi": 60,
      "hit": false,
      "t": 192461.67899999995,
      "d": 547.8607604166609,
      "v": 100
    },
    {
      "midi": 64,
      "hit": false,
      "t": 192461.67899999995,
      "d": 680.3106145833153,
      "v": 100
    },
    {
      "midi": 60,
      "hit": false,
      "t": 193039.64199999993,
      "d": 379.2882187500072,
      "v": 31
    },
    {
      "midi": 55,
      "hit": false,
      "t": 193039.64199999993,
      "d": 499.6971770833479,
      "v": 81
    },
    {
      "midi": 48,
      "hit": false,
      "t": 193039.64199999993,
      "d": 2438.2814062499674,
      "v": 85
    },
    {
      "midi": 53,
      "hit": false,
      "t": 193617.60499999995,
      "d": 343.1655312500079,
      "v": 95
    },
    {
      "midi": 55,
      "hit": false,
      "t": 193617.60499999995,
      "d": 367.2473229166644,
      "v": 55
    },
    {
      "midi": 60,
      "hit": false,
      "t": 193617.60499999995,
      "d": 608.0652395833167,
      "v": 85
    },
    {
      "midi": 65,
      "hit": false,
      "t": 193617.60499999995,
      "d": 632.1470312499732,
      "v": 90
    },
    {
      "midi": 53,
      "hit": false,
      "t": 194195.56799999994,
      "d": 1186.0282395833055,
      "v": 95
    },
    {
      "midi": 60,
      "hit": false,
      "t": 194773.53099999993,
      "d": 1005.414802083309,
      "v": 109
    },
    {
      "midi": 65,
      "hit": false,
      "t": 194773.53099999993,
      "d": 1065.6192812499648,
      "v": 105
    },
    {
      "midi": 55,
      "hit": false,
      "t": 195351.49399999992,
      "d": 463.5744895833195,
      "v": 77
    },
    {
      "midi": 60,
      "hit": false,
      "t": 195929.4569999999,
      "d": 770.6173333333281,
      "v": 81
    },
    {
      "midi": 55,
      "hit": false,
      "t": 195929.4569999999,
      "d": 963.2716666666674,
      "v": 77
    },
    {
      "midi": 52,
      "hit": false,
      "t": 195929.4569999999,
      "d": 2034.9113958333037,
      "v": 95
    },
    {
      "midi": 48,
      "hit": false,
      "t": 195929.4569999999,
      "d": 4250.436229166604,
      "v": 85
    },
    {
      "midi": 64,
      "hit": false,
      "t": 197085.3829999999,
      "d": 313.0632916666509,
      "v": 100
    },
    {
      "midi": 60,
      "hit": false,
      "t": 197085.3829999999,
      "d": 337.1450833333074,
      "v": 100
    },
    {
      "midi": 55,
      "hit": false,
      "t": 197374.3644999999,
      "d": 632.1470312499732,
      "v": 77
    },
    {
      "midi": 60,
      "hit": false,
      "t": 197663.34599999987,
      "d": 361.2268750000221,
      "v": 85
    },
    {
      "midi": 64,
      "hit": false,
      "t": 197952.32749999987,
      "d": 216.7361250000249,
      "v": 77
    },
    {
      "midi": 53,
      "hit": false,
      "t": 198241.3089999999,
      "d": 409.3904583333351,
      "v": 95
    },
    {
      "midi": 65,
      "hit": false,
      "t": 198241.3089999999,
      "d": 764.5968854166567,
      "v": 105
    },
    {
      "midi": 60,
      "hit": false,
      "t": 198241.3089999999,
      "d": 776.6377812499995,
      "v": 105
    },
    {
      "midi": 55,
      "hit": false,
      "t": 198241.3089999999,
      "d": 1047.5579375000088,
      "v": 95
    },
    {
      "midi": 53,
      "hit": false,
      "t": 198819.27199999988,
      "d": 1258.2736145833042,
      "v": 90
    },
    {
      "midi": 60,
      "hit": false,
      "t": 199397.2349999999,
      "d": 150.5111979166686,
      "v": 95
    },
    {
      "midi": 65,
      "hit": false,
      "t": 199397.2349999999,
      "d": 313.0632916666509,
      "v": 109
    },
    {
      "midi": 55,
      "hit": false,
      "t": 199397.2349999999,
      "d": 1059.5988333332643,
      "v": 53
    },
    {
      "midi": 64,
      "hit": false,
      "t": 199686.2164999999,
      "d": 228.7770208333095,
      "v": 74
    },
    {
      "midi": 62,
      "hit": false,
      "t": 199975.19799999986,
      "d": 451.5335937499767,
      "v": 90
    },
    {
      "midi": 64,
      "hit": false,
      "t": 200553.16099999982,
      "d": 764.5968854166567,
      "v": 90
    },
    {
      "midi": 60,
      "hit": false,
      "t": 200553.16099999982,
      "d": 945.2103229166532,
      "v": 95
    },
    {
      "midi": 55,
      "hit": false,
      "t": 200553.16099999982,
      "d": 999.3943541666667,
      "v": 71
    },
    {
      "midi": 48,
      "hit": false,
      "t": 200553.16099999982,
      "d": 2167.3612500000163,
      "v": 90
    },
    {
      "midi": 52,
      "hit": false,
      "t": 201131.1239999998,
      "d": 927.1489791666972,
      "v": 77
    },
    {
      "midi": 55,
      "hit": false,
      "t": 201709.08699999982,
      "d": 331.1246354166651,
      "v": 81
    },
    {
      "midi": 64,
      "hit": false,
      "t": 201709.08699999982,
      "d": 1017.455697916681,
      "v": 105
    },
    {
      "midi": 60,
      "hit": false,
      "t": 201998.06849999982,
      "d": 656.2288229166879,
      "v": 65
    },
    {
      "midi": 52,
      "hit": false,
      "t": 202287.04999999984,
      "d": 258.8792604166665,
      "v": 81
    },
    {
      "midi": 55,
      "hit": false,
      "t": 202287.04999999984,
      "d": 337.1450833333365,
      "v": 71
    },
    {
      "midi": 53,
      "hit": false,
      "t": 202865.01299999983,
      "d": 409.3904583333351,
      "v": 100
    },
    {
      "midi": 60,
      "hit": false,
      "t": 202865.01299999983,
      "d": 945.2103229166532,
      "v": 90
    },
    {
      "midi": 57,
      "hit": false,
      "t": 202865.01299999983,
      "d": 999.3943541666667,
      "v": 95
    },
    {
      "midi": 48,
      "hit": false,
      "t": 202865.01299999983,
      "d": 1842.2570624999935,
      "v": 90
    },
    {
      "midi": 53,
      "hit": false,
      "t": 203442.97599999982,
      "d": 909.087635416683,
      "v": 85
    },
    {
      "midi": 57,
      "hit": false,
      "t": 204020.93899999984,
      "d": 42.1431354166707,
      "v": 71
    },
    {
      "midi": 60,
      "hit": false,
      "t": 204020.93899999984,
      "d": 686.3310624999867,
      "v": 105
    },
    {
      "midi": 65,
      "hit": false,
      "t": 204020.93899999984,
      "d": 1071.6397291666653,
      "v": 95
    },
    {
      "midi": 57,
      "hit": false,
      "t": 204598.90199999983,
      "d": 379.2882187500072,
      "v": 81
    },
    {
      "midi": 59,
      "hit": false,
      "t": 205176.86499999985,
      "d": 921.1285312499967,
      "v": 74
    },
    {
      "midi": 55,
      "hit": false,
      "t": 205176.86499999985,
      "d": 999.3943541666667,
      "v": 90
    },
    {
      "midi": 43,
      "hit": false,
      "t": 205176.86499999985,
      "d": 1872.3593020833505,
      "v": 85
    },
    {
      "midi": 50,
      "hit": false,
      "t": 205176.86499999985,
      "d": 2125.2181145833456,
      "v": 100
    },
    {
      "midi": 55,
      "hit": false,
      "t": 206332.79099999985,
      "d": 313.06329166668,
      "v": 65
    },
    {
      "midi": 59,
      "hit": false,
      "t": 206332.79099999985,
      "d": 710.4128541666723,
      "v": 100
    },
    {
      "midi": 62,
      "hit": false,
      "t": 206332.79099999985,
      "d": 1053.5783854166802,
      "v": 109
    },
    {
      "midi": 55,
      "hit": false,
      "t": 206910.75399999987,
      "d": 421.4313541666488,
      "v": 68
    },
    {
      "midi": 55,
      "hit": false,
      "t": 207488.71699999986,
      "d": 457.5540416666772,
      "v": 95
    },
    {
      "midi": 60,
      "hit": false,
      "t": 207488.71699999986,
      "d": 626.12658333336,
      "v": 95
    },
    {
      "midi": 45,
      "hit": false,
      "t": 207488.71699999986,
      "d": 764.5968854166858,
      "v": 90
    },
    {
      "midi": 62,
      "hit": false,
      "t": 207488.71699999986,
      "d": 776.6377812500286,
      "v": 90
    },
    {
      "midi": 50,
      "hit": false,
      "t": 207488.71699999986,
      "d": 969.292114583368,
      "v": 68
    },
    {
      "midi": 55,
      "hit": false,
      "t": 208066.67999999988,
      "d": 403.3700104166928,
      "v": 61
    },
    {
      "midi": 62,
      "hit": false,
      "t": 208355.6614999999,
      "d": 108.3680624999979,
      "v": 1
    },
    {
      "midi": 55,
      "hit": false,
      "t": 208644.6429999999,
      "d": 385.3086666666786,
      "v": 90
    },
    {
      "midi": 47,
      "hit": false,
      "t": 208644.6429999999,
      "d": 475.6153854166914,
      "v": 81
    },
    {
      "midi": 59,
      "hit": false,
      "t": 208644.6429999999,
      "d": 559.9016562500328,
      "v": 105
    },
    {
      "midi": 62,
      "hit": false,
      "t": 208644.6429999999,
      "d": 1095.72152083338,
      "v": 105
    },
    {
      "midi": 55,
      "hit": false,
      "t": 209222.60599999994,
      "d": 385.3086666666786,
      "v": 53
    },
    {
      "midi": 60,
      "hit": false,
      "t": 209800.56899999993,
      "d": 680.3106145833444,
      "v": 85
    },
    {
      "midi": 55,
      "hit": false,
      "t": 209800.56899999993,
      "d": 969.2921145833388,
      "v": 95
    },
    {
      "midi": 52,
      "hit": false,
      "t": 209800.56899999993,
      "d": 1324.4985416666605,
      "v": 85
    },
    {
      "midi": 48,
      "hit": false,
      "t": 209800.56899999993,
      "d": 2251.6475208333577,
      "v": 81
    },
    {
      "midi": 64,
      "hit": false,
      "t": 210956.49499999994,
      "d": 391.3291145833209,
      "v": 95
    },
    {
      "midi": 60,
      "hit": false,
      "t": 210956.49499999994,
      "d": 397.3495624999923,
      "v": 95
    },
    {
      "midi": 55,
      "hit": false,
      "t": 210956.49499999994,
      "d": 722.453749999986,
      "v": 63
    },
    {
      "midi": 60,
      "hit": false,
      "t": 211534.45799999993,
      "d": 343.1655312500079,
      "v": 85
    },
    {
      "midi": 52,
      "hit": false,
      "t": 211534.45799999993,
      "d": 355.2064270833507,
      "v": 71
    },
    {
      "midi": 64,
      "hit": false,
      "t": 211534.45799999993,
      "d": 361.2268750000221,
      "v": 90
    },
    {
      "midi": 55,
      "hit": false,
      "t": 211823.43949999992,
      "d": 216.7361250000249,
      "v": 63
    },
    {
      "midi": 53,
      "hit": false,
      "t": 212112.42099999994,
      "d": 397.3495624999923,
      "v": 90
    },
    {
      "midi": 60,
      "hit": false,
      "t": 212112.42099999994,
      "d": 710.4128541666432,
      "v": 90
    },
    {
      "midi": 65,
      "hit": false,
      "t": 212112.42099999994,
      "d": 764.5968854166567,
      "v": 85
    },
    {
      "midi": 55,
      "hit": false,
      "t": 212112.42099999994,
      "d": 1041.5374895833374,
      "v": 90
    },
    {
      "midi": 48,
      "hit": false,
      "t": 212112.42099999994,
      "d": 1770.0116874999949,
      "v": 21
    },
    {
      "midi": 53,
      "hit": false,
      "t": 212690.38399999993,
      "d": 1131.8442083333503,
      "v": 90
    },
    {
      "midi": 55,
      "hit": false,
      "t": 213268.34699999995,
      "d": 421.4313541666779,
      "v": 71
    },
    {
      "midi": 60,
      "hit": false,
      "t": 213268.34699999995,
      "d": 740.5150937500002,
      "v": 105
    },
    {
      "midi": 65,
      "hit": false,
      "t": 213268.34699999995,
      "d": 1023.4761458333523,
      "v": 105
    },
    {
      "midi": 55,
      "hit": false,
      "t": 213846.30999999994,
      "d": 397.3495625000214,
      "v": 68
    },
    {
      "midi": 60,
      "hit": false,
      "t": 214424.27299999996,
      "d": 836.8422604166553,
      "v": 95
    },
    {
      "midi": 55,
      "hit": false,
      "t": 214424.27299999996,
      "d": 1005.414802083309,
      "v": 100
    },
    {
      "midi": 52,
      "hit": false,
      "t": 214424.27299999996,
      "d": 1438.8870520833007,
      "v": 95
    },
    {
      "midi": 48,
      "hit": false,
      "t": 214424.27299999996,
      "d": 1565.3164583332837,
      "v": 85
    },
    {
      "midi": 55,
      "hit": false,
      "t": 215580.19899999994,
      "d": 349.1859791666502,
      "v": 57
    },
    {
      "midi": 64,
      "hit": false,
      "t": 215580.19899999994,
      "d": 571.9425520833174,
      "v": 90
    },
    {
      "midi": 60,
      "hit": false,
      "t": 215580.19899999994,
      "d": 788.6786770833132,
      "v": 95
    },
    {
      "midi": 48,
      "hit": false,
      "t": 216158.16199999992,
      "d": 144.4907499999972,
      "v": 41
    },
    {
      "midi": 55,
      "hit": false,
      "t": 216158.16199999992,
      "d": 469.5949374999909,
      "v": 85
    },
    {
      "midi": 48,
      "hit": false,
      "t": 216447.14349999992,
      "d": 96.3271666666551,
      "v": 74
    },
    {
      "midi": 52,
      "hit": false,
      "t": 216447.14349999992,
      "d": 204.695229166653,
      "v": 77
    },
    {
      "midi": 55,
      "hit": false,
      "t": 216736.1249999999,
      "d": 421.4313541666779,
      "v": 59
    },
    {
      "midi": 60,
      "hit": false,
      "t": 216736.1249999999,
      "d": 740.5150937500293,
      "v": 85
    },
    {
      "midi": 64,
      "hit": false,
      "t": 216736.1249999999,
      "d": 830.8218125000421,
      "v": 74
    },
    {
      "midi": 48,
      "hit": false,
      "t": 216736.1249999999,
      "d": 1763.9912395833817,
      "v": 90
    },
    {
      "midi": 55,
      "hit": false,
      "t": 217314.08799999993,
      "d": 523.7789687500335,
      "v": 61
    },
    {
      "midi": 52,
      "hit": false,
      "t": 217314.08799999993,
      "d": 1149.9055520833645,
      "v": 95
    },
    {
      "midi": 55,
      "hit": false,
      "t": 217892.05099999998,
      "d": 367.2473229166644,
      "v": 74
    },
    {
      "midi": 64,
      "hit": false,
      "t": 217892.05099999998,
      "d": 614.0856874999881,
      "v": 95
    },
    {
      "midi": 60,
      "hit": false,
      "t": 217892.05099999998,
      "d": 644.187927083316,
      "v": 90
    },
    {
      "midi": 55,
      "hit": false,
      "t": 218470.01399999997,
      "d": 481.6358333333337,
      "v": 77
    },
    {
      "midi": 60,
      "hit": false,
      "t": 219047.97699999996,
      "d": 951.2307708333246,
      "v": 90
    },
    {
      "midi": 55,
      "hit": false,
      "t": 219047.97699999996,
      "d": 1011.4352499999804,
      "v": 77
    },
    {
      "midi": 48,
      "hit": false,
      "t": 219047.97699999996,
      "d": 1872.3593020832923,
      "v": 90
    },
    {
      "midi": 52,
      "hit": false,
      "t": 219625.93999999994,
      "d": 1264.2940624999756,
      "v": 63
    },
    {
      "midi": 55,
      "hit": false,
      "t": 220203.90299999993,
      "d": 349.1859791666502,
      "v": 74
    },
    {
      "midi": 64,
      "hit": false,
      "t": 220203.90299999993,
      "d": 1077.6601770833076,
      "v": 100
    },
    {
      "midi": 60,
      "hit": false,
      "t": 220492.88449999993,
      "d": 252.8588124999951,
      "v": 85
    },
    {
      "midi": 60,
      "hit": false,
      "t": 220781.86599999992,
      "d": 114.3885104166693,
      "v": 31
    },
    {
      "midi": 55,
      "hit": false,
      "t": 220781.86599999992,
      "d": 349.1859791666502,
      "v": 95
    },
    {
      "midi": 57,
      "hit": false,
      "t": 221359.8289999999,
      "d": 445.5131458333344,
      "v": 90
    },
    {
      "midi": 60,
      "hit": false,
      "t": 221359.8289999999,
      "d": 644.187927083316,
      "v": 95
    },
    {
      "midi": 53,
      "hit": false,
      "t": 221359.8289999999,
      "d": 1318.478093749989,
      "v": 95
    },
    {
      "midi": 48,
      "hit": false,
      "t": 221359.8289999999,
      "d": 1631.541385416669,
      "v": 90
    },
    {
      "midi": 57,
      "hit": false,
      "t": 221937.7919999999,
      "d": 481.6358333333337,
      "v": 68
    },
    {
      "midi": 57,
      "hit": false,
      "t": 222515.7549999999,
      "d": 319.0837395833514,
      "v": 85
    },
    {
      "midi": 60,
      "hit": false,
      "t": 222515.7549999999,
      "d": 596.0243437500321,
      "v": 100
    },
    {
      "midi": 65,
      "hit": false,
      "t": 222515.7549999999,
      "d": 1017.45569791671,
      "v": 95
    },
    {
      "midi": 57,
      "hit": false,
      "t": 223093.7179999999,
      "d": 427.4518020833493,
      "v": 90
    },
    {
      "midi": 59,
      "hit": false,
      "t": 223671.68099999992,
      "d": 824.8013645833416,
      "v": 85
    },
    {
      "midi": 55,
      "hit": false,
      "t": 223671.68099999992,
      "d": 957.251218749996,
      "v": 95
    },
    {
      "midi": 43,
      "hit": false,
      "t": 223671.68099999992,
      "d": 2071.034083333332,
      "v": 77
    },
    {
      "midi": 50,
      "hit": false,
      "t": 223671.68099999992,
      "d": 2167.3612500000163,
      "v": 90
    },
    {
      "midi": 55,
      "hit": false,
      "t": 224827.60699999993,
      "d": 397.3495624999923,
      "v": 74
    },
    {
      "midi": 59,
      "hit": false,
      "t": 224827.60699999993,
      "d": 698.3719583333295,
      "v": 90
    },
    {
      "midi": 62,
      "hit": false,
      "t": 224827.60699999993,
      "d": 1053.5783854166802,
      "v": 95
    },
    {
      "midi": 55,
      "hit": false,
      "t": 225405.56999999992,
      "d": 415.4109062500065,
      "v": 81
    },
    {
      "midi": 60,
      "hit": false,
      "t": 225983.53299999994,
      "d": 770.6173333333281,
      "v": 90
    },
    {
      "midi": 55,
      "hit": false,
      "t": 225983.53299999994,
      "d": 981.3330104166525,
      "v": 95
    },
    {
      "midi": 45,
      "hit": false,
      "t": 225983.53299999994,
      "d": 1005.414802083309,
      "v": 90
    },
    {
      "midi": 50,
      "hit": false,
      "t": 225983.53299999994,
      "d": 1029.4965937499655,
      "v": 65
    },
    {
      "midi": 62,
      "hit": false,
      "t": 225983.53299999994,
      "d": 1035.517041666637,
      "v": 90
    },
    {
      "midi": 55,
      "hit": false,
      "t": 227139.45899999992,
      "d": 475.6153854166623,
      "v": 95
    },
    {
      "midi": 59,
      "hit": false,
      "t": 227139.45899999992,
      "d": 559.9016562500037,
      "v": 95
    },
    {
      "midi": 47,
      "hit": false,
      "t": 227139.45899999992,
      "d": 632.1470312500314,
      "v": 85
    },
    {
      "midi": 50,
      "hit": false,
      "t": 227139.45899999992,
      "d": 680.3106145833735,
      "v": 65
    },
    {
      "midi": 62,
      "hit": false,
      "t": 227139.45899999992,
      "d": 1059.5988333333808,
      "v": 95
    },
    {
      "midi": 55,
      "hit": false,
      "t": 227717.42199999993,
      "d": 415.4109062500356,
      "v": 29
    },
    {
      "midi": 60,
      "hit": false,
      "t": 228295.38499999995,
      "d": 866.9444999999832,
      "v": 90
    },
    {
      "midi": 55,
      "hit": false,
      "t": 228295.38499999995,
      "d": 1029.4965937499946,
      "v": 85
    },
    {
      "midi": 48,
      "hit": false,
      "t": 228295.38499999995,
      "d": 1932.5637812500063,
      "v": 85
    },
    {
      "midi": 52,
      "hit": false,
      "t": 228873.34799999994,
      "d": 1294.3963020833326,
      "v": 61
    },
    {
      "midi": 55,
      "hit": false,
      "t": 229451.31099999996,
      "d": 409.3904583333351,
      "v": 68
    },
    {
      "midi": 64,
      "hit": false,
      "t": 229451.31099999996,
      "d": 1011.4352500000095,
      "v": 109
    },
    {
      "midi": 60,
      "hit": false,
      "t": 229740.29249999995,
      "d": 313.0632916666509,
      "v": 77
    },
    {
      "midi": 55,
      "hit": false,
      "t": 230029.27399999995,
      "d": 186.6338854166679,
      "v": 90
    },
    {
      "midi": 52,
      "hit": false,
      "t": 230318.25549999997,
      "d": 132.4498541666544,
      "v": 68
    },
    {
      "midi": 48,
      "hit": false,
      "t": 230318.25549999997,
      "d": 144.4907499999972,
      "v": 77
    },
    {
      "midi": 55,
      "hit": false,
      "t": 230318.25549999997,
      "d": 150.5111979166686,
      "v": 44
    },
    {
      "midi": 60,
      "hit": false,
      "t": 230318.25549999997,
      "d": 174.5929895833251,
      "v": 68
    },
    {
      "midi": 60,
      "hit": false,
      "t": 230607.23699999996,
      "d": 78.26582291667,
      "v": 71
    },
    {
      "midi": 55,
      "hit": false,
      "t": 230607.23699999996,
      "d": 343.1655312500079,
      "v": 85
    },
    {
      "midi": 48,
      "hit": false,
      "t": 230607.23699999996,
      "d": 1264.2940625000047,
      "v": 90
    },
    {
      "midi": 52,
      "hit": false,
      "t": 230607.23699999996,
      "d": 2089.095427083317,
      "v": 77
    },
    {
      "midi": 60,
      "hit": false,
      "t": 230896.21849999996,
      "d": 156.53164583334,
      "v": 68
    },
    {
      "midi": 55,
      "hit": false,
      "t": 231185.19999999995,
      "d": 415.4109062500065,
      "v": 100
    },
    {
      "midi": 60,
      "hit": false,
      "t": 231474.18149999995,
      "d": 168.5725416666828,
      "v": 74
    },
    {
      "midi": 55,
      "hit": false,
      "t": 231763.16299999997,
      "d": 337.1450833333365,
      "v": 95
    },
    {
      "midi": 64,
      "hit": false,
      "t": 231763.16299999997,
      "d": 680.3106145833153,
      "v": 105
    },
    {
      "midi": 60,
      "hit": false,
      "t": 232052.14449999997,
      "d": 361.226874999993,
      "v": 68
    },
    {
      "midi": 55,
      "hit": false,
      "t": 232341.12599999996,
      "d": 114.3885104166693,
      "v": 44
    },
    {
      "midi": 64,
      "hit": false,
      "t": 232919.08899999995,
      "d": 945.2103229166532,
      "v": 81
    },
    {
      "midi": 59,
      "hit": false,
      "t": 232919.08899999995,
      "d": 1023.4761458333232,
      "v": 85
    },
    {
      "midi": 56,
      "hit": false,
      "t": 232919.08899999995,
      "d": 1818.1752708333079,
      "v": 101
    },
    {
      "midi": 52,
      "hit": false,
      "t": 232919.08899999995,
      "d": 1902.4615416666493,
      "v": 81
    },
    {
      "midi": 64,
      "hit": false,
      "t": 234075.01499999993,
      "d": 24.0817916666565,
      "v": 81
    },
    {
      "midi": 59,
      "hit": false,
      "t": 234075.01499999993,
      "d": 403.3700104166637,
      "v": 63
    },
    {
      "midi": 68,
      "hit": false,
      "t": 234075.01499999993,
      "d": 1161.9464479167073,
      "v": 106
    },
    {
      "midi": 64,
      "hit": false,
      "t": 234363.99649999992,
      "d": 415.4109062500065,
      "v": 63
    },
    {
      "midi": 59,
      "hit": false,
      "t": 234652.97799999992,
      "d": 397.3495625000214,
      "v": 65
    },
    {
      "midi": 52,
      "hit": false,
      "t": 234941.95949999994,
      "d": 156.53164583334,
      "v": 65
    },
    {
      "midi": 64,
      "hit": false,
      "t": 234941.95949999994,
      "d": 162.5520937500114,
      "v": 40
    },
    {
      "midi": 59,
      "hit": false,
      "t": 235230.94099999996,
      "d": 445.5131458333344,
      "v": 81
    },
    {
      "midi": 64,
      "hit": false,
      "t": 235230.94099999996,
      "d": 632.1470312500023,
      "v": 68
    },
    {
      "midi": 52,
      "hit": false,
      "t": 235230.94099999996,
      "d": 1643.5822812500119,
      "v": 81
    },
    {
      "midi": 59,
      "hit": false,
      "t": 235808.90399999995,
      "d": 397.3495625000214,
      "v": 55
    },
    {
      "midi": 56,
      "hit": false,
      "t": 235808.90399999995,
      "d": 1505.1119791667152,
      "v": 101
    },
    {
      "midi": 64,
      "hit": false,
      "t": 236097.88549999997,
      "d": 66.2249270833272,
      "v": 35
    },
    {
      "midi": 66,
      "hit": false,
      "t": 236386.86699999997,
      "d": 12.040895833342802,
      "v": 70
    },
    {
      "midi": 59,
      "hit": false,
      "t": 236386.86699999997,
      "d": 391.32911458335,
      "v": 61
    },
    {
      "midi": 64,
      "hit": false,
      "t": 236386.86699999997,
      "d": 698.3719583333586,
      "v": 100
    },
    {
      "midi": 68,
      "hit": false,
      "t": 236386.86699999997,
      "d": 1041.5374895833666,
      "v": 106
    },
    {
      "midi": 59,
      "hit": false,
      "t": 236964.83,
      "d": 282.9610520833521,
      "v": 43
    },
    {
      "midi": 65,
      "hit": false,
      "t": 237542.793,
      "d": 740.5150937500002,
      "v": 95
    },
    {
      "midi": 57,
      "hit": false,
      "t": 237542.793,
      "d": 957.251218749996,
      "v": 95
    },
    {
      "midi": 53,
      "hit": false,
      "t": 237542.793,
      "d": 1011.4352500000095,
      "v": 90
    },
    {
      "midi": 60,
      "hit": false,
      "t": 237542.793,
      "d": 1023.4761458333523,
      "v": 90
    },
    {
      "midi": 53,
      "hit": false,
      "t": 238698.719,
      "d": 325.1041874999937,
      "v": 81
    },
    {
      "midi": 57,
      "hit": false,
      "t": 238698.719,
      "d": 481.6358333333337,
      "v": 90
    },
    {
      "midi": 65,
      "hit": false,
      "t": 238698.719,
      "d": 481.6358333333337,
      "v": 100
    },
    {
      "midi": 69,
      "hit": false,
      "t": 238698.719,
      "d": 493.6767291666765,
      "v": 109
    },
    {
      "midi": 64,
      "hit": false,
      "t": 239276.68200000003,
      "d": 415.4109062500065,
      "v": 105
    },
    {
      "midi": 57,
      "hit": false,
      "t": 239276.68200000003,
      "d": 463.5744895833486,
      "v": 68
    },
    {
      "midi": 52,
      "hit": false,
      "t": 239276.68200000003,
      "d": 499.6971770833479,
      "v": 77
    },
    {
      "midi": 67,
      "hit": false,
      "t": 239276.68200000003,
      "d": 517.7585208333621,
      "v": 100
    },
    {
      "midi": 62,
      "hit": false,
      "t": 239854.64500000005,
      "d": 999.3943541666667,
      "v": 90
    },
    {
      "midi": 65,
      "hit": false,
      "t": 239854.64500000005,
      "d": 999.3943541666667,
      "v": 77
    },
    {
      "midi": 57,
      "hit": false,
      "t": 239854.64500000005,
      "d": 1216.1304791666626,
      "v": 95
    },
    {
      "midi": 50,
      "hit": false,
      "t": 239854.64500000005,
      "d": 1258.2736145833333,
      "v": 95
    },
    {
      "midi": 62,
      "hit": false,
      "t": 241010.57100000005,
      "d": 517.758520833333,
      "v": 100
    },
    {
      "midi": 65,
      "hit": false,
      "t": 241010.57100000005,
      "d": 1101.7419687499932,
      "v": 95
    },
    {
      "midi": 55,
      "hit": false,
      "t": 242166.49700000006,
      "d": 842.8627083333267,
      "v": 95
    },
    {
      "midi": 59,
      "hit": false,
      "t": 242166.49700000006,
      "d": 854.9036041666695,
      "v": 81
    },
    {
      "midi": 43,
      "hit": false,
      "t": 242166.49700000006,
      "d": 1932.5637812500063,
      "v": 77
    },
    {
      "midi": 50,
      "hit": false,
      "t": 242166.49700000006,
      "d": 2083.074979166675,
      "v": 95
    },
    {
      "midi": 55,
      "hit": false,
      "t": 243322.42300000007,
      "d": 385.3086666666495,
      "v": 95
    },
    {
      "midi": 62,
      "hit": false,
      "t": 243322.42300000007,
      "d": 1053.5783854166511,
      "v": 95
    },
    {
      "midi": 59,
      "hit": false,
      "t": 243611.40450000006,
      "d": 276.9406041666516,
      "v": 63
    },
    {
      "midi": 55,
      "hit": false,
      "t": 243900.38600000006,
      "d": 379.2882187500072,
      "v": 90
    },
    {
      "midi": 55,
      "hit": false,
      "t": 244478.34900000005,
      "d": 475.6153854166623,
      "v": 95
    },
    {
      "midi": 60,
      "hit": false,
      "t": 244478.34900000005,
      "d": 1005.414802083309,
      "v": 100
    },
    {
      "midi": 50,
      "hit": false,
      "t": 244478.34900000005,
      "d": 1065.619281249994,
      "v": 81
    },
    {
      "midi": 45,
      "hit": false,
      "t": 244478.34900000005,
      "d": 1071.6397291666653,
      "v": 90
    },
    {
      "midi": 55,
      "hit": false,
      "t": 245056.31200000003,
      "d": 469.5949374999909,
      "v": 68
    },
    {
      "midi": 59,
      "hit": false,
      "t": 245634.27500000005,
      "d": 740.5150937500002,
      "v": 90
    },
    {
      "midi": 47,
      "hit": false,
      "t": 245634.27500000005,
      "d": 752.555989583343,
      "v": 85
    },
    {
      "midi": 55,
      "hit": false,
      "t": 245634.27500000005,
      "d": 975.3125625000102,
      "v": 85
    },
    {
      "midi": 62,
      "hit": false,
      "t": 245634.27500000005,
      "d": 1041.5374895833374,
      "v": 95
    },
    {
      "midi": 50,
      "hit": false,
      "t": 245634.27500000005,
      "d": 1077.6601770833367,
      "v": 61
    },
    {
      "midi": 60,
      "hit": false,
      "t": 246790.20100000006,
      "d": 945.2103229166532,
      "v": 105
    },
    {
      "midi": 55,
      "hit": false,
      "t": 246790.20100000006,
      "d": 993.3739062499953,
      "v": 100
    },
    {
      "midi": 48,
      "hit": false,
      "t": 246790.20100000006,
      "d": 1860.3184062500368,
      "v": 81
    },
    {
      "midi": 52,
      "hit": false,
      "t": 247368.16400000005,
      "d": 885.0058437500265,
      "v": 77
    },
    {
      "midi": 55,
      "hit": false,
      "t": 247946.12700000007,
      "d": 391.32911458335,
      "v": 90
    },
    {
      "midi": 64,
      "hit": false,
      "t": 247946.12700000007,
      "d": 547.86076041669,
      "v": 95
    },
    {
      "midi": 60,
      "hit": false,
      "t": 248235.10850000006,
      "d": 891.026291666698,
      "v": 65
    },
    {
      "midi": 55,
      "hit": false,
      "t": 248524.09000000008,
      "d": 975.3125625000102,
      "v": 81
    },
    {
      "midi": 52,
      "hit": false,
      "t": 248813.0715000001,
      "d": 361.226874999993,
      "v": 81
    },
    {
      "midi": 48,
      "hit": false,
      "t": 249102.0530000001,
      "d": 1499.0915312500147,
      "v": 77
    },
    {
      "midi": 52,
      "hit": false,
      "t": 249680.0160000001,
      "d": 349.1859791666793,
      "v": 85
    },
    {
      "midi": 55,
      "hit": false,
      "t": 249680.0160000001,
      "d": 463.5744895833486,
      "v": 95
    },
    {
      "midi": 60,
      "hit": false,
      "t": 249680.0160000001,
      "d": 680.3106145833444,
      "v": 100
    },
    {
      "midi": 64,
      "hit": false,
      "t": 249680.0160000001,
      "d": 770.6173333333572,
      "v": 95
    },
    {
      "midi": 55,
      "hit": false,
      "t": 250257.9790000001,
      "d": 403.3700104166637,
      "v": 57
    },
    {
      "midi": 52,
      "hit": false,
      "t": 250257.9790000001,
      "d": 1035.517041666666,
      "v": 100
    },
    {
      "midi": 60,
      "hit": false,
      "t": 250546.9605000001,
      "d": 529.7994166666467,
      "v": 85
    },
    {
      "midi": 64,
      "hit": false,
      "t": 250546.9605000001,
      "d": 656.2288229166588,
      "v": 95
    },
    {
      "midi": 55,
      "hit": false,
      "t": 250835.9420000001,
      "d": 313.0632916666509,
      "v": 85
    },
    {
      "midi": 56,
      "hit": false,
      "t": 251413.90500000012,
      "d": 481.6358333333337,
      "v": 56
    },
    {
      "midi": 64,
      "hit": false,
      "t": 251413.90500000012,
      "d": 951.2307708333246,
      "v": 105
    },
    {
      "midi": 59,
      "hit": false,
      "t": 251413.90500000012,
      "d": 993.3739062499953,
      "v": 95
    },
    {
      "midi": 52,
      "hit": false,
      "t": 251413.90500000012,
      "d": 1902.4615416666784,
      "v": 68
    },
    {
      "midi": 56,
      "hit": false,
      "t": 251991.8680000001,
      "d": 1180.0077916666924,
      "v": 94
    },
    {
      "midi": 59,
      "hit": false,
      "t": 252569.83100000012,
      "d": 415.4109062500065,
      "v": 81
    },
    {
      "midi": 68,
      "hit": false,
      "t": 252569.83100000012,
      "d": 1095.721520833351,
      "v": 106
    },
    {
      "midi": 64,
      "hit": false,
      "t": 253147.79400000014,
      "d": 54.1840312499844,
      "v": 59
    },
    {
      "midi": 59,
      "hit": false,
      "t": 253147.79400000014,
      "d": 355.2064270833216,
      "v": 77
    },
    {
      "midi": 56,
      "hit": false,
      "t": 253436.77550000013,
      "d": 138.4703020833258,
      "v": 35
    },
    {
      "midi": 64,
      "hit": false,
      "t": 253436.77550000013,
      "d": 210.7156770833244,
      "v": 48
    },
    {
      "midi": 59,
      "hit": false,
      "t": 253725.75700000013,
      "d": 451.5335937500058,
      "v": 74
    },
    {
      "midi": 64,
      "hit": false,
      "t": 253725.75700000013,
      "d": 644.1879270833451,
      "v": 71
    },
    {
      "midi": 52,
      "hit": false,
      "t": 253725.75700000013,
      "d": 1625.5209375000268,
      "v": 77
    },
    {
      "midi": 59,
      "hit": false,
      "t": 254303.72000000015,
      "d": 132.4498541666544,
      "v": 47
    },
    {
      "midi": 56,
      "hit": false,
      "t": 254303.72000000015,
      "d": 1330.518989583361,
      "v": 94
    },
    {
      "midi": 64,
      "hit": false,
      "t": 254592.70150000014,
      "d": 54.184031250013504,
      "v": 33
    },
    {
      "midi": 59,
      "hit": false,
      "t": 254592.70150000014,
      "d": 126.42940625001211,
      "v": 38
    },
    {
      "midi": 59,
      "hit": false,
      "t": 254881.68300000016,
      "d": 337.1450833333365,
      "v": 74
    },
    {
      "midi": 68,
      "hit": false,
      "t": 254881.68300000016,
      "d": 1017.455697916681,
      "v": 106
    },
    {
      "midi": 64,
      "hit": false,
      "t": 255170.66450000016,
      "d": 409.3904583333351,
      "v": 61
    },
    {
      "midi": 59,
      "hit": false,
      "t": 255459.64600000015,
      "d": 264.899708333367,
      "v": 63
    },
    {
      "midi": 65,
      "hit": false,
      "t": 256037.60900000017,
      "d": 674.290166666673,
      "v": 100
    },
    {
      "midi": 57,
      "hit": false,
      "t": 256037.60900000017,
      "d": 951.2307708333537,
      "v": 100
    },
    {
      "midi": 60,
      "hit": false,
      "t": 256037.60900000017,
      "d": 1017.455697916681,
      "v": 90
    },
    {
      "midi": 53,
      "hit": false,
      "t": 256037.60900000017,
      "d": 1023.4761458333523,
      "v": 90
    },
    {
      "midi": 53,
      "hit": false,
      "t": 257193.53500000018,
      "d": 337.1450833333365,
      "v": 81
    },
    {
      "midi": 65,
      "hit": false,
      "t": 257193.53500000018,
      "d": 469.5949374999909,
      "v": 95
    },
    {
      "midi": 57,
      "hit": false,
      "t": 257193.53500000018,
      "d": 475.6153854166623,
      "v": 81
    },
    {
      "midi": 69,
      "hit": false,
      "t": 257193.53500000018,
      "d": 493.6767291666765,
      "v": 105
    },
    {
      "midi": 64,
      "hit": false,
      "t": 257771.4980000002,
      "d": 427.4518020833202,
      "v": 95
    },
    {
      "midi": 57,
      "hit": false,
      "t": 257771.4980000002,
      "d": 433.4722499999916,
      "v": 59
    },
    {
      "midi": 52,
      "hit": false,
      "t": 257771.4980000002,
      "d": 457.5540416666481,
      "v": 68
    },
    {
      "midi": 67,
      "hit": false,
      "t": 257771.4980000002,
      "d": 523.7789687499753,
      "v": 95
    },
    {
      "midi": 57,
      "hit": false,
      "t": 258349.46100000018,
      "d": 764.5968854166567,
      "v": 90
    },
    {
      "midi": 62,
      "hit": false,
      "t": 258349.46100000018,
      "d": 818.7809166666702,
      "v": 95
    },
    {
      "midi": 65,
      "hit": false,
      "t": 258349.46100000018,
      "d": 993.3739062500244,
      "v": 90
    },
    {
      "midi": 50,
      "hit": false,
      "t": 258349.46100000018,
      "d": 1523.1733229167003,
      "v": 81
    },
    {
      "midi": 62,
      "hit": false,
      "t": 259216.4055000002,
      "d": 90.3067187500128,
      "v": 16
    },
    {
      "midi": 57,
      "hit": false,
      "t": 259505.38700000022,
      "d": 301.0223958333372,
      "v": 105
    },
    {
      "midi": 62,
      "hit": false,
      "t": 259505.38700000022,
      "d": 710.4128541666723,
      "v": 95
    },
    {
      "midi": 65,
      "hit": false,
      "t": 259505.38700000022,
      "d": 1101.7419687499932,
      "v": 95
    },
    {
      "midi": 55,
      "hit": false,
      "t": 260661.31300000023,
      "d": 872.9649479166546,
      "v": 100
    },
    {
      "midi": 59,
      "hit": false,
      "t": 260661.31300000023,
      "d": 903.0671874999825,
      "v": 77
    },
    {
      "midi": 43,
      "hit": false,
      "t": 260661.31300000023,
      "d": 2125.2181145833165,
      "v": 77
    },
    {
      "midi": 50,
      "hit": false,
      "t": 260661.31300000023,
      "d": 2143.2794583333016,
      "v": 90
    },
    {
      "midi": 55,
      "hit": false,
      "t": 261817.2390000002,
      "d": 391.32911458335,
      "v": 100
    },
    {
      "midi": 62,
      "hit": false,
      "t": 261817.2390000002,
      "d": 1047.5579374999797,
      "v": 95
    },
    {
      "midi": 59,
      "hit": false,
      "t": 262106.2205000002,
      "d": 445.5131458333635,
      "v": 51
    },
    {
      "midi": 55,
      "hit": false,
      "t": 262395.2020000002,
      "d": 415.4109062499483,
      "v": 77
    },
    {
      "midi": 59,
      "hit": false,
      "t": 262684.1835000002,
      "d": 198.6747812499525,
      "v": 1
    },
    {
      "midi": 57,
      "hit": false,
      "t": 262973.16500000015,
      "d": 198.6747812500107,
      "v": 85
    },
    {
      "midi": 55,
      "hit": false,
      "t": 262973.16500000015,
      "d": 1011.4352500000386,
      "v": 81
    },
    {
      "midi": 50,
      "hit": false,
      "t": 262973.16500000015,
      "d": 1017.455697916681,
      "v": 77
    },
    {
      "midi": 60,
      "hit": false,
      "t": 262973.16500000015,
      "d": 1023.4761458333232,
      "v": 95
    },
    {
      "midi": 62,
      "hit": false,
      "t": 262973.16500000015,
      "d": 1023.4761458333232,
      "v": 95
    },
    {
      "midi": 45,
      "hit": false,
      "t": 262973.16500000015,
      "d": 1041.5374895833083,
      "v": 90
    },
    {
      "midi": 55,
      "hit": false,
      "t": 264129.09100000013,
      "d": 987.353458333353,
      "v": 85
    },
    {
      "midi": 62,
      "hit": false,
      "t": 264129.09100000013,
      "d": 1005.4148020833381,
      "v": 81
    },
    {
      "midi": 50,
      "hit": false,
      "t": 264129.09100000013,
      "d": 1143.885104166693,
      "v": 77
    },
    {
      "midi": 47,
      "hit": false,
      "t": 264129.09100000013,
      "d": 1228.1713750000345,
      "v": 95
    },
    {
      "midi": 60,
      "hit": false,
      "t": 265285.01700000017,
      "d": 866.9444999999832,
      "v": 90
    },
    {
      "midi": 55,
      "hit": false,
      "t": 265285.01700000017,
      "d": 1029.4965937499655,
      "v": 85
    },
    {
      "midi": 48,
      "hit": false,
      "t": 265285.01700000017,
      "d": 1932.5637812499772,
      "v": 85
    },
    {
      "midi": 52,
      "hit": false,
      "t": 265862.98000000016,
      "d": 1294.3963020833326,
      "v": 61
    },
    {
      "midi": 55,
      "hit": false,
      "t": 266440.94300000014,
      "d": 409.390458333306,
      "v": 68
    },
    {
      "midi": 64,
      "hit": false,
      "t": 266440.94300000014,
      "d": 1011.4352499999804,
      "v": 109
    },
    {
      "midi": 60,
      "hit": false,
      "t": 266729.92450000014,
      "d": 313.06329166668,
      "v": 77
    },
    {
      "midi": 55,
      "hit": false,
      "t": 267018.90600000013,
      "d": 186.6338854166679,
      "v": 90
    },
    {
      "midi": 52,
      "hit": false,
      "t": 267307.8875000001,
      "d": 132.4498541666544,
      "v": 68
    },
    {
      "midi": 48,
      "hit": false,
      "t": 267307.8875000001,
      "d": 144.4907499999972,
      "v": 77
    },
    {
      "midi": 55,
      "hit": false,
      "t": 267307.8875000001,
      "d": 150.5111979166395,
      "v": 44
    },
    {
      "midi": 60,
      "hit": false,
      "t": 267307.8875000001,
      "d": 174.5929895833251,
      "v": 68
    },
    {
      "midi": 60,
      "hit": false,
      "t": 267596.8690000001,
      "d": 78.2658229166409,
      "v": 71
    },
    {
      "midi": 55,
      "hit": false,
      "t": 267596.8690000001,
      "d": 343.1655312500079,
      "v": 85
    },
    {
      "midi": 48,
      "hit": false,
      "t": 267596.8690000001,
      "d": 1264.2940625000047,
      "v": 90
    },
    {
      "midi": 52,
      "hit": false,
      "t": 267596.8690000001,
      "d": 2089.0954270833754,
      "v": 77
    },
    {
      "midi": 60,
      "hit": false,
      "t": 267885.8505000001,
      "d": 156.53164583334,
      "v": 68
    },
    {
      "midi": 55,
      "hit": false,
      "t": 268174.8320000001,
      "d": 415.4109062500065,
      "v": 100
    },
    {
      "midi": 60,
      "hit": false,
      "t": 268463.8135000001,
      "d": 168.5725416666828,
      "v": 74
    },
    {
      "midi": 55,
      "hit": false,
      "t": 268752.7950000001,
      "d": 337.1450833333656,
      "v": 95
    },
    {
      "midi": 64,
      "hit": false,
      "t": 268752.7950000001,
      "d": 680.3106145833735,
      "v": 105
    },
    {
      "midi": 60,
      "hit": false,
      "t": 269041.77650000015,
      "d": 361.226874999993,
      "v": 68
    },
    {
      "midi": 55,
      "hit": false,
      "t": 269330.75800000015,
      "d": 114.3885104166693,
      "v": 44
    },
    {
      "midi": 64,
      "hit": false,
      "t": 269908.72100000014,
      "d": 945.2103229166823,
      "v": 81
    },
    {
      "midi": 59,
      "hit": false,
      "t": 269908.72100000014,
      "d": 1023.4761458333232,
      "v": 85
    },
    {
      "midi": 56,
      "hit": false,
      "t": 269908.72100000014,
      "d": 1818.1752708333079,
      "v": 101
    },
    {
      "midi": 52,
      "hit": false,
      "t": 269908.72100000014,
      "d": 1902.4615416666493,
      "v": 81
    },
    {
      "midi": 64,
      "hit": false,
      "t": 271064.6470000001,
      "d": 24.081791666685604,
      "v": 81
    },
    {
      "midi": 59,
      "hit": false,
      "t": 271064.6470000001,
      "d": 403.3700104166637,
      "v": 63
    },
    {
      "midi": 68,
      "hit": false,
      "t": 271064.6470000001,
      "d": 1161.94644791662,
      "v": 106
    },
    {
      "midi": 64,
      "hit": false,
      "t": 271353.6285000001,
      "d": 415.4109062500065,
      "v": 63
    },
    {
      "midi": 59,
      "hit": false,
      "t": 271642.6100000001,
      "d": 397.3495625000214,
      "v": 65
    },
    {
      "midi": 52,
      "hit": false,
      "t": 271931.5915000001,
      "d": 156.53164583334,
      "v": 65
    },
    {
      "midi": 64,
      "hit": false,
      "t": 271931.5915000001,
      "d": 162.5520937499823,
      "v": 40
    },
    {
      "midi": 59,
      "hit": false,
      "t": 272220.5730000001,
      "d": 445.5131458333344,
      "v": 81
    },
    {
      "midi": 64,
      "hit": false,
      "t": 272220.5730000001,
      "d": 632.1470312500023,
      "v": 68
    },
    {
      "midi": 52,
      "hit": false,
      "t": 272220.5730000001,
      "d": 1643.582281250041,
      "v": 81
    },
    {
      "midi": 59,
      "hit": false,
      "t": 272798.5360000001,
      "d": 397.3495625000214,
      "v": 55
    },
    {
      "midi": 56,
      "hit": false,
      "t": 272798.5360000001,
      "d": 1505.111979166686,
      "v": 101
    },
    {
      "midi": 64,
      "hit": false,
      "t": 273087.5175000001,
      "d": 66.2249270833563,
      "v": 35
    },
    {
      "midi": 66,
      "hit": false,
      "t": 273376.4990000001,
      "d": 12.040895833342802,
      "v": 70
    },
    {
      "midi": 59,
      "hit": false,
      "t": 273376.4990000001,
      "d": 391.3291145833209,
      "v": 61
    },
    {
      "midi": 64,
      "hit": false,
      "t": 273376.4990000001,
      "d": 698.3719583333004,
      "v": 100
    },
    {
      "midi": 68,
      "hit": false,
      "t": 273376.4990000001,
      "d": 1041.5374895833083,
      "v": 106
    },
    {
      "midi": 59,
      "hit": false,
      "t": 273954.4620000001,
      "d": 282.9610520832939,
      "v": 43
    },
    {
      "midi": 65,
      "hit": false,
      "t": 274532.4250000001,
      "d": 740.5150937499711,
      "v": 95
    },
    {
      "midi": 57,
      "hit": false,
      "t": 274532.4250000001,
      "d": 957.2512187499669,
      "v": 95
    },
    {
      "midi": 53,
      "hit": false,
      "t": 274532.4250000001,
      "d": 1011.4352499999804,
      "v": 90
    },
    {
      "midi": 60,
      "hit": false,
      "t": 274532.4250000001,
      "d": 1023.4761458333232,
      "v": 90
    },
    {
      "midi": 53,
      "hit": false,
      "t": 275688.3510000001,
      "d": 325.1041875000228,
      "v": 81
    },
    {
      "midi": 57,
      "hit": false,
      "t": 275688.3510000001,
      "d": 481.6358333333628,
      "v": 90
    },
    {
      "midi": 65,
      "hit": false,
      "t": 275688.3510000001,
      "d": 481.6358333333628,
      "v": 100
    },
    {
      "midi": 69,
      "hit": false,
      "t": 275688.3510000001,
      "d": 493.6767291667056,
      "v": 109
    },
    {
      "midi": 64,
      "hit": false,
      "t": 276266.31400000013,
      "d": 415.4109062500065,
      "v": 105
    },
    {
      "midi": 57,
      "hit": false,
      "t": 276266.31400000013,
      "d": 463.5744895833195,
      "v": 68
    },
    {
      "midi": 52,
      "hit": false,
      "t": 276266.31400000013,
      "d": 499.6971770833479,
      "v": 77
    },
    {
      "midi": 67,
      "hit": false,
      "t": 276266.31400000013,
      "d": 517.758520833333,
      "v": 100
    },
    {
      "midi": 62,
      "hit": false,
      "t": 276844.2770000001,
      "d": 999.3943541666958,
      "v": 90
    },
    {
      "midi": 65,
      "hit": false,
      "t": 276844.2770000001,
      "d": 999.3943541666958,
      "v": 77
    },
    {
      "midi": 57,
      "hit": false,
      "t": 276844.2770000001,
      "d": 1216.1304791666917,
      "v": 95
    },
    {
      "midi": 50,
      "hit": false,
      "t": 276844.2770000001,
      "d": 1258.2736145833624,
      "v": 95
    },
    {
      "midi": 62,
      "hit": false,
      "t": 278000.20300000015,
      "d": 517.758520833333,
      "v": 100
    },
    {
      "midi": 65,
      "hit": false,
      "t": 278000.20300000015,
      "d": 1101.7419687500224,
      "v": 95
    },
    {
      "midi": 55,
      "hit": false,
      "t": 279156.1290000002,
      "d": 842.8627083333558,
      "v": 95
    },
    {
      "midi": 59,
      "hit": false,
      "t": 279156.1290000002,
      "d": 854.9036041666986,
      "v": 81
    },
    {
      "midi": 43,
      "hit": false,
      "t": 279156.1290000002,
      "d": 1932.5637812500936,
      "v": 77
    },
    {
      "midi": 50,
      "hit": false,
      "t": 279156.1290000002,
      "d": 2083.074979166733,
      "v": 95
    },
    {
      "midi": 55,
      "hit": false,
      "t": 280312.0550000002,
      "d": 385.3086666666786,
      "v": 95
    },
    {
      "midi": 62,
      "hit": false,
      "t": 280312.0550000002,
      "d": 1053.5783854167094,
      "v": 95
    },
    {
      "midi": 59,
      "hit": false,
      "t": 280601.0365000002,
      "d": 276.9406041667098,
      "v": 63
    },
    {
      "midi": 55,
      "hit": false,
      "t": 280890.0180000003,
      "d": 379.2882187499781,
      "v": 90
    },
    {
      "midi": 55,
      "hit": false,
      "t": 281467.98100000026,
      "d": 475.6153854166623,
      "v": 95
    },
    {
      "midi": 60,
      "hit": false,
      "t": 281467.98100000026,
      "d": 1005.4148020833381,
      "v": 100
    },
    {
      "midi": 50,
      "hit": false,
      "t": 281467.98100000026,
      "d": 1065.619281249994,
      "v": 81
    },
    {
      "midi": 45,
      "hit": false,
      "t": 281467.98100000026,
      "d": 1071.6397291666362,
      "v": 90
    },
    {
      "midi": 55,
      "hit": false,
      "t": 282045.94400000025,
      "d": 469.59493750002,
      "v": 68
    },
    {
      "midi": 59,
      "hit": false,
      "t": 282623.90700000024,
      "d": 740.5150937499711,
      "v": 90
    },
    {
      "midi": 47,
      "hit": false,
      "t": 282623.90700000024,
      "d": 752.5559895833139,
      "v": 85
    },
    {
      "midi": 55,
      "hit": false,
      "t": 282623.90700000024,
      "d": 975.312562499952,
      "v": 85
    },
    {
      "midi": 62,
      "hit": false,
      "t": 282623.90700000024,
      "d": 1041.5374895833083,
      "v": 95
    },
    {
      "midi": 50,
      "hit": false,
      "t": 282623.90700000024,
      "d": 1077.6601770833367,
      "v": 61
    },
    {
      "midi": 60,
      "hit": false,
      "t": 283779.8330000002,
      "d": 945.2103229166823,
      "v": 105
    },
    {
      "midi": 55,
      "hit": false,
      "t": 283779.8330000002,
      "d": 993.3739062499953,
      "v": 100
    },
    {
      "midi": 48,
      "hit": false,
      "t": 283779.8330000002,
      "d": 1860.3184062499786,
      "v": 81
    },
    {
      "midi": 52,
      "hit": false,
      "t": 284357.7960000002,
      "d": 885.0058437499683,
      "v": 77
    },
    {
      "midi": 55,
      "hit": false,
      "t": 284935.7590000002,
      "d": 391.3291145833209,
      "v": 90
    },
    {
      "midi": 64,
      "hit": false,
      "t": 284935.7590000002,
      "d": 547.8607604166609,
      "v": 95
    },
    {
      "midi": 60,
      "hit": false,
      "t": 285224.7405000002,
      "d": 891.0262916666688,
      "v": 65
    },
    {
      "midi": 55,
      "hit": false,
      "t": 285513.7220000002,
      "d": 975.3125625000102,
      "v": 81
    },
    {
      "midi": 52,
      "hit": false,
      "t": 285802.7035000002,
      "d": 361.226874999993,
      "v": 81
    },
    {
      "midi": 48,
      "hit": false,
      "t": 286091.6850000002,
      "d": 1499.0915312500438,
      "v": 77
    },
    {
      "midi": 52,
      "hit": false,
      "t": 286669.6480000002,
      "d": 349.1859791666502,
      "v": 85
    },
    {
      "midi": 55,
      "hit": false,
      "t": 286669.6480000002,
      "d": 463.5744895833195,
      "v": 95
    },
    {
      "midi": 60,
      "hit": false,
      "t": 286669.6480000002,
      "d": 680.3106145833153,
      "v": 100
    },
    {
      "midi": 64,
      "hit": false,
      "t": 286669.6480000002,
      "d": 770.617333333299,
      "v": 95
    },
    {
      "midi": 55,
      "hit": false,
      "t": 287247.6110000002,
      "d": 403.3700104166637,
      "v": 57
    },
    {
      "midi": 52,
      "hit": false,
      "t": 287247.6110000002,
      "d": 1035.517041666666,
      "v": 100
    },
    {
      "midi": 60,
      "hit": false,
      "t": 287536.5925000002,
      "d": 529.7994166666758,
      "v": 85
    },
    {
      "midi": 64,
      "hit": false,
      "t": 287536.5925000002,
      "d": 656.2288229166879,
      "v": 95
    },
    {
      "midi": 55,
      "hit": false,
      "t": 287825.5740000002,
      "d": 313.06329166668,
      "v": 85
    },
    {
      "midi": 56,
      "hit": false,
      "t": 288403.5370000002,
      "d": 481.6358333333046,
      "v": 56
    },
    {
      "midi": 64,
      "hit": false,
      "t": 288403.5370000002,
      "d": 951.2307708333246,
      "v": 105
    },
    {
      "midi": 59,
      "hit": false,
      "t": 288403.5370000002,
      "d": 993.3739062499953,
      "v": 95
    },
    {
      "midi": 52,
      "hit": false,
      "t": 288403.5370000002,
      "d": 1902.4615416666493,
      "v": 68
    },
    {
      "midi": 56,
      "hit": false,
      "t": 288981.5000000002,
      "d": 1180.0077916666633,
      "v": 94
    },
    {
      "midi": 59,
      "hit": false,
      "t": 289559.46300000016,
      "d": 415.4109062500065,
      "v": 81
    },
    {
      "midi": 68,
      "hit": false,
      "t": 289559.46300000016,
      "d": 1095.7215208333218,
      "v": 106
    },
    {
      "midi": 64,
      "hit": false,
      "t": 290137.42600000015,
      "d": 54.184031250013504,
      "v": 59
    },
    {
      "midi": 59,
      "hit": false,
      "t": 290137.42600000015,
      "d": 355.2064270833507,
      "v": 77
    },
    {
      "midi": 56,
      "hit": false,
      "t": 290426.40750000015,
      "d": 138.4703020833549,
      "v": 35
    },
    {
      "midi": 64,
      "hit": false,
      "t": 290426.40750000015,
      "d": 210.7156770833535,
      "v": 48
    },
    {
      "midi": 59,
      "hit": false,
      "t": 290715.38900000014,
      "d": 451.5335937499767,
      "v": 74
    },
    {
      "midi": 64,
      "hit": false,
      "t": 290715.38900000014,
      "d": 644.1879270833451,
      "v": 71
    },
    {
      "midi": 52,
      "hit": false,
      "t": 290715.38900000014,
      "d": 1625.5209374999977,
      "v": 77
    },
    {
      "midi": 59,
      "hit": false,
      "t": 291293.35200000013,
      "d": 132.4498541667126,
      "v": 47
    },
    {
      "midi": 56,
      "hit": false,
      "t": 291293.35200000013,
      "d": 1330.518989583361,
      "v": 94
    },
    {
      "midi": 64,
      "hit": false,
      "t": 291582.3335000002,
      "d": 54.184031250013504,
      "v": 33
    },
    {
      "midi": 59,
      "hit": false,
      "t": 291582.3335000002,
      "d": 126.42940625001211,
      "v": 38
    },
    {
      "midi": 59,
      "hit": false,
      "t": 291871.3150000002,
      "d": 337.1450833333074,
      "v": 74
    },
    {
      "midi": 68,
      "hit": false,
      "t": 291871.3150000002,
      "d": 1017.4556979166227,
      "v": 106
    },
    {
      "midi": 64,
      "hit": false,
      "t": 292160.2965000002,
      "d": 409.390458333306,
      "v": 61
    },
    {
      "midi": 59,
      "hit": false,
      "t": 292449.27800000017,
      "d": 264.8997083333088,
      "v": 63
    },
    {
      "midi": 65,
      "hit": false,
      "t": 293027.24100000015,
      "d": 674.290166666673,
      "v": 100
    },
    {
      "midi": 57,
      "hit": false,
      "t": 293027.24100000015,
      "d": 951.2307708333246,
      "v": 100
    },
    {
      "midi": 60,
      "hit": false,
      "t": 293027.24100000015,
      "d": 1017.455697916681,
      "v": 90
    },
    {
      "midi": 53,
      "hit": false,
      "t": 293027.24100000015,
      "d": 1023.4761458333232,
      "v": 90
    },
    {
      "midi": 53,
      "hit": false,
      "t": 294183.16700000013,
      "d": 337.1450833333074,
      "v": 81
    },
    {
      "midi": 65,
      "hit": false,
      "t": 294183.16700000013,
      "d": 469.5949374999618,
      "v": 95
    },
    {
      "midi": 57,
      "hit": false,
      "t": 294183.16700000013,
      "d": 475.6153854166041,
      "v": 81
    },
    {
      "midi": 69,
      "hit": false,
      "t": 294183.16700000013,
      "d": 493.6767291665892,
      "v": 105
    },
    {
      "midi": 64,
      "hit": false,
      "t": 294761.13000000006,
      "d": 427.4518020833493,
      "v": 95
    },
    {
      "midi": 57,
      "hit": false,
      "t": 294761.13000000006,
      "d": 433.4722499999916,
      "v": 59
    },
    {
      "midi": 52,
      "hit": false,
      "t": 294761.13000000006,
      "d": 457.5540416666772,
      "v": 68
    },
    {
      "midi": 67,
      "hit": false,
      "t": 294761.13000000006,
      "d": 523.7789687500335,
      "v": 95
    },
    {
      "midi": 57,
      "hit": false,
      "t": 295339.0930000001,
      "d": 764.5968854166567,
      "v": 90
    },
    {
      "midi": 62,
      "hit": false,
      "t": 295339.0930000001,
      "d": 818.7809166666702,
      "v": 95
    },
    {
      "midi": 65,
      "hit": false,
      "t": 295339.0930000001,
      "d": 993.3739062499953,
      "v": 90
    },
    {
      "midi": 50,
      "hit": false,
      "t": 295339.0930000001,
      "d": 1523.1733229166712,
      "v": 81
    },
    {
      "midi": 62,
      "hit": false,
      "t": 296206.0375000001,
      "d": 90.3067187499837,
      "v": 16
    },
    {
      "midi": 57,
      "hit": false,
      "t": 296495.0190000001,
      "d": 301.0223958333372,
      "v": 105
    },
    {
      "midi": 62,
      "hit": false,
      "t": 296495.0190000001,
      "d": 710.4128541667014,
      "v": 95
    },
    {
      "midi": 65,
      "hit": false,
      "t": 296495.0190000001,
      "d": 1101.7419687500224,
      "v": 95
    },
    {
      "midi": 55,
      "hit": false,
      "t": 297650.9450000001,
      "d": 872.9649479166837,
      "v": 100
    },
    {
      "midi": 59,
      "hit": false,
      "t": 297650.9450000001,
      "d": 903.0671875000116,
      "v": 77
    },
    {
      "midi": 43,
      "hit": false,
      "t": 297650.9450000001,
      "d": 2125.2181145833456,
      "v": 77
    },
    {
      "midi": 50,
      "hit": false,
      "t": 297650.9450000001,
      "d": 2143.2794583333307,
      "v": 90
    },
    {
      "midi": 55,
      "hit": false,
      "t": 298806.87100000016,
      "d": 391.3291145833209,
      "v": 100
    },
    {
      "midi": 62,
      "hit": false,
      "t": 298806.87100000016,
      "d": 1047.5579374999506,
      "v": 95
    },
    {
      "midi": 59,
      "hit": false,
      "t": 299095.85250000015,
      "d": 445.5131458333344,
      "v": 51
    },
    {
      "midi": 55,
      "hit": false,
      "t": 299384.83400000015,
      "d": 415.4109062499483,
      "v": 77
    },
    {
      "midi": 59,
      "hit": false,
      "t": 299673.81550000014,
      "d": 198.6747812499525,
      "v": 1
    },
    {
      "midi": 55,
      "hit": false,
      "t": 299962.7970000001,
      "d": 361.226874999993,
      "v": 95
    },
    {
      "midi": 59,
      "hit": false,
      "t": 299962.7970000001,
      "d": 379.2882187499781,
      "v": 100
    },
    {
      "midi": 43,
      "hit": false,
      "t": 299962.7970000001,
      "d": 499.6971770832897,
      "v": 100
    },
    {
      "midi": 57,
      "hit": false,
      "t": 300540.76,
      "d": 433.4722499999916,
      "v": 105
    },
    {
      "midi": 60,
      "hit": false,
      "t": 300540.76,
      "d": 439.4926979166339,
      "v": 105
    },
    {
      "midi": 45,
      "hit": false,
      "t": 300540.76,
      "d": 620.1061354166595,
      "v": 100
    },
    {
      "midi": 55,
      "hit": false,
      "t": 301118.723,
      "d": 367.2473229166935,
      "v": 105
    },
    {
      "midi": 59,
      "hit": false,
      "t": 301118.723,
      "d": 415.4109062500065,
      "v": 105
    },
    {
      "midi": 43,
      "hit": false,
      "t": 301118.723,
      "d": 614.0856875000172,
      "v": 90
    },
    {
      "midi": 57,
      "hit": false,
      "t": 301696.686,
      "d": 830.821812500013,
      "v": 105
    },
    {
      "midi": 41,
      "hit": false,
      "t": 301696.686,
      "d": 842.8627083333558,
      "v": 100
    },
    {
      "midi": 53,
      "hit": false,
      "t": 301696.686,
      "d": 927.1489791666972,
      "v": 109
    },
    {
      "midi": 52,
      "hit": false,
      "t": 302852.612,
      "d": 421.4313541666488,
      "v": 95
    },
    {
      "midi": 55,
      "hit": false,
      "t": 302852.612,
      "d": 433.4722499999916,
      "v": 105
    },
    {
      "midi": 40,
      "hit": false,
      "t": 302852.612,
      "d": 499.6971770833479,
      "v": 100
    },
    {
      "midi": 50,
      "hit": false,
      "t": 303430.575,
      "d": 866.9444999999832,
      "v": 100
    },
    {
      "midi": 53,
      "hit": false,
      "t": 303430.575,
      "d": 969.2921145833097,
      "v": 105
    },
    {
      "midi": 38,
      "hit": false,
      "t": 303430.575,
      "d": 1041.5374895833083,
      "v": 90
    },
    {
      "midi": 36,
      "hit": false,
      "t": 304586.501,
      "d": 4623.704000000027,
      "v": 105
    },
    {
      "midi": 48,
      "hit": false,
      "t": 304586.501,
      "d": 4623.704000000027,
      "v": 105
    },
    {
      "midi": 52,
      "hit": false,
      "t": 304586.501,
      "d": 4623.704000000027,
      "v": 109
    }
  ]
}