{
  "jsonPath": "Rock/Argentine Rock/Los Rodriguez/sin-documentos.json",
  "path": "Rock\\Argentine Rock\\Los Rodriguez\\Sin Documentos.mid",
  "name": "Sin Documentos",
  "difficulty": "Advanced",
  "bpm": 196.0002874670883,
  "notes": [
    {
      "midi": 60,
      "hit": false,
      "t": 5969.379000000001,
      "d": 42.2512135416664,
      "v": 80
    },
    {
      "midi": 60,
      "hit": false,
      "t": 6122.4400000000005,
      "d": 160.235734375,
      "v": 98
    },
    {
      "midi": 61,
      "hit": false,
      "t": 6275.501,
      "d": 57.39787500000057,
      "v": 47
    },
    {
      "midi": 60,
      "hit": false,
      "t": 6352.031500000001,
      "d": 62.18103125000016,
      "v": 68
    },
    {
      "midi": 58,
      "hit": false,
      "t": 6428.562000000001,
      "d": 91.6771614583331,
      "v": 68
    },
    {
      "midi": 60,
      "hit": false,
      "t": 6581.6230000000005,
      "d": 341.99567187499997,
      "v": 100
    },
    {
      "midi": 58,
      "hit": false,
      "t": 6887.745000000001,
      "d": 294.96130208333307,
      "v": 85
    },
    {
      "midi": 57,
      "hit": false,
      "t": 7193.867,
      "d": 295.75849479166664,
      "v": 85
    },
    {
      "midi": 55,
      "hit": false,
      "t": 7499.9890000000005,
      "d": 72.54453645833291,
      "v": 54
    },
    {
      "midi": 55,
      "hit": false,
      "t": 7653.05,
      "d": 503.02859895833353,
      "v": 95
    },
    {
      "midi": 55,
      "hit": false,
      "t": 8571.416000000001,
      "d": 433.672833333334,
      "v": 66
    },
    {
      "midi": 60,
      "hit": false,
      "t": 8571.416000000001,
      "d": 474.32966145833416,
      "v": 91
    },
    {
      "midi": 63,
      "hit": false,
      "t": 8571.416000000001,
      "d": 485.4903593750005,
      "v": 87
    },
    {
      "midi": 55,
      "hit": false,
      "t": 9030.599000000002,
      "d": 593.1113750000004,
      "v": 60
    },
    {
      "midi": 62,
      "hit": false,
      "t": 9030.599000000002,
      "d": 615.432770833333,
      "v": 74
    },
    {
      "midi": 58,
      "hit": false,
      "t": 9030.599000000002,
      "d": 632.9710104166661,
      "v": 68
    },
    {
      "midi": 67,
      "hit": false,
      "t": 15918.344000000001,
      "d": 279.01744791666715,
      "v": 68
    },
    {
      "midi": 55,
      "hit": false,
      "t": 15918.344000000001,
      "d": 279.8146406249998,
      "v": 82
    },
    {
      "midi": 74,
      "hit": false,
      "t": 15918.344000000001,
      "d": 295.7584947916657,
      "v": 95
    },
    {
      "midi": 70,
      "hit": false,
      "t": 15918.344000000001,
      "d": 393.016005208332,
      "v": 107
    },
    {
      "midi": 62,
      "hit": false,
      "t": 16224.466,
      "d": 419.32336458333157,
      "v": 80
    },
    {
      "midi": 67,
      "hit": false,
      "t": 16377.527,
      "d": 231.98307812500025,
      "v": 87
    },
    {
      "midi": 67,
      "hit": false,
      "t": 16683.648999999998,
      "d": 129.9424114583344,
      "v": 68
    },
    {
      "midi": 70,
      "hit": false,
      "t": 16683.648999999998,
      "d": 164.22169791666602,
      "v": 98
    },
    {
      "midi": 58,
      "hit": false,
      "t": 16683.648999999998,
      "d": 860.1709322916686,
      "v": 64
    },
    {
      "midi": 67,
      "hit": false,
      "t": 16989.770999999997,
      "d": 112.40417187500134,
      "v": 68
    },
    {
      "midi": 70,
      "hit": false,
      "t": 16989.770999999997,
      "d": 117.98452083333541,
      "v": 98
    },
    {
      "midi": 74,
      "hit": false,
      "t": 16989.770999999997,
      "d": 156.2497708333358,
      "v": 100
    },
    {
      "midi": 67,
      "hit": false,
      "t": 17295.893,
      "d": 312.4995416666643,
      "v": 78
    },
    {
      "midi": 70,
      "hit": false,
      "t": 17295.893,
      "d": 409.7570520833324,
      "v": 102
    },
    {
      "midi": 62,
      "hit": false,
      "t": 17602.015,
      "d": 782.0460468749952,
      "v": 102
    },
    {
      "midi": 67,
      "hit": false,
      "t": 17755.075999999997,
      "d": 266.2623645833337,
      "v": 95
    },
    {
      "midi": 57,
      "hit": false,
      "t": 18061.197999999997,
      "d": 124.36206250000032,
      "v": 44
    },
    {
      "midi": 70,
      "hit": false,
      "t": 18061.197999999997,
      "d": 139.50872395833358,
      "v": 85
    },
    {
      "midi": 67,
      "hit": false,
      "t": 18214.259,
      "d": 151.46661458333256,
      "v": 76
    },
    {
      "midi": 50,
      "hit": false,
      "t": 18367.319999999996,
      "d": 315.6883124999986,
      "v": 100
    },
    {
      "midi": 66,
      "hit": false,
      "t": 18673.441999999995,
      "d": 127.55083333333096,
      "v": 76
    },
    {
      "midi": 57,
      "hit": false,
      "t": 18673.441999999995,
      "d": 423.3093281250003,
      "v": 63
    },
    {
      "midi": 66,
      "hit": false,
      "t": 18826.502999999993,
      "d": 129.9424114583344,
      "v": 52
    },
    {
      "midi": 69,
      "hit": false,
      "t": 18826.502999999993,
      "d": 389.8272343750032,
      "v": 89
    },
    {
      "midi": 62,
      "hit": false,
      "t": 19132.624999999996,
      "d": 295.7584947916657,
      "v": 82
    },
    {
      "midi": 66,
      "hit": false,
      "t": 19438.746999999996,
      "d": 503.8257916666662,
      "v": 66
    },
    {
      "midi": 74,
      "hit": false,
      "t": 19438.746999999996,
      "d": 593.9085677083312,
      "v": 85
    },
    {
      "midi": 62,
      "hit": false,
      "t": 19744.868999999995,
      "d": 770.0881562499999,
      "v": 87
    },
    {
      "midi": 66,
      "hit": false,
      "t": 20050.990999999995,
      "d": 534.1191145833327,
      "v": 68
    },
    {
      "midi": 69,
      "hit": false,
      "t": 20204.051999999996,
      "d": 452.0082656249979,
      "v": 89
    },
    {
      "midi": 57,
      "hit": false,
      "t": 20510.173999999995,
      "d": 282.2062187499978,
      "v": 85
    },
    {
      "midi": 66,
      "hit": false,
      "t": 20663.234999999993,
      "d": 188.13747916666762,
      "v": 64
    },
    {
      "midi": 51,
      "hit": false,
      "t": 20816.295999999995,
      "d": 291.772531249997,
      "v": 95
    },
    {
      "midi": 67,
      "hit": false,
      "t": 20969.356999999993,
      "d": 157.84415624999747,
      "v": 85
    },
    {
      "midi": 58,
      "hit": false,
      "t": 21122.41799999999,
      "d": 319.6742760416637,
      "v": 68
    },
    {
      "midi": 67,
      "hit": false,
      "t": 21275.47899999999,
      "d": 153.85819270833235,
      "v": 78
    },
    {
      "midi": 70,
      "hit": false,
      "t": 21275.47899999999,
      "d": 153.85819270833235,
      "v": 91
    },
    {
      "midi": 67,
      "hit": false,
      "t": 21581.600999999988,
      "d": 94.06873958333381,
      "v": 70
    },
    {
      "midi": 70,
      "hit": false,
      "t": 21581.600999999988,
      "d": 99.64908854166788,
      "v": 82
    },
    {
      "midi": 63,
      "hit": false,
      "t": 21581.600999999988,
      "d": 233.57746354166738,
      "v": 80
    },
    {
      "midi": 67,
      "hit": false,
      "t": 21887.722999999987,
      "d": 78.92207812500055,
      "v": 89
    },
    {
      "midi": 70,
      "hit": false,
      "t": 21887.722999999987,
      "d": 78.92207812500055,
      "v": 105
    },
    {
      "midi": 75,
      "hit": false,
      "t": 21887.722999999987,
      "d": 111.60697916666686,
      "v": 98
    },
    {
      "midi": 75,
      "hit": false,
      "t": 22193.844999999987,
      "d": 319.6742760416673,
      "v": 98
    },
    {
      "midi": 67,
      "hit": false,
      "t": 22193.844999999987,
      "d": 326.05181770833224,
      "v": 87
    },
    {
      "midi": 70,
      "hit": false,
      "t": 22193.844999999987,
      "d": 330.03778124999735,
      "v": 102
    },
    {
      "midi": 63,
      "hit": false,
      "t": 22499.966999999986,
      "d": 281.4090260416633,
      "v": 82
    },
    {
      "midi": 70,
      "hit": false,
      "t": 22653.027999999984,
      "d": 243.9409687499974,
      "v": 72
    },
    {
      "midi": 67,
      "hit": false,
      "t": 22653.027999999984,
      "d": 247.92693229166252,
      "v": 70
    },
    {
      "midi": 74,
      "hit": false,
      "t": 22653.027999999984,
      "d": 287.7865677083282,
      "v": 95
    },
    {
      "midi": 63,
      "hit": false,
      "t": 22959.14999999998,
      "d": 102.04066666666768,
      "v": 60
    },
    {
      "midi": 72,
      "hit": false,
      "t": 22959.14999999998,
      "d": 255.89885937500003,
      "v": 82
    },
    {
      "midi": 50,
      "hit": false,
      "t": 23265.27199999998,
      "d": 275.0314843749984,
      "v": 85
    },
    {
      "midi": 74,
      "hit": false,
      "t": 23265.27199999998,
      "d": 373.8833802083318,
      "v": 98
    },
    {
      "midi": 57,
      "hit": false,
      "t": 23571.39399999998,
      "d": 1114.475406249996,
      "v": 68
    },
    {
      "midi": 72,
      "hit": false,
      "t": 23724.454999999976,
      "d": 322.0658541666671,
      "v": 105
    },
    {
      "midi": 70,
      "hit": false,
      "t": 24030.576999999976,
      "d": 246.33254687500084,
      "v": 98
    },
    {
      "midi": 62,
      "hit": false,
      "t": 24030.576999999976,
      "d": 352.35917708333363,
      "v": 64
    },
    {
      "midi": 69,
      "hit": false,
      "t": 24336.698999999975,
      "d": 635.3625885416695,
      "v": 98
    },
    {
      "midi": 62,
      "hit": false,
      "t": 24642.820999999974,
      "d": 282.2062187500014,
      "v": 85
    },
    {
      "midi": 50,
      "hit": false,
      "t": 24948.942999999977,
      "d": 237.56342708333614,
      "v": 89
    },
    {
      "midi": 54,
      "hit": false,
      "t": 25102.00399999998,
      "d": 295.75849479166936,
      "v": 72
    },
    {
      "midi": 66,
      "hit": false,
      "t": 25408.125999999982,
      "d": 212.85045312500006,
      "v": 89
    },
    {
      "midi": 62,
      "hit": false,
      "t": 25408.125999999982,
      "d": 258.2904374999998,
      "v": 74
    },
    {
      "midi": 70,
      "hit": false,
      "t": 25714.24799999998,
      "d": 39.8596354166657,
      "v": 66
    },
    {
      "midi": 55,
      "hit": false,
      "t": 25714.24799999998,
      "d": 243.9409687499974,
      "v": 82
    },
    {
      "midi": 67,
      "hit": false,
      "t": 25714.24799999998,
      "d": 261.47920833333046,
      "v": 66
    },
    {
      "midi": 74,
      "hit": false,
      "t": 25714.24799999998,
      "d": 331.63216666666267,
      "v": 98
    },
    {
      "midi": 62,
      "hit": false,
      "t": 26020.369999999977,
      "d": 361.9254895833328,
      "v": 80
    },
    {
      "midi": 67,
      "hit": false,
      "t": 26173.43099999998,
      "d": 181.75993749999907,
      "v": 89
    },
    {
      "midi": 67,
      "hit": false,
      "t": 26479.552999999978,
      "d": 106.02663020833279,
      "v": 63
    },
    {
      "midi": 70,
      "hit": false,
      "t": 26479.552999999978,
      "d": 106.02663020833279,
      "v": 98
    },
    {
      "midi": 58,
      "hit": false,
      "t": 26479.552999999978,
      "d": 426.49809895833096,
      "v": 82
    },
    {
      "midi": 67,
      "hit": false,
      "t": 26785.674999999977,
      "d": 208.06729687499683,
      "v": 68
    },
    {
      "midi": 72,
      "hit": false,
      "t": 26785.674999999977,
      "d": 238.36061979166334,
      "v": 98
    },
    {
      "midi": 67,
      "hit": false,
      "t": 27091.796999999973,
      "d": 182.55713020833355,
      "v": 70
    },
    {
      "midi": 70,
      "hit": false,
      "t": 27091.796999999973,
      "d": 255.89885937500003,
      "v": 105
    },
    {
      "midi": 62,
      "hit": false,
      "t": 27091.796999999973,
      "d": 632.1738177083353,
      "v": 64
    },
    {
      "midi": 67,
      "hit": false,
      "t": 27397.918999999973,
      "d": 19.92981770833285,
      "v": 39
    },
    {
      "midi": 69,
      "hit": false,
      "t": 27397.918999999973,
      "d": 94.06873958333381,
      "v": 82
    },
    {
      "midi": 67,
      "hit": false,
      "t": 27550.979999999974,
      "d": 457.58861458333195,
      "v": 98
    },
    {
      "midi": 62,
      "hit": false,
      "t": 27857.101999999973,
      "d": 316.48550520833305,
      "v": 87
    },
    {
      "midi": 50,
      "hit": false,
      "t": 28163.223999999973,
      "d": 209.66168229166942,
      "v": 87
    },
    {
      "midi": 69,
      "hit": false,
      "t": 28163.223999999973,
      "d": 269.45113541666797,
      "v": 89
    },
    {
      "midi": 57,
      "hit": false,
      "t": 28316.284999999974,
      "d": 1493.9391354166728,
      "v": 80
    },
    {
      "midi": 66,
      "hit": false,
      "t": 28469.345999999976,
      "d": 107.62101562500175,
      "v": 80
    },
    {
      "midi": 66,
      "hit": false,
      "t": 28622.406999999977,
      "d": 153.85819270833235,
      "v": 62
    },
    {
      "midi": 69,
      "hit": false,
      "t": 28622.406999999977,
      "d": 205.67571875000067,
      "v": 98
    },
    {
      "midi": 66,
      "hit": false,
      "t": 28928.528999999977,
      "d": 160.2357343750009,
      "v": 76
    },
    {
      "midi": 62,
      "hit": false,
      "t": 28928.528999999977,
      "d": 247.92693229166616,
      "v": 66
    },
    {
      "midi": 69,
      "hit": false,
      "t": 28928.528999999977,
      "d": 258.2904374999998,
      "v": 87
    },
    {
      "midi": 66,
      "hit": false,
      "t": 29234.650999999976,
      "d": 196.10940625000148,
      "v": 80
    },
    {
      "midi": 69,
      "hit": false,
      "t": 29234.650999999976,
      "d": 204.08133333333535,
      "v": 80
    },
    {
      "midi": 72,
      "hit": false,
      "t": 29234.650999999976,
      "d": 224.0111510416682,
      "v": 95
    },
    {
      "midi": 66,
      "hit": false,
      "t": 29540.77299999998,
      "d": 338.00970833333486,
      "v": 89
    },
    {
      "midi": 72,
      "hit": false,
      "t": 29540.77299999998,
      "d": 420.1205572916697,
      "v": 102
    },
    {
      "midi": 69,
      "hit": false,
      "t": 29540.77299999998,
      "d": 495.8538645833396,
      "v": 98
    },
    {
      "midi": 62,
      "hit": false,
      "t": 29846.894999999982,
      "d": 554.0489322916728,
      "v": 89
    },
    {
      "midi": 66,
      "hit": false,
      "t": 29999.955999999984,
      "d": 330.0377812500046,
      "v": 87
    },
    {
      "midi": 69,
      "hit": false,
      "t": 30306.077999999987,
      "d": 176.17958854166864,
      "v": 80
    },
    {
      "midi": 57,
      "hit": false,
      "t": 30306.077999999987,
      "d": 233.57746354166738,
      "v": 66
    },
    {
      "midi": 66,
      "hit": false,
      "t": 30459.13899999999,
      "d": 235.96904166666354,
      "v": 66
    },
    {
      "midi": 51,
      "hit": false,
      "t": 30612.199999999986,
      "d": 184.15151562499886,
      "v": 87
    },
    {
      "midi": 58,
      "hit": false,
      "t": 30765.260999999984,
      "d": 208.06729687500047,
      "v": 78
    },
    {
      "midi": 63,
      "hit": false,
      "t": 30918.321999999986,
      "d": 632.1738177083316,
      "v": 78
    },
    {
      "midi": 67,
      "hit": false,
      "t": 31071.382999999983,
      "d": 257.49324479166535,
      "v": 89
    },
    {
      "midi": 70,
      "hit": false,
      "t": 31377.504999999983,
      "d": 194.51502083333617,
      "v": 98
    },
    {
      "midi": 75,
      "hit": false,
      "t": 31683.626999999986,
      "d": 183.35432291666802,
      "v": 87
    },
    {
      "midi": 67,
      "hit": false,
      "t": 31683.626999999986,
      "d": 189.73186458333294,
      "v": 76
    },
    {
      "midi": 70,
      "hit": false,
      "t": 31683.626999999986,
      "d": 189.73186458333294,
      "v": 89
    },
    {
      "midi": 63,
      "hit": false,
      "t": 31683.626999999986,
      "d": 527.7415729166678,
      "v": 66
    },
    {
      "midi": 75,
      "hit": false,
      "t": 31989.748999999985,
      "d": 388.23284895833785,
      "v": 95
    },
    {
      "midi": 67,
      "hit": false,
      "t": 31989.748999999985,
      "d": 397.79916145833704,
      "v": 85
    },
    {
      "midi": 70,
      "hit": false,
      "t": 31989.748999999985,
      "d": 404.17670312500195,
      "v": 91
    },
    {
      "midi": 63,
      "hit": false,
      "t": 32295.87099999999,
      "d": 302.13603645833064,
      "v": 93
    },
    {
      "midi": 67,
      "hit": false,
      "t": 32448.931999999986,
      "d": 199.29817708333212,
      "v": 72
    },
    {
      "midi": 70,
      "hit": false,
      "t": 32448.931999999986,
      "d": 251.91289583333128,
      "v": 72
    },
    {
      "midi": 74,
      "hit": false,
      "t": 32448.931999999986,
      "d": 259.88482291666514,
      "v": 93
    },
    {
      "midi": 67,
      "hit": false,
      "t": 32755.053999999986,
      "d": 107.62101562499811,
      "v": 66
    },
    {
      "midi": 63,
      "hit": false,
      "t": 32755.053999999986,
      "d": 186.54309374999502,
      "v": 85
    },
    {
      "midi": 72,
      "hit": false,
      "t": 32755.053999999986,
      "d": 264.66797916666474,
      "v": 93
    },
    {
      "midi": 50,
      "hit": false,
      "t": 33061.175999999985,
      "d": 275.8286770833365,
      "v": 89
    },
    {
      "midi": 74,
      "hit": false,
      "t": 33061.175999999985,
      "d": 702.3267760416711,
      "v": 105
    },
    {
      "midi": 57,
      "hit": false,
      "t": 33367.29799999999,
      "d": 2004.142468750004,
      "v": 78
    },
    {
      "midi": 62,
      "hit": false,
      "t": 33520.35899999999,
      "d": 476.72123958333395,
      "v": 89
    },
    {
      "midi": 66,
      "hit": false,
      "t": 33826.48099999999,
      "d": 218.43080208333413,
      "v": 85
    },
    {
      "midi": 62,
      "hit": false,
      "t": 34132.602999999996,
      "d": 231.98307812499843,
      "v": 72
    },
    {
      "midi": 66,
      "hit": false,
      "t": 34132.602999999996,
      "d": 482.30158854166075,
      "v": 89
    },
    {
      "midi": 69,
      "hit": false,
      "t": 34132.602999999996,
      "d": 734.214484374992,
      "v": 93
    },
    {
      "midi": 62,
      "hit": false,
      "t": 34438.72499999999,
      "d": 341.99567187499633,
      "v": 68
    },
    {
      "midi": 66,
      "hit": false,
      "t": 34744.84699999999,
      "d": 98.05470312500256,
      "v": 62
    },
    {
      "midi": 62,
      "hit": false,
      "t": 34897.90799999999,
      "d": 174.58520312500332,
      "v": 72
    },
    {
      "midi": 66,
      "hit": false,
      "t": 34897.90799999999,
      "d": 174.58520312500332,
      "v": 68
    },
    {
      "midi": 69,
      "hit": false,
      "t": 34897.90799999999,
      "d": 174.58520312500332,
      "v": 78
    },
    {
      "midi": 72,
      "hit": false,
      "t": 34897.90799999999,
      "d": 200.09536979167024,
      "v": 89
    },
    {
      "midi": 66,
      "hit": false,
      "t": 35204.02999999999,
      "d": 161.83011979166622,
      "v": 87
    },
    {
      "midi": 69,
      "hit": false,
      "t": 35204.02999999999,
      "d": 161.83011979166622,
      "v": 87
    },
    {
      "midi": 72,
      "hit": false,
      "t": 35204.02999999999,
      "d": 173.78801041666884,
      "v": 93
    },
    {
      "midi": 62,
      "hit": false,
      "t": 35204.02999999999,
      "d": 200.89256250000471,
      "v": 62
    },
    {
      "midi": 62,
      "hit": false,
      "t": 35510.151999999995,
      "d": 137.91433854166826,
      "v": 72
    },
    {
      "midi": 55,
      "hit": false,
      "t": 35510.151999999995,
      "d": 277.4230624999982,
      "v": 70
    },
    {
      "midi": 67,
      "hit": false,
      "t": 35510.151999999995,
      "d": 310.10796354166087,
      "v": 102
    },
    {
      "midi": 62,
      "hit": false,
      "t": 35816.27399999999,
      "d": 340.40128645833465,
      "v": 66
    },
    {
      "midi": 58,
      "hit": false,
      "t": 35816.27399999999,
      "d": 448.8194947916709,
      "v": 66
    },
    {
      "midi": 67,
      "hit": false,
      "t": 35969.33499999999,
      "d": 116.39013541666645,
      "v": 80
    },
    {
      "midi": 69,
      "hit": false,
      "t": 36122.39599999999,
      "d": 102.04066666666768,
      "v": 78
    },
    {
      "midi": 67,
      "hit": false,
      "t": 36275.456999999995,
      "d": 184.1515156250025,
      "v": 78
    },
    {
      "midi": 70,
      "hit": false,
      "t": 36275.456999999995,
      "d": 222.41676562499924,
      "v": 93
    },
    {
      "midi": 62,
      "hit": false,
      "t": 36275.456999999995,
      "d": 470.3436979166654,
      "v": 87
    },
    {
      "midi": 67,
      "hit": false,
      "t": 36581.57899999999,
      "d": 216.03922395833797,
      "v": 80
    },
    {
      "midi": 69,
      "hit": false,
      "t": 36581.57899999999,
      "d": 258.2904375000071,
      "v": 98
    },
    {
      "midi": 67,
      "hit": false,
      "t": 36887.701,
      "d": 264.6679791666684,
      "v": 82
    },
    {
      "midi": 62,
      "hit": false,
      "t": 36887.701,
      "d": 389.8272343750068,
      "v": 85
    },
    {
      "midi": 58,
      "hit": false,
      "t": 36887.701,
      "d": 768.4937708333455,
      "v": 76
    },
    {
      "midi": 67,
      "hit": false,
      "t": 37193.823000000004,
      "d": 71.74734375000116,
      "v": 60
    },
    {
      "midi": 69,
      "hit": false,
      "t": 37193.823000000004,
      "d": 95.6631250000064,
      "v": 78
    },
    {
      "midi": 62,
      "hit": false,
      "t": 37346.88400000001,
      "d": 168.20766145833477,
      "v": 82
    },
    {
      "midi": 67,
      "hit": false,
      "t": 37346.88400000001,
      "d": 218.43080208333413,
      "v": 72
    },
    {
      "midi": 70,
      "hit": false,
      "t": 37346.88400000001,
      "d": 310.10796354166814,
      "v": 93
    },
    {
      "midi": 67,
      "hit": false,
      "t": 37653.006000000016,
      "d": 124.36206249999668,
      "v": 78
    },
    {
      "midi": 62,
      "hit": false,
      "t": 37653.006000000016,
      "d": 262.27640104166494,
      "v": 72
    },
    {
      "midi": 50,
      "hit": false,
      "t": 37959.12800000001,
      "d": 270.24832812500244,
      "v": 66
    },
    {
      "midi": 62,
      "hit": false,
      "t": 37959.12800000001,
      "d": 340.40128645833465,
      "v": 87
    },
    {
      "midi": 66,
      "hit": false,
      "t": 37959.12800000001,
      "d": 340.40128645833465,
      "v": 95
    },
    {
      "midi": 57,
      "hit": false,
      "t": 38265.250000000015,
      "d": 383.44969270833826,
      "v": 72
    },
    {
      "midi": 62,
      "hit": false,
      "t": 38418.311000000016,
      "d": 78.12488541666971,
      "v": 60
    },
    {
      "midi": 66,
      "hit": false,
      "t": 38418.311000000016,
      "d": 96.4603177083336,
      "v": 66
    },
    {
      "midi": 62,
      "hit": false,
      "t": 38571.37200000002,
      "d": 79.71927083333867,
      "v": 58
    },
    {
      "midi": 67,
      "hit": false,
      "t": 38571.37200000002,
      "d": 148.27784375000192,
      "v": 85
    },
    {
      "midi": 62,
      "hit": false,
      "t": 38724.43300000002,
      "d": 168.20766145833477,
      "v": 68
    },
    {
      "midi": 69,
      "hit": false,
      "t": 38724.43300000002,
      "d": 192.12344270833273,
      "v": 89
    },
    {
      "midi": 57,
      "hit": false,
      "t": 38724.43300000002,
      "d": 596.3001458333383,
      "v": 80
    },
    {
      "midi": 62,
      "hit": false,
      "t": 39030.55500000002,
      "d": 246.3325468749972,
      "v": 70
    },
    {
      "midi": 67,
      "hit": false,
      "t": 39030.55500000002,
      "d": 288.58376041666634,
      "v": 93
    },
    {
      "midi": 62,
      "hit": false,
      "t": 39336.677000000025,
      "d": 190.52905729166378,
      "v": 72
    },
    {
      "midi": 66,
      "hit": false,
      "t": 39336.677000000025,
      "d": 242.3465833333321,
      "v": 91
    },
    {
      "midi": 54,
      "hit": false,
      "t": 39336.677000000025,
      "d": 775.6685052083267,
      "v": 66
    },
    {
      "midi": 62,
      "hit": false,
      "t": 39642.79900000002,
      "d": 55.80348958333343,
      "v": 56
    },
    {
      "midi": 67,
      "hit": false,
      "t": 39642.79900000002,
      "d": 117.98452083333541,
      "v": 78
    },
    {
      "midi": 57,
      "hit": false,
      "t": 39642.79900000002,
      "d": 247.92693229166616,
      "v": 48
    },
    {
      "midi": 62,
      "hit": false,
      "t": 39795.86000000002,
      "d": 382.6524999999965,
      "v": 85
    },
    {
      "midi": 69,
      "hit": false,
      "t": 39795.86000000002,
      "d": 474.3296614583305,
      "v": 98
    },
    {
      "midi": 57,
      "hit": false,
      "t": 40101.98200000002,
      "d": 243.94096875000105,
      "v": 85
    },
    {
      "midi": 62,
      "hit": false,
      "t": 40255.04300000002,
      "d": 181.75993749999907,
      "v": 85
    },
    {
      "midi": 51,
      "hit": false,
      "t": 40408.10400000002,
      "d": 309.3107708333264,
      "v": 95
    },
    {
      "midi": 58,
      "hit": false,
      "t": 40714.22600000002,
      "d": 202.48694791665912,
      "v": 80
    },
    {
      "midi": 63,
      "hit": false,
      "t": 40867.28700000001,
      "d": 473.53246874999604,
      "v": 98
    },
    {
      "midi": 67,
      "hit": false,
      "t": 41173.40900000001,
      "d": 235.96904166666354,
      "v": 85
    },
    {
      "midi": 70,
      "hit": false,
      "t": 41479.531,
      "d": 112.40417187500134,
      "v": 91
    },
    {
      "midi": 67,
      "hit": false,
      "t": 41479.531,
      "d": 136.3199531249993,
      "v": 66
    },
    {
      "midi": 75,
      "hit": false,
      "t": 41479.531,
      "d": 206.4729114583315,
      "v": 89
    },
    {
      "midi": 63,
      "hit": false,
      "t": 41479.531,
      "d": 455.99422916665935,
      "v": 62
    },
    {
      "midi": 75,
      "hit": false,
      "t": 41785.653,
      "d": 291.772531249997,
      "v": 89
    },
    {
      "midi": 70,
      "hit": false,
      "t": 41785.653,
      "d": 314.093927083326,
      "v": 93
    },
    {
      "midi": 67,
      "hit": false,
      "t": 41785.653,
      "d": 328.44339583332476,
      "v": 74
    },
    {
      "midi": 63,
      "hit": false,
      "t": 42091.774999999994,
      "d": 239.95500520832866,
      "v": 82
    },
    {
      "midi": 67,
      "hit": false,
      "t": 42244.83599999999,
      "d": 200.09536979167024,
      "v": 68
    },
    {
      "midi": 70,
      "hit": false,
      "t": 42244.83599999999,
      "d": 214.44483854166901,
      "v": 76
    },
    {
      "midi": 74,
      "hit": false,
      "t": 42244.83599999999,
      "d": 259.8848229166688,
      "v": 91
    },
    {
      "midi": 63,
      "hit": false,
      "t": 42550.95799999999,
      "d": 181.75993749999907,
      "v": 87
    },
    {
      "midi": 72,
      "hit": false,
      "t": 42550.95799999999,
      "d": 266.26236458333005,
      "v": 89
    },
    {
      "midi": 50,
      "hit": false,
      "t": 42857.07999999999,
      "d": 314.09392708333326,
      "v": 85
    },
    {
      "midi": 74,
      "hit": false,
      "t": 42857.07999999999,
      "d": 733.4172916666648,
      "v": 91
    },
    {
      "midi": 57,
      "hit": false,
      "t": 43163.20199999999,
      "d": 765.3050000000003,
      "v": 72
    },
    {
      "midi": 62,
      "hit": false,
      "t": 43316.262999999984,
      "d": 343.59005729167257,
      "v": 87
    },
    {
      "midi": 66,
      "hit": false,
      "t": 43622.38499999999,
      "d": 204.08133333333535,
      "v": 87
    },
    {
      "midi": 66,
      "hit": false,
      "t": 43928.50699999999,
      "d": 230.38869270833675,
      "v": 66
    },
    {
      "midi": 72,
      "hit": false,
      "t": 43928.50699999999,
      "d": 242.34658333333937,
      "v": 87
    },
    {
      "midi": 60,
      "hit": false,
      "t": 43928.50699999999,
      "d": 510.2033333333384,
      "v": 80
    },
    {
      "midi": 66,
      "hit": false,
      "t": 44234.62899999999,
      "d": 330.037781250001,
      "v": 82
    },
    {
      "midi": 72,
      "hit": false,
      "t": 44234.62899999999,
      "d": 410.55424479166686,
      "v": 98
    },
    {
      "midi": 60,
      "hit": false,
      "t": 44540.751,
      "d": 548.4685833333206,
      "v": 78
    },
    {
      "midi": 66,
      "hit": false,
      "t": 44693.81199999999,
      "d": 180.1655520833301,
      "v": 72
    },
    {
      "midi": 70,
      "hit": false,
      "t": 44693.81199999999,
      "d": 319.67427604166005,
      "v": 87
    },
    {
      "midi": 66,
      "hit": false,
      "t": 44999.93399999999,
      "d": 164.22169791666238,
      "v": 68
    },
    {
      "midi": 69,
      "hit": false,
      "t": 44999.93399999999,
      "d": 174.58520312499604,
      "v": 91
    },
    {
      "midi": 62,
      "hit": false,
      "t": 45306.05599999998,
      "d": 106.82382291666727,
      "v": 62
    },
    {
      "midi": 55,
      "hit": false,
      "t": 45306.05599999998,
      "d": 290.97533854166977,
      "v": 66
    },
    {
      "midi": 67,
      "hit": false,
      "t": 45306.05599999998,
      "d": 331.63216666666995,
      "v": 72
    },
    {
      "midi": 70,
      "hit": false,
      "t": 45306.05599999998,
      "d": 360.3311041666675,
      "v": 102
    },
    {
      "midi": 62,
      "hit": false,
      "t": 45612.177999999985,
      "d": 334.0237447916588,
      "v": 66
    },
    {
      "midi": 67,
      "hit": false,
      "t": 45765.23899999998,
      "d": 133.92837500000314,
      "v": 89
    },
    {
      "midi": 67,
      "hit": false,
      "t": 45918.29999999998,
      "d": 67.76138020832877,
      "v": 60
    },
    {
      "midi": 69,
      "hit": false,
      "t": 45918.29999999998,
      "d": 113.99855729166302,
      "v": 80
    },
    {
      "midi": 67,
      "hit": false,
      "t": 46071.360999999975,
      "d": 127.5508333333346,
      "v": 68
    },
    {
      "midi": 70,
      "hit": false,
      "t": 46071.360999999975,
      "d": 218.43080208333413,
      "v": 89
    },
    {
      "midi": 62,
      "hit": false,
      "t": 46071.360999999975,
      "d": 238.36061979166698,
      "v": 66
    },
    {
      "midi": 67,
      "hit": false,
      "t": 46377.48299999998,
      "d": 90.08277604166506,
      "v": 57
    },
    {
      "midi": 62,
      "hit": false,
      "t": 46377.48299999998,
      "d": 139.50872395832994,
      "v": 52
    },
    {
      "midi": 69,
      "hit": false,
      "t": 46377.48299999998,
      "d": 275.82867708332924,
      "v": 85
    },
    {
      "midi": 58,
      "hit": false,
      "t": 46377.48299999998,
      "d": 1064.2522656249785,
      "v": 59
    },
    {
      "midi": 62,
      "hit": false,
      "t": 46683.604999999974,
      "d": 241.5493906249976,
      "v": 70
    },
    {
      "midi": 67,
      "hit": false,
      "t": 46683.604999999974,
      "d": 251.91289583333128,
      "v": 91
    },
    {
      "midi": 67,
      "hit": false,
      "t": 46989.72699999997,
      "d": 59.789453124998545,
      "v": 53
    },
    {
      "midi": 62,
      "hit": false,
      "t": 46989.72699999997,
      "d": 103.63505208332936,
      "v": 60
    },
    {
      "midi": 69,
      "hit": false,
      "t": 46989.72699999997,
      "d": 103.63505208332936,
      "v": 80
    },
    {
      "midi": 62,
      "hit": false,
      "t": 47142.787999999964,
      "d": 79.7192708333314,
      "v": 53
    },
    {
      "midi": 67,
      "hit": false,
      "t": 47142.787999999964,
      "d": 79.7192708333314,
      "v": 53
    },
    {
      "midi": 70,
      "hit": false,
      "t": 47142.787999999964,
      "d": 295.7584947916621,
      "v": 95
    },
    {
      "midi": 67,
      "hit": false,
      "t": 47448.90999999996,
      "d": 318.07989062500565,
      "v": 82
    },
    {
      "midi": 62,
      "hit": false,
      "t": 47448.90999999996,
      "d": 344.38725000000704,
      "v": 82
    },
    {
      "midi": 50,
      "hit": false,
      "t": 47755.03199999996,
      "d": 176.97678124999948,
      "v": 91
    },
    {
      "midi": 57,
      "hit": false,
      "t": 47908.092999999964,
      "d": 1956.3109062500007,
      "v": 82
    },
    {
      "midi": 66,
      "hit": false,
      "t": 48061.153999999966,
      "d": 117.98452083333541,
      "v": 82
    },
    {
      "midi": 66,
      "hit": false,
      "t": 48214.21499999997,
      "d": 184.1515156250025,
      "v": 63
    },
    {
      "midi": 69,
      "hit": false,
      "t": 48214.21499999997,
      "d": 390.624427083334,
      "v": 89
    },
    {
      "midi": 62,
      "hit": false,
      "t": 48520.33699999997,
      "d": 220.0251874999958,
      "v": 80
    },
    {
      "midi": 66,
      "hit": false,
      "t": 48520.33699999997,
      "d": 231.98307812499843,
      "v": 89
    },
    {
      "midi": 66,
      "hit": false,
      "t": 48826.458999999966,
      "d": 178.57116666666843,
      "v": 72
    },
    {
      "midi": 72,
      "hit": false,
      "t": 48826.458999999966,
      "d": 206.4729114583315,
      "v": 95
    },
    {
      "midi": 66,
      "hit": false,
      "t": 49132.58099999996,
      "d": 300.54165104166896,
      "v": 87
    },
    {
      "midi": 72,
      "hit": false,
      "t": 49132.58099999996,
      "d": 373.8833802083391,
      "v": 102
    },
    {
      "midi": 62,
      "hit": false,
      "t": 49438.702999999965,
      "d": 262.27640104166494,
      "v": 87
    },
    {
      "midi": 66,
      "hit": false,
      "t": 49591.76399999997,
      "d": 221.61957291666477,
      "v": 89
    },
    {
      "midi": 70,
      "hit": false,
      "t": 49591.76399999997,
      "d": 275.82867708332924,
      "v": 105
    },
    {
      "midi": 69,
      "hit": false,
      "t": 49897.88599999996,
      "d": 227.9971145833333,
      "v": 87
    },
    {
      "midi": 62,
      "hit": false,
      "t": 49897.88599999996,
      "d": 291.772531249997,
      "v": 66
    },
    {
      "midi": 51,
      "hit": false,
      "t": 50204.00799999996,
      "d": 156.24977083333215,
      "v": 87
    },
    {
      "midi": 67,
      "hit": false,
      "t": 50204.00799999996,
      "d": 182.55713020833355,
      "v": 70
    },
    {
      "midi": 70,
      "hit": false,
      "t": 50204.00799999996,
      "d": 302.13603645833064,
      "v": 87
    },
    {
      "midi": 58,
      "hit": false,
      "t": 50357.06899999996,
      "d": 401.7851249999949,
      "v": 70
    },
    {
      "midi": 67,
      "hit": false,
      "t": 50510.129999999954,
      "d": 110.0125937499979,
      "v": 68
    },
    {
      "midi": 63,
      "hit": false,
      "t": 50510.129999999954,
      "d": 278.2202552083327,
      "v": 47
    },
    {
      "midi": 67,
      "hit": false,
      "t": 50663.190999999955,
      "d": 161.83011979166622,
      "v": 68
    },
    {
      "midi": 70,
      "hit": false,
      "t": 50663.190999999955,
      "d": 415.33740104166645,
      "v": 113
    },
    {
      "midi": 63,
      "hit": false,
      "t": 50969.31299999996,
      "d": 792.4095520833289,
      "v": 93
    },
    {
      "midi": 67,
      "hit": false,
      "t": 51275.434999999954,
      "d": 159.43854166667006,
      "v": 80
    },
    {
      "midi": 70,
      "hit": false,
      "t": 51275.434999999954,
      "d": 165.8160833333386,
      "v": 95
    },
    {
      "midi": 75,
      "hit": false,
      "t": 51275.434999999954,
      "d": 165.8160833333386,
      "v": 89
    },
    {
      "midi": 67,
      "hit": false,
      "t": 51581.55699999996,
      "d": 295.7584947916621,
      "v": 78
    },
    {
      "midi": 75,
      "hit": false,
      "t": 51581.55699999996,
      "d": 315.68831249999494,
      "v": 85
    },
    {
      "midi": 70,
      "hit": false,
      "t": 51581.55699999996,
      "d": 328.44339583332476,
      "v": 85
    },
    {
      "midi": 63,
      "hit": false,
      "t": 51887.67899999995,
      "d": 235.96904166666354,
      "v": 85
    },
    {
      "midi": 67,
      "hit": false,
      "t": 52040.73999999995,
      "d": 380.26092187500035,
      "v": 64
    },
    {
      "midi": 74,
      "hit": false,
      "t": 52040.73999999995,
      "d": 464.76334895833133,
      "v": 93
    },
    {
      "midi": 70,
      "hit": false,
      "t": 52040.73999999995,
      "d": 474.3296614583305,
      "v": 66
    },
    {
      "midi": 63,
      "hit": false,
      "t": 52346.86199999995,
      "d": 176.17958854165772,
      "v": 85
    },
    {
      "midi": 50,
      "hit": false,
      "t": 52652.98399999994,
      "d": 287.78656770833186,
      "v": 89
    },
    {
      "midi": 74,
      "hit": false,
      "t": 52652.98399999994,
      "d": 419.32336458333157,
      "v": 100
    },
    {
      "midi": 57,
      "hit": false,
      "t": 52959.105999999934,
      "d": 1406.2479374999966,
      "v": 68
    },
    {
      "midi": 62,
      "hit": false,
      "t": 53112.166999999936,
      "d": 180.1655520833301,
      "v": 62
    },
    {
      "midi": 72,
      "hit": false,
      "t": 53112.166999999936,
      "d": 330.0377812499937,
      "v": 91
    },
    {
      "midi": 62,
      "hit": false,
      "t": 53418.28899999993,
      "d": 108.41820833332895,
      "v": 43
    },
    {
      "midi": 70,
      "hit": false,
      "t": 53418.28899999993,
      "d": 271.8427135416641,
      "v": 98
    },
    {
      "midi": 62,
      "hit": false,
      "t": 53724.41099999993,
      "d": 158.64134895833558,
      "v": 72
    },
    {
      "midi": 69,
      "hit": false,
      "t": 53724.41099999993,
      "d": 579.5590989583361,
      "v": 98
    },
    {
      "midi": 62,
      "hit": false,
      "t": 54030.53299999993,
      "d": 348.3732135416649,
      "v": 82
    },
    {
      "midi": 66,
      "hit": false,
      "t": 54336.65499999993,
      "d": 479.9100104166646,
      "v": 68
    },
    {
      "midi": 54,
      "hit": false,
      "t": 54336.65499999993,
      "d": 526.1471874999988,
      "v": 60
    },
    {
      "midi": 62,
      "hit": false,
      "t": 54489.71599999993,
      "d": 164.22169791666965,
      "v": 68
    },
    {
      "midi": 69,
      "hit": false,
      "t": 54489.71599999993,
      "d": 352.3591770833373,
      "v": 89
    },
    {
      "midi": 62,
      "hit": false,
      "t": 54795.83799999993,
      "d": 247.92693229166616,
      "v": 70
    },
    {
      "midi": 63,
      "hit": false,
      "t": 55101.959999999934,
      "d": 50.22314062499936,
      "v": 49
    },
    {
      "midi": 70,
      "hit": false,
      "t": 55101.959999999934,
      "d": 133.92837499999587,
      "v": 102
    },
    {
      "midi": 51,
      "hit": false,
      "t": 55101.959999999934,
      "d": 256.69605208333087,
      "v": 82
    },
    {
      "midi": 63,
      "hit": false,
      "t": 55255.02099999993,
      "d": 384.24688541667274,
      "v": 78
    },
    {
      "midi": 67,
      "hit": false,
      "t": 55408.08199999993,
      "d": 231.9830781250057,
      "v": 80
    },
    {
      "midi": 70,
      "hit": false,
      "t": 55561.14299999993,
      "d": 238.36061979167425,
      "v": 89
    },
    {
      "midi": 67,
      "hit": false,
      "t": 55867.26499999994,
      "d": 160.23573437499726,
      "v": 82
    },
    {
      "midi": 63,
      "hit": false,
      "t": 55867.26499999994,
      "d": 226.40272916666436,
      "v": 80
    },
    {
      "midi": 70,
      "hit": false,
      "t": 56173.38699999994,
      "d": 69.35576562499773,
      "v": 98
    },
    {
      "midi": 67,
      "hit": false,
      "t": 56173.38699999994,
      "d": 90.08277604166506,
      "v": 76
    },
    {
      "midi": 75,
      "hit": false,
      "t": 56173.38699999994,
      "d": 125.95644791666564,
      "v": 89
    },
    {
      "midi": 63,
      "hit": false,
      "t": 56173.38699999994,
      "d": 504.62298437499703,
      "v": 57
    },
    {
      "midi": 75,
      "hit": false,
      "t": 56479.50899999993,
      "d": 299.7444583333345,
      "v": 93
    },
    {
      "midi": 67,
      "hit": false,
      "t": 56479.50899999993,
      "d": 314.09392708333326,
      "v": 76
    },
    {
      "midi": 70,
      "hit": false,
      "t": 56479.50899999993,
      "d": 349.96759895833384,
      "v": 102
    },
    {
      "midi": 63,
      "hit": false,
      "t": 56785.630999999936,
      "d": 214.44483854166174,
      "v": 87
    },
    {
      "midi": 70,
      "hit": false,
      "t": 56938.69199999993,
      "d": 58.195067708336865,
      "v": 47
    },
    {
      "midi": 67,
      "hit": false,
      "t": 56938.69199999993,
      "d": 200.09536979167024,
      "v": 72
    },
    {
      "midi": 74,
      "hit": false,
      "t": 56938.69199999993,
      "d": 288.5837604166736,
      "v": 89
    },
    {
      "midi": 63,
      "hit": false,
      "t": 57244.81399999994,
      "d": 189.73186458333657,
      "v": 93
    },
    {
      "midi": 72,
      "hit": false,
      "t": 57244.81399999994,
      "d": 257.4932447916726,
      "v": 82
    },
    {
      "midi": 50,
      "hit": false,
      "t": 57550.93599999994,
      "d": 2197.860296875013,
      "v": 98
    },
    {
      "midi": 57,
      "hit": false,
      "t": 57857.057999999946,
      "d": 580.3562916666706,
      "v": 87
    },
    {
      "midi": 62,
      "hit": false,
      "t": 58010.11899999995,
      "d": 224.0111510416682,
      "v": 68
    },
    {
      "midi": 62,
      "hit": false,
      "t": 58316.24099999995,
      "d": 436.0644114583338,
      "v": 70
    },
    {
      "midi": 66,
      "hit": false,
      "t": 58316.24099999995,
      "d": 502.2314062500009,
      "v": 87
    },
    {
      "midi": 69,
      "hit": false,
      "t": 58316.24099999995,
      "d": 502.2314062500009,
      "v": 91
    },
    {
      "midi": 57,
      "hit": false,
      "t": 58622.362999999954,
      "d": 479.9100104166646,
      "v": 91
    },
    {
      "midi": 62,
      "hit": false,
      "t": 58928.48499999995,
      "d": 322.06585416667076,
      "v": 74
    },
    {
      "midi": 69,
      "hit": false,
      "t": 58928.48499999995,
      "d": 353.9535625000062,
      "v": 85
    },
    {
      "midi": 66,
      "hit": false,
      "t": 58928.48499999995,
      "d": 405.77108854167454,
      "v": 68
    },
    {
      "midi": 54,
      "hit": false,
      "t": 59234.60699999995,
      "d": 510.2033333333384,
      "v": 80
    },
    {
      "midi": 62,
      "hit": false,
      "t": 59387.667999999954,
      "d": 307.716385416672,
      "v": 89
    },
    {
      "midi": 57,
      "hit": false,
      "t": 59693.78999999996,
      "d": 125.95644791666564,
      "v": 74
    },
    {
      "midi": 66,
      "hit": false,
      "t": 59693.78999999996,
      "d": 132.3339895833342,
      "v": 82
    },
    {
      "midi": 62,
      "hit": false,
      "t": 59846.85099999996,
      "d": 181.75993749999907,
      "v": 80
    },
    {
      "midi": 51,
      "hit": false,
      "t": 59999.91199999996,
      "d": 258.29043749999255,
      "v": 93
    },
    {
      "midi": 58,
      "hit": false,
      "t": 60152.972999999954,
      "d": 2047.988067708342,
      "v": 80
    },
    {
      "midi": 63,
      "hit": false,
      "t": 60306.033999999956,
      "d": 330.037781250001,
      "v": 60
    },
    {
      "midi": 67,
      "hit": false,
      "t": 60459.09499999996,
      "d": 262.27640104166494,
      "v": 82
    },
    {
      "midi": 67,
      "hit": false,
      "t": 60765.21699999995,
      "d": 87.6911979166689,
      "v": 35
    },
    {
      "midi": 70,
      "hit": false,
      "t": 60765.21699999995,
      "d": 200.09536979167024,
      "v": 80
    },
    {
      "midi": 63,
      "hit": false,
      "t": 60765.21699999995,
      "d": 629.7822395833355,
      "v": 53
    },
    {
      "midi": 70,
      "hit": false,
      "t": 61071.338999999956,
      "d": 196.10940624999785,
      "v": 107
    },
    {
      "midi": 67,
      "hit": false,
      "t": 61071.338999999956,
      "d": 205.67571874999703,
      "v": 82
    },
    {
      "midi": 75,
      "hit": false,
      "t": 61071.338999999956,
      "d": 224.01115104166092,
      "v": 98
    },
    {
      "midi": 67,
      "hit": false,
      "t": 61377.46099999995,
      "d": 318.07989062500565,
      "v": 85
    },
    {
      "midi": 75,
      "hit": false,
      "t": 61377.46099999995,
      "d": 318.07989062500565,
      "v": 91
    },
    {
      "midi": 70,
      "hit": false,
      "t": 61377.46099999995,
      "d": 343.59005729167257,
      "v": 100
    },
    {
      "midi": 63,
      "hit": false,
      "t": 61683.582999999955,
      "d": 229.59150000000227,
      "v": 82
    },
    {
      "midi": 67,
      "hit": false,
      "t": 61836.64399999996,
      "d": 224.0111510416682,
      "v": 63
    },
    {
      "midi": 70,
      "hit": false,
      "t": 61836.64399999996,
      "d": 240.7521979166704,
      "v": 80
    },
    {
      "midi": 74,
      "hit": false,
      "t": 61836.64399999996,
      "d": 250.3185104166696,
      "v": 89
    },
    {
      "midi": 63,
      "hit": false,
      "t": 62142.76599999996,
      "d": 168.20766145833477,
      "v": 89
    },
    {
      "midi": 72,
      "hit": false,
      "t": 62142.76599999996,
      "d": 266.26236458333733,
      "v": 91
    },
    {
      "midi": 74,
      "hit": false,
      "t": 62448.88799999996,
      "d": 312.4995416666716,
      "v": 95
    },
    {
      "midi": 50,
      "hit": false,
      "t": 62448.88799999996,
      "d": 2260.041328125015,
      "v": 98
    },
    {
      "midi": 69,
      "hit": false,
      "t": 62755.009999999966,
      "d": 155.45257812500495,
      "v": 64
    },
    {
      "midi": 57,
      "hit": false,
      "t": 62755.009999999966,
      "d": 269.45113541667524,
      "v": 63
    },
    {
      "midi": 66,
      "hit": false,
      "t": 62908.07099999997,
      "d": 302.1360364583379,
      "v": 105
    },
    {
      "midi": 57,
      "hit": false,
      "t": 63214.19299999997,
      "d": 455.9942291666666,
      "v": 100
    },
    {
      "midi": 62,
      "hit": false,
      "t": 63520.31499999997,
      "d": 458.3858072916628,
      "v": 102
    },
    {
      "midi": 54,
      "hit": false,
      "t": 63826.43699999997,
      "d": 901.6249531250069,
      "v": 80
    },
    {
      "midi": 62,
      "hit": false,
      "t": 64132.55899999997,
      "d": 106.02663020833279,
      "v": 62
    },
    {
      "midi": 57,
      "hit": false,
      "t": 64285.61999999997,
      "d": 173.78801041666884,
      "v": 78
    },
    {
      "midi": 72,
      "hit": false,
      "t": 64285.61999999997,
      "d": 377.8693437500042,
      "v": 102
    },
    {
      "midi": 62,
      "hit": false,
      "t": 64285.61999999997,
      "d": 401.78512500000215,
      "v": 87
    },
    {
      "midi": 66,
      "hit": false,
      "t": 64285.61999999997,
      "d": 411.35143750000134,
      "v": 95
    },
    {
      "midi": 57,
      "hit": false,
      "t": 64591.74199999998,
      "d": 170.59923958333093,
      "v": 62
    },
    {
      "midi": 62,
      "hit": false,
      "t": 64897.86399999997,
      "d": 94.86593229166465,
      "v": 60
    },
    {
      "midi": 55,
      "hit": false,
      "t": 64897.86399999997,
      "d": 271.04552083332965,
      "v": 68
    },
    {
      "midi": 67,
      "hit": false,
      "t": 64897.86399999997,
      "d": 328.44339583333203,
      "v": 98
    },
    {
      "midi": 62,
      "hit": false,
      "t": 65203.98599999997,
      "d": 326.0518177083359,
      "v": 68
    },
    {
      "midi": 58,
      "hit": false,
      "t": 65203.98599999997,
      "d": 431.28125520834146,
      "v": 66
    },
    {
      "midi": 67,
      "hit": false,
      "t": 65357.04699999997,
      "d": 106.02663020833279,
      "v": 76
    },
    {
      "midi": 69,
      "hit": false,
      "t": 65510.10799999997,
      "d": 104.43224479167111,
      "v": 74
    },
    {
      "midi": 70,
      "hit": false,
      "t": 65663.16899999998,
      "d": 243.94096875000105,
      "v": 93
    },
    {
      "midi": 67,
      "hit": false,
      "t": 65663.16899999998,
      "d": 251.91289583333128,
      "v": 78
    },
    {
      "midi": 62,
      "hit": false,
      "t": 65663.16899999998,
      "d": 511.7977187499928,
      "v": 85
    },
    {
      "midi": 67,
      "hit": false,
      "t": 65969.29099999998,
      "d": 42.251213541661855,
      "v": 28
    },
    {
      "midi": 69,
      "hit": false,
      "t": 65969.29099999998,
      "d": 278.2202552083181,
      "v": 87
    },
    {
      "midi": 67,
      "hit": false,
      "t": 66275.41299999997,
      "d": 247.92693229166616,
      "v": 89
    },
    {
      "midi": 62,
      "hit": false,
      "t": 66275.41299999997,
      "d": 356.3451406249951,
      "v": 85
    },
    {
      "midi": 58,
      "hit": false,
      "t": 66275.41299999997,
      "d": 748.5639531249908,
      "v": 76
    },
    {
      "midi": 67,
      "hit": false,
      "t": 66581.53499999997,
      "d": 42.251213541661855,
      "v": 47
    },
    {
      "midi": 69,
      "hit": false,
      "t": 66581.53499999997,
      "d": 82.11084895832755,
      "v": 74
    },
    {
      "midi": 67,
      "hit": false,
      "t": 66734.59599999996,
      "d": 75.73330729166628,
      "v": 59
    },
    {
      "midi": 62,
      "hit": false,
      "t": 66734.59599999996,
      "d": 172.19362499999988,
      "v": 87
    },
    {
      "midi": 70,
      "hit": false,
      "t": 66734.59599999996,
      "d": 318.07989062499837,
      "v": 95
    },
    {
      "midi": 67,
      "hit": false,
      "t": 67040.71799999996,
      "d": 76.53049999999348,
      "v": 74
    },
    {
      "midi": 62,
      "hit": false,
      "t": 67040.71799999996,
      "d": 213.64764583331998,
      "v": 85
    },
    {
      "midi": 54,
      "hit": false,
      "t": 67193.77899999995,
      "d": 102.83785937499488,
      "v": 10
    },
    {
      "midi": 50,
      "hit": false,
      "t": 67346.83999999995,
      "d": 275.8286770833365,
      "v": 80
    },
    {
      "midi": 62,
      "hit": false,
      "t": 67346.83999999995,
      "d": 317.28269791667117,
      "v": 66
    },
    {
      "midi": 66,
      "hit": false,
      "t": 67346.83999999995,
      "d": 329.2405885416665,
      "v": 105
    },
    {
      "midi": 57,
      "hit": false,
      "t": 67652.96199999996,
      "d": 370.69460937500116,
      "v": 78
    },
    {
      "midi": 62,
      "hit": false,
      "t": 67806.02299999996,
      "d": 51.81752604166104,
      "v": 49
    },
    {
      "midi": 66,
      "hit": false,
      "t": 67806.02299999996,
      "d": 89.28558333333058,
      "v": 85
    },
    {
      "midi": 54,
      "hit": false,
      "t": 67959.08399999996,
      "d": 55.803489583326154,
      "v": 53
    },
    {
      "midi": 62,
      "hit": false,
      "t": 67959.08399999996,
      "d": 79.7192708333314,
      "v": 60
    },
    {
      "midi": 67,
      "hit": false,
      "t": 67959.08399999996,
      "d": 107.62101562500175,
      "v": 80
    },
    {
      "midi": 62,
      "hit": false,
      "t": 68112.14499999996,
      "d": 172.19362499999988,
      "v": 66
    },
    {
      "midi": 69,
      "hit": false,
      "t": 68112.14499999996,
      "d": 227.99711458332604,
      "v": 85
    },
    {
      "midi": 57,
      "hit": false,
      "t": 68112.14499999996,
      "d": 466.357734374993,
      "v": 70
    },
    {
      "midi": 54,
      "hit": false,
      "t": 68112.14499999996,
      "d": 593.9085677083349,
      "v": 70
    },
    {
      "midi": 62,
      "hit": false,
      "t": 68418.26699999995,
      "d": 201.6897552083392,
      "v": 70
    },
    {
      "midi": 67,
      "hit": false,
      "t": 68418.26699999995,
      "d": 259.88482291667606,
      "v": 87
    },
    {
      "midi": 62,
      "hit": false,
      "t": 68724.38899999997,
      "d": 198.50098437500128,
      "v": 72
    },
    {
      "midi": 66,
      "hit": false,
      "t": 68724.38899999997,
      "d": 243.94096875000105,
      "v": 98
    },
    {
      "midi": 57,
      "hit": false,
      "t": 68724.38899999997,
      "d": 365.91145312500885,
      "v": 87
    },
    {
      "midi": 62,
      "hit": false,
      "t": 69030.51099999997,
      "d": 59.78945312500582,
      "v": 57
    },
    {
      "midi": 67,
      "hit": false,
      "t": 69030.51099999997,
      "d": 95.6631250000064,
      "v": 72
    },
    {
      "midi": 62,
      "hit": false,
      "t": 69183.57199999997,
      "d": 196.90659895833232,
      "v": 70
    },
    {
      "midi": 69,
      "hit": false,
      "t": 69183.57199999997,
      "d": 276.6258697916637,
      "v": 89
    },
    {
      "midi": 57,
      "hit": false,
      "t": 69183.57199999997,
      "d": 488.67913020834385,
      "v": 80
    },
    {
      "midi": 66,
      "hit": false,
      "t": 69489.69399999997,
      "d": 107.62101562500175,
      "v": 82
    },
    {
      "midi": 62,
      "hit": false,
      "t": 69642.75499999998,
      "d": 127.55083333334187,
      "v": 70
    },
    {
      "midi": 51,
      "hit": false,
      "t": 69795.81599999998,
      "d": 194.51502083333617,
      "v": 87
    },
    {
      "midi": 58,
      "hit": false,
      "t": 69948.87699999998,
      "d": 209.66168229166942,
      "v": 74
    },
    {
      "midi": 63,
      "hit": false,
      "t": 70101.93799999998,
      "d": 365.9114531249943,
      "v": 91
    },
    {
      "midi": 67,
      "hit": false,
      "t": 70254.99899999998,
      "d": 251.91289583333128,
      "v": 89
    },
    {
      "midi": 70,
      "hit": false,
      "t": 70561.12099999998,
      "d": 200.09536979167024,
      "v": 87
    },
    {
      "midi": 63,
      "hit": false,
      "t": 70561.12099999998,
      "d": 729.431328125007,
      "v": 78
    },
    {
      "midi": 67,
      "hit": false,
      "t": 70867.24299999999,
      "d": 177.77397395833395,
      "v": 68
    },
    {
      "midi": 70,
      "hit": false,
      "t": 70867.24299999999,
      "d": 177.77397395833395,
      "v": 89
    },
    {
      "midi": 75,
      "hit": false,
      "t": 70867.24299999999,
      "d": 197.70379166667408,
      "v": 87
    },
    {
      "midi": 67,
      "hit": false,
      "t": 71173.36499999999,
      "d": 256.69605208333815,
      "v": 60
    },
    {
      "midi": 75,
      "hit": false,
      "t": 71173.36499999999,
      "d": 271.8427135416714,
      "v": 85
    },
    {
      "midi": 70,
      "hit": false,
      "t": 71173.36499999999,
      "d": 349.96759895833384,
      "v": 87
    },
    {
      "midi": 63,
      "hit": false,
      "t": 71479.487,
      "d": 224.01115104166092,
      "v": 87
    },
    {
      "midi": 67,
      "hit": false,
      "t": 71632.548,
      "d": 200.09536979165568,
      "v": 66
    },
    {
      "midi": 74,
      "hit": false,
      "t": 71632.548,
      "d": 264.6679791666538,
      "v": 89
    },
    {
      "midi": 63,
      "hit": false,
      "t": 71938.66999999998,
      "d": 147.48065104166744,
      "v": 93
    },
    {
      "midi": 72,
      "hit": false,
      "t": 71938.66999999998,
      "d": 204.08133333333535,
      "v": 93
    },
    {
      "midi": 50,
      "hit": false,
      "t": 72244.79199999999,
      "d": 311.7023489583371,
      "v": 82
    },
    {
      "midi": 72,
      "hit": false,
      "t": 72244.79199999999,
      "d": 413.7430156250048,
      "v": 98
    },
    {
      "midi": 57,
      "hit": false,
      "t": 72550.91399999999,
      "d": 876.1147864583327,
      "v": 72
    },
    {
      "midi": 70,
      "hit": false,
      "t": 72703.97499999999,
      "d": 279.81464062500163,
      "v": 107
    },
    {
      "midi": 62,
      "hit": false,
      "t": 73010.097,
      "d": 181.75993749999907,
      "v": 63
    },
    {
      "midi": 69,
      "hit": false,
      "t": 73010.097,
      "d": 199.29817708332848,
      "v": 78
    },
    {
      "midi": 69,
      "hit": false,
      "t": 73316.21899999998,
      "d": 298.1500729166728,
      "v": 91
    },
    {
      "midi": 62,
      "hit": false,
      "t": 73316.21899999998,
      "d": 343.59005729167257,
      "v": 70
    },
    {
      "midi": 67,
      "hit": false,
      "t": 73622.34099999999,
      "d": 380.26092187500035,
      "v": 95
    },
    {
      "midi": 57,
      "hit": false,
      "t": 73622.34099999999,
      "d": 744.5779895833402,
      "v": 60
    },
    {
      "midi": 62,
      "hit": false,
      "t": 73928.46299999999,
      "d": 267.8567500000063,
      "v": 68
    },
    {
      "midi": 66,
      "hit": false,
      "t": 74081.52399999999,
      "d": 278.2202552083327,
      "v": 102
    },
    {
      "midi": 50,
      "hit": false,
      "t": 74387.646,
      "d": 239.95500520833593,
      "v": 74
    },
    {
      "midi": 62,
      "hit": false,
      "t": 74387.646,
      "d": 239.95500520833593,
      "v": 87
    },
    {
      "midi": 62,
      "hit": false,
      "t": 74693.768,
      "d": 276.6258697916637,
      "v": 89
    },
    {
      "midi": 55,
      "hit": false,
      "t": 74693.768,
      "d": 388.2328489583306,
      "v": 80
    },
    {
      "midi": 67,
      "hit": false,
      "t": 74999.89,
      "d": 174.5852031249815,
      "v": 87
    },
    {
      "midi": 62,
      "hit": false,
      "t": 75152.95099999999,
      "d": 388.232848958316,
      "v": 78
    },
    {
      "midi": 58,
      "hit": false,
      "t": 75152.95099999999,
      "d": 491.86790104165266,
      "v": 78
    },
    {
      "midi": 69,
      "hit": false,
      "t": 75306.01199999999,
      "d": 82.11084895832755,
      "v": 70
    },
    {
      "midi": 70,
      "hit": false,
      "t": 75459.07299999997,
      "d": 140.30591666666442,
      "v": 95
    },
    {
      "midi": 67,
      "hit": false,
      "t": 75459.07299999997,
      "d": 170.59923958333093,
      "v": 60
    },
    {
      "midi": 67,
      "hit": false,
      "t": 75765.19499999998,
      "d": 123.5648697916622,
      "v": 64
    },
    {
      "midi": 70,
      "hit": false,
      "t": 75765.19499999998,
      "d": 172.19362499999988,
      "v": 89
    },
    {
      "midi": 62,
      "hit": false,
      "t": 75765.19499999998,
      "d": 381.8553072916693,
      "v": 76
    },
    {
      "midi": 55,
      "hit": false,
      "t": 75765.19499999998,
      "d": 1133.6080312499835,
      "v": 78
    },
    {
      "midi": 67,
      "hit": false,
      "t": 76071.31699999998,
      "d": 277.42306250000547,
      "v": 60
    },
    {
      "midi": 70,
      "hit": false,
      "t": 76071.31699999998,
      "d": 312.4995416666643,
      "v": 98
    },
    {
      "midi": 74,
      "hit": false,
      "t": 76071.31699999998,
      "d": 312.4995416666643,
      "v": 93
    },
    {
      "midi": 62,
      "hit": false,
      "t": 76377.43899999998,
      "d": 596.3001458333019,
      "v": 91
    },
    {
      "midi": 67,
      "hit": false,
      "t": 76530.49999999999,
      "d": 82.11084895832755,
      "v": 68
    },
    {
      "midi": 70,
      "hit": false,
      "t": 76530.49999999999,
      "d": 322.06585416664893,
      "v": 107
    },
    {
      "midi": 58,
      "hit": false,
      "t": 76836.62199999997,
      "d": 110.01259374998335,
      "v": 57
    },
    {
      "midi": 67,
      "hit": false,
      "t": 76836.62199999997,
      "d": 204.08133333330625,
      "v": 68
    },
    {
      "midi": 70,
      "hit": false,
      "t": 76989.68299999995,
      "d": 94.06873958333745,
      "v": 98
    },
    {
      "midi": 50,
      "hit": false,
      "t": 77142.74399999995,
      "d": 322.0658541666635,
      "v": 102
    },
    {
      "midi": 57,
      "hit": false,
      "t": 77448.86599999995,
      "d": 384.24688541663636,
      "v": 80
    },
    {
      "midi": 62,
      "hit": false,
      "t": 77601.92699999994,
      "d": 121.97048437499325,
      "v": 80
    },
    {
      "midi": 62,
      "hit": false,
      "t": 77754.98799999992,
      "d": 103.63505208332208,
      "v": 70
    },
    {
      "midi": 66,
      "hit": false,
      "t": 77754.98799999992,
      "d": 113.99855729164847,
      "v": 98
    },
    {
      "midi": 62,
      "hit": false,
      "t": 77908.04899999991,
      "d": 113.99855729166302,
      "v": 64
    },
    {
      "midi": 57,
      "hit": false,
      "t": 77908.04899999991,
      "d": 200.09536979167024,
      "v": 47
    },
    {
      "midi": 67,
      "hit": false,
      "t": 77908.04899999991,
      "d": 227.9971145833406,
      "v": 82
    },
    {
      "midi": 54,
      "hit": false,
      "t": 77908.04899999991,
      "d": 263.8707864583412,
      "v": 66
    },
    {
      "midi": 62,
      "hit": false,
      "t": 78214.17099999991,
      "d": 161.03292708333174,
      "v": 72
    },
    {
      "midi": 69,
      "hit": false,
      "t": 78214.17099999991,
      "d": 184.15151562499523,
      "v": 98
    },
    {
      "midi": 57,
      "hit": false,
      "t": 78214.17099999991,
      "d": 514.1892968749889,
      "v": 66
    },
    {
      "midi": 62,
      "hit": false,
      "t": 78520.2929999999,
      "d": 209.66168229166942,
      "v": 85
    },
    {
      "midi": 69,
      "hit": false,
      "t": 78520.2929999999,
      "d": 229.59150000000955,
      "v": 100
    },
    {
      "midi": 62,
      "hit": false,
      "t": 78826.4149999999,
      "d": 62.18103125000198,
      "v": 64
    },
    {
      "midi": 69,
      "hit": false,
      "t": 78826.4149999999,
      "d": 100.44628124999872,
      "v": 87
    },
    {
      "midi": 57,
      "hit": false,
      "t": 78826.4149999999,
      "d": 300.54165104166896,
      "v": 64
    },
    {
      "midi": 62,
      "hit": false,
      "t": 78979.47599999991,
      "d": 86.09681250000722,
      "v": 62
    },
    {
      "midi": 67,
      "hit": false,
      "t": 78979.47599999991,
      "d": 261.47920833333046,
      "v": 91
    },
    {
      "midi": 62,
      "hit": false,
      "t": 79285.59799999991,
      "d": 65.36980208333989,
      "v": 47
    },
    {
      "midi": 57,
      "hit": false,
      "t": 79285.59799999991,
      "d": 133.92837500000314,
      "v": 68
    },
    {
      "midi": 66,
      "hit": false,
      "t": 79285.59799999991,
      "d": 227.9971145833406,
      "v": 85
    },
    {
      "midi": 67,
      "hit": false,
      "t": 79591.71999999991,
      "d": 125.95644791667291,
      "v": 89
    },
    {
      "midi": 51,
      "hit": false,
      "t": 79591.71999999991,
      "d": 225.60553645832988,
      "v": 85
    },
    {
      "midi": 58,
      "hit": false,
      "t": 79744.78099999992,
      "d": 187.34028645833314,
      "v": 63
    },
    {
      "midi": 63,
      "hit": false,
      "t": 79897.84199999992,
      "d": 347.5760208333377,
      "v": 102
    },
    {
      "midi": 67,
      "hit": false,
      "t": 80050.90299999992,
      "d": 246.3325468749972,
      "v": 82
    },
    {
      "midi": 70,
      "hit": false,
      "t": 80357.02499999992,
      "d": 175.3823958333378,
      "v": 89
    },
    {
      "midi": 63,
      "hit": false,
      "t": 80357.02499999992,
      "d": 471.93808333334164,
      "v": 72
    },
    {
      "midi": 67,
      "hit": false,
      "t": 80663.14699999992,
      "d": 297.3528802083456,
      "v": 64
    },
    {
      "midi": 75,
      "hit": false,
      "t": 80663.14699999992,
      "d": 467.9521197916911,
      "v": 95
    },
    {
      "midi": 70,
      "hit": false,
      "t": 80663.14699999992,
      "d": 489.4763229166856,
      "v": 105
    },
    {
      "midi": 63,
      "hit": false,
      "t": 80969.26899999994,
      "d": 573.9787500000093,
      "v": 100
    },
    {
      "midi": 67,
      "hit": false,
      "t": 81275.39099999995,
      "d": 368.303031250005,
      "v": 102
    },
    {
      "midi": 58,
      "hit": false,
      "t": 81581.51299999995,
      "d": 348.37321354165033,
      "v": 85
    },
    {
      "midi": 70,
      "hit": false,
      "t": 81734.57399999995,
      "d": 121.97048437499325,
      "v": 95
    },
    {
      "midi": 67,
      "hit": false,
      "t": 81887.63499999994,
      "d": 242.3465833333321,
      "v": 74
    },
    {
      "midi": 50,
      "hit": false,
      "t": 82040.69599999994,
      "d": 326.84901041667035,
      "v": 98
    },
    {
      "midi": 57,
      "hit": false,
      "t": 82346.81799999994,
      "d": 1792.089208333302,
      "v": 74
    },
    {
      "midi": 62,
      "hit": false,
      "t": 82499.87899999994,
      "d": 429.68686979166523,
      "v": 100
    },
    {
      "midi": 66,
      "hit": false,
      "t": 82806.00099999995,
      "d": 188.13747916666034,
      "v": 87
    },
    {
      "midi": 66,
      "hit": false,
      "t": 83112.12299999993,
      "d": 251.91289583333128,
      "v": 63
    },
    {
      "midi": 69,
      "hit": false,
      "t": 83112.12299999993,
      "d": 259.8848229166615,
      "v": 85
    },
    {
      "midi": 63,
      "hit": false,
      "t": 83418.24499999992,
      "d": 67.76138020833605,
      "v": 78
    },
    {
      "midi": 75,
      "hit": false,
      "t": 83418.24499999992,
      "d": 331.63216666666267,
      "v": 91
    },
    {
      "midi": 69,
      "hit": false,
      "t": 83418.24499999992,
      "d": 343.590057291658,
      "v": 89
    },
    {
      "midi": 66,
      "hit": false,
      "t": 83418.24499999992,
      "d": 349.9675989583193,
      "v": 57
    },
    {
      "midi": 63,
      "hit": false,
      "t": 83724.36699999993,
      "d": 81.3136562499858,
      "v": 80
    },
    {
      "midi": 66,
      "hit": false,
      "t": 83877.42799999991,
      "d": 306.122000000003,
      "v": 51
    },
    {
      "midi": 74,
      "hit": false,
      "t": 83877.42799999991,
      "d": 315.6883125000022,
      "v": 100
    },
    {
      "midi": 69,
      "hit": false,
      "t": 83877.42799999991,
      "d": 326.0518177083286,
      "v": 85
    },
    {
      "midi": 62,
      "hit": false,
      "t": 84183.54999999992,
      "d": 134.72556770833035,
      "v": 89
    },
    {
      "midi": 63,
      "hit": false,
      "t": 84489.67199999992,
      "d": 137.91433854166826,
      "v": 74
    },
    {
      "midi": 70,
      "hit": false,
      "t": 84489.67199999992,
      "d": 172.19362499999988,
      "v": 102
    },
    {
      "midi": 51,
      "hit": false,
      "t": 84489.67199999992,
      "d": 310.10796354166814,
      "v": 62
    },
    {
      "midi": 58,
      "hit": false,
      "t": 84489.67199999992,
      "d": 336.41532291666954,
      "v": 64
    },
    {
      "midi": 67,
      "hit": false,
      "t": 84642.73299999992,
      "d": 129.94241145833803,
      "v": 70
    },
    {
      "midi": 63,
      "hit": false,
      "t": 84795.79399999992,
      "d": 121.97048437499325,
      "v": 63
    },
    {
      "midi": 63,
      "hit": false,
      "t": 84948.85499999991,
      "d": 254.30447395832743,
      "v": 68
    },
    {
      "midi": 70,
      "hit": false,
      "t": 84948.85499999991,
      "d": 254.30447395832743,
      "v": 93
    },
    {
      "midi": 58,
      "hit": false,
      "t": 84948.85499999991,
      "d": 300.5416510416544,
      "v": 61
    },
    {
      "midi": 63,
      "hit": false,
      "t": 85254.9769999999,
      "d": 179.3683593750029,
      "v": 57
    },
    {
      "midi": 67,
      "hit": false,
      "t": 85254.9769999999,
      "d": 224.01115104167548,
      "v": 85
    },
    {
      "midi": 55,
      "hit": false,
      "t": 85254.9769999999,
      "d": 904.016531250003,
      "v": 66
    },
    {
      "midi": 58,
      "hit": false,
      "t": 85561.0989999999,
      "d": 129.94241145833803,
      "v": 49
    },
    {
      "midi": 63,
      "hit": false,
      "t": 85561.0989999999,
      "d": 266.26236458333733,
      "v": 58
    },
    {
      "midi": 63,
      "hit": false,
      "t": 85867.2209999999,
      "d": 304.52761458333407,
      "v": 72
    },
    {
      "midi": 70,
      "hit": false,
      "t": 85867.2209999999,
      "d": 304.52761458333407,
      "v": 82
    },
    {
      "midi": 67,
      "hit": false,
      "t": 85867.2209999999,
      "d": 348.3732135416649,
      "v": 87
    },
    {
      "midi": 58,
      "hit": false,
      "t": 86173.3429999999,
      "d": 331.63216666666267,
      "v": 85
    },
    {
      "midi": 63,
      "hit": false,
      "t": 86326.40399999991,
      "d": 258.29043749999255,
      "v": 82
    },
    {
      "midi": 70,
      "hit": false,
      "t": 86632.5259999999,
      "d": 131.53679687500698,
      "v": 78
    },
    {
      "midi": 58,
      "hit": false,
      "t": 86632.5259999999,
      "d": 195.31221354166337,
      "v": 74
    },
    {
      "midi": 67,
      "hit": false,
      "t": 86785.5869999999,
      "d": 98.85189583332976,
      "v": 64
    },
    {
      "midi": 54,
      "hit": false,
      "t": 86785.5869999999,
      "d": 182.55713020834082,
      "v": 54
    },
    {
      "midi": 50,
      "hit": false,
      "t": 86938.6479999999,
      "d": 402.58231770833663,
      "v": 85
    },
    {
      "midi": 66,
      "hit": false,
      "t": 87091.7089999999,
      "d": 129.94241145833803,
      "v": 56
    },
    {
      "midi": 62,
      "hit": false,
      "t": 87091.7089999999,
      "d": 143.49468750000233,
      "v": 85
    },
    {
      "midi": 57,
      "hit": false,
      "t": 87244.7699999999,
      "d": 330.03778125000827,
      "v": 72
    },
    {
      "midi": 62,
      "hit": false,
      "t": 87397.8309999999,
      "d": 189.73186458334385,
      "v": 85
    },
    {
      "midi": 66,
      "hit": false,
      "t": 87397.8309999999,
      "d": 231.9830781250057,
      "v": 80
    },
    {
      "midi": 62,
      "hit": false,
      "t": 87703.9529999999,
      "d": 121.97048437499325,
      "v": 70
    },
    {
      "midi": 66,
      "hit": false,
      "t": 87703.9529999999,
      "d": 159.4385416666628,
      "v": 62
    },
    {
      "midi": 57,
      "hit": false,
      "t": 87703.9529999999,
      "d": 168.20766145833477,
      "v": 64
    },
    {
      "midi": 69,
      "hit": false,
      "t": 87703.9529999999,
      "d": 184.15151562499523,
      "v": 82
    },
    {
      "midi": 66,
      "hit": false,
      "t": 88010.0749999999,
      "d": 90.08277604167233,
      "v": 91
    },
    {
      "midi": 62,
      "hit": false,
      "t": 88010.0749999999,
      "d": 106.02663020833279,
      "v": 82
    },
    {
      "midi": 72,
      "hit": false,
      "t": 88010.0749999999,
      "d": 128.34802604166907,
      "v": 102
    },
    {
      "midi": 62,
      "hit": false,
      "t": 88316.1969999999,
      "d": 307.716385416672,
      "v": 76
    },
    {
      "midi": 72,
      "hit": false,
      "t": 88316.1969999999,
      "d": 329.2405885416665,
      "v": 105
    },
    {
      "midi": 66,
      "hit": false,
      "t": 88316.1969999999,
      "d": 332.4293593750044,
      "v": 102
    },
    {
      "midi": 57,
      "hit": false,
      "t": 88622.3189999999,
      "d": 254.30447395832743,
      "v": 89
    },
    {
      "midi": 66,
      "hit": false,
      "t": 88775.3799999999,
      "d": 47.831562499995925,
      "v": 63
    },
    {
      "midi": 62,
      "hit": false,
      "t": 88775.3799999999,
      "d": 250.31851041666232,
      "v": 87
    },
    {
      "midi": 70,
      "hit": false,
      "t": 88775.3799999999,
      "d": 286.1921822916629,
      "v": 105
    },
    {
      "midi": 57,
      "hit": false,
      "t": 89081.5019999999,
      "d": 100.44628124999872,
      "v": 70
    },
    {
      "midi": 69,
      "hit": false,
      "t": 89081.5019999999,
      "d": 327.64620312499756,
      "v": 85
    },
    {
      "midi": 51,
      "hit": false,
      "t": 89387.62399999991,
      "d": 181.75993749999907,
      "v": 87
    },
    {
      "midi": 58,
      "hit": false,
      "t": 89540.68499999991,
      "d": 196.10940625000512,
      "v": 66
    },
    {
      "midi": 63,
      "hit": false,
      "t": 89693.74599999991,
      "d": 370.69460937500116,
      "v": 102
    },
    {
      "midi": 67,
      "hit": false,
      "t": 89846.80699999991,
      "d": 263.8707864583266,
      "v": 89
    },
    {
      "midi": 67,
      "hit": false,
      "t": 90152.9289999999,
      "d": 55.00629687499895,
      "v": 48
    },
    {
      "midi": 70,
      "hit": false,
      "t": 90152.9289999999,
      "d": 200.09536979167024,
      "v": 89
    },
    {
      "midi": 63,
      "hit": false,
      "t": 90152.9289999999,
      "d": 278.2202552083327,
      "v": 60
    },
    {
      "midi": 67,
      "hit": false,
      "t": 90459.0509999999,
      "d": 164.22169791666965,
      "v": 80
    },
    {
      "midi": 70,
      "hit": false,
      "t": 90459.0509999999,
      "d": 164.22169791666965,
      "v": 105
    },
    {
      "midi": 75,
      "hit": false,
      "t": 90459.0509999999,
      "d": 194.51502083333617,
      "v": 87
    },
    {
      "midi": 75,
      "hit": false,
      "t": 90765.17299999991,
      "d": 326.05181770834315,
      "v": 98
    },
    {
      "midi": 70,
      "hit": false,
      "t": 90765.17299999991,
      "d": 340.4012864583492,
      "v": 105
    },
    {
      "midi": 67,
      "hit": false,
      "t": 90765.17299999991,
      "d": 352.35917708334455,
      "v": 85
    },
    {
      "midi": 63,
      "hit": false,
      "t": 91071.29499999991,
      "d": 328.4433958333393,
      "v": 102
    },
    {
      "midi": 74,
      "hit": false,
      "t": 91224.35599999991,
      "d": 238.36061979166698,
      "v": 102
    },
    {
      "midi": 72,
      "hit": false,
      "t": 91530.47799999992,
      "d": 215.2420312500035,
      "v": 98
    },
    {
      "midi": 57,
      "hit": false,
      "t": 91530.47799999992,
      "d": 262.2764010416722,
      "v": 85
    },
    {
      "midi": 74,
      "hit": false,
      "t": 91836.59999999992,
      "d": 290.178145833328,
      "v": 100
    },
    {
      "midi": 62,
      "hit": false,
      "t": 91836.59999999992,
      "d": 548.4685833333206,
      "v": 85
    },
    {
      "midi": 50,
      "hit": false,
      "t": 91836.59999999992,
      "d": 636.1597812499822,
      "v": 89
    },
    {
      "midi": 69,
      "hit": false,
      "t": 92142.7219999999,
      "d": 119.57890624999709,
      "v": 82
    },
    {
      "midi": 66,
      "hit": false,
      "t": 92295.78299999991,
      "d": 220.0251874999958,
      "v": 107
    },
    {
      "midi": 57,
      "hit": false,
      "t": 92601.90499999991,
      "d": 229.591499999995,
      "v": 107
    },
    {
      "midi": 62,
      "hit": false,
      "t": 92908.0269999999,
      "d": 259.8848229166615,
      "v": 105
    },
    {
      "midi": 54,
      "hit": false,
      "t": 92908.0269999999,
      "d": 569.9927864583151,
      "v": 85
    },
    {
      "midi": 66,
      "hit": false,
      "t": 93214.14899999989,
      "d": 306.1219999999885,
      "v": 82
    },
    {
      "midi": 62,
      "hit": false,
      "t": 93214.14899999989,
      "d": 310.1079635416536,
      "v": 78
    },
    {
      "midi": 57,
      "hit": false,
      "t": 93520.27099999988,
      "d": 132.3339895833342,
      "v": 93
    },
    {
      "midi": 72,
      "hit": false,
      "t": 93673.33199999988,
      "d": 335.6181302083278,
      "v": 110
    },
    {
      "midi": 62,
      "hit": false,
      "t": 93673.33199999988,
      "d": 345.98163541665417,
      "v": 87
    },
    {
      "midi": 66,
      "hit": false,
      "t": 93673.33199999988,
      "d": 357.9395260416495,
      "v": 100
    },
    {
      "midi": 62,
      "hit": false,
      "t": 94285.57599999986,
      "d": 237.56342708333977,
      "v": 85
    },
    {
      "midi": 67,
      "hit": false,
      "t": 94285.57599999986,
      "d": 237.56342708333977,
      "v": 78
    },
    {
      "midi": 79,
      "hit": false,
      "t": 94285.57599999986,
      "d": 240.7521979166777,
      "v": 102
    },
    {
      "midi": 55,
      "hit": false,
      "t": 94285.57599999986,
      "d": 248.72412500000792,
      "v": 85
    },
    {
      "midi": 67,
      "hit": false,
      "t": 94897.81999999986,
      "d": 222.41676562500652,
      "v": 87
    },
    {
      "midi": 79,
      "hit": false,
      "t": 94897.81999999986,
      "d": 230.38869270833675,
      "v": 102
    },
    {
      "midi": 55,
      "hit": false,
      "t": 94897.81999999986,
      "d": 235.96904166667082,
      "v": 82
    },
    {
      "midi": 62,
      "hit": false,
      "t": 94897.81999999986,
      "d": 239.95500520833593,
      "v": 89
    },
    {
      "midi": 62,
      "hit": false,
      "t": 95510.06399999987,
      "d": 227.9971145833406,
      "v": 87
    },
    {
      "midi": 67,
      "hit": false,
      "t": 95510.06399999987,
      "d": 227.9971145833406,
      "v": 89
    },
    {
      "midi": 55,
      "hit": false,
      "t": 95510.06399999987,
      "d": 238.36061979166698,
      "v": 87
    },
    {
      "midi": 79,
      "hit": false,
      "t": 95510.06399999987,
      "d": 238.36061979166698,
      "v": 102
    },
    {
      "midi": 57,
      "hit": false,
      "t": 96734.55199999987,
      "d": 201.6897552083392,
      "v": 82
    },
    {
      "midi": 50,
      "hit": false,
      "t": 96734.55199999987,
      "d": 322.0658541666635,
      "v": 89
    },
    {
      "midi": 62,
      "hit": false,
      "t": 96734.55199999987,
      "d": 347.5760208333231,
      "v": 80
    },
    {
      "midi": 69,
      "hit": false,
      "t": 96734.55199999987,
      "d": 357.9395260416495,
      "v": 100
    },
    {
      "midi": 66,
      "hit": false,
      "t": 96734.55199999987,
      "d": 413.74301562497567,
      "v": 100
    },
    {
      "midi": 57,
      "hit": false,
      "t": 97040.67399999987,
      "d": 438.4559895833081,
      "v": 87
    },
    {
      "midi": 62,
      "hit": false,
      "t": 97193.73499999984,
      "d": 251.91289583333128,
      "v": 100
    },
    {
      "midi": 62,
      "hit": false,
      "t": 97499.85699999984,
      "d": 127.55083333332732,
      "v": 66
    },
    {
      "midi": 66,
      "hit": false,
      "t": 97499.85699999984,
      "d": 233.5774635416601,
      "v": 85
    },
    {
      "midi": 54,
      "hit": false,
      "t": 97499.85699999984,
      "d": 956.6312499999767,
      "v": 85
    },
    {
      "midi": 62,
      "hit": false,
      "t": 97805.97899999983,
      "d": 206.4729114583315,
      "v": 60
    },
    {
      "midi": 72,
      "hit": false,
      "t": 97805.97899999983,
      "d": 216.0392239583307,
      "v": 98
    },
    {
      "midi": 66,
      "hit": false,
      "t": 97805.97899999983,
      "d": 231.98307812499115,
      "v": 80
    },
    {
      "midi": 62,
      "hit": false,
      "t": 98112.10099999982,
      "d": 334.0237447916734,
      "v": 82
    },
    {
      "midi": 72,
      "hit": false,
      "t": 98112.10099999982,
      "d": 393.81319791666465,
      "v": 102
    },
    {
      "midi": 66,
      "hit": false,
      "t": 98112.10099999982,
      "d": 444.0363385416713,
      "v": 98
    },
    {
      "midi": 60,
      "hit": false,
      "t": 98418.22299999982,
      "d": 478.3156250000029,
      "v": 107
    },
    {
      "midi": 62,
      "hit": false,
      "t": 98571.28399999983,
      "d": 247.92693229166616,
      "v": 91
    },
    {
      "midi": 54,
      "hit": false,
      "t": 98877.40599999983,
      "d": 95.66312499999185,
      "v": 72
    },
    {
      "midi": 66,
      "hit": false,
      "t": 98877.40599999983,
      "d": 129.94241145832348,
      "v": 87
    },
    {
      "midi": 62,
      "hit": false,
      "t": 99030.46699999982,
      "d": 144.29188020832953,
      "v": 89
    },
    {
      "midi": 51,
      "hit": false,
      "t": 99183.52799999982,
      "d": 314.09392708333326,
      "v": 95
    },
    {
      "midi": 58,
      "hit": false,
      "t": 99489.64999999982,
      "d": 2062.337536458319,
      "v": 78
    },
    {
      "midi": 67,
      "hit": false,
      "t": 99642.71099999982,
      "d": 224.01115104166092,
      "v": 87
    },
    {
      "midi": 63,
      "hit": false,
      "t": 99642.71099999982,
      "d": 514.1892968749889,
      "v": 91
    },
    {
      "midi": 70,
      "hit": false,
      "t": 99948.83299999981,
      "d": 149.8722291666636,
      "v": 87
    },
    {
      "midi": 70,
      "hit": false,
      "t": 100254.95499999981,
      "d": 164.22169791666965,
      "v": 102
    },
    {
      "midi": 75,
      "hit": false,
      "t": 100254.95499999981,
      "d": 175.3823958333378,
      "v": 98
    },
    {
      "midi": 67,
      "hit": false,
      "t": 100254.95499999981,
      "d": 198.50098437500128,
      "v": 82
    },
    {
      "midi": 67,
      "hit": false,
      "t": 100561.07699999982,
      "d": 125.95644791667291,
      "v": 63
    },
    {
      "midi": 74,
      "hit": false,
      "t": 100561.07699999982,
      "d": 173.78801041666884,
      "v": 98
    },
    {
      "midi": 70,
      "hit": false,
      "t": 100561.07699999982,
      "d": 185.74590104166418,
      "v": 89
    },
    {
      "midi": 67,
      "hit": false,
      "t": 100867.19899999982,
      "d": 258.2904375000071,
      "v": 64
    },
    {
      "midi": 70,
      "hit": false,
      "t": 100867.19899999982,
      "d": 385.8412708333344,
      "v": 95
    },
    {
      "midi": 73,
      "hit": false,
      "t": 100867.19899999982,
      "d": 392.2188124999957,
      "v": 110
    },
    {
      "midi": 63,
      "hit": false,
      "t": 101173.32099999982,
      "d": 387.4356562499888,
      "v": 91
    },
    {
      "midi": 67,
      "hit": false,
      "t": 101326.38199999981,
      "d": 345.9816354166687,
      "v": 100
    },
    {
      "midi": 50,
      "hit": false,
      "t": 101632.50399999981,
      "d": 326.05181770834315,
      "v": 98
    },
    {
      "midi": 57,
      "hit": false,
      "t": 101938.62599999981,
      "d": 1945.9474010417034,
      "v": 78
    },
    {
      "midi": 62,
      "hit": false,
      "t": 102091.68699999982,
      "d": 467.9521197916765,
      "v": 105
    },
    {
      "midi": 66,
      "hit": false,
      "t": 102397.80899999982,
      "d": 212.05326041668013,
      "v": 98
    },
    {
      "midi": 62,
      "hit": false,
      "t": 102703.93099999984,
      "d": 71.74734375000116,
      "v": 47
    },
    {
      "midi": 66,
      "hit": false,
      "t": 102703.93099999984,
      "d": 156.24977083333943,
      "v": 85
    },
    {
      "midi": 69,
      "hit": false,
      "t": 102703.93099999984,
      "d": 209.66168229166942,
      "v": 95
    },
    {
      "midi": 66,
      "hit": false,
      "t": 103010.05299999984,
      "d": 334.0237447916734,
      "v": 89
    },
    {
      "midi": 69,
      "hit": false,
      "t": 103010.05299999984,
      "d": 388.23284895834513,
      "v": 102
    },
    {
      "midi": 62,
      "hit": false,
      "t": 103316.17499999984,
      "d": 172.19362499999988,
      "v": 85
    },
    {
      "midi": 72,
      "hit": false,
      "t": 103469.23599999984,
      "d": 339.60409375000745,
      "v": 91
    },
    {
      "midi": 66,
      "hit": false,
      "t": 103469.23599999984,
      "d": 345.9816354166687,
      "v": 85
    },
    {
      "midi": 69,
      "hit": false,
      "t": 103469.23599999984,
      "d": 345.9816354166687,
      "v": 91
    },
    {
      "midi": 62,
      "hit": false,
      "t": 103775.35799999985,
      "d": 188.1374791666749,
      "v": 82
    },
    {
      "midi": 62,
      "hit": false,
      "t": 104081.47999999985,
      "d": 236.76623437499802,
      "v": 70
    },
    {
      "midi": 67,
      "hit": false,
      "t": 104081.47999999985,
      "d": 236.76623437499802,
      "v": 64
    },
    {
      "midi": 70,
      "hit": false,
      "t": 104081.47999999985,
      "d": 236.76623437499802,
      "v": 93
    },
    {
      "midi": 74,
      "hit": false,
      "t": 104081.47999999985,
      "d": 236.76623437499802,
      "v": 95
    },
    {
      "midi": 55,
      "hit": false,
      "t": 104081.47999999985,
      "d": 241.5493906250049,
      "v": 68
    },
    {
      "midi": 67,
      "hit": false,
      "t": 104693.72399999986,
      "d": 224.01115104166092,
      "v": 76
    },
    {
      "midi": 70,
      "hit": false,
      "t": 104693.72399999986,
      "d": 224.01115104166092,
      "v": 98
    },
    {
      "midi": 74,
      "hit": false,
      "t": 104693.72399999986,
      "d": 224.01115104166092,
      "v": 95
    },
    {
      "midi": 55,
      "hit": false,
      "t": 104693.72399999986,
      "d": 239.95500520832138,
      "v": 80
    },
    {
      "midi": 62,
      "hit": false,
      "t": 104693.72399999986,
      "d": 239.95500520832138,
      "v": 76
    },
    {
      "midi": 70,
      "hit": false,
      "t": 105305.96799999985,
      "d": 230.38869270833675,
      "v": 98
    },
    {
      "midi": 55,
      "hit": false,
      "t": 105305.96799999985,
      "d": 246.3325468749972,
      "v": 82
    },
    {
      "midi": 62,
      "hit": false,
      "t": 105305.96799999985,
      "d": 246.3325468749972,
      "v": 68
    },
    {
      "midi": 67,
      "hit": false,
      "t": 105305.96799999985,
      "d": 246.3325468749972,
      "v": 76
    },
    {
      "midi": 74,
      "hit": false,
      "t": 105305.96799999985,
      "d": 246.3325468749972,
      "v": 95
    },
    {
      "midi": 66,
      "hit": false,
      "t": 106530.45599999985,
      "d": 320.4714687500091,
      "v": 60
    },
    {
      "midi": 69,
      "hit": false,
      "t": 106530.45599999985,
      "d": 412.1486302083358,
      "v": 82
    },
    {
      "midi": 50,
      "hit": false,
      "t": 106530.45599999985,
      "d": 2273.5936041666573,
      "v": 91
    },
    {
      "midi": 57,
      "hit": false,
      "t": 106836.57799999985,
      "d": 1666.1327604166581,
      "v": 68
    },
    {
      "midi": 66,
      "hit": false,
      "t": 106989.63899999985,
      "d": 320.4714687500091,
      "v": 80
    },
    {
      "midi": 69,
      "hit": false,
      "t": 107295.76099999985,
      "d": 227.9971145833406,
      "v": 85
    },
    {
      "midi": 62,
      "hit": false,
      "t": 107295.76099999985,
      "d": 735.8088697916683,
      "v": 60
    },
    {
      "midi": 74,
      "hit": false,
      "t": 107601.88299999986,
      "d": 341.9956718750036,
      "v": 100
    },
    {
      "midi": 69,
      "hit": false,
      "t": 107908.00499999986,
      "d": 316.48550520831486,
      "v": 87
    },
    {
      "midi": 66,
      "hit": false,
      "t": 108214.12699999985,
      "d": 416.1345937499864,
      "v": 98
    },
    {
      "midi": 62,
      "hit": false,
      "t": 108520.24899999984,
      "d": 454.3998437499977,
      "v": 70
    },
    {
      "midi": 57,
      "hit": false,
      "t": 108673.30999999984,
      "d": 293.36691666666593,
      "v": 61
    },
    {
      "midi": 66,
      "hit": false,
      "t": 108826.37099999984,
      "d": 147.48065104166744,
      "v": 59
    },
    {
      "midi": 51,
      "hit": false,
      "t": 108979.43199999984,
      "d": 2295.914999999979,
      "v": 93
    },
    {
      "midi": 58,
      "hit": false,
      "t": 109285.55399999984,
      "d": 1428.5693333333184,
      "v": 70
    },
    {
      "midi": 63,
      "hit": false,
      "t": 109591.67599999985,
      "d": 193.7178281249944,
      "v": 74
    },
    {
      "midi": 63,
      "hit": false,
      "t": 109897.79799999984,
      "d": 571.5871718749986,
      "v": 66
    },
    {
      "midi": 75,
      "hit": false,
      "t": 110203.91999999984,
      "d": 148.27784374999464,
      "v": 93
    },
    {
      "midi": 70,
      "hit": false,
      "t": 110356.98099999984,
      "d": 133.9283749999886,
      "v": 80
    },
    {
      "midi": 67,
      "hit": false,
      "t": 110510.04199999983,
      "d": 542.0910416666738,
      "v": 100
    },
    {
      "midi": 63,
      "hit": false,
      "t": 110663.10299999983,
      "d": 404.1767031250056,
      "v": 91
    },
    {
      "midi": 55,
      "hit": false,
      "t": 110969.22499999983,
      "d": 307.71638541665743,
      "v": 82
    },
    {
      "midi": 70,
      "hit": false,
      "t": 111122.28599999983,
      "d": 142.69749479166057,
      "v": 95
    },
    {
      "midi": 67,
      "hit": false,
      "t": 111275.34699999982,
      "d": 173.78801041666884,
      "v": 78
    },
    {
      "midi": 50,
      "hit": false,
      "t": 111428.40799999982,
      "d": 359.533911458333,
      "v": 105
    },
    {
      "midi": 57,
      "hit": false,
      "t": 111734.52999999982,
      "d": 1138.3911874999903,
      "v": 82
    },
    {
      "midi": 62,
      "hit": false,
      "t": 111887.59099999983,
      "d": 220.0251874999958,
      "v": 91
    },
    {
      "midi": 66,
      "hit": false,
      "t": 111887.59099999983,
      "d": 231.98307812499115,
      "v": 87
    },
    {
      "midi": 62,
      "hit": false,
      "t": 112193.71299999981,
      "d": 156.24977083333943,
      "v": 72
    },
    {
      "midi": 66,
      "hit": false,
      "t": 112193.71299999981,
      "d": 156.24977083333943,
      "v": 85
    },
    {
      "midi": 69,
      "hit": false,
      "t": 112193.71299999981,
      "d": 226.40272916667163,
      "v": 91
    },
    {
      "midi": 60,
      "hit": false,
      "t": 112499.83499999982,
      "d": 204.08133333333535,
      "v": 72
    },
    {
      "midi": 66,
      "hit": false,
      "t": 112499.83499999982,
      "d": 518.1752604166686,
      "v": 78
    },
    {
      "midi": 69,
      "hit": false,
      "t": 112499.83499999982,
      "d": 598.6917239583418,
      "v": 89
    },
    {
      "midi": 72,
      "hit": false,
      "t": 112499.83499999982,
      "d": 598.6917239583418,
      "v": 98
    },
    {
      "midi": 60,
      "hit": false,
      "t": 112805.95699999982,
      "d": 527.7415729166678,
      "v": 85
    },
    {
      "midi": 66,
      "hit": false,
      "t": 113112.07899999982,
      "d": 90.08277604167233,
      "v": 70
    },
    {
      "midi": 57,
      "hit": false,
      "t": 113265.13999999982,
      "d": 343.59005729167257,
      "v": 85
    },
    {
      "midi": 66,
      "hit": false,
      "t": 113265.13999999982,
      "d": 373.8833802083391,
      "v": 78
    },
    {
      "midi": 69,
      "hit": false,
      "t": 113265.13999999982,
      "d": 373.8833802083391,
      "v": 91
    },
    {
      "midi": 60,
      "hit": false,
      "t": 113571.26199999983,
      "d": 176.179588541665,
      "v": 89
    },
    {
      "midi": 67,
      "hit": false,
      "t": 113877.38399999983,
      "d": 279.0174479166599,
      "v": 68
    },
    {
      "midi": 55,
      "hit": false,
      "t": 113877.38399999983,
      "d": 279.8146406249871,
      "v": 82
    },
    {
      "midi": 74,
      "hit": false,
      "t": 113877.38399999983,
      "d": 295.75849479164754,
      "v": 95
    },
    {
      "midi": 70,
      "hit": false,
      "t": 113877.38399999983,
      "d": 393.01600520830834,
      "v": 107
    },
    {
      "midi": 62,
      "hit": false,
      "t": 114183.5059999998,
      "d": 419.32336458333884,
      "v": 80
    },
    {
      "midi": 67,
      "hit": false,
      "t": 114336.5669999998,
      "d": 231.9830781250057,
      "v": 87
    },
    {
      "midi": 67,
      "hit": false,
      "t": 114642.68899999981,
      "d": 129.94241145833803,
      "v": 68
    },
    {
      "midi": 70,
      "hit": false,
      "t": 114642.68899999981,
      "d": 164.22169791666965,
      "v": 98
    },
    {
      "midi": 58,
      "hit": false,
      "t": 114642.68899999981,
      "d": 860.1709322916577,
      "v": 64
    },
    {
      "midi": 67,
      "hit": false,
      "t": 114948.81099999981,
      "d": 112.40417187499406,
      "v": 68
    },
    {
      "midi": 70,
      "hit": false,
      "t": 114948.81099999981,
      "d": 117.98452083332813,
      "v": 98
    },
    {
      "midi": 74,
      "hit": false,
      "t": 114948.81099999981,
      "d": 156.24977083332487,
      "v": 100
    },
    {
      "midi": 67,
      "hit": false,
      "t": 115254.9329999998,
      "d": 312.4995416666643,
      "v": 78
    },
    {
      "midi": 70,
      "hit": false,
      "t": 115254.9329999998,
      "d": 409.7570520833251,
      "v": 102
    },
    {
      "midi": 62,
      "hit": false,
      "t": 115561.0549999998,
      "d": 782.0460468749952,
      "v": 102
    },
    {
      "midi": 67,
      "hit": false,
      "t": 115714.11599999979,
      "d": 266.26236458333733,
      "v": 95
    },
    {
      "midi": 57,
      "hit": false,
      "t": 116020.2379999998,
      "d": 124.36206250000396,
      "v": 44
    },
    {
      "midi": 70,
      "hit": false,
      "t": 116020.2379999998,
      "d": 139.5087239583372,
      "v": 85
    },
    {
      "midi": 67,
      "hit": false,
      "t": 116173.2989999998,
      "d": 151.46661458333256,
      "v": 76
    },
    {
      "midi": 50,
      "hit": false,
      "t": 116326.3599999998,
      "d": 315.6883125000022,
      "v": 100
    },
    {
      "midi": 66,
      "hit": false,
      "t": 116632.4819999998,
      "d": 127.55083333332732,
      "v": 76
    },
    {
      "midi": 57,
      "hit": false,
      "t": 116632.4819999998,
      "d": 423.3093281249894,
      "v": 63
    },
    {
      "midi": 66,
      "hit": false,
      "t": 116785.54299999979,
      "d": 129.94241145833803,
      "v": 52
    },
    {
      "midi": 69,
      "hit": false,
      "t": 116785.54299999979,
      "d": 389.82723437499953,
      "v": 89
    },
    {
      "midi": 62,
      "hit": false,
      "t": 117091.66499999979,
      "d": 295.7584947916621,
      "v": 82
    },
    {
      "midi": 66,
      "hit": false,
      "t": 117397.78699999978,
      "d": 503.82579166666255,
      "v": 66
    },
    {
      "midi": 74,
      "hit": false,
      "t": 117397.78699999978,
      "d": 593.9085677083349,
      "v": 85
    },
    {
      "midi": 62,
      "hit": false,
      "t": 117703.90899999978,
      "d": 770.0881562500144,
      "v": 87
    },
    {
      "midi": 66,
      "hit": false,
      "t": 118010.03099999978,
      "d": 534.1191145833436,
      "v": 68
    },
    {
      "midi": 69,
      "hit": false,
      "t": 118163.09199999979,
      "d": 452.0082656250015,
      "v": 89
    },
    {
      "midi": 57,
      "hit": false,
      "t": 118469.21399999979,
      "d": 282.2062187499978,
      "v": 85
    },
    {
      "midi": 66,
      "hit": false,
      "t": 118622.27499999979,
      "d": 188.1374791666749,
      "v": 64
    },
    {
      "midi": 51,
      "hit": false,
      "t": 118775.33599999979,
      "d": 291.772531249997,
      "v": 95
    },
    {
      "midi": 67,
      "hit": false,
      "t": 118928.3969999998,
      "d": 157.84415625000838,
      "v": 85
    },
    {
      "midi": 58,
      "hit": false,
      "t": 119081.4579999998,
      "d": 319.6742760416673,
      "v": 68
    },
    {
      "midi": 67,
      "hit": false,
      "t": 119234.5189999998,
      "d": 153.85819270832872,
      "v": 78
    },
    {
      "midi": 70,
      "hit": false,
      "t": 119234.5189999998,
      "d": 153.85819270832872,
      "v": 91
    },
    {
      "midi": 67,
      "hit": false,
      "t": 119540.6409999998,
      "d": 94.06873958333745,
      "v": 70
    },
    {
      "midi": 70,
      "hit": false,
      "t": 119540.6409999998,
      "d": 99.64908854167152,
      "v": 82
    },
    {
      "midi": 63,
      "hit": false,
      "t": 119540.6409999998,
      "d": 233.57746354167466,
      "v": 80
    },
    {
      "midi": 67,
      "hit": false,
      "t": 119846.7629999998,
      "d": 78.92207812500419,
      "v": 89
    },
    {
      "midi": 70,
      "hit": false,
      "t": 119846.7629999998,
      "d": 78.92207812500419,
      "v": 105
    },
    {
      "midi": 75,
      "hit": false,
      "t": 119846.7629999998,
      "d": 111.60697916666686,
      "v": 98
    },
    {
      "midi": 75,
      "hit": false,
      "t": 120152.8849999998,
      "d": 319.6742760416673,
      "v": 98
    },
    {
      "midi": 67,
      "hit": false,
      "t": 120152.8849999998,
      "d": 326.0518177083286,
      "v": 87
    },
    {
      "midi": 70,
      "hit": false,
      "t": 120152.8849999998,
      "d": 330.0377812499937,
      "v": 102
    },
    {
      "midi": 63,
      "hit": false,
      "t": 120459.00699999981,
      "d": 281.40902604165603,
      "v": 82
    },
    {
      "midi": 70,
      "hit": false,
      "t": 120612.0679999998,
      "d": 243.94096875000105,
      "v": 72
    },
    {
      "midi": 67,
      "hit": false,
      "t": 120612.0679999998,
      "d": 247.92693229166616,
      "v": 70
    },
    {
      "midi": 74,
      "hit": false,
      "t": 120612.0679999998,
      "d": 287.78656770833186,
      "v": 95
    },
    {
      "midi": 63,
      "hit": false,
      "t": 120918.1899999998,
      "d": 102.04066666666768,
      "v": 60
    },
    {
      "midi": 72,
      "hit": false,
      "t": 120918.1899999998,
      "d": 255.8988593749964,
      "v": 82
    },
    {
      "midi": 50,
      "hit": false,
      "t": 121224.3119999998,
      "d": 275.03148437499476,
      "v": 85
    },
    {
      "midi": 74,
      "hit": false,
      "t": 121224.3119999998,
      "d": 373.8833802083245,
      "v": 98
    },
    {
      "midi": 57,
      "hit": false,
      "t": 121530.43399999979,
      "d": 1114.4754062499997,
      "v": 68
    },
    {
      "midi": 72,
      "hit": false,
      "t": 121683.49499999979,
      "d": 322.0658541666635,
      "v": 105
    },
    {
      "midi": 70,
      "hit": false,
      "t": 121989.6169999998,
      "d": 246.3325468749972,
      "v": 98
    },
    {
      "midi": 62,
      "hit": false,
      "t": 121989.6169999998,
      "d": 352.35917708333,
      "v": 64
    },
    {
      "midi": 69,
      "hit": false,
      "t": 122295.7389999998,
      "d": 635.362588541655,
      "v": 98
    },
    {
      "midi": 62,
      "hit": false,
      "t": 122601.86099999979,
      "d": 282.2062187499978,
      "v": 85
    },
    {
      "midi": 50,
      "hit": false,
      "t": 122907.98299999979,
      "d": 237.56342708333977,
      "v": 89
    },
    {
      "midi": 54,
      "hit": false,
      "t": 123061.04399999979,
      "d": 295.75849479167664,
      "v": 72
    },
    {
      "midi": 66,
      "hit": false,
      "t": 123367.1659999998,
      "d": 212.85045312499278,
      "v": 89
    },
    {
      "midi": 62,
      "hit": false,
      "t": 123367.1659999998,
      "d": 258.29043749999255,
      "v": 74
    },
    {
      "midi": 70,
      "hit": false,
      "t": 123673.28799999978,
      "d": 39.8596354166657,
      "v": 66
    },
    {
      "midi": 55,
      "hit": false,
      "t": 123673.28799999978,
      "d": 243.94096875000105,
      "v": 82
    },
    {
      "midi": 67,
      "hit": false,
      "t": 123673.28799999978,
      "d": 261.47920833333046,
      "v": 66
    },
    {
      "midi": 74,
      "hit": false,
      "t": 123673.28799999978,
      "d": 331.63216666666267,
      "v": 98
    },
    {
      "midi": 62,
      "hit": false,
      "t": 123979.40999999979,
      "d": 361.92548958331463,
      "v": 80
    },
    {
      "midi": 67,
      "hit": false,
      "t": 124132.47099999977,
      "d": 181.75993749999907,
      "v": 89
    },
    {
      "midi": 67,
      "hit": false,
      "t": 124438.59299999976,
      "d": 106.02663020833279,
      "v": 63
    },
    {
      "midi": 70,
      "hit": false,
      "t": 124438.59299999976,
      "d": 106.02663020833279,
      "v": 98
    },
    {
      "midi": 58,
      "hit": false,
      "t": 124438.59299999976,
      "d": 426.49809895834187,
      "v": 82
    },
    {
      "midi": 67,
      "hit": false,
      "t": 124744.71499999976,
      "d": 208.06729687500047,
      "v": 68
    },
    {
      "midi": 72,
      "hit": false,
      "t": 124744.71499999976,
      "d": 238.36061979166698,
      "v": 98
    },
    {
      "midi": 67,
      "hit": false,
      "t": 125050.83699999977,
      "d": 182.55713020832627,
      "v": 70
    },
    {
      "midi": 70,
      "hit": false,
      "t": 125050.83699999977,
      "d": 255.8988593749964,
      "v": 105
    },
    {
      "midi": 62,
      "hit": false,
      "t": 125050.83699999977,
      "d": 632.1738177083316,
      "v": 64
    },
    {
      "midi": 67,
      "hit": false,
      "t": 125356.95899999977,
      "d": 19.929817708340124,
      "v": 39
    },
    {
      "midi": 69,
      "hit": false,
      "t": 125356.95899999977,
      "d": 94.06873958333745,
      "v": 82
    },
    {
      "midi": 67,
      "hit": false,
      "t": 125510.01999999977,
      "d": 457.58861458332103,
      "v": 98
    },
    {
      "midi": 62,
      "hit": false,
      "t": 125816.14199999976,
      "d": 316.4855052083294,
      "v": 87
    },
    {
      "midi": 50,
      "hit": false,
      "t": 126122.26399999976,
      "d": 209.66168229165487,
      "v": 87
    },
    {
      "midi": 69,
      "hit": false,
      "t": 126122.26399999976,
      "d": 269.4511354166607,
      "v": 89
    },
    {
      "midi": 57,
      "hit": false,
      "t": 126275.32499999975,
      "d": 1493.9391354166437,
      "v": 80
    },
    {
      "midi": 66,
      "hit": false,
      "t": 126428.38599999975,
      "d": 107.62101562500175,
      "v": 80
    },
    {
      "midi": 66,
      "hit": false,
      "t": 126581.44699999975,
      "d": 153.85819270832872,
      "v": 62
    },
    {
      "midi": 69,
      "hit": false,
      "t": 126581.44699999975,
      "d": 205.67571874998976,
      "v": 98
    },
    {
      "midi": 66,
      "hit": false,
      "t": 126887.56899999974,
      "d": 160.23573437500454,
      "v": 76
    },
    {
      "midi": 62,
      "hit": false,
      "t": 126887.56899999974,
      "d": 247.92693229166616,
      "v": 66
    },
    {
      "midi": 69,
      "hit": false,
      "t": 126887.56899999974,
      "d": 258.29043749999255,
      "v": 87
    },
    {
      "midi": 66,
      "hit": false,
      "t": 127193.69099999973,
      "d": 196.10940625000512,
      "v": 80
    },
    {
      "midi": 69,
      "hit": false,
      "t": 127193.69099999973,
      "d": 204.08133333333535,
      "v": 80
    },
    {
      "midi": 72,
      "hit": false,
      "t": 127193.69099999973,
      "d": 224.01115104167548,
      "v": 95
    },
    {
      "midi": 66,
      "hit": false,
      "t": 127499.81299999973,
      "d": 338.00970833332394,
      "v": 89
    },
    {
      "midi": 72,
      "hit": false,
      "t": 127499.81299999973,
      "d": 420.1205572916515,
      "v": 102
    },
    {
      "midi": 69,
      "hit": false,
      "t": 127499.81299999973,
      "d": 495.8538645833178,
      "v": 98
    },
    {
      "midi": 62,
      "hit": false,
      "t": 127805.93499999972,
      "d": 554.0489322916546,
      "v": 89
    },
    {
      "midi": 66,
      "hit": false,
      "t": 127958.99599999972,
      "d": 330.0377812499937,
      "v": 87
    },
    {
      "midi": 69,
      "hit": false,
      "t": 128265.11799999971,
      "d": 176.179588541665,
      "v": 80
    },
    {
      "midi": 57,
      "hit": false,
      "t": 128265.11799999971,
      "d": 233.5774635416601,
      "v": 66
    },
    {
      "midi": 66,
      "hit": false,
      "t": 128418.17899999971,
      "d": 235.96904166665627,
      "v": 66
    },
    {
      "midi": 51,
      "hit": false,
      "t": 128571.2399999997,
      "d": 184.15151562499523,
      "v": 87
    },
    {
      "midi": 58,
      "hit": false,
      "t": 128724.3009999997,
      "d": 208.0672968749859,
      "v": 78
    },
    {
      "midi": 63,
      "hit": false,
      "t": 128877.36199999969,
      "d": 632.1738177083316,
      "v": 78
    },
    {
      "midi": 67,
      "hit": false,
      "t": 129030.42299999969,
      "d": 257.49324479166535,
      "v": 89
    },
    {
      "midi": 70,
      "hit": false,
      "t": 129336.54499999969,
      "d": 194.5150208333216,
      "v": 98
    },
    {
      "midi": 75,
      "hit": false,
      "t": 129642.66699999968,
      "d": 183.35432291666802,
      "v": 87
    },
    {
      "midi": 67,
      "hit": false,
      "t": 129642.66699999968,
      "d": 189.7318645833293,
      "v": 76
    },
    {
      "midi": 70,
      "hit": false,
      "t": 129642.66699999968,
      "d": 189.7318645833293,
      "v": 89
    },
    {
      "midi": 63,
      "hit": false,
      "t": 129642.66699999968,
      "d": 527.7415729166678,
      "v": 66
    },
    {
      "midi": 75,
      "hit": false,
      "t": 129948.78899999968,
      "d": 388.2328489583306,
      "v": 95
    },
    {
      "midi": 67,
      "hit": false,
      "t": 129948.78899999968,
      "d": 397.79916145832976,
      "v": 85
    },
    {
      "midi": 70,
      "hit": false,
      "t": 129948.78899999968,
      "d": 404.17670312499104,
      "v": 91
    },
    {
      "midi": 63,
      "hit": false,
      "t": 130254.91099999969,
      "d": 302.13603645832336,
      "v": 93
    },
    {
      "midi": 67,
      "hit": false,
      "t": 130407.97199999967,
      "d": 199.29817708334303,
      "v": 72
    },
    {
      "midi": 70,
      "hit": false,
      "t": 130407.97199999967,
      "d": 251.91289583334583,
      "v": 72
    },
    {
      "midi": 74,
      "hit": false,
      "t": 130407.97199999967,
      "d": 259.88482291667606,
      "v": 93
    },
    {
      "midi": 67,
      "hit": false,
      "t": 130714.09399999968,
      "d": 107.62101562500175,
      "v": 66
    },
    {
      "midi": 63,
      "hit": false,
      "t": 130714.09399999968,
      "d": 186.54309375000594,
      "v": 85
    },
    {
      "midi": 72,
      "hit": false,
      "t": 130714.09399999968,
      "d": 264.6679791666684,
      "v": 93
    },
    {
      "midi": 50,
      "hit": false,
      "t": 131020.21599999968,
      "d": 275.82867708332196,
      "v": 89
    },
    {
      "midi": 74,
      "hit": false,
      "t": 131020.21599999968,
      "d": 702.3267760416347,
      "v": 105
    },
    {
      "midi": 57,
      "hit": false,
      "t": 131326.33799999967,
      "d": 2004.142468749953,
      "v": 78
    },
    {
      "midi": 62,
      "hit": false,
      "t": 131479.39899999966,
      "d": 476.72123958333395,
      "v": 89
    },
    {
      "midi": 66,
      "hit": false,
      "t": 131785.52099999966,
      "d": 218.4308020833414,
      "v": 85
    },
    {
      "midi": 62,
      "hit": false,
      "t": 132091.64299999966,
      "d": 231.98307812499115,
      "v": 72
    },
    {
      "midi": 66,
      "hit": false,
      "t": 132091.64299999966,
      "d": 482.3015885416826,
      "v": 89
    },
    {
      "midi": 69,
      "hit": false,
      "t": 132091.64299999966,
      "d": 734.2144843749702,
      "v": 93
    },
    {
      "midi": 62,
      "hit": false,
      "t": 132397.76499999966,
      "d": 341.99567187498906,
      "v": 68
    },
    {
      "midi": 66,
      "hit": false,
      "t": 132703.88699999967,
      "d": 98.05470312497346,
      "v": 62
    },
    {
      "midi": 62,
      "hit": false,
      "t": 132856.94799999963,
      "d": 174.58520312499604,
      "v": 72
    },
    {
      "midi": 66,
      "hit": false,
      "t": 132856.94799999963,
      "d": 174.58520312499604,
      "v": 68
    },
    {
      "midi": 69,
      "hit": false,
      "t": 132856.94799999963,
      "d": 174.58520312499604,
      "v": 78
    },
    {
      "midi": 72,
      "hit": false,
      "t": 132856.94799999963,
      "d": 200.09536979167024,
      "v": 89
    },
    {
      "midi": 66,
      "hit": false,
      "t": 133163.06999999963,
      "d": 161.8301197916735,
      "v": 87
    },
    {
      "midi": 69,
      "hit": false,
      "t": 133163.06999999963,
      "d": 161.8301197916735,
      "v": 87
    },
    {
      "midi": 72,
      "hit": false,
      "t": 133163.06999999963,
      "d": 173.78801041666884,
      "v": 93
    },
    {
      "midi": 62,
      "hit": false,
      "t": 133163.06999999963,
      "d": 200.89256249999744,
      "v": 62
    },
    {
      "midi": 62,
      "hit": false,
      "t": 133469.19199999963,
      "d": 137.9143385416537,
      "v": 72
    },
    {
      "midi": 55,
      "hit": false,
      "t": 133469.19199999963,
      "d": 277.4230624999909,
      "v": 70
    },
    {
      "midi": 67,
      "hit": false,
      "t": 133469.19199999963,
      "d": 310.10796354166814,
      "v": 102
    },
    {
      "midi": 62,
      "hit": false,
      "t": 133775.31399999963,
      "d": 340.40128645833465,
      "v": 66
    },
    {
      "midi": 58,
      "hit": false,
      "t": 133775.31399999963,
      "d": 448.81949479167815,
      "v": 66
    },
    {
      "midi": 67,
      "hit": false,
      "t": 133928.37499999962,
      "d": 116.39013541667373,
      "v": 80
    },
    {
      "midi": 69,
      "hit": false,
      "t": 134081.43599999964,
      "d": 102.04066666666768,
      "v": 78
    },
    {
      "midi": 67,
      "hit": false,
      "t": 134234.49699999965,
      "d": 184.15151562500978,
      "v": 78
    },
    {
      "midi": 70,
      "hit": false,
      "t": 134234.49699999965,
      "d": 222.41676562500652,
      "v": 93
    },
    {
      "midi": 62,
      "hit": false,
      "t": 134234.49699999965,
      "d": 470.34369791665813,
      "v": 87
    },
    {
      "midi": 67,
      "hit": false,
      "t": 134540.61899999966,
      "d": 216.0392239583307,
      "v": 80
    },
    {
      "midi": 69,
      "hit": false,
      "t": 134540.61899999966,
      "d": 258.29043749999255,
      "v": 98
    },
    {
      "midi": 67,
      "hit": false,
      "t": 134846.74099999966,
      "d": 264.6679791666684,
      "v": 82
    },
    {
      "midi": 62,
      "hit": false,
      "t": 134846.74099999966,
      "d": 389.82723437499953,
      "v": 85
    },
    {
      "midi": 58,
      "hit": false,
      "t": 134846.74099999966,
      "d": 768.4937708333018,
      "v": 76
    },
    {
      "midi": 67,
      "hit": false,
      "t": 135152.86299999966,
      "d": 71.74734375000116,
      "v": 60
    },
    {
      "midi": 69,
      "hit": false,
      "t": 135152.86299999966,
      "d": 95.66312499999185,
      "v": 78
    },
    {
      "midi": 62,
      "hit": false,
      "t": 135305.92399999965,
      "d": 168.20766145832022,
      "v": 82
    },
    {
      "midi": 67,
      "hit": false,
      "t": 135305.92399999965,
      "d": 218.4308020833123,
      "v": 72
    },
    {
      "midi": 70,
      "hit": false,
      "t": 135305.92399999965,
      "d": 310.10796354163904,
      "v": 93
    },
    {
      "midi": 67,
      "hit": false,
      "t": 135612.04599999962,
      "d": 124.36206250000396,
      "v": 78
    },
    {
      "midi": 62,
      "hit": false,
      "t": 135612.04599999962,
      "d": 262.27640104165766,
      "v": 72
    },
    {
      "midi": 50,
      "hit": false,
      "t": 135918.16799999963,
      "d": 270.2483281249879,
      "v": 66
    },
    {
      "midi": 62,
      "hit": false,
      "t": 135918.16799999963,
      "d": 340.40128645830555,
      "v": 87
    },
    {
      "midi": 66,
      "hit": false,
      "t": 135918.16799999963,
      "d": 340.40128645830555,
      "v": 95
    },
    {
      "midi": 57,
      "hit": false,
      "t": 136224.2899999996,
      "d": 383.4496927083237,
      "v": 72
    },
    {
      "midi": 62,
      "hit": false,
      "t": 136377.3509999996,
      "d": 78.12488541667699,
      "v": 60
    },
    {
      "midi": 66,
      "hit": false,
      "t": 136377.3509999996,
      "d": 96.46031770834816,
      "v": 66
    },
    {
      "midi": 62,
      "hit": false,
      "t": 136530.4119999996,
      "d": 79.7192708333314,
      "v": 58
    },
    {
      "midi": 67,
      "hit": false,
      "t": 136530.4119999996,
      "d": 148.27784374999464,
      "v": 85
    },
    {
      "midi": 62,
      "hit": false,
      "t": 136683.4729999996,
      "d": 168.20766145832022,
      "v": 68
    },
    {
      "midi": 69,
      "hit": false,
      "t": 136683.4729999996,
      "d": 192.1234427083109,
      "v": 89
    },
    {
      "midi": 57,
      "hit": false,
      "t": 136683.4729999996,
      "d": 596.3001458332874,
      "v": 80
    },
    {
      "midi": 62,
      "hit": false,
      "t": 136989.59499999956,
      "d": 246.3325468749972,
      "v": 70
    },
    {
      "midi": 67,
      "hit": false,
      "t": 136989.59499999956,
      "d": 288.58376041665906,
      "v": 93
    },
    {
      "midi": 62,
      "hit": false,
      "t": 137295.71699999954,
      "d": 190.5290572916565,
      "v": 72
    },
    {
      "midi": 66,
      "hit": false,
      "t": 137295.71699999954,
      "d": 242.3465833333321,
      "v": 91
    },
    {
      "midi": 54,
      "hit": false,
      "t": 137295.71699999954,
      "d": 775.668505208334,
      "v": 66
    },
    {
      "midi": 62,
      "hit": false,
      "t": 137601.83899999954,
      "d": 55.803489583340706,
      "v": 56
    },
    {
      "midi": 67,
      "hit": false,
      "t": 137601.83899999954,
      "d": 117.98452083332813,
      "v": 78
    },
    {
      "midi": 57,
      "hit": false,
      "t": 137601.83899999954,
      "d": 247.9269322916516,
      "v": 48
    },
    {
      "midi": 62,
      "hit": false,
      "t": 137754.89999999953,
      "d": 382.6524999999965,
      "v": 85
    },
    {
      "midi": 69,
      "hit": false,
      "t": 137754.89999999953,
      "d": 474.32966145832324,
      "v": 98
    },
    {
      "midi": 57,
      "hit": false,
      "t": 138061.02199999953,
      "d": 243.9409687499865,
      "v": 85
    },
    {
      "midi": 62,
      "hit": false,
      "t": 138214.08299999952,
      "d": 181.75993749999907,
      "v": 85
    },
    {
      "midi": 51,
      "hit": false,
      "t": 138367.1439999995,
      "d": 309.31077083334094,
      "v": 95
    },
    {
      "midi": 58,
      "hit": false,
      "t": 138673.2659999995,
      "d": 202.48694791668095,
      "v": 80
    },
    {
      "midi": 63,
      "hit": false,
      "t": 138826.32699999952,
      "d": 473.53246874999604,
      "v": 98
    },
    {
      "midi": 67,
      "hit": false,
      "t": 139132.44899999953,
      "d": 235.96904166665627,
      "v": 85
    },
    {
      "midi": 70,
      "hit": false,
      "t": 139438.57099999953,
      "d": 112.40417187500861,
      "v": 91
    },
    {
      "midi": 67,
      "hit": false,
      "t": 139438.57099999953,
      "d": 136.3199531249993,
      "v": 66
    },
    {
      "midi": 75,
      "hit": false,
      "t": 139438.57099999953,
      "d": 206.47291145834606,
      "v": 89
    },
    {
      "midi": 63,
      "hit": false,
      "t": 139438.57099999953,
      "d": 455.9942291666812,
      "v": 62
    },
    {
      "midi": 75,
      "hit": false,
      "t": 139744.69299999953,
      "d": 291.772531249997,
      "v": 89
    },
    {
      "midi": 70,
      "hit": false,
      "t": 139744.69299999953,
      "d": 314.09392708333326,
      "v": 93
    },
    {
      "midi": 67,
      "hit": false,
      "t": 139744.69299999953,
      "d": 328.4433958333393,
      "v": 74
    },
    {
      "midi": 63,
      "hit": false,
      "t": 140050.81499999954,
      "d": 239.95500520835049,
      "v": 82
    },
    {
      "midi": 67,
      "hit": false,
      "t": 140203.87599999955,
      "d": 200.09536979167024,
      "v": 68
    },
    {
      "midi": 70,
      "hit": false,
      "t": 140203.87599999955,
      "d": 214.4448385416763,
      "v": 76
    },
    {
      "midi": 74,
      "hit": false,
      "t": 140203.87599999955,
      "d": 259.88482291667606,
      "v": 91
    },
    {
      "midi": 63,
      "hit": false,
      "t": 140509.99799999956,
      "d": 181.75993749999907,
      "v": 87
    },
    {
      "midi": 72,
      "hit": false,
      "t": 140509.99799999956,
      "d": 266.2623645833228,
      "v": 89
    },
    {
      "midi": 50,
      "hit": false,
      "t": 140816.11999999956,
      "d": 314.09392708333326,
      "v": 85
    },
    {
      "midi": 74,
      "hit": false,
      "t": 140816.11999999956,
      "d": 733.417291666643,
      "v": 91
    },
    {
      "midi": 57,
      "hit": false,
      "t": 141122.24199999956,
      "d": 765.3049999999639,
      "v": 72
    },
    {
      "midi": 62,
      "hit": false,
      "t": 141275.30299999955,
      "d": 343.59005729164346,
      "v": 87
    },
    {
      "midi": 66,
      "hit": false,
      "t": 141581.42499999952,
      "d": 204.08133333333535,
      "v": 87
    },
    {
      "midi": 66,
      "hit": false,
      "t": 141887.54699999953,
      "d": 230.38869270833675,
      "v": 66
    },
    {
      "midi": 72,
      "hit": false,
      "t": 141887.54699999953,
      "d": 242.3465833333321,
      "v": 87
    },
    {
      "midi": 60,
      "hit": false,
      "t": 141887.54699999953,
      "d": 510.2033333333384,
      "v": 80
    },
    {
      "midi": 66,
      "hit": false,
      "t": 142193.66899999953,
      "d": 330.0377812499937,
      "v": 82
    },
    {
      "midi": 72,
      "hit": false,
      "t": 142193.66899999953,
      "d": 410.5542447916523,
      "v": 98
    },
    {
      "midi": 60,
      "hit": false,
      "t": 142499.79099999953,
      "d": 548.4685833333351,
      "v": 78
    },
    {
      "midi": 66,
      "hit": false,
      "t": 142652.85199999952,
      "d": 180.16555208334466,
      "v": 72
    },
    {
      "midi": 70,
      "hit": false,
      "t": 142652.85199999952,
      "d": 319.6742760416819,
      "v": 87
    },
    {
      "midi": 66,
      "hit": false,
      "t": 142958.97399999952,
      "d": 164.2216979166842,
      "v": 68
    },
    {
      "midi": 69,
      "hit": false,
      "t": 142958.97399999952,
      "d": 174.58520312502515,
      "v": 91
    },
    {
      "midi": 62,
      "hit": false,
      "t": 143265.09599999955,
      "d": 106.82382291665999,
      "v": 62
    },
    {
      "midi": 55,
      "hit": false,
      "t": 143265.09599999955,
      "d": 290.97533854166977,
      "v": 66
    },
    {
      "midi": 67,
      "hit": false,
      "t": 143265.09599999955,
      "d": 331.6321666666772,
      "v": 72
    },
    {
      "midi": 70,
      "hit": false,
      "t": 143265.09599999955,
      "d": 360.33110416668933,
      "v": 102
    },
    {
      "midi": 62,
      "hit": false,
      "t": 143571.21799999956,
      "d": 334.0237447916588,
      "v": 66
    },
    {
      "midi": 67,
      "hit": false,
      "t": 143724.27899999957,
      "d": 133.9283749999886,
      "v": 89
    },
    {
      "midi": 67,
      "hit": false,
      "t": 143877.33999999956,
      "d": 67.76138020833605,
      "v": 60
    },
    {
      "midi": 69,
      "hit": false,
      "t": 143877.33999999956,
      "d": 113.99855729166302,
      "v": 80
    },
    {
      "midi": 67,
      "hit": false,
      "t": 144030.40099999955,
      "d": 127.55083333334187,
      "v": 68
    },
    {
      "midi": 70,
      "hit": false,
      "t": 144030.40099999955,
      "d": 218.4308020833414,
      "v": 89
    },
    {
      "midi": 62,
      "hit": false,
      "t": 144030.40099999955,
      "d": 238.36061979166698,
      "v": 66
    },
    {
      "midi": 67,
      "hit": false,
      "t": 144336.52299999955,
      "d": 90.08277604167233,
      "v": 57
    },
    {
      "midi": 62,
      "hit": false,
      "t": 144336.52299999955,
      "d": 139.5087239583372,
      "v": 52
    },
    {
      "midi": 69,
      "hit": false,
      "t": 144336.52299999955,
      "d": 275.8286770833365,
      "v": 85
    },
    {
      "midi": 58,
      "hit": false,
      "t": 144336.52299999955,
      "d": 1064.2522656250221,
      "v": 59
    },
    {
      "midi": 62,
      "hit": false,
      "t": 144642.64499999955,
      "d": 241.5493906250049,
      "v": 70
    },
    {
      "midi": 67,
      "hit": false,
      "t": 144642.64499999955,
      "d": 251.91289583334583,
      "v": 91
    },
    {
      "midi": 67,
      "hit": false,
      "t": 144948.76699999956,
      "d": 59.78945312500582,
      "v": 53
    },
    {
      "midi": 62,
      "hit": false,
      "t": 144948.76699999956,
      "d": 103.63505208335118,
      "v": 60
    },
    {
      "midi": 69,
      "hit": false,
      "t": 144948.76699999956,
      "d": 103.63505208335118,
      "v": 80
    },
    {
      "midi": 62,
      "hit": false,
      "t": 145101.82799999957,
      "d": 79.7192708333314,
      "v": 53
    },
    {
      "midi": 67,
      "hit": false,
      "t": 145101.82799999957,
      "d": 79.7192708333314,
      "v": 53
    },
    {
      "midi": 70,
      "hit": false,
      "t": 145101.82799999957,
      "d": 295.7584947916621,
      "v": 95
    },
    {
      "midi": 67,
      "hit": false,
      "t": 145407.94999999958,
      "d": 318.07989062499837,
      "v": 82
    },
    {
      "midi": 62,
      "hit": false,
      "t": 145407.94999999958,
      "d": 344.38724999999977,
      "v": 82
    },
    {
      "midi": 50,
      "hit": false,
      "t": 145714.07199999958,
      "d": 176.97678124997765,
      "v": 91
    },
    {
      "midi": 57,
      "hit": false,
      "t": 145867.13299999957,
      "d": 1956.3109062499425,
      "v": 82
    },
    {
      "midi": 66,
      "hit": false,
      "t": 146020.19399999955,
      "d": 117.98452083332813,
      "v": 82
    },
    {
      "midi": 66,
      "hit": false,
      "t": 146173.25499999954,
      "d": 184.15151562500978,
      "v": 63
    },
    {
      "midi": 69,
      "hit": false,
      "t": 146173.25499999954,
      "d": 390.62442708332674,
      "v": 89
    },
    {
      "midi": 62,
      "hit": false,
      "t": 146479.37699999954,
      "d": 220.0251874999958,
      "v": 80
    },
    {
      "midi": 66,
      "hit": false,
      "t": 146479.37699999954,
      "d": 231.98307812499115,
      "v": 89
    },
    {
      "midi": 66,
      "hit": false,
      "t": 146785.49899999955,
      "d": 178.57116666666116,
      "v": 72
    },
    {
      "midi": 72,
      "hit": false,
      "t": 146785.49899999955,
      "d": 206.47291145831696,
      "v": 95
    },
    {
      "midi": 66,
      "hit": false,
      "t": 147091.62099999952,
      "d": 300.5416510416544,
      "v": 87
    },
    {
      "midi": 72,
      "hit": false,
      "t": 147091.62099999952,
      "d": 373.88338020831,
      "v": 102
    },
    {
      "midi": 62,
      "hit": false,
      "t": 147397.7429999995,
      "d": 262.27640104168677,
      "v": 87
    },
    {
      "midi": 66,
      "hit": false,
      "t": 147550.8039999995,
      "d": 221.61957291667932,
      "v": 89
    },
    {
      "midi": 70,
      "hit": false,
      "t": 147550.8039999995,
      "d": 275.8286770833365,
      "v": 105
    },
    {
      "midi": 69,
      "hit": false,
      "t": 147856.9259999995,
      "d": 227.99711458332604,
      "v": 87
    },
    {
      "midi": 62,
      "hit": false,
      "t": 147856.9259999995,
      "d": 291.772531249997,
      "v": 66
    },
    {
      "midi": 51,
      "hit": false,
      "t": 148163.04799999952,
      "d": 156.24977083332487,
      "v": 87
    },
    {
      "midi": 67,
      "hit": false,
      "t": 148163.04799999952,
      "d": 182.55713020832627,
      "v": 70
    },
    {
      "midi": 70,
      "hit": false,
      "t": 148163.04799999952,
      "d": 302.1360364583379,
      "v": 87
    },
    {
      "midi": 58,
      "hit": false,
      "t": 148316.1089999995,
      "d": 401.7851249999949,
      "v": 70
    },
    {
      "midi": 67,
      "hit": false,
      "t": 148469.16999999952,
      "d": 110.0125937499979,
      "v": 68
    },
    {
      "midi": 63,
      "hit": false,
      "t": 148469.16999999952,
      "d": 278.2202552083181,
      "v": 47
    },
    {
      "midi": 67,
      "hit": false,
      "t": 148622.2309999995,
      "d": 161.8301197916735,
      "v": 68
    },
    {
      "midi": 70,
      "hit": false,
      "t": 148622.2309999995,
      "d": 415.33740104167373,
      "v": 113
    },
    {
      "midi": 63,
      "hit": false,
      "t": 148928.3529999995,
      "d": 792.4095520833507,
      "v": 93
    },
    {
      "midi": 67,
      "hit": false,
      "t": 149234.4749999995,
      "d": 159.4385416666628,
      "v": 80
    },
    {
      "midi": 70,
      "hit": false,
      "t": 149234.4749999995,
      "d": 165.8160833333386,
      "v": 95
    },
    {
      "midi": 75,
      "hit": false,
      "t": 149234.4749999995,
      "d": 165.8160833333386,
      "v": 89
    },
    {
      "midi": 67,
      "hit": false,
      "t": 149540.5969999995,
      "d": 295.7584947916912,
      "v": 78
    },
    {
      "midi": 75,
      "hit": false,
      "t": 149540.5969999995,
      "d": 315.68831250004587,
      "v": 85
    },
    {
      "midi": 70,
      "hit": false,
      "t": 149540.5969999995,
      "d": 328.4433958333684,
      "v": 85
    },
    {
      "midi": 63,
      "hit": false,
      "t": 149846.71899999955,
      "d": 235.96904166668537,
      "v": 85
    },
    {
      "midi": 67,
      "hit": false,
      "t": 149999.77999999956,
      "d": 380.2609218750149,
      "v": 64
    },
    {
      "midi": 74,
      "hit": false,
      "t": 149999.77999999956,
      "d": 464.7633489583386,
      "v": 93
    },
    {
      "midi": 70,
      "hit": false,
      "t": 149999.77999999956,
      "d": 474.32966145835235,
      "v": 66
    },
    {
      "midi": 63,
      "hit": false,
      "t": 150305.90199999957,
      "d": 176.17958854167955,
      "v": 85
    },
    {
      "midi": 50,
      "hit": false,
      "t": 150612.02399999957,
      "d": 287.78656770833186,
      "v": 89
    },
    {
      "midi": 74,
      "hit": false,
      "t": 150612.02399999957,
      "d": 419.32336458333884,
      "v": 100
    },
    {
      "midi": 57,
      "hit": false,
      "t": 150918.14599999957,
      "d": 1406.2479375000112,
      "v": 68
    },
    {
      "midi": 62,
      "hit": false,
      "t": 151071.2069999996,
      "d": 180.16555208334466,
      "v": 62
    },
    {
      "midi": 72,
      "hit": false,
      "t": 151071.2069999996,
      "d": 330.0377812499937,
      "v": 91
    },
    {
      "midi": 62,
      "hit": false,
      "t": 151377.3289999996,
      "d": 108.4182083333144,
      "v": 43
    },
    {
      "midi": 70,
      "hit": false,
      "t": 151377.3289999996,
      "d": 271.8427135416423,
      "v": 98
    },
    {
      "midi": 62,
      "hit": false,
      "t": 151683.45099999956,
      "d": 158.64134895833558,
      "v": 72
    },
    {
      "midi": 69,
      "hit": false,
      "t": 151683.45099999956,
      "d": 579.5590989583288,
      "v": 98
    },
    {
      "midi": 62,
      "hit": false,
      "t": 151989.57299999957,
      "d": 348.373213541694,
      "v": 82
    },
    {
      "midi": 66,
      "hit": false,
      "t": 152295.69499999957,
      "d": 479.91001041664276,
      "v": 68
    },
    {
      "midi": 54,
      "hit": false,
      "t": 152295.69499999957,
      "d": 526.1471874999697,
      "v": 60
    },
    {
      "midi": 62,
      "hit": false,
      "t": 152448.7559999996,
      "d": 164.2216979166551,
      "v": 68
    },
    {
      "midi": 69,
      "hit": false,
      "t": 152448.7559999996,
      "d": 352.3591770833009,
      "v": 89
    },
    {
      "midi": 62,
      "hit": false,
      "t": 152754.87799999956,
      "d": 247.9269322916516,
      "v": 70
    },
    {
      "midi": 63,
      "hit": false,
      "t": 153060.99999999953,
      "d": 50.223140624992084,
      "v": 49
    },
    {
      "midi": 70,
      "hit": false,
      "t": 153060.99999999953,
      "d": 133.9283749999886,
      "v": 102
    },
    {
      "midi": 51,
      "hit": false,
      "t": 153060.99999999953,
      "d": 256.69605208330904,
      "v": 82
    },
    {
      "midi": 63,
      "hit": false,
      "t": 153214.06099999952,
      "d": 384.2468854166509,
      "v": 78
    },
    {
      "midi": 67,
      "hit": false,
      "t": 153367.1219999995,
      "d": 231.98307812499115,
      "v": 80
    },
    {
      "midi": 70,
      "hit": false,
      "t": 153520.1829999995,
      "d": 238.36061979166698,
      "v": 89
    },
    {
      "midi": 67,
      "hit": false,
      "t": 153826.3049999995,
      "d": 160.23573437499,
      "v": 82
    },
    {
      "midi": 63,
      "hit": false,
      "t": 153826.3049999995,
      "d": 226.40272916664253,
      "v": 80
    },
    {
      "midi": 70,
      "hit": false,
      "t": 154132.42699999947,
      "d": 69.35576562499045,
      "v": 98
    },
    {
      "midi": 67,
      "hit": false,
      "t": 154132.42699999947,
      "d": 90.08277604164323,
      "v": 76
    },
    {
      "midi": 75,
      "hit": false,
      "t": 154132.42699999947,
      "d": 125.95644791662926,
      "v": 89
    },
    {
      "midi": 63,
      "hit": false,
      "t": 154132.42699999947,
      "d": 504.62298437496065,
      "v": 57
    },
    {
      "midi": 75,
      "hit": false,
      "t": 154438.54899999945,
      "d": 299.7444583333272,
      "v": 93
    },
    {
      "midi": 67,
      "hit": false,
      "t": 154438.54899999945,
      "d": 314.09392708333326,
      "v": 76
    },
    {
      "midi": 70,
      "hit": false,
      "t": 154438.54899999945,
      "d": 349.9675989583193,
      "v": 102
    },
    {
      "midi": 63,
      "hit": false,
      "t": 154744.67099999945,
      "d": 214.4448385416472,
      "v": 87
    },
    {
      "midi": 70,
      "hit": false,
      "t": 154897.73199999944,
      "d": 58.19506770832231,
      "v": 47
    },
    {
      "midi": 67,
      "hit": false,
      "t": 154897.73199999944,
      "d": 200.09536979167024,
      "v": 72
    },
    {
      "midi": 74,
      "hit": false,
      "t": 154897.73199999944,
      "d": 288.58376041665906,
      "v": 89
    },
    {
      "midi": 63,
      "hit": false,
      "t": 155203.85399999944,
      "d": 189.7318645833293,
      "v": 93
    },
    {
      "midi": 72,
      "hit": false,
      "t": 155203.85399999944,
      "d": 257.49324479166535,
      "v": 82
    },
    {
      "midi": 50,
      "hit": false,
      "t": 155509.97599999944,
      "d": 2197.8602968749474,
      "v": 98
    },
    {
      "midi": 57,
      "hit": false,
      "t": 155816.09799999945,
      "d": 580.356291666656,
      "v": 87
    },
    {
      "midi": 62,
      "hit": false,
      "t": 155969.15899999943,
      "d": 224.01115104166092,
      "v": 68
    },
    {
      "midi": 62,
      "hit": false,
      "t": 156275.28099999944,
      "d": 436.0644114583265,
      "v": 70
    },
    {
      "midi": 66,
      "hit": false,
      "t": 156275.28099999944,
      "d": 502.23140624997905,
      "v": 87
    },
    {
      "midi": 69,
      "hit": false,
      "t": 156275.28099999944,
      "d": 502.23140624997905,
      "v": 91
    },
    {
      "midi": 57,
      "hit": false,
      "t": 156581.40299999944,
      "d": 479.91001041664276,
      "v": 91
    },
    {
      "midi": 62,
      "hit": false,
      "t": 156887.5249999994,
      "d": 322.0658541666635,
      "v": 74
    },
    {
      "midi": 69,
      "hit": false,
      "t": 156887.5249999994,
      "d": 353.9535624999844,
      "v": 85
    },
    {
      "midi": 66,
      "hit": false,
      "t": 156887.5249999994,
      "d": 405.77108854166,
      "v": 68
    },
    {
      "midi": 54,
      "hit": false,
      "t": 157193.64699999942,
      "d": 510.2033333333093,
      "v": 80
    },
    {
      "midi": 62,
      "hit": false,
      "t": 157346.7079999994,
      "d": 307.71638541665743,
      "v": 89
    },
    {
      "midi": 57,
      "hit": false,
      "t": 157652.8299999994,
      "d": 125.95644791665836,
      "v": 74
    },
    {
      "midi": 66,
      "hit": false,
      "t": 157652.8299999994,
      "d": 132.3339895833342,
      "v": 82
    },
    {
      "midi": 62,
      "hit": false,
      "t": 157805.8909999994,
      "d": 181.75993749999907,
      "v": 80
    },
    {
      "midi": 51,
      "hit": false,
      "t": 157958.95199999938,
      "d": 258.29043750002165,
      "v": 93
    },
    {
      "midi": 58,
      "hit": false,
      "t": 158112.0129999994,
      "d": 2047.9880677084147,
      "v": 80
    },
    {
      "midi": 63,
      "hit": false,
      "t": 158265.0739999994,
      "d": 330.0377812499937,
      "v": 60
    },
    {
      "midi": 67,
      "hit": false,
      "t": 158418.1349999994,
      "d": 262.27640104168677,
      "v": 82
    },
    {
      "midi": 67,
      "hit": false,
      "t": 158724.25699999943,
      "d": 87.69119791666162,
      "v": 35
    },
    {
      "midi": 70,
      "hit": false,
      "t": 158724.25699999943,
      "d": 200.09536979167024,
      "v": 80
    },
    {
      "midi": 63,
      "hit": false,
      "t": 158724.25699999943,
      "d": 629.7822395833791,
      "v": 53
    },
    {
      "midi": 70,
      "hit": false,
      "t": 159030.37899999943,
      "d": 196.10940625000512,
      "v": 107
    },
    {
      "midi": 67,
      "hit": false,
      "t": 159030.37899999943,
      "d": 205.67571875001886,
      "v": 82
    },
    {
      "midi": 75,
      "hit": false,
      "t": 159030.37899999943,
      "d": 224.01115104169003,
      "v": 98
    },
    {
      "midi": 67,
      "hit": false,
      "t": 159336.50099999947,
      "d": 318.07989062499837,
      "v": 85
    },
    {
      "midi": 75,
      "hit": false,
      "t": 159336.50099999947,
      "d": 318.07989062499837,
      "v": 91
    },
    {
      "midi": 70,
      "hit": false,
      "t": 159336.50099999947,
      "d": 343.59005729167257,
      "v": 100
    },
    {
      "midi": 63,
      "hit": false,
      "t": 159642.62299999947,
      "d": 229.59150000000955,
      "v": 82
    },
    {
      "midi": 67,
      "hit": false,
      "t": 159795.68399999948,
      "d": 224.01115104166092,
      "v": 63
    },
    {
      "midi": 70,
      "hit": false,
      "t": 159795.68399999948,
      "d": 240.75219791664858,
      "v": 80
    },
    {
      "midi": 74,
      "hit": false,
      "t": 159795.68399999948,
      "d": 250.31851041666232,
      "v": 89
    },
    {
      "midi": 63,
      "hit": false,
      "t": 160101.8059999995,
      "d": 168.20766145832022,
      "v": 89
    },
    {
      "midi": 72,
      "hit": false,
      "t": 160101.8059999995,
      "d": 266.2623645833228,
      "v": 91
    },
    {
      "midi": 74,
      "hit": false,
      "t": 160407.9279999995,
      "d": 312.49954166667885,
      "v": 95
    },
    {
      "midi": 50,
      "hit": false,
      "t": 160407.9279999995,
      "d": 2260.041328125022,
      "v": 98
    },
    {
      "midi": 69,
      "hit": false,
      "t": 160714.0499999995,
      "d": 155.45257812502678,
      "v": 64
    },
    {
      "midi": 57,
      "hit": false,
      "t": 160714.0499999995,
      "d": 269.4511354166898,
      "v": 63
    },
    {
      "midi": 66,
      "hit": false,
      "t": 160867.1109999995,
      "d": 302.1360364583379,
      "v": 105
    },
    {
      "midi": 57,
      "hit": false,
      "t": 161173.2329999995,
      "d": 455.9942291666812,
      "v": 100
    },
    {
      "midi": 62,
      "hit": false,
      "t": 161479.35499999952,
      "d": 458.3858072916628,
      "v": 102
    },
    {
      "midi": 54,
      "hit": false,
      "t": 161785.47699999952,
      "d": 901.6249531249923,
      "v": 80
    },
    {
      "midi": 62,
      "hit": false,
      "t": 162091.59899999952,
      "d": 106.02663020833279,
      "v": 62
    },
    {
      "midi": 57,
      "hit": false,
      "t": 162244.6599999995,
      "d": 173.78801041666884,
      "v": 78
    },
    {
      "midi": 72,
      "hit": false,
      "t": 162244.6599999995,
      "d": 377.8693437500042,
      "v": 102
    },
    {
      "midi": 62,
      "hit": false,
      "t": 162244.6599999995,
      "d": 401.7851249999949,
      "v": 87
    },
    {
      "midi": 66,
      "hit": false,
      "t": 162244.6599999995,
      "d": 411.3514375000086,
      "v": 95
    },
    {
      "midi": 57,
      "hit": false,
      "t": 162550.7819999995,
      "d": 170.59923958333093,
      "v": 62
    },
    {
      "midi": 62,
      "hit": false,
      "t": 162856.90399999951,
      "d": 237.56342708333977,
      "v": 85
    },
    {
      "midi": 67,
      "hit": false,
      "t": 162856.90399999951,
      "d": 237.56342708333977,
      "v": 78
    },
    {
      "midi": 79,
      "hit": false,
      "t": 162856.90399999951,
      "d": 240.7521979166777,
      "v": 102
    },
    {
      "midi": 55,
      "hit": false,
      "t": 162856.90399999951,
      "d": 248.72412500000792,
      "v": 85
    },
    {
      "midi": 67,
      "hit": false,
      "t": 163469.14799999952,
      "d": 222.41676562500652,
      "v": 87
    },
    {
      "midi": 79,
      "hit": false,
      "t": 163469.14799999952,
      "d": 230.38869270833675,
      "v": 102
    },
    {
      "midi": 55,
      "hit": false,
      "t": 163469.14799999952,
      "d": 235.96904166665627,
      "v": 82
    },
    {
      "midi": 62,
      "hit": false,
      "t": 163469.14799999952,
      "d": 239.95500520832138,
      "v": 89
    },
    {
      "midi": 62,
      "hit": false,
      "t": 164081.3919999995,
      "d": 227.99711458332604,
      "v": 87
    },
    {
      "midi": 67,
      "hit": false,
      "t": 164081.3919999995,
      "d": 227.99711458332604,
      "v": 89
    },
    {
      "midi": 55,
      "hit": false,
      "t": 164081.3919999995,
      "d": 238.36061979166698,
      "v": 87
    },
    {
      "midi": 79,
      "hit": false,
      "t": 164081.3919999995,
      "d": 238.36061979166698,
      "v": 102
    },
    {
      "midi": 57,
      "hit": false,
      "t": 165305.8799999995,
      "d": 201.68975520832464,
      "v": 82
    },
    {
      "midi": 50,
      "hit": false,
      "t": 165305.8799999995,
      "d": 322.0658541666635,
      "v": 89
    },
    {
      "midi": 62,
      "hit": false,
      "t": 165305.8799999995,
      "d": 347.5760208333377,
      "v": 80
    },
    {
      "midi": 69,
      "hit": false,
      "t": 165305.8799999995,
      "d": 357.9395260416786,
      "v": 100
    },
    {
      "midi": 66,
      "hit": false,
      "t": 165305.8799999995,
      "d": 413.7430156250193,
      "v": 100
    },
    {
      "midi": 57,
      "hit": false,
      "t": 165612.0019999995,
      "d": 438.4559895833663,
      "v": 87
    },
    {
      "midi": 62,
      "hit": false,
      "t": 165765.06299999953,
      "d": 251.91289583334583,
      "v": 100
    },
    {
      "midi": 62,
      "hit": false,
      "t": 166071.18499999953,
      "d": 127.55083333334187,
      "v": 66
    },
    {
      "midi": 66,
      "hit": false,
      "t": 166071.18499999953,
      "d": 233.57746354167466,
      "v": 85
    },
    {
      "midi": 54,
      "hit": false,
      "t": 166071.18499999953,
      "d": 956.6312500000349,
      "v": 85
    },
    {
      "midi": 62,
      "hit": false,
      "t": 166377.30699999954,
      "d": 206.47291145834606,
      "v": 60
    },
    {
      "midi": 72,
      "hit": false,
      "t": 166377.30699999954,
      "d": 216.0392239583598,
      "v": 98
    },
    {
      "midi": 66,
      "hit": false,
      "t": 166377.30699999954,
      "d": 231.98307812502026,
      "v": 80
    },
    {
      "midi": 62,
      "hit": false,
      "t": 166683.42899999957,
      "d": 334.0237447916588,
      "v": 82
    },
    {
      "midi": 72,
      "hit": false,
      "t": 166683.42899999957,
      "d": 393.81319791666465,
      "v": 102
    },
    {
      "midi": 66,
      "hit": false,
      "t": 166683.42899999957,
      "d": 444.03633854165673,
      "v": 98
    },
    {
      "midi": 60,
      "hit": false,
      "t": 166989.55099999957,
      "d": 478.31562499998836,
      "v": 107
    },
    {
      "midi": 62,
      "hit": false,
      "t": 167142.61199999956,
      "d": 247.9269322916807,
      "v": 91
    },
    {
      "midi": 54,
      "hit": false,
      "t": 167448.73399999956,
      "d": 95.66312499999185,
      "v": 72
    },
    {
      "midi": 66,
      "hit": false,
      "t": 167448.73399999956,
      "d": 129.94241145832348,
      "v": 87
    },
    {
      "midi": 62,
      "hit": false,
      "t": 167601.79499999955,
      "d": 144.29188020832953,
      "v": 89
    },
    {
      "midi": 51,
      "hit": false,
      "t": 167754.85599999953,
      "d": 314.09392708333326,
      "v": 95
    },
    {
      "midi": 58,
      "hit": false,
      "t": 168060.97799999954,
      "d": 2062.3375364583335,
      "v": 78
    },
    {
      "midi": 67,
      "hit": false,
      "t": 168214.03899999952,
      "d": 224.01115104166092,
      "v": 87
    },
    {
      "midi": 63,
      "hit": false,
      "t": 168214.03899999952,
      "d": 514.1892968750035,
      "v": 91
    },
    {
      "midi": 70,
      "hit": false,
      "t": 168520.16099999953,
      "d": 149.87222916667815,
      "v": 87
    },
    {
      "midi": 70,
      "hit": false,
      "t": 168826.28299999953,
      "d": 164.2216979166551,
      "v": 102
    },
    {
      "midi": 75,
      "hit": false,
      "t": 168826.28299999953,
      "d": 175.38239583332324,
      "v": 98
    },
    {
      "midi": 67,
      "hit": false,
      "t": 168826.28299999953,
      "d": 198.50098437498673,
      "v": 82
    },
    {
      "midi": 67,
      "hit": false,
      "t": 169132.4049999995,
      "d": 125.95644791665836,
      "v": 63
    },
    {
      "midi": 74,
      "hit": false,
      "t": 169132.4049999995,
      "d": 173.78801041666884,
      "v": 98
    },
    {
      "midi": 70,
      "hit": false,
      "t": 169132.4049999995,
      "d": 185.74590104166418,
      "v": 89
    },
    {
      "midi": 67,
      "hit": false,
      "t": 169438.5269999995,
      "d": 258.29043749999255,
      "v": 64
    },
    {
      "midi": 70,
      "hit": false,
      "t": 169438.5269999995,
      "d": 385.8412708333344,
      "v": 95
    },
    {
      "midi": 73,
      "hit": false,
      "t": 169438.5269999995,
      "d": 392.21881250001024,
      "v": 110
    },
    {
      "midi": 63,
      "hit": false,
      "t": 169744.6489999995,
      "d": 387.4356562500179,
      "v": 91
    },
    {
      "midi": 67,
      "hit": false,
      "t": 169897.70999999953,
      "d": 345.9816354166833,
      "v": 100
    },
    {
      "midi": 50,
      "hit": false,
      "t": 170203.83199999953,
      "d": 326.0518177083286,
      "v": 98
    },
    {
      "midi": 57,
      "hit": false,
      "t": 170509.95399999953,
      "d": 1945.9474010416307,
      "v": 78
    },
    {
      "midi": 62,
      "hit": false,
      "t": 170663.01499999952,
      "d": 467.9521197916765,
      "v": 105
    },
    {
      "midi": 66,
      "hit": false,
      "t": 170969.13699999952,
      "d": 212.05326041666558,
      "v": 98
    },
    {
      "midi": 62,
      "hit": false,
      "t": 171275.25899999953,
      "d": 71.74734375000116,
      "v": 47
    },
    {
      "midi": 66,
      "hit": false,
      "t": 171275.25899999953,
      "d": 156.24977083332487,
      "v": 85
    },
    {
      "midi": 69,
      "hit": false,
      "t": 171275.25899999953,
      "d": 209.66168229165487,
      "v": 95
    },
    {
      "midi": 66,
      "hit": false,
      "t": 171581.3809999995,
      "d": 334.0237447916588,
      "v": 89
    },
    {
      "midi": 69,
      "hit": false,
      "t": 171581.3809999995,
      "d": 388.232848958316,
      "v": 102
    },
    {
      "midi": 62,
      "hit": false,
      "t": 171887.5029999995,
      "d": 172.19362499998533,
      "v": 85
    },
    {
      "midi": 72,
      "hit": false,
      "t": 172040.5639999995,
      "d": 339.60409375000745,
      "v": 91
    },
    {
      "midi": 66,
      "hit": false,
      "t": 172040.5639999995,
      "d": 345.9816354166833,
      "v": 85
    },
    {
      "midi": 69,
      "hit": false,
      "t": 172040.5639999995,
      "d": 345.9816354166833,
      "v": 91
    },
    {
      "midi": 62,
      "hit": false,
      "t": 172346.6859999995,
      "d": 188.1374791666749,
      "v": 82
    },
    {
      "midi": 62,
      "hit": false,
      "t": 172652.8079999995,
      "d": 236.76623437501257,
      "v": 70
    },
    {
      "midi": 67,
      "hit": false,
      "t": 172652.8079999995,
      "d": 236.76623437501257,
      "v": 64
    },
    {
      "midi": 70,
      "hit": false,
      "t": 172652.8079999995,
      "d": 236.76623437501257,
      "v": 93
    },
    {
      "midi": 74,
      "hit": false,
      "t": 172652.8079999995,
      "d": 236.76623437501257,
      "v": 95
    },
    {
      "midi": 55,
      "hit": false,
      "t": 172652.8079999995,
      "d": 241.5493906250049,
      "v": 68
    },
    {
      "midi": 67,
      "hit": false,
      "t": 173265.0519999995,
      "d": 224.01115104166092,
      "v": 76
    },
    {
      "midi": 70,
      "hit": false,
      "t": 173265.0519999995,
      "d": 224.01115104166092,
      "v": 98
    },
    {
      "midi": 74,
      "hit": false,
      "t": 173265.0519999995,
      "d": 224.01115104166092,
      "v": 95
    },
    {
      "midi": 55,
      "hit": false,
      "t": 173265.0519999995,
      "d": 239.95500520832138,
      "v": 80
    },
    {
      "midi": 62,
      "hit": false,
      "t": 173265.0519999995,
      "d": 239.95500520832138,
      "v": 76
    },
    {
      "midi": 70,
      "hit": false,
      "t": 173877.29599999948,
      "d": 230.38869270833675,
      "v": 98
    },
    {
      "midi": 55,
      "hit": false,
      "t": 173877.29599999948,
      "d": 246.3325468749972,
      "v": 82
    },
    {
      "midi": 62,
      "hit": false,
      "t": 173877.29599999948,
      "d": 246.3325468749972,
      "v": 68
    },
    {
      "midi": 67,
      "hit": false,
      "t": 173877.29599999948,
      "d": 246.3325468749972,
      "v": 76
    },
    {
      "midi": 74,
      "hit": false,
      "t": 173877.29599999948,
      "d": 246.3325468749972,
      "v": 95
    },
    {
      "midi": 66,
      "hit": false,
      "t": 175101.78399999946,
      "d": 320.4714687500091,
      "v": 60
    },
    {
      "midi": 69,
      "hit": false,
      "t": 175101.78399999946,
      "d": 412.1486302083358,
      "v": 82
    },
    {
      "midi": 50,
      "hit": false,
      "t": 175101.78399999946,
      "d": 2273.593604166672,
      "v": 91
    },
    {
      "midi": 57,
      "hit": false,
      "t": 175407.90599999946,
      "d": 1666.1327604166581,
      "v": 68
    },
    {
      "midi": 66,
      "hit": false,
      "t": 175560.96699999945,
      "d": 320.4714687500091,
      "v": 80
    },
    {
      "midi": 69,
      "hit": false,
      "t": 175867.08899999945,
      "d": 227.99711458332604,
      "v": 85
    },
    {
      "midi": 62,
      "hit": false,
      "t": 175867.08899999945,
      "d": 735.8088697916537,
      "v": 60
    },
    {
      "midi": 74,
      "hit": false,
      "t": 176173.21099999946,
      "d": 341.99567187498906,
      "v": 100
    },
    {
      "midi": 69,
      "hit": false,
      "t": 176479.33299999946,
      "d": 316.48550520831486,
      "v": 87
    },
    {
      "midi": 66,
      "hit": false,
      "t": 176785.45499999943,
      "d": 416.13459375003004,
      "v": 98
    },
    {
      "midi": 62,
      "hit": false,
      "t": 177091.57699999947,
      "d": 454.3998437499977,
      "v": 70
    },
    {
      "midi": 57,
      "hit": false,
      "t": 177244.63799999945,
      "d": 293.3669166666805,
      "v": 61
    },
    {
      "midi": 66,
      "hit": false,
      "t": 177397.69899999947,
      "d": 147.48065104166744,
      "v": 59
    },
    {
      "midi": 51,
      "hit": false,
      "t": 177550.75999999946,
      "d": 2295.915000000008,
      "v": 93
    },
    {
      "midi": 58,
      "hit": false,
      "t": 177856.88199999946,
      "d": 1428.5693333333184,
      "v": 70
    },
    {
      "midi": 63,
      "hit": false,
      "t": 178163.00399999946,
      "d": 193.7178281249944,
      "v": 74
    },
    {
      "midi": 63,
      "hit": false,
      "t": 178469.12599999947,
      "d": 571.5871718749986,
      "v": 66
    },
    {
      "midi": 75,
      "hit": false,
      "t": 178775.24799999947,
      "d": 148.27784374999464,
      "v": 93
    },
    {
      "midi": 70,
      "hit": false,
      "t": 178928.30899999946,
      "d": 133.9283750000177,
      "v": 80
    },
    {
      "midi": 67,
      "hit": false,
      "t": 179081.36999999947,
      "d": 542.0910416666302,
      "v": 100
    },
    {
      "midi": 63,
      "hit": false,
      "t": 179234.43099999946,
      "d": 404.1767031249765,
      "v": 91
    },
    {
      "midi": 55,
      "hit": false,
      "t": 179540.55299999943,
      "d": 307.71638541668653,
      "v": 82
    },
    {
      "midi": 70,
      "hit": false,
      "t": 179693.61399999945,
      "d": 142.69749479167513,
      "v": 95
    },
    {
      "midi": 67,
      "hit": false,
      "t": 179846.67499999946,
      "d": 173.78801041663974,
      "v": 78
    },
    {
      "midi": 50,
      "hit": false,
      "t": 179999.73599999945,
      "d": 359.5339114583039,
      "v": 105
    },
    {
      "midi": 57,
      "hit": false,
      "t": 180305.85799999943,
      "d": 1138.391187500005,
      "v": 82
    },
    {
      "midi": 62,
      "hit": false,
      "t": 180458.9189999994,
      "d": 220.0251874999958,
      "v": 91
    },
    {
      "midi": 66,
      "hit": false,
      "t": 180458.9189999994,
      "d": 231.98307812499115,
      "v": 87
    },
    {
      "midi": 62,
      "hit": false,
      "t": 180765.04099999942,
      "d": 156.24977083332487,
      "v": 72
    },
    {
      "midi": 66,
      "hit": false,
      "t": 180765.04099999942,
      "d": 156.24977083332487,
      "v": 85
    },
    {
      "midi": 69,
      "hit": false,
      "t": 180765.04099999942,
      "d": 226.40272916667163,
      "v": 91
    },
    {
      "midi": 60,
      "hit": false,
      "t": 181071.16299999942,
      "d": 204.08133333333535,
      "v": 72
    },
    {
      "midi": 66,
      "hit": false,
      "t": 181071.16299999942,
      "d": 518.1752604166686,
      "v": 78
    },
    {
      "midi": 69,
      "hit": false,
      "t": 181071.16299999942,
      "d": 598.6917239583272,
      "v": 89
    },
    {
      "midi": 72,
      "hit": false,
      "t": 181071.16299999942,
      "d": 598.6917239583272,
      "v": 98
    },
    {
      "midi": 60,
      "hit": false,
      "t": 181377.28499999942,
      "d": 527.7415729166823,
      "v": 85
    },
    {
      "midi": 66,
      "hit": false,
      "t": 181683.40699999942,
      "d": 90.08277604167233,
      "v": 70
    },
    {
      "midi": 57,
      "hit": false,
      "t": 181836.46799999944,
      "d": 343.59005729167257,
      "v": 85
    },
    {
      "midi": 66,
      "hit": false,
      "t": 181836.46799999944,
      "d": 373.8833802083391,
      "v": 78
    },
    {
      "midi": 69,
      "hit": false,
      "t": 181836.46799999944,
      "d": 373.8833802083391,
      "v": 91
    },
    {
      "midi": 60,
      "hit": false,
      "t": 182142.58999999944,
      "d": 176.17958854167955,
      "v": 89
    },
    {
      "midi": 67,
      "hit": false,
      "t": 182448.71199999945,
      "d": 279.0174479166744,
      "v": 68
    },
    {
      "midi": 55,
      "hit": false,
      "t": 182448.71199999945,
      "d": 279.81464062500163,
      "v": 82
    },
    {
      "midi": 74,
      "hit": false,
      "t": 182448.71199999945,
      "d": 295.7584947916621,
      "v": 95
    },
    {
      "midi": 70,
      "hit": false,
      "t": 182448.71199999945,
      "d": 393.01600520833745,
      "v": 107
    },
    {
      "midi": 62,
      "hit": false,
      "t": 182754.83399999945,
      "d": 419.32336458330974,
      "v": 80
    },
    {
      "midi": 67,
      "hit": false,
      "t": 182907.89499999944,
      "d": 231.98307812499115,
      "v": 87
    },
    {
      "midi": 67,
      "hit": false,
      "t": 183214.01699999944,
      "d": 129.94241145832348,
      "v": 68
    },
    {
      "midi": 70,
      "hit": false,
      "t": 183214.01699999944,
      "d": 164.2216979166551,
      "v": 98
    },
    {
      "midi": 58,
      "hit": false,
      "t": 183214.01699999944,
      "d": 860.1709322916577,
      "v": 64
    },
    {
      "midi": 67,
      "hit": false,
      "t": 183520.1389999994,
      "d": 112.40417187500861,
      "v": 68
    },
    {
      "midi": 70,
      "hit": false,
      "t": 183520.1389999994,
      "d": 117.98452083332813,
      "v": 98
    },
    {
      "midi": 74,
      "hit": false,
      "t": 183520.1389999994,
      "d": 156.24977083332487,
      "v": 100
    },
    {
      "midi": 67,
      "hit": false,
      "t": 183826.26099999942,
      "d": 312.49954166667885,
      "v": 78
    },
    {
      "midi": 70,
      "hit": false,
      "t": 183826.26099999942,
      "d": 409.7570520833542,
      "v": 102
    },
    {
      "midi": 62,
      "hit": false,
      "t": 184132.38299999942,
      "d": 782.0460468750098,
      "v": 102
    },
    {
      "midi": 67,
      "hit": false,
      "t": 184285.44399999944,
      "d": 266.2623645833228,
      "v": 95
    },
    {
      "midi": 57,
      "hit": false,
      "t": 184591.56599999944,
      "d": 124.36206250000396,
      "v": 44
    },
    {
      "midi": 70,
      "hit": false,
      "t": 184591.56599999944,
      "d": 139.5087239583372,
      "v": 85
    },
    {
      "midi": 67,
      "hit": false,
      "t": 184744.62699999945,
      "d": 151.46661458333256,
      "v": 76
    },
    {
      "midi": 50,
      "hit": false,
      "t": 184897.68799999944,
      "d": 315.68831249998766,
      "v": 100
    },
    {
      "midi": 66,
      "hit": false,
      "t": 185203.80999999942,
      "d": 127.55083333334187,
      "v": 76
    },
    {
      "midi": 57,
      "hit": false,
      "t": 185203.80999999942,
      "d": 423.30932812500396,
      "v": 63
    },
    {
      "midi": 66,
      "hit": false,
      "t": 185356.87099999943,
      "d": 129.94241145832348,
      "v": 52
    },
    {
      "midi": 69,
      "hit": false,
      "t": 185356.87099999943,
      "d": 389.82723437497043,
      "v": 89
    },
    {
      "midi": 62,
      "hit": false,
      "t": 185662.9929999994,
      "d": 295.7584947916621,
      "v": 82
    },
    {
      "midi": 66,
      "hit": false,
      "t": 185969.1149999994,
      "d": 503.82579166666255,
      "v": 66
    },
    {
      "midi": 74,
      "hit": false,
      "t": 185969.1149999994,
      "d": 593.9085677083349,
      "v": 85
    },
    {
      "midi": 62,
      "hit": false,
      "t": 186275.2369999994,
      "d": 770.0881562499853,
      "v": 87
    },
    {
      "midi": 66,
      "hit": false,
      "t": 186581.35899999941,
      "d": 534.1191145833291,
      "v": 68
    },
    {
      "midi": 69,
      "hit": false,
      "t": 186734.4199999994,
      "d": 452.00826562501607,
      "v": 89
    },
    {
      "midi": 57,
      "hit": false,
      "t": 187040.5419999994,
      "d": 282.20621875001234,
      "v": 85
    },
    {
      "midi": 66,
      "hit": false,
      "t": 187193.60299999942,
      "d": 188.1374791666458,
      "v": 64
    },
    {
      "midi": 51,
      "hit": false,
      "t": 187346.6639999994,
      "d": 291.772531249997,
      "v": 95
    },
    {
      "midi": 67,
      "hit": false,
      "t": 187499.7249999994,
      "d": 157.84415625000838,
      "v": 85
    },
    {
      "midi": 58,
      "hit": false,
      "t": 187652.7859999994,
      "d": 319.6742760416528,
      "v": 68
    },
    {
      "midi": 67,
      "hit": false,
      "t": 187805.8469999994,
      "d": 153.85819270834327,
      "v": 78
    },
    {
      "midi": 70,
      "hit": false,
      "t": 187805.8469999994,
      "d": 153.85819270834327,
      "v": 91
    },
    {
      "midi": 67,
      "hit": false,
      "t": 188111.9689999994,
      "d": 94.06873958333745,
      "v": 70
    },
    {
      "midi": 70,
      "hit": false,
      "t": 188111.9689999994,
      "d": 99.64908854165697,
      "v": 82
    },
    {
      "midi": 63,
      "hit": false,
      "t": 188111.9689999994,
      "d": 233.57746354164556,
      "v": 80
    },
    {
      "midi": 67,
      "hit": false,
      "t": 188418.09099999937,
      "d": 78.92207812500419,
      "v": 89
    },
    {
      "midi": 70,
      "hit": false,
      "t": 188418.09099999937,
      "d": 78.92207812500419,
      "v": 105
    },
    {
      "midi": 75,
      "hit": false,
      "t": 188418.09099999937,
      "d": 111.60697916668141,
      "v": 98
    },
    {
      "midi": 75,
      "hit": false,
      "t": 188724.21299999938,
      "d": 319.6742760416819,
      "v": 98
    },
    {
      "midi": 67,
      "hit": false,
      "t": 188724.21299999938,
      "d": 326.0518177083577,
      "v": 87
    },
    {
      "midi": 70,
      "hit": false,
      "t": 188724.21299999938,
      "d": 330.0377812500228,
      "v": 102
    },
    {
      "midi": 63,
      "hit": false,
      "t": 189030.33499999938,
      "d": 281.40902604168514,
      "v": 82
    },
    {
      "midi": 70,
      "hit": false,
      "t": 189183.3959999994,
      "d": 243.9409687500156,
      "v": 72
    },
    {
      "midi": 67,
      "hit": false,
      "t": 189183.3959999994,
      "d": 247.9269322916807,
      "v": 70
    },
    {
      "midi": 74,
      "hit": false,
      "t": 189183.3959999994,
      "d": 287.78656770836096,
      "v": 95
    },
    {
      "midi": 63,
      "hit": false,
      "t": 189489.51799999943,
      "d": 102.04066666666768,
      "v": 60
    },
    {
      "midi": 72,
      "hit": false,
      "t": 189489.51799999943,
      "d": 255.89885937501094,
      "v": 82
    },
    {
      "midi": 50,
      "hit": false,
      "t": 189795.63999999943,
      "d": 275.0314843750093,
      "v": 85
    },
    {
      "midi": 74,
      "hit": false,
      "t": 189795.63999999943,
      "d": 373.8833802083391,
      "v": 98
    },
    {
      "midi": 57,
      "hit": false,
      "t": 190101.76199999943,
      "d": 1114.4754062500142,
      "v": 68
    },
    {
      "midi": 72,
      "hit": false,
      "t": 190254.82299999945,
      "d": 322.0658541666635,
      "v": 105
    },
    {
      "midi": 70,
      "hit": false,
      "t": 190560.94499999945,
      "d": 246.3325468749972,
      "v": 98
    },
    {
      "midi": 62,
      "hit": false,
      "t": 190560.94499999945,
      "d": 352.35917708333,
      "v": 64
    },
    {
      "midi": 69,
      "hit": false,
      "t": 190867.06699999946,
      "d": 635.3625885416404,
      "v": 98
    },
    {
      "midi": 62,
      "hit": false,
      "t": 191173.18899999946,
      "d": 282.20621874998324,
      "v": 85
    },
    {
      "midi": 50,
      "hit": false,
      "t": 191479.31099999943,
      "d": 237.56342708331067,
      "v": 89
    },
    {
      "midi": 54,
      "hit": false,
      "t": 191632.37199999942,
      "d": 295.7584947916621,
      "v": 72
    },
    {
      "midi": 66,
      "hit": false,
      "t": 191938.49399999942,
      "d": 212.85045312499278,
      "v": 89
    },
    {
      "midi": 62,
      "hit": false,
      "t": 191938.49399999942,
      "d": 258.29043749999255,
      "v": 74
    },
    {
      "midi": 70,
      "hit": false,
      "t": 192244.61599999943,
      "d": 39.85963541668025,
      "v": 66
    },
    {
      "midi": 55,
      "hit": false,
      "t": 192244.61599999943,
      "d": 243.9409687500156,
      "v": 82
    },
    {
      "midi": 67,
      "hit": false,
      "t": 192244.61599999943,
      "d": 261.47920833335957,
      "v": 66
    },
    {
      "midi": 74,
      "hit": false,
      "t": 192244.61599999943,
      "d": 331.6321666667063,
      "v": 98
    },
    {
      "midi": 62,
      "hit": false,
      "t": 192550.73799999946,
      "d": 361.92548958334373,
      "v": 80
    },
    {
      "midi": 67,
      "hit": false,
      "t": 192703.79899999948,
      "d": 181.75993749999907,
      "v": 89
    },
    {
      "midi": 67,
      "hit": false,
      "t": 193009.92099999948,
      "d": 106.02663020833279,
      "v": 63
    },
    {
      "midi": 70,
      "hit": false,
      "t": 193009.92099999948,
      "d": 106.02663020833279,
      "v": 98
    },
    {
      "midi": 58,
      "hit": false,
      "t": 193009.92099999948,
      "d": 426.49809895834187,
      "v": 82
    },
    {
      "midi": 67,
      "hit": false,
      "t": 193316.04299999948,
      "d": 208.06729687500047,
      "v": 68
    },
    {
      "midi": 72,
      "hit": false,
      "t": 193316.04299999948,
      "d": 238.36061979166698,
      "v": 98
    },
    {
      "midi": 67,
      "hit": false,
      "t": 193622.16499999948,
      "d": 182.55713020832627,
      "v": 70
    },
    {
      "midi": 70,
      "hit": false,
      "t": 193622.16499999948,
      "d": 255.89885937498184,
      "v": 105
    },
    {
      "midi": 62,
      "hit": false,
      "t": 193622.16499999948,
      "d": 632.1738177083316,
      "v": 64
    },
    {
      "midi": 67,
      "hit": false,
      "t": 193928.28699999946,
      "d": 19.929817708325572,
      "v": 39
    },
    {
      "midi": 69,
      "hit": false,
      "t": 193928.28699999946,
      "d": 94.06873958333745,
      "v": 82
    },
    {
      "midi": 67,
      "hit": false,
      "t": 194081.34799999947,
      "d": 457.5886145833356,
      "v": 98
    },
    {
      "midi": 62,
      "hit": false,
      "t": 194387.46999999948,
      "d": 316.48550520834397,
      "v": 87
    },
    {
      "midi": 50,
      "hit": false,
      "t": 194693.59199999948,
      "d": 209.66168229168397,
      "v": 87
    },
    {
      "midi": 69,
      "hit": false,
      "t": 194693.59199999948,
      "d": 269.4511354166898,
      "v": 89
    },
    {
      "midi": 57,
      "hit": false,
      "t": 194846.6529999995,
      "d": 1493.939135416702,
      "v": 80
    },
    {
      "midi": 66,
      "hit": false,
      "t": 194999.7139999995,
      "d": 107.6210156249872,
      "v": 80
    },
    {
      "midi": 66,
      "hit": false,
      "t": 195152.7749999995,
      "d": 153.85819270834327,
      "v": 62
    },
    {
      "midi": 69,
      "hit": false,
      "t": 195152.7749999995,
      "d": 205.67571875001886,
      "v": 98
    },
    {
      "midi": 66,
      "hit": false,
      "t": 195458.89699999953,
      "d": 160.23573437499,
      "v": 76
    },
    {
      "midi": 62,
      "hit": false,
      "t": 195458.89699999953,
      "d": 247.9269322916516,
      "v": 66
    },
    {
      "midi": 69,
      "hit": false,
      "t": 195458.89699999953,
      "d": 258.29043749999255,
      "v": 87
    },
    {
      "midi": 66,
      "hit": false,
      "t": 195765.01899999953,
      "d": 196.10940625000512,
      "v": 80
    },
    {
      "midi": 69,
      "hit": false,
      "t": 195765.01899999953,
      "d": 204.08133333333535,
      "v": 80
    },
    {
      "midi": 72,
      "hit": false,
      "t": 195765.01899999953,
      "d": 224.01115104166092,
      "v": 95
    },
    {
      "midi": 66,
      "hit": false,
      "t": 196071.14099999954,
      "d": 338.00970833332394,
      "v": 89
    },
    {
      "midi": 72,
      "hit": false,
      "t": 196071.14099999954,
      "d": 420.12055729166605,
      "v": 102
    },
    {
      "midi": 69,
      "hit": false,
      "t": 196071.14099999954,
      "d": 495.8538645833323,
      "v": 98
    },
    {
      "midi": 62,
      "hit": false,
      "t": 196377.26299999954,
      "d": 554.0489322916546,
      "v": 89
    },
    {
      "midi": 66,
      "hit": false,
      "t": 196530.32399999953,
      "d": 330.0377812499937,
      "v": 87
    },
    {
      "midi": 69,
      "hit": false,
      "t": 196836.44599999953,
      "d": 176.17958854165045,
      "v": 80
    },
    {
      "midi": 57,
      "hit": false,
      "t": 196836.44599999953,
      "d": 233.57746354164556,
      "v": 66
    },
    {
      "midi": 66,
      "hit": false,
      "t": 196989.50699999952,
      "d": 235.96904166665627,
      "v": 66
    },
    {
      "midi": 51,
      "hit": false,
      "t": 197142.5679999995,
      "d": 184.15151562500978,
      "v": 87
    },
    {
      "midi": 58,
      "hit": false,
      "t": 197295.62899999952,
      "d": 208.06729687500047,
      "v": 78
    },
    {
      "midi": 63,
      "hit": false,
      "t": 197448.6899999995,
      "d": 632.1738177083607,
      "v": 78
    },
    {
      "midi": 67,
      "hit": false,
      "t": 197601.75099999952,
      "d": 257.49324479166535,
      "v": 89
    },
    {
      "midi": 70,
      "hit": false,
      "t": 197907.87299999953,
      "d": 194.51502083335072,
      "v": 98
    },
    {
      "midi": 75,
      "hit": false,
      "t": 198213.99499999953,
      "d": 183.35432291665347,
      "v": 87
    },
    {
      "midi": 67,
      "hit": false,
      "t": 198213.99499999953,
      "d": 189.7318645833293,
      "v": 76
    },
    {
      "midi": 70,
      "hit": false,
      "t": 198213.99499999953,
      "d": 189.7318645833293,
      "v": 89
    },
    {
      "midi": 63,
      "hit": false,
      "t": 198213.99499999953,
      "d": 527.7415729166823,
      "v": 66
    },
    {
      "midi": 75,
      "hit": false,
      "t": 198520.11699999953,
      "d": 388.23284895834513,
      "v": 95
    },
    {
      "midi": 67,
      "hit": false,
      "t": 198520.11699999953,
      "d": 397.79916145835887,
      "v": 85
    },
    {
      "midi": 70,
      "hit": false,
      "t": 198520.11699999953,
      "d": 404.1767031250347,
      "v": 91
    },
    {
      "midi": 63,
      "hit": false,
      "t": 198826.23899999954,
      "d": 302.136036458367,
      "v": 93
    },
    {
      "midi": 67,
      "hit": false,
      "t": 198979.29999999958,
      "d": 199.29817708331393,
      "v": 72
    },
    {
      "midi": 70,
      "hit": false,
      "t": 198979.29999999958,
      "d": 251.91289583331672,
      "v": 72
    },
    {
      "midi": 74,
      "hit": false,
      "t": 198979.29999999958,
      "d": 259.88482291664695,
      "v": 93
    },
    {
      "midi": 67,
      "hit": false,
      "t": 199285.42199999955,
      "d": 107.6210156249872,
      "v": 66
    },
    {
      "midi": 63,
      "hit": false,
      "t": 199285.42199999955,
      "d": 186.54309374999139,
      "v": 85
    },
    {
      "midi": 72,
      "hit": false,
      "t": 199285.42199999955,
      "d": 264.6679791666684,
      "v": 93
    },
    {
      "midi": 50,
      "hit": false,
      "t": 199591.54399999956,
      "d": 275.8286770833365,
      "v": 89
    },
    {
      "midi": 74,
      "hit": false,
      "t": 199591.54399999956,
      "d": 702.3267760416493,
      "v": 105
    },
    {
      "midi": 57,
      "hit": false,
      "t": 199897.66599999956,
      "d": 2004.142468749953,
      "v": 78
    },
    {
      "midi": 62,
      "hit": false,
      "t": 200050.72699999955,
      "d": 476.72123958333395,
      "v": 89
    },
    {
      "midi": 66,
      "hit": false,
      "t": 200356.84899999955,
      "d": 218.4308020833414,
      "v": 85
    },
    {
      "midi": 62,
      "hit": false,
      "t": 200662.97099999955,
      "d": 231.98307812499115,
      "v": 72
    },
    {
      "midi": 66,
      "hit": false,
      "t": 200662.97099999955,
      "d": 482.3015885416826,
      "v": 89
    },
    {
      "midi": 69,
      "hit": false,
      "t": 200662.97099999955,
      "d": 734.2144843749702,
      "v": 93
    },
    {
      "midi": 62,
      "hit": false,
      "t": 200969.09299999956,
      "d": 341.99567187498906,
      "v": 68
    },
    {
      "midi": 66,
      "hit": false,
      "t": 201275.21499999956,
      "d": 98.05470312497346,
      "v": 62
    },
    {
      "midi": 62,
      "hit": false,
      "t": 201428.27599999952,
      "d": 174.58520312499604,
      "v": 72
    },
    {
      "midi": 66,
      "hit": false,
      "t": 201428.27599999952,
      "d": 174.58520312499604,
      "v": 68
    },
    {
      "midi": 69,
      "hit": false,
      "t": 201428.27599999952,
      "d": 174.58520312499604,
      "v": 78
    },
    {
      "midi": 72,
      "hit": false,
      "t": 201428.27599999952,
      "d": 200.09536979167024,
      "v": 89
    },
    {
      "midi": 66,
      "hit": false,
      "t": 201734.39799999952,
      "d": 161.8301197916735,
      "v": 87
    },
    {
      "midi": 69,
      "hit": false,
      "t": 201734.39799999952,
      "d": 161.8301197916735,
      "v": 87
    },
    {
      "midi": 72,
      "hit": false,
      "t": 201734.39799999952,
      "d": 173.78801041666884,
      "v": 93
    },
    {
      "midi": 62,
      "hit": false,
      "t": 201734.39799999952,
      "d": 200.89256249999744,
      "v": 62
    },
    {
      "midi": 62,
      "hit": false,
      "t": 202040.51999999952,
      "d": 137.9143385416537,
      "v": 72
    },
    {
      "midi": 67,
      "hit": false,
      "t": 202040.51999999952,
      "d": 236.76623437498347,
      "v": 102
    },
    {
      "midi": 70,
      "hit": false,
      "t": 202040.51999999952,
      "d": 236.76623437498347,
      "v": 93
    },
    {
      "midi": 74,
      "hit": false,
      "t": 202040.51999999952,
      "d": 236.76623437498347,
      "v": 95
    },
    {
      "midi": 55,
      "hit": false,
      "t": 202040.51999999952,
      "d": 241.54939062497579,
      "v": 70
    },
    {
      "midi": 62,
      "hit": false,
      "t": 202346.6419999995,
      "d": 306.122000000003,
      "v": 66
    },
    {
      "midi": 58,
      "hit": false,
      "t": 202346.6419999995,
      "d": 448.81949479167815,
      "v": 66
    },
    {
      "midi": 67,
      "hit": false,
      "t": 202499.70299999948,
      "d": 116.39013541667373,
      "v": 80
    },
    {
      "midi": 62,
      "hit": false,
      "t": 202652.7639999995,
      "d": 34.279286458331626,
      "v": 76
    },
    {
      "midi": 69,
      "hit": false,
      "t": 202652.7639999995,
      "d": 102.04066666666768,
      "v": 78
    },
    {
      "midi": 67,
      "hit": false,
      "t": 202652.7639999995,
      "d": 153.06100000001607,
      "v": 76
    },
    {
      "midi": 70,
      "hit": false,
      "t": 202652.7639999995,
      "d": 153.06100000001607,
      "v": 98
    },
    {
      "midi": 74,
      "hit": false,
      "t": 202652.7639999995,
      "d": 224.01115104169003,
      "v": 95
    },
    {
      "midi": 55,
      "hit": false,
      "t": 202652.7639999995,
      "d": 239.95500520835049,
      "v": 80
    },
    {
      "midi": 67,
      "hit": false,
      "t": 202805.82499999952,
      "d": 70.95015104167396,
      "v": 78
    },
    {
      "midi": 70,
      "hit": false,
      "t": 202805.82499999952,
      "d": 70.95015104167396,
      "v": 93
    },
    {
      "midi": 62,
      "hit": false,
      "t": 202805.82499999952,
      "d": 86.89400520833442,
      "v": 87
    },
    {
      "midi": 67,
      "hit": false,
      "t": 203111.94699999952,
      "d": 153.06099999998696,
      "v": 80
    },
    {
      "midi": 69,
      "hit": false,
      "t": 203111.94699999952,
      "d": 258.29043749999255,
      "v": 98
    },
    {
      "midi": 62,
      "hit": false,
      "t": 203265.0079999995,
      "d": 11.160697916668141,
      "v": 68
    },
    {
      "midi": 67,
      "hit": false,
      "t": 203265.0079999995,
      "d": 62.97822395834373,
      "v": 76
    },
    {
      "midi": 70,
      "hit": false,
      "t": 203265.0079999995,
      "d": 230.38869270833675,
      "v": 98
    },
    {
      "midi": 55,
      "hit": false,
      "t": 203265.0079999995,
      "d": 246.3325468749972,
      "v": 82
    },
    {
      "midi": 74,
      "hit": false,
      "t": 203265.0079999995,
      "d": 246.3325468749972,
      "v": 95
    },
    {
      "midi": 62,
      "hit": false,
      "t": 203418.06899999952,
      "d": 93.27154687498114,
      "v": 85
    },
    {
      "midi": 67,
      "hit": false,
      "t": 203418.06899999952,
      "d": 93.27154687498114,
      "v": 82
    },
    {
      "midi": 58,
      "hit": false,
      "t": 203418.06899999952,
      "d": 768.4937708332727,
      "v": 76
    },
    {
      "midi": 67,
      "hit": false,
      "t": 203724.1909999995,
      "d": 71.74734375000116,
      "v": 60
    },
    {
      "midi": 69,
      "hit": false,
      "t": 203724.1909999995,
      "d": 95.66312499999185,
      "v": 78
    },
    {
      "midi": 62,
      "hit": false,
      "t": 203877.25199999948,
      "d": 168.20766145832022,
      "v": 82
    },
    {
      "midi": 67,
      "hit": false,
      "t": 203877.25199999948,
      "d": 218.4308020833123,
      "v": 72
    },
    {
      "midi": 70,
      "hit": false,
      "t": 203877.25199999948,
      "d": 310.10796354163904,
      "v": 93
    },
    {
      "midi": 67,
      "hit": false,
      "t": 204183.37399999946,
      "d": 124.36206250000396,
      "v": 78
    },
    {
      "midi": 62,
      "hit": false,
      "t": 204183.37399999946,
      "d": 262.27640104165766,
      "v": 72
    },
    {
      "midi": 50,
      "hit": false,
      "t": 204489.49599999946,
      "d": 270.2483281249879,
      "v": 91
    },
    {
      "midi": 66,
      "hit": false,
      "t": 204489.49599999946,
      "d": 320.47146874998,
      "v": 95
    },
    {
      "midi": 62,
      "hit": false,
      "t": 204489.49599999946,
      "d": 340.40128645830555,
      "v": 87
    },
    {
      "midi": 69,
      "hit": false,
      "t": 204489.49599999946,
      "d": 412.1486302083067,
      "v": 82
    },
    {
      "midi": 57,
      "hit": false,
      "t": 204795.61799999943,
      "d": 383.4496927083237,
      "v": 72
    },
    {
      "midi": 62,
      "hit": false,
      "t": 204948.67899999942,
      "d": 78.12488541667699,
      "v": 60
    },
    {
      "midi": 66,
      "hit": false,
      "t": 204948.67899999942,
      "d": 96.46031770834816,
      "v": 80
    },
    {
      "midi": 62,
      "hit": false,
      "t": 205101.73999999944,
      "d": 79.7192708333314,
      "v": 58
    },
    {
      "midi": 67,
      "hit": false,
      "t": 205101.73999999944,
      "d": 148.27784374999464,
      "v": 85
    },
    {
      "midi": 62,
      "hit": false,
      "t": 205254.80099999942,
      "d": 168.20766145832022,
      "v": 68
    },
    {
      "midi": 69,
      "hit": false,
      "t": 205254.80099999942,
      "d": 192.1234427083109,
      "v": 89
    },
    {
      "midi": 57,
      "hit": false,
      "t": 205254.80099999942,
      "d": 596.3001458332874,
      "v": 80
    },
    {
      "midi": 62,
      "hit": false,
      "t": 205560.9229999994,
      "d": 246.3325468749972,
      "v": 70
    },
    {
      "midi": 67,
      "hit": false,
      "t": 205560.9229999994,
      "d": 288.58376041665906,
      "v": 93
    },
    {
      "midi": 74,
      "hit": false,
      "t": 205560.9229999994,
      "d": 341.99567187495995,
      "v": 100
    },
    {
      "midi": 62,
      "hit": false,
      "t": 205867.04499999937,
      "d": 123.56486979164765,
      "v": 72
    },
    {
      "midi": 66,
      "hit": false,
      "t": 205867.04499999937,
      "d": 242.346583333303,
      "v": 91
    },
    {
      "midi": 69,
      "hit": false,
      "t": 205867.04499999937,
      "d": 316.48550520831486,
      "v": 87
    },
    {
      "midi": 54,
      "hit": false,
      "t": 205867.04499999937,
      "d": 775.6685052082757,
      "v": 66
    },
    {
      "midi": 62,
      "hit": false,
      "t": 206173.16699999935,
      "d": 55.803489583340706,
      "v": 56
    },
    {
      "midi": 67,
      "hit": false,
      "t": 206173.16699999935,
      "d": 117.98452083332813,
      "v": 78
    },
    {
      "midi": 57,
      "hit": false,
      "t": 206173.16699999935,
      "d": 247.9269322916516,
      "v": 48
    },
    {
      "midi": 66,
      "hit": false,
      "t": 206173.16699999935,
      "d": 416.1345937499718,
      "v": 98
    },
    {
      "midi": 62,
      "hit": false,
      "t": 206326.22799999933,
      "d": 153.06099999998696,
      "v": 85
    },
    {
      "midi": 69,
      "hit": false,
      "t": 206326.22799999933,
      "d": 474.32966145829414,
      "v": 98
    },
    {
      "midi": 62,
      "hit": false,
      "t": 206479.28899999932,
      "d": 229.59149999998044,
      "v": 70
    },
    {
      "midi": 57,
      "hit": false,
      "t": 206632.3499999993,
      "d": 243.9409687499865,
      "v": 85
    },
    {
      "midi": 66,
      "hit": false,
      "t": 206785.4109999993,
      "d": 147.48065104166744,
      "v": 59
    },
    {
      "midi": 62,
      "hit": false,
      "t": 206785.4109999993,
      "d": 148.27784374999464,
      "v": 85
    },
    {
      "midi": 51,
      "hit": false,
      "t": 206938.47199999928,
      "d": 309.31077083334094,
      "v": 95
    },
    {
      "midi": 58,
      "hit": false,
      "t": 207244.59399999928,
      "d": 202.48694791668095,
      "v": 80
    },
    {
      "midi": 63,
      "hit": false,
      "t": 207397.6549999993,
      "d": 153.06099999998696,
      "v": 98
    },
    {
      "midi": 63,
      "hit": false,
      "t": 207550.7159999993,
      "d": 193.7178281249944,
      "v": 74
    },
    {
      "midi": 67,
      "hit": false,
      "t": 207703.77699999927,
      "d": 235.96904166668537,
      "v": 85
    },
    {
      "midi": 63,
      "hit": false,
      "t": 207856.8379999993,
      "d": 14.349468750006054,
      "v": 66
    },
    {
      "midi": 70,
      "hit": false,
      "t": 208009.8989999993,
      "d": 112.40417187500861,
      "v": 91
    },
    {
      "midi": 67,
      "hit": false,
      "t": 208009.8989999993,
      "d": 136.3199531249993,
      "v": 66
    },
    {
      "midi": 75,
      "hit": false,
      "t": 208009.8989999993,
      "d": 153.06099999998696,
      "v": 89
    },
    {
      "midi": 63,
      "hit": false,
      "t": 208009.8989999993,
      "d": 418.52617187498254,
      "v": 62
    },
    {
      "midi": 75,
      "hit": false,
      "t": 208162.9599999993,
      "d": 53.411911458329996,
      "v": 93
    },
    {
      "midi": 70,
      "hit": false,
      "t": 208316.02099999928,
      "d": 133.9283750000177,
      "v": 93
    },
    {
      "midi": 67,
      "hit": false,
      "t": 208316.02099999928,
      "d": 153.06100000001607,
      "v": 74
    },
    {
      "midi": 75,
      "hit": false,
      "t": 208316.02099999928,
      "d": 291.7725312500261,
      "v": 89
    },
    {
      "midi": 67,
      "hit": false,
      "t": 208469.0819999993,
      "d": 175.38239583335235,
      "v": 100
    },
    {
      "midi": 63,
      "hit": false,
      "t": 208622.1429999993,
      "d": 239.95500520835049,
      "v": 91
    },
    {
      "midi": 67,
      "hit": false,
      "t": 208775.20399999933,
      "d": 200.09536979164113,
      "v": 68
    },
    {
      "midi": 70,
      "hit": false,
      "t": 208775.20399999933,
      "d": 214.4448385416472,
      "v": 76
    },
    {
      "midi": 74,
      "hit": false,
      "t": 208775.20399999933,
      "d": 259.88482291664695,
      "v": 91
    },
    {
      "midi": 55,
      "hit": false,
      "t": 208928.26499999932,
      "d": 307.71638541665743,
      "v": 82
    },
    {
      "midi": 70,
      "hit": false,
      "t": 209081.3259999993,
      "d": 142.69749479167513,
      "v": 95
    },
    {
      "midi": 63,
      "hit": false,
      "t": 209081.3259999993,
      "d": 181.75993749999907,
      "v": 87
    },
    {
      "midi": 72,
      "hit": false,
      "t": 209081.3259999993,
      "d": 266.2623645833228,
      "v": 89
    },
    {
      "midi": 67,
      "hit": false,
      "t": 209234.38699999932,
      "d": 173.78801041663974,
      "v": 78
    },
    {
      "midi": 50,
      "hit": false,
      "t": 209387.4479999993,
      "d": 314.09392708330415,
      "v": 105
    },
    {
      "midi": 74,
      "hit": false,
      "t": 209387.4479999993,
      "d": 733.4172916666139,
      "v": 91
    },
    {
      "midi": 57,
      "hit": false,
      "t": 209693.56999999928,
      "d": 765.3049999999639,
      "v": 82
    },
    {
      "midi": 62,
      "hit": false,
      "t": 209846.63099999927,
      "d": 220.0251874999958,
      "v": 91
    },
    {
      "midi": 66,
      "hit": false,
      "t": 209846.63099999927,
      "d": 231.98307812499115,
      "v": 87
    },
    {
      "midi": 62,
      "hit": false,
      "t": 210152.75299999924,
      "d": 37.46805729166954,
      "v": 72
    },
    {
      "midi": 66,
      "hit": false,
      "t": 210152.75299999924,
      "d": 156.24977083332487,
      "v": 87
    },
    {
      "midi": 69,
      "hit": false,
      "t": 210152.75299999924,
      "d": 226.40272916667163,
      "v": 91
    },
    {
      "midi": 60,
      "hit": false,
      "t": 210458.87499999924,
      "d": 204.08133333333535,
      "v": 80
    },
    {
      "midi": 66,
      "hit": false,
      "t": 210458.87499999924,
      "d": 230.38869270833675,
      "v": 78
    },
    {
      "midi": 72,
      "hit": false,
      "t": 210458.87499999924,
      "d": 242.3465833333321,
      "v": 98
    },
    {
      "midi": 69,
      "hit": false,
      "t": 210458.87499999924,
      "d": 598.6917239583272,
      "v": 89
    },
    {
      "midi": 60,
      "hit": false,
      "t": 210764.99699999925,
      "d": 204.08133333333535,
      "v": 85
    },
    {
      "midi": 66,
      "hit": false,
      "t": 210764.99699999925,
      "d": 212.05326041666558,
      "v": 82
    },
    {
      "midi": 72,
      "hit": false,
      "t": 210764.99699999925,
      "d": 292.5697239583242,
      "v": 98
    },
    {
      "midi": 66,
      "hit": false,
      "t": 211071.11899999925,
      "d": 23.915781249990687,
      "v": 70
    },
    {
      "midi": 60,
      "hit": false,
      "t": 211071.11899999925,
      "d": 221.6195729166502,
      "v": 78
    },
    {
      "midi": 66,
      "hit": false,
      "t": 211224.17999999924,
      "d": 180.16555208331556,
      "v": 78
    },
    {
      "midi": 69,
      "hit": false,
      "t": 211224.17999999924,
      "d": 306.1219999999739,
      "v": 91
    },
    {
      "midi": 70,
      "hit": false,
      "t": 211224.17999999924,
      "d": 319.6742760416528,
      "v": 87
    },
    {
      "midi": 57,
      "hit": false,
      "t": 211224.17999999924,
      "d": 343.59005729164346,
      "v": 85
    },
    {
      "midi": 66,
      "hit": false,
      "t": 211530.3019999992,
      "d": 67.76138020833605,
      "v": 68
    },
    {
      "midi": 69,
      "hit": false,
      "t": 211530.3019999992,
      "d": 67.76138020833605,
      "v": 91
    },
    {
      "midi": 60,
      "hit": false,
      "t": 211530.3019999992,
      "d": 89.28558333334513,
      "v": 89
    },
    {
      "midi": 62,
      "hit": false,
      "t": 211836.4239999992,
      "d": 106.82382291665999,
      "v": 62
    },
    {
      "midi": 55,
      "hit": false,
      "t": 211836.4239999992,
      "d": 290.97533854166977,
      "v": 66
    },
    {
      "midi": 67,
      "hit": false,
      "t": 211836.4239999992,
      "d": 331.6321666666772,
      "v": 72
    },
    {
      "midi": 70,
      "hit": false,
      "t": 211836.4239999992,
      "d": 360.33110416668933,
      "v": 102
    },
    {
      "midi": 62,
      "hit": false,
      "t": 212142.54599999922,
      "d": 334.0237447916588,
      "v": 66
    },
    {
      "midi": 67,
      "hit": false,
      "t": 212295.60699999923,
      "d": 133.9283749999886,
      "v": 89
    },
    {
      "midi": 67,
      "hit": false,
      "t": 212448.66799999922,
      "d": 67.76138020833605,
      "v": 60
    },
    {
      "midi": 69,
      "hit": false,
      "t": 212448.66799999922,
      "d": 113.99855729166302,
      "v": 80
    },
    {
      "midi": 67,
      "hit": false,
      "t": 212601.7289999992,
      "d": 127.55083333334187,
      "v": 68
    },
    {
      "midi": 70,
      "hit": false,
      "t": 212601.7289999992,
      "d": 218.4308020833414,
      "v": 89
    },
    {
      "midi": 62,
      "hit": false,
      "t": 212601.7289999992,
      "d": 238.36061979166698,
      "v": 66
    },
    {
      "midi": 67,
      "hit": false,
      "t": 212907.8509999992,
      "d": 90.08277604167233,
      "v": 57
    },
    {
      "midi": 62,
      "hit": false,
      "t": 212907.8509999992,
      "d": 139.5087239583372,
      "v": 52
    },
    {
      "midi": 69,
      "hit": false,
      "t": 212907.8509999992,
      "d": 275.8286770833365,
      "v": 85
    },
    {
      "midi": 58,
      "hit": false,
      "t": 212907.8509999992,
      "d": 1064.2522656250221,
      "v": 59
    },
    {
      "midi": 62,
      "hit": false,
      "t": 213213.9729999992,
      "d": 241.5493906250049,
      "v": 70
    },
    {
      "midi": 67,
      "hit": false,
      "t": 213213.9729999992,
      "d": 251.91289583334583,
      "v": 91
    },
    {
      "midi": 67,
      "hit": false,
      "t": 213520.09499999922,
      "d": 59.78945312500582,
      "v": 53
    },
    {
      "midi": 62,
      "hit": false,
      "t": 213520.09499999922,
      "d": 103.63505208335118,
      "v": 60
    },
    {
      "midi": 69,
      "hit": false,
      "t": 213520.09499999922,
      "d": 103.63505208335118,
      "v": 80
    },
    {
      "midi": 62,
      "hit": false,
      "t": 213673.15599999923,
      "d": 79.7192708333314,
      "v": 53
    },
    {
      "midi": 67,
      "hit": false,
      "t": 213673.15599999923,
      "d": 79.7192708333314,
      "v": 53
    },
    {
      "midi": 70,
      "hit": false,
      "t": 213673.15599999923,
      "d": 295.7584947916621,
      "v": 95
    },
    {
      "midi": 67,
      "hit": false,
      "t": 213979.27799999923,
      "d": 318.07989062499837,
      "v": 82
    },
    {
      "midi": 62,
      "hit": false,
      "t": 213979.27799999923,
      "d": 344.38724999999977,
      "v": 82
    },
    {
      "midi": 50,
      "hit": false,
      "t": 214285.39999999924,
      "d": 176.97678124997765,
      "v": 91
    },
    {
      "midi": 57,
      "hit": false,
      "t": 214438.46099999922,
      "d": 1956.3109062499425,
      "v": 82
    },
    {
      "midi": 66,
      "hit": false,
      "t": 214591.5219999992,
      "d": 117.98452083332813,
      "v": 82
    },
    {
      "midi": 66,
      "hit": false,
      "t": 214744.5829999992,
      "d": 184.15151562500978,
      "v": 63
    },
    {
      "midi": 69,
      "hit": false,
      "t": 214744.5829999992,
      "d": 390.62442708332674,
      "v": 89
    },
    {
      "midi": 62,
      "hit": false,
      "t": 215050.7049999992,
      "d": 220.0251874999958,
      "v": 80
    },
    {
      "midi": 66,
      "hit": false,
      "t": 215050.7049999992,
      "d": 231.98307812499115,
      "v": 89
    },
    {
      "midi": 66,
      "hit": false,
      "t": 215356.8269999992,
      "d": 178.57116666666116,
      "v": 72
    },
    {
      "midi": 72,
      "hit": false,
      "t": 215356.8269999992,
      "d": 206.47291145831696,
      "v": 95
    },
    {
      "midi": 66,
      "hit": false,
      "t": 215662.94899999918,
      "d": 300.5416510416544,
      "v": 87
    },
    {
      "midi": 72,
      "hit": false,
      "t": 215662.94899999918,
      "d": 373.88338020831,
      "v": 102
    },
    {
      "midi": 62,
      "hit": false,
      "t": 215969.07099999915,
      "d": 262.27640104168677,
      "v": 87
    },
    {
      "midi": 66,
      "hit": false,
      "t": 216122.13199999917,
      "d": 221.61957291667932,
      "v": 89
    },
    {
      "midi": 70,
      "hit": false,
      "t": 216122.13199999917,
      "d": 275.8286770833365,
      "v": 105
    },
    {
      "midi": 69,
      "hit": false,
      "t": 216428.25399999917,
      "d": 227.99711458332604,
      "v": 87
    },
    {
      "midi": 62,
      "hit": false,
      "t": 216428.25399999917,
      "d": 291.772531249997,
      "v": 66
    },
    {
      "midi": 51,
      "hit": false,
      "t": 216734.37599999917,
      "d": 156.24977083332487,
      "v": 87
    },
    {
      "midi": 67,
      "hit": false,
      "t": 216734.37599999917,
      "d": 182.55713020832627,
      "v": 70
    },
    {
      "midi": 70,
      "hit": false,
      "t": 216734.37599999917,
      "d": 302.1360364583379,
      "v": 87
    },
    {
      "midi": 58,
      "hit": false,
      "t": 216887.43699999916,
      "d": 401.7851249999949,
      "v": 70
    },
    {
      "midi": 67,
      "hit": false,
      "t": 217040.49799999918,
      "d": 110.0125937499979,
      "v": 68
    },
    {
      "midi": 63,
      "hit": false,
      "t": 217040.49799999918,
      "d": 278.2202552083181,
      "v": 47
    },
    {
      "midi": 67,
      "hit": false,
      "t": 217193.55899999916,
      "d": 161.8301197916735,
      "v": 68
    },
    {
      "midi": 70,
      "hit": false,
      "t": 217193.55899999916,
      "d": 415.33740104167373,
      "v": 113
    },
    {
      "midi": 63,
      "hit": false,
      "t": 217499.68099999917,
      "d": 792.4095520833507,
      "v": 93
    },
    {
      "midi": 67,
      "hit": false,
      "t": 217805.80299999917,
      "d": 159.4385416666628,
      "v": 80
    },
    {
      "midi": 70,
      "hit": false,
      "t": 217805.80299999917,
      "d": 165.8160833333386,
      "v": 95
    },
    {
      "midi": 75,
      "hit": false,
      "t": 217805.80299999917,
      "d": 165.8160833333386,
      "v": 89
    },
    {
      "midi": 67,
      "hit": false,
      "t": 218111.92499999917,
      "d": 295.7584947916912,
      "v": 78
    },
    {
      "midi": 75,
      "hit": false,
      "t": 218111.92499999917,
      "d": 315.68831250004587,
      "v": 85
    },
    {
      "midi": 70,
      "hit": false,
      "t": 218111.92499999917,
      "d": 328.4433958333684,
      "v": 85
    },
    {
      "midi": 63,
      "hit": false,
      "t": 218418.0469999992,
      "d": 235.96904166668537,
      "v": 85
    },
    {
      "midi": 67,
      "hit": false,
      "t": 218571.10799999922,
      "d": 380.2609218750149,
      "v": 64
    },
    {
      "midi": 74,
      "hit": false,
      "t": 218571.10799999922,
      "d": 464.7633489583386,
      "v": 93
    },
    {
      "midi": 70,
      "hit": false,
      "t": 218571.10799999922,
      "d": 474.32966145835235,
      "v": 66
    },
    {
      "midi": 63,
      "hit": false,
      "t": 218877.22999999922,
      "d": 176.17958854167955,
      "v": 85
    },
    {
      "midi": 50,
      "hit": false,
      "t": 219183.35199999923,
      "d": 287.78656770833186,
      "v": 89
    },
    {
      "midi": 74,
      "hit": false,
      "t": 219183.35199999923,
      "d": 419.32336458333884,
      "v": 100
    },
    {
      "midi": 57,
      "hit": false,
      "t": 219489.47399999923,
      "d": 1406.2479375000112,
      "v": 68
    },
    {
      "midi": 62,
      "hit": false,
      "t": 219642.53499999925,
      "d": 180.16555208334466,
      "v": 62
    },
    {
      "midi": 72,
      "hit": false,
      "t": 219642.53499999925,
      "d": 330.0377812499937,
      "v": 91
    },
    {
      "midi": 62,
      "hit": false,
      "t": 219948.65699999925,
      "d": 108.4182083333144,
      "v": 43
    },
    {
      "midi": 70,
      "hit": false,
      "t": 219948.65699999925,
      "d": 271.8427135416423,
      "v": 98
    },
    {
      "midi": 62,
      "hit": false,
      "t": 220254.77899999922,
      "d": 158.64134895833558,
      "v": 72
    },
    {
      "midi": 69,
      "hit": false,
      "t": 220254.77899999922,
      "d": 579.5590989583288,
      "v": 98
    },
    {
      "midi": 62,
      "hit": false,
      "t": 220560.90099999923,
      "d": 348.373213541694,
      "v": 82
    },
    {
      "midi": 66,
      "hit": false,
      "t": 220867.02299999923,
      "d": 479.91001041664276,
      "v": 68
    },
    {
      "midi": 54,
      "hit": false,
      "t": 220867.02299999923,
      "d": 526.1471874999697,
      "v": 60
    },
    {
      "midi": 62,
      "hit": false,
      "t": 221020.08399999925,
      "d": 164.2216979166551,
      "v": 68
    },
    {
      "midi": 69,
      "hit": false,
      "t": 221020.08399999925,
      "d": 352.3591770833009,
      "v": 89
    },
    {
      "midi": 62,
      "hit": false,
      "t": 221326.20599999922,
      "d": 247.9269322916516,
      "v": 70
    },
    {
      "midi": 63,
      "hit": false,
      "t": 221632.3279999992,
      "d": 50.223140624992084,
      "v": 49
    },
    {
      "midi": 70,
      "hit": false,
      "t": 221632.3279999992,
      "d": 133.9283749999886,
      "v": 102
    },
    {
      "midi": 51,
      "hit": false,
      "t": 221632.3279999992,
      "d": 256.69605208330904,
      "v": 82
    },
    {
      "midi": 63,
      "hit": false,
      "t": 221785.38899999918,
      "d": 384.2468854166509,
      "v": 78
    },
    {
      "midi": 67,
      "hit": false,
      "t": 221938.44999999917,
      "d": 231.98307812499115,
      "v": 80
    },
    {
      "midi": 70,
      "hit": false,
      "t": 222091.51099999915,
      "d": 238.36061979166698,
      "v": 89
    },
    {
      "midi": 67,
      "hit": false,
      "t": 222397.63299999916,
      "d": 160.23573437499,
      "v": 82
    },
    {
      "midi": 63,
      "hit": false,
      "t": 222397.63299999916,
      "d": 226.40272916664253,
      "v": 80
    },
    {
      "midi": 70,
      "hit": false,
      "t": 222703.75499999913,
      "d": 69.35576562499045,
      "v": 98
    },
    {
      "midi": 67,
      "hit": false,
      "t": 222703.75499999913,
      "d": 90.08277604164323,
      "v": 76
    },
    {
      "midi": 75,
      "hit": false,
      "t": 222703.75499999913,
      "d": 125.95644791662926,
      "v": 89
    },
    {
      "midi": 63,
      "hit": false,
      "t": 222703.75499999913,
      "d": 504.62298437496065,
      "v": 57
    },
    {
      "midi": 75,
      "hit": false,
      "t": 223009.8769999991,
      "d": 299.7444583333272,
      "v": 93
    },
    {
      "midi": 67,
      "hit": false,
      "t": 223009.8769999991,
      "d": 314.09392708333326,
      "v": 76
    },
    {
      "midi": 70,
      "hit": false,
      "t": 223009.8769999991,
      "d": 349.9675989583193,
      "v": 102
    },
    {
      "midi": 63,
      "hit": false,
      "t": 223315.9989999991,
      "d": 214.4448385416472,
      "v": 87
    },
    {
      "midi": 70,
      "hit": false,
      "t": 223469.0599999991,
      "d": 58.19506770832231,
      "v": 47
    },
    {
      "midi": 67,
      "hit": false,
      "t": 223469.0599999991,
      "d": 200.09536979167024,
      "v": 72
    },
    {
      "midi": 74,
      "hit": false,
      "t": 223469.0599999991,
      "d": 288.58376041665906,
      "v": 89
    },
    {
      "midi": 63,
      "hit": false,
      "t": 223775.1819999991,
      "d": 189.7318645833293,
      "v": 93
    },
    {
      "midi": 72,
      "hit": false,
      "t": 223775.1819999991,
      "d": 257.49324479166535,
      "v": 82
    },
    {
      "midi": 50,
      "hit": false,
      "t": 224081.3039999991,
      "d": 2197.8602968749474,
      "v": 98
    },
    {
      "midi": 57,
      "hit": false,
      "t": 224387.4259999991,
      "d": 580.356291666656,
      "v": 87
    },
    {
      "midi": 62,
      "hit": false,
      "t": 224540.4869999991,
      "d": 224.01115104166092,
      "v": 68
    },
    {
      "midi": 62,
      "hit": false,
      "t": 224846.6089999991,
      "d": 436.0644114583265,
      "v": 70
    },
    {
      "midi": 66,
      "hit": false,
      "t": 224846.6089999991,
      "d": 502.23140624997905,
      "v": 87
    },
    {
      "midi": 69,
      "hit": false,
      "t": 224846.6089999991,
      "d": 502.23140624997905,
      "v": 91
    },
    {
      "midi": 57,
      "hit": false,
      "t": 225152.7309999991,
      "d": 479.91001041664276,
      "v": 91
    },
    {
      "midi": 62,
      "hit": false,
      "t": 225458.85299999907,
      "d": 322.0658541666635,
      "v": 74
    },
    {
      "midi": 69,
      "hit": false,
      "t": 225458.85299999907,
      "d": 353.9535624999844,
      "v": 85
    },
    {
      "midi": 66,
      "hit": false,
      "t": 225458.85299999907,
      "d": 405.77108854166,
      "v": 68
    },
    {
      "midi": 54,
      "hit": false,
      "t": 225764.97499999907,
      "d": 510.2033333333093,
      "v": 80
    },
    {
      "midi": 62,
      "hit": false,
      "t": 225918.03599999906,
      "d": 307.71638541665743,
      "v": 89
    },
    {
      "midi": 57,
      "hit": false,
      "t": 226224.15799999906,
      "d": 125.95644791665836,
      "v": 74
    },
    {
      "midi": 66,
      "hit": false,
      "t": 226224.15799999906,
      "d": 132.3339895833342,
      "v": 82
    },
    {
      "midi": 62,
      "hit": false,
      "t": 226377.21899999905,
      "d": 181.75993749999907,
      "v": 80
    },
    {
      "midi": 51,
      "hit": false,
      "t": 226530.27999999904,
      "d": 258.29043750002165,
      "v": 93
    },
    {
      "midi": 58,
      "hit": false,
      "t": 226683.34099999905,
      "d": 2047.9880677084147,
      "v": 80
    },
    {
      "midi": 63,
      "hit": false,
      "t": 226836.40199999907,
      "d": 330.0377812499937,
      "v": 60
    },
    {
      "midi": 67,
      "hit": false,
      "t": 226989.46299999906,
      "d": 262.27640104168677,
      "v": 82
    },
    {
      "midi": 67,
      "hit": false,
      "t": 227295.5849999991,
      "d": 87.69119791666162,
      "v": 35
    },
    {
      "midi": 70,
      "hit": false,
      "t": 227295.5849999991,
      "d": 200.09536979167024,
      "v": 80
    },
    {
      "midi": 63,
      "hit": false,
      "t": 227295.5849999991,
      "d": 629.7822395833791,
      "v": 53
    },
    {
      "midi": 70,
      "hit": false,
      "t": 227601.7069999991,
      "d": 196.10940625000512,
      "v": 107
    },
    {
      "midi": 67,
      "hit": false,
      "t": 227601.7069999991,
      "d": 205.67571875001886,
      "v": 82
    },
    {
      "midi": 75,
      "hit": false,
      "t": 227601.7069999991,
      "d": 224.01115104169003,
      "v": 98
    },
    {
      "midi": 67,
      "hit": false,
      "t": 227907.82899999912,
      "d": 318.07989062499837,
      "v": 85
    },
    {
      "midi": 75,
      "hit": false,
      "t": 227907.82899999912,
      "d": 318.07989062499837,
      "v": 91
    },
    {
      "midi": 70,
      "hit": false,
      "t": 227907.82899999912,
      "d": 343.59005729167257,
      "v": 100
    },
    {
      "midi": 63,
      "hit": false,
      "t": 228213.95099999913,
      "d": 229.59150000000955,
      "v": 82
    },
    {
      "midi": 67,
      "hit": false,
      "t": 228367.01199999914,
      "d": 224.01115104166092,
      "v": 63
    },
    {
      "midi": 70,
      "hit": false,
      "t": 228367.01199999914,
      "d": 240.75219791664858,
      "v": 80
    },
    {
      "midi": 74,
      "hit": false,
      "t": 228367.01199999914,
      "d": 250.31851041666232,
      "v": 89
    },
    {
      "midi": 63,
      "hit": false,
      "t": 228673.13399999915,
      "d": 168.20766145832022,
      "v": 89
    },
    {
      "midi": 72,
      "hit": false,
      "t": 228673.13399999915,
      "d": 266.2623645833228,
      "v": 91
    },
    {
      "midi": 74,
      "hit": false,
      "t": 228979.25599999915,
      "d": 312.49954166667885,
      "v": 95
    },
    {
      "midi": 50,
      "hit": false,
      "t": 228979.25599999915,
      "d": 2260.041328125022,
      "v": 98
    },
    {
      "midi": 69,
      "hit": false,
      "t": 229285.37799999915,
      "d": 155.45257812502678,
      "v": 64
    },
    {
      "midi": 57,
      "hit": false,
      "t": 229285.37799999915,
      "d": 269.4511354166898,
      "v": 63
    },
    {
      "midi": 66,
      "hit": false,
      "t": 229438.43899999917,
      "d": 302.1360364583379,
      "v": 105
    },
    {
      "midi": 57,
      "hit": false,
      "t": 229744.56099999917,
      "d": 455.9942291666812,
      "v": 100
    },
    {
      "midi": 62,
      "hit": false,
      "t": 230050.68299999918,
      "d": 458.3858072916628,
      "v": 102
    },
    {
      "midi": 54,
      "hit": false,
      "t": 230356.80499999918,
      "d": 901.6249531249923,
      "v": 80
    },
    {
      "midi": 62,
      "hit": false,
      "t": 230662.92699999918,
      "d": 106.02663020833279,
      "v": 62
    },
    {
      "midi": 57,
      "hit": false,
      "t": 230815.98799999917,
      "d": 173.78801041666884,
      "v": 78
    },
    {
      "midi": 72,
      "hit": false,
      "t": 230815.98799999917,
      "d": 377.8693437500042,
      "v": 102
    },
    {
      "midi": 62,
      "hit": false,
      "t": 230815.98799999917,
      "d": 401.7851249999949,
      "v": 87
    },
    {
      "midi": 66,
      "hit": false,
      "t": 230815.98799999917,
      "d": 411.3514375000086,
      "v": 95
    },
    {
      "midi": 57,
      "hit": false,
      "t": 231122.10999999917,
      "d": 170.59923958333093,
      "v": 62
    },
    {
      "midi": 63,
      "hit": false,
      "t": 231428.23199999917,
      "d": 50.223140624992084,
      "v": 49
    },
    {
      "midi": 70,
      "hit": false,
      "t": 231428.23199999917,
      "d": 133.9283749999886,
      "v": 102
    },
    {
      "midi": 51,
      "hit": false,
      "t": 231428.23199999917,
      "d": 256.69605208330904,
      "v": 82
    },
    {
      "midi": 63,
      "hit": false,
      "t": 231581.29299999916,
      "d": 384.2468854166509,
      "v": 78
    },
    {
      "midi": 67,
      "hit": false,
      "t": 231734.35399999915,
      "d": 231.98307812499115,
      "v": 80
    },
    {
      "midi": 70,
      "hit": false,
      "t": 231887.41499999914,
      "d": 238.36061979166698,
      "v": 89
    },
    {
      "midi": 67,
      "hit": false,
      "t": 232193.53699999914,
      "d": 160.23573437499,
      "v": 82
    },
    {
      "midi": 63,
      "hit": false,
      "t": 232193.53699999914,
      "d": 226.40272916664253,
      "v": 80
    },
    {
      "midi": 70,
      "hit": false,
      "t": 232499.6589999991,
      "d": 69.35576562499045,
      "v": 98
    },
    {
      "midi": 67,
      "hit": false,
      "t": 232499.6589999991,
      "d": 90.08277604164323,
      "v": 76
    },
    {
      "midi": 75,
      "hit": false,
      "t": 232499.6589999991,
      "d": 125.95644791662926,
      "v": 89
    },
    {
      "midi": 63,
      "hit": false,
      "t": 232499.6589999991,
      "d": 504.62298437496065,
      "v": 57
    },
    {
      "midi": 75,
      "hit": false,
      "t": 232805.7809999991,
      "d": 299.7444583333272,
      "v": 93
    },
    {
      "midi": 67,
      "hit": false,
      "t": 232805.7809999991,
      "d": 314.09392708333326,
      "v": 76
    },
    {
      "midi": 70,
      "hit": false,
      "t": 232805.7809999991,
      "d": 349.9675989583193,
      "v": 102
    },
    {
      "midi": 63,
      "hit": false,
      "t": 233111.9029999991,
      "d": 214.4448385416472,
      "v": 87
    },
    {
      "midi": 70,
      "hit": false,
      "t": 233264.96399999908,
      "d": 58.19506770832231,
      "v": 47
    },
    {
      "midi": 67,
      "hit": false,
      "t": 233264.96399999908,
      "d": 200.09536979167024,
      "v": 72
    },
    {
      "midi": 74,
      "hit": false,
      "t": 233264.96399999908,
      "d": 288.58376041665906,
      "v": 89
    },
    {
      "midi": 63,
      "hit": false,
      "t": 233571.08599999908,
      "d": 189.7318645833293,
      "v": 93
    },
    {
      "midi": 72,
      "hit": false,
      "t": 233571.08599999908,
      "d": 257.49324479166535,
      "v": 82
    },
    {
      "midi": 50,
      "hit": false,
      "t": 233877.20799999908,
      "d": 2197.8602968749474,
      "v": 98
    },
    {
      "midi": 57,
      "hit": false,
      "t": 234183.32999999908,
      "d": 580.356291666656,
      "v": 87
    },
    {
      "midi": 62,
      "hit": false,
      "t": 234336.39099999907,
      "d": 224.01115104166092,
      "v": 68
    },
    {
      "midi": 62,
      "hit": false,
      "t": 234642.51299999907,
      "d": 436.0644114583265,
      "v": 70
    },
    {
      "midi": 66,
      "hit": false,
      "t": 234642.51299999907,
      "d": 502.23140624997905,
      "v": 87
    },
    {
      "midi": 69,
      "hit": false,
      "t": 234642.51299999907,
      "d": 502.23140624997905,
      "v": 91
    },
    {
      "midi": 57,
      "hit": false,
      "t": 234948.63499999908,
      "d": 479.91001041664276,
      "v": 91
    },
    {
      "midi": 62,
      "hit": false,
      "t": 235254.75699999905,
      "d": 322.0658541666635,
      "v": 74
    },
    {
      "midi": 69,
      "hit": false,
      "t": 235254.75699999905,
      "d": 353.9535624999844,
      "v": 85
    },
    {
      "midi": 66,
      "hit": false,
      "t": 235254.75699999905,
      "d": 405.77108854166,
      "v": 68
    },
    {
      "midi": 54,
      "hit": false,
      "t": 235560.87899999905,
      "d": 510.2033333333093,
      "v": 80
    },
    {
      "midi": 62,
      "hit": false,
      "t": 235713.93999999904,
      "d": 307.71638541665743,
      "v": 89
    },
    {
      "midi": 57,
      "hit": false,
      "t": 236020.06199999904,
      "d": 125.95644791665836,
      "v": 74
    },
    {
      "midi": 66,
      "hit": false,
      "t": 236020.06199999904,
      "d": 132.3339895833342,
      "v": 82
    },
    {
      "midi": 62,
      "hit": false,
      "t": 236173.12299999903,
      "d": 181.75993749999907,
      "v": 80
    },
    {
      "midi": 51,
      "hit": false,
      "t": 236326.18399999902,
      "d": 258.29043750002165,
      "v": 93
    },
    {
      "midi": 58,
      "hit": false,
      "t": 236479.24499999903,
      "d": 2047.9880677084147,
      "v": 80
    },
    {
      "midi": 63,
      "hit": false,
      "t": 236632.30599999905,
      "d": 330.0377812499937,
      "v": 60
    },
    {
      "midi": 67,
      "hit": false,
      "t": 236785.36699999904,
      "d": 262.27640104168677,
      "v": 82
    },
    {
      "midi": 67,
      "hit": false,
      "t": 237091.48899999907,
      "d": 87.69119791666162,
      "v": 35
    },
    {
      "midi": 70,
      "hit": false,
      "t": 237091.48899999907,
      "d": 200.09536979167024,
      "v": 80
    },
    {
      "midi": 63,
      "hit": false,
      "t": 237091.48899999907,
      "d": 629.7822395833791,
      "v": 53
    },
    {
      "midi": 70,
      "hit": false,
      "t": 237397.61099999907,
      "d": 196.10940625000512,
      "v": 107
    },
    {
      "midi": 67,
      "hit": false,
      "t": 237397.61099999907,
      "d": 205.67571875001886,
      "v": 82
    },
    {
      "midi": 75,
      "hit": false,
      "t": 237397.61099999907,
      "d": 224.01115104169003,
      "v": 98
    },
    {
      "midi": 67,
      "hit": false,
      "t": 237703.7329999991,
      "d": 318.07989062499837,
      "v": 85
    },
    {
      "midi": 75,
      "hit": false,
      "t": 237703.7329999991,
      "d": 318.07989062499837,
      "v": 91
    },
    {
      "midi": 70,
      "hit": false,
      "t": 237703.7329999991,
      "d": 343.59005729167257,
      "v": 100
    },
    {
      "midi": 63,
      "hit": false,
      "t": 238009.8549999991,
      "d": 229.59150000000955,
      "v": 82
    },
    {
      "midi": 67,
      "hit": false,
      "t": 238162.91599999912,
      "d": 224.01115104166092,
      "v": 63
    },
    {
      "midi": 70,
      "hit": false,
      "t": 238162.91599999912,
      "d": 240.75219791664858,
      "v": 80
    },
    {
      "midi": 74,
      "hit": false,
      "t": 238162.91599999912,
      "d": 250.31851041666232,
      "v": 89
    },
    {
      "midi": 63,
      "hit": false,
      "t": 238469.03799999913,
      "d": 168.20766145832022,
      "v": 89
    },
    {
      "midi": 72,
      "hit": false,
      "t": 238469.03799999913,
      "d": 266.2623645833228,
      "v": 91
    },
    {
      "midi": 74,
      "hit": false,
      "t": 238775.15999999913,
      "d": 312.49954166667885,
      "v": 95
    },
    {
      "midi": 50,
      "hit": false,
      "t": 238775.15999999913,
      "d": 1530.6100000000442,
      "v": 98
    },
    {
      "midi": 69,
      "hit": false,
      "t": 239081.28199999913,
      "d": 155.45257812502678,
      "v": 64
    },
    {
      "midi": 57,
      "hit": false,
      "t": 239081.28199999913,
      "d": 269.4511354166898,
      "v": 63
    },
    {
      "midi": 66,
      "hit": false,
      "t": 239234.34299999915,
      "d": 302.1360364583379,
      "v": 105
    },
    {
      "midi": 57,
      "hit": false,
      "t": 239540.46499999915,
      "d": 455.9942291666812,
      "v": 100
    },
    {
      "midi": 62,
      "hit": false,
      "t": 239846.58699999916,
      "d": 458.3858072916919,
      "v": 102
    },
    {
      "midi": 62,
      "hit": false,
      "t": 241224.13599999918,
      "d": 164.2216979166551,
      "v": 70
    },
    {
      "midi": 55,
      "hit": false,
      "t": 241224.13599999918,
      "d": 286.19218229164835,
      "v": 68
    },
    {
      "midi": 67,
      "hit": false,
      "t": 241224.13599999918,
      "d": 327.646203124983,
      "v": 91
    },
    {
      "midi": 62,
      "hit": false,
      "t": 241530.25799999916,
      "d": 327.6462031250121,
      "v": 72
    },
    {
      "midi": 58,
      "hit": false,
      "t": 241530.25799999916,
      "d": 391.42161979168304,
      "v": 64
    },
    {
      "midi": 67,
      "hit": false,
      "t": 241683.31899999917,
      "d": 204.08133333333535,
      "v": 82
    },
    {
      "midi": 69,
      "hit": false,
      "t": 241836.37999999916,
      "d": 94.06873958333745,
      "v": 80
    },
    {
      "midi": 70,
      "hit": false,
      "t": 241989.44099999918,
      "d": 242.3465833333321,
      "v": 93
    },
    {
      "midi": 62,
      "hit": false,
      "t": 241989.44099999918,
      "d": 245.53535416667,
      "v": 85
    },
    {
      "midi": 67,
      "hit": false,
      "t": 241989.44099999918,
      "d": 254.30447395832743,
      "v": 61
    },
    {
      "midi": 62,
      "hit": false,
      "t": 242295.56299999918,
      "d": 237.56342708333977,
      "v": 74
    },
    {
      "midi": 67,
      "hit": false,
      "t": 242295.56299999918,
      "d": 237.56342708333977,
      "v": 70
    },
    {
      "midi": 69,
      "hit": false,
      "t": 242295.56299999918,
      "d": 314.09392708333326,
      "v": 93
    },
    {
      "midi": 58,
      "hit": false,
      "t": 242295.56299999918,
      "d": 1011.6375468749902,
      "v": 51
    },
    {
      "midi": 67,
      "hit": false,
      "t": 242601.68499999918,
      "d": 221.6195729166502,
      "v": 95
    },
    {
      "midi": 62,
      "hit": false,
      "t": 242601.68499999918,
      "d": 353.9535624999844,
      "v": 74
    },
    {
      "midi": 67,
      "hit": false,
      "t": 242907.80699999916,
      "d": 58.19506770835142,
      "v": 57
    },
    {
      "midi": 69,
      "hit": false,
      "t": 242907.80699999916,
      "d": 82.1108489583421,
      "v": 70
    },
    {
      "midi": 67,
      "hit": false,
      "t": 243060.86799999917,
      "d": 157.04696354168118,
      "v": 66
    },
    {
      "midi": 62,
      "hit": false,
      "t": 243060.86799999917,
      "d": 188.1374791666749,
      "v": 70
    },
    {
      "midi": 70,
      "hit": false,
      "t": 243060.86799999917,
      "d": 293.3669166666514,
      "v": 95
    },
    {
      "midi": 67,
      "hit": false,
      "t": 243366.98999999915,
      "d": 159.4385416666628,
      "v": 72
    },
    {
      "midi": 62,
      "hit": false,
      "t": 243366.98999999915,
      "d": 249.52131770833512,
      "v": 87
    },
    {
      "midi": 50,
      "hit": false,
      "t": 243673.11199999915,
      "d": 274.234291666653,
      "v": 82
    },
    {
      "midi": 62,
      "hit": false,
      "t": 243673.11199999915,
      "d": 314.09392708330415,
      "v": 87
    },
    {
      "midi": 66,
      "hit": false,
      "t": 243673.11199999915,
      "d": 314.09392708330415,
      "v": 87
    },
    {
      "midi": 57,
      "hit": false,
      "t": 243979.23399999912,
      "d": 416.1345937499718,
      "v": 82
    },
    {
      "midi": 62,
      "hit": false,
      "t": 244132.2949999991,
      "d": 78.92207812500419,
      "v": 51
    },
    {
      "midi": 66,
      "hit": false,
      "t": 244132.2949999991,
      "d": 102.04066666666768,
      "v": 85
    },
    {
      "midi": 62,
      "hit": false,
      "t": 244285.3559999991,
      "d": 92.47435416665394,
      "v": 58
    },
    {
      "midi": 67,
      "hit": false,
      "t": 244285.3559999991,
      "d": 141.90030208331882,
      "v": 80
    },
    {
      "midi": 54,
      "hit": false,
      "t": 244285.3559999991,
      "d": 1481.9812447917066,
      "v": 57
    },
    {
      "midi": 62,
      "hit": false,
      "t": 244438.41699999908,
      "d": 189.7318645833293,
      "v": 70
    },
    {
      "midi": 57,
      "hit": false,
      "t": 244438.41699999908,
      "d": 212.85045312499278,
      "v": 76
    },
    {
      "midi": 69,
      "hit": false,
      "t": 244438.41699999908,
      "d": 224.01115104166092,
      "v": 87
    },
    {
      "midi": 57,
      "hit": false,
      "t": 244744.5389999991,
      "d": 216.0392239583307,
      "v": 70
    },
    {
      "midi": 62,
      "hit": false,
      "t": 244744.5389999991,
      "d": 222.41676562500652,
      "v": 74
    },
    {
      "midi": 67,
      "hit": false,
      "t": 244744.5389999991,
      "d": 286.19218229167745,
      "v": 95
    },
    {
      "midi": 62,
      "hit": false,
      "t": 245050.6609999991,
      "d": 153.85819270834327,
      "v": 68
    },
    {
      "midi": 57,
      "hit": false,
      "t": 245050.6609999991,
      "d": 239.95500520835049,
      "v": 68
    },
    {
      "midi": 66,
      "hit": false,
      "t": 245050.6609999991,
      "d": 283.80060416669585,
      "v": 82
    },
    {
      "midi": 57,
      "hit": false,
      "t": 245356.78299999912,
      "d": 59.78945312500582,
      "v": 47
    },
    {
      "midi": 62,
      "hit": false,
      "t": 245356.78299999912,
      "d": 62.18103125001653,
      "v": 60
    },
    {
      "midi": 67,
      "hit": false,
      "t": 245356.78299999912,
      "d": 112.40417187500861,
      "v": 72
    },
    {
      "midi": 57,
      "hit": false,
      "t": 245509.84399999914,
      "d": 96.46031770831905,
      "v": 54
    },
    {
      "midi": 69,
      "hit": false,
      "t": 245509.84399999914,
      "d": 367.50583854166325,
      "v": 95
    },
    {
      "midi": 62,
      "hit": false,
      "t": 245509.84399999914,
      "d": 391.42161979165394,
      "v": 68
    },
    {
      "midi": 57,
      "hit": false,
      "t": 245815.96599999914,
      "d": 110.0125937499979,
      "v": 61
    },
    {
      "midi": 51,
      "hit": false,
      "t": 246122.08799999914,
      "d": 310.10796354166814,
      "v": 91
    },
    {
      "midi": 58,
      "hit": false,
      "t": 246428.20999999915,
      "d": 2032.0442135416379,
      "v": 64
    },
    {
      "midi": 67,
      "hit": false,
      "t": 246581.27099999913,
      "d": 412.1486302083358,
      "v": 85
    },
    {
      "midi": 63,
      "hit": false,
      "t": 246581.27099999913,
      "d": 535.7135000000126,
      "v": 87
    },
    {
      "midi": 70,
      "hit": false,
      "t": 246887.39299999914,
      "d": 188.1374791666749,
      "v": 82
    },
    {
      "midi": 70,
      "hit": false,
      "t": 247193.51499999914,
      "d": 183.35432291665347,
      "v": 91
    },
    {
      "midi": 67,
      "hit": false,
      "t": 247193.51499999914,
      "d": 213.64764583331998,
      "v": 64
    },
    {
      "midi": 75,
      "hit": false,
      "t": 247193.51499999914,
      "d": 213.64764583331998,
      "v": 89
    },
    {
      "midi": 67,
      "hit": false,
      "t": 247499.63699999911,
      "d": 178.57116666666116,
      "v": 76
    },
    {
      "midi": 70,
      "hit": false,
      "t": 247499.63699999911,
      "d": 184.15151562498068,
      "v": 82
    },
    {
      "midi": 74,
      "hit": false,
      "t": 247499.63699999911,
      "d": 230.38869270830764,
      "v": 100
    },
    {
      "midi": 67,
      "hit": false,
      "t": 247805.7589999991,
      "d": 312.49954166667885,
      "v": 64
    },
    {
      "midi": 70,
      "hit": false,
      "t": 247805.7589999991,
      "d": 396.20477604167536,
      "v": 100
    },
    {
      "midi": 73,
      "hit": false,
      "t": 247805.7589999991,
      "d": 396.20477604167536,
      "v": 102
    },
    {
      "midi": 63,
      "hit": false,
      "t": 248111.8809999991,
      "d": 341.99567187501816,
      "v": 100
    },
    {
      "midi": 67,
      "hit": false,
      "t": 248264.9419999991,
      "d": 306.122000000003,
      "v": 82
    },
    {
      "midi": 50,
      "hit": false,
      "t": 248571.0639999991,
      "d": 309.31077083334094,
      "v": 85
    },
    {
      "midi": 74,
      "hit": false,
      "t": 248571.0639999991,
      "d": 685.5857291666907,
      "v": 100
    },
    {
      "midi": 57,
      "hit": false,
      "t": 248877.1859999991,
      "d": 1416.6114427083521,
      "v": 85
    },
    {
      "midi": 62,
      "hit": false,
      "t": 249030.24699999913,
      "d": 314.09392708333326,
      "v": 89
    },
    {
      "midi": 66,
      "hit": false,
      "t": 249336.36899999913,
      "d": 245.53535416667,
      "v": 87
    },
    {
      "midi": 66,
      "hit": false,
      "t": 249642.49099999914,
      "d": 230.38869270833675,
      "v": 80
    },
    {
      "midi": 69,
      "hit": false,
      "t": 249642.49099999914,
      "d": 239.95500520835049,
      "v": 89
    },
    {
      "midi": 72,
      "hit": false,
      "t": 249642.49099999914,
      "d": 255.89885937501094,
      "v": 89
    },
    {
      "midi": 60,
      "hit": false,
      "t": 249642.49099999914,
      "d": 360.3311041666602,
      "v": 74
    },
    {
      "midi": 66,
      "hit": false,
      "t": 249948.61299999914,
      "d": 330.0377812499937,
      "v": 85
    },
    {
      "midi": 72,
      "hit": false,
      "t": 249948.61299999914,
      "d": 400.1907395833405,
      "v": 82
    },
    {
      "midi": 69,
      "hit": false,
      "t": 249948.61299999914,
      "d": 403.3795104166784,
      "v": 89
    },
    {
      "midi": 60,
      "hit": false,
      "t": 250254.73499999914,
      "d": 504.62298437501886,
      "v": 87
    },
    {
      "midi": 66,
      "hit": false,
      "t": 250407.79599999916,
      "d": 275.8286770833365,
      "v": 82
    },
    {
      "midi": 69,
      "hit": false,
      "t": 250713.91799999916,
      "d": 153.85819270831416,
      "v": 82
    },
    {
      "midi": 57,
      "hit": false,
      "t": 250713.91799999916,
      "d": 216.0392239583016,
      "v": 78
    },
    {
      "midi": 66,
      "hit": false,
      "t": 250866.97899999915,
      "d": 106.02663020830369,
      "v": 60
    },
    {
      "midi": 67,
      "hit": false,
      "t": 251020.0399999991,
      "d": 77.32769270832068,
      "v": 72
    },
    {
      "midi": 79,
      "hit": false,
      "t": 251020.0399999991,
      "d": 77.32769270832068,
      "v": 102
    },
    {
      "midi": 62,
      "hit": false,
      "t": 251020.0399999991,
      "d": 342.79286458331626,
      "v": 89
    },
    {
      "midi": 55,
      "hit": false,
      "t": 251020.0399999991,
      "d": 2254.460979166761,
      "v": 85
    },
    {
      "midi": 67,
      "hit": false,
      "t": 251173.1009999991,
      "d": 62.18103124998743,
      "v": 63
    },
    {
      "midi": 79,
      "hit": false,
      "t": 251173.1009999991,
      "d": 62.18103124998743,
      "v": 80
    },
    {
      "midi": 67,
      "hit": false,
      "t": 251326.16199999908,
      "d": 49.42594791666488,
      "v": 60
    },
    {
      "midi": 79,
      "hit": false,
      "t": 251326.16199999908,
      "d": 67.76138020833605,
      "v": 72
    },
    {
      "midi": 67,
      "hit": false,
      "t": 251479.2229999991,
      "d": 63.775416666670935,
      "v": 76
    },
    {
      "midi": 79,
      "hit": false,
      "t": 251479.2229999991,
      "d": 71.74734375000116,
      "v": 87
    },
    {
      "midi": 62,
      "hit": false,
      "t": 251479.2229999991,
      "d": 316.48550520834397,
      "v": 72
    },
    {
      "midi": 58,
      "hit": false,
      "t": 251479.2229999991,
      "d": 322.0658541666635,
      "v": 66
    },
    {
      "midi": 79,
      "hit": false,
      "t": 251632.28399999908,
      "d": 59.78945312500582,
      "v": 70
    },
    {
      "midi": 67,
      "hit": false,
      "t": 251632.28399999908,
      "d": 66.16699479168165,
      "v": 55
    },
    {
      "midi": 79,
      "hit": false,
      "t": 251785.3449999991,
      "d": 55.803489583340706,
      "v": 60
    },
    {
      "midi": 67,
      "hit": false,
      "t": 251785.3449999991,
      "d": 67.76138020833605,
      "v": 53
    },
    {
      "midi": 67,
      "hit": false,
      "t": 251938.40599999912,
      "d": 78.12488541667699,
      "v": 61
    },
    {
      "midi": 79,
      "hit": false,
      "t": 251938.40599999912,
      "d": 78.12488541667699,
      "v": 85
    },
    {
      "midi": 62,
      "hit": false,
      "t": 251938.40599999912,
      "d": 399.3935468750424,
      "v": 85
    },
    {
      "midi": 67,
      "hit": false,
      "t": 252091.46699999913,
      "d": 74.93611458333908,
      "v": 57
    },
    {
      "midi": 79,
      "hit": false,
      "t": 252091.46699999913,
      "d": 74.93611458333908,
      "v": 70
    },
    {
      "midi": 67,
      "hit": false,
      "t": 252244.52799999915,
      "d": 63.775416666670935,
      "v": 54
    },
    {
      "midi": 79,
      "hit": false,
      "t": 252244.52799999915,
      "d": 73.34172916668467,
      "v": 62
    },
    {
      "midi": 79,
      "hit": false,
      "t": 252397.58899999916,
      "d": 76.53049999999348,
      "v": 105
    },
    {
      "midi": 67,
      "hit": false,
      "t": 252397.58899999916,
      "d": 79.7192708333314,
      "v": 85
    },
    {
      "midi": 62,
      "hit": false,
      "t": 252397.58899999916,
      "d": 376.2749583333207,
      "v": 56
    },
    {
      "midi": 58,
      "hit": false,
      "t": 252397.58899999916,
      "d": 931.918276041717,
      "v": 85
    },
    {
      "midi": 79,
      "hit": false,
      "t": 252550.64999999915,
      "d": 66.16699479165254,
      "v": 87
    },
    {
      "midi": 67,
      "hit": false,
      "t": 252550.64999999915,
      "d": 80.5164635416586,
      "v": 66
    },
    {
      "midi": 67,
      "hit": false,
      "t": 252703.71099999914,
      "d": 67.76138020833605,
      "v": 60
    },
    {
      "midi": 79,
      "hit": false,
      "t": 252703.71099999914,
      "d": 67.76138020833605,
      "v": 70
    },
    {
      "midi": 67,
      "hit": false,
      "t": 252856.77199999915,
      "d": 86.09681250000722,
      "v": 80
    },
    {
      "midi": 79,
      "hit": false,
      "t": 252856.77199999915,
      "d": 86.09681250000722,
      "v": 95
    },
    {
      "midi": 62,
      "hit": false,
      "t": 252856.77199999915,
      "d": 262.27640104168677,
      "v": 102
    },
    {
      "midi": 79,
      "hit": false,
      "t": 253009.83299999917,
      "d": 70.15295833334676,
      "v": 62
    },
    {
      "midi": 67,
      "hit": false,
      "t": 253009.83299999917,
      "d": 88.48839062501793,
      "v": 59
    },
    {
      "midi": 79,
      "hit": false,
      "t": 253162.89399999919,
      "d": 83.70523437499651,
      "v": 60
    },
    {
      "midi": 67,
      "hit": false,
      "t": 253162.89399999919,
      "d": 98.05470312500256,
      "v": 64
    },
    {
      "midi": 62,
      "hit": false,
      "t": 253162.89399999919,
      "d": 402.5823177083512,
      "v": 91
    },
    {
      "midi": 67,
      "hit": false,
      "t": 253315.9549999992,
      "d": 29.49613020833931,
      "v": 14
    },
    {
      "midi": 79,
      "hit": false,
      "t": 253315.9549999992,
      "d": 86.09681250000722,
      "v": 52
    },
    {
      "midi": 78,
      "hit": false,
      "t": 253469.01599999922,
      "d": 331.6321666666481,
      "v": 110
    },
    {
      "midi": 66,
      "hit": false,
      "t": 253469.01599999922,
      "d": 381.8553072916402,
      "v": 98
    },
    {
      "midi": 50,
      "hit": false,
      "t": 253469.01599999922,
      "d": 2075.889812499954,
      "v": 105
    },
    {
      "midi": 57,
      "hit": false,
      "t": 253775.1379999992,
      "d": 334.0237447916588,
      "v": 87
    },
    {
      "midi": 66,
      "hit": false,
      "t": 253928.19899999918,
      "d": 263.8707864583412,
      "v": 102
    },
    {
      "midi": 57,
      "hit": false,
      "t": 254234.32099999918,
      "d": 676.019416666677,
      "v": 105
    },
    {
      "midi": 66,
      "hit": false,
      "t": 254540.44299999918,
      "d": 227.99711458332604,
      "v": 100
    },
    {
      "midi": 62,
      "hit": false,
      "t": 254540.44299999918,
      "d": 235.96904166665627,
      "v": 85
    },
    {
      "midi": 66,
      "hit": false,
      "t": 254846.5649999992,
      "d": 67.76138020833605,
      "v": 87
    },
    {
      "midi": 62,
      "hit": false,
      "t": 254846.5649999992,
      "d": 310.10796354166814,
      "v": 64
    },
    {
      "midi": 69,
      "hit": false,
      "t": 254846.5649999992,
      "d": 341.99567187498906,
      "v": 98
    },
    {
      "midi": 57,
      "hit": false,
      "t": 255152.6869999992,
      "d": 448.02230208332185,
      "v": 95
    },
    {
      "midi": 62,
      "hit": false,
      "t": 255305.74799999918,
      "d": 131.53679687500698,
      "v": 61
    },
    {
      "midi": 66,
      "hit": false,
      "t": 255305.74799999918,
      "d": 279.81464062500163,
      "v": 95
    },
    {
      "midi": 62,
      "hit": false,
      "t": 255611.86999999918,
      "d": 307.71638541665743,
      "v": 91
    },
    {
      "midi": 51,
      "hit": false,
      "t": 255917.99199999918,
      "d": 324.4574322916451,
      "v": 89
    },
    {
      "midi": 58,
      "hit": false,
      "t": 256224.11399999916,
      "d": 226.40272916667163,
      "v": 76
    },
    {
      "midi": 67,
      "hit": false,
      "t": 256377.17499999917,
      "d": 231.98307812499115,
      "v": 87
    },
    {
      "midi": 63,
      "hit": false,
      "t": 256377.17499999917,
      "d": 404.9738958333328,
      "v": 70
    },
    {
      "midi": 67,
      "hit": false,
      "t": 256683.29699999918,
      "d": 177.77397395833395,
      "v": 89
    },
    {
      "midi": 75,
      "hit": false,
      "t": 256683.29699999918,
      "d": 213.64764583331998,
      "v": 95
    },
    {
      "midi": 63,
      "hit": false,
      "t": 256989.41899999915,
      "d": 278.2202552083472,
      "v": 98
    },
    {
      "midi": 67,
      "hit": false,
      "t": 257295.54099999915,
      "d": 270.2483281249879,
      "v": 100
    },
    {
      "midi": 75,
      "hit": false,
      "t": 257295.54099999915,
      "d": 274.234291666653,
      "v": 102
    },
    {
      "midi": 63,
      "hit": false,
      "t": 257601.66299999913,
      "d": 231.98307812499115,
      "v": 76
    },
    {
      "midi": 75,
      "hit": false,
      "t": 257754.7239999991,
      "d": 286.19218229167745,
      "v": 102
    },
    {
      "midi": 67,
      "hit": false,
      "t": 257754.7239999991,
      "d": 315.68831250001676,
      "v": 98
    },
    {
      "midi": 63,
      "hit": false,
      "t": 258060.84599999912,
      "d": 68.55857291669236,
      "v": 80
    },
    {
      "midi": 66,
      "hit": false,
      "t": 258366.96799999915,
      "d": 171.39643229165813,
      "v": 87
    },
    {
      "midi": 74,
      "hit": false,
      "t": 258366.96799999915,
      "d": 235.96904166665627,
      "v": 102
    },
    {
      "midi": 62,
      "hit": false,
      "t": 258366.96799999915,
      "d": 297.3528802083165,
      "v": 74
    },
    {
      "midi": 50,
      "hit": false,
      "t": 258366.96799999915,
      "d": 303.7304218749923,
      "v": 91
    },
    {
      "midi": 66,
      "hit": false,
      "t": 258673.08999999915,
      "d": 62.18103124998743,
      "v": 38
    },
    {
      "midi": 66,
      "hit": false,
      "t": 258826.15099999914,
      "d": 176.17958854167955,
      "v": 89
    },
    {
      "midi": 74,
      "hit": false,
      "t": 258826.15099999914,
      "d": 230.38869270833675,
      "v": 100
    },
    {
      "midi": 62,
      "hit": false,
      "t": 258826.15099999914,
      "d": 274.2342916666821,
      "v": 80
    },
    {
      "midi": 50,
      "hit": false,
      "t": 258826.15099999914,
      "d": 290.17814583334257,
      "v": 85
    },
    {
      "midi": 66,
      "hit": false,
      "t": 259132.27299999914,
      "d": 44.642791666672565,
      "v": 31
    },
    {
      "midi": 66,
      "hit": false,
      "t": 259285.33399999916,
      "d": 195.31221354167792,
      "v": 89
    },
    {
      "midi": 74,
      "hit": false,
      "t": 259285.33399999916,
      "d": 222.41676562500652,
      "v": 100
    },
    {
      "midi": 62,
      "hit": false,
      "t": 259285.33399999916,
      "d": 307.71638541665743,
      "v": 89
    },
    {
      "midi": 50,
      "hit": false,
      "t": 259285.33399999916,
      "d": 326.0518177083286,
      "v": 89
    },
    {
      "midi": 66,
      "hit": false,
      "t": 259591.45599999916,
      "d": 84.50242708332371,
      "v": 61
    },
    {
      "midi": 66,
      "hit": false,
      "t": 259744.51699999915,
      "d": 187.3402864583477,
      "v": 87
    },
    {
      "midi": 74,
      "hit": false,
      "t": 259744.51699999915,
      "d": 259.88482291667606,
      "v": 100
    },
    {
      "midi": 50,
      "hit": false,
      "t": 259744.51699999915,
      "d": 322.0658541666635,
      "v": 89
    },
    {
      "midi": 62,
      "hit": false,
      "t": 259744.51699999915,
      "d": 322.0658541666635,
      "v": 72
    },
    {
      "midi": 74,
      "hit": false,
      "t": 260050.63899999915,
      "d": 45.43998437499977,
      "v": 34
    },
    {
      "midi": 66,
      "hit": false,
      "t": 260050.63899999915,
      "d": 94.06873958333745,
      "v": 59
    },
    {
      "midi": 66,
      "hit": false,
      "t": 260203.69999999917,
      "d": 176.97678125000675,
      "v": 85
    },
    {
      "midi": 62,
      "hit": false,
      "t": 260203.69999999917,
      "d": 181.75993749999907,
      "v": 72
    },
    {
      "midi": 74,
      "hit": false,
      "t": 260203.69999999917,
      "d": 205.67571874998976,
      "v": 91
    },
    {
      "midi": 50,
      "hit": false,
      "t": 260203.69999999917,
      "d": 393.81319791666465,
      "v": 85
    },
    {
      "midi": 74,
      "hit": false,
      "t": 260509.82199999917,
      "d": 87.69119791666162,
      "v": 74
    },
    {
      "midi": 66,
      "hit": false,
      "t": 260509.82199999917,
      "d": 103.63505208332208,
      "v": 78
    },
    {
      "midi": 62,
      "hit": false,
      "t": 260509.82199999917,
      "d": 127.55083333331277,
      "v": 80
    },
    {
      "midi": 74,
      "hit": false,
      "t": 260815.94399999914,
      "d": 303.7304218749923,
      "v": 102
    },
    {
      "midi": 67,
      "hit": false,
      "t": 260815.94399999914,
      "d": 338.00970833332394,
      "v": 76
    },
    {
      "midi": 62,
      "hit": false,
      "t": 260815.94399999914,
      "d": 367.50583854166325,
      "v": 66
    },
    {
      "midi": 55,
      "hit": false,
      "t": 260815.94399999914,
      "d": 425.70090624998556,
      "v": 72
    },
    {
      "midi": 70,
      "hit": false,
      "t": 261122.06599999915,
      "d": 104.43224479164928,
      "v": 68
    },
    {
      "midi": 67,
      "hit": false,
      "t": 261275.12699999913,
      "d": 237.56342708333977,
      "v": 89
    },
    {
      "midi": 62,
      "hit": false,
      "t": 261275.12699999913,
      "d": 433.6728333333449,
      "v": 66
    },
    {
      "midi": 58,
      "hit": false,
      "t": 261275.12699999913,
      "d": 904.016531250003,
      "v": 68
    },
    {
      "midi": 70,
      "hit": false,
      "t": 261581.24899999914,
      "d": 172.19362500001444,
      "v": 100
    },
    {
      "midi": 67,
      "hit": false,
      "t": 261581.24899999914,
      "d": 180.16555208334466,
      "v": 66
    },
    {
      "midi": 62,
      "hit": false,
      "t": 261887.37099999914,
      "d": 205.67571874998976,
      "v": 80
    },
    {
      "midi": 67,
      "hit": false,
      "t": 261887.37099999914,
      "d": 388.232848958316,
      "v": 64
    },
    {
      "midi": 74,
      "hit": false,
      "t": 261887.37099999914,
      "d": 449.61668750000536,
      "v": 105
    },
    {
      "midi": 70,
      "hit": false,
      "t": 261887.37099999914,
      "d": 510.2033333333384,
      "v": 98
    },
    {
      "midi": 62,
      "hit": false,
      "t": 262193.49299999914,
      "d": 648.1176718749339,
      "v": 87
    },
    {
      "midi": 67,
      "hit": false,
      "t": 262499.6149999991,
      "d": 90.08277604164323,
      "v": 72
    },
    {
      "midi": 67,
      "hit": false,
      "t": 262652.6759999991,
      "d": 234.37465625000186,
      "v": 62
    },
    {
      "midi": 72,
      "hit": false,
      "t": 262652.6759999991,
      "d": 283.80060416669585,
      "v": 102
    },
    {
      "midi": 67,
      "hit": false,
      "t": 262958.79799999914,
      "d": 62.18103124998743,
      "v": 58
    },
    {
      "midi": 70,
      "hit": false,
      "t": 262958.79799999914,
      "d": 257.49324479163624,
      "v": 89
    },
    {
      "midi": 62,
      "hit": false,
      "t": 262958.79799999914,
      "d": 298.1500729166437,
      "v": 68
    },
    {
      "midi": 69,
      "hit": false,
      "t": 263264.9199999991,
      "d": 312.49954166664975,
      "v": 87
    },
    {
      "midi": 50,
      "hit": false,
      "t": 263264.9199999991,
      "d": 2236.1255468748277,
      "v": 85
    },
    {
      "midi": 57,
      "hit": false,
      "t": 263571.0419999991,
      "d": 669.6418749999721,
      "v": 87
    },
    {
      "midi": 62,
      "hit": false,
      "t": 263724.1029999991,
      "d": 534.1191145833,
      "v": 102
    },
    {
      "midi": 66,
      "hit": false,
      "t": 264030.22499999905,
      "d": 233.57746354164556,
      "v": 85
    },
    {
      "midi": 62,
      "hit": false,
      "t": 264336.346999999,
      "d": 478.31562499998836,
      "v": 72
    },
    {
      "midi": 66,
      "hit": false,
      "t": 264336.346999999,
      "d": 621.8103124999907,
      "v": 80
    },
    {
      "midi": 69,
      "hit": false,
      "t": 264336.346999999,
      "d": 695.9492343749735,
      "v": 89
    },
    {
      "midi": 57,
      "hit": false,
      "t": 264642.468999999,
      "d": 603.4748802083195,
      "v": 78
    },
    {
      "midi": 62,
      "hit": false,
      "t": 264948.590999999,
      "d": 378.6665364583023,
      "v": 85
    },
    {
      "midi": 66,
      "hit": false,
      "t": 265254.712999999,
      "d": 164.221697916626,
      "v": 85
    },
    {
      "midi": 57,
      "hit": false,
      "t": 265407.773999999,
      "d": 139.508723958279,
      "v": 74
    },
    {
      "midi": 67,
      "hit": false,
      "t": 265713.89599999896,
      "d": 281.40902604168514,
      "v": 64
    },
    {
      "midi": 70,
      "hit": false,
      "t": 265713.89599999896,
      "d": 315.68831250001676,
      "v": 76
    },
    {
      "midi": 75,
      "hit": false,
      "t": 265713.89599999896,
      "d": 315.68831250001676,
      "v": 87
    },
    {
      "midi": 51,
      "hit": false,
      "t": 265713.89599999896,
      "d": 2342.152177083306,
      "v": 87
    },
    {
      "midi": 63,
      "hit": false,
      "t": 266020.017999999,
      "d": 1108.097864583251,
      "v": 61
    },
    {
      "midi": 67,
      "hit": false,
      "t": 266173.078999999,
      "d": 220.0251874999958,
      "v": 60
    },
    {
      "midi": 70,
      "hit": false,
      "t": 266173.078999999,
      "d": 243.9409687499865,
      "v": 95
    },
    {
      "midi": 75,
      "hit": false,
      "t": 266173.078999999,
      "d": 251.91289583331672,
      "v": 89
    },
    {
      "midi": 70,
      "hit": false,
      "t": 266479.20099999895,
      "d": 159.4385416666628,
      "v": 80
    },
    {
      "midi": 67,
      "hit": false,
      "t": 266479.20099999895,
      "d": 175.38239583332324,
      "v": 74
    },
    {
      "midi": 74,
      "hit": false,
      "t": 266479.20099999895,
      "d": 175.38239583332324,
      "v": 87
    },
    {
      "midi": 67,
      "hit": false,
      "t": 266785.3229999989,
      "d": 153.85819270834327,
      "v": 68
    },
    {
      "midi": 70,
      "hit": false,
      "t": 266785.3229999989,
      "d": 216.0392239583307,
      "v": 102
    },
    {
      "midi": 74,
      "hit": false,
      "t": 266785.3229999989,
      "d": 239.95500520832138,
      "v": 102
    },
    {
      "midi": 67,
      "hit": false,
      "t": 267091.4449999989,
      "d": 295.7584947916912,
      "v": 70
    },
    {
      "midi": 72,
      "hit": false,
      "t": 267091.4449999989,
      "d": 401.7851250000531,
      "v": 85
    },
    {
      "midi": 63,
      "hit": false,
      "t": 267397.56699999893,
      "d": 296.5556875000475,
      "v": 63
    },
    {
      "midi": 67,
      "hit": false,
      "t": 267550.627999999,
      "d": 528.5387656249804,
      "v": 80
    },
    {
      "midi": 70,
      "hit": false,
      "t": 267550.627999999,
      "d": 576.3703281249618,
      "v": 110
    },
    {
      "midi": 63,
      "hit": false,
      "t": 267856.74999999895,
      "d": 239.95500520832138,
      "v": 82
    },
    {
      "midi": 69,
      "hit": false,
      "t": 268162.8719999989,
      "d": 263.87078645831207,
      "v": 98
    },
    {
      "midi": 50,
      "hit": false,
      "t": 268162.8719999989,
      "d": 1716.355901041592,
      "v": 89
    },
    {
      "midi": 57,
      "hit": false,
      "t": 268468.9939999989,
      "d": 746.1723749999655,
      "v": 87
    },
    {
      "midi": 62,
      "hit": false,
      "t": 268622.0549999989,
      "d": 245.5353541666409,
      "v": 98
    },
    {
      "midi": 62,
      "hit": false,
      "t": 268928.17699999886,
      "d": 168.20766145834932,
      "v": 68
    },
    {
      "midi": 66,
      "hit": false,
      "t": 268928.17699999886,
      "d": 204.08133333333535,
      "v": 98
    },
    {
      "midi": 66,
      "hit": false,
      "t": 269234.2989999989,
      "d": 98.85189583332976,
      "v": 100
    },
    {
      "midi": 62,
      "hit": false,
      "t": 269234.2989999989,
      "d": 195.31221354164882,
      "v": 61
    },
    {
      "midi": 69,
      "hit": false,
      "t": 269234.2989999989,
      "d": 209.66168229165487,
      "v": 93
    },
    {
      "midi": 62,
      "hit": false,
      "t": 269540.42099999887,
      "d": 310.10796354163904,
      "v": 64
    },
    {
      "midi": 69,
      "hit": false,
      "t": 269540.42099999887,
      "d": 319.67427604162367,
      "v": 98
    },
    {
      "midi": 57,
      "hit": false,
      "t": 269846.54299999884,
      "d": 428.0924843749963,
      "v": 87
    },
    {
      "midi": 62,
      "hit": false,
      "t": 269999.6039999988,
      "d": 195.31221354164882,
      "v": 70
    },
    {
      "midi": 66,
      "hit": false,
      "t": 269999.6039999988,
      "d": 277.42306250002,
      "v": 100
    },
    {
      "midi": 62,
      "hit": false,
      "t": 270305.72599999886,
      "d": 165.8160833333386,
      "v": 95
    },
    {
      "midi": 54,
      "hit": false,
      "t": 270305.72599999886,
      "d": 237.56342708331067,
      "v": 72
    },
    {
      "midi": 79,
      "hit": false,
      "t": 270611.84799999883,
      "d": 125.95644791668747,
      "v": 85
    },
    {
      "midi": 67,
      "hit": false,
      "t": 270611.84799999883,
      "d": 239.15781250002328,
      "v": 57
    },
    {
      "midi": 62,
      "hit": false,
      "t": 270611.84799999883,
      "d": 333.22655208338983,
      "v": 70
    },
    {
      "midi": 55,
      "hit": false,
      "t": 270611.84799999883,
      "d": 335.61813020840054,
      "v": 74
    },
    {
      "midi": 74,
      "hit": false,
      "t": 270764.9089999989,
      "d": 165.8160833333386,
      "v": 74
    },
    {
      "midi": 70,
      "hit": false,
      "t": 270917.96999999887,
      "d": 102.04066666669678,
      "v": 72
    },
    {
      "midi": 62,
      "hit": false,
      "t": 271071.0309999989,
      "d": 177.77397395833395,
      "v": 70
    },
    {
      "midi": 67,
      "hit": false,
      "t": 271071.0309999989,
      "d": 255.89885937498184,
      "v": 100
    },
    {
      "midi": 58,
      "hit": false,
      "t": 271071.0309999989,
      "d": 566.0068229166209,
      "v": 68
    },
    {
      "midi": 62,
      "hit": false,
      "t": 271377.1529999989,
      "d": 212.05326041666558,
      "v": 70
    },
    {
      "midi": 67,
      "hit": false,
      "t": 271377.1529999989,
      "d": 215.2420312499744,
      "v": 53
    },
    {
      "midi": 70,
      "hit": false,
      "t": 271377.1529999989,
      "d": 246.3325468749972,
      "v": 82
    },
    {
      "midi": 62,
      "hit": false,
      "t": 271683.27499999886,
      "d": 231.98307812499115,
      "v": 72
    },
    {
      "midi": 67,
      "hit": false,
      "t": 271683.27499999886,
      "d": 231.98307812499115,
      "v": 80
    },
    {
      "midi": 70,
      "hit": false,
      "t": 271683.27499999886,
      "d": 278.2202552083181,
      "v": 80
    },
    {
      "midi": 74,
      "hit": false,
      "t": 271683.27499999886,
      "d": 298.1500729166437,
      "v": 87
    },
    {
      "midi": 58,
      "hit": false,
      "t": 271683.27499999886,
      "d": 1058.6719166666735,
      "v": 58
    },
    {
      "midi": 62,
      "hit": false,
      "t": 271989.39699999883,
      "d": 208.06729687500047,
      "v": 72
    },
    {
      "midi": 67,
      "hit": false,
      "t": 271989.39699999883,
      "d": 404.1767031249474,
      "v": 87
    },
    {
      "midi": 74,
      "hit": false,
      "t": 272295.5189999988,
      "d": 64.57260937499814,
      "v": 50
    },
    {
      "midi": 70,
      "hit": false,
      "t": 272295.5189999988,
      "d": 96.46031770831905,
      "v": 66
    },
    {
      "midi": 62,
      "hit": false,
      "t": 272295.5189999988,
      "d": 125.95644791662926,
      "v": 64
    },
    {
      "midi": 74,
      "hit": false,
      "t": 272448.5799999988,
      "d": 222.41676562500652,
      "v": 85
    },
    {
      "midi": 79,
      "hit": false,
      "t": 272448.5799999988,
      "d": 230.38869270833675,
      "v": 100
    },
    {
      "midi": 70,
      "hit": false,
      "t": 272448.5799999988,
      "d": 257.49324479169445,
      "v": 72
    },
    {
      "midi": 67,
      "hit": false,
      "t": 272448.5799999988,
      "d": 284.59779687505215,
      "v": 66
    },
    {
      "midi": 62,
      "hit": false,
      "t": 272754.7019999989,
      "d": 189.7318645833293,
      "v": 85
    },
    {
      "midi": 74,
      "hit": false,
      "t": 273060.82399999886,
      "d": 152.26380729168886,
      "v": 102
    },
    {
      "midi": 50,
      "hit": false,
      "t": 273060.82399999886,
      "d": 383.4496927083819,
      "v": 91
    },
    {
      "midi": 69,
      "hit": false,
      "t": 273213.8849999989,
      "d": 213.64764583331998,
      "v": 64
    },
    {
      "midi": 54,
      "hit": false,
      "t": 273366.9459999989,
      "d": 47.83156249998137,
      "v": 49
    },
    {
      "midi": 66,
      "hit": false,
      "t": 273366.9459999989,
      "d": 115.59294270834653,
      "v": 76
    },
    {
      "midi": 57,
      "hit": false,
      "t": 273520.0069999989,
      "d": 247.9269322916516,
      "v": 66
    },
    {
      "midi": 62,
      "hit": false,
      "t": 273520.0069999989,
      "d": 247.9269322916516,
      "v": 102
    },
    {
      "midi": 54,
      "hit": false,
      "t": 273520.0069999989,
      "d": 491.8679010416381,
      "v": 64
    },
    {
      "midi": 62,
      "hit": false,
      "t": 273826.12899999885,
      "d": 197.70379166665953,
      "v": 85
    },
    {
      "midi": 57,
      "hit": false,
      "t": 273826.12899999885,
      "d": 234.37465625000186,
      "v": 76
    },
    {
      "midi": 66,
      "hit": false,
      "t": 273826.12899999885,
      "d": 256.69605208333815,
      "v": 80
    },
    {
      "midi": 57,
      "hit": false,
      "t": 274132.2509999989,
      "d": 302.1360364583088,
      "v": 64
    },
    {
      "midi": 62,
      "hit": false,
      "t": 274132.2509999989,
      "d": 484.6931666666642,
      "v": 82
    },
    {
      "midi": 66,
      "hit": false,
      "t": 274132.2509999989,
      "d": 564.4124375000247,
      "v": 66
    },
    {
      "midi": 69,
      "hit": false,
      "t": 274132.2509999989,
      "d": 590.7197968750261,
      "v": 80
    },
    {
      "midi": 54,
      "hit": false,
      "t": 274438.37299999886,
      "d": 531.7275364584057,
      "v": 85
    },
    {
      "midi": 62,
      "hit": false,
      "t": 274744.4949999989,
      "d": 121.97048437502235,
      "v": 70
    },
    {
      "midi": 57,
      "hit": false,
      "t": 274897.55599999893,
      "d": 347.5760208332795,
      "v": 68
    },
    {
      "midi": 69,
      "hit": false,
      "t": 274897.55599999893,
      "d": 487.8819374999148,
      "v": 82
    },
    {
      "midi": 66,
      "hit": false,
      "t": 274897.55599999893,
      "d": 495.853864583245,
      "v": 61
    },
    {
      "midi": 62,
      "hit": false,
      "t": 274897.55599999893,
      "d": 603.4748802082613,
      "v": 68
    },
    {
      "midi": 54,
      "hit": false,
      "t": 275203.6779999989,
      "d": 129.94241145829437,
      "v": 74
    },
    {
      "midi": 51,
      "hit": false,
      "t": 275509.7999999989,
      "d": 208.06729687500047,
      "v": 89
    },
    {
      "midi": 58,
      "hit": false,
      "t": 275662.86099999887,
      "d": 216.0392239583307,
      "v": 70
    },
    {
      "midi": 63,
      "hit": false,
      "t": 275815.92199999886,
      "d": 371.49180208332837,
      "v": 93
    },
    {
      "midi": 67,
      "hit": false,
      "t": 275968.98299999884,
      "d": 250.31851041666232,
      "v": 91
    },
    {
      "midi": 63,
      "hit": false,
      "t": 276275.1049999988,
      "d": 200.09536979167024,
      "v": 61
    },
    {
      "midi": 70,
      "hit": false,
      "t": 276275.1049999988,
      "d": 217.6336093749851,
      "v": 93
    },
    {
      "midi": 70,
      "hit": false,
      "t": 276581.2269999988,
      "d": 169.80204687500373,
      "v": 91
    },
    {
      "midi": 67,
      "hit": false,
      "t": 276581.2269999988,
      "d": 173.78801041666884,
      "v": 64
    },
    {
      "midi": 75,
      "hit": false,
      "t": 276581.2269999988,
      "d": 184.15151562500978,
      "v": 87
    },
    {
      "midi": 63,
      "hit": false,
      "t": 276581.2269999988,
      "d": 486.2875520833768,
      "v": 70
    },
    {
      "midi": 67,
      "hit": false,
      "t": 276887.3489999988,
      "d": 327.6462031250121,
      "v": 85
    },
    {
      "midi": 70,
      "hit": false,
      "t": 276887.3489999988,
      "d": 327.6462031250121,
      "v": 102
    },
    {
      "midi": 75,
      "hit": false,
      "t": 276887.3489999988,
      "d": 327.6462031250121,
      "v": 100
    },
    {
      "midi": 63,
      "hit": false,
      "t": 277193.47099999886,
      "d": 259.88482291664695,
      "v": 70
    },
    {
      "midi": 67,
      "hit": false,
      "t": 277346.53199999884,
      "d": 203.28414062497905,
      "v": 63
    },
    {
      "midi": 74,
      "hit": false,
      "t": 277346.53199999884,
      "d": 234.37465625000186,
      "v": 98
    },
    {
      "midi": 63,
      "hit": false,
      "t": 277652.6539999988,
      "d": 94.06873958330834,
      "v": 74
    },
    {
      "midi": 72,
      "hit": false,
      "t": 277652.6539999988,
      "d": 180.16555208328646,
      "v": 95
    },
    {
      "midi": 74,
      "hit": false,
      "t": 277958.7759999988,
      "d": 102.04066666663857,
      "v": 102
    },
    {
      "midi": 62,
      "hit": false,
      "t": 277958.7759999988,
      "d": 274.234291666653,
      "v": 80
    },
    {
      "midi": 50,
      "hit": false,
      "t": 277958.7759999988,
      "d": 287.78656770830275,
      "v": 93
    },
    {
      "midi": 74,
      "hit": false,
      "t": 278111.8369999988,
      "d": 110.01259375002701,
      "v": 64
    },
    {
      "midi": 66,
      "hit": false,
      "t": 278417.95899999875,
      "d": 54.2091041666572,
      "v": 60
    },
    {
      "midi": 74,
      "hit": false,
      "t": 278417.95899999875,
      "d": 82.110848958313,
      "v": 91
    },
    {
      "midi": 50,
      "hit": false,
      "t": 278417.95899999875,
      "d": 265.4651718749665,
      "v": 87
    },
    {
      "midi": 62,
      "hit": false,
      "t": 278417.95899999875,
      "d": 277.4230624999618,
      "v": 85
    },
    {
      "midi": 74,
      "hit": false,
      "t": 278571.01999999874,
      "d": 108.4182083333144,
      "v": 70
    },
    {
      "midi": 66,
      "hit": false,
      "t": 278571.01999999874,
      "d": 113.99855729163392,
      "v": 60
    },
    {
      "midi": 66,
      "hit": false,
      "t": 278877.1419999987,
      "d": 68.55857291666325,
      "v": 87
    },
    {
      "midi": 74,
      "hit": false,
      "t": 278877.1419999987,
      "d": 72.54453645832837,
      "v": 102
    },
    {
      "midi": 50,
      "hit": false,
      "t": 278877.1419999987,
      "d": 269.4511354166316,
      "v": 93
    },
    {
      "midi": 62,
      "hit": false,
      "t": 278877.1419999987,
      "d": 287.78656770830275,
      "v": 93
    },
    {
      "midi": 66,
      "hit": false,
      "t": 279030.2029999987,
      "d": 92.47435416665394,
      "v": 78
    },
    {
      "midi": 74,
      "hit": false,
      "t": 279030.2029999987,
      "d": 103.63505208329298,
      "v": 87
    },
    {
      "midi": 66,
      "hit": false,
      "t": 279336.3249999987,
      "d": 87.69119791669073,
      "v": 95
    },
    {
      "midi": 74,
      "hit": false,
      "t": 279336.3249999987,
      "d": 102.04066666669678,
      "v": 105
    },
    {
      "midi": 50,
      "hit": false,
      "t": 279336.3249999987,
      "d": 327.6462031250121,
      "v": 87
    },
    {
      "midi": 62,
      "hit": false,
      "t": 279336.3249999987,
      "d": 344.38725000002887,
      "v": 85
    },
    {
      "midi": 66,
      "hit": false,
      "t": 279642.4469999987,
      "d": 54.2091041666572,
      "v": 87
    },
    {
      "midi": 74,
      "hit": false,
      "t": 279642.4469999987,
      "d": 54.2091041666572,
      "v": 100
    },
    {
      "midi": 66,
      "hit": false,
      "t": 279795.5079999987,
      "d": 197.70379166665953,
      "v": 102
    },
    {
      "midi": 74,
      "hit": false,
      "t": 279795.5079999987,
      "d": 208.06729687500047,
      "v": 110
    },
    {
      "midi": 50,
      "hit": false,
      "t": 279795.5079999987,
      "d": 243.9409687499865,
      "v": 98
    },
    {
      "midi": 62,
      "hit": false,
      "t": 279795.5079999987,
      "d": 267.8567499999772,
      "v": 87
    },
    {
      "midi": 67,
      "hit": false,
      "t": 280407.7519999987,
      "d": 225.60553645831533,
      "v": 87
    },
    {
      "midi": 79,
      "hit": false,
      "t": 280407.7519999987,
      "d": 225.60553645831533,
      "v": 102
    },
    {
      "midi": 43,
      "hit": false,
      "t": 280407.7519999987,
      "d": 227.99711458332604,
      "v": 80
    },
    {
      "midi": 55,
      "hit": false,
      "t": 280407.7519999987,
      "d": 237.56342708331067,
      "v": 78
    },
    {
      "midi": 55,
      "hit": false,
      "t": 281019.9959999987,
      "d": 247.1297395833535,
      "v": 85
    },
    {
      "midi": 43,
      "hit": false,
      "t": 281019.9959999987,
      "d": 251.11570312501863,
      "v": 85
    },
    {
      "midi": 67,
      "hit": false,
      "t": 281019.9959999987,
      "d": 259.08763020834886,
      "v": 85
    },
    {
      "midi": 79,
      "hit": false,
      "t": 281019.9959999987,
      "d": 259.08763020834886,
      "v": 102
    },
    {
      "midi": 43,
      "hit": false,
      "t": 281632.2399999987,
      "d": 265.4651718750247,
      "v": 87
    },
    {
      "midi": 55,
      "hit": false,
      "t": 281632.2399999987,
      "d": 271.8427135417005,
      "v": 87
    },
    {
      "midi": 67,
      "hit": false,
      "t": 281632.2399999987,
      "d": 271.8427135417005,
      "v": 85
    },
    {
      "midi": 79,
      "hit": false,
      "t": 281632.2399999987,
      "d": 283.80060416669585,
      "v": 107
    }
  ]
}