{
  "jsonPath": "Unknown/Unknown/London Theatre Orchestra  Cast/over-the-rainbow-from-the-wizard-of-oz.json",
  "path": "Unknown\\Unknown\\London Theatre Orchestra  Cast\\Over The Rainbow (From The Wizard Of Oz).mid",
  "name": "Over The Rainbow (From The Wizard Of Oz)",
  "difficulty": "Advanced",
  "bpm": 85.00004250002125,
  "notes": [
    {
      "midi": 39,
      "hit": false,
      "t": 3243.244,
      "d": 358.1081916666667,
      "v": 71
    },
    {
      "midi": 63,
      "hit": false,
      "t": 3243.244,
      "d": 1020.2705083333335,
      "v": 71
    },
    {
      "midi": 46,
      "hit": false,
      "t": 3652.027879166667,
      "d": 304.0541250000001,
      "v": 60
    },
    {
      "midi": 51,
      "hit": false,
      "t": 4050.676620833334,
      "d": 310.81088333333355,
      "v": 56
    },
    {
      "midi": 55,
      "hit": false,
      "t": 4456.082120833334,
      "d": 344.5946750000003,
      "v": 60
    },
    {
      "midi": 48,
      "hit": false,
      "t": 4861.4876208333335,
      "d": 989.8650958333328,
      "v": 64
    },
    {
      "midi": 75,
      "hit": false,
      "t": 4861.4876208333335,
      "d": 1273.6489458333326,
      "v": 64
    },
    {
      "midi": 55,
      "hit": false,
      "t": 5263.514741666667,
      "d": 594.5947333333324,
      "v": 47
    },
    {
      "midi": 60,
      "hit": false,
      "t": 5672.298620833333,
      "d": 304.05412499999966,
      "v": 48
    },
    {
      "midi": 63,
      "hit": false,
      "t": 6070.947362499999,
      "d": 304.05412500000057,
      "v": 51
    },
    {
      "midi": 43,
      "hit": false,
      "t": 6476.3528625,
      "d": 628.3785250000001,
      "v": 64
    },
    {
      "midi": 74,
      "hit": false,
      "t": 6476.3528625,
      "d": 760.1353125000005,
      "v": 64
    },
    {
      "midi": 50,
      "hit": false,
      "t": 6885.136741666666,
      "d": 418.91901666666763,
      "v": 51
    },
    {
      "midi": 70,
      "hit": false,
      "t": 7290.542241666667,
      "d": 327.7027791666669,
      "v": 63
    },
    {
      "midi": 72,
      "hit": false,
      "t": 7695.947741666667,
      "d": 368.2433291666666,
      "v": 58
    },
    {
      "midi": 74,
      "hit": false,
      "t": 8104.731620833333,
      "d": 841.2164125000008,
      "v": 65
    },
    {
      "midi": 58,
      "hit": false,
      "t": 8510.137120833333,
      "d": 854.7299291666677,
      "v": 48
    },
    {
      "midi": 75,
      "hit": false,
      "t": 8915.542620833334,
      "d": 304.05412500000057,
      "v": 65
    },
    {
      "midi": 61,
      "hit": false,
      "t": 9320.948120833335,
      "d": 304.05412499999875,
      "v": 53
    },
    {
      "midi": 44,
      "hit": false,
      "t": 9722.975241666667,
      "d": 402.02712083333245,
      "v": 66
    },
    {
      "midi": 63,
      "hit": false,
      "t": 9726.353620833333,
      "d": 1165.5408124999994,
      "v": 66
    },
    {
      "midi": 51,
      "hit": false,
      "t": 10131.759120833332,
      "d": 341.2162958333338,
      "v": 60
    },
    {
      "midi": 56,
      "hit": false,
      "t": 10533.786241666667,
      "d": 1510.135487499996,
      "v": 56
    },
    {
      "midi": 60,
      "hit": false,
      "t": 10939.191741666666,
      "d": 402.02712083333245,
      "v": 56
    },
    {
      "midi": 72,
      "hit": false,
      "t": 11341.218862499998,
      "d": 445.94604999999865,
      "v": 66
    },
    {
      "midi": 60,
      "hit": false,
      "t": 11743.24598333333,
      "d": 851.3515499999976,
      "v": 53
    },
    {
      "midi": 63,
      "hit": false,
      "t": 12152.029862499996,
      "d": 432.4325333333327,
      "v": 57
    },
    {
      "midi": 68,
      "hit": false,
      "t": 12550.678604166662,
      "d": 304.05412499999875,
      "v": 57
    },
    {
      "midi": 43,
      "hit": false,
      "t": 12959.462483333327,
      "d": 510.13525416666744,
      "v": 63
    },
    {
      "midi": 70,
      "hit": false,
      "t": 12959.462483333327,
      "d": 2675.676300000003,
      "v": 63
    },
    {
      "midi": 51,
      "hit": false,
      "t": 13361.489604166662,
      "d": 378.378466666667,
      "v": 56
    },
    {
      "midi": 55,
      "hit": false,
      "t": 13766.895104166662,
      "d": 304.05412500000057,
      "v": 57
    },
    {
      "midi": 58,
      "hit": false,
      "t": 14172.300604166663,
      "d": 408.78387916666725,
      "v": 46
    },
    {
      "midi": 67,
      "hit": false,
      "t": 14577.706104166664,
      "d": 841.2164124999999,
      "v": 53
    },
    {
      "midi": 58,
      "hit": false,
      "t": 14979.733224999996,
      "d": 388.5136041666665,
      "v": 40
    },
    {
      "midi": 63,
      "hit": false,
      "t": 15388.517104166664,
      "d": 756.756933333334,
      "v": 48
    },
    {
      "midi": 58,
      "hit": false,
      "t": 15787.16584583333,
      "d": 304.05412500000057,
      "v": 52
    },
    {
      "midi": 60,
      "hit": false,
      "t": 16202.70648333333,
      "d": 864.8650666666672,
      "v": 66
    },
    {
      "midi": 44,
      "hit": false,
      "t": 16206.084862499996,
      "d": 361.48657083333455,
      "v": 66
    },
    {
      "midi": 51,
      "hit": false,
      "t": 16608.111983333332,
      "d": 314.18926250000004,
      "v": 50
    },
    {
      "midi": 56,
      "hit": false,
      "t": 17010.139104166665,
      "d": 1003.378612499997,
      "v": 53
    },
    {
      "midi": 60,
      "hit": false,
      "t": 17418.92298333333,
      "d": 500.00011666666614,
      "v": 62
    },
    {
      "midi": 68,
      "hit": false,
      "t": 17827.706862499996,
      "d": 770.27045,
      "v": 67
    },
    {
      "midi": 59,
      "hit": false,
      "t": 18236.49074166666,
      "d": 820.9461375000028,
      "v": 60
    },
    {
      "midi": 63,
      "hit": false,
      "t": 18638.517862499997,
      "d": 442.567670833334,
      "v": 66
    },
    {
      "midi": 68,
      "hit": false,
      "t": 19037.166604166665,
      "d": 304.05412499999875,
      "v": 62
    },
    {
      "midi": 39,
      "hit": false,
      "t": 19445.95048333333,
      "d": 557.4325624999983,
      "v": 73
    },
    {
      "midi": 67,
      "hit": false,
      "t": 19445.95048333333,
      "d": 827.7028958333285,
      "v": 73
    },
    {
      "midi": 46,
      "hit": false,
      "t": 19847.977604166663,
      "d": 304.05412499999875,
      "v": 62
    },
    {
      "midi": 63,
      "hit": false,
      "t": 20253.38310416666,
      "d": 304.05412499999875,
      "v": 70
    },
    {
      "midi": 65,
      "hit": false,
      "t": 20658.788604166657,
      "d": 304.05412499999875,
      "v": 66
    },
    {
      "midi": 67,
      "hit": false,
      "t": 21067.572483333322,
      "d": 472.97308333333785,
      "v": 72
    },
    {
      "midi": 64,
      "hit": false,
      "t": 21067.572483333322,
      "d": 483.10822083333915,
      "v": 72
    },
    {
      "midi": 48,
      "hit": false,
      "t": 21070.95086249999,
      "d": 429.054154166668,
      "v": 72
    },
    {
      "midi": 55,
      "hit": false,
      "t": 21476.35636249999,
      "d": 854.7299291666677,
      "v": 50
    },
    {
      "midi": 68,
      "hit": false,
      "t": 21888.51862083333,
      "d": 304.05412499999875,
      "v": 68
    },
    {
      "midi": 58,
      "hit": false,
      "t": 22297.302499999994,
      "d": 304.05412499999875,
      "v": 63
    },
    {
      "midi": 57,
      "hit": false,
      "t": 22706.08637916666,
      "d": 476.3514625000025,
      "v": 72
    },
    {
      "midi": 41,
      "hit": false,
      "t": 22706.08637916666,
      "d": 635.1352833333367,
      "v": 72
    },
    {
      "midi": 65,
      "hit": false,
      "t": 22706.08637916666,
      "d": 668.9190750000016,
      "v": 72
    },
    {
      "midi": 48,
      "hit": false,
      "t": 23111.49187916666,
      "d": 412.16225833333374,
      "v": 60
    },
    {
      "midi": 62,
      "hit": false,
      "t": 23516.89737916666,
      "d": 304.05412499999875,
      "v": 72
    },
    {
      "midi": 63,
      "hit": false,
      "t": 23905.410983333328,
      "d": 304.05412499999875,
      "v": 71
    },
    {
      "midi": 46,
      "hit": false,
      "t": 24320.951620833326,
      "d": 354.72981249999793,
      "v": 72
    },
    {
      "midi": 65,
      "hit": false,
      "t": 24320.951620833326,
      "d": 790.5407249999989,
      "v": 72
    },
    {
      "midi": 62,
      "hit": false,
      "t": 24320.951620833326,
      "d": 797.2974833333319,
      "v": 72
    },
    {
      "midi": 53,
      "hit": false,
      "t": 24719.60036249999,
      "d": 766.8920708333353,
      "v": 53
    },
    {
      "midi": 67,
      "hit": false,
      "t": 25131.762620833324,
      "d": 777.0272083333366,
      "v": 71
    },
    {
      "midi": 56,
      "hit": false,
      "t": 25533.78974166666,
      "d": 304.05412499999875,
      "v": 58
    },
    {
      "midi": 39,
      "hit": false,
      "t": 25942.573620833326,
      "d": 347.97305416666495,
      "v": 69
    },
    {
      "midi": 63,
      "hit": false,
      "t": 25942.573620833326,
      "d": 1047.2975416666632,
      "v": 69
    },
    {
      "midi": 46,
      "hit": false,
      "t": 26354.735879166656,
      "d": 304.05412499999875,
      "v": 55
    },
    {
      "midi": 51,
      "hit": false,
      "t": 26750.006241666655,
      "d": 317.56764166666835,
      "v": 57
    },
    {
      "midi": 55,
      "hit": false,
      "t": 27155.411741666656,
      "d": 304.05412499999875,
      "v": 55
    },
    {
      "midi": 63,
      "hit": false,
      "t": 27574.330758333323,
      "d": 868.2434458333337,
      "v": 47
    },
    {
      "midi": 63,
      "hit": false,
      "t": 29172.304104166655,
      "d": 1523.6490041666657,
      "v": 63
    },
    {
      "midi": 39,
      "hit": false,
      "t": 29175.682483333323,
      "d": 381.7568458333335,
      "v": 63
    },
    {
      "midi": 46,
      "hit": false,
      "t": 29584.46636249999,
      "d": 304.05412499999875,
      "v": 53
    },
    {
      "midi": 51,
      "hit": false,
      "t": 29983.115104166653,
      "d": 314.18926250000004,
      "v": 59
    },
    {
      "midi": 55,
      "hit": false,
      "t": 30388.520604166653,
      "d": 307.43250416666706,
      "v": 51
    },
    {
      "midi": 75,
      "hit": false,
      "t": 30797.30448333332,
      "d": 1331.0813916666666,
      "v": 60
    },
    {
      "midi": 48,
      "hit": false,
      "t": 30804.06124166665,
      "d": 1010.1353708333336,
      "v": 60
    },
    {
      "midi": 55,
      "hit": false,
      "t": 31202.70998333332,
      "d": 618.2433874999988,
      "v": 50
    },
    {
      "midi": 60,
      "hit": false,
      "t": 31614.872241666653,
      "d": 304.05412499999875,
      "v": 57
    },
    {
      "midi": 63,
      "hit": false,
      "t": 32016.899362499986,
      "d": 304.05412499999875,
      "v": 55
    },
    {
      "midi": 74,
      "hit": false,
      "t": 32422.304862499983,
      "d": 652.027179166671,
      "v": 63
    },
    {
      "midi": 43,
      "hit": false,
      "t": 32422.304862499983,
      "d": 679.0542125000029,
      "v": 63
    },
    {
      "midi": 50,
      "hit": false,
      "t": 32827.71036249999,
      "d": 429.05415416666074,
      "v": 51
    },
    {
      "midi": 70,
      "hit": false,
      "t": 33229.737483333316,
      "d": 304.0541249999951,
      "v": 61
    },
    {
      "midi": 72,
      "hit": false,
      "t": 33638.521362499974,
      "d": 337.83791666666366,
      "v": 56
    },
    {
      "midi": 74,
      "hit": false,
      "t": 34040.5484833333,
      "d": 888.5137208333326,
      "v": 60
    },
    {
      "midi": 58,
      "hit": false,
      "t": 34449.33236249997,
      "d": 854.7299291666714,
      "v": 48
    },
    {
      "midi": 75,
      "hit": false,
      "t": 34854.73786249997,
      "d": 304.0541250000024,
      "v": 60
    },
    {
      "midi": 61,
      "hit": false,
      "t": 35256.764983333305,
      "d": 304.0541250000024,
      "v": 51
    },
    {
      "midi": 44,
      "hit": false,
      "t": 35662.170483333306,
      "d": 388.51360416666284,
      "v": 66
    },
    {
      "midi": 63,
      "hit": false,
      "t": 35665.54886249997,
      "d": 1172.2975708333324,
      "v": 66
    },
    {
      "midi": 51,
      "hit": false,
      "t": 36067.5759833333,
      "d": 358.10819166666624,
      "v": 53
    },
    {
      "midi": 56,
      "hit": false,
      "t": 36472.9814833333,
      "d": 1682.4328250000108,
      "v": 56
    },
    {
      "midi": 60,
      "hit": false,
      "t": 36885.14374166664,
      "d": 388.5136041666701,
      "v": 48
    },
    {
      "midi": 72,
      "hit": false,
      "t": 37283.79248333331,
      "d": 564.1893208333349,
      "v": 63
    },
    {
      "midi": 60,
      "hit": false,
      "t": 37689.19798333331,
      "d": 847.9731708333347,
      "v": 47
    },
    {
      "midi": 63,
      "hit": false,
      "t": 38094.60348333331,
      "d": 449.3244291666706,
      "v": 58
    },
    {
      "midi": 68,
      "hit": false,
      "t": 38493.252224999975,
      "d": 304.05412500000966,
      "v": 61
    },
    {
      "midi": 43,
      "hit": false,
      "t": 38905.41448333332,
      "d": 608.1082499999975,
      "v": 65
    },
    {
      "midi": 70,
      "hit": false,
      "t": 38905.41448333332,
      "d": 3030.4061125000007,
      "v": 65
    },
    {
      "midi": 51,
      "hit": false,
      "t": 39310.81998333332,
      "d": 388.51360416666284,
      "v": 53
    },
    {
      "midi": 55,
      "hit": false,
      "t": 39716.22548333331,
      "d": 304.0541250000024,
      "v": 45
    },
    {
      "midi": 58,
      "hit": false,
      "t": 40118.25260416665,
      "d": 395.27036249999946,
      "v": 46
    },
    {
      "midi": 67,
      "hit": false,
      "t": 40523.65810416665,
      "d": 753.3785541666657,
      "v": 53
    },
    {
      "midi": 58,
      "hit": false,
      "t": 40932.441983333316,
      "d": 317.56764166666835,
      "v": 43
    },
    {
      "midi": 63,
      "hit": false,
      "t": 41334.46910416665,
      "d": 354.7298125000016,
      "v": 52
    },
    {
      "midi": 58,
      "hit": false,
      "t": 41733.11784583332,
      "d": 304.0541249999951,
      "v": 50
    },
    {
      "midi": 60,
      "hit": false,
      "t": 42141.90172499999,
      "d": 912.1623750000144,
      "v": 65
    },
    {
      "midi": 44,
      "hit": false,
      "t": 42148.658483333325,
      "d": 334.45953750000626,
      "v": 65
    },
    {
      "midi": 51,
      "hit": false,
      "t": 42547.307225,
      "d": 368.24332916666754,
      "v": 41
    },
    {
      "midi": 56,
      "hit": false,
      "t": 42959.469483333334,
      "d": 1408.7841125000123,
      "v": 50
    },
    {
      "midi": 60,
      "hit": false,
      "t": 43368.25336250001,
      "d": 466.21632500000123,
      "v": 36
    },
    {
      "midi": 68,
      "hit": false,
      "t": 43773.65886250001,
      "d": 402.0271208333361,
      "v": 64
    },
    {
      "midi": 59,
      "hit": false,
      "t": 44182.44274166668,
      "d": 638.5136625000014,
      "v": 57
    },
    {
      "midi": 63,
      "hit": false,
      "t": 44597.98337916668,
      "d": 361.4865708333309,
      "v": 51
    },
    {
      "midi": 68,
      "hit": false,
      "t": 44989.87536250001,
      "d": 304.0541250000024,
      "v": 56
    },
    {
      "midi": 67,
      "hit": false,
      "t": 45402.03762083335,
      "d": 793.9191041666782,
      "v": 67
    },
    {
      "midi": 39,
      "hit": false,
      "t": 45412.17275833335,
      "d": 618.2433875000061,
      "v": 67
    },
    {
      "midi": 46,
      "hit": false,
      "t": 45814.199879166685,
      "d": 310.810883333339,
      "v": 59
    },
    {
      "midi": 63,
      "hit": false,
      "t": 46226.36213750002,
      "d": 304.0541250000024,
      "v": 63
    },
    {
      "midi": 65,
      "hit": false,
      "t": 46628.38925833336,
      "d": 304.0541250000024,
      "v": 50
    },
    {
      "midi": 67,
      "hit": false,
      "t": 47030.416379166694,
      "d": 435.81091249999736,
      "v": 63
    },
    {
      "midi": 64,
      "hit": false,
      "t": 47033.79475833336,
      "d": 476.3514625000025,
      "v": 53
    },
    {
      "midi": 48,
      "hit": false,
      "t": 47037.17313750002,
      "d": 422.2973958333314,
      "v": 45
    },
    {
      "midi": 55,
      "hit": false,
      "t": 47442.578637500024,
      "d": 760.1353125000096,
      "v": 47
    },
    {
      "midi": 68,
      "hit": false,
      "t": 47837.84900000003,
      "d": 304.0541250000024,
      "v": 61
    },
    {
      "midi": 58,
      "hit": false,
      "t": 48239.87612083337,
      "d": 304.0541250000024,
      "v": 43
    },
    {
      "midi": 57,
      "hit": false,
      "t": 48652.038379166705,
      "d": 408.78387916666543,
      "v": 41
    },
    {
      "midi": 41,
      "hit": false,
      "t": 48652.038379166705,
      "d": 679.0542124999993,
      "v": 50
    },
    {
      "midi": 65,
      "hit": false,
      "t": 48655.41675833337,
      "d": 621.6217666666707,
      "v": 66
    },
    {
      "midi": 48,
      "hit": false,
      "t": 49057.443879166705,
      "d": 412.1622583333301,
      "v": 56
    },
    {
      "midi": 62,
      "hit": false,
      "t": 49466.22775833337,
      "d": 304.0541249999951,
      "v": 60
    },
    {
      "midi": 63,
      "hit": false,
      "t": 49861.49812083336,
      "d": 304.0541250000024,
      "v": 52
    },
    {
      "midi": 62,
      "hit": false,
      "t": 50266.903620833364,
      "d": 777.0272083333257,
      "v": 57
    },
    {
      "midi": 65,
      "hit": false,
      "t": 50266.903620833364,
      "d": 777.0272083333257,
      "v": 65
    },
    {
      "midi": 46,
      "hit": false,
      "t": 50270.28200000003,
      "d": 368.24332916666026,
      "v": 58
    },
    {
      "midi": 53,
      "hit": false,
      "t": 50672.30912083336,
      "d": 780.4055874999976,
      "v": 42
    },
    {
      "midi": 67,
      "hit": false,
      "t": 51081.09300000002,
      "d": 834.4596541666688,
      "v": 65
    },
    {
      "midi": 56,
      "hit": false,
      "t": 51486.49850000002,
      "d": 405.40550000000076,
      "v": 56
    },
    {
      "midi": 39,
      "hit": false,
      "t": 51888.52562083336,
      "d": 385.1352249999982,
      "v": 55
    },
    {
      "midi": 63,
      "hit": false,
      "t": 51888.52562083336,
      "d": 983.1083374999944,
      "v": 58
    },
    {
      "midi": 46,
      "hit": false,
      "t": 52300.68787916669,
      "d": 314.1892624999964,
      "v": 48
    },
    {
      "midi": 51,
      "hit": false,
      "t": 52699.336620833354,
      "d": 375.0000874999969,
      "v": 47
    },
    {
      "midi": 55,
      "hit": false,
      "t": 53104.74212083335,
      "d": 304.0541250000024,
      "v": 41
    },
    {
      "midi": 63,
      "hit": false,
      "t": 53516.904379166685,
      "d": 472.9730833333306,
      "v": 48
    },
    {
      "midi": 70,
      "hit": false,
      "t": 54736.49925833335,
      "d": 398.64874166666414,
      "v": 61
    },
    {
      "midi": 67,
      "hit": false,
      "t": 55138.52637916668,
      "d": 422.2973958333314,
      "v": 55
    },
    {
      "midi": 51,
      "hit": false,
      "t": 55141.904758333345,
      "d": 831.0812749999968,
      "v": 62
    },
    {
      "midi": 70,
      "hit": false,
      "t": 55543.93187916668,
      "d": 388.51360416666284,
      "v": 67
    },
    {
      "midi": 67,
      "hit": false,
      "t": 55949.337379166675,
      "d": 402.0271208333288,
      "v": 66
    },
    {
      "midi": 58,
      "hit": false,
      "t": 55949.337379166675,
      "d": 739.8650374999925,
      "v": 52
    },
    {
      "midi": 70,
      "hit": false,
      "t": 56347.98612083334,
      "d": 361.4865708333309,
      "v": 48
    },
    {
      "midi": 67,
      "hit": false,
      "t": 56746.6348625,
      "d": 422.29739583333867,
      "v": 58
    },
    {
      "midi": 60,
      "hit": false,
      "t": 56753.39162083334,
      "d": 692.5677291666652,
      "v": 33
    },
    {
      "midi": 70,
      "hit": false,
      "t": 57155.418741666675,
      "d": 347.97305416666495,
      "v": 51
    },
    {
      "midi": 58,
      "hit": false,
      "t": 57557.445862500004,
      "d": 304.0541250000024,
      "v": 45
    },
    {
      "midi": 67,
      "hit": false,
      "t": 57557.445862500004,
      "d": 391.8919833333348,
      "v": 61
    },
    {
      "midi": 70,
      "hit": false,
      "t": 57962.851362500005,
      "d": 368.24332916666754,
      "v": 58
    },
    {
      "midi": 68,
      "hit": false,
      "t": 58364.87848333334,
      "d": 425.67577500000334,
      "v": 66
    },
    {
      "midi": 53,
      "hit": false,
      "t": 58368.256862500006,
      "d": 787.1623458333415,
      "v": 66
    },
    {
      "midi": 70,
      "hit": false,
      "t": 58770.28398333334,
      "d": 371.6217083333395,
      "v": 46
    },
    {
      "midi": 68,
      "hit": false,
      "t": 59172.31110416668,
      "d": 405.40550000000076,
      "v": 60
    },
    {
      "midi": 56,
      "hit": false,
      "t": 59175.68948333334,
      "d": 824.3245166666675,
      "v": 25
    },
    {
      "midi": 70,
      "hit": false,
      "t": 59581.09498333334,
      "d": 364.86495000000286,
      "v": 48
    },
    {
      "midi": 68,
      "hit": false,
      "t": 59979.743725000015,
      "d": 398.64874166666414,
      "v": 63
    },
    {
      "midi": 58,
      "hit": false,
      "t": 59983.12210416668,
      "d": 858.1083083333433,
      "v": 48
    },
    {
      "midi": 70,
      "hit": false,
      "t": 60385.149225000016,
      "d": 412.1622583333374,
      "v": 58
    },
    {
      "midi": 68,
      "hit": false,
      "t": 60790.554725000016,
      "d": 341.2162958333356,
      "v": 67
    },
    {
      "midi": 62,
      "hit": false,
      "t": 60797.31148333335,
      "d": 304.0541250000024,
      "v": 67
    },
    {
      "midi": 70,
      "hit": false,
      "t": 61192.58184583335,
      "d": 347.9730541666722,
      "v": 61
    },
    {
      "midi": 72,
      "hit": false,
      "t": 61608.122483333354,
      "d": 993.243475000003,
      "v": 63
    },
    {
      "midi": 51,
      "hit": false,
      "t": 62013.527983333355,
      "d": 304.0541250000024,
      "v": 57
    },
    {
      "midi": 55,
      "hit": false,
      "t": 62412.17672500003,
      "d": 459.4595666666646,
      "v": 38
    },
    {
      "midi": 58,
      "hit": false,
      "t": 62817.58222500003,
      "d": 304.0541249999951,
      "v": 47
    },
    {
      "midi": 72,
      "hit": false,
      "t": 63222.98772500002,
      "d": 3729.730599999988,
      "v": 58
    },
    {
      "midi": 55,
      "hit": false,
      "t": 63625.01484583335,
      "d": 439.18929166666203,
      "v": 46
    },
    {
      "midi": 58,
      "hit": false,
      "t": 64037.17710416668,
      "d": 304.0541249999951,
      "v": 55
    },
    {
      "midi": 63,
      "hit": false,
      "t": 64442.58260416667,
      "d": 304.0541250000024,
      "v": 42
    },
    {
      "midi": 65,
      "hit": false,
      "t": 64851.36648333334,
      "d": 378.37846666666155,
      "v": 45
    },
    {
      "midi": 62,
      "hit": false,
      "t": 65253.39360416667,
      "d": 317.5676416666611,
      "v": 36
    },
    {
      "midi": 58,
      "hit": false,
      "t": 65652.04234583332,
      "d": 425.6757750000106,
      "v": 42
    },
    {
      "midi": 56,
      "hit": false,
      "t": 66060.826225,
      "d": 358.1081916666735,
      "v": 46
    },
    {
      "midi": 53,
      "hit": false,
      "t": 66472.98848333333,
      "d": 773.6488291666756,
      "v": 35
    },
    {
      "midi": 70,
      "hit": false,
      "t": 67699.34012083334,
      "d": 395.27036249999946,
      "v": 51
    },
    {
      "midi": 67,
      "hit": false,
      "t": 68104.74562083333,
      "d": 418.9190166666667,
      "v": 62
    },
    {
      "midi": 51,
      "hit": false,
      "t": 68114.88075833333,
      "d": 763.513691666667,
      "v": 53
    },
    {
      "midi": 70,
      "hit": false,
      "t": 68510.15112083332,
      "d": 361.4865708333382,
      "v": 51
    },
    {
      "midi": 67,
      "hit": false,
      "t": 68912.17824166665,
      "d": 398.64874166666414,
      "v": 54
    },
    {
      "midi": 58,
      "hit": false,
      "t": 68915.55662083332,
      "d": 712.8380041666533,
      "v": 54
    },
    {
      "midi": 70,
      "hit": false,
      "t": 69320.96212083331,
      "d": 337.8379166666564,
      "v": 46
    },
    {
      "midi": 67,
      "hit": false,
      "t": 69719.61086249996,
      "d": 385.1352249999909,
      "v": 54
    },
    {
      "midi": 60,
      "hit": false,
      "t": 69726.36762083329,
      "d": 675.6758333333419,
      "v": 54
    },
    {
      "midi": 70,
      "hit": false,
      "t": 70118.25960416663,
      "d": 375.00008750001143,
      "v": 52
    },
    {
      "midi": 58,
      "hit": false,
      "t": 70520.28672499997,
      "d": 304.0541249999951,
      "v": 57
    },
    {
      "midi": 67,
      "hit": false,
      "t": 70520.28672499997,
      "d": 432.4325333333254,
      "v": 52
    },
    {
      "midi": 70,
      "hit": false,
      "t": 70929.07060416663,
      "d": 304.0541249999951,
      "v": 52
    },
    {
      "midi": 69,
      "hit": false,
      "t": 71334.47610416664,
      "d": 425.6757750000106,
      "v": 63
    },
    {
      "midi": 48,
      "hit": false,
      "t": 71334.47610416664,
      "d": 868.24344583333,
      "v": 63
    },
    {
      "midi": 72,
      "hit": false,
      "t": 71743.25998333331,
      "d": 398.64874166666414,
      "v": 51
    },
    {
      "midi": 51,
      "hit": false,
      "t": 72141.90872499997,
      "d": 875.0002041666739,
      "v": 56
    },
    {
      "midi": 69,
      "hit": false,
      "t": 72145.28710416664,
      "d": 341.2162958333356,
      "v": 65
    },
    {
      "midi": 72,
      "hit": false,
      "t": 72550.69260416664,
      "d": 391.8919833333348,
      "v": 46
    },
    {
      "midi": 69,
      "hit": false,
      "t": 72956.09810416665,
      "d": 334.4595374999917,
      "v": 62
    },
    {
      "midi": 54,
      "hit": false,
      "t": 72956.09810416665,
      "d": 797.2974833333283,
      "v": 62
    },
    {
      "midi": 72,
      "hit": false,
      "t": 73354.74684583332,
      "d": 429.05415416666074,
      "v": 51
    },
    {
      "midi": 69,
      "hit": false,
      "t": 73760.15234583331,
      "d": 368.24332916666754,
      "v": 64
    },
    {
      "midi": 60,
      "hit": false,
      "t": 73763.53072499998,
      "d": 304.05412500000966,
      "v": 64
    },
    {
      "midi": 72,
      "hit": false,
      "t": 74168.93622499998,
      "d": 402.0271208333288,
      "v": 58
    },
    {
      "midi": 74,
      "hit": false,
      "t": 74577.72010416664,
      "d": 1307.4327374999993,
      "v": 68
    },
    {
      "midi": 53,
      "hit": false,
      "t": 74979.74722499997,
      "d": 530.4055291666737,
      "v": 58
    },
    {
      "midi": 56,
      "hit": false,
      "t": 75381.77434583331,
      "d": 408.78387916665815,
      "v": 64
    },
    {
      "midi": 60,
      "hit": false,
      "t": 75790.55822499997,
      "d": 304.05412500000966,
      "v": 58
    },
    {
      "midi": 74,
      "hit": false,
      "t": 76199.34210416664,
      "d": 1547.2976583333075,
      "v": 67
    },
    {
      "midi": 56,
      "hit": false,
      "t": 76611.50436249997,
      "d": 398.64874166666414,
      "v": 60
    },
    {
      "midi": 60,
      "hit": false,
      "t": 77013.5314833333,
      "d": 432.4325333333254,
      "v": 55
    },
    {
      "midi": 63,
      "hit": false,
      "t": 77422.31536249995,
      "d": 304.0541249999951,
      "v": 57
    },
    {
      "midi": 77,
      "hit": false,
      "t": 77827.72086249995,
      "d": 868.2434458333446,
      "v": 65
    },
    {
      "midi": 65,
      "hit": false,
      "t": 78236.50474166662,
      "d": 408.7838791666727,
      "v": 47
    },
    {
      "midi": 63,
      "hit": false,
      "t": 78638.53186249996,
      "d": 456.08118749999267,
      "v": 55
    },
    {
      "midi": 60,
      "hit": false,
      "t": 79043.93736249996,
      "d": 304.0541249999951,
      "v": 46
    },
    {
      "midi": 72,
      "hit": false,
      "t": 79452.72124166662,
      "d": 942.5677874999965,
      "v": 62
    },
    {
      "midi": 58,
      "hit": false,
      "t": 79851.36998333328,
      "d": 418.9190166666667,
      "v": 47
    },
    {
      "midi": 56,
      "hit": false,
      "t": 80260.15386249995,
      "d": 354.7298124999943,
      "v": 50
    },
    {
      "midi": 53,
      "hit": false,
      "t": 80662.18098333328,
      "d": 304.0541249999951,
      "v": 50
    },
    {
      "midi": 39,
      "hit": false,
      "t": 81070.96486249994,
      "d": 368.2433291666821,
      "v": 68
    },
    {
      "midi": 63,
      "hit": false,
      "t": 81070.96486249994,
      "d": 922.297512500023,
      "v": 68
    },
    {
      "midi": 46,
      "hit": false,
      "t": 81472.99198333328,
      "d": 364.86495000000286,
      "v": 59
    },
    {
      "midi": 51,
      "hit": false,
      "t": 81878.39748333329,
      "d": 341.2162958333356,
      "v": 60
    },
    {
      "midi": 55,
      "hit": false,
      "t": 82287.18136249996,
      "d": 304.0541249999951,
      "v": 53
    },
    {
      "midi": 75,
      "hit": false,
      "t": 82692.58686249996,
      "d": 1402.0273541666684,
      "v": 66
    },
    {
      "midi": 48,
      "hit": false,
      "t": 82695.96524166662,
      "d": 1074.3245749999915,
      "v": 66
    },
    {
      "midi": 55,
      "hit": false,
      "t": 83097.99236249994,
      "d": 635.1352833333367,
      "v": 50
    },
    {
      "midi": 60,
      "hit": false,
      "t": 83506.77624166661,
      "d": 304.05412500000966,
      "v": 57
    },
    {
      "midi": 63,
      "hit": false,
      "t": 83908.80336249995,
      "d": 304.05412500000966,
      "v": 46
    },
    {
      "midi": 74,
      "hit": false,
      "t": 84314.20886249996,
      "d": 820.9461374999955,
      "v": 63
    },
    {
      "midi": 43,
      "hit": false,
      "t": 84317.58724166662,
      "d": 756.7569333333377,
      "v": 63
    },
    {
      "midi": 50,
      "hit": false,
      "t": 84722.99274166663,
      "d": 516.8920124999859,
      "v": 48
    },
    {
      "midi": 70,
      "hit": false,
      "t": 85128.39824166663,
      "d": 371.6217083333322,
      "v": 64
    },
    {
      "midi": 72,
      "hit": false,
      "t": 85533.80374166662,
      "d": 341.2162958333356,
      "v": 56
    },
    {
      "midi": 74,
      "hit": false,
      "t": 85942.58762083329,
      "d": 912.1623749999999,
      "v": 60
    },
    {
      "midi": 58,
      "hit": false,
      "t": 86354.74987916661,
      "d": 871.6218250000093,
      "v": 52
    },
    {
      "midi": 75,
      "hit": false,
      "t": 86763.53375833329,
      "d": 304.05412500000966,
      "v": 57
    },
    {
      "midi": 61,
      "hit": false,
      "t": 87168.9392583333,
      "d": 304.0541249999951,
      "v": 50
    },
    {
      "midi": 63,
      "hit": false,
      "t": 87574.34475833329,
      "d": 1152.0272958333371,
      "v": 67
    },
    {
      "midi": 44,
      "hit": false,
      "t": 87577.72313749995,
      "d": 378.37846666666155,
      "v": 63
    },
    {
      "midi": 51,
      "hit": false,
      "t": 87979.75025833328,
      "d": 368.24332916666754,
      "v": 56
    },
    {
      "midi": 56,
      "hit": false,
      "t": 88385.15575833329,
      "d": 1543.919279166672,
      "v": 58
    },
    {
      "midi": 60,
      "hit": false,
      "t": 88790.5612583333,
      "d": 391.8919833333348,
      "v": 45
    },
    {
      "midi": 72,
      "hit": false,
      "t": 89185.8316208333,
      "d": 415.54063750000205,
      "v": 65
    },
    {
      "midi": 60,
      "hit": false,
      "t": 89587.85874166663,
      "d": 756.7569333333231,
      "v": 48
    },
    {
      "midi": 63,
      "hit": false,
      "t": 89989.88586249996,
      "d": 567.567699999985,
      "v": 60
    },
    {
      "midi": 68,
      "hit": false,
      "t": 90398.66974166661,
      "d": 304.0541249999951,
      "v": 48
    },
    {
      "midi": 43,
      "hit": false,
      "t": 90804.07524166661,
      "d": 1277.0273250000027,
      "v": 58
    },
    {
      "midi": 70,
      "hit": false,
      "t": 90804.07524166661,
      "d": 2712.838470833318,
      "v": 63
    },
    {
      "midi": 51,
      "hit": false,
      "t": 91209.4807416666,
      "d": 334.45953750000626,
      "v": 51
    },
    {
      "midi": 55,
      "hit": false,
      "t": 91614.88624166661,
      "d": 429.05415416666074,
      "v": 57
    },
    {
      "midi": 58,
      "hit": false,
      "t": 92016.91336249994,
      "d": 418.9190166666667,
      "v": 48
    },
    {
      "midi": 67,
      "hit": false,
      "t": 92432.45399999994,
      "d": 888.5137208333181,
      "v": 47
    },
    {
      "midi": 58,
      "hit": false,
      "t": 92834.48112083327,
      "d": 324.3243999999977,
      "v": 38
    },
    {
      "midi": 63,
      "hit": false,
      "t": 93239.88662083326,
      "d": 760.1353124999878,
      "v": 48
    },
    {
      "midi": 58,
      "hit": false,
      "t": 93641.91374166659,
      "d": 304.0541249999951,
      "v": 45
    },
    {
      "midi": 60,
      "hit": false,
      "t": 94050.69762083325,
      "d": 929.0542708333523,
      "v": 56
    },
    {
      "midi": 44,
      "hit": false,
      "t": 94057.45437916658,
      "d": 320.9460208333476,
      "v": 56
    },
    {
      "midi": 51,
      "hit": false,
      "t": 94452.72474166659,
      "d": 324.3243999999977,
      "v": 42
    },
    {
      "midi": 56,
      "hit": false,
      "t": 94864.88699999993,
      "d": 1631.757137499997,
      "v": 51
    },
    {
      "midi": 60,
      "hit": false,
      "t": 95266.91412083327,
      "d": 412.1622583333228,
      "v": 37
    },
    {
      "midi": 68,
      "hit": false,
      "t": 95672.31962083327,
      "d": 439.18929166665475,
      "v": 62
    },
    {
      "midi": 59,
      "hit": false,
      "t": 96084.48187916659,
      "d": 729.7299000000057,
      "v": 55
    },
    {
      "midi": 63,
      "hit": false,
      "t": 96483.13062083325,
      "d": 405.40550000000803,
      "v": 55
    },
    {
      "midi": 68,
      "hit": false,
      "t": 96881.77936249993,
      "d": 304.0541249999951,
      "v": 55
    },
    {
      "midi": 67,
      "hit": false,
      "t": 97290.5632416666,
      "d": 790.5407249999989,
      "v": 60
    },
    {
      "midi": 39,
      "hit": false,
      "t": 97293.94162083327,
      "d": 685.8109708333359,
      "v": 58
    },
    {
      "midi": 46,
      "hit": false,
      "t": 97695.9687416666,
      "d": 378.3784666666761,
      "v": 65
    },
    {
      "midi": 63,
      "hit": false,
      "t": 98101.3742416666,
      "d": 304.0541249999951,
      "v": 60
    },
    {
      "midi": 65,
      "hit": false,
      "t": 98503.40136249994,
      "d": 304.0541249999951,
      "v": 45
    },
    {
      "midi": 67,
      "hit": false,
      "t": 98912.1852416666,
      "d": 449.3244291666779,
      "v": 59
    },
    {
      "midi": 64,
      "hit": false,
      "t": 98915.56362083326,
      "d": 445.9460500000132,
      "v": 59
    },
    {
      "midi": 48,
      "hit": false,
      "t": 98922.32037916659,
      "d": 422.29739583334594,
      "v": 59
    },
    {
      "midi": 55,
      "hit": false,
      "t": 99327.7258791666,
      "d": 679.0542125000065,
      "v": 45
    },
    {
      "midi": 68,
      "hit": false,
      "t": 99726.37462083327,
      "d": 304.0541249999951,
      "v": 55
    },
    {
      "midi": 58,
      "hit": false,
      "t": 100131.78012083327,
      "d": 304.0541249999951,
      "v": 55
    },
    {
      "midi": 57,
      "hit": false,
      "t": 100537.18562083326,
      "d": 449.3244291666633,
      "v": 60
    },
    {
      "midi": 65,
      "hit": false,
      "t": 100543.94237916659,
      "d": 662.1623166666686,
      "v": 61
    },
    {
      "midi": 41,
      "hit": false,
      "t": 100547.32075833326,
      "d": 709.4596250000031,
      "v": 61
    },
    {
      "midi": 48,
      "hit": false,
      "t": 100949.34787916658,
      "d": 415.54063750000205,
      "v": 47
    },
    {
      "midi": 62,
      "hit": false,
      "t": 101358.13175833326,
      "d": 304.0541249999951,
      "v": 40
    },
    {
      "midi": 63,
      "hit": false,
      "t": 101753.40212083326,
      "d": 304.0541249999951,
      "v": 52
    },
    {
      "midi": 46,
      "hit": false,
      "t": 102165.56437916658,
      "d": 327.70277916666237,
      "v": 62
    },
    {
      "midi": 65,
      "hit": false,
      "t": 102165.56437916658,
      "d": 753.378554166673,
      "v": 33
    },
    {
      "midi": 62,
      "hit": false,
      "t": 102165.56437916658,
      "d": 766.8920708333462,
      "v": 48
    },
    {
      "midi": 53,
      "hit": false,
      "t": 102560.83474166658,
      "d": 733.108279166685,
      "v": 43
    },
    {
      "midi": 67,
      "hit": false,
      "t": 102969.61862083327,
      "d": 858.1083083333215,
      "v": 47
    },
    {
      "midi": 56,
      "hit": false,
      "t": 103378.40249999992,
      "d": 405.4054999999935,
      "v": 56
    },
    {
      "midi": 39,
      "hit": false,
      "t": 103780.42962083325,
      "d": 327.70277916666237,
      "v": 59
    },
    {
      "midi": 63,
      "hit": false,
      "t": 103787.18637916658,
      "d": 1179.054329166669,
      "v": 59
    },
    {
      "midi": 46,
      "hit": false,
      "t": 104185.83512083325,
      "d": 310.810883333339,
      "v": 45
    },
    {
      "midi": 51,
      "hit": false,
      "t": 104591.24062083325,
      "d": 378.37846666666155,
      "v": 55
    },
    {
      "midi": 55,
      "hit": false,
      "t": 105003.40287916658,
      "d": 304.0541249999951,
      "v": 45
    },
    {
      "midi": 63,
      "hit": false,
      "t": 105415.5651374999,
      "d": 429.05415416666074,
      "v": 48
    },
    {
      "midi": 70,
      "hit": false,
      "t": 106625.02487916657,
      "d": 351.3514333333296,
      "v": 50
    },
    {
      "midi": 67,
      "hit": false,
      "t": 107030.43037916656,
      "d": 435.8109124999901,
      "v": 50
    },
    {
      "midi": 51,
      "hit": false,
      "t": 107037.18713749989,
      "d": 804.0542416666722,
      "v": 50
    },
    {
      "midi": 70,
      "hit": false,
      "t": 107435.83587916655,
      "d": 368.24332916666754,
      "v": 46
    },
    {
      "midi": 67,
      "hit": false,
      "t": 107841.24137916656,
      "d": 378.37846666666155,
      "v": 53
    },
    {
      "midi": 58,
      "hit": false,
      "t": 107844.61975833323,
      "d": 689.1893500000006,
      "v": 43
    },
    {
      "midi": 70,
      "hit": false,
      "t": 108239.89012083322,
      "d": 347.97305416666495,
      "v": 46
    },
    {
      "midi": 67,
      "hit": false,
      "t": 108641.91724166655,
      "d": 388.5136041666701,
      "v": 53
    },
    {
      "midi": 60,
      "hit": false,
      "t": 108645.29562083322,
      "d": 584.4595958333521,
      "v": 40
    },
    {
      "midi": 70,
      "hit": false,
      "t": 109043.9443624999,
      "d": 320.946020833333,
      "v": 37
    },
    {
      "midi": 58,
      "hit": false,
      "t": 109445.97148333323,
      "d": 304.0541249999951,
      "v": 48
    },
    {
      "midi": 67,
      "hit": false,
      "t": 109449.34986249989,
      "d": 344.5946750000003,
      "v": 45
    },
    {
      "midi": 70,
      "hit": false,
      "t": 109854.75536249988,
      "d": 347.97305416666495,
      "v": 52
    },
    {
      "midi": 68,
      "hit": false,
      "t": 110256.78248333323,
      "d": 439.1892916666693,
      "v": 64
    },
    {
      "midi": 53,
      "hit": false,
      "t": 110260.16086249989,
      "d": 787.1623458333343,
      "v": 64
    },
    {
      "midi": 70,
      "hit": false,
      "t": 110662.18798333324,
      "d": 398.64874166666414,
      "v": 55
    },
    {
      "midi": 68,
      "hit": false,
      "t": 111067.59348333323,
      "d": 371.6217083333322,
      "v": 66
    },
    {
      "midi": 56,
      "hit": false,
      "t": 111067.59348333323,
      "d": 807.4326208333223,
      "v": 66
    },
    {
      "midi": 70,
      "hit": false,
      "t": 111469.62060416656,
      "d": 395.27036249999946,
      "v": 57
    },
    {
      "midi": 68,
      "hit": false,
      "t": 111878.40448333322,
      "d": 493.24335833333316,
      "v": 66
    },
    {
      "midi": 58,
      "hit": false,
      "t": 111878.40448333322,
      "d": 763.513691666667,
      "v": 66
    },
    {
      "midi": 70,
      "hit": false,
      "t": 112287.18836249989,
      "d": 310.81088333332445,
      "v": 58
    },
    {
      "midi": 72,
      "hit": false,
      "t": 112685.83710416655,
      "d": 442.5676708333194,
      "v": 64
    },
    {
      "midi": 56,
      "hit": false,
      "t": 112695.97224166655,
      "d": 807.4326208333223,
      "v": 65
    },
    {
      "midi": 74,
      "hit": false,
      "t": 113097.99936249988,
      "d": 385.1352249999909,
      "v": 57
    },
    {
      "midi": 75,
      "hit": false,
      "t": 113503.40486249987,
      "d": 341.21629583332106,
      "v": 65
    },
    {
      "midi": 51,
      "hit": false,
      "t": 113510.1616208332,
      "d": 371.6217083333322,
      "v": 62
    },
    {
      "midi": 67,
      "hit": false,
      "t": 113905.4319833332,
      "d": 304.0541249999951,
      "v": 60
    },
    {
      "midi": 58,
      "hit": false,
      "t": 113908.81036249986,
      "d": 304.0541249999951,
      "v": 60
    },
    {
      "midi": 70,
      "hit": false,
      "t": 114304.08072499986,
      "d": 304.0541249999951,
      "v": 63
    },
    {
      "midi": 63,
      "hit": false,
      "t": 114307.45910416653,
      "d": 304.0541249999951,
      "v": 63
    },
    {
      "midi": 67,
      "hit": false,
      "t": 114709.48622499986,
      "d": 304.0541249999951,
      "v": 58
    },
    {
      "midi": 75,
      "hit": false,
      "t": 114712.86460416652,
      "d": 304.0541249999951,
      "v": 62
    },
    {
      "midi": 70,
      "hit": false,
      "t": 115111.51334583318,
      "d": 304.0541249999951,
      "v": 66
    },
    {
      "midi": 79,
      "hit": false,
      "t": 115111.51334583318,
      "d": 304.0541249999951,
      "v": 66
    },
    {
      "midi": 75,
      "hit": false,
      "t": 115516.91884583318,
      "d": 304.0541249999951,
      "v": 56
    },
    {
      "midi": 82,
      "hit": false,
      "t": 115516.91884583318,
      "d": 304.0541249999951,
      "v": 56
    },
    {
      "midi": 79,
      "hit": false,
      "t": 115929.0811041665,
      "d": 304.0541249999951,
      "v": 60
    },
    {
      "midi": 87,
      "hit": false,
      "t": 115932.45948333316,
      "d": 304.0541249999951,
      "v": 60
    },
    {
      "midi": 91,
      "hit": false,
      "t": 116334.4866041665,
      "d": 304.0541249999951,
      "v": 55
    },
    {
      "midi": 82,
      "hit": false,
      "t": 116341.24336249982,
      "d": 304.0541249999951,
      "v": 55
    },
    {
      "midi": 91,
      "hit": false,
      "t": 116736.51372499981,
      "d": 1483.1084541666496,
      "v": 62
    },
    {
      "midi": 87,
      "hit": false,
      "t": 116743.27048333314,
      "d": 1344.5949083333253,
      "v": 62
    },
    {
      "midi": 94,
      "hit": false,
      "t": 116743.27048333314,
      "d": 1432.4327666666504,
      "v": 62
    },
    {
      "midi": 99,
      "hit": false,
      "t": 116753.40562083313,
      "d": 1368.2435624999925,
      "v": 62
    }
  ]
}