{
  "jsonPath": "Electronic/Vocal House/Dawn Tallman/save-a-place-on-the-dance-floor-for-me-dance-floor-beats.json",
  "path": "Electronic\\Vocal House\\Dawn Tallman\\Save A Place On The Dance Floor For Me (Dance Floor Beats).mid",
  "name": "Save A Place On The Dance Floor For Me (Dance Floor Beats)",
  "difficulty": "Advanced",
  "bpm": 123.00223864074326,
  "notes": [
    {
      "midi": 63,
      "hit": false,
      "t": 1943.5621875000002,
      "d": 1359.223229166667,
      "v": 94
    },
    {
      "midi": 66,
      "hit": false,
      "t": 1946.102791666667,
      "d": 1458.3067916666666,
      "v": 89
    },
    {
      "midi": 66,
      "hit": false,
      "t": 1953.7246041666667,
      "d": 724.0721875000004,
      "v": 109
    },
    {
      "midi": 75,
      "hit": false,
      "t": 1956.2652083333332,
      "d": 670.7195000000002,
      "v": 83
    },
    {
      "midi": 75,
      "hit": false,
      "t": 1956.2652083333335,
      "d": 1371.9262500000002,
      "v": 107
    },
    {
      "midi": 78,
      "hit": false,
      "t": 1956.2652083333335,
      "d": 1425.2789375,
      "v": 103
    },
    {
      "midi": 78,
      "hit": false,
      "t": 2014.6991041666665,
      "d": 630.0698333333335,
      "v": 83
    },
    {
      "midi": 78,
      "hit": false,
      "t": 2197.622604166667,
      "d": 228.65437500000007,
      "v": 98
    },
    {
      "midi": 71,
      "hit": false,
      "t": 2441.520604166667,
      "d": 317.5755208333335,
      "v": 97
    },
    {
      "midi": 78,
      "hit": false,
      "t": 2685.418604166667,
      "d": 297.2506874999999,
      "v": 102
    },
    {
      "midi": 75,
      "hit": false,
      "t": 2710.8246458333333,
      "d": 652.9352708333331,
      "v": 86
    },
    {
      "midi": 78,
      "hit": false,
      "t": 2756.5555208333335,
      "d": 579.2577499999998,
      "v": 81
    },
    {
      "midi": 66,
      "hit": false,
      "t": 2929.3166041666673,
      "d": 718.9909791666664,
      "v": 109
    },
    {
      "midi": 78,
      "hit": false,
      "t": 3173.214604166667,
      "d": 264.22283333333326,
      "v": 98
    },
    {
      "midi": 63,
      "hit": false,
      "t": 3399.3283750000005,
      "d": 431.90270833333307,
      "v": 100
    },
    {
      "midi": 59,
      "hit": false,
      "t": 3401.868979166667,
      "d": 360.7657916666667,
      "v": 102
    },
    {
      "midi": 71,
      "hit": false,
      "t": 3417.1126041666666,
      "d": 345.52216666666664,
      "v": 106
    },
    {
      "midi": 71,
      "hit": false,
      "t": 3417.112604166667,
      "d": 312.4943125,
      "v": 91
    },
    {
      "midi": 75,
      "hit": false,
      "t": 3419.653208333333,
      "d": 444.6057291666666,
      "v": 104
    },
    {
      "midi": 71,
      "hit": false,
      "t": 3419.653208333333,
      "d": 368.3876041666663,
      "v": 82
    },
    {
      "midi": 75,
      "hit": false,
      "t": 3462.8434791666664,
      "d": 307.41310416666647,
      "v": 93
    },
    {
      "midi": 78,
      "hit": false,
      "t": 3661.0106041666672,
      "d": 243.89799999999968,
      "v": 95
    },
    {
      "midi": 42,
      "hit": false,
      "t": 3904.908604166667,
      "d": 978.1326041666662,
      "v": 72
    },
    {
      "midi": 30,
      "hit": false,
      "t": 3904.908604166667,
      "d": 978.1326041666662,
      "v": 72
    },
    {
      "midi": 68,
      "hit": false,
      "t": 3907.449208333333,
      "d": 647.8540625,
      "v": 109
    },
    {
      "midi": 76,
      "hit": false,
      "t": 3907.449208333333,
      "d": 711.3691666666668,
      "v": 102
    },
    {
      "midi": 66,
      "hit": false,
      "t": 3907.4492083333334,
      "d": 721.5315833333334,
      "v": 109
    },
    {
      "midi": 64,
      "hit": false,
      "t": 3935.395854166667,
      "d": 660.5570833333331,
      "v": 90
    },
    {
      "midi": 42,
      "hit": false,
      "t": 3937.9364583333336,
      "d": 1775.882312499999,
      "v": 104
    },
    {
      "midi": 68,
      "hit": false,
      "t": 3948.098874999999,
      "d": 622.448020833333,
      "v": 93
    },
    {
      "midi": 76,
      "hit": false,
      "t": 3950.6394791666658,
      "d": 599.5825833333333,
      "v": 94
    },
    {
      "midi": 56,
      "hit": false,
      "t": 3965.8831041666667,
      "d": 614.8262083333334,
      "v": 109
    },
    {
      "midi": 78,
      "hit": false,
      "t": 4148.806604166667,
      "d": 251.51981249999972,
      "v": 94
    },
    {
      "midi": 70,
      "hit": false,
      "t": 4392.704604166667,
      "d": 309.95370833333254,
      "v": 113
    },
    {
      "midi": 66,
      "hit": false,
      "t": 4636.602604166666,
      "d": 581.7983541666672,
      "v": 127
    },
    {
      "midi": 75,
      "hit": false,
      "t": 4636.602604166666,
      "d": 612.2856041666673,
      "v": 108
    },
    {
      "midi": 78,
      "hit": false,
      "t": 4636.602604166666,
      "d": 304.8725000000004,
      "v": 96
    },
    {
      "midi": 66,
      "hit": false,
      "t": 4672.171062499999,
      "d": 548.7704999999996,
      "v": 97
    },
    {
      "midi": 54,
      "hit": false,
      "t": 4677.252270833334,
      "d": 513.2020416666664,
      "v": 109
    },
    {
      "midi": 63,
      "hit": false,
      "t": 4677.252270833334,
      "d": 591.9607708333333,
      "v": 98
    },
    {
      "midi": 75,
      "hit": false,
      "t": 4692.495895833332,
      "d": 561.4735208333332,
      "v": 97
    },
    {
      "midi": 44,
      "hit": false,
      "t": 4880.500604166667,
      "d": 508.1208333333334,
      "v": 73
    },
    {
      "midi": 32,
      "hit": false,
      "t": 4880.500604166667,
      "d": 508.1208333333334,
      "v": 73
    },
    {
      "midi": 66,
      "hit": false,
      "t": 4883.041208333333,
      "d": 708.8285625000008,
      "v": 105
    },
    {
      "midi": 78,
      "hit": false,
      "t": 5124.398604166667,
      "d": 276.9258541666668,
      "v": 93
    },
    {
      "midi": 64,
      "hit": false,
      "t": 5358.134187499998,
      "d": 284.5476666666673,
      "v": 85
    },
    {
      "midi": 46,
      "hit": false,
      "t": 5368.296604166667,
      "d": 401.41545833333294,
      "v": 78
    },
    {
      "midi": 70,
      "hit": false,
      "t": 5368.296604166667,
      "d": 284.5476666666664,
      "v": 109
    },
    {
      "midi": 34,
      "hit": false,
      "t": 5368.296604166667,
      "d": 401.41545833333294,
      "v": 78
    },
    {
      "midi": 64,
      "hit": false,
      "t": 5370.837208333333,
      "d": 304.8725000000004,
      "v": 108
    },
    {
      "midi": 73,
      "hit": false,
      "t": 5370.837208333333,
      "d": 431.902708333334,
      "v": 105
    },
    {
      "midi": 73,
      "hit": false,
      "t": 5383.540229166665,
      "d": 259.1416250000002,
      "v": 97
    },
    {
      "midi": 61,
      "hit": false,
      "t": 5391.1620416666665,
      "d": 284.5476666666664,
      "v": 104
    },
    {
      "midi": 52,
      "hit": false,
      "t": 5393.702645833333,
      "d": 320.11612499999956,
      "v": 98
    },
    {
      "midi": 78,
      "hit": false,
      "t": 5612.194604166667,
      "d": 106.70537499999955,
      "v": 92
    },
    {
      "midi": 47,
      "hit": false,
      "t": 5858.633208333333,
      "d": 541.1486875,
      "v": 78
    },
    {
      "midi": 66,
      "hit": false,
      "t": 5858.633208333333,
      "d": 409.0372708333334,
      "v": 102
    },
    {
      "midi": 35,
      "hit": false,
      "t": 5858.633208333333,
      "d": 541.1486875,
      "v": 78
    },
    {
      "midi": 63,
      "hit": false,
      "t": 5863.714416666665,
      "d": 1176.299729166667,
      "v": 93
    },
    {
      "midi": 63,
      "hit": false,
      "t": 5863.714416666668,
      "d": 1877.5064791666664,
      "v": 111
    },
    {
      "midi": 71,
      "hit": false,
      "t": 5863.714416666668,
      "d": 1953.7246041666658,
      "v": 99
    },
    {
      "midi": 71,
      "hit": false,
      "t": 5886.5798541666645,
      "d": 1204.2463750000006,
      "v": 89
    },
    {
      "midi": 35,
      "hit": false,
      "t": 5891.661062499999,
      "d": 1613.2836458333331,
      "v": 92
    },
    {
      "midi": 59,
      "hit": false,
      "t": 5891.661062499999,
      "d": 1813.9913749999996,
      "v": 98
    },
    {
      "midi": 51,
      "hit": false,
      "t": 5919.607708333333,
      "d": 1753.0168749999993,
      "v": 104
    },
    {
      "midi": 75,
      "hit": false,
      "t": 6099.990604166666,
      "d": 167.6798749999998,
      "v": 90
    },
    {
      "midi": 71,
      "hit": false,
      "t": 6102.531208333333,
      "d": 180.38289583333335,
      "v": 89
    },
    {
      "midi": 47,
      "hit": false,
      "t": 6587.786604166666,
      "d": 154.97685416666627,
      "v": 69
    },
    {
      "midi": 35,
      "hit": false,
      "t": 6587.786604166666,
      "d": 154.97685416666627,
      "v": 69
    },
    {
      "midi": 66,
      "hit": false,
      "t": 6590.327208333333,
      "d": 83.8399374999999,
      "v": 84
    },
    {
      "midi": 71,
      "hit": false,
      "t": 6590.327208333333,
      "d": 83.8399374999999,
      "v": 83
    },
    {
      "midi": 75,
      "hit": false,
      "t": 6590.327208333333,
      "d": 121.94899999999961,
      "v": 81
    },
    {
      "midi": 42,
      "hit": false,
      "t": 6834.225208333332,
      "d": 764.7218541666671,
      "v": 71
    },
    {
      "midi": 75,
      "hit": false,
      "t": 6834.225208333332,
      "d": 264.22283333333326,
      "v": 74
    },
    {
      "midi": 66,
      "hit": false,
      "t": 6834.225208333332,
      "d": 292.16947916666686,
      "v": 89
    },
    {
      "midi": 71,
      "hit": false,
      "t": 6834.225208333332,
      "d": 294.7100833333334,
      "v": 82
    },
    {
      "midi": 30,
      "hit": false,
      "t": 6834.225208333332,
      "d": 764.7218541666671,
      "v": 71
    },
    {
      "midi": 71,
      "hit": false,
      "t": 7319.480604166666,
      "d": 215.95135416666653,
      "v": 90
    },
    {
      "midi": 75,
      "hit": false,
      "t": 7322.021208333333,
      "d": 228.65437500000007,
      "v": 89
    },
    {
      "midi": 66,
      "hit": false,
      "t": 7322.021208333333,
      "d": 248.9792083333332,
      "v": 96
    },
    {
      "midi": 70,
      "hit": false,
      "t": 7573.541020833332,
      "d": 655.4758750000001,
      "v": 118
    },
    {
      "midi": 42,
      "hit": false,
      "t": 7809.817208333333,
      "d": 533.5268750000005,
      "v": 77
    },
    {
      "midi": 70,
      "hit": false,
      "t": 7809.817208333333,
      "d": 106.70537499999955,
      "v": 90
    },
    {
      "midi": 78,
      "hit": false,
      "t": 7809.817208333333,
      "d": 121.94899999999961,
      "v": 82
    },
    {
      "midi": 30,
      "hit": false,
      "t": 7809.817208333333,
      "d": 533.5268750000005,
      "v": 77
    },
    {
      "midi": 73,
      "hit": false,
      "t": 7812.357812499999,
      "d": 83.8399374999999,
      "v": 81
    },
    {
      "midi": 66,
      "hit": false,
      "t": 7812.357812499999,
      "d": 119.40839583333309,
      "v": 81
    },
    {
      "midi": 49,
      "hit": false,
      "t": 7814.898416666666,
      "d": 1869.8846666666677,
      "v": 98
    },
    {
      "midi": 66,
      "hit": false,
      "t": 7814.898416666667,
      "d": 1171.218520833334,
      "v": 99
    },
    {
      "midi": 58,
      "hit": false,
      "t": 7814.898416666667,
      "d": 1216.9493958333333,
      "v": 89
    },
    {
      "midi": 54,
      "hit": false,
      "t": 7817.4390208333325,
      "d": 1745.3950625000007,
      "v": 96
    },
    {
      "midi": 46,
      "hit": false,
      "t": 7817.4390208333325,
      "d": 1900.3719166666679,
      "v": 95
    },
    {
      "midi": 66,
      "hit": false,
      "t": 8051.174604166666,
      "d": 284.5476666666664,
      "v": 87
    },
    {
      "midi": 73,
      "hit": false,
      "t": 8053.715208333332,
      "d": 261.6822291666658,
      "v": 83
    },
    {
      "midi": 70,
      "hit": false,
      "t": 8053.715208333332,
      "d": 282.00706249999985,
      "v": 93
    },
    {
      "midi": 78,
      "hit": false,
      "t": 8053.715208333332,
      "d": 315.0349166666665,
      "v": 94
    },
    {
      "midi": 78,
      "hit": false,
      "t": 8061.337020833333,
      "d": 322.656729166667,
      "v": 84
    },
    {
      "midi": 68,
      "hit": false,
      "t": 8317.938041666666,
      "d": 284.54766666666546,
      "v": 93
    },
    {
      "midi": 42,
      "hit": false,
      "t": 8538.970604166667,
      "d": 127.03020833333358,
      "v": 75
    },
    {
      "midi": 30,
      "hit": false,
      "t": 8538.970604166667,
      "d": 127.03020833333358,
      "v": 75
    },
    {
      "midi": 66,
      "hit": false,
      "t": 8541.511208333332,
      "d": 71.13691666666637,
      "v": 55
    },
    {
      "midi": 73,
      "hit": false,
      "t": 8541.511208333332,
      "d": 73.67752083333289,
      "v": 62
    },
    {
      "midi": 70,
      "hit": false,
      "t": 8541.511208333332,
      "d": 104.16477083333302,
      "v": 55
    },
    {
      "midi": 78,
      "hit": false,
      "t": 8541.511208333332,
      "d": 106.70537499999955,
      "v": 54
    },
    {
      "midi": 76,
      "hit": false,
      "t": 8559.295437499999,
      "d": 254.06041666666715,
      "v": 74
    },
    {
      "midi": 70,
      "hit": false,
      "t": 8785.40920833333,
      "d": 86.38054166666734,
      "v": 81
    },
    {
      "midi": 78,
      "hit": false,
      "t": 8785.40920833333,
      "d": 94.00235416666692,
      "v": 60
    },
    {
      "midi": 42,
      "hit": false,
      "t": 8785.409208333334,
      "d": 551.3111041666671,
      "v": 80
    },
    {
      "midi": 30,
      "hit": false,
      "t": 8785.409208333334,
      "d": 551.3111041666671,
      "v": 80
    },
    {
      "midi": 73,
      "hit": false,
      "t": 8787.949812499997,
      "d": 86.38054166666734,
      "v": 79
    },
    {
      "midi": 66,
      "hit": false,
      "t": 8787.949812499997,
      "d": 91.4617500000004,
      "v": 70
    },
    {
      "midi": 66,
      "hit": false,
      "t": 8790.490416666666,
      "d": 276.9258541666659,
      "v": 74
    },
    {
      "midi": 75,
      "hit": false,
      "t": 9021.685395833332,
      "d": 188.00470833333202,
      "v": 75
    },
    {
      "midi": 73,
      "hit": false,
      "t": 9029.307208333332,
      "d": 223.57316666666702,
      "v": 88
    },
    {
      "midi": 70,
      "hit": false,
      "t": 9029.307208333332,
      "d": 254.06041666666715,
      "v": 90
    },
    {
      "midi": 66,
      "hit": false,
      "t": 9029.307208333332,
      "d": 269.3040416666663,
      "v": 85
    },
    {
      "midi": 78,
      "hit": false,
      "t": 9029.307208333332,
      "d": 302.33189583333296,
      "v": 89
    },
    {
      "midi": 64,
      "hit": false,
      "t": 9273.205208333331,
      "d": 261.68222916666673,
      "v": 67
    },
    {
      "midi": 73,
      "hit": false,
      "t": 9504.400187499998,
      "d": 193.0859166666669,
      "v": 58
    },
    {
      "midi": 42,
      "hit": false,
      "t": 9514.562604166667,
      "d": 124.48960416666705,
      "v": 76
    },
    {
      "midi": 30,
      "hit": false,
      "t": 9514.562604166667,
      "d": 124.48960416666705,
      "v": 76
    },
    {
      "midi": 66,
      "hit": false,
      "t": 9517.103208333332,
      "d": 78.75872916666594,
      "v": 68
    },
    {
      "midi": 70,
      "hit": false,
      "t": 9517.103208333332,
      "d": 78.75872916666594,
      "v": 63
    },
    {
      "midi": 73,
      "hit": false,
      "t": 9517.103208333332,
      "d": 78.75872916666594,
      "v": 73
    },
    {
      "midi": 78,
      "hit": false,
      "t": 9517.103208333332,
      "d": 106.70537499999955,
      "v": 60
    },
    {
      "midi": 63,
      "hit": false,
      "t": 9761.001208333333,
      "d": 533.5268749999996,
      "v": 87
    },
    {
      "midi": 66,
      "hit": false,
      "t": 9761.001208333333,
      "d": 599.5825833333329,
      "v": 80
    },
    {
      "midi": 75,
      "hit": false,
      "t": 9761.001208333333,
      "d": 614.826208333332,
      "v": 75
    },
    {
      "midi": 71,
      "hit": false,
      "t": 9763.541812499998,
      "d": 86.38054166666734,
      "v": 85
    },
    {
      "midi": 75,
      "hit": false,
      "t": 9763.541812499998,
      "d": 101.6241666666665,
      "v": 71
    },
    {
      "midi": 47,
      "hit": false,
      "t": 9763.541812500001,
      "d": 543.6892916666675,
      "v": 80
    },
    {
      "midi": 35,
      "hit": false,
      "t": 9763.541812500001,
      "d": 543.6892916666675,
      "v": 80
    },
    {
      "midi": 66,
      "hit": false,
      "t": 9766.082416666664,
      "d": 83.83993750000081,
      "v": 87
    },
    {
      "midi": 54,
      "hit": false,
      "t": 9771.163625000001,
      "d": 1349.0608124999999,
      "v": 100
    },
    {
      "midi": 63,
      "hit": false,
      "t": 9771.163625000001,
      "d": 1349.0608124999999,
      "v": 100
    },
    {
      "midi": 66,
      "hit": false,
      "t": 10002.358604166664,
      "d": 266.7634374999998,
      "v": 96
    },
    {
      "midi": 75,
      "hit": false,
      "t": 10002.358604166664,
      "d": 266.7634374999998,
      "v": 89
    },
    {
      "midi": 71,
      "hit": false,
      "t": 10004.89920833333,
      "d": 236.27618749999965,
      "v": 92
    },
    {
      "midi": 66,
      "hit": false,
      "t": 10479.992187499998,
      "d": 612.2856041666673,
      "v": 76
    },
    {
      "midi": 75,
      "hit": false,
      "t": 10479.992187499998,
      "d": 645.313458333334,
      "v": 74
    },
    {
      "midi": 63,
      "hit": false,
      "t": 10485.073395833333,
      "d": 716.4503750000003,
      "v": 73
    },
    {
      "midi": 47,
      "hit": false,
      "t": 10490.15460416667,
      "d": 154.97685416666718,
      "v": 71
    },
    {
      "midi": 35,
      "hit": false,
      "t": 10490.15460416667,
      "d": 154.97685416666718,
      "v": 71
    },
    {
      "midi": 75,
      "hit": false,
      "t": 10492.69520833333,
      "d": 58.433895833333736,
      "v": 78
    },
    {
      "midi": 71,
      "hit": false,
      "t": 10492.69520833333,
      "d": 86.38054166666734,
      "v": 84
    },
    {
      "midi": 66,
      "hit": false,
      "t": 10492.69520833333,
      "d": 88.92114583333387,
      "v": 81
    },
    {
      "midi": 66,
      "hit": false,
      "t": 10736.593208333332,
      "d": 101.6241666666665,
      "v": 88
    },
    {
      "midi": 71,
      "hit": false,
      "t": 10736.593208333332,
      "d": 101.6241666666665,
      "v": 89
    },
    {
      "midi": 42,
      "hit": false,
      "t": 10736.593208333337,
      "d": 363.3063958333332,
      "v": 83
    },
    {
      "midi": 30,
      "hit": false,
      "t": 10736.593208333337,
      "d": 363.3063958333332,
      "v": 83
    },
    {
      "midi": 75,
      "hit": false,
      "t": 10739.133812499998,
      "d": 96.54295833333344,
      "v": 86
    },
    {
      "midi": 75,
      "hit": false,
      "t": 10977.950604166665,
      "d": 48.27147916666581,
      "v": 47
    },
    {
      "midi": 73,
      "hit": false,
      "t": 11206.604979166665,
      "d": 475.09297916666765,
      "v": 78
    },
    {
      "midi": 70,
      "hit": false,
      "t": 11224.38920833333,
      "d": 284.5476666666673,
      "v": 96
    },
    {
      "midi": 73,
      "hit": false,
      "t": 11224.38920833333,
      "d": 322.656729166667,
      "v": 95
    },
    {
      "midi": 42,
      "hit": false,
      "t": 11224.389208333338,
      "d": 231.1949791666666,
      "v": 75
    },
    {
      "midi": 30,
      "hit": false,
      "t": 11224.389208333338,
      "d": 231.1949791666666,
      "v": 75
    },
    {
      "midi": 66,
      "hit": false,
      "t": 11226.929812499997,
      "d": 282.00706250000076,
      "v": 100
    },
    {
      "midi": 64,
      "hit": false,
      "t": 11226.929812499999,
      "d": 360.7657916666667,
      "v": 74
    },
    {
      "midi": 61,
      "hit": false,
      "t": 11232.011020833334,
      "d": 315.0349166666674,
      "v": 73
    },
    {
      "midi": 52,
      "hit": false,
      "t": 11234.551625,
      "d": 312.4943125000009,
      "v": 105
    },
    {
      "midi": 61,
      "hit": false,
      "t": 11234.551625,
      "d": 396.3342500000017,
      "v": 105
    },
    {
      "midi": 44,
      "hit": false,
      "t": 11465.74660416667,
      "d": 188.00470833333384,
      "v": 64
    },
    {
      "midi": 32,
      "hit": false,
      "t": 11465.74660416667,
      "d": 188.00470833333384,
      "v": 64
    },
    {
      "midi": 51,
      "hit": false,
      "t": 11699.482187500002,
      "d": 1351.6014166666664,
      "v": 107
    },
    {
      "midi": 59,
      "hit": false,
      "t": 11699.482187500002,
      "d": 1379.5480625,
      "v": 95
    },
    {
      "midi": 71,
      "hit": false,
      "t": 11712.18520833333,
      "d": 88.92114583333387,
      "v": 84
    },
    {
      "midi": 75,
      "hit": false,
      "t": 11712.18520833333,
      "d": 88.92114583333387,
      "v": 81
    },
    {
      "midi": 47,
      "hit": false,
      "t": 11712.185208333338,
      "d": 492.87720833333333,
      "v": 78
    },
    {
      "midi": 35,
      "hit": false,
      "t": 11712.185208333338,
      "d": 492.87720833333333,
      "v": 78
    },
    {
      "midi": 66,
      "hit": false,
      "t": 11714.725812499997,
      "d": 86.38054166666734,
      "v": 88
    },
    {
      "midi": 63,
      "hit": false,
      "t": 11724.888229166665,
      "d": 566.5547291666662,
      "v": 80
    },
    {
      "midi": 71,
      "hit": false,
      "t": 11724.888229166665,
      "d": 581.7983541666654,
      "v": 69
    },
    {
      "midi": 59,
      "hit": false,
      "t": 11742.672458333334,
      "d": 556.3923125000001,
      "v": 61
    },
    {
      "midi": 75,
      "hit": false,
      "t": 11953.542604166665,
      "d": 294.7100833333334,
      "v": 88
    },
    {
      "midi": 71,
      "hit": false,
      "t": 11953.542604166665,
      "d": 297.2506874999999,
      "v": 92
    },
    {
      "midi": 66,
      "hit": false,
      "t": 11956.083208333332,
      "d": 274.38524999999936,
      "v": 93
    },
    {
      "midi": 63,
      "hit": false,
      "t": 12431.176187499997,
      "d": 594.5013749999998,
      "v": 73
    },
    {
      "midi": 47,
      "hit": false,
      "t": 12441.33860416667,
      "d": 167.6798749999998,
      "v": 67
    },
    {
      "midi": 35,
      "hit": false,
      "t": 12441.33860416667,
      "d": 167.6798749999998,
      "v": 67
    },
    {
      "midi": 75,
      "hit": false,
      "t": 12443.879208333332,
      "d": 71.13691666666637,
      "v": 82
    },
    {
      "midi": 66,
      "hit": false,
      "t": 12443.879208333332,
      "d": 91.4617500000004,
      "v": 87
    },
    {
      "midi": 71,
      "hit": false,
      "t": 12443.879208333332,
      "d": 91.4617500000004,
      "v": 90
    },
    {
      "midi": 71,
      "hit": false,
      "t": 12451.501020833331,
      "d": 642.7728541666656,
      "v": 71
    },
    {
      "midi": 59,
      "hit": false,
      "t": 12461.663437500001,
      "d": 665.6382916666662,
      "v": 62
    },
    {
      "midi": 66,
      "hit": false,
      "t": 12687.777208333333,
      "d": 94.00235416666692,
      "v": 86
    },
    {
      "midi": 71,
      "hit": false,
      "t": 12687.777208333333,
      "d": 94.00235416666692,
      "v": 91
    },
    {
      "midi": 42,
      "hit": false,
      "t": 12687.777208333337,
      "d": 513.2020416666674,
      "v": 64
    },
    {
      "midi": 30,
      "hit": false,
      "t": 12687.777208333337,
      "d": 513.2020416666674,
      "v": 64
    },
    {
      "midi": 75,
      "hit": false,
      "t": 12690.3178125,
      "d": 91.4617500000004,
      "v": 84
    },
    {
      "midi": 66,
      "hit": false,
      "t": 12929.134604166666,
      "d": 312.49431249999907,
      "v": 96
    },
    {
      "midi": 75,
      "hit": false,
      "t": 12929.134604166666,
      "d": 330.27854166666657,
      "v": 93
    },
    {
      "midi": 71,
      "hit": false,
      "t": 12931.675208333332,
      "d": 307.413104166666,
      "v": 97
    },
    {
      "midi": 73,
      "hit": false,
      "t": 13162.870187499997,
      "d": 416.6590833333339,
      "v": 74
    },
    {
      "midi": 61,
      "hit": false,
      "t": 13167.951395833334,
      "d": 401.41545833333294,
      "v": 62
    },
    {
      "midi": 61,
      "hit": false,
      "t": 13175.573208333335,
      "d": 393.79364583333336,
      "v": 99
    },
    {
      "midi": 64,
      "hit": false,
      "t": 13183.195020833331,
      "d": 320.11612500000047,
      "v": 74
    },
    {
      "midi": 52,
      "hit": false,
      "t": 13195.898041666669,
      "d": 327.73793750000004,
      "v": 100
    },
    {
      "midi": 42,
      "hit": false,
      "t": 13416.930604166671,
      "d": 101.6241666666665,
      "v": 57
    },
    {
      "midi": 30,
      "hit": false,
      "t": 13416.930604166671,
      "d": 101.6241666666665,
      "v": 57
    },
    {
      "midi": 66,
      "hit": false,
      "t": 13419.471208333332,
      "d": 127.03020833333358,
      "v": 93
    },
    {
      "midi": 70,
      "hit": false,
      "t": 13419.471208333332,
      "d": 134.65202083333315,
      "v": 90
    },
    {
      "midi": 73,
      "hit": false,
      "t": 13419.471208333332,
      "d": 193.0859166666669,
      "v": 89
    },
    {
      "midi": 63,
      "hit": false,
      "t": 13650.666187499999,
      "d": 619.9074166666669,
      "v": 74
    },
    {
      "midi": 63,
      "hit": false,
      "t": 13650.6661875,
      "d": 1394.791687500001,
      "v": 97
    },
    {
      "midi": 66,
      "hit": false,
      "t": 13655.74739583333,
      "d": 574.1765416666658,
      "v": 86
    },
    {
      "midi": 75,
      "hit": false,
      "t": 13655.74739583333,
      "d": 586.8795624999984,
      "v": 75
    },
    {
      "midi": 75,
      "hit": false,
      "t": 13663.369208333334,
      "d": 119.408395833334,
      "v": 82
    },
    {
      "midi": 47,
      "hit": false,
      "t": 13663.369208333337,
      "d": 551.3111041666671,
      "v": 75
    },
    {
      "midi": 35,
      "hit": false,
      "t": 13663.369208333337,
      "d": 551.3111041666671,
      "v": 75
    },
    {
      "midi": 66,
      "hit": false,
      "t": 13665.9098125,
      "d": 88.92114583333387,
      "v": 90
    },
    {
      "midi": 71,
      "hit": false,
      "t": 13665.9098125,
      "d": 111.78658333333442,
      "v": 87
    },
    {
      "midi": 54,
      "hit": false,
      "t": 13676.072229166668,
      "d": 1763.1792916666673,
      "v": 106
    },
    {
      "midi": 75,
      "hit": false,
      "t": 13904.726604166668,
      "d": 320.11612499999865,
      "v": 90
    },
    {
      "midi": 66,
      "hit": false,
      "t": 13907.267208333335,
      "d": 302.33189583333296,
      "v": 94
    },
    {
      "midi": 71,
      "hit": false,
      "t": 13907.267208333335,
      "d": 317.5755208333321,
      "v": 96
    },
    {
      "midi": 66,
      "hit": false,
      "t": 14382.360187499995,
      "d": 614.8262083333339,
      "v": 82
    },
    {
      "midi": 75,
      "hit": false,
      "t": 14382.360187499995,
      "d": 683.4225208333337,
      "v": 78
    },
    {
      "midi": 47,
      "hit": false,
      "t": 14392.52260416667,
      "d": 182.9235000000008,
      "v": 64
    },
    {
      "midi": 35,
      "hit": false,
      "t": 14392.52260416667,
      "d": 182.9235000000008,
      "v": 64
    },
    {
      "midi": 66,
      "hit": false,
      "t": 14395.063208333333,
      "d": 73.67752083333289,
      "v": 83
    },
    {
      "midi": 71,
      "hit": false,
      "t": 14395.063208333333,
      "d": 73.67752083333289,
      "v": 87
    },
    {
      "midi": 75,
      "hit": false,
      "t": 14395.063208333333,
      "d": 78.75872916666594,
      "v": 81
    },
    {
      "midi": 63,
      "hit": false,
      "t": 14415.388041666665,
      "d": 614.8262083333339,
      "v": 72
    },
    {
      "midi": 66,
      "hit": false,
      "t": 14638.961208333332,
      "d": 86.38054166666734,
      "v": 86
    },
    {
      "midi": 71,
      "hit": false,
      "t": 14638.961208333332,
      "d": 94.00235416666692,
      "v": 89
    },
    {
      "midi": 75,
      "hit": false,
      "t": 14638.961208333332,
      "d": 106.70537499999955,
      "v": 86
    },
    {
      "midi": 42,
      "hit": false,
      "t": 14638.961208333338,
      "d": 538.6080833333326,
      "v": 69
    },
    {
      "midi": 30,
      "hit": false,
      "t": 14638.961208333338,
      "d": 538.6080833333326,
      "v": 69
    },
    {
      "midi": 71,
      "hit": false,
      "t": 14880.318604166665,
      "d": 88.92114583333387,
      "v": 87
    },
    {
      "midi": 75,
      "hit": false,
      "t": 14880.318604166665,
      "d": 109.2459791666679,
      "v": 87
    },
    {
      "midi": 66,
      "hit": false,
      "t": 14882.859208333331,
      "d": 88.92114583333387,
      "v": 81
    },
    {
      "midi": 76,
      "hit": false,
      "t": 15103.891770833328,
      "d": 475.0929791666658,
      "v": 62
    },
    {
      "midi": 61,
      "hit": false,
      "t": 15103.891770833336,
      "d": 421.74029166666696,
      "v": 101
    },
    {
      "midi": 64,
      "hit": false,
      "t": 15103.891770833336,
      "d": 434.4433124999996,
      "v": 93
    },
    {
      "midi": 73,
      "hit": false,
      "t": 15108.972979166661,
      "d": 454.7681458333336,
      "v": 76
    },
    {
      "midi": 64,
      "hit": false,
      "t": 15114.0541875,
      "d": 386.1718333333338,
      "v": 64
    },
    {
      "midi": 70,
      "hit": false,
      "t": 15126.757208333333,
      "d": 276.9258541666659,
      "v": 92
    },
    {
      "midi": 66,
      "hit": false,
      "t": 15126.757208333333,
      "d": 287.088270833332,
      "v": 98
    },
    {
      "midi": 76,
      "hit": false,
      "t": 15126.757208333333,
      "d": 315.0349166666656,
      "v": 88
    },
    {
      "midi": 73,
      "hit": false,
      "t": 15126.757208333333,
      "d": 335.3597499999996,
      "v": 94
    },
    {
      "midi": 42,
      "hit": false,
      "t": 15368.11460416667,
      "d": 71.13691666666637,
      "v": 52
    },
    {
      "midi": 30,
      "hit": false,
      "t": 15368.11460416667,
      "d": 71.13691666666637,
      "v": 52
    },
    {
      "midi": 66,
      "hit": false,
      "t": 15604.390791666667,
      "d": 1255.0584583333348,
      "v": 71
    },
    {
      "midi": 78,
      "hit": false,
      "t": 15614.553208333327,
      "d": 1359.223229166666,
      "v": 69
    },
    {
      "midi": 75,
      "hit": false,
      "t": 15614.553208333327,
      "d": 1412.5759166666649,
      "v": 71
    },
    {
      "midi": 47,
      "hit": false,
      "t": 15614.553208333336,
      "d": 541.1486874999991,
      "v": 77
    },
    {
      "midi": 35,
      "hit": false,
      "t": 15614.553208333336,
      "d": 541.1486874999991,
      "v": 77
    },
    {
      "midi": 71,
      "hit": false,
      "t": 15617.0938125,
      "d": 83.839937499999,
      "v": 79
    },
    {
      "midi": 75,
      "hit": false,
      "t": 15617.0938125,
      "d": 88.92114583333205,
      "v": 77
    },
    {
      "midi": 66,
      "hit": false,
      "t": 15619.634416666666,
      "d": 83.839937499999,
      "v": 81
    },
    {
      "midi": 66,
      "hit": false,
      "t": 15627.256229166669,
      "d": 1699.6641874999987,
      "v": 92
    },
    {
      "midi": 63,
      "hit": false,
      "t": 15627.256229166669,
      "d": 1717.4484166666662,
      "v": 69
    },
    {
      "midi": 59,
      "hit": false,
      "t": 15627.256229166669,
      "d": 1737.7732499999984,
      "v": 91
    },
    {
      "midi": 66,
      "hit": false,
      "t": 15855.910604166666,
      "d": 289.62887500000033,
      "v": 95
    },
    {
      "midi": 75,
      "hit": false,
      "t": 15855.910604166666,
      "d": 309.95370833333436,
      "v": 90
    },
    {
      "midi": 71,
      "hit": false,
      "t": 15858.451208333332,
      "d": 307.41310416666784,
      "v": 96
    },
    {
      "midi": 47,
      "hit": false,
      "t": 16343.70660416667,
      "d": 208.32954166666605,
      "v": 71
    },
    {
      "midi": 35,
      "hit": false,
      "t": 16343.70660416667,
      "d": 208.32954166666605,
      "v": 71
    },
    {
      "midi": 66,
      "hit": false,
      "t": 16346.247208333334,
      "d": 73.67752083333471,
      "v": 83
    },
    {
      "midi": 71,
      "hit": false,
      "t": 16346.247208333334,
      "d": 73.67752083333471,
      "v": 83
    },
    {
      "midi": 75,
      "hit": false,
      "t": 16346.247208333334,
      "d": 73.67752083333471,
      "v": 81
    },
    {
      "midi": 42,
      "hit": false,
      "t": 16590.145208333335,
      "d": 444.6057291666657,
      "v": 77
    },
    {
      "midi": 71,
      "hit": false,
      "t": 16590.145208333335,
      "d": 71.13691666667,
      "v": 87
    },
    {
      "midi": 75,
      "hit": false,
      "t": 16590.145208333335,
      "d": 71.13691666667,
      "v": 83
    },
    {
      "midi": 30,
      "hit": false,
      "t": 16590.145208333335,
      "d": 444.6057291666657,
      "v": 77
    },
    {
      "midi": 66,
      "hit": false,
      "t": 16592.685812500004,
      "d": 68.59631250000166,
      "v": 84
    },
    {
      "midi": 75,
      "hit": false,
      "t": 16831.50260416667,
      "d": 365.8470000000016,
      "v": 93
    },
    {
      "midi": 66,
      "hit": false,
      "t": 16834.04320833334,
      "d": 348.06277083333407,
      "v": 96
    },
    {
      "midi": 71,
      "hit": false,
      "t": 16834.04320833334,
      "d": 363.3063958333332,
      "v": 96
    },
    {
      "midi": 71,
      "hit": false,
      "t": 17055.075770833326,
      "d": 452.2275416666671,
      "v": 60
    },
    {
      "midi": 59,
      "hit": false,
      "t": 17077.941208333334,
      "d": 424.2808958333335,
      "v": 57
    },
    {
      "midi": 47,
      "hit": false,
      "t": 17077.941208333334,
      "d": 444.6057291666657,
      "v": 76
    },
    {
      "midi": 35,
      "hit": false,
      "t": 17077.941208333334,
      "d": 444.6057291666657,
      "v": 76
    },
    {
      "midi": 66,
      "hit": false,
      "t": 17319.298604166674,
      "d": 76.21812500000306,
      "v": 80
    },
    {
      "midi": 75,
      "hit": false,
      "t": 17319.298604166674,
      "d": 94.00235416667056,
      "v": 81
    },
    {
      "midi": 71,
      "hit": false,
      "t": 17321.839208333342,
      "d": 73.67752083333471,
      "v": 77
    },
    {
      "midi": 80,
      "hit": false,
      "t": 17565.737208333325,
      "d": 591.9607708333351,
      "v": 72
    },
    {
      "midi": 76,
      "hit": false,
      "t": 17565.737208333325,
      "d": 604.6637916666696,
      "v": 70
    },
    {
      "midi": 68,
      "hit": false,
      "t": 17565.737208333332,
      "d": 650.394666666667,
      "v": 80
    },
    {
      "midi": 52,
      "hit": false,
      "t": 17568.2778125,
      "d": 546.229895833334,
      "v": 79
    },
    {
      "midi": 40,
      "hit": false,
      "t": 17568.2778125,
      "d": 546.229895833334,
      "v": 79
    },
    {
      "midi": 68,
      "hit": false,
      "t": 17568.27781250001,
      "d": 86.38054166666916,
      "v": 85
    },
    {
      "midi": 71,
      "hit": false,
      "t": 17568.27781250001,
      "d": 86.38054166666916,
      "v": 89
    },
    {
      "midi": 76,
      "hit": false,
      "t": 17568.27781250001,
      "d": 88.9211458333375,
      "v": 83
    },
    {
      "midi": 64,
      "hit": false,
      "t": 17570.81841666667,
      "d": 1653.9333125000012,
      "v": 85
    },
    {
      "midi": 56,
      "hit": false,
      "t": 17570.81841666667,
      "d": 1732.692041666669,
      "v": 87
    },
    {
      "midi": 64,
      "hit": false,
      "t": 17570.81841666668,
      "d": 88.9211458333375,
      "v": 82
    },
    {
      "midi": 59,
      "hit": false,
      "t": 17573.359020833337,
      "d": 1885.1282916666678,
      "v": 88
    },
    {
      "midi": 76,
      "hit": false,
      "t": 17807.094604166683,
      "d": 325.19733333333716,
      "v": 89
    },
    {
      "midi": 64,
      "hit": false,
      "t": 17809.63520833335,
      "d": 302.33189583333296,
      "v": 92
    },
    {
      "midi": 68,
      "hit": false,
      "t": 17809.63520833335,
      "d": 302.33189583333296,
      "v": 93
    },
    {
      "midi": 71,
      "hit": false,
      "t": 17809.63520833335,
      "d": 315.0349166666674,
      "v": 94
    },
    {
      "midi": 80,
      "hit": false,
      "t": 18289.809395833327,
      "d": 564.0141250000015,
      "v": 67
    },
    {
      "midi": 76,
      "hit": false,
      "t": 18289.809395833327,
      "d": 594.5013749999998,
      "v": 66
    },
    {
      "midi": 52,
      "hit": false,
      "t": 18294.890604166667,
      "d": 243.89800000000105,
      "v": 74
    },
    {
      "midi": 40,
      "hit": false,
      "t": 18294.890604166667,
      "d": 243.89800000000105,
      "v": 74
    },
    {
      "midi": 71,
      "hit": false,
      "t": 18297.431208333353,
      "d": 86.38054166666552,
      "v": 87
    },
    {
      "midi": 68,
      "hit": false,
      "t": 18297.431208333353,
      "d": 91.46174999999857,
      "v": 82
    },
    {
      "midi": 64,
      "hit": false,
      "t": 18297.431208333353,
      "d": 99.08356249999997,
      "v": 84
    },
    {
      "midi": 76,
      "hit": false,
      "t": 18297.431208333353,
      "d": 99.08356249999997,
      "v": 80
    },
    {
      "midi": 68,
      "hit": false,
      "t": 18335.54027083333,
      "d": 584.3389583333337,
      "v": 70
    },
    {
      "midi": 47,
      "hit": false,
      "t": 18541.329208333336,
      "d": 472.5523749999993,
      "v": 63
    },
    {
      "midi": 35,
      "hit": false,
      "t": 18541.329208333336,
      "d": 472.5523749999993,
      "v": 63
    },
    {
      "midi": 71,
      "hit": false,
      "t": 18541.329208333354,
      "d": 86.38054166666916,
      "v": 87
    },
    {
      "midi": 68,
      "hit": false,
      "t": 18543.869812500023,
      "d": 86.38054166666916,
      "v": 78
    },
    {
      "midi": 64,
      "hit": false,
      "t": 18543.869812500023,
      "d": 88.9211458333375,
      "v": 83
    },
    {
      "midi": 76,
      "hit": false,
      "t": 18543.869812500023,
      "d": 88.9211458333375,
      "v": 81
    },
    {
      "midi": 68,
      "hit": false,
      "t": 18782.686604166694,
      "d": 320.11612500000047,
      "v": 89
    },
    {
      "midi": 71,
      "hit": false,
      "t": 18785.227208333363,
      "d": 317.5755208333321,
      "v": 91
    },
    {
      "midi": 64,
      "hit": false,
      "t": 18785.227208333363,
      "d": 322.6567291666652,
      "v": 91
    },
    {
      "midi": 76,
      "hit": false,
      "t": 18785.227208333363,
      "d": 322.6567291666652,
      "v": 87
    },
    {
      "midi": 80,
      "hit": false,
      "t": 19016.422187499993,
      "d": 376.0094166666677,
      "v": 69
    },
    {
      "midi": 76,
      "hit": false,
      "t": 19016.422187499993,
      "d": 388.7124375000021,
      "v": 72
    },
    {
      "midi": 52,
      "hit": false,
      "t": 19029.125208333335,
      "d": 492.87720833333515,
      "v": 78
    },
    {
      "midi": 40,
      "hit": false,
      "t": 19029.125208333335,
      "d": 492.87720833333515,
      "v": 78
    },
    {
      "midi": 68,
      "hit": false,
      "t": 19039.287624999997,
      "d": 353.1439791666671,
      "v": 73
    },
    {
      "midi": 64,
      "hit": false,
      "t": 19270.482604166693,
      "d": 96.54295833333526,
      "v": 86
    },
    {
      "midi": 71,
      "hit": false,
      "t": 19273.02320833336,
      "d": 94.00235416666692,
      "v": 86
    },
    {
      "midi": 68,
      "hit": false,
      "t": 19273.02320833336,
      "d": 99.08356249999997,
      "v": 81
    },
    {
      "midi": 76,
      "hit": false,
      "t": 19273.02320833336,
      "d": 119.40839583333218,
      "v": 83
    },
    {
      "midi": 75,
      "hit": false,
      "t": 19516.92120833333,
      "d": 800.2903125000012,
      "v": 76
    },
    {
      "midi": 78,
      "hit": false,
      "t": 19516.92120833333,
      "d": 812.9933333333356,
      "v": 71
    },
    {
      "midi": 47,
      "hit": false,
      "t": 19519.4618125,
      "d": 482.71479166666904,
      "v": 78
    },
    {
      "midi": 35,
      "hit": false,
      "t": 19519.4618125,
      "d": 482.71479166666904,
      "v": 78
    },
    {
      "midi": 66,
      "hit": false,
      "t": 19519.461812500027,
      "d": 76.21812499999942,
      "v": 88
    },
    {
      "midi": 71,
      "hit": false,
      "t": 19519.461812500027,
      "d": 76.21812499999942,
      "v": 79
    },
    {
      "midi": 75,
      "hit": false,
      "t": 19519.461812500027,
      "d": 96.54295833333163,
      "v": 81
    },
    {
      "midi": 66,
      "hit": false,
      "t": 19527.083625,
      "d": 917.158104166665,
      "v": 83
    },
    {
      "midi": 59,
      "hit": false,
      "t": 19544.86785416667,
      "d": 777.4248750000006,
      "v": 92
    },
    {
      "midi": 63,
      "hit": false,
      "t": 19544.86785416667,
      "d": 805.3715208333342,
      "v": 96
    },
    {
      "midi": 66,
      "hit": false,
      "t": 19544.86785416667,
      "d": 828.2369583333348,
      "v": 89
    },
    {
      "midi": 66,
      "hit": false,
      "t": 19758.27860416669,
      "d": 317.57552083333576,
      "v": 100
    },
    {
      "midi": 75,
      "hit": false,
      "t": 19758.27860416669,
      "d": 332.8191458333349,
      "v": 95
    },
    {
      "midi": 71,
      "hit": false,
      "t": 19760.81920833336,
      "d": 332.8191458333349,
      "v": 97
    },
    {
      "midi": 47,
      "hit": false,
      "t": 20246.07460416667,
      "d": 223.5731666666652,
      "v": 69
    },
    {
      "midi": 35,
      "hit": false,
      "t": 20246.07460416667,
      "d": 223.5731666666652,
      "v": 69
    },
    {
      "midi": 71,
      "hit": false,
      "t": 20248.61520833336,
      "d": 99.08356249999997,
      "v": 90
    },
    {
      "midi": 66,
      "hit": false,
      "t": 20248.61520833336,
      "d": 119.40839583333218,
      "v": 90
    },
    {
      "midi": 75,
      "hit": false,
      "t": 20248.61520833336,
      "d": 119.40839583333218,
      "v": 86
    },
    {
      "midi": 73,
      "hit": false,
      "t": 20462.02595833333,
      "d": 426.8214999999982,
      "v": 80
    },
    {
      "midi": 76,
      "hit": false,
      "t": 20462.02595833333,
      "d": 426.8214999999982,
      "v": 66
    },
    {
      "midi": 64,
      "hit": false,
      "t": 20464.566562500004,
      "d": 436.9839166666643,
      "v": 87
    },
    {
      "midi": 64,
      "hit": false,
      "t": 20482.350791666664,
      "d": 373.46881249999933,
      "v": 79
    },
    {
      "midi": 61,
      "hit": false,
      "t": 20484.891395833336,
      "d": 416.6590833333321,
      "v": 106
    },
    {
      "midi": 42,
      "hit": false,
      "t": 20492.513208333337,
      "d": 411.57787499999904,
      "v": 68
    },
    {
      "midi": 30,
      "hit": false,
      "t": 20492.513208333337,
      "d": 411.57787499999904,
      "v": 68
    },
    {
      "midi": 66,
      "hit": false,
      "t": 20492.51320833336,
      "d": 322.6567291666688,
      "v": 105
    },
    {
      "midi": 73,
      "hit": false,
      "t": 20492.51320833336,
      "d": 342.981562500001,
      "v": 98
    },
    {
      "midi": 76,
      "hit": false,
      "t": 20495.053812500028,
      "d": 340.4409583333327,
      "v": 97
    },
    {
      "midi": 59,
      "hit": false,
      "t": 20957.443770833335,
      "d": 274.38524999999936,
      "v": 98
    },
    {
      "midi": 63,
      "hit": false,
      "t": 20957.443770833335,
      "d": 409.03727083333433,
      "v": 98
    },
    {
      "midi": 71,
      "hit": false,
      "t": 20972.68739583333,
      "d": 309.95370833333436,
      "v": 80
    },
    {
      "midi": 75,
      "hit": false,
      "t": 20972.68739583333,
      "d": 355.68458333333547,
      "v": 76
    },
    {
      "midi": 47,
      "hit": false,
      "t": 20980.309208333336,
      "d": 431.9027083333349,
      "v": 74
    },
    {
      "midi": 35,
      "hit": false,
      "t": 20980.309208333336,
      "d": 431.9027083333349,
      "v": 74
    },
    {
      "midi": 66,
      "hit": false,
      "t": 20980.30920833336,
      "d": 289.62887500000215,
      "v": 102
    },
    {
      "midi": 75,
      "hit": false,
      "t": 20980.30920833336,
      "d": 330.2785416666702,
      "v": 95
    },
    {
      "midi": 71,
      "hit": false,
      "t": 20982.84981250003,
      "d": 248.9792083333341,
      "v": 101
    },
    {
      "midi": 63,
      "hit": false,
      "t": 20987.93102083333,
      "d": 330.27854166666657,
      "v": 87
    },
    {
      "midi": 58,
      "hit": false,
      "t": 21450.32097916667,
      "d": 3721.9851041666698,
      "v": 73
    },
    {
      "midi": 61,
      "hit": false,
      "t": 21452.86158333334,
      "d": 3617.820333333333,
      "v": 81
    },
    {
      "midi": 54,
      "hit": false,
      "t": 21452.86158333334,
      "d": 3691.497854166668,
      "v": 83
    },
    {
      "midi": 70,
      "hit": false,
      "t": 21460.483395833333,
      "d": 1341.4389999999985,
      "v": 66
    },
    {
      "midi": 61,
      "hit": false,
      "t": 21468.10520833333,
      "d": 1288.0863124999996,
      "v": 87
    },
    {
      "midi": 42,
      "hit": false,
      "t": 21468.105208333338,
      "d": 551.3111041666671,
      "v": 83
    },
    {
      "midi": 30,
      "hit": false,
      "t": 21468.105208333338,
      "d": 551.3111041666671,
      "v": 83
    },
    {
      "midi": 66,
      "hit": false,
      "t": 21470.64581250003,
      "d": 83.83993750000081,
      "v": 96
    },
    {
      "midi": 73,
      "hit": false,
      "t": 21470.64581250003,
      "d": 91.46175000000221,
      "v": 88
    },
    {
      "midi": 76,
      "hit": false,
      "t": 21470.64581250003,
      "d": 104.16477083333666,
      "v": 94
    },
    {
      "midi": 70,
      "hit": false,
      "t": 21473.1864166667,
      "d": 88.92114583333387,
      "v": 92
    },
    {
      "midi": 73,
      "hit": false,
      "t": 21480.808229166665,
      "d": 1389.710479166668,
      "v": 74
    },
    {
      "midi": 70,
      "hit": false,
      "t": 21709.462604166703,
      "d": 279.4664583333324,
      "v": 95
    },
    {
      "midi": 76,
      "hit": false,
      "t": 21712.00320833337,
      "d": 241.3573958333327,
      "v": 96
    },
    {
      "midi": 66,
      "hit": false,
      "t": 21712.00320833337,
      "d": 256.60102083333186,
      "v": 100
    },
    {
      "midi": 73,
      "hit": false,
      "t": 21712.00320833337,
      "d": 256.60102083333186,
      "v": 92
    },
    {
      "midi": 42,
      "hit": false,
      "t": 22197.258604166673,
      "d": 208.32954166666605,
      "v": 74
    },
    {
      "midi": 30,
      "hit": false,
      "t": 22197.258604166673,
      "d": 208.32954166666605,
      "v": 74
    },
    {
      "midi": 78,
      "hit": false,
      "t": 22197.258604166702,
      "d": 114.32718750000276,
      "v": 96
    },
    {
      "midi": 73,
      "hit": false,
      "t": 22199.79920833337,
      "d": 43.19027083333276,
      "v": 86
    },
    {
      "midi": 66,
      "hit": false,
      "t": 22199.79920833337,
      "d": 83.83993750000081,
      "v": 93
    },
    {
      "midi": 70,
      "hit": false,
      "t": 22199.79920833337,
      "d": 83.83993750000081,
      "v": 95
    },
    {
      "midi": 49,
      "hit": false,
      "t": 22443.69720833334,
      "d": 553.8517083333318,
      "v": 81
    },
    {
      "midi": 37,
      "hit": false,
      "t": 22443.69720833334,
      "d": 553.8517083333318,
      "v": 81
    },
    {
      "midi": 66,
      "hit": false,
      "t": 22443.69720833337,
      "d": 94.00235416666692,
      "v": 95
    },
    {
      "midi": 70,
      "hit": false,
      "t": 22443.69720833337,
      "d": 94.00235416666692,
      "v": 96
    },
    {
      "midi": 78,
      "hit": false,
      "t": 22443.69720833337,
      "d": 94.00235416666692,
      "v": 95
    },
    {
      "midi": 73,
      "hit": false,
      "t": 22446.23781250004,
      "d": 86.38054166666552,
      "v": 92
    },
    {
      "midi": 73,
      "hit": false,
      "t": 22685.054604166704,
      "d": 307.413104166666,
      "v": 96
    },
    {
      "midi": 78,
      "hit": false,
      "t": 22685.054604166704,
      "d": 335.3597499999996,
      "v": 100
    },
    {
      "midi": 66,
      "hit": false,
      "t": 22687.595208333372,
      "d": 294.71008333333157,
      "v": 100
    },
    {
      "midi": 70,
      "hit": false,
      "t": 22687.595208333372,
      "d": 312.49431249999907,
      "v": 100
    },
    {
      "midi": 68,
      "hit": false,
      "t": 22923.871395833332,
      "d": 360.7657916666649,
      "v": 80
    },
    {
      "midi": 71,
      "hit": false,
      "t": 22923.871395833332,
      "d": 454.7681458333318,
      "v": 76
    },
    {
      "midi": 59,
      "hit": false,
      "t": 22944.196229166664,
      "d": 396.3342499999999,
      "v": 65
    },
    {
      "midi": 49,
      "hit": false,
      "t": 23172.85060416667,
      "d": 167.67987500000163,
      "v": 76
    },
    {
      "midi": 37,
      "hit": false,
      "t": 23172.85060416667,
      "d": 167.67987500000163,
      "v": 76
    },
    {
      "midi": 70,
      "hit": false,
      "t": 23175.39120833337,
      "d": 81.29933333333247,
      "v": 83
    },
    {
      "midi": 66,
      "hit": false,
      "t": 23175.39120833337,
      "d": 86.38054166666552,
      "v": 79
    },
    {
      "midi": 78,
      "hit": false,
      "t": 23175.39120833337,
      "d": 86.38054166666552,
      "v": 83
    },
    {
      "midi": 73,
      "hit": false,
      "t": 23175.39120833337,
      "d": 88.92114583333387,
      "v": 77
    },
    {
      "midi": 70,
      "hit": false,
      "t": 23396.42377083333,
      "d": 1773.3417083333334,
      "v": 69
    },
    {
      "midi": 73,
      "hit": false,
      "t": 23396.42377083333,
      "d": 1808.9101666666684,
      "v": 66
    },
    {
      "midi": 42,
      "hit": false,
      "t": 23419.28920833334,
      "d": 541.148687500001,
      "v": 77
    },
    {
      "midi": 30,
      "hit": false,
      "t": 23419.28920833334,
      "d": 541.148687500001,
      "v": 77
    },
    {
      "midi": 66,
      "hit": false,
      "t": 23419.28920833337,
      "d": 86.38054166666916,
      "v": 90
    },
    {
      "midi": 78,
      "hit": false,
      "t": 23419.28920833337,
      "d": 86.38054166666916,
      "v": 90
    },
    {
      "midi": 73,
      "hit": false,
      "t": 23421.82981250004,
      "d": 40.649666666668054,
      "v": 84
    },
    {
      "midi": 70,
      "hit": false,
      "t": 23421.82981250004,
      "d": 86.38054166666916,
      "v": 89
    },
    {
      "midi": 61,
      "hit": false,
      "t": 23431.992229166663,
      "d": 1643.770895833335,
      "v": 68
    },
    {
      "midi": 66,
      "hit": false,
      "t": 23660.646604166708,
      "d": 292.16947916666686,
      "v": 96
    },
    {
      "midi": 78,
      "hit": false,
      "t": 23660.646604166708,
      "d": 312.4943125000027,
      "v": 95
    },
    {
      "midi": 70,
      "hit": false,
      "t": 23663.187208333376,
      "d": 307.413104166666,
      "v": 93
    },
    {
      "midi": 73,
      "hit": false,
      "t": 23663.187208333376,
      "d": 309.95370833333436,
      "v": 92
    },
    {
      "midi": 42,
      "hit": false,
      "t": 24148.442604166674,
      "d": 218.49195833333215,
      "v": 74
    },
    {
      "midi": 30,
      "hit": false,
      "t": 24148.442604166674,
      "d": 218.49195833333215,
      "v": 74
    },
    {
      "midi": 70,
      "hit": false,
      "t": 24150.98320833338,
      "d": 86.38054166666552,
      "v": 92
    },
    {
      "midi": 66,
      "hit": false,
      "t": 24150.98320833338,
      "d": 88.92114583333387,
      "v": 92
    },
    {
      "midi": 73,
      "hit": false,
      "t": 24150.98320833338,
      "d": 88.92114583333387,
      "v": 84
    },
    {
      "midi": 78,
      "hit": false,
      "t": 24150.98320833338,
      "d": 94.00235416666692,
      "v": 94
    },
    {
      "midi": 37,
      "hit": false,
      "t": 24394.88120833334,
      "d": 642.7728541666656,
      "v": 73
    },
    {
      "midi": 25,
      "hit": false,
      "t": 24394.88120833334,
      "d": 642.7728541666656,
      "v": 73
    },
    {
      "midi": 70,
      "hit": false,
      "t": 24636.238604166712,
      "d": 289.62887500000215,
      "v": 95
    },
    {
      "midi": 73,
      "hit": false,
      "t": 24638.77920833338,
      "d": 282.00706250000076,
      "v": 90
    },
    {
      "midi": 66,
      "hit": false,
      "t": 24638.77920833338,
      "d": 287.0882708333338,
      "v": 96
    },
    {
      "midi": 78,
      "hit": false,
      "t": 24638.77920833338,
      "d": 304.8725000000013,
      "v": 98
    },
    {
      "midi": 37,
      "hit": false,
      "t": 25124.03460416667,
      "d": 195.6265208333316,
      "v": 51
    },
    {
      "midi": 25,
      "hit": false,
      "t": 25124.03460416667,
      "d": 195.6265208333316,
      "v": 51
    },
    {
      "midi": 70,
      "hit": false,
      "t": 25124.034604166714,
      "d": 50.81208333333416,
      "v": 89
    },
    {
      "midi": 73,
      "hit": false,
      "t": 25126.575208333383,
      "d": 48.27147916666581,
      "v": 83
    },
    {
      "midi": 78,
      "hit": false,
      "t": 25126.575208333383,
      "d": 50.81208333333416,
      "v": 89
    },
    {
      "midi": 66,
      "hit": false,
      "t": 25126.575208333383,
      "d": 58.433895833335555,
      "v": 89
    },
    {
      "midi": 64,
      "hit": false,
      "t": 25347.60777083334,
      "d": 1783.5041249999995,
      "v": 87
    },
    {
      "midi": 54,
      "hit": false,
      "t": 25347.60777083334,
      "d": 1813.9913749999978,
      "v": 96
    },
    {
      "midi": 61,
      "hit": false,
      "t": 25347.60777083334,
      "d": 1813.9913749999978,
      "v": 88
    },
    {
      "midi": 64,
      "hit": false,
      "t": 25370.47320833333,
      "d": 566.5547291666662,
      "v": 74
    },
    {
      "midi": 42,
      "hit": false,
      "t": 25370.473208333337,
      "d": 551.3111041666671,
      "v": 78
    },
    {
      "midi": 30,
      "hit": false,
      "t": 25370.473208333337,
      "d": 551.3111041666671,
      "v": 78
    },
    {
      "midi": 73,
      "hit": false,
      "t": 25373.013812500052,
      "d": 43.19027083333276,
      "v": 80
    },
    {
      "midi": 70,
      "hit": false,
      "t": 25373.013812500052,
      "d": 48.27147916666581,
      "v": 90
    },
    {
      "midi": 78,
      "hit": false,
      "t": 25373.013812500052,
      "d": 48.27147916666581,
      "v": 92
    },
    {
      "midi": 66,
      "hit": false,
      "t": 25373.013812500052,
      "d": 55.89329166666721,
      "v": 92
    },
    {
      "midi": 73,
      "hit": false,
      "t": 25380.635625,
      "d": 589.4201666666668,
      "v": 82
    },
    {
      "midi": 76,
      "hit": false,
      "t": 25380.635625,
      "d": 591.9607708333351,
      "v": 74
    },
    {
      "midi": 73,
      "hit": false,
      "t": 25611.83060416672,
      "d": 198.16712499999994,
      "v": 88
    },
    {
      "midi": 78,
      "hit": false,
      "t": 25611.83060416672,
      "d": 231.1949791666666,
      "v": 94
    },
    {
      "midi": 70,
      "hit": false,
      "t": 25614.37120833339,
      "d": 213.4107499999991,
      "v": 94
    },
    {
      "midi": 66,
      "hit": false,
      "t": 25614.37120833339,
      "d": 248.97920833333046,
      "v": 95
    },
    {
      "midi": 42,
      "hit": false,
      "t": 26099.62660416667,
      "d": 205.78893750000134,
      "v": 73
    },
    {
      "midi": 30,
      "hit": false,
      "t": 26099.62660416667,
      "d": 205.78893750000134,
      "v": 73
    },
    {
      "midi": 73,
      "hit": false,
      "t": 26102.167208333387,
      "d": 86.38054166666552,
      "v": 85
    },
    {
      "midi": 66,
      "hit": false,
      "t": 26102.167208333387,
      "d": 88.92114583333387,
      "v": 87
    },
    {
      "midi": 70,
      "hit": false,
      "t": 26102.167208333387,
      "d": 88.92114583333387,
      "v": 84
    },
    {
      "midi": 76,
      "hit": false,
      "t": 26102.167208333387,
      "d": 91.46175000000221,
      "v": 85
    },
    {
      "midi": 76,
      "hit": false,
      "t": 26109.789020833334,
      "d": 586.8795624999984,
      "v": 76
    },
    {
      "midi": 73,
      "hit": false,
      "t": 26109.789020833334,
      "d": 591.9607708333315,
      "v": 79
    },
    {
      "midi": 64,
      "hit": false,
      "t": 26119.951437499996,
      "d": 569.0953333333346,
      "v": 70
    },
    {
      "midi": 37,
      "hit": false,
      "t": 26346.06520833334,
      "d": 409.03727083333433,
      "v": 77
    },
    {
      "midi": 25,
      "hit": false,
      "t": 26346.06520833334,
      "d": 409.03727083333433,
      "v": 77
    },
    {
      "midi": 66,
      "hit": false,
      "t": 26346.065208333388,
      "d": 282.00706250000076,
      "v": 100
    },
    {
      "midi": 76,
      "hit": false,
      "t": 26346.065208333388,
      "d": 304.8725000000013,
      "v": 97
    },
    {
      "midi": 70,
      "hit": false,
      "t": 26348.605812500056,
      "d": 279.4664583333324,
      "v": 95
    },
    {
      "midi": 73,
      "hit": false,
      "t": 26348.605812500056,
      "d": 279.4664583333324,
      "v": 95
    },
    {
      "midi": 76,
      "hit": false,
      "t": 26810.99577083333,
      "d": 388.7124374999985,
      "v": 74
    },
    {
      "midi": 73,
      "hit": false,
      "t": 26810.99577083333,
      "d": 406.496666666666,
      "v": 79
    },
    {
      "midi": 42,
      "hit": false,
      "t": 26833.861208333343,
      "d": 350.6033749999988,
      "v": 83
    },
    {
      "midi": 30,
      "hit": false,
      "t": 26833.861208333343,
      "d": 350.6033749999988,
      "v": 83
    },
    {
      "midi": 73,
      "hit": false,
      "t": 26833.86120833339,
      "d": 297.2506874999999,
      "v": 94
    },
    {
      "midi": 76,
      "hit": false,
      "t": 26833.86120833339,
      "d": 317.5755208333321,
      "v": 94
    },
    {
      "midi": 70,
      "hit": false,
      "t": 26836.40181250006,
      "d": 203.248333333333,
      "v": 95
    },
    {
      "midi": 66,
      "hit": false,
      "t": 26836.40181250006,
      "d": 294.71008333333157,
      "v": 100
    },
    {
      "midi": 64,
      "hit": false,
      "t": 26841.48302083333,
      "d": 330.27854166666657,
      "v": 70
    },
    {
      "midi": 71,
      "hit": false,
      "t": 27308.954187499996,
      "d": 668.1788958333345,
      "v": 77
    },
    {
      "midi": 75,
      "hit": false,
      "t": 27308.954187499996,
      "d": 708.8285625000026,
      "v": 74
    },
    {
      "midi": 63,
      "hit": false,
      "t": 27321.657208333338,
      "d": 660.5570833333368,
      "v": 103
    },
    {
      "midi": 54,
      "hit": false,
      "t": 27321.657208333338,
      "d": 1928.3185625000006,
      "v": 97
    },
    {
      "midi": 59,
      "hit": false,
      "t": 27324.197812500006,
      "d": 630.0698333333348,
      "v": 93
    },
    {
      "midi": 47,
      "hit": false,
      "t": 27324.19781250001,
      "d": 470.0117708333346,
      "v": 77
    },
    {
      "midi": 35,
      "hit": false,
      "t": 27324.19781250001,
      "d": 470.0117708333346,
      "v": 77
    },
    {
      "midi": 66,
      "hit": false,
      "t": 27324.197812500057,
      "d": 71.13691666667,
      "v": 83
    },
    {
      "midi": 71,
      "hit": false,
      "t": 27326.738416666725,
      "d": 78.75872916666776,
      "v": 80
    },
    {
      "midi": 75,
      "hit": false,
      "t": 27326.738416666725,
      "d": 78.75872916666776,
      "v": 75
    },
    {
      "midi": 63,
      "hit": false,
      "t": 27341.982041666663,
      "d": 571.6359374999993,
      "v": 76
    },
    {
      "midi": 66,
      "hit": false,
      "t": 27563.014604166725,
      "d": 287.0882708333338,
      "v": 96
    },
    {
      "midi": 71,
      "hit": false,
      "t": 27563.014604166725,
      "d": 307.41310416666965,
      "v": 97
    },
    {
      "midi": 75,
      "hit": false,
      "t": 27565.555208333393,
      "d": 292.16947916666686,
      "v": 93
    },
    {
      "midi": 61,
      "hit": false,
      "t": 28045.72939583334,
      "d": 622.4480208333334,
      "v": 105
    },
    {
      "midi": 64,
      "hit": false,
      "t": 28045.72939583334,
      "d": 670.7194999999992,
      "v": 93
    },
    {
      "midi": 47,
      "hit": false,
      "t": 28050.810604166676,
      "d": 215.95135416666744,
      "v": 69
    },
    {
      "midi": 35,
      "hit": false,
      "t": 28050.810604166676,
      "d": 215.95135416666744,
      "v": 69
    },
    {
      "midi": 66,
      "hit": false,
      "t": 28053.351208333395,
      "d": 91.46174999999857,
      "v": 90
    },
    {
      "midi": 71,
      "hit": false,
      "t": 28053.351208333395,
      "d": 91.46174999999857,
      "v": 92
    },
    {
      "midi": 75,
      "hit": false,
      "t": 28053.351208333395,
      "d": 114.32718749999913,
      "v": 88
    },
    {
      "midi": 64,
      "hit": false,
      "t": 28076.216645833327,
      "d": 548.7704999999987,
      "v": 79
    },
    {
      "midi": 73,
      "hit": false,
      "t": 28078.75725,
      "d": 604.6637916666659,
      "v": 79
    },
    {
      "midi": 76,
      "hit": false,
      "t": 28078.75725,
      "d": 663.0976874999978,
      "v": 73
    },
    {
      "midi": 42,
      "hit": false,
      "t": 28297.24920833334,
      "d": 386.1718333333338,
      "v": 74
    },
    {
      "midi": 30,
      "hit": false,
      "t": 28297.24920833334,
      "d": 386.1718333333338,
      "v": 74
    },
    {
      "midi": 66,
      "hit": false,
      "t": 28297.249208333393,
      "d": 307.41310416666965,
      "v": 100
    },
    {
      "midi": 73,
      "hit": false,
      "t": 28297.249208333393,
      "d": 327.73793750000186,
      "v": 94
    },
    {
      "midi": 70,
      "hit": false,
      "t": 28299.78981250006,
      "d": 304.8725000000013,
      "v": 94
    },
    {
      "midi": 76,
      "hit": false,
      "t": 28299.78981250006,
      "d": 325.1973333333335,
      "v": 94
    },
    {
      "midi": 66,
      "hit": false,
      "t": 28764.720375000004,
      "d": 304.8725000000013,
      "v": 103
    },
    {
      "midi": 63,
      "hit": false,
      "t": 28767.260979166673,
      "d": 302.33189583333296,
      "v": 99
    },
    {
      "midi": 59,
      "hit": false,
      "t": 28767.260979166673,
      "d": 5213.319750000006,
      "v": 100
    },
    {
      "midi": 75,
      "hit": false,
      "t": 28785.04520833333,
      "d": 378.5500208333324,
      "v": 72
    },
    {
      "midi": 78,
      "hit": false,
      "t": 28785.04520833333,
      "d": 378.5500208333324,
      "v": 62
    },
    {
      "midi": 47,
      "hit": false,
      "t": 28785.045208333344,
      "d": 393.7936458333352,
      "v": 77
    },
    {
      "midi": 35,
      "hit": false,
      "t": 28785.045208333344,
      "d": 393.7936458333352,
      "v": 77
    },
    {
      "midi": 71,
      "hit": false,
      "t": 28787.58581250006,
      "d": 261.6822291666649,
      "v": 97
    },
    {
      "midi": 75,
      "hit": false,
      "t": 28787.58581250006,
      "d": 279.4664583333324,
      "v": 92
    },
    {
      "midi": 66,
      "hit": false,
      "t": 28787.58581250006,
      "d": 299.7912916666646,
      "v": 100
    },
    {
      "midi": 66,
      "hit": false,
      "t": 28790.12641666666,
      "d": 312.49431249999907,
      "v": 78
    },
    {
      "midi": 68,
      "hit": false,
      "t": 29265.219395833323,
      "d": 586.8795624999984,
      "v": 80
    },
    {
      "midi": 76,
      "hit": false,
      "t": 29272.841208333328,
      "d": 589.4201666666668,
      "v": 71
    },
    {
      "midi": 80,
      "hit": false,
      "t": 29272.841208333328,
      "d": 589.4201666666668,
      "v": 86
    },
    {
      "midi": 40,
      "hit": false,
      "t": 29275.38181250001,
      "d": 538.6080833333326,
      "v": 80
    },
    {
      "midi": 28,
      "hit": false,
      "t": 29275.38181250001,
      "d": 538.6080833333326,
      "v": 80
    },
    {
      "midi": 64,
      "hit": false,
      "t": 29290.625437500006,
      "d": 4641.6838124999995,
      "v": 86
    },
    {
      "midi": 68,
      "hit": false,
      "t": 29290.625437500006,
      "d": 4656.927437500002,
      "v": 77
    },
    {
      "midi": 71,
      "hit": false,
      "t": 29514.198604166726,
      "d": 299.79129166666826,
      "v": 89
    },
    {
      "midi": 68,
      "hit": false,
      "t": 29516.739208333394,
      "d": 282.00706250000076,
      "v": 87
    },
    {
      "midi": 76,
      "hit": false,
      "t": 29516.739208333394,
      "d": 322.6567291666652,
      "v": 79
    },
    {
      "midi": 40,
      "hit": false,
      "t": 30001.994604166677,
      "d": 251.5198124999988,
      "v": 69
    },
    {
      "midi": 28,
      "hit": false,
      "t": 30001.994604166677,
      "d": 251.5198124999988,
      "v": 69
    },
    {
      "midi": 68,
      "hit": false,
      "t": 30004.535208333393,
      "d": 78.75872916666776,
      "v": 84
    },
    {
      "midi": 71,
      "hit": false,
      "t": 30004.535208333393,
      "d": 78.75872916666776,
      "v": 88
    },
    {
      "midi": 76,
      "hit": false,
      "t": 30004.535208333393,
      "d": 99.08356249999997,
      "v": 85
    },
    {
      "midi": 76,
      "hit": false,
      "t": 30012.15702083333,
      "d": 520.8238541666651,
      "v": 72
    },
    {
      "midi": 80,
      "hit": false,
      "t": 30012.15702083333,
      "d": 553.8517083333318,
      "v": 78
    },
    {
      "midi": 68,
      "hit": false,
      "t": 30022.319437499988,
      "d": 528.4456666666665,
      "v": 76
    },
    {
      "midi": 47,
      "hit": false,
      "t": 30248.433208333343,
      "d": 370.9282083333346,
      "v": 68
    },
    {
      "midi": 35,
      "hit": false,
      "t": 30248.433208333343,
      "d": 370.9282083333346,
      "v": 68
    },
    {
      "midi": 71,
      "hit": false,
      "t": 30248.433208333394,
      "d": 78.75872916666776,
      "v": 89
    },
    {
      "midi": 68,
      "hit": false,
      "t": 30248.433208333394,
      "d": 94.00235416666692,
      "v": 86
    },
    {
      "midi": 76,
      "hit": false,
      "t": 30248.433208333394,
      "d": 99.08356249999997,
      "v": 87
    },
    {
      "midi": 68,
      "hit": false,
      "t": 30489.790604166727,
      "d": 297.2506874999999,
      "v": 86
    },
    {
      "midi": 64,
      "hit": false,
      "t": 30489.790604166727,
      "d": 317.5755208333321,
      "v": 89
    },
    {
      "midi": 71,
      "hit": false,
      "t": 30492.331208333395,
      "d": 317.5755208333321,
      "v": 90
    },
    {
      "midi": 76,
      "hit": false,
      "t": 30492.331208333395,
      "d": 317.5755208333321,
      "v": 85
    },
    {
      "midi": 80,
      "hit": false,
      "t": 30713.363770833326,
      "d": 203.248333333333,
      "v": 81
    },
    {
      "midi": 76,
      "hit": false,
      "t": 30728.607395833325,
      "d": 188.00470833333384,
      "v": 71
    },
    {
      "midi": 47,
      "hit": false,
      "t": 30736.229208333345,
      "d": 444.6057291666657,
      "v": 64
    },
    {
      "midi": 35,
      "hit": false,
      "t": 30736.229208333345,
      "d": 444.6057291666657,
      "v": 64
    },
    {
      "midi": 68,
      "hit": false,
      "t": 30738.769812499988,
      "d": 309.95370833333436,
      "v": 76
    },
    {
      "midi": 71,
      "hit": false,
      "t": 30977.58660416673,
      "d": 88.92114583333387,
      "v": 87
    },
    {
      "midi": 68,
      "hit": false,
      "t": 30980.127208333397,
      "d": 86.38054166666552,
      "v": 81
    },
    {
      "midi": 64,
      "hit": false,
      "t": 30980.127208333397,
      "d": 91.46174999999857,
      "v": 80
    },
    {
      "midi": 76,
      "hit": false,
      "t": 30980.127208333397,
      "d": 94.00235416666692,
      "v": 80
    },
    {
      "midi": 80,
      "hit": false,
      "t": 31224.025208333325,
      "d": 2766.717937499998,
      "v": 86
    },
    {
      "midi": 83,
      "hit": false,
      "t": 31224.025208333325,
      "d": 2807.367604166662,
      "v": 71
    },
    {
      "midi": 40,
      "hit": false,
      "t": 31224.025208333343,
      "d": 541.148687500001,
      "v": 78
    },
    {
      "midi": 28,
      "hit": false,
      "t": 31224.025208333343,
      "d": 541.148687500001,
      "v": 78
    },
    {
      "midi": 64,
      "hit": false,
      "t": 31226.565812500063,
      "d": 96.54295833333526,
      "v": 78
    },
    {
      "midi": 76,
      "hit": false,
      "t": 31226.565812500063,
      "d": 96.54295833333526,
      "v": 77
    },
    {
      "midi": 71,
      "hit": false,
      "t": 31229.106416666655,
      "d": 2243.353479166668,
      "v": 84
    },
    {
      "midi": 68,
      "hit": false,
      "t": 31229.10641666673,
      "d": 86.38054166666552,
      "v": 77
    },
    {
      "midi": 71,
      "hit": false,
      "t": 31229.10641666673,
      "d": 86.38054166666552,
      "v": 86
    },
    {
      "midi": 64,
      "hit": false,
      "t": 31465.38260416673,
      "d": 335.35975000000326,
      "v": 91
    },
    {
      "midi": 76,
      "hit": false,
      "t": 31465.38260416673,
      "d": 335.35975000000326,
      "v": 87
    },
    {
      "midi": 68,
      "hit": false,
      "t": 31467.9232083334,
      "d": 309.95370833333436,
      "v": 90
    },
    {
      "midi": 71,
      "hit": false,
      "t": 31467.9232083334,
      "d": 312.4943125000027,
      "v": 91
    },
    {
      "midi": 40,
      "hit": false,
      "t": 31953.17860416668,
      "d": 276.92585416666407,
      "v": 71
    },
    {
      "midi": 28,
      "hit": false,
      "t": 31953.17860416668,
      "d": 276.92585416666407,
      "v": 71
    },
    {
      "midi": 68,
      "hit": false,
      "t": 31955.7192083334,
      "d": 94.00235416666692,
      "v": 81
    },
    {
      "midi": 71,
      "hit": false,
      "t": 31955.7192083334,
      "d": 94.00235416666692,
      "v": 87
    },
    {
      "midi": 76,
      "hit": false,
      "t": 31955.7192083334,
      "d": 94.00235416666692,
      "v": 80
    },
    {
      "midi": 64,
      "hit": false,
      "t": 31955.7192083334,
      "d": 99.08356249999997,
      "v": 80
    },
    {
      "midi": 47,
      "hit": false,
      "t": 32199.617208333344,
      "d": 566.5547291666662,
      "v": 66
    },
    {
      "midi": 35,
      "hit": false,
      "t": 32199.617208333344,
      "d": 566.5547291666662,
      "v": 66
    },
    {
      "midi": 68,
      "hit": false,
      "t": 32199.617208333402,
      "d": 83.83993750000081,
      "v": 75
    },
    {
      "midi": 71,
      "hit": false,
      "t": 32199.617208333402,
      "d": 83.83993750000081,
      "v": 79
    },
    {
      "midi": 76,
      "hit": false,
      "t": 32202.15781250007,
      "d": 81.29933333333247,
      "v": 77
    },
    {
      "midi": 64,
      "hit": false,
      "t": 32202.15781250007,
      "d": 104.16477083333302,
      "v": 79
    },
    {
      "midi": 64,
      "hit": false,
      "t": 32440.97460416674,
      "d": 327.73793750000186,
      "v": 87
    },
    {
      "midi": 68,
      "hit": false,
      "t": 32443.515208333407,
      "d": 302.33189583333296,
      "v": 81
    },
    {
      "midi": 71,
      "hit": false,
      "t": 32443.515208333407,
      "d": 325.1973333333335,
      "v": 87
    },
    {
      "midi": 76,
      "hit": false,
      "t": 32443.515208333407,
      "d": 327.7379374999982,
      "v": 83
    },
    {
      "midi": 47,
      "hit": false,
      "t": 32928.770604166675,
      "d": 264.22283333333326,
      "v": 42
    },
    {
      "midi": 35,
      "hit": false,
      "t": 32928.770604166675,
      "d": 264.22283333333326,
      "v": 42
    },
    {
      "midi": 71,
      "hit": false,
      "t": 32928.77060416674,
      "d": 88.92114583333023,
      "v": 75
    },
    {
      "midi": 68,
      "hit": false,
      "t": 32931.311208333405,
      "d": 88.92114583333023,
      "v": 69
    },
    {
      "midi": 76,
      "hit": false,
      "t": 32931.311208333405,
      "d": 91.46174999999494,
      "v": 71
    },
    {
      "midi": 64,
      "hit": false,
      "t": 32931.311208333405,
      "d": 111.78658333332714,
      "v": 78
    },
    {
      "midi": 40,
      "hit": false,
      "t": 33175.20920833334,
      "d": 553.8517083333354,
      "v": 74
    },
    {
      "midi": 28,
      "hit": false,
      "t": 33175.20920833334,
      "d": 553.8517083333354,
      "v": 74
    },
    {
      "midi": 64,
      "hit": false,
      "t": 33175.2092083334,
      "d": 88.92114583333023,
      "v": 73
    },
    {
      "midi": 71,
      "hit": false,
      "t": 33175.2092083334,
      "d": 91.46174999999494,
      "v": 71
    },
    {
      "midi": 68,
      "hit": false,
      "t": 33177.749812500064,
      "d": 86.38054166666552,
      "v": 66
    },
    {
      "midi": 76,
      "hit": false,
      "t": 33177.749812500064,
      "d": 86.38054166666552,
      "v": 71
    },
    {
      "midi": 64,
      "hit": false,
      "t": 33416.56660416673,
      "d": 332.8191458333313,
      "v": 89
    },
    {
      "midi": 68,
      "hit": false,
      "t": 33419.10720833339,
      "d": 332.8191458333313,
      "v": 79
    },
    {
      "midi": 71,
      "hit": false,
      "t": 33419.10720833339,
      "d": 332.8191458333313,
      "v": 86
    },
    {
      "midi": 76,
      "hit": false,
      "t": 33419.10720833339,
      "d": 332.8191458333313,
      "v": 82
    },
    {
      "midi": 40,
      "hit": false,
      "t": 33904.36260416668,
      "d": 238.81679166666436,
      "v": 71
    },
    {
      "midi": 28,
      "hit": false,
      "t": 33904.36260416668,
      "d": 238.81679166666436,
      "v": 71
    },
    {
      "midi": 76,
      "hit": false,
      "t": 33906.90320833339,
      "d": 94.00235416666692,
      "v": 80
    },
    {
      "midi": 64,
      "hit": false,
      "t": 33906.90320833339,
      "d": 99.08356250000361,
      "v": 80
    },
    {
      "midi": 68,
      "hit": false,
      "t": 33906.90320833339,
      "d": 99.08356250000361,
      "v": 77
    },
    {
      "midi": 71,
      "hit": false,
      "t": 33906.90320833339,
      "d": 99.08356250000361,
      "v": 87
    },
    {
      "midi": 78,
      "hit": false,
      "t": 34138.098187499985,
      "d": 401.4154583333366,
      "v": 95
    },
    {
      "midi": 82,
      "hit": false,
      "t": 34138.098187499985,
      "d": 485.2553958333374,
      "v": 99
    },
    {
      "midi": 70,
      "hit": false,
      "t": 34138.098187500014,
      "d": 370.92820833333826,
      "v": 111
    },
    {
      "midi": 59,
      "hit": false,
      "t": 34143.17939583335,
      "d": 378.5500208333324,
      "v": 108
    },
    {
      "midi": 66,
      "hit": false,
      "t": 34143.17939583335,
      "d": 398.8748541666646,
      "v": 105
    },
    {
      "midi": 70,
      "hit": false,
      "t": 34150.80120833332,
      "d": 350.6033749999988,
      "v": 83
    },
    {
      "midi": 47,
      "hit": false,
      "t": 34150.801208333345,
      "d": 475.092979166664,
      "v": 76
    },
    {
      "midi": 35,
      "hit": false,
      "t": 34150.801208333345,
      "d": 475.092979166664,
      "v": 76
    },
    {
      "midi": 68,
      "hit": false,
      "t": 34153.34181250006,
      "d": 254.06041666666715,
      "v": 77
    },
    {
      "midi": 76,
      "hit": false,
      "t": 34153.34181250006,
      "d": 266.76343749999796,
      "v": 82
    },
    {
      "midi": 71,
      "hit": false,
      "t": 34153.34181250006,
      "d": 274.38524999999936,
      "v": 86
    },
    {
      "midi": 64,
      "hit": false,
      "t": 34153.34181250006,
      "d": 320.11612500000047,
      "v": 83
    },
    {
      "midi": 40,
      "hit": false,
      "t": 34638.59720833334,
      "d": 411.5778750000027,
      "v": 77
    },
    {
      "midi": 28,
      "hit": false,
      "t": 34638.59720833334,
      "d": 411.5778750000027,
      "v": 77
    },
    {
      "midi": 64,
      "hit": false,
      "t": 34638.5972083334,
      "d": 332.8191458333313,
      "v": 87
    },
    {
      "midi": 76,
      "hit": false,
      "t": 34638.5972083334,
      "d": 335.359749999996,
      "v": 85
    },
    {
      "midi": 68,
      "hit": false,
      "t": 34641.13781250006,
      "d": 279.46645833333605,
      "v": 85
    },
    {
      "midi": 71,
      "hit": false,
      "t": 34641.13781250006,
      "d": 279.46645833333605,
      "v": 90
    },
    {
      "midi": 64,
      "hit": false,
      "t": 34643.678416666684,
      "d": 284.54766666666546,
      "v": 100
    },
    {
      "midi": 59,
      "hit": false,
      "t": 34643.678416666684,
      "d": 302.33189583333296,
      "v": 100
    },
    {
      "midi": 68,
      "hit": false,
      "t": 34643.678416666684,
      "d": 317.57552083333576,
      "v": 99
    },
    {
      "midi": 68,
      "hit": false,
      "t": 34651.300229166656,
      "d": 299.79129166666826,
      "v": 76
    },
    {
      "midi": 80,
      "hit": false,
      "t": 34656.38143749999,
      "d": 381.0906249999971,
      "v": 82
    },
    {
      "midi": 76,
      "hit": false,
      "t": 34656.38143749999,
      "d": 401.4154583333293,
      "v": 76
    },
    {
      "midi": 66,
      "hit": false,
      "t": 35098.44656250002,
      "d": 1651.3927083333328,
      "v": 95
    },
    {
      "midi": 63,
      "hit": false,
      "t": 35116.23079166669,
      "d": 1648.8521041666681,
      "v": 99
    },
    {
      "midi": 59,
      "hit": false,
      "t": 35118.771395833355,
      "d": 1666.6363333333356,
      "v": 92
    },
    {
      "midi": 66,
      "hit": false,
      "t": 35126.39320833333,
      "d": 818.0745416666687,
      "v": 78
    },
    {
      "midi": 47,
      "hit": false,
      "t": 35126.39320833334,
      "d": 525.9050625000018,
      "v": 79
    },
    {
      "midi": 35,
      "hit": false,
      "t": 35126.39320833334,
      "d": 525.9050625000018,
      "v": 79
    },
    {
      "midi": 71,
      "hit": false,
      "t": 35126.39320833339,
      "d": 78.75872916666412,
      "v": 86
    },
    {
      "midi": 66,
      "hit": false,
      "t": 35128.93381250006,
      "d": 76.21812499999942,
      "v": 88
    },
    {
      "midi": 75,
      "hit": false,
      "t": 35128.93381250006,
      "d": 91.46175000000221,
      "v": 84
    },
    {
      "midi": 75,
      "hit": false,
      "t": 35134.01502083332,
      "d": 823.1557499999981,
      "v": 84
    },
    {
      "midi": 78,
      "hit": false,
      "t": 35134.01502083332,
      "d": 823.1557499999981,
      "v": 73
    },
    {
      "midi": 66,
      "hit": false,
      "t": 35370.291208333394,
      "d": 302.33189583333296,
      "v": 94
    },
    {
      "midi": 75,
      "hit": false,
      "t": 35370.291208333394,
      "d": 302.33189583333296,
      "v": 89
    },
    {
      "midi": 71,
      "hit": false,
      "t": 35370.291208333394,
      "d": 327.73793750000186,
      "v": 96
    },
    {
      "midi": 47,
      "hit": false,
      "t": 35855.54660416668,
      "d": 248.97920833333046,
      "v": 63
    },
    {
      "midi": 35,
      "hit": false,
      "t": 35855.54660416668,
      "d": 248.97920833333046,
      "v": 63
    },
    {
      "midi": 71,
      "hit": false,
      "t": 35858.087208333396,
      "d": 114.32718749999913,
      "v": 89
    },
    {
      "midi": 75,
      "hit": false,
      "t": 35858.087208333396,
      "d": 114.32718749999913,
      "v": 84
    },
    {
      "midi": 66,
      "hit": false,
      "t": 35858.087208333396,
      "d": 119.40839583333582,
      "v": 87
    },
    {
      "midi": 71,
      "hit": false,
      "t": 36079.11977083332,
      "d": 386.1718333333338,
      "v": 83
    },
    {
      "midi": 75,
      "hit": false,
      "t": 36079.11977083332,
      "d": 398.8748541666646,
      "v": 88
    },
    {
      "midi": 63,
      "hit": false,
      "t": 36094.36339583333,
      "d": 332.8191458333313,
      "v": 80
    },
    {
      "midi": 42,
      "hit": false,
      "t": 36101.985208333346,
      "d": 505.5802291666623,
      "v": 82
    },
    {
      "midi": 30,
      "hit": false,
      "t": 36101.985208333346,
      "d": 505.5802291666623,
      "v": 82
    },
    {
      "midi": 66,
      "hit": false,
      "t": 36343.34260416673,
      "d": 292.16947916666686,
      "v": 92
    },
    {
      "midi": 71,
      "hit": false,
      "t": 36343.34260416673,
      "d": 292.16947916666686,
      "v": 94
    },
    {
      "midi": 75,
      "hit": false,
      "t": 36345.8832083334,
      "d": 269.30404166666995,
      "v": 87
    },
    {
      "midi": 66,
      "hit": false,
      "t": 36577.078187499996,
      "d": 355.68458333333547,
      "v": 83
    },
    {
      "midi": 47,
      "hit": false,
      "t": 36589.78120833334,
      "d": 449.6869375000024,
      "v": 75
    },
    {
      "midi": 35,
      "hit": false,
      "t": 36589.78120833334,
      "d": 449.6869375000024,
      "v": 75
    },
    {
      "midi": 75,
      "hit": false,
      "t": 36599.943624999985,
      "d": 292.16947916666686,
      "v": 82
    },
    {
      "midi": 78,
      "hit": false,
      "t": 36607.56543749999,
      "d": 340.4409583333327,
      "v": 82
    },
    {
      "midi": 66,
      "hit": false,
      "t": 36831.138604166736,
      "d": 106.70537499999773,
      "v": 85
    },
    {
      "midi": 75,
      "hit": false,
      "t": 36831.138604166736,
      "d": 109.24597916666244,
      "v": 84
    },
    {
      "midi": 71,
      "hit": false,
      "t": 36833.6792083334,
      "d": 83.83993750000081,
      "v": 83
    },
    {
      "midi": 64,
      "hit": false,
      "t": 37064.87418750003,
      "d": 614.826208333332,
      "v": 101
    },
    {
      "midi": 56,
      "hit": false,
      "t": 37064.87418750003,
      "d": 635.1510416666642,
      "v": 105
    },
    {
      "midi": 42,
      "hit": false,
      "t": 37077.57720833334,
      "d": 500.4990208333329,
      "v": 83
    },
    {
      "midi": 30,
      "hit": false,
      "t": 37077.57720833334,
      "d": 500.4990208333329,
      "v": 83
    },
    {
      "midi": 70,
      "hit": false,
      "t": 37077.5772083334,
      "d": 78.75872916666412,
      "v": 82
    },
    {
      "midi": 64,
      "hit": false,
      "t": 37080.1178125,
      "d": 551.3111041666634,
      "v": 77
    },
    {
      "midi": 66,
      "hit": false,
      "t": 37080.117812500066,
      "d": 76.21812499999942,
      "v": 82
    },
    {
      "midi": 73,
      "hit": false,
      "t": 37080.117812500066,
      "d": 76.21812499999942,
      "v": 82
    },
    {
      "midi": 76,
      "hit": false,
      "t": 37082.65841666665,
      "d": 584.3389583333337,
      "v": 73
    },
    {
      "midi": 68,
      "hit": false,
      "t": 37085.199020833315,
      "d": 538.6080833333326,
      "v": 91
    },
    {
      "midi": 70,
      "hit": false,
      "t": 37318.93460416673,
      "d": 294.71008333333157,
      "v": 98
    },
    {
      "midi": 73,
      "hit": false,
      "t": 37321.475208333395,
      "d": 261.68222916666855,
      "v": 96
    },
    {
      "midi": 66,
      "hit": false,
      "t": 37321.475208333395,
      "d": 292.16947916666686,
      "v": 100
    },
    {
      "midi": 64,
      "hit": false,
      "t": 37796.5681875,
      "d": 147.35504166666942,
      "v": 79
    },
    {
      "midi": 68,
      "hit": false,
      "t": 37799.10879166665,
      "d": 154.97685416666354,
      "v": 86
    },
    {
      "midi": 76,
      "hit": false,
      "t": 37799.10879166665,
      "d": 154.97685416666354,
      "v": 82
    },
    {
      "midi": 42,
      "hit": false,
      "t": 37806.730604166674,
      "d": 246.43860416666575,
      "v": 83
    },
    {
      "midi": 30,
      "hit": false,
      "t": 37806.730604166674,
      "d": 246.43860416666575,
      "v": 83
    },
    {
      "midi": 73,
      "hit": false,
      "t": 37809.2712083334,
      "d": 86.38054166666552,
      "v": 89
    },
    {
      "midi": 66,
      "hit": false,
      "t": 37809.2712083334,
      "d": 91.46175000000221,
      "v": 95
    },
    {
      "midi": 70,
      "hit": false,
      "t": 37809.2712083334,
      "d": 91.46175000000221,
      "v": 96
    },
    {
      "midi": 78,
      "hit": false,
      "t": 37809.2712083334,
      "d": 106.705375000005,
      "v": 100
    },
    {
      "midi": 54,
      "hit": false,
      "t": 37821.97422916669,
      "d": 553.8517083333354,
      "v": 111
    },
    {
      "midi": 63,
      "hit": false,
      "t": 37821.97422916669,
      "d": 574.1765416666676,
      "v": 104
    },
    {
      "midi": 63,
      "hit": false,
      "t": 38053.16920833334,
      "d": 365.8470000000016,
      "v": 80
    },
    {
      "midi": 44,
      "hit": false,
      "t": 38053.16920833334,
      "d": 365.8470000000016,
      "v": 82
    },
    {
      "midi": 32,
      "hit": false,
      "t": 38053.16920833334,
      "d": 365.8470000000016,
      "v": 82
    },
    {
      "midi": 66,
      "hit": false,
      "t": 38060.79102083331,
      "d": 322.6567291666652,
      "v": 109
    },
    {
      "midi": 75,
      "hit": false,
      "t": 38060.79102083331,
      "d": 355.68458333333547,
      "v": 82
    },
    {
      "midi": 66,
      "hit": false,
      "t": 38294.526604166735,
      "d": 287.08827083333745,
      "v": 95
    },
    {
      "midi": 78,
      "hit": false,
      "t": 38294.526604166735,
      "d": 287.08827083333745,
      "v": 96
    },
    {
      "midi": 73,
      "hit": false,
      "t": 38297.0672083334,
      "d": 261.68222916666855,
      "v": 87
    },
    {
      "midi": 70,
      "hit": false,
      "t": 38297.0672083334,
      "d": 269.30404166666995,
      "v": 93
    },
    {
      "midi": 52,
      "hit": false,
      "t": 38513.01856250002,
      "d": 274.38525000000664,
      "v": 101
    },
    {
      "midi": 61,
      "hit": false,
      "t": 38518.09977083336,
      "d": 345.52216666666936,
      "v": 103
    },
    {
      "midi": 64,
      "hit": false,
      "t": 38533.34339583331,
      "d": 289.62887500000215,
      "v": 87
    },
    {
      "midi": 73,
      "hit": false,
      "t": 38533.34339583331,
      "d": 365.8470000000016,
      "v": 86
    },
    {
      "midi": 46,
      "hit": false,
      "t": 38540.96520833334,
      "d": 353.1439791666635,
      "v": 88
    },
    {
      "midi": 34,
      "hit": false,
      "t": 38540.96520833334,
      "d": 353.1439791666635,
      "v": 88
    },
    {
      "midi": 61,
      "hit": false,
      "t": 38561.290041666674,
      "d": 274.38524999999936,
      "v": 91
    },
    {
      "midi": 70,
      "hit": false,
      "t": 38782.32260416674,
      "d": 81.29933333332883,
      "v": 89
    },
    {
      "midi": 66,
      "hit": false,
      "t": 38782.32260416674,
      "d": 109.24597916666244,
      "v": 89
    },
    {
      "midi": 73,
      "hit": false,
      "t": 38784.8632083334,
      "d": 40.649666666664416,
      "v": 83
    },
    {
      "midi": 78,
      "hit": false,
      "t": 38784.8632083334,
      "d": 81.29933333332883,
      "v": 94
    },
    {
      "midi": 71,
      "hit": false,
      "t": 39016.05818749998,
      "d": 1659.0145208333342,
      "v": 73
    },
    {
      "midi": 51,
      "hit": false,
      "t": 39021.139395833365,
      "d": 3533.9803958333287,
      "v": 103
    },
    {
      "midi": 47,
      "hit": false,
      "t": 39028.76120833334,
      "d": 640.2322500000009,
      "v": 85
    },
    {
      "midi": 35,
      "hit": false,
      "t": 39028.76120833334,
      "d": 640.2322500000009,
      "v": 85
    },
    {
      "midi": 66,
      "hit": false,
      "t": 39028.7612083334,
      "d": 66.05570833333331,
      "v": 81
    },
    {
      "midi": 71,
      "hit": false,
      "t": 39028.7612083334,
      "d": 99.08356249999633,
      "v": 80
    },
    {
      "midi": 75,
      "hit": false,
      "t": 39031.30181250007,
      "d": 66.05570833333331,
      "v": 77
    },
    {
      "midi": 63,
      "hit": false,
      "t": 39036.38302083331,
      "d": 1623.4460624999992,
      "v": 81
    },
    {
      "midi": 59,
      "hit": false,
      "t": 39041.4642291667,
      "d": 3480.6277083333334,
      "v": 91
    },
    {
      "midi": 59,
      "hit": false,
      "t": 39056.70785416667,
      "d": 1453.225583333333,
      "v": 61
    },
    {
      "midi": 54,
      "hit": false,
      "t": 39069.41087500003,
      "d": 3473.005895833332,
      "v": 100
    },
    {
      "midi": 66,
      "hit": false,
      "t": 39270.11860416673,
      "d": 292.1694791666596,
      "v": 98
    },
    {
      "midi": 75,
      "hit": false,
      "t": 39270.11860416673,
      "d": 294.7100833333243,
      "v": 93
    },
    {
      "midi": 71,
      "hit": false,
      "t": 39272.659208333396,
      "d": 287.08827083333017,
      "v": 99
    },
    {
      "midi": 47,
      "hit": false,
      "t": 39757.91460416667,
      "d": 243.89800000000105,
      "v": 71
    },
    {
      "midi": 35,
      "hit": false,
      "t": 39757.91460416667,
      "d": 243.89800000000105,
      "v": 71
    },
    {
      "midi": 71,
      "hit": false,
      "t": 39760.45520833339,
      "d": 66.05570833333331,
      "v": 88
    },
    {
      "midi": 75,
      "hit": false,
      "t": 39760.45520833339,
      "d": 68.59631249999802,
      "v": 82
    },
    {
      "midi": 66,
      "hit": false,
      "t": 39760.45520833339,
      "d": 86.38054166666552,
      "v": 88
    },
    {
      "midi": 42,
      "hit": false,
      "t": 40004.353208333334,
      "d": 525.9050625000018,
      "v": 76
    },
    {
      "midi": 30,
      "hit": false,
      "t": 40004.353208333334,
      "d": 525.9050625000018,
      "v": 76
    },
    {
      "midi": 66,
      "hit": false,
      "t": 40004.35320833339,
      "d": 86.38054166665825,
      "v": 85
    },
    {
      "midi": 75,
      "hit": false,
      "t": 40006.89381250006,
      "d": 60.974499999996624,
      "v": 82
    },
    {
      "midi": 71,
      "hit": false,
      "t": 40006.89381250006,
      "d": 71.13691666666273,
      "v": 87
    },
    {
      "midi": 66,
      "hit": false,
      "t": 40245.710604166714,
      "d": 269.30404166666995,
      "v": 98
    },
    {
      "midi": 71,
      "hit": false,
      "t": 40248.25120833338,
      "d": 261.68222916666855,
      "v": 97
    },
    {
      "midi": 75,
      "hit": false,
      "t": 40248.25120833338,
      "d": 261.68222916666855,
      "v": 94
    },
    {
      "midi": 42,
      "hit": false,
      "t": 40733.50660416667,
      "d": 205.78893750000134,
      "v": 71
    },
    {
      "midi": 30,
      "hit": false,
      "t": 40733.50660416667,
      "d": 205.78893750000134,
      "v": 71
    },
    {
      "midi": 66,
      "hit": false,
      "t": 40736.04720833338,
      "d": 86.38054166666552,
      "v": 94
    },
    {
      "midi": 71,
      "hit": false,
      "t": 40736.04720833338,
      "d": 88.92114583333023,
      "v": 88
    },
    {
      "midi": 75,
      "hit": false,
      "t": 40736.04720833338,
      "d": 88.92114583333023,
      "v": 88
    },
    {
      "midi": 47,
      "hit": false,
      "t": 40979.94520833334,
      "d": 533.5268750000032,
      "v": 77
    },
    {
      "midi": 35,
      "hit": false,
      "t": 40979.94520833334,
      "d": 533.5268750000032,
      "v": 77
    },
    {
      "midi": 66,
      "hit": false,
      "t": 41221.30260416671,
      "d": 304.8724999999977,
      "v": 100
    },
    {
      "midi": 71,
      "hit": false,
      "t": 41223.843208333376,
      "d": 317.57552083333576,
      "v": 91
    },
    {
      "midi": 75,
      "hit": false,
      "t": 41223.843208333376,
      "d": 317.57552083333576,
      "v": 93
    },
    {
      "midi": 47,
      "hit": false,
      "t": 41709.09860416668,
      "d": 208.32954166666605,
      "v": 68
    },
    {
      "midi": 35,
      "hit": false,
      "t": 41709.09860416668,
      "d": 208.32954166666605,
      "v": 68
    },
    {
      "midi": 66,
      "hit": false,
      "t": 41711.63920833338,
      "d": 83.83993750000081,
      "v": 89
    },
    {
      "midi": 75,
      "hit": false,
      "t": 41711.63920833338,
      "d": 83.83993750000081,
      "v": 82
    },
    {
      "midi": 71,
      "hit": false,
      "t": 41711.63920833338,
      "d": 86.38054166666552,
      "v": 89
    },
    {
      "midi": 42,
      "hit": false,
      "t": 41955.53720833334,
      "d": 276.92585416666407,
      "v": 78
    },
    {
      "midi": 30,
      "hit": false,
      "t": 41955.53720833334,
      "d": 276.92585416666407,
      "v": 78
    },
    {
      "midi": 66,
      "hit": false,
      "t": 41955.53720833338,
      "d": 71.13691666666273,
      "v": 82
    },
    {
      "midi": 71,
      "hit": false,
      "t": 41955.53720833338,
      "d": 71.13691666666273,
      "v": 87
    },
    {
      "midi": 75,
      "hit": false,
      "t": 41958.07781250004,
      "d": 68.59631249999802,
      "v": 83
    },
    {
      "midi": 75,
      "hit": false,
      "t": 42196.89460416671,
      "d": 279.4664583333288,
      "v": 92
    },
    {
      "midi": 66,
      "hit": false,
      "t": 42196.89460416671,
      "d": 284.54766666666546,
      "v": 98
    },
    {
      "midi": 71,
      "hit": false,
      "t": 42199.43520833337,
      "d": 276.92585416666407,
      "v": 96
    },
    {
      "midi": 42,
      "hit": false,
      "t": 42443.33320833334,
      "d": 246.43860416666575,
      "v": 77
    },
    {
      "midi": 30,
      "hit": false,
      "t": 42443.33320833334,
      "d": 246.43860416666575,
      "v": 77
    },
    {
      "midi": 66,
      "hit": false,
      "t": 42684.69060416671,
      "d": 88.92114583333023,
      "v": 93
    },
    {
      "midi": 75,
      "hit": false,
      "t": 42687.231208333375,
      "d": 73.67752083333471,
      "v": 90
    },
    {
      "midi": 71,
      "hit": false,
      "t": 42687.231208333375,
      "d": 88.92114583333023,
      "v": 94
    },
    {
      "midi": 50,
      "hit": false,
      "t": 42913.34497916669,
      "d": 2746.3931041666656,
      "v": 86
    },
    {
      "midi": 59,
      "hit": false,
      "t": 42913.34497916669,
      "d": 2748.9337083333303,
      "v": 94
    },
    {
      "midi": 54,
      "hit": false,
      "t": 42913.34497916669,
      "d": 2766.717937499998,
      "v": 86
    },
    {
      "midi": 47,
      "hit": false,
      "t": 42931.12920833334,
      "d": 2614.281687499999,
      "v": 75
    },
    {
      "midi": 35,
      "hit": false,
      "t": 42931.12920833334,
      "d": 2614.281687499999,
      "v": 75
    },
    {
      "midi": 71,
      "hit": false,
      "t": 42933.6698125,
      "d": 2888.6669374999983,
      "v": 127
    },
    {
      "midi": 74,
      "hit": false,
      "t": 43175.02720833337,
      "d": 309.95370833333436,
      "v": 88
    },
    {
      "midi": 66,
      "hit": false,
      "t": 43175.02720833337,
      "d": 312.49431249999907,
      "v": 96
    },
    {
      "midi": 71,
      "hit": false,
      "t": 43175.02720833337,
      "d": 312.49431249999907,
      "v": 92
    },
    {
      "midi": 74,
      "hit": false,
      "t": 43660.2826041667,
      "d": 106.70537499999773,
      "v": 72
    },
    {
      "midi": 71,
      "hit": false,
      "t": 43662.823208333364,
      "d": 104.16477083333302,
      "v": 72
    },
    {
      "midi": 66,
      "hit": false,
      "t": 43662.823208333364,
      "d": 106.70537499999773,
      "v": 78
    },
    {
      "midi": 66,
      "hit": false,
      "t": 43906.721208333365,
      "d": 88.92114583333023,
      "v": 70
    },
    {
      "midi": 71,
      "hit": false,
      "t": 43906.721208333365,
      "d": 88.92114583333023,
      "v": 69
    },
    {
      "midi": 74,
      "hit": false,
      "t": 43906.721208333365,
      "d": 88.92114583333023,
      "v": 68
    },
    {
      "midi": 74,
      "hit": false,
      "t": 44148.078604166694,
      "d": 292.16947916666686,
      "v": 81
    },
    {
      "midi": 66,
      "hit": false,
      "t": 44148.078604166694,
      "d": 312.49431249999907,
      "v": 82
    },
    {
      "midi": 71,
      "hit": false,
      "t": 44150.61920833336,
      "d": 292.16947916666686,
      "v": 79
    },
    {
      "midi": 66,
      "hit": false,
      "t": 44635.8746041667,
      "d": 101.62416666666832,
      "v": 66
    },
    {
      "midi": 71,
      "hit": false,
      "t": 44635.8746041667,
      "d": 106.705375000005,
      "v": 65
    },
    {
      "midi": 74,
      "hit": false,
      "t": 44638.41520833336,
      "d": 73.67752083333471,
      "v": 69
    },
    {
      "midi": 66,
      "hit": false,
      "t": 44882.31320833337,
      "d": 88.92114583333023,
      "v": 70
    },
    {
      "midi": 71,
      "hit": false,
      "t": 44882.31320833337,
      "d": 88.92114583333023,
      "v": 65
    },
    {
      "midi": 74,
      "hit": false,
      "t": 44882.31320833337,
      "d": 94.00235416666692,
      "v": 70
    },
    {
      "midi": 66,
      "hit": false,
      "t": 45123.670604166706,
      "d": 297.2506874999963,
      "v": 77
    },
    {
      "midi": 74,
      "hit": false,
      "t": 45126.21120833337,
      "d": 294.71008333333157,
      "v": 78
    },
    {
      "midi": 71,
      "hit": false,
      "t": 45126.21120833337,
      "d": 302.33189583333296,
      "v": 75
    },
    {
      "midi": 74,
      "hit": false,
      "t": 45611.4666041667,
      "d": 60.974499999996624,
      "v": 70
    },
    {
      "midi": 66,
      "hit": false,
      "t": 45614.007208333365,
      "d": 86.38054166666552,
      "v": 73
    },
    {
      "midi": 71,
      "hit": false,
      "t": 45614.007208333365,
      "d": 106.70537499999773,
      "v": 65
    },
    {
      "midi": 67,
      "hit": false,
      "t": 45804.552520833335,
      "d": 660.5570833333331,
      "v": 76
    },
    {
      "midi": 71,
      "hit": false,
      "t": 45845.2021875,
      "d": 668.1788958333345,
      "v": 75
    },
    {
      "midi": 52,
      "hit": false,
      "t": 45845.20218750003,
      "d": 764.7218541666662,
      "v": 95
    },
    {
      "midi": 59,
      "hit": false,
      "t": 45845.20218750003,
      "d": 764.7218541666662,
      "v": 101
    },
    {
      "midi": 55,
      "hit": false,
      "t": 45845.20218750003,
      "d": 785.0466874999984,
      "v": 110
    },
    {
      "midi": 64,
      "hit": false,
      "t": 45847.742791666664,
      "d": 734.2346041666751,
      "v": 56
    },
    {
      "midi": 40,
      "hit": false,
      "t": 45857.90520833334,
      "d": 810.4527291666673,
      "v": 87
    },
    {
      "midi": 28,
      "hit": false,
      "t": 45857.90520833334,
      "d": 810.4527291666673,
      "v": 87
    },
    {
      "midi": 67,
      "hit": false,
      "t": 45857.905208333366,
      "d": 289.62887500000215,
      "v": 104
    },
    {
      "midi": 76,
      "hit": false,
      "t": 45857.905208333366,
      "d": 312.49431249999907,
      "v": 88
    },
    {
      "midi": 71,
      "hit": false,
      "t": 45857.905208333366,
      "d": 317.57552083333576,
      "v": 87
    },
    {
      "midi": 76,
      "hit": false,
      "t": 45860.445812499995,
      "d": 871.4272291666639,
      "v": 120
    },
    {
      "midi": 76,
      "hit": false,
      "t": 45880.770645833334,
      "d": 665.6382916666698,
      "v": 78
    },
    {
      "midi": 67,
      "hit": false,
      "t": 46345.70120833337,
      "d": 309.95370833333436,
      "v": 99
    },
    {
      "midi": 76,
      "hit": false,
      "t": 46345.70120833337,
      "d": 370.928208333331,
      "v": 90
    },
    {
      "midi": 71,
      "hit": false,
      "t": 46345.70120833337,
      "d": 386.1718333333338,
      "v": 92
    },
    {
      "midi": 66,
      "hit": false,
      "t": 46719.17002083334,
      "d": 3061.4280208333366,
      "v": 71
    },
    {
      "midi": 62,
      "hit": false,
      "t": 46739.494854166674,
      "d": 3315.488437500011,
      "v": 60
    },
    {
      "midi": 50,
      "hit": false,
      "t": 46780.14452083336,
      "d": 9616.18677083333,
      "v": 87
    },
    {
      "midi": 59,
      "hit": false,
      "t": 46780.14452083336,
      "d": 9616.18677083333,
      "v": 86
    },
    {
      "midi": 54,
      "hit": false,
      "t": 46780.14452083336,
      "d": 9636.511604166662,
      "v": 86
    },
    {
      "midi": 71,
      "hit": false,
      "t": 46782.68512500001,
      "d": 3023.318958333337,
      "v": 65
    },
    {
      "midi": 74,
      "hit": false,
      "t": 46815.71297916668,
      "d": 3185.917625000002,
      "v": 67
    },
    {
      "midi": 47,
      "hit": false,
      "t": 46833.49720833334,
      "d": 3020.778354166665,
      "v": 89
    },
    {
      "midi": 35,
      "hit": false,
      "t": 46833.49720833334,
      "d": 3020.778354166665,
      "v": 89
    },
    {
      "midi": 74,
      "hit": false,
      "t": 46833.49720833337,
      "d": 114.32718749999913,
      "v": 81
    },
    {
      "midi": 66,
      "hit": false,
      "t": 46836.037812500035,
      "d": 91.46175000000221,
      "v": 85
    },
    {
      "midi": 71,
      "hit": false,
      "t": 46836.037812500035,
      "d": 91.46175000000221,
      "v": 83
    },
    {
      "midi": 78,
      "hit": false,
      "t": 46838.578416666656,
      "d": 121.94900000000052,
      "v": 127
    },
    {
      "midi": 76,
      "hit": false,
      "t": 46952.905604166655,
      "d": 147.35504166666215,
      "v": 116
    },
    {
      "midi": 74,
      "hit": false,
      "t": 47074.8546041667,
      "d": 320.11612500000047,
      "v": 76
    },
    {
      "midi": 78,
      "hit": false,
      "t": 47077.39520833332,
      "d": 3516.196166666661,
      "v": 127
    },
    {
      "midi": 66,
      "hit": false,
      "t": 47077.395208333364,
      "d": 302.33189583333296,
      "v": 79
    },
    {
      "midi": 71,
      "hit": false,
      "t": 47077.395208333364,
      "d": 317.57552083333576,
      "v": 75
    },
    {
      "midi": 66,
      "hit": false,
      "t": 47562.6506041667,
      "d": 76.21812499999942,
      "v": 65
    },
    {
      "midi": 71,
      "hit": false,
      "t": 47565.19120833337,
      "d": 73.67752083333471,
      "v": 67
    },
    {
      "midi": 74,
      "hit": false,
      "t": 47565.19120833337,
      "d": 76.21812499999942,
      "v": 69
    },
    {
      "midi": 66,
      "hit": false,
      "t": 48052.98720833337,
      "d": 282.00706250000076,
      "v": 75
    },
    {
      "midi": 74,
      "hit": false,
      "t": 48052.98720833337,
      "d": 282.00706250000076,
      "v": 73
    },
    {
      "midi": 71,
      "hit": false,
      "t": 48052.98720833337,
      "d": 302.33189583333296,
      "v": 70
    },
    {
      "midi": 71,
      "hit": false,
      "t": 48538.2426041667,
      "d": 88.92114583333023,
      "v": 61
    },
    {
      "midi": 66,
      "hit": false,
      "t": 48538.2426041667,
      "d": 91.46174999999494,
      "v": 64
    },
    {
      "midi": 74,
      "hit": false,
      "t": 48540.78320833336,
      "d": 88.92114583333023,
      "v": 68
    },
    {
      "midi": 71,
      "hit": false,
      "t": 48784.68120833336,
      "d": 81.29933333333611,
      "v": 67
    },
    {
      "midi": 66,
      "hit": false,
      "t": 48784.68120833336,
      "d": 86.3805416666728,
      "v": 67
    },
    {
      "midi": 74,
      "hit": false,
      "t": 48784.68120833336,
      "d": 88.9211458333375,
      "v": 70
    },
    {
      "midi": 66,
      "hit": false,
      "t": 49026.03860416669,
      "d": 355.6845833333282,
      "v": 72
    },
    {
      "midi": 71,
      "hit": false,
      "t": 49026.03860416669,
      "d": 355.6845833333282,
      "v": 74
    },
    {
      "midi": 74,
      "hit": false,
      "t": 49028.57920833336,
      "d": 353.1439791666635,
      "v": 77
    },
    {
      "midi": 71,
      "hit": false,
      "t": 49513.83460416669,
      "d": 182.92349999999715,
      "v": 66
    },
    {
      "midi": 74,
      "hit": false,
      "t": 49516.37520833335,
      "d": 180.38289583333244,
      "v": 68
    },
    {
      "midi": 66,
      "hit": false,
      "t": 49516.37520833335,
      "d": 200.70772916666465,
      "v": 73
    },
    {
      "midi": 66,
      "hit": false,
      "t": 49976.224562500014,
      "d": 528.4456666666738,
      "v": 83
    },
    {
      "midi": 54,
      "hit": false,
      "t": 50004.17120833334,
      "d": 246.43860416666575,
      "v": 72
    },
    {
      "midi": 42,
      "hit": false,
      "t": 50004.17120833334,
      "d": 246.43860416666575,
      "v": 72
    },
    {
      "midi": 71,
      "hit": false,
      "t": 50004.17120833335,
      "d": 104.16477083333302,
      "v": 75
    },
    {
      "midi": 66,
      "hit": false,
      "t": 50004.17120833335,
      "d": 119.40839583333582,
      "v": 75
    },
    {
      "midi": 74,
      "hit": false,
      "t": 50004.17120833335,
      "d": 160.05806250000023,
      "v": 71
    },
    {
      "midi": 71,
      "hit": false,
      "t": 50204.87893750002,
      "d": 320.11612500000047,
      "v": 64
    },
    {
      "midi": 73,
      "hit": false,
      "t": 50458.93935416669,
      "d": 243.89800000000105,
      "v": 64
    },
    {
      "midi": 42,
      "hit": false,
      "t": 50489.42660416667,
      "d": 243.89800000000105,
      "v": 67
    },
    {
      "midi": 30,
      "hit": false,
      "t": 50489.42660416667,
      "d": 243.89800000000105,
      "v": 67
    },
    {
      "midi": 54,
      "hit": false,
      "t": 50504.67022916667,
      "d": 215.95135416666744,
      "v": 71
    },
    {
      "midi": 66,
      "hit": false,
      "t": 50712.999770833354,
      "d": 1173.7591250000041,
      "v": 63
    },
    {
      "midi": 74,
      "hit": false,
      "t": 50712.999770833354,
      "d": 1280.4645000000019,
      "v": 63
    },
    {
      "midi": 47,
      "hit": false,
      "t": 50735.865208333336,
      "d": 515.7426458333357,
      "v": 60
    },
    {
      "midi": 35,
      "hit": false,
      "t": 50735.865208333336,
      "d": 515.7426458333357,
      "v": 60
    },
    {
      "midi": 66,
      "hit": false,
      "t": 50738.405812500016,
      "d": 109.24597916666971,
      "v": 84
    },
    {
      "midi": 71,
      "hit": false,
      "t": 50738.405812500016,
      "d": 109.24597916666971,
      "v": 81
    },
    {
      "midi": 74,
      "hit": false,
      "t": 50738.405812500016,
      "d": 109.24597916666971,
      "v": 79
    },
    {
      "midi": 62,
      "hit": false,
      "t": 50738.405812500016,
      "d": 116.86779166667111,
      "v": 87
    },
    {
      "midi": 62,
      "hit": false,
      "t": 50746.027625000024,
      "d": 1158.5155000000013,
      "v": 60
    },
    {
      "midi": 59,
      "hit": false,
      "t": 50763.81185416668,
      "d": 289.62887500000215,
      "v": 38
    },
    {
      "midi": 74,
      "hit": false,
      "t": 50977.22260416669,
      "d": 287.08827083333017,
      "v": 83
    },
    {
      "midi": 62,
      "hit": false,
      "t": 50977.22260416669,
      "d": 309.9537083333271,
      "v": 88
    },
    {
      "midi": 66,
      "hit": false,
      "t": 50979.76320833335,
      "d": 282.00706250000076,
      "v": 87
    },
    {
      "midi": 71,
      "hit": false,
      "t": 50979.76320833335,
      "d": 284.54766666666546,
      "v": 85
    },
    {
      "midi": 59,
      "hit": false,
      "t": 51223.661208333346,
      "d": 248.97920833333046,
      "v": 58
    },
    {
      "midi": 47,
      "hit": false,
      "t": 51465.018604166675,
      "d": 86.38054166666552,
      "v": 61
    },
    {
      "midi": 35,
      "hit": false,
      "t": 51465.018604166675,
      "d": 86.38054166666552,
      "v": 61
    },
    {
      "midi": 66,
      "hit": false,
      "t": 51467.55920833335,
      "d": 335.35975000000326,
      "v": 73
    },
    {
      "midi": 71,
      "hit": false,
      "t": 51467.55920833335,
      "d": 350.60337500000605,
      "v": 68
    },
    {
      "midi": 74,
      "hit": false,
      "t": 51467.55920833335,
      "d": 353.14397916667076,
      "v": 76
    },
    {
      "midi": 62,
      "hit": false,
      "t": 51467.55920833335,
      "d": 370.92820833333826,
      "v": 83
    },
    {
      "midi": 61,
      "hit": false,
      "t": 51475.18102083334,
      "d": 208.32954166666605,
      "v": 91
    },
    {
      "midi": 47,
      "hit": false,
      "t": 51711.45720833334,
      "d": 525.9050625000018,
      "v": 70
    },
    {
      "midi": 35,
      "hit": false,
      "t": 51711.45720833334,
      "d": 525.9050625000018,
      "v": 70
    },
    {
      "midi": 62,
      "hit": false,
      "t": 51713.997812500005,
      "d": 444.6057291666657,
      "v": 74
    },
    {
      "midi": 62,
      "hit": false,
      "t": 51952.814604166684,
      "d": 259.14162500000384,
      "v": 74
    },
    {
      "midi": 71,
      "hit": false,
      "t": 51955.35520833335,
      "d": 175.30168750000303,
      "v": 71
    },
    {
      "midi": 74,
      "hit": false,
      "t": 51955.35520833335,
      "d": 185.46410416666913,
      "v": 77
    },
    {
      "midi": 66,
      "hit": false,
      "t": 51955.35520833335,
      "d": 190.54531250000582,
      "v": 77
    },
    {
      "midi": 64,
      "hit": false,
      "t": 52199.253208333335,
      "d": 322.6567291666652,
      "v": 74
    },
    {
      "midi": 42,
      "hit": false,
      "t": 52440.61060416668,
      "d": 198.16712499999994,
      "v": 60
    },
    {
      "midi": 30,
      "hit": false,
      "t": 52440.61060416668,
      "d": 198.16712499999994,
      "v": 60
    },
    {
      "midi": 74,
      "hit": false,
      "t": 52443.15120833336,
      "d": 78.75872916666412,
      "v": 78
    },
    {
      "midi": 66,
      "hit": false,
      "t": 52443.15120833336,
      "d": 83.83993750000081,
      "v": 76
    },
    {
      "midi": 71,
      "hit": false,
      "t": 52443.15120833336,
      "d": 83.83993750000081,
      "v": 74
    },
    {
      "midi": 62,
      "hit": false,
      "t": 52443.15120833336,
      "d": 121.94900000000052,
      "v": 79
    },
    {
      "midi": 47,
      "hit": false,
      "t": 52687.049208333345,
      "d": 525.9050625000018,
      "v": 74
    },
    {
      "midi": 35,
      "hit": false,
      "t": 52687.049208333345,
      "d": 525.9050625000018,
      "v": 74
    },
    {
      "midi": 62,
      "hit": false,
      "t": 52687.04920833336,
      "d": 94.00235416666692,
      "v": 74
    },
    {
      "midi": 74,
      "hit": false,
      "t": 52689.589812500024,
      "d": 83.83993750000081,
      "v": 70
    },
    {
      "midi": 66,
      "hit": false,
      "t": 52689.589812500024,
      "d": 86.38054166666552,
      "v": 72
    },
    {
      "midi": 71,
      "hit": false,
      "t": 52689.589812500024,
      "d": 86.38054166666552,
      "v": 69
    },
    {
      "midi": 66,
      "hit": false,
      "t": 52707.37404166667,
      "d": 342.9815624999974,
      "v": 83
    },
    {
      "midi": 62,
      "hit": false,
      "t": 52928.406604166696,
      "d": 317.5755208333212,
      "v": 83
    },
    {
      "midi": 66,
      "hit": false,
      "t": 52930.94720833336,
      "d": 276.92585416666407,
      "v": 77
    },
    {
      "midi": 74,
      "hit": false,
      "t": 52930.94720833336,
      "d": 289.6288749999949,
      "v": 76
    },
    {
      "midi": 71,
      "hit": false,
      "t": 52930.94720833336,
      "d": 292.1694791666596,
      "v": 75
    },
    {
      "midi": 64,
      "hit": false,
      "t": 53197.71064583334,
      "d": 132.11141666666663,
      "v": 68
    },
    {
      "midi": 47,
      "hit": false,
      "t": 53418.74320833335,
      "d": 81.29933333333611,
      "v": 61
    },
    {
      "midi": 62,
      "hit": false,
      "t": 53418.74320833335,
      "d": 335.359749999996,
      "v": 76
    },
    {
      "midi": 71,
      "hit": false,
      "t": 53418.74320833335,
      "d": 335.359749999996,
      "v": 77
    },
    {
      "midi": 74,
      "hit": false,
      "t": 53418.74320833335,
      "d": 335.359749999996,
      "v": 78
    },
    {
      "midi": 35,
      "hit": false,
      "t": 53418.74320833335,
      "d": 81.29933333333611,
      "v": 61
    },
    {
      "midi": 66,
      "hit": false,
      "t": 53421.28381250001,
      "d": 315.0349166666638,
      "v": 81
    },
    {
      "midi": 66,
      "hit": false,
      "t": 53436.5274375,
      "d": 1313.4923541666649,
      "v": 67
    },
    {
      "midi": 47,
      "hit": false,
      "t": 53662.64120833335,
      "d": 518.2832500000004,
      "v": 74
    },
    {
      "midi": 35,
      "hit": false,
      "t": 53662.64120833335,
      "d": 518.2832500000004,
      "v": 74
    },
    {
      "midi": 66,
      "hit": false,
      "t": 53903.99860416668,
      "d": 304.8724999999977,
      "v": 74
    },
    {
      "midi": 62,
      "hit": false,
      "t": 53903.99860416668,
      "d": 330.27854166666657,
      "v": 77
    },
    {
      "midi": 74,
      "hit": false,
      "t": 53906.53920833334,
      "d": 287.08827083333017,
      "v": 73
    },
    {
      "midi": 71,
      "hit": false,
      "t": 53906.53920833334,
      "d": 322.6567291666652,
      "v": 71
    },
    {
      "midi": 42,
      "hit": false,
      "t": 54391.79460416668,
      "d": 243.89800000000105,
      "v": 56
    },
    {
      "midi": 71,
      "hit": false,
      "t": 54391.79460416668,
      "d": 88.92114583333023,
      "v": 71
    },
    {
      "midi": 30,
      "hit": false,
      "t": 54391.79460416668,
      "d": 243.89800000000105,
      "v": 56
    },
    {
      "midi": 62,
      "hit": false,
      "t": 54394.335208333345,
      "d": 91.46175000000221,
      "v": 76
    },
    {
      "midi": 66,
      "hit": false,
      "t": 54394.335208333345,
      "d": 91.46175000000221,
      "v": 72
    },
    {
      "midi": 74,
      "hit": false,
      "t": 54394.335208333345,
      "d": 94.00235416666692,
      "v": 72
    },
    {
      "midi": 47,
      "hit": false,
      "t": 54638.233208333346,
      "d": 490.3366041666668,
      "v": 76
    },
    {
      "midi": 62,
      "hit": false,
      "t": 54638.233208333346,
      "d": 91.46175000000221,
      "v": 77
    },
    {
      "midi": 35,
      "hit": false,
      "t": 54638.233208333346,
      "d": 490.3366041666668,
      "v": 76
    },
    {
      "midi": 74,
      "hit": false,
      "t": 54640.77381250001,
      "d": 81.29933333333611,
      "v": 71
    },
    {
      "midi": 66,
      "hit": false,
      "t": 54640.77381250001,
      "d": 83.83993750000081,
      "v": 70
    },
    {
      "midi": 71,
      "hit": false,
      "t": 54640.77381250001,
      "d": 83.83993750000081,
      "v": 69
    },
    {
      "midi": 62,
      "hit": false,
      "t": 54879.59060416668,
      "d": 325.1973333333299,
      "v": 84
    },
    {
      "midi": 74,
      "hit": false,
      "t": 54879.59060416668,
      "d": 325.1973333333299,
      "v": 84
    },
    {
      "midi": 66,
      "hit": false,
      "t": 54882.13120833335,
      "d": 322.6567291666652,
      "v": 80
    },
    {
      "midi": 71,
      "hit": false,
      "t": 54882.13120833335,
      "d": 322.6567291666652,
      "v": 80
    },
    {
      "midi": 47,
      "hit": false,
      "t": 55367.38660416668,
      "d": 154.97685416666354,
      "v": 65
    },
    {
      "midi": 35,
      "hit": false,
      "t": 55367.38660416668,
      "d": 154.97685416666354,
      "v": 65
    },
    {
      "midi": 66,
      "hit": false,
      "t": 55369.92720833335,
      "d": 88.92114583333023,
      "v": 75
    },
    {
      "midi": 71,
      "hit": false,
      "t": 55369.92720833335,
      "d": 88.92114583333023,
      "v": 74
    },
    {
      "midi": 74,
      "hit": false,
      "t": 55369.92720833335,
      "d": 91.46174999999494,
      "v": 73
    },
    {
      "midi": 62,
      "hit": false,
      "t": 55369.92720833335,
      "d": 111.78658333332714,
      "v": 75
    },
    {
      "midi": 47,
      "hit": false,
      "t": 55613.82520833334,
      "d": 180.38289583333244,
      "v": 59
    },
    {
      "midi": 66,
      "hit": false,
      "t": 55613.82520833334,
      "d": 94.00235416666692,
      "v": 72
    },
    {
      "midi": 74,
      "hit": false,
      "t": 55613.82520833334,
      "d": 94.00235416666692,
      "v": 76
    },
    {
      "midi": 35,
      "hit": false,
      "t": 55613.82520833334,
      "d": 180.38289583333244,
      "v": 59
    },
    {
      "midi": 71,
      "hit": false,
      "t": 55616.36581250001,
      "d": 94.00235416666692,
      "v": 75
    },
    {
      "midi": 62,
      "hit": false,
      "t": 55616.36581250001,
      "d": 104.16477083333302,
      "v": 78
    },
    {
      "midi": 47,
      "hit": false,
      "t": 55855.18260416667,
      "d": 297.25068750000355,
      "v": 71
    },
    {
      "midi": 35,
      "hit": false,
      "t": 55855.18260416667,
      "d": 297.25068750000355,
      "v": 71
    },
    {
      "midi": 66,
      "hit": false,
      "t": 55857.723208333344,
      "d": 304.8724999999977,
      "v": 82
    },
    {
      "midi": 71,
      "hit": false,
      "t": 55857.723208333344,
      "d": 322.6567291666652,
      "v": 83
    },
    {
      "midi": 74,
      "hit": false,
      "t": 55857.723208333344,
      "d": 322.6567291666652,
      "v": 83
    },
    {
      "midi": 62,
      "hit": false,
      "t": 55860.26381250001,
      "d": 325.19733333333716,
      "v": 82
    },
    {
      "midi": 42,
      "hit": false,
      "t": 56342.978604166674,
      "d": 223.57316666666884,
      "v": 49
    },
    {
      "midi": 30,
      "hit": false,
      "t": 56342.978604166674,
      "d": 223.57316666666884,
      "v": 49
    },
    {
      "midi": 62,
      "hit": false,
      "t": 56342.97860416668,
      "d": 116.86779166666383,
      "v": 80
    },
    {
      "midi": 71,
      "hit": false,
      "t": 56345.519208333346,
      "d": 86.38054166666552,
      "v": 78
    },
    {
      "midi": 74,
      "hit": false,
      "t": 56345.519208333346,
      "d": 88.92114583333023,
      "v": 79
    },
    {
      "midi": 66,
      "hit": false,
      "t": 56345.519208333346,
      "d": 94.00235416666692,
      "v": 77
    },
    {
      "midi": 54,
      "hit": false,
      "t": 56353.14102083333,
      "d": 205.78893750000134,
      "v": 57
    },
    {
      "midi": 47,
      "hit": false,
      "t": 56589.41720833334,
      "d": 497.9584166666682,
      "v": 80
    },
    {
      "midi": 35,
      "hit": false,
      "t": 56589.41720833334,
      "d": 497.9584166666682,
      "v": 80
    },
    {
      "midi": 59,
      "hit": false,
      "t": 56591.957812500004,
      "d": 409.0372708333307,
      "v": 43
    },
    {
      "midi": 50,
      "hit": false,
      "t": 56597.039020833356,
      "d": 4730.604958333337,
      "v": 87
    },
    {
      "midi": 59,
      "hit": false,
      "t": 56597.039020833356,
      "d": 4730.604958333337,
      "v": 91
    },
    {
      "midi": 54,
      "hit": false,
      "t": 56597.039020833356,
      "d": 4750.929791666669,
      "v": 90
    },
    {
      "midi": 62,
      "hit": false,
      "t": 56830.774604166676,
      "d": 330.27854166666657,
      "v": 80
    },
    {
      "midi": 66,
      "hit": false,
      "t": 56830.774604166676,
      "d": 330.27854166666657,
      "v": 83
    },
    {
      "midi": 74,
      "hit": false,
      "t": 56833.31520833334,
      "d": 269.30404166666995,
      "v": 81
    },
    {
      "midi": 71,
      "hit": false,
      "t": 56833.31520833334,
      "d": 327.73793750000186,
      "v": 81
    },
    {
      "midi": 61,
      "hit": false,
      "t": 57056.888375,
      "d": 426.8214999999982,
      "v": 83
    },
    {
      "midi": 47,
      "hit": false,
      "t": 57318.57060416668,
      "d": 101.62416666666832,
      "v": 60
    },
    {
      "midi": 35,
      "hit": false,
      "t": 57318.57060416668,
      "d": 101.62416666666832,
      "v": 60
    },
    {
      "midi": 62,
      "hit": false,
      "t": 57321.11120833334,
      "d": 86.38054166666552,
      "v": 76
    },
    {
      "midi": 74,
      "hit": false,
      "t": 57321.11120833334,
      "d": 88.92114583333023,
      "v": 78
    },
    {
      "midi": 66,
      "hit": false,
      "t": 57321.11120833334,
      "d": 94.00235416666692,
      "v": 79
    },
    {
      "midi": 71,
      "hit": false,
      "t": 57321.11120833334,
      "d": 94.00235416666692,
      "v": 80
    },
    {
      "midi": 47,
      "hit": false,
      "t": 57565.009208333344,
      "d": 510.661437499999,
      "v": 76
    },
    {
      "midi": 62,
      "hit": false,
      "t": 57565.009208333344,
      "d": 86.38054166666552,
      "v": 76
    },
    {
      "midi": 71,
      "hit": false,
      "t": 57565.009208333344,
      "d": 86.38054166666552,
      "v": 64
    },
    {
      "midi": 35,
      "hit": false,
      "t": 57565.009208333344,
      "d": 510.661437499999,
      "v": 76
    },
    {
      "midi": 62,
      "hit": false,
      "t": 57567.5498125,
      "d": 424.2808958333335,
      "v": 70
    },
    {
      "midi": 74,
      "hit": false,
      "t": 57567.54981250001,
      "d": 43.1902708333364,
      "v": 70
    },
    {
      "midi": 66,
      "hit": false,
      "t": 57567.54981250001,
      "d": 81.29933333333611,
      "v": 66
    },
    {
      "midi": 62,
      "hit": false,
      "t": 57806.36660416667,
      "d": 327.7379374999946,
      "v": 87
    },
    {
      "midi": 66,
      "hit": false,
      "t": 57808.90720833334,
      "d": 309.95370833333436,
      "v": 78
    },
    {
      "midi": 71,
      "hit": false,
      "t": 57808.90720833334,
      "d": 322.6567291666652,
      "v": 74
    },
    {
      "midi": 74,
      "hit": false,
      "t": 57808.90720833334,
      "d": 325.1973333333299,
      "v": 78
    },
    {
      "midi": 64,
      "hit": false,
      "t": 58045.18339583334,
      "d": 309.95370833333436,
      "v": 69
    },
    {
      "midi": 42,
      "hit": false,
      "t": 58294.162604166675,
      "d": 243.89800000000105,
      "v": 44
    },
    {
      "midi": 30,
      "hit": false,
      "t": 58294.162604166675,
      "d": 243.89800000000105,
      "v": 44
    },
    {
      "midi": 62,
      "hit": false,
      "t": 58296.70320833333,
      "d": 78.75872916666412,
      "v": 77
    },
    {
      "midi": 66,
      "hit": false,
      "t": 58296.70320833333,
      "d": 81.29933333332883,
      "v": 70
    },
    {
      "midi": 71,
      "hit": false,
      "t": 58296.70320833333,
      "d": 81.29933333332883,
      "v": 74
    },
    {
      "midi": 74,
      "hit": false,
      "t": 58296.70320833333,
      "d": 81.29933333332883,
      "v": 77
    },
    {
      "midi": 66,
      "hit": false,
      "t": 58527.8981875,
      "d": 421.7402916666688,
      "v": 74
    },
    {
      "midi": 47,
      "hit": false,
      "t": 58540.60120833334,
      "d": 515.7426458333357,
      "v": 79
    },
    {
      "midi": 35,
      "hit": false,
      "t": 58540.60120833334,
      "d": 515.7426458333357,
      "v": 79
    },
    {
      "midi": 66,
      "hit": false,
      "t": 58543.1418125,
      "d": 83.83993750000081,
      "v": 70
    },
    {
      "midi": 62,
      "hit": false,
      "t": 58543.1418125,
      "d": 86.38054166666552,
      "v": 80
    },
    {
      "midi": 74,
      "hit": false,
      "t": 58543.1418125,
      "d": 86.38054166666552,
      "v": 74
    },
    {
      "midi": 71,
      "hit": false,
      "t": 58543.1418125,
      "d": 88.92114583333023,
      "v": 71
    },
    {
      "midi": 62,
      "hit": false,
      "t": 58781.95860416666,
      "d": 299.79129166666826,
      "v": 84
    },
    {
      "midi": 66,
      "hit": false,
      "t": 58784.49920833333,
      "d": 297.25068750000355,
      "v": 76
    },
    {
      "midi": 71,
      "hit": false,
      "t": 58784.49920833333,
      "d": 297.25068750000355,
      "v": 78
    },
    {
      "midi": 74,
      "hit": false,
      "t": 58784.49920833333,
      "d": 317.57552083333576,
      "v": 79
    },
    {
      "midi": 64,
      "hit": false,
      "t": 59015.694187500005,
      "d": 180.38289583333244,
      "v": 60
    },
    {
      "midi": 66,
      "hit": false,
      "t": 59264.673395833335,
      "d": 1354.1420208333366,
      "v": 71
    },
    {
      "midi": 71,
      "hit": false,
      "t": 59272.29520833333,
      "d": 124.48960416666523,
      "v": 72
    },
    {
      "midi": 74,
      "hit": false,
      "t": 59272.29520833333,
      "d": 139.73322916666802,
      "v": 75
    },
    {
      "midi": 62,
      "hit": false,
      "t": 59272.29520833333,
      "d": 160.05806250000023,
      "v": 80
    },
    {
      "midi": 47,
      "hit": false,
      "t": 59272.295208333344,
      "d": 66.05570833333331,
      "v": 59
    },
    {
      "midi": 35,
      "hit": false,
      "t": 59272.295208333344,
      "d": 66.05570833333331,
      "v": 59
    },
    {
      "midi": 66,
      "hit": false,
      "t": 59274.835812499994,
      "d": 137.19262500000332,
      "v": 73
    },
    {
      "midi": 47,
      "hit": false,
      "t": 59516.193208333345,
      "d": 566.5547291666662,
      "v": 78
    },
    {
      "midi": 35,
      "hit": false,
      "t": 59516.193208333345,
      "d": 566.5547291666662,
      "v": 78
    },
    {
      "midi": 66,
      "hit": false,
      "t": 59757.55060416666,
      "d": 315.0349166666638,
      "v": 75
    },
    {
      "midi": 62,
      "hit": false,
      "t": 59757.55060416666,
      "d": 320.11612500000047,
      "v": 81
    },
    {
      "midi": 71,
      "hit": false,
      "t": 59760.091208333324,
      "d": 317.57552083333576,
      "v": 74
    },
    {
      "midi": 74,
      "hit": false,
      "t": 59760.091208333324,
      "d": 335.35975000000326,
      "v": 76
    },
    {
      "midi": 42,
      "hit": false,
      "t": 60245.346604166676,
      "d": 218.49195833333215,
      "v": 56
    },
    {
      "midi": 30,
      "hit": false,
      "t": 60245.346604166676,
      "d": 218.49195833333215,
      "v": 56
    },
    {
      "midi": 66,
      "hit": false,
      "t": 60247.887208333326,
      "d": 88.92114583333023,
      "v": 64
    },
    {
      "midi": 71,
      "hit": false,
      "t": 60247.887208333326,
      "d": 88.92114583333023,
      "v": 66
    },
    {
      "midi": 74,
      "hit": false,
      "t": 60247.887208333326,
      "d": 88.92114583333023,
      "v": 70
    },
    {
      "midi": 62,
      "hit": false,
      "t": 60247.887208333326,
      "d": 106.70537499999773,
      "v": 75
    },
    {
      "midi": 74,
      "hit": false,
      "t": 60491.78520833333,
      "d": 99.08356250000361,
      "v": 76
    },
    {
      "midi": 47,
      "hit": false,
      "t": 60491.78520833334,
      "d": 574.1765416666676,
      "v": 76
    },
    {
      "midi": 35,
      "hit": false,
      "t": 60491.78520833334,
      "d": 574.1765416666676,
      "v": 76
    },
    {
      "midi": 66,
      "hit": false,
      "t": 60494.32581249999,
      "d": 91.46175000000221,
      "v": 70
    },
    {
      "midi": 71,
      "hit": false,
      "t": 60494.32581249999,
      "d": 91.46175000000221,
      "v": 71
    },
    {
      "midi": 62,
      "hit": false,
      "t": 60494.32581249999,
      "d": 96.5429583333389,
      "v": 76
    },
    {
      "midi": 74,
      "hit": false,
      "t": 60733.142604166664,
      "d": 325.1973333333299,
      "v": 80
    },
    {
      "midi": 62,
      "hit": false,
      "t": 60733.142604166664,
      "d": 365.8469999999943,
      "v": 82
    },
    {
      "midi": 66,
      "hit": false,
      "t": 60735.68320833333,
      "d": 289.62887500000215,
      "v": 76
    },
    {
      "midi": 71,
      "hit": false,
      "t": 60735.68320833333,
      "d": 292.16947916666686,
      "v": 76
    },
    {
      "midi": 74,
      "hit": false,
      "t": 61223.47920833332,
      "d": 99.08356249999633,
      "v": 76
    },
    {
      "midi": 71,
      "hit": false,
      "t": 61223.47920833332,
      "d": 104.16477083333302,
      "v": 71
    },
    {
      "midi": 66,
      "hit": false,
      "t": 61223.47920833332,
      "d": 106.70537499999773,
      "v": 77
    },
    {
      "midi": 47,
      "hit": false,
      "t": 61223.479208333345,
      "d": 114.32718749999913,
      "v": 58
    },
    {
      "midi": 35,
      "hit": false,
      "t": 61223.479208333345,
      "d": 114.32718749999913,
      "v": 58
    },
    {
      "midi": 62,
      "hit": false,
      "t": 61226.01981249999,
      "d": 111.78658333333442,
      "v": 80
    },
    {
      "midi": 67,
      "hit": false,
      "t": 61363.21243750002,
      "d": 711.3691666666637,
      "v": 70
    },
    {
      "midi": 64,
      "hit": false,
      "t": 61383.53727083335,
      "d": 835.8587708333362,
      "v": 59
    },
    {
      "midi": 71,
      "hit": false,
      "t": 61434.34935416668,
      "d": 706.2879583333342,
      "v": 67
    },
    {
      "midi": 52,
      "hit": false,
      "t": 61454.67418750002,
      "d": 815.5339374999967,
      "v": 91
    },
    {
      "midi": 59,
      "hit": false,
      "t": 61454.67418750002,
      "d": 820.6151458333334,
      "v": 96
    },
    {
      "midi": 55,
      "hit": false,
      "t": 61454.67418750002,
      "d": 835.8587708333362,
      "v": 99
    },
    {
      "midi": 67,
      "hit": false,
      "t": 61467.377208333324,
      "d": 78.75872916666412,
      "v": 87
    },
    {
      "midi": 71,
      "hit": false,
      "t": 61467.377208333324,
      "d": 106.70537499999773,
      "v": 75
    },
    {
      "midi": 64,
      "hit": false,
      "t": 61467.377208333324,
      "d": 111.78658333333442,
      "v": 94
    },
    {
      "midi": 40,
      "hit": false,
      "t": 61467.377208333346,
      "d": 566.5547291666662,
      "v": 78
    },
    {
      "midi": 28,
      "hit": false,
      "t": 61467.377208333346,
      "d": 566.5547291666662,
      "v": 78
    },
    {
      "midi": 76,
      "hit": false,
      "t": 61469.91781249999,
      "d": 76.21812499999942,
      "v": 80
    },
    {
      "midi": 76,
      "hit": false,
      "t": 61480.080229166684,
      "d": 706.2879583333342,
      "v": 72
    },
    {
      "midi": 64,
      "hit": false,
      "t": 61485.161437500006,
      "d": 754.5594375000001,
      "v": 72
    },
    {
      "midi": 76,
      "hit": false,
      "t": 61708.73460416666,
      "d": 325.1973333333299,
      "v": 89
    },
    {
      "midi": 64,
      "hit": false,
      "t": 61708.73460416666,
      "d": 330.27854166666657,
      "v": 92
    },
    {
      "midi": 67,
      "hit": false,
      "t": 61711.275208333325,
      "d": 302.33189583333296,
      "v": 96
    },
    {
      "midi": 71,
      "hit": false,
      "t": 61711.275208333325,
      "d": 302.33189583333296,
      "v": 92
    },
    {
      "midi": 40,
      "hit": false,
      "t": 62196.53060416668,
      "d": 208.32954166666605,
      "v": 54
    },
    {
      "midi": 28,
      "hit": false,
      "t": 62196.53060416668,
      "d": 208.32954166666605,
      "v": 54
    },
    {
      "midi": 71,
      "hit": false,
      "t": 62199.07120833333,
      "d": 86.38054166666552,
      "v": 66
    },
    {
      "midi": 67,
      "hit": false,
      "t": 62199.07120833333,
      "d": 106.70537499999773,
      "v": 70
    },
    {
      "midi": 64,
      "hit": false,
      "t": 62199.07120833333,
      "d": 127.03020833332994,
      "v": 71
    },
    {
      "midi": 76,
      "hit": false,
      "t": 62199.07120833333,
      "d": 129.57081249999464,
      "v": 64
    },
    {
      "midi": 66,
      "hit": false,
      "t": 62303.23597916669,
      "d": 2156.9729375000024,
      "v": 72
    },
    {
      "midi": 62,
      "hit": false,
      "t": 62323.56081250002,
      "d": 2273.8407291666663,
      "v": 59
    },
    {
      "midi": 71,
      "hit": false,
      "t": 62371.83229166669,
      "d": 2070.592395833337,
      "v": 62
    },
    {
      "midi": 54,
      "hit": false,
      "t": 62415.022562500024,
      "d": 2756.5555208333317,
      "v": 88
    },
    {
      "midi": 50,
      "hit": false,
      "t": 62415.022562500024,
      "d": 2759.0961249999964,
      "v": 84
    },
    {
      "midi": 59,
      "hit": false,
      "t": 62415.022562500024,
      "d": 2759.0961249999964,
      "v": 87
    },
    {
      "midi": 74,
      "hit": false,
      "t": 62435.347395833356,
      "d": 2027.4021250000005,
      "v": 68
    },
    {
      "midi": 62,
      "hit": false,
      "t": 62442.96920833332,
      "d": 119.40839583333582,
      "v": 76
    },
    {
      "midi": 47,
      "hit": false,
      "t": 62442.96920833334,
      "d": 579.257749999997,
      "v": 80
    },
    {
      "midi": 35,
      "hit": false,
      "t": 62442.96920833334,
      "d": 579.257749999997,
      "v": 80
    },
    {
      "midi": 71,
      "hit": false,
      "t": 62445.509812499986,
      "d": 101.62416666666832,
      "v": 76
    },
    {
      "midi": 66,
      "hit": false,
      "t": 62445.509812499986,
      "d": 121.9490000000078,
      "v": 82
    },
    {
      "midi": 74,
      "hit": false,
      "t": 62445.509812499986,
      "d": 121.9490000000078,
      "v": 71
    },
    {
      "midi": 59,
      "hit": false,
      "t": 62460.7534375,
      "d": 1844.4786250000034,
      "v": 59
    },
    {
      "midi": 74,
      "hit": false,
      "t": 62684.32660416666,
      "d": 325.1973333333299,
      "v": 73
    },
    {
      "midi": 62,
      "hit": false,
      "t": 62686.86720833332,
      "d": 304.8724999999977,
      "v": 82
    },
    {
      "midi": 66,
      "hit": false,
      "t": 62686.86720833332,
      "d": 322.6567291666652,
      "v": 80
    },
    {
      "midi": 71,
      "hit": false,
      "t": 62686.86720833332,
      "d": 322.6567291666652,
      "v": 74
    },
    {
      "midi": 71,
      "hit": false,
      "t": 63174.663208333324,
      "d": 86.38054166666552,
      "v": 69
    },
    {
      "midi": 62,
      "hit": false,
      "t": 63174.663208333324,
      "d": 91.46175000000221,
      "v": 80
    },
    {
      "midi": 66,
      "hit": false,
      "t": 63174.663208333324,
      "d": 91.46175000000221,
      "v": 73
    },
    {
      "midi": 47,
      "hit": false,
      "t": 63174.66320833334,
      "d": 139.73322916666802,
      "v": 66
    },
    {
      "midi": 35,
      "hit": false,
      "t": 63174.66320833334,
      "d": 139.73322916666802,
      "v": 66
    },
    {
      "midi": 74,
      "hit": false,
      "t": 63177.20381249999,
      "d": 88.9211458333375,
      "v": 76
    },
    {
      "midi": 71,
      "hit": false,
      "t": 63418.561208333325,
      "d": 83.83993750000081,
      "v": 64
    },
    {
      "midi": 62,
      "hit": false,
      "t": 63418.561208333325,
      "d": 106.70537499999773,
      "v": 73
    },
    {
      "midi": 47,
      "hit": false,
      "t": 63418.56120833334,
      "d": 452.2275416666671,
      "v": 70
    },
    {
      "midi": 35,
      "hit": false,
      "t": 63418.56120833334,
      "d": 452.2275416666671,
      "v": 70
    },
    {
      "midi": 66,
      "hit": false,
      "t": 63421.10181249999,
      "d": 83.83993750000081,
      "v": 66
    },
    {
      "midi": 74,
      "hit": false,
      "t": 63421.10181249999,
      "d": 83.83993750000081,
      "v": 69
    },
    {
      "midi": 62,
      "hit": false,
      "t": 63659.918604166654,
      "d": 309.95370833333436,
      "v": 80
    },
    {
      "midi": 66,
      "hit": false,
      "t": 63662.45920833332,
      "d": 302.33189583333296,
      "v": 70
    },
    {
      "midi": 74,
      "hit": false,
      "t": 63662.45920833332,
      "d": 302.33189583333296,
      "v": 74
    },
    {
      "midi": 71,
      "hit": false,
      "t": 63662.45920833332,
      "d": 307.41310416666965,
      "v": 69
    },
    {
      "midi": 42,
      "hit": false,
      "t": 63906.35720833334,
      "d": 221.03256249999686,
      "v": 38
    },
    {
      "midi": 30,
      "hit": false,
      "t": 63906.35720833334,
      "d": 221.03256249999686,
      "v": 38
    },
    {
      "midi": 45,
      "hit": false,
      "t": 64147.71460416667,
      "d": 271.84464583333465,
      "v": 70
    },
    {
      "midi": 33,
      "hit": false,
      "t": 64147.71460416667,
      "d": 271.84464583333465,
      "v": 70
    },
    {
      "midi": 74,
      "hit": false,
      "t": 64150.25520833332,
      "d": 66.05570833333331,
      "v": 68
    },
    {
      "midi": 66,
      "hit": false,
      "t": 64150.25520833332,
      "d": 104.16477083333302,
      "v": 59
    },
    {
      "midi": 71,
      "hit": false,
      "t": 64150.25520833332,
      "d": 104.16477083333302,
      "v": 58
    },
    {
      "midi": 62,
      "hit": false,
      "t": 64150.25520833332,
      "d": 106.70537499999773,
      "v": 73
    },
    {
      "midi": 74,
      "hit": false,
      "t": 64394.15320833332,
      "d": 91.46175000000221,
      "v": 67
    },
    {
      "midi": 66,
      "hit": false,
      "t": 64394.15320833332,
      "d": 94.00235416666692,
      "v": 59
    },
    {
      "midi": 47,
      "hit": false,
      "t": 64394.15320833334,
      "d": 541.1486875000046,
      "v": 72
    },
    {
      "midi": 35,
      "hit": false,
      "t": 64394.15320833334,
      "d": 541.1486875000046,
      "v": 72
    },
    {
      "midi": 71,
      "hit": false,
      "t": 64396.69381249999,
      "d": 78.75872916666412,
      "v": 65
    },
    {
      "midi": 62,
      "hit": false,
      "t": 64396.69381249999,
      "d": 83.83993750000081,
      "v": 74
    },
    {
      "midi": 62,
      "hit": false,
      "t": 64635.51060416666,
      "d": 348.06277083333407,
      "v": 83
    },
    {
      "midi": 66,
      "hit": false,
      "t": 64638.05120833332,
      "d": 282.00706250000076,
      "v": 70
    },
    {
      "midi": 71,
      "hit": false,
      "t": 64638.05120833332,
      "d": 282.00706250000076,
      "v": 72
    },
    {
      "midi": 74,
      "hit": false,
      "t": 64638.05120833332,
      "d": 302.33189583333296,
      "v": 72
    },
    {
      "midi": 47,
      "hit": false,
      "t": 65123.306604166675,
      "d": 223.57316666666884,
      "v": 58
    },
    {
      "midi": 35,
      "hit": false,
      "t": 65123.306604166675,
      "d": 223.57316666666884,
      "v": 58
    },
    {
      "midi": 74,
      "hit": false,
      "t": 65125.847208333325,
      "d": 86.38054166666552,
      "v": 78
    },
    {
      "midi": 66,
      "hit": false,
      "t": 65125.847208333325,
      "d": 94.00235416666692,
      "v": 74
    },
    {
      "midi": 71,
      "hit": false,
      "t": 65125.847208333325,
      "d": 94.00235416666692,
      "v": 70
    },
    {
      "midi": 62,
      "hit": false,
      "t": 65125.847208333325,
      "d": 109.24597916666971,
      "v": 80
    },
    {
      "midi": 64,
      "hit": false,
      "t": 65311.31131250002,
      "d": 914.6175000000076,
      "v": 64
    },
    {
      "midi": 67,
      "hit": false,
      "t": 65313.85191666669,
      "d": 716.4503750000076,
      "v": 75
    },
    {
      "midi": 59,
      "hit": false,
      "t": 65357.04218750002,
      "d": 823.1557500000054,
      "v": 95
    },
    {
      "midi": 52,
      "hit": false,
      "t": 65359.58279166668,
      "d": 820.6151458333406,
      "v": 87
    },
    {
      "midi": 55,
      "hit": false,
      "t": 65359.58279166668,
      "d": 856.1836041666757,
      "v": 98
    },
    {
      "midi": 64,
      "hit": false,
      "t": 65369.74520833333,
      "d": 94.00235416666692,
      "v": 94
    },
    {
      "midi": 71,
      "hit": false,
      "t": 65369.74520833333,
      "d": 94.00235416666692,
      "v": 92
    },
    {
      "midi": 40,
      "hit": false,
      "t": 65369.74520833334,
      "d": 607.2043958333306,
      "v": 80
    },
    {
      "midi": 28,
      "hit": false,
      "t": 65369.74520833334,
      "d": 607.2043958333306,
      "v": 80
    },
    {
      "midi": 67,
      "hit": false,
      "t": 65372.28581249999,
      "d": 91.46175000000221,
      "v": 96
    },
    {
      "midi": 76,
      "hit": false,
      "t": 65372.28581249999,
      "d": 111.78658333333442,
      "v": 89
    },
    {
      "midi": 71,
      "hit": false,
      "t": 65372.28581250002,
      "d": 762.1812500000087,
      "v": 61
    },
    {
      "midi": 67,
      "hit": false,
      "t": 65379.90762500001,
      "d": 769.8030624999956,
      "v": 72
    },
    {
      "midi": 76,
      "hit": false,
      "t": 65463.74756250002,
      "d": 708.8285625000135,
      "v": 71
    },
    {
      "midi": 64,
      "hit": false,
      "t": 65611.10260416666,
      "d": 304.8725000000122,
      "v": 106
    },
    {
      "midi": 67,
      "hit": false,
      "t": 65613.64320833333,
      "d": 302.33189583334024,
      "v": 99
    },
    {
      "midi": 76,
      "hit": false,
      "t": 65613.64320833333,
      "d": 322.65672916667245,
      "v": 91
    },
    {
      "midi": 71,
      "hit": false,
      "t": 65613.64320833333,
      "d": 325.19733333334443,
      "v": 94
    },
    {
      "midi": 40,
      "hit": false,
      "t": 66098.89860416666,
      "d": 205.78893749999406,
      "v": 62
    },
    {
      "midi": 28,
      "hit": false,
      "t": 66098.89860416666,
      "d": 205.78893749999406,
      "v": 62
    },
    {
      "midi": 64,
      "hit": false,
      "t": 66101.43920833335,
      "d": 124.48960416666523,
      "v": 80
    },
    {
      "midi": 67,
      "hit": false,
      "t": 66101.43920833335,
      "d": 127.03020833333721,
      "v": 76
    },
    {
      "midi": 71,
      "hit": false,
      "t": 66101.43920833335,
      "d": 127.03020833333721,
      "v": 73
    },
    {
      "midi": 76,
      "hit": false,
      "t": 66101.43920833335,
      "d": 147.35504166666942,
      "v": 76
    },
    {
      "midi": 66,
      "hit": false,
      "t": 66251.3348541667,
      "d": 835.8587708333362,
      "v": 71
    },
    {
      "midi": 62,
      "hit": false,
      "t": 66271.65968750003,
      "d": 899.3738750000048,
      "v": 59
    },
    {
      "midi": 71,
      "hit": false,
      "t": 66322.47177083336,
      "d": 746.9376250000059,
      "v": 68
    },
    {
      "midi": 54,
      "hit": false,
      "t": 66332.63418750002,
      "d": 843.480583333323,
      "v": 88
    },
    {
      "midi": 66,
      "hit": false,
      "t": 66335.17479166666,
      "d": 487.7960000000021,
      "v": 76
    },
    {
      "midi": 47,
      "hit": false,
      "t": 66345.33720833332,
      "d": 574.1765416666603,
      "v": 84
    },
    {
      "midi": 35,
      "hit": false,
      "t": 66345.33720833332,
      "d": 574.1765416666603,
      "v": 84
    },
    {
      "midi": 66,
      "hit": false,
      "t": 66345.33720833335,
      "d": 106.705375000005,
      "v": 77
    },
    {
      "midi": 71,
      "hit": false,
      "t": 66347.87781250002,
      "d": 76.21812499999942,
      "v": 74
    },
    {
      "midi": 62,
      "hit": false,
      "t": 66347.87781250002,
      "d": 78.7587291666714,
      "v": 79
    },
    {
      "midi": 74,
      "hit": false,
      "t": 66347.87781250002,
      "d": 78.7587291666714,
      "v": 75
    },
    {
      "midi": 59,
      "hit": false,
      "t": 66352.95902083335,
      "d": 802.8309166666586,
      "v": 84
    },
    {
      "midi": 50,
      "hit": false,
      "t": 66358.04022916668,
      "d": 797.7497083333292,
      "v": 82
    },
    {
      "midi": 74,
      "hit": false,
      "t": 66373.2838541667,
      "d": 713.9097708333284,
      "v": 64
    },
    {
      "midi": 74,
      "hit": false,
      "t": 66586.6946041667,
      "d": 312.49431249999907,
      "v": 74
    },
    {
      "midi": 66,
      "hit": false,
      "t": 66589.23520833337,
      "d": 289.6288749999949,
      "v": 77
    },
    {
      "midi": 71,
      "hit": false,
      "t": 66589.23520833337,
      "d": 289.6288749999949,
      "v": 76
    },
    {
      "midi": 62,
      "hit": false,
      "t": 66589.23520833337,
      "d": 317.5755208333285,
      "v": 85
    },
    {
      "midi": 64,
      "hit": false,
      "t": 66840.75502083333,
      "d": 254.06041666667443,
      "v": 70
    },
    {
      "midi": 47,
      "hit": false,
      "t": 67074.49060416665,
      "d": 248.979208333345,
      "v": 62
    },
    {
      "midi": 35,
      "hit": false,
      "t": 67074.49060416665,
      "d": 248.979208333345,
      "v": 62
    },
    {
      "midi": 62,
      "hit": false,
      "t": 67077.03120833337,
      "d": 73.67752083332743,
      "v": 87
    },
    {
      "midi": 66,
      "hit": false,
      "t": 67077.03120833337,
      "d": 109.24597916666244,
      "v": 77
    },
    {
      "midi": 71,
      "hit": false,
      "t": 67077.03120833337,
      "d": 109.24597916666244,
      "v": 80
    },
    {
      "midi": 74,
      "hit": false,
      "t": 67077.03120833337,
      "d": 109.24597916666244,
      "v": 79
    },
    {
      "midi": 62,
      "hit": false,
      "t": 67087.193625,
      "d": 142.27383333334,
      "v": 68
    },
    {
      "midi": 66,
      "hit": false,
      "t": 67249.7922916667,
      "d": 724.0721875000017,
      "v": 68
    },
    {
      "midi": 61,
      "hit": false,
      "t": 67292.98256250004,
      "d": 680.8819166666653,
      "v": 60
    },
    {
      "midi": 70,
      "hit": false,
      "t": 67313.30739583337,
      "d": 581.7983541666617,
      "v": 59
    },
    {
      "midi": 42,
      "hit": false,
      "t": 67320.92920833333,
      "d": 525.9050625000091,
      "v": 81
    },
    {
      "midi": 30,
      "hit": false,
      "t": 67320.92920833333,
      "d": 525.9050625000091,
      "v": 81
    },
    {
      "midi": 73,
      "hit": false,
      "t": 67320.92920833337,
      "d": 119.40839583333582,
      "v": 90
    },
    {
      "midi": 66,
      "hit": false,
      "t": 67320.92920833337,
      "d": 124.48960416666523,
      "v": 95
    },
    {
      "midi": 58,
      "hit": false,
      "t": 67323.46981250001,
      "d": 873.9678333333432,
      "v": 95
    },
    {
      "midi": 70,
      "hit": false,
      "t": 67323.46981250004,
      "d": 116.86779166666383,
      "v": 93
    },
    {
      "midi": 49,
      "hit": false,
      "t": 67326.01041666669,
      "d": 752.0188333333354,
      "v": 105
    },
    {
      "midi": 54,
      "hit": false,
      "t": 67326.01041666669,
      "d": 800.2903125000012,
      "v": 104
    },
    {
      "midi": 61,
      "hit": false,
      "t": 67338.7134375,
      "d": 355.68458333333547,
      "v": 78
    },
    {
      "midi": 73,
      "hit": false,
      "t": 67381.90370833337,
      "d": 480.1741875000007,
      "v": 76
    },
    {
      "midi": 66,
      "hit": false,
      "t": 67562.2866041667,
      "d": 317.5755208333285,
      "v": 98
    },
    {
      "midi": 70,
      "hit": false,
      "t": 67562.2866041667,
      "d": 325.1973333333299,
      "v": 98
    },
    {
      "midi": 73,
      "hit": false,
      "t": 67564.82720833337,
      "d": 309.9537083333271,
      "v": 100
    },
    {
      "midi": 62,
      "hit": false,
      "t": 67816.34702083333,
      "d": 238.81679166665708,
      "v": 77
    },
    {
      "midi": 61,
      "hit": false,
      "t": 68050.08260416666,
      "d": 121.94899999999325,
      "v": 60
    },
    {
      "midi": 42,
      "hit": false,
      "t": 68052.62320833333,
      "d": 188.00470833333384,
      "v": 63
    },
    {
      "midi": 30,
      "hit": false,
      "t": 68052.62320833333,
      "d": 188.00470833333384,
      "v": 63
    },
    {
      "midi": 66,
      "hit": false,
      "t": 68052.62320833336,
      "d": 81.29933333332883,
      "v": 73
    },
    {
      "midi": 70,
      "hit": false,
      "t": 68052.62320833336,
      "d": 101.62416666666104,
      "v": 81
    },
    {
      "midi": 73,
      "hit": false,
      "t": 68052.62320833336,
      "d": 119.40839583332126,
      "v": 80
    },
    {
      "midi": 62,
      "hit": false,
      "t": 68258.41214583337,
      "d": 1653.933312499983,
      "v": 65
    },
    {
      "midi": 54,
      "hit": false,
      "t": 68263.4933541667,
      "d": 3587.3330833333457,
      "v": 94
    },
    {
      "midi": 50,
      "hit": false,
      "t": 68266.03395833337,
      "d": 3605.117312500006,
      "v": 91
    },
    {
      "midi": 59,
      "hit": false,
      "t": 68266.03395833337,
      "d": 3729.606916666671,
      "v": 92
    },
    {
      "midi": 66,
      "hit": false,
      "t": 68283.81818750003,
      "d": 1570.0933749999967,
      "v": 74
    },
    {
      "midi": 47,
      "hit": false,
      "t": 68296.52120833333,
      "d": 505.5802291666623,
      "v": 74
    },
    {
      "midi": 35,
      "hit": false,
      "t": 68296.52120833333,
      "d": 505.5802291666623,
      "v": 74
    },
    {
      "midi": 74,
      "hit": false,
      "t": 68296.52120833335,
      "d": 94.0023541666742,
      "v": 77
    },
    {
      "midi": 66,
      "hit": false,
      "t": 68299.06181250002,
      "d": 91.46175000000221,
      "v": 76
    },
    {
      "midi": 62,
      "hit": false,
      "t": 68299.06181250002,
      "d": 94.0023541666742,
      "v": 75
    },
    {
      "midi": 71,
      "hit": false,
      "t": 68299.06181250002,
      "d": 94.0023541666742,
      "v": 79
    },
    {
      "midi": 59,
      "hit": false,
      "t": 68304.14302083332,
      "d": 1831.7756041666726,
      "v": 55
    },
    {
      "midi": 71,
      "hit": false,
      "t": 68365.11752083336,
      "d": 1534.5249166666617,
      "v": 67
    },
    {
      "midi": 74,
      "hit": false,
      "t": 68537.87860416669,
      "d": 317.5755208333285,
      "v": 76
    },
    {
      "midi": 66,
      "hit": false,
      "t": 68540.41920833336,
      "d": 284.54766666666546,
      "v": 77
    },
    {
      "midi": 62,
      "hit": false,
      "t": 68540.41920833336,
      "d": 302.3318958333257,
      "v": 84
    },
    {
      "midi": 71,
      "hit": false,
      "t": 68540.41920833336,
      "d": 302.3318958333257,
      "v": 79
    },
    {
      "midi": 47,
      "hit": false,
      "t": 69028.21520833332,
      "d": 200.70772916666465,
      "v": 70
    },
    {
      "midi": 35,
      "hit": false,
      "t": 69028.21520833332,
      "d": 200.70772916666465,
      "v": 70
    },
    {
      "midi": 66,
      "hit": false,
      "t": 69028.21520833335,
      "d": 94.0023541666742,
      "v": 70
    },
    {
      "midi": 71,
      "hit": false,
      "t": 69028.21520833335,
      "d": 94.0023541666742,
      "v": 73
    },
    {
      "midi": 74,
      "hit": false,
      "t": 69028.21520833335,
      "d": 94.0023541666742,
      "v": 76
    },
    {
      "midi": 62,
      "hit": false,
      "t": 69030.75581250002,
      "d": 91.46175000000221,
      "v": 74
    },
    {
      "midi": 47,
      "hit": false,
      "t": 69272.11320833332,
      "d": 467.4711666666699,
      "v": 68
    },
    {
      "midi": 35,
      "hit": false,
      "t": 69272.11320833332,
      "d": 467.4711666666699,
      "v": 68
    },
    {
      "midi": 66,
      "hit": false,
      "t": 69272.11320833335,
      "d": 91.46175000000221,
      "v": 78
    },
    {
      "midi": 71,
      "hit": false,
      "t": 69272.11320833335,
      "d": 91.46175000000221,
      "v": 73
    },
    {
      "midi": 62,
      "hit": false,
      "t": 69274.65381250002,
      "d": 91.46175000000221,
      "v": 76
    },
    {
      "midi": 74,
      "hit": false,
      "t": 69274.65381250002,
      "d": 91.46175000000221,
      "v": 76
    },
    {
      "midi": 66,
      "hit": false,
      "t": 69513.4706041667,
      "d": 317.57552083334303,
      "v": 85
    },
    {
      "midi": 74,
      "hit": false,
      "t": 69513.4706041667,
      "d": 340.4409583333472,
      "v": 80
    },
    {
      "midi": 62,
      "hit": false,
      "t": 69516.01120833337,
      "d": 317.57552083334303,
      "v": 85
    },
    {
      "midi": 71,
      "hit": false,
      "t": 69516.01120833337,
      "d": 337.90035416667524,
      "v": 82
    },
    {
      "midi": 42,
      "hit": false,
      "t": 70001.26660416665,
      "d": 287.08827083333745,
      "v": 74
    },
    {
      "midi": 30,
      "hit": false,
      "t": 70001.26660416665,
      "d": 287.08827083333745,
      "v": 74
    },
    {
      "midi": 66,
      "hit": false,
      "t": 70001.26660416671,
      "d": 104.16477083333302,
      "v": 74
    },
    {
      "midi": 54,
      "hit": false,
      "t": 70003.80720833331,
      "d": 208.32954166666605,
      "v": 127
    },
    {
      "midi": 74,
      "hit": false,
      "t": 70003.80720833338,
      "d": 73.67752083332743,
      "v": 74
    },
    {
      "midi": 71,
      "hit": false,
      "t": 70003.80720833338,
      "d": 78.75872916665685,
      "v": 71
    },
    {
      "midi": 62,
      "hit": false,
      "t": 70003.80720833338,
      "d": 109.24597916666244,
      "v": 76
    },
    {
      "midi": 47,
      "hit": false,
      "t": 70247.70520833333,
      "d": 513.2020416666637,
      "v": 76
    },
    {
      "midi": 35,
      "hit": false,
      "t": 70247.70520833333,
      "d": 513.2020416666637,
      "v": 76
    },
    {
      "midi": 62,
      "hit": false,
      "t": 70247.70520833338,
      "d": 104.16477083334757,
      "v": 81
    },
    {
      "midi": 66,
      "hit": false,
      "t": 70247.70520833338,
      "d": 104.16477083334757,
      "v": 71
    },
    {
      "midi": 59,
      "hit": false,
      "t": 70250.24581249998,
      "d": 243.89800000000105,
      "v": 96
    },
    {
      "midi": 71,
      "hit": false,
      "t": 70250.24581250006,
      "d": 68.59631249999802,
      "v": 67
    },
    {
      "midi": 74,
      "hit": false,
      "t": 70250.24581250006,
      "d": 71.13691666667,
      "v": 71
    },
    {
      "midi": 71,
      "hit": false,
      "t": 70489.06260416673,
      "d": 269.3040416666772,
      "v": 84
    },
    {
      "midi": 74,
      "hit": false,
      "t": 70489.06260416673,
      "d": 269.3040416666772,
      "v": 82
    },
    {
      "midi": 58,
      "hit": false,
      "t": 70491.60320833331,
      "d": 221.0325625000114,
      "v": 127
    },
    {
      "midi": 66,
      "hit": false,
      "t": 70491.6032083334,
      "d": 266.76343750000524,
      "v": 84
    },
    {
      "midi": 62,
      "hit": false,
      "t": 70491.6032083334,
      "d": 284.54766666666546,
      "v": 87
    },
    {
      "midi": 59,
      "hit": false,
      "t": 70735.50120833333,
      "d": 241.35739583332906,
      "v": 104
    },
    {
      "midi": 47,
      "hit": false,
      "t": 70979.39920833333,
      "d": 213.41074999999546,
      "v": 68
    },
    {
      "midi": 35,
      "hit": false,
      "t": 70979.39920833333,
      "d": 213.41074999999546,
      "v": 68
    },
    {
      "midi": 66,
      "hit": false,
      "t": 70979.3992083334,
      "d": 297.2506875000108,
      "v": 81
    },
    {
      "midi": 71,
      "hit": false,
      "t": 70979.3992083334,
      "d": 317.57552083334303,
      "v": 76
    },
    {
      "midi": 62,
      "hit": false,
      "t": 70981.93981250007,
      "d": 287.08827083333745,
      "v": 82
    },
    {
      "midi": 74,
      "hit": false,
      "t": 70981.93981250007,
      "d": 327.73793750000186,
      "v": 77
    },
    {
      "midi": 61,
      "hit": false,
      "t": 70984.48041666666,
      "d": 215.95135416666744,
      "v": 127
    },
    {
      "midi": 54,
      "hit": false,
      "t": 71223.29720833333,
      "d": 470.0117708333273,
      "v": 69
    },
    {
      "midi": 42,
      "hit": false,
      "t": 71223.29720833333,
      "d": 470.0117708333273,
      "v": 69
    },
    {
      "midi": 62,
      "hit": false,
      "t": 71225.83781249999,
      "d": 221.03256249999686,
      "v": 127
    },
    {
      "midi": 74,
      "hit": false,
      "t": 71464.65460416675,
      "d": 312.49431249999907,
      "v": 74
    },
    {
      "midi": 62,
      "hit": false,
      "t": 71467.19520833342,
      "d": 269.30404166666267,
      "v": 83
    },
    {
      "midi": 66,
      "hit": false,
      "t": 71467.19520833342,
      "d": 289.6288749999949,
      "v": 83
    },
    {
      "midi": 71,
      "hit": false,
      "t": 71467.19520833342,
      "d": 292.16947916666686,
      "v": 81
    },
    {
      "midi": 66,
      "hit": false,
      "t": 71469.73581249999,
      "d": 309.95370833334164,
      "v": 127
    },
    {
      "midi": 42,
      "hit": false,
      "t": 71711.09320833332,
      "d": 294.71008333333884,
      "v": 82
    },
    {
      "midi": 30,
      "hit": false,
      "t": 71711.09320833332,
      "d": 294.71008333333884,
      "v": 82
    },
    {
      "midi": 71,
      "hit": false,
      "t": 71713.63381249999,
      "d": 279.4664583333506,
      "v": 120
    },
    {
      "midi": 66,
      "hit": false,
      "t": 71952.45060416675,
      "d": 86.3805416666728,
      "v": 88
    },
    {
      "midi": 71,
      "hit": false,
      "t": 71952.45060416675,
      "d": 86.3805416666728,
      "v": 84
    },
    {
      "midi": 74,
      "hit": false,
      "t": 71954.99120833333,
      "d": 284.54766666668,
      "v": 116
    },
    {
      "midi": 62,
      "hit": false,
      "t": 71954.99120833342,
      "d": 86.3805416666728,
      "v": 89
    },
    {
      "midi": 74,
      "hit": false,
      "t": 71954.99120833342,
      "d": 114.3271875000064,
      "v": 80
    },
    {
      "midi": 61,
      "hit": false,
      "t": 72008.34389583336,
      "d": 1651.3927083333256,
      "v": 81
    },
    {
      "midi": 69,
      "hit": false,
      "t": 72064.23718750002,
      "d": 1514.2000833333295,
      "v": 66
    },
    {
      "midi": 73,
      "hit": false,
      "t": 72145.53652083335,
      "d": 1310.9517500000075,
      "v": 72
    },
    {
      "midi": 64,
      "hit": false,
      "t": 72145.53652083335,
      "d": 1445.6037708333315,
      "v": 68
    },
    {
      "midi": 49,
      "hit": false,
      "t": 72181.1049791667,
      "d": 1763.1792916666745,
      "v": 100
    },
    {
      "midi": 57,
      "hit": false,
      "t": 72181.1049791667,
      "d": 1869.8846666666795,
      "v": 95
    },
    {
      "midi": 52,
      "hit": false,
      "t": 72183.64558333337,
      "d": 1788.5853333333362,
      "v": 97
    },
    {
      "midi": 45,
      "hit": false,
      "t": 72198.88920833332,
      "d": 472.5523749999993,
      "v": 84
    },
    {
      "midi": 33,
      "hit": false,
      "t": 72198.88920833332,
      "d": 472.5523749999993,
      "v": 84
    },
    {
      "midi": 73,
      "hit": false,
      "t": 72198.88920833342,
      "d": 94.0023541666742,
      "v": 95
    },
    {
      "midi": 69,
      "hit": false,
      "t": 72198.88920833342,
      "d": 99.08356250000361,
      "v": 90
    },
    {
      "midi": 64,
      "hit": false,
      "t": 72201.4298125001,
      "d": 91.46175000000221,
      "v": 92
    },
    {
      "midi": 76,
      "hit": false,
      "t": 72201.4298125001,
      "d": 91.46175000000221,
      "v": 92
    },
    {
      "midi": 73,
      "hit": false,
      "t": 72203.97041666668,
      "d": 1857.1816458333342,
      "v": 99
    },
    {
      "midi": 61,
      "hit": false,
      "t": 72206.51102083332,
      "d": 365.8469999999943,
      "v": 83
    },
    {
      "midi": 76,
      "hit": false,
      "t": 72211.5922291667,
      "d": 1321.1141666666663,
      "v": 75
    },
    {
      "midi": 76,
      "hit": false,
      "t": 72440.24660416676,
      "d": 315.03491666667105,
      "v": 92
    },
    {
      "midi": 64,
      "hit": false,
      "t": 72442.78720833344,
      "d": 276.92585416666407,
      "v": 96
    },
    {
      "midi": 69,
      "hit": false,
      "t": 72442.78720833344,
      "d": 297.2506874999963,
      "v": 99
    },
    {
      "midi": 73,
      "hit": false,
      "t": 72442.78720833344,
      "d": 297.2506874999963,
      "v": 105
    },
    {
      "midi": 61,
      "hit": false,
      "t": 72704.46943749998,
      "d": 71.13691666667,
      "v": 67
    },
    {
      "midi": 45,
      "hit": false,
      "t": 72930.58320833332,
      "d": 83.83993750000081,
      "v": 63
    },
    {
      "midi": 33,
      "hit": false,
      "t": 72930.58320833332,
      "d": 83.83993750000081,
      "v": 63
    },
    {
      "midi": 69,
      "hit": false,
      "t": 72930.58320833344,
      "d": 309.95370833334164,
      "v": 83
    },
    {
      "midi": 73,
      "hit": false,
      "t": 72930.58320833344,
      "d": 327.73793750000186,
      "v": 93
    },
    {
      "midi": 76,
      "hit": false,
      "t": 72930.58320833344,
      "d": 327.73793750000186,
      "v": 82
    },
    {
      "midi": 64,
      "hit": false,
      "t": 72933.12381250011,
      "d": 320.11612500000047,
      "v": 87
    },
    {
      "midi": 61,
      "hit": false,
      "t": 72948.36743749998,
      "d": 734.2346041666606,
      "v": 70
    },
    {
      "midi": 45,
      "hit": false,
      "t": 73174.48120833332,
      "d": 602.123187499994,
      "v": 78
    },
    {
      "midi": 33,
      "hit": false,
      "t": 73174.48120833332,
      "d": 602.123187499994,
      "v": 78
    },
    {
      "midi": 76,
      "hit": false,
      "t": 73415.83860416677,
      "d": 251.51981250000244,
      "v": 75
    },
    {
      "midi": 69,
      "hit": false,
      "t": 73418.37920833344,
      "d": 251.51981250000244,
      "v": 83
    },
    {
      "midi": 73,
      "hit": false,
      "t": 73418.37920833344,
      "d": 251.51981250000244,
      "v": 86
    },
    {
      "midi": 64,
      "hit": false,
      "t": 73418.37920833344,
      "d": 256.60102083333186,
      "v": 81
    },
    {
      "midi": 62,
      "hit": false,
      "t": 73662.27720833331,
      "d": 302.3318958333257,
      "v": 77
    },
    {
      "midi": 45,
      "hit": false,
      "t": 73903.63460416665,
      "d": 172.76108333333104,
      "v": 56
    },
    {
      "midi": 33,
      "hit": false,
      "t": 73903.63460416665,
      "d": 172.76108333333104,
      "v": 56
    },
    {
      "midi": 76,
      "hit": false,
      "t": 73906.17520833344,
      "d": 81.29933333332883,
      "v": 66
    },
    {
      "midi": 64,
      "hit": false,
      "t": 73906.17520833344,
      "d": 91.46175000000221,
      "v": 72
    },
    {
      "midi": 69,
      "hit": false,
      "t": 73906.17520833344,
      "d": 91.46175000000221,
      "v": 74
    },
    {
      "midi": 73,
      "hit": false,
      "t": 73906.17520833344,
      "d": 91.46175000000221,
      "v": 80
    },
    {
      "midi": 61,
      "hit": false,
      "t": 73918.87822916664,
      "d": 106.70537499999045,
      "v": 72
    },
    {
      "midi": 64,
      "hit": false,
      "t": 74030.66481250002,
      "d": 2799.745791666661,
      "v": 62
    },
    {
      "midi": 67,
      "hit": false,
      "t": 74050.98964583335,
      "d": 2710.8246458333306,
      "v": 68
    },
    {
      "midi": 71,
      "hit": false,
      "t": 74099.26112500002,
      "d": 2677.7967916666676,
      "v": 63
    },
    {
      "midi": 52,
      "hit": false,
      "t": 74109.42354166672,
      "d": 3719.444499999998,
      "v": 83
    },
    {
      "midi": 55,
      "hit": false,
      "t": 74129.74837500005,
      "d": 3699.1196666666656,
      "v": 96
    },
    {
      "midi": 59,
      "hit": false,
      "t": 74129.74837500005,
      "d": 3699.1196666666656,
      "v": 85
    },
    {
      "midi": 40,
      "hit": false,
      "t": 74150.07320833331,
      "d": 734.2346041666606,
      "v": 75
    },
    {
      "midi": 28,
      "hit": false,
      "t": 74150.07320833331,
      "d": 734.2346041666606,
      "v": 75
    },
    {
      "midi": 71,
      "hit": false,
      "t": 74150.07320833344,
      "d": 86.3805416666728,
      "v": 86
    },
    {
      "midi": 67,
      "hit": false,
      "t": 74152.61381250012,
      "d": 86.3805416666728,
      "v": 86
    },
    {
      "midi": 64,
      "hit": false,
      "t": 74152.61381250012,
      "d": 88.92114583334478,
      "v": 80
    },
    {
      "midi": 76,
      "hit": false,
      "t": 74152.61381250012,
      "d": 88.92114583334478,
      "v": 77
    },
    {
      "midi": 71,
      "hit": false,
      "t": 74155.15441666667,
      "d": 3927.774041666664,
      "v": 72
    },
    {
      "midi": 76,
      "hit": false,
      "t": 74155.15441666669,
      "d": 2657.4719583333354,
      "v": 75
    },
    {
      "midi": 59,
      "hit": false,
      "t": 74178.01985416663,
      "d": 470.01177083334187,
      "v": 54
    },
    {
      "midi": 71,
      "hit": false,
      "t": 74391.43060416679,
      "d": 304.8724999999977,
      "v": 88
    },
    {
      "midi": 64,
      "hit": false,
      "t": 74393.97120833346,
      "d": 282.0070624999935,
      "v": 83
    },
    {
      "midi": 67,
      "hit": false,
      "t": 74393.97120833346,
      "d": 302.3318958333257,
      "v": 89
    },
    {
      "midi": 76,
      "hit": false,
      "t": 74393.97120833346,
      "d": 302.3318958333257,
      "v": 84
    },
    {
      "midi": 57,
      "hit": false,
      "t": 74645.4910208333,
      "d": 167.67987500000163,
      "v": 66
    },
    {
      "midi": 47,
      "hit": false,
      "t": 74879.22660416664,
      "d": 266.7634374999907,
      "v": 63
    },
    {
      "midi": 35,
      "hit": false,
      "t": 74879.22660416664,
      "d": 266.7634374999907,
      "v": 63
    },
    {
      "midi": 67,
      "hit": false,
      "t": 74881.76720833345,
      "d": 317.5755208333285,
      "v": 89
    },
    {
      "midi": 64,
      "hit": false,
      "t": 74881.76720833345,
      "d": 322.6567291666579,
      "v": 80
    },
    {
      "midi": 76,
      "hit": false,
      "t": 74881.76720833345,
      "d": 322.6567291666579,
      "v": 80
    },
    {
      "midi": 71,
      "hit": false,
      "t": 74881.76720833345,
      "d": 327.7379374999873,
      "v": 87
    },
    {
      "midi": 59,
      "hit": false,
      "t": 74891.92962499998,
      "d": 1432.9007500000007,
      "v": 52
    },
    {
      "midi": 52,
      "hit": false,
      "t": 75125.6652083333,
      "d": 812.993333333332,
      "v": 71
    },
    {
      "midi": 40,
      "hit": false,
      "t": 75125.6652083333,
      "d": 812.993333333332,
      "v": 71
    },
    {
      "midi": 67,
      "hit": false,
      "t": 75367.02260416676,
      "d": 307.41310416666965,
      "v": 77
    },
    {
      "midi": 71,
      "hit": false,
      "t": 75367.02260416676,
      "d": 332.8191458333313,
      "v": 75
    },
    {
      "midi": 64,
      "hit": false,
      "t": 75369.56320833343,
      "d": 304.8724999999977,
      "v": 80
    },
    {
      "midi": 76,
      "hit": false,
      "t": 75369.56320833343,
      "d": 309.9537083333271,
      "v": 75
    },
    {
      "midi": 71,
      "hit": false,
      "t": 75854.81860416676,
      "d": 94.00235416668875,
      "v": 79
    },
    {
      "midi": 67,
      "hit": false,
      "t": 75857.35920833344,
      "d": 86.3805416666728,
      "v": 78
    },
    {
      "midi": 76,
      "hit": false,
      "t": 75857.35920833344,
      "d": 88.92114583334478,
      "v": 72
    },
    {
      "midi": 64,
      "hit": false,
      "t": 75857.35920833344,
      "d": 91.46175000001676,
      "v": 80
    },
    {
      "midi": 40,
      "hit": false,
      "t": 76101.2572083333,
      "d": 147.35504166666942,
      "v": 70
    },
    {
      "midi": 28,
      "hit": false,
      "t": 76101.2572083333,
      "d": 147.35504166666942,
      "v": 70
    },
    {
      "midi": 71,
      "hit": false,
      "t": 76101.25720833345,
      "d": 88.92114583334478,
      "v": 83
    },
    {
      "midi": 76,
      "hit": false,
      "t": 76103.79781250012,
      "d": 86.3805416666728,
      "v": 74
    },
    {
      "midi": 64,
      "hit": false,
      "t": 76103.79781250012,
      "d": 91.46175000000221,
      "v": 79
    },
    {
      "midi": 67,
      "hit": false,
      "t": 76103.79781250012,
      "d": 91.46175000000221,
      "v": 81
    },
    {
      "midi": 40,
      "hit": false,
      "t": 76342.61460416664,
      "d": 406.49666666667326,
      "v": 66
    },
    {
      "midi": 28,
      "hit": false,
      "t": 76342.61460416664,
      "d": 406.49666666667326,
      "v": 66
    },
    {
      "midi": 76,
      "hit": false,
      "t": 76345.15520833345,
      "d": 274.38525000000664,
      "v": 76
    },
    {
      "midi": 64,
      "hit": false,
      "t": 76345.15520833345,
      "d": 282.00706250000803,
      "v": 81
    },
    {
      "midi": 67,
      "hit": false,
      "t": 76345.15520833345,
      "d": 282.00706250000803,
      "v": 81
    },
    {
      "midi": 71,
      "hit": false,
      "t": 76345.15520833345,
      "d": 284.54766666668,
      "v": 83
    },
    {
      "midi": 47,
      "hit": false,
      "t": 76832.95120833331,
      "d": 241.35739583332906,
      "v": 73
    },
    {
      "midi": 35,
      "hit": false,
      "t": 76832.95120833331,
      "d": 241.35739583332906,
      "v": 73
    },
    {
      "midi": 71,
      "hit": false,
      "t": 76832.95120833347,
      "d": 88.92114583334478,
      "v": 76
    },
    {
      "midi": 76,
      "hit": false,
      "t": 76832.95120833347,
      "d": 88.92114583334478,
      "v": 71
    },
    {
      "midi": 67,
      "hit": false,
      "t": 76835.49181250014,
      "d": 88.92114583334478,
      "v": 75
    },
    {
      "midi": 64,
      "hit": false,
      "t": 76835.49181250014,
      "d": 91.46175000001676,
      "v": 77
    },
    {
      "midi": 52,
      "hit": false,
      "t": 77076.84920833331,
      "d": 500.4990208333329,
      "v": 71
    },
    {
      "midi": 40,
      "hit": false,
      "t": 77076.84920833331,
      "d": 500.4990208333329,
      "v": 71
    },
    {
      "midi": 71,
      "hit": false,
      "t": 77076.84920833349,
      "d": 86.3805416666728,
      "v": 79
    },
    {
      "midi": 76,
      "hit": false,
      "t": 77076.84920833349,
      "d": 88.92114583334478,
      "v": 72
    },
    {
      "midi": 64,
      "hit": false,
      "t": 77079.38981250016,
      "d": 86.3805416666728,
      "v": 76
    },
    {
      "midi": 67,
      "hit": false,
      "t": 77079.38981250016,
      "d": 88.92114583334478,
      "v": 77
    },
    {
      "midi": 67,
      "hit": false,
      "t": 77318.20660416683,
      "d": 259.14162500000384,
      "v": 82
    },
    {
      "midi": 71,
      "hit": false,
      "t": 77318.20660416683,
      "d": 259.14162500000384,
      "v": 82
    },
    {
      "midi": 76,
      "hit": false,
      "t": 77320.7472083335,
      "d": 248.97920833333046,
      "v": 76
    },
    {
      "midi": 64,
      "hit": false,
      "t": 77320.7472083335,
      "d": 251.51981250000244,
      "v": 80
    },
    {
      "midi": 47,
      "hit": false,
      "t": 77562.10460416664,
      "d": 251.51981250000244,
      "v": 76
    },
    {
      "midi": 35,
      "hit": false,
      "t": 77562.10460416664,
      "d": 251.51981250000244,
      "v": 76
    },
    {
      "midi": 52,
      "hit": false,
      "t": 77806.00260416664,
      "d": 287.08827083333745,
      "v": 73
    },
    {
      "midi": 40,
      "hit": false,
      "t": 77806.00260416664,
      "d": 287.08827083333745,
      "v": 73
    },
    {
      "midi": 64,
      "hit": false,
      "t": 77806.00260416683,
      "d": 88.92114583334478,
      "v": 85
    },
    {
      "midi": 76,
      "hit": false,
      "t": 77808.5432083335,
      "d": 43.1902708333364,
      "v": 75
    },
    {
      "midi": 71,
      "hit": false,
      "t": 77808.5432083335,
      "d": 86.3805416666728,
      "v": 87
    },
    {
      "midi": 67,
      "hit": false,
      "t": 77808.5432083335,
      "d": 88.92114583334478,
      "v": 84
    },
    {
      "midi": 61,
      "hit": false,
      "t": 77882.22072916669,
      "d": 1501.4970624999987,
      "v": 61
    },
    {
      "midi": 69,
      "hit": false,
      "t": 77920.32979166669,
      "d": 1445.6037708333315,
      "v": 66
    },
    {
      "midi": 64,
      "hit": false,
      "t": 78009.25093750002,
      "d": 1356.6826250000013,
      "v": 73
    },
    {
      "midi": 57,
      "hit": false,
      "t": 78019.41335416673,
      "d": 1819.0725833333272,
      "v": 91
    },
    {
      "midi": 52,
      "hit": false,
      "t": 78024.49456250005,
      "d": 1755.5574791666586,
      "v": 97
    },
    {
      "midi": 73,
      "hit": false,
      "t": 78034.65697916668,
      "d": 1295.7081250000047,
      "v": 73
    },
    {
      "midi": 45,
      "hit": false,
      "t": 78052.44120833332,
      "d": 520.8238541666651,
      "v": 78
    },
    {
      "midi": 33,
      "hit": false,
      "t": 78052.44120833332,
      "d": 520.8238541666651,
      "v": 78
    },
    {
      "midi": 69,
      "hit": false,
      "t": 78052.44120833352,
      "d": 94.0023541666742,
      "v": 82
    },
    {
      "midi": 64,
      "hit": false,
      "t": 78052.44120833352,
      "d": 99.08356250000361,
      "v": 78
    },
    {
      "midi": 73,
      "hit": false,
      "t": 78054.98181250019,
      "d": 38.109062500006985,
      "v": 80
    },
    {
      "midi": 76,
      "hit": false,
      "t": 78054.98181250019,
      "d": 91.46175000000221,
      "v": 75
    },
    {
      "midi": 73,
      "hit": false,
      "t": 78057.52241666667,
      "d": 1836.856812500002,
      "v": 83
    },
    {
      "midi": 49,
      "hit": false,
      "t": 78057.52241666672,
      "d": 1732.692041666669,
      "v": 101
    },
    {
      "midi": 76,
      "hit": false,
      "t": 78070.22543750002,
      "d": 1280.4645000000019,
      "v": 76
    },
    {
      "midi": 61,
      "hit": false,
      "t": 78082.9284583333,
      "d": 332.8191458333313,
      "v": 80
    },
    {
      "midi": 64,
      "hit": false,
      "t": 78293.79860416686,
      "d": 287.08827083333745,
      "v": 87
    },
    {
      "midi": 73,
      "hit": false,
      "t": 78296.33920833353,
      "d": 282.0070624999935,
      "v": 94
    },
    {
      "midi": 76,
      "hit": false,
      "t": 78296.33920833353,
      "d": 302.3318958333257,
      "v": 86
    },
    {
      "midi": 69,
      "hit": false,
      "t": 78296.33920833353,
      "d": 304.8724999999977,
      "v": 90
    },
    {
      "midi": 61,
      "hit": false,
      "t": 78547.8590208333,
      "d": 200.70772916666465,
      "v": 72
    },
    {
      "midi": 45,
      "hit": false,
      "t": 78784.13520833332,
      "d": 99.08356250000361,
      "v": 68
    },
    {
      "midi": 33,
      "hit": false,
      "t": 78784.13520833332,
      "d": 99.08356250000361,
      "v": 68
    },
    {
      "midi": 64,
      "hit": false,
      "t": 78784.13520833354,
      "d": 256.60102083333186,
      "v": 85
    },
    {
      "midi": 69,
      "hit": false,
      "t": 78784.13520833354,
      "d": 256.60102083333186,
      "v": 85
    },
    {
      "midi": 73,
      "hit": false,
      "t": 78784.13520833354,
      "d": 256.60102083333186,
      "v": 94
    },
    {
      "midi": 76,
      "hit": false,
      "t": 78786.67581250021,
      "d": 279.4664583333215,
      "v": 83
    },
    {
      "midi": 64,
      "hit": false,
      "t": 78791.7570208333,
      "d": 391.25304166667047,
      "v": 66
    },
    {
      "midi": 45,
      "hit": false,
      "t": 79028.03320833332,
      "d": 505.5802291666623,
      "v": 75
    },
    {
      "midi": 33,
      "hit": false,
      "t": 79028.03320833332,
      "d": 505.5802291666623,
      "v": 75
    },
    {
      "midi": 73,
      "hit": false,
      "t": 79269.39060416687,
      "d": 304.8724999999977,
      "v": 92
    },
    {
      "midi": 64,
      "hit": false,
      "t": 79271.93120833354,
      "d": 282.0070624999935,
      "v": 87
    },
    {
      "midi": 69,
      "hit": false,
      "t": 79271.93120833354,
      "d": 297.2506874999963,
      "v": 85
    },
    {
      "midi": 76,
      "hit": false,
      "t": 79271.93120833354,
      "d": 302.3318958333257,
      "v": 80
    },
    {
      "midi": 64,
      "hit": false,
      "t": 79274.47181249998,
      "d": 279.46645833333605,
      "v": 68
    },
    {
      "midi": 62,
      "hit": false,
      "t": 79525.99162499998,
      "d": 215.95135416666744,
      "v": 63
    },
    {
      "midi": 45,
      "hit": false,
      "t": 79759.72720833331,
      "d": 162.59866666667222,
      "v": 62
    },
    {
      "midi": 33,
      "hit": false,
      "t": 79759.72720833331,
      "d": 162.59866666667222,
      "v": 62
    },
    {
      "midi": 76,
      "hit": false,
      "t": 79759.72720833353,
      "d": 45.73087500000838,
      "v": 74
    },
    {
      "midi": 73,
      "hit": false,
      "t": 79759.72720833353,
      "d": 78.7587291666714,
      "v": 94
    },
    {
      "midi": 69,
      "hit": false,
      "t": 79759.72720833353,
      "d": 106.705375000005,
      "v": 84
    },
    {
      "midi": 64,
      "hit": false,
      "t": 79762.2678125002,
      "d": 76.21812499999942,
      "v": 83
    },
    {
      "midi": 61,
      "hit": false,
      "t": 79767.34902083331,
      "d": 111.78658333333442,
      "v": 67
    },
    {
      "midi": 64,
      "hit": false,
      "t": 79833.40472916668,
      "d": 3079.212249999997,
      "v": 65
    },
    {
      "midi": 67,
      "hit": false,
      "t": 79879.13560416667,
      "d": 2982.6692916666652,
      "v": 67
    },
    {
      "midi": 71,
      "hit": false,
      "t": 79950.27252083334,
      "d": 2942.019625000001,
      "v": 66
    },
    {
      "midi": 52,
      "hit": false,
      "t": 79960.43493750005,
      "d": 3711.8226874999964,
      "v": 82
    },
    {
      "midi": 59,
      "hit": false,
      "t": 79975.67856250005,
      "d": 3711.8226874999964,
      "v": 84
    },
    {
      "midi": 55,
      "hit": false,
      "t": 79980.75977083338,
      "d": 3706.741479166667,
      "v": 91
    },
    {
      "midi": 76,
      "hit": false,
      "t": 79996.00339583334,
      "d": 2896.288750000007,
      "v": 69
    },
    {
      "midi": 40,
      "hit": false,
      "t": 80003.62520833331,
      "d": 622.4480208333262,
      "v": 77
    },
    {
      "midi": 28,
      "hit": false,
      "t": 80003.62520833331,
      "d": 622.4480208333262,
      "v": 77
    },
    {
      "midi": 71,
      "hit": false,
      "t": 80003.62520833353,
      "d": 106.705375000005,
      "v": 78
    },
    {
      "midi": 76,
      "hit": false,
      "t": 80003.62520833353,
      "d": 114.3271875000064,
      "v": 73
    },
    {
      "midi": 71,
      "hit": false,
      "t": 80006.16581250001,
      "d": 3737.2287291666726,
      "v": 87
    },
    {
      "midi": 64,
      "hit": false,
      "t": 80006.1658125002,
      "d": 76.21812499999942,
      "v": 77
    },
    {
      "midi": 67,
      "hit": false,
      "t": 80006.1658125002,
      "d": 76.21812499999942,
      "v": 80
    },
    {
      "midi": 59,
      "hit": false,
      "t": 80023.95004166664,
      "d": 393.7936458333279,
      "v": 58
    },
    {
      "midi": 71,
      "hit": false,
      "t": 80244.98260416687,
      "d": 335.35975000000326,
      "v": 78
    },
    {
      "midi": 67,
      "hit": false,
      "t": 80247.52320833354,
      "d": 297.2506874999963,
      "v": 77
    },
    {
      "midi": 76,
      "hit": false,
      "t": 80247.52320833354,
      "d": 297.2506874999963,
      "v": 73
    },
    {
      "midi": 64,
      "hit": false,
      "t": 80247.52320833354,
      "d": 309.9537083333271,
      "v": 83
    },
    {
      "midi": 57,
      "hit": false,
      "t": 80499.0430208333,
      "d": 139.73322916666802,
      "v": 59
    },
    {
      "midi": 47,
      "hit": false,
      "t": 80735.3192083333,
      "d": 241.35739583332906,
      "v": 65
    },
    {
      "midi": 35,
      "hit": false,
      "t": 80735.3192083333,
      "d": 241.35739583332906,
      "v": 65
    },
    {
      "midi": 64,
      "hit": false,
      "t": 80735.31920833355,
      "d": 307.41310416666965,
      "v": 75
    },
    {
      "midi": 71,
      "hit": false,
      "t": 80735.31920833355,
      "d": 327.73793750000186,
      "v": 72
    },
    {
      "midi": 76,
      "hit": false,
      "t": 80735.31920833355,
      "d": 327.73793750000186,
      "v": 70
    },
    {
      "midi": 67,
      "hit": false,
      "t": 80737.85981250022,
      "d": 299.79129166666826,
      "v": 73
    },
    {
      "midi": 59,
      "hit": false,
      "t": 80763.26585416663,
      "d": 2118.8638749999955,
      "v": 53
    },
    {
      "midi": 52,
      "hit": false,
      "t": 80979.2172083333,
      "d": 594.5013750000071,
      "v": 70
    },
    {
      "midi": 40,
      "hit": false,
      "t": 80979.2172083333,
      "d": 594.5013750000071,
      "v": 70
    },
    {
      "midi": 71,
      "hit": false,
      "t": 81220.57460416688,
      "d": 312.4943125000136,
      "v": 73
    },
    {
      "midi": 64,
      "hit": false,
      "t": 81223.11520833355,
      "d": 264.22283333333326,
      "v": 79
    },
    {
      "midi": 67,
      "hit": false,
      "t": 81223.11520833355,
      "d": 294.71008333333884,
      "v": 71
    },
    {
      "midi": 76,
      "hit": false,
      "t": 81223.11520833355,
      "d": 312.4943125000136,
      "v": 70
    },
    {
      "midi": 47,
      "hit": false,
      "t": 81708.37060416664,
      "d": 243.89800000000105,
      "v": 55
    },
    {
      "midi": 35,
      "hit": false,
      "t": 81708.37060416664,
      "d": 243.89800000000105,
      "v": 55
    },
    {
      "midi": 76,
      "hit": false,
      "t": 81710.91120833356,
      "d": 78.7587291666714,
      "v": 73
    },
    {
      "midi": 67,
      "hit": false,
      "t": 81710.91120833356,
      "d": 81.29933333334338,
      "v": 73
    },
    {
      "midi": 64,
      "hit": false,
      "t": 81710.91120833356,
      "d": 86.3805416666728,
      "v": 74
    },
    {
      "midi": 71,
      "hit": false,
      "t": 81710.91120833356,
      "d": 104.16477083333302,
      "v": 76
    },
    {
      "midi": 40,
      "hit": false,
      "t": 81954.80920833332,
      "d": 119.40839583333582,
      "v": 60
    },
    {
      "midi": 28,
      "hit": false,
      "t": 81954.80920833332,
      "d": 119.40839583333582,
      "v": 60
    },
    {
      "midi": 71,
      "hit": false,
      "t": 81957.34981250024,
      "d": 83.83993750000081,
      "v": 72
    },
    {
      "midi": 67,
      "hit": false,
      "t": 81957.34981250024,
      "d": 86.3805416666728,
      "v": 75
    },
    {
      "midi": 76,
      "hit": false,
      "t": 81957.34981250024,
      "d": 86.3805416666728,
      "v": 68
    },
    {
      "midi": 64,
      "hit": false,
      "t": 81957.34981250024,
      "d": 88.92114583334478,
      "v": 75
    },
    {
      "midi": 40,
      "hit": false,
      "t": 82196.16660416665,
      "d": 411.5778750000027,
      "v": 70
    },
    {
      "midi": 28,
      "hit": false,
      "t": 82196.16660416665,
      "d": 411.5778750000027,
      "v": 70
    },
    {
      "midi": 67,
      "hit": false,
      "t": 82198.70720833358,
      "d": 292.16947916666686,
      "v": 79
    },
    {
      "midi": 64,
      "hit": false,
      "t": 82198.70720833358,
      "d": 297.2506874999963,
      "v": 79
    },
    {
      "midi": 71,
      "hit": false,
      "t": 82198.70720833358,
      "d": 297.2506874999963,
      "v": 77
    },
    {
      "midi": 76,
      "hit": false,
      "t": 82198.70720833358,
      "d": 297.2506874999963,
      "v": 74
    },
    {
      "midi": 47,
      "hit": false,
      "t": 82683.96260416665,
      "d": 231.19497916667024,
      "v": 70
    },
    {
      "midi": 35,
      "hit": false,
      "t": 82683.96260416665,
      "d": 231.19497916667024,
      "v": 70
    },
    {
      "midi": 67,
      "hit": false,
      "t": 82686.50320833358,
      "d": 289.62887500000943,
      "v": 81
    },
    {
      "midi": 64,
      "hit": false,
      "t": 82686.50320833358,
      "d": 292.1694791666814,
      "v": 77
    },
    {
      "midi": 76,
      "hit": false,
      "t": 82686.50320833358,
      "d": 294.7100833333534,
      "v": 75
    },
    {
      "midi": 71,
      "hit": false,
      "t": 82689.04381250025,
      "d": 292.1694791666814,
      "v": 79
    },
    {
      "midi": 52,
      "hit": false,
      "t": 82930.40120833332,
      "d": 256.60102083333186,
      "v": 73
    },
    {
      "midi": 40,
      "hit": false,
      "t": 82930.40120833332,
      "d": 256.60102083333186,
      "v": 73
    },
    {
      "midi": 47,
      "hit": false,
      "t": 83171.75860416665,
      "d": 238.81679166667163,
      "v": 70
    },
    {
      "midi": 35,
      "hit": false,
      "t": 83171.75860416665,
      "d": 238.81679166667163,
      "v": 70
    },
    {
      "midi": 67,
      "hit": false,
      "t": 83174.2992083336,
      "d": 83.83993750000081,
      "v": 75
    },
    {
      "midi": 71,
      "hit": false,
      "t": 83174.2992083336,
      "d": 83.83993750000081,
      "v": 78
    },
    {
      "midi": 76,
      "hit": false,
      "t": 83174.2992083336,
      "d": 83.83993750000081,
      "v": 75
    },
    {
      "midi": 64,
      "hit": false,
      "t": 83174.2992083336,
      "d": 104.16477083333302,
      "v": 75
    },
    {
      "midi": 40,
      "hit": false,
      "t": 83418.19720833332,
      "d": 383.6312291666691,
      "v": 74
    },
    {
      "midi": 28,
      "hit": false,
      "t": 83418.19720833332,
      "d": 383.6312291666691,
      "v": 74
    },
    {
      "midi": 64,
      "hit": false,
      "t": 83418.1972083336,
      "d": 91.46175000000221,
      "v": 80
    },
    {
      "midi": 71,
      "hit": false,
      "t": 83418.1972083336,
      "d": 91.46175000000221,
      "v": 82
    },
    {
      "midi": 76,
      "hit": false,
      "t": 83418.1972083336,
      "d": 114.3271875000064,
      "v": 77
    },
    {
      "midi": 67,
      "hit": false,
      "t": 83420.73781250027,
      "d": 88.92114583333023,
      "v": 83
    },
    {
      "midi": 71,
      "hit": false,
      "t": 83659.55460416694,
      "d": 94.0023541666742,
      "v": 84
    },
    {
      "midi": 76,
      "hit": false,
      "t": 83659.55460416694,
      "d": 94.0023541666742,
      "v": 77
    },
    {
      "midi": 64,
      "hit": false,
      "t": 83662.09520833362,
      "d": 91.46175000000221,
      "v": 80
    },
    {
      "midi": 67,
      "hit": false,
      "t": 83662.09520833362,
      "d": 91.46175000000221,
      "v": 83
    },
    {
      "midi": 61,
      "hit": false,
      "t": 83723.06970833334,
      "d": 1684.4205625000177,
      "v": 60
    },
    {
      "midi": 69,
      "hit": false,
      "t": 83781.50360416668,
      "d": 1592.9588125000155,
      "v": 63
    },
    {
      "midi": 64,
      "hit": false,
      "t": 83852.64052083335,
      "d": 1575.1745833333407,
      "v": 71
    },
    {
      "midi": 73,
      "hit": false,
      "t": 83855.18112500002,
      "d": 1483.7128333333385,
      "v": 72
    },
    {
      "midi": 76,
      "hit": false,
      "t": 83883.12777083335,
      "d": 1471.0098125000077,
      "v": 75
    },
    {
      "midi": 45,
      "hit": false,
      "t": 83905.99320833333,
      "d": 475.0929791666713,
      "v": 77
    },
    {
      "midi": 33,
      "hit": false,
      "t": 83905.99320833333,
      "d": 475.0929791666713,
      "v": 77
    },
    {
      "midi": 64,
      "hit": false,
      "t": 83905.99320833362,
      "d": 99.08356250000361,
      "v": 86
    },
    {
      "midi": 73,
      "hit": false,
      "t": 83908.53381250001,
      "d": 1900.3719166666706,
      "v": 109
    },
    {
      "midi": 69,
      "hit": false,
      "t": 83908.53381250029,
      "d": 88.92114583333023,
      "v": 87
    },
    {
      "midi": 73,
      "hit": false,
      "t": 83908.53381250029,
      "d": 88.92114583333023,
      "v": 94
    },
    {
      "midi": 76,
      "hit": false,
      "t": 83908.53381250029,
      "d": 96.54295833333163,
      "v": 81
    },
    {
      "midi": 61,
      "hit": false,
      "t": 83911.07441666663,
      "d": 378.55002083333966,
      "v": 91
    },
    {
      "midi": 61,
      "hit": false,
      "t": 83911.07441666671,
      "d": 1671.7175416666723,
      "v": 99
    },
    {
      "midi": 52,
      "hit": false,
      "t": 83911.07441666671,
      "d": 1704.7453958333354,
      "v": 92
    },
    {
      "midi": 57,
      "hit": false,
      "t": 83939.02106250005,
      "d": 1692.0423750000045,
      "v": 97
    },
    {
      "midi": 64,
      "hit": false,
      "t": 84147.35060416696,
      "d": 271.84464583333465,
      "v": 87
    },
    {
      "midi": 69,
      "hit": false,
      "t": 84149.89120833363,
      "d": 284.54766666666546,
      "v": 90
    },
    {
      "midi": 73,
      "hit": false,
      "t": 84149.89120833363,
      "d": 289.6288749999949,
      "v": 95
    },
    {
      "midi": 76,
      "hit": false,
      "t": 84149.89120833363,
      "d": 292.16947916666686,
      "v": 85
    },
    {
      "midi": 61,
      "hit": false,
      "t": 84411.57343749996,
      "d": 101.62416666666104,
      "v": 74
    },
    {
      "midi": 45,
      "hit": false,
      "t": 84637.68720833333,
      "d": 99.08356250000361,
      "v": 63
    },
    {
      "midi": 33,
      "hit": false,
      "t": 84637.68720833333,
      "d": 99.08356250000361,
      "v": 63
    },
    {
      "midi": 64,
      "hit": false,
      "t": 84637.68720833363,
      "d": 284.54766666666546,
      "v": 86
    },
    {
      "midi": 76,
      "hit": false,
      "t": 84637.68720833363,
      "d": 322.6567291666579,
      "v": 84
    },
    {
      "midi": 73,
      "hit": false,
      "t": 84640.2278125003,
      "d": 299.7912916666537,
      "v": 95
    },
    {
      "midi": 69,
      "hit": false,
      "t": 84640.2278125003,
      "d": 312.4943124999845,
      "v": 87
    },
    {
      "midi": 61,
      "hit": false,
      "t": 84647.84962499996,
      "d": 579.2577500000043,
      "v": 83
    },
    {
      "midi": 45,
      "hit": false,
      "t": 84881.58520833333,
      "d": 609.7449999999953,
      "v": 77
    },
    {
      "midi": 33,
      "hit": false,
      "t": 84881.58520833333,
      "d": 609.7449999999953,
      "v": 77
    },
    {
      "midi": 73,
      "hit": false,
      "t": 85122.94260416696,
      "d": 315.03491666667105,
      "v": 94
    },
    {
      "midi": 69,
      "hit": false,
      "t": 85122.94260416696,
      "d": 327.73793750000186,
      "v": 87
    },
    {
      "midi": 64,
      "hit": false,
      "t": 85125.48320833364,
      "d": 282.0070624999935,
      "v": 87
    },
    {
      "midi": 76,
      "hit": false,
      "t": 85125.48320833364,
      "d": 327.73793750000186,
      "v": 84
    },
    {
      "midi": 61,
      "hit": false,
      "t": 85349.05637499996,
      "d": 322.65672916667245,
      "v": 95
    },
    {
      "midi": 45,
      "hit": false,
      "t": 85610.73860416666,
      "d": 231.19497916667024,
      "v": 56
    },
    {
      "midi": 33,
      "hit": false,
      "t": 85610.73860416666,
      "d": 231.19497916667024,
      "v": 56
    },
    {
      "midi": 69,
      "hit": false,
      "t": 85613.27920833364,
      "d": 71.13691666667,
      "v": 75
    },
    {
      "midi": 73,
      "hit": false,
      "t": 85613.27920833364,
      "d": 78.7587291666714,
      "v": 82
    },
    {
      "midi": 64,
      "hit": false,
      "t": 85613.27920833364,
      "d": 106.705375000005,
      "v": 79
    },
    {
      "midi": 76,
      "hit": false,
      "t": 85613.27920833364,
      "d": 109.24597916667699,
      "v": 75
    },
    {
      "midi": 67,
      "hit": false,
      "t": 85735.22820833336,
      "d": 1252.5178541666683,
      "v": 74
    },
    {
      "midi": 62,
      "hit": false,
      "t": 85808.90572916668,
      "d": 1178.8403333333408,
      "v": 72
    },
    {
      "midi": 71,
      "hit": false,
      "t": 85808.90572916668,
      "d": 1199.165166666673,
      "v": 68
    },
    {
      "midi": 59,
      "hit": false,
      "t": 85819.06814583339,
      "d": 1742.8544583333278,
      "v": 92
    },
    {
      "midi": 50,
      "hit": false,
      "t": 85821.60875000006,
      "d": 1707.2859999999928,
      "v": 98
    },
    {
      "midi": 55,
      "hit": false,
      "t": 85847.01479166672,
      "d": 1714.9078124999942,
      "v": 98
    },
    {
      "midi": 43,
      "hit": false,
      "t": 85857.17720833333,
      "d": 533.5268749999959,
      "v": 79
    },
    {
      "midi": 31,
      "hit": false,
      "t": 85857.17720833333,
      "d": 533.5268749999959,
      "v": 79
    },
    {
      "midi": 62,
      "hit": false,
      "t": 85857.17720833365,
      "d": 109.24597916667699,
      "v": 88
    },
    {
      "midi": 74,
      "hit": false,
      "t": 85857.17720833365,
      "d": 109.24597916667699,
      "v": 87
    },
    {
      "midi": 74,
      "hit": false,
      "t": 85859.71781250002,
      "d": 1422.7383333333273,
      "v": 104
    },
    {
      "midi": 71,
      "hit": false,
      "t": 85859.71781250033,
      "d": 106.705375000005,
      "v": 89
    },
    {
      "midi": 67,
      "hit": false,
      "t": 85859.71781250033,
      "d": 109.24597916667699,
      "v": 92
    },
    {
      "midi": 74,
      "hit": false,
      "t": 85874.96143750002,
      "d": 1092.459791666668,
      "v": 73
    },
    {
      "midi": 59,
      "hit": false,
      "t": 85887.6644583333,
      "d": 409.0372708333307,
      "v": 58
    },
    {
      "midi": 62,
      "hit": false,
      "t": 86098.534604167,
      "d": 312.49431249999907,
      "v": 94
    },
    {
      "midi": 67,
      "hit": false,
      "t": 86101.07520833367,
      "d": 312.49431249999907,
      "v": 92
    },
    {
      "midi": 71,
      "hit": false,
      "t": 86101.07520833367,
      "d": 315.03491666667105,
      "v": 92
    },
    {
      "midi": 74,
      "hit": false,
      "t": 86101.07520833367,
      "d": 337.90035416667524,
      "v": 91
    },
    {
      "midi": 59,
      "hit": false,
      "t": 86375.4604583333,
      "d": 236.27618749999965,
      "v": 58
    },
    {
      "midi": 43,
      "hit": false,
      "t": 86588.87120833334,
      "d": 114.3271875000064,
      "v": 64
    },
    {
      "midi": 31,
      "hit": false,
      "t": 86588.87120833334,
      "d": 114.3271875000064,
      "v": 64
    },
    {
      "midi": 62,
      "hit": false,
      "t": 86588.87120833367,
      "d": 269.3040416666772,
      "v": 91
    },
    {
      "midi": 71,
      "hit": false,
      "t": 86588.87120833367,
      "d": 287.08827083333745,
      "v": 91
    },
    {
      "midi": 74,
      "hit": false,
      "t": 86588.87120833367,
      "d": 287.08827083333745,
      "v": 89
    },
    {
      "midi": 67,
      "hit": false,
      "t": 86591.41181250034,
      "d": 284.54766666666546,
      "v": 89
    },
    {
      "midi": 57,
      "hit": false,
      "t": 86626.9802708333,
      "d": 711.3691666666709,
      "v": 72
    },
    {
      "midi": 43,
      "hit": false,
      "t": 86832.76920833334,
      "d": 599.5825833333365,
      "v": 75
    },
    {
      "midi": 31,
      "hit": false,
      "t": 86832.76920833334,
      "d": 599.5825833333365,
      "v": 75
    },
    {
      "midi": 74,
      "hit": false,
      "t": 87074.12660416702,
      "d": 330.2785416666593,
      "v": 81
    },
    {
      "midi": 62,
      "hit": false,
      "t": 87076.66720833369,
      "d": 289.6288749999949,
      "v": 87
    },
    {
      "midi": 67,
      "hit": false,
      "t": 87076.66720833369,
      "d": 307.4131041666551,
      "v": 80
    },
    {
      "midi": 71,
      "hit": false,
      "t": 87076.66720833369,
      "d": 327.7379374999873,
      "v": 83
    },
    {
      "midi": 76,
      "hit": false,
      "t": 87320.56520833336,
      "d": 327.73793750000186,
      "v": 102
    },
    {
      "midi": 55,
      "hit": false,
      "t": 87330.72762499997,
      "d": 322.65672916667245,
      "v": 82
    },
    {
      "midi": 43,
      "hit": false,
      "t": 87564.46320833334,
      "d": 221.03256249999686,
      "v": 59
    },
    {
      "midi": 31,
      "hit": false,
      "t": 87564.46320833334,
      "d": 221.03256249999686,
      "v": 59
    },
    {
      "midi": 71,
      "hit": false,
      "t": 87564.46320833368,
      "d": 86.3805416666728,
      "v": 87
    },
    {
      "midi": 74,
      "hit": false,
      "t": 87564.46320833368,
      "d": 94.0023541666742,
      "v": 87
    },
    {
      "midi": 67,
      "hit": false,
      "t": 87567.00381250035,
      "d": 81.29933333332883,
      "v": 81
    },
    {
      "midi": 62,
      "hit": false,
      "t": 87567.00381250035,
      "d": 91.46175000000221,
      "v": 83
    },
    {
      "midi": 66,
      "hit": false,
      "t": 87653.38435416669,
      "d": 1194.083958333329,
      "v": 65
    },
    {
      "midi": 61,
      "hit": false,
      "t": 87706.73704166668,
      "d": 1923.2373541666748,
      "v": 73
    },
    {
      "midi": 70,
      "hit": false,
      "t": 87727.06187500001,
      "d": 1343.979604166685,
      "v": 69
    },
    {
      "midi": 49,
      "hit": false,
      "t": 87780.41456250005,
      "d": 3622.901541666666,
      "v": 104
    },
    {
      "midi": 54,
      "hit": false,
      "t": 87780.41456250005,
      "d": 3643.2263749999984,
      "v": 104
    },
    {
      "midi": 58,
      "hit": false,
      "t": 87780.41456250005,
      "d": 3655.929395833329,
      "v": 98
    },
    {
      "midi": 73,
      "hit": false,
      "t": 87795.65818750001,
      "d": 1252.5178541666828,
      "v": 74
    },
    {
      "midi": 42,
      "hit": false,
      "t": 87808.36120833334,
      "d": 510.6614375000063,
      "v": 88
    },
    {
      "midi": 30,
      "hit": false,
      "t": 87808.36120833334,
      "d": 510.6614375000063,
      "v": 88
    },
    {
      "midi": 61,
      "hit": false,
      "t": 87808.36120833368,
      "d": 50.812083333337796,
      "v": 94
    },
    {
      "midi": 70,
      "hit": false,
      "t": 87808.36120833368,
      "d": 99.08356250000361,
      "v": 89
    },
    {
      "midi": 78,
      "hit": false,
      "t": 87810.90181250003,
      "d": 104.16477083333302,
      "v": 127
    },
    {
      "midi": 73,
      "hit": false,
      "t": 87810.90181250035,
      "d": 48.27147916666581,
      "v": 83
    },
    {
      "midi": 66,
      "hit": false,
      "t": 87810.90181250035,
      "d": 96.54295833333163,
      "v": 92
    },
    {
      "midi": 54,
      "hit": false,
      "t": 87815.98302083332,
      "d": 2896.288750000007,
      "v": 74
    },
    {
      "midi": 76,
      "hit": false,
      "t": 87927.7696041667,
      "d": 129.57081249999464,
      "v": 111
    },
    {
      "midi": 61,
      "hit": false,
      "t": 88049.71860416702,
      "d": 279.46645833333605,
      "v": 113
    },
    {
      "midi": 70,
      "hit": false,
      "t": 88049.71860416702,
      "d": 279.46645833333605,
      "v": 95
    },
    {
      "midi": 78,
      "hit": false,
      "t": 88052.25920833336,
      "d": 1084.8379791666666,
      "v": 117
    },
    {
      "midi": 66,
      "hit": false,
      "t": 88052.2592083337,
      "d": 276.92585416666407,
      "v": 93
    },
    {
      "midi": 73,
      "hit": false,
      "t": 88052.2592083337,
      "d": 297.2506874999963,
      "v": 95
    },
    {
      "midi": 42,
      "hit": false,
      "t": 88537.51460416669,
      "d": 101.62416666666104,
      "v": 70
    },
    {
      "midi": 30,
      "hit": false,
      "t": 88537.51460416669,
      "d": 101.62416666666104,
      "v": 70
    },
    {
      "midi": 73,
      "hit": false,
      "t": 88540.0552083337,
      "d": 200.70772916666465,
      "v": 88
    },
    {
      "midi": 70,
      "hit": false,
      "t": 88540.0552083337,
      "d": 203.24833333333663,
      "v": 93
    },
    {
      "midi": 66,
      "hit": false,
      "t": 88540.0552083337,
      "d": 213.41075000001,
      "v": 90
    },
    {
      "midi": 61,
      "hit": false,
      "t": 88540.0552083337,
      "d": 289.62887500000943,
      "v": 100
    },
    {
      "midi": 42,
      "hit": false,
      "t": 88783.95320833335,
      "d": 617.3668124999967,
      "v": 88
    },
    {
      "midi": 30,
      "hit": false,
      "t": 88783.95320833335,
      "d": 617.3668124999967,
      "v": 88
    },
    {
      "midi": 66,
      "hit": false,
      "t": 89017.68879166669,
      "d": 528.4456666666665,
      "v": 77
    },
    {
      "midi": 66,
      "hit": false,
      "t": 89025.31060416704,
      "d": 287.08827083333745,
      "v": 95
    },
    {
      "midi": 70,
      "hit": false,
      "t": 89027.85120833371,
      "d": 264.22283333333326,
      "v": 83
    },
    {
      "midi": 73,
      "hit": false,
      "t": 89027.85120833371,
      "d": 282.0070624999935,
      "v": 93
    },
    {
      "midi": 61,
      "hit": false,
      "t": 89027.85120833371,
      "d": 307.41310416666965,
      "v": 90
    },
    {
      "midi": 70,
      "hit": false,
      "t": 89259.04618750003,
      "d": 335.3597499999887,
      "v": 80
    },
    {
      "midi": 78,
      "hit": false,
      "t": 89271.74920833336,
      "d": 129.5708125000092,
      "v": 127
    },
    {
      "midi": 79,
      "hit": false,
      "t": 89391.1576041667,
      "d": 149.8956458333414,
      "v": 108
    },
    {
      "midi": 73,
      "hit": false,
      "t": 89492.78177083336,
      "d": 5.081208333329414,
      "v": 75
    },
    {
      "midi": 49,
      "hit": false,
      "t": 89513.10660416668,
      "d": 228.65437499999825,
      "v": 78
    },
    {
      "midi": 37,
      "hit": false,
      "t": 89513.10660416668,
      "d": 228.65437499999825,
      "v": 78
    },
    {
      "midi": 66,
      "hit": false,
      "t": 89515.64720833371,
      "d": 86.3805416666728,
      "v": 94
    },
    {
      "midi": 70,
      "hit": false,
      "t": 89515.64720833371,
      "d": 88.92114583334478,
      "v": 83
    },
    {
      "midi": 61,
      "hit": false,
      "t": 89515.64720833371,
      "d": 94.0023541666742,
      "v": 95
    },
    {
      "midi": 73,
      "hit": false,
      "t": 89515.64720833371,
      "d": 94.0023541666742,
      "v": 93
    },
    {
      "midi": 78,
      "hit": false,
      "t": 89518.18781250004,
      "d": 116.86779166666383,
      "v": 119
    },
    {
      "midi": 76,
      "hit": false,
      "t": 89635.0556041667,
      "d": 149.89564583332685,
      "v": 115
    },
    {
      "midi": 61,
      "hit": false,
      "t": 89655.38043750002,
      "d": 1410.035312500011,
      "v": 75
    },
    {
      "midi": 66,
      "hit": false,
      "t": 89675.70527083335,
      "d": 1407.4947083333536,
      "v": 78
    },
    {
      "midi": 70,
      "hit": false,
      "t": 89706.19252083336,
      "d": 1374.466854166676,
      "v": 63
    },
    {
      "midi": 54,
      "hit": false,
      "t": 89759.54520833334,
      "d": 736.7752083333326,
      "v": 81
    },
    {
      "midi": 42,
      "hit": false,
      "t": 89759.54520833334,
      "d": 736.7752083333326,
      "v": 81
    },
    {
      "midi": 61,
      "hit": false,
      "t": 89759.54520833371,
      "d": 99.08356250000361,
      "v": 100
    },
    {
      "midi": 70,
      "hit": false,
      "t": 89762.08581250039,
      "d": 48.27147916666581,
      "v": 90
    },
    {
      "midi": 66,
      "hit": false,
      "t": 89762.08581250039,
      "d": 83.83993750000081,
      "v": 96
    },
    {
      "midi": 73,
      "hit": false,
      "t": 89762.08581250039,
      "d": 88.92114583333023,
      "v": 100
    },
    {
      "midi": 78,
      "hit": false,
      "t": 89764.6264166667,
      "d": 393.7936458333279,
      "v": 121
    },
    {
      "midi": 73,
      "hit": false,
      "t": 89764.6264166667,
      "d": 833.3181666666642,
      "v": 80
    },
    {
      "midi": 78,
      "hit": false,
      "t": 89787.4918541667,
      "d": 1295.7081250000047,
      "v": 76
    },
    {
      "midi": 70,
      "hit": false,
      "t": 90003.44320833372,
      "d": 287.08827083333745,
      "v": 94
    },
    {
      "midi": 61,
      "hit": false,
      "t": 90003.44320833372,
      "d": 322.65672916667245,
      "v": 105
    },
    {
      "midi": 66,
      "hit": false,
      "t": 90003.44320833372,
      "d": 325.19733333334443,
      "v": 109
    },
    {
      "midi": 73,
      "hit": false,
      "t": 90003.44320833372,
      "d": 342.98156250000466,
      "v": 102
    },
    {
      "midi": 78,
      "hit": false,
      "t": 90247.34120833335,
      "d": 111.78658333333442,
      "v": 124
    },
    {
      "midi": 79,
      "hit": false,
      "t": 90366.74960416669,
      "d": 144.81443749999744,
      "v": 103
    },
    {
      "midi": 49,
      "hit": false,
      "t": 90491.23920833334,
      "d": 236.27618749999965,
      "v": 75
    },
    {
      "midi": 37,
      "hit": false,
      "t": 90491.23920833334,
      "d": 236.27618749999965,
      "v": 75
    },
    {
      "midi": 73,
      "hit": false,
      "t": 90491.23920833372,
      "d": 309.95370833334164,
      "v": 95
    },
    {
      "midi": 61,
      "hit": false,
      "t": 90491.23920833372,
      "d": 312.4943125000136,
      "v": 95
    },
    {
      "midi": 66,
      "hit": false,
      "t": 90491.23920833372,
      "d": 312.4943125000136,
      "v": 93
    },
    {
      "midi": 78,
      "hit": false,
      "t": 90493.77981250003,
      "d": 129.57081249999464,
      "v": 121
    },
    {
      "midi": 70,
      "hit": false,
      "t": 90493.77981250039,
      "d": 294.71008333333884,
      "v": 85
    },
    {
      "midi": 76,
      "hit": false,
      "t": 90610.64760416669,
      "d": 134.6520208333386,
      "v": 107
    },
    {
      "midi": 54,
      "hit": false,
      "t": 90735.13720833334,
      "d": 269.30404166666267,
      "v": 82
    },
    {
      "midi": 42,
      "hit": false,
      "t": 90735.13720833334,
      "d": 269.30404166666267,
      "v": 82
    },
    {
      "midi": 78,
      "hit": false,
      "t": 90735.13720833336,
      "d": 914.6175000000076,
      "v": 124
    },
    {
      "midi": 49,
      "hit": false,
      "t": 90976.49460416667,
      "d": 251.51981250000244,
      "v": 78
    },
    {
      "midi": 37,
      "hit": false,
      "t": 90976.49460416667,
      "d": 251.51981250000244,
      "v": 78
    },
    {
      "midi": 70,
      "hit": false,
      "t": 90979.03520833373,
      "d": 490.3366041666595,
      "v": 77
    },
    {
      "midi": 73,
      "hit": false,
      "t": 90979.03520833373,
      "d": 530.9862708333239,
      "v": 85
    },
    {
      "midi": 61,
      "hit": false,
      "t": 90979.03520833373,
      "d": 533.5268749999959,
      "v": 76
    },
    {
      "midi": 66,
      "hit": false,
      "t": 90979.03520833373,
      "d": 533.5268749999959,
      "v": 82
    },
    {
      "midi": 42,
      "hit": false,
      "t": 91220.39260416667,
      "d": 289.6288749999949,
      "v": 84
    },
    {
      "midi": 30,
      "hit": false,
      "t": 91220.39260416667,
      "d": 289.6288749999949,
      "v": 84
    },
    {
      "midi": 66,
      "hit": false,
      "t": 91710.72920833332,
      "d": 602.123187499994,
      "v": 80
    },
    {
      "midi": 75,
      "hit": false,
      "t": 91710.72920833332,
      "d": 614.8262083333248,
      "v": 75
    },
    {
      "midi": 47,
      "hit": false,
      "t": 91710.72920833333,
      "d": 546.2298958333267,
      "v": 98
    },
    {
      "midi": 35,
      "hit": false,
      "t": 91710.72920833333,
      "d": 546.2298958333267,
      "v": 98
    },
    {
      "midi": 71,
      "hit": false,
      "t": 91713.2698125004,
      "d": 83.83993750000081,
      "v": 85
    },
    {
      "midi": 66,
      "hit": false,
      "t": 91713.2698125004,
      "d": 86.3805416666728,
      "v": 87
    },
    {
      "midi": 75,
      "hit": false,
      "t": 91713.2698125004,
      "d": 99.08356250000361,
      "v": 71
    },
    {
      "midi": 63,
      "hit": false,
      "t": 91723.43222916666,
      "d": 558.9329166666721,
      "v": 87
    },
    {
      "midi": 54,
      "hit": false,
      "t": 91733.59464583338,
      "d": 1283.0051041666738,
      "v": 111
    },
    {
      "midi": 63,
      "hit": false,
      "t": 91733.59464583338,
      "d": 1285.5457083333458,
      "v": 100
    },
    {
      "midi": 66,
      "hit": false,
      "t": 91952.08660416707,
      "d": 266.76343750000524,
      "v": 96
    },
    {
      "midi": 75,
      "hit": false,
      "t": 91952.08660416707,
      "d": 266.76343750000524,
      "v": 89
    },
    {
      "midi": 71,
      "hit": false,
      "t": 91954.62720833374,
      "d": 233.73558333332767,
      "v": 92
    },
    {
      "midi": 66,
      "hit": false,
      "t": 92429.72018749997,
      "d": 614.8262083333393,
      "v": 76
    },
    {
      "midi": 75,
      "hit": false,
      "t": 92429.72018749997,
      "d": 645.3134583333449,
      "v": 74
    },
    {
      "midi": 47,
      "hit": false,
      "t": 92442.42320833332,
      "d": 215.95135416666744,
      "v": 61
    },
    {
      "midi": 35,
      "hit": false,
      "t": 92442.42320833332,
      "d": 215.95135416666744,
      "v": 61
    },
    {
      "midi": 75,
      "hit": false,
      "t": 92442.42320833374,
      "d": 58.43389583333919,
      "v": 78
    },
    {
      "midi": 71,
      "hit": false,
      "t": 92442.42320833374,
      "d": 86.3805416666728,
      "v": 84
    },
    {
      "midi": 66,
      "hit": false,
      "t": 92442.42320833374,
      "d": 88.92114583334478,
      "v": 81
    },
    {
      "midi": 63,
      "hit": false,
      "t": 92470.36985416667,
      "d": 668.1788958333345,
      "v": 78
    },
    {
      "midi": 42,
      "hit": false,
      "t": 92686.32120833332,
      "d": 485.2553958333301,
      "v": 91
    },
    {
      "midi": 30,
      "hit": false,
      "t": 92686.32120833332,
      "d": 485.2553958333301,
      "v": 91
    },
    {
      "midi": 75,
      "hit": false,
      "t": 92686.32120833376,
      "d": 99.08356250000361,
      "v": 86
    },
    {
      "midi": 66,
      "hit": false,
      "t": 92686.32120833376,
      "d": 104.16477083333302,
      "v": 88
    },
    {
      "midi": 71,
      "hit": false,
      "t": 92686.32120833376,
      "d": 104.16477083333302,
      "v": 89
    },
    {
      "midi": 75,
      "hit": false,
      "t": 92927.67860416709,
      "d": 50.812083333337796,
      "v": 47
    },
    {
      "midi": 73,
      "hit": false,
      "t": 93153.79237499999,
      "d": 480.1741875000007,
      "v": 78
    },
    {
      "midi": 52,
      "hit": false,
      "t": 93174.1172083334,
      "d": 287.08827083333745,
      "v": 102
    },
    {
      "midi": 61,
      "hit": false,
      "t": 93174.1172083334,
      "d": 388.7124374999985,
      "v": 104
    },
    {
      "midi": 73,
      "hit": false,
      "t": 93174.11720833376,
      "d": 322.65672916667245,
      "v": 95
    },
    {
      "midi": 64,
      "hit": false,
      "t": 93176.6578125,
      "d": 360.7657916666649,
      "v": 74
    },
    {
      "midi": 66,
      "hit": false,
      "t": 93176.65781250043,
      "d": 284.54766666666546,
      "v": 100
    },
    {
      "midi": 70,
      "hit": false,
      "t": 93176.65781250043,
      "d": 284.54766666666546,
      "v": 96
    },
    {
      "midi": 61,
      "hit": false,
      "t": 93181.73902083334,
      "d": 325.1973333333299,
      "v": 80
    },
    {
      "midi": 42,
      "hit": false,
      "t": 93415.47460416665,
      "d": 208.32954166666605,
      "v": 60
    },
    {
      "midi": 30,
      "hit": false,
      "t": 93415.47460416665,
      "d": 208.32954166666605,
      "v": 60
    },
    {
      "midi": 51,
      "hit": false,
      "t": 93651.75079166672,
      "d": 1308.4111458333355,
      "v": 105
    },
    {
      "midi": 59,
      "hit": false,
      "t": 93651.75079166672,
      "d": 1394.7916875000083,
      "v": 96
    },
    {
      "midi": 47,
      "hit": false,
      "t": 93661.91320833332,
      "d": 495.4178125000035,
      "v": 78
    },
    {
      "midi": 35,
      "hit": false,
      "t": 93661.91320833332,
      "d": 495.4178125000035,
      "v": 78
    },
    {
      "midi": 71,
      "hit": false,
      "t": 93661.91320833376,
      "d": 88.92114583334478,
      "v": 84
    },
    {
      "midi": 75,
      "hit": false,
      "t": 93661.91320833376,
      "d": 88.92114583334478,
      "v": 81
    },
    {
      "midi": 66,
      "hit": false,
      "t": 93664.45381250043,
      "d": 86.3805416666728,
      "v": 88
    },
    {
      "midi": 71,
      "hit": false,
      "t": 93672.075625,
      "d": 584.3389583333337,
      "v": 69
    },
    {
      "midi": 63,
      "hit": false,
      "t": 93674.61622916667,
      "d": 569.0953333333309,
      "v": 80
    },
    {
      "midi": 59,
      "hit": false,
      "t": 93694.9410625,
      "d": 553.8517083333281,
      "v": 65
    },
    {
      "midi": 75,
      "hit": false,
      "t": 93903.2706041671,
      "d": 292.1694791666814,
      "v": 88
    },
    {
      "midi": 66,
      "hit": false,
      "t": 93905.81120833378,
      "d": 274.38525000000664,
      "v": 93
    },
    {
      "midi": 71,
      "hit": false,
      "t": 93905.81120833378,
      "d": 294.71008333333884,
      "v": 92
    },
    {
      "midi": 63,
      "hit": false,
      "t": 94380.9041875,
      "d": 591.9607708333351,
      "v": 73
    },
    {
      "midi": 47,
      "hit": false,
      "t": 94391.06660416666,
      "d": 165.13927083332965,
      "v": 67
    },
    {
      "midi": 35,
      "hit": false,
      "t": 94391.06660416666,
      "d": 165.13927083332965,
      "v": 67
    },
    {
      "midi": 75,
      "hit": false,
      "t": 94393.60720833378,
      "d": 71.13691666667,
      "v": 82
    },
    {
      "midi": 66,
      "hit": false,
      "t": 94393.60720833378,
      "d": 94.0023541666742,
      "v": 87
    },
    {
      "midi": 71,
      "hit": false,
      "t": 94393.60720833378,
      "d": 94.0023541666742,
      "v": 90
    },
    {
      "midi": 71,
      "hit": false,
      "t": 94401.22902083333,
      "d": 645.3134583333303,
      "v": 71
    },
    {
      "midi": 59,
      "hit": false,
      "t": 94411.3914375,
      "d": 680.8819166666653,
      "v": 69
    },
    {
      "midi": 42,
      "hit": false,
      "t": 94637.50520833331,
      "d": 513.2020416666637,
      "v": 64
    },
    {
      "midi": 30,
      "hit": false,
      "t": 94637.50520833331,
      "d": 513.2020416666637,
      "v": 64
    },
    {
      "midi": 66,
      "hit": false,
      "t": 94637.50520833378,
      "d": 91.46175000000221,
      "v": 86
    },
    {
      "midi": 71,
      "hit": false,
      "t": 94637.50520833378,
      "d": 91.46175000000221,
      "v": 91
    },
    {
      "midi": 75,
      "hit": false,
      "t": 94640.04581250045,
      "d": 88.92114583333023,
      "v": 84
    },
    {
      "midi": 75,
      "hit": false,
      "t": 94878.86260416711,
      "d": 330.27854166667385,
      "v": 93
    },
    {
      "midi": 71,
      "hit": false,
      "t": 94881.40320833378,
      "d": 307.41310416666965,
      "v": 97
    },
    {
      "midi": 66,
      "hit": false,
      "t": 94881.40320833378,
      "d": 309.95370833334164,
      "v": 96
    },
    {
      "midi": 73,
      "hit": false,
      "t": 95112.5981875,
      "d": 416.6590833333321,
      "v": 74
    },
    {
      "midi": 61,
      "hit": false,
      "t": 95115.13879166673,
      "d": 348.0627708333486,
      "v": 99
    },
    {
      "midi": 52,
      "hit": false,
      "t": 95117.6793958334,
      "d": 315.03491666667105,
      "v": 102
    },
    {
      "midi": 61,
      "hit": false,
      "t": 95132.92302083333,
      "d": 365.8469999999943,
      "v": 80
    },
    {
      "midi": 64,
      "hit": false,
      "t": 95132.92302083333,
      "d": 320.11612500000047,
      "v": 74
    },
    {
      "midi": 42,
      "hit": false,
      "t": 95366.65860416665,
      "d": 101.62416666666104,
      "v": 57
    },
    {
      "midi": 30,
      "hit": false,
      "t": 95366.65860416665,
      "d": 101.62416666666104,
      "v": 57
    },
    {
      "midi": 66,
      "hit": false,
      "t": 95369.19920833378,
      "d": 127.03020833333721,
      "v": 93
    },
    {
      "midi": 70,
      "hit": false,
      "t": 95369.19920833378,
      "d": 132.11141666666663,
      "v": 90
    },
    {
      "midi": 73,
      "hit": false,
      "t": 95369.19920833378,
      "d": 195.62652083333523,
      "v": 89
    },
    {
      "midi": 63,
      "hit": false,
      "t": 95585.15056250007,
      "d": 1412.5759166666685,
      "v": 103
    },
    {
      "midi": 54,
      "hit": false,
      "t": 95585.15056250007,
      "d": 1719.9890208333381,
      "v": 107
    },
    {
      "midi": 63,
      "hit": false,
      "t": 95605.47539583333,
      "d": 561.4735208333295,
      "v": 76
    },
    {
      "midi": 66,
      "hit": false,
      "t": 95605.47539583333,
      "d": 574.1765416666603,
      "v": 86
    },
    {
      "midi": 75,
      "hit": false,
      "t": 95605.47539583333,
      "d": 586.8795624999912,
      "v": 75
    },
    {
      "midi": 47,
      "hit": false,
      "t": 95613.0972083333,
      "d": 548.7704999999987,
      "v": 75
    },
    {
      "midi": 35,
      "hit": false,
      "t": 95613.0972083333,
      "d": 548.7704999999987,
      "v": 75
    },
    {
      "midi": 71,
      "hit": false,
      "t": 95613.09720833378,
      "d": 114.3271875000064,
      "v": 87
    },
    {
      "midi": 75,
      "hit": false,
      "t": 95613.09720833378,
      "d": 119.40839583333582,
      "v": 82
    },
    {
      "midi": 66,
      "hit": false,
      "t": 95615.63781250046,
      "d": 91.46175000000221,
      "v": 90
    },
    {
      "midi": 66,
      "hit": false,
      "t": 95854.45460416711,
      "d": 304.8725000000122,
      "v": 94
    },
    {
      "midi": 75,
      "hit": false,
      "t": 95854.45460416711,
      "d": 317.57552083334303,
      "v": 90
    },
    {
      "midi": 71,
      "hit": false,
      "t": 95856.99520833378,
      "d": 315.03491666667105,
      "v": 96
    },
    {
      "midi": 66,
      "hit": false,
      "t": 96332.08818749999,
      "d": 612.2856041666673,
      "v": 82
    },
    {
      "midi": 75,
      "hit": false,
      "t": 96332.08818749999,
      "d": 685.9631249999948,
      "v": 78
    },
    {
      "midi": 47,
      "hit": false,
      "t": 96342.25060416663,
      "d": 182.92350000000442,
      "v": 64
    },
    {
      "midi": 35,
      "hit": false,
      "t": 96342.25060416663,
      "d": 182.92350000000442,
      "v": 64
    },
    {
      "midi": 66,
      "hit": false,
      "t": 96344.79120833379,
      "d": 71.13691666667,
      "v": 83
    },
    {
      "midi": 71,
      "hit": false,
      "t": 96344.79120833379,
      "d": 71.13691666667,
      "v": 87
    },
    {
      "midi": 75,
      "hit": false,
      "t": 96344.79120833379,
      "d": 78.7587291666714,
      "v": 81
    },
    {
      "midi": 63,
      "hit": false,
      "t": 96347.3318125,
      "d": 624.9886249999981,
      "v": 78
    },
    {
      "midi": 42,
      "hit": false,
      "t": 96588.68920833331,
      "d": 541.1486874999973,
      "v": 69
    },
    {
      "midi": 30,
      "hit": false,
      "t": 96588.68920833331,
      "d": 541.1486874999973,
      "v": 69
    },
    {
      "midi": 71,
      "hit": false,
      "t": 96588.68920833379,
      "d": 91.46175000000221,
      "v": 89
    },
    {
      "midi": 75,
      "hit": false,
      "t": 96588.68920833379,
      "d": 106.705375000005,
      "v": 86
    },
    {
      "midi": 66,
      "hit": false,
      "t": 96591.22981250046,
      "d": 83.83993750000081,
      "v": 86
    },
    {
      "midi": 71,
      "hit": false,
      "t": 96830.04660416713,
      "d": 88.92114583334478,
      "v": 87
    },
    {
      "midi": 75,
      "hit": false,
      "t": 96830.04660416713,
      "d": 109.24597916667699,
      "v": 87
    },
    {
      "midi": 66,
      "hit": false,
      "t": 96832.5872083338,
      "d": 88.92114583334478,
      "v": 81
    },
    {
      "midi": 64,
      "hit": false,
      "t": 97038.3761458334,
      "d": 482.7147916666727,
      "v": 93
    },
    {
      "midi": 76,
      "hit": false,
      "t": 97053.61977083332,
      "d": 475.0929791666713,
      "v": 62
    },
    {
      "midi": 73,
      "hit": false,
      "t": 97058.70097916665,
      "d": 454.7681458333391,
      "v": 76
    },
    {
      "midi": 61,
      "hit": false,
      "t": 97061.24158333341,
      "d": 487.7960000000021,
      "v": 101
    },
    {
      "midi": 70,
      "hit": false,
      "t": 97076.4852083338,
      "d": 274.38525000000664,
      "v": 92
    },
    {
      "midi": 66,
      "hit": false,
      "t": 97076.4852083338,
      "d": 284.54766666668,
      "v": 98
    },
    {
      "midi": 76,
      "hit": false,
      "t": 97076.4852083338,
      "d": 317.57552083334303,
      "v": 88
    },
    {
      "midi": 73,
      "hit": false,
      "t": 97076.4852083338,
      "d": 337.90035416667524,
      "v": 94
    },
    {
      "midi": 64,
      "hit": false,
      "t": 97079.0258125,
      "d": 368.3876041666663,
      "v": 82
    },
    {
      "midi": 42,
      "hit": false,
      "t": 97317.84260416664,
      "d": 71.13691666667,
      "v": 52
    },
    {
      "midi": 30,
      "hit": false,
      "t": 97317.84260416664,
      "d": 71.13691666667,
      "v": 52
    },
    {
      "midi": 63,
      "hit": false,
      "t": 97551.57818750008,
      "d": 1582.7963958333276,
      "v": 91
    },
    {
      "midi": 66,
      "hit": false,
      "t": 97556.65939583333,
      "d": 1092.459791666668,
      "v": 74
    },
    {
      "midi": 78,
      "hit": false,
      "t": 97564.28120833333,
      "d": 1359.2232291666733,
      "v": 69
    },
    {
      "midi": 75,
      "hit": false,
      "t": 97564.28120833333,
      "d": 1412.5759166666685,
      "v": 71
    },
    {
      "midi": 47,
      "hit": false,
      "t": 97566.82181249997,
      "d": 538.6080833333399,
      "v": 77
    },
    {
      "midi": 35,
      "hit": false,
      "t": 97566.82181249997,
      "d": 538.6080833333399,
      "v": 77
    },
    {
      "midi": 71,
      "hit": false,
      "t": 97566.82181250048,
      "d": 83.83993750000081,
      "v": 79
    },
    {
      "midi": 75,
      "hit": false,
      "t": 97566.82181250048,
      "d": 91.46175000000221,
      "v": 77
    },
    {
      "midi": 66,
      "hit": false,
      "t": 97569.36241666715,
      "d": 83.83993750000081,
      "v": 81
    },
    {
      "midi": 66,
      "hit": false,
      "t": 97576.98422916674,
      "d": 1542.1467291666631,
      "v": 81
    },
    {
      "midi": 59,
      "hit": false,
      "t": 97576.98422916674,
      "d": 1577.7151874999981,
      "v": 81
    },
    {
      "midi": 75,
      "hit": false,
      "t": 97805.63860416715,
      "d": 309.95370833334164,
      "v": 90
    },
    {
      "midi": 66,
      "hit": false,
      "t": 97808.17920833382,
      "d": 287.08827083333745,
      "v": 95
    },
    {
      "midi": 71,
      "hit": false,
      "t": 97808.17920833382,
      "d": 307.41310416666965,
      "v": 96
    },
    {
      "midi": 47,
      "hit": false,
      "t": 98293.43460416664,
      "d": 208.32954166666605,
      "v": 71
    },
    {
      "midi": 35,
      "hit": false,
      "t": 98293.43460416664,
      "d": 208.32954166666605,
      "v": 71
    },
    {
      "midi": 66,
      "hit": false,
      "t": 98293.43460416715,
      "d": 76.21812499999942,
      "v": 83
    },
    {
      "midi": 75,
      "hit": false,
      "t": 98295.97520833382,
      "d": 73.67752083332743,
      "v": 81
    },
    {
      "midi": 71,
      "hit": false,
      "t": 98295.97520833382,
      "d": 76.21812499999942,
      "v": 83
    },
    {
      "midi": 42,
      "hit": false,
      "t": 98539.87320833332,
      "d": 444.6057291666657,
      "v": 77
    },
    {
      "midi": 30,
      "hit": false,
      "t": 98539.87320833332,
      "d": 444.6057291666657,
      "v": 77
    },
    {
      "midi": 71,
      "hit": false,
      "t": 98539.87320833383,
      "d": 71.13691666667,
      "v": 87
    },
    {
      "midi": 75,
      "hit": false,
      "t": 98539.87320833383,
      "d": 71.13691666667,
      "v": 83
    },
    {
      "midi": 66,
      "hit": false,
      "t": 98542.4138125005,
      "d": 71.13691666667,
      "v": 84
    },
    {
      "midi": 66,
      "hit": false,
      "t": 98781.23060416717,
      "d": 350.60337500000605,
      "v": 96
    },
    {
      "midi": 75,
      "hit": false,
      "t": 98781.23060416717,
      "d": 365.84700000000885,
      "v": 93
    },
    {
      "midi": 71,
      "hit": false,
      "t": 98783.77120833384,
      "d": 363.30639583333686,
      "v": 96
    },
    {
      "midi": 71,
      "hit": false,
      "t": 99004.80377083333,
      "d": 449.6869374999951,
      "v": 60
    },
    {
      "midi": 47,
      "hit": false,
      "t": 99027.66920833332,
      "d": 444.6057291666657,
      "v": 76
    },
    {
      "midi": 35,
      "hit": false,
      "t": 99027.66920833332,
      "d": 444.6057291666657,
      "v": 76
    },
    {
      "midi": 59,
      "hit": false,
      "t": 99045.4534375,
      "d": 426.82150000000547,
      "v": 67
    },
    {
      "midi": 66,
      "hit": false,
      "t": 99269.02660416717,
      "d": 73.67752083334199,
      "v": 80
    },
    {
      "midi": 75,
      "hit": false,
      "t": 99269.02660416717,
      "d": 94.0023541666742,
      "v": 81
    },
    {
      "midi": 71,
      "hit": false,
      "t": 99271.56720833384,
      "d": 71.13691666667,
      "v": 77
    },
    {
      "midi": 64,
      "hit": false,
      "t": 99502.76218750008,
      "d": 1643.7708958333387,
      "v": 84
    },
    {
      "midi": 56,
      "hit": false,
      "t": 99502.76218750008,
      "d": 1719.9890208333381,
      "v": 88
    },
    {
      "midi": 59,
      "hit": false,
      "t": 99502.76218750008,
      "d": 1819.0725833333418,
      "v": 87
    },
    {
      "midi": 76,
      "hit": false,
      "t": 99515.46520833332,
      "d": 607.2043958333379,
      "v": 70
    },
    {
      "midi": 68,
      "hit": false,
      "t": 99515.46520833333,
      "d": 652.9352708333317,
      "v": 80
    },
    {
      "midi": 52,
      "hit": false,
      "t": 99518.00581249998,
      "d": 548.7704999999987,
      "v": 79
    },
    {
      "midi": 40,
      "hit": false,
      "t": 99518.00581249998,
      "d": 548.7704999999987,
      "v": 79
    },
    {
      "midi": 80,
      "hit": false,
      "t": 99518.00581249999,
      "d": 586.8795625000057,
      "v": 72
    },
    {
      "midi": 68,
      "hit": false,
      "t": 99518.00581250052,
      "d": 83.83993750000081,
      "v": 85
    },
    {
      "midi": 71,
      "hit": false,
      "t": 99518.00581250052,
      "d": 83.83993750000081,
      "v": 89
    },
    {
      "midi": 64,
      "hit": false,
      "t": 99520.54641666719,
      "d": 86.38054166665825,
      "v": 82
    },
    {
      "midi": 76,
      "hit": false,
      "t": 99520.54641666719,
      "d": 86.38054166665825,
      "v": 83
    },
    {
      "midi": 76,
      "hit": false,
      "t": 99756.82260416717,
      "d": 325.19733333334443,
      "v": 89
    },
    {
      "midi": 64,
      "hit": false,
      "t": 99759.36320833385,
      "d": 302.33189583334024,
      "v": 92
    },
    {
      "midi": 68,
      "hit": false,
      "t": 99759.36320833385,
      "d": 302.33189583334024,
      "v": 93
    },
    {
      "midi": 71,
      "hit": false,
      "t": 99759.36320833385,
      "d": 317.57552083334303,
      "v": 94
    },
    {
      "midi": 80,
      "hit": false,
      "t": 100239.53739583332,
      "d": 561.4735208333295,
      "v": 67
    },
    {
      "midi": 76,
      "hit": false,
      "t": 100239.53739583332,
      "d": 594.5013749999925,
      "v": 66
    },
    {
      "midi": 52,
      "hit": false,
      "t": 100244.61860416664,
      "d": 243.89800000000105,
      "v": 74
    },
    {
      "midi": 40,
      "hit": false,
      "t": 100244.61860416664,
      "d": 243.89800000000105,
      "v": 74
    },
    {
      "midi": 68,
      "hit": false,
      "t": 100247.15920833385,
      "d": 91.46175000000221,
      "v": 82
    },
    {
      "midi": 64,
      "hit": false,
      "t": 100247.15920833385,
      "d": 99.08356250000361,
      "v": 84
    },
    {
      "midi": 76,
      "hit": false,
      "t": 100247.15920833385,
      "d": 99.08356250000361,
      "v": 80
    },
    {
      "midi": 71,
      "hit": false,
      "t": 100249.69981250052,
      "d": 83.83993750000081,
      "v": 87
    },
    {
      "midi": 68,
      "hit": false,
      "t": 100285.26827083333,
      "d": 584.3389583333337,
      "v": 70
    },
    {
      "midi": 47,
      "hit": false,
      "t": 100491.05720833331,
      "d": 472.5523749999993,
      "v": 63
    },
    {
      "midi": 35,
      "hit": false,
      "t": 100491.05720833331,
      "d": 472.5523749999993,
      "v": 63
    },
    {
      "midi": 71,
      "hit": false,
      "t": 100491.05720833385,
      "d": 86.3805416666728,
      "v": 87
    },
    {
      "midi": 76,
      "hit": false,
      "t": 100491.05720833385,
      "d": 94.0023541666742,
      "v": 81
    },
    {
      "midi": 68,
      "hit": false,
      "t": 100493.59781250052,
      "d": 86.3805416666728,
      "v": 78
    },
    {
      "midi": 64,
      "hit": false,
      "t": 100493.59781250052,
      "d": 91.46175000000221,
      "v": 83
    },
    {
      "midi": 68,
      "hit": false,
      "t": 100732.41460416719,
      "d": 317.57552083334303,
      "v": 89
    },
    {
      "midi": 76,
      "hit": false,
      "t": 100732.41460416719,
      "d": 325.19733333334443,
      "v": 87
    },
    {
      "midi": 71,
      "hit": false,
      "t": 100734.95520833386,
      "d": 315.03491666667105,
      "v": 91
    },
    {
      "midi": 64,
      "hit": false,
      "t": 100734.95520833386,
      "d": 322.65672916667245,
      "v": 91
    },
    {
      "midi": 80,
      "hit": false,
      "t": 100966.15018749998,
      "d": 376.0094166666677,
      "v": 69
    },
    {
      "midi": 76,
      "hit": false,
      "t": 100966.15018749998,
      "d": 391.25304166667047,
      "v": 72
    },
    {
      "midi": 52,
      "hit": false,
      "t": 100978.85320833331,
      "d": 492.8772083333315,
      "v": 78
    },
    {
      "midi": 40,
      "hit": false,
      "t": 100978.85320833331,
      "d": 492.8772083333315,
      "v": 78
    },
    {
      "midi": 68,
      "hit": false,
      "t": 100991.55622916666,
      "d": 350.60337500000605,
      "v": 73
    },
    {
      "midi": 64,
      "hit": false,
      "t": 101220.21060416721,
      "d": 94.0023541666742,
      "v": 86
    },
    {
      "midi": 68,
      "hit": false,
      "t": 101220.21060416721,
      "d": 101.62416666667559,
      "v": 81
    },
    {
      "midi": 71,
      "hit": false,
      "t": 101222.75120833388,
      "d": 91.46175000000221,
      "v": 86
    },
    {
      "midi": 76,
      "hit": false,
      "t": 101222.75120833388,
      "d": 119.40839583333582,
      "v": 83
    },
    {
      "midi": 66,
      "hit": false,
      "t": 101453.94618750009,
      "d": 917.1581041666504,
      "v": 88
    },
    {
      "midi": 75,
      "hit": false,
      "t": 101466.64920833331,
      "d": 797.7497083333292,
      "v": 76
    },
    {
      "midi": 78,
      "hit": false,
      "t": 101466.64920833331,
      "d": 815.5339374999894,
      "v": 71
    },
    {
      "midi": 47,
      "hit": false,
      "t": 101466.64920833331,
      "d": 485.2553958333301,
      "v": 78
    },
    {
      "midi": 35,
      "hit": false,
      "t": 101466.64920833331,
      "d": 485.2553958333301,
      "v": 78
    },
    {
      "midi": 66,
      "hit": false,
      "t": 101469.18981250055,
      "d": 76.21812499999942,
      "v": 88
    },
    {
      "midi": 71,
      "hit": false,
      "t": 101469.18981250055,
      "d": 76.21812499999942,
      "v": 79
    },
    {
      "midi": 75,
      "hit": false,
      "t": 101469.18981250055,
      "d": 96.54295833333163,
      "v": 81
    },
    {
      "midi": 66,
      "hit": false,
      "t": 101476.811625,
      "d": 914.617499999993,
      "v": 83
    },
    {
      "midi": 63,
      "hit": false,
      "t": 101479.35222916675,
      "d": 805.3715208333306,
      "v": 96
    },
    {
      "midi": 59,
      "hit": false,
      "t": 101479.35222916675,
      "d": 873.9678333333286,
      "v": 91
    },
    {
      "midi": 66,
      "hit": false,
      "t": 101708.00660416723,
      "d": 320.11612500000047,
      "v": 100
    },
    {
      "midi": 75,
      "hit": false,
      "t": 101708.00660416723,
      "d": 332.8191458333313,
      "v": 95
    },
    {
      "midi": 71,
      "hit": false,
      "t": 101710.5472083339,
      "d": 332.8191458333313,
      "v": 97
    },
    {
      "midi": 47,
      "hit": false,
      "t": 102195.80260416665,
      "d": 223.57316666666884,
      "v": 69
    },
    {
      "midi": 35,
      "hit": false,
      "t": 102195.80260416665,
      "d": 223.57316666666884,
      "v": 69
    },
    {
      "midi": 71,
      "hit": false,
      "t": 102198.3432083339,
      "d": 99.08356250000361,
      "v": 90
    },
    {
      "midi": 66,
      "hit": false,
      "t": 102198.3432083339,
      "d": 119.40839583333582,
      "v": 90
    },
    {
      "midi": 75,
      "hit": false,
      "t": 102198.3432083339,
      "d": 119.40839583333582,
      "v": 86
    },
    {
      "midi": 73,
      "hit": false,
      "t": 102414.29456249997,
      "d": 426.82150000000547,
      "v": 80
    },
    {
      "midi": 76,
      "hit": false,
      "t": 102414.29456249997,
      "d": 426.82150000000547,
      "v": 66
    },
    {
      "midi": 61,
      "hit": false,
      "t": 102429.53818750007,
      "d": 431.9027083333349,
      "v": 104
    },
    {
      "midi": 64,
      "hit": false,
      "t": 102429.53818750007,
      "d": 459.8493541666685,
      "v": 94
    },
    {
      "midi": 64,
      "hit": false,
      "t": 102434.61939583333,
      "d": 370.92820833333826,
      "v": 79
    },
    {
      "midi": 42,
      "hit": false,
      "t": 102442.24120833332,
      "d": 409.0372708333307,
      "v": 68
    },
    {
      "midi": 30,
      "hit": false,
      "t": 102442.24120833332,
      "d": 409.0372708333307,
      "v": 68
    },
    {
      "midi": 66,
      "hit": false,
      "t": 102442.2412083339,
      "d": 322.65672916667245,
      "v": 105
    },
    {
      "midi": 73,
      "hit": false,
      "t": 102442.2412083339,
      "d": 342.98156250000466,
      "v": 98
    },
    {
      "midi": 76,
      "hit": false,
      "t": 102444.78181250057,
      "d": 340.4409583333327,
      "v": 97
    },
    {
      "midi": 63,
      "hit": false,
      "t": 102917.33418750008,
      "d": 452.2275416666671,
      "v": 100
    },
    {
      "midi": 75,
      "hit": false,
      "t": 102919.87479166665,
      "d": 355.68458333333547,
      "v": 76
    },
    {
      "midi": 71,
      "hit": false,
      "t": 102922.41539583332,
      "d": 309.9537083333271,
      "v": 80
    },
    {
      "midi": 47,
      "hit": false,
      "t": 102930.03720833332,
      "d": 431.9027083333349,
      "v": 74
    },
    {
      "midi": 35,
      "hit": false,
      "t": 102930.03720833332,
      "d": 431.9027083333349,
      "v": 74
    },
    {
      "midi": 66,
      "hit": false,
      "t": 102930.0372083339,
      "d": 289.62887500000943,
      "v": 102
    },
    {
      "midi": 75,
      "hit": false,
      "t": 102930.0372083339,
      "d": 330.27854166667385,
      "v": 95
    },
    {
      "midi": 71,
      "hit": false,
      "t": 102932.57781250057,
      "d": 248.97920833333046,
      "v": 101
    },
    {
      "midi": 63,
      "hit": false,
      "t": 102937.65902083334,
      "d": 330.27854166667385,
      "v": 87
    },
    {
      "midi": 59,
      "hit": false,
      "t": 102942.74022916674,
      "d": 259.14162500000384,
      "v": 102
    },
    {
      "midi": 58,
      "hit": false,
      "t": 103394.9677708334,
      "d": 3752.472354166661,
      "v": 86
    },
    {
      "midi": 61,
      "hit": false,
      "t": 103394.9677708334,
      "d": 3800.7438333333266,
      "v": 92
    },
    {
      "midi": 54,
      "hit": false,
      "t": 103394.9677708334,
      "d": 5693.493937499981,
      "v": 85
    },
    {
      "midi": 70,
      "hit": false,
      "t": 103410.21139583332,
      "d": 1338.8983958333265,
      "v": 66
    },
    {
      "midi": 42,
      "hit": false,
      "t": 103417.83320833332,
      "d": 548.7704999999987,
      "v": 83
    },
    {
      "midi": 30,
      "hit": false,
      "t": 103417.83320833332,
      "d": 548.7704999999987,
      "v": 83
    },
    {
      "midi": 61,
      "hit": false,
      "t": 103417.83320833334,
      "d": 1285.5457083333313,
      "v": 87
    },
    {
      "midi": 66,
      "hit": false,
      "t": 103417.8332083339,
      "d": 86.3805416666728,
      "v": 96
    },
    {
      "midi": 70,
      "hit": false,
      "t": 103420.37381250058,
      "d": 91.46175000000221,
      "v": 92
    },
    {
      "midi": 73,
      "hit": false,
      "t": 103420.37381250058,
      "d": 91.46175000000221,
      "v": 88
    },
    {
      "midi": 76,
      "hit": false,
      "t": 103420.37381250058,
      "d": 104.16477083333302,
      "v": 94
    },
    {
      "midi": 73,
      "hit": false,
      "t": 103427.99562499998,
      "d": 1392.2510833333363,
      "v": 74
    },
    {
      "midi": 76,
      "hit": false,
      "t": 103659.19060416725,
      "d": 243.89800000000105,
      "v": 96
    },
    {
      "midi": 70,
      "hit": false,
      "t": 103659.19060416725,
      "d": 279.46645833333605,
      "v": 95
    },
    {
      "midi": 66,
      "hit": false,
      "t": 103661.73120833392,
      "d": 256.60102083333186,
      "v": 100
    },
    {
      "midi": 73,
      "hit": false,
      "t": 103661.73120833392,
      "d": 256.60102083333186,
      "v": 92
    },
    {
      "midi": 42,
      "hit": false,
      "t": 104146.98660416665,
      "d": 205.78893749999406,
      "v": 74
    },
    {
      "midi": 30,
      "hit": false,
      "t": 104146.98660416665,
      "d": 205.78893749999406,
      "v": 74
    },
    {
      "midi": 73,
      "hit": false,
      "t": 104149.52720833392,
      "d": 43.1902708333364,
      "v": 86
    },
    {
      "midi": 66,
      "hit": false,
      "t": 104149.52720833392,
      "d": 81.29933333334338,
      "v": 93
    },
    {
      "midi": 70,
      "hit": false,
      "t": 104149.52720833392,
      "d": 81.29933333334338,
      "v": 95
    },
    {
      "midi": 78,
      "hit": false,
      "t": 104149.52720833392,
      "d": 114.3271875000064,
      "v": 96
    },
    {
      "midi": 49,
      "hit": false,
      "t": 104393.42520833331,
      "d": 553.8517083333281,
      "v": 81
    },
    {
      "midi": 37,
      "hit": false,
      "t": 104393.42520833331,
      "d": 553.8517083333281,
      "v": 81
    },
    {
      "midi": 66,
      "hit": false,
      "t": 104393.42520833392,
      "d": 91.46175000000221,
      "v": 95
    },
    {
      "midi": 70,
      "hit": false,
      "t": 104393.42520833392,
      "d": 91.46175000000221,
      "v": 96
    },
    {
      "midi": 73,
      "hit": false,
      "t": 104395.9658125006,
      "d": 83.83993750000081,
      "v": 92
    },
    {
      "midi": 78,
      "hit": false,
      "t": 104395.9658125006,
      "d": 88.92114583333023,
      "v": 95
    },
    {
      "midi": 73,
      "hit": false,
      "t": 104634.78260416725,
      "d": 309.95370833334164,
      "v": 96
    },
    {
      "midi": 66,
      "hit": false,
      "t": 104637.32320833392,
      "d": 297.2506874999963,
      "v": 100
    },
    {
      "midi": 70,
      "hit": false,
      "t": 104637.32320833392,
      "d": 312.49431249999907,
      "v": 100
    },
    {
      "midi": 78,
      "hit": false,
      "t": 104637.32320833392,
      "d": 330.2785416666593,
      "v": 100
    },
    {
      "midi": 68,
      "hit": false,
      "t": 104871.05879166666,
      "d": 360.7657916666649,
      "v": 80
    },
    {
      "midi": 71,
      "hit": false,
      "t": 104871.05879166666,
      "d": 459.8493541666685,
      "v": 76
    },
    {
      "midi": 59,
      "hit": false,
      "t": 104891.383625,
      "d": 396.3342499999999,
      "v": 65
    },
    {
      "midi": 49,
      "hit": false,
      "t": 105122.57860416664,
      "d": 165.13927083332965,
      "v": 76
    },
    {
      "midi": 37,
      "hit": false,
      "t": 105122.57860416664,
      "d": 165.13927083332965,
      "v": 76
    },
    {
      "midi": 70,
      "hit": false,
      "t": 105125.11920833391,
      "d": 83.83993750000081,
      "v": 83
    },
    {
      "midi": 66,
      "hit": false,
      "t": 105125.11920833391,
      "d": 86.3805416666728,
      "v": 79
    },
    {
      "midi": 78,
      "hit": false,
      "t": 105125.11920833391,
      "d": 86.3805416666728,
      "v": 83
    },
    {
      "midi": 73,
      "hit": false,
      "t": 105125.11920833391,
      "d": 88.92114583334478,
      "v": 77
    },
    {
      "midi": 70,
      "hit": false,
      "t": 105346.15177083333,
      "d": 1770.8011041666614,
      "v": 69
    },
    {
      "midi": 73,
      "hit": false,
      "t": 105346.15177083333,
      "d": 1808.9101666666684,
      "v": 66
    },
    {
      "midi": 42,
      "hit": false,
      "t": 105369.0172083333,
      "d": 541.1486874999973,
      "v": 77
    },
    {
      "midi": 30,
      "hit": false,
      "t": 105369.0172083333,
      "d": 541.1486874999973,
      "v": 77
    },
    {
      "midi": 78,
      "hit": false,
      "t": 105369.01720833393,
      "d": 86.3805416666728,
      "v": 90
    },
    {
      "midi": 73,
      "hit": false,
      "t": 105371.5578125006,
      "d": 38.109062500006985,
      "v": 84
    },
    {
      "midi": 66,
      "hit": false,
      "t": 105371.5578125006,
      "d": 86.3805416666728,
      "v": 90
    },
    {
      "midi": 70,
      "hit": false,
      "t": 105371.5578125006,
      "d": 86.3805416666728,
      "v": 89
    },
    {
      "midi": 61,
      "hit": false,
      "t": 105381.72022916666,
      "d": 1643.7708958333387,
      "v": 68
    },
    {
      "midi": 78,
      "hit": false,
      "t": 105610.37460416727,
      "d": 312.49431249999907,
      "v": 95
    },
    {
      "midi": 66,
      "hit": false,
      "t": 105612.91520833394,
      "d": 292.16947916666686,
      "v": 96
    },
    {
      "midi": 70,
      "hit": false,
      "t": 105612.91520833394,
      "d": 304.8724999999977,
      "v": 93
    },
    {
      "midi": 73,
      "hit": false,
      "t": 105612.91520833394,
      "d": 312.49431249999907,
      "v": 92
    },
    {
      "midi": 42,
      "hit": false,
      "t": 106098.17060416663,
      "d": 218.49195833333943,
      "v": 74
    },
    {
      "midi": 30,
      "hit": false,
      "t": 106098.17060416663,
      "d": 218.49195833333943,
      "v": 74
    },
    {
      "midi": 70,
      "hit": false,
      "t": 106100.71120833395,
      "d": 86.3805416666728,
      "v": 92
    },
    {
      "midi": 66,
      "hit": false,
      "t": 106100.71120833395,
      "d": 88.92114583334478,
      "v": 92
    },
    {
      "midi": 73,
      "hit": false,
      "t": 106100.71120833395,
      "d": 88.92114583334478,
      "v": 84
    },
    {
      "midi": 78,
      "hit": false,
      "t": 106100.71120833395,
      "d": 91.46175000001676,
      "v": 94
    },
    {
      "midi": 37,
      "hit": false,
      "t": 106344.6092083333,
      "d": 640.2322500000009,
      "v": 73
    },
    {
      "midi": 25,
      "hit": false,
      "t": 106344.6092083333,
      "d": 640.2322500000009,
      "v": 73
    },
    {
      "midi": 73,
      "hit": false,
      "t": 106585.96660416729,
      "d": 284.54766666666546,
      "v": 90
    },
    {
      "midi": 70,
      "hit": false,
      "t": 106585.96660416729,
      "d": 287.08827083333745,
      "v": 95
    },
    {
      "midi": 66,
      "hit": false,
      "t": 106588.50720833396,
      "d": 284.54766666666546,
      "v": 96
    },
    {
      "midi": 78,
      "hit": false,
      "t": 106588.50720833396,
      "d": 304.8724999999977,
      "v": 98
    },
    {
      "midi": 37,
      "hit": false,
      "t": 107073.76260416664,
      "d": 195.62652083333523,
      "v": 51
    },
    {
      "midi": 25,
      "hit": false,
      "t": 107073.76260416664,
      "d": 195.62652083333523,
      "v": 51
    },
    {
      "midi": 70,
      "hit": false,
      "t": 107076.30320833396,
      "d": 45.73087499999383,
      "v": 89
    },
    {
      "midi": 73,
      "hit": false,
      "t": 107076.30320833396,
      "d": 48.27147916666581,
      "v": 83
    },
    {
      "midi": 78,
      "hit": false,
      "t": 107076.30320833396,
      "d": 50.812083333337796,
      "v": 89
    },
    {
      "midi": 66,
      "hit": false,
      "t": 107076.30320833396,
      "d": 58.43389583333919,
      "v": 89
    },
    {
      "midi": 64,
      "hit": false,
      "t": 107297.3357708334,
      "d": 1951.1839999999938,
      "v": 89
    },
    {
      "midi": 61,
      "hit": false,
      "t": 107302.41697916672,
      "d": 1890.2094999999972,
      "v": 87
    },
    {
      "midi": 42,
      "hit": false,
      "t": 107320.20120833331,
      "d": 551.3111041666707,
      "v": 78
    },
    {
      "midi": 30,
      "hit": false,
      "t": 107320.20120833331,
      "d": 551.3111041666707,
      "v": 78
    },
    {
      "midi": 64,
      "hit": false,
      "t": 107320.20120833334,
      "d": 566.5547291666735,
      "v": 74
    },
    {
      "midi": 73,
      "hit": false,
      "t": 107322.74181250064,
      "d": 45.73087500000838,
      "v": 80
    },
    {
      "midi": 78,
      "hit": false,
      "t": 107322.74181250064,
      "d": 50.812083333337796,
      "v": 92
    },
    {
      "midi": 66,
      "hit": false,
      "t": 107322.74181250064,
      "d": 55.89329166666721,
      "v": 92
    },
    {
      "midi": 70,
      "hit": false,
      "t": 107325.28241666731,
      "d": 48.27147916666581,
      "v": 90
    },
    {
      "midi": 73,
      "hit": false,
      "t": 107332.90422916666,
      "d": 586.8795625000057,
      "v": 82
    },
    {
      "midi": 76,
      "hit": false,
      "t": 107332.90422916666,
      "d": 586.8795625000057,
      "v": 74
    },
    {
      "midi": 73,
      "hit": false,
      "t": 107561.55860416731,
      "d": 198.16712500000722,
      "v": 88
    },
    {
      "midi": 70,
      "hit": false,
      "t": 107564.09920833398,
      "d": 213.41074999999546,
      "v": 94
    },
    {
      "midi": 78,
      "hit": false,
      "t": 107564.09920833398,
      "d": 228.65437499999825,
      "v": 94
    },
    {
      "midi": 66,
      "hit": false,
      "t": 107564.09920833398,
      "d": 248.97920833333046,
      "v": 95
    },
    {
      "midi": 42,
      "hit": false,
      "t": 108049.35460416664,
      "d": 208.32954166666605,
      "v": 73
    },
    {
      "midi": 30,
      "hit": false,
      "t": 108049.35460416664,
      "d": 208.32954166666605,
      "v": 73
    },
    {
      "midi": 73,
      "hit": false,
      "t": 108051.89520833398,
      "d": 86.3805416666728,
      "v": 85
    },
    {
      "midi": 66,
      "hit": false,
      "t": 108051.89520833398,
      "d": 88.92114583334478,
      "v": 87
    },
    {
      "midi": 70,
      "hit": false,
      "t": 108051.89520833398,
      "d": 88.92114583334478,
      "v": 84
    },
    {
      "midi": 76,
      "hit": false,
      "t": 108051.89520833398,
      "d": 94.0023541666742,
      "v": 85
    },
    {
      "midi": 76,
      "hit": false,
      "t": 108059.51702083333,
      "d": 586.8795625000057,
      "v": 76
    },
    {
      "midi": 73,
      "hit": false,
      "t": 108059.51702083333,
      "d": 594.5013750000071,
      "v": 79
    },
    {
      "midi": 64,
      "hit": false,
      "t": 108069.67943750002,
      "d": 569.0953333333309,
      "v": 70
    },
    {
      "midi": 37,
      "hit": false,
      "t": 108295.79320833331,
      "d": 406.49666666667326,
      "v": 77
    },
    {
      "midi": 25,
      "hit": false,
      "t": 108295.79320833331,
      "d": 406.49666666667326,
      "v": 77
    },
    {
      "midi": 66,
      "hit": false,
      "t": 108298.33381250066,
      "d": 279.46645833333605,
      "v": 100
    },
    {
      "midi": 70,
      "hit": false,
      "t": 108298.33381250066,
      "d": 279.46645833333605,
      "v": 95
    },
    {
      "midi": 73,
      "hit": false,
      "t": 108298.33381250066,
      "d": 279.46645833333605,
      "v": 95
    },
    {
      "midi": 76,
      "hit": false,
      "t": 108298.33381250066,
      "d": 302.33189583334024,
      "v": 97
    },
    {
      "midi": 76,
      "hit": false,
      "t": 108760.72377083334,
      "d": 391.25304166667047,
      "v": 74
    },
    {
      "midi": 73,
      "hit": false,
      "t": 108760.72377083334,
      "d": 406.49666666667326,
      "v": 79
    },
    {
      "midi": 42,
      "hit": false,
      "t": 108783.58920833332,
      "d": 350.60337500000605,
      "v": 83
    },
    {
      "midi": 30,
      "hit": false,
      "t": 108783.58920833332,
      "d": 350.60337500000605,
      "v": 83
    },
    {
      "midi": 70,
      "hit": false,
      "t": 108783.589208334,
      "d": 203.24833333333663,
      "v": 95
    },
    {
      "midi": 73,
      "hit": false,
      "t": 108783.589208334,
      "d": 297.2506874999963,
      "v": 94
    },
    {
      "midi": 76,
      "hit": false,
      "t": 108783.589208334,
      "d": 315.0349166666565,
      "v": 94
    },
    {
      "midi": 66,
      "hit": false,
      "t": 108786.12981250067,
      "d": 294.7100833333243,
      "v": 100
    },
    {
      "midi": 64,
      "hit": false,
      "t": 108791.21102083335,
      "d": 327.73793750000186,
      "v": 70
    },
    {
      "midi": 71,
      "hit": false,
      "t": 109258.68218750002,
      "d": 668.1788958333345,
      "v": 77
    },
    {
      "midi": 75,
      "hit": false,
      "t": 109258.68218750002,
      "d": 708.828562499999,
      "v": 74
    },
    {
      "midi": 47,
      "hit": false,
      "t": 109271.38520833332,
      "d": 475.0929791666713,
      "v": 77
    },
    {
      "midi": 35,
      "hit": false,
      "t": 109271.38520833332,
      "d": 475.0929791666713,
      "v": 77
    },
    {
      "midi": 66,
      "hit": false,
      "t": 109271.38520833399,
      "d": 73.67752083334199,
      "v": 83
    },
    {
      "midi": 71,
      "hit": false,
      "t": 109271.38520833399,
      "d": 81.29933333334338,
      "v": 80
    },
    {
      "midi": 75,
      "hit": false,
      "t": 109273.92581250066,
      "d": 81.29933333334338,
      "v": 75
    },
    {
      "midi": 59,
      "hit": false,
      "t": 109279.0070208334,
      "d": 668.1788958333345,
      "v": 95
    },
    {
      "midi": 63,
      "hit": false,
      "t": 109279.0070208334,
      "d": 685.9631249999948,
      "v": 92
    },
    {
      "midi": 54,
      "hit": false,
      "t": 109279.0070208334,
      "d": 731.6939999999886,
      "v": 104
    },
    {
      "midi": 63,
      "hit": false,
      "t": 109294.25064583335,
      "d": 569.0953333333309,
      "v": 76
    },
    {
      "midi": 66,
      "hit": false,
      "t": 109512.74260416733,
      "d": 287.08827083333745,
      "v": 96
    },
    {
      "midi": 75,
      "hit": false,
      "t": 109515.283208334,
      "d": 289.6288749999949,
      "v": 93
    },
    {
      "midi": 71,
      "hit": false,
      "t": 109515.283208334,
      "d": 307.4131041666551,
      "v": 97
    },
    {
      "midi": 47,
      "hit": false,
      "t": 110000.53860416665,
      "d": 218.49195833333943,
      "v": 69
    },
    {
      "midi": 35,
      "hit": false,
      "t": 110000.53860416665,
      "d": 218.49195833333943,
      "v": 69
    },
    {
      "midi": 66,
      "hit": false,
      "t": 110003.07920833399,
      "d": 94.00235416665964,
      "v": 90
    },
    {
      "midi": 71,
      "hit": false,
      "t": 110003.07920833399,
      "d": 94.00235416665964,
      "v": 92
    },
    {
      "midi": 75,
      "hit": false,
      "t": 110003.07920833399,
      "d": 114.32718749999185,
      "v": 88
    },
    {
      "midi": 64,
      "hit": false,
      "t": 110023.40404166668,
      "d": 551.3111041666707,
      "v": 79
    },
    {
      "midi": 73,
      "hit": false,
      "t": 110025.94464583336,
      "d": 609.7449999999953,
      "v": 79
    },
    {
      "midi": 76,
      "hit": false,
      "t": 110025.94464583336,
      "d": 665.6382916666626,
      "v": 73
    },
    {
      "midi": 61,
      "hit": false,
      "t": 110041.18827083339,
      "d": 251.51981250000244,
      "v": 106
    },
    {
      "midi": 59,
      "hit": false,
      "t": 110041.18827083339,
      "d": 551.3111041666707,
      "v": 87
    },
    {
      "midi": 64,
      "hit": false,
      "t": 110041.18827083339,
      "d": 614.8262083333393,
      "v": 93
    },
    {
      "midi": 42,
      "hit": false,
      "t": 110246.97720833332,
      "d": 388.7124374999985,
      "v": 74
    },
    {
      "midi": 30,
      "hit": false,
      "t": 110246.97720833332,
      "d": 388.7124374999985,
      "v": 74
    },
    {
      "midi": 66,
      "hit": false,
      "t": 110246.97720833398,
      "d": 304.8725000000122,
      "v": 100
    },
    {
      "midi": 73,
      "hit": false,
      "t": 110246.97720833398,
      "d": 325.19733333334443,
      "v": 94
    },
    {
      "midi": 70,
      "hit": false,
      "t": 110249.51781250065,
      "d": 302.33189583334024,
      "v": 94
    },
    {
      "midi": 76,
      "hit": false,
      "t": 110249.51781250065,
      "d": 322.65672916667245,
      "v": 94
    },
    {
      "midi": 66,
      "hit": false,
      "t": 110722.07018750007,
      "d": 266.76343750000524,
      "v": 98
    },
    {
      "midi": 63,
      "hit": false,
      "t": 110722.07018750007,
      "d": 271.84464583333465,
      "v": 96
    },
    {
      "midi": 59,
      "hit": false,
      "t": 110722.07018750007,
      "d": 5101.533166666661,
      "v": 98
    },
    {
      "midi": 47,
      "hit": false,
      "t": 110734.77320833332,
      "d": 391.25304166667047,
      "v": 77
    },
    {
      "midi": 35,
      "hit": false,
      "t": 110734.77320833332,
      "d": 391.25304166667047,
      "v": 77
    },
    {
      "midi": 75,
      "hit": false,
      "t": 110734.77320833335,
      "d": 376.0094166666677,
      "v": 72
    },
    {
      "midi": 78,
      "hit": false,
      "t": 110734.77320833335,
      "d": 376.0094166666677,
      "v": 62
    },
    {
      "midi": 71,
      "hit": false,
      "t": 110737.31381250065,
      "d": 264.22283333333326,
      "v": 97
    },
    {
      "midi": 75,
      "hit": false,
      "t": 110737.31381250065,
      "d": 279.46645833333605,
      "v": 92
    },
    {
      "midi": 66,
      "hit": false,
      "t": 110737.31381250065,
      "d": 299.79129166666826,
      "v": 100
    },
    {
      "midi": 66,
      "hit": false,
      "t": 110739.85441666668,
      "d": 312.49431249999907,
      "v": 78
    },
    {
      "midi": 68,
      "hit": false,
      "t": 111212.40679166668,
      "d": 591.9607708333351,
      "v": 80
    },
    {
      "midi": 64,
      "hit": false,
      "t": 111214.9473958334,
      "d": 4578.168708333324,
      "v": 82
    },
    {
      "midi": 40,
      "hit": false,
      "t": 111222.56920833333,
      "d": 538.6080833333399,
      "v": 80
    },
    {
      "midi": 28,
      "hit": false,
      "t": 111222.56920833333,
      "d": 538.6080833333399,
      "v": 80
    },
    {
      "midi": 76,
      "hit": false,
      "t": 111222.56920833336,
      "d": 591.9607708333351,
      "v": 71
    },
    {
      "midi": 80,
      "hit": false,
      "t": 111222.56920833336,
      "d": 591.9607708333351,
      "v": 86
    },
    {
      "midi": 68,
      "hit": false,
      "t": 111240.35343750006,
      "d": 4552.762666666662,
      "v": 82
    },
    {
      "midi": 68,
      "hit": false,
      "t": 111463.92660416733,
      "d": 284.54766666666546,
      "v": 87
    },
    {
      "midi": 71,
      "hit": false,
      "t": 111463.92660416733,
      "d": 297.2506874999963,
      "v": 89
    },
    {
      "midi": 76,
      "hit": false,
      "t": 111466.467208334,
      "d": 322.6567291666579,
      "v": 79
    },
    {
      "midi": 40,
      "hit": false,
      "t": 111951.72260416667,
      "d": 251.51981250000244,
      "v": 69
    },
    {
      "midi": 28,
      "hit": false,
      "t": 111951.72260416667,
      "d": 251.51981250000244,
      "v": 69
    },
    {
      "midi": 68,
      "hit": false,
      "t": 111954.26320833398,
      "d": 78.7587291666714,
      "v": 84
    },
    {
      "midi": 71,
      "hit": false,
      "t": 111954.26320833398,
      "d": 78.7587291666714,
      "v": 88
    },
    {
      "midi": 76,
      "hit": false,
      "t": 111954.26320833398,
      "d": 99.08356250000361,
      "v": 85
    },
    {
      "midi": 76,
      "hit": false,
      "t": 111961.88502083336,
      "d": 523.3644583333371,
      "v": 72
    },
    {
      "midi": 80,
      "hit": false,
      "t": 111961.88502083336,
      "d": 553.8517083333427,
      "v": 78
    },
    {
      "midi": 68,
      "hit": false,
      "t": 111972.04743750002,
      "d": 528.4456666666665,
      "v": 76
    },
    {
      "midi": 47,
      "hit": false,
      "t": 112198.16120833335,
      "d": 370.9282083333237,
      "v": 68
    },
    {
      "midi": 35,
      "hit": false,
      "t": 112198.16120833335,
      "d": 370.9282083333237,
      "v": 68
    },
    {
      "midi": 71,
      "hit": false,
      "t": 112198.16120833399,
      "d": 78.7587291666714,
      "v": 89
    },
    {
      "midi": 68,
      "hit": false,
      "t": 112198.16120833399,
      "d": 91.46175000000221,
      "v": 86
    },
    {
      "midi": 76,
      "hit": false,
      "t": 112200.70181250066,
      "d": 96.54295833333163,
      "v": 87
    },
    {
      "midi": 68,
      "hit": false,
      "t": 112439.51860416733,
      "d": 299.79129166666826,
      "v": 86
    },
    {
      "midi": 64,
      "hit": false,
      "t": 112439.51860416733,
      "d": 320.11612500000047,
      "v": 89
    },
    {
      "midi": 71,
      "hit": false,
      "t": 112442.059208334,
      "d": 317.5755208333285,
      "v": 90
    },
    {
      "midi": 76,
      "hit": false,
      "t": 112442.059208334,
      "d": 317.5755208333285,
      "v": 85
    },
    {
      "midi": 80,
      "hit": false,
      "t": 112663.09177083337,
      "d": 203.24833333333663,
      "v": 81
    },
    {
      "midi": 76,
      "hit": false,
      "t": 112675.7947916667,
      "d": 190.54531250000582,
      "v": 71
    },
    {
      "midi": 47,
      "hit": false,
      "t": 112685.95720833333,
      "d": 444.6057291666657,
      "v": 64
    },
    {
      "midi": 35,
      "hit": false,
      "t": 112685.95720833333,
      "d": 444.6057291666657,
      "v": 64
    },
    {
      "midi": 68,
      "hit": false,
      "t": 112685.95720833335,
      "d": 312.49431249999907,
      "v": 76
    },
    {
      "midi": 71,
      "hit": false,
      "t": 112927.31460416733,
      "d": 88.92114583334478,
      "v": 87
    },
    {
      "midi": 68,
      "hit": false,
      "t": 112929.855208334,
      "d": 88.92114583334478,
      "v": 81
    },
    {
      "midi": 64,
      "hit": false,
      "t": 112929.855208334,
      "d": 94.0023541666742,
      "v": 80
    },
    {
      "midi": 76,
      "hit": false,
      "t": 112929.855208334,
      "d": 94.0023541666742,
      "v": 80
    },
    {
      "midi": 80,
      "hit": false,
      "t": 113173.75320833338,
      "d": 2766.717937499998,
      "v": 86
    },
    {
      "midi": 83,
      "hit": false,
      "t": 113173.75320833338,
      "d": 2804.827000000005,
      "v": 71
    },
    {
      "midi": 40,
      "hit": false,
      "t": 113176.2938125,
      "d": 538.6080833333399,
      "v": 78
    },
    {
      "midi": 28,
      "hit": false,
      "t": 113176.2938125,
      "d": 538.6080833333399,
      "v": 78
    },
    {
      "midi": 64,
      "hit": false,
      "t": 113176.29381250068,
      "d": 96.54295833333163,
      "v": 78
    },
    {
      "midi": 76,
      "hit": false,
      "t": 113176.29381250068,
      "d": 96.54295833333163,
      "v": 77
    },
    {
      "midi": 71,
      "hit": false,
      "t": 113178.83441666668,
      "d": 2243.3534791666607,
      "v": 84
    },
    {
      "midi": 68,
      "hit": false,
      "t": 113178.83441666735,
      "d": 88.92114583333023,
      "v": 77
    },
    {
      "midi": 71,
      "hit": false,
      "t": 113178.83441666735,
      "d": 88.92114583333023,
      "v": 86
    },
    {
      "midi": 76,
      "hit": false,
      "t": 113415.11060416735,
      "d": 332.8191458333313,
      "v": 87
    },
    {
      "midi": 68,
      "hit": false,
      "t": 113417.65120833402,
      "d": 309.9537083333271,
      "v": 90
    },
    {
      "midi": 71,
      "hit": false,
      "t": 113417.65120833402,
      "d": 312.49431249999907,
      "v": 91
    },
    {
      "midi": 64,
      "hit": false,
      "t": 113417.65120833402,
      "d": 332.8191458333313,
      "v": 91
    },
    {
      "midi": 40,
      "hit": false,
      "t": 113902.90660416667,
      "d": 276.9258541666786,
      "v": 71
    },
    {
      "midi": 28,
      "hit": false,
      "t": 113902.90660416667,
      "d": 276.9258541666786,
      "v": 71
    },
    {
      "midi": 71,
      "hit": false,
      "t": 113902.90660416735,
      "d": 94.0023541666742,
      "v": 87
    },
    {
      "midi": 68,
      "hit": false,
      "t": 113905.44720833402,
      "d": 91.46175000000221,
      "v": 81
    },
    {
      "midi": 76,
      "hit": false,
      "t": 113905.44720833402,
      "d": 91.46175000000221,
      "v": 80
    },
    {
      "midi": 64,
      "hit": false,
      "t": 113905.44720833402,
      "d": 99.08356250000361,
      "v": 80
    },
    {
      "midi": 47,
      "hit": false,
      "t": 114149.34520833334,
      "d": 566.5547291666735,
      "v": 66
    },
    {
      "midi": 35,
      "hit": false,
      "t": 114149.34520833334,
      "d": 566.5547291666735,
      "v": 66
    },
    {
      "midi": 68,
      "hit": false,
      "t": 114149.34520833402,
      "d": 83.83993750000081,
      "v": 75
    },
    {
      "midi": 71,
      "hit": false,
      "t": 114149.34520833402,
      "d": 83.83993750000081,
      "v": 79
    },
    {
      "midi": 76,
      "hit": false,
      "t": 114151.8858125007,
      "d": 81.29933333332883,
      "v": 77
    },
    {
      "midi": 64,
      "hit": false,
      "t": 114151.8858125007,
      "d": 104.16477083333302,
      "v": 79
    },
    {
      "midi": 64,
      "hit": false,
      "t": 114390.70260416737,
      "d": 330.27854166667385,
      "v": 87
    },
    {
      "midi": 71,
      "hit": false,
      "t": 114390.70260416737,
      "d": 330.27854166667385,
      "v": 87
    },
    {
      "midi": 68,
      "hit": false,
      "t": 114393.24320833404,
      "d": 302.33189583334024,
      "v": 81
    },
    {
      "midi": 76,
      "hit": false,
      "t": 114393.24320833404,
      "d": 327.73793750000186,
      "v": 83
    },
    {
      "midi": 47,
      "hit": false,
      "t": 114878.49860416669,
      "d": 264.22283333333326,
      "v": 42
    },
    {
      "midi": 35,
      "hit": false,
      "t": 114878.49860416669,
      "d": 264.22283333333326,
      "v": 42
    },
    {
      "midi": 71,
      "hit": false,
      "t": 114881.03920833404,
      "d": 86.3805416666728,
      "v": 75
    },
    {
      "midi": 68,
      "hit": false,
      "t": 114881.03920833404,
      "d": 88.92114583334478,
      "v": 69
    },
    {
      "midi": 76,
      "hit": false,
      "t": 114881.03920833404,
      "d": 91.46175000001676,
      "v": 71
    },
    {
      "midi": 64,
      "hit": false,
      "t": 114881.03920833404,
      "d": 111.78658333334897,
      "v": 78
    },
    {
      "midi": 40,
      "hit": false,
      "t": 115124.93720833336,
      "d": 553.8517083333281,
      "v": 74
    },
    {
      "midi": 28,
      "hit": false,
      "t": 115124.93720833336,
      "d": 553.8517083333281,
      "v": 74
    },
    {
      "midi": 64,
      "hit": false,
      "t": 115124.93720833406,
      "d": 88.92114583334478,
      "v": 73
    },
    {
      "midi": 71,
      "hit": false,
      "t": 115124.93720833406,
      "d": 91.46175000001676,
      "v": 71
    },
    {
      "midi": 68,
      "hit": false,
      "t": 115127.47781250073,
      "d": 86.3805416666728,
      "v": 66
    },
    {
      "midi": 76,
      "hit": false,
      "t": 115127.47781250073,
      "d": 86.3805416666728,
      "v": 71
    },
    {
      "midi": 64,
      "hit": false,
      "t": 115366.2946041674,
      "d": 332.81914583334583,
      "v": 89
    },
    {
      "midi": 68,
      "hit": false,
      "t": 115368.83520833407,
      "d": 332.81914583334583,
      "v": 79
    },
    {
      "midi": 71,
      "hit": false,
      "t": 115368.83520833407,
      "d": 332.81914583334583,
      "v": 86
    },
    {
      "midi": 76,
      "hit": false,
      "t": 115368.83520833407,
      "d": 332.81914583334583,
      "v": 82
    },
    {
      "midi": 40,
      "hit": false,
      "t": 115854.09060416669,
      "d": 238.81679166667163,
      "v": 71
    },
    {
      "midi": 28,
      "hit": false,
      "t": 115854.09060416669,
      "d": 238.81679166667163,
      "v": 71
    },
    {
      "midi": 76,
      "hit": false,
      "t": 115856.63120833409,
      "d": 94.00235416665964,
      "v": 80
    },
    {
      "midi": 64,
      "hit": false,
      "t": 115856.63120833409,
      "d": 99.08356249998906,
      "v": 80
    },
    {
      "midi": 68,
      "hit": false,
      "t": 115856.63120833409,
      "d": 99.08356249998906,
      "v": 77
    },
    {
      "midi": 71,
      "hit": false,
      "t": 115856.63120833409,
      "d": 99.08356249998906,
      "v": 87
    },
    {
      "midi": 78,
      "hit": false,
      "t": 116087.82618750005,
      "d": 398.87485416667187,
      "v": 95
    },
    {
      "midi": 82,
      "hit": false,
      "t": 116087.82618750005,
      "d": 485.25539583334466,
      "v": 99
    },
    {
      "midi": 70,
      "hit": false,
      "t": 116100.52920833333,
      "d": 350.60337500000605,
      "v": 83
    },
    {
      "midi": 66,
      "hit": false,
      "t": 116100.52920833339,
      "d": 353.14397916667804,
      "v": 106
    },
    {
      "midi": 47,
      "hit": false,
      "t": 116103.06981250003,
      "d": 472.5523749999993,
      "v": 76
    },
    {
      "midi": 35,
      "hit": false,
      "t": 116103.06981250003,
      "d": 472.5523749999993,
      "v": 76
    },
    {
      "midi": 59,
      "hit": false,
      "t": 116103.06981250006,
      "d": 350.60337500000605,
      "v": 108
    },
    {
      "midi": 70,
      "hit": false,
      "t": 116103.06981250006,
      "d": 350.60337500000605,
      "v": 111
    },
    {
      "midi": 68,
      "hit": false,
      "t": 116105.6104166674,
      "d": 251.51981250000244,
      "v": 77
    },
    {
      "midi": 71,
      "hit": false,
      "t": 116105.6104166674,
      "d": 269.3040416666772,
      "v": 86
    },
    {
      "midi": 64,
      "hit": false,
      "t": 116105.6104166674,
      "d": 317.57552083334303,
      "v": 83
    },
    {
      "midi": 76,
      "hit": false,
      "t": 116108.15102083408,
      "d": 264.22283333333326,
      "v": 82
    },
    {
      "midi": 64,
      "hit": false,
      "t": 116580.7033958334,
      "d": 332.81914583334583,
      "v": 101
    },
    {
      "midi": 68,
      "hit": false,
      "t": 116580.7033958334,
      "d": 353.14397916667804,
      "v": 100
    },
    {
      "midi": 40,
      "hit": false,
      "t": 116588.32520833336,
      "d": 411.5778750000027,
      "v": 77
    },
    {
      "midi": 28,
      "hit": false,
      "t": 116588.32520833336,
      "d": 411.5778750000027,
      "v": 77
    },
    {
      "midi": 71,
      "hit": false,
      "t": 116588.32520833408,
      "d": 282.00706250000803,
      "v": 90
    },
    {
      "midi": 64,
      "hit": false,
      "t": 116588.32520833408,
      "d": 332.81914583334583,
      "v": 87
    },
    {
      "midi": 76,
      "hit": false,
      "t": 116588.32520833408,
      "d": 332.81914583334583,
      "v": 85
    },
    {
      "midi": 68,
      "hit": false,
      "t": 116590.86581250075,
      "d": 279.46645833333605,
      "v": 85
    },
    {
      "midi": 68,
      "hit": false,
      "t": 116601.02822916667,
      "d": 299.79129166666826,
      "v": 76
    },
    {
      "midi": 80,
      "hit": false,
      "t": 116606.10943750005,
      "d": 381.0906249999971,
      "v": 82
    },
    {
      "midi": 76,
      "hit": false,
      "t": 116606.10943750005,
      "d": 401.4154583333293,
      "v": 76
    },
    {
      "midi": 59,
      "hit": false,
      "t": 116611.19064583341,
      "d": 302.33189583334024,
      "v": 101
    },
    {
      "midi": 59,
      "hit": false,
      "t": 117055.79637500008,
      "d": 617.3668125000113,
      "v": 87
    },
    {
      "midi": 66,
      "hit": false,
      "t": 117055.79637500008,
      "d": 734.2346041666751,
      "v": 90
    },
    {
      "midi": 63,
      "hit": false,
      "t": 117058.33697916675,
      "d": 627.5292291666701,
      "v": 92
    },
    {
      "midi": 66,
      "hit": false,
      "t": 117076.12120833334,
      "d": 818.0745416666614,
      "v": 78
    },
    {
      "midi": 47,
      "hit": false,
      "t": 117076.12120833337,
      "d": 525.9050624999945,
      "v": 79
    },
    {
      "midi": 35,
      "hit": false,
      "t": 117076.12120833337,
      "d": 525.9050624999945,
      "v": 79
    },
    {
      "midi": 66,
      "hit": false,
      "t": 117078.66181250075,
      "d": 76.21812499999942,
      "v": 88
    },
    {
      "midi": 71,
      "hit": false,
      "t": 117078.66181250075,
      "d": 76.21812499999942,
      "v": 86
    },
    {
      "midi": 75,
      "hit": false,
      "t": 117078.66181250075,
      "d": 88.92114583333023,
      "v": 84
    },
    {
      "midi": 75,
      "hit": false,
      "t": 117083.74302083338,
      "d": 823.1557500000054,
      "v": 84
    },
    {
      "midi": 78,
      "hit": false,
      "t": 117083.74302083338,
      "d": 823.1557500000054,
      "v": 73
    },
    {
      "midi": 66,
      "hit": false,
      "t": 117317.47860416741,
      "d": 304.8725000000122,
      "v": 94
    },
    {
      "midi": 75,
      "hit": false,
      "t": 117317.47860416741,
      "d": 304.8725000000122,
      "v": 89
    },
    {
      "midi": 71,
      "hit": false,
      "t": 117320.01920833408,
      "d": 327.73793750000186,
      "v": 96
    },
    {
      "midi": 54,
      "hit": false,
      "t": 117800.19339583343,
      "d": 1194.083958333329,
      "v": 94
    },
    {
      "midi": 47,
      "hit": false,
      "t": 117805.2746041667,
      "d": 248.979208333345,
      "v": 63
    },
    {
      "midi": 35,
      "hit": false,
      "t": 117805.2746041667,
      "d": 248.979208333345,
      "v": 63
    },
    {
      "midi": 71,
      "hit": false,
      "t": 117807.81520833408,
      "d": 114.3271875000064,
      "v": 89
    },
    {
      "midi": 75,
      "hit": false,
      "t": 117807.81520833408,
      "d": 114.3271875000064,
      "v": 84
    },
    {
      "midi": 66,
      "hit": false,
      "t": 117807.81520833408,
      "d": 119.40839583333582,
      "v": 87
    },
    {
      "midi": 59,
      "hit": false,
      "t": 117825.59943750009,
      "d": 942.5641458333266,
      "v": 91
    },
    {
      "midi": 63,
      "hit": false,
      "t": 117825.59943750009,
      "d": 957.8077708333294,
      "v": 92
    },
    {
      "midi": 71,
      "hit": false,
      "t": 118028.84777083338,
      "d": 386.1718333333265,
      "v": 83
    },
    {
      "midi": 75,
      "hit": false,
      "t": 118028.84777083338,
      "d": 401.4154583333293,
      "v": 88
    },
    {
      "midi": 63,
      "hit": false,
      "t": 118044.09139583333,
      "d": 332.8191458333313,
      "v": 80
    },
    {
      "midi": 42,
      "hit": false,
      "t": 118051.71320833337,
      "d": 505.5802291666623,
      "v": 82
    },
    {
      "midi": 30,
      "hit": false,
      "t": 118051.71320833337,
      "d": 505.5802291666623,
      "v": 82
    },
    {
      "midi": 71,
      "hit": false,
      "t": 118293.07060416741,
      "d": 292.16947916666686,
      "v": 94
    },
    {
      "midi": 75,
      "hit": false,
      "t": 118295.61120833408,
      "d": 271.84464583333465,
      "v": 87
    },
    {
      "midi": 66,
      "hit": false,
      "t": 118295.61120833408,
      "d": 292.16947916666686,
      "v": 92
    },
    {
      "midi": 66,
      "hit": false,
      "t": 118526.80618749998,
      "d": 355.68458333333547,
      "v": 83
    },
    {
      "midi": 47,
      "hit": false,
      "t": 118539.50920833337,
      "d": 449.6869374999951,
      "v": 75
    },
    {
      "midi": 35,
      "hit": false,
      "t": 118539.50920833337,
      "d": 449.6869374999951,
      "v": 75
    },
    {
      "midi": 75,
      "hit": false,
      "t": 118552.2122291667,
      "d": 289.6288749999949,
      "v": 82
    },
    {
      "midi": 78,
      "hit": false,
      "t": 118557.29343750003,
      "d": 337.9003541666607,
      "v": 82
    },
    {
      "midi": 66,
      "hit": false,
      "t": 118780.86660416742,
      "d": 104.16477083333302,
      "v": 85
    },
    {
      "midi": 71,
      "hit": false,
      "t": 118783.40720833409,
      "d": 81.29933333332883,
      "v": 83
    },
    {
      "midi": 75,
      "hit": false,
      "t": 118783.40720833409,
      "d": 106.70537499999045,
      "v": 84
    },
    {
      "midi": 56,
      "hit": false,
      "t": 119004.43977083343,
      "d": 914.6175000000076,
      "v": 104
    },
    {
      "midi": 64,
      "hit": false,
      "t": 119006.9803750001,
      "d": 973.0513958333322,
      "v": 98
    },
    {
      "midi": 42,
      "hit": false,
      "t": 119027.30520833338,
      "d": 500.4990208333329,
      "v": 83
    },
    {
      "midi": 30,
      "hit": false,
      "t": 119027.30520833338,
      "d": 500.4990208333329,
      "v": 83
    },
    {
      "midi": 66,
      "hit": false,
      "t": 119027.30520833407,
      "d": 78.7587291666714,
      "v": 82
    },
    {
      "midi": 70,
      "hit": false,
      "t": 119027.30520833407,
      "d": 78.7587291666714,
      "v": 82
    },
    {
      "midi": 64,
      "hit": false,
      "t": 119029.84581249999,
      "d": 551.3111041666707,
      "v": 77
    },
    {
      "midi": 73,
      "hit": false,
      "t": 119029.84581250075,
      "d": 76.21812499999942,
      "v": 82
    },
    {
      "midi": 68,
      "hit": false,
      "t": 119032.38641666669,
      "d": 541.1486874999973,
      "v": 91
    },
    {
      "midi": 76,
      "hit": false,
      "t": 119032.38641666669,
      "d": 589.4201666666631,
      "v": 73
    },
    {
      "midi": 73,
      "hit": false,
      "t": 119268.66260416742,
      "d": 264.22283333333326,
      "v": 96
    },
    {
      "midi": 70,
      "hit": false,
      "t": 119268.66260416742,
      "d": 292.16947916666686,
      "v": 98
    },
    {
      "midi": 66,
      "hit": false,
      "t": 119271.20320833409,
      "d": 289.6288749999949,
      "v": 100
    },
    {
      "midi": 64,
      "hit": false,
      "t": 119746.29618749999,
      "d": 147.35504166666942,
      "v": 79
    },
    {
      "midi": 68,
      "hit": false,
      "t": 119751.37739583335,
      "d": 152.43624999999884,
      "v": 86
    },
    {
      "midi": 76,
      "hit": false,
      "t": 119751.37739583335,
      "d": 152.43624999999884,
      "v": 82
    },
    {
      "midi": 42,
      "hit": false,
      "t": 119756.4586041667,
      "d": 248.979208333345,
      "v": 83
    },
    {
      "midi": 30,
      "hit": false,
      "t": 119756.4586041667,
      "d": 248.979208333345,
      "v": 83
    },
    {
      "midi": 73,
      "hit": false,
      "t": 119758.99920833409,
      "d": 86.3805416666728,
      "v": 89
    },
    {
      "midi": 66,
      "hit": false,
      "t": 119758.99920833409,
      "d": 94.0023541666742,
      "v": 95
    },
    {
      "midi": 70,
      "hit": false,
      "t": 119758.99920833409,
      "d": 94.0023541666742,
      "v": 96
    },
    {
      "midi": 78,
      "hit": false,
      "t": 119758.99920833409,
      "d": 106.705375000005,
      "v": 100
    },
    {
      "midi": 54,
      "hit": false,
      "t": 119990.1941875001,
      "d": 396.3342499999999,
      "v": 111
    },
    {
      "midi": 63,
      "hit": false,
      "t": 119990.1941875001,
      "d": 396.3342499999999,
      "v": 82
    },
    {
      "midi": 44,
      "hit": false,
      "t": 120002.89720833338,
      "d": 365.84700000000885,
      "v": 82
    },
    {
      "midi": 32,
      "hit": false,
      "t": 120002.89720833338,
      "d": 365.84700000000885,
      "v": 82
    },
    {
      "midi": 63,
      "hit": false,
      "t": 120005.4378125,
      "d": 363.30639583333686,
      "v": 80
    },
    {
      "midi": 66,
      "hit": false,
      "t": 120010.51902083335,
      "d": 322.65672916667245,
      "v": 109
    },
    {
      "midi": 75,
      "hit": false,
      "t": 120010.51902083335,
      "d": 355.68458333333547,
      "v": 82
    },
    {
      "midi": 66,
      "hit": false,
      "t": 120244.25460416744,
      "d": 289.6288749999949,
      "v": 95
    },
    {
      "midi": 78,
      "hit": false,
      "t": 120244.25460416744,
      "d": 289.6288749999949,
      "v": 96
    },
    {
      "midi": 73,
      "hit": false,
      "t": 120246.79520833411,
      "d": 261.6822291666613,
      "v": 87
    },
    {
      "midi": 70,
      "hit": false,
      "t": 120246.79520833411,
      "d": 269.30404166666267,
      "v": 93
    },
    {
      "midi": 64,
      "hit": false,
      "t": 120480.5307916667,
      "d": 292.16947916666686,
      "v": 87
    },
    {
      "midi": 73,
      "hit": false,
      "t": 120480.5307916667,
      "d": 365.8469999999943,
      "v": 86
    },
    {
      "midi": 46,
      "hit": false,
      "t": 120490.69320833338,
      "d": 353.1439791666635,
      "v": 88
    },
    {
      "midi": 34,
      "hit": false,
      "t": 120490.69320833338,
      "d": 353.1439791666635,
      "v": 88
    },
    {
      "midi": 61,
      "hit": false,
      "t": 120513.55864583333,
      "d": 274.38525000000664,
      "v": 91
    },
    {
      "midi": 61,
      "hit": false,
      "t": 120513.55864583344,
      "d": 238.81679166667163,
      "v": 104
    },
    {
      "midi": 52,
      "hit": false,
      "t": 120516.09925000012,
      "d": 248.97920833333046,
      "v": 97
    },
    {
      "midi": 70,
      "hit": false,
      "t": 120732.05060416744,
      "d": 81.29933333334338,
      "v": 89
    },
    {
      "midi": 66,
      "hit": false,
      "t": 120732.05060416744,
      "d": 111.78658333333442,
      "v": 89
    },
    {
      "midi": 73,
      "hit": false,
      "t": 120734.59120833411,
      "d": 43.1902708333364,
      "v": 83
    },
    {
      "midi": 78,
      "hit": false,
      "t": 120734.59120833411,
      "d": 83.83993750000081,
      "v": 94
    },
    {
      "midi": 71,
      "hit": false,
      "t": 120965.78618750002,
      "d": 1661.555124999999,
      "v": 73
    },
    {
      "midi": 51,
      "hit": false,
      "t": 120970.86739583344,
      "d": 3577.1706666666723,
      "v": 83
    },
    {
      "midi": 59,
      "hit": false,
      "t": 120970.86739583344,
      "d": 3663.5512083333306,
      "v": 79
    },
    {
      "midi": 54,
      "hit": false,
      "t": 120973.40800000011,
      "d": 3587.333083333331,
      "v": 89
    },
    {
      "midi": 47,
      "hit": false,
      "t": 120978.48920833338,
      "d": 640.2322500000009,
      "v": 85
    },
    {
      "midi": 35,
      "hit": false,
      "t": 120978.48920833338,
      "d": 640.2322500000009,
      "v": 85
    },
    {
      "midi": 71,
      "hit": false,
      "t": 120978.48920833411,
      "d": 99.08356250001816,
      "v": 80
    },
    {
      "midi": 66,
      "hit": false,
      "t": 120981.02981250078,
      "d": 63.51510416666861,
      "v": 81
    },
    {
      "midi": 75,
      "hit": false,
      "t": 120981.02981250078,
      "d": 66.05570833334059,
      "v": 77
    },
    {
      "midi": 63,
      "hit": false,
      "t": 120986.11102083336,
      "d": 1623.4460625000065,
      "v": 81
    },
    {
      "midi": 59,
      "hit": false,
      "t": 121006.43585416667,
      "d": 1453.225583333333,
      "v": 61
    },
    {
      "midi": 66,
      "hit": false,
      "t": 121219.84660416747,
      "d": 292.16947916666686,
      "v": 98
    },
    {
      "midi": 71,
      "hit": false,
      "t": 121222.38720833414,
      "d": 284.54766666666546,
      "v": 99
    },
    {
      "midi": 75,
      "hit": false,
      "t": 121222.38720833414,
      "d": 292.16947916666686,
      "v": 93
    },
    {
      "midi": 47,
      "hit": false,
      "t": 121707.64260416671,
      "d": 243.89800000000105,
      "v": 71
    },
    {
      "midi": 35,
      "hit": false,
      "t": 121707.64260416671,
      "d": 243.89800000000105,
      "v": 71
    },
    {
      "midi": 71,
      "hit": false,
      "t": 121710.18320833414,
      "d": 66.05570833334059,
      "v": 88
    },
    {
      "midi": 75,
      "hit": false,
      "t": 121710.18320833414,
      "d": 68.59631250001257,
      "v": 82
    },
    {
      "midi": 66,
      "hit": false,
      "t": 121710.18320833414,
      "d": 86.3805416666728,
      "v": 88
    },
    {
      "midi": 42,
      "hit": false,
      "t": 121954.08120833339,
      "d": 525.9050624999945,
      "v": 76
    },
    {
      "midi": 30,
      "hit": false,
      "t": 121954.08120833339,
      "d": 525.9050624999945,
      "v": 76
    },
    {
      "midi": 71,
      "hit": false,
      "t": 121954.08120833414,
      "d": 71.13691666667,
      "v": 87
    },
    {
      "midi": 66,
      "hit": false,
      "t": 121954.08120833414,
      "d": 86.3805416666728,
      "v": 85
    },
    {
      "midi": 75,
      "hit": false,
      "t": 121956.62181250082,
      "d": 60.974499999996624,
      "v": 82
    },
    {
      "midi": 75,
      "hit": false,
      "t": 122195.43860416749,
      "d": 264.22283333333326,
      "v": 94
    },
    {
      "midi": 66,
      "hit": false,
      "t": 122195.43860416749,
      "d": 266.76343750000524,
      "v": 98
    },
    {
      "midi": 71,
      "hit": false,
      "t": 122197.97920833416,
      "d": 261.6822291666613,
      "v": 97
    },
    {
      "midi": 42,
      "hit": false,
      "t": 122683.23460416672,
      "d": 208.32954166666605,
      "v": 71
    },
    {
      "midi": 30,
      "hit": false,
      "t": 122683.23460416672,
      "d": 208.32954166666605,
      "v": 71
    },
    {
      "midi": 66,
      "hit": false,
      "t": 122685.77520833416,
      "d": 86.3805416666728,
      "v": 94
    },
    {
      "midi": 71,
      "hit": false,
      "t": 122685.77520833416,
      "d": 88.92114583334478,
      "v": 88
    },
    {
      "midi": 75,
      "hit": false,
      "t": 122685.77520833416,
      "d": 88.92114583334478,
      "v": 88
    },
    {
      "midi": 47,
      "hit": false,
      "t": 122929.67320833339,
      "d": 533.5268749999959,
      "v": 77
    },
    {
      "midi": 35,
      "hit": false,
      "t": 122929.67320833339,
      "d": 533.5268749999959,
      "v": 77
    },
    {
      "midi": 66,
      "hit": false,
      "t": 123171.0306041675,
      "d": 304.8725000000122,
      "v": 100
    },
    {
      "midi": 71,
      "hit": false,
      "t": 123173.57120833418,
      "d": 317.57552083334303,
      "v": 91
    },
    {
      "midi": 75,
      "hit": false,
      "t": 123173.57120833418,
      "d": 317.57552083334303,
      "v": 93
    },
    {
      "midi": 47,
      "hit": false,
      "t": 123658.82660416672,
      "d": 208.32954166666605,
      "v": 68
    },
    {
      "midi": 35,
      "hit": false,
      "t": 123658.82660416672,
      "d": 208.32954166666605,
      "v": 68
    },
    {
      "midi": 66,
      "hit": false,
      "t": 123661.3672083342,
      "d": 83.83993750000081,
      "v": 89
    },
    {
      "midi": 75,
      "hit": false,
      "t": 123661.3672083342,
      "d": 83.83993750000081,
      "v": 82
    },
    {
      "midi": 71,
      "hit": false,
      "t": 123661.3672083342,
      "d": 88.92114583333023,
      "v": 89
    },
    {
      "midi": 42,
      "hit": false,
      "t": 123905.2652083334,
      "d": 274.38525000000664,
      "v": 78
    },
    {
      "midi": 30,
      "hit": false,
      "t": 123905.2652083334,
      "d": 274.38525000000664,
      "v": 78
    },
    {
      "midi": 66,
      "hit": false,
      "t": 123905.2652083342,
      "d": 73.67752083334199,
      "v": 82
    },
    {
      "midi": 71,
      "hit": false,
      "t": 123905.2652083342,
      "d": 73.67752083334199,
      "v": 87
    },
    {
      "midi": 75,
      "hit": false,
      "t": 123907.80581250087,
      "d": 71.13691666667,
      "v": 83
    },
    {
      "midi": 71,
      "hit": false,
      "t": 124149.16320833421,
      "d": 274.38525000000664,
      "v": 96
    },
    {
      "midi": 75,
      "hit": false,
      "t": 124149.16320833421,
      "d": 274.38525000000664,
      "v": 92
    },
    {
      "midi": 66,
      "hit": false,
      "t": 124149.16320833421,
      "d": 282.00706250000803,
      "v": 98
    },
    {
      "midi": 42,
      "hit": false,
      "t": 124393.0612083334,
      "d": 246.43860416667303,
      "v": 77
    },
    {
      "midi": 30,
      "hit": false,
      "t": 124393.0612083334,
      "d": 246.43860416667303,
      "v": 77
    },
    {
      "midi": 66,
      "hit": false,
      "t": 124634.41860416756,
      "d": 88.92114583334478,
      "v": 93
    },
    {
      "midi": 75,
      "hit": false,
      "t": 124636.95920833423,
      "d": 71.13691666667,
      "v": 90
    },
    {
      "midi": 71,
      "hit": false,
      "t": 124636.95920833423,
      "d": 88.92114583334478,
      "v": 94
    },
    {
      "midi": 54,
      "hit": false,
      "t": 124857.99177083344,
      "d": 1341.4389999999985,
      "v": 104
    },
    {
      "midi": 63,
      "hit": false,
      "t": 124857.99177083344,
      "d": 1369.385645833332,
      "v": 97
    },
    {
      "midi": 66,
      "hit": false,
      "t": 124873.23539583337,
      "d": 597.0419791666645,
      "v": 86
    },
    {
      "midi": 47,
      "hit": false,
      "t": 124880.8572083334,
      "d": 551.3111041666707,
      "v": 98
    },
    {
      "midi": 35,
      "hit": false,
      "t": 124880.8572083334,
      "d": 551.3111041666707,
      "v": 98
    },
    {
      "midi": 71,
      "hit": false,
      "t": 124880.85720833424,
      "d": 88.92114583334478,
      "v": 85
    },
    {
      "midi": 75,
      "hit": false,
      "t": 124880.85720833424,
      "d": 101.62416666667559,
      "v": 71
    },
    {
      "midi": 66,
      "hit": false,
      "t": 124883.39781250092,
      "d": 86.3805416666728,
      "v": 87
    },
    {
      "midi": 75,
      "hit": false,
      "t": 124898.64143750005,
      "d": 574.1765416666603,
      "v": 84
    },
    {
      "midi": 75,
      "hit": false,
      "t": 125122.21460416759,
      "d": 266.76343750000524,
      "v": 89
    },
    {
      "midi": 71,
      "hit": false,
      "t": 125124.75520833426,
      "d": 233.73558333332767,
      "v": 92
    },
    {
      "midi": 66,
      "hit": false,
      "t": 125124.75520833426,
      "d": 264.22283333333326,
      "v": 96
    },
    {
      "midi": 66,
      "hit": false,
      "t": 125604.92939583337,
      "d": 594.5013749999925,
      "v": 86
    },
    {
      "midi": 47,
      "hit": false,
      "t": 125610.01060416673,
      "d": 231.19497916667024,
      "v": 72
    },
    {
      "midi": 35,
      "hit": false,
      "t": 125610.01060416673,
      "d": 231.19497916667024,
      "v": 72
    },
    {
      "midi": 75,
      "hit": false,
      "t": 125612.55120833426,
      "d": 58.43389583333919,
      "v": 78
    },
    {
      "midi": 71,
      "hit": false,
      "t": 125612.55120833426,
      "d": 86.3805416666728,
      "v": 84
    },
    {
      "midi": 66,
      "hit": false,
      "t": 125612.55120833426,
      "d": 88.92114583334478,
      "v": 81
    },
    {
      "midi": 75,
      "hit": false,
      "t": 125650.66027083337,
      "d": 548.7704999999987,
      "v": 97
    },
    {
      "midi": 42,
      "hit": false,
      "t": 125856.4492083334,
      "d": 444.6057291666657,
      "v": 89
    },
    {
      "midi": 30,
      "hit": false,
      "t": 125856.4492083334,
      "d": 444.6057291666657,
      "v": 89
    },
    {
      "midi": 66,
      "hit": false,
      "t": 125856.44920833428,
      "d": 104.16477083333302,
      "v": 88
    },
    {
      "midi": 71,
      "hit": false,
      "t": 125856.44920833428,
      "d": 104.16477083333302,
      "v": 89
    },
    {
      "midi": 75,
      "hit": false,
      "t": 125858.98981250095,
      "d": 96.54295833333163,
      "v": 86
    },
    {
      "midi": 75,
      "hit": false,
      "t": 126097.8066041676,
      "d": 48.27147916666581,
      "v": 47
    },
    {
      "midi": 64,
      "hit": false,
      "t": 126331.54218750003,
      "d": 261.6822291666613,
      "v": 85
    },
    {
      "midi": 52,
      "hit": false,
      "t": 126336.62339583343,
      "d": 294.71008333333884,
      "v": 100
    },
    {
      "midi": 61,
      "hit": false,
      "t": 126336.62339583343,
      "d": 431.9027083333349,
      "v": 101
    },
    {
      "midi": 42,
      "hit": false,
      "t": 126344.2452083334,
      "d": 233.73558333332767,
      "v": 77
    },
    {
      "midi": 30,
      "hit": false,
      "t": 126344.2452083334,
      "d": 233.73558333332767,
      "v": 77
    },
    {
      "midi": 70,
      "hit": false,
      "t": 126344.24520833428,
      "d": 287.08827083333745,
      "v": 96
    },
    {
      "midi": 73,
      "hit": false,
      "t": 126344.24520833428,
      "d": 322.65672916667245,
      "v": 95
    },
    {
      "midi": 66,
      "hit": false,
      "t": 126346.78581250095,
      "d": 287.08827083333745,
      "v": 100
    },
    {
      "midi": 73,
      "hit": false,
      "t": 126356.9482291667,
      "d": 309.9537083333271,
      "v": 97
    },
    {
      "midi": 44,
      "hit": false,
      "t": 126585.60260416674,
      "d": 213.41074999999546,
      "v": 72
    },
    {
      "midi": 32,
      "hit": false,
      "t": 126585.60260416674,
      "d": 213.41074999999546,
      "v": 72
    },
    {
      "midi": 63,
      "hit": false,
      "t": 126821.8787916667,
      "d": 602.1231874999794,
      "v": 83
    },
    {
      "midi": 47,
      "hit": false,
      "t": 126832.0412083334,
      "d": 492.8772083333315,
      "v": 78
    },
    {
      "midi": 35,
      "hit": false,
      "t": 126832.0412083334,
      "d": 492.8772083333315,
      "v": 78
    },
    {
      "midi": 71,
      "hit": false,
      "t": 126832.04120833428,
      "d": 91.46175000000221,
      "v": 84
    },
    {
      "midi": 75,
      "hit": false,
      "t": 126832.04120833428,
      "d": 91.46175000000221,
      "v": 81
    },
    {
      "midi": 51,
      "hit": false,
      "t": 126834.58181250011,
      "d": 1283.0051041666738,
      "v": 101
    },
    {
      "midi": 59,
      "hit": false,
      "t": 126834.58181250011,
      "d": 1397.3322916666802,
      "v": 92
    },
    {
      "midi": 66,
      "hit": false,
      "t": 126834.58181250095,
      "d": 88.92114583333023,
      "v": 88
    },
    {
      "midi": 71,
      "hit": false,
      "t": 126854.90664583337,
      "d": 599.582583333322,
      "v": 80
    },
    {
      "midi": 75,
      "hit": false,
      "t": 127073.39860416761,
      "d": 292.1694791666814,
      "v": 88
    },
    {
      "midi": 71,
      "hit": false,
      "t": 127073.39860416761,
      "d": 297.2506875000108,
      "v": 92
    },
    {
      "midi": 66,
      "hit": false,
      "t": 127075.93920833428,
      "d": 274.38525000000664,
      "v": 93
    },
    {
      "midi": 63,
      "hit": false,
      "t": 127556.11339583335,
      "d": 556.3923125000001,
      "v": 101
    },
    {
      "midi": 47,
      "hit": false,
      "t": 127561.19460416673,
      "d": 165.13927083332965,
      "v": 67
    },
    {
      "midi": 35,
      "hit": false,
      "t": 127561.19460416673,
      "d": 165.13927083332965,
      "v": 67
    },
    {
      "midi": 75,
      "hit": false,
      "t": 127563.73520833428,
      "d": 71.13691666667,
      "v": 82
    },
    {
      "midi": 66,
      "hit": false,
      "t": 127563.73520833428,
      "d": 94.0023541666742,
      "v": 87
    },
    {
      "midi": 71,
      "hit": false,
      "t": 127563.73520833428,
      "d": 94.0023541666742,
      "v": 90
    },
    {
      "midi": 71,
      "hit": false,
      "t": 127581.51943750001,
      "d": 678.3413125000079,
      "v": 84
    },
    {
      "midi": 42,
      "hit": false,
      "t": 127807.63320833338,
      "d": 513.2020416666637,
      "v": 64
    },
    {
      "midi": 30,
      "hit": false,
      "t": 127807.63320833338,
      "d": 513.2020416666637,
      "v": 64
    },
    {
      "midi": 66,
      "hit": false,
      "t": 127807.63320833429,
      "d": 91.46175000000221,
      "v": 86
    },
    {
      "midi": 71,
      "hit": false,
      "t": 127807.63320833429,
      "d": 91.46175000000221,
      "v": 91
    },
    {
      "midi": 75,
      "hit": false,
      "t": 127810.17381250096,
      "d": 88.92114583333023,
      "v": 84
    },
    {
      "midi": 75,
      "hit": false,
      "t": 128048.99060416761,
      "d": 327.7379375000164,
      "v": 93
    },
    {
      "midi": 71,
      "hit": false,
      "t": 128051.53120833429,
      "d": 307.41310416666965,
      "v": 97
    },
    {
      "midi": 66,
      "hit": false,
      "t": 128051.53120833429,
      "d": 309.95370833334164,
      "v": 96
    },
    {
      "midi": 61,
      "hit": false,
      "t": 128282.72618750013,
      "d": 444.6057291666657,
      "v": 100
    },
    {
      "midi": 64,
      "hit": false,
      "t": 128285.26679166668,
      "d": 345.5221666666621,
      "v": 97
    },
    {
      "midi": 73,
      "hit": false,
      "t": 128285.26679166668,
      "d": 396.3342499999999,
      "v": 82
    },
    {
      "midi": 52,
      "hit": false,
      "t": 128308.13222916679,
      "d": 294.71008333333884,
      "v": 102
    },
    {
      "midi": 42,
      "hit": false,
      "t": 128536.78660416671,
      "d": 101.62416666666104,
      "v": 57
    },
    {
      "midi": 30,
      "hit": false,
      "t": 128536.78660416671,
      "d": 101.62416666666104,
      "v": 57
    },
    {
      "midi": 66,
      "hit": false,
      "t": 128539.3272083343,
      "d": 127.03020833333721,
      "v": 93
    },
    {
      "midi": 70,
      "hit": false,
      "t": 128539.3272083343,
      "d": 132.11141666666663,
      "v": 90
    },
    {
      "midi": 73,
      "hit": false,
      "t": 128539.3272083343,
      "d": 193.08591666666325,
      "v": 89
    },
    {
      "midi": 54,
      "hit": false,
      "t": 128770.52218750013,
      "d": 3574.6300625000003,
      "v": 105
    },
    {
      "midi": 63,
      "hit": false,
      "t": 128773.0627916668,
      "d": 1349.0608124999999,
      "v": 100
    },
    {
      "midi": 66,
      "hit": false,
      "t": 128775.60339583334,
      "d": 609.7450000000099,
      "v": 90
    },
    {
      "midi": 47,
      "hit": false,
      "t": 128783.22520833337,
      "d": 548.7704999999987,
      "v": 75
    },
    {
      "midi": 35,
      "hit": false,
      "t": 128783.22520833337,
      "d": 548.7704999999987,
      "v": 75
    },
    {
      "midi": 75,
      "hit": false,
      "t": 128783.2252083343,
      "d": 119.40839583333582,
      "v": 82
    },
    {
      "midi": 66,
      "hit": false,
      "t": 128785.76581250098,
      "d": 91.46175000000221,
      "v": 90
    },
    {
      "midi": 71,
      "hit": false,
      "t": 128785.76581250098,
      "d": 109.24597916666244,
      "v": 87
    },
    {
      "midi": 75,
      "hit": false,
      "t": 128801.0094375,
      "d": 614.8262083333539,
      "v": 82
    },
    {
      "midi": 66,
      "hit": false,
      "t": 129024.58260416763,
      "d": 304.8725000000122,
      "v": 94
    },
    {
      "midi": 75,
      "hit": false,
      "t": 129024.58260416763,
      "d": 317.57552083334303,
      "v": 90
    },
    {
      "midi": 71,
      "hit": false,
      "t": 129027.1232083343,
      "d": 315.03491666667105,
      "v": 96
    },
    {
      "midi": 47,
      "hit": false,
      "t": 129512.3786041667,
      "d": 182.92350000000442,
      "v": 64
    },
    {
      "midi": 35,
      "hit": false,
      "t": 129512.3786041667,
      "d": 182.92350000000442,
      "v": 64
    },
    {
      "midi": 75,
      "hit": false,
      "t": 129512.37860416765,
      "d": 81.29933333334338,
      "v": 81
    },
    {
      "midi": 66,
      "hit": false,
      "t": 129514.91920833432,
      "d": 71.13691666667,
      "v": 83
    },
    {
      "midi": 71,
      "hit": false,
      "t": 129514.91920833432,
      "d": 71.13691666667,
      "v": 87
    },
    {
      "midi": 66,
      "hit": false,
      "t": 129547.94706250002,
      "d": 564.0141250000015,
      "v": 101
    },
    {
      "midi": 75,
      "hit": false,
      "t": 129547.94706250002,
      "d": 576.7171458333323,
      "v": 84
    },
    {
      "midi": 42,
      "hit": false,
      "t": 129758.81720833338,
      "d": 541.1486874999973,
      "v": 69
    },
    {
      "midi": 30,
      "hit": false,
      "t": 129758.81720833338,
      "d": 541.1486874999973,
      "v": 69
    },
    {
      "midi": 71,
      "hit": false,
      "t": 129758.81720833432,
      "d": 91.46175000001676,
      "v": 89
    },
    {
      "midi": 75,
      "hit": false,
      "t": 129758.81720833432,
      "d": 106.70537500001956,
      "v": 86
    },
    {
      "midi": 66,
      "hit": false,
      "t": 129761.357812501,
      "d": 86.3805416666728,
      "v": 86
    },
    {
      "midi": 71,
      "hit": false,
      "t": 130000.17460416768,
      "d": 91.46175000000221,
      "v": 87
    },
    {
      "midi": 75,
      "hit": false,
      "t": 130000.17460416768,
      "d": 111.78658333333442,
      "v": 87
    },
    {
      "midi": 66,
      "hit": false,
      "t": 130002.71520833435,
      "d": 88.92114583333023,
      "v": 81
    },
    {
      "midi": 61,
      "hit": false,
      "t": 130198.3417291668,
      "d": 355.6845833333209,
      "v": 95
    },
    {
      "midi": 64,
      "hit": false,
      "t": 130218.66656250013,
      "d": 309.9537083333271,
      "v": 91
    },
    {
      "midi": 70,
      "hit": false,
      "t": 130246.61320833435,
      "d": 274.38525000000664,
      "v": 92
    },
    {
      "midi": 66,
      "hit": false,
      "t": 130246.61320833435,
      "d": 284.54766666668,
      "v": 98
    },
    {
      "midi": 76,
      "hit": false,
      "t": 130246.61320833435,
      "d": 317.57552083334303,
      "v": 88
    },
    {
      "midi": 73,
      "hit": false,
      "t": 130246.61320833435,
      "d": 337.90035416667524,
      "v": 94
    },
    {
      "midi": 73,
      "hit": false,
      "t": 130256.77562500002,
      "d": 327.73793750000186,
      "v": 97
    },
    {
      "midi": 76,
      "hit": false,
      "t": 130259.3162291667,
      "d": 325.1973333333299,
      "v": 92
    },
    {
      "midi": 42,
      "hit": false,
      "t": 130487.97060416671,
      "d": 71.13691666667,
      "v": 52
    },
    {
      "midi": 30,
      "hit": false,
      "t": 130487.97060416671,
      "d": 71.13691666667,
      "v": 52
    },
    {
      "midi": 63,
      "hit": false,
      "t": 130701.38135416679,
      "d": 1689.501770833347,
      "v": 96
    },
    {
      "midi": 66,
      "hit": false,
      "t": 130701.38135416679,
      "d": 1763.1792916666745,
      "v": 81
    },
    {
      "midi": 47,
      "hit": false,
      "t": 130734.40920833338,
      "d": 541.1486875000119,
      "v": 77
    },
    {
      "midi": 35,
      "hit": false,
      "t": 130734.40920833338,
      "d": 541.1486875000119,
      "v": 77
    },
    {
      "midi": 71,
      "hit": false,
      "t": 130734.40920833436,
      "d": 86.3805416666728,
      "v": 79
    },
    {
      "midi": 75,
      "hit": false,
      "t": 130736.94981250004,
      "d": 1316.0329583333514,
      "v": 86
    },
    {
      "midi": 66,
      "hit": false,
      "t": 130736.94981250103,
      "d": 86.3805416666728,
      "v": 81
    },
    {
      "midi": 75,
      "hit": false,
      "t": 130736.94981250103,
      "d": 91.46175000000221,
      "v": 77
    },
    {
      "midi": 78,
      "hit": false,
      "t": 130739.49041666671,
      "d": 1382.088666666692,
      "v": 88
    },
    {
      "midi": 75,
      "hit": false,
      "t": 130975.7666041677,
      "d": 307.4131041666551,
      "v": 90
    },
    {
      "midi": 66,
      "hit": false,
      "t": 130978.30720833437,
      "d": 287.0882708333229,
      "v": 95
    },
    {
      "midi": 71,
      "hit": false,
      "t": 130978.30720833437,
      "d": 304.8724999999831,
      "v": 96
    },
    {
      "midi": 71,
      "hit": false,
      "t": 131222.20520833335,
      "d": 475.09297916665673,
      "v": 127
    },
    {
      "midi": 47,
      "hit": false,
      "t": 131463.5626041667,
      "d": 208.32954166666605,
      "v": 71
    },
    {
      "midi": 35,
      "hit": false,
      "t": 131463.5626041667,
      "d": 208.32954166666605,
      "v": 71
    },
    {
      "midi": 66,
      "hit": false,
      "t": 131466.10320833436,
      "d": 73.67752083332743,
      "v": 83
    },
    {
      "midi": 75,
      "hit": false,
      "t": 131466.10320833436,
      "d": 73.67752083332743,
      "v": 81
    },
    {
      "midi": 71,
      "hit": false,
      "t": 131466.10320833436,
      "d": 76.21812499998487,
      "v": 83
    },
    {
      "midi": 42,
      "hit": false,
      "t": 131710.0012083334,
      "d": 444.60572916668025,
      "v": 77
    },
    {
      "midi": 30,
      "hit": false,
      "t": 131710.0012083334,
      "d": 444.60572916668025,
      "v": 77
    },
    {
      "midi": 71,
      "hit": false,
      "t": 131710.00120833435,
      "d": 73.67752083332743,
      "v": 87
    },
    {
      "midi": 75,
      "hit": false,
      "t": 131710.00120833435,
      "d": 73.67752083332743,
      "v": 83
    },
    {
      "midi": 75,
      "hit": false,
      "t": 131712.5418125,
      "d": 497.95841666669,
      "v": 127
    },
    {
      "midi": 66,
      "hit": false,
      "t": 131712.541812501,
      "d": 71.13691666667,
      "v": 84
    },
    {
      "midi": 75,
      "hit": false,
      "t": 131951.35860416768,
      "d": 365.84699999997974,
      "v": 93
    },
    {
      "midi": 66,
      "hit": false,
      "t": 131953.89920833433,
      "d": 348.0627708333195,
      "v": 96
    },
    {
      "midi": 71,
      "hit": false,
      "t": 131953.89920833433,
      "d": 363.3063958333223,
      "v": 96
    },
    {
      "midi": 71,
      "hit": false,
      "t": 132185.09418750007,
      "d": 403.95606249998673,
      "v": 127
    },
    {
      "midi": 73,
      "hit": false,
      "t": 132197.79720833336,
      "d": 447.1463333333377,
      "v": 127
    },
    {
      "midi": 47,
      "hit": false,
      "t": 132197.7972083334,
      "d": 444.60572916668025,
      "v": 76
    },
    {
      "midi": 35,
      "hit": false,
      "t": 132197.7972083334,
      "d": 444.60572916668025,
      "v": 76
    },
    {
      "midi": 66,
      "hit": false,
      "t": 132439.15460416765,
      "d": 73.67752083332743,
      "v": 80
    },
    {
      "midi": 71,
      "hit": false,
      "t": 132441.6952083343,
      "d": 71.13691666667,
      "v": 77
    },
    {
      "midi": 75,
      "hit": false,
      "t": 132441.6952083343,
      "d": 94.0023541666742,
      "v": 81
    },
    {
      "midi": 64,
      "hit": false,
      "t": 132634.78112500013,
      "d": 1933.399770833319,
      "v": 82
    },
    {
      "midi": 56,
      "hit": false,
      "t": 132637.32172916678,
      "d": 1747.9356666666572,
      "v": 86
    },
    {
      "midi": 59,
      "hit": false,
      "t": 132637.32172916678,
      "d": 1900.371916666656,
      "v": 86
    },
    {
      "midi": 76,
      "hit": false,
      "t": 132677.9713958334,
      "d": 660.5570833333477,
      "v": 110
    },
    {
      "midi": 52,
      "hit": false,
      "t": 132685.5932083334,
      "d": 551.3111041666707,
      "v": 79
    },
    {
      "midi": 40,
      "hit": false,
      "t": 132685.5932083334,
      "d": 551.3111041666707,
      "v": 79
    },
    {
      "midi": 68,
      "hit": false,
      "t": 132685.59320833432,
      "d": 88.92114583333023,
      "v": 85
    },
    {
      "midi": 71,
      "hit": false,
      "t": 132685.59320833432,
      "d": 88.92114583333023,
      "v": 89
    },
    {
      "midi": 64,
      "hit": false,
      "t": 132688.13381250098,
      "d": 88.92114583333023,
      "v": 82
    },
    {
      "midi": 76,
      "hit": false,
      "t": 132688.13381250098,
      "d": 88.92114583333023,
      "v": 83
    },
    {
      "midi": 68,
      "hit": false,
      "t": 132690.6744166667,
      "d": 1829.234999999986,
      "v": 107
    },
    {
      "midi": 71,
      "hit": false,
      "t": 132690.6744166667,
      "d": 1902.9125208333135,
      "v": 111
    },
    {
      "midi": 80,
      "hit": false,
      "t": 132690.67441666673,
      "d": 663.0976875000051,
      "v": 105
    },
    {
      "midi": 76,
      "hit": false,
      "t": 132926.95060416765,
      "d": 325.19733333334443,
      "v": 89
    },
    {
      "midi": 64,
      "hit": false,
      "t": 132929.4912083343,
      "d": 302.33189583334024,
      "v": 92
    },
    {
      "midi": 68,
      "hit": false,
      "t": 132929.4912083343,
      "d": 302.33189583334024,
      "v": 93
    },
    {
      "midi": 71,
      "hit": false,
      "t": 132929.4912083343,
      "d": 317.57552083334303,
      "v": 94
    },
    {
      "midi": 52,
      "hit": false,
      "t": 133414.74660416672,
      "d": 243.8979999999865,
      "v": 74
    },
    {
      "midi": 40,
      "hit": false,
      "t": 133414.74660416672,
      "d": 243.8979999999865,
      "v": 74
    },
    {
      "midi": 71,
      "hit": false,
      "t": 133417.28720833434,
      "d": 86.3805416666728,
      "v": 87
    },
    {
      "midi": 68,
      "hit": false,
      "t": 133417.28720833434,
      "d": 94.0023541666742,
      "v": 82
    },
    {
      "midi": 64,
      "hit": false,
      "t": 133417.28720833434,
      "d": 99.08356250001816,
      "v": 84
    },
    {
      "midi": 76,
      "hit": false,
      "t": 133417.28720833434,
      "d": 99.08356250001816,
      "v": 80
    },
    {
      "midi": 76,
      "hit": false,
      "t": 133424.9090208334,
      "d": 630.0698333333421,
      "v": 94
    },
    {
      "midi": 80,
      "hit": false,
      "t": 133424.9090208334,
      "d": 630.0698333333421,
      "v": 105
    },
    {
      "midi": 47,
      "hit": false,
      "t": 133661.18520833337,
      "d": 475.09297916665673,
      "v": 63
    },
    {
      "midi": 35,
      "hit": false,
      "t": 133661.18520833337,
      "d": 475.09297916665673,
      "v": 63
    },
    {
      "midi": 71,
      "hit": false,
      "t": 133661.18520833435,
      "d": 86.3805416666437,
      "v": 87
    },
    {
      "midi": 68,
      "hit": false,
      "t": 133663.725812501,
      "d": 86.3805416666437,
      "v": 78
    },
    {
      "midi": 64,
      "hit": false,
      "t": 133663.725812501,
      "d": 91.46174999998766,
      "v": 83
    },
    {
      "midi": 76,
      "hit": false,
      "t": 133663.725812501,
      "d": 91.46174999998766,
      "v": 81
    },
    {
      "midi": 68,
      "hit": false,
      "t": 133902.54260416765,
      "d": 317.57552083331393,
      "v": 89
    },
    {
      "midi": 71,
      "hit": false,
      "t": 133905.0832083343,
      "d": 315.0349166666565,
      "v": 91
    },
    {
      "midi": 64,
      "hit": false,
      "t": 133905.0832083343,
      "d": 322.6567291666579,
      "v": 91
    },
    {
      "midi": 76,
      "hit": false,
      "t": 133905.0832083343,
      "d": 322.6567291666579,
      "v": 87
    },
    {
      "midi": 52,
      "hit": false,
      "t": 134148.98120833337,
      "d": 492.87720833334606,
      "v": 78
    },
    {
      "midi": 40,
      "hit": false,
      "t": 134148.98120833337,
      "d": 492.87720833334606,
      "v": 78
    },
    {
      "midi": 80,
      "hit": false,
      "t": 134151.52181250008,
      "d": 365.84700000000885,
      "v": 101
    },
    {
      "midi": 76,
      "hit": false,
      "t": 134154.06241666674,
      "d": 340.4409583333472,
      "v": 115
    },
    {
      "midi": 64,
      "hit": false,
      "t": 134390.33860416763,
      "d": 94.00235416664509,
      "v": 86
    },
    {
      "midi": 71,
      "hit": false,
      "t": 134392.87920833429,
      "d": 91.46174999998766,
      "v": 86
    },
    {
      "midi": 68,
      "hit": false,
      "t": 134392.87920833429,
      "d": 99.08356249998906,
      "v": 81
    },
    {
      "midi": 76,
      "hit": false,
      "t": 134392.87920833429,
      "d": 119.40839583333582,
      "v": 83
    },
    {
      "midi": 63,
      "hit": false,
      "t": 134624.0741875001,
      "d": 685.9631250000093,
      "v": 88
    },
    {
      "midi": 59,
      "hit": false,
      "t": 134624.0741875001,
      "d": 828.2369583333493,
      "v": 80
    },
    {
      "midi": 54,
      "hit": false,
      "t": 134624.0741875001,
      "d": 9440.885083333356,
      "v": 91
    },
    {
      "midi": 78,
      "hit": false,
      "t": 134626.61479166674,
      "d": 683.4225208333228,
      "v": 88
    },
    {
      "midi": 75,
      "hit": false,
      "t": 134626.61479166674,
      "d": 726.6127916666446,
      "v": 90
    },
    {
      "midi": 47,
      "hit": false,
      "t": 134636.77720833337,
      "d": 485.25539583334466,
      "v": 78
    },
    {
      "midi": 35,
      "hit": false,
      "t": 134636.77720833337,
      "d": 485.25539583334466,
      "v": 78
    },
    {
      "midi": 71,
      "hit": false,
      "t": 134636.7772083343,
      "d": 78.7587291666714,
      "v": 79
    },
    {
      "midi": 75,
      "hit": false,
      "t": 134636.7772083343,
      "d": 99.08356250001816,
      "v": 81
    },
    {
      "midi": 66,
      "hit": false,
      "t": 134639.31781250003,
      "d": 1798.7477500000095,
      "v": 112
    },
    {
      "midi": 71,
      "hit": false,
      "t": 134639.31781250003,
      "d": 1885.1282916666823,
      "v": 102
    },
    {
      "midi": 66,
      "hit": false,
      "t": 134639.31781250096,
      "d": 76.21812500001397,
      "v": 88
    },
    {
      "midi": 66,
      "hit": false,
      "t": 134664.72385416678,
      "d": 675.8007083333505,
      "v": 93
    },
    {
      "midi": 66,
      "hit": false,
      "t": 134878.13460416766,
      "d": 320.11612500000047,
      "v": 100
    },
    {
      "midi": 75,
      "hit": false,
      "t": 134878.13460416766,
      "d": 335.35975000000326,
      "v": 95
    },
    {
      "midi": 71,
      "hit": false,
      "t": 134880.67520833432,
      "d": 332.81914583334583,
      "v": 97
    },
    {
      "midi": 47,
      "hit": false,
      "t": 135365.9306041667,
      "d": 223.57316666666884,
      "v": 69
    },
    {
      "midi": 35,
      "hit": false,
      "t": 135365.9306041667,
      "d": 223.57316666666884,
      "v": 69
    },
    {
      "midi": 71,
      "hit": false,
      "t": 135368.47120833432,
      "d": 99.08356249998906,
      "v": 90
    },
    {
      "midi": 66,
      "hit": false,
      "t": 135368.47120833432,
      "d": 119.40839583333582,
      "v": 90
    },
    {
      "midi": 75,
      "hit": false,
      "t": 135368.47120833432,
      "d": 119.40839583333582,
      "v": 86
    },
    {
      "midi": 61,
      "hit": false,
      "t": 135559.01652083345,
      "d": 464.9305624999979,
      "v": 85
    },
    {
      "midi": 64,
      "hit": false,
      "t": 135579.3413541668,
      "d": 416.6590833333321,
      "v": 90
    },
    {
      "midi": 73,
      "hit": false,
      "t": 135589.5037708334,
      "d": 365.84700000000885,
      "v": 101
    },
    {
      "midi": 42,
      "hit": false,
      "t": 135612.36920833337,
      "d": 409.0372708333307,
      "v": 68
    },
    {
      "midi": 30,
      "hit": false,
      "t": 135612.36920833337,
      "d": 409.0372708333307,
      "v": 68
    },
    {
      "midi": 66,
      "hit": false,
      "t": 135612.36920833433,
      "d": 322.6567291666579,
      "v": 105
    },
    {
      "midi": 73,
      "hit": false,
      "t": 135612.36920833433,
      "d": 342.98156250000466,
      "v": 98
    },
    {
      "midi": 76,
      "hit": false,
      "t": 135614.90981250006,
      "d": 434.4433125000214,
      "v": 79
    },
    {
      "midi": 76,
      "hit": false,
      "t": 135614.909812501,
      "d": 340.4409583333472,
      "v": 97
    },
    {
      "midi": 63,
      "hit": false,
      "t": 136059.51554166677,
      "d": 436.98391666664975,
      "v": 89
    },
    {
      "midi": 59,
      "hit": false,
      "t": 136087.4621875001,
      "d": 330.2785416666593,
      "v": 95
    },
    {
      "midi": 47,
      "hit": false,
      "t": 136100.16520833338,
      "d": 431.9027083333349,
      "v": 74
    },
    {
      "midi": 35,
      "hit": false,
      "t": 136100.16520833338,
      "d": 431.9027083333349,
      "v": 74
    },
    {
      "midi": 66,
      "hit": false,
      "t": 136100.16520833434,
      "d": 289.6288749999949,
      "v": 102
    },
    {
      "midi": 75,
      "hit": false,
      "t": 136100.16520833434,
      "d": 332.8191458333167,
      "v": 95
    },
    {
      "midi": 71,
      "hit": false,
      "t": 136102.705812501,
      "d": 246.43860416667303,
      "v": 101
    },
    {
      "midi": 71,
      "hit": false,
      "t": 136107.7870208334,
      "d": 309.95370833334164,
      "v": 97
    },
    {
      "midi": 75,
      "hit": false,
      "t": 136107.7870208334,
      "d": 363.3063958333514,
      "v": 82
    },
    {
      "midi": 61,
      "hit": false,
      "t": 136554.93335416674,
      "d": 3620.360937499994,
      "v": 95
    },
    {
      "midi": 58,
      "hit": false,
      "t": 136554.93335416674,
      "d": 3709.2820833333244,
      "v": 94
    },
    {
      "midi": 42,
      "hit": false,
      "t": 136587.96120833338,
      "d": 548.7705000000133,
      "v": 83
    },
    {
      "midi": 30,
      "hit": false,
      "t": 136587.96120833338,
      "d": 548.7705000000133,
      "v": 83
    },
    {
      "midi": 66,
      "hit": false,
      "t": 136587.9612083343,
      "d": 86.3805416666437,
      "v": 96
    },
    {
      "midi": 70,
      "hit": false,
      "t": 136590.50181250097,
      "d": 91.46174999998766,
      "v": 92
    },
    {
      "midi": 73,
      "hit": false,
      "t": 136590.50181250097,
      "d": 91.46174999998766,
      "v": 88
    },
    {
      "midi": 76,
      "hit": false,
      "t": 136590.50181250097,
      "d": 106.70537499999045,
      "v": 94
    },
    {
      "midi": 66,
      "hit": false,
      "t": 136593.04241666672,
      "d": 1288.0863125000033,
      "v": 113
    },
    {
      "midi": 70,
      "hit": false,
      "t": 136593.04241666672,
      "d": 1316.0329583333223,
      "v": 109
    },
    {
      "midi": 70,
      "hit": false,
      "t": 136598.1236250001,
      "d": 1298.248729166662,
      "v": 97
    },
    {
      "midi": 73,
      "hit": false,
      "t": 136600.66422916675,
      "d": 1333.8171875000116,
      "v": 86
    },
    {
      "midi": 76,
      "hit": false,
      "t": 136831.8592083343,
      "d": 241.35739583332906,
      "v": 96
    },
    {
      "midi": 66,
      "hit": false,
      "t": 136831.8592083343,
      "d": 256.60102083333186,
      "v": 100
    },
    {
      "midi": 73,
      "hit": false,
      "t": 136831.8592083343,
      "d": 256.60102083333186,
      "v": 92
    },
    {
      "midi": 70,
      "hit": false,
      "t": 136831.8592083343,
      "d": 274.3852499999921,
      "v": 95
    },
    {
      "midi": 42,
      "hit": false,
      "t": 137317.11460416674,
      "d": 205.78893750000861,
      "v": 74
    },
    {
      "midi": 30,
      "hit": false,
      "t": 137317.11460416674,
      "d": 205.78893750000861,
      "v": 74
    },
    {
      "midi": 73,
      "hit": false,
      "t": 137319.6552083343,
      "d": 40.649666666664416,
      "v": 86
    },
    {
      "midi": 66,
      "hit": false,
      "t": 137319.6552083343,
      "d": 81.29933333332883,
      "v": 93
    },
    {
      "midi": 70,
      "hit": false,
      "t": 137319.6552083343,
      "d": 81.29933333332883,
      "v": 95
    },
    {
      "midi": 78,
      "hit": false,
      "t": 137319.6552083343,
      "d": 114.32718749999185,
      "v": 96
    },
    {
      "midi": 49,
      "hit": false,
      "t": 137563.5532083334,
      "d": 553.8517083333281,
      "v": 81
    },
    {
      "midi": 37,
      "hit": false,
      "t": 137563.5532083334,
      "d": 553.8517083333281,
      "v": 81
    },
    {
      "midi": 66,
      "hit": false,
      "t": 137563.55320833428,
      "d": 91.46174999998766,
      "v": 95
    },
    {
      "midi": 70,
      "hit": false,
      "t": 137563.55320833428,
      "d": 91.46174999998766,
      "v": 96
    },
    {
      "midi": 73,
      "hit": false,
      "t": 137566.09381250094,
      "d": 83.83993749998626,
      "v": 92
    },
    {
      "midi": 78,
      "hit": false,
      "t": 137566.09381250094,
      "d": 88.92114583333023,
      "v": 95
    },
    {
      "midi": 73,
      "hit": false,
      "t": 137804.9106041676,
      "d": 309.95370833331253,
      "v": 96
    },
    {
      "midi": 78,
      "hit": false,
      "t": 137804.9106041676,
      "d": 332.8191458333167,
      "v": 100
    },
    {
      "midi": 66,
      "hit": false,
      "t": 137807.45120833427,
      "d": 297.2506874999963,
      "v": 100
    },
    {
      "midi": 70,
      "hit": false,
      "t": 137807.45120833427,
      "d": 312.49431249999907,
      "v": 100
    },
    {
      "midi": 68,
      "hit": false,
      "t": 138041.18679166675,
      "d": 368.3876041666663,
      "v": 88
    },
    {
      "midi": 71,
      "hit": false,
      "t": 138041.18679166675,
      "d": 414.11847916667466,
      "v": 85
    },
    {
      "midi": 68,
      "hit": false,
      "t": 138051.34920833338,
      "d": 444.60572916668025,
      "v": 117
    },
    {
      "midi": 71,
      "hit": false,
      "t": 138051.34920833338,
      "d": 472.5523749999993,
      "v": 111
    },
    {
      "midi": 49,
      "hit": false,
      "t": 138292.70660416674,
      "d": 165.1392708333442,
      "v": 76
    },
    {
      "midi": 37,
      "hit": false,
      "t": 138292.70660416674,
      "d": 165.1392708333442,
      "v": 76
    },
    {
      "midi": 70,
      "hit": false,
      "t": 138295.24720833427,
      "d": 83.83993749998626,
      "v": 83
    },
    {
      "midi": 66,
      "hit": false,
      "t": 138295.24720833427,
      "d": 86.3805416666437,
      "v": 79
    },
    {
      "midi": 78,
      "hit": false,
      "t": 138295.24720833427,
      "d": 86.3805416666437,
      "v": 83
    },
    {
      "midi": 73,
      "hit": false,
      "t": 138295.24720833427,
      "d": 88.92114583330113,
      "v": 77
    },
    {
      "midi": 70,
      "hit": false,
      "t": 138521.36097916675,
      "d": 1369.385645833332,
      "v": 101
    },
    {
      "midi": 42,
      "hit": false,
      "t": 138539.14520833342,
      "d": 541.1486875000119,
      "v": 77
    },
    {
      "midi": 30,
      "hit": false,
      "t": 138539.14520833342,
      "d": 541.1486875000119,
      "v": 77
    },
    {
      "midi": 78,
      "hit": false,
      "t": 138539.14520833423,
      "d": 86.3805416666728,
      "v": 90
    },
    {
      "midi": 73,
      "hit": false,
      "t": 138541.6858125009,
      "d": 38.109062500006985,
      "v": 84
    },
    {
      "midi": 66,
      "hit": false,
      "t": 138541.6858125009,
      "d": 86.3805416666728,
      "v": 90
    },
    {
      "midi": 70,
      "hit": false,
      "t": 138541.6858125009,
      "d": 86.3805416666728,
      "v": 89
    },
    {
      "midi": 70,
      "hit": false,
      "t": 138544.22641666673,
      "d": 1816.5319791666698,
      "v": 96
    },
    {
      "midi": 66,
      "hit": false,
      "t": 138544.22641666673,
      "d": 1821.6131875000137,
      "v": 105
    },
    {
      "midi": 73,
      "hit": false,
      "t": 138544.22641666676,
      "d": 1420.1977291666553,
      "v": 84
    },
    {
      "midi": 78,
      "hit": false,
      "t": 138780.50260416756,
      "d": 312.49431249999907,
      "v": 95
    },
    {
      "midi": 66,
      "hit": false,
      "t": 138783.04320833422,
      "d": 292.1694791666523,
      "v": 96
    },
    {
      "midi": 70,
      "hit": false,
      "t": 138783.04320833422,
      "d": 304.8724999999977,
      "v": 93
    },
    {
      "midi": 73,
      "hit": false,
      "t": 138783.04320833422,
      "d": 309.95370833334164,
      "v": 92
    },
    {
      "midi": 42,
      "hit": false,
      "t": 139268.29860416675,
      "d": 215.95135416666744,
      "v": 74
    },
    {
      "midi": 30,
      "hit": false,
      "t": 139268.29860416675,
      "d": 215.95135416666744,
      "v": 74
    },
    {
      "midi": 70,
      "hit": false,
      "t": 139270.83920833422,
      "d": 86.3805416666728,
      "v": 92
    },
    {
      "midi": 66,
      "hit": false,
      "t": 139270.83920833422,
      "d": 88.92114583333023,
      "v": 92
    },
    {
      "midi": 73,
      "hit": false,
      "t": 139270.83920833422,
      "d": 88.92114583333023,
      "v": 84
    },
    {
      "midi": 78,
      "hit": false,
      "t": 139270.83920833422,
      "d": 91.46174999998766,
      "v": 94
    },
    {
      "midi": 37,
      "hit": false,
      "t": 139514.73720833342,
      "d": 640.2322500000009,
      "v": 73
    },
    {
      "midi": 25,
      "hit": false,
      "t": 139514.73720833342,
      "d": 640.2322500000009,
      "v": 73
    },
    {
      "midi": 70,
      "hit": false,
      "t": 139756.09460416753,
      "d": 287.08827083330834,
      "v": 95
    },
    {
      "midi": 73,
      "hit": false,
      "t": 139758.6352083342,
      "d": 282.0070624999935,
      "v": 90
    },
    {
      "midi": 66,
      "hit": false,
      "t": 139758.6352083342,
      "d": 284.5476666666509,
      "v": 96
    },
    {
      "midi": 78,
      "hit": false,
      "t": 139758.6352083342,
      "d": 307.4131041666551,
      "v": 98
    },
    {
      "midi": 37,
      "hit": false,
      "t": 140243.89060416675,
      "d": 195.62652083332068,
      "v": 51
    },
    {
      "midi": 25,
      "hit": false,
      "t": 140243.89060416675,
      "d": 195.62652083332068,
      "v": 51
    },
    {
      "midi": 70,
      "hit": false,
      "t": 140246.4312083342,
      "d": 48.27147916666581,
      "v": 89
    },
    {
      "midi": 73,
      "hit": false,
      "t": 140246.4312083342,
      "d": 48.27147916666581,
      "v": 83
    },
    {
      "midi": 78,
      "hit": false,
      "t": 140246.4312083342,
      "d": 50.812083333323244,
      "v": 89
    },
    {
      "midi": 66,
      "hit": false,
      "t": 140246.4312083342,
      "d": 58.43389583332464,
      "v": 89
    },
    {
      "midi": 61,
      "hit": false,
      "t": 140447.13893750007,
      "d": 1874.9658750000235,
      "v": 92
    },
    {
      "midi": 64,
      "hit": false,
      "t": 140467.46377083342,
      "d": 1719.9890208333381,
      "v": 96
    },
    {
      "midi": 73,
      "hit": false,
      "t": 140475.08558333342,
      "d": 647.8540624999732,
      "v": 86
    },
    {
      "midi": 76,
      "hit": false,
      "t": 140477.62618750008,
      "d": 647.8540624999732,
      "v": 89
    },
    {
      "midi": 42,
      "hit": false,
      "t": 140490.3292083334,
      "d": 551.3111041666707,
      "v": 78
    },
    {
      "midi": 30,
      "hit": false,
      "t": 140490.3292083334,
      "d": 551.3111041666707,
      "v": 78
    },
    {
      "midi": 73,
      "hit": false,
      "t": 140490.32920833418,
      "d": 45.73087499997928,
      "v": 80
    },
    {
      "midi": 78,
      "hit": false,
      "t": 140490.32920833418,
      "d": 50.812083333323244,
      "v": 92
    },
    {
      "midi": 70,
      "hit": false,
      "t": 140492.86981250084,
      "d": 48.27147916666581,
      "v": 90
    },
    {
      "midi": 66,
      "hit": false,
      "t": 140492.86981250084,
      "d": 55.89329166666721,
      "v": 92
    },
    {
      "midi": 73,
      "hit": false,
      "t": 140731.6866041675,
      "d": 198.1671249999781,
      "v": 88
    },
    {
      "midi": 70,
      "hit": false,
      "t": 140734.22720833417,
      "d": 213.4107499999809,
      "v": 94
    },
    {
      "midi": 78,
      "hit": false,
      "t": 140734.22720833417,
      "d": 228.6543749999837,
      "v": 94
    },
    {
      "midi": 66,
      "hit": false,
      "t": 140734.22720833417,
      "d": 248.97920833333046,
      "v": 95
    },
    {
      "midi": 42,
      "hit": false,
      "t": 141219.48260416673,
      "d": 208.32954166666605,
      "v": 73
    },
    {
      "midi": 30,
      "hit": false,
      "t": 141219.48260416673,
      "d": 208.32954166666605,
      "v": 73
    },
    {
      "midi": 73,
      "hit": false,
      "t": 141222.02320833417,
      "d": 86.3805416666728,
      "v": 85
    },
    {
      "midi": 66,
      "hit": false,
      "t": 141222.02320833417,
      "d": 88.92114583333023,
      "v": 87
    },
    {
      "midi": 70,
      "hit": false,
      "t": 141222.02320833417,
      "d": 88.92114583333023,
      "v": 84
    },
    {
      "midi": 76,
      "hit": false,
      "t": 141222.02320833417,
      "d": 94.0023541666742,
      "v": 85
    },
    {
      "midi": 73,
      "hit": false,
      "t": 141229.64502083338,
      "d": 586.8795625000203,
      "v": 82
    },
    {
      "midi": 76,
      "hit": false,
      "t": 141249.96985416673,
      "d": 543.6892916666693,
      "v": 87
    },
    {
      "midi": 37,
      "hit": false,
      "t": 141465.9212083334,
      "d": 406.49666666667326,
      "v": 77
    },
    {
      "midi": 25,
      "hit": false,
      "t": 141465.9212083334,
      "d": 406.49666666667326,
      "v": 77
    },
    {
      "midi": 66,
      "hit": false,
      "t": 141465.92120833418,
      "d": 282.0070624999935,
      "v": 100
    },
    {
      "midi": 76,
      "hit": false,
      "t": 141465.92120833418,
      "d": 304.8724999999977,
      "v": 97
    },
    {
      "midi": 70,
      "hit": false,
      "t": 141468.46181250084,
      "d": 279.46645833333605,
      "v": 95
    },
    {
      "midi": 73,
      "hit": false,
      "t": 141468.46181250084,
      "d": 279.46645833333605,
      "v": 95
    },
    {
      "midi": 76,
      "hit": false,
      "t": 141935.93297916674,
      "d": 406.49666666664416,
      "v": 80
    },
    {
      "midi": 73,
      "hit": false,
      "t": 141938.4735833334,
      "d": 370.9282083333237,
      "v": 81
    },
    {
      "midi": 42,
      "hit": false,
      "t": 141953.7172083334,
      "d": 350.60337500000605,
      "v": 83
    },
    {
      "midi": 30,
      "hit": false,
      "t": 141953.7172083334,
      "d": 350.60337500000605,
      "v": 83
    },
    {
      "midi": 73,
      "hit": false,
      "t": 141953.7172083342,
      "d": 297.2506874999963,
      "v": 94
    },
    {
      "midi": 76,
      "hit": false,
      "t": 141953.7172083342,
      "d": 315.0349166666565,
      "v": 94
    },
    {
      "midi": 70,
      "hit": false,
      "t": 141956.25781250084,
      "d": 200.70772916666465,
      "v": 95
    },
    {
      "midi": 66,
      "hit": false,
      "t": 141956.25781250084,
      "d": 294.71008333333884,
      "v": 100
    },
    {
      "midi": 63,
      "hit": false,
      "t": 142377.99810416676,
      "d": 978.1326041666616,
      "v": 92
    },
    {
      "midi": 59,
      "hit": false,
      "t": 142377.99810416676,
      "d": 1008.6198541666672,
      "v": 98
    },
    {
      "midi": 47,
      "hit": false,
      "t": 142441.5132083334,
      "d": 472.5523749999993,
      "v": 77
    },
    {
      "midi": 35,
      "hit": false,
      "t": 142441.5132083334,
      "d": 472.5523749999993,
      "v": 77
    },
    {
      "midi": 66,
      "hit": false,
      "t": 142441.5132083342,
      "d": 73.67752083332743,
      "v": 83
    },
    {
      "midi": 71,
      "hit": false,
      "t": 142441.5132083342,
      "d": 81.29933333332883,
      "v": 80
    },
    {
      "midi": 75,
      "hit": false,
      "t": 142444.05381250085,
      "d": 78.7587291666714,
      "v": 75
    },
    {
      "midi": 71,
      "hit": false,
      "t": 142454.21622916672,
      "d": 853.6430000000109,
      "v": 78
    },
    {
      "midi": 75,
      "hit": false,
      "t": 142515.19072916673,
      "d": 873.9678333333286,
      "v": 93
    },
    {
      "midi": 66,
      "hit": false,
      "t": 142682.87060416752,
      "d": 289.6288749999949,
      "v": 96
    },
    {
      "midi": 71,
      "hit": false,
      "t": 142682.87060416752,
      "d": 309.95370833331253,
      "v": 97
    },
    {
      "midi": 75,
      "hit": false,
      "t": 142685.41120833418,
      "d": 289.6288749999949,
      "v": 93
    },
    {
      "midi": 47,
      "hit": false,
      "t": 143170.66660416673,
      "d": 218.49195833332487,
      "v": 69
    },
    {
      "midi": 35,
      "hit": false,
      "t": 143170.66660416673,
      "d": 218.49195833332487,
      "v": 69
    },
    {
      "midi": 71,
      "hit": false,
      "t": 143173.20720833418,
      "d": 91.46174999998766,
      "v": 92
    },
    {
      "midi": 66,
      "hit": false,
      "t": 143173.20720833418,
      "d": 94.00235416664509,
      "v": 90
    },
    {
      "midi": 75,
      "hit": false,
      "t": 143173.20720833418,
      "d": 111.78658333330532,
      "v": 88
    },
    {
      "midi": 64,
      "hit": false,
      "t": 143399.32097916678,
      "d": 327.73793750000186,
      "v": 94
    },
    {
      "midi": 61,
      "hit": false,
      "t": 143399.32097916678,
      "d": 348.0627708333486,
      "v": 94
    },
    {
      "midi": 73,
      "hit": false,
      "t": 143401.8615833334,
      "d": 391.25304166667047,
      "v": 93
    },
    {
      "midi": 42,
      "hit": false,
      "t": 143417.10520833338,
      "d": 388.71243750001304,
      "v": 74
    },
    {
      "midi": 30,
      "hit": false,
      "t": 143417.10520833338,
      "d": 388.71243750001304,
      "v": 74
    },
    {
      "midi": 66,
      "hit": false,
      "t": 143417.10520833416,
      "d": 304.8724999999977,
      "v": 100
    },
    {
      "midi": 73,
      "hit": false,
      "t": 143417.10520833416,
      "d": 325.1973333333153,
      "v": 94
    },
    {
      "midi": 70,
      "hit": false,
      "t": 143419.64581250082,
      "d": 304.8724999999977,
      "v": 94
    },
    {
      "midi": 76,
      "hit": false,
      "t": 143419.64581250082,
      "d": 322.6567291666579,
      "v": 94
    },
    {
      "midi": 76,
      "hit": false,
      "t": 143424.7270208334,
      "d": 383.6312291666691,
      "v": 84
    },
    {
      "midi": 66,
      "hit": false,
      "t": 143892.19818750012,
      "d": 226.11377083335537,
      "v": 104
    },
    {
      "midi": 63,
      "hit": false,
      "t": 143897.27939583347,
      "d": 221.0325625000114,
      "v": 93
    },
    {
      "midi": 47,
      "hit": false,
      "t": 143904.90120833338,
      "d": 391.25304166667047,
      "v": 77
    },
    {
      "midi": 35,
      "hit": false,
      "t": 143904.90120833338,
      "d": 391.25304166667047,
      "v": 77
    },
    {
      "midi": 75,
      "hit": false,
      "t": 143904.90120833414,
      "d": 282.0070624999935,
      "v": 92
    },
    {
      "midi": 66,
      "hit": false,
      "t": 143904.90120833414,
      "d": 302.33189583334024,
      "v": 100
    },
    {
      "midi": 71,
      "hit": false,
      "t": 143907.4418125008,
      "d": 264.22283333333326,
      "v": 97
    },
    {
      "midi": 75,
      "hit": false,
      "t": 143917.60422916675,
      "d": 190.54531250000582,
      "v": 93
    },
    {
      "midi": 78,
      "hit": false,
      "t": 143922.6854375001,
      "d": 215.95135416666744,
      "v": 93
    },
    {
      "midi": 68,
      "hit": false,
      "t": 144374.9129791668,
      "d": 4552.762666666647,
      "v": 73
    },
    {
      "midi": 59,
      "hit": false,
      "t": 144374.9129791668,
      "d": 5713.818770833284,
      "v": 79
    },
    {
      "midi": 40,
      "hit": false,
      "t": 144392.69720833338,
      "d": 538.6080833333253,
      "v": 80
    },
    {
      "midi": 28,
      "hit": false,
      "t": 144392.69720833338,
      "d": 538.6080833333253,
      "v": 80
    },
    {
      "midi": 76,
      "hit": false,
      "t": 144402.85962500007,
      "d": 1290.6269166666607,
      "v": 105
    },
    {
      "midi": 64,
      "hit": false,
      "t": 144402.85962500013,
      "d": 4524.816020833328,
      "v": 82
    },
    {
      "midi": 80,
      "hit": false,
      "t": 144451.13110416674,
      "d": 1308.411145833321,
      "v": 86
    },
    {
      "midi": 71,
      "hit": false,
      "t": 144634.05460416747,
      "d": 297.2506874999963,
      "v": 89
    },
    {
      "midi": 68,
      "hit": false,
      "t": 144636.59520833413,
      "d": 282.0070624999935,
      "v": 87
    },
    {
      "midi": 76,
      "hit": false,
      "t": 144636.59520833413,
      "d": 322.6567291666579,
      "v": 79
    },
    {
      "midi": 40,
      "hit": false,
      "t": 145121.8506041667,
      "d": 251.519812500017,
      "v": 69
    },
    {
      "midi": 28,
      "hit": false,
      "t": 145121.8506041667,
      "d": 251.519812500017,
      "v": 69
    },
    {
      "midi": 68,
      "hit": false,
      "t": 145124.39120833413,
      "d": 78.7587291666714,
      "v": 84
    },
    {
      "midi": 71,
      "hit": false,
      "t": 145124.39120833413,
      "d": 78.7587291666714,
      "v": 88
    },
    {
      "midi": 76,
      "hit": false,
      "t": 145124.39120833413,
      "d": 99.08356250001816,
      "v": 85
    },
    {
      "midi": 47,
      "hit": false,
      "t": 145368.2892083334,
      "d": 370.9282083333528,
      "v": 68
    },
    {
      "midi": 35,
      "hit": false,
      "t": 145368.2892083334,
      "d": 370.9282083333528,
      "v": 68
    },
    {
      "midi": 71,
      "hit": false,
      "t": 145368.28920833414,
      "d": 78.7587291666714,
      "v": 89
    },
    {
      "midi": 68,
      "hit": false,
      "t": 145368.28920833414,
      "d": 91.46175000001676,
      "v": 86
    },
    {
      "midi": 76,
      "hit": false,
      "t": 145370.8298125008,
      "d": 96.54295833336073,
      "v": 87
    },
    {
      "midi": 68,
      "hit": false,
      "t": 145609.6466041675,
      "d": 299.7912916666537,
      "v": 86
    },
    {
      "midi": 64,
      "hit": false,
      "t": 145612.18720833416,
      "d": 317.57552083334303,
      "v": 89
    },
    {
      "midi": 71,
      "hit": false,
      "t": 145612.18720833416,
      "d": 317.57552083334303,
      "v": 90
    },
    {
      "midi": 76,
      "hit": false,
      "t": 145612.18720833416,
      "d": 317.57552083334303,
      "v": 85
    },
    {
      "midi": 76,
      "hit": false,
      "t": 145812.89493750007,
      "d": 396.33424999998533,
      "v": 84
    },
    {
      "midi": 80,
      "hit": false,
      "t": 145856.0852083334,
      "d": 332.81914583334583,
      "v": 101
    },
    {
      "midi": 47,
      "hit": false,
      "t": 145856.08520833342,
      "d": 444.60572916668025,
      "v": 64
    },
    {
      "midi": 35,
      "hit": false,
      "t": 145856.08520833342,
      "d": 444.60572916668025,
      "v": 64
    },
    {
      "midi": 71,
      "hit": false,
      "t": 146097.4426041675,
      "d": 88.92114583333023,
      "v": 87
    },
    {
      "midi": 68,
      "hit": false,
      "t": 146099.98320833416,
      "d": 88.92114583333023,
      "v": 81
    },
    {
      "midi": 64,
      "hit": false,
      "t": 146099.98320833416,
      "d": 94.0023541666742,
      "v": 80
    },
    {
      "midi": 76,
      "hit": false,
      "t": 146099.98320833416,
      "d": 94.0023541666742,
      "v": 80
    },
    {
      "midi": 80,
      "hit": false,
      "t": 146315.93456250004,
      "d": 2472.0078541666735,
      "v": 105
    },
    {
      "midi": 40,
      "hit": false,
      "t": 146343.88120833342,
      "d": 538.6080833333253,
      "v": 78
    },
    {
      "midi": 28,
      "hit": false,
      "t": 146343.88120833342,
      "d": 538.6080833333253,
      "v": 78
    },
    {
      "midi": 64,
      "hit": false,
      "t": 146343.88120833418,
      "d": 99.08356249998906,
      "v": 78
    },
    {
      "midi": 76,
      "hit": false,
      "t": 146343.88120833418,
      "d": 99.08356249998906,
      "v": 77
    },
    {
      "midi": 68,
      "hit": false,
      "t": 146346.42181250083,
      "d": 91.46174999998766,
      "v": 77
    },
    {
      "midi": 71,
      "hit": false,
      "t": 146346.42181250083,
      "d": 91.46174999998766,
      "v": 86
    },
    {
      "midi": 83,
      "hit": false,
      "t": 146348.96241666673,
      "d": 2411.0333541666623,
      "v": 63
    },
    {
      "midi": 76,
      "hit": false,
      "t": 146585.2386041675,
      "d": 332.8191458333167,
      "v": 87
    },
    {
      "midi": 68,
      "hit": false,
      "t": 146587.77920833416,
      "d": 309.95370833334164,
      "v": 90
    },
    {
      "midi": 71,
      "hit": false,
      "t": 146587.77920833416,
      "d": 312.49431249999907,
      "v": 91
    },
    {
      "midi": 64,
      "hit": false,
      "t": 146587.77920833416,
      "d": 332.8191458333167,
      "v": 91
    },
    {
      "midi": 68,
      "hit": false,
      "t": 146831.67720833342,
      "d": 355.6845833333209,
      "v": 121
    },
    {
      "midi": 76,
      "hit": false,
      "t": 146831.67720833342,
      "d": 454.76814583331,
      "v": 111
    },
    {
      "midi": 40,
      "hit": false,
      "t": 147073.03460416675,
      "d": 279.46645833333605,
      "v": 71
    },
    {
      "midi": 28,
      "hit": false,
      "t": 147073.03460416675,
      "d": 279.46645833333605,
      "v": 71
    },
    {
      "midi": 68,
      "hit": false,
      "t": 147075.57520833414,
      "d": 91.46174999998766,
      "v": 81
    },
    {
      "midi": 71,
      "hit": false,
      "t": 147075.57520833414,
      "d": 91.46174999998766,
      "v": 87
    },
    {
      "midi": 76,
      "hit": false,
      "t": 147075.57520833414,
      "d": 91.46174999998766,
      "v": 80
    },
    {
      "midi": 64,
      "hit": false,
      "t": 147075.57520833414,
      "d": 99.08356249998906,
      "v": 80
    },
    {
      "midi": 47,
      "hit": false,
      "t": 147319.47320833342,
      "d": 566.5547291666735,
      "v": 66
    },
    {
      "midi": 35,
      "hit": false,
      "t": 147319.47320833342,
      "d": 566.5547291666735,
      "v": 66
    },
    {
      "midi": 68,
      "hit": false,
      "t": 147319.47320833412,
      "d": 81.29933333332883,
      "v": 75
    },
    {
      "midi": 71,
      "hit": false,
      "t": 147319.47320833412,
      "d": 81.29933333332883,
      "v": 79
    },
    {
      "midi": 76,
      "hit": false,
      "t": 147322.01381250078,
      "d": 81.29933333332883,
      "v": 77
    },
    {
      "midi": 64,
      "hit": false,
      "t": 147322.01381250078,
      "d": 104.16477083333302,
      "v": 79
    },
    {
      "midi": 71,
      "hit": false,
      "t": 147324.55441666674,
      "d": 370.9282083333237,
      "v": 127
    },
    {
      "midi": 80,
      "hit": false,
      "t": 147324.55441666674,
      "d": 426.8214999999909,
      "v": 117
    },
    {
      "midi": 64,
      "hit": false,
      "t": 147560.83060416745,
      "d": 330.2785416666593,
      "v": 87
    },
    {
      "midi": 68,
      "hit": false,
      "t": 147563.3712083341,
      "d": 302.33189583334024,
      "v": 81
    },
    {
      "midi": 71,
      "hit": false,
      "t": 147563.3712083341,
      "d": 327.73793750000186,
      "v": 87
    },
    {
      "midi": 76,
      "hit": false,
      "t": 147563.3712083341,
      "d": 330.2785416666593,
      "v": 83
    },
    {
      "midi": 70,
      "hit": false,
      "t": 147807.2692083334,
      "d": 368.3876041666663,
      "v": 121
    },
    {
      "midi": 78,
      "hit": false,
      "t": 147807.2692083334,
      "d": 424.2808958333335,
      "v": 113
    },
    {
      "midi": 47,
      "hit": false,
      "t": 148048.62660416675,
      "d": 264.22283333333326,
      "v": 42
    },
    {
      "midi": 35,
      "hit": false,
      "t": 148048.62660416675,
      "d": 264.22283333333326,
      "v": 42
    },
    {
      "midi": 68,
      "hit": false,
      "t": 148051.1672083341,
      "d": 88.92114583333023,
      "v": 69
    },
    {
      "midi": 71,
      "hit": false,
      "t": 148051.1672083341,
      "d": 88.92114583333023,
      "v": 75
    },
    {
      "midi": 76,
      "hit": false,
      "t": 148051.1672083341,
      "d": 94.0023541666742,
      "v": 71
    },
    {
      "midi": 64,
      "hit": false,
      "t": 148051.1672083341,
      "d": 114.32718750002095,
      "v": 78
    },
    {
      "midi": 40,
      "hit": false,
      "t": 148295.06520833343,
      "d": 556.3923124999856,
      "v": 74
    },
    {
      "midi": 28,
      "hit": false,
      "t": 148295.06520833343,
      "d": 556.3923124999856,
      "v": 74
    },
    {
      "midi": 64,
      "hit": false,
      "t": 148295.06520833413,
      "d": 88.92114583333023,
      "v": 73
    },
    {
      "midi": 71,
      "hit": false,
      "t": 148295.06520833413,
      "d": 94.0023541666742,
      "v": 71
    },
    {
      "midi": 68,
      "hit": false,
      "t": 148297.60581250078,
      "d": 86.3805416666728,
      "v": 66
    },
    {
      "midi": 76,
      "hit": false,
      "t": 148297.60581250078,
      "d": 86.3805416666728,
      "v": 71
    },
    {
      "midi": 68,
      "hit": false,
      "t": 148300.14641666674,
      "d": 1847.0192291666754,
      "v": 113
    },
    {
      "midi": 76,
      "hit": false,
      "t": 148300.14641666674,
      "d": 1872.425270833337,
      "v": 104
    },
    {
      "midi": 64,
      "hit": false,
      "t": 148536.42260416746,
      "d": 332.8191458333167,
      "v": 89
    },
    {
      "midi": 68,
      "hit": false,
      "t": 148538.9632083341,
      "d": 332.8191458333167,
      "v": 79
    },
    {
      "midi": 71,
      "hit": false,
      "t": 148538.9632083341,
      "d": 332.8191458333167,
      "v": 86
    },
    {
      "midi": 76,
      "hit": false,
      "t": 148538.9632083341,
      "d": 332.8191458333167,
      "v": 82
    },
    {
      "midi": 40,
      "hit": false,
      "t": 149024.21860416676,
      "d": 236.2761875000142,
      "v": 71
    },
    {
      "midi": 28,
      "hit": false,
      "t": 149024.21860416676,
      "d": 236.2761875000142,
      "v": 71
    },
    {
      "midi": 76,
      "hit": false,
      "t": 149026.7592083341,
      "d": 94.0023541666742,
      "v": 80
    },
    {
      "midi": 64,
      "hit": false,
      "t": 149026.7592083341,
      "d": 99.08356250001816,
      "v": 80
    },
    {
      "midi": 68,
      "hit": false,
      "t": 149026.7592083341,
      "d": 99.08356250001816,
      "v": 77
    },
    {
      "midi": 71,
      "hit": false,
      "t": 149026.7592083341,
      "d": 99.08356250001816,
      "v": 87
    },
    {
      "midi": 78,
      "hit": false,
      "t": 149242.71056250005,
      "d": 452.22754166668165,
      "v": 97
    },
    {
      "midi": 70,
      "hit": false,
      "t": 149257.95418750012,
      "d": 416.6590833333321,
      "v": 111
    },
    {
      "midi": 66,
      "hit": false,
      "t": 149257.95418750012,
      "d": 444.60572916665114,
      "v": 104
    },
    {
      "midi": 47,
      "hit": false,
      "t": 149270.65720833343,
      "d": 475.09297916665673,
      "v": 76
    },
    {
      "midi": 35,
      "hit": false,
      "t": 149270.65720833343,
      "d": 475.09297916665673,
      "v": 76
    },
    {
      "midi": 71,
      "hit": false,
      "t": 149270.6572083341,
      "d": 274.3852499999921,
      "v": 86
    },
    {
      "midi": 64,
      "hit": false,
      "t": 149270.6572083341,
      "d": 322.6567291666579,
      "v": 83
    },
    {
      "midi": 68,
      "hit": false,
      "t": 149273.19781250076,
      "d": 251.5198124999879,
      "v": 77
    },
    {
      "midi": 76,
      "hit": false,
      "t": 149273.19781250076,
      "d": 266.7634374999907,
      "v": 82
    },
    {
      "midi": 82,
      "hit": false,
      "t": 149313.84747916675,
      "d": 401.4154583333293,
      "v": 88
    },
    {
      "midi": 76,
      "hit": false,
      "t": 149722.88475000008,
      "d": 312.49431249999907,
      "v": 79
    },
    {
      "midi": 64,
      "hit": false,
      "t": 149745.7501875001,
      "d": 345.5221666666621,
      "v": 97
    },
    {
      "midi": 68,
      "hit": false,
      "t": 149745.7501875001,
      "d": 396.33424999998533,
      "v": 98
    },
    {
      "midi": 40,
      "hit": false,
      "t": 149758.45320833343,
      "d": 414.11847916667466,
      "v": 77
    },
    {
      "midi": 28,
      "hit": false,
      "t": 149758.45320833343,
      "d": 414.11847916667466,
      "v": 77
    },
    {
      "midi": 64,
      "hit": false,
      "t": 149758.4532083341,
      "d": 332.8191458333167,
      "v": 87
    },
    {
      "midi": 76,
      "hit": false,
      "t": 149758.4532083341,
      "d": 335.35974999997416,
      "v": 85
    },
    {
      "midi": 68,
      "hit": false,
      "t": 149760.99381250076,
      "d": 279.46645833333605,
      "v": 85
    },
    {
      "midi": 71,
      "hit": false,
      "t": 149760.99381250076,
      "d": 279.46645833333605,
      "v": 90
    },
    {
      "midi": 80,
      "hit": false,
      "t": 149771.15622916675,
      "d": 233.73558333332767,
      "v": 97
    },
    {
      "midi": 59,
      "hit": false,
      "t": 150205.59954166674,
      "d": 1679.3393541666446,
      "v": 90
    },
    {
      "midi": 66,
      "hit": false,
      "t": 150205.59954166674,
      "d": 1707.2859999999637,
      "v": 96
    },
    {
      "midi": 63,
      "hit": false,
      "t": 150208.1401458334,
      "d": 1722.5296249999665,
      "v": 93
    },
    {
      "midi": 75,
      "hit": false,
      "t": 150238.62739583344,
      "d": 764.7218541666807,
      "v": 70
    },
    {
      "midi": 47,
      "hit": false,
      "t": 150246.24920833344,
      "d": 525.9050625000091,
      "v": 79
    },
    {
      "midi": 35,
      "hit": false,
      "t": 150246.24920833344,
      "d": 525.9050625000091,
      "v": 79
    },
    {
      "midi": 66,
      "hit": false,
      "t": 150246.24920833408,
      "d": 78.7587291666714,
      "v": 88
    },
    {
      "midi": 71,
      "hit": false,
      "t": 150246.24920833408,
      "d": 78.7587291666714,
      "v": 86
    },
    {
      "midi": 66,
      "hit": false,
      "t": 150248.7898125001,
      "d": 1747.9356666666572,
      "v": 119
    },
    {
      "midi": 75,
      "hit": false,
      "t": 150248.7898125001,
      "d": 1783.5041249999776,
      "v": 90
    },
    {
      "midi": 75,
      "hit": false,
      "t": 150248.78981250073,
      "d": 88.92114583335933,
      "v": 84
    },
    {
      "midi": 78,
      "hit": false,
      "t": 150289.4394791668,
      "d": 820.6151458333188,
      "v": 88
    },
    {
      "midi": 66,
      "hit": false,
      "t": 150487.60660416743,
      "d": 304.8724999999977,
      "v": 94
    },
    {
      "midi": 75,
      "hit": false,
      "t": 150487.60660416743,
      "d": 304.8724999999977,
      "v": 89
    },
    {
      "midi": 71,
      "hit": false,
      "t": 150490.1472083341,
      "d": 327.73793750000186,
      "v": 96
    },
    {
      "midi": 47,
      "hit": false,
      "t": 150975.40260416677,
      "d": 248.97920833333046,
      "v": 63
    },
    {
      "midi": 35,
      "hit": false,
      "t": 150975.40260416677,
      "d": 248.97920833333046,
      "v": 63
    },
    {
      "midi": 71,
      "hit": false,
      "t": 150977.9432083341,
      "d": 111.78658333333442,
      "v": 89
    },
    {
      "midi": 75,
      "hit": false,
      "t": 150977.9432083341,
      "d": 114.32718749999185,
      "v": 84
    },
    {
      "midi": 66,
      "hit": false,
      "t": 150977.9432083341,
      "d": 119.40839583333582,
      "v": 87
    },
    {
      "midi": 71,
      "hit": false,
      "t": 151138.00127083343,
      "d": 414.11847916667466,
      "v": 84
    },
    {
      "midi": 75,
      "hit": false,
      "t": 151193.8945625001,
      "d": 398.87485416667187,
      "v": 84
    },
    {
      "midi": 42,
      "hit": false,
      "t": 151221.84120833344,
      "d": 505.5802291666623,
      "v": 82
    },
    {
      "midi": 30,
      "hit": false,
      "t": 151221.84120833344,
      "d": 505.5802291666623,
      "v": 82
    },
    {
      "midi": 71,
      "hit": false,
      "t": 151463.19860416744,
      "d": 294.71008333333884,
      "v": 94
    },
    {
      "midi": 75,
      "hit": false,
      "t": 151465.7392083341,
      "d": 269.3040416666772,
      "v": 87
    },
    {
      "midi": 66,
      "hit": false,
      "t": 151465.7392083341,
      "d": 292.1694791666814,
      "v": 92
    },
    {
      "midi": 78,
      "hit": false,
      "t": 151686.77177083344,
      "d": 215.95135416666744,
      "v": 88
    },
    {
      "midi": 75,
      "hit": false,
      "t": 151686.77177083344,
      "d": 231.19497916667024,
      "v": 101
    },
    {
      "midi": 47,
      "hit": false,
      "t": 151709.63720833344,
      "d": 447.1463333333377,
      "v": 75
    },
    {
      "midi": 35,
      "hit": false,
      "t": 151709.63720833344,
      "d": 447.1463333333377,
      "v": 75
    },
    {
      "midi": 66,
      "hit": false,
      "t": 151950.99460416744,
      "d": 104.16477083333302,
      "v": 85
    },
    {
      "midi": 71,
      "hit": false,
      "t": 151953.5352083341,
      "d": 81.29933333332883,
      "v": 83
    },
    {
      "midi": 75,
      "hit": false,
      "t": 151953.5352083341,
      "d": 106.70537500001956,
      "v": 84
    },
    {
      "midi": 56,
      "hit": false,
      "t": 152166.94595833338,
      "d": 886.6708541666449,
      "v": 101
    },
    {
      "midi": 64,
      "hit": false,
      "t": 152169.48656250004,
      "d": 962.8889791666588,
      "v": 97
    },
    {
      "midi": 42,
      "hit": false,
      "t": 152197.43320833344,
      "d": 497.9584166666609,
      "v": 83
    },
    {
      "midi": 30,
      "hit": false,
      "t": 152197.43320833344,
      "d": 497.9584166666609,
      "v": 83
    },
    {
      "midi": 70,
      "hit": false,
      "t": 152197.4332083341,
      "d": 78.7587291666714,
      "v": 82
    },
    {
      "midi": 66,
      "hit": false,
      "t": 152199.97381250077,
      "d": 76.21812500001397,
      "v": 82
    },
    {
      "midi": 73,
      "hit": false,
      "t": 152199.97381250077,
      "d": 76.21812500001397,
      "v": 82
    },
    {
      "midi": 73,
      "hit": false,
      "t": 152202.51441666673,
      "d": 1699.6641874999914,
      "v": 104
    },
    {
      "midi": 64,
      "hit": false,
      "t": 152202.51441666673,
      "d": 1760.6386875000026,
      "v": 108
    },
    {
      "midi": 68,
      "hit": false,
      "t": 152205.05502083345,
      "d": 632.6104375000286,
      "v": 93
    },
    {
      "midi": 76,
      "hit": false,
      "t": 152205.05502083345,
      "d": 632.6104375000286,
      "v": 92
    },
    {
      "midi": 70,
      "hit": false,
      "t": 152438.79060416744,
      "d": 292.1694791666523,
      "v": 98
    },
    {
      "midi": 73,
      "hit": false,
      "t": 152441.3312083341,
      "d": 261.6822291666758,
      "v": 96
    },
    {
      "midi": 66,
      "hit": false,
      "t": 152441.3312083341,
      "d": 292.1694791666523,
      "v": 100
    },
    {
      "midi": 42,
      "hit": false,
      "t": 152926.58660416678,
      "d": 248.97920833333046,
      "v": 83
    },
    {
      "midi": 30,
      "hit": false,
      "t": 152926.58660416678,
      "d": 248.97920833333046,
      "v": 83
    },
    {
      "midi": 73,
      "hit": false,
      "t": 152929.12720833407,
      "d": 86.3805416666728,
      "v": 89
    },
    {
      "midi": 66,
      "hit": false,
      "t": 152929.12720833407,
      "d": 94.0023541666742,
      "v": 95
    },
    {
      "midi": 70,
      "hit": false,
      "t": 152929.12720833407,
      "d": 94.0023541666742,
      "v": 96
    },
    {
      "midi": 78,
      "hit": false,
      "t": 152929.12720833407,
      "d": 106.70537500001956,
      "v": 100
    },
    {
      "midi": 68,
      "hit": false,
      "t": 152931.66781250015,
      "d": 160.05806250000023,
      "v": 93
    },
    {
      "midi": 76,
      "hit": false,
      "t": 152931.66781250015,
      "d": 177.84229166666046,
      "v": 87
    },
    {
      "midi": 63,
      "hit": false,
      "t": 153145.07856250004,
      "d": 452.22754166668165,
      "v": 86
    },
    {
      "midi": 54,
      "hit": false,
      "t": 153165.4033958334,
      "d": 350.60337500000605,
      "v": 107
    },
    {
      "midi": 66,
      "hit": false,
      "t": 153165.40339583348,
      "d": 325.19733333334443,
      "v": 101
    },
    {
      "midi": 75,
      "hit": false,
      "t": 153165.40339583348,
      "d": 396.33425000001444,
      "v": 78
    },
    {
      "midi": 44,
      "hit": false,
      "t": 153173.02520833345,
      "d": 368.3876041666663,
      "v": 82
    },
    {
      "midi": 32,
      "hit": false,
      "t": 153173.02520833345,
      "d": 368.3876041666663,
      "v": 82
    },
    {
      "midi": 66,
      "hit": false,
      "t": 153414.38260416742,
      "d": 289.6288749999949,
      "v": 95
    },
    {
      "midi": 73,
      "hit": false,
      "t": 153416.92320833408,
      "d": 261.6822291666758,
      "v": 87
    },
    {
      "midi": 70,
      "hit": false,
      "t": 153416.92320833408,
      "d": 269.3040416666772,
      "v": 93
    },
    {
      "midi": 78,
      "hit": false,
      "t": 153416.92320833408,
      "d": 287.08827083333745,
      "v": 96
    },
    {
      "midi": 61,
      "hit": false,
      "t": 153637.9557708334,
      "d": 256.60102083333186,
      "v": 98
    },
    {
      "midi": 73,
      "hit": false,
      "t": 153637.9557708335,
      "d": 190.54531250000582,
      "v": 90
    },
    {
      "midi": 64,
      "hit": false,
      "t": 153637.9557708335,
      "d": 238.81679166667163,
      "v": 84
    },
    {
      "midi": 52,
      "hit": false,
      "t": 153660.8212083334,
      "d": 264.22283333333326,
      "v": 103
    },
    {
      "midi": 46,
      "hit": false,
      "t": 153660.82120833345,
      "d": 353.1439791666635,
      "v": 88
    },
    {
      "midi": 34,
      "hit": false,
      "t": 153660.82120833345,
      "d": 353.1439791666635,
      "v": 88
    },
    {
      "midi": 66,
      "hit": false,
      "t": 153902.17860416742,
      "d": 109.24597916664788,
      "v": 89
    },
    {
      "midi": 73,
      "hit": false,
      "t": 153904.71920833408,
      "d": 43.19027083332185,
      "v": 83
    },
    {
      "midi": 70,
      "hit": false,
      "t": 153904.71920833408,
      "d": 78.7587291666423,
      "v": 89
    },
    {
      "midi": 78,
      "hit": false,
      "t": 153904.71920833408,
      "d": 83.83993749998626,
      "v": 94
    },
    {
      "midi": 51,
      "hit": false,
      "t": 154115.58935416673,
      "d": 1539.6061249999912,
      "v": 95
    },
    {
      "midi": 54,
      "hit": false,
      "t": 154115.58935416673,
      "d": 1539.6061249999912,
      "v": 89
    },
    {
      "midi": 59,
      "hit": false,
      "t": 154115.58935416673,
      "d": 1554.849749999994,
      "v": 91
    },
    {
      "midi": 47,
      "hit": false,
      "t": 154148.61720833345,
      "d": 642.7728541666584,
      "v": 85
    },
    {
      "midi": 35,
      "hit": false,
      "t": 154148.61720833345,
      "d": 642.7728541666584,
      "v": 85
    },
    {
      "midi": 66,
      "hit": false,
      "t": 154148.61720833406,
      "d": 66.05570833332604,
      "v": 81
    },
    {
      "midi": 71,
      "hit": false,
      "t": 154148.61720833406,
      "d": 99.08356249998906,
      "v": 80
    },
    {
      "midi": 71,
      "hit": false,
      "t": 154151.15781250005,
      "d": 1613.2836458333186,
      "v": 105
    },
    {
      "midi": 75,
      "hit": false,
      "t": 154151.15781250072,
      "d": 66.05570833332604,
      "v": 77
    },
    {
      "midi": 63,
      "hit": false,
      "t": 154153.6984166667,
      "d": 1610.7430416666612,
      "v": 106
    },
    {
      "midi": 63,
      "hit": false,
      "t": 154158.77962500017,
      "d": 1415.1165208333405,
      "v": 84
    },
    {
      "midi": 71,
      "hit": false,
      "t": 154161.32022916683,
      "d": 1407.494708333339,
      "v": 84
    },
    {
      "midi": 66,
      "hit": false,
      "t": 154389.9746041674,
      "d": 292.1694791666814,
      "v": 98
    },
    {
      "midi": 71,
      "hit": false,
      "t": 154392.51520833405,
      "d": 284.54766666668,
      "v": 99
    },
    {
      "midi": 75,
      "hit": false,
      "t": 154392.51520833405,
      "d": 292.1694791666814,
      "v": 93
    },
    {
      "midi": 47,
      "hit": false,
      "t": 154877.77060416678,
      "d": 243.8979999999865,
      "v": 71
    },
    {
      "midi": 35,
      "hit": false,
      "t": 154877.77060416678,
      "d": 243.8979999999865,
      "v": 71
    },
    {
      "midi": 71,
      "hit": false,
      "t": 154880.31120833405,
      "d": 66.05570833332604,
      "v": 88
    },
    {
      "midi": 75,
      "hit": false,
      "t": 154880.31120833405,
      "d": 68.59631249998347,
      "v": 82
    },
    {
      "midi": 66,
      "hit": false,
      "t": 154880.31120833405,
      "d": 86.3805416666437,
      "v": 88
    },
    {
      "midi": 42,
      "hit": false,
      "t": 155124.20920833343,
      "d": 525.9050625000091,
      "v": 76
    },
    {
      "midi": 30,
      "hit": false,
      "t": 155124.20920833343,
      "d": 525.9050625000091,
      "v": 76
    },
    {
      "midi": 66,
      "hit": false,
      "t": 155124.20920833404,
      "d": 86.3805416666728,
      "v": 85
    },
    {
      "midi": 75,
      "hit": false,
      "t": 155126.7498125007,
      "d": 60.974500000011176,
      "v": 82
    },
    {
      "midi": 71,
      "hit": false,
      "t": 155126.7498125007,
      "d": 71.13691666667,
      "v": 87
    },
    {
      "midi": 66,
      "hit": false,
      "t": 155365.56660416737,
      "d": 266.7634374999907,
      "v": 98
    },
    {
      "midi": 71,
      "hit": false,
      "t": 155368.10720833403,
      "d": 261.6822291666758,
      "v": 97
    },
    {
      "midi": 75,
      "hit": false,
      "t": 155368.10720833403,
      "d": 261.6822291666758,
      "v": 94
    },
    {
      "midi": 42,
      "hit": false,
      "t": 155853.36260416676,
      "d": 208.32954166666605,
      "v": 71
    },
    {
      "midi": 30,
      "hit": false,
      "t": 155853.36260416676,
      "d": 208.32954166666605,
      "v": 71
    },
    {
      "midi": 66,
      "hit": false,
      "t": 155855.90320833403,
      "d": 86.3805416666728,
      "v": 94
    },
    {
      "midi": 71,
      "hit": false,
      "t": 155855.90320833403,
      "d": 88.92114583333023,
      "v": 88
    },
    {
      "midi": 75,
      "hit": false,
      "t": 155855.90320833403,
      "d": 88.92114583333023,
      "v": 88
    },
    {
      "midi": 68,
      "hit": false,
      "t": 156099.80120833335,
      "d": 599.5825833333365,
      "v": 80
    },
    {
      "midi": 77,
      "hit": false,
      "t": 156099.80120833335,
      "d": 614.8262083333393,
      "v": 75
    },
    {
      "midi": 65,
      "hit": false,
      "t": 156099.8012083334,
      "d": 1387.1698749999923,
      "v": 100
    },
    {
      "midi": 56,
      "hit": false,
      "t": 156102.34181250006,
      "d": 1377.0074583333335,
      "v": 104
    },
    {
      "midi": 49,
      "hit": false,
      "t": 156102.3418125001,
      "d": 523.3644583333225,
      "v": 102
    },
    {
      "midi": 37,
      "hit": false,
      "t": 156102.3418125001,
      "d": 523.3644583333225,
      "v": 102
    },
    {
      "midi": 68,
      "hit": false,
      "t": 156104.88241666736,
      "d": 83.83993749998626,
      "v": 87
    },
    {
      "midi": 73,
      "hit": false,
      "t": 156104.88241666736,
      "d": 83.83993749998626,
      "v": 85
    },
    {
      "midi": 77,
      "hit": false,
      "t": 156104.88241666736,
      "d": 99.08356249998906,
      "v": 71
    },
    {
      "midi": 65,
      "hit": false,
      "t": 156112.50422916666,
      "d": 561.4735208333295,
      "v": 84
    },
    {
      "midi": 68,
      "hit": false,
      "t": 156341.15860416734,
      "d": 269.3040416666772,
      "v": 96
    },
    {
      "midi": 77,
      "hit": false,
      "t": 156341.15860416734,
      "d": 269.3040416666772,
      "v": 89
    },
    {
      "midi": 73,
      "hit": false,
      "t": 156343.699208334,
      "d": 236.2761875000142,
      "v": 92
    },
    {
      "midi": 68,
      "hit": false,
      "t": 156818.79218750002,
      "d": 612.2856041666528,
      "v": 76
    },
    {
      "midi": 77,
      "hit": false,
      "t": 156818.79218750002,
      "d": 642.7728541666584,
      "v": 74
    },
    {
      "midi": 49,
      "hit": false,
      "t": 156828.95460416673,
      "d": 248.97920833333046,
      "v": 89
    },
    {
      "midi": 37,
      "hit": false,
      "t": 156828.95460416673,
      "d": 248.97920833333046,
      "v": 89
    },
    {
      "midi": 77,
      "hit": false,
      "t": 156831.49520833403,
      "d": 58.43389583332464,
      "v": 78
    },
    {
      "midi": 73,
      "hit": false,
      "t": 156831.49520833403,
      "d": 86.3805416666437,
      "v": 84
    },
    {
      "midi": 68,
      "hit": false,
      "t": 156831.49520833403,
      "d": 88.92114583330113,
      "v": 81
    },
    {
      "midi": 65,
      "hit": false,
      "t": 156859.44185416665,
      "d": 685.9631250000093,
      "v": 77
    },
    {
      "midi": 44,
      "hit": false,
      "t": 157075.3932083334,
      "d": 297.2506874999963,
      "v": 98
    },
    {
      "midi": 32,
      "hit": false,
      "t": 157075.3932083334,
      "d": 297.2506874999963,
      "v": 98
    },
    {
      "midi": 68,
      "hit": false,
      "t": 157075.393208334,
      "d": 101.62416666664649,
      "v": 88
    },
    {
      "midi": 73,
      "hit": false,
      "t": 157075.393208334,
      "d": 101.62416666664649,
      "v": 89
    },
    {
      "midi": 77,
      "hit": false,
      "t": 157077.93381250065,
      "d": 96.54295833333163,
      "v": 86
    },
    {
      "midi": 77,
      "hit": false,
      "t": 157316.7506041673,
      "d": 48.27147916666581,
      "v": 47
    },
    {
      "midi": 75,
      "hit": false,
      "t": 157545.40497916666,
      "d": 475.09297916668584,
      "v": 78
    },
    {
      "midi": 44,
      "hit": false,
      "t": 157563.1892083334,
      "d": 221.0325625000114,
      "v": 75
    },
    {
      "midi": 32,
      "hit": false,
      "t": 157563.1892083334,
      "d": 221.0325625000114,
      "v": 75
    },
    {
      "midi": 72,
      "hit": false,
      "t": 157563.18920833396,
      "d": 284.5476666666509,
      "v": 96
    },
    {
      "midi": 75,
      "hit": false,
      "t": 157563.18920833396,
      "d": 322.6567291666579,
      "v": 95
    },
    {
      "midi": 66,
      "hit": false,
      "t": 157565.7298125,
      "d": 360.7657916666649,
      "v": 74
    },
    {
      "midi": 68,
      "hit": false,
      "t": 157565.72981250062,
      "d": 282.0070624999935,
      "v": 100
    },
    {
      "midi": 63,
      "hit": false,
      "t": 157568.27041666672,
      "d": 401.4154583333293,
      "v": 98
    },
    {
      "midi": 63,
      "hit": false,
      "t": 157575.89222916667,
      "d": 452.22754166665254,
      "v": 78
    },
    {
      "midi": 54,
      "hit": false,
      "t": 157583.51404166673,
      "d": 337.9003541666607,
      "v": 116
    },
    {
      "midi": 46,
      "hit": false,
      "t": 157804.54660416677,
      "d": 223.57316666666884,
      "v": 67
    },
    {
      "midi": 34,
      "hit": false,
      "t": 157804.54660416677,
      "d": 223.57316666666884,
      "v": 67
    },
    {
      "midi": 49,
      "hit": false,
      "t": 158050.98520833344,
      "d": 492.87720833334606,
      "v": 78
    },
    {
      "midi": 37,
      "hit": false,
      "t": 158050.98520833344,
      "d": 492.87720833334606,
      "v": 78
    },
    {
      "midi": 73,
      "hit": false,
      "t": 158050.98520833396,
      "d": 88.92114583333023,
      "v": 84
    },
    {
      "midi": 77,
      "hit": false,
      "t": 158050.98520833396,
      "d": 88.92114583333023,
      "v": 81
    },
    {
      "midi": 53,
      "hit": false,
      "t": 158053.52581250004,
      "d": 1328.7359791666677,
      "v": 105
    },
    {
      "midi": 61,
      "hit": false,
      "t": 158053.52581250004,
      "d": 1397.3322916666802,
      "v": 103
    },
    {
      "midi": 68,
      "hit": false,
      "t": 158053.52581250062,
      "d": 86.3805416666728,
      "v": 88
    },
    {
      "midi": 65,
      "hit": false,
      "t": 158063.68822916667,
      "d": 566.5547291666735,
      "v": 80
    },
    {
      "midi": 73,
      "hit": false,
      "t": 158063.68822916667,
      "d": 581.7983541666763,
      "v": 69
    },
    {
      "midi": 61,
      "hit": false,
      "t": 158068.76943749998,
      "d": 569.0953333333309,
      "v": 87
    },
    {
      "midi": 77,
      "hit": false,
      "t": 158292.3426041673,
      "d": 292.1694791666523,
      "v": 88
    },
    {
      "midi": 73,
      "hit": false,
      "t": 158292.3426041673,
      "d": 297.2506874999963,
      "v": 92
    },
    {
      "midi": 68,
      "hit": false,
      "t": 158294.88320833395,
      "d": 274.3852499999921,
      "v": 93
    },
    {
      "midi": 65,
      "hit": false,
      "t": 158769.97618750003,
      "d": 591.9607708333351,
      "v": 73
    },
    {
      "midi": 49,
      "hit": false,
      "t": 158780.1386041668,
      "d": 165.1392708333442,
      "v": 67
    },
    {
      "midi": 37,
      "hit": false,
      "t": 158780.1386041668,
      "d": 165.1392708333442,
      "v": 67
    },
    {
      "midi": 77,
      "hit": false,
      "t": 158782.67920833395,
      "d": 71.13691666667,
      "v": 82
    },
    {
      "midi": 73,
      "hit": false,
      "t": 158782.67920833395,
      "d": 91.46175000001676,
      "v": 90
    },
    {
      "midi": 68,
      "hit": false,
      "t": 158782.67920833395,
      "d": 94.0023541666742,
      "v": 87
    },
    {
      "midi": 73,
      "hit": false,
      "t": 158790.30102083337,
      "d": 642.7728541666584,
      "v": 71
    },
    {
      "midi": 61,
      "hit": false,
      "t": 158810.62585416666,
      "d": 675.8007083333214,
      "v": 83
    },
    {
      "midi": 44,
      "hit": false,
      "t": 159026.57720833347,
      "d": 513.2020416666637,
      "v": 64
    },
    {
      "midi": 32,
      "hit": false,
      "t": 159026.57720833347,
      "d": 513.2020416666637,
      "v": 64
    },
    {
      "midi": 73,
      "hit": false,
      "t": 159026.57720833397,
      "d": 91.46174999998766,
      "v": 91
    },
    {
      "midi": 68,
      "hit": false,
      "t": 159026.57720833397,
      "d": 94.00235416664509,
      "v": 86
    },
    {
      "midi": 77,
      "hit": false,
      "t": 159029.11781250063,
      "d": 91.46174999998766,
      "v": 84
    },
    {
      "midi": 68,
      "hit": false,
      "t": 159267.93460416727,
      "d": 312.49431249999907,
      "v": 96
    },
    {
      "midi": 77,
      "hit": false,
      "t": 159267.93460416727,
      "d": 327.73793750000186,
      "v": 93
    },
    {
      "midi": 73,
      "hit": false,
      "t": 159270.47520833393,
      "d": 304.8724999999977,
      "v": 97
    },
    {
      "midi": 75,
      "hit": false,
      "t": 159501.67018750004,
      "d": 416.6590833333612,
      "v": 74
    },
    {
      "midi": 54,
      "hit": false,
      "t": 159516.91381250005,
      "d": 360.7657916666649,
      "v": 107
    },
    {
      "midi": 63,
      "hit": false,
      "t": 159516.91381250005,
      "d": 431.9027083333349,
      "v": 98
    },
    {
      "midi": 66,
      "hit": false,
      "t": 159521.9950208334,
      "d": 317.57552083334303,
      "v": 74
    },
    {
      "midi": 63,
      "hit": false,
      "t": 159527.07622916665,
      "d": 332.81914583334583,
      "v": 78
    },
    {
      "midi": 44,
      "hit": false,
      "t": 159755.7306041668,
      "d": 101.62416666667559,
      "v": 57
    },
    {
      "midi": 32,
      "hit": false,
      "t": 159755.7306041668,
      "d": 101.62416666667559,
      "v": 57
    },
    {
      "midi": 68,
      "hit": false,
      "t": 159758.27120833393,
      "d": 127.03020833333721,
      "v": 93
    },
    {
      "midi": 72,
      "hit": false,
      "t": 159758.27120833393,
      "d": 134.6520208333386,
      "v": 90
    },
    {
      "midi": 75,
      "hit": false,
      "t": 159758.27120833393,
      "d": 195.6265208333498,
      "v": 89
    },
    {
      "midi": 68,
      "hit": false,
      "t": 159992.00679166673,
      "d": 576.7171458333323,
      "v": 86
    },
    {
      "midi": 77,
      "hit": false,
      "t": 159994.5473958334,
      "d": 589.4201666666777,
      "v": 75
    },
    {
      "midi": 65,
      "hit": false,
      "t": 160002.1692083334,
      "d": 1384.6292708333349,
      "v": 99
    },
    {
      "midi": 56,
      "hit": false,
      "t": 160002.1692083334,
      "d": 3615.27972916665,
      "v": 109
    },
    {
      "midi": 49,
      "hit": false,
      "t": 160004.70981250014,
      "d": 548.7705000000133,
      "v": 75
    },
    {
      "midi": 37,
      "hit": false,
      "t": 160004.70981250014,
      "d": 548.7705000000133,
      "v": 75
    },
    {
      "midi": 73,
      "hit": false,
      "t": 160004.7098125006,
      "d": 109.24597916667699,
      "v": 87
    },
    {
      "midi": 77,
      "hit": false,
      "t": 160004.7098125006,
      "d": 116.86779166667839,
      "v": 82
    },
    {
      "midi": 65,
      "hit": false,
      "t": 160007.25041666665,
      "d": 556.3923124999856,
      "v": 74
    },
    {
      "midi": 68,
      "hit": false,
      "t": 160007.25041666726,
      "d": 86.3805416666728,
      "v": 90
    },
    {
      "midi": 77,
      "hit": false,
      "t": 160243.52660416727,
      "d": 320.11612500000047,
      "v": 90
    },
    {
      "midi": 68,
      "hit": false,
      "t": 160246.06720833393,
      "d": 302.33189583334024,
      "v": 94
    },
    {
      "midi": 73,
      "hit": false,
      "t": 160246.06720833393,
      "d": 317.57552083334303,
      "v": 96
    },
    {
      "midi": 65,
      "hit": false,
      "t": 160721.16018749998,
      "d": 655.4758750000037,
      "v": 75
    },
    {
      "midi": 68,
      "hit": false,
      "t": 160721.16018750006,
      "d": 614.8262083333393,
      "v": 82
    },
    {
      "midi": 77,
      "hit": false,
      "t": 160721.16018750006,
      "d": 683.4225208333519,
      "v": 78
    },
    {
      "midi": 49,
      "hit": false,
      "t": 160731.3226041668,
      "d": 182.92350000000442,
      "v": 64
    },
    {
      "midi": 37,
      "hit": false,
      "t": 160731.3226041668,
      "d": 182.92350000000442,
      "v": 64
    },
    {
      "midi": 68,
      "hit": false,
      "t": 160733.86320833393,
      "d": 73.67752083332743,
      "v": 83
    },
    {
      "midi": 73,
      "hit": false,
      "t": 160733.86320833393,
      "d": 73.67752083332743,
      "v": 87
    },
    {
      "midi": 77,
      "hit": false,
      "t": 160733.86320833393,
      "d": 78.7587291666714,
      "v": 81
    },
    {
      "midi": 44,
      "hit": false,
      "t": 160977.76120833348,
      "d": 541.1486875000119,
      "v": 69
    },
    {
      "midi": 32,
      "hit": false,
      "t": 160977.76120833348,
      "d": 541.1486875000119,
      "v": 69
    },
    {
      "midi": 73,
      "hit": false,
      "t": 160977.76120833395,
      "d": 94.0023541666742,
      "v": 89
    },
    {
      "midi": 77,
      "hit": false,
      "t": 160977.76120833395,
      "d": 106.70537500001956,
      "v": 86
    },
    {
      "midi": 68,
      "hit": false,
      "t": 160980.3018125006,
      "d": 86.3805416666728,
      "v": 86
    },
    {
      "midi": 73,
      "hit": false,
      "t": 161219.1186041673,
      "d": 91.46174999998766,
      "v": 87
    },
    {
      "midi": 77,
      "hit": false,
      "t": 161219.1186041673,
      "d": 109.24597916664788,
      "v": 87
    },
    {
      "midi": 68,
      "hit": false,
      "t": 161221.65920833396,
      "d": 88.92114583333023,
      "v": 81
    },
    {
      "midi": 66,
      "hit": false,
      "t": 161432.52935416673,
      "d": 403.95606249998673,
      "v": 101
    },
    {
      "midi": 63,
      "hit": false,
      "t": 161432.52935416673,
      "d": 406.49666666664416,
      "v": 95
    },
    {
      "midi": 66,
      "hit": false,
      "t": 161442.6917708333,
      "d": 398.87485416667187,
      "v": 74
    },
    {
      "midi": 78,
      "hit": false,
      "t": 161442.69177083342,
      "d": 475.09297916665673,
      "v": 62
    },
    {
      "midi": 75,
      "hit": false,
      "t": 161445.23237500008,
      "d": 459.84935416665394,
      "v": 76
    },
    {
      "midi": 72,
      "hit": false,
      "t": 161465.55720833395,
      "d": 276.9258541666786,
      "v": 92
    },
    {
      "midi": 68,
      "hit": false,
      "t": 161465.55720833395,
      "d": 287.08827083333745,
      "v": 98
    },
    {
      "midi": 78,
      "hit": false,
      "t": 161465.55720833395,
      "d": 317.57552083334303,
      "v": 88
    },
    {
      "midi": 75,
      "hit": false,
      "t": 161465.55720833395,
      "d": 337.9003541666898,
      "v": 94
    },
    {
      "midi": 44,
      "hit": false,
      "t": 161706.9146041668,
      "d": 71.13691666667,
      "v": 52
    },
    {
      "midi": 32,
      "hit": false,
      "t": 161706.9146041668,
      "d": 71.13691666667,
      "v": 52
    },
    {
      "midi": 68,
      "hit": false,
      "t": 161953.3532083333,
      "d": 1224.5712083333347,
      "v": 78
    },
    {
      "midi": 80,
      "hit": false,
      "t": 161953.3532083334,
      "d": 1359.2232291666733,
      "v": 69
    },
    {
      "midi": 77,
      "hit": false,
      "t": 161953.3532083334,
      "d": 1415.1165208333405,
      "v": 71
    },
    {
      "midi": 49,
      "hit": false,
      "t": 161955.89381250014,
      "d": 536.0674791666679,
      "v": 77
    },
    {
      "midi": 37,
      "hit": false,
      "t": 161955.89381250014,
      "d": 536.0674791666679,
      "v": 77
    },
    {
      "midi": 73,
      "hit": false,
      "t": 161955.89381250064,
      "d": 83.83993749998626,
      "v": 79
    },
    {
      "midi": 68,
      "hit": false,
      "t": 161958.4344166673,
      "d": 83.83993749998626,
      "v": 81
    },
    {
      "midi": 77,
      "hit": false,
      "t": 161958.4344166673,
      "d": 88.92114583333023,
      "v": 77
    },
    {
      "midi": 68,
      "hit": false,
      "t": 161960.97502083337,
      "d": 1671.7175416666723,
      "v": 82
    },
    {
      "midi": 65,
      "hit": false,
      "t": 161963.51562500003,
      "d": 1689.5017708333617,
      "v": 92
    },
    {
      "midi": 68,
      "hit": false,
      "t": 162194.71060416728,
      "d": 287.08827083333745,
      "v": 95
    },
    {
      "midi": 77,
      "hit": false,
      "t": 162194.71060416728,
      "d": 307.4131041666842,
      "v": 90
    },
    {
      "midi": 73,
      "hit": false,
      "t": 162197.25120833394,
      "d": 304.8725000000268,
      "v": 96
    },
    {
      "midi": 49,
      "hit": false,
      "t": 162682.50660416682,
      "d": 205.78893750000861,
      "v": 71
    },
    {
      "midi": 37,
      "hit": false,
      "t": 162682.50660416682,
      "d": 205.78893750000861,
      "v": 71
    },
    {
      "midi": 68,
      "hit": false,
      "t": 162685.04720833397,
      "d": 71.13691666667,
      "v": 83
    },
    {
      "midi": 77,
      "hit": false,
      "t": 162685.04720833397,
      "d": 71.13691666667,
      "v": 81
    },
    {
      "midi": 73,
      "hit": false,
      "t": 162685.04720833397,
      "d": 73.67752083332743,
      "v": 83
    },
    {
      "midi": 44,
      "hit": false,
      "t": 162928.9452083335,
      "d": 444.60572916668025,
      "v": 77
    },
    {
      "midi": 32,
      "hit": false,
      "t": 162928.9452083335,
      "d": 444.60572916668025,
      "v": 77
    },
    {
      "midi": 73,
      "hit": false,
      "t": 162928.94520833396,
      "d": 71.13691666667,
      "v": 87
    },
    {
      "midi": 77,
      "hit": false,
      "t": 162928.94520833396,
      "d": 71.13691666667,
      "v": 83
    },
    {
      "midi": 68,
      "hit": false,
      "t": 162931.4858125006,
      "d": 68.59631250001257,
      "v": 84
    },
    {
      "midi": 77,
      "hit": false,
      "t": 163170.3026041673,
      "d": 365.84699999997974,
      "v": 93
    },
    {
      "midi": 68,
      "hit": false,
      "t": 163172.84320833394,
      "d": 348.0627708333195,
      "v": 96
    },
    {
      "midi": 73,
      "hit": false,
      "t": 163172.84320833394,
      "d": 363.3063958333223,
      "v": 96
    },
    {
      "midi": 73,
      "hit": false,
      "t": 163393.8757708334,
      "d": 452.22754166665254,
      "v": 60
    },
    {
      "midi": 61,
      "hit": false,
      "t": 163404.03818749997,
      "d": 360.7657916666649,
      "v": 78
    },
    {
      "midi": 49,
      "hit": false,
      "t": 163416.7412083335,
      "d": 444.60572916668025,
      "v": 76
    },
    {
      "midi": 37,
      "hit": false,
      "t": 163416.7412083335,
      "d": 444.60572916668025,
      "v": 76
    },
    {
      "midi": 68,
      "hit": false,
      "t": 163658.09860416726,
      "d": 76.21812499998487,
      "v": 80
    },
    {
      "midi": 77,
      "hit": false,
      "t": 163658.09860416726,
      "d": 96.54295833333163,
      "v": 81
    },
    {
      "midi": 73,
      "hit": false,
      "t": 163660.63920833392,
      "d": 73.67752083332743,
      "v": 77
    },
    {
      "midi": 66,
      "hit": false,
      "t": 163891.83418750006,
      "d": 1618.3648541666626,
      "v": 94
    },
    {
      "midi": 58,
      "hit": false,
      "t": 163891.83418750006,
      "d": 1826.6943958333286,
      "v": 101
    },
    {
      "midi": 61,
      "hit": false,
      "t": 163891.83418750006,
      "d": 1839.397416666674,
      "v": 97
    },
    {
      "midi": 70,
      "hit": false,
      "t": 163904.5372083333,
      "d": 652.9352708333463,
      "v": 80
    },
    {
      "midi": 82,
      "hit": false,
      "t": 163904.53720833338,
      "d": 589.4201666666777,
      "v": 72
    },
    {
      "midi": 78,
      "hit": false,
      "t": 163904.53720833338,
      "d": 607.2043958333379,
      "v": 70
    },
    {
      "midi": 54,
      "hit": false,
      "t": 163907.07781250018,
      "d": 546.2298958333267,
      "v": 79
    },
    {
      "midi": 42,
      "hit": false,
      "t": 163907.07781250018,
      "d": 546.2298958333267,
      "v": 79
    },
    {
      "midi": 73,
      "hit": false,
      "t": 163907.0778125006,
      "d": 83.83993749998626,
      "v": 89
    },
    {
      "midi": 70,
      "hit": false,
      "t": 163909.61841666725,
      "d": 83.83993749998626,
      "v": 85
    },
    {
      "midi": 66,
      "hit": false,
      "t": 163909.61841666725,
      "d": 88.92114583333023,
      "v": 82
    },
    {
      "midi": 78,
      "hit": false,
      "t": 163909.61841666725,
      "d": 88.92114583333023,
      "v": 83
    },
    {
      "midi": 78,
      "hit": false,
      "t": 164145.89460416723,
      "d": 325.19733333334443,
      "v": 89
    },
    {
      "midi": 66,
      "hit": false,
      "t": 164148.4352083339,
      "d": 302.33189583334024,
      "v": 92
    },
    {
      "midi": 70,
      "hit": false,
      "t": 164148.4352083339,
      "d": 302.33189583334024,
      "v": 93
    },
    {
      "midi": 73,
      "hit": false,
      "t": 164148.4352083339,
      "d": 315.0349166666856,
      "v": 94
    },
    {
      "midi": 78,
      "hit": false,
      "t": 164626.0687916667,
      "d": 597.04197916665,
      "v": 66
    },
    {
      "midi": 82,
      "hit": false,
      "t": 164628.60939583337,
      "d": 561.4735208333295,
      "v": 67
    },
    {
      "midi": 54,
      "hit": false,
      "t": 164633.69060416686,
      "d": 243.8979999999865,
      "v": 74
    },
    {
      "midi": 42,
      "hit": false,
      "t": 164633.69060416686,
      "d": 243.8979999999865,
      "v": 74
    },
    {
      "midi": 73,
      "hit": false,
      "t": 164636.23120833392,
      "d": 86.3805416666728,
      "v": 87
    },
    {
      "midi": 70,
      "hit": false,
      "t": 164636.23120833392,
      "d": 91.46175000001676,
      "v": 82
    },
    {
      "midi": 66,
      "hit": false,
      "t": 164636.23120833392,
      "d": 99.08356250001816,
      "v": 84
    },
    {
      "midi": 78,
      "hit": false,
      "t": 164636.23120833392,
      "d": 99.08356250001816,
      "v": 80
    },
    {
      "midi": 70,
      "hit": false,
      "t": 164674.34027083332,
      "d": 581.7983541666763,
      "v": 70
    },
    {
      "midi": 49,
      "hit": false,
      "t": 164880.1292083335,
      "d": 475.09297916665673,
      "v": 63
    },
    {
      "midi": 37,
      "hit": false,
      "t": 164880.1292083335,
      "d": 475.09297916665673,
      "v": 63
    },
    {
      "midi": 73,
      "hit": false,
      "t": 164880.12920833394,
      "d": 88.92114583333023,
      "v": 87
    },
    {
      "midi": 70,
      "hit": false,
      "t": 164882.6698125006,
      "d": 86.3805416666728,
      "v": 78
    },
    {
      "midi": 66,
      "hit": false,
      "t": 164882.6698125006,
      "d": 91.46175000001676,
      "v": 83
    },
    {
      "midi": 78,
      "hit": false,
      "t": 164882.6698125006,
      "d": 91.46175000001676,
      "v": 81
    },
    {
      "midi": 70,
      "hit": false,
      "t": 165121.48660416726,
      "d": 320.11612500000047,
      "v": 89
    },
    {
      "midi": 73,
      "hit": false,
      "t": 165124.02720833392,
      "d": 317.57552083334303,
      "v": 91
    },
    {
      "midi": 66,
      "hit": false,
      "t": 165124.02720833392,
      "d": 322.656729166687,
      "v": 91
    },
    {
      "midi": 78,
      "hit": false,
      "t": 165124.02720833392,
      "d": 322.656729166687,
      "v": 87
    },
    {
      "midi": 82,
      "hit": false,
      "t": 165355.22218750004,
      "d": 376.0094166666677,
      "v": 69
    },
    {
      "midi": 78,
      "hit": false,
      "t": 165355.22218750004,
      "d": 388.71243750001304,
      "v": 72
    },
    {
      "midi": 54,
      "hit": false,
      "t": 165367.9252083335,
      "d": 490.3366041666595,
      "v": 78
    },
    {
      "midi": 42,
      "hit": false,
      "t": 165367.9252083335,
      "d": 490.3366041666595,
      "v": 78
    },
    {
      "midi": 70,
      "hit": false,
      "t": 165378.087625,
      "d": 355.6845833333209,
      "v": 73
    },
    {
      "midi": 66,
      "hit": false,
      "t": 165609.28260416727,
      "d": 96.54295833333163,
      "v": 86
    },
    {
      "midi": 70,
      "hit": false,
      "t": 165609.28260416727,
      "d": 101.62416666667559,
      "v": 81
    },
    {
      "midi": 73,
      "hit": false,
      "t": 165611.82320833392,
      "d": 94.0023541666742,
      "v": 86
    },
    {
      "midi": 78,
      "hit": false,
      "t": 165611.82320833392,
      "d": 119.40839583336492,
      "v": 83
    },
    {
      "midi": 77,
      "hit": false,
      "t": 165855.7212083334,
      "d": 797.7497083333437,
      "v": 76
    },
    {
      "midi": 80,
      "hit": false,
      "t": 165855.7212083334,
      "d": 815.533937500004,
      "v": 71
    },
    {
      "midi": 49,
      "hit": false,
      "t": 165855.7212083335,
      "d": 485.25539583331556,
      "v": 78
    },
    {
      "midi": 37,
      "hit": false,
      "t": 165855.7212083335,
      "d": 485.25539583331556,
      "v": 78
    },
    {
      "midi": 68,
      "hit": false,
      "t": 165858.26181250063,
      "d": 76.21812500001397,
      "v": 88
    },
    {
      "midi": 73,
      "hit": false,
      "t": 165858.26181250063,
      "d": 76.21812500001397,
      "v": 79
    },
    {
      "midi": 77,
      "hit": false,
      "t": 165858.26181250063,
      "d": 96.54295833336073,
      "v": 81
    },
    {
      "midi": 65,
      "hit": false,
      "t": 165863.34302083342,
      "d": 932.4017291666532,
      "v": 99
    },
    {
      "midi": 68,
      "hit": false,
      "t": 165863.34302083342,
      "d": 934.9423333333107,
      "v": 84
    },
    {
      "midi": 56,
      "hit": false,
      "t": 165863.34302083342,
      "d": 5675.709708333248,
      "v": 101
    },
    {
      "midi": 68,
      "hit": false,
      "t": 165868.42422916665,
      "d": 914.617499999993,
      "v": 83
    },
    {
      "midi": 68,
      "hit": false,
      "t": 166097.07860416733,
      "d": 320.11612500000047,
      "v": 100
    },
    {
      "midi": 77,
      "hit": false,
      "t": 166097.07860416733,
      "d": 335.35975000000326,
      "v": 95
    },
    {
      "midi": 73,
      "hit": false,
      "t": 166099.61920833398,
      "d": 332.81914583334583,
      "v": 97
    },
    {
      "midi": 49,
      "hit": false,
      "t": 166584.8746041668,
      "d": 223.57316666666884,
      "v": 69
    },
    {
      "midi": 37,
      "hit": false,
      "t": 166584.8746041668,
      "d": 223.57316666666884,
      "v": 69
    },
    {
      "midi": 73,
      "hit": false,
      "t": 166587.415208334,
      "d": 99.08356249998906,
      "v": 90
    },
    {
      "midi": 68,
      "hit": false,
      "t": 166587.415208334,
      "d": 119.40839583333582,
      "v": 90
    },
    {
      "midi": 77,
      "hit": false,
      "t": 166587.415208334,
      "d": 119.40839583333582,
      "v": 86
    },
    {
      "midi": 75,
      "hit": false,
      "t": 166803.36656250007,
      "d": 424.2808958333335,
      "v": 80
    },
    {
      "midi": 78,
      "hit": false,
      "t": 166803.36656250007,
      "d": 424.2808958333335,
      "v": 66
    },
    {
      "midi": 66,
      "hit": false,
      "t": 166823.6913958333,
      "d": 370.9282083333237,
      "v": 79
    },
    {
      "midi": 44,
      "hit": false,
      "t": 166831.31320833348,
      "d": 406.49666666667326,
      "v": 68
    },
    {
      "midi": 32,
      "hit": false,
      "t": 166831.31320833348,
      "d": 406.49666666667326,
      "v": 68
    },
    {
      "midi": 68,
      "hit": false,
      "t": 166831.313208334,
      "d": 322.6567291666579,
      "v": 105
    },
    {
      "midi": 75,
      "hit": false,
      "t": 166831.313208334,
      "d": 342.98156250000466,
      "v": 98
    },
    {
      "midi": 78,
      "hit": false,
      "t": 166833.85381250066,
      "d": 340.4409583333472,
      "v": 97
    },
    {
      "midi": 66,
      "hit": false,
      "t": 166841.47562500005,
      "d": 454.76814583331,
      "v": 103
    },
    {
      "midi": 63,
      "hit": false,
      "t": 166844.0162291667,
      "d": 345.5221666666621,
      "v": 97
    },
    {
      "midi": 73,
      "hit": false,
      "t": 167311.4873958334,
      "d": 309.95370833334164,
      "v": 80
    },
    {
      "midi": 77,
      "hit": false,
      "t": 167311.4873958334,
      "d": 353.1439791666635,
      "v": 76
    },
    {
      "midi": 49,
      "hit": false,
      "t": 167319.10920833348,
      "d": 434.4433124999923,
      "v": 74
    },
    {
      "midi": 37,
      "hit": false,
      "t": 167319.10920833348,
      "d": 434.4433124999923,
      "v": 74
    },
    {
      "midi": 68,
      "hit": false,
      "t": 167319.109208334,
      "d": 292.1694791666523,
      "v": 102
    },
    {
      "midi": 77,
      "hit": false,
      "t": 167319.109208334,
      "d": 330.2785416666593,
      "v": 95
    },
    {
      "midi": 73,
      "hit": false,
      "t": 167321.64981250066,
      "d": 246.43860416667303,
      "v": 101
    },
    {
      "midi": 65,
      "hit": false,
      "t": 167326.7310208333,
      "d": 327.73793750000186,
      "v": 87
    },
    {
      "midi": 61,
      "hit": false,
      "t": 167347.05585416668,
      "d": 241.35739583332906,
      "v": 96
    },
    {
      "midi": 65,
      "hit": false,
      "t": 167349.59645833334,
      "d": 421.74029166667606,
      "v": 99
    },
    {
      "midi": 72,
      "hit": false,
      "t": 167796.74279166674,
      "d": 1343.9796041666705,
      "v": 66
    },
    {
      "midi": 63,
      "hit": false,
      "t": 167799.28339583334,
      "d": 3691.497854166664,
      "v": 86
    },
    {
      "midi": 60,
      "hit": false,
      "t": 167799.28339583334,
      "d": 3752.4723541666754,
      "v": 89
    },
    {
      "midi": 63,
      "hit": false,
      "t": 167806.9052083333,
      "d": 1288.0863125000033,
      "v": 87
    },
    {
      "midi": 44,
      "hit": false,
      "t": 167806.90520833348,
      "d": 551.3111041666707,
      "v": 83
    },
    {
      "midi": 32,
      "hit": false,
      "t": 167806.90520833348,
      "d": 551.3111041666707,
      "v": 83
    },
    {
      "midi": 68,
      "hit": false,
      "t": 167809.44581250066,
      "d": 83.83993749998626,
      "v": 96
    },
    {
      "midi": 75,
      "hit": false,
      "t": 167809.44581250066,
      "d": 88.92114583333023,
      "v": 88
    },
    {
      "midi": 78,
      "hit": false,
      "t": 167809.44581250066,
      "d": 104.16477083333302,
      "v": 94
    },
    {
      "midi": 72,
      "hit": false,
      "t": 167811.98641666732,
      "d": 86.3805416666728,
      "v": 92
    },
    {
      "midi": 75,
      "hit": false,
      "t": 167819.60822916674,
      "d": 1389.7104791666789,
      "v": 74
    },
    {
      "midi": 72,
      "hit": false,
      "t": 168048.26260416734,
      "d": 276.9258541666786,
      "v": 95
    },
    {
      "midi": 78,
      "hit": false,
      "t": 168050.803208334,
      "d": 241.35739583332906,
      "v": 96
    },
    {
      "midi": 68,
      "hit": false,
      "t": 168050.803208334,
      "d": 254.06041666667443,
      "v": 100
    },
    {
      "midi": 75,
      "hit": false,
      "t": 168050.803208334,
      "d": 254.06041666667443,
      "v": 92
    },
    {
      "midi": 44,
      "hit": false,
      "t": 168538.5992083335,
      "d": 205.78893750000861,
      "v": 74
    },
    {
      "midi": 32,
      "hit": false,
      "t": 168538.5992083335,
      "d": 205.78893750000861,
      "v": 74
    },
    {
      "midi": 68,
      "hit": false,
      "t": 168538.59920833402,
      "d": 83.83993749998626,
      "v": 93
    },
    {
      "midi": 72,
      "hit": false,
      "t": 168538.59920833402,
      "d": 83.83993749998626,
      "v": 95
    },
    {
      "midi": 80,
      "hit": false,
      "t": 168538.59920833402,
      "d": 114.32718749999185,
      "v": 96
    },
    {
      "midi": 75,
      "hit": false,
      "t": 168541.13981250068,
      "d": 38.109062500006985,
      "v": 86
    },
    {
      "midi": 51,
      "hit": false,
      "t": 168782.49720833352,
      "d": 553.8517083333281,
      "v": 81
    },
    {
      "midi": 39,
      "hit": false,
      "t": 168782.49720833352,
      "d": 553.8517083333281,
      "v": 81
    },
    {
      "midi": 68,
      "hit": false,
      "t": 168782.497208334,
      "d": 94.0023541666742,
      "v": 95
    },
    {
      "midi": 72,
      "hit": false,
      "t": 168782.497208334,
      "d": 94.0023541666742,
      "v": 96
    },
    {
      "midi": 75,
      "hit": false,
      "t": 168785.03781250067,
      "d": 86.3805416666728,
      "v": 92
    },
    {
      "midi": 80,
      "hit": false,
      "t": 168785.03781250067,
      "d": 91.46175000001676,
      "v": 95
    },
    {
      "midi": 75,
      "hit": false,
      "t": 169023.85460416734,
      "d": 307.4131041666551,
      "v": 96
    },
    {
      "midi": 68,
      "hit": false,
      "t": 169026.395208334,
      "d": 297.2506874999963,
      "v": 100
    },
    {
      "midi": 72,
      "hit": false,
      "t": 169026.395208334,
      "d": 312.49431249999907,
      "v": 100
    },
    {
      "midi": 80,
      "hit": false,
      "t": 169026.395208334,
      "d": 332.81914583334583,
      "v": 100
    },
    {
      "midi": 70,
      "hit": false,
      "t": 169262.67139583343,
      "d": 358.22518750000745,
      "v": 80
    },
    {
      "midi": 73,
      "hit": false,
      "t": 169262.67139583343,
      "d": 457.3087499999965,
      "v": 76
    },
    {
      "midi": 61,
      "hit": false,
      "t": 169282.99622916663,
      "d": 396.33425000001444,
      "v": 65
    },
    {
      "midi": 51,
      "hit": false,
      "t": 169511.65060416685,
      "d": 167.67987500000163,
      "v": 76
    },
    {
      "midi": 39,
      "hit": false,
      "t": 169511.65060416685,
      "d": 167.67987500000163,
      "v": 76
    },
    {
      "midi": 72,
      "hit": false,
      "t": 169514.191208334,
      "d": 81.29933333332883,
      "v": 83
    },
    {
      "midi": 68,
      "hit": false,
      "t": 169514.191208334,
      "d": 86.3805416666728,
      "v": 79
    },
    {
      "midi": 80,
      "hit": false,
      "t": 169514.191208334,
      "d": 86.3805416666728,
      "v": 83
    },
    {
      "midi": 75,
      "hit": false,
      "t": 169514.191208334,
      "d": 88.92114583333023,
      "v": 77
    },
    {
      "midi": 72,
      "hit": false,
      "t": 169735.22377083343,
      "d": 1773.3417083333188,
      "v": 69
    },
    {
      "midi": 75,
      "hit": false,
      "t": 169735.22377083343,
      "d": 1808.9101666666393,
      "v": 66
    },
    {
      "midi": 44,
      "hit": false,
      "t": 169758.08920833352,
      "d": 538.6080833333253,
      "v": 77
    },
    {
      "midi": 32,
      "hit": false,
      "t": 169758.08920833352,
      "d": 538.6080833333253,
      "v": 77
    },
    {
      "midi": 80,
      "hit": false,
      "t": 169758.089208334,
      "d": 86.3805416666437,
      "v": 90
    },
    {
      "midi": 75,
      "hit": false,
      "t": 169760.62981250064,
      "d": 40.649666666664416,
      "v": 84
    },
    {
      "midi": 68,
      "hit": false,
      "t": 169760.62981250064,
      "d": 83.83993749998626,
      "v": 90
    },
    {
      "midi": 72,
      "hit": false,
      "t": 169760.62981250064,
      "d": 86.3805416666437,
      "v": 89
    },
    {
      "midi": 63,
      "hit": false,
      "t": 169768.25162499998,
      "d": 1648.8521041666681,
      "v": 68
    },
    {
      "midi": 68,
      "hit": false,
      "t": 169999.4466041673,
      "d": 292.1694791666523,
      "v": 96
    },
    {
      "midi": 80,
      "hit": false,
      "t": 169999.4466041673,
      "d": 312.49431249999907,
      "v": 95
    },
    {
      "midi": 72,
      "hit": false,
      "t": 170001.98720833394,
      "d": 304.8724999999977,
      "v": 93
    },
    {
      "midi": 75,
      "hit": false,
      "t": 170001.98720833394,
      "d": 309.95370833334164,
      "v": 92
    },
    {
      "midi": 44,
      "hit": false,
      "t": 170487.24260416685,
      "d": 215.95135416666744,
      "v": 74
    },
    {
      "midi": 32,
      "hit": false,
      "t": 170487.24260416685,
      "d": 215.95135416666744,
      "v": 74
    },
    {
      "midi": 72,
      "hit": false,
      "t": 170489.78320833395,
      "d": 86.3805416666728,
      "v": 92
    },
    {
      "midi": 68,
      "hit": false,
      "t": 170489.78320833395,
      "d": 88.92114583333023,
      "v": 92
    },
    {
      "midi": 75,
      "hit": false,
      "t": 170489.78320833395,
      "d": 88.92114583333023,
      "v": 84
    },
    {
      "midi": 80,
      "hit": false,
      "t": 170489.78320833395,
      "d": 94.0023541666742,
      "v": 94
    },
    {
      "midi": 39,
      "hit": false,
      "t": 170733.68120833352,
      "d": 642.7728541666584,
      "v": 73
    },
    {
      "midi": 27,
      "hit": false,
      "t": 170733.68120833352,
      "d": 642.7728541666584,
      "v": 73
    },
    {
      "midi": 72,
      "hit": false,
      "t": 170975.0386041673,
      "d": 289.6288749999949,
      "v": 95
    },
    {
      "midi": 75,
      "hit": false,
      "t": 170977.57920833395,
      "d": 282.0070624999935,
      "v": 90
    },
    {
      "midi": 68,
      "hit": false,
      "t": 170977.57920833395,
      "d": 287.08827083333745,
      "v": 96
    },
    {
      "midi": 80,
      "hit": false,
      "t": 170977.57920833395,
      "d": 307.4131041666842,
      "v": 98
    },
    {
      "midi": 39,
      "hit": false,
      "t": 171462.83460416686,
      "d": 198.16712500000722,
      "v": 51
    },
    {
      "midi": 27,
      "hit": false,
      "t": 171462.83460416686,
      "d": 198.16712500000722,
      "v": 51
    },
    {
      "midi": 72,
      "hit": false,
      "t": 171462.8346041673,
      "d": 48.27147916666581,
      "v": 89
    },
    {
      "midi": 75,
      "hit": false,
      "t": 171465.37520833395,
      "d": 45.73087500000838,
      "v": 83
    },
    {
      "midi": 80,
      "hit": false,
      "t": 171465.37520833395,
      "d": 50.81208333335235,
      "v": 89
    },
    {
      "midi": 68,
      "hit": false,
      "t": 171465.37520833395,
      "d": 58.433895833353745,
      "v": 89
    },
    {
      "midi": 66,
      "hit": false,
      "t": 171691.48897916666,
      "d": 1786.0447291666642,
      "v": 99
    },
    {
      "midi": 63,
      "hit": false,
      "t": 171691.48897916666,
      "d": 1852.1004374999902,
      "v": 94
    },
    {
      "midi": 56,
      "hit": false,
      "t": 171694.02958333332,
      "d": 3678.794833333319,
      "v": 97
    },
    {
      "midi": 66,
      "hit": false,
      "t": 171709.2732083333,
      "d": 566.5547291666735,
      "v": 74
    },
    {
      "midi": 44,
      "hit": false,
      "t": 171709.27320833353,
      "d": 548.7705000000133,
      "v": 78
    },
    {
      "midi": 32,
      "hit": false,
      "t": 171709.27320833353,
      "d": 548.7705000000133,
      "v": 78
    },
    {
      "midi": 75,
      "hit": false,
      "t": 171711.81381250062,
      "d": 43.19027083332185,
      "v": 80
    },
    {
      "midi": 72,
      "hit": false,
      "t": 171711.81381250062,
      "d": 48.27147916666581,
      "v": 90
    },
    {
      "midi": 80,
      "hit": false,
      "t": 171711.81381250062,
      "d": 48.27147916666581,
      "v": 92
    },
    {
      "midi": 68,
      "hit": false,
      "t": 171711.81381250062,
      "d": 55.89329166666721,
      "v": 92
    },
    {
      "midi": 75,
      "hit": false,
      "t": 171719.43562500007,
      "d": 589.4201666666777,
      "v": 82
    },
    {
      "midi": 78,
      "hit": false,
      "t": 171719.43562500007,
      "d": 591.9607708333351,
      "v": 74
    },
    {
      "midi": 75,
      "hit": false,
      "t": 171950.6306041673,
      "d": 195.62652083332068,
      "v": 88
    },
    {
      "midi": 80,
      "hit": false,
      "t": 171950.6306041673,
      "d": 231.19497916667024,
      "v": 94
    },
    {
      "midi": 72,
      "hit": false,
      "t": 171953.17120833395,
      "d": 215.95135416666744,
      "v": 94
    },
    {
      "midi": 68,
      "hit": false,
      "t": 171953.17120833395,
      "d": 248.97920833335957,
      "v": 95
    },
    {
      "midi": 44,
      "hit": false,
      "t": 172438.4266041669,
      "d": 205.78893750000861,
      "v": 73
    },
    {
      "midi": 32,
      "hit": false,
      "t": 172438.4266041669,
      "d": 205.78893750000861,
      "v": 73
    },
    {
      "midi": 75,
      "hit": false,
      "t": 172440.96720833398,
      "d": 86.3805416666728,
      "v": 85
    },
    {
      "midi": 68,
      "hit": false,
      "t": 172440.96720833398,
      "d": 88.92114583333023,
      "v": 87
    },
    {
      "midi": 72,
      "hit": false,
      "t": 172440.96720833398,
      "d": 88.92114583333023,
      "v": 84
    },
    {
      "midi": 78,
      "hit": false,
      "t": 172440.96720833398,
      "d": 91.46174999998766,
      "v": 85
    },
    {
      "midi": 78,
      "hit": false,
      "t": 172448.5890208334,
      "d": 586.8795624999912,
      "v": 76
    },
    {
      "midi": 75,
      "hit": false,
      "t": 172448.5890208334,
      "d": 591.9607708333351,
      "v": 79
    },
    {
      "midi": 66,
      "hit": false,
      "t": 172458.75143749997,
      "d": 569.0953333333309,
      "v": 70
    },
    {
      "midi": 39,
      "hit": false,
      "t": 172684.86520833356,
      "d": 409.0372708333307,
      "v": 77
    },
    {
      "midi": 27,
      "hit": false,
      "t": 172684.86520833356,
      "d": 409.0372708333307,
      "v": 77
    },
    {
      "midi": 68,
      "hit": false,
      "t": 172684.86520833397,
      "d": 282.0070624999935,
      "v": 100
    },
    {
      "midi": 78,
      "hit": false,
      "t": 172684.86520833397,
      "d": 307.4131041666551,
      "v": 97
    },
    {
      "midi": 72,
      "hit": false,
      "t": 172687.40581250063,
      "d": 279.46645833333605,
      "v": 95
    },
    {
      "midi": 75,
      "hit": false,
      "t": 172687.40581250063,
      "d": 279.46645833333605,
      "v": 95
    },
    {
      "midi": 78,
      "hit": false,
      "t": 173149.7957708334,
      "d": 391.25304166667047,
      "v": 74
    },
    {
      "midi": 75,
      "hit": false,
      "t": 173149.7957708334,
      "d": 406.49666666667326,
      "v": 79
    },
    {
      "midi": 44,
      "hit": false,
      "t": 173172.66120833356,
      "d": 350.60337500000605,
      "v": 83
    },
    {
      "midi": 32,
      "hit": false,
      "t": 173172.66120833356,
      "d": 350.60337500000605,
      "v": 83
    },
    {
      "midi": 75,
      "hit": false,
      "t": 173172.66120833397,
      "d": 294.71008333330974,
      "v": 94
    },
    {
      "midi": 72,
      "hit": false,
      "t": 173175.20181250063,
      "d": 203.24833333332208,
      "v": 95
    },
    {
      "midi": 68,
      "hit": false,
      "t": 173175.20181250063,
      "d": 292.1694791666523,
      "v": 100
    },
    {
      "midi": 78,
      "hit": false,
      "t": 173175.20181250063,
      "d": 315.0349166666565,
      "v": 94
    },
    {
      "midi": 66,
      "hit": false,
      "t": 173180.2830208333,
      "d": 330.2785416666593,
      "v": 70
    },
    {
      "midi": 65,
      "hit": false,
      "t": 173622.34814583333,
      "d": 929.8611249999958,
      "v": 101
    },
    {
      "midi": 61,
      "hit": false,
      "t": 173622.34814583333,
      "d": 978.1326041666616,
      "v": 101
    },
    {
      "midi": 73,
      "hit": false,
      "t": 173647.75418750008,
      "d": 668.17889583332,
      "v": 77
    },
    {
      "midi": 77,
      "hit": false,
      "t": 173647.75418750008,
      "d": 708.8285624999844,
      "v": 74
    },
    {
      "midi": 49,
      "hit": false,
      "t": 173660.45720833357,
      "d": 472.5523749999993,
      "v": 77
    },
    {
      "midi": 37,
      "hit": false,
      "t": 173660.45720833357,
      "d": 472.5523749999993,
      "v": 77
    },
    {
      "midi": 68,
      "hit": false,
      "t": 173660.45720833394,
      "d": 71.13691666667,
      "v": 83
    },
    {
      "midi": 73,
      "hit": false,
      "t": 173660.45720833394,
      "d": 81.29933333332883,
      "v": 80
    },
    {
      "midi": 77,
      "hit": false,
      "t": 173662.9978125006,
      "d": 78.7587291666714,
      "v": 75
    },
    {
      "midi": 65,
      "hit": false,
      "t": 173683.3226458333,
      "d": 566.5547291666735,
      "v": 76
    },
    {
      "midi": 68,
      "hit": false,
      "t": 173901.81460416727,
      "d": 289.6288749999949,
      "v": 96
    },
    {
      "midi": 73,
      "hit": false,
      "t": 173901.81460416727,
      "d": 309.95370833331253,
      "v": 97
    },
    {
      "midi": 77,
      "hit": false,
      "t": 173904.35520833393,
      "d": 289.6288749999949,
      "v": 93
    },
    {
      "midi": 49,
      "hit": false,
      "t": 174389.6106041669,
      "d": 218.49195833332487,
      "v": 69
    },
    {
      "midi": 37,
      "hit": false,
      "t": 174389.6106041669,
      "d": 218.49195833332487,
      "v": 69
    },
    {
      "midi": 68,
      "hit": false,
      "t": 174392.15120833393,
      "d": 94.0023541666742,
      "v": 90
    },
    {
      "midi": 73,
      "hit": false,
      "t": 174392.15120833393,
      "d": 94.0023541666742,
      "v": 92
    },
    {
      "midi": 77,
      "hit": false,
      "t": 174392.15120833393,
      "d": 111.78658333333442,
      "v": 88
    },
    {
      "midi": 66,
      "hit": false,
      "t": 174415.01664583333,
      "d": 548.7705000000133,
      "v": 79
    },
    {
      "midi": 75,
      "hit": false,
      "t": 174417.55725000007,
      "d": 607.2043958333379,
      "v": 79
    },
    {
      "midi": 78,
      "hit": false,
      "t": 174417.55725000007,
      "d": 663.0976875000051,
      "v": 73
    },
    {
      "midi": 66,
      "hit": false,
      "t": 174597.94014583333,
      "d": 376.0094166666386,
      "v": 106
    },
    {
      "midi": 63,
      "hit": false,
      "t": 174603.02135416665,
      "d": 383.6312291666691,
      "v": 98
    },
    {
      "midi": 44,
      "hit": false,
      "t": 174636.04920833354,
      "d": 386.1718333333265,
      "v": 74
    },
    {
      "midi": 32,
      "hit": false,
      "t": 174636.04920833354,
      "d": 386.1718333333265,
      "v": 74
    },
    {
      "midi": 68,
      "hit": false,
      "t": 174636.04920833395,
      "d": 307.4131041666551,
      "v": 100
    },
    {
      "midi": 75,
      "hit": false,
      "t": 174636.04920833395,
      "d": 327.73793750000186,
      "v": 94
    },
    {
      "midi": 72,
      "hit": false,
      "t": 174638.5898125006,
      "d": 304.8724999999977,
      "v": 94
    },
    {
      "midi": 78,
      "hit": false,
      "t": 174638.5898125006,
      "d": 325.19733333334443,
      "v": 94
    },
    {
      "midi": 77,
      "hit": false,
      "t": 175123.8452083334,
      "d": 378.5500208333251,
      "v": 72
    },
    {
      "midi": 80,
      "hit": false,
      "t": 175123.8452083334,
      "d": 378.5500208333251,
      "v": 62
    },
    {
      "midi": 49,
      "hit": false,
      "t": 175123.84520833354,
      "d": 391.25304166667047,
      "v": 77
    },
    {
      "midi": 37,
      "hit": false,
      "t": 175123.84520833354,
      "d": 391.25304166667047,
      "v": 77
    },
    {
      "midi": 73,
      "hit": false,
      "t": 175126.3858125006,
      "d": 264.22283333333326,
      "v": 97
    },
    {
      "midi": 77,
      "hit": false,
      "t": 175126.3858125006,
      "d": 279.46645833333605,
      "v": 92
    },
    {
      "midi": 68,
      "hit": false,
      "t": 175126.3858125006,
      "d": 299.7912916666828,
      "v": 100
    },
    {
      "midi": 68,
      "hit": false,
      "t": 175128.92641666668,
      "d": 309.95370833334164,
      "v": 78
    },
    {
      "midi": 65,
      "hit": false,
      "t": 175131.4670208333,
      "d": 297.2506874999963,
      "v": 103
    },
    {
      "midi": 68,
      "hit": false,
      "t": 175131.4670208333,
      "d": 297.2506874999963,
      "v": 101
    },
    {
      "midi": 70,
      "hit": false,
      "t": 175604.01939583337,
      "d": 589.4201666666777,
      "v": 80
    },
    {
      "midi": 78,
      "hit": false,
      "t": 175611.6412083334,
      "d": 589.4201666666777,
      "v": 71
    },
    {
      "midi": 82,
      "hit": false,
      "t": 175611.6412083334,
      "d": 589.4201666666777,
      "v": 86
    },
    {
      "midi": 61,
      "hit": false,
      "t": 175614.18181249997,
      "d": 5571.544937500003,
      "v": 97
    },
    {
      "midi": 58,
      "hit": false,
      "t": 175614.18181249997,
      "d": 5574.08554166666,
      "v": 92
    },
    {
      "midi": 66,
      "hit": false,
      "t": 175614.18181249997,
      "d": 5657.925479166646,
      "v": 95
    },
    {
      "midi": 42,
      "hit": false,
      "t": 175616.7224166669,
      "d": 536.0674791666679,
      "v": 80
    },
    {
      "midi": 30,
      "hit": false,
      "t": 175616.7224166669,
      "d": 536.0674791666679,
      "v": 80
    },
    {
      "midi": 73,
      "hit": false,
      "t": 175852.99860416728,
      "d": 299.7912916666537,
      "v": 89
    },
    {
      "midi": 70,
      "hit": false,
      "t": 175855.53920833394,
      "d": 282.0070624999935,
      "v": 87
    },
    {
      "midi": 78,
      "hit": false,
      "t": 175855.53920833394,
      "d": 322.6567291666579,
      "v": 79
    },
    {
      "midi": 42,
      "hit": false,
      "t": 176340.79460416688,
      "d": 254.06041666667443,
      "v": 69
    },
    {
      "midi": 30,
      "hit": false,
      "t": 176340.79460416688,
      "d": 254.06041666667443,
      "v": 69
    },
    {
      "midi": 70,
      "hit": false,
      "t": 176343.33520833394,
      "d": 78.7587291666714,
      "v": 84
    },
    {
      "midi": 73,
      "hit": false,
      "t": 176343.33520833394,
      "d": 78.7587291666714,
      "v": 88
    },
    {
      "midi": 78,
      "hit": false,
      "t": 176343.33520833394,
      "d": 99.08356250001816,
      "v": 85
    },
    {
      "midi": 78,
      "hit": false,
      "t": 176350.95702083342,
      "d": 520.8238541666651,
      "v": 72
    },
    {
      "midi": 82,
      "hit": false,
      "t": 176350.95702083342,
      "d": 551.3111041666707,
      "v": 78
    },
    {
      "midi": 70,
      "hit": false,
      "t": 176361.11943750005,
      "d": 528.4456666666665,
      "v": 76
    },
    {
      "midi": 49,
      "hit": false,
      "t": 176587.23320833355,
      "d": 370.9282083333237,
      "v": 68
    },
    {
      "midi": 37,
      "hit": false,
      "t": 176587.23320833355,
      "d": 370.9282083333237,
      "v": 68
    },
    {
      "midi": 73,
      "hit": false,
      "t": 176587.23320833396,
      "d": 78.7587291666714,
      "v": 89
    },
    {
      "midi": 70,
      "hit": false,
      "t": 176587.23320833396,
      "d": 94.0023541666742,
      "v": 86
    },
    {
      "midi": 78,
      "hit": false,
      "t": 176589.7738125006,
      "d": 96.54295833336073,
      "v": 87
    },
    {
      "midi": 70,
      "hit": false,
      "t": 176828.59060416732,
      "d": 299.7912916666537,
      "v": 86
    },
    {
      "midi": 66,
      "hit": false,
      "t": 176828.59060416732,
      "d": 317.57552083331393,
      "v": 89
    },
    {
      "midi": 73,
      "hit": false,
      "t": 176831.13120833397,
      "d": 315.0349166666565,
      "v": 90
    },
    {
      "midi": 78,
      "hit": false,
      "t": 176831.13120833397,
      "d": 315.0349166666565,
      "v": 85
    },
    {
      "midi": 82,
      "hit": false,
      "t": 177052.16377083343,
      "d": 203.24833333332208,
      "v": 81
    },
    {
      "midi": 78,
      "hit": false,
      "t": 177067.40739583343,
      "d": 188.0047083333193,
      "v": 71
    },
    {
      "midi": 49,
      "hit": false,
      "t": 177075.02920833355,
      "d": 444.60572916668025,
      "v": 64
    },
    {
      "midi": 37,
      "hit": false,
      "t": 177075.02920833355,
      "d": 444.60572916668025,
      "v": 64
    },
    {
      "midi": 70,
      "hit": false,
      "t": 177077.56981250003,
      "d": 309.95370833334164,
      "v": 76
    },
    {
      "midi": 73,
      "hit": false,
      "t": 177316.3866041673,
      "d": 88.92114583333023,
      "v": 87
    },
    {
      "midi": 70,
      "hit": false,
      "t": 177318.92720833395,
      "d": 86.3805416666728,
      "v": 81
    },
    {
      "midi": 66,
      "hit": false,
      "t": 177318.92720833395,
      "d": 91.46175000001676,
      "v": 80
    },
    {
      "midi": 78,
      "hit": false,
      "t": 177318.92720833395,
      "d": 91.46175000001676,
      "v": 80
    },
    {
      "midi": 82,
      "hit": false,
      "t": 177562.8252083334,
      "d": 2764.177333333326,
      "v": 86
    },
    {
      "midi": 85,
      "hit": false,
      "t": 177562.8252083334,
      "d": 2807.3676041666477,
      "v": 71
    },
    {
      "midi": 42,
      "hit": false,
      "t": 177562.82520833355,
      "d": 538.6080833333253,
      "v": 78
    },
    {
      "midi": 30,
      "hit": false,
      "t": 177562.82520833355,
      "d": 538.6080833333253,
      "v": 78
    },
    {
      "midi": 66,
      "hit": false,
      "t": 177565.36581250062,
      "d": 96.54295833333163,
      "v": 78
    },
    {
      "midi": 78,
      "hit": false,
      "t": 177565.36581250062,
      "d": 96.54295833333163,
      "v": 77
    },
    {
      "midi": 73,
      "hit": false,
      "t": 177567.90641666672,
      "d": 2240.8128750000033,
      "v": 84
    },
    {
      "midi": 70,
      "hit": false,
      "t": 177567.90641666728,
      "d": 88.92114583333023,
      "v": 77
    },
    {
      "midi": 73,
      "hit": false,
      "t": 177567.90641666728,
      "d": 88.92114583333023,
      "v": 86
    },
    {
      "midi": 78,
      "hit": false,
      "t": 177804.1826041673,
      "d": 332.8191458333167,
      "v": 87
    },
    {
      "midi": 66,
      "hit": false,
      "t": 177804.1826041673,
      "d": 335.35974999997416,
      "v": 91
    },
    {
      "midi": 70,
      "hit": false,
      "t": 177806.72320833395,
      "d": 309.95370833334164,
      "v": 90
    },
    {
      "midi": 73,
      "hit": false,
      "t": 177806.72320833395,
      "d": 312.49431249999907,
      "v": 91
    },
    {
      "midi": 42,
      "hit": false,
      "t": 178291.97860416688,
      "d": 279.46645833333605,
      "v": 71
    },
    {
      "midi": 30,
      "hit": false,
      "t": 178291.97860416688,
      "d": 279.46645833333605,
      "v": 71
    },
    {
      "midi": 70,
      "hit": false,
      "t": 178294.51920833392,
      "d": 94.0023541666742,
      "v": 81
    },
    {
      "midi": 73,
      "hit": false,
      "t": 178294.51920833392,
      "d": 94.0023541666742,
      "v": 87
    },
    {
      "midi": 78,
      "hit": false,
      "t": 178294.51920833392,
      "d": 94.0023541666742,
      "v": 80
    },
    {
      "midi": 66,
      "hit": false,
      "t": 178294.51920833392,
      "d": 99.08356250001816,
      "v": 80
    },
    {
      "midi": 49,
      "hit": false,
      "t": 178538.41720833356,
      "d": 566.5547291666735,
      "v": 66
    },
    {
      "midi": 37,
      "hit": false,
      "t": 178538.41720833356,
      "d": 566.5547291666735,
      "v": 66
    },
    {
      "midi": 70,
      "hit": false,
      "t": 178538.41720833394,
      "d": 81.29933333332883,
      "v": 75
    },
    {
      "midi": 73,
      "hit": false,
      "t": 178538.41720833394,
      "d": 81.29933333332883,
      "v": 79
    },
    {
      "midi": 78,
      "hit": false,
      "t": 178540.9578125006,
      "d": 81.29933333332883,
      "v": 77
    },
    {
      "midi": 66,
      "hit": false,
      "t": 178540.9578125006,
      "d": 104.16477083333302,
      "v": 79
    },
    {
      "midi": 66,
      "hit": false,
      "t": 178779.77460416727,
      "d": 327.73793750000186,
      "v": 87
    },
    {
      "midi": 70,
      "hit": false,
      "t": 178782.31520833392,
      "d": 302.33189583334024,
      "v": 81
    },
    {
      "midi": 73,
      "hit": false,
      "t": 178782.31520833392,
      "d": 325.19733333334443,
      "v": 87
    },
    {
      "midi": 78,
      "hit": false,
      "t": 178782.31520833392,
      "d": 327.73793750000186,
      "v": 83
    },
    {
      "midi": 49,
      "hit": false,
      "t": 179267.5706041669,
      "d": 264.22283333333326,
      "v": 42
    },
    {
      "midi": 37,
      "hit": false,
      "t": 179267.5706041669,
      "d": 264.22283333333326,
      "v": 42
    },
    {
      "midi": 73,
      "hit": false,
      "t": 179267.57060416727,
      "d": 88.92114583333023,
      "v": 75
    },
    {
      "midi": 70,
      "hit": false,
      "t": 179270.11120833392,
      "d": 88.92114583333023,
      "v": 69
    },
    {
      "midi": 78,
      "hit": false,
      "t": 179270.11120833392,
      "d": 94.0023541666742,
      "v": 71
    },
    {
      "midi": 66,
      "hit": false,
      "t": 179270.11120833392,
      "d": 111.78658333333442,
      "v": 78
    },
    {
      "midi": 42,
      "hit": false,
      "t": 179514.00920833356,
      "d": 553.8517083333281,
      "v": 74
    },
    {
      "midi": 30,
      "hit": false,
      "t": 179514.00920833356,
      "d": 553.8517083333281,
      "v": 74
    },
    {
      "midi": 66,
      "hit": false,
      "t": 179514.00920833394,
      "d": 88.92114583333023,
      "v": 73
    },
    {
      "midi": 73,
      "hit": false,
      "t": 179514.00920833394,
      "d": 94.0023541666742,
      "v": 71
    },
    {
      "midi": 70,
      "hit": false,
      "t": 179516.5498125006,
      "d": 86.3805416666728,
      "v": 66
    },
    {
      "midi": 78,
      "hit": false,
      "t": 179516.5498125006,
      "d": 86.3805416666728,
      "v": 71
    },
    {
      "midi": 66,
      "hit": false,
      "t": 179755.36660416727,
      "d": 332.8191458333167,
      "v": 89
    },
    {
      "midi": 70,
      "hit": false,
      "t": 179757.90720833393,
      "d": 332.8191458333167,
      "v": 79
    },
    {
      "midi": 73,
      "hit": false,
      "t": 179757.90720833393,
      "d": 332.8191458333167,
      "v": 86
    },
    {
      "midi": 78,
      "hit": false,
      "t": 179757.90720833393,
      "d": 332.8191458333167,
      "v": 82
    },
    {
      "midi": 42,
      "hit": false,
      "t": 180243.1626041669,
      "d": 236.2761875000142,
      "v": 71
    },
    {
      "midi": 30,
      "hit": false,
      "t": 180243.1626041669,
      "d": 236.2761875000142,
      "v": 71
    },
    {
      "midi": 78,
      "hit": false,
      "t": 180245.7032083339,
      "d": 91.46174999998766,
      "v": 80
    },
    {
      "midi": 66,
      "hit": false,
      "t": 180245.7032083339,
      "d": 99.08356249998906,
      "v": 80
    },
    {
      "midi": 70,
      "hit": false,
      "t": 180245.7032083339,
      "d": 99.08356249998906,
      "v": 77
    },
    {
      "midi": 73,
      "hit": false,
      "t": 180245.7032083339,
      "d": 99.08356249998906,
      "v": 87
    },
    {
      "midi": 80,
      "hit": false,
      "t": 180476.89818750005,
      "d": 398.87485416667187,
      "v": 95
    },
    {
      "midi": 84,
      "hit": false,
      "t": 180476.89818750005,
      "d": 487.7960000000021,
      "v": 99
    },
    {
      "midi": 72,
      "hit": false,
      "t": 180489.6012083334,
      "d": 350.60337500000605,
      "v": 83
    },
    {
      "midi": 49,
      "hit": false,
      "t": 180489.60120833357,
      "d": 475.09297916665673,
      "v": 76
    },
    {
      "midi": 37,
      "hit": false,
      "t": 180489.60120833357,
      "d": 475.09297916665673,
      "v": 76
    },
    {
      "midi": 70,
      "hit": false,
      "t": 180492.14181250054,
      "d": 251.5198124999879,
      "v": 77
    },
    {
      "midi": 78,
      "hit": false,
      "t": 180492.14181250054,
      "d": 266.7634374999907,
      "v": 82
    },
    {
      "midi": 73,
      "hit": false,
      "t": 180492.14181250054,
      "d": 274.3852499999921,
      "v": 86
    },
    {
      "midi": 66,
      "hit": false,
      "t": 180492.14181250054,
      "d": 320.11612500000047,
      "v": 83
    },
    {
      "midi": 42,
      "hit": false,
      "t": 180977.39720833357,
      "d": 411.5778749999881,
      "v": 77
    },
    {
      "midi": 30,
      "hit": false,
      "t": 180977.39720833357,
      "d": 411.5778749999881,
      "v": 77
    },
    {
      "midi": 66,
      "hit": false,
      "t": 180977.3972083339,
      "d": 332.8191458333167,
      "v": 87
    },
    {
      "midi": 78,
      "hit": false,
      "t": 180977.3972083339,
      "d": 332.8191458333167,
      "v": 85
    },
    {
      "midi": 70,
      "hit": false,
      "t": 180979.93781250055,
      "d": 279.46645833333605,
      "v": 85
    },
    {
      "midi": 73,
      "hit": false,
      "t": 180979.93781250055,
      "d": 279.46645833333605,
      "v": 90
    },
    {
      "midi": 70,
      "hit": false,
      "t": 180987.55962500005,
      "d": 302.33189583334024,
      "v": 76
    },
    {
      "midi": 82,
      "hit": false,
      "t": 180995.18143750005,
      "d": 378.5500208333251,
      "v": 82
    },
    {
      "midi": 78,
      "hit": false,
      "t": 180995.18143750005,
      "d": 398.87485416667187,
      "v": 76
    },
    {
      "midi": 65,
      "hit": false,
      "t": 181447.40897916662,
      "d": 1681.8799583333312,
      "v": 91
    },
    {
      "midi": 56,
      "hit": false,
      "t": 181447.40897916662,
      "d": 1742.8544583333423,
      "v": 93
    },
    {
      "midi": 61,
      "hit": false,
      "t": 181449.94958333328,
      "d": 1684.4205625000177,
      "v": 97
    },
    {
      "midi": 68,
      "hit": false,
      "t": 181465.1932083334,
      "d": 820.6151458333479,
      "v": 78
    },
    {
      "midi": 49,
      "hit": false,
      "t": 181465.19320833357,
      "d": 525.9050625000091,
      "v": 79
    },
    {
      "midi": 37,
      "hit": false,
      "t": 181465.19320833357,
      "d": 525.9050625000091,
      "v": 79
    },
    {
      "midi": 73,
      "hit": false,
      "t": 181465.19320833386,
      "d": 78.7587291666714,
      "v": 86
    },
    {
      "midi": 68,
      "hit": false,
      "t": 181467.73381250052,
      "d": 76.21812500001397,
      "v": 88
    },
    {
      "midi": 77,
      "hit": false,
      "t": 181467.73381250052,
      "d": 91.46175000001676,
      "v": 84
    },
    {
      "midi": 77,
      "hit": false,
      "t": 181472.8150208334,
      "d": 823.1557500000054,
      "v": 84
    },
    {
      "midi": 80,
      "hit": false,
      "t": 181472.8150208334,
      "d": 823.1557500000054,
      "v": 73
    },
    {
      "midi": 68,
      "hit": false,
      "t": 181706.5506041672,
      "d": 304.8724999999977,
      "v": 94
    },
    {
      "midi": 77,
      "hit": false,
      "t": 181706.5506041672,
      "d": 304.8724999999977,
      "v": 89
    },
    {
      "midi": 73,
      "hit": false,
      "t": 181709.09120833385,
      "d": 325.19733333334443,
      "v": 96
    },
    {
      "midi": 49,
      "hit": false,
      "t": 182194.3466041669,
      "d": 246.43860416667303,
      "v": 63
    },
    {
      "midi": 37,
      "hit": false,
      "t": 182194.3466041669,
      "d": 246.43860416667303,
      "v": 63
    },
    {
      "midi": 73,
      "hit": false,
      "t": 182196.88720833385,
      "d": 111.78658333333442,
      "v": 89
    },
    {
      "midi": 77,
      "hit": false,
      "t": 182196.88720833385,
      "d": 111.78658333333442,
      "v": 84
    },
    {
      "midi": 68,
      "hit": false,
      "t": 182196.88720833385,
      "d": 119.40839583333582,
      "v": 87
    },
    {
      "midi": 73,
      "hit": false,
      "t": 182417.9197708334,
      "d": 386.1718333333265,
      "v": 83
    },
    {
      "midi": 77,
      "hit": false,
      "t": 182417.9197708334,
      "d": 398.87485416667187,
      "v": 88
    },
    {
      "midi": 65,
      "hit": false,
      "t": 182430.62279166674,
      "d": 337.9003541666607,
      "v": 80
    },
    {
      "midi": 44,
      "hit": false,
      "t": 182440.78520833357,
      "d": 505.5802291666623,
      "v": 82
    },
    {
      "midi": 32,
      "hit": false,
      "t": 182440.78520833357,
      "d": 505.5802291666623,
      "v": 82
    },
    {
      "midi": 68,
      "hit": false,
      "t": 182682.1426041672,
      "d": 292.1694791666814,
      "v": 92
    },
    {
      "midi": 73,
      "hit": false,
      "t": 182682.1426041672,
      "d": 292.1694791666814,
      "v": 94
    },
    {
      "midi": 77,
      "hit": false,
      "t": 182684.68320833385,
      "d": 269.3040416666772,
      "v": 87
    },
    {
      "midi": 68,
      "hit": false,
      "t": 182915.87818750006,
      "d": 355.6845833333209,
      "v": 83
    },
    {
      "midi": 49,
      "hit": false,
      "t": 182928.58120833358,
      "d": 447.1463333333377,
      "v": 75
    },
    {
      "midi": 37,
      "hit": false,
      "t": 182928.58120833358,
      "d": 447.1463333333377,
      "v": 75
    },
    {
      "midi": 77,
      "hit": false,
      "t": 182941.28422916675,
      "d": 289.628875000024,
      "v": 82
    },
    {
      "midi": 80,
      "hit": false,
      "t": 182946.3654375001,
      "d": 340.4409583333472,
      "v": 82
    },
    {
      "midi": 68,
      "hit": false,
      "t": 183169.9386041672,
      "d": 106.70537499999045,
      "v": 85
    },
    {
      "midi": 73,
      "hit": false,
      "t": 183172.47920833385,
      "d": 81.29933333332883,
      "v": 83
    },
    {
      "midi": 77,
      "hit": false,
      "t": 183172.47920833385,
      "d": 106.70537499999045,
      "v": 84
    },
    {
      "midi": 44,
      "hit": false,
      "t": 183416.37720833358,
      "d": 497.9584166666609,
      "v": 83
    },
    {
      "midi": 32,
      "hit": false,
      "t": 183416.37720833358,
      "d": 497.9584166666609,
      "v": 83
    },
    {
      "midi": 72,
      "hit": false,
      "t": 183416.37720833384,
      "d": 78.7587291666714,
      "v": 82
    },
    {
      "midi": 66,
      "hit": false,
      "t": 183418.91781250003,
      "d": 551.3111041666707,
      "v": 77
    },
    {
      "midi": 68,
      "hit": false,
      "t": 183418.9178125005,
      "d": 76.21812500001397,
      "v": 82
    },
    {
      "midi": 75,
      "hit": false,
      "t": 183418.9178125005,
      "d": 76.21812500001397,
      "v": 82
    },
    {
      "midi": 78,
      "hit": false,
      "t": 183421.45841666678,
      "d": 584.3389583333046,
      "v": 73
    },
    {
      "midi": 70,
      "hit": false,
      "t": 183423.99902083343,
      "d": 538.6080833333253,
      "v": 91
    },
    {
      "midi": 58,
      "hit": false,
      "t": 183518.00137499996,
      "d": 782.5060833333118,
      "v": 86
    },
    {
      "midi": 66,
      "hit": false,
      "t": 183520.54197916662,
      "d": 843.480583333323,
      "v": 95
    },
    {
      "midi": 72,
      "hit": false,
      "t": 183657.73460416717,
      "d": 292.1694791666523,
      "v": 98
    },
    {
      "midi": 75,
      "hit": false,
      "t": 183660.27520833383,
      "d": 261.6822291666758,
      "v": 96
    },
    {
      "midi": 68,
      "hit": false,
      "t": 183660.27520833383,
      "d": 292.1694791666523,
      "v": 100
    },
    {
      "midi": 66,
      "hit": false,
      "t": 184135.36818750005,
      "d": 144.81443749999744,
      "v": 79
    },
    {
      "midi": 70,
      "hit": false,
      "t": 184137.90879166676,
      "d": 152.43624999999884,
      "v": 86
    },
    {
      "midi": 78,
      "hit": false,
      "t": 184137.90879166676,
      "d": 152.43624999999884,
      "v": 82
    },
    {
      "midi": 44,
      "hit": false,
      "t": 184145.5306041669,
      "d": 246.43860416667303,
      "v": 83
    },
    {
      "midi": 32,
      "hit": false,
      "t": 184145.5306041669,
      "d": 246.43860416667303,
      "v": 83
    },
    {
      "midi": 75,
      "hit": false,
      "t": 184148.0712083338,
      "d": 86.3805416666728,
      "v": 89
    },
    {
      "midi": 68,
      "hit": false,
      "t": 184148.0712083338,
      "d": 94.0023541666742,
      "v": 95
    },
    {
      "midi": 72,
      "hit": false,
      "t": 184148.0712083338,
      "d": 94.0023541666742,
      "v": 96
    },
    {
      "midi": 80,
      "hit": false,
      "t": 184148.0712083338,
      "d": 109.24597916667699,
      "v": 100
    },
    {
      "midi": 65,
      "hit": false,
      "t": 184376.7255833333,
      "d": 419.1996874999895,
      "v": 101
    },
    {
      "midi": 56,
      "hit": false,
      "t": 184379.26618749995,
      "d": 370.9282083333237,
      "v": 111
    },
    {
      "midi": 65,
      "hit": false,
      "t": 184391.96920833338,
      "d": 368.3876041666663,
      "v": 80
    },
    {
      "midi": 46,
      "hit": false,
      "t": 184391.96920833358,
      "d": 368.3876041666663,
      "v": 82
    },
    {
      "midi": 34,
      "hit": false,
      "t": 184391.96920833358,
      "d": 368.3876041666663,
      "v": 82
    },
    {
      "midi": 68,
      "hit": false,
      "t": 184399.59102083344,
      "d": 325.19733333334443,
      "v": 109
    },
    {
      "midi": 77,
      "hit": false,
      "t": 184399.59102083344,
      "d": 355.68458333335,
      "v": 82
    },
    {
      "midi": 68,
      "hit": false,
      "t": 184633.32660416714,
      "d": 287.08827083333745,
      "v": 95
    },
    {
      "midi": 75,
      "hit": false,
      "t": 184635.8672083338,
      "d": 261.6822291666758,
      "v": 87
    },
    {
      "midi": 72,
      "hit": false,
      "t": 184635.8672083338,
      "d": 269.3040416666772,
      "v": 93
    },
    {
      "midi": 80,
      "hit": false,
      "t": 184635.8672083338,
      "d": 284.54766666668,
      "v": 96
    },
    {
      "midi": 66,
      "hit": false,
      "t": 184872.14339583347,
      "d": 289.6288749999949,
      "v": 87
    },
    {
      "midi": 75,
      "hit": false,
      "t": 184872.14339583347,
      "d": 363.3063958333223,
      "v": 86
    },
    {
      "midi": 63,
      "hit": false,
      "t": 184874.68399999995,
      "d": 261.6822291666758,
      "v": 101
    },
    {
      "midi": 54,
      "hit": false,
      "t": 184874.68399999995,
      "d": 274.3852500000212,
      "v": 113
    },
    {
      "midi": 48,
      "hit": false,
      "t": 184879.76520833359,
      "d": 353.1439791666635,
      "v": 88
    },
    {
      "midi": 36,
      "hit": false,
      "t": 184879.76520833359,
      "d": 353.1439791666635,
      "v": 88
    },
    {
      "midi": 63,
      "hit": false,
      "t": 184902.6306458334,
      "d": 274.3852499999921,
      "v": 91
    },
    {
      "midi": 72,
      "hit": false,
      "t": 185121.12260416715,
      "d": 81.29933333329973,
      "v": 89
    },
    {
      "midi": 68,
      "hit": false,
      "t": 185121.12260416715,
      "d": 109.24597916661878,
      "v": 89
    },
    {
      "midi": 75,
      "hit": false,
      "t": 185123.6632083338,
      "d": 43.19027083332185,
      "v": 83
    },
    {
      "midi": 80,
      "hit": false,
      "t": 185123.6632083338,
      "d": 81.29933333329973,
      "v": 94
    },
    {
      "midi": 61,
      "hit": false,
      "t": 185354.85818749998,
      "d": 4974.5029583333235,
      "v": 92
    },
    {
      "midi": 56,
      "hit": false,
      "t": 185354.85818749998,
      "d": 5002.449604166672,
      "v": 95
    },
    {
      "midi": 73,
      "hit": false,
      "t": 185354.85818750013,
      "d": 1661.5551250000135,
      "v": 73
    },
    {
      "midi": 53,
      "hit": false,
      "t": 185357.39879166664,
      "d": 4987.205979166669,
      "v": 93
    },
    {
      "midi": 49,
      "hit": false,
      "t": 185367.5612083336,
      "d": 640.2322500000009,
      "v": 85
    },
    {
      "midi": 37,
      "hit": false,
      "t": 185367.5612083336,
      "d": 640.2322500000009,
      "v": 85
    },
    {
      "midi": 68,
      "hit": false,
      "t": 185367.56120833376,
      "d": 66.05570833332604,
      "v": 81
    },
    {
      "midi": 73,
      "hit": false,
      "t": 185367.56120833376,
      "d": 99.08356249998906,
      "v": 80
    },
    {
      "midi": 77,
      "hit": false,
      "t": 185370.10181250042,
      "d": 66.05570833332604,
      "v": 77
    },
    {
      "midi": 65,
      "hit": false,
      "t": 185375.18302083347,
      "d": 1623.4460625000065,
      "v": 81
    },
    {
      "midi": 61,
      "hit": false,
      "t": 185395.5078541667,
      "d": 1453.2255833333475,
      "v": 61
    },
    {
      "midi": 68,
      "hit": false,
      "t": 185608.9186041671,
      "d": 292.1694791666814,
      "v": 98
    },
    {
      "midi": 77,
      "hit": false,
      "t": 185608.9186041671,
      "d": 294.71008333333884,
      "v": 93
    },
    {
      "midi": 73,
      "hit": false,
      "t": 185611.45920833375,
      "d": 284.54766666668,
      "v": 99
    },
    {
      "midi": 49,
      "hit": false,
      "t": 186096.71460416692,
      "d": 243.8979999999865,
      "v": 71
    },
    {
      "midi": 37,
      "hit": false,
      "t": 186096.71460416692,
      "d": 243.8979999999865,
      "v": 71
    },
    {
      "midi": 73,
      "hit": false,
      "t": 186099.25520833375,
      "d": 66.05570833332604,
      "v": 88
    },
    {
      "midi": 77,
      "hit": false,
      "t": 186099.25520833375,
      "d": 68.59631249998347,
      "v": 82
    },
    {
      "midi": 68,
      "hit": false,
      "t": 186099.25520833375,
      "d": 86.3805416666437,
      "v": 88
    },
    {
      "midi": 44,
      "hit": false,
      "t": 186343.15320833356,
      "d": 525.9050625000091,
      "v": 76
    },
    {
      "midi": 32,
      "hit": false,
      "t": 186343.15320833356,
      "d": 525.9050625000091,
      "v": 76
    },
    {
      "midi": 68,
      "hit": false,
      "t": 186343.15320833374,
      "d": 86.3805416666437,
      "v": 85
    },
    {
      "midi": 77,
      "hit": false,
      "t": 186345.6938125004,
      "d": 58.43389583332464,
      "v": 82
    },
    {
      "midi": 73,
      "hit": false,
      "t": 186345.6938125004,
      "d": 68.59631249998347,
      "v": 87
    },
    {
      "midi": 68,
      "hit": false,
      "t": 186584.51060416704,
      "d": 269.3040416666772,
      "v": 98
    },
    {
      "midi": 73,
      "hit": false,
      "t": 186587.0512083337,
      "d": 261.6822291666758,
      "v": 97
    },
    {
      "midi": 77,
      "hit": false,
      "t": 186587.0512083337,
      "d": 261.6822291666758,
      "v": 94
    },
    {
      "midi": 44,
      "hit": false,
      "t": 187072.3066041669,
      "d": 208.32954166666605,
      "v": 71
    },
    {
      "midi": 32,
      "hit": false,
      "t": 187072.3066041669,
      "d": 208.32954166666605,
      "v": 71
    },
    {
      "midi": 68,
      "hit": false,
      "t": 187074.84720833373,
      "d": 88.92114583333023,
      "v": 94
    },
    {
      "midi": 77,
      "hit": false,
      "t": 187074.84720833373,
      "d": 88.92114583333023,
      "v": 88
    },
    {
      "midi": 73,
      "hit": false,
      "t": 187074.84720833373,
      "d": 91.46174999998766,
      "v": 88
    },
    {
      "midi": 49,
      "hit": false,
      "t": 187318.74520833357,
      "d": 518.2832500000077,
      "v": 93
    },
    {
      "midi": 37,
      "hit": false,
      "t": 187318.74520833357,
      "d": 518.2832500000077,
      "v": 93
    },
    {
      "midi": 68,
      "hit": false,
      "t": 187318.7452083337,
      "d": 104.16477083330392,
      "v": 86
    },
    {
      "midi": 77,
      "hit": false,
      "t": 187318.7452083337,
      "d": 111.78658333330532,
      "v": 87
    },
    {
      "midi": 61,
      "hit": false,
      "t": 187321.28581250037,
      "d": 81.29933333332883,
      "v": 90
    },
    {
      "midi": 73,
      "hit": false,
      "t": 187321.28581250037,
      "d": 83.83993749998626,
      "v": 84
    },
    {
      "midi": 65,
      "hit": false,
      "t": 187326.3670208335,
      "d": 546.2298958332976,
      "v": 115
    },
    {
      "midi": 68,
      "hit": false,
      "t": 187560.102604167,
      "d": 304.87249999996857,
      "v": 90
    },
    {
      "midi": 77,
      "hit": false,
      "t": 187560.102604167,
      "d": 325.1973333333153,
      "v": 94
    },
    {
      "midi": 73,
      "hit": false,
      "t": 187562.64320833367,
      "d": 289.6288749999949,
      "v": 89
    },
    {
      "midi": 61,
      "hit": false,
      "t": 187562.64320833367,
      "d": 292.1694791666523,
      "v": 93
    },
    {
      "midi": 73,
      "hit": false,
      "t": 187824.32543750014,
      "d": 304.8724999999977,
      "v": 86
    },
    {
      "midi": 49,
      "hit": false,
      "t": 188047.8986041669,
      "d": 226.11377083332627,
      "v": 82
    },
    {
      "midi": 37,
      "hit": false,
      "t": 188047.8986041669,
      "d": 226.11377083332627,
      "v": 82
    },
    {
      "midi": 61,
      "hit": false,
      "t": 188050.43920833367,
      "d": 368.3876041666663,
      "v": 88
    },
    {
      "midi": 68,
      "hit": false,
      "t": 188050.43920833367,
      "d": 368.3876041666663,
      "v": 80
    },
    {
      "midi": 73,
      "hit": false,
      "t": 188050.43920833367,
      "d": 368.3876041666663,
      "v": 85
    },
    {
      "midi": 77,
      "hit": false,
      "t": 188050.43920833367,
      "d": 368.3876041666663,
      "v": 86
    },
    {
      "midi": 68,
      "hit": false,
      "t": 188058.06102083347,
      "d": 287.08827083333745,
      "v": 75
    },
    {
      "midi": 68,
      "hit": false,
      "t": 188294.33720833337,
      "d": 424.2808958333335,
      "v": 98
    },
    {
      "midi": 44,
      "hit": false,
      "t": 188294.33720833357,
      "d": 297.2506874999963,
      "v": 82
    },
    {
      "midi": 32,
      "hit": false,
      "t": 188294.33720833357,
      "d": 297.2506874999963,
      "v": 82
    },
    {
      "midi": 77,
      "hit": false,
      "t": 188296.87781250002,
      "d": 421.74029166667606,
      "v": 103
    },
    {
      "midi": 70,
      "hit": false,
      "t": 188301.95902083348,
      "d": 233.73558333332767,
      "v": 80
    },
    {
      "midi": 61,
      "hit": false,
      "t": 188538.23520833367,
      "d": 297.2506874999963,
      "v": 87
    },
    {
      "midi": 73,
      "hit": false,
      "t": 188538.23520833367,
      "d": 297.2506874999963,
      "v": 93
    },
    {
      "midi": 68,
      "hit": false,
      "t": 188538.23520833367,
      "d": 309.95370833334164,
      "v": 93
    },
    {
      "midi": 77,
      "hit": false,
      "t": 188538.23520833367,
      "d": 317.57552083334303,
      "v": 97
    },
    {
      "midi": 63,
      "hit": false,
      "t": 188550.93822916682,
      "d": 276.9258541666495,
      "v": 83
    },
    {
      "midi": 44,
      "hit": false,
      "t": 188782.13320833357,
      "d": 274.3852499999921,
      "v": 75
    },
    {
      "midi": 32,
      "hit": false,
      "t": 188782.13320833357,
      "d": 274.3852499999921,
      "v": 75
    },
    {
      "midi": 66,
      "hit": false,
      "t": 188784.67381250003,
      "d": 401.4154583333293,
      "v": 113
    },
    {
      "midi": 75,
      "hit": false,
      "t": 188784.67381250003,
      "d": 421.74029166667606,
      "v": 103
    },
    {
      "midi": 65,
      "hit": false,
      "t": 188802.4580416668,
      "d": 243.8979999999865,
      "v": 79
    },
    {
      "midi": 61,
      "hit": false,
      "t": 189018.40939583347,
      "d": 129.57081249999464,
      "v": 81
    },
    {
      "midi": 46,
      "hit": false,
      "t": 189026.03120833356,
      "d": 251.519812500017,
      "v": 77
    },
    {
      "midi": 34,
      "hit": false,
      "t": 189026.03120833356,
      "d": 251.519812500017,
      "v": 77
    },
    {
      "midi": 61,
      "hit": false,
      "t": 189026.03120833368,
      "d": 94.00235416664509,
      "v": 85
    },
    {
      "midi": 68,
      "hit": false,
      "t": 189026.03120833368,
      "d": 94.00235416664509,
      "v": 84
    },
    {
      "midi": 77,
      "hit": false,
      "t": 189026.03120833368,
      "d": 94.00235416664509,
      "v": 88
    },
    {
      "midi": 73,
      "hit": false,
      "t": 189028.57181250033,
      "d": 91.46174999998766,
      "v": 89
    },
    {
      "midi": 49,
      "hit": false,
      "t": 189269.92920833357,
      "d": 1778.4229166666628,
      "v": 69
    },
    {
      "midi": 37,
      "hit": false,
      "t": 189269.92920833357,
      "d": 1778.4229166666628,
      "v": 69
    },
    {
      "midi": 73,
      "hit": false,
      "t": 189269.92920833366,
      "d": 1956.2652083333523,
      "v": 95
    },
    {
      "midi": 68,
      "hit": false,
      "t": 189269.92920833366,
      "d": 1976.590041666699,
      "v": 93
    },
    {
      "midi": 61,
      "hit": false,
      "t": 189272.46981250032,
      "d": 1920.6967500000028,
      "v": 100
    },
    {
      "midi": 77,
      "hit": false,
      "t": 189272.46981250032,
      "d": 1933.3997708333482,
      "v": 104
    },
    {
      "midi": 65,
      "hit": false,
      "t": 189275.01041666672,
      "d": 1587.877604166657,
      "v": 87
    },
    {
      "midi": 73,
      "hit": false,
      "t": 189275.01041666672,
      "d": 1598.0400208333158,
      "v": 83
    },
    {
      "midi": 61,
      "hit": false,
      "t": 189277.5510208335,
      "d": 1930.8591666666616,
      "v": 77
    },
    {
      "midi": 65,
      "hit": false,
      "t": 189277.5510208335,
      "d": 1946.1027916666644,
      "v": 77
    },
    {
      "midi": 73,
      "hit": false,
      "t": 189308.0382708335,
      "d": 1895.290708333312,
      "v": 93
    }
  ]
}