{
  "jsonPath": "Rock/Brazilian Rock/Lulu Santos/message-vinheta.json",
  "path": "Rock\\Brazilian Rock\\Lulu Santos\\Message (Vinheta).mid",
  "name": "Message (Vinheta)",
  "difficulty": "Advanced",
  "bpm": 120,
  "notes": [
    {
      "midi": 76,
      "hit": false,
      "t": 6500,
      "d": 223.95833333333303,
      "v": 81
    },
    {
      "midi": 88,
      "hit": false,
      "t": 7000,
      "d": 307.29166666666697,
      "v": 81
    },
    {
      "midi": 76,
      "hit": false,
      "t": 7333.333333333334,
      "d": 140.625,
      "v": 81
    },
    {
      "midi": 76,
      "hit": false,
      "t": 8000.000000000001,
      "d": 223.95833333333303,
      "v": 81
    },
    {
      "midi": 88,
      "hit": false,
      "t": 8500,
      "d": 307.29166666666606,
      "v": 81
    },
    {
      "midi": 76,
      "hit": false,
      "t": 8833.333333333332,
      "d": 1140.625,
      "v": 81
    },
    {
      "midi": 79,
      "hit": false,
      "t": 10499.999999999998,
      "d": 223.95833333333394,
      "v": 81
    },
    {
      "midi": 91,
      "hit": false,
      "t": 10999.999999999998,
      "d": 307.29166666666606,
      "v": 81
    },
    {
      "midi": 79,
      "hit": false,
      "t": 11333.33333333333,
      "d": 140.625,
      "v": 81
    },
    {
      "midi": 79,
      "hit": false,
      "t": 11999.999999999996,
      "d": 223.95833333333394,
      "v": 81
    },
    {
      "midi": 91,
      "hit": false,
      "t": 12499.999999999996,
      "d": 307.29166666666606,
      "v": 81
    },
    {
      "midi": 79,
      "hit": false,
      "t": 12833.333333333328,
      "d": 1140.625,
      "v": 81
    },
    {
      "midi": 89,
      "hit": false,
      "t": 15999.999999999995,
      "d": 62.5,
      "v": 69
    },
    {
      "midi": 91,
      "hit": false,
      "t": 16062.499999999995,
      "d": 62.5,
      "v": 69
    },
    {
      "midi": 89,
      "hit": false,
      "t": 16124.999999999995,
      "d": 62.5,
      "v": 69
    },
    {
      "midi": 91,
      "hit": false,
      "t": 16187.499999999995,
      "d": 62.5,
      "v": 70
    },
    {
      "midi": 89,
      "hit": false,
      "t": 16249.999999999995,
      "d": 62.5,
      "v": 70
    },
    {
      "midi": 91,
      "hit": false,
      "t": 16312.499999999995,
      "d": 62.5,
      "v": 70
    },
    {
      "midi": 89,
      "hit": false,
      "t": 16374.999999999995,
      "d": 62.49999999999818,
      "v": 70
    },
    {
      "midi": 91,
      "hit": false,
      "t": 16437.499999999993,
      "d": 62.5,
      "v": 71
    },
    {
      "midi": 89,
      "hit": false,
      "t": 16499.999999999993,
      "d": 62.5,
      "v": 71
    },
    {
      "midi": 91,
      "hit": false,
      "t": 16562.499999999993,
      "d": 62.5,
      "v": 71
    },
    {
      "midi": 89,
      "hit": false,
      "t": 16624.999999999993,
      "d": 62.5,
      "v": 72
    },
    {
      "midi": 91,
      "hit": false,
      "t": 16687.499999999993,
      "d": 62.5,
      "v": 72
    },
    {
      "midi": 89,
      "hit": false,
      "t": 16749.999999999993,
      "d": 62.5,
      "v": 72
    },
    {
      "midi": 91,
      "hit": false,
      "t": 16812.499999999993,
      "d": 62.5,
      "v": 74
    },
    {
      "midi": 89,
      "hit": false,
      "t": 16874.999999999993,
      "d": 62.5,
      "v": 74
    },
    {
      "midi": 91,
      "hit": false,
      "t": 16937.499999999993,
      "d": 62.5,
      "v": 74
    },
    {
      "midi": 89,
      "hit": false,
      "t": 16999.999999999993,
      "d": 62.5,
      "v": 75
    },
    {
      "midi": 91,
      "hit": false,
      "t": 17062.499999999993,
      "d": 62.5,
      "v": 75
    },
    {
      "midi": 89,
      "hit": false,
      "t": 17124.999999999993,
      "d": 62.5,
      "v": 75
    },
    {
      "midi": 91,
      "hit": false,
      "t": 17187.499999999993,
      "d": 62.5,
      "v": 76
    },
    {
      "midi": 89,
      "hit": false,
      "t": 17249.999999999993,
      "d": 62.5,
      "v": 76
    },
    {
      "midi": 91,
      "hit": false,
      "t": 17312.499999999993,
      "d": 62.5,
      "v": 76
    },
    {
      "midi": 89,
      "hit": false,
      "t": 17374.999999999993,
      "d": 62.5,
      "v": 76
    },
    {
      "midi": 91,
      "hit": false,
      "t": 17437.499999999993,
      "d": 62.5,
      "v": 77
    },
    {
      "midi": 89,
      "hit": false,
      "t": 17499.999999999993,
      "d": 62.5,
      "v": 77
    },
    {
      "midi": 91,
      "hit": false,
      "t": 17562.499999999993,
      "d": 62.5,
      "v": 77
    },
    {
      "midi": 89,
      "hit": false,
      "t": 17624.999999999993,
      "d": 62.5,
      "v": 79
    },
    {
      "midi": 91,
      "hit": false,
      "t": 17687.499999999993,
      "d": 62.5,
      "v": 79
    },
    {
      "midi": 89,
      "hit": false,
      "t": 17749.999999999993,
      "d": 62.5,
      "v": 79
    },
    {
      "midi": 91,
      "hit": false,
      "t": 17812.499999999993,
      "d": 62.5,
      "v": 80
    },
    {
      "midi": 89,
      "hit": false,
      "t": 17874.999999999993,
      "d": 62.5,
      "v": 80
    },
    {
      "midi": 91,
      "hit": false,
      "t": 17937.499999999993,
      "d": 62.5,
      "v": 80
    },
    {
      "midi": 55,
      "hit": false,
      "t": 18333.333333333325,
      "d": 140.625,
      "v": 69
    },
    {
      "midi": 60,
      "hit": false,
      "t": 18499.999999999993,
      "d": 174.47916666666788,
      "v": 69
    },
    {
      "midi": 67,
      "hit": false,
      "t": 18999.999999999993,
      "d": 307.2916666666679,
      "v": 69
    },
    {
      "midi": 60,
      "hit": false,
      "t": 19333.33333333333,
      "d": 153.64583333333212,
      "v": 69
    },
    {
      "midi": 55,
      "hit": false,
      "t": 19499.999999999993,
      "d": 320.3125,
      "v": 69
    },
    {
      "midi": 60,
      "hit": false,
      "t": 19833.333333333325,
      "d": 153.64583333333212,
      "v": 69
    },
    {
      "midi": 57,
      "hit": false,
      "t": 19999.99999999999,
      "d": 320.3125,
      "v": 69
    },
    {
      "midi": 67,
      "hit": false,
      "t": 20333.33333333332,
      "d": 140.625,
      "v": 69
    },
    {
      "midi": 57,
      "hit": false,
      "t": 20499.99999999999,
      "d": 320.3125,
      "v": 69
    },
    {
      "midi": 65,
      "hit": false,
      "t": 20833.33333333332,
      "d": 153.64583333333212,
      "v": 69
    },
    {
      "midi": 61,
      "hit": false,
      "t": 21833.33333333332,
      "d": 153.64583333333212,
      "v": 69
    },
    {
      "midi": 62,
      "hit": false,
      "t": 21999.999999999985,
      "d": 320.3125,
      "v": 69
    },
    {
      "midi": 53,
      "hit": false,
      "t": 22333.333333333318,
      "d": 1153.6458333333358,
      "v": 69
    },
    {
      "midi": 60,
      "hit": false,
      "t": 26499.999999999985,
      "d": 320.3125,
      "v": 69
    },
    {
      "midi": 63,
      "hit": false,
      "t": 26499.999999999985,
      "d": 320.3125,
      "v": 69
    },
    {
      "midi": 62,
      "hit": false,
      "t": 26833.333333333318,
      "d": 153.64583333333212,
      "v": 69
    },
    {
      "midi": 65,
      "hit": false,
      "t": 26833.333333333318,
      "d": 153.64583333333212,
      "v": 69
    },
    {
      "midi": 63,
      "hit": false,
      "t": 26999.99999999998,
      "d": 320.3125,
      "v": 69
    },
    {
      "midi": 67,
      "hit": false,
      "t": 26999.99999999998,
      "d": 320.3125,
      "v": 69
    },
    {
      "midi": 60,
      "hit": false,
      "t": 27333.333333333314,
      "d": 153.64583333333212,
      "v": 69
    },
    {
      "midi": 63,
      "hit": false,
      "t": 27333.333333333314,
      "d": 153.64583333333212,
      "v": 69
    },
    {
      "midi": 55,
      "hit": false,
      "t": 27499.999999999978,
      "d": 320.3125,
      "v": 69
    },
    {
      "midi": 58,
      "hit": false,
      "t": 27833.33333333331,
      "d": 153.64583333333212,
      "v": 69
    },
    {
      "midi": 57,
      "hit": false,
      "t": 27999.999999999975,
      "d": 1986.9791666666679,
      "v": 69
    },
    {
      "midi": 53,
      "hit": false,
      "t": 30499.999999999975,
      "d": 153.64583333333212,
      "v": 69
    },
    {
      "midi": 58,
      "hit": false,
      "t": 30666.66666666664,
      "d": 153.64583333333212,
      "v": 69
    },
    {
      "midi": 62,
      "hit": false,
      "t": 30833.333333333303,
      "d": 153.64583333333212,
      "v": 69
    },
    {
      "midi": 67,
      "hit": false,
      "t": 30999.999999999967,
      "d": 320.3125,
      "v": 69
    },
    {
      "midi": 65,
      "hit": false,
      "t": 31333.3333333333,
      "d": 153.64583333333212,
      "v": 69
    },
    {
      "midi": 57,
      "hit": false,
      "t": 31499.999999999964,
      "d": 320.3125,
      "v": 69
    },
    {
      "midi": 58,
      "hit": false,
      "t": 31833.333333333296,
      "d": 153.64583333333212,
      "v": 69
    },
    {
      "midi": 53,
      "hit": false,
      "t": 31999.99999999996,
      "d": 1962.2395833333321,
      "v": 69
    },
    {
      "midi": 59,
      "hit": false,
      "t": 31999.99999999996,
      "d": 1962.2395833333321,
      "v": 69
    },
    {
      "midi": 60,
      "hit": false,
      "t": 33999.999999999956,
      "d": 411.45833333333576,
      "v": 69
    },
    {
      "midi": 60,
      "hit": false,
      "t": 34499.999999999956,
      "d": 411.45833333333576,
      "v": 69
    },
    {
      "midi": 58,
      "hit": false,
      "t": 34999.999999999956,
      "d": 411.45833333333576,
      "v": 69
    },
    {
      "midi": 58,
      "hit": false,
      "t": 35499.999999999956,
      "d": 411.45833333333576,
      "v": 69
    },
    {
      "midi": 57,
      "hit": false,
      "t": 35999.999999999956,
      "d": 1986.9791666666642,
      "v": 69
    },
    {
      "midi": 61,
      "hit": false,
      "t": 38458.333333333285,
      "d": 41.66666666666424,
      "v": 69
    },
    {
      "midi": 62,
      "hit": false,
      "t": 38499.99999999995,
      "d": 320.3125,
      "v": 69
    },
    {
      "midi": 67,
      "hit": false,
      "t": 38833.333333333285,
      "d": 153.64583333333576,
      "v": 69
    },
    {
      "midi": 62,
      "hit": false,
      "t": 38999.999999999956,
      "d": 320.3125,
      "v": 69
    },
    {
      "midi": 65,
      "hit": false,
      "t": 38999.999999999956,
      "d": 320.3125,
      "v": 69
    },
    {
      "midi": 60,
      "hit": false,
      "t": 39333.33333333329,
      "d": 236.97916666666424,
      "v": 69
    },
    {
      "midi": 63,
      "hit": false,
      "t": 39333.33333333329,
      "d": 236.97916666666424,
      "v": 69
    },
    {
      "midi": 58,
      "hit": false,
      "t": 39833.33333333329,
      "d": 153.64583333333576,
      "v": 69
    },
    {
      "midi": 62,
      "hit": false,
      "t": 39833.33333333329,
      "d": 153.64583333333576,
      "v": 69
    },
    {
      "midi": 51,
      "hit": false,
      "t": 42358.07291666663,
      "d": 111.97916666666424,
      "v": 91
    },
    {
      "midi": 55,
      "hit": false,
      "t": 42358.07291666663,
      "d": 111.97916666666424,
      "v": 91
    },
    {
      "midi": 58,
      "hit": false,
      "t": 42358.07291666663,
      "d": 111.97916666666424,
      "v": 91
    },
    {
      "midi": 62,
      "hit": false,
      "t": 42358.07291666663,
      "d": 111.97916666666424,
      "v": 91
    },
    {
      "midi": 51,
      "hit": false,
      "t": 43015.624999999956,
      "d": 891.9270833333358,
      "v": 87
    },
    {
      "midi": 55,
      "hit": false,
      "t": 43015.624999999956,
      "d": 891.9270833333358,
      "v": 87
    },
    {
      "midi": 58,
      "hit": false,
      "t": 43015.624999999956,
      "d": 891.9270833333358,
      "v": 87
    },
    {
      "midi": 62,
      "hit": false,
      "t": 43015.624999999956,
      "d": 891.9270833333358,
      "v": 87
    },
    {
      "midi": 66,
      "hit": false,
      "t": 44032.55208333329,
      "d": 1579.4270833333358,
      "v": 66
    },
    {
      "midi": 72,
      "hit": false,
      "t": 44032.55208333329,
      "d": 1613.28125,
      "v": 57
    },
    {
      "midi": 63,
      "hit": false,
      "t": 44045.57291666663,
      "d": 1507.8125,
      "v": 52
    },
    {
      "midi": 51,
      "hit": false,
      "t": 44049.47916666663,
      "d": 1125,
      "v": 52
    },
    {
      "midi": 57,
      "hit": false,
      "t": 44057.29166666663,
      "d": 1312.5,
      "v": 48
    },
    {
      "midi": 51,
      "hit": false,
      "t": 45358.07291666663,
      "d": 475.26041666666424,
      "v": 68
    },
    {
      "midi": 57,
      "hit": false,
      "t": 45520.83333333329,
      "d": 324.21875,
      "v": 64
    },
    {
      "midi": 63,
      "hit": false,
      "t": 45703.124999999956,
      "d": 196.61458333333576,
      "v": 48
    },
    {
      "midi": 66,
      "hit": false,
      "t": 45858.07291666663,
      "d": 83.33333333332848,
      "v": 89
    },
    {
      "midi": 72,
      "hit": false,
      "t": 46011.718749999956,
      "d": 1613.2812500000073,
      "v": 63
    },
    {
      "midi": 62,
      "hit": false,
      "t": 46024.73958333329,
      "d": 1545.5729166666715,
      "v": 57
    },
    {
      "midi": 65,
      "hit": false,
      "t": 46028.64583333329,
      "d": 1587.2395833333358,
      "v": 68
    },
    {
      "midi": 57,
      "hit": false,
      "t": 46032.55208333329,
      "d": 1279.9479166666715,
      "v": 59
    },
    {
      "midi": 50,
      "hit": false,
      "t": 46041.66666666663,
      "d": 1036.4583333333358,
      "v": 58
    },
    {
      "midi": 50,
      "hit": false,
      "t": 47328.12499999996,
      "d": 579.4270833333285,
      "v": 64
    },
    {
      "midi": 57,
      "hit": false,
      "t": 47494.79166666663,
      "d": 404.94791666666424,
      "v": 82
    },
    {
      "midi": 62,
      "hit": false,
      "t": 47670.57291666663,
      "d": 191.40625,
      "v": 57
    },
    {
      "midi": 65,
      "hit": false,
      "t": 47824.21874999996,
      "d": 75.52083333332848,
      "v": 82
    },
    {
      "midi": 53,
      "hit": false,
      "t": 48358.07291666662,
      "d": 111.97916666666424,
      "v": 91
    },
    {
      "midi": 59,
      "hit": false,
      "t": 48358.07291666662,
      "d": 111.97916666666424,
      "v": 91
    },
    {
      "midi": 63,
      "hit": false,
      "t": 48358.07291666662,
      "d": 111.97916666666424,
      "v": 91
    },
    {
      "midi": 68,
      "hit": false,
      "t": 48358.07291666662,
      "d": 111.97916666666424,
      "v": 91
    },
    {
      "midi": 53,
      "hit": false,
      "t": 49015.62499999995,
      "d": 891.9270833333358,
      "v": 87
    },
    {
      "midi": 59,
      "hit": false,
      "t": 49015.62499999995,
      "d": 891.9270833333358,
      "v": 87
    },
    {
      "midi": 63,
      "hit": false,
      "t": 49015.62499999995,
      "d": 891.9270833333358,
      "v": 87
    },
    {
      "midi": 68,
      "hit": false,
      "t": 49015.62499999995,
      "d": 891.9270833333358,
      "v": 87
    },
    {
      "midi": 74,
      "hit": false,
      "t": 50011.71874999995,
      "d": 1613.2812500000073,
      "v": 63
    },
    {
      "midi": 63,
      "hit": false,
      "t": 50024.739583333285,
      "d": 1545.5729166666715,
      "v": 57
    },
    {
      "midi": 67,
      "hit": false,
      "t": 50028.645833333285,
      "d": 1587.2395833333358,
      "v": 68
    },
    {
      "midi": 58,
      "hit": false,
      "t": 50032.552083333285,
      "d": 1279.9479166666715,
      "v": 59
    },
    {
      "midi": 51,
      "hit": false,
      "t": 50041.66666666662,
      "d": 1036.4583333333358,
      "v": 58
    },
    {
      "midi": 51,
      "hit": false,
      "t": 51328.124999999956,
      "d": 579.4270833333285,
      "v": 64
    },
    {
      "midi": 58,
      "hit": false,
      "t": 51494.79166666662,
      "d": 404.94791666666424,
      "v": 82
    },
    {
      "midi": 63,
      "hit": false,
      "t": 51670.57291666662,
      "d": 191.40625,
      "v": 57
    },
    {
      "midi": 67,
      "hit": false,
      "t": 51824.218749999956,
      "d": 75.52083333332848,
      "v": 82
    },
    {
      "midi": 51,
      "hit": false,
      "t": 52354.16666666661,
      "d": 157.55208333333576,
      "v": 87
    },
    {
      "midi": 55,
      "hit": false,
      "t": 52354.16666666661,
      "d": 157.55208333333576,
      "v": 87
    },
    {
      "midi": 57,
      "hit": false,
      "t": 52354.16666666661,
      "d": 157.55208333333576,
      "v": 87
    },
    {
      "midi": 60,
      "hit": false,
      "t": 52354.16666666661,
      "d": 157.55208333333576,
      "v": 87
    },
    {
      "midi": 51,
      "hit": false,
      "t": 53028.645833333285,
      "d": 354.16666666666424,
      "v": 89
    },
    {
      "midi": 57,
      "hit": false,
      "t": 53028.645833333285,
      "d": 354.16666666666424,
      "v": 89
    },
    {
      "midi": 59,
      "hit": false,
      "t": 53028.645833333285,
      "d": 354.16666666666424,
      "v": 89
    },
    {
      "midi": 62,
      "hit": false,
      "t": 53028.645833333285,
      "d": 354.16666666666424,
      "v": 89
    },
    {
      "midi": 67,
      "hit": false,
      "t": 53028.645833333285,
      "d": 354.16666666666424,
      "v": 89
    },
    {
      "midi": 55,
      "hit": false,
      "t": 53528.645833333285,
      "d": 354.16666666666424,
      "v": 89
    },
    {
      "midi": 58,
      "hit": false,
      "t": 53528.645833333285,
      "d": 354.16666666666424,
      "v": 89
    },
    {
      "midi": 61,
      "hit": false,
      "t": 53528.645833333285,
      "d": 354.16666666666424,
      "v": 89
    },
    {
      "midi": 64,
      "hit": false,
      "t": 53528.645833333285,
      "d": 354.16666666666424,
      "v": 89
    },
    {
      "midi": 62,
      "hit": false,
      "t": 54028.645833333285,
      "d": 354.16666666666424,
      "v": 89
    },
    {
      "midi": 65,
      "hit": false,
      "t": 54028.645833333285,
      "d": 354.16666666666424,
      "v": 89
    },
    {
      "midi": 70,
      "hit": false,
      "t": 54028.645833333285,
      "d": 354.16666666666424,
      "v": 89
    },
    {
      "midi": 56,
      "hit": false,
      "t": 54528.645833333285,
      "d": 354.16666666666424,
      "v": 89
    },
    {
      "midi": 58,
      "hit": false,
      "t": 54528.645833333285,
      "d": 354.16666666666424,
      "v": 89
    },
    {
      "midi": 62,
      "hit": false,
      "t": 54528.645833333285,
      "d": 354.16666666666424,
      "v": 89
    },
    {
      "midi": 65,
      "hit": false,
      "t": 54528.645833333285,
      "d": 354.16666666666424,
      "v": 89
    },
    {
      "midi": 55,
      "hit": false,
      "t": 55028.645833333285,
      "d": 354.16666666666424,
      "v": 89
    },
    {
      "midi": 61,
      "hit": false,
      "t": 55028.645833333285,
      "d": 354.16666666666424,
      "v": 89
    },
    {
      "midi": 64,
      "hit": false,
      "t": 55028.645833333285,
      "d": 354.16666666666424,
      "v": 89
    },
    {
      "midi": 70,
      "hit": false,
      "t": 55028.645833333285,
      "d": 354.16666666666424,
      "v": 89
    },
    {
      "midi": 54,
      "hit": false,
      "t": 55528.645833333285,
      "d": 354.16666666666424,
      "v": 89
    },
    {
      "midi": 60,
      "hit": false,
      "t": 55528.645833333285,
      "d": 354.16666666666424,
      "v": 89
    },
    {
      "midi": 63,
      "hit": false,
      "t": 55528.645833333285,
      "d": 354.16666666666424,
      "v": 89
    },
    {
      "midi": 70,
      "hit": false,
      "t": 55528.645833333285,
      "d": 354.16666666666424,
      "v": 89
    },
    {
      "midi": 46,
      "hit": false,
      "t": 56057.29166666661,
      "d": 300.78125,
      "v": 61
    },
    {
      "midi": 62,
      "hit": false,
      "t": 56374.99999999995,
      "d": 203.125,
      "v": 89
    },
    {
      "midi": 65,
      "hit": false,
      "t": 56374.99999999995,
      "d": 203.125,
      "v": 89
    },
    {
      "midi": 70,
      "hit": false,
      "t": 56374.99999999995,
      "d": 203.125,
      "v": 89
    },
    {
      "midi": 54,
      "hit": false,
      "t": 57057.29166666661,
      "d": 300.78125,
      "v": 61
    },
    {
      "midi": 57,
      "hit": false,
      "t": 57374.99999999995,
      "d": 203.125,
      "v": 89
    },
    {
      "midi": 63,
      "hit": false,
      "t": 57374.99999999995,
      "d": 203.125,
      "v": 89
    },
    {
      "midi": 68,
      "hit": false,
      "t": 57374.99999999995,
      "d": 203.125,
      "v": 89
    },
    {
      "midi": 73,
      "hit": false,
      "t": 57374.99999999995,
      "d": 203.125,
      "v": 89
    },
    {
      "midi": 72,
      "hit": false,
      "t": 58011.71874999995,
      "d": 1613.2812500000073,
      "v": 63
    },
    {
      "midi": 63,
      "hit": false,
      "t": 58024.739583333285,
      "d": 1545.5729166666715,
      "v": 57
    },
    {
      "midi": 67,
      "hit": false,
      "t": 58028.645833333285,
      "d": 1587.2395833333358,
      "v": 68
    },
    {
      "midi": 56,
      "hit": false,
      "t": 58032.552083333285,
      "d": 1279.9479166666715,
      "v": 59
    },
    {
      "midi": 51,
      "hit": false,
      "t": 58041.66666666662,
      "d": 1036.4583333333358,
      "v": 58
    },
    {
      "midi": 51,
      "hit": false,
      "t": 59328.124999999956,
      "d": 579.4270833333285,
      "v": 64
    },
    {
      "midi": 56,
      "hit": false,
      "t": 59494.79166666662,
      "d": 404.94791666666424,
      "v": 82
    },
    {
      "midi": 63,
      "hit": false,
      "t": 59670.57291666662,
      "d": 191.40625,
      "v": 57
    },
    {
      "midi": 67,
      "hit": false,
      "t": 59824.218749999956,
      "d": 75.52083333332848,
      "v": 82
    },
    {
      "midi": 56,
      "hit": false,
      "t": 60358.07291666661,
      "d": 111.97916666666424,
      "v": 91
    },
    {
      "midi": 62,
      "hit": false,
      "t": 60358.07291666661,
      "d": 111.97916666666424,
      "v": 91
    },
    {
      "midi": 66,
      "hit": false,
      "t": 60358.07291666661,
      "d": 111.97916666666424,
      "v": 91
    },
    {
      "midi": 71,
      "hit": false,
      "t": 60358.07291666661,
      "d": 111.97916666666424,
      "v": 91
    },
    {
      "midi": 56,
      "hit": false,
      "t": 61015.62499999994,
      "d": 891.9270833333358,
      "v": 87
    },
    {
      "midi": 62,
      "hit": false,
      "t": 61015.62499999994,
      "d": 891.9270833333358,
      "v": 87
    },
    {
      "midi": 66,
      "hit": false,
      "t": 61015.62499999994,
      "d": 891.9270833333358,
      "v": 87
    },
    {
      "midi": 71,
      "hit": false,
      "t": 61015.62499999994,
      "d": 891.9270833333358,
      "v": 87
    },
    {
      "midi": 55,
      "hit": false,
      "t": 63024.73958333328,
      "d": 282.55208333333576,
      "v": 85
    },
    {
      "midi": 60,
      "hit": false,
      "t": 63024.73958333328,
      "d": 282.55208333333576,
      "v": 85
    },
    {
      "midi": 65,
      "hit": false,
      "t": 63024.73958333328,
      "d": 282.55208333333576,
      "v": 85
    },
    {
      "midi": 70,
      "hit": false,
      "t": 63024.73958333328,
      "d": 282.55208333333576,
      "v": 85
    },
    {
      "midi": 55,
      "hit": false,
      "t": 63399.73958333328,
      "d": 153.64583333333576,
      "v": 80
    },
    {
      "midi": 60,
      "hit": false,
      "t": 63399.73958333328,
      "d": 153.64583333333576,
      "v": 80
    },
    {
      "midi": 65,
      "hit": false,
      "t": 63399.73958333328,
      "d": 153.64583333333576,
      "v": 80
    },
    {
      "midi": 70,
      "hit": false,
      "t": 63399.73958333328,
      "d": 153.64583333333576,
      "v": 80
    },
    {
      "midi": 82,
      "hit": false,
      "t": 64041.66666666661,
      "d": 337.23958333333576,
      "v": 76
    },
    {
      "midi": 78,
      "hit": false,
      "t": 64045.57291666661,
      "d": 341.14583333333576,
      "v": 70
    },
    {
      "midi": 87,
      "hit": false,
      "t": 64049.47916666661,
      "d": 346.3541666666715,
      "v": 76
    },
    {
      "midi": 66,
      "hit": false,
      "t": 64053.38541666661,
      "d": 346.3541666666715,
      "v": 76
    },
    {
      "midi": 70,
      "hit": false,
      "t": 64053.38541666661,
      "d": 354.1666666666715,
      "v": 66
    },
    {
      "midi": 60,
      "hit": false,
      "t": 64066.40624999995,
      "d": 350.2604166666715,
      "v": 72
    },
    {
      "midi": 54,
      "hit": false,
      "t": 65354.16666666662,
      "d": 157.55208333333576,
      "v": 87
    },
    {
      "midi": 58,
      "hit": false,
      "t": 65354.16666666662,
      "d": 157.55208333333576,
      "v": 87
    },
    {
      "midi": 60,
      "hit": false,
      "t": 65354.16666666662,
      "d": 157.55208333333576,
      "v": 87
    },
    {
      "midi": 63,
      "hit": false,
      "t": 65354.16666666662,
      "d": 157.55208333333576,
      "v": 87
    },
    {
      "midi": 54,
      "hit": false,
      "t": 66354.16666666663,
      "d": 157.55208333332848,
      "v": 87
    },
    {
      "midi": 58,
      "hit": false,
      "t": 66354.16666666663,
      "d": 157.55208333332848,
      "v": 87
    },
    {
      "midi": 62,
      "hit": false,
      "t": 66354.16666666663,
      "d": 157.55208333332848,
      "v": 87
    },
    {
      "midi": 69,
      "hit": false,
      "t": 66354.16666666663,
      "d": 157.55208333332848,
      "v": 87
    },
    {
      "midi": 74,
      "hit": false,
      "t": 67020.83333333328,
      "d": 916.666666666657,
      "v": 70
    },
    {
      "midi": 67,
      "hit": false,
      "t": 67024.73958333328,
      "d": 899.7395833333285,
      "v": 70
    },
    {
      "midi": 53,
      "hit": false,
      "t": 67028.64583333328,
      "d": 916.666666666657,
      "v": 61
    },
    {
      "midi": 58,
      "hit": false,
      "t": 67028.64583333328,
      "d": 924.479166666657,
      "v": 53
    },
    {
      "midi": 65,
      "hit": false,
      "t": 67032.55208333328,
      "d": 904.947916666657,
      "v": 59
    },
    {
      "midi": 74,
      "hit": false,
      "t": 68020.83333333327,
      "d": 916.666666666657,
      "v": 70
    },
    {
      "midi": 67,
      "hit": false,
      "t": 68024.73958333327,
      "d": 899.7395833333285,
      "v": 70
    },
    {
      "midi": 52,
      "hit": false,
      "t": 68028.64583333327,
      "d": 916.666666666657,
      "v": 61
    },
    {
      "midi": 58,
      "hit": false,
      "t": 68028.64583333327,
      "d": 924.479166666657,
      "v": 53
    },
    {
      "midi": 64,
      "hit": false,
      "t": 68032.55208333327,
      "d": 904.947916666657,
      "v": 59
    },
    {
      "midi": 57,
      "hit": false,
      "t": 69028.64583333326,
      "d": 354.1666666666715,
      "v": 89
    },
    {
      "midi": 63,
      "hit": false,
      "t": 69028.64583333326,
      "d": 354.1666666666715,
      "v": 89
    },
    {
      "midi": 68,
      "hit": false,
      "t": 69028.64583333326,
      "d": 354.1666666666715,
      "v": 89
    },
    {
      "midi": 73,
      "hit": false,
      "t": 69028.64583333326,
      "d": 354.1666666666715,
      "v": 89
    },
    {
      "midi": 48,
      "hit": false,
      "t": 69833.33333333326,
      "d": 500,
      "v": 93
    },
    {
      "midi": 58,
      "hit": false,
      "t": 69833.33333333326,
      "d": 500,
      "v": 93
    },
    {
      "midi": 60,
      "hit": false,
      "t": 69833.33333333326,
      "d": 500,
      "v": 93
    },
    {
      "midi": 63,
      "hit": false,
      "t": 69833.33333333326,
      "d": 500,
      "v": 93
    },
    {
      "midi": 67,
      "hit": false,
      "t": 70499.99999999993,
      "d": 166.66666666667152,
      "v": 94
    },
    {
      "midi": 72,
      "hit": false,
      "t": 70666.6666666666,
      "d": 160.15625,
      "v": 94
    },
    {
      "midi": 75,
      "hit": false,
      "t": 70833.33333333327,
      "d": 160.15625,
      "v": 94
    },
    {
      "midi": 79,
      "hit": false,
      "t": 70999.99999999994,
      "d": 326.8229166666715,
      "v": 94
    },
    {
      "midi": 75,
      "hit": false,
      "t": 71333.33333333328,
      "d": 160.15625,
      "v": 94
    },
    {
      "midi": 72,
      "hit": false,
      "t": 71499.99999999996,
      "d": 326.8229166666715,
      "v": 94
    },
    {
      "midi": 70,
      "hit": false,
      "t": 71833.3333333333,
      "d": 160.15625,
      "v": 94
    },
    {
      "midi": 69,
      "hit": false,
      "t": 71999.99999999997,
      "d": 1000,
      "v": 94
    },
    {
      "midi": 67,
      "hit": false,
      "t": 74499.99999999997,
      "d": 160.15625,
      "v": 95
    },
    {
      "midi": 70,
      "hit": false,
      "t": 74666.66666666664,
      "d": 160.15625,
      "v": 95
    },
    {
      "midi": 74,
      "hit": false,
      "t": 74833.33333333331,
      "d": 160.15625,
      "v": 95
    },
    {
      "midi": 75,
      "hit": false,
      "t": 74999.99999999999,
      "d": 326.8229166666715,
      "v": 95
    },
    {
      "midi": 67,
      "hit": false,
      "t": 75333.33333333333,
      "d": 243.48958333332848,
      "v": 95
    },
    {
      "midi": 70,
      "hit": false,
      "t": 75833.33333333333,
      "d": 160.15625,
      "v": 95
    },
    {
      "midi": 69,
      "hit": false,
      "t": 76000,
      "d": 993.4895833333285,
      "v": 95
    },
    {
      "midi": 73,
      "hit": false,
      "t": 78333.33333333333,
      "d": 160.15625,
      "v": 95
    },
    {
      "midi": 74,
      "hit": false,
      "t": 78500,
      "d": 174.47916666667152,
      "v": 95
    },
    {
      "midi": 79,
      "hit": false,
      "t": 79000,
      "d": 326.8229166666715,
      "v": 95
    },
    {
      "midi": 73,
      "hit": false,
      "t": 79333.33333333334,
      "d": 160.15625,
      "v": 95
    },
    {
      "midi": 74,
      "hit": false,
      "t": 79500.00000000001,
      "d": 326.8229166666715,
      "v": 95
    },
    {
      "midi": 70,
      "hit": false,
      "t": 79833.33333333336,
      "d": 160.15625,
      "v": 95
    },
    {
      "midi": 65,
      "hit": false,
      "t": 80000.00000000003,
      "d": 326.8229166666715,
      "v": 95
    },
    {
      "midi": 64,
      "hit": false,
      "t": 80333.33333333337,
      "d": 1160.15625,
      "v": 95
    },
    {
      "midi": 51,
      "hit": false,
      "t": 81778.64583333337,
      "d": 604.1666666666715,
      "v": 89
    },
    {
      "midi": 55,
      "hit": false,
      "t": 81778.64583333337,
      "d": 604.1666666666715,
      "v": 89
    },
    {
      "midi": 58,
      "hit": false,
      "t": 81778.64583333337,
      "d": 604.1666666666715,
      "v": 89
    },
    {
      "midi": 60,
      "hit": false,
      "t": 81778.64583333337,
      "d": 604.1666666666715,
      "v": 89
    },
    {
      "midi": 65,
      "hit": false,
      "t": 82541.66666666672,
      "d": 145.83333333334303,
      "v": 82
    },
    {
      "midi": 62,
      "hit": false,
      "t": 82661.45833333339,
      "d": 121.09375,
      "v": 58
    },
    {
      "midi": 59,
      "hit": false,
      "t": 82765.62500000006,
      "d": 100.26041666665697,
      "v": 56
    },
    {
      "midi": 56,
      "hit": false,
      "t": 82937.50000000004,
      "d": 62.5,
      "v": 72
    },
    {
      "midi": 58,
      "hit": false,
      "t": 83028.64583333337,
      "d": 283.8541666666715,
      "v": 89
    },
    {
      "midi": 60,
      "hit": false,
      "t": 83028.64583333337,
      "d": 283.8541666666715,
      "v": 89
    },
    {
      "midi": 63,
      "hit": false,
      "t": 83028.64583333337,
      "d": 283.8541666666715,
      "v": 89
    },
    {
      "midi": 67,
      "hit": false,
      "t": 83028.64583333337,
      "d": 283.8541666666715,
      "v": 89
    },
    {
      "midi": 57,
      "hit": false,
      "t": 83382.81250000004,
      "d": 492.1875,
      "v": 89
    },
    {
      "midi": 63,
      "hit": false,
      "t": 83382.81250000004,
      "d": 492.1875,
      "v": 89
    },
    {
      "midi": 66,
      "hit": false,
      "t": 83382.81250000004,
      "d": 492.1875,
      "v": 89
    },
    {
      "midi": 73,
      "hit": false,
      "t": 83382.81250000004,
      "d": 492.1875,
      "v": 89
    },
    {
      "midi": 57,
      "hit": false,
      "t": 85024.73958333337,
      "d": 282.5520833333285,
      "v": 85
    },
    {
      "midi": 63,
      "hit": false,
      "t": 85024.73958333337,
      "d": 282.5520833333285,
      "v": 85
    },
    {
      "midi": 66,
      "hit": false,
      "t": 85024.73958333337,
      "d": 282.5520833333285,
      "v": 85
    },
    {
      "midi": 72,
      "hit": false,
      "t": 85024.73958333337,
      "d": 282.5520833333285,
      "v": 85
    },
    {
      "midi": 57,
      "hit": false,
      "t": 85399.73958333337,
      "d": 153.64583333332848,
      "v": 80
    },
    {
      "midi": 63,
      "hit": false,
      "t": 85399.73958333337,
      "d": 153.64583333332848,
      "v": 80
    },
    {
      "midi": 66,
      "hit": false,
      "t": 85399.73958333337,
      "d": 153.64583333332848,
      "v": 80
    },
    {
      "midi": 72,
      "hit": false,
      "t": 85399.73958333337,
      "d": 153.64583333332848,
      "v": 80
    },
    {
      "midi": 53,
      "hit": false,
      "t": 86358.0729166667,
      "d": 111.97916666667152,
      "v": 91
    },
    {
      "midi": 60,
      "hit": false,
      "t": 86358.0729166667,
      "d": 111.97916666667152,
      "v": 91
    },
    {
      "midi": 62,
      "hit": false,
      "t": 86358.0729166667,
      "d": 111.97916666667152,
      "v": 91
    },
    {
      "midi": 68,
      "hit": false,
      "t": 86358.0729166667,
      "d": 111.97916666667152,
      "v": 91
    },
    {
      "midi": 53,
      "hit": false,
      "t": 87015.62500000004,
      "d": 891.9270833333285,
      "v": 87
    },
    {
      "midi": 60,
      "hit": false,
      "t": 87015.62500000004,
      "d": 891.9270833333285,
      "v": 87
    },
    {
      "midi": 62,
      "hit": false,
      "t": 87015.62500000004,
      "d": 891.9270833333285,
      "v": 87
    },
    {
      "midi": 68,
      "hit": false,
      "t": 87015.62500000004,
      "d": 891.9270833333285,
      "v": 87
    },
    {
      "midi": 53,
      "hit": false,
      "t": 89024.73958333337,
      "d": 282.5520833333285,
      "v": 85
    },
    {
      "midi": 59,
      "hit": false,
      "t": 89024.73958333337,
      "d": 282.5520833333285,
      "v": 85
    },
    {
      "midi": 63,
      "hit": false,
      "t": 89024.73958333337,
      "d": 282.5520833333285,
      "v": 85
    },
    {
      "midi": 68,
      "hit": false,
      "t": 89024.73958333337,
      "d": 282.5520833333285,
      "v": 85
    },
    {
      "midi": 53,
      "hit": false,
      "t": 89399.73958333337,
      "d": 153.64583333332848,
      "v": 80
    },
    {
      "midi": 59,
      "hit": false,
      "t": 89399.73958333337,
      "d": 153.64583333332848,
      "v": 80
    },
    {
      "midi": 63,
      "hit": false,
      "t": 89399.73958333337,
      "d": 153.64583333332848,
      "v": 80
    },
    {
      "midi": 68,
      "hit": false,
      "t": 89399.73958333337,
      "d": 153.64583333332848,
      "v": 80
    },
    {
      "midi": 55,
      "hit": false,
      "t": 90041.6666666667,
      "d": 1295.5729166666715,
      "v": 68
    },
    {
      "midi": 64,
      "hit": false,
      "t": 90382.81250000003,
      "d": 100.26041666667152,
      "v": 76
    },
    {
      "midi": 67,
      "hit": false,
      "t": 90524.73958333337,
      "d": 350.2604166666715,
      "v": 91
    },
    {
      "midi": 72,
      "hit": false,
      "t": 90895.83333333337,
      "d": 453.125,
      "v": 107
    },
    {
      "midi": 52,
      "hit": false,
      "t": 91407.55208333337,
      "d": 62.5,
      "v": 52
    },
    {
      "midi": 72,
      "hit": false,
      "t": 91532.55208333337,
      "d": 221.35416666665697,
      "v": 85
    },
    {
      "midi": 67,
      "hit": false,
      "t": 91536.45833333337,
      "d": 213.54166666665697,
      "v": 87
    },
    {
      "midi": 55,
      "hit": false,
      "t": 91536.45833333337,
      "d": 221.35416666665697,
      "v": 82
    },
    {
      "midi": 64,
      "hit": false,
      "t": 91541.6666666667,
      "d": 212.23958333332848,
      "v": 87
    },
    {
      "midi": 54,
      "hit": false,
      "t": 92028.64583333336,
      "d": 354.1666666666715,
      "v": 89
    },
    {
      "midi": 61,
      "hit": false,
      "t": 92028.64583333336,
      "d": 354.1666666666715,
      "v": 89
    },
    {
      "midi": 65,
      "hit": false,
      "t": 92028.64583333336,
      "d": 354.1666666666715,
      "v": 89
    },
    {
      "midi": 70,
      "hit": false,
      "t": 92028.64583333336,
      "d": 354.1666666666715,
      "v": 89
    },
    {
      "midi": 54,
      "hit": false,
      "t": 92528.64583333336,
      "d": 354.1666666666715,
      "v": 89
    },
    {
      "midi": 60,
      "hit": false,
      "t": 92528.64583333336,
      "d": 354.1666666666715,
      "v": 89
    },
    {
      "midi": 63,
      "hit": false,
      "t": 92528.64583333336,
      "d": 354.1666666666715,
      "v": 89
    },
    {
      "midi": 70,
      "hit": false,
      "t": 92528.64583333336,
      "d": 354.1666666666715,
      "v": 89
    },
    {
      "midi": 77,
      "hit": false,
      "t": 93041.6666666667,
      "d": 337.2395833333285,
      "v": 76
    },
    {
      "midi": 73,
      "hit": false,
      "t": 93045.5729166667,
      "d": 341.1458333333285,
      "v": 70
    },
    {
      "midi": 82,
      "hit": false,
      "t": 93049.4791666667,
      "d": 346.35416666665697,
      "v": 76
    },
    {
      "midi": 61,
      "hit": false,
      "t": 93053.3854166667,
      "d": 346.35416666665697,
      "v": 76
    },
    {
      "midi": 65,
      "hit": false,
      "t": 93053.3854166667,
      "d": 354.16666666665697,
      "v": 66
    },
    {
      "midi": 54,
      "hit": false,
      "t": 93066.40625000003,
      "d": 350.26041666665697,
      "v": 72
    },
    {
      "midi": 81,
      "hit": false,
      "t": 94041.66666666669,
      "d": 337.2395833333285,
      "v": 76
    },
    {
      "midi": 77,
      "hit": false,
      "t": 94045.57291666669,
      "d": 341.1458333333285,
      "v": 70
    },
    {
      "midi": 88,
      "hit": false,
      "t": 94049.47916666669,
      "d": 346.35416666665697,
      "v": 76
    },
    {
      "midi": 65,
      "hit": false,
      "t": 94053.38541666669,
      "d": 346.35416666665697,
      "v": 76
    },
    {
      "midi": 69,
      "hit": false,
      "t": 94053.38541666669,
      "d": 354.16666666665697,
      "v": 66
    },
    {
      "midi": 60,
      "hit": false,
      "t": 94066.40625000001,
      "d": 350.26041666665697,
      "v": 72
    },
    {
      "midi": 77,
      "hit": false,
      "t": 95041.66666666667,
      "d": 337.2395833333285,
      "v": 76
    },
    {
      "midi": 74,
      "hit": false,
      "t": 95045.57291666667,
      "d": 341.1458333333285,
      "v": 70
    },
    {
      "midi": 82,
      "hit": false,
      "t": 95049.47916666667,
      "d": 346.35416666665697,
      "v": 76
    },
    {
      "midi": 62,
      "hit": false,
      "t": 95053.38541666667,
      "d": 346.35416666665697,
      "v": 76
    },
    {
      "midi": 65,
      "hit": false,
      "t": 95053.38541666667,
      "d": 354.16666666665697,
      "v": 66
    },
    {
      "midi": 55,
      "hit": false,
      "t": 95066.40625,
      "d": 350.26041666665697,
      "v": 72
    },
    {
      "midi": 52,
      "hit": false,
      "t": 96358.07291666666,
      "d": 111.97916666667152,
      "v": 91
    },
    {
      "midi": 58,
      "hit": false,
      "t": 96358.07291666666,
      "d": 111.97916666667152,
      "v": 91
    },
    {
      "midi": 61,
      "hit": false,
      "t": 96358.07291666666,
      "d": 111.97916666667152,
      "v": 91
    },
    {
      "midi": 67,
      "hit": false,
      "t": 96358.07291666666,
      "d": 111.97916666667152,
      "v": 91
    },
    {
      "midi": 52,
      "hit": false,
      "t": 97015.625,
      "d": 891.9270833333285,
      "v": 87
    },
    {
      "midi": 58,
      "hit": false,
      "t": 97015.625,
      "d": 891.9270833333285,
      "v": 87
    },
    {
      "midi": 61,
      "hit": false,
      "t": 97015.625,
      "d": 891.9270833333285,
      "v": 87
    },
    {
      "midi": 67,
      "hit": false,
      "t": 97015.625,
      "d": 891.9270833333285,
      "v": 87
    },
    {
      "midi": 51,
      "hit": false,
      "t": 98358.07291666667,
      "d": 111.97916666667152,
      "v": 91
    },
    {
      "midi": 55,
      "hit": false,
      "t": 98358.07291666667,
      "d": 111.97916666667152,
      "v": 91
    },
    {
      "midi": 58,
      "hit": false,
      "t": 98358.07291666667,
      "d": 111.97916666667152,
      "v": 91
    },
    {
      "midi": 60,
      "hit": false,
      "t": 98358.07291666667,
      "d": 111.97916666667152,
      "v": 91
    },
    {
      "midi": 51,
      "hit": false,
      "t": 99015.62500000001,
      "d": 891.9270833333285,
      "v": 87
    },
    {
      "midi": 55,
      "hit": false,
      "t": 99015.62500000001,
      "d": 891.9270833333285,
      "v": 87
    },
    {
      "midi": 58,
      "hit": false,
      "t": 99015.62500000001,
      "d": 891.9270833333285,
      "v": 87
    },
    {
      "midi": 60,
      "hit": false,
      "t": 99015.62500000001,
      "d": 891.9270833333285,
      "v": 87
    },
    {
      "midi": 79,
      "hit": false,
      "t": 100041.66666666669,
      "d": 337.2395833333285,
      "v": 76
    },
    {
      "midi": 75,
      "hit": false,
      "t": 100045.57291666669,
      "d": 341.1458333333285,
      "v": 70
    },
    {
      "midi": 84,
      "hit": false,
      "t": 100049.47916666669,
      "d": 346.35416666665697,
      "v": 76
    },
    {
      "midi": 63,
      "hit": false,
      "t": 100053.38541666669,
      "d": 346.35416666665697,
      "v": 76
    },
    {
      "midi": 67,
      "hit": false,
      "t": 100053.38541666669,
      "d": 354.16666666665697,
      "v": 66
    },
    {
      "midi": 58,
      "hit": false,
      "t": 100066.40625000001,
      "d": 350.26041666665697,
      "v": 72
    },
    {
      "midi": 54,
      "hit": false,
      "t": 101354.16666666667,
      "d": 157.55208333332848,
      "v": 87
    },
    {
      "midi": 60,
      "hit": false,
      "t": 101354.16666666667,
      "d": 157.55208333332848,
      "v": 87
    },
    {
      "midi": 63,
      "hit": false,
      "t": 101354.16666666667,
      "d": 157.55208333332848,
      "v": 87
    },
    {
      "midi": 70,
      "hit": false,
      "t": 101354.16666666667,
      "d": 157.55208333332848,
      "v": 87
    },
    {
      "midi": 46,
      "hit": false,
      "t": 102000,
      "d": 250,
      "v": 81
    },
    {
      "midi": 53,
      "hit": false,
      "t": 102000,
      "d": 250,
      "v": 81
    },
    {
      "midi": 62,
      "hit": false,
      "t": 102000,
      "d": 250,
      "v": 81
    },
    {
      "midi": 65,
      "hit": false,
      "t": 102000,
      "d": 250,
      "v": 81
    },
    {
      "midi": 53,
      "hit": false,
      "t": 102500,
      "d": 250,
      "v": 81
    },
    {
      "midi": 62,
      "hit": false,
      "t": 102500,
      "d": 250,
      "v": 81
    },
    {
      "midi": 68,
      "hit": false,
      "t": 102500,
      "d": 250,
      "v": 81
    },
    {
      "midi": 70,
      "hit": false,
      "t": 102500,
      "d": 250,
      "v": 81
    },
    {
      "midi": 52,
      "hit": false,
      "t": 103000,
      "d": 295.5729166666715,
      "v": 81
    },
    {
      "midi": 61,
      "hit": false,
      "t": 103000,
      "d": 295.5729166666715,
      "v": 81
    },
    {
      "midi": 67,
      "hit": false,
      "t": 103000,
      "d": 295.5729166666715,
      "v": 81
    },
    {
      "midi": 70,
      "hit": false,
      "t": 103000,
      "d": 295.5729166666715,
      "v": 81
    },
    {
      "midi": 51,
      "hit": false,
      "t": 103333.33333333334,
      "d": 212.23958333332848,
      "v": 81
    },
    {
      "midi": 60,
      "hit": false,
      "t": 103333.33333333334,
      "d": 212.23958333332848,
      "v": 81
    },
    {
      "midi": 66,
      "hit": false,
      "t": 103333.33333333334,
      "d": 212.23958333332848,
      "v": 81
    },
    {
      "midi": 70,
      "hit": false,
      "t": 103333.33333333334,
      "d": 212.23958333332848,
      "v": 81
    },
    {
      "midi": 50,
      "hit": false,
      "t": 103833.33333333334,
      "d": 166.66666666667152,
      "v": 81
    },
    {
      "midi": 58,
      "hit": false,
      "t": 103833.33333333334,
      "d": 166.66666666667152,
      "v": 81
    },
    {
      "midi": 65,
      "hit": false,
      "t": 103833.33333333334,
      "d": 166.66666666667152,
      "v": 81
    },
    {
      "midi": 70,
      "hit": false,
      "t": 103833.33333333334,
      "d": 166.66666666667152,
      "v": 81
    },
    {
      "midi": 58,
      "hit": false,
      "t": 106358.07291666669,
      "d": 111.97916666667152,
      "v": 91
    },
    {
      "midi": 63,
      "hit": false,
      "t": 106358.07291666669,
      "d": 111.97916666667152,
      "v": 91
    },
    {
      "midi": 67,
      "hit": false,
      "t": 106358.07291666669,
      "d": 111.97916666667152,
      "v": 91
    },
    {
      "midi": 74,
      "hit": false,
      "t": 106358.07291666669,
      "d": 111.97916666667152,
      "v": 91
    },
    {
      "midi": 58,
      "hit": false,
      "t": 107015.62500000003,
      "d": 891.9270833333285,
      "v": 87
    },
    {
      "midi": 63,
      "hit": false,
      "t": 107015.62500000003,
      "d": 891.9270833333285,
      "v": 87
    },
    {
      "midi": 67,
      "hit": false,
      "t": 107015.62500000003,
      "d": 891.9270833333285,
      "v": 87
    },
    {
      "midi": 74,
      "hit": false,
      "t": 107015.62500000003,
      "d": 891.9270833333285,
      "v": 87
    },
    {
      "midi": 74,
      "hit": false,
      "t": 108011.71875000003,
      "d": 1613.2812499999854,
      "v": 63
    },
    {
      "midi": 63,
      "hit": false,
      "t": 108024.73958333336,
      "d": 1545.572916666657,
      "v": 57
    },
    {
      "midi": 67,
      "hit": false,
      "t": 108028.64583333336,
      "d": 1587.2395833333285,
      "v": 68
    },
    {
      "midi": 57,
      "hit": false,
      "t": 108032.55208333336,
      "d": 1279.947916666657,
      "v": 59
    },
    {
      "midi": 51,
      "hit": false,
      "t": 108041.66666666669,
      "d": 1036.4583333333285,
      "v": 58
    },
    {
      "midi": 51,
      "hit": false,
      "t": 109328.12500000001,
      "d": 579.427083333343,
      "v": 64
    },
    {
      "midi": 57,
      "hit": false,
      "t": 109494.79166666669,
      "d": 404.9479166666715,
      "v": 82
    },
    {
      "midi": 63,
      "hit": false,
      "t": 109670.57291666669,
      "d": 191.40625,
      "v": 57
    },
    {
      "midi": 67,
      "hit": false,
      "t": 109824.21875000001,
      "d": 75.52083333334303,
      "v": 82
    },
    {
      "midi": 60,
      "hit": false,
      "t": 111024.73958333336,
      "d": 282.5520833333285,
      "v": 85
    },
    {
      "midi": 65,
      "hit": false,
      "t": 111024.73958333336,
      "d": 282.5520833333285,
      "v": 85
    },
    {
      "midi": 69,
      "hit": false,
      "t": 111024.73958333336,
      "d": 282.5520833333285,
      "v": 85
    },
    {
      "midi": 74,
      "hit": false,
      "t": 111024.73958333336,
      "d": 282.5520833333285,
      "v": 85
    },
    {
      "midi": 60,
      "hit": false,
      "t": 111399.73958333336,
      "d": 153.64583333332848,
      "v": 80
    },
    {
      "midi": 65,
      "hit": false,
      "t": 111399.73958333336,
      "d": 153.64583333332848,
      "v": 80
    },
    {
      "midi": 69,
      "hit": false,
      "t": 111399.73958333336,
      "d": 153.64583333332848,
      "v": 80
    },
    {
      "midi": 74,
      "hit": false,
      "t": 111399.73958333336,
      "d": 153.64583333332848,
      "v": 80
    },
    {
      "midi": 69,
      "hit": false,
      "t": 112032.55208333334,
      "d": 1579.4270833333285,
      "v": 66
    },
    {
      "midi": 76,
      "hit": false,
      "t": 112032.55208333334,
      "d": 1613.28125,
      "v": 57
    },
    {
      "midi": 65,
      "hit": false,
      "t": 112045.57291666667,
      "d": 1507.8125,
      "v": 52
    },
    {
      "midi": 53,
      "hit": false,
      "t": 112049.47916666667,
      "d": 1125,
      "v": 52
    },
    {
      "midi": 59,
      "hit": false,
      "t": 112057.29166666667,
      "d": 1312.5,
      "v": 48
    },
    {
      "midi": 53,
      "hit": false,
      "t": 113358.07291666667,
      "d": 475.2604166666715,
      "v": 68
    },
    {
      "midi": 59,
      "hit": false,
      "t": 113520.83333333334,
      "d": 324.21875,
      "v": 64
    },
    {
      "midi": 65,
      "hit": false,
      "t": 113703.12500000001,
      "d": 196.61458333332848,
      "v": 48
    },
    {
      "midi": 69,
      "hit": false,
      "t": 113858.07291666667,
      "d": 83.33333333334303,
      "v": 89
    },
    {
      "midi": 58,
      "hit": false,
      "t": 114358.07291666669,
      "d": 111.97916666667152,
      "v": 91
    },
    {
      "midi": 62,
      "hit": false,
      "t": 114358.07291666669,
      "d": 111.97916666667152,
      "v": 91
    },
    {
      "midi": 63,
      "hit": false,
      "t": 114358.07291666669,
      "d": 111.97916666667152,
      "v": 91
    },
    {
      "midi": 67,
      "hit": false,
      "t": 114358.07291666669,
      "d": 111.97916666667152,
      "v": 91
    },
    {
      "midi": 58,
      "hit": false,
      "t": 115015.62500000003,
      "d": 891.9270833333285,
      "v": 87
    },
    {
      "midi": 62,
      "hit": false,
      "t": 115015.62500000003,
      "d": 891.9270833333285,
      "v": 87
    },
    {
      "midi": 63,
      "hit": false,
      "t": 115015.62500000003,
      "d": 891.9270833333285,
      "v": 87
    },
    {
      "midi": 67,
      "hit": false,
      "t": 115015.62500000003,
      "d": 891.9270833333285,
      "v": 87
    },
    {
      "midi": 57,
      "hit": false,
      "t": 116358.0729166667,
      "d": 111.97916666667152,
      "v": 91
    },
    {
      "midi": 62,
      "hit": false,
      "t": 116358.0729166667,
      "d": 111.97916666667152,
      "v": 91
    },
    {
      "midi": 63,
      "hit": false,
      "t": 116358.0729166667,
      "d": 111.97916666667152,
      "v": 91
    },
    {
      "midi": 67,
      "hit": false,
      "t": 116358.0729166667,
      "d": 111.97916666667152,
      "v": 91
    },
    {
      "midi": 57,
      "hit": false,
      "t": 117015.62500000004,
      "d": 891.9270833333285,
      "v": 87
    },
    {
      "midi": 62,
      "hit": false,
      "t": 117015.62500000004,
      "d": 891.9270833333285,
      "v": 87
    },
    {
      "midi": 63,
      "hit": false,
      "t": 117015.62500000004,
      "d": 891.9270833333285,
      "v": 87
    },
    {
      "midi": 67,
      "hit": false,
      "t": 117015.62500000004,
      "d": 891.9270833333285,
      "v": 87
    },
    {
      "midi": 74,
      "hit": false,
      "t": 118011.71875000004,
      "d": 1613.2812499999854,
      "v": 63
    },
    {
      "midi": 62,
      "hit": false,
      "t": 118024.73958333337,
      "d": 1545.572916666657,
      "v": 57
    },
    {
      "midi": 65,
      "hit": false,
      "t": 118028.64583333337,
      "d": 1587.2395833333285,
      "v": 68
    },
    {
      "midi": 58,
      "hit": false,
      "t": 118032.55208333337,
      "d": 1279.947916666657,
      "v": 59
    },
    {
      "midi": 50,
      "hit": false,
      "t": 118041.6666666667,
      "d": 1036.4583333333285,
      "v": 58
    },
    {
      "midi": 50,
      "hit": false,
      "t": 119328.12500000003,
      "d": 579.427083333343,
      "v": 64
    },
    {
      "midi": 58,
      "hit": false,
      "t": 119494.7916666667,
      "d": 404.9479166666715,
      "v": 82
    },
    {
      "midi": 62,
      "hit": false,
      "t": 119670.5729166667,
      "d": 191.40625,
      "v": 57
    },
    {
      "midi": 65,
      "hit": false,
      "t": 119824.21875000003,
      "d": 75.52083333334303,
      "v": 82
    },
    {
      "midi": 56,
      "hit": false,
      "t": 121024.73958333337,
      "d": 282.5520833333285,
      "v": 85
    },
    {
      "midi": 62,
      "hit": false,
      "t": 121024.73958333337,
      "d": 282.5520833333285,
      "v": 85
    },
    {
      "midi": 65,
      "hit": false,
      "t": 121024.73958333337,
      "d": 282.5520833333285,
      "v": 85
    },
    {
      "midi": 71,
      "hit": false,
      "t": 121024.73958333337,
      "d": 282.5520833333285,
      "v": 85
    },
    {
      "midi": 56,
      "hit": false,
      "t": 121399.73958333337,
      "d": 153.64583333332848,
      "v": 80
    },
    {
      "midi": 62,
      "hit": false,
      "t": 121399.73958333337,
      "d": 153.64583333332848,
      "v": 80
    },
    {
      "midi": 65,
      "hit": false,
      "t": 121399.73958333337,
      "d": 153.64583333332848,
      "v": 80
    },
    {
      "midi": 71,
      "hit": false,
      "t": 121399.73958333337,
      "d": 153.64583333332848,
      "v": 80
    },
    {
      "midi": 67,
      "hit": false,
      "t": 122032.55208333336,
      "d": 1579.4270833333285,
      "v": 66
    },
    {
      "midi": 74,
      "hit": false,
      "t": 122032.55208333336,
      "d": 1613.28125,
      "v": 57
    },
    {
      "midi": 63,
      "hit": false,
      "t": 122045.57291666669,
      "d": 1507.8125,
      "v": 52
    },
    {
      "midi": 51,
      "hit": false,
      "t": 122049.47916666669,
      "d": 1125,
      "v": 52
    },
    {
      "midi": 58,
      "hit": false,
      "t": 122057.29166666669,
      "d": 1312.5,
      "v": 48
    },
    {
      "midi": 51,
      "hit": false,
      "t": 123358.07291666669,
      "d": 475.2604166666715,
      "v": 68
    },
    {
      "midi": 58,
      "hit": false,
      "t": 123520.83333333336,
      "d": 324.21875,
      "v": 64
    },
    {
      "midi": 63,
      "hit": false,
      "t": 123703.12500000003,
      "d": 196.61458333332848,
      "v": 48
    },
    {
      "midi": 67,
      "hit": false,
      "t": 123858.07291666669,
      "d": 83.33333333334303,
      "v": 89
    },
    {
      "midi": 71,
      "hit": false,
      "t": 124011.71875000003,
      "d": 1613.2812499999854,
      "v": 63
    },
    {
      "midi": 63,
      "hit": false,
      "t": 124024.73958333336,
      "d": 1545.572916666657,
      "v": 57
    },
    {
      "midi": 67,
      "hit": false,
      "t": 124028.64583333336,
      "d": 1587.2395833333285,
      "v": 68
    },
    {
      "midi": 57,
      "hit": false,
      "t": 124032.55208333336,
      "d": 1279.947916666657,
      "v": 59
    },
    {
      "midi": 51,
      "hit": false,
      "t": 124041.66666666669,
      "d": 1036.4583333333285,
      "v": 58
    },
    {
      "midi": 51,
      "hit": false,
      "t": 125328.12500000001,
      "d": 579.427083333343,
      "v": 64
    },
    {
      "midi": 57,
      "hit": false,
      "t": 125494.79166666669,
      "d": 404.9479166666715,
      "v": 82
    },
    {
      "midi": 63,
      "hit": false,
      "t": 125670.57291666669,
      "d": 191.40625,
      "v": 57
    },
    {
      "midi": 67,
      "hit": false,
      "t": 125824.21875000001,
      "d": 75.52083333334303,
      "v": 82
    },
    {
      "midi": 53,
      "hit": false,
      "t": 126358.0729166667,
      "d": 111.97916666667152,
      "v": 91
    },
    {
      "midi": 60,
      "hit": false,
      "t": 126358.0729166667,
      "d": 111.97916666667152,
      "v": 91
    },
    {
      "midi": 64,
      "hit": false,
      "t": 126358.0729166667,
      "d": 111.97916666667152,
      "v": 91
    },
    {
      "midi": 69,
      "hit": false,
      "t": 126358.0729166667,
      "d": 111.97916666667152,
      "v": 91
    },
    {
      "midi": 53,
      "hit": false,
      "t": 127015.62500000004,
      "d": 891.9270833333285,
      "v": 87
    },
    {
      "midi": 60,
      "hit": false,
      "t": 127015.62500000004,
      "d": 891.9270833333285,
      "v": 87
    },
    {
      "midi": 64,
      "hit": false,
      "t": 127015.62500000004,
      "d": 891.9270833333285,
      "v": 87
    },
    {
      "midi": 69,
      "hit": false,
      "t": 127015.62500000004,
      "d": 891.9270833333285,
      "v": 87
    },
    {
      "midi": 53,
      "hit": false,
      "t": 129024.73958333337,
      "d": 282.5520833333285,
      "v": 85
    },
    {
      "midi": 59,
      "hit": false,
      "t": 129024.73958333337,
      "d": 282.5520833333285,
      "v": 85
    },
    {
      "midi": 64,
      "hit": false,
      "t": 129024.73958333337,
      "d": 282.5520833333285,
      "v": 85
    },
    {
      "midi": 69,
      "hit": false,
      "t": 129024.73958333337,
      "d": 282.5520833333285,
      "v": 85
    },
    {
      "midi": 53,
      "hit": false,
      "t": 129399.73958333337,
      "d": 153.64583333332848,
      "v": 80
    },
    {
      "midi": 59,
      "hit": false,
      "t": 129399.73958333337,
      "d": 153.64583333332848,
      "v": 80
    },
    {
      "midi": 64,
      "hit": false,
      "t": 129399.73958333337,
      "d": 153.64583333332848,
      "v": 80
    },
    {
      "midi": 69,
      "hit": false,
      "t": 129399.73958333337,
      "d": 153.64583333332848,
      "v": 80
    },
    {
      "midi": 67,
      "hit": false,
      "t": 130032.55208333336,
      "d": 1579.4270833333285,
      "v": 66
    },
    {
      "midi": 72,
      "hit": false,
      "t": 130032.55208333336,
      "d": 1613.2812499999854,
      "v": 57
    },
    {
      "midi": 63,
      "hit": false,
      "t": 130045.57291666669,
      "d": 1507.8125,
      "v": 52
    },
    {
      "midi": 51,
      "hit": false,
      "t": 130049.47916666669,
      "d": 1125,
      "v": 52
    },
    {
      "midi": 58,
      "hit": false,
      "t": 130057.29166666669,
      "d": 1312.5,
      "v": 48
    },
    {
      "midi": 51,
      "hit": false,
      "t": 131358.0729166667,
      "d": 475.26041666665697,
      "v": 68
    },
    {
      "midi": 58,
      "hit": false,
      "t": 131520.83333333334,
      "d": 324.21875,
      "v": 64
    },
    {
      "midi": 63,
      "hit": false,
      "t": 131703.125,
      "d": 196.61458333334303,
      "v": 48
    },
    {
      "midi": 67,
      "hit": false,
      "t": 131858.0729166667,
      "d": 83.33333333331393,
      "v": 89
    },
    {
      "midi": 51,
      "hit": false,
      "t": 133024.73958333334,
      "d": 282.55208333334303,
      "v": 85
    },
    {
      "midi": 57,
      "hit": false,
      "t": 133024.73958333334,
      "d": 282.55208333334303,
      "v": 85
    },
    {
      "midi": 59,
      "hit": false,
      "t": 133024.73958333334,
      "d": 282.55208333334303,
      "v": 85
    },
    {
      "midi": 62,
      "hit": false,
      "t": 133024.73958333334,
      "d": 282.55208333334303,
      "v": 85
    },
    {
      "midi": 67,
      "hit": false,
      "t": 133024.73958333334,
      "d": 282.55208333334303,
      "v": 85
    },
    {
      "midi": 51,
      "hit": false,
      "t": 133399.73958333334,
      "d": 153.64583333334303,
      "v": 80
    },
    {
      "midi": 57,
      "hit": false,
      "t": 133399.73958333334,
      "d": 153.64583333334303,
      "v": 80
    },
    {
      "midi": 59,
      "hit": false,
      "t": 133399.73958333334,
      "d": 153.64583333334303,
      "v": 80
    },
    {
      "midi": 62,
      "hit": false,
      "t": 133399.73958333334,
      "d": 153.64583333334303,
      "v": 80
    },
    {
      "midi": 67,
      "hit": false,
      "t": 133399.73958333334,
      "d": 153.64583333334303,
      "v": 80
    },
    {
      "midi": 65,
      "hit": false,
      "t": 134032.55208333337,
      "d": 1579.427083333343,
      "v": 66
    },
    {
      "midi": 72,
      "hit": false,
      "t": 134032.55208333337,
      "d": 1613.28125,
      "v": 57
    },
    {
      "midi": 62,
      "hit": false,
      "t": 134045.57291666672,
      "d": 1507.8125,
      "v": 52
    },
    {
      "midi": 50,
      "hit": false,
      "t": 134049.47916666672,
      "d": 1125,
      "v": 52
    },
    {
      "midi": 57,
      "hit": false,
      "t": 134057.29166666672,
      "d": 1312.5,
      "v": 48
    },
    {
      "midi": 50,
      "hit": false,
      "t": 135358.07291666672,
      "d": 475.26041666665697,
      "v": 68
    },
    {
      "midi": 57,
      "hit": false,
      "t": 135520.83333333337,
      "d": 324.21875,
      "v": 64
    },
    {
      "midi": 62,
      "hit": false,
      "t": 135703.12500000003,
      "d": 196.61458333334303,
      "v": 48
    },
    {
      "midi": 65,
      "hit": false,
      "t": 135858.07291666672,
      "d": 83.33333333331393,
      "v": 89
    },
    {
      "midi": 55,
      "hit": false,
      "t": 136358.0729166667,
      "d": 111.97916666665697,
      "v": 91
    },
    {
      "midi": 62,
      "hit": false,
      "t": 136358.0729166667,
      "d": 111.97916666665697,
      "v": 91
    },
    {
      "midi": 65,
      "hit": false,
      "t": 136358.0729166667,
      "d": 111.97916666665697,
      "v": 91
    },
    {
      "midi": 70,
      "hit": false,
      "t": 136358.0729166667,
      "d": 111.97916666665697,
      "v": 91
    },
    {
      "midi": 55,
      "hit": false,
      "t": 137015.625,
      "d": 891.927083333343,
      "v": 87
    },
    {
      "midi": 62,
      "hit": false,
      "t": 137015.625,
      "d": 891.927083333343,
      "v": 87
    },
    {
      "midi": 65,
      "hit": false,
      "t": 137015.625,
      "d": 891.927083333343,
      "v": 87
    },
    {
      "midi": 70,
      "hit": false,
      "t": 137015.625,
      "d": 891.927083333343,
      "v": 87
    },
    {
      "midi": 72,
      "hit": false,
      "t": 138011.71875,
      "d": 1613.281250000029,
      "v": 63
    },
    {
      "midi": 63,
      "hit": false,
      "t": 138024.73958333334,
      "d": 1545.572916666686,
      "v": 57
    },
    {
      "midi": 67,
      "hit": false,
      "t": 138028.64583333334,
      "d": 1587.239583333343,
      "v": 68
    },
    {
      "midi": 56,
      "hit": false,
      "t": 138032.55208333334,
      "d": 1279.947916666686,
      "v": 59
    },
    {
      "midi": 51,
      "hit": false,
      "t": 138041.6666666667,
      "d": 1036.458333333343,
      "v": 58
    },
    {
      "midi": 51,
      "hit": false,
      "t": 139328.12500000003,
      "d": 579.4270833333139,
      "v": 64
    },
    {
      "midi": 56,
      "hit": false,
      "t": 139494.7916666667,
      "d": 404.94791666665697,
      "v": 82
    },
    {
      "midi": 63,
      "hit": false,
      "t": 139670.5729166667,
      "d": 191.40625,
      "v": 57
    },
    {
      "midi": 67,
      "hit": false,
      "t": 139824.21875000003,
      "d": 75.52083333331393,
      "v": 82
    },
    {
      "midi": 56,
      "hit": false,
      "t": 140358.07291666666,
      "d": 111.97916666665697,
      "v": 91
    },
    {
      "midi": 62,
      "hit": false,
      "t": 140358.07291666666,
      "d": 111.97916666665697,
      "v": 91
    },
    {
      "midi": 66,
      "hit": false,
      "t": 140358.07291666666,
      "d": 111.97916666665697,
      "v": 91
    },
    {
      "midi": 71,
      "hit": false,
      "t": 140358.07291666666,
      "d": 111.97916666665697,
      "v": 91
    },
    {
      "midi": 56,
      "hit": false,
      "t": 141015.62499999997,
      "d": 891.927083333343,
      "v": 87
    },
    {
      "midi": 62,
      "hit": false,
      "t": 141015.62499999997,
      "d": 891.927083333343,
      "v": 87
    },
    {
      "midi": 66,
      "hit": false,
      "t": 141015.62499999997,
      "d": 891.927083333343,
      "v": 87
    },
    {
      "midi": 71,
      "hit": false,
      "t": 141015.62499999997,
      "d": 891.927083333343,
      "v": 87
    },
    {
      "midi": 77,
      "hit": false,
      "t": 143041.66666666663,
      "d": 291.66666666668607,
      "v": 80
    },
    {
      "midi": 70,
      "hit": false,
      "t": 143045.57291666663,
      "d": 282.55208333334303,
      "v": 82
    },
    {
      "midi": 67,
      "hit": false,
      "t": 143045.57291666663,
      "d": 291.66666666668607,
      "v": 80
    },
    {
      "midi": 55,
      "hit": false,
      "t": 143057.29166666663,
      "d": 270.83333333334303,
      "v": 70
    },
    {
      "midi": 60,
      "hit": false,
      "t": 143057.29166666663,
      "d": 287.76041666668607,
      "v": 57
    },
    {
      "midi": 70,
      "hit": false,
      "t": 143990.88541666666,
      "d": 554.6875000000291,
      "v": 80
    },
    {
      "midi": 77,
      "hit": false,
      "t": 143994.79166666666,
      "d": 554.6875000000291,
      "v": 72
    },
    {
      "midi": 60,
      "hit": false,
      "t": 144000,
      "d": 520.833333333343,
      "v": 68
    },
    {
      "midi": 67,
      "hit": false,
      "t": 144000,
      "d": 557.2916666666861,
      "v": 82
    },
    {
      "midi": 55,
      "hit": false,
      "t": 144003.90625,
      "d": 516.927083333343,
      "v": 82
    },
    {
      "midi": 70,
      "hit": false,
      "t": 144869.7916666667,
      "d": 509.11458333334303,
      "v": 87
    },
    {
      "midi": 77,
      "hit": false,
      "t": 144875.00000000003,
      "d": 490.88541666665697,
      "v": 72
    },
    {
      "midi": 67,
      "hit": false,
      "t": 144878.90625000003,
      "d": 511.71875,
      "v": 80
    },
    {
      "midi": 60,
      "hit": false,
      "t": 144878.90625000003,
      "d": 537.760416666657,
      "v": 76
    },
    {
      "midi": 55,
      "hit": false,
      "t": 144882.81250000003,
      "d": 420.57291666665697,
      "v": 76
    },
    {
      "midi": 51,
      "hit": false,
      "t": 145386.71875000003,
      "d": 96.35416666665697,
      "v": 76
    },
    {
      "midi": 70,
      "hit": false,
      "t": 145528.64583333334,
      "d": 266.92708333334303,
      "v": 85
    },
    {
      "midi": 67,
      "hit": false,
      "t": 145532.55208333334,
      "d": 270.83333333334303,
      "v": 85
    },
    {
      "midi": 77,
      "hit": false,
      "t": 145532.55208333334,
      "d": 270.83333333334303,
      "v": 82
    },
    {
      "midi": 55,
      "hit": false,
      "t": 145536.45833333334,
      "d": 250,
      "v": 87
    },
    {
      "midi": 60,
      "hit": false,
      "t": 145541.6666666667,
      "d": 257.8125,
      "v": 95
    },
    {
      "midi": 74,
      "hit": false,
      "t": 146011.71875000003,
      "d": 1613.281250000029,
      "v": 63
    },
    {
      "midi": 65,
      "hit": false,
      "t": 146024.73958333337,
      "d": 1545.572916666686,
      "v": 57
    },
    {
      "midi": 69,
      "hit": false,
      "t": 146028.64583333337,
      "d": 1587.239583333343,
      "v": 68
    },
    {
      "midi": 58,
      "hit": false,
      "t": 146032.55208333337,
      "d": 1279.947916666686,
      "v": 59
    },
    {
      "midi": 53,
      "hit": false,
      "t": 146041.66666666672,
      "d": 1036.458333333343,
      "v": 58
    },
    {
      "midi": 53,
      "hit": false,
      "t": 147328.12500000006,
      "d": 579.4270833333139,
      "v": 64
    },
    {
      "midi": 58,
      "hit": false,
      "t": 147494.79166666672,
      "d": 404.94791666665697,
      "v": 82
    },
    {
      "midi": 65,
      "hit": false,
      "t": 147670.57291666672,
      "d": 191.40625,
      "v": 57
    },
    {
      "midi": 69,
      "hit": false,
      "t": 147824.21875000006,
      "d": 75.52083333331393,
      "v": 82
    },
    {
      "midi": 52,
      "hit": false,
      "t": 149024.73958333337,
      "d": 282.55208333334303,
      "v": 85
    },
    {
      "midi": 58,
      "hit": false,
      "t": 149024.73958333337,
      "d": 282.55208333334303,
      "v": 85
    },
    {
      "midi": 62,
      "hit": false,
      "t": 149024.73958333337,
      "d": 282.55208333334303,
      "v": 85
    },
    {
      "midi": 69,
      "hit": false,
      "t": 149024.73958333337,
      "d": 282.55208333334303,
      "v": 85
    },
    {
      "midi": 52,
      "hit": false,
      "t": 149399.73958333337,
      "d": 153.64583333334303,
      "v": 80
    },
    {
      "midi": 58,
      "hit": false,
      "t": 149399.73958333337,
      "d": 153.64583333334303,
      "v": 80
    },
    {
      "midi": 62,
      "hit": false,
      "t": 149399.73958333337,
      "d": 153.64583333334303,
      "v": 80
    },
    {
      "midi": 69,
      "hit": false,
      "t": 149399.73958333337,
      "d": 153.64583333334303,
      "v": 80
    },
    {
      "midi": 72,
      "hit": false,
      "t": 150011.71875000006,
      "d": 1613.281250000029,
      "v": 63
    },
    {
      "midi": 63,
      "hit": false,
      "t": 150024.7395833334,
      "d": 1545.572916666686,
      "v": 57
    },
    {
      "midi": 67,
      "hit": false,
      "t": 150028.6458333334,
      "d": 1587.239583333343,
      "v": 68
    },
    {
      "midi": 57,
      "hit": false,
      "t": 150032.5520833334,
      "d": 1279.947916666686,
      "v": 59
    },
    {
      "midi": 51,
      "hit": false,
      "t": 150041.66666666674,
      "d": 1036.458333333343,
      "v": 58
    },
    {
      "midi": 51,
      "hit": false,
      "t": 151328.1250000001,
      "d": 579.4270833333139,
      "v": 64
    },
    {
      "midi": 57,
      "hit": false,
      "t": 151494.79166666674,
      "d": 404.94791666665697,
      "v": 82
    },
    {
      "midi": 63,
      "hit": false,
      "t": 151670.57291666674,
      "d": 191.40625,
      "v": 57
    },
    {
      "midi": 67,
      "hit": false,
      "t": 151824.2187500001,
      "d": 75.52083333331393,
      "v": 82
    },
    {
      "midi": 53,
      "hit": false,
      "t": 152354.16666666672,
      "d": 157.55208333334303,
      "v": 87
    },
    {
      "midi": 60,
      "hit": false,
      "t": 152354.16666666672,
      "d": 157.55208333334303,
      "v": 87
    },
    {
      "midi": 64,
      "hit": false,
      "t": 152354.16666666672,
      "d": 157.55208333334303,
      "v": 87
    },
    {
      "midi": 69,
      "hit": false,
      "t": 152354.16666666672,
      "d": 157.55208333334303,
      "v": 87
    },
    {
      "midi": 79,
      "hit": false,
      "t": 153041.66666666672,
      "d": 337.23958333334303,
      "v": 76
    },
    {
      "midi": 76,
      "hit": false,
      "t": 153045.57291666672,
      "d": 341.14583333334303,
      "v": 70
    },
    {
      "midi": 85,
      "hit": false,
      "t": 153049.47916666672,
      "d": 346.35416666668607,
      "v": 76
    },
    {
      "midi": 64,
      "hit": false,
      "t": 153053.38541666672,
      "d": 346.35416666668607,
      "v": 76
    },
    {
      "midi": 67,
      "hit": false,
      "t": 153053.38541666672,
      "d": 354.16666666668607,
      "v": 66
    },
    {
      "midi": 58,
      "hit": false,
      "t": 153066.40625000006,
      "d": 350.26041666668607,
      "v": 72
    },
    {
      "midi": 51,
      "hit": false,
      "t": 154358.07291666674,
      "d": 111.97916666665697,
      "v": 91
    },
    {
      "midi": 58,
      "hit": false,
      "t": 154358.07291666674,
      "d": 111.97916666665697,
      "v": 91
    },
    {
      "midi": 60,
      "hit": false,
      "t": 154358.07291666674,
      "d": 111.97916666665697,
      "v": 91
    },
    {
      "midi": 67,
      "hit": false,
      "t": 154358.07291666674,
      "d": 111.97916666665697,
      "v": 91
    },
    {
      "midi": 51,
      "hit": false,
      "t": 155015.62500000006,
      "d": 891.927083333343,
      "v": 87
    },
    {
      "midi": 58,
      "hit": false,
      "t": 155015.62500000006,
      "d": 891.927083333343,
      "v": 87
    },
    {
      "midi": 60,
      "hit": false,
      "t": 155015.62500000006,
      "d": 891.927083333343,
      "v": 87
    },
    {
      "midi": 67,
      "hit": false,
      "t": 155015.62500000006,
      "d": 891.927083333343,
      "v": 87
    },
    {
      "midi": 51,
      "hit": false,
      "t": 157024.7395833334,
      "d": 282.55208333334303,
      "v": 85
    },
    {
      "midi": 57,
      "hit": false,
      "t": 157024.7395833334,
      "d": 282.55208333334303,
      "v": 85
    },
    {
      "midi": 60,
      "hit": false,
      "t": 157024.7395833334,
      "d": 282.55208333334303,
      "v": 85
    },
    {
      "midi": 67,
      "hit": false,
      "t": 157024.7395833334,
      "d": 282.55208333334303,
      "v": 85
    },
    {
      "midi": 51,
      "hit": false,
      "t": 157399.7395833334,
      "d": 153.64583333334303,
      "v": 80
    },
    {
      "midi": 57,
      "hit": false,
      "t": 157399.7395833334,
      "d": 153.64583333334303,
      "v": 80
    },
    {
      "midi": 60,
      "hit": false,
      "t": 157399.7395833334,
      "d": 153.64583333334303,
      "v": 80
    },
    {
      "midi": 67,
      "hit": false,
      "t": 157399.7395833334,
      "d": 153.64583333334303,
      "v": 80
    },
    {
      "midi": 53,
      "hit": false,
      "t": 158358.07291666674,
      "d": 111.97916666665697,
      "v": 91
    },
    {
      "midi": 60,
      "hit": false,
      "t": 158358.07291666674,
      "d": 111.97916666665697,
      "v": 91
    },
    {
      "midi": 62,
      "hit": false,
      "t": 158358.07291666674,
      "d": 111.97916666665697,
      "v": 91
    },
    {
      "midi": 69,
      "hit": false,
      "t": 158358.07291666674,
      "d": 111.97916666665697,
      "v": 91
    },
    {
      "midi": 53,
      "hit": false,
      "t": 159015.62500000006,
      "d": 891.927083333343,
      "v": 87
    },
    {
      "midi": 60,
      "hit": false,
      "t": 159015.62500000006,
      "d": 891.927083333343,
      "v": 87
    },
    {
      "midi": 62,
      "hit": false,
      "t": 159015.62500000006,
      "d": 891.927083333343,
      "v": 87
    },
    {
      "midi": 69,
      "hit": false,
      "t": 159015.62500000006,
      "d": 891.927083333343,
      "v": 87
    },
    {
      "midi": 53,
      "hit": false,
      "t": 161024.7395833334,
      "d": 282.55208333334303,
      "v": 85
    },
    {
      "midi": 59,
      "hit": false,
      "t": 161024.7395833334,
      "d": 282.55208333334303,
      "v": 85
    },
    {
      "midi": 64,
      "hit": false,
      "t": 161024.7395833334,
      "d": 282.55208333334303,
      "v": 85
    },
    {
      "midi": 69,
      "hit": false,
      "t": 161024.7395833334,
      "d": 282.55208333334303,
      "v": 85
    },
    {
      "midi": 53,
      "hit": false,
      "t": 161399.7395833334,
      "d": 153.64583333334303,
      "v": 80
    },
    {
      "midi": 59,
      "hit": false,
      "t": 161399.7395833334,
      "d": 153.64583333334303,
      "v": 80
    },
    {
      "midi": 64,
      "hit": false,
      "t": 161399.7395833334,
      "d": 153.64583333334303,
      "v": 80
    },
    {
      "midi": 69,
      "hit": false,
      "t": 161399.7395833334,
      "d": 153.64583333334303,
      "v": 80
    },
    {
      "midi": 72,
      "hit": false,
      "t": 162011.7187500001,
      "d": 1613.281250000029,
      "v": 63
    },
    {
      "midi": 63,
      "hit": false,
      "t": 162024.73958333343,
      "d": 1545.572916666686,
      "v": 57
    },
    {
      "midi": 67,
      "hit": false,
      "t": 162028.64583333343,
      "d": 1587.239583333343,
      "v": 68
    },
    {
      "midi": 58,
      "hit": false,
      "t": 162032.55208333343,
      "d": 1279.947916666686,
      "v": 59
    },
    {
      "midi": 51,
      "hit": false,
      "t": 162041.66666666677,
      "d": 1036.458333333343,
      "v": 58
    },
    {
      "midi": 51,
      "hit": false,
      "t": 163328.12500000012,
      "d": 579.4270833333139,
      "v": 64
    },
    {
      "midi": 58,
      "hit": false,
      "t": 163494.79166666677,
      "d": 404.94791666665697,
      "v": 82
    },
    {
      "midi": 63,
      "hit": false,
      "t": 163670.57291666677,
      "d": 191.40625,
      "v": 57
    },
    {
      "midi": 67,
      "hit": false,
      "t": 163824.21875000012,
      "d": 75.52083333331393,
      "v": 82
    },
    {
      "midi": 51,
      "hit": false,
      "t": 164358.07291666674,
      "d": 111.97916666665697,
      "v": 91
    },
    {
      "midi": 55,
      "hit": false,
      "t": 164358.07291666674,
      "d": 111.97916666665697,
      "v": 91
    },
    {
      "midi": 57,
      "hit": false,
      "t": 164358.07291666674,
      "d": 111.97916666665697,
      "v": 91
    },
    {
      "midi": 60,
      "hit": false,
      "t": 164358.07291666674,
      "d": 111.97916666665697,
      "v": 91
    },
    {
      "midi": 51,
      "hit": false,
      "t": 165015.62500000006,
      "d": 891.927083333343,
      "v": 87
    },
    {
      "midi": 55,
      "hit": false,
      "t": 165015.62500000006,
      "d": 891.927083333343,
      "v": 87
    },
    {
      "midi": 57,
      "hit": false,
      "t": 165015.62500000006,
      "d": 891.927083333343,
      "v": 87
    },
    {
      "midi": 60,
      "hit": false,
      "t": 165015.62500000006,
      "d": 891.927083333343,
      "v": 87
    },
    {
      "midi": 75,
      "hit": false,
      "t": 166011.71875000006,
      "d": 1613.281250000029,
      "v": 63
    },
    {
      "midi": 66,
      "hit": false,
      "t": 166024.7395833334,
      "d": 1545.572916666686,
      "v": 57
    },
    {
      "midi": 70,
      "hit": false,
      "t": 166028.6458333334,
      "d": 1587.239583333343,
      "v": 68
    },
    {
      "midi": 60,
      "hit": false,
      "t": 166032.5520833334,
      "d": 1279.947916666686,
      "v": 59
    },
    {
      "midi": 54,
      "hit": false,
      "t": 166041.66666666674,
      "d": 1036.458333333343,
      "v": 58
    },
    {
      "midi": 54,
      "hit": false,
      "t": 167328.1250000001,
      "d": 579.4270833333139,
      "v": 64
    },
    {
      "midi": 60,
      "hit": false,
      "t": 167494.79166666674,
      "d": 404.94791666665697,
      "v": 82
    },
    {
      "midi": 66,
      "hit": false,
      "t": 167670.57291666674,
      "d": 191.40625,
      "v": 57
    },
    {
      "midi": 70,
      "hit": false,
      "t": 167824.2187500001,
      "d": 75.52083333331393,
      "v": 82
    },
    {
      "midi": 53,
      "hit": false,
      "t": 169024.7395833334,
      "d": 282.55208333334303,
      "v": 85
    },
    {
      "midi": 59,
      "hit": false,
      "t": 169024.7395833334,
      "d": 282.55208333334303,
      "v": 85
    },
    {
      "midi": 64,
      "hit": false,
      "t": 169024.7395833334,
      "d": 282.55208333334303,
      "v": 85
    },
    {
      "midi": 69,
      "hit": false,
      "t": 169024.7395833334,
      "d": 282.55208333334303,
      "v": 85
    },
    {
      "midi": 53,
      "hit": false,
      "t": 169399.7395833334,
      "d": 153.64583333334303,
      "v": 80
    },
    {
      "midi": 59,
      "hit": false,
      "t": 169399.7395833334,
      "d": 153.64583333334303,
      "v": 80
    },
    {
      "midi": 64,
      "hit": false,
      "t": 169399.7395833334,
      "d": 153.64583333334303,
      "v": 80
    },
    {
      "midi": 69,
      "hit": false,
      "t": 169399.7395833334,
      "d": 153.64583333334303,
      "v": 80
    },
    {
      "midi": 51,
      "hit": false,
      "t": 171024.73958333343,
      "d": 282.55208333334303,
      "v": 85
    },
    {
      "midi": 58,
      "hit": false,
      "t": 171024.73958333343,
      "d": 282.55208333334303,
      "v": 85
    },
    {
      "midi": 62,
      "hit": false,
      "t": 171024.73958333343,
      "d": 282.55208333334303,
      "v": 85
    },
    {
      "midi": 67,
      "hit": false,
      "t": 171024.73958333343,
      "d": 282.55208333334303,
      "v": 85
    },
    {
      "midi": 51,
      "hit": false,
      "t": 171399.73958333343,
      "d": 153.64583333334303,
      "v": 80
    },
    {
      "midi": 58,
      "hit": false,
      "t": 171399.73958333343,
      "d": 153.64583333334303,
      "v": 80
    },
    {
      "midi": 62,
      "hit": false,
      "t": 171399.73958333343,
      "d": 153.64583333334303,
      "v": 80
    },
    {
      "midi": 67,
      "hit": false,
      "t": 171399.73958333343,
      "d": 153.64583333334303,
      "v": 80
    },
    {
      "midi": 54,
      "hit": false,
      "t": 172358.07291666677,
      "d": 111.97916666665697,
      "v": 91
    },
    {
      "midi": 60,
      "hit": false,
      "t": 172358.07291666677,
      "d": 111.97916666665697,
      "v": 91
    },
    {
      "midi": 63,
      "hit": false,
      "t": 172358.07291666677,
      "d": 111.97916666665697,
      "v": 91
    },
    {
      "midi": 70,
      "hit": false,
      "t": 172358.07291666677,
      "d": 111.97916666665697,
      "v": 91
    },
    {
      "midi": 54,
      "hit": false,
      "t": 173015.6250000001,
      "d": 891.927083333343,
      "v": 87
    },
    {
      "midi": 60,
      "hit": false,
      "t": 173015.6250000001,
      "d": 891.927083333343,
      "v": 87
    },
    {
      "midi": 63,
      "hit": false,
      "t": 173015.6250000001,
      "d": 891.927083333343,
      "v": 87
    },
    {
      "midi": 70,
      "hit": false,
      "t": 173015.6250000001,
      "d": 891.927083333343,
      "v": 87
    },
    {
      "midi": 53,
      "hit": false,
      "t": 175024.73958333343,
      "d": 282.55208333334303,
      "v": 85
    },
    {
      "midi": 57,
      "hit": false,
      "t": 175024.73958333343,
      "d": 282.55208333334303,
      "v": 85
    },
    {
      "midi": 60,
      "hit": false,
      "t": 175024.73958333343,
      "d": 282.55208333334303,
      "v": 85
    },
    {
      "midi": 64,
      "hit": false,
      "t": 175024.73958333343,
      "d": 282.55208333334303,
      "v": 85
    },
    {
      "midi": 53,
      "hit": false,
      "t": 175399.73958333343,
      "d": 153.64583333334303,
      "v": 80
    },
    {
      "midi": 57,
      "hit": false,
      "t": 175399.73958333343,
      "d": 153.64583333334303,
      "v": 80
    },
    {
      "midi": 60,
      "hit": false,
      "t": 175399.73958333343,
      "d": 153.64583333334303,
      "v": 80
    },
    {
      "midi": 64,
      "hit": false,
      "t": 175399.73958333343,
      "d": 153.64583333334303,
      "v": 80
    },
    {
      "midi": 53,
      "hit": false,
      "t": 176358.07291666677,
      "d": 111.97916666665697,
      "v": 91
    },
    {
      "midi": 59,
      "hit": false,
      "t": 176358.07291666677,
      "d": 111.97916666665697,
      "v": 91
    },
    {
      "midi": 63,
      "hit": false,
      "t": 176358.07291666677,
      "d": 111.97916666665697,
      "v": 91
    },
    {
      "midi": 68,
      "hit": false,
      "t": 176358.07291666677,
      "d": 111.97916666665697,
      "v": 91
    },
    {
      "midi": 53,
      "hit": false,
      "t": 177015.6250000001,
      "d": 891.927083333343,
      "v": 87
    },
    {
      "midi": 59,
      "hit": false,
      "t": 177015.6250000001,
      "d": 891.927083333343,
      "v": 87
    },
    {
      "midi": 63,
      "hit": false,
      "t": 177015.6250000001,
      "d": 891.927083333343,
      "v": 87
    },
    {
      "midi": 68,
      "hit": false,
      "t": 177015.6250000001,
      "d": 891.927083333343,
      "v": 87
    },
    {
      "midi": 51,
      "hit": false,
      "t": 179024.73958333343,
      "d": 282.55208333334303,
      "v": 85
    },
    {
      "midi": 58,
      "hit": false,
      "t": 179024.73958333343,
      "d": 282.55208333334303,
      "v": 85
    },
    {
      "midi": 62,
      "hit": false,
      "t": 179024.73958333343,
      "d": 282.55208333334303,
      "v": 85
    },
    {
      "midi": 67,
      "hit": false,
      "t": 179024.73958333343,
      "d": 282.55208333334303,
      "v": 85
    },
    {
      "midi": 51,
      "hit": false,
      "t": 179399.73958333343,
      "d": 153.64583333334303,
      "v": 80
    },
    {
      "midi": 58,
      "hit": false,
      "t": 179399.73958333343,
      "d": 153.64583333334303,
      "v": 80
    },
    {
      "midi": 62,
      "hit": false,
      "t": 179399.73958333343,
      "d": 153.64583333334303,
      "v": 80
    },
    {
      "midi": 67,
      "hit": false,
      "t": 179399.73958333343,
      "d": 153.64583333334303,
      "v": 80
    },
    {
      "midi": 67,
      "hit": false,
      "t": 180032.55208333346,
      "d": 1579.427083333343,
      "v": 66
    },
    {
      "midi": 74,
      "hit": false,
      "t": 180032.55208333346,
      "d": 1613.28125,
      "v": 57
    },
    {
      "midi": 63,
      "hit": false,
      "t": 180045.5729166668,
      "d": 1507.8125,
      "v": 52
    },
    {
      "midi": 51,
      "hit": false,
      "t": 180049.4791666668,
      "d": 1125,
      "v": 52
    },
    {
      "midi": 57,
      "hit": false,
      "t": 180057.2916666668,
      "d": 1312.5,
      "v": 48
    },
    {
      "midi": 51,
      "hit": false,
      "t": 181358.0729166668,
      "d": 475.26041666665697,
      "v": 68
    },
    {
      "midi": 57,
      "hit": false,
      "t": 181520.83333333346,
      "d": 324.21875,
      "v": 64
    },
    {
      "midi": 63,
      "hit": false,
      "t": 181703.12500000012,
      "d": 196.61458333334303,
      "v": 48
    },
    {
      "midi": 67,
      "hit": false,
      "t": 181858.0729166668,
      "d": 83.33333333331393,
      "v": 89
    },
    {
      "midi": 74,
      "hit": false,
      "t": 182011.71875000012,
      "d": 1613.281250000029,
      "v": 63
    },
    {
      "midi": 62,
      "hit": false,
      "t": 182024.73958333346,
      "d": 1545.572916666686,
      "v": 57
    },
    {
      "midi": 65,
      "hit": false,
      "t": 182028.64583333346,
      "d": 1587.239583333343,
      "v": 68
    },
    {
      "midi": 58,
      "hit": false,
      "t": 182032.55208333346,
      "d": 1279.947916666686,
      "v": 59
    },
    {
      "midi": 50,
      "hit": false,
      "t": 182041.6666666668,
      "d": 1036.458333333343,
      "v": 58
    },
    {
      "midi": 50,
      "hit": false,
      "t": 183328.12500000015,
      "d": 579.4270833333139,
      "v": 64
    },
    {
      "midi": 58,
      "hit": false,
      "t": 183494.7916666668,
      "d": 404.94791666665697,
      "v": 82
    },
    {
      "midi": 62,
      "hit": false,
      "t": 183670.5729166668,
      "d": 191.40625,
      "v": 57
    },
    {
      "midi": 65,
      "hit": false,
      "t": 183824.21875000015,
      "d": 75.52083333331393,
      "v": 82
    },
    {
      "midi": 58,
      "hit": false,
      "t": 185024.73958333346,
      "d": 282.55208333334303,
      "v": 85
    },
    {
      "midi": 61,
      "hit": false,
      "t": 185024.73958333346,
      "d": 282.55208333334303,
      "v": 85
    },
    {
      "midi": 64,
      "hit": false,
      "t": 185024.73958333346,
      "d": 282.55208333334303,
      "v": 85
    },
    {
      "midi": 67,
      "hit": false,
      "t": 185024.73958333346,
      "d": 282.55208333334303,
      "v": 85
    },
    {
      "midi": 58,
      "hit": false,
      "t": 185399.73958333346,
      "d": 153.64583333334303,
      "v": 80
    },
    {
      "midi": 61,
      "hit": false,
      "t": 185399.73958333346,
      "d": 153.64583333334303,
      "v": 80
    },
    {
      "midi": 64,
      "hit": false,
      "t": 185399.73958333346,
      "d": 153.64583333334303,
      "v": 80
    },
    {
      "midi": 67,
      "hit": false,
      "t": 185399.73958333346,
      "d": 153.64583333334303,
      "v": 80
    },
    {
      "midi": 58,
      "hit": false,
      "t": 187024.7395833335,
      "d": 282.55208333334303,
      "v": 85
    },
    {
      "midi": 63,
      "hit": false,
      "t": 187024.7395833335,
      "d": 282.55208333334303,
      "v": 85
    },
    {
      "midi": 67,
      "hit": false,
      "t": 187024.7395833335,
      "d": 282.55208333334303,
      "v": 85
    },
    {
      "midi": 74,
      "hit": false,
      "t": 187024.7395833335,
      "d": 282.55208333334303,
      "v": 85
    },
    {
      "midi": 58,
      "hit": false,
      "t": 187399.7395833335,
      "d": 153.64583333334303,
      "v": 80
    },
    {
      "midi": 63,
      "hit": false,
      "t": 187399.7395833335,
      "d": 153.64583333334303,
      "v": 80
    },
    {
      "midi": 67,
      "hit": false,
      "t": 187399.7395833335,
      "d": 153.64583333334303,
      "v": 80
    },
    {
      "midi": 74,
      "hit": false,
      "t": 187399.7395833335,
      "d": 153.64583333334303,
      "v": 80
    },
    {
      "midi": 73,
      "hit": false,
      "t": 188011.71875000017,
      "d": 1613.281250000029,
      "v": 63
    },
    {
      "midi": 63,
      "hit": false,
      "t": 188024.73958333352,
      "d": 1545.572916666686,
      "v": 57
    },
    {
      "midi": 66,
      "hit": false,
      "t": 188028.64583333352,
      "d": 1587.239583333343,
      "v": 68
    },
    {
      "midi": 57,
      "hit": false,
      "t": 188032.55208333352,
      "d": 1279.947916666686,
      "v": 59
    },
    {
      "midi": 51,
      "hit": false,
      "t": 188041.66666666686,
      "d": 1036.458333333343,
      "v": 58
    },
    {
      "midi": 51,
      "hit": false,
      "t": 189328.1250000002,
      "d": 579.4270833333139,
      "v": 64
    },
    {
      "midi": 57,
      "hit": false,
      "t": 189494.79166666686,
      "d": 404.94791666665697,
      "v": 82
    },
    {
      "midi": 63,
      "hit": false,
      "t": 189670.57291666686,
      "d": 191.40625,
      "v": 57
    },
    {
      "midi": 66,
      "hit": false,
      "t": 189824.2187500002,
      "d": 75.52083333331393,
      "v": 82
    },
    {
      "midi": 57,
      "hit": false,
      "t": 190358.07291666683,
      "d": 111.97916666665697,
      "v": 91
    },
    {
      "midi": 62,
      "hit": false,
      "t": 190358.07291666683,
      "d": 111.97916666665697,
      "v": 91
    },
    {
      "midi": 65,
      "hit": false,
      "t": 190358.07291666683,
      "d": 111.97916666665697,
      "v": 91
    },
    {
      "midi": 72,
      "hit": false,
      "t": 190358.07291666683,
      "d": 111.97916666665697,
      "v": 91
    },
    {
      "midi": 57,
      "hit": false,
      "t": 191015.62500000015,
      "d": 891.927083333343,
      "v": 87
    },
    {
      "midi": 62,
      "hit": false,
      "t": 191015.62500000015,
      "d": 891.927083333343,
      "v": 87
    },
    {
      "midi": 65,
      "hit": false,
      "t": 191015.62500000015,
      "d": 891.927083333343,
      "v": 87
    },
    {
      "midi": 72,
      "hit": false,
      "t": 191015.62500000015,
      "d": 891.927083333343,
      "v": 87
    },
    {
      "midi": 53,
      "hit": false,
      "t": 192358.0729166668,
      "d": 111.97916666665697,
      "v": 91
    },
    {
      "midi": 57,
      "hit": false,
      "t": 192358.0729166668,
      "d": 111.97916666665697,
      "v": 91
    },
    {
      "midi": 59,
      "hit": false,
      "t": 192358.0729166668,
      "d": 111.97916666665697,
      "v": 91
    },
    {
      "midi": 64,
      "hit": false,
      "t": 192358.0729166668,
      "d": 111.97916666665697,
      "v": 91
    },
    {
      "midi": 53,
      "hit": false,
      "t": 193015.62500000012,
      "d": 891.927083333343,
      "v": 87
    },
    {
      "midi": 57,
      "hit": false,
      "t": 193015.62500000012,
      "d": 891.927083333343,
      "v": 87
    },
    {
      "midi": 59,
      "hit": false,
      "t": 193015.62500000012,
      "d": 891.927083333343,
      "v": 87
    },
    {
      "midi": 64,
      "hit": false,
      "t": 193015.62500000012,
      "d": 891.927083333343,
      "v": 87
    },
    {
      "midi": 57,
      "hit": false,
      "t": 194028.64583333346,
      "d": 354.16666666665697,
      "v": 89
    },
    {
      "midi": 62,
      "hit": false,
      "t": 194028.64583333346,
      "d": 354.16666666665697,
      "v": 89
    },
    {
      "midi": 66,
      "hit": false,
      "t": 194028.64583333346,
      "d": 354.16666666665697,
      "v": 89
    },
    {
      "midi": 71,
      "hit": false,
      "t": 194028.64583333346,
      "d": 354.16666666665697,
      "v": 89
    },
    {
      "midi": 58,
      "hit": false,
      "t": 194528.64583333346,
      "d": 354.16666666665697,
      "v": 89
    },
    {
      "midi": 63,
      "hit": false,
      "t": 194528.64583333346,
      "d": 354.16666666665697,
      "v": 89
    },
    {
      "midi": 67,
      "hit": false,
      "t": 194528.64583333346,
      "d": 354.16666666665697,
      "v": 89
    },
    {
      "midi": 74,
      "hit": false,
      "t": 194528.64583333346,
      "d": 354.16666666665697,
      "v": 89
    },
    {
      "midi": 79,
      "hit": false,
      "t": 195041.66666666677,
      "d": 337.23958333334303,
      "v": 76
    },
    {
      "midi": 75,
      "hit": false,
      "t": 195045.57291666677,
      "d": 341.14583333334303,
      "v": 70
    },
    {
      "midi": 86,
      "hit": false,
      "t": 195049.47916666677,
      "d": 346.35416666668607,
      "v": 76
    },
    {
      "midi": 63,
      "hit": false,
      "t": 195053.38541666677,
      "d": 346.35416666668607,
      "v": 76
    },
    {
      "midi": 67,
      "hit": false,
      "t": 195053.38541666677,
      "d": 354.16666666668607,
      "v": 66
    },
    {
      "midi": 58,
      "hit": false,
      "t": 195066.40625000012,
      "d": 350.26041666668607,
      "v": 72
    },
    {
      "midi": 57,
      "hit": false,
      "t": 196041.6666666668,
      "d": 1295.572916666657,
      "v": 68
    },
    {
      "midi": 63,
      "hit": false,
      "t": 196382.81250000015,
      "d": 100.26041666665697,
      "v": 76
    },
    {
      "midi": 66,
      "hit": false,
      "t": 196524.73958333346,
      "d": 350.26041666665697,
      "v": 91
    },
    {
      "midi": 72,
      "hit": false,
      "t": 196895.83333333346,
      "d": 453.125,
      "v": 107
    },
    {
      "midi": 41,
      "hit": false,
      "t": 197407.55208333346,
      "d": 62.5,
      "v": 52
    },
    {
      "midi": 72,
      "hit": false,
      "t": 197532.55208333346,
      "d": 221.35416666668607,
      "v": 85
    },
    {
      "midi": 66,
      "hit": false,
      "t": 197536.45833333346,
      "d": 213.54166666668607,
      "v": 87
    },
    {
      "midi": 57,
      "hit": false,
      "t": 197536.45833333346,
      "d": 221.35416666668607,
      "v": 82
    },
    {
      "midi": 63,
      "hit": false,
      "t": 197541.6666666668,
      "d": 212.23958333334303,
      "v": 87
    },
    {
      "midi": 57,
      "hit": false,
      "t": 198028.6458333335,
      "d": 354.16666666665697,
      "v": 89
    },
    {
      "midi": 60,
      "hit": false,
      "t": 198028.6458333335,
      "d": 354.16666666665697,
      "v": 89
    },
    {
      "midi": 62,
      "hit": false,
      "t": 198028.6458333335,
      "d": 354.16666666665697,
      "v": 89
    },
    {
      "midi": 65,
      "hit": false,
      "t": 198028.6458333335,
      "d": 354.16666666665697,
      "v": 89
    },
    {
      "midi": 58,
      "hit": false,
      "t": 198528.6458333335,
      "d": 354.16666666665697,
      "v": 89
    },
    {
      "midi": 63,
      "hit": false,
      "t": 198528.6458333335,
      "d": 354.16666666665697,
      "v": 89
    },
    {
      "midi": 67,
      "hit": false,
      "t": 198528.6458333335,
      "d": 354.16666666665697,
      "v": 89
    },
    {
      "midi": 74,
      "hit": false,
      "t": 198528.6458333335,
      "d": 354.16666666665697,
      "v": 89
    },
    {
      "midi": 60,
      "hit": false,
      "t": 199028.6458333335,
      "d": 354.16666666665697,
      "v": 89
    },
    {
      "midi": 62,
      "hit": false,
      "t": 199028.6458333335,
      "d": 354.16666666665697,
      "v": 89
    },
    {
      "midi": 65,
      "hit": false,
      "t": 199028.6458333335,
      "d": 354.16666666665697,
      "v": 89
    },
    {
      "midi": 69,
      "hit": false,
      "t": 199028.6458333335,
      "d": 354.16666666665697,
      "v": 89
    },
    {
      "midi": 62,
      "hit": false,
      "t": 199528.6458333335,
      "d": 354.16666666665697,
      "v": 89
    },
    {
      "midi": 70,
      "hit": false,
      "t": 199528.6458333335,
      "d": 354.16666666665697,
      "v": 89
    },
    {
      "midi": 77,
      "hit": false,
      "t": 199528.6458333335,
      "d": 354.16666666665697,
      "v": 89
    },
    {
      "midi": 65,
      "hit": false,
      "t": 200032.5520833335,
      "d": 1579.427083333343,
      "v": 66
    },
    {
      "midi": 71,
      "hit": false,
      "t": 200032.5520833335,
      "d": 1613.28125,
      "v": 57
    },
    {
      "midi": 62,
      "hit": false,
      "t": 200045.57291666683,
      "d": 1507.8125,
      "v": 52
    },
    {
      "midi": 50,
      "hit": false,
      "t": 200049.47916666683,
      "d": 1125,
      "v": 52
    },
    {
      "midi": 56,
      "hit": false,
      "t": 200057.29166666683,
      "d": 1312.5,
      "v": 48
    },
    {
      "midi": 50,
      "hit": false,
      "t": 201358.07291666683,
      "d": 475.26041666665697,
      "v": 68
    },
    {
      "midi": 56,
      "hit": false,
      "t": 201520.8333333335,
      "d": 324.21875,
      "v": 64
    },
    {
      "midi": 62,
      "hit": false,
      "t": 201703.12500000015,
      "d": 196.61458333334303,
      "v": 48
    },
    {
      "midi": 65,
      "hit": false,
      "t": 201858.07291666683,
      "d": 83.33333333331393,
      "v": 89
    },
    {
      "midi": 67,
      "hit": false,
      "t": 202032.5520833335,
      "d": 1579.427083333343,
      "v": 66
    },
    {
      "midi": 74,
      "hit": false,
      "t": 202032.5520833335,
      "d": 1613.28125,
      "v": 57
    },
    {
      "midi": 63,
      "hit": false,
      "t": 202045.57291666683,
      "d": 1507.8125,
      "v": 52
    },
    {
      "midi": 51,
      "hit": false,
      "t": 202049.47916666683,
      "d": 1125,
      "v": 52
    },
    {
      "midi": 58,
      "hit": false,
      "t": 202057.29166666683,
      "d": 1312.5,
      "v": 48
    },
    {
      "midi": 51,
      "hit": false,
      "t": 203358.07291666683,
      "d": 475.26041666665697,
      "v": 68
    },
    {
      "midi": 58,
      "hit": false,
      "t": 203520.8333333335,
      "d": 324.21875,
      "v": 64
    },
    {
      "midi": 63,
      "hit": false,
      "t": 203703.12500000015,
      "d": 196.61458333334303,
      "v": 48
    },
    {
      "midi": 67,
      "hit": false,
      "t": 203858.07291666683,
      "d": 83.33333333331393,
      "v": 89
    },
    {
      "midi": 57,
      "hit": false,
      "t": 204358.0729166668,
      "d": 111.97916666665697,
      "v": 91
    },
    {
      "midi": 63,
      "hit": false,
      "t": 204358.0729166668,
      "d": 111.97916666665697,
      "v": 91
    },
    {
      "midi": 66,
      "hit": false,
      "t": 204358.0729166668,
      "d": 111.97916666665697,
      "v": 91
    },
    {
      "midi": 72,
      "hit": false,
      "t": 204358.0729166668,
      "d": 111.97916666665697,
      "v": 91
    },
    {
      "midi": 57,
      "hit": false,
      "t": 205015.62500000012,
      "d": 891.927083333343,
      "v": 87
    },
    {
      "midi": 63,
      "hit": false,
      "t": 205015.62500000012,
      "d": 891.927083333343,
      "v": 87
    },
    {
      "midi": 66,
      "hit": false,
      "t": 205015.62500000012,
      "d": 891.927083333343,
      "v": 87
    },
    {
      "midi": 72,
      "hit": false,
      "t": 205015.62500000012,
      "d": 891.927083333343,
      "v": 87
    },
    {
      "midi": 56,
      "hit": false,
      "t": 206229.16666666677,
      "d": 195.3125,
      "v": 87
    },
    {
      "midi": 61,
      "hit": false,
      "t": 206229.16666666677,
      "d": 195.3125,
      "v": 87
    },
    {
      "midi": 64,
      "hit": false,
      "t": 206229.16666666677,
      "d": 195.3125,
      "v": 87
    },
    {
      "midi": 71,
      "hit": false,
      "t": 206229.16666666677,
      "d": 195.3125,
      "v": 87
    },
    {
      "midi": 57,
      "hit": false,
      "t": 206528.64583333346,
      "d": 354.16666666665697,
      "v": 89
    },
    {
      "midi": 60,
      "hit": false,
      "t": 206528.64583333346,
      "d": 354.16666666665697,
      "v": 89
    },
    {
      "midi": 62,
      "hit": false,
      "t": 206528.64583333346,
      "d": 354.16666666665697,
      "v": 89
    },
    {
      "midi": 65,
      "hit": false,
      "t": 206528.64583333346,
      "d": 354.16666666665697,
      "v": 89
    },
    {
      "midi": 57,
      "hit": false,
      "t": 207354.16666666677,
      "d": 157.55208333334303,
      "v": 87
    },
    {
      "midi": 60,
      "hit": false,
      "t": 207354.16666666677,
      "d": 157.55208333334303,
      "v": 87
    },
    {
      "midi": 62,
      "hit": false,
      "t": 207354.16666666677,
      "d": 157.55208333334303,
      "v": 87
    },
    {
      "midi": 65,
      "hit": false,
      "t": 207354.16666666677,
      "d": 157.55208333334303,
      "v": 87
    },
    {
      "midi": 58,
      "hit": false,
      "t": 209024.73958333346,
      "d": 282.55208333334303,
      "v": 85
    },
    {
      "midi": 64,
      "hit": false,
      "t": 209024.73958333346,
      "d": 282.55208333334303,
      "v": 85
    },
    {
      "midi": 67,
      "hit": false,
      "t": 209024.73958333346,
      "d": 282.55208333334303,
      "v": 85
    },
    {
      "midi": 73,
      "hit": false,
      "t": 209024.73958333346,
      "d": 282.55208333334303,
      "v": 85
    },
    {
      "midi": 58,
      "hit": false,
      "t": 209399.73958333346,
      "d": 153.64583333334303,
      "v": 80
    },
    {
      "midi": 64,
      "hit": false,
      "t": 209399.73958333346,
      "d": 153.64583333334303,
      "v": 80
    },
    {
      "midi": 67,
      "hit": false,
      "t": 209399.73958333346,
      "d": 153.64583333334303,
      "v": 80
    },
    {
      "midi": 73,
      "hit": false,
      "t": 209399.73958333346,
      "d": 153.64583333334303,
      "v": 80
    },
    {
      "midi": 58,
      "hit": false,
      "t": 210229.1666666668,
      "d": 195.3125,
      "v": 87
    },
    {
      "midi": 63,
      "hit": false,
      "t": 210229.1666666668,
      "d": 195.3125,
      "v": 87
    },
    {
      "midi": 67,
      "hit": false,
      "t": 210229.1666666668,
      "d": 195.3125,
      "v": 87
    },
    {
      "midi": 72,
      "hit": false,
      "t": 210229.1666666668,
      "d": 195.3125,
      "v": 87
    },
    {
      "midi": 65,
      "hit": false,
      "t": 210541.6666666668,
      "d": 145.83333333331393,
      "v": 82
    },
    {
      "midi": 62,
      "hit": false,
      "t": 210661.45833333346,
      "d": 121.09375,
      "v": 58
    },
    {
      "midi": 59,
      "hit": false,
      "t": 210765.62500000012,
      "d": 100.26041666668607,
      "v": 56
    },
    {
      "midi": 56,
      "hit": false,
      "t": 210937.50000000015,
      "d": 62.5,
      "v": 72
    },
    {
      "midi": 72,
      "hit": false,
      "t": 211020.8333333335,
      "d": 916.6666666666861,
      "v": 70
    },
    {
      "midi": 67,
      "hit": false,
      "t": 211024.7395833335,
      "d": 899.739583333343,
      "v": 70
    },
    {
      "midi": 51,
      "hit": false,
      "t": 211028.6458333335,
      "d": 916.6666666666861,
      "v": 61
    },
    {
      "midi": 58,
      "hit": false,
      "t": 211028.6458333335,
      "d": 924.4791666666861,
      "v": 53
    },
    {
      "midi": 63,
      "hit": false,
      "t": 211032.5520833335,
      "d": 904.9479166666861,
      "v": 59
    },
    {
      "midi": 57,
      "hit": false,
      "t": 213024.73958333352,
      "d": 282.55208333334303,
      "v": 85
    },
    {
      "midi": 63,
      "hit": false,
      "t": 213024.73958333352,
      "d": 282.55208333334303,
      "v": 85
    },
    {
      "midi": 66,
      "hit": false,
      "t": 213024.73958333352,
      "d": 282.55208333334303,
      "v": 85
    },
    {
      "midi": 73,
      "hit": false,
      "t": 213024.73958333352,
      "d": 282.55208333334303,
      "v": 85
    },
    {
      "midi": 57,
      "hit": false,
      "t": 213399.73958333352,
      "d": 153.64583333334303,
      "v": 80
    },
    {
      "midi": 63,
      "hit": false,
      "t": 213399.73958333352,
      "d": 153.64583333334303,
      "v": 80
    },
    {
      "midi": 66,
      "hit": false,
      "t": 213399.73958333352,
      "d": 153.64583333334303,
      "v": 80
    },
    {
      "midi": 73,
      "hit": false,
      "t": 213399.73958333352,
      "d": 153.64583333334303,
      "v": 80
    },
    {
      "midi": 57,
      "hit": false,
      "t": 214354.16666666686,
      "d": 157.55208333334303,
      "v": 87
    },
    {
      "midi": 62,
      "hit": false,
      "t": 214354.16666666686,
      "d": 157.55208333334303,
      "v": 87
    },
    {
      "midi": 65,
      "hit": false,
      "t": 214354.16666666686,
      "d": 157.55208333334303,
      "v": 87
    },
    {
      "midi": 72,
      "hit": false,
      "t": 214354.16666666686,
      "d": 157.55208333334303,
      "v": 87
    },
    {
      "midi": 55,
      "hit": false,
      "t": 215354.16666666686,
      "d": 157.55208333334303,
      "v": 87
    },
    {
      "midi": 58,
      "hit": false,
      "t": 215354.16666666686,
      "d": 157.55208333334303,
      "v": 87
    },
    {
      "midi": 62,
      "hit": false,
      "t": 215354.16666666686,
      "d": 157.55208333334303,
      "v": 87
    },
    {
      "midi": 65,
      "hit": false,
      "t": 215354.16666666686,
      "d": 157.55208333334303,
      "v": 87
    },
    {
      "midi": 77,
      "hit": false,
      "t": 216041.66666666686,
      "d": 337.23958333334303,
      "v": 76
    },
    {
      "midi": 74,
      "hit": false,
      "t": 216045.57291666686,
      "d": 341.14583333334303,
      "v": 70
    },
    {
      "midi": 82,
      "hit": false,
      "t": 216049.47916666686,
      "d": 346.35416666668607,
      "v": 76
    },
    {
      "midi": 62,
      "hit": false,
      "t": 216053.38541666686,
      "d": 346.35416666668607,
      "v": 76
    },
    {
      "midi": 65,
      "hit": false,
      "t": 216053.38541666686,
      "d": 354.16666666668607,
      "v": 66
    },
    {
      "midi": 55,
      "hit": false,
      "t": 216066.4062500002,
      "d": 350.26041666668607,
      "v": 72
    },
    {
      "midi": 55,
      "hit": false,
      "t": 217354.1666666669,
      "d": 157.55208333334303,
      "v": 87
    },
    {
      "midi": 61,
      "hit": false,
      "t": 217354.1666666669,
      "d": 157.55208333334303,
      "v": 87
    },
    {
      "midi": 64,
      "hit": false,
      "t": 217354.1666666669,
      "d": 157.55208333334303,
      "v": 87
    },
    {
      "midi": 70,
      "hit": false,
      "t": 217354.1666666669,
      "d": 157.55208333334303,
      "v": 87
    },
    {
      "midi": 56,
      "hit": false,
      "t": 218358.0729166669,
      "d": 111.97916666665697,
      "v": 91
    },
    {
      "midi": 63,
      "hit": false,
      "t": 218358.0729166669,
      "d": 111.97916666665697,
      "v": 91
    },
    {
      "midi": 67,
      "hit": false,
      "t": 218358.0729166669,
      "d": 111.97916666665697,
      "v": 91
    },
    {
      "midi": 72,
      "hit": false,
      "t": 218358.0729166669,
      "d": 111.97916666665697,
      "v": 91
    },
    {
      "midi": 56,
      "hit": false,
      "t": 219015.6250000002,
      "d": 891.927083333343,
      "v": 87
    },
    {
      "midi": 63,
      "hit": false,
      "t": 219015.6250000002,
      "d": 891.927083333343,
      "v": 87
    },
    {
      "midi": 67,
      "hit": false,
      "t": 219015.6250000002,
      "d": 891.927083333343,
      "v": 87
    },
    {
      "midi": 72,
      "hit": false,
      "t": 219015.6250000002,
      "d": 891.927083333343,
      "v": 87
    },
    {
      "midi": 56,
      "hit": false,
      "t": 220358.07291666686,
      "d": 111.97916666665697,
      "v": 91
    },
    {
      "midi": 59,
      "hit": false,
      "t": 220358.07291666686,
      "d": 111.97916666665697,
      "v": 91
    },
    {
      "midi": 62,
      "hit": false,
      "t": 220358.07291666686,
      "d": 111.97916666665697,
      "v": 91
    },
    {
      "midi": 67,
      "hit": false,
      "t": 220358.07291666686,
      "d": 111.97916666665697,
      "v": 91
    },
    {
      "midi": 56,
      "hit": false,
      "t": 221015.62500000017,
      "d": 891.927083333343,
      "v": 87
    },
    {
      "midi": 59,
      "hit": false,
      "t": 221015.62500000017,
      "d": 891.927083333343,
      "v": 87
    },
    {
      "midi": 62,
      "hit": false,
      "t": 221015.62500000017,
      "d": 891.927083333343,
      "v": 87
    },
    {
      "midi": 67,
      "hit": false,
      "t": 221015.62500000017,
      "d": 891.927083333343,
      "v": 87
    },
    {
      "midi": 70,
      "hit": false,
      "t": 222011.71875000017,
      "d": 1613.281250000029,
      "v": 63
    },
    {
      "midi": 62,
      "hit": false,
      "t": 222024.73958333352,
      "d": 1545.572916666686,
      "v": 57
    },
    {
      "midi": 65,
      "hit": false,
      "t": 222028.64583333352,
      "d": 1587.239583333343,
      "v": 68
    },
    {
      "midi": 55,
      "hit": false,
      "t": 222032.55208333352,
      "d": 1279.947916666686,
      "v": 59
    },
    {
      "midi": 50,
      "hit": false,
      "t": 222041.66666666686,
      "d": 1036.458333333343,
      "v": 58
    },
    {
      "midi": 50,
      "hit": false,
      "t": 223328.1250000002,
      "d": 579.4270833333139,
      "v": 64
    },
    {
      "midi": 55,
      "hit": false,
      "t": 223494.79166666686,
      "d": 404.94791666665697,
      "v": 82
    },
    {
      "midi": 62,
      "hit": false,
      "t": 223670.57291666686,
      "d": 191.40625,
      "v": 57
    },
    {
      "midi": 65,
      "hit": false,
      "t": 223824.2187500002,
      "d": 75.52083333331393,
      "v": 82
    },
    {
      "midi": 50,
      "hit": false,
      "t": 224057.29166666683,
      "d": 300.78125,
      "v": 61
    },
    {
      "midi": 54,
      "hit": false,
      "t": 224375.00000000017,
      "d": 203.125,
      "v": 89
    },
    {
      "midi": 60,
      "hit": false,
      "t": 224375.00000000017,
      "d": 203.125,
      "v": 89
    },
    {
      "midi": 65,
      "hit": false,
      "t": 224375.00000000017,
      "d": 203.125,
      "v": 89
    },
    {
      "midi": 69,
      "hit": false,
      "t": 224375.00000000017,
      "d": 203.125,
      "v": 89
    },
    {
      "midi": 54,
      "hit": false,
      "t": 225229.16666666683,
      "d": 195.3125,
      "v": 87
    },
    {
      "midi": 60,
      "hit": false,
      "t": 225229.16666666683,
      "d": 195.3125,
      "v": 87
    },
    {
      "midi": 62,
      "hit": false,
      "t": 225229.16666666683,
      "d": 195.3125,
      "v": 87
    },
    {
      "midi": 70,
      "hit": false,
      "t": 225229.16666666683,
      "d": 195.3125,
      "v": 87
    },
    {
      "midi": 54,
      "hit": false,
      "t": 225729.16666666683,
      "d": 195.3125,
      "v": 87
    },
    {
      "midi": 60,
      "hit": false,
      "t": 225729.16666666683,
      "d": 195.3125,
      "v": 87
    },
    {
      "midi": 63,
      "hit": false,
      "t": 225729.16666666683,
      "d": 195.3125,
      "v": 87
    },
    {
      "midi": 70,
      "hit": false,
      "t": 225729.16666666683,
      "d": 195.3125,
      "v": 87
    },
    {
      "midi": 79,
      "hit": false,
      "t": 226041.66666666683,
      "d": 337.23958333334303,
      "v": 76
    },
    {
      "midi": 78,
      "hit": false,
      "t": 226045.57291666683,
      "d": 341.14583333334303,
      "v": 70
    },
    {
      "midi": 86,
      "hit": false,
      "t": 226049.47916666683,
      "d": 346.35416666668607,
      "v": 76
    },
    {
      "midi": 66,
      "hit": false,
      "t": 226053.38541666683,
      "d": 346.35416666668607,
      "v": 76
    },
    {
      "midi": 67,
      "hit": false,
      "t": 226053.38541666683,
      "d": 354.16666666668607,
      "v": 66
    },
    {
      "midi": 58,
      "hit": false,
      "t": 226066.40625000017,
      "d": 350.26041666668607,
      "v": 72
    },
    {
      "midi": 43,
      "hit": false,
      "t": 227057.29166666686,
      "d": 300.78125,
      "v": 61
    },
    {
      "midi": 53,
      "hit": false,
      "t": 227375.0000000002,
      "d": 203.125,
      "v": 89
    },
    {
      "midi": 58,
      "hit": false,
      "t": 227375.0000000002,
      "d": 203.125,
      "v": 89
    },
    {
      "midi": 62,
      "hit": false,
      "t": 227375.0000000002,
      "d": 203.125,
      "v": 89
    },
    {
      "midi": 67,
      "hit": false,
      "t": 227375.0000000002,
      "d": 203.125,
      "v": 89
    },
    {
      "midi": 74,
      "hit": false,
      "t": 228011.7187500002,
      "d": 1613.281250000029,
      "v": 63
    },
    {
      "midi": 64,
      "hit": false,
      "t": 228024.73958333355,
      "d": 1545.572916666686,
      "v": 57
    },
    {
      "midi": 69,
      "hit": false,
      "t": 228028.64583333355,
      "d": 1587.239583333343,
      "v": 68
    },
    {
      "midi": 58,
      "hit": false,
      "t": 228032.55208333355,
      "d": 1279.947916666686,
      "v": 59
    },
    {
      "midi": 52,
      "hit": false,
      "t": 228041.6666666669,
      "d": 1036.458333333343,
      "v": 58
    },
    {
      "midi": 52,
      "hit": false,
      "t": 229328.12500000023,
      "d": 579.4270833333139,
      "v": 64
    },
    {
      "midi": 58,
      "hit": false,
      "t": 229494.7916666669,
      "d": 404.94791666665697,
      "v": 82
    },
    {
      "midi": 64,
      "hit": false,
      "t": 229670.5729166669,
      "d": 191.40625,
      "v": 57
    },
    {
      "midi": 69,
      "hit": false,
      "t": 229824.21875000023,
      "d": 75.52083333331393,
      "v": 82
    },
    {
      "midi": 51,
      "hit": false,
      "t": 230358.07291666686,
      "d": 111.97916666665697,
      "v": 91
    },
    {
      "midi": 58,
      "hit": false,
      "t": 230358.07291666686,
      "d": 111.97916666665697,
      "v": 91
    },
    {
      "midi": 60,
      "hit": false,
      "t": 230358.07291666686,
      "d": 111.97916666665697,
      "v": 91
    },
    {
      "midi": 67,
      "hit": false,
      "t": 230358.07291666686,
      "d": 111.97916666665697,
      "v": 91
    },
    {
      "midi": 51,
      "hit": false,
      "t": 231015.62500000017,
      "d": 891.927083333343,
      "v": 87
    },
    {
      "midi": 58,
      "hit": false,
      "t": 231015.62500000017,
      "d": 891.927083333343,
      "v": 87
    },
    {
      "midi": 60,
      "hit": false,
      "t": 231015.62500000017,
      "d": 891.927083333343,
      "v": 87
    },
    {
      "midi": 67,
      "hit": false,
      "t": 231015.62500000017,
      "d": 891.927083333343,
      "v": 87
    },
    {
      "midi": 67,
      "hit": false,
      "t": 232032.55208333352,
      "d": 1579.427083333343,
      "v": 66
    },
    {
      "midi": 73,
      "hit": false,
      "t": 232032.55208333352,
      "d": 1613.28125,
      "v": 57
    },
    {
      "midi": 64,
      "hit": false,
      "t": 232045.57291666686,
      "d": 1507.8125,
      "v": 52
    },
    {
      "midi": 52,
      "hit": false,
      "t": 232049.47916666686,
      "d": 1125,
      "v": 52
    },
    {
      "midi": 58,
      "hit": false,
      "t": 232057.29166666686,
      "d": 1312.5,
      "v": 48
    },
    {
      "midi": 52,
      "hit": false,
      "t": 233358.07291666686,
      "d": 475.26041666665697,
      "v": 68
    },
    {
      "midi": 58,
      "hit": false,
      "t": 233520.83333333352,
      "d": 324.21875,
      "v": 64
    },
    {
      "midi": 64,
      "hit": false,
      "t": 233703.12500000017,
      "d": 196.61458333334303,
      "v": 48
    },
    {
      "midi": 67,
      "hit": false,
      "t": 233858.07291666686,
      "d": 83.33333333331393,
      "v": 89
    },
    {
      "midi": 51,
      "hit": false,
      "t": 235024.73958333352,
      "d": 282.55208333334303,
      "v": 85
    },
    {
      "midi": 58,
      "hit": false,
      "t": 235024.73958333352,
      "d": 282.55208333334303,
      "v": 85
    },
    {
      "midi": 62,
      "hit": false,
      "t": 235024.73958333352,
      "d": 282.55208333334303,
      "v": 85
    },
    {
      "midi": 67,
      "hit": false,
      "t": 235024.73958333352,
      "d": 282.55208333334303,
      "v": 85
    },
    {
      "midi": 51,
      "hit": false,
      "t": 235399.73958333352,
      "d": 153.64583333334303,
      "v": 80
    },
    {
      "midi": 58,
      "hit": false,
      "t": 235399.73958333352,
      "d": 153.64583333334303,
      "v": 80
    },
    {
      "midi": 62,
      "hit": false,
      "t": 235399.73958333352,
      "d": 153.64583333334303,
      "v": 80
    },
    {
      "midi": 67,
      "hit": false,
      "t": 235399.73958333352,
      "d": 153.64583333334303,
      "v": 80
    },
    {
      "midi": 51,
      "hit": false,
      "t": 237024.73958333355,
      "d": 282.55208333334303,
      "v": 85
    },
    {
      "midi": 54,
      "hit": false,
      "t": 237024.73958333355,
      "d": 282.55208333334303,
      "v": 85
    },
    {
      "midi": 57,
      "hit": false,
      "t": 237024.73958333355,
      "d": 282.55208333334303,
      "v": 85
    },
    {
      "midi": 61,
      "hit": false,
      "t": 237024.73958333355,
      "d": 282.55208333334303,
      "v": 85
    },
    {
      "midi": 51,
      "hit": false,
      "t": 237399.73958333355,
      "d": 153.64583333334303,
      "v": 80
    },
    {
      "midi": 54,
      "hit": false,
      "t": 237399.73958333355,
      "d": 153.64583333334303,
      "v": 80
    },
    {
      "midi": 57,
      "hit": false,
      "t": 237399.73958333355,
      "d": 153.64583333334303,
      "v": 80
    },
    {
      "midi": 61,
      "hit": false,
      "t": 237399.73958333355,
      "d": 153.64583333334303,
      "v": 80
    },
    {
      "midi": 57,
      "hit": false,
      "t": 238041.6666666669,
      "d": 1295.572916666657,
      "v": 68
    },
    {
      "midi": 62,
      "hit": false,
      "t": 238382.81250000023,
      "d": 100.26041666665697,
      "v": 76
    },
    {
      "midi": 65,
      "hit": false,
      "t": 238524.73958333355,
      "d": 350.26041666665697,
      "v": 91
    },
    {
      "midi": 72,
      "hit": false,
      "t": 238895.83333333355,
      "d": 453.125,
      "v": 107
    },
    {
      "midi": 46,
      "hit": false,
      "t": 239407.55208333355,
      "d": 62.5,
      "v": 52
    },
    {
      "midi": 72,
      "hit": false,
      "t": 239532.55208333355,
      "d": 221.35416666668607,
      "v": 85
    },
    {
      "midi": 65,
      "hit": false,
      "t": 239536.45833333355,
      "d": 213.54166666668607,
      "v": 87
    },
    {
      "midi": 57,
      "hit": false,
      "t": 239536.45833333355,
      "d": 221.35416666668607,
      "v": 82
    },
    {
      "midi": 62,
      "hit": false,
      "t": 239541.6666666669,
      "d": 212.23958333334303,
      "v": 87
    },
    {
      "midi": 60,
      "hit": false,
      "t": 240354.1666666669,
      "d": 157.55208333334303,
      "v": 87
    },
    {
      "midi": 62,
      "hit": false,
      "t": 240354.1666666669,
      "d": 157.55208333334303,
      "v": 87
    },
    {
      "midi": 65,
      "hit": false,
      "t": 240354.1666666669,
      "d": 157.55208333334303,
      "v": 87
    },
    {
      "midi": 69,
      "hit": false,
      "t": 240354.1666666669,
      "d": 157.55208333334303,
      "v": 87
    },
    {
      "midi": 67,
      "hit": false,
      "t": 241036.45833333358,
      "d": 363.28125,
      "v": 63
    },
    {
      "midi": 64,
      "hit": false,
      "t": 241041.66666666692,
      "d": 354.16666666665697,
      "v": 53
    },
    {
      "midi": 73,
      "hit": false,
      "t": 241045.57291666692,
      "d": 354.16666666665697,
      "v": 57
    },
    {
      "midi": 58,
      "hit": false,
      "t": 241049.47916666692,
      "d": 221.35416666665697,
      "v": 57
    },
    {
      "midi": 58,
      "hit": false,
      "t": 241369.79166666692,
      "d": 141.92708333331393,
      "v": 89
    },
    {
      "midi": 64,
      "hit": false,
      "t": 241545.5729166669,
      "d": 132.8125,
      "v": 57
    },
    {
      "midi": 67,
      "hit": false,
      "t": 241703.12500000023,
      "d": 109.375,
      "v": 68
    },
    {
      "midi": 73,
      "hit": false,
      "t": 241845.05208333358,
      "d": 79.42708333334303,
      "v": 89
    },
    {
      "midi": 58,
      "hit": false,
      "t": 242358.07291666692,
      "d": 111.97916666665697,
      "v": 91
    },
    {
      "midi": 63,
      "hit": false,
      "t": 242358.07291666692,
      "d": 111.97916666665697,
      "v": 91
    },
    {
      "midi": 67,
      "hit": false,
      "t": 242358.07291666692,
      "d": 111.97916666665697,
      "v": 91
    },
    {
      "midi": 74,
      "hit": false,
      "t": 242358.07291666692,
      "d": 111.97916666665697,
      "v": 91
    },
    {
      "midi": 58,
      "hit": false,
      "t": 243015.62500000023,
      "d": 891.927083333343,
      "v": 87
    },
    {
      "midi": 63,
      "hit": false,
      "t": 243015.62500000023,
      "d": 891.927083333343,
      "v": 87
    },
    {
      "midi": 67,
      "hit": false,
      "t": 243015.62500000023,
      "d": 891.927083333343,
      "v": 87
    },
    {
      "midi": 74,
      "hit": false,
      "t": 243015.62500000023,
      "d": 891.927083333343,
      "v": 87
    },
    {
      "midi": 58,
      "hit": false,
      "t": 244354.1666666669,
      "d": 157.55208333334303,
      "v": 87
    },
    {
      "midi": 63,
      "hit": false,
      "t": 244354.1666666669,
      "d": 157.55208333334303,
      "v": 87
    },
    {
      "midi": 67,
      "hit": false,
      "t": 244354.1666666669,
      "d": 157.55208333334303,
      "v": 87
    },
    {
      "midi": 72,
      "hit": false,
      "t": 244354.1666666669,
      "d": 157.55208333334303,
      "v": 87
    },
    {
      "midi": 66,
      "hit": false,
      "t": 245041.6666666669,
      "d": 145.83333333331393,
      "v": 82
    },
    {
      "midi": 63,
      "hit": false,
      "t": 245161.45833333355,
      "d": 121.09375,
      "v": 58
    },
    {
      "midi": 60,
      "hit": false,
      "t": 245265.6250000002,
      "d": 100.26041666668607,
      "v": 56
    },
    {
      "midi": 58,
      "hit": false,
      "t": 245437.50000000023,
      "d": 62.5,
      "v": 72
    },
    {
      "midi": 57,
      "hit": false,
      "t": 245528.64583333358,
      "d": 354.16666666665697,
      "v": 89
    },
    {
      "midi": 63,
      "hit": false,
      "t": 245528.64583333358,
      "d": 354.16666666665697,
      "v": 89
    },
    {
      "midi": 66,
      "hit": false,
      "t": 245528.64583333358,
      "d": 354.16666666665697,
      "v": 89
    },
    {
      "midi": 72,
      "hit": false,
      "t": 245528.64583333358,
      "d": 354.16666666665697,
      "v": 89
    },
    {
      "midi": 53,
      "hit": false,
      "t": 247024.73958333358,
      "d": 282.55208333334303,
      "v": 85
    },
    {
      "midi": 56,
      "hit": false,
      "t": 247024.73958333358,
      "d": 282.55208333334303,
      "v": 85
    },
    {
      "midi": 60,
      "hit": false,
      "t": 247024.73958333358,
      "d": 282.55208333334303,
      "v": 85
    },
    {
      "midi": 62,
      "hit": false,
      "t": 247024.73958333358,
      "d": 282.55208333334303,
      "v": 85
    },
    {
      "midi": 53,
      "hit": false,
      "t": 247399.73958333358,
      "d": 153.64583333334303,
      "v": 80
    },
    {
      "midi": 56,
      "hit": false,
      "t": 247399.73958333358,
      "d": 153.64583333334303,
      "v": 80
    },
    {
      "midi": 60,
      "hit": false,
      "t": 247399.73958333358,
      "d": 153.64583333334303,
      "v": 80
    },
    {
      "midi": 62,
      "hit": false,
      "t": 247399.73958333358,
      "d": 153.64583333334303,
      "v": 80
    },
    {
      "midi": 53,
      "hit": false,
      "t": 248358.07291666692,
      "d": 111.97916666665697,
      "v": 91
    },
    {
      "midi": 59,
      "hit": false,
      "t": 248358.07291666692,
      "d": 111.97916666665697,
      "v": 91
    },
    {
      "midi": 63,
      "hit": false,
      "t": 248358.07291666692,
      "d": 111.97916666665697,
      "v": 91
    },
    {
      "midi": 68,
      "hit": false,
      "t": 248358.07291666692,
      "d": 111.97916666665697,
      "v": 91
    },
    {
      "midi": 53,
      "hit": false,
      "t": 249015.62500000023,
      "d": 891.927083333343,
      "v": 87
    },
    {
      "midi": 59,
      "hit": false,
      "t": 249015.62500000023,
      "d": 891.927083333343,
      "v": 87
    },
    {
      "midi": 63,
      "hit": false,
      "t": 249015.62500000023,
      "d": 891.927083333343,
      "v": 87
    },
    {
      "midi": 68,
      "hit": false,
      "t": 249015.62500000023,
      "d": 891.927083333343,
      "v": 87
    },
    {
      "midi": 67,
      "hit": false,
      "t": 250032.55208333358,
      "d": 1579.427083333343,
      "v": 66
    },
    {
      "midi": 76,
      "hit": false,
      "t": 250032.55208333358,
      "d": 1613.28125,
      "v": 57
    },
    {
      "midi": 64,
      "hit": false,
      "t": 250045.57291666692,
      "d": 1507.8125,
      "v": 52
    },
    {
      "midi": 52,
      "hit": false,
      "t": 250049.47916666692,
      "d": 1125,
      "v": 52
    },
    {
      "midi": 60,
      "hit": false,
      "t": 250057.29166666692,
      "d": 1312.5,
      "v": 48
    },
    {
      "midi": 52,
      "hit": false,
      "t": 251358.07291666692,
      "d": 475.26041666665697,
      "v": 68
    },
    {
      "midi": 60,
      "hit": false,
      "t": 251520.83333333358,
      "d": 324.21875,
      "v": 64
    },
    {
      "midi": 64,
      "hit": false,
      "t": 251703.12500000023,
      "d": 196.61458333334303,
      "v": 48
    },
    {
      "midi": 67,
      "hit": false,
      "t": 251858.07291666692,
      "d": 83.33333333331393,
      "v": 89
    },
    {
      "midi": 70,
      "hit": false,
      "t": 252011.71875000023,
      "d": 1613.281250000029,
      "v": 63
    },
    {
      "midi": 60,
      "hit": false,
      "t": 252024.73958333358,
      "d": 1545.572916666686,
      "v": 57
    },
    {
      "midi": 63,
      "hit": false,
      "t": 252028.64583333358,
      "d": 1587.239583333343,
      "v": 68
    },
    {
      "midi": 54,
      "hit": false,
      "t": 252032.55208333358,
      "d": 1279.947916666686,
      "v": 59
    },
    {
      "midi": 48,
      "hit": false,
      "t": 252041.66666666692,
      "d": 1036.458333333343,
      "v": 58
    },
    {
      "midi": 48,
      "hit": false,
      "t": 253328.12500000026,
      "d": 579.4270833333139,
      "v": 64
    },
    {
      "midi": 54,
      "hit": false,
      "t": 253494.79166666692,
      "d": 404.94791666665697,
      "v": 82
    },
    {
      "midi": 60,
      "hit": false,
      "t": 253670.57291666692,
      "d": 191.40625,
      "v": 57
    },
    {
      "midi": 63,
      "hit": false,
      "t": 253824.21875000026,
      "d": 75.52083333331393,
      "v": 82
    },
    {
      "midi": 81,
      "hit": false,
      "t": 254041.6666666669,
      "d": 337.23958333334303,
      "v": 76
    },
    {
      "midi": 77,
      "hit": false,
      "t": 254045.5729166669,
      "d": 341.14583333334303,
      "v": 70
    },
    {
      "midi": 86,
      "hit": false,
      "t": 254049.4791666669,
      "d": 346.35416666668607,
      "v": 76
    },
    {
      "midi": 65,
      "hit": false,
      "t": 254053.3854166669,
      "d": 346.35416666668607,
      "v": 76
    },
    {
      "midi": 69,
      "hit": false,
      "t": 254053.3854166669,
      "d": 354.16666666668607,
      "v": 66
    },
    {
      "midi": 60,
      "hit": false,
      "t": 254066.40625000023,
      "d": 350.26041666668607,
      "v": 72
    },
    {
      "midi": 77,
      "hit": false,
      "t": 255041.66666666692,
      "d": 337.23958333334303,
      "v": 76
    },
    {
      "midi": 74,
      "hit": false,
      "t": 255045.57291666692,
      "d": 341.14583333334303,
      "v": 70
    },
    {
      "midi": 82,
      "hit": false,
      "t": 255049.47916666692,
      "d": 346.35416666668607,
      "v": 76
    },
    {
      "midi": 62,
      "hit": false,
      "t": 255053.38541666692,
      "d": 346.35416666668607,
      "v": 76
    },
    {
      "midi": 65,
      "hit": false,
      "t": 255053.38541666692,
      "d": 354.16666666668607,
      "v": 66
    },
    {
      "midi": 53,
      "hit": false,
      "t": 255066.40625000026,
      "d": 350.26041666668607,
      "v": 72
    },
    {
      "midi": 73,
      "hit": false,
      "t": 256011.7187500003,
      "d": 1613.281250000029,
      "v": 63
    },
    {
      "midi": 64,
      "hit": false,
      "t": 256024.73958333363,
      "d": 1545.572916666686,
      "v": 57
    },
    {
      "midi": 67,
      "hit": false,
      "t": 256028.64583333363,
      "d": 1587.239583333343,
      "v": 68
    },
    {
      "midi": 58,
      "hit": false,
      "t": 256032.55208333363,
      "d": 1279.947916666686,
      "v": 59
    },
    {
      "midi": 52,
      "hit": false,
      "t": 256041.66666666698,
      "d": 1036.458333333343,
      "v": 58
    },
    {
      "midi": 52,
      "hit": false,
      "t": 257328.12500000032,
      "d": 579.4270833333139,
      "v": 64
    },
    {
      "midi": 58,
      "hit": false,
      "t": 257494.79166666698,
      "d": 404.94791666665697,
      "v": 82
    },
    {
      "midi": 64,
      "hit": false,
      "t": 257670.57291666698,
      "d": 191.40625,
      "v": 57
    },
    {
      "midi": 67,
      "hit": false,
      "t": 257824.21875000032,
      "d": 75.52083333331393,
      "v": 82
    },
    {
      "midi": 58,
      "hit": false,
      "t": 258354.16666666695,
      "d": 157.55208333334303,
      "v": 87
    },
    {
      "midi": 60,
      "hit": false,
      "t": 258354.16666666695,
      "d": 157.55208333334303,
      "v": 87
    },
    {
      "midi": 63,
      "hit": false,
      "t": 258354.16666666695,
      "d": 157.55208333334303,
      "v": 87
    },
    {
      "midi": 67,
      "hit": false,
      "t": 258354.16666666695,
      "d": 157.55208333334303,
      "v": 87
    },
    {
      "midi": 57,
      "hit": false,
      "t": 259229.16666666695,
      "d": 195.3125,
      "v": 87
    },
    {
      "midi": 62,
      "hit": false,
      "t": 259229.16666666695,
      "d": 195.3125,
      "v": 87
    },
    {
      "midi": 66,
      "hit": false,
      "t": 259229.16666666695,
      "d": 195.3125,
      "v": 87
    },
    {
      "midi": 71,
      "hit": false,
      "t": 259229.16666666695,
      "d": 195.3125,
      "v": 87
    },
    {
      "midi": 58,
      "hit": false,
      "t": 259528.64583333363,
      "d": 354.16666666665697,
      "v": 89
    },
    {
      "midi": 63,
      "hit": false,
      "t": 259528.64583333363,
      "d": 354.16666666665697,
      "v": 89
    },
    {
      "midi": 67,
      "hit": false,
      "t": 259528.64583333363,
      "d": 354.16666666665697,
      "v": 89
    },
    {
      "midi": 74,
      "hit": false,
      "t": 259528.64583333363,
      "d": 354.16666666665697,
      "v": 89
    },
    {
      "midi": 53,
      "hit": false,
      "t": 260057.29166666695,
      "d": 300.78125,
      "v": 61
    },
    {
      "midi": 58,
      "hit": false,
      "t": 260375.0000000003,
      "d": 203.125,
      "v": 89
    },
    {
      "midi": 63,
      "hit": false,
      "t": 260375.0000000003,
      "d": 203.125,
      "v": 89
    },
    {
      "midi": 67,
      "hit": false,
      "t": 260375.0000000003,
      "d": 203.125,
      "v": 89
    },
    {
      "midi": 72,
      "hit": false,
      "t": 260375.0000000003,
      "d": 203.125,
      "v": 89
    },
    {
      "midi": 58,
      "hit": false,
      "t": 261028.64583333363,
      "d": 354.16666666665697,
      "v": 89
    },
    {
      "midi": 63,
      "hit": false,
      "t": 261028.64583333363,
      "d": 354.16666666665697,
      "v": 89
    },
    {
      "midi": 67,
      "hit": false,
      "t": 261028.64583333363,
      "d": 354.16666666665697,
      "v": 89
    },
    {
      "midi": 72,
      "hit": false,
      "t": 261028.64583333363,
      "d": 354.16666666665697,
      "v": 89
    },
    {
      "midi": 61,
      "hit": false,
      "t": 261528.64583333363,
      "d": 354.16666666665697,
      "v": 89
    },
    {
      "midi": 67,
      "hit": false,
      "t": 261528.64583333363,
      "d": 354.16666666665697,
      "v": 89
    },
    {
      "midi": 70,
      "hit": false,
      "t": 261528.64583333363,
      "d": 354.16666666665697,
      "v": 89
    },
    {
      "midi": 76,
      "hit": false,
      "t": 261528.64583333363,
      "d": 354.16666666665697,
      "v": 89
    },
    {
      "midi": 65,
      "hit": false,
      "t": 262333.3333333336,
      "d": 140.625,
      "v": 106
    },
    {
      "midi": 77,
      "hit": false,
      "t": 262500.0000000003,
      "d": 199.21875,
      "v": 106
    },
    {
      "midi": 58,
      "hit": false,
      "t": 263500.0000000003,
      "d": 223.95833333331393,
      "v": 106
    },
    {
      "midi": 62,
      "hit": false,
      "t": 263500.0000000003,
      "d": 223.95833333331393,
      "v": 106
    },
    {
      "midi": 70,
      "hit": false,
      "t": 263500.0000000003,
      "d": 223.95833333331393,
      "v": 106
    },
    {
      "midi": 74,
      "hit": false,
      "t": 263500.0000000003,
      "d": 223.95833333331393,
      "v": 106
    },
    {
      "midi": 56,
      "hit": false,
      "t": 264000.0000000003,
      "d": 182.29166666668607,
      "v": 110
    },
    {
      "midi": 62,
      "hit": false,
      "t": 264000.0000000003,
      "d": 182.29166666668607,
      "v": 110
    },
    {
      "midi": 65,
      "hit": false,
      "t": 264000.0000000003,
      "d": 182.29166666668607,
      "v": 110
    },
    {
      "midi": 71,
      "hit": false,
      "t": 264000.0000000003,
      "d": 182.29166666668607,
      "v": 110
    },
    {
      "midi": 53,
      "hit": false,
      "t": 264333.33333333366,
      "d": 199.21875,
      "v": 113
    },
    {
      "midi": 59,
      "hit": false,
      "t": 264333.33333333366,
      "d": 199.21875,
      "v": 113
    },
    {
      "midi": 62,
      "hit": false,
      "t": 264333.33333333366,
      "d": 199.21875,
      "v": 113
    },
    {
      "midi": 68,
      "hit": false,
      "t": 264333.33333333366,
      "d": 199.21875,
      "v": 113
    },
    {
      "midi": 50,
      "hit": false,
      "t": 264833.33333333366,
      "d": 199.21875,
      "v": 116
    },
    {
      "midi": 56,
      "hit": false,
      "t": 264833.33333333366,
      "d": 199.21875,
      "v": 116
    },
    {
      "midi": 59,
      "hit": false,
      "t": 264833.33333333366,
      "d": 199.21875,
      "v": 116
    },
    {
      "midi": 65,
      "hit": false,
      "t": 264833.33333333366,
      "d": 199.21875,
      "v": 116
    },
    {
      "midi": 47,
      "hit": false,
      "t": 265333.33333333366,
      "d": 640.625,
      "v": 120
    },
    {
      "midi": 53,
      "hit": false,
      "t": 265333.33333333366,
      "d": 640.625,
      "v": 120
    },
    {
      "midi": 56,
      "hit": false,
      "t": 265333.33333333366,
      "d": 640.625,
      "v": 120
    },
    {
      "midi": 62,
      "hit": false,
      "t": 265333.33333333366,
      "d": 640.625,
      "v": 120
    },
    {
      "midi": 58,
      "hit": false,
      "t": 266041.66666666704,
      "d": 1295.572916666686,
      "v": 68
    },
    {
      "midi": 63,
      "hit": false,
      "t": 266382.81250000035,
      "d": 100.26041666668607,
      "v": 76
    },
    {
      "midi": 67,
      "hit": false,
      "t": 266524.7395833337,
      "d": 350.26041666668607,
      "v": 91
    },
    {
      "midi": 74,
      "hit": false,
      "t": 266895.8333333337,
      "d": 453.125,
      "v": 107
    },
    {
      "midi": 48,
      "hit": false,
      "t": 267407.5520833337,
      "d": 62.5,
      "v": 52
    },
    {
      "midi": 74,
      "hit": false,
      "t": 267532.5520833337,
      "d": 221.35416666662786,
      "v": 85
    },
    {
      "midi": 67,
      "hit": false,
      "t": 267536.4583333337,
      "d": 213.54166666662786,
      "v": 87
    },
    {
      "midi": 58,
      "hit": false,
      "t": 267536.4583333337,
      "d": 221.35416666662786,
      "v": 82
    },
    {
      "midi": 63,
      "hit": false,
      "t": 267541.66666666704,
      "d": 212.23958333331393,
      "v": 87
    },
    {
      "midi": 57,
      "hit": false,
      "t": 269024.73958333366,
      "d": 282.55208333331393,
      "v": 85
    },
    {
      "midi": 63,
      "hit": false,
      "t": 269024.73958333366,
      "d": 282.55208333331393,
      "v": 85
    },
    {
      "midi": 66,
      "hit": false,
      "t": 269024.73958333366,
      "d": 282.55208333331393,
      "v": 85
    },
    {
      "midi": 72,
      "hit": false,
      "t": 269024.73958333366,
      "d": 282.55208333331393,
      "v": 85
    },
    {
      "midi": 57,
      "hit": false,
      "t": 269399.73958333366,
      "d": 153.64583333331393,
      "v": 80
    },
    {
      "midi": 63,
      "hit": false,
      "t": 269399.73958333366,
      "d": 153.64583333331393,
      "v": 80
    },
    {
      "midi": 66,
      "hit": false,
      "t": 269399.73958333366,
      "d": 153.64583333331393,
      "v": 80
    },
    {
      "midi": 72,
      "hit": false,
      "t": 269399.73958333366,
      "d": 153.64583333331393,
      "v": 80
    },
    {
      "midi": 69,
      "hit": false,
      "t": 270032.5520833336,
      "d": 1579.427083333314,
      "v": 66
    },
    {
      "midi": 74,
      "hit": false,
      "t": 270032.5520833336,
      "d": 1613.28125,
      "v": 57
    },
    {
      "midi": 65,
      "hit": false,
      "t": 270045.5729166669,
      "d": 1507.8125,
      "v": 52
    },
    {
      "midi": 53,
      "hit": false,
      "t": 270049.4791666669,
      "d": 1125,
      "v": 52
    },
    {
      "midi": 60,
      "hit": false,
      "t": 270057.2916666669,
      "d": 1312.5,
      "v": 48
    },
    {
      "midi": 53,
      "hit": false,
      "t": 271358.0729166669,
      "d": 475.26041666668607,
      "v": 68
    },
    {
      "midi": 60,
      "hit": false,
      "t": 271520.8333333336,
      "d": 324.21875,
      "v": 64
    },
    {
      "midi": 65,
      "hit": false,
      "t": 271703.1250000003,
      "d": 196.61458333331393,
      "v": 48
    },
    {
      "midi": 69,
      "hit": false,
      "t": 271858.0729166669,
      "d": 83.33333333337214,
      "v": 89
    },
    {
      "midi": 81,
      "hit": false,
      "t": 272041.666666667,
      "d": 337.23958333331393,
      "v": 76
    },
    {
      "midi": 77,
      "hit": false,
      "t": 272045.572916667,
      "d": 341.14583333331393,
      "v": 70
    },
    {
      "midi": 87,
      "hit": false,
      "t": 272049.479166667,
      "d": 346.35416666662786,
      "v": 76
    },
    {
      "midi": 65,
      "hit": false,
      "t": 272053.385416667,
      "d": 346.35416666662786,
      "v": 76
    },
    {
      "midi": 69,
      "hit": false,
      "t": 272053.385416667,
      "d": 354.16666666662786,
      "v": 66
    },
    {
      "midi": 59,
      "hit": false,
      "t": 272066.4062500003,
      "d": 350.26041666662786,
      "v": 72
    },
    {
      "midi": 59,
      "hit": false,
      "t": 273229.1666666669,
      "d": 195.3125,
      "v": 87
    },
    {
      "midi": 65,
      "hit": false,
      "t": 273229.1666666669,
      "d": 195.3125,
      "v": 87
    },
    {
      "midi": 69,
      "hit": false,
      "t": 273229.1666666669,
      "d": 195.3125,
      "v": 87
    },
    {
      "midi": 76,
      "hit": false,
      "t": 273229.1666666669,
      "d": 195.3125,
      "v": 87
    },
    {
      "midi": 59,
      "hit": false,
      "t": 273528.64583333355,
      "d": 354.16666666668607,
      "v": 89
    },
    {
      "midi": 65,
      "hit": false,
      "t": 273528.64583333355,
      "d": 354.16666666668607,
      "v": 89
    },
    {
      "midi": 68,
      "hit": false,
      "t": 273528.64583333355,
      "d": 354.16666666668607,
      "v": 89
    },
    {
      "midi": 74,
      "hit": false,
      "t": 273528.64583333355,
      "d": 354.16666666668607,
      "v": 89
    },
    {
      "midi": 59,
      "hit": false,
      "t": 274028.64583333355,
      "d": 354.16666666668607,
      "v": 89
    },
    {
      "midi": 62,
      "hit": false,
      "t": 274028.64583333355,
      "d": 354.16666666668607,
      "v": 89
    },
    {
      "midi": 63,
      "hit": false,
      "t": 274028.64583333355,
      "d": 354.16666666668607,
      "v": 89
    },
    {
      "midi": 67,
      "hit": false,
      "t": 274028.64583333355,
      "d": 354.16666666668607,
      "v": 89
    },
    {
      "midi": 58,
      "hit": false,
      "t": 274729.1666666669,
      "d": 195.3125,
      "v": 87
    },
    {
      "midi": 60,
      "hit": false,
      "t": 274729.1666666669,
      "d": 195.3125,
      "v": 87
    },
    {
      "midi": 63,
      "hit": false,
      "t": 274729.1666666669,
      "d": 195.3125,
      "v": 87
    },
    {
      "midi": 67,
      "hit": false,
      "t": 274729.1666666669,
      "d": 195.3125,
      "v": 87
    },
    {
      "midi": 59,
      "hit": false,
      "t": 275028.64583333355,
      "d": 354.16666666668607,
      "v": 89
    },
    {
      "midi": 63,
      "hit": false,
      "t": 275028.64583333355,
      "d": 354.16666666668607,
      "v": 89
    },
    {
      "midi": 67,
      "hit": false,
      "t": 275028.64583333355,
      "d": 354.16666666668607,
      "v": 89
    },
    {
      "midi": 74,
      "hit": false,
      "t": 275028.64583333355,
      "d": 354.16666666668607,
      "v": 89
    },
    {
      "midi": 58,
      "hit": false,
      "t": 275729.1666666669,
      "d": 195.3125,
      "v": 87
    },
    {
      "midi": 63,
      "hit": false,
      "t": 275729.1666666669,
      "d": 195.3125,
      "v": 87
    },
    {
      "midi": 67,
      "hit": false,
      "t": 275729.1666666669,
      "d": 195.3125,
      "v": 87
    },
    {
      "midi": 74,
      "hit": false,
      "t": 275729.1666666669,
      "d": 195.3125,
      "v": 87
    },
    {
      "midi": 58,
      "hit": false,
      "t": 276354.1666666669,
      "d": 157.55208333331393,
      "v": 87
    },
    {
      "midi": 63,
      "hit": false,
      "t": 276354.1666666669,
      "d": 157.55208333331393,
      "v": 87
    },
    {
      "midi": 67,
      "hit": false,
      "t": 276354.1666666669,
      "d": 157.55208333331393,
      "v": 87
    },
    {
      "midi": 74,
      "hit": false,
      "t": 276354.1666666669,
      "d": 157.55208333331393,
      "v": 87
    },
    {
      "midi": 58,
      "hit": false,
      "t": 277028.64583333355,
      "d": 354.16666666668607,
      "v": 89
    },
    {
      "midi": 63,
      "hit": false,
      "t": 277028.64583333355,
      "d": 354.16666666668607,
      "v": 89
    },
    {
      "midi": 67,
      "hit": false,
      "t": 277028.64583333355,
      "d": 354.16666666668607,
      "v": 89
    },
    {
      "midi": 72,
      "hit": false,
      "t": 277028.64583333355,
      "d": 354.16666666668607,
      "v": 89
    },
    {
      "midi": 57,
      "hit": false,
      "t": 277729.1666666669,
      "d": 195.3125,
      "v": 87
    },
    {
      "midi": 60,
      "hit": false,
      "t": 277729.1666666669,
      "d": 195.3125,
      "v": 87
    },
    {
      "midi": 63,
      "hit": false,
      "t": 277729.1666666669,
      "d": 195.3125,
      "v": 87
    },
    {
      "midi": 66,
      "hit": false,
      "t": 277729.1666666669,
      "d": 195.3125,
      "v": 87
    },
    {
      "midi": 46,
      "hit": false,
      "t": 278057.2916666669,
      "d": 300.78125,
      "v": 61
    },
    {
      "midi": 57,
      "hit": false,
      "t": 278375.00000000023,
      "d": 203.125,
      "v": 89
    },
    {
      "midi": 62,
      "hit": false,
      "t": 278375.00000000023,
      "d": 203.125,
      "v": 89
    },
    {
      "midi": 65,
      "hit": false,
      "t": 278375.00000000023,
      "d": 203.125,
      "v": 89
    },
    {
      "midi": 72,
      "hit": false,
      "t": 278375.00000000023,
      "d": 203.125,
      "v": 89
    },
    {
      "midi": 46,
      "hit": false,
      "t": 279057.2916666669,
      "d": 300.78125,
      "v": 61
    },
    {
      "midi": 55,
      "hit": false,
      "t": 279375.00000000023,
      "d": 203.125,
      "v": 89
    },
    {
      "midi": 58,
      "hit": false,
      "t": 279375.00000000023,
      "d": 203.125,
      "v": 89
    },
    {
      "midi": 62,
      "hit": false,
      "t": 279375.00000000023,
      "d": 203.125,
      "v": 89
    },
    {
      "midi": 65,
      "hit": false,
      "t": 279375.00000000023,
      "d": 203.125,
      "v": 89
    },
    {
      "midi": 56,
      "hit": false,
      "t": 280358.0729166669,
      "d": 111.97916666668607,
      "v": 91
    },
    {
      "midi": 62,
      "hit": false,
      "t": 280358.0729166669,
      "d": 111.97916666668607,
      "v": 91
    },
    {
      "midi": 65,
      "hit": false,
      "t": 280358.0729166669,
      "d": 111.97916666668607,
      "v": 91
    },
    {
      "midi": 71,
      "hit": false,
      "t": 280358.0729166669,
      "d": 111.97916666668607,
      "v": 91
    },
    {
      "midi": 56,
      "hit": false,
      "t": 281015.6250000003,
      "d": 891.9270833333139,
      "v": 87
    },
    {
      "midi": 62,
      "hit": false,
      "t": 281015.6250000003,
      "d": 891.9270833333139,
      "v": 87
    },
    {
      "midi": 65,
      "hit": false,
      "t": 281015.6250000003,
      "d": 891.9270833333139,
      "v": 87
    },
    {
      "midi": 71,
      "hit": false,
      "t": 281015.6250000003,
      "d": 891.9270833333139,
      "v": 87
    },
    {
      "midi": 58,
      "hit": false,
      "t": 282358.072916667,
      "d": 111.97916666668607,
      "v": 91
    },
    {
      "midi": 63,
      "hit": false,
      "t": 282358.072916667,
      "d": 111.97916666668607,
      "v": 91
    },
    {
      "midi": 67,
      "hit": false,
      "t": 282358.072916667,
      "d": 111.97916666668607,
      "v": 91
    },
    {
      "midi": 72,
      "hit": false,
      "t": 282358.072916667,
      "d": 111.97916666668607,
      "v": 91
    },
    {
      "midi": 58,
      "hit": false,
      "t": 283015.62500000035,
      "d": 891.9270833333139,
      "v": 87
    },
    {
      "midi": 63,
      "hit": false,
      "t": 283015.62500000035,
      "d": 891.9270833333139,
      "v": 87
    },
    {
      "midi": 67,
      "hit": false,
      "t": 283015.62500000035,
      "d": 891.9270833333139,
      "v": 87
    },
    {
      "midi": 72,
      "hit": false,
      "t": 283015.62500000035,
      "d": 891.9270833333139,
      "v": 87
    },
    {
      "midi": 57,
      "hit": false,
      "t": 284358.07291666704,
      "d": 111.97916666668607,
      "v": 91
    },
    {
      "midi": 63,
      "hit": false,
      "t": 284358.07291666704,
      "d": 111.97916666668607,
      "v": 91
    },
    {
      "midi": 66,
      "hit": false,
      "t": 284358.07291666704,
      "d": 111.97916666668607,
      "v": 91
    },
    {
      "midi": 73,
      "hit": false,
      "t": 284358.07291666704,
      "d": 111.97916666668607,
      "v": 91
    },
    {
      "midi": 57,
      "hit": false,
      "t": 285015.6250000004,
      "d": 891.9270833333139,
      "v": 87
    },
    {
      "midi": 63,
      "hit": false,
      "t": 285015.6250000004,
      "d": 891.9270833333139,
      "v": 87
    },
    {
      "midi": 66,
      "hit": false,
      "t": 285015.6250000004,
      "d": 891.9270833333139,
      "v": 87
    },
    {
      "midi": 73,
      "hit": false,
      "t": 285015.6250000004,
      "d": 891.9270833333139,
      "v": 87
    },
    {
      "midi": 53,
      "hit": false,
      "t": 286358.0729166671,
      "d": 111.97916666668607,
      "v": 91
    },
    {
      "midi": 60,
      "hit": false,
      "t": 286358.0729166671,
      "d": 111.97916666668607,
      "v": 91
    },
    {
      "midi": 62,
      "hit": false,
      "t": 286358.0729166671,
      "d": 111.97916666668607,
      "v": 91
    },
    {
      "midi": 69,
      "hit": false,
      "t": 286358.0729166671,
      "d": 111.97916666668607,
      "v": 91
    },
    {
      "midi": 53,
      "hit": false,
      "t": 287015.62500000047,
      "d": 891.9270833333139,
      "v": 87
    },
    {
      "midi": 60,
      "hit": false,
      "t": 287015.62500000047,
      "d": 891.9270833333139,
      "v": 87
    },
    {
      "midi": 62,
      "hit": false,
      "t": 287015.62500000047,
      "d": 891.9270833333139,
      "v": 87
    },
    {
      "midi": 69,
      "hit": false,
      "t": 287015.62500000047,
      "d": 891.9270833333139,
      "v": 87
    },
    {
      "midi": 43,
      "hit": false,
      "t": 288057.29166666715,
      "d": 300.78125,
      "v": 61
    },
    {
      "midi": 53,
      "hit": false,
      "t": 288375.00000000047,
      "d": 203.125,
      "v": 89
    },
    {
      "midi": 59,
      "hit": false,
      "t": 288375.00000000047,
      "d": 203.125,
      "v": 89
    },
    {
      "midi": 64,
      "hit": false,
      "t": 288375.00000000047,
      "d": 203.125,
      "v": 89
    },
    {
      "midi": 69,
      "hit": false,
      "t": 288375.00000000047,
      "d": 203.125,
      "v": 89
    },
    {
      "midi": 53,
      "hit": false,
      "t": 289028.6458333338,
      "d": 354.16666666668607,
      "v": 89
    },
    {
      "midi": 57,
      "hit": false,
      "t": 289028.6458333338,
      "d": 354.16666666668607,
      "v": 89
    },
    {
      "midi": 59,
      "hit": false,
      "t": 289028.6458333338,
      "d": 354.16666666668607,
      "v": 89
    },
    {
      "midi": 64,
      "hit": false,
      "t": 289028.6458333338,
      "d": 354.16666666668607,
      "v": 89
    },
    {
      "midi": 53,
      "hit": false,
      "t": 289528.6458333338,
      "d": 354.16666666668607,
      "v": 89
    },
    {
      "midi": 59,
      "hit": false,
      "t": 289528.6458333338,
      "d": 354.16666666668607,
      "v": 89
    },
    {
      "midi": 63,
      "hit": false,
      "t": 289528.6458333338,
      "d": 354.16666666668607,
      "v": 89
    },
    {
      "midi": 68,
      "hit": false,
      "t": 289528.6458333338,
      "d": 354.16666666668607,
      "v": 89
    },
    {
      "midi": 51,
      "hit": false,
      "t": 290229.16666666715,
      "d": 195.3125,
      "v": 87
    },
    {
      "midi": 59,
      "hit": false,
      "t": 290229.16666666715,
      "d": 195.3125,
      "v": 87
    },
    {
      "midi": 62,
      "hit": false,
      "t": 290229.16666666715,
      "d": 195.3125,
      "v": 87
    },
    {
      "midi": 67,
      "hit": false,
      "t": 290229.16666666715,
      "d": 195.3125,
      "v": 87
    },
    {
      "midi": 51,
      "hit": false,
      "t": 290528.6458333338,
      "d": 354.16666666668607,
      "v": 89
    },
    {
      "midi": 58,
      "hit": false,
      "t": 290528.6458333338,
      "d": 354.16666666668607,
      "v": 89
    },
    {
      "midi": 60,
      "hit": false,
      "t": 290528.6458333338,
      "d": 354.16666666668607,
      "v": 89
    },
    {
      "midi": 67,
      "hit": false,
      "t": 290528.6458333338,
      "d": 354.16666666668607,
      "v": 89
    },
    {
      "midi": 51,
      "hit": false,
      "t": 291028.6458333338,
      "d": 354.16666666668607,
      "v": 89
    },
    {
      "midi": 59,
      "hit": false,
      "t": 291028.6458333338,
      "d": 354.16666666668607,
      "v": 89
    },
    {
      "midi": 62,
      "hit": false,
      "t": 291028.6458333338,
      "d": 354.16666666668607,
      "v": 89
    },
    {
      "midi": 67,
      "hit": false,
      "t": 291028.6458333338,
      "d": 354.16666666668607,
      "v": 89
    },
    {
      "midi": 51,
      "hit": false,
      "t": 291528.6458333338,
      "d": 354.16666666668607,
      "v": 89
    },
    {
      "midi": 58,
      "hit": false,
      "t": 291528.6458333338,
      "d": 354.16666666668607,
      "v": 89
    },
    {
      "midi": 62,
      "hit": false,
      "t": 291528.6458333338,
      "d": 354.16666666668607,
      "v": 89
    },
    {
      "midi": 67,
      "hit": false,
      "t": 291528.6458333338,
      "d": 354.16666666668607,
      "v": 89
    },
    {
      "midi": 51,
      "hit": false,
      "t": 292354.16666666715,
      "d": 157.55208333331393,
      "v": 87
    },
    {
      "midi": 58,
      "hit": false,
      "t": 292354.16666666715,
      "d": 157.55208333331393,
      "v": 87
    },
    {
      "midi": 62,
      "hit": false,
      "t": 292354.16666666715,
      "d": 157.55208333331393,
      "v": 87
    },
    {
      "midi": 67,
      "hit": false,
      "t": 292354.16666666715,
      "d": 157.55208333331393,
      "v": 87
    },
    {
      "midi": 51,
      "hit": false,
      "t": 293028.6458333338,
      "d": 354.16666666668607,
      "v": 89
    },
    {
      "midi": 58,
      "hit": false,
      "t": 293028.6458333338,
      "d": 354.16666666668607,
      "v": 89
    },
    {
      "midi": 60,
      "hit": false,
      "t": 293028.6458333338,
      "d": 354.16666666668607,
      "v": 89
    },
    {
      "midi": 67,
      "hit": false,
      "t": 293028.6458333338,
      "d": 354.16666666668607,
      "v": 89
    },
    {
      "midi": 51,
      "hit": false,
      "t": 293528.6458333338,
      "d": 354.16666666668607,
      "v": 89
    },
    {
      "midi": 57,
      "hit": false,
      "t": 293528.6458333338,
      "d": 354.16666666668607,
      "v": 89
    },
    {
      "midi": 61,
      "hit": false,
      "t": 293528.6458333338,
      "d": 354.16666666668607,
      "v": 89
    },
    {
      "midi": 66,
      "hit": false,
      "t": 293528.6458333338,
      "d": 354.16666666668607,
      "v": 89
    },
    {
      "midi": 77,
      "hit": false,
      "t": 294041.66666666715,
      "d": 337.23958333331393,
      "v": 76
    },
    {
      "midi": 74,
      "hit": false,
      "t": 294045.57291666715,
      "d": 341.14583333331393,
      "v": 70
    },
    {
      "midi": 82,
      "hit": false,
      "t": 294049.47916666715,
      "d": 346.35416666662786,
      "v": 76
    },
    {
      "midi": 62,
      "hit": false,
      "t": 294053.38541666715,
      "d": 346.35416666662786,
      "v": 76
    },
    {
      "midi": 65,
      "hit": false,
      "t": 294053.38541666715,
      "d": 354.16666666662786,
      "v": 66
    },
    {
      "midi": 53,
      "hit": false,
      "t": 294066.40625000047,
      "d": 350.26041666662786,
      "v": 72
    },
    {
      "midi": 55,
      "hit": false,
      "t": 295229.1666666671,
      "d": 195.3125,
      "v": 87
    },
    {
      "midi": 61,
      "hit": false,
      "t": 295229.1666666671,
      "d": 195.3125,
      "v": 87
    },
    {
      "midi": 64,
      "hit": false,
      "t": 295229.1666666671,
      "d": 195.3125,
      "v": 87
    },
    {
      "midi": 70,
      "hit": false,
      "t": 295229.1666666671,
      "d": 195.3125,
      "v": 87
    },
    {
      "midi": 54,
      "hit": false,
      "t": 295528.6458333337,
      "d": 354.16666666668607,
      "v": 89
    },
    {
      "midi": 58,
      "hit": false,
      "t": 295528.6458333337,
      "d": 354.16666666668607,
      "v": 89
    },
    {
      "midi": 60,
      "hit": false,
      "t": 295528.6458333337,
      "d": 354.16666666668607,
      "v": 89
    },
    {
      "midi": 63,
      "hit": false,
      "t": 295528.6458333337,
      "d": 354.16666666668607,
      "v": 89
    },
    {
      "midi": 65,
      "hit": false,
      "t": 297833.3333333337,
      "d": 135.41666666668607,
      "v": 94
    },
    {
      "midi": 72,
      "hit": false,
      "t": 298000.0000000004,
      "d": 302.08333333331393,
      "v": 94
    },
    {
      "midi": 68,
      "hit": false,
      "t": 298333.3333333337,
      "d": 135.41666666668607,
      "v": 94
    },
    {
      "midi": 67,
      "hit": false,
      "t": 298833.3333333337,
      "d": 135.41666666668607,
      "v": 94
    },
    {
      "midi": 65,
      "hit": false,
      "t": 299333.3333333337,
      "d": 437.5,
      "v": 94
    },
    {
      "midi": 77,
      "hit": false,
      "t": 299833.3333333337,
      "d": 135.41666666668607,
      "v": 94
    },
    {
      "midi": 65,
      "hit": false,
      "t": 301333.3333333337,
      "d": 151.04166666668607,
      "v": 94
    },
    {
      "midi": 67,
      "hit": false,
      "t": 301500.0000000004,
      "d": 151.04166666668607,
      "v": 94
    },
    {
      "midi": 70,
      "hit": false,
      "t": 301666.6666666671,
      "d": 151.04166666668607,
      "v": 94
    },
    {
      "midi": 74,
      "hit": false,
      "t": 301833.3333333338,
      "d": 151.04166666668607,
      "v": 94
    },
    {
      "midi": 72,
      "hit": false,
      "t": 302000.00000000047,
      "d": 317.70833333331393,
      "v": 94
    },
    {
      "midi": 67,
      "hit": false,
      "t": 302333.3333333338,
      "d": 151.04166666668607,
      "v": 94
    },
    {
      "midi": 74,
      "hit": false,
      "t": 302500.00000000047,
      "d": 317.70833333331393,
      "v": 94
    },
    {
      "midi": 67,
      "hit": false,
      "t": 302833.3333333338,
      "d": 151.04166666668607,
      "v": 94
    },
    {
      "midi": 75,
      "hit": false,
      "t": 303000.00000000047,
      "d": 317.70833333331393,
      "v": 94
    },
    {
      "midi": 67,
      "hit": false,
      "t": 303333.3333333338,
      "d": 151.04166666668607,
      "v": 94
    },
    {
      "midi": 76,
      "hit": false,
      "t": 303500.00000000047,
      "d": 317.70833333331393,
      "v": 94
    },
    {
      "midi": 67,
      "hit": false,
      "t": 303833.3333333338,
      "d": 151.04166666668607,
      "v": 94
    },
    {
      "midi": 77,
      "hit": false,
      "t": 304000.00000000047,
      "d": 317.70833333331393,
      "v": 94
    },
    {
      "midi": 67,
      "hit": false,
      "t": 304333.3333333338,
      "d": 151.04166666668607,
      "v": 94
    },
    {
      "midi": 78,
      "hit": false,
      "t": 304500.00000000047,
      "d": 317.70833333331393,
      "v": 94
    },
    {
      "midi": 67,
      "hit": false,
      "t": 304833.3333333338,
      "d": 151.04166666668607,
      "v": 94
    },
    {
      "midi": 79,
      "hit": false,
      "t": 305000.00000000047,
      "d": 250,
      "v": 94
    },
    {
      "midi": 73,
      "hit": false,
      "t": 306333.3333333338,
      "d": 153.64583333331393,
      "v": 94
    },
    {
      "midi": 74,
      "hit": false,
      "t": 306500.0000000004,
      "d": 153.64583333331393,
      "v": 94
    },
    {
      "midi": 79,
      "hit": false,
      "t": 306666.66666666704,
      "d": 153.64583333331393,
      "v": 94
    },
    {
      "midi": 82,
      "hit": false,
      "t": 306833.33333333366,
      "d": 153.64583333331393,
      "v": 94
    },
    {
      "midi": 86,
      "hit": false,
      "t": 307000.0000000003,
      "d": 320.3125,
      "v": 94
    },
    {
      "midi": 82,
      "hit": false,
      "t": 307333.3333333336,
      "d": 153.64583333331393,
      "v": 94
    },
    {
      "midi": 79,
      "hit": false,
      "t": 307500.00000000023,
      "d": 320.3125,
      "v": 94
    },
    {
      "midi": 77,
      "hit": false,
      "t": 307833.33333333355,
      "d": 153.64583333331393,
      "v": 94
    },
    {
      "midi": 76,
      "hit": false,
      "t": 308000.0000000002,
      "d": 282.55208333331393,
      "v": 94
    },
    {
      "midi": 85,
      "hit": false,
      "t": 308291.6666666668,
      "d": 66.40625,
      "v": 81
    },
    {
      "midi": 86,
      "hit": false,
      "t": 308333.3333333335,
      "d": 1578.125,
      "v": 94
    },
    {
      "midi": 87,
      "hit": false,
      "t": 309958.3333333335,
      "d": 66.40625,
      "v": 81
    },
    {
      "midi": 89,
      "hit": false,
      "t": 310000.0000000002,
      "d": 132.8125,
      "v": 94
    },
    {
      "midi": 87,
      "hit": false,
      "t": 310291.66666666686,
      "d": 66.40625,
      "v": 81
    },
    {
      "midi": 89,
      "hit": false,
      "t": 310333.33333333355,
      "d": 111.97916666662786,
      "v": 94
    },
    {
      "midi": 87,
      "hit": false,
      "t": 310791.66666666686,
      "d": 66.40625,
      "v": 81
    },
    {
      "midi": 89,
      "hit": false,
      "t": 310833.33333333355,
      "d": 240.88541666662786,
      "v": 94
    },
    {
      "midi": 77,
      "hit": false,
      "t": 311333.3333333335,
      "d": 153.64583333331393,
      "v": 94
    },
    {
      "midi": 76,
      "hit": false,
      "t": 311500.0000000001,
      "d": 320.3125,
      "v": 94
    },
    {
      "midi": 75,
      "hit": false,
      "t": 311833.33333333343,
      "d": 1153.645833333314,
      "v": 94
    },
    {
      "midi": 76,
      "hit": false,
      "t": 313666.66666666674,
      "d": 153.64583333331393,
      "v": 81
    },
    {
      "midi": 77,
      "hit": false,
      "t": 313833.3333333334,
      "d": 153.64583333331393,
      "v": 81
    },
    {
      "midi": 79,
      "hit": false,
      "t": 314000,
      "d": 1486.979166666686,
      "v": 81
    },
    {
      "midi": 70,
      "hit": false,
      "t": 315833.3333333334,
      "d": 166.66666666668607,
      "v": 81
    },
    {
      "midi": 69,
      "hit": false,
      "t": 316000.00000000006,
      "d": 2000,
      "v": 81
    },
    {
      "midi": 73,
      "hit": false,
      "t": 318458.3333333334,
      "d": 41.66666666668607,
      "v": 69
    },
    {
      "midi": 74,
      "hit": false,
      "t": 318500.00000000006,
      "d": 270.83333333331393,
      "v": 81
    },
    {
      "midi": 77,
      "hit": false,
      "t": 318500.00000000006,
      "d": 320.3124999999418,
      "v": 81
    },
    {
      "midi": 73,
      "hit": false,
      "t": 318791.6666666667,
      "d": 41.66666666662786,
      "v": 69
    },
    {
      "midi": 74,
      "hit": false,
      "t": 318833.3333333333,
      "d": 437.5,
      "v": 81
    },
    {
      "midi": 77,
      "hit": false,
      "t": 318833.3333333333,
      "d": 437.5,
      "v": 81
    },
    {
      "midi": 70,
      "hit": false,
      "t": 319333.3333333333,
      "d": 153.64583333331393,
      "v": 81
    },
    {
      "midi": 67,
      "hit": false,
      "t": 319499.99999999994,
      "d": 236.97916666668607,
      "v": 81
    },
    {
      "midi": 62,
      "hit": false,
      "t": 319999.99999999994,
      "d": 320.3125,
      "v": 81
    },
    {
      "midi": 65,
      "hit": false,
      "t": 319999.99999999994,
      "d": 320.3125,
      "v": 81
    },
    {
      "midi": 62,
      "hit": false,
      "t": 320333.33333333326,
      "d": 1653.6458333333721,
      "v": 81
    },
    {
      "midi": 64,
      "hit": false,
      "t": 320333.33333333326,
      "d": 1653.6458333333721,
      "v": 81
    },
    {
      "midi": 72,
      "hit": false,
      "t": 322011.71874999994,
      "d": 1613.2812499999418,
      "v": 63
    },
    {
      "midi": 63,
      "hit": false,
      "t": 322024.73958333326,
      "d": 1545.5729166666279,
      "v": 57
    },
    {
      "midi": 67,
      "hit": false,
      "t": 322028.64583333326,
      "d": 1587.239583333314,
      "v": 68
    },
    {
      "midi": 58,
      "hit": false,
      "t": 322032.55208333326,
      "d": 1279.9479166666279,
      "v": 59
    },
    {
      "midi": 51,
      "hit": false,
      "t": 322041.66666666657,
      "d": 1036.458333333314,
      "v": 58
    },
    {
      "midi": 51,
      "hit": false,
      "t": 323328.1249999999,
      "d": 579.4270833333721,
      "v": 64
    },
    {
      "midi": 58,
      "hit": false,
      "t": 323494.79166666657,
      "d": 404.94791666668607,
      "v": 82
    },
    {
      "midi": 63,
      "hit": false,
      "t": 323670.57291666657,
      "d": 191.40625,
      "v": 57
    },
    {
      "midi": 67,
      "hit": false,
      "t": 323824.2187499999,
      "d": 75.52083333337214,
      "v": 82
    },
    {
      "midi": 66,
      "hit": false,
      "t": 324032.55208333326,
      "d": 1579.427083333314,
      "v": 66
    },
    {
      "midi": 73,
      "hit": false,
      "t": 324032.55208333326,
      "d": 1613.28125,
      "v": 57
    },
    {
      "midi": 63,
      "hit": false,
      "t": 324045.57291666657,
      "d": 1507.8125,
      "v": 52
    },
    {
      "midi": 51,
      "hit": false,
      "t": 324049.47916666657,
      "d": 1125,
      "v": 52
    },
    {
      "midi": 57,
      "hit": false,
      "t": 324057.29166666657,
      "d": 1312.5,
      "v": 48
    },
    {
      "midi": 51,
      "hit": false,
      "t": 325358.07291666657,
      "d": 475.26041666668607,
      "v": 68
    },
    {
      "midi": 57,
      "hit": false,
      "t": 325520.83333333326,
      "d": 324.21875,
      "v": 64
    },
    {
      "midi": 63,
      "hit": false,
      "t": 325703.12499999994,
      "d": 196.61458333331393,
      "v": 48
    },
    {
      "midi": 66,
      "hit": false,
      "t": 325858.07291666657,
      "d": 83.33333333337214,
      "v": 89
    },
    {
      "midi": 53,
      "hit": false,
      "t": 327024.73958333326,
      "d": 282.55208333331393,
      "v": 85
    },
    {
      "midi": 56,
      "hit": false,
      "t": 327024.73958333326,
      "d": 282.55208333331393,
      "v": 85
    },
    {
      "midi": 60,
      "hit": false,
      "t": 327024.73958333326,
      "d": 282.55208333331393,
      "v": 85
    },
    {
      "midi": 62,
      "hit": false,
      "t": 327024.73958333326,
      "d": 282.55208333331393,
      "v": 85
    },
    {
      "midi": 53,
      "hit": false,
      "t": 327399.73958333326,
      "d": 153.64583333331393,
      "v": 80
    },
    {
      "midi": 56,
      "hit": false,
      "t": 327399.73958333326,
      "d": 153.64583333331393,
      "v": 80
    },
    {
      "midi": 60,
      "hit": false,
      "t": 327399.73958333326,
      "d": 153.64583333331393,
      "v": 80
    },
    {
      "midi": 62,
      "hit": false,
      "t": 327399.73958333326,
      "d": 153.64583333331393,
      "v": 80
    },
    {
      "midi": 53,
      "hit": false,
      "t": 328358.07291666657,
      "d": 111.97916666668607,
      "v": 91
    },
    {
      "midi": 56,
      "hit": false,
      "t": 328358.07291666657,
      "d": 111.97916666668607,
      "v": 91
    },
    {
      "midi": 59,
      "hit": false,
      "t": 328358.07291666657,
      "d": 111.97916666668607,
      "v": 91
    },
    {
      "midi": 63,
      "hit": false,
      "t": 328358.07291666657,
      "d": 111.97916666668607,
      "v": 91
    },
    {
      "midi": 53,
      "hit": false,
      "t": 329015.62499999994,
      "d": 891.9270833333139,
      "v": 87
    },
    {
      "midi": 56,
      "hit": false,
      "t": 329015.62499999994,
      "d": 891.9270833333139,
      "v": 87
    },
    {
      "midi": 59,
      "hit": false,
      "t": 329015.62499999994,
      "d": 891.9270833333139,
      "v": 87
    },
    {
      "midi": 63,
      "hit": false,
      "t": 329015.62499999994,
      "d": 891.9270833333139,
      "v": 87
    },
    {
      "midi": 67,
      "hit": false,
      "t": 330032.55208333326,
      "d": 1579.427083333314,
      "v": 66
    },
    {
      "midi": 76,
      "hit": false,
      "t": 330032.55208333326,
      "d": 1613.28125,
      "v": 57
    },
    {
      "midi": 64,
      "hit": false,
      "t": 330045.57291666657,
      "d": 1507.8125,
      "v": 52
    },
    {
      "midi": 52,
      "hit": false,
      "t": 330049.47916666657,
      "d": 1125,
      "v": 52
    },
    {
      "midi": 60,
      "hit": false,
      "t": 330057.29166666657,
      "d": 1312.5,
      "v": 48
    },
    {
      "midi": 52,
      "hit": false,
      "t": 331358.07291666657,
      "d": 475.26041666668607,
      "v": 68
    },
    {
      "midi": 60,
      "hit": false,
      "t": 331520.83333333326,
      "d": 324.21875,
      "v": 64
    },
    {
      "midi": 64,
      "hit": false,
      "t": 331703.12499999994,
      "d": 196.61458333331393,
      "v": 48
    },
    {
      "midi": 67,
      "hit": false,
      "t": 331858.07291666657,
      "d": 83.33333333337214,
      "v": 89
    },
    {
      "midi": 75,
      "hit": false,
      "t": 332041.6666666666,
      "d": 337.23958333331393,
      "v": 76
    },
    {
      "midi": 73,
      "hit": false,
      "t": 332045.5729166666,
      "d": 341.14583333331393,
      "v": 70
    },
    {
      "midi": 82,
      "hit": false,
      "t": 332049.4791666666,
      "d": 346.35416666662786,
      "v": 76
    },
    {
      "midi": 61,
      "hit": false,
      "t": 332053.3854166666,
      "d": 346.35416666662786,
      "v": 76
    },
    {
      "midi": 63,
      "hit": false,
      "t": 332053.3854166666,
      "d": 354.16666666662786,
      "v": 66
    },
    {
      "midi": 54,
      "hit": false,
      "t": 332066.40624999994,
      "d": 350.26041666662786,
      "v": 72
    },
    {
      "midi": 54,
      "hit": false,
      "t": 333354.16666666657,
      "d": 157.55208333331393,
      "v": 87
    },
    {
      "midi": 60,
      "hit": false,
      "t": 333354.16666666657,
      "d": 157.55208333331393,
      "v": 87
    },
    {
      "midi": 63,
      "hit": false,
      "t": 333354.16666666657,
      "d": 157.55208333331393,
      "v": 87
    },
    {
      "midi": 70,
      "hit": false,
      "t": 333354.16666666657,
      "d": 157.55208333331393,
      "v": 87
    },
    {
      "midi": 50,
      "hit": false,
      "t": 334057.29166666657,
      "d": 300.78125,
      "v": 61
    },
    {
      "midi": 53,
      "hit": false,
      "t": 334374.9999999999,
      "d": 203.125,
      "v": 89
    },
    {
      "midi": 60,
      "hit": false,
      "t": 334374.9999999999,
      "d": 203.125,
      "v": 89
    },
    {
      "midi": 62,
      "hit": false,
      "t": 334374.9999999999,
      "d": 203.125,
      "v": 89
    },
    {
      "midi": 68,
      "hit": false,
      "t": 334374.9999999999,
      "d": 203.125,
      "v": 89
    },
    {
      "midi": 75,
      "hit": false,
      "t": 335020.8333333332,
      "d": 916.6666666666279,
      "v": 70
    },
    {
      "midi": 70,
      "hit": false,
      "t": 335024.7395833332,
      "d": 899.7395833333139,
      "v": 70
    },
    {
      "midi": 54,
      "hit": false,
      "t": 335028.6458333332,
      "d": 916.6666666666279,
      "v": 61
    },
    {
      "midi": 60,
      "hit": false,
      "t": 335028.6458333332,
      "d": 924.4791666666279,
      "v": 53
    },
    {
      "midi": 66,
      "hit": false,
      "t": 335032.5520833332,
      "d": 904.9479166666279,
      "v": 59
    },
    {
      "midi": 53,
      "hit": false,
      "t": 336354.1666666665,
      "d": 157.55208333331393,
      "v": 87
    },
    {
      "midi": 59,
      "hit": false,
      "t": 336354.1666666665,
      "d": 157.55208333331393,
      "v": 87
    },
    {
      "midi": 62,
      "hit": false,
      "t": 336354.1666666665,
      "d": 157.55208333331393,
      "v": 87
    },
    {
      "midi": 69,
      "hit": false,
      "t": 336354.1666666665,
      "d": 157.55208333331393,
      "v": 87
    },
    {
      "midi": 49,
      "hit": false,
      "t": 337057.2916666665,
      "d": 300.78125,
      "v": 61
    },
    {
      "midi": 52,
      "hit": false,
      "t": 337374.9999999998,
      "d": 203.125,
      "v": 89
    },
    {
      "midi": 55,
      "hit": false,
      "t": 337374.9999999998,
      "d": 203.125,
      "v": 89
    },
    {
      "midi": 58,
      "hit": false,
      "t": 337374.9999999998,
      "d": 203.125,
      "v": 89
    },
    {
      "midi": 61,
      "hit": false,
      "t": 337374.9999999998,
      "d": 203.125,
      "v": 89
    },
    {
      "midi": 67,
      "hit": false,
      "t": 338036.45833333314,
      "d": 1588.5416666666279,
      "v": 85
    },
    {
      "midi": 63,
      "hit": false,
      "t": 338041.66666666645,
      "d": 1578.125,
      "v": 85
    },
    {
      "midi": 72,
      "hit": false,
      "t": 338045.57291666645,
      "d": 1579.427083333314,
      "v": 85
    },
    {
      "midi": 58,
      "hit": false,
      "t": 338049.47916666645,
      "d": 1445.3125,
      "v": 85
    },
    {
      "midi": 41,
      "hit": false,
      "t": 339833.3333333331,
      "d": 153.64583333331393,
      "v": 94
    },
    {
      "midi": 57,
      "hit": false,
      "t": 339833.3333333331,
      "d": 153.64583333331393,
      "v": 94
    },
    {
      "midi": 60,
      "hit": false,
      "t": 339833.3333333331,
      "d": 153.64583333331393,
      "v": 94
    },
    {
      "midi": 65,
      "hit": false,
      "t": 339833.3333333331,
      "d": 153.64583333331393,
      "v": 94
    },
    {
      "midi": 82,
      "hit": false,
      "t": 340333.333333333,
      "d": 199.21875,
      "v": 116
    },
    {
      "midi": 73,
      "hit": false,
      "t": 340833.333333333,
      "d": 166.66666666668607,
      "v": 106
    },
    {
      "midi": 74,
      "hit": false,
      "t": 340999.9999999997,
      "d": 333.33333333331393,
      "v": 106
    },
    {
      "midi": 77,
      "hit": false,
      "t": 341333.333333333,
      "d": 166.66666666668607,
      "v": 106
    },
    {
      "midi": 79,
      "hit": false,
      "t": 341499.9999999997,
      "d": 333.33333333331393,
      "v": 106
    },
    {
      "midi": 70,
      "hit": false,
      "t": 341833.333333333,
      "d": 166.66666666668607,
      "v": 106
    },
    {
      "midi": 77,
      "hit": false,
      "t": 345999.9999999997,
      "d": 4000,
      "v": 94
    },
    {
      "midi": 74,
      "hit": false,
      "t": 346124.9999999997,
      "d": 3875,
      "v": 94
    },
    {
      "midi": 72,
      "hit": false,
      "t": 346249.9999999997,
      "d": 3750,
      "v": 94
    },
    {
      "midi": 70,
      "hit": false,
      "t": 346374.9999999997,
      "d": 3625,
      "v": 94
    }
  ]
}