{
  "jsonPath": "Rock/Brazilian Rock/Lulu Santos/um-certo-alguem.json",
  "path": "Rock\\Brazilian Rock\\Lulu Santos\\Um Certo Alguém.mid",
  "name": "Um Certo Alguém",
  "difficulty": "Advanced",
  "bpm": 134.00005806669182,
  "notes": [
    {
      "midi": 93,
      "hit": false,
      "t": 5158.579854166667,
      "d": 359.14163541666676,
      "v": 120
    },
    {
      "midi": 81,
      "hit": false,
      "t": 5163.24403125,
      "d": 237.87303125000017,
      "v": 117
    },
    {
      "midi": 81,
      "hit": false,
      "t": 5524.717755208334,
      "d": 81.62309895833369,
      "v": 69
    },
    {
      "midi": 93,
      "hit": false,
      "t": 5618.001296875001,
      "d": 72.29474479166674,
      "v": 59
    },
    {
      "midi": 81,
      "hit": false,
      "t": 5711.284838541667,
      "d": 69.96265625000069,
      "v": 70
    },
    {
      "midi": 93,
      "hit": false,
      "t": 5771.919140625001,
      "d": 74.6268333333337,
      "v": 50
    },
    {
      "midi": 81,
      "hit": false,
      "t": 5872.198947916668,
      "d": 81.62309895833369,
      "v": 79
    },
    {
      "midi": 93,
      "hit": false,
      "t": 5956.154135416668,
      "d": 46.641770833332885,
      "v": 49
    },
    {
      "midi": 81,
      "hit": false,
      "t": 6028.448880208334,
      "d": 76.95892187500067,
      "v": 81
    },
    {
      "midi": 93,
      "hit": false,
      "t": 6096.079447916668,
      "d": 62.96639062500071,
      "v": 58
    },
    {
      "midi": 81,
      "hit": false,
      "t": 6184.698812500002,
      "d": 74.6268333333337,
      "v": 77
    },
    {
      "midi": 93,
      "hit": false,
      "t": 6236.004760416668,
      "d": 76.95892187500067,
      "v": 64
    },
    {
      "midi": 81,
      "hit": false,
      "t": 6345.612921875002,
      "d": 62.9663906249998,
      "v": 80
    },
    {
      "midi": 93,
      "hit": false,
      "t": 6403.915135416669,
      "d": 60.63430208333284,
      "v": 66
    },
    {
      "midi": 81,
      "hit": false,
      "t": 6494.8665885416685,
      "d": 55.970124999999825,
      "v": 83
    },
    {
      "midi": 93,
      "hit": false,
      "t": 6553.168802083335,
      "d": 55.970124999999825,
      "v": 84
    },
    {
      "midi": 81,
      "hit": false,
      "t": 6639.456078125002,
      "d": 65.29847916666677,
      "v": 94
    },
    {
      "midi": 93,
      "hit": false,
      "t": 6709.418734375002,
      "d": 51.30594791666681,
      "v": 91
    },
    {
      "midi": 81,
      "hit": false,
      "t": 6793.3739218750015,
      "d": 65.29847916666677,
      "v": 95
    },
    {
      "midi": 93,
      "hit": false,
      "t": 6858.672401041668,
      "d": 60.63430208333375,
      "v": 97
    },
    {
      "midi": 81,
      "hit": false,
      "t": 6942.627588541669,
      "d": 67.63056770833373,
      "v": 97
    },
    {
      "midi": 93,
      "hit": false,
      "t": 7012.59024479167,
      "d": 65.29847916666677,
      "v": 104
    },
    {
      "midi": 81,
      "hit": false,
      "t": 7101.209609375003,
      "d": 65.29847916666677,
      "v": 102
    },
    {
      "midi": 93,
      "hit": false,
      "t": 7168.840177083337,
      "d": 60.63430208333375,
      "v": 102
    },
    {
      "midi": 81,
      "hit": false,
      "t": 7255.127453125004,
      "d": 65.29847916666677,
      "v": 102
    },
    {
      "midi": 93,
      "hit": false,
      "t": 7311.097578125004,
      "d": 69.96265625000069,
      "v": 90
    },
    {
      "midi": 81,
      "hit": false,
      "t": 7404.381119791671,
      "d": 65.29847916666677,
      "v": 100
    },
    {
      "midi": 93,
      "hit": false,
      "t": 7469.679598958338,
      "d": 62.9663906249998,
      "v": 106
    },
    {
      "midi": 81,
      "hit": false,
      "t": 7558.298963541671,
      "d": 67.63056770833373,
      "v": 104
    },
    {
      "midi": 93,
      "hit": false,
      "t": 7623.597442708337,
      "d": 65.29847916666677,
      "v": 100
    },
    {
      "midi": 81,
      "hit": false,
      "t": 7712.216807291671,
      "d": 74.6268333333337,
      "v": 100
    },
    {
      "midi": 93,
      "hit": false,
      "t": 7791.507817708338,
      "d": 37.31341666666685,
      "v": 88
    },
    {
      "midi": 81,
      "hit": false,
      "t": 7861.470473958338,
      "d": 69.96265624999978,
      "v": 90
    },
    {
      "midi": 93,
      "hit": false,
      "t": 7933.765218750004,
      "d": 90.95145312499972,
      "v": 98
    },
    {
      "midi": 81,
      "hit": false,
      "t": 8034.045026041671,
      "d": 32.64923958333293,
      "v": 80
    },
    {
      "midi": 87,
      "hit": false,
      "t": 8229.94046354167,
      "d": 121.26860416666568,
      "v": 127
    },
    {
      "midi": 86,
      "hit": false,
      "t": 8229.94046354167,
      "d": 163.24619791666555,
      "v": 120
    },
    {
      "midi": 88,
      "hit": false,
      "t": 8299.90311979167,
      "d": 219.21632291666538,
      "v": 100
    },
    {
      "midi": 81,
      "hit": false,
      "t": 8682.365640625003,
      "d": 2677.237645833333,
      "v": 125
    },
    {
      "midi": 93,
      "hit": false,
      "t": 8684.69772916667,
      "d": 2604.942901041666,
      "v": 127
    },
    {
      "midi": 92,
      "hit": false,
      "t": 8710.350703125003,
      "d": 9.328354166666031,
      "v": 71
    },
    {
      "midi": 86,
      "hit": false,
      "t": 11854.00605729167,
      "d": 471.0818854166664,
      "v": 125
    },
    {
      "midi": 78,
      "hit": false,
      "t": 11861.00232291667,
      "d": 342.81701562499984,
      "v": 127
    },
    {
      "midi": 81,
      "hit": false,
      "t": 11861.00232291667,
      "d": 352.14536979166587,
      "v": 127
    },
    {
      "midi": 81,
      "hit": false,
      "t": 12329.75211979167,
      "d": 1623.1336250000022,
      "v": 127
    },
    {
      "midi": 85,
      "hit": false,
      "t": 12334.416296875004,
      "d": 1674.439572916668,
      "v": 116
    },
    {
      "midi": 76,
      "hit": false,
      "t": 12336.748385416671,
      "d": 1609.1410937500004,
      "v": 127
    },
    {
      "midi": 103,
      "hit": false,
      "t": 14363.333328125005,
      "d": 25.65297395833295,
      "v": 127
    },
    {
      "midi": 101,
      "hit": false,
      "t": 14374.993770833338,
      "d": 44.30968229166683,
      "v": 122
    },
    {
      "midi": 100,
      "hit": false,
      "t": 14405.310921875005,
      "d": 44.30968229166683,
      "v": 120
    },
    {
      "midi": 98,
      "hit": false,
      "t": 14430.963895833338,
      "d": 53.63803645833468,
      "v": 127
    },
    {
      "midi": 96,
      "hit": false,
      "t": 14470.609401041673,
      "d": 55.970124999999825,
      "v": 108
    },
    {
      "midi": 95,
      "hit": false,
      "t": 14507.922817708339,
      "d": 55.970124999999825,
      "v": 102
    },
    {
      "midi": 93,
      "hit": false,
      "t": 14549.900411458339,
      "d": 51.3059479166659,
      "v": 106
    },
    {
      "midi": 91,
      "hit": false,
      "t": 14591.878005208338,
      "d": 51.3059479166659,
      "v": 95
    },
    {
      "midi": 89,
      "hit": false,
      "t": 14629.191421875004,
      "d": 51.3059479166659,
      "v": 75
    },
    {
      "midi": 88,
      "hit": false,
      "t": 14671.169015625004,
      "d": 46.641770833333794,
      "v": 65
    },
    {
      "midi": 86,
      "hit": false,
      "t": 14713.146609375004,
      "d": 46.641770833333794,
      "v": 72
    },
    {
      "midi": 84,
      "hit": false,
      "t": 14748.127937500005,
      "d": 48.97385937499894,
      "v": 60
    },
    {
      "midi": 83,
      "hit": false,
      "t": 14787.773442708338,
      "d": 46.641770833333794,
      "v": 70
    },
    {
      "midi": 81,
      "hit": false,
      "t": 14829.751036458338,
      "d": 46.641770833333794,
      "v": 70
    },
    {
      "midi": 79,
      "hit": false,
      "t": 14862.400276041672,
      "d": 51.3059479166659,
      "v": 70
    },
    {
      "midi": 77,
      "hit": false,
      "t": 14904.377869791671,
      "d": 53.63803645833286,
      "v": 70
    },
    {
      "midi": 76,
      "hit": false,
      "t": 14946.355463541671,
      "d": 55.970124999999825,
      "v": 75
    },
    {
      "midi": 74,
      "hit": false,
      "t": 14992.997234375005,
      "d": 55.970124999998006,
      "v": 92
    },
    {
      "midi": 72,
      "hit": false,
      "t": 15039.639005208337,
      "d": 58.30221354166679,
      "v": 91
    },
    {
      "midi": 71,
      "hit": false,
      "t": 15090.944953125003,
      "d": 60.63430208333375,
      "v": 87
    },
    {
      "midi": 69,
      "hit": false,
      "t": 15135.25463541667,
      "d": 72.29474479166674,
      "v": 87
    },
    {
      "midi": 67,
      "hit": false,
      "t": 15188.892671875003,
      "d": 74.6268333333337,
      "v": 81
    },
    {
      "midi": 65,
      "hit": false,
      "t": 15251.859062500003,
      "d": 67.63056770833282,
      "v": 85
    },
    {
      "midi": 64,
      "hit": false,
      "t": 15319.489630208336,
      "d": 48.97385937500076,
      "v": 84
    },
    {
      "midi": 62,
      "hit": false,
      "t": 15375.459755208338,
      "d": 51.3059479166659,
      "v": 72
    },
    {
      "midi": 60,
      "hit": false,
      "t": 15443.09032291667,
      "d": 44.30968229166683,
      "v": 70
    },
    {
      "midi": 59,
      "hit": false,
      "t": 15517.717156250004,
      "d": 62.96639062500071,
      "v": 70
    },
    {
      "midi": 52,
      "hit": false,
      "t": 15748.593921875005,
      "d": 58.30221354166679,
      "v": 74
    },
    {
      "midi": 61,
      "hit": false,
      "t": 15902.511765625004,
      "d": 1557.8351458333345,
      "v": 100
    },
    {
      "midi": 69,
      "hit": false,
      "t": 15907.175942708338,
      "d": 1352.6113541666673,
      "v": 100
    },
    {
      "midi": 45,
      "hit": false,
      "t": 15907.175942708338,
      "d": 1525.1859062500007,
      "v": 100
    },
    {
      "midi": 66,
      "hit": false,
      "t": 17035.906796875006,
      "d": 125.93278124999779,
      "v": 100
    },
    {
      "midi": 74,
      "hit": false,
      "t": 17035.906796875006,
      "d": 235.5409427083323,
      "v": 107
    },
    {
      "midi": 71,
      "hit": false,
      "t": 17042.903062500005,
      "d": 249.53347395833407,
      "v": 100
    },
    {
      "midi": 73,
      "hit": false,
      "t": 17250.458942708337,
      "d": 331.15657291666867,
      "v": 97
    },
    {
      "midi": 69,
      "hit": false,
      "t": 17259.787296875005,
      "d": 261.19391666666706,
      "v": 92
    },
    {
      "midi": 64,
      "hit": false,
      "t": 17262.11938541667,
      "d": 258.8618281250019,
      "v": 96
    },
    {
      "midi": 57,
      "hit": false,
      "t": 17474.33944270834,
      "d": 69.96265624999796,
      "v": 70
    },
    {
      "midi": 65,
      "hit": false,
      "t": 17707.548296875008,
      "d": 1490.204578124998,
      "v": 117
    },
    {
      "midi": 71,
      "hit": false,
      "t": 17707.548296875008,
      "d": 1567.1634999999987,
      "v": 117
    },
    {
      "midi": 49,
      "hit": false,
      "t": 17709.880385416673,
      "d": 1536.8463489583337,
      "v": 83
    },
    {
      "midi": 59,
      "hit": false,
      "t": 18838.61123958334,
      "d": 240.20511979166622,
      "v": 39
    },
    {
      "midi": 59,
      "hit": false,
      "t": 19249.05882291667,
      "d": 37.31341666666776,
      "v": 55
    },
    {
      "midi": 73,
      "hit": false,
      "t": 19489.263942708338,
      "d": 1548.506791666663,
      "v": 117
    },
    {
      "midi": 69,
      "hit": false,
      "t": 19491.596031250003,
      "d": 1513.525463541664,
      "v": 104
    },
    {
      "midi": 54,
      "hit": false,
      "t": 19498.592296875002,
      "d": 1021.4547812499986,
      "v": 100
    },
    {
      "midi": 66,
      "hit": false,
      "t": 19510.252739583335,
      "d": 1527.5179947916658,
      "v": 87
    },
    {
      "midi": 54,
      "hit": false,
      "t": 20599.338088541666,
      "d": 300.83942187499997,
      "v": 53
    },
    {
      "midi": 54,
      "hit": false,
      "t": 21033.106557291667,
      "d": 195.8954374999994,
      "v": 62
    },
    {
      "midi": 65,
      "hit": false,
      "t": 21266.315411458334,
      "d": 713.619093749996,
      "v": 115
    },
    {
      "midi": 69,
      "hit": false,
      "t": 21266.315411458334,
      "d": 774.2533958333297,
      "v": 110
    },
    {
      "midi": 73,
      "hit": false,
      "t": 21273.311677083333,
      "d": 1473.8799583333312,
      "v": 103
    },
    {
      "midi": 42,
      "hit": false,
      "t": 21275.643765625,
      "d": 1508.8612864583338,
      "v": 97
    },
    {
      "midi": 54,
      "hit": false,
      "t": 21923.96438020833,
      "d": 729.9437135416665,
      "v": 75
    },
    {
      "midi": 69,
      "hit": false,
      "t": 22152.509057291663,
      "d": 569.0296041666661,
      "v": 100
    },
    {
      "midi": 64,
      "hit": false,
      "t": 22157.173234374997,
      "d": 613.3392864583329,
      "v": 107
    },
    {
      "midi": 54,
      "hit": false,
      "t": 22824.150557291665,
      "d": 65.29847916666768,
      "v": 60
    },
    {
      "midi": 71,
      "hit": false,
      "t": 23062.023588541666,
      "d": 1366.6038854166727,
      "v": 110
    },
    {
      "midi": 67,
      "hit": false,
      "t": 23064.35567708333,
      "d": 1194.0293333333393,
      "v": 112
    },
    {
      "midi": 62,
      "hit": false,
      "t": 23064.35567708333,
      "d": 1716.417166666677,
      "v": 115
    },
    {
      "midi": 69,
      "hit": false,
      "t": 23719.672557291666,
      "d": 107.27607291666936,
      "v": 117
    },
    {
      "midi": 74,
      "hit": false,
      "t": 23719.672557291666,
      "d": 144.58948958333713,
      "v": 117
    },
    {
      "midi": 55,
      "hit": false,
      "t": 23733.665088541668,
      "d": 118.93651562500236,
      "v": 84
    },
    {
      "midi": 55,
      "hit": false,
      "t": 24174.42982291667,
      "d": 501.3990364583369,
      "v": 100
    },
    {
      "midi": 74,
      "hit": false,
      "t": 24176.761911458336,
      "d": 720.6153593750059,
      "v": 117
    },
    {
      "midi": 69,
      "hit": false,
      "t": 24181.42608854167,
      "d": 550.3728958333377,
      "v": 117
    },
    {
      "midi": 71,
      "hit": false,
      "t": 24428.62747395834,
      "d": 452.42517708333617,
      "v": 110
    },
    {
      "midi": 67,
      "hit": false,
      "t": 24643.179619791674,
      "d": 235.54094270833593,
      "v": 90
    },
    {
      "midi": 66,
      "hit": false,
      "t": 25076.948088541674,
      "d": 578.357958333334,
      "v": 117
    },
    {
      "midi": 74,
      "hit": false,
      "t": 25079.28017708334,
      "d": 636.6601718750026,
      "v": 117
    },
    {
      "midi": 47,
      "hit": false,
      "t": 25086.27644270834,
      "d": 1366.6038854166727,
      "v": 80
    },
    {
      "midi": 59,
      "hit": false,
      "t": 25557.358328125007,
      "d": 694.9623854166675,
      "v": 94
    },
    {
      "midi": 64,
      "hit": false,
      "t": 25757.917942708344,
      "d": 571.3616927083312,
      "v": 110
    },
    {
      "midi": 73,
      "hit": false,
      "t": 25762.582119791678,
      "d": 471.0818854166646,
      "v": 100
    },
    {
      "midi": 66,
      "hit": false,
      "t": 26208.01103125001,
      "d": 263.5260052083322,
      "v": 109
    },
    {
      "midi": 74,
      "hit": false,
      "t": 26210.343119791676,
      "d": 373.1341666666667,
      "v": 110
    },
    {
      "midi": 59,
      "hit": false,
      "t": 26410.90273437501,
      "d": 67.63056770833282,
      "v": 66
    },
    {
      "midi": 62,
      "hit": false,
      "t": 26634.78323437501,
      "d": 888.5257343750018,
      "v": 112
    },
    {
      "midi": 71,
      "hit": false,
      "t": 26634.78323437501,
      "d": 1602.144828125005,
      "v": 110
    },
    {
      "midi": 67,
      "hit": false,
      "t": 26639.447411458343,
      "d": 1630.129890625005,
      "v": 112
    },
    {
      "midi": 43,
      "hit": false,
      "t": 26653.439942708344,
      "d": 1527.5179947916658,
      "v": 88
    },
    {
      "midi": 55,
      "hit": false,
      "t": 27758.849911458343,
      "d": 293.8431562500009,
      "v": 62
    },
    {
      "midi": 62,
      "hit": false,
      "t": 27987.394588541676,
      "d": 207.55588020833602,
      "v": 71
    },
    {
      "midi": 55,
      "hit": false,
      "t": 28204.27882291668,
      "d": 81.6230989583346,
      "v": 67
    },
    {
      "midi": 64,
      "hit": false,
      "t": 28435.155588541682,
      "d": 657.6489687499998,
      "v": 110
    },
    {
      "midi": 71,
      "hit": false,
      "t": 28435.155588541682,
      "d": 846.5481406250001,
      "v": 110
    },
    {
      "midi": 69,
      "hit": false,
      "t": 28437.487677083347,
      "d": 858.2085833333367,
      "v": 115
    },
    {
      "midi": 52,
      "hit": false,
      "t": 28446.816031250015,
      "d": 1483.2083125000026,
      "v": 80
    },
    {
      "midi": 59,
      "hit": false,
      "t": 29120.78961979168,
      "d": 662.3131458333373,
      "v": 68
    },
    {
      "midi": 68,
      "hit": false,
      "t": 29344.670119791685,
      "d": 792.910104166669,
      "v": 117
    },
    {
      "midi": 64,
      "hit": false,
      "t": 29349.33429687502,
      "d": 317.1640416666669,
      "v": 104
    },
    {
      "midi": 71,
      "hit": false,
      "t": 29349.33429687502,
      "d": 697.2944739583327,
      "v": 104
    },
    {
      "midi": 64,
      "hit": false,
      "t": 29806.423651041685,
      "d": 261.19391666666706,
      "v": 66
    },
    {
      "midi": 59,
      "hit": false,
      "t": 29985.994468750017,
      "d": 72.29474479166674,
      "v": 70
    },
    {
      "midi": 71,
      "hit": false,
      "t": 30214.539145833354,
      "d": 1609.1410937499968,
      "v": 102
    },
    {
      "midi": 64,
      "hit": false,
      "t": 30219.20332291669,
      "d": 352.14536979166587,
      "v": 107
    },
    {
      "midi": 69,
      "hit": false,
      "t": 30221.535411458353,
      "d": 853.5444062500028,
      "v": 115
    },
    {
      "midi": 40,
      "hit": false,
      "t": 30235.527942708355,
      "d": 666.9773229166676,
      "v": 104
    },
    {
      "midi": 64,
      "hit": false,
      "t": 30683.288942708354,
      "d": 265.858093750001,
      "v": 75
    },
    {
      "midi": 52,
      "hit": false,
      "t": 30888.51273437502,
      "d": 818.5630781250002,
      "v": 92
    },
    {
      "midi": 68,
      "hit": false,
      "t": 31112.393234375024,
      "d": 666.977322916664,
      "v": 109
    },
    {
      "midi": 64,
      "hit": false,
      "t": 31114.72532291669,
      "d": 342.817015624998,
      "v": 107
    },
    {
      "midi": 40,
      "hit": false,
      "t": 31121.721588541688,
      "d": 867.5369374999973,
      "v": 117
    },
    {
      "midi": 64,
      "hit": false,
      "t": 31581.14303125002,
      "d": 240.20511979166622,
      "v": 87
    },
    {
      "midi": 52,
      "hit": false,
      "t": 31798.02726562502,
      "d": 214.55214583333145,
      "v": 85
    },
    {
      "midi": 47,
      "hit": false,
      "t": 32014.911500000017,
      "d": 39.64550520833291,
      "v": 68
    },
    {
      "midi": 73,
      "hit": false,
      "t": 32236.45991145835,
      "d": 573.6937812500073,
      "v": 117
    },
    {
      "midi": 64,
      "hit": false,
      "t": 32245.78826562502,
      "d": 340.4849270833365,
      "v": 100
    },
    {
      "midi": 69,
      "hit": false,
      "t": 32245.78826562502,
      "d": 680.9698541666767,
      "v": 110
    },
    {
      "midi": 45,
      "hit": false,
      "t": 32259.78079687502,
      "d": 1259.327812500007,
      "v": 98
    },
    {
      "midi": 64,
      "hit": false,
      "t": 32698.213442708355,
      "d": 121.26860416667114,
      "v": 69
    },
    {
      "midi": 57,
      "hit": false,
      "t": 32917.42976562503,
      "d": 501.39903645832965,
      "v": 81
    },
    {
      "midi": 66,
      "hit": false,
      "t": 33127.31773437503,
      "d": 146.921578124995,
      "v": 106
    },
    {
      "midi": 71,
      "hit": false,
      "t": 33131.98191145836,
      "d": 272.85435937500006,
      "v": 100
    },
    {
      "midi": 74,
      "hit": false,
      "t": 33136.64608854169,
      "d": 324.1603072916696,
      "v": 117
    },
    {
      "midi": 73,
      "hit": false,
      "t": 33325.54526041669,
      "d": 373.13416666667035,
      "v": 89
    },
    {
      "midi": 64,
      "hit": false,
      "t": 33348.86614583336,
      "d": 219.21632291666901,
      "v": 104
    },
    {
      "midi": 57,
      "hit": false,
      "t": 33565.75038020836,
      "d": 205.22379166667088,
      "v": 73
    },
    {
      "midi": 71,
      "hit": false,
      "t": 33798.959234375034,
      "d": 1711.7529895833432,
      "v": 112
    },
    {
      "midi": 49,
      "hit": false,
      "t": 33801.2913229167,
      "d": 1648.786598958337,
      "v": 87
    },
    {
      "midi": 65,
      "hit": false,
      "t": 33803.62341145837,
      "d": 1117.070411458335,
      "v": 115
    },
    {
      "midi": 59,
      "hit": false,
      "t": 34923.025911458375,
      "d": 359.14163541666494,
      "v": 60
    },
    {
      "midi": 65,
      "hit": false,
      "t": 35156.23476562504,
      "d": 247.2013854166653,
      "v": 81
    },
    {
      "midi": 59,
      "hit": false,
      "t": 35403.43615104171,
      "d": 65.29847916666768,
      "v": 60
    },
    {
      "midi": 66,
      "hit": false,
      "t": 35809.21955729171,
      "d": 830.2235208333368,
      "v": 109
    },
    {
      "midi": 73,
      "hit": false,
      "t": 35809.21955729171,
      "d": 1291.9770520833335,
      "v": 109
    },
    {
      "midi": 69,
      "hit": false,
      "t": 35816.21582291671,
      "d": 1284.9807864583345,
      "v": 107
    },
    {
      "midi": 42,
      "hit": false,
      "t": 35825.54417708338,
      "d": 1373.6001510416754,
      "v": 91
    },
    {
      "midi": 54,
      "hit": false,
      "t": 36732.72661979171,
      "d": 298.5073333333348,
      "v": 77
    },
    {
      "midi": 66,
      "hit": false,
      "t": 36961.27129687505,
      "d": 158.58202083333163,
      "v": 85
    },
    {
      "midi": 54,
      "hit": false,
      "t": 37171.15926562505,
      "d": 177.23872916666733,
      "v": 65
    },
    {
      "midi": 77,
      "hit": false,
      "t": 37404.36811979172,
      "d": 680.9698541666658,
      "v": 117
    },
    {
      "midi": 69,
      "hit": false,
      "t": 37404.36811979172,
      "d": 732.275802083328,
      "v": 112
    },
    {
      "midi": 73,
      "hit": false,
      "t": 37404.36811979172,
      "d": 741.6041562499959,
      "v": 117
    },
    {
      "midi": 65,
      "hit": false,
      "t": 37409.03229687505,
      "d": 713.6190937499996,
      "v": 100
    },
    {
      "midi": 42,
      "hit": false,
      "t": 37411.36438541672,
      "d": 1728.0776093749882,
      "v": 100
    },
    {
      "midi": 54,
      "hit": false,
      "t": 38085.33797395838,
      "d": 727.6116249999905,
      "v": 89
    },
    {
      "midi": 73,
      "hit": false,
      "t": 38295.22594270838,
      "d": 1000.4659843749978,
      "v": 117
    },
    {
      "midi": 69,
      "hit": false,
      "t": 38299.89011979171,
      "d": 1005.1301614583354,
      "v": 112
    },
    {
      "midi": 64,
      "hit": false,
      "t": 38302.222208333376,
      "d": 349.8132812499971,
      "v": 112
    },
    {
      "midi": 76,
      "hit": false,
      "t": 38302.222208333376,
      "d": 977.1450989583318,
      "v": 117
    },
    {
      "midi": 64,
      "hit": false,
      "t": 38733.65858854171,
      "d": 543.3766302083313,
      "v": 70
    },
    {
      "midi": 54,
      "hit": false,
      "t": 38948.21073437504,
      "d": 219.21632291666901,
      "v": 71
    },
    {
      "midi": 49,
      "hit": false,
      "t": 39172.09123437504,
      "d": 27.98506250000355,
      "v": 57
    },
    {
      "midi": 43,
      "hit": false,
      "t": 39414.628442708374,
      "d": 1450.5590729166724,
      "v": 117
    },
    {
      "midi": 69,
      "hit": false,
      "t": 39881.04615104171,
      "d": 624.9997291666659,
      "v": 117
    },
    {
      "midi": 74,
      "hit": false,
      "t": 39881.04615104171,
      "d": 965.4846562500024,
      "v": 117
    },
    {
      "midi": 55,
      "hit": false,
      "t": 40321.81088541671,
      "d": 314.83195312500175,
      "v": 90
    },
    {
      "midi": 71,
      "hit": false,
      "t": 40534.03094270838,
      "d": 289.178979166667,
      "v": 107
    },
    {
      "midi": 67,
      "hit": false,
      "t": 40534.03094270838,
      "d": 331.15657291666867,
      "v": 112
    },
    {
      "midi": 69,
      "hit": false,
      "t": 40548.023473958376,
      "d": 27.98506250000355,
      "v": 74
    },
    {
      "midi": 55,
      "hit": false,
      "t": 40757.91144270838,
      "d": 142.25740104167198,
      "v": 80
    },
    {
      "midi": 50,
      "hit": false,
      "t": 40963.13523437505,
      "d": 79.29101041666581,
      "v": 80
    },
    {
      "midi": 66,
      "hit": false,
      "t": 41196.344088541715,
      "d": 478.07815104166366,
      "v": 117
    },
    {
      "midi": 74,
      "hit": false,
      "t": 41196.344088541715,
      "d": 485.0744166666627,
      "v": 117
    },
    {
      "midi": 47,
      "hit": false,
      "t": 41201.008265625045,
      "d": 1375.932239583337,
      "v": 98
    },
    {
      "midi": 59,
      "hit": false,
      "t": 41653.43344270838,
      "d": 792.9101041666654,
      "v": 100
    },
    {
      "midi": 73,
      "hit": false,
      "t": 41884.31020833338,
      "d": 382.4625208333309,
      "v": 117
    },
    {
      "midi": 64,
      "hit": false,
      "t": 41888.97438541671,
      "d": 522.3878333333341,
      "v": 115
    },
    {
      "midi": 66,
      "hit": false,
      "t": 42320.41076562504,
      "d": 214.55214583333873,
      "v": 117
    },
    {
      "midi": 74,
      "hit": false,
      "t": 42320.41076562504,
      "d": 286.84689062501275,
      "v": 117
    },
    {
      "midi": 54,
      "hit": false,
      "t": 42534.96291145838,
      "d": 69.96265625000524,
      "v": 75
    },
    {
      "midi": 71,
      "hit": false,
      "t": 42751.84714583339,
      "d": 1602.1448281250123,
      "v": 115
    },
    {
      "midi": 62,
      "hit": false,
      "t": 42754.17923437506,
      "d": 543.3766302083386,
      "v": 115
    },
    {
      "midi": 67,
      "hit": false,
      "t": 42754.17923437506,
      "d": 1086.7532604166772,
      "v": 115
    },
    {
      "midi": 43,
      "hit": false,
      "t": 42765.83967708339,
      "d": 1658.1149531250048,
      "v": 96
    },
    {
      "midi": 62,
      "hit": false,
      "t": 43397.835671875066,
      "d": 144.5894895833335,
      "v": 37
    },
    {
      "midi": 62,
      "hit": false,
      "t": 43789.626546875064,
      "d": 156.24993229167012,
      "v": 63
    },
    {
      "midi": 55,
      "hit": false,
      "t": 43887.574265625066,
      "d": 331.15657291666867,
      "v": 88
    },
    {
      "midi": 67,
      "hit": false,
      "t": 44102.126411458405,
      "d": 326.4923958333238,
      "v": 94
    },
    {
      "midi": 62,
      "hit": false,
      "t": 44106.790588541735,
      "d": 191.23126041666546,
      "v": 104
    },
    {
      "midi": 55,
      "hit": false,
      "t": 44330.671088541734,
      "d": 107.27607291666209,
      "v": 68
    },
    {
      "midi": 64,
      "hit": false,
      "t": 44545.223234375066,
      "d": 746.2683333333262,
      "v": 117
    },
    {
      "midi": 71,
      "hit": false,
      "t": 44545.223234375066,
      "d": 825.559343749992,
      "v": 117
    },
    {
      "midi": 69,
      "hit": false,
      "t": 44549.887411458396,
      "d": 827.8914322916607,
      "v": 117
    },
    {
      "midi": 52,
      "hit": false,
      "t": 44563.879942708394,
      "d": 1380.5964166666672,
      "v": 96
    },
    {
      "midi": 40,
      "hit": false,
      "t": 45226.193088541724,
      "d": 869.8690260416697,
      "v": 104
    },
    {
      "midi": 71,
      "hit": false,
      "t": 45468.73029687506,
      "d": 657.6489687499998,
      "v": 112
    },
    {
      "midi": 68,
      "hit": false,
      "t": 45471.06238541673,
      "d": 578.357958333334,
      "v": 117
    },
    {
      "midi": 64,
      "hit": false,
      "t": 45473.3944739584,
      "d": 331.15657291666867,
      "v": 115
    },
    {
      "midi": 64,
      "hit": false,
      "t": 45939.81218229173,
      "d": 750.9325104166564,
      "v": 73
    },
    {
      "midi": 52,
      "hit": false,
      "t": 46105.39046875006,
      "d": 734.6078906249968,
      "v": 100
    },
    {
      "midi": 69,
      "hit": false,
      "t": 46345.59558854173,
      "d": 727.611625000005,
      "v": 117
    },
    {
      "midi": 76,
      "hit": false,
      "t": 46345.59558854173,
      "d": 755.5966875000086,
      "v": 117
    },
    {
      "midi": 71,
      "hit": false,
      "t": 46350.25976562506,
      "d": 788.2459270833424,
      "v": 117
    },
    {
      "midi": 40,
      "hit": false,
      "t": 46357.25603125006,
      "d": 613.3392864583366,
      "v": 110
    },
    {
      "midi": 64,
      "hit": false,
      "t": 46774.69988020839,
      "d": 522.3878333333487,
      "v": 78
    },
    {
      "midi": 52,
      "hit": false,
      "t": 46998.5803802084,
      "d": 792.91010416668,
      "v": 117
    },
    {
      "midi": 76,
      "hit": false,
      "t": 47229.4571458334,
      "d": 809.2347239583469,
      "v": 117
    },
    {
      "midi": 71,
      "hit": false,
      "t": 47229.4571458334,
      "d": 832.5556093750129,
      "v": 107
    },
    {
      "midi": 68,
      "hit": false,
      "t": 47231.78923437507,
      "d": 823.227255208345,
      "v": 117
    },
    {
      "midi": 40,
      "hit": false,
      "t": 47231.78923437507,
      "d": 867.5369375000155,
      "v": 117
    },
    {
      "midi": 64,
      "hit": false,
      "t": 47684.21441145841,
      "d": 380.1304322916767,
      "v": 112
    },
    {
      "midi": 52,
      "hit": false,
      "t": 47898.76655729175,
      "d": 193.56334895834152,
      "v": 96
    },
    {
      "midi": 47,
      "hit": false,
      "t": 48099.32617187509,
      "d": 58.30221354166861,
      "v": 84
    },
    {
      "midi": 71,
      "hit": false,
      "t": 48344.19546875009,
      "d": 902.518265624989,
      "v": 110
    },
    {
      "midi": 62,
      "hit": false,
      "t": 48348.85964583342,
      "d": 580.6900468750027,
      "v": 117
    },
    {
      "midi": 66,
      "hit": false,
      "t": 48348.85964583342,
      "d": 893.1899114583284,
      "v": 117
    },
    {
      "midi": 47,
      "hit": false,
      "t": 48360.52008854176,
      "d": 881.5294687499918,
      "v": 102
    },
    {
      "midi": 59,
      "hit": false,
      "t": 48810.613177083425,
      "d": 314.83195312499447,
      "v": 73
    },
    {
      "midi": 62,
      "hit": false,
      "t": 49064.81082812509,
      "d": 181.90290624999034,
      "v": 75
    },
    {
      "midi": 59,
      "hit": false,
      "t": 49256.04208854175,
      "d": 167.91037499999948,
      "v": 82
    },
    {
      "midi": 64,
      "hit": false,
      "t": 49484.58676562508,
      "d": 233.20885416666715,
      "v": 100
    },
    {
      "midi": 68,
      "hit": false,
      "t": 49484.58676562508,
      "d": 247.2013854166653,
      "v": 117
    },
    {
      "midi": 73,
      "hit": false,
      "t": 49484.58676562508,
      "d": 261.1939166666634,
      "v": 117
    },
    {
      "midi": 49,
      "hit": false,
      "t": 49489.25094270841,
      "d": 219.21632291666901,
      "v": 79
    },
    {
      "midi": 61,
      "hit": false,
      "t": 49759.77321354174,
      "d": 46.641770833331975,
      "v": 69
    },
    {
      "midi": 73,
      "hit": false,
      "t": 49941.67611979174,
      "d": 1870.3350104166602,
      "v": 117
    },
    {
      "midi": 65,
      "hit": false,
      "t": 49946.34029687507,
      "d": 757.9287760416628,
      "v": 110
    },
    {
      "midi": 50,
      "hit": false,
      "t": 49960.332828125065,
      "d": 1686.100015625001,
      "v": 92
    },
    {
      "midi": 62,
      "hit": false,
      "t": 50594.6609114584,
      "d": 396.45505208333634,
      "v": 77
    },
    {
      "midi": 65,
      "hit": false,
      "t": 50827.869765625066,
      "d": 373.13416666667035,
      "v": 63
    },
    {
      "midi": 62,
      "hit": false,
      "t": 51040.089822916736,
      "d": 375.46625520833186,
      "v": 49
    },
    {
      "midi": 65,
      "hit": false,
      "t": 51261.63823437507,
      "d": 536.3803645833323,
      "v": 64
    },
    {
      "midi": 62,
      "hit": false,
      "t": 51504.1754427084,
      "d": 111.94024999999965,
      "v": 57
    },
    {
      "midi": 57,
      "hit": false,
      "t": 51728.0559427084,
      "d": 32.64923958333384,
      "v": 61
    },
    {
      "midi": 64,
      "hit": false,
      "t": 51944.940177083394,
      "d": 967.8167447916712,
      "v": 107
    },
    {
      "midi": 69,
      "hit": false,
      "t": 51944.940177083394,
      "d": 1392.2568593749966,
      "v": 112
    },
    {
      "midi": 73,
      "hit": false,
      "t": 51944.940177083394,
      "d": 1392.2568593749966,
      "v": 117
    },
    {
      "midi": 45,
      "hit": false,
      "t": 51947.27226562506,
      "d": 1338.6188229166655,
      "v": 92
    },
    {
      "midi": 57,
      "hit": false,
      "t": 52840.4621770834,
      "d": 298.5073333333348,
      "v": 60
    },
    {
      "midi": 64,
      "hit": false,
      "t": 53064.3426770834,
      "d": 258.86182812499464,
      "v": 82
    },
    {
      "midi": 57,
      "hit": false,
      "t": 53281.2269114584,
      "d": 60.63430208332284,
      "v": 60
    },
    {
      "midi": 69,
      "hit": false,
      "t": 53514.43576562505,
      "d": 1814.3648854166677,
      "v": 117
    },
    {
      "midi": 71,
      "hit": false,
      "t": 53514.43576562505,
      "d": 1874.999187500005,
      "v": 117
    },
    {
      "midi": 64,
      "hit": false,
      "t": 53514.43576562505,
      "d": 3115.6702916666763,
      "v": 115
    },
    {
      "midi": 42,
      "hit": false,
      "t": 53533.092473958386,
      "d": 1760.7268489583294,
      "v": 100
    },
    {
      "midi": 76,
      "hit": false,
      "t": 54862.382942708384,
      "d": 1956.622286458347,
      "v": 117
    },
    {
      "midi": 54,
      "hit": false,
      "t": 55088.59553125005,
      "d": 111.94024999999965,
      "v": 64
    },
    {
      "midi": 49,
      "hit": false,
      "t": 55286.82305729172,
      "d": 53.63803645833832,
      "v": 69
    },
    {
      "midi": 71,
      "hit": false,
      "t": 55520.03191145839,
      "d": 1266.324078125006,
      "v": 112
    },
    {
      "midi": 68,
      "hit": false,
      "t": 55522.36400000006,
      "d": 1252.3315468750006,
      "v": 117
    },
    {
      "midi": 49,
      "hit": false,
      "t": 55527.02817708339,
      "d": 1305.969583333339,
      "v": 85
    },
    {
      "midi": 64,
      "hit": false,
      "t": 56744.378395833395,
      "d": 67.63056770833646,
      "v": 21
    },
    {
      "midi": 69,
      "hit": false,
      "t": 57082.53123437506,
      "d": 755.5966875000086,
      "v": 115
    },
    {
      "midi": 64,
      "hit": false,
      "t": 57084.86332291673,
      "d": 1301.3054062500087,
      "v": 110
    },
    {
      "midi": 71,
      "hit": false,
      "t": 57087.1954114584,
      "d": 797.574281250003,
      "v": 115
    },
    {
      "midi": 76,
      "hit": false,
      "t": 57087.1954114584,
      "d": 1557.8351458333418,
      "v": 117
    },
    {
      "midi": 52,
      "hit": false,
      "t": 57098.85585416674,
      "d": 967.8167447916712,
      "v": 84
    },
    {
      "midi": 68,
      "hit": false,
      "t": 57982.717411458405,
      "d": 659.9810572916685,
      "v": 117
    },
    {
      "midi": 71,
      "hit": false,
      "t": 57982.717411458405,
      "d": 694.9623854166712,
      "v": 102
    },
    {
      "midi": 40,
      "hit": false,
      "t": 57999.04203125007,
      "d": 552.7049843749992,
      "v": 110
    },
    {
      "midi": 64,
      "hit": false,
      "t": 58465.459739583406,
      "d": 368.46998958334007,
      "v": 48
    },
    {
      "midi": 40,
      "hit": false,
      "t": 58645.03055729174,
      "d": 853.5444062500101,
      "v": 94
    },
    {
      "midi": 64,
      "hit": false,
      "t": 58866.57896875008,
      "d": 468.7497968750031,
      "v": 60
    },
    {
      "midi": 71,
      "hit": false,
      "t": 58873.57523437508,
      "d": 704.290739583339,
      "v": 115
    },
    {
      "midi": 76,
      "hit": false,
      "t": 58875.90732291675,
      "d": 1879.66336458335,
      "v": 117
    },
    {
      "midi": 69,
      "hit": false,
      "t": 58878.23941145842,
      "d": 680.9698541666658,
      "v": 117
    },
    {
      "midi": 52,
      "hit": false,
      "t": 58882.90358854175,
      "d": 555.0370729166752,
      "v": 98
    },
    {
      "midi": 64,
      "hit": false,
      "t": 59386.63471354175,
      "d": 713.6190937499996,
      "v": 43
    },
    {
      "midi": 52,
      "hit": false,
      "t": 59535.88838020842,
      "d": 774.253395833337,
      "v": 76
    },
    {
      "midi": 71,
      "hit": false,
      "t": 59773.76141145842,
      "d": 988.8055416666757,
      "v": 112
    },
    {
      "midi": 68,
      "hit": false,
      "t": 59776.09350000009,
      "d": 958.4883906250034,
      "v": 117
    },
    {
      "midi": 40,
      "hit": false,
      "t": 59783.08976562509,
      "d": 816.2309895833314,
      "v": 112
    },
    {
      "midi": 64,
      "hit": false,
      "t": 60212.19405729175,
      "d": 531.7161875000093,
      "v": 98
    },
    {
      "midi": 52,
      "hit": false,
      "t": 60412.753671875085,
      "d": 270.52227083333855,
      "v": 88
    },
    {
      "midi": 45,
      "hit": false,
      "t": 60897.82808854176,
      "d": 1317.630026041661,
      "v": 117
    },
    {
      "midi": 66,
      "hit": false,
      "t": 61368.90997395843,
      "d": 20.988796874997206,
      "v": 61
    },
    {
      "midi": 57,
      "hit": false,
      "t": 61588.12629687509,
      "d": 492.0706822916691,
      "v": 64
    },
    {
      "midi": 66,
      "hit": false,
      "t": 61812.00679687509,
      "d": 167.91037499999948,
      "v": 117
    },
    {
      "midi": 74,
      "hit": false,
      "t": 61812.00679687509,
      "d": 291.51106770833576,
      "v": 117
    },
    {
      "midi": 71,
      "hit": false,
      "t": 61812.00679687509,
      "d": 366.1379010416713,
      "v": 115
    },
    {
      "midi": 73,
      "hit": false,
      "t": 62031.22311979176,
      "d": 270.5222708333313,
      "v": 87
    },
    {
      "midi": 64,
      "hit": false,
      "t": 62049.87982812509,
      "d": 191.23126041666546,
      "v": 102
    },
    {
      "midi": 57,
      "hit": false,
      "t": 62234.11482291676,
      "d": 212.22005729166267,
      "v": 65
    },
    {
      "midi": 49,
      "hit": false,
      "t": 62460.32741145842,
      "d": 1599.812739583329,
      "v": 89
    },
    {
      "midi": 65,
      "hit": false,
      "t": 62467.32367708342,
      "d": 1546.174703124998,
      "v": 117
    },
    {
      "midi": 71,
      "hit": false,
      "t": 62467.32367708342,
      "d": 1602.1448281249977,
      "v": 115
    },
    {
      "midi": 66,
      "hit": false,
      "t": 64258.36767708341,
      "d": 1513.5254635416786,
      "v": 117
    },
    {
      "midi": 69,
      "hit": false,
      "t": 64260.69976562508,
      "d": 1494.8687552083502,
      "v": 115
    },
    {
      "midi": 73,
      "hit": false,
      "t": 64260.69976562508,
      "d": 1508.8612864583483,
      "v": 117
    },
    {
      "midi": 54,
      "hit": false,
      "t": 64298.01318229175,
      "d": 1030.7831354166701,
      "v": 106
    },
    {
      "midi": 54,
      "hit": false,
      "t": 65380.102265625086,
      "d": 279.8506250000064,
      "v": 39
    },
    {
      "midi": 54,
      "hit": false,
      "t": 65797.54611458343,
      "d": 184.2349947916664,
      "v": 67
    },
    {
      "midi": 65,
      "hit": false,
      "t": 66042.41541145842,
      "d": 743.9362447916646,
      "v": 112
    },
    {
      "midi": 42,
      "hit": false,
      "t": 66049.41167708342,
      "d": 673.973588541674,
      "v": 113
    },
    {
      "midi": 73,
      "hit": false,
      "t": 66049.41167708342,
      "d": 743.9362447916646,
      "v": 113
    },
    {
      "midi": 69,
      "hit": false,
      "t": 66049.41167708342,
      "d": 753.2645989583252,
      "v": 110
    },
    {
      "midi": 54,
      "hit": false,
      "t": 66737.3777968751,
      "d": 156.24993229165557,
      "v": 97
    },
    {
      "midi": 73,
      "hit": false,
      "t": 66951.92994270842,
      "d": 592.3504895833175,
      "v": 109
    },
    {
      "midi": 69,
      "hit": false,
      "t": 66954.26203125008,
      "d": 571.3616927083203,
      "v": 107
    },
    {
      "midi": 42,
      "hit": false,
      "t": 66956.59411979174,
      "d": 659.9810572916613,
      "v": 117
    },
    {
      "midi": 64,
      "hit": false,
      "t": 66958.9262083334,
      "d": 608.6751093750063,
      "v": 112
    },
    {
      "midi": 54,
      "hit": false,
      "t": 67628.23561979174,
      "d": 86.28727604166488,
      "v": 103
    },
    {
      "midi": 67,
      "hit": false,
      "t": 67842.78776562508,
      "d": 1201.025598958353,
      "v": 107
    },
    {
      "midi": 74,
      "hit": false,
      "t": 67842.78776562508,
      "d": 1212.6860416666896,
      "v": 117
    },
    {
      "midi": 71,
      "hit": false,
      "t": 67842.78776562508,
      "d": 1303.637494791692,
      "v": 110
    },
    {
      "midi": 62,
      "hit": false,
      "t": 67847.45194270842,
      "d": 527.052010416679,
      "v": 112
    },
    {
      "midi": 43,
      "hit": false,
      "t": 68094.65332812509,
      "d": 1417.9098333333386,
      "v": 117
    },
    {
      "midi": 62,
      "hit": false,
      "t": 68495.77255729176,
      "d": 541.0445416666771,
      "v": 80
    },
    {
      "midi": 55,
      "hit": false,
      "t": 68952.86191145843,
      "d": 349.8132812499971,
      "v": 90
    },
    {
      "midi": 74,
      "hit": false,
      "t": 69195.39911979176,
      "d": 284.5148020833294,
      "v": 112
    },
    {
      "midi": 71,
      "hit": false,
      "t": 69195.39911979176,
      "d": 303.1715104166651,
      "v": 65
    },
    {
      "midi": 62,
      "hit": false,
      "t": 69195.39911979176,
      "d": 321.8282187500008,
      "v": 117
    },
    {
      "midi": 67,
      "hit": false,
      "t": 69197.73120833343,
      "d": 296.17524479166605,
      "v": 104
    },
    {
      "midi": 55,
      "hit": false,
      "t": 69428.60797395842,
      "d": 233.20885416667443,
      "v": 98
    },
    {
      "midi": 50,
      "hit": false,
      "t": 69638.49594270842,
      "d": 74.6268333333428,
      "v": 81
    },
    {
      "midi": 66,
      "hit": false,
      "t": 69864.7085312501,
      "d": 482.74232812499395,
      "v": 117
    },
    {
      "midi": 74,
      "hit": false,
      "t": 69864.7085312501,
      "d": 510.7273906249902,
      "v": 117
    },
    {
      "midi": 47,
      "hit": false,
      "t": 69874.03688541676,
      "d": 1364.271796874993,
      "v": 100
    },
    {
      "midi": 59,
      "hit": false,
      "t": 70319.4657968751,
      "d": 718.2832708333299,
      "v": 102
    },
    {
      "midi": 73,
      "hit": false,
      "t": 70543.3462968751,
      "d": 391.79087500000605,
      "v": 117
    },
    {
      "midi": 64,
      "hit": false,
      "t": 70543.3462968751,
      "d": 527.0520104166644,
      "v": 112
    },
    {
      "midi": 74,
      "hit": false,
      "t": 70981.77894270844,
      "d": 261.19391666665615,
      "v": 117
    },
    {
      "midi": 66,
      "hit": false,
      "t": 70984.1110312501,
      "d": 193.56334895832697,
      "v": 113
    },
    {
      "midi": 59,
      "hit": false,
      "t": 71184.67064583342,
      "d": 79.29101041666581,
      "v": 78
    },
    {
      "midi": 71,
      "hit": false,
      "t": 71417.87950000008,
      "d": 1588.1522968749923,
      "v": 115
    },
    {
      "midi": 62,
      "hit": false,
      "t": 71420.21158854174,
      "d": 760.2608645833388,
      "v": 117
    },
    {
      "midi": 43,
      "hit": false,
      "t": 71429.5399427084,
      "d": 1625.4657135416637,
      "v": 102
    },
    {
      "midi": 55,
      "hit": false,
      "t": 72077.86055729174,
      "d": 746.2683333333262,
      "v": 87
    },
    {
      "midi": 62,
      "hit": false,
      "t": 72334.39029687508,
      "d": 81.62309895832732,
      "v": 49
    },
    {
      "midi": 62,
      "hit": false,
      "t": 72749.50205729174,
      "d": 237.87303124999744,
      "v": 81
    },
    {
      "midi": 55,
      "hit": false,
      "t": 72973.38255729174,
      "d": 74.62683333332825,
      "v": 68
    },
    {
      "midi": 64,
      "hit": false,
      "t": 73206.5914114584,
      "d": 732.275802083328,
      "v": 115
    },
    {
      "midi": 71,
      "hit": false,
      "t": 73206.5914114584,
      "d": 778.91757291666,
      "v": 117
    },
    {
      "midi": 69,
      "hit": false,
      "t": 73206.5914114584,
      "d": 818.5630781249929,
      "v": 117
    },
    {
      "midi": 52,
      "hit": false,
      "t": 73225.24811979174,
      "d": 1389.9247708333278,
      "v": 115
    },
    {
      "midi": 40,
      "hit": false,
      "t": 73878.2329114584,
      "d": 872.2011145833385,
      "v": 94
    },
    {
      "midi": 64,
      "hit": false,
      "t": 74120.77011979173,
      "d": 340.4849270833365,
      "v": 98
    },
    {
      "midi": 71,
      "hit": false,
      "t": 74120.77011979173,
      "d": 687.9661197916721,
      "v": 112
    },
    {
      "midi": 68,
      "hit": false,
      "t": 74120.77011979173,
      "d": 697.2944739583327,
      "v": 117
    },
    {
      "midi": 64,
      "hit": false,
      "t": 74582.52365104173,
      "d": 214.55214583333873,
      "v": 58
    },
    {
      "midi": 52,
      "hit": false,
      "t": 74764.42655729174,
      "d": 736.9399791666656,
      "v": 94
    },
    {
      "midi": 71,
      "hit": false,
      "t": 75002.29958854173,
      "d": 732.2758020833426,
      "v": 107
    },
    {
      "midi": 69,
      "hit": false,
      "t": 75006.96376562507,
      "d": 732.2758020833426,
      "v": 110
    },
    {
      "midi": 64,
      "hit": false,
      "t": 75009.29585416673,
      "d": 384.79460937499243,
      "v": 100
    },
    {
      "midi": 40,
      "hit": false,
      "t": 75016.29211979173,
      "d": 627.331817708342,
      "v": 104
    },
    {
      "midi": 64,
      "hit": false,
      "t": 75478.04565104173,
      "d": 377.79834375002247,
      "v": 50
    },
    {
      "midi": 52,
      "hit": false,
      "t": 75662.28064583341,
      "d": 762.5929531250003,
      "v": 104
    },
    {
      "midi": 64,
      "hit": false,
      "t": 75897.82158854174,
      "d": 270.5222708333313,
      "v": 34
    },
    {
      "midi": 76,
      "hit": false,
      "t": 75907.1499427084,
      "d": 881.5294687499991,
      "v": 115
    },
    {
      "midi": 68,
      "hit": false,
      "t": 75907.1499427084,
      "d": 886.1936458333366,
      "v": 113
    },
    {
      "midi": 40,
      "hit": false,
      "t": 75911.81411979174,
      "d": 769.5892187499994,
      "v": 104
    },
    {
      "midi": 64,
      "hit": false,
      "t": 76319.92961458341,
      "d": 494.4027708333306,
      "v": 88
    },
    {
      "midi": 52,
      "hit": false,
      "t": 76543.81011458341,
      "d": 242.537208333335,
      "v": 88
    },
    {
      "midi": 47,
      "hit": false,
      "t": 76779.35105729174,
      "d": 32.64923958333384,
      "v": 61
    },
    {
      "midi": 71,
      "hit": false,
      "t": 77007.89573437507,
      "d": 888.5257343750127,
      "v": 107
    },
    {
      "midi": 62,
      "hit": false,
      "t": 77012.5599114584,
      "d": 631.995994791665,
      "v": 117
    },
    {
      "midi": 66,
      "hit": false,
      "t": 77012.5599114584,
      "d": 879.1973802083376,
      "v": 117
    },
    {
      "midi": 47,
      "hit": false,
      "t": 77021.88826562506,
      "d": 874.5332031250146,
      "v": 102
    },
    {
      "midi": 59,
      "hit": false,
      "t": 77476.64553125006,
      "d": 317.1640416666778,
      "v": 68
    },
    {
      "midi": 62,
      "hit": false,
      "t": 77735.50735937507,
      "d": 151.58575520833256,
      "v": 49
    },
    {
      "midi": 59,
      "hit": false,
      "t": 77912.74608854174,
      "d": 359.1416354166722,
      "v": 70
    },
    {
      "midi": 68,
      "hit": false,
      "t": 78141.29076562508,
      "d": 191.23126041666546,
      "v": 117
    },
    {
      "midi": 73,
      "hit": false,
      "t": 78141.29076562508,
      "d": 209.88796875000116,
      "v": 113
    },
    {
      "midi": 64,
      "hit": false,
      "t": 78141.29076562508,
      "d": 247.20138541667257,
      "v": 94
    },
    {
      "midi": 49,
      "hit": false,
      "t": 78407.14885937508,
      "d": 18.6567083333357,
      "v": 41
    },
    {
      "midi": 69,
      "hit": false,
      "t": 78591.38385416675,
      "d": 1972.9469062499993,
      "v": 112
    },
    {
      "midi": 65,
      "hit": false,
      "t": 78598.38011979175,
      "d": 1947.2939322916645,
      "v": 117
    },
    {
      "midi": 50,
      "hit": false,
      "t": 78605.37638541675,
      "d": 1672.1074843749957,
      "v": 87
    },
    {
      "midi": 45,
      "hit": false,
      "t": 80587.65164583342,
      "d": 1343.2829999999958,
      "v": 110
    },
    {
      "midi": 57,
      "hit": false,
      "t": 81259.29314583342,
      "d": 552.7049843749992,
      "v": 88
    },
    {
      "midi": 76,
      "hit": false,
      "t": 81494.83408854176,
      "d": 522.3878333333414,
      "v": 117
    },
    {
      "midi": 72,
      "hit": false,
      "t": 81497.16617708342,
      "d": 307.8356875000027,
      "v": 117
    },
    {
      "midi": 73,
      "hit": false,
      "t": 81718.71458854176,
      "d": 256.52973958333314,
      "v": 106
    },
    {
      "midi": 57,
      "hit": false,
      "t": 81942.59508854176,
      "d": 88.61936458334094,
      "v": 73
    },
    {
      "midi": 69,
      "hit": false,
      "t": 81965.91597395843,
      "d": 46.641770833331975,
      "v": 54
    },
    {
      "midi": 71,
      "hit": false,
      "t": 82166.47558854177,
      "d": 1958.9543749999866,
      "v": 117
    },
    {
      "midi": 76,
      "hit": false,
      "t": 82166.47558854177,
      "d": 3456.1552187499765,
      "v": 117
    },
    {
      "midi": 42,
      "hit": false,
      "t": 82178.1360312501,
      "d": 1760.726848958322,
      "v": 103
    },
    {
      "midi": 69,
      "hit": false,
      "t": 82182.80020833344,
      "d": 25.65297395833477,
      "v": 88
    },
    {
      "midi": 54,
      "hit": false,
      "t": 82810.13202604179,
      "d": 326.4923958333238,
      "v": 67
    },
    {
      "midi": 64,
      "hit": false,
      "t": 83061.99758854178,
      "d": 354.47745833333465,
      "v": 78
    },
    {
      "midi": 54,
      "hit": false,
      "t": 83281.21391145844,
      "d": 296.17524479166605,
      "v": 65
    },
    {
      "midi": 69,
      "hit": false,
      "t": 83495.76605729178,
      "d": 454.7572656249831,
      "v": 107
    },
    {
      "midi": 64,
      "hit": false,
      "t": 83495.76605729178,
      "d": 464.0856197916437,
      "v": 107
    },
    {
      "midi": 54,
      "hit": false,
      "t": 83724.3107343751,
      "d": 160.91410937499313,
      "v": 81
    },
    {
      "midi": 49,
      "hit": false,
      "t": 83938.86288020843,
      "d": 74.62683333332825,
      "v": 77
    },
    {
      "midi": 68,
      "hit": false,
      "t": 84162.74338020843,
      "d": 1233.6748385416577,
      "v": 117
    },
    {
      "midi": 64,
      "hit": false,
      "t": 84165.07546875009,
      "d": 529.3840989583259,
      "v": 112
    },
    {
      "midi": 49,
      "hit": false,
      "t": 84172.07173437509,
      "d": 1396.9210364583269,
      "v": 94
    },
    {
      "midi": 64,
      "hit": false,
      "t": 84839.04905729175,
      "d": 284.5148020833294,
      "v": 64
    },
    {
      "midi": 61,
      "hit": false,
      "t": 85095.57879687508,
      "d": 282.1827135416679,
      "v": 91
    },
    {
      "midi": 71,
      "hit": false,
      "t": 85303.1346770834,
      "d": 361.4737239583337,
      "v": 94
    },
    {
      "midi": 64,
      "hit": false,
      "t": 85314.79511979174,
      "d": 263.5260052083322,
      "v": 110
    },
    {
      "midi": 61,
      "hit": false,
      "t": 85510.69055729175,
      "d": 55.9701250000071,
      "v": 65
    },
    {
      "midi": 71,
      "hit": false,
      "t": 85753.22776562507,
      "d": 827.8914322916826,
      "v": 117
    },
    {
      "midi": 76,
      "hit": false,
      "t": 85757.8919427084,
      "d": 778.9175729166745,
      "v": 117
    },
    {
      "midi": 64,
      "hit": false,
      "t": 85757.8919427084,
      "d": 2630.595875000028,
      "v": 117
    },
    {
      "midi": 69,
      "hit": false,
      "t": 85760.22403125007,
      "d": 746.2683333333407,
      "v": 117
    },
    {
      "midi": 40,
      "hit": false,
      "t": 85771.8844739584,
      "d": 713.6190937500069,
      "v": 102
    },
    {
      "midi": 52,
      "hit": false,
      "t": 86429.5334427084,
      "d": 797.5742812500248,
      "v": 70
    },
    {
      "midi": 71,
      "hit": false,
      "t": 86625.42888020842,
      "d": 802.2384583333478,
      "v": 112
    },
    {
      "midi": 76,
      "hit": false,
      "t": 86627.76096875008,
      "d": 769.589218750014,
      "v": 117
    },
    {
      "midi": 68,
      "hit": false,
      "t": 86632.42514583342,
      "d": 760.2608645833388,
      "v": 117
    },
    {
      "midi": 40,
      "hit": false,
      "t": 86644.08558854175,
      "d": 690.2982083333336,
      "v": 104
    },
    {
      "midi": 52,
      "hit": false,
      "t": 87315.72708854175,
      "d": 788.2459270833351,
      "v": 82
    },
    {
      "midi": 76,
      "hit": false,
      "t": 87516.2867031251,
      "d": 750.9325104166637,
      "v": 117
    },
    {
      "midi": 71,
      "hit": false,
      "t": 87520.95088020843,
      "d": 771.9213072916609,
      "v": 110
    },
    {
      "midi": 69,
      "hit": false,
      "t": 87523.28296875009,
      "d": 743.9362447916646,
      "v": 117
    },
    {
      "midi": 40,
      "hit": false,
      "t": 87530.27923437509,
      "d": 659.9810572916613,
      "v": 107
    },
    {
      "midi": 52,
      "hit": false,
      "t": 88187.92820312509,
      "d": 830.2235208333586,
      "v": 81
    },
    {
      "midi": 71,
      "hit": false,
      "t": 88425.8012343751,
      "d": 916.510796875009,
      "v": 115
    },
    {
      "midi": 64,
      "hit": false,
      "t": 88430.46541145844,
      "d": 363.8058125000098,
      "v": 58
    },
    {
      "midi": 68,
      "hit": false,
      "t": 88430.46541145844,
      "d": 813.8989010416699,
      "v": 117
    },
    {
      "midi": 76,
      "hit": false,
      "t": 88430.46541145844,
      "d": 1056.436109375005,
      "v": 117
    },
    {
      "midi": 40,
      "hit": false,
      "t": 88435.12958854178,
      "d": 816.2309895833314,
      "v": 112
    },
    {
      "midi": 64,
      "hit": false,
      "t": 88901.54729687511,
      "d": 359.14163541665766,
      "v": 78
    },
    {
      "midi": 52,
      "hit": false,
      "t": 89111.43526562511,
      "d": 184.23499479165184,
      "v": 75
    },
    {
      "midi": 47,
      "hit": false,
      "t": 89318.99114583344,
      "d": 37.3134166666714,
      "v": 64
    },
    {
      "midi": 64,
      "hit": false,
      "t": 89547.53582291678,
      "d": 1051.7719322916673,
      "v": 102
    },
    {
      "midi": 69,
      "hit": false,
      "t": 89547.53582291678,
      "d": 1415.5777447916626,
      "v": 107
    },
    {
      "midi": 73,
      "hit": false,
      "t": 89547.53582291678,
      "d": 1420.2419218750001,
      "v": 117
    },
    {
      "midi": 45,
      "hit": false,
      "t": 89549.86791145844,
      "d": 1371.2680625000066,
      "v": 94
    },
    {
      "midi": 57,
      "hit": false,
      "t": 90942.12477083344,
      "d": 30.317151041672332,
      "v": 32
    },
    {
      "midi": 69,
      "hit": false,
      "t": 91112.36723437511,
      "d": 1751.398494791676,
      "v": 112
    },
    {
      "midi": 64,
      "hit": false,
      "t": 91119.36350000011,
      "d": 3435.166421875023,
      "v": 112
    },
    {
      "midi": 71,
      "hit": false,
      "t": 91119.36350000011,
      "d": 3486.4723697916925,
      "v": 100
    },
    {
      "midi": 42,
      "hit": false,
      "t": 91145.01647395844,
      "d": 1609.141093750004,
      "v": 87
    },
    {
      "midi": 68,
      "hit": false,
      "t": 93131.95591145846,
      "d": 1417.9098333333386,
      "v": 113
    },
    {
      "midi": 76,
      "hit": false,
      "t": 93131.95591145846,
      "d": 5018.654541666663,
      "v": 104
    },
    {
      "midi": 49,
      "hit": false,
      "t": 93136.6200885418,
      "d": 1448.226984375011,
      "v": 83
    },
    {
      "midi": 69,
      "hit": false,
      "t": 94694.45523437513,
      "d": 739.2720677083271,
      "v": 117
    },
    {
      "midi": 64,
      "hit": false,
      "t": 94694.45523437513,
      "d": 783.5817499999976,
      "v": 115
    },
    {
      "midi": 71,
      "hit": false,
      "t": 94701.45150000013,
      "d": 1578.8239427083172,
      "v": 104
    },
    {
      "midi": 52,
      "hit": false,
      "t": 94708.44776562513,
      "d": 1553.1709687499824,
      "v": 84
    },
    {
      "midi": 64,
      "hit": false,
      "t": 95599.30558854179,
      "d": 454.7572656249977,
      "v": 104
    },
    {
      "midi": 68,
      "hit": false,
      "t": 95599.30558854179,
      "d": 620.3355520833284,
      "v": 103
    },
    {
      "midi": 40,
      "hit": false,
      "t": 95613.29811979178,
      "d": 587.6863124999945,
      "v": 104
    },
    {
      "midi": 64,
      "hit": false,
      "t": 96480.83505729178,
      "d": 1674.4395729166718,
      "v": 102
    },
    {
      "midi": 73,
      "hit": false,
      "t": 96480.83505729178,
      "d": 1730.4096979166789,
      "v": 117
    },
    {
      "midi": 69,
      "hit": false,
      "t": 96480.83505729178,
      "d": 1735.0738750000164,
      "v": 115
    },
    {
      "midi": 45,
      "hit": false,
      "t": 96497.15967708344,
      "d": 1548.506791666674,
      "v": 98
    },
    {
      "midi": 69,
      "hit": false,
      "t": 98281.20741145847,
      "d": 1791.0439999999944,
      "v": 102
    },
    {
      "midi": 71,
      "hit": false,
      "t": 98281.20741145847,
      "d": 1837.6857708333264,
      "v": 110
    },
    {
      "midi": 64,
      "hit": false,
      "t": 98288.20367708347,
      "d": 1723.4134322916652,
      "v": 115
    },
    {
      "midi": 76,
      "hit": false,
      "t": 98288.20367708347,
      "d": 3414.177625000011,
      "v": 115
    },
    {
      "midi": 42,
      "hit": false,
      "t": 98299.8641197918,
      "d": 1730.4096979166643,
      "v": 113
    },
    {
      "midi": 73,
      "hit": false,
      "t": 100268.14684895847,
      "d": 1445.8948958333494,
      "v": 109
    },
    {
      "midi": 68,
      "hit": false,
      "t": 100272.8110260418,
      "d": 1436.5665416666743,
      "v": 117
    },
    {
      "midi": 64,
      "hit": false,
      "t": 100277.47520312514,
      "d": 1431.9023645833367,
      "v": 110
    },
    {
      "midi": 49,
      "hit": false,
      "t": 100282.13938020848,
      "d": 1380.5964166666672,
      "v": 106
    },
    {
      "midi": 69,
      "hit": false,
      "t": 101872.62376562515,
      "d": 732.275802083328,
      "v": 117
    },
    {
      "midi": 71,
      "hit": false,
      "t": 101872.62376562515,
      "d": 830.2235208333295,
      "v": 117
    },
    {
      "midi": 64,
      "hit": false,
      "t": 101872.62376562515,
      "d": 1294.3091406250023,
      "v": 117
    },
    {
      "midi": 76,
      "hit": false,
      "t": 101877.28794270848,
      "d": 792.9101041666581,
      "v": 117
    },
    {
      "midi": 52,
      "hit": false,
      "t": 101886.61629687515,
      "d": 1567.163499999995,
      "v": 110
    },
    {
      "midi": 71,
      "hit": false,
      "t": 102758.81741145848,
      "d": 664.6452343749843,
      "v": 92
    },
    {
      "midi": 76,
      "hit": false,
      "t": 102763.48158854182,
      "d": 2546.6406874999957,
      "v": 117
    },
    {
      "midi": 68,
      "hit": false,
      "t": 102770.47785416682,
      "d": 585.3542239583185,
      "v": 117
    },
    {
      "midi": 40,
      "hit": false,
      "t": 102770.47785416682,
      "d": 594.682578124979,
      "v": 115
    },
    {
      "midi": 64,
      "hit": false,
      "t": 103234.56347395848,
      "d": 158.58202083331707,
      "v": 35
    },
    {
      "midi": 73,
      "hit": false,
      "t": 103649.67523437514,
      "d": 1669.7753958333342,
      "v": 113
    },
    {
      "midi": 69,
      "hit": false,
      "t": 103654.33941145848,
      "d": 1646.4545104166755,
      "v": 112
    },
    {
      "midi": 64,
      "hit": false,
      "t": 103656.67150000014,
      "d": 1639.4582447916764,
      "v": 110
    },
    {
      "midi": 57,
      "hit": false,
      "t": 103661.33567708348,
      "d": 1585.8202083333454,
      "v": 81
    },
    {
      "midi": 45,
      "hit": false,
      "t": 103665.99985416682,
      "d": 1562.499322916672,
      "v": 96
    },
    {
      "midi": 69,
      "hit": false,
      "t": 105461.70803125015,
      "d": 1751.3984947916615,
      "v": 112
    },
    {
      "midi": 71,
      "hit": false,
      "t": 105464.04011979181,
      "d": 1772.3872916666733,
      "v": 110
    },
    {
      "midi": 64,
      "hit": false,
      "t": 105468.70429687515,
      "d": 1749.06640625,
      "v": 110
    },
    {
      "midi": 76,
      "hit": false,
      "t": 105468.70429687515,
      "d": 1763.0589374999981,
      "v": 117
    },
    {
      "midi": 54,
      "hit": false,
      "t": 105478.03265104181,
      "d": 1777.0514687500108,
      "v": 103
    },
    {
      "midi": 68,
      "hit": false,
      "t": 107474.30044270848,
      "d": 1270.9882552083436,
      "v": 117
    },
    {
      "midi": 64,
      "hit": false,
      "t": 107478.96461979182,
      "d": 1275.6524322916812,
      "v": 115
    },
    {
      "midi": 71,
      "hit": false,
      "t": 107478.96461979182,
      "d": 1275.6524322916812,
      "v": 110
    },
    {
      "midi": 76,
      "hit": false,
      "t": 107483.62879687516,
      "d": 1266.324078125006,
      "v": 117
    },
    {
      "midi": 49,
      "hit": false,
      "t": 107485.96088541682,
      "d": 1131.0629427083331,
      "v": 94
    },
    {
      "midi": 49,
      "hit": false,
      "t": 108770.94167187516,
      "d": 30.317151041672332,
      "v": 44
    },
    {
      "midi": 69,
      "hit": false,
      "t": 109018.14305729183,
      "d": 792.9101041666727,
      "v": 117
    },
    {
      "midi": 71,
      "hit": false,
      "t": 109018.14305729183,
      "d": 848.8802291666798,
      "v": 112
    },
    {
      "midi": 64,
      "hit": false,
      "t": 109018.14305729183,
      "d": 1301.3054062500305,
      "v": 117
    },
    {
      "midi": 76,
      "hit": false,
      "t": 109022.80723437517,
      "d": 806.9026354166708,
      "v": 117
    },
    {
      "midi": 52,
      "hit": false,
      "t": 109034.4676770835,
      "d": 1354.9434427083615,
      "v": 98
    },
    {
      "midi": 71,
      "hit": false,
      "t": 109936.98594270852,
      "d": 790.5780156250403,
      "v": 107
    },
    {
      "midi": 68,
      "hit": false,
      "t": 109941.65011979186,
      "d": 718.283270833359,
      "v": 117
    },
    {
      "midi": 76,
      "hit": false,
      "t": 109941.65011979186,
      "d": 755.5966875000304,
      "v": 117
    },
    {
      "midi": 40,
      "hit": false,
      "t": 109946.31429687519,
      "d": 907.1824427083484,
      "v": 110
    },
    {
      "midi": 64,
      "hit": false,
      "t": 110419.72827083354,
      "d": 2035.9132968750055,
      "v": 63
    },
    {
      "midi": 52,
      "hit": false,
      "t": 110841.83629687522,
      "d": 1529.8500833333237,
      "v": 85
    },
    {
      "midi": 69,
      "hit": false,
      "t": 110851.16465104188,
      "d": 1590.4843854166684,
      "v": 117
    },
    {
      "midi": 76,
      "hit": false,
      "t": 110851.16465104188,
      "d": 1595.148562500006,
      "v": 112
    },
    {
      "midi": 71,
      "hit": false,
      "t": 110853.49673958354,
      "d": 1588.1522968750069,
      "v": 110
    },
    {
      "midi": 64,
      "hit": false,
      "t": 112642.20865104187,
      "d": 1737.4059635416488,
      "v": 112
    },
    {
      "midi": 69,
      "hit": false,
      "t": 112642.20865104187,
      "d": 1760.726848958322,
      "v": 112
    },
    {
      "midi": 71,
      "hit": false,
      "t": 112642.20865104187,
      "d": 1763.0589374999836,
      "v": 115
    },
    {
      "midi": 76,
      "hit": false,
      "t": 112644.54073958354,
      "d": 1732.7417864583258,
      "v": 117
    },
    {
      "midi": 54,
      "hit": false,
      "t": 112646.8728281252,
      "d": 1968.2827291666617,
      "v": 106
    },
    {
      "midi": 71,
      "hit": false,
      "t": 114631.48017708352,
      "d": 1350.2792656250094,
      "v": 102
    },
    {
      "midi": 49,
      "hit": false,
      "t": 114633.81226562518,
      "d": 1154.3838281250064,
      "v": 97
    },
    {
      "midi": 68,
      "hit": false,
      "t": 114633.81226562518,
      "d": 1329.2904687500122,
      "v": 117
    },
    {
      "midi": 64,
      "hit": false,
      "t": 114633.81226562518,
      "d": 1343.2830000000104,
      "v": 110
    },
    {
      "midi": 76,
      "hit": false,
      "t": 114638.47644270852,
      "d": 1301.3054062500014,
      "v": 107
    },
    {
      "midi": 49,
      "hit": false,
      "t": 115893.14007812519,
      "d": 90.95145312500244,
      "v": 68
    },
    {
      "midi": 69,
      "hit": false,
      "t": 116182.31905729185,
      "d": 722.9474479166529,
      "v": 115
    },
    {
      "midi": 71,
      "hit": false,
      "t": 116182.31905729185,
      "d": 816.2309895833314,
      "v": 110
    },
    {
      "midi": 64,
      "hit": false,
      "t": 116182.31905729185,
      "d": 1198.6935104166478,
      "v": 110
    },
    {
      "midi": 76,
      "hit": false,
      "t": 116184.65114583352,
      "d": 757.9287760416628,
      "v": 117
    },
    {
      "midi": 52,
      "hit": false,
      "t": 116191.64741145851,
      "d": 555.0370729166607,
      "v": 107
    },
    {
      "midi": 52,
      "hit": false,
      "t": 116811.98296354184,
      "d": 939.8316822916531,
      "v": 62
    },
    {
      "midi": 68,
      "hit": false,
      "t": 117091.83358854185,
      "d": 753.2645989583107,
      "v": 117
    },
    {
      "midi": 71,
      "hit": false,
      "t": 117091.83358854185,
      "d": 795.2421927083051,
      "v": 107
    },
    {
      "midi": 76,
      "hit": false,
      "t": 117094.16567708351,
      "d": 764.9250416666473,
      "v": 117
    },
    {
      "midi": 40,
      "hit": false,
      "t": 117096.49776562517,
      "d": 541.0445416666626,
      "v": 117
    },
    {
      "midi": 64,
      "hit": false,
      "t": 117539.59458854183,
      "d": 792.9101041666436,
      "v": 54
    },
    {
      "midi": 40,
      "hit": false,
      "t": 117744.8183802085,
      "d": 242.53720833332045,
      "v": 85
    },
    {
      "midi": 76,
      "hit": false,
      "t": 117992.01976562515,
      "d": 732.275802083328,
      "v": 117
    },
    {
      "midi": 71,
      "hit": false,
      "t": 117992.01976562515,
      "d": 753.2645989583252,
      "v": 115
    },
    {
      "midi": 52,
      "hit": false,
      "t": 117994.35185416682,
      "d": 529.3840989583259,
      "v": 112
    },
    {
      "midi": 69,
      "hit": false,
      "t": 117994.35185416682,
      "d": 692.6302968749951,
      "v": 117
    },
    {
      "midi": 64,
      "hit": false,
      "t": 118435.11658854182,
      "d": 643.6564375000162,
      "v": 64
    },
    {
      "midi": 52,
      "hit": false,
      "t": 118640.34038020848,
      "d": 813.8989010416844,
      "v": 100
    },
    {
      "midi": 71,
      "hit": false,
      "t": 118854.89252604182,
      "d": 904.8503541666869,
      "v": 112
    },
    {
      "midi": 76,
      "hit": false,
      "t": 118859.55670312516,
      "d": 881.5294687500136,
      "v": 117
    },
    {
      "midi": 40,
      "hit": false,
      "t": 118864.2208802085,
      "d": 806.9026354166708,
      "v": 117
    },
    {
      "midi": 68,
      "hit": false,
      "t": 118864.2208802085,
      "d": 844.2160520833422,
      "v": 117
    },
    {
      "midi": 64,
      "hit": false,
      "t": 119321.31023437517,
      "d": 401.1192291666666,
      "v": 90
    },
    {
      "midi": 52,
      "hit": false,
      "t": 119547.52282291683,
      "d": 160.91410937500768,
      "v": 73
    },
    {
      "midi": 47,
      "hit": false,
      "t": 119783.06376562518,
      "d": 32.64923958333384,
      "v": 58
    },
    {
      "midi": 73,
      "hit": false,
      "t": 120004.61217708352,
      "d": 597.0146666666551,
      "v": 117
    },
    {
      "midi": 76,
      "hit": false,
      "t": 120006.94426562518,
      "d": 580.6900468749955,
      "v": 117
    },
    {
      "midi": 69,
      "hit": false,
      "t": 120006.94426562518,
      "d": 629.6639062499889,
      "v": 117
    },
    {
      "midi": 45,
      "hit": false,
      "t": 120013.94053125018,
      "d": 1296.6412291666493,
      "v": 98
    },
    {
      "midi": 71,
      "hit": false,
      "t": 120888.47373437516,
      "d": 307.8356875000027,
      "v": 100
    },
    {
      "midi": 74,
      "hit": false,
      "t": 120893.1379114585,
      "d": 377.79834374999336,
      "v": 112
    },
    {
      "midi": 66,
      "hit": false,
      "t": 120897.80208854184,
      "d": 139.92531249999593,
      "v": 117
    },
    {
      "midi": 73,
      "hit": false,
      "t": 121107.69005729184,
      "d": 368.4699895833328,
      "v": 89
    },
    {
      "midi": 64,
      "hit": false,
      "t": 121128.67885416684,
      "d": 230.87676562499837,
      "v": 102
    },
    {
      "midi": 57,
      "hit": false,
      "t": 121333.9026458335,
      "d": 296.1752447916806,
      "v": 78
    },
    {
      "midi": 49,
      "hit": false,
      "t": 121569.44358854184,
      "d": 1417.9098333333386,
      "v": 89
    },
    {
      "midi": 71,
      "hit": false,
      "t": 121569.44358854184,
      "d": 1595.148562500006,
      "v": 110
    },
    {
      "midi": 65,
      "hit": false,
      "t": 121574.10776562517,
      "d": 1543.8426145833364,
      "v": 117
    },
    {
      "midi": 49,
      "hit": false,
      "t": 123117.95038020851,
      "d": 58.30221354166861,
      "v": 57
    },
    {
      "midi": 66,
      "hit": false,
      "t": 123362.8196770835,
      "d": 1026.1189583333326,
      "v": 117
    },
    {
      "midi": 73,
      "hit": false,
      "t": 123362.8196770835,
      "d": 1508.8612864583265,
      "v": 109
    },
    {
      "midi": 69,
      "hit": false,
      "t": 123365.15176562517,
      "d": 1506.529197916665,
      "v": 104
    },
    {
      "midi": 54,
      "hit": false,
      "t": 123369.8159427085,
      "d": 1527.5179947916622,
      "v": 100
    },
    {
      "midi": 61,
      "hit": false,
      "t": 124500.87888541684,
      "d": 251.86556249999558,
      "v": 67
    },
    {
      "midi": 66,
      "hit": false,
      "t": 124736.41982812517,
      "d": 135.26113541665836,
      "v": 64
    },
    {
      "midi": 61,
      "hit": false,
      "t": 124908.9943802085,
      "d": 46.641770833331975,
      "v": 61
    },
    {
      "midi": 65,
      "hit": false,
      "t": 125146.8674114585,
      "d": 736.9399791666656,
      "v": 115
    },
    {
      "midi": 69,
      "hit": false,
      "t": 125146.8674114585,
      "d": 764.9250416666619,
      "v": 104
    },
    {
      "midi": 73,
      "hit": false,
      "t": 125153.8636770835,
      "d": 729.9437135416665,
      "v": 113
    },
    {
      "midi": 54,
      "hit": false,
      "t": 125158.52785416684,
      "d": 1392.2568593749893,
      "v": 75
    },
    {
      "midi": 69,
      "hit": false,
      "t": 126054.04985416683,
      "d": 776.5854843749985,
      "v": 104
    },
    {
      "midi": 73,
      "hit": false,
      "t": 126054.04985416683,
      "d": 783.5817499999976,
      "v": 106
    },
    {
      "midi": 42,
      "hit": false,
      "t": 126054.04985416683,
      "d": 788.2459270833351,
      "v": 117
    },
    {
      "midi": 64,
      "hit": false,
      "t": 126056.3819427085,
      "d": 370.8020781249943,
      "v": 107
    },
    {
      "midi": 64,
      "hit": false,
      "t": 126494.81458854182,
      "d": 359.14163541668677,
      "v": 57
    },
    {
      "midi": 54,
      "hit": false,
      "t": 126714.0309114585,
      "d": 214.55214583335328,
      "v": 100
    },
    {
      "midi": 49,
      "hit": false,
      "t": 126909.92634895851,
      "d": 53.638036458331044,
      "v": 75
    },
    {
      "midi": 43,
      "hit": false,
      "t": 127152.46355729185,
      "d": 1408.581479166678,
      "v": 117
    },
    {
      "midi": 74,
      "hit": false,
      "t": 127614.21708854185,
      "d": 186.56708333334245,
      "v": 117
    },
    {
      "midi": 69,
      "hit": false,
      "t": 127618.88126562518,
      "d": 181.9029062500049,
      "v": 104
    },
    {
      "midi": 55,
      "hit": false,
      "t": 127838.09758854186,
      "d": 541.0445416666626,
      "v": 94
    },
    {
      "midi": 74,
      "hit": false,
      "t": 128075.97061979186,
      "d": 503.7311250000057,
      "v": 117
    },
    {
      "midi": 69,
      "hit": false,
      "t": 128085.29897395852,
      "d": 363.8058125000098,
      "v": 117
    },
    {
      "midi": 71,
      "hit": false,
      "t": 128309.17947395852,
      "d": 303.17151041667967,
      "v": 98
    },
    {
      "midi": 55,
      "hit": false,
      "t": 128495.74655729186,
      "d": 251.86556249999558,
      "v": 88
    },
    {
      "midi": 50,
      "hit": false,
      "t": 128705.63452604186,
      "d": 83.95518749998882,
      "v": 82
    },
    {
      "midi": 74,
      "hit": false,
      "t": 128950.50382291684,
      "d": 487.40650520834606,
      "v": 117
    },
    {
      "midi": 66,
      "hit": false,
      "t": 128952.8359114585,
      "d": 480.410239583347,
      "v": 117
    },
    {
      "midi": 47,
      "hit": false,
      "t": 128957.50008854184,
      "d": 1382.9285052083578,
      "v": 92
    },
    {
      "midi": 59,
      "hit": false,
      "t": 129428.58197395851,
      "d": 727.6116250000196,
      "v": 107
    },
    {
      "midi": 73,
      "hit": false,
      "t": 129661.79082812519,
      "d": 368.4699895833328,
      "v": 117
    },
    {
      "midi": 64,
      "hit": false,
      "t": 129661.79082812519,
      "d": 592.3504895833466,
      "v": 115
    },
    {
      "midi": 74,
      "hit": false,
      "t": 130081.56676562519,
      "d": 244.86929687501106,
      "v": 117
    },
    {
      "midi": 66,
      "hit": false,
      "t": 130086.23094270853,
      "d": 188.89917187500396,
      "v": 117
    },
    {
      "midi": 59,
      "hit": false,
      "t": 130289.12264583353,
      "d": 76.95892187500431,
      "v": 78
    },
    {
      "midi": 62,
      "hit": false,
      "t": 130529.3277656252,
      "d": 1133.3950312499946,
      "v": 115
    },
    {
      "midi": 71,
      "hit": false,
      "t": 130531.65985416686,
      "d": 1485.5404010416678,
      "v": 115
    },
    {
      "midi": 67,
      "hit": false,
      "t": 130531.65985416686,
      "d": 1492.5366666666669,
      "v": 117
    },
    {
      "midi": 43,
      "hit": false,
      "t": 130538.65611979186,
      "d": 1613.805270833327,
      "v": 100
    },
    {
      "midi": 55,
      "hit": false,
      "t": 131634.7377343752,
      "d": 321.82821874998626,
      "v": 74
    },
    {
      "midi": 62,
      "hit": false,
      "t": 131886.6032968752,
      "d": 135.26113541665836,
      "v": 63
    },
    {
      "midi": 55,
      "hit": false,
      "t": 132082.4987343752,
      "d": 76.95892187498976,
      "v": 67
    },
    {
      "midi": 69,
      "hit": false,
      "t": 132306.3792343752,
      "d": 781.249661458307,
      "v": 117
    },
    {
      "midi": 71,
      "hit": false,
      "t": 132306.3792343752,
      "d": 862.8727604166488,
      "v": 115
    },
    {
      "midi": 76,
      "hit": false,
      "t": 132311.04341145852,
      "d": 816.2309895833314,
      "v": 117
    },
    {
      "midi": 64,
      "hit": false,
      "t": 132311.04341145852,
      "d": 1231.3427499999816,
      "v": 112
    },
    {
      "midi": 52,
      "hit": false,
      "t": 132325.03594270852,
      "d": 578.357958333334,
      "v": 110
    },
    {
      "midi": 52,
      "hit": false,
      "t": 132996.67744270852,
      "d": 916.5107968749653,
      "v": 76
    },
    {
      "midi": 76,
      "hit": false,
      "t": 133234.55047395852,
      "d": 769.5892187499849,
      "v": 115
    },
    {
      "midi": 71,
      "hit": false,
      "t": 133234.55047395852,
      "d": 797.5742812499811,
      "v": 102
    },
    {
      "midi": 68,
      "hit": false,
      "t": 133239.21465104184,
      "d": 748.6004218749877,
      "v": 117
    },
    {
      "midi": 40,
      "hit": false,
      "t": 133243.87882812516,
      "d": 534.0482760416635,
      "v": 115
    },
    {
      "midi": 40,
      "hit": false,
      "t": 133875.8748229168,
      "d": 296.17524479169515,
      "v": 100
    },
    {
      "midi": 76,
      "hit": false,
      "t": 134097.42323437516,
      "d": 736.9399791666947,
      "v": 107
    },
    {
      "midi": 69,
      "hit": false,
      "t": 134097.42323437516,
      "d": 739.2720677083707,
      "v": 117
    },
    {
      "midi": 71,
      "hit": false,
      "t": 134097.42323437516,
      "d": 788.2459270833642,
      "v": 107
    },
    {
      "midi": 64,
      "hit": false,
      "t": 134099.75532291684,
      "d": 394.122963541653,
      "v": 110
    },
    {
      "midi": 52,
      "hit": false,
      "t": 134106.75158854184,
      "d": 548.0408072916616,
      "v": 112
    },
    {
      "midi": 64,
      "hit": false,
      "t": 134573.16929687516,
      "d": 624.9997291667096,
      "v": 59
    },
    {
      "midi": 52,
      "hit": false,
      "t": 134773.72891145851,
      "d": 792.9101041666872,
      "v": 102
    },
    {
      "midi": 71,
      "hit": false,
      "t": 135002.27358854187,
      "d": 825.5593437500065,
      "v": 107
    },
    {
      "midi": 76,
      "hit": false,
      "t": 135006.9377656252,
      "d": 792.9101041666872,
      "v": 117
    },
    {
      "midi": 40,
      "hit": false,
      "t": 135006.9377656252,
      "d": 858.2085833333549,
      "v": 117
    },
    {
      "midi": 68,
      "hit": false,
      "t": 135009.26985416687,
      "d": 813.8989010416844,
      "v": 117
    },
    {
      "midi": 64,
      "hit": false,
      "t": 135468.69129687521,
      "d": 366.13790104165673,
      "v": 88
    },
    {
      "midi": 52,
      "hit": false,
      "t": 135666.91882291686,
      "d": 205.22379166667815,
      "v": 96
    },
    {
      "midi": 47,
      "hit": false,
      "t": 135869.81052604187,
      "d": 51.30594791666954,
      "v": 75
    },
    {
      "midi": 71,
      "hit": false,
      "t": 136107.68355729186,
      "d": 1016.7906041666865,
      "v": 110
    },
    {
      "midi": 62,
      "hit": false,
      "t": 136112.3477343752,
      "d": 813.8989010416844,
      "v": 110
    },
    {
      "midi": 66,
      "hit": false,
      "t": 136112.3477343752,
      "d": 1063.432375000033,
      "v": 117
    },
    {
      "midi": 47,
      "hit": false,
      "t": 136121.67608854186,
      "d": 897.8540885416733,
      "v": 100
    },
    {
      "midi": 59,
      "hit": false,
      "t": 137028.8585312502,
      "d": 212.22005729167722,
      "v": 61
    },
    {
      "midi": 68,
      "hit": false,
      "t": 137245.7427656252,
      "d": 177.23872916665277,
      "v": 97
    },
    {
      "midi": 64,
      "hit": false,
      "t": 137245.7427656252,
      "d": 247.20138541664346,
      "v": 100
    },
    {
      "midi": 73,
      "hit": false,
      "t": 137248.0748541669,
      "d": 193.56334895829787,
      "v": 109
    },
    {
      "midi": 49,
      "hit": false,
      "t": 137259.7352968752,
      "d": 205.22379166664905,
      "v": 94
    },
    {
      "midi": 59,
      "hit": false,
      "t": 137506.93668229185,
      "d": 32.649239583319286,
      "v": 37
    },
    {
      "midi": 73,
      "hit": false,
      "t": 137698.1679427085,
      "d": 1872.6670989583072,
      "v": 117
    },
    {
      "midi": 50,
      "hit": false,
      "t": 137700.50003125018,
      "d": 1557.83514583332,
      "v": 100
    },
    {
      "midi": 69,
      "hit": false,
      "t": 137700.50003125018,
      "d": 1858.674567708309,
      "v": 112
    },
    {
      "midi": 65,
      "hit": false,
      "t": 137700.50003125018,
      "d": 1870.3350104166311,
      "v": 104
    },
    {
      "midi": 45,
      "hit": false,
      "t": 139710.76035416682,
      "d": 1345.6150885416719,
      "v": 112
    },
    {
      "midi": 57,
      "hit": false,
      "t": 140380.06976562514,
      "d": 529.3840989583405,
      "v": 85
    },
    {
      "midi": 71,
      "hit": false,
      "t": 140613.27861979182,
      "d": 377.7983437500079,
      "v": 117
    },
    {
      "midi": 76,
      "hit": false,
      "t": 140613.27861979182,
      "d": 522.3878333333414,
      "v": 117
    },
    {
      "midi": 73,
      "hit": false,
      "t": 140846.4874739585,
      "d": 289.178979166667,
      "v": 106
    },
    {
      "midi": 57,
      "hit": false,
      "t": 141056.3754427085,
      "d": 93.28354166666395,
      "v": 70
    },
    {
      "midi": 71,
      "hit": false,
      "t": 141270.92758854182,
      "d": 3292.9090208332636,
      "v": 115
    },
    {
      "midi": 76,
      "hit": false,
      "t": 141275.59176562514,
      "d": 3246.267249999946,
      "v": 115
    },
    {
      "midi": 42,
      "hit": false,
      "t": 141280.25594270846,
      "d": 1784.0477343749662,
      "v": 113
    },
    {
      "midi": 54,
      "hit": false,
      "t": 142390.33008854178,
      "d": 317.16404166666325,
      "v": 69
    },
    {
      "midi": 69,
      "hit": false,
      "t": 142609.54641145846,
      "d": 440.76473437497043,
      "v": 107
    },
    {
      "midi": 64,
      "hit": false,
      "t": 142609.54641145846,
      "d": 452.4251770832925,
      "v": 104
    },
    {
      "midi": 54,
      "hit": false,
      "t": 142852.08361979178,
      "d": 156.24993229165557,
      "v": 71
    },
    {
      "midi": 49,
      "hit": false,
      "t": 143061.97158854175,
      "d": 79.29101041666581,
      "v": 79
    },
    {
      "midi": 64,
      "hit": false,
      "t": 143288.18417708343,
      "d": 1070.428640625003,
      "v": 110
    },
    {
      "midi": 68,
      "hit": false,
      "t": 143288.18417708343,
      "d": 1238.3390156249807,
      "v": 113
    },
    {
      "midi": 49,
      "hit": false,
      "t": 143290.5162656251,
      "d": 1212.6860416666605,
      "v": 85
    },
    {
      "midi": 64,
      "hit": false,
      "t": 144475.21724479177,
      "d": 79.29101041663671,
      "v": 27
    },
    {
      "midi": 49,
      "hit": false,
      "t": 144615.14255729175,
      "d": 51.30594791666954,
      "v": 57
    },
    {
      "midi": 69,
      "hit": false,
      "t": 144850.6835000001,
      "d": 734.6078906249895,
      "v": 117
    },
    {
      "midi": 71,
      "hit": false,
      "t": 144850.6835000001,
      "d": 816.2309895833314,
      "v": 112
    },
    {
      "midi": 76,
      "hit": false,
      "t": 144853.01558854178,
      "d": 774.2533958333079,
      "v": 117
    },
    {
      "midi": 64,
      "hit": false,
      "t": 144853.01558854178,
      "d": 2206.1557604166737,
      "v": 94
    },
    {
      "midi": 52,
      "hit": false,
      "t": 144862.34394270845,
      "d": 550.3728958333086,
      "v": 98
    },
    {
      "midi": 65,
      "hit": false,
      "t": 144867.00811979178,
      "d": 41.97759374999441,
      "v": 87
    },
    {
      "midi": 52,
      "hit": false,
      "t": 145515.3287343751,
      "d": 923.5070624999935,
      "v": 74
    },
    {
      "midi": 71,
      "hit": false,
      "t": 145741.54132291678,
      "d": 781.249661458307,
      "v": 100
    },
    {
      "midi": 68,
      "hit": false,
      "t": 145748.53758854177,
      "d": 739.2720677083125,
      "v": 117
    },
    {
      "midi": 40,
      "hit": false,
      "t": 145755.53385416677,
      "d": 555.0370729166607,
      "v": 115
    },
    {
      "midi": 76,
      "hit": false,
      "t": 145755.53385416677,
      "d": 748.6004218749877,
      "v": 117
    },
    {
      "midi": 40,
      "hit": false,
      "t": 146413.18282291677,
      "d": 205.22379166664905,
      "v": 82
    },
    {
      "midi": 69,
      "hit": false,
      "t": 146634.7312343751,
      "d": 720.6153593750205,
      "v": 117
    },
    {
      "midi": 76,
      "hit": false,
      "t": 146634.7312343751,
      "d": 736.9399791666947,
      "v": 117
    },
    {
      "midi": 71,
      "hit": false,
      "t": 146634.7312343751,
      "d": 774.2533958333661,
      "v": 115
    },
    {
      "midi": 52,
      "hit": false,
      "t": 146644.05958854177,
      "d": 550.3728958333377,
      "v": 104
    },
    {
      "midi": 64,
      "hit": false,
      "t": 147110.47729687512,
      "d": 489.7385937500221,
      "v": 69
    },
    {
      "midi": 52,
      "hit": false,
      "t": 147304.04064583345,
      "d": 804.5705468750093,
      "v": 98
    },
    {
      "midi": 68,
      "hit": false,
      "t": 147534.91741145847,
      "d": 750.9325104166346,
      "v": 117
    },
    {
      "midi": 76,
      "hit": false,
      "t": 147534.91741145847,
      "d": 783.5817499999539,
      "v": 117
    },
    {
      "midi": 71,
      "hit": false,
      "t": 147534.91741145847,
      "d": 788.245927083306,
      "v": 115
    },
    {
      "midi": 40,
      "hit": false,
      "t": 147539.5815885418,
      "d": 781.249661458307,
      "v": 117
    },
    {
      "midi": 64,
      "hit": false,
      "t": 147994.3388541668,
      "d": 312.49986458331114,
      "v": 92
    },
    {
      "midi": 52,
      "hit": false,
      "t": 148201.89473437512,
      "d": 135.26113541665836,
      "v": 87
    },
    {
      "midi": 73,
      "hit": false,
      "t": 148647.32364583344,
      "d": 1462.21951562498,
      "v": 117
    },
    {
      "midi": 69,
      "hit": false,
      "t": 148651.98782291677,
      "d": 1476.2120468749781,
      "v": 117
    },
    {
      "midi": 64,
      "hit": false,
      "t": 148651.98782291677,
      "d": 3365.2037656249595,
      "v": 117
    },
    {
      "midi": 45,
      "hit": false,
      "t": 148661.31617708344,
      "d": 1312.9658489583235,
      "v": 104
    },
    {
      "midi": 69,
      "hit": false,
      "t": 150221.4834114584,
      "d": 1851.67830208331,
      "v": 115
    },
    {
      "midi": 71,
      "hit": false,
      "t": 150228.4796770834,
      "d": 1858.674567708309,
      "v": 115
    },
    {
      "midi": 76,
      "hit": false,
      "t": 150228.4796770834,
      "d": 3229.9426302083302,
      "v": 117
    },
    {
      "midi": 42,
      "hit": false,
      "t": 150240.14011979173,
      "d": 1497.2008437500044,
      "v": 109
    },
    {
      "midi": 49,
      "hit": false,
      "t": 152227.07955729173,
      "d": 1189.3651562500163,
      "v": 103
    },
    {
      "midi": 71,
      "hit": false,
      "t": 152229.4116458334,
      "d": 1247.6673697916558,
      "v": 98
    },
    {
      "midi": 68,
      "hit": false,
      "t": 152231.74373437508,
      "d": 1259.3278124999779,
      "v": 109
    },
    {
      "midi": 64,
      "hit": false,
      "t": 152234.07582291675,
      "d": 1284.980786458298,
      "v": 110
    },
    {
      "midi": 49,
      "hit": false,
      "t": 153533.04914062505,
      "d": 83.95518749998882,
      "v": 56
    },
    {
      "midi": 69,
      "hit": false,
      "t": 153794.2430572917,
      "d": 872.2011145833239,
      "v": 117
    },
    {
      "midi": 64,
      "hit": false,
      "t": 153796.57514583337,
      "d": 809.2347239583032,
      "v": 117
    },
    {
      "midi": 52,
      "hit": false,
      "t": 153801.2393229167,
      "d": 543.3766302083386,
      "v": 104
    },
    {
      "midi": 52,
      "hit": false,
      "t": 154449.55993750002,
      "d": 799.9063697916863,
      "v": 76
    },
    {
      "midi": 64,
      "hit": false,
      "t": 154696.7613229167,
      "d": 594.6825781250081,
      "v": 110
    },
    {
      "midi": 68,
      "hit": false,
      "t": 154696.7613229167,
      "d": 622.6676406250044,
      "v": 109
    },
    {
      "midi": 59,
      "hit": false,
      "t": 154701.4255,
      "d": 394.1229635416821,
      "v": 115
    },
    {
      "midi": 40,
      "hit": false,
      "t": 154701.4255,
      "d": 638.9922604166786,
      "v": 102
    },
    {
      "midi": 69,
      "hit": false,
      "t": 154722.414296875,
      "d": 16.324619791674195,
      "v": 47
    },
    {
      "midi": 59,
      "hit": false,
      "t": 155146.85441145836,
      "d": 118.93651562501327,
      "v": 35
    },
    {
      "midi": 52,
      "hit": false,
      "t": 155375.3990885417,
      "d": 65.29847916666768,
      "v": 74
    },
    {
      "midi": 64,
      "hit": false,
      "t": 155617.936296875,
      "d": 1282.6486979166802,
      "v": 104
    },
    {
      "midi": 69,
      "hit": false,
      "t": 155617.936296875,
      "d": 1333.9546458333498,
      "v": 102
    },
    {
      "midi": 45,
      "hit": false,
      "t": 155620.26838541668,
      "d": 1553.170968749997,
      "v": 107
    },
    {
      "midi": 61,
      "hit": false,
      "t": 155622.60047395836,
      "d": 1249.9994583333319,
      "v": 117
    },
    {
      "midi": 64,
      "hit": false,
      "t": 157390.32358854168,
      "d": 1828.357416666695,
      "v": 112
    },
    {
      "midi": 69,
      "hit": false,
      "t": 157392.65567708336,
      "d": 1779.3835572916723,
      "v": 115
    },
    {
      "midi": 71,
      "hit": false,
      "t": 157392.65567708336,
      "d": 1951.9581093750312,
      "v": 110
    },
    {
      "midi": 42,
      "hit": false,
      "t": 157408.98029687503,
      "d": 1548.506791666674,
      "v": 91
    },
    {
      "midi": 71,
      "hit": false,
      "t": 159391.25555729173,
      "d": 1361.939708333346,
      "v": 80
    },
    {
      "midi": 49,
      "hit": false,
      "t": 159400.5839114584,
      "d": 1254.663635416684,
      "v": 89
    },
    {
      "midi": 76,
      "hit": false,
      "t": 159400.5839114584,
      "d": 1333.9546458333498,
      "v": 107
    },
    {
      "midi": 64,
      "hit": false,
      "t": 159400.5839114584,
      "d": 1352.611354166671,
      "v": 104
    },
    {
      "midi": 68,
      "hit": false,
      "t": 159409.91226562508,
      "d": 1338.6188229166728,
      "v": 109
    },
    {
      "midi": 37,
      "hit": false,
      "t": 159412.24435416676,
      "d": 1245.3352812500088,
      "v": 81
    },
    {
      "midi": 44,
      "hit": false,
      "t": 160729.87438020844,
      "d": 18.65670833332115,
      "v": 60
    },
    {
      "midi": 69,
      "hit": false,
      "t": 160974.7436770834,
      "d": 746.2683333333407,
      "v": 115
    },
    {
      "midi": 71,
      "hit": false,
      "t": 160974.7436770834,
      "d": 827.8914322916535,
      "v": 115
    },
    {
      "midi": 64,
      "hit": false,
      "t": 160974.7436770834,
      "d": 1487.8724895833002,
      "v": 110
    },
    {
      "midi": 76,
      "hit": false,
      "t": 160977.07576562508,
      "d": 792.9101041666581,
      "v": 117
    },
    {
      "midi": 52,
      "hit": false,
      "t": 160981.7399427084,
      "d": 487.40650520834606,
      "v": 87
    },
    {
      "midi": 40,
      "hit": false,
      "t": 160981.7399427084,
      "d": 708.9549166666693,
      "v": 84
    },
    {
      "midi": 52,
      "hit": false,
      "t": 161639.3889114584,
      "d": 746.2683333333116,
      "v": 82
    },
    {
      "midi": 71,
      "hit": false,
      "t": 161874.92985416672,
      "d": 608.6751093749772,
      "v": 104
    },
    {
      "midi": 68,
      "hit": false,
      "t": 161877.2619427084,
      "d": 569.0296041666588,
      "v": 117
    },
    {
      "midi": 76,
      "hit": false,
      "t": 161877.2619427084,
      "d": 853.5444062499737,
      "v": 117
    },
    {
      "midi": 40,
      "hit": false,
      "t": 161881.92611979172,
      "d": 576.0258697916579,
      "v": 104
    },
    {
      "midi": 52,
      "hit": false,
      "t": 162485.93705208338,
      "d": 34.98132812499534,
      "v": 60
    },
    {
      "midi": 73,
      "hit": false,
      "t": 162765.78767708337,
      "d": 1679.1037499999802,
      "v": 109
    },
    {
      "midi": 69,
      "hit": false,
      "t": 162770.4518541667,
      "d": 1641.790333333338,
      "v": 112
    },
    {
      "midi": 64,
      "hit": false,
      "t": 162770.4518541667,
      "d": 1646.454510416661,
      "v": 110
    },
    {
      "midi": 45,
      "hit": false,
      "t": 162772.78394270837,
      "d": 1609.1410937499895,
      "v": 92
    },
    {
      "midi": 76,
      "hit": false,
      "t": 162782.11229687504,
      "d": 32.649239583319286,
      "v": 46
    },
    {
      "midi": 64,
      "hit": false,
      "t": 164542.83914583334,
      "d": 1895.9879843749804,
      "v": 102
    },
    {
      "midi": 76,
      "hit": false,
      "t": 164545.171234375,
      "d": 1861.006656249985,
      "v": 112
    },
    {
      "midi": 69,
      "hit": false,
      "t": 164545.171234375,
      "d": 1865.670833333308,
      "v": 107
    },
    {
      "midi": 71,
      "hit": false,
      "t": 164545.171234375,
      "d": 1905.3163385416265,
      "v": 107
    },
    {
      "midi": 42,
      "hit": false,
      "t": 164566.16003125,
      "d": 1574.1597656249942,
      "v": 87
    },
    {
      "midi": 71,
      "hit": false,
      "t": 166578.7524427083,
      "d": 1364.2717968750221,
      "v": 102
    },
    {
      "midi": 49,
      "hit": false,
      "t": 166581.08453124997,
      "d": 1212.6860416666896,
      "v": 109
    },
    {
      "midi": 68,
      "hit": false,
      "t": 166581.08453124997,
      "d": 1357.275531250023,
      "v": 117
    },
    {
      "midi": 64,
      "hit": false,
      "t": 166581.08453124997,
      "d": 1371.2680625000212,
      "v": 104
    },
    {
      "midi": 76,
      "hit": false,
      "t": 166583.41661979165,
      "d": 1331.6225572916737,
      "v": 115
    },
    {
      "midi": 49,
      "hit": false,
      "t": 167884.72202604165,
      "d": 90.951453125017,
      "v": 63
    },
    {
      "midi": 71,
      "hit": false,
      "t": 168127.259234375,
      "d": 834.8876979166816,
      "v": 112
    },
    {
      "midi": 69,
      "hit": false,
      "t": 168129.59132291668,
      "d": 757.9287760416628,
      "v": 117
    },
    {
      "midi": 76,
      "hit": false,
      "t": 168129.59132291668,
      "d": 795.2421927083342,
      "v": 117
    },
    {
      "midi": 64,
      "hit": false,
      "t": 168129.59132291668,
      "d": 991.1376302083372,
      "v": 110
    },
    {
      "midi": 52,
      "hit": false,
      "t": 168141.251765625,
      "d": 541.0445416666626,
      "v": 98
    },
    {
      "midi": 52,
      "hit": false,
      "t": 168798.900734375,
      "d": 750.9325104166928,
      "v": 78
    },
    {
      "midi": 40,
      "hit": false,
      "t": 169027.44541145835,
      "d": 624.9997291666805,
      "v": 112
    },
    {
      "midi": 71,
      "hit": false,
      "t": 169032.10958854167,
      "d": 634.3280833333556,
      "v": 104
    },
    {
      "midi": 68,
      "hit": false,
      "t": 169034.44167708335,
      "d": 594.6825781250081,
      "v": 117
    },
    {
      "midi": 76,
      "hit": false,
      "t": 169034.44167708335,
      "d": 643.6564375000016,
      "v": 117
    },
    {
      "midi": 52,
      "hit": false,
      "t": 169689.75855729167,
      "d": 46.64177083334653,
      "v": 63
    },
    {
      "midi": 73,
      "hit": false,
      "t": 169936.95994270834,
      "d": 1646.454510416661,
      "v": 113
    },
    {
      "midi": 45,
      "hit": false,
      "t": 169941.62411979167,
      "d": 1511.1933750000026,
      "v": 98
    },
    {
      "midi": 76,
      "hit": false,
      "t": 169941.62411979167,
      "d": 1632.4619791666628,
      "v": 112
    },
    {
      "midi": 64,
      "hit": false,
      "t": 169946.288296875,
      "d": 1604.4769166666665,
      "v": 115
    },
    {
      "midi": 69,
      "hit": false,
      "t": 169946.288296875,
      "d": 1618.4694479166646,
      "v": 115
    },
    {
      "midi": 71,
      "hit": false,
      "t": 171700.01888020834,
      "d": 1814.3648854166677,
      "v": 117
    },
    {
      "midi": 64,
      "hit": false,
      "t": 171700.01888020834,
      "d": 1816.6969739583437,
      "v": 107
    },
    {
      "midi": 69,
      "hit": false,
      "t": 171700.01888020834,
      "d": 1847.014125000016,
      "v": 117
    },
    {
      "midi": 76,
      "hit": false,
      "t": 171702.35096875002,
      "d": 1812.0327968749916,
      "v": 117
    },
    {
      "midi": 42,
      "hit": false,
      "t": 171723.33976562502,
      "d": 1539.1784374999988,
      "v": 91
    },
    {
      "midi": 68,
      "hit": false,
      "t": 173512.05167708333,
      "d": 1546.174703125027,
      "v": 117
    },
    {
      "midi": 71,
      "hit": false,
      "t": 173514.383765625,
      "d": 1567.1635000000242,
      "v": 107
    },
    {
      "midi": 76,
      "hit": false,
      "t": 173516.7158541667,
      "d": 1550.83888020835,
      "v": 115
    },
    {
      "midi": 64,
      "hit": false,
      "t": 173516.7158541667,
      "d": 1560.1672343750251,
      "v": 110
    },
    {
      "midi": 49,
      "hit": false,
      "t": 173523.7121197917,
      "d": 1366.603885416669,
      "v": 81
    },
    {
      "midi": 49,
      "hit": false,
      "t": 175044.23384895836,
      "d": 65.29847916666768,
      "v": 57
    },
    {
      "midi": 69,
      "hit": false,
      "t": 175282.10688020836,
      "d": 727.6116250000196,
      "v": 117
    },
    {
      "midi": 71,
      "hit": false,
      "t": 175282.10688020836,
      "d": 746.2683333333698,
      "v": 112
    },
    {
      "midi": 64,
      "hit": false,
      "t": 175282.10688020836,
      "d": 1662.7791302083642,
      "v": 112
    },
    {
      "midi": 76,
      "hit": false,
      "t": 175284.43896875004,
      "d": 727.6116250000196,
      "v": 117
    },
    {
      "midi": 52,
      "hit": false,
      "t": 175291.43523437504,
      "d": 527.0520104166644,
      "v": 94
    },
    {
      "midi": 52,
      "hit": false,
      "t": 175937.4237604167,
      "d": 932.8354166666686,
      "v": 78
    },
    {
      "midi": 40,
      "hit": false,
      "t": 176179.96096875006,
      "d": 538.7124531249865,
      "v": 102
    },
    {
      "midi": 76,
      "hit": false,
      "t": 176186.95723437506,
      "d": 741.6041562499886,
      "v": 117
    },
    {
      "midi": 71,
      "hit": false,
      "t": 176186.95723437506,
      "d": 762.5929531249858,
      "v": 110
    },
    {
      "midi": 68,
      "hit": false,
      "t": 176191.62141145839,
      "d": 734.6078906249895,
      "v": 117
    },
    {
      "midi": 40,
      "hit": false,
      "t": 176844.60620312506,
      "d": 312.49986458334024,
      "v": 90
    },
    {
      "midi": 52,
      "hit": false,
      "t": 177096.47176562506,
      "d": 536.3803645833395,
      "v": 115
    },
    {
      "midi": 69,
      "hit": false,
      "t": 177096.47176562506,
      "d": 685.6340312500251,
      "v": 117
    },
    {
      "midi": 76,
      "hit": false,
      "t": 177096.47176562506,
      "d": 687.9661197917012,
      "v": 117
    },
    {
      "midi": 71,
      "hit": false,
      "t": 177096.47176562506,
      "d": 727.6116250000487,
      "v": 115
    },
    {
      "midi": 64,
      "hit": false,
      "t": 177098.80385416673,
      "d": 380.13043229165487,
      "v": 117
    },
    {
      "midi": 64,
      "hit": false,
      "t": 177551.22903125006,
      "d": 270.52227083337493,
      "v": 84
    },
    {
      "midi": 52,
      "hit": false,
      "t": 177744.7923802084,
      "d": 783.5817500000121,
      "v": 90
    },
    {
      "midi": 40,
      "hit": false,
      "t": 177978.00123437512,
      "d": 620.3355520832993,
      "v": 115
    },
    {
      "midi": 71,
      "hit": false,
      "t": 177982.66541145844,
      "d": 527.0520104166644,
      "v": 115
    },
    {
      "midi": 68,
      "hit": false,
      "t": 177982.66541145844,
      "d": 538.7124531249865,
      "v": 117
    },
    {
      "midi": 76,
      "hit": false,
      "t": 177982.66541145844,
      "d": 543.3766302083095,
      "v": 117
    },
    {
      "midi": 64,
      "hit": false,
      "t": 177987.32958854176,
      "d": 375.46625520833186,
      "v": 115
    },
    {
      "midi": 64,
      "hit": false,
      "t": 178435.09058854176,
      "d": 74.6268333333428,
      "v": 52
    },
    {
      "midi": 52,
      "hit": false,
      "t": 178628.6539375001,
      "d": 90.95145312498789,
      "v": 81
    },
    {
      "midi": 78,
      "hit": false,
      "t": 178864.1948802084,
      "d": 736.9399791666947,
      "v": 117
    },
    {
      "midi": 73,
      "hit": false,
      "t": 178866.52696875008,
      "d": 781.249661458336,
      "v": 117
    },
    {
      "midi": 71,
      "hit": false,
      "t": 178868.85905729176,
      "d": 736.9399791666656,
      "v": 117
    },
    {
      "midi": 66,
      "hit": false,
      "t": 178868.85905729176,
      "d": 748.6004218749877,
      "v": 117
    },
    {
      "midi": 42,
      "hit": false,
      "t": 178871.19114583344,
      "d": 594.6825781250081,
      "v": 113
    },
    {
      "midi": 42,
      "hit": false,
      "t": 179535.83638020844,
      "d": 284.51480208334397,
      "v": 97
    },
    {
      "midi": 73,
      "hit": false,
      "t": 179757.38479166676,
      "d": 692.6302968750242,
      "v": 117
    },
    {
      "midi": 66,
      "hit": false,
      "t": 179757.38479166676,
      "d": 715.9511822916975,
      "v": 117
    },
    {
      "midi": 78,
      "hit": false,
      "t": 179759.71688020843,
      "d": 652.9847916666768,
      "v": 117
    },
    {
      "midi": 54,
      "hit": false,
      "t": 179762.0489687501,
      "d": 564.3654270833358,
      "v": 117
    },
    {
      "midi": 70,
      "hit": false,
      "t": 179762.0489687501,
      "d": 652.9847916666768,
      "v": 109
    },
    {
      "midi": 54,
      "hit": false,
      "t": 180445.35091145846,
      "d": 284.51480208334397,
      "v": 97
    },
    {
      "midi": 42,
      "hit": false,
      "t": 180650.5747031251,
      "d": 662.313145833381,
      "v": 117
    },
    {
      "midi": 78,
      "hit": false,
      "t": 180659.90305729178,
      "d": 708.9549166666984,
      "v": 117
    },
    {
      "midi": 66,
      "hit": false,
      "t": 180662.23514583346,
      "d": 356.8095468750107,
      "v": 117
    },
    {
      "midi": 73,
      "hit": false,
      "t": 180662.23514583346,
      "d": 757.9287760416919,
      "v": 117
    },
    {
      "midi": 71,
      "hit": false,
      "t": 180664.56723437514,
      "d": 727.6116250000196,
      "v": 115
    },
    {
      "midi": 66,
      "hit": false,
      "t": 181107.6640572918,
      "d": 303.1715104166651,
      "v": 75
    },
    {
      "midi": 54,
      "hit": false,
      "t": 181317.5520260418,
      "d": 778.91757291666,
      "v": 103
    },
    {
      "midi": 42,
      "hit": false,
      "t": 181553.09296875016,
      "d": 879.1973802082648,
      "v": 117
    },
    {
      "midi": 73,
      "hit": false,
      "t": 181557.7571458335,
      "d": 608.6751093749772,
      "v": 117
    },
    {
      "midi": 66,
      "hit": false,
      "t": 181560.08923437516,
      "d": 384.7946093749779,
      "v": 117
    },
    {
      "midi": 78,
      "hit": false,
      "t": 181564.75341145849,
      "d": 613.3392864583002,
      "v": 117
    },
    {
      "midi": 70,
      "hit": false,
      "t": 181564.75341145849,
      "d": 624.9997291666223,
      "v": 113
    },
    {
      "midi": 66,
      "hit": false,
      "t": 182024.1748541668,
      "d": 207.555880208296,
      "v": 49
    },
    {
      "midi": 54,
      "hit": false,
      "t": 182231.7307343751,
      "d": 209.88796875000116,
      "v": 97
    },
    {
      "midi": 49,
      "hit": false,
      "t": 182443.95079166678,
      "d": 16.324619791674195,
      "v": 62
    },
    {
      "midi": 71,
      "hit": false,
      "t": 182663.16711458346,
      "d": 939.8316822916968,
      "v": 107
    },
    {
      "midi": 66,
      "hit": false,
      "t": 182665.49920312513,
      "d": 937.4995937500207,
      "v": 117
    },
    {
      "midi": 62,
      "hit": false,
      "t": 182670.16338020845,
      "d": 916.5107968750235,
      "v": 110
    },
    {
      "midi": 47,
      "hit": false,
      "t": 182677.15964583345,
      "d": 890.8578229166742,
      "v": 100
    },
    {
      "midi": 59,
      "hit": false,
      "t": 183584.3420885418,
      "d": 405.7834062500333,
      "v": 75
    },
    {
      "midi": 64,
      "hit": false,
      "t": 183826.87929687515,
      "d": 151.58575520833256,
      "v": 110
    },
    {
      "midi": 68,
      "hit": false,
      "t": 183826.87929687515,
      "d": 160.91410937500768,
      "v": 117
    },
    {
      "midi": 73,
      "hit": false,
      "t": 183826.87929687515,
      "d": 186.567083333357,
      "v": 117
    },
    {
      "midi": 49,
      "hit": false,
      "t": 184053.09188541686,
      "d": 27.985062499996275,
      "v": 57
    },
    {
      "midi": 73,
      "hit": false,
      "t": 184255.98358854186,
      "d": 1690.7641927083314,
      "v": 117
    },
    {
      "midi": 69,
      "hit": false,
      "t": 184258.31567708353,
      "d": 1681.4358385416563,
      "v": 117
    },
    {
      "midi": 65,
      "hit": false,
      "t": 184258.31567708353,
      "d": 1695.4283697916544,
      "v": 110
    },
    {
      "midi": 50,
      "hit": false,
      "t": 184269.97611979186,
      "d": 1646.454510416661,
      "v": 94
    },
    {
      "midi": 50,
      "hit": false,
      "t": 186033.03505729185,
      "d": 32.649239583319286,
      "v": 55
    },
    {
      "midi": 71,
      "hit": false,
      "t": 186280.2364427085,
      "d": 652.9847916666477,
      "v": 104
    },
    {
      "midi": 76,
      "hit": false,
      "t": 186284.90061979182,
      "d": 645.9885260416486,
      "v": 117
    },
    {
      "midi": 45,
      "hit": false,
      "t": 186289.56479687514,
      "d": 1329.2904687499686,
      "v": 98
    },
    {
      "midi": 57,
      "hit": false,
      "t": 186961.20629687514,
      "d": 494.402770833316,
      "v": 62
    },
    {
      "midi": 76,
      "hit": false,
      "t": 187189.75097395846,
      "d": 529.3840989583114,
      "v": 117
    },
    {
      "midi": 71,
      "hit": false,
      "t": 187189.75097395846,
      "d": 555.0370729166316,
      "v": 117
    },
    {
      "midi": 73,
      "hit": false,
      "t": 187418.2956510418,
      "d": 359.14163541662856,
      "v": 75
    },
    {
      "midi": 57,
      "hit": false,
      "t": 187618.8552656251,
      "d": 97.94771874998696,
      "v": 63
    },
    {
      "midi": 76,
      "hit": false,
      "t": 187838.07158854176,
      "d": 3008.3942187499197,
      "v": 110
    },
    {
      "midi": 69,
      "hit": false,
      "t": 187842.73576562508,
      "d": 1639.4582447916328,
      "v": 117
    },
    {
      "midi": 42,
      "hit": false,
      "t": 187847.3999427084,
      "d": 1427.2381874999846,
      "v": 100
    },
    {
      "midi": 71,
      "hit": false,
      "t": 187852.06411979173,
      "d": 65.29847916663857,
      "v": 94
    },
    {
      "midi": 73,
      "hit": false,
      "t": 187863.72456250005,
      "d": 20.988796874997206,
      "v": 72
    },
    {
      "midi": 71,
      "hit": false,
      "t": 188173.89233854171,
      "d": 1312.9658489583235,
      "v": 11
    },
    {
      "midi": 49,
      "hit": false,
      "t": 189852.9960885417,
      "d": 1371.268062499992,
      "v": 87
    },
    {
      "midi": 68,
      "hit": false,
      "t": 189855.32817708337,
      "d": 958.4883906249888,
      "v": 117
    },
    {
      "midi": 71,
      "hit": false,
      "t": 189855.32817708337,
      "d": 1093.7495260416472,
      "v": 102
    },
    {
      "midi": 64,
      "hit": false,
      "t": 189855.32817708337,
      "d": 1354.943442708318,
      "v": 107
    },
    {
      "midi": 61,
      "hit": false,
      "t": 190762.5106197917,
      "d": 293.84315624999,
      "v": 75
    },
    {
      "midi": 68,
      "hit": false,
      "t": 190972.3985885417,
      "d": 270.5222708333167,
      "v": 106
    },
    {
      "midi": 76,
      "hit": false,
      "t": 190977.062765625,
      "d": 286.8468906249909,
      "v": 112
    },
    {
      "midi": 71,
      "hit": false,
      "t": 190991.055296875,
      "d": 25.652973958320217,
      "v": 74
    },
    {
      "midi": 61,
      "hit": false,
      "t": 191172.95820312502,
      "d": 51.30594791666954,
      "v": 57
    },
    {
      "midi": 69,
      "hit": false,
      "t": 191410.83123437501,
      "d": 792.9101041666872,
      "v": 117
    },
    {
      "midi": 76,
      "hit": false,
      "t": 191410.83123437501,
      "d": 834.8876979166816,
      "v": 117
    },
    {
      "midi": 64,
      "hit": false,
      "t": 191410.83123437501,
      "d": 1229.0106614583347,
      "v": 117
    },
    {
      "midi": 71,
      "hit": false,
      "t": 191413.1633229167,
      "d": 855.8764947916789,
      "v": 117
    },
    {
      "midi": 52,
      "hit": false,
      "t": 191422.49167708337,
      "d": 601.6788437500072,
      "v": 96
    },
    {
      "midi": 52,
      "hit": false,
      "t": 192115.12197395836,
      "d": 867.5369374999718,
      "v": 85
    },
    {
      "midi": 71,
      "hit": false,
      "t": 192325.00994270836,
      "d": 788.245927083306,
      "v": 102
    },
    {
      "midi": 40,
      "hit": false,
      "t": 192329.67411979169,
      "d": 510.7273906249902,
      "v": 117
    },
    {
      "midi": 76,
      "hit": false,
      "t": 192329.67411979169,
      "d": 732.2758020833135,
      "v": 117
    },
    {
      "midi": 68,
      "hit": false,
      "t": 192334.338296875,
      "d": 732.2758020833135,
      "v": 117
    },
    {
      "midi": 64,
      "hit": false,
      "t": 192777.43511979168,
      "d": 335.8207499999844,
      "v": 82
    },
    {
      "midi": 40,
      "hit": false,
      "t": 192977.994734375,
      "d": 862.8727604166779,
      "v": 104
    },
    {
      "midi": 76,
      "hit": false,
      "t": 193201.875234375,
      "d": 713.6190937500214,
      "v": 117
    },
    {
      "midi": 64,
      "hit": false,
      "t": 193206.53941145833,
      "d": 354.47745833333465,
      "v": 117
    },
    {
      "midi": 52,
      "hit": false,
      "t": 193206.53941145833,
      "d": 522.3878333333414,
      "v": 115
    },
    {
      "midi": 69,
      "hit": false,
      "t": 193206.53941145833,
      "d": 713.6190937500214,
      "v": 117
    },
    {
      "midi": 71,
      "hit": false,
      "t": 193206.53941145833,
      "d": 734.6078906250186,
      "v": 117
    },
    {
      "midi": 64,
      "hit": false,
      "t": 193640.30788020833,
      "d": 298.5073333333421,
      "v": 81
    },
    {
      "midi": 52,
      "hit": false,
      "t": 193854.8600260417,
      "d": 813.8989010417135,
      "v": 107
    },
    {
      "midi": 40,
      "hit": false,
      "t": 194081.07261458336,
      "d": 781.2496614583652,
      "v": 117
    },
    {
      "midi": 71,
      "hit": false,
      "t": 194090.40096875004,
      "d": 732.2758020833717,
      "v": 115
    },
    {
      "midi": 68,
      "hit": false,
      "t": 194092.7330572917,
      "d": 715.9511822916975,
      "v": 117
    },
    {
      "midi": 76,
      "hit": false,
      "t": 194092.7330572917,
      "d": 755.5966875000158,
      "v": 117
    },
    {
      "midi": 64,
      "hit": false,
      "t": 194095.0651458334,
      "d": 333.48866145833745,
      "v": 115
    },
    {
      "midi": 64,
      "hit": false,
      "t": 194559.15076562506,
      "d": 219.2163229166763,
      "v": 87
    },
    {
      "midi": 52,
      "hit": false,
      "t": 194792.35961979174,
      "d": 191.2312604166509,
      "v": 110
    },
    {
      "midi": 45,
      "hit": false,
      "t": 195228.46017708338,
      "d": 1336.2867343750258,
      "v": 117
    },
    {
      "midi": 57,
      "hit": false,
      "t": 195909.43003125006,
      "d": 515.3915677083714,
      "v": 88
    },
    {
      "midi": 66,
      "hit": false,
      "t": 196114.65382291673,
      "d": 160.91410937500768,
      "v": 117
    },
    {
      "midi": 74,
      "hit": false,
      "t": 196123.9821770834,
      "d": 198.22752604167908,
      "v": 115
    },
    {
      "midi": 71,
      "hit": false,
      "t": 196123.9821770834,
      "d": 207.5558802083542,
      "v": 112
    },
    {
      "midi": 73,
      "hit": false,
      "t": 196331.53805729176,
      "d": 233.20885416664532,
      "v": 103
    },
    {
      "midi": 69,
      "hit": false,
      "t": 196345.53058854176,
      "d": 186.5670833333279,
      "v": 85
    },
    {
      "midi": 64,
      "hit": false,
      "t": 196359.52311979176,
      "d": 153.91784375000861,
      "v": 107
    },
    {
      "midi": 57,
      "hit": false,
      "t": 196569.41108854173,
      "d": 79.29101041666581,
      "v": 87
    },
    {
      "midi": 49,
      "hit": false,
      "t": 196788.6274114584,
      "d": 1427.2381875000137,
      "v": 117
    },
    {
      "midi": 73,
      "hit": false,
      "t": 196793.29158854173,
      "d": 1270.9882552083582,
      "v": 117
    },
    {
      "midi": 65,
      "hit": false,
      "t": 196795.6236770834,
      "d": 781.249661458336,
      "v": 117
    },
    {
      "midi": 71,
      "hit": false,
      "t": 196795.6236770834,
      "d": 781.249661458336,
      "v": 117
    },
    {
      "midi": 37,
      "hit": false,
      "t": 197469.59726562508,
      "d": 1082.0890833333542,
      "v": 109
    },
    {
      "midi": 71,
      "hit": false,
      "t": 197702.80611979176,
      "d": 937.4995937500207,
      "v": 110
    },
    {
      "midi": 65,
      "hit": false,
      "t": 197709.80238541675,
      "d": 352.1453697916586,
      "v": 117
    },
    {
      "midi": 73,
      "hit": false,
      "t": 198136.57458854176,
      "d": 475.746062500024,
      "v": 94
    },
    {
      "midi": 65,
      "hit": false,
      "t": 198141.23876562508,
      "d": 485.0744166666991,
      "v": 104
    },
    {
      "midi": 49,
      "hit": false,
      "t": 198362.78717708343,
      "d": 202.8917031250021,
      "v": 109
    },
    {
      "midi": 44,
      "hit": false,
      "t": 198568.0109687501,
      "d": 16.324619791674195,
      "v": 61
    },
    {
      "midi": 45,
      "hit": false,
      "t": 198810.54817708343,
      "d": 1368.9359739583742,
      "v": 117
    },
    {
      "midi": 57,
      "hit": false,
      "t": 199482.18967708343,
      "d": 534.0482760416926,
      "v": 110
    },
    {
      "midi": 66,
      "hit": false,
      "t": 199713.06644270843,
      "d": 144.5894895833335,
      "v": 117
    },
    {
      "midi": 71,
      "hit": false,
      "t": 199713.06644270843,
      "d": 256.5297395833477,
      "v": 115
    },
    {
      "midi": 74,
      "hit": false,
      "t": 199717.73061979175,
      "d": 214.55214583335328,
      "v": 117
    },
    {
      "midi": 73,
      "hit": false,
      "t": 199922.95441145843,
      "d": 242.53720833337866,
      "v": 97
    },
    {
      "midi": 69,
      "hit": false,
      "t": 199941.61111979178,
      "d": 209.88796875003027,
      "v": 94
    },
    {
      "midi": 64,
      "hit": false,
      "t": 199948.60738541678,
      "d": 179.57081770835794,
      "v": 104
    },
    {
      "midi": 57,
      "hit": false,
      "t": 200160.82744270848,
      "d": 79.29101041666581,
      "v": 80
    },
    {
      "midi": 73,
      "hit": false,
      "t": 200377.71167708348,
      "d": 1951.958109374973,
      "v": 117
    },
    {
      "midi": 65,
      "hit": false,
      "t": 200380.04376562516,
      "d": 718.2832708333153,
      "v": 117
    },
    {
      "midi": 71,
      "hit": false,
      "t": 200382.37585416684,
      "d": 704.2907395833172,
      "v": 117
    },
    {
      "midi": 37,
      "hit": false,
      "t": 200389.37211979183,
      "d": 1765.391026041616,
      "v": 103
    },
    {
      "midi": 49,
      "hit": false,
      "t": 201061.01361979183,
      "d": 725.2795364582853,
      "v": 117
    },
    {
      "midi": 71,
      "hit": false,
      "t": 201284.8941197918,
      "d": 1051.7719322916528,
      "v": 102
    },
    {
      "midi": 65,
      "hit": false,
      "t": 201289.55829687513,
      "d": 349.81328125001164,
      "v": 117
    },
    {
      "midi": 65,
      "hit": false,
      "t": 201688.34543750013,
      "d": 627.3318177083274,
      "v": 66
    },
    {
      "midi": 49,
      "hit": false,
      "t": 201923.88638020845,
      "d": 251.86556249999558,
      "v": 113
    },
    {
      "midi": 44,
      "hit": false,
      "t": 202157.09523437513,
      "d": 18.65670833332115,
      "v": 68
    },
    {
      "midi": 45,
      "hit": false,
      "t": 202394.96826562512,
      "d": 1324.6262916666456,
      "v": 115
    },
    {
      "midi": 57,
      "hit": false,
      "t": 203071.27394270845,
      "d": 527.0520104166353,
      "v": 117
    },
    {
      "midi": 78,
      "hit": false,
      "t": 203285.82608854177,
      "d": 163.24619791665464,
      "v": 117
    },
    {
      "midi": 86,
      "hit": false,
      "t": 203290.4902656251,
      "d": 289.178979166667,
      "v": 117
    },
    {
      "midi": 81,
      "hit": false,
      "t": 203290.4902656251,
      "d": 466.41770833334886,
      "v": 117
    },
    {
      "midi": 76,
      "hit": false,
      "t": 203528.3632968751,
      "d": 181.9029062500049,
      "v": 107
    },
    {
      "midi": 85,
      "hit": false,
      "t": 203533.0274739584,
      "d": 177.23872916668188,
      "v": 94
    },
    {
      "midi": 57,
      "hit": false,
      "t": 203728.92291145845,
      "d": 81.62309895834187,
      "v": 98
    },
    {
      "midi": 85,
      "hit": false,
      "t": 203943.4750572918,
      "d": 1473.8799583333603,
      "v": 109
    },
    {
      "midi": 83,
      "hit": false,
      "t": 203945.80714583347,
      "d": 743.9362447916938,
      "v": 117
    },
    {
      "midi": 77,
      "hit": false,
      "t": 203948.13923437515,
      "d": 760.2608645833388,
      "v": 117
    },
    {
      "midi": 49,
      "hit": false,
      "t": 203957.46758854183,
      "d": 1791.0440000000235,
      "v": 89
    },
    {
      "midi": 61,
      "hit": false,
      "t": 204624.4449114585,
      "d": 769.5892187499849,
      "v": 113
    },
    {
      "midi": 83,
      "hit": false,
      "t": 204864.65003125014,
      "d": 576.025869791687,
      "v": 117
    },
    {
      "midi": 77,
      "hit": false,
      "t": 204873.97838541682,
      "d": 333.48866145833745,
      "v": 117
    },
    {
      "midi": 77,
      "hit": false,
      "t": 205296.0864114585,
      "d": 205.22379166667815,
      "v": 69
    },
    {
      "midi": 61,
      "hit": false,
      "t": 205510.63855729185,
      "d": 139.92531250001048,
      "v": 87
    },
    {
      "midi": 56,
      "hit": false,
      "t": 205722.85861458353,
      "d": 18.65670833332115,
      "v": 55
    },
    {
      "midi": 71,
      "hit": false,
      "t": 205958.39955729185,
      "d": 5792.907937500015,
      "v": 117
    },
    {
      "midi": 69,
      "hit": false,
      "t": 205958.39955729185,
      "d": 5797.572114583338,
      "v": 117
    },
    {
      "midi": 76,
      "hit": false,
      "t": 205958.39955729185,
      "d": 5802.236291666661,
      "v": 117
    },
    {
      "midi": 42,
      "hit": false,
      "t": 205965.39582291685,
      "d": 5783.5795833333395,
      "v": 94
    },
    {
      "midi": 54,
      "hit": false,
      "t": 205967.72791145853,
      "d": 5788.243760416663,
      "v": 91
    },
    {
      "midi": 73,
      "hit": false,
      "t": 205974.72417708352,
      "d": 9.328354166675126,
      "v": 103
    }
  ]
}