{
  "jsonPath": "Rock/Portuguese Rock/Toranja/carta.json",
  "path": "Rock\\Portuguese Rock\\Toranja\\Carta.mid",
  "name": "Carta",
  "difficulty": "Advanced",
  "bpm": 82.00014760026568,
  "notes": [
    {
      "midi": 41,
      "hit": false,
      "t": 2945.1166500000004,
      "d": 2006.09395,
      "v": 90
    },
    {
      "midi": 53,
      "hit": false,
      "t": 2951.2142000000003,
      "d": 439.0236,
      "v": 72
    },
    {
      "midi": 48,
      "hit": false,
      "t": 3317.0672000000004,
      "d": 402.43830000000025,
      "v": 90
    },
    {
      "midi": 79,
      "hit": false,
      "t": 3634.1398000000004,
      "d": 445.1211500000004,
      "v": 72
    },
    {
      "midi": 53,
      "hit": false,
      "t": 3682.9202000000005,
      "d": 408.5358500000002,
      "v": 90
    },
    {
      "midi": 48,
      "hit": false,
      "t": 4042.6756500000006,
      "d": 884.1447499999999,
      "v": 96
    },
    {
      "midi": 81,
      "hit": false,
      "t": 4042.6756500000006,
      "d": 420.73094999999967,
      "v": 98
    },
    {
      "midi": 84,
      "hit": false,
      "t": 4414.626200000001,
      "d": 792.6814999999997,
      "v": 107
    },
    {
      "midi": 53,
      "hit": false,
      "t": 4426.8213000000005,
      "d": 499.9991,
      "v": 100
    },
    {
      "midi": 55,
      "hit": false,
      "t": 4786.57675,
      "d": 414.6334000000006,
      "v": 98
    },
    {
      "midi": 86,
      "hit": false,
      "t": 5158.527300000001,
      "d": 756.0962,
      "v": 98
    },
    {
      "midi": 57,
      "hit": false,
      "t": 5170.722400000001,
      "d": 414.6334000000006,
      "v": 100
    },
    {
      "midi": 60,
      "hit": false,
      "t": 5554.868050000001,
      "d": 365.85300000000007,
      "v": 105
    },
    {
      "midi": 48,
      "hit": false,
      "t": 5896.330850000001,
      "d": 499.9991,
      "v": 82
    },
    {
      "midi": 36,
      "hit": false,
      "t": 5896.330850000001,
      "d": 2390.2396,
      "v": 98
    },
    {
      "midi": 43,
      "hit": false,
      "t": 6274.378950000001,
      "d": 457.31624999999985,
      "v": 100
    },
    {
      "midi": 88,
      "hit": false,
      "t": 6615.8417500000005,
      "d": 463.41380000000026,
      "v": 105
    },
    {
      "midi": 48,
      "hit": false,
      "t": 6640.231950000001,
      "d": 432.9260499999991,
      "v": 100
    },
    {
      "midi": 86,
      "hit": false,
      "t": 7006.08495,
      "d": 445.12115000000085,
      "v": 98
    },
    {
      "midi": 43,
      "hit": false,
      "t": 7024.377600000001,
      "d": 1286.5830500000002,
      "v": 105
    },
    {
      "midi": 48,
      "hit": false,
      "t": 7396.32815,
      "d": 975.6080000000011,
      "v": 100
    },
    {
      "midi": 84,
      "hit": false,
      "t": 7408.523250000001,
      "d": 780.4863999999998,
      "v": 107
    },
    {
      "midi": 52,
      "hit": false,
      "t": 7762.18115,
      "d": 390.2431999999999,
      "v": 100
    },
    {
      "midi": 55,
      "hit": false,
      "t": 8109.7415,
      "d": 384.1456500000004,
      "v": 102
    },
    {
      "midi": 86,
      "hit": false,
      "t": 8140.229250000001,
      "d": 353.65789999999924,
      "v": 90
    },
    {
      "midi": 84,
      "hit": false,
      "t": 8463.3994,
      "d": 481.7064499999997,
      "v": 88
    },
    {
      "midi": 60,
      "hit": false,
      "t": 8469.49695,
      "d": 359.75545000000056,
      "v": 100
    },
    {
      "midi": 41,
      "hit": false,
      "t": 8847.54505,
      "d": 2274.3861500000003,
      "v": 113
    },
    {
      "midi": 48,
      "hit": false,
      "t": 9207.300500000001,
      "d": 414.6333999999988,
      "v": 100
    },
    {
      "midi": 79,
      "hit": false,
      "t": 9554.860850000001,
      "d": 396.3407500000012,
      "v": 93
    },
    {
      "midi": 53,
      "hit": false,
      "t": 9573.1535,
      "d": 420.7309499999992,
      "v": 100
    },
    {
      "midi": 81,
      "hit": false,
      "t": 9914.616300000002,
      "d": 439.02360000000044,
      "v": 102
    },
    {
      "midi": 48,
      "hit": false,
      "t": 9945.10405,
      "d": 1146.3394000000008,
      "v": 98
    },
    {
      "midi": 53,
      "hit": false,
      "t": 10280.469299999999,
      "d": 743.901100000001,
      "v": 102
    },
    {
      "midi": 84,
      "hit": false,
      "t": 10304.859500000002,
      "d": 737.8035499999987,
      "v": 102
    },
    {
      "midi": 55,
      "hit": false,
      "t": 10664.61495,
      "d": 414.6334000000006,
      "v": 96
    },
    {
      "midi": 86,
      "hit": false,
      "t": 10993.882650000001,
      "d": 420.7309499999992,
      "v": 100
    },
    {
      "midi": 57,
      "hit": false,
      "t": 11030.46795,
      "d": 390.2432000000008,
      "v": 96
    },
    {
      "midi": 60,
      "hit": false,
      "t": 11371.930750000001,
      "d": 249.99955000000045,
      "v": 96
    },
    {
      "midi": 83,
      "hit": false,
      "t": 11384.12585,
      "d": 1481.7046499999997,
      "v": 107
    },
    {
      "midi": 36,
      "hit": false,
      "t": 11756.076400000002,
      "d": 774.3888500000012,
      "v": 96
    },
    {
      "midi": 48,
      "hit": false,
      "t": 11762.173950000002,
      "d": 451.21869999999944,
      "v": 90
    },
    {
      "midi": 60,
      "hit": false,
      "t": 11786.564150000002,
      "d": 676.8280500000001,
      "v": 96
    },
    {
      "midi": 52,
      "hit": false,
      "t": 11786.564150000002,
      "d": 689.0231500000009,
      "v": 88
    },
    {
      "midi": 48,
      "hit": false,
      "t": 12469.489750000002,
      "d": 60.975500000000466,
      "v": 90
    },
    {
      "midi": 79,
      "hit": false,
      "t": 12841.4403,
      "d": 3402.4329000000016,
      "v": 102
    },
    {
      "midi": 59,
      "hit": false,
      "t": 12853.635400000003,
      "d": 1079.2663500000017,
      "v": 96
    },
    {
      "midi": 31,
      "hit": false,
      "t": 12859.732950000003,
      "d": 993.9006499999996,
      "v": 100
    },
    {
      "midi": 43,
      "hit": false,
      "t": 12859.732950000003,
      "d": 1030.4859500000002,
      "v": 98
    },
    {
      "midi": 55,
      "hit": false,
      "t": 12865.830500000004,
      "d": 1036.5835000000006,
      "v": 102
    },
    {
      "midi": 50,
      "hit": false,
      "t": 12865.830500000004,
      "d": 1042.681050000001,
      "v": 82
    },
    {
      "midi": 55,
      "hit": false,
      "t": 14664.607750000005,
      "d": 60.975500000000466,
      "v": 72
    },
    {
      "midi": 71,
      "hit": false,
      "t": 14676.802850000005,
      "d": 60.975500000000466,
      "v": 66
    },
    {
      "midi": 67,
      "hit": false,
      "t": 14701.193050000005,
      "d": 24.390199999999822,
      "v": 78
    },
    {
      "midi": 55,
      "hit": false,
      "t": 16121.922200000006,
      "d": 91.46325000000252,
      "v": 56
    },
    {
      "midi": 62,
      "hit": false,
      "t": 16134.117300000007,
      "d": 79.2681500000017,
      "v": 60
    },
    {
      "midi": 83,
      "hit": false,
      "t": 16134.117300000007,
      "d": 85.36570000000211,
      "v": 64
    },
    {
      "midi": 67,
      "hit": false,
      "t": 16140.214850000008,
      "d": 73.17060000000129,
      "v": 52
    },
    {
      "midi": 79,
      "hit": false,
      "t": 16146.312400000008,
      "d": 67.07305000000088,
      "v": 62
    },
    {
      "midi": 67,
      "hit": false,
      "t": 16152.409950000001,
      "d": 1384.1438500000004,
      "v": 96
    },
    {
      "midi": 74,
      "hit": false,
      "t": 16170.702600000008,
      "d": 36.58530000000064,
      "v": 37
    },
    {
      "midi": 55,
      "hit": false,
      "t": 17597.52930000001,
      "d": 1859.7527499999997,
      "v": 64
    },
    {
      "midi": 64,
      "hit": false,
      "t": 17597.52930000001,
      "d": 1871.9478500000005,
      "v": 85
    },
    {
      "midi": 48,
      "hit": false,
      "t": 17597.52930000001,
      "d": 1908.5331499999993,
      "v": 59
    },
    {
      "midi": 67,
      "hit": false,
      "t": 17597.52930000001,
      "d": 1908.5331499999993,
      "v": 96
    },
    {
      "midi": 60,
      "hit": false,
      "t": 17597.52930000001,
      "d": 1926.8257999999987,
      "v": 55
    },
    {
      "midi": 59,
      "hit": false,
      "t": 20121.915000000008,
      "d": 67.07304999999542,
      "v": 75
    },
    {
      "midi": 47,
      "hit": false,
      "t": 20128.012550000007,
      "d": 60.97549999999683,
      "v": 61
    },
    {
      "midi": 55,
      "hit": false,
      "t": 20134.110100000005,
      "d": 60.97549999999683,
      "v": 82
    },
    {
      "midi": 52,
      "hit": false,
      "t": 20493.865550000002,
      "d": 2054.8743499999982,
      "v": 82
    },
    {
      "midi": 57,
      "hit": false,
      "t": 20493.865550000002,
      "d": 2079.26455,
      "v": 64
    },
    {
      "midi": 45,
      "hit": false,
      "t": 20499.9631,
      "d": 2036.5816999999988,
      "v": 59
    },
    {
      "midi": 64,
      "hit": false,
      "t": 20499.9631,
      "d": 2146.3376000000026,
      "v": 90
    },
    {
      "midi": 60,
      "hit": false,
      "t": 20499.9631,
      "d": 2164.630250000002,
      "v": 78
    },
    {
      "midi": 43,
      "hit": false,
      "t": 23030.446350000002,
      "d": 73.17060000000129,
      "v": 55
    },
    {
      "midi": 55,
      "hit": false,
      "t": 23030.446350000002,
      "d": 79.26814999999988,
      "v": 62
    },
    {
      "midi": 52,
      "hit": false,
      "t": 23042.641450000003,
      "d": 60.975500000000466,
      "v": 62
    },
    {
      "midi": 48,
      "hit": false,
      "t": 23402.396900000003,
      "d": 451.2186999999976,
      "v": 64
    },
    {
      "midi": 53,
      "hit": false,
      "t": 23402.396900000003,
      "d": 469.51134999999704,
      "v": 57
    },
    {
      "midi": 57,
      "hit": false,
      "t": 23402.396900000003,
      "d": 1152.4369499999993,
      "v": 78
    },
    {
      "midi": 41,
      "hit": false,
      "t": 23408.494450000002,
      "d": 810.9741499999982,
      "v": 58
    },
    {
      "midi": 53,
      "hit": false,
      "t": 24164.590650000002,
      "d": 378.0481,
      "v": 82
    },
    {
      "midi": 48,
      "hit": false,
      "t": 24170.6882,
      "d": 371.9505500000014,
      "v": 78
    },
    {
      "midi": 41,
      "hit": false,
      "t": 24518.24855,
      "d": 54.877950000001874,
      "v": 82
    },
    {
      "midi": 38,
      "hit": false,
      "t": 24896.296650000004,
      "d": 725.6084499999924,
      "v": 75
    },
    {
      "midi": 65,
      "hit": false,
      "t": 24896.296650000004,
      "d": 725.6084499999924,
      "v": 88
    },
    {
      "midi": 50,
      "hit": false,
      "t": 24902.394200000002,
      "d": 420.7309499999974,
      "v": 59
    },
    {
      "midi": 57,
      "hit": false,
      "t": 24902.394200000002,
      "d": 707.3157999999967,
      "v": 63
    },
    {
      "midi": 45,
      "hit": false,
      "t": 24908.49175,
      "d": 420.7309499999974,
      "v": 75
    },
    {
      "midi": 62,
      "hit": false,
      "t": 24914.5893,
      "d": 701.2182499999981,
      "v": 100
    },
    {
      "midi": 50,
      "hit": false,
      "t": 25609.71,
      "d": 378.04809999999634,
      "v": 69
    },
    {
      "midi": 45,
      "hit": false,
      "t": 25628.002649999995,
      "d": 371.9505500000014,
      "v": 82
    },
    {
      "midi": 38,
      "hit": false,
      "t": 25963.367899999994,
      "d": 54.877950000001874,
      "v": 90
    },
    {
      "midi": 46,
      "hit": false,
      "t": 26353.611099999995,
      "d": 439.02360000000044,
      "v": 82
    },
    {
      "midi": 34,
      "hit": false,
      "t": 26365.806199999995,
      "d": 670.7305000000015,
      "v": 93
    },
    {
      "midi": 53,
      "hit": false,
      "t": 26365.806199999995,
      "d": 1060.9737000000023,
      "v": 78
    },
    {
      "midi": 62,
      "hit": false,
      "t": 26365.806199999995,
      "d": 1067.0712500000009,
      "v": 72
    },
    {
      "midi": 58,
      "hit": false,
      "t": 26371.903749999994,
      "d": 1067.0712500000009,
      "v": 97
    },
    {
      "midi": 46,
      "hit": false,
      "t": 27054.829349999996,
      "d": 384.14564999999857,
      "v": 97
    },
    {
      "midi": 34,
      "hit": false,
      "t": 27426.779899999998,
      "d": 54.877949999998236,
      "v": 74
    },
    {
      "midi": 31,
      "hit": false,
      "t": 27817.023099999995,
      "d": 365.8529999999955,
      "v": 88
    },
    {
      "midi": 43,
      "hit": false,
      "t": 27823.120649999993,
      "d": 402.438299999998,
      "v": 93
    },
    {
      "midi": 59,
      "hit": false,
      "t": 27829.218199999992,
      "d": 432.9260499999982,
      "v": 78
    },
    {
      "midi": 62,
      "hit": false,
      "t": 27829.218199999992,
      "d": 445.12114999999903,
      "v": 90
    },
    {
      "midi": 55,
      "hit": false,
      "t": 27835.31574999999,
      "d": 420.73095000000103,
      "v": 96
    },
    {
      "midi": 67,
      "hit": false,
      "t": 29262.142449999992,
      "d": 1786.5821499999947,
      "v": 100
    },
    {
      "midi": 48,
      "hit": false,
      "t": 29262.142449999992,
      "d": 1847.5576499999952,
      "v": 48
    },
    {
      "midi": 64,
      "hit": false,
      "t": 29268.23999999999,
      "d": 1804.8747999999978,
      "v": 88
    },
    {
      "midi": 55,
      "hit": false,
      "t": 29268.23999999999,
      "d": 1835.362549999998,
      "v": 63
    },
    {
      "midi": 60,
      "hit": false,
      "t": 29268.23999999999,
      "d": 1835.362549999998,
      "v": 51
    },
    {
      "midi": 48,
      "hit": false,
      "t": 31493.845749999986,
      "d": 109.75590000000011,
      "v": 57
    },
    {
      "midi": 64,
      "hit": false,
      "t": 31493.845749999986,
      "d": 152.43874999999753,
      "v": 85
    },
    {
      "midi": 67,
      "hit": false,
      "t": 31493.845749999986,
      "d": 2536.5807999999815,
      "v": 100
    },
    {
      "midi": 60,
      "hit": false,
      "t": 31512.138399999985,
      "d": 97.56079999999929,
      "v": 62
    },
    {
      "midi": 55,
      "hit": false,
      "t": 31518.235949999984,
      "d": 73.17060000000129,
      "v": 82
    },
    {
      "midi": 47,
      "hit": false,
      "t": 31865.796299999984,
      "d": 85.3656999999912,
      "v": 61
    },
    {
      "midi": 59,
      "hit": false,
      "t": 31871.893849999982,
      "d": 60.97549999999683,
      "v": 66
    },
    {
      "midi": 62,
      "hit": false,
      "t": 31871.893849999982,
      "d": 73.17059999999401,
      "v": 85
    },
    {
      "midi": 55,
      "hit": false,
      "t": 31877.99139999998,
      "d": 60.97549999999683,
      "v": 82
    },
    {
      "midi": 45,
      "hit": false,
      "t": 32225.551749999973,
      "d": 1792.679699999997,
      "v": 69
    },
    {
      "midi": 57,
      "hit": false,
      "t": 32225.551749999973,
      "d": 1829.2649999999885,
      "v": 61
    },
    {
      "midi": 60,
      "hit": false,
      "t": 32231.649299999972,
      "d": 1780.4845999999998,
      "v": 90
    },
    {
      "midi": 52,
      "hit": false,
      "t": 32231.649299999972,
      "d": 1810.9723499999927,
      "v": 75
    },
    {
      "midi": 60,
      "hit": false,
      "t": 34426.76729999996,
      "d": 384.1456499999913,
      "v": 88
    },
    {
      "midi": 57,
      "hit": false,
      "t": 34438.96239999996,
      "d": 85.36569999999483,
      "v": 69
    },
    {
      "midi": 45,
      "hit": false,
      "t": 34438.96239999996,
      "d": 91.46324999999342,
      "v": 68
    },
    {
      "midi": 52,
      "hit": false,
      "t": 34445.05994999996,
      "d": 85.36569999999483,
      "v": 88
    },
    {
      "midi": 52,
      "hit": false,
      "t": 34774.327649999956,
      "d": 67.07304999999906,
      "v": 72
    },
    {
      "midi": 55,
      "hit": false,
      "t": 34774.327649999956,
      "d": 67.07304999999906,
      "v": 85
    },
    {
      "midi": 59,
      "hit": false,
      "t": 34774.327649999956,
      "d": 445.12114999999176,
      "v": 90
    },
    {
      "midi": 43,
      "hit": false,
      "t": 34780.425199999954,
      "d": 73.17059999999765,
      "v": 78
    },
    {
      "midi": 53,
      "hit": false,
      "t": 35152.37574999995,
      "d": 445.12114999999903,
      "v": 75
    },
    {
      "midi": 48,
      "hit": false,
      "t": 35152.37574999995,
      "d": 481.70644999999786,
      "v": 75
    },
    {
      "midi": 41,
      "hit": false,
      "t": 35152.37574999995,
      "d": 780.4863999999943,
      "v": 88
    },
    {
      "midi": 57,
      "hit": false,
      "t": 35164.570849999945,
      "d": 1134.1442999999927,
      "v": 75
    },
    {
      "midi": 53,
      "hit": false,
      "t": 35932.86214999994,
      "d": 359.7554499999969,
      "v": 93
    },
    {
      "midi": 48,
      "hit": false,
      "t": 35938.95969999994,
      "d": 365.8529999999955,
      "v": 72
    },
    {
      "midi": 41,
      "hit": false,
      "t": 36268.22739999994,
      "d": 67.07304999999906,
      "v": 93
    },
    {
      "midi": 38,
      "hit": false,
      "t": 36658.470599999935,
      "d": 768.2912999999971,
      "v": 72
    },
    {
      "midi": 65,
      "hit": false,
      "t": 36658.470599999935,
      "d": 780.4863999999943,
      "v": 96
    },
    {
      "midi": 57,
      "hit": false,
      "t": 36658.470599999935,
      "d": 829.2667999999976,
      "v": 75
    },
    {
      "midi": 50,
      "hit": false,
      "t": 36664.568149999934,
      "d": 414.6333999999988,
      "v": 63
    },
    {
      "midi": 45,
      "hit": false,
      "t": 36670.66569999993,
      "d": 365.8530000000028,
      "v": 66
    },
    {
      "midi": 62,
      "hit": false,
      "t": 36670.66569999993,
      "d": 823.169249999999,
      "v": 93
    },
    {
      "midi": 50,
      "hit": false,
      "t": 37359.68884999993,
      "d": 353.65789999999834,
      "v": 63
    },
    {
      "midi": 45,
      "hit": false,
      "t": 37365.78639999993,
      "d": 359.7554499999969,
      "v": 69
    },
    {
      "midi": 38,
      "hit": false,
      "t": 37688.95654999993,
      "d": 54.877950000001874,
      "v": 78
    },
    {
      "midi": 58,
      "hit": false,
      "t": 38067.00464999993,
      "d": 1140.2418499999985,
      "v": 71
    },
    {
      "midi": 62,
      "hit": false,
      "t": 38073.10219999993,
      "d": 1115.8516499999969,
      "v": 72
    },
    {
      "midi": 46,
      "hit": false,
      "t": 38079.19974999993,
      "d": 408.5358500000002,
      "v": 93
    },
    {
      "midi": 53,
      "hit": false,
      "t": 38079.19974999993,
      "d": 1091.4614499999952,
      "v": 75
    },
    {
      "midi": 34,
      "hit": false,
      "t": 38085.297299999926,
      "d": 743.9010999999955,
      "v": 100
    },
    {
      "midi": 46,
      "hit": false,
      "t": 38786.515549999924,
      "d": 420.73095000000467,
      "v": 84
    },
    {
      "midi": 34,
      "hit": false,
      "t": 39170.66119999992,
      "d": 60.97550000000774,
      "v": 54
    },
    {
      "midi": 43,
      "hit": false,
      "t": 39536.51419999993,
      "d": 451.21869999999035,
      "v": 63
    },
    {
      "midi": 59,
      "hit": false,
      "t": 39536.51419999993,
      "d": 1109.7540999999837,
      "v": 72
    },
    {
      "midi": 31,
      "hit": false,
      "t": 39542.61174999993,
      "d": 762.1937499999913,
      "v": 69
    },
    {
      "midi": 62,
      "hit": false,
      "t": 39542.61174999993,
      "d": 1128.0467499999795,
      "v": 93
    },
    {
      "midi": 55,
      "hit": false,
      "t": 39548.70929999993,
      "d": 1060.9736999999877,
      "v": 88
    },
    {
      "midi": 43,
      "hit": false,
      "t": 40249.92754999992,
      "d": 420.7309499999901,
      "v": 88
    },
    {
      "midi": 31,
      "hit": false,
      "t": 40603.58544999992,
      "d": 54.8779499999946,
      "v": 72
    },
    {
      "midi": 76,
      "hit": false,
      "t": 40987.731100000005,
      "d": 189.02405,
      "v": 98
    },
    {
      "midi": 57,
      "hit": false,
      "t": 41018.21884999991,
      "d": 1963.4110999999975,
      "v": 102
    },
    {
      "midi": 41,
      "hit": false,
      "t": 41030.41394999991,
      "d": 749.9986500000014,
      "v": 96
    },
    {
      "midi": 76,
      "hit": false,
      "t": 41384.07185000001,
      "d": 146.34120000000257,
      "v": 93
    },
    {
      "midi": 76,
      "hit": false,
      "t": 41737.72975000001,
      "d": 189.02405,
      "v": 100
    },
    {
      "midi": 53,
      "hit": false,
      "t": 41749.92484999991,
      "d": 432.92605000000185,
      "v": 82
    },
    {
      "midi": 48,
      "hit": false,
      "t": 41756.02239999991,
      "d": 414.6334000000061,
      "v": 78
    },
    {
      "midi": 77,
      "hit": false,
      "t": 41908.46115000001,
      "d": 219.51180000000022,
      "v": 88
    },
    {
      "midi": 41,
      "hit": false,
      "t": 42085.29009999991,
      "d": 85.36570000000211,
      "v": 75
    },
    {
      "midi": 76,
      "hit": false,
      "t": 42091.38765000001,
      "d": 231.7068999999974,
      "v": 93
    },
    {
      "midi": 72,
      "hit": false,
      "t": 42280.41170000001,
      "d": 615.852549999996,
      "v": 90
    },
    {
      "midi": 41,
      "hit": false,
      "t": 42457.24064999991,
      "d": 780.486399999987,
      "v": 78
    },
    {
      "midi": 48,
      "hit": false,
      "t": 42463.33819999991,
      "d": 420.7309499999974,
      "v": 61
    },
    {
      "midi": 53,
      "hit": false,
      "t": 42463.33819999991,
      "d": 420.7309499999974,
      "v": 78
    },
    {
      "midi": 69,
      "hit": false,
      "t": 42853.58140000001,
      "d": 701.2182499999981,
      "v": 93
    },
    {
      "midi": 57,
      "hit": false,
      "t": 43176.751549999906,
      "d": 176.82894999999553,
      "v": 64
    },
    {
      "midi": 53,
      "hit": false,
      "t": 43188.9466499999,
      "d": 371.9505500000014,
      "v": 82
    },
    {
      "midi": 48,
      "hit": false,
      "t": 43195.0441999999,
      "d": 371.9505500000014,
      "v": 78
    },
    {
      "midi": 59,
      "hit": false,
      "t": 43316.9951999999,
      "d": 249.99955000000045,
      "v": 68
    },
    {
      "midi": 72,
      "hit": false,
      "t": 43524.31190000001,
      "d": 420.73095000000467,
      "v": 85
    },
    {
      "midi": 41,
      "hit": false,
      "t": 43530.409449999905,
      "d": 67.07304999999906,
      "v": 82
    },
    {
      "midi": 60,
      "hit": false,
      "t": 43530.409449999905,
      "d": 414.6333999999915,
      "v": 88
    },
    {
      "midi": 55,
      "hit": false,
      "t": 43896.2624499999,
      "d": 2256.0935000000027,
      "v": 96
    },
    {
      "midi": 74,
      "hit": false,
      "t": 43896.26245000001,
      "d": 158.53629999999976,
      "v": 100
    },
    {
      "midi": 36,
      "hit": false,
      "t": 43902.3599999999,
      "d": 835.3643499999962,
      "v": 78
    },
    {
      "midi": 48,
      "hit": false,
      "t": 43908.4575499999,
      "d": 451.2186999999976,
      "v": 63
    },
    {
      "midi": 43,
      "hit": false,
      "t": 43914.555099999896,
      "d": 469.5113500000007,
      "v": 88
    },
    {
      "midi": 74,
      "hit": false,
      "t": 44249.92035000001,
      "d": 182.9265000000014,
      "v": 90
    },
    {
      "midi": 74,
      "hit": false,
      "t": 44621.87090000001,
      "d": 195.12160000000586,
      "v": 93
    },
    {
      "midi": 48,
      "hit": false,
      "t": 44676.748849999894,
      "d": 536.584400000007,
      "v": 78
    },
    {
      "midi": 43,
      "hit": false,
      "t": 44688.94394999989,
      "d": 506.0966500000068,
      "v": 85
    },
    {
      "midi": 76,
      "hit": false,
      "t": 44798.69985000001,
      "d": 219.51180000000022,
      "v": 88
    },
    {
      "midi": 74,
      "hit": false,
      "t": 44975.528800000015,
      "d": 231.7068999999974,
      "v": 85
    },
    {
      "midi": 36,
      "hit": false,
      "t": 45048.699399999896,
      "d": 97.56079999999929,
      "v": 75
    },
    {
      "midi": 67,
      "hit": false,
      "t": 45188.94305000001,
      "d": 634.145199999999,
      "v": 105
    },
    {
      "midi": 36,
      "hit": false,
      "t": 45420.649949999904,
      "d": 768.2912999999971,
      "v": 75
    },
    {
      "midi": 48,
      "hit": false,
      "t": 45426.7474999999,
      "d": 414.6333999999988,
      "v": 66
    },
    {
      "midi": 43,
      "hit": false,
      "t": 45432.8450499999,
      "d": 390.24319999999716,
      "v": 75
    },
    {
      "midi": 64,
      "hit": false,
      "t": 45786.50295000001,
      "d": 725.6084499999997,
      "v": 98
    },
    {
      "midi": 57,
      "hit": false,
      "t": 46115.770649999904,
      "d": 237.804449999996,
      "v": 78
    },
    {
      "midi": 48,
      "hit": false,
      "t": 46127.9657499999,
      "d": 432.9260499999873,
      "v": 75
    },
    {
      "midi": 43,
      "hit": false,
      "t": 46146.258399999904,
      "d": 384.1456499999913,
      "v": 88
    },
    {
      "midi": 59,
      "hit": false,
      "t": 46298.6971499999,
      "d": 249.99954999999318,
      "v": 75
    },
    {
      "midi": 67,
      "hit": false,
      "t": 46469.42855000001,
      "d": 402.43829999999434,
      "v": 98
    },
    {
      "midi": 36,
      "hit": false,
      "t": 46481.6236499999,
      "d": 54.8779499999946,
      "v": 88
    },
    {
      "midi": 60,
      "hit": false,
      "t": 46487.7211999999,
      "d": 402.43829999999434,
      "v": 98
    },
    {
      "midi": 57,
      "hit": false,
      "t": 46835.28154999989,
      "d": 1914.6306999999797,
      "v": 98
    },
    {
      "midi": 41,
      "hit": false,
      "t": 46841.37909999989,
      "d": 756.0962,
      "v": 85
    },
    {
      "midi": 76,
      "hit": false,
      "t": 46841.379100000006,
      "d": 847.5594500000007,
      "v": 78
    },
    {
      "midi": 53,
      "hit": false,
      "t": 46865.76929999989,
      "d": 432.92605000000185,
      "v": 75
    },
    {
      "midi": 48,
      "hit": false,
      "t": 46865.76929999989,
      "d": 439.02360000000044,
      "v": 66
    },
    {
      "midi": 53,
      "hit": false,
      "t": 47591.37774999989,
      "d": 439.02359999999317,
      "v": 82
    },
    {
      "midi": 48,
      "hit": false,
      "t": 47597.47529999989,
      "d": 439.02359999999317,
      "v": 64
    },
    {
      "midi": 76,
      "hit": false,
      "t": 47938.93810000001,
      "d": 1109.7541000000056,
      "v": 100
    },
    {
      "midi": 41,
      "hit": false,
      "t": 47945.03564999989,
      "d": 73.17059999999765,
      "v": 66
    },
    {
      "midi": 53,
      "hit": false,
      "t": 48298.69354999988,
      "d": 457.31624999998894,
      "v": 72
    },
    {
      "midi": 48,
      "hit": false,
      "t": 48304.79109999988,
      "d": 439.02359999999317,
      "v": 69
    },
    {
      "midi": 41,
      "hit": false,
      "t": 48304.79109999988,
      "d": 762.1937499999913,
      "v": 72
    },
    {
      "midi": 74,
      "hit": false,
      "t": 48999.91180000001,
      "d": 237.80445000000327,
      "v": 96
    },
    {
      "midi": 57,
      "hit": false,
      "t": 49024.30199999987,
      "d": 231.7068999999974,
      "v": 90
    },
    {
      "midi": 53,
      "hit": false,
      "t": 49030.39954999987,
      "d": 384.14564999999857,
      "v": 64
    },
    {
      "midi": 48,
      "hit": false,
      "t": 49036.49709999987,
      "d": 323.1701499999981,
      "v": 75
    },
    {
      "midi": 72,
      "hit": false,
      "t": 49182.83830000001,
      "d": 634.1452000000063,
      "v": 96
    },
    {
      "midi": 59,
      "hit": false,
      "t": 49188.93584999987,
      "d": 274.3897499999948,
      "v": 78
    },
    {
      "midi": 60,
      "hit": false,
      "t": 49390.15499999987,
      "d": 402.43829999999434,
      "v": 98
    },
    {
      "midi": 41,
      "hit": false,
      "t": 49396.25254999987,
      "d": 54.877950000001874,
      "v": 85
    },
    {
      "midi": 74,
      "hit": false,
      "t": 49762.105550000015,
      "d": 1774.3870500000048,
      "v": 107
    },
    {
      "midi": 48,
      "hit": false,
      "t": 49768.20309999987,
      "d": 323.1701499999981,
      "v": 68
    },
    {
      "midi": 55,
      "hit": false,
      "t": 49768.20309999987,
      "d": 487.80399999999645,
      "v": 98
    },
    {
      "midi": 36,
      "hit": false,
      "t": 49768.20309999987,
      "d": 743.9010999999955,
      "v": 78
    },
    {
      "midi": 43,
      "hit": false,
      "t": 49780.398199999865,
      "d": 353.65789999999834,
      "v": 88
    },
    {
      "midi": 48,
      "hit": false,
      "t": 50451.12869999986,
      "d": 475.60889999999927,
      "v": 68
    },
    {
      "midi": 43,
      "hit": false,
      "t": 50463.32379999986,
      "d": 463.4138000000021,
      "v": 82
    },
    {
      "midi": 36,
      "hit": false,
      "t": 50810.88414999986,
      "d": 91.4632500000007,
      "v": 82
    },
    {
      "midi": 36,
      "hit": false,
      "t": 51201.127349999864,
      "d": 103.65834999999788,
      "v": 96
    },
    {
      "midi": 48,
      "hit": false,
      "t": 51201.127349999864,
      "d": 146.3411999999953,
      "v": 96
    },
    {
      "midi": 43,
      "hit": false,
      "t": 51207.22489999986,
      "d": 103.65834999999788,
      "v": 98
    },
    {
      "midi": 60,
      "hit": false,
      "t": 51926.73579999986,
      "d": 384.14564999999857,
      "v": 88
    },
    {
      "midi": 64,
      "hit": false,
      "t": 51938.930899999854,
      "d": 79.26814999999624,
      "v": 90
    },
    {
      "midi": 67,
      "hit": false,
      "t": 51938.930899999854,
      "d": 91.46324999999342,
      "v": 105
    },
    {
      "midi": 72,
      "hit": false,
      "t": 51938.930899999854,
      "d": 115.85344999999506,
      "v": 96
    },
    {
      "midi": 55,
      "hit": false,
      "t": 51945.02844999985,
      "d": 384.14565000000584,
      "v": 88
    },
    {
      "midi": 48,
      "hit": false,
      "t": 52292.58879999985,
      "d": 67.07305000000633,
      "v": 66
    },
    {
      "midi": 41,
      "hit": false,
      "t": 52695.02709999986,
      "d": 786.5839500000002,
      "v": 100
    },
    {
      "midi": 69,
      "hit": false,
      "t": 52695.02709999986,
      "d": 920.7300500000056,
      "v": 102
    },
    {
      "midi": 60,
      "hit": false,
      "t": 52695.02709999986,
      "d": 999.9982000000091,
      "v": 90
    },
    {
      "midi": 53,
      "hit": false,
      "t": 52701.12464999986,
      "d": 378.0481,
      "v": 93
    },
    {
      "midi": 48,
      "hit": false,
      "t": 52701.12464999986,
      "d": 396.340750000003,
      "v": 72
    },
    {
      "midi": 65,
      "hit": false,
      "t": 52701.12464999986,
      "d": 896.3398500000039,
      "v": 98
    },
    {
      "midi": 53,
      "hit": false,
      "t": 53438.928199999864,
      "d": 420.73095000000467,
      "v": 93
    },
    {
      "midi": 48,
      "hit": false,
      "t": 53445.02574999986,
      "d": 439.0236000000077,
      "v": 82
    },
    {
      "midi": 41,
      "hit": false,
      "t": 53792.58609999987,
      "d": 73.17059999999765,
      "v": 88
    },
    {
      "midi": 48,
      "hit": false,
      "t": 54164.53664999987,
      "d": 384.14564999999857,
      "v": 69
    },
    {
      "midi": 53,
      "hit": false,
      "t": 54164.53664999987,
      "d": 469.5113500000007,
      "v": 82
    },
    {
      "midi": 41,
      "hit": false,
      "t": 54164.53664999987,
      "d": 786.5839500000002,
      "v": 78
    },
    {
      "midi": 69,
      "hit": false,
      "t": 54170.63419999987,
      "d": 1128.046749999994,
      "v": 100
    },
    {
      "midi": 60,
      "hit": false,
      "t": 54176.73174999987,
      "d": 1091.4614500000025,
      "v": 85
    },
    {
      "midi": 65,
      "hit": false,
      "t": 54176.73174999987,
      "d": 1097.559000000001,
      "v": 93
    },
    {
      "midi": 53,
      "hit": false,
      "t": 54884.04754999987,
      "d": 396.34074999999575,
      "v": 82
    },
    {
      "midi": 48,
      "hit": false,
      "t": 54890.14509999987,
      "d": 396.34074999999575,
      "v": 85
    },
    {
      "midi": 41,
      "hit": false,
      "t": 55255.99809999987,
      "d": 60.97549999999319,
      "v": 93
    },
    {
      "midi": 48,
      "hit": false,
      "t": 55627.94864999987,
      "d": 310.9750500000009,
      "v": 55
    },
    {
      "midi": 36,
      "hit": false,
      "t": 55634.046199999866,
      "d": 274.3897500000021,
      "v": 88
    },
    {
      "midi": 71,
      "hit": false,
      "t": 55634.046199999866,
      "d": 1128.046749999994,
      "v": 100
    },
    {
      "midi": 64,
      "hit": false,
      "t": 55640.143749999865,
      "d": 1085.3638999999966,
      "v": 98
    },
    {
      "midi": 60,
      "hit": false,
      "t": 56329.166899999866,
      "d": 457.31624999998894,
      "v": 88
    },
    {
      "midi": 55,
      "hit": false,
      "t": 56341.36199999986,
      "d": 439.02359999999317,
      "v": 93
    },
    {
      "midi": 48,
      "hit": false,
      "t": 56695.01989999986,
      "d": 79.26814999999624,
      "v": 78
    },
    {
      "midi": 55,
      "hit": false,
      "t": 57066.970449999855,
      "d": 420.7309499999974,
      "v": 69
    },
    {
      "midi": 48,
      "hit": false,
      "t": 57066.970449999855,
      "d": 762.1937499999985,
      "v": 63
    },
    {
      "midi": 67,
      "hit": false,
      "t": 57073.067999999854,
      "d": 1121.9491999999955,
      "v": 102
    },
    {
      "midi": 60,
      "hit": false,
      "t": 57079.16554999985,
      "d": 439.02360000000044,
      "v": 66
    },
    {
      "midi": 64,
      "hit": false,
      "t": 57079.16554999985,
      "d": 1103.6565499999997,
      "v": 98
    },
    {
      "midi": 60,
      "hit": false,
      "t": 57768.18869999985,
      "d": 439.02359999999317,
      "v": 85
    },
    {
      "midi": 55,
      "hit": false,
      "t": 57774.28624999985,
      "d": 451.2186999999976,
      "v": 93
    },
    {
      "midi": 48,
      "hit": false,
      "t": 58170.626999999855,
      "d": 85.36569999999483,
      "v": 90
    },
    {
      "midi": 60,
      "hit": false,
      "t": 58573.06529999985,
      "d": 1164.632049999993,
      "v": 90
    },
    {
      "midi": 41,
      "hit": false,
      "t": 58579.16284999985,
      "d": 762.1937499999985,
      "v": 93
    },
    {
      "midi": 48,
      "hit": false,
      "t": 58585.26039999985,
      "d": 402.4383000000016,
      "v": 68
    },
    {
      "midi": 53,
      "hit": false,
      "t": 58585.26039999985,
      "d": 445.12114999999903,
      "v": 88
    },
    {
      "midi": 53,
      "hit": false,
      "t": 59298.67374999985,
      "d": 432.9260499999946,
      "v": 82
    },
    {
      "midi": 48,
      "hit": false,
      "t": 59310.868849999846,
      "d": 408.5358500000002,
      "v": 88
    },
    {
      "midi": 41,
      "hit": false,
      "t": 59664.526749999844,
      "d": 73.17059999999765,
      "v": 96
    },
    {
      "midi": 69,
      "hit": false,
      "t": 59670.62429999984,
      "d": 85.36570000000211,
      "v": 75
    },
    {
      "midi": 55,
      "hit": false,
      "t": 60012.087099999844,
      "d": 390.2431999999899,
      "v": 93
    },
    {
      "midi": 50,
      "hit": false,
      "t": 60018.18464999984,
      "d": 384.1456499999913,
      "v": 72
    },
    {
      "midi": 67,
      "hit": false,
      "t": 60018.18464999984,
      "d": 737.8035499999824,
      "v": 105
    },
    {
      "midi": 43,
      "hit": false,
      "t": 60018.18464999984,
      "d": 743.9010999999809,
      "v": 93
    },
    {
      "midi": 59,
      "hit": false,
      "t": 60018.18464999984,
      "d": 1091.4614499999734,
      "v": 72
    },
    {
      "midi": 62,
      "hit": false,
      "t": 60024.28219999984,
      "d": 201.21914999999717,
      "v": 96
    },
    {
      "midi": 62,
      "hit": false,
      "t": 60359.64744999984,
      "d": 774.3888499999812,
      "v": 90
    },
    {
      "midi": 64,
      "hit": false,
      "t": 60719.40289999983,
      "d": 475.6088999999847,
      "v": 90
    },
    {
      "midi": 55,
      "hit": false,
      "t": 60731.59799999983,
      "d": 396.3407499999885,
      "v": 78
    },
    {
      "midi": 50,
      "hit": false,
      "t": 60743.79309999983,
      "d": 390.2431999999899,
      "v": 82
    },
    {
      "midi": 43,
      "hit": false,
      "t": 61091.35344999982,
      "d": 73.17059999999765,
      "v": 93
    },
    {
      "midi": 65,
      "hit": false,
      "t": 61097.45099999982,
      "d": 445.12114999999903,
      "v": 102
    },
    {
      "midi": 60,
      "hit": false,
      "t": 61475.49909999982,
      "d": 1481.704650000007,
      "v": 85
    },
    {
      "midi": 64,
      "hit": false,
      "t": 61475.49909999982,
      "d": 1493.8997500000041,
      "v": 102
    },
    {
      "midi": 36,
      "hit": false,
      "t": 61481.59664999982,
      "d": 774.388850000003,
      "v": 93
    },
    {
      "midi": 67,
      "hit": false,
      "t": 61481.59664999982,
      "d": 1512.1924000000072,
      "v": 110
    },
    {
      "midi": 48,
      "hit": false,
      "t": 61487.694199999816,
      "d": 298.77995000000374,
      "v": 85
    },
    {
      "midi": 48,
      "hit": false,
      "t": 62225.49774999982,
      "d": 54.877950000001874,
      "v": 85
    },
    {
      "midi": 46,
      "hit": false,
      "t": 62591.35074999982,
      "d": 335.36525000000256,
      "v": 103
    },
    {
      "midi": 36,
      "hit": false,
      "t": 62603.54584999982,
      "d": 274.3897500000021,
      "v": 98
    },
    {
      "midi": 58,
      "hit": false,
      "t": 63688.909749999824,
      "d": 225.6093499999988,
      "v": 93
    },
    {
      "midi": 69,
      "hit": false,
      "t": 63695.00729999982,
      "d": 414.6333999999988,
      "v": 100
    },
    {
      "midi": 55,
      "hit": false,
      "t": 63713.299949999826,
      "d": 335.3652499999953,
      "v": 88
    },
    {
      "midi": 48,
      "hit": false,
      "t": 64054.76274999982,
      "d": 36.585299999998824,
      "v": 58
    },
    {
      "midi": 71,
      "hit": false,
      "t": 64066.95784999982,
      "d": 60.97550000000774,
      "v": 88
    },
    {
      "midi": 69,
      "hit": false,
      "t": 64426.71329999982,
      "d": 1158.5345000000016,
      "v": 96
    },
    {
      "midi": 41,
      "hit": false,
      "t": 64432.81084999982,
      "d": 286.5848499999993,
      "v": 96
    },
    {
      "midi": 48,
      "hit": false,
      "t": 64432.81084999982,
      "d": 286.5848499999993,
      "v": 75
    },
    {
      "midi": 65,
      "hit": false,
      "t": 64432.81084999982,
      "d": 457.3162499999962,
      "v": 96
    },
    {
      "midi": 72,
      "hit": false,
      "t": 64432.81084999982,
      "d": 1152.436950000003,
      "v": 98
    },
    {
      "midi": 53,
      "hit": false,
      "t": 64438.90839999982,
      "d": 323.1701499999981,
      "v": 88
    },
    {
      "midi": 65,
      "hit": false,
      "t": 65170.61439999982,
      "d": 396.340750000003,
      "v": 93
    },
    {
      "midi": 60,
      "hit": false,
      "t": 65170.61439999982,
      "d": 445.1211500000063,
      "v": 90
    },
    {
      "midi": 53,
      "hit": false,
      "t": 65530.36984999981,
      "d": 79.26815000000352,
      "v": 72
    },
    {
      "midi": 72,
      "hit": false,
      "t": 65877.93019999983,
      "d": 1067.071249999979,
      "v": 93
    },
    {
      "midi": 65,
      "hit": false,
      "t": 65884.02774999983,
      "d": 384.1456499999913,
      "v": 90
    },
    {
      "midi": 69,
      "hit": false,
      "t": 65884.02774999983,
      "d": 1036.5834999999788,
      "v": 93
    },
    {
      "midi": 60,
      "hit": false,
      "t": 65890.12529999984,
      "d": 365.85299999998824,
      "v": 78
    },
    {
      "midi": 53,
      "hit": false,
      "t": 65902.32039999984,
      "d": 768.2912999999826,
      "v": 75
    },
    {
      "midi": 65,
      "hit": false,
      "t": 66609.63619999982,
      "d": 335.365249999988,
      "v": 88
    },
    {
      "midi": 60,
      "hit": false,
      "t": 66615.73374999982,
      "d": 365.85299999998824,
      "v": 90
    },
    {
      "midi": 53,
      "hit": false,
      "t": 66945.0014499998,
      "d": 67.07305000000633,
      "v": 88
    },
    {
      "midi": 60,
      "hit": false,
      "t": 67341.34219999981,
      "d": 469.5113500000007,
      "v": 69
    },
    {
      "midi": 48,
      "hit": false,
      "t": 67341.34219999981,
      "d": 762.1937499999913,
      "v": 78
    },
    {
      "midi": 71,
      "hit": false,
      "t": 67347.43974999982,
      "d": 1091.461449999988,
      "v": 85
    },
    {
      "midi": 67,
      "hit": false,
      "t": 67347.43974999982,
      "d": 1103.6565499999851,
      "v": 100
    },
    {
      "midi": 55,
      "hit": false,
      "t": 67353.53729999982,
      "d": 469.5113499999861,
      "v": 88
    },
    {
      "midi": 64,
      "hit": false,
      "t": 67353.53729999982,
      "d": 1097.5589999999793,
      "v": 90
    },
    {
      "midi": 60,
      "hit": false,
      "t": 68036.46289999981,
      "d": 463.4137999999948,
      "v": 72
    },
    {
      "midi": 55,
      "hit": false,
      "t": 68048.6579999998,
      "d": 451.2186999999976,
      "v": 93
    },
    {
      "midi": 48,
      "hit": false,
      "t": 68396.2183499998,
      "d": 97.56079999999201,
      "v": 75
    },
    {
      "midi": 48,
      "hit": false,
      "t": 68774.2664499998,
      "d": 804.8766000000178,
      "v": 63
    },
    {
      "midi": 60,
      "hit": false,
      "t": 68780.36399999981,
      "d": 445.1211500000063,
      "v": 64
    },
    {
      "midi": 67,
      "hit": false,
      "t": 68780.36399999981,
      "d": 1115.8516500000114,
      "v": 105
    },
    {
      "midi": 64,
      "hit": false,
      "t": 68786.46154999982,
      "d": 1109.7541000000056,
      "v": 85
    },
    {
      "midi": 55,
      "hit": false,
      "t": 68792.55909999982,
      "d": 439.02360000000044,
      "v": 90
    },
    {
      "midi": 60,
      "hit": false,
      "t": 69518.16754999982,
      "d": 378.0481,
      "v": 88
    },
    {
      "midi": 55,
      "hit": false,
      "t": 69530.36264999982,
      "d": 390.24319999999716,
      "v": 100
    },
    {
      "midi": 48,
      "hit": false,
      "t": 69877.92299999982,
      "d": 67.07304999999178,
      "v": 69
    },
    {
      "midi": 41,
      "hit": false,
      "t": 70280.36129999981,
      "d": 762.1937500000058,
      "v": 98
    },
    {
      "midi": 60,
      "hit": false,
      "t": 70280.36129999981,
      "d": 1115.8516499999969,
      "v": 98
    },
    {
      "midi": 53,
      "hit": false,
      "t": 70298.65394999982,
      "d": 67.07305000000633,
      "v": 42
    },
    {
      "midi": 53,
      "hit": false,
      "t": 70987.67709999983,
      "d": 408.53584999998566,
      "v": 93
    },
    {
      "midi": 48,
      "hit": false,
      "t": 70999.87219999982,
      "d": 359.7554499999969,
      "v": 88
    },
    {
      "midi": 41,
      "hit": false,
      "t": 71329.13989999982,
      "d": 54.8779499999946,
      "v": 93
    },
    {
      "midi": 69,
      "hit": false,
      "t": 71341.33499999982,
      "d": 79.26814999998896,
      "v": 100
    },
    {
      "midi": 67,
      "hit": false,
      "t": 71719.3830999998,
      "d": 719.510900000023,
      "v": 107
    },
    {
      "midi": 53,
      "hit": false,
      "t": 71719.3830999998,
      "d": 737.803550000026,
      "v": 93
    },
    {
      "midi": 43,
      "hit": false,
      "t": 71719.3830999998,
      "d": 756.0962000000291,
      "v": 98
    },
    {
      "midi": 62,
      "hit": false,
      "t": 71725.48064999981,
      "d": 286.58485000001383,
      "v": 102
    },
    {
      "midi": 50,
      "hit": false,
      "t": 71725.48064999981,
      "d": 719.510900000023,
      "v": 88
    },
    {
      "midi": 59,
      "hit": false,
      "t": 71725.48064999981,
      "d": 756.0962000000291,
      "v": 88
    },
    {
      "midi": 62,
      "hit": false,
      "t": 72103.52874999982,
      "d": 445.12115000002086,
      "v": 75
    },
    {
      "midi": 64,
      "hit": false,
      "t": 72475.47929999983,
      "d": 201.219150000019,
      "v": 105
    },
    {
      "midi": 67,
      "hit": false,
      "t": 72627.91804999985,
      "d": 621.9501000000018,
      "v": 113
    },
    {
      "midi": 36,
      "hit": false,
      "t": 73201.08774999985,
      "d": 91.4632500000007,
      "v": 96
    },
    {
      "midi": 60,
      "hit": false,
      "t": 73201.08774999985,
      "d": 256.09709999999905,
      "v": 93
    },
    {
      "midi": 48,
      "hit": false,
      "t": 73207.18529999985,
      "d": 103.65834999999788,
      "v": 88
    },
    {
      "midi": 43,
      "hit": false,
      "t": 73219.38039999985,
      "d": 79.26815000000352,
      "v": 105
    },
    {
      "midi": 60,
      "hit": false,
      "t": 73932.79374999985,
      "d": 408.5358500000002,
      "v": 96
    },
    {
      "midi": 55,
      "hit": false,
      "t": 73938.89129999986,
      "d": 396.3407499999885,
      "v": 98
    },
    {
      "midi": 48,
      "hit": false,
      "t": 74310.84184999985,
      "d": 54.8779499999946,
      "v": 37
    },
    {
      "midi": 43,
      "hit": false,
      "t": 74688.88994999985,
      "d": 670.7304999999906,
      "v": 96
    },
    {
      "midi": 67,
      "hit": false,
      "t": 74688.88994999985,
      "d": 701.2182499999908,
      "v": 105
    },
    {
      "midi": 53,
      "hit": false,
      "t": 74688.88994999985,
      "d": 731.705999999991,
      "v": 93
    },
    {
      "midi": 59,
      "hit": false,
      "t": 74694.98749999986,
      "d": 664.6329499999847,
      "v": 88
    },
    {
      "midi": 62,
      "hit": false,
      "t": 74694.98749999986,
      "d": 695.1206999999849,
      "v": 100
    },
    {
      "midi": 50,
      "hit": false,
      "t": 74694.98749999986,
      "d": 701.2182499999908,
      "v": 82
    },
    {
      "midi": 55,
      "hit": false,
      "t": 76134.00929999985,
      "d": 1859.7527499999997,
      "v": 64
    },
    {
      "midi": 64,
      "hit": false,
      "t": 76134.00929999985,
      "d": 1871.9478499999968,
      "v": 85
    },
    {
      "midi": 48,
      "hit": false,
      "t": 76134.00929999985,
      "d": 1908.533150000003,
      "v": 59
    },
    {
      "midi": 67,
      "hit": false,
      "t": 76134.00929999985,
      "d": 1908.533150000003,
      "v": 96
    },
    {
      "midi": 60,
      "hit": false,
      "t": 76134.00929999985,
      "d": 1926.825800000006,
      "v": 55
    },
    {
      "midi": 59,
      "hit": false,
      "t": 78658.39499999984,
      "d": 67.07305000000633,
      "v": 75
    },
    {
      "midi": 47,
      "hit": false,
      "t": 78664.49254999985,
      "d": 60.975500000000466,
      "v": 61
    },
    {
      "midi": 55,
      "hit": false,
      "t": 78670.59009999986,
      "d": 60.975500000000466,
      "v": 82
    },
    {
      "midi": 52,
      "hit": false,
      "t": 79030.34554999985,
      "d": 2054.8743499999982,
      "v": 82
    },
    {
      "midi": 57,
      "hit": false,
      "t": 79030.34554999985,
      "d": 2079.2645499999926,
      "v": 64
    },
    {
      "midi": 45,
      "hit": false,
      "t": 79036.44309999986,
      "d": 2036.5816999999952,
      "v": 59
    },
    {
      "midi": 64,
      "hit": false,
      "t": 79036.44309999986,
      "d": 2146.3375999999844,
      "v": 90
    },
    {
      "midi": 60,
      "hit": false,
      "t": 79036.44309999986,
      "d": 2164.6302499999874,
      "v": 78
    },
    {
      "midi": 43,
      "hit": false,
      "t": 81566.92634999985,
      "d": 73.17059999999765,
      "v": 55
    },
    {
      "midi": 55,
      "hit": false,
      "t": 81566.92634999985,
      "d": 79.26815000000352,
      "v": 62
    },
    {
      "midi": 52,
      "hit": false,
      "t": 81579.12144999985,
      "d": 60.975500000000466,
      "v": 62
    },
    {
      "midi": 48,
      "hit": false,
      "t": 81938.87689999986,
      "d": 451.2187000000122,
      "v": 64
    },
    {
      "midi": 53,
      "hit": false,
      "t": 81938.87689999986,
      "d": 469.5113500000152,
      "v": 57
    },
    {
      "midi": 57,
      "hit": false,
      "t": 81938.87689999986,
      "d": 1152.4369500000175,
      "v": 78
    },
    {
      "midi": 41,
      "hit": false,
      "t": 81944.97444999986,
      "d": 810.9741500000237,
      "v": 58
    },
    {
      "midi": 53,
      "hit": false,
      "t": 82701.07064999988,
      "d": 378.0481,
      "v": 82
    },
    {
      "midi": 48,
      "hit": false,
      "t": 82707.16819999988,
      "d": 371.9505499999941,
      "v": 78
    },
    {
      "midi": 41,
      "hit": false,
      "t": 83054.72854999988,
      "d": 54.8779499999946,
      "v": 82
    },
    {
      "midi": 38,
      "hit": false,
      "t": 83432.77664999988,
      "d": 725.6084500000434,
      "v": 75
    },
    {
      "midi": 65,
      "hit": false,
      "t": 83432.77664999988,
      "d": 725.6084500000434,
      "v": 88
    },
    {
      "midi": 50,
      "hit": false,
      "t": 83438.87419999989,
      "d": 420.7309500000265,
      "v": 59
    },
    {
      "midi": 57,
      "hit": false,
      "t": 83438.87419999989,
      "d": 707.3158000000258,
      "v": 63
    },
    {
      "midi": 45,
      "hit": false,
      "t": 83444.9717499999,
      "d": 420.7309500000265,
      "v": 75
    },
    {
      "midi": 62,
      "hit": false,
      "t": 83451.0692999999,
      "d": 701.2182500000199,
      "v": 100
    },
    {
      "midi": 50,
      "hit": false,
      "t": 84146.18999999992,
      "d": 378.04810000001453,
      "v": 69
    },
    {
      "midi": 45,
      "hit": false,
      "t": 84164.48264999993,
      "d": 371.9505499999941,
      "v": 82
    },
    {
      "midi": 38,
      "hit": false,
      "t": 84499.84789999994,
      "d": 54.8779499999946,
      "v": 90
    },
    {
      "midi": 46,
      "hit": false,
      "t": 84890.09109999993,
      "d": 439.023600000015,
      "v": 82
    },
    {
      "midi": 34,
      "hit": false,
      "t": 84902.28619999993,
      "d": 670.7305000000197,
      "v": 93
    },
    {
      "midi": 53,
      "hit": false,
      "t": 84902.28619999993,
      "d": 1060.9737000000168,
      "v": 78
    },
    {
      "midi": 62,
      "hit": false,
      "t": 84902.28619999993,
      "d": 1067.0712500000227,
      "v": 72
    },
    {
      "midi": 58,
      "hit": false,
      "t": 84908.38374999994,
      "d": 1067.0712500000227,
      "v": 97
    },
    {
      "midi": 46,
      "hit": false,
      "t": 85591.30934999995,
      "d": 384.14565000000584,
      "v": 97
    },
    {
      "midi": 34,
      "hit": false,
      "t": 85963.25989999995,
      "d": 54.87795000000915,
      "v": 74
    },
    {
      "midi": 31,
      "hit": false,
      "t": 86353.50309999996,
      "d": 365.85300000001735,
      "v": 88
    },
    {
      "midi": 43,
      "hit": false,
      "t": 86359.60064999996,
      "d": 402.4383000000089,
      "v": 93
    },
    {
      "midi": 59,
      "hit": false,
      "t": 86365.69819999997,
      "d": 432.9260500000091,
      "v": 78
    },
    {
      "midi": 62,
      "hit": false,
      "t": 86365.69819999997,
      "d": 445.1211500000063,
      "v": 90
    },
    {
      "midi": 55,
      "hit": false,
      "t": 86371.79574999998,
      "d": 420.7309499999974,
      "v": 96
    },
    {
      "midi": 67,
      "hit": false,
      "t": 87798.62244999998,
      "d": 1786.5821500000166,
      "v": 100
    },
    {
      "midi": 48,
      "hit": false,
      "t": 87798.62244999998,
      "d": 1847.557650000017,
      "v": 48
    },
    {
      "midi": 64,
      "hit": false,
      "t": 87804.71999999999,
      "d": 1804.874800000005,
      "v": 88
    },
    {
      "midi": 55,
      "hit": false,
      "t": 87804.71999999999,
      "d": 1835.3625500000053,
      "v": 63
    },
    {
      "midi": 60,
      "hit": false,
      "t": 87804.71999999999,
      "d": 1835.3625500000053,
      "v": 51
    },
    {
      "midi": 48,
      "hit": false,
      "t": 90030.32575,
      "d": 109.75590000000375,
      "v": 57
    },
    {
      "midi": 64,
      "hit": false,
      "t": 90030.32575,
      "d": 152.43875000001572,
      "v": 85
    },
    {
      "midi": 67,
      "hit": false,
      "t": 90030.32575,
      "d": 2536.5808000000397,
      "v": 100
    },
    {
      "midi": 60,
      "hit": false,
      "t": 90048.6184,
      "d": 97.56080000000657,
      "v": 62
    },
    {
      "midi": 55,
      "hit": false,
      "t": 90054.71595000001,
      "d": 73.17059999999765,
      "v": 82
    },
    {
      "midi": 47,
      "hit": false,
      "t": 90402.27630000001,
      "d": 85.36570000002393,
      "v": 61
    },
    {
      "midi": 59,
      "hit": false,
      "t": 90408.37385000002,
      "d": 60.975500000000466,
      "v": 66
    },
    {
      "midi": 62,
      "hit": false,
      "t": 90408.37385000002,
      "d": 73.1706000000122,
      "v": 85
    },
    {
      "midi": 55,
      "hit": false,
      "t": 90414.47140000002,
      "d": 60.975500000000466,
      "v": 82
    },
    {
      "midi": 45,
      "hit": false,
      "t": 90762.03175000004,
      "d": 1792.6797000000079,
      "v": 69
    },
    {
      "midi": 57,
      "hit": false,
      "t": 90762.03175000004,
      "d": 1829.2649999999994,
      "v": 61
    },
    {
      "midi": 60,
      "hit": false,
      "t": 90768.12930000004,
      "d": 1780.4845999999961,
      "v": 90
    },
    {
      "midi": 52,
      "hit": false,
      "t": 90768.12930000004,
      "d": 1810.9723499999964,
      "v": 75
    },
    {
      "midi": 60,
      "hit": false,
      "t": 92963.24730000003,
      "d": 384.1456500000204,
      "v": 88
    },
    {
      "midi": 57,
      "hit": false,
      "t": 92975.44240000003,
      "d": 85.36570000000938,
      "v": 69
    },
    {
      "midi": 45,
      "hit": false,
      "t": 92975.44240000003,
      "d": 91.46325000001525,
      "v": 68
    },
    {
      "midi": 52,
      "hit": false,
      "t": 92981.53995000003,
      "d": 85.36570000000938,
      "v": 88
    },
    {
      "midi": 52,
      "hit": false,
      "t": 93310.80765000005,
      "d": 67.07305000000633,
      "v": 72
    },
    {
      "midi": 55,
      "hit": false,
      "t": 93310.80765000005,
      "d": 67.07305000000633,
      "v": 85
    },
    {
      "midi": 59,
      "hit": false,
      "t": 93310.80765000005,
      "d": 445.12114999999176,
      "v": 90
    },
    {
      "midi": 43,
      "hit": false,
      "t": 93316.90520000005,
      "d": 73.17059999999765,
      "v": 78
    },
    {
      "midi": 53,
      "hit": false,
      "t": 93688.85575000005,
      "d": 445.12114999999176,
      "v": 75
    },
    {
      "midi": 48,
      "hit": false,
      "t": 93688.85575000005,
      "d": 481.70644999999786,
      "v": 75
    },
    {
      "midi": 41,
      "hit": false,
      "t": 93688.85575000005,
      "d": 780.4863999999943,
      "v": 88
    },
    {
      "midi": 57,
      "hit": false,
      "t": 93701.05085000004,
      "d": 1134.1443,
      "v": 75
    },
    {
      "midi": 53,
      "hit": false,
      "t": 94469.34215000004,
      "d": 359.7554499999969,
      "v": 93
    },
    {
      "midi": 48,
      "hit": false,
      "t": 94475.43970000005,
      "d": 365.8530000000028,
      "v": 72
    },
    {
      "midi": 41,
      "hit": false,
      "t": 94804.70740000004,
      "d": 67.07305000000633,
      "v": 93
    },
    {
      "midi": 38,
      "hit": false,
      "t": 95194.95060000005,
      "d": 768.2912999999971,
      "v": 72
    },
    {
      "midi": 65,
      "hit": false,
      "t": 95194.95060000005,
      "d": 780.4863999999943,
      "v": 96
    },
    {
      "midi": 57,
      "hit": false,
      "t": 95194.95060000005,
      "d": 829.2667999999976,
      "v": 75
    },
    {
      "midi": 50,
      "hit": false,
      "t": 95201.04815000006,
      "d": 414.6333999999915,
      "v": 63
    },
    {
      "midi": 45,
      "hit": false,
      "t": 95207.14570000007,
      "d": 365.85299999998824,
      "v": 66
    },
    {
      "midi": 62,
      "hit": false,
      "t": 95207.14570000007,
      "d": 823.1692499999917,
      "v": 93
    },
    {
      "midi": 50,
      "hit": false,
      "t": 95896.16885000005,
      "d": 353.6579000000056,
      "v": 63
    },
    {
      "midi": 45,
      "hit": false,
      "t": 95902.26640000005,
      "d": 359.7554499999969,
      "v": 69
    },
    {
      "midi": 38,
      "hit": false,
      "t": 96225.43655000006,
      "d": 54.8779499999946,
      "v": 78
    },
    {
      "midi": 58,
      "hit": false,
      "t": 96603.48465000006,
      "d": 1140.2418500000203,
      "v": 71
    },
    {
      "midi": 62,
      "hit": false,
      "t": 96609.58220000006,
      "d": 1115.8516500000114,
      "v": 72
    },
    {
      "midi": 46,
      "hit": false,
      "t": 96615.67975000007,
      "d": 408.53585000001476,
      "v": 93
    },
    {
      "midi": 53,
      "hit": false,
      "t": 96615.67975000007,
      "d": 1091.4614500000025,
      "v": 75
    },
    {
      "midi": 34,
      "hit": false,
      "t": 96621.77730000007,
      "d": 743.9011000000028,
      "v": 100
    },
    {
      "midi": 46,
      "hit": false,
      "t": 97322.99555000008,
      "d": 420.7309499999974,
      "v": 84
    },
    {
      "midi": 34,
      "hit": false,
      "t": 97707.14120000007,
      "d": 60.975500000000466,
      "v": 54
    },
    {
      "midi": 43,
      "hit": false,
      "t": 98072.99420000007,
      "d": 451.2187000000122,
      "v": 63
    },
    {
      "midi": 59,
      "hit": false,
      "t": 98072.99420000007,
      "d": 1109.7541000000201,
      "v": 72
    },
    {
      "midi": 31,
      "hit": false,
      "t": 98079.09175000008,
      "d": 762.1937500000058,
      "v": 69
    },
    {
      "midi": 62,
      "hit": false,
      "t": 98079.09175000008,
      "d": 1128.0467500000086,
      "v": 93
    },
    {
      "midi": 55,
      "hit": false,
      "t": 98085.18930000009,
      "d": 1060.9737000000023,
      "v": 88
    },
    {
      "midi": 43,
      "hit": false,
      "t": 98786.40755000009,
      "d": 420.7309499999974,
      "v": 88
    },
    {
      "midi": 31,
      "hit": false,
      "t": 99140.06545000008,
      "d": 54.87795000000915,
      "v": 72
    },
    {
      "midi": 76,
      "hit": false,
      "t": 99518.11355000002,
      "d": 170.73140000000421,
      "v": 102
    },
    {
      "midi": 57,
      "hit": false,
      "t": 99554.69885000009,
      "d": 1963.411100000012,
      "v": 102
    },
    {
      "midi": 41,
      "hit": false,
      "t": 99566.89395000009,
      "d": 749.9986500000086,
      "v": 96
    },
    {
      "midi": 76,
      "hit": false,
      "t": 99896.16165000002,
      "d": 164.63384999999835,
      "v": 102
    },
    {
      "midi": 76,
      "hit": false,
      "t": 100243.72200000002,
      "d": 195.12159999999858,
      "v": 100
    },
    {
      "midi": 53,
      "hit": false,
      "t": 100286.4048500001,
      "d": 432.9260499999946,
      "v": 82
    },
    {
      "midi": 48,
      "hit": false,
      "t": 100292.5024000001,
      "d": 414.6333999999915,
      "v": 78
    },
    {
      "midi": 77,
      "hit": false,
      "t": 100420.55095000002,
      "d": 219.5118000000075,
      "v": 100
    },
    {
      "midi": 76,
      "hit": false,
      "t": 100597.37990000003,
      "d": 213.41424999998708,
      "v": 96
    },
    {
      "midi": 41,
      "hit": false,
      "t": 100621.7701000001,
      "d": 85.36569999999483,
      "v": 75
    },
    {
      "midi": 72,
      "hit": false,
      "t": 100786.40395000002,
      "d": 621.9500999999873,
      "v": 100
    },
    {
      "midi": 41,
      "hit": false,
      "t": 100993.72065000009,
      "d": 780.4864000000089,
      "v": 78
    },
    {
      "midi": 48,
      "hit": false,
      "t": 100999.8182000001,
      "d": 420.7309499999974,
      "v": 61
    },
    {
      "midi": 53,
      "hit": false,
      "t": 100999.8182000001,
      "d": 420.7309499999974,
      "v": 78
    },
    {
      "midi": 69,
      "hit": false,
      "t": 101365.67120000001,
      "d": 749.9986499999941,
      "v": 96
    },
    {
      "midi": 57,
      "hit": false,
      "t": 101713.2315500001,
      "d": 176.82895000001008,
      "v": 64
    },
    {
      "midi": 53,
      "hit": false,
      "t": 101725.4266500001,
      "d": 371.95055000000866,
      "v": 82
    },
    {
      "midi": 48,
      "hit": false,
      "t": 101731.5242000001,
      "d": 371.95055000000866,
      "v": 78
    },
    {
      "midi": 59,
      "hit": false,
      "t": 101853.4752000001,
      "d": 249.99955000000773,
      "v": 68
    },
    {
      "midi": 41,
      "hit": false,
      "t": 102066.8894500001,
      "d": 67.07305000000633,
      "v": 82
    },
    {
      "midi": 60,
      "hit": false,
      "t": 102066.8894500001,
      "d": 414.63340000002063,
      "v": 88
    },
    {
      "midi": 72,
      "hit": false,
      "t": 102091.27965000001,
      "d": 396.3407499999885,
      "v": 90
    },
    {
      "midi": 74,
      "hit": false,
      "t": 102432.74245,
      "d": 201.2191499999899,
      "v": 98
    },
    {
      "midi": 55,
      "hit": false,
      "t": 102432.7424500001,
      "d": 2256.0935000000463,
      "v": 96
    },
    {
      "midi": 36,
      "hit": false,
      "t": 102438.84000000011,
      "d": 835.364350000018,
      "v": 78
    },
    {
      "midi": 48,
      "hit": false,
      "t": 102444.93755000012,
      "d": 451.2187000000122,
      "v": 63
    },
    {
      "midi": 43,
      "hit": false,
      "t": 102451.03510000012,
      "d": 469.5113500000007,
      "v": 88
    },
    {
      "midi": 74,
      "hit": false,
      "t": 102774.20525,
      "d": 195.12159999999858,
      "v": 90
    },
    {
      "midi": 74,
      "hit": false,
      "t": 103152.25335,
      "d": 195.12159999999858,
      "v": 98
    },
    {
      "midi": 48,
      "hit": false,
      "t": 103213.22885000013,
      "d": 536.584400000007,
      "v": 78
    },
    {
      "midi": 43,
      "hit": false,
      "t": 103225.42395000013,
      "d": 506.0966500000068,
      "v": 85
    },
    {
      "midi": 76,
      "hit": false,
      "t": 103335.17985,
      "d": 219.51179999999295,
      "v": 90
    },
    {
      "midi": 74,
      "hit": false,
      "t": 103512.0088,
      "d": 231.70690000000468,
      "v": 90
    },
    {
      "midi": 36,
      "hit": false,
      "t": 103585.17940000012,
      "d": 97.56080000000657,
      "v": 75
    },
    {
      "midi": 67,
      "hit": false,
      "t": 103713.22795,
      "d": 646.3403000000108,
      "v": 107
    },
    {
      "midi": 36,
      "hit": false,
      "t": 103957.12995000013,
      "d": 768.2913000000262,
      "v": 75
    },
    {
      "midi": 48,
      "hit": false,
      "t": 103963.22750000014,
      "d": 414.6334000000061,
      "v": 66
    },
    {
      "midi": 43,
      "hit": false,
      "t": 103969.32505000014,
      "d": 390.24319999999716,
      "v": 75
    },
    {
      "midi": 64,
      "hit": false,
      "t": 104310.78785000001,
      "d": 731.7060000000056,
      "v": 98
    },
    {
      "midi": 57,
      "hit": false,
      "t": 104652.25065000015,
      "d": 237.80445000001055,
      "v": 78
    },
    {
      "midi": 48,
      "hit": false,
      "t": 104664.44575000014,
      "d": 432.9260500000237,
      "v": 75
    },
    {
      "midi": 43,
      "hit": false,
      "t": 104682.73840000015,
      "d": 384.1456500000204,
      "v": 88
    },
    {
      "midi": 59,
      "hit": false,
      "t": 104835.17715000016,
      "d": 249.99955000000773,
      "v": 75
    },
    {
      "midi": 67,
      "hit": false,
      "t": 105005.90855000001,
      "d": 371.95055000000866,
      "v": 102
    },
    {
      "midi": 36,
      "hit": false,
      "t": 105018.10365000016,
      "d": 54.87795000000915,
      "v": 88
    },
    {
      "midi": 60,
      "hit": false,
      "t": 105024.20120000017,
      "d": 402.43829999999434,
      "v": 98
    },
    {
      "midi": 76,
      "hit": false,
      "t": 105371.76155000001,
      "d": 853.6570000000065,
      "v": 100
    },
    {
      "midi": 57,
      "hit": false,
      "t": 105371.76155000017,
      "d": 1914.630700000038,
      "v": 98
    },
    {
      "midi": 41,
      "hit": false,
      "t": 105377.85910000018,
      "d": 756.0962,
      "v": 85
    },
    {
      "midi": 53,
      "hit": false,
      "t": 105402.24930000017,
      "d": 432.9260499999946,
      "v": 75
    },
    {
      "midi": 48,
      "hit": false,
      "t": 105402.24930000017,
      "d": 439.02360000000044,
      "v": 66
    },
    {
      "midi": 53,
      "hit": false,
      "t": 106127.85775000017,
      "d": 439.02360000000044,
      "v": 82
    },
    {
      "midi": 48,
      "hit": false,
      "t": 106133.95530000018,
      "d": 439.02360000000044,
      "v": 64
    },
    {
      "midi": 41,
      "hit": false,
      "t": 106481.51565000018,
      "d": 73.17059999999765,
      "v": 66
    },
    {
      "midi": 76,
      "hit": false,
      "t": 106499.80830000002,
      "d": 1079.2663500000053,
      "v": 90
    },
    {
      "midi": 53,
      "hit": false,
      "t": 106835.17355000018,
      "d": 457.3162500000326,
      "v": 72
    },
    {
      "midi": 48,
      "hit": false,
      "t": 106841.27110000019,
      "d": 439.023600000015,
      "v": 69
    },
    {
      "midi": 41,
      "hit": false,
      "t": 106841.27110000019,
      "d": 762.1937500000349,
      "v": 72
    },
    {
      "midi": 74,
      "hit": false,
      "t": 107530.29425000002,
      "d": 219.5118000000075,
      "v": 90
    },
    {
      "midi": 57,
      "hit": false,
      "t": 107560.78200000021,
      "d": 231.70690000001923,
      "v": 90
    },
    {
      "midi": 53,
      "hit": false,
      "t": 107566.87955000022,
      "d": 384.1456500000204,
      "v": 64
    },
    {
      "midi": 48,
      "hit": false,
      "t": 107572.97710000022,
      "d": 323.1701500000054,
      "v": 75
    },
    {
      "midi": 72,
      "hit": false,
      "t": 107688.83055000003,
      "d": 670.7304999999906,
      "v": 88
    },
    {
      "midi": 59,
      "hit": false,
      "t": 107725.41585000022,
      "d": 274.38975000001665,
      "v": 78
    },
    {
      "midi": 60,
      "hit": false,
      "t": 107926.63500000023,
      "d": 402.4383000000089,
      "v": 98
    },
    {
      "midi": 41,
      "hit": false,
      "t": 107932.73255000023,
      "d": 54.87795000000915,
      "v": 85
    },
    {
      "midi": 74,
      "hit": false,
      "t": 108304.68310000002,
      "d": 1536.5825999999943,
      "v": 110
    },
    {
      "midi": 48,
      "hit": false,
      "t": 108304.68310000024,
      "d": 323.1701499999908,
      "v": 68
    },
    {
      "midi": 55,
      "hit": false,
      "t": 108304.68310000024,
      "d": 487.8039999999892,
      "v": 98
    },
    {
      "midi": 36,
      "hit": false,
      "t": 108304.68310000024,
      "d": 743.9010999999882,
      "v": 78
    },
    {
      "midi": 43,
      "hit": false,
      "t": 108316.87820000024,
      "d": 353.65789999999106,
      "v": 88
    },
    {
      "midi": 48,
      "hit": false,
      "t": 108987.60870000023,
      "d": 475.608899999992,
      "v": 68
    },
    {
      "midi": 43,
      "hit": false,
      "t": 108999.80380000023,
      "d": 463.4137999999948,
      "v": 82
    },
    {
      "midi": 36,
      "hit": false,
      "t": 109347.36415000023,
      "d": 91.4632500000007,
      "v": 82
    },
    {
      "midi": 36,
      "hit": false,
      "t": 109737.60735000022,
      "d": 103.65835000001243,
      "v": 96
    },
    {
      "midi": 48,
      "hit": false,
      "t": 109737.60735000022,
      "d": 146.3412000000244,
      "v": 96
    },
    {
      "midi": 43,
      "hit": false,
      "t": 109743.70490000023,
      "d": 103.65835000001243,
      "v": 98
    },
    {
      "midi": 60,
      "hit": false,
      "t": 110463.21580000025,
      "d": 384.1456499999913,
      "v": 88
    },
    {
      "midi": 64,
      "hit": false,
      "t": 110475.41090000025,
      "d": 79.26815000000352,
      "v": 90
    },
    {
      "midi": 67,
      "hit": false,
      "t": 110475.41090000025,
      "d": 91.4632500000007,
      "v": 105
    },
    {
      "midi": 72,
      "hit": false,
      "t": 110475.41090000025,
      "d": 115.85344999999506,
      "v": 96
    },
    {
      "midi": 55,
      "hit": false,
      "t": 110481.50845000026,
      "d": 384.1456499999913,
      "v": 88
    },
    {
      "midi": 48,
      "hit": false,
      "t": 110829.06880000024,
      "d": 67.07305000000633,
      "v": 66
    },
    {
      "midi": 41,
      "hit": false,
      "t": 111231.50710000025,
      "d": 786.5839500000293,
      "v": 100
    },
    {
      "midi": 69,
      "hit": false,
      "t": 111231.50710000025,
      "d": 920.7300500000274,
      "v": 102
    },
    {
      "midi": 60,
      "hit": false,
      "t": 111231.50710000025,
      "d": 999.9982000000309,
      "v": 90
    },
    {
      "midi": 53,
      "hit": false,
      "t": 111237.60465000026,
      "d": 378.04810000001453,
      "v": 93
    },
    {
      "midi": 48,
      "hit": false,
      "t": 111237.60465000026,
      "d": 396.3407500000176,
      "v": 72
    },
    {
      "midi": 65,
      "hit": false,
      "t": 111237.60465000026,
      "d": 896.3398500000185,
      "v": 98
    },
    {
      "midi": 53,
      "hit": false,
      "t": 111975.40820000027,
      "d": 420.7309500000265,
      "v": 93
    },
    {
      "midi": 48,
      "hit": false,
      "t": 111981.50575000027,
      "d": 439.02360000002955,
      "v": 82
    },
    {
      "midi": 41,
      "hit": false,
      "t": 112329.06610000029,
      "d": 73.1706000000122,
      "v": 88
    },
    {
      "midi": 48,
      "hit": false,
      "t": 112701.0166500003,
      "d": 384.1456500000204,
      "v": 69
    },
    {
      "midi": 53,
      "hit": false,
      "t": 112701.0166500003,
      "d": 469.5113500000152,
      "v": 82
    },
    {
      "midi": 41,
      "hit": false,
      "t": 112701.0166500003,
      "d": 786.5839500000147,
      "v": 78
    },
    {
      "midi": 69,
      "hit": false,
      "t": 112707.1142000003,
      "d": 1128.0467500000232,
      "v": 100
    },
    {
      "midi": 60,
      "hit": false,
      "t": 112713.21175000031,
      "d": 1091.4614500000025,
      "v": 85
    },
    {
      "midi": 65,
      "hit": false,
      "t": 112713.21175000031,
      "d": 1097.5590000000084,
      "v": 93
    },
    {
      "midi": 53,
      "hit": false,
      "t": 113420.5275500003,
      "d": 396.3407500000176,
      "v": 82
    },
    {
      "midi": 48,
      "hit": false,
      "t": 113426.62510000031,
      "d": 396.3407500000176,
      "v": 85
    },
    {
      "midi": 41,
      "hit": false,
      "t": 113792.47810000031,
      "d": 60.97550000001502,
      "v": 93
    },
    {
      "midi": 48,
      "hit": false,
      "t": 114164.42865000032,
      "d": 310.9750500000082,
      "v": 55
    },
    {
      "midi": 36,
      "hit": false,
      "t": 114170.52620000033,
      "d": 274.3897500000021,
      "v": 88
    },
    {
      "midi": 71,
      "hit": false,
      "t": 114170.52620000033,
      "d": 1128.0467500000086,
      "v": 100
    },
    {
      "midi": 64,
      "hit": false,
      "t": 114176.62375000033,
      "d": 1085.3638999999966,
      "v": 98
    },
    {
      "midi": 60,
      "hit": false,
      "t": 114865.64690000033,
      "d": 457.31625000001804,
      "v": 88
    },
    {
      "midi": 55,
      "hit": false,
      "t": 114877.84200000032,
      "d": 439.023600000015,
      "v": 93
    },
    {
      "midi": 48,
      "hit": false,
      "t": 115231.49990000033,
      "d": 79.26815000000352,
      "v": 78
    },
    {
      "midi": 55,
      "hit": false,
      "t": 115603.45045000034,
      "d": 420.73095000001194,
      "v": 69
    },
    {
      "midi": 48,
      "hit": false,
      "t": 115603.45045000034,
      "d": 762.1937500000058,
      "v": 63
    },
    {
      "midi": 67,
      "hit": false,
      "t": 115609.54800000034,
      "d": 1121.9491999999882,
      "v": 102
    },
    {
      "midi": 60,
      "hit": false,
      "t": 115615.64555000035,
      "d": 439.02360000000044,
      "v": 66
    },
    {
      "midi": 64,
      "hit": false,
      "t": 115615.64555000035,
      "d": 1103.6565499999851,
      "v": 98
    },
    {
      "midi": 60,
      "hit": false,
      "t": 116304.66870000034,
      "d": 439.0235999999859,
      "v": 85
    },
    {
      "midi": 55,
      "hit": false,
      "t": 116310.76625000035,
      "d": 451.2186999999831,
      "v": 93
    },
    {
      "midi": 48,
      "hit": false,
      "t": 116707.10700000034,
      "d": 85.36569999999483,
      "v": 90
    },
    {
      "midi": 60,
      "hit": false,
      "t": 117109.54530000033,
      "d": 1164.6320500000293,
      "v": 90
    },
    {
      "midi": 41,
      "hit": false,
      "t": 117115.64285000034,
      "d": 762.1937500000058,
      "v": 93
    },
    {
      "midi": 48,
      "hit": false,
      "t": 117121.74040000034,
      "d": 402.4383000000089,
      "v": 68
    },
    {
      "midi": 53,
      "hit": false,
      "t": 117121.74040000034,
      "d": 445.1211500000063,
      "v": 88
    },
    {
      "midi": 53,
      "hit": false,
      "t": 117835.15375000035,
      "d": 432.9260500000091,
      "v": 82
    },
    {
      "midi": 48,
      "hit": false,
      "t": 117847.34885000034,
      "d": 408.53585000001476,
      "v": 88
    },
    {
      "midi": 41,
      "hit": false,
      "t": 118201.00675000035,
      "d": 73.1706000000122,
      "v": 96
    },
    {
      "midi": 69,
      "hit": false,
      "t": 118207.10430000036,
      "d": 85.36570000000938,
      "v": 75
    },
    {
      "midi": 55,
      "hit": false,
      "t": 118548.56710000036,
      "d": 390.2432000000117,
      "v": 93
    },
    {
      "midi": 50,
      "hit": false,
      "t": 118554.66465000037,
      "d": 384.14565000000584,
      "v": 72
    },
    {
      "midi": 67,
      "hit": false,
      "t": 118554.66465000037,
      "d": 737.8035499999969,
      "v": 105
    },
    {
      "midi": 43,
      "hit": false,
      "t": 118554.66465000037,
      "d": 743.9011000000028,
      "v": 93
    },
    {
      "midi": 59,
      "hit": false,
      "t": 118554.66465000037,
      "d": 1091.4614500000025,
      "v": 72
    },
    {
      "midi": 62,
      "hit": false,
      "t": 118560.76220000038,
      "d": 201.21915000000445,
      "v": 96
    },
    {
      "midi": 62,
      "hit": false,
      "t": 118896.12745000038,
      "d": 774.388850000003,
      "v": 90
    },
    {
      "midi": 64,
      "hit": false,
      "t": 119255.88290000038,
      "d": 475.60890000000654,
      "v": 90
    },
    {
      "midi": 55,
      "hit": false,
      "t": 119268.07800000037,
      "d": 396.340750000003,
      "v": 78
    },
    {
      "midi": 50,
      "hit": false,
      "t": 119280.27310000037,
      "d": 390.2432000000117,
      "v": 82
    },
    {
      "midi": 43,
      "hit": false,
      "t": 119627.83345000037,
      "d": 73.1706000000122,
      "v": 93
    },
    {
      "midi": 65,
      "hit": false,
      "t": 119633.93100000038,
      "d": 445.1211500000063,
      "v": 102
    },
    {
      "midi": 60,
      "hit": false,
      "t": 120011.97910000038,
      "d": 1481.7046499999997,
      "v": 85
    },
    {
      "midi": 64,
      "hit": false,
      "t": 120011.97910000038,
      "d": 1493.8997499999969,
      "v": 102
    },
    {
      "midi": 36,
      "hit": false,
      "t": 120018.07665000038,
      "d": 774.388850000003,
      "v": 93
    },
    {
      "midi": 67,
      "hit": false,
      "t": 120018.07665000038,
      "d": 1512.1923999999854,
      "v": 110
    },
    {
      "midi": 48,
      "hit": false,
      "t": 120024.17420000039,
      "d": 298.77994999999646,
      "v": 85
    },
    {
      "midi": 48,
      "hit": false,
      "t": 120761.97775000038,
      "d": 54.8779499999946,
      "v": 85
    },
    {
      "midi": 46,
      "hit": false,
      "t": 121127.83075000037,
      "d": 335.36525000000256,
      "v": 103
    },
    {
      "midi": 36,
      "hit": false,
      "t": 121140.02585000037,
      "d": 274.3897500000021,
      "v": 98
    },
    {
      "midi": 58,
      "hit": false,
      "t": 122225.38975000037,
      "d": 225.60935000001336,
      "v": 93
    },
    {
      "midi": 69,
      "hit": false,
      "t": 122231.48730000037,
      "d": 414.6334000000061,
      "v": 100
    },
    {
      "midi": 55,
      "hit": false,
      "t": 122249.77995000037,
      "d": 335.36525000000256,
      "v": 88
    },
    {
      "midi": 48,
      "hit": false,
      "t": 122591.24275000038,
      "d": 36.58529999999155,
      "v": 58
    },
    {
      "midi": 71,
      "hit": false,
      "t": 122603.43785000038,
      "d": 60.975500000000466,
      "v": 88
    },
    {
      "midi": 69,
      "hit": false,
      "t": 122963.19330000038,
      "d": 1158.5345000000234,
      "v": 96
    },
    {
      "midi": 41,
      "hit": false,
      "t": 122969.29085000038,
      "d": 286.58485000001383,
      "v": 96
    },
    {
      "midi": 48,
      "hit": false,
      "t": 122969.29085000038,
      "d": 286.58485000001383,
      "v": 75
    },
    {
      "midi": 65,
      "hit": false,
      "t": 122969.29085000038,
      "d": 457.31625000001804,
      "v": 96
    },
    {
      "midi": 72,
      "hit": false,
      "t": 122969.29085000038,
      "d": 1152.4369500000175,
      "v": 98
    },
    {
      "midi": 53,
      "hit": false,
      "t": 122975.38840000039,
      "d": 323.1701500000054,
      "v": 88
    },
    {
      "midi": 65,
      "hit": false,
      "t": 123707.0944000004,
      "d": 396.340750000003,
      "v": 93
    },
    {
      "midi": 60,
      "hit": false,
      "t": 123707.0944000004,
      "d": 445.1211500000063,
      "v": 90
    },
    {
      "midi": 53,
      "hit": false,
      "t": 124066.84985000039,
      "d": 79.26815000000352,
      "v": 72
    },
    {
      "midi": 72,
      "hit": false,
      "t": 124414.4102000004,
      "d": 1067.071249999979,
      "v": 93
    },
    {
      "midi": 65,
      "hit": false,
      "t": 124420.50775000041,
      "d": 384.1456499999913,
      "v": 90
    },
    {
      "midi": 69,
      "hit": false,
      "t": 124420.50775000041,
      "d": 1036.5834999999788,
      "v": 93
    },
    {
      "midi": 60,
      "hit": false,
      "t": 124426.60530000042,
      "d": 365.85299999998824,
      "v": 78
    },
    {
      "midi": 53,
      "hit": false,
      "t": 124438.80040000041,
      "d": 768.2912999999826,
      "v": 75
    },
    {
      "midi": 65,
      "hit": false,
      "t": 125146.1162000004,
      "d": 335.365249999988,
      "v": 88
    },
    {
      "midi": 60,
      "hit": false,
      "t": 125152.2137500004,
      "d": 365.85299999998824,
      "v": 90
    },
    {
      "midi": 53,
      "hit": false,
      "t": 125481.48145000038,
      "d": 67.07305000000633,
      "v": 88
    },
    {
      "midi": 60,
      "hit": false,
      "t": 125877.82220000039,
      "d": 469.5113500000007,
      "v": 69
    },
    {
      "midi": 48,
      "hit": false,
      "t": 125877.82220000039,
      "d": 762.1937499999913,
      "v": 78
    },
    {
      "midi": 71,
      "hit": false,
      "t": 125883.9197500004,
      "d": 1091.461449999988,
      "v": 85
    },
    {
      "midi": 67,
      "hit": false,
      "t": 125883.9197500004,
      "d": 1103.6565499999851,
      "v": 100
    },
    {
      "midi": 55,
      "hit": false,
      "t": 125890.0173000004,
      "d": 469.5113499999861,
      "v": 88
    },
    {
      "midi": 64,
      "hit": false,
      "t": 125890.0173000004,
      "d": 1097.5589999999793,
      "v": 90
    },
    {
      "midi": 60,
      "hit": false,
      "t": 126572.94290000039,
      "d": 463.4137999999948,
      "v": 72
    },
    {
      "midi": 55,
      "hit": false,
      "t": 126585.13800000038,
      "d": 451.2186999999976,
      "v": 93
    },
    {
      "midi": 48,
      "hit": false,
      "t": 126932.69835000038,
      "d": 97.56079999999201,
      "v": 75
    },
    {
      "midi": 48,
      "hit": false,
      "t": 127310.74645000038,
      "d": 804.8766000000178,
      "v": 63
    },
    {
      "midi": 60,
      "hit": false,
      "t": 127316.84400000039,
      "d": 445.1211500000063,
      "v": 64
    },
    {
      "midi": 67,
      "hit": false,
      "t": 127316.84400000039,
      "d": 1115.8516500000114,
      "v": 105
    },
    {
      "midi": 64,
      "hit": false,
      "t": 127322.9415500004,
      "d": 1109.7541000000056,
      "v": 85
    },
    {
      "midi": 55,
      "hit": false,
      "t": 127329.0391000004,
      "d": 439.02360000000044,
      "v": 90
    },
    {
      "midi": 60,
      "hit": false,
      "t": 128054.6475500004,
      "d": 378.0481,
      "v": 88
    },
    {
      "midi": 55,
      "hit": false,
      "t": 128066.8426500004,
      "d": 390.24319999999716,
      "v": 100
    },
    {
      "midi": 48,
      "hit": false,
      "t": 128414.4030000004,
      "d": 67.07304999999178,
      "v": 69
    },
    {
      "midi": 41,
      "hit": false,
      "t": 128816.8413000004,
      "d": 762.1937500000058,
      "v": 98
    },
    {
      "midi": 60,
      "hit": false,
      "t": 128816.8413000004,
      "d": 1115.8516499999969,
      "v": 98
    },
    {
      "midi": 53,
      "hit": false,
      "t": 128835.1339500004,
      "d": 67.07305000000633,
      "v": 42
    },
    {
      "midi": 53,
      "hit": false,
      "t": 129524.1571000004,
      "d": 408.53584999998566,
      "v": 93
    },
    {
      "midi": 48,
      "hit": false,
      "t": 129536.3522000004,
      "d": 359.7554499999969,
      "v": 88
    },
    {
      "midi": 41,
      "hit": false,
      "t": 129865.6199000004,
      "d": 54.8779499999946,
      "v": 93
    },
    {
      "midi": 69,
      "hit": false,
      "t": 129877.8150000004,
      "d": 79.26814999998896,
      "v": 100
    },
    {
      "midi": 67,
      "hit": false,
      "t": 130255.86310000038,
      "d": 719.510900000023,
      "v": 107
    },
    {
      "midi": 53,
      "hit": false,
      "t": 130255.86310000038,
      "d": 737.803550000026,
      "v": 93
    },
    {
      "midi": 43,
      "hit": false,
      "t": 130255.86310000038,
      "d": 756.0962000000291,
      "v": 98
    },
    {
      "midi": 62,
      "hit": false,
      "t": 130261.96065000039,
      "d": 286.58485000001383,
      "v": 102
    },
    {
      "midi": 50,
      "hit": false,
      "t": 130261.96065000039,
      "d": 719.510900000023,
      "v": 88
    },
    {
      "midi": 59,
      "hit": false,
      "t": 130261.96065000039,
      "d": 756.0962000000291,
      "v": 88
    },
    {
      "midi": 62,
      "hit": false,
      "t": 130640.0087500004,
      "d": 445.1211500000063,
      "v": 75
    },
    {
      "midi": 64,
      "hit": false,
      "t": 131011.95930000041,
      "d": 201.21914999997534,
      "v": 105
    },
    {
      "midi": 48,
      "hit": false,
      "t": 131743.66530000037,
      "d": 786.5839500000293,
      "v": 72
    },
    {
      "midi": 67,
      "hit": false,
      "t": 131755.86040000038,
      "d": 30.487750000000233,
      "v": 100
    },
    {
      "midi": 64,
      "hit": false,
      "t": 131755.86040000038,
      "d": 317.07260000001406,
      "v": 98
    },
    {
      "midi": 55,
      "hit": false,
      "t": 131755.86040000038,
      "d": 335.36525000000256,
      "v": 96
    },
    {
      "midi": 60,
      "hit": false,
      "t": 131761.9579500004,
      "d": 280.48730000000796,
      "v": 85
    },
    {
      "midi": 60,
      "hit": false,
      "t": 132481.46885000038,
      "d": 463.41380000003846,
      "v": 88
    },
    {
      "midi": 55,
      "hit": false,
      "t": 132487.5664000004,
      "d": 469.51135000004433,
      "v": 98
    },
    {
      "midi": 48,
      "hit": false,
      "t": 132847.32185000041,
      "d": 91.4632500000007,
      "v": 78
    },
    {
      "midi": 48,
      "hit": false,
      "t": 133207.07730000044,
      "d": 85.36570000002393,
      "v": 93
    },
    {
      "midi": 60,
      "hit": false,
      "t": 133213.17485000045,
      "d": 60.975500000000466,
      "v": 96
    },
    {
      "midi": 55,
      "hit": false,
      "t": 133213.17485000045,
      "d": 73.1706000000122,
      "v": 107
    },
    {
      "midi": 48,
      "hit": false,
      "t": 133902.19800000047,
      "d": 420.7309500000556,
      "v": 75
    },
    {
      "midi": 60,
      "hit": false,
      "t": 133908.29555000048,
      "d": 73.1706000000122,
      "v": 82
    },
    {
      "midi": 67,
      "hit": false,
      "t": 133908.29555000048,
      "d": 91.4632500000298,
      "v": 102
    },
    {
      "midi": 64,
      "hit": false,
      "t": 133914.39310000048,
      "d": 73.1706000000122,
      "v": 93
    },
    {
      "midi": 43,
      "hit": false,
      "t": 133920.4906500005,
      "d": 384.1456500000204,
      "v": 100
    },
    {
      "midi": 36,
      "hit": false,
      "t": 134249.7583500005,
      "d": 67.07305000000633,
      "v": 102
    },
    {
      "midi": 57,
      "hit": false,
      "t": 134633.90400000053,
      "d": 298.77994999999646,
      "v": 96
    },
    {
      "midi": 64,
      "hit": false,
      "t": 134633.90400000053,
      "d": 341.46280000000843,
      "v": 102
    },
    {
      "midi": 48,
      "hit": false,
      "t": 134633.90400000053,
      "d": 371.95055000000866,
      "v": 85
    },
    {
      "midi": 41,
      "hit": false,
      "t": 134633.90400000053,
      "d": 713.4133500000171,
      "v": 100
    },
    {
      "midi": 53,
      "hit": false,
      "t": 134640.00155000054,
      "d": 359.7554499999969,
      "v": 100
    },
    {
      "midi": 53,
      "hit": false,
      "t": 135365.61000000054,
      "d": 67.07305000000633,
      "v": 100
    },
    {
      "midi": 48,
      "hit": false,
      "t": 135365.61000000054,
      "d": 79.26815000001807,
      "v": 96
    },
    {
      "midi": 72,
      "hit": false,
      "t": 135743.65810000055,
      "d": 445.12115000002086,
      "v": 96
    },
    {
      "midi": 41,
      "hit": false,
      "t": 135743.65810000055,
      "d": 1109.7541000000201,
      "v": 90
    },
    {
      "midi": 69,
      "hit": false,
      "t": 135749.75565000056,
      "d": 426.82850000000326,
      "v": 98
    },
    {
      "midi": 76,
      "hit": false,
      "t": 135749.75565000056,
      "d": 439.023600000015,
      "v": 107
    },
    {
      "midi": 48,
      "hit": false,
      "t": 135755.85320000057,
      "d": 469.5113500000152,
      "v": 82
    },
    {
      "midi": 53,
      "hit": false,
      "t": 135755.85320000057,
      "d": 524.3893000000098,
      "v": 98
    },
    {
      "midi": 53,
      "hit": false,
      "t": 136810.72935000056,
      "d": 402.4383000000089,
      "v": 85
    },
    {
      "midi": 48,
      "hit": false,
      "t": 136822.92445000057,
      "d": 402.4383000000089,
      "v": 88
    },
    {
      "midi": 41,
      "hit": false,
      "t": 137176.58235000056,
      "d": 85.36570000002393,
      "v": 93
    },
    {
      "midi": 36,
      "hit": false,
      "t": 137554.63045000058,
      "d": 780.4864000000234,
      "v": 82
    },
    {
      "midi": 48,
      "hit": false,
      "t": 137560.72800000058,
      "d": 390.24319999999716,
      "v": 64
    },
    {
      "midi": 67,
      "hit": false,
      "t": 137572.9231000006,
      "d": 548.7795000000042,
      "v": 105
    },
    {
      "midi": 64,
      "hit": false,
      "t": 137579.0206500006,
      "d": 530.4868499999866,
      "v": 98
    },
    {
      "midi": 60,
      "hit": false,
      "t": 137585.1182000006,
      "d": 487.8039999999746,
      "v": 88
    },
    {
      "midi": 48,
      "hit": false,
      "t": 138286.3364500006,
      "d": 85.36569999999483,
      "v": 78
    },
    {
      "midi": 48,
      "hit": false,
      "t": 138658.28700000062,
      "d": 817.0717000000004,
      "v": 85
    },
    {
      "midi": 67,
      "hit": false,
      "t": 138658.28700000062,
      "d": 1493.8997500000114,
      "v": 105
    },
    {
      "midi": 64,
      "hit": false,
      "t": 138658.28700000062,
      "d": 1499.9973000000173,
      "v": 98
    },
    {
      "midi": 71,
      "hit": false,
      "t": 138658.28700000062,
      "d": 1499.9973000000173,
      "v": 105
    },
    {
      "midi": 36,
      "hit": false,
      "t": 138658.28700000062,
      "d": 1530.4850500000175,
      "v": 88
    },
    {
      "midi": 43,
      "hit": false,
      "t": 139402.1881000006,
      "d": 457.3162500000035,
      "v": 96
    },
    {
      "midi": 48,
      "hit": false,
      "t": 139798.5288500006,
      "d": 378.04810000001453,
      "v": 82
    },
    {
      "midi": 43,
      "hit": false,
      "t": 140139.99165000062,
      "d": 54.8779500000237,
      "v": 96
    },
    {
      "midi": 41,
      "hit": false,
      "t": 140487.55200000064,
      "d": 786.5839500000293,
      "v": 98
    },
    {
      "midi": 57,
      "hit": false,
      "t": 140493.64955000064,
      "d": 402.4383000000089,
      "v": 88
    },
    {
      "midi": 64,
      "hit": false,
      "t": 140493.64955000064,
      "d": 445.12115000002086,
      "v": 96
    },
    {
      "midi": 53,
      "hit": false,
      "t": 140499.74710000065,
      "d": 463.41380000000936,
      "v": 96
    },
    {
      "midi": 53,
      "hit": false,
      "t": 141219.25800000067,
      "d": 73.1705999999831,
      "v": 88
    },
    {
      "midi": 48,
      "hit": false,
      "t": 141219.25800000067,
      "d": 91.4632499999716,
      "v": 85
    },
    {
      "midi": 72,
      "hit": false,
      "t": 141597.30610000066,
      "d": 798.779050000041,
      "v": 88
    },
    {
      "midi": 48,
      "hit": false,
      "t": 141603.40365000066,
      "d": 530.4868500000157,
      "v": 72
    },
    {
      "midi": 69,
      "hit": false,
      "t": 141603.40365000066,
      "d": 768.2913000000408,
      "v": 93
    },
    {
      "midi": 76,
      "hit": false,
      "t": 141603.40365000066,
      "d": 792.6815000000352,
      "v": 105
    },
    {
      "midi": 41,
      "hit": false,
      "t": 141603.40365000066,
      "d": 1390.2414000000572,
      "v": 90
    },
    {
      "midi": 53,
      "hit": false,
      "t": 141609.50120000067,
      "d": 749.9986500000232,
      "v": 88
    },
    {
      "midi": 48,
      "hit": false,
      "t": 142329.0121000007,
      "d": 652.4378500000166,
      "v": 85
    },
    {
      "midi": 53,
      "hit": false,
      "t": 142737.5479500007,
      "d": 219.5118000000075,
      "v": 110
    },
    {
      "midi": 55,
      "hit": false,
      "t": 142896.0842500007,
      "d": 219.5118000000075,
      "v": 96
    },
    {
      "midi": 57,
      "hit": false,
      "t": 143072.9132000007,
      "d": 213.41425000003073,
      "v": 90
    },
    {
      "midi": 60,
      "hit": false,
      "t": 143243.64460000073,
      "d": 97.56080000000657,
      "v": 82
    },
    {
      "midi": 36,
      "hit": false,
      "t": 143450.96130000072,
      "d": 780.4864000000525,
      "v": 88
    },
    {
      "midi": 64,
      "hit": false,
      "t": 143450.96130000072,
      "d": 810.9741500000528,
      "v": 102
    },
    {
      "midi": 48,
      "hit": false,
      "t": 143457.05885000073,
      "d": 451.21870000002673,
      "v": 85
    },
    {
      "midi": 55,
      "hit": false,
      "t": 143457.05885000073,
      "d": 792.6815000000352,
      "v": 98
    },
    {
      "midi": 60,
      "hit": false,
      "t": 143457.05885000073,
      "d": 829.2668000000413,
      "v": 93
    },
    {
      "midi": 48,
      "hit": false,
      "t": 144164.37465000077,
      "d": 103.65835000001243,
      "v": 90
    },
    {
      "midi": 55,
      "hit": false,
      "t": 144536.32520000078,
      "d": 1109.7541000000201,
      "v": 88
    },
    {
      "midi": 64,
      "hit": false,
      "t": 144536.32520000078,
      "d": 1152.436950000032,
      "v": 100
    },
    {
      "midi": 48,
      "hit": false,
      "t": 144542.42275000078,
      "d": 591.4623500000162,
      "v": 88
    },
    {
      "midi": 36,
      "hit": false,
      "t": 144542.42275000078,
      "d": 1115.851650000026,
      "v": 96
    },
    {
      "midi": 60,
      "hit": false,
      "t": 144542.42275000078,
      "d": 1128.0467500000377,
      "v": 96
    },
    {
      "midi": 48,
      "hit": false,
      "t": 145597.2989000008,
      "d": 432.9260500000091,
      "v": 98
    },
    {
      "midi": 36,
      "hit": false,
      "t": 145969.24945000082,
      "d": 60.975500000000466,
      "v": 93
    },
    {
      "midi": 76,
      "hit": false,
      "t": 146329.00490000003,
      "d": 189.02405000000726,
      "v": 98
    },
    {
      "midi": 72,
      "hit": false,
      "t": 146341.20000000083,
      "d": 591.4623500000162,
      "v": 90
    },
    {
      "midi": 76,
      "hit": false,
      "t": 146341.20000000083,
      "d": 609.7550000000338,
      "v": 98
    },
    {
      "midi": 69,
      "hit": false,
      "t": 146347.29755000083,
      "d": 597.559900000022,
      "v": 96
    },
    {
      "midi": 53,
      "hit": false,
      "t": 146353.39510000084,
      "d": 469.5113500000152,
      "v": 93
    },
    {
      "midi": 41,
      "hit": false,
      "t": 146353.39510000084,
      "d": 786.5839500000293,
      "v": 100
    },
    {
      "midi": 76,
      "hit": false,
      "t": 146731.44320000004,
      "d": 182.9265000000014,
      "v": 93
    },
    {
      "midi": 76,
      "hit": false,
      "t": 147091.19865000003,
      "d": 201.2191499999899,
      "v": 96
    },
    {
      "midi": 53,
      "hit": false,
      "t": 147097.29620000086,
      "d": 97.56080000000657,
      "v": 110
    },
    {
      "midi": 77,
      "hit": false,
      "t": 147261.93005000002,
      "d": 225.60935000001336,
      "v": 96
    },
    {
      "midi": 76,
      "hit": false,
      "t": 147450.95410000003,
      "d": 225.60935000001336,
      "v": 100
    },
    {
      "midi": 64,
      "hit": false,
      "t": 147481.44185000088,
      "d": 359.75545000002603,
      "v": 98
    },
    {
      "midi": 41,
      "hit": false,
      "t": 147481.44185000088,
      "d": 1128.0467500000377,
      "v": 90
    },
    {
      "midi": 60,
      "hit": false,
      "t": 147487.53940000088,
      "d": 341.46280000000843,
      "v": 93
    },
    {
      "midi": 53,
      "hit": false,
      "t": 147487.53940000088,
      "d": 542.6819500000274,
      "v": 88
    },
    {
      "midi": 57,
      "hit": false,
      "t": 147518.02715000088,
      "d": 286.58485000001383,
      "v": 88
    },
    {
      "midi": 72,
      "hit": false,
      "t": 147633.88060000003,
      "d": 628.0476500000223,
      "v": 98
    },
    {
      "midi": 69,
      "hit": false,
      "t": 148188.75765000092,
      "d": 414.6333999999915,
      "v": 93
    },
    {
      "midi": 69,
      "hit": false,
      "t": 148219.24540000004,
      "d": 713.4133500000171,
      "v": 96
    },
    {
      "midi": 53,
      "hit": false,
      "t": 148548.5131000009,
      "d": 396.340750000003,
      "v": 105
    },
    {
      "midi": 72,
      "hit": false,
      "t": 148554.61065000092,
      "d": 408.53584999998566,
      "v": 90
    },
    {
      "midi": 72,
      "hit": false,
      "t": 148908.26855000007,
      "d": 432.9260500000091,
      "v": 96
    },
    {
      "midi": 41,
      "hit": false,
      "t": 148908.2685500009,
      "d": 73.1705999999831,
      "v": 96
    },
    {
      "midi": 76,
      "hit": false,
      "t": 148914.36610000092,
      "d": 73.1705999999831,
      "v": 90
    },
    {
      "midi": 74,
      "hit": false,
      "t": 149274.12155000007,
      "d": 213.41425000000163,
      "v": 102
    },
    {
      "midi": 48,
      "hit": false,
      "t": 149316.8044000009,
      "d": 432.92604999998,
      "v": 93
    },
    {
      "midi": 71,
      "hit": false,
      "t": 149316.8044000009,
      "d": 524.3892999999807,
      "v": 96
    },
    {
      "midi": 74,
      "hit": false,
      "t": 149316.8044000009,
      "d": 560.9745999999868,
      "v": 105
    },
    {
      "midi": 67,
      "hit": false,
      "t": 149322.9019500009,
      "d": 542.6819499999692,
      "v": 105
    },
    {
      "midi": 36,
      "hit": false,
      "t": 149322.9019500009,
      "d": 798.7790499999828,
      "v": 96
    },
    {
      "midi": 73,
      "hit": false,
      "t": 149347.2921500009,
      "d": 18.292649999988498,
      "v": 49
    },
    {
      "midi": 74,
      "hit": false,
      "t": 149664.36475000007,
      "d": 182.9265000000014,
      "v": 98
    },
    {
      "midi": 74,
      "hit": false,
      "t": 150036.31530000007,
      "d": 207.31670000002487,
      "v": 98
    },
    {
      "midi": 48,
      "hit": false,
      "t": 150066.8030500009,
      "d": 91.4632500000007,
      "v": 93
    },
    {
      "midi": 76,
      "hit": false,
      "t": 150200.9491500001,
      "d": 225.60935000001336,
      "v": 88
    },
    {
      "midi": 74,
      "hit": false,
      "t": 150389.9732000001,
      "d": 225.60935000001336,
      "v": 96
    },
    {
      "midi": 59,
      "hit": false,
      "t": 150438.7536000009,
      "d": 420.7309499999974,
      "v": 90
    },
    {
      "midi": 62,
      "hit": false,
      "t": 150438.7536000009,
      "d": 445.12114999999176,
      "v": 110
    },
    {
      "midi": 55,
      "hit": false,
      "t": 150450.9487000009,
      "d": 390.24319999999716,
      "v": 100
    },
    {
      "midi": 48,
      "hit": false,
      "t": 150450.9487000009,
      "d": 640.2427499999758,
      "v": 78
    },
    {
      "midi": 36,
      "hit": false,
      "t": 150450.9487000009,
      "d": 1060.9736999999732,
      "v": 90
    },
    {
      "midi": 67,
      "hit": false,
      "t": 150585.0948000001,
      "d": 628.0476499999932,
      "v": 98
    },
    {
      "midi": 67,
      "hit": false,
      "t": 151146.06940000088,
      "d": 749.9986500000232,
      "v": 96
    },
    {
      "midi": 64,
      "hit": false,
      "t": 151176.5571500001,
      "d": 695.1206999999995,
      "v": 98
    },
    {
      "midi": 48,
      "hit": false,
      "t": 151505.82485000088,
      "d": 402.438300000038,
      "v": 64
    },
    {
      "midi": 71,
      "hit": false,
      "t": 151511.92240000088,
      "d": 396.34075000003213,
      "v": 96
    },
    {
      "midi": 67,
      "hit": false,
      "t": 151847.2876500001,
      "d": 323.1701499999908,
      "v": 102
    },
    {
      "midi": 74,
      "hit": false,
      "t": 151853.3852000009,
      "d": 79.26815000001807,
      "v": 98
    },
    {
      "midi": 36,
      "hit": false,
      "t": 151859.4827500009,
      "d": 54.8779500000237,
      "v": 85
    },
    {
      "midi": 76,
      "hit": false,
      "t": 152164.36025000009,
      "d": 945.1202500000072,
      "v": 85
    },
    {
      "midi": 53,
      "hit": false,
      "t": 152225.3357500009,
      "d": 396.3407499999739,
      "v": 90
    },
    {
      "midi": 69,
      "hit": false,
      "t": 152225.3357500009,
      "d": 463.41379999998026,
      "v": 93
    },
    {
      "midi": 76,
      "hit": false,
      "t": 152225.3357500009,
      "d": 493.9015499999805,
      "v": 107
    },
    {
      "midi": 72,
      "hit": false,
      "t": 152249.7259500009,
      "d": 439.0235999999859,
      "v": 93
    },
    {
      "midi": 41,
      "hit": false,
      "t": 152249.7259500009,
      "d": 719.5108999999647,
      "v": 100
    },
    {
      "midi": 53,
      "hit": false,
      "t": 152920.45645000087,
      "d": 85.36569999999483,
      "v": 102
    },
    {
      "midi": 76,
      "hit": false,
      "t": 153286.3094500001,
      "d": 1134.1442999999854,
      "v": 102
    },
    {
      "midi": 57,
      "hit": false,
      "t": 153310.69965000087,
      "d": 426.82850000000326,
      "v": 93
    },
    {
      "midi": 60,
      "hit": false,
      "t": 153310.69965000087,
      "d": 445.12114999999176,
      "v": 98
    },
    {
      "midi": 64,
      "hit": false,
      "t": 153310.69965000087,
      "d": 475.608899999992,
      "v": 113
    },
    {
      "midi": 53,
      "hit": false,
      "t": 153310.69965000087,
      "d": 762.1937500000058,
      "v": 90
    },
    {
      "midi": 41,
      "hit": false,
      "t": 153310.69965000087,
      "d": 1170.7295999999915,
      "v": 96
    },
    {
      "midi": 69,
      "hit": false,
      "t": 154066.79585000087,
      "d": 749.9986500000232,
      "v": 85
    },
    {
      "midi": 74,
      "hit": false,
      "t": 154371.67335000008,
      "d": 408.53585000001476,
      "v": 93
    },
    {
      "midi": 53,
      "hit": false,
      "t": 154426.55130000087,
      "d": 371.95055000000866,
      "v": 72
    },
    {
      "midi": 72,
      "hit": false,
      "t": 154426.55130000087,
      "d": 378.04810000001453,
      "v": 82
    },
    {
      "midi": 72,
      "hit": false,
      "t": 154737.5263500001,
      "d": 451.2186999999976,
      "v": 88
    },
    {
      "midi": 76,
      "hit": false,
      "t": 154755.81900000086,
      "d": 79.26815000001807,
      "v": 90
    },
    {
      "midi": 41,
      "hit": false,
      "t": 154768.01410000087,
      "d": 73.1706000000122,
      "v": 69
    },
    {
      "midi": 74,
      "hit": false,
      "t": 155139.9646500001,
      "d": 2359.7518500000006,
      "v": 105
    },
    {
      "midi": 48,
      "hit": false,
      "t": 155146.0622000009,
      "d": 402.4383000000089,
      "v": 75
    },
    {
      "midi": 36,
      "hit": false,
      "t": 155146.0622000009,
      "d": 792.681500000006,
      "v": 82
    },
    {
      "midi": 67,
      "hit": false,
      "t": 155146.0622000009,
      "d": 823.1692500000063,
      "v": 96
    },
    {
      "midi": 71,
      "hit": false,
      "t": 155146.0622000009,
      "d": 829.2668000000122,
      "v": 88
    },
    {
      "midi": 74,
      "hit": false,
      "t": 155146.0622000009,
      "d": 835.364350000018,
      "v": 102
    },
    {
      "midi": 48,
      "hit": false,
      "t": 155883.8657500009,
      "d": 103.65835000001243,
      "v": 88
    },
    {
      "midi": 48,
      "hit": false,
      "t": 156255.8163000009,
      "d": 664.6329500000284,
      "v": 90
    },
    {
      "midi": 67,
      "hit": false,
      "t": 156255.8163000009,
      "d": 1097.5590000000375,
      "v": 100
    },
    {
      "midi": 36,
      "hit": false,
      "t": 156255.8163000009,
      "d": 1109.7541000000492,
      "v": 93
    },
    {
      "midi": 74,
      "hit": false,
      "t": 156255.8163000009,
      "d": 1121.949200000061,
      "v": 102
    },
    {
      "midi": 71,
      "hit": false,
      "t": 156261.9138500009,
      "d": 1091.4614500000316,
      "v": 93
    },
    {
      "midi": 48,
      "hit": false,
      "t": 157298.49735000095,
      "d": 469.51135000004433,
      "v": 88
    },
    {
      "midi": 36,
      "hit": false,
      "t": 157694.83810000098,
      "d": 73.1706000000122,
      "v": 90
    },
    {
      "midi": 88,
      "hit": false,
      "t": 158042.3984500001,
      "d": 786.5839500000002,
      "v": 102
    },
    {
      "midi": 76,
      "hit": false,
      "t": 158042.3984500001,
      "d": 829.2668000000122,
      "v": 98
    },
    {
      "midi": 57,
      "hit": false,
      "t": 158048.496000001,
      "d": 1914.630700000067,
      "v": 98
    },
    {
      "midi": 48,
      "hit": false,
      "t": 158078.983750001,
      "d": 439.023600000015,
      "v": 66
    },
    {
      "midi": 53,
      "hit": false,
      "t": 158097.276400001,
      "d": 414.63340000002063,
      "v": 105
    },
    {
      "midi": 41,
      "hit": false,
      "t": 158103.373950001,
      "d": 707.3158000000403,
      "v": 105
    },
    {
      "midi": 53,
      "hit": false,
      "t": 158804.59220000103,
      "d": 439.0236000000441,
      "v": 82
    },
    {
      "midi": 48,
      "hit": false,
      "t": 158810.68975000104,
      "d": 439.0236000000441,
      "v": 64
    },
    {
      "midi": 88,
      "hit": false,
      "t": 159139.9574500001,
      "d": 1164.6320500000147,
      "v": 100
    },
    {
      "midi": 76,
      "hit": false,
      "t": 159152.15255000012,
      "d": 1128.0467500000086,
      "v": 96
    },
    {
      "midi": 41,
      "hit": false,
      "t": 159158.25010000105,
      "d": 73.1706000000122,
      "v": 66
    },
    {
      "midi": 53,
      "hit": false,
      "t": 159511.90800000107,
      "d": 103.65835000001243,
      "v": 72
    },
    {
      "midi": 41,
      "hit": false,
      "t": 159518.00555000108,
      "d": 67.07305000000633,
      "v": 72
    },
    {
      "midi": 48,
      "hit": false,
      "t": 159518.00555000108,
      "d": 439.0235999999859,
      "v": 69
    },
    {
      "midi": 57,
      "hit": false,
      "t": 160237.51645000107,
      "d": 231.70690000001923,
      "v": 90
    },
    {
      "midi": 74,
      "hit": false,
      "t": 160243.61400000012,
      "d": 213.41425000000163,
      "v": 88
    },
    {
      "midi": 53,
      "hit": false,
      "t": 160243.61400000108,
      "d": 384.1456500000204,
      "v": 64
    },
    {
      "midi": 86,
      "hit": false,
      "t": 160249.71155000012,
      "d": 219.5118000000075,
      "v": 96
    },
    {
      "midi": 48,
      "hit": false,
      "t": 160249.71155000108,
      "d": 323.17015000001993,
      "v": 75
    },
    {
      "midi": 59,
      "hit": false,
      "t": 160402.15030000109,
      "d": 274.3897500000312,
      "v": 78
    },
    {
      "midi": 72,
      "hit": false,
      "t": 160414.3454000001,
      "d": 609.7550000000338,
      "v": 75
    },
    {
      "midi": 84,
      "hit": false,
      "t": 160420.4429500001,
      "d": 628.0476500000223,
      "v": 96
    },
    {
      "midi": 60,
      "hit": false,
      "t": 160603.3694500011,
      "d": 402.438300000038,
      "v": 98
    },
    {
      "midi": 41,
      "hit": false,
      "t": 160609.4670000011,
      "d": 54.8779499999946,
      "v": 85
    },
    {
      "midi": 48,
      "hit": false,
      "t": 160981.41755000112,
      "d": 323.17015000001993,
      "v": 68
    },
    {
      "midi": 55,
      "hit": false,
      "t": 160981.41755000112,
      "d": 487.80400000003283,
      "v": 98
    },
    {
      "midi": 36,
      "hit": false,
      "t": 160981.41755000112,
      "d": 743.9011000000464,
      "v": 78
    },
    {
      "midi": 74,
      "hit": false,
      "t": 160987.51510000014,
      "d": 2073.1669999999867,
      "v": 98
    },
    {
      "midi": 86,
      "hit": false,
      "t": 160993.61265000014,
      "d": 2036.5816999999806,
      "v": 105
    },
    {
      "midi": 43,
      "hit": false,
      "t": 160993.61265000113,
      "d": 353.65790000002016,
      "v": 88
    },
    {
      "midi": 48,
      "hit": false,
      "t": 161664.34315000116,
      "d": 475.608899999992,
      "v": 68
    },
    {
      "midi": 43,
      "hit": false,
      "t": 161676.53825000118,
      "d": 463.41379999998026,
      "v": 82
    },
    {
      "midi": 36,
      "hit": false,
      "t": 162024.09860000116,
      "d": 91.4632500000007,
      "v": 82
    },
    {
      "midi": 36,
      "hit": false,
      "t": 162414.34180000116,
      "d": 103.65835000001243,
      "v": 96
    },
    {
      "midi": 48,
      "hit": false,
      "t": 162414.34180000116,
      "d": 146.3412000000244,
      "v": 96
    },
    {
      "midi": 43,
      "hit": false,
      "t": 162420.43935000116,
      "d": 103.65835000001243,
      "v": 98
    },
    {
      "midi": 60,
      "hit": false,
      "t": 163139.9502500012,
      "d": 384.1456500000204,
      "v": 88
    },
    {
      "midi": 64,
      "hit": false,
      "t": 163152.1453500012,
      "d": 79.26815000001807,
      "v": 90
    },
    {
      "midi": 67,
      "hit": false,
      "t": 163152.1453500012,
      "d": 91.4632500000298,
      "v": 105
    },
    {
      "midi": 72,
      "hit": false,
      "t": 163152.1453500012,
      "d": 115.85345000002417,
      "v": 96
    },
    {
      "midi": 55,
      "hit": false,
      "t": 163158.2429000012,
      "d": 384.1456499999913,
      "v": 88
    },
    {
      "midi": 48,
      "hit": false,
      "t": 163505.80325000122,
      "d": 67.07304999997723,
      "v": 66
    },
    {
      "midi": 41,
      "hit": false,
      "t": 163908.2415500012,
      "d": 786.5839500000293,
      "v": 100
    },
    {
      "midi": 69,
      "hit": false,
      "t": 163908.2415500012,
      "d": 920.7300500000129,
      "v": 102
    },
    {
      "midi": 60,
      "hit": false,
      "t": 163908.2415500012,
      "d": 999.9982000000018,
      "v": 90
    },
    {
      "midi": 53,
      "hit": false,
      "t": 163914.3391000012,
      "d": 378.04810000001453,
      "v": 93
    },
    {
      "midi": 48,
      "hit": false,
      "t": 163914.3391000012,
      "d": 396.340750000003,
      "v": 72
    },
    {
      "midi": 65,
      "hit": false,
      "t": 163914.3391000012,
      "d": 896.3398500000185,
      "v": 98
    },
    {
      "midi": 53,
      "hit": false,
      "t": 164652.14265000122,
      "d": 420.7309499999974,
      "v": 93
    },
    {
      "midi": 48,
      "hit": false,
      "t": 164658.24020000122,
      "d": 439.0235999999859,
      "v": 82
    },
    {
      "midi": 41,
      "hit": false,
      "t": 165005.8005500012,
      "d": 73.1706000000122,
      "v": 88
    },
    {
      "midi": 48,
      "hit": false,
      "t": 165377.75110000122,
      "d": 384.1456500000204,
      "v": 69
    },
    {
      "midi": 53,
      "hit": false,
      "t": 165377.75110000122,
      "d": 469.5113500000152,
      "v": 82
    },
    {
      "midi": 41,
      "hit": false,
      "t": 165377.75110000122,
      "d": 786.5839500000293,
      "v": 78
    },
    {
      "midi": 69,
      "hit": false,
      "t": 165383.84865000122,
      "d": 1128.0467500000668,
      "v": 100
    },
    {
      "midi": 60,
      "hit": false,
      "t": 165389.94620000123,
      "d": 1091.4614500000316,
      "v": 85
    },
    {
      "midi": 65,
      "hit": false,
      "t": 165389.94620000123,
      "d": 1097.5590000000375,
      "v": 93
    },
    {
      "midi": 53,
      "hit": false,
      "t": 166097.26200000124,
      "d": 396.34075000003213,
      "v": 82
    },
    {
      "midi": 48,
      "hit": false,
      "t": 166103.35955000125,
      "d": 396.34075000003213,
      "v": 85
    },
    {
      "midi": 41,
      "hit": false,
      "t": 166469.21255000125,
      "d": 60.97550000002957,
      "v": 93
    },
    {
      "midi": 48,
      "hit": false,
      "t": 166841.1631000013,
      "d": 310.9750500000082,
      "v": 55
    },
    {
      "midi": 36,
      "hit": false,
      "t": 166847.2606500013,
      "d": 274.3897500000021,
      "v": 88
    },
    {
      "midi": 71,
      "hit": false,
      "t": 166847.2606500013,
      "d": 1128.0467500000086,
      "v": 100
    },
    {
      "midi": 64,
      "hit": false,
      "t": 166853.3582000013,
      "d": 1085.3638999999966,
      "v": 98
    },
    {
      "midi": 60,
      "hit": false,
      "t": 167542.3813500013,
      "d": 457.3162500000326,
      "v": 88
    },
    {
      "midi": 55,
      "hit": false,
      "t": 167554.5764500013,
      "d": 439.023600000015,
      "v": 93
    },
    {
      "midi": 48,
      "hit": false,
      "t": 167908.2343500013,
      "d": 79.26815000001807,
      "v": 78
    },
    {
      "midi": 55,
      "hit": false,
      "t": 168280.18490000133,
      "d": 420.7309500000265,
      "v": 69
    },
    {
      "midi": 48,
      "hit": false,
      "t": 168280.18490000133,
      "d": 762.1937500000349,
      "v": 63
    },
    {
      "midi": 67,
      "hit": false,
      "t": 168286.28245000134,
      "d": 1121.949200000061,
      "v": 102
    },
    {
      "midi": 60,
      "hit": false,
      "t": 168292.38000000134,
      "d": 439.023600000015,
      "v": 66
    },
    {
      "midi": 64,
      "hit": false,
      "t": 168292.38000000134,
      "d": 1103.6565500000434,
      "v": 98
    },
    {
      "midi": 60,
      "hit": false,
      "t": 168981.40315000137,
      "d": 439.0236000000441,
      "v": 85
    },
    {
      "midi": 55,
      "hit": false,
      "t": 168987.50070000137,
      "d": 451.21870000002673,
      "v": 93
    },
    {
      "midi": 48,
      "hit": false,
      "t": 169383.84145000138,
      "d": 85.36570000002393,
      "v": 90
    },
    {
      "midi": 60,
      "hit": false,
      "t": 169786.2797500014,
      "d": 1164.6320500000438,
      "v": 90
    },
    {
      "midi": 41,
      "hit": false,
      "t": 169792.37730000142,
      "d": 762.1937500000349,
      "v": 93
    },
    {
      "midi": 48,
      "hit": false,
      "t": 169798.47485000142,
      "d": 402.4383000000089,
      "v": 68
    },
    {
      "midi": 53,
      "hit": false,
      "t": 169798.47485000142,
      "d": 445.12115000002086,
      "v": 88
    },
    {
      "midi": 53,
      "hit": false,
      "t": 170511.88820000144,
      "d": 432.9260500000091,
      "v": 82
    },
    {
      "midi": 48,
      "hit": false,
      "t": 170524.08330000145,
      "d": 408.53584999998566,
      "v": 88
    },
    {
      "midi": 41,
      "hit": false,
      "t": 170877.74120000144,
      "d": 73.1706000000122,
      "v": 96
    },
    {
      "midi": 69,
      "hit": false,
      "t": 170883.83875000145,
      "d": 85.36569999999483,
      "v": 75
    },
    {
      "midi": 55,
      "hit": false,
      "t": 171225.30155000146,
      "d": 390.24320000002626,
      "v": 93
    },
    {
      "midi": 50,
      "hit": false,
      "t": 171231.39910000146,
      "d": 384.1456500000204,
      "v": 72
    },
    {
      "midi": 67,
      "hit": false,
      "t": 171231.39910000146,
      "d": 737.8035500000697,
      "v": 105
    },
    {
      "midi": 43,
      "hit": false,
      "t": 171231.39910000146,
      "d": 743.9011000000755,
      "v": 93
    },
    {
      "midi": 59,
      "hit": false,
      "t": 171231.39910000146,
      "d": 1091.4614500000898,
      "v": 72
    },
    {
      "midi": 62,
      "hit": false,
      "t": 171237.49665000147,
      "d": 201.2191499999899,
      "v": 96
    },
    {
      "midi": 62,
      "hit": false,
      "t": 171572.86190000147,
      "d": 774.3888500000758,
      "v": 90
    },
    {
      "midi": 64,
      "hit": false,
      "t": 171932.6173500015,
      "d": 475.6089000000502,
      "v": 90
    },
    {
      "midi": 55,
      "hit": false,
      "t": 171944.8124500015,
      "d": 396.34075000003213,
      "v": 78
    },
    {
      "midi": 50,
      "hit": false,
      "t": 171957.00755000152,
      "d": 390.24320000002626,
      "v": 82
    },
    {
      "midi": 43,
      "hit": false,
      "t": 172304.56790000154,
      "d": 73.1706000000122,
      "v": 93
    },
    {
      "midi": 65,
      "hit": false,
      "t": 172310.66545000154,
      "d": 445.12115000002086,
      "v": 102
    },
    {
      "midi": 60,
      "hit": false,
      "t": 172688.71355000156,
      "d": 1481.7046499999997,
      "v": 85
    },
    {
      "midi": 64,
      "hit": false,
      "t": 172688.71355000156,
      "d": 1493.8997500000114,
      "v": 102
    },
    {
      "midi": 36,
      "hit": false,
      "t": 172694.81110000156,
      "d": 774.3888499999885,
      "v": 93
    },
    {
      "midi": 67,
      "hit": false,
      "t": 172694.81110000156,
      "d": 1512.1924,
      "v": 110
    },
    {
      "midi": 48,
      "hit": false,
      "t": 172700.90865000157,
      "d": 298.77994999999646,
      "v": 85
    },
    {
      "midi": 48,
      "hit": false,
      "t": 173438.71220000155,
      "d": 54.8779499999946,
      "v": 85
    },
    {
      "midi": 46,
      "hit": false,
      "t": 173804.56520000155,
      "d": 335.36525000000256,
      "v": 103
    },
    {
      "midi": 36,
      "hit": false,
      "t": 173816.76030000157,
      "d": 274.3897500000021,
      "v": 98
    },
    {
      "midi": 58,
      "hit": false,
      "t": 174902.12420000156,
      "d": 225.60934999998426,
      "v": 93
    },
    {
      "midi": 69,
      "hit": false,
      "t": 174908.22175000157,
      "d": 414.6333999999915,
      "v": 100
    },
    {
      "midi": 55,
      "hit": false,
      "t": 174926.51440000156,
      "d": 335.36525000000256,
      "v": 88
    },
    {
      "midi": 48,
      "hit": false,
      "t": 175267.97720000157,
      "d": 36.5853000000061,
      "v": 58
    },
    {
      "midi": 71,
      "hit": false,
      "t": 175280.17230000158,
      "d": 60.97549999997136,
      "v": 88
    },
    {
      "midi": 69,
      "hit": false,
      "t": 175639.92775000155,
      "d": 1158.534500000038,
      "v": 96
    },
    {
      "midi": 41,
      "hit": false,
      "t": 175646.02530000155,
      "d": 286.58485000001383,
      "v": 96
    },
    {
      "midi": 48,
      "hit": false,
      "t": 175646.02530000155,
      "d": 286.58485000001383,
      "v": 75
    },
    {
      "midi": 65,
      "hit": false,
      "t": 175646.02530000155,
      "d": 457.3162500000326,
      "v": 96
    },
    {
      "midi": 72,
      "hit": false,
      "t": 175646.02530000155,
      "d": 1152.436950000032,
      "v": 98
    },
    {
      "midi": 53,
      "hit": false,
      "t": 175652.12285000156,
      "d": 323.17015000001993,
      "v": 88
    },
    {
      "midi": 65,
      "hit": false,
      "t": 176383.8288500016,
      "d": 396.340750000003,
      "v": 93
    },
    {
      "midi": 60,
      "hit": false,
      "t": 176383.8288500016,
      "d": 445.12114999999176,
      "v": 90
    },
    {
      "midi": 53,
      "hit": false,
      "t": 176743.5843000016,
      "d": 79.26814999998896,
      "v": 72
    },
    {
      "midi": 72,
      "hit": false,
      "t": 177091.14465000157,
      "d": 1067.0712500000373,
      "v": 93
    },
    {
      "midi": 65,
      "hit": false,
      "t": 177097.24220000158,
      "d": 384.1456500000204,
      "v": 90
    },
    {
      "midi": 69,
      "hit": false,
      "t": 177097.24220000158,
      "d": 1036.583500000037,
      "v": 93
    },
    {
      "midi": 60,
      "hit": false,
      "t": 177103.33975000159,
      "d": 365.8530000000028,
      "v": 78
    },
    {
      "midi": 53,
      "hit": false,
      "t": 177115.5348500016,
      "d": 768.2913000000117,
      "v": 75
    },
    {
      "midi": 65,
      "hit": false,
      "t": 177822.8506500016,
      "d": 335.36525000000256,
      "v": 88
    },
    {
      "midi": 60,
      "hit": false,
      "t": 177828.9482000016,
      "d": 365.8530000000028,
      "v": 90
    },
    {
      "midi": 53,
      "hit": false,
      "t": 178158.2159000016,
      "d": 67.07305000000633,
      "v": 88
    },
    {
      "midi": 60,
      "hit": false,
      "t": 178554.5566500016,
      "d": 469.5113500000152,
      "v": 69
    },
    {
      "midi": 48,
      "hit": false,
      "t": 178554.5566500016,
      "d": 762.1937500000349,
      "v": 78
    },
    {
      "midi": 71,
      "hit": false,
      "t": 178560.65420000162,
      "d": 1091.4614500000316,
      "v": 85
    },
    {
      "midi": 67,
      "hit": false,
      "t": 178560.65420000162,
      "d": 1103.6565500000434,
      "v": 100
    },
    {
      "midi": 55,
      "hit": false,
      "t": 178566.75175000163,
      "d": 469.5113500000152,
      "v": 88
    },
    {
      "midi": 64,
      "hit": false,
      "t": 178566.75175000163,
      "d": 1097.5590000000375,
      "v": 90
    },
    {
      "midi": 60,
      "hit": false,
      "t": 179249.67735000164,
      "d": 463.41380000003846,
      "v": 72
    },
    {
      "midi": 55,
      "hit": false,
      "t": 179261.87245000165,
      "d": 451.21870000002673,
      "v": 93
    },
    {
      "midi": 48,
      "hit": false,
      "t": 179609.43280000164,
      "d": 97.56080000003567,
      "v": 75
    },
    {
      "midi": 48,
      "hit": false,
      "t": 179987.48090000168,
      "d": 804.8766000000469,
      "v": 63
    },
    {
      "midi": 60,
      "hit": false,
      "t": 179993.5784500017,
      "d": 445.12115000002086,
      "v": 64
    },
    {
      "midi": 67,
      "hit": false,
      "t": 179993.5784500017,
      "d": 1115.851650000026,
      "v": 105
    },
    {
      "midi": 64,
      "hit": false,
      "t": 179999.6760000017,
      "d": 1109.7541000000201,
      "v": 85
    },
    {
      "midi": 55,
      "hit": false,
      "t": 180005.7735500017,
      "d": 439.023600000015,
      "v": 90
    },
    {
      "midi": 60,
      "hit": false,
      "t": 180731.38200000173,
      "d": 378.0480999999854,
      "v": 88
    },
    {
      "midi": 55,
      "hit": false,
      "t": 180743.57710000174,
      "d": 390.24319999996806,
      "v": 100
    },
    {
      "midi": 48,
      "hit": false,
      "t": 181091.13745000173,
      "d": 67.07304999997723,
      "v": 69
    },
    {
      "midi": 41,
      "hit": false,
      "t": 181493.5757500017,
      "d": 762.1937500000349,
      "v": 98
    },
    {
      "midi": 60,
      "hit": false,
      "t": 181493.5757500017,
      "d": 1115.851650000055,
      "v": 98
    },
    {
      "midi": 53,
      "hit": false,
      "t": 181511.8684000017,
      "d": 67.07305000000633,
      "v": 42
    },
    {
      "midi": 53,
      "hit": false,
      "t": 182200.89155000172,
      "d": 408.53585000004387,
      "v": 93
    },
    {
      "midi": 48,
      "hit": false,
      "t": 182213.08665000173,
      "d": 359.75545000002603,
      "v": 88
    },
    {
      "midi": 41,
      "hit": false,
      "t": 182542.35435000175,
      "d": 54.8779499999946,
      "v": 93
    },
    {
      "midi": 69,
      "hit": false,
      "t": 182554.54945000177,
      "d": 79.26814999998896,
      "v": 100
    },
    {
      "midi": 67,
      "hit": false,
      "t": 182932.59755000175,
      "d": 719.5108999999939,
      "v": 107
    },
    {
      "midi": 53,
      "hit": false,
      "t": 182932.59755000175,
      "d": 737.8035500000115,
      "v": 93
    },
    {
      "midi": 43,
      "hit": false,
      "t": 182932.59755000175,
      "d": 756.0962,
      "v": 98
    },
    {
      "midi": 62,
      "hit": false,
      "t": 182938.69510000176,
      "d": 286.5848499999847,
      "v": 102
    },
    {
      "midi": 50,
      "hit": false,
      "t": 182938.69510000176,
      "d": 719.5108999999939,
      "v": 88
    },
    {
      "midi": 59,
      "hit": false,
      "t": 182938.69510000176,
      "d": 756.0962,
      "v": 88
    },
    {
      "midi": 62,
      "hit": false,
      "t": 183316.74320000174,
      "d": 445.12115000002086,
      "v": 75
    },
    {
      "midi": 64,
      "hit": false,
      "t": 183688.69375000175,
      "d": 201.2191499999899,
      "v": 105
    },
    {
      "midi": 67,
      "hit": false,
      "t": 183841.13250000175,
      "d": 621.9501000000164,
      "v": 113
    },
    {
      "midi": 36,
      "hit": false,
      "t": 184414.30220000175,
      "d": 91.4632500000298,
      "v": 96
    },
    {
      "midi": 60,
      "hit": false,
      "t": 184414.30220000175,
      "d": 256.0971000000427,
      "v": 93
    },
    {
      "midi": 48,
      "hit": false,
      "t": 184420.39975000176,
      "d": 103.65835000004154,
      "v": 88
    },
    {
      "midi": 43,
      "hit": false,
      "t": 184432.59485000177,
      "d": 79.26815000001807,
      "v": 105
    },
    {
      "midi": 60,
      "hit": false,
      "t": 185146.0082000018,
      "d": 408.53585000001476,
      "v": 96
    },
    {
      "midi": 55,
      "hit": false,
      "t": 185152.1057500018,
      "d": 396.340750000003,
      "v": 98
    },
    {
      "midi": 48,
      "hit": false,
      "t": 185524.0563000018,
      "d": 54.8779499999946,
      "v": 37
    },
    {
      "midi": 43,
      "hit": false,
      "t": 185902.1044000018,
      "d": 670.7305000000051,
      "v": 96
    },
    {
      "midi": 67,
      "hit": false,
      "t": 185902.1044000018,
      "d": 701.2182500000054,
      "v": 105
    },
    {
      "midi": 53,
      "hit": false,
      "t": 185902.1044000018,
      "d": 731.7060000000056,
      "v": 93
    },
    {
      "midi": 59,
      "hit": false,
      "t": 185908.2019500018,
      "d": 664.6329499999993,
      "v": 88
    },
    {
      "midi": 62,
      "hit": false,
      "t": 185908.2019500018,
      "d": 695.1206999999995,
      "v": 100
    },
    {
      "midi": 50,
      "hit": false,
      "t": 185908.2019500018,
      "d": 701.2182500000054,
      "v": 82
    },
    {
      "midi": 55,
      "hit": false,
      "t": 187347.22375000178,
      "d": 1859.752749999985,
      "v": 64
    },
    {
      "midi": 64,
      "hit": false,
      "t": 187347.22375000178,
      "d": 1871.9478499999968,
      "v": 85
    },
    {
      "midi": 48,
      "hit": false,
      "t": 187347.22375000178,
      "d": 1908.533150000003,
      "v": 59
    },
    {
      "midi": 67,
      "hit": false,
      "t": 187347.22375000178,
      "d": 1908.533150000003,
      "v": 96
    },
    {
      "midi": 60,
      "hit": false,
      "t": 187347.22375000178,
      "d": 1926.8257999999914,
      "v": 55
    },
    {
      "midi": 59,
      "hit": false,
      "t": 189871.60945000176,
      "d": 67.07305000000633,
      "v": 75
    },
    {
      "midi": 47,
      "hit": false,
      "t": 189877.70700000177,
      "d": 60.975500000000466,
      "v": 61
    },
    {
      "midi": 55,
      "hit": false,
      "t": 189883.80455000178,
      "d": 60.975500000000466,
      "v": 82
    },
    {
      "midi": 52,
      "hit": false,
      "t": 190243.56000000177,
      "d": 2054.8743500000273,
      "v": 82
    },
    {
      "midi": 57,
      "hit": false,
      "t": 190243.56000000177,
      "d": 2079.2645500000217,
      "v": 64
    },
    {
      "midi": 45,
      "hit": false,
      "t": 190249.65755000178,
      "d": 2036.5817000000097,
      "v": 59
    },
    {
      "midi": 64,
      "hit": false,
      "t": 190249.65755000178,
      "d": 2146.337600000028,
      "v": 90
    },
    {
      "midi": 60,
      "hit": false,
      "t": 190249.65755000178,
      "d": 2164.6302500000165,
      "v": 78
    },
    {
      "midi": 43,
      "hit": false,
      "t": 192780.1408000018,
      "d": 73.1706000000122,
      "v": 55
    },
    {
      "midi": 55,
      "hit": false,
      "t": 192780.1408000018,
      "d": 79.26815000001807,
      "v": 62
    },
    {
      "midi": 52,
      "hit": false,
      "t": 192792.3359000018,
      "d": 60.975500000000466,
      "v": 62
    },
    {
      "midi": 48,
      "hit": false,
      "t": 193152.0913500018,
      "d": 451.21870000002673,
      "v": 64
    },
    {
      "midi": 53,
      "hit": false,
      "t": 193152.0913500018,
      "d": 469.5113500000152,
      "v": 57
    },
    {
      "midi": 57,
      "hit": false,
      "t": 193152.0913500018,
      "d": 1152.436950000003,
      "v": 78
    },
    {
      "midi": 41,
      "hit": false,
      "t": 193158.1889000018,
      "d": 810.9741499999946,
      "v": 58
    },
    {
      "midi": 53,
      "hit": false,
      "t": 193914.2851000018,
      "d": 378.0480999999854,
      "v": 82
    },
    {
      "midi": 48,
      "hit": false,
      "t": 193920.38265000182,
      "d": 371.95054999997956,
      "v": 78
    },
    {
      "midi": 41,
      "hit": false,
      "t": 194267.9430000018,
      "d": 54.8779499999946,
      "v": 82
    },
    {
      "midi": 38,
      "hit": false,
      "t": 194645.9911000018,
      "d": 725.6084500000288,
      "v": 75
    },
    {
      "midi": 65,
      "hit": false,
      "t": 194645.9911000018,
      "d": 725.6084500000288,
      "v": 88
    },
    {
      "midi": 50,
      "hit": false,
      "t": 194652.0886500018,
      "d": 420.7309499999974,
      "v": 59
    },
    {
      "midi": 57,
      "hit": false,
      "t": 194652.0886500018,
      "d": 707.3158000000112,
      "v": 63
    },
    {
      "midi": 45,
      "hit": false,
      "t": 194658.1862000018,
      "d": 420.7309499999974,
      "v": 75
    },
    {
      "midi": 62,
      "hit": false,
      "t": 194664.2837500018,
      "d": 701.2182500000054,
      "v": 100
    },
    {
      "midi": 50,
      "hit": false,
      "t": 195359.4044500018,
      "d": 378.04810000001453,
      "v": 69
    },
    {
      "midi": 45,
      "hit": false,
      "t": 195377.69710000182,
      "d": 371.95055000000866,
      "v": 82
    },
    {
      "midi": 38,
      "hit": false,
      "t": 195713.06235000183,
      "d": 54.8779499999946,
      "v": 90
    },
    {
      "midi": 46,
      "hit": false,
      "t": 196103.30555000182,
      "d": 439.023600000015,
      "v": 82
    },
    {
      "midi": 34,
      "hit": false,
      "t": 196115.50065000184,
      "d": 670.7305000000051,
      "v": 93
    },
    {
      "midi": 53,
      "hit": false,
      "t": 196115.50065000184,
      "d": 1060.9737000000023,
      "v": 78
    },
    {
      "midi": 62,
      "hit": false,
      "t": 196115.50065000184,
      "d": 1067.0712500000081,
      "v": 72
    },
    {
      "midi": 58,
      "hit": false,
      "t": 196121.59820000184,
      "d": 1067.0712500000081,
      "v": 97
    },
    {
      "midi": 46,
      "hit": false,
      "t": 196804.52380000183,
      "d": 384.1456500000204,
      "v": 97
    },
    {
      "midi": 34,
      "hit": false,
      "t": 197176.47435000184,
      "d": 54.8779500000237,
      "v": 74
    },
    {
      "midi": 31,
      "hit": false,
      "t": 197566.71755000186,
      "d": 365.8530000000028,
      "v": 88
    },
    {
      "midi": 43,
      "hit": false,
      "t": 197572.81510000187,
      "d": 402.4383000000089,
      "v": 93
    },
    {
      "midi": 59,
      "hit": false,
      "t": 197578.91265000188,
      "d": 432.9260500000091,
      "v": 78
    },
    {
      "midi": 62,
      "hit": false,
      "t": 197578.91265000188,
      "d": 445.12115000002086,
      "v": 90
    },
    {
      "midi": 55,
      "hit": false,
      "t": 197585.01020000188,
      "d": 420.7309499999974,
      "v": 96
    },
    {
      "midi": 67,
      "hit": false,
      "t": 199011.8369000019,
      "d": 1786.582150000002,
      "v": 100
    },
    {
      "midi": 48,
      "hit": false,
      "t": 199011.8369000019,
      "d": 1847.5576500000025,
      "v": 48
    },
    {
      "midi": 64,
      "hit": false,
      "t": 199017.9344500019,
      "d": 1804.8747999999905,
      "v": 88
    },
    {
      "midi": 55,
      "hit": false,
      "t": 199017.9344500019,
      "d": 1835.3625499999907,
      "v": 63
    },
    {
      "midi": 60,
      "hit": false,
      "t": 199017.9344500019,
      "d": 1835.3625499999907,
      "v": 51
    },
    {
      "midi": 48,
      "hit": false,
      "t": 201243.5402000019,
      "d": 109.7559000000183,
      "v": 57
    },
    {
      "midi": 64,
      "hit": false,
      "t": 201243.5402000019,
      "d": 152.43875000003027,
      "v": 85
    },
    {
      "midi": 67,
      "hit": false,
      "t": 201243.5402000019,
      "d": 2536.5808000000834,
      "v": 100
    },
    {
      "midi": 60,
      "hit": false,
      "t": 201261.8328500019,
      "d": 97.56080000003567,
      "v": 62
    },
    {
      "midi": 55,
      "hit": false,
      "t": 201267.9304000019,
      "d": 73.1706000000122,
      "v": 82
    },
    {
      "midi": 47,
      "hit": false,
      "t": 201615.49075000195,
      "d": 85.36570000002393,
      "v": 61
    },
    {
      "midi": 59,
      "hit": false,
      "t": 201621.58830000195,
      "d": 60.975500000000466,
      "v": 66
    },
    {
      "midi": 62,
      "hit": false,
      "t": 201621.58830000195,
      "d": 73.1706000000122,
      "v": 85
    },
    {
      "midi": 55,
      "hit": false,
      "t": 201627.68585000196,
      "d": 60.975500000000466,
      "v": 82
    },
    {
      "midi": 45,
      "hit": false,
      "t": 201975.24620000197,
      "d": 1792.6797000000079,
      "v": 69
    },
    {
      "midi": 57,
      "hit": false,
      "t": 201975.24620000197,
      "d": 1829.265000000043,
      "v": 61
    },
    {
      "midi": 60,
      "hit": false,
      "t": 201981.34375000198,
      "d": 1780.4845999999961,
      "v": 90
    },
    {
      "midi": 52,
      "hit": false,
      "t": 201981.34375000198,
      "d": 1810.9723500000255,
      "v": 75
    },
    {
      "midi": 60,
      "hit": false,
      "t": 204176.46175000202,
      "d": 384.1456500000495,
      "v": 88
    },
    {
      "midi": 57,
      "hit": false,
      "t": 204188.65685000204,
      "d": 85.36570000002393,
      "v": 69
    },
    {
      "midi": 45,
      "hit": false,
      "t": 204188.65685000204,
      "d": 91.4632500000298,
      "v": 68
    },
    {
      "midi": 52,
      "hit": false,
      "t": 204194.75440000204,
      "d": 85.36570000002393,
      "v": 88
    },
    {
      "midi": 52,
      "hit": false,
      "t": 204524.02210000207,
      "d": 67.07305000000633,
      "v": 72
    },
    {
      "midi": 55,
      "hit": false,
      "t": 204524.02210000207,
      "d": 67.07305000000633,
      "v": 85
    },
    {
      "midi": 59,
      "hit": false,
      "t": 204524.02210000207,
      "d": 445.12115000002086,
      "v": 90
    },
    {
      "midi": 43,
      "hit": false,
      "t": 204530.11965000207,
      "d": 73.1706000000122,
      "v": 78
    },
    {
      "midi": 53,
      "hit": false,
      "t": 204902.07020000208,
      "d": 445.12114999999176,
      "v": 75
    },
    {
      "midi": 48,
      "hit": false,
      "t": 204902.07020000208,
      "d": 481.70644999999786,
      "v": 75
    },
    {
      "midi": 41,
      "hit": false,
      "t": 204902.07020000208,
      "d": 780.4863999999943,
      "v": 88
    },
    {
      "midi": 57,
      "hit": false,
      "t": 204914.2653000021,
      "d": 1134.1442999999854,
      "v": 75
    },
    {
      "midi": 53,
      "hit": false,
      "t": 205682.55660000208,
      "d": 359.7554499999969,
      "v": 93
    },
    {
      "midi": 48,
      "hit": false,
      "t": 205688.65415000208,
      "d": 365.8530000000028,
      "v": 72
    },
    {
      "midi": 41,
      "hit": false,
      "t": 206017.92185000208,
      "d": 67.07305000000633,
      "v": 93
    },
    {
      "midi": 38,
      "hit": false,
      "t": 206408.16505000208,
      "d": 768.2913000000408,
      "v": 72
    },
    {
      "midi": 65,
      "hit": false,
      "t": 206408.16505000208,
      "d": 780.4864000000525,
      "v": 96
    },
    {
      "midi": 57,
      "hit": false,
      "t": 206408.16505000208,
      "d": 829.2668000000413,
      "v": 75
    },
    {
      "midi": 50,
      "hit": false,
      "t": 206414.26260000208,
      "d": 414.63340000002063,
      "v": 63
    },
    {
      "midi": 45,
      "hit": false,
      "t": 206420.3601500021,
      "d": 365.8530000000028,
      "v": 66
    },
    {
      "midi": 62,
      "hit": false,
      "t": 206420.3601500021,
      "d": 823.1692500000354,
      "v": 93
    },
    {
      "midi": 50,
      "hit": false,
      "t": 207109.3833000021,
      "d": 353.65790000002016,
      "v": 63
    },
    {
      "midi": 45,
      "hit": false,
      "t": 207115.48085000212,
      "d": 359.75545000002603,
      "v": 69
    },
    {
      "midi": 38,
      "hit": false,
      "t": 207438.65100000214,
      "d": 54.8779499999946,
      "v": 78
    },
    {
      "midi": 31,
      "hit": false,
      "t": 207841.08930000215,
      "d": 323.1701499999908,
      "v": 64
    },
    {
      "midi": 43,
      "hit": false,
      "t": 207853.28440000216,
      "d": 341.4627999999793,
      "v": 88
    },
    {
      "midi": 59,
      "hit": false,
      "t": 207853.28440000216,
      "d": 390.24319999999716,
      "v": 69
    },
    {
      "midi": 55,
      "hit": false,
      "t": 207865.47950000217,
      "d": 365.8529999999737,
      "v": 75
    },
    {
      "midi": 62,
      "hit": false,
      "t": 207865.47950000217,
      "d": 396.3407499999739,
      "v": 90
    },
    {
      "midi": 55,
      "hit": false,
      "t": 208578.89285000216,
      "d": 402.4383000000089,
      "v": 85
    },
    {
      "midi": 50,
      "hit": false,
      "t": 208584.99040000216,
      "d": 402.4383000000089,
      "v": 93
    },
    {
      "midi": 43,
      "hit": false,
      "t": 208944.74585000216,
      "d": 67.07305000000633,
      "v": 93
    },
    {
      "midi": 36,
      "hit": false,
      "t": 209322.79395000217,
      "d": 774.3888500000176,
      "v": 72
    },
    {
      "midi": 48,
      "hit": false,
      "t": 209328.89150000218,
      "d": 365.8530000000028,
      "v": 64
    },
    {
      "midi": 43,
      "hit": false,
      "t": 209334.9890500022,
      "d": 341.46280000000843,
      "v": 88
    },
    {
      "midi": 64,
      "hit": false,
      "t": 209334.9890500022,
      "d": 1067.0712500000081,
      "v": 96
    },
    {
      "midi": 55,
      "hit": false,
      "t": 209334.9890500022,
      "d": 1091.4614500000025,
      "v": 85
    },
    {
      "midi": 60,
      "hit": false,
      "t": 209341.0866000022,
      "d": 1091.4614500000025,
      "v": 100
    },
    {
      "midi": 48,
      "hit": false,
      "t": 210048.40240000217,
      "d": 439.0236000000441,
      "v": 69
    },
    {
      "midi": 43,
      "hit": false,
      "t": 210054.49995000218,
      "d": 414.63340000002063,
      "v": 93
    },
    {
      "midi": 36,
      "hit": false,
      "t": 210420.35295000218,
      "d": 54.8779500000237,
      "v": 88
    },
    {
      "midi": 41,
      "hit": false,
      "t": 210804.49860000223,
      "d": 731.7060000000056,
      "v": 96
    },
    {
      "midi": 53,
      "hit": false,
      "t": 210810.59615000224,
      "d": 402.4382999999798,
      "v": 90
    },
    {
      "midi": 57,
      "hit": false,
      "t": 210810.59615000224,
      "d": 1128.0467500000086,
      "v": 88
    },
    {
      "midi": 48,
      "hit": false,
      "t": 210828.88880000223,
      "d": 353.65789999999106,
      "v": 75
    },
    {
      "midi": 53,
      "hit": false,
      "t": 211493.52175000223,
      "d": 439.023600000015,
      "v": 90
    },
    {
      "midi": 48,
      "hit": false,
      "t": 211505.71685000224,
      "d": 390.24319999999716,
      "v": 88
    },
    {
      "midi": 41,
      "hit": false,
      "t": 211889.86250000223,
      "d": 67.07305000000633,
      "v": 98
    },
    {
      "midi": 50,
      "hit": false,
      "t": 212267.91060000224,
      "d": 457.3162500000035,
      "v": 78
    },
    {
      "midi": 38,
      "hit": false,
      "t": 212267.91060000224,
      "d": 756.0962,
      "v": 93
    },
    {
      "midi": 57,
      "hit": false,
      "t": 212267.91060000224,
      "d": 780.4863999999943,
      "v": 90
    },
    {
      "midi": 65,
      "hit": false,
      "t": 212274.00815000225,
      "d": 731.7060000000056,
      "v": 107
    },
    {
      "midi": 62,
      "hit": false,
      "t": 212274.00815000225,
      "d": 749.9986499999941,
      "v": 98
    },
    {
      "midi": 50,
      "hit": false,
      "t": 212969.12885000225,
      "d": 378.0480999999854,
      "v": 96
    },
    {
      "midi": 38,
      "hit": false,
      "t": 213316.68920000223,
      "d": 54.8779499999946,
      "v": 75
    },
    {
      "midi": 62,
      "hit": false,
      "t": 213682.54220000224,
      "d": 4896.332650000026,
      "v": 90
    },
    {
      "midi": 31,
      "hit": false,
      "t": 213682.54220000224,
      "d": 4945.1130500000145,
      "v": 88
    },
    {
      "midi": 59,
      "hit": false,
      "t": 213688.63975000224,
      "d": 4847.552250000008,
      "v": 93
    },
    {
      "midi": 43,
      "hit": false,
      "t": 213688.63975000224,
      "d": 4957.308149999997,
      "v": 90
    },
    {
      "midi": 55,
      "hit": false,
      "t": 213694.73730000225,
      "d": 4878.040000000008,
      "v": 90
    },
    {
      "midi": 76,
      "hit": false,
      "t": 219511.80000000013,
      "d": 176.82894999999553,
      "v": 102
    },
    {
      "midi": 41,
      "hit": false,
      "t": 219584.97060000224,
      "d": 213.41425000003073,
      "v": 93
    },
    {
      "midi": 76,
      "hit": false,
      "t": 219584.97060000224,
      "d": 225.60935000004247,
      "v": 96
    },
    {
      "midi": 53,
      "hit": false,
      "t": 219591.06815000225,
      "d": 237.8044500000251,
      "v": 90
    },
    {
      "midi": 69,
      "hit": false,
      "t": 219591.06815000225,
      "d": 420.7309500000265,
      "v": 85
    },
    {
      "midi": 72,
      "hit": false,
      "t": 219591.06815000225,
      "d": 445.12115000002086,
      "v": 88
    },
    {
      "midi": 76,
      "hit": false,
      "t": 219902.04320000013,
      "d": 170.73139999998966,
      "v": 98
    },
    {
      "midi": 76,
      "hit": false,
      "t": 219920.33585000227,
      "d": 134.14609999998356,
      "v": 88
    },
    {
      "midi": 76,
      "hit": false,
      "t": 220261.79865000225,
      "d": 213.41425000000163,
      "v": 85
    },
    {
      "midi": 72,
      "hit": false,
      "t": 220261.79865000225,
      "d": 219.5118000000075,
      "v": 82
    },
    {
      "midi": 69,
      "hit": false,
      "t": 220267.89620000226,
      "d": 439.023600000015,
      "v": 75
    },
    {
      "midi": 65,
      "hit": false,
      "t": 220273.99375000226,
      "d": 402.4383000000089,
      "v": 96
    },
    {
      "midi": 76,
      "hit": false,
      "t": 220286.18885000012,
      "d": 182.9265000000014,
      "v": 98
    },
    {
      "midi": 60,
      "hit": false,
      "t": 220286.18885000228,
      "d": 396.340750000003,
      "v": 85
    },
    {
      "midi": 77,
      "hit": false,
      "t": 220426.43250000227,
      "d": 280.48730000000796,
      "v": 85
    },
    {
      "midi": 77,
      "hit": false,
      "t": 220444.72515000013,
      "d": 219.5118000000075,
      "v": 88
    },
    {
      "midi": 53,
      "hit": false,
      "t": 220609.35900000227,
      "d": 54.8779499999946,
      "v": 69
    },
    {
      "midi": 76,
      "hit": false,
      "t": 220609.35900000227,
      "d": 304.8775000000023,
      "v": 85
    },
    {
      "midi": 76,
      "hit": false,
      "t": 220627.65165000013,
      "d": 231.70689999999013,
      "v": 100
    },
    {
      "midi": 72,
      "hit": false,
      "t": 220761.79775000227,
      "d": 1048.7786000000488,
      "v": 90
    },
    {
      "midi": 72,
      "hit": false,
      "t": 220810.57815000013,
      "d": 548.7795000000042,
      "v": 96
    },
    {
      "midi": 53,
      "hit": false,
      "t": 220944.72425000227,
      "d": 774.3888500000467,
      "v": 90
    },
    {
      "midi": 60,
      "hit": false,
      "t": 220950.82180000228,
      "d": 445.12115000002086,
      "v": 85
    },
    {
      "midi": 65,
      "hit": false,
      "t": 220956.91935000228,
      "d": 445.12115000002086,
      "v": 96
    },
    {
      "midi": 69,
      "hit": false,
      "t": 221322.77235000013,
      "d": 792.681500000006,
      "v": 90
    },
    {
      "midi": 69,
      "hit": false,
      "t": 221328.8699000023,
      "d": 493.9015500000387,
      "v": 72
    },
    {
      "midi": 65,
      "hit": false,
      "t": 221706.9180000023,
      "d": 378.04810000001453,
      "v": 102
    },
    {
      "midi": 60,
      "hit": false,
      "t": 221713.0155500023,
      "d": 396.340750000003,
      "v": 96
    },
    {
      "midi": 53,
      "hit": false,
      "t": 222066.67345000233,
      "d": 67.07304999997723,
      "v": 82
    },
    {
      "midi": 72,
      "hit": false,
      "t": 222084.96610000014,
      "d": 402.4383000000089,
      "v": 93
    },
    {
      "midi": 74,
      "hit": false,
      "t": 222432.52645000015,
      "d": 207.31669999999576,
      "v": 98
    },
    {
      "midi": 48,
      "hit": false,
      "t": 222499.5995000023,
      "d": 390.24320000002626,
      "v": 90
    },
    {
      "midi": 36,
      "hit": false,
      "t": 222499.5995000023,
      "d": 762.1937500000349,
      "v": 98
    },
    {
      "midi": 71,
      "hit": false,
      "t": 222505.69705000232,
      "d": 615.8525500000105,
      "v": 100
    },
    {
      "midi": 67,
      "hit": false,
      "t": 222511.79460000232,
      "d": 615.8525500000105,
      "v": 105
    },
    {
      "midi": 64,
      "hit": false,
      "t": 222511.79460000232,
      "d": 628.0476500000223,
      "v": 96
    },
    {
      "midi": 74,
      "hit": false,
      "t": 222841.06230000014,
      "d": 170.73139999998966,
      "v": 98
    },
    {
      "midi": 74,
      "hit": false,
      "t": 223219.11040000012,
      "d": 195.12160000001313,
      "v": 93
    },
    {
      "midi": 48,
      "hit": false,
      "t": 223231.30550000235,
      "d": 91.4632500000007,
      "v": 100
    },
    {
      "midi": 76,
      "hit": false,
      "t": 223383.74425000013,
      "d": 207.31669999999576,
      "v": 100
    },
    {
      "midi": 74,
      "hit": false,
      "t": 223554.47565000012,
      "d": 189.02405000000726,
      "v": 82
    },
    {
      "midi": 67,
      "hit": false,
      "t": 223597.15850000235,
      "d": 451.21870000002673,
      "v": 102
    },
    {
      "midi": 60,
      "hit": false,
      "t": 223603.25605000235,
      "d": 408.53585000001476,
      "v": 88
    },
    {
      "midi": 36,
      "hit": false,
      "t": 223609.35360000236,
      "d": 317.07260000001406,
      "v": 98
    },
    {
      "midi": 48,
      "hit": false,
      "t": 223609.35360000236,
      "d": 341.46280000000843,
      "v": 90
    },
    {
      "midi": 64,
      "hit": false,
      "t": 223609.35360000236,
      "d": 439.023600000015,
      "v": 102
    },
    {
      "midi": 67,
      "hit": false,
      "t": 223719.10950000014,
      "d": 628.0476499999932,
      "v": 107
    },
    {
      "midi": 64,
      "hit": false,
      "t": 224334.96205000012,
      "d": 719.510900000023,
      "v": 102
    },
    {
      "midi": 55,
      "hit": false,
      "t": 224347.15715000237,
      "d": 457.3162500000035,
      "v": 107
    },
    {
      "midi": 60,
      "hit": false,
      "t": 224706.91260000237,
      "d": 97.56080000000657,
      "v": 110
    },
    {
      "midi": 62,
      "hit": false,
      "t": 224871.54645000238,
      "d": 219.5117999999784,
      "v": 100
    },
    {
      "midi": 67,
      "hit": false,
      "t": 225042.27785000013,
      "d": 371.95055000003777,
      "v": 105
    },
    {
      "midi": 64,
      "hit": false,
      "t": 225042.27785000237,
      "d": 176.82894999999553,
      "v": 96
    },
    {
      "midi": 67,
      "hit": false,
      "t": 225188.61905000237,
      "d": 60.975500000000466,
      "v": 98
    },
    {
      "midi": 76,
      "hit": false,
      "t": 225402.03330000016,
      "d": 176.82895000002463,
      "v": 96
    },
    {
      "midi": 76,
      "hit": false,
      "t": 225402.03330000237,
      "d": 256.0971000000136,
      "v": 107
    },
    {
      "midi": 69,
      "hit": false,
      "t": 225402.03330000237,
      "d": 658.5354000000225,
      "v": 100
    },
    {
      "midi": 72,
      "hit": false,
      "t": 225402.03330000237,
      "d": 810.9741500000528,
      "v": 105
    },
    {
      "midi": 48,
      "hit": false,
      "t": 225414.22840000238,
      "d": 445.12114999999176,
      "v": 82
    },
    {
      "midi": 41,
      "hit": false,
      "t": 225414.22840000238,
      "d": 792.6815000000352,
      "v": 100
    },
    {
      "midi": 53,
      "hit": false,
      "t": 225420.32595000239,
      "d": 481.70644999999786,
      "v": 100
    },
    {
      "midi": 76,
      "hit": false,
      "t": 225755.69120000018,
      "d": 158.53630000000703,
      "v": 96
    },
    {
      "midi": 76,
      "hit": false,
      "t": 225798.37405000237,
      "d": 176.82895000002463,
      "v": 98
    },
    {
      "midi": 76,
      "hit": false,
      "t": 226115.44665000017,
      "d": 201.2191499999899,
      "v": 98
    },
    {
      "midi": 69,
      "hit": false,
      "t": 226152.0319500024,
      "d": 60.97550000002957,
      "v": 13
    },
    {
      "midi": 76,
      "hit": false,
      "t": 226152.0319500024,
      "d": 231.70690000001923,
      "v": 98
    },
    {
      "midi": 53,
      "hit": false,
      "t": 226158.1295000024,
      "d": 298.77995000002556,
      "v": 96
    },
    {
      "midi": 48,
      "hit": false,
      "t": 226164.2270500024,
      "d": 420.7309500000265,
      "v": 90
    },
    {
      "midi": 77,
      "hit": false,
      "t": 226286.17805000016,
      "d": 237.8044500000251,
      "v": 85
    },
    {
      "midi": 77,
      "hit": false,
      "t": 226328.86090000242,
      "d": 249.99955000000773,
      "v": 69
    },
    {
      "midi": 76,
      "hit": false,
      "t": 226481.29965000018,
      "d": 219.5118000000366,
      "v": 98
    },
    {
      "midi": 53,
      "hit": false,
      "t": 226487.39720000242,
      "d": 79.26814999998896,
      "v": 46
    },
    {
      "midi": 41,
      "hit": false,
      "t": 226505.6898500024,
      "d": 73.1706000000122,
      "v": 90
    },
    {
      "midi": 76,
      "hit": false,
      "t": 226523.9825000024,
      "d": 231.70690000004834,
      "v": 90
    },
    {
      "midi": 72,
      "hit": false,
      "t": 226658.1286000002,
      "d": 609.7550000000047,
      "v": 100
    },
    {
      "midi": 72,
      "hit": false,
      "t": 226682.51880000244,
      "d": 573.1697000000277,
      "v": 88
    },
    {
      "midi": 48,
      "hit": false,
      "t": 226865.44530000244,
      "d": 390.24320000002626,
      "v": 85
    },
    {
      "midi": 53,
      "hit": false,
      "t": 226865.44530000244,
      "d": 390.24320000002626,
      "v": 105
    },
    {
      "midi": 41,
      "hit": false,
      "t": 226865.44530000244,
      "d": 780.4864000000525,
      "v": 102
    },
    {
      "midi": 69,
      "hit": false,
      "t": 227231.2983000002,
      "d": 664.6329499999993,
      "v": 98
    },
    {
      "midi": 53,
      "hit": false,
      "t": 227597.15130000247,
      "d": 384.1456500000204,
      "v": 105
    },
    {
      "midi": 48,
      "hit": false,
      "t": 227603.24885000248,
      "d": 371.95055000000866,
      "v": 90
    },
    {
      "midi": 72,
      "hit": false,
      "t": 227908.1263500002,
      "d": 451.2186999999976,
      "v": 96
    },
    {
      "midi": 41,
      "hit": false,
      "t": 227950.8092000025,
      "d": 79.26814999998896,
      "v": 102
    },
    {
      "midi": 74,
      "hit": false,
      "t": 228298.3695500002,
      "d": 182.9265000000014,
      "v": 100
    },
    {
      "midi": 67,
      "hit": false,
      "t": 228334.95485000248,
      "d": 603.6574500000279,
      "v": 102
    },
    {
      "midi": 60,
      "hit": false,
      "t": 228347.1499500025,
      "d": 560.9746000000159,
      "v": 96
    },
    {
      "midi": 64,
      "hit": false,
      "t": 228347.1499500025,
      "d": 567.0721500000218,
      "v": 102
    },
    {
      "midi": 36,
      "hit": false,
      "t": 228347.1499500025,
      "d": 756.0962,
      "v": 100
    },
    {
      "midi": 48,
      "hit": false,
      "t": 228359.3450500025,
      "d": 426.82850000000326,
      "v": 82
    },
    {
      "midi": 74,
      "hit": false,
      "t": 228664.2225500002,
      "d": 176.82894999999553,
      "v": 98
    },
    {
      "midi": 74,
      "hit": false,
      "t": 229030.0755500002,
      "d": 201.2191499999899,
      "v": 90
    },
    {
      "midi": 48,
      "hit": false,
      "t": 229078.8559500025,
      "d": 97.56080000000657,
      "v": 102
    },
    {
      "midi": 76,
      "hit": false,
      "t": 229206.9045000002,
      "d": 207.31669999999576,
      "v": 93
    },
    {
      "midi": 74,
      "hit": false,
      "t": 229377.6359000002,
      "d": 219.5118000000075,
      "v": 90
    },
    {
      "midi": 48,
      "hit": false,
      "t": 229420.3187500025,
      "d": 652.4378500000166,
      "v": 90
    },
    {
      "midi": 36,
      "hit": false,
      "t": 229420.3187500025,
      "d": 1073.168800000014,
      "v": 96
    },
    {
      "midi": 71,
      "hit": false,
      "t": 229420.3187500025,
      "d": 1359.7536500000278,
      "v": 110
    },
    {
      "midi": 64,
      "hit": false,
      "t": 229420.3187500025,
      "d": 1371.9487500000396,
      "v": 100
    },
    {
      "midi": 67,
      "hit": false,
      "t": 229420.3187500025,
      "d": 1371.9487500000396,
      "v": 107
    },
    {
      "midi": 67,
      "hit": false,
      "t": 229572.7575000002,
      "d": 591.462349999987,
      "v": 110
    },
    {
      "midi": 64,
      "hit": false,
      "t": 230164.2198500002,
      "d": 689.0231499999936,
      "v": 105
    },
    {
      "midi": 48,
      "hit": false,
      "t": 230493.48755000252,
      "d": 432.92605000003823,
      "v": 102
    },
    {
      "midi": 67,
      "hit": false,
      "t": 230859.3405500002,
      "d": 353.65789999999106,
      "v": 107
    },
    {
      "midi": 36,
      "hit": false,
      "t": 230865.43810000256,
      "d": 67.07305000000633,
      "v": 93
    },
    {
      "midi": 76,
      "hit": false,
      "t": 231225.1935500002,
      "d": 182.9265000000014,
      "v": 96
    },
    {
      "midi": 53,
      "hit": false,
      "t": 231231.29110000256,
      "d": 384.1456500000204,
      "v": 90
    },
    {
      "midi": 76,
      "hit": false,
      "t": 231237.38865000257,
      "d": 658.5354000000225,
      "v": 102
    },
    {
      "midi": 72,
      "hit": false,
      "t": 231237.38865000257,
      "d": 670.7305000000342,
      "v": 90
    },
    {
      "midi": 69,
      "hit": false,
      "t": 231237.38865000257,
      "d": 682.925600000046,
      "v": 88
    },
    {
      "midi": 41,
      "hit": false,
      "t": 231237.38865000257,
      "d": 762.1937500000349,
      "v": 98
    },
    {
      "midi": 76,
      "hit": false,
      "t": 231597.1441000002,
      "d": 146.3411999999953,
      "v": 98
    },
    {
      "midi": 53,
      "hit": false,
      "t": 231944.7044500026,
      "d": 85.36569999999483,
      "v": 102
    },
    {
      "midi": 76,
      "hit": false,
      "t": 231969.09465000022,
      "d": 195.12160000001313,
      "v": 96
    },
    {
      "midi": 77,
      "hit": false,
      "t": 232133.72850000023,
      "d": 225.60935000001336,
      "v": 93
    },
    {
      "midi": 76,
      "hit": false,
      "t": 232322.75255000024,
      "d": 231.70689999999013,
      "v": 93
    },
    {
      "midi": 65,
      "hit": false,
      "t": 232334.9476500026,
      "d": 567.0721500000218,
      "v": 98
    },
    {
      "midi": 53,
      "hit": false,
      "t": 232334.9476500026,
      "d": 689.0231500000227,
      "v": 96
    },
    {
      "midi": 72,
      "hit": false,
      "t": 232334.9476500026,
      "d": 859.7545500000124,
      "v": 98
    },
    {
      "midi": 41,
      "hit": false,
      "t": 232334.9476500026,
      "d": 1189.022250000009,
      "v": 96
    },
    {
      "midi": 69,
      "hit": false,
      "t": 232341.0452000026,
      "d": 829.2668000000122,
      "v": 98
    },
    {
      "midi": 72,
      "hit": false,
      "t": 232499.58150000023,
      "d": 567.0721499999927,
      "v": 96
    },
    {
      "midi": 69,
      "hit": false,
      "t": 233030.06835000022,
      "d": 853.6570000000065,
      "v": 93
    },
    {
      "midi": 65,
      "hit": false,
      "t": 233121.53160000264,
      "d": 768.2913000000117,
      "v": 93
    },
    {
      "midi": 53,
      "hit": false,
      "t": 233499.57970000262,
      "d": 384.1456500000204,
      "v": 98
    },
    {
      "midi": 69,
      "hit": false,
      "t": 233505.67725000263,
      "d": 384.1456500000204,
      "v": 93
    },
    {
      "midi": 41,
      "hit": false,
      "t": 233834.94495000262,
      "d": 79.26815000001807,
      "v": 82
    },
    {
      "midi": 72,
      "hit": false,
      "t": 233841.04250000263,
      "d": 73.1706000000122,
      "v": 90
    },
    {
      "midi": 72,
      "hit": false,
      "t": 233847.14005000022,
      "d": 390.24319999999716,
      "v": 93
    },
    {
      "midi": 74,
      "hit": false,
      "t": 234176.40775000022,
      "d": 182.9265000000014,
      "v": 98
    },
    {
      "midi": 48,
      "hit": false,
      "t": 234206.89550000263,
      "d": 402.438300000038,
      "v": 72
    },
    {
      "midi": 71,
      "hit": false,
      "t": 234206.89550000263,
      "d": 573.1697000000277,
      "v": 102
    },
    {
      "midi": 36,
      "hit": false,
      "t": 234206.89550000263,
      "d": 768.2913000000408,
      "v": 90
    },
    {
      "midi": 64,
      "hit": false,
      "t": 234212.99305000264,
      "d": 603.6574500000279,
      "v": 98
    },
    {
      "midi": 67,
      "hit": false,
      "t": 234212.99305000264,
      "d": 609.7550000000338,
      "v": 105
    },
    {
      "midi": 74,
      "hit": false,
      "t": 234554.45585000023,
      "d": 164.6338500000129,
      "v": 90
    },
    {
      "midi": 74,
      "hit": false,
      "t": 234902.01620000025,
      "d": 201.2191499999899,
      "v": 82
    },
    {
      "midi": 48,
      "hit": false,
      "t": 234926.40640000268,
      "d": 97.56079999997746,
      "v": 98
    },
    {
      "midi": 76,
      "hit": false,
      "t": 235072.74760000024,
      "d": 219.5118000000075,
      "v": 90
    },
    {
      "midi": 74,
      "hit": false,
      "t": 235255.67410000024,
      "d": 256.0971000000136,
      "v": 88
    },
    {
      "midi": 48,
      "hit": false,
      "t": 235292.25940000266,
      "d": 646.3403000000399,
      "v": 85
    },
    {
      "midi": 36,
      "hit": false,
      "t": 235292.25940000266,
      "d": 1146.3394000000262,
      "v": 96
    },
    {
      "midi": 71,
      "hit": false,
      "t": 235298.35695000266,
      "d": 768.2913000000117,
      "v": 96
    },
    {
      "midi": 67,
      "hit": false,
      "t": 235304.45450000267,
      "d": 439.023600000015,
      "v": 98
    },
    {
      "midi": 74,
      "hit": false,
      "t": 235304.45450000267,
      "d": 713.4133500000171,
      "v": 105
    },
    {
      "midi": 67,
      "hit": false,
      "t": 235475.18590000024,
      "d": 567.0721500000218,
      "v": 105
    },
    {
      "midi": 64,
      "hit": false,
      "t": 235999.57520000025,
      "d": 725.6084499999997,
      "v": 98
    },
    {
      "midi": 67,
      "hit": false,
      "t": 236036.16050000268,
      "d": 701.2182500000054,
      "v": 98
    },
    {
      "midi": 71,
      "hit": false,
      "t": 236389.81840000267,
      "d": 359.75545000002603,
      "v": 100
    },
    {
      "midi": 48,
      "hit": false,
      "t": 236395.91595000267,
      "d": 420.7309500000265,
      "v": 85
    },
    {
      "midi": 74,
      "hit": false,
      "t": 236554.45225000268,
      "d": 213.41425000000163,
      "v": 100
    },
    {
      "midi": 67,
      "hit": false,
      "t": 236725.18365000025,
      "d": 384.1456500000204,
      "v": 102
    },
    {
      "midi": 36,
      "hit": false,
      "t": 236737.37875000268,
      "d": 73.1706000000122,
      "v": 98
    },
    {
      "midi": 76,
      "hit": false,
      "t": 237103.23175000027,
      "d": 176.82894999999553,
      "v": 102
    },
    {
      "midi": 76,
      "hit": false,
      "t": 237109.3293000027,
      "d": 768.2913000000117,
      "v": 110
    },
    {
      "midi": 69,
      "hit": false,
      "t": 237109.3293000027,
      "d": 774.3888500000176,
      "v": 98
    },
    {
      "midi": 72,
      "hit": false,
      "t": 237109.3293000027,
      "d": 786.5839500000293,
      "v": 96
    },
    {
      "midi": 41,
      "hit": false,
      "t": 237115.4268500027,
      "d": 768.2913000000117,
      "v": 93
    },
    {
      "midi": 53,
      "hit": false,
      "t": 237121.5244000027,
      "d": 347.5603500000143,
      "v": 88
    },
    {
      "midi": 76,
      "hit": false,
      "t": 237450.79210000025,
      "d": 152.43875000000116,
      "v": 98
    },
    {
      "midi": 76,
      "hit": false,
      "t": 237798.35245000027,
      "d": 201.2191499999899,
      "v": 98
    },
    {
      "midi": 53,
      "hit": false,
      "t": 237828.8402000027,
      "d": 97.56080000000657,
      "v": 98
    },
    {
      "midi": 77,
      "hit": false,
      "t": 237969.08385000026,
      "d": 237.8044500000251,
      "v": 90
    },
    {
      "midi": 76,
      "hit": false,
      "t": 238164.20545000027,
      "d": 231.70690000001923,
      "v": 96
    },
    {
      "midi": 76,
      "hit": false,
      "t": 238194.69320000272,
      "d": 1060.9737000000023,
      "v": 107
    },
    {
      "midi": 72,
      "hit": false,
      "t": 238194.69320000272,
      "d": 1170.7295999999915,
      "v": 88
    },
    {
      "midi": 69,
      "hit": false,
      "t": 238194.69320000272,
      "d": 1390.241399999999,
      "v": 93
    },
    {
      "midi": 53,
      "hit": false,
      "t": 238206.88830000273,
      "d": 585.3647999999812,
      "v": 88
    },
    {
      "midi": 41,
      "hit": false,
      "t": 238206.88830000273,
      "d": 1134.1442999999854,
      "v": 96
    },
    {
      "midi": 72,
      "hit": false,
      "t": 238341.0344000003,
      "d": 634.145199999999,
      "v": 98
    },
    {
      "midi": 69,
      "hit": false,
      "t": 238938.5943000003,
      "d": 743.9011000000173,
      "v": 93
    },
    {
      "midi": 74,
      "hit": false,
      "t": 239286.15465000272,
      "d": 262.19464999999036,
      "v": 96
    },
    {
      "midi": 53,
      "hit": false,
      "t": 239286.15465000272,
      "d": 414.6333999999915,
      "v": 102
    },
    {
      "midi": 72,
      "hit": false,
      "t": 239456.8860500027,
      "d": 621.9501000000164,
      "v": 75
    },
    {
      "midi": 41,
      "hit": false,
      "t": 239645.91010000271,
      "d": 91.4632500000007,
      "v": 102
    },
    {
      "midi": 72,
      "hit": false,
      "t": 239652.0076500003,
      "d": 402.4383000000089,
      "v": 90
    },
    {
      "midi": 74,
      "hit": false,
      "t": 240011.7631000003,
      "d": 158.53630000000703,
      "v": 96
    },
    {
      "midi": 48,
      "hit": false,
      "t": 240017.86065000272,
      "d": 548.7795000000333,
      "v": 90
    },
    {
      "midi": 36,
      "hit": false,
      "t": 240017.86065000272,
      "d": 804.8766000000178,
      "v": 96
    },
    {
      "midi": 71,
      "hit": false,
      "t": 240017.86065000272,
      "d": 896.3398500000185,
      "v": 98
    },
    {
      "midi": 74,
      "hit": false,
      "t": 240017.86065000272,
      "d": 908.5349500000302,
      "v": 98
    },
    {
      "midi": 67,
      "hit": false,
      "t": 240030.05575000274,
      "d": 853.6570000000065,
      "v": 102
    },
    {
      "midi": 74,
      "hit": false,
      "t": 240347.1283500003,
      "d": 164.6338500000129,
      "v": 96
    },
    {
      "midi": 74,
      "hit": false,
      "t": 240712.9813500003,
      "d": 207.31669999999576,
      "v": 88
    },
    {
      "midi": 48,
      "hit": false,
      "t": 240767.85930000275,
      "d": 97.56080000000657,
      "v": 98
    },
    {
      "midi": 76,
      "hit": false,
      "t": 240889.8103000003,
      "d": 256.0970999999845,
      "v": 88
    },
    {
      "midi": 74,
      "hit": false,
      "t": 241091.0294500003,
      "d": 231.70689999999013,
      "v": 85
    },
    {
      "midi": 48,
      "hit": false,
      "t": 241133.71230000275,
      "d": 634.1452000000281,
      "v": 98
    },
    {
      "midi": 74,
      "hit": false,
      "t": 241139.80985000276,
      "d": 451.2186999999976,
      "v": 98
    },
    {
      "midi": 67,
      "hit": false,
      "t": 241139.80985000276,
      "d": 457.3162500000035,
      "v": 107
    },
    {
      "midi": 71,
      "hit": false,
      "t": 241139.80985000276,
      "d": 463.41380000000936,
      "v": 100
    },
    {
      "midi": 36,
      "hit": false,
      "t": 241139.80985000276,
      "d": 1067.0712500000373,
      "v": 100
    },
    {
      "midi": 67,
      "hit": false,
      "t": 241292.24860000028,
      "d": 585.3648000000103,
      "v": 107
    },
    {
      "midi": 64,
      "hit": false,
      "t": 241877.6134000003,
      "d": 719.5108999999939,
      "v": 96
    },
    {
      "midi": 67,
      "hit": false,
      "t": 242194.68600000278,
      "d": 91.4632500000007,
      "v": 98
    },
    {
      "midi": 60,
      "hit": false,
      "t": 242200.7835500028,
      "d": 60.975500000000466,
      "v": 72
    },
    {
      "midi": 64,
      "hit": false,
      "t": 242200.7835500028,
      "d": 67.07305000000633,
      "v": 88
    },
    {
      "midi": 48,
      "hit": false,
      "t": 242206.8811000028,
      "d": 469.5113500000152,
      "v": 88
    },
    {
      "midi": 67,
      "hit": false,
      "t": 242597.1243000003,
      "d": 414.6333999999915,
      "v": 100
    },
    {
      "midi": 36,
      "hit": false,
      "t": 242603.2218500028,
      "d": 67.07305000000633,
      "v": 102
    },
    {
      "midi": 76,
      "hit": false,
      "t": 242993.4650500003,
      "d": 152.43875000000116,
      "v": 93
    },
    {
      "midi": 72,
      "hit": false,
      "t": 242993.46505000282,
      "d": 774.3888500000176,
      "v": 98
    },
    {
      "midi": 76,
      "hit": false,
      "t": 242993.46505000282,
      "d": 798.7790500000119,
      "v": 100
    },
    {
      "midi": 53,
      "hit": false,
      "t": 242999.56260000283,
      "d": 341.46280000000843,
      "v": 96
    },
    {
      "midi": 41,
      "hit": false,
      "t": 242999.56260000283,
      "d": 749.9986500000232,
      "v": 102
    },
    {
      "midi": 69,
      "hit": false,
      "t": 242999.56260000283,
      "d": 792.681500000006,
      "v": 98
    },
    {
      "midi": 76,
      "hit": false,
      "t": 243359.3180500003,
      "d": 146.3411999999953,
      "v": 88
    },
    {
      "midi": 53,
      "hit": false,
      "t": 243737.36615000284,
      "d": 79.26814999998896,
      "v": 90
    },
    {
      "midi": 76,
      "hit": false,
      "t": 243743.46370000028,
      "d": 176.82894999999553,
      "v": 88
    },
    {
      "midi": 48,
      "hit": false,
      "t": 243743.46370000285,
      "d": 73.1705999999831,
      "v": 88
    },
    {
      "midi": 77,
      "hit": false,
      "t": 243914.19510000027,
      "d": 213.41425000003073,
      "v": 82
    },
    {
      "midi": 76,
      "hit": false,
      "t": 244084.9265000003,
      "d": 219.5118000000075,
      "v": 78
    },
    {
      "midi": 76,
      "hit": false,
      "t": 244103.21915000284,
      "d": 835.3643499999889,
      "v": 102
    },
    {
      "midi": 41,
      "hit": false,
      "t": 244103.21915000284,
      "d": 1597.5580999999947,
      "v": 96
    },
    {
      "midi": 72,
      "hit": false,
      "t": 244109.31670000285,
      "d": 792.681499999977,
      "v": 93
    },
    {
      "midi": 69,
      "hit": false,
      "t": 244109.31670000285,
      "d": 798.7790499999828,
      "v": 88
    },
    {
      "midi": 53,
      "hit": false,
      "t": 244109.31670000285,
      "d": 878.0471999999718,
      "v": 98
    },
    {
      "midi": 72,
      "hit": false,
      "t": 244286.1456500003,
      "d": 609.7550000000047,
      "v": 78
    },
    {
      "midi": 69,
      "hit": false,
      "t": 244859.3153500003,
      "d": 731.7060000000056,
      "v": 85
    },
    {
      "midi": 48,
      "hit": false,
      "t": 244914.19330000284,
      "d": 432.92604999998,
      "v": 78
    },
    {
      "midi": 74,
      "hit": false,
      "t": 245298.33895000283,
      "d": 189.02405000000726,
      "v": 90
    },
    {
      "midi": 53,
      "hit": false,
      "t": 245298.33895000283,
      "d": 371.95055000000866,
      "v": 96
    },
    {
      "midi": 72,
      "hit": false,
      "t": 245444.68015000282,
      "d": 201.219150000019,
      "v": 93
    },
    {
      "midi": 72,
      "hit": false,
      "t": 245560.53360000032,
      "d": 414.6333999999915,
      "v": 82
    },
    {
      "midi": 48,
      "hit": false,
      "t": 245633.70420000283,
      "d": 67.07305000000633,
      "v": 96
    },
    {
      "midi": 74,
      "hit": false,
      "t": 245926.38660000032,
      "d": 164.6338499999838,
      "v": 96
    },
    {
      "midi": 48,
      "hit": false,
      "t": 245975.16700000284,
      "d": 359.7554499999969,
      "v": 75
    },
    {
      "midi": 74,
      "hit": false,
      "t": 245975.16700000284,
      "d": 737.8035499999824,
      "v": 102
    },
    {
      "midi": 67,
      "hit": false,
      "t": 245981.26455000284,
      "d": 682.9255999999878,
      "v": 93
    },
    {
      "midi": 71,
      "hit": false,
      "t": 245981.26455000284,
      "d": 701.2182499999763,
      "v": 96
    },
    {
      "midi": 36,
      "hit": false,
      "t": 245981.26455000284,
      "d": 749.998649999965,
      "v": 93
    },
    {
      "midi": 74,
      "hit": false,
      "t": 246273.9469500003,
      "d": 158.53630000000703,
      "v": 90
    },
    {
      "midi": 74,
      "hit": false,
      "t": 246651.99505000032,
      "d": 213.41425000000163,
      "v": 96
    },
    {
      "midi": 48,
      "hit": false,
      "t": 246664.19015000283,
      "d": 115.85344999996596,
      "v": 82
    },
    {
      "midi": 76,
      "hit": false,
      "t": 246828.8240000003,
      "d": 189.02405000000726,
      "v": 88
    },
    {
      "midi": 74,
      "hit": false,
      "t": 246987.36030000032,
      "d": 219.5118000000075,
      "v": 75
    },
    {
      "midi": 74,
      "hit": false,
      "t": 246993.4578500028,
      "d": 804.8765999999887,
      "v": 100
    },
    {
      "midi": 67,
      "hit": false,
      "t": 246999.5554000028,
      "d": 481.70644999999786,
      "v": 96
    },
    {
      "midi": 48,
      "hit": false,
      "t": 247005.6529500028,
      "d": 585.3647999999812,
      "v": 88
    },
    {
      "midi": 71,
      "hit": false,
      "t": 247005.6529500028,
      "d": 756.0961999999708,
      "v": 98
    },
    {
      "midi": 36,
      "hit": false,
      "t": 247005.6529500028,
      "d": 1115.8516499999969,
      "v": 90
    },
    {
      "midi": 67,
      "hit": false,
      "t": 247182.48190000033,
      "d": 591.4623500000162,
      "v": 100
    },
    {
      "midi": 64,
      "hit": false,
      "t": 247731.26140000034,
      "d": 725.6084499999997,
      "v": 88
    },
    {
      "midi": 67,
      "hit": false,
      "t": 247737.3589500028,
      "d": 664.6329499999993,
      "v": 78
    },
    {
      "midi": 48,
      "hit": false,
      "t": 248078.8217500028,
      "d": 414.6333999999624,
      "v": 96
    },
    {
      "midi": 71,
      "hit": false,
      "t": 248084.9193000028,
      "d": 262.19464999999036,
      "v": 90
    },
    {
      "midi": 74,
      "hit": false,
      "t": 248237.3580500028,
      "d": 207.31669999996666,
      "v": 93
    },
    {
      "midi": 36,
      "hit": false,
      "t": 248420.28455000278,
      "d": 73.1705999999831,
      "v": 100
    },
    {
      "midi": 67,
      "hit": false,
      "t": 248426.38210000034,
      "d": 243.90200000000186,
      "v": 82
    },
    {
      "midi": 76,
      "hit": false,
      "t": 248773.94245000035,
      "d": 170.73139999998966,
      "v": 96
    },
    {
      "midi": 72,
      "hit": false,
      "t": 248804.43020000277,
      "d": 725.6084500000288,
      "v": 96
    },
    {
      "midi": 69,
      "hit": false,
      "t": 248804.43020000277,
      "d": 756.0962000000291,
      "v": 96
    },
    {
      "midi": 76,
      "hit": false,
      "t": 248804.43020000277,
      "d": 756.0962000000291,
      "v": 102
    },
    {
      "midi": 53,
      "hit": false,
      "t": 248816.62530000278,
      "d": 347.5603500000143,
      "v": 93
    },
    {
      "midi": 41,
      "hit": false,
      "t": 248822.72285000278,
      "d": 756.0962,
      "v": 98
    },
    {
      "midi": 76,
      "hit": false,
      "t": 249145.89300000033,
      "d": 152.43875000000116,
      "v": 82
    },
    {
      "midi": 76,
      "hit": false,
      "t": 249511.74600000033,
      "d": 195.12160000001313,
      "v": 88
    },
    {
      "midi": 53,
      "hit": false,
      "t": 249511.7460000028,
      "d": 91.4632499999716,
      "v": 96
    },
    {
      "midi": 77,
      "hit": false,
      "t": 249694.67250000034,
      "d": 213.41425000003073,
      "v": 90
    },
    {
      "midi": 76,
      "hit": false,
      "t": 249871.50145000036,
      "d": 213.41425000000163,
      "v": 78
    },
    {
      "midi": 69,
      "hit": false,
      "t": 249871.50145000278,
      "d": 920.730050000042,
      "v": 88
    },
    {
      "midi": 76,
      "hit": false,
      "t": 249877.59900000278,
      "d": 999.9982000000309,
      "v": 105
    },
    {
      "midi": 72,
      "hit": false,
      "t": 249877.59900000278,
      "d": 1012.1933000000427,
      "v": 90
    },
    {
      "midi": 53,
      "hit": false,
      "t": 249889.7941000028,
      "d": 579.2672500000044,
      "v": 90
    },
    {
      "midi": 41,
      "hit": false,
      "t": 249895.8916500028,
      "d": 1536.5826000000525,
      "v": 100
    },
    {
      "midi": 72,
      "hit": false,
      "t": 250060.52550000037,
      "d": 597.5598999999929,
      "v": 82
    },
    {
      "midi": 69,
      "hit": false,
      "t": 250627.59765000036,
      "d": 737.8035500000115,
      "v": 85
    },
    {
      "midi": 48,
      "hit": false,
      "t": 250664.1829500028,
      "d": 426.82850000003236,
      "v": 88
    },
    {
      "midi": 74,
      "hit": false,
      "t": 251036.13350000282,
      "d": 201.219150000019,
      "v": 96
    },
    {
      "midi": 67,
      "hit": false,
      "t": 251042.23105000283,
      "d": 286.58485000001383,
      "v": 85
    },
    {
      "midi": 53,
      "hit": false,
      "t": 251048.32860000283,
      "d": 353.65790000002016,
      "v": 88
    },
    {
      "midi": 72,
      "hit": false,
      "t": 251176.37715000284,
      "d": 231.70690000001923,
      "v": 66
    },
    {
      "midi": 72,
      "hit": false,
      "t": 251334.91345000037,
      "d": 420.7309499999974,
      "v": 88
    },
    {
      "midi": 48,
      "hit": false,
      "t": 251371.49875000285,
      "d": 54.8779499999946,
      "v": 93
    },
    {
      "midi": 74,
      "hit": false,
      "t": 251688.57135000036,
      "d": 176.82894999999553,
      "v": 90
    },
    {
      "midi": 48,
      "hit": false,
      "t": 251737.35175000285,
      "d": 414.63340000002063,
      "v": 82
    },
    {
      "midi": 74,
      "hit": false,
      "t": 251737.35175000285,
      "d": 804.8766000000469,
      "v": 100
    },
    {
      "midi": 67,
      "hit": false,
      "t": 251743.44930000286,
      "d": 786.5839500000293,
      "v": 98
    },
    {
      "midi": 71,
      "hit": false,
      "t": 251743.44930000286,
      "d": 792.6815000000352,
      "v": 90
    },
    {
      "midi": 36,
      "hit": false,
      "t": 251743.44930000286,
      "d": 798.779050000041,
      "v": 98
    },
    {
      "midi": 74,
      "hit": false,
      "t": 252084.91210000037,
      "d": 158.53630000000703,
      "v": 85
    },
    {
      "midi": 74,
      "hit": false,
      "t": 252456.86265000037,
      "d": 182.9265000000014,
      "v": 93
    },
    {
      "midi": 48,
      "hit": false,
      "t": 252456.86265000288,
      "d": 115.85345000002417,
      "v": 93
    },
    {
      "midi": 76,
      "hit": false,
      "t": 252627.59405000036,
      "d": 213.41425000000163,
      "v": 75
    },
    {
      "midi": 74,
      "hit": false,
      "t": 252816.61810000037,
      "d": 219.5117999999784,
      "v": 60
    },
    {
      "midi": 74,
      "hit": false,
      "t": 252834.9107500029,
      "d": 1475.607100000023,
      "v": 100
    },
    {
      "midi": 48,
      "hit": false,
      "t": 252841.0083000029,
      "d": 597.559900000022,
      "v": 78
    },
    {
      "midi": 36,
      "hit": false,
      "t": 252841.0083000029,
      "d": 1109.7541000000201,
      "v": 93
    },
    {
      "midi": 67,
      "hit": false,
      "t": 252841.0083000029,
      "d": 1445.1193500000227,
      "v": 96
    },
    {
      "midi": 71,
      "hit": false,
      "t": 252841.0083000029,
      "d": 1445.1193500000227,
      "v": 93
    },
    {
      "midi": 67,
      "hit": false,
      "t": 253011.73970000035,
      "d": 597.5598999999929,
      "v": 93
    },
    {
      "midi": 64,
      "hit": false,
      "t": 253566.61675000034,
      "d": 743.9011000000173,
      "v": 82
    },
    {
      "midi": 48,
      "hit": false,
      "t": 253908.0795500029,
      "d": 432.9260500000091,
      "v": 96
    },
    {
      "midi": 36,
      "hit": false,
      "t": 254280.0301000029,
      "d": 60.975500000000466,
      "v": 88
    },
    {
      "midi": 67,
      "hit": false,
      "t": 254298.32275000034,
      "d": 384.1456500000204,
      "v": 90
    },
    {
      "midi": 69,
      "hit": false,
      "t": 254651.98065000036,
      "d": 3042.6774499999883,
      "v": 69
    },
    {
      "midi": 72,
      "hit": false,
      "t": 254658.07820000037,
      "d": 3054.872549999971,
      "v": 82
    },
    {
      "midi": 41,
      "hit": false,
      "t": 254658.07820000293,
      "d": 762.1937500000058,
      "v": 105
    },
    {
      "midi": 53,
      "hit": false,
      "t": 254670.27330000294,
      "d": 756.0962,
      "v": 100
    },
    {
      "midi": 69,
      "hit": false,
      "t": 254670.27330000294,
      "d": 756.0962,
      "v": 102
    },
    {
      "midi": 76,
      "hit": false,
      "t": 254670.27330000294,
      "d": 780.4863999999943,
      "v": 110
    },
    {
      "midi": 72,
      "hit": false,
      "t": 254676.37085000295,
      "d": 737.8035499999824,
      "v": 98
    },
    {
      "midi": 76,
      "hit": false,
      "t": 254682.46840000036,
      "d": 3042.6774499999883,
      "v": 64
    }
  ]
}