{
  "jsonPath": "Unknown/Unknown/Matt Rowe/spice-up-your-life.json",
  "path": "Unknown\\Unknown\\Matt Rowe\\Spice up Your Life.mid",
  "name": "Spice up Your Life",
  "difficulty": "Advanced",
  "bpm": 120,
  "notes": [
    {
      "midi": 74,
      "hit": false,
      "t": 0,
      "d": 375,
      "v": 100
    },
    {
      "midi": 55,
      "hit": false,
      "t": 0,
      "d": 1500,
      "v": 100
    },
    {
      "midi": 58,
      "hit": false,
      "t": 0,
      "d": 1500,
      "v": 100
    },
    {
      "midi": 70,
      "hit": false,
      "t": 375,
      "d": 375,
      "v": 100
    },
    {
      "midi": 67,
      "hit": false,
      "t": 750,
      "d": 500,
      "v": 100
    },
    {
      "midi": 75,
      "hit": false,
      "t": 1250,
      "d": 250,
      "v": 100
    },
    {
      "midi": 74,
      "hit": false,
      "t": 1500,
      "d": 250,
      "v": 100
    },
    {
      "midi": 55,
      "hit": false,
      "t": 1500,
      "d": 500,
      "v": 100
    },
    {
      "midi": 72,
      "hit": false,
      "t": 1750,
      "d": 250,
      "v": 100
    },
    {
      "midi": 74,
      "hit": false,
      "t": 2000,
      "d": 375,
      "v": 100
    },
    {
      "midi": 50,
      "hit": false,
      "t": 2000,
      "d": 1250,
      "v": 100
    },
    {
      "midi": 54,
      "hit": false,
      "t": 2000,
      "d": 1250,
      "v": 100
    },
    {
      "midi": 70,
      "hit": false,
      "t": 2375,
      "d": 375,
      "v": 100
    },
    {
      "midi": 66,
      "hit": false,
      "t": 2750,
      "d": 1250,
      "v": 100
    },
    {
      "midi": 57,
      "hit": false,
      "t": 3250,
      "d": 250,
      "v": 100
    },
    {
      "midi": 54,
      "hit": false,
      "t": 3500,
      "d": 250,
      "v": 100
    },
    {
      "midi": 50,
      "hit": false,
      "t": 3750,
      "d": 250,
      "v": 100
    },
    {
      "midi": 74,
      "hit": false,
      "t": 4000,
      "d": 375,
      "v": 100
    },
    {
      "midi": 55,
      "hit": false,
      "t": 4000,
      "d": 1500,
      "v": 100
    },
    {
      "midi": 58,
      "hit": false,
      "t": 4000,
      "d": 1500,
      "v": 100
    },
    {
      "midi": 70,
      "hit": false,
      "t": 4375,
      "d": 375,
      "v": 100
    },
    {
      "midi": 67,
      "hit": false,
      "t": 4750,
      "d": 500,
      "v": 100
    },
    {
      "midi": 75,
      "hit": false,
      "t": 5250,
      "d": 250,
      "v": 100
    },
    {
      "midi": 74,
      "hit": false,
      "t": 5500,
      "d": 250,
      "v": 100
    },
    {
      "midi": 55,
      "hit": false,
      "t": 5500,
      "d": 500,
      "v": 100
    },
    {
      "midi": 72,
      "hit": false,
      "t": 5750,
      "d": 250,
      "v": 100
    },
    {
      "midi": 74,
      "hit": false,
      "t": 6000,
      "d": 1500,
      "v": 100
    },
    {
      "midi": 50,
      "hit": false,
      "t": 6000,
      "d": 1250,
      "v": 100
    },
    {
      "midi": 54,
      "hit": false,
      "t": 6000,
      "d": 1250,
      "v": 100
    },
    {
      "midi": 57,
      "hit": false,
      "t": 7250,
      "d": 250,
      "v": 100
    },
    {
      "midi": 54,
      "hit": false,
      "t": 7500,
      "d": 250,
      "v": 100
    },
    {
      "midi": 50,
      "hit": false,
      "t": 7750,
      "d": 250,
      "v": 100
    },
    {
      "midi": 74,
      "hit": false,
      "t": 8000,
      "d": 375,
      "v": 100
    },
    {
      "midi": 55,
      "hit": false,
      "t": 8000,
      "d": 1500,
      "v": 100
    },
    {
      "midi": 58,
      "hit": false,
      "t": 8000,
      "d": 1500,
      "v": 100
    },
    {
      "midi": 70,
      "hit": false,
      "t": 8375,
      "d": 375,
      "v": 100
    },
    {
      "midi": 67,
      "hit": false,
      "t": 8750,
      "d": 500,
      "v": 100
    },
    {
      "midi": 75,
      "hit": false,
      "t": 9250,
      "d": 250,
      "v": 100
    },
    {
      "midi": 74,
      "hit": false,
      "t": 9500,
      "d": 250,
      "v": 100
    },
    {
      "midi": 55,
      "hit": false,
      "t": 9500,
      "d": 500,
      "v": 100
    },
    {
      "midi": 72,
      "hit": false,
      "t": 9750,
      "d": 250,
      "v": 100
    },
    {
      "midi": 74,
      "hit": false,
      "t": 10000,
      "d": 375,
      "v": 100
    },
    {
      "midi": 50,
      "hit": false,
      "t": 10000,
      "d": 1250,
      "v": 100
    },
    {
      "midi": 54,
      "hit": false,
      "t": 10000,
      "d": 1250,
      "v": 100
    },
    {
      "midi": 70,
      "hit": false,
      "t": 10375,
      "d": 375,
      "v": 100
    },
    {
      "midi": 66,
      "hit": false,
      "t": 10750,
      "d": 1250,
      "v": 100
    },
    {
      "midi": 57,
      "hit": false,
      "t": 11250,
      "d": 250,
      "v": 100
    },
    {
      "midi": 54,
      "hit": false,
      "t": 11500,
      "d": 250,
      "v": 100
    },
    {
      "midi": 50,
      "hit": false,
      "t": 11750,
      "d": 250,
      "v": 100
    },
    {
      "midi": 74,
      "hit": false,
      "t": 12000,
      "d": 375,
      "v": 100
    },
    {
      "midi": 55,
      "hit": false,
      "t": 12000,
      "d": 1500,
      "v": 100
    },
    {
      "midi": 58,
      "hit": false,
      "t": 12000,
      "d": 1500,
      "v": 100
    },
    {
      "midi": 70,
      "hit": false,
      "t": 12375,
      "d": 375,
      "v": 100
    },
    {
      "midi": 67,
      "hit": false,
      "t": 12750,
      "d": 500,
      "v": 100
    },
    {
      "midi": 75,
      "hit": false,
      "t": 13250,
      "d": 250,
      "v": 100
    },
    {
      "midi": 74,
      "hit": false,
      "t": 13500,
      "d": 250,
      "v": 100
    },
    {
      "midi": 55,
      "hit": false,
      "t": 13500,
      "d": 500,
      "v": 100
    },
    {
      "midi": 72,
      "hit": false,
      "t": 13750,
      "d": 250,
      "v": 100
    },
    {
      "midi": 74,
      "hit": false,
      "t": 14000,
      "d": 1500,
      "v": 100
    },
    {
      "midi": 50,
      "hit": false,
      "t": 14000,
      "d": 1250,
      "v": 100
    },
    {
      "midi": 54,
      "hit": false,
      "t": 14000,
      "d": 1250,
      "v": 100
    },
    {
      "midi": 57,
      "hit": false,
      "t": 15250,
      "d": 250,
      "v": 100
    },
    {
      "midi": 54,
      "hit": false,
      "t": 15500,
      "d": 250,
      "v": 100
    },
    {
      "midi": 50,
      "hit": false,
      "t": 15750,
      "d": 250,
      "v": 100
    },
    {
      "midi": 55,
      "hit": false,
      "t": 16000,
      "d": 1000,
      "v": 100
    },
    {
      "midi": 58,
      "hit": false,
      "t": 16000,
      "d": 1000,
      "v": 100
    },
    {
      "midi": 67,
      "hit": false,
      "t": 16250,
      "d": 500,
      "v": 100
    },
    {
      "midi": 62,
      "hit": false,
      "t": 16750,
      "d": 250,
      "v": 100
    },
    {
      "midi": 65,
      "hit": false,
      "t": 17000,
      "d": 500,
      "v": 100
    },
    {
      "midi": 50,
      "hit": false,
      "t": 17250,
      "d": 500,
      "v": 100
    },
    {
      "midi": 60,
      "hit": false,
      "t": 17500,
      "d": 500,
      "v": 100
    },
    {
      "midi": 50,
      "hit": false,
      "t": 17750,
      "d": 250,
      "v": 100
    },
    {
      "midi": 54,
      "hit": false,
      "t": 18000,
      "d": 1000,
      "v": 100
    },
    {
      "midi": 60,
      "hit": false,
      "t": 18000,
      "d": 1000,
      "v": 100
    },
    {
      "midi": 63,
      "hit": false,
      "t": 18250,
      "d": 500,
      "v": 100
    },
    {
      "midi": 65,
      "hit": false,
      "t": 18750,
      "d": 250,
      "v": 100
    },
    {
      "midi": 62,
      "hit": false,
      "t": 19000,
      "d": 1000,
      "v": 100
    },
    {
      "midi": 50,
      "hit": false,
      "t": 19250,
      "d": 250,
      "v": 100
    },
    {
      "midi": 50,
      "hit": false,
      "t": 19500,
      "d": 250,
      "v": 100
    },
    {
      "midi": 50,
      "hit": false,
      "t": 19750,
      "d": 250,
      "v": 100
    },
    {
      "midi": 55,
      "hit": false,
      "t": 20000,
      "d": 1000,
      "v": 100
    },
    {
      "midi": 58,
      "hit": false,
      "t": 20000,
      "d": 1000,
      "v": 100
    },
    {
      "midi": 67,
      "hit": false,
      "t": 20250,
      "d": 500,
      "v": 100
    },
    {
      "midi": 62,
      "hit": false,
      "t": 20750,
      "d": 250,
      "v": 100
    },
    {
      "midi": 65,
      "hit": false,
      "t": 21000,
      "d": 500,
      "v": 100
    },
    {
      "midi": 50,
      "hit": false,
      "t": 21250,
      "d": 500,
      "v": 100
    },
    {
      "midi": 60,
      "hit": false,
      "t": 21500,
      "d": 500,
      "v": 100
    },
    {
      "midi": 50,
      "hit": false,
      "t": 21750,
      "d": 250,
      "v": 100
    },
    {
      "midi": 63,
      "hit": false,
      "t": 22000,
      "d": 250,
      "v": 100
    },
    {
      "midi": 54,
      "hit": false,
      "t": 22000,
      "d": 1000,
      "v": 100
    },
    {
      "midi": 60,
      "hit": false,
      "t": 22000,
      "d": 1000,
      "v": 100
    },
    {
      "midi": 63,
      "hit": false,
      "t": 22250,
      "d": 250,
      "v": 100
    },
    {
      "midi": 63,
      "hit": false,
      "t": 22500,
      "d": 125,
      "v": 100
    },
    {
      "midi": 65,
      "hit": false,
      "t": 22625,
      "d": 125,
      "v": 100
    },
    {
      "midi": 62,
      "hit": false,
      "t": 22750,
      "d": 1250,
      "v": 100
    },
    {
      "midi": 50,
      "hit": false,
      "t": 23250,
      "d": 250,
      "v": 100
    },
    {
      "midi": 50,
      "hit": false,
      "t": 23500,
      "d": 250,
      "v": 100
    },
    {
      "midi": 50,
      "hit": false,
      "t": 23750,
      "d": 250,
      "v": 100
    },
    {
      "midi": 55,
      "hit": false,
      "t": 24000,
      "d": 1000,
      "v": 100
    },
    {
      "midi": 58,
      "hit": false,
      "t": 24000,
      "d": 1000,
      "v": 100
    },
    {
      "midi": 67,
      "hit": false,
      "t": 24250,
      "d": 500,
      "v": 100
    },
    {
      "midi": 62,
      "hit": false,
      "t": 24750,
      "d": 250,
      "v": 100
    },
    {
      "midi": 65,
      "hit": false,
      "t": 25000,
      "d": 500,
      "v": 100
    },
    {
      "midi": 50,
      "hit": false,
      "t": 25250,
      "d": 500,
      "v": 100
    },
    {
      "midi": 60,
      "hit": false,
      "t": 25500,
      "d": 500,
      "v": 100
    },
    {
      "midi": 50,
      "hit": false,
      "t": 25750,
      "d": 250,
      "v": 100
    },
    {
      "midi": 63,
      "hit": false,
      "t": 26000,
      "d": 250,
      "v": 100
    },
    {
      "midi": 54,
      "hit": false,
      "t": 26000,
      "d": 1000,
      "v": 100
    },
    {
      "midi": 60,
      "hit": false,
      "t": 26000,
      "d": 1000,
      "v": 100
    },
    {
      "midi": 63,
      "hit": false,
      "t": 26250,
      "d": 250,
      "v": 100
    },
    {
      "midi": 63,
      "hit": false,
      "t": 26500,
      "d": 125,
      "v": 100
    },
    {
      "midi": 65,
      "hit": false,
      "t": 26625,
      "d": 125,
      "v": 100
    },
    {
      "midi": 62,
      "hit": false,
      "t": 26750,
      "d": 1250,
      "v": 100
    },
    {
      "midi": 50,
      "hit": false,
      "t": 27250,
      "d": 250,
      "v": 100
    },
    {
      "midi": 50,
      "hit": false,
      "t": 27500,
      "d": 250,
      "v": 100
    },
    {
      "midi": 50,
      "hit": false,
      "t": 27750,
      "d": 250,
      "v": 100
    },
    {
      "midi": 55,
      "hit": false,
      "t": 28000,
      "d": 1000,
      "v": 100
    },
    {
      "midi": 58,
      "hit": false,
      "t": 28000,
      "d": 1000,
      "v": 100
    },
    {
      "midi": 67,
      "hit": false,
      "t": 28250,
      "d": 500,
      "v": 100
    },
    {
      "midi": 62,
      "hit": false,
      "t": 28750,
      "d": 250,
      "v": 100
    },
    {
      "midi": 65,
      "hit": false,
      "t": 29000,
      "d": 500,
      "v": 100
    },
    {
      "midi": 50,
      "hit": false,
      "t": 29250,
      "d": 500,
      "v": 100
    },
    {
      "midi": 60,
      "hit": false,
      "t": 29500,
      "d": 250,
      "v": 100
    },
    {
      "midi": 60,
      "hit": false,
      "t": 29750,
      "d": 250,
      "v": 100
    },
    {
      "midi": 50,
      "hit": false,
      "t": 29750,
      "d": 250,
      "v": 100
    },
    {
      "midi": 63,
      "hit": false,
      "t": 30000,
      "d": 250,
      "v": 100
    },
    {
      "midi": 54,
      "hit": false,
      "t": 30000,
      "d": 1000,
      "v": 100
    },
    {
      "midi": 60,
      "hit": false,
      "t": 30000,
      "d": 1000,
      "v": 100
    },
    {
      "midi": 63,
      "hit": false,
      "t": 30250,
      "d": 250,
      "v": 100
    },
    {
      "midi": 63,
      "hit": false,
      "t": 30500,
      "d": 125,
      "v": 100
    },
    {
      "midi": 65,
      "hit": false,
      "t": 30625,
      "d": 125,
      "v": 100
    },
    {
      "midi": 62,
      "hit": false,
      "t": 30750,
      "d": 1250,
      "v": 100
    },
    {
      "midi": 50,
      "hit": false,
      "t": 31250,
      "d": 250,
      "v": 100
    },
    {
      "midi": 50,
      "hit": false,
      "t": 31500,
      "d": 250,
      "v": 100
    },
    {
      "midi": 50,
      "hit": false,
      "t": 31750,
      "d": 250,
      "v": 100
    },
    {
      "midi": 70,
      "hit": false,
      "t": 32000,
      "d": 125,
      "v": 100
    },
    {
      "midi": 55,
      "hit": false,
      "t": 32000,
      "d": 1000,
      "v": 100
    },
    {
      "midi": 58,
      "hit": false,
      "t": 32000,
      "d": 1000,
      "v": 100
    },
    {
      "midi": 70,
      "hit": false,
      "t": 32125,
      "d": 125,
      "v": 100
    },
    {
      "midi": 70,
      "hit": false,
      "t": 32250,
      "d": 125,
      "v": 100
    },
    {
      "midi": 70,
      "hit": false,
      "t": 32375,
      "d": 125,
      "v": 100
    },
    {
      "midi": 70,
      "hit": false,
      "t": 32500,
      "d": 250,
      "v": 100
    },
    {
      "midi": 75,
      "hit": false,
      "t": 32750,
      "d": 500,
      "v": 100
    },
    {
      "midi": 74,
      "hit": false,
      "t": 33250,
      "d": 250,
      "v": 100
    },
    {
      "midi": 50,
      "hit": false,
      "t": 33250,
      "d": 500,
      "v": 100
    },
    {
      "midi": 69,
      "hit": false,
      "t": 33500,
      "d": 250,
      "v": 100
    },
    {
      "midi": 70,
      "hit": false,
      "t": 33750,
      "d": 125,
      "v": 100
    },
    {
      "midi": 50,
      "hit": false,
      "t": 33750,
      "d": 250,
      "v": 100
    },
    {
      "midi": 70,
      "hit": false,
      "t": 33875,
      "d": 125,
      "v": 100
    },
    {
      "midi": 70,
      "hit": false,
      "t": 34000,
      "d": 125,
      "v": 100
    },
    {
      "midi": 54,
      "hit": false,
      "t": 34000,
      "d": 1000,
      "v": 100
    },
    {
      "midi": 60,
      "hit": false,
      "t": 34000,
      "d": 1000,
      "v": 100
    },
    {
      "midi": 70,
      "hit": false,
      "t": 34125,
      "d": 125,
      "v": 100
    },
    {
      "midi": 70,
      "hit": false,
      "t": 34250,
      "d": 125,
      "v": 100
    },
    {
      "midi": 70,
      "hit": false,
      "t": 34375,
      "d": 125,
      "v": 100
    },
    {
      "midi": 70,
      "hit": false,
      "t": 34500,
      "d": 250,
      "v": 100
    },
    {
      "midi": 75,
      "hit": false,
      "t": 34750,
      "d": 500,
      "v": 100
    },
    {
      "midi": 74,
      "hit": false,
      "t": 35250,
      "d": 250,
      "v": 100
    },
    {
      "midi": 50,
      "hit": false,
      "t": 35250,
      "d": 250,
      "v": 100
    },
    {
      "midi": 69,
      "hit": false,
      "t": 35500,
      "d": 250,
      "v": 100
    },
    {
      "midi": 50,
      "hit": false,
      "t": 35500,
      "d": 250,
      "v": 100
    },
    {
      "midi": 66,
      "hit": false,
      "t": 35750,
      "d": 250,
      "v": 100
    },
    {
      "midi": 50,
      "hit": false,
      "t": 35750,
      "d": 250,
      "v": 100
    },
    {
      "midi": 70,
      "hit": false,
      "t": 36000,
      "d": 125,
      "v": 100
    },
    {
      "midi": 55,
      "hit": false,
      "t": 36000,
      "d": 1000,
      "v": 100
    },
    {
      "midi": 58,
      "hit": false,
      "t": 36000,
      "d": 1000,
      "v": 100
    },
    {
      "midi": 70,
      "hit": false,
      "t": 36125,
      "d": 125,
      "v": 100
    },
    {
      "midi": 70,
      "hit": false,
      "t": 36250,
      "d": 125,
      "v": 100
    },
    {
      "midi": 70,
      "hit": false,
      "t": 36375,
      "d": 125,
      "v": 100
    },
    {
      "midi": 70,
      "hit": false,
      "t": 36500,
      "d": 250,
      "v": 100
    },
    {
      "midi": 75,
      "hit": false,
      "t": 36750,
      "d": 500,
      "v": 100
    },
    {
      "midi": 74,
      "hit": false,
      "t": 37250,
      "d": 250,
      "v": 100
    },
    {
      "midi": 50,
      "hit": false,
      "t": 37250,
      "d": 500,
      "v": 100
    },
    {
      "midi": 69,
      "hit": false,
      "t": 37500,
      "d": 250,
      "v": 100
    },
    {
      "midi": 62,
      "hit": false,
      "t": 37750,
      "d": 250,
      "v": 100
    },
    {
      "midi": 50,
      "hit": false,
      "t": 37750,
      "d": 250,
      "v": 100
    },
    {
      "midi": 66,
      "hit": false,
      "t": 38000,
      "d": 500,
      "v": 100
    },
    {
      "midi": 54,
      "hit": false,
      "t": 38000,
      "d": 1000,
      "v": 100
    },
    {
      "midi": 60,
      "hit": false,
      "t": 38000,
      "d": 1000,
      "v": 100
    },
    {
      "midi": 69,
      "hit": false,
      "t": 38500,
      "d": 250,
      "v": 100
    },
    {
      "midi": 75,
      "hit": false,
      "t": 38750,
      "d": 500,
      "v": 100
    },
    {
      "midi": 74,
      "hit": false,
      "t": 39250,
      "d": 250,
      "v": 100
    },
    {
      "midi": 50,
      "hit": false,
      "t": 39250,
      "d": 250,
      "v": 100
    },
    {
      "midi": 69,
      "hit": false,
      "t": 39500,
      "d": 250,
      "v": 100
    },
    {
      "midi": 50,
      "hit": false,
      "t": 39500,
      "d": 250,
      "v": 100
    },
    {
      "midi": 65,
      "hit": false,
      "t": 39750,
      "d": 250,
      "v": 100
    },
    {
      "midi": 50,
      "hit": false,
      "t": 39750,
      "d": 250,
      "v": 100
    },
    {
      "midi": 70,
      "hit": false,
      "t": 40000,
      "d": 125,
      "v": 100
    },
    {
      "midi": 55,
      "hit": false,
      "t": 40000,
      "d": 1000,
      "v": 100
    },
    {
      "midi": 58,
      "hit": false,
      "t": 40000,
      "d": 1000,
      "v": 100
    },
    {
      "midi": 70,
      "hit": false,
      "t": 40125,
      "d": 125,
      "v": 100
    },
    {
      "midi": 70,
      "hit": false,
      "t": 40250,
      "d": 125,
      "v": 100
    },
    {
      "midi": 70,
      "hit": false,
      "t": 40375,
      "d": 125,
      "v": 100
    },
    {
      "midi": 70,
      "hit": false,
      "t": 40500,
      "d": 250,
      "v": 100
    },
    {
      "midi": 74,
      "hit": false,
      "t": 40750,
      "d": 125,
      "v": 100
    },
    {
      "midi": 74,
      "hit": false,
      "t": 40875,
      "d": 125,
      "v": 100
    },
    {
      "midi": 74,
      "hit": false,
      "t": 41000,
      "d": 125,
      "v": 100
    },
    {
      "midi": 74,
      "hit": false,
      "t": 41125,
      "d": 125,
      "v": 100
    },
    {
      "midi": 74,
      "hit": false,
      "t": 41250,
      "d": 250,
      "v": 100
    },
    {
      "midi": 50,
      "hit": false,
      "t": 41250,
      "d": 500,
      "v": 100
    },
    {
      "midi": 75,
      "hit": false,
      "t": 41500,
      "d": 250,
      "v": 100
    },
    {
      "midi": 74,
      "hit": false,
      "t": 41750,
      "d": 250,
      "v": 100
    },
    {
      "midi": 50,
      "hit": false,
      "t": 41750,
      "d": 250,
      "v": 100
    },
    {
      "midi": 72,
      "hit": false,
      "t": 42000,
      "d": 125,
      "v": 100
    },
    {
      "midi": 54,
      "hit": false,
      "t": 42000,
      "d": 1000,
      "v": 100
    },
    {
      "midi": 60,
      "hit": false,
      "t": 42000,
      "d": 1000,
      "v": 100
    },
    {
      "midi": 72,
      "hit": false,
      "t": 42125,
      "d": 125,
      "v": 100
    },
    {
      "midi": 72,
      "hit": false,
      "t": 42250,
      "d": 125,
      "v": 100
    },
    {
      "midi": 72,
      "hit": false,
      "t": 42375,
      "d": 125,
      "v": 100
    },
    {
      "midi": 72,
      "hit": false,
      "t": 42500,
      "d": 250,
      "v": 100
    },
    {
      "midi": 72,
      "hit": false,
      "t": 42750,
      "d": 125,
      "v": 100
    },
    {
      "midi": 72,
      "hit": false,
      "t": 42875,
      "d": 125,
      "v": 100
    },
    {
      "midi": 72,
      "hit": false,
      "t": 43000,
      "d": 125,
      "v": 100
    },
    {
      "midi": 72,
      "hit": false,
      "t": 43125,
      "d": 125,
      "v": 100
    },
    {
      "midi": 72,
      "hit": false,
      "t": 43250,
      "d": 250,
      "v": 100
    },
    {
      "midi": 50,
      "hit": false,
      "t": 43250,
      "d": 250,
      "v": 100
    },
    {
      "midi": 74,
      "hit": false,
      "t": 43500,
      "d": 250,
      "v": 100
    },
    {
      "midi": 50,
      "hit": false,
      "t": 43500,
      "d": 250,
      "v": 100
    },
    {
      "midi": 72,
      "hit": false,
      "t": 43750,
      "d": 250,
      "v": 100
    },
    {
      "midi": 50,
      "hit": false,
      "t": 43750,
      "d": 250,
      "v": 100
    },
    {
      "midi": 70,
      "hit": false,
      "t": 44000,
      "d": 125,
      "v": 100
    },
    {
      "midi": 55,
      "hit": false,
      "t": 44000,
      "d": 1000,
      "v": 100
    },
    {
      "midi": 58,
      "hit": false,
      "t": 44000,
      "d": 1000,
      "v": 100
    },
    {
      "midi": 70,
      "hit": false,
      "t": 44125,
      "d": 125,
      "v": 100
    },
    {
      "midi": 70,
      "hit": false,
      "t": 44250,
      "d": 125,
      "v": 100
    },
    {
      "midi": 70,
      "hit": false,
      "t": 44375,
      "d": 125,
      "v": 100
    },
    {
      "midi": 70,
      "hit": false,
      "t": 44500,
      "d": 250,
      "v": 100
    },
    {
      "midi": 70,
      "hit": false,
      "t": 44750,
      "d": 500,
      "v": 100
    },
    {
      "midi": 70,
      "hit": false,
      "t": 45250,
      "d": 500,
      "v": 100
    },
    {
      "midi": 50,
      "hit": false,
      "t": 45250,
      "d": 500,
      "v": 100
    },
    {
      "midi": 70,
      "hit": false,
      "t": 45750,
      "d": 250,
      "v": 100
    },
    {
      "midi": 50,
      "hit": false,
      "t": 45750,
      "d": 250,
      "v": 100
    },
    {
      "midi": 72,
      "hit": false,
      "t": 46000,
      "d": 500,
      "v": 100
    },
    {
      "midi": 54,
      "hit": false,
      "t": 46000,
      "d": 1000,
      "v": 100
    },
    {
      "midi": 60,
      "hit": false,
      "t": 46000,
      "d": 1000,
      "v": 100
    },
    {
      "midi": 69,
      "hit": false,
      "t": 46500,
      "d": 500,
      "v": 100
    },
    {
      "midi": 66,
      "hit": false,
      "t": 47000,
      "d": 500,
      "v": 100
    },
    {
      "midi": 50,
      "hit": false,
      "t": 47250,
      "d": 250,
      "v": 100
    },
    {
      "midi": 50,
      "hit": false,
      "t": 47500,
      "d": 250,
      "v": 100
    },
    {
      "midi": 50,
      "hit": false,
      "t": 47750,
      "d": 250,
      "v": 100
    },
    {
      "midi": 70,
      "hit": false,
      "t": 48000,
      "d": 125,
      "v": 100
    },
    {
      "midi": 55,
      "hit": false,
      "t": 48000,
      "d": 1000,
      "v": 100
    },
    {
      "midi": 58,
      "hit": false,
      "t": 48000,
      "d": 1000,
      "v": 100
    },
    {
      "midi": 70,
      "hit": false,
      "t": 48125,
      "d": 125,
      "v": 100
    },
    {
      "midi": 70,
      "hit": false,
      "t": 48250,
      "d": 125,
      "v": 100
    },
    {
      "midi": 70,
      "hit": false,
      "t": 48375,
      "d": 125,
      "v": 100
    },
    {
      "midi": 70,
      "hit": false,
      "t": 48500,
      "d": 250,
      "v": 100
    },
    {
      "midi": 74,
      "hit": false,
      "t": 48750,
      "d": 125,
      "v": 100
    },
    {
      "midi": 74,
      "hit": false,
      "t": 48875,
      "d": 125,
      "v": 100
    },
    {
      "midi": 74,
      "hit": false,
      "t": 49000,
      "d": 125,
      "v": 100
    },
    {
      "midi": 74,
      "hit": false,
      "t": 49125,
      "d": 125,
      "v": 100
    },
    {
      "midi": 74,
      "hit": false,
      "t": 49250,
      "d": 250,
      "v": 100
    },
    {
      "midi": 50,
      "hit": false,
      "t": 49250,
      "d": 500,
      "v": 100
    },
    {
      "midi": 75,
      "hit": false,
      "t": 49500,
      "d": 250,
      "v": 100
    },
    {
      "midi": 74,
      "hit": false,
      "t": 49750,
      "d": 250,
      "v": 100
    },
    {
      "midi": 50,
      "hit": false,
      "t": 49750,
      "d": 250,
      "v": 100
    },
    {
      "midi": 72,
      "hit": false,
      "t": 50000,
      "d": 125,
      "v": 100
    },
    {
      "midi": 54,
      "hit": false,
      "t": 50000,
      "d": 1000,
      "v": 100
    },
    {
      "midi": 60,
      "hit": false,
      "t": 50000,
      "d": 1000,
      "v": 100
    },
    {
      "midi": 72,
      "hit": false,
      "t": 50125,
      "d": 125,
      "v": 100
    },
    {
      "midi": 72,
      "hit": false,
      "t": 50250,
      "d": 125,
      "v": 100
    },
    {
      "midi": 72,
      "hit": false,
      "t": 50375,
      "d": 125,
      "v": 100
    },
    {
      "midi": 72,
      "hit": false,
      "t": 50500,
      "d": 250,
      "v": 100
    },
    {
      "midi": 72,
      "hit": false,
      "t": 50750,
      "d": 125,
      "v": 100
    },
    {
      "midi": 72,
      "hit": false,
      "t": 50875,
      "d": 125,
      "v": 100
    },
    {
      "midi": 72,
      "hit": false,
      "t": 51000,
      "d": 125,
      "v": 100
    },
    {
      "midi": 72,
      "hit": false,
      "t": 51125,
      "d": 125,
      "v": 100
    },
    {
      "midi": 72,
      "hit": false,
      "t": 51250,
      "d": 250,
      "v": 100
    },
    {
      "midi": 50,
      "hit": false,
      "t": 51250,
      "d": 250,
      "v": 100
    },
    {
      "midi": 74,
      "hit": false,
      "t": 51500,
      "d": 250,
      "v": 100
    },
    {
      "midi": 50,
      "hit": false,
      "t": 51500,
      "d": 250,
      "v": 100
    },
    {
      "midi": 72,
      "hit": false,
      "t": 51750,
      "d": 250,
      "v": 100
    },
    {
      "midi": 50,
      "hit": false,
      "t": 51750,
      "d": 250,
      "v": 100
    },
    {
      "midi": 70,
      "hit": false,
      "t": 52000,
      "d": 125,
      "v": 100
    },
    {
      "midi": 55,
      "hit": false,
      "t": 52000,
      "d": 1000,
      "v": 100
    },
    {
      "midi": 58,
      "hit": false,
      "t": 52000,
      "d": 1000,
      "v": 100
    },
    {
      "midi": 70,
      "hit": false,
      "t": 52125,
      "d": 125,
      "v": 100
    },
    {
      "midi": 70,
      "hit": false,
      "t": 52250,
      "d": 125,
      "v": 100
    },
    {
      "midi": 70,
      "hit": false,
      "t": 52375,
      "d": 125,
      "v": 100
    },
    {
      "midi": 70,
      "hit": false,
      "t": 52500,
      "d": 250,
      "v": 100
    },
    {
      "midi": 70,
      "hit": false,
      "t": 52750,
      "d": 500,
      "v": 100
    },
    {
      "midi": 70,
      "hit": false,
      "t": 53250,
      "d": 250,
      "v": 100
    },
    {
      "midi": 50,
      "hit": false,
      "t": 53250,
      "d": 500,
      "v": 100
    },
    {
      "midi": 50,
      "hit": false,
      "t": 53750,
      "d": 250,
      "v": 100
    },
    {
      "midi": 72,
      "hit": false,
      "t": 54000,
      "d": 250,
      "v": 100
    },
    {
      "midi": 54,
      "hit": false,
      "t": 54000,
      "d": 1000,
      "v": 100
    },
    {
      "midi": 60,
      "hit": false,
      "t": 54000,
      "d": 1000,
      "v": 100
    },
    {
      "midi": 72,
      "hit": false,
      "t": 54250,
      "d": 500,
      "v": 100
    },
    {
      "midi": 72,
      "hit": false,
      "t": 54750,
      "d": 500,
      "v": 100
    },
    {
      "midi": 72,
      "hit": false,
      "t": 55250,
      "d": 250,
      "v": 100
    },
    {
      "midi": 50,
      "hit": false,
      "t": 55250,
      "d": 250,
      "v": 100
    },
    {
      "midi": 72,
      "hit": false,
      "t": 55500,
      "d": 500,
      "v": 100
    },
    {
      "midi": 50,
      "hit": false,
      "t": 55500,
      "d": 250,
      "v": 100
    },
    {
      "midi": 50,
      "hit": false,
      "t": 55750,
      "d": 250,
      "v": 100
    },
    {
      "midi": 72,
      "hit": false,
      "t": 56000,
      "d": 250,
      "v": 100
    },
    {
      "midi": 54,
      "hit": false,
      "t": 56000,
      "d": 1000,
      "v": 100
    },
    {
      "midi": 60,
      "hit": false,
      "t": 56000,
      "d": 1000,
      "v": 100
    },
    {
      "midi": 72,
      "hit": false,
      "t": 56250,
      "d": 500,
      "v": 100
    },
    {
      "midi": 72,
      "hit": false,
      "t": 56750,
      "d": 500,
      "v": 100
    },
    {
      "midi": 72,
      "hit": false,
      "t": 57250,
      "d": 250,
      "v": 100
    },
    {
      "midi": 50,
      "hit": false,
      "t": 57250,
      "d": 250,
      "v": 100
    },
    {
      "midi": 72,
      "hit": false,
      "t": 57500,
      "d": 250,
      "v": 100
    },
    {
      "midi": 50,
      "hit": false,
      "t": 57500,
      "d": 250,
      "v": 100
    },
    {
      "midi": 62,
      "hit": false,
      "t": 57750,
      "d": 250,
      "v": 100
    },
    {
      "midi": 50,
      "hit": false,
      "t": 57750,
      "d": 250,
      "v": 100
    },
    {
      "midi": 67,
      "hit": false,
      "t": 58000,
      "d": 500,
      "v": 100
    },
    {
      "midi": 55,
      "hit": false,
      "t": 58000,
      "d": 1000,
      "v": 100
    },
    {
      "midi": 58,
      "hit": false,
      "t": 58000,
      "d": 1000,
      "v": 100
    },
    {
      "midi": 70,
      "hit": false,
      "t": 58500,
      "d": 250,
      "v": 100
    },
    {
      "midi": 75,
      "hit": false,
      "t": 58750,
      "d": 500,
      "v": 100
    },
    {
      "midi": 74,
      "hit": false,
      "t": 59250,
      "d": 250,
      "v": 100
    },
    {
      "midi": 50,
      "hit": false,
      "t": 59250,
      "d": 500,
      "v": 100
    },
    {
      "midi": 69,
      "hit": false,
      "t": 59500,
      "d": 250,
      "v": 100
    },
    {
      "midi": 62,
      "hit": false,
      "t": 59750,
      "d": 250,
      "v": 100
    },
    {
      "midi": 50,
      "hit": false,
      "t": 59750,
      "d": 250,
      "v": 100
    },
    {
      "midi": 66,
      "hit": false,
      "t": 60000,
      "d": 500,
      "v": 100
    },
    {
      "midi": 54,
      "hit": false,
      "t": 60000,
      "d": 1000,
      "v": 100
    },
    {
      "midi": 60,
      "hit": false,
      "t": 60000,
      "d": 1000,
      "v": 100
    },
    {
      "midi": 69,
      "hit": false,
      "t": 60500,
      "d": 250,
      "v": 100
    },
    {
      "midi": 75,
      "hit": false,
      "t": 60750,
      "d": 500,
      "v": 100
    },
    {
      "midi": 74,
      "hit": false,
      "t": 61250,
      "d": 250,
      "v": 100
    },
    {
      "midi": 50,
      "hit": false,
      "t": 61250,
      "d": 250,
      "v": 100
    },
    {
      "midi": 69,
      "hit": false,
      "t": 61500,
      "d": 250,
      "v": 100
    },
    {
      "midi": 50,
      "hit": false,
      "t": 61500,
      "d": 250,
      "v": 100
    },
    {
      "midi": 65,
      "hit": false,
      "t": 61750,
      "d": 250,
      "v": 100
    },
    {
      "midi": 50,
      "hit": false,
      "t": 61750,
      "d": 250,
      "v": 100
    },
    {
      "midi": 67,
      "hit": false,
      "t": 62000,
      "d": 500,
      "v": 100
    },
    {
      "midi": 55,
      "hit": false,
      "t": 62000,
      "d": 1000,
      "v": 100
    },
    {
      "midi": 58,
      "hit": false,
      "t": 62000,
      "d": 1000,
      "v": 100
    },
    {
      "midi": 70,
      "hit": false,
      "t": 62500,
      "d": 250,
      "v": 100
    },
    {
      "midi": 75,
      "hit": false,
      "t": 62750,
      "d": 500,
      "v": 100
    },
    {
      "midi": 74,
      "hit": false,
      "t": 63250,
      "d": 250,
      "v": 100
    },
    {
      "midi": 50,
      "hit": false,
      "t": 63250,
      "d": 500,
      "v": 100
    },
    {
      "midi": 69,
      "hit": false,
      "t": 63500,
      "d": 250,
      "v": 100
    },
    {
      "midi": 62,
      "hit": false,
      "t": 63750,
      "d": 250,
      "v": 100
    },
    {
      "midi": 50,
      "hit": false,
      "t": 63750,
      "d": 250,
      "v": 100
    },
    {
      "midi": 66,
      "hit": false,
      "t": 64000,
      "d": 500,
      "v": 100
    },
    {
      "midi": 54,
      "hit": false,
      "t": 64000,
      "d": 1000,
      "v": 100
    },
    {
      "midi": 60,
      "hit": false,
      "t": 64000,
      "d": 1000,
      "v": 100
    },
    {
      "midi": 69,
      "hit": false,
      "t": 64500,
      "d": 250,
      "v": 100
    },
    {
      "midi": 75,
      "hit": false,
      "t": 64750,
      "d": 500,
      "v": 100
    },
    {
      "midi": 74,
      "hit": false,
      "t": 65250,
      "d": 250,
      "v": 100
    },
    {
      "midi": 50,
      "hit": false,
      "t": 65250,
      "d": 250,
      "v": 100
    },
    {
      "midi": 69,
      "hit": false,
      "t": 65500,
      "d": 250,
      "v": 100
    },
    {
      "midi": 50,
      "hit": false,
      "t": 65500,
      "d": 250,
      "v": 100
    },
    {
      "midi": 65,
      "hit": false,
      "t": 65750,
      "d": 250,
      "v": 100
    },
    {
      "midi": 50,
      "hit": false,
      "t": 65750,
      "d": 250,
      "v": 100
    },
    {
      "midi": 67,
      "hit": false,
      "t": 66000,
      "d": 500,
      "v": 100
    },
    {
      "midi": 55,
      "hit": false,
      "t": 66000,
      "d": 1000,
      "v": 100
    },
    {
      "midi": 58,
      "hit": false,
      "t": 66000,
      "d": 1000,
      "v": 100
    },
    {
      "midi": 70,
      "hit": false,
      "t": 66500,
      "d": 250,
      "v": 100
    },
    {
      "midi": 75,
      "hit": false,
      "t": 66750,
      "d": 500,
      "v": 100
    },
    {
      "midi": 74,
      "hit": false,
      "t": 67250,
      "d": 250,
      "v": 100
    },
    {
      "midi": 50,
      "hit": false,
      "t": 67250,
      "d": 500,
      "v": 100
    },
    {
      "midi": 69,
      "hit": false,
      "t": 67500,
      "d": 250,
      "v": 100
    },
    {
      "midi": 62,
      "hit": false,
      "t": 67750,
      "d": 250,
      "v": 100
    },
    {
      "midi": 50,
      "hit": false,
      "t": 67750,
      "d": 250,
      "v": 100
    },
    {
      "midi": 66,
      "hit": false,
      "t": 68000,
      "d": 500,
      "v": 100
    },
    {
      "midi": 54,
      "hit": false,
      "t": 68000,
      "d": 1000,
      "v": 100
    },
    {
      "midi": 60,
      "hit": false,
      "t": 68000,
      "d": 1000,
      "v": 100
    },
    {
      "midi": 69,
      "hit": false,
      "t": 68500,
      "d": 250,
      "v": 100
    },
    {
      "midi": 75,
      "hit": false,
      "t": 68750,
      "d": 500,
      "v": 100
    },
    {
      "midi": 74,
      "hit": false,
      "t": 69250,
      "d": 250,
      "v": 100
    },
    {
      "midi": 50,
      "hit": false,
      "t": 69250,
      "d": 250,
      "v": 100
    },
    {
      "midi": 69,
      "hit": false,
      "t": 69500,
      "d": 250,
      "v": 100
    },
    {
      "midi": 50,
      "hit": false,
      "t": 69500,
      "d": 250,
      "v": 100
    },
    {
      "midi": 65,
      "hit": false,
      "t": 69750,
      "d": 250,
      "v": 100
    },
    {
      "midi": 50,
      "hit": false,
      "t": 69750,
      "d": 250,
      "v": 100
    },
    {
      "midi": 67,
      "hit": false,
      "t": 70000,
      "d": 500,
      "v": 100
    },
    {
      "midi": 55,
      "hit": false,
      "t": 70000,
      "d": 1000,
      "v": 100
    },
    {
      "midi": 58,
      "hit": false,
      "t": 70000,
      "d": 1000,
      "v": 100
    },
    {
      "midi": 70,
      "hit": false,
      "t": 70500,
      "d": 250,
      "v": 100
    },
    {
      "midi": 75,
      "hit": false,
      "t": 70750,
      "d": 500,
      "v": 100
    },
    {
      "midi": 74,
      "hit": false,
      "t": 71250,
      "d": 250,
      "v": 100
    },
    {
      "midi": 50,
      "hit": false,
      "t": 71250,
      "d": 500,
      "v": 100
    },
    {
      "midi": 69,
      "hit": false,
      "t": 71500,
      "d": 250,
      "v": 100
    },
    {
      "midi": 62,
      "hit": false,
      "t": 71750,
      "d": 250,
      "v": 100
    },
    {
      "midi": 50,
      "hit": false,
      "t": 71750,
      "d": 250,
      "v": 100
    },
    {
      "midi": 66,
      "hit": false,
      "t": 72000,
      "d": 500,
      "v": 100
    },
    {
      "midi": 54,
      "hit": false,
      "t": 72000,
      "d": 1000,
      "v": 100
    },
    {
      "midi": 60,
      "hit": false,
      "t": 72000,
      "d": 1000,
      "v": 100
    },
    {
      "midi": 69,
      "hit": false,
      "t": 72500,
      "d": 250,
      "v": 100
    },
    {
      "midi": 75,
      "hit": false,
      "t": 72750,
      "d": 500,
      "v": 100
    },
    {
      "midi": 74,
      "hit": false,
      "t": 73250,
      "d": 250,
      "v": 100
    },
    {
      "midi": 50,
      "hit": false,
      "t": 73250,
      "d": 250,
      "v": 100
    },
    {
      "midi": 69,
      "hit": false,
      "t": 73500,
      "d": 250,
      "v": 100
    },
    {
      "midi": 50,
      "hit": false,
      "t": 73500,
      "d": 250,
      "v": 100
    },
    {
      "midi": 65,
      "hit": false,
      "t": 73750,
      "d": 250,
      "v": 100
    },
    {
      "midi": 50,
      "hit": false,
      "t": 73750,
      "d": 250,
      "v": 100
    },
    {
      "midi": 70,
      "hit": false,
      "t": 74000,
      "d": 125,
      "v": 100
    },
    {
      "midi": 55,
      "hit": false,
      "t": 74000,
      "d": 1000,
      "v": 100
    },
    {
      "midi": 58,
      "hit": false,
      "t": 74000,
      "d": 1000,
      "v": 100
    },
    {
      "midi": 70,
      "hit": false,
      "t": 74125,
      "d": 125,
      "v": 100
    },
    {
      "midi": 70,
      "hit": false,
      "t": 74250,
      "d": 125,
      "v": 100
    },
    {
      "midi": 70,
      "hit": false,
      "t": 74375,
      "d": 125,
      "v": 100
    },
    {
      "midi": 70,
      "hit": false,
      "t": 74500,
      "d": 250,
      "v": 100
    },
    {
      "midi": 75,
      "hit": false,
      "t": 74750,
      "d": 500,
      "v": 100
    },
    {
      "midi": 74,
      "hit": false,
      "t": 75250,
      "d": 250,
      "v": 100
    },
    {
      "midi": 50,
      "hit": false,
      "t": 75250,
      "d": 500,
      "v": 100
    },
    {
      "midi": 69,
      "hit": false,
      "t": 75500,
      "d": 250,
      "v": 100
    },
    {
      "midi": 70,
      "hit": false,
      "t": 75750,
      "d": 125,
      "v": 100
    },
    {
      "midi": 50,
      "hit": false,
      "t": 75750,
      "d": 250,
      "v": 100
    },
    {
      "midi": 70,
      "hit": false,
      "t": 75875,
      "d": 125,
      "v": 100
    },
    {
      "midi": 70,
      "hit": false,
      "t": 76000,
      "d": 125,
      "v": 100
    },
    {
      "midi": 54,
      "hit": false,
      "t": 76000,
      "d": 1000,
      "v": 100
    },
    {
      "midi": 60,
      "hit": false,
      "t": 76000,
      "d": 1000,
      "v": 100
    },
    {
      "midi": 70,
      "hit": false,
      "t": 76125,
      "d": 125,
      "v": 100
    },
    {
      "midi": 70,
      "hit": false,
      "t": 76250,
      "d": 125,
      "v": 100
    },
    {
      "midi": 70,
      "hit": false,
      "t": 76375,
      "d": 125,
      "v": 100
    },
    {
      "midi": 70,
      "hit": false,
      "t": 76500,
      "d": 250,
      "v": 100
    },
    {
      "midi": 75,
      "hit": false,
      "t": 76750,
      "d": 500,
      "v": 100
    },
    {
      "midi": 74,
      "hit": false,
      "t": 77250,
      "d": 250,
      "v": 100
    },
    {
      "midi": 50,
      "hit": false,
      "t": 77250,
      "d": 250,
      "v": 100
    },
    {
      "midi": 69,
      "hit": false,
      "t": 77500,
      "d": 250,
      "v": 100
    },
    {
      "midi": 50,
      "hit": false,
      "t": 77500,
      "d": 250,
      "v": 100
    },
    {
      "midi": 66,
      "hit": false,
      "t": 77750,
      "d": 250,
      "v": 100
    },
    {
      "midi": 50,
      "hit": false,
      "t": 77750,
      "d": 250,
      "v": 100
    },
    {
      "midi": 70,
      "hit": false,
      "t": 78000,
      "d": 125,
      "v": 100
    },
    {
      "midi": 55,
      "hit": false,
      "t": 78000,
      "d": 1000,
      "v": 100
    },
    {
      "midi": 58,
      "hit": false,
      "t": 78000,
      "d": 1000,
      "v": 100
    },
    {
      "midi": 70,
      "hit": false,
      "t": 78125,
      "d": 125,
      "v": 100
    },
    {
      "midi": 70,
      "hit": false,
      "t": 78250,
      "d": 125,
      "v": 100
    },
    {
      "midi": 70,
      "hit": false,
      "t": 78375,
      "d": 125,
      "v": 100
    },
    {
      "midi": 70,
      "hit": false,
      "t": 78500,
      "d": 250,
      "v": 100
    },
    {
      "midi": 75,
      "hit": false,
      "t": 78750,
      "d": 500,
      "v": 100
    },
    {
      "midi": 74,
      "hit": false,
      "t": 79250,
      "d": 250,
      "v": 100
    },
    {
      "midi": 50,
      "hit": false,
      "t": 79250,
      "d": 500,
      "v": 100
    },
    {
      "midi": 69,
      "hit": false,
      "t": 79500,
      "d": 250,
      "v": 100
    },
    {
      "midi": 62,
      "hit": false,
      "t": 79750,
      "d": 250,
      "v": 100
    },
    {
      "midi": 50,
      "hit": false,
      "t": 79750,
      "d": 250,
      "v": 100
    },
    {
      "midi": 66,
      "hit": false,
      "t": 80000,
      "d": 500,
      "v": 100
    },
    {
      "midi": 54,
      "hit": false,
      "t": 80000,
      "d": 1000,
      "v": 100
    },
    {
      "midi": 60,
      "hit": false,
      "t": 80000,
      "d": 1000,
      "v": 100
    },
    {
      "midi": 69,
      "hit": false,
      "t": 80500,
      "d": 250,
      "v": 100
    },
    {
      "midi": 75,
      "hit": false,
      "t": 80750,
      "d": 500,
      "v": 100
    },
    {
      "midi": 74,
      "hit": false,
      "t": 81250,
      "d": 250,
      "v": 100
    },
    {
      "midi": 50,
      "hit": false,
      "t": 81250,
      "d": 250,
      "v": 100
    },
    {
      "midi": 69,
      "hit": false,
      "t": 81500,
      "d": 250,
      "v": 100
    },
    {
      "midi": 50,
      "hit": false,
      "t": 81500,
      "d": 250,
      "v": 100
    },
    {
      "midi": 65,
      "hit": false,
      "t": 81750,
      "d": 250,
      "v": 100
    },
    {
      "midi": 50,
      "hit": false,
      "t": 81750,
      "d": 250,
      "v": 100
    },
    {
      "midi": 70,
      "hit": false,
      "t": 82000,
      "d": 125,
      "v": 100
    },
    {
      "midi": 55,
      "hit": false,
      "t": 82000,
      "d": 1000,
      "v": 100
    },
    {
      "midi": 58,
      "hit": false,
      "t": 82000,
      "d": 1000,
      "v": 100
    },
    {
      "midi": 70,
      "hit": false,
      "t": 82125,
      "d": 125,
      "v": 100
    },
    {
      "midi": 70,
      "hit": false,
      "t": 82250,
      "d": 125,
      "v": 100
    },
    {
      "midi": 70,
      "hit": false,
      "t": 82375,
      "d": 125,
      "v": 100
    },
    {
      "midi": 70,
      "hit": false,
      "t": 82500,
      "d": 250,
      "v": 100
    },
    {
      "midi": 74,
      "hit": false,
      "t": 82750,
      "d": 125,
      "v": 100
    },
    {
      "midi": 74,
      "hit": false,
      "t": 82875,
      "d": 125,
      "v": 100
    },
    {
      "midi": 74,
      "hit": false,
      "t": 83000,
      "d": 125,
      "v": 100
    },
    {
      "midi": 74,
      "hit": false,
      "t": 83125,
      "d": 125,
      "v": 100
    },
    {
      "midi": 74,
      "hit": false,
      "t": 83250,
      "d": 250,
      "v": 100
    },
    {
      "midi": 50,
      "hit": false,
      "t": 83250,
      "d": 500,
      "v": 100
    },
    {
      "midi": 75,
      "hit": false,
      "t": 83500,
      "d": 250,
      "v": 100
    },
    {
      "midi": 74,
      "hit": false,
      "t": 83750,
      "d": 250,
      "v": 100
    },
    {
      "midi": 50,
      "hit": false,
      "t": 83750,
      "d": 250,
      "v": 100
    },
    {
      "midi": 72,
      "hit": false,
      "t": 84000,
      "d": 125,
      "v": 100
    },
    {
      "midi": 54,
      "hit": false,
      "t": 84000,
      "d": 1000,
      "v": 100
    },
    {
      "midi": 60,
      "hit": false,
      "t": 84000,
      "d": 1000,
      "v": 100
    },
    {
      "midi": 72,
      "hit": false,
      "t": 84125,
      "d": 125,
      "v": 100
    },
    {
      "midi": 72,
      "hit": false,
      "t": 84250,
      "d": 125,
      "v": 100
    },
    {
      "midi": 72,
      "hit": false,
      "t": 84375,
      "d": 125,
      "v": 100
    },
    {
      "midi": 72,
      "hit": false,
      "t": 84500,
      "d": 250,
      "v": 100
    },
    {
      "midi": 72,
      "hit": false,
      "t": 84750,
      "d": 125,
      "v": 100
    },
    {
      "midi": 72,
      "hit": false,
      "t": 84875,
      "d": 125,
      "v": 100
    },
    {
      "midi": 72,
      "hit": false,
      "t": 85000,
      "d": 125,
      "v": 100
    },
    {
      "midi": 72,
      "hit": false,
      "t": 85125,
      "d": 125,
      "v": 100
    },
    {
      "midi": 72,
      "hit": false,
      "t": 85250,
      "d": 250,
      "v": 100
    },
    {
      "midi": 50,
      "hit": false,
      "t": 85250,
      "d": 250,
      "v": 100
    },
    {
      "midi": 74,
      "hit": false,
      "t": 85500,
      "d": 250,
      "v": 100
    },
    {
      "midi": 50,
      "hit": false,
      "t": 85500,
      "d": 250,
      "v": 100
    },
    {
      "midi": 72,
      "hit": false,
      "t": 85750,
      "d": 250,
      "v": 100
    },
    {
      "midi": 50,
      "hit": false,
      "t": 85750,
      "d": 250,
      "v": 100
    },
    {
      "midi": 70,
      "hit": false,
      "t": 86000,
      "d": 125,
      "v": 100
    },
    {
      "midi": 55,
      "hit": false,
      "t": 86000,
      "d": 1000,
      "v": 100
    },
    {
      "midi": 58,
      "hit": false,
      "t": 86000,
      "d": 1000,
      "v": 100
    },
    {
      "midi": 70,
      "hit": false,
      "t": 86125,
      "d": 125,
      "v": 100
    },
    {
      "midi": 70,
      "hit": false,
      "t": 86250,
      "d": 125,
      "v": 100
    },
    {
      "midi": 70,
      "hit": false,
      "t": 86375,
      "d": 125,
      "v": 100
    },
    {
      "midi": 70,
      "hit": false,
      "t": 86500,
      "d": 250,
      "v": 100
    },
    {
      "midi": 70,
      "hit": false,
      "t": 86750,
      "d": 500,
      "v": 100
    },
    {
      "midi": 70,
      "hit": false,
      "t": 87250,
      "d": 500,
      "v": 100
    },
    {
      "midi": 50,
      "hit": false,
      "t": 87250,
      "d": 500,
      "v": 100
    },
    {
      "midi": 70,
      "hit": false,
      "t": 87750,
      "d": 250,
      "v": 100
    },
    {
      "midi": 50,
      "hit": false,
      "t": 87750,
      "d": 250,
      "v": 100
    },
    {
      "midi": 72,
      "hit": false,
      "t": 88000,
      "d": 500,
      "v": 100
    },
    {
      "midi": 54,
      "hit": false,
      "t": 88000,
      "d": 1000,
      "v": 100
    },
    {
      "midi": 60,
      "hit": false,
      "t": 88000,
      "d": 1000,
      "v": 100
    },
    {
      "midi": 69,
      "hit": false,
      "t": 88500,
      "d": 500,
      "v": 100
    },
    {
      "midi": 66,
      "hit": false,
      "t": 89000,
      "d": 500,
      "v": 100
    },
    {
      "midi": 50,
      "hit": false,
      "t": 89250,
      "d": 250,
      "v": 100
    },
    {
      "midi": 50,
      "hit": false,
      "t": 89500,
      "d": 250,
      "v": 100
    },
    {
      "midi": 50,
      "hit": false,
      "t": 89750,
      "d": 250,
      "v": 100
    },
    {
      "midi": 70,
      "hit": false,
      "t": 90000,
      "d": 125,
      "v": 100
    },
    {
      "midi": 55,
      "hit": false,
      "t": 90000,
      "d": 1000,
      "v": 100
    },
    {
      "midi": 58,
      "hit": false,
      "t": 90000,
      "d": 1000,
      "v": 100
    },
    {
      "midi": 70,
      "hit": false,
      "t": 90125,
      "d": 125,
      "v": 100
    },
    {
      "midi": 70,
      "hit": false,
      "t": 90250,
      "d": 125,
      "v": 100
    },
    {
      "midi": 70,
      "hit": false,
      "t": 90375,
      "d": 125,
      "v": 100
    },
    {
      "midi": 70,
      "hit": false,
      "t": 90500,
      "d": 250,
      "v": 100
    },
    {
      "midi": 74,
      "hit": false,
      "t": 90750,
      "d": 125,
      "v": 100
    },
    {
      "midi": 74,
      "hit": false,
      "t": 90875,
      "d": 125,
      "v": 100
    },
    {
      "midi": 74,
      "hit": false,
      "t": 91000,
      "d": 125,
      "v": 100
    },
    {
      "midi": 74,
      "hit": false,
      "t": 91125,
      "d": 125,
      "v": 100
    },
    {
      "midi": 74,
      "hit": false,
      "t": 91250,
      "d": 250,
      "v": 100
    },
    {
      "midi": 50,
      "hit": false,
      "t": 91250,
      "d": 500,
      "v": 100
    },
    {
      "midi": 75,
      "hit": false,
      "t": 91500,
      "d": 250,
      "v": 100
    },
    {
      "midi": 74,
      "hit": false,
      "t": 91750,
      "d": 250,
      "v": 100
    },
    {
      "midi": 50,
      "hit": false,
      "t": 91750,
      "d": 250,
      "v": 100
    },
    {
      "midi": 72,
      "hit": false,
      "t": 92000,
      "d": 125,
      "v": 100
    },
    {
      "midi": 54,
      "hit": false,
      "t": 92000,
      "d": 1000,
      "v": 100
    },
    {
      "midi": 60,
      "hit": false,
      "t": 92000,
      "d": 1000,
      "v": 100
    },
    {
      "midi": 72,
      "hit": false,
      "t": 92125,
      "d": 125,
      "v": 100
    },
    {
      "midi": 72,
      "hit": false,
      "t": 92250,
      "d": 125,
      "v": 100
    },
    {
      "midi": 72,
      "hit": false,
      "t": 92375,
      "d": 125,
      "v": 100
    },
    {
      "midi": 72,
      "hit": false,
      "t": 92500,
      "d": 250,
      "v": 100
    },
    {
      "midi": 72,
      "hit": false,
      "t": 92750,
      "d": 125,
      "v": 100
    },
    {
      "midi": 72,
      "hit": false,
      "t": 92875,
      "d": 125,
      "v": 100
    },
    {
      "midi": 72,
      "hit": false,
      "t": 93000,
      "d": 125,
      "v": 100
    },
    {
      "midi": 72,
      "hit": false,
      "t": 93125,
      "d": 125,
      "v": 100
    },
    {
      "midi": 72,
      "hit": false,
      "t": 93250,
      "d": 250,
      "v": 100
    },
    {
      "midi": 50,
      "hit": false,
      "t": 93250,
      "d": 250,
      "v": 100
    },
    {
      "midi": 74,
      "hit": false,
      "t": 93500,
      "d": 250,
      "v": 100
    },
    {
      "midi": 50,
      "hit": false,
      "t": 93500,
      "d": 250,
      "v": 100
    },
    {
      "midi": 72,
      "hit": false,
      "t": 93750,
      "d": 250,
      "v": 100
    },
    {
      "midi": 50,
      "hit": false,
      "t": 93750,
      "d": 250,
      "v": 100
    },
    {
      "midi": 70,
      "hit": false,
      "t": 94000,
      "d": 125,
      "v": 100
    },
    {
      "midi": 55,
      "hit": false,
      "t": 94000,
      "d": 1000,
      "v": 100
    },
    {
      "midi": 58,
      "hit": false,
      "t": 94000,
      "d": 1000,
      "v": 100
    },
    {
      "midi": 70,
      "hit": false,
      "t": 94125,
      "d": 125,
      "v": 100
    },
    {
      "midi": 70,
      "hit": false,
      "t": 94250,
      "d": 125,
      "v": 100
    },
    {
      "midi": 70,
      "hit": false,
      "t": 94375,
      "d": 125,
      "v": 100
    },
    {
      "midi": 70,
      "hit": false,
      "t": 94500,
      "d": 250,
      "v": 100
    },
    {
      "midi": 70,
      "hit": false,
      "t": 94750,
      "d": 500,
      "v": 100
    },
    {
      "midi": 70,
      "hit": false,
      "t": 95250,
      "d": 250,
      "v": 100
    },
    {
      "midi": 50,
      "hit": false,
      "t": 95250,
      "d": 500,
      "v": 100
    },
    {
      "midi": 50,
      "hit": false,
      "t": 95750,
      "d": 250,
      "v": 100
    },
    {
      "midi": 72,
      "hit": false,
      "t": 96000,
      "d": 250,
      "v": 100
    },
    {
      "midi": 54,
      "hit": false,
      "t": 96000,
      "d": 1000,
      "v": 100
    },
    {
      "midi": 60,
      "hit": false,
      "t": 96000,
      "d": 1000,
      "v": 100
    },
    {
      "midi": 72,
      "hit": false,
      "t": 96250,
      "d": 500,
      "v": 100
    },
    {
      "midi": 72,
      "hit": false,
      "t": 96750,
      "d": 500,
      "v": 100
    },
    {
      "midi": 72,
      "hit": false,
      "t": 97250,
      "d": 250,
      "v": 100
    },
    {
      "midi": 50,
      "hit": false,
      "t": 97250,
      "d": 250,
      "v": 100
    },
    {
      "midi": 72,
      "hit": false,
      "t": 97500,
      "d": 500,
      "v": 100
    },
    {
      "midi": 50,
      "hit": false,
      "t": 97500,
      "d": 250,
      "v": 100
    },
    {
      "midi": 50,
      "hit": false,
      "t": 97750,
      "d": 250,
      "v": 100
    },
    {
      "midi": 70,
      "hit": false,
      "t": 98000,
      "d": 125,
      "v": 100
    },
    {
      "midi": 55,
      "hit": false,
      "t": 98000,
      "d": 1000,
      "v": 100
    },
    {
      "midi": 58,
      "hit": false,
      "t": 98000,
      "d": 1000,
      "v": 100
    },
    {
      "midi": 70,
      "hit": false,
      "t": 98125,
      "d": 125,
      "v": 100
    },
    {
      "midi": 70,
      "hit": false,
      "t": 98250,
      "d": 125,
      "v": 100
    },
    {
      "midi": 70,
      "hit": false,
      "t": 98375,
      "d": 125,
      "v": 100
    },
    {
      "midi": 70,
      "hit": false,
      "t": 98500,
      "d": 250,
      "v": 100
    },
    {
      "midi": 74,
      "hit": false,
      "t": 98750,
      "d": 125,
      "v": 100
    },
    {
      "midi": 74,
      "hit": false,
      "t": 98875,
      "d": 125,
      "v": 100
    },
    {
      "midi": 74,
      "hit": false,
      "t": 99000,
      "d": 125,
      "v": 100
    },
    {
      "midi": 74,
      "hit": false,
      "t": 99125,
      "d": 125,
      "v": 100
    },
    {
      "midi": 74,
      "hit": false,
      "t": 99250,
      "d": 250,
      "v": 100
    },
    {
      "midi": 50,
      "hit": false,
      "t": 99250,
      "d": 500,
      "v": 100
    },
    {
      "midi": 75,
      "hit": false,
      "t": 99500,
      "d": 250,
      "v": 100
    },
    {
      "midi": 74,
      "hit": false,
      "t": 99750,
      "d": 250,
      "v": 100
    },
    {
      "midi": 50,
      "hit": false,
      "t": 99750,
      "d": 250,
      "v": 100
    },
    {
      "midi": 72,
      "hit": false,
      "t": 100000,
      "d": 125,
      "v": 100
    },
    {
      "midi": 54,
      "hit": false,
      "t": 100000,
      "d": 1000,
      "v": 100
    },
    {
      "midi": 60,
      "hit": false,
      "t": 100000,
      "d": 1000,
      "v": 100
    },
    {
      "midi": 72,
      "hit": false,
      "t": 100125,
      "d": 125,
      "v": 100
    },
    {
      "midi": 72,
      "hit": false,
      "t": 100250,
      "d": 125,
      "v": 100
    },
    {
      "midi": 72,
      "hit": false,
      "t": 100375,
      "d": 125,
      "v": 100
    },
    {
      "midi": 72,
      "hit": false,
      "t": 100500,
      "d": 250,
      "v": 100
    },
    {
      "midi": 72,
      "hit": false,
      "t": 100750,
      "d": 125,
      "v": 100
    },
    {
      "midi": 72,
      "hit": false,
      "t": 100875,
      "d": 125,
      "v": 100
    },
    {
      "midi": 72,
      "hit": false,
      "t": 101000,
      "d": 125,
      "v": 100
    },
    {
      "midi": 72,
      "hit": false,
      "t": 101125,
      "d": 125,
      "v": 100
    },
    {
      "midi": 72,
      "hit": false,
      "t": 101250,
      "d": 250,
      "v": 100
    },
    {
      "midi": 50,
      "hit": false,
      "t": 101250,
      "d": 250,
      "v": 100
    },
    {
      "midi": 74,
      "hit": false,
      "t": 101500,
      "d": 250,
      "v": 100
    },
    {
      "midi": 50,
      "hit": false,
      "t": 101500,
      "d": 250,
      "v": 100
    },
    {
      "midi": 72,
      "hit": false,
      "t": 101750,
      "d": 250,
      "v": 100
    },
    {
      "midi": 50,
      "hit": false,
      "t": 101750,
      "d": 250,
      "v": 100
    },
    {
      "midi": 70,
      "hit": false,
      "t": 102000,
      "d": 125,
      "v": 100
    },
    {
      "midi": 55,
      "hit": false,
      "t": 102000,
      "d": 1000,
      "v": 100
    },
    {
      "midi": 58,
      "hit": false,
      "t": 102000,
      "d": 1000,
      "v": 100
    },
    {
      "midi": 70,
      "hit": false,
      "t": 102125,
      "d": 125,
      "v": 100
    },
    {
      "midi": 70,
      "hit": false,
      "t": 102250,
      "d": 125,
      "v": 100
    },
    {
      "midi": 70,
      "hit": false,
      "t": 102375,
      "d": 125,
      "v": 100
    },
    {
      "midi": 70,
      "hit": false,
      "t": 102500,
      "d": 250,
      "v": 100
    },
    {
      "midi": 70,
      "hit": false,
      "t": 102750,
      "d": 500,
      "v": 100
    },
    {
      "midi": 70,
      "hit": false,
      "t": 103250,
      "d": 500,
      "v": 100
    },
    {
      "midi": 50,
      "hit": false,
      "t": 103250,
      "d": 500,
      "v": 100
    },
    {
      "midi": 70,
      "hit": false,
      "t": 103750,
      "d": 250,
      "v": 100
    },
    {
      "midi": 50,
      "hit": false,
      "t": 103750,
      "d": 250,
      "v": 100
    },
    {
      "midi": 72,
      "hit": false,
      "t": 104000,
      "d": 500,
      "v": 100
    },
    {
      "midi": 54,
      "hit": false,
      "t": 104000,
      "d": 1000,
      "v": 100
    },
    {
      "midi": 60,
      "hit": false,
      "t": 104000,
      "d": 1000,
      "v": 100
    },
    {
      "midi": 69,
      "hit": false,
      "t": 104500,
      "d": 500,
      "v": 100
    },
    {
      "midi": 66,
      "hit": false,
      "t": 105000,
      "d": 500,
      "v": 100
    },
    {
      "midi": 50,
      "hit": false,
      "t": 105250,
      "d": 250,
      "v": 100
    },
    {
      "midi": 50,
      "hit": false,
      "t": 105500,
      "d": 250,
      "v": 100
    },
    {
      "midi": 50,
      "hit": false,
      "t": 105750,
      "d": 250,
      "v": 100
    },
    {
      "midi": 70,
      "hit": false,
      "t": 106000,
      "d": 125,
      "v": 100
    },
    {
      "midi": 55,
      "hit": false,
      "t": 106000,
      "d": 1000,
      "v": 100
    },
    {
      "midi": 58,
      "hit": false,
      "t": 106000,
      "d": 1000,
      "v": 100
    },
    {
      "midi": 70,
      "hit": false,
      "t": 106125,
      "d": 125,
      "v": 100
    },
    {
      "midi": 70,
      "hit": false,
      "t": 106250,
      "d": 125,
      "v": 100
    },
    {
      "midi": 70,
      "hit": false,
      "t": 106375,
      "d": 125,
      "v": 100
    },
    {
      "midi": 70,
      "hit": false,
      "t": 106500,
      "d": 250,
      "v": 100
    },
    {
      "midi": 74,
      "hit": false,
      "t": 106750,
      "d": 125,
      "v": 100
    },
    {
      "midi": 74,
      "hit": false,
      "t": 106875,
      "d": 125,
      "v": 100
    },
    {
      "midi": 74,
      "hit": false,
      "t": 107000,
      "d": 125,
      "v": 100
    },
    {
      "midi": 74,
      "hit": false,
      "t": 107125,
      "d": 125,
      "v": 100
    },
    {
      "midi": 74,
      "hit": false,
      "t": 107250,
      "d": 250,
      "v": 100
    },
    {
      "midi": 50,
      "hit": false,
      "t": 107250,
      "d": 500,
      "v": 100
    },
    {
      "midi": 75,
      "hit": false,
      "t": 107500,
      "d": 250,
      "v": 100
    },
    {
      "midi": 74,
      "hit": false,
      "t": 107750,
      "d": 250,
      "v": 100
    },
    {
      "midi": 50,
      "hit": false,
      "t": 107750,
      "d": 250,
      "v": 100
    },
    {
      "midi": 72,
      "hit": false,
      "t": 108000,
      "d": 125,
      "v": 100
    },
    {
      "midi": 54,
      "hit": false,
      "t": 108000,
      "d": 1000,
      "v": 100
    },
    {
      "midi": 60,
      "hit": false,
      "t": 108000,
      "d": 1000,
      "v": 100
    },
    {
      "midi": 72,
      "hit": false,
      "t": 108125,
      "d": 125,
      "v": 100
    },
    {
      "midi": 72,
      "hit": false,
      "t": 108250,
      "d": 125,
      "v": 100
    },
    {
      "midi": 72,
      "hit": false,
      "t": 108375,
      "d": 125,
      "v": 100
    },
    {
      "midi": 72,
      "hit": false,
      "t": 108500,
      "d": 250,
      "v": 100
    },
    {
      "midi": 72,
      "hit": false,
      "t": 108750,
      "d": 125,
      "v": 100
    },
    {
      "midi": 72,
      "hit": false,
      "t": 108875,
      "d": 125,
      "v": 100
    },
    {
      "midi": 72,
      "hit": false,
      "t": 109000,
      "d": 125,
      "v": 100
    },
    {
      "midi": 72,
      "hit": false,
      "t": 109125,
      "d": 125,
      "v": 100
    },
    {
      "midi": 72,
      "hit": false,
      "t": 109250,
      "d": 250,
      "v": 100
    },
    {
      "midi": 50,
      "hit": false,
      "t": 109250,
      "d": 250,
      "v": 100
    },
    {
      "midi": 74,
      "hit": false,
      "t": 109500,
      "d": 250,
      "v": 100
    },
    {
      "midi": 50,
      "hit": false,
      "t": 109500,
      "d": 250,
      "v": 100
    },
    {
      "midi": 72,
      "hit": false,
      "t": 109750,
      "d": 250,
      "v": 100
    },
    {
      "midi": 50,
      "hit": false,
      "t": 109750,
      "d": 250,
      "v": 100
    },
    {
      "midi": 70,
      "hit": false,
      "t": 110000,
      "d": 125,
      "v": 100
    },
    {
      "midi": 55,
      "hit": false,
      "t": 110000,
      "d": 1000,
      "v": 100
    },
    {
      "midi": 58,
      "hit": false,
      "t": 110000,
      "d": 1000,
      "v": 100
    },
    {
      "midi": 70,
      "hit": false,
      "t": 110125,
      "d": 125,
      "v": 100
    },
    {
      "midi": 70,
      "hit": false,
      "t": 110250,
      "d": 125,
      "v": 100
    },
    {
      "midi": 70,
      "hit": false,
      "t": 110375,
      "d": 125,
      "v": 100
    },
    {
      "midi": 70,
      "hit": false,
      "t": 110500,
      "d": 250,
      "v": 100
    },
    {
      "midi": 70,
      "hit": false,
      "t": 110750,
      "d": 500,
      "v": 100
    },
    {
      "midi": 70,
      "hit": false,
      "t": 111250,
      "d": 500,
      "v": 100
    },
    {
      "midi": 50,
      "hit": false,
      "t": 111250,
      "d": 500,
      "v": 100
    },
    {
      "midi": 70,
      "hit": false,
      "t": 111750,
      "d": 250,
      "v": 100
    },
    {
      "midi": 50,
      "hit": false,
      "t": 111750,
      "d": 250,
      "v": 100
    },
    {
      "midi": 72,
      "hit": false,
      "t": 112000,
      "d": 250,
      "v": 100
    },
    {
      "midi": 54,
      "hit": false,
      "t": 112000,
      "d": 1000,
      "v": 100
    },
    {
      "midi": 60,
      "hit": false,
      "t": 112000,
      "d": 1000,
      "v": 100
    },
    {
      "midi": 72,
      "hit": false,
      "t": 112250,
      "d": 500,
      "v": 100
    },
    {
      "midi": 72,
      "hit": false,
      "t": 112750,
      "d": 500,
      "v": 100
    },
    {
      "midi": 72,
      "hit": false,
      "t": 113250,
      "d": 250,
      "v": 100
    },
    {
      "midi": 50,
      "hit": false,
      "t": 113250,
      "d": 250,
      "v": 100
    },
    {
      "midi": 72,
      "hit": false,
      "t": 113500,
      "d": 250,
      "v": 100
    },
    {
      "midi": 50,
      "hit": false,
      "t": 113500,
      "d": 250,
      "v": 100
    },
    {
      "midi": 50,
      "hit": false,
      "t": 113750,
      "d": 250,
      "v": 100
    },
    {
      "midi": 67,
      "hit": false,
      "t": 114250,
      "d": 250,
      "v": 100
    },
    {
      "midi": 70,
      "hit": false,
      "t": 114250,
      "d": 250,
      "v": 100
    },
    {
      "midi": 74,
      "hit": false,
      "t": 114250,
      "d": 250,
      "v": 100
    },
    {
      "midi": 55,
      "hit": false,
      "t": 114250,
      "d": 500,
      "v": 100
    },
    {
      "midi": 67,
      "hit": false,
      "t": 114500,
      "d": 1750,
      "v": 100
    },
    {
      "midi": 70,
      "hit": false,
      "t": 114500,
      "d": 1750,
      "v": 100
    },
    {
      "midi": 74,
      "hit": false,
      "t": 114500,
      "d": 1750,
      "v": 100
    },
    {
      "midi": 55,
      "hit": false,
      "t": 114750,
      "d": 1250,
      "v": 100
    },
    {
      "midi": 43,
      "hit": false,
      "t": 116000,
      "d": 250,
      "v": 100
    }
  ]
}