{
  "jsonPath": "Rock/Dance Rock/Howard Jones/tao-te-ching.json",
  "path": "Rock\\Dance Rock\\Howard Jones\\Tao Te Ching.mid",
  "name": "Tao Te Ching",
  "difficulty": "Advanced",
  "bpm": 80,
  "notes": [
    {
      "midi": 41,
      "hit": false,
      "t": 35975,
      "d": 2581.25,
      "v": 69
    },
    {
      "midi": 48,
      "hit": false,
      "t": 37175,
      "d": 468.75,
      "v": 66
    },
    {
      "midi": 53,
      "hit": false,
      "t": 37581.25,
      "d": 668.75,
      "v": 66
    },
    {
      "midi": 48,
      "hit": false,
      "t": 38350,
      "d": 100,
      "v": 11
    },
    {
      "midi": 48,
      "hit": false,
      "t": 38650,
      "d": 200,
      "v": 49
    },
    {
      "midi": 41,
      "hit": false,
      "t": 39012.5,
      "d": 2550,
      "v": 73
    },
    {
      "midi": 48,
      "hit": false,
      "t": 40150,
      "d": 431.25,
      "v": 50
    },
    {
      "midi": 53,
      "hit": false,
      "t": 40518.75,
      "d": 825,
      "v": 67
    },
    {
      "midi": 48,
      "hit": false,
      "t": 41275,
      "d": 62.5,
      "v": 22
    },
    {
      "midi": 48,
      "hit": false,
      "t": 41643.75,
      "d": 43.75,
      "v": 33
    },
    {
      "midi": 36,
      "hit": false,
      "t": 42068.75,
      "d": 1793.75,
      "v": 76
    },
    {
      "midi": 48,
      "hit": false,
      "t": 43543.75,
      "d": 787.5,
      "v": 60
    },
    {
      "midi": 43,
      "hit": false,
      "t": 44618.75,
      "d": 462.5,
      "v": 53
    },
    {
      "midi": 48,
      "hit": false,
      "t": 45018.75,
      "d": 337.5,
      "v": 53
    },
    {
      "midi": 43,
      "hit": false,
      "t": 45393.75,
      "d": 437.5,
      "v": 62
    },
    {
      "midi": 46,
      "hit": false,
      "t": 45756.25,
      "d": 787.5,
      "v": 70
    },
    {
      "midi": 43,
      "hit": false,
      "t": 46193.75,
      "d": 550,
      "v": 45
    },
    {
      "midi": 45,
      "hit": false,
      "t": 46550,
      "d": 868.75,
      "v": 46
    },
    {
      "midi": 43,
      "hit": false,
      "t": 47306.25,
      "d": 200,
      "v": 50
    },
    {
      "midi": 46,
      "hit": false,
      "t": 47643.75,
      "d": 106.25,
      "v": 70
    },
    {
      "midi": 41,
      "hit": false,
      "t": 48025,
      "d": 1575,
      "v": 39
    },
    {
      "midi": 48,
      "hit": false,
      "t": 49125,
      "d": 456.25,
      "v": 52
    },
    {
      "midi": 53,
      "hit": false,
      "t": 49531.25,
      "d": 818.75,
      "v": 71
    },
    {
      "midi": 41,
      "hit": false,
      "t": 50975,
      "d": 1612.5,
      "v": 62
    },
    {
      "midi": 48,
      "hit": false,
      "t": 52131.25,
      "d": 537.5,
      "v": 69
    },
    {
      "midi": 53,
      "hit": false,
      "t": 52575,
      "d": 787.5,
      "v": 52
    },
    {
      "midi": 36,
      "hit": false,
      "t": 54018.75,
      "d": 1768.75,
      "v": 64
    },
    {
      "midi": 43,
      "hit": false,
      "t": 55068.75,
      "d": 650,
      "v": 69
    },
    {
      "midi": 48,
      "hit": false,
      "t": 55493.75,
      "d": 887.5,
      "v": 60
    },
    {
      "midi": 36,
      "hit": false,
      "t": 56937.5,
      "d": 2400,
      "v": 67
    },
    {
      "midi": 43,
      "hit": false,
      "t": 58037.5,
      "d": 431.25,
      "v": 7
    },
    {
      "midi": 46,
      "hit": false,
      "t": 58500,
      "d": 487.5,
      "v": 68
    },
    {
      "midi": 45,
      "hit": false,
      "t": 59262.5,
      "d": 318.75,
      "v": 66
    },
    {
      "midi": 41,
      "hit": false,
      "t": 60043.75,
      "d": 1981.25,
      "v": 66
    },
    {
      "midi": 48,
      "hit": false,
      "t": 61150,
      "d": 531.25,
      "v": 59
    },
    {
      "midi": 53,
      "hit": false,
      "t": 61556.25,
      "d": 1043.75,
      "v": 62
    },
    {
      "midi": 41,
      "hit": false,
      "t": 63068.75,
      "d": 1993.75,
      "v": 66
    },
    {
      "midi": 48,
      "hit": false,
      "t": 64143.75,
      "d": 487.5,
      "v": 51
    },
    {
      "midi": 53,
      "hit": false,
      "t": 64487.5,
      "d": 675,
      "v": 53
    },
    {
      "midi": 36,
      "hit": false,
      "t": 66012.5,
      "d": 1606.25,
      "v": 67
    },
    {
      "midi": 43,
      "hit": false,
      "t": 67150,
      "d": 493.75,
      "v": 47
    },
    {
      "midi": 48,
      "hit": false,
      "t": 67537.5,
      "d": 1187.5,
      "v": 46
    },
    {
      "midi": 36,
      "hit": false,
      "t": 68943.75,
      "d": 1550,
      "v": 59
    },
    {
      "midi": 43,
      "hit": false,
      "t": 70100,
      "d": 475,
      "v": 56
    },
    {
      "midi": 46,
      "hit": false,
      "t": 70475,
      "d": 450,
      "v": 64
    },
    {
      "midi": 43,
      "hit": false,
      "t": 70875,
      "d": 75,
      "v": 45
    },
    {
      "midi": 45,
      "hit": false,
      "t": 71256.25,
      "d": 293.75,
      "v": 62
    },
    {
      "midi": 41,
      "hit": false,
      "t": 72075,
      "d": 2350,
      "v": 70
    },
    {
      "midi": 48,
      "hit": false,
      "t": 73131.25,
      "d": 1456.25,
      "v": 44
    },
    {
      "midi": 53,
      "hit": false,
      "t": 73568.75,
      "d": 1850,
      "v": 38
    },
    {
      "midi": 41,
      "hit": false,
      "t": 75006.25,
      "d": 2281.25,
      "v": 33
    },
    {
      "midi": 48,
      "hit": false,
      "t": 76143.75,
      "d": 1187.5,
      "v": 47
    },
    {
      "midi": 53,
      "hit": false,
      "t": 76537.5,
      "d": 925,
      "v": 48
    },
    {
      "midi": 36,
      "hit": false,
      "t": 78131.25,
      "d": 1712.5,
      "v": 14
    },
    {
      "midi": 43,
      "hit": false,
      "t": 79150,
      "d": 787.5,
      "v": 54
    },
    {
      "midi": 48,
      "hit": false,
      "t": 79562.5,
      "d": 1381.25,
      "v": 43
    },
    {
      "midi": 36,
      "hit": false,
      "t": 80993.75,
      "d": 2393.75,
      "v": 56
    },
    {
      "midi": 43,
      "hit": false,
      "t": 82156.25,
      "d": 543.75,
      "v": 52
    },
    {
      "midi": 48,
      "hit": false,
      "t": 82562.5,
      "d": 893.75,
      "v": 56
    },
    {
      "midi": 46,
      "hit": false,
      "t": 83312.5,
      "d": 368.75,
      "v": 35
    },
    {
      "midi": 41,
      "hit": false,
      "t": 84056.25,
      "d": 2325,
      "v": 47
    },
    {
      "midi": 58,
      "hit": false,
      "t": 88531.25,
      "d": 906.25,
      "v": 9
    },
    {
      "midi": 62,
      "hit": false,
      "t": 88537.5,
      "d": 906.25,
      "v": 54
    },
    {
      "midi": 65,
      "hit": false,
      "t": 88537.5,
      "d": 937.5,
      "v": 43
    },
    {
      "midi": 55,
      "hit": false,
      "t": 88568.75,
      "d": 106.25,
      "v": 18
    },
    {
      "midi": 55,
      "hit": false,
      "t": 89325,
      "d": 581.25,
      "v": 34
    },
    {
      "midi": 65,
      "hit": false,
      "t": 89737.5,
      "d": 762.5,
      "v": 56
    },
    {
      "midi": 62,
      "hit": false,
      "t": 89762.5,
      "d": 4018.75,
      "v": 55
    },
    {
      "midi": 58,
      "hit": false,
      "t": 89781.25,
      "d": 218.75,
      "v": 12
    },
    {
      "midi": 55,
      "hit": false,
      "t": 90125,
      "d": 862.5,
      "v": 38
    },
    {
      "midi": 58,
      "hit": false,
      "t": 90437.5,
      "d": 856.25,
      "v": 15
    },
    {
      "midi": 67,
      "hit": false,
      "t": 90793.75,
      "d": 506.25,
      "v": 52
    },
    {
      "midi": 55,
      "hit": false,
      "t": 91187.5,
      "d": 900,
      "v": 32
    },
    {
      "midi": 58,
      "hit": false,
      "t": 91556.25,
      "d": 893.75,
      "v": 11
    },
    {
      "midi": 65,
      "hit": false,
      "t": 91931.25,
      "d": 775,
      "v": 43
    },
    {
      "midi": 55,
      "hit": false,
      "t": 92343.75,
      "d": 862.5,
      "v": 47
    },
    {
      "midi": 58,
      "hit": false,
      "t": 92631.25,
      "d": 1156.25,
      "v": 41
    },
    {
      "midi": 67,
      "hit": false,
      "t": 93006.25,
      "d": 825,
      "v": 60
    },
    {
      "midi": 55,
      "hit": false,
      "t": 93706.25,
      "d": 106.25,
      "v": 38
    },
    {
      "midi": 41,
      "hit": false,
      "t": 94525,
      "d": 675,
      "v": 47
    },
    {
      "midi": 60,
      "hit": false,
      "t": 94537.5,
      "d": 1856.25,
      "v": 53
    },
    {
      "midi": 65,
      "hit": false,
      "t": 94543.75,
      "d": 5443.75,
      "v": 71
    },
    {
      "midi": 53,
      "hit": false,
      "t": 94550,
      "d": 1250,
      "v": 28
    },
    {
      "midi": 57,
      "hit": false,
      "t": 94550,
      "d": 1706.25,
      "v": 36
    },
    {
      "midi": 41,
      "hit": false,
      "t": 95381.25,
      "d": 4087.5,
      "v": 59
    },
    {
      "midi": 48,
      "hit": false,
      "t": 95756.25,
      "d": 2556.25,
      "v": 60
    },
    {
      "midi": 53,
      "hit": false,
      "t": 96125,
      "d": 2218.75,
      "v": 35
    },
    {
      "midi": 57,
      "hit": false,
      "t": 96412.5,
      "d": 475,
      "v": 47
    },
    {
      "midi": 60,
      "hit": false,
      "t": 96806.25,
      "d": 718.75,
      "v": 53
    },
    {
      "midi": 57,
      "hit": false,
      "t": 97137.5,
      "d": 562.5,
      "v": 53
    },
    {
      "midi": 62,
      "hit": false,
      "t": 97525,
      "d": 1525,
      "v": 73
    },
    {
      "midi": 57,
      "hit": false,
      "t": 98193.75,
      "d": 1056.25,
      "v": 30
    },
    {
      "midi": 48,
      "hit": false,
      "t": 98643.75,
      "d": 725,
      "v": 66
    },
    {
      "midi": 60,
      "hit": false,
      "t": 99031.25,
      "d": 812.5,
      "v": 82
    },
    {
      "midi": 57,
      "hit": false,
      "t": 99381.25,
      "d": 506.25,
      "v": 48
    },
    {
      "midi": 62,
      "hit": false,
      "t": 99768.75,
      "d": 393.75,
      "v": 69
    },
    {
      "midi": 57,
      "hit": false,
      "t": 100137.5,
      "d": 87.5,
      "v": 39
    },
    {
      "midi": 36,
      "hit": false,
      "t": 100475,
      "d": 743.75,
      "v": 43
    },
    {
      "midi": 60,
      "hit": false,
      "t": 100493.75,
      "d": 2406.25,
      "v": 52
    },
    {
      "midi": 55,
      "hit": false,
      "t": 100518.75,
      "d": 537.5,
      "v": 9
    },
    {
      "midi": 48,
      "hit": false,
      "t": 100531.25,
      "d": 1225,
      "v": 47
    },
    {
      "midi": 43,
      "hit": false,
      "t": 100543.75,
      "d": 856.25,
      "v": 63
    },
    {
      "midi": 63,
      "hit": false,
      "t": 100568.75,
      "d": 2181.25,
      "v": 71
    },
    {
      "midi": 36,
      "hit": false,
      "t": 101687.5,
      "d": 4512.5,
      "v": 55
    },
    {
      "midi": 43,
      "hit": false,
      "t": 102075,
      "d": 1618.75,
      "v": 38
    },
    {
      "midi": 48,
      "hit": false,
      "t": 102375,
      "d": 762.5,
      "v": 43
    },
    {
      "midi": 62,
      "hit": false,
      "t": 102768.75,
      "d": 762.5,
      "v": 59
    },
    {
      "midi": 55,
      "hit": false,
      "t": 103137.5,
      "d": 2800,
      "v": 44
    },
    {
      "midi": 63,
      "hit": false,
      "t": 103500,
      "d": 1531.25,
      "v": 74
    },
    {
      "midi": 60,
      "hit": false,
      "t": 103900,
      "d": 818.75,
      "v": 7
    },
    {
      "midi": 43,
      "hit": false,
      "t": 104206.25,
      "d": 1981.25,
      "v": 49
    },
    {
      "midi": 48,
      "hit": false,
      "t": 104625,
      "d": 575,
      "v": 55
    },
    {
      "midi": 62,
      "hit": false,
      "t": 105000,
      "d": 1243.75,
      "v": 78
    },
    {
      "midi": 48,
      "hit": false,
      "t": 105450,
      "d": 600,
      "v": 47
    },
    {
      "midi": 60,
      "hit": false,
      "t": 105812.5,
      "d": 425,
      "v": 69
    },
    {
      "midi": 55,
      "hit": false,
      "t": 106162.5,
      "d": 150,
      "v": 45
    },
    {
      "midi": 41,
      "hit": false,
      "t": 106618.75,
      "d": 618.75,
      "v": 71
    },
    {
      "midi": 57,
      "hit": false,
      "t": 106618.75,
      "d": 1275,
      "v": 50
    },
    {
      "midi": 53,
      "hit": false,
      "t": 106625,
      "d": 850,
      "v": 40
    },
    {
      "midi": 60,
      "hit": false,
      "t": 106637.5,
      "d": 2662.5,
      "v": 71
    },
    {
      "midi": 41,
      "hit": false,
      "t": 107437.5,
      "d": 756.25,
      "v": 33
    },
    {
      "midi": 57,
      "hit": false,
      "t": 108056.25,
      "d": 587.5,
      "v": 57
    },
    {
      "midi": 41,
      "hit": false,
      "t": 108387.5,
      "d": 593.75,
      "v": 48
    },
    {
      "midi": 53,
      "hit": false,
      "t": 108743.75,
      "d": 1956.25,
      "v": 54
    },
    {
      "midi": 41,
      "hit": false,
      "t": 109100,
      "d": 606.25,
      "v": 47
    },
    {
      "midi": 60,
      "hit": false,
      "t": 109506.25,
      "d": 2075,
      "v": 64
    },
    {
      "midi": 41,
      "hit": false,
      "t": 110287.5,
      "d": 293.75,
      "v": 52
    },
    {
      "midi": 57,
      "hit": false,
      "t": 110631.25,
      "d": 381.25,
      "v": 56
    },
    {
      "midi": 53,
      "hit": false,
      "t": 111037.5,
      "d": 475,
      "v": 28
    },
    {
      "midi": 57,
      "hit": false,
      "t": 111400,
      "d": 450,
      "v": 54
    },
    {
      "midi": 60,
      "hit": false,
      "t": 111762.5,
      "d": 250,
      "v": 52
    },
    {
      "midi": 43,
      "hit": false,
      "t": 112768.75,
      "d": 3475,
      "v": 35
    },
    {
      "midi": 50,
      "hit": false,
      "t": 113087.5,
      "d": 1225,
      "v": 47
    },
    {
      "midi": 70,
      "hit": false,
      "t": 113631.25,
      "d": 631.25,
      "v": 45
    },
    {
      "midi": 77,
      "hit": false,
      "t": 114050,
      "d": 431.25,
      "v": 70
    },
    {
      "midi": 70,
      "hit": false,
      "t": 114356.25,
      "d": 631.25,
      "v": 44
    },
    {
      "midi": 79,
      "hit": false,
      "t": 114762.5,
      "d": 387.5,
      "v": 62
    },
    {
      "midi": 70,
      "hit": false,
      "t": 115137.5,
      "d": 2012.5,
      "v": 56
    },
    {
      "midi": 77,
      "hit": false,
      "t": 115506.25,
      "d": 1943.75,
      "v": 71
    },
    {
      "midi": 55,
      "hit": false,
      "t": 115531.25,
      "d": 200,
      "v": 28
    },
    {
      "midi": 50,
      "hit": false,
      "t": 115925,
      "d": 637.5,
      "v": 28
    },
    {
      "midi": 55,
      "hit": false,
      "t": 116256.25,
      "d": 1200,
      "v": 49
    },
    {
      "midi": 74,
      "hit": false,
      "t": 117056.25,
      "d": 1868.75,
      "v": 15
    },
    {
      "midi": 70,
      "hit": false,
      "t": 117368.75,
      "d": 568.75,
      "v": 32
    },
    {
      "midi": 79,
      "hit": false,
      "t": 117750,
      "d": 1281.25,
      "v": 51
    },
    {
      "midi": 70,
      "hit": false,
      "t": 118137.5,
      "d": 831.25,
      "v": 52
    },
    {
      "midi": 53,
      "hit": false,
      "t": 118587.5,
      "d": 5643.75,
      "v": 29
    },
    {
      "midi": 60,
      "hit": false,
      "t": 119150,
      "d": 87.5,
      "v": 12
    },
    {
      "midi": 60,
      "hit": false,
      "t": 119506.25,
      "d": 3537.5,
      "v": 70
    },
    {
      "midi": 65,
      "hit": false,
      "t": 119918.75,
      "d": 1787.5,
      "v": 36
    },
    {
      "midi": 72,
      "hit": false,
      "t": 120287.5,
      "d": 806.25,
      "v": 71
    },
    {
      "midi": 69,
      "hit": false,
      "t": 120693.75,
      "d": 112.5,
      "v": 23
    },
    {
      "midi": 69,
      "hit": false,
      "t": 120937.5,
      "d": 725,
      "v": 31
    },
    {
      "midi": 72,
      "hit": false,
      "t": 121400,
      "d": 1100,
      "v": 71
    },
    {
      "midi": 69,
      "hit": false,
      "t": 121750,
      "d": 2512.5,
      "v": 30
    },
    {
      "midi": 65,
      "hit": false,
      "t": 122162.5,
      "d": 881.25,
      "v": 47
    },
    {
      "midi": 77,
      "hit": false,
      "t": 122537.5,
      "d": 1650,
      "v": 69
    },
    {
      "midi": 60,
      "hit": false,
      "t": 123287.5,
      "d": 843.75,
      "v": 51
    },
    {
      "midi": 65,
      "hit": false,
      "t": 123675,
      "d": 462.5,
      "v": 43
    },
    {
      "midi": 74,
      "hit": false,
      "t": 124093.75,
      "d": 456.25,
      "v": 64
    },
    {
      "midi": 69,
      "hit": false,
      "t": 124493.75,
      "d": 150,
      "v": 36
    },
    {
      "midi": 48,
      "hit": false,
      "t": 124850,
      "d": 418.75,
      "v": 59
    },
    {
      "midi": 72,
      "hit": false,
      "t": 124850,
      "d": 3568.75,
      "v": 51
    },
    {
      "midi": 67,
      "hit": false,
      "t": 124856.25,
      "d": 5906.25,
      "v": 19
    },
    {
      "midi": 75,
      "hit": false,
      "t": 124862.5,
      "d": 3131.25,
      "v": 58
    },
    {
      "midi": 60,
      "hit": false,
      "t": 124881.25,
      "d": 1262.5,
      "v": 31
    },
    {
      "midi": 55,
      "hit": false,
      "t": 124912.5,
      "d": 675,
      "v": 35
    },
    {
      "midi": 48,
      "hit": false,
      "t": 125643.75,
      "d": 4737.5,
      "v": 44
    },
    {
      "midi": 55,
      "hit": false,
      "t": 126087.5,
      "d": 1018.75,
      "v": 53
    },
    {
      "midi": 60,
      "hit": false,
      "t": 126450,
      "d": 1125,
      "v": 36
    },
    {
      "midi": 55,
      "hit": false,
      "t": 127468.75,
      "d": 1143.75,
      "v": 67
    },
    {
      "midi": 60,
      "hit": false,
      "t": 127893.75,
      "d": 1168.75,
      "v": 38
    },
    {
      "midi": 74,
      "hit": false,
      "t": 128325,
      "d": 1475,
      "v": 69
    },
    {
      "midi": 55,
      "hit": false,
      "t": 129012.5,
      "d": 1212.5,
      "v": 52
    },
    {
      "midi": 60,
      "hit": false,
      "t": 129431.25,
      "d": 825,
      "v": 52
    },
    {
      "midi": 75,
      "hit": false,
      "t": 129768.75,
      "d": 768.75,
      "v": 79
    },
    {
      "midi": 74,
      "hit": false,
      "t": 130518.75,
      "d": 412.5,
      "v": 54
    },
    {
      "midi": 67,
      "hit": false,
      "t": 130906.25,
      "d": 143.75,
      "v": 27
    },
    {
      "midi": 72,
      "hit": false,
      "t": 131268.75,
      "d": 9925,
      "v": 67
    },
    {
      "midi": 41,
      "hit": false,
      "t": 131275,
      "d": 3218.75,
      "v": 66
    },
    {
      "midi": 48,
      "hit": false,
      "t": 131643.75,
      "d": 3068.75,
      "v": 60
    },
    {
      "midi": 53,
      "hit": false,
      "t": 132050,
      "d": 856.25,
      "v": 55
    },
    {
      "midi": 69,
      "hit": false,
      "t": 132437.5,
      "d": 793.75,
      "v": 60
    },
    {
      "midi": 65,
      "hit": false,
      "t": 132831.25,
      "d": 787.5,
      "v": 62
    },
    {
      "midi": 53,
      "hit": false,
      "t": 133193.75,
      "d": 1325,
      "v": 54
    },
    {
      "midi": 67,
      "hit": false,
      "t": 133562.5,
      "d": 425,
      "v": 70
    },
    {
      "midi": 69,
      "hit": false,
      "t": 133943.75,
      "d": 412.5,
      "v": 60
    },
    {
      "midi": 67,
      "hit": false,
      "t": 134318.75,
      "d": 431.25,
      "v": 76
    },
    {
      "midi": 65,
      "hit": false,
      "t": 134700,
      "d": 1881.25,
      "v": 60
    },
    {
      "midi": 41,
      "hit": false,
      "t": 135075,
      "d": 1725,
      "v": 56
    },
    {
      "midi": 48,
      "hit": false,
      "t": 135462.5,
      "d": 1306.25,
      "v": 41
    },
    {
      "midi": 53,
      "hit": false,
      "t": 135806.25,
      "d": 1093.75,
      "v": 44
    },
    {
      "midi": 69,
      "hit": false,
      "t": 136531.25,
      "d": 293.75,
      "v": 40
    },
    {
      "midi": 65,
      "hit": false,
      "t": 136868.75,
      "d": 556.25,
      "v": 22
    },
    {
      "midi": 69,
      "hit": false,
      "t": 137331.25,
      "d": 268.75,
      "v": 18
    },
    {
      "midi": 65,
      "hit": false,
      "t": 137625,
      "d": 562.5,
      "v": 31
    },
    {
      "midi": 69,
      "hit": false,
      "t": 138006.25,
      "d": 406.25,
      "v": 56
    },
    {
      "midi": 69,
      "hit": false,
      "t": 138712.5,
      "d": 450,
      "v": 43
    },
    {
      "midi": 69,
      "hit": false,
      "t": 139481.25,
      "d": 337.5,
      "v": 44
    },
    {
      "midi": 69,
      "hit": false,
      "t": 140212.5,
      "d": 262.5,
      "v": 22
    },
    {
      "midi": 69,
      "hit": false,
      "t": 140956.25,
      "d": 256.25,
      "v": 45
    },
    {
      "midi": 63,
      "hit": false,
      "t": 141687.5,
      "d": 731.25,
      "v": 47
    },
    {
      "midi": 63,
      "hit": false,
      "t": 142525,
      "d": 1856.25,
      "v": 20
    },
    {
      "midi": 36,
      "hit": false,
      "t": 142912.5,
      "d": 162.5,
      "v": 13
    },
    {
      "midi": 36,
      "hit": false,
      "t": 143293.75,
      "d": 3793.75,
      "v": 33
    },
    {
      "midi": 43,
      "hit": false,
      "t": 143637.5,
      "d": 3481.25,
      "v": 66
    },
    {
      "midi": 48,
      "hit": false,
      "t": 144050,
      "d": 3168.75,
      "v": 45
    },
    {
      "midi": 60,
      "hit": false,
      "t": 144412.5,
      "d": 500,
      "v": 46
    },
    {
      "midi": 63,
      "hit": false,
      "t": 144825,
      "d": 575,
      "v": 64
    },
    {
      "midi": 60,
      "hit": false,
      "t": 145550,
      "d": 362.5,
      "v": 7
    },
    {
      "midi": 63,
      "hit": false,
      "t": 145862.5,
      "d": 875,
      "v": 57
    },
    {
      "midi": 62,
      "hit": false,
      "t": 146275,
      "d": 393.75,
      "v": 29
    },
    {
      "midi": 60,
      "hit": false,
      "t": 146681.25,
      "d": 431.25,
      "v": 34
    },
    {
      "midi": 62,
      "hit": false,
      "t": 147043.75,
      "d": 806.25,
      "v": 52
    },
    {
      "midi": 60,
      "hit": false,
      "t": 147437.5,
      "d": 137.5,
      "v": 15
    },
    {
      "midi": 60,
      "hit": false,
      "t": 147793.75,
      "d": 275,
      "v": 33
    },
    {
      "midi": 60,
      "hit": false,
      "t": 148493.75,
      "d": 450,
      "v": 48
    },
    {
      "midi": 60,
      "hit": false,
      "t": 149187.5,
      "d": 7587.5,
      "v": 40
    },
    {
      "midi": 41,
      "hit": false,
      "t": 149987.5,
      "d": 1068.75,
      "v": 53
    },
    {
      "midi": 48,
      "hit": false,
      "t": 150350,
      "d": 1037.5,
      "v": 63
    },
    {
      "midi": 53,
      "hit": false,
      "t": 150818.75,
      "d": 868.75,
      "v": 63
    },
    {
      "midi": 48,
      "hit": false,
      "t": 151481.25,
      "d": 387.5,
      "v": 17
    },
    {
      "midi": 41,
      "hit": false,
      "t": 152943.75,
      "d": 1062.5,
      "v": 24
    },
    {
      "midi": 48,
      "hit": false,
      "t": 153393.75,
      "d": 568.75,
      "v": 33
    },
    {
      "midi": 53,
      "hit": false,
      "t": 153837.5,
      "d": 131.25,
      "v": 50
    },
    {
      "midi": 36,
      "hit": false,
      "t": 154568.75,
      "d": 1906.25,
      "v": 70
    },
    {
      "midi": 43,
      "hit": false,
      "t": 155675,
      "d": 806.25,
      "v": 44
    },
    {
      "midi": 48,
      "hit": false,
      "t": 156100,
      "d": 818.75,
      "v": 59
    },
    {
      "midi": 43,
      "hit": false,
      "t": 156850,
      "d": 750,
      "v": 36
    },
    {
      "midi": 46,
      "hit": false,
      "t": 157500,
      "d": 618.75,
      "v": 70
    },
    {
      "midi": 43,
      "hit": false,
      "t": 158162.5,
      "d": 868.75,
      "v": 7
    },
    {
      "midi": 45,
      "hit": false,
      "t": 158975,
      "d": 800,
      "v": 64
    },
    {
      "midi": 43,
      "hit": false,
      "t": 159725,
      "d": 143.75,
      "v": 59
    },
    {
      "midi": 41,
      "hit": false,
      "t": 160556.25,
      "d": 950,
      "v": 66
    },
    {
      "midi": 48,
      "hit": false,
      "t": 160925,
      "d": 881.25,
      "v": 63
    },
    {
      "midi": 53,
      "hit": false,
      "t": 161356.25,
      "d": 1162.5,
      "v": 60
    },
    {
      "midi": 41,
      "hit": false,
      "t": 163500,
      "d": 2262.5,
      "v": 46
    },
    {
      "midi": 48,
      "hit": false,
      "t": 163887.5,
      "d": 1275,
      "v": 63
    },
    {
      "midi": 53,
      "hit": false,
      "t": 164287.5,
      "d": 1556.25,
      "v": 50
    },
    {
      "midi": 48,
      "hit": false,
      "t": 165762.5,
      "d": 106.25,
      "v": 46
    },
    {
      "midi": 36,
      "hit": false,
      "t": 166543.75,
      "d": 5281.25,
      "v": 62
    },
    {
      "midi": 43,
      "hit": false,
      "t": 166906.25,
      "d": 1912.5,
      "v": 54
    },
    {
      "midi": 48,
      "hit": false,
      "t": 167275,
      "d": 2412.5,
      "v": 64
    },
    {
      "midi": 46,
      "hit": false,
      "t": 168712.5,
      "d": 481.25,
      "v": 75
    },
    {
      "midi": 43,
      "hit": false,
      "t": 169125,
      "d": 500,
      "v": 27
    },
    {
      "midi": 45,
      "hit": false,
      "t": 169475,
      "d": 1343.75,
      "v": 76
    },
    {
      "midi": 43,
      "hit": false,
      "t": 170637.5,
      "d": 693.75,
      "v": 63
    },
    {
      "midi": 46,
      "hit": false,
      "t": 171006.25,
      "d": 756.25,
      "v": 72
    },
    {
      "midi": 43,
      "hit": false,
      "t": 171750,
      "d": 118.75,
      "v": 59
    },
    {
      "midi": 41,
      "hit": false,
      "t": 172531.25,
      "d": 2300,
      "v": 54
    },
    {
      "midi": 48,
      "hit": false,
      "t": 172887.5,
      "d": 2000,
      "v": 48
    },
    {
      "midi": 53,
      "hit": false,
      "t": 173250,
      "d": 1787.5,
      "v": 59
    },
    {
      "midi": 41,
      "hit": false,
      "t": 175450,
      "d": 2350,
      "v": 57
    },
    {
      "midi": 48,
      "hit": false,
      "t": 175893.75,
      "d": 1818.75,
      "v": 57
    },
    {
      "midi": 53,
      "hit": false,
      "t": 176275,
      "d": 1493.75,
      "v": 54
    },
    {
      "midi": 36,
      "hit": false,
      "t": 179231.25,
      "d": 2375,
      "v": 56
    },
    {
      "midi": 43,
      "hit": false,
      "t": 179606.25,
      "d": 2012.5,
      "v": 52
    },
    {
      "midi": 48,
      "hit": false,
      "t": 180000,
      "d": 2656.25,
      "v": 57
    },
    {
      "midi": 36,
      "hit": false,
      "t": 182237.5,
      "d": 2468.75,
      "v": 55
    },
    {
      "midi": 43,
      "hit": false,
      "t": 182700,
      "d": 1437.5,
      "v": 34
    },
    {
      "midi": 48,
      "hit": false,
      "t": 183050,
      "d": 1781.25,
      "v": 50
    },
    {
      "midi": 46,
      "hit": false,
      "t": 183725,
      "d": 793.75,
      "v": 58
    },
    {
      "midi": 43,
      "hit": false,
      "t": 184450,
      "d": 256.25,
      "v": 46
    },
    {
      "midi": 45,
      "hit": false,
      "t": 184825,
      "d": 118.75,
      "v": 45
    },
    {
      "midi": 77,
      "hit": false,
      "t": 188268.75,
      "d": 568.75,
      "v": 50
    },
    {
      "midi": 74,
      "hit": false,
      "t": 188287.5,
      "d": 550,
      "v": 50
    },
    {
      "midi": 70,
      "hit": false,
      "t": 188675,
      "d": 187.5,
      "v": 31
    },
    {
      "midi": 77,
      "hit": false,
      "t": 189043.75,
      "d": 1843.75,
      "v": 66
    },
    {
      "midi": 43,
      "hit": false,
      "t": 189700,
      "d": 2850,
      "v": 40
    },
    {
      "midi": 50,
      "hit": false,
      "t": 190100,
      "d": 1443.75,
      "v": 63
    },
    {
      "midi": 55,
      "hit": false,
      "t": 190425,
      "d": 1106.25,
      "v": 57
    },
    {
      "midi": 70,
      "hit": false,
      "t": 190850,
      "d": 2675,
      "v": 50
    },
    {
      "midi": 79,
      "hit": false,
      "t": 191237.5,
      "d": 850,
      "v": 70
    },
    {
      "midi": 50,
      "hit": false,
      "t": 192050,
      "d": 543.75,
      "v": 40
    },
    {
      "midi": 55,
      "hit": false,
      "t": 192343.75,
      "d": 356.25,
      "v": 56
    },
    {
      "midi": 77,
      "hit": false,
      "t": 192737.5,
      "d": 912.5,
      "v": 53
    },
    {
      "midi": 77,
      "hit": false,
      "t": 194268.75,
      "d": 4200,
      "v": 55
    },
    {
      "midi": 53,
      "hit": false,
      "t": 194268.75,
      "d": 5112.5,
      "v": 56
    },
    {
      "midi": 60,
      "hit": false,
      "t": 194656.25,
      "d": 4687.5,
      "v": 63
    },
    {
      "midi": 65,
      "hit": false,
      "t": 195093.75,
      "d": 806.25,
      "v": 62
    },
    {
      "midi": 69,
      "hit": false,
      "t": 195406.25,
      "d": 437.5,
      "v": 51
    },
    {
      "midi": 72,
      "hit": false,
      "t": 195775,
      "d": 1412.5,
      "v": 78
    },
    {
      "midi": 65,
      "hit": false,
      "t": 196162.5,
      "d": 75,
      "v": 32
    },
    {
      "midi": 65,
      "hit": false,
      "t": 196512.5,
      "d": 931.25,
      "v": 55
    },
    {
      "midi": 69,
      "hit": false,
      "t": 196856.25,
      "d": 525,
      "v": 54
    },
    {
      "midi": 74,
      "hit": false,
      "t": 197243.75,
      "d": 2462.5,
      "v": 70
    },
    {
      "midi": 65,
      "hit": false,
      "t": 197956.25,
      "d": 862.5,
      "v": 59
    },
    {
      "midi": 69,
      "hit": false,
      "t": 198356.25,
      "d": 831.25,
      "v": 52
    },
    {
      "midi": 65,
      "hit": false,
      "t": 199087.5,
      "d": 225,
      "v": 52
    },
    {
      "midi": 69,
      "hit": false,
      "t": 199456.25,
      "d": 431.25,
      "v": 39
    },
    {
      "midi": 74,
      "hit": false,
      "t": 199806.25,
      "d": 431.25,
      "v": 52
    },
    {
      "midi": 69,
      "hit": false,
      "t": 200181.25,
      "d": 443.75,
      "v": 38
    },
    {
      "midi": 48,
      "hit": false,
      "t": 200537.5,
      "d": 4312.5,
      "v": 74
    },
    {
      "midi": 75,
      "hit": false,
      "t": 200550,
      "d": 2775,
      "v": 61
    },
    {
      "midi": 55,
      "hit": false,
      "t": 201337.5,
      "d": 2612.5,
      "v": 55
    },
    {
      "midi": 60,
      "hit": false,
      "t": 201737.5,
      "d": 731.25,
      "v": 73
    },
    {
      "midi": 72,
      "hit": false,
      "t": 202156.25,
      "d": 1193.75,
      "v": 91
    },
    {
      "midi": 60,
      "hit": false,
      "t": 202868.75,
      "d": 1118.75,
      "v": 62
    },
    {
      "midi": 67,
      "hit": false,
      "t": 203218.75,
      "d": 468.75,
      "v": 60
    },
    {
      "midi": 74,
      "hit": false,
      "t": 203612.5,
      "d": 2843.75,
      "v": 74
    },
    {
      "midi": 55,
      "hit": false,
      "t": 204450,
      "d": 325,
      "v": 74
    },
    {
      "midi": 72,
      "hit": false,
      "t": 204825,
      "d": 1625,
      "v": 70
    },
    {
      "midi": 41,
      "hit": false,
      "t": 205268.75,
      "d": 4493.75,
      "v": 67
    },
    {
      "midi": 48,
      "hit": false,
      "t": 206100,
      "d": 1193.75,
      "v": 64
    },
    {
      "midi": 53,
      "hit": false,
      "t": 206450,
      "d": 700,
      "v": 47
    },
    {
      "midi": 72,
      "hit": false,
      "t": 206843.75,
      "d": 5125,
      "v": 69
    },
    {
      "midi": 69,
      "hit": false,
      "t": 207643.75,
      "d": 1175,
      "v": 54
    },
    {
      "midi": 48,
      "hit": false,
      "t": 208425,
      "d": 568.75,
      "v": 7
    },
    {
      "midi": 53,
      "hit": false,
      "t": 208487.5,
      "d": 500,
      "v": 50
    },
    {
      "midi": 65,
      "hit": false,
      "t": 208862.5,
      "d": 518.75,
      "v": 52
    },
    {
      "midi": 53,
      "hit": false,
      "t": 209287.5,
      "d": 581.25,
      "v": 52
    },
    {
      "midi": 65,
      "hit": false,
      "t": 209643.75,
      "d": 468.75,
      "v": 52
    },
    {
      "midi": 69,
      "hit": false,
      "t": 210031.25,
      "d": 362.5,
      "v": 43
    },
    {
      "midi": 65,
      "hit": false,
      "t": 210381.25,
      "d": 475,
      "v": 20
    },
    {
      "midi": 69,
      "hit": false,
      "t": 210793.75,
      "d": 325,
      "v": 34
    },
    {
      "midi": 65,
      "hit": false,
      "t": 211181.25,
      "d": 668.75,
      "v": 28
    },
    {
      "midi": 55,
      "hit": false,
      "t": 212712.5,
      "d": 2162.5,
      "v": 42
    },
    {
      "midi": 82,
      "hit": false,
      "t": 213431.25,
      "d": 531.25,
      "v": 51
    },
    {
      "midi": 89,
      "hit": false,
      "t": 213793.75,
      "d": 1643.75,
      "v": 56
    },
    {
      "midi": 82,
      "hit": false,
      "t": 214125,
      "d": 2887.5,
      "v": 23
    },
    {
      "midi": 86,
      "hit": false,
      "t": 214506.25,
      "d": 1112.5,
      "v": 71
    },
    {
      "midi": 55,
      "hit": false,
      "t": 215300,
      "d": 7225,
      "v": 50
    },
    {
      "midi": 88,
      "hit": false,
      "t": 216037.5,
      "d": 118.75,
      "v": 62
    },
    {
      "midi": 89,
      "hit": false,
      "t": 216112.5,
      "d": 281.25,
      "v": 50
    },
    {
      "midi": 89,
      "hit": false,
      "t": 216725,
      "d": 831.25,
      "v": 55
    },
    {
      "midi": 87,
      "hit": false,
      "t": 217525,
      "d": 793.75,
      "v": 67
    },
    {
      "midi": 84,
      "hit": false,
      "t": 218981.25,
      "d": 1462.5,
      "v": 54
    },
    {
      "midi": 81,
      "hit": false,
      "t": 220425,
      "d": 2493.75,
      "v": 55
    },
    {
      "midi": 89,
      "hit": false,
      "t": 221931.25,
      "d": 1100,
      "v": 50
    },
    {
      "midi": 87,
      "hit": false,
      "t": 223431.25,
      "d": 2100,
      "v": 55
    },
    {
      "midi": 60,
      "hit": false,
      "t": 223450,
      "d": 593.75,
      "v": 45
    },
    {
      "midi": 84,
      "hit": false,
      "t": 224593.75,
      "d": 756.25,
      "v": 47
    },
    {
      "midi": 72,
      "hit": false,
      "t": 224987.5,
      "d": 1043.75,
      "v": 50
    },
    {
      "midi": 79,
      "hit": false,
      "t": 225362.5,
      "d": 1387.5,
      "v": 34
    },
    {
      "midi": 84,
      "hit": false,
      "t": 225768.75,
      "d": 1168.75,
      "v": 67
    },
    {
      "midi": 72,
      "hit": false,
      "t": 226531.25,
      "d": 2312.5,
      "v": 73
    },
    {
      "midi": 79,
      "hit": false,
      "t": 226881.25,
      "d": 475,
      "v": 23
    },
    {
      "midi": 84,
      "hit": false,
      "t": 227231.25,
      "d": 537.5,
      "v": 55
    },
    {
      "midi": 79,
      "hit": false,
      "t": 227600,
      "d": 537.5,
      "v": 31
    },
    {
      "midi": 86,
      "hit": false,
      "t": 227968.75,
      "d": 925,
      "v": 64
    },
    {
      "midi": 79,
      "hit": false,
      "t": 228356.25,
      "d": 531.25,
      "v": 42
    },
    {
      "midi": 86,
      "hit": false,
      "t": 229650,
      "d": 1993.75,
      "v": 52
    },
    {
      "midi": 67,
      "hit": false,
      "t": 229650,
      "d": 2412.5,
      "v": 52
    },
    {
      "midi": 79,
      "hit": false,
      "t": 230012.5,
      "d": 537.5,
      "v": 35
    },
    {
      "midi": 82,
      "hit": false,
      "t": 230375,
      "d": 406.25,
      "v": 51
    },
    {
      "midi": 79,
      "hit": false,
      "t": 230725,
      "d": 443.75,
      "v": 20
    },
    {
      "midi": 82,
      "hit": false,
      "t": 231056.25,
      "d": 675,
      "v": 40
    },
    {
      "midi": 84,
      "hit": false,
      "t": 231831.25,
      "d": 318.75,
      "v": 42
    },
    {
      "midi": 84,
      "hit": false,
      "t": 232506.25,
      "d": 1837.5,
      "v": 45
    },
    {
      "midi": 65,
      "hit": false,
      "t": 232512.5,
      "d": 931.25,
      "v": 67
    },
    {
      "midi": 81,
      "hit": false,
      "t": 232856.25,
      "d": 1056.25,
      "v": 55
    },
    {
      "midi": 77,
      "hit": false,
      "t": 233218.75,
      "d": 1718.75,
      "v": 49
    },
    {
      "midi": 65,
      "hit": false,
      "t": 233675,
      "d": 1131.25,
      "v": 39
    },
    {
      "midi": 84,
      "hit": false,
      "t": 234706.25,
      "d": 6218.75,
      "v": 57
    },
    {
      "midi": 63,
      "hit": false,
      "t": 235493.75,
      "d": 975,
      "v": 63
    },
    {
      "midi": 82,
      "hit": false,
      "t": 235493.75,
      "d": 5356.25,
      "v": 52
    },
    {
      "midi": 79,
      "hit": false,
      "t": 235906.25,
      "d": 2575,
      "v": 56
    },
    {
      "midi": 75,
      "hit": false,
      "t": 236287.5,
      "d": 525,
      "v": 54
    },
    {
      "midi": 63,
      "hit": false,
      "t": 236631.25,
      "d": 731.25,
      "v": 61
    },
    {
      "midi": 74,
      "hit": false,
      "t": 237025,
      "d": 850,
      "v": 41
    },
    {
      "midi": 63,
      "hit": false,
      "t": 237731.25,
      "d": 1043.75,
      "v": 63
    },
    {
      "midi": 74,
      "hit": false,
      "t": 238112.5,
      "d": 125,
      "v": 52
    },
    {
      "midi": 75,
      "hit": false,
      "t": 238506.25,
      "d": 925,
      "v": 68
    },
    {
      "midi": 63,
      "hit": false,
      "t": 239275,
      "d": 1600,
      "v": 53
    },
    {
      "midi": 75,
      "hit": false,
      "t": 239656.25,
      "d": 543.75,
      "v": 18
    },
    {
      "midi": 75,
      "hit": false,
      "t": 240418.75,
      "d": 481.25,
      "v": 11
    },
    {
      "midi": 86,
      "hit": false,
      "t": 241387.5,
      "d": 1987.5,
      "v": 69
    },
    {
      "midi": 67,
      "hit": false,
      "t": 241412.5,
      "d": 2737.5,
      "v": 47
    },
    {
      "midi": 84,
      "hit": false,
      "t": 244062.5,
      "d": 212.5,
      "v": 28
    },
    {
      "midi": 84,
      "hit": false,
      "t": 244568.75,
      "d": 1237.5,
      "v": 63
    },
    {
      "midi": 65,
      "hit": false,
      "t": 244575,
      "d": 2412.5,
      "v": 70
    },
    {
      "midi": 84,
      "hit": false,
      "t": 246006.25,
      "d": 725,
      "v": 44
    },
    {
      "midi": 81,
      "hit": false,
      "t": 246731.25,
      "d": 756.25,
      "v": 55
    },
    {
      "midi": 63,
      "hit": false,
      "t": 247481.25,
      "d": 5456.25,
      "v": 57
    },
    {
      "midi": 84,
      "hit": false,
      "t": 247506.25,
      "d": 2106.25,
      "v": 52
    },
    {
      "midi": 82,
      "hit": false,
      "t": 249750,
      "d": 781.25,
      "v": 54
    },
    {
      "midi": 79,
      "hit": false,
      "t": 250543.75,
      "d": 1200,
      "v": 50
    },
    {
      "midi": 75,
      "hit": false,
      "t": 251987.5,
      "d": 906.25,
      "v": 10
    },
    {
      "midi": 86,
      "hit": false,
      "t": 253468.75,
      "d": 1756.25,
      "v": 47
    },
    {
      "midi": 67,
      "hit": false,
      "t": 253468.75,
      "d": 2787.5,
      "v": 40
    },
    {
      "midi": 84,
      "hit": false,
      "t": 256131.25,
      "d": 137.5,
      "v": 36
    },
    {
      "midi": 84,
      "hit": false,
      "t": 256550,
      "d": 1606.25,
      "v": 59
    },
    {
      "midi": 65,
      "hit": false,
      "t": 256556.25,
      "d": 2681.25,
      "v": 66
    },
    {
      "midi": 81,
      "hit": false,
      "t": 258162.5,
      "d": 1193.75,
      "v": 38
    },
    {
      "midi": 84,
      "hit": false,
      "t": 259531.25,
      "d": 2387.5,
      "v": 56
    },
    {
      "midi": 63,
      "hit": false,
      "t": 259537.5,
      "d": 2837.5,
      "v": 63
    },
    {
      "midi": 79,
      "hit": false,
      "t": 260287.5,
      "d": 1612.5,
      "v": 50
    },
    {
      "midi": 75,
      "hit": false,
      "t": 260637.5,
      "d": 581.25,
      "v": 39
    },
    {
      "midi": 72,
      "hit": false,
      "t": 261081.25,
      "d": 725,
      "v": 50
    },
    {
      "midi": 75,
      "hit": false,
      "t": 261406.25,
      "d": 525,
      "v": 49
    },
    {
      "midi": 67,
      "hit": false,
      "t": 261825,
      "d": 550,
      "v": 60
    },
    {
      "midi": 72,
      "hit": false,
      "t": 262162.5,
      "d": 193.75,
      "v": 52
    },
    {
      "midi": 79,
      "hit": false,
      "t": 262556.25,
      "d": 862.5,
      "v": 51
    },
    {
      "midi": 75,
      "hit": false,
      "t": 262850,
      "d": 975,
      "v": 56
    },
    {
      "midi": 72,
      "hit": false,
      "t": 263237.5,
      "d": 743.75,
      "v": 49
    },
    {
      "midi": 79,
      "hit": false,
      "t": 263612.5,
      "d": 931.25,
      "v": 47
    },
    {
      "midi": 75,
      "hit": false,
      "t": 263981.25,
      "d": 2300,
      "v": 35
    },
    {
      "midi": 72,
      "hit": false,
      "t": 264362.5,
      "d": 518.75,
      "v": 36
    },
    {
      "midi": 79,
      "hit": false,
      "t": 264775,
      "d": 1531.25,
      "v": 21
    },
    {
      "midi": 72,
      "hit": false,
      "t": 265100,
      "d": 937.5,
      "v": 32
    },
    {
      "midi": 53,
      "hit": false,
      "t": 265462.5,
      "d": 2562.5,
      "v": 47
    },
    {
      "midi": 60,
      "hit": false,
      "t": 265893.75,
      "d": 2318.75,
      "v": 60
    },
    {
      "midi": 65,
      "hit": false,
      "t": 266268.75,
      "d": 2012.5,
      "v": 60
    },
    {
      "midi": 77,
      "hit": false,
      "t": 266637.5,
      "d": 512.5,
      "v": 50
    },
    {
      "midi": 84,
      "hit": false,
      "t": 267031.25,
      "d": 475,
      "v": 59
    },
    {
      "midi": 77,
      "hit": false,
      "t": 267381.25,
      "d": 556.25,
      "v": 35
    },
    {
      "midi": 84,
      "hit": false,
      "t": 267756.25,
      "d": 1881.25,
      "v": 47
    },
    {
      "midi": 77,
      "hit": false,
      "t": 268093.75,
      "d": 1400,
      "v": 38
    },
    {
      "midi": 53,
      "hit": false,
      "t": 268518.75,
      "d": 2387.5,
      "v": 55
    },
    {
      "midi": 60,
      "hit": false,
      "t": 268937.5,
      "d": 1825,
      "v": 56
    },
    {
      "midi": 65,
      "hit": false,
      "t": 269268.75,
      "d": 1843.75,
      "v": 50
    },
    {
      "midi": 77,
      "hit": false,
      "t": 269656.25,
      "d": 550,
      "v": 18
    },
    {
      "midi": 84,
      "hit": false,
      "t": 269981.25,
      "d": 456.25,
      "v": 63
    },
    {
      "midi": 77,
      "hit": false,
      "t": 270368.75,
      "d": 537.5,
      "v": 28
    },
    {
      "midi": 84,
      "hit": false,
      "t": 270725,
      "d": 2168.75,
      "v": 40
    },
    {
      "midi": 77,
      "hit": false,
      "t": 271156.25,
      "d": 1962.5,
      "v": 25
    },
    {
      "midi": 55,
      "hit": false,
      "t": 272306.25,
      "d": 2206.25,
      "v": 7
    },
    {
      "midi": 62,
      "hit": false,
      "t": 272612.5,
      "d": 2393.75,
      "v": 55
    },
    {
      "midi": 67,
      "hit": false,
      "t": 272968.75,
      "d": 2581.25,
      "v": 52
    },
    {
      "midi": 77,
      "hit": false,
      "t": 273368.75,
      "d": 537.5,
      "v": 33
    },
    {
      "midi": 84,
      "hit": false,
      "t": 273706.25,
      "d": 431.25,
      "v": 63
    },
    {
      "midi": 77,
      "hit": false,
      "t": 274100,
      "d": 550,
      "v": 24
    },
    {
      "midi": 84,
      "hit": false,
      "t": 274468.75,
      "d": 1893.75,
      "v": 55
    },
    {
      "midi": 77,
      "hit": false,
      "t": 274850,
      "d": 1362.5,
      "v": 20
    },
    {
      "midi": 77,
      "hit": false,
      "t": 276418.75,
      "d": 568.75,
      "v": 21
    },
    {
      "midi": 84,
      "hit": false,
      "t": 276812.5,
      "d": 406.25,
      "v": 53
    },
    {
      "midi": 77,
      "hit": false,
      "t": 277168.75,
      "d": 537.5,
      "v": 22
    },
    {
      "midi": 84,
      "hit": false,
      "t": 277506.25,
      "d": 1225,
      "v": 54
    },
    {
      "midi": 77,
      "hit": false,
      "t": 277868.75,
      "d": 1381.25,
      "v": 31
    },
    {
      "midi": 84,
      "hit": false,
      "t": 279037.5,
      "d": 575,
      "v": 45
    },
    {
      "midi": 77,
      "hit": false,
      "t": 280156.25,
      "d": 650,
      "v": 22
    },
    {
      "midi": 77,
      "hit": false,
      "t": 281193.75,
      "d": 931.25,
      "v": 36
    },
    {
      "midi": 84,
      "hit": false,
      "t": 281962.5,
      "d": 418.75,
      "v": 45
    },
    {
      "midi": 77,
      "hit": false,
      "t": 282356.25,
      "d": 493.75,
      "v": 40
    },
    {
      "midi": 84,
      "hit": false,
      "t": 282725,
      "d": 481.25,
      "v": 62
    },
    {
      "midi": 77,
      "hit": false,
      "t": 283118.75,
      "d": 1412.5,
      "v": 47
    },
    {
      "midi": 77,
      "hit": false,
      "t": 284706.25,
      "d": 150,
      "v": 17
    },
    {
      "midi": 84,
      "hit": false,
      "t": 285006.25,
      "d": 331.25,
      "v": 57
    },
    {
      "midi": 77,
      "hit": false,
      "t": 285350,
      "d": 512.5,
      "v": 30
    },
    {
      "midi": 84,
      "hit": false,
      "t": 285712.5,
      "d": 1981.25,
      "v": 63
    },
    {
      "midi": 77,
      "hit": false,
      "t": 286075,
      "d": 2137.5,
      "v": 35
    },
    {
      "midi": 48,
      "hit": false,
      "t": 286818.75,
      "d": 1968.75,
      "v": 7
    },
    {
      "midi": 55,
      "hit": false,
      "t": 287187.5,
      "d": 1568.75,
      "v": 48
    },
    {
      "midi": 60,
      "hit": false,
      "t": 287587.5,
      "d": 1175,
      "v": 52
    },
    {
      "midi": 84,
      "hit": false,
      "t": 288043.75,
      "d": 431.25,
      "v": 62
    },
    {
      "midi": 77,
      "hit": false,
      "t": 288425,
      "d": 500,
      "v": 27
    },
    {
      "midi": 84,
      "hit": false,
      "t": 288762.5,
      "d": 1931.25,
      "v": 53
    },
    {
      "midi": 77,
      "hit": false,
      "t": 289156.25,
      "d": 1300,
      "v": 31
    },
    {
      "midi": 41,
      "hit": false,
      "t": 289506.25,
      "d": 2600,
      "v": 60
    },
    {
      "midi": 48,
      "hit": false,
      "t": 289881.25,
      "d": 2312.5,
      "v": 67
    },
    {
      "midi": 53,
      "hit": false,
      "t": 290281.25,
      "d": 2087.5,
      "v": 64
    },
    {
      "midi": 77,
      "hit": false,
      "t": 290637.5,
      "d": 518.75,
      "v": 45
    },
    {
      "midi": 84,
      "hit": false,
      "t": 291000,
      "d": 443.75,
      "v": 55
    },
    {
      "midi": 77,
      "hit": false,
      "t": 291387.5,
      "d": 537.5,
      "v": 25
    },
    {
      "midi": 84,
      "hit": false,
      "t": 291750,
      "d": 1918.75,
      "v": 63
    },
    {
      "midi": 77,
      "hit": false,
      "t": 292100,
      "d": 1362.5,
      "v": 35
    },
    {
      "midi": 41,
      "hit": false,
      "t": 292481.25,
      "d": 2193.75,
      "v": 63
    },
    {
      "midi": 48,
      "hit": false,
      "t": 292906.25,
      "d": 1687.5,
      "v": 71
    },
    {
      "midi": 53,
      "hit": false,
      "t": 293250,
      "d": 1343.75,
      "v": 54
    },
    {
      "midi": 77,
      "hit": false,
      "t": 293662.5,
      "d": 487.5,
      "v": 40
    },
    {
      "midi": 84,
      "hit": false,
      "t": 294012.5,
      "d": 431.25,
      "v": 60
    },
    {
      "midi": 77,
      "hit": false,
      "t": 294387.5,
      "d": 493.75,
      "v": 19
    },
    {
      "midi": 84,
      "hit": false,
      "t": 294712.5,
      "d": 2087.5,
      "v": 53
    },
    {
      "midi": 77,
      "hit": false,
      "t": 295131.25,
      "d": 1368.75,
      "v": 40
    },
    {
      "midi": 36,
      "hit": false,
      "t": 295462.5,
      "d": 5237.5,
      "v": 60
    },
    {
      "midi": 43,
      "hit": false,
      "t": 295881.25,
      "d": 3781.25,
      "v": 48
    },
    {
      "midi": 48,
      "hit": false,
      "t": 296256.25,
      "d": 4487.5,
      "v": 70
    },
    {
      "midi": 77,
      "hit": false,
      "t": 296662.5,
      "d": 593.75,
      "v": 34
    },
    {
      "midi": 87,
      "hit": false,
      "t": 297025,
      "d": 43.75,
      "v": 50
    },
    {
      "midi": 77,
      "hit": false,
      "t": 297368.75,
      "d": 500,
      "v": 49
    },
    {
      "midi": 87,
      "hit": false,
      "t": 297725,
      "d": 456.25,
      "v": 61
    },
    {
      "midi": 77,
      "hit": false,
      "t": 298118.75,
      "d": 606.25,
      "v": 38
    },
    {
      "midi": 86,
      "hit": false,
      "t": 298506.25,
      "d": 537.5,
      "v": 55
    },
    {
      "midi": 77,
      "hit": false,
      "t": 298850,
      "d": 618.75,
      "v": 34
    },
    {
      "midi": 86,
      "hit": false,
      "t": 299237.5,
      "d": 443.75,
      "v": 33
    },
    {
      "midi": 77,
      "hit": false,
      "t": 299575,
      "d": 575,
      "v": 24
    },
    {
      "midi": 87,
      "hit": false,
      "t": 300000,
      "d": 400,
      "v": 54
    },
    {
      "midi": 77,
      "hit": false,
      "t": 300381.25,
      "d": 518.75,
      "v": 47
    },
    {
      "midi": 86,
      "hit": false,
      "t": 300737.5,
      "d": 1925,
      "v": 59
    },
    {
      "midi": 77,
      "hit": false,
      "t": 301100,
      "d": 1400,
      "v": 36
    },
    {
      "midi": 41,
      "hit": false,
      "t": 301512.5,
      "d": 2731.25,
      "v": 66
    },
    {
      "midi": 48,
      "hit": false,
      "t": 301900,
      "d": 2550,
      "v": 43
    },
    {
      "midi": 53,
      "hit": false,
      "t": 302293.75,
      "d": 2568.75,
      "v": 56
    },
    {
      "midi": 77,
      "hit": false,
      "t": 302637.5,
      "d": 600,
      "v": 40
    },
    {
      "midi": 84,
      "hit": false,
      "t": 303018.75,
      "d": 362.5,
      "v": 55
    },
    {
      "midi": 77,
      "hit": false,
      "t": 303368.75,
      "d": 518.75,
      "v": 29
    },
    {
      "midi": 84,
      "hit": false,
      "t": 303731.25,
      "d": 1900,
      "v": 52
    },
    {
      "midi": 77,
      "hit": false,
      "t": 304106.25,
      "d": 1343.75,
      "v": 27
    },
    {
      "midi": 41,
      "hit": false,
      "t": 304518.75,
      "d": 1900,
      "v": 50
    },
    {
      "midi": 48,
      "hit": false,
      "t": 304875,
      "d": 1437.5,
      "v": 50
    },
    {
      "midi": 53,
      "hit": false,
      "t": 305268.75,
      "d": 1068.75,
      "v": 50
    },
    {
      "midi": 77,
      "hit": false,
      "t": 305637.5,
      "d": 537.5,
      "v": 21
    },
    {
      "midi": 84,
      "hit": false,
      "t": 305987.5,
      "d": 393.75,
      "v": 49
    },
    {
      "midi": 77,
      "hit": false,
      "t": 306350,
      "d": 525,
      "v": 10
    },
    {
      "midi": 84,
      "hit": false,
      "t": 306706.25,
      "d": 2106.25,
      "v": 49
    },
    {
      "midi": 77,
      "hit": false,
      "t": 307137.5,
      "d": 1325,
      "v": 35
    },
    {
      "midi": 36,
      "hit": false,
      "t": 307493.75,
      "d": 5218.75,
      "v": 47
    },
    {
      "midi": 43,
      "hit": false,
      "t": 307887.5,
      "d": 4843.75,
      "v": 55
    },
    {
      "midi": 48,
      "hit": false,
      "t": 308262.5,
      "d": 4487.5,
      "v": 55
    },
    {
      "midi": 77,
      "hit": false,
      "t": 308681.25,
      "d": 543.75,
      "v": 22
    },
    {
      "midi": 84,
      "hit": false,
      "t": 309025,
      "d": 1000,
      "v": 35
    },
    {
      "midi": 77,
      "hit": false,
      "t": 309387.5,
      "d": 475,
      "v": 26
    },
    {
      "midi": 82,
      "hit": false,
      "t": 309743.75,
      "d": 443.75,
      "v": 54
    },
    {
      "midi": 77,
      "hit": false,
      "t": 310131.25,
      "d": 518.75,
      "v": 40
    },
    {
      "midi": 82,
      "hit": false,
      "t": 310500,
      "d": 418.75,
      "v": 42
    },
    {
      "midi": 77,
      "hit": false,
      "t": 310856.25,
      "d": 568.75,
      "v": 35
    },
    {
      "midi": 81,
      "hit": false,
      "t": 311225,
      "d": 468.75,
      "v": 43
    },
    {
      "midi": 77,
      "hit": false,
      "t": 311631.25,
      "d": 443.75,
      "v": 29
    },
    {
      "midi": 81,
      "hit": false,
      "t": 311981.25,
      "d": 375,
      "v": 66
    },
    {
      "midi": 77,
      "hit": false,
      "t": 312362.5,
      "d": 437.5,
      "v": 33
    },
    {
      "midi": 82,
      "hit": false,
      "t": 312718.75,
      "d": 1831.25,
      "v": 60
    },
    {
      "midi": 77,
      "hit": false,
      "t": 313112.5,
      "d": 1300,
      "v": 45
    },
    {
      "midi": 41,
      "hit": false,
      "t": 313462.5,
      "d": 2768.75,
      "v": 59
    },
    {
      "midi": 48,
      "hit": false,
      "t": 313825,
      "d": 2568.75,
      "v": 55
    },
    {
      "midi": 53,
      "hit": false,
      "t": 314218.75,
      "d": 2706.25,
      "v": 55
    },
    {
      "midi": 77,
      "hit": false,
      "t": 314600,
      "d": 600,
      "v": 40
    },
    {
      "midi": 84,
      "hit": false,
      "t": 314987.5,
      "d": 350,
      "v": 56
    },
    {
      "midi": 77,
      "hit": false,
      "t": 315350,
      "d": 543.75,
      "v": 26
    },
    {
      "midi": 84,
      "hit": false,
      "t": 315725,
      "d": 1875,
      "v": 46
    },
    {
      "midi": 77,
      "hit": false,
      "t": 316087.5,
      "d": 1393.75,
      "v": 33
    },
    {
      "midi": 41,
      "hit": false,
      "t": 316468.75,
      "d": 2181.25,
      "v": 59
    },
    {
      "midi": 48,
      "hit": false,
      "t": 316893.75,
      "d": 1625,
      "v": 56
    },
    {
      "midi": 53,
      "hit": false,
      "t": 317250,
      "d": 1293.75,
      "v": 50
    },
    {
      "midi": 77,
      "hit": false,
      "t": 317637.5,
      "d": 606.25,
      "v": 29
    },
    {
      "midi": 84,
      "hit": false,
      "t": 318018.75,
      "d": 393.75,
      "v": 46
    },
    {
      "midi": 77,
      "hit": false,
      "t": 318387.5,
      "d": 562.5,
      "v": 21
    },
    {
      "midi": 84,
      "hit": false,
      "t": 318756.25,
      "d": 1881.25,
      "v": 45
    },
    {
      "midi": 77,
      "hit": false,
      "t": 319131.25,
      "d": 1268.75,
      "v": 38
    },
    {
      "midi": 36,
      "hit": false,
      "t": 319481.25,
      "d": 4706.25,
      "v": 50
    },
    {
      "midi": 43,
      "hit": false,
      "t": 319837.5,
      "d": 4362.5,
      "v": 53
    },
    {
      "midi": 48,
      "hit": false,
      "t": 320200,
      "d": 4037.5,
      "v": 59
    },
    {
      "midi": 77,
      "hit": false,
      "t": 320606.25,
      "d": 593.75,
      "v": 46
    },
    {
      "midi": 82,
      "hit": false,
      "t": 321050,
      "d": 412.5,
      "v": 49
    },
    {
      "midi": 77,
      "hit": false,
      "t": 321400,
      "d": 468.75,
      "v": 36
    },
    {
      "midi": 82,
      "hit": false,
      "t": 321768.75,
      "d": 362.5,
      "v": 55
    },
    {
      "midi": 77,
      "hit": false,
      "t": 322112.5,
      "d": 631.25,
      "v": 34
    },
    {
      "midi": 81,
      "hit": false,
      "t": 322500,
      "d": 500,
      "v": 53
    },
    {
      "midi": 77,
      "hit": false,
      "t": 322875,
      "d": 462.5,
      "v": 22
    },
    {
      "midi": 81,
      "hit": false,
      "t": 323200,
      "d": 368.75,
      "v": 41
    },
    {
      "midi": 77,
      "hit": false,
      "t": 323587.5,
      "d": 525,
      "v": 27
    },
    {
      "midi": 82,
      "hit": false,
      "t": 324006.25,
      "d": 412.5,
      "v": 40
    },
    {
      "midi": 77,
      "hit": false,
      "t": 324331.25,
      "d": 550,
      "v": 24
    },
    {
      "midi": 82,
      "hit": false,
      "t": 324743.75,
      "d": 2243.75,
      "v": 28
    },
    {
      "midi": 77,
      "hit": false,
      "t": 325137.5,
      "d": 1687.5,
      "v": 32
    },
    {
      "midi": 65,
      "hit": false,
      "t": 326637.5,
      "d": 3962.5,
      "v": 64
    },
    {
      "midi": 69,
      "hit": false,
      "t": 327006.25,
      "d": 2612.5,
      "v": 52
    },
    {
      "midi": 72,
      "hit": false,
      "t": 327387.5,
      "d": 2487.5,
      "v": 52
    },
    {
      "midi": 84,
      "hit": false,
      "t": 327756.25,
      "d": 393.75,
      "v": 52
    },
    {
      "midi": 77,
      "hit": false,
      "t": 328131.25,
      "d": 468.75,
      "v": 31
    },
    {
      "midi": 89,
      "hit": false,
      "t": 328475,
      "d": 6106.25,
      "v": 66
    },
    {
      "midi": 84,
      "hit": false,
      "t": 329612.5,
      "d": 1218.75,
      "v": 54
    },
    {
      "midi": 69,
      "hit": false,
      "t": 329968.75,
      "d": 618.75,
      "v": 62
    },
    {
      "midi": 72,
      "hit": false,
      "t": 330375,
      "d": 250,
      "v": 45
    },
    {
      "midi": 77,
      "hit": false,
      "t": 330750,
      "d": 2306.25,
      "v": 30
    },
    {
      "midi": 84,
      "hit": false,
      "t": 331131.25,
      "d": 2393.75,
      "v": 46
    },
    {
      "midi": 63,
      "hit": false,
      "t": 331475,
      "d": 4900,
      "v": 46
    },
    {
      "midi": 67,
      "hit": false,
      "t": 331850,
      "d": 4568.75,
      "v": 59
    },
    {
      "midi": 71,
      "hit": false,
      "t": 332293.75,
      "d": 37.5,
      "v": 38
    },
    {
      "midi": 72,
      "hit": false,
      "t": 332968.75,
      "d": 700,
      "v": 47
    },
    {
      "midi": 77,
      "hit": false,
      "t": 333637.5,
      "d": 906.25,
      "v": 49
    },
    {
      "midi": 72,
      "hit": false,
      "t": 334493.75,
      "d": 2006.25,
      "v": 38
    },
    {
      "midi": 77,
      "hit": false,
      "t": 334862.5,
      "d": 531.25,
      "v": 39
    },
    {
      "midi": 87,
      "hit": false,
      "t": 335231.25,
      "d": 387.5,
      "v": 53
    },
    {
      "midi": 77,
      "hit": false,
      "t": 335587.5,
      "d": 518.75,
      "v": 38
    },
    {
      "midi": 86,
      "hit": false,
      "t": 335975,
      "d": 718.75,
      "v": 51
    },
    {
      "midi": 77,
      "hit": false,
      "t": 336362.5,
      "d": 193.75,
      "v": 21
    },
    {
      "midi": 77,
      "hit": false,
      "t": 336781.25,
      "d": 1512.5,
      "v": 32
    },
    {
      "midi": 86,
      "hit": false,
      "t": 337125,
      "d": 1487.5,
      "v": 53
    },
    {
      "midi": 65,
      "hit": false,
      "t": 337493.75,
      "d": 3218.75,
      "v": 59
    },
    {
      "midi": 69,
      "hit": false,
      "t": 337837.5,
      "d": 2181.25,
      "v": 30
    },
    {
      "midi": 72,
      "hit": false,
      "t": 338181.25,
      "d": 2606.25,
      "v": 54
    },
    {
      "midi": 77,
      "hit": false,
      "t": 338631.25,
      "d": 525,
      "v": 40
    },
    {
      "midi": 89,
      "hit": false,
      "t": 339018.75,
      "d": 412.5,
      "v": 52
    },
    {
      "midi": 77,
      "hit": false,
      "t": 339350,
      "d": 562.5,
      "v": 22
    },
    {
      "midi": 89,
      "hit": false,
      "t": 339743.75,
      "d": 450,
      "v": 51
    },
    {
      "midi": 77,
      "hit": false,
      "t": 340150,
      "d": 550,
      "v": 33
    },
    {
      "midi": 89,
      "hit": false,
      "t": 340500,
      "d": 537.5,
      "v": 49
    },
    {
      "midi": 77,
      "hit": false,
      "t": 340881.25,
      "d": 1250,
      "v": 21
    },
    {
      "midi": 65,
      "hit": false,
      "t": 341237.5,
      "d": 1200,
      "v": 52
    },
    {
      "midi": 69,
      "hit": false,
      "t": 341600,
      "d": 743.75,
      "v": 46
    },
    {
      "midi": 84,
      "hit": false,
      "t": 342031.25,
      "d": 2693.75,
      "v": 50
    },
    {
      "midi": 77,
      "hit": false,
      "t": 342393.75,
      "d": 493.75,
      "v": 27
    },
    {
      "midi": 89,
      "hit": false,
      "t": 342768.75,
      "d": 368.75,
      "v": 52
    },
    {
      "midi": 77,
      "hit": false,
      "t": 343137.5,
      "d": 1237.5,
      "v": 30
    },
    {
      "midi": 63,
      "hit": false,
      "t": 343481.25,
      "d": 5025,
      "v": 50
    },
    {
      "midi": 67,
      "hit": false,
      "t": 343875,
      "d": 4325,
      "v": 23
    },
    {
      "midi": 72,
      "hit": false,
      "t": 344231.25,
      "d": 4181.25,
      "v": 40
    },
    {
      "midi": 77,
      "hit": false,
      "t": 344662.5,
      "d": 568.75,
      "v": 33
    },
    {
      "midi": 87,
      "hit": false,
      "t": 345025,
      "d": 412.5,
      "v": 55
    },
    {
      "midi": 77,
      "hit": false,
      "t": 345393.75,
      "d": 481.25,
      "v": 30
    },
    {
      "midi": 87,
      "hit": false,
      "t": 345737.5,
      "d": 425,
      "v": 39
    },
    {
      "midi": 77,
      "hit": false,
      "t": 346087.5,
      "d": 593.75,
      "v": 21
    },
    {
      "midi": 86,
      "hit": false,
      "t": 346481.25,
      "d": 550,
      "v": 38
    },
    {
      "midi": 77,
      "hit": false,
      "t": 346881.25,
      "d": 362.5,
      "v": 18
    },
    {
      "midi": 86,
      "hit": false,
      "t": 347168.75,
      "d": 537.5,
      "v": 20
    },
    {
      "midi": 77,
      "hit": false,
      "t": 347618.75,
      "d": 556.25,
      "v": 34
    },
    {
      "midi": 87,
      "hit": false,
      "t": 348006.25,
      "d": 475,
      "v": 53
    },
    {
      "midi": 77,
      "hit": false,
      "t": 348393.75,
      "d": 375,
      "v": 16
    },
    {
      "midi": 87,
      "hit": false,
      "t": 348700,
      "d": 243.75,
      "v": 34
    },
    {
      "midi": 93,
      "hit": false,
      "t": 349462.5,
      "d": 1231.25,
      "v": 40
    },
    {
      "midi": 84,
      "hit": false,
      "t": 349837.5,
      "d": 543.75,
      "v": 27
    },
    {
      "midi": 89,
      "hit": false,
      "t": 350231.25,
      "d": 812.5,
      "v": 47
    },
    {
      "midi": 84,
      "hit": false,
      "t": 350612.5,
      "d": 600,
      "v": 39
    },
    {
      "midi": 93,
      "hit": false,
      "t": 350981.25,
      "d": 531.25,
      "v": 52
    },
    {
      "midi": 84,
      "hit": false,
      "t": 351393.75,
      "d": 481.25,
      "v": 11
    },
    {
      "midi": 96,
      "hit": false,
      "t": 351750,
      "d": 406.25,
      "v": 28
    },
    {
      "midi": 84,
      "hit": false,
      "t": 352093.75,
      "d": 612.5,
      "v": 45
    },
    {
      "midi": 93,
      "hit": false,
      "t": 352481.25,
      "d": 1143.75,
      "v": 50
    },
    {
      "midi": 84,
      "hit": false,
      "t": 352862.5,
      "d": 512.5,
      "v": 34
    },
    {
      "midi": 89,
      "hit": false,
      "t": 353250,
      "d": 437.5,
      "v": 52
    },
    {
      "midi": 84,
      "hit": false,
      "t": 353625,
      "d": 575,
      "v": 38
    },
    {
      "midi": 93,
      "hit": false,
      "t": 353993.75,
      "d": 381.25,
      "v": 39
    },
    {
      "midi": 84,
      "hit": false,
      "t": 354356.25,
      "d": 487.5,
      "v": 20
    },
    {
      "midi": 96,
      "hit": false,
      "t": 354750,
      "d": 518.75,
      "v": 39
    },
    {
      "midi": 84,
      "hit": false,
      "t": 355125,
      "d": 450,
      "v": 28
    },
    {
      "midi": 91,
      "hit": false,
      "t": 355518.75,
      "d": 362.5,
      "v": 38
    },
    {
      "midi": 84,
      "hit": false,
      "t": 355875,
      "d": 575,
      "v": 36
    },
    {
      "midi": 91,
      "hit": false,
      "t": 356331.25,
      "d": 318.75,
      "v": 34
    },
    {
      "midi": 84,
      "hit": false,
      "t": 356637.5,
      "d": 1225,
      "v": 41
    },
    {
      "midi": 91,
      "hit": false,
      "t": 357000,
      "d": 431.25,
      "v": 34
    },
    {
      "midi": 87,
      "hit": false,
      "t": 357325,
      "d": 437.5,
      "v": 45
    },
    {
      "midi": 96,
      "hit": false,
      "t": 357750,
      "d": 481.25,
      "v": 22
    },
    {
      "midi": 84,
      "hit": false,
      "t": 358150,
      "d": 550,
      "v": 28
    },
    {
      "midi": 91,
      "hit": false,
      "t": 358550,
      "d": 368.75,
      "v": 44
    },
    {
      "midi": 84,
      "hit": false,
      "t": 358893.75,
      "d": 531.25,
      "v": 55
    },
    {
      "midi": 87,
      "hit": false,
      "t": 359275,
      "d": 550,
      "v": 19
    },
    {
      "midi": 84,
      "hit": false,
      "t": 359618.75,
      "d": 525,
      "v": 51
    },
    {
      "midi": 91,
      "hit": false,
      "t": 360018.75,
      "d": 556.25,
      "v": 27
    },
    {
      "midi": 84,
      "hit": false,
      "t": 360381.25,
      "d": 437.5,
      "v": 22
    },
    {
      "midi": 96,
      "hit": false,
      "t": 360725,
      "d": 381.25,
      "v": 34
    },
    {
      "midi": 84,
      "hit": false,
      "t": 361100,
      "d": 512.5,
      "v": 50
    },
    {
      "midi": 93,
      "hit": false,
      "t": 361475,
      "d": 775,
      "v": 50
    },
    {
      "midi": 84,
      "hit": false,
      "t": 361831.25,
      "d": 462.5,
      "v": 46
    },
    {
      "midi": 89,
      "hit": false,
      "t": 362206.25,
      "d": 406.25,
      "v": 52
    },
    {
      "midi": 84,
      "hit": false,
      "t": 362537.5,
      "d": 725,
      "v": 40
    },
    {
      "midi": 93,
      "hit": false,
      "t": 362993.75,
      "d": 531.25,
      "v": 59
    },
    {
      "midi": 84,
      "hit": false,
      "t": 363381.25,
      "d": 556.25,
      "v": 24
    },
    {
      "midi": 93,
      "hit": false,
      "t": 363756.25,
      "d": 356.25,
      "v": 11
    },
    {
      "midi": 84,
      "hit": false,
      "t": 364093.75,
      "d": 581.25,
      "v": 16
    },
    {
      "midi": 93,
      "hit": false,
      "t": 364500,
      "d": 1150,
      "v": 53
    },
    {
      "midi": 84,
      "hit": false,
      "t": 364900,
      "d": 518.75,
      "v": 38
    },
    {
      "midi": 89,
      "hit": false,
      "t": 365243.75,
      "d": 375,
      "v": 45
    },
    {
      "midi": 84,
      "hit": false,
      "t": 365606.25,
      "d": 506.25,
      "v": 31
    },
    {
      "midi": 89,
      "hit": false,
      "t": 365962.5,
      "d": 456.25,
      "v": 49
    },
    {
      "midi": 93,
      "hit": false,
      "t": 365975,
      "d": 418.75,
      "v": 43
    },
    {
      "midi": 84,
      "hit": false,
      "t": 366375,
      "d": 531.25,
      "v": 41
    },
    {
      "midi": 89,
      "hit": false,
      "t": 366743.75,
      "d": 456.25,
      "v": 22
    },
    {
      "midi": 96,
      "hit": false,
      "t": 366750,
      "d": 456.25,
      "v": 52
    },
    {
      "midi": 84,
      "hit": false,
      "t": 367175,
      "d": 593.75,
      "v": 22
    },
    {
      "midi": 84,
      "hit": false,
      "t": 367881.25,
      "d": 487.5,
      "v": 27
    },
    {
      "midi": 87,
      "hit": false,
      "t": 368250,
      "d": 418.75,
      "v": 38
    },
    {
      "midi": 91,
      "hit": false,
      "t": 368256.25,
      "d": 375,
      "v": 48
    },
    {
      "midi": 84,
      "hit": false,
      "t": 368625,
      "d": 462.5,
      "v": 19
    },
    {
      "midi": 87,
      "hit": false,
      "t": 368975,
      "d": 500,
      "v": 46
    },
    {
      "midi": 91,
      "hit": false,
      "t": 368993.75,
      "d": 368.75,
      "v": 45
    },
    {
      "midi": 84,
      "hit": false,
      "t": 369375,
      "d": 450,
      "v": 47
    },
    {
      "midi": 87,
      "hit": false,
      "t": 369681.25,
      "d": 806.25,
      "v": 8
    },
    {
      "midi": 96,
      "hit": false,
      "t": 369762.5,
      "d": 387.5,
      "v": 22
    },
    {
      "midi": 84,
      "hit": false,
      "t": 370106.25,
      "d": 362.5,
      "v": 31
    },
    {
      "midi": 84,
      "hit": false,
      "t": 370531.25,
      "d": 150,
      "v": 50
    },
    {
      "midi": 84,
      "hit": false,
      "t": 370893.75,
      "d": 512.5,
      "v": 35
    },
    {
      "midi": 87,
      "hit": false,
      "t": 371231.25,
      "d": 475,
      "v": 13
    },
    {
      "midi": 91,
      "hit": false,
      "t": 371300,
      "d": 337.5,
      "v": 15
    },
    {
      "midi": 84,
      "hit": false,
      "t": 371637.5,
      "d": 506.25,
      "v": 27
    },
    {
      "midi": 87,
      "hit": false,
      "t": 372000,
      "d": 468.75,
      "v": 10
    },
    {
      "midi": 91,
      "hit": false,
      "t": 372037.5,
      "d": 306.25,
      "v": 22
    },
    {
      "midi": 84,
      "hit": false,
      "t": 372393.75,
      "d": 487.5,
      "v": 31
    },
    {
      "midi": 87,
      "hit": false,
      "t": 372631.25,
      "d": 1318.75,
      "v": 7
    },
    {
      "midi": 96,
      "hit": false,
      "t": 372731.25,
      "d": 1075,
      "v": 26
    },
    {
      "midi": 84,
      "hit": false,
      "t": 373131.25,
      "d": 918.75,
      "v": 15
    },
    {
      "midi": 77,
      "hit": false,
      "t": 373593.75,
      "d": 87.5,
      "v": 28
    },
    {
      "midi": 77,
      "hit": false,
      "t": 373900,
      "d": 887.5,
      "v": 40
    },
    {
      "midi": 89,
      "hit": false,
      "t": 374281.25,
      "d": 856.25,
      "v": 51
    },
    {
      "midi": 84,
      "hit": false,
      "t": 374612.5,
      "d": 462.5,
      "v": 45
    },
    {
      "midi": 77,
      "hit": false,
      "t": 374981.25,
      "d": 1218.75,
      "v": 54
    },
    {
      "midi": 84,
      "hit": false,
      "t": 375343.75,
      "d": 493.75,
      "v": 36
    },
    {
      "midi": 89,
      "hit": false,
      "t": 375737.5,
      "d": 1112.5,
      "v": 49
    },
    {
      "midi": 93,
      "hit": false,
      "t": 375743.75,
      "d": 2600,
      "v": 51
    },
    {
      "midi": 84,
      "hit": false,
      "t": 376081.25,
      "d": 618.75,
      "v": 38
    },
    {
      "midi": 77,
      "hit": false,
      "t": 376500,
      "d": 2618.75,
      "v": 36
    },
    {
      "midi": 84,
      "hit": false,
      "t": 376862.5,
      "d": 537.5,
      "v": 36
    },
    {
      "midi": 89,
      "hit": false,
      "t": 377231.25,
      "d": 325,
      "v": 22
    },
    {
      "midi": 84,
      "hit": false,
      "t": 377606.25,
      "d": 475,
      "v": 33
    },
    {
      "midi": 89,
      "hit": false,
      "t": 377968.75,
      "d": 356.25,
      "v": 48
    },
    {
      "midi": 84,
      "hit": false,
      "t": 378350,
      "d": 493.75,
      "v": 32
    },
    {
      "midi": 93,
      "hit": false,
      "t": 378718.75,
      "d": 1137.5,
      "v": 42
    },
    {
      "midi": 89,
      "hit": false,
      "t": 378725,
      "d": 1112.5,
      "v": 45
    },
    {
      "midi": 84,
      "hit": false,
      "t": 379112.5,
      "d": 568.75,
      "v": 45
    },
    {
      "midi": 72,
      "hit": false,
      "t": 379468.75,
      "d": 2743.75,
      "v": 38
    },
    {
      "midi": 84,
      "hit": false,
      "t": 379850,
      "d": 512.5,
      "v": 39
    },
    {
      "midi": 87,
      "hit": false,
      "t": 380193.75,
      "d": 437.5,
      "v": 33
    },
    {
      "midi": 91,
      "hit": false,
      "t": 380231.25,
      "d": 337.5,
      "v": 32
    },
    {
      "midi": 84,
      "hit": false,
      "t": 380587.5,
      "d": 425,
      "v": 32
    },
    {
      "midi": 87,
      "hit": false,
      "t": 380968.75,
      "d": 412.5,
      "v": 26
    },
    {
      "midi": 91,
      "hit": false,
      "t": 381000,
      "d": 350,
      "v": 27
    },
    {
      "midi": 84,
      "hit": false,
      "t": 381400,
      "d": 500,
      "v": 28
    },
    {
      "midi": 96,
      "hit": false,
      "t": 381756.25,
      "d": 943.75,
      "v": 36
    },
    {
      "midi": 84,
      "hit": false,
      "t": 382131.25,
      "d": 568.75,
      "v": 45
    },
    {
      "midi": 72,
      "hit": false,
      "t": 382506.25,
      "d": 2718.75,
      "v": 32
    },
    {
      "midi": 84,
      "hit": false,
      "t": 382868.75,
      "d": 512.5,
      "v": 48
    },
    {
      "midi": 91,
      "hit": false,
      "t": 383268.75,
      "d": 312.5,
      "v": 49
    },
    {
      "midi": 87,
      "hit": false,
      "t": 383268.75,
      "d": 406.25,
      "v": 21
    },
    {
      "midi": 84,
      "hit": false,
      "t": 383656.25,
      "d": 462.5,
      "v": 30
    },
    {
      "midi": 87,
      "hit": false,
      "t": 384006.25,
      "d": 375,
      "v": 43
    },
    {
      "midi": 91,
      "hit": false,
      "t": 384025,
      "d": 350,
      "v": 48
    },
    {
      "midi": 84,
      "hit": false,
      "t": 384418.75,
      "d": 487.5,
      "v": 39
    },
    {
      "midi": 96,
      "hit": false,
      "t": 384756.25,
      "d": 1193.75,
      "v": 35
    },
    {
      "midi": 84,
      "hit": false,
      "t": 385137.5,
      "d": 1212.5,
      "v": 42
    },
    {
      "midi": 77,
      "hit": false,
      "t": 385856.25,
      "d": 2462.5,
      "v": 37
    },
    {
      "midi": 89,
      "hit": false,
      "t": 386250,
      "d": 343.75,
      "v": 31
    },
    {
      "midi": 93,
      "hit": false,
      "t": 386281.25,
      "d": 293.75,
      "v": 25
    },
    {
      "midi": 84,
      "hit": false,
      "t": 386631.25,
      "d": 537.5,
      "v": 35
    },
    {
      "midi": 89,
      "hit": false,
      "t": 387012.5,
      "d": 418.75,
      "v": 48
    },
    {
      "midi": 93,
      "hit": false,
      "t": 387031.25,
      "d": 343.75,
      "v": 29
    },
    {
      "midi": 84,
      "hit": false,
      "t": 387362.5,
      "d": 500,
      "v": 39
    },
    {
      "midi": 96,
      "hit": false,
      "t": 387775,
      "d": 1087.5,
      "v": 24
    },
    {
      "midi": 84,
      "hit": false,
      "t": 388131.25,
      "d": 537.5,
      "v": 35
    },
    {
      "midi": 77,
      "hit": false,
      "t": 388481.25,
      "d": 2856.25,
      "v": 28
    },
    {
      "midi": 84,
      "hit": false,
      "t": 388850,
      "d": 581.25,
      "v": 49
    },
    {
      "midi": 89,
      "hit": false,
      "t": 389250,
      "d": 431.25,
      "v": 32
    },
    {
      "midi": 93,
      "hit": false,
      "t": 389268.75,
      "d": 406.25,
      "v": 30
    },
    {
      "midi": 84,
      "hit": false,
      "t": 389625,
      "d": 562.5,
      "v": 38
    },
    {
      "midi": 89,
      "hit": false,
      "t": 389993.75,
      "d": 412.5,
      "v": 39
    },
    {
      "midi": 93,
      "hit": false,
      "t": 390006.25,
      "d": 350,
      "v": 43
    },
    {
      "midi": 84,
      "hit": false,
      "t": 390362.5,
      "d": 525,
      "v": 38
    },
    {
      "midi": 96,
      "hit": false,
      "t": 390737.5,
      "d": 1143.75,
      "v": 34
    },
    {
      "midi": 89,
      "hit": false,
      "t": 390756.25,
      "d": 443.75,
      "v": 20
    },
    {
      "midi": 84,
      "hit": false,
      "t": 391137.5,
      "d": 612.5,
      "v": 47
    },
    {
      "midi": 77,
      "hit": false,
      "t": 391537.5,
      "d": 2331.25,
      "v": 37
    },
    {
      "midi": 84,
      "hit": false,
      "t": 391887.5,
      "d": 506.25,
      "v": 35
    },
    {
      "midi": 89,
      "hit": false,
      "t": 392243.75,
      "d": 356.25,
      "v": 47
    },
    {
      "midi": 93,
      "hit": false,
      "t": 392262.5,
      "d": 325,
      "v": 36
    },
    {
      "midi": 84,
      "hit": false,
      "t": 392593.75,
      "d": 518.75,
      "v": 33
    },
    {
      "midi": 89,
      "hit": false,
      "t": 392987.5,
      "d": 418.75,
      "v": 38
    },
    {
      "midi": 93,
      "hit": false,
      "t": 393000,
      "d": 343.75,
      "v": 36
    },
    {
      "midi": 84,
      "hit": false,
      "t": 393350,
      "d": 543.75,
      "v": 35
    },
    {
      "midi": 89,
      "hit": false,
      "t": 393718.75,
      "d": 1106.25,
      "v": 13
    },
    {
      "midi": 96,
      "hit": false,
      "t": 393731.25,
      "d": 1056.25,
      "v": 21
    },
    {
      "midi": 84,
      "hit": false,
      "t": 394137.5,
      "d": 531.25,
      "v": 24
    },
    {
      "midi": 77,
      "hit": false,
      "t": 394506.25,
      "d": 2075,
      "v": 62
    },
    {
      "midi": 84,
      "hit": false,
      "t": 394850,
      "d": 550,
      "v": 28
    },
    {
      "midi": 89,
      "hit": false,
      "t": 395318.75,
      "d": 281.25,
      "v": 7
    },
    {
      "midi": 84,
      "hit": false,
      "t": 395606.25,
      "d": 443.75,
      "v": 43
    },
    {
      "midi": 89,
      "hit": false,
      "t": 395968.75,
      "d": 425,
      "v": 45
    },
    {
      "midi": 84,
      "hit": false,
      "t": 396375,
      "d": 1356.25,
      "v": 33
    },
    {
      "midi": 89,
      "hit": false,
      "t": 396731.25,
      "d": 1293.75,
      "v": 54
    },
    {
      "midi": 77,
      "hit": false,
      "t": 397118.75,
      "d": 337.5,
      "v": 40
    },
    {
      "midi": 75,
      "hit": false,
      "t": 397468.75,
      "d": 2637.5,
      "v": 49
    },
    {
      "midi": 84,
      "hit": false,
      "t": 397875,
      "d": 537.5,
      "v": 34
    },
    {
      "midi": 89,
      "hit": false,
      "t": 398250,
      "d": 368.75,
      "v": 35
    },
    {
      "midi": 84,
      "hit": false,
      "t": 398587.5,
      "d": 425,
      "v": 32
    },
    {
      "midi": 89,
      "hit": false,
      "t": 398950,
      "d": 1881.25,
      "v": 51
    },
    {
      "midi": 93,
      "hit": false,
      "t": 399162.5,
      "d": 137.5,
      "v": 7
    },
    {
      "midi": 84,
      "hit": false,
      "t": 399362.5,
      "d": 568.75,
      "v": 34
    },
    {
      "midi": 96,
      "hit": false,
      "t": 399750,
      "d": 1106.25,
      "v": 41
    },
    {
      "midi": 84,
      "hit": false,
      "t": 400125,
      "d": 543.75,
      "v": 37
    },
    {
      "midi": 77,
      "hit": false,
      "t": 400487.5,
      "d": 2737.5,
      "v": 62
    },
    {
      "midi": 84,
      "hit": false,
      "t": 400843.75,
      "d": 550,
      "v": 44
    },
    {
      "midi": 89,
      "hit": false,
      "t": 401237.5,
      "d": 431.25,
      "v": 32
    },
    {
      "midi": 93,
      "hit": false,
      "t": 401243.75,
      "d": 425,
      "v": 40
    },
    {
      "midi": 84,
      "hit": false,
      "t": 401593.75,
      "d": 587.5,
      "v": 30
    },
    {
      "midi": 89,
      "hit": false,
      "t": 401987.5,
      "d": 412.5,
      "v": 35
    },
    {
      "midi": 93,
      "hit": false,
      "t": 402000,
      "d": 418.75,
      "v": 35
    },
    {
      "midi": 84,
      "hit": false,
      "t": 402362.5,
      "d": 550,
      "v": 37
    },
    {
      "midi": 89,
      "hit": false,
      "t": 402737.5,
      "d": 318.75,
      "v": 21
    },
    {
      "midi": 96,
      "hit": false,
      "t": 402737.5,
      "d": 343.75,
      "v": 50
    },
    {
      "midi": 84,
      "hit": false,
      "t": 403081.25,
      "d": 675,
      "v": 55
    },
    {
      "midi": 77,
      "hit": false,
      "t": 403487.5,
      "d": 2637.5,
      "v": 54
    },
    {
      "midi": 84,
      "hit": false,
      "t": 403843.75,
      "d": 593.75,
      "v": 46
    },
    {
      "midi": 89,
      "hit": false,
      "t": 404237.5,
      "d": 412.5,
      "v": 35
    },
    {
      "midi": 93,
      "hit": false,
      "t": 404250,
      "d": 337.5,
      "v": 43
    },
    {
      "midi": 84,
      "hit": false,
      "t": 404575,
      "d": 531.25,
      "v": 35
    },
    {
      "midi": 89,
      "hit": false,
      "t": 404956.25,
      "d": 475,
      "v": 30
    },
    {
      "midi": 93,
      "hit": false,
      "t": 405000,
      "d": 312.5,
      "v": 15
    },
    {
      "midi": 84,
      "hit": false,
      "t": 405362.5,
      "d": 518.75,
      "v": 34
    },
    {
      "midi": 96,
      "hit": false,
      "t": 405725,
      "d": 375,
      "v": 34
    },
    {
      "midi": 84,
      "hit": false,
      "t": 406093.75,
      "d": 587.5,
      "v": 38
    },
    {
      "midi": 75,
      "hit": false,
      "t": 406456.25,
      "d": 3462.5,
      "v": 60
    },
    {
      "midi": 89,
      "hit": false,
      "t": 406462.5,
      "d": 512.5,
      "v": 27
    },
    {
      "midi": 93,
      "hit": false,
      "t": 406475,
      "d": 406.25,
      "v": 48
    },
    {
      "midi": 84,
      "hit": false,
      "t": 406868.75,
      "d": 525,
      "v": 36
    },
    {
      "midi": 89,
      "hit": false,
      "t": 407237.5,
      "d": 437.5,
      "v": 29
    },
    {
      "midi": 93,
      "hit": false,
      "t": 407268.75,
      "d": 312.5,
      "v": 29
    },
    {
      "midi": 84,
      "hit": false,
      "t": 407612.5,
      "d": 512.5,
      "v": 30
    },
    {
      "midi": 89,
      "hit": false,
      "t": 407962.5,
      "d": 431.25,
      "v": 38
    },
    {
      "midi": 93,
      "hit": false,
      "t": 407987.5,
      "d": 381.25,
      "v": 33
    },
    {
      "midi": 84,
      "hit": false,
      "t": 408400,
      "d": 818.75,
      "v": 44
    },
    {
      "midi": 89,
      "hit": false,
      "t": 408768.75,
      "d": 1200,
      "v": 34
    },
    {
      "midi": 93,
      "hit": false,
      "t": 408781.25,
      "d": 337.5,
      "v": 45
    },
    {
      "midi": 96,
      "hit": false,
      "t": 409137.5,
      "d": 812.5,
      "v": 41
    },
    {
      "midi": 77,
      "hit": false,
      "t": 409537.5,
      "d": 1493.75,
      "v": 56
    },
    {
      "midi": 84,
      "hit": false,
      "t": 409900,
      "d": 531.25,
      "v": 25
    },
    {
      "midi": 89,
      "hit": false,
      "t": 410262.5,
      "d": 3043.75,
      "v": 18
    },
    {
      "midi": 93,
      "hit": false,
      "t": 410300,
      "d": 3000,
      "v": 18
    },
    {
      "midi": 84,
      "hit": false,
      "t": 410650,
      "d": 612.5,
      "v": 46
    },
    {
      "midi": 75,
      "hit": false,
      "t": 411018.75,
      "d": 693.75,
      "v": 56
    },
    {
      "midi": 84,
      "hit": false,
      "t": 411368.75,
      "d": 1912.5,
      "v": 47
    },
    {
      "midi": 72,
      "hit": false,
      "t": 411731.25,
      "d": 643.75,
      "v": 43
    },
    {
      "midi": 72,
      "hit": false,
      "t": 412475,
      "d": 8406.25,
      "v": 56
    },
    {
      "midi": 84,
      "hit": false,
      "t": 413556.25,
      "d": 606.25,
      "v": 22
    },
    {
      "midi": 93,
      "hit": false,
      "t": 413981.25,
      "d": 325,
      "v": 35
    },
    {
      "midi": 89,
      "hit": false,
      "t": 413981.25,
      "d": 443.75,
      "v": 20
    },
    {
      "midi": 84,
      "hit": false,
      "t": 414381.25,
      "d": 500,
      "v": 13
    },
    {
      "midi": 89,
      "hit": false,
      "t": 414718.75,
      "d": 712.5,
      "v": 29
    },
    {
      "midi": 93,
      "hit": false,
      "t": 414731.25,
      "d": 368.75,
      "v": 44
    },
    {
      "midi": 96,
      "hit": false,
      "t": 415112.5,
      "d": 381.25,
      "v": 21
    },
    {
      "midi": 84,
      "hit": false,
      "t": 415493.75,
      "d": 943.75,
      "v": 37
    },
    {
      "midi": 89,
      "hit": false,
      "t": 417000,
      "d": 431.25,
      "v": 36
    },
    {
      "midi": 93,
      "hit": false,
      "t": 417018.75,
      "d": 368.75,
      "v": 39
    },
    {
      "midi": 84,
      "hit": false,
      "t": 417381.25,
      "d": 893.75,
      "v": 32
    },
    {
      "midi": 93,
      "hit": false,
      "t": 417762.5,
      "d": 575,
      "v": 34
    },
    {
      "midi": 89,
      "hit": false,
      "t": 417762.5,
      "d": 1987.5,
      "v": 46
    },
    {
      "midi": 96,
      "hit": false,
      "t": 418150,
      "d": 1562.5,
      "v": 34
    },
    {
      "midi": 84,
      "hit": false,
      "t": 418493.75,
      "d": 1775,
      "v": 25
    },
    {
      "midi": 89,
      "hit": false,
      "t": 420000,
      "d": 387.5,
      "v": 7
    }
  ]
}