{
  "jsonPath": "Unknown/Unknown/New York PhilharmonicLeonard BernsteinAdele AddisonDavid LloydRussell OberlinWilliam WarfieldWestminster Abbey Choir/iii-every-valley-shall-be-exalted-air-tenor.json",
  "path": "Unknown\\Unknown\\New York PhilharmonicLeonard BernsteinAdele AddisonDavid LloydRussell OberlinWilliam WarfieldWestminster Abbey Choir\\III Every valley shall be exalted (Air - Tenor).mid",
  "name": "III Every valley shall be exalted (Air - Tenor)",
  "difficulty": "Advanced",
  "bpm": 100,
  "notes": [
    {
      "midi": 52,
      "hit": false,
      "t": 0,
      "d": 295,
      "v": 72
    },
    {
      "midi": 59,
      "hit": false,
      "t": 0,
      "d": 295,
      "v": 72
    },
    {
      "midi": 68,
      "hit": false,
      "t": 0,
      "d": 595,
      "v": 72
    },
    {
      "midi": 56,
      "hit": false,
      "t": 300,
      "d": 295,
      "v": 72
    },
    {
      "midi": 64,
      "hit": false,
      "t": 300,
      "d": 595,
      "v": 72
    },
    {
      "midi": 57,
      "hit": false,
      "t": 600,
      "d": 295,
      "v": 72
    },
    {
      "midi": 66,
      "hit": false,
      "t": 600,
      "d": 595,
      "v": 72
    },
    {
      "midi": 59,
      "hit": false,
      "t": 900,
      "d": 295,
      "v": 72
    },
    {
      "midi": 63,
      "hit": false,
      "t": 900,
      "d": 295,
      "v": 72
    },
    {
      "midi": 52,
      "hit": false,
      "t": 1200,
      "d": 595,
      "v": 72
    },
    {
      "midi": 59,
      "hit": false,
      "t": 1200,
      "d": 595,
      "v": 72
    },
    {
      "midi": 64,
      "hit": false,
      "t": 1200,
      "d": 595,
      "v": 72
    },
    {
      "midi": 68,
      "hit": false,
      "t": 1200,
      "d": 595,
      "v": 72
    },
    {
      "midi": 54,
      "hit": false,
      "t": 2100,
      "d": 295,
      "v": 72
    },
    {
      "midi": 57,
      "hit": false,
      "t": 2100,
      "d": 295,
      "v": 72
    },
    {
      "midi": 63,
      "hit": false,
      "t": 2100,
      "d": 295,
      "v": 72
    },
    {
      "midi": 56,
      "hit": false,
      "t": 2400,
      "d": 295,
      "v": 72
    },
    {
      "midi": 59,
      "hit": false,
      "t": 2400,
      "d": 595,
      "v": 72
    },
    {
      "midi": 64,
      "hit": false,
      "t": 2400,
      "d": 595,
      "v": 72
    },
    {
      "midi": 52,
      "hit": false,
      "t": 2700,
      "d": 295,
      "v": 72
    },
    {
      "midi": 57,
      "hit": false,
      "t": 3000,
      "d": 295,
      "v": 72
    },
    {
      "midi": 61,
      "hit": false,
      "t": 3000,
      "d": 295,
      "v": 72
    },
    {
      "midi": 66,
      "hit": false,
      "t": 3000,
      "d": 295,
      "v": 72
    },
    {
      "midi": 61,
      "hit": false,
      "t": 3300,
      "d": 295,
      "v": 72
    },
    {
      "midi": 64,
      "hit": false,
      "t": 3300,
      "d": 295,
      "v": 72
    },
    {
      "midi": 59,
      "hit": false,
      "t": 3600,
      "d": 595,
      "v": 72
    },
    {
      "midi": 63,
      "hit": false,
      "t": 3600,
      "d": 595,
      "v": 72
    },
    {
      "midi": 66,
      "hit": false,
      "t": 3600,
      "d": 595,
      "v": 72
    },
    {
      "midi": 57,
      "hit": false,
      "t": 4500,
      "d": 295,
      "v": 72
    },
    {
      "midi": 63,
      "hit": false,
      "t": 4500,
      "d": 295,
      "v": 72
    },
    {
      "midi": 66,
      "hit": false,
      "t": 4500,
      "d": 295,
      "v": 72
    },
    {
      "midi": 71,
      "hit": false,
      "t": 4500,
      "d": 895,
      "v": 72
    },
    {
      "midi": 56,
      "hit": false,
      "t": 4800,
      "d": 295,
      "v": 72
    },
    {
      "midi": 64,
      "hit": false,
      "t": 4800,
      "d": 595,
      "v": 72
    },
    {
      "midi": 52,
      "hit": false,
      "t": 5100,
      "d": 295,
      "v": 72
    },
    {
      "midi": 57,
      "hit": false,
      "t": 5400,
      "d": 295,
      "v": 72
    },
    {
      "midi": 61,
      "hit": false,
      "t": 5400,
      "d": 595,
      "v": 72
    },
    {
      "midi": 73,
      "hit": false,
      "t": 5400,
      "d": 595,
      "v": 72
    },
    {
      "midi": 45,
      "hit": false,
      "t": 5700,
      "d": 295,
      "v": 72
    },
    {
      "midi": 47,
      "hit": false,
      "t": 6000,
      "d": 595,
      "v": 72
    },
    {
      "midi": 59,
      "hit": false,
      "t": 6000,
      "d": 595,
      "v": 72
    },
    {
      "midi": 63,
      "hit": false,
      "t": 6000,
      "d": 595,
      "v": 72
    },
    {
      "midi": 66,
      "hit": false,
      "t": 6000,
      "d": 595,
      "v": 72
    },
    {
      "midi": 56,
      "hit": false,
      "t": 6900,
      "d": 295,
      "v": 72
    },
    {
      "midi": 59,
      "hit": false,
      "t": 6900,
      "d": 295,
      "v": 72
    },
    {
      "midi": 64,
      "hit": false,
      "t": 6900,
      "d": 295,
      "v": 72
    },
    {
      "midi": 57,
      "hit": false,
      "t": 7200,
      "d": 295,
      "v": 72
    },
    {
      "midi": 61,
      "hit": false,
      "t": 7200,
      "d": 295,
      "v": 72
    },
    {
      "midi": 66,
      "hit": false,
      "t": 7200,
      "d": 295,
      "v": 72
    },
    {
      "midi": 56,
      "hit": false,
      "t": 7500,
      "d": 295,
      "v": 72
    },
    {
      "midi": 59,
      "hit": false,
      "t": 7500,
      "d": 295,
      "v": 72
    },
    {
      "midi": 64,
      "hit": false,
      "t": 7500,
      "d": 295,
      "v": 72
    },
    {
      "midi": 57,
      "hit": false,
      "t": 7800,
      "d": 295,
      "v": 72
    },
    {
      "midi": 61,
      "hit": false,
      "t": 7800,
      "d": 295,
      "v": 72
    },
    {
      "midi": 66,
      "hit": false,
      "t": 7800,
      "d": 295,
      "v": 72
    },
    {
      "midi": 56,
      "hit": false,
      "t": 8100,
      "d": 295,
      "v": 72
    },
    {
      "midi": 59,
      "hit": false,
      "t": 8100,
      "d": 295,
      "v": 72
    },
    {
      "midi": 64,
      "hit": false,
      "t": 8100,
      "d": 295,
      "v": 72
    },
    {
      "midi": 57,
      "hit": false,
      "t": 8400,
      "d": 295,
      "v": 72
    },
    {
      "midi": 61,
      "hit": false,
      "t": 8400,
      "d": 295,
      "v": 72
    },
    {
      "midi": 66,
      "hit": false,
      "t": 8400,
      "d": 295,
      "v": 72
    },
    {
      "midi": 56,
      "hit": false,
      "t": 8700,
      "d": 295,
      "v": 72
    },
    {
      "midi": 59,
      "hit": false,
      "t": 8700,
      "d": 295,
      "v": 72
    },
    {
      "midi": 64,
      "hit": false,
      "t": 8700,
      "d": 295,
      "v": 72
    },
    {
      "midi": 52,
      "hit": false,
      "t": 9300,
      "d": 295,
      "v": 72
    },
    {
      "midi": 59,
      "hit": false,
      "t": 9300,
      "d": 295,
      "v": 72
    },
    {
      "midi": 64,
      "hit": false,
      "t": 9300,
      "d": 295,
      "v": 72
    },
    {
      "midi": 68,
      "hit": false,
      "t": 9300,
      "d": 295,
      "v": 72
    },
    {
      "midi": 54,
      "hit": false,
      "t": 9600,
      "d": 295,
      "v": 72
    },
    {
      "midi": 63,
      "hit": false,
      "t": 9600,
      "d": 295,
      "v": 72
    },
    {
      "midi": 69,
      "hit": false,
      "t": 9600,
      "d": 295,
      "v": 72
    },
    {
      "midi": 52,
      "hit": false,
      "t": 9900,
      "d": 295,
      "v": 72
    },
    {
      "midi": 64,
      "hit": false,
      "t": 9900,
      "d": 295,
      "v": 72
    },
    {
      "midi": 68,
      "hit": false,
      "t": 9900,
      "d": 295,
      "v": 72
    },
    {
      "midi": 54,
      "hit": false,
      "t": 10200,
      "d": 295,
      "v": 72
    },
    {
      "midi": 63,
      "hit": false,
      "t": 10200,
      "d": 295,
      "v": 72
    },
    {
      "midi": 69,
      "hit": false,
      "t": 10200,
      "d": 295,
      "v": 72
    },
    {
      "midi": 52,
      "hit": false,
      "t": 10500,
      "d": 295,
      "v": 72
    },
    {
      "midi": 64,
      "hit": false,
      "t": 10500,
      "d": 295,
      "v": 72
    },
    {
      "midi": 68,
      "hit": false,
      "t": 10500,
      "d": 295,
      "v": 72
    },
    {
      "midi": 54,
      "hit": false,
      "t": 10800,
      "d": 295,
      "v": 72
    },
    {
      "midi": 63,
      "hit": false,
      "t": 10800,
      "d": 295,
      "v": 72
    },
    {
      "midi": 69,
      "hit": false,
      "t": 10800,
      "d": 295,
      "v": 72
    },
    {
      "midi": 52,
      "hit": false,
      "t": 11100,
      "d": 295,
      "v": 72
    },
    {
      "midi": 64,
      "hit": false,
      "t": 11100,
      "d": 295,
      "v": 72
    },
    {
      "midi": 68,
      "hit": false,
      "t": 11100,
      "d": 295,
      "v": 72
    },
    {
      "midi": 59,
      "hit": false,
      "t": 14100,
      "d": 295,
      "v": 72
    },
    {
      "midi": 63,
      "hit": false,
      "t": 14100,
      "d": 295,
      "v": 72
    },
    {
      "midi": 66,
      "hit": false,
      "t": 14100,
      "d": 295,
      "v": 72
    },
    {
      "midi": 71,
      "hit": false,
      "t": 14100,
      "d": 595,
      "v": 72
    },
    {
      "midi": 64,
      "hit": false,
      "t": 14400,
      "d": 295,
      "v": 72
    },
    {
      "midi": 68,
      "hit": false,
      "t": 14400,
      "d": 295,
      "v": 72
    },
    {
      "midi": 57,
      "hit": false,
      "t": 14700,
      "d": 295,
      "v": 72
    },
    {
      "midi": 73,
      "hit": false,
      "t": 14700,
      "d": 295,
      "v": 72
    },
    {
      "midi": 64,
      "hit": false,
      "t": 14700,
      "d": 595,
      "v": 72
    },
    {
      "midi": 59,
      "hit": false,
      "t": 15000,
      "d": 295,
      "v": 72
    },
    {
      "midi": 66,
      "hit": false,
      "t": 15000,
      "d": 595,
      "v": 72
    },
    {
      "midi": 47,
      "hit": false,
      "t": 15300,
      "d": 295,
      "v": 72
    },
    {
      "midi": 63,
      "hit": false,
      "t": 15300,
      "d": 295,
      "v": 72
    },
    {
      "midi": 52,
      "hit": false,
      "t": 15600,
      "d": 595,
      "v": 72
    },
    {
      "midi": 59,
      "hit": false,
      "t": 15600,
      "d": 595,
      "v": 72
    },
    {
      "midi": 64,
      "hit": false,
      "t": 15600,
      "d": 595,
      "v": 72
    },
    {
      "midi": 68,
      "hit": false,
      "t": 15600,
      "d": 595,
      "v": 72
    },
    {
      "midi": 47,
      "hit": false,
      "t": 18900,
      "d": 295,
      "v": 72
    },
    {
      "midi": 59,
      "hit": false,
      "t": 18900,
      "d": 295,
      "v": 72
    },
    {
      "midi": 63,
      "hit": false,
      "t": 18900,
      "d": 295,
      "v": 72
    },
    {
      "midi": 66,
      "hit": false,
      "t": 18900,
      "d": 295,
      "v": 72
    },
    {
      "midi": 52,
      "hit": false,
      "t": 19200,
      "d": 295,
      "v": 72
    },
    {
      "midi": 56,
      "hit": false,
      "t": 19200,
      "d": 295,
      "v": 72
    },
    {
      "midi": 59,
      "hit": false,
      "t": 19200,
      "d": 295,
      "v": 72
    },
    {
      "midi": 64,
      "hit": false,
      "t": 19200,
      "d": 895,
      "v": 72
    },
    {
      "midi": 45,
      "hit": false,
      "t": 19500,
      "d": 295,
      "v": 72
    },
    {
      "midi": 57,
      "hit": false,
      "t": 19500,
      "d": 295,
      "v": 72
    },
    {
      "midi": 61,
      "hit": false,
      "t": 19500,
      "d": 295,
      "v": 72
    },
    {
      "midi": 47,
      "hit": false,
      "t": 19800,
      "d": 595,
      "v": 72
    },
    {
      "midi": 59,
      "hit": false,
      "t": 19800,
      "d": 595,
      "v": 72
    },
    {
      "midi": 63,
      "hit": false,
      "t": 20100,
      "d": 295,
      "v": 72
    },
    {
      "midi": 40,
      "hit": false,
      "t": 20400,
      "d": 595,
      "v": 72
    },
    {
      "midi": 56,
      "hit": false,
      "t": 20400,
      "d": 595,
      "v": 72
    },
    {
      "midi": 59,
      "hit": false,
      "t": 20400,
      "d": 595,
      "v": 72
    },
    {
      "midi": 64,
      "hit": false,
      "t": 20400,
      "d": 595,
      "v": 72
    },
    {
      "midi": 52,
      "hit": false,
      "t": 24000,
      "d": 295,
      "v": 72
    },
    {
      "midi": 59,
      "hit": false,
      "t": 24000,
      "d": 295,
      "v": 72
    },
    {
      "midi": 68,
      "hit": false,
      "t": 24000,
      "d": 595,
      "v": 72
    },
    {
      "midi": 56,
      "hit": false,
      "t": 24300,
      "d": 295,
      "v": 72
    },
    {
      "midi": 64,
      "hit": false,
      "t": 24300,
      "d": 595,
      "v": 72
    },
    {
      "midi": 57,
      "hit": false,
      "t": 24600,
      "d": 295,
      "v": 72
    },
    {
      "midi": 66,
      "hit": false,
      "t": 24600,
      "d": 595,
      "v": 72
    },
    {
      "midi": 59,
      "hit": false,
      "t": 24900,
      "d": 295,
      "v": 72
    },
    {
      "midi": 63,
      "hit": false,
      "t": 24900,
      "d": 295,
      "v": 72
    },
    {
      "midi": 52,
      "hit": false,
      "t": 25200,
      "d": 595,
      "v": 72
    },
    {
      "midi": 59,
      "hit": false,
      "t": 25200,
      "d": 595,
      "v": 72
    },
    {
      "midi": 64,
      "hit": false,
      "t": 25200,
      "d": 595,
      "v": 72
    },
    {
      "midi": 68,
      "hit": false,
      "t": 25200,
      "d": 595,
      "v": 72
    },
    {
      "midi": 52,
      "hit": false,
      "t": 26400,
      "d": 595,
      "v": 48
    },
    {
      "midi": 68,
      "hit": false,
      "t": 26400,
      "d": 595,
      "v": 48
    },
    {
      "midi": 71,
      "hit": false,
      "t": 26400,
      "d": 595,
      "v": 48
    },
    {
      "midi": 76,
      "hit": false,
      "t": 26400,
      "d": 595,
      "v": 48
    },
    {
      "midi": 54,
      "hit": false,
      "t": 27000,
      "d": 595,
      "v": 48
    },
    {
      "midi": 66,
      "hit": false,
      "t": 27000,
      "d": 595,
      "v": 48
    },
    {
      "midi": 69,
      "hit": false,
      "t": 27000,
      "d": 595,
      "v": 48
    },
    {
      "midi": 75,
      "hit": false,
      "t": 27000,
      "d": 595,
      "v": 48
    },
    {
      "midi": 56,
      "hit": false,
      "t": 27600,
      "d": 595,
      "v": 48
    },
    {
      "midi": 64,
      "hit": false,
      "t": 27600,
      "d": 595,
      "v": 48
    },
    {
      "midi": 68,
      "hit": false,
      "t": 27600,
      "d": 595,
      "v": 48
    },
    {
      "midi": 76,
      "hit": false,
      "t": 27600,
      "d": 595,
      "v": 48
    },
    {
      "midi": 44,
      "hit": false,
      "t": 28500,
      "d": 295,
      "v": 48
    },
    {
      "midi": 64,
      "hit": false,
      "t": 28500,
      "d": 295,
      "v": 48
    },
    {
      "midi": 71,
      "hit": false,
      "t": 28500,
      "d": 295,
      "v": 48
    },
    {
      "midi": 52,
      "hit": false,
      "t": 28500,
      "d": 895,
      "v": 48
    },
    {
      "midi": 45,
      "hit": false,
      "t": 28800,
      "d": 595,
      "v": 48
    },
    {
      "midi": 64,
      "hit": false,
      "t": 28800,
      "d": 595,
      "v": 48
    },
    {
      "midi": 73,
      "hit": false,
      "t": 28800,
      "d": 595,
      "v": 48
    },
    {
      "midi": 47,
      "hit": false,
      "t": 29400,
      "d": 595,
      "v": 48
    },
    {
      "midi": 59,
      "hit": false,
      "t": 29400,
      "d": 595,
      "v": 48
    },
    {
      "midi": 63,
      "hit": false,
      "t": 29400,
      "d": 595,
      "v": 48
    },
    {
      "midi": 66,
      "hit": false,
      "t": 29400,
      "d": 595,
      "v": 48
    },
    {
      "midi": 52,
      "hit": false,
      "t": 30000,
      "d": 595,
      "v": 48
    },
    {
      "midi": 59,
      "hit": false,
      "t": 30000,
      "d": 595,
      "v": 48
    },
    {
      "midi": 64,
      "hit": false,
      "t": 30000,
      "d": 595,
      "v": 48
    },
    {
      "midi": 68,
      "hit": false,
      "t": 30000,
      "d": 595,
      "v": 48
    },
    {
      "midi": 56,
      "hit": false,
      "t": 30900,
      "d": 295,
      "v": 48
    },
    {
      "midi": 71,
      "hit": false,
      "t": 30900,
      "d": 295,
      "v": 48
    },
    {
      "midi": 64,
      "hit": false,
      "t": 30900,
      "d": 895,
      "v": 48
    },
    {
      "midi": 57,
      "hit": false,
      "t": 31200,
      "d": 295,
      "v": 48
    },
    {
      "midi": 73,
      "hit": false,
      "t": 31200,
      "d": 595,
      "v": 48
    },
    {
      "midi": 45,
      "hit": false,
      "t": 31500,
      "d": 295,
      "v": 48
    },
    {
      "midi": 47,
      "hit": false,
      "t": 31800,
      "d": 295,
      "v": 48
    },
    {
      "midi": 63,
      "hit": false,
      "t": 31800,
      "d": 595,
      "v": 48
    },
    {
      "midi": 66,
      "hit": false,
      "t": 31800,
      "d": 595,
      "v": 48
    },
    {
      "midi": 59,
      "hit": false,
      "t": 32100,
      "d": 295,
      "v": 48
    },
    {
      "midi": 52,
      "hit": false,
      "t": 32400,
      "d": 595,
      "v": 48
    },
    {
      "midi": 59,
      "hit": false,
      "t": 32400,
      "d": 595,
      "v": 48
    },
    {
      "midi": 64,
      "hit": false,
      "t": 32400,
      "d": 595,
      "v": 48
    },
    {
      "midi": 68,
      "hit": false,
      "t": 32400,
      "d": 595,
      "v": 48
    },
    {
      "midi": 56,
      "hit": false,
      "t": 33300,
      "d": 295,
      "v": 48
    },
    {
      "midi": 59,
      "hit": false,
      "t": 33300,
      "d": 295,
      "v": 48
    },
    {
      "midi": 64,
      "hit": false,
      "t": 33300,
      "d": 895,
      "v": 48
    },
    {
      "midi": 57,
      "hit": false,
      "t": 33600,
      "d": 295,
      "v": 48
    },
    {
      "midi": 61,
      "hit": false,
      "t": 33600,
      "d": 595,
      "v": 48
    },
    {
      "midi": 45,
      "hit": false,
      "t": 33900,
      "d": 295,
      "v": 48
    },
    {
      "midi": 47,
      "hit": false,
      "t": 34200,
      "d": 295,
      "v": 48
    },
    {
      "midi": 54,
      "hit": false,
      "t": 34200,
      "d": 595,
      "v": 48
    },
    {
      "midi": 59,
      "hit": false,
      "t": 34200,
      "d": 595,
      "v": 48
    },
    {
      "midi": 63,
      "hit": false,
      "t": 34200,
      "d": 595,
      "v": 48
    },
    {
      "midi": 51,
      "hit": false,
      "t": 34500,
      "d": 295,
      "v": 48
    },
    {
      "midi": 52,
      "hit": false,
      "t": 34800,
      "d": 595,
      "v": 48
    },
    {
      "midi": 56,
      "hit": false,
      "t": 34800,
      "d": 595,
      "v": 48
    },
    {
      "midi": 61,
      "hit": false,
      "t": 34800,
      "d": 595,
      "v": 48
    },
    {
      "midi": 52,
      "hit": false,
      "t": 35700,
      "d": 295,
      "v": 48
    },
    {
      "midi": 59,
      "hit": false,
      "t": 35700,
      "d": 295,
      "v": 48
    },
    {
      "midi": 64,
      "hit": false,
      "t": 35700,
      "d": 295,
      "v": 48
    },
    {
      "midi": 68,
      "hit": false,
      "t": 35700,
      "d": 295,
      "v": 48
    },
    {
      "midi": 54,
      "hit": false,
      "t": 36000,
      "d": 595,
      "v": 48
    },
    {
      "midi": 57,
      "hit": false,
      "t": 36000,
      "d": 595,
      "v": 48
    },
    {
      "midi": 63,
      "hit": false,
      "t": 36000,
      "d": 595,
      "v": 48
    },
    {
      "midi": 69,
      "hit": false,
      "t": 36000,
      "d": 595,
      "v": 48
    },
    {
      "midi": 54,
      "hit": false,
      "t": 36900,
      "d": 295,
      "v": 48
    },
    {
      "midi": 57,
      "hit": false,
      "t": 36900,
      "d": 295,
      "v": 48
    },
    {
      "midi": 63,
      "hit": false,
      "t": 36900,
      "d": 295,
      "v": 48
    },
    {
      "midi": 56,
      "hit": false,
      "t": 37200,
      "d": 595,
      "v": 48
    },
    {
      "midi": 59,
      "hit": false,
      "t": 37200,
      "d": 595,
      "v": 48
    },
    {
      "midi": 64,
      "hit": false,
      "t": 37200,
      "d": 595,
      "v": 48
    },
    {
      "midi": 56,
      "hit": false,
      "t": 38100,
      "d": 295,
      "v": 48
    },
    {
      "midi": 64,
      "hit": false,
      "t": 38100,
      "d": 295,
      "v": 48
    },
    {
      "midi": 71,
      "hit": false,
      "t": 38100,
      "d": 295,
      "v": 48
    },
    {
      "midi": 57,
      "hit": false,
      "t": 38400,
      "d": 595,
      "v": 48
    },
    {
      "midi": 61,
      "hit": false,
      "t": 38400,
      "d": 595,
      "v": 48
    },
    {
      "midi": 69,
      "hit": false,
      "t": 38400,
      "d": 595,
      "v": 48
    },
    {
      "midi": 73,
      "hit": false,
      "t": 38400,
      "d": 595,
      "v": 48
    },
    {
      "midi": 57,
      "hit": false,
      "t": 39300,
      "d": 295,
      "v": 48
    },
    {
      "midi": 61,
      "hit": false,
      "t": 39300,
      "d": 295,
      "v": 48
    },
    {
      "midi": 64,
      "hit": false,
      "t": 39300,
      "d": 295,
      "v": 48
    },
    {
      "midi": 69,
      "hit": false,
      "t": 39300,
      "d": 295,
      "v": 48
    },
    {
      "midi": 59,
      "hit": false,
      "t": 39600,
      "d": 595,
      "v": 48
    },
    {
      "midi": 63,
      "hit": false,
      "t": 39600,
      "d": 595,
      "v": 48
    },
    {
      "midi": 66,
      "hit": false,
      "t": 39600,
      "d": 595,
      "v": 48
    },
    {
      "midi": 59,
      "hit": false,
      "t": 40500,
      "d": 295,
      "v": 48
    },
    {
      "midi": 63,
      "hit": false,
      "t": 40500,
      "d": 295,
      "v": 48
    },
    {
      "midi": 71,
      "hit": false,
      "t": 40500,
      "d": 895,
      "v": 48
    },
    {
      "midi": 61,
      "hit": false,
      "t": 40800,
      "d": 595,
      "v": 48
    },
    {
      "midi": 64,
      "hit": false,
      "t": 40800,
      "d": 595,
      "v": 48
    },
    {
      "midi": 49,
      "hit": false,
      "t": 41700,
      "d": 295,
      "v": 48
    },
    {
      "midi": 64,
      "hit": false,
      "t": 41700,
      "d": 295,
      "v": 48
    },
    {
      "midi": 69,
      "hit": false,
      "t": 41700,
      "d": 895,
      "v": 48
    },
    {
      "midi": 51,
      "hit": false,
      "t": 42000,
      "d": 595,
      "v": 48
    },
    {
      "midi": 59,
      "hit": false,
      "t": 42000,
      "d": 595,
      "v": 48
    },
    {
      "midi": 66,
      "hit": false,
      "t": 42000,
      "d": 595,
      "v": 48
    },
    {
      "midi": 51,
      "hit": false,
      "t": 42900,
      "d": 295,
      "v": 48
    },
    {
      "midi": 66,
      "hit": false,
      "t": 42900,
      "d": 295,
      "v": 48
    },
    {
      "midi": 59,
      "hit": false,
      "t": 42900,
      "d": 595,
      "v": 48
    },
    {
      "midi": 52,
      "hit": false,
      "t": 43200,
      "d": 295,
      "v": 48
    },
    {
      "midi": 68,
      "hit": false,
      "t": 43200,
      "d": 595,
      "v": 48
    },
    {
      "midi": 56,
      "hit": false,
      "t": 43500,
      "d": 295,
      "v": 48
    },
    {
      "midi": 64,
      "hit": false,
      "t": 43500,
      "d": 595,
      "v": 48
    },
    {
      "midi": 57,
      "hit": false,
      "t": 43800,
      "d": 295,
      "v": 48
    },
    {
      "midi": 66,
      "hit": false,
      "t": 43800,
      "d": 595,
      "v": 48
    },
    {
      "midi": 63,
      "hit": false,
      "t": 44100,
      "d": 295,
      "v": 48
    },
    {
      "midi": 59,
      "hit": false,
      "t": 44325,
      "d": 70,
      "v": 48
    },
    {
      "midi": 52,
      "hit": false,
      "t": 44400,
      "d": 595,
      "v": 48
    },
    {
      "midi": 64,
      "hit": false,
      "t": 44400,
      "d": 595,
      "v": 48
    },
    {
      "midi": 68,
      "hit": false,
      "t": 44400,
      "d": 595,
      "v": 48
    },
    {
      "midi": 61,
      "hit": false,
      "t": 45900,
      "d": 295,
      "v": 48
    },
    {
      "midi": 70,
      "hit": false,
      "t": 45900,
      "d": 295,
      "v": 48
    },
    {
      "midi": 64,
      "hit": false,
      "t": 45900,
      "d": 595,
      "v": 48
    },
    {
      "midi": 58,
      "hit": false,
      "t": 46200,
      "d": 295,
      "v": 48
    },
    {
      "midi": 73,
      "hit": false,
      "t": 46200,
      "d": 295,
      "v": 48
    },
    {
      "midi": 54,
      "hit": false,
      "t": 46500,
      "d": 295,
      "v": 48
    },
    {
      "midi": 70,
      "hit": false,
      "t": 46500,
      "d": 295,
      "v": 48
    },
    {
      "midi": 59,
      "hit": false,
      "t": 46800,
      "d": 295,
      "v": 48
    },
    {
      "midi": 63,
      "hit": false,
      "t": 46800,
      "d": 595,
      "v": 48
    },
    {
      "midi": 66,
      "hit": false,
      "t": 46800,
      "d": 595,
      "v": 48
    },
    {
      "midi": 47,
      "hit": false,
      "t": 47100,
      "d": 295,
      "v": 48
    },
    {
      "midi": 47,
      "hit": false,
      "t": 48300,
      "d": 295,
      "v": 48
    },
    {
      "midi": 63,
      "hit": false,
      "t": 48300,
      "d": 295,
      "v": 48
    },
    {
      "midi": 71,
      "hit": false,
      "t": 48300,
      "d": 895,
      "v": 48
    },
    {
      "midi": 51,
      "hit": false,
      "t": 48600,
      "d": 295,
      "v": 48
    },
    {
      "midi": 66,
      "hit": false,
      "t": 48600,
      "d": 295,
      "v": 48
    },
    {
      "midi": 47,
      "hit": false,
      "t": 48900,
      "d": 295,
      "v": 48
    },
    {
      "midi": 63,
      "hit": false,
      "t": 48900,
      "d": 295,
      "v": 48
    },
    {
      "midi": 52,
      "hit": false,
      "t": 49200,
      "d": 595,
      "v": 48
    },
    {
      "midi": 59,
      "hit": false,
      "t": 49200,
      "d": 595,
      "v": 48
    },
    {
      "midi": 68,
      "hit": false,
      "t": 49200,
      "d": 595,
      "v": 48
    },
    {
      "midi": 71,
      "hit": false,
      "t": 49200,
      "d": 595,
      "v": 48
    },
    {
      "midi": 52,
      "hit": false,
      "t": 50100,
      "d": 295,
      "v": 48
    },
    {
      "midi": 64,
      "hit": false,
      "t": 50100,
      "d": 295,
      "v": 48
    },
    {
      "midi": 68,
      "hit": false,
      "t": 50100,
      "d": 295,
      "v": 48
    },
    {
      "midi": 73,
      "hit": false,
      "t": 50100,
      "d": 895,
      "v": 48
    },
    {
      "midi": 54,
      "hit": false,
      "t": 50400,
      "d": 595,
      "v": 48
    },
    {
      "midi": 61,
      "hit": false,
      "t": 50400,
      "d": 595,
      "v": 48
    },
    {
      "midi": 70,
      "hit": false,
      "t": 50400,
      "d": 595,
      "v": 48
    },
    {
      "midi": 54,
      "hit": false,
      "t": 51300,
      "d": 295,
      "v": 48
    },
    {
      "midi": 66,
      "hit": false,
      "t": 51300,
      "d": 295,
      "v": 48
    },
    {
      "midi": 70,
      "hit": false,
      "t": 51300,
      "d": 295,
      "v": 48
    },
    {
      "midi": 75,
      "hit": false,
      "t": 51300,
      "d": 895,
      "v": 48
    },
    {
      "midi": 56,
      "hit": false,
      "t": 51600,
      "d": 595,
      "v": 48
    },
    {
      "midi": 63,
      "hit": false,
      "t": 51600,
      "d": 595,
      "v": 48
    },
    {
      "midi": 71,
      "hit": false,
      "t": 51600,
      "d": 595,
      "v": 48
    },
    {
      "midi": 56,
      "hit": false,
      "t": 52500,
      "d": 295,
      "v": 48
    },
    {
      "midi": 63,
      "hit": false,
      "t": 52500,
      "d": 295,
      "v": 48
    },
    {
      "midi": 71,
      "hit": false,
      "t": 52500,
      "d": 295,
      "v": 48
    },
    {
      "midi": 58,
      "hit": false,
      "t": 52800,
      "d": 595,
      "v": 48
    },
    {
      "midi": 61,
      "hit": false,
      "t": 52800,
      "d": 595,
      "v": 48
    },
    {
      "midi": 66,
      "hit": false,
      "t": 52800,
      "d": 595,
      "v": 48
    },
    {
      "midi": 58,
      "hit": false,
      "t": 53700,
      "d": 295,
      "v": 48
    },
    {
      "midi": 61,
      "hit": false,
      "t": 53700,
      "d": 295,
      "v": 48
    },
    {
      "midi": 66,
      "hit": false,
      "t": 53700,
      "d": 895,
      "v": 48
    },
    {
      "midi": 59,
      "hit": false,
      "t": 54000,
      "d": 295,
      "v": 48
    },
    {
      "midi": 63,
      "hit": false,
      "t": 54000,
      "d": 595,
      "v": 48
    },
    {
      "midi": 51,
      "hit": false,
      "t": 54300,
      "d": 295,
      "v": 48
    },
    {
      "midi": 49,
      "hit": false,
      "t": 54600,
      "d": 295,
      "v": 48
    },
    {
      "midi": 64,
      "hit": false,
      "t": 54600,
      "d": 595,
      "v": 48
    },
    {
      "midi": 70,
      "hit": false,
      "t": 54600,
      "d": 595,
      "v": 48
    },
    {
      "midi": 54,
      "hit": false,
      "t": 54900,
      "d": 295,
      "v": 48
    },
    {
      "midi": 51,
      "hit": false,
      "t": 55200,
      "d": 595,
      "v": 48
    },
    {
      "midi": 59,
      "hit": false,
      "t": 55200,
      "d": 595,
      "v": 48
    },
    {
      "midi": 66,
      "hit": false,
      "t": 55200,
      "d": 595,
      "v": 48
    },
    {
      "midi": 71,
      "hit": false,
      "t": 55200,
      "d": 595,
      "v": 48
    },
    {
      "midi": 52,
      "hit": false,
      "t": 55800,
      "d": 295,
      "v": 48
    },
    {
      "midi": 59,
      "hit": false,
      "t": 55800,
      "d": 295,
      "v": 48
    },
    {
      "midi": 64,
      "hit": false,
      "t": 55800,
      "d": 295,
      "v": 48
    },
    {
      "midi": 68,
      "hit": false,
      "t": 55800,
      "d": 295,
      "v": 48
    },
    {
      "midi": 54,
      "hit": false,
      "t": 56100,
      "d": 295,
      "v": 48
    },
    {
      "midi": 58,
      "hit": false,
      "t": 56100,
      "d": 295,
      "v": 48
    },
    {
      "midi": 61,
      "hit": false,
      "t": 56100,
      "d": 295,
      "v": 48
    },
    {
      "midi": 66,
      "hit": false,
      "t": 56100,
      "d": 295,
      "v": 48
    },
    {
      "midi": 47,
      "hit": false,
      "t": 56400,
      "d": 595,
      "v": 48
    },
    {
      "midi": 59,
      "hit": false,
      "t": 56400,
      "d": 595,
      "v": 48
    },
    {
      "midi": 63,
      "hit": false,
      "t": 56400,
      "d": 595,
      "v": 48
    },
    {
      "midi": 66,
      "hit": false,
      "t": 56400,
      "d": 595,
      "v": 48
    },
    {
      "midi": 59,
      "hit": false,
      "t": 57300,
      "d": 295,
      "v": 48
    },
    {
      "midi": 63,
      "hit": false,
      "t": 57300,
      "d": 295,
      "v": 48
    },
    {
      "midi": 66,
      "hit": false,
      "t": 57300,
      "d": 1195,
      "v": 48
    },
    {
      "midi": 58,
      "hit": false,
      "t": 57600,
      "d": 295,
      "v": 48
    },
    {
      "midi": 61,
      "hit": false,
      "t": 57600,
      "d": 295,
      "v": 48
    },
    {
      "midi": 56,
      "hit": false,
      "t": 57900,
      "d": 295,
      "v": 48
    },
    {
      "midi": 59,
      "hit": false,
      "t": 57900,
      "d": 295,
      "v": 48
    },
    {
      "midi": 58,
      "hit": false,
      "t": 58200,
      "d": 295,
      "v": 48
    },
    {
      "midi": 61,
      "hit": false,
      "t": 58200,
      "d": 295,
      "v": 48
    },
    {
      "midi": 54,
      "hit": false,
      "t": 58500,
      "d": 295,
      "v": 48
    },
    {
      "midi": 61,
      "hit": false,
      "t": 58500,
      "d": 295,
      "v": 48
    },
    {
      "midi": 70,
      "hit": false,
      "t": 58500,
      "d": 295,
      "v": 48
    },
    {
      "midi": 59,
      "hit": false,
      "t": 58800,
      "d": 295,
      "v": 48
    },
    {
      "midi": 63,
      "hit": false,
      "t": 58800,
      "d": 595,
      "v": 48
    },
    {
      "midi": 71,
      "hit": false,
      "t": 58800,
      "d": 1195,
      "v": 48
    },
    {
      "midi": 47,
      "hit": false,
      "t": 59100,
      "d": 295,
      "v": 48
    },
    {
      "midi": 49,
      "hit": false,
      "t": 59400,
      "d": 295,
      "v": 48
    },
    {
      "midi": 64,
      "hit": false,
      "t": 59400,
      "d": 295,
      "v": 48
    },
    {
      "midi": 52,
      "hit": false,
      "t": 59700,
      "d": 295,
      "v": 48
    },
    {
      "midi": 68,
      "hit": false,
      "t": 59700,
      "d": 295,
      "v": 48
    },
    {
      "midi": 42,
      "hit": false,
      "t": 60000,
      "d": 1195,
      "v": 48
    },
    {
      "midi": 61,
      "hit": false,
      "t": 60000,
      "d": 1195,
      "v": 48
    },
    {
      "midi": 66,
      "hit": false,
      "t": 60000,
      "d": 1195,
      "v": 48
    },
    {
      "midi": 70,
      "hit": false,
      "t": 60000,
      "d": 1195,
      "v": 48
    },
    {
      "midi": 51,
      "hit": false,
      "t": 63300,
      "d": 295,
      "v": 48
    },
    {
      "midi": 54,
      "hit": false,
      "t": 63300,
      "d": 295,
      "v": 48
    },
    {
      "midi": 59,
      "hit": false,
      "t": 63300,
      "d": 295,
      "v": 48
    },
    {
      "midi": 52,
      "hit": false,
      "t": 63600,
      "d": 295,
      "v": 48
    },
    {
      "midi": 56,
      "hit": false,
      "t": 63600,
      "d": 295,
      "v": 48
    },
    {
      "midi": 61,
      "hit": false,
      "t": 63600,
      "d": 295,
      "v": 48
    },
    {
      "midi": 51,
      "hit": false,
      "t": 63900,
      "d": 295,
      "v": 48
    },
    {
      "midi": 54,
      "hit": false,
      "t": 63900,
      "d": 295,
      "v": 48
    },
    {
      "midi": 59,
      "hit": false,
      "t": 63900,
      "d": 295,
      "v": 48
    },
    {
      "midi": 52,
      "hit": false,
      "t": 64200,
      "d": 295,
      "v": 48
    },
    {
      "midi": 56,
      "hit": false,
      "t": 64200,
      "d": 295,
      "v": 48
    },
    {
      "midi": 61,
      "hit": false,
      "t": 64200,
      "d": 295,
      "v": 48
    },
    {
      "midi": 51,
      "hit": false,
      "t": 64500,
      "d": 295,
      "v": 48
    },
    {
      "midi": 54,
      "hit": false,
      "t": 64500,
      "d": 295,
      "v": 48
    },
    {
      "midi": 59,
      "hit": false,
      "t": 64500,
      "d": 295,
      "v": 48
    },
    {
      "midi": 52,
      "hit": false,
      "t": 64800,
      "d": 295,
      "v": 48
    },
    {
      "midi": 56,
      "hit": false,
      "t": 64800,
      "d": 295,
      "v": 48
    },
    {
      "midi": 59,
      "hit": false,
      "t": 64800,
      "d": 595,
      "v": 48
    },
    {
      "midi": 51,
      "hit": false,
      "t": 65100,
      "d": 295,
      "v": 48
    },
    {
      "midi": 54,
      "hit": false,
      "t": 65100,
      "d": 295,
      "v": 48
    },
    {
      "midi": 47,
      "hit": false,
      "t": 68100,
      "d": 295,
      "v": 48
    },
    {
      "midi": 59,
      "hit": false,
      "t": 68100,
      "d": 295,
      "v": 48
    },
    {
      "midi": 63,
      "hit": false,
      "t": 68100,
      "d": 295,
      "v": 48
    },
    {
      "midi": 66,
      "hit": false,
      "t": 68100,
      "d": 295,
      "v": 48
    },
    {
      "midi": 52,
      "hit": false,
      "t": 68400,
      "d": 295,
      "v": 48
    },
    {
      "midi": 64,
      "hit": false,
      "t": 68400,
      "d": 295,
      "v": 48
    },
    {
      "midi": 68,
      "hit": false,
      "t": 68400,
      "d": 295,
      "v": 48
    },
    {
      "midi": 59,
      "hit": false,
      "t": 68400,
      "d": 1195,
      "v": 48
    },
    {
      "midi": 47,
      "hit": false,
      "t": 68700,
      "d": 295,
      "v": 48
    },
    {
      "midi": 63,
      "hit": false,
      "t": 68700,
      "d": 295,
      "v": 48
    },
    {
      "midi": 66,
      "hit": false,
      "t": 68700,
      "d": 295,
      "v": 48
    },
    {
      "midi": 52,
      "hit": false,
      "t": 69000,
      "d": 295,
      "v": 48
    },
    {
      "midi": 64,
      "hit": false,
      "t": 69000,
      "d": 295,
      "v": 48
    },
    {
      "midi": 68,
      "hit": false,
      "t": 69000,
      "d": 295,
      "v": 48
    },
    {
      "midi": 47,
      "hit": false,
      "t": 69300,
      "d": 295,
      "v": 48
    },
    {
      "midi": 63,
      "hit": false,
      "t": 69300,
      "d": 295,
      "v": 48
    },
    {
      "midi": 66,
      "hit": false,
      "t": 69300,
      "d": 295,
      "v": 48
    },
    {
      "midi": 52,
      "hit": false,
      "t": 69600,
      "d": 295,
      "v": 48
    },
    {
      "midi": 64,
      "hit": false,
      "t": 69600,
      "d": 295,
      "v": 48
    },
    {
      "midi": 68,
      "hit": false,
      "t": 69600,
      "d": 295,
      "v": 48
    },
    {
      "midi": 59,
      "hit": false,
      "t": 69600,
      "d": 595,
      "v": 48
    },
    {
      "midi": 47,
      "hit": false,
      "t": 69900,
      "d": 295,
      "v": 48
    },
    {
      "midi": 63,
      "hit": false,
      "t": 69900,
      "d": 295,
      "v": 48
    },
    {
      "midi": 66,
      "hit": false,
      "t": 69900,
      "d": 295,
      "v": 48
    },
    {
      "midi": 47,
      "hit": false,
      "t": 70500,
      "d": 295,
      "v": 48
    },
    {
      "midi": 63,
      "hit": false,
      "t": 70500,
      "d": 295,
      "v": 48
    },
    {
      "midi": 66,
      "hit": false,
      "t": 70500,
      "d": 295,
      "v": 48
    },
    {
      "midi": 71,
      "hit": false,
      "t": 70500,
      "d": 295,
      "v": 48
    },
    {
      "midi": 49,
      "hit": false,
      "t": 70800,
      "d": 295,
      "v": 48
    },
    {
      "midi": 64,
      "hit": false,
      "t": 70800,
      "d": 295,
      "v": 48
    },
    {
      "midi": 68,
      "hit": false,
      "t": 70800,
      "d": 1195,
      "v": 48
    },
    {
      "midi": 44,
      "hit": false,
      "t": 71100,
      "d": 295,
      "v": 48
    },
    {
      "midi": 63,
      "hit": false,
      "t": 71100,
      "d": 295,
      "v": 48
    },
    {
      "midi": 49,
      "hit": false,
      "t": 71400,
      "d": 295,
      "v": 48
    },
    {
      "midi": 64,
      "hit": false,
      "t": 71400,
      "d": 595,
      "v": 48
    },
    {
      "midi": 52,
      "hit": false,
      "t": 71700,
      "d": 295,
      "v": 48
    },
    {
      "midi": 54,
      "hit": false,
      "t": 72000,
      "d": 595,
      "v": 48
    },
    {
      "midi": 61,
      "hit": false,
      "t": 72000,
      "d": 595,
      "v": 48
    },
    {
      "midi": 70,
      "hit": false,
      "t": 72000,
      "d": 595,
      "v": 48
    },
    {
      "midi": 73,
      "hit": false,
      "t": 72000,
      "d": 595,
      "v": 48
    },
    {
      "midi": 54,
      "hit": false,
      "t": 73200,
      "d": 295,
      "v": 48
    },
    {
      "midi": 70,
      "hit": false,
      "t": 73200,
      "d": 295,
      "v": 48
    },
    {
      "midi": 61,
      "hit": false,
      "t": 73200,
      "d": 1195,
      "v": 48
    },
    {
      "midi": 73,
      "hit": false,
      "t": 73200,
      "d": 1795,
      "v": 48
    },
    {
      "midi": 56,
      "hit": false,
      "t": 73500,
      "d": 295,
      "v": 48
    },
    {
      "midi": 68,
      "hit": false,
      "t": 73500,
      "d": 295,
      "v": 48
    },
    {
      "midi": 58,
      "hit": false,
      "t": 73800,
      "d": 295,
      "v": 48
    },
    {
      "midi": 66,
      "hit": false,
      "t": 73800,
      "d": 295,
      "v": 48
    },
    {
      "midi": 56,
      "hit": false,
      "t": 74100,
      "d": 295,
      "v": 48
    },
    {
      "midi": 68,
      "hit": false,
      "t": 74100,
      "d": 295,
      "v": 48
    },
    {
      "midi": 54,
      "hit": false,
      "t": 74400,
      "d": 595,
      "v": 48
    },
    {
      "midi": 61,
      "hit": false,
      "t": 74400,
      "d": 595,
      "v": 48
    },
    {
      "midi": 70,
      "hit": false,
      "t": 74400,
      "d": 595,
      "v": 48
    },
    {
      "midi": 54,
      "hit": false,
      "t": 75600,
      "d": 295,
      "v": 48
    },
    {
      "midi": 70,
      "hit": false,
      "t": 75600,
      "d": 295,
      "v": 48
    },
    {
      "midi": 61,
      "hit": false,
      "t": 75600,
      "d": 1195,
      "v": 48
    },
    {
      "midi": 73,
      "hit": false,
      "t": 75600,
      "d": 1195,
      "v": 48
    },
    {
      "midi": 56,
      "hit": false,
      "t": 75900,
      "d": 295,
      "v": 48
    },
    {
      "midi": 68,
      "hit": false,
      "t": 75900,
      "d": 295,
      "v": 48
    },
    {
      "midi": 58,
      "hit": false,
      "t": 76200,
      "d": 295,
      "v": 48
    },
    {
      "midi": 66,
      "hit": false,
      "t": 76200,
      "d": 295,
      "v": 48
    },
    {
      "midi": 56,
      "hit": false,
      "t": 76500,
      "d": 295,
      "v": 48
    },
    {
      "midi": 68,
      "hit": false,
      "t": 76500,
      "d": 295,
      "v": 48
    },
    {
      "midi": 54,
      "hit": false,
      "t": 76800,
      "d": 295,
      "v": 48
    },
    {
      "midi": 70,
      "hit": false,
      "t": 76800,
      "d": 295,
      "v": 48
    },
    {
      "midi": 61,
      "hit": false,
      "t": 76800,
      "d": 895,
      "v": 48
    },
    {
      "midi": 73,
      "hit": false,
      "t": 76800,
      "d": 895,
      "v": 48
    },
    {
      "midi": 56,
      "hit": false,
      "t": 77100,
      "d": 295,
      "v": 48
    },
    {
      "midi": 68,
      "hit": false,
      "t": 77100,
      "d": 295,
      "v": 48
    },
    {
      "midi": 58,
      "hit": false,
      "t": 77400,
      "d": 295,
      "v": 48
    },
    {
      "midi": 66,
      "hit": false,
      "t": 77400,
      "d": 295,
      "v": 48
    },
    {
      "midi": 46,
      "hit": false,
      "t": 77700,
      "d": 295,
      "v": 48
    },
    {
      "midi": 66,
      "hit": false,
      "t": 77700,
      "d": 295,
      "v": 48
    },
    {
      "midi": 73,
      "hit": false,
      "t": 77700,
      "d": 295,
      "v": 48
    },
    {
      "midi": 47,
      "hit": false,
      "t": 78000,
      "d": 295,
      "v": 48
    },
    {
      "midi": 66,
      "hit": false,
      "t": 78000,
      "d": 295,
      "v": 48
    },
    {
      "midi": 71,
      "hit": false,
      "t": 78000,
      "d": 295,
      "v": 48
    },
    {
      "midi": 75,
      "hit": false,
      "t": 78000,
      "d": 295,
      "v": 48
    },
    {
      "midi": 52,
      "hit": false,
      "t": 78300,
      "d": 295,
      "v": 48
    },
    {
      "midi": 68,
      "hit": false,
      "t": 78300,
      "d": 295,
      "v": 48
    },
    {
      "midi": 71,
      "hit": false,
      "t": 78300,
      "d": 595,
      "v": 48
    },
    {
      "midi": 51,
      "hit": false,
      "t": 78600,
      "d": 295,
      "v": 48
    },
    {
      "midi": 66,
      "hit": false,
      "t": 78600,
      "d": 295,
      "v": 48
    },
    {
      "midi": 54,
      "hit": false,
      "t": 78900,
      "d": 295,
      "v": 48
    },
    {
      "midi": 66,
      "hit": false,
      "t": 78900,
      "d": 295,
      "v": 48
    },
    {
      "midi": 70,
      "hit": false,
      "t": 78900,
      "d": 295,
      "v": 48
    },
    {
      "midi": 73,
      "hit": false,
      "t": 78900,
      "d": 295,
      "v": 48
    },
    {
      "midi": 47,
      "hit": false,
      "t": 79200,
      "d": 295,
      "v": 48
    },
    {
      "midi": 66,
      "hit": false,
      "t": 79200,
      "d": 295,
      "v": 48
    },
    {
      "midi": 71,
      "hit": false,
      "t": 79200,
      "d": 295,
      "v": 48
    },
    {
      "midi": 75,
      "hit": false,
      "t": 79200,
      "d": 295,
      "v": 48
    },
    {
      "midi": 52,
      "hit": false,
      "t": 79500,
      "d": 295,
      "v": 48
    },
    {
      "midi": 68,
      "hit": false,
      "t": 79500,
      "d": 295,
      "v": 48
    },
    {
      "midi": 71,
      "hit": false,
      "t": 79500,
      "d": 595,
      "v": 48
    },
    {
      "midi": 51,
      "hit": false,
      "t": 79800,
      "d": 295,
      "v": 48
    },
    {
      "midi": 66,
      "hit": false,
      "t": 79800,
      "d": 295,
      "v": 48
    },
    {
      "midi": 54,
      "hit": false,
      "t": 80100,
      "d": 295,
      "v": 48
    },
    {
      "midi": 66,
      "hit": false,
      "t": 80100,
      "d": 295,
      "v": 48
    },
    {
      "midi": 70,
      "hit": false,
      "t": 80100,
      "d": 295,
      "v": 48
    },
    {
      "midi": 73,
      "hit": false,
      "t": 80100,
      "d": 295,
      "v": 48
    },
    {
      "midi": 47,
      "hit": false,
      "t": 80400,
      "d": 295,
      "v": 48
    },
    {
      "midi": 66,
      "hit": false,
      "t": 80400,
      "d": 295,
      "v": 48
    },
    {
      "midi": 71,
      "hit": false,
      "t": 80400,
      "d": 295,
      "v": 48
    },
    {
      "midi": 75,
      "hit": false,
      "t": 80400,
      "d": 295,
      "v": 48
    },
    {
      "midi": 52,
      "hit": false,
      "t": 80700,
      "d": 295,
      "v": 48
    },
    {
      "midi": 68,
      "hit": false,
      "t": 80700,
      "d": 295,
      "v": 48
    },
    {
      "midi": 71,
      "hit": false,
      "t": 80700,
      "d": 595,
      "v": 48
    },
    {
      "midi": 51,
      "hit": false,
      "t": 81000,
      "d": 295,
      "v": 48
    },
    {
      "midi": 66,
      "hit": false,
      "t": 81000,
      "d": 295,
      "v": 48
    },
    {
      "midi": 54,
      "hit": false,
      "t": 81300,
      "d": 295,
      "v": 48
    },
    {
      "midi": 61,
      "hit": false,
      "t": 81300,
      "d": 295,
      "v": 48
    },
    {
      "midi": 66,
      "hit": false,
      "t": 81300,
      "d": 295,
      "v": 48
    },
    {
      "midi": 70,
      "hit": false,
      "t": 81300,
      "d": 295,
      "v": 48
    },
    {
      "midi": 68,
      "hit": false,
      "t": 81600,
      "d": 295,
      "v": 48
    },
    {
      "midi": 44,
      "hit": false,
      "t": 81600,
      "d": 595,
      "v": 48
    },
    {
      "midi": 59,
      "hit": false,
      "t": 81600,
      "d": 895,
      "v": 48
    },
    {
      "midi": 71,
      "hit": false,
      "t": 81600,
      "d": 895,
      "v": 48
    },
    {
      "midi": 64,
      "hit": false,
      "t": 81900,
      "d": 295,
      "v": 48
    },
    {
      "midi": 42,
      "hit": false,
      "t": 82200,
      "d": 295,
      "v": 48
    },
    {
      "midi": 66,
      "hit": false,
      "t": 82200,
      "d": 295,
      "v": 48
    },
    {
      "midi": 40,
      "hit": false,
      "t": 82500,
      "d": 295,
      "v": 48
    },
    {
      "midi": 59,
      "hit": false,
      "t": 82500,
      "d": 295,
      "v": 48
    },
    {
      "midi": 68,
      "hit": false,
      "t": 82500,
      "d": 295,
      "v": 48
    },
    {
      "midi": 71,
      "hit": false,
      "t": 82500,
      "d": 295,
      "v": 48
    },
    {
      "midi": 39,
      "hit": false,
      "t": 82800,
      "d": 295,
      "v": 48
    },
    {
      "midi": 59,
      "hit": false,
      "t": 82800,
      "d": 595,
      "v": 48
    },
    {
      "midi": 66,
      "hit": false,
      "t": 82800,
      "d": 595,
      "v": 48
    },
    {
      "midi": 51,
      "hit": false,
      "t": 83100,
      "d": 295,
      "v": 48
    },
    {
      "midi": 49,
      "hit": false,
      "t": 83400,
      "d": 295,
      "v": 48
    },
    {
      "midi": 64,
      "hit": false,
      "t": 83400,
      "d": 595,
      "v": 48
    },
    {
      "midi": 70,
      "hit": false,
      "t": 83400,
      "d": 595,
      "v": 48
    },
    {
      "midi": 73,
      "hit": false,
      "t": 83400,
      "d": 595,
      "v": 48
    },
    {
      "midi": 49,
      "hit": false,
      "t": 83700,
      "d": 295,
      "v": 48
    },
    {
      "midi": 47,
      "hit": false,
      "t": 84000,
      "d": 295,
      "v": 48
    },
    {
      "midi": 66,
      "hit": false,
      "t": 84000,
      "d": 1195,
      "v": 48
    },
    {
      "midi": 71,
      "hit": false,
      "t": 84000,
      "d": 1195,
      "v": 48
    },
    {
      "midi": 75,
      "hit": false,
      "t": 84000,
      "d": 1195,
      "v": 48
    },
    {
      "midi": 47,
      "hit": false,
      "t": 84300,
      "d": 295,
      "v": 48
    },
    {
      "midi": 47,
      "hit": false,
      "t": 84600,
      "d": 295,
      "v": 48
    },
    {
      "midi": 47,
      "hit": false,
      "t": 84900,
      "d": 295,
      "v": 48
    },
    {
      "midi": 59,
      "hit": false,
      "t": 85200,
      "d": 295,
      "v": 48
    },
    {
      "midi": 63,
      "hit": false,
      "t": 85200,
      "d": 1195,
      "v": 48
    },
    {
      "midi": 68,
      "hit": false,
      "t": 85200,
      "d": 1195,
      "v": 48
    },
    {
      "midi": 71,
      "hit": false,
      "t": 85200,
      "d": 1195,
      "v": 48
    },
    {
      "midi": 59,
      "hit": false,
      "t": 85500,
      "d": 295,
      "v": 48
    },
    {
      "midi": 59,
      "hit": false,
      "t": 85800,
      "d": 295,
      "v": 48
    },
    {
      "midi": 59,
      "hit": false,
      "t": 86100,
      "d": 295,
      "v": 48
    },
    {
      "midi": 58,
      "hit": false,
      "t": 86400,
      "d": 295,
      "v": 48
    },
    {
      "midi": 61,
      "hit": false,
      "t": 86400,
      "d": 1195,
      "v": 48
    },
    {
      "midi": 70,
      "hit": false,
      "t": 86400,
      "d": 1195,
      "v": 48
    },
    {
      "midi": 73,
      "hit": false,
      "t": 86400,
      "d": 1195,
      "v": 48
    },
    {
      "midi": 58,
      "hit": false,
      "t": 86700,
      "d": 295,
      "v": 48
    },
    {
      "midi": 58,
      "hit": false,
      "t": 87000,
      "d": 295,
      "v": 48
    },
    {
      "midi": 58,
      "hit": false,
      "t": 87300,
      "d": 295,
      "v": 48
    },
    {
      "midi": 58,
      "hit": false,
      "t": 87600,
      "d": 295,
      "v": 48
    },
    {
      "midi": 61,
      "hit": false,
      "t": 87600,
      "d": 1195,
      "v": 48
    },
    {
      "midi": 66,
      "hit": false,
      "t": 87600,
      "d": 1195,
      "v": 48
    },
    {
      "midi": 73,
      "hit": false,
      "t": 87600,
      "d": 1195,
      "v": 48
    },
    {
      "midi": 78,
      "hit": false,
      "t": 87600,
      "d": 1195,
      "v": 48
    },
    {
      "midi": 58,
      "hit": false,
      "t": 87900,
      "d": 295,
      "v": 48
    },
    {
      "midi": 58,
      "hit": false,
      "t": 88200,
      "d": 295,
      "v": 48
    },
    {
      "midi": 58,
      "hit": false,
      "t": 88500,
      "d": 295,
      "v": 48
    },
    {
      "midi": 56,
      "hit": false,
      "t": 88800,
      "d": 295,
      "v": 48
    },
    {
      "midi": 59,
      "hit": false,
      "t": 88800,
      "d": 1195,
      "v": 48
    },
    {
      "midi": 71,
      "hit": false,
      "t": 88800,
      "d": 1195,
      "v": 48
    },
    {
      "midi": 75,
      "hit": false,
      "t": 88800,
      "d": 1195,
      "v": 48
    },
    {
      "midi": 56,
      "hit": false,
      "t": 89100,
      "d": 295,
      "v": 48
    },
    {
      "midi": 56,
      "hit": false,
      "t": 89400,
      "d": 295,
      "v": 48
    },
    {
      "midi": 56,
      "hit": false,
      "t": 89700,
      "d": 295,
      "v": 48
    },
    {
      "midi": 56,
      "hit": false,
      "t": 90000,
      "d": 295,
      "v": 48
    },
    {
      "midi": 64,
      "hit": false,
      "t": 90000,
      "d": 595,
      "v": 48
    },
    {
      "midi": 71,
      "hit": false,
      "t": 90000,
      "d": 595,
      "v": 48
    },
    {
      "midi": 76,
      "hit": false,
      "t": 90000,
      "d": 595,
      "v": 48
    },
    {
      "midi": 59,
      "hit": false,
      "t": 90000,
      "d": 1195,
      "v": 48
    },
    {
      "midi": 56,
      "hit": false,
      "t": 90300,
      "d": 295,
      "v": 48
    },
    {
      "midi": 56,
      "hit": false,
      "t": 90600,
      "d": 295,
      "v": 48
    },
    {
      "midi": 64,
      "hit": false,
      "t": 90600,
      "d": 595,
      "v": 48
    },
    {
      "midi": 56,
      "hit": false,
      "t": 90900,
      "d": 295,
      "v": 48
    },
    {
      "midi": 54,
      "hit": false,
      "t": 91200,
      "d": 295,
      "v": 48
    },
    {
      "midi": 58,
      "hit": false,
      "t": 91200,
      "d": 295,
      "v": 48
    },
    {
      "midi": 64,
      "hit": false,
      "t": 91200,
      "d": 2395,
      "v": 48
    },
    {
      "midi": 56,
      "hit": false,
      "t": 91500,
      "d": 295,
      "v": 48
    },
    {
      "midi": 59,
      "hit": false,
      "t": 91500,
      "d": 295,
      "v": 48
    },
    {
      "midi": 58,
      "hit": false,
      "t": 91800,
      "d": 295,
      "v": 48
    },
    {
      "midi": 61,
      "hit": false,
      "t": 91800,
      "d": 295,
      "v": 48
    },
    {
      "midi": 56,
      "hit": false,
      "t": 92100,
      "d": 295,
      "v": 48
    },
    {
      "midi": 59,
      "hit": false,
      "t": 92100,
      "d": 295,
      "v": 48
    },
    {
      "midi": 54,
      "hit": false,
      "t": 92400,
      "d": 295,
      "v": 48
    },
    {
      "midi": 58,
      "hit": false,
      "t": 92400,
      "d": 295,
      "v": 48
    },
    {
      "midi": 56,
      "hit": false,
      "t": 92700,
      "d": 295,
      "v": 48
    },
    {
      "midi": 59,
      "hit": false,
      "t": 92700,
      "d": 295,
      "v": 48
    },
    {
      "midi": 58,
      "hit": false,
      "t": 93000,
      "d": 295,
      "v": 48
    },
    {
      "midi": 61,
      "hit": false,
      "t": 93000,
      "d": 295,
      "v": 48
    },
    {
      "midi": 56,
      "hit": false,
      "t": 93300,
      "d": 295,
      "v": 48
    },
    {
      "midi": 59,
      "hit": false,
      "t": 93300,
      "d": 295,
      "v": 48
    },
    {
      "midi": 54,
      "hit": false,
      "t": 93600,
      "d": 595,
      "v": 48
    },
    {
      "midi": 58,
      "hit": false,
      "t": 93600,
      "d": 595,
      "v": 48
    },
    {
      "midi": 64,
      "hit": false,
      "t": 93600,
      "d": 595,
      "v": 48
    },
    {
      "midi": 56,
      "hit": false,
      "t": 94200,
      "d": 595,
      "v": 48
    },
    {
      "midi": 59,
      "hit": false,
      "t": 94200,
      "d": 595,
      "v": 48
    },
    {
      "midi": 63,
      "hit": false,
      "t": 94200,
      "d": 595,
      "v": 48
    },
    {
      "midi": 71,
      "hit": false,
      "t": 94200,
      "d": 595,
      "v": 48
    },
    {
      "midi": 54,
      "hit": false,
      "t": 94800,
      "d": 595,
      "v": 48
    },
    {
      "midi": 59,
      "hit": false,
      "t": 94800,
      "d": 595,
      "v": 48
    },
    {
      "midi": 63,
      "hit": false,
      "t": 94800,
      "d": 595,
      "v": 48
    },
    {
      "midi": 66,
      "hit": false,
      "t": 94800,
      "d": 595,
      "v": 48
    },
    {
      "midi": 71,
      "hit": false,
      "t": 94800,
      "d": 595,
      "v": 48
    },
    {
      "midi": 42,
      "hit": false,
      "t": 95400,
      "d": 595,
      "v": 48
    },
    {
      "midi": 54,
      "hit": false,
      "t": 95400,
      "d": 595,
      "v": 48
    },
    {
      "midi": 61,
      "hit": false,
      "t": 95400,
      "d": 595,
      "v": 48
    },
    {
      "midi": 66,
      "hit": false,
      "t": 95400,
      "d": 595,
      "v": 48
    },
    {
      "midi": 70,
      "hit": false,
      "t": 95400,
      "d": 595,
      "v": 48
    },
    {
      "midi": 47,
      "hit": false,
      "t": 96000,
      "d": 2395,
      "v": 48
    },
    {
      "midi": 54,
      "hit": false,
      "t": 96000,
      "d": 2395,
      "v": 48
    },
    {
      "midi": 63,
      "hit": false,
      "t": 96000,
      "d": 2395,
      "v": 48
    },
    {
      "midi": 66,
      "hit": false,
      "t": 96000,
      "d": 2395,
      "v": 48
    },
    {
      "midi": 71,
      "hit": false,
      "t": 96000,
      "d": 2395,
      "v": 48
    },
    {
      "midi": 54,
      "hit": false,
      "t": 100500,
      "d": 295,
      "v": 72
    },
    {
      "midi": 61,
      "hit": false,
      "t": 100500,
      "d": 295,
      "v": 72
    },
    {
      "midi": 66,
      "hit": false,
      "t": 100500,
      "d": 295,
      "v": 72
    },
    {
      "midi": 70,
      "hit": false,
      "t": 100500,
      "d": 295,
      "v": 72
    },
    {
      "midi": 59,
      "hit": false,
      "t": 100800,
      "d": 295,
      "v": 72
    },
    {
      "midi": 63,
      "hit": false,
      "t": 100800,
      "d": 295,
      "v": 72
    },
    {
      "midi": 66,
      "hit": false,
      "t": 100800,
      "d": 295,
      "v": 72
    },
    {
      "midi": 71,
      "hit": false,
      "t": 100800,
      "d": 895,
      "v": 72
    },
    {
      "midi": 52,
      "hit": false,
      "t": 101100,
      "d": 295,
      "v": 72
    },
    {
      "midi": 64,
      "hit": false,
      "t": 101100,
      "d": 295,
      "v": 72
    },
    {
      "midi": 68,
      "hit": false,
      "t": 101100,
      "d": 295,
      "v": 72
    },
    {
      "midi": 54,
      "hit": false,
      "t": 101400,
      "d": 295,
      "v": 72
    },
    {
      "midi": 61,
      "hit": false,
      "t": 101400,
      "d": 595,
      "v": 72
    },
    {
      "midi": 66,
      "hit": false,
      "t": 101400,
      "d": 595,
      "v": 72
    },
    {
      "midi": 42,
      "hit": false,
      "t": 101700,
      "d": 295,
      "v": 72
    },
    {
      "midi": 70,
      "hit": false,
      "t": 101700,
      "d": 295,
      "v": 72
    },
    {
      "midi": 47,
      "hit": false,
      "t": 102000,
      "d": 595,
      "v": 72
    },
    {
      "midi": 63,
      "hit": false,
      "t": 102000,
      "d": 595,
      "v": 72
    },
    {
      "midi": 66,
      "hit": false,
      "t": 102000,
      "d": 595,
      "v": 72
    },
    {
      "midi": 71,
      "hit": false,
      "t": 102000,
      "d": 595,
      "v": 72
    },
    {
      "midi": 59,
      "hit": false,
      "t": 103200,
      "d": 595,
      "v": 48
    },
    {
      "midi": 63,
      "hit": false,
      "t": 103200,
      "d": 595,
      "v": 48
    },
    {
      "midi": 66,
      "hit": false,
      "t": 103200,
      "d": 595,
      "v": 48
    },
    {
      "midi": 57,
      "hit": false,
      "t": 103800,
      "d": 595,
      "v": 48
    },
    {
      "midi": 63,
      "hit": false,
      "t": 103800,
      "d": 595,
      "v": 48
    },
    {
      "midi": 66,
      "hit": false,
      "t": 103800,
      "d": 595,
      "v": 48
    },
    {
      "midi": 71,
      "hit": false,
      "t": 103800,
      "d": 595,
      "v": 48
    },
    {
      "midi": 56,
      "hit": false,
      "t": 104400,
      "d": 595,
      "v": 48
    },
    {
      "midi": 59,
      "hit": false,
      "t": 104400,
      "d": 595,
      "v": 48
    },
    {
      "midi": 64,
      "hit": false,
      "t": 104400,
      "d": 595,
      "v": 48
    },
    {
      "midi": 71,
      "hit": false,
      "t": 104400,
      "d": 595,
      "v": 48
    },
    {
      "midi": 52,
      "hit": false,
      "t": 105600,
      "d": 595,
      "v": 48
    },
    {
      "midi": 59,
      "hit": false,
      "t": 105600,
      "d": 595,
      "v": 48
    },
    {
      "midi": 64,
      "hit": false,
      "t": 105600,
      "d": 595,
      "v": 48
    },
    {
      "midi": 68,
      "hit": false,
      "t": 105600,
      "d": 595,
      "v": 48
    },
    {
      "midi": 50,
      "hit": false,
      "t": 106200,
      "d": 595,
      "v": 48
    },
    {
      "midi": 56,
      "hit": false,
      "t": 106200,
      "d": 595,
      "v": 48
    },
    {
      "midi": 64,
      "hit": false,
      "t": 106200,
      "d": 595,
      "v": 48
    },
    {
      "midi": 71,
      "hit": false,
      "t": 106200,
      "d": 595,
      "v": 48
    },
    {
      "midi": 49,
      "hit": false,
      "t": 106800,
      "d": 595,
      "v": 48
    },
    {
      "midi": 57,
      "hit": false,
      "t": 106800,
      "d": 595,
      "v": 48
    },
    {
      "midi": 64,
      "hit": false,
      "t": 106800,
      "d": 595,
      "v": 48
    },
    {
      "midi": 69,
      "hit": false,
      "t": 106800,
      "d": 595,
      "v": 48
    },
    {
      "midi": 76,
      "hit": false,
      "t": 106800,
      "d": 595,
      "v": 48
    },
    {
      "midi": 49,
      "hit": false,
      "t": 108000,
      "d": 595,
      "v": 48
    },
    {
      "midi": 57,
      "hit": false,
      "t": 108000,
      "d": 595,
      "v": 48
    },
    {
      "midi": 64,
      "hit": false,
      "t": 108000,
      "d": 595,
      "v": 48
    },
    {
      "midi": 69,
      "hit": false,
      "t": 108000,
      "d": 595,
      "v": 48
    },
    {
      "midi": 52,
      "hit": false,
      "t": 108600,
      "d": 595,
      "v": 48
    },
    {
      "midi": 56,
      "hit": false,
      "t": 108600,
      "d": 595,
      "v": 48
    },
    {
      "midi": 64,
      "hit": false,
      "t": 108600,
      "d": 595,
      "v": 48
    },
    {
      "midi": 71,
      "hit": false,
      "t": 108600,
      "d": 595,
      "v": 48
    },
    {
      "midi": 57,
      "hit": false,
      "t": 109200,
      "d": 595,
      "v": 48
    },
    {
      "midi": 64,
      "hit": false,
      "t": 109200,
      "d": 595,
      "v": 48
    },
    {
      "midi": 69,
      "hit": false,
      "t": 109200,
      "d": 595,
      "v": 48
    },
    {
      "midi": 73,
      "hit": false,
      "t": 109200,
      "d": 595,
      "v": 48
    },
    {
      "midi": 47,
      "hit": false,
      "t": 110100,
      "d": 295,
      "v": 48
    },
    {
      "midi": 62,
      "hit": false,
      "t": 110100,
      "d": 295,
      "v": 48
    },
    {
      "midi": 68,
      "hit": false,
      "t": 110100,
      "d": 295,
      "v": 48
    },
    {
      "midi": 49,
      "hit": false,
      "t": 110400,
      "d": 595,
      "v": 48
    },
    {
      "midi": 64,
      "hit": false,
      "t": 110400,
      "d": 595,
      "v": 48
    },
    {
      "midi": 69,
      "hit": false,
      "t": 110400,
      "d": 1195,
      "v": 48
    },
    {
      "midi": 50,
      "hit": false,
      "t": 111000,
      "d": 595,
      "v": 48
    },
    {
      "midi": 66,
      "hit": false,
      "t": 111000,
      "d": 595,
      "v": 48
    },
    {
      "midi": 52,
      "hit": false,
      "t": 111600,
      "d": 595,
      "v": 48
    },
    {
      "midi": 59,
      "hit": false,
      "t": 111600,
      "d": 595,
      "v": 48
    },
    {
      "midi": 64,
      "hit": false,
      "t": 111600,
      "d": 595,
      "v": 48
    },
    {
      "midi": 68,
      "hit": false,
      "t": 111600,
      "d": 595,
      "v": 48
    },
    {
      "midi": 50,
      "hit": false,
      "t": 112500,
      "d": 295,
      "v": 48
    },
    {
      "midi": 64,
      "hit": false,
      "t": 112500,
      "d": 295,
      "v": 48
    },
    {
      "midi": 68,
      "hit": false,
      "t": 112500,
      "d": 295,
      "v": 48
    },
    {
      "midi": 71,
      "hit": false,
      "t": 112500,
      "d": 295,
      "v": 48
    },
    {
      "midi": 49,
      "hit": false,
      "t": 112800,
      "d": 595,
      "v": 48
    },
    {
      "midi": 64,
      "hit": false,
      "t": 112800,
      "d": 595,
      "v": 48
    },
    {
      "midi": 69,
      "hit": false,
      "t": 112800,
      "d": 595,
      "v": 48
    },
    {
      "midi": 73,
      "hit": false,
      "t": 112800,
      "d": 595,
      "v": 48
    },
    {
      "midi": 50,
      "hit": false,
      "t": 113400,
      "d": 595,
      "v": 48
    },
    {
      "midi": 62,
      "hit": false,
      "t": 113400,
      "d": 595,
      "v": 48
    },
    {
      "midi": 66,
      "hit": false,
      "t": 113400,
      "d": 595,
      "v": 48
    },
    {
      "midi": 71,
      "hit": false,
      "t": 113400,
      "d": 1195,
      "v": 48
    },
    {
      "midi": 52,
      "hit": false,
      "t": 114000,
      "d": 595,
      "v": 48
    },
    {
      "midi": 59,
      "hit": false,
      "t": 114000,
      "d": 595,
      "v": 48
    },
    {
      "midi": 64,
      "hit": false,
      "t": 114000,
      "d": 595,
      "v": 48
    },
    {
      "midi": 68,
      "hit": false,
      "t": 114000,
      "d": 595,
      "v": 48
    },
    {
      "midi": 50,
      "hit": false,
      "t": 114900,
      "d": 295,
      "v": 48
    },
    {
      "midi": 64,
      "hit": false,
      "t": 114900,
      "d": 295,
      "v": 48
    },
    {
      "midi": 68,
      "hit": false,
      "t": 114900,
      "d": 295,
      "v": 48
    },
    {
      "midi": 71,
      "hit": false,
      "t": 114900,
      "d": 295,
      "v": 48
    },
    {
      "midi": 49,
      "hit": false,
      "t": 115200,
      "d": 595,
      "v": 48
    },
    {
      "midi": 64,
      "hit": false,
      "t": 115200,
      "d": 595,
      "v": 48
    },
    {
      "midi": 69,
      "hit": false,
      "t": 115200,
      "d": 595,
      "v": 48
    },
    {
      "midi": 73,
      "hit": false,
      "t": 115200,
      "d": 595,
      "v": 48
    },
    {
      "midi": 50,
      "hit": false,
      "t": 115800,
      "d": 595,
      "v": 48
    },
    {
      "midi": 57,
      "hit": false,
      "t": 115800,
      "d": 595,
      "v": 48
    },
    {
      "midi": 69,
      "hit": false,
      "t": 115800,
      "d": 595,
      "v": 48
    },
    {
      "midi": 78,
      "hit": false,
      "t": 115800,
      "d": 595,
      "v": 48
    },
    {
      "midi": 52,
      "hit": false,
      "t": 116400,
      "d": 595,
      "v": 48
    },
    {
      "midi": 64,
      "hit": false,
      "t": 116400,
      "d": 595,
      "v": 48
    },
    {
      "midi": 68,
      "hit": false,
      "t": 116400,
      "d": 595,
      "v": 48
    },
    {
      "midi": 71,
      "hit": false,
      "t": 116400,
      "d": 595,
      "v": 48
    },
    {
      "midi": 52,
      "hit": false,
      "t": 117300,
      "d": 295,
      "v": 48
    },
    {
      "midi": 59,
      "hit": false,
      "t": 117300,
      "d": 295,
      "v": 48
    },
    {
      "midi": 64,
      "hit": false,
      "t": 117300,
      "d": 295,
      "v": 48
    },
    {
      "midi": 68,
      "hit": false,
      "t": 117300,
      "d": 295,
      "v": 48
    },
    {
      "midi": 54,
      "hit": false,
      "t": 117600,
      "d": 595,
      "v": 48
    },
    {
      "midi": 57,
      "hit": false,
      "t": 117600,
      "d": 595,
      "v": 48
    },
    {
      "midi": 62,
      "hit": false,
      "t": 117600,
      "d": 595,
      "v": 48
    },
    {
      "midi": 69,
      "hit": false,
      "t": 117600,
      "d": 595,
      "v": 48
    },
    {
      "midi": 54,
      "hit": false,
      "t": 118500,
      "d": 295,
      "v": 48
    },
    {
      "midi": 57,
      "hit": false,
      "t": 118500,
      "d": 295,
      "v": 48
    },
    {
      "midi": 69,
      "hit": false,
      "t": 118500,
      "d": 295,
      "v": 48
    },
    {
      "midi": 74,
      "hit": false,
      "t": 118500,
      "d": 295,
      "v": 48
    },
    {
      "midi": 56,
      "hit": false,
      "t": 118800,
      "d": 595,
      "v": 48
    },
    {
      "midi": 59,
      "hit": false,
      "t": 118800,
      "d": 595,
      "v": 48
    },
    {
      "midi": 64,
      "hit": false,
      "t": 118800,
      "d": 595,
      "v": 48
    },
    {
      "midi": 71,
      "hit": false,
      "t": 118800,
      "d": 595,
      "v": 48
    },
    {
      "midi": 56,
      "hit": false,
      "t": 119700,
      "d": 295,
      "v": 48
    },
    {
      "midi": 59,
      "hit": false,
      "t": 119700,
      "d": 295,
      "v": 48
    },
    {
      "midi": 64,
      "hit": false,
      "t": 119700,
      "d": 295,
      "v": 48
    },
    {
      "midi": 71,
      "hit": false,
      "t": 119700,
      "d": 295,
      "v": 48
    },
    {
      "midi": 57,
      "hit": false,
      "t": 120000,
      "d": 595,
      "v": 48
    },
    {
      "midi": 64,
      "hit": false,
      "t": 120000,
      "d": 595,
      "v": 48
    },
    {
      "midi": 69,
      "hit": false,
      "t": 120000,
      "d": 595,
      "v": 48
    },
    {
      "midi": 73,
      "hit": false,
      "t": 120000,
      "d": 595,
      "v": 48
    },
    {
      "midi": 59,
      "hit": false,
      "t": 120600,
      "d": 595,
      "v": 48
    },
    {
      "midi": 62,
      "hit": false,
      "t": 120600,
      "d": 595,
      "v": 48
    },
    {
      "midi": 68,
      "hit": false,
      "t": 120600,
      "d": 595,
      "v": 48
    },
    {
      "midi": 71,
      "hit": false,
      "t": 120600,
      "d": 595,
      "v": 48
    },
    {
      "midi": 61,
      "hit": false,
      "t": 121200,
      "d": 595,
      "v": 48
    },
    {
      "midi": 64,
      "hit": false,
      "t": 121200,
      "d": 595,
      "v": 48
    },
    {
      "midi": 69,
      "hit": false,
      "t": 121200,
      "d": 595,
      "v": 48
    },
    {
      "midi": 76,
      "hit": false,
      "t": 121200,
      "d": 595,
      "v": 48
    },
    {
      "midi": 49,
      "hit": false,
      "t": 122400,
      "d": 595,
      "v": 72
    },
    {
      "midi": 52,
      "hit": false,
      "t": 122400,
      "d": 595,
      "v": 72
    },
    {
      "midi": 64,
      "hit": false,
      "t": 122400,
      "d": 595,
      "v": 72
    },
    {
      "midi": 69,
      "hit": false,
      "t": 122400,
      "d": 595,
      "v": 72
    },
    {
      "midi": 69,
      "hit": false,
      "t": 123000,
      "d": 295,
      "v": 72
    },
    {
      "midi": 52,
      "hit": false,
      "t": 123000,
      "d": 595,
      "v": 72
    },
    {
      "midi": 59,
      "hit": false,
      "t": 123000,
      "d": 595,
      "v": 72
    },
    {
      "midi": 64,
      "hit": false,
      "t": 123000,
      "d": 595,
      "v": 72
    },
    {
      "midi": 71,
      "hit": false,
      "t": 123000,
      "d": 595,
      "v": 72
    },
    {
      "midi": 68,
      "hit": false,
      "t": 123300,
      "d": 295,
      "v": 72
    },
    {
      "midi": 45,
      "hit": false,
      "t": 123600,
      "d": 595,
      "v": 72
    },
    {
      "midi": 57,
      "hit": false,
      "t": 123600,
      "d": 595,
      "v": 72
    },
    {
      "midi": 64,
      "hit": false,
      "t": 123600,
      "d": 595,
      "v": 72
    },
    {
      "midi": 69,
      "hit": false,
      "t": 123600,
      "d": 595,
      "v": 72
    },
    {
      "midi": 73,
      "hit": false,
      "t": 123600,
      "d": 595,
      "v": 72
    },
    {
      "midi": 44,
      "hit": false,
      "t": 124800,
      "d": 595,
      "v": 48
    },
    {
      "midi": 52,
      "hit": false,
      "t": 124800,
      "d": 595,
      "v": 48
    },
    {
      "midi": 59,
      "hit": false,
      "t": 124800,
      "d": 595,
      "v": 48
    },
    {
      "midi": 64,
      "hit": false,
      "t": 124800,
      "d": 895,
      "v": 48
    },
    {
      "midi": 47,
      "hit": false,
      "t": 125400,
      "d": 595,
      "v": 48
    },
    {
      "midi": 54,
      "hit": false,
      "t": 125400,
      "d": 595,
      "v": 48
    },
    {
      "midi": 59,
      "hit": false,
      "t": 125400,
      "d": 595,
      "v": 48
    },
    {
      "midi": 63,
      "hit": false,
      "t": 125700,
      "d": 295,
      "v": 48
    },
    {
      "midi": 52,
      "hit": false,
      "t": 126000,
      "d": 595,
      "v": 48
    },
    {
      "midi": 56,
      "hit": false,
      "t": 126000,
      "d": 595,
      "v": 48
    },
    {
      "midi": 59,
      "hit": false,
      "t": 126000,
      "d": 595,
      "v": 48
    },
    {
      "midi": 64,
      "hit": false,
      "t": 126000,
      "d": 595,
      "v": 48
    },
    {
      "midi": 56,
      "hit": false,
      "t": 127200,
      "d": 595,
      "v": 48
    },
    {
      "midi": 64,
      "hit": false,
      "t": 127200,
      "d": 595,
      "v": 48
    },
    {
      "midi": 71,
      "hit": false,
      "t": 127200,
      "d": 595,
      "v": 48
    },
    {
      "midi": 59,
      "hit": false,
      "t": 127800,
      "d": 595,
      "v": 48
    },
    {
      "midi": 66,
      "hit": false,
      "t": 127800,
      "d": 595,
      "v": 48
    },
    {
      "midi": 71,
      "hit": false,
      "t": 127800,
      "d": 595,
      "v": 48
    },
    {
      "midi": 75,
      "hit": false,
      "t": 127800,
      "d": 595,
      "v": 48
    },
    {
      "midi": 64,
      "hit": false,
      "t": 128400,
      "d": 595,
      "v": 48
    },
    {
      "midi": 68,
      "hit": false,
      "t": 128400,
      "d": 595,
      "v": 48
    },
    {
      "midi": 71,
      "hit": false,
      "t": 128400,
      "d": 595,
      "v": 48
    },
    {
      "midi": 76,
      "hit": false,
      "t": 128400,
      "d": 595,
      "v": 48
    },
    {
      "midi": 56,
      "hit": false,
      "t": 129600,
      "d": 295,
      "v": 48
    },
    {
      "midi": 64,
      "hit": false,
      "t": 129600,
      "d": 595,
      "v": 48
    },
    {
      "midi": 71,
      "hit": false,
      "t": 129600,
      "d": 595,
      "v": 48
    },
    {
      "midi": 76,
      "hit": false,
      "t": 129600,
      "d": 595,
      "v": 48
    },
    {
      "midi": 52,
      "hit": false,
      "t": 129900,
      "d": 295,
      "v": 48
    },
    {
      "midi": 57,
      "hit": false,
      "t": 130200,
      "d": 295,
      "v": 48
    },
    {
      "midi": 64,
      "hit": false,
      "t": 130200,
      "d": 595,
      "v": 48
    },
    {
      "midi": 69,
      "hit": false,
      "t": 130200,
      "d": 595,
      "v": 48
    },
    {
      "midi": 73,
      "hit": false,
      "t": 130200,
      "d": 595,
      "v": 48
    },
    {
      "midi": 54,
      "hit": false,
      "t": 130500,
      "d": 295,
      "v": 48
    },
    {
      "midi": 59,
      "hit": false,
      "t": 130800,
      "d": 595,
      "v": 48
    },
    {
      "midi": 63,
      "hit": false,
      "t": 130800,
      "d": 595,
      "v": 48
    },
    {
      "midi": 66,
      "hit": false,
      "t": 130800,
      "d": 595,
      "v": 48
    },
    {
      "midi": 47,
      "hit": false,
      "t": 131400,
      "d": 295,
      "v": 48
    },
    {
      "midi": 63,
      "hit": false,
      "t": 131400,
      "d": 295,
      "v": 48
    },
    {
      "midi": 66,
      "hit": false,
      "t": 131400,
      "d": 595,
      "v": 48
    },
    {
      "midi": 71,
      "hit": false,
      "t": 131400,
      "d": 1195,
      "v": 48
    },
    {
      "midi": 49,
      "hit": false,
      "t": 131700,
      "d": 295,
      "v": 48
    },
    {
      "midi": 64,
      "hit": false,
      "t": 131700,
      "d": 295,
      "v": 48
    },
    {
      "midi": 51,
      "hit": false,
      "t": 132000,
      "d": 595,
      "v": 48
    },
    {
      "midi": 59,
      "hit": false,
      "t": 132000,
      "d": 595,
      "v": 48
    },
    {
      "midi": 66,
      "hit": false,
      "t": 132000,
      "d": 595,
      "v": 48
    },
    {
      "midi": 52,
      "hit": false,
      "t": 133200,
      "d": 595,
      "v": 48
    },
    {
      "midi": 56,
      "hit": false,
      "t": 133200,
      "d": 595,
      "v": 48
    },
    {
      "midi": 64,
      "hit": false,
      "t": 133200,
      "d": 595,
      "v": 48
    },
    {
      "midi": 68,
      "hit": false,
      "t": 133200,
      "d": 595,
      "v": 48
    },
    {
      "midi": 71,
      "hit": false,
      "t": 133200,
      "d": 595,
      "v": 48
    },
    {
      "midi": 54,
      "hit": false,
      "t": 134400,
      "d": 595,
      "v": 48
    },
    {
      "midi": 57,
      "hit": false,
      "t": 134400,
      "d": 595,
      "v": 48
    },
    {
      "midi": 66,
      "hit": false,
      "t": 134400,
      "d": 595,
      "v": 48
    },
    {
      "midi": 68,
      "hit": false,
      "t": 134400,
      "d": 595,
      "v": 48
    },
    {
      "midi": 69,
      "hit": false,
      "t": 134400,
      "d": 595,
      "v": 48
    },
    {
      "midi": 56,
      "hit": false,
      "t": 135600,
      "d": 595,
      "v": 48
    },
    {
      "midi": 59,
      "hit": false,
      "t": 135600,
      "d": 595,
      "v": 48
    },
    {
      "midi": 64,
      "hit": false,
      "t": 135600,
      "d": 595,
      "v": 48
    },
    {
      "midi": 71,
      "hit": false,
      "t": 135600,
      "d": 595,
      "v": 48
    },
    {
      "midi": 76,
      "hit": false,
      "t": 135600,
      "d": 595,
      "v": 48
    },
    {
      "midi": 58,
      "hit": false,
      "t": 136800,
      "d": 595,
      "v": 48
    },
    {
      "midi": 61,
      "hit": false,
      "t": 136800,
      "d": 595,
      "v": 48
    },
    {
      "midi": 64,
      "hit": false,
      "t": 136800,
      "d": 595,
      "v": 48
    },
    {
      "midi": 66,
      "hit": false,
      "t": 136800,
      "d": 595,
      "v": 48
    },
    {
      "midi": 73,
      "hit": false,
      "t": 136800,
      "d": 595,
      "v": 48
    },
    {
      "midi": 59,
      "hit": false,
      "t": 138000,
      "d": 1195,
      "v": 48
    },
    {
      "midi": 63,
      "hit": false,
      "t": 138000,
      "d": 1195,
      "v": 48
    },
    {
      "midi": 66,
      "hit": false,
      "t": 138000,
      "d": 1195,
      "v": 48
    },
    {
      "midi": 47,
      "hit": false,
      "t": 138300,
      "d": 295,
      "v": 48
    },
    {
      "midi": 47,
      "hit": false,
      "t": 138600,
      "d": 295,
      "v": 48
    },
    {
      "midi": 47,
      "hit": false,
      "t": 138900,
      "d": 295,
      "v": 48
    },
    {
      "midi": 49,
      "hit": false,
      "t": 139200,
      "d": 295,
      "v": 48
    },
    {
      "midi": 52,
      "hit": false,
      "t": 139200,
      "d": 1195,
      "v": 48
    },
    {
      "midi": 64,
      "hit": false,
      "t": 139200,
      "d": 1195,
      "v": 48
    },
    {
      "midi": 70,
      "hit": false,
      "t": 139200,
      "d": 1195,
      "v": 48
    },
    {
      "midi": 49,
      "hit": false,
      "t": 139500,
      "d": 295,
      "v": 48
    },
    {
      "midi": 49,
      "hit": false,
      "t": 139800,
      "d": 295,
      "v": 48
    },
    {
      "midi": 49,
      "hit": false,
      "t": 140100,
      "d": 295,
      "v": 48
    },
    {
      "midi": 51,
      "hit": false,
      "t": 140400,
      "d": 295,
      "v": 48
    },
    {
      "midi": 59,
      "hit": false,
      "t": 140400,
      "d": 595,
      "v": 48
    },
    {
      "midi": 66,
      "hit": false,
      "t": 140400,
      "d": 595,
      "v": 48
    },
    {
      "midi": 71,
      "hit": false,
      "t": 140400,
      "d": 1195,
      "v": 48
    },
    {
      "midi": 51,
      "hit": false,
      "t": 140700,
      "d": 295,
      "v": 48
    },
    {
      "midi": 51,
      "hit": false,
      "t": 141000,
      "d": 295,
      "v": 48
    },
    {
      "midi": 54,
      "hit": false,
      "t": 141000,
      "d": 295,
      "v": 48
    },
    {
      "midi": 59,
      "hit": false,
      "t": 141000,
      "d": 595,
      "v": 48
    },
    {
      "midi": 52,
      "hit": false,
      "t": 141300,
      "d": 295,
      "v": 48
    },
    {
      "midi": 56,
      "hit": false,
      "t": 141300,
      "d": 295,
      "v": 48
    },
    {
      "midi": 54,
      "hit": false,
      "t": 141600,
      "d": 595,
      "v": 48
    },
    {
      "midi": 57,
      "hit": false,
      "t": 141600,
      "d": 1195,
      "v": 48
    },
    {
      "midi": 63,
      "hit": false,
      "t": 141600,
      "d": 1195,
      "v": 48
    },
    {
      "midi": 66,
      "hit": false,
      "t": 141600,
      "d": 1195,
      "v": 48
    },
    {
      "midi": 47,
      "hit": false,
      "t": 142200,
      "d": 595,
      "v": 48
    },
    {
      "midi": 52,
      "hit": false,
      "t": 142800,
      "d": 595,
      "v": 48
    },
    {
      "midi": 59,
      "hit": false,
      "t": 142800,
      "d": 595,
      "v": 48
    },
    {
      "midi": 64,
      "hit": false,
      "t": 142800,
      "d": 595,
      "v": 48
    },
    {
      "midi": 68,
      "hit": false,
      "t": 142800,
      "d": 595,
      "v": 48
    },
    {
      "midi": 56,
      "hit": false,
      "t": 146100,
      "d": 295,
      "v": 48
    },
    {
      "midi": 59,
      "hit": false,
      "t": 146100,
      "d": 295,
      "v": 48
    },
    {
      "midi": 64,
      "hit": false,
      "t": 146100,
      "d": 295,
      "v": 48
    },
    {
      "midi": 57,
      "hit": false,
      "t": 146400,
      "d": 295,
      "v": 48
    },
    {
      "midi": 61,
      "hit": false,
      "t": 146400,
      "d": 295,
      "v": 48
    },
    {
      "midi": 66,
      "hit": false,
      "t": 146400,
      "d": 295,
      "v": 48
    },
    {
      "midi": 56,
      "hit": false,
      "t": 146700,
      "d": 295,
      "v": 48
    },
    {
      "midi": 59,
      "hit": false,
      "t": 146700,
      "d": 295,
      "v": 48
    },
    {
      "midi": 64,
      "hit": false,
      "t": 146700,
      "d": 295,
      "v": 48
    },
    {
      "midi": 57,
      "hit": false,
      "t": 147000,
      "d": 295,
      "v": 48
    },
    {
      "midi": 61,
      "hit": false,
      "t": 147000,
      "d": 295,
      "v": 48
    },
    {
      "midi": 66,
      "hit": false,
      "t": 147000,
      "d": 295,
      "v": 48
    },
    {
      "midi": 56,
      "hit": false,
      "t": 147300,
      "d": 295,
      "v": 48
    },
    {
      "midi": 59,
      "hit": false,
      "t": 147300,
      "d": 295,
      "v": 48
    },
    {
      "midi": 64,
      "hit": false,
      "t": 147300,
      "d": 295,
      "v": 48
    },
    {
      "midi": 57,
      "hit": false,
      "t": 147600,
      "d": 295,
      "v": 48
    },
    {
      "midi": 61,
      "hit": false,
      "t": 147600,
      "d": 295,
      "v": 48
    },
    {
      "midi": 64,
      "hit": false,
      "t": 147600,
      "d": 895,
      "v": 48
    },
    {
      "midi": 56,
      "hit": false,
      "t": 147900,
      "d": 295,
      "v": 48
    },
    {
      "midi": 59,
      "hit": false,
      "t": 147900,
      "d": 295,
      "v": 48
    },
    {
      "midi": 57,
      "hit": false,
      "t": 148200,
      "d": 295,
      "v": 48
    },
    {
      "midi": 61,
      "hit": false,
      "t": 148200,
      "d": 295,
      "v": 48
    },
    {
      "midi": 56,
      "hit": false,
      "t": 148500,
      "d": 295,
      "v": 48
    },
    {
      "midi": 59,
      "hit": false,
      "t": 148500,
      "d": 295,
      "v": 48
    },
    {
      "midi": 64,
      "hit": false,
      "t": 148500,
      "d": 295,
      "v": 48
    },
    {
      "midi": 57,
      "hit": false,
      "t": 148800,
      "d": 295,
      "v": 48
    },
    {
      "midi": 61,
      "hit": false,
      "t": 148800,
      "d": 295,
      "v": 48
    },
    {
      "midi": 66,
      "hit": false,
      "t": 148800,
      "d": 295,
      "v": 48
    },
    {
      "midi": 56,
      "hit": false,
      "t": 149100,
      "d": 295,
      "v": 48
    },
    {
      "midi": 59,
      "hit": false,
      "t": 149100,
      "d": 295,
      "v": 48
    },
    {
      "midi": 64,
      "hit": false,
      "t": 149100,
      "d": 295,
      "v": 48
    },
    {
      "midi": 57,
      "hit": false,
      "t": 149400,
      "d": 295,
      "v": 48
    },
    {
      "midi": 61,
      "hit": false,
      "t": 149400,
      "d": 295,
      "v": 48
    },
    {
      "midi": 66,
      "hit": false,
      "t": 149400,
      "d": 295,
      "v": 48
    },
    {
      "midi": 56,
      "hit": false,
      "t": 149700,
      "d": 295,
      "v": 48
    },
    {
      "midi": 59,
      "hit": false,
      "t": 149700,
      "d": 295,
      "v": 48
    },
    {
      "midi": 64,
      "hit": false,
      "t": 149700,
      "d": 295,
      "v": 48
    },
    {
      "midi": 57,
      "hit": false,
      "t": 150000,
      "d": 295,
      "v": 48
    },
    {
      "midi": 61,
      "hit": false,
      "t": 150000,
      "d": 295,
      "v": 48
    },
    {
      "midi": 64,
      "hit": false,
      "t": 150000,
      "d": 895,
      "v": 48
    },
    {
      "midi": 56,
      "hit": false,
      "t": 150300,
      "d": 295,
      "v": 48
    },
    {
      "midi": 59,
      "hit": false,
      "t": 150300,
      "d": 295,
      "v": 48
    },
    {
      "midi": 57,
      "hit": false,
      "t": 150600,
      "d": 295,
      "v": 48
    },
    {
      "midi": 61,
      "hit": false,
      "t": 150600,
      "d": 295,
      "v": 48
    },
    {
      "midi": 56,
      "hit": false,
      "t": 150900,
      "d": 295,
      "v": 48
    },
    {
      "midi": 59,
      "hit": false,
      "t": 150900,
      "d": 295,
      "v": 48
    },
    {
      "midi": 64,
      "hit": false,
      "t": 150900,
      "d": 295,
      "v": 48
    },
    {
      "midi": 57,
      "hit": false,
      "t": 151200,
      "d": 595,
      "v": 48
    },
    {
      "midi": 64,
      "hit": false,
      "t": 151200,
      "d": 595,
      "v": 48
    },
    {
      "midi": 61,
      "hit": false,
      "t": 151200,
      "d": 1195,
      "v": 48
    },
    {
      "midi": 45,
      "hit": false,
      "t": 151800,
      "d": 595,
      "v": 48
    },
    {
      "midi": 66,
      "hit": false,
      "t": 151800,
      "d": 595,
      "v": 48
    },
    {
      "midi": 47,
      "hit": false,
      "t": 152400,
      "d": 595,
      "v": 48
    },
    {
      "midi": 54,
      "hit": false,
      "t": 152400,
      "d": 595,
      "v": 48
    },
    {
      "midi": 59,
      "hit": false,
      "t": 152400,
      "d": 595,
      "v": 48
    },
    {
      "midi": 63,
      "hit": false,
      "t": 152400,
      "d": 595,
      "v": 48
    },
    {
      "midi": 66,
      "hit": false,
      "t": 152400,
      "d": 595,
      "v": 48
    },
    {
      "midi": 47,
      "hit": false,
      "t": 153300,
      "d": 295,
      "v": 48
    },
    {
      "midi": 59,
      "hit": false,
      "t": 153300,
      "d": 295,
      "v": 48
    },
    {
      "midi": 63,
      "hit": false,
      "t": 153300,
      "d": 295,
      "v": 48
    },
    {
      "midi": 66,
      "hit": false,
      "t": 153300,
      "d": 295,
      "v": 48
    },
    {
      "midi": 52,
      "hit": false,
      "t": 153600,
      "d": 595,
      "v": 48
    },
    {
      "midi": 59,
      "hit": false,
      "t": 153600,
      "d": 595,
      "v": 48
    },
    {
      "midi": 64,
      "hit": false,
      "t": 153600,
      "d": 595,
      "v": 48
    },
    {
      "midi": 68,
      "hit": false,
      "t": 153600,
      "d": 595,
      "v": 48
    },
    {
      "midi": 56,
      "hit": false,
      "t": 154200,
      "d": 595,
      "v": 48
    },
    {
      "midi": 59,
      "hit": false,
      "t": 154200,
      "d": 595,
      "v": 48
    },
    {
      "midi": 64,
      "hit": false,
      "t": 154200,
      "d": 595,
      "v": 48
    },
    {
      "midi": 54,
      "hit": false,
      "t": 154800,
      "d": 595,
      "v": 48
    },
    {
      "midi": 57,
      "hit": false,
      "t": 154800,
      "d": 595,
      "v": 48
    },
    {
      "midi": 61,
      "hit": false,
      "t": 154800,
      "d": 595,
      "v": 48
    },
    {
      "midi": 69,
      "hit": false,
      "t": 154800,
      "d": 595,
      "v": 48
    },
    {
      "midi": 49,
      "hit": false,
      "t": 155700,
      "d": 295,
      "v": 48
    },
    {
      "midi": 64,
      "hit": false,
      "t": 155700,
      "d": 295,
      "v": 48
    },
    {
      "midi": 69,
      "hit": false,
      "t": 155700,
      "d": 295,
      "v": 48
    },
    {
      "midi": 54,
      "hit": false,
      "t": 156000,
      "d": 295,
      "v": 48
    },
    {
      "midi": 63,
      "hit": false,
      "t": 156000,
      "d": 295,
      "v": 48
    },
    {
      "midi": 69,
      "hit": false,
      "t": 156000,
      "d": 1195,
      "v": 48
    },
    {
      "midi": 52,
      "hit": false,
      "t": 156300,
      "d": 295,
      "v": 48
    },
    {
      "midi": 64,
      "hit": false,
      "t": 156300,
      "d": 295,
      "v": 48
    },
    {
      "midi": 51,
      "hit": false,
      "t": 156600,
      "d": 295,
      "v": 48
    },
    {
      "midi": 66,
      "hit": false,
      "t": 156600,
      "d": 295,
      "v": 48
    },
    {
      "midi": 49,
      "hit": false,
      "t": 156900,
      "d": 295,
      "v": 48
    },
    {
      "midi": 64,
      "hit": false,
      "t": 156900,
      "d": 295,
      "v": 48
    },
    {
      "midi": 47,
      "hit": false,
      "t": 157200,
      "d": 295,
      "v": 48
    },
    {
      "midi": 63,
      "hit": false,
      "t": 157200,
      "d": 295,
      "v": 48
    },
    {
      "midi": 69,
      "hit": false,
      "t": 157200,
      "d": 4195,
      "v": 48
    },
    {
      "midi": 49,
      "hit": false,
      "t": 157500,
      "d": 295,
      "v": 48
    },
    {
      "midi": 64,
      "hit": false,
      "t": 157500,
      "d": 295,
      "v": 48
    },
    {
      "midi": 51,
      "hit": false,
      "t": 157800,
      "d": 295,
      "v": 48
    },
    {
      "midi": 66,
      "hit": false,
      "t": 157800,
      "d": 295,
      "v": 48
    },
    {
      "midi": 49,
      "hit": false,
      "t": 158100,
      "d": 295,
      "v": 48
    },
    {
      "midi": 64,
      "hit": false,
      "t": 158100,
      "d": 295,
      "v": 48
    },
    {
      "midi": 47,
      "hit": false,
      "t": 158400,
      "d": 295,
      "v": 48
    },
    {
      "midi": 63,
      "hit": false,
      "t": 158400,
      "d": 295,
      "v": 48
    },
    {
      "midi": 49,
      "hit": false,
      "t": 158700,
      "d": 295,
      "v": 48
    },
    {
      "midi": 64,
      "hit": false,
      "t": 158700,
      "d": 295,
      "v": 48
    },
    {
      "midi": 51,
      "hit": false,
      "t": 159000,
      "d": 295,
      "v": 48
    },
    {
      "midi": 66,
      "hit": false,
      "t": 159000,
      "d": 295,
      "v": 48
    },
    {
      "midi": 49,
      "hit": false,
      "t": 159300,
      "d": 295,
      "v": 48
    },
    {
      "midi": 64,
      "hit": false,
      "t": 159300,
      "d": 295,
      "v": 48
    },
    {
      "midi": 47,
      "hit": false,
      "t": 159600,
      "d": 295,
      "v": 48
    },
    {
      "midi": 63,
      "hit": false,
      "t": 159600,
      "d": 295,
      "v": 48
    },
    {
      "midi": 49,
      "hit": false,
      "t": 159900,
      "d": 295,
      "v": 48
    },
    {
      "midi": 64,
      "hit": false,
      "t": 159900,
      "d": 295,
      "v": 48
    },
    {
      "midi": 51,
      "hit": false,
      "t": 160200,
      "d": 295,
      "v": 48
    },
    {
      "midi": 66,
      "hit": false,
      "t": 160200,
      "d": 295,
      "v": 48
    },
    {
      "midi": 49,
      "hit": false,
      "t": 160500,
      "d": 295,
      "v": 48
    },
    {
      "midi": 64,
      "hit": false,
      "t": 160500,
      "d": 295,
      "v": 48
    },
    {
      "midi": 47,
      "hit": false,
      "t": 160800,
      "d": 595,
      "v": 48
    },
    {
      "midi": 63,
      "hit": false,
      "t": 160800,
      "d": 595,
      "v": 48
    },
    {
      "midi": 52,
      "hit": false,
      "t": 161400,
      "d": 295,
      "v": 48
    },
    {
      "midi": 59,
      "hit": false,
      "t": 161400,
      "d": 295,
      "v": 48
    },
    {
      "midi": 68,
      "hit": false,
      "t": 161400,
      "d": 295,
      "v": 48
    },
    {
      "midi": 64,
      "hit": false,
      "t": 161400,
      "d": 595,
      "v": 48
    },
    {
      "midi": 45,
      "hit": false,
      "t": 161700,
      "d": 295,
      "v": 48
    },
    {
      "midi": 61,
      "hit": false,
      "t": 161700,
      "d": 295,
      "v": 48
    },
    {
      "midi": 66,
      "hit": false,
      "t": 161700,
      "d": 295,
      "v": 48
    },
    {
      "midi": 56,
      "hit": false,
      "t": 162000,
      "d": 595,
      "v": 48
    },
    {
      "midi": 59,
      "hit": false,
      "t": 162000,
      "d": 595,
      "v": 48
    },
    {
      "midi": 64,
      "hit": false,
      "t": 162000,
      "d": 595,
      "v": 48
    },
    {
      "midi": 47,
      "hit": false,
      "t": 162000,
      "d": 1195,
      "v": 48
    },
    {
      "midi": 54,
      "hit": false,
      "t": 162600,
      "d": 595,
      "v": 48
    },
    {
      "midi": 59,
      "hit": false,
      "t": 162600,
      "d": 595,
      "v": 48
    },
    {
      "midi": 63,
      "hit": false,
      "t": 162600,
      "d": 595,
      "v": 48
    },
    {
      "midi": 52,
      "hit": false,
      "t": 163200,
      "d": 295,
      "v": 48
    },
    {
      "midi": 56,
      "hit": false,
      "t": 163200,
      "d": 595,
      "v": 48
    },
    {
      "midi": 59,
      "hit": false,
      "t": 163200,
      "d": 595,
      "v": 48
    },
    {
      "midi": 64,
      "hit": false,
      "t": 163200,
      "d": 595,
      "v": 48
    },
    {
      "midi": 54,
      "hit": false,
      "t": 163500,
      "d": 295,
      "v": 48
    },
    {
      "midi": 56,
      "hit": false,
      "t": 163800,
      "d": 295,
      "v": 48
    },
    {
      "midi": 64,
      "hit": false,
      "t": 163800,
      "d": 595,
      "v": 48
    },
    {
      "midi": 71,
      "hit": false,
      "t": 163800,
      "d": 595,
      "v": 48
    },
    {
      "midi": 76,
      "hit": false,
      "t": 163800,
      "d": 595,
      "v": 48
    },
    {
      "midi": 52,
      "hit": false,
      "t": 164100,
      "d": 295,
      "v": 48
    },
    {
      "midi": 57,
      "hit": false,
      "t": 164400,
      "d": 295,
      "v": 48
    },
    {
      "midi": 64,
      "hit": false,
      "t": 164400,
      "d": 595,
      "v": 48
    },
    {
      "midi": 69,
      "hit": false,
      "t": 164400,
      "d": 595,
      "v": 48
    },
    {
      "midi": 73,
      "hit": false,
      "t": 164400,
      "d": 595,
      "v": 48
    },
    {
      "midi": 54,
      "hit": false,
      "t": 164700,
      "d": 295,
      "v": 48
    },
    {
      "midi": 59,
      "hit": false,
      "t": 165000,
      "d": 295,
      "v": 48
    },
    {
      "midi": 63,
      "hit": false,
      "t": 165000,
      "d": 595,
      "v": 48
    },
    {
      "midi": 66,
      "hit": false,
      "t": 165000,
      "d": 595,
      "v": 48
    },
    {
      "midi": 57,
      "hit": false,
      "t": 165300,
      "d": 295,
      "v": 48
    },
    {
      "midi": 56,
      "hit": false,
      "t": 165600,
      "d": 295,
      "v": 48
    },
    {
      "midi": 59,
      "hit": false,
      "t": 165600,
      "d": 595,
      "v": 48
    },
    {
      "midi": 64,
      "hit": false,
      "t": 165600,
      "d": 595,
      "v": 48
    },
    {
      "midi": 71,
      "hit": false,
      "t": 165600,
      "d": 595,
      "v": 48
    },
    {
      "midi": 52,
      "hit": false,
      "t": 165900,
      "d": 295,
      "v": 48
    },
    {
      "midi": 59,
      "hit": false,
      "t": 170100,
      "d": 295,
      "v": 72
    },
    {
      "midi": 63,
      "hit": false,
      "t": 170100,
      "d": 295,
      "v": 72
    },
    {
      "midi": 66,
      "hit": false,
      "t": 170100,
      "d": 295,
      "v": 72
    },
    {
      "midi": 71,
      "hit": false,
      "t": 170100,
      "d": 295,
      "v": 72
    },
    {
      "midi": 64,
      "hit": false,
      "t": 170400,
      "d": 295,
      "v": 72
    },
    {
      "midi": 68,
      "hit": false,
      "t": 170400,
      "d": 295,
      "v": 72
    },
    {
      "midi": 71,
      "hit": false,
      "t": 170400,
      "d": 295,
      "v": 72
    },
    {
      "midi": 57,
      "hit": false,
      "t": 170700,
      "d": 295,
      "v": 72
    },
    {
      "midi": 73,
      "hit": false,
      "t": 170700,
      "d": 295,
      "v": 72
    },
    {
      "midi": 64,
      "hit": false,
      "t": 170700,
      "d": 595,
      "v": 72
    },
    {
      "midi": 59,
      "hit": false,
      "t": 171000,
      "d": 295,
      "v": 72
    },
    {
      "midi": 66,
      "hit": false,
      "t": 171000,
      "d": 595,
      "v": 72
    },
    {
      "midi": 47,
      "hit": false,
      "t": 171300,
      "d": 295,
      "v": 72
    },
    {
      "midi": 49,
      "hit": false,
      "t": 171600,
      "d": 595,
      "v": 72
    },
    {
      "midi": 56,
      "hit": false,
      "t": 171600,
      "d": 595,
      "v": 72
    },
    {
      "midi": 61,
      "hit": false,
      "t": 171600,
      "d": 595,
      "v": 72
    },
    {
      "midi": 64,
      "hit": false,
      "t": 171600,
      "d": 595,
      "v": 72
    },
    {
      "midi": 61,
      "hit": false,
      "t": 172800,
      "d": 595,
      "v": 72
    },
    {
      "midi": 64,
      "hit": false,
      "t": 172800,
      "d": 595,
      "v": 72
    },
    {
      "midi": 70,
      "hit": false,
      "t": 172800,
      "d": 595,
      "v": 72
    },
    {
      "midi": 73,
      "hit": false,
      "t": 172800,
      "d": 595,
      "v": 72
    },
    {
      "midi": 51,
      "hit": false,
      "t": 174000,
      "d": 595,
      "v": 72
    },
    {
      "midi": 59,
      "hit": false,
      "t": 174000,
      "d": 595,
      "v": 72
    },
    {
      "midi": 66,
      "hit": false,
      "t": 174000,
      "d": 595,
      "v": 72
    },
    {
      "midi": 71,
      "hit": false,
      "t": 174000,
      "d": 595,
      "v": 72
    },
    {
      "midi": 52,
      "hit": false,
      "t": 175200,
      "d": 1195,
      "v": 48
    },
    {
      "midi": 59,
      "hit": false,
      "t": 175200,
      "d": 1195,
      "v": 48
    },
    {
      "midi": 64,
      "hit": false,
      "t": 175200,
      "d": 1195,
      "v": 48
    },
    {
      "midi": 68,
      "hit": false,
      "t": 175200,
      "d": 1195,
      "v": 48
    },
    {
      "midi": 45,
      "hit": false,
      "t": 176400,
      "d": 1195,
      "v": 48
    },
    {
      "midi": 64,
      "hit": false,
      "t": 176400,
      "d": 1195,
      "v": 48
    },
    {
      "midi": 69,
      "hit": false,
      "t": 176400,
      "d": 1195,
      "v": 48
    },
    {
      "midi": 73,
      "hit": false,
      "t": 176400,
      "d": 1195,
      "v": 48
    },
    {
      "midi": 52,
      "hit": false,
      "t": 177600,
      "d": 1195,
      "v": 48
    },
    {
      "midi": 56,
      "hit": false,
      "t": 177600,
      "d": 1195,
      "v": 48
    },
    {
      "midi": 59,
      "hit": false,
      "t": 177600,
      "d": 1195,
      "v": 48
    },
    {
      "midi": 64,
      "hit": false,
      "t": 177600,
      "d": 1195,
      "v": 48
    },
    {
      "midi": 47,
      "hit": false,
      "t": 177600,
      "d": 2395,
      "v": 48
    },
    {
      "midi": 54,
      "hit": false,
      "t": 178800,
      "d": 1195,
      "v": 48
    },
    {
      "midi": 59,
      "hit": false,
      "t": 178800,
      "d": 1195,
      "v": 48
    },
    {
      "midi": 63,
      "hit": false,
      "t": 178800,
      "d": 1195,
      "v": 48
    },
    {
      "midi": 52,
      "hit": false,
      "t": 180000,
      "d": 295,
      "v": 72
    },
    {
      "midi": 56,
      "hit": false,
      "t": 180000,
      "d": 295,
      "v": 72
    },
    {
      "midi": 59,
      "hit": false,
      "t": 180000,
      "d": 595,
      "v": 72
    },
    {
      "midi": 64,
      "hit": false,
      "t": 180000,
      "d": 595,
      "v": 72
    },
    {
      "midi": 56,
      "hit": false,
      "t": 180300,
      "d": 295,
      "v": 72
    },
    {
      "midi": 57,
      "hit": false,
      "t": 180600,
      "d": 295,
      "v": 72
    },
    {
      "midi": 61,
      "hit": false,
      "t": 180600,
      "d": 295,
      "v": 72
    },
    {
      "midi": 64,
      "hit": false,
      "t": 180600,
      "d": 295,
      "v": 72
    },
    {
      "midi": 66,
      "hit": false,
      "t": 180600,
      "d": 595,
      "v": 72
    },
    {
      "midi": 59,
      "hit": false,
      "t": 180900,
      "d": 295,
      "v": 72
    },
    {
      "midi": 63,
      "hit": false,
      "t": 180900,
      "d": 295,
      "v": 72
    },
    {
      "midi": 52,
      "hit": false,
      "t": 181200,
      "d": 595,
      "v": 72
    },
    {
      "midi": 59,
      "hit": false,
      "t": 181200,
      "d": 595,
      "v": 72
    },
    {
      "midi": 64,
      "hit": false,
      "t": 181200,
      "d": 595,
      "v": 72
    },
    {
      "midi": 68,
      "hit": false,
      "t": 181200,
      "d": 595,
      "v": 72
    },
    {
      "midi": 54,
      "hit": false,
      "t": 182100,
      "d": 295,
      "v": 72
    },
    {
      "midi": 57,
      "hit": false,
      "t": 182100,
      "d": 295,
      "v": 72
    },
    {
      "midi": 63,
      "hit": false,
      "t": 182100,
      "d": 295,
      "v": 72
    },
    {
      "midi": 56,
      "hit": false,
      "t": 182400,
      "d": 295,
      "v": 72
    },
    {
      "midi": 59,
      "hit": false,
      "t": 182400,
      "d": 595,
      "v": 72
    },
    {
      "midi": 64,
      "hit": false,
      "t": 182400,
      "d": 595,
      "v": 72
    },
    {
      "midi": 52,
      "hit": false,
      "t": 182700,
      "d": 295,
      "v": 72
    },
    {
      "midi": 57,
      "hit": false,
      "t": 183000,
      "d": 295,
      "v": 72
    },
    {
      "midi": 61,
      "hit": false,
      "t": 183000,
      "d": 295,
      "v": 72
    },
    {
      "midi": 66,
      "hit": false,
      "t": 183000,
      "d": 295,
      "v": 72
    },
    {
      "midi": 61,
      "hit": false,
      "t": 183300,
      "d": 295,
      "v": 72
    },
    {
      "midi": 64,
      "hit": false,
      "t": 183300,
      "d": 295,
      "v": 72
    },
    {
      "midi": 59,
      "hit": false,
      "t": 183600,
      "d": 595,
      "v": 72
    },
    {
      "midi": 63,
      "hit": false,
      "t": 183600,
      "d": 595,
      "v": 72
    },
    {
      "midi": 66,
      "hit": false,
      "t": 183600,
      "d": 595,
      "v": 72
    },
    {
      "midi": 57,
      "hit": false,
      "t": 184500,
      "d": 295,
      "v": 72
    },
    {
      "midi": 63,
      "hit": false,
      "t": 184500,
      "d": 295,
      "v": 72
    },
    {
      "midi": 66,
      "hit": false,
      "t": 184500,
      "d": 295,
      "v": 72
    },
    {
      "midi": 71,
      "hit": false,
      "t": 184500,
      "d": 895,
      "v": 72
    },
    {
      "midi": 56,
      "hit": false,
      "t": 184800,
      "d": 295,
      "v": 72
    },
    {
      "midi": 64,
      "hit": false,
      "t": 184800,
      "d": 595,
      "v": 72
    },
    {
      "midi": 52,
      "hit": false,
      "t": 185100,
      "d": 295,
      "v": 72
    },
    {
      "midi": 57,
      "hit": false,
      "t": 185400,
      "d": 295,
      "v": 72
    },
    {
      "midi": 61,
      "hit": false,
      "t": 185400,
      "d": 595,
      "v": 72
    },
    {
      "midi": 73,
      "hit": false,
      "t": 185400,
      "d": 595,
      "v": 72
    },
    {
      "midi": 45,
      "hit": false,
      "t": 185700,
      "d": 295,
      "v": 72
    },
    {
      "midi": 47,
      "hit": false,
      "t": 186000,
      "d": 595,
      "v": 72
    },
    {
      "midi": 59,
      "hit": false,
      "t": 186000,
      "d": 595,
      "v": 72
    },
    {
      "midi": 63,
      "hit": false,
      "t": 186000,
      "d": 595,
      "v": 72
    },
    {
      "midi": 66,
      "hit": false,
      "t": 186000,
      "d": 595,
      "v": 72
    },
    {
      "midi": 56,
      "hit": false,
      "t": 186900,
      "d": 295,
      "v": 72
    },
    {
      "midi": 59,
      "hit": false,
      "t": 186900,
      "d": 295,
      "v": 72
    },
    {
      "midi": 64,
      "hit": false,
      "t": 186900,
      "d": 295,
      "v": 72
    },
    {
      "midi": 57,
      "hit": false,
      "t": 187200,
      "d": 295,
      "v": 72
    },
    {
      "midi": 61,
      "hit": false,
      "t": 187200,
      "d": 295,
      "v": 72
    },
    {
      "midi": 66,
      "hit": false,
      "t": 187200,
      "d": 295,
      "v": 72
    },
    {
      "midi": 56,
      "hit": false,
      "t": 187500,
      "d": 295,
      "v": 72
    },
    {
      "midi": 59,
      "hit": false,
      "t": 187500,
      "d": 295,
      "v": 72
    },
    {
      "midi": 64,
      "hit": false,
      "t": 187500,
      "d": 295,
      "v": 72
    },
    {
      "midi": 57,
      "hit": false,
      "t": 187800,
      "d": 295,
      "v": 72
    },
    {
      "midi": 61,
      "hit": false,
      "t": 187800,
      "d": 295,
      "v": 72
    },
    {
      "midi": 66,
      "hit": false,
      "t": 187800,
      "d": 295,
      "v": 72
    },
    {
      "midi": 56,
      "hit": false,
      "t": 188100,
      "d": 295,
      "v": 72
    },
    {
      "midi": 59,
      "hit": false,
      "t": 188100,
      "d": 295,
      "v": 72
    },
    {
      "midi": 64,
      "hit": false,
      "t": 188100,
      "d": 295,
      "v": 72
    },
    {
      "midi": 57,
      "hit": false,
      "t": 188400,
      "d": 295,
      "v": 72
    },
    {
      "midi": 61,
      "hit": false,
      "t": 188400,
      "d": 295,
      "v": 72
    },
    {
      "midi": 66,
      "hit": false,
      "t": 188400,
      "d": 295,
      "v": 72
    },
    {
      "midi": 56,
      "hit": false,
      "t": 188700,
      "d": 295,
      "v": 72
    },
    {
      "midi": 59,
      "hit": false,
      "t": 188700,
      "d": 295,
      "v": 72
    },
    {
      "midi": 64,
      "hit": false,
      "t": 188700,
      "d": 295,
      "v": 72
    },
    {
      "midi": 52,
      "hit": false,
      "t": 189300,
      "d": 295,
      "v": 72
    },
    {
      "midi": 59,
      "hit": false,
      "t": 189300,
      "d": 295,
      "v": 72
    },
    {
      "midi": 64,
      "hit": false,
      "t": 189300,
      "d": 295,
      "v": 72
    },
    {
      "midi": 68,
      "hit": false,
      "t": 189300,
      "d": 295,
      "v": 72
    },
    {
      "midi": 54,
      "hit": false,
      "t": 189600,
      "d": 295,
      "v": 72
    },
    {
      "midi": 63,
      "hit": false,
      "t": 189600,
      "d": 295,
      "v": 72
    },
    {
      "midi": 69,
      "hit": false,
      "t": 189600,
      "d": 295,
      "v": 72
    },
    {
      "midi": 52,
      "hit": false,
      "t": 189900,
      "d": 295,
      "v": 72
    },
    {
      "midi": 64,
      "hit": false,
      "t": 189900,
      "d": 295,
      "v": 72
    },
    {
      "midi": 68,
      "hit": false,
      "t": 189900,
      "d": 295,
      "v": 72
    },
    {
      "midi": 54,
      "hit": false,
      "t": 190200,
      "d": 295,
      "v": 72
    },
    {
      "midi": 63,
      "hit": false,
      "t": 190200,
      "d": 295,
      "v": 72
    },
    {
      "midi": 69,
      "hit": false,
      "t": 190200,
      "d": 295,
      "v": 72
    },
    {
      "midi": 52,
      "hit": false,
      "t": 190500,
      "d": 295,
      "v": 72
    },
    {
      "midi": 64,
      "hit": false,
      "t": 190500,
      "d": 295,
      "v": 72
    },
    {
      "midi": 68,
      "hit": false,
      "t": 190500,
      "d": 295,
      "v": 72
    },
    {
      "midi": 54,
      "hit": false,
      "t": 190800,
      "d": 295,
      "v": 72
    },
    {
      "midi": 63,
      "hit": false,
      "t": 190800,
      "d": 295,
      "v": 72
    },
    {
      "midi": 69,
      "hit": false,
      "t": 190800,
      "d": 295,
      "v": 72
    },
    {
      "midi": 52,
      "hit": false,
      "t": 191100,
      "d": 295,
      "v": 72
    },
    {
      "midi": 64,
      "hit": false,
      "t": 191100,
      "d": 295,
      "v": 72
    },
    {
      "midi": 68,
      "hit": false,
      "t": 191100,
      "d": 295,
      "v": 72
    },
    {
      "midi": 59,
      "hit": false,
      "t": 194100,
      "d": 295,
      "v": 72
    },
    {
      "midi": 63,
      "hit": false,
      "t": 194100,
      "d": 295,
      "v": 72
    },
    {
      "midi": 66,
      "hit": false,
      "t": 194100,
      "d": 295,
      "v": 72
    },
    {
      "midi": 71,
      "hit": false,
      "t": 194100,
      "d": 595,
      "v": 72
    },
    {
      "midi": 64,
      "hit": false,
      "t": 194400,
      "d": 295,
      "v": 72
    },
    {
      "midi": 68,
      "hit": false,
      "t": 194400,
      "d": 295,
      "v": 72
    },
    {
      "midi": 57,
      "hit": false,
      "t": 194700,
      "d": 295,
      "v": 72
    },
    {
      "midi": 73,
      "hit": false,
      "t": 194700,
      "d": 295,
      "v": 72
    },
    {
      "midi": 64,
      "hit": false,
      "t": 194700,
      "d": 595,
      "v": 72
    },
    {
      "midi": 59,
      "hit": false,
      "t": 195000,
      "d": 295,
      "v": 72
    },
    {
      "midi": 66,
      "hit": false,
      "t": 195000,
      "d": 595,
      "v": 72
    },
    {
      "midi": 47,
      "hit": false,
      "t": 195300,
      "d": 295,
      "v": 72
    },
    {
      "midi": 63,
      "hit": false,
      "t": 195300,
      "d": 295,
      "v": 72
    },
    {
      "midi": 52,
      "hit": false,
      "t": 195600,
      "d": 595,
      "v": 72
    },
    {
      "midi": 59,
      "hit": false,
      "t": 195600,
      "d": 595,
      "v": 72
    },
    {
      "midi": 64,
      "hit": false,
      "t": 195600,
      "d": 595,
      "v": 72
    },
    {
      "midi": 68,
      "hit": false,
      "t": 195600,
      "d": 595,
      "v": 72
    },
    {
      "midi": 47,
      "hit": false,
      "t": 198900,
      "d": 295,
      "v": 72
    },
    {
      "midi": 66,
      "hit": false,
      "t": 198900,
      "d": 295,
      "v": 72
    },
    {
      "midi": 71,
      "hit": false,
      "t": 198900,
      "d": 295,
      "v": 72
    },
    {
      "midi": 75,
      "hit": false,
      "t": 198900,
      "d": 295,
      "v": 72
    },
    {
      "midi": 52,
      "hit": false,
      "t": 199200,
      "d": 295,
      "v": 72
    },
    {
      "midi": 68,
      "hit": false,
      "t": 199200,
      "d": 295,
      "v": 72
    },
    {
      "midi": 71,
      "hit": false,
      "t": 199200,
      "d": 295,
      "v": 72
    },
    {
      "midi": 76,
      "hit": false,
      "t": 199200,
      "d": 895,
      "v": 72
    },
    {
      "midi": 45,
      "hit": false,
      "t": 199500,
      "d": 295,
      "v": 72
    },
    {
      "midi": 69,
      "hit": false,
      "t": 199500,
      "d": 295,
      "v": 72
    },
    {
      "midi": 73,
      "hit": false,
      "t": 199500,
      "d": 295,
      "v": 72
    },
    {
      "midi": 47,
      "hit": false,
      "t": 199800,
      "d": 595,
      "v": 72
    },
    {
      "midi": 66,
      "hit": false,
      "t": 199800,
      "d": 595,
      "v": 72
    },
    {
      "midi": 71,
      "hit": false,
      "t": 199800,
      "d": 595,
      "v": 72
    },
    {
      "midi": 75,
      "hit": false,
      "t": 200100,
      "d": 295,
      "v": 72
    },
    {
      "midi": 40,
      "hit": false,
      "t": 200400,
      "d": 595,
      "v": 72
    },
    {
      "midi": 68,
      "hit": false,
      "t": 200400,
      "d": 595,
      "v": 72
    },
    {
      "midi": 71,
      "hit": false,
      "t": 200400,
      "d": 595,
      "v": 72
    },
    {
      "midi": 76,
      "hit": false,
      "t": 200400,
      "d": 595,
      "v": 72
    }
  ]
}