{
  "jsonPath": "World/Chanson/Patricia Kaas/mon-mec-a-moi.json",
  "path": "World\\Chanson\\Patricia Kaas\\Mon Mec A Moi.mid",
  "name": "Mon Mec A Moi",
  "difficulty": "Advanced",
  "bpm": 101.00006901671382,
  "notes": [
    {
      "midi": 63,
      "hit": false,
      "t": 2370.0478854166668,
      "d": 538.3659687500003,
      "v": 60
    },
    {
      "midi": 60,
      "hit": false,
      "t": 2370.0478854166668,
      "d": 563.1184270833337,
      "v": 83
    },
    {
      "midi": 79,
      "hit": false,
      "t": 2376.2360000000003,
      "d": 396.0393333333318,
      "v": 104
    },
    {
      "midi": 55,
      "hit": false,
      "t": 2376.2360000000003,
      "d": 1751.2364270833336,
      "v": 33
    },
    {
      "midi": 67,
      "hit": false,
      "t": 2394.80034375,
      "d": 1751.236427083334,
      "v": 71
    },
    {
      "midi": 36,
      "hit": false,
      "t": 2394.80034375,
      "d": 2370.047885416666,
      "v": 49
    },
    {
      "midi": 48,
      "hit": false,
      "t": 2394.80034375,
      "d": 2382.424114583332,
      "v": 61
    },
    {
      "midi": 87,
      "hit": false,
      "t": 2772.275333333332,
      "d": 1336.6327499999989,
      "v": 77
    },
    {
      "midi": 55,
      "hit": false,
      "t": 2964.106885416667,
      "d": 587.8708854166666,
      "v": 72
    },
    {
      "midi": 63,
      "hit": false,
      "t": 3558.1658854166667,
      "d": 538.3659687499999,
      "v": 57
    },
    {
      "midi": 60,
      "hit": false,
      "t": 3558.1658854166667,
      "d": 575.4946562499995,
      "v": 79
    },
    {
      "midi": 78,
      "hit": false,
      "t": 4121.284312499997,
      "d": 414.6036770833307,
      "v": 77
    },
    {
      "midi": 56,
      "hit": false,
      "t": 4146.036770833334,
      "d": 371.2868749999998,
      "v": 30
    },
    {
      "midi": 55,
      "hit": false,
      "t": 4152.224885416666,
      "d": 433.1680208333337,
      "v": 83
    },
    {
      "midi": 68,
      "hit": false,
      "t": 4164.601114583334,
      "d": 389.85121874999913,
      "v": 55
    },
    {
      "midi": 77,
      "hit": false,
      "t": 4535.887989583328,
      "d": 1138.6130833333336,
      "v": 76
    },
    {
      "midi": 58,
      "hit": false,
      "t": 4535.887989583333,
      "d": 216.5840104166664,
      "v": 22
    },
    {
      "midi": 70,
      "hit": false,
      "t": 4542.0761041666665,
      "d": 241.33646874999886,
      "v": 55
    },
    {
      "midi": 59,
      "hit": false,
      "t": 4746.283885416667,
      "d": 550.7421979166675,
      "v": 66
    },
    {
      "midi": 62,
      "hit": false,
      "t": 4746.283885416667,
      "d": 550.7421979166675,
      "v": 72
    },
    {
      "midi": 35,
      "hit": false,
      "t": 4752.472,
      "d": 2419.552802083329,
      "v": 41
    },
    {
      "midi": 59,
      "hit": false,
      "t": 4771.036343749999,
      "d": 2221.5331354166638,
      "v": 35
    },
    {
      "midi": 47,
      "hit": false,
      "t": 4789.6006874999985,
      "d": 2388.6122291666634,
      "v": 27
    },
    {
      "midi": 71,
      "hit": false,
      "t": 4795.788802083332,
      "d": 2345.2954270833316,
      "v": 46
    },
    {
      "midi": 55,
      "hit": false,
      "t": 5340.342885416668,
      "d": 594.0590000000002,
      "v": 74
    },
    {
      "midi": 59,
      "hit": false,
      "t": 5934.401885416668,
      "d": 396.03933333333316,
      "v": 65
    },
    {
      "midi": 62,
      "hit": false,
      "t": 5934.401885416668,
      "d": 402.2274479166663,
      "v": 66
    },
    {
      "midi": 79,
      "hit": false,
      "t": 6330.441218749989,
      "d": 92.8217187500004,
      "v": 79
    },
    {
      "midi": 86,
      "hit": false,
      "t": 6528.460885416656,
      "d": 358.910645833329,
      "v": 88
    },
    {
      "midi": 60,
      "hit": false,
      "t": 6726.480552083334,
      "d": 167.07909374999963,
      "v": 79
    },
    {
      "midi": 63,
      "hit": false,
      "t": 6726.480552083334,
      "d": 198.01966666666613,
      "v": 73
    },
    {
      "midi": 61,
      "hit": false,
      "t": 6924.50021875,
      "d": 204.20778125000015,
      "v": 54
    },
    {
      "midi": 64,
      "hit": false,
      "t": 6924.50021875,
      "d": 247.5245833333338,
      "v": 68
    },
    {
      "midi": 83,
      "hit": false,
      "t": 6930.688333333319,
      "d": 1113.8606249999966,
      "v": 68
    },
    {
      "midi": 65,
      "hit": false,
      "t": 7122.519885416667,
      "d": 488.86105208333356,
      "v": 60
    },
    {
      "midi": 62,
      "hit": false,
      "t": 7122.519885416667,
      "d": 556.9303125000006,
      "v": 66
    },
    {
      "midi": 77,
      "hit": false,
      "t": 7141.084229166663,
      "d": 1751.2364270833314,
      "v": 51
    },
    {
      "midi": 31,
      "hit": false,
      "t": 7147.272343749996,
      "d": 2345.2954270833334,
      "v": 39
    },
    {
      "midi": 43,
      "hit": false,
      "t": 7159.6485729166625,
      "d": 2388.6122291666697,
      "v": 28
    },
    {
      "midi": 65,
      "hit": false,
      "t": 7172.024802083329,
      "d": 1751.2364270833323,
      "v": 10
    },
    {
      "midi": 55,
      "hit": false,
      "t": 7716.578885416668,
      "d": 532.1778541666663,
      "v": 66
    },
    {
      "midi": 79,
      "hit": false,
      "t": 8075.489531249981,
      "d": 792.0786666666645,
      "v": 82
    },
    {
      "midi": 65,
      "hit": false,
      "t": 8310.637885416667,
      "d": 587.8708854166671,
      "v": 71
    },
    {
      "midi": 62,
      "hit": false,
      "t": 8310.637885416667,
      "d": 631.1876875000016,
      "v": 66
    },
    {
      "midi": 75,
      "hit": false,
      "t": 8886.132541666646,
      "d": 358.9106458333317,
      "v": 64
    },
    {
      "midi": 79,
      "hit": false,
      "t": 8892.320656249994,
      "d": 569.3065416666668,
      "v": 41
    },
    {
      "midi": 55,
      "hit": false,
      "t": 8904.696885416668,
      "d": 612.6233437500014,
      "v": 72
    },
    {
      "midi": 67,
      "hit": false,
      "t": 8923.261229166661,
      "d": 575.4946562500027,
      "v": 37
    },
    {
      "midi": 74,
      "hit": false,
      "t": 9226.478843749977,
      "d": 841.5835833333331,
      "v": 78
    },
    {
      "midi": 77,
      "hit": false,
      "t": 9467.815312499995,
      "d": 1262.375375000005,
      "v": 32
    },
    {
      "midi": 36,
      "hit": false,
      "t": 9474.00342708333,
      "d": 2481.433947916672,
      "v": 50
    },
    {
      "midi": 62,
      "hit": false,
      "t": 9498.75588541667,
      "d": 804.4548958333344,
      "v": 66
    },
    {
      "midi": 65,
      "hit": false,
      "t": 9498.75588541667,
      "d": 816.8311250000006,
      "v": 73
    },
    {
      "midi": 65,
      "hit": false,
      "t": 9504.943999999998,
      "d": 1200.4942291666684,
      "v": 38
    },
    {
      "midi": 48,
      "hit": false,
      "t": 9542.072687499998,
      "d": 2233.9093645833345,
      "v": 27
    },
    {
      "midi": 72,
      "hit": false,
      "t": 10080.438656249977,
      "d": 303.21761458333276,
      "v": 75
    },
    {
      "midi": 55,
      "hit": false,
      "t": 10092.81488541667,
      "d": 167.07909375000054,
      "v": 76
    },
    {
      "midi": 79,
      "hit": false,
      "t": 10457.913645833309,
      "d": 922.0290729166627,
      "v": 80
    },
    {
      "midi": 59,
      "hit": false,
      "t": 10488.854218750002,
      "d": 204.20778125000106,
      "v": 70
    },
    {
      "midi": 62,
      "hit": false,
      "t": 10488.854218750002,
      "d": 228.96023958333353,
      "v": 76
    },
    {
      "midi": 63,
      "hit": false,
      "t": 10686.87388541667,
      "d": 624.9995729166676,
      "v": 52
    },
    {
      "midi": 60,
      "hit": false,
      "t": 10686.87388541667,
      "d": 637.3758020833338,
      "v": 69
    },
    {
      "midi": 75,
      "hit": false,
      "t": 10705.438229166666,
      "d": 1188.1180000000004,
      "v": 37
    },
    {
      "midi": 63,
      "hit": false,
      "t": 10711.62634375,
      "d": 1194.3061145833344,
      "v": 33
    },
    {
      "midi": 55,
      "hit": false,
      "t": 11280.93288541667,
      "d": 142.32663541666625,
      "v": 69
    },
    {
      "midi": 72,
      "hit": false,
      "t": 11664.595989583302,
      "d": 111.38606249999975,
      "v": 75
    },
    {
      "midi": 64,
      "hit": false,
      "t": 11874.99188541667,
      "d": 513.613510416666,
      "v": 68
    },
    {
      "midi": 67,
      "hit": false,
      "t": 11874.99188541667,
      "d": 532.1778541666663,
      "v": 72
    },
    {
      "midi": 52,
      "hit": false,
      "t": 11887.368114583332,
      "d": 2363.8597708333436,
      "v": 38
    },
    {
      "midi": 79,
      "hit": false,
      "t": 11893.556229166636,
      "d": 371.2868749999998,
      "v": 92
    },
    {
      "midi": 79,
      "hit": false,
      "t": 11893.556229166667,
      "d": 1200.494229166672,
      "v": 38
    },
    {
      "midi": 67,
      "hit": false,
      "t": 11899.74434375,
      "d": 1150.9893125000035,
      "v": 35
    },
    {
      "midi": 40,
      "hit": false,
      "t": 11905.932458333335,
      "d": 2394.8003437500083,
      "v": 51
    },
    {
      "midi": 91,
      "hit": false,
      "t": 11961.625489583335,
      "d": 7079.2030833333465,
      "v": 20
    },
    {
      "midi": 76,
      "hit": false,
      "t": 12289.595562499968,
      "d": 198.01966666666704,
      "v": 67
    },
    {
      "midi": 60,
      "hit": false,
      "t": 12469.05088541667,
      "d": 105.19794791666754,
      "v": 83
    },
    {
      "midi": 72,
      "hit": false,
      "t": 12506.179572916635,
      "d": 290.8413854166665,
      "v": 82
    },
    {
      "midi": 84,
      "hit": false,
      "t": 12809.397187499968,
      "d": 1163.3655416666625,
      "v": 66
    },
    {
      "midi": 72,
      "hit": false,
      "t": 13063.10988541667,
      "d": 618.8114583333336,
      "v": 67
    },
    {
      "midi": 67,
      "hit": false,
      "t": 13063.10988541667,
      "d": 779.7024375000001,
      "v": 61
    },
    {
      "midi": 64,
      "hit": false,
      "t": 13069.298000000004,
      "d": 810.6430104166666,
      "v": 57
    },
    {
      "midi": 72,
      "hit": false,
      "t": 13087.862343750005,
      "d": 594.0590000000011,
      "v": 38
    },
    {
      "midi": 84,
      "hit": false,
      "t": 13087.862343750005,
      "d": 600.2471145833351,
      "v": 51
    },
    {
      "midi": 70,
      "hit": false,
      "t": 13657.168885416671,
      "d": 204.20778124999924,
      "v": 56
    },
    {
      "midi": 82,
      "hit": false,
      "t": 13688.10945833334,
      "d": 1738.8601979166706,
      "v": 29
    },
    {
      "midi": 70,
      "hit": false,
      "t": 13694.297572916674,
      "d": 1107.672510416669,
      "v": 37
    },
    {
      "midi": 94,
      "hit": false,
      "t": 13700.485687500008,
      "d": 538.3659687500003,
      "v": 22
    },
    {
      "midi": 79,
      "hit": false,
      "t": 13991.32707291663,
      "d": 606.4352291666637,
      "v": 80
    },
    {
      "midi": 53,
      "hit": false,
      "t": 14245.039770833342,
      "d": 2363.859770833338,
      "v": 28
    },
    {
      "midi": 65,
      "hit": false,
      "t": 14251.22788541667,
      "d": 550.7421979166666,
      "v": 66
    },
    {
      "midi": 70,
      "hit": false,
      "t": 14251.22788541667,
      "d": 550.7421979166666,
      "v": 57
    },
    {
      "midi": 60,
      "hit": false,
      "t": 14257.416000000005,
      "d": 569.306541666665,
      "v": 66
    },
    {
      "midi": 41,
      "hit": false,
      "t": 14282.168458333343,
      "d": 2419.5528020833353,
      "v": 49
    },
    {
      "midi": 94,
      "hit": false,
      "t": 14319.297145833343,
      "d": 1076.7319375000006,
      "v": 32
    },
    {
      "midi": 80,
      "hit": false,
      "t": 14647.267218749961,
      "d": 191.831552083333,
      "v": 73
    },
    {
      "midi": 76,
      "hit": false,
      "t": 14870.03934374996,
      "d": 99.00983333333352,
      "v": 70
    },
    {
      "midi": 79,
      "hit": false,
      "t": 15018.55409374996,
      "d": 154.70286458333248,
      "v": 88
    },
    {
      "midi": 77,
      "hit": false,
      "t": 15148.50449999996,
      "d": 92.82171874999949,
      "v": 79
    },
    {
      "midi": 72,
      "hit": false,
      "t": 15266.078677083293,
      "d": 86.63360416666728,
      "v": 61
    },
    {
      "midi": 68,
      "hit": false,
      "t": 15389.84096875001,
      "d": 1287.1278333333357,
      "v": 38
    },
    {
      "midi": 68,
      "hit": false,
      "t": 15414.593427083293,
      "d": 148.51475000000028,
      "v": 73
    },
    {
      "midi": 92,
      "hit": false,
      "t": 15420.781541666676,
      "d": 1274.7516041666695,
      "v": 29
    },
    {
      "midi": 80,
      "hit": false,
      "t": 15433.157770833344,
      "d": 1225.246687500001,
      "v": 30
    },
    {
      "midi": 60,
      "hit": false,
      "t": 15439.34588541667,
      "d": 470.2967083333351,
      "v": 57
    },
    {
      "midi": 65,
      "hit": false,
      "t": 15439.34588541667,
      "d": 569.3065416666686,
      "v": 63
    },
    {
      "midi": 68,
      "hit": false,
      "t": 15445.534000000003,
      "d": 606.4352291666673,
      "v": 51
    },
    {
      "midi": 67,
      "hit": false,
      "t": 15594.04874999996,
      "d": 185.6434375000008,
      "v": 62
    },
    {
      "midi": 65,
      "hit": false,
      "t": 15798.256531249961,
      "d": 408.4155625000003,
      "v": 58
    },
    {
      "midi": 60,
      "hit": false,
      "t": 16033.40488541667,
      "d": 160.8909791666665,
      "v": 83
    },
    {
      "midi": 66,
      "hit": false,
      "t": 16627.46388541663,
      "d": 525.9897395833323,
      "v": 84
    },
    {
      "midi": 69,
      "hit": false,
      "t": 16627.46388541667,
      "d": 501.23728125000343,
      "v": 71
    },
    {
      "midi": 66,
      "hit": false,
      "t": 16627.46388541667,
      "d": 525.9897395833359,
      "v": 54
    },
    {
      "midi": 81,
      "hit": false,
      "t": 16627.46388541668,
      "d": 1813.1175729166644,
      "v": 40
    },
    {
      "midi": 54,
      "hit": false,
      "t": 16633.652000000013,
      "d": 2376.236000000001,
      "v": 26
    },
    {
      "midi": 69,
      "hit": false,
      "t": 16670.780687500013,
      "d": 1745.0483124999992,
      "v": 44
    },
    {
      "midi": 42,
      "hit": false,
      "t": 16670.780687500013,
      "d": 2400.9884583333333,
      "v": 32
    },
    {
      "midi": 93,
      "hit": false,
      "t": 16689.345031250014,
      "d": 1726.483968749999,
      "v": 31
    },
    {
      "midi": 69,
      "hit": false,
      "t": 16967.810187499963,
      "d": 204.20778124999924,
      "v": 76
    },
    {
      "midi": 72,
      "hit": false,
      "t": 17196.770427083295,
      "d": 272.2770416666681,
      "v": 80
    },
    {
      "midi": 62,
      "hit": false,
      "t": 17221.52288541667,
      "d": 129.9504062499982,
      "v": 74
    },
    {
      "midi": 75,
      "hit": false,
      "t": 17537.11672916663,
      "d": 241.33646875000704,
      "v": 64
    },
    {
      "midi": 74,
      "hit": false,
      "t": 17778.45319791664,
      "d": 402.2274479166663,
      "v": 71
    },
    {
      "midi": 74,
      "hit": false,
      "t": 17815.58188541667,
      "d": 569.306541666665,
      "v": 66
    },
    {
      "midi": 69,
      "hit": false,
      "t": 17815.58188541667,
      "d": 761.1380937499962,
      "v": 67
    },
    {
      "midi": 66,
      "hit": false,
      "t": 17821.77,
      "d": 730.1975208333315,
      "v": 48
    },
    {
      "midi": 72,
      "hit": false,
      "t": 18193.056874999973,
      "d": 439.3561354166668,
      "v": 72
    },
    {
      "midi": 72,
      "hit": false,
      "t": 18409.640885416666,
      "d": 173.26720833333093,
      "v": 66
    },
    {
      "midi": 74,
      "hit": false,
      "t": 18428.20522916668,
      "d": 581.682770833333,
      "v": 37
    },
    {
      "midi": 86,
      "hit": false,
      "t": 18434.393343750013,
      "d": 569.3065416666686,
      "v": 28
    },
    {
      "midi": 98,
      "hit": false,
      "t": 18533.403177083346,
      "d": 470.2967083333351,
      "v": 1
    },
    {
      "midi": 74,
      "hit": false,
      "t": 18712.858499999973,
      "d": 129.9504062499982,
      "v": 76
    },
    {
      "midi": 75,
      "hit": false,
      "t": 18842.80890624997,
      "d": 117.57417708333378,
      "v": 60
    },
    {
      "midi": 55,
      "hit": false,
      "t": 18997.51177083335,
      "d": 1175.7417708333269,
      "v": 42
    },
    {
      "midi": 67,
      "hit": false,
      "t": 19003.699885416663,
      "d": 773.5143229166679,
      "v": 78
    },
    {
      "midi": 72,
      "hit": false,
      "t": 19003.699885416663,
      "d": 860.1479270833333,
      "v": 76
    },
    {
      "midi": 74,
      "hit": false,
      "t": 19009.88799999997,
      "d": 934.405302083338,
      "v": 73
    },
    {
      "midi": 79,
      "hit": false,
      "t": 19022.26422916668,
      "d": 6528.460885416644,
      "v": 32
    },
    {
      "midi": 67,
      "hit": false,
      "t": 19022.26422916668,
      "d": 7103.955541666652,
      "v": 38
    },
    {
      "midi": 43,
      "hit": false,
      "t": 19028.452343750014,
      "d": 1120.0487395833297,
      "v": 20
    },
    {
      "midi": 91,
      "hit": false,
      "t": 19047.016687500014,
      "d": 6522.272770833311,
      "v": 26
    },
    {
      "midi": 62,
      "hit": false,
      "t": 19597.758885416664,
      "d": 587.8708854166653,
      "v": 66
    },
    {
      "midi": 67,
      "hit": false,
      "t": 19987.610104166644,
      "d": 1243.8110312500212,
      "v": 69
    },
    {
      "midi": 43,
      "hit": false,
      "t": 20154.689197916676,
      "d": 80.44548958333326,
      "v": 29
    },
    {
      "midi": 31,
      "hit": false,
      "t": 20160.877312500008,
      "d": 1231.4348020833313,
      "v": 36
    },
    {
      "midi": 67,
      "hit": false,
      "t": 20191.81788541666,
      "d": 618.8114583333336,
      "v": 68
    },
    {
      "midi": 71,
      "hit": false,
      "t": 20191.81788541666,
      "d": 618.8114583333336,
      "v": 70
    },
    {
      "midi": 62,
      "hit": false,
      "t": 20785.876885416663,
      "d": 105.19794791666573,
      "v": 60
    },
    {
      "midi": 48,
      "hit": false,
      "t": 21361.371541666675,
      "d": 4474.00684374999,
      "v": 32
    },
    {
      "midi": 36,
      "hit": false,
      "t": 21367.559656250007,
      "d": 2394.800343750001,
      "v": 41
    },
    {
      "midi": 60,
      "hit": false,
      "t": 21379.935885416664,
      "d": 4746.283885416666,
      "v": 73
    },
    {
      "midi": 67,
      "hit": false,
      "t": 21379.935885416664,
      "d": 4746.283885416666,
      "v": 78
    },
    {
      "midi": 62,
      "hit": false,
      "t": 21386.123999999996,
      "d": 4740.0957708333335,
      "v": 80
    },
    {
      "midi": 63,
      "hit": false,
      "t": 21386.123999999996,
      "d": 4740.0957708333335,
      "v": 79
    },
    {
      "midi": 36,
      "hit": false,
      "t": 23762.360000000008,
      "d": 1986.384781249988,
      "v": 29
    },
    {
      "midi": 55,
      "hit": false,
      "t": 26132.407885416662,
      "d": 2134.899531250001,
      "v": 63
    },
    {
      "midi": 63,
      "hit": false,
      "t": 26132.407885416662,
      "d": 2165.8401041666693,
      "v": 69
    },
    {
      "midi": 60,
      "hit": false,
      "t": 26138.595999999994,
      "d": 2128.711416666669,
      "v": 86
    },
    {
      "midi": 55,
      "hit": false,
      "t": 28508.643885416666,
      "d": 2029.7015833333317,
      "v": 69
    },
    {
      "midi": 62,
      "hit": false,
      "t": 28508.643885416666,
      "d": 2042.0778124999997,
      "v": 85
    },
    {
      "midi": 59,
      "hit": false,
      "t": 28514.832,
      "d": 2017.3253541666672,
      "v": 79
    },
    {
      "midi": 55,
      "hit": false,
      "t": 30884.879885416667,
      "d": 2029.701583333328,
      "v": 76
    },
    {
      "midi": 65,
      "hit": false,
      "t": 30884.879885416667,
      "d": 2048.2659270833246,
      "v": 80
    },
    {
      "midi": 59,
      "hit": false,
      "t": 30891.068,
      "d": 2011.1372395833314,
      "v": 79
    },
    {
      "midi": 62,
      "hit": false,
      "t": 30891.068,
      "d": 2023.5134687499958,
      "v": 80
    },
    {
      "midi": 55,
      "hit": false,
      "t": 33261.11588541666,
      "d": 2196.780677083334,
      "v": 72
    },
    {
      "midi": 63,
      "hit": false,
      "t": 33261.11588541666,
      "d": 2196.780677083334,
      "v": 77
    },
    {
      "midi": 60,
      "hit": false,
      "t": 33267.30399999999,
      "d": 2190.592562500002,
      "v": 92
    },
    {
      "midi": 60,
      "hit": false,
      "t": 35637.351885416654,
      "d": 1336.632749999997,
      "v": 92
    },
    {
      "midi": 55,
      "hit": false,
      "t": 35637.351885416654,
      "d": 1349.0089791666614,
      "v": 73
    },
    {
      "midi": 63,
      "hit": false,
      "t": 35643.539999999986,
      "d": 1355.1970937499937,
      "v": 81
    },
    {
      "midi": 63,
      "hit": false,
      "t": 37419.52888541665,
      "d": 389.8512187499946,
      "v": 84
    },
    {
      "midi": 60,
      "hit": false,
      "t": 37419.52888541665,
      "d": 408.4155624999912,
      "v": 107
    },
    {
      "midi": 55,
      "hit": false,
      "t": 37425.71699999998,
      "d": 365.09876041666575,
      "v": 73
    },
    {
      "midi": 55,
      "hit": false,
      "t": 37815.56821874998,
      "d": 2073.018385416668,
      "v": 90
    },
    {
      "midi": 59,
      "hit": false,
      "t": 37815.56821874998,
      "d": 2085.3946145833324,
      "v": 80
    },
    {
      "midi": 62,
      "hit": false,
      "t": 37821.75633333331,
      "d": 2091.5827291666646,
      "v": 64
    },
    {
      "midi": 59,
      "hit": false,
      "t": 40389.82388541664,
      "d": 2147.275760416669,
      "v": 79
    },
    {
      "midi": 55,
      "hit": false,
      "t": 40389.82388541664,
      "d": 2209.1569062500057,
      "v": 74
    },
    {
      "midi": 62,
      "hit": false,
      "t": 40396.01199999997,
      "d": 2258.6618229166706,
      "v": 78
    },
    {
      "midi": 65,
      "hit": false,
      "t": 40396.01199999997,
      "d": 2283.4142812500068,
      "v": 79
    },
    {
      "midi": 55,
      "hit": false,
      "t": 42766.059885416646,
      "d": 1949.256093750002,
      "v": 72
    },
    {
      "midi": 63,
      "hit": false,
      "t": 42766.059885416646,
      "d": 1980.1966666666704,
      "v": 81
    },
    {
      "midi": 60,
      "hit": false,
      "t": 42772.24799999998,
      "d": 1986.3847812500026,
      "v": 88
    },
    {
      "midi": 56,
      "hit": false,
      "t": 45142.29588541665,
      "d": 2029.7015833333353,
      "v": 81
    },
    {
      "midi": 68,
      "hit": false,
      "t": 45142.29588541665,
      "d": 2029.7015833333353,
      "v": 75
    },
    {
      "midi": 60,
      "hit": false,
      "t": 45148.48399999998,
      "d": 1986.3847812500026,
      "v": 90
    },
    {
      "midi": 63,
      "hit": false,
      "t": 45148.48399999998,
      "d": 1986.3847812500026,
      "v": 71
    },
    {
      "midi": 55,
      "hit": false,
      "t": 47518.531885416654,
      "d": 2079.2065000000002,
      "v": 76
    },
    {
      "midi": 67,
      "hit": false,
      "t": 47518.531885416654,
      "d": 2097.770843749997,
      "v": 72
    },
    {
      "midi": 63,
      "hit": false,
      "t": 47524.71999999999,
      "d": 2073.018385416668,
      "v": 64
    },
    {
      "midi": 60,
      "hit": false,
      "t": 47524.71999999999,
      "d": 2091.5827291666646,
      "v": 88
    },
    {
      "midi": 60,
      "hit": false,
      "t": 49894.76788541665,
      "d": 1992.5728958333348,
      "v": 86
    },
    {
      "midi": 65,
      "hit": false,
      "t": 49894.76788541665,
      "d": 2011.1372395833314,
      "v": 74
    },
    {
      "midi": 56,
      "hit": false,
      "t": 49900.955999999984,
      "d": 2004.9491249999992,
      "v": 63
    },
    {
      "midi": 63,
      "hit": false,
      "t": 49900.955999999984,
      "d": 2004.9491249999992,
      "v": 60
    },
    {
      "midi": 55,
      "hit": false,
      "t": 52271.00388541665,
      "d": 2017.3253541666636,
      "v": 79
    },
    {
      "midi": 67,
      "hit": false,
      "t": 52271.00388541665,
      "d": 2060.6421562499963,
      "v": 74
    },
    {
      "midi": 60,
      "hit": false,
      "t": 52277.19199999998,
      "d": 2035.8896979166675,
      "v": 92
    },
    {
      "midi": 62,
      "hit": false,
      "t": 52277.19199999998,
      "d": 2035.8896979166675,
      "v": 79
    },
    {
      "midi": 67,
      "hit": false,
      "t": 54647.239885416646,
      "d": 2159.6519895833335,
      "v": 75
    },
    {
      "midi": 59,
      "hit": false,
      "t": 54647.239885416646,
      "d": 2172.028218749998,
      "v": 76
    },
    {
      "midi": 62,
      "hit": false,
      "t": 54653.42799999998,
      "d": 2172.028218749998,
      "v": 79
    },
    {
      "midi": 63,
      "hit": false,
      "t": 57023.47588541664,
      "d": 167.07909374999872,
      "v": 50
    },
    {
      "midi": 55,
      "hit": false,
      "t": 57023.47588541664,
      "d": 179.45532291666314,
      "v": 60
    },
    {
      "midi": 60,
      "hit": false,
      "t": 57029.663999999975,
      "d": 160.8909791666665,
      "v": 76
    },
    {
      "midi": 60,
      "hit": false,
      "t": 57617.53488541664,
      "d": 191.83155208333483,
      "v": 85
    },
    {
      "midi": 55,
      "hit": false,
      "t": 57617.53488541664,
      "d": 210.39589583333145,
      "v": 67
    },
    {
      "midi": 63,
      "hit": false,
      "t": 57623.72299999997,
      "d": 185.64343750000262,
      "v": 64
    },
    {
      "midi": 60,
      "hit": false,
      "t": 58211.59388541664,
      "d": 160.8909791666665,
      "v": 83
    },
    {
      "midi": 55,
      "hit": false,
      "t": 58211.59388541664,
      "d": 173.26720833333093,
      "v": 66
    },
    {
      "midi": 63,
      "hit": false,
      "t": 58217.78199999997,
      "d": 167.07909374999872,
      "v": 64
    },
    {
      "midi": 60,
      "hit": false,
      "t": 58805.65288541664,
      "d": 167.07909374999872,
      "v": 86
    },
    {
      "midi": 55,
      "hit": false,
      "t": 58805.65288541664,
      "d": 198.01966666665976,
      "v": 70
    },
    {
      "midi": 63,
      "hit": false,
      "t": 58811.84099999997,
      "d": 179.45532291666314,
      "v": 66
    },
    {
      "midi": 53,
      "hit": false,
      "t": 59399.71188541663,
      "d": 179.45532291666314,
      "v": 68
    },
    {
      "midi": 62,
      "hit": false,
      "t": 59399.71188541663,
      "d": 191.83155208332755,
      "v": 75
    },
    {
      "midi": 59,
      "hit": false,
      "t": 59405.899999999965,
      "d": 173.26720833333093,
      "v": 75
    },
    {
      "midi": 53,
      "hit": false,
      "t": 59993.77088541663,
      "d": 198.01966666665976,
      "v": 71
    },
    {
      "midi": 62,
      "hit": false,
      "t": 59993.77088541663,
      "d": 198.01966666665976,
      "v": 75
    },
    {
      "midi": 59,
      "hit": false,
      "t": 59999.95899999996,
      "d": 173.26720833333093,
      "v": 73
    },
    {
      "midi": 53,
      "hit": false,
      "t": 60587.82988541662,
      "d": 173.26720833333093,
      "v": 68
    },
    {
      "midi": 62,
      "hit": false,
      "t": 60587.82988541662,
      "d": 173.26720833333093,
      "v": 75
    },
    {
      "midi": 59,
      "hit": false,
      "t": 60594.01799999995,
      "d": 148.5147500000021,
      "v": 75
    },
    {
      "midi": 59,
      "hit": false,
      "t": 61181.88888541662,
      "d": 136.1385208333304,
      "v": 68
    },
    {
      "midi": 53,
      "hit": false,
      "t": 61181.88888541662,
      "d": 154.70286458332703,
      "v": 66
    },
    {
      "midi": 62,
      "hit": false,
      "t": 61188.076999999954,
      "d": 160.89097916665924,
      "v": 69
    },
    {
      "midi": 59,
      "hit": false,
      "t": 61775.947885416615,
      "d": 185.64343749999534,
      "v": 66
    },
    {
      "midi": 65,
      "hit": false,
      "t": 61775.947885416615,
      "d": 185.64343749999534,
      "v": 66
    },
    {
      "midi": 62,
      "hit": false,
      "t": 61782.13599999995,
      "d": 179.45532291666314,
      "v": 67
    },
    {
      "midi": 59,
      "hit": false,
      "t": 62370.00688541661,
      "d": 191.83155208333483,
      "v": 69
    },
    {
      "midi": 65,
      "hit": false,
      "t": 62370.00688541661,
      "d": 191.83155208333483,
      "v": 69
    },
    {
      "midi": 62,
      "hit": false,
      "t": 62376.19499999994,
      "d": 185.64343750000262,
      "v": 67
    },
    {
      "midi": 62,
      "hit": false,
      "t": 62964.06588541661,
      "d": 160.89097916665924,
      "v": 66
    },
    {
      "midi": 65,
      "hit": false,
      "t": 62964.06588541661,
      "d": 160.89097916665924,
      "v": 72
    },
    {
      "midi": 59,
      "hit": false,
      "t": 62970.25399999994,
      "d": 136.1385208333304,
      "v": 71
    },
    {
      "midi": 53,
      "hit": false,
      "t": 63558.124885416604,
      "d": 185.64343749999534,
      "v": 66
    },
    {
      "midi": 55,
      "hit": false,
      "t": 63558.124885416604,
      "d": 191.83155208332755,
      "v": 67
    },
    {
      "midi": 59,
      "hit": false,
      "t": 63564.31299999994,
      "d": 179.45532291666314,
      "v": 71
    },
    {
      "midi": 62,
      "hit": false,
      "t": 63564.31299999994,
      "d": 185.64343749999534,
      "v": 68
    },
    {
      "midi": 53,
      "hit": false,
      "t": 64152.1838854166,
      "d": 173.26720833333093,
      "v": 66
    },
    {
      "midi": 55,
      "hit": false,
      "t": 64152.1838854166,
      "d": 173.26720833333093,
      "v": 67
    },
    {
      "midi": 59,
      "hit": false,
      "t": 64158.37199999993,
      "d": 167.07909374999872,
      "v": 70
    },
    {
      "midi": 62,
      "hit": false,
      "t": 64158.37199999993,
      "d": 185.64343749999534,
      "v": 73
    },
    {
      "midi": 53,
      "hit": false,
      "t": 64746.24288541659,
      "d": 198.01966666665976,
      "v": 69
    },
    {
      "midi": 55,
      "hit": false,
      "t": 64746.24288541659,
      "d": 198.01966666665976,
      "v": 67
    },
    {
      "midi": 59,
      "hit": false,
      "t": 64752.430999999924,
      "d": 173.26720833333093,
      "v": 70
    },
    {
      "midi": 62,
      "hit": false,
      "t": 64752.430999999924,
      "d": 191.83155208332755,
      "v": 72
    },
    {
      "midi": 60,
      "hit": false,
      "t": 65340.301885416586,
      "d": 179.45532291666314,
      "v": 90
    },
    {
      "midi": 55,
      "hit": false,
      "t": 65340.301885416586,
      "d": 222.7721249999886,
      "v": 74
    },
    {
      "midi": 63,
      "hit": false,
      "t": 65346.48999999992,
      "d": 198.01966666665976,
      "v": 68
    },
    {
      "midi": 53,
      "hit": false,
      "t": 65934.36088541658,
      "d": 204.20778124999197,
      "v": 69
    },
    {
      "midi": 59,
      "hit": false,
      "t": 65934.36088541658,
      "d": 204.20778124999197,
      "v": 71
    },
    {
      "midi": 55,
      "hit": false,
      "t": 65940.54899999991,
      "d": 198.01966666665976,
      "v": 78
    },
    {
      "midi": 62,
      "hit": false,
      "t": 65940.54899999991,
      "d": 228.9602395833208,
      "v": 76
    },
    {
      "midi": 55,
      "hit": false,
      "t": 66528.41988541656,
      "d": 204.20778124999197,
      "v": 68
    },
    {
      "midi": 63,
      "hit": false,
      "t": 66528.41988541656,
      "d": 204.20778124999197,
      "v": 60
    },
    {
      "midi": 60,
      "hit": false,
      "t": 66534.60799999989,
      "d": 198.01966666665976,
      "v": 85
    },
    {
      "midi": 60,
      "hit": false,
      "t": 67122.47888541655,
      "d": 179.45532291666314,
      "v": 90
    },
    {
      "midi": 55,
      "hit": false,
      "t": 67122.47888541655,
      "d": 198.01966666665976,
      "v": 74
    },
    {
      "midi": 63,
      "hit": false,
      "t": 67128.66699999988,
      "d": 191.83155208332755,
      "v": 69
    },
    {
      "midi": 60,
      "hit": false,
      "t": 67716.53788541655,
      "d": 198.01966666665976,
      "v": 94
    },
    {
      "midi": 55,
      "hit": false,
      "t": 67716.53788541655,
      "d": 210.39589583332418,
      "v": 78
    },
    {
      "midi": 63,
      "hit": false,
      "t": 67722.72599999988,
      "d": 210.39589583332418,
      "v": 75
    },
    {
      "midi": 60,
      "hit": false,
      "t": 68310.59688541654,
      "d": 204.20778124999197,
      "v": 92
    },
    {
      "midi": 63,
      "hit": false,
      "t": 68310.59688541654,
      "d": 216.58401041665638,
      "v": 73
    },
    {
      "midi": 55,
      "hit": false,
      "t": 68316.78499999987,
      "d": 198.01966666665976,
      "v": 72
    },
    {
      "midi": 60,
      "hit": false,
      "t": 68904.65588541653,
      "d": 198.01966666665976,
      "v": 92
    },
    {
      "midi": 55,
      "hit": false,
      "t": 68904.65588541653,
      "d": 210.39589583332418,
      "v": 75
    },
    {
      "midi": 63,
      "hit": false,
      "t": 68910.84399999987,
      "d": 204.20778124999197,
      "v": 73
    },
    {
      "midi": 60,
      "hit": false,
      "t": 69498.71488541653,
      "d": 179.45532291666314,
      "v": 94
    },
    {
      "midi": 55,
      "hit": false,
      "t": 69498.71488541653,
      "d": 198.01966666665976,
      "v": 78
    },
    {
      "midi": 63,
      "hit": false,
      "t": 69504.90299999986,
      "d": 173.26720833333093,
      "v": 77
    },
    {
      "midi": 59,
      "hit": false,
      "t": 70092.77388541652,
      "d": 191.83155208332755,
      "v": 73
    },
    {
      "midi": 53,
      "hit": false,
      "t": 70092.77388541652,
      "d": 210.39589583332418,
      "v": 72
    },
    {
      "midi": 62,
      "hit": false,
      "t": 70098.96199999985,
      "d": 210.39589583332418,
      "v": 78
    },
    {
      "midi": 59,
      "hit": false,
      "t": 70686.83288541652,
      "d": 216.58401041667094,
      "v": 69
    },
    {
      "midi": 53,
      "hit": false,
      "t": 70686.83288541652,
      "d": 235.14835416666756,
      "v": 71
    },
    {
      "midi": 62,
      "hit": false,
      "t": 70693.02099999985,
      "d": 228.96023958333535,
      "v": 73
    },
    {
      "midi": 62,
      "hit": false,
      "t": 71280.89188541651,
      "d": 160.8909791666665,
      "v": 78
    },
    {
      "midi": 53,
      "hit": false,
      "t": 71280.89188541651,
      "d": 173.26720833333093,
      "v": 72
    },
    {
      "midi": 59,
      "hit": false,
      "t": 71287.07999999984,
      "d": 154.7028645833343,
      "v": 75
    },
    {
      "midi": 53,
      "hit": false,
      "t": 71874.9508854165,
      "d": 154.7028645833343,
      "v": 79
    },
    {
      "midi": 62,
      "hit": false,
      "t": 71874.9508854165,
      "d": 173.26720833333093,
      "v": 79
    },
    {
      "midi": 59,
      "hit": false,
      "t": 71881.13899999984,
      "d": 148.5147500000021,
      "v": 78
    },
    {
      "midi": 59,
      "hit": false,
      "t": 72469.0098854165,
      "d": 210.39589583332418,
      "v": 70
    },
    {
      "midi": 65,
      "hit": false,
      "t": 72469.0098854165,
      "d": 210.39589583332418,
      "v": 75
    },
    {
      "midi": 62,
      "hit": false,
      "t": 72475.19799999983,
      "d": 185.64343749999534,
      "v": 75
    },
    {
      "midi": 55,
      "hit": false,
      "t": 72475.19799999983,
      "d": 204.20778124999197,
      "v": 71
    },
    {
      "midi": 62,
      "hit": false,
      "t": 73063.06888541649,
      "d": 247.52458333333198,
      "v": 72
    },
    {
      "midi": 65,
      "hit": false,
      "t": 73063.06888541649,
      "d": 253.71269791666418,
      "v": 73
    },
    {
      "midi": 59,
      "hit": false,
      "t": 73069.25699999982,
      "d": 241.33646874999977,
      "v": 70
    },
    {
      "midi": 59,
      "hit": false,
      "t": 73657.12788541648,
      "d": 210.39589583333873,
      "v": 74
    },
    {
      "midi": 65,
      "hit": false,
      "t": 73657.12788541648,
      "d": 222.77212500000314,
      "v": 80
    },
    {
      "midi": 62,
      "hit": false,
      "t": 73663.31599999982,
      "d": 216.58401041667094,
      "v": 76
    },
    {
      "midi": 62,
      "hit": false,
      "t": 74251.1868854165,
      "d": 210.39589583333873,
      "v": 71
    },
    {
      "midi": 59,
      "hit": false,
      "t": 74251.1868854165,
      "d": 216.58401041667094,
      "v": 70
    },
    {
      "midi": 65,
      "hit": false,
      "t": 74257.37499999983,
      "d": 235.14835416666756,
      "v": 75
    },
    {
      "midi": 55,
      "hit": false,
      "t": 74845.24588541649,
      "d": 173.26720833333093,
      "v": 73
    },
    {
      "midi": 59,
      "hit": false,
      "t": 74845.24588541649,
      "d": 173.26720833333093,
      "v": 75
    },
    {
      "midi": 62,
      "hit": false,
      "t": 74851.43399999982,
      "d": 167.07909374999872,
      "v": 75
    },
    {
      "midi": 59,
      "hit": false,
      "t": 75439.30488541648,
      "d": 179.45532291666314,
      "v": 76
    },
    {
      "midi": 55,
      "hit": false,
      "t": 75439.30488541648,
      "d": 204.20778124999197,
      "v": 75
    },
    {
      "midi": 62,
      "hit": false,
      "t": 75445.49299999981,
      "d": 173.26720833333093,
      "v": 76
    },
    {
      "midi": 60,
      "hit": false,
      "t": 76033.36388541647,
      "d": 222.77212500000314,
      "v": 90
    },
    {
      "midi": 55,
      "hit": false,
      "t": 76033.36388541647,
      "d": 235.14835416666756,
      "v": 79
    },
    {
      "midi": 56,
      "hit": false,
      "t": 76039.5519999998,
      "d": 216.58401041667094,
      "v": 75
    },
    {
      "midi": 63,
      "hit": false,
      "t": 76039.5519999998,
      "d": 228.96023958333535,
      "v": 73
    },
    {
      "midi": 60,
      "hit": false,
      "t": 76051.92822916668,
      "d": 3242.5720416666154,
      "v": 70
    },
    {
      "midi": 63,
      "hit": false,
      "t": 76051.92822916668,
      "d": 4913.362979166544,
      "v": 76
    },
    {
      "midi": 55,
      "hit": false,
      "t": 76058.11634375,
      "d": 2481.4339479166665,
      "v": 67
    },
    {
      "midi": 60,
      "hit": false,
      "t": 76627.42288541647,
      "d": 179.45532291666314,
      "v": 90
    },
    {
      "midi": 55,
      "hit": false,
      "t": 76627.42288541647,
      "d": 198.01966666665976,
      "v": 78
    },
    {
      "midi": 56,
      "hit": false,
      "t": 76633.6109999998,
      "d": 191.83155208332755,
      "v": 77
    },
    {
      "midi": 63,
      "hit": false,
      "t": 76633.6109999998,
      "d": 191.83155208332755,
      "v": 77
    },
    {
      "midi": 60,
      "hit": false,
      "t": 77221.48188541646,
      "d": 136.13852083333768,
      "v": 97
    },
    {
      "midi": 55,
      "hit": false,
      "t": 77221.48188541646,
      "d": 167.07909374999872,
      "v": 82
    },
    {
      "midi": 56,
      "hit": false,
      "t": 77227.6699999998,
      "d": 154.7028645833343,
      "v": 77
    },
    {
      "midi": 63,
      "hit": false,
      "t": 77227.6699999998,
      "d": 154.7028645833343,
      "v": 75
    },
    {
      "midi": 60,
      "hit": false,
      "t": 77815.54088541646,
      "d": 160.8909791666665,
      "v": 90
    },
    {
      "midi": 55,
      "hit": false,
      "t": 77815.54088541646,
      "d": 185.64343749999534,
      "v": 80
    },
    {
      "midi": 56,
      "hit": false,
      "t": 77821.72899999979,
      "d": 179.45532291666314,
      "v": 77
    },
    {
      "midi": 63,
      "hit": false,
      "t": 77821.72899999979,
      "d": 179.45532291666314,
      "v": 77
    },
    {
      "midi": 56,
      "hit": false,
      "t": 78409.59988541645,
      "d": 117.5741770833265,
      "v": 77
    },
    {
      "midi": 55,
      "hit": false,
      "t": 78409.59988541645,
      "d": 129.95040624999092,
      "v": 79
    },
    {
      "midi": 60,
      "hit": false,
      "t": 78415.78799999978,
      "d": 92.82171874999767,
      "v": 90
    },
    {
      "midi": 63,
      "hit": false,
      "t": 78415.78799999978,
      "d": 123.76229166665871,
      "v": 73
    },
    {
      "midi": 55,
      "hit": false,
      "t": 79003.65888541644,
      "d": 148.51474999998754,
      "v": 75
    },
    {
      "midi": 63,
      "hit": false,
      "t": 79003.65888541644,
      "d": 160.89097916665196,
      "v": 66
    },
    {
      "midi": 60,
      "hit": false,
      "t": 79009.84699999978,
      "d": 111.3860624999943,
      "v": 88
    },
    {
      "midi": 56,
      "hit": false,
      "t": 79009.84699999978,
      "d": 123.76229166665871,
      "v": 77
    },
    {
      "midi": 60,
      "hit": false,
      "t": 79399.69821874976,
      "d": 129.95040625000547,
      "v": 88
    },
    {
      "midi": 63,
      "hit": false,
      "t": 79399.69821874976,
      "d": 129.95040625000547,
      "v": 63
    },
    {
      "midi": 56,
      "hit": false,
      "t": 79405.8863333331,
      "d": 142.3266354166699,
      "v": 63
    },
    {
      "midi": 65,
      "hit": false,
      "t": 79405.8863333331,
      "d": 142.3266354166699,
      "v": 76
    },
    {
      "midi": 60,
      "hit": false,
      "t": 79591.52977083327,
      "d": 1967.8204374999477,
      "v": 39
    },
    {
      "midi": 56,
      "hit": false,
      "t": 79603.90599999993,
      "d": 1955.4442083332833,
      "v": 37
    },
    {
      "midi": 60,
      "hit": false,
      "t": 79993.75721874977,
      "d": 191.83155208332755,
      "v": 80
    },
    {
      "midi": 65,
      "hit": false,
      "t": 79993.75721874977,
      "d": 191.83155208332755,
      "v": 73
    },
    {
      "midi": 56,
      "hit": false,
      "t": 79999.9453333331,
      "d": 185.64343749999534,
      "v": 50
    },
    {
      "midi": 63,
      "hit": false,
      "t": 79999.9453333331,
      "d": 185.64343749999534,
      "v": 55
    },
    {
      "midi": 63,
      "hit": false,
      "t": 80191.77688541643,
      "d": 148.5147500000021,
      "v": 66
    },
    {
      "midi": 56,
      "hit": false,
      "t": 80191.77688541643,
      "d": 154.7028645833343,
      "v": 77
    },
    {
      "midi": 60,
      "hit": false,
      "t": 80197.96499999976,
      "d": 142.3266354166699,
      "v": 88
    },
    {
      "midi": 65,
      "hit": false,
      "t": 80197.96499999976,
      "d": 148.5147500000021,
      "v": 78
    },
    {
      "midi": 65,
      "hit": false,
      "t": 80785.83588541643,
      "d": 167.07909374999872,
      "v": 69
    },
    {
      "midi": 63,
      "hit": false,
      "t": 80785.83588541643,
      "d": 179.45532291666314,
      "v": 56
    },
    {
      "midi": 60,
      "hit": false,
      "t": 80792.02399999976,
      "d": 173.26720833333093,
      "v": 78
    },
    {
      "midi": 56,
      "hit": false,
      "t": 80792.02399999976,
      "d": 191.83155208332755,
      "v": 54
    },
    {
      "midi": 60,
      "hit": false,
      "t": 81379.89488541642,
      "d": 185.64343749999534,
      "v": 82
    },
    {
      "midi": 56,
      "hit": false,
      "t": 81379.89488541642,
      "d": 204.20778124999197,
      "v": 54
    },
    {
      "midi": 63,
      "hit": false,
      "t": 81386.08299999975,
      "d": 173.26720833333093,
      "v": 56
    },
    {
      "midi": 65,
      "hit": false,
      "t": 81386.08299999975,
      "d": 173.26720833333093,
      "v": 68
    },
    {
      "midi": 62,
      "hit": false,
      "t": 81967.76577083321,
      "d": 4251.234718749911,
      "v": 42
    },
    {
      "midi": 62,
      "hit": false,
      "t": 81973.95388541641,
      "d": 204.20778124999197,
      "v": 70
    },
    {
      "midi": 67,
      "hit": false,
      "t": 81973.95388541641,
      "d": 216.58401041665638,
      "v": 62
    },
    {
      "midi": 60,
      "hit": false,
      "t": 81980.14199999975,
      "d": 198.01966666665976,
      "v": 80
    },
    {
      "midi": 55,
      "hit": false,
      "t": 81980.14199999975,
      "d": 216.58401041665638,
      "v": 69
    },
    {
      "midi": 67,
      "hit": false,
      "t": 81986.33011458321,
      "d": 3768.5617812499986,
      "v": 55
    },
    {
      "midi": 60,
      "hit": false,
      "t": 81998.70634374987,
      "d": 1355.1970937499864,
      "v": 29
    },
    {
      "midi": 55,
      "hit": false,
      "t": 82568.0128854164,
      "d": 216.58401041667094,
      "v": 71
    },
    {
      "midi": 67,
      "hit": false,
      "t": 82568.0128854164,
      "d": 235.14835416666756,
      "v": 68
    },
    {
      "midi": 60,
      "hit": false,
      "t": 82574.20099999974,
      "d": 210.39589583333873,
      "v": 79
    },
    {
      "midi": 62,
      "hit": false,
      "t": 82574.20099999974,
      "d": 210.39589583333873,
      "v": 68
    },
    {
      "midi": 55,
      "hit": false,
      "t": 83162.0718854164,
      "d": 191.83155208332755,
      "v": 70
    },
    {
      "midi": 60,
      "hit": false,
      "t": 83162.0718854164,
      "d": 191.83155208332755,
      "v": 82
    },
    {
      "midi": 62,
      "hit": false,
      "t": 83168.25999999973,
      "d": 185.64343749999534,
      "v": 71
    },
    {
      "midi": 67,
      "hit": false,
      "t": 83168.25999999973,
      "d": 204.20778124999197,
      "v": 70
    },
    {
      "midi": 60,
      "hit": false,
      "t": 83756.1308854164,
      "d": 185.64343749999534,
      "v": 80
    },
    {
      "midi": 67,
      "hit": false,
      "t": 83756.1308854164,
      "d": 198.01966666665976,
      "v": 70
    },
    {
      "midi": 62,
      "hit": false,
      "t": 83762.31899999973,
      "d": 191.83155208332755,
      "v": 72
    },
    {
      "midi": 55,
      "hit": false,
      "t": 83762.31899999973,
      "d": 210.39589583332418,
      "v": 72
    },
    {
      "midi": 55,
      "hit": false,
      "t": 84350.18988541639,
      "d": 160.8909791666665,
      "v": 68
    },
    {
      "midi": 67,
      "hit": false,
      "t": 84350.18988541639,
      "d": 235.14835416666756,
      "v": 68
    },
    {
      "midi": 59,
      "hit": false,
      "t": 84356.37799999972,
      "d": 210.39589583333873,
      "v": 72
    },
    {
      "midi": 62,
      "hit": false,
      "t": 84356.37799999972,
      "d": 210.39589583333873,
      "v": 70
    },
    {
      "midi": 59,
      "hit": false,
      "t": 84393.50668749987,
      "d": 1349.0089791666687,
      "v": 35
    },
    {
      "midi": 59,
      "hit": false,
      "t": 84944.24888541638,
      "d": 204.20778124999197,
      "v": 70
    },
    {
      "midi": 67,
      "hit": false,
      "t": 84944.24888541638,
      "d": 204.20778124999197,
      "v": 66
    },
    {
      "midi": 62,
      "hit": false,
      "t": 84950.43699999971,
      "d": 185.64343749999534,
      "v": 71
    },
    {
      "midi": 59,
      "hit": false,
      "t": 85538.30788541638,
      "d": 204.20778124999197,
      "v": 67
    },
    {
      "midi": 67,
      "hit": false,
      "t": 85538.30788541638,
      "d": 216.58401041665638,
      "v": 64
    },
    {
      "midi": 62,
      "hit": false,
      "t": 85544.49599999971,
      "d": 179.45532291666314,
      "v": 67
    },
    {
      "midi": 67,
      "hit": false,
      "t": 86132.36688541637,
      "d": 167.07909374999872,
      "v": 62
    },
    {
      "midi": 62,
      "hit": false,
      "t": 86132.36688541637,
      "d": 185.64343749999534,
      "v": 66
    },
    {
      "midi": 59,
      "hit": false,
      "t": 86138.5549999997,
      "d": 160.8909791666665,
      "v": 65
    },
    {
      "midi": 74,
      "hit": false,
      "t": 86720.2377708331,
      "d": 4548.2642187499005,
      "v": 67
    },
    {
      "midi": 79,
      "hit": false,
      "t": 86720.2377708331,
      "d": 4548.2642187499005,
      "v": 64
    },
    {
      "midi": 55,
      "hit": false,
      "t": 86726.42588541636,
      "d": 154.7028645833343,
      "v": 60
    },
    {
      "midi": 60,
      "hit": false,
      "t": 86726.42588541636,
      "d": 154.7028645833343,
      "v": 78
    },
    {
      "midi": 75,
      "hit": false,
      "t": 86726.42588541644,
      "d": 4554.452333333233,
      "v": 63
    },
    {
      "midi": 63,
      "hit": false,
      "t": 86732.6139999997,
      "d": 148.5147500000021,
      "v": 52
    },
    {
      "midi": 60,
      "hit": false,
      "t": 87320.48488541636,
      "d": 204.20778124999197,
      "v": 74
    },
    {
      "midi": 55,
      "hit": false,
      "t": 87320.48488541636,
      "d": 216.58401041665638,
      "v": 60
    },
    {
      "midi": 63,
      "hit": false,
      "t": 87326.67299999969,
      "d": 198.01966666665976,
      "v": 51
    },
    {
      "midi": 55,
      "hit": false,
      "t": 87914.54388541635,
      "d": 204.20778124999197,
      "v": 61
    },
    {
      "midi": 60,
      "hit": false,
      "t": 87914.54388541635,
      "d": 204.20778124999197,
      "v": 76
    },
    {
      "midi": 63,
      "hit": false,
      "t": 87920.73199999968,
      "d": 198.01966666665976,
      "v": 54
    },
    {
      "midi": 55,
      "hit": false,
      "t": 88508.60288541635,
      "d": 204.20778124999197,
      "v": 57
    },
    {
      "midi": 63,
      "hit": false,
      "t": 88508.60288541635,
      "d": 210.39589583332418,
      "v": 51
    },
    {
      "midi": 60,
      "hit": false,
      "t": 88514.79099999968,
      "d": 198.01966666665976,
      "v": 73
    },
    {
      "midi": 60,
      "hit": false,
      "t": 89102.66188541634,
      "d": 204.20778124999197,
      "v": 79
    },
    {
      "midi": 55,
      "hit": false,
      "t": 89102.66188541634,
      "d": 216.58401041665638,
      "v": 63
    },
    {
      "midi": 63,
      "hit": false,
      "t": 89108.84999999967,
      "d": 210.39589583332418,
      "v": 57
    },
    {
      "midi": 55,
      "hit": false,
      "t": 89696.72088541633,
      "d": 185.64343749999534,
      "v": 58
    },
    {
      "midi": 60,
      "hit": false,
      "t": 89696.72088541633,
      "d": 185.64343749999534,
      "v": 78
    },
    {
      "midi": 63,
      "hit": false,
      "t": 89702.90899999966,
      "d": 179.45532291666314,
      "v": 57
    },
    {
      "midi": 55,
      "hit": false,
      "t": 90290.77988541633,
      "d": 228.96023958333535,
      "v": 62
    },
    {
      "midi": 60,
      "hit": false,
      "t": 90290.77988541633,
      "d": 228.96023958333535,
      "v": 82
    },
    {
      "midi": 63,
      "hit": false,
      "t": 90296.96799999966,
      "d": 241.33646874999977,
      "v": 59
    },
    {
      "midi": 55,
      "hit": false,
      "t": 91478.89788541633,
      "d": 2134.8995312500047,
      "v": 63
    },
    {
      "midi": 63,
      "hit": false,
      "t": 91478.89788541633,
      "d": 2165.8401041666657,
      "v": 69
    },
    {
      "midi": 60,
      "hit": false,
      "t": 91485.08599999966,
      "d": 2128.7114166666724,
      "v": 86
    },
    {
      "midi": 55,
      "hit": false,
      "t": 93855.13388541633,
      "d": 2029.701583333328,
      "v": 69
    },
    {
      "midi": 62,
      "hit": false,
      "t": 93855.13388541633,
      "d": 2042.0778124999924,
      "v": 85
    },
    {
      "midi": 59,
      "hit": false,
      "t": 93861.32199999967,
      "d": 2023.5134687499958,
      "v": 79
    },
    {
      "midi": 55,
      "hit": false,
      "t": 96231.36988541632,
      "d": 2029.701583333328,
      "v": 76
    },
    {
      "midi": 65,
      "hit": false,
      "t": 96231.36988541632,
      "d": 2048.2659270833246,
      "v": 80
    },
    {
      "midi": 59,
      "hit": false,
      "t": 96237.55799999966,
      "d": 2011.1372395833314,
      "v": 79
    },
    {
      "midi": 62,
      "hit": false,
      "t": 96237.55799999966,
      "d": 2023.5134687499958,
      "v": 80
    },
    {
      "midi": 55,
      "hit": false,
      "t": 98607.60588541631,
      "d": 2196.7806770833267,
      "v": 72
    },
    {
      "midi": 63,
      "hit": false,
      "t": 98607.60588541631,
      "d": 2196.7806770833267,
      "v": 77
    },
    {
      "midi": 60,
      "hit": false,
      "t": 98613.79399999965,
      "d": 2190.5925624999945,
      "v": 92
    },
    {
      "midi": 60,
      "hit": false,
      "t": 100983.8418854163,
      "d": 1336.6327500000043,
      "v": 92
    },
    {
      "midi": 55,
      "hit": false,
      "t": 100983.8418854163,
      "d": 1349.0089791666687,
      "v": 73
    },
    {
      "midi": 63,
      "hit": false,
      "t": 100990.02999999964,
      "d": 1349.0089791666687,
      "v": 81
    },
    {
      "midi": 63,
      "hit": false,
      "t": 102766.0188854163,
      "d": 389.85121875000186,
      "v": 84
    },
    {
      "midi": 60,
      "hit": false,
      "t": 102766.0188854163,
      "d": 408.4155624999985,
      "v": 107
    },
    {
      "midi": 55,
      "hit": false,
      "t": 102772.20699999963,
      "d": 365.09876041667303,
      "v": 73
    },
    {
      "midi": 55,
      "hit": false,
      "t": 103162.05821874963,
      "d": 2073.018385416668,
      "v": 90
    },
    {
      "midi": 59,
      "hit": false,
      "t": 103162.05821874963,
      "d": 2085.3946145833324,
      "v": 80
    },
    {
      "midi": 62,
      "hit": false,
      "t": 103168.24633333297,
      "d": 2091.5827291666646,
      "v": 64
    },
    {
      "midi": 59,
      "hit": false,
      "t": 105736.3138854163,
      "d": 2147.275760416669,
      "v": 79
    },
    {
      "midi": 55,
      "hit": false,
      "t": 105736.3138854163,
      "d": 2209.1569062500057,
      "v": 74
    },
    {
      "midi": 62,
      "hit": false,
      "t": 105742.50199999963,
      "d": 2258.661822916678,
      "v": 78
    },
    {
      "midi": 65,
      "hit": false,
      "t": 105742.50199999963,
      "d": 2283.4142812500068,
      "v": 79
    },
    {
      "midi": 55,
      "hit": false,
      "t": 108112.5498854163,
      "d": 1955.444208333327,
      "v": 72
    },
    {
      "midi": 63,
      "hit": false,
      "t": 108112.5498854163,
      "d": 1980.1966666666558,
      "v": 81
    },
    {
      "midi": 60,
      "hit": false,
      "t": 108118.73799999963,
      "d": 1986.384781249988,
      "v": 88
    },
    {
      "midi": 56,
      "hit": false,
      "t": 110488.78588541629,
      "d": 2029.701583333328,
      "v": 81
    },
    {
      "midi": 68,
      "hit": false,
      "t": 110488.78588541629,
      "d": 2029.701583333328,
      "v": 75
    },
    {
      "midi": 60,
      "hit": false,
      "t": 110494.97399999962,
      "d": 1986.3847812500026,
      "v": 90
    },
    {
      "midi": 63,
      "hit": false,
      "t": 110494.97399999962,
      "d": 1986.3847812500026,
      "v": 71
    },
    {
      "midi": 55,
      "hit": false,
      "t": 112865.02188541628,
      "d": 2079.2065000000002,
      "v": 76
    },
    {
      "midi": 67,
      "hit": false,
      "t": 112865.02188541628,
      "d": 2097.770843749997,
      "v": 72
    },
    {
      "midi": 63,
      "hit": false,
      "t": 112871.20999999961,
      "d": 2073.018385416668,
      "v": 64
    },
    {
      "midi": 60,
      "hit": false,
      "t": 112871.20999999961,
      "d": 2091.5827291666646,
      "v": 88
    },
    {
      "midi": 60,
      "hit": false,
      "t": 115241.25788541627,
      "d": 1992.5728958333348,
      "v": 86
    },
    {
      "midi": 65,
      "hit": false,
      "t": 115241.25788541627,
      "d": 2011.1372395833314,
      "v": 74
    },
    {
      "midi": 56,
      "hit": false,
      "t": 115247.4459999996,
      "d": 2004.9491249999992,
      "v": 63
    },
    {
      "midi": 63,
      "hit": false,
      "t": 115247.4459999996,
      "d": 2004.9491249999992,
      "v": 60
    },
    {
      "midi": 55,
      "hit": false,
      "t": 117617.49388541628,
      "d": 2017.3253541666636,
      "v": 79
    },
    {
      "midi": 67,
      "hit": false,
      "t": 117617.49388541628,
      "d": 2060.642156249989,
      "v": 74
    },
    {
      "midi": 60,
      "hit": false,
      "t": 117623.68199999961,
      "d": 2035.8896979166602,
      "v": 92
    },
    {
      "midi": 62,
      "hit": false,
      "t": 117623.68199999961,
      "d": 2035.8896979166602,
      "v": 79
    },
    {
      "midi": 67,
      "hit": false,
      "t": 119993.72988541627,
      "d": 2159.6519895833335,
      "v": 75
    },
    {
      "midi": 59,
      "hit": false,
      "t": 119993.72988541627,
      "d": 2172.028218749998,
      "v": 76
    },
    {
      "midi": 62,
      "hit": false,
      "t": 119999.9179999996,
      "d": 2172.028218749998,
      "v": 79
    },
    {
      "midi": 63,
      "hit": false,
      "t": 122413.2826874996,
      "d": 297.0295000000042,
      "v": 76
    },
    {
      "midi": 60,
      "hit": false,
      "t": 122413.2826874996,
      "d": 309.4057291666686,
      "v": 68
    },
    {
      "midi": 55,
      "hit": false,
      "t": 122413.2826874996,
      "d": 321.781958333333,
      "v": 64
    },
    {
      "midi": 48,
      "hit": false,
      "t": 122784.5695624996,
      "d": 55.693031250004424,
      "v": 49
    },
    {
      "midi": 55,
      "hit": false,
      "t": 122982.58922916627,
      "d": 290.84138541665743,
      "v": 61
    },
    {
      "midi": 60,
      "hit": false,
      "t": 122982.58922916627,
      "d": 290.84138541665743,
      "v": 67
    },
    {
      "midi": 63,
      "hit": false,
      "t": 122988.7773437496,
      "d": 278.465156249993,
      "v": 80
    },
    {
      "midi": 48,
      "hit": false,
      "t": 123360.0642187496,
      "d": 43.31680208334001,
      "v": 28
    },
    {
      "midi": 60,
      "hit": false,
      "t": 123551.89577083294,
      "d": 346.53441666666185,
      "v": 64
    },
    {
      "midi": 55,
      "hit": false,
      "t": 123551.89577083294,
      "d": 365.0987604166585,
      "v": 58
    },
    {
      "midi": 63,
      "hit": false,
      "t": 123558.08388541627,
      "d": 309.4057291666686,
      "v": 69
    },
    {
      "midi": 48,
      "hit": false,
      "t": 123954.12321874959,
      "d": 49.504916666672216,
      "v": 37
    },
    {
      "midi": 60,
      "hit": false,
      "t": 124158.3309999996,
      "d": 235.14835416666756,
      "v": 69
    },
    {
      "midi": 63,
      "hit": false,
      "t": 124164.51911458293,
      "d": 247.52458333333198,
      "v": 76
    },
    {
      "midi": 55,
      "hit": false,
      "t": 124164.51911458293,
      "d": 340.34630208332965,
      "v": 61
    },
    {
      "midi": 48,
      "hit": false,
      "t": 124603.87524999959,
      "d": 37.12868749999325,
      "v": 8
    },
    {
      "midi": 59,
      "hit": false,
      "t": 124758.57811458291,
      "d": 321.781958333333,
      "v": 69
    },
    {
      "midi": 53,
      "hit": false,
      "t": 124758.57811458291,
      "d": 340.34630208332965,
      "v": 60
    },
    {
      "midi": 62,
      "hit": false,
      "t": 124764.76622916624,
      "d": 321.781958333333,
      "v": 70
    },
    {
      "midi": 43,
      "hit": false,
      "t": 125179.36990624957,
      "d": 43.31680208334001,
      "v": 27
    },
    {
      "midi": 59,
      "hit": false,
      "t": 125340.26088541624,
      "d": 321.781958333333,
      "v": 68
    },
    {
      "midi": 62,
      "hit": false,
      "t": 125352.6371145829,
      "d": 315.5938437500008,
      "v": 67
    },
    {
      "midi": 53,
      "hit": false,
      "t": 125352.6371145829,
      "d": 346.53441666666185,
      "v": 60
    },
    {
      "midi": 43,
      "hit": false,
      "t": 125754.86456249957,
      "d": 80.44548958333326,
      "v": 21
    },
    {
      "midi": 59,
      "hit": false,
      "t": 125946.6961145829,
      "d": 290.841385416672,
      "v": 62
    },
    {
      "midi": 62,
      "hit": false,
      "t": 125946.6961145829,
      "d": 315.5938437500008,
      "v": 70
    },
    {
      "midi": 53,
      "hit": false,
      "t": 125952.88422916623,
      "d": 297.0295000000042,
      "v": 56
    },
    {
      "midi": 43,
      "hit": false,
      "t": 126336.5473333329,
      "d": 61.88114583333663,
      "v": 29
    },
    {
      "midi": 62,
      "hit": false,
      "t": 126546.94322916624,
      "d": 198.01966666665976,
      "v": 79
    },
    {
      "midi": 59,
      "hit": false,
      "t": 126546.94322916624,
      "d": 222.7721249999886,
      "v": 73
    },
    {
      "midi": 53,
      "hit": false,
      "t": 126751.15101041623,
      "d": 55.69303124998987,
      "v": 80
    },
    {
      "midi": 43,
      "hit": false,
      "t": 126961.54690624955,
      "d": 43.31680208334001,
      "v": 52
    },
    {
      "midi": 55,
      "hit": false,
      "t": 127134.8141145829,
      "d": 358.91064583332627,
      "v": 55
    },
    {
      "midi": 59,
      "hit": false,
      "t": 127147.19034374956,
      "d": 321.781958333333,
      "v": 60
    },
    {
      "midi": 62,
      "hit": false,
      "t": 127147.19034374956,
      "d": 327.97007291666523,
      "v": 68
    },
    {
      "midi": 65,
      "hit": false,
      "t": 127165.75468749956,
      "d": 346.53441666666185,
      "v": 58
    },
    {
      "midi": 43,
      "hit": false,
      "t": 127537.04156249955,
      "d": 61.88114583333663,
      "v": 27
    },
    {
      "midi": 62,
      "hit": false,
      "t": 127759.81368749955,
      "d": 272.2770416666608,
      "v": 67
    },
    {
      "midi": 55,
      "hit": false,
      "t": 127759.81368749955,
      "d": 327.9700729166507,
      "v": 58
    },
    {
      "midi": 59,
      "hit": false,
      "t": 127766.00180208289,
      "d": 290.84138541665743,
      "v": 61
    },
    {
      "midi": 65,
      "hit": false,
      "t": 127766.00180208289,
      "d": 303.21761458332185,
      "v": 59
    },
    {
      "midi": 43,
      "hit": false,
      "t": 128155.85302083287,
      "d": 61.88114583333663,
      "v": 19
    },
    {
      "midi": 55,
      "hit": false,
      "t": 128341.49645833288,
      "d": 259.9008124999964,
      "v": 57
    },
    {
      "midi": 59,
      "hit": false,
      "t": 128347.68457291622,
      "d": 210.39589583333873,
      "v": 55
    },
    {
      "midi": 62,
      "hit": false,
      "t": 128353.87268749955,
      "d": 148.5147500000021,
      "v": 61
    },
    {
      "midi": 65,
      "hit": false,
      "t": 128353.87268749955,
      "d": 222.77212500000314,
      "v": 76
    },
    {
      "midi": 43,
      "hit": false,
      "t": 128725.15956249955,
      "d": 37.12868749999325,
      "v": 51
    },
    {
      "midi": 59,
      "hit": false,
      "t": 128910.80299999955,
      "d": 278.465156249993,
      "v": 73
    },
    {
      "midi": 62,
      "hit": false,
      "t": 128910.80299999955,
      "d": 284.6532708333252,
      "v": 75
    },
    {
      "midi": 53,
      "hit": false,
      "t": 128910.80299999955,
      "d": 303.21761458332185,
      "v": 71
    },
    {
      "midi": 43,
      "hit": false,
      "t": 129300.65421874954,
      "d": 43.31680208334001,
      "v": 40
    },
    {
      "midi": 59,
      "hit": false,
      "t": 129504.86199999954,
      "d": 235.14835416666756,
      "v": 66
    },
    {
      "midi": 62,
      "hit": false,
      "t": 129504.86199999954,
      "d": 241.33646874999977,
      "v": 71
    },
    {
      "midi": 53,
      "hit": false,
      "t": 129504.86199999954,
      "d": 266.0889270833286,
      "v": 68
    },
    {
      "midi": 43,
      "hit": false,
      "t": 129888.5251041662,
      "d": 37.12868749999325,
      "v": 53
    },
    {
      "midi": 62,
      "hit": false,
      "t": 130092.73288541619,
      "d": 216.58401041667094,
      "v": 74
    },
    {
      "midi": 53,
      "hit": false,
      "t": 130092.73288541619,
      "d": 266.08892708334315,
      "v": 71
    },
    {
      "midi": 59,
      "hit": false,
      "t": 130098.92099999952,
      "d": 303.21761458335095,
      "v": 63
    },
    {
      "midi": 48,
      "hit": false,
      "t": 130519.7127916662,
      "d": 43.31680208334001,
      "v": 42
    },
    {
      "midi": 55,
      "hit": false,
      "t": 130686.79188541621,
      "d": 297.0295000000042,
      "v": 74
    },
    {
      "midi": 60,
      "hit": false,
      "t": 130686.79188541621,
      "d": 352.7225312500086,
      "v": 59
    },
    {
      "midi": 63,
      "hit": false,
      "t": 130686.79188541621,
      "d": 365.09876041667303,
      "v": 76
    },
    {
      "midi": 55,
      "hit": false,
      "t": 131064.26687499955,
      "d": 86.63360416666546,
      "v": 38
    },
    {
      "midi": 53,
      "hit": false,
      "t": 131293.22711458287,
      "d": 142.32663541665534,
      "v": 79
    },
    {
      "midi": 62,
      "hit": false,
      "t": 131293.22711458287,
      "d": 198.01966666665976,
      "v": 78
    },
    {
      "midi": 59,
      "hit": false,
      "t": 131293.22711458287,
      "d": 222.7721249999886,
      "v": 74
    },
    {
      "midi": 53,
      "hit": false,
      "t": 131491.24678124953,
      "d": 117.5741770833265,
      "v": 82
    },
    {
      "midi": 43,
      "hit": false,
      "t": 131683.07833333284,
      "d": 43.31680208334001,
      "v": 47
    },
    {
      "midi": 55,
      "hit": false,
      "t": 131868.72177083284,
      "d": 247.52458333334653,
      "v": 75
    },
    {
      "midi": 60,
      "hit": false,
      "t": 131868.72177083284,
      "d": 346.53441666669096,
      "v": 74
    },
    {
      "midi": 63,
      "hit": false,
      "t": 131874.9098854162,
      "d": 321.781958333333,
      "v": 79
    },
    {
      "midi": 55,
      "hit": false,
      "t": 132264.7611041662,
      "d": 74.2573749999865,
      "v": 14
    },
    {
      "midi": 55,
      "hit": false,
      "t": 132468.96888541616,
      "d": 148.5147500000021,
      "v": 76
    },
    {
      "midi": 60,
      "hit": false,
      "t": 132468.96888541616,
      "d": 198.01966666665976,
      "v": 69
    },
    {
      "midi": 63,
      "hit": false,
      "t": 132481.34511458283,
      "d": 198.01966666665976,
      "v": 74
    },
    {
      "midi": 55,
      "hit": false,
      "t": 132679.3647812495,
      "d": 74.2573749999865,
      "v": 70
    },
    {
      "midi": 48,
      "hit": false,
      "t": 132889.7606770828,
      "d": 55.693031250004424,
      "v": 36
    },
    {
      "midi": 60,
      "hit": false,
      "t": 133056.83977083283,
      "d": 290.84138541668653,
      "v": 70
    },
    {
      "midi": 55,
      "hit": false,
      "t": 133056.83977083283,
      "d": 346.53441666669096,
      "v": 71
    },
    {
      "midi": 63,
      "hit": false,
      "t": 133063.02788541617,
      "d": 309.4057291666686,
      "v": 79
    },
    {
      "midi": 48,
      "hit": false,
      "t": 133459.06721874952,
      "d": 37.12868749999325,
      "v": 42
    },
    {
      "midi": 60,
      "hit": false,
      "t": 133650.89877083283,
      "d": 315.59384375001537,
      "v": 59
    },
    {
      "midi": 55,
      "hit": false,
      "t": 133650.89877083283,
      "d": 340.3463020833733,
      "v": 58
    },
    {
      "midi": 63,
      "hit": false,
      "t": 133657.08688541618,
      "d": 315.59384375001537,
      "v": 74
    },
    {
      "midi": 48,
      "hit": false,
      "t": 134040.74998958287,
      "d": 80.44548958333326,
      "v": 27
    },
    {
      "midi": 60,
      "hit": false,
      "t": 134263.52211458285,
      "d": 198.01966666668886,
      "v": 59
    },
    {
      "midi": 55,
      "hit": false,
      "t": 134263.52211458285,
      "d": 259.90081250001094,
      "v": 58
    },
    {
      "midi": 63,
      "hit": false,
      "t": 134269.7102291662,
      "d": 228.96023958333535,
      "v": 74
    },
    {
      "midi": 48,
      "hit": false,
      "t": 134659.5614479162,
      "d": 43.31680208334001,
      "v": 58
    },
    {
      "midi": 67,
      "hit": false,
      "t": 134863.7692291662,
      "d": 191.8315520833421,
      "v": 87
    },
    {
      "midi": 62,
      "hit": false,
      "t": 134863.7692291662,
      "d": 198.01966666668886,
      "v": 75
    },
    {
      "midi": 60,
      "hit": false,
      "t": 135074.16512499956,
      "d": 167.07909374998417,
      "v": 69
    },
    {
      "midi": 63,
      "hit": false,
      "t": 135074.16512499956,
      "d": 216.58401041664183,
      "v": 57
    },
    {
      "midi": 55,
      "hit": false,
      "t": 135086.54135416623,
      "d": 179.45532291664858,
      "v": 50
    },
    {
      "midi": 43,
      "hit": false,
      "t": 135290.7491354162,
      "d": 43.31680208334001,
      "v": 40
    },
    {
      "midi": 62,
      "hit": false,
      "t": 135470.20445833288,
      "d": 204.20778125000652,
      "v": 73
    },
    {
      "midi": 59,
      "hit": false,
      "t": 135470.20445833288,
      "d": 228.96023958333535,
      "v": 62
    },
    {
      "midi": 53,
      "hit": false,
      "t": 135470.20445833288,
      "d": 309.4057291666686,
      "v": 64
    },
    {
      "midi": 43,
      "hit": false,
      "t": 135841.49133333287,
      "d": 30.940572916675592,
      "v": 53
    },
    {
      "midi": 59,
      "hit": false,
      "t": 136039.51099999956,
      "d": 346.53441666666185,
      "v": 64
    },
    {
      "midi": 53,
      "hit": false,
      "t": 136051.88722916623,
      "d": 340.3463020833442,
      "v": 71
    },
    {
      "midi": 62,
      "hit": false,
      "t": 136064.2634583329,
      "d": 334.15818750002654,
      "v": 53
    },
    {
      "midi": 43,
      "hit": false,
      "t": 136447.92656249958,
      "d": 37.12868749999325,
      "v": 53
    },
    {
      "midi": 59,
      "hit": false,
      "t": 136633.56999999957,
      "d": 290.84138541668653,
      "v": 63
    },
    {
      "midi": 53,
      "hit": false,
      "t": 136645.94622916623,
      "d": 303.21761458335095,
      "v": 65
    },
    {
      "midi": 62,
      "hit": false,
      "t": 136652.13434374958,
      "d": 266.0889270833286,
      "v": 61
    },
    {
      "midi": 43,
      "hit": false,
      "t": 137017.23310416625,
      "d": 43.31680208334001,
      "v": 41
    },
    {
      "midi": 59,
      "hit": false,
      "t": 137221.44088541626,
      "d": 266.0889270833286,
      "v": 60
    },
    {
      "midi": 62,
      "hit": false,
      "t": 137233.81711458293,
      "d": 266.0889270833286,
      "v": 65
    },
    {
      "midi": 53,
      "hit": false,
      "t": 137233.81711458293,
      "d": 278.465156249993,
      "v": 63
    },
    {
      "midi": 43,
      "hit": false,
      "t": 137636.0445624996,
      "d": 43.31680208334001,
      "v": 41
    },
    {
      "midi": 62,
      "hit": false,
      "t": 137840.2523437496,
      "d": 266.0889270833286,
      "v": 73
    },
    {
      "midi": 59,
      "hit": false,
      "t": 137846.44045833295,
      "d": 235.148354166653,
      "v": 71
    },
    {
      "midi": 53,
      "hit": false,
      "t": 137846.44045833295,
      "d": 266.0889270833286,
      "v": 70
    },
    {
      "midi": 43,
      "hit": false,
      "t": 138223.91544791628,
      "d": 37.12868749999325,
      "v": 52
    },
    {
      "midi": 62,
      "hit": false,
      "t": 138428.1232291663,
      "d": 228.96023958333535,
      "v": 71
    },
    {
      "midi": 53,
      "hit": false,
      "t": 138428.1232291663,
      "d": 241.33646874999977,
      "v": 71
    },
    {
      "midi": 59,
      "hit": false,
      "t": 138434.31134374964,
      "d": 266.0889270833286,
      "v": 75
    },
    {
      "midi": 43,
      "hit": false,
      "t": 138824.16256249964,
      "d": 37.12868749999325,
      "v": 54
    },
    {
      "midi": 59,
      "hit": false,
      "t": 139022.1822291663,
      "d": 247.52458333337563,
      "v": 69
    },
    {
      "midi": 55,
      "hit": false,
      "t": 139022.1822291663,
      "d": 290.84138541671564,
      "v": 67
    },
    {
      "midi": 65,
      "hit": false,
      "t": 139028.37034374964,
      "d": 272.27704166670446,
      "v": 78
    },
    {
      "midi": 62,
      "hit": false,
      "t": 139034.558458333,
      "d": 228.96023958333535,
      "v": 70
    },
    {
      "midi": 43,
      "hit": false,
      "t": 139405.845333333,
      "d": 61.88114583332208,
      "v": 35
    },
    {
      "midi": 59,
      "hit": false,
      "t": 139622.42934374965,
      "d": 259.90081250004005,
      "v": 66
    },
    {
      "midi": 55,
      "hit": false,
      "t": 139622.42934374965,
      "d": 266.0889270833868,
      "v": 68
    },
    {
      "midi": 65,
      "hit": false,
      "t": 139628.617458333,
      "d": 272.27704166670446,
      "v": 74
    },
    {
      "midi": 62,
      "hit": false,
      "t": 139634.80557291635,
      "d": 228.96023958333535,
      "v": 61
    },
    {
      "midi": 43,
      "hit": false,
      "t": 140037.03302083304,
      "d": 30.940572916675592,
      "v": 61
    },
    {
      "midi": 59,
      "hit": false,
      "t": 140235.05268749973,
      "d": 198.01966666665976,
      "v": 70
    },
    {
      "midi": 53,
      "hit": false,
      "t": 140235.05268749973,
      "d": 235.148354166653,
      "v": 70
    },
    {
      "midi": 62,
      "hit": false,
      "t": 140235.05268749973,
      "d": 253.71269791666418,
      "v": 71
    },
    {
      "midi": 43,
      "hit": false,
      "t": 140587.77521874974,
      "d": 37.12868749999325,
      "v": 60
    },
    {
      "midi": 62,
      "hit": false,
      "t": 140804.3592291664,
      "d": 222.7721250000177,
      "v": 76
    },
    {
      "midi": 53,
      "hit": false,
      "t": 140804.3592291664,
      "d": 241.33646875002887,
      "v": 74
    },
    {
      "midi": 59,
      "hit": false,
      "t": 140810.54734374976,
      "d": 216.58401041667094,
      "v": 69
    },
    {
      "midi": 32,
      "hit": false,
      "t": 141225.15102083312,
      "d": 55.693031250004424,
      "v": 22
    },
    {
      "midi": 55,
      "hit": false,
      "t": 141392.23011458304,
      "d": 3353.958104166726,
      "v": 73
    },
    {
      "midi": 63,
      "hit": false,
      "t": 141392.23011458304,
      "d": 5903.461312500411,
      "v": 81
    },
    {
      "midi": 60,
      "hit": false,
      "t": 141392.23011458304,
      "d": 8304.44977083386,
      "v": 75
    },
    {
      "midi": 55,
      "hit": false,
      "t": 141392.23011458313,
      "d": 334.15818750002654,
      "v": 66
    },
    {
      "midi": 56,
      "hit": false,
      "t": 141398.41822916648,
      "d": 297.0295000000042,
      "v": 68
    },
    {
      "midi": 60,
      "hit": false,
      "t": 141398.41822916648,
      "d": 297.0295000000042,
      "v": 70
    },
    {
      "midi": 63,
      "hit": false,
      "t": 141398.41822916648,
      "d": 321.781958333333,
      "v": 75
    },
    {
      "midi": 44,
      "hit": false,
      "t": 141782.08133333316,
      "d": 37.12868749999325,
      "v": 54
    },
    {
      "midi": 60,
      "hit": false,
      "t": 141998.66534374983,
      "d": 259.90081250004005,
      "v": 64
    },
    {
      "midi": 63,
      "hit": false,
      "t": 141998.66534374983,
      "d": 272.27704166670446,
      "v": 76
    },
    {
      "midi": 55,
      "hit": false,
      "t": 142004.85345833318,
      "d": 297.0295000000333,
      "v": 57
    },
    {
      "midi": 56,
      "hit": false,
      "t": 142011.04157291653,
      "d": 247.52458333334653,
      "v": 61
    },
    {
      "midi": 32,
      "hit": false,
      "t": 142388.5165624999,
      "d": 55.693031250004424,
      "v": 27
    },
    {
      "midi": 60,
      "hit": false,
      "t": 142580.34811458323,
      "d": 247.52458333334653,
      "v": 56
    },
    {
      "midi": 63,
      "hit": false,
      "t": 142580.34811458323,
      "d": 259.90081250001094,
      "v": 67
    },
    {
      "midi": 56,
      "hit": false,
      "t": 142586.53622916658,
      "d": 241.33646874999977,
      "v": 59
    },
    {
      "midi": 55,
      "hit": false,
      "t": 142586.53622916658,
      "d": 284.6532708333398,
      "v": 55
    },
    {
      "midi": 44,
      "hit": false,
      "t": 142982.57556249993,
      "d": 49.504916666657664,
      "v": 27
    },
    {
      "midi": 32,
      "hit": false,
      "t": 142994.9517916666,
      "d": 37.12868749999325,
      "v": 11
    },
    {
      "midi": 56,
      "hit": false,
      "t": 143180.5952291666,
      "d": 272.27704166667536,
      "v": 57
    },
    {
      "midi": 63,
      "hit": false,
      "t": 143180.5952291666,
      "d": 272.27704166667536,
      "v": 72
    },
    {
      "midi": 60,
      "hit": false,
      "t": 143180.5952291666,
      "d": 278.4651562500221,
      "v": 59
    },
    {
      "midi": 55,
      "hit": false,
      "t": 143180.5952291666,
      "d": 321.7819583333621,
      "v": 63
    },
    {
      "midi": 44,
      "hit": false,
      "t": 143582.82267708328,
      "d": 55.693031250004424,
      "v": 29
    },
    {
      "midi": 32,
      "hit": false,
      "t": 143601.3870208333,
      "d": 43.31680208334001,
      "v": 15
    },
    {
      "midi": 60,
      "hit": false,
      "t": 143774.65422916663,
      "d": 272.27704166667536,
      "v": 60
    },
    {
      "midi": 56,
      "hit": false,
      "t": 143780.84234374997,
      "d": 266.0889270833286,
      "v": 58
    },
    {
      "midi": 63,
      "hit": false,
      "t": 143780.84234374997,
      "d": 278.465156249993,
      "v": 69
    },
    {
      "midi": 55,
      "hit": false,
      "t": 143780.84234374997,
      "d": 327.9700729166507,
      "v": 67
    },
    {
      "midi": 44,
      "hit": false,
      "t": 144164.50544791663,
      "d": 43.31680208334001,
      "v": 41
    },
    {
      "midi": 32,
      "hit": false,
      "t": 144164.50544791663,
      "d": 49.50491666668677,
      "v": 43
    },
    {
      "midi": 56,
      "hit": false,
      "t": 144368.71322916663,
      "d": 315.59384375001537,
      "v": 66
    },
    {
      "midi": 60,
      "hit": false,
      "t": 144374.90134374998,
      "d": 297.0295000000042,
      "v": 66
    },
    {
      "midi": 63,
      "hit": false,
      "t": 144374.90134374998,
      "d": 321.781958333333,
      "v": 72
    },
    {
      "midi": 55,
      "hit": false,
      "t": 144374.90134374998,
      "d": 334.15818749999744,
      "v": 71
    },
    {
      "midi": 63,
      "hit": false,
      "t": 144764.75256249998,
      "d": 142.32663541668444,
      "v": 60
    },
    {
      "midi": 60,
      "hit": false,
      "t": 144770.94067708333,
      "d": 117.5741770833265,
      "v": 76
    },
    {
      "midi": 56,
      "hit": false,
      "t": 144770.94067708333,
      "d": 123.76229166667326,
      "v": 76
    },
    {
      "midi": 65,
      "hit": false,
      "t": 144783.31690625,
      "d": 129.95040625002002,
      "v": 87
    },
    {
      "midi": 56,
      "hit": false,
      "t": 144944.20788541646,
      "d": 2215.345020833629,
      "v": 75
    },
    {
      "midi": 56,
      "hit": false,
      "t": 145340.24721875,
      "d": 179.4553229166777,
      "v": 68
    },
    {
      "midi": 60,
      "hit": false,
      "t": 145352.62344791667,
      "d": 173.26720833336003,
      "v": 56
    },
    {
      "midi": 63,
      "hit": false,
      "t": 145352.62344791667,
      "d": 173.26720833336003,
      "v": 59
    },
    {
      "midi": 65,
      "hit": false,
      "t": 145352.62344791667,
      "d": 173.26720833336003,
      "v": 76
    },
    {
      "midi": 56,
      "hit": false,
      "t": 145575.3955729167,
      "d": 198.01966666665976,
      "v": 58
    },
    {
      "midi": 60,
      "hit": false,
      "t": 145587.77180208336,
      "d": 185.64343749999534,
      "v": 80
    },
    {
      "midi": 63,
      "hit": false,
      "t": 145587.77180208336,
      "d": 191.8315520833421,
      "v": 78
    },
    {
      "midi": 65,
      "hit": false,
      "t": 145587.77180208336,
      "d": 191.8315520833421,
      "v": 74
    },
    {
      "midi": 41,
      "hit": false,
      "t": 145946.6824479167,
      "d": 30.940572916675592,
      "v": 51
    },
    {
      "midi": 56,
      "hit": false,
      "t": 146132.3258854167,
      "d": 216.58401041667094,
      "v": 62
    },
    {
      "midi": 60,
      "hit": false,
      "t": 146132.3258854167,
      "d": 216.58401041667094,
      "v": 59
    },
    {
      "midi": 63,
      "hit": false,
      "t": 146144.70211458337,
      "d": 216.58401041667094,
      "v": 53
    },
    {
      "midi": 65,
      "hit": false,
      "t": 146150.89022916672,
      "d": 222.7721249999886,
      "v": 76
    },
    {
      "midi": 41,
      "hit": false,
      "t": 146540.74144791672,
      "d": 43.31680208334001,
      "v": 53
    },
    {
      "midi": 56,
      "hit": false,
      "t": 146744.94922916673,
      "d": 216.58401041670004,
      "v": 68
    },
    {
      "midi": 60,
      "hit": false,
      "t": 146751.13734375007,
      "d": 191.8315520833421,
      "v": 64
    },
    {
      "midi": 63,
      "hit": false,
      "t": 146763.51357291674,
      "d": 222.7721250000177,
      "v": 56
    },
    {
      "midi": 65,
      "hit": false,
      "t": 146769.70168750008,
      "d": 241.33646874999977,
      "v": 73
    },
    {
      "midi": 41,
      "hit": false,
      "t": 147140.98856250008,
      "d": 55.693031250004424,
      "v": 39
    },
    {
      "midi": 62,
      "hit": false,
      "t": 147339.0082291668,
      "d": 2766.087218750152,
      "v": 52
    },
    {
      "midi": 62,
      "hit": false,
      "t": 147351.3844583334,
      "d": 259.90081250004005,
      "v": 64
    },
    {
      "midi": 60,
      "hit": false,
      "t": 147351.3844583334,
      "d": 278.4651562500512,
      "v": 53
    },
    {
      "midi": 55,
      "hit": false,
      "t": 147357.57257291675,
      "d": 290.84138541671564,
      "v": 38
    },
    {
      "midi": 67,
      "hit": false,
      "t": 147363.7606875001,
      "d": 284.6532708333689,
      "v": 61
    },
    {
      "midi": 67,
      "hit": false,
      "t": 147376.1369166668,
      "d": 4603.957250000152,
      "v": 42
    },
    {
      "midi": 43,
      "hit": false,
      "t": 147735.04756250014,
      "d": 37.12868749999325,
      "v": 52
    },
    {
      "midi": 55,
      "hit": false,
      "t": 147933.0672291668,
      "d": 309.4057291667268,
      "v": 59
    },
    {
      "midi": 62,
      "hit": false,
      "t": 147939.25534375015,
      "d": 272.27704166667536,
      "v": 70
    },
    {
      "midi": 67,
      "hit": false,
      "t": 147945.4434583335,
      "d": 284.6532708333398,
      "v": 71
    },
    {
      "midi": 60,
      "hit": false,
      "t": 147945.4434583335,
      "d": 290.84138541668653,
      "v": 63
    },
    {
      "midi": 43,
      "hit": false,
      "t": 148329.1065625002,
      "d": 30.940572916675592,
      "v": 53
    },
    {
      "midi": 55,
      "hit": false,
      "t": 148520.93811458355,
      "d": 278.4651562500221,
      "v": 57
    },
    {
      "midi": 62,
      "hit": false,
      "t": 148527.1262291669,
      "d": 228.96023958333535,
      "v": 67
    },
    {
      "midi": 60,
      "hit": false,
      "t": 148527.1262291669,
      "d": 241.33646874999977,
      "v": 63
    },
    {
      "midi": 67,
      "hit": false,
      "t": 148533.31434375024,
      "d": 241.33646874999977,
      "v": 65
    },
    {
      "midi": 43,
      "hit": false,
      "t": 148916.9774479169,
      "d": 37.12868749999325,
      "v": 55
    },
    {
      "midi": 62,
      "hit": false,
      "t": 149102.6208854169,
      "d": 241.33646874999977,
      "v": 71
    },
    {
      "midi": 60,
      "hit": false,
      "t": 149102.6208854169,
      "d": 247.52458333334653,
      "v": 71
    },
    {
      "midi": 67,
      "hit": false,
      "t": 149108.80900000024,
      "d": 241.33646874999977,
      "v": 68
    },
    {
      "midi": 55,
      "hit": false,
      "t": 149108.80900000024,
      "d": 290.84138541665743,
      "v": 59
    },
    {
      "midi": 43,
      "hit": false,
      "t": 149498.66021875024,
      "d": 37.12868749999325,
      "v": 55
    },
    {
      "midi": 62,
      "hit": false,
      "t": 149696.6798854169,
      "d": 408.41556250004214,
      "v": 71
    },
    {
      "midi": 55,
      "hit": false,
      "t": 149696.6798854169,
      "d": 439.35613541671773,
      "v": 56
    },
    {
      "midi": 59,
      "hit": false,
      "t": 149702.86800000025,
      "d": 408.41556250004214,
      "v": 54
    },
    {
      "midi": 59,
      "hit": false,
      "t": 149709.0561145836,
      "d": 2357.6716562500515,
      "v": 54
    },
    {
      "midi": 67,
      "hit": false,
      "t": 149715.2442291669,
      "d": 365.09876041667303,
      "v": 64
    },
    {
      "midi": 53,
      "hit": false,
      "t": 150098.9073333336,
      "d": 37.12868750002235,
      "v": 45
    },
    {
      "midi": 55,
      "hit": false,
      "t": 150296.9270000003,
      "d": 408.41556250004214,
      "v": 52
    },
    {
      "midi": 62,
      "hit": false,
      "t": 150303.11511458363,
      "d": 309.4057291666977,
      "v": 59
    },
    {
      "midi": 59,
      "hit": false,
      "t": 150309.30322916698,
      "d": 303.21761458335095,
      "v": 50
    },
    {
      "midi": 67,
      "hit": false,
      "t": 150315.49134375033,
      "d": 259.90081250001094,
      "v": 56
    },
    {
      "midi": 53,
      "hit": false,
      "t": 150686.77821875032,
      "d": 37.12868750002235,
      "v": 48
    },
    {
      "midi": 55,
      "hit": false,
      "t": 150884.797885417,
      "d": 352.7225312500086,
      "v": 59
    },
    {
      "midi": 67,
      "hit": false,
      "t": 150897.17411458367,
      "d": 247.52458333334653,
      "v": 58
    },
    {
      "midi": 59,
      "hit": false,
      "t": 150897.17411458367,
      "d": 278.4651562500221,
      "v": 48
    },
    {
      "midi": 62,
      "hit": false,
      "t": 150897.17411458367,
      "d": 278.4651562500221,
      "v": 61
    },
    {
      "midi": 53,
      "hit": false,
      "t": 151262.27287500034,
      "d": 24.752458333328832,
      "v": 61
    },
    {
      "midi": 55,
      "hit": false,
      "t": 151466.48065625035,
      "d": 297.0295000000624,
      "v": 74
    },
    {
      "midi": 67,
      "hit": false,
      "t": 151472.6687708337,
      "d": 222.7721250000177,
      "v": 82
    },
    {
      "midi": 59,
      "hit": false,
      "t": 151472.6687708337,
      "d": 284.6532708333689,
      "v": 64
    },
    {
      "midi": 62,
      "hit": false,
      "t": 151478.85688541704,
      "d": 272.27704166667536,
      "v": 66
    },
    {
      "midi": 65,
      "hit": false,
      "t": 151695.44089583372,
      "d": 117.57417708335561,
      "v": 39
    },
    {
      "midi": 82,
      "hit": false,
      "t": 151831.5794166667,
      "d": 1361.385208333406,
      "v": 96
    },
    {
      "midi": 46,
      "hit": false,
      "t": 151887.27244791706,
      "d": 55.693031250004424,
      "v": 48
    },
    {
      "midi": 55,
      "hit": false,
      "t": 152072.91588541705,
      "d": 1491.3356145833677,
      "v": 74
    },
    {
      "midi": 58,
      "hit": false,
      "t": 152072.91588541705,
      "d": 1534.6524166667077,
      "v": 74
    },
    {
      "midi": 63,
      "hit": false,
      "t": 152072.91588541705,
      "d": 1782.1770000000251,
      "v": 79
    },
    {
      "midi": 67,
      "hit": false,
      "t": 152079.1040000004,
      "d": 1441.830697916681,
      "v": 74
    },
    {
      "midi": 58,
      "hit": false,
      "t": 152097.66834375032,
      "d": 2165.8401041666802,
      "v": 59
    },
    {
      "midi": 67,
      "hit": false,
      "t": 152103.85645833367,
      "d": 2165.8401041666802,
      "v": 75
    },
    {
      "midi": 63,
      "hit": false,
      "t": 152110.04457291702,
      "d": 4659.650281250011,
      "v": 53
    },
    {
      "midi": 79,
      "hit": false,
      "t": 152636.0343125001,
      "d": 272.27704166667536,
      "v": 97
    },
    {
      "midi": 75,
      "hit": false,
      "t": 153056.82610416677,
      "d": 136.13852083333768,
      "v": 81
    },
    {
      "midi": 70,
      "hit": false,
      "t": 153279.5982291668,
      "d": 117.5741770833265,
      "v": 81
    },
    {
      "midi": 72,
      "hit": false,
      "t": 153440.48920833346,
      "d": 111.38606250000885,
      "v": 76
    },
    {
      "midi": 75,
      "hit": false,
      "t": 153607.56830208347,
      "d": 136.13852083333768,
      "v": 64
    },
    {
      "midi": 55,
      "hit": false,
      "t": 153657.07321875042,
      "d": 142.32663541665534,
      "v": 40
    },
    {
      "midi": 78,
      "hit": false,
      "t": 153861.28100000013,
      "d": 111.38606250000885,
      "v": 104
    },
    {
      "midi": 55,
      "hit": false,
      "t": 153873.6572291671,
      "d": 569.3065416666504,
      "v": 70
    },
    {
      "midi": 58,
      "hit": false,
      "t": 153879.84534375044,
      "d": 488.8610520833172,
      "v": 93
    },
    {
      "midi": 77,
      "hit": false,
      "t": 153997.41952083347,
      "d": 99.00983333334443,
      "v": 82
    },
    {
      "midi": 75,
      "hit": false,
      "t": 154152.12238541682,
      "d": 99.00983333334443,
      "v": 75
    },
    {
      "midi": 51,
      "hit": false,
      "t": 154257.32033333377,
      "d": 37.12868749999325,
      "v": 40
    },
    {
      "midi": 77,
      "hit": false,
      "t": 154294.4490208335,
      "d": 117.5741770833265,
      "v": 88
    },
    {
      "midi": 56,
      "hit": false,
      "t": 154467.71622916707,
      "d": 396.0393333333195,
      "v": 80
    },
    {
      "midi": 60,
      "hit": false,
      "t": 154467.71622916707,
      "d": 519.8016249999928,
      "v": 70
    },
    {
      "midi": 75,
      "hit": false,
      "t": 154473.90434375015,
      "d": 513.6135104166751,
      "v": 84
    },
    {
      "midi": 60,
      "hit": false,
      "t": 154492.46868750037,
      "d": 2196.7806770833267,
      "v": 53
    },
    {
      "midi": 68,
      "hit": false,
      "t": 154492.46868750037,
      "d": 2370.0478854166577,
      "v": 61
    },
    {
      "midi": 72,
      "hit": false,
      "t": 155018.4584270835,
      "d": 346.53441666669096,
      "v": 79
    },
    {
      "midi": 56,
      "hit": false,
      "t": 155049.39900000038,
      "d": 1033.415135416697,
      "v": 31
    },
    {
      "midi": 51,
      "hit": false,
      "t": 155061.77522916705,
      "d": 1014.8507916666858,
      "v": 29
    },
    {
      "midi": 75,
      "hit": false,
      "t": 155433.06210416686,
      "d": 142.32663541665534,
      "v": 86
    },
    {
      "midi": 60,
      "hit": false,
      "t": 155439.25021875039,
      "d": 730.1975208333752,
      "v": 60
    },
    {
      "midi": 63,
      "hit": false,
      "t": 155439.25021875039,
      "d": 730.1975208333752,
      "v": 74
    },
    {
      "midi": 68,
      "hit": false,
      "t": 155445.43833333373,
      "d": 655.9401458333596,
      "v": 64
    },
    {
      "midi": 72,
      "hit": false,
      "t": 156027.12110416684,
      "d": 117.5741770833265,
      "v": 85
    },
    {
      "midi": 44,
      "hit": false,
      "t": 156058.06167708372,
      "d": 43.31680208336911,
      "v": 42
    },
    {
      "midi": 60,
      "hit": false,
      "t": 156249.8932291671,
      "d": 383.6631041666842,
      "v": 74
    },
    {
      "midi": 65,
      "hit": false,
      "t": 156256.08134375044,
      "d": 594.0589999999793,
      "v": 76
    },
    {
      "midi": 68,
      "hit": false,
      "t": 156256.08134375044,
      "d": 606.4352291666728,
      "v": 78
    },
    {
      "midi": 63,
      "hit": false,
      "t": 156262.2694583338,
      "d": 525.9897395833104,
      "v": 64
    },
    {
      "midi": 84,
      "hit": false,
      "t": 156274.6456875002,
      "d": 321.7819583333621,
      "v": 88
    },
    {
      "midi": 82,
      "hit": false,
      "t": 156645.9325625002,
      "d": 742.5737500000687,
      "v": 86
    },
    {
      "midi": 51,
      "hit": false,
      "t": 156683.06125000044,
      "d": 37.12868749999325,
      "v": 61
    },
    {
      "midi": 63,
      "hit": false,
      "t": 156850.14034375036,
      "d": 2320.5429687500873,
      "v": 46
    },
    {
      "midi": 58,
      "hit": false,
      "t": 156856.32845833377,
      "d": 1441.830697916681,
      "v": 68
    },
    {
      "midi": 67,
      "hit": false,
      "t": 156856.32845833377,
      "d": 1559.4048750000075,
      "v": 73
    },
    {
      "midi": 63,
      "hit": false,
      "t": 156856.32845833377,
      "d": 1720.295854166674,
      "v": 72
    },
    {
      "midi": 58,
      "hit": false,
      "t": 156868.70468750037,
      "d": 2122.5233020833984,
      "v": 59
    },
    {
      "midi": 67,
      "hit": false,
      "t": 156874.89280208372,
      "d": 2295.7905104167294,
      "v": 57
    },
    {
      "midi": 79,
      "hit": false,
      "t": 157438.011229167,
      "d": 123.76229166667326,
      "v": 94
    },
    {
      "midi": 75,
      "hit": false,
      "t": 157821.67433333368,
      "d": 142.32663541665534,
      "v": 73
    },
    {
      "midi": 70,
      "hit": false,
      "t": 158007.31777083367,
      "d": 86.63360416668002,
      "v": 69
    },
    {
      "midi": 72,
      "hit": false,
      "t": 158168.20875000034,
      "d": 117.5741770833265,
      "v": 63
    },
    {
      "midi": 75,
      "hit": false,
      "t": 158347.664072917,
      "d": 148.5147500000021,
      "v": 89
    },
    {
      "midi": 51,
      "hit": false,
      "t": 158428.10956250044,
      "d": 30.940572916675592,
      "v": 11
    },
    {
      "midi": 77,
      "hit": false,
      "t": 158582.81242708367,
      "d": 346.53441666666185,
      "v": 92
    },
    {
      "midi": 55,
      "hit": false,
      "t": 158607.56488541712,
      "d": 160.8909791666665,
      "v": 79
    },
    {
      "midi": 58,
      "hit": false,
      "t": 158613.75300000046,
      "d": 154.70286458331975,
      "v": 84
    },
    {
      "midi": 58,
      "hit": false,
      "t": 158811.77266666712,
      "d": 235.1483541666821,
      "v": 96
    },
    {
      "midi": 63,
      "hit": false,
      "t": 158811.77266666712,
      "d": 284.6532708333398,
      "v": 94
    },
    {
      "midi": 55,
      "hit": false,
      "t": 158817.96078125047,
      "d": 204.20778125000652,
      "v": 80
    },
    {
      "midi": 72,
      "hit": false,
      "t": 158972.66364583367,
      "d": 117.5741770833265,
      "v": 82
    },
    {
      "midi": 51,
      "hit": false,
      "t": 159022.16856250048,
      "d": 37.12868749999325,
      "v": 44
    },
    {
      "midi": 75,
      "hit": false,
      "t": 159195.43577083366,
      "d": 581.6827708334022,
      "v": 92
    },
    {
      "midi": 63,
      "hit": false,
      "t": 159214.0001145838,
      "d": 2295.790510416671,
      "v": 39
    },
    {
      "midi": 60,
      "hit": false,
      "t": 159220.18822916714,
      "d": 2283.4142812499776,
      "v": 52
    },
    {
      "midi": 68,
      "hit": false,
      "t": 159226.37634375048,
      "d": 2295.790510416642,
      "v": 58
    },
    {
      "midi": 60,
      "hit": false,
      "t": 159251.12880208378,
      "d": 1076.731937500008,
      "v": 83
    },
    {
      "midi": 63,
      "hit": false,
      "t": 159288.25748958378,
      "d": 148.5147500000021,
      "v": 56
    },
    {
      "midi": 68,
      "hit": false,
      "t": 159597.66321875044,
      "d": 847.7716979166726,
      "v": 80
    },
    {
      "midi": 63,
      "hit": false,
      "t": 159603.8513333338,
      "d": 1336.6327499999898,
      "v": 81
    },
    {
      "midi": 56,
      "hit": false,
      "t": 159616.22756250045,
      "d": 693.0688333333237,
      "v": 53
    },
    {
      "midi": 51,
      "hit": false,
      "t": 159616.22756250045,
      "d": 1268.563489583321,
      "v": 48
    },
    {
      "midi": 77,
      "hit": false,
      "t": 159826.62345833375,
      "d": 235.1483541666821,
      "v": 85
    },
    {
      "midi": 72,
      "hit": false,
      "t": 160191.72221875042,
      "d": 674.5044895833125,
      "v": 86
    },
    {
      "midi": 60,
      "hit": false,
      "t": 160457.81114583378,
      "d": 464.10859374998836,
      "v": 62
    },
    {
      "midi": 56,
      "hit": false,
      "t": 160457.81114583378,
      "d": 470.2967083333351,
      "v": 61
    },
    {
      "midi": 56,
      "hit": false,
      "t": 160983.80088541712,
      "d": 346.53441666669096,
      "v": 73
    },
    {
      "midi": 60,
      "hit": false,
      "t": 160996.17711458378,
      "d": 352.7225312500377,
      "v": 47
    },
    {
      "midi": 63,
      "hit": false,
      "t": 160996.17711458378,
      "d": 532.1778541666863,
      "v": 76
    },
    {
      "midi": 65,
      "hit": false,
      "t": 161002.36522916713,
      "d": 2320.54296875,
      "v": 71
    },
    {
      "midi": 51,
      "hit": false,
      "t": 161373.65210416715,
      "d": 37.12868749999325,
      "v": 45
    },
    {
      "midi": 65,
      "hit": false,
      "t": 161571.67177083378,
      "d": 1751.2364270833205,
      "v": 55
    },
    {
      "midi": 62,
      "hit": false,
      "t": 161577.85988541713,
      "d": 2301.9786249999597,
      "v": 58
    },
    {
      "midi": 60,
      "hit": false,
      "t": 161584.04800000048,
      "d": 2283.4142812499485,
      "v": 40
    },
    {
      "midi": 68,
      "hit": false,
      "t": 161584.04800000048,
      "d": 2345.2954270832706,
      "v": 53
    },
    {
      "midi": 62,
      "hit": false,
      "t": 161590.2361145838,
      "d": 1676.979052083334,
      "v": 74
    },
    {
      "midi": 60,
      "hit": false,
      "t": 161590.2361145838,
      "d": 1695.5433958333451,
      "v": 74
    },
    {
      "midi": 68,
      "hit": false,
      "t": 161596.42422916714,
      "d": 1658.4147083333228,
      "v": 78
    },
    {
      "midi": 74,
      "hit": false,
      "t": 161955.33487500052,
      "d": 148.5147500000021,
      "v": 99
    },
    {
      "midi": 80,
      "hit": false,
      "t": 162184.29511458386,
      "d": 303.21761458332185,
      "v": 81
    },
    {
      "midi": 79,
      "hit": false,
      "t": 162567.95821875051,
      "d": 167.07909375001327,
      "v": 99
    },
    {
      "midi": 77,
      "hit": false,
      "t": 162778.35411458387,
      "d": 266.0889270833286,
      "v": 88
    },
    {
      "midi": 83,
      "hit": false,
      "t": 163063.0073854172,
      "d": 55.693031250004424,
      "v": 66
    },
    {
      "midi": 84,
      "hit": false,
      "t": 163143.45287500054,
      "d": 581.682770833344,
      "v": 79
    },
    {
      "midi": 62,
      "hit": false,
      "t": 163372.4131145838,
      "d": 519.8016250000219,
      "v": 83
    },
    {
      "midi": 68,
      "hit": false,
      "t": 163378.60122916714,
      "d": 532.1778541666863,
      "v": 72
    },
    {
      "midi": 60,
      "hit": false,
      "t": 163384.78934375048,
      "d": 513.6135104166751,
      "v": 74
    },
    {
      "midi": 65,
      "hit": false,
      "t": 163384.78934375048,
      "d": 600.2471145833551,
      "v": 86
    },
    {
      "midi": 56,
      "hit": false,
      "t": 163799.3930208338,
      "d": 30.940572916675592,
      "v": 27
    },
    {
      "midi": 67,
      "hit": false,
      "t": 163960.28400000042,
      "d": 4610.145364583412,
      "v": 75
    },
    {
      "midi": 62,
      "hit": false,
      "t": 163960.28400000042,
      "d": 4616.3334791667585,
      "v": 49
    },
    {
      "midi": 60,
      "hit": false,
      "t": 163966.47211458377,
      "d": 2332.9191979166935,
      "v": 41
    },
    {
      "midi": 62,
      "hit": false,
      "t": 163966.47211458383,
      "d": 1918.3155208333337,
      "v": 61
    },
    {
      "midi": 67,
      "hit": false,
      "t": 163966.47211458383,
      "d": 1918.3155208333337,
      "v": 82
    },
    {
      "midi": 60,
      "hit": false,
      "t": 163966.47211458383,
      "d": 1924.5036354166805,
      "v": 52
    },
    {
      "midi": 83,
      "hit": false,
      "t": 164003.60080208388,
      "d": 154.70286458331975,
      "v": 99
    },
    {
      "midi": 86,
      "hit": false,
      "t": 164170.67989583386,
      "d": 167.07909375001327,
      "v": 82
    },
    {
      "midi": 80,
      "hit": false,
      "t": 164368.69956250055,
      "d": 123.76229166667326,
      "v": 82
    },
    {
      "midi": 79,
      "hit": false,
      "t": 164548.15488541723,
      "d": 365.09876041667303,
      "v": 99
    },
    {
      "midi": 77,
      "hit": false,
      "t": 164956.57044791724,
      "d": 346.53441666666185,
      "v": 83
    },
    {
      "midi": 75,
      "hit": false,
      "t": 165538.25321875056,
      "d": 173.26720833333093,
      "v": 92
    },
    {
      "midi": 67,
      "hit": false,
      "t": 165946.6687812505,
      "d": 297.0294999999751,
      "v": 80
    },
    {
      "midi": 62,
      "hit": false,
      "t": 165946.6687812505,
      "d": 315.59384374998626,
      "v": 103
    },
    {
      "midi": 60,
      "hit": false,
      "t": 165946.6687812505,
      "d": 327.9700729166507,
      "v": 95
    },
    {
      "midi": 74,
      "hit": false,
      "t": 166126.12410416722,
      "d": 173.26720833333093,
      "v": 80
    },
    {
      "midi": 55,
      "hit": false,
      "t": 166144.68844791717,
      "d": 37.12868749999325,
      "v": 71
    },
    {
      "midi": 59,
      "hit": false,
      "t": 166299.39131250046,
      "d": 2289.6023958333826,
      "v": 53
    },
    {
      "midi": 67,
      "hit": false,
      "t": 166324.14377083382,
      "d": 2246.2855937500135,
      "v": 71
    },
    {
      "midi": 62,
      "hit": false,
      "t": 166324.14377083382,
      "d": 2252.4737083333603,
      "v": 80
    },
    {
      "midi": 59,
      "hit": false,
      "t": 166324.14377083382,
      "d": 2264.8499375000247,
      "v": 61
    },
    {
      "midi": 71,
      "hit": false,
      "t": 166726.37121875054,
      "d": 111.38606250000885,
      "v": 80
    },
    {
      "midi": 68,
      "hit": false,
      "t": 167283.30153125056,
      "d": 228.96023958333535,
      "v": 49
    },
    {
      "midi": 67,
      "hit": false,
      "t": 167561.76668750055,
      "d": 922.0290729167464,
      "v": 30
    },
    {
      "midi": 55,
      "hit": false,
      "t": 168706.56788541717,
      "d": 167.07909375001327,
      "v": 70
    },
    {
      "midi": 63,
      "hit": false,
      "t": 168706.56788541717,
      "d": 167.07909375001327,
      "v": 78
    },
    {
      "midi": 60,
      "hit": false,
      "t": 168712.75600000052,
      "d": 148.5147500000021,
      "v": 83
    },
    {
      "midi": 48,
      "hit": false,
      "t": 169102.60721875052,
      "d": 37.12868749999325,
      "v": 42
    },
    {
      "midi": 63,
      "hit": false,
      "t": 169300.62688541718,
      "d": 228.96023958333535,
      "v": 66
    },
    {
      "midi": 60,
      "hit": false,
      "t": 169300.62688541718,
      "d": 235.1483541666821,
      "v": 74
    },
    {
      "midi": 55,
      "hit": false,
      "t": 169306.81500000053,
      "d": 228.96023958333535,
      "v": 64
    },
    {
      "midi": 48,
      "hit": false,
      "t": 169696.66621875053,
      "d": 37.12868749999325,
      "v": 40
    },
    {
      "midi": 63,
      "hit": false,
      "t": 169894.6858854172,
      "d": 198.01966666668886,
      "v": 62
    },
    {
      "midi": 60,
      "hit": false,
      "t": 169894.6858854172,
      "d": 204.20778125003562,
      "v": 57
    },
    {
      "midi": 55,
      "hit": false,
      "t": 169900.87400000053,
      "d": 204.20778125003562,
      "v": 53
    },
    {
      "midi": 48,
      "hit": false,
      "t": 170290.72521875057,
      "d": 43.31680208334001,
      "v": 51
    },
    {
      "midi": 60,
      "hit": false,
      "t": 170488.74488541723,
      "d": 210.39589583335328,
      "v": 69
    },
    {
      "midi": 55,
      "hit": false,
      "t": 170488.74488541723,
      "d": 266.0889270833577,
      "v": 59
    },
    {
      "midi": 63,
      "hit": false,
      "t": 170494.93300000057,
      "d": 210.39589583335328,
      "v": 74
    },
    {
      "midi": 43,
      "hit": false,
      "t": 170884.78421875057,
      "d": 43.31680208334001,
      "v": 50
    },
    {
      "midi": 53,
      "hit": false,
      "t": 171082.80388541723,
      "d": 253.71269791666418,
      "v": 57
    },
    {
      "midi": 62,
      "hit": false,
      "t": 171082.80388541723,
      "d": 266.0889270833286,
      "v": 52
    },
    {
      "midi": 59,
      "hit": false,
      "t": 171088.99200000058,
      "d": 235.148354166653,
      "v": 52
    },
    {
      "midi": 43,
      "hit": false,
      "t": 171478.84321875055,
      "d": 49.504916666657664,
      "v": 50
    },
    {
      "midi": 53,
      "hit": false,
      "t": 171676.8628854172,
      "d": 222.7721250000177,
      "v": 59
    },
    {
      "midi": 62,
      "hit": false,
      "t": 171676.8628854172,
      "d": 235.1483541666821,
      "v": 62
    },
    {
      "midi": 59,
      "hit": false,
      "t": 171683.05100000056,
      "d": 210.39589583332418,
      "v": 54
    },
    {
      "midi": 43,
      "hit": false,
      "t": 172072.90221875056,
      "d": 43.31680208334001,
      "v": 40
    },
    {
      "midi": 62,
      "hit": false,
      "t": 172270.92188541722,
      "d": 198.01966666668886,
      "v": 71
    },
    {
      "midi": 53,
      "hit": false,
      "t": 172270.92188541722,
      "d": 210.39589583335328,
      "v": 66
    },
    {
      "midi": 59,
      "hit": false,
      "t": 172277.11000000057,
      "d": 148.5147500000021,
      "v": 64
    },
    {
      "midi": 43,
      "hit": false,
      "t": 172666.96121875057,
      "d": 30.940572916675592,
      "v": 69
    },
    {
      "midi": 60,
      "hit": false,
      "t": 173063.00055208392,
      "d": 154.70286458331975,
      "v": 66
    },
    {
      "midi": 63,
      "hit": false,
      "t": 173063.00055208392,
      "d": 179.45532291664858,
      "v": 72
    },
    {
      "midi": 61,
      "hit": false,
      "t": 173261.02021875058,
      "d": 136.13852083333768,
      "v": 53
    },
    {
      "midi": 64,
      "hit": false,
      "t": 173261.02021875058,
      "d": 167.07909375001327,
      "v": 59
    },
    {
      "midi": 59,
      "hit": false,
      "t": 173459.03988541727,
      "d": 259.90081250001094,
      "v": 69
    },
    {
      "midi": 65,
      "hit": false,
      "t": 173459.03988541727,
      "d": 309.4057291666977,
      "v": 74
    },
    {
      "midi": 58,
      "hit": false,
      "t": 173465.2280000006,
      "d": 30.940572916675592,
      "v": 57
    },
    {
      "midi": 62,
      "hit": false,
      "t": 173465.2280000006,
      "d": 259.90081250001094,
      "v": 53
    },
    {
      "midi": 55,
      "hit": false,
      "t": 173465.2280000006,
      "d": 278.4651562500221,
      "v": 28
    },
    {
      "midi": 43,
      "hit": false,
      "t": 173855.07921875064,
      "d": 49.504916666657664,
      "v": 40
    },
    {
      "midi": 62,
      "hit": false,
      "t": 174053.0988854173,
      "d": 210.39589583335328,
      "v": 49
    },
    {
      "midi": 65,
      "hit": false,
      "t": 174053.0988854173,
      "d": 241.33646875002887,
      "v": 56
    },
    {
      "midi": 59,
      "hit": false,
      "t": 174059.28700000065,
      "d": 216.58401041667094,
      "v": 51
    },
    {
      "midi": 55,
      "hit": false,
      "t": 174059.28700000065,
      "d": 222.7721250000177,
      "v": 51
    },
    {
      "midi": 43,
      "hit": false,
      "t": 174449.13821875065,
      "d": 30.940572916675592,
      "v": 57
    },
    {
      "midi": 62,
      "hit": false,
      "t": 174647.15788541734,
      "d": 173.26720833336003,
      "v": 53
    },
    {
      "midi": 59,
      "hit": false,
      "t": 174647.15788541734,
      "d": 191.8315520833712,
      "v": 49
    },
    {
      "midi": 65,
      "hit": false,
      "t": 174653.3460000007,
      "d": 222.7721250000177,
      "v": 63
    },
    {
      "midi": 55,
      "hit": false,
      "t": 174653.3460000007,
      "d": 247.52458333334653,
      "v": 53
    },
    {
      "midi": 43,
      "hit": false,
      "t": 175043.1972187507,
      "d": 37.12868749999325,
      "v": 58
    },
    {
      "midi": 62,
      "hit": false,
      "t": 175241.21688541735,
      "d": 266.0889270833286,
      "v": 60
    },
    {
      "midi": 53,
      "hit": false,
      "t": 175241.21688541735,
      "d": 284.6532708333398,
      "v": 59
    },
    {
      "midi": 59,
      "hit": false,
      "t": 175247.4050000007,
      "d": 235.148354166653,
      "v": 61
    },
    {
      "midi": 43,
      "hit": false,
      "t": 175637.2562187507,
      "d": 43.31680208334001,
      "v": 43
    },
    {
      "midi": 59,
      "hit": false,
      "t": 175835.27588541736,
      "d": 222.7721250000177,
      "v": 59
    },
    {
      "midi": 62,
      "hit": false,
      "t": 175835.27588541736,
      "d": 241.33646875002887,
      "v": 60
    },
    {
      "midi": 53,
      "hit": false,
      "t": 175841.4640000007,
      "d": 247.52458333334653,
      "v": 59
    },
    {
      "midi": 43,
      "hit": false,
      "t": 176231.3152187507,
      "d": 43.31680208334001,
      "v": 51
    },
    {
      "midi": 59,
      "hit": false,
      "t": 176429.33488541737,
      "d": 389.85121875003097,
      "v": 70
    },
    {
      "midi": 62,
      "hit": false,
      "t": 176429.33488541737,
      "d": 457.9204791666998,
      "v": 76
    },
    {
      "midi": 53,
      "hit": false,
      "t": 176435.5230000007,
      "d": 272.27704166667536,
      "v": 69
    },
    {
      "midi": 48,
      "hit": false,
      "t": 176825.37421875075,
      "d": 61.88114583332208,
      "v": 36
    },
    {
      "midi": 63,
      "hit": false,
      "t": 177023.3938854174,
      "d": 519.8016250000219,
      "v": 79
    },
    {
      "midi": 60,
      "hit": false,
      "t": 177023.3938854174,
      "d": 606.4352291667019,
      "v": 76
    },
    {
      "midi": 55,
      "hit": false,
      "t": 177029.58200000075,
      "d": 482.67293749999953,
      "v": 73
    },
    {
      "midi": 48,
      "hit": false,
      "t": 177419.43321875075,
      "d": 37.12868749999325,
      "v": 70
    },
    {
      "midi": 53,
      "hit": false,
      "t": 177617.4528854174,
      "d": 136.13852083336678,
      "v": 79
    },
    {
      "midi": 62,
      "hit": false,
      "t": 177617.4528854174,
      "d": 204.20778125006473,
      "v": 73
    },
    {
      "midi": 59,
      "hit": false,
      "t": 177623.64100000076,
      "d": 185.64343750002445,
      "v": 76
    },
    {
      "midi": 53,
      "hit": false,
      "t": 177815.47255208413,
      "d": 18.564343750011176,
      "v": 92
    },
    {
      "midi": 48,
      "hit": false,
      "t": 178013.49221875082,
      "d": 49.504916666657664,
      "v": 38
    },
    {
      "midi": 60,
      "hit": false,
      "t": 178211.51188541748,
      "d": 290.84138541668653,
      "v": 60
    },
    {
      "midi": 63,
      "hit": false,
      "t": 178211.51188541748,
      "d": 321.7819583333621,
      "v": 74
    },
    {
      "midi": 55,
      "hit": false,
      "t": 178217.70000000083,
      "d": 303.21761458335095,
      "v": 68
    },
    {
      "midi": 48,
      "hit": false,
      "t": 178607.55121875083,
      "d": 55.693031250004424,
      "v": 29
    },
    {
      "midi": 63,
      "hit": false,
      "t": 178805.5708854175,
      "d": 297.0295000000333,
      "v": 72
    },
    {
      "midi": 55,
      "hit": false,
      "t": 178805.5708854175,
      "d": 315.59384375004447,
      "v": 58
    },
    {
      "midi": 60,
      "hit": false,
      "t": 178811.75900000083,
      "d": 284.6532708333398,
      "v": 66
    },
    {
      "midi": 48,
      "hit": false,
      "t": 179201.61021875087,
      "d": 43.31680208334001,
      "v": 58
    },
    {
      "midi": 55,
      "hit": false,
      "t": 179399.62988541753,
      "d": 352.7225312500377,
      "v": 74
    },
    {
      "midi": 63,
      "hit": false,
      "t": 179399.62988541753,
      "d": 352.7225312500377,
      "v": 83
    },
    {
      "midi": 60,
      "hit": false,
      "t": 179405.81800000087,
      "d": 327.9700729166798,
      "v": 76
    },
    {
      "midi": 48,
      "hit": false,
      "t": 179795.6692187509,
      "d": 43.31680208334001,
      "v": 51
    },
    {
      "midi": 63,
      "hit": false,
      "t": 179993.68888541756,
      "d": 235.1483541666821,
      "v": 60
    },
    {
      "midi": 55,
      "hit": false,
      "t": 179993.68888541756,
      "d": 272.27704166667536,
      "v": 55
    },
    {
      "midi": 60,
      "hit": false,
      "t": 179999.8770000009,
      "d": 185.64343749999534,
      "v": 57
    },
    {
      "midi": 48,
      "hit": false,
      "t": 180389.7282187509,
      "d": 30.940572916675592,
      "v": 54
    },
    {
      "midi": 63,
      "hit": false,
      "t": 180587.7478854176,
      "d": 303.21761458335095,
      "v": 55
    },
    {
      "midi": 67,
      "hit": false,
      "t": 180587.7478854176,
      "d": 315.59384375001537,
      "v": 57
    },
    {
      "midi": 55,
      "hit": false,
      "t": 180593.93600000095,
      "d": 284.6532708333398,
      "v": 48
    },
    {
      "midi": 62,
      "hit": false,
      "t": 180593.93600000095,
      "d": 284.6532708333398,
      "v": 71
    },
    {
      "midi": 48,
      "hit": false,
      "t": 180983.78721875095,
      "d": 43.31680208334001,
      "v": 50
    },
    {
      "midi": 63,
      "hit": false,
      "t": 181181.8068854176,
      "d": 340.3463020833442,
      "v": 65
    },
    {
      "midi": 55,
      "hit": false,
      "t": 181181.8068854176,
      "d": 402.2274479166954,
      "v": 56
    },
    {
      "midi": 60,
      "hit": false,
      "t": 181187.99500000096,
      "d": 241.33646874999977,
      "v": 59
    },
    {
      "midi": 43,
      "hit": false,
      "t": 181577.84621875096,
      "d": 49.50491666668677,
      "v": 54
    },
    {
      "midi": 59,
      "hit": false,
      "t": 181775.86588541765,
      "d": 303.21761458335095,
      "v": 53
    },
    {
      "midi": 62,
      "hit": false,
      "t": 181775.86588541765,
      "d": 321.7819583333621,
      "v": 49
    },
    {
      "midi": 53,
      "hit": false,
      "t": 181782.054000001,
      "d": 346.53441666669096,
      "v": 47
    },
    {
      "midi": 43,
      "hit": false,
      "t": 182171.90521875102,
      "d": 37.12868749999325,
      "v": 53
    },
    {
      "midi": 59,
      "hit": false,
      "t": 182369.92488541768,
      "d": 315.59384375001537,
      "v": 51
    },
    {
      "midi": 62,
      "hit": false,
      "t": 182369.92488541768,
      "d": 327.9700729166798,
      "v": 53
    },
    {
      "midi": 53,
      "hit": false,
      "t": 182376.11300000103,
      "d": 408.41556250001304,
      "v": 42
    },
    {
      "midi": 43,
      "hit": false,
      "t": 182765.96421875103,
      "d": 49.50491666668677,
      "v": 50
    },
    {
      "midi": 62,
      "hit": false,
      "t": 182963.98388541772,
      "d": 303.21761458335095,
      "v": 58
    },
    {
      "midi": 53,
      "hit": false,
      "t": 182963.98388541772,
      "d": 352.7225312500086,
      "v": 51
    },
    {
      "midi": 59,
      "hit": false,
      "t": 182970.17200000107,
      "d": 290.84138541665743,
      "v": 57
    },
    {
      "midi": 43,
      "hit": false,
      "t": 183360.02321875107,
      "d": 30.940572916675592,
      "v": 53
    },
    {
      "midi": 62,
      "hit": false,
      "t": 183558.04288541776,
      "d": 198.01966666665976,
      "v": 79
    },
    {
      "midi": 59,
      "hit": false,
      "t": 183558.04288541776,
      "d": 210.39589583332418,
      "v": 74
    },
    {
      "midi": 53,
      "hit": false,
      "t": 183564.2310000011,
      "d": 129.95040624999092,
      "v": 71
    },
    {
      "midi": 53,
      "hit": false,
      "t": 183756.06255208442,
      "d": 55.693031250004424,
      "v": 54
    },
    {
      "midi": 43,
      "hit": false,
      "t": 183954.08221875108,
      "d": 37.12868749999325,
      "v": 54
    },
    {
      "midi": 62,
      "hit": false,
      "t": 184152.10188541774,
      "d": 303.21761458335095,
      "v": 59
    },
    {
      "midi": 65,
      "hit": false,
      "t": 184152.10188541774,
      "d": 340.3463020833442,
      "v": 57
    },
    {
      "midi": 59,
      "hit": false,
      "t": 184158.29000000108,
      "d": 309.4057291666686,
      "v": 55
    },
    {
      "midi": 55,
      "hit": false,
      "t": 184158.29000000108,
      "d": 346.53441666666185,
      "v": 57
    },
    {
      "midi": 43,
      "hit": false,
      "t": 184548.1412187511,
      "d": 43.31680208334001,
      "v": 42
    },
    {
      "midi": 62,
      "hit": false,
      "t": 184746.16088541775,
      "d": 241.33646874999977,
      "v": 51
    },
    {
      "midi": 65,
      "hit": false,
      "t": 184746.16088541775,
      "d": 266.0889270833577,
      "v": 54
    },
    {
      "midi": 59,
      "hit": false,
      "t": 184752.3490000011,
      "d": 253.71269791666418,
      "v": 47
    },
    {
      "midi": 55,
      "hit": false,
      "t": 184752.3490000011,
      "d": 303.21761458335095,
      "v": 39
    },
    {
      "midi": 43,
      "hit": false,
      "t": 185142.20021875112,
      "d": 37.12868749999325,
      "v": 49
    },
    {
      "midi": 62,
      "hit": false,
      "t": 185340.21988541778,
      "d": 259.90081250001094,
      "v": 52
    },
    {
      "midi": 65,
      "hit": false,
      "t": 185340.21988541778,
      "d": 303.21761458335095,
      "v": 58
    },
    {
      "midi": 59,
      "hit": false,
      "t": 185346.40800000113,
      "d": 259.90081250001094,
      "v": 51
    },
    {
      "midi": 55,
      "hit": false,
      "t": 185346.40800000113,
      "d": 284.6532708333398,
      "v": 48
    },
    {
      "midi": 43,
      "hit": false,
      "t": 185736.25921875113,
      "d": 55.693031250004424,
      "v": 41
    },
    {
      "midi": 62,
      "hit": false,
      "t": 185934.2788854178,
      "d": 259.90081250001094,
      "v": 71
    },
    {
      "midi": 53,
      "hit": false,
      "t": 185934.2788854178,
      "d": 309.4057291666686,
      "v": 54
    },
    {
      "midi": 59,
      "hit": false,
      "t": 185940.46700000114,
      "d": 253.71269791666418,
      "v": 60
    },
    {
      "midi": 43,
      "hit": false,
      "t": 186330.31821875114,
      "d": 43.31680208334001,
      "v": 39
    },
    {
      "midi": 59,
      "hit": false,
      "t": 186528.3378854178,
      "d": 272.27704166667536,
      "v": 58
    },
    {
      "midi": 62,
      "hit": false,
      "t": 186528.3378854178,
      "d": 278.4651562500221,
      "v": 68
    },
    {
      "midi": 53,
      "hit": false,
      "t": 186534.52600000115,
      "d": 352.7225312500086,
      "v": 60
    },
    {
      "midi": 43,
      "hit": false,
      "t": 186924.37721875115,
      "d": 43.31680208334001,
      "v": 49
    },
    {
      "midi": 59,
      "hit": false,
      "t": 187122.3968854178,
      "d": 179.4553229166777,
      "v": 59
    },
    {
      "midi": 62,
      "hit": false,
      "t": 187122.3968854178,
      "d": 179.4553229166777,
      "v": 73
    },
    {
      "midi": 53,
      "hit": false,
      "t": 187128.58500000116,
      "d": 235.148354166653,
      "v": 68
    },
    {
      "midi": 63,
      "hit": false,
      "t": 187518.43621875113,
      "d": 680.6926041666884,
      "v": 64
    },
    {
      "midi": 56,
      "hit": false,
      "t": 187518.43621875113,
      "d": 699.2569479166996,
      "v": 56
    },
    {
      "midi": 60,
      "hit": false,
      "t": 187524.62433333448,
      "d": 631.1876875000016,
      "v": 59
    },
    {
      "midi": 55,
      "hit": false,
      "t": 187524.62433333448,
      "d": 1262.3753750000324,
      "v": 38
    },
    {
      "midi": 55,
      "hit": false,
      "t": 187716.45588541718,
      "d": 1070.543822916603,
      "v": 68
    },
    {
      "midi": 63,
      "hit": false,
      "t": 187722.64400000052,
      "d": 2660.889270833257,
      "v": 75
    },
    {
      "midi": 60,
      "hit": false,
      "t": 187722.64400000052,
      "d": 3490.0966249999474,
      "v": 71
    },
    {
      "midi": 60,
      "hit": false,
      "t": 188310.51488541783,
      "d": 389.85121875000186,
      "v": 53
    },
    {
      "midi": 63,
      "hit": false,
      "t": 188310.51488541783,
      "d": 420.79179166667745,
      "v": 55
    },
    {
      "midi": 56,
      "hit": false,
      "t": 188316.70300000117,
      "d": 414.6036770833307,
      "v": 46
    },
    {
      "midi": 44,
      "hit": false,
      "t": 188706.55421875117,
      "d": 55.693031250004424,
      "v": 32
    },
    {
      "midi": 63,
      "hit": false,
      "t": 188904.57388541783,
      "d": 377.47498958336655,
      "v": 53
    },
    {
      "midi": 55,
      "hit": false,
      "t": 188904.57388541783,
      "d": 414.6036770833889,
      "v": 30
    },
    {
      "midi": 56,
      "hit": false,
      "t": 188910.76200000118,
      "d": 352.7225312500086,
      "v": 45
    },
    {
      "midi": 60,
      "hit": false,
      "t": 188910.76200000118,
      "d": 358.9106458333554,
      "v": 49
    },
    {
      "midi": 44,
      "hit": false,
      "t": 189300.6132187512,
      "d": 37.12868750002235,
      "v": 42
    },
    {
      "midi": 60,
      "hit": false,
      "t": 189498.6328854179,
      "d": 346.53441666669096,
      "v": 38
    },
    {
      "midi": 56,
      "hit": false,
      "t": 189498.6328854179,
      "d": 358.9106458333845,
      "v": 44
    },
    {
      "midi": 63,
      "hit": false,
      "t": 189504.82100000125,
      "d": 346.53441666669096,
      "v": 43
    },
    {
      "midi": 55,
      "hit": false,
      "t": 189504.82100000125,
      "d": 408.41556250004214,
      "v": 28
    },
    {
      "midi": 44,
      "hit": false,
      "t": 189894.67221875128,
      "d": 37.12868750002235,
      "v": 41
    },
    {
      "midi": 63,
      "hit": false,
      "t": 190092.69188541797,
      "d": 290.84138541671564,
      "v": 56
    },
    {
      "midi": 55,
      "hit": false,
      "t": 190092.69188541797,
      "d": 327.9700729167089,
      "v": 41
    },
    {
      "midi": 60,
      "hit": false,
      "t": 190098.8800000013,
      "d": 259.90081250001094,
      "v": 54
    },
    {
      "midi": 56,
      "hit": false,
      "t": 190098.8800000013,
      "d": 278.4651562500221,
      "v": 46
    },
    {
      "midi": 44,
      "hit": false,
      "t": 190488.73121875135,
      "d": 37.12868749999325,
      "v": 37
    },
    {
      "midi": 60,
      "hit": false,
      "t": 190686.750885418,
      "d": 290.84138541668653,
      "v": 49
    },
    {
      "midi": 63,
      "hit": false,
      "t": 190686.750885418,
      "d": 340.3463020833733,
      "v": 62
    },
    {
      "midi": 55,
      "hit": false,
      "t": 190692.93900000135,
      "d": 266.0889270833286,
      "v": 57
    },
    {
      "midi": 56,
      "hit": false,
      "t": 190692.93900000135,
      "d": 303.21761458335095,
      "v": 53
    },
    {
      "midi": 65,
      "hit": false,
      "t": 191082.79021875138,
      "d": 538.3659687500331,
      "v": 78
    },
    {
      "midi": 63,
      "hit": false,
      "t": 191082.79021875138,
      "d": 587.8708854167198,
      "v": 43
    },
    {
      "midi": 53,
      "hit": false,
      "t": 191088.97833333473,
      "d": 519.8016249999928,
      "v": 43
    },
    {
      "midi": 60,
      "hit": false,
      "t": 191088.97833333473,
      "d": 525.9897395833395,
      "v": 50
    },
    {
      "midi": 56,
      "hit": false,
      "t": 191088.97833333473,
      "d": 563.1184270833619,
      "v": 43
    },
    {
      "midi": 60,
      "hit": false,
      "t": 191274.6217708338,
      "d": 2295.790510416642,
      "v": 49
    },
    {
      "midi": 56,
      "hit": false,
      "t": 191286.99800000046,
      "d": 2227.721249999973,
      "v": 57
    },
    {
      "midi": 63,
      "hit": false,
      "t": 191305.56234375047,
      "d": 1497.5237291666272,
      "v": 75
    },
    {
      "midi": 53,
      "hit": false,
      "t": 191676.84921875145,
      "d": 24.752458333328832,
      "v": 60
    },
    {
      "midi": 65,
      "hit": false,
      "t": 191874.8688854181,
      "d": 297.0295000000042,
      "v": 75
    },
    {
      "midi": 63,
      "hit": false,
      "t": 191874.8688854181,
      "d": 334.15818749999744,
      "v": 55
    },
    {
      "midi": 60,
      "hit": false,
      "t": 191881.05700000146,
      "d": 315.59384374998626,
      "v": 57
    },
    {
      "midi": 56,
      "hit": false,
      "t": 191881.05700000146,
      "d": 346.53441666666185,
      "v": 59
    },
    {
      "midi": 53,
      "hit": false,
      "t": 192270.90821875146,
      "d": 24.752458333328832,
      "v": 59
    },
    {
      "midi": 65,
      "hit": false,
      "t": 192468.92788541812,
      "d": 259.90081250001094,
      "v": 70
    },
    {
      "midi": 63,
      "hit": false,
      "t": 192468.92788541812,
      "d": 334.15818749999744,
      "v": 54
    },
    {
      "midi": 56,
      "hit": false,
      "t": 192475.11600000146,
      "d": 340.3463020833151,
      "v": 59
    },
    {
      "midi": 60,
      "hit": false,
      "t": 192475.11600000146,
      "d": 340.3463020833151,
      "v": 63
    },
    {
      "midi": 53,
      "hit": false,
      "t": 192864.96721875144,
      "d": 43.31680208334001,
      "v": 37
    },
    {
      "midi": 65,
      "hit": false,
      "t": 193062.9868854181,
      "d": 148.5147500000021,
      "v": 73
    },
    {
      "midi": 63,
      "hit": false,
      "t": 193062.9868854181,
      "d": 185.64343750002445,
      "v": 55
    },
    {
      "midi": 60,
      "hit": false,
      "t": 193069.17500000144,
      "d": 160.8909791666665,
      "v": 58
    },
    {
      "midi": 56,
      "hit": false,
      "t": 193069.17500000144,
      "d": 185.64343750002445,
      "v": 70
    },
    {
      "midi": 53,
      "hit": false,
      "t": 193261.00655208481,
      "d": 18.564343750011176,
      "v": 75
    },
    {
      "midi": 53,
      "hit": false,
      "t": 193459.0262187515,
      "d": 30.940572916675592,
      "v": 58
    },
    {
      "midi": 60,
      "hit": false,
      "t": 193650.85777083377,
      "d": 1175.7417708333815,
      "v": 52
    },
    {
      "midi": 62,
      "hit": false,
      "t": 193657.04588541712,
      "d": 1992.5728958334948,
      "v": 63
    },
    {
      "midi": 62,
      "hit": false,
      "t": 193657.0458854182,
      "d": 377.47498958333745,
      "v": 69
    },
    {
      "midi": 67,
      "hit": false,
      "t": 193657.0458854182,
      "d": 377.47498958333745,
      "v": 67
    },
    {
      "midi": 55,
      "hit": false,
      "t": 193663.23400000154,
      "d": 346.53441666666185,
      "v": 53
    },
    {
      "midi": 60,
      "hit": false,
      "t": 193663.23400000154,
      "d": 383.6631041666551,
      "v": 58
    },
    {
      "midi": 67,
      "hit": false,
      "t": 193669.42211458378,
      "d": 1379.949552083388,
      "v": 53
    },
    {
      "midi": 55,
      "hit": false,
      "t": 194053.08521875154,
      "d": 37.12868749999325,
      "v": 55
    },
    {
      "midi": 67,
      "hit": false,
      "t": 194251.1048854182,
      "d": 377.47498958333745,
      "v": 56
    },
    {
      "midi": 62,
      "hit": false,
      "t": 194251.1048854182,
      "d": 389.85121875000186,
      "v": 55
    },
    {
      "midi": 60,
      "hit": false,
      "t": 194257.29300000155,
      "d": 426.9799062499951,
      "v": 57
    },
    {
      "midi": 55,
      "hit": false,
      "t": 194647.14421875155,
      "d": 74.2573749999865,
      "v": 17
    },
    {
      "midi": 59,
      "hit": false,
      "t": 194845.1638854182,
      "d": 204.20778125003562,
      "v": 71
    },
    {
      "midi": 67,
      "hit": false,
      "t": 194845.1638854182,
      "d": 204.20778125003562,
      "v": 75
    },
    {
      "midi": 62,
      "hit": false,
      "t": 194851.35200000156,
      "d": 198.01966666668886,
      "v": 69
    },
    {
      "midi": 59,
      "hit": false,
      "t": 194869.9163437505,
      "d": 711.6331770834513,
      "v": 26
    },
    {
      "midi": 55,
      "hit": false,
      "t": 195043.1835520849,
      "d": 68.06926041666884,
      "v": 54
    },
    {
      "midi": 67,
      "hit": false,
      "t": 195439.22288541825,
      "d": 402.2274479166954,
      "v": 71
    },
    {
      "midi": 62,
      "hit": false,
      "t": 195439.22288541825,
      "d": 538.3659687500331,
      "v": 67
    },
    {
      "midi": 59,
      "hit": false,
      "t": 195445.4110000016,
      "d": 377.47498958333745,
      "v": 63
    },
    {
      "midi": 55,
      "hit": false,
      "t": 195445.4110000016,
      "d": 439.35613541668863,
      "v": 71
    },
    {
      "midi": 72,
      "hit": false,
      "t": 196033.28188541735,
      "d": 6.18811458334676,
      "v": 57
    },
    {
      "midi": 75,
      "hit": false,
      "t": 196033.28188541735,
      "d": 6.18811458334676,
      "v": 72
    },
    {
      "midi": 55,
      "hit": false,
      "t": 196033.28188541828,
      "d": 167.07909375001327,
      "v": 70
    },
    {
      "midi": 63,
      "hit": false,
      "t": 196033.28188541828,
      "d": 167.07909375001327,
      "v": 78
    },
    {
      "midi": 60,
      "hit": false,
      "t": 196039.47000000163,
      "d": 148.5147500000021,
      "v": 83
    },
    {
      "midi": 60,
      "hit": false,
      "t": 196064.22245833406,
      "d": 1361.3852083333477,
      "v": 71
    },
    {
      "midi": 79,
      "hit": false,
      "t": 196076.59868750072,
      "d": 532.1778541666863,
      "v": 79
    },
    {
      "midi": 67,
      "hit": false,
      "t": 196082.78680208407,
      "d": 2202.9687916666444,
      "v": 59
    },
    {
      "midi": 75,
      "hit": false,
      "t": 196082.78680208407,
      "d": 2252.473708333302,
      "v": 55
    },
    {
      "midi": 48,
      "hit": false,
      "t": 196429.32121875163,
      "d": 37.12868749999325,
      "v": 42
    },
    {
      "midi": 63,
      "hit": false,
      "t": 196627.3408854183,
      "d": 228.96023958333535,
      "v": 66
    },
    {
      "midi": 60,
      "hit": false,
      "t": 196627.3408854183,
      "d": 235.1483541666821,
      "v": 74
    },
    {
      "midi": 55,
      "hit": false,
      "t": 196633.52900000164,
      "d": 228.96023958333535,
      "v": 64
    },
    {
      "midi": 79,
      "hit": false,
      "t": 196670.65768750073,
      "d": 501.2372812500107,
      "v": 73
    },
    {
      "midi": 48,
      "hit": false,
      "t": 197023.38021875164,
      "d": 37.12868749999325,
      "v": 40
    },
    {
      "midi": 63,
      "hit": false,
      "t": 197221.3998854183,
      "d": 191.8315520833421,
      "v": 62
    },
    {
      "midi": 60,
      "hit": false,
      "t": 197221.3998854183,
      "d": 204.20778125000652,
      "v": 57
    },
    {
      "midi": 79,
      "hit": false,
      "t": 197227.58800000075,
      "d": 544.5540833333216,
      "v": 80
    },
    {
      "midi": 55,
      "hit": false,
      "t": 197227.58800000165,
      "d": 204.20778125000652,
      "v": 53
    },
    {
      "midi": 48,
      "hit": false,
      "t": 197617.43921875165,
      "d": 43.31680208334001,
      "v": 51
    },
    {
      "midi": 80,
      "hit": false,
      "t": 197809.27077083406,
      "d": 396.0393333333195,
      "v": 52
    },
    {
      "midi": 60,
      "hit": false,
      "t": 197815.4588854183,
      "d": 210.39589583335328,
      "v": 69
    },
    {
      "midi": 55,
      "hit": false,
      "t": 197815.4588854183,
      "d": 272.27704166670446,
      "v": 59
    },
    {
      "midi": 63,
      "hit": false,
      "t": 197821.64700000166,
      "d": 210.39589583335328,
      "v": 74
    },
    {
      "midi": 43,
      "hit": false,
      "t": 198211.4982187517,
      "d": 43.31680208334001,
      "v": 50
    },
    {
      "midi": 77,
      "hit": false,
      "t": 198223.8744479174,
      "d": 2493.810177083302,
      "v": 66
    },
    {
      "midi": 59,
      "hit": false,
      "t": 198384.76542708403,
      "d": 3787.12612500001,
      "v": 66
    },
    {
      "midi": 65,
      "hit": false,
      "t": 198384.76542708403,
      "d": 5835.392052083393,
      "v": 63
    },
    {
      "midi": 53,
      "hit": false,
      "t": 198409.51788541835,
      "d": 253.71269791666418,
      "v": 57
    },
    {
      "midi": 62,
      "hit": false,
      "t": 198409.51788541835,
      "d": 266.0889270833286,
      "v": 52
    },
    {
      "midi": 67,
      "hit": false,
      "t": 198415.7060000007,
      "d": 5748.758447916713,
      "v": 63
    },
    {
      "midi": 74,
      "hit": false,
      "t": 198415.7060000007,
      "d": 5853.956395833375,
      "v": 67
    },
    {
      "midi": 59,
      "hit": false,
      "t": 198415.7060000017,
      "d": 235.148354166653,
      "v": 52
    },
    {
      "midi": 43,
      "hit": false,
      "t": 198805.55721875167,
      "d": 49.504916666657664,
      "v": 50
    },
    {
      "midi": 53,
      "hit": false,
      "t": 199003.57688541833,
      "d": 222.7721250000177,
      "v": 59
    },
    {
      "midi": 62,
      "hit": false,
      "t": 199003.57688541833,
      "d": 235.1483541666821,
      "v": 62
    },
    {
      "midi": 59,
      "hit": false,
      "t": 199009.76500000167,
      "d": 216.58401041667094,
      "v": 54
    },
    {
      "midi": 43,
      "hit": false,
      "t": 199399.61621875167,
      "d": 43.31680208334001,
      "v": 40
    },
    {
      "midi": 62,
      "hit": false,
      "t": 199597.63588541833,
      "d": 198.01966666668886,
      "v": 71
    },
    {
      "midi": 53,
      "hit": false,
      "t": 199597.63588541833,
      "d": 210.39589583335328,
      "v": 66
    },
    {
      "midi": 59,
      "hit": false,
      "t": 199603.82400000168,
      "d": 148.5147500000021,
      "v": 64
    },
    {
      "midi": 43,
      "hit": false,
      "t": 199993.67521875168,
      "d": 30.940572916675592,
      "v": 69
    },
    {
      "midi": 60,
      "hit": false,
      "t": 200389.71455208503,
      "d": 154.70286458331975,
      "v": 66
    },
    {
      "midi": 63,
      "hit": false,
      "t": 200389.71455208503,
      "d": 179.45532291664858,
      "v": 72
    },
    {
      "midi": 61,
      "hit": false,
      "t": 200587.7342187517,
      "d": 136.13852083333768,
      "v": 53
    },
    {
      "midi": 64,
      "hit": false,
      "t": 200587.7342187517,
      "d": 173.26720833333093,
      "v": 59
    },
    {
      "midi": 77,
      "hit": false,
      "t": 200779.56577083401,
      "d": 612.6233437499905,
      "v": 70
    },
    {
      "midi": 59,
      "hit": false,
      "t": 200785.75388541835,
      "d": 259.90081250001094,
      "v": 69
    },
    {
      "midi": 65,
      "hit": false,
      "t": 200785.75388541835,
      "d": 309.4057291666977,
      "v": 74
    },
    {
      "midi": 58,
      "hit": false,
      "t": 200791.9420000017,
      "d": 30.940572916675592,
      "v": 57
    },
    {
      "midi": 62,
      "hit": false,
      "t": 200791.9420000017,
      "d": 259.90081250001094,
      "v": 53
    },
    {
      "midi": 55,
      "hit": false,
      "t": 200791.9420000017,
      "d": 278.4651562500221,
      "v": 28
    },
    {
      "midi": 43,
      "hit": false,
      "t": 201181.79321875173,
      "d": 49.504916666657664,
      "v": 40
    },
    {
      "midi": 62,
      "hit": false,
      "t": 201379.8128854184,
      "d": 210.39589583335328,
      "v": 49
    },
    {
      "midi": 65,
      "hit": false,
      "t": 201379.8128854184,
      "d": 241.33646875002887,
      "v": 56
    },
    {
      "midi": 59,
      "hit": false,
      "t": 201386.00100000174,
      "d": 216.58401041667094,
      "v": 51
    },
    {
      "midi": 55,
      "hit": false,
      "t": 201386.00100000174,
      "d": 222.7721250000177,
      "v": 51
    },
    {
      "midi": 77,
      "hit": false,
      "t": 201423.12968750068,
      "d": 513.6135104166751,
      "v": 74
    },
    {
      "midi": 43,
      "hit": false,
      "t": 201775.85221875174,
      "d": 30.940572916675592,
      "v": 57
    },
    {
      "midi": 62,
      "hit": false,
      "t": 201973.87188541843,
      "d": 167.07909375001327,
      "v": 53
    },
    {
      "midi": 59,
      "hit": false,
      "t": 201973.87188541843,
      "d": 198.01966666668886,
      "v": 49
    },
    {
      "midi": 65,
      "hit": false,
      "t": 201980.06000000177,
      "d": 222.7721250000177,
      "v": 63
    },
    {
      "midi": 55,
      "hit": false,
      "t": 201980.06000000177,
      "d": 247.52458333334653,
      "v": 53
    },
    {
      "midi": 77,
      "hit": false,
      "t": 201992.43622916736,
      "d": 556.9303125000151,
      "v": 68
    },
    {
      "midi": 43,
      "hit": false,
      "t": 202369.91121875177,
      "d": 37.12868749999325,
      "v": 58
    },
    {
      "midi": 62,
      "hit": false,
      "t": 202567.93088541843,
      "d": 266.0889270833577,
      "v": 60
    },
    {
      "midi": 53,
      "hit": false,
      "t": 202567.93088541843,
      "d": 284.6532708333689,
      "v": 59
    },
    {
      "midi": 59,
      "hit": false,
      "t": 202574.11900000178,
      "d": 241.33646874999977,
      "v": 61
    },
    {
      "midi": 80,
      "hit": false,
      "t": 202580.30711458405,
      "d": 513.6135104166751,
      "v": 56
    },
    {
      "midi": 43,
      "hit": false,
      "t": 202963.9702187518,
      "d": 43.31680208334001,
      "v": 43
    },
    {
      "midi": 59,
      "hit": false,
      "t": 203161.98988541847,
      "d": 216.58401041667094,
      "v": 59
    },
    {
      "midi": 62,
      "hit": false,
      "t": 203161.98988541847,
      "d": 241.33646874999977,
      "v": 60
    },
    {
      "midi": 80,
      "hit": false,
      "t": 203168.1780000007,
      "d": 352.7225312500086,
      "v": 57
    },
    {
      "midi": 53,
      "hit": false,
      "t": 203168.17800000182,
      "d": 247.52458333331742,
      "v": 59
    },
    {
      "midi": 79,
      "hit": false,
      "t": 203539.46487500073,
      "d": 228.96023958333535,
      "v": 67
    },
    {
      "midi": 43,
      "hit": false,
      "t": 203558.0292187518,
      "d": 43.31680208334001,
      "v": 51
    },
    {
      "midi": 77,
      "hit": false,
      "t": 203749.86077083406,
      "d": 371.2868750000198,
      "v": 66
    },
    {
      "midi": 59,
      "hit": false,
      "t": 203756.04888541845,
      "d": 389.85121875003097,
      "v": 70
    },
    {
      "midi": 62,
      "hit": false,
      "t": 203756.04888541845,
      "d": 457.9204791666998,
      "v": 76
    },
    {
      "midi": 53,
      "hit": false,
      "t": 203762.2370000018,
      "d": 272.27704166667536,
      "v": 69
    },
    {
      "midi": 79,
      "hit": false,
      "t": 204121.14764583408,
      "d": 272.27704166667536,
      "v": 66
    },
    {
      "midi": 48,
      "hit": false,
      "t": 204152.08821875183,
      "d": 61.88114583332208,
      "v": 36
    },
    {
      "midi": 75,
      "hit": false,
      "t": 204331.5435416674,
      "d": 581.6827708333731,
      "v": 46
    },
    {
      "midi": 67,
      "hit": false,
      "t": 204337.73165625075,
      "d": 556.9303125000151,
      "v": 60
    },
    {
      "midi": 60,
      "hit": false,
      "t": 204337.73165625075,
      "d": 618.8114583333663,
      "v": 73
    },
    {
      "midi": 63,
      "hit": false,
      "t": 204350.1078854185,
      "d": 513.6135104166751,
      "v": 79
    },
    {
      "midi": 60,
      "hit": false,
      "t": 204350.1078854185,
      "d": 606.4352291667019,
      "v": 76
    },
    {
      "midi": 55,
      "hit": false,
      "t": 204356.29600000184,
      "d": 482.67293749999953,
      "v": 73
    },
    {
      "midi": 48,
      "hit": false,
      "t": 204746.14721875184,
      "d": 37.12868749999325,
      "v": 70
    },
    {
      "midi": 53,
      "hit": false,
      "t": 204944.1668854185,
      "d": 136.13852083336678,
      "v": 79
    },
    {
      "midi": 62,
      "hit": false,
      "t": 204944.1668854185,
      "d": 204.20778125006473,
      "v": 73
    },
    {
      "midi": 59,
      "hit": false,
      "t": 204950.35500000077,
      "d": 587.8708854166616,
      "v": 66
    },
    {
      "midi": 59,
      "hit": false,
      "t": 204950.35500000184,
      "d": 185.64343750002445,
      "v": 76
    },
    {
      "midi": 67,
      "hit": false,
      "t": 204968.91934375078,
      "d": 532.1778541666572,
      "v": 57
    },
    {
      "midi": 74,
      "hit": false,
      "t": 204968.91934375078,
      "d": 587.8708854166616,
      "v": 71
    },
    {
      "midi": 53,
      "hit": false,
      "t": 205142.18655208522,
      "d": 18.564343750011176,
      "v": 92
    },
    {
      "midi": 48,
      "hit": false,
      "t": 205340.2062187519,
      "d": 49.504916666657664,
      "v": 38
    },
    {
      "midi": 60,
      "hit": false,
      "t": 205538.22588541856,
      "d": 290.84138541668653,
      "v": 60
    },
    {
      "midi": 63,
      "hit": false,
      "t": 205538.22588541856,
      "d": 315.59384375004447,
      "v": 74
    },
    {
      "midi": 55,
      "hit": false,
      "t": 205544.4140000019,
      "d": 303.21761458335095,
      "v": 68
    },
    {
      "midi": 67,
      "hit": false,
      "t": 205587.73080208412,
      "d": 3409.6511354166723,
      "v": 60
    },
    {
      "midi": 60,
      "hit": false,
      "t": 205587.73080208412,
      "d": 3533.4134270833456,
      "v": 70
    },
    {
      "midi": 75,
      "hit": false,
      "t": 205593.91891666746,
      "d": 3446.7798229166656,
      "v": 54
    },
    {
      "midi": 48,
      "hit": false,
      "t": 205934.26521875194,
      "d": 55.693031250004424,
      "v": 29
    },
    {
      "midi": 63,
      "hit": false,
      "t": 206132.2848854186,
      "d": 297.0295000000042,
      "v": 72
    },
    {
      "midi": 55,
      "hit": false,
      "t": 206132.2848854186,
      "d": 315.59384375001537,
      "v": 58
    },
    {
      "midi": 60,
      "hit": false,
      "t": 206138.47300000195,
      "d": 290.84138541665743,
      "v": 66
    },
    {
      "midi": 48,
      "hit": false,
      "t": 206528.32421875195,
      "d": 43.31680208334001,
      "v": 58
    },
    {
      "midi": 55,
      "hit": false,
      "t": 206726.3438854186,
      "d": 352.7225312500377,
      "v": 74
    },
    {
      "midi": 63,
      "hit": false,
      "t": 206726.3438854186,
      "d": 352.7225312500377,
      "v": 83
    },
    {
      "midi": 60,
      "hit": false,
      "t": 206732.53200000196,
      "d": 327.9700729166798,
      "v": 76
    },
    {
      "midi": 79,
      "hit": false,
      "t": 206738.72011458414,
      "d": 538.365968750004,
      "v": 76
    },
    {
      "midi": 48,
      "hit": false,
      "t": 207122.383218752,
      "d": 43.31680208334001,
      "v": 51
    },
    {
      "midi": 63,
      "hit": false,
      "t": 207320.40288541865,
      "d": 235.1483541666821,
      "v": 60
    },
    {
      "midi": 55,
      "hit": false,
      "t": 207320.40288541865,
      "d": 266.0889270833577,
      "v": 55
    },
    {
      "midi": 60,
      "hit": false,
      "t": 207326.591000002,
      "d": 185.64343749999534,
      "v": 57
    },
    {
      "midi": 79,
      "hit": false,
      "t": 207332.77911458415,
      "d": 532.1778541666572,
      "v": 66
    },
    {
      "midi": 48,
      "hit": false,
      "t": 207716.442218752,
      "d": 30.940572916675592,
      "v": 54
    },
    {
      "midi": 63,
      "hit": false,
      "t": 207914.46188541868,
      "d": 303.21761458338005,
      "v": 55
    },
    {
      "midi": 67,
      "hit": false,
      "t": 207914.46188541868,
      "d": 315.59384375004447,
      "v": 57
    },
    {
      "midi": 55,
      "hit": false,
      "t": 207920.65000000203,
      "d": 284.6532708333398,
      "v": 48
    },
    {
      "midi": 62,
      "hit": false,
      "t": 207920.65000000203,
      "d": 290.84138541668653,
      "v": 71
    },
    {
      "midi": 79,
      "hit": false,
      "t": 207933.02622916747,
      "d": 532.1778541666572,
      "v": 76
    },
    {
      "midi": 48,
      "hit": false,
      "t": 208310.50121875206,
      "d": 43.31680208334001,
      "v": 50
    },
    {
      "midi": 63,
      "hit": false,
      "t": 208508.52088541872,
      "d": 340.3463020833442,
      "v": 65
    },
    {
      "midi": 55,
      "hit": false,
      "t": 208508.52088541872,
      "d": 402.2274479166954,
      "v": 56
    },
    {
      "midi": 80,
      "hit": false,
      "t": 208514.7090000008,
      "d": 377.47498958333745,
      "v": 53
    },
    {
      "midi": 60,
      "hit": false,
      "t": 208514.70900000207,
      "d": 235.148354166653,
      "v": 59
    },
    {
      "midi": 43,
      "hit": false,
      "t": 208904.56021875207,
      "d": 49.50491666668677,
      "v": 54
    },
    {
      "midi": 77,
      "hit": false,
      "t": 208935.50079166747,
      "d": 2407.17657291668,
      "v": 72
    },
    {
      "midi": 59,
      "hit": false,
      "t": 209102.57988541876,
      "d": 303.21761458335095,
      "v": 53
    },
    {
      "midi": 62,
      "hit": false,
      "t": 209102.57988541876,
      "d": 315.59384375001537,
      "v": 49
    },
    {
      "midi": 59,
      "hit": false,
      "t": 209108.7680000008,
      "d": 5018.560927083367,
      "v": 60
    },
    {
      "midi": 74,
      "hit": false,
      "t": 209108.7680000008,
      "d": 5792.075250000053,
      "v": 62
    },
    {
      "midi": 53,
      "hit": false,
      "t": 209108.7680000021,
      "d": 346.53441666666185,
      "v": 47
    },
    {
      "midi": 65,
      "hit": false,
      "t": 209127.3323437508,
      "d": 2691.82984375002,
      "v": 58
    },
    {
      "midi": 67,
      "hit": false,
      "t": 209127.3323437508,
      "d": 5730.194104166701,
      "v": 55
    },
    {
      "midi": 43,
      "hit": false,
      "t": 209498.6192187521,
      "d": 37.12868749999325,
      "v": 53
    },
    {
      "midi": 59,
      "hit": false,
      "t": 209696.63888541877,
      "d": 315.59384375001537,
      "v": 51
    },
    {
      "midi": 62,
      "hit": false,
      "t": 209696.63888541877,
      "d": 327.9700729166798,
      "v": 53
    },
    {
      "midi": 53,
      "hit": false,
      "t": 209702.82700000211,
      "d": 408.41556250001304,
      "v": 42
    },
    {
      "midi": 43,
      "hit": false,
      "t": 210092.67821875212,
      "d": 49.50491666668677,
      "v": 50
    },
    {
      "midi": 62,
      "hit": false,
      "t": 210290.6978854188,
      "d": 303.21761458335095,
      "v": 58
    },
    {
      "midi": 53,
      "hit": false,
      "t": 210290.6978854188,
      "d": 352.7225312500086,
      "v": 51
    },
    {
      "midi": 59,
      "hit": false,
      "t": 210296.88600000215,
      "d": 290.84138541665743,
      "v": 57
    },
    {
      "midi": 43,
      "hit": false,
      "t": 210686.73721875215,
      "d": 30.940572916675592,
      "v": 53
    },
    {
      "midi": 62,
      "hit": false,
      "t": 210884.75688541884,
      "d": 198.01966666665976,
      "v": 79
    },
    {
      "midi": 59,
      "hit": false,
      "t": 210884.75688541884,
      "d": 210.39589583332418,
      "v": 74
    },
    {
      "midi": 53,
      "hit": false,
      "t": 210890.9450000022,
      "d": 129.95040624999092,
      "v": 71
    },
    {
      "midi": 53,
      "hit": false,
      "t": 211082.7765520855,
      "d": 55.693031250004424,
      "v": 54
    },
    {
      "midi": 43,
      "hit": false,
      "t": 211280.79621875216,
      "d": 37.12868749999325,
      "v": 54
    },
    {
      "midi": 77,
      "hit": false,
      "t": 211454.06342708415,
      "d": 556.9303125000151,
      "v": 59
    },
    {
      "midi": 62,
      "hit": false,
      "t": 211478.81588541882,
      "d": 303.21761458335095,
      "v": 59
    },
    {
      "midi": 65,
      "hit": false,
      "t": 211478.81588541882,
      "d": 340.3463020833442,
      "v": 57
    },
    {
      "midi": 59,
      "hit": false,
      "t": 211485.00400000217,
      "d": 309.4057291666686,
      "v": 55
    },
    {
      "midi": 55,
      "hit": false,
      "t": 211485.00400000217,
      "d": 346.53441666666185,
      "v": 57
    },
    {
      "midi": 43,
      "hit": false,
      "t": 211874.85521875217,
      "d": 43.31680208334001,
      "v": 42
    },
    {
      "midi": 77,
      "hit": false,
      "t": 212060.49865625083,
      "d": 563.1184270833328,
      "v": 62
    },
    {
      "midi": 62,
      "hit": false,
      "t": 212072.87488541883,
      "d": 241.33646874999977,
      "v": 51
    },
    {
      "midi": 65,
      "hit": false,
      "t": 212072.87488541883,
      "d": 272.27704166667536,
      "v": 54
    },
    {
      "midi": 59,
      "hit": false,
      "t": 212079.06300000218,
      "d": 253.71269791666418,
      "v": 47
    },
    {
      "midi": 55,
      "hit": false,
      "t": 212079.06300000218,
      "d": 303.21761458332185,
      "v": 39
    },
    {
      "midi": 43,
      "hit": false,
      "t": 212468.91421875218,
      "d": 37.12868749999325,
      "v": 49
    },
    {
      "midi": 62,
      "hit": false,
      "t": 212666.93388541884,
      "d": 259.90081250001094,
      "v": 52
    },
    {
      "midi": 65,
      "hit": false,
      "t": 212666.93388541884,
      "d": 303.21761458335095,
      "v": 58
    },
    {
      "midi": 59,
      "hit": false,
      "t": 212673.1220000022,
      "d": 259.90081250001094,
      "v": 51
    },
    {
      "midi": 55,
      "hit": false,
      "t": 212673.1220000022,
      "d": 284.6532708333398,
      "v": 48
    },
    {
      "midi": 77,
      "hit": false,
      "t": 212685.49822916748,
      "d": 538.365968750004,
      "v": 75
    },
    {
      "midi": 43,
      "hit": false,
      "t": 213062.9732187522,
      "d": 55.693031250004424,
      "v": 41
    },
    {
      "midi": 77,
      "hit": false,
      "t": 213248.61665625082,
      "d": 569.3065416666795,
      "v": 66
    },
    {
      "midi": 62,
      "hit": false,
      "t": 213260.99288541885,
      "d": 259.90081250001094,
      "v": 71
    },
    {
      "midi": 53,
      "hit": false,
      "t": 213260.99288541885,
      "d": 309.4057291666686,
      "v": 54
    },
    {
      "midi": 59,
      "hit": false,
      "t": 213267.1810000022,
      "d": 253.71269791666418,
      "v": 60
    },
    {
      "midi": 43,
      "hit": false,
      "t": 213657.0322187522,
      "d": 43.31680208334001,
      "v": 39
    },
    {
      "midi": 59,
      "hit": false,
      "t": 213855.05188541886,
      "d": 272.27704166667536,
      "v": 58
    },
    {
      "midi": 62,
      "hit": false,
      "t": 213855.05188541886,
      "d": 278.4651562500221,
      "v": 68
    },
    {
      "midi": 53,
      "hit": false,
      "t": 213861.2400000022,
      "d": 352.7225312500086,
      "v": 60
    },
    {
      "midi": 80,
      "hit": false,
      "t": 213873.6162291675,
      "d": 290.84138541665743,
      "v": 59
    },
    {
      "midi": 79,
      "hit": false,
      "t": 214220.15064583416,
      "d": 204.20778125000652,
      "v": 78
    },
    {
      "midi": 43,
      "hit": false,
      "t": 214251.0912187522,
      "d": 43.31680208334001,
      "v": 49
    },
    {
      "midi": 77,
      "hit": false,
      "t": 214436.73465625083,
      "d": 377.47498958333745,
      "v": 69
    },
    {
      "midi": 59,
      "hit": false,
      "t": 214449.11088541886,
      "d": 179.4553229166777,
      "v": 59
    },
    {
      "midi": 62,
      "hit": false,
      "t": 214449.11088541886,
      "d": 179.4553229166777,
      "v": 73
    },
    {
      "midi": 53,
      "hit": false,
      "t": 214455.2990000022,
      "d": 235.148354166653,
      "v": 68
    },
    {
      "midi": 75,
      "hit": false,
      "t": 214826.58587500083,
      "d": 210.39589583335328,
      "v": 63
    },
    {
      "midi": 63,
      "hit": false,
      "t": 214845.15021875218,
      "d": 686.880718750006,
      "v": 64
    },
    {
      "midi": 56,
      "hit": false,
      "t": 214845.15021875218,
      "d": 699.2569479166705,
      "v": 56
    },
    {
      "midi": 60,
      "hit": false,
      "t": 214851.33833333553,
      "d": 631.1876875000016,
      "v": 59
    },
    {
      "midi": 55,
      "hit": false,
      "t": 214851.33833333553,
      "d": 1262.3753750000033,
      "v": 38
    },
    {
      "midi": 75,
      "hit": false,
      "t": 215036.9817708342,
      "d": 1745.0483125000028,
      "v": 45
    },
    {
      "midi": 68,
      "hit": false,
      "t": 215036.9817708342,
      "d": 3384.8986770833144,
      "v": 43
    },
    {
      "midi": 60,
      "hit": false,
      "t": 215036.9817708342,
      "d": 3422.0273645833076,
      "v": 67
    },
    {
      "midi": 67,
      "hit": false,
      "t": 215036.9817708342,
      "d": 3422.0273645833076,
      "v": 48
    },
    {
      "midi": 60,
      "hit": false,
      "t": 215637.22888541885,
      "d": 389.85121875000186,
      "v": 53
    },
    {
      "midi": 63,
      "hit": false,
      "t": 215637.22888541885,
      "d": 414.6036770833598,
      "v": 55
    },
    {
      "midi": 56,
      "hit": false,
      "t": 215643.4170000022,
      "d": 408.41556250001304,
      "v": 46
    },
    {
      "midi": 44,
      "hit": false,
      "t": 216033.2682187522,
      "d": 55.693031250004424,
      "v": 32
    },
    {
      "midi": 63,
      "hit": false,
      "t": 216231.28788541886,
      "d": 377.47498958336655,
      "v": 53
    },
    {
      "midi": 55,
      "hit": false,
      "t": 216231.28788541886,
      "d": 408.41556250004214,
      "v": 30
    },
    {
      "midi": 56,
      "hit": false,
      "t": 216237.4760000022,
      "d": 352.7225312500086,
      "v": 45
    },
    {
      "midi": 60,
      "hit": false,
      "t": 216237.4760000022,
      "d": 365.09876041667303,
      "v": 49
    },
    {
      "midi": 44,
      "hit": false,
      "t": 216627.32721875224,
      "d": 37.12868749999325,
      "v": 42
    },
    {
      "midi": 75,
      "hit": false,
      "t": 216819.15877083418,
      "d": 532.1778541666572,
      "v": 59
    },
    {
      "midi": 60,
      "hit": false,
      "t": 216825.3468854189,
      "d": 346.53441666669096,
      "v": 38
    },
    {
      "midi": 56,
      "hit": false,
      "t": 216825.3468854189,
      "d": 358.9106458333845,
      "v": 44
    },
    {
      "midi": 63,
      "hit": false,
      "t": 216831.53500000224,
      "d": 346.53441666669096,
      "v": 43
    },
    {
      "midi": 55,
      "hit": false,
      "t": 216831.53500000224,
      "d": 408.41556250004214,
      "v": 28
    },
    {
      "midi": 44,
      "hit": false,
      "t": 217221.38621875228,
      "d": 37.12868750002235,
      "v": 41
    },
    {
      "midi": 75,
      "hit": false,
      "t": 217400.8415416675,
      "d": 569.3065416666795,
      "v": 53
    },
    {
      "midi": 63,
      "hit": false,
      "t": 217419.40588541896,
      "d": 290.84138541671564,
      "v": 56
    },
    {
      "midi": 55,
      "hit": false,
      "t": 217419.40588541896,
      "d": 327.9700729167089,
      "v": 41
    },
    {
      "midi": 60,
      "hit": false,
      "t": 217425.5940000023,
      "d": 259.90081250001094,
      "v": 54
    },
    {
      "midi": 56,
      "hit": false,
      "t": 217425.5940000023,
      "d": 278.4651562500221,
      "v": 46
    },
    {
      "midi": 44,
      "hit": false,
      "t": 217815.44521875234,
      "d": 37.12868749999325,
      "v": 37
    },
    {
      "midi": 60,
      "hit": false,
      "t": 218013.464885419,
      "d": 290.84138541668653,
      "v": 49
    },
    {
      "midi": 63,
      "hit": false,
      "t": 218013.464885419,
      "d": 340.3463020833733,
      "v": 62
    },
    {
      "midi": 55,
      "hit": false,
      "t": 218019.65300000235,
      "d": 259.90081250001094,
      "v": 57
    },
    {
      "midi": 56,
      "hit": false,
      "t": 218019.65300000235,
      "d": 303.21761458335095,
      "v": 53
    },
    {
      "midi": 77,
      "hit": false,
      "t": 218025.84111458418,
      "d": 396.0393333333195,
      "v": 72
    },
    {
      "midi": 65,
      "hit": false,
      "t": 218409.50421875238,
      "d": 538.3659687500331,
      "v": 78
    },
    {
      "midi": 63,
      "hit": false,
      "t": 218409.50421875238,
      "d": 587.8708854166907,
      "v": 43
    },
    {
      "midi": 53,
      "hit": false,
      "t": 218415.69233333573,
      "d": 519.8016249999928,
      "v": 43
    },
    {
      "midi": 60,
      "hit": false,
      "t": 218415.69233333573,
      "d": 525.9897395833395,
      "v": 50
    },
    {
      "midi": 56,
      "hit": false,
      "t": 218415.69233333573,
      "d": 556.9303125000151,
      "v": 43
    },
    {
      "midi": 75,
      "hit": false,
      "t": 218434.25667708417,
      "d": 24.752458333328832,
      "v": 62
    },
    {
      "midi": 60,
      "hit": false,
      "t": 218607.5238854175,
      "d": 334.15818749999744,
      "v": 62
    },
    {
      "midi": 65,
      "hit": false,
      "t": 218607.5238854175,
      "d": 340.3463020833442,
      "v": 45
    },
    {
      "midi": 75,
      "hit": false,
      "t": 218607.5238854175,
      "d": 340.3463020833442,
      "v": 47
    },
    {
      "midi": 68,
      "hit": false,
      "t": 218607.5238854175,
      "d": 2178.2163333333447,
      "v": 51
    },
    {
      "midi": 53,
      "hit": false,
      "t": 219003.56321875242,
      "d": 18.564343750011176,
      "v": 60
    },
    {
      "midi": 65,
      "hit": false,
      "t": 219201.5828854191,
      "d": 297.0295000000042,
      "v": 75
    },
    {
      "midi": 63,
      "hit": false,
      "t": 219201.5828854191,
      "d": 334.15818749999744,
      "v": 55
    },
    {
      "midi": 60,
      "hit": false,
      "t": 219207.77100000245,
      "d": 315.59384374998626,
      "v": 57
    },
    {
      "midi": 56,
      "hit": false,
      "t": 219207.77100000245,
      "d": 346.53441666666185,
      "v": 59
    },
    {
      "midi": 53,
      "hit": false,
      "t": 219597.62221875245,
      "d": 18.564343750011176,
      "v": 59
    },
    {
      "midi": 65,
      "hit": false,
      "t": 219795.64188541914,
      "d": 259.90081250001094,
      "v": 70
    },
    {
      "midi": 63,
      "hit": false,
      "t": 219795.64188541914,
      "d": 334.15818749999744,
      "v": 54
    },
    {
      "midi": 56,
      "hit": false,
      "t": 219801.8300000025,
      "d": 340.3463020833151,
      "v": 59
    },
    {
      "midi": 60,
      "hit": false,
      "t": 219801.8300000025,
      "d": 340.3463020833151,
      "v": 63
    },
    {
      "midi": 53,
      "hit": false,
      "t": 220191.68121875246,
      "d": 43.31680208334001,
      "v": 37
    },
    {
      "midi": 65,
      "hit": false,
      "t": 220389.70088541912,
      "d": 148.5147500000021,
      "v": 73
    },
    {
      "midi": 63,
      "hit": false,
      "t": 220389.70088541912,
      "d": 185.64343750002445,
      "v": 55
    },
    {
      "midi": 60,
      "hit": false,
      "t": 220395.88900000247,
      "d": 160.8909791666665,
      "v": 58
    },
    {
      "midi": 56,
      "hit": false,
      "t": 220395.88900000247,
      "d": 185.64343750002445,
      "v": 70
    },
    {
      "midi": 53,
      "hit": false,
      "t": 220587.72055208584,
      "d": 24.752458333328832,
      "v": 75
    },
    {
      "midi": 53,
      "hit": false,
      "t": 220785.7402187525,
      "d": 30.940572916675592,
      "v": 58
    },
    {
      "midi": 79,
      "hit": false,
      "t": 220952.81931250085,
      "d": 2004.9491250000137,
      "v": 61
    },
    {
      "midi": 74,
      "hit": false,
      "t": 220971.38365625087,
      "d": 2159.6519895833335,
      "v": 58
    },
    {
      "midi": 67,
      "hit": false,
      "t": 220983.75988541753,
      "d": 377.47498958333745,
      "v": 55
    },
    {
      "midi": 72,
      "hit": false,
      "t": 220983.75988541753,
      "d": 971.5339895833458,
      "v": 60
    },
    {
      "midi": 62,
      "hit": false,
      "t": 220983.7598854192,
      "d": 377.47498958333745,
      "v": 69
    },
    {
      "midi": 67,
      "hit": false,
      "t": 220983.7598854192,
      "d": 377.47498958333745,
      "v": 67
    },
    {
      "midi": 55,
      "hit": false,
      "t": 220989.94800000254,
      "d": 346.53441666666185,
      "v": 53
    },
    {
      "midi": 60,
      "hit": false,
      "t": 220989.94800000254,
      "d": 383.6631041666551,
      "v": 58
    },
    {
      "midi": 55,
      "hit": false,
      "t": 221379.79921875254,
      "d": 37.12868749999325,
      "v": 55
    },
    {
      "midi": 67,
      "hit": false,
      "t": 221577.8188854192,
      "d": 377.47498958333745,
      "v": 56
    },
    {
      "midi": 62,
      "hit": false,
      "t": 221577.8188854192,
      "d": 396.0393333333486,
      "v": 55
    },
    {
      "midi": 60,
      "hit": false,
      "t": 221584.00700000254,
      "d": 426.9799062499951,
      "v": 57
    },
    {
      "midi": 55,
      "hit": false,
      "t": 221973.85821875255,
      "d": 74.2573749999865,
      "v": 17
    },
    {
      "midi": 71,
      "hit": false,
      "t": 222153.31354166754,
      "d": 965.3458749999991,
      "v": 57
    },
    {
      "midi": 59,
      "hit": false,
      "t": 222171.8778854192,
      "d": 204.20778125003562,
      "v": 71
    },
    {
      "midi": 67,
      "hit": false,
      "t": 222171.8778854192,
      "d": 204.20778125003562,
      "v": 75
    },
    {
      "midi": 55,
      "hit": false,
      "t": 222178.06600000086,
      "d": 909.6528437499946,
      "v": 52
    },
    {
      "midi": 62,
      "hit": false,
      "t": 222178.06600000255,
      "d": 198.01966666668886,
      "v": 69
    },
    {
      "midi": 55,
      "hit": false,
      "t": 222369.8975520859,
      "d": 68.06926041666884,
      "v": 54
    },
    {
      "midi": 67,
      "hit": false,
      "t": 222765.93688541924,
      "d": 402.2274479166954,
      "v": 71
    },
    {
      "midi": 62,
      "hit": false,
      "t": 222765.93688541924,
      "d": 538.3659687500331,
      "v": 67
    },
    {
      "midi": 59,
      "hit": false,
      "t": 222772.1250000026,
      "d": 377.47498958333745,
      "v": 63
    },
    {
      "midi": 55,
      "hit": false,
      "t": 222772.1250000026,
      "d": 439.35613541668863,
      "v": 71
    },
    {
      "midi": 75,
      "hit": false,
      "t": 223341.43154166752,
      "d": 2283.414281250036,
      "v": 59
    },
    {
      "midi": 60,
      "hit": false,
      "t": 223341.43154166752,
      "d": 2326.731083333376,
      "v": 74
    },
    {
      "midi": 79,
      "hit": false,
      "t": 223347.61965625087,
      "d": 575.4946562499972,
      "v": 66
    },
    {
      "midi": 55,
      "hit": false,
      "t": 223359.99588541928,
      "d": 167.07909375001327,
      "v": 70
    },
    {
      "midi": 63,
      "hit": false,
      "t": 223359.99588541928,
      "d": 167.07909375001327,
      "v": 78
    },
    {
      "midi": 60,
      "hit": false,
      "t": 223366.18400000263,
      "d": 148.5147500000021,
      "v": 83
    },
    {
      "midi": 67,
      "hit": false,
      "t": 223372.3721145842,
      "d": 2159.6519895833335,
      "v": 58
    },
    {
      "midi": 91,
      "hit": false,
      "t": 223378.56022916755,
      "d": 563.1184270833328,
      "v": 75
    },
    {
      "midi": 48,
      "hit": false,
      "t": 223756.03521875263,
      "d": 37.12868749999325,
      "v": 42
    },
    {
      "midi": 63,
      "hit": false,
      "t": 223954.0548854193,
      "d": 228.96023958333535,
      "v": 66
    },
    {
      "midi": 60,
      "hit": false,
      "t": 223954.0548854193,
      "d": 235.1483541666821,
      "v": 74
    },
    {
      "midi": 55,
      "hit": false,
      "t": 223960.24300000264,
      "d": 228.96023958333535,
      "v": 64
    },
    {
      "midi": 79,
      "hit": false,
      "t": 223972.61922916755,
      "d": 525.9897395833395,
      "v": 69
    },
    {
      "midi": 91,
      "hit": false,
      "t": 223997.37168750088,
      "d": 525.9897395833395,
      "v": 73
    },
    {
      "midi": 48,
      "hit": false,
      "t": 224350.09421875264,
      "d": 37.12868749999325,
      "v": 40
    },
    {
      "midi": 63,
      "hit": false,
      "t": 224548.1138854193,
      "d": 198.01966666668886,
      "v": 62
    },
    {
      "midi": 60,
      "hit": false,
      "t": 224548.1138854193,
      "d": 204.20778125003562,
      "v": 57
    },
    {
      "midi": 79,
      "hit": false,
      "t": 224554.3020000009,
      "d": 519.8016249999928,
      "v": 78
    },
    {
      "midi": 55,
      "hit": false,
      "t": 224554.30200000264,
      "d": 204.20778125003562,
      "v": 53
    },
    {
      "midi": 91,
      "hit": false,
      "t": 224566.67822916756,
      "d": 556.930312499986,
      "v": 71
    },
    {
      "midi": 48,
      "hit": false,
      "t": 224944.15321875268,
      "d": 43.31680208334001,
      "v": 51
    },
    {
      "midi": 80,
      "hit": false,
      "t": 225123.60854166755,
      "d": 383.6631041666551,
      "v": 66
    },
    {
      "midi": 92,
      "hit": false,
      "t": 225135.9847708342,
      "d": 426.9799062499951,
      "v": 63
    },
    {
      "midi": 60,
      "hit": false,
      "t": 225142.17288541934,
      "d": 210.39589583335328,
      "v": 69
    },
    {
      "midi": 55,
      "hit": false,
      "t": 225142.17288541934,
      "d": 272.27704166670446,
      "v": 59
    },
    {
      "midi": 63,
      "hit": false,
      "t": 225148.36100000268,
      "d": 210.39589583335328,
      "v": 74
    },
    {
      "midi": 77,
      "hit": false,
      "t": 225532.02410416753,
      "d": 2400.9884583333915,
      "v": 66
    },
    {
      "midi": 43,
      "hit": false,
      "t": 225538.2122187527,
      "d": 43.31680208334001,
      "v": 50
    },
    {
      "midi": 89,
      "hit": false,
      "t": 225581.52902083422,
      "d": 2264.8499375000247,
      "v": 67
    },
    {
      "midi": 53,
      "hit": false,
      "t": 225736.23188541937,
      "d": 253.71269791666418,
      "v": 57
    },
    {
      "midi": 62,
      "hit": false,
      "t": 225736.23188541937,
      "d": 266.0889270833286,
      "v": 52
    },
    {
      "midi": 59,
      "hit": false,
      "t": 225742.4200000009,
      "d": 2629.9486979166977,
      "v": 57
    },
    {
      "midi": 59,
      "hit": false,
      "t": 225742.42000000272,
      "d": 235.148354166653,
      "v": 52
    },
    {
      "midi": 67,
      "hit": false,
      "t": 225748.60811458423,
      "d": 5742.570333333366,
      "v": 57
    },
    {
      "midi": 74,
      "hit": false,
      "t": 225748.60811458423,
      "d": 5847.768281250057,
      "v": 64
    },
    {
      "midi": 65,
      "hit": false,
      "t": 225779.5486875009,
      "d": 2642.324927083333,
      "v": 56
    },
    {
      "midi": 43,
      "hit": false,
      "t": 226132.2712187527,
      "d": 49.504916666657664,
      "v": 50
    },
    {
      "midi": 53,
      "hit": false,
      "t": 226330.29088541935,
      "d": 222.7721250000177,
      "v": 59
    },
    {
      "midi": 62,
      "hit": false,
      "t": 226330.29088541935,
      "d": 235.1483541666821,
      "v": 62
    },
    {
      "midi": 59,
      "hit": false,
      "t": 226336.4790000027,
      "d": 210.39589583332418,
      "v": 54
    },
    {
      "midi": 43,
      "hit": false,
      "t": 226726.3302187527,
      "d": 43.31680208334001,
      "v": 40
    },
    {
      "midi": 62,
      "hit": false,
      "t": 226924.34988541936,
      "d": 198.01966666668886,
      "v": 71
    },
    {
      "midi": 53,
      "hit": false,
      "t": 226924.34988541936,
      "d": 210.39589583335328,
      "v": 66
    },
    {
      "midi": 59,
      "hit": false,
      "t": 226930.5380000027,
      "d": 148.5147500000021,
      "v": 64
    },
    {
      "midi": 43,
      "hit": false,
      "t": 227320.3892187527,
      "d": 30.940572916675592,
      "v": 69
    },
    {
      "midi": 60,
      "hit": false,
      "t": 227716.42855208606,
      "d": 154.70286458331975,
      "v": 66
    },
    {
      "midi": 63,
      "hit": false,
      "t": 227716.42855208606,
      "d": 179.45532291664858,
      "v": 72
    },
    {
      "midi": 61,
      "hit": false,
      "t": 227914.44821875272,
      "d": 136.13852083333768,
      "v": 53
    },
    {
      "midi": 64,
      "hit": false,
      "t": 227914.44821875272,
      "d": 167.07909375001327,
      "v": 59
    },
    {
      "midi": 77,
      "hit": false,
      "t": 228081.52731250093,
      "d": 587.8708854166616,
      "v": 67
    },
    {
      "midi": 59,
      "hit": false,
      "t": 228112.4678854194,
      "d": 259.90081250001094,
      "v": 69
    },
    {
      "midi": 65,
      "hit": false,
      "t": 228112.4678854194,
      "d": 309.4057291666977,
      "v": 74
    },
    {
      "midi": 89,
      "hit": false,
      "t": 228118.65600000092,
      "d": 556.9303125000151,
      "v": 72
    },
    {
      "midi": 58,
      "hit": false,
      "t": 228118.65600000275,
      "d": 30.940572916675592,
      "v": 57
    },
    {
      "midi": 62,
      "hit": false,
      "t": 228118.65600000275,
      "d": 259.90081250001094,
      "v": 53
    },
    {
      "midi": 55,
      "hit": false,
      "t": 228118.65600000275,
      "d": 278.4651562500221,
      "v": 28
    },
    {
      "midi": 43,
      "hit": false,
      "t": 228508.50721875278,
      "d": 49.504916666657664,
      "v": 40
    },
    {
      "midi": 62,
      "hit": false,
      "t": 228706.52688541944,
      "d": 210.39589583335328,
      "v": 49
    },
    {
      "midi": 65,
      "hit": false,
      "t": 228706.52688541944,
      "d": 241.33646875002887,
      "v": 56
    },
    {
      "midi": 59,
      "hit": false,
      "t": 228712.7150000028,
      "d": 216.58401041667094,
      "v": 51
    },
    {
      "midi": 55,
      "hit": false,
      "t": 228712.7150000028,
      "d": 222.7721250000177,
      "v": 51
    },
    {
      "midi": 77,
      "hit": false,
      "t": 228718.90311458427,
      "d": 532.1778541666572,
      "v": 58
    },
    {
      "midi": 89,
      "hit": false,
      "t": 228718.90311458427,
      "d": 544.5540833333216,
      "v": 66
    },
    {
      "midi": 43,
      "hit": false,
      "t": 229102.5662187528,
      "d": 30.940572916675592,
      "v": 57
    },
    {
      "midi": 62,
      "hit": false,
      "t": 229300.58588541948,
      "d": 173.26720833336003,
      "v": 53
    },
    {
      "midi": 59,
      "hit": false,
      "t": 229300.58588541948,
      "d": 191.8315520833712,
      "v": 49
    },
    {
      "midi": 65,
      "hit": false,
      "t": 229306.77400000283,
      "d": 222.7721250000177,
      "v": 63
    },
    {
      "midi": 55,
      "hit": false,
      "t": 229306.77400000283,
      "d": 247.52458333334653,
      "v": 53
    },
    {
      "midi": 77,
      "hit": false,
      "t": 229319.1502291676,
      "d": 544.5540833333216,
      "v": 68
    },
    {
      "midi": 89,
      "hit": false,
      "t": 229319.1502291676,
      "d": 575.4946562499972,
      "v": 74
    },
    {
      "midi": 43,
      "hit": false,
      "t": 229696.62521875283,
      "d": 37.12868749999325,
      "v": 58
    },
    {
      "midi": 80,
      "hit": false,
      "t": 229894.6448854176,
      "d": 538.365968750004,
      "v": 54
    },
    {
      "midi": 62,
      "hit": false,
      "t": 229894.6448854195,
      "d": 266.0889270833577,
      "v": 60
    },
    {
      "midi": 53,
      "hit": false,
      "t": 229894.6448854195,
      "d": 284.6532708333689,
      "v": 59
    },
    {
      "midi": 92,
      "hit": false,
      "t": 229900.83300000094,
      "d": 519.8016249999928,
      "v": 68
    },
    {
      "midi": 59,
      "hit": false,
      "t": 229900.83300000284,
      "d": 241.33646874999977,
      "v": 61
    },
    {
      "midi": 43,
      "hit": false,
      "t": 230290.68421875287,
      "d": 43.31680208334001,
      "v": 43
    },
    {
      "midi": 59,
      "hit": false,
      "t": 230488.70388541953,
      "d": 222.7721250000177,
      "v": 59
    },
    {
      "midi": 62,
      "hit": false,
      "t": 230488.70388541953,
      "d": 241.33646875002887,
      "v": 60
    },
    {
      "midi": 92,
      "hit": false,
      "t": 230494.89200000092,
      "d": 334.15818749999744,
      "v": 63
    },
    {
      "midi": 53,
      "hit": false,
      "t": 230494.89200000287,
      "d": 247.52458333334653,
      "v": 59
    },
    {
      "midi": 80,
      "hit": false,
      "t": 230507.2682291676,
      "d": 346.53441666666185,
      "v": 57
    },
    {
      "midi": 91,
      "hit": false,
      "t": 230853.80264583425,
      "d": 222.7721249999886,
      "v": 73
    },
    {
      "midi": 79,
      "hit": false,
      "t": 230878.55510416758,
      "d": 222.7721250000177,
      "v": 73
    },
    {
      "midi": 43,
      "hit": false,
      "t": 230884.74321875288,
      "d": 43.31680208334001,
      "v": 51
    },
    {
      "midi": 77,
      "hit": false,
      "t": 231082.7628854176,
      "d": 377.47498958333745,
      "v": 66
    },
    {
      "midi": 89,
      "hit": false,
      "t": 231082.7628854176,
      "d": 396.0393333333486,
      "v": 70
    },
    {
      "midi": 59,
      "hit": false,
      "t": 231082.76288541954,
      "d": 389.85121875003097,
      "v": 70
    },
    {
      "midi": 62,
      "hit": false,
      "t": 231082.76288541954,
      "d": 457.9204791666998,
      "v": 76
    },
    {
      "midi": 53,
      "hit": false,
      "t": 231088.95100000288,
      "d": 272.27704166667536,
      "v": 69
    },
    {
      "midi": 79,
      "hit": false,
      "t": 231460.23787500092,
      "d": 1398.5138958333991,
      "v": 72
    },
    {
      "midi": 48,
      "hit": false,
      "t": 231478.8022187529,
      "d": 61.88114583332208,
      "v": 36
    },
    {
      "midi": 91,
      "hit": false,
      "t": 231497.36656250095,
      "d": 1361.3852083333768,
      "v": 70
    },
    {
      "midi": 60,
      "hit": false,
      "t": 231676.82188541762,
      "d": 606.4352291666728,
      "v": 65
    },
    {
      "midi": 67,
      "hit": false,
      "t": 231676.82188541762,
      "d": 637.3758020833484,
      "v": 61
    },
    {
      "midi": 75,
      "hit": false,
      "t": 231676.82188541762,
      "d": 637.3758020833484,
      "v": 56
    },
    {
      "midi": 63,
      "hit": false,
      "t": 231676.82188541957,
      "d": 519.8016250000219,
      "v": 79
    },
    {
      "midi": 60,
      "hit": false,
      "t": 231676.82188541957,
      "d": 606.4352291667019,
      "v": 76
    },
    {
      "midi": 55,
      "hit": false,
      "t": 231683.01000000292,
      "d": 482.67293749999953,
      "v": 73
    },
    {
      "midi": 48,
      "hit": false,
      "t": 232072.86121875292,
      "d": 37.12868749999325,
      "v": 70
    },
    {
      "midi": 53,
      "hit": false,
      "t": 232270.88088541958,
      "d": 136.13852083336678,
      "v": 79
    },
    {
      "midi": 62,
      "hit": false,
      "t": 232270.88088541958,
      "d": 204.20778125006473,
      "v": 73
    },
    {
      "midi": 59,
      "hit": false,
      "t": 232277.06900000293,
      "d": 185.64343750002445,
      "v": 76
    },
    {
      "midi": 59,
      "hit": false,
      "t": 232320.38580208432,
      "d": 501.2372812500107,
      "v": 44
    },
    {
      "midi": 67,
      "hit": false,
      "t": 232338.95014583433,
      "d": 451.73236458332394,
      "v": 48
    },
    {
      "midi": 65,
      "hit": false,
      "t": 232338.95014583433,
      "d": 482.67293749999953,
      "v": 68
    },
    {
      "midi": 74,
      "hit": false,
      "t": 232338.95014583433,
      "d": 519.8016249999928,
      "v": 67
    },
    {
      "midi": 53,
      "hit": false,
      "t": 232468.9005520863,
      "d": 12.37622916669352,
      "v": 92
    },
    {
      "midi": 48,
      "hit": false,
      "t": 232666.920218753,
      "d": 49.504916666657664,
      "v": 38
    },
    {
      "midi": 60,
      "hit": false,
      "t": 232864.93988541965,
      "d": 290.84138541668653,
      "v": 60
    },
    {
      "midi": 63,
      "hit": false,
      "t": 232864.93988541965,
      "d": 321.7819583333621,
      "v": 74
    },
    {
      "midi": 55,
      "hit": false,
      "t": 232871.128000003,
      "d": 303.21761458335095,
      "v": 68
    },
    {
      "midi": 67,
      "hit": false,
      "t": 232883.50422916765,
      "d": 2673.2655000000086,
      "v": 62
    },
    {
      "midi": 75,
      "hit": false,
      "t": 232883.50422916765,
      "d": 3465.344166666706,
      "v": 54
    },
    {
      "midi": 60,
      "hit": false,
      "t": 232883.50422916765,
      "d": 3533.4134270833747,
      "v": 75
    },
    {
      "midi": 48,
      "hit": false,
      "t": 233260.979218753,
      "d": 61.88114583332208,
      "v": 29
    },
    {
      "midi": 63,
      "hit": false,
      "t": 233458.99888541966,
      "d": 290.84138541668653,
      "v": 72
    },
    {
      "midi": 55,
      "hit": false,
      "t": 233458.99888541966,
      "d": 315.59384375001537,
      "v": 58
    },
    {
      "midi": 60,
      "hit": false,
      "t": 233465.187000003,
      "d": 284.6532708333398,
      "v": 66
    },
    {
      "midi": 48,
      "hit": false,
      "t": 233855.038218753,
      "d": 43.31680208334001,
      "v": 58
    },
    {
      "midi": 79,
      "hit": false,
      "t": 234046.8697708343,
      "d": 544.5540833333507,
      "v": 71
    },
    {
      "midi": 55,
      "hit": false,
      "t": 234053.05788541966,
      "d": 352.7225312500377,
      "v": 74
    },
    {
      "midi": 63,
      "hit": false,
      "t": 234053.05788541966,
      "d": 352.7225312500377,
      "v": 83
    },
    {
      "midi": 60,
      "hit": false,
      "t": 234059.246000003,
      "d": 327.9700729166798,
      "v": 76
    },
    {
      "midi": 91,
      "hit": false,
      "t": 234096.37468750097,
      "d": 507.42539583335747,
      "v": 85
    },
    {
      "midi": 48,
      "hit": false,
      "t": 234449.09721875304,
      "d": 43.31680208334001,
      "v": 51
    },
    {
      "midi": 79,
      "hit": false,
      "t": 234640.92877083432,
      "d": 556.930312499986,
      "v": 72
    },
    {
      "midi": 63,
      "hit": false,
      "t": 234647.1168854197,
      "d": 235.14835416671121,
      "v": 60
    },
    {
      "midi": 55,
      "hit": false,
      "t": 234647.1168854197,
      "d": 272.27704166670446,
      "v": 55
    },
    {
      "midi": 60,
      "hit": false,
      "t": 234653.30500000305,
      "d": 185.64343750002445,
      "v": 57
    },
    {
      "midi": 91,
      "hit": false,
      "t": 234659.49311458433,
      "d": 556.930312499986,
      "v": 70
    },
    {
      "midi": 48,
      "hit": false,
      "t": 235043.15621875308,
      "d": 30.940572916675592,
      "v": 54
    },
    {
      "midi": 79,
      "hit": false,
      "t": 235234.98777083433,
      "d": 519.8016249999928,
      "v": 72
    },
    {
      "midi": 63,
      "hit": false,
      "t": 235241.17588541974,
      "d": 303.21761458335095,
      "v": 55
    },
    {
      "midi": 67,
      "hit": false,
      "t": 235241.17588541974,
      "d": 315.59384375001537,
      "v": 57
    },
    {
      "midi": 55,
      "hit": false,
      "t": 235247.3640000031,
      "d": 284.6532708333398,
      "v": 48
    },
    {
      "midi": 62,
      "hit": false,
      "t": 235247.3640000031,
      "d": 284.6532708333398,
      "v": 71
    },
    {
      "midi": 91,
      "hit": false,
      "t": 235259.74022916766,
      "d": 544.5540833333507,
      "v": 86
    },
    {
      "midi": 48,
      "hit": false,
      "t": 235637.2152187531,
      "d": 43.31680208334001,
      "v": 50
    },
    {
      "midi": 80,
      "hit": false,
      "t": 235810.48242708435,
      "d": 445.5442500000063,
      "v": 59
    },
    {
      "midi": 63,
      "hit": false,
      "t": 235835.23488541975,
      "d": 340.3463020833733,
      "v": 65
    },
    {
      "midi": 55,
      "hit": false,
      "t": 235835.23488541975,
      "d": 402.2274479167245,
      "v": 56
    },
    {
      "midi": 60,
      "hit": false,
      "t": 235841.4230000031,
      "d": 241.33646875002887,
      "v": 59
    },
    {
      "midi": 92,
      "hit": false,
      "t": 235872.36357291767,
      "d": 365.09876041667303,
      "v": 69
    },
    {
      "midi": 43,
      "hit": false,
      "t": 236231.27421875313,
      "d": 43.31680208334001,
      "v": 54
    },
    {
      "midi": 89,
      "hit": false,
      "t": 236256.02667708436,
      "d": 2246.2855937500135,
      "v": 73
    },
    {
      "midi": 77,
      "hit": false,
      "t": 236256.02667708436,
      "d": 2469.057718750002,
      "v": 71
    },
    {
      "midi": 59,
      "hit": false,
      "t": 236429.2938854198,
      "d": 303.21761458332185,
      "v": 53
    },
    {
      "midi": 62,
      "hit": false,
      "t": 236429.2938854198,
      "d": 321.781958333333,
      "v": 49
    },
    {
      "midi": 53,
      "hit": false,
      "t": 236435.48200000313,
      "d": 346.53441666666185,
      "v": 47
    },
    {
      "midi": 67,
      "hit": false,
      "t": 236441.67011458435,
      "d": 5699.253531250084,
      "v": 58
    },
    {
      "midi": 59,
      "hit": false,
      "t": 236441.67011458435,
      "d": 5711.6297604167485,
      "v": 58
    },
    {
      "midi": 74,
      "hit": false,
      "t": 236441.67011458435,
      "d": 5730.19410416676,
      "v": 66
    },
    {
      "midi": 65,
      "hit": false,
      "t": 236466.42257291768,
      "d": 3830.442927083379,
      "v": 57
    },
    {
      "midi": 43,
      "hit": false,
      "t": 236825.33321875313,
      "d": 37.12868749999325,
      "v": 53
    },
    {
      "midi": 59,
      "hit": false,
      "t": 237023.3528854198,
      "d": 315.59384375001537,
      "v": 51
    },
    {
      "midi": 62,
      "hit": false,
      "t": 237023.3528854198,
      "d": 327.9700729166798,
      "v": 53
    },
    {
      "midi": 53,
      "hit": false,
      "t": 237029.54100000314,
      "d": 414.6036770833307,
      "v": 42
    },
    {
      "midi": 43,
      "hit": false,
      "t": 237419.39221875314,
      "d": 49.504916666657664,
      "v": 50
    },
    {
      "midi": 62,
      "hit": false,
      "t": 237617.4118854198,
      "d": 303.21761458335095,
      "v": 58
    },
    {
      "midi": 53,
      "hit": false,
      "t": 237617.4118854198,
      "d": 352.7225312500086,
      "v": 51
    },
    {
      "midi": 59,
      "hit": false,
      "t": 237623.60000000315,
      "d": 290.84138541665743,
      "v": 57
    },
    {
      "midi": 43,
      "hit": false,
      "t": 238013.45121875315,
      "d": 30.940572916675592,
      "v": 53
    },
    {
      "midi": 62,
      "hit": false,
      "t": 238211.47088541984,
      "d": 198.01966666668886,
      "v": 79
    },
    {
      "midi": 59,
      "hit": false,
      "t": 238211.47088541984,
      "d": 210.39589583335328,
      "v": 74
    },
    {
      "midi": 53,
      "hit": false,
      "t": 238217.6590000032,
      "d": 129.95040624999092,
      "v": 71
    },
    {
      "midi": 53,
      "hit": false,
      "t": 238409.49055208653,
      "d": 55.693031250004424,
      "v": 54
    },
    {
      "midi": 43,
      "hit": false,
      "t": 238607.5102187532,
      "d": 37.12868749999325,
      "v": 54
    },
    {
      "midi": 89,
      "hit": false,
      "t": 238780.77742708437,
      "d": 550.7421979166684,
      "v": 73
    },
    {
      "midi": 77,
      "hit": false,
      "t": 238793.15365625103,
      "d": 550.7421979166684,
      "v": 71
    },
    {
      "midi": 62,
      "hit": false,
      "t": 238805.52988541985,
      "d": 303.21761458335095,
      "v": 59
    },
    {
      "midi": 65,
      "hit": false,
      "t": 238805.52988541985,
      "d": 340.3463020833442,
      "v": 57
    },
    {
      "midi": 59,
      "hit": false,
      "t": 238811.7180000032,
      "d": 309.4057291666686,
      "v": 55
    },
    {
      "midi": 55,
      "hit": false,
      "t": 238811.7180000032,
      "d": 346.53441666666185,
      "v": 57
    },
    {
      "midi": 43,
      "hit": false,
      "t": 239201.5692187532,
      "d": 43.31680208334001,
      "v": 42
    },
    {
      "midi": 77,
      "hit": false,
      "t": 239368.64831250103,
      "d": 612.6233437500196,
      "v": 65
    },
    {
      "midi": 89,
      "hit": false,
      "t": 239381.0245416677,
      "d": 550.7421979166684,
      "v": 75
    },
    {
      "midi": 62,
      "hit": false,
      "t": 239399.58888541986,
      "d": 241.33646874999977,
      "v": 51
    },
    {
      "midi": 65,
      "hit": false,
      "t": 239399.58888541986,
      "d": 266.0889270833577,
      "v": 54
    },
    {
      "midi": 59,
      "hit": false,
      "t": 239405.7770000032,
      "d": 253.71269791666418,
      "v": 47
    },
    {
      "midi": 55,
      "hit": false,
      "t": 239405.7770000032,
      "d": 303.21761458335095,
      "v": 39
    },
    {
      "midi": 43,
      "hit": false,
      "t": 239795.62821875323,
      "d": 37.12868749999325,
      "v": 49
    },
    {
      "midi": 89,
      "hit": false,
      "t": 239975.0835416677,
      "d": 581.682770833344,
      "v": 78
    },
    {
      "midi": 62,
      "hit": false,
      "t": 239993.6478854199,
      "d": 259.90081250001094,
      "v": 52
    },
    {
      "midi": 65,
      "hit": false,
      "t": 239993.6478854199,
      "d": 303.21761458335095,
      "v": 58
    },
    {
      "midi": 59,
      "hit": false,
      "t": 239999.83600000324,
      "d": 259.90081250001094,
      "v": 51
    },
    {
      "midi": 55,
      "hit": false,
      "t": 239999.83600000324,
      "d": 284.6532708333398,
      "v": 48
    },
    {
      "midi": 77,
      "hit": false,
      "t": 240012.21222916772,
      "d": 519.8016249999928,
      "v": 71
    },
    {
      "midi": 43,
      "hit": false,
      "t": 240389.68721875324,
      "d": 55.693031250004424,
      "v": 41
    },
    {
      "midi": 77,
      "hit": false,
      "t": 240562.9544270844,
      "d": 371.2868750000198,
      "v": 71
    },
    {
      "midi": 62,
      "hit": false,
      "t": 240587.7068854199,
      "d": 259.90081250004005,
      "v": 71
    },
    {
      "midi": 53,
      "hit": false,
      "t": 240587.7068854199,
      "d": 309.4057291666977,
      "v": 54
    },
    {
      "midi": 89,
      "hit": false,
      "t": 240593.89500000107,
      "d": 340.3463020833442,
      "v": 76
    },
    {
      "midi": 59,
      "hit": false,
      "t": 240593.89500000325,
      "d": 253.7126979166933,
      "v": 60
    },
    {
      "midi": 77,
      "hit": false,
      "t": 240971.3699895844,
      "d": 204.20778125000652,
      "v": 66
    },
    {
      "midi": 89,
      "hit": false,
      "t": 240983.74621875107,
      "d": 185.64343749999534,
      "v": 79
    },
    {
      "midi": 43,
      "hit": false,
      "t": 240983.74621875328,
      "d": 43.31680208334001,
      "v": 39
    },
    {
      "midi": 59,
      "hit": false,
      "t": 241181.76588541997,
      "d": 266.0889270833577,
      "v": 58
    },
    {
      "midi": 62,
      "hit": false,
      "t": 241181.76588541997,
      "d": 278.4651562500221,
      "v": 68
    },
    {
      "midi": 53,
      "hit": false,
      "t": 241187.95400000332,
      "d": 352.7225312500086,
      "v": 60
    },
    {
      "midi": 92,
      "hit": false,
      "t": 241194.14211458442,
      "d": 315.59384374998626,
      "v": 69
    },
    {
      "midi": 80,
      "hit": false,
      "t": 241194.14211458442,
      "d": 321.781958333333,
      "v": 53
    },
    {
      "midi": 79,
      "hit": false,
      "t": 241559.2408750011,
      "d": 228.96023958333535,
      "v": 73
    },
    {
      "midi": 91,
      "hit": false,
      "t": 241559.2408750011,
      "d": 228.96023958333535,
      "v": 80
    },
    {
      "midi": 43,
      "hit": false,
      "t": 241577.80521875332,
      "d": 43.31680208334001,
      "v": 49
    },
    {
      "midi": 59,
      "hit": false,
      "t": 241775.82488541998,
      "d": 179.4553229166777,
      "v": 59
    },
    {
      "midi": 62,
      "hit": false,
      "t": 241775.82488541998,
      "d": 179.4553229166777,
      "v": 73
    },
    {
      "midi": 53,
      "hit": false,
      "t": 241782.01300000332,
      "d": 235.148354166653,
      "v": 68
    },
    {
      "midi": 77,
      "hit": false,
      "t": 241800.5773437511,
      "d": 352.7225312500086,
      "v": 72
    },
    {
      "midi": 89,
      "hit": false,
      "t": 241819.1416875011,
      "d": 408.41556250001304,
      "v": 67
    },
    {
      "midi": 63,
      "hit": false,
      "t": 242171.8642187533,
      "d": 680.6926041666884,
      "v": 64
    },
    {
      "midi": 56,
      "hit": false,
      "t": 242171.8642187533,
      "d": 699.2569479166996,
      "v": 56
    },
    {
      "midi": 87,
      "hit": false,
      "t": 242178.05233333446,
      "d": 1342.8208645833365,
      "v": 69
    },
    {
      "midi": 60,
      "hit": false,
      "t": 242178.05233333664,
      "d": 631.1876875000016,
      "v": 59
    },
    {
      "midi": 55,
      "hit": false,
      "t": 242178.05233333664,
      "d": 1262.3753750000324,
      "v": 38
    },
    {
      "midi": 75,
      "hit": false,
      "t": 242190.42856250113,
      "d": 185.64343749999534,
      "v": 64
    },
    {
      "midi": 60,
      "hit": false,
      "t": 242357.5076562511,
      "d": 451.73236458335305,
      "v": 76
    },
    {
      "midi": 67,
      "hit": false,
      "t": 242357.5076562511,
      "d": 3397.2749062500952,
      "v": 58
    },
    {
      "midi": 75,
      "hit": false,
      "t": 242382.26011458447,
      "d": 1707.9196250000095,
      "v": 53
    },
    {
      "midi": 68,
      "hit": false,
      "t": 242382.26011458447,
      "d": 3372.5224479167373,
      "v": 45
    },
    {
      "midi": 60,
      "hit": false,
      "t": 242963.94288542,
      "d": 396.0393333333486,
      "v": 53
    },
    {
      "midi": 63,
      "hit": false,
      "t": 242963.94288542,
      "d": 414.6036770833598,
      "v": 55
    },
    {
      "midi": 56,
      "hit": false,
      "t": 242970.13100000334,
      "d": 408.41556250001304,
      "v": 46
    },
    {
      "midi": 44,
      "hit": false,
      "t": 243359.98221875334,
      "d": 55.693031250004424,
      "v": 32
    },
    {
      "midi": 63,
      "hit": false,
      "t": 243558.00188542,
      "d": 377.47498958333745,
      "v": 53
    },
    {
      "midi": 55,
      "hit": false,
      "t": 243558.00188542,
      "d": 414.6036770833598,
      "v": 30
    },
    {
      "midi": 87,
      "hit": false,
      "t": 243564.19000000114,
      "d": 532.1778541666863,
      "v": 51
    },
    {
      "midi": 56,
      "hit": false,
      "t": 243564.19000000335,
      "d": 352.7225312499795,
      "v": 45
    },
    {
      "midi": 60,
      "hit": false,
      "t": 243564.19000000335,
      "d": 358.91064583332627,
      "v": 49
    },
    {
      "midi": 44,
      "hit": false,
      "t": 243954.04121875335,
      "d": 37.12868750002235,
      "v": 42
    },
    {
      "midi": 87,
      "hit": false,
      "t": 244139.68465625116,
      "d": 581.682770833344,
      "v": 62
    },
    {
      "midi": 60,
      "hit": false,
      "t": 244152.06088542004,
      "d": 346.53441666666185,
      "v": 38
    },
    {
      "midi": 56,
      "hit": false,
      "t": 244152.06088542004,
      "d": 358.9106458333554,
      "v": 44
    },
    {
      "midi": 75,
      "hit": false,
      "t": 244158.24900000117,
      "d": 525.9897395833395,
      "v": 64
    },
    {
      "midi": 63,
      "hit": false,
      "t": 244158.2490000034,
      "d": 346.53441666666185,
      "v": 43
    },
    {
      "midi": 55,
      "hit": false,
      "t": 244158.2490000034,
      "d": 408.41556250001304,
      "v": 28
    },
    {
      "midi": 44,
      "hit": false,
      "t": 244548.1002187534,
      "d": 37.12868750002235,
      "v": 41
    },
    {
      "midi": 75,
      "hit": false,
      "t": 244733.74365625117,
      "d": 550.7421979166684,
      "v": 59
    },
    {
      "midi": 63,
      "hit": false,
      "t": 244746.11988542008,
      "d": 290.84138541671564,
      "v": 56
    },
    {
      "midi": 55,
      "hit": false,
      "t": 244746.11988542008,
      "d": 327.9700729167089,
      "v": 41
    },
    {
      "midi": 60,
      "hit": false,
      "t": 244752.30800000342,
      "d": 259.90081250001094,
      "v": 54
    },
    {
      "midi": 56,
      "hit": false,
      "t": 244752.30800000342,
      "d": 278.4651562500221,
      "v": 46
    },
    {
      "midi": 87,
      "hit": false,
      "t": 244795.6248020845,
      "d": 519.8016250000219,
      "v": 69
    },
    {
      "midi": 44,
      "hit": false,
      "t": 245142.15921875346,
      "d": 37.12868749999325,
      "v": 37
    },
    {
      "midi": 77,
      "hit": false,
      "t": 245327.80265625118,
      "d": 426.9799062500242,
      "v": 71
    },
    {
      "midi": 60,
      "hit": false,
      "t": 245340.17888542011,
      "d": 290.84138541668653,
      "v": 49
    },
    {
      "midi": 63,
      "hit": false,
      "t": 245340.17888542011,
      "d": 340.3463020833733,
      "v": 62
    },
    {
      "midi": 55,
      "hit": false,
      "t": 245346.36700000346,
      "d": 266.0889270833286,
      "v": 57
    },
    {
      "midi": 56,
      "hit": false,
      "t": 245346.36700000346,
      "d": 303.21761458335095,
      "v": 53
    },
    {
      "midi": 89,
      "hit": false,
      "t": 245358.74322916786,
      "d": 377.47498958333745,
      "v": 73
    },
    {
      "midi": 65,
      "hit": false,
      "t": 245736.2182187535,
      "d": 538.3659687500331,
      "v": 78
    },
    {
      "midi": 63,
      "hit": false,
      "t": 245736.2182187535,
      "d": 587.8708854167198,
      "v": 43
    },
    {
      "midi": 53,
      "hit": false,
      "t": 245742.40633333684,
      "d": 519.8016249999928,
      "v": 43
    },
    {
      "midi": 60,
      "hit": false,
      "t": 245742.40633333684,
      "d": 525.9897395833395,
      "v": 50
    },
    {
      "midi": 56,
      "hit": false,
      "t": 245742.40633333684,
      "d": 563.1184270833619,
      "v": 43
    },
    {
      "midi": 75,
      "hit": false,
      "t": 245754.7825625012,
      "d": 30.940572916675592,
      "v": 62
    },
    {
      "midi": 87,
      "hit": false,
      "t": 245760.97067708455,
      "d": 2543.315093750076,
      "v": 66
    },
    {
      "midi": 68,
      "hit": false,
      "t": 245909.48542708455,
      "d": 2264.8499375000247,
      "v": 54
    },
    {
      "midi": 60,
      "hit": false,
      "t": 245909.48542708455,
      "d": 2283.414281250036,
      "v": 66
    },
    {
      "midi": 75,
      "hit": false,
      "t": 245940.42600000123,
      "d": 2221.5331354166847,
      "v": 47
    },
    {
      "midi": 65,
      "hit": false,
      "t": 245946.61411458458,
      "d": 1435.6425833333342,
      "v": 57
    },
    {
      "midi": 53,
      "hit": false,
      "t": 246330.27721875356,
      "d": 18.564343750011176,
      "v": 60
    },
    {
      "midi": 65,
      "hit": false,
      "t": 246528.29688542022,
      "d": 290.84138541665743,
      "v": 75
    },
    {
      "midi": 63,
      "hit": false,
      "t": 246528.29688542022,
      "d": 334.15818749999744,
      "v": 55
    },
    {
      "midi": 60,
      "hit": false,
      "t": 246534.48500000357,
      "d": 315.59384374998626,
      "v": 57
    },
    {
      "midi": 56,
      "hit": false,
      "t": 246534.48500000357,
      "d": 346.53441666666185,
      "v": 59
    },
    {
      "midi": 53,
      "hit": false,
      "t": 246924.33621875357,
      "d": 18.564343750011176,
      "v": 59
    },
    {
      "midi": 65,
      "hit": false,
      "t": 247122.35588542026,
      "d": 259.90081250004005,
      "v": 70
    },
    {
      "midi": 63,
      "hit": false,
      "t": 247122.35588542026,
      "d": 334.15818750005565,
      "v": 54
    },
    {
      "midi": 60,
      "hit": false,
      "t": 247128.5440000036,
      "d": 334.15818750005565,
      "v": 63
    },
    {
      "midi": 56,
      "hit": false,
      "t": 247128.5440000036,
      "d": 340.3463020834024,
      "v": 59
    },
    {
      "midi": 53,
      "hit": false,
      "t": 247518.39521875366,
      "d": 43.31680208334001,
      "v": 37
    },
    {
      "midi": 65,
      "hit": false,
      "t": 247716.41488542032,
      "d": 148.5147500000021,
      "v": 73
    },
    {
      "midi": 63,
      "hit": false,
      "t": 247716.41488542032,
      "d": 185.64343750002445,
      "v": 55
    },
    {
      "midi": 60,
      "hit": false,
      "t": 247722.60300000367,
      "d": 160.8909791666665,
      "v": 58
    },
    {
      "midi": 56,
      "hit": false,
      "t": 247722.60300000367,
      "d": 185.64343750002445,
      "v": 70
    },
    {
      "midi": 53,
      "hit": false,
      "t": 247914.43455208704,
      "d": 18.564343750011176,
      "v": 75
    },
    {
      "midi": 53,
      "hit": false,
      "t": 248112.45421875373,
      "d": 30.940572916675592,
      "v": 58
    },
    {
      "midi": 79,
      "hit": false,
      "t": 248285.7214270846,
      "d": 2153.463875000045,
      "v": 73
    },
    {
      "midi": 86,
      "hit": false,
      "t": 248291.90954166793,
      "d": 2190.592562500038,
      "v": 76
    },
    {
      "midi": 74,
      "hit": false,
      "t": 248298.09765625128,
      "d": 2301.978625000047,
      "v": 57
    },
    {
      "midi": 62,
      "hit": false,
      "t": 248310.47388542042,
      "d": 377.47498958333745,
      "v": 69
    },
    {
      "midi": 67,
      "hit": false,
      "t": 248310.47388542042,
      "d": 377.47498958333745,
      "v": 67
    },
    {
      "midi": 72,
      "hit": false,
      "t": 248316.6620000013,
      "d": 1169.5536562500056,
      "v": 62
    },
    {
      "midi": 67,
      "hit": false,
      "t": 248316.6620000013,
      "d": 1386.1376666666765,
      "v": 52
    },
    {
      "midi": 55,
      "hit": false,
      "t": 248316.66200000377,
      "d": 346.53441666666185,
      "v": 53
    },
    {
      "midi": 60,
      "hit": false,
      "t": 248316.66200000377,
      "d": 383.6631041666551,
      "v": 58
    },
    {
      "midi": 55,
      "hit": false,
      "t": 248706.51321875377,
      "d": 37.12868749999325,
      "v": 55
    },
    {
      "midi": 67,
      "hit": false,
      "t": 248904.53288542043,
      "d": 377.47498958333745,
      "v": 56
    },
    {
      "midi": 62,
      "hit": false,
      "t": 248904.53288542043,
      "d": 389.85121875000186,
      "v": 55
    },
    {
      "midi": 60,
      "hit": false,
      "t": 248910.72100000377,
      "d": 426.9799062500242,
      "v": 57
    },
    {
      "midi": 55,
      "hit": false,
      "t": 249300.57221875378,
      "d": 74.2573750000156,
      "v": 17
    },
    {
      "midi": 59,
      "hit": false,
      "t": 249498.59188542044,
      "d": 204.20778125003562,
      "v": 71
    },
    {
      "midi": 67,
      "hit": false,
      "t": 249498.59188542044,
      "d": 204.20778125003562,
      "v": 75
    },
    {
      "midi": 71,
      "hit": false,
      "t": 249504.7800000013,
      "d": 1089.1081666666723,
      "v": 58
    },
    {
      "midi": 62,
      "hit": false,
      "t": 249504.78000000378,
      "d": 198.01966666668886,
      "v": 69
    },
    {
      "midi": 55,
      "hit": false,
      "t": 249696.61155208712,
      "d": 68.06926041666884,
      "v": 54
    },
    {
      "midi": 55,
      "hit": false,
      "t": 250074.08654166796,
      "d": 519.8016250000219,
      "v": 57
    },
    {
      "midi": 67,
      "hit": false,
      "t": 250092.65088542044,
      "d": 402.2274479166954,
      "v": 71
    },
    {
      "midi": 62,
      "hit": false,
      "t": 250092.65088542044,
      "d": 538.3659687500331,
      "v": 67
    },
    {
      "midi": 59,
      "hit": false,
      "t": 250098.8390000038,
      "d": 377.47498958333745,
      "v": 63
    },
    {
      "midi": 55,
      "hit": false,
      "t": 250098.8390000038,
      "d": 439.35613541668863,
      "v": 71
    }
  ]
}