{
  "jsonPath": "Unknown/Unknown/Friedrich Silcher/the-loreley.json",
  "path": "Unknown\\Unknown\\Friedrich Silcher\\The Loreley.mid",
  "name": "The Loreley",
  "difficulty": "Advanced",
  "bpm": 76.00006586672374,
  "notes": [
    {
      "midi": 69,
      "hit": false,
      "t": 0,
      "d": 394.73650000000004,
      "v": 127
    },
    {
      "midi": 66,
      "hit": false,
      "t": 394.73650000000004,
      "d": 592.10475,
      "v": 127
    },
    {
      "midi": 69,
      "hit": false,
      "t": 394.73650000000004,
      "d": 592.10475,
      "v": 127
    },
    {
      "midi": 50,
      "hit": false,
      "t": 394.73650000000004,
      "d": 394.73650000000004,
      "v": 127
    },
    {
      "midi": 54,
      "hit": false,
      "t": 789.4730000000001,
      "d": 394.7365000000001,
      "v": 127
    },
    {
      "midi": 71,
      "hit": false,
      "t": 986.84125,
      "d": 197.36825,
      "v": 127
    },
    {
      "midi": 69,
      "hit": false,
      "t": 1184.2095,
      "d": 394.7365,
      "v": 127
    },
    {
      "midi": 57,
      "hit": false,
      "t": 1184.2095000000002,
      "d": 394.7365,
      "v": 127
    },
    {
      "midi": 71,
      "hit": false,
      "t": 1578.946,
      "d": 394.7365,
      "v": 127
    },
    {
      "midi": 74,
      "hit": false,
      "t": 1578.946,
      "d": 394.7365,
      "v": 127
    },
    {
      "midi": 50,
      "hit": false,
      "t": 1578.9460000000001,
      "d": 394.7365,
      "v": 127
    },
    {
      "midi": 73,
      "hit": false,
      "t": 1973.6825,
      "d": 394.7365,
      "v": 127
    },
    {
      "midi": 55,
      "hit": false,
      "t": 1973.6825000000001,
      "d": 394.7365000000002,
      "v": 127
    },
    {
      "midi": 71,
      "hit": false,
      "t": 2368.419,
      "d": 394.7365,
      "v": 127
    },
    {
      "midi": 59,
      "hit": false,
      "t": 2368.4190000000003,
      "d": 394.7365,
      "v": 127
    },
    {
      "midi": 66,
      "hit": false,
      "t": 2763.1555,
      "d": 1184.2095,
      "v": 127
    },
    {
      "midi": 69,
      "hit": false,
      "t": 2763.1555,
      "d": 1184.2095,
      "v": 127
    },
    {
      "midi": 50,
      "hit": false,
      "t": 2763.1555000000003,
      "d": 394.7365,
      "v": 127
    },
    {
      "midi": 54,
      "hit": false,
      "t": 3157.8920000000003,
      "d": 394.7365,
      "v": 127
    },
    {
      "midi": 57,
      "hit": false,
      "t": 3552.6285000000003,
      "d": 394.7365,
      "v": 127
    },
    {
      "midi": 64,
      "hit": false,
      "t": 3947.365,
      "d": 789.473,
      "v": 127
    },
    {
      "midi": 67,
      "hit": false,
      "t": 3947.365,
      "d": 789.473,
      "v": 127
    },
    {
      "midi": 43,
      "hit": false,
      "t": 3947.3650000000002,
      "d": 394.73650000000043,
      "v": 127
    },
    {
      "midi": 47,
      "hit": false,
      "t": 4342.101500000001,
      "d": 394.7365,
      "v": 127
    },
    {
      "midi": 67,
      "hit": false,
      "t": 4736.838,
      "d": 394.7365,
      "v": 127
    },
    {
      "midi": 52,
      "hit": false,
      "t": 4736.838000000001,
      "d": 394.7365,
      "v": 127
    },
    {
      "midi": 62,
      "hit": false,
      "t": 5131.5745,
      "d": 789.473,
      "v": 127
    },
    {
      "midi": 66,
      "hit": false,
      "t": 5131.5745,
      "d": 789.473,
      "v": 127
    },
    {
      "midi": 45,
      "hit": false,
      "t": 5131.574500000001,
      "d": 394.7365,
      "v": 127
    },
    {
      "midi": 50,
      "hit": false,
      "t": 5526.311000000001,
      "d": 394.7365,
      "v": 127
    },
    {
      "midi": 66,
      "hit": false,
      "t": 5921.0475,
      "d": 394.7365,
      "v": 127
    },
    {
      "midi": 57,
      "hit": false,
      "t": 5921.047500000001,
      "d": 394.7365,
      "v": 127
    },
    {
      "midi": 61,
      "hit": false,
      "t": 6315.784,
      "d": 394.7365,
      "v": 127
    },
    {
      "midi": 64,
      "hit": false,
      "t": 6315.784,
      "d": 394.7365,
      "v": 127
    },
    {
      "midi": 45,
      "hit": false,
      "t": 6315.784000000001,
      "d": 394.7365,
      "v": 127
    },
    {
      "midi": 62,
      "hit": false,
      "t": 6710.5205,
      "d": 394.7365,
      "v": 127
    },
    {
      "midi": 52,
      "hit": false,
      "t": 6710.5205000000005,
      "d": 394.7365,
      "v": 127
    },
    {
      "midi": 64,
      "hit": false,
      "t": 7105.257,
      "d": 394.7365,
      "v": 127
    },
    {
      "midi": 49,
      "hit": false,
      "t": 7105.2570000000005,
      "d": 394.7365,
      "v": 127
    },
    {
      "midi": 62,
      "hit": false,
      "t": 7499.9935,
      "d": 1578.9460000000008,
      "v": 127
    },
    {
      "midi": 66,
      "hit": false,
      "t": 7499.9935,
      "d": 1578.9460000000008,
      "v": 127
    },
    {
      "midi": 50,
      "hit": false,
      "t": 7499.9935000000005,
      "d": 394.7365,
      "v": 127
    },
    {
      "midi": 54,
      "hit": false,
      "t": 7894.7300000000005,
      "d": 394.7365,
      "v": 127
    },
    {
      "midi": 57,
      "hit": false,
      "t": 8289.4665,
      "d": 394.7365000000009,
      "v": 127
    },
    {
      "midi": 50,
      "hit": false,
      "t": 8684.203000000001,
      "d": 394.7365000000009,
      "v": 127
    },
    {
      "midi": 54,
      "hit": false,
      "t": 9078.939500000002,
      "d": 394.7365000000009,
      "v": 127
    },
    {
      "midi": 69,
      "hit": false,
      "t": 9473.676000000001,
      "d": 394.7365000000009,
      "v": 127
    },
    {
      "midi": 57,
      "hit": false,
      "t": 9473.676000000003,
      "d": 394.7365000000009,
      "v": 127
    },
    {
      "midi": 66,
      "hit": false,
      "t": 9868.412500000002,
      "d": 592.1047500000004,
      "v": 127
    },
    {
      "midi": 69,
      "hit": false,
      "t": 9868.412500000002,
      "d": 592.1047500000004,
      "v": 127
    },
    {
      "midi": 50,
      "hit": false,
      "t": 9868.412500000004,
      "d": 394.7365000000009,
      "v": 127
    },
    {
      "midi": 54,
      "hit": false,
      "t": 10263.149000000005,
      "d": 394.7365000000009,
      "v": 127
    },
    {
      "midi": 67,
      "hit": false,
      "t": 10460.517250000003,
      "d": 197.36824999999953,
      "v": 127
    },
    {
      "midi": 71,
      "hit": false,
      "t": 10460.517250000003,
      "d": 197.36824999999953,
      "v": 127
    },
    {
      "midi": 66,
      "hit": false,
      "t": 10657.885500000002,
      "d": 394.7365000000009,
      "v": 127
    },
    {
      "midi": 69,
      "hit": false,
      "t": 10657.885500000002,
      "d": 394.7365000000009,
      "v": 127
    },
    {
      "midi": 57,
      "hit": false,
      "t": 10657.885500000006,
      "d": 394.7365000000009,
      "v": 127
    },
    {
      "midi": 71,
      "hit": false,
      "t": 11052.622000000003,
      "d": 394.7365000000009,
      "v": 127
    },
    {
      "midi": 74,
      "hit": false,
      "t": 11052.622000000003,
      "d": 394.7365000000009,
      "v": 127
    },
    {
      "midi": 50,
      "hit": false,
      "t": 11052.622000000007,
      "d": 394.7365000000009,
      "v": 127
    },
    {
      "midi": 69,
      "hit": false,
      "t": 11447.358500000004,
      "d": 394.7365000000009,
      "v": 127
    },
    {
      "midi": 73,
      "hit": false,
      "t": 11447.358500000004,
      "d": 394.7365000000009,
      "v": 127
    },
    {
      "midi": 55,
      "hit": false,
      "t": 11447.358500000008,
      "d": 394.7365000000009,
      "v": 127
    },
    {
      "midi": 67,
      "hit": false,
      "t": 11842.095000000005,
      "d": 394.7365000000009,
      "v": 127
    },
    {
      "midi": 71,
      "hit": false,
      "t": 11842.095000000005,
      "d": 394.7365000000009,
      "v": 127
    },
    {
      "midi": 59,
      "hit": false,
      "t": 11842.095000000008,
      "d": 394.7365000000009,
      "v": 127
    },
    {
      "midi": 66,
      "hit": false,
      "t": 12236.831500000006,
      "d": 1184.209499999999,
      "v": 127
    },
    {
      "midi": 69,
      "hit": false,
      "t": 12236.831500000006,
      "d": 1184.209499999999,
      "v": 127
    },
    {
      "midi": 50,
      "hit": false,
      "t": 12236.83150000001,
      "d": 394.7365000000009,
      "v": 127
    },
    {
      "midi": 54,
      "hit": false,
      "t": 12631.56800000001,
      "d": 394.7365000000009,
      "v": 127
    },
    {
      "midi": 57,
      "hit": false,
      "t": 13026.304500000011,
      "d": 394.7365000000009,
      "v": 127
    },
    {
      "midi": 64,
      "hit": false,
      "t": 13421.041000000005,
      "d": 789.473,
      "v": 127
    },
    {
      "midi": 67,
      "hit": false,
      "t": 13421.041000000005,
      "d": 789.473,
      "v": 127
    },
    {
      "midi": 43,
      "hit": false,
      "t": 13421.041000000012,
      "d": 394.7365000000009,
      "v": 127
    },
    {
      "midi": 47,
      "hit": false,
      "t": 13815.777500000013,
      "d": 394.7365000000009,
      "v": 127
    },
    {
      "midi": 67,
      "hit": false,
      "t": 14210.514000000005,
      "d": 394.7365000000009,
      "v": 127
    },
    {
      "midi": 52,
      "hit": false,
      "t": 14210.514000000014,
      "d": 394.7365000000009,
      "v": 127
    },
    {
      "midi": 62,
      "hit": false,
      "t": 14605.250500000006,
      "d": 789.473,
      "v": 127
    },
    {
      "midi": 66,
      "hit": false,
      "t": 14605.250500000006,
      "d": 789.473,
      "v": 127
    },
    {
      "midi": 45,
      "hit": false,
      "t": 14605.250500000015,
      "d": 394.7365000000009,
      "v": 127
    },
    {
      "midi": 50,
      "hit": false,
      "t": 14999.987000000016,
      "d": 394.7365000000009,
      "v": 127
    },
    {
      "midi": 66,
      "hit": false,
      "t": 15394.723500000006,
      "d": 394.7365000000009,
      "v": 127
    },
    {
      "midi": 57,
      "hit": false,
      "t": 15394.723500000016,
      "d": 394.7365000000009,
      "v": 127
    },
    {
      "midi": 61,
      "hit": false,
      "t": 15789.460000000006,
      "d": 394.7365000000009,
      "v": 127
    },
    {
      "midi": 69,
      "hit": false,
      "t": 15789.460000000006,
      "d": 394.7365000000009,
      "v": 127
    },
    {
      "midi": 45,
      "hit": false,
      "t": 15789.460000000017,
      "d": 394.7365000000009,
      "v": 127
    },
    {
      "midi": 67,
      "hit": false,
      "t": 16184.196500000007,
      "d": 394.7365000000009,
      "v": 127
    },
    {
      "midi": 52,
      "hit": false,
      "t": 16184.196500000018,
      "d": 394.7365000000009,
      "v": 127
    },
    {
      "midi": 64,
      "hit": false,
      "t": 16578.933000000008,
      "d": 394.73649999999907,
      "v": 127
    },
    {
      "midi": 49,
      "hit": false,
      "t": 16578.93300000002,
      "d": 394.73649999999907,
      "v": 127
    },
    {
      "midi": 62,
      "hit": false,
      "t": 16973.669500000007,
      "d": 1184.2095000000008,
      "v": 127
    },
    {
      "midi": 50,
      "hit": false,
      "t": 16973.669500000018,
      "d": 394.73649999999907,
      "v": 127
    },
    {
      "midi": 54,
      "hit": false,
      "t": 16973.669500000018,
      "d": 394.73649999999907,
      "v": 127
    },
    {
      "midi": 45,
      "hit": false,
      "t": 17368.406000000017,
      "d": 394.73649999999907,
      "v": 127
    },
    {
      "midi": 50,
      "hit": false,
      "t": 17763.142500000016,
      "d": 394.73649999999907,
      "v": 127
    },
    {
      "midi": 62,
      "hit": false,
      "t": 18157.879000000008,
      "d": 789.4730000000018,
      "v": 127
    },
    {
      "midi": 38,
      "hit": false,
      "t": 18157.879000000015,
      "d": 789.4730000000018,
      "v": 127
    },
    {
      "midi": 66,
      "hit": false,
      "t": 18947.35200000001,
      "d": 394.73649999999907,
      "v": 127
    },
    {
      "midi": 61,
      "hit": false,
      "t": 19342.08850000001,
      "d": 592.1047499999986,
      "v": 127
    },
    {
      "midi": 64,
      "hit": false,
      "t": 19342.08850000001,
      "d": 592.1047499999986,
      "v": 127
    },
    {
      "midi": 45,
      "hit": false,
      "t": 19342.088500000016,
      "d": 394.73649999999907,
      "v": 127
    },
    {
      "midi": 52,
      "hit": false,
      "t": 19736.825000000015,
      "d": 394.73649999999907,
      "v": 127
    },
    {
      "midi": 61,
      "hit": false,
      "t": 19934.193250000008,
      "d": 197.36824999999953,
      "v": 127
    },
    {
      "midi": 64,
      "hit": false,
      "t": 20131.561500000007,
      "d": 394.73649999999907,
      "v": 127
    },
    {
      "midi": 57,
      "hit": false,
      "t": 20131.561500000014,
      "d": 394.73649999999907,
      "v": 127
    },
    {
      "midi": 64,
      "hit": false,
      "t": 20526.298000000006,
      "d": 394.73649999999907,
      "v": 127
    },
    {
      "midi": 69,
      "hit": false,
      "t": 20526.298000000006,
      "d": 394.73649999999907,
      "v": 127
    },
    {
      "midi": 49,
      "hit": false,
      "t": 20526.298000000013,
      "d": 394.73649999999907,
      "v": 127
    },
    {
      "midi": 64,
      "hit": false,
      "t": 20921.034500000005,
      "d": 394.73649999999907,
      "v": 127
    },
    {
      "midi": 57,
      "hit": false,
      "t": 20921.034500000012,
      "d": 394.73649999999907,
      "v": 127
    },
    {
      "midi": 69,
      "hit": false,
      "t": 21315.771000000004,
      "d": 394.73649999999907,
      "v": 127
    },
    {
      "midi": 52,
      "hit": false,
      "t": 21315.77100000001,
      "d": 394.73649999999907,
      "v": 127
    },
    {
      "midi": 73,
      "hit": false,
      "t": 21710.507500000003,
      "d": 1184.2095000000008,
      "v": 127
    },
    {
      "midi": 50,
      "hit": false,
      "t": 21710.50750000001,
      "d": 394.73649999999907,
      "v": 127
    },
    {
      "midi": 54,
      "hit": false,
      "t": 22105.24400000001,
      "d": 394.73649999999907,
      "v": 127
    },
    {
      "midi": 59,
      "hit": false,
      "t": 22499.98050000001,
      "d": 394.73649999999907,
      "v": 127
    },
    {
      "midi": 71,
      "hit": false,
      "t": 22894.717000000004,
      "d": 789.4730000000018,
      "v": 127
    },
    {
      "midi": 50,
      "hit": false,
      "t": 22894.717000000008,
      "d": 394.73649999999907,
      "v": 127
    },
    {
      "midi": 54,
      "hit": false,
      "t": 23289.453500000007,
      "d": 394.73649999999907,
      "v": 127
    },
    {
      "midi": 71,
      "hit": false,
      "t": 23684.190000000006,
      "d": 394.73649999999907,
      "v": 127
    },
    {
      "midi": 50,
      "hit": false,
      "t": 23684.190000000006,
      "d": 394.73649999999907,
      "v": 127
    },
    {
      "midi": 69,
      "hit": false,
      "t": 24078.926500000005,
      "d": 789.4730000000018,
      "v": 127
    },
    {
      "midi": 52,
      "hit": false,
      "t": 24078.926500000005,
      "d": 394.73649999999907,
      "v": 127
    },
    {
      "midi": 57,
      "hit": false,
      "t": 24473.663000000004,
      "d": 394.73649999999907,
      "v": 127
    },
    {
      "midi": 52,
      "hit": false,
      "t": 24868.399500000003,
      "d": 394.73649999999907,
      "v": 127
    },
    {
      "midi": 69,
      "hit": false,
      "t": 24868.399500000007,
      "d": 394.73649999999907,
      "v": 127
    },
    {
      "midi": 52,
      "hit": false,
      "t": 25263.136000000002,
      "d": 394.73649999999907,
      "v": 127
    },
    {
      "midi": 62,
      "hit": false,
      "t": 25263.136000000006,
      "d": 394.73649999999907,
      "v": 127
    },
    {
      "midi": 64,
      "hit": false,
      "t": 25263.136000000006,
      "d": 394.73649999999907,
      "v": 127
    },
    {
      "midi": 68,
      "hit": false,
      "t": 25263.136000000006,
      "d": 394.73649999999907,
      "v": 127
    },
    {
      "midi": 59,
      "hit": false,
      "t": 25657.8725,
      "d": 394.73649999999907,
      "v": 127
    },
    {
      "midi": 69,
      "hit": false,
      "t": 25657.872500000005,
      "d": 394.73649999999907,
      "v": 127
    },
    {
      "midi": 52,
      "hit": false,
      "t": 26052.609,
      "d": 394.73649999999907,
      "v": 127
    },
    {
      "midi": 71,
      "hit": false,
      "t": 26052.609000000004,
      "d": 394.73649999999907,
      "v": 127
    },
    {
      "midi": 45,
      "hit": false,
      "t": 26447.3455,
      "d": 1973.682499999999,
      "v": 127
    },
    {
      "midi": 52,
      "hit": false,
      "t": 26447.3455,
      "d": 1973.682499999999,
      "v": 127
    },
    {
      "midi": 61,
      "hit": false,
      "t": 26447.345500000003,
      "d": 394.73649999999907,
      "v": 127
    },
    {
      "midi": 69,
      "hit": false,
      "t": 26447.345500000003,
      "d": 394.73649999999907,
      "v": 127
    },
    {
      "midi": 61,
      "hit": false,
      "t": 26842.082000000002,
      "d": 394.73649999999907,
      "v": 127
    },
    {
      "midi": 64,
      "hit": false,
      "t": 26842.082000000002,
      "d": 394.73649999999907,
      "v": 127
    },
    {
      "midi": 62,
      "hit": false,
      "t": 27236.8185,
      "d": 394.73649999999907,
      "v": 127
    },
    {
      "midi": 66,
      "hit": false,
      "t": 27236.8185,
      "d": 394.73649999999907,
      "v": 127
    },
    {
      "midi": 64,
      "hit": false,
      "t": 27631.555,
      "d": 394.73649999999907,
      "v": 127
    },
    {
      "midi": 67,
      "hit": false,
      "t": 27631.555,
      "d": 394.73649999999907,
      "v": 127
    },
    {
      "midi": 62,
      "hit": false,
      "t": 28026.2915,
      "d": 394.73649999999907,
      "v": 127
    },
    {
      "midi": 66,
      "hit": false,
      "t": 28026.2915,
      "d": 394.73649999999907,
      "v": 127
    },
    {
      "midi": 61,
      "hit": false,
      "t": 28421.028,
      "d": 394.73649999999907,
      "v": 127
    },
    {
      "midi": 64,
      "hit": false,
      "t": 28421.028,
      "d": 394.73649999999907,
      "v": 127
    },
    {
      "midi": 69,
      "hit": false,
      "t": 28421.028,
      "d": 394.73649999999907,
      "v": 127
    },
    {
      "midi": 66,
      "hit": false,
      "t": 28815.764499999997,
      "d": 592.1047499999986,
      "v": 127
    },
    {
      "midi": 69,
      "hit": false,
      "t": 28815.764499999997,
      "d": 592.1047499999986,
      "v": 127
    },
    {
      "midi": 38,
      "hit": false,
      "t": 28815.764499999997,
      "d": 394.73649999999907,
      "v": 127
    },
    {
      "midi": 42,
      "hit": false,
      "t": 29210.500999999997,
      "d": 394.73649999999907,
      "v": 127
    },
    {
      "midi": 71,
      "hit": false,
      "t": 29407.869249999996,
      "d": 197.36824999999953,
      "v": 127
    },
    {
      "midi": 66,
      "hit": false,
      "t": 29605.237499999996,
      "d": 394.73649999999907,
      "v": 127
    },
    {
      "midi": 69,
      "hit": false,
      "t": 29605.237499999996,
      "d": 394.73649999999907,
      "v": 127
    },
    {
      "midi": 45,
      "hit": false,
      "t": 29605.237499999996,
      "d": 394.73649999999907,
      "v": 127
    },
    {
      "midi": 71,
      "hit": false,
      "t": 29999.973999999995,
      "d": 394.73649999999907,
      "v": 127
    },
    {
      "midi": 74,
      "hit": false,
      "t": 29999.973999999995,
      "d": 394.73649999999907,
      "v": 127
    },
    {
      "midi": 38,
      "hit": false,
      "t": 29999.973999999995,
      "d": 394.73649999999907,
      "v": 127
    },
    {
      "midi": 69,
      "hit": false,
      "t": 30394.710499999994,
      "d": 394.73649999999907,
      "v": 127
    },
    {
      "midi": 73,
      "hit": false,
      "t": 30394.710499999994,
      "d": 394.73649999999907,
      "v": 127
    },
    {
      "midi": 43,
      "hit": false,
      "t": 30394.710499999994,
      "d": 394.73649999999907,
      "v": 127
    },
    {
      "midi": 67,
      "hit": false,
      "t": 30789.446999999993,
      "d": 394.73649999999907,
      "v": 127
    },
    {
      "midi": 71,
      "hit": false,
      "t": 30789.446999999993,
      "d": 394.73649999999907,
      "v": 127
    },
    {
      "midi": 47,
      "hit": false,
      "t": 30789.446999999993,
      "d": 394.73649999999907,
      "v": 127
    },
    {
      "midi": 66,
      "hit": false,
      "t": 31184.183499999992,
      "d": 789.4730000000018,
      "v": 127
    },
    {
      "midi": 69,
      "hit": false,
      "t": 31184.183499999992,
      "d": 789.4730000000018,
      "v": 127
    },
    {
      "midi": 50,
      "hit": false,
      "t": 31184.183499999992,
      "d": 394.73649999999907,
      "v": 127
    },
    {
      "midi": 54,
      "hit": false,
      "t": 31578.91999999999,
      "d": 394.73649999999907,
      "v": 127
    },
    {
      "midi": 57,
      "hit": false,
      "t": 31973.65649999999,
      "d": 394.73649999999907,
      "v": 127
    },
    {
      "midi": 69,
      "hit": false,
      "t": 31973.656499999994,
      "d": 394.73649999999907,
      "v": 127
    },
    {
      "midi": 78,
      "hit": false,
      "t": 31973.656499999994,
      "d": 394.73649999999907,
      "v": 127
    },
    {
      "midi": 43,
      "hit": false,
      "t": 32368.39299999999,
      "d": 394.73649999999907,
      "v": 127
    },
    {
      "midi": 67,
      "hit": false,
      "t": 32368.392999999993,
      "d": 789.4730000000018,
      "v": 127
    },
    {
      "midi": 71,
      "hit": false,
      "t": 32368.392999999993,
      "d": 789.4730000000018,
      "v": 127
    },
    {
      "midi": 76,
      "hit": false,
      "t": 32368.392999999993,
      "d": 789.4730000000018,
      "v": 127
    },
    {
      "midi": 47,
      "hit": false,
      "t": 32763.12949999999,
      "d": 394.73649999999907,
      "v": 127
    },
    {
      "midi": 43,
      "hit": false,
      "t": 33157.86599999999,
      "d": 394.73649999999907,
      "v": 127
    },
    {
      "midi": 67,
      "hit": false,
      "t": 33157.865999999995,
      "d": 394.73649999999907,
      "v": 127
    },
    {
      "midi": 71,
      "hit": false,
      "t": 33157.865999999995,
      "d": 394.73649999999907,
      "v": 127
    },
    {
      "midi": 76,
      "hit": false,
      "t": 33157.865999999995,
      "d": 394.73649999999907,
      "v": 127
    },
    {
      "midi": 45,
      "hit": false,
      "t": 33552.602499999986,
      "d": 394.73649999999907,
      "v": 127
    },
    {
      "midi": 74,
      "hit": false,
      "t": 33552.60249999999,
      "d": 789.4729999999981,
      "v": 127
    },
    {
      "midi": 50,
      "hit": false,
      "t": 33947.338999999985,
      "d": 394.73649999999907,
      "v": 127
    },
    {
      "midi": 54,
      "hit": false,
      "t": 34342.075499999984,
      "d": 394.73649999999907,
      "v": 127
    },
    {
      "midi": 74,
      "hit": false,
      "t": 34342.07549999999,
      "d": 394.73649999999907,
      "v": 127
    },
    {
      "midi": 45,
      "hit": false,
      "t": 34736.81199999998,
      "d": 394.73649999999907,
      "v": 127
    },
    {
      "midi": 64,
      "hit": false,
      "t": 34736.81199999999,
      "d": 394.73649999999907,
      "v": 127
    },
    {
      "midi": 67,
      "hit": false,
      "t": 34736.81199999999,
      "d": 394.73649999999907,
      "v": 127
    },
    {
      "midi": 73,
      "hit": false,
      "t": 34736.81199999999,
      "d": 394.73649999999907,
      "v": 127
    },
    {
      "midi": 52,
      "hit": false,
      "t": 35131.54849999998,
      "d": 394.73649999999907,
      "v": 127
    },
    {
      "midi": 71,
      "hit": false,
      "t": 35131.54849999999,
      "d": 394.73649999999907,
      "v": 127
    },
    {
      "midi": 45,
      "hit": false,
      "t": 35526.28499999998,
      "d": 394.73649999999907,
      "v": 127
    },
    {
      "midi": 73,
      "hit": false,
      "t": 35526.28499999999,
      "d": 394.73649999999907,
      "v": 127
    },
    {
      "midi": 50,
      "hit": false,
      "t": 35921.02149999998,
      "d": 394.73649999999907,
      "v": 127
    },
    {
      "midi": 62,
      "hit": false,
      "t": 35921.02149999999,
      "d": 1184.2094999999972,
      "v": 127
    },
    {
      "midi": 66,
      "hit": false,
      "t": 35921.02149999999,
      "d": 1184.2094999999972,
      "v": 127
    },
    {
      "midi": 74,
      "hit": false,
      "t": 35921.02149999999,
      "d": 1184.2094999999972,
      "v": 127
    },
    {
      "midi": 45,
      "hit": false,
      "t": 36315.75799999998,
      "d": 394.73649999999907,
      "v": 127
    },
    {
      "midi": 42,
      "hit": false,
      "t": 36710.49449999998,
      "d": 394.73649999999907,
      "v": 127
    },
    {
      "midi": 38,
      "hit": false,
      "t": 37105.23099999998,
      "d": 394.73649999999907,
      "v": 127
    },
    {
      "midi": 62,
      "hit": false,
      "t": 37105.230999999985,
      "d": 394.73649999999907,
      "v": 127
    },
    {
      "midi": 66,
      "hit": false,
      "t": 37105.230999999985,
      "d": 394.73649999999907,
      "v": 127
    },
    {
      "midi": 74,
      "hit": false,
      "t": 37105.230999999985,
      "d": 394.73649999999907,
      "v": 127
    }
  ]
}