{
  "jsonPath": "Jazz/Contemporary Vocal Jazz/Denise King/our-love-is-here-to-stay-trio.json",
  "path": "Jazz\\Contemporary Vocal Jazz\\Denise King\\Our Love Is Here To Stay (trio).mid",
  "name": "Our Love Is Here To Stay (trio)",
  "difficulty": "Advanced",
  "bpm": 120,
  "notes": [
    {
      "midi": 55,
      "hit": false,
      "t": 0,
      "d": 307.5387291666667,
      "v": 60
    },
    {
      "midi": 57,
      "hit": false,
      "t": 272.8166145833333,
      "d": 59.52362500000004,
      "v": 78
    },
    {
      "midi": 62,
      "hit": false,
      "t": 282.73721875,
      "d": 24.8015104166667,
      "v": 66
    },
    {
      "midi": 67,
      "hit": false,
      "t": 292.6578229166667,
      "d": 29.76181250000002,
      "v": 62
    },
    {
      "midi": 72,
      "hit": false,
      "t": 292.6578229166667,
      "d": 34.72211458333334,
      "v": 52
    },
    {
      "midi": 65,
      "hit": false,
      "t": 927.5764895833333,
      "d": 332.3402395833332,
      "v": 79
    },
    {
      "midi": 74,
      "hit": false,
      "t": 927.5764895833333,
      "d": 381.9432604166666,
      "v": 75
    },
    {
      "midi": 70,
      "hit": false,
      "t": 927.5764895833333,
      "d": 391.8638645833332,
      "v": 70
    },
    {
      "midi": 56,
      "hit": false,
      "t": 932.5367916666667,
      "d": 917.6558854166665,
      "v": 51
    },
    {
      "midi": 60,
      "hit": false,
      "t": 937.49709375,
      "d": 590.2759479166666,
      "v": 51
    },
    {
      "midi": 81,
      "hit": false,
      "t": 1770.8278437499998,
      "d": 143.84876041666666,
      "v": 79
    },
    {
      "midi": 64,
      "hit": false,
      "t": 1949.3987187499997,
      "d": 426.5859791666662,
      "v": 39
    },
    {
      "midi": 59,
      "hit": false,
      "t": 1949.3987187499997,
      "d": 431.54628124999954,
      "v": 39
    },
    {
      "midi": 53,
      "hit": false,
      "t": 1959.3193229166664,
      "d": 406.74477083333295,
      "v": 34
    },
    {
      "midi": 77,
      "hit": false,
      "t": 1969.239927083333,
      "d": 436.50658333333286,
      "v": 36
    },
    {
      "midi": 93,
      "hit": false,
      "t": 2876.9752083333324,
      "d": 451.38748958333326,
      "v": 75
    },
    {
      "midi": 59,
      "hit": false,
      "t": 2876.9752083333324,
      "d": 491.0699062499998,
      "v": 51
    },
    {
      "midi": 81,
      "hit": false,
      "t": 2881.9355104166657,
      "d": 530.7523229166663,
      "v": 49
    },
    {
      "midi": 64,
      "hit": false,
      "t": 2886.895812499999,
      "d": 466.2683958333332,
      "v": 49
    },
    {
      "midi": 88,
      "hit": false,
      "t": 2886.895812499999,
      "d": 505.95081249999976,
      "v": 58
    },
    {
      "midi": 53,
      "hit": false,
      "t": 2901.776718749999,
      "d": 476.18899999999985,
      "v": 33
    },
    {
      "midi": 77,
      "hit": false,
      "t": 3819.4326041666654,
      "d": 510.911114583334,
      "v": 39
    },
    {
      "midi": 82,
      "hit": false,
      "t": 3819.4326041666654,
      "d": 510.911114583334,
      "v": 36
    },
    {
      "midi": 89,
      "hit": false,
      "t": 3824.3929062499988,
      "d": 436.5065833333333,
      "v": 51
    },
    {
      "midi": 86,
      "hit": false,
      "t": 3824.3929062499988,
      "d": 461.30809375000035,
      "v": 42
    },
    {
      "midi": 62,
      "hit": false,
      "t": 3824.3929062499988,
      "d": 560.5141354166676,
      "v": 36
    },
    {
      "midi": 58,
      "hit": false,
      "t": 3829.353208333332,
      "d": 565.4744375000009,
      "v": 36
    },
    {
      "midi": 57,
      "hit": false,
      "t": 3834.3135104166654,
      "d": 525.7920208333339,
      "v": 33
    },
    {
      "midi": 53,
      "hit": false,
      "t": 3854.1547187499987,
      "d": 520.8317187500011,
      "v": 27
    },
    {
      "midi": 81,
      "hit": false,
      "t": 4747.00909375,
      "d": 119.04725000000235,
      "v": 78
    },
    {
      "midi": 70,
      "hit": false,
      "t": 4751.969395833334,
      "d": 114.08694791666858,
      "v": 74
    },
    {
      "midi": 58,
      "hit": false,
      "t": 4756.9296979166675,
      "d": 109.1266458333348,
      "v": 62
    },
    {
      "midi": 64,
      "hit": false,
      "t": 4761.890000000001,
      "d": 79.36483333333399,
      "v": 66
    },
    {
      "midi": 73,
      "hit": false,
      "t": 4761.890000000001,
      "d": 84.32513541666776,
      "v": 57
    },
    {
      "midi": 76,
      "hit": false,
      "t": 4766.850302083335,
      "d": 104.16634375000103,
      "v": 65
    },
    {
      "midi": 70,
      "hit": false,
      "t": 5218.237791666669,
      "d": 193.45178125000166,
      "v": 69
    },
    {
      "midi": 81,
      "hit": false,
      "t": 5233.11869791667,
      "d": 79.36483333333399,
      "v": 46
    },
    {
      "midi": 58,
      "hit": false,
      "t": 5233.11869791667,
      "d": 94.2457395833344,
      "v": 52
    },
    {
      "midi": 76,
      "hit": false,
      "t": 5233.11869791667,
      "d": 143.84876041666757,
      "v": 58
    },
    {
      "midi": 73,
      "hit": false,
      "t": 5238.079000000003,
      "d": 198.41208333333452,
      "v": 46
    },
    {
      "midi": 64,
      "hit": false,
      "t": 5243.039302083337,
      "d": 173.61057291666748,
      "v": 51
    },
    {
      "midi": 67,
      "hit": false,
      "t": 5714.268000000005,
      "d": 694.4422916666681,
      "v": 39
    },
    {
      "midi": 77,
      "hit": false,
      "t": 5719.228302083338,
      "d": 838.2910520833348,
      "v": 46
    },
    {
      "midi": 72,
      "hit": false,
      "t": 5724.188604166672,
      "d": 684.5216875000006,
      "v": 53
    },
    {
      "midi": 62,
      "hit": false,
      "t": 5729.148906250006,
      "d": 620.037760416667,
      "v": 37
    },
    {
      "midi": 57,
      "hit": false,
      "t": 5744.029812500006,
      "d": 739.0850104166666,
      "v": 44
    },
    {
      "midi": 56,
      "hit": false,
      "t": 6994.025937500006,
      "d": 476.1890000000012,
      "v": 77
    },
    {
      "midi": 82,
      "hit": false,
      "t": 6994.025937500006,
      "d": 476.1890000000012,
      "v": 85
    },
    {
      "midi": 62,
      "hit": false,
      "t": 6998.98623958334,
      "d": 386.9035625000006,
      "v": 75
    },
    {
      "midi": 67,
      "hit": false,
      "t": 6998.98623958334,
      "d": 411.70507291666763,
      "v": 85
    },
    {
      "midi": 65,
      "hit": false,
      "t": 7614.063697916674,
      "d": 466.2683958333355,
      "v": 53
    },
    {
      "midi": 72,
      "hit": false,
      "t": 7619.024000000008,
      "d": 486.10960416666876,
      "v": 54
    },
    {
      "midi": 81,
      "hit": false,
      "t": 7623.984302083341,
      "d": 545.6332291666686,
      "v": 62
    },
    {
      "midi": 57,
      "hit": false,
      "t": 7628.944604166675,
      "d": 496.0302083333345,
      "v": 58
    },
    {
      "midi": 60,
      "hit": false,
      "t": 7643.825510416676,
      "d": 451.3874895833342,
      "v": 58
    },
    {
      "midi": 89,
      "hit": false,
      "t": 8541.64018750001,
      "d": 69.44422916666554,
      "v": 79
    },
    {
      "midi": 77,
      "hit": false,
      "t": 8546.600489583343,
      "d": 59.52362499999981,
      "v": 77
    },
    {
      "midi": 86,
      "hit": false,
      "t": 8546.600489583343,
      "d": 59.52362499999981,
      "v": 66
    },
    {
      "midi": 82,
      "hit": false,
      "t": 8546.600489583343,
      "d": 69.44422916666554,
      "v": 59
    },
    {
      "midi": 65,
      "hit": false,
      "t": 8551.560791666676,
      "d": 49.603020833334085,
      "v": 76
    },
    {
      "midi": 60,
      "hit": false,
      "t": 8556.521093750009,
      "d": 34.72211458333368,
      "v": 62
    },
    {
      "midi": 58,
      "hit": false,
      "t": 8556.521093750009,
      "d": 64.48392708333267,
      "v": 55
    },
    {
      "midi": 54,
      "hit": false,
      "t": 8561.481395833342,
      "d": 39.68241666666836,
      "v": 48
    },
    {
      "midi": 82,
      "hit": false,
      "t": 9007.908583333343,
      "d": 183.53117708333411,
      "v": 70
    },
    {
      "midi": 86,
      "hit": false,
      "t": 9017.82918750001,
      "d": 128.96785416666717,
      "v": 68
    },
    {
      "midi": 77,
      "hit": false,
      "t": 9017.82918750001,
      "d": 173.61057291666657,
      "v": 71
    },
    {
      "midi": 65,
      "hit": false,
      "t": 9027.749791666678,
      "d": 243.0548020833321,
      "v": 67
    },
    {
      "midi": 58,
      "hit": false,
      "t": 9027.749791666678,
      "d": 406.74477083333113,
      "v": 40
    },
    {
      "midi": 60,
      "hit": false,
      "t": 9032.71009375001,
      "d": 218.25329166666597,
      "v": 52
    },
    {
      "midi": 54,
      "hit": false,
      "t": 9032.71009375001,
      "d": 396.8241666666654,
      "v": 49
    },
    {
      "midi": 71,
      "hit": false,
      "t": 9494.018187500009,
      "d": 461.3080937499981,
      "v": 48
    },
    {
      "midi": 76,
      "hit": false,
      "t": 9498.978489583342,
      "d": 401.78446874999827,
      "v": 53
    },
    {
      "midi": 81,
      "hit": false,
      "t": 9503.938791666675,
      "d": 352.181447916666,
      "v": 51
    },
    {
      "midi": 64,
      "hit": false,
      "t": 9508.899093750008,
      "d": 411.7050729166658,
      "v": 49
    },
    {
      "midi": 59,
      "hit": false,
      "t": 9513.85939583334,
      "d": 436.50658333333377,
      "v": 47
    },
    {
      "midi": 53,
      "hit": false,
      "t": 9538.660906250007,
      "d": 471.22869791666744,
      "v": 31
    },
    {
      "midi": 63,
      "hit": false,
      "t": 10456.316791666675,
      "d": 624.9980625000007,
      "v": 53
    },
    {
      "midi": 59,
      "hit": false,
      "t": 10466.237395833343,
      "d": 649.7995729166669,
      "v": 54
    },
    {
      "midi": 53,
      "hit": false,
      "t": 10481.118302083343,
      "d": 530.7523229166654,
      "v": 36
    },
    {
      "midi": 46,
      "hit": false,
      "t": 11304.528447916677,
      "d": 49.603020833334085,
      "v": 19
    },
    {
      "midi": 48,
      "hit": false,
      "t": 11364.052072916678,
      "d": 29.761812500000815,
      "v": 47
    },
    {
      "midi": 50,
      "hit": false,
      "t": 11408.69479166668,
      "d": 272.8166145833329,
      "v": 53
    },
    {
      "midi": 55,
      "hit": false,
      "t": 11413.655093750012,
      "d": 262.8960104166672,
      "v": 59
    },
    {
      "midi": 58,
      "hit": false,
      "t": 11413.655093750012,
      "d": 282.73721875000047,
      "v": 52
    },
    {
      "midi": 62,
      "hit": false,
      "t": 11413.655093750012,
      "d": 297.6181250000009,
      "v": 60
    },
    {
      "midi": 51,
      "hit": false,
      "t": 11686.471708333345,
      "d": 54.56332291666877,
      "v": 37
    },
    {
      "midi": 55,
      "hit": false,
      "t": 11745.995333333347,
      "d": 114.08694791666676,
      "v": 71
    },
    {
      "midi": 58,
      "hit": false,
      "t": 11745.995333333347,
      "d": 148.80906250000044,
      "v": 57
    },
    {
      "midi": 65,
      "hit": false,
      "t": 11755.915937500014,
      "d": 128.96785416666535,
      "v": 66
    },
    {
      "midi": 62,
      "hit": false,
      "t": 11760.876239583347,
      "d": 143.84876041666757,
      "v": 60
    },
    {
      "midi": 53,
      "hit": false,
      "t": 11765.83654166668,
      "d": 173.6105729166684,
      "v": 68
    },
    {
      "midi": 50,
      "hit": false,
      "t": 11949.367718750016,
      "d": 297.61812499999905,
      "v": 32
    },
    {
      "midi": 53,
      "hit": false,
      "t": 12237.06523958335,
      "d": 109.12664583333208,
      "v": 64
    },
    {
      "midi": 55,
      "hit": false,
      "t": 12237.06523958335,
      "d": 114.08694791666494,
      "v": 70
    },
    {
      "midi": 58,
      "hit": false,
      "t": 12237.06523958335,
      "d": 128.96785416666535,
      "v": 59
    },
    {
      "midi": 65,
      "hit": false,
      "t": 12242.025541666682,
      "d": 119.04724999999962,
      "v": 60
    },
    {
      "midi": 62,
      "hit": false,
      "t": 12242.025541666682,
      "d": 133.92815625000003,
      "v": 66
    },
    {
      "midi": 53,
      "hit": false,
      "t": 12440.437625000015,
      "d": 94.24573958333167,
      "v": 45
    },
    {
      "midi": 55,
      "hit": false,
      "t": 12445.397927083348,
      "d": 153.76936458333148,
      "v": 50
    },
    {
      "midi": 58,
      "hit": false,
      "t": 12445.397927083348,
      "d": 158.72966666666434,
      "v": 37
    },
    {
      "midi": 62,
      "hit": false,
      "t": 12450.35822916668,
      "d": 223.21359374999884,
      "v": 49
    },
    {
      "midi": 65,
      "hit": false,
      "t": 12450.35822916668,
      "d": 228.1738958333317,
      "v": 48
    },
    {
      "midi": 55,
      "hit": false,
      "t": 12857.103000000012,
      "d": 84.32513541666594,
      "v": 59
    },
    {
      "midi": 60,
      "hit": false,
      "t": 12862.063302083345,
      "d": 128.96785416666717,
      "v": 58
    },
    {
      "midi": 64,
      "hit": false,
      "t": 12862.063302083345,
      "d": 173.6105729166684,
      "v": 55
    },
    {
      "midi": 46,
      "hit": false,
      "t": 12867.023604166678,
      "d": 94.24573958333349,
      "v": 40
    },
    {
      "midi": 69,
      "hit": false,
      "t": 13338.252302083347,
      "d": 461.3080937499999,
      "v": 76
    },
    {
      "midi": 72,
      "hit": false,
      "t": 13338.252302083347,
      "d": 496.0302083333336,
      "v": 79
    },
    {
      "midi": 60,
      "hit": false,
      "t": 13343.21260416668,
      "d": 565.4744375000009,
      "v": 56
    },
    {
      "midi": 61,
      "hit": false,
      "t": 13343.21260416668,
      "d": 595.2362500000017,
      "v": 48
    },
    {
      "midi": 65,
      "hit": false,
      "t": 13348.172906250013,
      "d": 515.8714166666687,
      "v": 62
    },
    {
      "midi": 55,
      "hit": false,
      "t": 13348.172906250013,
      "d": 610.1171562500022,
      "v": 57
    },
    {
      "midi": 86,
      "hit": false,
      "t": 14270.789093750016,
      "d": 500.9905104166646,
      "v": 60
    },
    {
      "midi": 74,
      "hit": false,
      "t": 14275.749395833349,
      "d": 545.6332291666658,
      "v": 62
    },
    {
      "midi": 80,
      "hit": false,
      "t": 14280.709697916682,
      "d": 535.7126250000001,
      "v": 45
    },
    {
      "midi": 54,
      "hit": false,
      "t": 14280.709697916682,
      "d": 624.9980624999989,
      "v": 55
    },
    {
      "midi": 83,
      "hit": false,
      "t": 14285.670000000015,
      "d": 505.9508124999993,
      "v": 60
    },
    {
      "midi": 64,
      "hit": false,
      "t": 14285.670000000015,
      "d": 520.8317187499997,
      "v": 58
    },
    {
      "midi": 60,
      "hit": false,
      "t": 14290.630302083347,
      "d": 510.911114583334,
      "v": 45
    },
    {
      "midi": 69,
      "hit": false,
      "t": 15208.286187500014,
      "d": 441.4668854166648,
      "v": 57
    },
    {
      "midi": 65,
      "hit": false,
      "t": 15213.246489583347,
      "d": 411.705072916664,
      "v": 46
    },
    {
      "midi": 59,
      "hit": false,
      "t": 15218.20679166668,
      "d": 416.6653749999987,
      "v": 50
    },
    {
      "midi": 64,
      "hit": false,
      "t": 15223.167093750013,
      "d": 461.3080937499999,
      "v": 40
    },
    {
      "midi": 53,
      "hit": false,
      "t": 15267.809812500012,
      "d": 367.0623541666664,
      "v": 17
    },
    {
      "midi": 69,
      "hit": false,
      "t": 16031.696333333348,
      "d": 64.48392708333449,
      "v": 87
    },
    {
      "midi": 65,
      "hit": false,
      "t": 16031.696333333348,
      "d": 79.3648333333349,
      "v": 92
    },
    {
      "midi": 76,
      "hit": false,
      "t": 16031.696333333348,
      "d": 94.24573958333531,
      "v": 84
    },
    {
      "midi": 64,
      "hit": false,
      "t": 16031.696333333348,
      "d": 104.16634375000285,
      "v": 81
    },
    {
      "midi": 72,
      "hit": false,
      "t": 16041.616937500015,
      "d": 79.3648333333349,
      "v": 71
    },
    {
      "midi": 65,
      "hit": false,
      "t": 16339.235062500018,
      "d": 213.2929895833331,
      "v": 80
    },
    {
      "midi": 76,
      "hit": false,
      "t": 16339.235062500018,
      "d": 262.8960104166654,
      "v": 76
    },
    {
      "midi": 69,
      "hit": false,
      "t": 16344.195364583351,
      "d": 208.33268750000025,
      "v": 73
    },
    {
      "midi": 72,
      "hit": false,
      "t": 16344.195364583351,
      "d": 223.21359375000065,
      "v": 66
    },
    {
      "midi": 64,
      "hit": false,
      "t": 16344.195364583351,
      "d": 277.7769166666676,
      "v": 73
    },
    {
      "midi": 62,
      "hit": false,
      "t": 16661.654697916685,
      "d": 34.7221145833355,
      "v": 55
    },
    {
      "midi": 74,
      "hit": false,
      "t": 16671.57530208335,
      "d": 84.3251354166714,
      "v": 48
    },
    {
      "midi": 69,
      "hit": false,
      "t": 16676.535604166686,
      "d": 69.444229166671,
      "v": 46
    },
    {
      "midi": 65,
      "hit": false,
      "t": 16676.535604166686,
      "d": 104.16634375000285,
      "v": 38
    },
    {
      "midi": 62,
      "hit": false,
      "t": 17108.081885416686,
      "d": 34.7221145833355,
      "v": 52
    },
    {
      "midi": 67,
      "hit": false,
      "t": 17108.081885416686,
      "d": 44.64271875000122,
      "v": 56
    },
    {
      "midi": 72,
      "hit": false,
      "t": 17113.04218750002,
      "d": 44.64271875000122,
      "v": 43
    },
    {
      "midi": 58,
      "hit": false,
      "t": 17113.04218750002,
      "d": 64.48392708333631,
      "v": 51
    },
    {
      "midi": 52,
      "hit": false,
      "t": 17127.92309375002,
      "d": 34.7221145833355,
      "v": 47
    },
    {
      "midi": 86,
      "hit": false,
      "t": 18090.22169791669,
      "d": 59.52362500000163,
      "v": 59
    },
    {
      "midi": 93,
      "hit": false,
      "t": 18095.182000000026,
      "d": 34.7221145833355,
      "v": 59
    },
    {
      "midi": 98,
      "hit": false,
      "t": 18095.182000000026,
      "d": 59.52362500000163,
      "v": 68
    },
    {
      "midi": 64,
      "hit": false,
      "t": 18100.14230208336,
      "d": 64.48392708333267,
      "v": 65
    },
    {
      "midi": 54,
      "hit": false,
      "t": 18100.14230208336,
      "d": 69.44422916666736,
      "v": 58
    },
    {
      "midi": 60,
      "hit": false,
      "t": 18105.102604166696,
      "d": 34.72211458333186,
      "v": 50
    },
    {
      "midi": 86,
      "hit": false,
      "t": 18422.561937500028,
      "d": 104.16634375000285,
      "v": 73
    },
    {
      "midi": 98,
      "hit": false,
      "t": 18422.561937500028,
      "d": 104.16634375000285,
      "v": 76
    },
    {
      "midi": 64,
      "hit": false,
      "t": 18427.522239583363,
      "d": 104.16634375000285,
      "v": 75
    },
    {
      "midi": 93,
      "hit": false,
      "t": 18427.522239583363,
      "d": 104.16634375000285,
      "v": 74
    },
    {
      "midi": 54,
      "hit": false,
      "t": 18427.522239583363,
      "d": 128.96785416667262,
      "v": 73
    },
    {
      "midi": 60,
      "hit": false,
      "t": 18432.482541666697,
      "d": 119.04725000000326,
      "v": 69
    },
    {
      "midi": 96,
      "hit": false,
      "t": 18601.132812500036,
      "d": 79.36483333333308,
      "v": 67
    },
    {
      "midi": 84,
      "hit": false,
      "t": 18616.013718750037,
      "d": 54.56332291666695,
      "v": 48
    },
    {
      "midi": 64,
      "hit": false,
      "t": 18616.013718750037,
      "d": 74.4045312499984,
      "v": 43
    },
    {
      "midi": 54,
      "hit": false,
      "t": 18616.013718750037,
      "d": 84.32513541666776,
      "v": 55
    },
    {
      "midi": 91,
      "hit": false,
      "t": 18620.97402083337,
      "d": 39.68241666666654,
      "v": 54
    },
    {
      "midi": 60,
      "hit": false,
      "t": 18625.934322916706,
      "d": 69.44422916666372,
      "v": 53
    },
    {
      "midi": 64,
      "hit": false,
      "t": 18913.631843750038,
      "d": 34.7221145833355,
      "v": 53
    },
    {
      "midi": 60,
      "hit": false,
      "t": 18918.592145833372,
      "d": 34.7221145833355,
      "v": 44
    },
    {
      "midi": 84,
      "hit": false,
      "t": 18918.592145833372,
      "d": 54.563322916670586,
      "v": 74
    },
    {
      "midi": 54,
      "hit": false,
      "t": 18918.592145833372,
      "d": 79.36483333333672,
      "v": 53
    },
    {
      "midi": 96,
      "hit": false,
      "t": 18923.552447916707,
      "d": 24.801510416666133,
      "v": 66
    },
    {
      "midi": 91,
      "hit": false,
      "t": 18923.552447916707,
      "d": 29.761812500000815,
      "v": 57
    },
    {
      "midi": 82,
      "hit": false,
      "t": 19087.242416666708,
      "d": 367.06235416667187,
      "v": 53
    },
    {
      "midi": 90,
      "hit": false,
      "t": 19092.202718750043,
      "d": 89.28543750000244,
      "v": 47
    },
    {
      "midi": 62,
      "hit": false,
      "t": 19092.202718750043,
      "d": 540.6729270833384,
      "v": 57
    },
    {
      "midi": 58,
      "hit": false,
      "t": 19092.202718750043,
      "d": 555.5538333333388,
      "v": 37
    },
    {
      "midi": 94,
      "hit": false,
      "t": 19097.163020833377,
      "d": 312.4990312500013,
      "v": 47
    },
    {
      "midi": 55,
      "hit": false,
      "t": 19102.123322916712,
      "d": 496.0302083333336,
      "v": 60
    },
    {
      "midi": 53,
      "hit": false,
      "t": 19102.123322916712,
      "d": 500.99051041666826,
      "v": 42
    },
    {
      "midi": 64,
      "hit": false,
      "t": 19975.136489583383,
      "d": 684.5216875000042,
      "v": 68
    },
    {
      "midi": 66,
      "hit": false,
      "t": 19975.136489583383,
      "d": 744.0453125000058,
      "v": 48
    },
    {
      "midi": 72,
      "hit": false,
      "t": 19980.096791666718,
      "d": 406.74477083333477,
      "v": 65
    },
    {
      "midi": 68,
      "hit": false,
      "t": 19980.096791666718,
      "d": 714.283500000005,
      "v": 50
    },
    {
      "midi": 61,
      "hit": false,
      "t": 19980.096791666718,
      "d": 729.1644062500054,
      "v": 49
    },
    {
      "midi": 58,
      "hit": false,
      "t": 19985.057093750052,
      "d": 887.8940729166716,
      "v": 39
    },
    {
      "midi": 70,
      "hit": false,
      "t": 20441.40488541672,
      "d": 233.1341979166682,
      "v": 65
    },
    {
      "midi": 60,
      "hit": false,
      "t": 20917.593885416725,
      "d": 550.5935312500042,
      "v": 46
    },
    {
      "midi": 64,
      "hit": false,
      "t": 20922.55418750006,
      "d": 590.2759479166707,
      "v": 48
    },
    {
      "midi": 69,
      "hit": false,
      "t": 20927.514489583395,
      "d": 590.2759479166707,
      "v": 49
    },
    {
      "midi": 57,
      "hit": false,
      "t": 20942.395395833395,
      "d": 550.5935312500005,
      "v": 38
    },
    {
      "midi": 57,
      "hit": false,
      "t": 21894.7733958334,
      "d": 451.387489583336,
      "v": 74
    },
    {
      "midi": 72,
      "hit": false,
      "t": 21894.7733958334,
      "d": 570.4347395833356,
      "v": 83
    },
    {
      "midi": 65,
      "hit": false,
      "t": 21894.7733958334,
      "d": 590.2759479166707,
      "v": 87
    },
    {
      "midi": 62,
      "hit": false,
      "t": 21899.733697916734,
      "d": 570.4347395833356,
      "v": 84
    },
    {
      "midi": 58,
      "hit": false,
      "t": 22837.230791666738,
      "d": 297.6181250000009,
      "v": 42
    },
    {
      "midi": 62,
      "hit": false,
      "t": 22842.191093750072,
      "d": 282.73721875000047,
      "v": 55
    },
    {
      "midi": 67,
      "hit": false,
      "t": 22842.191093750072,
      "d": 297.6181250000009,
      "v": 59
    },
    {
      "midi": 52,
      "hit": false,
      "t": 22862.032302083408,
      "d": 228.17389583333352,
      "v": 46
    },
    {
      "midi": 62,
      "hit": false,
      "t": 23159.65042708341,
      "d": 119.04725000000326,
      "v": 32
    },
    {
      "midi": 69,
      "hit": false,
      "t": 23164.610729166743,
      "d": 138.8884583333347,
      "v": 78
    },
    {
      "midi": 58,
      "hit": false,
      "t": 23174.53133333341,
      "d": 89.28543750000244,
      "v": 44
    },
    {
      "midi": 52,
      "hit": false,
      "t": 23204.29314583341,
      "d": 34.7221145833355,
      "v": 32
    },
    {
      "midi": 67,
      "hit": false,
      "t": 23382.86402083341,
      "d": 64.48392708333267,
      "v": 32
    },
    {
      "midi": 66,
      "hit": false,
      "t": 23655.680635416746,
      "d": 99.20604166666817,
      "v": 64
    },
    {
      "midi": 61,
      "hit": false,
      "t": 23660.64093750008,
      "d": 69.44422916666736,
      "v": 62
    },
    {
      "midi": 70,
      "hit": false,
      "t": 23660.64093750008,
      "d": 99.20604166666817,
      "v": 64
    },
    {
      "midi": 55,
      "hit": false,
      "t": 23670.561541666746,
      "d": 69.44422916666736,
      "v": 61
    },
    {
      "midi": 72,
      "hit": false,
      "t": 24131.869635416748,
      "d": 307.53872916667024,
      "v": 66
    },
    {
      "midi": 61,
      "hit": false,
      "t": 24136.829937500082,
      "d": 248.0151041666686,
      "v": 52
    },
    {
      "midi": 65,
      "hit": false,
      "t": 24136.829937500082,
      "d": 362.10205208333355,
      "v": 69
    },
    {
      "midi": 69,
      "hit": false,
      "t": 24141.790239583417,
      "d": 322.419635416667,
      "v": 62
    },
    {
      "midi": 55,
      "hit": false,
      "t": 24146.75054166675,
      "d": 257.93570833333433,
      "v": 57
    },
    {
      "midi": 57,
      "hit": false,
      "t": 24766.788302083416,
      "d": 74.40453125000568,
      "v": 36
    },
    {
      "midi": 60,
      "hit": false,
      "t": 24771.74860416675,
      "d": 54.563322916670586,
      "v": 41
    },
    {
      "midi": 64,
      "hit": false,
      "t": 24771.74860416675,
      "d": 64.48392708333631,
      "v": 53
    },
    {
      "midi": 67,
      "hit": false,
      "t": 24776.708906250085,
      "d": 69.444229166671,
      "v": 50
    },
    {
      "midi": 55,
      "hit": false,
      "t": 24781.66920833342,
      "d": 54.56332291666695,
      "v": 47
    },
    {
      "midi": 53,
      "hit": false,
      "t": 24781.66920833342,
      "d": 59.52362500000163,
      "v": 34
    },
    {
      "midi": 60,
      "hit": false,
      "t": 25213.215489583425,
      "d": 357.14174999999886,
      "v": 36
    },
    {
      "midi": 64,
      "hit": false,
      "t": 25218.17579166676,
      "d": 386.90356249999604,
      "v": 45
    },
    {
      "midi": 67,
      "hit": false,
      "t": 25218.17579166676,
      "d": 421.6256770833279,
      "v": 47
    },
    {
      "midi": 57,
      "hit": false,
      "t": 25242.977302083425,
      "d": 327.37993749999805,
      "v": 24
    },
    {
      "midi": 55,
      "hit": false,
      "t": 25242.977302083425,
      "d": 337.3005416666638,
      "v": 34
    },
    {
      "midi": 53,
      "hit": false,
      "t": 25252.89790625009,
      "d": 337.3005416666638,
      "v": 29
    },
    {
      "midi": 60,
      "hit": false,
      "t": 25694.364791666754,
      "d": 446.4271875000013,
      "v": 37
    },
    {
      "midi": 57,
      "hit": false,
      "t": 25714.20600000009,
      "d": 461.3080937499981,
      "v": 31
    },
    {
      "midi": 65,
      "hit": false,
      "t": 25714.20600000009,
      "d": 530.7523229166654,
      "v": 53
    },
    {
      "midi": 64,
      "hit": false,
      "t": 25724.126604166755,
      "d": 510.911114583334,
      "v": 30
    },
    {
      "midi": 55,
      "hit": false,
      "t": 25729.08690625009,
      "d": 436.50658333333195,
      "v": 31
    },
    {
      "midi": 53,
      "hit": false,
      "t": 25743.96781250009,
      "d": 431.54628124999726,
      "v": 33
    },
    {
      "midi": 63,
      "hit": false,
      "t": 26939.40061458342,
      "d": 94.24573958333713,
      "v": 76
    },
    {
      "midi": 67,
      "hit": false,
      "t": 26944.360916666756,
      "d": 173.61057291667385,
      "v": 74
    },
    {
      "midi": 59,
      "hit": false,
      "t": 26949.32121875009,
      "d": 148.80906250000407,
      "v": 75
    },
    {
      "midi": 53,
      "hit": false,
      "t": 26964.20212500009,
      "d": 128.96785416666899,
      "v": 60
    },
    {
      "midi": 64,
      "hit": false,
      "t": 27038.606656250093,
      "d": 64.48392708333631,
      "v": 44
    },
    {
      "midi": 63,
      "hit": false,
      "t": 27261.820250000095,
      "d": 282.73721875000047,
      "v": 62
    },
    {
      "midi": 59,
      "hit": false,
      "t": 27266.78055208343,
      "d": 218.2532916666678,
      "v": 62
    },
    {
      "midi": 54,
      "hit": false,
      "t": 27271.740854166765,
      "d": 223.21359374999884,
      "v": 50
    },
    {
      "midi": 67,
      "hit": false,
      "t": 27271.740854166765,
      "d": 248.01510416666497,
      "v": 58
    },
    {
      "midi": 44,
      "hit": false,
      "t": 27296.54236458343,
      "d": 233.13419791666456,
      "v": 32
    },
    {
      "midi": 67,
      "hit": false,
      "t": 27604.081093750094,
      "d": 411.7050729166731,
      "v": 51
    },
    {
      "midi": 59,
      "hit": false,
      "t": 27609.04139583343,
      "d": 302.57842708333555,
      "v": 42
    },
    {
      "midi": 62,
      "hit": false,
      "t": 27614.001697916763,
      "d": 372.0226562500029,
      "v": 55
    },
    {
      "midi": 53,
      "hit": false,
      "t": 27614.001697916763,
      "d": 441.46688541667027,
      "v": 51
    },
    {
      "midi": 43,
      "hit": false,
      "t": 27941.381635416765,
      "d": 79.36483333333672,
      "v": 65
    },
    {
      "midi": 74,
      "hit": false,
      "t": 28878.878729166765,
      "d": 456.3477916666707,
      "v": 81
    },
    {
      "midi": 70,
      "hit": false,
      "t": 28878.878729166765,
      "d": 476.18900000000576,
      "v": 82
    },
    {
      "midi": 65,
      "hit": false,
      "t": 28883.8390312501,
      "d": 471.2286979166711,
      "v": 90
    },
    {
      "midi": 77,
      "hit": false,
      "t": 28883.8390312501,
      "d": 500.9905104166719,
      "v": 79
    },
    {
      "midi": 60,
      "hit": false,
      "t": 28883.8390312501,
      "d": 595.2362500000054,
      "v": 78
    },
    {
      "midi": 59,
      "hit": false,
      "t": 28888.799333333434,
      "d": 29.761812500000815,
      "v": 53
    },
    {
      "midi": 58,
      "hit": false,
      "t": 29523.718000000106,
      "d": 64.48392708333631,
      "v": 50
    },
    {
      "midi": 74,
      "hit": false,
      "t": 29523.718000000106,
      "d": 69.444229166671,
      "v": 66
    },
    {
      "midi": 70,
      "hit": false,
      "t": 29543.55920833344,
      "d": 29.761812500000815,
      "v": 33
    },
    {
      "midi": 65,
      "hit": false,
      "t": 29548.519510416776,
      "d": 34.72211458333186,
      "v": 38
    },
    {
      "midi": 70,
      "hit": false,
      "t": 29985.02609375011,
      "d": 124.0075520833343,
      "v": 52
    },
    {
      "midi": 65,
      "hit": false,
      "t": 29994.946697916777,
      "d": 104.16634375000285,
      "v": 48
    },
    {
      "midi": 62,
      "hit": false,
      "t": 30004.867302083443,
      "d": 94.24573958333713,
      "v": 24
    },
    {
      "midi": 55,
      "hit": false,
      "t": 30009.827604166778,
      "d": 44.64271875000122,
      "v": 38
    },
    {
      "midi": 58,
      "hit": false,
      "t": 30486.01660416678,
      "d": 446.4271875000013,
      "v": 43
    },
    {
      "midi": 65,
      "hit": false,
      "t": 30490.976906250115,
      "d": 481.14930208333317,
      "v": 59
    },
    {
      "midi": 62,
      "hit": false,
      "t": 30505.857812500115,
      "d": 436.50658333333195,
      "v": 44
    },
    {
      "midi": 70,
      "hit": false,
      "t": 31264.784031250118,
      "d": 208.33268750000207,
      "v": 78
    },
    {
      "midi": 74,
      "hit": false,
      "t": 31264.784031250118,
      "d": 213.29298958333675,
      "v": 83
    },
    {
      "midi": 54,
      "hit": false,
      "t": 31264.784031250118,
      "d": 218.25329166667143,
      "v": 71
    },
    {
      "midi": 65,
      "hit": false,
      "t": 31269.744333333452,
      "d": 178.57087500000125,
      "v": 85
    },
    {
      "midi": 44,
      "hit": false,
      "t": 31274.704635416787,
      "d": 183.5311770833323,
      "v": 67
    },
    {
      "midi": 65,
      "hit": false,
      "t": 31740.973031250123,
      "d": 496.0302083333372,
      "v": 78
    },
    {
      "midi": 70,
      "hit": false,
      "t": 31745.933333333458,
      "d": 183.53117708333593,
      "v": 83
    },
    {
      "midi": 74,
      "hit": false,
      "t": 31745.933333333458,
      "d": 228.17389583333716,
      "v": 81
    },
    {
      "midi": 77,
      "hit": false,
      "t": 31745.933333333458,
      "d": 252.9754062500033,
      "v": 77
    },
    {
      "midi": 60,
      "hit": false,
      "t": 31745.933333333458,
      "d": 456.3477916666707,
      "v": 68
    },
    {
      "midi": 58,
      "hit": false,
      "t": 31750.893635416793,
      "d": 580.3553437500013,
      "v": 57
    },
    {
      "midi": 54,
      "hit": false,
      "t": 31755.853937500127,
      "d": 570.434739583332,
      "v": 55
    },
    {
      "midi": 64,
      "hit": false,
      "t": 32370.931395833464,
      "d": 183.5311770833432,
      "v": 51
    },
    {
      "midi": 89,
      "hit": false,
      "t": 32370.931395833464,
      "d": 203.3723854166783,
      "v": 62
    },
    {
      "midi": 59,
      "hit": false,
      "t": 32375.8916979168,
      "d": 178.57087500000853,
      "v": 51
    },
    {
      "midi": 84,
      "hit": false,
      "t": 32380.852000000134,
      "d": 163.68996875000448,
      "v": 59
    },
    {
      "midi": 77,
      "hit": false,
      "t": 32385.81230208347,
      "d": 138.8884583333347,
      "v": 35
    },
    {
      "midi": 53,
      "hit": false,
      "t": 32400.69320833347,
      "d": 148.80906250000407,
      "v": 43
    },
    {
      "midi": 92,
      "hit": false,
      "t": 32847.12039583347,
      "d": 203.37238541665283,
      "v": 56
    },
    {
      "midi": 87,
      "hit": false,
      "t": 32862.001302083474,
      "d": 183.53117708332138,
      "v": 55
    },
    {
      "midi": 80,
      "hit": false,
      "t": 32866.961604166805,
      "d": 168.65027083332825,
      "v": 31
    },
    {
      "midi": 64,
      "hit": false,
      "t": 32866.961604166805,
      "d": 173.6105729166593,
      "v": 37
    },
    {
      "midi": 59,
      "hit": false,
      "t": 32871.921906250136,
      "d": 168.65027083332825,
      "v": 50
    },
    {
      "midi": 53,
      "hit": false,
      "t": 32891.76311458347,
      "d": 158.7296666666589,
      "v": 39
    },
    {
      "midi": 93,
      "hit": false,
      "t": 33353.07120833346,
      "d": 128.96785416665807,
      "v": 58
    },
    {
      "midi": 88,
      "hit": false,
      "t": 33358.03151041679,
      "d": 124.00755208332703,
      "v": 47
    },
    {
      "midi": 81,
      "hit": false,
      "t": 33358.03151041679,
      "d": 158.7296666666589,
      "v": 45
    },
    {
      "midi": 64,
      "hit": false,
      "t": 33362.99181250012,
      "d": 203.3723854166601,
      "v": 53
    },
    {
      "midi": 59,
      "hit": false,
      "t": 33367.95211458345,
      "d": 193.45178124999802,
      "v": 51
    },
    {
      "midi": 53,
      "hit": false,
      "t": 33387.79332291678,
      "d": 148.8090624999968,
      "v": 36
    },
    {
      "midi": 89,
      "hit": false,
      "t": 33680.451145833445,
      "d": 376.9829583333267,
      "v": 50
    },
    {
      "midi": 77,
      "hit": false,
      "t": 33685.41144791678,
      "d": 386.90356249999604,
      "v": 42
    },
    {
      "midi": 64,
      "hit": false,
      "t": 33690.37175000011,
      "d": 367.0623541666646,
      "v": 52
    },
    {
      "midi": 59,
      "hit": false,
      "t": 33695.33205208344,
      "d": 332.34023958333273,
      "v": 59
    },
    {
      "midi": 84,
      "hit": false,
      "t": 33700.29235416677,
      "d": 376.98295833333395,
      "v": 61
    },
    {
      "midi": 53,
      "hit": false,
      "t": 33700.29235416677,
      "d": 411.7050729166658,
      "v": 48
    },
    {
      "midi": 62,
      "hit": false,
      "t": 34285.6080000001,
      "d": 138.88845833332743,
      "v": 49
    },
    {
      "midi": 77,
      "hit": false,
      "t": 34295.52860416677,
      "d": 99.20604166665726,
      "v": 39
    },
    {
      "midi": 89,
      "hit": false,
      "t": 34295.52860416677,
      "d": 114.08694791665766,
      "v": 46
    },
    {
      "midi": 82,
      "hit": false,
      "t": 34300.4889062501,
      "d": 94.24573958332621,
      "v": 36
    },
    {
      "midi": 58,
      "hit": false,
      "t": 34300.4889062501,
      "d": 133.92815624998912,
      "v": 43
    },
    {
      "midi": 86,
      "hit": false,
      "t": 34305.44920833343,
      "d": 89.28543749999517,
      "v": 42
    },
    {
      "midi": 53,
      "hit": false,
      "t": 34310.409510416765,
      "d": 119.04724999999598,
      "v": 26
    },
    {
      "midi": 57,
      "hit": false,
      "t": 34310.409510416765,
      "d": 124.00755208332703,
      "v": 37
    },
    {
      "midi": 91,
      "hit": false,
      "t": 35550.48503125009,
      "d": 386.90356249999604,
      "v": 66
    },
    {
      "midi": 58,
      "hit": false,
      "t": 35555.445333333424,
      "d": 416.66537499999686,
      "v": 53
    },
    {
      "midi": 88,
      "hit": false,
      "t": 35560.405635416755,
      "d": 391.86386458333436,
      "v": 60
    },
    {
      "midi": 62,
      "hit": false,
      "t": 35560.405635416755,
      "d": 451.387489583336,
      "v": 60
    },
    {
      "midi": 79,
      "hit": false,
      "t": 35565.365937500086,
      "d": 406.74477083333477,
      "v": 51
    },
    {
      "midi": 85,
      "hit": false,
      "t": 35565.365937500086,
      "d": 421.6256770833352,
      "v": 47
    },
    {
      "midi": 52,
      "hit": false,
      "t": 35580.24684375009,
      "d": 347.22114583333314,
      "v": 50
    },
    {
      "midi": 89,
      "hit": false,
      "t": 36170.52279166676,
      "d": 133.92815625000367,
      "v": 49
    },
    {
      "midi": 64,
      "hit": false,
      "t": 36180.44339583343,
      "d": 178.5708750000049,
      "v": 42
    },
    {
      "midi": 77,
      "hit": false,
      "t": 36185.40369791676,
      "d": 99.20604166667181,
      "v": 39
    },
    {
      "midi": 84,
      "hit": false,
      "t": 36185.40369791676,
      "d": 104.16634375000285,
      "v": 41
    },
    {
      "midi": 60,
      "hit": false,
      "t": 36200.28460416676,
      "d": 143.84876041667303,
      "v": 33
    },
    {
      "midi": 57,
      "hit": false,
      "t": 36200.28460416676,
      "d": 163.68996875000448,
      "v": 33
    },
    {
      "midi": 53,
      "hit": false,
      "t": 36210.20520833343,
      "d": 158.72966666666616,
      "v": 24
    },
    {
      "midi": 98,
      "hit": false,
      "t": 37430.439520833424,
      "d": 416.6653749999896,
      "v": 80
    },
    {
      "midi": 86,
      "hit": false,
      "t": 37435.399822916756,
      "d": 436.5065833333283,
      "v": 69
    },
    {
      "midi": 93,
      "hit": false,
      "t": 37440.36012500009,
      "d": 431.54628124999726,
      "v": 72
    },
    {
      "midi": 62,
      "hit": false,
      "t": 37445.32042708342,
      "d": 322.41963541666337,
      "v": 68
    },
    {
      "midi": 67,
      "hit": false,
      "t": 37450.28072916675,
      "d": 342.2608437500021,
      "v": 74
    },
    {
      "midi": 56,
      "hit": false,
      "t": 37450.28072916675,
      "d": 431.54628125000454,
      "v": 65
    },
    {
      "midi": 96,
      "hit": false,
      "t": 38075.27879166675,
      "d": 426.58597916665894,
      "v": 68
    },
    {
      "midi": 64,
      "hit": false,
      "t": 38075.27879166675,
      "d": 456.34779166665976,
      "v": 54
    },
    {
      "midi": 84,
      "hit": false,
      "t": 38085.19939583342,
      "d": 376.9829583333194,
      "v": 54
    },
    {
      "midi": 55,
      "hit": false,
      "t": 38085.19939583342,
      "d": 451.38748958332144,
      "v": 47
    },
    {
      "midi": 57,
      "hit": false,
      "t": 38090.15969791675,
      "d": 471.22869791666017,
      "v": 48
    },
    {
      "midi": 91,
      "hit": false,
      "t": 38095.12000000008,
      "d": 406.7447708333275,
      "v": 53
    },
    {
      "midi": 60,
      "hit": false,
      "t": 38100.080302083414,
      "d": 416.66537499999686,
      "v": 50
    },
    {
      "midi": 101,
      "hit": false,
      "t": 38859.00652083341,
      "d": 332.34023958334,
      "v": 77
    },
    {
      "midi": 89,
      "hit": false,
      "t": 38859.00652083341,
      "d": 441.4668854166739,
      "v": 77
    },
    {
      "midi": 98,
      "hit": false,
      "t": 38863.966822916744,
      "d": 342.26084375000937,
      "v": 66
    },
    {
      "midi": 65,
      "hit": false,
      "t": 38863.966822916744,
      "d": 357.1417500000098,
      "v": 82
    },
    {
      "midi": 60,
      "hit": false,
      "t": 38863.966822916744,
      "d": 362.1020520833408,
      "v": 74
    },
    {
      "midi": 58,
      "hit": false,
      "t": 38863.966822916744,
      "d": 367.06235416667187,
      "v": 64
    },
    {
      "midi": 94,
      "hit": false,
      "t": 38863.966822916744,
      "d": 386.9035625000033,
      "v": 64
    },
    {
      "midi": 54,
      "hit": false,
      "t": 38873.88742708341,
      "d": 401.7844687500037,
      "v": 70
    },
    {
      "midi": 98,
      "hit": false,
      "t": 39474.08397916675,
      "d": 277.7769166666694,
      "v": 71
    },
    {
      "midi": 65,
      "hit": false,
      "t": 39484.00458333342,
      "d": 287.6975208333315,
      "v": 71
    },
    {
      "midi": 86,
      "hit": false,
      "t": 39484.00458333342,
      "d": 292.65782291666255,
      "v": 66
    },
    {
      "midi": 60,
      "hit": false,
      "t": 39484.00458333342,
      "d": 297.6181249999936,
      "v": 67
    },
    {
      "midi": 58,
      "hit": false,
      "t": 39488.96488541675,
      "d": 372.02265624999563,
      "v": 57
    },
    {
      "midi": 54,
      "hit": false,
      "t": 39493.925187500085,
      "d": 376.98295833333395,
      "v": 55
    },
    {
      "midi": 93,
      "hit": false,
      "t": 39538.567906250086,
      "d": 213.29298958333675,
      "v": 15
    },
    {
      "midi": 81,
      "hit": false,
      "t": 39970.11418750008,
      "d": 863.0925624999945,
      "v": 72
    },
    {
      "midi": 64,
      "hit": false,
      "t": 39975.074489583414,
      "d": 863.0925624999945,
      "v": 69
    },
    {
      "midi": 59,
      "hit": false,
      "t": 39975.074489583414,
      "d": 868.0528645833256,
      "v": 71
    },
    {
      "midi": 88,
      "hit": false,
      "t": 39980.034791666745,
      "d": 828.3704479166627,
      "v": 68
    },
    {
      "midi": 93,
      "hit": false,
      "t": 39980.034791666745,
      "d": 947.4176979166587,
      "v": 70
    },
    {
      "midi": 53,
      "hit": false,
      "t": 39984.995093750076,
      "d": 848.2116562500014,
      "v": 59
    },
    {
      "midi": 64,
      "hit": false,
      "t": 40947.293697916735,
      "d": 466.26839583332185,
      "v": 33
    },
    {
      "midi": 88,
      "hit": false,
      "t": 40952.254000000066,
      "d": 257.9357083333307,
      "v": 36
    },
    {
      "midi": 59,
      "hit": false,
      "t": 40952.254000000066,
      "d": 471.22869791666017,
      "v": 43
    },
    {
      "midi": 81,
      "hit": false,
      "t": 40967.13490625007,
      "d": 312.499031249994,
      "v": 31
    },
    {
      "midi": 53,
      "hit": false,
      "t": 40967.13490625007,
      "d": 515.8714166666614,
      "v": 30
    },
    {
      "midi": 51,
      "hit": false,
      "t": 41780.62444791673,
      "d": 79.36483333333308,
      "v": 35
    },
    {
      "midi": 52,
      "hit": false,
      "t": 41859.98928125006,
      "d": 29.76181249999354,
      "v": 60
    },
    {
      "midi": 65,
      "hit": false,
      "t": 41869.90988541673,
      "d": 342.26084374998754,
      "v": 60
    },
    {
      "midi": 55,
      "hit": false,
      "t": 41874.87018750006,
      "d": 352.1814479166569,
      "v": 46
    },
    {
      "midi": 62,
      "hit": false,
      "t": 41874.87018750006,
      "d": 352.1814479166569,
      "v": 55
    },
    {
      "midi": 58,
      "hit": false,
      "t": 41879.83048958339,
      "d": 367.0623541666573,
      "v": 35
    },
    {
      "midi": 53,
      "hit": false,
      "t": 41884.790791666725,
      "d": 347.22114583332586,
      "v": 58
    },
    {
      "midi": 50,
      "hit": false,
      "t": 42227.05163541672,
      "d": 114.08694791666494,
      "v": 40
    },
    {
      "midi": 51,
      "hit": false,
      "t": 42271.69435416671,
      "d": 39.68241666667018,
      "v": 30
    },
    {
      "midi": 52,
      "hit": false,
      "t": 42341.138583333384,
      "d": 29.761812500000815,
      "v": 24
    },
    {
      "midi": 53,
      "hit": false,
      "t": 42370.900395833385,
      "d": 446.4271874999977,
      "v": 51
    },
    {
      "midi": 58,
      "hit": false,
      "t": 42375.860697916716,
      "d": 367.0623541666646,
      "v": 37
    },
    {
      "midi": 55,
      "hit": false,
      "t": 42380.82100000005,
      "d": 337.3005416666638,
      "v": 56
    },
    {
      "midi": 62,
      "hit": false,
      "t": 42380.82100000005,
      "d": 362.10205208333355,
      "v": 49
    },
    {
      "midi": 65,
      "hit": false,
      "t": 42385.78130208338,
      "d": 386.9035625000033,
      "v": 51
    },
    {
      "midi": 55,
      "hit": false,
      "t": 42847.08939583338,
      "d": 213.29298958332947,
      "v": 41
    },
    {
      "midi": 52,
      "hit": false,
      "t": 42847.08939583338,
      "d": 317.4593333333323,
      "v": 40
    },
    {
      "midi": 64,
      "hit": false,
      "t": 42852.049697916715,
      "d": 248.0151041666686,
      "v": 49
    },
    {
      "midi": 58,
      "hit": false,
      "t": 42857.010000000046,
      "d": 218.2532916666678,
      "v": 35
    },
    {
      "midi": 58,
      "hit": false,
      "t": 43159.588427083385,
      "d": 49.603020833332266,
      "v": 52
    },
    {
      "midi": 55,
      "hit": false,
      "t": 43164.548729166716,
      "d": 24.80151041666977,
      "v": 63
    },
    {
      "midi": 65,
      "hit": false,
      "t": 43164.548729166716,
      "d": 34.722114583339135,
      "v": 55
    },
    {
      "midi": 53,
      "hit": false,
      "t": 43169.50903125005,
      "d": 34.722114583339135,
      "v": 63
    },
    {
      "midi": 62,
      "hit": false,
      "t": 43179.429635416716,
      "d": 34.72211458333186,
      "v": 41
    },
    {
      "midi": 65,
      "hit": false,
      "t": 43784.58648958338,
      "d": 223.21359374999156,
      "v": 68
    },
    {
      "midi": 60,
      "hit": false,
      "t": 43789.54679166671,
      "d": 233.13419791666092,
      "v": 61
    },
    {
      "midi": 61,
      "hit": false,
      "t": 43789.54679166671,
      "d": 248.01510416666133,
      "v": 47
    },
    {
      "midi": 72,
      "hit": false,
      "t": 43794.50709375004,
      "d": 213.29298958332947,
      "v": 83
    },
    {
      "midi": 55,
      "hit": false,
      "t": 43799.46739583337,
      "d": 208.33268749999843,
      "v": 55
    },
    {
      "midi": 69,
      "hit": false,
      "t": 43799.46739583337,
      "d": 218.2532916666678,
      "v": 75
    },
    {
      "midi": 72,
      "hit": false,
      "t": 44102.045822916705,
      "d": 565.4744374999937,
      "v": 60
    },
    {
      "midi": 69,
      "hit": false,
      "t": 44107.006125000036,
      "d": 466.2683958333291,
      "v": 58
    },
    {
      "midi": 60,
      "hit": false,
      "t": 44116.926729166706,
      "d": 372.02265624998836,
      "v": 49
    },
    {
      "midi": 61,
      "hit": false,
      "t": 44116.926729166706,
      "d": 471.22869791666017,
      "v": 45
    },
    {
      "midi": 65,
      "hit": false,
      "t": 44121.88703125004,
      "d": 233.13419791666092,
      "v": 64
    },
    {
      "midi": 55,
      "hit": false,
      "t": 44136.76793750004,
      "d": 391.8638645833271,
      "v": 49
    },
    {
      "midi": 64,
      "hit": false,
      "t": 44736.96448958337,
      "d": 233.1341979166682,
      "v": 50
    },
    {
      "midi": 71,
      "hit": false,
      "t": 44736.96448958337,
      "d": 287.6975208333315,
      "v": 52
    },
    {
      "midi": 60,
      "hit": false,
      "t": 44741.9247916667,
      "d": 257.93570833333797,
      "v": 38
    },
    {
      "midi": 68,
      "hit": false,
      "t": 44741.9247916667,
      "d": 262.896010416669,
      "v": 46
    },
    {
      "midi": 54,
      "hit": false,
      "t": 44756.8056979167,
      "d": 223.2135937500061,
      "v": 33
    },
    {
      "midi": 72,
      "hit": false,
      "t": 45074.265031250034,
      "d": 248.01510416666133,
      "v": 62
    },
    {
      "midi": 64,
      "hit": false,
      "t": 45084.1856354167,
      "d": 163.68996874998993,
      "v": 48
    },
    {
      "midi": 60,
      "hit": false,
      "t": 45084.1856354167,
      "d": 292.65782291666255,
      "v": 56
    },
    {
      "midi": 69,
      "hit": false,
      "t": 45089.145937500034,
      "d": 248.01510416666133,
      "v": 59
    },
    {
      "midi": 54,
      "hit": false,
      "t": 45089.145937500034,
      "d": 401.78446874999645,
      "v": 49
    },
    {
      "midi": 64,
      "hit": false,
      "t": 46016.72242708336,
      "d": 114.08694791667222,
      "v": 79
    },
    {
      "midi": 73,
      "hit": false,
      "t": 46016.72242708336,
      "d": 128.96785416667262,
      "v": 64
    },
    {
      "midi": 76,
      "hit": false,
      "t": 46016.72242708336,
      "d": 133.92815625000367,
      "v": 80
    },
    {
      "midi": 69,
      "hit": false,
      "t": 46021.68272916669,
      "d": 109.12664583334117,
      "v": 75
    },
    {
      "midi": 53,
      "hit": false,
      "t": 46031.60333333336,
      "d": 104.16634375000285,
      "v": 68
    },
    {
      "midi": 59,
      "hit": false,
      "t": 46031.60333333336,
      "d": 104.16634375000285,
      "v": 62
    },
    {
      "midi": 56,
      "hit": false,
      "t": 46041.52393750003,
      "d": 29.761812500000815,
      "v": 28
    },
    {
      "midi": 62,
      "hit": false,
      "t": 46041.52393750003,
      "d": 29.761812500000815,
      "v": 61
    },
    {
      "midi": 53,
      "hit": false,
      "t": 46358.98327083336,
      "d": 148.8090624999968,
      "v": 68
    },
    {
      "midi": 73,
      "hit": false,
      "t": 46363.943572916694,
      "d": 163.68996875000448,
      "v": 55
    },
    {
      "midi": 76,
      "hit": false,
      "t": 46363.943572916694,
      "d": 163.68996875000448,
      "v": 72
    },
    {
      "midi": 59,
      "hit": false,
      "t": 46363.943572916694,
      "d": 178.5708750000049,
      "v": 64
    },
    {
      "midi": 64,
      "hit": false,
      "t": 46368.903875000025,
      "d": 128.96785416666535,
      "v": 73
    },
    {
      "midi": 69,
      "hit": false,
      "t": 46368.903875000025,
      "d": 148.80906250000407,
      "v": 69
    },
    {
      "midi": 76,
      "hit": false,
      "t": 46706.204416666704,
      "d": 560.5141354166553,
      "v": 72
    },
    {
      "midi": 59,
      "hit": false,
      "t": 46706.204416666704,
      "d": 605.1568541666566,
      "v": 59
    },
    {
      "midi": 64,
      "hit": false,
      "t": 46711.164718750035,
      "d": 585.3156458333251,
      "v": 66
    },
    {
      "midi": 65,
      "hit": false,
      "t": 46716.125020833366,
      "d": 605.1568541666638,
      "v": 48
    },
    {
      "midi": 67,
      "hit": false,
      "t": 46721.0853229167,
      "d": 94.24573958333349,
      "v": 54
    },
    {
      "midi": 53,
      "hit": false,
      "t": 46721.0853229167,
      "d": 575.395041666663,
      "v": 56
    },
    {
      "midi": 71,
      "hit": false,
      "t": 46721.0853229167,
      "d": 600.1965520833328,
      "v": 48
    },
    {
      "midi": 74,
      "hit": false,
      "t": 47435.368822916695,
      "d": 74.40453125000204,
      "v": 63
    },
    {
      "midi": 59,
      "hit": false,
      "t": 47440.329125000026,
      "d": 44.64271875000122,
      "v": 41
    },
    {
      "midi": 64,
      "hit": false,
      "t": 47445.28942708336,
      "d": 39.68241666667018,
      "v": 32
    },
    {
      "midi": 65,
      "hit": false,
      "t": 47445.28942708336,
      "d": 74.40453125000931,
      "v": 57
    },
    {
      "midi": 71,
      "hit": false,
      "t": 47455.210031250026,
      "d": 39.68241666667018,
      "v": 45
    },
    {
      "midi": 53,
      "hit": false,
      "t": 47455.210031250026,
      "d": 84.3251354166714,
      "v": 40
    },
    {
      "midi": 72,
      "hit": false,
      "t": 47623.86030208337,
      "d": 59.52362500000163,
      "v": 58
    },
    {
      "midi": 58,
      "hit": false,
      "t": 47633.78090625004,
      "d": 54.56332291666331,
      "v": 38
    },
    {
      "midi": 67,
      "hit": false,
      "t": 47638.74120833337,
      "d": 34.72211458333186,
      "v": 35
    },
    {
      "midi": 64,
      "hit": false,
      "t": 48566.317697916704,
      "d": 138.88845833332743,
      "v": 24
    },
    {
      "midi": 54,
      "hit": false,
      "t": 48571.278000000035,
      "d": 143.84876041665848,
      "v": 33
    },
    {
      "midi": 74,
      "hit": false,
      "t": 48571.278000000035,
      "d": 148.80906249998952,
      "v": 28
    },
    {
      "midi": 66,
      "hit": false,
      "t": 48576.238302083366,
      "d": 119.04724999999598,
      "v": 35
    },
    {
      "midi": 69,
      "hit": false,
      "t": 48581.1986041667,
      "d": 114.08694791666494,
      "v": 38
    },
    {
      "midi": 60,
      "hit": false,
      "t": 48581.1986041667,
      "d": 128.96785416666535,
      "v": 27
    },
    {
      "midi": 74,
      "hit": false,
      "t": 49067.30820833336,
      "d": 183.53117708332866,
      "v": 33
    },
    {
      "midi": 64,
      "hit": false,
      "t": 49067.30820833336,
      "d": 218.25329166666052,
      "v": 44
    },
    {
      "midi": 66,
      "hit": false,
      "t": 49072.26851041669,
      "d": 193.45178124999802,
      "v": 38
    },
    {
      "midi": 69,
      "hit": false,
      "t": 49072.26851041669,
      "d": 193.45178124999802,
      "v": 42
    },
    {
      "midi": 54,
      "hit": false,
      "t": 49072.26851041669,
      "d": 213.29298958332947,
      "v": 44
    },
    {
      "midi": 60,
      "hit": false,
      "t": 49077.22881250002,
      "d": 114.08694791666494,
      "v": 42
    },
    {
      "midi": 62,
      "hit": false,
      "t": 49538.53690625002,
      "d": 178.5708750000049,
      "v": 32
    },
    {
      "midi": 70,
      "hit": false,
      "t": 49543.49720833335,
      "d": 158.72966666667344,
      "v": 38
    },
    {
      "midi": 58,
      "hit": false,
      "t": 49543.49720833335,
      "d": 198.41208333334362,
      "v": 35
    },
    {
      "midi": 65,
      "hit": false,
      "t": 49553.41781250002,
      "d": 109.1266458333339,
      "v": 42
    },
    {
      "midi": 55,
      "hit": false,
      "t": 49563.33841666669,
      "d": 148.80906250000407,
      "v": 40
    },
    {
      "midi": 62,
      "hit": false,
      "t": 49851.035937500026,
      "d": 119.04724999998871,
      "v": 62
    },
    {
      "midi": 74,
      "hit": false,
      "t": 49855.99623958336,
      "d": 133.92815624998912,
      "v": 80
    },
    {
      "midi": 65,
      "hit": false,
      "t": 49860.95654166669,
      "d": 84.32513541665685,
      "v": 69
    },
    {
      "midi": 58,
      "hit": false,
      "t": 49865.91684375002,
      "d": 74.40453124999476,
      "v": 40
    },
    {
      "midi": 55,
      "hit": false,
      "t": 49885.75805208335,
      "d": 34.72211458333186,
      "v": 36
    },
    {
      "midi": 55,
      "hit": false,
      "t": 50044.48771875001,
      "d": 262.896010416669,
      "v": 32
    },
    {
      "midi": 58,
      "hit": false,
      "t": 50074.24953125001,
      "d": 262.896010416669,
      "v": 23
    },
    {
      "midi": 64,
      "hit": false,
      "t": 50332.18523958335,
      "d": 426.58597916665894,
      "v": 57
    },
    {
      "midi": 68,
      "hit": false,
      "t": 50332.18523958335,
      "d": 525.7920208333235,
      "v": 53
    },
    {
      "midi": 60,
      "hit": false,
      "t": 50332.18523958335,
      "d": 535.7126249999928,
      "v": 60
    },
    {
      "midi": 72,
      "hit": false,
      "t": 50332.18523958335,
      "d": 570.4347395833247,
      "v": 57
    },
    {
      "midi": 93,
      "hit": false,
      "t": 51408.57079166667,
      "d": 64.4839270833254,
      "v": 66
    },
    {
      "midi": 65,
      "hit": false,
      "t": 51408.57079166667,
      "d": 74.40453124999476,
      "v": 70
    },
    {
      "midi": 60,
      "hit": false,
      "t": 51413.53109375,
      "d": 74.40453124999476,
      "v": 57
    },
    {
      "midi": 61,
      "hit": false,
      "t": 51413.53109375,
      "d": 104.16634374999558,
      "v": 42
    },
    {
      "midi": 81,
      "hit": false,
      "t": 51418.491395833335,
      "d": 39.6824166666629,
      "v": 53
    },
    {
      "midi": 91,
      "hit": false,
      "t": 51423.451697916666,
      "d": 34.72211458333186,
      "v": 37
    },
    {
      "midi": 55,
      "hit": false,
      "t": 51438.332604166666,
      "d": 158.72966666666616,
      "v": 49
    },
    {
      "midi": 93,
      "hit": false,
      "t": 51552.41955208333,
      "d": 49.603020833332266,
      "v": 26
    },
    {
      "midi": 81,
      "hit": false,
      "t": 51557.37985416666,
      "d": 44.64271875000122,
      "v": 32
    },
    {
      "midi": 65,
      "hit": false,
      "t": 51567.30045833333,
      "d": 34.72211458333186,
      "v": 20
    },
    {
      "midi": 65,
      "hit": false,
      "t": 51904.601,
      "d": 272.8166145833311,
      "v": 66
    },
    {
      "midi": 60,
      "hit": false,
      "t": 51909.56130208333,
      "d": 243.05480208333756,
      "v": 51
    },
    {
      "midi": 61,
      "hit": false,
      "t": 51909.56130208333,
      "d": 292.65782291666983,
      "v": 37
    },
    {
      "midi": 81,
      "hit": false,
      "t": 51919.48190625,
      "d": 178.5708750000049,
      "v": 64
    },
    {
      "midi": 93,
      "hit": false,
      "t": 51919.48190625,
      "d": 213.29298958333675,
      "v": 74
    },
    {
      "midi": 55,
      "hit": false,
      "t": 51929.40251041667,
      "d": 243.0548020833303,
      "v": 48
    },
    {
      "midi": 54,
      "hit": false,
      "t": 52395.67090625,
      "d": 610.1171562500022,
      "v": 63
    },
    {
      "midi": 96,
      "hit": false,
      "t": 52405.59151041667,
      "d": 500.99051041666826,
      "v": 76
    },
    {
      "midi": 64,
      "hit": false,
      "t": 52405.59151041667,
      "d": 535.7126250000001,
      "v": 64
    },
    {
      "midi": 84,
      "hit": false,
      "t": 52405.59151041667,
      "d": 540.6729270833312,
      "v": 73
    },
    {
      "midi": 60,
      "hit": false,
      "t": 52410.5518125,
      "d": 535.7126250000001,
      "v": 55
    },
    {
      "midi": 93,
      "hit": false,
      "t": 52415.51211458333,
      "d": 530.7523229166691,
      "v": 61
    },
    {
      "midi": 62,
      "hit": false,
      "t": 53353.00920833334,
      "d": 69.44422916666372,
      "v": 69
    },
    {
      "midi": 55,
      "hit": false,
      "t": 53353.00920833334,
      "d": 79.36483333333308,
      "v": 61
    },
    {
      "midi": 58,
      "hit": false,
      "t": 53353.00920833334,
      "d": 79.36483333333308,
      "v": 57
    },
    {
      "midi": 91,
      "hit": false,
      "t": 53357.96951041667,
      "d": 74.40453125000204,
      "v": 71
    },
    {
      "midi": 86,
      "hit": false,
      "t": 53362.9298125,
      "d": 34.72211458333186,
      "v": 66
    },
    {
      "midi": 79,
      "hit": false,
      "t": 53362.9298125,
      "d": 49.603020833332266,
      "v": 66
    },
    {
      "midi": 53,
      "hit": false,
      "t": 53367.89011458333,
      "d": 34.72211458333186,
      "v": 50
    },
    {
      "midi": 58,
      "hit": false,
      "t": 53799.436395833334,
      "d": 198.41208333332906,
      "v": 54
    },
    {
      "midi": 53,
      "hit": false,
      "t": 53804.396697916665,
      "d": 203.37238541666738,
      "v": 58
    },
    {
      "midi": 62,
      "hit": false,
      "t": 53804.396697916665,
      "d": 223.21359374999884,
      "v": 62
    },
    {
      "midi": 86,
      "hit": false,
      "t": 53809.356999999996,
      "d": 133.9281562499964,
      "v": 70
    },
    {
      "midi": 55,
      "hit": false,
      "t": 53814.31730208333,
      "d": 39.68241666667018,
      "v": 44
    },
    {
      "midi": 79,
      "hit": false,
      "t": 53814.31730208333,
      "d": 109.1266458333339,
      "v": 68
    },
    {
      "midi": 91,
      "hit": false,
      "t": 53814.31730208333,
      "d": 138.8884583333347,
      "v": 69
    },
    {
      "midi": 56,
      "hit": false,
      "t": 54285.545999999995,
      "d": 153.76936458332057,
      "v": 53
    },
    {
      "midi": 98,
      "hit": false,
      "t": 54290.506302083326,
      "d": 59.523624999994354,
      "v": 77
    },
    {
      "midi": 59,
      "hit": false,
      "t": 54290.506302083326,
      "d": 99.20604166665726,
      "v": 56
    },
    {
      "midi": 93,
      "hit": false,
      "t": 54295.46660416666,
      "d": 34.72211458333186,
      "v": 72
    },
    {
      "midi": 86,
      "hit": false,
      "t": 54295.46660416666,
      "d": 59.523624999994354,
      "v": 70
    },
    {
      "midi": 62,
      "hit": false,
      "t": 54295.46660416666,
      "d": 128.96785416665807,
      "v": 62
    },
    {
      "midi": 53,
      "hit": false,
      "t": 54300.42690624999,
      "d": 138.88845833332743,
      "v": 55
    },
    {
      "midi": 95,
      "hit": false,
      "t": 54612.92593749998,
      "d": 223.21359374999156,
      "v": 64
    },
    {
      "midi": 83,
      "hit": false,
      "t": 54617.88623958331,
      "d": 267.8563124999928,
      "v": 58
    },
    {
      "midi": 62,
      "hit": false,
      "t": 54617.88623958331,
      "d": 327.3799374999944,
      "v": 55
    },
    {
      "midi": 56,
      "hit": false,
      "t": 54617.88623958331,
      "d": 386.90356249998877,
      "v": 35
    },
    {
      "midi": 88,
      "hit": false,
      "t": 54622.846541666644,
      "d": 233.13419791666092,
      "v": 59
    },
    {
      "midi": 91,
      "hit": false,
      "t": 54627.806843749975,
      "d": 223.21359374999884,
      "v": 48
    },
    {
      "midi": 59,
      "hit": false,
      "t": 54627.806843749975,
      "d": 322.41963541666337,
      "v": 55
    },
    {
      "midi": 53,
      "hit": false,
      "t": 54627.806843749975,
      "d": 411.70507291665854,
      "v": 46
    },
    {
      "midi": 72,
      "hit": false,
      "t": 55242.8843020833,
      "d": 758.926218749999,
      "v": 66
    },
    {
      "midi": 65,
      "hit": false,
      "t": 55247.84460416663,
      "d": 505.9508124999993,
      "v": 68
    },
    {
      "midi": 69,
      "hit": false,
      "t": 55247.84460416663,
      "d": 545.6332291666695,
      "v": 68
    },
    {
      "midi": 60,
      "hit": false,
      "t": 55535.54212499996,
      "d": 213.29298958333675,
      "v": 67
    },
    {
      "midi": 48,
      "hit": false,
      "t": 55724.03360416663,
      "d": 892.8543750000026,
      "v": 52
    },
    {
      "midi": 65,
      "hit": false,
      "t": 56021.65172916663,
      "d": 500.99051041666826,
      "v": 66
    },
    {
      "midi": 60,
      "hit": false,
      "t": 56026.61203124996,
      "d": 362.10205208333355,
      "v": 66
    },
    {
      "midi": 69,
      "hit": false,
      "t": 56026.61203124996,
      "d": 634.9186666666719,
      "v": 64
    },
    {
      "midi": 60,
      "hit": false,
      "t": 56497.84072916663,
      "d": 372.0226562500029,
      "v": 81
    },
    {
      "midi": 48,
      "hit": false,
      "t": 56681.371906249966,
      "d": 128.96785416666535,
      "v": 53
    },
    {
      "midi": 62,
      "hit": false,
      "t": 57127.79909374997,
      "d": 560.5141354166626,
      "v": 58
    },
    {
      "midi": 65,
      "hit": false,
      "t": 57132.7593958333,
      "d": 565.4744375000009,
      "v": 73
    },
    {
      "midi": 72,
      "hit": false,
      "t": 57132.7593958333,
      "d": 600.1965520833328,
      "v": 66
    },
    {
      "midi": 58,
      "hit": false,
      "t": 57137.71969791663,
      "d": 570.4347395833393,
      "v": 45
    },
    {
      "midi": 69,
      "hit": false,
      "t": 57137.71969791663,
      "d": 575.3950416666703,
      "v": 66
    },
    {
      "midi": 60,
      "hit": false,
      "t": 57142.679999999964,
      "d": 540.6729270833384,
      "v": 57
    },
    {
      "midi": 58,
      "hit": false,
      "t": 58085.1373958333,
      "d": 367.0623541666573,
      "v": 49
    },
    {
      "midi": 74,
      "hit": false,
      "t": 58090.09769791663,
      "d": 441.46688541665935,
      "v": 73
    },
    {
      "midi": 64,
      "hit": false,
      "t": 58095.05799999996,
      "d": 476.1889999999985,
      "v": 64
    },
    {
      "midi": 68,
      "hit": false,
      "t": 58095.05799999996,
      "d": 481.14930208332953,
      "v": 55
    },
    {
      "midi": 62,
      "hit": false,
      "t": 58100.01830208329,
      "d": 282.73721875000047,
      "v": 58
    },
    {
      "midi": 70,
      "hit": false,
      "t": 58100.01830208329,
      "d": 505.9508124999993,
      "v": 51
    },
    {
      "midi": 52,
      "hit": false,
      "t": 58109.93890624996,
      "d": 396.82416666665813,
      "v": 50
    },
    {
      "midi": 60,
      "hit": false,
      "t": 59032.55509374996,
      "d": 34.72211458333186,
      "v": 80
    },
    {
      "midi": 65,
      "hit": false,
      "t": 59032.55509374996,
      "d": 39.6824166666629,
      "v": 83
    },
    {
      "midi": 72,
      "hit": false,
      "t": 59032.55509374996,
      "d": 69.44422916666372,
      "v": 76
    },
    {
      "midi": 69,
      "hit": false,
      "t": 59037.51539583329,
      "d": 24.80151041666977,
      "v": 72
    },
    {
      "midi": 48,
      "hit": false,
      "t": 59330.17321874995,
      "d": 2415.6671145833316,
      "v": 92
    },
    {
      "midi": 47,
      "hit": false,
      "t": 59335.13352083328,
      "d": 49.603020833332266,
      "v": 81
    },
    {
      "midi": 42,
      "hit": false,
      "t": 61740.88003124995,
      "d": 94.24573958332621,
      "v": 45
    },
    {
      "midi": 44,
      "hit": false,
      "t": 61810.324260416615,
      "d": 39.6824166666629,
      "v": 30
    },
    {
      "midi": 45,
      "hit": false,
      "t": 61859.92728124995,
      "d": 461.30809375000536,
      "v": 68
    },
    {
      "midi": 55,
      "hit": false,
      "t": 61874.80818749995,
      "d": 327.3799375000017,
      "v": 57
    },
    {
      "midi": 64,
      "hit": false,
      "t": 61879.76848958328,
      "d": 287.6975208333388,
      "v": 54
    },
    {
      "midi": 60,
      "hit": false,
      "t": 61889.68909374995,
      "d": 357.1417500000025,
      "v": 52
    },
    {
      "midi": 42,
      "hit": false,
      "t": 62236.91023958328,
      "d": 119.04725000000326,
      "v": 38
    },
    {
      "midi": 54,
      "hit": false,
      "t": 62350.997187499954,
      "d": 347.22114583333314,
      "v": 54
    },
    {
      "midi": 63,
      "hit": false,
      "t": 62350.997187499954,
      "d": 406.7447708333275,
      "v": 53
    },
    {
      "midi": 44,
      "hit": false,
      "t": 62350.997187499954,
      "d": 446.4271874999977,
      "v": 47
    },
    {
      "midi": 59,
      "hit": false,
      "t": 62365.878093749954,
      "d": 307.53872916666296,
      "v": 49
    },
    {
      "midi": 42,
      "hit": false,
      "t": 62703.17863541662,
      "d": 114.08694791666494,
      "v": 35
    },
    {
      "midi": 43,
      "hit": false,
      "t": 62842.06709374995,
      "d": 282.7372187499932,
      "v": 40
    },
    {
      "midi": 53,
      "hit": false,
      "t": 62847.027395833284,
      "d": 34.72211458333186,
      "v": 39
    },
    {
      "midi": 59,
      "hit": false,
      "t": 62856.94799999995,
      "d": 39.6824166666629,
      "v": 32
    },
    {
      "midi": 60,
      "hit": false,
      "t": 62861.908302083284,
      "d": 39.6824166666629,
      "v": 32
    },
    {
      "midi": 31,
      "hit": false,
      "t": 63139.685218749946,
      "d": 39.68241666667018,
      "v": 75
    },
    {
      "midi": 69,
      "hit": false,
      "t": 63328.17669791661,
      "d": 148.8090624999968,
      "v": 69
    },
    {
      "midi": 81,
      "hit": false,
      "t": 63328.17669791661,
      "d": 188.4914791666597,
      "v": 74
    },
    {
      "midi": 75,
      "hit": false,
      "t": 63333.136999999944,
      "d": 128.96785416666535,
      "v": 62
    },
    {
      "midi": 60,
      "hit": false,
      "t": 63357.938510416614,
      "d": 89.28543749999517,
      "v": 64
    },
    {
      "midi": 76,
      "hit": false,
      "t": 63427.38273958328,
      "d": 69.44422916666372,
      "v": 63
    },
    {
      "midi": 81,
      "hit": false,
      "t": 63610.91391666661,
      "d": 138.88845833332743,
      "v": 78
    },
    {
      "midi": 75,
      "hit": false,
      "t": 63615.87421874994,
      "d": 99.20604166666453,
      "v": 69
    },
    {
      "midi": 69,
      "hit": false,
      "t": 63620.83452083327,
      "d": 124.0075520833343,
      "v": 68
    },
    {
      "midi": 64,
      "hit": false,
      "t": 63620.83452083327,
      "d": 128.96785416666535,
      "v": 63
    },
    {
      "midi": 53,
      "hit": false,
      "t": 63625.7948229166,
      "d": 124.0075520833343,
      "v": 65
    },
    {
      "midi": 59,
      "hit": false,
      "t": 63625.7948229166,
      "d": 143.84876041666575,
      "v": 66
    },
    {
      "midi": 76,
      "hit": false,
      "t": 63700.1993541666,
      "d": 39.68241666667018,
      "v": 54
    },
    {
      "midi": 69,
      "hit": false,
      "t": 63868.84962499993,
      "d": 262.896010416669,
      "v": 51
    },
    {
      "midi": 81,
      "hit": false,
      "t": 63873.80992708326,
      "d": 317.4593333333396,
      "v": 47
    },
    {
      "midi": 75,
      "hit": false,
      "t": 63883.73053124993,
      "d": 233.1341979166682,
      "v": 56
    },
    {
      "midi": 64,
      "hit": false,
      "t": 63893.6511354166,
      "d": 238.09449999999924,
      "v": 47
    },
    {
      "midi": 59,
      "hit": false,
      "t": 63898.61143749993,
      "d": 267.85631250000006,
      "v": 31
    },
    {
      "midi": 53,
      "hit": false,
      "t": 63923.4129479166,
      "d": 208.33268749999843,
      "v": 46
    },
    {
      "midi": 76,
      "hit": false,
      "t": 63987.89687499993,
      "d": 99.20604166666453,
      "v": 30
    },
    {
      "midi": 69,
      "hit": false,
      "t": 64235.9119791666,
      "d": 99.20604166666453,
      "v": 42
    },
    {
      "midi": 59,
      "hit": false,
      "t": 64235.9119791666,
      "d": 163.6899687499972,
      "v": 37
    },
    {
      "midi": 77,
      "hit": false,
      "t": 64235.9119791666,
      "d": 178.5708749999976,
      "v": 55
    },
    {
      "midi": 64,
      "hit": false,
      "t": 64240.87228124993,
      "d": 163.6899687499972,
      "v": 44
    },
    {
      "midi": 53,
      "hit": false,
      "t": 64240.87228124993,
      "d": 248.0151041666686,
      "v": 34
    },
    {
      "midi": 74,
      "hit": false,
      "t": 64578.172822916604,
      "d": 694.4422916666663,
      "v": 37
    },
    {
      "midi": 53,
      "hit": false,
      "t": 64578.172822916604,
      "d": 803.5689375000002,
      "v": 16
    },
    {
      "midi": 62,
      "hit": false,
      "t": 64583.133124999935,
      "d": 704.3628958333356,
      "v": 38
    },
    {
      "midi": 58,
      "hit": false,
      "t": 64588.093427083266,
      "d": 724.2041041666744,
      "v": 39
    },
    {
      "midi": 65,
      "hit": false,
      "t": 64598.014031249935,
      "d": 674.6010833333348,
      "v": 32
    },
    {
      "midi": 57,
      "hit": false,
      "t": 64598.014031249935,
      "d": 719.243802083336,
      "v": 31
    },
    {
      "midi": 58,
      "hit": false,
      "t": 65694.2407916666,
      "d": 59.523624999972526,
      "v": 63
    },
    {
      "midi": 65,
      "hit": false,
      "t": 65699.20109374993,
      "d": 24.80151041665522,
      "v": 74
    },
    {
      "midi": 62,
      "hit": false,
      "t": 65699.20109374993,
      "d": 29.761812499986263,
      "v": 67
    },
    {
      "midi": 70,
      "hit": false,
      "t": 65704.16139583326,
      "d": 24.80151041665522,
      "v": 52
    },
    {
      "midi": 77,
      "hit": false,
      "t": 65704.16139583326,
      "d": 44.642718749979394,
      "v": 58
    },
    {
      "midi": 52,
      "hit": false,
      "t": 65714.08199999992,
      "d": 24.80151041665522,
      "v": 53
    },
    {
      "midi": 81,
      "hit": false,
      "t": 66626.77758333323,
      "d": 49.60302083332499,
      "v": 49
    },
    {
      "midi": 93,
      "hit": false,
      "t": 66631.73788541656,
      "d": 49.60302083332499,
      "v": 53
    },
    {
      "midi": 62,
      "hit": false,
      "t": 66631.73788541656,
      "d": 74.40453124998021,
      "v": 46
    },
    {
      "midi": 88,
      "hit": false,
      "t": 66636.69818749989,
      "d": 34.72211458333186,
      "v": 44
    },
    {
      "midi": 67,
      "hit": false,
      "t": 66636.69818749989,
      "d": 54.563322916656034,
      "v": 48
    },
    {
      "midi": 57,
      "hit": false,
      "t": 66641.65848958322,
      "d": 54.563322916656034,
      "v": 22
    },
    {
      "midi": 98,
      "hit": false,
      "t": 67589.07618749987,
      "d": 580.3553437499795,
      "v": 76
    },
    {
      "midi": 86,
      "hit": false,
      "t": 67594.0364895832,
      "d": 610.1171562499803,
      "v": 62
    },
    {
      "midi": 62,
      "hit": false,
      "t": 67603.95709374986,
      "d": 515.8714166666614,
      "v": 55
    },
    {
      "midi": 67,
      "hit": false,
      "t": 67603.95709374986,
      "d": 555.5538333333243,
      "v": 58
    },
    {
      "midi": 93,
      "hit": false,
      "t": 67603.95709374986,
      "d": 595.2362499999872,
      "v": 59
    },
    {
      "midi": 56,
      "hit": false,
      "t": 67608.9173958332,
      "d": 535.7126250000001,
      "v": 52
    },
    {
      "midi": 67,
      "hit": false,
      "t": 68556.33509374985,
      "d": 441.4668854166521,
      "v": 49
    },
    {
      "midi": 96,
      "hit": false,
      "t": 68556.33509374985,
      "d": 461.3080937499908,
      "v": 62
    },
    {
      "midi": 84,
      "hit": false,
      "t": 68561.29539583318,
      "d": 421.6256770833279,
      "v": 51
    },
    {
      "midi": 91,
      "hit": false,
      "t": 68561.29539583318,
      "d": 456.34779166665976,
      "v": 46
    },
    {
      "midi": 62,
      "hit": false,
      "t": 68566.25569791651,
      "d": 456.34779166665976,
      "v": 47
    },
    {
      "midi": 57,
      "hit": false,
      "t": 68566.25569791651,
      "d": 486.1096041666606,
      "v": 43
    },
    {
      "midi": 65,
      "hit": false,
      "t": 69374.78493749983,
      "d": 64.48392708333267,
      "v": 76
    },
    {
      "midi": 89,
      "hit": false,
      "t": 69374.78493749983,
      "d": 74.40453124999476,
      "v": 72
    },
    {
      "midi": 98,
      "hit": false,
      "t": 69379.74523958316,
      "d": 74.40453124999476,
      "v": 61
    },
    {
      "midi": 101,
      "hit": false,
      "t": 69379.74523958316,
      "d": 74.40453124999476,
      "v": 71
    },
    {
      "midi": 58,
      "hit": false,
      "t": 69379.74523958316,
      "d": 99.20604166664998,
      "v": 57
    },
    {
      "midi": 94,
      "hit": false,
      "t": 69384.7055416665,
      "d": 59.52362500000163,
      "v": 52
    },
    {
      "midi": 54,
      "hit": false,
      "t": 69384.7055416665,
      "d": 84.32513541665685,
      "v": 59
    },
    {
      "midi": 60,
      "hit": false,
      "t": 69384.7055416665,
      "d": 84.32513541665685,
      "v": 64
    },
    {
      "midi": 98,
      "hit": false,
      "t": 69672.40306249983,
      "d": 84.32513541665685,
      "v": 67
    },
    {
      "midi": 94,
      "hit": false,
      "t": 69672.40306249983,
      "d": 89.28543749998789,
      "v": 62
    },
    {
      "midi": 86,
      "hit": false,
      "t": 69677.36336458316,
      "d": 119.04724999998871,
      "v": 58
    },
    {
      "midi": 65,
      "hit": false,
      "t": 69682.32366666649,
      "d": 124.00755208331975,
      "v": 65
    },
    {
      "midi": 58,
      "hit": false,
      "t": 69682.32366666649,
      "d": 143.84876041665848,
      "v": 46
    },
    {
      "midi": 60,
      "hit": false,
      "t": 69687.28396874982,
      "d": 153.76936458332057,
      "v": 56
    },
    {
      "midi": 54,
      "hit": false,
      "t": 69687.28396874982,
      "d": 163.68996874998265,
      "v": 52
    },
    {
      "midi": 94,
      "hit": false,
      "t": 69989.86239583314,
      "d": 109.12664583332662,
      "v": 61
    },
    {
      "midi": 82,
      "hit": false,
      "t": 69994.82269791648,
      "d": 128.96785416666535,
      "v": 53
    },
    {
      "midi": 65,
      "hit": false,
      "t": 69999.7829999998,
      "d": 163.6899687499972,
      "v": 53
    },
    {
      "midi": 54,
      "hit": false,
      "t": 69999.7829999998,
      "d": 282.73721875000047,
      "v": 52
    },
    {
      "midi": 58,
      "hit": false,
      "t": 69999.7829999998,
      "d": 282.73721875000047,
      "v": 46
    },
    {
      "midi": 60,
      "hit": false,
      "t": 70004.74330208314,
      "d": 163.6899687499972,
      "v": 52
    },
    {
      "midi": 93,
      "hit": false,
      "t": 70322.20263541647,
      "d": 332.34023958332546,
      "v": 62
    },
    {
      "midi": 88,
      "hit": false,
      "t": 70327.1629374998,
      "d": 347.22114583333314,
      "v": 53
    },
    {
      "midi": 81,
      "hit": false,
      "t": 70332.12323958313,
      "d": 401.7844687500037,
      "v": 50
    },
    {
      "midi": 64,
      "hit": false,
      "t": 70332.12323958313,
      "d": 461.30809375000536,
      "v": 58
    },
    {
      "midi": 59,
      "hit": false,
      "t": 70337.08354166646,
      "d": 466.2683958333364,
      "v": 62
    },
    {
      "midi": 53,
      "hit": false,
      "t": 70342.0438437498,
      "d": 431.54628125000454,
      "v": 55
    },
    {
      "midi": 64,
      "hit": false,
      "t": 70947.20069791646,
      "d": 267.8563124999928,
      "v": 33
    },
    {
      "midi": 88,
      "hit": false,
      "t": 70952.16099999979,
      "d": 228.17389583332988,
      "v": 38
    },
    {
      "midi": 76,
      "hit": false,
      "t": 70957.12130208312,
      "d": 233.13419791666092,
      "v": 29
    },
    {
      "midi": 59,
      "hit": false,
      "t": 70957.12130208312,
      "d": 277.7769166666694,
      "v": 44
    },
    {
      "midi": 53,
      "hit": false,
      "t": 70962.08160416645,
      "d": 228.17389583332988,
      "v": 33
    },
    {
      "midi": 83,
      "hit": false,
      "t": 70967.04190624978,
      "d": 228.17389583332988,
      "v": 37
    },
    {
      "midi": 88,
      "hit": false,
      "t": 71264.66003124979,
      "d": 49.60302083331044,
      "v": 39
    },
    {
      "midi": 76,
      "hit": false,
      "t": 71269.62033333312,
      "d": 44.642718749979394,
      "v": 49
    },
    {
      "midi": 83,
      "hit": false,
      "t": 71274.58063541645,
      "d": 29.761812499986263,
      "v": 48
    },
    {
      "midi": 64,
      "hit": false,
      "t": 71279.54093749978,
      "d": 39.68241666664835,
      "v": 56
    },
    {
      "midi": 59,
      "hit": false,
      "t": 71284.50123958311,
      "d": 39.68241666664835,
      "v": 60
    },
    {
      "midi": 65,
      "hit": false,
      "t": 71889.65809374976,
      "d": 243.05480208330846,
      "v": 60
    },
    {
      "midi": 52,
      "hit": false,
      "t": 71894.6183958331,
      "d": 24.80151041665522,
      "v": 58
    },
    {
      "midi": 53,
      "hit": false,
      "t": 71909.49930208309,
      "d": 287.69752083331696,
      "v": 48
    },
    {
      "midi": 62,
      "hit": false,
      "t": 71914.45960416642,
      "d": 262.8960104166472,
      "v": 51
    },
    {
      "midi": 63,
      "hit": false,
      "t": 71919.41990624975,
      "d": 138.88845833332743,
      "v": 28
    },
    {
      "midi": 55,
      "hit": false,
      "t": 71929.34051041641,
      "d": 213.2929895833222,
      "v": 30
    },
    {
      "midi": 65,
      "hit": false,
      "t": 72221.99833333307,
      "d": 99.20604166666453,
      "v": 58
    },
    {
      "midi": 55,
      "hit": false,
      "t": 72226.9586354164,
      "d": 104.16634374999558,
      "v": 55
    },
    {
      "midi": 62,
      "hit": false,
      "t": 72226.9586354164,
      "d": 124.00755208331975,
      "v": 29
    },
    {
      "midi": 58,
      "hit": false,
      "t": 72231.91893749974,
      "d": 109.12664583332662,
      "v": 48
    },
    {
      "midi": 53,
      "hit": false,
      "t": 72236.87923958307,
      "d": 436.5065833333065,
      "v": 30
    },
    {
      "midi": 55,
      "hit": false,
      "t": 72400.56920833307,
      "d": 233.13419791666092,
      "v": 44
    },
    {
      "midi": 65,
      "hit": false,
      "t": 72405.5295104164,
      "d": 218.2532916666678,
      "v": 33
    },
    {
      "midi": 58,
      "hit": false,
      "t": 72405.5295104164,
      "d": 243.054802083323,
      "v": 25
    },
    {
      "midi": 62,
      "hit": false,
      "t": 72410.48981249973,
      "d": 248.01510416665406,
      "v": 40
    },
    {
      "midi": 65,
      "hit": false,
      "t": 72708.1079374997,
      "d": 44.642718749993946,
      "v": 46
    },
    {
      "midi": 58,
      "hit": false,
      "t": 72708.1079374997,
      "d": 54.563322916656034,
      "v": 37
    },
    {
      "midi": 55,
      "hit": false,
      "t": 72713.06823958304,
      "d": 34.72211458333186,
      "v": 40
    },
    {
      "midi": 53,
      "hit": false,
      "t": 72718.02854166637,
      "d": 84.32513541665685,
      "v": 36
    },
    {
      "midi": 62,
      "hit": false,
      "t": 72722.9888437497,
      "d": 29.761812500000815,
      "v": 56
    },
    {
      "midi": 51,
      "hit": false,
      "t": 73214.05874999969,
      "d": 84.3251354166714,
      "v": 28
    },
    {
      "midi": 55,
      "hit": false,
      "t": 73323.18539583303,
      "d": 238.09449999999197,
      "v": 46
    },
    {
      "midi": 65,
      "hit": false,
      "t": 73328.14569791636,
      "d": 228.17389583332988,
      "v": 50
    },
    {
      "midi": 58,
      "hit": false,
      "t": 73338.06630208303,
      "d": 252.97540624999965,
      "v": 38
    },
    {
      "midi": 62,
      "hit": false,
      "t": 73338.06630208303,
      "d": 262.89601041666174,
      "v": 45
    },
    {
      "midi": 53,
      "hit": false,
      "t": 73343.02660416636,
      "d": 248.0151041666686,
      "v": 32
    },
    {
      "midi": 65,
      "hit": false,
      "t": 73655.52563541636,
      "d": 94.24573958333349,
      "v": 50
    },
    {
      "midi": 58,
      "hit": false,
      "t": 73655.52563541636,
      "d": 124.0075520833343,
      "v": 40
    },
    {
      "midi": 55,
      "hit": false,
      "t": 73660.48593749969,
      "d": 99.20604166666453,
      "v": 55
    },
    {
      "midi": 53,
      "hit": false,
      "t": 73660.48593749969,
      "d": 119.04725000000326,
      "v": 60
    },
    {
      "midi": 62,
      "hit": false,
      "t": 73660.48593749969,
      "d": 128.96785416666535,
      "v": 46
    },
    {
      "midi": 53,
      "hit": false,
      "t": 73814.25530208302,
      "d": 267.85631249997823,
      "v": 25
    },
    {
      "midi": 55,
      "hit": false,
      "t": 73834.09651041636,
      "d": 223.21359374998428,
      "v": 38
    },
    {
      "midi": 65,
      "hit": false,
      "t": 73839.0568124997,
      "d": 218.25329166665324,
      "v": 35
    },
    {
      "midi": 58,
      "hit": false,
      "t": 73844.01711458302,
      "d": 223.21359374998428,
      "v": 27
    },
    {
      "midi": 62,
      "hit": false,
      "t": 73848.97741666636,
      "d": 233.13419791664637,
      "v": 43
    },
    {
      "midi": 53,
      "hit": false,
      "t": 74126.754333333,
      "d": 74.40453124999476,
      "v": 57
    },
    {
      "midi": 65,
      "hit": false,
      "t": 74126.754333333,
      "d": 109.12664583332662,
      "v": 55
    },
    {
      "midi": 58,
      "hit": false,
      "t": 74131.71463541633,
      "d": 49.60302083332499,
      "v": 46
    },
    {
      "midi": 55,
      "hit": false,
      "t": 74136.67493749966,
      "d": 24.80151041665522,
      "v": 58
    },
    {
      "midi": 62,
      "hit": false,
      "t": 74146.59554166632,
      "d": 34.72211458333186,
      "v": 54
    },
    {
      "midi": 61,
      "hit": false,
      "t": 74771.59360416632,
      "d": 198.41208333332906,
      "v": 38
    },
    {
      "midi": 65,
      "hit": false,
      "t": 74771.59360416632,
      "d": 203.3723854166601,
      "v": 71
    },
    {
      "midi": 60,
      "hit": false,
      "t": 74776.55390624965,
      "d": 198.41208333332906,
      "v": 44
    },
    {
      "midi": 69,
      "hit": false,
      "t": 74776.55390624965,
      "d": 223.21359374999884,
      "v": 69
    },
    {
      "midi": 55,
      "hit": false,
      "t": 74781.51420833298,
      "d": 173.61057291667385,
      "v": 50
    },
    {
      "midi": 61,
      "hit": false,
      "t": 75084.09263541632,
      "d": 89.28543749998789,
      "v": 48
    },
    {
      "midi": 60,
      "hit": false,
      "t": 75089.05293749965,
      "d": 79.3648333333258,
      "v": 55
    },
    {
      "midi": 65,
      "hit": false,
      "t": 75089.05293749965,
      "d": 109.12664583332662,
      "v": 71
    },
    {
      "midi": 69,
      "hit": false,
      "t": 75089.05293749965,
      "d": 109.12664583332662,
      "v": 66
    },
    {
      "midi": 55,
      "hit": false,
      "t": 75094.01323958299,
      "d": 44.642718749993946,
      "v": 49
    },
    {
      "midi": 61,
      "hit": false,
      "t": 75257.70320833298,
      "d": 277.77691666665487,
      "v": 35
    },
    {
      "midi": 55,
      "hit": false,
      "t": 75272.58411458298,
      "d": 188.49147916665243,
      "v": 55
    },
    {
      "midi": 65,
      "hit": false,
      "t": 75277.54441666631,
      "d": 143.84876041665848,
      "v": 44
    },
    {
      "midi": 69,
      "hit": false,
      "t": 75282.50471874964,
      "d": 178.57087499999034,
      "v": 36
    },
    {
      "midi": 58,
      "hit": false,
      "t": 75456.1152916663,
      "d": 54.563322916670586,
      "v": 1
    },
    {
      "midi": 60,
      "hit": false,
      "t": 75590.04344791631,
      "d": 441.4668854166666,
      "v": 70
    },
    {
      "midi": 69,
      "hit": false,
      "t": 75590.04344791631,
      "d": 515.8714166666614,
      "v": 75
    },
    {
      "midi": 64,
      "hit": false,
      "t": 75595.00374999964,
      "d": 376.98295833333395,
      "v": 69
    },
    {
      "midi": 54,
      "hit": false,
      "t": 75599.96405208297,
      "d": 535.7126250000001,
      "v": 58
    },
    {
      "midi": 64,
      "hit": false,
      "t": 76190.23999999964,
      "d": 238.09449999997742,
      "v": 43
    },
    {
      "midi": 53,
      "hit": false,
      "t": 76190.23999999964,
      "d": 257.9357083333016,
      "v": 50
    },
    {
      "midi": 59,
      "hit": false,
      "t": 76200.1606041663,
      "d": 243.05480208330846,
      "v": 57
    },
    {
      "midi": 69,
      "hit": false,
      "t": 76205.12090624963,
      "d": 119.04724999998871,
      "v": 44
    },
    {
      "midi": 65,
      "hit": false,
      "t": 76210.08120833297,
      "d": 99.20604166666453,
      "v": 50
    },
    {
      "midi": 76,
      "hit": false,
      "t": 76517.6199374996,
      "d": 198.4120833333145,
      "v": 75
    },
    {
      "midi": 64,
      "hit": false,
      "t": 76527.54054166627,
      "d": 168.65027083332825,
      "v": 72
    },
    {
      "midi": 73,
      "hit": false,
      "t": 76527.54054166627,
      "d": 198.4120833333145,
      "v": 65
    },
    {
      "midi": 69,
      "hit": false,
      "t": 76532.5008437496,
      "d": 178.57087499999034,
      "v": 71
    },
    {
      "midi": 53,
      "hit": false,
      "t": 76532.5008437496,
      "d": 203.37238541664556,
      "v": 58
    },
    {
      "midi": 59,
      "hit": false,
      "t": 76537.46114583293,
      "d": 193.45178124998347,
      "v": 68
    },
    {
      "midi": 76,
      "hit": false,
      "t": 77450.15672916625,
      "d": 188.49147916665243,
      "v": 73
    },
    {
      "midi": 65,
      "hit": false,
      "t": 77450.15672916625,
      "d": 257.93570833331614,
      "v": 77
    },
    {
      "midi": 68,
      "hit": false,
      "t": 77450.15672916625,
      "d": 267.85631249997823,
      "v": 69
    },
    {
      "midi": 64,
      "hit": false,
      "t": 77455.11703124958,
      "d": 233.13419791666092,
      "v": 65
    },
    {
      "midi": 71,
      "hit": false,
      "t": 77460.07733333291,
      "d": 257.93570833331614,
      "v": 60
    },
    {
      "midi": 59,
      "hit": false,
      "t": 77460.07733333291,
      "d": 267.85631249997823,
      "v": 60
    },
    {
      "midi": 53,
      "hit": false,
      "t": 77469.99793749957,
      "d": 233.13419791666092,
      "v": 47
    },
    {
      "midi": 74,
      "hit": false,
      "t": 77777.53666666623,
      "d": 168.65027083332825,
      "v": 66
    },
    {
      "midi": 65,
      "hit": false,
      "t": 77782.49696874956,
      "d": 188.49147916666698,
      "v": 54
    },
    {
      "midi": 64,
      "hit": false,
      "t": 77787.45727083289,
      "d": 99.20604166666453,
      "v": 45
    },
    {
      "midi": 68,
      "hit": false,
      "t": 77787.45727083289,
      "d": 193.45178124999802,
      "v": 56
    },
    {
      "midi": 59,
      "hit": false,
      "t": 77792.41757291622,
      "d": 99.20604166666453,
      "v": 36
    },
    {
      "midi": 53,
      "hit": false,
      "t": 77802.33817708289,
      "d": 188.49147916666698,
      "v": 33
    },
    {
      "midi": 72,
      "hit": false,
      "t": 78099.95630208288,
      "d": 69.44422916664917,
      "v": 54
    },
    {
      "midi": 62,
      "hit": false,
      "t": 78104.91660416621,
      "d": 59.52362499998708,
      "v": 63
    },
    {
      "midi": 67,
      "hit": false,
      "t": 78114.83720833287,
      "d": 29.761812500000815,
      "v": 49
    },
    {
      "midi": 58,
      "hit": false,
      "t": 78114.83720833287,
      "d": 49.60302083332499,
      "v": 53
    },
    {
      "midi": 52,
      "hit": false,
      "t": 78119.7975104162,
      "d": 34.72211458333186,
      "v": 53
    },
    {
      "midi": 64,
      "hit": false,
      "t": 79032.49309374952,
      "d": 49.60302083332499,
      "v": 51
    },
    {
      "midi": 60,
      "hit": false,
      "t": 79037.45339583285,
      "d": 39.6824166666629,
      "v": 47
    },
    {
      "midi": 74,
      "hit": false,
      "t": 79042.41369791618,
      "d": 39.6824166666629,
      "v": 55
    },
    {
      "midi": 86,
      "hit": false,
      "t": 79042.41369791618,
      "d": 89.28543750000244,
      "v": 58
    },
    {
      "midi": 81,
      "hit": false,
      "t": 79047.37399999952,
      "d": 59.52362500000163,
      "v": 53
    },
    {
      "midi": 54,
      "hit": false,
      "t": 79047.37399999952,
      "d": 64.48392708333267,
      "v": 34
    },
    {
      "midi": 93,
      "hit": false,
      "t": 79498.76148958286,
      "d": 223.21359374998428,
      "v": 79
    },
    {
      "midi": 88,
      "hit": false,
      "t": 79503.72179166619,
      "d": 223.21359374998428,
      "v": 74
    },
    {
      "midi": 54,
      "hit": false,
      "t": 79503.72179166619,
      "d": 317.4593333333178,
      "v": 64
    },
    {
      "midi": 60,
      "hit": false,
      "t": 79508.68209374952,
      "d": 198.41208333332906,
      "v": 66
    },
    {
      "midi": 81,
      "hit": false,
      "t": 79508.68209374952,
      "d": 208.33268749999115,
      "v": 65
    },
    {
      "midi": 64,
      "hit": false,
      "t": 79513.64239583285,
      "d": 218.25329166665324,
      "v": 67
    },
    {
      "midi": 94,
      "hit": false,
      "t": 79979.91079166617,
      "d": 213.2929895833222,
      "v": 57
    },
    {
      "midi": 62,
      "hit": false,
      "t": 79979.91079166617,
      "d": 223.21359374998428,
      "v": 40
    },
    {
      "midi": 82,
      "hit": false,
      "t": 79989.83139583284,
      "d": 173.6105729166593,
      "v": 34
    },
    {
      "midi": 58,
      "hit": false,
      "t": 79989.83139583284,
      "d": 228.17389583331533,
      "v": 36
    },
    {
      "midi": 55,
      "hit": false,
      "t": 79994.79169791617,
      "d": 213.2929895833222,
      "v": 42
    },
    {
      "midi": 89,
      "hit": false,
      "t": 79999.7519999995,
      "d": 109.12664583332662,
      "v": 53
    },
    {
      "midi": 58,
      "hit": false,
      "t": 80292.40982291615,
      "d": 64.48392708331812,
      "v": 36
    },
    {
      "midi": 96,
      "hit": false,
      "t": 80297.37012499948,
      "d": 34.72211458331731,
      "v": 57
    },
    {
      "midi": 62,
      "hit": false,
      "t": 80297.37012499948,
      "d": 54.563322916656034,
      "v": 48
    },
    {
      "midi": 55,
      "hit": false,
      "t": 80302.33042708281,
      "d": 49.60302083332499,
      "v": 39
    },
    {
      "midi": 58,
      "hit": false,
      "t": 80778.51942708279,
      "d": 59.523624999972526,
      "v": 67
    },
    {
      "midi": 96,
      "hit": false,
      "t": 80783.47972916612,
      "d": 24.80151041665522,
      "v": 67
    },
    {
      "midi": 62,
      "hit": false,
      "t": 80783.47972916612,
      "d": 44.642718749979394,
      "v": 72
    },
    {
      "midi": 84,
      "hit": false,
      "t": 80788.44003124945,
      "d": 29.761812499986263,
      "v": 58
    },
    {
      "midi": 91,
      "hit": false,
      "t": 80788.44003124945,
      "d": 34.72211458331731,
      "v": 61
    },
    {
      "midi": 52,
      "hit": false,
      "t": 80793.40033333279,
      "d": 29.761812499986263,
      "v": 55
    },
    {
      "midi": 82,
      "hit": false,
      "t": 81066.21694791611,
      "d": 153.76936458332057,
      "v": 67
    },
    {
      "midi": 94,
      "hit": false,
      "t": 81066.21694791611,
      "d": 158.7296666666516,
      "v": 71
    },
    {
      "midi": 58,
      "hit": false,
      "t": 81081.0978541661,
      "d": 153.76936458332057,
      "v": 59
    },
    {
      "midi": 62,
      "hit": false,
      "t": 81086.05815624943,
      "d": 148.80906249998952,
      "v": 63
    },
    {
      "midi": 52,
      "hit": false,
      "t": 81095.9787604161,
      "d": 104.16634374999558,
      "v": 59
    },
    {
      "midi": 58,
      "hit": false,
      "t": 81388.63658333276,
      "d": 173.6105729166593,
      "v": 47
    },
    {
      "midi": 92,
      "hit": false,
      "t": 81388.63658333276,
      "d": 233.13419791666092,
      "v": 55
    },
    {
      "midi": 87,
      "hit": false,
      "t": 81393.59688541609,
      "d": 173.6105729166593,
      "v": 58
    },
    {
      "midi": 80,
      "hit": false,
      "t": 81393.59688541609,
      "d": 198.41208333332906,
      "v": 38
    },
    {
      "midi": 62,
      "hit": false,
      "t": 81398.55718749942,
      "d": 213.29298958333675,
      "v": 54
    },
    {
      "midi": 52,
      "hit": false,
      "t": 81408.47779166608,
      "d": 104.16634374999558,
      "v": 47
    },
    {
      "midi": 64,
      "hit": false,
      "t": 81735.85772916609,
      "d": 699.4025937499973,
      "v": 66
    },
    {
      "midi": 93,
      "hit": false,
      "t": 81740.81803124942,
      "d": 500.99051041666826,
      "v": 77
    },
    {
      "midi": 60,
      "hit": false,
      "t": 81740.81803124942,
      "d": 684.5216875000042,
      "v": 60
    },
    {
      "midi": 88,
      "hit": false,
      "t": 81745.77833333275,
      "d": 530.7523229166691,
      "v": 70
    },
    {
      "midi": 81,
      "hit": false,
      "t": 81745.77833333275,
      "d": 595.2362500000017,
      "v": 64
    },
    {
      "midi": 57,
      "hit": false,
      "t": 81750.73863541608,
      "d": 679.5613854166731,
      "v": 53
    },
    {
      "midi": 53,
      "hit": false,
      "t": 81755.69893749942,
      "d": 664.68047916668,
      "v": 38
    },
    {
      "midi": 81,
      "hit": false,
      "t": 82837.04479166609,
      "d": 238.09449999999197,
      "v": 83
    },
    {
      "midi": 74,
      "hit": false,
      "t": 82837.04479166609,
      "d": 262.89601041666174,
      "v": 82
    },
    {
      "midi": 77,
      "hit": false,
      "t": 82842.00509374942,
      "d": 228.17389583332988,
      "v": 71
    },
    {
      "midi": 69,
      "hit": false,
      "t": 82842.00509374942,
      "d": 287.6975208333315,
      "v": 81
    },
    {
      "midi": 65,
      "hit": false,
      "t": 82846.96539583275,
      "d": 456.3477916666743,
      "v": 74
    },
    {
      "midi": 77,
      "hit": false,
      "t": 83323.15439583275,
      "d": 178.57087499999034,
      "v": 66
    },
    {
      "midi": 69,
      "hit": false,
      "t": 83323.15439583275,
      "d": 198.41208333332906,
      "v": 67
    },
    {
      "midi": 74,
      "hit": false,
      "t": 83328.11469791608,
      "d": 173.6105729166593,
      "v": 63
    },
    {
      "midi": 62,
      "hit": false,
      "t": 83338.03530208275,
      "d": 133.9281562499964,
      "v": 44
    },
    {
      "midi": 58,
      "hit": false,
      "t": 83794.3830937494,
      "d": 381.94326041665045,
      "v": 42
    },
    {
      "midi": 70,
      "hit": false,
      "t": 83794.3830937494,
      "d": 411.70507291665126,
      "v": 52
    },
    {
      "midi": 62,
      "hit": false,
      "t": 83804.30369791607,
      "d": 282.73721875000047,
      "v": 43
    },
    {
      "midi": 52,
      "hit": false,
      "t": 83809.2639999994,
      "d": 327.3799374999944,
      "v": 48
    },
    {
      "midi": 67,
      "hit": false,
      "t": 83814.22430208273,
      "d": 312.4990312500013,
      "v": 48
    },
    {
      "midi": 84,
      "hit": false,
      "t": 84592.99172916605,
      "d": 124.0075520833343,
      "v": 101
    },
    {
      "midi": 81,
      "hit": false,
      "t": 84915.41136458272,
      "d": 282.7372187499568,
      "v": 67
    },
    {
      "midi": 65,
      "hit": false,
      "t": 84920.37166666605,
      "d": 213.29298958330764,
      "v": 55
    },
    {
      "midi": 61,
      "hit": false,
      "t": 84920.37166666605,
      "d": 223.21359374996973,
      "v": 38
    },
    {
      "midi": 73,
      "hit": false,
      "t": 84920.37166666605,
      "d": 223.21359374996973,
      "v": 44
    },
    {
      "midi": 60,
      "hit": false,
      "t": 84925.33196874938,
      "d": 208.3326874999766,
      "v": 50
    },
    {
      "midi": 55,
      "hit": false,
      "t": 84935.25257291604,
      "d": 183.53117708332138,
      "v": 46
    },
    {
      "midi": 77,
      "hit": false,
      "t": 84950.13347916603,
      "d": 128.96785416666535,
      "v": 26
    },
    {
      "midi": 65,
      "hit": false,
      "t": 85227.91039583267,
      "d": 153.76936458332057,
      "v": 50
    },
    {
      "midi": 61,
      "hit": false,
      "t": 85232.870697916,
      "d": 198.4120833333145,
      "v": 35
    },
    {
      "midi": 73,
      "hit": false,
      "t": 85237.83099999934,
      "d": 163.68996874998265,
      "v": 50
    },
    {
      "midi": 60,
      "hit": false,
      "t": 85242.79130208267,
      "d": 104.16634374999558,
      "v": 34
    },
    {
      "midi": 77,
      "hit": false,
      "t": 85242.79130208267,
      "d": 109.12664583332662,
      "v": 55
    },
    {
      "midi": 55,
      "hit": false,
      "t": 85257.67220833266,
      "d": 138.88845833332743,
      "v": 43
    },
    {
      "midi": 64,
      "hit": false,
      "t": 85550.33003124932,
      "d": 778.7674270833231,
      "v": 57
    },
    {
      "midi": 72,
      "hit": false,
      "t": 85555.29033333265,
      "d": 734.1247083333292,
      "v": 53
    },
    {
      "midi": 76,
      "hit": false,
      "t": 85555.29033333265,
      "d": 744.0453124999913,
      "v": 61
    },
    {
      "midi": 79,
      "hit": false,
      "t": 85555.29033333265,
      "d": 753.9659166666534,
      "v": 59
    },
    {
      "midi": 60,
      "hit": false,
      "t": 85555.29033333265,
      "d": 833.3307499999937,
      "v": 46
    },
    {
      "midi": 57,
      "hit": false,
      "t": 85565.21093749932,
      "d": 803.5689374999929,
      "v": 50
    },
    {
      "midi": 53,
      "hit": false,
      "t": 85565.21093749932,
      "d": 868.0528645833256,
      "v": 34
    },
    {
      "midi": 64,
      "hit": false,
      "t": 86626.71558333264,
      "d": 54.563322916656034,
      "v": 40
    },
    {
      "midi": 60,
      "hit": false,
      "t": 86631.67588541597,
      "d": 44.642718749993946,
      "v": 36
    },
    {
      "midi": 69,
      "hit": false,
      "t": 86636.6361874993,
      "d": 44.642718749993946,
      "v": 37
    },
    {
      "midi": 72,
      "hit": false,
      "t": 86636.6361874993,
      "d": 64.48392708331812,
      "v": 40
    },
    {
      "midi": 57,
      "hit": false,
      "t": 86636.6361874993,
      "d": 69.44422916664917,
      "v": 45
    },
    {
      "midi": 77,
      "hit": false,
      "t": 86636.6361874993,
      "d": 69.44422916664917,
      "v": 37
    },
    {
      "midi": 53,
      "hit": false,
      "t": 86646.55679166596,
      "d": 44.642718749993946,
      "v": 29
    },
    {
      "midi": 71,
      "hit": false,
      "t": 87569.17297916595,
      "d": 238.09449999999197,
      "v": 62
    },
    {
      "midi": 75,
      "hit": false,
      "t": 87574.13328124928,
      "d": 124.00755208331975,
      "v": 54
    },
    {
      "midi": 81,
      "hit": false,
      "t": 87574.13328124928,
      "d": 243.054802083323,
      "v": 66
    },
    {
      "midi": 64,
      "hit": false,
      "t": 87584.05388541594,
      "d": 213.29298958333675,
      "v": 35
    },
    {
      "midi": 59,
      "hit": false,
      "t": 87584.05388541594,
      "d": 223.21359374999884,
      "v": 49
    },
    {
      "midi": 53,
      "hit": false,
      "t": 87589.01418749927,
      "d": 208.3326875000057,
      "v": 36
    },
    {
      "midi": 76,
      "hit": false,
      "t": 87717.98204166593,
      "d": 94.24573958333349,
      "v": 39
    },
    {
      "midi": 81,
      "hit": false,
      "t": 88040.4016770826,
      "d": 238.09449999999197,
      "v": 73
    },
    {
      "midi": 75,
      "hit": false,
      "t": 88045.36197916593,
      "d": 168.65027083332825,
      "v": 60
    },
    {
      "midi": 71,
      "hit": false,
      "t": 88045.36197916593,
      "d": 218.2532916666678,
      "v": 68
    },
    {
      "midi": 64,
      "hit": false,
      "t": 88050.32228124926,
      "d": 228.17389583332988,
      "v": 60
    },
    {
      "midi": 59,
      "hit": false,
      "t": 88050.32228124926,
      "d": 238.09449999999197,
      "v": 57
    },
    {
      "midi": 53,
      "hit": false,
      "t": 88055.28258333259,
      "d": 218.2532916666678,
      "v": 55
    },
    {
      "midi": 76,
      "hit": false,
      "t": 88214.01224999926,
      "d": 49.60302083333954,
      "v": 34
    },
    {
      "midi": 75,
      "hit": false,
      "t": 88511.63037499925,
      "d": 74.40453124999476,
      "v": 62
    },
    {
      "midi": 71,
      "hit": false,
      "t": 88516.59067708258,
      "d": 223.21359374998428,
      "v": 69
    },
    {
      "midi": 81,
      "hit": false,
      "t": 88516.59067708258,
      "d": 446.42718749996857,
      "v": 74
    },
    {
      "midi": 64,
      "hit": false,
      "t": 88521.55097916591,
      "d": 203.3723854166601,
      "v": 66
    },
    {
      "midi": 53,
      "hit": false,
      "t": 88526.51128124924,
      "d": 188.49147916666698,
      "v": 58
    },
    {
      "midi": 59,
      "hit": false,
      "t": 88526.51128124924,
      "d": 208.33268749999115,
      "v": 58
    },
    {
      "midi": 76,
      "hit": false,
      "t": 88595.95551041591,
      "d": 119.04725000000326,
      "v": 48
    },
    {
      "midi": 75,
      "hit": false,
      "t": 88839.01031249923,
      "d": 143.84876041665848,
      "v": 55
    },
    {
      "midi": 53,
      "hit": false,
      "t": 88848.9309166659,
      "d": 74.40453124999476,
      "v": 48
    },
    {
      "midi": 64,
      "hit": false,
      "t": 88853.89121874922,
      "d": 44.642718749993946,
      "v": 51
    },
    {
      "midi": 59,
      "hit": false,
      "t": 88853.89121874922,
      "d": 69.44422916666372,
      "v": 50
    },
    {
      "midi": 71,
      "hit": false,
      "t": 88863.81182291589,
      "d": 59.52362500000163,
      "v": 18
    },
    {
      "midi": 59,
      "hit": false,
      "t": 89022.54148958255,
      "d": 148.80906249998952,
      "v": 47
    },
    {
      "midi": 53,
      "hit": false,
      "t": 89022.54148958255,
      "d": 248.01510416665406,
      "v": 36
    },
    {
      "midi": 64,
      "hit": false,
      "t": 89027.50179166588,
      "d": 138.88845833332743,
      "v": 31
    },
    {
      "midi": 74,
      "hit": false,
      "t": 89032.46209374921,
      "d": 128.96785416666535,
      "v": 34
    },
    {
      "midi": 77,
      "hit": false,
      "t": 89320.15961458255,
      "d": 451.38748958331416,
      "v": 59
    },
    {
      "midi": 53,
      "hit": false,
      "t": 89325.11991666588,
      "d": 749.0056145832932,
      "v": 28
    },
    {
      "midi": 70,
      "hit": false,
      "t": 89335.04052083254,
      "d": 357.1417499999952,
      "v": 46
    },
    {
      "midi": 57,
      "hit": false,
      "t": 89335.04052083254,
      "d": 689.4819895833061,
      "v": 49
    },
    {
      "midi": 74,
      "hit": false,
      "t": 89340.00082291587,
      "d": 312.4990312500013,
      "v": 66
    },
    {
      "midi": 62,
      "hit": false,
      "t": 89340.00082291587,
      "d": 352.1814479166642,
      "v": 54
    },
    {
      "midi": 58,
      "hit": false,
      "t": 89344.9611249992,
      "d": 307.53872916667024,
      "v": 48
    },
    {
      "midi": 65,
      "hit": false,
      "t": 89354.88172916586,
      "d": 342.2608437500021,
      "v": 45
    },
    {
      "midi": 67,
      "hit": false,
      "t": 89359.8420312492,
      "d": 34.72211458333186,
      "v": 42
    },
    {
      "midi": 74,
      "hit": false,
      "t": 89811.22952083252,
      "d": 188.49147916665243,
      "v": 58
    },
    {
      "midi": 70,
      "hit": false,
      "t": 89811.22952083252,
      "d": 252.9754062499851,
      "v": 56
    },
    {
      "midi": 58,
      "hit": false,
      "t": 89816.18982291585,
      "d": 213.2929895833222,
      "v": 59
    },
    {
      "midi": 62,
      "hit": false,
      "t": 89821.15012499919,
      "d": 168.65027083332825,
      "v": 62
    },
    {
      "midi": 65,
      "hit": false,
      "t": 89821.15012499919,
      "d": 262.8960104166472,
      "v": 60
    },
    {
      "midi": 51,
      "hit": false,
      "t": 90391.5848645825,
      "d": 59.52362500000163,
      "v": 35
    },
    {
      "midi": 65,
      "hit": false,
      "t": 90470.94969791583,
      "d": 272.8166145833093,
      "v": 51
    },
    {
      "midi": 53,
      "hit": false,
      "t": 90475.90999999916,
      "d": 307.53872916664113,
      "v": 61
    },
    {
      "midi": 62,
      "hit": false,
      "t": 90480.87030208249,
      "d": 203.3723854166601,
      "v": 52
    },
    {
      "midi": 55,
      "hit": false,
      "t": 90480.87030208249,
      "d": 218.25329166665324,
      "v": 50
    },
    {
      "midi": 58,
      "hit": false,
      "t": 90480.87030208249,
      "d": 233.13419791664637,
      "v": 36
    },
    {
      "midi": 62,
      "hit": false,
      "t": 90803.28993749914,
      "d": 446.4271874999977,
      "v": 50
    },
    {
      "midi": 58,
      "hit": false,
      "t": 90803.28993749914,
      "d": 451.3874895833287,
      "v": 45
    },
    {
      "midi": 50,
      "hit": false,
      "t": 90808.25023958247,
      "d": 297.61812500000815,
      "v": 56
    },
    {
      "midi": 55,
      "hit": false,
      "t": 90808.25023958247,
      "d": 372.0226562500029,
      "v": 53
    },
    {
      "midi": 65,
      "hit": false,
      "t": 91433.24830208247,
      "d": 89.28543750000244,
      "v": 68
    },
    {
      "midi": 58,
      "hit": false,
      "t": 91433.24830208247,
      "d": 99.20604166666453,
      "v": 69
    },
    {
      "midi": 55,
      "hit": false,
      "t": 91438.2086041658,
      "d": 59.52362500000163,
      "v": 78
    },
    {
      "midi": 62,
      "hit": false,
      "t": 91438.2086041658,
      "d": 104.16634374999558,
      "v": 66
    },
    {
      "midi": 58,
      "hit": false,
      "t": 91879.67548958247,
      "d": 128.9678541666508,
      "v": 69
    },
    {
      "midi": 48,
      "hit": false,
      "t": 91889.59609374913,
      "d": 64.48392708331812,
      "v": 55
    },
    {
      "midi": 55,
      "hit": false,
      "t": 91889.59609374913,
      "d": 69.44422916664917,
      "v": 72
    },
    {
      "midi": 62,
      "hit": false,
      "t": 91889.59609374913,
      "d": 124.00755208331975,
      "v": 66
    },
    {
      "midi": 67,
      "hit": false,
      "t": 92370.74539583245,
      "d": 292.6578229166771,
      "v": 80
    },
    {
      "midi": 72,
      "hit": false,
      "t": 92375.70569791578,
      "d": 233.13419791667548,
      "v": 76
    },
    {
      "midi": 60,
      "hit": false,
      "t": 92375.70569791578,
      "d": 262.8960104166763,
      "v": 77
    },
    {
      "midi": 55,
      "hit": false,
      "t": 92380.66599999911,
      "d": 312.49903125001583,
      "v": 66
    },
    {
      "midi": 45,
      "hit": false,
      "t": 92385.62630208244,
      "d": 302.57842708335374,
      "v": 57
    },
    {
      "midi": 50,
      "hit": false,
      "t": 92762.60926041579,
      "d": 59.52362500000163,
      "v": 31
    },
    {
      "midi": 66,
      "hit": false,
      "t": 92856.85499999912,
      "d": 312.4990312499722,
      "v": 58
    },
    {
      "midi": 71,
      "hit": false,
      "t": 92861.81530208245,
      "d": 262.8960104166472,
      "v": 62
    },
    {
      "midi": 60,
      "hit": false,
      "t": 92861.81530208245,
      "d": 267.85631249997823,
      "v": 62
    },
    {
      "midi": 54,
      "hit": false,
      "t": 92871.73590624912,
      "d": 362.1020520833117,
      "v": 55
    },
    {
      "midi": 44,
      "hit": false,
      "t": 92881.65651041578,
      "d": 426.5859791666444,
      "v": 51
    },
    {
      "midi": 59,
      "hit": false,
      "t": 93342.96460416575,
      "d": 362.10205208332627,
      "v": 47
    },
    {
      "midi": 64,
      "hit": false,
      "t": 93347.92490624909,
      "d": 317.4593333333323,
      "v": 57
    },
    {
      "midi": 69,
      "hit": false,
      "t": 93347.92490624909,
      "d": 441.4668854166666,
      "v": 48
    },
    {
      "midi": 53,
      "hit": false,
      "t": 93357.84551041575,
      "d": 317.4593333333323,
      "v": 51
    },
    {
      "midi": 50,
      "hit": false,
      "t": 93695.14605208242,
      "d": 104.16634374999558,
      "v": 47
    },
    {
      "midi": 63,
      "hit": false,
      "t": 93794.35209374908,
      "d": 307.53872916667024,
      "v": 48
    },
    {
      "midi": 54,
      "hit": false,
      "t": 93794.35209374908,
      "d": 322.41963541666337,
      "v": 44
    },
    {
      "midi": 59,
      "hit": false,
      "t": 93799.31239583241,
      "d": 252.97540624999965,
      "v": 45
    },
    {
      "midi": 59,
      "hit": false,
      "t": 94121.73203124908,
      "d": 34.72211458333186,
      "v": 59
    },
    {
      "midi": 62,
      "hit": false,
      "t": 94126.69233333241,
      "d": 39.6824166666629,
      "v": 70
    },
    {
      "midi": 53,
      "hit": false,
      "t": 94161.41444791574,
      "d": 29.761812500000815,
      "v": 51
    },
    {
      "midi": 43,
      "hit": false,
      "t": 94414.38985416574,
      "d": 29.761812500000815,
      "v": 54
    },
    {
      "midi": 71,
      "hit": false,
      "t": 94741.76979166573,
      "d": 64.48392708333267,
      "v": 68
    },
    {
      "midi": 77,
      "hit": false,
      "t": 94741.76979166573,
      "d": 94.24573958331894,
      "v": 61
    },
    {
      "midi": 64,
      "hit": false,
      "t": 94746.73009374907,
      "d": 64.48392708333267,
      "v": 49
    },
    {
      "midi": 59,
      "hit": false,
      "t": 94746.73009374907,
      "d": 79.3648333333258,
      "v": 51
    },
    {
      "midi": 81,
      "hit": false,
      "t": 95074.11003124906,
      "d": 505.95081249998475,
      "v": 58
    },
    {
      "midi": 77,
      "hit": false,
      "t": 95079.07033333239,
      "d": 466.2683958333364,
      "v": 57
    },
    {
      "midi": 58,
      "hit": false,
      "t": 95079.07033333239,
      "d": 505.95081249998475,
      "v": 38
    },
    {
      "midi": 69,
      "hit": false,
      "t": 95084.03063541572,
      "d": 347.22114583333314,
      "v": 56
    },
    {
      "midi": 74,
      "hit": false,
      "t": 95084.03063541572,
      "d": 426.5859791666735,
      "v": 59
    },
    {
      "midi": 62,
      "hit": false,
      "t": 95084.03063541572,
      "d": 476.1889999999985,
      "v": 51
    },
    {
      "midi": 57,
      "hit": false,
      "t": 95093.95123958238,
      "d": 491.0699062499916,
      "v": 42
    },
    {
      "midi": 53,
      "hit": false,
      "t": 95098.91154166572,
      "d": 466.2683958333364,
      "v": 40
    },
    {
      "midi": 58,
      "hit": false,
      "t": 96150.49558333238,
      "d": 153.76936458332057,
      "v": 35
    },
    {
      "midi": 96,
      "hit": false,
      "t": 96155.45588541571,
      "d": 128.96785416666535,
      "v": 61
    },
    {
      "midi": 64,
      "hit": false,
      "t": 96160.41618749904,
      "d": 128.96785416666535,
      "v": 42
    },
    {
      "midi": 69,
      "hit": false,
      "t": 96160.41618749904,
      "d": 128.96785416666535,
      "v": 35
    },
    {
      "midi": 84,
      "hit": false,
      "t": 96165.37648958237,
      "d": 99.20604166666453,
      "v": 44
    },
    {
      "midi": 64,
      "hit": false,
      "t": 96641.56548958237,
      "d": 114.08694791665766,
      "v": 37
    },
    {
      "midi": 96,
      "hit": false,
      "t": 96651.48609374903,
      "d": 148.80906249998952,
      "v": 61
    },
    {
      "midi": 84,
      "hit": false,
      "t": 96661.40669791569,
      "d": 128.96785416666535,
      "v": 41
    },
    {
      "midi": 58,
      "hit": false,
      "t": 96661.40669791569,
      "d": 208.33268749999115,
      "v": 27
    },
    {
      "midi": 96,
      "hit": false,
      "t": 97132.63539583236,
      "d": 138.88845833332743,
      "v": 64
    },
    {
      "midi": 67,
      "hit": false,
      "t": 97137.59569791569,
      "d": 163.6899687499972,
      "v": 44
    },
    {
      "midi": 62,
      "hit": false,
      "t": 97137.59569791569,
      "d": 173.6105729166593,
      "v": 49
    },
    {
      "midi": 57,
      "hit": false,
      "t": 97142.55599999902,
      "d": 188.49147916666698,
      "v": 45
    },
    {
      "midi": 84,
      "hit": false,
      "t": 97157.43690624902,
      "d": 119.04725000000326,
      "v": 28
    },
    {
      "midi": 96,
      "hit": false,
      "t": 98075.0927916657,
      "d": 223.21359374999884,
      "v": 74
    },
    {
      "midi": 84,
      "hit": false,
      "t": 98080.05309374903,
      "d": 228.17389583332988,
      "v": 65
    },
    {
      "midi": 67,
      "hit": false,
      "t": 98080.05309374903,
      "d": 243.054802083323,
      "v": 51
    },
    {
      "midi": 62,
      "hit": false,
      "t": 98085.01339583236,
      "d": 252.9754062499851,
      "v": 53
    },
    {
      "midi": 56,
      "hit": false,
      "t": 98085.01339583236,
      "d": 302.57842708332464,
      "v": 43
    },
    {
      "midi": 65,
      "hit": false,
      "t": 99017.55018749902,
      "d": 252.9754062499851,
      "v": 55
    },
    {
      "midi": 57,
      "hit": false,
      "t": 99027.47079166568,
      "d": 267.8563124999928,
      "v": 50
    },
    {
      "midi": 96,
      "hit": false,
      "t": 99027.47079166568,
      "d": 272.8166145833238,
      "v": 71
    },
    {
      "midi": 84,
      "hit": false,
      "t": 99032.43109374901,
      "d": 233.13419791666092,
      "v": 64
    },
    {
      "midi": 60,
      "hit": false,
      "t": 99037.39139583234,
      "d": 223.21359374999884,
      "v": 55
    },
    {
      "midi": 94,
      "hit": false,
      "t": 99969.92818749898,
      "d": 183.53117708332138,
      "v": 74
    },
    {
      "midi": 86,
      "hit": false,
      "t": 99974.88848958231,
      "d": 163.6899687499972,
      "v": 72
    },
    {
      "midi": 65,
      "hit": false,
      "t": 99974.88848958231,
      "d": 183.53117708332138,
      "v": 70
    },
    {
      "midi": 98,
      "hit": false,
      "t": 99974.88848958231,
      "d": 183.53117708332138,
      "v": 74
    },
    {
      "midi": 54,
      "hit": false,
      "t": 99979.84879166564,
      "d": 193.45178124998347,
      "v": 62
    },
    {
      "midi": 58,
      "hit": false,
      "t": 99984.80909374898,
      "d": 193.45178124998347,
      "v": 51
    },
    {
      "midi": 60,
      "hit": false,
      "t": 99984.80909374898,
      "d": 193.45178124998347,
      "v": 60
    },
    {
      "midi": 54,
      "hit": false,
      "t": 100302.2684270823,
      "d": 109.12664583334117,
      "v": 64
    },
    {
      "midi": 65,
      "hit": false,
      "t": 100307.22872916562,
      "d": 59.52362500000163,
      "v": 70
    },
    {
      "midi": 101,
      "hit": false,
      "t": 100307.22872916562,
      "d": 64.48392708333267,
      "v": 73
    },
    {
      "midi": 89,
      "hit": false,
      "t": 100312.18903124896,
      "d": 54.563322916670586,
      "v": 63
    },
    {
      "midi": 96,
      "hit": false,
      "t": 100312.18903124896,
      "d": 54.563322916670586,
      "v": 71
    },
    {
      "midi": 58,
      "hit": false,
      "t": 100312.18903124896,
      "d": 79.36483333334036,
      "v": 50
    },
    {
      "midi": 60,
      "hit": false,
      "t": 100317.14933333229,
      "d": 74.40453125000931,
      "v": 52
    },
    {
      "midi": 98,
      "hit": false,
      "t": 100470.91869791564,
      "d": 178.57087499997579,
      "v": 55
    },
    {
      "midi": 54,
      "hit": false,
      "t": 100470.91869791564,
      "d": 352.18144791664963,
      "v": 47
    },
    {
      "midi": 65,
      "hit": false,
      "t": 100480.8393020823,
      "d": 208.3326874999766,
      "v": 38
    },
    {
      "midi": 60,
      "hit": false,
      "t": 100485.79960416563,
      "d": 208.3326874999766,
      "v": 33
    },
    {
      "midi": 58,
      "hit": false,
      "t": 100485.79960416563,
      "d": 287.69752083331696,
      "v": 33
    },
    {
      "midi": 93,
      "hit": false,
      "t": 100500.68051041562,
      "d": 124.00755208331975,
      "v": 34
    },
    {
      "midi": 86,
      "hit": false,
      "t": 100515.56141666562,
      "d": 74.40453124999476,
      "v": 15
    },
    {
      "midi": 101,
      "hit": false,
      "t": 100932.22679166563,
      "d": 466.2683958333364,
      "v": 71
    },
    {
      "midi": 64,
      "hit": false,
      "t": 100937.18709374896,
      "d": 505.9508124999993,
      "v": 64
    },
    {
      "midi": 59,
      "hit": false,
      "t": 100937.18709374896,
      "d": 515.8714166666614,
      "v": 58
    },
    {
      "midi": 96,
      "hit": false,
      "t": 100942.14739583229,
      "d": 496.0302083333372,
      "v": 62
    },
    {
      "midi": 89,
      "hit": false,
      "t": 100942.14739583229,
      "d": 510.91111458333035,
      "v": 58
    },
    {
      "midi": 53,
      "hit": false,
      "t": 100947.10769791562,
      "d": 500.99051041666826,
      "v": 55
    },
    {
      "midi": 98,
      "hit": false,
      "t": 101740.75603124895,
      "d": 124.00755208331975,
      "v": 63
    },
    {
      "midi": 64,
      "hit": false,
      "t": 101745.71633333228,
      "d": 128.9678541666508,
      "v": 62
    },
    {
      "midi": 59,
      "hit": false,
      "t": 101745.71633333228,
      "d": 143.84876041664393,
      "v": 62
    },
    {
      "midi": 93,
      "hit": false,
      "t": 101750.67663541561,
      "d": 109.12664583332662,
      "v": 61
    },
    {
      "midi": 53,
      "hit": false,
      "t": 101750.67663541561,
      "d": 148.80906249997497,
      "v": 45
    },
    {
      "midi": 86,
      "hit": false,
      "t": 101755.63693749894,
      "d": 128.9678541666508,
      "v": 37
    },
    {
      "midi": 81,
      "hit": false,
      "t": 102216.94503124892,
      "d": 282.7372187499859,
      "v": 54
    },
    {
      "midi": 88,
      "hit": false,
      "t": 102221.90533333225,
      "d": 292.657822916648,
      "v": 57
    },
    {
      "midi": 93,
      "hit": false,
      "t": 102221.90533333225,
      "d": 302.5784270833101,
      "v": 57
    },
    {
      "midi": 59,
      "hit": false,
      "t": 102226.86563541558,
      "d": 302.5784270833101,
      "v": 58
    },
    {
      "midi": 64,
      "hit": false,
      "t": 102231.82593749891,
      "d": 307.53872916664113,
      "v": 59
    },
    {
      "midi": 53,
      "hit": false,
      "t": 102231.82593749891,
      "d": 426.5859791666444,
      "v": 49
    },
    {
      "midi": 58,
      "hit": false,
      "t": 102856.82399999889,
      "d": 148.80906249997497,
      "v": 43
    },
    {
      "midi": 96,
      "hit": false,
      "t": 102861.78430208222,
      "d": 143.84876041664393,
      "v": 71
    },
    {
      "midi": 53,
      "hit": false,
      "t": 102861.78430208222,
      "d": 153.76936458330601,
      "v": 32
    },
    {
      "midi": 57,
      "hit": false,
      "t": 102866.74460416555,
      "d": 128.9678541666508,
      "v": 42
    },
    {
      "midi": 62,
      "hit": false,
      "t": 102866.74460416555,
      "d": 128.9678541666508,
      "v": 35
    },
    {
      "midi": 84,
      "hit": false,
      "t": 102871.70490624888,
      "d": 133.92815624998184,
      "v": 51
    },
    {
      "midi": 89,
      "hit": false,
      "t": 102881.62551041554,
      "d": 99.20604166666453,
      "v": 40
    },
    {
      "midi": 93,
      "hit": false,
      "t": 102881.62551041554,
      "d": 104.16634374999558,
      "v": 44
    },
    {
      "midi": 81,
      "hit": false,
      "t": 103347.89390624886,
      "d": 104.16634374998102,
      "v": 44
    },
    {
      "midi": 93,
      "hit": false,
      "t": 103347.89390624886,
      "d": 148.80906249997497,
      "v": 44
    },
    {
      "midi": 62,
      "hit": false,
      "t": 103352.8542083322,
      "d": 109.12664583331207,
      "v": 51
    },
    {
      "midi": 86,
      "hit": false,
      "t": 103357.81451041553,
      "d": 104.16634374998102,
      "v": 46
    },
    {
      "midi": 58,
      "hit": false,
      "t": 103357.81451041553,
      "d": 109.12664583331207,
      "v": 39
    },
    {
      "midi": 89,
      "hit": false,
      "t": 103357.81451041553,
      "d": 109.12664583331207,
      "v": 42
    },
    {
      "midi": 53,
      "hit": false,
      "t": 103362.77481249886,
      "d": 59.52362499998708,
      "v": 35
    },
    {
      "midi": 57,
      "hit": false,
      "t": 103372.69541666552,
      "d": 44.642718749993946,
      "v": 37
    },
    {
      "midi": 96,
      "hit": false,
      "t": 103824.08290624885,
      "d": 143.84876041665848,
      "v": 83
    },
    {
      "midi": 58,
      "hit": false,
      "t": 103829.04320833218,
      "d": 228.17389583331533,
      "v": 67
    },
    {
      "midi": 69,
      "hit": false,
      "t": 103829.04320833218,
      "d": 233.13419791664637,
      "v": 73
    },
    {
      "midi": 91,
      "hit": false,
      "t": 103834.00351041551,
      "d": 148.80906249998952,
      "v": 70
    },
    {
      "midi": 84,
      "hit": false,
      "t": 103834.00351041551,
      "d": 183.53117708332138,
      "v": 76
    },
    {
      "midi": 64,
      "hit": false,
      "t": 103834.00351041551,
      "d": 198.4120833333145,
      "v": 68
    },
    {
      "midi": 69,
      "hit": false,
      "t": 104285.39099999882,
      "d": 64.48392708333267,
      "v": 55
    },
    {
      "midi": 58,
      "hit": false,
      "t": 104285.39099999882,
      "d": 114.08694791667222,
      "v": 53
    },
    {
      "midi": 64,
      "hit": false,
      "t": 104290.35130208216,
      "d": 49.60302083333954,
      "v": 48
    },
    {
      "midi": 88,
      "hit": false,
      "t": 104290.35130208216,
      "d": 104.16634375001013,
      "v": 53
    },
    {
      "midi": 81,
      "hit": false,
      "t": 104295.31160416549,
      "d": 74.40453125000931,
      "v": 47
    },
    {
      "midi": 93,
      "hit": false,
      "t": 104295.31160416549,
      "d": 109.12664583334117,
      "v": 51
    },
    {
      "midi": 61,
      "hit": false,
      "t": 104736.77848958215,
      "d": 322.4196354166488,
      "v": 59
    },
    {
      "midi": 96,
      "hit": false,
      "t": 104741.73879166548,
      "d": 243.054802083323,
      "v": 83
    },
    {
      "midi": 60,
      "hit": false,
      "t": 104741.73879166548,
      "d": 282.7372187499859,
      "v": 66
    },
    {
      "midi": 84,
      "hit": false,
      "t": 104741.73879166548,
      "d": 282.7372187499859,
      "v": 81
    },
    {
      "midi": 65,
      "hit": false,
      "t": 104741.73879166548,
      "d": 287.69752083331696,
      "v": 78
    },
    {
      "midi": 89,
      "hit": false,
      "t": 104751.65939583215,
      "d": 228.17389583332988,
      "v": 66
    },
    {
      "midi": 93,
      "hit": false,
      "t": 104751.65939583215,
      "d": 228.17389583332988,
      "v": 72
    },
    {
      "midi": 55,
      "hit": false,
      "t": 104751.65939583215,
      "d": 277.77691666665487,
      "v": 68
    },
    {
      "midi": 60,
      "hit": false,
      "t": 105212.96748958212,
      "d": 153.76936458329146,
      "v": 44
    },
    {
      "midi": 93,
      "hit": false,
      "t": 105217.92779166545,
      "d": 114.08694791662856,
      "v": 54
    },
    {
      "midi": 65,
      "hit": false,
      "t": 105217.92779166545,
      "d": 148.80906249996042,
      "v": 54
    },
    {
      "midi": 61,
      "hit": false,
      "t": 105217.92779166545,
      "d": 168.65027083329915,
      "v": 36
    },
    {
      "midi": 55,
      "hit": false,
      "t": 105232.80869791545,
      "d": 163.6899687499681,
      "v": 52
    },
    {
      "midi": 86,
      "hit": false,
      "t": 105237.76899999878,
      "d": 69.44422916664917,
      "v": 27
    },
    {
      "midi": 89,
      "hit": false,
      "t": 105242.72930208211,
      "d": 74.40453124998021,
      "v": 35
    },
    {
      "midi": 81,
      "hit": false,
      "t": 105262.57051041543,
      "d": 34.72211458333186,
      "v": 24
    },
    {
      "midi": 60,
      "hit": false,
      "t": 105560.18863541541,
      "d": 510.9111145833158,
      "v": 65
    },
    {
      "midi": 54,
      "hit": false,
      "t": 105560.18863541541,
      "d": 520.8317187499779,
      "v": 62
    },
    {
      "midi": 98,
      "hit": false,
      "t": 105565.14893749874,
      "d": 29.761812499986263,
      "v": 51
    },
    {
      "midi": 96,
      "hit": false,
      "t": 105570.10923958207,
      "d": 446.4271874999831,
      "v": 50
    },
    {
      "midi": 64,
      "hit": false,
      "t": 105570.10923958207,
      "d": 505.95081249998475,
      "v": 66
    },
    {
      "midi": 84,
      "hit": false,
      "t": 105575.0695416654,
      "d": 446.4271874999831,
      "v": 37
    },
    {
      "midi": 89,
      "hit": false,
      "t": 105589.9504479154,
      "d": 461.3080937499908,
      "v": 31
    },
    {
      "midi": 93,
      "hit": false,
      "t": 105599.87105208206,
      "d": 431.54628124999,
      "v": 33
    },
    {
      "midi": 88,
      "hit": false,
      "t": 106180.22639583205,
      "d": 99.20604166666453,
      "v": 41
    },
    {
      "midi": 64,
      "hit": false,
      "t": 106180.22639583205,
      "d": 158.72966666666616,
      "v": 36
    },
    {
      "midi": 54,
      "hit": false,
      "t": 106185.18669791539,
      "d": 208.3326875000057,
      "v": 39
    },
    {
      "midi": 81,
      "hit": false,
      "t": 106190.14699999872,
      "d": 64.48392708333267,
      "v": 37
    },
    {
      "midi": 93,
      "hit": false,
      "t": 106195.10730208205,
      "d": 104.16634375001013,
      "v": 31
    },
    {
      "midi": 60,
      "hit": false,
      "t": 106195.10730208205,
      "d": 114.08694791667222,
      "v": 35
    },
    {
      "midi": 84,
      "hit": false,
      "t": 106666.33599999873,
      "d": 84.32513541665685,
      "v": 45
    },
    {
      "midi": 91,
      "hit": false,
      "t": 106671.29630208206,
      "d": 64.48392708333267,
      "v": 39
    },
    {
      "midi": 64,
      "hit": false,
      "t": 106671.29630208206,
      "d": 84.32513541665685,
      "v": 55
    },
    {
      "midi": 96,
      "hit": false,
      "t": 106676.25660416539,
      "d": 39.6824166666629,
      "v": 36
    },
    {
      "midi": 59,
      "hit": false,
      "t": 106676.25660416539,
      "d": 89.28543749998789,
      "v": 45
    },
    {
      "midi": 76,
      "hit": false,
      "t": 107445.10342708205,
      "d": 243.054802083323,
      "v": 76
    },
    {
      "midi": 65,
      "hit": false,
      "t": 107450.06372916538,
      "d": 233.13419791666092,
      "v": 74
    },
    {
      "midi": 69,
      "hit": false,
      "t": 107450.06372916538,
      "d": 238.09449999999197,
      "v": 74
    },
    {
      "midi": 62,
      "hit": false,
      "t": 107455.02403124871,
      "d": 49.60302083332499,
      "v": 74
    },
    {
      "midi": 71,
      "hit": false,
      "t": 107455.02403124871,
      "d": 248.01510416665406,
      "v": 61
    },
    {
      "midi": 64,
      "hit": false,
      "t": 107455.02403124871,
      "d": 257.93570833331614,
      "v": 78
    },
    {
      "midi": 76,
      "hit": false,
      "t": 107762.56276041536,
      "d": 277.7769166666403,
      "v": 63
    },
    {
      "midi": 69,
      "hit": false,
      "t": 107767.52306249869,
      "d": 203.3723854166601,
      "v": 60
    },
    {
      "midi": 71,
      "hit": false,
      "t": 107767.52306249869,
      "d": 228.17389583331533,
      "v": 57
    },
    {
      "midi": 64,
      "hit": false,
      "t": 107767.52306249869,
      "d": 302.5784270833101,
      "v": 70
    },
    {
      "midi": 65,
      "hit": false,
      "t": 107772.48336458202,
      "d": 213.2929895833222,
      "v": 48
    },
    {
      "midi": 74,
      "hit": false,
      "t": 108099.863302082,
      "d": 178.57087499999034,
      "v": 49
    },
    {
      "midi": 62,
      "hit": false,
      "t": 108104.82360416533,
      "d": 143.84876041665848,
      "v": 51
    },
    {
      "midi": 65,
      "hit": false,
      "t": 108104.82360416533,
      "d": 188.49147916665243,
      "v": 52
    },
    {
      "midi": 71,
      "hit": false,
      "t": 108114.74420833199,
      "d": 168.65027083332825,
      "v": 40
    },
    {
      "midi": 69,
      "hit": false,
      "t": 108114.74420833199,
      "d": 178.57087499999034,
      "v": 46
    },
    {
      "midi": 59,
      "hit": false,
      "t": 108571.09199999865,
      "d": 39.6824166666629,
      "v": 32
    },
    {
      "midi": 60,
      "hit": false,
      "t": 108576.05230208198,
      "d": 84.32513541665685,
      "v": 58
    },
    {
      "midi": 62,
      "hit": false,
      "t": 108585.97290624864,
      "d": 59.52362500000163,
      "v": 49
    },
    {
      "midi": 65,
      "hit": false,
      "t": 108585.97290624864,
      "d": 64.48392708333267,
      "v": 49
    },
    {
      "midi": 72,
      "hit": false,
      "t": 108585.97290624864,
      "d": 99.20604166664998,
      "v": 47
    },
    {
      "midi": 69,
      "hit": false,
      "t": 108590.93320833198,
      "d": 84.32513541665685,
      "v": 44
    },
    {
      "midi": 86,
      "hit": false,
      "t": 109473.8669791653,
      "d": 555.5538333333243,
      "v": 43
    },
    {
      "midi": 74,
      "hit": false,
      "t": 109483.78758333196,
      "d": 565.4744375000009,
      "v": 48
    },
    {
      "midi": 64,
      "hit": false,
      "t": 109488.74788541529,
      "d": 580.3553437499941,
      "v": 49
    },
    {
      "midi": 54,
      "hit": false,
      "t": 109488.74788541529,
      "d": 634.9186666666646,
      "v": 49
    },
    {
      "midi": 81,
      "hit": false,
      "t": 109493.70818749862,
      "d": 560.5141354166699,
      "v": 35
    },
    {
      "midi": 60,
      "hit": false,
      "t": 109493.70818749862,
      "d": 565.4744375000009,
      "v": 38
    },
    {
      "midi": 78,
      "hit": false,
      "t": 109493.70818749862,
      "d": 575.395041666663,
      "v": 36
    },
    {
      "midi": 82,
      "hit": false,
      "t": 110416.32437499861,
      "d": 545.6332291666331,
      "v": 55
    },
    {
      "midi": 70,
      "hit": false,
      "t": 110426.24497916528,
      "d": 471.2286979166529,
      "v": 48
    },
    {
      "midi": 62,
      "hit": false,
      "t": 110436.16558333194,
      "d": 456.34779166665976,
      "v": 36
    },
    {
      "midi": 77,
      "hit": false,
      "t": 110436.16558333194,
      "d": 466.26839583332185,
      "v": 53
    },
    {
      "midi": 55,
      "hit": false,
      "t": 110436.16558333194,
      "d": 510.9111145833158,
      "v": 43
    },
    {
      "midi": 58,
      "hit": false,
      "t": 110441.12588541527,
      "d": 491.0699062499916,
      "v": 37
    },
    {
      "midi": 57,
      "hit": false,
      "t": 110446.0861874986,
      "d": 451.3874895833287,
      "v": 38
    },
    {
      "midi": 58,
      "hit": false,
      "t": 111388.54358333192,
      "d": 64.48392708331812,
      "v": 38
    },
    {
      "midi": 62,
      "hit": false,
      "t": 111388.54358333192,
      "d": 64.48392708331812,
      "v": 51
    },
    {
      "midi": 79,
      "hit": false,
      "t": 111393.50388541525,
      "d": 64.48392708331812,
      "v": 60
    },
    {
      "midi": 84,
      "hit": false,
      "t": 111393.50388541525,
      "d": 69.44422916664917,
      "v": 69
    },
    {
      "midi": 72,
      "hit": false,
      "t": 111398.46418749858,
      "d": 44.642718749993946,
      "v": 49
    },
    {
      "midi": 52,
      "hit": false,
      "t": 111403.42448958191,
      "d": 34.72211458333186,
      "v": 42
    },
    {
      "midi": 70,
      "hit": false,
      "t": 111859.77228124856,
      "d": 257.93570833331614,
      "v": 71
    },
    {
      "midi": 82,
      "hit": false,
      "t": 111859.77228124856,
      "d": 262.8960104166472,
      "v": 71
    },
    {
      "midi": 58,
      "hit": false,
      "t": 111864.73258333189,
      "d": 193.45178124998347,
      "v": 52
    },
    {
      "midi": 62,
      "hit": false,
      "t": 111879.61348958188,
      "d": 257.93570833331614,
      "v": 57
    },
    {
      "midi": 52,
      "hit": false,
      "t": 111884.57379166521,
      "d": 138.88845833332743,
      "v": 50
    },
    {
      "midi": 65,
      "hit": false,
      "t": 112340.92158333187,
      "d": 624.998062499988,
      "v": 53
    },
    {
      "midi": 77,
      "hit": false,
      "t": 112350.84218749854,
      "d": 496.03020833332266,
      "v": 53
    },
    {
      "midi": 69,
      "hit": false,
      "t": 112355.80248958187,
      "d": 431.54628124999,
      "v": 53
    },
    {
      "midi": 81,
      "hit": false,
      "t": 112355.80248958187,
      "d": 520.8317187499924,
      "v": 52
    },
    {
      "midi": 60,
      "hit": false,
      "t": 112360.7627916652,
      "d": 639.8789687499957,
      "v": 43
    },
    {
      "midi": 61,
      "hit": false,
      "t": 112360.7627916652,
      "d": 753.9659166666679,
      "v": 38
    },
    {
      "midi": 55,
      "hit": false,
      "t": 112370.68339583186,
      "d": 664.6804791666655,
      "v": 43
    },
    {
      "midi": 84,
      "hit": false,
      "t": 113318.10109374854,
      "d": 476.18899999998393,
      "v": 74
    },
    {
      "midi": 72,
      "hit": false,
      "t": 113323.06139583187,
      "d": 525.7920208333089,
      "v": 54
    },
    {
      "midi": 60,
      "hit": false,
      "t": 113328.0216979152,
      "d": 476.18899999998393,
      "v": 51
    },
    {
      "midi": 64,
      "hit": false,
      "t": 113328.0216979152,
      "d": 481.149302083315,
      "v": 58
    },
    {
      "midi": 81,
      "hit": false,
      "t": 113328.0216979152,
      "d": 510.9111145833158,
      "v": 54
    },
    {
      "midi": 54,
      "hit": false,
      "t": 113332.98199999853,
      "d": 515.8714166666468,
      "v": 46
    },
    {
      "midi": 77,
      "hit": false,
      "t": 113337.94230208186,
      "d": 510.9111145833158,
      "v": 48
    },
    {
      "midi": 65,
      "hit": false,
      "t": 114265.51879166518,
      "d": 69.44422916664917,
      "v": 53
    },
    {
      "midi": 79,
      "hit": false,
      "t": 114265.51879166518,
      "d": 128.9678541666508,
      "v": 56
    },
    {
      "midi": 62,
      "hit": false,
      "t": 114270.47909374851,
      "d": 59.52362499998708,
      "v": 50
    },
    {
      "midi": 74,
      "hit": false,
      "t": 114270.47909374851,
      "d": 89.28543749998789,
      "v": 65
    },
    {
      "midi": 67,
      "hit": false,
      "t": 114275.43939583184,
      "d": 59.52362499998708,
      "v": 49
    },
    {
      "midi": 60,
      "hit": false,
      "t": 114280.39969791517,
      "d": 44.642718749993946,
      "v": 43
    },
    {
      "midi": 86,
      "hit": false,
      "t": 115064.12742708182,
      "d": 54.563322916656034,
      "v": 74
    },
    {
      "midi": 56,
      "hit": false,
      "t": 115064.12742708182,
      "d": 64.48392708331812,
      "v": 62
    },
    {
      "midi": 59,
      "hit": false,
      "t": 115069.08772916516,
      "d": 34.72211458333186,
      "v": 69
    },
    {
      "midi": 74,
      "hit": false,
      "t": 115069.08772916516,
      "d": 34.72211458333186,
      "v": 81
    },
    {
      "midi": 83,
      "hit": false,
      "t": 115069.08772916516,
      "d": 34.72211458333186,
      "v": 73
    },
    {
      "midi": 62,
      "hit": false,
      "t": 115069.08772916516,
      "d": 39.6824166666629,
      "v": 73
    },
    {
      "midi": 80,
      "hit": false,
      "t": 115069.08772916516,
      "d": 44.642718749993946,
      "v": 60
    },
    {
      "midi": 53,
      "hit": false,
      "t": 115079.00833333182,
      "d": 34.72211458333186,
      "v": 53
    },
    {
      "midi": 83,
      "hit": false,
      "t": 115336.94404166515,
      "d": 99.20604166664998,
      "v": 74
    },
    {
      "midi": 71,
      "hit": false,
      "t": 115351.82494791514,
      "d": 104.16634374999558,
      "v": 58
    },
    {
      "midi": 62,
      "hit": false,
      "t": 115351.82494791514,
      "d": 128.96785416666535,
      "v": 71
    },
    {
      "midi": 56,
      "hit": false,
      "t": 115351.82494791514,
      "d": 163.6899687499972,
      "v": 51
    },
    {
      "midi": 59,
      "hit": false,
      "t": 115356.78524999847,
      "d": 143.84876041667303,
      "v": 58
    },
    {
      "midi": 53,
      "hit": false,
      "t": 115361.7455520818,
      "d": 143.84876041667303,
      "v": 53
    },
    {
      "midi": 80,
      "hit": false,
      "t": 115669.28428124847,
      "d": 163.68996874998265,
      "v": 52
    },
    {
      "midi": 68,
      "hit": false,
      "t": 115684.16518749847,
      "d": 109.12664583332662,
      "v": 37
    },
    {
      "midi": 75,
      "hit": false,
      "t": 115684.16518749847,
      "d": 119.04724999998871,
      "v": 40
    },
    {
      "midi": 62,
      "hit": false,
      "t": 115689.1254895818,
      "d": 34.72211458333186,
      "v": 41
    },
    {
      "midi": 56,
      "hit": false,
      "t": 115689.1254895818,
      "d": 74.40453124999476,
      "v": 28
    },
    {
      "midi": 59,
      "hit": false,
      "t": 115694.08579166513,
      "d": 34.72211458333186,
      "v": 42
    },
    {
      "midi": 53,
      "hit": false,
      "t": 115718.8873020818,
      "d": 49.60302083332499,
      "v": 19
    },
    {
      "midi": 81,
      "hit": false,
      "t": 115991.70391666512,
      "d": 119.04724999998871,
      "v": 71
    },
    {
      "midi": 77,
      "hit": false,
      "t": 115991.70391666512,
      "d": 124.00755208331975,
      "v": 68
    },
    {
      "midi": 69,
      "hit": false,
      "t": 115996.66421874845,
      "d": 143.84876041664393,
      "v": 68
    },
    {
      "midi": 57,
      "hit": false,
      "t": 116011.54512499845,
      "d": 1001.9810208333074,
      "v": 57
    },
    {
      "midi": 79,
      "hit": false,
      "t": 116036.34663541512,
      "d": 89.28543749998789,
      "v": 31
    },
    {
      "midi": 65,
      "hit": false,
      "t": 116467.89291666509,
      "d": 525.792020833338,
      "v": 72
    },
    {
      "midi": 69,
      "hit": false,
      "t": 116472.85321874842,
      "d": 535.7126250000001,
      "v": 62
    },
    {
      "midi": 72,
      "hit": false,
      "t": 116472.85321874842,
      "d": 595.2362500000017,
      "v": 69
    },
    {
      "midi": 60,
      "hit": false,
      "t": 116477.81352083175,
      "d": 491.06990625000617,
      "v": 66
    },
    {
      "midi": 48,
      "hit": false,
      "t": 116482.77382291509,
      "d": 1185.512197916687,
      "v": 65
    },
    {
      "midi": 60,
      "hit": false,
      "t": 117107.7718854151,
      "d": 84.3251354166714,
      "v": 48
    },
    {
      "midi": 57,
      "hit": false,
      "t": 117107.7718854151,
      "d": 89.28543750000244,
      "v": 34
    },
    {
      "midi": 69,
      "hit": false,
      "t": 117107.7718854151,
      "d": 109.12664583334117,
      "v": 45
    },
    {
      "midi": 65,
      "hit": false,
      "t": 117117.69248958176,
      "d": 49.60302083333954,
      "v": 36
    },
    {
      "midi": 65,
      "hit": false,
      "t": 117574.04028124844,
      "d": 163.6899687499972,
      "v": 57
    },
    {
      "midi": 60,
      "hit": false,
      "t": 117579.00058333177,
      "d": 104.16634374999558,
      "v": 49
    },
    {
      "midi": 57,
      "hit": false,
      "t": 117598.84179166511,
      "d": 119.04724999998871,
      "v": 37
    },
    {
      "midi": 65,
      "hit": false,
      "t": 118050.22928124844,
      "d": 580.3553437499941,
      "v": 80
    },
    {
      "midi": 62,
      "hit": false,
      "t": 118055.18958333177,
      "d": 570.434739583332,
      "v": 56
    },
    {
      "midi": 69,
      "hit": false,
      "t": 118055.18958333177,
      "d": 590.2759479166562,
      "v": 73
    },
    {
      "midi": 72,
      "hit": false,
      "t": 118055.18958333177,
      "d": 669.6407812499965,
      "v": 74
    },
    {
      "midi": 58,
      "hit": false,
      "t": 118060.1498854151,
      "d": 575.395041666663,
      "v": 46
    },
    {
      "midi": 60,
      "hit": false,
      "t": 118075.03079166509,
      "d": 496.0302083333372,
      "v": 44
    },
    {
      "midi": 72,
      "hit": false,
      "t": 118878.5997291651,
      "d": 639.8789687499957,
      "v": 69
    },
    {
      "midi": 68,
      "hit": false,
      "t": 118878.5997291651,
      "d": 739.0850104166602,
      "v": 71
    },
    {
      "midi": 64,
      "hit": false,
      "t": 118883.56003124843,
      "d": 500.9905104166537,
      "v": 77
    },
    {
      "midi": 58,
      "hit": false,
      "t": 118893.4806354151,
      "d": 605.1568541666638,
      "v": 49
    },
    {
      "midi": 61,
      "hit": false,
      "t": 118898.44093749842,
      "d": 565.4744375000009,
      "v": 52
    },
    {
      "midi": 72,
      "hit": false,
      "t": 119830.97772916508,
      "d": 213.2929895833222,
      "v": 74
    },
    {
      "midi": 57,
      "hit": false,
      "t": 119835.93803124841,
      "d": 193.45178124999802,
      "v": 68
    },
    {
      "midi": 67,
      "hit": false,
      "t": 119835.93803124841,
      "d": 208.33268749999115,
      "v": 81
    },
    {
      "midi": 62,
      "hit": false,
      "t": 119840.89833333174,
      "d": 213.2929895833222,
      "v": 77
    },
    {
      "midi": 57,
      "hit": false,
      "t": 120327.0079374984,
      "d": 505.95081249998475,
      "v": 64
    },
    {
      "midi": 62,
      "hit": false,
      "t": 120336.92854166507,
      "d": 496.03020833332266,
      "v": 57
    },
    {
      "midi": 65,
      "hit": false,
      "t": 120336.92854166507,
      "d": 515.8714166666468,
      "v": 52
    },
    {
      "midi": 48,
      "hit": false,
      "t": 120341.8888437484,
      "d": 515.8714166666468,
      "v": 54
    },
    {
      "midi": 47,
      "hit": false,
      "t": 120346.84914583173,
      "d": 29.761812500000815,
      "v": 46
    },
    {
      "midi": 60,
      "hit": false,
      "t": 120346.84914583173,
      "d": 496.03020833332266,
      "v": 46
    },
    {
      "midi": 59,
      "hit": false,
      "t": 120356.76974999839,
      "d": 24.80151041666977,
      "v": 54
    },
    {
      "midi": 57,
      "hit": false,
      "t": 120956.96630208171,
      "d": 376.9829583333194,
      "v": 50
    },
    {
      "midi": 65,
      "hit": false,
      "t": 120961.92660416504,
      "d": 674.6010833333276,
      "v": 44
    },
    {
      "midi": 48,
      "hit": false,
      "t": 120961.92660416504,
      "d": 763.88652083333,
      "v": 48
    },
    {
      "midi": 62,
      "hit": false,
      "t": 120966.88690624837,
      "d": 620.037760416657,
      "v": 52
    },
    {
      "midi": 60,
      "hit": false,
      "t": 120966.88690624837,
      "d": 679.5613854166586,
      "v": 55
    },
    {
      "midi": 57,
      "hit": false,
      "t": 121423.23469791503,
      "d": 163.6899687499972,
      "v": 55
    },
    {
      "midi": 42,
      "hit": false,
      "t": 121785.33674999837,
      "d": 89.28543749998789,
      "v": 30
    },
    {
      "midi": 44,
      "hit": false,
      "t": 121854.78097916504,
      "d": 59.52362499998708,
      "v": 35
    },
    {
      "midi": 45,
      "hit": false,
      "t": 121894.4633958317,
      "d": 897.8146770833409,
      "v": 68
    },
    {
      "midi": 64,
      "hit": false,
      "t": 121899.42369791503,
      "d": 639.8789687499957,
      "v": 74
    },
    {
      "midi": 60,
      "hit": false,
      "t": 121899.42369791503,
      "d": 739.0850104166602,
      "v": 71
    },
    {
      "midi": 55,
      "hit": false,
      "t": 121899.42369791503,
      "d": 763.88652083333,
      "v": 81
    },
    {
      "midi": 42,
      "hit": false,
      "t": 122712.9132395817,
      "d": 138.88845833332743,
      "v": 33
    },
    {
      "midi": 63,
      "hit": false,
      "t": 122836.92079166503,
      "d": 843.2513541666704,
      "v": 50
    },
    {
      "midi": 44,
      "hit": false,
      "t": 122836.92079166503,
      "d": 873.0131666666712,
      "v": 43
    },
    {
      "midi": 59,
      "hit": false,
      "t": 122841.88109374836,
      "d": 753.9659166666679,
      "v": 57
    },
    {
      "midi": 54,
      "hit": false,
      "t": 122841.88109374836,
      "d": 813.4895416666695,
      "v": 55
    },
    {
      "midi": 42,
      "hit": false,
      "t": 123615.68821874837,
      "d": 104.16634374999558,
      "v": 33
    },
    {
      "midi": 43,
      "hit": false,
      "t": 123739.69577083169,
      "d": 367.0623541666573,
      "v": 36
    },
    {
      "midi": 62,
      "hit": false,
      "t": 123744.65607291502,
      "d": 84.3251354166714,
      "v": 44
    },
    {
      "midi": 53,
      "hit": false,
      "t": 123749.61637499835,
      "d": 39.682416666677454,
      "v": 36
    },
    {
      "midi": 57,
      "hit": false,
      "t": 123769.45758333169,
      "d": 34.72211458333186,
      "v": 26
    },
    {
      "midi": 31,
      "hit": false,
      "t": 124062.11540624835,
      "d": 59.52362499998708,
      "v": 70
    },
    {
      "midi": 69,
      "hit": false,
      "t": 124568.06621874834,
      "d": 24.80151041665522,
      "v": 74
    },
    {
      "midi": 64,
      "hit": false,
      "t": 124568.06621874834,
      "d": 29.761812499986263,
      "v": 70
    },
    {
      "midi": 74,
      "hit": false,
      "t": 124573.02652083167,
      "d": 44.642718749979394,
      "v": 67
    },
    {
      "midi": 59,
      "hit": false,
      "t": 124587.90742708166,
      "d": 29.761812499986263,
      "v": 48
    },
    {
      "midi": 81,
      "hit": false,
      "t": 124875.60494791498,
      "d": 277.7769166666403,
      "v": 71
    },
    {
      "midi": 64,
      "hit": false,
      "t": 124885.52555208164,
      "d": 203.3723854166601,
      "v": 64
    },
    {
      "midi": 69,
      "hit": false,
      "t": 124885.52555208164,
      "d": 218.25329166665324,
      "v": 58
    },
    {
      "midi": 74,
      "hit": false,
      "t": 124885.52555208164,
      "d": 218.25329166665324,
      "v": 59
    },
    {
      "midi": 59,
      "hit": false,
      "t": 124890.48585416497,
      "d": 223.21359374998428,
      "v": 60
    },
    {
      "midi": 53,
      "hit": false,
      "t": 124900.40645833164,
      "d": 173.61057291667385,
      "v": 36
    },
    {
      "midi": 64,
      "hit": false,
      "t": 125227.78639583163,
      "d": 109.12664583332662,
      "v": 53
    },
    {
      "midi": 59,
      "hit": false,
      "t": 125232.74669791496,
      "d": 109.12664583332662,
      "v": 45
    },
    {
      "midi": 53,
      "hit": false,
      "t": 125242.66730208162,
      "d": 213.29298958333675,
      "v": 33
    },
    {
      "midi": 77,
      "hit": false,
      "t": 125525.40452083162,
      "d": 461.30809374997625,
      "v": 56
    },
    {
      "midi": 65,
      "hit": false,
      "t": 125530.36482291495,
      "d": 332.34023958332546,
      "v": 47
    },
    {
      "midi": 74,
      "hit": false,
      "t": 125530.36482291495,
      "d": 376.9829583333194,
      "v": 56
    },
    {
      "midi": 62,
      "hit": false,
      "t": 125535.32512499829,
      "d": 461.30809374997625,
      "v": 58
    },
    {
      "midi": 58,
      "hit": false,
      "t": 125535.32512499829,
      "d": 505.9508124999702,
      "v": 47
    },
    {
      "midi": 70,
      "hit": false,
      "t": 125540.28542708162,
      "d": 372.02265624998836,
      "v": 47
    },
    {
      "midi": 53,
      "hit": false,
      "t": 125540.28542708162,
      "d": 500.99051041663915,
      "v": 29
    },
    {
      "midi": 57,
      "hit": false,
      "t": 125545.24572916495,
      "d": 505.9508124999702,
      "v": 42
    },
    {
      "midi": 69,
      "hit": false,
      "t": 126666.27399999824,
      "d": 84.32513541665685,
      "v": 40
    },
    {
      "midi": 91,
      "hit": false,
      "t": 126671.23430208158,
      "d": 94.24573958331894,
      "v": 41
    },
    {
      "midi": 64,
      "hit": false,
      "t": 126671.23430208158,
      "d": 99.20604166664998,
      "v": 41
    },
    {
      "midi": 96,
      "hit": false,
      "t": 126671.23430208158,
      "d": 104.16634374998102,
      "v": 56
    },
    {
      "midi": 58,
      "hit": false,
      "t": 126671.23430208158,
      "d": 119.04724999997416,
      "v": 36
    },
    {
      "midi": 84,
      "hit": false,
      "t": 126676.1946041649,
      "d": 74.40453124999476,
      "v": 40
    },
    {
      "midi": 62,
      "hit": false,
      "t": 126681.15490624824,
      "d": 89.28543749998789,
      "v": 38
    },
    {
      "midi": 96,
      "hit": false,
      "t": 127588.89018749823,
      "d": 203.3723854166601,
      "v": 60
    },
    {
      "midi": 84,
      "hit": false,
      "t": 127593.85048958156,
      "d": 188.49147916666698,
      "v": 46
    },
    {
      "midi": 57,
      "hit": false,
      "t": 127598.81079166489,
      "d": 228.17389583332988,
      "v": 36
    },
    {
      "midi": 91,
      "hit": false,
      "t": 127603.77109374822,
      "d": 183.53117708333593,
      "v": 37
    },
    {
      "midi": 62,
      "hit": false,
      "t": 127603.77109374822,
      "d": 208.3326875000057,
      "v": 36
    },
    {
      "midi": 65,
      "hit": false,
      "t": 127608.73139583155,
      "d": 203.37238541667466,
      "v": 35
    },
    {
      "midi": 98,
      "hit": false,
      "t": 128541.26818749821,
      "d": 168.65027083332825,
      "v": 72
    },
    {
      "midi": 62,
      "hit": false,
      "t": 128546.22848958154,
      "d": 198.4120833333145,
      "v": 58
    },
    {
      "midi": 86,
      "hit": false,
      "t": 128551.18879166487,
      "d": 109.12664583332662,
      "v": 65
    },
    {
      "midi": 67,
      "hit": false,
      "t": 128551.18879166487,
      "d": 173.6105729166593,
      "v": 68
    },
    {
      "midi": 56,
      "hit": false,
      "t": 128551.18879166487,
      "d": 183.53117708332138,
      "v": 64
    },
    {
      "midi": 93,
      "hit": false,
      "t": 128561.10939583153,
      "d": 119.04725000000326,
      "v": 60
    },
    {
      "midi": 101,
      "hit": false,
      "t": 128863.68782291486,
      "d": 64.48392708331812,
      "v": 73
    },
    {
      "midi": 89,
      "hit": false,
      "t": 128863.68782291486,
      "d": 74.40453124998021,
      "v": 68
    },
    {
      "midi": 67,
      "hit": false,
      "t": 128868.64812499819,
      "d": 39.6824166666629,
      "v": 63
    },
    {
      "midi": 96,
      "hit": false,
      "t": 128868.64812499819,
      "d": 44.642718749993946,
      "v": 72
    },
    {
      "midi": 56,
      "hit": false,
      "t": 128868.64812499819,
      "d": 69.44422916664917,
      "v": 62
    },
    {
      "midi": 62,
      "hit": false,
      "t": 128873.60842708152,
      "d": 54.563322916656034,
      "v": 58
    },
    {
      "midi": 56,
      "hit": false,
      "t": 129007.5365833315,
      "d": 163.6899687499972,
      "v": 37
    },
    {
      "midi": 67,
      "hit": false,
      "t": 129032.33809374817,
      "d": 84.32513541665685,
      "v": 45
    },
    {
      "midi": 62,
      "hit": false,
      "t": 129037.2983958315,
      "d": 114.08694791665766,
      "v": 54
    },
    {
      "midi": 98,
      "hit": false,
      "t": 129047.21899999816,
      "d": 84.32513541665685,
      "v": 48
    },
    {
      "midi": 93,
      "hit": false,
      "t": 129072.02051041483,
      "d": 39.6824166666629,
      "v": 28
    },
    {
      "midi": 86,
      "hit": false,
      "t": 129086.90141666483,
      "d": 39.6824166666629,
      "v": 15
    },
    {
      "midi": 57,
      "hit": false,
      "t": 129349.7974270815,
      "d": 252.9754062499851,
      "v": 55
    },
    {
      "midi": 65,
      "hit": false,
      "t": 129354.75772916483,
      "d": 248.01510416665406,
      "v": 53
    },
    {
      "midi": 96,
      "hit": false,
      "t": 129359.71803124817,
      "d": 158.7296666666516,
      "v": 61
    },
    {
      "midi": 62,
      "hit": false,
      "t": 129359.71803124817,
      "d": 223.21359374998428,
      "v": 53
    },
    {
      "midi": 91,
      "hit": false,
      "t": 129364.6783333315,
      "d": 183.53117708332138,
      "v": 55
    },
    {
      "midi": 84,
      "hit": false,
      "t": 129364.6783333315,
      "d": 203.3723854166601,
      "v": 53
    },
    {
      "midi": 77,
      "hit": false,
      "t": 129835.90703124815,
      "d": 352.18144791664963,
      "v": 56
    },
    {
      "midi": 89,
      "hit": false,
      "t": 129835.90703124815,
      "d": 381.9432604166359,
      "v": 58
    },
    {
      "midi": 84,
      "hit": false,
      "t": 129845.82763541481,
      "d": 357.1417499999807,
      "v": 60
    },
    {
      "midi": 57,
      "hit": false,
      "t": 129850.78793749814,
      "d": 342.26084374998754,
      "v": 58
    },
    {
      "midi": 65,
      "hit": false,
      "t": 129855.74823958147,
      "d": 287.6975208333315,
      "v": 58
    },
    {
      "midi": 62,
      "hit": false,
      "t": 129860.7085416648,
      "d": 277.7769166666694,
      "v": 49
    },
    {
      "midi": 98,
      "hit": false,
      "t": 130783.32472916477,
      "d": 104.16634374998102,
      "v": 80
    },
    {
      "midi": 94,
      "hit": false,
      "t": 130788.2850312481,
      "d": 79.3648333333258,
      "v": 73
    },
    {
      "midi": 89,
      "hit": false,
      "t": 130788.2850312481,
      "d": 94.24573958331894,
      "v": 80
    },
    {
      "midi": 65,
      "hit": false,
      "t": 130793.24533333143,
      "d": 99.20604166664998,
      "v": 76
    },
    {
      "midi": 58,
      "hit": false,
      "t": 130793.24533333143,
      "d": 124.0075520833052,
      "v": 55
    },
    {
      "midi": 54,
      "hit": false,
      "t": 130798.20563541476,
      "d": 114.08694791664311,
      "v": 53
    },
    {
      "midi": 60,
      "hit": false,
      "t": 130803.1659374981,
      "d": 104.16634374998102,
      "v": 58
    },
    {
      "midi": 94,
      "hit": false,
      "t": 131075.9825520814,
      "d": 79.36483333335491,
      "v": 65
    },
    {
      "midi": 86,
      "hit": false,
      "t": 131085.90315624807,
      "d": 89.285437500017,
      "v": 55
    },
    {
      "midi": 65,
      "hit": false,
      "t": 131085.90315624807,
      "d": 208.33268750002026,
      "v": 65
    },
    {
      "midi": 54,
      "hit": false,
      "t": 131085.90315624807,
      "d": 282.73721875002957,
      "v": 60
    },
    {
      "midi": 89,
      "hit": false,
      "t": 131090.8634583314,
      "d": 39.682416666677454,
      "v": 56
    },
    {
      "midi": 60,
      "hit": false,
      "t": 131090.8634583314,
      "d": 213.29298958333675,
      "v": 55
    },
    {
      "midi": 58,
      "hit": false,
      "t": 131090.8634583314,
      "d": 277.776916666684,
      "v": 48
    },
    {
      "midi": 64,
      "hit": false,
      "t": 131418.2433958314,
      "d": 491.0699062500207,
      "v": 60
    },
    {
      "midi": 91,
      "hit": false,
      "t": 131428.16399999807,
      "d": 367.06235416670097,
      "v": 50
    },
    {
      "midi": 59,
      "hit": false,
      "t": 131433.1243020814,
      "d": 505.9508124999993,
      "v": 56
    },
    {
      "midi": 53,
      "hit": false,
      "t": 131433.1243020814,
      "d": 585.3156458333251,
      "v": 47
    },
    {
      "midi": 86,
      "hit": false,
      "t": 131448.00520833142,
      "d": 396.82416666668723,
      "v": 26
    },
    {
      "midi": 79,
      "hit": false,
      "t": 131448.00520833142,
      "d": 431.5462812500191,
      "v": 19
    },
    {
      "midi": 50,
      "hit": false,
      "t": 132638.4777083314,
      "d": 54.563322916656034,
      "v": 50
    },
    {
      "midi": 64,
      "hit": false,
      "t": 132668.23952083138,
      "d": 143.84876041670213,
      "v": 53
    },
    {
      "midi": 53,
      "hit": false,
      "t": 132678.16012499804,
      "d": 114.08694791668677,
      "v": 40
    },
    {
      "midi": 57,
      "hit": false,
      "t": 132683.1204270814,
      "d": 119.04725000000326,
      "v": 51
    },
    {
      "midi": 60,
      "hit": false,
      "t": 132683.1204270814,
      "d": 124.00755208334886,
      "v": 44
    },
    {
      "midi": 52,
      "hit": false,
      "t": 132698.0013333314,
      "d": 128.96785416669445,
      "v": 55
    },
    {
      "midi": 50,
      "hit": false,
      "t": 132846.81039583142,
      "d": 292.65782291666255,
      "v": 45
    },
    {
      "midi": 64,
      "hit": false,
      "t": 133149.38882291474,
      "d": 69.44422916669282,
      "v": 54
    },
    {
      "midi": 52,
      "hit": false,
      "t": 133154.3491249981,
      "d": 119.04725000000326,
      "v": 58
    },
    {
      "midi": 60,
      "hit": false,
      "t": 133179.15063541476,
      "d": 24.80151041666977,
      "v": 25
    },
    {
      "midi": 53,
      "hit": false,
      "t": 133194.03154166476,
      "d": 54.563322916656034,
      "v": 13
    },
    {
      "midi": 51,
      "hit": false,
      "t": 133298.19788541476,
      "d": 54.56332291668514,
      "v": 27
    },
    {
      "midi": 55,
      "hit": false,
      "t": 133347.8009062481,
      "d": 317.4593333333323,
      "v": 56
    },
    {
      "midi": 65,
      "hit": false,
      "t": 133347.8009062481,
      "d": 436.5065833333356,
      "v": 57
    },
    {
      "midi": 62,
      "hit": false,
      "t": 133352.76120833145,
      "d": 322.4196354166488,
      "v": 55
    },
    {
      "midi": 58,
      "hit": false,
      "t": 133352.76120833145,
      "d": 347.2211458333186,
      "v": 37
    },
    {
      "midi": 53,
      "hit": false,
      "t": 133362.6818124981,
      "d": 456.34779166665976,
      "v": 45
    },
    {
      "midi": 58,
      "hit": false,
      "t": 134096.80652083142,
      "d": 99.20604166670819,
      "v": 52
    },
    {
      "midi": 62,
      "hit": false,
      "t": 134101.76682291477,
      "d": 114.08694791668677,
      "v": 64
    },
    {
      "midi": 50,
      "hit": false,
      "t": 134101.76682291477,
      "d": 153.76936458336422,
      "v": 53
    },
    {
      "midi": 55,
      "hit": false,
      "t": 134106.7271249981,
      "d": 74.40453125000931,
      "v": 62
    },
    {
      "midi": 65,
      "hit": false,
      "t": 134329.94071874814,
      "d": 89.2854375000461,
      "v": 53
    },
    {
      "midi": 62,
      "hit": false,
      "t": 134334.9010208315,
      "d": 69.44422916669282,
      "v": 37
    },
    {
      "midi": 55,
      "hit": false,
      "t": 134334.9010208315,
      "d": 119.04725000003236,
      "v": 47
    },
    {
      "midi": 53,
      "hit": false,
      "t": 134334.9010208315,
      "d": 193.45178125004168,
      "v": 49
    },
    {
      "midi": 58,
      "hit": false,
      "t": 134339.86132291483,
      "d": 128.96785416669445,
      "v": 31
    },
    {
      "midi": 61,
      "hit": false,
      "t": 134612.6779374982,
      "d": 386.90356250005425,
      "v": 48
    },
    {
      "midi": 64,
      "hit": false,
      "t": 134617.63823958155,
      "d": 376.98295833336306,
      "v": 51
    },
    {
      "midi": 55,
      "hit": false,
      "t": 134622.5985416649,
      "d": 312.49903125001583,
      "v": 53
    },
    {
      "midi": 58,
      "hit": false,
      "t": 134622.5985416649,
      "d": 352.1814479166933,
      "v": 49
    },
    {
      "midi": 52,
      "hit": false,
      "t": 134647.40005208156,
      "d": 287.69752083334606,
      "v": 32
    },
    {
      "midi": 65,
      "hit": false,
      "t": 135227.75539583157,
      "d": 59.52362500000163,
      "v": 73
    },
    {
      "midi": 69,
      "hit": false,
      "t": 135227.75539583157,
      "d": 59.52362500000163,
      "v": 75
    },
    {
      "midi": 61,
      "hit": false,
      "t": 135227.75539583157,
      "d": 84.3251354167005,
      "v": 40
    },
    {
      "midi": 60,
      "hit": false,
      "t": 135237.67599999823,
      "d": 59.523625000030734,
      "v": 51
    },
    {
      "midi": 55,
      "hit": false,
      "t": 135252.55690624824,
      "d": 39.682416666677454,
      "v": 35
    },
    {
      "midi": 69,
      "hit": false,
      "t": 135336.88204166494,
      "d": 79.36483333335491,
      "v": 44
    },
    {
      "midi": 65,
      "hit": false,
      "t": 135346.8026458316,
      "d": 69.44422916669282,
      "v": 51
    },
    {
      "midi": 55,
      "hit": false,
      "t": 135356.72324999826,
      "d": 74.40453125003842,
      "v": 24
    },
    {
      "midi": 61,
      "hit": false,
      "t": 135356.72324999826,
      "d": 89.2854375000461,
      "v": 27
    },
    {
      "midi": 60,
      "hit": false,
      "t": 135361.6835520816,
      "d": 39.682416666677454,
      "v": 40
    },
    {
      "midi": 61,
      "hit": false,
      "t": 135674.18258333165,
      "d": 347.2211458333477,
      "v": 50
    },
    {
      "midi": 69,
      "hit": false,
      "t": 135684.10318749835,
      "d": 128.96785416666535,
      "v": 66
    },
    {
      "midi": 65,
      "hit": false,
      "t": 135689.0634895817,
      "d": 99.20604166664998,
      "v": 62
    },
    {
      "midi": 60,
      "hit": false,
      "t": 135689.0634895817,
      "d": 257.9357083333307,
      "v": 53
    },
    {
      "midi": 55,
      "hit": false,
      "t": 135698.98409374835,
      "d": 277.77691666665487,
      "v": 50
    },
    {
      "midi": 54,
      "hit": false,
      "t": 136145.41128124835,
      "d": 99.20604166670819,
      "v": 59
    },
    {
      "midi": 71,
      "hit": false,
      "t": 136150.3715833317,
      "d": 79.36483333335491,
      "v": 65
    },
    {
      "midi": 60,
      "hit": false,
      "t": 136155.33188541504,
      "d": 89.285437500017,
      "v": 62
    },
    {
      "midi": 68,
      "hit": false,
      "t": 136160.2921874984,
      "d": 59.52362500000163,
      "v": 48
    },
    {
      "midi": 64,
      "hit": false,
      "t": 136165.25248958173,
      "d": 54.563322916656034,
      "v": 55
    },
    {
      "midi": 71,
      "hit": false,
      "t": 136299.18064583172,
      "d": 119.04725000003236,
      "v": 38
    },
    {
      "midi": 64,
      "hit": false,
      "t": 136304.14094791506,
      "d": 89.285437500017,
      "v": 48
    },
    {
      "midi": 54,
      "hit": false,
      "t": 136309.1012499984,
      "d": 79.3648333333258,
      "v": 33
    },
    {
      "midi": 68,
      "hit": false,
      "t": 136309.1012499984,
      "d": 89.285437500017,
      "v": 40
    },
    {
      "midi": 60,
      "hit": false,
      "t": 136309.1012499984,
      "d": 99.20604166667908,
      "v": 27
    },
    {
      "midi": 71,
      "hit": false,
      "t": 136621.6002812484,
      "d": 243.05480208335212,
      "v": 64
    },
    {
      "midi": 68,
      "hit": false,
      "t": 136621.6002812484,
      "d": 307.53872916669934,
      "v": 51
    },
    {
      "midi": 64,
      "hit": false,
      "t": 136626.56058333174,
      "d": 198.41208333335817,
      "v": 55
    },
    {
      "midi": 60,
      "hit": false,
      "t": 136631.52088541508,
      "d": 203.37238541667466,
      "v": 59
    },
    {
      "midi": 54,
      "hit": false,
      "t": 136636.48118749843,
      "d": 327.3799374999944,
      "v": 53
    },
    {
      "midi": 64,
      "hit": false,
      "t": 137107.7098854151,
      "d": 69.44422916669282,
      "v": 66
    },
    {
      "midi": 76,
      "hit": false,
      "t": 137107.7098854151,
      "d": 79.36483333335491,
      "v": 66
    },
    {
      "midi": 69,
      "hit": false,
      "t": 137112.67018749844,
      "d": 59.52362500000163,
      "v": 74
    },
    {
      "midi": 59,
      "hit": false,
      "t": 137112.67018749844,
      "d": 74.40453125000931,
      "v": 60
    },
    {
      "midi": 73,
      "hit": false,
      "t": 137112.67018749844,
      "d": 74.40453125000931,
      "v": 50
    },
    {
      "midi": 53,
      "hit": false,
      "t": 137117.6304895818,
      "d": 54.563322916656034,
      "v": 51
    },
    {
      "midi": 76,
      "hit": false,
      "t": 137261.47924999846,
      "d": 89.2854375000752,
      "v": 51
    },
    {
      "midi": 53,
      "hit": false,
      "t": 137266.4395520818,
      "d": 74.40453125003842,
      "v": 27
    },
    {
      "midi": 69,
      "hit": false,
      "t": 137271.39985416515,
      "d": 64.48392708334723,
      "v": 50
    },
    {
      "midi": 73,
      "hit": false,
      "t": 137271.39985416515,
      "d": 79.36483333338401,
      "v": 42
    },
    {
      "midi": 59,
      "hit": false,
      "t": 137276.3601562485,
      "d": 69.44422916669282,
      "v": 50
    },
    {
      "midi": 64,
      "hit": false,
      "t": 137281.32045833184,
      "d": 44.642718749993946,
      "v": 33
    },
    {
      "midi": 73,
      "hit": false,
      "t": 137559.09737499856,
      "d": 223.21359375002794,
      "v": 57
    },
    {
      "midi": 69,
      "hit": false,
      "t": 137564.0576770819,
      "d": 183.53117708335049,
      "v": 68
    },
    {
      "midi": 76,
      "hit": false,
      "t": 137569.01797916525,
      "d": 238.09450000000652,
      "v": 63
    },
    {
      "midi": 53,
      "hit": false,
      "t": 137588.85918749857,
      "d": 198.41208333335817,
      "v": 44
    },
    {
      "midi": 59,
      "hit": false,
      "t": 137598.77979166523,
      "d": 198.41208333335817,
      "v": 39
    },
    {
      "midi": 64,
      "hit": false,
      "t": 137603.74009374858,
      "d": 138.88845833332743,
      "v": 36
    },
    {
      "midi": 74,
      "hit": false,
      "t": 137891.43761458193,
      "d": 560.5141354167426,
      "v": 55
    },
    {
      "midi": 71,
      "hit": false,
      "t": 137896.39791666527,
      "d": 436.5065833333938,
      "v": 55
    },
    {
      "midi": 65,
      "hit": false,
      "t": 137901.35821874862,
      "d": 466.26839583338005,
      "v": 28
    },
    {
      "midi": 62,
      "hit": false,
      "t": 137906.31852083196,
      "d": 416.6653750000405,
      "v": 58
    },
    {
      "midi": 59,
      "hit": false,
      "t": 137911.2788229153,
      "d": 362.1020520833554,
      "v": 51
    },
    {
      "midi": 53,
      "hit": false,
      "t": 137921.199427082,
      "d": 337.3005416666565,
      "v": 44
    },
    {
      "midi": 53,
      "hit": false,
      "t": 138541.2371874987,
      "d": 267.8563125000219,
      "v": 37
    },
    {
      "midi": 65,
      "hit": false,
      "t": 138541.2371874987,
      "d": 287.69752083334606,
      "v": 51
    },
    {
      "midi": 59,
      "hit": false,
      "t": 138546.19748958203,
      "d": 124.00755208334886,
      "v": 35
    },
    {
      "midi": 62,
      "hit": false,
      "t": 138551.15779166538,
      "d": 292.65782291666255,
      "v": 54
    },
    {
      "midi": 71,
      "hit": false,
      "t": 138556.11809374872,
      "d": 287.69752083331696,
      "v": 48
    },
    {
      "midi": 62,
      "hit": false,
      "t": 139022.38648958204,
      "d": 54.56332291668514,
      "v": 40
    },
    {
      "midi": 58,
      "hit": false,
      "t": 139027.3467916654,
      "d": 54.56332291668514,
      "v": 32
    },
    {
      "midi": 64,
      "hit": false,
      "t": 139027.3467916654,
      "d": 54.56332291668514,
      "v": 44
    },
    {
      "midi": 67,
      "hit": false,
      "t": 139037.26739583205,
      "d": 59.523625000030734,
      "v": 44
    },
    {
      "midi": 52,
      "hit": false,
      "t": 139042.2276979154,
      "d": 34.72211458333186,
      "v": 32
    },
    {
      "midi": 62,
      "hit": false,
      "t": 139513.4563958321,
      "d": 59.523625000030734,
      "v": 62
    },
    {
      "midi": 58,
      "hit": false,
      "t": 139513.4563958321,
      "d": 79.36483333335491,
      "v": 53
    },
    {
      "midi": 72,
      "hit": false,
      "t": 139518.41669791544,
      "d": 54.56332291668514,
      "v": 52
    },
    {
      "midi": 84,
      "hit": false,
      "t": 139523.37699999879,
      "d": 79.3648333333258,
      "v": 59
    },
    {
      "midi": 52,
      "hit": false,
      "t": 139533.29760416545,
      "d": 34.72211458333186,
      "v": 36
    },
    {
      "midi": 64,
      "hit": false,
      "t": 139984.6850937488,
      "d": 500.9905104167119,
      "v": 57
    },
    {
      "midi": 54,
      "hit": false,
      "t": 139989.64539583214,
      "d": 550.5935312500224,
      "v": 45
    },
    {
      "midi": 74,
      "hit": false,
      "t": 139994.60569791548,
      "d": 466.26839583335095,
      "v": 66
    },
    {
      "midi": 60,
      "hit": false,
      "t": 139994.60569791548,
      "d": 491.0699062500207,
      "v": 50
    },
    {
      "midi": 86,
      "hit": false,
      "t": 139994.60569791548,
      "d": 535.7126250000147,
      "v": 67
    },
    {
      "midi": 81,
      "hit": false,
      "t": 139999.56599999883,
      "d": 496.0302083333372,
      "v": 57
    },
    {
      "midi": 62,
      "hit": false,
      "t": 140937.06309374882,
      "d": 104.16634375002468,
      "v": 50
    },
    {
      "midi": 82,
      "hit": false,
      "t": 140937.06309374882,
      "d": 114.08694791668677,
      "v": 51
    },
    {
      "midi": 94,
      "hit": false,
      "t": 140942.02339583216,
      "d": 119.04725000000326,
      "v": 64
    },
    {
      "midi": 58,
      "hit": false,
      "t": 140946.9836979155,
      "d": 114.08694791665766,
      "v": 36
    },
    {
      "midi": 87,
      "hit": false,
      "t": 140951.94399999885,
      "d": 69.44422916666372,
      "v": 52
    },
    {
      "midi": 57,
      "hit": false,
      "t": 140951.94399999885,
      "d": 89.28543749998789,
      "v": 50
    },
    {
      "midi": 55,
      "hit": false,
      "t": 140951.94399999885,
      "d": 109.12664583331207,
      "v": 50
    },
    {
      "midi": 58,
      "hit": false,
      "t": 141433.09330208215,
      "d": 282.73721875002957,
      "v": 62
    },
    {
      "midi": 62,
      "hit": false,
      "t": 141438.0536041655,
      "d": 252.9754062499851,
      "v": 73
    },
    {
      "midi": 55,
      "hit": false,
      "t": 141438.0536041655,
      "d": 262.8960104166763,
      "v": 71
    },
    {
      "midi": 82,
      "hit": false,
      "t": 141447.97420833216,
      "d": 223.21359374999884,
      "v": 77
    },
    {
      "midi": 94,
      "hit": false,
      "t": 141452.9345104155,
      "d": 243.054802083323,
      "v": 78
    },
    {
      "midi": 84,
      "hit": false,
      "t": 141765.43354166552,
      "d": 317.4593333333614,
      "v": 71
    },
    {
      "midi": 96,
      "hit": false,
      "t": 141770.39384374887,
      "d": 262.8960104166763,
      "v": 69
    },
    {
      "midi": 58,
      "hit": false,
      "t": 141775.3541458322,
      "d": 292.65782291666255,
      "v": 51
    },
    {
      "midi": 62,
      "hit": false,
      "t": 141775.3541458322,
      "d": 322.4196354166779,
      "v": 54
    },
    {
      "midi": 52,
      "hit": false,
      "t": 141790.23505208222,
      "d": 257.9357083333307,
      "v": 71
    },
    {
      "midi": 60,
      "hit": false,
      "t": 142365.63009374888,
      "d": 74.40453125003842,
      "v": 47
    },
    {
      "midi": 64,
      "hit": false,
      "t": 142370.59039583223,
      "d": 69.44422916669282,
      "v": 66
    },
    {
      "midi": 53,
      "hit": false,
      "t": 142370.59039583223,
      "d": 74.40453125003842,
      "v": 41
    },
    {
      "midi": 57,
      "hit": false,
      "t": 142380.5109999989,
      "d": 74.40453125003842,
      "v": 60
    },
    {
      "midi": 88,
      "hit": false,
      "t": 142385.47130208224,
      "d": 49.60302083333954,
      "v": 57
    },
    {
      "midi": 93,
      "hit": false,
      "t": 142385.47130208224,
      "d": 54.56332291668514,
      "v": 55
    },
    {
      "midi": 81,
      "hit": false,
      "t": 142395.3919062489,
      "d": 44.64271875002305,
      "v": 31
    },
    {
      "midi": 64,
      "hit": false,
      "t": 142841.81909374893,
      "d": 267.8563125000219,
      "v": 69
    },
    {
      "midi": 81,
      "hit": false,
      "t": 142851.7396979156,
      "d": 188.49147916669608,
      "v": 71
    },
    {
      "midi": 93,
      "hit": false,
      "t": 142851.7396979156,
      "d": 218.25329166668234,
      "v": 78
    },
    {
      "midi": 88,
      "hit": false,
      "t": 142851.7396979156,
      "d": 233.13419791669003,
      "v": 74
    },
    {
      "midi": 53,
      "hit": false,
      "t": 142861.66030208228,
      "d": 248.0151041666686,
      "v": 48
    },
    {
      "midi": 60,
      "hit": false,
      "t": 142861.66030208228,
      "d": 248.0151041666686,
      "v": 50
    },
    {
      "midi": 57,
      "hit": false,
      "t": 142861.66030208228,
      "d": 252.9754062500142,
      "v": 46
    },
    {
      "midi": 94,
      "hit": false,
      "t": 143203.9211458323,
      "d": 1121.028270833427,
      "v": 78
    },
    {
      "midi": 88,
      "hit": false,
      "t": 143203.9211458323,
      "d": 1125.9885729167727,
      "v": 72
    },
    {
      "midi": 82,
      "hit": false,
      "t": 143203.9211458323,
      "d": 1145.8297812500969,
      "v": 70
    },
    {
      "midi": 60,
      "hit": false,
      "t": 143208.88144791566,
      "d": 302.57842708335374,
      "v": 62
    },
    {
      "midi": 64,
      "hit": false,
      "t": 143208.88144791566,
      "d": 416.6653750000405,
      "v": 74
    },
    {
      "midi": 57,
      "hit": false,
      "t": 143213.841749999,
      "d": 282.73721875000047,
      "v": 56
    },
    {
      "midi": 53,
      "hit": false,
      "t": 143213.841749999,
      "d": 302.57842708335374,
      "v": 58
    },
    {
      "midi": 65,
      "hit": false,
      "t": 143789.2367916657,
      "d": 530.7523229166982,
      "v": 60
    },
    {
      "midi": 62,
      "hit": false,
      "t": 143799.15739583236,
      "d": 515.8714166666905,
      "v": 42
    },
    {
      "midi": 55,
      "hit": false,
      "t": 143799.15739583236,
      "d": 595.2362500000454,
      "v": 51
    },
    {
      "midi": 60,
      "hit": false,
      "t": 143804.1176979157,
      "d": 535.7126250000438,
      "v": 47
    },
    {
      "midi": 86,
      "hit": false,
      "t": 144746.57509374907,
      "d": 79.36483333335491,
      "v": 61
    },
    {
      "midi": 91,
      "hit": false,
      "t": 144746.57509374907,
      "d": 84.3251354167005,
      "v": 64
    },
    {
      "midi": 58,
      "hit": false,
      "t": 144751.5353958324,
      "d": 64.48392708334723,
      "v": 56
    },
    {
      "midi": 62,
      "hit": false,
      "t": 144761.45599999907,
      "d": 29.761812500015367,
      "v": 60
    },
    {
      "midi": 79,
      "hit": false,
      "t": 144761.45599999907,
      "d": 34.72211458336096,
      "v": 37
    },
    {
      "midi": 52,
      "hit": false,
      "t": 144766.41630208242,
      "d": 29.761812500015367,
      "v": 57
    },
    {
      "midi": 58,
      "hit": false,
      "t": 145222.7640937491,
      "d": 119.04725000000326,
      "v": 57
    },
    {
      "midi": 86,
      "hit": false,
      "t": 145222.7640937491,
      "d": 143.84876041667303,
      "v": 66
    },
    {
      "midi": 79,
      "hit": false,
      "t": 145227.72439583245,
      "d": 104.16634374999558,
      "v": 56
    },
    {
      "midi": 91,
      "hit": false,
      "t": 145227.72439583245,
      "d": 138.88845833332743,
      "v": 66
    },
    {
      "midi": 62,
      "hit": false,
      "t": 145237.64499999915,
      "d": 143.84876041664393,
      "v": 57
    },
    {
      "midi": 52,
      "hit": false,
      "t": 145257.48620833247,
      "d": 44.642718749993946,
      "v": 30
    },
    {
      "midi": 61,
      "hit": false,
      "t": 145684.07218749914,
      "d": 163.6899687500263,
      "v": 57
    },
    {
      "midi": 93,
      "hit": false,
      "t": 145689.0324895825,
      "d": 104.16634375002468,
      "v": 80
    },
    {
      "midi": 55,
      "hit": false,
      "t": 145689.0324895825,
      "d": 124.00755208334886,
      "v": 68
    },
    {
      "midi": 65,
      "hit": false,
      "t": 145689.0324895825,
      "d": 133.92815625001094,
      "v": 67
    },
    {
      "midi": 88,
      "hit": false,
      "t": 145693.99279166583,
      "d": 94.24573958333349,
      "v": 73
    },
    {
      "midi": 81,
      "hit": false,
      "t": 145693.99279166583,
      "d": 128.96785416666535,
      "v": 74
    },
    {
      "midi": 89,
      "hit": false,
      "t": 146031.2933333325,
      "d": 357.1417500000098,
      "v": 62
    },
    {
      "midi": 77,
      "hit": false,
      "t": 146036.25363541584,
      "d": 401.7844687500037,
      "v": 55
    },
    {
      "midi": 84,
      "hit": false,
      "t": 146036.25363541584,
      "d": 411.7050729166658,
      "v": 67
    },
    {
      "midi": 65,
      "hit": false,
      "t": 146046.1742395825,
      "d": 248.0151041666686,
      "v": 65
    },
    {
      "midi": 61,
      "hit": false,
      "t": 146051.13454166584,
      "d": 277.77691666665487,
      "v": 51
    },
    {
      "midi": 55,
      "hit": false,
      "t": 146051.13454166584,
      "d": 282.73721875000047,
      "v": 68
    },
    {
      "midi": 88,
      "hit": false,
      "t": 146616.60897916585,
      "d": 79.36483333335491,
      "v": 60
    },
    {
      "midi": 83,
      "hit": false,
      "t": 146616.60897916585,
      "d": 114.08694791668677,
      "v": 66
    },
    {
      "midi": 60,
      "hit": false,
      "t": 146616.60897916585,
      "d": 262.8960104166763,
      "v": 50
    },
    {
      "midi": 76,
      "hit": false,
      "t": 146621.5692812492,
      "d": 128.96785416666535,
      "v": 50
    },
    {
      "midi": 57,
      "hit": false,
      "t": 146636.4501874992,
      "d": 193.45178124998347,
      "v": 32
    },
    {
      "midi": 53,
      "hit": false,
      "t": 146641.41048958254,
      "d": 178.57087499997579,
      "v": 44
    },
    {
      "midi": 50,
      "hit": false,
      "t": 146651.3310937492,
      "d": 178.57087499997579,
      "v": 20
    },
    {
      "midi": 76,
      "hit": false,
      "t": 147107.67888541587,
      "d": 158.7296666666807,
      "v": 67
    },
    {
      "midi": 79,
      "hit": false,
      "t": 147107.67888541587,
      "d": 158.7296666666807,
      "v": 76
    },
    {
      "midi": 69,
      "hit": false,
      "t": 147107.67888541587,
      "d": 198.41208333332906,
      "v": 79
    },
    {
      "midi": 64,
      "hit": false,
      "t": 147107.67888541587,
      "d": 337.3005416666565,
      "v": 68
    },
    {
      "midi": 72,
      "hit": false,
      "t": 147112.6391874992,
      "d": 163.6899687499972,
      "v": 70
    },
    {
      "midi": 76,
      "hit": false,
      "t": 147435.05882291586,
      "d": 153.76936458333512,
      "v": 56
    },
    {
      "midi": 72,
      "hit": false,
      "t": 147449.93972916587,
      "d": 128.96785416666535,
      "v": 48
    },
    {
      "midi": 69,
      "hit": false,
      "t": 147459.86033333253,
      "d": 119.04725000000326,
      "v": 44
    },
    {
      "midi": 60,
      "hit": false,
      "t": 147459.86033333253,
      "d": 213.29298958333675,
      "v": 58
    },
    {
      "midi": 65,
      "hit": false,
      "t": 147464.82063541588,
      "d": 158.7296666666516,
      "v": 35
    },
    {
      "midi": 59,
      "hit": false,
      "t": 147727.71664583252,
      "d": 267.8563124999928,
      "v": 47
    },
    {
      "midi": 64,
      "hit": false,
      "t": 147737.63724999918,
      "d": 104.16634374999558,
      "v": 46
    },
    {
      "midi": 72,
      "hit": false,
      "t": 147742.59755208253,
      "d": 79.3648333333258,
      "v": 38
    },
    {
      "midi": 69,
      "hit": false,
      "t": 147747.55785416588,
      "d": 54.563322916656034,
      "v": 36
    },
    {
      "midi": 69,
      "hit": false,
      "t": 148055.09658333252,
      "d": 44.64271875002305,
      "v": 35
    },
    {
      "midi": 65,
      "hit": false,
      "t": 148060.05688541586,
      "d": 34.72211458333186,
      "v": 40
    },
    {
      "midi": 64,
      "hit": false,
      "t": 148060.05688541586,
      "d": 39.682416666677454,
      "v": 47
    },
    {
      "midi": 60,
      "hit": false,
      "t": 148065.0171874992,
      "d": 49.60302083333954,
      "v": 38
    },
    {
      "midi": 53,
      "hit": false,
      "t": 148084.85839583253,
      "d": 39.682416666677454,
      "v": 35
    },
    {
      "midi": 64,
      "hit": false,
      "t": 148382.47652083254,
      "d": 79.36483333335491,
      "v": 60
    },
    {
      "midi": 59,
      "hit": false,
      "t": 148387.4368229159,
      "d": 59.52362500000163,
      "v": 54
    },
    {
      "midi": 43,
      "hit": false,
      "t": 148402.3177291659,
      "d": 79.3648333333258,
      "v": 50
    },
    {
      "midi": 63,
      "hit": false,
      "t": 148685.0549479159,
      "d": 188.49147916672518,
      "v": 57
    },
    {
      "midi": 54,
      "hit": false,
      "t": 148690.01524999924,
      "d": 198.41208333338727,
      "v": 37
    },
    {
      "midi": 58,
      "hit": false,
      "t": 148694.9755520826,
      "d": 198.41208333338727,
      "v": 51
    },
    {
      "midi": 44,
      "hit": false,
      "t": 148699.93585416593,
      "d": 292.65782291672076,
      "v": 34
    },
    {
      "midi": 62,
      "hit": false,
      "t": 149012.43488541598,
      "d": 426.5859791667026,
      "v": 50
    },
    {
      "midi": 57,
      "hit": false,
      "t": 149027.31579166598,
      "d": 342.2608437500312,
      "v": 42
    },
    {
      "midi": 59,
      "hit": false,
      "t": 149037.23639583265,
      "d": 327.3799375000235,
      "v": 38
    },
    {
      "midi": 53,
      "hit": false,
      "t": 149037.23639583265,
      "d": 386.90356250002515,
      "v": 36
    },
    {
      "midi": 43,
      "hit": false,
      "t": 149349.73542708266,
      "d": 74.40453125000931,
      "v": 66
    },
    {
      "midi": 67,
      "hit": false,
      "t": 150937.03209374935,
      "d": 109.12664583337028,
      "v": 63
    },
    {
      "midi": 96,
      "hit": false,
      "t": 150941.9923958327,
      "d": 99.20604166667908,
      "v": 69
    },
    {
      "midi": 93,
      "hit": false,
      "t": 150941.9923958327,
      "d": 104.16634375002468,
      "v": 64
    },
    {
      "midi": 64,
      "hit": false,
      "t": 150946.95269791604,
      "d": 104.16634375002468,
      "v": 53
    },
    {
      "midi": 84,
      "hit": false,
      "t": 150946.95269791604,
      "d": 104.16634375002468,
      "v": 67
    },
    {
      "midi": 58,
      "hit": false,
      "t": 150951.9129999994,
      "d": 124.00755208334886,
      "v": 37
    },
    {
      "midi": 62,
      "hit": false,
      "t": 150961.83360416605,
      "d": 84.3251354166714,
      "v": 49
    },
    {
      "midi": 58,
      "hit": false,
      "t": 151423.1416979161,
      "d": 188.49147916669608,
      "v": 57
    },
    {
      "midi": 67,
      "hit": false,
      "t": 151428.10199999943,
      "d": 173.6105729166884,
      "v": 68
    },
    {
      "midi": 64,
      "hit": false,
      "t": 151428.10199999943,
      "d": 188.49147916669608,
      "v": 57
    },
    {
      "midi": 84,
      "hit": false,
      "t": 151433.06230208278,
      "d": 148.80906250001863,
      "v": 77
    },
    {
      "midi": 62,
      "hit": false,
      "t": 151438.02260416612,
      "d": 153.76936458333512,
      "v": 47
    },
    {
      "midi": 93,
      "hit": false,
      "t": 151438.02260416612,
      "d": 163.6899687499972,
      "v": 62
    },
    {
      "midi": 96,
      "hit": false,
      "t": 151438.02260416612,
      "d": 173.6105729166593,
      "v": 68
    },
    {
      "midi": 58,
      "hit": false,
      "t": 151750.52163541614,
      "d": 99.20604166673729,
      "v": 51
    },
    {
      "midi": 67,
      "hit": false,
      "t": 151755.48193749948,
      "d": 54.56332291671424,
      "v": 60
    },
    {
      "midi": 64,
      "hit": false,
      "t": 151755.48193749948,
      "d": 84.32513541672961,
      "v": 53
    },
    {
      "midi": 98,
      "hit": false,
      "t": 151760.44223958283,
      "d": 74.40453125003842,
      "v": 76
    },
    {
      "midi": 86,
      "hit": false,
      "t": 151760.44223958283,
      "d": 94.2457395833917,
      "v": 70
    },
    {
      "midi": 93,
      "hit": false,
      "t": 151765.40254166618,
      "d": 84.3251354167005,
      "v": 66
    },
    {
      "midi": 62,
      "hit": false,
      "t": 151770.36284374952,
      "d": 34.72211458333186,
      "v": 45
    },
    {
      "midi": 58,
      "hit": false,
      "t": 151924.13220833289,
      "d": 153.76936458336422,
      "v": 37
    },
    {
      "midi": 67,
      "hit": false,
      "t": 151934.05281249955,
      "d": 128.96785416669445,
      "v": 46
    },
    {
      "midi": 64,
      "hit": false,
      "t": 151934.05281249955,
      "d": 158.72966666670982,
      "v": 38
    },
    {
      "midi": 96,
      "hit": false,
      "t": 151939.0131145829,
      "d": 158.72966666670982,
      "v": 49
    },
    {
      "midi": 84,
      "hit": false,
      "t": 151953.8940208329,
      "d": 94.24573958333349,
      "v": 37
    },
    {
      "midi": 62,
      "hit": false,
      "t": 151953.8940208329,
      "d": 114.08694791668677,
      "v": 36
    },
    {
      "midi": 91,
      "hit": false,
      "t": 151968.7749270829,
      "d": 79.3648333333258,
      "v": 36
    },
    {
      "midi": 98,
      "hit": false,
      "t": 152226.71063541627,
      "d": 94.24573958336259,
      "v": 79
    },
    {
      "midi": 67,
      "hit": false,
      "t": 152236.63123958293,
      "d": 69.44422916669282,
      "v": 67
    },
    {
      "midi": 64,
      "hit": false,
      "t": 152236.63123958293,
      "d": 89.2854375000461,
      "v": 60
    },
    {
      "midi": 86,
      "hit": false,
      "t": 152236.63123958293,
      "d": 89.2854375000461,
      "v": 71
    },
    {
      "midi": 58,
      "hit": false,
      "t": 152236.63123958293,
      "d": 109.12664583337028,
      "v": 55
    },
    {
      "midi": 93,
      "hit": false,
      "t": 152241.59154166628,
      "d": 64.48392708334723,
      "v": 74
    },
    {
      "midi": 62,
      "hit": false,
      "t": 152241.59154166628,
      "d": 84.3251354167005,
      "v": 55
    },
    {
      "midi": 96,
      "hit": false,
      "t": 152494.56694791632,
      "d": 34.72211458336096,
      "v": 72
    },
    {
      "midi": 84,
      "hit": false,
      "t": 152499.52724999966,
      "d": 64.48392708337633,
      "v": 71
    },
    {
      "midi": 58,
      "hit": false,
      "t": 152499.52724999966,
      "d": 89.2854375000461,
      "v": 55
    },
    {
      "midi": 91,
      "hit": false,
      "t": 152504.487552083,
      "d": 29.761812500015367,
      "v": 63
    },
    {
      "midi": 67,
      "hit": false,
      "t": 152504.487552083,
      "d": 39.682416666677454,
      "v": 72
    },
    {
      "midi": 64,
      "hit": false,
      "t": 152504.487552083,
      "d": 44.64271875002305,
      "v": 57
    },
    {
      "midi": 62,
      "hit": false,
      "t": 152514.40815624967,
      "d": 29.761812500015367,
      "v": 39
    },
    {
      "midi": 55,
      "hit": false,
      "t": 152891.39111458304,
      "d": 34.72211458333186,
      "v": 58
    },
    {
      "midi": 70,
      "hit": false,
      "t": 153184.04893749973,
      "d": 119.04725000003236,
      "v": 86
    },
    {
      "midi": 65,
      "hit": false,
      "t": 153189.00923958307,
      "d": 74.40453125000931,
      "v": 90
    },
    {
      "midi": 74,
      "hit": false,
      "t": 153189.00923958307,
      "d": 138.88845833335654,
      "v": 88
    },
    {
      "midi": 54,
      "hit": false,
      "t": 153189.00923958307,
      "d": 153.76936458336422,
      "v": 74
    },
    {
      "midi": 60,
      "hit": false,
      "t": 153193.96954166642,
      "d": 109.12664583334117,
      "v": 72
    },
    {
      "midi": 86,
      "hit": false,
      "t": 153640.39672916644,
      "d": 282.73721875002957,
      "v": 89
    },
    {
      "midi": 82,
      "hit": false,
      "t": 153645.3570312498,
      "d": 322.4196354166779,
      "v": 83
    },
    {
      "midi": 60,
      "hit": false,
      "t": 153650.31733333314,
      "d": 476.18900000001304,
      "v": 74
    },
    {
      "midi": 77,
      "hit": false,
      "t": 153655.27763541648,
      "d": 317.4593333333323,
      "v": 80
    },
    {
      "midi": 65,
      "hit": false,
      "t": 153655.27763541648,
      "d": 496.0302083333372,
      "v": 91
    },
    {
      "midi": 54,
      "hit": false,
      "t": 153655.27763541648,
      "d": 600.1965520833328,
      "v": 77
    },
    {
      "midi": 58,
      "hit": false,
      "t": 153660.23793749983,
      "d": 585.3156458333251,
      "v": 63
    },
    {
      "midi": 79,
      "hit": false,
      "t": 153665.19823958317,
      "d": 24.80151041666977,
      "v": 55
    },
    {
      "midi": 64,
      "hit": false,
      "t": 154290.19630208315,
      "d": 203.37238541670376,
      "v": 40
    },
    {
      "midi": 71,
      "hit": false,
      "t": 154290.19630208315,
      "d": 203.37238541670376,
      "v": 45
    },
    {
      "midi": 76,
      "hit": false,
      "t": 154290.19630208315,
      "d": 208.33268750004936,
      "v": 45
    },
    {
      "midi": 81,
      "hit": false,
      "t": 154295.1566041665,
      "d": 203.37238541670376,
      "v": 47
    },
    {
      "midi": 59,
      "hit": false,
      "t": 154300.11690624984,
      "d": 198.41208333335817,
      "v": 49
    },
    {
      "midi": 53,
      "hit": false,
      "t": 154314.99781249985,
      "d": 173.6105729166593,
      "v": 38
    },
    {
      "midi": 81,
      "hit": false,
      "t": 155222.73309374988,
      "d": 287.69752083340427,
      "v": 65
    },
    {
      "midi": 71,
      "hit": false,
      "t": 155227.69339583322,
      "d": 248.0151041666977,
      "v": 56
    },
    {
      "midi": 75,
      "hit": false,
      "t": 155232.65369791657,
      "d": 213.29298958336585,
      "v": 52
    },
    {
      "midi": 64,
      "hit": false,
      "t": 155237.6139999999,
      "d": 292.65782291669166,
      "v": 47
    },
    {
      "midi": 53,
      "hit": false,
      "t": 155242.57430208326,
      "d": 262.8960104166763,
      "v": 34
    },
    {
      "midi": 59,
      "hit": false,
      "t": 155242.57430208326,
      "d": 287.69752083334606,
      "v": 47
    },
    {
      "midi": 76,
      "hit": false,
      "t": 155445.94668749993,
      "d": 44.642718749993946,
      "v": 34
    },
    {
      "midi": 73,
      "hit": false,
      "t": 156150.30958333326,
      "d": 188.49147916672518,
      "v": 65
    },
    {
      "midi": 65,
      "hit": false,
      "t": 156155.2698854166,
      "d": 168.6502708333719,
      "v": 74
    },
    {
      "midi": 57,
      "hit": false,
      "t": 156155.2698854166,
      "d": 238.09450000006473,
      "v": 52
    },
    {
      "midi": 77,
      "hit": false,
      "t": 156160.23018749995,
      "d": 188.49147916672518,
      "v": 63
    },
    {
      "midi": 62,
      "hit": false,
      "t": 156165.1904895833,
      "d": 178.570875000034,
      "v": 54
    },
    {
      "midi": 58,
      "hit": false,
      "t": 156165.1904895833,
      "d": 203.37238541670376,
      "v": 43
    },
    {
      "midi": 74,
      "hit": false,
      "t": 156348.72166666668,
      "d": 29.761812499986263,
      "v": 37
    },
    {
      "midi": 55,
      "hit": false,
      "t": 156656.26039583335,
      "d": 218.25329166668234,
      "v": 70
    },
    {
      "midi": 58,
      "hit": false,
      "t": 156656.26039583335,
      "d": 238.09450000000652,
      "v": 56
    },
    {
      "midi": 62,
      "hit": false,
      "t": 156661.2206979167,
      "d": 238.09450000000652,
      "v": 57
    },
    {
      "midi": 53,
      "hit": false,
      "t": 156661.2206979167,
      "d": 297.61812500000815,
      "v": 68
    },
    {
      "midi": 51,
      "hit": false,
      "t": 157053.08456250004,
      "d": 24.80151041666977,
      "v": 25
    },
    {
      "midi": 52,
      "hit": false,
      "t": 157102.68758333338,
      "d": 29.761812500015367,
      "v": 44
    },
    {
      "midi": 55,
      "hit": false,
      "t": 157122.5287916667,
      "d": 352.1814479166933,
      "v": 66
    },
    {
      "midi": 58,
      "hit": false,
      "t": 157122.5287916667,
      "d": 372.02265625001746,
      "v": 50
    },
    {
      "midi": 62,
      "hit": false,
      "t": 157127.48909375005,
      "d": 337.3005416666856,
      "v": 53
    },
    {
      "midi": 53,
      "hit": false,
      "t": 157127.48909375005,
      "d": 446.4271874999977,
      "v": 70
    },
    {
      "midi": 65,
      "hit": false,
      "t": 157132.4493958334,
      "d": 391.86386458331253,
      "v": 61
    },
    {
      "midi": 52,
      "hit": false,
      "t": 157588.79718750005,
      "d": 317.4593333333614,
      "v": 48
    },
    {
      "midi": 55,
      "hit": false,
      "t": 157593.7574895834,
      "d": 233.13419791669003,
      "v": 57
    },
    {
      "midi": 58,
      "hit": false,
      "t": 157598.71779166674,
      "d": 262.8960104166763,
      "v": 37
    },
    {
      "midi": 64,
      "hit": false,
      "t": 157613.59869791675,
      "d": 257.9357083333307,
      "v": 48
    },
    {
      "midi": 55,
      "hit": false,
      "t": 158064.9861875001,
      "d": 158.7296666666516,
      "v": 36
    },
    {
      "midi": 60,
      "hit": false,
      "t": 158064.9861875001,
      "d": 203.37238541664556,
      "v": 53
    },
    {
      "midi": 57,
      "hit": false,
      "t": 158074.90679166676,
      "d": 168.6502708333137,
      "v": 49
    },
    {
      "midi": 48,
      "hit": false,
      "t": 158104.66860416674,
      "d": 69.44422916666372,
      "v": 37
    },
    {
      "midi": 47,
      "hit": false,
      "t": 158114.5892083334,
      "d": 34.72211458333186,
      "v": 22
    },
    {
      "midi": 77,
      "hit": false,
      "t": 159359.6250312501,
      "d": 421.625677083357,
      "v": 81
    },
    {
      "midi": 56,
      "hit": false,
      "t": 159359.6250312501,
      "d": 446.4271875000268,
      "v": 64
    },
    {
      "midi": 67,
      "hit": false,
      "t": 159364.58533333344,
      "d": 381.94326041667955,
      "v": 71
    },
    {
      "midi": 72,
      "hit": false,
      "t": 159364.58533333344,
      "d": 391.86386458334164,
      "v": 82
    },
    {
      "midi": 62,
      "hit": false,
      "t": 159369.54563541678,
      "d": 406.7447708333202,
      "v": 60
    },
    {
      "midi": 57,
      "hit": false,
      "t": 159989.58339583347,
      "d": 74.40453125006752,
      "v": 46
    },
    {
      "midi": 72,
      "hit": false,
      "t": 159989.58339583347,
      "d": 89.2854375000752,
      "v": 44
    },
    {
      "midi": 62,
      "hit": false,
      "t": 159994.54369791682,
      "d": 54.56332291671424,
      "v": 47
    },
    {
      "midi": 67,
      "hit": false,
      "t": 159999.50400000016,
      "d": 44.64271875002305,
      "v": 34
    },
    {
      "midi": 69,
      "hit": false,
      "t": 160004.4643020835,
      "d": 44.64271875002305,
      "v": 42
    },
    {
      "midi": 86,
      "hit": false,
      "t": 160450.89148958353,
      "d": 64.48392708337633,
      "v": 76
    },
    {
      "midi": 82,
      "hit": false,
      "t": 160455.85179166688,
      "d": 59.523625000030734,
      "v": 61
    },
    {
      "midi": 65,
      "hit": false,
      "t": 160460.81209375022,
      "d": 64.48392708334723,
      "v": 71
    },
    {
      "midi": 77,
      "hit": false,
      "t": 160460.81209375022,
      "d": 64.48392708334723,
      "v": 75
    },
    {
      "midi": 54,
      "hit": false,
      "t": 160465.77239583357,
      "d": 193.45178124998347,
      "v": 58
    },
    {
      "midi": 58,
      "hit": false,
      "t": 160465.77239583357,
      "d": 198.41208333332906,
      "v": 53
    },
    {
      "midi": 60,
      "hit": false,
      "t": 160470.73269791692,
      "d": 74.40453124998021,
      "v": 57
    },
    {
      "midi": 65,
      "hit": false,
      "t": 160569.93873958357,
      "d": 84.3251354166423,
      "v": 40
    },
    {
      "midi": 60,
      "hit": false,
      "t": 160589.7799479169,
      "d": 44.642718749993946,
      "v": 28
    },
    {
      "midi": 77,
      "hit": false,
      "t": 160589.7799479169,
      "d": 54.563322916656034,
      "v": 29
    },
    {
      "midi": 82,
      "hit": false,
      "t": 160589.7799479169,
      "d": 54.563322916656034,
      "v": 37
    },
    {
      "midi": 86,
      "hit": false,
      "t": 160599.70055208355,
      "d": 54.563322916656034,
      "v": 26
    },
    {
      "midi": 89,
      "hit": false,
      "t": 161239.5795208336,
      "d": 59.523625000030734,
      "v": 73
    },
    {
      "midi": 77,
      "hit": false,
      "t": 161239.5795208336,
      "d": 64.48392708337633,
      "v": 74
    },
    {
      "midi": 82,
      "hit": false,
      "t": 161244.53982291694,
      "d": 54.56332291668514,
      "v": 58
    },
    {
      "midi": 65,
      "hit": false,
      "t": 161249.50012500028,
      "d": 54.56332291668514,
      "v": 74
    },
    {
      "midi": 54,
      "hit": false,
      "t": 161249.50012500028,
      "d": 59.523625000030734,
      "v": 65
    },
    {
      "midi": 58,
      "hit": false,
      "t": 161249.50012500028,
      "d": 74.40453125003842,
      "v": 47
    },
    {
      "midi": 86,
      "hit": false,
      "t": 161254.46042708363,
      "d": 34.72211458333186,
      "v": 49
    },
    {
      "midi": 60,
      "hit": false,
      "t": 161259.42072916697,
      "d": 44.642718749993946,
      "v": 57
    },
    {
      "midi": 54,
      "hit": false,
      "t": 161343.74586458365,
      "d": 133.92815625004005,
      "v": 33
    },
    {
      "midi": 65,
      "hit": false,
      "t": 161353.6664687503,
      "d": 109.12664583337028,
      "v": 62
    },
    {
      "midi": 89,
      "hit": false,
      "t": 161358.62677083365,
      "d": 84.3251354167005,
      "v": 47
    },
    {
      "midi": 77,
      "hit": false,
      "t": 161363.587072917,
      "d": 64.48392708334723,
      "v": 36
    },
    {
      "midi": 58,
      "hit": false,
      "t": 161363.587072917,
      "d": 119.04725000003236,
      "v": 36
    },
    {
      "midi": 82,
      "hit": false,
      "t": 161368.54737500034,
      "d": 59.52362500000163,
      "v": 42
    },
    {
      "midi": 60,
      "hit": false,
      "t": 161373.5076770837,
      "d": 89.28543749998789,
      "v": 54
    },
    {
      "midi": 86,
      "hit": false,
      "t": 161383.42828125035,
      "d": 44.642718749993946,
      "v": 45
    },
    {
      "midi": 93,
      "hit": false,
      "t": 161844.73637500036,
      "d": 79.36483333335491,
      "v": 74
    },
    {
      "midi": 64,
      "hit": false,
      "t": 161849.6966770837,
      "d": 74.40453125000931,
      "v": 62
    },
    {
      "midi": 59,
      "hit": false,
      "t": 161849.6966770837,
      "d": 94.24573958333349,
      "v": 65
    },
    {
      "midi": 53,
      "hit": false,
      "t": 161849.6966770837,
      "d": 218.25329166668234,
      "v": 63
    },
    {
      "midi": 81,
      "hit": false,
      "t": 161854.65697916705,
      "d": 44.642718749993946,
      "v": 55
    },
    {
      "midi": 88,
      "hit": false,
      "t": 161854.65697916705,
      "d": 44.642718749993946,
      "v": 64
    },
    {
      "midi": 64,
      "hit": false,
      "t": 161978.66453125037,
      "d": 79.36483333335491,
      "v": 45
    },
    {
      "midi": 93,
      "hit": false,
      "t": 161978.66453125037,
      "d": 89.285437500017,
      "v": 54
    },
    {
      "midi": 81,
      "hit": false,
      "t": 161983.6248333337,
      "d": 59.52362500000163,
      "v": 41
    },
    {
      "midi": 59,
      "hit": false,
      "t": 161983.6248333337,
      "d": 94.24573958333349,
      "v": 30
    },
    {
      "midi": 88,
      "hit": false,
      "t": 161988.58513541706,
      "d": 64.48392708331812,
      "v": 53
    },
    {
      "midi": 93,
      "hit": false,
      "t": 162692.9480312504,
      "d": 352.1814479166933,
      "v": 79
    },
    {
      "midi": 88,
      "hit": false,
      "t": 162697.90833333373,
      "d": 362.1020520833554,
      "v": 71
    },
    {
      "midi": 81,
      "hit": false,
      "t": 162697.90833333373,
      "d": 411.7050729166949,
      "v": 71
    },
    {
      "midi": 64,
      "hit": false,
      "t": 162707.8289375004,
      "d": 476.18900000004214,
      "v": 70
    },
    {
      "midi": 53,
      "hit": false,
      "t": 162712.78923958374,
      "d": 471.22869791669655,
      "v": 65
    },
    {
      "midi": 59,
      "hit": false,
      "t": 162712.78923958374,
      "d": 491.0699062500207,
      "v": 63
    },
    {
      "midi": 77,
      "hit": false,
      "t": 163332.82700000043,
      "d": 99.20604166667908,
      "v": 40
    },
    {
      "midi": 89,
      "hit": false,
      "t": 163337.78730208377,
      "d": 114.08694791665766,
      "v": 43
    },
    {
      "midi": 59,
      "hit": false,
      "t": 163337.78730208377,
      "d": 133.92815624998184,
      "v": 36
    },
    {
      "midi": 64,
      "hit": false,
      "t": 163337.78730208377,
      "d": 133.92815624998184,
      "v": 47
    },
    {
      "midi": 84,
      "hit": false,
      "t": 163342.74760416712,
      "d": 109.12664583331207,
      "v": 54
    },
    {
      "midi": 53,
      "hit": false,
      "t": 163352.66820833378,
      "d": 148.80906249996042,
      "v": 29
    },
    {
      "midi": 62,
      "hit": false,
      "t": 163813.97630208373,
      "d": 486.10960416670423,
      "v": 34
    },
    {
      "midi": 89,
      "hit": false,
      "t": 163813.97630208373,
      "d": 555.553833333368,
      "v": 55
    },
    {
      "midi": 58,
      "hit": false,
      "t": 163818.93660416707,
      "d": 486.10960416670423,
      "v": 39
    },
    {
      "midi": 82,
      "hit": false,
      "t": 163818.93660416707,
      "d": 520.8317187500361,
      "v": 36
    },
    {
      "midi": 77,
      "hit": false,
      "t": 163823.89690625042,
      "d": 491.0699062500207,
      "v": 37
    },
    {
      "midi": 86,
      "hit": false,
      "t": 163823.89690625042,
      "d": 510.9111145833449,
      "v": 43
    },
    {
      "midi": 57,
      "hit": false,
      "t": 163828.85720833376,
      "d": 461.30809375000536,
      "v": 37
    },
    {
      "midi": 53,
      "hit": false,
      "t": 163833.8175104171,
      "d": 431.54628124999,
      "v": 33
    },
    {
      "midi": 91,
      "hit": false,
      "t": 164736.59248958377,
      "d": 218.25329166671145,
      "v": 70
    },
    {
      "midi": 79,
      "hit": false,
      "t": 164736.59248958377,
      "d": 233.13419791671913,
      "v": 70
    },
    {
      "midi": 69,
      "hit": false,
      "t": 164741.5527916671,
      "d": 203.37238541670376,
      "v": 58
    },
    {
      "midi": 58,
      "hit": false,
      "t": 164746.51309375046,
      "d": 233.13419791669003,
      "v": 50
    },
    {
      "midi": 88,
      "hit": false,
      "t": 164751.4733958338,
      "d": 203.37238541667466,
      "v": 44
    },
    {
      "midi": 84,
      "hit": false,
      "t": 164751.4733958338,
      "d": 228.17389583334443,
      "v": 56
    },
    {
      "midi": 64,
      "hit": false,
      "t": 164751.4733958338,
      "d": 243.05480208335212,
      "v": 53
    },
    {
      "midi": 84,
      "hit": false,
      "t": 165088.7739375005,
      "d": 74.40453125000931,
      "v": 66
    },
    {
      "midi": 77,
      "hit": false,
      "t": 165098.69454166715,
      "d": 29.761812500015367,
      "v": 54
    },
    {
      "midi": 89,
      "hit": false,
      "t": 165098.69454166715,
      "d": 84.3251354166714,
      "v": 48
    },
    {
      "midi": 58,
      "hit": false,
      "t": 165098.69454166715,
      "d": 99.20604166667908,
      "v": 53
    },
    {
      "midi": 64,
      "hit": false,
      "t": 165103.6548437505,
      "d": 34.72211458333186,
      "v": 54
    },
    {
      "midi": 69,
      "hit": false,
      "t": 165103.6548437505,
      "d": 34.72211458333186,
      "v": 46
    },
    {
      "midi": 89,
      "hit": false,
      "t": 165535.2011250005,
      "d": 163.6899687500263,
      "v": 79
    },
    {
      "midi": 93,
      "hit": false,
      "t": 165535.2011250005,
      "d": 188.49147916669608,
      "v": 80
    },
    {
      "midi": 61,
      "hit": false,
      "t": 165540.16142708383,
      "d": 218.25329166668234,
      "v": 54
    },
    {
      "midi": 60,
      "hit": false,
      "t": 165540.16142708383,
      "d": 223.21359375002794,
      "v": 60
    },
    {
      "midi": 81,
      "hit": false,
      "t": 165545.12172916718,
      "d": 133.92815625001094,
      "v": 79
    },
    {
      "midi": 65,
      "hit": false,
      "t": 165545.12172916718,
      "d": 213.29298958333675,
      "v": 73
    },
    {
      "midi": 55,
      "hit": false,
      "t": 165550.08203125052,
      "d": 228.17389583334443,
      "v": 68
    },
    {
      "midi": 58,
      "hit": false,
      "t": 165564.96293750053,
      "d": 233.13419791666092,
      "v": 35
    },
    {
      "midi": 96,
      "hit": false,
      "t": 166011.39012500053,
      "d": 292.65782291669166,
      "v": 85
    },
    {
      "midi": 84,
      "hit": false,
      "t": 166016.35042708387,
      "d": 248.0151041666977,
      "v": 87
    },
    {
      "midi": 60,
      "hit": false,
      "t": 166016.35042708387,
      "d": 342.2608437500312,
      "v": 78
    },
    {
      "midi": 89,
      "hit": false,
      "t": 166021.31072916722,
      "d": 228.17389583334443,
      "v": 74
    },
    {
      "midi": 93,
      "hit": false,
      "t": 166021.31072916722,
      "d": 252.9754062500142,
      "v": 79
    },
    {
      "midi": 65,
      "hit": false,
      "t": 166021.31072916722,
      "d": 332.34023958334,
      "v": 83
    },
    {
      "midi": 61,
      "hit": false,
      "t": 166021.31072916722,
      "d": 416.6653750000114,
      "v": 62
    },
    {
      "midi": 55,
      "hit": false,
      "t": 166031.23133333388,
      "d": 312.49903125001583,
      "v": 71
    },
    {
      "midi": 98,
      "hit": false,
      "t": 166477.6585208339,
      "d": 372.02265625001746,
      "v": 78
    },
    {
      "midi": 86,
      "hit": false,
      "t": 166482.61882291725,
      "d": 322.4196354166779,
      "v": 75
    },
    {
      "midi": 95,
      "hit": false,
      "t": 166482.61882291725,
      "d": 357.1417500000098,
      "v": 72
    },
    {
      "midi": 92,
      "hit": false,
      "t": 166487.5791250006,
      "d": 342.2608437500021,
      "v": 62
    },
    {
      "midi": 64,
      "hit": false,
      "t": 166487.5791250006,
      "d": 500.9905104166537,
      "v": 80
    },
    {
      "midi": 60,
      "hit": false,
      "t": 166492.53942708395,
      "d": 471.22869791663834,
      "v": 74
    },
    {
      "midi": 54,
      "hit": false,
      "t": 166492.53942708395,
      "d": 505.9508124999702,
      "v": 74
    },
    {
      "midi": 105,
      "hit": false,
      "t": 167122.49779166727,
      "d": 188.49147916672518,
      "v": 55
    },
    {
      "midi": 64,
      "hit": false,
      "t": 167127.4580937506,
      "d": 208.33268750004936,
      "v": 60
    },
    {
      "midi": 93,
      "hit": false,
      "t": 167132.41839583396,
      "d": 193.45178125004168,
      "v": 40
    },
    {
      "midi": 60,
      "hit": false,
      "t": 167137.3786979173,
      "d": 183.53117708335049,
      "v": 58
    },
    {
      "midi": 54,
      "hit": false,
      "t": 167137.3786979173,
      "d": 287.69752083334606,
      "v": 49
    },
    {
      "midi": 100,
      "hit": false,
      "t": 167142.33900000065,
      "d": 158.7296666666807,
      "v": 36
    },
    {
      "midi": 103,
      "hit": false,
      "t": 167573.88528125064,
      "d": 173.6105729167175,
      "v": 43
    },
    {
      "midi": 64,
      "hit": false,
      "t": 167573.88528125064,
      "d": 203.37238541673287,
      "v": 50
    },
    {
      "midi": 91,
      "hit": false,
      "t": 167588.76618750065,
      "d": 183.5311770833796,
      "v": 22
    },
    {
      "midi": 59,
      "hit": false,
      "t": 167588.76618750065,
      "d": 198.41208333338727,
      "v": 50
    },
    {
      "midi": 53,
      "hit": false,
      "t": 167593.726489584,
      "d": 183.5311770833796,
      "v": 35
    },
    {
      "midi": 98,
      "hit": false,
      "t": 167598.68679166734,
      "d": 143.84876041667303,
      "v": 48
    },
    {
      "midi": 95,
      "hit": false,
      "t": 168069.91548958403,
      "d": 193.45178125001257,
      "v": 48
    },
    {
      "midi": 100,
      "hit": false,
      "t": 168069.91548958403,
      "d": 193.45178125001257,
      "v": 41
    },
    {
      "midi": 88,
      "hit": false,
      "t": 168074.87579166738,
      "d": 183.53117708332138,
      "v": 36
    },
    {
      "midi": 64,
      "hit": false,
      "t": 168074.87579166738,
      "d": 193.45178125001257,
      "v": 42
    },
    {
      "midi": 59,
      "hit": false,
      "t": 168074.87579166738,
      "d": 198.41208333335817,
      "v": 48
    },
    {
      "midi": 53,
      "hit": false,
      "t": 168084.79639583404,
      "d": 188.49147916669608,
      "v": 32
    },
    {
      "midi": 100,
      "hit": false,
      "t": 168560.98539583408,
      "d": 262.8960104166763,
      "v": 53
    },
    {
      "midi": 88,
      "hit": false,
      "t": 168560.98539583408,
      "d": 272.8166145833384,
      "v": 51
    },
    {
      "midi": 64,
      "hit": false,
      "t": 168565.94569791743,
      "d": 267.8563124999928,
      "v": 49
    },
    {
      "midi": 95,
      "hit": false,
      "t": 168565.94569791743,
      "d": 267.8563124999928,
      "v": 51
    },
    {
      "midi": 59,
      "hit": false,
      "t": 168565.94569791743,
      "d": 282.73721875000047,
      "v": 48
    },
    {
      "midi": 53,
      "hit": false,
      "t": 168570.90600000077,
      "d": 262.8960104166472,
      "v": 38
    },
    {
      "midi": 69,
      "hit": false,
      "t": 169354.63372916743,
      "d": 64.48392708340543,
      "v": 60
    },
    {
      "midi": 58,
      "hit": false,
      "t": 169359.59403125077,
      "d": 69.44422916672193,
      "v": 44
    },
    {
      "midi": 98,
      "hit": false,
      "t": 169364.55433333412,
      "d": 64.48392708337633,
      "v": 69
    },
    {
      "midi": 64,
      "hit": false,
      "t": 169369.51463541746,
      "d": 39.682416666677454,
      "v": 45
    },
    {
      "midi": 86,
      "hit": false,
      "t": 169369.51463541746,
      "d": 64.48392708337633,
      "v": 57
    },
    {
      "midi": 93,
      "hit": false,
      "t": 169379.43523958413,
      "d": 34.72211458336096,
      "v": 53
    },
    {
      "midi": 62,
      "hit": false,
      "t": 169384.39554166747,
      "d": 29.761812500015367,
      "v": 37
    },
    {
      "midi": 84,
      "hit": false,
      "t": 169647.29155208418,
      "d": 54.56332291671424,
      "v": 63
    },
    {
      "midi": 69,
      "hit": false,
      "t": 169652.25185416752,
      "d": 59.523625000030734,
      "v": 58
    },
    {
      "midi": 91,
      "hit": false,
      "t": 169652.25185416752,
      "d": 59.523625000030734,
      "v": 53
    },
    {
      "midi": 58,
      "hit": false,
      "t": 169652.25185416752,
      "d": 89.285437500017,
      "v": 45
    },
    {
      "midi": 96,
      "hit": false,
      "t": 169657.21215625087,
      "d": 44.64271875002305,
      "v": 54
    },
    {
      "midi": 64,
      "hit": false,
      "t": 169657.21215625087,
      "d": 84.3251354166714,
      "v": 49
    },
    {
      "midi": 62,
      "hit": false,
      "t": 169662.17245833421,
      "d": 39.682416666677454,
      "v": 43
    },
    {
      "midi": 84,
      "hit": false,
      "t": 169999.4730000009,
      "d": 79.36483333335491,
      "v": 55
    },
    {
      "midi": 69,
      "hit": false,
      "t": 170004.43330208425,
      "d": 44.64271875002305,
      "v": 41
    },
    {
      "midi": 96,
      "hit": false,
      "t": 170004.43330208425,
      "d": 133.92815625001094,
      "v": 52
    },
    {
      "midi": 91,
      "hit": false,
      "t": 170009.3936041676,
      "d": 104.16634374999558,
      "v": 42
    },
    {
      "midi": 58,
      "hit": false,
      "t": 170009.3936041676,
      "d": 143.84876041667303,
      "v": 42
    },
    {
      "midi": 64,
      "hit": false,
      "t": 170014.35390625094,
      "d": 34.72211458333186,
      "v": 32
    },
    {
      "midi": 98,
      "hit": false,
      "t": 170480.6223020843,
      "d": 322.419635416707,
      "v": 48
    },
    {
      "midi": 86,
      "hit": false,
      "t": 170485.58260416763,
      "d": 391.86386458337074,
      "v": 51
    },
    {
      "midi": 54,
      "hit": false,
      "t": 170485.58260416763,
      "d": 644.839270833385,
      "v": 42
    },
    {
      "midi": 64,
      "hit": false,
      "t": 170490.54290625098,
      "d": 491.0699062500498,
      "v": 36
    },
    {
      "midi": 93,
      "hit": false,
      "t": 170495.50320833432,
      "d": 372.02265625001746,
      "v": 39
    },
    {
      "midi": 90,
      "hit": false,
      "t": 170500.46351041767,
      "d": 381.94326041667955,
      "v": 42
    },
    {
      "midi": 60,
      "hit": false,
      "t": 170500.46351041767,
      "d": 491.0699062500207,
      "v": 56
    },
    {
      "midi": 56,
      "hit": false,
      "t": 171328.83395833435,
      "d": 44.642718749993946,
      "v": 34
    },
    {
      "midi": 57,
      "hit": false,
      "t": 171353.63546875102,
      "d": 59.523625000030734,
      "v": 45
    },
    {
      "midi": 62,
      "hit": false,
      "t": 171388.35758333435,
      "d": 372.02265625004657,
      "v": 50
    },
    {
      "midi": 65,
      "hit": false,
      "t": 171403.23848958436,
      "d": 396.82416666671634,
      "v": 48
    },
    {
      "midi": 70,
      "hit": false,
      "t": 171408.1987916677,
      "d": 421.625677083357,
      "v": 36
    },
    {
      "midi": 58,
      "hit": false,
      "t": 171408.1987916677,
      "d": 441.4668854166812,
      "v": 55
    },
    {
      "midi": 67,
      "hit": false,
      "t": 171413.15909375105,
      "d": 342.2608437500021,
      "v": 50
    },
    {
      "midi": 62,
      "hit": false,
      "t": 171869.5068854177,
      "d": 143.84876041670213,
      "v": 38
    },
    {
      "midi": 55,
      "hit": false,
      "t": 171869.5068854177,
      "d": 332.3402395833691,
      "v": 44
    },
    {
      "midi": 67,
      "hit": false,
      "t": 171884.38779166772,
      "d": 124.00755208334886,
      "v": 27
    },
    {
      "midi": 65,
      "hit": false,
      "t": 171904.22900000104,
      "d": 99.20604166667908,
      "v": 25
    },
    {
      "midi": 69,
      "hit": false,
      "t": 172201.84712500108,
      "d": 520.8317187500652,
      "v": 68
    },
    {
      "midi": 64,
      "hit": false,
      "t": 172216.72803125108,
      "d": 476.18900000004214,
      "v": 67
    },
    {
      "midi": 58,
      "hit": false,
      "t": 172216.72803125108,
      "d": 481.14930208338774,
      "v": 62
    },
    {
      "midi": 57,
      "hit": false,
      "t": 172221.68833333443,
      "d": 605.1568541667075,
      "v": 63
    },
    {
      "midi": 61,
      "hit": false,
      "t": 172226.64863541778,
      "d": 481.14930208335863,
      "v": 57
    },
    {
      "midi": 58,
      "hit": false,
      "t": 172836.7657916678,
      "d": 188.49147916669608,
      "v": 40
    },
    {
      "midi": 67,
      "hit": false,
      "t": 172851.6466979178,
      "d": 233.13419791669003,
      "v": 46
    },
    {
      "midi": 61,
      "hit": false,
      "t": 172851.6466979178,
      "d": 252.9754062500142,
      "v": 36
    },
    {
      "midi": 55,
      "hit": false,
      "t": 172856.60700000115,
      "d": 158.7296666666807,
      "v": 42
    },
    {
      "midi": 64,
      "hit": false,
      "t": 172856.60700000115,
      "d": 213.29298958333675,
      "v": 45
    },
    {
      "midi": 61,
      "hit": false,
      "t": 173635.3744270845,
      "d": 69.44422916672193,
      "v": 43
    },
    {
      "midi": 60,
      "hit": false,
      "t": 173645.29503125115,
      "d": 49.603020833368646,
      "v": 50
    },
    {
      "midi": 65,
      "hit": false,
      "t": 173650.2553333345,
      "d": 39.682416666677454,
      "v": 70
    },
    {
      "midi": 69,
      "hit": false,
      "t": 173650.2553333345,
      "d": 39.682416666677454,
      "v": 66
    },
    {
      "midi": 72,
      "hit": false,
      "t": 173650.2553333345,
      "d": 49.603020833368646,
      "v": 66
    },
    {
      "midi": 55,
      "hit": false,
      "t": 173655.21563541784,
      "d": 34.72211458333186,
      "v": 50
    },
    {
      "midi": 61,
      "hit": false,
      "t": 173779.22318750122,
      "d": 84.32513541675871,
      "v": 36
    },
    {
      "midi": 65,
      "hit": false,
      "t": 173784.18348958457,
      "d": 54.56332291671424,
      "v": 58
    },
    {
      "midi": 72,
      "hit": false,
      "t": 173784.18348958457,
      "d": 59.52362500005984,
      "v": 49
    },
    {
      "midi": 60,
      "hit": false,
      "t": 173789.1437916679,
      "d": 64.48392708340543,
      "v": 44
    },
    {
      "midi": 69,
      "hit": false,
      "t": 173794.10409375126,
      "d": 54.56332291671424,
      "v": 55
    },
    {
      "midi": 55,
      "hit": false,
      "t": 173799.0643958346,
      "d": 34.72211458333186,
      "v": 28
    },
    {
      "midi": 60,
      "hit": false,
      "t": 174052.03980208465,
      "d": 44.64271875002305,
      "v": 53
    },
    {
      "midi": 69,
      "hit": false,
      "t": 174052.03980208465,
      "d": 59.523625000030734,
      "v": 69
    },
    {
      "midi": 65,
      "hit": false,
      "t": 174057.000104168,
      "d": 34.72211458333186,
      "v": 68
    },
    {
      "midi": 72,
      "hit": false,
      "t": 174057.000104168,
      "d": 34.72211458333186,
      "v": 57
    },
    {
      "midi": 61,
      "hit": false,
      "t": 174061.96040625134,
      "d": 34.72211458333186,
      "v": 32
    },
    {
      "midi": 55,
      "hit": false,
      "t": 174081.80161458466,
      "d": 39.682416666677454,
      "v": 30
    },
    {
      "midi": 55,
      "hit": false,
      "t": 174156.20614583467,
      "d": 89.2854375000461,
      "v": 32
    },
    {
      "midi": 61,
      "hit": false,
      "t": 174171.08705208468,
      "d": 99.20604166670819,
      "v": 36
    },
    {
      "midi": 69,
      "hit": false,
      "t": 174176.04735416803,
      "d": 79.36483333335491,
      "v": 44
    },
    {
      "midi": 72,
      "hit": false,
      "t": 174176.04735416803,
      "d": 79.36483333335491,
      "v": 46
    },
    {
      "midi": 60,
      "hit": false,
      "t": 174181.00765625137,
      "d": 39.682416666677454,
      "v": 34
    },
    {
      "midi": 65,
      "hit": false,
      "t": 174181.00765625137,
      "d": 39.682416666677454,
      "v": 43
    },
    {
      "midi": 68,
      "hit": false,
      "t": 174339.73732291805,
      "d": 391.86386458337074,
      "v": 56
    },
    {
      "midi": 64,
      "hit": false,
      "t": 174344.6976250014,
      "d": 337.3005416666856,
      "v": 57
    },
    {
      "midi": 71,
      "hit": false,
      "t": 174344.6976250014,
      "d": 386.90356250002515,
      "v": 60
    },
    {
      "midi": 60,
      "hit": false,
      "t": 174359.5785312514,
      "d": 337.3005416666856,
      "v": 55
    },
    {
      "midi": 54,
      "hit": false,
      "t": 174364.53883333475,
      "d": 342.2608437500021,
      "v": 53
    },
    {
      "midi": 54,
      "hit": false,
      "t": 174776.24390625142,
      "d": 312.49903125001583,
      "v": 45
    },
    {
      "midi": 65,
      "hit": false,
      "t": 174781.20420833476,
      "d": 262.8960104166763,
      "v": 50
    },
    {
      "midi": 60,
      "hit": false,
      "t": 174786.1645104181,
      "d": 248.0151041666686,
      "v": 46
    },
    {
      "midi": 72,
      "hit": false,
      "t": 174791.12481250145,
      "d": 287.69752083331696,
      "v": 55
    },
    {
      "midi": 69,
      "hit": false,
      "t": 174796.0851145848,
      "d": 257.9357083333016,
      "v": 54
    },
    {
      "midi": 58,
      "hit": false,
      "t": 175545.0907291681,
      "d": 138.88845833341475,
      "v": 63
    },
    {
      "midi": 70,
      "hit": false,
      "t": 175550.05103125144,
      "d": 94.2457395833917,
      "v": 62
    },
    {
      "midi": 65,
      "hit": false,
      "t": 175555.01133333478,
      "d": 44.64271875002305,
      "v": 61
    },
    {
      "midi": 62,
      "hit": false,
      "t": 175555.01133333478,
      "d": 49.603020833368646,
      "v": 62
    },
    {
      "midi": 53,
      "hit": false,
      "t": 175559.97163541813,
      "d": 148.80906250004773,
      "v": 63
    },
    {
      "midi": 66,
      "hit": false,
      "t": 175564.93193750147,
      "d": 24.80151041666977,
      "v": 32
    },
    {
      "midi": 71,
      "hit": false,
      "t": 176026.2400312515,
      "d": 173.6105729166884,
      "v": 80
    },
    {
      "midi": 67,
      "hit": false,
      "t": 176026.2400312515,
      "d": 223.21359375002794,
      "v": 80
    },
    {
      "midi": 62,
      "hit": false,
      "t": 176031.20033333485,
      "d": 183.53117708335049,
      "v": 84
    },
    {
      "midi": 56,
      "hit": false,
      "t": 176036.1606354182,
      "d": 634.9186666666938,
      "v": 75
    },
    {
      "midi": 70,
      "hit": false,
      "t": 176462.74661458487,
      "d": 79.36483333335491,
      "v": 74
    },
    {
      "midi": 74,
      "hit": false,
      "t": 176462.74661458487,
      "d": 79.36483333335491,
      "v": 80
    },
    {
      "midi": 59,
      "hit": false,
      "t": 176462.74661458487,
      "d": 193.45178125001257,
      "v": 71
    },
    {
      "midi": 65,
      "hit": false,
      "t": 176467.70691666822,
      "d": 44.64271875002305,
      "v": 83
    },
    {
      "midi": 68,
      "hit": false,
      "t": 176482.58782291823,
      "d": 24.80151041666977,
      "v": 46
    },
    {
      "midi": 62,
      "hit": false,
      "t": 176680.99990625156,
      "d": 153.76936458330601,
      "v": 65
    },
    {
      "midi": 77,
      "hit": false,
      "t": 176690.92051041822,
      "d": 69.44422916666372,
      "v": 57
    },
    {
      "midi": 68,
      "hit": false,
      "t": 176700.84111458488,
      "d": 124.00755208331975,
      "v": 67
    },
    {
      "midi": 74,
      "hit": false,
      "t": 176720.6823229182,
      "d": 49.60302083333954,
      "v": 51
    },
    {
      "midi": 68,
      "hit": false,
      "t": 176968.69742708484,
      "d": 79.36483333335491,
      "v": 72
    },
    {
      "midi": 80,
      "hit": false,
      "t": 176973.6577291682,
      "d": 114.08694791668677,
      "v": 72
    },
    {
      "midi": 64,
      "hit": false,
      "t": 176978.61803125154,
      "d": 39.682416666677454,
      "v": 43
    },
    {
      "midi": 65,
      "hit": false,
      "t": 177167.1095104182,
      "d": 24.80151041666977,
      "v": 70
    },
    {
      "midi": 72,
      "hit": false,
      "t": 177177.03011458486,
      "d": 29.761812500015367,
      "v": 60
    },
    {
      "midi": 81,
      "hit": false,
      "t": 177191.91102083487,
      "d": 39.682416666677454,
      "v": 34
    },
    {
      "midi": 77,
      "hit": false,
      "t": 177206.79192708488,
      "d": 34.72211458333186,
      "v": 32
    },
    {
      "midi": 48,
      "hit": false,
      "t": 177454.80703125155,
      "d": 74.40453125000931,
      "v": 70
    },
    {
      "midi": 72,
      "hit": false,
      "t": 177633.37790625155,
      "d": 148.80906250001863,
      "v": 42
    },
    {
      "midi": 60,
      "hit": false,
      "t": 177638.3382083349,
      "d": 114.08694791665766,
      "v": 39
    },
    {
      "midi": 68,
      "hit": false,
      "t": 177643.29851041824,
      "d": 128.96785416666535,
      "v": 17
    },
    {
      "midi": 69,
      "hit": false,
      "t": 177653.2191145849,
      "d": 114.08694791665766,
      "v": 33
    },
    {
      "midi": 65,
      "hit": false,
      "t": 177673.06032291823,
      "d": 74.40453124998021,
      "v": 24
    },
    {
      "midi": 64,
      "hit": false,
      "t": 177687.94122916824,
      "d": 29.761812499986263,
      "v": 22
    },
    {
      "midi": 60,
      "hit": false,
      "t": 177926.03572916824,
      "d": 74.40453125003842,
      "v": 60
    },
    {
      "midi": 72,
      "hit": false,
      "t": 177926.03572916824,
      "d": 89.2854375000461,
      "v": 62
    },
    {
      "midi": 69,
      "hit": false,
      "t": 177926.03572916824,
      "d": 94.2457395833917,
      "v": 64
    },
    {
      "midi": 65,
      "hit": false,
      "t": 177930.9960312516,
      "d": 64.48392708334723,
      "v": 68
    },
    {
      "midi": 60,
      "hit": false,
      "t": 178114.52720833497,
      "d": 54.56332291668514,
      "v": 51
    },
    {
      "midi": 72,
      "hit": false,
      "t": 178114.52720833497,
      "d": 153.76936458336422,
      "v": 48
    },
    {
      "midi": 65,
      "hit": false,
      "t": 178119.48751041832,
      "d": 89.285437500017,
      "v": 47
    },
    {
      "midi": 69,
      "hit": false,
      "t": 178124.44781250166,
      "d": 84.3251354166714,
      "v": 42
    },
    {
      "midi": 65,
      "hit": false,
      "t": 178397.264427085,
      "d": 411.7050729166658,
      "v": 65
    },
    {
      "midi": 60,
      "hit": false,
      "t": 178407.18503125166,
      "d": 218.25329166668234,
      "v": 56
    },
    {
      "midi": 69,
      "hit": false,
      "t": 178407.18503125166,
      "d": 411.7050729166658,
      "v": 64
    },
    {
      "midi": 48,
      "hit": false,
      "t": 178412.145333335,
      "d": 178.5708750000049,
      "v": 62
    },
    {
      "midi": 65,
      "hit": false,
      "t": 179022.262489585,
      "d": 183.53117708335049,
      "v": 81
    },
    {
      "midi": 62,
      "hit": false,
      "t": 179027.22279166835,
      "d": 188.49147916666698,
      "v": 64
    },
    {
      "midi": 72,
      "hit": false,
      "t": 179027.22279166835,
      "d": 188.49147916666698,
      "v": 71
    },
    {
      "midi": 69,
      "hit": false,
      "t": 179027.22279166835,
      "d": 198.41208333332906,
      "v": 76
    },
    {
      "midi": 58,
      "hit": false,
      "t": 179032.1830937517,
      "d": 198.41208333332906,
      "v": 55
    },
    {
      "midi": 60,
      "hit": false,
      "t": 179042.10369791836,
      "d": 163.6899687499972,
      "v": 61
    },
    {
      "midi": 69,
      "hit": false,
      "t": 179339.72182291836,
      "d": 99.20604166670819,
      "v": 72
    },
    {
      "midi": 62,
      "hit": false,
      "t": 179344.6821250017,
      "d": 69.44422916669282,
      "v": 60
    },
    {
      "midi": 58,
      "hit": false,
      "t": 179344.6821250017,
      "d": 99.20604166670819,
      "v": 48
    },
    {
      "midi": 65,
      "hit": false,
      "t": 179349.64242708505,
      "d": 59.52362500000163,
      "v": 72
    },
    {
      "midi": 72,
      "hit": false,
      "t": 179349.64242708505,
      "d": 79.36483333335491,
      "v": 53
    },
    {
      "midi": 60,
      "hit": false,
      "t": 179359.56303125172,
      "d": 34.72211458333186,
      "v": 44
    },
    {
      "midi": 62,
      "hit": false,
      "t": 179513.33239583508,
      "d": 64.48392708334723,
      "v": 41
    },
    {
      "midi": 69,
      "hit": false,
      "t": 179513.33239583508,
      "d": 99.20604166670819,
      "v": 44
    },
    {
      "midi": 65,
      "hit": false,
      "t": 179518.29269791843,
      "d": 74.40453125000931,
      "v": 51
    },
    {
      "midi": 58,
      "hit": false,
      "t": 179518.29269791843,
      "d": 109.12664583337028,
      "v": 33
    },
    {
      "midi": 72,
      "hit": false,
      "t": 179523.25300000177,
      "d": 84.3251354166714,
      "v": 29
    },
    {
      "midi": 60,
      "hit": false,
      "t": 179553.01481250176,
      "d": 29.761812500015367,
      "v": 24
    },
    {
      "midi": 58,
      "hit": false,
      "t": 179791.1093125018,
      "d": 94.24573958333349,
      "v": 25
    },
    {
      "midi": 62,
      "hit": false,
      "t": 179820.87112500178,
      "d": 39.682416666677454,
      "v": 53
    },
    {
      "midi": 65,
      "hit": false,
      "t": 179825.83142708513,
      "d": 74.40453125000931,
      "v": 67
    },
    {
      "midi": 69,
      "hit": false,
      "t": 179830.79172916847,
      "d": 79.3648333333258,
      "v": 66
    },
    {
      "midi": 72,
      "hit": false,
      "t": 179840.71233333513,
      "d": 84.3251354166714,
      "v": 57
    },
    {
      "midi": 58,
      "hit": false,
      "t": 180024.24351041848,
      "d": 69.44422916669282,
      "v": 45
    },
    {
      "midi": 52,
      "hit": false,
      "t": 180039.1244166685,
      "d": 34.72211458336096,
      "v": 44
    },
    {
      "midi": 64,
      "hit": false,
      "t": 180039.1244166685,
      "d": 69.44422916672193,
      "v": 58
    },
    {
      "midi": 72,
      "hit": false,
      "t": 180044.08471875184,
      "d": 59.523625000030734,
      "v": 45
    },
    {
      "midi": 68,
      "hit": false,
      "t": 180049.04502083518,
      "d": 49.60302083333954,
      "v": 36
    },
    {
      "midi": 68,
      "hit": false,
      "t": 180321.86163541855,
      "d": 69.44422916675103,
      "v": 69
    },
    {
      "midi": 64,
      "hit": false,
      "t": 180326.8219375019,
      "d": 39.68241666670656,
      "v": 63
    },
    {
      "midi": 72,
      "hit": false,
      "t": 180331.78223958524,
      "d": 44.642718750052154,
      "v": 60
    },
    {
      "midi": 58,
      "hit": false,
      "t": 180336.7425416686,
      "d": 84.3251354167005,
      "v": 54
    },
    {
      "midi": 62,
      "hit": false,
      "t": 180341.70284375193,
      "d": 29.761812500015367,
      "v": 57
    },
    {
      "midi": 52,
      "hit": false,
      "t": 180356.58375000194,
      "d": 54.56332291668514,
      "v": 39
    },
    {
      "midi": 65,
      "hit": false,
      "t": 180778.2094270853,
      "d": 59.52362500000163,
      "v": 70
    },
    {
      "midi": 72,
      "hit": false,
      "t": 180778.2094270853,
      "d": 59.52362500000163,
      "v": 58
    },
    {
      "midi": 60,
      "hit": false,
      "t": 180783.16972916864,
      "d": 34.72211458333186,
      "v": 67
    },
    {
      "midi": 69,
      "hit": false,
      "t": 180783.16972916864,
      "d": 59.52362500000163,
      "v": 54
    },
    {
      "midi": 48,
      "hit": false,
      "t": 181219.67631250198,
      "d": 595.2362500000745,
      "v": 84
    },
    {
      "midi": 47,
      "hit": false,
      "t": 181224.63661458532,
      "d": 54.56332291671424,
      "v": 77
    },
    {
      "midi": 65,
      "hit": false,
      "t": 181229.59691666867,
      "d": 486.10960416670423,
      "v": 71
    },
    {
      "midi": 60,
      "hit": false,
      "t": 181234.55721875202,
      "d": 471.22869791669655,
      "v": 71
    },
    {
      "midi": 57,
      "hit": false,
      "t": 181239.51752083536,
      "d": 456.34779166668886,
      "v": 71
    },
    {
      "midi": 62,
      "hit": false,
      "t": 181239.51752083536,
      "d": 466.26839583335095,
      "v": 67
    },
    {
      "midi": 46,
      "hit": false,
      "t": 181834.75377083538,
      "d": 29.761812500015367,
      "v": 19
    },
    {
      "midi": 47,
      "hit": false,
      "t": 181859.55528125205,
      "d": 74.40453125003842,
      "v": 49
    },
    {
      "midi": 48,
      "hit": false,
      "t": 181884.35679166872,
      "d": 555.553833333368,
      "v": 62
    },
    {
      "midi": 65,
      "hit": false,
      "t": 181889.31709375206,
      "d": 560.5141354166844,
      "v": 61
    },
    {
      "midi": 57,
      "hit": false,
      "t": 181894.2773958354,
      "d": 535.7126250000147,
      "v": 52
    },
    {
      "midi": 60,
      "hit": false,
      "t": 181894.2773958354,
      "d": 555.5538333333388,
      "v": 57
    },
    {
      "midi": 62,
      "hit": false,
      "t": 181894.2773958354,
      "d": 560.5141354166844,
      "v": 49
    },
    {
      "midi": 48,
      "hit": false,
      "t": 182663.12421875208,
      "d": 29.761812500015367,
      "v": 63
    },
    {
      "midi": 60,
      "hit": false,
      "t": 182668.08452083543,
      "d": 64.48392708337633,
      "v": 68
    },
    {
      "midi": 65,
      "hit": false,
      "t": 182668.08452083543,
      "d": 79.36483333338401,
      "v": 67
    },
    {
      "midi": 57,
      "hit": false,
      "t": 182673.04482291878,
      "d": 29.761812500015367,
      "v": 56
    },
    {
      "midi": 62,
      "hit": false,
      "t": 182697.84633333544,
      "d": 29.761812500015367,
      "v": 30
    },
    {
      "midi": 72,
      "hit": false,
      "t": 183119.4720104188,
      "d": 69.44422916669282,
      "v": 70
    },
    {
      "midi": 67,
      "hit": false,
      "t": 183124.43231250215,
      "d": 54.56332291668514,
      "v": 81
    },
    {
      "midi": 76,
      "hit": false,
      "t": 183124.43231250215,
      "d": 69.44422916669282,
      "v": 73
    },
    {
      "midi": 45,
      "hit": false,
      "t": 183129.3926145855,
      "d": 59.52362500000163,
      "v": 62
    },
    {
      "midi": 55,
      "hit": false,
      "t": 183134.35291666884,
      "d": 59.52362500000163,
      "v": 70
    },
    {
      "midi": 74,
      "hit": false,
      "t": 183630.38312500218,
      "d": 233.13419791666092,
      "v": 89
    },
    {
      "midi": 77,
      "hit": false,
      "t": 183630.38312500218,
      "d": 248.0151041666686,
      "v": 81
    },
    {
      "midi": 54,
      "hit": false,
      "t": 183630.38312500218,
      "d": 252.9754062500142,
      "v": 82
    },
    {
      "midi": 65,
      "hit": false,
      "t": 183635.34342708552,
      "d": 158.7296666666516,
      "v": 96
    },
    {
      "midi": 60,
      "hit": false,
      "t": 183635.34342708552,
      "d": 233.13419791666092,
      "v": 77
    },
    {
      "midi": 70,
      "hit": false,
      "t": 183640.30372916887,
      "d": 193.45178124998347,
      "v": 80
    },
    {
      "midi": 82,
      "hit": false,
      "t": 184275.22239583553,
      "d": 153.76936458333512,
      "v": 75
    },
    {
      "midi": 89,
      "hit": false,
      "t": 184285.1430000022,
      "d": 168.6502708333428,
      "v": 74
    },
    {
      "midi": 86,
      "hit": false,
      "t": 184290.10330208554,
      "d": 138.88845833332743,
      "v": 60
    },
    {
      "midi": 65,
      "hit": false,
      "t": 184290.10330208554,
      "d": 188.49147916666698,
      "v": 73
    },
    {
      "midi": 54,
      "hit": false,
      "t": 184290.10330208554,
      "d": 396.82416666668723,
      "v": 61
    },
    {
      "midi": 58,
      "hit": false,
      "t": 184290.10330208554,
      "d": 406.7447708333493,
      "v": 56
    },
    {
      "midi": 77,
      "hit": false,
      "t": 184295.06360416888,
      "d": 114.08694791665766,
      "v": 62
    },
    {
      "midi": 60,
      "hit": false,
      "t": 184295.06360416888,
      "d": 188.49147916666698,
      "v": 61
    },
    {
      "midi": 90,
      "hit": false,
      "t": 184751.41139583554,
      "d": 94.2457395833917,
      "v": 38
    },
    {
      "midi": 83,
      "hit": false,
      "t": 184766.29230208555,
      "d": 426.5859791667026,
      "v": 58
    },
    {
      "midi": 64,
      "hit": false,
      "t": 184766.29230208555,
      "d": 451.38748958337237,
      "v": 70
    },
    {
      "midi": 95,
      "hit": false,
      "t": 184771.2526041689,
      "d": 401.78446875003283,
      "v": 40
    },
    {
      "midi": 96,
      "hit": false,
      "t": 184776.21290625224,
      "d": 94.24573958336259,
      "v": 67
    },
    {
      "midi": 59,
      "hit": false,
      "t": 184776.21290625224,
      "d": 446.4271875000268,
      "v": 62
    },
    {
      "midi": 53,
      "hit": false,
      "t": 184781.1732083356,
      "d": 441.4668854166812,
      "v": 62
    },
    {
      "midi": 93,
      "hit": false,
      "t": 185545.05972916895,
      "d": 84.32513541672961,
      "v": 70
    },
    {
      "midi": 81,
      "hit": false,
      "t": 185550.0200312523,
      "d": 79.36483333338401,
      "v": 71
    },
    {
      "midi": 64,
      "hit": false,
      "t": 185554.98033333564,
      "d": 64.48392708334723,
      "v": 72
    },
    {
      "midi": 59,
      "hit": false,
      "t": 185554.98033333564,
      "d": 69.44422916669282,
      "v": 63
    },
    {
      "midi": 88,
      "hit": false,
      "t": 185554.98033333564,
      "d": 74.40453125003842,
      "v": 61
    },
    {
      "midi": 85,
      "hit": false,
      "t": 185559.94063541899,
      "d": 39.682416666677454,
      "v": 45
    },
    {
      "midi": 53,
      "hit": false,
      "t": 185559.94063541899,
      "d": 59.52362500000163,
      "v": 60
    },
    {
      "midi": 93,
      "hit": false,
      "t": 185807.95573958568,
      "d": 213.29298958336585,
      "v": 67
    },
    {
      "midi": 81,
      "hit": false,
      "t": 185812.91604166903,
      "d": 243.05480208338122,
      "v": 63
    },
    {
      "midi": 88,
      "hit": false,
      "t": 185817.87634375237,
      "d": 277.7769166667131,
      "v": 51
    },
    {
      "midi": 64,
      "hit": false,
      "t": 185827.79694791904,
      "d": 203.37238541670376,
      "v": 53
    },
    {
      "midi": 53,
      "hit": false,
      "t": 185827.79694791904,
      "d": 208.33268750004936,
      "v": 50
    },
    {
      "midi": 85,
      "hit": false,
      "t": 185832.75725000238,
      "d": 193.45178125001257,
      "v": 43
    },
    {
      "midi": 59,
      "hit": false,
      "t": 185832.75725000238,
      "d": 228.17389583337354,
      "v": 52
    },
    {
      "midi": 59,
      "hit": false,
      "t": 186179.97839583576,
      "d": 84.3251354167005,
      "v": 50
    },
    {
      "midi": 64,
      "hit": false,
      "t": 186179.97839583576,
      "d": 89.2854375000461,
      "v": 44
    },
    {
      "midi": 88,
      "hit": false,
      "t": 186189.89900000242,
      "d": 69.44422916669282,
      "v": 36
    },
    {
      "midi": 91,
      "hit": false,
      "t": 186189.89900000242,
      "d": 99.20604166673729,
      "v": 46
    },
    {
      "midi": 85,
      "hit": false,
      "t": 186194.85930208577,
      "d": 89.2854375000461,
      "v": 46
    },
    {
      "midi": 79,
      "hit": false,
      "t": 186194.85930208577,
      "d": 128.96785416672355,
      "v": 40
    },
    {
      "midi": 53,
      "hit": false,
      "t": 186194.85930208577,
      "d": 168.650270833401,
      "v": 33
    },
    {
      "midi": 89,
      "hit": false,
      "t": 186502.3980312525,
      "d": 302.57842708338285,
      "v": 56
    },
    {
      "midi": 86,
      "hit": false,
      "t": 186512.3186354192,
      "d": 302.57842708335374,
      "v": 48
    },
    {
      "midi": 77,
      "hit": false,
      "t": 186512.3186354192,
      "d": 337.3005416666856,
      "v": 48
    },
    {
      "midi": 62,
      "hit": false,
      "t": 186517.27893750253,
      "d": 411.7050729166658,
      "v": 50
    },
    {
      "midi": 58,
      "hit": false,
      "t": 186522.23923958588,
      "d": 441.4668854166521,
      "v": 44
    },
    {
      "midi": 53,
      "hit": false,
      "t": 186522.23923958588,
      "d": 510.9111145833158,
      "v": 34
    },
    {
      "midi": 82,
      "hit": false,
      "t": 186527.19954166922,
      "d": 307.53872916664113,
      "v": 36
    },
    {
      "midi": 57,
      "hit": false,
      "t": 186527.19954166922,
      "d": 446.42718749996857,
      "v": 34
    },
    {
      "midi": 51,
      "hit": false,
      "t": 187439.8951250025,
      "d": 109.12664583334117,
      "v": 32
    },
    {
      "midi": 52,
      "hit": false,
      "t": 187549.02177083585,
      "d": 39.682416666677454,
      "v": 39
    },
    {
      "midi": 53,
      "hit": false,
      "t": 187593.66448958588,
      "d": 337.3005416666856,
      "v": 42
    },
    {
      "midi": 55,
      "hit": false,
      "t": 187598.62479166922,
      "d": 282.73721875000047,
      "v": 49
    },
    {
      "midi": 62,
      "hit": false,
      "t": 187603.58509375257,
      "d": 292.65782291666255,
      "v": 39
    },
    {
      "midi": 65,
      "hit": false,
      "t": 187603.58509375257,
      "d": 307.53872916667024,
      "v": 46
    },
    {
      "midi": 58,
      "hit": false,
      "t": 187603.58509375257,
      "d": 317.4593333333323,
      "v": 40
    },
    {
      "midi": 51,
      "hit": false,
      "t": 187945.84593750257,
      "d": 79.3648333333258,
      "v": 31
    },
    {
      "midi": 53,
      "hit": false,
      "t": 188059.93288541923,
      "d": 287.69752083337517,
      "v": 37
    },
    {
      "midi": 55,
      "hit": false,
      "t": 188074.81379166924,
      "d": 218.25329166668234,
      "v": 37
    },
    {
      "midi": 65,
      "hit": false,
      "t": 188079.77409375258,
      "d": 238.09450000000652,
      "v": 35
    },
    {
      "midi": 58,
      "hit": false,
      "t": 188079.77409375258,
      "d": 262.8960104166763,
      "v": 32
    },
    {
      "midi": 62,
      "hit": false,
      "t": 188084.73439583593,
      "d": 233.13419791666092,
      "v": 46
    },
    {
      "midi": 58,
      "hit": false,
      "t": 188402.19372916926,
      "d": 99.20604166670819,
      "v": 43
    },
    {
      "midi": 55,
      "hit": false,
      "t": 188407.1540312526,
      "d": 69.44422916669282,
      "v": 63
    },
    {
      "midi": 65,
      "hit": false,
      "t": 188412.11433333595,
      "d": 94.24573958336259,
      "v": 47
    },
    {
      "midi": 62,
      "hit": false,
      "t": 188417.0746354193,
      "d": 114.08694791668677,
      "v": 45
    },
    {
      "midi": 53,
      "hit": false,
      "t": 188422.03493750264,
      "d": 84.3251354166714,
      "v": 47
    },
    {
      "midi": 65,
      "hit": false,
      "t": 188580.76460416932,
      "d": 233.13419791669003,
      "v": 27
    },
    {
      "midi": 53,
      "hit": false,
      "t": 188585.72490625267,
      "d": 257.9357083333307,
      "v": 32
    },
    {
      "midi": 57,
      "hit": false,
      "t": 188600.60581250268,
      "d": 213.29298958333675,
      "v": 26
    },
    {
      "midi": 60,
      "hit": false,
      "t": 188600.60581250268,
      "d": 223.21359374999884,
      "v": 44
    },
    {
      "midi": 62,
      "hit": false,
      "t": 188605.56611458602,
      "d": 228.17389583331533,
      "v": 41
    },
    {
      "midi": 65,
      "hit": false,
      "t": 188888.303333336,
      "d": 39.682416666677454,
      "v": 42
    },
    {
      "midi": 60,
      "hit": false,
      "t": 188898.22393750265,
      "d": 29.761812500015367,
      "v": 59
    },
    {
      "midi": 57,
      "hit": false,
      "t": 188903.184239586,
      "d": 29.761812500015367,
      "v": 28
    },
    {
      "midi": 53,
      "hit": false,
      "t": 188903.184239586,
      "d": 49.60302083333954,
      "v": 40
    },
    {
      "midi": 57,
      "hit": false,
      "t": 189523.2220000027,
      "d": 59.523625000030734,
      "v": 43
    },
    {
      "midi": 53,
      "hit": false,
      "t": 189528.18230208603,
      "d": 69.44422916669282,
      "v": 40
    },
    {
      "midi": 65,
      "hit": false,
      "t": 189528.18230208603,
      "d": 69.44422916669282,
      "v": 43
    },
    {
      "midi": 60,
      "hit": false,
      "t": 189533.14260416938,
      "d": 49.60302083333954,
      "v": 49
    },
    {
      "midi": 62,
      "hit": false,
      "t": 189533.14260416938,
      "d": 59.52362500000163,
      "v": 40
    },
    {
      "midi": 57,
      "hit": false,
      "t": 190445.83818750273,
      "d": 84.3251354166714,
      "v": 44
    },
    {
      "midi": 65,
      "hit": false,
      "t": 190445.83818750273,
      "d": 158.7296666666807,
      "v": 53
    },
    {
      "midi": 53,
      "hit": false,
      "t": 190450.79848958607,
      "d": 99.20604166664998,
      "v": 51
    },
    {
      "midi": 60,
      "hit": false,
      "t": 190450.79848958607,
      "d": 104.16634374999558,
      "v": 49
    },
    {
      "midi": 70,
      "hit": false,
      "t": 190926.98748958608,
      "d": 198.41208333335817,
      "v": 82
    },
    {
      "midi": 74,
      "hit": false,
      "t": 190931.94779166943,
      "d": 188.49147916666698,
      "v": 81
    },
    {
      "midi": 65,
      "hit": false,
      "t": 190936.90809375278,
      "d": 198.41208333332906,
      "v": 87
    },
    {
      "midi": 60,
      "hit": false,
      "t": 190946.82869791944,
      "d": 163.6899687499972,
      "v": 62
    },
    {
      "midi": 58,
      "hit": false,
      "t": 190946.82869791944,
      "d": 173.6105729166593,
      "v": 50
    },
    {
      "midi": 54,
      "hit": false,
      "t": 190946.82869791944,
      "d": 213.29298958333675,
      "v": 56
    },
    {
      "midi": 70,
      "hit": false,
      "t": 191408.13679166944,
      "d": 94.24573958336259,
      "v": 69
    },
    {
      "midi": 65,
      "hit": false,
      "t": 191413.0970937528,
      "d": 74.40453125000931,
      "v": 64
    },
    {
      "midi": 54,
      "hit": false,
      "t": 191418.05739583613,
      "d": 114.08694791665766,
      "v": 54
    },
    {
      "midi": 62,
      "hit": false,
      "t": 191418.05739583613,
      "d": 114.08694791665766,
      "v": 62
    },
    {
      "midi": 58,
      "hit": false,
      "t": 191432.93830208614,
      "d": 34.72211458333186,
      "v": 28
    },
    {
      "midi": 58,
      "hit": false,
      "t": 191735.51672916947,
      "d": 367.06235416670097,
      "v": 57
    },
    {
      "midi": 54,
      "hit": false,
      "t": 191740.4770312528,
      "d": 476.18900000001304,
      "v": 45
    },
    {
      "midi": 44,
      "hit": false,
      "t": 191740.4770312528,
      "d": 565.4744375000009,
      "v": 49
    },
    {
      "midi": 65,
      "hit": false,
      "t": 191745.43733333616,
      "d": 376.98295833333395,
      "v": 55
    },
    {
      "midi": 62,
      "hit": false,
      "t": 191750.3976354195,
      "d": 337.3005416666565,
      "v": 57
    },
    {
      "midi": 53,
      "hit": false,
      "t": 192380.35600000282,
      "d": 158.7296666666516,
      "v": 27
    },
    {
      "midi": 62,
      "hit": false,
      "t": 192390.27660416948,
      "d": 198.41208333332906,
      "v": 33
    },
    {
      "midi": 59,
      "hit": false,
      "t": 192400.19720833615,
      "d": 173.6105729166593,
      "v": 39
    },
    {
      "midi": 43,
      "hit": false,
      "t": 192400.19720833615,
      "d": 213.29298958333675,
      "v": 47
    },
    {
      "midi": 76,
      "hit": false,
      "t": 193317.8530937528,
      "d": 431.5462812500482,
      "v": 55
    },
    {
      "midi": 65,
      "hit": false,
      "t": 193327.77369791947,
      "d": 694.4422916667245,
      "v": 47
    },
    {
      "midi": 64,
      "hit": false,
      "t": 193332.73400000282,
      "d": 446.4271875000268,
      "v": 44
    },
    {
      "midi": 71,
      "hit": false,
      "t": 193337.69430208617,
      "d": 421.625677083357,
      "v": 43
    },
    {
      "midi": 69,
      "hit": false,
      "t": 193337.69430208617,
      "d": 580.3553437500086,
      "v": 46
    },
    {
      "midi": 59,
      "hit": false,
      "t": 193342.6546041695,
      "d": 674.6010833333421,
      "v": 44
    },
    {
      "midi": 53,
      "hit": false,
      "t": 193357.53551041952,
      "d": 1428.5670000000682,
      "v": 36
    },
    {
      "midi": 74,
      "hit": false,
      "t": 193789.0817916695,
      "d": 158.7296666666516,
      "v": 52
    },
    {
      "midi": 64,
      "hit": false,
      "t": 193808.92300000283,
      "d": 203.37238541667466,
      "v": 27
    },
    {
      "midi": 62,
      "hit": false,
      "t": 194121.42203125288,
      "d": 649.7995729167014,
      "v": 53
    },
    {
      "midi": 77,
      "hit": false,
      "t": 194121.42203125288,
      "d": 813.4895416666986,
      "v": 70
    },
    {
      "midi": 65,
      "hit": false,
      "t": 194126.38233333622,
      "d": 684.5216875000333,
      "v": 58
    },
    {
      "midi": 58,
      "hit": false,
      "t": 194131.34263541957,
      "d": 669.6407812500256,
      "v": 45
    },
    {
      "midi": 57,
      "hit": false,
      "t": 194141.26323958623,
      "d": 639.8789687500102,
      "v": 30
    },
    {
      "midi": 70,
      "hit": false,
      "t": 194141.26323958623,
      "d": 699.4025937500119,
      "v": 48
    },
    {
      "midi": 79,
      "hit": false,
      "t": 195540.06842708625,
      "d": 262.8960104167054,
      "v": 80
    },
    {
      "midi": 69,
      "hit": false,
      "t": 195545.0287291696,
      "d": 213.29298958336585,
      "v": 62
    },
    {
      "midi": 72,
      "hit": false,
      "t": 195545.0287291696,
      "d": 257.9357083333598,
      "v": 81
    },
    {
      "midi": 58,
      "hit": false,
      "t": 195549.98903125295,
      "d": 193.45178125001257,
      "v": 47
    },
    {
      "midi": 64,
      "hit": false,
      "t": 195554.9493333363,
      "d": 233.13419791666092,
      "v": 54
    },
    {
      "midi": 58,
      "hit": false,
      "t": 195847.60715625295,
      "d": 74.40453125000931,
      "v": 33
    },
    {
      "midi": 77,
      "hit": false,
      "t": 195857.52776041962,
      "d": 119.04725000000326,
      "v": 74
    },
    {
      "midi": 81,
      "hit": false,
      "t": 196189.86800000296,
      "d": 877.9734687500459,
      "v": 74
    },
    {
      "midi": 65,
      "hit": false,
      "t": 196194.8283020863,
      "d": 694.4422916666954,
      "v": 57
    },
    {
      "midi": 61,
      "hit": false,
      "t": 196194.8283020863,
      "d": 803.5689375000366,
      "v": 34
    },
    {
      "midi": 77,
      "hit": false,
      "t": 196194.8283020863,
      "d": 843.251354166714,
      "v": 60
    },
    {
      "midi": 69,
      "hit": false,
      "t": 196199.78860416965,
      "d": 788.6880312500289,
      "v": 60
    },
    {
      "midi": 60,
      "hit": false,
      "t": 196204.748906253,
      "d": 610.1171562499949,
      "v": 43
    },
    {
      "midi": 55,
      "hit": false,
      "t": 196209.70920833634,
      "d": 778.7674270833377,
      "v": 45
    },
    {
      "midi": 83,
      "hit": false,
      "t": 197429.94352083633,
      "d": 292.65782291674986,
      "v": 81
    },
    {
      "midi": 76,
      "hit": false,
      "t": 197434.90382291967,
      "d": 257.9357083333889,
      "v": 76
    },
    {
      "midi": 60,
      "hit": false,
      "t": 197434.90382291967,
      "d": 500.9905104167119,
      "v": 64
    },
    {
      "midi": 71,
      "hit": false,
      "t": 197439.86412500302,
      "d": 243.05480208335212,
      "v": 72
    },
    {
      "midi": 80,
      "hit": false,
      "t": 197444.82442708637,
      "d": 233.13419791666092,
      "v": 48
    },
    {
      "midi": 54,
      "hit": false,
      "t": 197444.82442708637,
      "d": 243.05480208335212,
      "v": 59
    },
    {
      "midi": 64,
      "hit": false,
      "t": 197444.82442708637,
      "d": 262.8960104167054,
      "v": 63
    },
    {
      "midi": 81,
      "hit": false,
      "t": 197757.3234583364,
      "d": 54.563322916656034,
      "v": 54
    },
    {
      "midi": 64,
      "hit": false,
      "t": 197767.24406250307,
      "d": 198.41208333329996,
      "v": 41
    },
    {
      "midi": 54,
      "hit": false,
      "t": 197767.24406250307,
      "d": 252.975406249956,
      "v": 52
    },
    {
      "midi": 88,
      "hit": false,
      "t": 198074.78279166968,
      "d": 699.402593750041,
      "v": 64
    },
    {
      "midi": 76,
      "hit": false,
      "t": 198079.74309375303,
      "d": 659.7201770833635,
      "v": 60
    },
    {
      "midi": 81,
      "hit": false,
      "t": 198084.70339583638,
      "d": 634.9186666666646,
      "v": 62
    },
    {
      "midi": 64,
      "hit": false,
      "t": 198089.66369791972,
      "d": 575.395041666663,
      "v": 49
    },
    {
      "midi": 53,
      "hit": false,
      "t": 198089.66369791972,
      "d": 644.8392708333267,
      "v": 53
    },
    {
      "midi": 59,
      "hit": false,
      "t": 198109.50490625305,
      "d": 590.2759479166707,
      "v": 61
    },
    {
      "midi": 62,
      "hit": false,
      "t": 198883.31203125307,
      "d": 64.48392708337633,
      "v": 52
    },
    {
      "midi": 76,
      "hit": false,
      "t": 198888.2723333364,
      "d": 64.48392708337633,
      "v": 51
    },
    {
      "midi": 86,
      "hit": false,
      "t": 198888.2723333364,
      "d": 69.44422916672193,
      "v": 54
    },
    {
      "midi": 80,
      "hit": false,
      "t": 198893.23263541976,
      "d": 54.56332291668514,
      "v": 37
    },
    {
      "midi": 53,
      "hit": false,
      "t": 198893.23263541976,
      "d": 79.36483333338401,
      "v": 48
    },
    {
      "midi": 59,
      "hit": false,
      "t": 198898.1929375031,
      "d": 44.642718749993946,
      "v": 47
    },
    {
      "midi": 61,
      "hit": false,
      "t": 199433.90556250315,
      "d": 44.642718749993946,
      "v": 42
    },
    {
      "midi": 74,
      "hit": false,
      "t": 199493.42918750315,
      "d": 99.20604166664998,
      "v": 55
    },
    {
      "midi": 70,
      "hit": false,
      "t": 199503.3497916698,
      "d": 99.20604166664998,
      "v": 35
    },
    {
      "midi": 62,
      "hit": false,
      "t": 199503.3497916698,
      "d": 213.29298958330764,
      "v": 55
    },
    {
      "midi": 61,
      "hit": false,
      "t": 199810.88852083645,
      "d": 193.45178124998347,
      "v": 50
    },
    {
      "midi": 73,
      "hit": false,
      "t": 199820.8091250031,
      "d": 99.20604166664998,
      "v": 64
    },
    {
      "midi": 64,
      "hit": false,
      "t": 199840.65033333644,
      "d": 79.3648333333258,
      "v": 29
    },
    {
      "midi": 67,
      "hit": false,
      "t": 199840.65033333644,
      "d": 94.24573958333349,
      "v": 42
    },
    {
      "midi": 72,
      "hit": false,
      "t": 200029.1418125031,
      "d": 79.36483333335491,
      "v": 39
    },
    {
      "midi": 60,
      "hit": false,
      "t": 200034.10211458645,
      "d": 143.84876041667303,
      "v": 36
    },
    {
      "midi": 67,
      "hit": false,
      "t": 200044.0227187531,
      "d": 84.3251354166714,
      "v": 25
    },
    {
      "midi": 64,
      "hit": false,
      "t": 200058.90362500312,
      "d": 69.44422916666372,
      "v": 15
    },
    {
      "midi": 74,
      "hit": false,
      "t": 200926.95648958648,
      "d": 173.6105729167175,
      "v": 40
    },
    {
      "midi": 54,
      "hit": false,
      "t": 200926.95648958648,
      "d": 193.45178125007078,
      "v": 40
    },
    {
      "midi": 64,
      "hit": false,
      "t": 200931.91679166982,
      "d": 173.6105729167175,
      "v": 42
    },
    {
      "midi": 71,
      "hit": false,
      "t": 200931.91679166982,
      "d": 183.5311770833796,
      "v": 42
    },
    {
      "midi": 68,
      "hit": false,
      "t": 200936.87709375317,
      "d": 153.76936458333512,
      "v": 36
    },
    {
      "midi": 60,
      "hit": false,
      "t": 200936.87709375317,
      "d": 158.7296666666807,
      "v": 34
    },
    {
      "midi": 64,
      "hit": false,
      "t": 201388.26458333654,
      "d": 198.41208333335817,
      "v": 47
    },
    {
      "midi": 72,
      "hit": false,
      "t": 201393.22488541988,
      "d": 183.53117708335049,
      "v": 35
    },
    {
      "midi": 69,
      "hit": false,
      "t": 201398.18518750323,
      "d": 173.6105729166593,
      "v": 50
    },
    {
      "midi": 60,
      "hit": false,
      "t": 201403.14548958658,
      "d": 109.12664583331207,
      "v": 40
    },
    {
      "midi": 54,
      "hit": false,
      "t": 201403.14548958658,
      "d": 198.41208333332906,
      "v": 39
    },
    {
      "midi": 62,
      "hit": false,
      "t": 201869.4138854199,
      "d": 133.92815625004005,
      "v": 31
    },
    {
      "midi": 70,
      "hit": false,
      "t": 201869.4138854199,
      "d": 148.80906250004773,
      "v": 35
    },
    {
      "midi": 58,
      "hit": false,
      "t": 201874.37418750324,
      "d": 133.92815625004005,
      "v": 33
    },
    {
      "midi": 55,
      "hit": false,
      "t": 201889.25509375325,
      "d": 119.04725000003236,
      "v": 40
    },
    {
      "midi": 67,
      "hit": false,
      "t": 201894.2153958366,
      "d": 109.12664583334117,
      "v": 35
    },
    {
      "midi": 68,
      "hit": false,
      "t": 202811.87128125326,
      "d": 89.2854375000461,
      "v": 47
    },
    {
      "midi": 64,
      "hit": false,
      "t": 202816.8315833366,
      "d": 64.48392708334723,
      "v": 51
    },
    {
      "midi": 66,
      "hit": false,
      "t": 202821.79188541995,
      "d": 64.48392708334723,
      "v": 36
    },
    {
      "midi": 72,
      "hit": false,
      "t": 202821.79188541995,
      "d": 74.40453125000931,
      "v": 52
    },
    {
      "midi": 61,
      "hit": false,
      "t": 202826.7521875033,
      "d": 89.285437500017,
      "v": 53
    },
    {
      "midi": 61,
      "hit": false,
      "t": 203288.0602812533,
      "d": 153.76936458333512,
      "v": 50
    },
    {
      "midi": 68,
      "hit": false,
      "t": 203288.0602812533,
      "d": 153.76936458333512,
      "v": 52
    },
    {
      "midi": 72,
      "hit": false,
      "t": 203288.0602812533,
      "d": 173.6105729166593,
      "v": 62
    },
    {
      "midi": 66,
      "hit": false,
      "t": 203293.02058333665,
      "d": 133.92815624998184,
      "v": 46
    },
    {
      "midi": 64,
      "hit": false,
      "t": 203293.02058333665,
      "d": 148.80906249998952,
      "v": 63
    },
    {
      "midi": 66,
      "hit": false,
      "t": 203615.4402187533,
      "d": 158.7296666666516,
      "v": 58
    },
    {
      "midi": 64,
      "hit": false,
      "t": 203620.40052083664,
      "d": 128.96785416663624,
      "v": 62
    },
    {
      "midi": 70,
      "hit": false,
      "t": 203620.40052083664,
      "d": 143.84876041664393,
      "v": 57
    },
    {
      "midi": 58,
      "hit": false,
      "t": 203650.16233333663,
      "d": 128.96785416666535,
      "v": 11
    },
    {
      "midi": 57,
      "hit": false,
      "t": 203853.5347187533,
      "d": 153.76936458336422,
      "v": 33
    },
    {
      "midi": 69,
      "hit": false,
      "t": 203858.49502083665,
      "d": 163.6899687500263,
      "v": 49
    },
    {
      "midi": 60,
      "hit": false,
      "t": 203868.4156250033,
      "d": 143.84876041670213,
      "v": 36
    },
    {
      "midi": 64,
      "hit": false,
      "t": 203873.37592708666,
      "d": 133.92815625001094,
      "v": 40
    },
    {
      "midi": 64,
      "hit": false,
      "t": 204121.39103125336,
      "d": 74.40453125003842,
      "v": 56
    },
    {
      "midi": 60,
      "hit": false,
      "t": 204126.3513333367,
      "d": 64.48392708334723,
      "v": 51
    },
    {
      "midi": 69,
      "hit": false,
      "t": 204126.3513333367,
      "d": 74.40453125003842,
      "v": 45
    },
    {
      "midi": 57,
      "hit": false,
      "t": 204141.2322395867,
      "d": 49.60302083333954,
      "v": 38
    },
    {
      "midi": 62,
      "hit": false,
      "t": 204592.61972917008,
      "d": 119.04725000003236,
      "v": 64
    },
    {
      "midi": 69,
      "hit": false,
      "t": 204597.58003125343,
      "d": 143.84876041670213,
      "v": 68
    },
    {
      "midi": 57,
      "hit": false,
      "t": 204602.54033333677,
      "d": 79.36483333335491,
      "v": 62
    },
    {
      "midi": 65,
      "hit": false,
      "t": 204602.54033333677,
      "d": 124.00755208334886,
      "v": 58
    },
    {
      "midi": 46,
      "hit": false,
      "t": 204602.54033333677,
      "d": 704.3628958333575,
      "v": 52
    },
    {
      "midi": 53,
      "hit": false,
      "t": 204607.50063542012,
      "d": 218.25329166668234,
      "v": 49
    },
    {
      "midi": 65,
      "hit": false,
      "t": 204850.55543750347,
      "d": 213.29298958333675,
      "v": 66
    },
    {
      "midi": 62,
      "hit": false,
      "t": 204850.55543750347,
      "d": 257.9357083333307,
      "v": 75
    },
    {
      "midi": 72,
      "hit": false,
      "t": 204850.55543750347,
      "d": 262.8960104166763,
      "v": 78
    },
    {
      "midi": 57,
      "hit": false,
      "t": 204850.55543750347,
      "d": 277.776916666684,
      "v": 60
    },
    {
      "midi": 69,
      "hit": false,
      "t": 204860.47604167013,
      "d": 188.49147916666698,
      "v": 68
    },
    {
      "midi": 70,
      "hit": false,
      "t": 205242.4193020868,
      "d": 74.40453125000931,
      "v": 60
    },
    {
      "midi": 57,
      "hit": false,
      "t": 205252.33990625347,
      "d": 183.53117708332138,
      "v": 49
    },
    {
      "midi": 65,
      "hit": false,
      "t": 205262.26051042014,
      "d": 34.72211458333186,
      "v": 45
    },
    {
      "midi": 62,
      "hit": false,
      "t": 205262.26051042014,
      "d": 84.3251354166714,
      "v": 50
    },
    {
      "midi": 67,
      "hit": false,
      "t": 205554.9183333368,
      "d": 406.7447708333784,
      "v": 60
    },
    {
      "midi": 58,
      "hit": false,
      "t": 205559.87863542014,
      "d": 372.02265625004657,
      "v": 60
    },
    {
      "midi": 62,
      "hit": false,
      "t": 205569.79923958684,
      "d": 372.02265625001746,
      "v": 59
    },
    {
      "midi": 52,
      "hit": false,
      "t": 205579.7198437535,
      "d": 610.117156250024,
      "v": 42
    },
    {
      "midi": 64,
      "hit": false,
      "t": 205594.6007500035,
      "d": 322.4196354166779,
      "v": 33
    },
    {
      "midi": 69,
      "hit": false,
      "t": 206016.22642708683,
      "d": 124.00755208334886,
      "v": 69
    },
    {
      "midi": 57,
      "hit": false,
      "t": 206021.18672917018,
      "d": 89.285437500017,
      "v": 49
    },
    {
      "midi": 58,
      "hit": false,
      "t": 206021.18672917018,
      "d": 124.00755208334886,
      "v": 50
    },
    {
      "midi": 62,
      "hit": false,
      "t": 206021.18672917018,
      "d": 133.92815625001094,
      "v": 56
    },
    {
      "midi": 64,
      "hit": false,
      "t": 206036.0676354202,
      "d": 109.12664583334117,
      "v": 45
    },
    {
      "midi": 67,
      "hit": false,
      "t": 206239.44002083686,
      "d": 158.7296666666516,
      "v": 29
    },
    {
      "midi": 58,
      "hit": false,
      "t": 206294.00334375352,
      "d": 89.28543749998789,
      "v": 5
    },
    {
      "midi": 55,
      "hit": false,
      "t": 206303.92394792018,
      "d": 193.45178125001257,
      "v": 4
    },
    {
      "midi": 58,
      "hit": false,
      "t": 206492.41542708685,
      "d": 89.2854375000752,
      "v": 64
    },
    {
      "midi": 62,
      "hit": false,
      "t": 206502.33603125354,
      "d": 74.40453125003842,
      "v": 68
    },
    {
      "midi": 57,
      "hit": false,
      "t": 206517.21693750354,
      "d": 79.36483333338401,
      "v": 57
    },
    {
      "midi": 64,
      "hit": false,
      "t": 206522.1772395869,
      "d": 34.72211458336096,
      "v": 43
    },
    {
      "midi": 69,
      "hit": false,
      "t": 206527.13754167024,
      "d": 39.682416666677454,
      "v": 36
    },
    {
      "midi": 67,
      "hit": false,
      "t": 206532.09784375358,
      "d": 64.48392708334723,
      "v": 27
    },
    {
      "midi": 55,
      "hit": false,
      "t": 206690.82751042026,
      "d": 133.92815624998184,
      "v": 54
    },
    {
      "midi": 61,
      "hit": false,
      "t": 206690.82751042026,
      "d": 173.6105729166593,
      "v": 63
    },
    {
      "midi": 70,
      "hit": false,
      "t": 206700.74811458692,
      "d": 104.16634374999558,
      "v": 55
    },
    {
      "midi": 66,
      "hit": false,
      "t": 206700.74811458692,
      "d": 138.88845833332743,
      "v": 52
    },
    {
      "midi": 58,
      "hit": false,
      "t": 207107.49288542024,
      "d": 168.6502708333719,
      "v": 45
    },
    {
      "midi": 69,
      "hit": false,
      "t": 207112.4531875036,
      "d": 332.3402395833691,
      "v": 55
    },
    {
      "midi": 61,
      "hit": false,
      "t": 207117.41348958694,
      "d": 213.29298958336585,
      "v": 38
    },
    {
      "midi": 64,
      "hit": false,
      "t": 207122.37379167028,
      "d": 178.5708750000049,
      "v": 53
    },
    {
      "midi": 55,
      "hit": false,
      "t": 207127.33409375363,
      "d": 178.5708750000049,
      "v": 44
    },
    {
      "midi": 65,
      "hit": false,
      "t": 207578.72158333697,
      "d": 664.6804791666509,
      "v": 55
    },
    {
      "midi": 60,
      "hit": false,
      "t": 207583.68188542032,
      "d": 560.5141354166262,
      "v": 37
    },
    {
      "midi": 57,
      "hit": false,
      "t": 207593.60248958698,
      "d": 788.6880312499707,
      "v": 35
    },
    {
      "midi": 50,
      "hit": false,
      "t": 207613.4436979203,
      "d": 749.0056145833223,
      "v": 40
    },
    {
      "midi": 79,
      "hit": false,
      "t": 209002.32828125363,
      "d": 198.41208333338727,
      "v": 76
    },
    {
      "midi": 76,
      "hit": false,
      "t": 209002.32828125363,
      "d": 238.09450000006473,
      "v": 69
    },
    {
      "midi": 72,
      "hit": false,
      "t": 209007.28858333698,
      "d": 312.49903125007404,
      "v": 74
    },
    {
      "midi": 67,
      "hit": false,
      "t": 209012.24888542033,
      "d": 292.65782291672076,
      "v": 71
    },
    {
      "midi": 62,
      "hit": false,
      "t": 209012.24888542033,
      "d": 367.0623541667301,
      "v": 49
    },
    {
      "midi": 64,
      "hit": false,
      "t": 209017.20918750367,
      "d": 372.02265625004657,
      "v": 54
    },
    {
      "midi": 60,
      "hit": false,
      "t": 209027.12979167033,
      "d": 381.94326041670865,
      "v": 43
    },
    {
      "midi": 77,
      "hit": false,
      "t": 209334.66852083706,
      "d": 109.12664583331207,
      "v": 76
    },
    {
      "midi": 67,
      "hit": false,
      "t": 209756.29419792036,
      "d": 877.9734687500168,
      "v": 68
    },
    {
      "midi": 64,
      "hit": false,
      "t": 209766.21480208702,
      "d": 610.117156250024,
      "v": 58
    },
    {
      "midi": 59,
      "hit": false,
      "t": 209771.17510417037,
      "d": 624.9980625000026,
      "v": 54
    },
    {
      "midi": 53,
      "hit": false,
      "t": 209786.05601042038,
      "d": 689.4819895833207,
      "v": 33
    },
    {
      "midi": 62,
      "hit": false,
      "t": 210902.12397917037,
      "d": 94.24573958333349,
      "v": 56
    },
    {
      "midi": 51,
      "hit": false,
      "t": 211194.78180208703,
      "d": 44.642718749993946,
      "v": 18
    },
    {
      "midi": 65,
      "hit": false,
      "t": 211229.50391667036,
      "d": 510.911114583374,
      "v": 64
    },
    {
      "midi": 52,
      "hit": false,
      "t": 211239.42452083703,
      "d": 24.801510416698875,
      "v": 53
    },
    {
      "midi": 55,
      "hit": false,
      "t": 211239.42452083703,
      "d": 461.30809375003446,
      "v": 60
    },
    {
      "midi": 62,
      "hit": false,
      "t": 211244.38482292037,
      "d": 525.7920208333817,
      "v": 60
    },
    {
      "midi": 58,
      "hit": false,
      "t": 211244.38482292037,
      "d": 530.7523229167273,
      "v": 46
    },
    {
      "midi": 53,
      "hit": false,
      "t": 211264.22603125373,
      "d": 491.0699062500207,
      "v": 49
    },
    {
      "midi": 50,
      "hit": false,
      "t": 211755.29593750375,
      "d": 114.08694791668677,
      "v": 29
    },
    {
      "midi": 55,
      "hit": false,
      "t": 211879.3034895871,
      "d": 297.61812500003725,
      "v": 46
    },
    {
      "midi": 53,
      "hit": false,
      "t": 211884.26379167044,
      "d": 342.2608437500312,
      "v": 50
    },
    {
      "midi": 62,
      "hit": false,
      "t": 211889.2240937538,
      "d": 302.57842708335374,
      "v": 36
    },
    {
      "midi": 58,
      "hit": false,
      "t": 211889.2240937538,
      "d": 317.4593333333614,
      "v": 30
    },
    {
      "midi": 65,
      "hit": false,
      "t": 211894.18439583713,
      "d": 267.8563124999928,
      "v": 34
    },
    {
      "midi": 50,
      "hit": false,
      "t": 212261.2467500038,
      "d": 89.28543749998789,
      "v": 29
    },
    {
      "midi": 58,
      "hit": false,
      "t": 212365.4130937538,
      "d": 79.36483333338401,
      "v": 37
    },
    {
      "midi": 55,
      "hit": false,
      "t": 212375.33369792046,
      "d": 54.56332291671424,
      "v": 47
    },
    {
      "midi": 53,
      "hit": false,
      "t": 212380.2940000038,
      "d": 99.20604166673729,
      "v": 50
    },
    {
      "midi": 65,
      "hit": false,
      "t": 212385.25430208715,
      "d": 74.40453125003842,
      "v": 40
    },
    {
      "midi": 62,
      "hit": false,
      "t": 212390.2146041705,
      "d": 39.682416666677454,
      "v": 32
    },
    {
      "midi": 57,
      "hit": false,
      "t": 212697.7533333372,
      "d": 178.5708750000049,
      "v": 61
    },
    {
      "midi": 62,
      "hit": false,
      "t": 212712.6342395872,
      "d": 104.16634374999558,
      "v": 64
    },
    {
      "midi": 69,
      "hit": false,
      "t": 212712.6342395872,
      "d": 114.08694791665766,
      "v": 74
    },
    {
      "midi": 58,
      "hit": false,
      "t": 212712.6342395872,
      "d": 168.6502708333428,
      "v": 59
    },
    {
      "midi": 65,
      "hit": false,
      "t": 212732.47544792053,
      "d": 39.682416666677454,
      "v": 42
    },
    {
      "midi": 53,
      "hit": false,
      "t": 212886.2448125039,
      "d": 64.48392708331812,
      "v": 53
    },
    {
      "midi": 65,
      "hit": false,
      "t": 212906.08602083722,
      "d": 84.3251354166714,
      "v": 41
    },
    {
      "midi": 50,
      "hit": false,
      "t": 213223.54535417055,
      "d": 74.40453125000931,
      "v": 22
    },
    {
      "midi": 53,
      "hit": false,
      "t": 213312.83079167057,
      "d": 44.642718749993946,
      "v": 53
    },
    {
      "midi": 58,
      "hit": false,
      "t": 213342.59260417055,
      "d": 74.40453125000931,
      "v": 46
    },
    {
      "midi": 62,
      "hit": false,
      "t": 213342.59260417055,
      "d": 84.3251354166714,
      "v": 54
    },
    {
      "midi": 55,
      "hit": false,
      "t": 213347.5529062539,
      "d": 49.60302083333954,
      "v": 51
    },
    {
      "midi": 65,
      "hit": false,
      "t": 213347.5529062539,
      "d": 89.28543749998789,
      "v": 53
    },
    {
      "midi": 64,
      "hit": false,
      "t": 213798.9403958372,
      "d": 143.84876041667303,
      "v": 69
    },
    {
      "midi": 45,
      "hit": false,
      "t": 213808.86100000388,
      "d": 109.12664583334117,
      "v": 64
    },
    {
      "midi": 60,
      "hit": false,
      "t": 213808.86100000388,
      "d": 109.12664583334117,
      "v": 64
    },
    {
      "midi": 55,
      "hit": false,
      "t": 213818.78160417054,
      "d": 64.48392708334723,
      "v": 53
    },
    {
      "midi": 70,
      "hit": false,
      "t": 214275.1293958372,
      "d": 94.24573958336259,
      "v": 68
    },
    {
      "midi": 65,
      "hit": false,
      "t": 214280.08969792054,
      "d": 69.44422916669282,
      "v": 80
    },
    {
      "midi": 44,
      "hit": false,
      "t": 214280.08969792054,
      "d": 79.36483333335491,
      "v": 59
    },
    {
      "midi": 74,
      "hit": false,
      "t": 214280.08969792054,
      "d": 94.24573958336259,
      "v": 77
    },
    {
      "midi": 54,
      "hit": false,
      "t": 214285.0500000039,
      "d": 104.16634375002468,
      "v": 56
    },
    {
      "midi": 70,
      "hit": false,
      "t": 214592.5887291706,
      "d": 29.761812500015367,
      "v": 59
    },
    {
      "midi": 77,
      "hit": false,
      "t": 214602.50933333725,
      "d": 59.523625000030734,
      "v": 66
    },
    {
      "midi": 65,
      "hit": false,
      "t": 214607.4696354206,
      "d": 39.682416666677454,
      "v": 67
    },
    {
      "midi": 60,
      "hit": false,
      "t": 214622.3505416706,
      "d": 34.72211458333186,
      "v": 54
    },
    {
      "midi": 58,
      "hit": false,
      "t": 214622.3505416706,
      "d": 39.682416666677454,
      "v": 38
    },
    {
      "midi": 82,
      "hit": false,
      "t": 214756.2786979206,
      "d": 158.72966666670982,
      "v": 57
    },
    {
      "midi": 86,
      "hit": false,
      "t": 214761.23900000396,
      "d": 158.72966666670982,
      "v": 68
    },
    {
      "midi": 77,
      "hit": false,
      "t": 214766.1993020873,
      "d": 148.80906250001863,
      "v": 66
    },
    {
      "midi": 65,
      "hit": false,
      "t": 214766.1993020873,
      "d": 203.37238541670376,
      "v": 73
    },
    {
      "midi": 60,
      "hit": false,
      "t": 214771.15960417065,
      "d": 193.45178125001257,
      "v": 48
    },
    {
      "midi": 54,
      "hit": false,
      "t": 214771.15960417065,
      "d": 262.8960104167054,
      "v": 51
    },
    {
      "midi": 58,
      "hit": false,
      "t": 214771.15960417065,
      "d": 262.8960104167054,
      "v": 50
    },
    {
      "midi": 81,
      "hit": false,
      "t": 215068.7777291707,
      "d": 912.6955833333486,
      "v": 74
    },
    {
      "midi": 88,
      "hit": false,
      "t": 215073.73803125403,
      "d": 927.5764895833272,
      "v": 72
    },
    {
      "midi": 93,
      "hit": false,
      "t": 215073.73803125403,
      "d": 952.377999999997,
      "v": 69
    },
    {
      "midi": 64,
      "hit": false,
      "t": 215073.73803125403,
      "d": 1016.8619270833442,
      "v": 73
    },
    {
      "midi": 53,
      "hit": false,
      "t": 215088.61893750404,
      "d": 987.1001145833288,
      "v": 64
    },
    {
      "midi": 59,
      "hit": false,
      "t": 215088.61893750404,
      "d": 1011.9016249999986,
      "v": 66
    },
    {
      "midi": 96,
      "hit": false,
      "t": 216184.8456979207,
      "d": 79.36483333335491,
      "v": 59
    },
    {
      "midi": 64,
      "hit": false,
      "t": 216194.76630208737,
      "d": 44.642718749993946,
      "v": 49
    },
    {
      "midi": 59,
      "hit": false,
      "t": 216199.72660417072,
      "d": 44.642718749993946,
      "v": 42
    },
    {
      "midi": 91,
      "hit": false,
      "t": 216209.64720833738,
      "d": 39.682416666677454,
      "v": 36
    },
    {
      "midi": 84,
      "hit": false,
      "t": 216209.64720833738,
      "d": 49.60302083333954,
      "v": 27
    },
    {
      "midi": 62,
      "hit": false,
      "t": 217112.42218750404,
      "d": 153.76936458342243,
      "v": 32
    },
    {
      "midi": 58,
      "hit": false,
      "t": 217117.38248958738,
      "d": 143.84876041673124,
      "v": 37
    },
    {
      "midi": 53,
      "hit": false,
      "t": 217122.34279167073,
      "d": 163.68996875008452,
      "v": 28
    },
    {
      "midi": 101,
      "hit": false,
      "t": 217127.30309375408,
      "d": 153.76936458339333,
      "v": 36
    },
    {
      "midi": 105,
      "hit": false,
      "t": 217132.26339583742,
      "d": 138.88845833338564,
      "v": 51
    },
    {
      "midi": 93,
      "hit": false,
      "t": 217137.22369792077,
      "d": 99.20604166667908,
      "v": 32
    },
    {
      "midi": 57,
      "hit": false,
      "t": 217137.22369792077,
      "d": 114.08694791668677,
      "v": 42
    },
    {
      "midi": 98,
      "hit": false,
      "t": 217142.1840000041,
      "d": 109.12664583334117,
      "v": 34
    },
    {
      "midi": 93,
      "hit": false,
      "t": 217623.3333020875,
      "d": 178.570875000034,
      "v": 50
    },
    {
      "midi": 105,
      "hit": false,
      "t": 217623.3333020875,
      "d": 198.41208333335817,
      "v": 58
    },
    {
      "midi": 62,
      "hit": false,
      "t": 217623.3333020875,
      "d": 203.37238541670376,
      "v": 41
    },
    {
      "midi": 53,
      "hit": false,
      "t": 217628.29360417085,
      "d": 213.29298958336585,
      "v": 40
    },
    {
      "midi": 58,
      "hit": false,
      "t": 217633.2539062542,
      "d": 178.5708750000049,
      "v": 35
    },
    {
      "midi": 101,
      "hit": false,
      "t": 217643.17451042085,
      "d": 138.88845833335654,
      "v": 31
    },
    {
      "midi": 57,
      "hit": false,
      "t": 217648.1348125042,
      "d": 173.6105729166593,
      "v": 35
    },
    {
      "midi": 53,
      "hit": false,
      "t": 217930.8720312542,
      "d": 79.36483333335491,
      "v": 46
    },
    {
      "midi": 62,
      "hit": false,
      "t": 217950.71323958752,
      "d": 44.64271875002305,
      "v": 37
    },
    {
      "midi": 58,
      "hit": false,
      "t": 217955.67354167087,
      "d": 74.40453125000931,
      "v": 39
    },
    {
      "midi": 93,
      "hit": false,
      "t": 217955.67354167087,
      "d": 74.40453125000931,
      "v": 58
    },
    {
      "midi": 105,
      "hit": false,
      "t": 217955.67354167087,
      "d": 79.36483333335491,
      "v": 60
    },
    {
      "midi": 62,
      "hit": false,
      "t": 218089.6016979209,
      "d": 248.01510416672681,
      "v": 43
    },
    {
      "midi": 58,
      "hit": false,
      "t": 218094.56200000425,
      "d": 248.01510416672681,
      "v": 33
    },
    {
      "midi": 93,
      "hit": false,
      "t": 218109.44290625426,
      "d": 213.29298958333675,
      "v": 43
    },
    {
      "midi": 52,
      "hit": false,
      "t": 218109.44290625426,
      "d": 218.25329166668234,
      "v": 47
    },
    {
      "midi": 105,
      "hit": false,
      "t": 218109.44290625426,
      "d": 223.21359375002794,
      "v": 44
    },
    {
      "midi": 105,
      "hit": false,
      "t": 218412.02133333765,
      "d": 64.48392708337633,
      "v": 48
    },
    {
      "midi": 93,
      "hit": false,
      "t": 218416.981635421,
      "d": 54.56332291668514,
      "v": 45
    },
    {
      "midi": 62,
      "hit": false,
      "t": 218416.981635421,
      "d": 69.44422916669282,
      "v": 47
    },
    {
      "midi": 58,
      "hit": false,
      "t": 218416.981635421,
      "d": 74.40453125003842,
      "v": 50
    },
    {
      "midi": 52,
      "hit": false,
      "t": 218421.94193750434,
      "d": 49.60302083333954,
      "v": 35
    },
    {
      "midi": 64,
      "hit": false,
      "t": 219041.97969792102,
      "d": 148.80906250004773,
      "v": 47
    },
    {
      "midi": 105,
      "hit": false,
      "t": 219046.94000000437,
      "d": 143.84876041670213,
      "v": 65
    },
    {
      "midi": 93,
      "hit": false,
      "t": 219051.9003020877,
      "d": 114.08694791668677,
      "v": 57
    },
    {
      "midi": 60,
      "hit": false,
      "t": 219051.9003020877,
      "d": 143.84876041670213,
      "v": 40
    },
    {
      "midi": 53,
      "hit": false,
      "t": 219056.86060417106,
      "d": 153.76936458336422,
      "v": 32
    },
    {
      "midi": 57,
      "hit": false,
      "t": 219061.8209062544,
      "d": 148.80906250001863,
      "v": 40
    },
    {
      "midi": 64,
      "hit": false,
      "t": 219523.1290000044,
      "d": 218.25329166668234,
      "v": 54
    },
    {
      "midi": 105,
      "hit": false,
      "t": 219533.04960417107,
      "d": 178.5708750000049,
      "v": 68
    },
    {
      "midi": 53,
      "hit": false,
      "t": 219538.00990625442,
      "d": 203.37238541667466,
      "v": 33
    },
    {
      "midi": 60,
      "hit": false,
      "t": 219538.00990625442,
      "d": 208.33268750002026,
      "v": 44
    },
    {
      "midi": 93,
      "hit": false,
      "t": 219542.97020833776,
      "d": 173.6105729166593,
      "v": 44
    },
    {
      "midi": 57,
      "hit": false,
      "t": 219552.89081250443,
      "d": 188.49147916666698,
      "v": 41
    },
    {
      "midi": 64,
      "hit": false,
      "t": 219860.4295416711,
      "d": 64.48392708340543,
      "v": 53
    },
    {
      "midi": 105,
      "hit": false,
      "t": 219865.38984375444,
      "d": 74.40453125009662,
      "v": 68
    },
    {
      "midi": 93,
      "hit": false,
      "t": 219870.3501458378,
      "d": 59.52362500005984,
      "v": 59
    },
    {
      "midi": 60,
      "hit": false,
      "t": 219875.31044792113,
      "d": 44.64271875002305,
      "v": 39
    },
    {
      "midi": 57,
      "hit": false,
      "t": 219880.27075000448,
      "d": 39.682416666677454,
      "v": 36
    },
    {
      "midi": 53,
      "hit": false,
      "t": 219885.23105208782,
      "d": 34.72211458333186,
      "v": 27
    },
    {
      "midi": 100,
      "hit": false,
      "t": 219900.11195833783,
      "d": 34.72211458336096,
      "v": 29
    },
    {
      "midi": 93,
      "hit": false,
      "t": 220014.19890625455,
      "d": 198.41208333335817,
      "v": 62
    },
    {
      "midi": 105,
      "hit": false,
      "t": 220019.1592083379,
      "d": 178.5708750000049,
      "v": 64
    },
    {
      "midi": 62,
      "hit": false,
      "t": 220336.61854167123,
      "d": 411.7050729166658,
      "v": 69
    },
    {
      "midi": 56,
      "hit": false,
      "t": 220336.61854167123,
      "d": 560.5141354166844,
      "v": 69
    },
    {
      "midi": 67,
      "hit": false,
      "t": 220341.57884375457,
      "d": 456.34779166665976,
      "v": 69
    },
    {
      "midi": 93,
      "hit": false,
      "t": 220341.57884375457,
      "d": 500.9905104166537,
      "v": 71
    },
    {
      "midi": 105,
      "hit": false,
      "t": 220341.57884375457,
      "d": 515.8714166666614,
      "v": 74
    },
    {
      "midi": 100,
      "hit": false,
      "t": 220371.34065625456,
      "d": 461.30809375000536,
      "v": 35
    },
    {
      "midi": 64,
      "hit": false,
      "t": 220966.57690625457,
      "d": 188.4914791667543,
      "v": 55
    },
    {
      "midi": 55,
      "hit": false,
      "t": 220971.53720833792,
      "d": 143.84876041670213,
      "v": 46
    },
    {
      "midi": 60,
      "hit": false,
      "t": 220981.45781250458,
      "d": 128.96785416669445,
      "v": 50
    },
    {
      "midi": 93,
      "hit": false,
      "t": 220986.41811458793,
      "d": 133.92815625004005,
      "v": 56
    },
    {
      "midi": 105,
      "hit": false,
      "t": 220986.41811458793,
      "d": 168.650270833401,
      "v": 43
    },
    {
      "midi": 57,
      "hit": false,
      "t": 221001.29902083793,
      "d": 133.92815625004005,
      "v": 36
    },
    {
      "midi": 100,
      "hit": false,
      "t": 221006.25932292128,
      "d": 133.92815625004005,
      "v": 43
    },
    {
      "midi": 105,
      "hit": false,
      "t": 221447.72620833802,
      "d": 158.72966666670982,
      "v": 68
    },
    {
      "midi": 93,
      "hit": false,
      "t": 221452.68651042136,
      "d": 163.6899687500263,
      "v": 61
    },
    {
      "midi": 64,
      "hit": false,
      "t": 221452.68651042136,
      "d": 173.6105729166884,
      "v": 54
    },
    {
      "midi": 55,
      "hit": false,
      "t": 221452.68651042136,
      "d": 183.5311770833796,
      "v": 53
    },
    {
      "midi": 100,
      "hit": false,
      "t": 221457.6468125047,
      "d": 148.80906250001863,
      "v": 55
    },
    {
      "midi": 57,
      "hit": false,
      "t": 221462.60711458806,
      "d": 183.53117708335049,
      "v": 48
    },
    {
      "midi": 60,
      "hit": false,
      "t": 221477.48802083806,
      "d": 153.76936458333512,
      "v": 34
    },
    {
      "midi": 55,
      "hit": false,
      "t": 221755.26493750475,
      "d": 74.40453125003842,
      "v": 60
    },
    {
      "midi": 64,
      "hit": false,
      "t": 221760.2252395881,
      "d": 79.36483333338401,
      "v": 53
    },
    {
      "midi": 93,
      "hit": false,
      "t": 221765.18554167144,
      "d": 59.52362500000163,
      "v": 66
    },
    {
      "midi": 105,
      "hit": false,
      "t": 221765.18554167144,
      "d": 69.44422916669282,
      "v": 68
    },
    {
      "midi": 100,
      "hit": false,
      "t": 221775.1061458381,
      "d": 49.60302083333954,
      "v": 55
    },
    {
      "midi": 60,
      "hit": false,
      "t": 221775.1061458381,
      "d": 79.36483333338401,
      "v": 44
    },
    {
      "midi": 57,
      "hit": false,
      "t": 221785.02675000476,
      "d": 34.72211458333186,
      "v": 38
    },
    {
      "midi": 65,
      "hit": false,
      "t": 221943.7564166715,
      "d": 198.41208333335817,
      "v": 61
    },
    {
      "midi": 54,
      "hit": false,
      "t": 221948.71671875485,
      "d": 223.21359374999884,
      "v": 61
    },
    {
      "midi": 60,
      "hit": false,
      "t": 221948.71671875485,
      "d": 238.09450000000652,
      "v": 37
    },
    {
      "midi": 58,
      "hit": false,
      "t": 221953.6770208382,
      "d": 188.49147916666698,
      "v": 42
    },
    {
      "midi": 94,
      "hit": false,
      "t": 221963.59762500486,
      "d": 148.80906250001863,
      "v": 57
    },
    {
      "midi": 106,
      "hit": false,
      "t": 221963.59762500486,
      "d": 148.80906250001863,
      "v": 60
    },
    {
      "midi": 101,
      "hit": false,
      "t": 221978.47853125486,
      "d": 104.16634375002468,
      "v": 45
    },
    {
      "midi": 101,
      "hit": false,
      "t": 222261.21575000486,
      "d": 401.7844687500037,
      "v": 63
    },
    {
      "midi": 65,
      "hit": false,
      "t": 222276.09665625487,
      "d": 446.4271874999977,
      "v": 62
    },
    {
      "midi": 54,
      "hit": false,
      "t": 222276.09665625487,
      "d": 540.6729270833312,
      "v": 55
    },
    {
      "midi": 89,
      "hit": false,
      "t": 222281.05695833822,
      "d": 357.1417499999807,
      "v": 37
    },
    {
      "midi": 60,
      "hit": false,
      "t": 222281.05695833822,
      "d": 401.7844687499746,
      "v": 44
    },
    {
      "midi": 58,
      "hit": false,
      "t": 222286.01726042156,
      "d": 525.7920208332944,
      "v": 46
    },
    {
      "midi": 91,
      "hit": false,
      "t": 222295.93786458822,
      "d": 34.72211458333186,
      "v": 27
    },
    {
      "midi": 64,
      "hit": false,
      "t": 222856.45200000488,
      "d": 183.5311770834087,
      "v": 54
    },
    {
      "midi": 93,
      "hit": false,
      "t": 222861.41230208823,
      "d": 153.76936458339333,
      "v": 67
    },
    {
      "midi": 105,
      "hit": false,
      "t": 222866.37260417157,
      "d": 109.12664583337028,
      "v": 60
    },
    {
      "midi": 53,
      "hit": false,
      "t": 222871.33290625492,
      "d": 188.49147916669608,
      "v": 40
    },
    {
      "midi": 59,
      "hit": false,
      "t": 222876.29320833826,
      "d": 173.6105729166884,
      "v": 54
    },
    {
      "midi": 100,
      "hit": false,
      "t": 222881.2535104216,
      "d": 99.20604166667908,
      "v": 54
    },
    {
      "midi": 51,
      "hit": false,
      "t": 223689.78275000493,
      "d": 119.04725000003236,
      "v": 25
    },
    {
      "midi": 52,
      "hit": false,
      "t": 223784.02848958827,
      "d": 39.68241666670656,
      "v": 31
    },
    {
      "midi": 64,
      "hit": false,
      "t": 223798.90939583827,
      "d": 238.09450000003562,
      "v": 51
    },
    {
      "midi": 53,
      "hit": false,
      "t": 223798.90939583827,
      "d": 416.6653750000405,
      "v": 57
    },
    {
      "midi": 59,
      "hit": false,
      "t": 223803.86969792162,
      "d": 297.61812500003725,
      "v": 49
    },
    {
      "midi": 69,
      "hit": false,
      "t": 223803.86969792162,
      "d": 391.86386458337074,
      "v": 51
    },
    {
      "midi": 54,
      "hit": false,
      "t": 224260.2174895883,
      "d": 322.4196354166488,
      "v": 38
    },
    {
      "midi": 63,
      "hit": false,
      "t": 224265.17779167165,
      "d": 372.02265624995925,
      "v": 56
    },
    {
      "midi": 59,
      "hit": false,
      "t": 224275.09839583831,
      "d": 228.17389583331533,
      "v": 47
    },
    {
      "midi": 66,
      "hit": false,
      "t": 224294.93960417164,
      "d": 238.09449999997742,
      "v": 27
    },
    {
      "midi": 51,
      "hit": false,
      "t": 224612.39893750494,
      "d": 119.04725000000326,
      "v": 18
    },
    {
      "midi": 65,
      "hit": false,
      "t": 224731.44618750495,
      "d": 119.04724999997416,
      "v": 48
    },
    {
      "midi": 53,
      "hit": false,
      "t": 224731.44618750495,
      "d": 158.7296666666516,
      "v": 38
    },
    {
      "midi": 62,
      "hit": false,
      "t": 224741.3667916716,
      "d": 99.20604166664998,
      "v": 49
    },
    {
      "midi": 58,
      "hit": false,
      "t": 224751.28739583827,
      "d": 133.92815624998184,
      "v": 26
    },
    {
      "midi": 50,
      "hit": false,
      "t": 225058.82612500494,
      "d": 352.1814479167224,
      "v": 58
    },
    {
      "midi": 65,
      "hit": false,
      "t": 225063.7864270883,
      "d": 148.80906250001863,
      "v": 55
    },
    {
      "midi": 58,
      "hit": false,
      "t": 225063.7864270883,
      "d": 193.45178125001257,
      "v": 48
    },
    {
      "midi": 55,
      "hit": false,
      "t": 225068.74672917163,
      "d": 173.6105729166593,
      "v": 58
    },
    {
      "midi": 62,
      "hit": false,
      "t": 225073.70703125498,
      "d": 193.45178124998347,
      "v": 52
    },
    {
      "midi": 67,
      "hit": false,
      "t": 225406.04727083832,
      "d": 79.3648333333258,
      "v": 73
    },
    {
      "midi": 53,
      "hit": false,
      "t": 225420.92817708832,
      "d": 44.642718749993946,
      "v": 42
    },
    {
      "midi": 51,
      "hit": false,
      "t": 225549.896031255,
      "d": 29.761812499986263,
      "v": 31
    },
    {
      "midi": 65,
      "hit": false,
      "t": 225584.61814583832,
      "d": 59.52362500000163,
      "v": 24
    },
    {
      "midi": 58,
      "hit": false,
      "t": 226011.204125005,
      "d": 59.52362500000163,
      "v": 62
    },
    {
      "midi": 67,
      "hit": false,
      "t": 226021.12472917166,
      "d": 59.52362500000163,
      "v": 66
    },
    {
      "midi": 64,
      "hit": false,
      "t": 226021.12472917166,
      "d": 79.3648333333258,
      "v": 68
    },
    {
      "midi": 55,
      "hit": false,
      "t": 226026.085031255,
      "d": 74.40453124998021,
      "v": 62
    },
    {
      "midi": 67,
      "hit": false,
      "t": 226303.86194792166,
      "d": 74.40453125000931,
      "v": 64
    },
    {
      "midi": 58,
      "hit": false,
      "t": 226308.822250005,
      "d": 59.52362500000163,
      "v": 60
    },
    {
      "midi": 55,
      "hit": false,
      "t": 226328.66345833833,
      "d": 49.60302083333954,
      "v": 34
    },
    {
      "midi": 64,
      "hit": false,
      "t": 226333.62376042167,
      "d": 34.72211458333186,
      "v": 36
    },
    {
      "midi": 55,
      "hit": false,
      "t": 226447.71070833833,
      "d": 44.642718749993946,
      "v": 14
    },
    {
      "midi": 48,
      "hit": false,
      "t": 226467.55191667165,
      "d": 34.72211458333186,
      "v": 37
    },
    {
      "midi": 72,
      "hit": false,
      "t": 226829.65396875498,
      "d": 29.761812500015367,
      "v": 59
    },
    {
      "midi": 61,
      "hit": false,
      "t": 226844.534875005,
      "d": 44.64271875002305,
      "v": 34
    },
    {
      "midi": 60,
      "hit": false,
      "t": 226849.49517708833,
      "d": 29.761812500015367,
      "v": 45
    },
    {
      "midi": 55,
      "hit": false,
      "t": 226864.37608333834,
      "d": 39.682416666677454,
      "v": 35
    },
    {
      "midi": 72,
      "hit": false,
      "t": 227107.4308854217,
      "d": 69.44422916666372,
      "v": 60
    },
    {
      "midi": 65,
      "hit": false,
      "t": 227112.39118750504,
      "d": 54.563322916656034,
      "v": 60
    },
    {
      "midi": 60,
      "hit": false,
      "t": 227112.39118750504,
      "d": 74.40453125000931,
      "v": 34
    },
    {
      "midi": 69,
      "hit": false,
      "t": 227122.3117916717,
      "d": 34.72211458333186,
      "v": 38
    },
    {
      "midi": 61,
      "hit": false,
      "t": 227122.3117916717,
      "d": 59.52362500000163,
      "v": 27
    },
    {
      "midi": 55,
      "hit": false,
      "t": 227127.27209375505,
      "d": 79.3648333333258,
      "v": 39
    },
    {
      "midi": 61,
      "hit": false,
      "t": 227241.3590416717,
      "d": 69.44422916669282,
      "v": 29
    },
    {
      "midi": 60,
      "hit": false,
      "t": 227246.31934375505,
      "d": 49.60302083333954,
      "v": 36
    },
    {
      "midi": 69,
      "hit": false,
      "t": 227251.2796458384,
      "d": 49.60302083333954,
      "v": 42
    },
    {
      "midi": 55,
      "hit": false,
      "t": 227251.2796458384,
      "d": 74.40453125000931,
      "v": 17
    },
    {
      "midi": 64,
      "hit": false,
      "t": 227444.7314270884,
      "d": 515.8714166666905,
      "v": 71
    },
    {
      "midi": 69,
      "hit": false,
      "t": 227444.7314270884,
      "d": 560.5141354167135,
      "v": 62
    },
    {
      "midi": 72,
      "hit": false,
      "t": 227444.7314270884,
      "d": 922.6161875000689,
      "v": 65
    },
    {
      "midi": 54,
      "hit": false,
      "t": 227449.69172917175,
      "d": 515.8714166666905,
      "v": 67
    },
    {
      "midi": 60,
      "hit": false,
      "t": 227454.6520312551,
      "d": 505.9508124999993,
      "v": 64
    },
    {
      "midi": 60,
      "hit": false,
      "t": 228059.8088854218,
      "d": 193.45178125001257,
      "v": 45
    },
    {
      "midi": 64,
      "hit": false,
      "t": 228064.76918750515,
      "d": 238.09450000000652,
      "v": 48
    },
    {
      "midi": 68,
      "hit": false,
      "t": 228064.76918750515,
      "d": 282.73721875000047,
      "v": 55
    },
    {
      "midi": 54,
      "hit": false,
      "t": 228064.76918750515,
      "d": 307.53872916667024,
      "v": 47
    },
    {
      "midi": 67,
      "hit": false,
      "t": 228397.1094270885,
      "d": 223.21359374999884,
      "v": 58
    },
    {
      "midi": 64,
      "hit": false,
      "t": 228402.06972917184,
      "d": 203.37238541664556,
      "v": 42
    },
    {
      "midi": 59,
      "hit": false,
      "t": 228402.06972917184,
      "d": 287.69752083331696,
      "v": 45
    },
    {
      "midi": 53,
      "hit": false,
      "t": 228426.8712395885,
      "d": 238.09449999997742,
      "v": 46
    },
    {
      "midi": 69,
      "hit": false,
      "t": 228883.21903125517,
      "d": 481.14930208335863,
      "v": 63
    },
    {
      "midi": 77,
      "hit": false,
      "t": 228888.1793333385,
      "d": 74.40453125000931,
      "v": 60
    },
    {
      "midi": 64,
      "hit": false,
      "t": 228888.1793333385,
      "d": 476.18900000001304,
      "v": 71
    },
    {
      "midi": 76,
      "hit": false,
      "t": 228888.1793333385,
      "d": 491.0699062500207,
      "v": 60
    },
    {
      "midi": 65,
      "hit": false,
      "t": 228898.09993750518,
      "d": 471.22869791669655,
      "v": 53
    },
    {
      "midi": 53,
      "hit": false,
      "t": 228903.06023958852,
      "d": 481.14930208335863,
      "v": 59
    },
    {
      "midi": 59,
      "hit": false,
      "t": 228903.06023958852,
      "d": 491.0699062500207,
      "v": 58
    },
    {
      "midi": 67,
      "hit": false,
      "t": 228908.02054167187,
      "d": 29.761812499986263,
      "v": 56
    },
    {
      "midi": 59,
      "hit": false,
      "t": 229508.2170937552,
      "d": 168.6502708333428,
      "v": 40
    },
    {
      "midi": 65,
      "hit": false,
      "t": 229513.17739583855,
      "d": 138.88845833332743,
      "v": 36
    },
    {
      "midi": 62,
      "hit": false,
      "t": 229518.1376979219,
      "d": 124.00755208331975,
      "v": 39
    },
    {
      "midi": 69,
      "hit": false,
      "t": 229518.1376979219,
      "d": 124.00755208331975,
      "v": 57
    },
    {
      "midi": 76,
      "hit": false,
      "t": 229523.09800000524,
      "d": 143.84876041664393,
      "v": 35
    },
    {
      "midi": 53,
      "hit": false,
      "t": 229533.0186041719,
      "d": 89.28543749998789,
      "v": 30
    },
    {
      "midi": 65,
      "hit": false,
      "t": 229994.32669792188,
      "d": 173.6105729167175,
      "v": 50
    },
    {
      "midi": 62,
      "hit": false,
      "t": 229999.28700000522,
      "d": 114.08694791668677,
      "v": 39
    },
    {
      "midi": 59,
      "hit": false,
      "t": 230004.24730208857,
      "d": 99.20604166667908,
      "v": 37
    },
    {
      "midi": 74,
      "hit": false,
      "t": 230004.24730208857,
      "d": 158.7296666666807,
      "v": 47
    },
    {
      "midi": 69,
      "hit": false,
      "t": 230009.2076041719,
      "d": 168.6502708333719,
      "v": 48
    },
    {
      "midi": 53,
      "hit": false,
      "t": 230019.12820833857,
      "d": 153.76936458336422,
      "v": 36
    },
    {
      "midi": 67,
      "hit": false,
      "t": 230460.59509375528,
      "d": 510.9111145833449,
      "v": 48
    },
    {
      "midi": 58,
      "hit": false,
      "t": 230460.59509375528,
      "d": 540.6729270833312,
      "v": 35
    },
    {
      "midi": 62,
      "hit": false,
      "t": 230465.55539583863,
      "d": 456.34779166665976,
      "v": 34
    },
    {
      "midi": 52,
      "hit": false,
      "t": 230470.51569792198,
      "d": 500.9905104166537,
      "v": 37
    },
    {
      "midi": 72,
      "hit": false,
      "t": 230470.51569792198,
      "d": 510.9111145833158,
      "v": 33
    },
    {
      "midi": 74,
      "hit": false,
      "t": 231403.05248958862,
      "d": 540.6729270833603,
      "v": 40
    },
    {
      "midi": 71,
      "hit": false,
      "t": 231403.05248958862,
      "d": 570.4347395833465,
      "v": 41
    },
    {
      "midi": 64,
      "hit": false,
      "t": 231408.01279167196,
      "d": 545.6332291666768,
      "v": 36
    },
    {
      "midi": 68,
      "hit": false,
      "t": 231408.01279167196,
      "d": 545.6332291666768,
      "v": 45
    },
    {
      "midi": 60,
      "hit": false,
      "t": 231417.93339583863,
      "d": 471.22869791666744,
      "v": 37
    },
    {
      "midi": 54,
      "hit": false,
      "t": 231422.89369792197,
      "d": 505.9508124999993,
      "v": 37
    },
    {
      "midi": 70,
      "hit": false,
      "t": 232365.3510937553,
      "d": 252.9754062499851,
      "v": 44
    },
    {
      "midi": 55,
      "hit": false,
      "t": 232365.3510937553,
      "d": 505.9508124999702,
      "v": 46
    },
    {
      "midi": 62,
      "hit": false,
      "t": 232370.31139583865,
      "d": 158.7296666666516,
      "v": 45
    },
    {
      "midi": 67,
      "hit": false,
      "t": 232370.31139583865,
      "d": 203.37238541664556,
      "v": 47
    },
    {
      "midi": 58,
      "hit": false,
      "t": 232380.23200000532,
      "d": 476.18899999995483,
      "v": 34
    },
    {
      "midi": 76,
      "hit": false,
      "t": 232836.57979167195,
      "d": 168.6502708333428,
      "v": 91
    },
    {
      "midi": 74,
      "hit": false,
      "t": 233292.92758333863,
      "d": 267.856312500051,
      "v": 65
    },
    {
      "midi": 70,
      "hit": false,
      "t": 233297.88788542198,
      "d": 302.57842708338285,
      "v": 50
    },
    {
      "midi": 68,
      "hit": false,
      "t": 233302.84818750533,
      "d": 312.49903125004494,
      "v": 39
    },
    {
      "midi": 58,
      "hit": false,
      "t": 233312.768791672,
      "d": 342.2608437500603,
      "v": 43
    },
    {
      "midi": 64,
      "hit": false,
      "t": 233317.72909375533,
      "d": 342.2608437500603,
      "v": 20
    },
    {
      "midi": 58,
      "hit": false,
      "t": 233774.07688542208,
      "d": 128.96785416669445,
      "v": 45
    },
    {
      "midi": 68,
      "hit": false,
      "t": 233774.07688542208,
      "d": 342.2608437500312,
      "v": 51
    },
    {
      "midi": 64,
      "hit": false,
      "t": 233779.03718750543,
      "d": 163.6899687500263,
      "v": 53
    },
    {
      "midi": 72,
      "hit": false,
      "t": 233788.9577916721,
      "d": 396.82416666668723,
      "v": 50
    },
    {
      "midi": 61,
      "hit": false,
      "t": 234260.18648958878,
      "d": 649.7995729166723,
      "v": 38
    },
    {
      "midi": 65,
      "hit": false,
      "t": 234270.10709375548,
      "d": 575.395041666663,
      "v": 51
    },
    {
      "midi": 69,
      "hit": false,
      "t": 234270.10709375548,
      "d": 629.958364583319,
      "v": 54
    },
    {
      "midi": 60,
      "hit": false,
      "t": 234270.10709375548,
      "d": 659.7201770833053,
      "v": 36
    },
    {
      "midi": 55,
      "hit": false,
      "t": 234280.02769792214,
      "d": 679.5613854166295,
      "v": 45
    },
    {
      "midi": 64,
      "hit": false,
      "t": 235232.4056979221,
      "d": 530.7523229166691,
      "v": 48
    },
    {
      "midi": 68,
      "hit": false,
      "t": 235232.4056979221,
      "d": 540.6729270833312,
      "v": 43
    },
    {
      "midi": 72,
      "hit": false,
      "t": 235237.36600000545,
      "d": 515.8714166666614,
      "v": 48
    },
    {
      "midi": 60,
      "hit": false,
      "t": 235242.3263020888,
      "d": 416.6653749999823,
      "v": 41
    },
    {
      "midi": 54,
      "hit": false,
      "t": 235252.24690625546,
      "d": 496.0302083333081,
      "v": 37
    },
    {
      "midi": 67,
      "hit": false,
      "t": 236199.6646041721,
      "d": 228.17389583337354,
      "v": 51
    },
    {
      "midi": 58,
      "hit": false,
      "t": 236204.62490625546,
      "d": 238.09450000003562,
      "v": 32
    },
    {
      "midi": 55,
      "hit": false,
      "t": 236209.5852083388,
      "d": 590.2759479166998,
      "v": 40
    },
    {
      "midi": 62,
      "hit": false,
      "t": 236214.54551042215,
      "d": 248.0151041666686,
      "v": 43
    },
    {
      "midi": 46,
      "hit": false,
      "t": 236224.4661145888,
      "d": 560.5141354166844,
      "v": 27
    },
    {
      "midi": 77,
      "hit": false,
      "t": 236968.51142708884,
      "d": 79.3648333333258,
      "v": 95
    },
    {
      "midi": 56,
      "hit": false,
      "t": 237439.7401250055,
      "d": 74.40453125003842,
      "v": 46
    },
    {
      "midi": 74,
      "hit": false,
      "t": 237444.70042708886,
      "d": 54.56332291668514,
      "v": 78
    },
    {
      "midi": 68,
      "hit": false,
      "t": 237449.6607291722,
      "d": 39.682416666677454,
      "v": 65
    },
    {
      "midi": 65,
      "hit": false,
      "t": 237454.62103125555,
      "d": 29.761812499986263,
      "v": 71
    },
    {
      "midi": 47,
      "hit": false,
      "t": 237454.62103125555,
      "d": 44.642718749993946,
      "v": 38
    },
    {
      "midi": 68,
      "hit": false,
      "t": 237886.16731250554,
      "d": 89.285437500017,
      "v": 52
    },
    {
      "midi": 56,
      "hit": false,
      "t": 237891.12761458888,
      "d": 99.20604166667908,
      "v": 37
    },
    {
      "midi": 62,
      "hit": false,
      "t": 237896.08791667223,
      "d": 44.642718749993946,
      "v": 52
    },
    {
      "midi": 71,
      "hit": false,
      "t": 237906.0085208389,
      "d": 34.72211458333186,
      "v": 39
    },
    {
      "midi": 65,
      "hit": false,
      "t": 237910.96882292224,
      "d": 34.72211458333186,
      "v": 32
    },
    {
      "midi": 72,
      "hit": false,
      "t": 238059.77788542223,
      "d": 94.24573958336259,
      "v": 56
    },
    {
      "midi": 65,
      "hit": false,
      "t": 238069.6984895889,
      "d": 74.40453125000931,
      "v": 32
    },
    {
      "midi": 57,
      "hit": false,
      "t": 238074.65879167223,
      "d": 74.40453125000931,
      "v": 31
    },
    {
      "midi": 48,
      "hit": false,
      "t": 238079.61909375558,
      "d": 54.563322916656034,
      "v": 39
    },
    {
      "midi": 60,
      "hit": false,
      "t": 238079.61909375558,
      "d": 64.48392708331812,
      "v": 35
    },
    {
      "midi": 69,
      "hit": false,
      "t": 238089.53969792224,
      "d": 69.44422916669282,
      "v": 25
    },
    {
      "midi": 65,
      "hit": false,
      "t": 238526.0462812556,
      "d": 624.9980625000026,
      "v": 55
    },
    {
      "midi": 69,
      "hit": false,
      "t": 238526.0462812556,
      "d": 634.9186666666646,
      "v": 55
    },
    {
      "midi": 72,
      "hit": false,
      "t": 238526.0462812556,
      "d": 724.2041041666525,
      "v": 57
    },
    {
      "midi": 60,
      "hit": false,
      "t": 238531.00658333895,
      "d": 525.7920208333235,
      "v": 51
    },
    {
      "midi": 57,
      "hit": false,
      "t": 238545.88748958896,
      "d": 500.9905104166537,
      "v": 40
    },
    {
      "midi": 48,
      "hit": false,
      "t": 238545.88748958896,
      "d": 545.6332291666477,
      "v": 37
    },
    {
      "midi": 69,
      "hit": false,
      "t": 239463.5433750056,
      "d": 138.88845833335654,
      "v": 59
    },
    {
      "midi": 48,
      "hit": false,
      "t": 239473.46397917226,
      "d": 89.285437500017,
      "v": 44
    },
    {
      "midi": 60,
      "hit": false,
      "t": 239478.4242812556,
      "d": 69.44422916666372,
      "v": 45
    },
    {
      "midi": 65,
      "hit": false,
      "t": 239478.4242812556,
      "d": 79.3648333333258,
      "v": 51
    },
    {
      "midi": 57,
      "hit": false,
      "t": 239488.34488542227,
      "d": 79.36483333335491,
      "v": 32
    },
    {
      "midi": 65,
      "hit": false,
      "t": 239954.61328125562,
      "d": 64.48392708337633,
      "v": 64
    },
    {
      "midi": 58,
      "hit": false,
      "t": 239954.61328125562,
      "d": 119.04725000003236,
      "v": 44
    },
    {
      "midi": 72,
      "hit": false,
      "t": 239959.57358333896,
      "d": 79.36483333335491,
      "v": 55
    },
    {
      "midi": 60,
      "hit": false,
      "t": 239964.5338854223,
      "d": 44.642718749993946,
      "v": 50
    },
    {
      "midi": 62,
      "hit": false,
      "t": 239964.5338854223,
      "d": 49.60302083333954,
      "v": 40
    },
    {
      "midi": 69,
      "hit": false,
      "t": 239964.5338854223,
      "d": 79.36483333335491,
      "v": 51
    },
    {
      "midi": 58,
      "hit": false,
      "t": 240445.68318750564,
      "d": 431.54628124999,
      "v": 38
    },
    {
      "midi": 69,
      "hit": false,
      "t": 240445.68318750564,
      "d": 530.75232291664,
      "v": 61
    },
    {
      "midi": 62,
      "hit": false,
      "t": 240450.64348958898,
      "d": 357.1417499999807,
      "v": 36
    },
    {
      "midi": 65,
      "hit": false,
      "t": 240450.64348958898,
      "d": 471.22869791663834,
      "v": 62
    },
    {
      "midi": 72,
      "hit": false,
      "t": 240450.64348958898,
      "d": 575.3950416666339,
      "v": 55
    },
    {
      "midi": 68,
      "hit": false,
      "t": 241259.17272917228,
      "d": 267.8563124999928,
      "v": 59
    },
    {
      "midi": 72,
      "hit": false,
      "t": 241264.13303125562,
      "d": 208.33268749999115,
      "v": 65
    },
    {
      "midi": 64,
      "hit": false,
      "t": 241264.13303125562,
      "d": 267.8563124999928,
      "v": 66
    },
    {
      "midi": 62,
      "hit": false,
      "t": 241269.09333333897,
      "d": 178.57087499997579,
      "v": 53
    },
    {
      "midi": 58,
      "hit": false,
      "t": 241269.09333333897,
      "d": 223.21359374996973,
      "v": 47
    },
    {
      "midi": 52,
      "hit": false,
      "t": 241288.9345416723,
      "d": 272.8166145833093,
      "v": 40
    },
    {
      "midi": 57,
      "hit": false,
      "t": 241894.09139583894,
      "d": 49.603020833368646,
      "v": 65
    },
    {
      "midi": 60,
      "hit": false,
      "t": 241899.0516979223,
      "d": 34.72211458333186,
      "v": 60
    },
    {
      "midi": 65,
      "hit": false,
      "t": 241899.0516979223,
      "d": 54.56332291668514,
      "v": 61
    },
    {
      "midi": 62,
      "hit": false,
      "t": 241904.01200000563,
      "d": 34.72211458333186,
      "v": 50
    },
    {
      "midi": 48,
      "hit": false,
      "t": 242221.47133333897,
      "d": 1175.591593750025,
      "v": 83
    },
    {
      "midi": 47,
      "hit": false,
      "t": 242226.4316354223,
      "d": 24.80151041666977,
      "v": 70
    },
    {
      "midi": 64,
      "hit": false,
      "t": 244260.15548958897,
      "d": 173.6105729166593,
      "v": 40
    },
    {
      "midi": 58,
      "hit": false,
      "t": 244260.15548958897,
      "d": 218.25329166665324,
      "v": 37
    },
    {
      "midi": 67,
      "hit": false,
      "t": 244597.45603125563,
      "d": 183.5311770833796,
      "v": 41
    },
    {
      "midi": 63,
      "hit": false,
      "t": 244602.41633333897,
      "d": 2410.7068125000224,
      "v": 59
    },
    {
      "midi": 77,
      "hit": false,
      "t": 244607.37663542232,
      "d": 228.17389583334443,
      "v": 42
    },
    {
      "midi": 72,
      "hit": false,
      "t": 244612.33693750566,
      "d": 193.45178125001257,
      "v": 51
    },
    {
      "midi": 57,
      "hit": false,
      "t": 244622.25754167236,
      "d": 2385.9053020832944,
      "v": 52
    },
    {
      "midi": 91,
      "hit": false,
      "t": 245019.08170833898,
      "d": 59.52362500000163,
      "v": 57
    },
    {
      "midi": 79,
      "hit": false,
      "t": 245024.04201042233,
      "d": 44.642718749993946,
      "v": 49
    },
    {
      "midi": 81,
      "hit": false,
      "t": 245272.057114589,
      "d": 39.682416666677454,
      "v": 41
    },
    {
      "midi": 93,
      "hit": false,
      "t": 245272.057114589,
      "d": 59.52362500000163,
      "v": 52
    },
    {
      "midi": 86,
      "hit": false,
      "t": 245505.19131250566,
      "d": 44.64271875002305,
      "v": 54
    },
    {
      "midi": 98,
      "hit": false,
      "t": 245510.151614589,
      "d": 59.52362500000163,
      "v": 59
    },
    {
      "midi": 89,
      "hit": false,
      "t": 245773.04762500568,
      "d": 34.72211458333186,
      "v": 62
    },
    {
      "midi": 101,
      "hit": false,
      "t": 245778.00792708903,
      "d": 59.523624999972526,
      "v": 48
    },
    {
      "midi": 91,
      "hit": false,
      "t": 246021.06272917232,
      "d": 59.52362500000163,
      "v": 48
    },
    {
      "midi": 103,
      "hit": false,
      "t": 246021.06272917232,
      "d": 69.44422916666372,
      "v": 48
    },
    {
      "midi": 105,
      "hit": false,
      "t": 246293.87934375566,
      "d": 74.40453125000931,
      "v": 48
    },
    {
      "midi": 93,
      "hit": false,
      "t": 246298.839645839,
      "d": 49.60302083333954,
      "v": 43
    },
    {
      "midi": 108,
      "hit": false,
      "t": 246546.85475000567,
      "d": 89.28543749998789,
      "v": 59
    },
    {
      "midi": 96,
      "hit": false,
      "t": 246556.77535417234,
      "d": 79.3648333333258,
      "v": 42
    },
    {
      "midi": 93,
      "hit": false,
      "t": 246844.47287500565,
      "d": 282.73721875002957,
      "v": 47
    },
    {
      "midi": 105,
      "hit": false,
      "t": 246854.39347917231,
      "d": 267.8563125000219,
      "v": 31
    }
  ]
}