{
  "jsonPath": "Pop/Adult Standards/Jim Nabors/ave-maria.json",
  "path": "Pop\\Adult Standards\\Jim Nabors\\Ave Maria.mid",
  "name": "Ave Maria",
  "difficulty": "Advanced",
  "bpm": 120,
  "notes": [
    {
      "midi": 34,
      "hit": false,
      "t": 5.208333333333333,
      "d": 182.29166666666666,
      "v": 21
    },
    {
      "midi": 46,
      "hit": false,
      "t": 5.208333333333333,
      "d": 229.16666666666666,
      "v": 19
    },
    {
      "midi": 58,
      "hit": false,
      "t": 656.25,
      "d": 171.875,
      "v": 11
    },
    {
      "midi": 62,
      "hit": false,
      "t": 656.25,
      "d": 229.16666666666663,
      "v": 18
    },
    {
      "midi": 65,
      "hit": false,
      "t": 671.875,
      "d": 135.41666666666663,
      "v": 13
    },
    {
      "midi": 53,
      "hit": false,
      "t": 677.0833333333334,
      "d": 72.91666666666663,
      "v": 28
    },
    {
      "midi": 70,
      "hit": false,
      "t": 1062.5,
      "d": 140.625,
      "v": 32
    },
    {
      "midi": 53,
      "hit": false,
      "t": 1083.3333333333333,
      "d": 83.33333333333326,
      "v": 45
    },
    {
      "midi": 65,
      "hit": false,
      "t": 1083.3333333333333,
      "d": 119.79166666666674,
      "v": 21
    },
    {
      "midi": 50,
      "hit": false,
      "t": 1104.1666666666665,
      "d": 72.91666666666674,
      "v": 30
    },
    {
      "midi": 74,
      "hit": false,
      "t": 1437.5,
      "d": 104.16666666666697,
      "v": 41
    },
    {
      "midi": 58,
      "hit": false,
      "t": 1447.9166666666667,
      "d": 104.16666666666697,
      "v": 19
    },
    {
      "midi": 65,
      "hit": false,
      "t": 1447.9166666666667,
      "d": 125.00000000000023,
      "v": 24
    },
    {
      "midi": 53,
      "hit": false,
      "t": 1458.3333333333335,
      "d": 72.91666666666674,
      "v": 39
    },
    {
      "midi": 62,
      "hit": false,
      "t": 1458.3333333333335,
      "d": 83.33333333333348,
      "v": 24
    },
    {
      "midi": 70,
      "hit": false,
      "t": 1828.1250000000002,
      "d": 145.83333333333326,
      "v": 32
    },
    {
      "midi": 65,
      "hit": false,
      "t": 1843.7500000000002,
      "d": 119.79166666666652,
      "v": 19
    },
    {
      "midi": 58,
      "hit": false,
      "t": 1854.166666666667,
      "d": 88.54166666666652,
      "v": 16
    },
    {
      "midi": 62,
      "hit": false,
      "t": 1859.3750000000002,
      "d": 78.125,
      "v": 29
    },
    {
      "midi": 58,
      "hit": false,
      "t": 2250,
      "d": 93.75,
      "v": 13
    },
    {
      "midi": 65,
      "hit": false,
      "t": 2260.4166666666665,
      "d": 229.16666666666697,
      "v": 27
    },
    {
      "midi": 62,
      "hit": false,
      "t": 2265.625,
      "d": 98.95833333333348,
      "v": 26
    },
    {
      "midi": 53,
      "hit": false,
      "t": 2281.25,
      "d": 67.70833333333348,
      "v": 32
    },
    {
      "midi": 46,
      "hit": false,
      "t": 2734.375,
      "d": 125,
      "v": 7
    },
    {
      "midi": 34,
      "hit": false,
      "t": 2739.5833333333335,
      "d": 78.125,
      "v": 32
    },
    {
      "midi": 58,
      "hit": false,
      "t": 3182.2916666666665,
      "d": 135.41666666666697,
      "v": 15
    },
    {
      "midi": 65,
      "hit": false,
      "t": 3182.2916666666665,
      "d": 145.83333333333348,
      "v": 25
    },
    {
      "midi": 53,
      "hit": false,
      "t": 3192.708333333333,
      "d": 104.16666666666697,
      "v": 7
    },
    {
      "midi": 62,
      "hit": false,
      "t": 3197.9166666666665,
      "d": 119.79166666666697,
      "v": 26
    },
    {
      "midi": 70,
      "hit": false,
      "t": 3552.0833333333335,
      "d": 145.83333333333303,
      "v": 36
    },
    {
      "midi": 53,
      "hit": false,
      "t": 3562.5,
      "d": 109.375,
      "v": 38
    },
    {
      "midi": 65,
      "hit": false,
      "t": 3572.9166666666665,
      "d": 125,
      "v": 24
    },
    {
      "midi": 50,
      "hit": false,
      "t": 3578.125,
      "d": 109.375,
      "v": 17
    },
    {
      "midi": 74,
      "hit": false,
      "t": 3906.25,
      "d": 114.58333333333348,
      "v": 48
    },
    {
      "midi": 65,
      "hit": false,
      "t": 3906.25,
      "d": 125,
      "v": 19
    },
    {
      "midi": 62,
      "hit": false,
      "t": 3906.25,
      "d": 171.875,
      "v": 39
    },
    {
      "midi": 58,
      "hit": false,
      "t": 3927.0833333333335,
      "d": 104.16666666666652,
      "v": 17
    },
    {
      "midi": 53,
      "hit": false,
      "t": 3932.291666666667,
      "d": 78.125,
      "v": 34
    },
    {
      "midi": 70,
      "hit": false,
      "t": 4270.833333333333,
      "d": 197.91666666666697,
      "v": 34
    },
    {
      "midi": 62,
      "hit": false,
      "t": 4281.25,
      "d": 93.75,
      "v": 32
    },
    {
      "midi": 58,
      "hit": false,
      "t": 4281.25,
      "d": 98.95833333333303,
      "v": 25
    },
    {
      "midi": 65,
      "hit": false,
      "t": 4281.25,
      "d": 125,
      "v": 30
    },
    {
      "midi": 53,
      "hit": false,
      "t": 4713.541666666667,
      "d": 67.70833333333303,
      "v": 25
    },
    {
      "midi": 62,
      "hit": false,
      "t": 4713.541666666667,
      "d": 213.54166666666606,
      "v": 23
    },
    {
      "midi": 58,
      "hit": false,
      "t": 4718.75,
      "d": 93.75,
      "v": 20
    },
    {
      "midi": 65,
      "hit": false,
      "t": 4718.75,
      "d": 296.875,
      "v": 8
    },
    {
      "midi": 34,
      "hit": false,
      "t": 5067.708333333333,
      "d": 88.54166666666697,
      "v": 37
    },
    {
      "midi": 46,
      "hit": false,
      "t": 5078.125,
      "d": 98.95833333333303,
      "v": 19
    },
    {
      "midi": 70,
      "hit": false,
      "t": 5447.916666666666,
      "d": 177.08333333333303,
      "v": 33
    },
    {
      "midi": 62,
      "hit": false,
      "t": 5463.541666666666,
      "d": 83.33333333333303,
      "v": 30
    },
    {
      "midi": 65,
      "hit": false,
      "t": 5468.749999999999,
      "d": 234.375,
      "v": 28
    },
    {
      "midi": 58,
      "hit": false,
      "t": 5473.958333333332,
      "d": 104.16666666666697,
      "v": 19
    },
    {
      "midi": 70,
      "hit": false,
      "t": 5807.291666666666,
      "d": 98.95833333333303,
      "v": 32
    },
    {
      "midi": 74,
      "hit": false,
      "t": 5812.499999999999,
      "d": 166.66666666666697,
      "v": 55
    },
    {
      "midi": 58,
      "hit": false,
      "t": 5828.124999999999,
      "d": 88.54166666666697,
      "v": 21
    },
    {
      "midi": 53,
      "hit": false,
      "t": 5854.166666666666,
      "d": 78.125,
      "v": 31
    },
    {
      "midi": 58,
      "hit": false,
      "t": 6166.666666666666,
      "d": 125.00000000000091,
      "v": 34
    },
    {
      "midi": 65,
      "hit": false,
      "t": 6177.083333333333,
      "d": 125.00000000000091,
      "v": 43
    },
    {
      "midi": 77,
      "hit": false,
      "t": 6177.083333333333,
      "d": 281.2500000000009,
      "v": 57
    },
    {
      "midi": 70,
      "hit": false,
      "t": 6192.708333333333,
      "d": 88.54166666666697,
      "v": 24
    },
    {
      "midi": 62,
      "hit": false,
      "t": 6208.333333333333,
      "d": 72.91666666666697,
      "v": 29
    },
    {
      "midi": 65,
      "hit": false,
      "t": 6541.666666666667,
      "d": 72.91666666666606,
      "v": 39
    },
    {
      "midi": 70,
      "hit": false,
      "t": 6541.666666666667,
      "d": 145.83333333333303,
      "v": 29
    },
    {
      "midi": 74,
      "hit": false,
      "t": 6546.875,
      "d": 359.375,
      "v": 46
    },
    {
      "midi": 62,
      "hit": false,
      "t": 6567.708333333333,
      "d": 62.5,
      "v": 36
    },
    {
      "midi": 70,
      "hit": false,
      "t": 6911.458333333333,
      "d": 265.6250000000009,
      "v": 39
    },
    {
      "midi": 58,
      "hit": false,
      "t": 6921.875,
      "d": 67.70833333333303,
      "v": 28
    },
    {
      "midi": 62,
      "hit": false,
      "t": 6927.083333333333,
      "d": 72.91666666666697,
      "v": 21
    },
    {
      "midi": 65,
      "hit": false,
      "t": 6937.5,
      "d": 119.79166666666697,
      "v": 34
    },
    {
      "midi": 46,
      "hit": false,
      "t": 7239.583333333334,
      "d": 98.95833333333303,
      "v": 29
    },
    {
      "midi": 34,
      "hit": false,
      "t": 7260.416666666667,
      "d": 57.29166666666697,
      "v": 46
    },
    {
      "midi": 68,
      "hit": false,
      "t": 7609.375,
      "d": 302.08333333333394,
      "v": 50
    },
    {
      "midi": 65,
      "hit": false,
      "t": 7619.791666666667,
      "d": 93.75,
      "v": 33
    },
    {
      "midi": 74,
      "hit": false,
      "t": 7619.791666666667,
      "d": 140.625,
      "v": 61
    },
    {
      "midi": 58,
      "hit": false,
      "t": 7635.416666666667,
      "d": 125,
      "v": 16
    },
    {
      "midi": 77,
      "hit": false,
      "t": 7979.166666666667,
      "d": 208.33333333333394,
      "v": 72
    },
    {
      "midi": 58,
      "hit": false,
      "t": 7989.583333333334,
      "d": 104.16666666666697,
      "v": 30
    },
    {
      "midi": 56,
      "hit": false,
      "t": 7989.583333333334,
      "d": 156.25,
      "v": 36
    },
    {
      "midi": 74,
      "hit": false,
      "t": 7989.583333333334,
      "d": 166.66666666666697,
      "v": 51
    },
    {
      "midi": 80,
      "hit": false,
      "t": 8380.208333333334,
      "d": 239.58333333333394,
      "v": 69
    },
    {
      "midi": 74,
      "hit": false,
      "t": 8395.833333333334,
      "d": 78.125,
      "v": 17
    },
    {
      "midi": 68,
      "hit": false,
      "t": 8395.833333333334,
      "d": 83.33333333333394,
      "v": 42
    },
    {
      "midi": 58,
      "hit": false,
      "t": 8395.833333333334,
      "d": 135.41666666666788,
      "v": 25
    },
    {
      "midi": 65,
      "hit": false,
      "t": 8411.458333333334,
      "d": 88.54166666666788,
      "v": 29
    },
    {
      "midi": 68,
      "hit": false,
      "t": 8817.708333333334,
      "d": 88.54166666666788,
      "v": 36
    },
    {
      "midi": 77,
      "hit": false,
      "t": 8817.708333333334,
      "d": 130.20833333333394,
      "v": 45
    },
    {
      "midi": 74,
      "hit": false,
      "t": 8822.916666666668,
      "d": 72.91666666666788,
      "v": 34
    },
    {
      "midi": 65,
      "hit": false,
      "t": 8828.125000000002,
      "d": 67.70833333333394,
      "v": 20
    },
    {
      "midi": 68,
      "hit": false,
      "t": 9218.750000000002,
      "d": 479.1666666666679,
      "v": 28
    },
    {
      "midi": 65,
      "hit": false,
      "t": 9223.958333333336,
      "d": 62.5,
      "v": 25
    },
    {
      "midi": 58,
      "hit": false,
      "t": 9234.375000000002,
      "d": 98.95833333333394,
      "v": 12
    },
    {
      "midi": 74,
      "hit": false,
      "t": 9239.583333333336,
      "d": 244.79166666666606,
      "v": 39
    },
    {
      "midi": 34,
      "hit": false,
      "t": 9609.375000000002,
      "d": 130.20833333333394,
      "v": 42
    },
    {
      "midi": 46,
      "hit": false,
      "t": 9614.583333333336,
      "d": 166.66666666666606,
      "v": 18
    },
    {
      "midi": 70,
      "hit": false,
      "t": 9968.750000000002,
      "d": 171.875,
      "v": 29
    },
    {
      "midi": 63,
      "hit": false,
      "t": 9989.583333333336,
      "d": 83.33333333333394,
      "v": 28
    },
    {
      "midi": 58,
      "hit": false,
      "t": 9994.79166666667,
      "d": 119.79166666666606,
      "v": 17
    },
    {
      "midi": 67,
      "hit": false,
      "t": 10010.41666666667,
      "d": 151.04166666666606,
      "v": 19
    },
    {
      "midi": 70,
      "hit": false,
      "t": 10348.958333333336,
      "d": 83.33333333333394,
      "v": 32
    },
    {
      "midi": 58,
      "hit": false,
      "t": 10348.958333333336,
      "d": 93.75,
      "v": 26
    },
    {
      "midi": 75,
      "hit": false,
      "t": 10348.958333333336,
      "d": 119.79166666666606,
      "v": 34
    },
    {
      "midi": 55,
      "hit": false,
      "t": 10359.375000000002,
      "d": 67.70833333333394,
      "v": 19
    },
    {
      "midi": 67,
      "hit": false,
      "t": 10718.750000000002,
      "d": 192.70833333333394,
      "v": 48
    },
    {
      "midi": 79,
      "hit": false,
      "t": 10729.166666666668,
      "d": 161.45833333333394,
      "v": 55
    },
    {
      "midi": 70,
      "hit": false,
      "t": 10734.375000000002,
      "d": 98.95833333333394,
      "v": 25
    },
    {
      "midi": 58,
      "hit": false,
      "t": 10744.791666666668,
      "d": 130.20833333333394,
      "v": 20
    },
    {
      "midi": 63,
      "hit": false,
      "t": 10765.625000000002,
      "d": 78.125,
      "v": 26
    },
    {
      "midi": 70,
      "hit": false,
      "t": 11104.16666666667,
      "d": 130.20833333333394,
      "v": 31
    },
    {
      "midi": 67,
      "hit": false,
      "t": 11119.79166666667,
      "d": 78.125,
      "v": 27
    },
    {
      "midi": 75,
      "hit": false,
      "t": 11125.000000000004,
      "d": 104.16666666666606,
      "v": 34
    },
    {
      "midi": 63,
      "hit": false,
      "t": 11135.41666666667,
      "d": 93.75,
      "v": 28
    },
    {
      "midi": 63,
      "hit": false,
      "t": 11494.79166666667,
      "d": 57.29166666666788,
      "v": 38
    },
    {
      "midi": 67,
      "hit": false,
      "t": 11494.79166666667,
      "d": 130.20833333333394,
      "v": 25
    },
    {
      "midi": 58,
      "hit": false,
      "t": 11500.000000000004,
      "d": 83.33333333333394,
      "v": 19
    },
    {
      "midi": 70,
      "hit": false,
      "t": 11505.208333333338,
      "d": 380.2083333333321,
      "v": 30
    },
    {
      "midi": 46,
      "hit": false,
      "t": 11916.66666666667,
      "d": 208.33333333333212,
      "v": 23
    },
    {
      "midi": 34,
      "hit": false,
      "t": 11927.083333333336,
      "d": 177.08333333333212,
      "v": 26
    },
    {
      "midi": 69,
      "hit": false,
      "t": 12343.750000000002,
      "d": 166.66666666666606,
      "v": 26
    },
    {
      "midi": 63,
      "hit": false,
      "t": 12354.166666666668,
      "d": 78.125,
      "v": 26
    },
    {
      "midi": 66,
      "hit": false,
      "t": 12359.375000000002,
      "d": 223.95833333333212,
      "v": 20
    },
    {
      "midi": 60,
      "hit": false,
      "t": 12375.000000000002,
      "d": 83.33333333333212,
      "v": 28
    },
    {
      "midi": 75,
      "hit": false,
      "t": 12713.541666666668,
      "d": 98.95833333333394,
      "v": 34
    },
    {
      "midi": 69,
      "hit": false,
      "t": 12723.958333333334,
      "d": 93.75000000000182,
      "v": 20
    },
    {
      "midi": 54,
      "hit": false,
      "t": 12729.166666666668,
      "d": 72.91666666666788,
      "v": 38
    },
    {
      "midi": 60,
      "hit": false,
      "t": 12750.000000000002,
      "d": 78.125,
      "v": 19
    },
    {
      "midi": 78,
      "hit": false,
      "t": 13083.333333333336,
      "d": 182.29166666666788,
      "v": 50
    },
    {
      "midi": 69,
      "hit": false,
      "t": 13109.375000000002,
      "d": 98.95833333333576,
      "v": 18
    },
    {
      "midi": 60,
      "hit": false,
      "t": 13114.583333333336,
      "d": 197.91666666666788,
      "v": 9
    },
    {
      "midi": 66,
      "hit": false,
      "t": 13119.79166666667,
      "d": 72.91666666666788,
      "v": 24
    },
    {
      "midi": 63,
      "hit": false,
      "t": 13125.000000000004,
      "d": 62.5,
      "v": 25
    },
    {
      "midi": 75,
      "hit": false,
      "t": 13458.333333333338,
      "d": 156.24999999999818,
      "v": 33
    },
    {
      "midi": 66,
      "hit": false,
      "t": 13468.750000000004,
      "d": 93.75,
      "v": 24
    },
    {
      "midi": 63,
      "hit": false,
      "t": 13473.958333333338,
      "d": 78.125,
      "v": 31
    },
    {
      "midi": 69,
      "hit": false,
      "t": 13479.166666666672,
      "d": 93.74999999999818,
      "v": 20
    },
    {
      "midi": 69,
      "hit": false,
      "t": 13906.250000000002,
      "d": 151.04166666666424,
      "v": 22
    },
    {
      "midi": 63,
      "hit": false,
      "t": 13916.666666666668,
      "d": 67.70833333333212,
      "v": 23
    },
    {
      "midi": 66,
      "hit": false,
      "t": 13916.666666666668,
      "d": 260.41666666666424,
      "v": 14
    },
    {
      "midi": 60,
      "hit": false,
      "t": 13927.083333333334,
      "d": 67.70833333333212,
      "v": 36
    },
    {
      "midi": 34,
      "hit": false,
      "t": 14364.583333333332,
      "d": 177.08333333333394,
      "v": 29
    },
    {
      "midi": 46,
      "hit": false,
      "t": 14369.791666666666,
      "d": 182.29166666666606,
      "v": 19
    },
    {
      "midi": 70,
      "hit": false,
      "t": 14734.374999999998,
      "d": 182.29166666666788,
      "v": 26
    },
    {
      "midi": 62,
      "hit": false,
      "t": 14749.999999999998,
      "d": 88.54166666666788,
      "v": 19
    },
    {
      "midi": 65,
      "hit": false,
      "t": 14755.208333333332,
      "d": 161.45833333333394,
      "v": 16
    },
    {
      "midi": 58,
      "hit": false,
      "t": 14770.833333333332,
      "d": 83.33333333333394,
      "v": 7
    },
    {
      "midi": 70,
      "hit": false,
      "t": 15104.166666666666,
      "d": 109.375,
      "v": 23
    },
    {
      "midi": 58,
      "hit": false,
      "t": 15119.791666666666,
      "d": 98.95833333333394,
      "v": 21
    },
    {
      "midi": 74,
      "hit": false,
      "t": 15119.791666666666,
      "d": 119.79166666666788,
      "v": 39
    },
    {
      "midi": 53,
      "hit": false,
      "t": 15135.416666666666,
      "d": 72.91666666666606,
      "v": 28
    },
    {
      "midi": 70,
      "hit": false,
      "t": 15468.75,
      "d": 104.16666666666606,
      "v": 17
    },
    {
      "midi": 58,
      "hit": false,
      "t": 15468.75,
      "d": 135.41666666666606,
      "v": 20
    },
    {
      "midi": 65,
      "hit": false,
      "t": 15468.75,
      "d": 135.41666666666606,
      "v": 38
    },
    {
      "midi": 77,
      "hit": false,
      "t": 15468.75,
      "d": 156.25,
      "v": 50
    },
    {
      "midi": 62,
      "hit": false,
      "t": 15484.375,
      "d": 78.125,
      "v": 13
    },
    {
      "midi": 70,
      "hit": false,
      "t": 15843.75,
      "d": 145.83333333333394,
      "v": 24
    },
    {
      "midi": 62,
      "hit": false,
      "t": 15854.166666666666,
      "d": 78.12500000000182,
      "v": 21
    },
    {
      "midi": 65,
      "hit": false,
      "t": 15859.375,
      "d": 67.70833333333394,
      "v": 21
    },
    {
      "midi": 74,
      "hit": false,
      "t": 15864.583333333334,
      "d": 78.125,
      "v": 28
    },
    {
      "midi": 70,
      "hit": false,
      "t": 16265.625,
      "d": 296.875,
      "v": 19
    },
    {
      "midi": 62,
      "hit": false,
      "t": 16270.833333333334,
      "d": 67.70833333333394,
      "v": 22
    },
    {
      "midi": 58,
      "hit": false,
      "t": 16286.458333333334,
      "d": 88.54166666666788,
      "v": 11
    },
    {
      "midi": 65,
      "hit": false,
      "t": 16291.666666666668,
      "d": 98.95833333333212,
      "v": 21
    },
    {
      "midi": 34,
      "hit": false,
      "t": 16666.666666666668,
      "d": 119.79166666666788,
      "v": 20
    },
    {
      "midi": 46,
      "hit": false,
      "t": 16697.916666666668,
      "d": 72.91666666666788,
      "v": 18
    },
    {
      "midi": 58,
      "hit": false,
      "t": 17119.791666666668,
      "d": 119.79166666666424,
      "v": 8
    },
    {
      "midi": 65,
      "hit": false,
      "t": 17125,
      "d": 145.83333333333212,
      "v": 16
    },
    {
      "midi": 62,
      "hit": false,
      "t": 17130.208333333332,
      "d": 135.41666666666788,
      "v": 17
    },
    {
      "midi": 53,
      "hit": false,
      "t": 17135.416666666664,
      "d": 78.125,
      "v": 28
    },
    {
      "midi": 70,
      "hit": false,
      "t": 17479.166666666664,
      "d": 140.625,
      "v": 27
    },
    {
      "midi": 65,
      "hit": false,
      "t": 17526.041666666664,
      "d": 98.95833333333212,
      "v": 11
    },
    {
      "midi": 50,
      "hit": false,
      "t": 17546.874999999996,
      "d": 109.375,
      "v": 12
    },
    {
      "midi": 74,
      "hit": false,
      "t": 17880.20833333333,
      "d": 182.29166666666788,
      "v": 42
    },
    {
      "midi": 62,
      "hit": false,
      "t": 17901.04166666666,
      "d": 135.41666666666788,
      "v": 22
    },
    {
      "midi": 53,
      "hit": false,
      "t": 17906.249999999993,
      "d": 72.91666666666788,
      "v": 24
    },
    {
      "midi": 58,
      "hit": false,
      "t": 17916.66666666666,
      "d": 104.16666666666788,
      "v": 10
    },
    {
      "midi": 70,
      "hit": false,
      "t": 18302.08333333333,
      "d": 177.08333333333212,
      "v": 27
    },
    {
      "midi": 65,
      "hit": false,
      "t": 18317.70833333333,
      "d": 93.75,
      "v": 8
    },
    {
      "midi": 62,
      "hit": false,
      "t": 18328.124999999996,
      "d": 78.125,
      "v": 22
    },
    {
      "midi": 58,
      "hit": false,
      "t": 18328.124999999996,
      "d": 104.16666666666424,
      "v": 15
    },
    {
      "midi": 58,
      "hit": false,
      "t": 18812.499999999993,
      "d": 109.375,
      "v": 12
    },
    {
      "midi": 65,
      "hit": false,
      "t": 18822.91666666666,
      "d": 192.70833333333212,
      "v": 22
    },
    {
      "midi": 62,
      "hit": false,
      "t": 18854.16666666666,
      "d": 98.95833333333212,
      "v": 4
    },
    {
      "midi": 58,
      "hit": false,
      "t": 19515.624999999993,
      "d": 421.875,
      "v": 76
    },
    {
      "midi": 46,
      "hit": false,
      "t": 19572.91666666666,
      "d": 239.58333333333212,
      "v": 12
    },
    {
      "midi": 34,
      "hit": false,
      "t": 19583.33333333333,
      "d": 213.54166666666424,
      "v": 16
    },
    {
      "midi": 62,
      "hit": false,
      "t": 20130.208333333325,
      "d": 109.375,
      "v": 31
    },
    {
      "midi": 65,
      "hit": false,
      "t": 20130.208333333325,
      "d": 119.79166666666788,
      "v": 20
    },
    {
      "midi": 58,
      "hit": false,
      "t": 20145.833333333325,
      "d": 93.75,
      "v": 20
    },
    {
      "midi": 70,
      "hit": false,
      "t": 20499.999999999993,
      "d": 104.16666666666788,
      "v": 30
    },
    {
      "midi": 50,
      "hit": false,
      "t": 20510.41666666666,
      "d": 114.58333333333212,
      "v": 10
    },
    {
      "midi": 53,
      "hit": false,
      "t": 20515.624999999993,
      "d": 67.70833333333576,
      "v": 41
    },
    {
      "midi": 65,
      "hit": false,
      "t": 20526.04166666666,
      "d": 109.375,
      "v": 26
    },
    {
      "midi": 58,
      "hit": false,
      "t": 20869.79166666666,
      "d": 98.95833333333212,
      "v": 24
    },
    {
      "midi": 74,
      "hit": false,
      "t": 20869.79166666666,
      "d": 119.79166666666424,
      "v": 36
    },
    {
      "midi": 62,
      "hit": false,
      "t": 20874.999999999993,
      "d": 78.125,
      "v": 29
    },
    {
      "midi": 65,
      "hit": false,
      "t": 20885.41666666666,
      "d": 98.95833333333212,
      "v": 14
    },
    {
      "midi": 53,
      "hit": false,
      "t": 20901.04166666666,
      "d": 72.91666666666424,
      "v": 26
    },
    {
      "midi": 70,
      "hit": false,
      "t": 21218.749999999993,
      "d": 104.16666666667152,
      "v": 28
    },
    {
      "midi": 62,
      "hit": false,
      "t": 21229.16666666666,
      "d": 67.70833333333576,
      "v": 27
    },
    {
      "midi": 65,
      "hit": false,
      "t": 21239.58333333333,
      "d": 83.33333333333576,
      "v": 19
    },
    {
      "midi": 58,
      "hit": false,
      "t": 21249.999999999996,
      "d": 83.33333333333576,
      "v": 14
    },
    {
      "midi": 58,
      "hit": false,
      "t": 21625,
      "d": 88.54166666666788,
      "v": 13
    },
    {
      "midi": 62,
      "hit": false,
      "t": 21656.25,
      "d": 88.54166666666788,
      "v": 23
    },
    {
      "midi": 65,
      "hit": false,
      "t": 21656.25,
      "d": 182.29166666666788,
      "v": 20
    },
    {
      "midi": 43,
      "hit": false,
      "t": 22125,
      "d": 177.08333333333212,
      "v": 27
    },
    {
      "midi": 58,
      "hit": false,
      "t": 22125,
      "d": 291.66666666666424,
      "v": 4
    },
    {
      "midi": 31,
      "hit": false,
      "t": 22151.041666666668,
      "d": 114.58333333333212,
      "v": 19
    },
    {
      "midi": 58,
      "hit": false,
      "t": 22593.749999999996,
      "d": 135.41666666667152,
      "v": 18
    },
    {
      "midi": 62,
      "hit": false,
      "t": 22604.166666666664,
      "d": 78.12500000000364,
      "v": 27
    },
    {
      "midi": 64,
      "hit": false,
      "t": 22614.583333333332,
      "d": 83.33333333333576,
      "v": 28
    },
    {
      "midi": 52,
      "hit": false,
      "t": 22625,
      "d": 78.125,
      "v": 18
    },
    {
      "midi": 70,
      "hit": false,
      "t": 22963.541666666668,
      "d": 135.41666666666788,
      "v": 32
    },
    {
      "midi": 64,
      "hit": false,
      "t": 22968.75,
      "d": 114.58333333333576,
      "v": 31
    },
    {
      "midi": 52,
      "hit": false,
      "t": 22994.791666666668,
      "d": 93.75,
      "v": 19
    },
    {
      "midi": 50,
      "hit": false,
      "t": 23010.416666666668,
      "d": 125,
      "v": 5
    },
    {
      "midi": 74,
      "hit": false,
      "t": 23364.583333333336,
      "d": 276.0416666666679,
      "v": 36
    },
    {
      "midi": 64,
      "hit": false,
      "t": 23380.208333333336,
      "d": 140.625,
      "v": 22
    },
    {
      "midi": 57,
      "hit": false,
      "t": 23427.083333333336,
      "d": 406.25,
      "v": 50
    },
    {
      "midi": 70,
      "hit": false,
      "t": 23786.458333333336,
      "d": 114.58333333333212,
      "v": 25
    },
    {
      "midi": 52,
      "hit": false,
      "t": 23812.500000000004,
      "d": 88.54166666666424,
      "v": 32
    },
    {
      "midi": 50,
      "hit": false,
      "t": 23817.708333333336,
      "d": 67.70833333333212,
      "v": 29
    },
    {
      "midi": 64,
      "hit": false,
      "t": 23817.708333333336,
      "d": 151.04166666666424,
      "v": 19
    },
    {
      "midi": 58,
      "hit": false,
      "t": 24010.416666666668,
      "d": 213.54166666666788,
      "v": 69
    },
    {
      "midi": 62,
      "hit": false,
      "t": 24270.833333333336,
      "d": 93.75,
      "v": 22
    },
    {
      "midi": 64,
      "hit": false,
      "t": 24276.041666666668,
      "d": 328.12500000000364,
      "v": 21
    },
    {
      "midi": 52,
      "hit": false,
      "t": 24291.666666666668,
      "d": 62.5,
      "v": 35
    },
    {
      "midi": 50,
      "hit": false,
      "t": 24302.083333333336,
      "d": 72.91666666666788,
      "v": 14
    },
    {
      "midi": 62,
      "hit": false,
      "t": 24739.58333333334,
      "d": 411.45833333333576,
      "v": 84
    },
    {
      "midi": 29,
      "hit": false,
      "t": 24796.875000000007,
      "d": 140.625,
      "v": 29
    },
    {
      "midi": 41,
      "hit": false,
      "t": 24802.08333333334,
      "d": 177.08333333333576,
      "v": 34
    },
    {
      "midi": 58,
      "hit": false,
      "t": 25223.958333333343,
      "d": 83.33333333333576,
      "v": 33
    },
    {
      "midi": 62,
      "hit": false,
      "t": 25239.583333333343,
      "d": 609.3750000000036,
      "v": 50
    },
    {
      "midi": 65,
      "hit": false,
      "t": 25250.00000000001,
      "d": 119.79166666666788,
      "v": 45
    },
    {
      "midi": 53,
      "hit": false,
      "t": 25260.41666666668,
      "d": 67.70833333333212,
      "v": 43
    },
    {
      "midi": 70,
      "hit": false,
      "t": 25619.79166666668,
      "d": 130.20833333333576,
      "v": 37
    },
    {
      "midi": 65,
      "hit": false,
      "t": 25630.208333333347,
      "d": 135.41666666666788,
      "v": 33
    },
    {
      "midi": 50,
      "hit": false,
      "t": 25635.41666666668,
      "d": 114.58333333333576,
      "v": 31
    },
    {
      "midi": 53,
      "hit": false,
      "t": 25645.833333333347,
      "d": 62.5,
      "v": 35
    },
    {
      "midi": 62,
      "hit": false,
      "t": 25979.16666666668,
      "d": 114.58333333333576,
      "v": 22
    },
    {
      "midi": 70,
      "hit": false,
      "t": 25984.37500000001,
      "d": 78.12500000000364,
      "v": 28
    },
    {
      "midi": 58,
      "hit": false,
      "t": 25994.79166666668,
      "d": 98.95833333333576,
      "v": 15
    },
    {
      "midi": 53,
      "hit": false,
      "t": 26005.208333333347,
      "d": 78.125,
      "v": 37
    },
    {
      "midi": 74,
      "hit": false,
      "t": 26005.208333333347,
      "d": 151.04166666666788,
      "v": 39
    },
    {
      "midi": 70,
      "hit": false,
      "t": 26333.333333333347,
      "d": 171.875,
      "v": 35
    },
    {
      "midi": 65,
      "hit": false,
      "t": 26354.16666666668,
      "d": 88.54166666666788,
      "v": 32
    },
    {
      "midi": 58,
      "hit": false,
      "t": 26369.79166666668,
      "d": 104.16666666666788,
      "v": 15
    },
    {
      "midi": 62,
      "hit": false,
      "t": 26718.750000000015,
      "d": 625,
      "v": 19
    },
    {
      "midi": 53,
      "hit": false,
      "t": 26729.166666666682,
      "d": 67.70833333333212,
      "v": 29
    },
    {
      "midi": 65,
      "hit": false,
      "t": 26729.166666666682,
      "d": 250,
      "v": 19
    },
    {
      "midi": 41,
      "hit": false,
      "t": 27151.041666666682,
      "d": 98.95833333333212,
      "v": 28
    },
    {
      "midi": 29,
      "hit": false,
      "t": 27156.250000000015,
      "d": 88.54166666666788,
      "v": 24
    },
    {
      "midi": 63,
      "hit": false,
      "t": 27515.625000000015,
      "d": 166.66666666666788,
      "v": 27
    },
    {
      "midi": 65,
      "hit": false,
      "t": 27526.041666666682,
      "d": 88.54166666666788,
      "v": 28
    },
    {
      "midi": 63,
      "hit": false,
      "t": 27911.45833333335,
      "d": 93.75,
      "v": 26
    },
    {
      "midi": 69,
      "hit": false,
      "t": 27927.08333333335,
      "d": 98.95833333333212,
      "v": 14
    },
    {
      "midi": 51,
      "hit": false,
      "t": 27932.291666666682,
      "d": 343.75,
      "v": 13
    },
    {
      "midi": 53,
      "hit": false,
      "t": 28156.250000000015,
      "d": 109.375,
      "v": 46
    },
    {
      "midi": 57,
      "hit": false,
      "t": 28281.250000000015,
      "d": 72.91666666666788,
      "v": 25
    },
    {
      "midi": 75,
      "hit": false,
      "t": 28416.666666666682,
      "d": 156.24999999999636,
      "v": 23
    },
    {
      "midi": 63,
      "hit": false,
      "t": 28421.875000000015,
      "d": 416.66666666666424,
      "v": 16
    },
    {
      "midi": 60,
      "hit": false,
      "t": 28489.583333333347,
      "d": 739.5833333333285,
      "v": 51
    },
    {
      "midi": 51,
      "hit": false,
      "t": 28921.87500000001,
      "d": 161.45833333333212,
      "v": 14
    },
    {
      "midi": 69,
      "hit": false,
      "t": 28958.333333333343,
      "d": 125,
      "v": 3
    },
    {
      "midi": 63,
      "hit": false,
      "t": 29354.166666666675,
      "d": 255.20833333333212,
      "v": 18
    },
    {
      "midi": 53,
      "hit": false,
      "t": 29375.000000000007,
      "d": 88.54166666666788,
      "v": 40
    },
    {
      "midi": 57,
      "hit": false,
      "t": 29380.20833333334,
      "d": 98.95833333333576,
      "v": 7
    },
    {
      "midi": 65,
      "hit": false,
      "t": 29390.625000000007,
      "d": 109.375,
      "v": 9
    },
    {
      "midi": 58,
      "hit": false,
      "t": 30166.666666666675,
      "d": 328.12500000000364,
      "v": 21
    },
    {
      "midi": 43,
      "hit": false,
      "t": 30223.958333333343,
      "d": 208.33333333333576,
      "v": 22
    },
    {
      "midi": 31,
      "hit": false,
      "t": 30239.583333333343,
      "d": 135.41666666666788,
      "v": 15
    },
    {
      "midi": 67,
      "hit": false,
      "t": 30734.37500000001,
      "d": 119.79166666666788,
      "v": 33
    },
    {
      "midi": 55,
      "hit": false,
      "t": 30750.00000000001,
      "d": 88.54166666666788,
      "v": 7
    },
    {
      "midi": 58,
      "hit": false,
      "t": 30750.00000000001,
      "d": 119.79166666666788,
      "v": 21
    },
    {
      "midi": 62,
      "hit": false,
      "t": 30750.00000000001,
      "d": 234.375,
      "v": 28
    },
    {
      "midi": 70,
      "hit": false,
      "t": 31104.16666666668,
      "d": 93.75,
      "v": 27
    },
    {
      "midi": 55,
      "hit": false,
      "t": 31125.00000000001,
      "d": 72.91666666666788,
      "v": 28
    },
    {
      "midi": 50,
      "hit": false,
      "t": 31135.41666666668,
      "d": 83.33333333333212,
      "v": 27
    },
    {
      "midi": 67,
      "hit": false,
      "t": 31135.41666666668,
      "d": 93.75,
      "v": 21
    },
    {
      "midi": 58,
      "hit": false,
      "t": 31473.958333333347,
      "d": 98.95833333333212,
      "v": 19
    },
    {
      "midi": 62,
      "hit": false,
      "t": 31479.16666666668,
      "d": 93.75,
      "v": 20
    },
    {
      "midi": 67,
      "hit": false,
      "t": 31489.583333333347,
      "d": 78.125,
      "v": 8
    },
    {
      "midi": 55,
      "hit": false,
      "t": 31489.583333333347,
      "d": 83.33333333333212,
      "v": 19
    },
    {
      "midi": 74,
      "hit": false,
      "t": 31489.583333333347,
      "d": 83.33333333333212,
      "v": 37
    },
    {
      "midi": 70,
      "hit": false,
      "t": 31833.333333333347,
      "d": 187.5,
      "v": 30
    },
    {
      "midi": 62,
      "hit": false,
      "t": 31843.750000000015,
      "d": 88.54166666666424,
      "v": 27
    },
    {
      "midi": 58,
      "hit": false,
      "t": 31843.750000000015,
      "d": 98.95833333333212,
      "v": 20
    },
    {
      "midi": 67,
      "hit": false,
      "t": 31864.583333333347,
      "d": 104.16666666666788,
      "v": 10
    },
    {
      "midi": 58,
      "hit": false,
      "t": 32229.16666666668,
      "d": 104.16666666666788,
      "v": 11
    },
    {
      "midi": 62,
      "hit": false,
      "t": 32260.41666666668,
      "d": 135.41666666666788,
      "v": 22
    },
    {
      "midi": 67,
      "hit": false,
      "t": 32270.833333333347,
      "d": 114.58333333333212,
      "v": 17
    },
    {
      "midi": 55,
      "hit": false,
      "t": 32281.250000000015,
      "d": 72.91666666666424,
      "v": 17
    },
    {
      "midi": 31,
      "hit": false,
      "t": 32708.333333333347,
      "d": 62.50000000000364,
      "v": 36
    },
    {
      "midi": 43,
      "hit": false,
      "t": 32718.750000000015,
      "d": 67.70833333333576,
      "v": 24
    },
    {
      "midi": 58,
      "hit": false,
      "t": 33114.58333333335,
      "d": 135.41666666667152,
      "v": 28
    },
    {
      "midi": 67,
      "hit": false,
      "t": 33135.416666666686,
      "d": 114.58333333333576,
      "v": 24
    },
    {
      "midi": 62,
      "hit": false,
      "t": 33140.62500000002,
      "d": 114.58333333333576,
      "v": 24
    },
    {
      "midi": 55,
      "hit": false,
      "t": 33166.666666666686,
      "d": 83.33333333333576,
      "v": 17
    },
    {
      "midi": 70,
      "hit": false,
      "t": 33479.16666666669,
      "d": 93.75,
      "v": 29
    },
    {
      "midi": 67,
      "hit": false,
      "t": 33505.20833333336,
      "d": 78.125,
      "v": 28
    },
    {
      "midi": 50,
      "hit": false,
      "t": 33505.20833333336,
      "d": 83.33333333333576,
      "v": 24
    },
    {
      "midi": 55,
      "hit": false,
      "t": 33536.45833333336,
      "d": 62.5,
      "v": 15
    },
    {
      "midi": 62,
      "hit": false,
      "t": 33838.54166666669,
      "d": 98.95833333333576,
      "v": 23
    },
    {
      "midi": 74,
      "hit": false,
      "t": 33843.75000000003,
      "d": 93.75,
      "v": 27
    },
    {
      "midi": 55,
      "hit": false,
      "t": 33843.75000000003,
      "d": 124.99999999999272,
      "v": 8
    },
    {
      "midi": 67,
      "hit": false,
      "t": 33854.16666666669,
      "d": 93.75,
      "v": 22
    },
    {
      "midi": 58,
      "hit": false,
      "t": 33869.79166666669,
      "d": 88.54166666666424,
      "v": 13
    },
    {
      "midi": 62,
      "hit": false,
      "t": 34218.75000000002,
      "d": 78.125,
      "v": 30
    },
    {
      "midi": 58,
      "hit": false,
      "t": 34218.75000000002,
      "d": 93.75,
      "v": 21
    },
    {
      "midi": 70,
      "hit": false,
      "t": 34223.95833333336,
      "d": 135.41666666666424,
      "v": 18
    },
    {
      "midi": 67,
      "hit": false,
      "t": 34250.00000000002,
      "d": 98.95833333333576,
      "v": 17
    },
    {
      "midi": 58,
      "hit": false,
      "t": 34645.83333333336,
      "d": 78.12500000000728,
      "v": 16
    },
    {
      "midi": 67,
      "hit": false,
      "t": 34651.04166666669,
      "d": 119.79166666667152,
      "v": 22
    },
    {
      "midi": 62,
      "hit": false,
      "t": 34656.25000000003,
      "d": 93.75,
      "v": 25
    },
    {
      "midi": 55,
      "hit": false,
      "t": 34687.50000000003,
      "d": 67.70833333333576,
      "v": 14
    },
    {
      "midi": 60,
      "hit": false,
      "t": 35255.208333333365,
      "d": 276.04166666666424,
      "v": 76
    },
    {
      "midi": 27,
      "hit": false,
      "t": 35270.833333333365,
      "d": 145.83333333333576,
      "v": 22
    },
    {
      "midi": 39,
      "hit": false,
      "t": 35281.25000000003,
      "d": 177.08333333333576,
      "v": 24
    },
    {
      "midi": 55,
      "hit": false,
      "t": 35843.75000000003,
      "d": 83.33333333333576,
      "v": 30
    },
    {
      "midi": 67,
      "hit": false,
      "t": 35843.75000000003,
      "d": 83.33333333333576,
      "v": 38
    },
    {
      "midi": 63,
      "hit": false,
      "t": 35843.75000000003,
      "d": 104.16666666667152,
      "v": 31
    },
    {
      "midi": 60,
      "hit": false,
      "t": 35859.37500000003,
      "d": 98.95833333333576,
      "v": 24
    },
    {
      "midi": 63,
      "hit": false,
      "t": 36213.5416666667,
      "d": 72.91666666667152,
      "v": 34
    },
    {
      "midi": 72,
      "hit": false,
      "t": 36213.5416666667,
      "d": 78.12500000000728,
      "v": 33
    },
    {
      "midi": 51,
      "hit": false,
      "t": 36229.1666666667,
      "d": 72.91666666667152,
      "v": 29
    },
    {
      "midi": 67,
      "hit": false,
      "t": 36234.37500000004,
      "d": 83.33333333333576,
      "v": 21
    },
    {
      "midi": 75,
      "hit": false,
      "t": 36557.29166666671,
      "d": 192.70833333333576,
      "v": 41
    },
    {
      "midi": 63,
      "hit": false,
      "t": 36578.125000000044,
      "d": 62.5,
      "v": 30
    },
    {
      "midi": 55,
      "hit": false,
      "t": 36578.125000000044,
      "d": 88.54166666666424,
      "v": 18
    },
    {
      "midi": 67,
      "hit": false,
      "t": 36578.125000000044,
      "d": 88.54166666666424,
      "v": 17
    },
    {
      "midi": 60,
      "hit": false,
      "t": 36593.750000000044,
      "d": 78.125,
      "v": 9
    },
    {
      "midi": 63,
      "hit": false,
      "t": 36916.66666666671,
      "d": 72.91666666667152,
      "v": 28
    },
    {
      "midi": 67,
      "hit": false,
      "t": 36937.500000000044,
      "d": 78.125,
      "v": 24
    },
    {
      "midi": 60,
      "hit": false,
      "t": 36937.500000000044,
      "d": 83.33333333333576,
      "v": 14
    },
    {
      "midi": 63,
      "hit": false,
      "t": 37333.33333333338,
      "d": 57.29166666667152,
      "v": 34
    },
    {
      "midi": 60,
      "hit": false,
      "t": 37348.95833333338,
      "d": 67.70833333333576,
      "v": 13
    },
    {
      "midi": 67,
      "hit": false,
      "t": 37354.166666666715,
      "d": 239.58333333333576,
      "v": 19
    },
    {
      "midi": 62,
      "hit": false,
      "t": 37546.87500000005,
      "d": 161.45833333333576,
      "v": 53
    },
    {
      "midi": 60,
      "hit": false,
      "t": 37671.87500000005,
      "d": 276.0416666666715,
      "v": 70
    },
    {
      "midi": 29,
      "hit": false,
      "t": 37875.00000000005,
      "d": 140.62500000000728,
      "v": 36
    },
    {
      "midi": 41,
      "hit": false,
      "t": 37875.00000000005,
      "d": 208.33333333334303,
      "v": 27
    },
    {
      "midi": 58,
      "hit": false,
      "t": 37906.25000000005,
      "d": 385.4166666666788,
      "v": 62
    },
    {
      "midi": 63,
      "hit": false,
      "t": 38291.66666666673,
      "d": 67.70833333332848,
      "v": 40
    },
    {
      "midi": 65,
      "hit": false,
      "t": 38302.083333333394,
      "d": 57.29166666666424,
      "v": 37
    },
    {
      "midi": 53,
      "hit": false,
      "t": 38312.50000000006,
      "d": 67.70833333333576,
      "v": 40
    },
    {
      "midi": 51,
      "hit": false,
      "t": 38322.91666666672,
      "d": 93.75000000000728,
      "v": 20
    },
    {
      "midi": 57,
      "hit": false,
      "t": 38515.625000000065,
      "d": 411.45833333334303,
      "v": 66
    },
    {
      "midi": 63,
      "hit": false,
      "t": 38697.91666666673,
      "d": 83.33333333334303,
      "v": 36
    },
    {
      "midi": 69,
      "hit": false,
      "t": 38703.125000000065,
      "d": 114.58333333334303,
      "v": 28
    },
    {
      "midi": 53,
      "hit": false,
      "t": 38739.5833333334,
      "d": 78.12500000000728,
      "v": 29
    },
    {
      "midi": 51,
      "hit": false,
      "t": 38739.5833333334,
      "d": 93.75000000000728,
      "v": 23
    },
    {
      "midi": 48,
      "hit": false,
      "t": 38744.79166666674,
      "d": 125.00000000000728,
      "v": 19
    },
    {
      "midi": 55,
      "hit": false,
      "t": 39067.70833333341,
      "d": 437.5,
      "v": 70
    },
    {
      "midi": 63,
      "hit": false,
      "t": 39072.916666666744,
      "d": 197.91666666666424,
      "v": 30
    },
    {
      "midi": 72,
      "hit": false,
      "t": 39083.33333333341,
      "d": 317.70833333333576,
      "v": 27
    },
    {
      "midi": 51,
      "hit": false,
      "t": 39385.416666666744,
      "d": 104.16666666666424,
      "v": 23
    },
    {
      "midi": 48,
      "hit": false,
      "t": 39401.041666666744,
      "d": 593.7499999999927,
      "v": 21
    },
    {
      "midi": 63,
      "hit": false,
      "t": 39442.70833333341,
      "d": 203.125,
      "v": 19
    },
    {
      "midi": 69,
      "hit": false,
      "t": 39453.12500000007,
      "d": 88.54166666667152,
      "v": 14
    },
    {
      "midi": 57,
      "hit": false,
      "t": 39635.416666666744,
      "d": 359.3749999999927,
      "v": 53
    },
    {
      "midi": 63,
      "hit": false,
      "t": 39880.20833333341,
      "d": 182.29166666666424,
      "v": 29
    },
    {
      "midi": 65,
      "hit": false,
      "t": 39885.416666666744,
      "d": 98.95833333332848,
      "v": 22
    },
    {
      "midi": 53,
      "hit": false,
      "t": 39895.83333333341,
      "d": 72.91666666666424,
      "v": 49
    },
    {
      "midi": 51,
      "hit": false,
      "t": 39895.83333333341,
      "d": 114.58333333332848,
      "v": 34
    },
    {
      "midi": 58,
      "hit": false,
      "t": 40375.00000000007,
      "d": 333.33333333333576,
      "v": 55
    },
    {
      "midi": 46,
      "hit": false,
      "t": 40390.62500000007,
      "d": 229.16666666667152,
      "v": 25
    },
    {
      "midi": 34,
      "hit": false,
      "t": 40421.87500000007,
      "d": 171.875,
      "v": 16
    },
    {
      "midi": 53,
      "hit": false,
      "t": 40864.58333333341,
      "d": 72.91666666667152,
      "v": 45
    },
    {
      "midi": 62,
      "hit": false,
      "t": 40864.58333333341,
      "d": 83.33333333333576,
      "v": 35
    },
    {
      "midi": 58,
      "hit": false,
      "t": 40864.58333333341,
      "d": 130.20833333333576,
      "v": 16
    },
    {
      "midi": 65,
      "hit": false,
      "t": 40869.791666666744,
      "d": 130.20833333333576,
      "v": 23
    },
    {
      "midi": 70,
      "hit": false,
      "t": 41255.208333333416,
      "d": 98.95833333333576,
      "v": 29
    },
    {
      "midi": 53,
      "hit": false,
      "t": 41286.458333333416,
      "d": 67.70833333333576,
      "v": 31
    },
    {
      "midi": 65,
      "hit": false,
      "t": 41286.458333333416,
      "d": 104.16666666667152,
      "v": 12
    },
    {
      "midi": 50,
      "hit": false,
      "t": 41286.458333333416,
      "d": 109.37500000000728,
      "v": 26
    },
    {
      "midi": 74,
      "hit": false,
      "t": 41625.00000000009,
      "d": 98.95833333333576,
      "v": 32
    },
    {
      "midi": 58,
      "hit": false,
      "t": 41625.00000000009,
      "d": 104.16666666667152,
      "v": 17
    },
    {
      "midi": 65,
      "hit": false,
      "t": 41635.41666666675,
      "d": 114.58333333334303,
      "v": 13
    },
    {
      "midi": 53,
      "hit": false,
      "t": 41640.62500000009,
      "d": 88.54166666667152,
      "v": 21
    },
    {
      "midi": 62,
      "hit": false,
      "t": 41640.62500000009,
      "d": 88.54166666667152,
      "v": 23
    },
    {
      "midi": 70,
      "hit": false,
      "t": 41973.95833333343,
      "d": 135.41666666667152,
      "v": 26
    },
    {
      "midi": 65,
      "hit": false,
      "t": 41984.375000000095,
      "d": 104.16666666667152,
      "v": 21
    },
    {
      "midi": 62,
      "hit": false,
      "t": 42000.000000000095,
      "d": 83.33333333333576,
      "v": 21
    },
    {
      "midi": 58,
      "hit": false,
      "t": 42000.000000000095,
      "d": 93.75000000000728,
      "v": 15
    },
    {
      "midi": 58,
      "hit": false,
      "t": 42364.58333333344,
      "d": 83.33333333333576,
      "v": 15
    },
    {
      "midi": 53,
      "hit": false,
      "t": 42375.0000000001,
      "d": 72.91666666667152,
      "v": 25
    },
    {
      "midi": 65,
      "hit": false,
      "t": 42375.0000000001,
      "d": 197.91666666667152,
      "v": 20
    },
    {
      "midi": 62,
      "hit": false,
      "t": 42380.20833333344,
      "d": 130.20833333333576,
      "v": 13
    },
    {
      "midi": 34,
      "hit": false,
      "t": 42734.37500000011,
      "d": 67.70833333333576,
      "v": 34
    },
    {
      "midi": 46,
      "hit": false,
      "t": 42770.833333333445,
      "d": 78.125,
      "v": 8
    },
    {
      "midi": 58,
      "hit": false,
      "t": 43104.16666666678,
      "d": 93.75,
      "v": 28
    },
    {
      "midi": 65,
      "hit": false,
      "t": 43114.583333333445,
      "d": 109.375,
      "v": 18
    },
    {
      "midi": 62,
      "hit": false,
      "t": 43119.79166666678,
      "d": 119.79166666666424,
      "v": 15
    },
    {
      "midi": 53,
      "hit": false,
      "t": 43125.00000000012,
      "d": 83.33333333332848,
      "v": 25
    },
    {
      "midi": 70,
      "hit": false,
      "t": 43421.87500000011,
      "d": 364.58333333333576,
      "v": 31
    },
    {
      "midi": 53,
      "hit": false,
      "t": 43427.083333333445,
      "d": 67.70833333333576,
      "v": 33
    },
    {
      "midi": 50,
      "hit": false,
      "t": 43447.91666666678,
      "d": 125,
      "v": 16
    },
    {
      "midi": 65,
      "hit": false,
      "t": 43463.54166666678,
      "d": 88.54166666666424,
      "v": 14
    },
    {
      "midi": 53,
      "hit": false,
      "t": 43583.333333333445,
      "d": 135.41666666666424,
      "v": 74
    },
    {
      "midi": 58,
      "hit": false,
      "t": 43718.75000000011,
      "d": 104.16666666666424,
      "v": 38
    },
    {
      "midi": 74,
      "hit": false,
      "t": 43796.87500000011,
      "d": 317.7083333333285,
      "v": 51
    },
    {
      "midi": 65,
      "hit": false,
      "t": 43812.50000000011,
      "d": 83.33333333332848,
      "v": 37
    },
    {
      "midi": 62,
      "hit": false,
      "t": 43916.66666666677,
      "d": 250,
      "v": 82
    },
    {
      "midi": 70,
      "hit": false,
      "t": 44286.45833333344,
      "d": 78.125,
      "v": 37
    },
    {
      "midi": 65,
      "hit": false,
      "t": 44312.5000000001,
      "d": 62.5,
      "v": 27
    },
    {
      "midi": 53,
      "hit": false,
      "t": 44328.1250000001,
      "d": 72.91666666666424,
      "v": 28
    },
    {
      "midi": 50,
      "hit": false,
      "t": 44343.7500000001,
      "d": 67.70833333332848,
      "v": 19
    },
    {
      "midi": 58,
      "hit": false,
      "t": 44625.000000000095,
      "d": 72.91666666667152,
      "v": 29
    },
    {
      "midi": 65,
      "hit": false,
      "t": 44640.625000000095,
      "d": 145.83333333334303,
      "v": 34
    },
    {
      "midi": 62,
      "hit": false,
      "t": 44661.45833333343,
      "d": 72.91666666667152,
      "v": 27
    },
    {
      "midi": 62,
      "hit": false,
      "t": 45182.29166666677,
      "d": 406.2500000000073,
      "v": 97
    },
    {
      "midi": 34,
      "hit": false,
      "t": 45218.75000000011,
      "d": 213.54166666667152,
      "v": 24
    },
    {
      "midi": 46,
      "hit": false,
      "t": 45218.75000000011,
      "d": 260.4166666666715,
      "v": 15
    },
    {
      "midi": 62,
      "hit": false,
      "t": 45682.29166666678,
      "d": 494.7916666666715,
      "v": 46
    },
    {
      "midi": 54,
      "hit": false,
      "t": 45687.50000000012,
      "d": 93.75,
      "v": 30
    },
    {
      "midi": 66,
      "hit": false,
      "t": 45687.50000000012,
      "d": 187.5,
      "v": 39
    },
    {
      "midi": 58,
      "hit": false,
      "t": 45697.91666666678,
      "d": 130.20833333333576,
      "v": 24
    },
    {
      "midi": 66,
      "hit": false,
      "t": 46052.08333333345,
      "d": 151.04166666667152,
      "v": 47
    },
    {
      "midi": 70,
      "hit": false,
      "t": 46067.70833333345,
      "d": 135.41666666667152,
      "v": 38
    },
    {
      "midi": 54,
      "hit": false,
      "t": 46088.54166666679,
      "d": 109.375,
      "v": 19
    },
    {
      "midi": 50,
      "hit": false,
      "t": 46093.750000000124,
      "d": 72.91666666666424,
      "v": 30
    },
    {
      "midi": 66,
      "hit": false,
      "t": 46380.20833333346,
      "d": 88.54166666667152,
      "v": 32
    },
    {
      "midi": 62,
      "hit": false,
      "t": 46385.416666666795,
      "d": 98.95833333333576,
      "v": 48
    },
    {
      "midi": 74,
      "hit": false,
      "t": 46385.416666666795,
      "d": 156.25000000000728,
      "v": 52
    },
    {
      "midi": 58,
      "hit": false,
      "t": 46406.25000000013,
      "d": 98.95833333333576,
      "v": 17
    },
    {
      "midi": 54,
      "hit": false,
      "t": 46421.87500000013,
      "d": 88.54166666667152,
      "v": 22
    },
    {
      "midi": 70,
      "hit": false,
      "t": 46729.1666666668,
      "d": 62.5,
      "v": 39
    },
    {
      "midi": 58,
      "hit": false,
      "t": 46734.37500000014,
      "d": 72.91666666666424,
      "v": 24
    },
    {
      "midi": 66,
      "hit": false,
      "t": 46739.583333333474,
      "d": 62.499999999992724,
      "v": 35
    },
    {
      "midi": 62,
      "hit": false,
      "t": 46765.62500000014,
      "d": 78.125,
      "v": 12
    },
    {
      "midi": 60,
      "hit": false,
      "t": 47036.458333333474,
      "d": 213.54166666667152,
      "v": 67
    },
    {
      "midi": 62,
      "hit": false,
      "t": 47057.29166666681,
      "d": 72.91666666666424,
      "v": 36
    },
    {
      "midi": 66,
      "hit": false,
      "t": 47057.29166666681,
      "d": 526.0416666666642,
      "v": 33
    },
    {
      "midi": 54,
      "hit": false,
      "t": 47114.583333333474,
      "d": 78.125,
      "v": 19
    },
    {
      "midi": 50,
      "hit": false,
      "t": 47151.04166666681,
      "d": 46.875,
      "v": 3
    },
    {
      "midi": 58,
      "hit": false,
      "t": 47291.66666666681,
      "d": 312.5,
      "v": 75
    },
    {
      "midi": 46,
      "hit": false,
      "t": 47604.16666666681,
      "d": 197.91666666667152,
      "v": 24
    },
    {
      "midi": 34,
      "hit": false,
      "t": 47609.375000000146,
      "d": 151.04166666667152,
      "v": 26
    },
    {
      "midi": 57,
      "hit": false,
      "t": 47625.000000000146,
      "d": 166.66666666667152,
      "v": 81
    },
    {
      "midi": 62,
      "hit": false,
      "t": 48026.04166666682,
      "d": 78.125,
      "v": 44
    },
    {
      "midi": 67,
      "hit": false,
      "t": 48036.45833333348,
      "d": 67.70833333333576,
      "v": 48
    },
    {
      "midi": 50,
      "hit": false,
      "t": 48052.08333333348,
      "d": 78.125,
      "v": 24
    },
    {
      "midi": 55,
      "hit": false,
      "t": 48250.000000000146,
      "d": 395.8333333333285,
      "v": 81
    },
    {
      "midi": 62,
      "hit": false,
      "t": 48411.45833333348,
      "d": 171.87499999999272,
      "v": 39
    },
    {
      "midi": 70,
      "hit": false,
      "t": 48411.45833333348,
      "d": 171.87499999999272,
      "v": 28
    },
    {
      "midi": 67,
      "hit": false,
      "t": 48437.500000000146,
      "d": 135.41666666666424,
      "v": 21
    },
    {
      "midi": 50,
      "hit": false,
      "t": 48484.375000000146,
      "d": 72.91666666666424,
      "v": 41
    },
    {
      "midi": 46,
      "hit": false,
      "t": 48494.79166666681,
      "d": 72.91666666666424,
      "v": 25
    },
    {
      "midi": 70,
      "hit": false,
      "t": 48817.708333333474,
      "d": 88.54166666667152,
      "v": 37
    },
    {
      "midi": 74,
      "hit": false,
      "t": 48838.54166666681,
      "d": 401.0416666666715,
      "v": 53
    },
    {
      "midi": 62,
      "hit": false,
      "t": 48854.16666666681,
      "d": 343.75,
      "v": 92
    },
    {
      "midi": 58,
      "hit": false,
      "t": 48927.08333333348,
      "d": 57.29166666666424,
      "v": 3
    },
    {
      "midi": 70,
      "hit": false,
      "t": 49234.375000000146,
      "d": 114.58333333334303,
      "v": 44
    },
    {
      "midi": 67,
      "hit": false,
      "t": 49255.20833333348,
      "d": 72.91666666667152,
      "v": 38
    },
    {
      "midi": 58,
      "hit": false,
      "t": 49255.20833333348,
      "d": 88.54166666667152,
      "v": 21
    },
    {
      "midi": 50,
      "hit": false,
      "t": 49260.41666666682,
      "d": 83.33333333333576,
      "v": 5
    },
    {
      "midi": 62,
      "hit": false,
      "t": 49635.416666666824,
      "d": 78.125,
      "v": 35
    },
    {
      "midi": 67,
      "hit": false,
      "t": 49635.416666666824,
      "d": 156.25000000000728,
      "v": 38
    },
    {
      "midi": 50,
      "hit": false,
      "t": 49656.25000000016,
      "d": 98.95833333333576,
      "v": 26
    },
    {
      "midi": 46,
      "hit": false,
      "t": 49682.291666666824,
      "d": 67.70833333333576,
      "v": 27
    },
    {
      "midi": 64,
      "hit": false,
      "t": 49911.458333333496,
      "d": 453.1250000000073,
      "v": 85
    },
    {
      "midi": 62,
      "hit": false,
      "t": 50322.91666666683,
      "d": 343.7500000000073,
      "v": 91
    },
    {
      "midi": 33,
      "hit": false,
      "t": 50343.75000000017,
      "d": 177.08333333333576,
      "v": 25
    },
    {
      "midi": 45,
      "hit": false,
      "t": 50343.75000000017,
      "d": 223.95833333333576,
      "v": 27
    },
    {
      "midi": 58,
      "hit": false,
      "t": 50807.29166666684,
      "d": 98.95833333333576,
      "v": 28
    },
    {
      "midi": 55,
      "hit": false,
      "t": 50812.500000000175,
      "d": 78.125,
      "v": 18
    },
    {
      "midi": 67,
      "hit": false,
      "t": 50833.33333333351,
      "d": 109.375,
      "v": 34
    },
    {
      "midi": 64,
      "hit": false,
      "t": 50833.33333333351,
      "d": 1098.9583333333358,
      "v": 40
    },
    {
      "midi": 70,
      "hit": false,
      "t": 51197.916666666846,
      "d": 125,
      "v": 30
    },
    {
      "midi": 67,
      "hit": false,
      "t": 51223.95833333351,
      "d": 88.54166666666424,
      "v": 29
    },
    {
      "midi": 52,
      "hit": false,
      "t": 51239.58333333351,
      "d": 109.375,
      "v": 23
    },
    {
      "midi": 55,
      "hit": false,
      "t": 51250.000000000175,
      "d": 67.70833333333576,
      "v": 27
    },
    {
      "midi": 70,
      "hit": false,
      "t": 51572.916666666846,
      "d": 83.33333333333576,
      "v": 23
    },
    {
      "midi": 74,
      "hit": false,
      "t": 51593.75000000018,
      "d": 229.16666666666424,
      "v": 34
    },
    {
      "midi": 55,
      "hit": false,
      "t": 51604.166666666846,
      "d": 114.58333333333576,
      "v": 22
    },
    {
      "midi": 58,
      "hit": false,
      "t": 51609.37500000018,
      "d": 93.75,
      "v": 14
    },
    {
      "midi": 58,
      "hit": false,
      "t": 51953.12500000018,
      "d": 125.00000000000728,
      "v": 16
    },
    {
      "midi": 62,
      "hit": false,
      "t": 51953.12500000018,
      "d": 130.20833333334303,
      "v": 27
    },
    {
      "midi": 70,
      "hit": false,
      "t": 51958.33333333352,
      "d": 375.0000000000073,
      "v": 20
    },
    {
      "midi": 67,
      "hit": false,
      "t": 51979.16666666685,
      "d": 93.75,
      "v": 16
    },
    {
      "midi": 58,
      "hit": false,
      "t": 52354.16666666686,
      "d": 83.33333333332848,
      "v": 19
    },
    {
      "midi": 67,
      "hit": false,
      "t": 52354.16666666686,
      "d": 302.0833333333285,
      "v": 23
    },
    {
      "midi": 64,
      "hit": false,
      "t": 52364.583333333525,
      "d": 546.8749999999927,
      "v": 24
    },
    {
      "midi": 55,
      "hit": false,
      "t": 52380.208333333525,
      "d": 72.91666666666424,
      "v": 19
    },
    {
      "midi": 61,
      "hit": false,
      "t": 52822.91666666685,
      "d": 958.3333333333358,
      "v": 41
    },
    {
      "midi": 33,
      "hit": false,
      "t": 52859.37500000019,
      "d": 171.87499999999272,
      "v": 22
    },
    {
      "midi": 45,
      "hit": false,
      "t": 52869.79166666685,
      "d": 203.125,
      "v": 14
    },
    {
      "midi": 67,
      "hit": false,
      "t": 53276.04166666685,
      "d": 177.08333333333576,
      "v": 28
    },
    {
      "midi": 57,
      "hit": false,
      "t": 53286.45833333352,
      "d": 83.33333333333576,
      "v": 23
    },
    {
      "midi": 55,
      "hit": false,
      "t": 53291.66666666685,
      "d": 78.125,
      "v": 23
    },
    {
      "midi": 64,
      "hit": false,
      "t": 53312.50000000019,
      "d": 104.16666666666424,
      "v": 22
    },
    {
      "midi": 69,
      "hit": false,
      "t": 53656.25000000019,
      "d": 83.33333333333576,
      "v": 30
    },
    {
      "midi": 52,
      "hit": false,
      "t": 53661.458333333525,
      "d": 78.125,
      "v": 26
    },
    {
      "midi": 67,
      "hit": false,
      "t": 53661.458333333525,
      "d": 125,
      "v": 23
    },
    {
      "midi": 55,
      "hit": false,
      "t": 53671.87500000019,
      "d": 78.125,
      "v": 14
    },
    {
      "midi": 55,
      "hit": false,
      "t": 53989.583333333525,
      "d": 88.54166666666424,
      "v": 30
    },
    {
      "midi": 73,
      "hit": false,
      "t": 53994.79166666686,
      "d": 192.70833333332848,
      "v": 29
    },
    {
      "midi": 57,
      "hit": false,
      "t": 54005.208333333525,
      "d": 78.125,
      "v": 15
    },
    {
      "midi": 69,
      "hit": false,
      "t": 54005.208333333525,
      "d": 93.75,
      "v": 17
    },
    {
      "midi": 61,
      "hit": false,
      "t": 54333.333333333525,
      "d": 161.45833333333576,
      "v": 35
    },
    {
      "midi": 69,
      "hit": false,
      "t": 54343.75000000019,
      "d": 130.20833333333576,
      "v": 35
    },
    {
      "midi": 67,
      "hit": false,
      "t": 54364.583333333525,
      "d": 98.95833333333576,
      "v": 21
    },
    {
      "midi": 57,
      "hit": false,
      "t": 54375.00000000019,
      "d": 83.33333333333576,
      "v": 17
    },
    {
      "midi": 67,
      "hit": false,
      "t": 54770.833333333525,
      "d": 98.95833333334303,
      "v": 26
    },
    {
      "midi": 64,
      "hit": false,
      "t": 54807.29166666686,
      "d": 93.75000000000728,
      "v": 9
    },
    {
      "midi": 57,
      "hit": false,
      "t": 54812.5000000002,
      "d": 166.66666666667152,
      "v": 70
    },
    {
      "midi": 55,
      "hit": false,
      "t": 54864.58333333353,
      "d": 72.91666666667152,
      "v": 30
    },
    {
      "midi": 60,
      "hit": false,
      "t": 55463.54166666687,
      "d": 270.83333333333576,
      "v": 85
    },
    {
      "midi": 30,
      "hit": false,
      "t": 55489.58333333354,
      "d": 145.83333333333576,
      "v": 29
    },
    {
      "midi": 42,
      "hit": false,
      "t": 55510.416666666875,
      "d": 135.41666666666424,
      "v": 26
    },
    {
      "midi": 69,
      "hit": false,
      "t": 56020.83333333354,
      "d": 104.16666666666424,
      "v": 34
    },
    {
      "midi": 63,
      "hit": false,
      "t": 56031.250000000204,
      "d": 135.41666666666424,
      "v": 33
    },
    {
      "midi": 54,
      "hit": false,
      "t": 56041.66666666687,
      "d": 83.33333333333576,
      "v": 36
    },
    {
      "midi": 60,
      "hit": false,
      "t": 56041.66666666687,
      "d": 114.58333333333576,
      "v": 26
    },
    {
      "midi": 72,
      "hit": false,
      "t": 56432.29166666687,
      "d": 187.5,
      "v": 39
    },
    {
      "midi": 69,
      "hit": false,
      "t": 56437.500000000204,
      "d": 83.33333333332848,
      "v": 30
    },
    {
      "midi": 54,
      "hit": false,
      "t": 56447.91666666687,
      "d": 98.95833333333576,
      "v": 27
    },
    {
      "midi": 51,
      "hit": false,
      "t": 56458.33333333353,
      "d": 83.33333333333576,
      "v": 33
    },
    {
      "midi": 75,
      "hit": false,
      "t": 56776.04166666687,
      "d": 364.58333333333576,
      "v": 39
    },
    {
      "midi": 63,
      "hit": false,
      "t": 56781.250000000204,
      "d": 125,
      "v": 32
    },
    {
      "midi": 54,
      "hit": false,
      "t": 56791.66666666687,
      "d": 125,
      "v": 35
    },
    {
      "midi": 69,
      "hit": false,
      "t": 56802.08333333353,
      "d": 83.33333333333576,
      "v": 25
    },
    {
      "midi": 60,
      "hit": false,
      "t": 56822.91666666687,
      "d": 78.125,
      "v": 15
    },
    {
      "midi": 69,
      "hit": false,
      "t": 57166.66666666687,
      "d": 78.125,
      "v": 27
    },
    {
      "midi": 72,
      "hit": false,
      "t": 57177.08333333353,
      "d": 67.70833333333576,
      "v": 32
    },
    {
      "midi": 63,
      "hit": false,
      "t": 57182.29166666687,
      "d": 78.125,
      "v": 26
    },
    {
      "midi": 60,
      "hit": false,
      "t": 57208.33333333353,
      "d": 67.70833333333576,
      "v": 11
    },
    {
      "midi": 54,
      "hit": false,
      "t": 57625.000000000204,
      "d": 119.79166666666424,
      "v": 19
    },
    {
      "midi": 69,
      "hit": false,
      "t": 57635.41666666687,
      "d": 229.16666666667152,
      "v": 24
    },
    {
      "midi": 60,
      "hit": false,
      "t": 57640.625000000204,
      "d": 72.91666666666424,
      "v": 23
    },
    {
      "midi": 63,
      "hit": false,
      "t": 57651.04166666687,
      "d": 88.54166666666424,
      "v": 24
    },
    {
      "midi": 58,
      "hit": false,
      "t": 57828.125000000204,
      "d": 322.9166666666715,
      "v": 56
    },
    {
      "midi": 63,
      "hit": false,
      "t": 57869.791666666875,
      "d": 203.125,
      "v": 45
    },
    {
      "midi": 42,
      "hit": false,
      "t": 58218.75000000021,
      "d": 234.37499999999272,
      "v": 33
    },
    {
      "midi": 30,
      "hit": false,
      "t": 58229.166666666875,
      "d": 177.08333333332848,
      "v": 17
    },
    {
      "midi": 57,
      "hit": false,
      "t": 58255.20833333354,
      "d": 203.125,
      "v": 65
    },
    {
      "midi": 60,
      "hit": false,
      "t": 58755.20833333354,
      "d": 177.08333333332848,
      "v": 71
    },
    {
      "midi": 69,
      "hit": false,
      "t": 58770.83333333354,
      "d": 223.95833333332848,
      "v": 38
    },
    {
      "midi": 63,
      "hit": false,
      "t": 58802.08333333354,
      "d": 72.91666666666424,
      "v": 23
    },
    {
      "midi": 54,
      "hit": false,
      "t": 58802.08333333354,
      "d": 83.33333333332848,
      "v": 27
    },
    {
      "midi": 62,
      "hit": false,
      "t": 59166.66666666687,
      "d": 182.29166666666424,
      "v": 75
    },
    {
      "midi": 72,
      "hit": false,
      "t": 59182.29166666687,
      "d": 197.91666666666424,
      "v": 51
    },
    {
      "midi": 63,
      "hit": false,
      "t": 59187.500000000204,
      "d": 72.91666666666424,
      "v": 43
    },
    {
      "midi": 57,
      "hit": false,
      "t": 59187.500000000204,
      "d": 78.125,
      "v": 44
    },
    {
      "midi": 66,
      "hit": false,
      "t": 59229.16666666687,
      "d": 78.125,
      "v": 11
    },
    {
      "midi": 75,
      "hit": false,
      "t": 59583.33333333353,
      "d": 510.41666666665697,
      "v": 39
    },
    {
      "midi": 63,
      "hit": false,
      "t": 59625.0000000002,
      "d": 333.3333333333285,
      "v": 70
    },
    {
      "midi": 66,
      "hit": false,
      "t": 59635.41666666686,
      "d": 229.16666666666424,
      "v": 10
    },
    {
      "midi": 69,
      "hit": false,
      "t": 59656.2500000002,
      "d": 171.87499999999272,
      "v": 6
    },
    {
      "midi": 60,
      "hit": false,
      "t": 59713.54166666686,
      "d": 171.875,
      "v": 8
    },
    {
      "midi": 60,
      "hit": false,
      "t": 60171.87500000019,
      "d": 192.70833333333576,
      "v": 71
    },
    {
      "midi": 63,
      "hit": false,
      "t": 60192.708333333525,
      "d": 78.125,
      "v": 19
    },
    {
      "midi": 72,
      "hit": false,
      "t": 60192.708333333525,
      "d": 78.125,
      "v": 27
    },
    {
      "midi": 66,
      "hit": false,
      "t": 60208.333333333525,
      "d": 88.54166666666424,
      "v": 11
    },
    {
      "midi": 57,
      "hit": false,
      "t": 60640.62500000019,
      "d": 125.00000000000728,
      "v": 59
    },
    {
      "midi": 69,
      "hit": false,
      "t": 60651.04166666685,
      "d": 250.00000000000728,
      "v": 24
    },
    {
      "midi": 60,
      "hit": false,
      "t": 60656.25000000019,
      "d": 93.75000000000728,
      "v": 28
    },
    {
      "midi": 54,
      "hit": false,
      "t": 60677.083333333525,
      "d": 52.08333333333576,
      "v": 44
    },
    {
      "midi": 58,
      "hit": false,
      "t": 61255.208333333525,
      "d": 375,
      "v": 61
    },
    {
      "midi": 31,
      "hit": false,
      "t": 61302.083333333525,
      "d": 166.66666666666424,
      "v": 32
    },
    {
      "midi": 43,
      "hit": false,
      "t": 61302.083333333525,
      "d": 213.54166666666424,
      "v": 25
    },
    {
      "midi": 58,
      "hit": false,
      "t": 61843.75000000019,
      "d": 135.41666666667152,
      "v": 19
    },
    {
      "midi": 67,
      "hit": false,
      "t": 61848.958333333525,
      "d": 88.54166666666424,
      "v": 32
    },
    {
      "midi": 62,
      "hit": false,
      "t": 61859.37500000019,
      "d": 83.33333333333576,
      "v": 34
    },
    {
      "midi": 55,
      "hit": false,
      "t": 61901.04166666685,
      "d": 83.33333333334303,
      "v": 8
    },
    {
      "midi": 70,
      "hit": false,
      "t": 62239.58333333353,
      "d": 104.16666666667152,
      "v": 32
    },
    {
      "midi": 50,
      "hit": false,
      "t": 62244.79166666687,
      "d": 88.54166666666424,
      "v": 31
    },
    {
      "midi": 67,
      "hit": false,
      "t": 62255.20833333353,
      "d": 88.54166666667152,
      "v": 27
    },
    {
      "midi": 55,
      "hit": false,
      "t": 62265.6250000002,
      "d": 72.91666666667152,
      "v": 21
    },
    {
      "midi": 62,
      "hit": false,
      "t": 62593.750000000204,
      "d": 93.75,
      "v": 31
    },
    {
      "midi": 67,
      "hit": false,
      "t": 62604.16666666687,
      "d": 88.54166666667152,
      "v": 28
    },
    {
      "midi": 74,
      "hit": false,
      "t": 62609.375000000204,
      "d": 78.125,
      "v": 37
    },
    {
      "midi": 58,
      "hit": false,
      "t": 62625.000000000204,
      "d": 104.16666666667152,
      "v": 10
    },
    {
      "midi": 55,
      "hit": false,
      "t": 62635.41666666687,
      "d": 93.75000000000728,
      "v": 22
    },
    {
      "midi": 62,
      "hit": false,
      "t": 62968.75000000021,
      "d": 78.12500000000728,
      "v": 30
    },
    {
      "midi": 70,
      "hit": false,
      "t": 62968.75000000021,
      "d": 156.25000000000728,
      "v": 25
    },
    {
      "midi": 58,
      "hit": false,
      "t": 62973.95833333355,
      "d": 109.37500000000728,
      "v": 21
    },
    {
      "midi": 67,
      "hit": false,
      "t": 62979.16666666688,
      "d": 83.33333333333576,
      "v": 27
    },
    {
      "midi": 58,
      "hit": false,
      "t": 63348.958333333554,
      "d": 83.33333333333576,
      "v": 10
    },
    {
      "midi": 62,
      "hit": false,
      "t": 63354.16666666689,
      "d": 343.75,
      "v": 17
    },
    {
      "midi": 55,
      "hit": false,
      "t": 63364.583333333554,
      "d": 72.91666666667152,
      "v": 21
    },
    {
      "midi": 67,
      "hit": false,
      "t": 63369.79166666689,
      "d": 312.5,
      "v": 18
    },
    {
      "midi": 31,
      "hit": false,
      "t": 63750.000000000226,
      "d": 62.5,
      "v": 44
    },
    {
      "midi": 58,
      "hit": false,
      "t": 64098.95833333356,
      "d": 119.79166666667152,
      "v": 34
    },
    {
      "midi": 64,
      "hit": false,
      "t": 64098.95833333356,
      "d": 151.04166666667152,
      "v": 45
    },
    {
      "midi": 62,
      "hit": false,
      "t": 64104.1666666669,
      "d": 125,
      "v": 33
    },
    {
      "midi": 52,
      "hit": false,
      "t": 64125.00000000023,
      "d": 72.91666666666424,
      "v": 30
    },
    {
      "midi": 70,
      "hit": false,
      "t": 64427.08333333357,
      "d": 171.87500000000728,
      "v": 42
    },
    {
      "midi": 50,
      "hit": false,
      "t": 64442.70833333357,
      "d": 72.91666666667152,
      "v": 36
    },
    {
      "midi": 64,
      "hit": false,
      "t": 64463.541666666904,
      "d": 83.33333333333576,
      "v": 31
    },
    {
      "midi": 52,
      "hit": false,
      "t": 64479.166666666904,
      "d": 52.08333333333576,
      "v": 14
    },
    {
      "midi": 52,
      "hit": false,
      "t": 64645.833333333576,
      "d": 348.9583333333285,
      "v": 33
    },
    {
      "midi": 58,
      "hit": false,
      "t": 64734.37500000024,
      "d": 78.125,
      "v": 30
    },
    {
      "midi": 74,
      "hit": false,
      "t": 64796.87500000024,
      "d": 385.41666666666424,
      "v": 55
    },
    {
      "midi": 70,
      "hit": false,
      "t": 64802.083333333576,
      "d": 72.91666666666424,
      "v": 19
    },
    {
      "midi": 64,
      "hit": false,
      "t": 64859.37500000024,
      "d": 72.91666666666424,
      "v": 10
    },
    {
      "midi": 62,
      "hit": false,
      "t": 64916.666666666904,
      "d": 322.91666666666424,
      "v": 89
    },
    {
      "midi": 70,
      "hit": false,
      "t": 65291.666666666904,
      "d": 270.8333333333285,
      "v": 44
    },
    {
      "midi": 58,
      "hit": false,
      "t": 65302.08333333357,
      "d": 83.33333333332848,
      "v": 15
    },
    {
      "midi": 52,
      "hit": false,
      "t": 65317.70833333357,
      "d": 83.33333333332848,
      "v": 39
    },
    {
      "midi": 64,
      "hit": false,
      "t": 65343.75000000023,
      "d": 67.70833333332848,
      "v": 13
    },
    {
      "midi": 60,
      "hit": false,
      "t": 65572.9166666669,
      "d": 406.25,
      "v": 89
    },
    {
      "midi": 58,
      "hit": false,
      "t": 65750.00000000023,
      "d": 145.83333333334303,
      "v": 28
    },
    {
      "midi": 55,
      "hit": false,
      "t": 65791.6666666669,
      "d": 78.125,
      "v": 21
    },
    {
      "midi": 64,
      "hit": false,
      "t": 65807.2916666669,
      "d": 239.58333333332848,
      "v": 44
    },
    {
      "midi": 60,
      "hit": false,
      "t": 66229.1666666669,
      "d": 333.33333333334303,
      "v": 80
    },
    {
      "midi": 45,
      "hit": false,
      "t": 66265.62500000025,
      "d": 182.29166666667152,
      "v": 13
    },
    {
      "midi": 33,
      "hit": false,
      "t": 66276.04166666692,
      "d": 135.41666666667152,
      "v": 36
    },
    {
      "midi": 65,
      "hit": false,
      "t": 66661.45833333358,
      "d": 98.95833333334303,
      "v": 36
    },
    {
      "midi": 60,
      "hit": false,
      "t": 66661.45833333358,
      "d": 109.37500000001455,
      "v": 31
    },
    {
      "midi": 57,
      "hit": false,
      "t": 66671.87500000025,
      "d": 72.91666666667152,
      "v": 28
    },
    {
      "midi": 53,
      "hit": false,
      "t": 66682.29166666692,
      "d": 67.70833333332848,
      "v": 45
    },
    {
      "midi": 65,
      "hit": false,
      "t": 67026.04166666692,
      "d": 98.95833333332848,
      "v": 42
    },
    {
      "midi": 69,
      "hit": false,
      "t": 67026.04166666692,
      "d": 197.91666666665697,
      "v": 37
    },
    {
      "midi": 53,
      "hit": false,
      "t": 67046.87500000025,
      "d": 78.125,
      "v": 50
    },
    {
      "midi": 48,
      "hit": false,
      "t": 67052.08333333358,
      "d": 104.16666666667152,
      "v": 20
    },
    {
      "midi": 72,
      "hit": false,
      "t": 67380.20833333358,
      "d": 265.625,
      "v": 41
    },
    {
      "midi": 60,
      "hit": false,
      "t": 67385.4166666669,
      "d": 83.33333333334303,
      "v": 36
    },
    {
      "midi": 57,
      "hit": false,
      "t": 67401.0416666669,
      "d": 78.12500000001455,
      "v": 19
    },
    {
      "midi": 53,
      "hit": false,
      "t": 67401.0416666669,
      "d": 98.95833333334303,
      "v": 48
    },
    {
      "midi": 65,
      "hit": false,
      "t": 67411.45833333358,
      "d": 93.75,
      "v": 26
    },
    {
      "midi": 69,
      "hit": false,
      "t": 67765.62500000025,
      "d": 62.5,
      "v": 33
    },
    {
      "midi": 60,
      "hit": false,
      "t": 67776.04166666692,
      "d": 93.74999999998545,
      "v": 37
    },
    {
      "midi": 65,
      "hit": false,
      "t": 67791.66666666692,
      "d": 72.91666666665697,
      "v": 19
    },
    {
      "midi": 57,
      "hit": false,
      "t": 67807.29166666692,
      "d": 57.291666666656965,
      "v": 7
    },
    {
      "midi": 65,
      "hit": false,
      "t": 68140.62500000023,
      "d": 72.91666666665697,
      "v": 48
    },
    {
      "midi": 57,
      "hit": false,
      "t": 68145.83333333356,
      "d": 161.45833333331393,
      "v": 62
    },
    {
      "midi": 53,
      "hit": false,
      "t": 68218.75000000022,
      "d": 67.70833333332848,
      "v": 25
    },
    {
      "midi": 48,
      "hit": false,
      "t": 68234.37500000022,
      "d": 78.12499999998545,
      "v": 9
    },
    {
      "midi": 55,
      "hit": false,
      "t": 68708.33333333353,
      "d": 281.25000000001455,
      "v": 84
    },
    {
      "midi": 38,
      "hit": false,
      "t": 68765.6250000002,
      "d": 119.79166666667152,
      "v": 22
    },
    {
      "midi": 65,
      "hit": false,
      "t": 69281.25000000022,
      "d": 72.91666666667152,
      "v": 40
    },
    {
      "midi": 67,
      "hit": false,
      "t": 69281.25000000022,
      "d": 88.54166666667152,
      "v": 44
    },
    {
      "midi": 59,
      "hit": false,
      "t": 69281.25000000022,
      "d": 223.95833333332848,
      "v": 80
    },
    {
      "midi": 55,
      "hit": false,
      "t": 69312.50000000022,
      "d": 62.5,
      "v": 36
    },
    {
      "midi": 50,
      "hit": false,
      "t": 69343.75000000022,
      "d": 78.125,
      "v": 27
    },
    {
      "midi": 71,
      "hit": false,
      "t": 69718.75000000022,
      "d": 119.79166666664241,
      "v": 68
    },
    {
      "midi": 62,
      "hit": false,
      "t": 69723.95833333355,
      "d": 197.9166666666424,
      "v": 89
    },
    {
      "midi": 65,
      "hit": false,
      "t": 69729.16666666688,
      "d": 57.291666666656965,
      "v": 42
    },
    {
      "midi": 55,
      "hit": false,
      "t": 69750.0000000002,
      "d": 72.91666666665697,
      "v": 58
    },
    {
      "midi": 59,
      "hit": false,
      "t": 69770.83333333353,
      "d": 62.5,
      "v": 31
    },
    {
      "midi": 77,
      "hit": false,
      "t": 70161.45833333352,
      "d": 124.99999999998545,
      "v": 50
    },
    {
      "midi": 67,
      "hit": false,
      "t": 70166.66666666685,
      "d": 93.75,
      "v": 40
    },
    {
      "midi": 65,
      "hit": false,
      "t": 70166.66666666685,
      "d": 223.95833333332848,
      "v": 76
    },
    {
      "midi": 71,
      "hit": false,
      "t": 70203.12500000017,
      "d": 67.70833333332848,
      "v": 15
    },
    {
      "midi": 59,
      "hit": false,
      "t": 70244.79166666685,
      "d": 98.95833333332848,
      "v": 24
    },
    {
      "midi": 55,
      "hit": false,
      "t": 70265.62500000017,
      "d": 93.75,
      "v": 15
    },
    {
      "midi": 62,
      "hit": false,
      "t": 70713.54166666685,
      "d": 171.875,
      "v": 65
    },
    {
      "midi": 74,
      "hit": false,
      "t": 70718.75000000017,
      "d": 109.375,
      "v": 51
    },
    {
      "midi": 65,
      "hit": false,
      "t": 70744.79166666685,
      "d": 83.33333333332848,
      "v": 24
    },
    {
      "midi": 67,
      "hit": false,
      "t": 70760.41666666685,
      "d": 83.33333333332848,
      "v": 12
    },
    {
      "midi": 59,
      "hit": false,
      "t": 70776.04166666685,
      "d": 67.70833333332848,
      "v": 17
    },
    {
      "midi": 55,
      "hit": false,
      "t": 70781.25000000017,
      "d": 78.125,
      "v": 17
    },
    {
      "midi": 59,
      "hit": false,
      "t": 71161.45833333352,
      "d": 156.25,
      "v": 59
    },
    {
      "midi": 71,
      "hit": false,
      "t": 71166.66666666685,
      "d": 93.75,
      "v": 42
    },
    {
      "midi": 65,
      "hit": false,
      "t": 71182.29166666685,
      "d": 78.125,
      "v": 27
    },
    {
      "midi": 50,
      "hit": false,
      "t": 71213.54166666685,
      "d": 78.125,
      "v": 29
    },
    {
      "midi": 60,
      "hit": false,
      "t": 71781.25000000019,
      "d": 291.6666666666715,
      "v": 65
    },
    {
      "midi": 48,
      "hit": false,
      "t": 71822.91666666686,
      "d": 208.33333333332848,
      "v": 19
    },
    {
      "midi": 36,
      "hit": false,
      "t": 71833.33333333353,
      "d": 145.83333333332848,
      "v": 22
    },
    {
      "midi": 69,
      "hit": false,
      "t": 72364.58333333353,
      "d": 125,
      "v": 24
    },
    {
      "midi": 60,
      "hit": false,
      "t": 72364.58333333353,
      "d": 135.41666666667152,
      "v": 20
    },
    {
      "midi": 57,
      "hit": false,
      "t": 72380.20833333353,
      "d": 109.375,
      "v": 20
    },
    {
      "midi": 65,
      "hit": false,
      "t": 72411.45833333353,
      "d": 104.16666666667152,
      "v": 14
    },
    {
      "midi": 72,
      "hit": false,
      "t": 72750.0000000002,
      "d": 125,
      "v": 32
    },
    {
      "midi": 65,
      "hit": false,
      "t": 72760.41666666688,
      "d": 104.16666666665697,
      "v": 31
    },
    {
      "midi": 69,
      "hit": false,
      "t": 72765.6250000002,
      "d": 93.75,
      "v": 24
    },
    {
      "midi": 53,
      "hit": false,
      "t": 72781.2500000002,
      "d": 78.125,
      "v": 38
    },
    {
      "midi": 57,
      "hit": false,
      "t": 72781.2500000002,
      "d": 98.95833333332848,
      "v": 10
    },
    {
      "midi": 77,
      "hit": false,
      "t": 73114.58333333353,
      "d": 135.41666666670062,
      "v": 41
    },
    {
      "midi": 65,
      "hit": false,
      "t": 73125.0000000002,
      "d": 83.33333333334303,
      "v": 26
    },
    {
      "midi": 60,
      "hit": false,
      "t": 73125.0000000002,
      "d": 93.75000000001455,
      "v": 23
    },
    {
      "midi": 57,
      "hit": false,
      "t": 73125.0000000002,
      "d": 104.16666666668607,
      "v": 18
    },
    {
      "midi": 69,
      "hit": false,
      "t": 73135.41666666688,
      "d": 104.16666666668607,
      "v": 27
    },
    {
      "midi": 72,
      "hit": false,
      "t": 73489.58333333356,
      "d": 72.91666666667152,
      "v": 32
    },
    {
      "midi": 65,
      "hit": false,
      "t": 73500.00000000023,
      "d": 67.70833333332848,
      "v": 29
    },
    {
      "midi": 60,
      "hit": false,
      "t": 73500.00000000023,
      "d": 83.33333333332848,
      "v": 30
    },
    {
      "midi": 69,
      "hit": false,
      "t": 73510.4166666669,
      "d": 83.33333333332848,
      "v": 16
    },
    {
      "midi": 69,
      "hit": false,
      "t": 73880.20833333356,
      "d": 484.37499999998545,
      "v": 22
    },
    {
      "midi": 65,
      "hit": false,
      "t": 73895.83333333356,
      "d": 385.41666666665697,
      "v": 23
    },
    {
      "midi": 57,
      "hit": false,
      "t": 73911.45833333356,
      "d": 78.125,
      "v": 18
    },
    {
      "midi": 60,
      "hit": false,
      "t": 74104.16666666689,
      "d": 624.9999999999854,
      "v": 4
    },
    {
      "midi": 48,
      "hit": false,
      "t": 74364.58333333355,
      "d": 291.66666666665697,
      "v": 27
    },
    {
      "midi": 36,
      "hit": false,
      "t": 74380.20833333355,
      "d": 182.29166666665697,
      "v": 27
    },
    {
      "midi": 70,
      "hit": false,
      "t": 74864.58333333355,
      "d": 182.29166666665697,
      "v": 24
    },
    {
      "midi": 60,
      "hit": false,
      "t": 74901.04166666688,
      "d": 145.83333333332848,
      "v": 10
    },
    {
      "midi": 55,
      "hit": false,
      "t": 74901.04166666688,
      "d": 359.375,
      "v": 48
    },
    {
      "midi": 64,
      "hit": false,
      "t": 74916.66666666688,
      "d": 98.95833333332848,
      "v": 15
    },
    {
      "midi": 72,
      "hit": false,
      "t": 75270.83333333355,
      "d": 109.375,
      "v": 19
    },
    {
      "midi": 60,
      "hit": false,
      "t": 75276.04166666688,
      "d": 78.125,
      "v": 20
    },
    {
      "midi": 57,
      "hit": false,
      "t": 75296.8750000002,
      "d": 380.20833333334303,
      "v": 41
    },
    {
      "midi": 64,
      "hit": false,
      "t": 75322.91666666688,
      "d": 62.5,
      "v": 8
    },
    {
      "midi": 76,
      "hit": false,
      "t": 75682.29166666688,
      "d": 583.3333333333285,
      "v": 37
    },
    {
      "midi": 58,
      "hit": false,
      "t": 75697.91666666688,
      "d": 276.0416666666715,
      "v": 28
    },
    {
      "midi": 64,
      "hit": false,
      "t": 75708.33333333355,
      "d": 203.125,
      "v": 20
    },
    {
      "midi": 60,
      "hit": false,
      "t": 76041.66666666688,
      "d": 98.95833333332848,
      "v": 28
    },
    {
      "midi": 58,
      "hit": false,
      "t": 76161.45833333353,
      "d": 130.20833333334303,
      "v": 30
    },
    {
      "midi": 64,
      "hit": false,
      "t": 76354.16666666688,
      "d": 187.5,
      "v": 26
    },
    {
      "midi": 72,
      "hit": false,
      "t": 76354.16666666688,
      "d": 500,
      "v": 27
    },
    {
      "midi": 57,
      "hit": false,
      "t": 76375.0000000002,
      "d": 375,
      "v": 32
    },
    {
      "midi": 70,
      "hit": false,
      "t": 76812.5000000002,
      "d": 447.9166666666715,
      "v": 28
    },
    {
      "midi": 55,
      "hit": false,
      "t": 76838.54166666688,
      "d": 276.0416666666715,
      "v": 37
    },
    {
      "midi": 60,
      "hit": false,
      "t": 76838.54166666688,
      "d": 296.875,
      "v": 15
    },
    {
      "midi": 64,
      "hit": false,
      "t": 76875.0000000002,
      "d": 177.08333333334303,
      "v": 17
    },
    {
      "midi": 53,
      "hit": false,
      "t": 77458.33333333355,
      "d": 286.4583333333285,
      "v": 54
    },
    {
      "midi": 41,
      "hit": false,
      "t": 77473.95833333355,
      "d": 203.125,
      "v": 21
    },
    {
      "midi": 69,
      "hit": false,
      "t": 77958.33333333355,
      "d": 166.66666666665697,
      "v": 19
    },
    {
      "midi": 65,
      "hit": false,
      "t": 77963.54166666688,
      "d": 171.875,
      "v": 20
    },
    {
      "midi": 60,
      "hit": false,
      "t": 77984.3750000002,
      "d": 119.79166666667152,
      "v": 28
    },
    {
      "midi": 57,
      "hit": false,
      "t": 78005.20833333353,
      "d": 88.54166666667152,
      "v": 15
    },
    {
      "midi": 72,
      "hit": false,
      "t": 78354.16666666688,
      "d": 78.125,
      "v": 35
    },
    {
      "midi": 57,
      "hit": false,
      "t": 78364.58333333355,
      "d": 83.33333333332848,
      "v": 22
    },
    {
      "midi": 69,
      "hit": false,
      "t": 78364.58333333355,
      "d": 93.74999999998545,
      "v": 20
    },
    {
      "midi": 53,
      "hit": false,
      "t": 78385.41666666688,
      "d": 67.70833333332848,
      "v": 42
    },
    {
      "midi": 69,
      "hit": false,
      "t": 78713.54166666686,
      "d": 109.375,
      "v": 26
    },
    {
      "midi": 77,
      "hit": false,
      "t": 78718.75000000019,
      "d": 72.91666666667152,
      "v": 38
    },
    {
      "midi": 65,
      "hit": false,
      "t": 78729.16666666686,
      "d": 78.125,
      "v": 27
    },
    {
      "midi": 57,
      "hit": false,
      "t": 78729.16666666686,
      "d": 88.54166666667152,
      "v": 19
    },
    {
      "midi": 60,
      "hit": false,
      "t": 78744.79166666686,
      "d": 83.33333333332848,
      "v": 10
    },
    {
      "midi": 65,
      "hit": false,
      "t": 79057.29166666686,
      "d": 72.91666666667152,
      "v": 28
    },
    {
      "midi": 60,
      "hit": false,
      "t": 79067.70833333353,
      "d": 88.54166666667152,
      "v": 22
    },
    {
      "midi": 72,
      "hit": false,
      "t": 79067.70833333353,
      "d": 130.20833333334303,
      "v": 29
    },
    {
      "midi": 69,
      "hit": false,
      "t": 79072.91666666686,
      "d": 98.95833333334303,
      "v": 17
    },
    {
      "midi": 57,
      "hit": false,
      "t": 79437.5000000002,
      "d": 78.125,
      "v": 15
    },
    {
      "midi": 69,
      "hit": false,
      "t": 79442.70833333353,
      "d": 104.16666666667152,
      "v": 25
    },
    {
      "midi": 60,
      "hit": false,
      "t": 79453.1250000002,
      "d": 78.125,
      "v": 19
    },
    {
      "midi": 65,
      "hit": false,
      "t": 79479.16666666688,
      "d": 88.54166666665697,
      "v": 5
    },
    {
      "midi": 41,
      "hit": false,
      "t": 79833.33333333353,
      "d": 62.5,
      "v": 37
    },
    {
      "midi": 53,
      "hit": false,
      "t": 79843.7500000002,
      "d": 72.91666666665697,
      "v": 39
    },
    {
      "midi": 69,
      "hit": false,
      "t": 80161.45833333353,
      "d": 88.54166666667152,
      "v": 32
    },
    {
      "midi": 65,
      "hit": false,
      "t": 80171.8750000002,
      "d": 78.125,
      "v": 38
    },
    {
      "midi": 57,
      "hit": false,
      "t": 80182.29166666688,
      "d": 130.20833333332848,
      "v": 23
    },
    {
      "midi": 60,
      "hit": false,
      "t": 80197.91666666688,
      "d": 93.75,
      "v": 18
    },
    {
      "midi": 72,
      "hit": false,
      "t": 80500.0000000002,
      "d": 78.125,
      "v": 47
    },
    {
      "midi": 60,
      "hit": false,
      "t": 80515.6250000002,
      "d": 78.125,
      "v": 34
    },
    {
      "midi": 69,
      "hit": false,
      "t": 80515.6250000002,
      "d": 88.54166666667152,
      "v": 26
    },
    {
      "midi": 65,
      "hit": false,
      "t": 80520.83333333353,
      "d": 62.5,
      "v": 29
    },
    {
      "midi": 77,
      "hit": false,
      "t": 80880.20833333355,
      "d": 130.20833333334303,
      "v": 46
    },
    {
      "midi": 69,
      "hit": false,
      "t": 80890.62500000022,
      "d": 119.79166666667152,
      "v": 19
    },
    {
      "midi": 65,
      "hit": false,
      "t": 80895.83333333355,
      "d": 192.70833333334303,
      "v": 75
    },
    {
      "midi": 53,
      "hit": false,
      "t": 80968.75000000022,
      "d": 67.70833333334303,
      "v": 14
    },
    {
      "midi": 65,
      "hit": false,
      "t": 81291.66666666689,
      "d": 88.54166666665697,
      "v": 25
    },
    {
      "midi": 69,
      "hit": false,
      "t": 81312.50000000022,
      "d": 78.125,
      "v": 32
    },
    {
      "midi": 72,
      "hit": false,
      "t": 81312.50000000022,
      "d": 88.54166666667152,
      "v": 34
    },
    {
      "midi": 57,
      "hit": false,
      "t": 81333.33333333355,
      "d": 93.75000000001455,
      "v": 13
    },
    {
      "midi": 57,
      "hit": false,
      "t": 81697.91666666689,
      "d": 72.91666666667152,
      "v": 26
    },
    {
      "midi": 65,
      "hit": false,
      "t": 81697.91666666689,
      "d": 83.33333333334303,
      "v": 38
    },
    {
      "midi": 69,
      "hit": false,
      "t": 81708.33333333356,
      "d": 78.125,
      "v": 26
    },
    {
      "midi": 72,
      "hit": false,
      "t": 82109.37500000023,
      "d": 494.79166666665697,
      "v": 90
    },
    {
      "midi": 60,
      "hit": false,
      "t": 82125.00000000023,
      "d": 239.58333333332848,
      "v": 60
    },
    {
      "midi": 29,
      "hit": false,
      "t": 82166.66666666689,
      "d": 62.5,
      "v": 38
    },
    {
      "midi": 41,
      "hit": false,
      "t": 82197.91666666689,
      "d": 78.125,
      "v": 20
    },
    {
      "midi": 69,
      "hit": false,
      "t": 82520.83333333356,
      "d": 213.54166666665697,
      "v": 40
    },
    {
      "midi": 63,
      "hit": false,
      "t": 82531.25000000023,
      "d": 67.70833333332848,
      "v": 51
    },
    {
      "midi": 57,
      "hit": false,
      "t": 82567.70833333356,
      "d": 78.12499999998545,
      "v": 7
    },
    {
      "midi": 53,
      "hit": false,
      "t": 82625.00000000022,
      "d": 171.875,
      "v": 9
    },
    {
      "midi": 63,
      "hit": false,
      "t": 82932.29166666689,
      "d": 46.875,
      "v": 53
    },
    {
      "midi": 72,
      "hit": false,
      "t": 82932.29166666689,
      "d": 57.29166666667152,
      "v": 44
    },
    {
      "midi": 65,
      "hit": false,
      "t": 82942.70833333356,
      "d": 67.70833333332848,
      "v": 37
    },
    {
      "midi": 89,
      "hit": false,
      "t": 83322.91666666689,
      "d": 67.70833333332848,
      "v": 57
    },
    {
      "midi": 77,
      "hit": false,
      "t": 83333.33333333356,
      "d": 322.91666666665697,
      "v": 49
    },
    {
      "midi": 81,
      "hit": false,
      "t": 83338.54166666689,
      "d": 83.33333333332848,
      "v": 43
    },
    {
      "midi": 75,
      "hit": false,
      "t": 83343.75000000022,
      "d": 78.125,
      "v": 44
    },
    {
      "midi": 72,
      "hit": false,
      "t": 83390.62500000022,
      "d": 83.33333333332848,
      "v": 11
    },
    {
      "midi": 69,
      "hit": false,
      "t": 83427.08333333355,
      "d": 88.54166666667152,
      "v": 8
    },
    {
      "midi": 75,
      "hit": false,
      "t": 83723.95833333355,
      "d": 72.91666666667152,
      "v": 46
    },
    {
      "midi": 84,
      "hit": false,
      "t": 83723.95833333355,
      "d": 130.20833333334303,
      "v": 41
    },
    {
      "midi": 72,
      "hit": false,
      "t": 83734.37500000022,
      "d": 130.20833333334303,
      "v": 36
    },
    {
      "midi": 69,
      "hit": false,
      "t": 83760.41666666689,
      "d": 78.125,
      "v": 8
    },
    {
      "midi": 65,
      "hit": false,
      "t": 83760.41666666689,
      "d": 83.33333333332848,
      "v": 22
    },
    {
      "midi": 81,
      "hit": false,
      "t": 84119.79166666689,
      "d": 52.08333333332848,
      "v": 48
    },
    {
      "midi": 75,
      "hit": false,
      "t": 84140.62500000022,
      "d": 67.70833333332848,
      "v": 20
    },
    {
      "midi": 69,
      "hit": false,
      "t": 84140.62500000022,
      "d": 72.91666666665697,
      "v": 24
    },
    {
      "midi": 65,
      "hit": false,
      "t": 84171.87500000022,
      "d": 67.70833333332848,
      "v": 11
    },
    {
      "midi": 72,
      "hit": false,
      "t": 84463.54166666688,
      "d": 192.70833333332848,
      "v": 91
    },
    {
      "midi": 60,
      "hit": false,
      "t": 84479.16666666688,
      "d": 109.375,
      "v": 65
    },
    {
      "midi": 29,
      "hit": false,
      "t": 84729.16666666688,
      "d": 62.5,
      "v": 41
    },
    {
      "midi": 72,
      "hit": false,
      "t": 84734.3750000002,
      "d": 307.2916666666715,
      "v": 69
    },
    {
      "midi": 60,
      "hit": false,
      "t": 84750.0000000002,
      "d": 130.20833333334303,
      "v": 54
    },
    {
      "midi": 41,
      "hit": false,
      "t": 84760.41666666688,
      "d": 72.91666666667152,
      "v": 24
    },
    {
      "midi": 63,
      "hit": false,
      "t": 85104.16666666688,
      "d": 78.12499999998545,
      "v": 55
    },
    {
      "midi": 69,
      "hit": false,
      "t": 85104.16666666688,
      "d": 140.62499999998545,
      "v": 36
    },
    {
      "midi": 57,
      "hit": false,
      "t": 85125.0000000002,
      "d": 83.33333333332848,
      "v": 20
    },
    {
      "midi": 60,
      "hit": false,
      "t": 85125.0000000002,
      "d": 83.33333333332848,
      "v": 35
    },
    {
      "midi": 53,
      "hit": false,
      "t": 85145.83333333353,
      "d": 62.5,
      "v": 50
    },
    {
      "midi": 72,
      "hit": false,
      "t": 85468.75000000019,
      "d": 46.87499999998545,
      "v": 51
    },
    {
      "midi": 65,
      "hit": false,
      "t": 85473.95833333352,
      "d": 62.49999999998545,
      "v": 45
    },
    {
      "midi": 63,
      "hit": false,
      "t": 85479.16666666685,
      "d": 62.49999999998545,
      "v": 17
    },
    {
      "midi": 71,
      "hit": false,
      "t": 85703.12500000016,
      "d": 114.58333333332848,
      "v": 95
    },
    {
      "midi": 59,
      "hit": false,
      "t": 85729.16666666683,
      "d": 41.666666666656965,
      "v": 59
    },
    {
      "midi": 75,
      "hit": false,
      "t": 85734.37500000016,
      "d": 57.291666666656965,
      "v": 44
    },
    {
      "midi": 89,
      "hit": false,
      "t": 85979.16666666682,
      "d": 119.79166666667152,
      "v": 62
    },
    {
      "midi": 72,
      "hit": false,
      "t": 85979.16666666682,
      "d": 255.20833333332848,
      "v": 89
    },
    {
      "midi": 60,
      "hit": false,
      "t": 85989.58333333349,
      "d": 630.2083333333285,
      "v": 72
    },
    {
      "midi": 81,
      "hit": false,
      "t": 85994.79166666682,
      "d": 156.25,
      "v": 45
    },
    {
      "midi": 75,
      "hit": false,
      "t": 86385.41666666682,
      "d": 78.125,
      "v": 43
    },
    {
      "midi": 84,
      "hit": false,
      "t": 86390.62500000015,
      "d": 140.625,
      "v": 61
    },
    {
      "midi": 72,
      "hit": false,
      "t": 86401.04166666682,
      "d": 109.375,
      "v": 47
    },
    {
      "midi": 69,
      "hit": false,
      "t": 86416.66666666682,
      "d": 88.54166666667152,
      "v": 23
    },
    {
      "midi": 65,
      "hit": false,
      "t": 86437.50000000015,
      "d": 93.75,
      "v": 18
    },
    {
      "midi": 81,
      "hit": false,
      "t": 86765.62500000015,
      "d": 46.87500000001455,
      "v": 63
    },
    {
      "midi": 75,
      "hit": false,
      "t": 86791.66666666682,
      "d": 57.29166666668607,
      "v": 36
    },
    {
      "midi": 72,
      "hit": false,
      "t": 86791.66666666682,
      "d": 72.91666666668607,
      "v": 31
    },
    {
      "midi": 69,
      "hit": false,
      "t": 86802.08333333349,
      "d": 72.91666666668607,
      "v": 27
    },
    {
      "midi": 65,
      "hit": false,
      "t": 86822.91666666683,
      "d": 62.50000000001455,
      "v": 28
    },
    {
      "midi": 60,
      "hit": false,
      "t": 86895.83333333352,
      "d": 46.875,
      "v": 4
    },
    {
      "midi": 74,
      "hit": false,
      "t": 87109.37500000019,
      "d": 140.625,
      "v": 92
    },
    {
      "midi": 62,
      "hit": false,
      "t": 87125.00000000019,
      "d": 93.75,
      "v": 59
    },
    {
      "midi": 72,
      "hit": false,
      "t": 87395.83333333352,
      "d": 500.00000000001455,
      "v": 91
    },
    {
      "midi": 60,
      "hit": false,
      "t": 87406.25000000019,
      "d": 156.25,
      "v": 67
    },
    {
      "midi": 29,
      "hit": false,
      "t": 87416.66666666686,
      "d": 93.75,
      "v": 53
    },
    {
      "midi": 41,
      "hit": false,
      "t": 87416.66666666686,
      "d": 130.20833333332848,
      "v": 56
    },
    {
      "midi": 53,
      "hit": false,
      "t": 87770.83333333353,
      "d": 78.125,
      "v": 44
    },
    {
      "midi": 58,
      "hit": false,
      "t": 87776.04166666686,
      "d": 109.375,
      "v": 32
    },
    {
      "midi": 62,
      "hit": false,
      "t": 87791.66666666686,
      "d": 62.5,
      "v": 43
    },
    {
      "midi": 65,
      "hit": false,
      "t": 87791.66666666686,
      "d": 83.33333333332848,
      "v": 36
    },
    {
      "midi": 50,
      "hit": false,
      "t": 87822.91666666686,
      "d": 114.58333333334303,
      "v": 15
    },
    {
      "midi": 74,
      "hit": false,
      "t": 88031.2500000002,
      "d": 286.45833333334303,
      "v": 89
    },
    {
      "midi": 62,
      "hit": false,
      "t": 88041.66666666688,
      "d": 312.49999999998545,
      "v": 75
    },
    {
      "midi": 58,
      "hit": false,
      "t": 88250.0000000002,
      "d": 72.91666666667152,
      "v": 32
    },
    {
      "midi": 70,
      "hit": false,
      "t": 88255.20833333353,
      "d": 46.87500000001455,
      "v": 56
    },
    {
      "midi": 50,
      "hit": false,
      "t": 88265.6250000002,
      "d": 62.5,
      "v": 44
    },
    {
      "midi": 65,
      "hit": false,
      "t": 88291.66666666688,
      "d": 57.291666666656965,
      "v": 12
    },
    {
      "midi": 89,
      "hit": false,
      "t": 88604.16666666686,
      "d": 125,
      "v": 72
    },
    {
      "midi": 70,
      "hit": false,
      "t": 88614.58333333353,
      "d": 218.75,
      "v": 68
    },
    {
      "midi": 82,
      "hit": false,
      "t": 88630.20833333353,
      "d": 78.125,
      "v": 33
    },
    {
      "midi": 58,
      "hit": false,
      "t": 88645.83333333353,
      "d": 265.625,
      "v": 29
    },
    {
      "midi": 86,
      "hit": false,
      "t": 89000.0000000002,
      "d": 83.33333333332848,
      "v": 47
    },
    {
      "midi": 77,
      "hit": false,
      "t": 89000.0000000002,
      "d": 93.75,
      "v": 45
    },
    {
      "midi": 62,
      "hit": false,
      "t": 89010.41666666688,
      "d": 83.33333333332848,
      "v": 38
    },
    {
      "midi": 65,
      "hit": false,
      "t": 89015.6250000002,
      "d": 114.58333333332848,
      "v": 35
    },
    {
      "midi": 70,
      "hit": false,
      "t": 89359.3750000002,
      "d": 57.29166666667152,
      "v": 40
    },
    {
      "midi": 82,
      "hit": false,
      "t": 89359.3750000002,
      "d": 151.04166666667152,
      "v": 38
    },
    {
      "midi": 74,
      "hit": false,
      "t": 89385.41666666688,
      "d": 78.125,
      "v": 34
    },
    {
      "midi": 29,
      "hit": false,
      "t": 89770.83333333355,
      "d": 72.91666666667152,
      "v": 34
    },
    {
      "midi": 41,
      "hit": false,
      "t": 89781.25000000022,
      "d": 67.70833333332848,
      "v": 28
    },
    {
      "midi": 58,
      "hit": false,
      "t": 90104.16666666688,
      "d": 156.25,
      "v": 38
    },
    {
      "midi": 65,
      "hit": false,
      "t": 90114.58333333355,
      "d": 135.41666666667152,
      "v": 39
    },
    {
      "midi": 62,
      "hit": false,
      "t": 90125.00000000022,
      "d": 130.20833333332848,
      "v": 40
    },
    {
      "midi": 53,
      "hit": false,
      "t": 90130.20833333355,
      "d": 67.70833333334303,
      "v": 47
    },
    {
      "midi": 50,
      "hit": false,
      "t": 90140.62500000022,
      "d": 182.29166666665697,
      "v": 35
    },
    {
      "midi": 62,
      "hit": false,
      "t": 90463.54166666688,
      "d": 78.12499999998545,
      "v": 50
    },
    {
      "midi": 70,
      "hit": false,
      "t": 90468.7500000002,
      "d": 52.08333333332848,
      "v": 56
    },
    {
      "midi": 53,
      "hit": false,
      "t": 90479.16666666688,
      "d": 57.291666666656965,
      "v": 53
    },
    {
      "midi": 58,
      "hit": false,
      "t": 90484.3750000002,
      "d": 72.91666666665697,
      "v": 27
    },
    {
      "midi": 65,
      "hit": false,
      "t": 90489.58333333353,
      "d": 67.70833333332848,
      "v": 20
    },
    {
      "midi": 74,
      "hit": false,
      "t": 90645.83333333353,
      "d": 46.875,
      "v": 73
    },
    {
      "midi": 70,
      "hit": false,
      "t": 90812.5000000002,
      "d": 213.54166666667152,
      "v": 86
    },
    {
      "midi": 89,
      "hit": false,
      "t": 90822.91666666688,
      "d": 72.91666666667152,
      "v": 76
    },
    {
      "midi": 82,
      "hit": false,
      "t": 90833.33333333355,
      "d": 67.70833333332848,
      "v": 52
    },
    {
      "midi": 58,
      "hit": false,
      "t": 90843.75000000022,
      "d": 208.33333333332848,
      "v": 40
    },
    {
      "midi": 86,
      "hit": false,
      "t": 91171.87500000022,
      "d": 109.375,
      "v": 64
    },
    {
      "midi": 77,
      "hit": false,
      "t": 91171.87500000022,
      "d": 114.58333333332848,
      "v": 57
    },
    {
      "midi": 62,
      "hit": false,
      "t": 91187.50000000022,
      "d": 72.91666666667152,
      "v": 46
    },
    {
      "midi": 65,
      "hit": false,
      "t": 91187.50000000022,
      "d": 104.16666666665697,
      "v": 50
    },
    {
      "midi": 70,
      "hit": false,
      "t": 91520.83333333355,
      "d": 46.875,
      "v": 53
    },
    {
      "midi": 82,
      "hit": false,
      "t": 91520.83333333355,
      "d": 57.291666666656965,
      "v": 41
    },
    {
      "midi": 74,
      "hit": false,
      "t": 91526.04166666688,
      "d": 46.875,
      "v": 58
    },
    {
      "midi": 77,
      "hit": false,
      "t": 91541.66666666688,
      "d": 62.49999999998545,
      "v": 30
    },
    {
      "midi": 65,
      "hit": false,
      "t": 91552.08333333355,
      "d": 46.87499999998545,
      "v": 48
    },
    {
      "midi": 72,
      "hit": false,
      "t": 91953.12500000019,
      "d": 453.12500000001455,
      "v": 98
    },
    {
      "midi": 60,
      "hit": false,
      "t": 91963.54166666686,
      "d": 244.79166666667152,
      "v": 76
    },
    {
      "midi": 41,
      "hit": false,
      "t": 91989.58333333353,
      "d": 135.41666666665697,
      "v": 51
    },
    {
      "midi": 29,
      "hit": false,
      "t": 91994.79166666686,
      "d": 78.125,
      "v": 48
    },
    {
      "midi": 69,
      "hit": false,
      "t": 92328.1250000002,
      "d": 369.7916666666715,
      "v": 57
    },
    {
      "midi": 57,
      "hit": false,
      "t": 92338.54166666688,
      "d": 93.75,
      "v": 41
    },
    {
      "midi": 63,
      "hit": false,
      "t": 92338.54166666688,
      "d": 104.16666666667152,
      "v": 58
    },
    {
      "midi": 60,
      "hit": false,
      "t": 92343.7500000002,
      "d": 135.41666666667152,
      "v": 42
    },
    {
      "midi": 53,
      "hit": false,
      "t": 92369.79166666688,
      "d": 239.58333333332848,
      "v": 59
    },
    {
      "midi": 72,
      "hit": false,
      "t": 92640.6250000002,
      "d": 109.375,
      "v": 63
    },
    {
      "midi": 63,
      "hit": false,
      "t": 92645.83333333353,
      "d": 41.66666666667152,
      "v": 66
    },
    {
      "midi": 65,
      "hit": false,
      "t": 92656.2500000002,
      "d": 52.083333333343035,
      "v": 59
    },
    {
      "midi": 57,
      "hit": false,
      "t": 92661.45833333353,
      "d": 52.083333333343035,
      "v": 48
    },
    {
      "midi": 60,
      "hit": false,
      "t": 92687.5000000002,
      "d": 57.29166666667152,
      "v": 15
    },
    {
      "midi": 89,
      "hit": false,
      "t": 93005.20833333353,
      "d": 57.29166666667152,
      "v": 77
    },
    {
      "midi": 81,
      "hit": false,
      "t": 93015.6250000002,
      "d": 83.33333333332848,
      "v": 62
    },
    {
      "midi": 75,
      "hit": false,
      "t": 93020.83333333353,
      "d": 140.625,
      "v": 47
    },
    {
      "midi": 77,
      "hit": false,
      "t": 93020.83333333353,
      "d": 140.625,
      "v": 62
    },
    {
      "midi": 69,
      "hit": false,
      "t": 93062.5000000002,
      "d": 104.16666666665697,
      "v": 15
    },
    {
      "midi": 72,
      "hit": false,
      "t": 93078.1250000002,
      "d": 93.74999999998545,
      "v": 11
    },
    {
      "midi": 84,
      "hit": false,
      "t": 93354.16666666686,
      "d": 145.83333333332848,
      "v": 80
    },
    {
      "midi": 75,
      "hit": false,
      "t": 93364.58333333353,
      "d": 130.20833333332848,
      "v": 64
    },
    {
      "midi": 72,
      "hit": false,
      "t": 93375.0000000002,
      "d": 192.70833333331393,
      "v": 56
    },
    {
      "midi": 69,
      "hit": false,
      "t": 93406.2500000002,
      "d": 83.33333333332848,
      "v": 29
    },
    {
      "midi": 65,
      "hit": false,
      "t": 93411.45833333353,
      "d": 57.29166666667152,
      "v": 30
    },
    {
      "midi": 75,
      "hit": false,
      "t": 93723.95833333352,
      "d": 57.29166666667152,
      "v": 50
    },
    {
      "midi": 81,
      "hit": false,
      "t": 93739.58333333352,
      "d": 57.29166666667152,
      "v": 42
    },
    {
      "midi": 69,
      "hit": false,
      "t": 93750.00000000019,
      "d": 62.5,
      "v": 39
    },
    {
      "midi": 65,
      "hit": false,
      "t": 93765.62500000019,
      "d": 52.08333333332848,
      "v": 41
    },
    {
      "midi": 72,
      "hit": false,
      "t": 94031.25000000019,
      "d": 93.75000000001455,
      "v": 95
    },
    {
      "midi": 60,
      "hit": false,
      "t": 94041.66666666686,
      "d": 72.91666666667152,
      "v": 83
    },
    {
      "midi": 72,
      "hit": false,
      "t": 94203.1250000002,
      "d": 203.125,
      "v": 86
    },
    {
      "midi": 60,
      "hit": false,
      "t": 94218.7500000002,
      "d": 93.75,
      "v": 72
    },
    {
      "midi": 29,
      "hit": false,
      "t": 94229.16666666688,
      "d": 46.875,
      "v": 65
    },
    {
      "midi": 41,
      "hit": false,
      "t": 94244.79166666688,
      "d": 52.08333333332848,
      "v": 57
    },
    {
      "midi": 71,
      "hit": false,
      "t": 94656.2500000002,
      "d": 182.29166666665697,
      "v": 104
    },
    {
      "midi": 62,
      "hit": false,
      "t": 94677.08333333353,
      "d": 52.08333333332848,
      "v": 70
    },
    {
      "midi": 69,
      "hit": false,
      "t": 94677.08333333353,
      "d": 72.91666666667152,
      "v": 60
    },
    {
      "midi": 59,
      "hit": false,
      "t": 94677.08333333353,
      "d": 130.20833333332848,
      "v": 81
    },
    {
      "midi": 57,
      "hit": false,
      "t": 94682.29166666686,
      "d": 72.91666666667152,
      "v": 56
    },
    {
      "midi": 53,
      "hit": false,
      "t": 94692.70833333353,
      "d": 46.875,
      "v": 71
    },
    {
      "midi": 72,
      "hit": false,
      "t": 95015.62500000019,
      "d": 151.0416666666424,
      "v": 92
    },
    {
      "midi": 60,
      "hit": false,
      "t": 95031.25000000019,
      "d": 135.4166666666424,
      "v": 71
    },
    {
      "midi": 69,
      "hit": false,
      "t": 95041.66666666686,
      "d": 67.70833333331393,
      "v": 48
    },
    {
      "midi": 63,
      "hit": false,
      "t": 95041.66666666686,
      "d": 114.58333333331393,
      "v": 81
    },
    {
      "midi": 77,
      "hit": false,
      "t": 95041.66666666686,
      "d": 124.9999999999709,
      "v": 70
    },
    {
      "midi": 65,
      "hit": false,
      "t": 95046.87500000019,
      "d": 46.87499999998545,
      "v": 53
    },
    {
      "midi": 53,
      "hit": false,
      "t": 95052.08333333352,
      "d": 52.08333333332848,
      "v": 70
    },
    {
      "midi": 57,
      "hit": false,
      "t": 95072.91666666685,
      "d": 62.5,
      "v": 34
    },
    {
      "midi": 89,
      "hit": false,
      "t": 95489.5833333335,
      "d": 151.04166666665697,
      "v": 53
    },
    {
      "midi": 77,
      "hit": false,
      "t": 95494.79166666683,
      "d": 93.75,
      "v": 58
    },
    {
      "midi": 81,
      "hit": false,
      "t": 95494.79166666683,
      "d": 161.45833333332848,
      "v": 42
    },
    {
      "midi": 75,
      "hit": false,
      "t": 95515.62500000016,
      "d": 333.33333333334303,
      "v": 88
    },
    {
      "midi": 63,
      "hit": false,
      "t": 95541.66666666683,
      "d": 364.58333333334303,
      "v": 47
    },
    {
      "midi": 69,
      "hit": false,
      "t": 95578.12500000016,
      "d": 104.16666666667152,
      "v": 20
    },
    {
      "midi": 81,
      "hit": false,
      "t": 96046.87500000017,
      "d": 187.5,
      "v": 61
    },
    {
      "midi": 75,
      "hit": false,
      "t": 96052.0833333335,
      "d": 72.91666666667152,
      "v": 32
    },
    {
      "midi": 74,
      "hit": false,
      "t": 96062.50000000017,
      "d": 250,
      "v": 88
    },
    {
      "midi": 62,
      "hit": false,
      "t": 96104.16666666685,
      "d": 145.83333333332848,
      "v": 41
    },
    {
      "midi": 65,
      "hit": false,
      "t": 96119.79166666685,
      "d": 98.95833333332848,
      "v": 31
    },
    {
      "midi": 69,
      "hit": false,
      "t": 96145.8333333335,
      "d": 98.95833333334303,
      "v": 9
    },
    {
      "midi": 72,
      "hit": false,
      "t": 96505.2083333335,
      "d": 119.79166666665697,
      "v": 91
    },
    {
      "midi": 77,
      "hit": false,
      "t": 96510.41666666683,
      "d": 46.875,
      "v": 52
    },
    {
      "midi": 75,
      "hit": false,
      "t": 96510.41666666683,
      "d": 52.08333333332848,
      "v": 43
    },
    {
      "midi": 69,
      "hit": false,
      "t": 96536.4583333335,
      "d": 62.49999999998545,
      "v": 46
    },
    {
      "midi": 65,
      "hit": false,
      "t": 96552.0833333335,
      "d": 83.33333333332848,
      "v": 25
    },
    {
      "midi": 60,
      "hit": false,
      "t": 96552.0833333335,
      "d": 145.83333333332848,
      "v": 38
    },
    {
      "midi": 63,
      "hit": false,
      "t": 96598.95833333349,
      "d": 62.50000000001455,
      "v": 31
    },
    {
      "midi": 58,
      "hit": false,
      "t": 97010.41666666683,
      "d": 208.33333333332848,
      "v": 48
    },
    {
      "midi": 70,
      "hit": false,
      "t": 97010.41666666683,
      "d": 369.79166666665697,
      "v": 70
    },
    {
      "midi": 31,
      "hit": false,
      "t": 97041.66666666683,
      "d": 88.54166666665697,
      "v": 53
    },
    {
      "midi": 43,
      "hit": false,
      "t": 97046.87500000016,
      "d": 145.83333333332848,
      "v": 36
    },
    {
      "midi": 55,
      "hit": false,
      "t": 97395.83333333349,
      "d": 93.75,
      "v": 48
    },
    {
      "midi": 67,
      "hit": false,
      "t": 97406.25000000016,
      "d": 98.95833333332848,
      "v": 54
    },
    {
      "midi": 62,
      "hit": false,
      "t": 97411.45833333349,
      "d": 78.125,
      "v": 55
    },
    {
      "midi": 58,
      "hit": false,
      "t": 97421.87500000016,
      "d": 125,
      "v": 34
    },
    {
      "midi": 50,
      "hit": false,
      "t": 97427.08333333349,
      "d": 156.25,
      "v": 49
    },
    {
      "midi": 70,
      "hit": false,
      "t": 97750.00000000016,
      "d": 41.66666666667152,
      "v": 64
    },
    {
      "midi": 55,
      "hit": false,
      "t": 97760.41666666683,
      "d": 57.29166666667152,
      "v": 52
    },
    {
      "midi": 62,
      "hit": false,
      "t": 97760.41666666683,
      "d": 57.29166666667152,
      "v": 48
    },
    {
      "midi": 58,
      "hit": false,
      "t": 97760.41666666683,
      "d": 67.70833333334303,
      "v": 12
    },
    {
      "midi": 67,
      "hit": false,
      "t": 97770.8333333335,
      "d": 72.91666666667152,
      "v": 23
    },
    {
      "midi": 70,
      "hit": false,
      "t": 98104.16666666685,
      "d": 78.12499999998545,
      "v": 48
    },
    {
      "midi": 86,
      "hit": false,
      "t": 98104.16666666685,
      "d": 156.2499999999709,
      "v": 53
    },
    {
      "midi": 74,
      "hit": false,
      "t": 98109.37500000017,
      "d": 119.79166666664241,
      "v": 49
    },
    {
      "midi": 82,
      "hit": false,
      "t": 98114.5833333335,
      "d": 72.91666666665697,
      "v": 36
    },
    {
      "midi": 67,
      "hit": false,
      "t": 98135.41666666683,
      "d": 67.70833333332848,
      "v": 35
    },
    {
      "midi": 62,
      "hit": false,
      "t": 98145.8333333335,
      "d": 62.49999999998545,
      "v": 39
    },
    {
      "midi": 82,
      "hit": false,
      "t": 98458.33333333349,
      "d": 166.66666666665697,
      "v": 46
    },
    {
      "midi": 67,
      "hit": false,
      "t": 98473.95833333349,
      "d": 119.79166666665697,
      "v": 44
    },
    {
      "midi": 58,
      "hit": false,
      "t": 98473.95833333349,
      "d": 156.24999999998545,
      "v": 17
    },
    {
      "midi": 62,
      "hit": false,
      "t": 98479.16666666682,
      "d": 72.91666666667152,
      "v": 28
    },
    {
      "midi": 74,
      "hit": false,
      "t": 98479.16666666682,
      "d": 72.91666666667152,
      "v": 49
    },
    {
      "midi": 79,
      "hit": false,
      "t": 98479.16666666682,
      "d": 78.125,
      "v": 30
    },
    {
      "midi": 70,
      "hit": false,
      "t": 98864.58333333347,
      "d": 62.5,
      "v": 30
    },
    {
      "midi": 79,
      "hit": false,
      "t": 98864.58333333347,
      "d": 109.37500000001455,
      "v": 47
    },
    {
      "midi": 62,
      "hit": false,
      "t": 98869.7916666668,
      "d": 67.70833333334303,
      "v": 17
    },
    {
      "midi": 74,
      "hit": false,
      "t": 98880.20833333347,
      "d": 83.33333333334303,
      "v": 35
    },
    {
      "midi": 43,
      "hit": false,
      "t": 99291.66666666682,
      "d": 62.5,
      "v": 35
    },
    {
      "midi": 31,
      "hit": false,
      "t": 99291.66666666682,
      "d": 67.70833333332848,
      "v": 26
    },
    {
      "midi": 55,
      "hit": false,
      "t": 99593.75000000015,
      "d": 88.54166666667152,
      "v": 36
    },
    {
      "midi": 58,
      "hit": false,
      "t": 99598.95833333347,
      "d": 93.75000000001455,
      "v": 39
    },
    {
      "midi": 62,
      "hit": false,
      "t": 99614.58333333347,
      "d": 67.70833333334303,
      "v": 45
    },
    {
      "midi": 50,
      "hit": false,
      "t": 99625.00000000015,
      "d": 114.58333333334303,
      "v": 34
    },
    {
      "midi": 58,
      "hit": false,
      "t": 99942.70833333349,
      "d": 88.54166666665697,
      "v": 41
    },
    {
      "midi": 67,
      "hit": false,
      "t": 99953.12500000016,
      "d": 52.08333333332848,
      "v": 57
    },
    {
      "midi": 55,
      "hit": false,
      "t": 99963.54166666683,
      "d": 62.49999999998545,
      "v": 35
    },
    {
      "midi": 62,
      "hit": false,
      "t": 99968.75000000016,
      "d": 57.291666666656965,
      "v": 16
    },
    {
      "midi": 50,
      "hit": false,
      "t": 99968.75000000016,
      "d": 72.91666666665697,
      "v": 29
    },
    {
      "midi": 70,
      "hit": false,
      "t": 100307.29166666682,
      "d": 265.62499999998545,
      "v": 79
    },
    {
      "midi": 82,
      "hit": false,
      "t": 100328.12500000015,
      "d": 213.54166666665697,
      "v": 73
    },
    {
      "midi": 67,
      "hit": false,
      "t": 100343.75000000015,
      "d": 93.75,
      "v": 59
    },
    {
      "midi": 58,
      "hit": false,
      "t": 100343.75000000015,
      "d": 145.83333333332848,
      "v": 35
    },
    {
      "midi": 62,
      "hit": false,
      "t": 100364.58333333347,
      "d": 62.5,
      "v": 37
    },
    {
      "midi": 67,
      "hit": false,
      "t": 100677.08333333347,
      "d": 78.125,
      "v": 48
    },
    {
      "midi": 79,
      "hit": false,
      "t": 100687.50000000015,
      "d": 83.33333333331393,
      "v": 64
    },
    {
      "midi": 70,
      "hit": false,
      "t": 100692.70833333347,
      "d": 93.74999999998545,
      "v": 21
    },
    {
      "midi": 74,
      "hit": false,
      "t": 100697.9166666668,
      "d": 62.5,
      "v": 49
    },
    {
      "midi": 62,
      "hit": false,
      "t": 100697.9166666668,
      "d": 67.70833333332848,
      "v": 48
    },
    {
      "midi": 67,
      "hit": false,
      "t": 101036.45833333346,
      "d": 67.70833333332848,
      "v": 41
    },
    {
      "midi": 70,
      "hit": false,
      "t": 101036.45833333346,
      "d": 72.91666666665697,
      "v": 58
    },
    {
      "midi": 62,
      "hit": false,
      "t": 101046.87500000013,
      "d": 57.291666666656965,
      "v": 43
    },
    {
      "midi": 74,
      "hit": false,
      "t": 101062.50000000013,
      "d": 46.87499999998545,
      "v": 47
    },
    {
      "midi": 58,
      "hit": false,
      "t": 101067.70833333346,
      "d": 78.12499999998545,
      "v": 26
    },
    {
      "midi": 72,
      "hit": false,
      "t": 101442.70833333344,
      "d": 411.45833333334303,
      "v": 100
    },
    {
      "midi": 60,
      "hit": false,
      "t": 101447.91666666677,
      "d": 255.20833333334303,
      "v": 88
    },
    {
      "midi": 29,
      "hit": false,
      "t": 101458.33333333344,
      "d": 67.70833333332848,
      "v": 69
    },
    {
      "midi": 41,
      "hit": false,
      "t": 101473.95833333344,
      "d": 109.375,
      "v": 51
    },
    {
      "midi": 57,
      "hit": false,
      "t": 101812.50000000012,
      "d": 114.58333333334303,
      "v": 57
    },
    {
      "midi": 69,
      "hit": false,
      "t": 101822.91666666679,
      "d": 171.875,
      "v": 54
    },
    {
      "midi": 60,
      "hit": false,
      "t": 101833.33333333346,
      "d": 78.125,
      "v": 51
    },
    {
      "midi": 65,
      "hit": false,
      "t": 101838.54166666679,
      "d": 78.125,
      "v": 46
    },
    {
      "midi": 48,
      "hit": false,
      "t": 101838.54166666679,
      "d": 104.16666666667152,
      "v": 45
    },
    {
      "midi": 53,
      "hit": false,
      "t": 101854.16666666679,
      "d": 62.5,
      "v": 41
    },
    {
      "midi": 60,
      "hit": false,
      "t": 102145.83333333346,
      "d": 62.5,
      "v": 76
    },
    {
      "midi": 72,
      "hit": false,
      "t": 102156.25000000013,
      "d": 46.875,
      "v": 80
    },
    {
      "midi": 57,
      "hit": false,
      "t": 102156.25000000013,
      "d": 52.08333333332848,
      "v": 51
    },
    {
      "midi": 65,
      "hit": false,
      "t": 102161.45833333346,
      "d": 41.66666666667152,
      "v": 56
    },
    {
      "midi": 69,
      "hit": false,
      "t": 102161.45833333346,
      "d": 46.875,
      "v": 52
    },
    {
      "midi": 53,
      "hit": false,
      "t": 102161.45833333346,
      "d": 52.08333333332848,
      "v": 64
    },
    {
      "midi": 77,
      "hit": false,
      "t": 102510.41666666679,
      "d": 88.54166666665697,
      "v": 72
    },
    {
      "midi": 84,
      "hit": false,
      "t": 102510.41666666679,
      "d": 239.58333333331393,
      "v": 84
    },
    {
      "midi": 81,
      "hit": false,
      "t": 102520.83333333346,
      "d": 52.08333333332848,
      "v": 59
    },
    {
      "midi": 65,
      "hit": false,
      "t": 102520.83333333346,
      "d": 72.91666666665697,
      "v": 61
    },
    {
      "midi": 69,
      "hit": false,
      "t": 102541.66666666679,
      "d": 78.12499999998545,
      "v": 52
    },
    {
      "midi": 81,
      "hit": false,
      "t": 102848.95833333343,
      "d": 41.666666666656965,
      "v": 72
    },
    {
      "midi": 72,
      "hit": false,
      "t": 102848.95833333343,
      "d": 93.74999999998545,
      "v": 65
    },
    {
      "midi": 60,
      "hit": false,
      "t": 102854.16666666676,
      "d": 57.291666666656965,
      "v": 51
    },
    {
      "midi": 77,
      "hit": false,
      "t": 102859.37500000009,
      "d": 46.875,
      "v": 51
    },
    {
      "midi": 65,
      "hit": false,
      "t": 102859.37500000009,
      "d": 52.08333333332848,
      "v": 46
    },
    {
      "midi": 57,
      "hit": false,
      "t": 102859.37500000009,
      "d": 62.5,
      "v": 47
    },
    {
      "midi": 77,
      "hit": false,
      "t": 103213.54166666674,
      "d": 57.291666666656965,
      "v": 46
    },
    {
      "midi": 69,
      "hit": false,
      "t": 103213.54166666674,
      "d": 67.70833333332848,
      "v": 47
    },
    {
      "midi": 60,
      "hit": false,
      "t": 103229.16666666674,
      "d": 57.291666666656965,
      "v": 50
    },
    {
      "midi": 72,
      "hit": false,
      "t": 103229.16666666674,
      "d": 57.291666666656965,
      "v": 41
    },
    {
      "midi": 57,
      "hit": false,
      "t": 103234.37500000007,
      "d": 52.08333333332848,
      "v": 53
    },
    {
      "midi": 53,
      "hit": false,
      "t": 103250.00000000007,
      "d": 57.291666666656965,
      "v": 72
    },
    {
      "midi": 72,
      "hit": false,
      "t": 103505.2083333334,
      "d": 203.125,
      "v": 101
    },
    {
      "midi": 60,
      "hit": false,
      "t": 103515.62500000007,
      "d": 130.20833333332848,
      "v": 80
    },
    {
      "midi": 74,
      "hit": false,
      "t": 103791.66666666673,
      "d": 338.54166666665697,
      "v": 113
    },
    {
      "midi": 62,
      "hit": false,
      "t": 103796.87500000006,
      "d": 203.125,
      "v": 100
    },
    {
      "midi": 38,
      "hit": false,
      "t": 103807.29166666673,
      "d": 83.33333333332848,
      "v": 89
    },
    {
      "midi": 26,
      "hit": false,
      "t": 103812.50000000006,
      "d": 41.66666666667152,
      "v": 90
    },
    {
      "midi": 66,
      "hit": false,
      "t": 104135.41666666672,
      "d": 145.83333333332848,
      "v": 61
    },
    {
      "midi": 69,
      "hit": false,
      "t": 104135.41666666672,
      "d": 151.04166666665697,
      "v": 66
    },
    {
      "midi": 62,
      "hit": false,
      "t": 104140.62500000004,
      "d": 62.5,
      "v": 79
    },
    {
      "midi": 57,
      "hit": false,
      "t": 104140.62500000004,
      "d": 88.54166666667152,
      "v": 47
    },
    {
      "midi": 50,
      "hit": false,
      "t": 104145.83333333337,
      "d": 182.29166666667152,
      "v": 65
    },
    {
      "midi": 54,
      "hit": false,
      "t": 104156.25000000004,
      "d": 62.5,
      "v": 45
    },
    {
      "midi": 54,
      "hit": false,
      "t": 104453.12500000004,
      "d": 41.666666666656965,
      "v": 76
    },
    {
      "midi": 66,
      "hit": false,
      "t": 104453.12500000004,
      "d": 41.666666666656965,
      "v": 64
    },
    {
      "midi": 62,
      "hit": false,
      "t": 104453.12500000004,
      "d": 52.08333333332848,
      "v": 75
    },
    {
      "midi": 74,
      "hit": false,
      "t": 104453.12500000004,
      "d": 93.75,
      "v": 85
    },
    {
      "midi": 69,
      "hit": false,
      "t": 104458.33333333337,
      "d": 46.875,
      "v": 60
    },
    {
      "midi": 57,
      "hit": false,
      "t": 104479.1666666667,
      "d": 72.91666666667152,
      "v": 27
    },
    {
      "midi": 74,
      "hit": false,
      "t": 104843.75000000004,
      "d": 114.58333333332848,
      "v": 85
    },
    {
      "midi": 86,
      "hit": false,
      "t": 104843.75000000004,
      "d": 125,
      "v": 93
    },
    {
      "midi": 78,
      "hit": false,
      "t": 104848.95833333337,
      "d": 135.41666666667152,
      "v": 68
    },
    {
      "midi": 81,
      "hit": false,
      "t": 104854.1666666667,
      "d": 88.54166666667152,
      "v": 76
    },
    {
      "midi": 66,
      "hit": false,
      "t": 104859.37500000003,
      "d": 83.33333333334303,
      "v": 58
    },
    {
      "midi": 69,
      "hit": false,
      "t": 104869.7916666667,
      "d": 57.29166666667152,
      "v": 49
    },
    {
      "midi": 78,
      "hit": false,
      "t": 105229.16666666672,
      "d": 72.91666666667152,
      "v": 66
    },
    {
      "midi": 69,
      "hit": false,
      "t": 105229.16666666672,
      "d": 109.375,
      "v": 63
    },
    {
      "midi": 81,
      "hit": false,
      "t": 105229.16666666672,
      "d": 135.41666666667152,
      "v": 81
    },
    {
      "midi": 74,
      "hit": false,
      "t": 105234.37500000004,
      "d": 52.083333333343035,
      "v": 81
    },
    {
      "midi": 62,
      "hit": false,
      "t": 105244.79166666672,
      "d": 57.29166666667152,
      "v": 55
    },
    {
      "midi": 66,
      "hit": false,
      "t": 105244.79166666672,
      "d": 88.54166666667152,
      "v": 53
    },
    {
      "midi": 78,
      "hit": false,
      "t": 105604.16666666672,
      "d": 41.66666666667152,
      "v": 70
    },
    {
      "midi": 69,
      "hit": false,
      "t": 105604.16666666672,
      "d": 62.5,
      "v": 63
    },
    {
      "midi": 74,
      "hit": false,
      "t": 105619.79166666672,
      "d": 46.875,
      "v": 53
    },
    {
      "midi": 66,
      "hit": false,
      "t": 105619.79166666672,
      "d": 57.29166666667152,
      "v": 48
    },
    {
      "midi": 62,
      "hit": false,
      "t": 105635.41666666672,
      "d": 83.33333333332848,
      "v": 53
    },
    {
      "midi": 57,
      "hit": false,
      "t": 105645.83333333339,
      "d": 67.70833333332848,
      "v": 40
    },
    {
      "midi": 72,
      "hit": false,
      "t": 105921.87500000004,
      "d": 93.74999999998545,
      "v": 97
    },
    {
      "midi": 60,
      "hit": false,
      "t": 105927.08333333337,
      "d": 52.08333333332848,
      "v": 88
    },
    {
      "midi": 74,
      "hit": false,
      "t": 106125.00000000003,
      "d": 88.54166666667152,
      "v": 106
    },
    {
      "midi": 62,
      "hit": false,
      "t": 106135.4166666667,
      "d": 41.66666666667152,
      "v": 96
    },
    {
      "midi": 77,
      "hit": false,
      "t": 106458.33333333337,
      "d": 218.74999999998545,
      "v": 109
    },
    {
      "midi": 65,
      "hit": false,
      "t": 106458.33333333337,
      "d": 302.08333333331393,
      "v": 101
    },
    {
      "midi": 36,
      "hit": false,
      "t": 106473.95833333337,
      "d": 109.37499999998545,
      "v": 88
    },
    {
      "midi": 24,
      "hit": false,
      "t": 106479.1666666667,
      "d": 36.45833333332848,
      "v": 78
    },
    {
      "midi": 63,
      "hit": false,
      "t": 106973.95833333336,
      "d": 135.41666666665697,
      "v": 73
    },
    {
      "midi": 48,
      "hit": false,
      "t": 106979.16666666669,
      "d": 78.125,
      "v": 45
    },
    {
      "midi": 67,
      "hit": false,
      "t": 106979.16666666669,
      "d": 156.25,
      "v": 70
    },
    {
      "midi": 55,
      "hit": false,
      "t": 106989.58333333336,
      "d": 88.54166666665697,
      "v": 54
    },
    {
      "midi": 51,
      "hit": false,
      "t": 107005.20833333336,
      "d": 67.70833333332848,
      "v": 43
    },
    {
      "midi": 60,
      "hit": false,
      "t": 107401.04166666669,
      "d": 72.91666666667152,
      "v": 55
    },
    {
      "midi": 67,
      "hit": false,
      "t": 107411.45833333336,
      "d": 52.08333333332848,
      "v": 55
    },
    {
      "midi": 72,
      "hit": false,
      "t": 107411.45833333336,
      "d": 119.79166666667152,
      "v": 70
    },
    {
      "midi": 55,
      "hit": false,
      "t": 107432.29166666669,
      "d": 72.91666666667152,
      "v": 29
    },
    {
      "midi": 51,
      "hit": false,
      "t": 107437.50000000001,
      "d": 78.12500000001455,
      "v": 23
    },
    {
      "midi": 75,
      "hit": false,
      "t": 107921.87500000003,
      "d": 239.58333333332848,
      "v": 85
    },
    {
      "midi": 87,
      "hit": false,
      "t": 107927.08333333336,
      "d": 161.45833333334303,
      "v": 78
    },
    {
      "midi": 72,
      "hit": false,
      "t": 107942.70833333336,
      "d": 182.29166666667152,
      "v": 71
    },
    {
      "midi": 67,
      "hit": false,
      "t": 107973.95833333336,
      "d": 88.54166666667152,
      "v": 25
    },
    {
      "midi": 63,
      "hit": false,
      "t": 107979.16666666669,
      "d": 72.91666666667152,
      "v": 31
    },
    {
      "midi": 75,
      "hit": false,
      "t": 108328.12500000003,
      "d": 130.20833333332848,
      "v": 50
    },
    {
      "midi": 84,
      "hit": false,
      "t": 108333.33333333336,
      "d": 135.41666666667152,
      "v": 58
    },
    {
      "midi": 63,
      "hit": false,
      "t": 108338.54166666669,
      "d": 72.91666666667152,
      "v": 49
    },
    {
      "midi": 67,
      "hit": false,
      "t": 108343.75000000001,
      "d": 78.12500000001455,
      "v": 47
    },
    {
      "midi": 79,
      "hit": false,
      "t": 108354.16666666669,
      "d": 67.70833333334303,
      "v": 47
    },
    {
      "midi": 75,
      "hit": false,
      "t": 108703.12500000003,
      "d": 130.20833333331393,
      "v": 40
    },
    {
      "midi": 79,
      "hit": false,
      "t": 108718.75000000003,
      "d": 78.12499999998545,
      "v": 48
    },
    {
      "midi": 67,
      "hit": false,
      "t": 108723.95833333336,
      "d": 62.49999999998545,
      "v": 38
    },
    {
      "midi": 63,
      "hit": false,
      "t": 108729.16666666669,
      "d": 57.291666666656965,
      "v": 33
    },
    {
      "midi": 60,
      "hit": false,
      "t": 108750.00000000001,
      "d": 62.5,
      "v": 34
    },
    {
      "midi": 24,
      "hit": false,
      "t": 109182.29166666667,
      "d": 62.5,
      "v": 38
    },
    {
      "midi": 36,
      "hit": false,
      "t": 109197.91666666667,
      "d": 72.91666666667152,
      "v": 40
    },
    {
      "midi": 55,
      "hit": false,
      "t": 109572.91666666667,
      "d": 98.95833333334303,
      "v": 26
    },
    {
      "midi": 67,
      "hit": false,
      "t": 109583.33333333334,
      "d": 93.75,
      "v": 39
    },
    {
      "midi": 63,
      "hit": false,
      "t": 109593.75000000001,
      "d": 88.54166666665697,
      "v": 42
    },
    {
      "midi": 48,
      "hit": false,
      "t": 109619.79166666669,
      "d": 104.16666666665697,
      "v": 17
    },
    {
      "midi": 60,
      "hit": false,
      "t": 109953.12500000001,
      "d": 83.33333333332848,
      "v": 37
    },
    {
      "midi": 72,
      "hit": false,
      "t": 109958.33333333334,
      "d": 57.29166666667152,
      "v": 36
    },
    {
      "midi": 87,
      "hit": false,
      "t": 110385.41666666667,
      "d": 244.79166666667152,
      "v": 44
    },
    {
      "midi": 75,
      "hit": false,
      "t": 110395.83333333334,
      "d": 114.58333333334303,
      "v": 33
    },
    {
      "midi": 67,
      "hit": false,
      "t": 110427.08333333334,
      "d": 156.25,
      "v": 53
    },
    {
      "midi": 55,
      "hit": false,
      "t": 110453.12500000001,
      "d": 78.125,
      "v": 27
    },
    {
      "midi": 63,
      "hit": false,
      "t": 110786.45833333334,
      "d": 104.16666666665697,
      "v": 41
    },
    {
      "midi": 84,
      "hit": false,
      "t": 110791.66666666667,
      "d": 83.33333333332848,
      "v": 29
    },
    {
      "midi": 75,
      "hit": false,
      "t": 110796.875,
      "d": 78.125,
      "v": 22
    },
    {
      "midi": 79,
      "hit": false,
      "t": 110807.29166666667,
      "d": 93.75,
      "v": 17
    },
    {
      "midi": 75,
      "hit": false,
      "t": 111145.83333333334,
      "d": 83.33333333332848,
      "v": 39
    },
    {
      "midi": 79,
      "hit": false,
      "t": 111166.66666666667,
      "d": 72.91666666667152,
      "v": 30
    },
    {
      "midi": 60,
      "hit": false,
      "t": 111182.29166666667,
      "d": 67.70833333334303,
      "v": 31
    },
    {
      "midi": 55,
      "hit": false,
      "t": 111197.91666666667,
      "d": 72.91666666667152,
      "v": 24
    },
    {
      "midi": 39,
      "hit": false,
      "t": 111687.50000000001,
      "d": 203.12500000001455,
      "v": 13
    },
    {
      "midi": 72,
      "hit": false,
      "t": 111697.91666666669,
      "d": 625.0000000000146,
      "v": 73
    },
    {
      "midi": 27,
      "hit": false,
      "t": 111708.33333333336,
      "d": 156.25,
      "v": 37
    },
    {
      "midi": 60,
      "hit": false,
      "t": 111718.75000000003,
      "d": 296.875,
      "v": 49
    },
    {
      "midi": 63,
      "hit": false,
      "t": 112218.75000000003,
      "d": 78.125,
      "v": 47
    },
    {
      "midi": 60,
      "hit": false,
      "t": 112234.37500000003,
      "d": 104.16666666667152,
      "v": 19
    },
    {
      "midi": 55,
      "hit": false,
      "t": 112255.20833333336,
      "d": 88.54166666667152,
      "v": 25
    },
    {
      "midi": 51,
      "hit": false,
      "t": 112281.25000000003,
      "d": 197.91666666667152,
      "v": 20
    },
    {
      "midi": 63,
      "hit": false,
      "t": 112619.7916666667,
      "d": 46.875,
      "v": 48
    },
    {
      "midi": 67,
      "hit": false,
      "t": 112619.7916666667,
      "d": 57.29166666667152,
      "v": 52
    },
    {
      "midi": 60,
      "hit": false,
      "t": 112661.45833333337,
      "d": 78.125,
      "v": 22
    },
    {
      "midi": 84,
      "hit": false,
      "t": 113010.4166666667,
      "d": 52.08333333332848,
      "v": 45
    },
    {
      "midi": 63,
      "hit": false,
      "t": 113020.83333333337,
      "d": 62.49999999998545,
      "v": 38
    },
    {
      "midi": 72,
      "hit": false,
      "t": 113020.83333333337,
      "d": 135.41666666665697,
      "v": 23
    },
    {
      "midi": 67,
      "hit": false,
      "t": 113026.0416666667,
      "d": 72.91666666665697,
      "v": 35
    },
    {
      "midi": 75,
      "hit": false,
      "t": 113031.25000000003,
      "d": 67.70833333332848,
      "v": 21
    },
    {
      "midi": 63,
      "hit": false,
      "t": 113359.37500000003,
      "d": 72.91666666667152,
      "v": 31
    },
    {
      "midi": 75,
      "hit": false,
      "t": 113375.00000000003,
      "d": 72.91666666667152,
      "v": 27
    },
    {
      "midi": 79,
      "hit": false,
      "t": 113375.00000000003,
      "d": 83.33333333334303,
      "v": 36
    },
    {
      "midi": 72,
      "hit": false,
      "t": 113375.00000000003,
      "d": 93.75000000001455,
      "v": 22
    },
    {
      "midi": 60,
      "hit": false,
      "t": 113385.4166666667,
      "d": 109.37500000001455,
      "v": 18
    },
    {
      "midi": 72,
      "hit": false,
      "t": 113760.41666666672,
      "d": 62.49999999998545,
      "v": 36
    },
    {
      "midi": 75,
      "hit": false,
      "t": 113765.62500000004,
      "d": 72.91666666665697,
      "v": 26
    },
    {
      "midi": 67,
      "hit": false,
      "t": 113770.83333333337,
      "d": 62.5,
      "v": 38
    },
    {
      "midi": 63,
      "hit": false,
      "t": 113802.08333333337,
      "d": 67.70833333332848,
      "v": 33
    },
    {
      "midi": 72,
      "hit": false,
      "t": 114125.00000000003,
      "d": 140.625,
      "v": 77
    },
    {
      "midi": 60,
      "hit": false,
      "t": 114130.20833333336,
      "d": 109.375,
      "v": 70
    },
    {
      "midi": 70,
      "hit": false,
      "t": 114671.87500000003,
      "d": 406.25,
      "v": 54
    },
    {
      "midi": 58,
      "hit": false,
      "t": 114677.08333333336,
      "d": 406.25,
      "v": 39
    },
    {
      "midi": 31,
      "hit": false,
      "t": 114708.33333333336,
      "d": 234.375,
      "v": 26
    },
    {
      "midi": 43,
      "hit": false,
      "t": 114718.75000000003,
      "d": 296.875,
      "v": 20
    },
    {
      "midi": 69,
      "hit": false,
      "t": 115343.75000000003,
      "d": 182.29166666667152,
      "v": 44
    },
    {
      "midi": 57,
      "hit": false,
      "t": 115348.95833333336,
      "d": 109.375,
      "v": 40
    },
    {
      "midi": 61,
      "hit": false,
      "t": 115364.58333333336,
      "d": 93.75,
      "v": 28
    },
    {
      "midi": 55,
      "hit": false,
      "t": 115375.00000000003,
      "d": 83.33333333332848,
      "v": 30
    },
    {
      "midi": 64,
      "hit": false,
      "t": 115375.00000000003,
      "d": 93.75,
      "v": 42
    },
    {
      "midi": 70,
      "hit": false,
      "t": 115791.6666666667,
      "d": 244.79166666667152,
      "v": 55
    },
    {
      "midi": 58,
      "hit": false,
      "t": 115802.08333333337,
      "d": 182.29166666667152,
      "v": 48
    },
    {
      "midi": 55,
      "hit": false,
      "t": 115833.33333333337,
      "d": 72.91666666667152,
      "v": 37
    },
    {
      "midi": 61,
      "hit": false,
      "t": 115848.95833333337,
      "d": 78.125,
      "v": 31
    },
    {
      "midi": 64,
      "hit": false,
      "t": 115864.58333333337,
      "d": 62.5,
      "v": 31
    },
    {
      "midi": 73,
      "hit": false,
      "t": 116421.87500000004,
      "d": 328.125,
      "v": 38
    },
    {
      "midi": 61,
      "hit": false,
      "t": 116432.29166666672,
      "d": 296.875,
      "v": 47
    },
    {
      "midi": 85,
      "hit": false,
      "t": 116437.50000000004,
      "d": 348.9583333333285,
      "v": 53
    },
    {
      "midi": 67,
      "hit": false,
      "t": 116484.37500000004,
      "d": 104.16666666667152,
      "v": 23
    },
    {
      "midi": 72,
      "hit": false,
      "t": 116979.1666666667,
      "d": 166.66666666667152,
      "v": 54
    },
    {
      "midi": 84,
      "hit": false,
      "t": 116979.1666666667,
      "d": 171.875,
      "v": 60
    },
    {
      "midi": 60,
      "hit": false,
      "t": 116989.58333333337,
      "d": 255.20833333332848,
      "v": 38
    },
    {
      "midi": 76,
      "hit": false,
      "t": 117005.20833333337,
      "d": 88.54166666667152,
      "v": 30
    },
    {
      "midi": 67,
      "hit": false,
      "t": 117010.4166666667,
      "d": 88.54166666667152,
      "v": 28
    },
    {
      "midi": 79,
      "hit": false,
      "t": 117052.08333333337,
      "d": 62.5,
      "v": 8
    },
    {
      "midi": 82,
      "hit": false,
      "t": 117473.95833333337,
      "d": 130.20833333334303,
      "v": 46
    },
    {
      "midi": 58,
      "hit": false,
      "t": 117473.95833333337,
      "d": 182.29166666667152,
      "v": 32
    },
    {
      "midi": 70,
      "hit": false,
      "t": 117473.95833333337,
      "d": 765.625,
      "v": 48
    },
    {
      "midi": 61,
      "hit": false,
      "t": 117510.4166666667,
      "d": 114.58333333334303,
      "v": 26
    },
    {
      "midi": 73,
      "hit": false,
      "t": 117520.83333333337,
      "d": 104.16666666667152,
      "v": 20
    },
    {
      "midi": 76,
      "hit": false,
      "t": 117546.87500000004,
      "d": 83.33333333332848,
      "v": 12
    },
    {
      "midi": 72,
      "hit": false,
      "t": 118192.70833333337,
      "d": 895.833333333343,
      "v": 57
    },
    {
      "midi": 29,
      "hit": false,
      "t": 118208.33333333337,
      "d": 229.16666666667152,
      "v": 25
    },
    {
      "midi": 60,
      "hit": false,
      "t": 118213.5416666667,
      "d": 338.5416666666715,
      "v": 29
    },
    {
      "midi": 41,
      "hit": false,
      "t": 118239.58333333337,
      "d": 260.4166666666715,
      "v": 28
    },
    {
      "midi": 65,
      "hit": false,
      "t": 118791.6666666667,
      "d": 135.41666666668607,
      "v": 29
    },
    {
      "midi": 57,
      "hit": false,
      "t": 118802.08333333337,
      "d": 83.33333333334303,
      "v": 35
    },
    {
      "midi": 60,
      "hit": false,
      "t": 118812.50000000004,
      "d": 83.33333333334303,
      "v": 27
    },
    {
      "midi": 53,
      "hit": false,
      "t": 118822.91666666672,
      "d": 93.75,
      "v": 41
    },
    {
      "midi": 69,
      "hit": false,
      "t": 119192.70833333339,
      "d": 62.50000000001455,
      "v": 39
    },
    {
      "midi": 60,
      "hit": false,
      "t": 119218.75000000006,
      "d": 67.70833333334303,
      "v": 34
    },
    {
      "midi": 57,
      "hit": false,
      "t": 119229.16666666673,
      "d": 67.70833333334303,
      "v": 23
    },
    {
      "midi": 72,
      "hit": false,
      "t": 119567.7083333334,
      "d": 213.54166666665697,
      "v": 32
    },
    {
      "midi": 69,
      "hit": false,
      "t": 119572.91666666673,
      "d": 119.79166666665697,
      "v": 34
    },
    {
      "midi": 77,
      "hit": false,
      "t": 119583.3333333334,
      "d": 67.70833333332848,
      "v": 26
    },
    {
      "midi": 84,
      "hit": false,
      "t": 119583.3333333334,
      "d": 67.70833333332848,
      "v": 29
    },
    {
      "midi": 65,
      "hit": false,
      "t": 119604.16666666673,
      "d": 67.70833333332848,
      "v": 24
    },
    {
      "midi": 65,
      "hit": false,
      "t": 119968.75000000006,
      "d": 88.54166666667152,
      "v": 27
    },
    {
      "midi": 72,
      "hit": false,
      "t": 119973.95833333339,
      "d": 93.75000000001455,
      "v": 20
    },
    {
      "midi": 81,
      "hit": false,
      "t": 119973.95833333339,
      "d": 98.95833333334303,
      "v": 28
    },
    {
      "midi": 60,
      "hit": false,
      "t": 119984.37500000006,
      "d": 72.91666666667152,
      "v": 19
    },
    {
      "midi": 77,
      "hit": false,
      "t": 120427.0833333334,
      "d": 229.16666666665697,
      "v": 28
    },
    {
      "midi": 60,
      "hit": false,
      "t": 120432.29166666673,
      "d": 72.91666666667152,
      "v": 23
    },
    {
      "midi": 57,
      "hit": false,
      "t": 120432.29166666673,
      "d": 78.125,
      "v": 12
    },
    {
      "midi": 72,
      "hit": false,
      "t": 120442.7083333334,
      "d": 135.41666666665697,
      "v": 15
    },
    {
      "midi": 29,
      "hit": false,
      "t": 120906.25000000006,
      "d": 62.5,
      "v": 32
    },
    {
      "midi": 41,
      "hit": false,
      "t": 120906.25000000006,
      "d": 78.125,
      "v": 29
    },
    {
      "midi": 63,
      "hit": false,
      "t": 121276.04166666673,
      "d": 88.54166666665697,
      "v": 24
    },
    {
      "midi": 57,
      "hit": false,
      "t": 121281.25000000006,
      "d": 93.75,
      "v": 25
    },
    {
      "midi": 65,
      "hit": false,
      "t": 121286.45833333339,
      "d": 109.375,
      "v": 26
    },
    {
      "midi": 53,
      "hit": false,
      "t": 121291.66666666672,
      "d": 72.91666666667152,
      "v": 39
    },
    {
      "midi": 60,
      "hit": false,
      "t": 121307.29166666672,
      "d": 88.54166666667152,
      "v": 7
    },
    {
      "midi": 69,
      "hit": false,
      "t": 121645.83333333339,
      "d": 104.16666666665697,
      "v": 27
    },
    {
      "midi": 63,
      "hit": false,
      "t": 121651.04166666672,
      "d": 57.291666666656965,
      "v": 39
    },
    {
      "midi": 53,
      "hit": false,
      "t": 121682.29166666672,
      "d": 72.91666666665697,
      "v": 32
    },
    {
      "midi": 60,
      "hit": false,
      "t": 121687.50000000004,
      "d": 83.33333333332848,
      "v": 20
    },
    {
      "midi": 81,
      "hit": false,
      "t": 122067.70833333337,
      "d": 135.41666666667152,
      "v": 38
    },
    {
      "midi": 72,
      "hit": false,
      "t": 122067.70833333337,
      "d": 166.66666666667152,
      "v": 26
    },
    {
      "midi": 69,
      "hit": false,
      "t": 122093.75000000004,
      "d": 125,
      "v": 9
    },
    {
      "midi": 65,
      "hit": false,
      "t": 122109.37500000004,
      "d": 83.33333333332848,
      "v": 27
    },
    {
      "midi": 63,
      "hit": false,
      "t": 122125.00000000004,
      "d": 93.75,
      "v": 25
    },
    {
      "midi": 65,
      "hit": false,
      "t": 122526.04166666672,
      "d": 104.16666666667152,
      "v": 22
    },
    {
      "midi": 69,
      "hit": false,
      "t": 122541.66666666672,
      "d": 98.95833333334303,
      "v": 10
    },
    {
      "midi": 60,
      "hit": false,
      "t": 122552.08333333339,
      "d": 104.16666666667152,
      "v": 14
    },
    {
      "midi": 77,
      "hit": false,
      "t": 122552.08333333339,
      "d": 125,
      "v": 25
    },
    {
      "midi": 72,
      "hit": false,
      "t": 123088.54166666672,
      "d": 135.41666666667152,
      "v": 20
    },
    {
      "midi": 69,
      "hit": false,
      "t": 123093.75000000004,
      "d": 119.79166666667152,
      "v": 7
    },
    {
      "midi": 65,
      "hit": false,
      "t": 123109.37500000004,
      "d": 93.75,
      "v": 13
    },
    {
      "midi": 63,
      "hit": false,
      "t": 123114.58333333337,
      "d": 98.95833333334303,
      "v": 19
    },
    {
      "midi": 70,
      "hit": false,
      "t": 124057.29166666672,
      "d": 614.5833333333285,
      "v": 47
    },
    {
      "midi": 58,
      "hit": false,
      "t": 124072.91666666672,
      "d": 364.5833333333285,
      "v": 20
    },
    {
      "midi": 34,
      "hit": false,
      "t": 124104.16666666672,
      "d": 218.75,
      "v": 20
    },
    {
      "midi": 46,
      "hit": false,
      "t": 124109.37500000004,
      "d": 260.4166666666715,
      "v": 14
    },
    {
      "midi": 58,
      "hit": false,
      "t": 124677.08333333337,
      "d": 119.79166666667152,
      "v": 27
    },
    {
      "midi": 53,
      "hit": false,
      "t": 124718.75000000004,
      "d": 88.54166666667152,
      "v": 41
    },
    {
      "midi": 65,
      "hit": false,
      "t": 124901.04166666672,
      "d": 62.5,
      "v": 37
    },
    {
      "midi": 62,
      "hit": false,
      "t": 124916.66666666672,
      "d": 72.91666666667152,
      "v": 28
    },
    {
      "midi": 58,
      "hit": false,
      "t": 125078.12500000006,
      "d": 78.125,
      "v": 20
    },
    {
      "midi": 70,
      "hit": false,
      "t": 125208.33333333339,
      "d": 46.875,
      "v": 52
    },
    {
      "midi": 65,
      "hit": false,
      "t": 125208.33333333339,
      "d": 57.29166666667152,
      "v": 41
    },
    {
      "midi": 70,
      "hit": false,
      "t": 125447.91666666673,
      "d": 93.75,
      "v": 28
    },
    {
      "midi": 65,
      "hit": false,
      "t": 125447.91666666673,
      "d": 98.95833333332848,
      "v": 15
    },
    {
      "midi": 74,
      "hit": false,
      "t": 125453.12500000006,
      "d": 78.125,
      "v": 54
    },
    {
      "midi": 86,
      "hit": false,
      "t": 125635.41666666673,
      "d": 67.70833333332848,
      "v": 41
    },
    {
      "midi": 77,
      "hit": false,
      "t": 125640.62500000006,
      "d": 67.70833333332848,
      "v": 41
    },
    {
      "midi": 82,
      "hit": false,
      "t": 125651.04166666673,
      "d": 67.70833333332848,
      "v": 25
    },
    {
      "midi": 70,
      "hit": false,
      "t": 125822.91666666673,
      "d": 83.33333333332848,
      "v": 41
    },
    {
      "midi": 65,
      "hit": false,
      "t": 125843.75000000006,
      "d": 78.125,
      "v": 26
    },
    {
      "midi": 82,
      "hit": false,
      "t": 125984.37500000006,
      "d": 57.29166666667152,
      "v": 41
    },
    {
      "midi": 74,
      "hit": false,
      "t": 126000.00000000006,
      "d": 67.70833333334303,
      "v": 36
    },
    {
      "midi": 77,
      "hit": false,
      "t": 126015.62500000006,
      "d": 67.70833333334303,
      "v": 23
    },
    {
      "midi": 65,
      "hit": false,
      "t": 126182.29166666673,
      "d": 57.291666666656965,
      "v": 32
    },
    {
      "midi": 62,
      "hit": false,
      "t": 126203.12500000006,
      "d": 57.291666666656965,
      "v": 34
    },
    {
      "midi": 74,
      "hit": false,
      "t": 126447.91666666672,
      "d": 62.5,
      "v": 34
    },
    {
      "midi": 77,
      "hit": false,
      "t": 126447.91666666672,
      "d": 62.5,
      "v": 35
    },
    {
      "midi": 31,
      "hit": false,
      "t": 126682.29166666672,
      "d": 46.875,
      "v": 55
    },
    {
      "midi": 43,
      "hit": false,
      "t": 126713.54166666672,
      "d": 57.29166666667152,
      "v": 31
    },
    {
      "midi": 58,
      "hit": false,
      "t": 127041.66666666672,
      "d": 72.91666666667152,
      "v": 48
    },
    {
      "midi": 52,
      "hit": false,
      "t": 127072.91666666672,
      "d": 348.95833333334303,
      "v": 49
    },
    {
      "midi": 62,
      "hit": false,
      "t": 127213.54166666672,
      "d": 52.083333333343035,
      "v": 51
    },
    {
      "midi": 64,
      "hit": false,
      "t": 127223.95833333339,
      "d": 62.5,
      "v": 41
    },
    {
      "midi": 62,
      "hit": false,
      "t": 127385.41666666672,
      "d": 67.70833333334303,
      "v": 50
    },
    {
      "midi": 58,
      "hit": false,
      "t": 127395.83333333339,
      "d": 57.29166666667152,
      "v": 35
    },
    {
      "midi": 70,
      "hit": false,
      "t": 127536.45833333339,
      "d": 57.29166666667152,
      "v": 50
    },
    {
      "midi": 64,
      "hit": false,
      "t": 127562.50000000006,
      "d": 57.29166666667152,
      "v": 14
    },
    {
      "midi": 69,
      "hit": false,
      "t": 127781.25000000006,
      "d": 208.33333333332848,
      "v": 82
    },
    {
      "midi": 57,
      "hit": false,
      "t": 127802.08333333339,
      "d": 78.125,
      "v": 48
    },
    {
      "midi": 86,
      "hit": false,
      "t": 127994.79166666672,
      "d": 67.70833333334303,
      "v": 50
    },
    {
      "midi": 82,
      "hit": false,
      "t": 128020.83333333339,
      "d": 67.70833333334303,
      "v": 33
    },
    {
      "midi": 64,
      "hit": false,
      "t": 128192.7083333334,
      "d": 78.125,
      "v": 50
    },
    {
      "midi": 62,
      "hit": false,
      "t": 128213.54166666673,
      "d": 67.70833333334303,
      "v": 32
    },
    {
      "midi": 82,
      "hit": false,
      "t": 128354.16666666674,
      "d": 57.29166666667152,
      "v": 39
    },
    {
      "midi": 76,
      "hit": false,
      "t": 128369.79166666674,
      "d": 72.91666666667152,
      "v": 27
    },
    {
      "midi": 70,
      "hit": false,
      "t": 128510.41666666674,
      "d": 98.95833333334303,
      "v": 84
    },
    {
      "midi": 58,
      "hit": false,
      "t": 128536.45833333342,
      "d": 213.54166666667152,
      "v": 43
    },
    {
      "midi": 76,
      "hit": false,
      "t": 128750.00000000009,
      "d": 52.08333333332848,
      "v": 46
    },
    {
      "midi": 74,
      "hit": false,
      "t": 129156.25000000009,
      "d": 479.16666666665697,
      "v": 94
    },
    {
      "midi": 62,
      "hit": false,
      "t": 129171.87500000009,
      "d": 401.04166666665697,
      "v": 54
    },
    {
      "midi": 29,
      "hit": false,
      "t": 129182.29166666676,
      "d": 135.41666666665697,
      "v": 39
    },
    {
      "midi": 41,
      "hit": false,
      "t": 129208.33333333342,
      "d": 161.45833333332848,
      "v": 32
    },
    {
      "midi": 58,
      "hit": false,
      "t": 129671.87500000007,
      "d": 151.04166666667152,
      "v": 39
    },
    {
      "midi": 53,
      "hit": false,
      "t": 129697.91666666674,
      "d": 78.125,
      "v": 50
    },
    {
      "midi": 50,
      "hit": false,
      "t": 129708.33333333342,
      "d": 98.95833333332848,
      "v": 36
    },
    {
      "midi": 65,
      "hit": false,
      "t": 129885.41666666674,
      "d": 67.70833333334303,
      "v": 47
    },
    {
      "midi": 62,
      "hit": false,
      "t": 129895.83333333342,
      "d": 57.29166666667152,
      "v": 48
    },
    {
      "midi": 62,
      "hit": false,
      "t": 130057.29166666676,
      "d": 72.91666666667152,
      "v": 44
    },
    {
      "midi": 58,
      "hit": false,
      "t": 130072.91666666676,
      "d": 57.29166666667152,
      "v": 41
    },
    {
      "midi": 53,
      "hit": false,
      "t": 130088.54166666676,
      "d": 67.70833333334303,
      "v": 38
    },
    {
      "midi": 70,
      "hit": false,
      "t": 130234.3750000001,
      "d": 46.875,
      "v": 55
    },
    {
      "midi": 74,
      "hit": false,
      "t": 130489.58333333343,
      "d": 130.20833333332848,
      "v": 70
    },
    {
      "midi": 70,
      "hit": false,
      "t": 130510.41666666676,
      "d": 98.95833333332848,
      "v": 23
    },
    {
      "midi": 65,
      "hit": false,
      "t": 130510.41666666676,
      "d": 135.41666666667152,
      "v": 16
    },
    {
      "midi": 86,
      "hit": false,
      "t": 130697.91666666676,
      "d": 67.70833333334303,
      "v": 44
    },
    {
      "midi": 82,
      "hit": false,
      "t": 130708.33333333343,
      "d": 67.70833333334303,
      "v": 27
    },
    {
      "midi": 77,
      "hit": false,
      "t": 130708.33333333343,
      "d": 78.12500000001455,
      "v": 39
    },
    {
      "midi": 70,
      "hit": false,
      "t": 130864.58333333344,
      "d": 145.83333333332848,
      "v": 46
    },
    {
      "midi": 62,
      "hit": false,
      "t": 130901.04166666677,
      "d": 78.125,
      "v": 29
    },
    {
      "midi": 65,
      "hit": false,
      "t": 130906.2500000001,
      "d": 72.91666666667152,
      "v": 23
    },
    {
      "midi": 82,
      "hit": false,
      "t": 131046.8750000001,
      "d": 57.29166666667152,
      "v": 42
    },
    {
      "midi": 74,
      "hit": false,
      "t": 131052.08333333343,
      "d": 62.5,
      "v": 48
    },
    {
      "midi": 77,
      "hit": false,
      "t": 131072.91666666677,
      "d": 57.291666666656965,
      "v": 30
    },
    {
      "midi": 65,
      "hit": false,
      "t": 131260.41666666677,
      "d": 52.083333333343035,
      "v": 38
    },
    {
      "midi": 77,
      "hit": false,
      "t": 131520.83333333346,
      "d": 57.29166666668607,
      "v": 44
    },
    {
      "midi": 74,
      "hit": false,
      "t": 131526.0416666668,
      "d": 57.29166666668607,
      "v": 39
    },
    {
      "midi": 29,
      "hit": false,
      "t": 131729.16666666683,
      "d": 62.5,
      "v": 46
    },
    {
      "midi": 41,
      "hit": false,
      "t": 131750.00000000017,
      "d": 72.91666666665697,
      "v": 35
    },
    {
      "midi": 57,
      "hit": false,
      "t": 132098.9583333335,
      "d": 182.29166666668607,
      "v": 35
    },
    {
      "midi": 53,
      "hit": false,
      "t": 132104.16666666683,
      "d": 52.083333333343035,
      "v": 60
    },
    {
      "midi": 63,
      "hit": false,
      "t": 132286.45833333352,
      "d": 83.33333333331393,
      "v": 47
    },
    {
      "midi": 65,
      "hit": false,
      "t": 132296.87500000017,
      "d": 78.125,
      "v": 42
    },
    {
      "midi": 60,
      "hit": false,
      "t": 132463.54166666683,
      "d": 67.70833333334303,
      "v": 54
    },
    {
      "midi": 53,
      "hit": false,
      "t": 132494.79166666683,
      "d": 67.70833333334303,
      "v": 44
    },
    {
      "midi": 63,
      "hit": false,
      "t": 132609.37500000017,
      "d": 57.291666666656965,
      "v": 40
    },
    {
      "midi": 69,
      "hit": false,
      "t": 132625.00000000017,
      "d": 62.5,
      "v": 36
    },
    {
      "midi": 60,
      "hit": false,
      "t": 132848.95833333352,
      "d": 359.375,
      "v": 42
    },
    {
      "midi": 72,
      "hit": false,
      "t": 132906.25000000017,
      "d": 354.16666666668607,
      "v": 68
    },
    {
      "midi": 75,
      "hit": false,
      "t": 133166.66666666683,
      "d": 104.16666666668607,
      "v": 35
    },
    {
      "midi": 84,
      "hit": false,
      "t": 133171.87500000017,
      "d": 67.70833333334303,
      "v": 38
    },
    {
      "midi": 69,
      "hit": false,
      "t": 133385.41666666686,
      "d": 140.625,
      "v": 23
    },
    {
      "midi": 63,
      "hit": false,
      "t": 133390.6250000002,
      "d": 119.79166666665697,
      "v": 31
    },
    {
      "midi": 75,
      "hit": false,
      "t": 133614.58333333352,
      "d": 72.91666666665697,
      "v": 43
    },
    {
      "midi": 81,
      "hit": false,
      "t": 133630.20833333352,
      "d": 78.125,
      "v": 36
    },
    {
      "midi": 65,
      "hit": false,
      "t": 133890.62500000017,
      "d": 93.75,
      "v": 29
    },
    {
      "midi": 60,
      "hit": false,
      "t": 133895.83333333352,
      "d": 145.83333333331393,
      "v": 29
    },
    {
      "midi": 75,
      "hit": false,
      "t": 134135.41666666683,
      "d": 62.5,
      "v": 44
    },
    {
      "midi": 77,
      "hit": false,
      "t": 134161.4583333335,
      "d": 57.29166666668607,
      "v": 33
    },
    {
      "midi": 70,
      "hit": false,
      "t": 134588.54166666683,
      "d": 609.3750000000291,
      "v": 41
    },
    {
      "midi": 58,
      "hit": false,
      "t": 134593.75000000017,
      "d": 338.54166666668607,
      "v": 30
    },
    {
      "midi": 34,
      "hit": false,
      "t": 134625.00000000017,
      "d": 197.91666666668607,
      "v": 21
    },
    {
      "midi": 46,
      "hit": false,
      "t": 134625.00000000017,
      "d": 229.16666666668607,
      "v": 19
    },
    {
      "midi": 65,
      "hit": false,
      "t": 135182.29166666686,
      "d": 98.95833333331393,
      "v": 22
    },
    {
      "midi": 62,
      "hit": false,
      "t": 135187.5000000002,
      "d": 119.79166666662786,
      "v": 25
    },
    {
      "midi": 50,
      "hit": false,
      "t": 135208.33333333352,
      "d": 109.3749999999709,
      "v": 20
    },
    {
      "midi": 53,
      "hit": false,
      "t": 135223.95833333352,
      "d": 104.16666666662786,
      "v": 16
    },
    {
      "midi": 70,
      "hit": false,
      "t": 135593.75000000015,
      "d": 83.33333333334303,
      "v": 34
    },
    {
      "midi": 65,
      "hit": false,
      "t": 135614.5833333335,
      "d": 57.291666666656965,
      "v": 34
    },
    {
      "midi": 62,
      "hit": false,
      "t": 135614.5833333335,
      "d": 67.70833333334303,
      "v": 36
    },
    {
      "midi": 58,
      "hit": false,
      "t": 135625.00000000015,
      "d": 78.1250000000291,
      "v": 24
    },
    {
      "midi": 82,
      "hit": false,
      "t": 136005.20833333352,
      "d": 98.95833333334303,
      "v": 40
    },
    {
      "midi": 86,
      "hit": false,
      "t": 136010.41666666686,
      "d": 125,
      "v": 31
    },
    {
      "midi": 70,
      "hit": false,
      "t": 136010.41666666686,
      "d": 135.41666666665697,
      "v": 32
    },
    {
      "midi": 74,
      "hit": false,
      "t": 136020.83333333352,
      "d": 239.58333333334303,
      "v": 32
    },
    {
      "midi": 65,
      "hit": false,
      "t": 136026.04166666686,
      "d": 67.70833333334303,
      "v": 27
    },
    {
      "midi": 82,
      "hit": false,
      "t": 136385.41666666686,
      "d": 130.20833333331393,
      "v": 38
    },
    {
      "midi": 77,
      "hit": false,
      "t": 136401.04166666686,
      "d": 88.54166666665697,
      "v": 37
    },
    {
      "midi": 62,
      "hit": false,
      "t": 136416.66666666686,
      "d": 83.33333333331393,
      "v": 26
    },
    {
      "midi": 65,
      "hit": false,
      "t": 136416.66666666686,
      "d": 83.33333333331393,
      "v": 34
    },
    {
      "midi": 74,
      "hit": false,
      "t": 136770.83333333352,
      "d": 93.7500000000291,
      "v": 27
    },
    {
      "midi": 77,
      "hit": false,
      "t": 136770.83333333352,
      "d": 93.7500000000291,
      "v": 28
    },
    {
      "midi": 70,
      "hit": false,
      "t": 136776.04166666686,
      "d": 67.70833333334303,
      "v": 31
    },
    {
      "midi": 65,
      "hit": false,
      "t": 136791.66666666686,
      "d": 52.083333333343035,
      "v": 30
    },
    {
      "midi": 34,
      "hit": false,
      "t": 137114.58333333355,
      "d": 52.08333333331393,
      "v": 49
    },
    {
      "midi": 46,
      "hit": false,
      "t": 137125.0000000002,
      "d": 78.125,
      "v": 26
    },
    {
      "midi": 58,
      "hit": false,
      "t": 137484.3750000002,
      "d": 130.20833333331393,
      "v": 36
    },
    {
      "midi": 65,
      "hit": false,
      "t": 137494.79166666686,
      "d": 98.95833333331393,
      "v": 32
    },
    {
      "midi": 53,
      "hit": false,
      "t": 137505.20833333352,
      "d": 67.70833333334303,
      "v": 36
    },
    {
      "midi": 62,
      "hit": false,
      "t": 137505.20833333352,
      "d": 78.125,
      "v": 36
    },
    {
      "midi": 50,
      "hit": false,
      "t": 137526.04166666686,
      "d": 88.54166666665697,
      "v": 25
    },
    {
      "midi": 62,
      "hit": false,
      "t": 137838.54166666686,
      "d": 57.29166666668607,
      "v": 46
    },
    {
      "midi": 70,
      "hit": false,
      "t": 137843.7500000002,
      "d": 57.29166666668607,
      "v": 44
    },
    {
      "midi": 65,
      "hit": false,
      "t": 137848.95833333355,
      "d": 57.29166666668607,
      "v": 39
    },
    {
      "midi": 86,
      "hit": false,
      "t": 138223.95833333358,
      "d": 125.0000000000291,
      "v": 43
    },
    {
      "midi": 70,
      "hit": false,
      "t": 138229.16666666692,
      "d": 104.16666666668607,
      "v": 22
    },
    {
      "midi": 77,
      "hit": false,
      "t": 138234.37500000026,
      "d": 125,
      "v": 29
    },
    {
      "midi": 65,
      "hit": false,
      "t": 138239.5833333336,
      "d": 83.33333333334303,
      "v": 33
    },
    {
      "midi": 74,
      "hit": false,
      "t": 138239.5833333336,
      "d": 130.20833333331393,
      "v": 41
    },
    {
      "midi": 62,
      "hit": false,
      "t": 138260.41666666695,
      "d": 62.5,
      "v": 35
    },
    {
      "midi": 82,
      "hit": false,
      "t": 138572.91666666692,
      "d": 124.9999999999709,
      "v": 36
    },
    {
      "midi": 77,
      "hit": false,
      "t": 138578.12500000026,
      "d": 62.499999999970896,
      "v": 43
    },
    {
      "midi": 62,
      "hit": false,
      "t": 138588.54166666692,
      "d": 67.70833333331393,
      "v": 31
    },
    {
      "midi": 74,
      "hit": false,
      "t": 138588.54166666692,
      "d": 78.1249999999709,
      "v": 35
    },
    {
      "midi": 65,
      "hit": false,
      "t": 138598.95833333358,
      "d": 83.33333333331393,
      "v": 32
    },
    {
      "midi": 58,
      "hit": false,
      "t": 138625.00000000023,
      "d": 72.91666666665697,
      "v": 36
    },
    {
      "midi": 70,
      "hit": false,
      "t": 138927.08333333355,
      "d": 57.29166666668607,
      "v": 40
    },
    {
      "midi": 77,
      "hit": false,
      "t": 138932.2916666669,
      "d": 67.70833333334303,
      "v": 44
    },
    {
      "midi": 74,
      "hit": false,
      "t": 138953.12500000023,
      "d": 78.125,
      "v": 36
    },
    {
      "midi": 62,
      "hit": false,
      "t": 138968.75000000023,
      "d": 57.291666666656965,
      "v": 39
    },
    {
      "midi": 65,
      "hit": false,
      "t": 139000.00000000023,
      "d": 57.291666666656965,
      "v": 11
    },
    {
      "midi": 46,
      "hit": false,
      "t": 139265.62500000023,
      "d": 62.5,
      "v": 47
    },
    {
      "midi": 34,
      "hit": false,
      "t": 139270.83333333358,
      "d": 46.875,
      "v": 58
    },
    {
      "midi": 70,
      "hit": false,
      "t": 139604.1666666669,
      "d": 192.70833333337214,
      "v": 47
    },
    {
      "midi": 58,
      "hit": false,
      "t": 139609.37500000023,
      "d": 135.41666666668607,
      "v": 43
    },
    {
      "midi": 62,
      "hit": false,
      "t": 139614.58333333358,
      "d": 93.7500000000291,
      "v": 51
    },
    {
      "midi": 65,
      "hit": false,
      "t": 139619.79166666692,
      "d": 83.33333333334303,
      "v": 41
    },
    {
      "midi": 53,
      "hit": false,
      "t": 139630.20833333358,
      "d": 67.70833333334303,
      "v": 48
    },
    {
      "midi": 50,
      "hit": false,
      "t": 139651.04166666692,
      "d": 67.70833333334303,
      "v": 43
    },
    {
      "midi": 65,
      "hit": false,
      "t": 139947.91666666692,
      "d": 41.666666666656965,
      "v": 60
    },
    {
      "midi": 62,
      "hit": false,
      "t": 139947.91666666692,
      "d": 62.499999999970896,
      "v": 58
    },
    {
      "midi": 74,
      "hit": false,
      "t": 139947.91666666692,
      "d": 83.33333333328483,
      "v": 69
    },
    {
      "midi": 53,
      "hit": false,
      "t": 139953.12500000026,
      "d": 46.874999999970896,
      "v": 67
    },
    {
      "midi": 70,
      "hit": false,
      "t": 139953.12500000026,
      "d": 57.29166666662786,
      "v": 42
    },
    {
      "midi": 58,
      "hit": false,
      "t": 139963.54166666692,
      "d": 57.29166666662786,
      "v": 39
    },
    {
      "midi": 89,
      "hit": false,
      "t": 140312.5000000002,
      "d": 223.95833333337214,
      "v": 71
    },
    {
      "midi": 77,
      "hit": false,
      "t": 140317.70833333355,
      "d": 203.1250000000291,
      "v": 65
    },
    {
      "midi": 74,
      "hit": false,
      "t": 140322.9166666669,
      "d": 78.125,
      "v": 62
    },
    {
      "midi": 82,
      "hit": false,
      "t": 140322.9166666669,
      "d": 145.83333333334303,
      "v": 47
    },
    {
      "midi": 65,
      "hit": false,
      "t": 140328.12500000023,
      "d": 109.375,
      "v": 47
    },
    {
      "midi": 70,
      "hit": false,
      "t": 140338.5416666669,
      "d": 78.125,
      "v": 39
    },
    {
      "midi": 86,
      "hit": false,
      "t": 140651.04166666692,
      "d": 213.54166666668607,
      "v": 66
    },
    {
      "midi": 82,
      "hit": false,
      "t": 140656.25000000026,
      "d": 177.08333333334303,
      "v": 51
    },
    {
      "midi": 65,
      "hit": false,
      "t": 140661.4583333336,
      "d": 88.54166666668607,
      "v": 43
    },
    {
      "midi": 70,
      "hit": false,
      "t": 140661.4583333336,
      "d": 156.25,
      "v": 51
    },
    {
      "midi": 77,
      "hit": false,
      "t": 140661.4583333336,
      "d": 192.70833333334303,
      "v": 57
    },
    {
      "midi": 62,
      "hit": false,
      "t": 140697.91666666695,
      "d": 78.125,
      "v": 46
    },
    {
      "midi": 82,
      "hit": false,
      "t": 141000.00000000026,
      "d": 83.33333333334303,
      "v": 51
    },
    {
      "midi": 74,
      "hit": false,
      "t": 141010.41666666692,
      "d": 52.083333333343035,
      "v": 49
    },
    {
      "midi": 77,
      "hit": false,
      "t": 141015.62500000026,
      "d": 88.54166666668607,
      "v": 56
    },
    {
      "midi": 65,
      "hit": false,
      "t": 141020.8333333336,
      "d": 83.33333333334303,
      "v": 40
    },
    {
      "midi": 70,
      "hit": false,
      "t": 141031.25000000026,
      "d": 57.29166666668607,
      "v": 39
    },
    {
      "midi": 34,
      "hit": false,
      "t": 141333.3333333336,
      "d": 41.666666666656965,
      "v": 75
    },
    {
      "midi": 46,
      "hit": false,
      "t": 141333.3333333336,
      "d": 52.08333333331393,
      "v": 62
    },
    {
      "midi": 68,
      "hit": false,
      "t": 141661.45833333358,
      "d": 166.66666666668607,
      "v": 58
    },
    {
      "midi": 65,
      "hit": false,
      "t": 141666.66666666692,
      "d": 182.29166666668607,
      "v": 67
    },
    {
      "midi": 74,
      "hit": false,
      "t": 141666.66666666692,
      "d": 182.29166666668607,
      "v": 77
    },
    {
      "midi": 53,
      "hit": false,
      "t": 141671.87500000026,
      "d": 62.5,
      "v": 77
    },
    {
      "midi": 56,
      "hit": false,
      "t": 141671.87500000026,
      "d": 62.5,
      "v": 55
    },
    {
      "midi": 62,
      "hit": false,
      "t": 141677.0833333336,
      "d": 62.5,
      "v": 56
    },
    {
      "midi": 77,
      "hit": false,
      "t": 142057.29166666695,
      "d": 83.33333333334303,
      "v": 78
    },
    {
      "midi": 68,
      "hit": false,
      "t": 142062.5000000003,
      "d": 36.458333333343035,
      "v": 64
    },
    {
      "midi": 56,
      "hit": false,
      "t": 142062.5000000003,
      "d": 46.875,
      "v": 55
    },
    {
      "midi": 65,
      "hit": false,
      "t": 142062.5000000003,
      "d": 46.875,
      "v": 57
    },
    {
      "midi": 74,
      "hit": false,
      "t": 142093.7500000003,
      "d": 46.875,
      "v": 54
    },
    {
      "midi": 62,
      "hit": false,
      "t": 142098.95833333363,
      "d": 67.70833333331393,
      "v": 23
    },
    {
      "midi": 92,
      "hit": false,
      "t": 142421.8750000003,
      "d": 281.2500000000291,
      "v": 82
    },
    {
      "midi": 80,
      "hit": false,
      "t": 142427.08333333363,
      "d": 171.8750000000291,
      "v": 78
    },
    {
      "midi": 68,
      "hit": false,
      "t": 142437.5000000003,
      "d": 125.0000000000291,
      "v": 50
    },
    {
      "midi": 77,
      "hit": false,
      "t": 142442.70833333363,
      "d": 67.70833333334303,
      "v": 63
    },
    {
      "midi": 86,
      "hit": false,
      "t": 142442.70833333363,
      "d": 125.0000000000291,
      "v": 71
    },
    {
      "midi": 74,
      "hit": false,
      "t": 142458.33333333363,
      "d": 52.083333333343035,
      "v": 52
    },
    {
      "midi": 80,
      "hit": false,
      "t": 142776.04166666698,
      "d": 151.04166666668607,
      "v": 70
    },
    {
      "midi": 74,
      "hit": false,
      "t": 142786.45833333363,
      "d": 78.1250000000291,
      "v": 62
    },
    {
      "midi": 68,
      "hit": false,
      "t": 142786.45833333363,
      "d": 156.2500000000291,
      "v": 40
    },
    {
      "midi": 89,
      "hit": false,
      "t": 142786.45833333363,
      "d": 161.45833333337214,
      "v": 71
    },
    {
      "midi": 86,
      "hit": false,
      "t": 142791.66666666698,
      "d": 72.91666666668607,
      "v": 58
    },
    {
      "midi": 65,
      "hit": false,
      "t": 142812.50000000032,
      "d": 72.91666666668607,
      "v": 23
    },
    {
      "midi": 77,
      "hit": false,
      "t": 143119.791666667,
      "d": 46.875000000029104,
      "v": 51
    },
    {
      "midi": 80,
      "hit": false,
      "t": 143125.00000000035,
      "d": 177.08333333334303,
      "v": 59
    },
    {
      "midi": 68,
      "hit": false,
      "t": 143130.2083333337,
      "d": 114.58333333334303,
      "v": 29
    },
    {
      "midi": 86,
      "hit": false,
      "t": 143135.41666666704,
      "d": 83.33333333334303,
      "v": 63
    },
    {
      "midi": 74,
      "hit": false,
      "t": 143166.66666666704,
      "d": 62.5,
      "v": 35
    },
    {
      "midi": 46,
      "hit": false,
      "t": 143479.16666666704,
      "d": 177.08333333334303,
      "v": 60
    },
    {
      "midi": 34,
      "hit": false,
      "t": 143494.79166666704,
      "d": 130.20833333334303,
      "v": 53
    },
    {
      "midi": 63,
      "hit": false,
      "t": 143828.12500000038,
      "d": 145.83333333334303,
      "v": 61
    },
    {
      "midi": 70,
      "hit": false,
      "t": 143833.33333333372,
      "d": 177.08333333334303,
      "v": 56
    },
    {
      "midi": 67,
      "hit": false,
      "t": 143838.54166666706,
      "d": 98.95833333331393,
      "v": 52
    },
    {
      "midi": 58,
      "hit": false,
      "t": 143848.95833333372,
      "d": 109.375,
      "v": 41
    },
    {
      "midi": 55,
      "hit": false,
      "t": 143859.37500000038,
      "d": 62.5,
      "v": 36
    },
    {
      "midi": 51,
      "hit": false,
      "t": 143885.41666666704,
      "d": 192.70833333337214,
      "v": 40
    },
    {
      "midi": 63,
      "hit": false,
      "t": 144151.04166666706,
      "d": 72.91666666668607,
      "v": 62
    },
    {
      "midi": 75,
      "hit": false,
      "t": 144156.2500000004,
      "d": 104.16666666668607,
      "v": 68
    },
    {
      "midi": 70,
      "hit": false,
      "t": 144166.66666666706,
      "d": 57.29166666668607,
      "v": 57
    },
    {
      "midi": 67,
      "hit": false,
      "t": 144171.8750000004,
      "d": 52.083333333343035,
      "v": 59
    },
    {
      "midi": 58,
      "hit": false,
      "t": 144187.5000000004,
      "d": 78.1250000000291,
      "v": 30
    },
    {
      "midi": 75,
      "hit": false,
      "t": 144531.25000000044,
      "d": 119.79166666662786,
      "v": 60
    },
    {
      "midi": 91,
      "hit": false,
      "t": 144531.25000000044,
      "d": 244.79166666662786,
      "v": 87
    },
    {
      "midi": 79,
      "hit": false,
      "t": 144536.45833333378,
      "d": 208.33333333328483,
      "v": 85
    },
    {
      "midi": 82,
      "hit": false,
      "t": 144546.87500000044,
      "d": 130.20833333328483,
      "v": 52
    },
    {
      "midi": 70,
      "hit": false,
      "t": 144557.2916666671,
      "d": 72.91666666665697,
      "v": 38
    },
    {
      "midi": 67,
      "hit": false,
      "t": 144557.2916666671,
      "d": 83.33333333331393,
      "v": 41
    },
    {
      "midi": 87,
      "hit": false,
      "t": 144906.2500000004,
      "d": 197.91666666662786,
      "v": 54
    },
    {
      "midi": 67,
      "hit": false,
      "t": 144911.45833333375,
      "d": 78.1249999999709,
      "v": 41
    },
    {
      "midi": 70,
      "hit": false,
      "t": 144911.45833333375,
      "d": 104.16666666662786,
      "v": 40
    },
    {
      "midi": 79,
      "hit": false,
      "t": 144911.45833333375,
      "d": 171.8749999999709,
      "v": 59
    },
    {
      "midi": 82,
      "hit": false,
      "t": 144921.8750000004,
      "d": 98.95833333331393,
      "v": 34
    },
    {
      "midi": 63,
      "hit": false,
      "t": 144932.29166666706,
      "d": 161.45833333331393,
      "v": 40
    },
    {
      "midi": 75,
      "hit": false,
      "t": 145270.8333333337,
      "d": 57.291666666656965,
      "v": 52
    },
    {
      "midi": 82,
      "hit": false,
      "t": 145276.04166666704,
      "d": 140.6249999999709,
      "v": 48
    },
    {
      "midi": 79,
      "hit": false,
      "t": 145286.4583333337,
      "d": 119.79166666665697,
      "v": 49
    },
    {
      "midi": 70,
      "hit": false,
      "t": 145302.0833333337,
      "d": 72.91666666665697,
      "v": 42
    },
    {
      "midi": 67,
      "hit": false,
      "t": 145312.50000000035,
      "d": 67.70833333334303,
      "v": 38
    },
    {
      "midi": 46,
      "hit": false,
      "t": 145718.75000000035,
      "d": 208.33333333334303,
      "v": 34
    },
    {
      "midi": 34,
      "hit": false,
      "t": 145739.5833333337,
      "d": 156.25,
      "v": 32
    },
    {
      "midi": 60,
      "hit": false,
      "t": 146083.3333333337,
      "d": 265.625,
      "v": 50
    },
    {
      "midi": 69,
      "hit": false,
      "t": 146098.9583333337,
      "d": 265.625,
      "v": 41
    },
    {
      "midi": 66,
      "hit": false,
      "t": 146104.16666666704,
      "d": 270.83333333331393,
      "v": 33
    },
    {
      "midi": 63,
      "hit": false,
      "t": 146104.16666666704,
      "d": 296.875,
      "v": 48
    },
    {
      "midi": 51,
      "hit": false,
      "t": 146114.5833333337,
      "d": 364.58333333337214,
      "v": 33
    },
    {
      "midi": 69,
      "hit": false,
      "t": 146447.91666666704,
      "d": 62.500000000029104,
      "v": 33
    },
    {
      "midi": 66,
      "hit": false,
      "t": 146453.12500000038,
      "d": 52.083333333343035,
      "v": 48
    },
    {
      "midi": 75,
      "hit": false,
      "t": 146453.12500000038,
      "d": 125,
      "v": 64
    },
    {
      "midi": 54,
      "hit": false,
      "t": 146468.75000000038,
      "d": 62.5,
      "v": 56
    },
    {
      "midi": 63,
      "hit": false,
      "t": 146473.95833333372,
      "d": 46.875,
      "v": 64
    },
    {
      "midi": 60,
      "hit": false,
      "t": 146479.16666666706,
      "d": 72.91666666665697,
      "v": 16
    },
    {
      "midi": 90,
      "hit": false,
      "t": 146833.33333333372,
      "d": 249.9999999999709,
      "v": 70
    },
    {
      "midi": 75,
      "hit": false,
      "t": 146854.16666666706,
      "d": 72.91666666665697,
      "v": 41
    },
    {
      "midi": 78,
      "hit": false,
      "t": 146854.16666666706,
      "d": 72.91666666665697,
      "v": 41
    },
    {
      "midi": 81,
      "hit": false,
      "t": 146869.79166666706,
      "d": 67.70833333331393,
      "v": 36
    },
    {
      "midi": 72,
      "hit": false,
      "t": 146880.20833333372,
      "d": 67.70833333331393,
      "v": 30
    },
    {
      "midi": 66,
      "hit": false,
      "t": 146885.41666666706,
      "d": 124.9999999999709,
      "v": 32
    },
    {
      "midi": 78,
      "hit": false,
      "t": 147171.87500000035,
      "d": 135.41666666665697,
      "v": 44
    },
    {
      "midi": 87,
      "hit": false,
      "t": 147182.291666667,
      "d": 156.25,
      "v": 42
    },
    {
      "midi": 81,
      "hit": false,
      "t": 147197.916666667,
      "d": 72.91666666665697,
      "v": 39
    },
    {
      "midi": 72,
      "hit": false,
      "t": 147197.916666667,
      "d": 125,
      "v": 34
    },
    {
      "midi": 63,
      "hit": false,
      "t": 147208.33333333366,
      "d": 62.5,
      "v": 45
    },
    {
      "midi": 66,
      "hit": false,
      "t": 147218.75000000032,
      "d": 93.7500000000291,
      "v": 15
    },
    {
      "midi": 75,
      "hit": false,
      "t": 147541.666666667,
      "d": 57.291666666656965,
      "v": 29
    },
    {
      "midi": 78,
      "hit": false,
      "t": 147541.666666667,
      "d": 255.20833333331393,
      "v": 39
    },
    {
      "midi": 81,
      "hit": false,
      "t": 147546.87500000035,
      "d": 223.95833333331393,
      "v": 42
    },
    {
      "midi": 66,
      "hit": false,
      "t": 147557.291666667,
      "d": 151.04166666665697,
      "v": 25
    },
    {
      "midi": 72,
      "hit": false,
      "t": 147583.33333333366,
      "d": 57.291666666656965,
      "v": 38
    },
    {
      "midi": 46,
      "hit": false,
      "t": 147947.91666666698,
      "d": 182.29166666665697,
      "v": 22
    },
    {
      "midi": 34,
      "hit": false,
      "t": 147968.75000000032,
      "d": 125,
      "v": 33
    },
    {
      "midi": 70,
      "hit": false,
      "t": 148312.5000000003,
      "d": 161.45833333334303,
      "v": 40
    },
    {
      "midi": 62,
      "hit": false,
      "t": 148322.91666666695,
      "d": 83.33333333334303,
      "v": 27
    },
    {
      "midi": 58,
      "hit": false,
      "t": 148322.91666666695,
      "d": 130.20833333334303,
      "v": 32
    },
    {
      "midi": 65,
      "hit": false,
      "t": 148328.1250000003,
      "d": 88.54166666665697,
      "v": 19
    },
    {
      "midi": 50,
      "hit": false,
      "t": 148338.54166666695,
      "d": 98.95833333334303,
      "v": 26
    },
    {
      "midi": 53,
      "hit": false,
      "t": 148343.7500000003,
      "d": 78.125,
      "v": 27
    },
    {
      "midi": 65,
      "hit": false,
      "t": 148656.2500000003,
      "d": 41.66666666668607,
      "v": 52
    },
    {
      "midi": 74,
      "hit": false,
      "t": 148661.45833333363,
      "d": 72.91666666668607,
      "v": 49
    },
    {
      "midi": 70,
      "hit": false,
      "t": 148671.8750000003,
      "d": 57.29166666668607,
      "v": 33
    },
    {
      "midi": 62,
      "hit": false,
      "t": 148677.08333333363,
      "d": 67.70833333334303,
      "v": 30
    },
    {
      "midi": 58,
      "hit": false,
      "t": 148677.08333333363,
      "d": 78.125,
      "v": 15
    },
    {
      "midi": 89,
      "hit": false,
      "t": 149041.66666666698,
      "d": 213.54166666671517,
      "v": 58
    },
    {
      "midi": 82,
      "hit": false,
      "t": 149057.29166666698,
      "d": 78.1250000000291,
      "v": 31
    },
    {
      "midi": 77,
      "hit": false,
      "t": 149057.29166666698,
      "d": 119.79166666671517,
      "v": 38
    },
    {
      "midi": 74,
      "hit": false,
      "t": 149072.91666666698,
      "d": 57.29166666668607,
      "v": 42
    },
    {
      "midi": 65,
      "hit": false,
      "t": 149072.91666666698,
      "d": 78.1250000000291,
      "v": 20
    },
    {
      "midi": 70,
      "hit": false,
      "t": 149078.12500000032,
      "d": 78.1250000000291,
      "v": 19
    },
    {
      "midi": 70,
      "hit": false,
      "t": 149421.87500000035,
      "d": 171.8750000000291,
      "v": 30
    },
    {
      "midi": 86,
      "hit": false,
      "t": 149432.291666667,
      "d": 114.58333333337214,
      "v": 42
    },
    {
      "midi": 77,
      "hit": false,
      "t": 149437.50000000035,
      "d": 98.95833333334303,
      "v": 28
    },
    {
      "midi": 82,
      "hit": false,
      "t": 149442.7083333337,
      "d": 88.54166666665697,
      "v": 26
    },
    {
      "midi": 62,
      "hit": false,
      "t": 149442.7083333337,
      "d": 98.95833333334303,
      "v": 27
    },
    {
      "midi": 65,
      "hit": false,
      "t": 149442.7083333337,
      "d": 104.16666666668607,
      "v": 16
    },
    {
      "midi": 82,
      "hit": false,
      "t": 149817.70833333372,
      "d": 93.75,
      "v": 35
    },
    {
      "midi": 77,
      "hit": false,
      "t": 149833.33333333372,
      "d": 93.75,
      "v": 25
    },
    {
      "midi": 74,
      "hit": false,
      "t": 149843.75000000038,
      "d": 57.29166666668607,
      "v": 16
    },
    {
      "midi": 65,
      "hit": false,
      "t": 149843.75000000038,
      "d": 67.70833333334303,
      "v": 35
    },
    {
      "midi": 70,
      "hit": false,
      "t": 149848.95833333372,
      "d": 72.91666666665697,
      "v": 25
    },
    {
      "midi": 34,
      "hit": false,
      "t": 150203.12500000038,
      "d": 57.291666666656965,
      "v": 52
    },
    {
      "midi": 46,
      "hit": false,
      "t": 150229.16666666704,
      "d": 72.91666666665697,
      "v": 17
    },
    {
      "midi": 46,
      "hit": false,
      "t": 150557.29166666704,
      "d": 192.70833333334303,
      "v": 28
    },
    {
      "midi": 53,
      "hit": false,
      "t": 150572.91666666704,
      "d": 72.91666666668607,
      "v": 54
    },
    {
      "midi": 58,
      "hit": false,
      "t": 150572.91666666704,
      "d": 83.33333333334303,
      "v": 33
    },
    {
      "midi": 65,
      "hit": false,
      "t": 150578.12500000038,
      "d": 98.95833333334303,
      "v": 38
    },
    {
      "midi": 62,
      "hit": false,
      "t": 150583.33333333372,
      "d": 72.91666666665697,
      "v": 29
    },
    {
      "midi": 70,
      "hit": false,
      "t": 150885.41666666704,
      "d": 93.7499999999709,
      "v": 43
    },
    {
      "midi": 58,
      "hit": false,
      "t": 150895.8333333337,
      "d": 72.91666666665697,
      "v": 31
    },
    {
      "midi": 86,
      "hit": false,
      "t": 151255.20833333366,
      "d": 140.6250000000291,
      "v": 55
    },
    {
      "midi": 70,
      "hit": false,
      "t": 151265.62500000032,
      "d": 88.54166666668607,
      "v": 30
    },
    {
      "midi": 62,
      "hit": false,
      "t": 151276.04166666698,
      "d": 72.91666666668607,
      "v": 27
    },
    {
      "midi": 65,
      "hit": false,
      "t": 151281.25000000032,
      "d": 67.70833333334303,
      "v": 20
    },
    {
      "midi": 74,
      "hit": false,
      "t": 151286.45833333366,
      "d": 83.33333333334303,
      "v": 23
    },
    {
      "midi": 77,
      "hit": false,
      "t": 151286.45833333366,
      "d": 88.54166666668607,
      "v": 23
    },
    {
      "midi": 82,
      "hit": false,
      "t": 151614.5833333337,
      "d": 125,
      "v": 30
    },
    {
      "midi": 77,
      "hit": false,
      "t": 151625.00000000035,
      "d": 72.91666666668607,
      "v": 23
    },
    {
      "midi": 74,
      "hit": false,
      "t": 151630.2083333337,
      "d": 83.33333333334303,
      "v": 29
    },
    {
      "midi": 58,
      "hit": false,
      "t": 151630.2083333337,
      "d": 130.20833333334303,
      "v": 20
    },
    {
      "midi": 65,
      "hit": false,
      "t": 151661.4583333337,
      "d": 78.125,
      "v": 15
    },
    {
      "midi": 77,
      "hit": false,
      "t": 151994.79166666704,
      "d": 67.70833333334303,
      "v": 38
    },
    {
      "midi": 70,
      "hit": false,
      "t": 152000.00000000038,
      "d": 72.91666666665697,
      "v": 21
    },
    {
      "midi": 74,
      "hit": false,
      "t": 152000.00000000038,
      "d": 78.125,
      "v": 31
    },
    {
      "midi": 62,
      "hit": false,
      "t": 152010.41666666704,
      "d": 67.70833333334303,
      "v": 16
    },
    {
      "midi": 65,
      "hit": false,
      "t": 152010.41666666704,
      "d": 78.125,
      "v": 12
    },
    {
      "midi": 34,
      "hit": false,
      "t": 152354.16666666704,
      "d": 83.33333333334303,
      "v": 42
    },
    {
      "midi": 46,
      "hit": false,
      "t": 152359.37500000038,
      "d": 98.95833333334303,
      "v": 23
    },
    {
      "midi": 62,
      "hit": false,
      "t": 152734.37500000038,
      "d": 88.54166666668607,
      "v": 31
    },
    {
      "midi": 58,
      "hit": false,
      "t": 152739.58333333372,
      "d": 93.75,
      "v": 15
    },
    {
      "midi": 46,
      "hit": false,
      "t": 152755.20833333372,
      "d": 192.70833333334303,
      "v": 15
    },
    {
      "midi": 53,
      "hit": false,
      "t": 152760.41666666706,
      "d": 78.125,
      "v": 27
    },
    {
      "midi": 65,
      "hit": false,
      "t": 153093.7500000004,
      "d": 57.291666666656965,
      "v": 36
    },
    {
      "midi": 58,
      "hit": false,
      "t": 153093.7500000004,
      "d": 98.95833333331393,
      "v": 15
    },
    {
      "midi": 70,
      "hit": false,
      "t": 153473.95833333372,
      "d": 114.58333333334303,
      "v": 26
    },
    {
      "midi": 82,
      "hit": false,
      "t": 153479.16666666706,
      "d": 291.66666666665697,
      "v": 33
    },
    {
      "midi": 74,
      "hit": false,
      "t": 153484.3750000004,
      "d": 72.91666666665697,
      "v": 28
    },
    {
      "midi": 65,
      "hit": false,
      "t": 153494.79166666706,
      "d": 135.41666666665697,
      "v": 27
    },
    {
      "midi": 70,
      "hit": false,
      "t": 153869.79166666706,
      "d": 88.54166666668607,
      "v": 21
    },
    {
      "midi": 77,
      "hit": false,
      "t": 153890.6250000004,
      "d": 78.125,
      "v": 28
    },
    {
      "midi": 62,
      "hit": false,
      "t": 153890.6250000004,
      "d": 88.54166666665697,
      "v": 22
    },
    {
      "midi": 58,
      "hit": false,
      "t": 154218.7500000004,
      "d": 62.5,
      "v": 31
    },
    {
      "midi": 70,
      "hit": false,
      "t": 154239.58333333375,
      "d": 88.54166666665697,
      "v": 18
    },
    {
      "midi": 74,
      "hit": false,
      "t": 154265.6250000004,
      "d": 67.70833333334303,
      "v": 14
    },
    {
      "midi": 34,
      "hit": false,
      "t": 154604.1666666671,
      "d": 62.5,
      "v": 40
    },
    {
      "midi": 58,
      "hit": false,
      "t": 154921.87500000044,
      "d": 109.3750000000291,
      "v": 27
    },
    {
      "midi": 53,
      "hit": false,
      "t": 154927.08333333378,
      "d": 67.70833333334303,
      "v": 41
    },
    {
      "midi": 50,
      "hit": false,
      "t": 154958.33333333378,
      "d": 166.66666666668607,
      "v": 38
    },
    {
      "midi": 58,
      "hit": false,
      "t": 155265.62500000047,
      "d": 78.125,
      "v": 29
    },
    {
      "midi": 62,
      "hit": false,
      "t": 155270.8333333338,
      "d": 57.291666666656965,
      "v": 34
    },
    {
      "midi": 53,
      "hit": false,
      "t": 155302.0833333338,
      "d": 57.291666666656965,
      "v": 63
    },
    {
      "midi": 70,
      "hit": false,
      "t": 155640.62500000047,
      "d": 83.33333333331393,
      "v": 33
    },
    {
      "midi": 77,
      "hit": false,
      "t": 155640.62500000047,
      "d": 197.91666666665697,
      "v": 44
    },
    {
      "midi": 65,
      "hit": false,
      "t": 155666.66666666712,
      "d": 72.91666666665697,
      "v": 21
    },
    {
      "midi": 62,
      "hit": false,
      "t": 155666.66666666712,
      "d": 93.75,
      "v": 36
    },
    {
      "midi": 58,
      "hit": false,
      "t": 156000.00000000047,
      "d": 145.83333333331393,
      "v": 33
    },
    {
      "midi": 74,
      "hit": false,
      "t": 156020.8333333338,
      "d": 57.291666666656965,
      "v": 34
    },
    {
      "midi": 65,
      "hit": false,
      "t": 156036.4583333338,
      "d": 98.95833333331393,
      "v": 21
    },
    {
      "midi": 53,
      "hit": false,
      "t": 156421.87500000044,
      "d": 57.29166666668607,
      "v": 42
    },
    {
      "midi": 70,
      "hit": false,
      "t": 156427.08333333378,
      "d": 177.08333333334303,
      "v": 26
    },
    {
      "midi": 62,
      "hit": false,
      "t": 156447.91666666712,
      "d": 98.95833333334303,
      "v": 20
    },
    {
      "midi": 34,
      "hit": false,
      "t": 156833.33333333378,
      "d": 62.5,
      "v": 49
    },
    {
      "midi": 46,
      "hit": false,
      "t": 157208.33333333378,
      "d": 177.08333333334303,
      "v": 30
    },
    {
      "midi": 53,
      "hit": false,
      "t": 157213.54166666712,
      "d": 57.291666666656965,
      "v": 22
    },
    {
      "midi": 58,
      "hit": false,
      "t": 157583.33333333378,
      "d": 88.54166666665697,
      "v": 24
    },
    {
      "midi": 50,
      "hit": false,
      "t": 157593.75000000044,
      "d": 93.75,
      "v": 30
    },
    {
      "midi": 53,
      "hit": false,
      "t": 157614.58333333378,
      "d": 62.5,
      "v": 41
    },
    {
      "midi": 74,
      "hit": false,
      "t": 157958.33333333378,
      "d": 119.79166666665697,
      "v": 41
    },
    {
      "midi": 62,
      "hit": false,
      "t": 157963.54166666712,
      "d": 130.20833333331393,
      "v": 27
    },
    {
      "midi": 65,
      "hit": false,
      "t": 157973.95833333378,
      "d": 135.41666666665697,
      "v": 12
    },
    {
      "midi": 70,
      "hit": false,
      "t": 158348.95833333378,
      "d": 109.3749999999709,
      "v": 29
    },
    {
      "midi": 62,
      "hit": false,
      "t": 158375.00000000044,
      "d": 93.7499999999709,
      "v": 30
    },
    {
      "midi": 65,
      "hit": false,
      "t": 158385.4166666671,
      "d": 83.33333333331393,
      "v": 14
    },
    {
      "midi": 65,
      "hit": false,
      "t": 158755.20833333375,
      "d": 182.29166666665697,
      "v": 27
    },
    {
      "midi": 62,
      "hit": false,
      "t": 158770.83333333375,
      "d": 125,
      "v": 13
    },
    {
      "midi": 34,
      "hit": false,
      "t": 159109.3750000004,
      "d": 83.33333333334303,
      "v": 26
    },
    {
      "midi": 46,
      "hit": false,
      "t": 159505.20833333375,
      "d": 98.95833333334303,
      "v": 34
    },
    {
      "midi": 58,
      "hit": false,
      "t": 159911.45833333375,
      "d": 93.75,
      "v": 12
    },
    {
      "midi": 50,
      "hit": false,
      "t": 159916.6666666671,
      "d": 72.91666666665697,
      "v": 26
    },
    {
      "midi": 53,
      "hit": false,
      "t": 160333.33333333375,
      "d": 72.91666666668607,
      "v": 39
    },
    {
      "midi": 62,
      "hit": false,
      "t": 160338.5416666671,
      "d": 109.375,
      "v": 22
    },
    {
      "midi": 58,
      "hit": false,
      "t": 160739.58333333375,
      "d": 171.875,
      "v": 22
    },
    {
      "midi": 50,
      "hit": false,
      "t": 160796.8750000004,
      "d": 83.33333333334303,
      "v": 24
    },
    {
      "midi": 53,
      "hit": false,
      "t": 161312.5000000004,
      "d": 119.79166666665697,
      "v": 25
    },
    {
      "midi": 58,
      "hit": false,
      "t": 161947.91666666706,
      "d": 1093.749999999971,
      "v": 39
    },
    {
      "midi": 46,
      "hit": false,
      "t": 161979.16666666706,
      "d": 494.79166666665697,
      "v": 26
    },
    {
      "midi": 82,
      "hit": false,
      "t": 162328.1250000004,
      "d": 135.41666666665697,
      "v": 31
    },
    {
      "midi": 50,
      "hit": false,
      "t": 162572.91666666706,
      "d": 88.54166666665697,
      "v": 22
    },
    {
      "midi": 89,
      "hit": false,
      "t": 162588.54166666706,
      "d": 57.291666666656965,
      "v": 30
    },
    {
      "midi": 98,
      "hit": false,
      "t": 162786.45833333372,
      "d": 140.625,
      "v": 35
    },
    {
      "midi": 94,
      "hit": false,
      "t": 162942.70833333372,
      "d": 98.95833333331393,
      "v": 26
    },
    {
      "midi": 53,
      "hit": false,
      "t": 162968.75000000038,
      "d": 151.04166666665697,
      "v": 49
    },
    {
      "midi": 58,
      "hit": false,
      "t": 163260.41666666704,
      "d": 2218.7500000000873,
      "v": 32
    },
    {
      "midi": 77,
      "hit": false,
      "t": 163276.04166666704,
      "d": 119.79166666665697,
      "v": 41
    },
    {
      "midi": 86,
      "hit": false,
      "t": 163432.29166666704,
      "d": 114.58333333334303,
      "v": 41
    },
    {
      "midi": 82,
      "hit": false,
      "t": 163562.50000000038,
      "d": 130.20833333334303,
      "v": 43
    },
    {
      "midi": 53,
      "hit": false,
      "t": 163630.20833333372,
      "d": 78.125,
      "v": 28
    },
    {
      "midi": 74,
      "hit": false,
      "t": 163739.58333333372,
      "d": 52.083333333343035,
      "v": 46
    },
    {
      "midi": 70,
      "hit": false,
      "t": 163885.41666666706,
      "d": 369.79166666668607,
      "v": 44
    },
    {
      "midi": 50,
      "hit": false,
      "t": 163911.45833333372,
      "d": 67.70833333334303,
      "v": 32
    },
    {
      "midi": 62,
      "hit": false,
      "t": 164072.91666666706,
      "d": 67.70833333334303,
      "v": 55
    },
    {
      "midi": 43,
      "hit": false,
      "t": 164354.1666666671,
      "d": 182.29166666665697,
      "v": 28
    },
    {
      "midi": 82,
      "hit": false,
      "t": 164552.08333333375,
      "d": 187.5,
      "v": 38
    },
    {
      "midi": 88,
      "hit": false,
      "t": 164817.70833333375,
      "d": 98.95833333334303,
      "v": 40
    },
    {
      "midi": 50,
      "hit": false,
      "t": 164838.5416666671,
      "d": 72.91666666665697,
      "v": 30
    },
    {
      "midi": 98,
      "hit": false,
      "t": 165010.4166666671,
      "d": 140.625,
      "v": 54
    },
    {
      "midi": 94,
      "hit": false,
      "t": 165171.87500000044,
      "d": 109.375,
      "v": 51
    },
    {
      "midi": 52,
      "hit": false,
      "t": 165229.1666666671,
      "d": 88.54166666668607,
      "v": 16
    },
    {
      "midi": 86,
      "hit": false,
      "t": 165333.33333333378,
      "d": 46.875,
      "v": 63
    },
    {
      "midi": 76,
      "hit": false,
      "t": 165520.83333333378,
      "d": 114.58333333334303,
      "v": 26
    },
    {
      "midi": 57,
      "hit": false,
      "t": 165541.66666666712,
      "d": 463.54166666668607,
      "v": 70
    },
    {
      "midi": 86,
      "hit": false,
      "t": 165729.16666666712,
      "d": 171.875,
      "v": 49
    },
    {
      "midi": 82,
      "hit": false,
      "t": 165921.87500000047,
      "d": 140.625,
      "v": 27
    },
    {
      "midi": 52,
      "hit": false,
      "t": 165921.87500000047,
      "d": 250.0000000000291,
      "v": 39
    },
    {
      "midi": 74,
      "hit": false,
      "t": 166114.5833333338,
      "d": 62.500000000029104,
      "v": 55
    },
    {
      "midi": 58,
      "hit": false,
      "t": 166135.41666666715,
      "d": 333.33333333334303,
      "v": 75
    },
    {
      "midi": 70,
      "hit": false,
      "t": 166348.95833333384,
      "d": 369.79166666668607,
      "v": 36
    },
    {
      "midi": 62,
      "hit": false,
      "t": 166552.08333333384,
      "d": 62.5,
      "v": 50
    },
    {
      "midi": 41,
      "hit": false,
      "t": 166697.91666666718,
      "d": 52.083333333343035,
      "v": 52
    },
    {
      "midi": 62,
      "hit": false,
      "t": 166937.50000000052,
      "d": 1770.8333333332848,
      "v": 89
    },
    {
      "midi": 82,
      "hit": false,
      "t": 167161.45833333384,
      "d": 177.08333333334303,
      "v": 41
    },
    {
      "midi": 50,
      "hit": false,
      "t": 167354.16666666718,
      "d": 161.45833333334303,
      "v": 33
    },
    {
      "midi": 89,
      "hit": false,
      "t": 167369.79166666718,
      "d": 62.5,
      "v": 54
    },
    {
      "midi": 98,
      "hit": false,
      "t": 167531.25000000052,
      "d": 98.95833333334303,
      "v": 50
    },
    {
      "midi": 94,
      "hit": false,
      "t": 167671.87500000052,
      "d": 88.54166666665697,
      "v": 44
    },
    {
      "midi": 53,
      "hit": false,
      "t": 167697.91666666718,
      "d": 62.5,
      "v": 48
    },
    {
      "midi": 86,
      "hit": false,
      "t": 167833.33333333384,
      "d": 52.083333333343035,
      "v": 42
    },
    {
      "midi": 77,
      "hit": false,
      "t": 167984.37500000052,
      "d": 140.6249999999709,
      "v": 60
    },
    {
      "midi": 58,
      "hit": false,
      "t": 167994.79166666718,
      "d": 88.54166666665697,
      "v": 28
    },
    {
      "midi": 86,
      "hit": false,
      "t": 168135.41666666715,
      "d": 145.83333333334303,
      "v": 70
    },
    {
      "midi": 82,
      "hit": false,
      "t": 168317.70833333384,
      "d": 135.41666666665697,
      "v": 47
    },
    {
      "midi": 53,
      "hit": false,
      "t": 168343.7500000005,
      "d": 83.33333333334303,
      "v": 53
    },
    {
      "midi": 74,
      "hit": false,
      "t": 168500.0000000005,
      "d": 57.291666666656965,
      "v": 38
    },
    {
      "midi": 70,
      "hit": false,
      "t": 168661.4583333338,
      "d": 359.3750000000291,
      "v": 44
    },
    {
      "midi": 50,
      "hit": false,
      "t": 168703.12500000047,
      "d": 57.29166666668607,
      "v": 36
    },
    {
      "midi": 62,
      "hit": false,
      "t": 168869.79166666715,
      "d": 67.70833333334303,
      "v": 39
    },
    {
      "midi": 41,
      "hit": false,
      "t": 169098.95833333384,
      "d": 52.083333333343035,
      "v": 47
    },
    {
      "midi": 81,
      "hit": false,
      "t": 169333.33333333384,
      "d": 156.25,
      "v": 41
    },
    {
      "midi": 87,
      "hit": false,
      "t": 169515.6250000005,
      "d": 260.41666666665697,
      "v": 50
    },
    {
      "midi": 51,
      "hit": false,
      "t": 169541.66666666715,
      "d": 1041.666666666657,
      "v": 38
    },
    {
      "midi": 96,
      "hit": false,
      "t": 169703.1250000005,
      "d": 161.45833333331393,
      "v": 51
    },
    {
      "midi": 93,
      "hit": false,
      "t": 169869.79166666715,
      "d": 130.20833333331393,
      "v": 47
    },
    {
      "midi": 53,
      "hit": false,
      "t": 169895.8333333338,
      "d": 166.66666666665697,
      "v": 56
    },
    {
      "midi": 84,
      "hit": false,
      "t": 170052.0833333338,
      "d": 62.5,
      "v": 40
    },
    {
      "midi": 75,
      "hit": false,
      "t": 170218.75000000047,
      "d": 411.45833333334303,
      "v": 39
    },
    {
      "midi": 60,
      "hit": false,
      "t": 170239.5833333338,
      "d": 776.041666666657,
      "v": 62
    },
    {
      "midi": 57,
      "hit": false,
      "t": 170291.66666666715,
      "d": 395.83333333331393,
      "v": 24
    },
    {
      "midi": 84,
      "hit": false,
      "t": 170421.8750000005,
      "d": 151.04166666665697,
      "v": 49
    },
    {
      "midi": 53,
      "hit": false,
      "t": 170619.79166666715,
      "d": 67.70833333331393,
      "v": 64
    },
    {
      "midi": 81,
      "hit": false,
      "t": 170619.79166666715,
      "d": 151.04166666665697,
      "v": 33
    },
    {
      "midi": 72,
      "hit": false,
      "t": 170828.12500000047,
      "d": 62.5,
      "v": 44
    },
    {
      "midi": 69,
      "hit": false,
      "t": 171005.2083333338,
      "d": 317.70833333334303,
      "v": 30
    },
    {
      "midi": 51,
      "hit": false,
      "t": 171062.50000000047,
      "d": 62.5,
      "v": 17
    },
    {
      "midi": 63,
      "hit": false,
      "t": 171192.7083333338,
      "d": 67.70833333334303,
      "v": 50
    },
    {
      "midi": 43,
      "hit": false,
      "t": 171328.1250000005,
      "d": 468.7500000000291,
      "v": 47
    },
    {
      "midi": 58,
      "hit": false,
      "t": 171614.58333333384,
      "d": 692.708333333343,
      "v": 55
    },
    {
      "midi": 79,
      "hit": false,
      "t": 171973.95833333384,
      "d": 98.95833333334303,
      "v": 46
    },
    {
      "midi": 86,
      "hit": false,
      "t": 172182.29166666718,
      "d": 125,
      "v": 41
    },
    {
      "midi": 50,
      "hit": false,
      "t": 172197.91666666718,
      "d": 145.83333333334303,
      "v": 19
    },
    {
      "midi": 94,
      "hit": false,
      "t": 172338.54166666718,
      "d": 161.45833333334303,
      "v": 37
    },
    {
      "midi": 91,
      "hit": false,
      "t": 172526.04166666718,
      "d": 72.91666666665697,
      "v": 42
    },
    {
      "midi": 55,
      "hit": false,
      "t": 172541.66666666718,
      "d": 72.91666666665697,
      "v": 25
    },
    {
      "midi": 82,
      "hit": false,
      "t": 172651.04166666718,
      "d": 57.291666666656965,
      "v": 39
    },
    {
      "midi": 74,
      "hit": false,
      "t": 172822.91666666718,
      "d": 52.083333333343035,
      "v": 58
    },
    {
      "midi": 58,
      "hit": false,
      "t": 172838.54166666718,
      "d": 130.20833333334303,
      "v": 25
    },
    {
      "midi": 82,
      "hit": false,
      "t": 172958.33333333387,
      "d": 161.45833333331393,
      "v": 43
    },
    {
      "midi": 79,
      "hit": false,
      "t": 173145.83333333384,
      "d": 83.33333333334303,
      "v": 44
    },
    {
      "midi": 55,
      "hit": false,
      "t": 173166.66666666718,
      "d": 72.91666666665697,
      "v": 38
    },
    {
      "midi": 70,
      "hit": false,
      "t": 173270.83333333384,
      "d": 62.5,
      "v": 38
    },
    {
      "midi": 50,
      "hit": false,
      "t": 173520.83333333384,
      "d": 72.91666666665697,
      "v": 27
    },
    {
      "midi": 58,
      "hit": false,
      "t": 173692.70833333384,
      "d": 72.91666666665697,
      "v": 29
    },
    {
      "midi": 31,
      "hit": false,
      "t": 173916.66666666715,
      "d": 52.083333333343035,
      "v": 49
    },
    {
      "midi": 74,
      "hit": false,
      "t": 174265.6250000005,
      "d": 171.8749999999709,
      "v": 48
    },
    {
      "midi": 46,
      "hit": false,
      "t": 174328.1250000005,
      "d": 88.54166666665697,
      "v": 25
    },
    {
      "midi": 82,
      "hit": false,
      "t": 174427.0833333338,
      "d": 156.25,
      "v": 42
    },
    {
      "midi": 50,
      "hit": false,
      "t": 174598.9583333338,
      "d": 72.91666666668607,
      "v": 36
    },
    {
      "midi": 79,
      "hit": false,
      "t": 174604.16666666715,
      "d": 72.91666666668607,
      "v": 43
    },
    {
      "midi": 70,
      "hit": false,
      "t": 174744.79166666718,
      "d": 67.70833333334303,
      "v": 35
    },
    {
      "midi": 62,
      "hit": false,
      "t": 174942.70833333387,
      "d": 114.58333333334303,
      "v": 38
    },
    {
      "midi": 55,
      "hit": false,
      "t": 174968.75000000052,
      "d": 83.33333333334303,
      "v": 35
    },
    {
      "midi": 70,
      "hit": false,
      "t": 175098.95833333387,
      "d": 171.875,
      "v": 33
    },
    {
      "midi": 67,
      "hit": false,
      "t": 175296.87500000052,
      "d": 78.125,
      "v": 40
    },
    {
      "midi": 50,
      "hit": false,
      "t": 175328.12500000052,
      "d": 83.33333333334303,
      "v": 26
    },
    {
      "midi": 58,
      "hit": false,
      "t": 175447.9166666672,
      "d": 98.95833333334303,
      "v": 37
    },
    {
      "midi": 46,
      "hit": false,
      "t": 175687.50000000055,
      "d": 67.70833333334303,
      "v": 27
    },
    {
      "midi": 55,
      "hit": false,
      "t": 175687.50000000055,
      "d": 67.70833333334303,
      "v": 45
    },
    {
      "midi": 62,
      "hit": false,
      "t": 175921.87500000055,
      "d": 78.125,
      "v": 45
    },
    {
      "midi": 39,
      "hit": false,
      "t": 176093.75000000055,
      "d": 192.70833333334303,
      "v": 57
    },
    {
      "midi": 60,
      "hit": false,
      "t": 176427.0833333339,
      "d": 1921.874999999971,
      "v": 84
    },
    {
      "midi": 79,
      "hit": false,
      "t": 176671.87500000055,
      "d": 93.75,
      "v": 61
    },
    {
      "midi": 87,
      "hit": false,
      "t": 176869.7916666672,
      "d": 213.54166666665697,
      "v": 43
    },
    {
      "midi": 48,
      "hit": false,
      "t": 176916.6666666672,
      "d": 72.91666666665697,
      "v": 21
    },
    {
      "midi": 96,
      "hit": false,
      "t": 177062.50000000052,
      "d": 156.25,
      "v": 56
    },
    {
      "midi": 91,
      "hit": false,
      "t": 177223.95833333387,
      "d": 135.41666666665697,
      "v": 60
    },
    {
      "midi": 51,
      "hit": false,
      "t": 177234.37500000052,
      "d": 78.125,
      "v": 34
    },
    {
      "midi": 84,
      "hit": false,
      "t": 177359.37500000052,
      "d": 36.458333333343035,
      "v": 79
    },
    {
      "midi": 75,
      "hit": false,
      "t": 177520.83333333387,
      "d": 177.08333333334303,
      "v": 53
    },
    {
      "midi": 55,
      "hit": false,
      "t": 177546.87500000052,
      "d": 78.125,
      "v": 40
    },
    {
      "midi": 84,
      "hit": false,
      "t": 177692.70833333387,
      "d": 171.875,
      "v": 54
    },
    {
      "midi": 79,
      "hit": false,
      "t": 177869.7916666672,
      "d": 114.58333333334303,
      "v": 51
    },
    {
      "midi": 51,
      "hit": false,
      "t": 177890.62500000055,
      "d": 135.41666666665697,
      "v": 34
    },
    {
      "midi": 72,
      "hit": false,
      "t": 178041.6666666672,
      "d": 72.91666666665697,
      "v": 37
    },
    {
      "midi": 63,
      "hit": false,
      "t": 178229.1666666672,
      "d": 223.95833333331393,
      "v": 44
    },
    {
      "midi": 48,
      "hit": false,
      "t": 178307.2916666672,
      "d": 72.91666666665697,
      "v": 19
    },
    {
      "midi": 67,
      "hit": false,
      "t": 178421.87500000052,
      "d": 125,
      "v": 54
    },
    {
      "midi": 62,
      "hit": false,
      "t": 178546.87500000052,
      "d": 177.08333333331393,
      "v": 70
    },
    {
      "midi": 41,
      "hit": false,
      "t": 178666.66666666718,
      "d": 177.08333333334303,
      "v": 45
    },
    {
      "midi": 60,
      "hit": false,
      "t": 178729.16666666718,
      "d": 161.45833333334303,
      "v": 81
    },
    {
      "midi": 58,
      "hit": false,
      "t": 179005.20833333387,
      "d": 536.458333333343,
      "v": 59
    },
    {
      "midi": 77,
      "hit": false,
      "t": 179239.58333333387,
      "d": 67.70833333334303,
      "v": 29
    },
    {
      "midi": 48,
      "hit": false,
      "t": 179375.00000000055,
      "d": 78.125,
      "v": 41
    },
    {
      "midi": 87,
      "hit": false,
      "t": 179395.8333333339,
      "d": 177.08333333331393,
      "v": 50
    },
    {
      "midi": 96,
      "hit": false,
      "t": 179572.9166666672,
      "d": 109.375,
      "v": 73
    },
    {
      "midi": 57,
      "hit": false,
      "t": 179604.1666666672,
      "d": 447.91666666668607,
      "v": 74
    },
    {
      "midi": 89,
      "hit": false,
      "t": 179796.87500000055,
      "d": 67.70833333334303,
      "v": 43
    },
    {
      "midi": 51,
      "hit": false,
      "t": 179812.50000000055,
      "d": 67.70833333334303,
      "v": 46
    },
    {
      "midi": 81,
      "hit": false,
      "t": 179942.7083333339,
      "d": 57.291666666656965,
      "v": 51
    },
    {
      "midi": 75,
      "hit": false,
      "t": 180093.75000000055,
      "d": 557.2916666666861,
      "v": 53
    },
    {
      "midi": 55,
      "hit": false,
      "t": 180104.1666666672,
      "d": 531.2500000000291,
      "v": 66
    },
    {
      "midi": 84,
      "hit": false,
      "t": 180296.87500000055,
      "d": 114.58333333334303,
      "v": 61
    },
    {
      "midi": 51,
      "hit": false,
      "t": 180500.00000000055,
      "d": 83.33333333334303,
      "v": 43
    },
    {
      "midi": 77,
      "hit": false,
      "t": 180531.25000000055,
      "d": 83.33333333334303,
      "v": 15
    },
    {
      "midi": 69,
      "hit": false,
      "t": 180677.0833333339,
      "d": 192.70833333334303,
      "v": 41
    },
    {
      "midi": 57,
      "hit": false,
      "t": 180708.3333333339,
      "d": 494.79166666668607,
      "v": 51
    },
    {
      "midi": 63,
      "hit": false,
      "t": 180906.25000000058,
      "d": 223.95833333331393,
      "v": 41
    },
    {
      "midi": 48,
      "hit": false,
      "t": 181000.00000000058,
      "d": 57.291666666656965,
      "v": 48
    },
    {
      "midi": 65,
      "hit": false,
      "t": 181145.8333333339,
      "d": 52.083333333343035,
      "v": 43
    },
    {
      "midi": 58,
      "hit": false,
      "t": 181421.87500000058,
      "d": 869.7916666666279,
      "v": 50
    },
    {
      "midi": 46,
      "hit": false,
      "t": 181453.12500000058,
      "d": 322.91666666665697,
      "v": 29
    },
    {
      "midi": 77,
      "hit": false,
      "t": 181656.25000000058,
      "d": 67.70833333334303,
      "v": 45
    },
    {
      "midi": 86,
      "hit": false,
      "t": 181838.54166666724,
      "d": 286.45833333331393,
      "v": 39
    },
    {
      "midi": 50,
      "hit": false,
      "t": 181848.9583333339,
      "d": 98.95833333334303,
      "v": 28
    },
    {
      "midi": 94,
      "hit": false,
      "t": 182005.2083333339,
      "d": 151.04166666665697,
      "v": 33
    },
    {
      "midi": 53,
      "hit": false,
      "t": 182182.2916666672,
      "d": 83.33333333334303,
      "v": 55
    },
    {
      "midi": 89,
      "hit": false,
      "t": 182203.12500000055,
      "d": 72.91666666665697,
      "v": 36
    },
    {
      "midi": 82,
      "hit": false,
      "t": 182312.50000000055,
      "d": 52.083333333343035,
      "v": 37
    },
    {
      "midi": 74,
      "hit": false,
      "t": 182494.79166666724,
      "d": 62.5,
      "v": 52
    },
    {
      "midi": 58,
      "hit": false,
      "t": 182505.2083333339,
      "d": 427.08333333337214,
      "v": 30
    },
    {
      "midi": 82,
      "hit": false,
      "t": 182640.62500000058,
      "d": 171.875,
      "v": 42
    },
    {
      "midi": 77,
      "hit": false,
      "t": 182833.33333333393,
      "d": 57.29166666668607,
      "v": 42
    },
    {
      "midi": 53,
      "hit": false,
      "t": 182838.54166666727,
      "d": 67.70833333334303,
      "v": 53
    },
    {
      "midi": 70,
      "hit": false,
      "t": 182963.54166666727,
      "d": 57.291666666656965,
      "v": 41
    },
    {
      "midi": 50,
      "hit": false,
      "t": 183166.66666666727,
      "d": 62.5,
      "v": 35
    },
    {
      "midi": 65,
      "hit": false,
      "t": 183218.7500000006,
      "d": 62.5,
      "v": 32
    },
    {
      "midi": 34,
      "hit": false,
      "t": 183562.5000000006,
      "d": 83.33333333334303,
      "v": 43
    },
    {
      "midi": 65,
      "hit": false,
      "t": 183776.0416666673,
      "d": 78.125,
      "v": 53
    },
    {
      "midi": 74,
      "hit": false,
      "t": 184010.4166666673,
      "d": 62.5,
      "v": 46
    },
    {
      "midi": 46,
      "hit": false,
      "t": 184015.62500000064,
      "d": 630.2083333333139,
      "v": 27
    },
    {
      "midi": 82,
      "hit": false,
      "t": 184130.20833333395,
      "d": 182.29166666665697,
      "v": 46
    },
    {
      "midi": 77,
      "hit": false,
      "t": 184322.91666666727,
      "d": 67.70833333334303,
      "v": 41
    },
    {
      "midi": 53,
      "hit": false,
      "t": 184343.7500000006,
      "d": 83.33333333334303,
      "v": 45
    },
    {
      "midi": 70,
      "hit": false,
      "t": 184453.1250000006,
      "d": 52.083333333343035,
      "v": 46
    },
    {
      "midi": 62,
      "hit": false,
      "t": 184640.6250000006,
      "d": 484.3750000000291,
      "v": 92
    },
    {
      "midi": 58,
      "hit": false,
      "t": 184666.6666666673,
      "d": 114.58333333334303,
      "v": 37
    },
    {
      "midi": 70,
      "hit": false,
      "t": 184864.58333333398,
      "d": 187.5,
      "v": 36
    },
    {
      "midi": 65,
      "hit": false,
      "t": 185062.50000000064,
      "d": 255.20833333334303,
      "v": 35
    },
    {
      "midi": 50,
      "hit": false,
      "t": 185088.5416666673,
      "d": 88.54166666668607,
      "v": 20
    },
    {
      "midi": 58,
      "hit": false,
      "t": 185218.75000000064,
      "d": 119.79166666668607,
      "v": 34
    },
    {
      "midi": 53,
      "hit": false,
      "t": 185411.45833333398,
      "d": 114.58333333334303,
      "v": 70
    },
    {
      "midi": 62,
      "hit": false,
      "t": 185604.16666666733,
      "d": 57.291666666656965,
      "v": 35
    },
    {
      "midi": 46,
      "hit": false,
      "t": 185760.41666666733,
      "d": 130.20833333334303,
      "v": 43
    },
    {
      "midi": 62,
      "hit": false,
      "t": 185973.958333334,
      "d": 1578.125000000029,
      "v": 97
    },
    {
      "midi": 82,
      "hit": false,
      "t": 186218.75000000067,
      "d": 244.79166666665697,
      "v": 45
    },
    {
      "midi": 50,
      "hit": false,
      "t": 186453.12500000067,
      "d": 984.375,
      "v": 51
    },
    {
      "midi": 90,
      "hit": false,
      "t": 186463.54166666733,
      "d": 213.54166666668607,
      "v": 43
    },
    {
      "midi": 98,
      "hit": false,
      "t": 186640.62500000067,
      "d": 171.875,
      "v": 67
    },
    {
      "midi": 54,
      "hit": false,
      "t": 186802.083333334,
      "d": 328.1249999999709,
      "v": 46
    },
    {
      "midi": 94,
      "hit": false,
      "t": 186812.50000000067,
      "d": 140.625,
      "v": 45
    },
    {
      "midi": 86,
      "hit": false,
      "t": 186963.54166666733,
      "d": 46.875,
      "v": 60
    },
    {
      "midi": 78,
      "hit": false,
      "t": 187114.58333333398,
      "d": 213.54166666668607,
      "v": 62
    },
    {
      "midi": 58,
      "hit": false,
      "t": 187135.41666666733,
      "d": 421.8750000000582,
      "v": 33
    },
    {
      "midi": 86,
      "hit": false,
      "t": 187281.25000000067,
      "d": 156.25,
      "v": 57
    },
    {
      "midi": 82,
      "hit": false,
      "t": 187442.708333334,
      "d": 104.16666666668607,
      "v": 42
    },
    {
      "midi": 54,
      "hit": false,
      "t": 187447.91666666736,
      "d": 260.41666666668607,
      "v": 48
    },
    {
      "midi": 74,
      "hit": false,
      "t": 187604.16666666738,
      "d": 46.875,
      "v": 59
    },
    {
      "midi": 60,
      "hit": false,
      "t": 187739.58333333404,
      "d": 197.91666666665697,
      "v": 79
    },
    {
      "midi": 70,
      "hit": false,
      "t": 187770.83333333404,
      "d": 348.95833333331393,
      "v": 55
    },
    {
      "midi": 50,
      "hit": false,
      "t": 187796.8750000007,
      "d": 62.5,
      "v": 46
    },
    {
      "midi": 58,
      "hit": false,
      "t": 187984.3750000007,
      "d": 109.375,
      "v": 79
    },
    {
      "midi": 62,
      "hit": false,
      "t": 188000.0000000007,
      "d": 46.875,
      "v": 66
    },
    {
      "midi": 46,
      "hit": false,
      "t": 188182.29166666736,
      "d": 401.04166666668607,
      "v": 72
    },
    {
      "midi": 57,
      "hit": false,
      "t": 188312.5000000007,
      "d": 630.208333333343,
      "v": 89
    },
    {
      "midi": 82,
      "hit": false,
      "t": 188531.2500000007,
      "d": 145.83333333334303,
      "v": 55
    },
    {
      "midi": 50,
      "hit": false,
      "t": 188739.58333333404,
      "d": 994.7916666666861,
      "v": 54
    },
    {
      "midi": 91,
      "hit": false,
      "t": 188750.0000000007,
      "d": 260.41666666668607,
      "v": 64
    },
    {
      "midi": 98,
      "hit": false,
      "t": 188906.2500000007,
      "d": 192.70833333337214,
      "v": 75
    },
    {
      "midi": 55,
      "hit": false,
      "t": 189015.62500000073,
      "d": 328.1250000000291,
      "v": 83
    },
    {
      "midi": 94,
      "hit": false,
      "t": 189083.33333333407,
      "d": 140.625,
      "v": 48
    },
    {
      "midi": 86,
      "hit": false,
      "t": 189244.7916666674,
      "d": 52.083333333343035,
      "v": 49
    },
    {
      "midi": 79,
      "hit": false,
      "t": 189416.6666666674,
      "d": 468.75,
      "v": 60
    },
    {
      "midi": 62,
      "hit": false,
      "t": 189468.75000000076,
      "d": 723.958333333343,
      "v": 98
    },
    {
      "midi": 58,
      "hit": false,
      "t": 189500.00000000076,
      "d": 510.41666666665697,
      "v": 39
    },
    {
      "midi": 86,
      "hit": false,
      "t": 189645.83333333407,
      "d": 203.125,
      "v": 46
    },
    {
      "midi": 55,
      "hit": false,
      "t": 189822.91666666738,
      "d": 93.7500000000291,
      "v": 39
    },
    {
      "midi": 82,
      "hit": false,
      "t": 189828.12500000073,
      "d": 135.41666666668607,
      "v": 40
    },
    {
      "midi": 74,
      "hit": false,
      "t": 190010.4166666674,
      "d": 52.083333333343035,
      "v": 49
    },
    {
      "midi": 70,
      "hit": false,
      "t": 190187.50000000076,
      "d": 505.20833333334303,
      "v": 40
    },
    {
      "midi": 50,
      "hit": false,
      "t": 190203.12500000076,
      "d": 57.291666666656965,
      "v": 43
    },
    {
      "midi": 64,
      "hit": false,
      "t": 190406.25000000076,
      "d": 52.083333333343035,
      "v": 97
    },
    {
      "midi": 45,
      "hit": false,
      "t": 190692.7083333341,
      "d": 62.5,
      "v": 41
    },
    {
      "midi": 62,
      "hit": false,
      "t": 190864.5833333341,
      "d": 1895.833333333343,
      "v": 95
    },
    {
      "midi": 82,
      "hit": false,
      "t": 191098.9583333341,
      "d": 234.375,
      "v": 33
    },
    {
      "midi": 52,
      "hit": false,
      "t": 191312.50000000076,
      "d": 489.58333333334303,
      "v": 47
    },
    {
      "midi": 91,
      "hit": false,
      "t": 191317.7083333341,
      "d": 213.54166666665697,
      "v": 57
    },
    {
      "midi": 98,
      "hit": false,
      "t": 191489.5833333341,
      "d": 166.66666666665697,
      "v": 66
    },
    {
      "midi": 55,
      "hit": false,
      "t": 191671.87500000076,
      "d": 83.33333333334303,
      "v": 35
    },
    {
      "midi": 94,
      "hit": false,
      "t": 191671.87500000076,
      "d": 88.54166666668607,
      "v": 33
    },
    {
      "midi": 86,
      "hit": false,
      "t": 191802.0833333341,
      "d": 57.291666666656965,
      "v": 47
    },
    {
      "midi": 58,
      "hit": false,
      "t": 191979.1666666674,
      "d": 78.125,
      "v": 38
    },
    {
      "midi": 79,
      "hit": false,
      "t": 191979.1666666674,
      "d": 166.66666666665697,
      "v": 51
    },
    {
      "midi": 86,
      "hit": false,
      "t": 192156.25000000073,
      "d": 166.66666666665697,
      "v": 48
    },
    {
      "midi": 55,
      "hit": false,
      "t": 192328.12500000073,
      "d": 72.91666666668607,
      "v": 36
    },
    {
      "midi": 82,
      "hit": false,
      "t": 192333.33333333407,
      "d": 93.75,
      "v": 34
    },
    {
      "midi": 74,
      "hit": false,
      "t": 192526.0416666674,
      "d": 52.083333333343035,
      "v": 11
    },
    {
      "midi": 52,
      "hit": false,
      "t": 192677.0833333341,
      "d": 62.5,
      "v": 36
    },
    {
      "midi": 70,
      "hit": false,
      "t": 192677.0833333341,
      "d": 140.625,
      "v": 27
    },
    {
      "midi": 62,
      "hit": false,
      "t": 192895.8333333341,
      "d": 208.33333333331393,
      "v": 26
    },
    {
      "midi": 45,
      "hit": false,
      "t": 193010.4166666674,
      "d": 93.75,
      "v": 41
    },
    {
      "midi": 61,
      "hit": false,
      "t": 193260.4166666674,
      "d": 1218.75,
      "v": 54
    },
    {
      "midi": 81,
      "hit": false,
      "t": 193536.45833333407,
      "d": 187.5,
      "v": 39
    },
    {
      "midi": 49,
      "hit": false,
      "t": 193718.75000000073,
      "d": 234.3750000000291,
      "v": 27
    },
    {
      "midi": 88,
      "hit": false,
      "t": 193729.1666666674,
      "d": 187.5,
      "v": 43
    },
    {
      "midi": 97,
      "hit": false,
      "t": 193901.0416666674,
      "d": 88.54166666668607,
      "v": 54
    },
    {
      "midi": 93,
      "hit": false,
      "t": 194078.12500000076,
      "d": 104.16666666665697,
      "v": 42
    },
    {
      "midi": 52,
      "hit": false,
      "t": 194104.1666666674,
      "d": 62.5,
      "v": 25
    },
    {
      "midi": 85,
      "hit": false,
      "t": 194213.5416666674,
      "d": 46.875,
      "v": 55
    },
    {
      "midi": 57,
      "hit": false,
      "t": 194416.6666666674,
      "d": 781.2500000000582,
      "v": 74
    },
    {
      "midi": 76,
      "hit": false,
      "t": 194427.08333333407,
      "d": 463.5416666667152,
      "v": 47
    },
    {
      "midi": 85,
      "hit": false,
      "t": 194609.37500000076,
      "d": 114.58333333334303,
      "v": 44
    },
    {
      "midi": 81,
      "hit": false,
      "t": 194791.66666666744,
      "d": 93.75,
      "v": 33
    },
    {
      "midi": 52,
      "hit": false,
      "t": 194812.5000000008,
      "d": 125,
      "v": 34
    },
    {
      "midi": 73,
      "hit": false,
      "t": 194953.1250000008,
      "d": 52.083333333343035,
      "v": 41
    },
    {
      "midi": 49,
      "hit": false,
      "t": 195161.45833333413,
      "d": 83.33333333334303,
      "v": 33
    },
    {
      "midi": 69,
      "hit": false,
      "t": 195203.12500000081,
      "d": 322.91666666665697,
      "v": 18
    },
    {
      "midi": 61,
      "hit": false,
      "t": 195406.25000000081,
      "d": 145.83333333331393,
      "v": 53
    },
    {
      "midi": 42,
      "hit": false,
      "t": 195520.83333333413,
      "d": 93.75,
      "v": 53
    },
    {
      "midi": 60,
      "hit": false,
      "t": 195848.95833333413,
      "d": 1697.9166666667152,
      "v": 85
    },
    {
      "midi": 81,
      "hit": false,
      "t": 196114.58333333413,
      "d": 109.375,
      "v": 49
    },
    {
      "midi": 48,
      "hit": false,
      "t": 196296.8750000008,
      "d": 213.54166666665697,
      "v": 22
    },
    {
      "midi": 87,
      "hit": false,
      "t": 196307.29166666744,
      "d": 203.125,
      "v": 39
    },
    {
      "midi": 96,
      "hit": false,
      "t": 196468.7500000008,
      "d": 119.79166666665697,
      "v": 50
    },
    {
      "midi": 93,
      "hit": false,
      "t": 196625.0000000008,
      "d": 119.79166666668607,
      "v": 40
    },
    {
      "midi": 51,
      "hit": false,
      "t": 196630.20833333413,
      "d": 78.125,
      "v": 32
    },
    {
      "midi": 84,
      "hit": false,
      "t": 196791.66666666747,
      "d": 46.875,
      "v": 57
    },
    {
      "midi": 57,
      "hit": false,
      "t": 196968.75000000081,
      "d": 104.16666666668607,
      "v": 31
    },
    {
      "midi": 75,
      "hit": false,
      "t": 196973.95833333416,
      "d": 161.45833333334303,
      "v": 37
    },
    {
      "midi": 84,
      "hit": false,
      "t": 197156.25000000084,
      "d": 166.66666666665697,
      "v": 51
    },
    {
      "midi": 51,
      "hit": false,
      "t": 197343.75000000084,
      "d": 192.70833333334303,
      "v": 34
    },
    {
      "midi": 81,
      "hit": false,
      "t": 197359.37500000084,
      "d": 114.58333333334303,
      "v": 36
    },
    {
      "midi": 72,
      "hit": false,
      "t": 197557.2916666675,
      "d": 62.5,
      "v": 36
    },
    {
      "midi": 48,
      "hit": false,
      "t": 197750.00000000084,
      "d": 72.91666666665697,
      "v": 28
    },
    {
      "midi": 69,
      "hit": false,
      "t": 197750.00000000084,
      "d": 260.41666666665697,
      "v": 29
    },
    {
      "midi": 58,
      "hit": false,
      "t": 197979.1666666675,
      "d": 72.91666666668607,
      "v": 59
    },
    {
      "midi": 63,
      "hit": false,
      "t": 197989.58333333416,
      "d": 41.66666666668607,
      "v": 57
    },
    {
      "midi": 42,
      "hit": false,
      "t": 198197.91666666753,
      "d": 67.70833333334303,
      "v": 39
    },
    {
      "midi": 57,
      "hit": false,
      "t": 198468.75000000087,
      "d": 614.583333333343,
      "v": 71
    },
    {
      "midi": 81,
      "hit": false,
      "t": 198739.58333333422,
      "d": 52.083333333343035,
      "v": 58
    },
    {
      "midi": 96,
      "hit": false,
      "t": 198947.91666666756,
      "d": 239.58333333331393,
      "v": 80
    },
    {
      "midi": 60,
      "hit": false,
      "t": 198953.1250000009,
      "d": 286.45833333331393,
      "v": 77
    },
    {
      "midi": 51,
      "hit": false,
      "t": 198979.16666666756,
      "d": 572.916666666657,
      "v": 40
    },
    {
      "midi": 84,
      "hit": false,
      "t": 199161.45833333422,
      "d": 46.875,
      "v": 73
    },
    {
      "midi": 62,
      "hit": false,
      "t": 199333.33333333422,
      "d": 234.3750000000291,
      "v": 81
    },
    {
      "midi": 98,
      "hit": false,
      "t": 199338.54166666756,
      "d": 223.95833333334303,
      "v": 85
    },
    {
      "midi": 54,
      "hit": false,
      "t": 199348.95833333422,
      "d": 203.125,
      "v": 48
    },
    {
      "midi": 57,
      "hit": false,
      "t": 199359.37500000087,
      "d": 197.91666666668607,
      "v": 42
    },
    {
      "midi": 86,
      "hit": false,
      "t": 199531.25000000087,
      "d": 78.1250000000291,
      "v": 64
    },
    {
      "midi": 99,
      "hit": false,
      "t": 199770.83333333425,
      "d": 322.91666666668607,
      "v": 54
    },
    {
      "midi": 63,
      "hit": false,
      "t": 199786.45833333425,
      "d": 328.1250000000291,
      "v": 52
    },
    {
      "midi": 57,
      "hit": false,
      "t": 199822.9166666676,
      "d": 218.75,
      "v": 35
    },
    {
      "midi": 54,
      "hit": false,
      "t": 199833.33333333425,
      "d": 223.95833333334303,
      "v": 29
    },
    {
      "midi": 87,
      "hit": false,
      "t": 200072.9166666676,
      "d": 119.79166666668607,
      "v": 35
    },
    {
      "midi": 96,
      "hit": false,
      "t": 200317.70833333427,
      "d": 151.04166666668607,
      "v": 48
    },
    {
      "midi": 60,
      "hit": false,
      "t": 200317.70833333427,
      "d": 229.16666666668607,
      "v": 59
    },
    {
      "midi": 51,
      "hit": false,
      "t": 200354.16666666762,
      "d": 119.79166666668607,
      "v": 37
    },
    {
      "midi": 54,
      "hit": false,
      "t": 200354.16666666762,
      "d": 369.79166666668607,
      "v": 25
    },
    {
      "midi": 84,
      "hit": false,
      "t": 200562.50000000096,
      "d": 114.58333333334303,
      "v": 43
    },
    {
      "midi": 57,
      "hit": false,
      "t": 200739.5833333343,
      "d": 197.91666666668607,
      "v": 46
    },
    {
      "midi": 93,
      "hit": false,
      "t": 200755.2083333343,
      "d": 239.58333333334303,
      "v": 40
    },
    {
      "midi": 48,
      "hit": false,
      "t": 200770.8333333343,
      "d": 83.33333333334303,
      "v": 25
    },
    {
      "midi": 51,
      "hit": false,
      "t": 200776.04166666765,
      "d": 83.33333333334303,
      "v": 24
    },
    {
      "midi": 81,
      "hit": false,
      "t": 200984.375000001,
      "d": 114.58333333331393,
      "v": 38
    },
    {
      "midi": 43,
      "hit": false,
      "t": 201098.9583333343,
      "d": 567.7083333333721,
      "v": 22
    },
    {
      "midi": 58,
      "hit": false,
      "t": 201354.16666666765,
      "d": 583.3333333333721,
      "v": 44
    },
    {
      "midi": 82,
      "hit": false,
      "t": 201614.58333333433,
      "d": 213.54166666668607,
      "v": 38
    },
    {
      "midi": 46,
      "hit": false,
      "t": 201781.25000000102,
      "d": 218.75,
      "v": 28
    },
    {
      "midi": 86,
      "hit": false,
      "t": 201822.91666666768,
      "d": 114.58333333334303,
      "v": 37
    },
    {
      "midi": 94,
      "hit": false,
      "t": 201979.16666666768,
      "d": 161.45833333334303,
      "v": 37
    },
    {
      "midi": 50,
      "hit": false,
      "t": 202140.62500000102,
      "d": 72.91666666665697,
      "v": 34
    },
    {
      "midi": 91,
      "hit": false,
      "t": 202166.66666666768,
      "d": 72.91666666665697,
      "v": 35
    },
    {
      "midi": 82,
      "hit": false,
      "t": 202286.45833333433,
      "d": 57.291666666656965,
      "v": 37
    },
    {
      "midi": 74,
      "hit": false,
      "t": 202458.33333333433,
      "d": 62.5,
      "v": 39
    },
    {
      "midi": 55,
      "hit": false,
      "t": 202468.750000001,
      "d": 93.75,
      "v": 39
    },
    {
      "midi": 82,
      "hit": false,
      "t": 202604.16666666765,
      "d": 104.16666666665697,
      "v": 36
    },
    {
      "midi": 79,
      "hit": false,
      "t": 202781.25000000096,
      "d": 72.91666666665697,
      "v": 39
    },
    {
      "midi": 50,
      "hit": false,
      "t": 202781.25000000096,
      "d": 93.75,
      "v": 35
    },
    {
      "midi": 70,
      "hit": false,
      "t": 202916.66666666762,
      "d": 72.91666666665697,
      "v": 30
    },
    {
      "midi": 46,
      "hit": false,
      "t": 203109.37500000093,
      "d": 72.91666666665697,
      "v": 25
    },
    {
      "midi": 67,
      "hit": false,
      "t": 203119.7916666676,
      "d": 98.95833333334303,
      "v": 48
    },
    {
      "midi": 58,
      "hit": false,
      "t": 203348.95833333427,
      "d": 57.291666666656965,
      "v": 49
    },
    {
      "midi": 31,
      "hit": false,
      "t": 203557.2916666676,
      "d": 41.666666666656965,
      "v": 76
    },
    {
      "midi": 82,
      "hit": false,
      "t": 203765.6250000009,
      "d": 130.20833333334303,
      "v": 60
    },
    {
      "midi": 88,
      "hit": false,
      "t": 203958.33333333425,
      "d": 119.79166666665697,
      "v": 63
    },
    {
      "midi": 50,
      "hit": false,
      "t": 204015.6250000009,
      "d": 567.708333333343,
      "v": 46
    },
    {
      "midi": 98,
      "hit": false,
      "t": 204125.0000000009,
      "d": 145.83333333334303,
      "v": 76
    },
    {
      "midi": 94,
      "hit": false,
      "t": 204286.45833333425,
      "d": 140.625,
      "v": 46
    },
    {
      "midi": 52,
      "hit": false,
      "t": 204307.2916666676,
      "d": 218.75,
      "v": 65
    },
    {
      "midi": 86,
      "hit": false,
      "t": 204442.70833333425,
      "d": 46.875,
      "v": 57
    },
    {
      "midi": 76,
      "hit": false,
      "t": 204640.6250000009,
      "d": 119.79166666665697,
      "v": 55
    },
    {
      "midi": 62,
      "hit": false,
      "t": 204687.5000000009,
      "d": 453.125,
      "v": 99
    },
    {
      "midi": 58,
      "hit": false,
      "t": 204729.16666666756,
      "d": 93.75,
      "v": 45
    },
    {
      "midi": 86,
      "hit": false,
      "t": 204843.7500000009,
      "d": 166.66666666665697,
      "v": 48
    },
    {
      "midi": 82,
      "hit": false,
      "t": 205015.6250000009,
      "d": 93.75,
      "v": 42
    },
    {
      "midi": 52,
      "hit": false,
      "t": 205046.8750000009,
      "d": 161.45833333331393,
      "v": 59
    },
    {
      "midi": 74,
      "hit": false,
      "t": 205197.91666666756,
      "d": 52.08333333331393,
      "v": 45
    },
    {
      "midi": 50,
      "hit": false,
      "t": 205458.33333333422,
      "d": 67.70833333334303,
      "v": 50
    },
    {
      "midi": 70,
      "hit": false,
      "t": 205458.33333333422,
      "d": 151.04166666668607,
      "v": 45
    },
    {
      "midi": 60,
      "hit": false,
      "t": 205750.0000000009,
      "d": 265.625,
      "v": 94
    },
    {
      "midi": 64,
      "hit": false,
      "t": 205833.33333333422,
      "d": 72.91666666665697,
      "v": 15
    },
    {
      "midi": 45,
      "hit": false,
      "t": 205927.08333333422,
      "d": 182.29166666668607,
      "v": 54
    },
    {
      "midi": 60,
      "hit": false,
      "t": 206239.58333333425,
      "d": 1572.9166666666279,
      "v": 91
    },
    {
      "midi": 81,
      "hit": false,
      "t": 206489.58333333425,
      "d": 62.5,
      "v": 38
    },
    {
      "midi": 89,
      "hit": false,
      "t": 206666.6666666676,
      "d": 171.875,
      "v": 52
    },
    {
      "midi": 48,
      "hit": false,
      "t": 206682.2916666676,
      "d": 93.75,
      "v": 32
    },
    {
      "midi": 96,
      "hit": false,
      "t": 206838.5416666676,
      "d": 119.79166666665697,
      "v": 53
    },
    {
      "midi": 93,
      "hit": false,
      "t": 207000.0000000009,
      "d": 93.75,
      "v": 44
    },
    {
      "midi": 53,
      "hit": false,
      "t": 207010.41666666756,
      "d": 93.75,
      "v": 51
    },
    {
      "midi": 84,
      "hit": false,
      "t": 207166.66666666756,
      "d": 52.083333333343035,
      "v": 62
    },
    {
      "midi": 57,
      "hit": false,
      "t": 207354.16666666756,
      "d": 72.91666666665697,
      "v": 36
    },
    {
      "midi": 77,
      "hit": false,
      "t": 207354.16666666756,
      "d": 156.25,
      "v": 45
    },
    {
      "midi": 84,
      "hit": false,
      "t": 207510.41666666756,
      "d": 182.29166666665697,
      "v": 62
    },
    {
      "midi": 81,
      "hit": false,
      "t": 207697.91666666756,
      "d": 88.54166666665697,
      "v": 43
    },
    {
      "midi": 53,
      "hit": false,
      "t": 207708.33333333422,
      "d": 88.54166666665697,
      "v": 48
    },
    {
      "midi": 72,
      "hit": false,
      "t": 207885.41666666753,
      "d": 78.125,
      "v": 31
    },
    {
      "midi": 57,
      "hit": false,
      "t": 208052.0833333342,
      "d": 114.58333333331393,
      "v": 68
    },
    {
      "midi": 69,
      "hit": false,
      "t": 208062.50000000084,
      "d": 557.291666666657,
      "v": 42
    },
    {
      "midi": 48,
      "hit": false,
      "t": 208072.9166666675,
      "d": 62.5,
      "v": 32
    },
    {
      "midi": 60,
      "hit": false,
      "t": 208307.2916666675,
      "d": 250,
      "v": 42
    },
    {
      "midi": 38,
      "hit": false,
      "t": 208437.50000000084,
      "d": 104.16666666665697,
      "v": 65
    },
    {
      "midi": 55,
      "hit": false,
      "t": 208723.95833333416,
      "d": 270.83333333334303,
      "v": 87
    },
    {
      "midi": 65,
      "hit": false,
      "t": 209000.00000000084,
      "d": 187.5,
      "v": 49
    },
    {
      "midi": 59,
      "hit": false,
      "t": 209250.00000000084,
      "d": 203.1250000000291,
      "v": 83
    },
    {
      "midi": 67,
      "hit": false,
      "t": 209255.2083333342,
      "d": 161.45833333334303,
      "v": 58
    },
    {
      "midi": 55,
      "hit": false,
      "t": 209276.04166666753,
      "d": 62.5,
      "v": 61
    },
    {
      "midi": 50,
      "hit": false,
      "t": 209281.25000000087,
      "d": 140.625,
      "v": 54
    },
    {
      "midi": 71,
      "hit": false,
      "t": 209479.16666666753,
      "d": 145.83333333334303,
      "v": 66
    },
    {
      "midi": 62,
      "hit": false,
      "t": 209645.83333333422,
      "d": 197.91666666668607,
      "v": 84
    },
    {
      "midi": 77,
      "hit": false,
      "t": 209651.04166666756,
      "d": 36.458333333343035,
      "v": 79
    },
    {
      "midi": 55,
      "hit": false,
      "t": 209671.8750000009,
      "d": 46.875,
      "v": 55
    },
    {
      "midi": 53,
      "hit": false,
      "t": 209697.91666666756,
      "d": 62.5,
      "v": 32
    },
    {
      "midi": 77,
      "hit": false,
      "t": 209843.7500000009,
      "d": 130.20833333334303,
      "v": 68
    },
    {
      "midi": 79,
      "hit": false,
      "t": 210046.8750000009,
      "d": 161.45833333334303,
      "v": 69
    },
    {
      "midi": 65,
      "hit": false,
      "t": 210062.5000000009,
      "d": 223.95833333334303,
      "v": 77
    },
    {
      "midi": 59,
      "hit": false,
      "t": 210088.54166666756,
      "d": 364.58333333334303,
      "v": 49
    },
    {
      "midi": 55,
      "hit": false,
      "t": 210093.7500000009,
      "d": 182.29166666668607,
      "v": 32
    },
    {
      "midi": 83,
      "hit": false,
      "t": 210333.33333333425,
      "d": 161.45833333331393,
      "v": 85
    },
    {
      "midi": 89,
      "hit": false,
      "t": 210515.6250000009,
      "d": 46.875,
      "v": 71
    },
    {
      "midi": 62,
      "hit": false,
      "t": 210515.6250000009,
      "d": 109.3750000000291,
      "v": 82
    },
    {
      "midi": 55,
      "hit": false,
      "t": 210531.2500000009,
      "d": 52.083333333343035,
      "v": 54
    },
    {
      "midi": 53,
      "hit": false,
      "t": 210546.8750000009,
      "d": 57.29166666668607,
      "v": 51
    },
    {
      "midi": 89,
      "hit": false,
      "t": 210718.75000000093,
      "d": 182.29166666665697,
      "v": 75
    },
    {
      "midi": 101,
      "hit": false,
      "t": 210953.12500000093,
      "d": 57.291666666656965,
      "v": 48
    },
    {
      "midi": 59,
      "hit": false,
      "t": 210963.5416666676,
      "d": 98.95833333334303,
      "v": 74
    },
    {
      "midi": 55,
      "hit": false,
      "t": 210989.58333333425,
      "d": 52.083333333343035,
      "v": 54
    },
    {
      "midi": 50,
      "hit": false,
      "t": 211005.20833333425,
      "d": 62.500000000029104,
      "v": 37
    },
    {
      "midi": 91,
      "hit": false,
      "t": 211244.79166666762,
      "d": 83.33333333331393,
      "v": 57
    },
    {
      "midi": 89,
      "hit": false,
      "t": 211255.20833333427,
      "d": 57.291666666656965,
      "v": 39
    },
    {
      "midi": 36,
      "hit": false,
      "t": 211338.5416666676,
      "d": 57.291666666656965,
      "v": 48
    },
    {
      "midi": 101,
      "hit": false,
      "t": 211473.95833333425,
      "d": 161.45833333334303,
      "v": 51
    },
    {
      "midi": 60,
      "hit": false,
      "t": 211588.5416666676,
      "d": 1979.1666666667734,
      "v": 79
    },
    {
      "midi": 93,
      "hit": false,
      "t": 211781.25000000093,
      "d": 244.79166666668607,
      "v": 48
    },
    {
      "midi": 89,
      "hit": false,
      "t": 211802.08333333427,
      "d": 218.75,
      "v": 35
    },
    {
      "midi": 101,
      "hit": false,
      "t": 211994.79166666762,
      "d": 223.95833333334303,
      "v": 60
    },
    {
      "midi": 48,
      "hit": false,
      "t": 212010.41666666762,
      "d": 255.20833333334303,
      "v": 42
    },
    {
      "midi": 94,
      "hit": false,
      "t": 212187.50000000096,
      "d": 187.5,
      "v": 58
    },
    {
      "midi": 91,
      "hit": false,
      "t": 212197.91666666762,
      "d": 140.625,
      "v": 54
    },
    {
      "midi": 101,
      "hit": false,
      "t": 212375.00000000096,
      "d": 140.625,
      "v": 63
    },
    {
      "midi": 53,
      "hit": false,
      "t": 212395.8333333343,
      "d": 93.75,
      "v": 66
    },
    {
      "midi": 92,
      "hit": false,
      "t": 212536.4583333343,
      "d": 140.625,
      "v": 67
    },
    {
      "midi": 95,
      "hit": false,
      "t": 212552.0833333343,
      "d": 239.58333333334303,
      "v": 59
    },
    {
      "midi": 101,
      "hit": false,
      "t": 212713.54166666765,
      "d": 203.125,
      "v": 71
    },
    {
      "midi": 57,
      "hit": false,
      "t": 212739.5833333343,
      "d": 140.625,
      "v": 50
    },
    {
      "midi": 93,
      "hit": false,
      "t": 212901.04166666765,
      "d": 468.7500000000291,
      "v": 53
    },
    {
      "midi": 96,
      "hit": false,
      "t": 212906.250000001,
      "d": 223.95833333334303,
      "v": 77
    },
    {
      "midi": 101,
      "hit": false,
      "t": 213093.750000001,
      "d": 208.33333333334303,
      "v": 57
    },
    {
      "midi": 53,
      "hit": false,
      "t": 213098.95833333433,
      "d": 72.91666666665697,
      "v": 68
    },
    {
      "midi": 94,
      "hit": false,
      "t": 213286.45833333433,
      "d": 265.6250000000291,
      "v": 49
    },
    {
      "midi": 98,
      "hit": false,
      "t": 213296.875000001,
      "d": 213.54166666668607,
      "v": 64
    },
    {
      "midi": 101,
      "hit": false,
      "t": 213505.20833333433,
      "d": 156.2500000000291,
      "v": 47
    },
    {
      "midi": 48,
      "hit": false,
      "t": 213531.25000000102,
      "d": 72.91666666668607,
      "v": 31
    },
    {
      "midi": 96,
      "hit": false,
      "t": 213729.1666666677,
      "d": 119.79166666665697,
      "v": 50
    },
    {
      "midi": 93,
      "hit": false,
      "t": 213739.58333333436,
      "d": 125,
      "v": 44
    },
    {
      "midi": 36,
      "hit": false,
      "t": 213973.95833333436,
      "d": 78.125,
      "v": 32
    },
    {
      "midi": 84,
      "hit": false,
      "t": 214197.9166666677,
      "d": 208.33333333334303,
      "v": 22
    },
    {
      "midi": 94,
      "hit": false,
      "t": 214442.7083333344,
      "d": 354.16666666665697,
      "v": 35
    },
    {
      "midi": 55,
      "hit": false,
      "t": 214468.75000000105,
      "d": 333.33333333334303,
      "v": 57
    },
    {
      "midi": 48,
      "hit": false,
      "t": 214494.7916666677,
      "d": 463.5416666667152,
      "v": 29
    },
    {
      "midi": 100,
      "hit": false,
      "t": 214703.12500000105,
      "d": 119.79166666668607,
      "v": 37
    },
    {
      "midi": 96,
      "hit": false,
      "t": 214921.87500000108,
      "d": 83.33333333334303,
      "v": 25
    },
    {
      "midi": 57,
      "hit": false,
      "t": 214921.87500000108,
      "d": 364.58333333334303,
      "v": 52
    },
    {
      "midi": 52,
      "hit": false,
      "t": 215020.83333333442,
      "d": 109.375,
      "v": 9
    },
    {
      "midi": 88,
      "hit": false,
      "t": 215098.95833333442,
      "d": 72.91666666665697,
      "v": 36
    },
    {
      "midi": 58,
      "hit": false,
      "t": 215296.87500000108,
      "d": 286.45833333334303,
      "v": 44
    },
    {
      "midi": 82,
      "hit": false,
      "t": 215296.87500000108,
      "d": 651.0416666666861,
      "v": 33
    },
    {
      "midi": 55,
      "hit": false,
      "t": 215343.75000000108,
      "d": 265.625,
      "v": 19
    },
    {
      "midi": 88,
      "hit": false,
      "t": 215541.66666666776,
      "d": 390.625,
      "v": 36
    },
    {
      "midi": 60,
      "hit": false,
      "t": 215656.25000000108,
      "d": 83.33333333334303,
      "v": 38
    },
    {
      "midi": 58,
      "hit": false,
      "t": 215822.91666666776,
      "d": 93.75,
      "v": 29
    },
    {
      "midi": 84,
      "hit": false,
      "t": 215947.91666666776,
      "d": 229.16666666665697,
      "v": 30
    },
    {
      "midi": 57,
      "hit": false,
      "t": 216005.20833333442,
      "d": 463.54166666665697,
      "v": 48
    },
    {
      "midi": 52,
      "hit": false,
      "t": 216057.29166666773,
      "d": 83.33333333334303,
      "v": 32
    },
    {
      "midi": 76,
      "hit": false,
      "t": 216260.41666666776,
      "d": 72.91666666665697,
      "v": 27
    },
    {
      "midi": 55,
      "hit": false,
      "t": 216489.58333333442,
      "d": 187.5,
      "v": 48
    },
    {
      "midi": 72,
      "hit": false,
      "t": 216489.58333333442,
      "d": 473.95833333334303,
      "v": 35
    },
    {
      "midi": 46,
      "hit": false,
      "t": 216505.20833333442,
      "d": 203.125,
      "v": 29
    },
    {
      "midi": 64,
      "hit": false,
      "t": 216786.45833333442,
      "d": 125,
      "v": 33
    },
    {
      "midi": 41,
      "hit": false,
      "t": 216963.54166666776,
      "d": 406.2499999999709,
      "v": 33
    },
    {
      "midi": 45,
      "hit": false,
      "t": 217036.45833333442,
      "d": 369.79166666665697,
      "v": 29
    },
    {
      "midi": 53,
      "hit": false,
      "t": 217177.08333333442,
      "d": 333.33333333331393,
      "v": 77
    },
    {
      "midi": 72,
      "hit": false,
      "t": 217453.12500000108,
      "d": 140.625,
      "v": 42
    },
    {
      "midi": 81,
      "hit": false,
      "t": 217677.08333333442,
      "d": 270.83333333334303,
      "v": 55
    },
    {
      "midi": 48,
      "hit": false,
      "t": 217729.16666666776,
      "d": 218.75,
      "v": 24
    },
    {
      "midi": 89,
      "hit": false,
      "t": 217854.16666666776,
      "d": 156.25,
      "v": 48
    },
    {
      "midi": 84,
      "hit": false,
      "t": 218052.08333333442,
      "d": 62.5,
      "v": 39
    },
    {
      "midi": 53,
      "hit": false,
      "t": 218088.54166666776,
      "d": 83.33333333331393,
      "v": 30
    },
    {
      "midi": 77,
      "hit": false,
      "t": 218192.70833333442,
      "d": 93.75,
      "v": 36
    },
    {
      "midi": 72,
      "hit": false,
      "t": 218390.62500000108,
      "d": 98.95833333331393,
      "v": 39
    },
    {
      "midi": 57,
      "hit": false,
      "t": 218401.04166666773,
      "d": 171.875,
      "v": 21
    },
    {
      "midi": 81,
      "hit": false,
      "t": 218536.4583333344,
      "d": 98.95833333334303,
      "v": 46
    },
    {
      "midi": 77,
      "hit": false,
      "t": 218734.37500000108,
      "d": 62.5,
      "v": 42
    },
    {
      "midi": 53,
      "hit": false,
      "t": 218755.20833333442,
      "d": 72.91666666665697,
      "v": 40
    },
    {
      "midi": 69,
      "hit": false,
      "t": 218895.83333333442,
      "d": 62.5,
      "v": 41
    },
    {
      "midi": 48,
      "hit": false,
      "t": 219067.70833333442,
      "d": 62.5,
      "v": 28
    },
    {
      "midi": 60,
      "hit": false,
      "t": 219114.58333333442,
      "d": 98.95833333334303,
      "v": 18
    },
    {
      "midi": 69,
      "hit": false,
      "t": 219286.45833333442,
      "d": 515.625,
      "v": 32
    },
    {
      "midi": 41,
      "hit": false,
      "t": 219416.66666666776,
      "d": 67.70833333334303,
      "v": 40
    },
    {
      "midi": 48,
      "hit": false,
      "t": 219666.66666666776,
      "d": 72.91666666665697,
      "v": 36
    },
    {
      "midi": 57,
      "hit": false,
      "t": 219828.12500000108,
      "d": 72.91666666665697,
      "v": 30
    },
    {
      "midi": 65,
      "hit": false,
      "t": 220031.25000000108,
      "d": 83.33333333334303,
      "v": 11
    },
    {
      "midi": 60,
      "hit": false,
      "t": 220218.75000000108,
      "d": 72.91666666665697,
      "v": 22
    },
    {
      "midi": 53,
      "hit": false,
      "t": 220369.79166666773,
      "d": 140.625,
      "v": 46
    },
    {
      "midi": 65,
      "hit": false,
      "t": 220588.54166666773,
      "d": 765.6250000000291,
      "v": 82
    },
    {
      "midi": 48,
      "hit": false,
      "t": 220609.37500000108,
      "d": 67.70833333334303,
      "v": 24
    },
    {
      "midi": 57,
      "hit": false,
      "t": 220807.29166666776,
      "d": 104.16666666665697,
      "v": 37
    },
    {
      "midi": 45,
      "hit": false,
      "t": 221166.66666666776,
      "d": 114.58333333334303,
      "v": 40
    },
    {
      "midi": 41,
      "hit": false,
      "t": 221406.2500000011,
      "d": 72.91666666665697,
      "v": 26
    },
    {
      "midi": 41,
      "hit": false,
      "t": 221661.45833333442,
      "d": 62.5,
      "v": 48
    },
    {
      "midi": 65,
      "hit": false,
      "t": 221755.20833333442,
      "d": 125,
      "v": 83
    },
    {
      "midi": 53,
      "hit": false,
      "t": 221770.83333333442,
      "d": 46.875,
      "v": 76
    },
    {
      "midi": 29,
      "hit": false,
      "t": 221932.29166666776,
      "d": 255.20833333331393,
      "v": 43
    },
    {
      "midi": 72,
      "hit": false,
      "t": 222119.79166666776,
      "d": 380.2083333332848,
      "v": 94
    },
    {
      "midi": 60,
      "hit": false,
      "t": 222145.83333333442,
      "d": 218.7499999999709,
      "v": 57
    },
    {
      "midi": 41,
      "hit": false,
      "t": 222197.91666666773,
      "d": 57.291666666656965,
      "v": 56
    },
    {
      "midi": 63,
      "hit": false,
      "t": 222453.12500000105,
      "d": 41.666666666656965,
      "v": 62
    },
    {
      "midi": 69,
      "hit": false,
      "t": 222463.5416666677,
      "d": 57.29166666668607,
      "v": 42
    },
    {
      "midi": 60,
      "hit": false,
      "t": 222703.12500000105,
      "d": 119.79166666668607,
      "v": 43
    },
    {
      "midi": 72,
      "hit": false,
      "t": 222718.75000000105,
      "d": 83.33333333334303,
      "v": 65
    },
    {
      "midi": 53,
      "hit": false,
      "t": 222755.2083333344,
      "d": 182.29166666665697,
      "v": 56
    },
    {
      "midi": 57,
      "hit": false,
      "t": 222770.8333333344,
      "d": 52.083333333343035,
      "v": 6
    },
    {
      "midi": 75,
      "hit": false,
      "t": 222911.4583333344,
      "d": 52.08333333331393,
      "v": 48
    },
    {
      "midi": 81,
      "hit": false,
      "t": 222921.87500000105,
      "d": 46.875,
      "v": 58
    },
    {
      "midi": 65,
      "hit": false,
      "t": 223104.1666666677,
      "d": 57.291666666656965,
      "v": 40
    },
    {
      "midi": 84,
      "hit": false,
      "t": 223114.58333333436,
      "d": 62.5,
      "v": 71
    },
    {
      "midi": 87,
      "hit": false,
      "t": 223270.83333333436,
      "d": 46.875,
      "v": 48
    },
    {
      "midi": 93,
      "hit": false,
      "t": 223276.0416666677,
      "d": 46.875,
      "v": 61
    },
    {
      "midi": 72,
      "hit": false,
      "t": 223447.9166666677,
      "d": 52.083333333343035,
      "v": 46
    },
    {
      "midi": 65,
      "hit": false,
      "t": 223468.75000000105,
      "d": 72.91666666665697,
      "v": 25
    },
    {
      "midi": 93,
      "hit": false,
      "t": 223609.37500000105,
      "d": 151.04166666665697,
      "v": 49
    },
    {
      "midi": 87,
      "hit": false,
      "t": 223609.37500000105,
      "d": 171.875,
      "v": 44
    },
    {
      "midi": 84,
      "hit": false,
      "t": 223791.6666666677,
      "d": 41.666666666656965,
      "v": 65
    },
    {
      "midi": 69,
      "hit": false,
      "t": 223791.6666666677,
      "d": 62.499999999970896,
      "v": 36
    },
    {
      "midi": 60,
      "hit": false,
      "t": 223843.75000000102,
      "d": 52.08333333331393,
      "v": 9
    },
    {
      "midi": 75,
      "hit": false,
      "t": 223958.33333333433,
      "d": 62.5,
      "v": 48
    },
    {
      "midi": 81,
      "hit": false,
      "t": 223963.54166666768,
      "d": 57.291666666656965,
      "v": 46
    },
    {
      "midi": 65,
      "hit": false,
      "t": 224260.41666666768,
      "d": 52.083333333343035,
      "v": 52
    },
    {
      "midi": 72,
      "hit": false,
      "t": 224265.62500000102,
      "d": 302.08333333334303,
      "v": 91
    },
    {
      "midi": 57,
      "hit": false,
      "t": 224281.25000000102,
      "d": 62.5,
      "v": 40
    },
    {
      "midi": 60,
      "hit": false,
      "t": 224296.87500000102,
      "d": 78.125,
      "v": 26
    },
    {
      "midi": 63,
      "hit": false,
      "t": 224510.41666666768,
      "d": 135.41666666668607,
      "v": 42
    },
    {
      "midi": 69,
      "hit": false,
      "t": 224531.25000000102,
      "d": 177.08333333334303,
      "v": 36
    },
    {
      "midi": 72,
      "hit": false,
      "t": 224744.7916666677,
      "d": 296.875,
      "v": 101
    },
    {
      "midi": 60,
      "hit": false,
      "t": 224760.4166666677,
      "d": 67.70833333334303,
      "v": 71
    },
    {
      "midi": 29,
      "hit": false,
      "t": 224765.62500000105,
      "d": 67.70833333334303,
      "v": 41
    },
    {
      "midi": 63,
      "hit": false,
      "t": 224989.5833333344,
      "d": 52.08333333331393,
      "v": 48
    },
    {
      "midi": 69,
      "hit": false,
      "t": 225015.62500000105,
      "d": 67.70833333331393,
      "v": 38
    },
    {
      "midi": 60,
      "hit": false,
      "t": 225229.1666666677,
      "d": 119.79166666665697,
      "v": 45
    },
    {
      "midi": 57,
      "hit": false,
      "t": 225239.58333333436,
      "d": 72.91666666665697,
      "v": 39
    },
    {
      "midi": 72,
      "hit": false,
      "t": 225281.25000000102,
      "d": 72.91666666668607,
      "v": 11
    },
    {
      "midi": 74,
      "hit": false,
      "t": 225281.25000000102,
      "d": 72.91666666668607,
      "v": 19
    },
    {
      "midi": 53,
      "hit": false,
      "t": 225296.87500000102,
      "d": 171.875,
      "v": 46
    },
    {
      "midi": 75,
      "hit": false,
      "t": 225411.45833333436,
      "d": 57.291666666656965,
      "v": 42
    },
    {
      "midi": 81,
      "hit": false,
      "t": 225427.08333333436,
      "d": 46.875,
      "v": 52
    },
    {
      "midi": 65,
      "hit": false,
      "t": 225583.33333333436,
      "d": 57.291666666656965,
      "v": 51
    },
    {
      "midi": 57,
      "hit": false,
      "t": 225593.75000000102,
      "d": 67.70833333334303,
      "v": 35
    },
    {
      "midi": 84,
      "hit": false,
      "t": 225609.37500000102,
      "d": 57.29166666668607,
      "v": 68
    },
    {
      "midi": 93,
      "hit": false,
      "t": 225770.83333333436,
      "d": 46.874999999970896,
      "v": 62
    },
    {
      "midi": 71,
      "hit": false,
      "t": 225781.25000000102,
      "d": 57.291666666656965,
      "v": 91
    },
    {
      "midi": 87,
      "hit": false,
      "t": 225781.25000000102,
      "d": 67.70833333331393,
      "v": 22
    },
    {
      "midi": 59,
      "hit": false,
      "t": 225807.29166666768,
      "d": 57.291666666656965,
      "v": 46
    },
    {
      "midi": 101,
      "hit": false,
      "t": 225958.33333333433,
      "d": 41.666666666656965,
      "v": 77
    },
    {
      "midi": 72,
      "hit": false,
      "t": 226010.41666666765,
      "d": 213.54166666668607,
      "v": 98
    },
    {
      "midi": 60,
      "hit": false,
      "t": 226031.250000001,
      "d": 213.54166666668607,
      "v": 79
    },
    {
      "midi": 93,
      "hit": false,
      "t": 226161.45833333433,
      "d": 156.25,
      "v": 56
    },
    {
      "midi": 87,
      "hit": false,
      "t": 226161.45833333433,
      "d": 161.45833333334303,
      "v": 55
    },
    {
      "midi": 84,
      "hit": false,
      "t": 226348.95833333433,
      "d": 52.083333333343035,
      "v": 55
    },
    {
      "midi": 69,
      "hit": false,
      "t": 226348.95833333433,
      "d": 62.500000000029104,
      "v": 40
    },
    {
      "midi": 65,
      "hit": false,
      "t": 226354.16666666768,
      "d": 52.083333333343035,
      "v": 49
    },
    {
      "midi": 81,
      "hit": false,
      "t": 226531.25000000102,
      "d": 125,
      "v": 11
    },
    {
      "midi": 72,
      "hit": false,
      "t": 226708.33333333436,
      "d": 72.91666666668607,
      "v": 37
    },
    {
      "midi": 65,
      "hit": false,
      "t": 226713.5416666677,
      "d": 46.875,
      "v": 49
    },
    {
      "midi": 57,
      "hit": false,
      "t": 226723.95833333436,
      "d": 57.29166666668607,
      "v": 48
    },
    {
      "midi": 60,
      "hit": false,
      "t": 226729.1666666677,
      "d": 62.5,
      "v": 43
    },
    {
      "midi": 74,
      "hit": false,
      "t": 226963.5416666677,
      "d": 125.0000000000291,
      "v": 103
    },
    {
      "midi": 62,
      "hit": false,
      "t": 226984.37500000105,
      "d": 52.083333333343035,
      "v": 74
    },
    {
      "midi": 29,
      "hit": false,
      "t": 227177.08333333442,
      "d": 57.291666666656965,
      "v": 61
    },
    {
      "midi": 72,
      "hit": false,
      "t": 227208.33333333442,
      "d": 145.83333333331393,
      "v": 101
    },
    {
      "midi": 60,
      "hit": false,
      "t": 227244.79166666773,
      "d": 119.79166666665697,
      "v": 72
    },
    {
      "midi": 41,
      "hit": false,
      "t": 227255.2083333344,
      "d": 52.083333333343035,
      "v": 49
    },
    {
      "midi": 65,
      "hit": false,
      "t": 227463.54166666773,
      "d": 46.875,
      "v": 65
    },
    {
      "midi": 62,
      "hit": false,
      "t": 227484.37500000108,
      "d": 67.70833333331393,
      "v": 24
    },
    {
      "midi": 58,
      "hit": false,
      "t": 227656.25000000105,
      "d": 135.41666666665697,
      "v": 46
    },
    {
      "midi": 72,
      "hit": false,
      "t": 227677.0833333344,
      "d": 83.33333333331393,
      "v": 25
    },
    {
      "midi": 50,
      "hit": false,
      "t": 227687.50000000105,
      "d": 83.33333333331393,
      "v": 43
    },
    {
      "midi": 74,
      "hit": false,
      "t": 227822.9166666677,
      "d": 62.5,
      "v": 27
    },
    {
      "midi": 77,
      "hit": false,
      "t": 227833.33333333436,
      "d": 36.458333333343035,
      "v": 63
    },
    {
      "midi": 62,
      "hit": false,
      "t": 228010.4166666677,
      "d": 145.83333333334303,
      "v": 85
    },
    {
      "midi": 84,
      "hit": false,
      "t": 228015.62500000105,
      "d": 78.125,
      "v": 69
    },
    {
      "midi": 58,
      "hit": false,
      "t": 228031.25000000105,
      "d": 62.5,
      "v": 38
    },
    {
      "midi": 89,
      "hit": false,
      "t": 228187.50000000105,
      "d": 57.29166666668607,
      "v": 58
    },
    {
      "midi": 86,
      "hit": false,
      "t": 228223.9583333344,
      "d": 57.29166666668607,
      "v": 15
    },
    {
      "midi": 101,
      "hit": false,
      "t": 228401.04166666773,
      "d": 36.458333333343035,
      "v": 75
    },
    {
      "midi": 70,
      "hit": false,
      "t": 228453.12500000108,
      "d": 171.8749999999709,
      "v": 81
    },
    {
      "midi": 58,
      "hit": false,
      "t": 228479.16666666773,
      "d": 93.75,
      "v": 33
    },
    {
      "midi": 94,
      "hit": false,
      "t": 228598.9583333344,
      "d": 156.25,
      "v": 58
    },
    {
      "midi": 89,
      "hit": false,
      "t": 228614.5833333344,
      "d": 109.375,
      "v": 45
    },
    {
      "midi": 62,
      "hit": false,
      "t": 228791.66666666773,
      "d": 57.29166666668607,
      "v": 36
    },
    {
      "midi": 65,
      "hit": false,
      "t": 228796.87500000108,
      "d": 67.70833333334303,
      "v": 47
    },
    {
      "midi": 86,
      "hit": false,
      "t": 228802.08333333442,
      "d": 62.5,
      "v": 41
    },
    {
      "midi": 82,
      "hit": false,
      "t": 228937.50000000108,
      "d": 119.79166666665697,
      "v": 51
    },
    {
      "midi": 77,
      "hit": false,
      "t": 229000.00000000108,
      "d": 72.91666666665697,
      "v": 4
    },
    {
      "midi": 62,
      "hit": false,
      "t": 229114.5833333344,
      "d": 46.875,
      "v": 57
    },
    {
      "midi": 74,
      "hit": false,
      "t": 229125.00000000105,
      "d": 46.875,
      "v": 62
    },
    {
      "midi": 58,
      "hit": false,
      "t": 229125.00000000105,
      "d": 57.291666666656965,
      "v": 37
    },
    {
      "midi": 70,
      "hit": false,
      "t": 229281.25000000105,
      "d": 166.66666666665697,
      "v": 56
    },
    {
      "midi": 65,
      "hit": false,
      "t": 229291.6666666677,
      "d": 62.5,
      "v": 49
    },
    {
      "midi": 29,
      "hit": false,
      "t": 229520.83333333436,
      "d": 67.70833333334303,
      "v": 44
    },
    {
      "midi": 62,
      "hit": false,
      "t": 229520.83333333436,
      "d": 67.70833333334303,
      "v": 54
    },
    {
      "midi": 41,
      "hit": false,
      "t": 229552.08333333436,
      "d": 72.91666666668607,
      "v": 31
    },
    {
      "midi": 70,
      "hit": false,
      "t": 229718.75000000105,
      "d": 46.875,
      "v": 53
    },
    {
      "midi": 74,
      "hit": false,
      "t": 229890.62500000105,
      "d": 52.08333333331393,
      "v": 69
    },
    {
      "midi": 58,
      "hit": false,
      "t": 229890.62500000105,
      "d": 114.58333333331393,
      "v": 47
    },
    {
      "midi": 53,
      "hit": false,
      "t": 229932.2916666677,
      "d": 67.70833333331393,
      "v": 41
    },
    {
      "midi": 50,
      "hit": false,
      "t": 229932.2916666677,
      "d": 130.20833333331393,
      "v": 40
    },
    {
      "midi": 82,
      "hit": false,
      "t": 230046.87500000102,
      "d": 52.083333333343035,
      "v": 65
    },
    {
      "midi": 86,
      "hit": false,
      "t": 230203.12500000102,
      "d": 151.04166666668607,
      "v": 74
    },
    {
      "midi": 53,
      "hit": false,
      "t": 230208.33333333436,
      "d": 46.875,
      "v": 68
    },
    {
      "midi": 62,
      "hit": false,
      "t": 230208.33333333436,
      "d": 67.70833333334303,
      "v": 67
    },
    {
      "midi": 58,
      "hit": false,
      "t": 230218.75000000102,
      "d": 52.083333333343035,
      "v": 43
    },
    {
      "midi": 94,
      "hit": false,
      "t": 230364.58333333436,
      "d": 67.70833333334303,
      "v": 61
    },
    {
      "midi": 89,
      "hit": false,
      "t": 230380.20833333436,
      "d": 62.5,
      "v": 41
    },
    {
      "midi": 101,
      "hit": false,
      "t": 230557.2916666677,
      "d": 41.666666666656965,
      "v": 70
    },
    {
      "midi": 70,
      "hit": false,
      "t": 230562.50000000105,
      "d": 182.29166666665697,
      "v": 95
    },
    {
      "midi": 58,
      "hit": false,
      "t": 230572.9166666677,
      "d": 88.54166666665697,
      "v": 52
    },
    {
      "midi": 89,
      "hit": false,
      "t": 230729.1666666677,
      "d": 130.20833333334303,
      "v": 69
    },
    {
      "midi": 86,
      "hit": false,
      "t": 230906.25000000105,
      "d": 52.083333333343035,
      "v": 46
    },
    {
      "midi": 62,
      "hit": false,
      "t": 230911.4583333344,
      "d": 52.083333333343035,
      "v": 49
    },
    {
      "midi": 65,
      "hit": false,
      "t": 230911.4583333344,
      "d": 93.75,
      "v": 64
    },
    {
      "midi": 77,
      "hit": false,
      "t": 231072.91666666773,
      "d": 83.33333333334303,
      "v": 14
    },
    {
      "midi": 74,
      "hit": false,
      "t": 231223.95833333442,
      "d": 52.083333333343035,
      "v": 47
    },
    {
      "midi": 62,
      "hit": false,
      "t": 231244.79166666776,
      "d": 46.875,
      "v": 57
    },
    {
      "midi": 58,
      "hit": false,
      "t": 231250.0000000011,
      "d": 52.08333333331393,
      "v": 39
    },
    {
      "midi": 70,
      "hit": false,
      "t": 231385.41666666776,
      "d": 197.91666666668607,
      "v": 41
    },
    {
      "midi": 65,
      "hit": false,
      "t": 231406.2500000011,
      "d": 244.79166666668607,
      "v": 34
    },
    {
      "midi": 72,
      "hit": false,
      "t": 231687.50000000114,
      "d": 333.33333333334303,
      "v": 105
    },
    {
      "midi": 29,
      "hit": false,
      "t": 231713.5416666678,
      "d": 36.458333333343035,
      "v": 83
    },
    {
      "midi": 60,
      "hit": false,
      "t": 231713.5416666678,
      "d": 62.5,
      "v": 69
    },
    {
      "midi": 41,
      "hit": false,
      "t": 231718.75000000114,
      "d": 57.291666666656965,
      "v": 76
    },
    {
      "midi": 63,
      "hit": false,
      "t": 231937.50000000114,
      "d": 41.66666666668607,
      "v": 62
    },
    {
      "midi": 69,
      "hit": false,
      "t": 231958.33333333448,
      "d": 52.083333333343035,
      "v": 53
    },
    {
      "midi": 72,
      "hit": false,
      "t": 232145.83333333448,
      "d": 62.499999999970896,
      "v": 68
    },
    {
      "midi": 60,
      "hit": false,
      "t": 232145.83333333448,
      "d": 83.33333333331393,
      "v": 55
    },
    {
      "midi": 57,
      "hit": false,
      "t": 232156.25000000114,
      "d": 57.291666666656965,
      "v": 40
    },
    {
      "midi": 53,
      "hit": false,
      "t": 232166.6666666678,
      "d": 161.45833333331393,
      "v": 77
    },
    {
      "midi": 75,
      "hit": false,
      "t": 232302.08333333445,
      "d": 52.08333333331393,
      "v": 51
    },
    {
      "midi": 81,
      "hit": false,
      "t": 232317.70833333445,
      "d": 46.874999999970896,
      "v": 66
    },
    {
      "midi": 65,
      "hit": false,
      "t": 232484.37500000108,
      "d": 62.5,
      "v": 61
    },
    {
      "midi": 84,
      "hit": false,
      "t": 232489.58333333442,
      "d": 67.70833333331393,
      "v": 78
    },
    {
      "midi": 87,
      "hit": false,
      "t": 232635.41666666773,
      "d": 46.875,
      "v": 49
    },
    {
      "midi": 93,
      "hit": false,
      "t": 232640.62500000108,
      "d": 46.875,
      "v": 64
    },
    {
      "midi": 101,
      "hit": false,
      "t": 232802.08333333442,
      "d": 46.875,
      "v": 70
    },
    {
      "midi": 72,
      "hit": false,
      "t": 232807.29166666776,
      "d": 46.875,
      "v": 69
    },
    {
      "midi": 65,
      "hit": false,
      "t": 232817.70833333442,
      "d": 46.875,
      "v": 56
    },
    {
      "midi": 87,
      "hit": false,
      "t": 232984.37500000108,
      "d": 52.08333333331393,
      "v": 48
    },
    {
      "midi": 91,
      "hit": false,
      "t": 233000.00000000108,
      "d": 140.6249999999709,
      "v": 28
    },
    {
      "midi": 93,
      "hit": false,
      "t": 233010.41666666773,
      "d": 83.33333333331393,
      "v": 23
    },
    {
      "midi": 69,
      "hit": false,
      "t": 233145.8333333344,
      "d": 52.083333333343035,
      "v": 55
    },
    {
      "midi": 84,
      "hit": false,
      "t": 233151.04166666773,
      "d": 46.875,
      "v": 64
    },
    {
      "midi": 60,
      "hit": false,
      "t": 233197.91666666773,
      "d": 62.5,
      "v": 17
    },
    {
      "midi": 81,
      "hit": false,
      "t": 233307.29166666773,
      "d": 46.875,
      "v": 52
    },
    {
      "midi": 75,
      "hit": false,
      "t": 233312.50000000108,
      "d": 52.08333333331393,
      "v": 53
    },
    {
      "midi": 65,
      "hit": false,
      "t": 233541.66666666773,
      "d": 52.083333333343035,
      "v": 49
    },
    {
      "midi": 57,
      "hit": false,
      "t": 233572.91666666773,
      "d": 72.91666666668607,
      "v": 34
    },
    {
      "midi": 60,
      "hit": false,
      "t": 233572.91666666773,
      "d": 78.1250000000291,
      "v": 30
    },
    {
      "midi": 72,
      "hit": false,
      "t": 233593.75000000108,
      "d": 276.04166666668607,
      "v": 96
    },
    {
      "midi": 63,
      "hit": false,
      "t": 233791.66666666776,
      "d": 67.70833333334303,
      "v": 52
    },
    {
      "midi": 69,
      "hit": false,
      "t": 233807.29166666776,
      "d": 119.79166666665697,
      "v": 49
    },
    {
      "midi": 72,
      "hit": false,
      "t": 233947.91666666776,
      "d": 286.45833333337214,
      "v": 94
    },
    {
      "midi": 60,
      "hit": false,
      "t": 233968.7500000011,
      "d": 166.66666666668607,
      "v": 81
    },
    {
      "midi": 29,
      "hit": false,
      "t": 233973.95833333445,
      "d": 46.875,
      "v": 73
    },
    {
      "midi": 41,
      "hit": false,
      "t": 233994.7916666678,
      "d": 46.875,
      "v": 62
    },
    {
      "midi": 69,
      "hit": false,
      "t": 234218.75000000114,
      "d": 98.95833333331393,
      "v": 45
    },
    {
      "midi": 63,
      "hit": false,
      "t": 234223.95833333448,
      "d": 83.33333333331393,
      "v": 49
    },
    {
      "midi": 59,
      "hit": false,
      "t": 234385.4166666678,
      "d": 83.33333333334303,
      "v": 98
    },
    {
      "midi": 71,
      "hit": false,
      "t": 234385.4166666678,
      "d": 223.95833333334303,
      "v": 103
    },
    {
      "midi": 53,
      "hit": false,
      "t": 234401.0416666678,
      "d": 41.66666666668607,
      "v": 83
    },
    {
      "midi": 57,
      "hit": false,
      "t": 234406.25000000114,
      "d": 46.875,
      "v": 70
    },
    {
      "midi": 69,
      "hit": false,
      "t": 234578.12500000114,
      "d": 57.291666666656965,
      "v": 50
    },
    {
      "midi": 72,
      "hit": false,
      "t": 234807.2916666678,
      "d": 192.70833333334303,
      "v": 100
    },
    {
      "midi": 60,
      "hit": false,
      "t": 234812.50000000114,
      "d": 125,
      "v": 82
    },
    {
      "midi": 75,
      "hit": false,
      "t": 234843.75000000114,
      "d": 78.125,
      "v": 30
    },
    {
      "midi": 84,
      "hit": false,
      "t": 235000.00000000114,
      "d": 52.083333333343035,
      "v": 43
    },
    {
      "midi": 63,
      "hit": false,
      "t": 235088.54166666782,
      "d": 593.75,
      "v": 66
    },
    {
      "midi": 65,
      "hit": false,
      "t": 235125.00000000116,
      "d": 395.83333333334303,
      "v": 42
    },
    {
      "midi": 69,
      "hit": false,
      "t": 235140.62500000116,
      "d": 416.66666666665697,
      "v": 51
    },
    {
      "midi": 75,
      "hit": false,
      "t": 235250.00000000116,
      "d": 328.125,
      "v": 101
    },
    {
      "midi": 101,
      "hit": false,
      "t": 235260.41666666782,
      "d": 62.5,
      "v": 15
    },
    {
      "midi": 93,
      "hit": false,
      "t": 235453.12500000116,
      "d": 83.33333333334303,
      "v": 65
    },
    {
      "midi": 87,
      "hit": false,
      "t": 235468.75000000116,
      "d": 78.125,
      "v": 51
    },
    {
      "midi": 84,
      "hit": false,
      "t": 235734.37500000116,
      "d": 46.875,
      "v": 59
    },
    {
      "midi": 74,
      "hit": false,
      "t": 235802.0833333345,
      "d": 130.20833333334303,
      "v": 99
    },
    {
      "midi": 62,
      "hit": false,
      "t": 235838.54166666785,
      "d": 67.70833333334303,
      "v": 45
    },
    {
      "midi": 69,
      "hit": false,
      "t": 235854.16666666785,
      "d": 93.75,
      "v": 15
    },
    {
      "midi": 81,
      "hit": false,
      "t": 235921.8750000012,
      "d": 46.875,
      "v": 61
    },
    {
      "midi": 75,
      "hit": false,
      "t": 235942.7083333345,
      "d": 57.29166666668607,
      "v": 47
    },
    {
      "midi": 72,
      "hit": false,
      "t": 236197.91666666785,
      "d": 234.375,
      "v": 94
    },
    {
      "midi": 60,
      "hit": false,
      "t": 236208.3333333345,
      "d": 52.083333333343035,
      "v": 59
    },
    {
      "midi": 63,
      "hit": false,
      "t": 236213.54166666785,
      "d": 41.666666666656965,
      "v": 73
    },
    {
      "midi": 65,
      "hit": false,
      "t": 236239.5833333345,
      "d": 67.70833333334303,
      "v": 20
    },
    {
      "midi": 65,
      "hit": false,
      "t": 236411.4583333345,
      "d": 72.91666666668607,
      "v": 42
    },
    {
      "midi": 69,
      "hit": false,
      "t": 236411.4583333345,
      "d": 78.1250000000291,
      "v": 56
    },
    {
      "midi": 70,
      "hit": false,
      "t": 236666.66666666788,
      "d": 296.875,
      "v": 88
    },
    {
      "midi": 58,
      "hit": false,
      "t": 236677.08333333454,
      "d": 197.91666666668607,
      "v": 69
    },
    {
      "midi": 31,
      "hit": false,
      "t": 236697.91666666788,
      "d": 88.54166666665697,
      "v": 64
    },
    {
      "midi": 43,
      "hit": false,
      "t": 236708.33333333454,
      "d": 125,
      "v": 53
    },
    {
      "midi": 67,
      "hit": false,
      "t": 236947.91666666788,
      "d": 52.083333333343035,
      "v": 56
    },
    {
      "midi": 70,
      "hit": false,
      "t": 237119.79166666788,
      "d": 83.33333333331393,
      "v": 69
    },
    {
      "midi": 58,
      "hit": false,
      "t": 237135.41666666788,
      "d": 109.375,
      "v": 46
    },
    {
      "midi": 50,
      "hit": false,
      "t": 237161.45833333454,
      "d": 197.91666666668607,
      "v": 47
    },
    {
      "midi": 55,
      "hit": false,
      "t": 237171.8750000012,
      "d": 67.70833333334303,
      "v": 16
    },
    {
      "midi": 79,
      "hit": false,
      "t": 237307.29166666788,
      "d": 41.66666666668607,
      "v": 76
    },
    {
      "midi": 74,
      "hit": false,
      "t": 237312.50000000122,
      "d": 62.5,
      "v": 36
    },
    {
      "midi": 82,
      "hit": false,
      "t": 237463.54166666788,
      "d": 98.95833333334303,
      "v": 56
    },
    {
      "midi": 62,
      "hit": false,
      "t": 237484.37500000122,
      "d": 57.291666666656965,
      "v": 61
    },
    {
      "midi": 58,
      "hit": false,
      "t": 237510.41666666788,
      "d": 83.33333333334303,
      "v": 25
    },
    {
      "midi": 91,
      "hit": false,
      "t": 237635.41666666788,
      "d": 104.16666666665697,
      "v": 60
    },
    {
      "midi": 86,
      "hit": false,
      "t": 237645.83333333454,
      "d": 83.33333333334303,
      "v": 40
    },
    {
      "midi": 70,
      "hit": false,
      "t": 237796.8750000012,
      "d": 140.625,
      "v": 69
    },
    {
      "midi": 94,
      "hit": false,
      "t": 237812.5000000012,
      "d": 182.29166666665697,
      "v": 45
    },
    {
      "midi": 58,
      "hit": false,
      "t": 237822.91666666785,
      "d": 156.25,
      "v": 34
    },
    {
      "midi": 86,
      "hit": false,
      "t": 238005.2083333345,
      "d": 78.125,
      "v": 35
    },
    {
      "midi": 91,
      "hit": false,
      "t": 238010.41666666785,
      "d": 72.91666666665697,
      "v": 27
    },
    {
      "midi": 82,
      "hit": false,
      "t": 238130.2083333345,
      "d": 52.083333333343035,
      "v": 41
    },
    {
      "midi": 67,
      "hit": false,
      "t": 238135.41666666785,
      "d": 62.5,
      "v": 52
    },
    {
      "midi": 58,
      "hit": false,
      "t": 238161.4583333345,
      "d": 83.33333333334303,
      "v": 22
    },
    {
      "midi": 79,
      "hit": false,
      "t": 238302.0833333345,
      "d": 67.70833333334303,
      "v": 47
    },
    {
      "midi": 74,
      "hit": false,
      "t": 238322.91666666785,
      "d": 72.91666666665697,
      "v": 19
    },
    {
      "midi": 70,
      "hit": false,
      "t": 238458.3333333345,
      "d": 46.875,
      "v": 61
    },
    {
      "midi": 62,
      "hit": false,
      "t": 238468.75000000116,
      "d": 57.29166666668607,
      "v": 47
    },
    {
      "midi": 55,
      "hit": false,
      "t": 238484.37500000116,
      "d": 62.500000000029104,
      "v": 34
    },
    {
      "midi": 58,
      "hit": false,
      "t": 238484.37500000116,
      "d": 78.1250000000291,
      "v": 16
    },
    {
      "midi": 67,
      "hit": false,
      "t": 238640.6250000012,
      "d": 57.291666666656965,
      "v": 58
    },
    {
      "midi": 62,
      "hit": false,
      "t": 238666.66666666785,
      "d": 72.91666666665697,
      "v": 27
    },
    {
      "midi": 31,
      "hit": false,
      "t": 238838.54166666785,
      "d": 46.875,
      "v": 70
    },
    {
      "midi": 43,
      "hit": false,
      "t": 238848.9583333345,
      "d": 52.083333333343035,
      "v": 64
    },
    {
      "midi": 58,
      "hit": false,
      "t": 238854.16666666785,
      "d": 62.5,
      "v": 54
    },
    {
      "midi": 67,
      "hit": false,
      "t": 239031.2500000012,
      "d": 46.875,
      "v": 63
    },
    {
      "midi": 58,
      "hit": false,
      "t": 239197.91666666785,
      "d": 119.79166666665697,
      "v": 56
    },
    {
      "midi": 70,
      "hit": false,
      "t": 239203.1250000012,
      "d": 41.666666666656965,
      "v": 64
    },
    {
      "midi": 50,
      "hit": false,
      "t": 239229.16666666785,
      "d": 192.70833333331393,
      "v": 55
    },
    {
      "midi": 55,
      "hit": false,
      "t": 239234.3750000012,
      "d": 67.70833333331393,
      "v": 35
    },
    {
      "midi": 79,
      "hit": false,
      "t": 239364.5833333345,
      "d": 41.666666666656965,
      "v": 79
    },
    {
      "midi": 82,
      "hit": false,
      "t": 239531.25000000116,
      "d": 52.08333333337214,
      "v": 59
    },
    {
      "midi": 62,
      "hit": false,
      "t": 239536.4583333345,
      "d": 78.1250000000291,
      "v": 74
    },
    {
      "midi": 58,
      "hit": false,
      "t": 239557.29166666785,
      "d": 57.29166666668607,
      "v": 39
    },
    {
      "midi": 55,
      "hit": false,
      "t": 239562.5000000012,
      "d": 52.083333333343035,
      "v": 45
    },
    {
      "midi": 91,
      "hit": false,
      "t": 239682.29166666788,
      "d": 109.375,
      "v": 60
    },
    {
      "midi": 86,
      "hit": false,
      "t": 239697.91666666788,
      "d": 83.33333333334303,
      "v": 34
    },
    {
      "midi": 70,
      "hit": false,
      "t": 239833.33333333454,
      "d": 93.75,
      "v": 99
    },
    {
      "midi": 58,
      "hit": false,
      "t": 239848.95833333454,
      "d": 46.875,
      "v": 79
    },
    {
      "midi": 94,
      "hit": false,
      "t": 239848.95833333454,
      "d": 182.29166666665697,
      "v": 64
    },
    {
      "midi": 86,
      "hit": false,
      "t": 240020.83333333454,
      "d": 83.33333333331393,
      "v": 52
    },
    {
      "midi": 91,
      "hit": false,
      "t": 240020.83333333454,
      "d": 83.33333333331393,
      "v": 48
    },
    {
      "midi": 67,
      "hit": false,
      "t": 240161.4583333345,
      "d": 98.95833333331393,
      "v": 76
    },
    {
      "midi": 58,
      "hit": false,
      "t": 240171.87500000116,
      "d": 67.70833333334303,
      "v": 44
    },
    {
      "midi": 82,
      "hit": false,
      "t": 240177.0833333345,
      "d": 72.91666666665697,
      "v": 33
    },
    {
      "midi": 79,
      "hit": false,
      "t": 240322.91666666782,
      "d": 46.875,
      "v": 76
    },
    {
      "midi": 74,
      "hit": false,
      "t": 240359.37500000116,
      "d": 119.79166666665697,
      "v": 39
    },
    {
      "midi": 70,
      "hit": false,
      "t": 240515.62500000116,
      "d": 57.29166666668607,
      "v": 50
    },
    {
      "midi": 58,
      "hit": false,
      "t": 240526.04166666782,
      "d": 67.70833333337214,
      "v": 42
    },
    {
      "midi": 62,
      "hit": false,
      "t": 240531.25000000116,
      "d": 41.66666666668607,
      "v": 65
    },
    {
      "midi": 55,
      "hit": false,
      "t": 240552.0833333345,
      "d": 57.29166666668607,
      "v": 40
    },
    {
      "midi": 62,
      "hit": false,
      "t": 240661.45833333454,
      "d": 57.291666666656965,
      "v": 55
    },
    {
      "midi": 67,
      "hit": false,
      "t": 240671.8750000012,
      "d": 57.291666666656965,
      "v": 69
    },
    {
      "midi": 72,
      "hit": false,
      "t": 240963.54166666785,
      "d": 348.95833333337214,
      "v": 100
    },
    {
      "midi": 60,
      "hit": false,
      "t": 240968.7500000012,
      "d": 218.7500000000291,
      "v": 94
    },
    {
      "midi": 41,
      "hit": false,
      "t": 240984.3750000012,
      "d": 109.3750000000291,
      "v": 92
    },
    {
      "midi": 29,
      "hit": false,
      "t": 240989.58333333454,
      "d": 36.458333333343035,
      "v": 92
    },
    {
      "midi": 69,
      "hit": false,
      "t": 241234.37500000122,
      "d": 46.875,
      "v": 55
    },
    {
      "midi": 65,
      "hit": false,
      "t": 241255.20833333457,
      "d": 67.70833333331393,
      "v": 24
    },
    {
      "midi": 72,
      "hit": false,
      "t": 241385.41666666788,
      "d": 125,
      "v": 62
    },
    {
      "midi": 60,
      "hit": false,
      "t": 241395.83333333454,
      "d": 119.79166666668607,
      "v": 61
    },
    {
      "midi": 57,
      "hit": false,
      "t": 241411.45833333454,
      "d": 62.5,
      "v": 46
    },
    {
      "midi": 53,
      "hit": false,
      "t": 241416.66666666788,
      "d": 177.08333333334303,
      "v": 83
    },
    {
      "midi": 81,
      "hit": false,
      "t": 241567.70833333457,
      "d": 41.666666666656965,
      "v": 76
    },
    {
      "midi": 77,
      "hit": false,
      "t": 241578.12500000122,
      "d": 46.875,
      "v": 51
    },
    {
      "midi": 65,
      "hit": false,
      "t": 241729.16666666788,
      "d": 78.1249999999709,
      "v": 67
    },
    {
      "midi": 84,
      "hit": false,
      "t": 241729.16666666788,
      "d": 333.3333333332848,
      "v": 80
    },
    {
      "midi": 57,
      "hit": false,
      "t": 241744.79166666788,
      "d": 52.08333333331393,
      "v": 52
    },
    {
      "midi": 60,
      "hit": false,
      "t": 241755.20833333454,
      "d": 78.1249999999709,
      "v": 34
    },
    {
      "midi": 93,
      "hit": false,
      "t": 241890.62500000116,
      "d": 177.08333333334303,
      "v": 61
    },
    {
      "midi": 89,
      "hit": false,
      "t": 241906.25000000116,
      "d": 62.5,
      "v": 59
    },
    {
      "midi": 72,
      "hit": false,
      "t": 242046.87500000116,
      "d": 46.875,
      "v": 75
    },
    {
      "midi": 69,
      "hit": false,
      "t": 242062.50000000116,
      "d": 57.29166666668607,
      "v": 48
    },
    {
      "midi": 96,
      "hit": false,
      "t": 242062.50000000116,
      "d": 197.91666666668607,
      "v": 86
    },
    {
      "midi": 65,
      "hit": false,
      "t": 242067.7083333345,
      "d": 46.875,
      "v": 60
    },
    {
      "midi": 93,
      "hit": false,
      "t": 242229.16666666785,
      "d": 98.95833333334303,
      "v": 49
    },
    {
      "midi": 89,
      "hit": false,
      "t": 242239.5833333345,
      "d": 93.7500000000291,
      "v": 43
    },
    {
      "midi": 69,
      "hit": false,
      "t": 242380.20833333454,
      "d": 57.291666666656965,
      "v": 46
    },
    {
      "midi": 84,
      "hit": false,
      "t": 242395.83333333454,
      "d": 41.666666666656965,
      "v": 54
    },
    {
      "midi": 65,
      "hit": false,
      "t": 242406.2500000012,
      "d": 67.70833333334303,
      "v": 22
    },
    {
      "midi": 60,
      "hit": false,
      "t": 242406.2500000012,
      "d": 72.91666666668607,
      "v": 34
    },
    {
      "midi": 81,
      "hit": false,
      "t": 242552.08333333454,
      "d": 41.666666666656965,
      "v": 59
    },
    {
      "midi": 77,
      "hit": false,
      "t": 242552.08333333454,
      "d": 52.08333333331393,
      "v": 56
    },
    {
      "midi": 72,
      "hit": false,
      "t": 242781.2500000012,
      "d": 374.9999999999709,
      "v": 106
    },
    {
      "midi": 60,
      "hit": false,
      "t": 242802.08333333454,
      "d": 46.875,
      "v": 73
    },
    {
      "midi": 57,
      "hit": false,
      "t": 242807.29166666788,
      "d": 52.08333333331393,
      "v": 54
    },
    {
      "midi": 53,
      "hit": false,
      "t": 242817.70833333454,
      "d": 52.08333333331393,
      "v": 71
    },
    {
      "midi": 69,
      "hit": false,
      "t": 243010.41666666785,
      "d": 145.83333333331393,
      "v": 45
    },
    {
      "midi": 65,
      "hit": false,
      "t": 243020.8333333345,
      "d": 62.5,
      "v": 50
    },
    {
      "midi": 74,
      "hit": false,
      "t": 243250.00000000116,
      "d": 348.95833333334303,
      "v": 112
    },
    {
      "midi": 26,
      "hit": false,
      "t": 243260.41666666785,
      "d": 31.25,
      "v": 88
    },
    {
      "midi": 62,
      "hit": false,
      "t": 243260.41666666785,
      "d": 223.95833333334303,
      "v": 94
    },
    {
      "midi": 38,
      "hit": false,
      "t": 243265.6250000012,
      "d": 98.95833333331393,
      "v": 97
    },
    {
      "midi": 66,
      "hit": false,
      "t": 243515.6250000012,
      "d": 57.291666666656965,
      "v": 41
    },
    {
      "midi": 69,
      "hit": false,
      "t": 243531.2500000012,
      "d": 52.08333333331393,
      "v": 57
    },
    {
      "midi": 74,
      "hit": false,
      "t": 243687.50000000116,
      "d": 109.375,
      "v": 78
    },
    {
      "midi": 57,
      "hit": false,
      "t": 243692.7083333345,
      "d": 88.54166666665697,
      "v": 67
    },
    {
      "midi": 54,
      "hit": false,
      "t": 243697.91666666785,
      "d": 57.291666666656965,
      "v": 64
    },
    {
      "midi": 50,
      "hit": false,
      "t": 243697.91666666785,
      "d": 229.16666666662786,
      "v": 63
    },
    {
      "midi": 78,
      "hit": false,
      "t": 243854.16666666782,
      "d": 41.666666666656965,
      "v": 64
    },
    {
      "midi": 81,
      "hit": false,
      "t": 243864.58333333448,
      "d": 36.458333333343035,
      "v": 75
    },
    {
      "midi": 86,
      "hit": false,
      "t": 244015.62500000114,
      "d": 484.3750000000582,
      "v": 91
    },
    {
      "midi": 62,
      "hit": false,
      "t": 244020.83333333448,
      "d": 72.91666666665697,
      "v": 86
    },
    {
      "midi": 54,
      "hit": false,
      "t": 244031.25000000114,
      "d": 46.875,
      "v": 75
    },
    {
      "midi": 57,
      "hit": false,
      "t": 244052.08333333448,
      "d": 62.5,
      "v": 40
    },
    {
      "midi": 90,
      "hit": false,
      "t": 244166.66666666782,
      "d": 140.625,
      "v": 65
    },
    {
      "midi": 93,
      "hit": false,
      "t": 244166.66666666782,
      "d": 218.7500000000291,
      "v": 84
    },
    {
      "midi": 74,
      "hit": false,
      "t": 244333.33333333448,
      "d": 52.08333333337214,
      "v": 95
    },
    {
      "midi": 69,
      "hit": false,
      "t": 244338.54166666782,
      "d": 46.875000000029104,
      "v": 74
    },
    {
      "midi": 98,
      "hit": false,
      "t": 244343.75000000116,
      "d": 234.3750000000291,
      "v": 102
    },
    {
      "midi": 66,
      "hit": false,
      "t": 244348.9583333345,
      "d": 52.083333333343035,
      "v": 60
    },
    {
      "midi": 90,
      "hit": false,
      "t": 244515.6250000012,
      "d": 171.8750000000291,
      "v": 58
    },
    {
      "midi": 93,
      "hit": false,
      "t": 244531.2500000012,
      "d": 145.83333333334303,
      "v": 59
    },
    {
      "midi": 86,
      "hit": false,
      "t": 244677.08333333454,
      "d": 46.875000000029104,
      "v": 73
    },
    {
      "midi": 69,
      "hit": false,
      "t": 244682.29166666788,
      "d": 125,
      "v": 59
    },
    {
      "midi": 66,
      "hit": false,
      "t": 244692.70833333457,
      "d": 104.16666666665697,
      "v": 51
    },
    {
      "midi": 62,
      "hit": false,
      "t": 244697.9166666679,
      "d": 57.291666666656965,
      "v": 57
    },
    {
      "midi": 81,
      "hit": false,
      "t": 244833.33333333454,
      "d": 151.04166666665697,
      "v": 63
    },
    {
      "midi": 78,
      "hit": false,
      "t": 244843.7500000012,
      "d": 177.08333333334303,
      "v": 54
    },
    {
      "midi": 74,
      "hit": false,
      "t": 245015.6250000012,
      "d": 36.458333333343035,
      "v": 78
    },
    {
      "midi": 66,
      "hit": false,
      "t": 245041.66666666788,
      "d": 41.666666666656965,
      "v": 62
    },
    {
      "midi": 62,
      "hit": false,
      "t": 245062.5000000012,
      "d": 46.875,
      "v": 53
    },
    {
      "midi": 57,
      "hit": false,
      "t": 245062.5000000012,
      "d": 83.33333333334303,
      "v": 34
    },
    {
      "midi": 69,
      "hit": false,
      "t": 245177.08333333454,
      "d": 78.125,
      "v": 69
    },
    {
      "midi": 66,
      "hit": false,
      "t": 245192.70833333454,
      "d": 57.291666666656965,
      "v": 28
    },
    {
      "midi": 72,
      "hit": false,
      "t": 245364.58333333454,
      "d": 119.79166666665697,
      "v": 102
    },
    {
      "midi": 60,
      "hit": false,
      "t": 245390.6250000012,
      "d": 46.875,
      "v": 73
    },
    {
      "midi": 74,
      "hit": false,
      "t": 245562.5000000012,
      "d": 145.83333333334303,
      "v": 106
    },
    {
      "midi": 62,
      "hit": false,
      "t": 245578.1250000012,
      "d": 46.875,
      "v": 92
    },
    {
      "midi": 77,
      "hit": false,
      "t": 245781.2500000012,
      "d": 260.41666666665697,
      "v": 111
    },
    {
      "midi": 24,
      "hit": false,
      "t": 245791.66666666785,
      "d": 31.25,
      "v": 95
    },
    {
      "midi": 36,
      "hit": false,
      "t": 245791.66666666785,
      "d": 98.95833333334303,
      "v": 97
    },
    {
      "midi": 65,
      "hit": false,
      "t": 245791.66666666785,
      "d": 239.58333333334303,
      "v": 94
    },
    {
      "midi": 67,
      "hit": false,
      "t": 246151.04166666785,
      "d": 41.66666666668607,
      "v": 71
    },
    {
      "midi": 72,
      "hit": false,
      "t": 246156.2500000012,
      "d": 83.33333333334303,
      "v": 63
    },
    {
      "midi": 77,
      "hit": false,
      "t": 246395.83333333454,
      "d": 125.0000000000291,
      "v": 83
    },
    {
      "midi": 60,
      "hit": false,
      "t": 246411.45833333454,
      "d": 151.04166666668607,
      "v": 49
    },
    {
      "midi": 53,
      "hit": false,
      "t": 246427.08333333454,
      "d": 72.91666666668607,
      "v": 76
    },
    {
      "midi": 55,
      "hit": false,
      "t": 246447.91666666788,
      "d": 67.70833333334303,
      "v": 22
    },
    {
      "midi": 79,
      "hit": false,
      "t": 246593.75000000122,
      "d": 57.291666666656965,
      "v": 55
    },
    {
      "midi": 84,
      "hit": false,
      "t": 246604.16666666788,
      "d": 52.083333333343035,
      "v": 78
    },
    {
      "midi": 89,
      "hit": false,
      "t": 246791.66666666788,
      "d": 171.8750000000582,
      "v": 74
    },
    {
      "midi": 65,
      "hit": false,
      "t": 246812.50000000122,
      "d": 83.33333333337214,
      "v": 54
    },
    {
      "midi": 55,
      "hit": false,
      "t": 246817.70833333457,
      "d": 57.29166666668607,
      "v": 50
    },
    {
      "midi": 60,
      "hit": false,
      "t": 246822.9166666679,
      "d": 57.29166666668607,
      "v": 44
    },
    {
      "midi": 96,
      "hit": false,
      "t": 247010.41666666794,
      "d": 192.70833333331393,
      "v": 75
    },
    {
      "midi": 91,
      "hit": false,
      "t": 247020.8333333346,
      "d": 125,
      "v": 63
    },
    {
      "midi": 99,
      "hit": false,
      "t": 247291.6666666679,
      "d": 276.04166666668607,
      "v": 68
    },
    {
      "midi": 75,
      "hit": false,
      "t": 247354.1666666679,
      "d": 187.5,
      "v": 81
    },
    {
      "midi": 67,
      "hit": false,
      "t": 247364.58333333457,
      "d": 114.58333333334303,
      "v": 37
    },
    {
      "midi": 72,
      "hit": false,
      "t": 247385.4166666679,
      "d": 72.91666666665697,
      "v": 23
    },
    {
      "midi": 63,
      "hit": false,
      "t": 247385.4166666679,
      "d": 145.83333333334303,
      "v": 48
    },
    {
      "midi": 96,
      "hit": false,
      "t": 247557.2916666679,
      "d": 88.54166666668607,
      "v": 53
    },
    {
      "midi": 91,
      "hit": false,
      "t": 247562.50000000125,
      "d": 83.33333333334303,
      "v": 43
    },
    {
      "midi": 87,
      "hit": false,
      "t": 247750.00000000125,
      "d": 52.083333333343035,
      "v": 39
    },
    {
      "midi": 63,
      "hit": false,
      "t": 247770.8333333346,
      "d": 62.5,
      "v": 50
    },
    {
      "midi": 72,
      "hit": false,
      "t": 247770.8333333346,
      "d": 62.5,
      "v": 46
    },
    {
      "midi": 84,
      "hit": false,
      "t": 247927.0833333346,
      "d": 57.291666666656965,
      "v": 59
    },
    {
      "midi": 79,
      "hit": false,
      "t": 247942.7083333346,
      "d": 114.58333333331393,
      "v": 41
    },
    {
      "midi": 75,
      "hit": false,
      "t": 248114.58333333457,
      "d": 62.500000000029104,
      "v": 39
    },
    {
      "midi": 67,
      "hit": false,
      "t": 248135.4166666679,
      "d": 78.1250000000291,
      "v": 31
    },
    {
      "midi": 60,
      "hit": false,
      "t": 248140.62500000125,
      "d": 57.29166666668607,
      "v": 40
    },
    {
      "midi": 63,
      "hit": false,
      "t": 248145.8333333346,
      "d": 67.70833333334303,
      "v": 30
    },
    {
      "midi": 67,
      "hit": false,
      "t": 248302.0833333346,
      "d": 72.91666666665697,
      "v": 42
    },
    {
      "midi": 72,
      "hit": false,
      "t": 248312.50000000125,
      "d": 67.70833333334303,
      "v": 46
    },
    {
      "midi": 63,
      "hit": false,
      "t": 248572.91666666794,
      "d": 83.33333333334303,
      "v": 60
    },
    {
      "midi": 24,
      "hit": false,
      "t": 248593.75000000128,
      "d": 52.083333333343035,
      "v": 46
    },
    {
      "midi": 36,
      "hit": false,
      "t": 248614.58333333462,
      "d": 67.70833333331393,
      "v": 24
    },
    {
      "midi": 67,
      "hit": false,
      "t": 248796.87500000128,
      "d": 72.91666666668607,
      "v": 37
    },
    {
      "midi": 72,
      "hit": false,
      "t": 248817.70833333462,
      "d": 52.083333333343035,
      "v": 42
    },
    {
      "midi": 75,
      "hit": false,
      "t": 249046.8750000013,
      "d": 41.666666666656965,
      "v": 53
    },
    {
      "midi": 60,
      "hit": false,
      "t": 249072.91666666797,
      "d": 78.125,
      "v": 26
    },
    {
      "midi": 51,
      "hit": false,
      "t": 249093.7500000013,
      "d": 104.16666666665697,
      "v": 27
    },
    {
      "midi": 84,
      "hit": false,
      "t": 249223.95833333462,
      "d": 41.666666666656965,
      "v": 66
    },
    {
      "midi": 87,
      "hit": false,
      "t": 249395.83333333462,
      "d": 72.91666666668607,
      "v": 55
    },
    {
      "midi": 63,
      "hit": false,
      "t": 249416.66666666797,
      "d": 192.70833333334303,
      "v": 30
    },
    {
      "midi": 55,
      "hit": false,
      "t": 249447.91666666797,
      "d": 88.54166666668607,
      "v": 16
    },
    {
      "midi": 91,
      "hit": false,
      "t": 249567.70833333465,
      "d": 78.125,
      "v": 36
    },
    {
      "midi": 96,
      "hit": false,
      "t": 249567.70833333465,
      "d": 145.83333333334303,
      "v": 70
    },
    {
      "midi": 99,
      "hit": false,
      "t": 249755.20833333465,
      "d": 67.70833333331393,
      "v": 63
    },
    {
      "midi": 67,
      "hit": false,
      "t": 249765.6250000013,
      "d": 244.79166666665697,
      "v": 92
    },
    {
      "midi": 55,
      "hit": false,
      "t": 249791.66666666797,
      "d": 57.291666666656965,
      "v": 56
    },
    {
      "midi": 96,
      "hit": false,
      "t": 249953.12500000128,
      "d": 67.70833333334303,
      "v": 43
    },
    {
      "midi": 91,
      "hit": false,
      "t": 249958.33333333462,
      "d": 72.91666666665697,
      "v": 34
    },
    {
      "midi": 63,
      "hit": false,
      "t": 250114.58333333462,
      "d": 46.875,
      "v": 51
    },
    {
      "midi": 87,
      "hit": false,
      "t": 250114.58333333462,
      "d": 52.083333333343035,
      "v": 6
    },
    {
      "midi": 84,
      "hit": false,
      "t": 250250.0000000013,
      "d": 57.29166666668607,
      "v": 57
    },
    {
      "midi": 79,
      "hit": false,
      "t": 250270.83333333465,
      "d": 135.41666666668607,
      "v": 34
    },
    {
      "midi": 55,
      "hit": false,
      "t": 250489.58333333468,
      "d": 57.29166666668607,
      "v": 45
    },
    {
      "midi": 51,
      "hit": false,
      "t": 250510.41666666802,
      "d": 78.125,
      "v": 43
    },
    {
      "midi": 67,
      "hit": false,
      "t": 250625.00000000137,
      "d": 72.91666666665697,
      "v": 56
    },
    {
      "midi": 72,
      "hit": false,
      "t": 250635.41666666802,
      "d": 57.291666666656965,
      "v": 40
    },
    {
      "midi": 27,
      "hit": false,
      "t": 250864.58333333468,
      "d": 161.45833333334303,
      "v": 44
    },
    {
      "midi": 72,
      "hit": false,
      "t": 250947.91666666802,
      "d": 328.125,
      "v": 92
    },
    {
      "midi": 60,
      "hit": false,
      "t": 250963.54166666802,
      "d": 187.5,
      "v": 70
    },
    {
      "midi": 39,
      "hit": false,
      "t": 251000.00000000137,
      "d": 83.33333333331393,
      "v": 47
    },
    {
      "midi": 63,
      "hit": false,
      "t": 251208.33333333468,
      "d": 52.083333333343035,
      "v": 46
    },
    {
      "midi": 67,
      "hit": false,
      "t": 251213.54166666802,
      "d": 46.875,
      "v": 60
    },
    {
      "midi": 72,
      "hit": false,
      "t": 251401.04166666802,
      "d": 78.125,
      "v": 36
    },
    {
      "midi": 55,
      "hit": false,
      "t": 251406.25000000137,
      "d": 62.5,
      "v": 59
    },
    {
      "midi": 51,
      "hit": false,
      "t": 251416.66666666802,
      "d": 109.375,
      "v": 47
    },
    {
      "midi": 75,
      "hit": false,
      "t": 251552.08333333468,
      "d": 41.666666666656965,
      "v": 63
    },
    {
      "midi": 79,
      "hit": false,
      "t": 251567.70833333468,
      "d": 41.666666666656965,
      "v": 73
    },
    {
      "midi": 60,
      "hit": false,
      "t": 251739.58333333468,
      "d": 57.291666666656965,
      "v": 52
    },
    {
      "midi": 55,
      "hit": false,
      "t": 251750.00000000134,
      "d": 62.5,
      "v": 20
    },
    {
      "midi": 84,
      "hit": false,
      "t": 251755.20833333468,
      "d": 83.33333333331393,
      "v": 57
    },
    {
      "midi": 91,
      "hit": false,
      "t": 251906.25000000134,
      "d": 187.4999999999709,
      "v": 57
    },
    {
      "midi": 87,
      "hit": false,
      "t": 251916.666666668,
      "d": 72.91666666665697,
      "v": 26
    },
    {
      "midi": 72,
      "hit": false,
      "t": 252093.7500000013,
      "d": 57.29166666668607,
      "v": 53
    },
    {
      "midi": 96,
      "hit": false,
      "t": 252125.0000000013,
      "d": 156.2500000000291,
      "v": 49
    },
    {
      "midi": 63,
      "hit": false,
      "t": 252130.20833333465,
      "d": 57.29166666668607,
      "v": 31
    },
    {
      "midi": 67,
      "hit": false,
      "t": 252130.20833333465,
      "d": 78.1250000000291,
      "v": 21
    },
    {
      "midi": 87,
      "hit": false,
      "t": 252286.45833333468,
      "d": 114.58333333331393,
      "v": 34
    },
    {
      "midi": 91,
      "hit": false,
      "t": 252312.50000000134,
      "d": 104.16666666665697,
      "v": 31
    },
    {
      "midi": 67,
      "hit": false,
      "t": 252489.58333333465,
      "d": 72.91666666668607,
      "v": 36
    },
    {
      "midi": 84,
      "hit": false,
      "t": 252494.791666668,
      "d": 67.70833333334303,
      "v": 34
    },
    {
      "midi": 63,
      "hit": false,
      "t": 252494.791666668,
      "d": 72.91666666668607,
      "v": 34
    },
    {
      "midi": 75,
      "hit": false,
      "t": 252682.29166666802,
      "d": 62.5,
      "v": 43
    },
    {
      "midi": 79,
      "hit": false,
      "t": 252682.29166666802,
      "d": 67.70833333334303,
      "v": 39
    },
    {
      "midi": 72,
      "hit": false,
      "t": 252958.3333333347,
      "d": 255.20833333334303,
      "v": 84
    },
    {
      "midi": 60,
      "hit": false,
      "t": 252994.79166666805,
      "d": 67.70833333331393,
      "v": 35
    },
    {
      "midi": 55,
      "hit": false,
      "t": 253005.2083333347,
      "d": 78.125,
      "v": 31
    },
    {
      "midi": 67,
      "hit": false,
      "t": 253218.7500000014,
      "d": 109.3749999999709,
      "v": 49
    },
    {
      "midi": 63,
      "hit": false,
      "t": 253229.16666666805,
      "d": 72.91666666665697,
      "v": 34
    },
    {
      "midi": 70,
      "hit": false,
      "t": 253437.50000000137,
      "d": 338.54166666668607,
      "v": 81
    },
    {
      "midi": 58,
      "hit": false,
      "t": 253453.12500000137,
      "d": 260.41666666668607,
      "v": 58
    },
    {
      "midi": 31,
      "hit": false,
      "t": 253505.2083333347,
      "d": 83.33333333334303,
      "v": 41
    },
    {
      "midi": 43,
      "hit": false,
      "t": 253520.8333333347,
      "d": 130.20833333334303,
      "v": 21
    },
    {
      "midi": 64,
      "hit": false,
      "t": 253729.16666666805,
      "d": 72.91666666665697,
      "v": 41
    },
    {
      "midi": 61,
      "hit": false,
      "t": 253739.5833333347,
      "d": 98.95833333334303,
      "v": 22
    },
    {
      "midi": 69,
      "hit": false,
      "t": 253890.6250000014,
      "d": 281.2499999999709,
      "v": 85
    },
    {
      "midi": 57,
      "hit": false,
      "t": 253906.2500000014,
      "d": 145.83333333331393,
      "v": 65
    },
    {
      "midi": 49,
      "hit": false,
      "t": 253911.45833333474,
      "d": 203.1249999999709,
      "v": 37
    },
    {
      "midi": 52,
      "hit": false,
      "t": 253921.8750000014,
      "d": 72.91666666665697,
      "v": 49
    },
    {
      "midi": 61,
      "hit": false,
      "t": 254130.2083333347,
      "d": 78.1249999999709,
      "v": 47
    },
    {
      "midi": 64,
      "hit": false,
      "t": 254182.29166666802,
      "d": 83.33333333331393,
      "v": 23
    },
    {
      "midi": 70,
      "hit": false,
      "t": 254385.416666668,
      "d": 348.95833333331393,
      "v": 75
    },
    {
      "midi": 58,
      "hit": false,
      "t": 254406.25000000134,
      "d": 276.04166666665697,
      "v": 55
    },
    {
      "midi": 55,
      "hit": false,
      "t": 254427.08333333468,
      "d": 83.33333333331393,
      "v": 42
    },
    {
      "midi": 52,
      "hit": false,
      "t": 254453.12500000134,
      "d": 57.291666666656965,
      "v": 33
    },
    {
      "midi": 61,
      "hit": false,
      "t": 254656.25000000134,
      "d": 67.70833333331393,
      "v": 26
    },
    {
      "midi": 73,
      "hit": false,
      "t": 255005.20833333465,
      "d": 427.08333333334303,
      "v": 62
    },
    {
      "midi": 85,
      "hit": false,
      "t": 255015.6250000013,
      "d": 375,
      "v": 52
    },
    {
      "midi": 61,
      "hit": false,
      "t": 255015.6250000013,
      "d": 380.20833333334303,
      "v": 47
    },
    {
      "midi": 76,
      "hit": false,
      "t": 255036.45833333465,
      "d": 244.79166666665697,
      "v": 23
    },
    {
      "midi": 79,
      "hit": false,
      "t": 255046.8750000013,
      "d": 114.58333333334303,
      "v": 32
    },
    {
      "midi": 64,
      "hit": false,
      "t": 255354.16666666797,
      "d": 88.54166666668607,
      "v": 23
    },
    {
      "midi": 67,
      "hit": false,
      "t": 255354.16666666797,
      "d": 119.79166666668607,
      "v": 26
    },
    {
      "midi": 72,
      "hit": false,
      "t": 255593.7500000013,
      "d": 218.7499999999709,
      "v": 58
    },
    {
      "midi": 84,
      "hit": false,
      "t": 255593.7500000013,
      "d": 255.20833333331393,
      "v": 60
    },
    {
      "midi": 60,
      "hit": false,
      "t": 255604.16666666797,
      "d": 213.54166666665697,
      "v": 36
    },
    {
      "midi": 76,
      "hit": false,
      "t": 255635.41666666797,
      "d": 119.79166666665697,
      "v": 21
    },
    {
      "midi": 79,
      "hit": false,
      "t": 255645.83333333462,
      "d": 156.25,
      "v": 26
    },
    {
      "midi": 67,
      "hit": false,
      "t": 255843.75000000128,
      "d": 78.125,
      "v": 27
    },
    {
      "midi": 70,
      "hit": false,
      "t": 256052.08333333462,
      "d": 427.08333333331393,
      "v": 56
    },
    {
      "midi": 82,
      "hit": false,
      "t": 256062.50000000128,
      "d": 125,
      "v": 44
    },
    {
      "midi": 58,
      "hit": false,
      "t": 256067.70833333462,
      "d": 151.04166666665697,
      "v": 37
    },
    {
      "midi": 73,
      "hit": false,
      "t": 256088.54166666797,
      "d": 130.20833333331393,
      "v": 25
    },
    {
      "midi": 76,
      "hit": false,
      "t": 256114.58333333462,
      "d": 78.125,
      "v": 17
    },
    {
      "midi": 61,
      "hit": false,
      "t": 256385.41666666794,
      "d": 93.75,
      "v": 32
    },
    {
      "midi": 64,
      "hit": false,
      "t": 256411.4583333346,
      "d": 104.16666666668607,
      "v": 33
    },
    {
      "midi": 72,
      "hit": false,
      "t": 256848.95833333462,
      "d": 463.54166666662786,
      "v": 60
    },
    {
      "midi": 29,
      "hit": false,
      "t": 256864.58333333462,
      "d": 171.875,
      "v": 21
    },
    {
      "midi": 60,
      "hit": false,
      "t": 256864.58333333462,
      "d": 286.45833333331393,
      "v": 32
    },
    {
      "midi": 41,
      "hit": false,
      "t": 256875.00000000128,
      "d": 203.125,
      "v": 30
    },
    {
      "midi": 69,
      "hit": false,
      "t": 257239.5833333346,
      "d": 72.91666666665697,
      "v": 31
    },
    {
      "midi": 65,
      "hit": false,
      "t": 257250.00000000125,
      "d": 67.70833333334303,
      "v": 19
    },
    {
      "midi": 57,
      "hit": false,
      "t": 257505.2083333346,
      "d": 145.83333333334303,
      "v": 32
    },
    {
      "midi": 72,
      "hit": false,
      "t": 257510.41666666794,
      "d": 78.125,
      "v": 34
    },
    {
      "midi": 53,
      "hit": false,
      "t": 257520.8333333346,
      "d": 72.91666666668607,
      "v": 38
    },
    {
      "midi": 48,
      "hit": false,
      "t": 257572.91666666794,
      "d": 98.95833333334303,
      "v": 11
    },
    {
      "midi": 81,
      "hit": false,
      "t": 257708.33333333462,
      "d": 78.125,
      "v": 32
    },
    {
      "midi": 84,
      "hit": false,
      "t": 257901.04166666797,
      "d": 187.5,
      "v": 52
    },
    {
      "midi": 60,
      "hit": false,
      "t": 257927.08333333462,
      "d": 62.5,
      "v": 36
    },
    {
      "midi": 53,
      "hit": false,
      "t": 257947.91666666797,
      "d": 57.291666666656965,
      "v": 28
    },
    {
      "midi": 57,
      "hit": false,
      "t": 257958.33333333462,
      "d": 57.291666666656965,
      "v": 9
    },
    {
      "midi": 93,
      "hit": false,
      "t": 258083.33333333462,
      "d": 83.33333333334303,
      "v": 46
    },
    {
      "midi": 89,
      "hit": false,
      "t": 258140.6250000013,
      "d": 78.125,
      "v": 9
    },
    {
      "midi": 72,
      "hit": false,
      "t": 258281.2500000013,
      "d": 57.291666666656965,
      "v": 48
    },
    {
      "midi": 96,
      "hit": false,
      "t": 258286.45833333465,
      "d": 156.2499999999709,
      "v": 42
    },
    {
      "midi": 65,
      "hit": false,
      "t": 258312.5000000013,
      "d": 57.291666666656965,
      "v": 32
    },
    {
      "midi": 89,
      "hit": false,
      "t": 258484.37500000128,
      "d": 93.75,
      "v": 15
    },
    {
      "midi": 93,
      "hit": false,
      "t": 258489.58333333462,
      "d": 88.54166666665697,
      "v": 16
    },
    {
      "midi": 69,
      "hit": false,
      "t": 258625.00000000128,
      "d": 78.125,
      "v": 26
    },
    {
      "midi": 60,
      "hit": false,
      "t": 258635.41666666794,
      "d": 62.5,
      "v": 30
    },
    {
      "midi": 84,
      "hit": false,
      "t": 258645.8333333346,
      "d": 52.083333333343035,
      "v": 15
    },
    {
      "midi": 81,
      "hit": false,
      "t": 258807.29166666794,
      "d": 78.125,
      "v": 26
    },
    {
      "midi": 65,
      "hit": false,
      "t": 258973.9583333346,
      "d": 57.29166666668607,
      "v": 35
    },
    {
      "midi": 72,
      "hit": false,
      "t": 258979.16666666794,
      "d": 52.083333333343035,
      "v": 44
    },
    {
      "midi": 60,
      "hit": false,
      "t": 259000.00000000128,
      "d": 72.91666666665697,
      "v": 20
    },
    {
      "midi": 57,
      "hit": false,
      "t": 259000.00000000128,
      "d": 78.125,
      "v": 21
    },
    {
      "midi": 65,
      "hit": false,
      "t": 259171.87500000128,
      "d": 78.125,
      "v": 11
    },
    {
      "midi": 69,
      "hit": false,
      "t": 259177.08333333462,
      "d": 72.91666666665697,
      "v": 33
    },
    {
      "midi": 29,
      "hit": false,
      "t": 259437.50000000128,
      "d": 52.08333333331393,
      "v": 44
    },
    {
      "midi": 60,
      "hit": false,
      "t": 259447.91666666794,
      "d": 83.33333333331393,
      "v": 31
    },
    {
      "midi": 41,
      "hit": false,
      "t": 259489.5833333346,
      "d": 52.08333333331393,
      "v": 7
    },
    {
      "midi": 65,
      "hit": false,
      "t": 259677.08333333457,
      "d": 67.70833333334303,
      "v": 18
    },
    {
      "midi": 51,
      "hit": false,
      "t": 259937.50000000125,
      "d": 88.54166666665697,
      "v": 35
    },
    {
      "midi": 53,
      "hit": false,
      "t": 259947.9166666679,
      "d": 72.91666666665697,
      "v": 69
    },
    {
      "midi": 69,
      "hit": false,
      "t": 259947.9166666679,
      "d": 109.375,
      "v": 25
    },
    {
      "midi": 77,
      "hit": false,
      "t": 260125.00000000125,
      "d": 57.291666666656965,
      "v": 38
    },
    {
      "midi": 60,
      "hit": false,
      "t": 260312.50000000125,
      "d": 93.7500000000291,
      "v": 49
    },
    {
      "midi": 81,
      "hit": false,
      "t": 260317.7083333346,
      "d": 88.54166666668607,
      "v": 49
    },
    {
      "midi": 57,
      "hit": false,
      "t": 260322.91666666794,
      "d": 62.5,
      "v": 35
    },
    {
      "midi": 84,
      "hit": false,
      "t": 260510.41666666794,
      "d": 67.70833333334303,
      "v": 33
    },
    {
      "midi": 89,
      "hit": false,
      "t": 260510.41666666794,
      "d": 114.58333333334303,
      "v": 37
    },
    {
      "midi": 93,
      "hit": false,
      "t": 260708.33333333462,
      "d": 182.29166666665697,
      "v": 42
    },
    {
      "midi": 69,
      "hit": false,
      "t": 260718.75000000128,
      "d": 93.75,
      "v": 34
    },
    {
      "midi": 65,
      "hit": false,
      "t": 260729.16666666794,
      "d": 78.125,
      "v": 28
    },
    {
      "midi": 89,
      "hit": false,
      "t": 260906.25000000128,
      "d": 88.54166666665697,
      "v": 41
    },
    {
      "midi": 84,
      "hit": false,
      "t": 260906.25000000128,
      "d": 93.75,
      "v": 38
    },
    {
      "midi": 63,
      "hit": false,
      "t": 261104.16666666794,
      "d": 62.5,
      "v": 40
    },
    {
      "midi": 60,
      "hit": false,
      "t": 261119.79166666794,
      "d": 62.5,
      "v": 34
    },
    {
      "midi": 81,
      "hit": false,
      "t": 261135.41666666794,
      "d": 52.083333333343035,
      "v": 43
    },
    {
      "midi": 77,
      "hit": false,
      "t": 261359.37500000128,
      "d": 83.33333333334303,
      "v": 36
    },
    {
      "midi": 72,
      "hit": false,
      "t": 261364.58333333462,
      "d": 156.25,
      "v": 20
    },
    {
      "midi": 69,
      "hit": false,
      "t": 261630.20833333462,
      "d": 114.58333333331393,
      "v": 11
    },
    {
      "midi": 63,
      "hit": false,
      "t": 261640.62500000128,
      "d": 57.291666666656965,
      "v": 11
    },
    {
      "midi": 53,
      "hit": false,
      "t": 261708.3333333346,
      "d": 125,
      "v": 2
    },
    {
      "midi": 63,
      "hit": false,
      "t": 261979.16666666794,
      "d": 208.33333333334303,
      "v": 24
    },
    {
      "midi": 65,
      "hit": false,
      "t": 261994.79166666794,
      "d": 213.54166666665697,
      "v": 15
    },
    {
      "midi": 70,
      "hit": false,
      "t": 262786.4583333346,
      "d": 442.70833333337214,
      "v": 54
    },
    {
      "midi": 58,
      "hit": false,
      "t": 262822.9166666679,
      "d": 416.6666666667443,
      "v": 13
    },
    {
      "midi": 34,
      "hit": false,
      "t": 262833.3333333346,
      "d": 281.2500000000582,
      "v": 25
    },
    {
      "midi": 46,
      "hit": false,
      "t": 262843.7500000013,
      "d": 307.29166666668607,
      "v": 20
    },
    {
      "midi": 58,
      "hit": false,
      "t": 263489.58333333465,
      "d": 72.91666666668607,
      "v": 28
    },
    {
      "midi": 50,
      "hit": false,
      "t": 263500.00000000134,
      "d": 78.125,
      "v": 43
    },
    {
      "midi": 53,
      "hit": false,
      "t": 263645.83333333465,
      "d": 72.91666666668607,
      "v": 45
    },
    {
      "midi": 58,
      "hit": false,
      "t": 263739.58333333465,
      "d": 98.95833333331393,
      "v": 33
    },
    {
      "midi": 65,
      "hit": false,
      "t": 263770.83333333465,
      "d": 62.5,
      "v": 38
    },
    {
      "midi": 70,
      "hit": false,
      "t": 263890.6250000013,
      "d": 46.875,
      "v": 53
    },
    {
      "midi": 62,
      "hit": false,
      "t": 263890.6250000013,
      "d": 67.70833333331393,
      "v": 26
    },
    {
      "midi": 65,
      "hit": false,
      "t": 264010.4166666679,
      "d": 62.5,
      "v": 48
    },
    {
      "midi": 74,
      "hit": false,
      "t": 264015.6250000012,
      "d": 57.29166666668607,
      "v": 42
    },
    {
      "midi": 70,
      "hit": false,
      "t": 264125.0000000012,
      "d": 52.08333333331393,
      "v": 46
    },
    {
      "midi": 77,
      "hit": false,
      "t": 264125.0000000012,
      "d": 57.29166666662786,
      "v": 44
    },
    {
      "midi": 82,
      "hit": false,
      "t": 264218.75000000116,
      "d": 41.66666666668607,
      "v": 57
    },
    {
      "midi": 77,
      "hit": false,
      "t": 264343.75000000116,
      "d": 52.08333333331393,
      "v": 44
    },
    {
      "midi": 86,
      "hit": false,
      "t": 264343.75000000116,
      "d": 72.91666666662786,
      "v": 49
    },
    {
      "midi": 82,
      "hit": false,
      "t": 264479.1666666678,
      "d": 67.70833333331393,
      "v": 44
    },
    {
      "midi": 89,
      "hit": false,
      "t": 264500.0000000011,
      "d": 83.33333333331393,
      "v": 27
    },
    {
      "midi": 86,
      "hit": false,
      "t": 264625.0000000011,
      "d": 62.5,
      "v": 59
    },
    {
      "midi": 94,
      "hit": false,
      "t": 264625.0000000011,
      "d": 135.41666666668607,
      "v": 33
    },
    {
      "midi": 82,
      "hit": false,
      "t": 264760.4166666678,
      "d": 62.5,
      "v": 33
    },
    {
      "midi": 89,
      "hit": false,
      "t": 264770.8333333345,
      "d": 62.5,
      "v": 35
    },
    {
      "midi": 77,
      "hit": false,
      "t": 264890.62500000116,
      "d": 67.70833333331393,
      "v": 27
    },
    {
      "midi": 82,
      "hit": false,
      "t": 265005.2083333345,
      "d": 135.41666666668607,
      "v": 38
    },
    {
      "midi": 70,
      "hit": false,
      "t": 265093.75000000116,
      "d": 57.29166666668607,
      "v": 38
    },
    {
      "midi": 77,
      "hit": false,
      "t": 265151.04166666785,
      "d": 52.08333333331393,
      "v": 33
    },
    {
      "midi": 65,
      "hit": false,
      "t": 265229.16666666785,
      "d": 72.91666666662786,
      "v": 22
    },
    {
      "midi": 74,
      "hit": false,
      "t": 265250.00000000116,
      "d": 52.08333333331393,
      "v": 42
    },
    {
      "midi": 70,
      "hit": false,
      "t": 265369.7916666678,
      "d": 182.29166666668607,
      "v": 39
    },
    {
      "midi": 62,
      "hit": false,
      "t": 265380.2083333345,
      "d": 67.70833333331393,
      "v": 19
    },
    {
      "midi": 58,
      "hit": false,
      "t": 265489.5833333345,
      "d": 67.70833333331393,
      "v": 31
    },
    {
      "midi": 65,
      "hit": false,
      "t": 265526.0416666678,
      "d": 72.91666666668607,
      "v": 12
    },
    {
      "midi": 53,
      "hit": false,
      "t": 265619.7916666678,
      "d": 72.91666666668607,
      "v": 51
    },
    {
      "midi": 62,
      "hit": false,
      "t": 265661.4583333345,
      "d": 72.91666666668607,
      "v": 18
    },
    {
      "midi": 50,
      "hit": false,
      "t": 265760.41666666785,
      "d": 62.5,
      "v": 31
    },
    {
      "midi": 70,
      "hit": false,
      "t": 265984.37500000116,
      "d": 390.6249999999418,
      "v": 2
    },
    {
      "midi": 58,
      "hit": false,
      "t": 266041.66666666785,
      "d": 390.6249999999418,
      "v": 2
    },
    {
      "midi": 31,
      "hit": false,
      "t": 266098.9583333345,
      "d": 151.04166666662786,
      "v": 60
    },
    {
      "midi": 43,
      "hit": false,
      "t": 266104.1666666678,
      "d": 192.70833333331393,
      "v": 36
    },
    {
      "midi": 58,
      "hit": false,
      "t": 266520.8333333345,
      "d": 72.91666666662786,
      "v": 36
    },
    {
      "midi": 50,
      "hit": false,
      "t": 266526.0416666678,
      "d": 78.125,
      "v": 40
    },
    {
      "midi": 62,
      "hit": false,
      "t": 266656.2500000011,
      "d": 57.29166666668607,
      "v": 51
    },
    {
      "midi": 52,
      "hit": false,
      "t": 266656.2500000011,
      "d": 93.75,
      "v": 44
    },
    {
      "midi": 58,
      "hit": false,
      "t": 266770.8333333344,
      "d": 78.125,
      "v": 35
    },
    {
      "midi": 64,
      "hit": false,
      "t": 266786.4583333344,
      "d": 57.29166666668607,
      "v": 42
    },
    {
      "midi": 70,
      "hit": false,
      "t": 266880.2083333344,
      "d": 62.5,
      "v": 51
    },
    {
      "midi": 62,
      "hit": false,
      "t": 266911.4583333344,
      "d": 72.91666666668607,
      "v": 27
    },
    {
      "midi": 74,
      "hit": false,
      "t": 267031.2500000011,
      "d": 57.29166666662786,
      "v": 41
    },
    {
      "midi": 64,
      "hit": false,
      "t": 267052.0833333344,
      "d": 62.5,
      "v": 24
    },
    {
      "midi": 76,
      "hit": false,
      "t": 267114.5833333344,
      "d": 41.66666666668607,
      "v": 62
    },
    {
      "midi": 70,
      "hit": false,
      "t": 267140.6250000011,
      "d": 67.70833333331393,
      "v": 42
    },
    {
      "midi": 82,
      "hit": false,
      "t": 267229.16666666773,
      "d": 41.66666666668607,
      "v": 57
    },
    {
      "midi": 76,
      "hit": false,
      "t": 267343.7500000011,
      "d": 62.5,
      "v": 48
    },
    {
      "midi": 86,
      "hit": false,
      "t": 267364.5833333344,
      "d": 62.5,
      "v": 54
    },
    {
      "midi": 82,
      "hit": false,
      "t": 267510.41666666773,
      "d": 62.5,
      "v": 17
    },
    {
      "midi": 98,
      "hit": false,
      "t": 267640.62500000105,
      "d": 62.5,
      "v": 41
    },
    {
      "midi": 86,
      "hit": false,
      "t": 267640.62500000105,
      "d": 67.70833333331393,
      "v": 31
    },
    {
      "midi": 94,
      "hit": false,
      "t": 267656.25000000105,
      "d": 145.83333333331393,
      "v": 10
    },
    {
      "midi": 88,
      "hit": false,
      "t": 267791.6666666677,
      "d": 93.75,
      "v": 33
    },
    {
      "midi": 86,
      "hit": false,
      "t": 267927.08333333436,
      "d": 52.08333333331393,
      "v": 48
    },
    {
      "midi": 82,
      "hit": false,
      "t": 268072.9166666677,
      "d": 182.29166666662786,
      "v": 43
    },
    {
      "midi": 69,
      "hit": false,
      "t": 268109.375000001,
      "d": 197.91666666662786,
      "v": 58
    },
    {
      "midi": 57,
      "hit": false,
      "t": 268156.250000001,
      "d": 166.66666666662786,
      "v": 20
    },
    {
      "midi": 76,
      "hit": false,
      "t": 268260.4166666676,
      "d": 98.95833333331393,
      "v": 36
    },
    {
      "midi": 74,
      "hit": false,
      "t": 268421.87500000093,
      "d": 67.70833333331393,
      "v": 33
    },
    {
      "midi": 70,
      "hit": false,
      "t": 268552.08333333425,
      "d": 62.5,
      "v": 38
    },
    {
      "midi": 70,
      "hit": false,
      "t": 268802.08333333425,
      "d": 109.375,
      "v": 70
    },
    {
      "midi": 58,
      "hit": false,
      "t": 268833.33333333425,
      "d": 166.66666666662786,
      "v": 23
    },
    {
      "midi": 64,
      "hit": false,
      "t": 268963.54166666756,
      "d": 98.95833333331393,
      "v": 59
    },
    {
      "midi": 62,
      "hit": false,
      "t": 269098.9583333342,
      "d": 114.58333333331393,
      "v": 46
    },
    {
      "midi": 58,
      "hit": false,
      "t": 269223.9583333342,
      "d": 57.29166666668607,
      "v": 41
    },
    {
      "midi": 74,
      "hit": false,
      "t": 269713.54166666756,
      "d": 401.04166666662786,
      "v": 70
    },
    {
      "midi": 29,
      "hit": false,
      "t": 269755.20833333425,
      "d": 203.125,
      "v": 23
    },
    {
      "midi": 62,
      "hit": false,
      "t": 269760.41666666756,
      "d": 333.33333333331393,
      "v": 20
    },
    {
      "midi": 41,
      "hit": false,
      "t": 269765.6250000009,
      "d": 239.58333333337214,
      "v": 24
    },
    {
      "midi": 53,
      "hit": false,
      "t": 270265.6250000009,
      "d": 104.16666666668607,
      "v": 50
    },
    {
      "midi": 62,
      "hit": false,
      "t": 270286.4583333342,
      "d": 72.91666666668607,
      "v": 36
    },
    {
      "midi": 58,
      "hit": false,
      "t": 270406.2500000009,
      "d": 93.75,
      "v": 38
    },
    {
      "midi": 65,
      "hit": false,
      "t": 270432.29166666756,
      "d": 67.70833333331393,
      "v": 23
    },
    {
      "midi": 62,
      "hit": false,
      "t": 270541.66666666756,
      "d": 52.08333333337214,
      "v": 44
    },
    {
      "midi": 70,
      "hit": false,
      "t": 270552.08333333425,
      "d": 62.5,
      "v": 37
    },
    {
      "midi": 74,
      "hit": false,
      "t": 270671.87500000093,
      "d": 52.08333333331393,
      "v": 55
    },
    {
      "midi": 65,
      "hit": false,
      "t": 270677.08333333425,
      "d": 52.08333333331393,
      "v": 44
    },
    {
      "midi": 70,
      "hit": false,
      "t": 270781.2500000009,
      "d": 93.75,
      "v": 43
    },
    {
      "midi": 77,
      "hit": false,
      "t": 270796.8750000009,
      "d": 46.875,
      "v": 55
    },
    {
      "midi": 82,
      "hit": false,
      "t": 270895.8333333342,
      "d": 41.66666666668607,
      "v": 55
    },
    {
      "midi": 86,
      "hit": false,
      "t": 271005.2083333342,
      "d": 52.08333333337214,
      "v": 74
    },
    {
      "midi": 77,
      "hit": false,
      "t": 271031.2500000009,
      "d": 62.5,
      "v": 18
    },
    {
      "midi": 82,
      "hit": false,
      "t": 271109.3750000009,
      "d": 72.91666666668607,
      "v": 41
    },
    {
      "midi": 89,
      "hit": false,
      "t": 271151.04166666756,
      "d": 67.70833333331393,
      "v": 41
    },
    {
      "midi": 86,
      "hit": false,
      "t": 271229.16666666756,
      "d": 78.125,
      "v": 40
    },
    {
      "midi": 94,
      "hit": false,
      "t": 271255.20833333425,
      "d": 72.91666666662786,
      "v": 40
    },
    {
      "midi": 89,
      "hit": false,
      "t": 271364.5833333342,
      "d": 62.5,
      "v": 39
    },
    {
      "midi": 98,
      "hit": false,
      "t": 271364.5833333342,
      "d": 62.5,
      "v": 56
    },
    {
      "midi": 86,
      "hit": false,
      "t": 271473.9583333342,
      "d": 57.29166666668607,
      "v": 51
    },
    {
      "midi": 94,
      "hit": false,
      "t": 271484.3750000009,
      "d": 78.125,
      "v": 36
    },
    {
      "midi": 82,
      "hit": false,
      "t": 271588.54166666756,
      "d": 46.875,
      "v": 46
    },
    {
      "midi": 89,
      "hit": false,
      "t": 271614.58333333425,
      "d": 62.5,
      "v": 44
    },
    {
      "midi": 86,
      "hit": false,
      "t": 271697.91666666756,
      "d": 52.08333333331393,
      "v": 47
    },
    {
      "midi": 77,
      "hit": false,
      "t": 271750.0000000009,
      "d": 62.5,
      "v": 18
    },
    {
      "midi": 82,
      "hit": false,
      "t": 271812.5000000009,
      "d": 156.25,
      "v": 42
    },
    {
      "midi": 74,
      "hit": false,
      "t": 271838.54166666756,
      "d": 52.08333333331393,
      "v": 47
    },
    {
      "midi": 70,
      "hit": false,
      "t": 271953.1250000009,
      "d": 57.29166666668607,
      "v": 42
    },
    {
      "midi": 77,
      "hit": false,
      "t": 271953.1250000009,
      "d": 62.5,
      "v": 23
    },
    {
      "midi": 74,
      "hit": false,
      "t": 272078.1250000009,
      "d": 67.70833333337214,
      "v": 32
    },
    {
      "midi": 65,
      "hit": false,
      "t": 272104.16666666756,
      "d": 62.5,
      "v": 33
    },
    {
      "midi": 70,
      "hit": false,
      "t": 272229.16666666756,
      "d": 187.5000000000582,
      "v": 9
    },
    {
      "midi": 62,
      "hit": false,
      "t": 272239.58333333425,
      "d": 72.91666666668607,
      "v": 25
    },
    {
      "midi": 58,
      "hit": false,
      "t": 272354.1666666676,
      "d": 83.33333333331393,
      "v": 22
    },
    {
      "midi": 65,
      "hit": false,
      "t": 272375.00000000093,
      "d": 98.95833333331393,
      "v": 26
    },
    {
      "midi": 62,
      "hit": false,
      "t": 272593.75000000093,
      "d": 635.4166666666861,
      "v": 12
    },
    {
      "midi": 74,
      "hit": false,
      "t": 272609.37500000093,
      "d": 432.29166666668607,
      "v": 2
    },
    {
      "midi": 41,
      "hit": false,
      "t": 272880.20833333425,
      "d": 78.12500000005821,
      "v": 34
    },
    {
      "midi": 29,
      "hit": false,
      "t": 272890.62500000093,
      "d": 57.29166666668607,
      "v": 43
    },
    {
      "midi": 51,
      "hit": false,
      "t": 273375.00000000093,
      "d": 109.375,
      "v": 35
    },
    {
      "midi": 60,
      "hit": false,
      "t": 273416.6666666676,
      "d": 67.70833333331393,
      "v": 28
    },
    {
      "midi": 63,
      "hit": false,
      "t": 273536.45833333425,
      "d": 57.29166666668607,
      "v": 32
    },
    {
      "midi": 57,
      "hit": false,
      "t": 273593.75000000093,
      "d": 62.5,
      "v": 19
    },
    {
      "midi": 65,
      "hit": false,
      "t": 273635.4166666676,
      "d": 57.29166666662786,
      "v": 37
    },
    {
      "midi": 60,
      "hit": false,
      "t": 273718.75000000093,
      "d": 62.5,
      "v": 11
    },
    {
      "midi": 69,
      "hit": false,
      "t": 273760.4166666676,
      "d": 72.91666666662786,
      "v": 31
    },
    {
      "midi": 63,
      "hit": false,
      "t": 273854.16666666756,
      "d": 67.70833333337214,
      "v": 16
    },
    {
      "midi": 72,
      "hit": false,
      "t": 273880.20833333425,
      "d": 57.29166666668607,
      "v": 43
    },
    {
      "midi": 75,
      "hit": false,
      "t": 274000.00000000093,
      "d": 46.875,
      "v": 48
    },
    {
      "midi": 77,
      "hit": false,
      "t": 274109.37500000093,
      "d": 57.29166666668607,
      "v": 52
    },
    {
      "midi": 81,
      "hit": false,
      "t": 274229.1666666676,
      "d": 57.29166666662786,
      "v": 49
    },
    {
      "midi": 75,
      "hit": false,
      "t": 274265.62500000093,
      "d": 78.125,
      "v": 39
    },
    {
      "midi": 84,
      "hit": false,
      "t": 274359.37500000093,
      "d": 57.29166666668607,
      "v": 44
    },
    {
      "midi": 77,
      "hit": false,
      "t": 274390.62500000093,
      "d": 67.70833333337214,
      "v": 23
    },
    {
      "midi": 87,
      "hit": false,
      "t": 274468.750000001,
      "d": 52.08333333331393,
      "v": 36
    },
    {
      "midi": 84,
      "hit": false,
      "t": 274614.5833333343,
      "d": 62.5,
      "v": 28
    },
    {
      "midi": 89,
      "hit": false,
      "t": 274625.000000001,
      "d": 93.75,
      "v": 15
    },
    {
      "midi": 93,
      "hit": false,
      "t": 274734.375000001,
      "d": 72.91666666668607,
      "v": 34
    },
    {
      "midi": 96,
      "hit": false,
      "t": 274916.6666666677,
      "d": 78.125,
      "v": 31
    },
    {
      "midi": 72,
      "hit": false,
      "t": 274989.58333333436,
      "d": 260.41666666668607,
      "v": 44
    },
    {
      "midi": 93,
      "hit": false,
      "t": 275072.9166666677,
      "d": 72.91666666668607,
      "v": 20
    },
    {
      "midi": 89,
      "hit": false,
      "t": 275177.08333333436,
      "d": 72.91666666668607,
      "v": 28
    },
    {
      "midi": 87,
      "hit": false,
      "t": 275312.50000000105,
      "d": 109.375,
      "v": 20
    },
    {
      "midi": 84,
      "hit": false,
      "t": 275473.95833333436,
      "d": 67.70833333331393,
      "v": 25
    },
    {
      "midi": 75,
      "hit": false,
      "t": 275833.33333333436,
      "d": 130.20833333331393,
      "v": 28
    },
    {
      "midi": 72,
      "hit": false,
      "t": 276005.20833333436,
      "d": 88.54166666668607,
      "v": 29
    },
    {
      "midi": 69,
      "hit": false,
      "t": 276166.66666666773,
      "d": 93.75,
      "v": 22
    },
    {
      "midi": 65,
      "hit": false,
      "t": 276333.3333333344,
      "d": 98.95833333331393,
      "v": 33
    },
    {
      "midi": 63,
      "hit": false,
      "t": 276515.62500000105,
      "d": 380.20833333337214,
      "v": 31
    },
    {
      "midi": 34,
      "hit": false,
      "t": 276838.54166666773,
      "d": 208.33333333337214,
      "v": 22
    },
    {
      "midi": 58,
      "hit": false,
      "t": 276838.54166666773,
      "d": 312.5000000000582,
      "v": 28
    },
    {
      "midi": 46,
      "hit": false,
      "t": 276843.75000000105,
      "d": 244.79166666674428,
      "v": 20
    },
    {
      "midi": 70,
      "hit": false,
      "t": 276854.16666666773,
      "d": 614.5833333333721,
      "v": 41
    },
    {
      "midi": 41,
      "hit": false,
      "t": 276885.41666666773,
      "d": 151.04166666668607,
      "v": 26
    },
    {
      "midi": 62,
      "hit": false,
      "t": 277401.0416666678,
      "d": 171.8749999999418,
      "v": 30
    },
    {
      "midi": 65,
      "hit": false,
      "t": 277406.2500000011,
      "d": 145.83333333331393,
      "v": 25
    },
    {
      "midi": 58,
      "hit": false,
      "t": 277411.4583333344,
      "d": 135.41666666668607,
      "v": 23
    },
    {
      "midi": 50,
      "hit": false,
      "t": 277437.5000000011,
      "d": 130.20833333331393,
      "v": 22
    },
    {
      "midi": 53,
      "hit": false,
      "t": 277489.5833333344,
      "d": 57.29166666668607,
      "v": 9
    },
    {
      "midi": 70,
      "hit": false,
      "t": 277817.7083333344,
      "d": 104.16666666674428,
      "v": 35
    },
    {
      "midi": 58,
      "hit": false,
      "t": 277828.1250000011,
      "d": 83.33333333337214,
      "v": 25
    },
    {
      "midi": 53,
      "hit": false,
      "t": 277838.5416666678,
      "d": 57.29166666668607,
      "v": 46
    },
    {
      "midi": 62,
      "hit": false,
      "t": 277848.9583333345,
      "d": 78.125,
      "v": 19
    },
    {
      "midi": 65,
      "hit": false,
      "t": 277854.1666666678,
      "d": 57.29166666668607,
      "v": 27
    },
    {
      "midi": 86,
      "hit": false,
      "t": 278234.37500000116,
      "d": 119.79166666662786,
      "v": 43
    },
    {
      "midi": 82,
      "hit": false,
      "t": 278239.5833333345,
      "d": 72.91666666662786,
      "v": 31
    },
    {
      "midi": 70,
      "hit": false,
      "t": 278244.7916666678,
      "d": 78.125,
      "v": 27
    },
    {
      "midi": 65,
      "hit": false,
      "t": 278250.0000000011,
      "d": 83.33333333337214,
      "v": 15
    },
    {
      "midi": 74,
      "hit": false,
      "t": 278250.0000000011,
      "d": 208.33333333337214,
      "v": 30
    },
    {
      "midi": 58,
      "hit": false,
      "t": 278255.2083333344,
      "d": 125.00000000005821,
      "v": 24
    },
    {
      "midi": 65,
      "hit": false,
      "t": 278614.5833333345,
      "d": 67.70833333331393,
      "v": 31
    },
    {
      "midi": 77,
      "hit": false,
      "t": 278614.5833333345,
      "d": 78.125,
      "v": 33
    },
    {
      "midi": 82,
      "hit": false,
      "t": 278614.5833333345,
      "d": 197.91666666662786,
      "v": 26
    },
    {
      "midi": 62,
      "hit": false,
      "t": 278619.7916666678,
      "d": 109.375,
      "v": 32
    },
    {
      "midi": 70,
      "hit": false,
      "t": 278947.9166666678,
      "d": 57.29166666662786,
      "v": 41
    },
    {
      "midi": 77,
      "hit": false,
      "t": 278979.1666666678,
      "d": 98.95833333331393,
      "v": 29
    },
    {
      "midi": 74,
      "hit": false,
      "t": 279000.0000000011,
      "d": 83.33333333331393,
      "v": 28
    },
    {
      "midi": 65,
      "hit": false,
      "t": 279005.2083333344,
      "d": 57.29166666668607,
      "v": 25
    },
    {
      "midi": 34,
      "hit": false,
      "t": 279291.66666666773,
      "d": 62.5,
      "v": 49
    },
    {
      "midi": 46,
      "hit": false,
      "t": 279291.66666666773,
      "d": 104.16666666668607,
      "v": 15
    },
    {
      "midi": 62,
      "hit": false,
      "t": 279656.2500000011,
      "d": 93.74999999994179,
      "v": 37
    },
    {
      "midi": 58,
      "hit": false,
      "t": 279656.2500000011,
      "d": 114.58333333325572,
      "v": 37
    },
    {
      "midi": 65,
      "hit": false,
      "t": 279656.2500000011,
      "d": 114.58333333325572,
      "v": 40
    },
    {
      "midi": 53,
      "hit": false,
      "t": 279677.0833333344,
      "d": 72.91666666662786,
      "v": 49
    },
    {
      "midi": 50,
      "hit": false,
      "t": 279682.29166666773,
      "d": 88.54166666662786,
      "v": 29
    },
    {
      "midi": 70,
      "hit": false,
      "t": 280000.00000000105,
      "d": 57.29166666668607,
      "v": 54
    },
    {
      "midi": 58,
      "hit": false,
      "t": 280015.62500000105,
      "d": 67.70833333337214,
      "v": 14
    },
    {
      "midi": 62,
      "hit": false,
      "t": 280015.62500000105,
      "d": 67.70833333337214,
      "v": 28
    },
    {
      "midi": 65,
      "hit": false,
      "t": 280401.04166666773,
      "d": 83.33333333337214,
      "v": 36
    },
    {
      "midi": 86,
      "hit": false,
      "t": 280401.04166666773,
      "d": 177.08333333337214,
      "v": 64
    },
    {
      "midi": 77,
      "hit": false,
      "t": 280411.4583333344,
      "d": 140.625,
      "v": 41
    },
    {
      "midi": 74,
      "hit": false,
      "t": 280411.4583333344,
      "d": 156.25,
      "v": 51
    },
    {
      "midi": 62,
      "hit": false,
      "t": 280427.0833333344,
      "d": 57.29166666668607,
      "v": 32
    },
    {
      "midi": 82,
      "hit": false,
      "t": 280750.0000000011,
      "d": 156.25,
      "v": 52
    },
    {
      "midi": 58,
      "hit": false,
      "t": 280760.4166666678,
      "d": 83.33333333337214,
      "v": 27
    },
    {
      "midi": 74,
      "hit": false,
      "t": 280760.4166666678,
      "d": 88.54166666668607,
      "v": 46
    },
    {
      "midi": 77,
      "hit": false,
      "t": 280765.6250000011,
      "d": 67.70833333337214,
      "v": 46
    },
    {
      "midi": 62,
      "hit": false,
      "t": 280807.2916666678,
      "d": 72.91666666668607,
      "v": 22
    },
    {
      "midi": 65,
      "hit": false,
      "t": 280817.7083333345,
      "d": 67.70833333331393,
      "v": 21
    },
    {
      "midi": 62,
      "hit": false,
      "t": 281093.7500000011,
      "d": 62.5,
      "v": 38
    },
    {
      "midi": 77,
      "hit": false,
      "t": 281098.9583333344,
      "d": 72.91666666668607,
      "v": 44
    },
    {
      "midi": 74,
      "hit": false,
      "t": 281109.3750000011,
      "d": 78.125,
      "v": 41
    },
    {
      "midi": 70,
      "hit": false,
      "t": 281114.5833333344,
      "d": 52.08333333337214,
      "v": 43
    },
    {
      "midi": 65,
      "hit": false,
      "t": 281114.5833333344,
      "d": 67.70833333337214,
      "v": 22
    },
    {
      "midi": 34,
      "hit": false,
      "t": 281406.2500000011,
      "d": 46.875,
      "v": 57
    },
    {
      "midi": 46,
      "hit": false,
      "t": 281432.2916666678,
      "d": 62.5,
      "v": 15
    },
    {
      "midi": 70,
      "hit": false,
      "t": 281781.2500000011,
      "d": 187.5,
      "v": 40
    },
    {
      "midi": 58,
      "hit": false,
      "t": 281807.2916666678,
      "d": 98.95833333331393,
      "v": 35
    },
    {
      "midi": 62,
      "hit": false,
      "t": 281812.5000000011,
      "d": 83.33333333331393,
      "v": 36
    },
    {
      "midi": 65,
      "hit": false,
      "t": 281822.9166666678,
      "d": 83.33333333331393,
      "v": 19
    },
    {
      "midi": 50,
      "hit": false,
      "t": 281843.7500000011,
      "d": 72.91666666668607,
      "v": 39
    },
    {
      "midi": 74,
      "hit": false,
      "t": 282145.8333333344,
      "d": 72.91666666668607,
      "v": 58
    },
    {
      "midi": 65,
      "hit": false,
      "t": 282151.04166666773,
      "d": 57.29166666668607,
      "v": 42
    },
    {
      "midi": 70,
      "hit": false,
      "t": 282161.4583333344,
      "d": 57.29166666668607,
      "v": 38
    },
    {
      "midi": 62,
      "hit": false,
      "t": 282171.8750000011,
      "d": 62.5,
      "v": 38
    },
    {
      "midi": 58,
      "hit": false,
      "t": 282192.7083333344,
      "d": 57.29166666668607,
      "v": 9
    },
    {
      "midi": 89,
      "hit": false,
      "t": 282557.2916666678,
      "d": 338.54166666662786,
      "v": 79
    },
    {
      "midi": 77,
      "hit": false,
      "t": 282562.5000000011,
      "d": 182.29166666662786,
      "v": 59
    },
    {
      "midi": 82,
      "hit": false,
      "t": 282567.7083333344,
      "d": 119.79166666662786,
      "v": 43
    },
    {
      "midi": 74,
      "hit": false,
      "t": 282572.91666666773,
      "d": 72.91666666668607,
      "v": 56
    },
    {
      "midi": 70,
      "hit": false,
      "t": 282583.3333333344,
      "d": 83.33333333331393,
      "v": 33
    },
    {
      "midi": 65,
      "hit": false,
      "t": 282593.7500000011,
      "d": 78.12499999994179,
      "v": 39
    },
    {
      "midi": 82,
      "hit": false,
      "t": 282916.66666666773,
      "d": 125.00000000005821,
      "v": 45
    },
    {
      "midi": 77,
      "hit": false,
      "t": 282916.66666666773,
      "d": 177.08333333337214,
      "v": 48
    },
    {
      "midi": 65,
      "hit": false,
      "t": 282927.0833333344,
      "d": 78.125,
      "v": 30
    },
    {
      "midi": 70,
      "hit": false,
      "t": 282927.0833333344,
      "d": 135.41666666668607,
      "v": 41
    },
    {
      "midi": 86,
      "hit": false,
      "t": 282927.0833333344,
      "d": 218.75,
      "v": 60
    },
    {
      "midi": 62,
      "hit": false,
      "t": 282953.1250000011,
      "d": 62.5,
      "v": 43
    },
    {
      "midi": 74,
      "hit": false,
      "t": 283276.04166666773,
      "d": 52.08333333331393,
      "v": 48
    },
    {
      "midi": 82,
      "hit": false,
      "t": 283276.04166666773,
      "d": 67.70833333331393,
      "v": 49
    },
    {
      "midi": 70,
      "hit": false,
      "t": 283286.4583333344,
      "d": 57.29166666662786,
      "v": 43
    },
    {
      "midi": 77,
      "hit": false,
      "t": 283286.4583333344,
      "d": 78.125,
      "v": 47
    },
    {
      "midi": 65,
      "hit": false,
      "t": 283291.66666666773,
      "d": 62.5,
      "v": 38
    },
    {
      "midi": 34,
      "hit": false,
      "t": 283593.7500000011,
      "d": 41.66666666668607,
      "v": 71
    },
    {
      "midi": 46,
      "hit": false,
      "t": 283609.3750000011,
      "d": 72.91666666668607,
      "v": 34
    },
    {
      "midi": 68,
      "hit": false,
      "t": 283927.0833333345,
      "d": 72.91666666662786,
      "v": 51
    },
    {
      "midi": 65,
      "hit": false,
      "t": 283927.0833333345,
      "d": 88.54166666662786,
      "v": 58
    },
    {
      "midi": 74,
      "hit": false,
      "t": 283927.0833333345,
      "d": 140.6249999999418,
      "v": 70
    },
    {
      "midi": 56,
      "hit": false,
      "t": 283932.2916666678,
      "d": 52.08333333331393,
      "v": 56
    },
    {
      "midi": 53,
      "hit": false,
      "t": 283937.5000000011,
      "d": 57.29166666668607,
      "v": 66
    },
    {
      "midi": 62,
      "hit": false,
      "t": 283937.5000000011,
      "d": 57.29166666668607,
      "v": 49
    },
    {
      "midi": 77,
      "hit": false,
      "t": 284265.6250000011,
      "d": 109.375,
      "v": 81
    },
    {
      "midi": 68,
      "hit": false,
      "t": 284270.8333333344,
      "d": 41.66666666668607,
      "v": 56
    },
    {
      "midi": 56,
      "hit": false,
      "t": 284270.8333333344,
      "d": 52.08333333337214,
      "v": 54
    },
    {
      "midi": 65,
      "hit": false,
      "t": 284276.04166666773,
      "d": 46.87500000005821,
      "v": 57
    },
    {
      "midi": 74,
      "hit": false,
      "t": 284302.0833333344,
      "d": 57.29166666668607,
      "v": 37
    },
    {
      "midi": 92,
      "hit": false,
      "t": 284651.0416666678,
      "d": 322.91666666662786,
      "v": 78
    },
    {
      "midi": 80,
      "hit": false,
      "t": 284666.6666666678,
      "d": 145.83333333331393,
      "v": 59
    },
    {
      "midi": 77,
      "hit": false,
      "t": 284671.8750000011,
      "d": 78.125,
      "v": 63
    },
    {
      "midi": 68,
      "hit": false,
      "t": 284671.8750000011,
      "d": 140.625,
      "v": 52
    },
    {
      "midi": 86,
      "hit": false,
      "t": 284682.2916666678,
      "d": 62.5,
      "v": 50
    },
    {
      "midi": 74,
      "hit": false,
      "t": 284697.9166666678,
      "d": 57.29166666662786,
      "v": 40
    },
    {
      "midi": 80,
      "hit": false,
      "t": 285010.41666666773,
      "d": 119.79166666668607,
      "v": 67
    },
    {
      "midi": 68,
      "hit": false,
      "t": 285015.62500000105,
      "d": 151.04166666668607,
      "v": 35
    },
    {
      "midi": 74,
      "hit": false,
      "t": 285020.83333333436,
      "d": 83.33333333337214,
      "v": 62
    },
    {
      "midi": 89,
      "hit": false,
      "t": 285020.83333333436,
      "d": 177.08333333337214,
      "v": 68
    },
    {
      "midi": 65,
      "hit": false,
      "t": 285036.45833333436,
      "d": 57.29166666668607,
      "v": 47
    },
    {
      "midi": 86,
      "hit": false,
      "t": 285036.45833333436,
      "d": 67.70833333337214,
      "v": 46
    },
    {
      "midi": 77,
      "hit": false,
      "t": 285364.5833333344,
      "d": 46.875,
      "v": 53
    },
    {
      "midi": 80,
      "hit": false,
      "t": 285369.79166666773,
      "d": 151.04166666668607,
      "v": 61
    },
    {
      "midi": 86,
      "hit": false,
      "t": 285380.2083333344,
      "d": 109.375,
      "v": 69
    },
    {
      "midi": 68,
      "hit": false,
      "t": 285385.41666666773,
      "d": 119.79166666668607,
      "v": 39
    },
    {
      "midi": 74,
      "hit": false,
      "t": 285401.04166666773,
      "d": 57.29166666668607,
      "v": 39
    },
    {
      "midi": 46,
      "hit": false,
      "t": 285697.91666666773,
      "d": 156.25,
      "v": 71
    },
    {
      "midi": 34,
      "hit": false,
      "t": 285713.54166666773,
      "d": 114.58333333331393,
      "v": 66
    },
    {
      "midi": 70,
      "hit": false,
      "t": 286036.4583333344,
      "d": 177.08333333325572,
      "v": 56
    },
    {
      "midi": 63,
      "hit": false,
      "t": 286041.66666666773,
      "d": 124.99999999994179,
      "v": 64
    },
    {
      "midi": 67,
      "hit": false,
      "t": 286046.87500000105,
      "d": 98.95833333331393,
      "v": 52
    },
    {
      "midi": 58,
      "hit": false,
      "t": 286062.50000000105,
      "d": 88.54166666662786,
      "v": 42
    },
    {
      "midi": 55,
      "hit": false,
      "t": 286067.70833333436,
      "d": 67.70833333331393,
      "v": 45
    },
    {
      "midi": 51,
      "hit": false,
      "t": 286072.9166666677,
      "d": 260.41666666668607,
      "v": 42
    },
    {
      "midi": 63,
      "hit": false,
      "t": 286385.4166666677,
      "d": 109.37499999994179,
      "v": 60
    },
    {
      "midi": 75,
      "hit": false,
      "t": 286390.625000001,
      "d": 98.95833333331393,
      "v": 72
    },
    {
      "midi": 70,
      "hit": false,
      "t": 286395.8333333343,
      "d": 52.08333333331393,
      "v": 55
    },
    {
      "midi": 58,
      "hit": false,
      "t": 286432.2916666676,
      "d": 67.70833333331393,
      "v": 17
    },
    {
      "midi": 67,
      "hit": false,
      "t": 286437.50000000093,
      "d": 57.29166666668607,
      "v": 11
    },
    {
      "midi": 75,
      "hit": false,
      "t": 286786.45833333425,
      "d": 93.74999999994179,
      "v": 54
    },
    {
      "midi": 91,
      "hit": false,
      "t": 286791.66666666756,
      "d": 239.58333333331393,
      "v": 92
    },
    {
      "midi": 79,
      "hit": false,
      "t": 286796.8750000009,
      "d": 234.375,
      "v": 74
    },
    {
      "midi": 82,
      "hit": false,
      "t": 286807.29166666756,
      "d": 67.70833333331393,
      "v": 37
    },
    {
      "midi": 70,
      "hit": false,
      "t": 286812.5000000009,
      "d": 83.33333333331393,
      "v": 36
    },
    {
      "midi": 67,
      "hit": false,
      "t": 286822.91666666756,
      "d": 72.91666666662786,
      "v": 38
    },
    {
      "midi": 67,
      "hit": false,
      "t": 287171.8750000009,
      "d": 88.54166666668607,
      "v": 41
    },
    {
      "midi": 70,
      "hit": false,
      "t": 287171.8750000009,
      "d": 161.45833333331393,
      "v": 45
    },
    {
      "midi": 87,
      "hit": false,
      "t": 287171.8750000009,
      "d": 291.66666666668607,
      "v": 61
    },
    {
      "midi": 82,
      "hit": false,
      "t": 287182.29166666756,
      "d": 83.33333333331393,
      "v": 38
    },
    {
      "midi": 79,
      "hit": false,
      "t": 287182.29166666756,
      "d": 119.79166666662786,
      "v": 61
    },
    {
      "midi": 63,
      "hit": false,
      "t": 287192.70833333425,
      "d": 213.54166666662786,
      "v": 48
    },
    {
      "midi": 75,
      "hit": false,
      "t": 287546.8750000009,
      "d": 52.08333333331393,
      "v": 44
    },
    {
      "midi": 82,
      "hit": false,
      "t": 287552.0833333342,
      "d": 93.75,
      "v": 44
    },
    {
      "midi": 70,
      "hit": false,
      "t": 287572.9166666675,
      "d": 62.5,
      "v": 36
    },
    {
      "midi": 79,
      "hit": false,
      "t": 287572.9166666675,
      "d": 78.125,
      "v": 42
    },
    {
      "midi": 67,
      "hit": false,
      "t": 287583.3333333342,
      "d": 52.08333333331393,
      "v": 43
    },
    {
      "midi": 34,
      "hit": false,
      "t": 287906.2500000008,
      "d": 46.875,
      "v": 58
    },
    {
      "midi": 46,
      "hit": false,
      "t": 287906.2500000008,
      "d": 72.91666666668607,
      "v": 37
    },
    {
      "midi": 60,
      "hit": false,
      "t": 288234.3750000008,
      "d": 83.33333333325572,
      "v": 46
    },
    {
      "midi": 69,
      "hit": false,
      "t": 288234.3750000008,
      "d": 177.08333333325572,
      "v": 47
    },
    {
      "midi": 63,
      "hit": false,
      "t": 288239.5833333341,
      "d": 124.99999999994179,
      "v": 56
    },
    {
      "midi": 54,
      "hit": false,
      "t": 288244.79166666744,
      "d": 67.70833333331393,
      "v": 50
    },
    {
      "midi": 51,
      "hit": false,
      "t": 288244.79166666744,
      "d": 104.16666666662786,
      "v": 37
    },
    {
      "midi": 66,
      "hit": false,
      "t": 288250.00000000076,
      "d": 140.625,
      "v": 34
    },
    {
      "midi": 66,
      "hit": false,
      "t": 288562.50000000076,
      "d": 57.29166666668607,
      "v": 48
    },
    {
      "midi": 75,
      "hit": false,
      "t": 288562.50000000076,
      "d": 98.95833333337214,
      "v": 61
    },
    {
      "midi": 54,
      "hit": false,
      "t": 288572.91666666744,
      "d": 72.91666666668607,
      "v": 43
    },
    {
      "midi": 63,
      "hit": false,
      "t": 288578.12500000076,
      "d": 57.29166666668607,
      "v": 41
    },
    {
      "midi": 69,
      "hit": false,
      "t": 288583.33333333407,
      "d": 83.33333333337214,
      "v": 29
    },
    {
      "midi": 60,
      "hit": false,
      "t": 288593.75000000076,
      "d": 67.70833333337214,
      "v": 24
    },
    {
      "midi": 90,
      "hit": false,
      "t": 288916.66666666744,
      "d": 312.5,
      "v": 77
    },
    {
      "midi": 75,
      "hit": false,
      "t": 288932.29166666744,
      "d": 72.91666666668607,
      "v": 46
    },
    {
      "midi": 81,
      "hit": false,
      "t": 288932.29166666744,
      "d": 151.04166666662786,
      "v": 54
    },
    {
      "midi": 78,
      "hit": false,
      "t": 288942.7083333341,
      "d": 151.04166666662786,
      "v": 53
    },
    {
      "midi": 66,
      "hit": false,
      "t": 288958.3333333341,
      "d": 119.79166666662786,
      "v": 36
    },
    {
      "midi": 72,
      "hit": false,
      "t": 288968.7500000008,
      "d": 72.91666666662786,
      "v": 31
    },
    {
      "midi": 78,
      "hit": false,
      "t": 289265.62500000076,
      "d": 197.91666666662786,
      "v": 55
    },
    {
      "midi": 72,
      "hit": false,
      "t": 289276.04166666744,
      "d": 114.58333333331393,
      "v": 53
    },
    {
      "midi": 87,
      "hit": false,
      "t": 289276.04166666744,
      "d": 192.70833333325572,
      "v": 52
    },
    {
      "midi": 63,
      "hit": false,
      "t": 289291.66666666744,
      "d": 119.79166666662786,
      "v": 55
    },
    {
      "midi": 66,
      "hit": false,
      "t": 289296.87500000076,
      "d": 166.66666666662786,
      "v": 20
    },
    {
      "midi": 81,
      "hit": false,
      "t": 289302.08333333407,
      "d": 72.91666666668607,
      "v": 43
    },
    {
      "midi": 75,
      "hit": false,
      "t": 289671.8750000007,
      "d": 62.49999999994179,
      "v": 36
    },
    {
      "midi": 78,
      "hit": false,
      "t": 289677.083333334,
      "d": 187.5,
      "v": 55
    },
    {
      "midi": 81,
      "hit": false,
      "t": 289682.2916666673,
      "d": 125,
      "v": 56
    },
    {
      "midi": 66,
      "hit": false,
      "t": 289682.2916666673,
      "d": 140.625,
      "v": 35
    },
    {
      "midi": 34,
      "hit": false,
      "t": 290020.833333334,
      "d": 135.41666666662786,
      "v": 63
    },
    {
      "midi": 46,
      "hit": false,
      "t": 290020.833333334,
      "d": 140.6249999999418,
      "v": 47
    },
    {
      "midi": 70,
      "hit": false,
      "t": 290317.70833333395,
      "d": 223.95833333325572,
      "v": 48
    },
    {
      "midi": 62,
      "hit": false,
      "t": 290338.54166666727,
      "d": 78.12499999994179,
      "v": 43
    },
    {
      "midi": 58,
      "hit": false,
      "t": 290343.7500000006,
      "d": 135.41666666662786,
      "v": 38
    },
    {
      "midi": 65,
      "hit": false,
      "t": 290348.9583333339,
      "d": 78.125,
      "v": 31
    },
    {
      "midi": 53,
      "hit": false,
      "t": 290364.5833333339,
      "d": 67.70833333331393,
      "v": 38
    },
    {
      "midi": 50,
      "hit": false,
      "t": 290380.2083333339,
      "d": 109.375,
      "v": 40
    },
    {
      "midi": 70,
      "hit": false,
      "t": 290651.0416666672,
      "d": 52.08333333325572,
      "v": 38
    },
    {
      "midi": 74,
      "hit": false,
      "t": 290656.2500000005,
      "d": 57.29166666662786,
      "v": 70
    },
    {
      "midi": 65,
      "hit": false,
      "t": 290661.45833333384,
      "d": 57.29166666662786,
      "v": 43
    },
    {
      "midi": 58,
      "hit": false,
      "t": 290661.45833333384,
      "d": 78.12499999994179,
      "v": 30
    },
    {
      "midi": 62,
      "hit": false,
      "t": 290666.66666666715,
      "d": 72.91666666662786,
      "v": 42
    },
    {
      "midi": 53,
      "hit": false,
      "t": 290682.29166666715,
      "d": 67.70833333331393,
      "v": 43
    },
    {
      "midi": 89,
      "hit": false,
      "t": 291020.8333333338,
      "d": 380.20833333337214,
      "v": 69
    },
    {
      "midi": 82,
      "hit": false,
      "t": 291026.0416666671,
      "d": 145.83333333337214,
      "v": 48
    },
    {
      "midi": 77,
      "hit": false,
      "t": 291031.2500000004,
      "d": 156.2500000000582,
      "v": 49
    },
    {
      "midi": 74,
      "hit": false,
      "t": 291041.6666666671,
      "d": 62.5,
      "v": 54
    },
    {
      "midi": 70,
      "hit": false,
      "t": 291052.0833333338,
      "d": 83.33333333331393,
      "v": 31
    },
    {
      "midi": 65,
      "hit": false,
      "t": 291067.7083333338,
      "d": 78.125,
      "v": 32
    },
    {
      "midi": 70,
      "hit": false,
      "t": 291385.41666666715,
      "d": 166.66666666674428,
      "v": 41
    },
    {
      "midi": 86,
      "hit": false,
      "t": 291385.41666666715,
      "d": 208.33333333343035,
      "v": 58
    },
    {
      "midi": 77,
      "hit": false,
      "t": 291390.62500000047,
      "d": 151.04166666674428,
      "v": 39
    },
    {
      "midi": 82,
      "hit": false,
      "t": 291401.04166666715,
      "d": 88.54166666668607,
      "v": 28
    },
    {
      "midi": 65,
      "hit": false,
      "t": 291411.45833333384,
      "d": 72.91666666668607,
      "v": 22
    },
    {
      "midi": 62,
      "hit": false,
      "t": 291437.5000000005,
      "d": 93.75,
      "v": 19
    },
    {
      "midi": 74,
      "hit": false,
      "t": 291770.8333333339,
      "d": 62.50000000005821,
      "v": 39
    },
    {
      "midi": 82,
      "hit": false,
      "t": 291781.2500000006,
      "d": 93.75,
      "v": 40
    },
    {
      "midi": 70,
      "hit": false,
      "t": 291786.4583333339,
      "d": 67.70833333337214,
      "v": 32
    },
    {
      "midi": 77,
      "hit": false,
      "t": 291796.8750000006,
      "d": 78.125,
      "v": 33
    },
    {
      "midi": 65,
      "hit": false,
      "t": 291807.29166666727,
      "d": 62.5,
      "v": 24
    },
    {
      "midi": 34,
      "hit": false,
      "t": 292114.5833333339,
      "d": 114.58333333331393,
      "v": 52
    },
    {
      "midi": 46,
      "hit": false,
      "t": 292114.5833333339,
      "d": 140.625,
      "v": 38
    },
    {
      "midi": 61,
      "hit": false,
      "t": 292453.1250000006,
      "d": 104.16666666662786,
      "v": 44
    },
    {
      "midi": 64,
      "hit": false,
      "t": 292463.54166666727,
      "d": 72.91666666662786,
      "v": 33
    },
    {
      "midi": 67,
      "hit": false,
      "t": 292463.54166666727,
      "d": 187.4999999999418,
      "v": 41
    },
    {
      "midi": 52,
      "hit": false,
      "t": 292484.3750000006,
      "d": 67.70833333331393,
      "v": 15
    },
    {
      "midi": 49,
      "hit": false,
      "t": 292484.3750000006,
      "d": 83.33333333331393,
      "v": 45
    },
    {
      "midi": 55,
      "hit": false,
      "t": 292484.3750000006,
      "d": 83.33333333331393,
      "v": 31
    },
    {
      "midi": 61,
      "hit": false,
      "t": 292812.5000000005,
      "d": 83.33333333337214,
      "v": 38
    },
    {
      "midi": 73,
      "hit": false,
      "t": 292812.5000000005,
      "d": 104.16666666668607,
      "v": 53
    },
    {
      "midi": 64,
      "hit": false,
      "t": 292822.9166666672,
      "d": 46.875,
      "v": 52
    },
    {
      "midi": 52,
      "hit": false,
      "t": 292822.9166666672,
      "d": 57.29166666668607,
      "v": 36
    },
    {
      "midi": 67,
      "hit": false,
      "t": 292833.3333333339,
      "d": 62.5,
      "v": 40
    },
    {
      "midi": 88,
      "hit": false,
      "t": 293239.5833333339,
      "d": 218.75,
      "v": 60
    },
    {
      "midi": 79,
      "hit": false,
      "t": 293250.0000000006,
      "d": 125,
      "v": 35
    },
    {
      "midi": 73,
      "hit": false,
      "t": 293260.41666666727,
      "d": 83.33333333331393,
      "v": 23
    },
    {
      "midi": 76,
      "hit": false,
      "t": 293260.41666666727,
      "d": 135.41666666662786,
      "v": 24
    },
    {
      "midi": 67,
      "hit": false,
      "t": 293276.04166666727,
      "d": 83.33333333331393,
      "v": 26
    },
    {
      "midi": 64,
      "hit": false,
      "t": 293281.2500000006,
      "d": 72.91666666668607,
      "v": 28
    },
    {
      "midi": 85,
      "hit": false,
      "t": 293625.0000000006,
      "d": 171.875,
      "v": 58
    },
    {
      "midi": 76,
      "hit": false,
      "t": 293635.41666666727,
      "d": 161.45833333331393,
      "v": 32
    },
    {
      "midi": 61,
      "hit": false,
      "t": 293640.6250000006,
      "d": 197.91666666668607,
      "v": 36
    },
    {
      "midi": 79,
      "hit": false,
      "t": 293651.04166666727,
      "d": 104.16666666662786,
      "v": 37
    },
    {
      "midi": 67,
      "hit": false,
      "t": 293656.2500000006,
      "d": 109.375,
      "v": 27
    },
    {
      "midi": 64,
      "hit": false,
      "t": 293677.0833333339,
      "d": 78.125,
      "v": 17
    },
    {
      "midi": 79,
      "hit": false,
      "t": 294041.66666666727,
      "d": 135.41666666668607,
      "v": 49
    },
    {
      "midi": 73,
      "hit": false,
      "t": 294052.08333333395,
      "d": 78.12499999994179,
      "v": 21
    },
    {
      "midi": 76,
      "hit": false,
      "t": 294057.29166666727,
      "d": 135.41666666668607,
      "v": 30
    },
    {
      "midi": 64,
      "hit": false,
      "t": 294078.1250000006,
      "d": 78.125,
      "v": 32
    },
    {
      "midi": 67,
      "hit": false,
      "t": 294093.7500000006,
      "d": 72.91666666668607,
      "v": 22
    },
    {
      "midi": 34,
      "hit": false,
      "t": 294416.66666666727,
      "d": 130.20833333337214,
      "v": 52
    },
    {
      "midi": 46,
      "hit": false,
      "t": 294416.66666666727,
      "d": 156.25,
      "v": 32
    },
    {
      "midi": 66,
      "hit": false,
      "t": 294781.2500000006,
      "d": 192.70833333331393,
      "v": 39
    },
    {
      "midi": 48,
      "hit": false,
      "t": 294791.66666666727,
      "d": 213.54166666662786,
      "v": 32
    },
    {
      "midi": 63,
      "hit": false,
      "t": 294796.8750000006,
      "d": 88.54166666668607,
      "v": 31
    },
    {
      "midi": 54,
      "hit": false,
      "t": 294802.0833333339,
      "d": 83.33333333337214,
      "v": 44
    },
    {
      "midi": 60,
      "hit": false,
      "t": 294802.0833333339,
      "d": 104.16666666668607,
      "v": 36
    },
    {
      "midi": 51,
      "hit": false,
      "t": 294812.5000000006,
      "d": 78.125,
      "v": 25
    },
    {
      "midi": 72,
      "hit": false,
      "t": 295135.4166666672,
      "d": 98.95833333337214,
      "v": 47
    },
    {
      "midi": 63,
      "hit": false,
      "t": 295145.8333333339,
      "d": 41.66666666668607,
      "v": 55
    },
    {
      "midi": 51,
      "hit": false,
      "t": 295145.8333333339,
      "d": 72.91666666668607,
      "v": 27
    },
    {
      "midi": 66,
      "hit": false,
      "t": 295145.8333333339,
      "d": 72.91666666668607,
      "v": 34
    },
    {
      "midi": 54,
      "hit": false,
      "t": 295156.2500000006,
      "d": 72.91666666668607,
      "v": 24
    },
    {
      "midi": 60,
      "hit": false,
      "t": 295161.4583333339,
      "d": 83.33333333337214,
      "v": 25
    },
    {
      "midi": 87,
      "hit": false,
      "t": 295567.70833333395,
      "d": 302.08333333337214,
      "v": 50
    },
    {
      "midi": 75,
      "hit": false,
      "t": 295583.33333333395,
      "d": 114.58333333337214,
      "v": 41
    },
    {
      "midi": 78,
      "hit": false,
      "t": 295593.75000000064,
      "d": 72.91666666668607,
      "v": 33
    },
    {
      "midi": 63,
      "hit": false,
      "t": 295593.75000000064,
      "d": 93.75,
      "v": 41
    },
    {
      "midi": 66,
      "hit": false,
      "t": 295609.37500000064,
      "d": 62.5,
      "v": 4
    },
    {
      "midi": 72,
      "hit": false,
      "t": 295609.37500000064,
      "d": 78.125,
      "v": 22
    },
    {
      "midi": 75,
      "hit": false,
      "t": 295973.958333334,
      "d": 140.625,
      "v": 22
    },
    {
      "midi": 78,
      "hit": false,
      "t": 295979.1666666673,
      "d": 93.75,
      "v": 33
    },
    {
      "midi": 66,
      "hit": false,
      "t": 295989.583333334,
      "d": 83.33333333331393,
      "v": 17
    },
    {
      "midi": 84,
      "hit": false,
      "t": 295994.7916666673,
      "d": 88.54166666668607,
      "v": 29
    },
    {
      "midi": 60,
      "hit": false,
      "t": 295994.7916666673,
      "d": 130.20833333337214,
      "v": 22
    },
    {
      "midi": 63,
      "hit": false,
      "t": 296000.00000000064,
      "d": 88.54166666668607,
      "v": 22
    },
    {
      "midi": 63,
      "hit": false,
      "t": 296385.4166666674,
      "d": 104.16666666662786,
      "v": 36
    },
    {
      "midi": 72,
      "hit": false,
      "t": 296390.6250000007,
      "d": 78.125,
      "v": 23
    },
    {
      "midi": 75,
      "hit": false,
      "t": 296390.6250000007,
      "d": 104.16666666662786,
      "v": 22
    },
    {
      "midi": 78,
      "hit": false,
      "t": 296390.6250000007,
      "d": 124.99999999994179,
      "v": 30
    },
    {
      "midi": 66,
      "hit": false,
      "t": 296395.833333334,
      "d": 72.91666666668607,
      "v": 24
    },
    {
      "midi": 34,
      "hit": false,
      "t": 296729.1666666673,
      "d": 88.54166666662786,
      "v": 53
    },
    {
      "midi": 46,
      "hit": false,
      "t": 296750.00000000064,
      "d": 93.75,
      "v": 28
    },
    {
      "midi": 54,
      "hit": false,
      "t": 297088.5416666673,
      "d": 98.95833333325572,
      "v": 56
    },
    {
      "midi": 60,
      "hit": false,
      "t": 297093.75000000064,
      "d": 93.74999999994179,
      "v": 35
    },
    {
      "midi": 66,
      "hit": false,
      "t": 297093.75000000064,
      "d": 182.29166666662786,
      "v": 42
    },
    {
      "midi": 48,
      "hit": false,
      "t": 297098.95833333395,
      "d": 104.16666666662786,
      "v": 23
    },
    {
      "midi": 63,
      "hit": false,
      "t": 297104.16666666727,
      "d": 98.95833333331393,
      "v": 35
    },
    {
      "midi": 63,
      "hit": false,
      "t": 297447.91666666727,
      "d": 46.87499999994179,
      "v": 58
    },
    {
      "midi": 69,
      "hit": false,
      "t": 297447.91666666727,
      "d": 52.08333333325572,
      "v": 46
    },
    {
      "midi": 66,
      "hit": false,
      "t": 297453.1250000006,
      "d": 57.29166666662786,
      "v": 41
    },
    {
      "midi": 57,
      "hit": false,
      "t": 297458.3333333339,
      "d": 78.125,
      "v": 39
    },
    {
      "midi": 84,
      "hit": false,
      "t": 297848.9583333339,
      "d": 145.83333333331393,
      "v": 70
    },
    {
      "midi": 69,
      "hit": false,
      "t": 297869.7916666672,
      "d": 78.125,
      "v": 31
    },
    {
      "midi": 72,
      "hit": false,
      "t": 297875.0000000005,
      "d": 114.58333333337214,
      "v": 29
    },
    {
      "midi": 63,
      "hit": false,
      "t": 297885.4166666672,
      "d": 78.125,
      "v": 42
    },
    {
      "midi": 75,
      "hit": false,
      "t": 297885.4166666672,
      "d": 109.375,
      "v": 21
    },
    {
      "midi": 66,
      "hit": false,
      "t": 297916.6666666672,
      "d": 78.125,
      "v": 11
    },
    {
      "midi": 75,
      "hit": false,
      "t": 298234.3750000005,
      "d": 83.33333333337214,
      "v": 33
    },
    {
      "midi": 81,
      "hit": false,
      "t": 298239.58333333384,
      "d": 88.54166666674428,
      "v": 47
    },
    {
      "midi": 72,
      "hit": false,
      "t": 298250.0000000005,
      "d": 83.33333333337214,
      "v": 29
    },
    {
      "midi": 63,
      "hit": false,
      "t": 298260.4166666672,
      "d": 83.33333333337214,
      "v": 18
    },
    {
      "midi": 60,
      "hit": false,
      "t": 298260.4166666672,
      "d": 93.75000000005821,
      "v": 24
    },
    {
      "midi": 66,
      "hit": false,
      "t": 298260.4166666672,
      "d": 109.37500000005821,
      "v": 24
    },
    {
      "midi": 78,
      "hit": false,
      "t": 298614.58333333395,
      "d": 187.5,
      "v": 39
    },
    {
      "midi": 69,
      "hit": false,
      "t": 298619.79166666727,
      "d": 72.91666666668607,
      "v": 27
    },
    {
      "midi": 66,
      "hit": false,
      "t": 298630.20833333395,
      "d": 72.91666666668607,
      "v": 19
    },
    {
      "midi": 72,
      "hit": false,
      "t": 298630.20833333395,
      "d": 98.95833333331393,
      "v": 17
    },
    {
      "midi": 75,
      "hit": false,
      "t": 298630.20833333395,
      "d": 130.20833333331393,
      "v": 19
    },
    {
      "midi": 63,
      "hit": false,
      "t": 298635.41666666727,
      "d": 72.91666666668607,
      "v": 28
    },
    {
      "midi": 46,
      "hit": false,
      "t": 298979.16666666727,
      "d": 114.58333333331393,
      "v": 25
    },
    {
      "midi": 34,
      "hit": false,
      "t": 299000.0000000006,
      "d": 67.70833333331393,
      "v": 26
    },
    {
      "midi": 63,
      "hit": false,
      "t": 299343.7500000006,
      "d": 156.2499999999418,
      "v": 47
    },
    {
      "midi": 60,
      "hit": false,
      "t": 299354.16666666727,
      "d": 98.95833333331393,
      "v": 18
    },
    {
      "midi": 57,
      "hit": false,
      "t": 299364.58333333395,
      "d": 109.37499999994179,
      "v": 22
    },
    {
      "midi": 54,
      "hit": false,
      "t": 299375.00000000064,
      "d": 72.91666666662786,
      "v": 41
    },
    {
      "midi": 48,
      "hit": false,
      "t": 299380.20833333395,
      "d": 98.95833333325572,
      "v": 18
    },
    {
      "midi": 66,
      "hit": false,
      "t": 299708.33333333384,
      "d": 88.54166666656965,
      "v": 41
    },
    {
      "midi": 54,
      "hit": false,
      "t": 299713.54166666715,
      "d": 52.08333333331393,
      "v": 9
    },
    {
      "midi": 63,
      "hit": false,
      "t": 299713.54166666715,
      "d": 57.29166666662786,
      "v": 37
    },
    {
      "midi": 51,
      "hit": false,
      "t": 299718.75000000047,
      "d": 57.29166666662786,
      "v": 10
    },
    {
      "midi": 60,
      "hit": false,
      "t": 299718.75000000047,
      "d": 72.91666666662786,
      "v": 34
    },
    {
      "midi": 57,
      "hit": false,
      "t": 299718.75000000047,
      "d": 83.33333333325572,
      "v": 36
    },
    {
      "midi": 72,
      "hit": false,
      "t": 300114.5833333337,
      "d": 124.99999999994179,
      "v": 31
    },
    {
      "midi": 81,
      "hit": false,
      "t": 300119.79166666704,
      "d": 130.20833333331393,
      "v": 46
    },
    {
      "midi": 66,
      "hit": false,
      "t": 300130.2083333337,
      "d": 88.54166666662786,
      "v": 30
    },
    {
      "midi": 69,
      "hit": false,
      "t": 300130.2083333337,
      "d": 177.08333333331393,
      "v": 26
    },
    {
      "midi": 63,
      "hit": false,
      "t": 300151.04166666704,
      "d": 72.91666666662786,
      "v": 22
    },
    {
      "midi": 78,
      "hit": false,
      "t": 300500.00000000035,
      "d": 93.75,
      "v": 41
    },
    {
      "midi": 63,
      "hit": false,
      "t": 300510.41666666704,
      "d": 72.91666666662786,
      "v": 28
    },
    {
      "midi": 69,
      "hit": false,
      "t": 300531.25000000035,
      "d": 109.375,
      "v": 16
    },
    {
      "midi": 60,
      "hit": false,
      "t": 300536.45833333366,
      "d": 98.95833333337214,
      "v": 18
    },
    {
      "midi": 72,
      "hit": false,
      "t": 300546.87500000035,
      "d": 93.75,
      "v": 13
    },
    {
      "midi": 66,
      "hit": false,
      "t": 300906.25000000035,
      "d": 67.70833333331393,
      "v": 26
    },
    {
      "midi": 75,
      "hit": false,
      "t": 300911.45833333366,
      "d": 166.66666666662786,
      "v": 23
    },
    {
      "midi": 63,
      "hit": false,
      "t": 300927.08333333366,
      "d": 67.70833333331393,
      "v": 23
    },
    {
      "midi": 69,
      "hit": false,
      "t": 300927.08333333366,
      "d": 130.20833333331393,
      "v": 8
    },
    {
      "midi": 72,
      "hit": false,
      "t": 300937.50000000035,
      "d": 104.16666666662786,
      "v": 10
    },
    {
      "midi": 46,
      "hit": false,
      "t": 301265.6250000003,
      "d": 156.25,
      "v": 28
    },
    {
      "midi": 34,
      "hit": false,
      "t": 301291.666666667,
      "d": 125,
      "v": 29
    },
    {
      "midi": 57,
      "hit": false,
      "t": 301656.2500000003,
      "d": 114.58333333337214,
      "v": 23
    },
    {
      "midi": 51,
      "hit": false,
      "t": 301666.666666667,
      "d": 93.75,
      "v": 25
    },
    {
      "midi": 60,
      "hit": false,
      "t": 301666.666666667,
      "d": 125,
      "v": 23
    },
    {
      "midi": 54,
      "hit": false,
      "t": 301682.291666667,
      "d": 67.70833333331393,
      "v": 41
    },
    {
      "midi": 60,
      "hit": false,
      "t": 302010.416666667,
      "d": 67.70833333331393,
      "v": 19
    },
    {
      "midi": 63,
      "hit": false,
      "t": 302020.83333333366,
      "d": 62.49999999994179,
      "v": 47
    },
    {
      "midi": 57,
      "hit": false,
      "t": 302020.83333333366,
      "d": 88.54166666656965,
      "v": 31
    },
    {
      "midi": 54,
      "hit": false,
      "t": 302026.041666667,
      "d": 62.49999999994179,
      "v": 31
    },
    {
      "midi": 78,
      "hit": false,
      "t": 302437.50000000023,
      "d": 239.58333333331393,
      "v": 49
    },
    {
      "midi": 69,
      "hit": false,
      "t": 302468.75000000023,
      "d": 125,
      "v": 21
    },
    {
      "midi": 63,
      "hit": false,
      "t": 302473.95833333355,
      "d": 72.91666666668607,
      "v": 30
    },
    {
      "midi": 60,
      "hit": false,
      "t": 302473.95833333355,
      "d": 88.54166666668607,
      "v": 13
    },
    {
      "midi": 66,
      "hit": false,
      "t": 302473.95833333355,
      "d": 104.16666666668607,
      "v": 21
    },
    {
      "midi": 75,
      "hit": false,
      "t": 302848.95833333355,
      "d": 302.08333333331393,
      "v": 29
    },
    {
      "midi": 66,
      "hit": false,
      "t": 302869.79166666686,
      "d": 135.41666666668607,
      "v": 11
    },
    {
      "midi": 69,
      "hit": false,
      "t": 302880.20833333355,
      "d": 109.375,
      "v": 13
    },
    {
      "midi": 60,
      "hit": false,
      "t": 302901.04166666686,
      "d": 93.75,
      "v": 11
    },
    {
      "midi": 54,
      "hit": false,
      "t": 302901.04166666686,
      "d": 166.66666666668607,
      "v": 12
    },
    {
      "midi": 60,
      "hit": false,
      "t": 303239.58333333355,
      "d": 88.54166666662786,
      "v": 22
    },
    {
      "midi": 72,
      "hit": false,
      "t": 303260.41666666686,
      "d": 109.37499999994179,
      "v": 23
    },
    {
      "midi": 63,
      "hit": false,
      "t": 303265.6250000002,
      "d": 67.70833333331393,
      "v": 27
    },
    {
      "midi": 69,
      "hit": false,
      "t": 303270.8333333335,
      "d": 93.75,
      "v": 14
    },
    {
      "midi": 66,
      "hit": false,
      "t": 303270.8333333335,
      "d": 130.20833333331393,
      "v": 5
    },
    {
      "midi": 46,
      "hit": false,
      "t": 303557.2916666668,
      "d": 203.125,
      "v": 35
    },
    {
      "midi": 53,
      "hit": false,
      "t": 303666.6666666668,
      "d": 62.5,
      "v": 55
    },
    {
      "midi": 77,
      "hit": false,
      "t": 303859.3750000001,
      "d": 244.79166666668607,
      "v": 63
    },
    {
      "midi": 65,
      "hit": false,
      "t": 303869.7916666668,
      "d": 328.125,
      "v": 33
    },
    {
      "midi": 70,
      "hit": false,
      "t": 303880.2083333335,
      "d": 244.79166666662786,
      "v": 19
    },
    {
      "midi": 62,
      "hit": false,
      "t": 303906.2500000002,
      "d": 98.95833333331393,
      "v": 28
    },
    {
      "midi": 58,
      "hit": false,
      "t": 304432.2916666668,
      "d": 119.79166666668607,
      "v": 43
    },
    {
      "midi": 74,
      "hit": false,
      "t": 304432.2916666668,
      "d": 182.29166666668607,
      "v": 60
    },
    {
      "midi": 65,
      "hit": false,
      "t": 304447.9166666668,
      "d": 125,
      "v": 35
    },
    {
      "midi": 62,
      "hit": false,
      "t": 304875.0000000002,
      "d": 88.54166666668607,
      "v": 35
    },
    {
      "midi": 70,
      "hit": false,
      "t": 304875.0000000002,
      "d": 104.16666666668607,
      "v": 40
    },
    {
      "midi": 58,
      "hit": false,
      "t": 304890.6250000002,
      "d": 88.54166666668607,
      "v": 24
    },
    {
      "midi": 53,
      "hit": false,
      "t": 304901.04166666686,
      "d": 67.70833333331393,
      "v": 30
    },
    {
      "midi": 65,
      "hit": false,
      "t": 305343.7500000002,
      "d": 140.625,
      "v": 19
    },
    {
      "midi": 74,
      "hit": false,
      "t": 305354.16666666686,
      "d": 145.83333333331393,
      "v": 38
    },
    {
      "midi": 62,
      "hit": false,
      "t": 305359.3750000002,
      "d": 72.91666666668607,
      "v": 35
    },
    {
      "midi": 53,
      "hit": false,
      "t": 305364.5833333335,
      "d": 78.12500000005821,
      "v": 24
    },
    {
      "midi": 58,
      "hit": false,
      "t": 305364.5833333335,
      "d": 93.75000000005821,
      "v": 19
    },
    {
      "midi": 46,
      "hit": false,
      "t": 305375.0000000002,
      "d": 104.16666666668607,
      "v": 25
    },
    {
      "midi": 70,
      "hit": false,
      "t": 305739.5833333335,
      "d": 83.33333333337214,
      "v": 35
    },
    {
      "midi": 53,
      "hit": false,
      "t": 305755.2083333335,
      "d": 78.12500000005821,
      "v": 49
    },
    {
      "midi": 58,
      "hit": false,
      "t": 305755.2083333335,
      "d": 88.54166666674428,
      "v": 25
    },
    {
      "midi": 62,
      "hit": false,
      "t": 305765.6250000002,
      "d": 93.75000000005821,
      "v": 25
    },
    {
      "midi": 58,
      "hit": false,
      "t": 306114.58333333355,
      "d": 93.74999999994179,
      "v": 39
    },
    {
      "midi": 50,
      "hit": false,
      "t": 306119.79166666686,
      "d": 109.37499999994179,
      "v": 40
    },
    {
      "midi": 65,
      "hit": false,
      "t": 306140.6250000002,
      "d": 88.54166666662786,
      "v": 35
    },
    {
      "midi": 70,
      "hit": false,
      "t": 306479.1666666668,
      "d": 213.54166666668607,
      "v": 40
    },
    {
      "midi": 62,
      "hit": false,
      "t": 306489.5833333335,
      "d": 83.33333333331393,
      "v": 34
    },
    {
      "midi": 46,
      "hit": false,
      "t": 306489.5833333335,
      "d": 109.375,
      "v": 29
    },
    {
      "midi": 58,
      "hit": false,
      "t": 306843.7500000002,
      "d": 156.2500000000582,
      "v": 22
    },
    {
      "midi": 65,
      "hit": false,
      "t": 306859.3750000002,
      "d": 57.29166666668607,
      "v": 36
    },
    {
      "midi": 50,
      "hit": false,
      "t": 306859.3750000002,
      "d": 98.95833333337214,
      "v": 19
    },
    {
      "midi": 46,
      "hit": false,
      "t": 307177.08333333355,
      "d": 52.08333333337214,
      "v": 39
    },
    {
      "midi": 62,
      "hit": false,
      "t": 307218.75000000023,
      "d": 177.08333333337214,
      "v": 41
    },
    {
      "midi": 53,
      "hit": false,
      "t": 307229.1666666669,
      "d": 88.54166666668607,
      "v": 50
    },
    {
      "midi": 34,
      "hit": false,
      "t": 307385.4166666669,
      "d": 72.91666666668607,
      "v": 46
    },
    {
      "midi": 65,
      "hit": false,
      "t": 307588.5416666669,
      "d": 78.125,
      "v": 45
    },
    {
      "midi": 50,
      "hit": false,
      "t": 307593.75000000023,
      "d": 62.5,
      "v": 49
    },
    {
      "midi": 58,
      "hit": false,
      "t": 307593.75000000023,
      "d": 83.33333333337214,
      "v": 30
    },
    {
      "midi": 62,
      "hit": false,
      "t": 307942.7083333336,
      "d": 114.58333333331393,
      "v": 52
    },
    {
      "midi": 46,
      "hit": false,
      "t": 307958.3333333336,
      "d": 78.125,
      "v": 23
    },
    {
      "midi": 53,
      "hit": false,
      "t": 307968.7500000003,
      "d": 67.70833333331393,
      "v": 40
    },
    {
      "midi": 58,
      "hit": false,
      "t": 308276.0416666669,
      "d": 114.58333333331393,
      "v": 32
    },
    {
      "midi": 41,
      "hit": false,
      "t": 308281.25000000023,
      "d": 62.5,
      "v": 35
    },
    {
      "midi": 50,
      "hit": false,
      "t": 308302.08333333355,
      "d": 67.70833333337214,
      "v": 36
    },
    {
      "midi": 62,
      "hit": false,
      "t": 308625.00000000023,
      "d": 187.4999999999418,
      "v": 40
    },
    {
      "midi": 53,
      "hit": false,
      "t": 308630.20833333355,
      "d": 140.6249999999418,
      "v": 43
    },
    {
      "midi": 41,
      "hit": false,
      "t": 308635.41666666686,
      "d": 67.70833333331393,
      "v": 28
    },
    {
      "midi": 46,
      "hit": false,
      "t": 308635.41666666686,
      "d": 83.33333333331393,
      "v": 22
    },
    {
      "midi": 34,
      "hit": false,
      "t": 308635.41666666686,
      "d": 234.375,
      "v": 29
    },
    {
      "midi": 41,
      "hit": false,
      "t": 308994.79166666686,
      "d": 78.12499999994179,
      "v": 23
    },
    {
      "midi": 46,
      "hit": false,
      "t": 309000.0000000002,
      "d": 67.70833333331393,
      "v": 17
    },
    {
      "midi": 58,
      "hit": false,
      "t": 309000.0000000002,
      "d": 93.75,
      "v": 26
    },
    {
      "midi": 50,
      "hit": false,
      "t": 309005.2083333335,
      "d": 78.125,
      "v": 30
    },
    {
      "midi": 38,
      "hit": false,
      "t": 309354.16666666686,
      "d": 72.91666666662786,
      "v": 39
    },
    {
      "midi": 46,
      "hit": false,
      "t": 309369.79166666686,
      "d": 78.12499999994179,
      "v": 28
    },
    {
      "midi": 53,
      "hit": false,
      "t": 309406.2500000002,
      "d": 57.29166666662786,
      "v": 59
    },
    {
      "midi": 46,
      "hit": false,
      "t": 309739.5833333335,
      "d": 156.2500000000582,
      "v": 28
    },
    {
      "midi": 41,
      "hit": false,
      "t": 309750.0000000002,
      "d": 83.33333333337214,
      "v": 21
    },
    {
      "midi": 34,
      "hit": false,
      "t": 309750.0000000002,
      "d": 546.875,
      "v": 30
    },
    {
      "midi": 53,
      "hit": false,
      "t": 309760.41666666686,
      "d": 83.33333333337214,
      "v": 34
    },
    {
      "midi": 62,
      "hit": false,
      "t": 309760.41666666686,
      "d": 177.08333333331393,
      "v": 45
    },
    {
      "midi": 58,
      "hit": false,
      "t": 310119.79166666686,
      "d": 119.79166666662786,
      "v": 32
    },
    {
      "midi": 46,
      "hit": false,
      "t": 310125.0000000002,
      "d": 72.91666666662786,
      "v": 28
    },
    {
      "midi": 41,
      "hit": false,
      "t": 310125.0000000002,
      "d": 83.33333333331393,
      "v": 16
    },
    {
      "midi": 50,
      "hit": false,
      "t": 310130.2083333335,
      "d": 83.33333333331393,
      "v": 30
    },
    {
      "midi": 38,
      "hit": false,
      "t": 310484.3750000002,
      "d": 98.95833333331393,
      "v": 37
    },
    {
      "midi": 46,
      "hit": false,
      "t": 310489.5833333335,
      "d": 93.75,
      "v": 22
    },
    {
      "midi": 34,
      "hit": false,
      "t": 310869.7916666668,
      "d": 197.91666666662786,
      "v": 25
    },
    {
      "midi": 46,
      "hit": false,
      "t": 310880.2083333335,
      "d": 98.95833333331393,
      "v": 26
    },
    {
      "midi": 62,
      "hit": false,
      "t": 310880.2083333335,
      "d": 161.45833333331393,
      "v": 35
    },
    {
      "midi": 53,
      "hit": false,
      "t": 310885.4166666668,
      "d": 161.45833333331393,
      "v": 25
    },
    {
      "midi": 58,
      "hit": false,
      "t": 311239.58333333343,
      "d": 208.33333333331393,
      "v": 18
    },
    {
      "midi": 46,
      "hit": false,
      "t": 311250.0000000001,
      "d": 83.33333333331393,
      "v": 21
    },
    {
      "midi": 41,
      "hit": false,
      "t": 311250.0000000001,
      "d": 104.16666666662786,
      "v": 33
    },
    {
      "midi": 50,
      "hit": false,
      "t": 311255.20833333343,
      "d": 98.95833333331393,
      "v": 22
    },
    {
      "midi": 53,
      "hit": false,
      "t": 311635.41666666674,
      "d": 119.79166666662786,
      "v": 37
    },
    {
      "midi": 46,
      "hit": false,
      "t": 311640.62500000006,
      "d": 114.58333333331393,
      "v": 13
    },
    {
      "midi": 38,
      "hit": false,
      "t": 311640.62500000006,
      "d": 125,
      "v": 25
    },
    {
      "midi": 46,
      "hit": false,
      "t": 312031.25000000006,
      "d": 125,
      "v": 26
    },
    {
      "midi": 34,
      "hit": false,
      "t": 312031.25000000006,
      "d": 229.16666666662786,
      "v": 20
    },
    {
      "midi": 53,
      "hit": false,
      "t": 312041.66666666674,
      "d": 119.79166666662786,
      "v": 34
    },
    {
      "midi": 62,
      "hit": false,
      "t": 312046.87500000006,
      "d": 208.33333333331393,
      "v": 25
    },
    {
      "midi": 58,
      "hit": false,
      "t": 312494.7916666667,
      "d": 213.54166666662786,
      "v": 14
    },
    {
      "midi": 46,
      "hit": false,
      "t": 312505.2083333334,
      "d": 83.33333333331393,
      "v": 6
    },
    {
      "midi": 50,
      "hit": false,
      "t": 312505.2083333334,
      "d": 104.16666666662786,
      "v": 30
    },
    {
      "midi": 41,
      "hit": false,
      "t": 312505.2083333334,
      "d": 187.4999999999418,
      "v": 24
    },
    {
      "midi": 53,
      "hit": false,
      "t": 313104.1666666666,
      "d": 125,
      "v": 32
    },
    {
      "midi": 46,
      "hit": false,
      "t": 313104.1666666666,
      "d": 140.625,
      "v": 10
    },
    {
      "midi": 38,
      "hit": false,
      "t": 313119.7916666666,
      "d": 312.5,
      "v": 17
    },
    {
      "midi": 34,
      "hit": false,
      "t": 313817.7083333333,
      "d": 630.2083333333139,
      "v": 36
    },
    {
      "midi": 41,
      "hit": false,
      "t": 314322.9166666666,
      "d": 98.95833333331393,
      "v": 39
    },
    {
      "midi": 50,
      "hit": false,
      "t": 314677.0833333333,
      "d": 109.375,
      "v": 35
    },
    {
      "midi": 53,
      "hit": false,
      "t": 314916.6666666666,
      "d": 125,
      "v": 52
    },
    {
      "midi": 58,
      "hit": false,
      "t": 315145.8333333333,
      "d": 72.91666666668607,
      "v": 41
    },
    {
      "midi": 62,
      "hit": false,
      "t": 315359.375,
      "d": 72.91666666668607,
      "v": 60
    },
    {
      "midi": 65,
      "hit": false,
      "t": 315552.0833333334,
      "d": 135.41666666668607,
      "v": 55
    },
    {
      "midi": 70,
      "hit": false,
      "t": 315729.16666666674,
      "d": 41.66666666668607,
      "v": 61
    },
    {
      "midi": 74,
      "hit": false,
      "t": 315895.83333333343,
      "d": 72.91666666668607,
      "v": 68
    },
    {
      "midi": 77,
      "hit": false,
      "t": 316041.6666666668,
      "d": 125,
      "v": 61
    },
    {
      "midi": 82,
      "hit": false,
      "t": 316177.0833333335,
      "d": 41.66666666668607,
      "v": 65
    },
    {
      "midi": 86,
      "hit": false,
      "t": 316312.5000000002,
      "d": 140.625,
      "v": 72
    },
    {
      "midi": 89,
      "hit": false,
      "t": 316463.54166666686,
      "d": 130.20833333331393,
      "v": 65
    },
    {
      "midi": 98,
      "hit": false,
      "t": 316614.5833333335,
      "d": 145.83333333331393,
      "v": 69
    },
    {
      "midi": 94,
      "hit": false,
      "t": 316760.4166666668,
      "d": 67.70833333331393,
      "v": 52
    },
    {
      "midi": 86,
      "hit": false,
      "t": 316901.0416666668,
      "d": 93.75,
      "v": 52
    },
    {
      "midi": 82,
      "hit": false,
      "t": 317031.2500000001,
      "d": 145.83333333331393,
      "v": 48
    },
    {
      "midi": 89,
      "hit": false,
      "t": 317171.8750000001,
      "d": 119.79166666662786,
      "v": 53
    },
    {
      "midi": 86,
      "hit": false,
      "t": 317322.91666666674,
      "d": 67.70833333331393,
      "v": 42
    },
    {
      "midi": 77,
      "hit": false,
      "t": 317458.3333333334,
      "d": 57.29166666668607,
      "v": 36
    },
    {
      "midi": 74,
      "hit": false,
      "t": 317593.75000000006,
      "d": 57.29166666668607,
      "v": 32
    },
    {
      "midi": 82,
      "hit": false,
      "t": 317697.91666666674,
      "d": 104.16666666668607,
      "v": 47
    },
    {
      "midi": 77,
      "hit": false,
      "t": 317875.0000000001,
      "d": 62.5,
      "v": 29
    },
    {
      "midi": 70,
      "hit": false,
      "t": 317968.7500000001,
      "d": 67.70833333331393,
      "v": 29
    },
    {
      "midi": 65,
      "hit": false,
      "t": 318140.6250000001,
      "d": 62.5,
      "v": 39
    },
    {
      "midi": 74,
      "hit": false,
      "t": 318270.83333333343,
      "d": 88.54166666668607,
      "v": 51
    },
    {
      "midi": 70,
      "hit": false,
      "t": 318406.2500000001,
      "d": 83.33333333331393,
      "v": 39
    },
    {
      "midi": 62,
      "hit": false,
      "t": 318619.79166666674,
      "d": 67.70833333331393,
      "v": 11
    },
    {
      "midi": 58,
      "hit": false,
      "t": 318692.7083333334,
      "d": 192.70833333337214,
      "v": 24
    },
    {
      "midi": 65,
      "hit": false,
      "t": 318875.00000000006,
      "d": 125,
      "v": 39
    },
    {
      "midi": 62,
      "hit": false,
      "t": 319072.91666666674,
      "d": 62.5,
      "v": 33
    },
    {
      "midi": 53,
      "hit": false,
      "t": 319213.54166666674,
      "d": 67.70833333331393,
      "v": 46
    },
    {
      "midi": 50,
      "hit": false,
      "t": 319494.79166666674,
      "d": 203.125,
      "v": 11
    },
    {
      "midi": 58,
      "hit": false,
      "t": 319776.04166666674,
      "d": 208.33333333331393,
      "v": 26
    },
    {
      "midi": 53,
      "hit": false,
      "t": 320072.91666666674,
      "d": 88.54166666668607,
      "v": 26
    },
    {
      "midi": 46,
      "hit": false,
      "t": 320338.54166666674,
      "d": 307.29166666668607,
      "v": 17
    },
    {
      "midi": 34,
      "hit": false,
      "t": 320635.41666666674,
      "d": 1041.666666666686,
      "v": 22
    },
    {
      "midi": 41,
      "hit": false,
      "t": 320796.8750000001,
      "d": 572.9166666666279,
      "v": 24
    },
    {
      "midi": 50,
      "hit": false,
      "t": 320989.58333333343,
      "d": 739.5833333333139,
      "v": 34
    },
    {
      "midi": 58,
      "hit": false,
      "t": 322645.83333333343,
      "d": 286.45833333337214,
      "v": 14
    },
    {
      "midi": 65,
      "hit": false,
      "t": 322875.0000000001,
      "d": 197.91666666668607,
      "v": 20
    },
    {
      "midi": 70,
      "hit": false,
      "t": 323041.6666666668,
      "d": 109.375,
      "v": 13
    },
    {
      "midi": 74,
      "hit": false,
      "t": 323182.2916666668,
      "d": 83.33333333331393,
      "v": 19
    },
    {
      "midi": 77,
      "hit": false,
      "t": 323302.08333333343,
      "d": 114.58333333331393,
      "v": 11
    },
    {
      "midi": 82,
      "hit": false,
      "t": 323401.04166666674,
      "d": 229.16666666668607,
      "v": 15
    },
    {
      "midi": 86,
      "hit": false,
      "t": 323552.08333333343,
      "d": 3786.458333333314,
      "v": 11
    },
    {
      "midi": 94,
      "hit": false,
      "t": 323635.41666666674,
      "d": 3666.666666666686,
      "v": 18
    }
  ]
}