{
  "jsonPath": "Animes/Mononoke Hime MIDI Collection/mononoke-piano.json",
  "path": "Animes\\Mononoke Hime MIDI Collection\\Mononoke piano.mid",
  "name": "Mononoke piano",
  "difficulty": "Advanced",
  "bpm": 240,
  "notes": [
    {
      "midi": 63,
      "hit": false,
      "t": 3370.785,
      "d": 337.0785000000001,
      "v": 127
    },
    {
      "midi": 67,
      "hit": false,
      "t": 3370.785,
      "d": 337.0785000000001,
      "v": 127
    },
    {
      "midi": 72,
      "hit": false,
      "t": 3370.785,
      "d": 337.0785000000001,
      "v": 127
    },
    {
      "midi": 48,
      "hit": false,
      "t": 3370.785,
      "d": 337.0785000000001,
      "v": 127
    },
    {
      "midi": 79,
      "hit": false,
      "t": 3707.8635,
      "d": 337.0785000000001,
      "v": 127
    },
    {
      "midi": 55,
      "hit": false,
      "t": 3707.8635,
      "d": 337.0785000000001,
      "v": 127
    },
    {
      "midi": 79,
      "hit": false,
      "t": 4044.942,
      "d": 337.0784999999996,
      "v": 127
    },
    {
      "midi": 60,
      "hit": false,
      "t": 4044.942,
      "d": 337.0784999999996,
      "v": 127
    },
    {
      "midi": 77,
      "hit": false,
      "t": 4382.0205,
      "d": 337.0784999999996,
      "v": 127
    },
    {
      "midi": 62,
      "hit": false,
      "t": 4382.0205,
      "d": 337.0784999999996,
      "v": 127
    },
    {
      "midi": 79,
      "hit": false,
      "t": 4719.098999999999,
      "d": 337.0784999999996,
      "v": 127
    },
    {
      "midi": 63,
      "hit": false,
      "t": 4719.098999999999,
      "d": 674.1570000000002,
      "v": 127
    },
    {
      "midi": 67,
      "hit": false,
      "t": 5056.177499999999,
      "d": 337.0784999999996,
      "v": 127
    },
    {
      "midi": 72,
      "hit": false,
      "t": 5393.2559999999985,
      "d": 337.0784999999996,
      "v": 127
    },
    {
      "midi": 79,
      "hit": false,
      "t": 5730.334499999998,
      "d": 337.0784999999996,
      "v": 127
    },
    {
      "midi": 70,
      "hit": false,
      "t": 6067.412999999998,
      "d": 337.0784999999996,
      "v": 127
    },
    {
      "midi": 74,
      "hit": false,
      "t": 6067.412999999998,
      "d": 337.0784999999996,
      "v": 127
    },
    {
      "midi": 82,
      "hit": false,
      "t": 6067.412999999998,
      "d": 337.0784999999996,
      "v": 127
    },
    {
      "midi": 46,
      "hit": false,
      "t": 6067.413,
      "d": 337.0784999999996,
      "v": 127
    },
    {
      "midi": 77,
      "hit": false,
      "t": 6404.491499999997,
      "d": 1685.3925,
      "v": 127
    },
    {
      "midi": 53,
      "hit": false,
      "t": 6404.491499999999,
      "d": 337.0784999999996,
      "v": 127
    },
    {
      "midi": 58,
      "hit": false,
      "t": 6741.569999999999,
      "d": 337.0784999999996,
      "v": 127
    },
    {
      "midi": 60,
      "hit": false,
      "t": 7078.648499999998,
      "d": 337.0784999999996,
      "v": 127
    },
    {
      "midi": 62,
      "hit": false,
      "t": 7415.726999999998,
      "d": 674.1570000000002,
      "v": 127
    },
    {
      "midi": 58,
      "hit": false,
      "t": 8089.883999999998,
      "d": 337.0784999999996,
      "v": 127
    },
    {
      "midi": 53,
      "hit": false,
      "t": 8426.962499999998,
      "d": 337.0784999999996,
      "v": 127
    },
    {
      "midi": 67,
      "hit": false,
      "t": 8764.040999999997,
      "d": 337.0784999999996,
      "v": 127
    },
    {
      "midi": 72,
      "hit": false,
      "t": 8764.040999999997,
      "d": 337.0784999999996,
      "v": 127
    },
    {
      "midi": 44,
      "hit": false,
      "t": 8764.040999999997,
      "d": 337.0784999999996,
      "v": 127
    },
    {
      "midi": 79,
      "hit": false,
      "t": 9101.119499999997,
      "d": 337.0784999999996,
      "v": 127
    },
    {
      "midi": 51,
      "hit": false,
      "t": 9101.119499999997,
      "d": 337.0784999999996,
      "v": 127
    },
    {
      "midi": 79,
      "hit": false,
      "t": 9438.197999999997,
      "d": 337.0784999999996,
      "v": 127
    },
    {
      "midi": 56,
      "hit": false,
      "t": 9438.197999999997,
      "d": 337.0784999999996,
      "v": 127
    },
    {
      "midi": 77,
      "hit": false,
      "t": 9775.276499999996,
      "d": 337.0784999999996,
      "v": 127
    },
    {
      "midi": 58,
      "hit": false,
      "t": 9775.276499999996,
      "d": 337.0784999999996,
      "v": 127
    },
    {
      "midi": 79,
      "hit": false,
      "t": 10112.354999999996,
      "d": 337.0784999999996,
      "v": 127
    },
    {
      "midi": 60,
      "hit": false,
      "t": 10112.354999999996,
      "d": 674.1569999999992,
      "v": 127
    },
    {
      "midi": 67,
      "hit": false,
      "t": 10449.433499999996,
      "d": 337.0784999999996,
      "v": 127
    },
    {
      "midi": 72,
      "hit": false,
      "t": 10786.511999999995,
      "d": 337.0784999999996,
      "v": 127
    },
    {
      "midi": 79,
      "hit": false,
      "t": 11123.590499999995,
      "d": 337.0784999999996,
      "v": 127
    },
    {
      "midi": 82,
      "hit": false,
      "t": 11460.668999999994,
      "d": 674.1569999999992,
      "v": 127
    },
    {
      "midi": 77,
      "hit": false,
      "t": 11460.668999999994,
      "d": 674.1569999999992,
      "v": 127
    },
    {
      "midi": 75,
      "hit": false,
      "t": 11460.668999999994,
      "d": 674.1569999999992,
      "v": 127
    },
    {
      "midi": 70,
      "hit": false,
      "t": 11460.668999999994,
      "d": 674.1569999999992,
      "v": 127
    },
    {
      "midi": 43,
      "hit": false,
      "t": 11460.668999999994,
      "d": 337.0784999999996,
      "v": 127
    },
    {
      "midi": 51,
      "hit": false,
      "t": 11797.747499999994,
      "d": 337.0784999999996,
      "v": 127
    },
    {
      "midi": 65,
      "hit": false,
      "t": 12134.825999999994,
      "d": 674.1569999999992,
      "v": 127
    },
    {
      "midi": 55,
      "hit": false,
      "t": 12134.825999999994,
      "d": 337.0784999999996,
      "v": 127
    },
    {
      "midi": 51,
      "hit": false,
      "t": 12471.904499999993,
      "d": 337.0784999999996,
      "v": 127
    },
    {
      "midi": 63,
      "hit": false,
      "t": 12808.982999999993,
      "d": 674.1569999999992,
      "v": 127
    },
    {
      "midi": 58,
      "hit": false,
      "t": 12808.982999999993,
      "d": 674.1569999999992,
      "v": 127
    },
    {
      "midi": 79,
      "hit": false,
      "t": 13483.139999999992,
      "d": 337.0784999999996,
      "v": 127
    },
    {
      "midi": 67,
      "hit": false,
      "t": 13483.139999999992,
      "d": 337.0784999999996,
      "v": 127
    },
    {
      "midi": 82,
      "hit": false,
      "t": 13820.218499999992,
      "d": 337.0784999999996,
      "v": 127
    },
    {
      "midi": 70,
      "hit": false,
      "t": 13820.218499999992,
      "d": 337.0784999999996,
      "v": 127
    },
    {
      "midi": 84,
      "hit": false,
      "t": 14157.296999999991,
      "d": 337.0784999999996,
      "v": 127
    },
    {
      "midi": 80,
      "hit": false,
      "t": 14157.296999999991,
      "d": 337.0784999999996,
      "v": 127
    },
    {
      "midi": 77,
      "hit": false,
      "t": 14157.296999999991,
      "d": 337.0784999999996,
      "v": 127
    },
    {
      "midi": 72,
      "hit": false,
      "t": 14157.296999999991,
      "d": 337.0784999999996,
      "v": 127
    },
    {
      "midi": 41,
      "hit": false,
      "t": 14157.296999999991,
      "d": 337.0784999999996,
      "v": 127
    },
    {
      "midi": 84,
      "hit": false,
      "t": 14494.375499999991,
      "d": 337.0784999999996,
      "v": 127
    },
    {
      "midi": 48,
      "hit": false,
      "t": 14494.375499999991,
      "d": 337.0784999999996,
      "v": 127
    },
    {
      "midi": 80,
      "hit": false,
      "t": 14831.45399999999,
      "d": 337.0784999999996,
      "v": 127
    },
    {
      "midi": 84,
      "hit": false,
      "t": 14831.45399999999,
      "d": 337.0784999999996,
      "v": 127
    },
    {
      "midi": 53,
      "hit": false,
      "t": 14831.45399999999,
      "d": 337.0784999999996,
      "v": 127
    },
    {
      "midi": 84,
      "hit": false,
      "t": 15168.53249999999,
      "d": 337.0784999999996,
      "v": 127
    },
    {
      "midi": 80,
      "hit": false,
      "t": 15168.53249999999,
      "d": 337.0784999999996,
      "v": 127
    },
    {
      "midi": 55,
      "hit": false,
      "t": 15168.53249999999,
      "d": 337.0784999999996,
      "v": 127
    },
    {
      "midi": 80,
      "hit": false,
      "t": 15505.61099999999,
      "d": 337.0784999999996,
      "v": 127
    },
    {
      "midi": 84,
      "hit": false,
      "t": 15505.61099999999,
      "d": 337.0784999999996,
      "v": 127
    },
    {
      "midi": 56,
      "hit": false,
      "t": 15505.61099999999,
      "d": 674.1569999999992,
      "v": 127
    },
    {
      "midi": 72,
      "hit": false,
      "t": 15842.68949999999,
      "d": 337.0784999999996,
      "v": 127
    },
    {
      "midi": 77,
      "hit": false,
      "t": 16179.76799999999,
      "d": 337.0784999999996,
      "v": 127
    },
    {
      "midi": 84,
      "hit": false,
      "t": 16516.84649999999,
      "d": 337.0784999999996,
      "v": 127
    },
    {
      "midi": 74,
      "hit": false,
      "t": 16853.92499999999,
      "d": 674.1569999999992,
      "v": 127
    },
    {
      "midi": 82,
      "hit": false,
      "t": 16853.92499999999,
      "d": 674.1569999999992,
      "v": 127
    },
    {
      "midi": 50,
      "hit": false,
      "t": 16853.92499999999,
      "d": 337.0784999999996,
      "v": 127
    },
    {
      "midi": 58,
      "hit": false,
      "t": 17191.003499999988,
      "d": 337.0784999999996,
      "v": 127
    },
    {
      "midi": 65,
      "hit": false,
      "t": 17528.081999999988,
      "d": 674.1569999999992,
      "v": 127
    },
    {
      "midi": 70,
      "hit": false,
      "t": 17528.081999999988,
      "d": 674.1569999999992,
      "v": 127
    },
    {
      "midi": 74,
      "hit": false,
      "t": 17528.081999999988,
      "d": 674.1569999999992,
      "v": 127
    },
    {
      "midi": 77,
      "hit": false,
      "t": 17528.081999999988,
      "d": 674.1569999999992,
      "v": 127
    },
    {
      "midi": 62,
      "hit": false,
      "t": 17528.081999999988,
      "d": 674.1569999999992,
      "v": 127
    },
    {
      "midi": 79,
      "hit": false,
      "t": 18202.238999999987,
      "d": 674.1569999999992,
      "v": 127
    },
    {
      "midi": 75,
      "hit": false,
      "t": 18202.238999999987,
      "d": 674.1569999999992,
      "v": 127
    },
    {
      "midi": 70,
      "hit": false,
      "t": 18202.238999999987,
      "d": 674.1569999999992,
      "v": 127
    },
    {
      "midi": 51,
      "hit": false,
      "t": 18202.238999999987,
      "d": 337.0784999999996,
      "v": 127
    },
    {
      "midi": 58,
      "hit": false,
      "t": 18539.317499999986,
      "d": 337.0784999999996,
      "v": 127
    },
    {
      "midi": 63,
      "hit": false,
      "t": 18876.395999999986,
      "d": 674.1569999999992,
      "v": 127
    },
    {
      "midi": 68,
      "hit": false,
      "t": 19550.552999999985,
      "d": 337.0784999999996,
      "v": 127
    },
    {
      "midi": 73,
      "hit": false,
      "t": 19550.552999999985,
      "d": 337.0784999999996,
      "v": 127
    },
    {
      "midi": 77,
      "hit": false,
      "t": 19550.552999999985,
      "d": 337.0784999999996,
      "v": 127
    },
    {
      "midi": 49,
      "hit": false,
      "t": 19550.552999999985,
      "d": 337.0784999999996,
      "v": 127
    },
    {
      "midi": 77,
      "hit": false,
      "t": 19887.631499999985,
      "d": 337.0784999999996,
      "v": 127
    },
    {
      "midi": 56,
      "hit": false,
      "t": 19887.631499999985,
      "d": 337.0784999999996,
      "v": 127
    },
    {
      "midi": 77,
      "hit": false,
      "t": 20224.709999999985,
      "d": 337.0784999999996,
      "v": 127
    },
    {
      "midi": 61,
      "hit": false,
      "t": 20224.709999999985,
      "d": 337.0784999999996,
      "v": 127
    },
    {
      "midi": 79,
      "hit": false,
      "t": 20561.788499999984,
      "d": 337.0784999999996,
      "v": 127
    },
    {
      "midi": 63,
      "hit": false,
      "t": 20561.788499999984,
      "d": 337.0784999999996,
      "v": 127
    },
    {
      "midi": 77,
      "hit": false,
      "t": 20898.866999999984,
      "d": 674.1569999999992,
      "v": 127
    },
    {
      "midi": 65,
      "hit": false,
      "t": 20898.866999999984,
      "d": 674.1569999999992,
      "v": 127
    },
    {
      "midi": 72,
      "hit": false,
      "t": 21573.023999999983,
      "d": 674.1569999999992,
      "v": 127
    },
    {
      "midi": 61,
      "hit": false,
      "t": 21573.023999999983,
      "d": 674.1569999999992,
      "v": 127
    },
    {
      "midi": 69,
      "hit": false,
      "t": 22247.180999999982,
      "d": 674.1569999999992,
      "v": 127
    },
    {
      "midi": 79,
      "hit": false,
      "t": 22247.180999999982,
      "d": 674.1569999999992,
      "v": 127
    },
    {
      "midi": 50,
      "hit": false,
      "t": 22247.180999999982,
      "d": 337.0784999999996,
      "v": 127
    },
    {
      "midi": 57,
      "hit": false,
      "t": 22584.259499999982,
      "d": 337.0784999999996,
      "v": 127
    },
    {
      "midi": 60,
      "hit": false,
      "t": 22921.33799999998,
      "d": 674.1569999999992,
      "v": 127
    },
    {
      "midi": 69,
      "hit": false,
      "t": 23258.41649999998,
      "d": 337.0784999999996,
      "v": 127
    },
    {
      "midi": 71,
      "hit": false,
      "t": 23595.49499999998,
      "d": 337.0784999999996,
      "v": 127
    },
    {
      "midi": 67,
      "hit": false,
      "t": 23595.49499999998,
      "d": 337.0784999999996,
      "v": 127
    },
    {
      "midi": 43,
      "hit": false,
      "t": 23595.49499999998,
      "d": 337.0784999999996,
      "v": 127
    },
    {
      "midi": 72,
      "hit": false,
      "t": 23932.57349999998,
      "d": 337.0784999999996,
      "v": 127
    },
    {
      "midi": 50,
      "hit": false,
      "t": 23932.57349999998,
      "d": 337.0784999999996,
      "v": 127
    },
    {
      "midi": 65,
      "hit": false,
      "t": 24269.65199999998,
      "d": 337.0784999999996,
      "v": 127
    },
    {
      "midi": 74,
      "hit": false,
      "t": 24269.65199999998,
      "d": 337.0784999999996,
      "v": 127
    },
    {
      "midi": 59,
      "hit": false,
      "t": 24269.65199999998,
      "d": 674.1569999999992,
      "v": 127
    },
    {
      "midi": 71,
      "hit": false,
      "t": 24606.73049999998,
      "d": 337.0784999999996,
      "v": 127
    },
    {
      "midi": 63,
      "hit": false,
      "t": 24943.80899999998,
      "d": 337.0784999999996,
      "v": 127
    },
    {
      "midi": 67,
      "hit": false,
      "t": 24943.80899999998,
      "d": 337.0784999999996,
      "v": 127
    },
    {
      "midi": 72,
      "hit": false,
      "t": 24943.80899999998,
      "d": 337.0784999999996,
      "v": 127
    },
    {
      "midi": 48,
      "hit": false,
      "t": 24943.80899999998,
      "d": 337.0784999999996,
      "v": 127
    },
    {
      "midi": 79,
      "hit": false,
      "t": 25280.88749999998,
      "d": 337.0784999999996,
      "v": 127
    },
    {
      "midi": 55,
      "hit": false,
      "t": 25280.88749999998,
      "d": 337.0784999999996,
      "v": 127
    },
    {
      "midi": 79,
      "hit": false,
      "t": 25617.96599999998,
      "d": 337.0784999999996,
      "v": 127
    },
    {
      "midi": 60,
      "hit": false,
      "t": 25617.96599999998,
      "d": 337.0784999999996,
      "v": 127
    },
    {
      "midi": 77,
      "hit": false,
      "t": 25955.044499999978,
      "d": 337.0784999999996,
      "v": 127
    },
    {
      "midi": 62,
      "hit": false,
      "t": 25955.044499999978,
      "d": 337.0784999999996,
      "v": 127
    },
    {
      "midi": 79,
      "hit": false,
      "t": 26292.122999999978,
      "d": 337.0784999999996,
      "v": 127
    },
    {
      "midi": 63,
      "hit": false,
      "t": 26292.122999999978,
      "d": 674.1569999999992,
      "v": 127
    },
    {
      "midi": 67,
      "hit": false,
      "t": 26629.201499999977,
      "d": 337.0784999999996,
      "v": 127
    },
    {
      "midi": 72,
      "hit": false,
      "t": 26966.279999999977,
      "d": 337.0784999999996,
      "v": 127
    },
    {
      "midi": 79,
      "hit": false,
      "t": 27303.358499999977,
      "d": 337.0784999999996,
      "v": 127
    },
    {
      "midi": 70,
      "hit": false,
      "t": 27640.436999999976,
      "d": 674.1569999999992,
      "v": 127
    },
    {
      "midi": 74,
      "hit": false,
      "t": 27640.436999999976,
      "d": 674.1569999999992,
      "v": 127
    },
    {
      "midi": 77,
      "hit": false,
      "t": 27640.436999999976,
      "d": 674.1569999999992,
      "v": 127
    },
    {
      "midi": 46,
      "hit": false,
      "t": 27640.436999999976,
      "d": 337.0784999999996,
      "v": 127
    },
    {
      "midi": 53,
      "hit": false,
      "t": 27977.515499999976,
      "d": 337.0784999999996,
      "v": 127
    },
    {
      "midi": 60,
      "hit": false,
      "t": 28314.593999999975,
      "d": 337.0784999999996,
      "v": 127
    },
    {
      "midi": 53,
      "hit": false,
      "t": 28651.672499999975,
      "d": 337.0784999999996,
      "v": 127
    },
    {
      "midi": 62,
      "hit": false,
      "t": 28988.750999999975,
      "d": 674.1569999999992,
      "v": 127
    },
    {
      "midi": 58,
      "hit": false,
      "t": 29662.907999999974,
      "d": 337.0784999999996,
      "v": 127
    },
    {
      "midi": 53,
      "hit": false,
      "t": 29999.986499999974,
      "d": 337.0784999999996,
      "v": 127
    },
    {
      "midi": 44,
      "hit": false,
      "t": 30337.064999999973,
      "d": 337.0784999999996,
      "v": 127
    },
    {
      "midi": 67,
      "hit": false,
      "t": 30337.064999999977,
      "d": 337.0784999999996,
      "v": 127
    },
    {
      "midi": 72,
      "hit": false,
      "t": 30337.064999999977,
      "d": 337.0784999999996,
      "v": 127
    },
    {
      "midi": 51,
      "hit": false,
      "t": 30674.143499999973,
      "d": 337.0784999999996,
      "v": 127
    },
    {
      "midi": 79,
      "hit": false,
      "t": 30674.143499999976,
      "d": 337.0784999999996,
      "v": 127
    },
    {
      "midi": 56,
      "hit": false,
      "t": 31011.221999999972,
      "d": 337.0784999999996,
      "v": 127
    },
    {
      "midi": 79,
      "hit": false,
      "t": 31011.221999999976,
      "d": 337.0784999999996,
      "v": 127
    },
    {
      "midi": 58,
      "hit": false,
      "t": 31348.300499999972,
      "d": 337.0784999999996,
      "v": 127
    },
    {
      "midi": 77,
      "hit": false,
      "t": 31348.300499999976,
      "d": 337.0784999999996,
      "v": 127
    },
    {
      "midi": 60,
      "hit": false,
      "t": 31685.37899999997,
      "d": 674.1569999999992,
      "v": 127
    },
    {
      "midi": 79,
      "hit": false,
      "t": 31685.378999999975,
      "d": 337.0784999999996,
      "v": 127
    },
    {
      "midi": 67,
      "hit": false,
      "t": 32022.457499999975,
      "d": 337.0784999999996,
      "v": 127
    },
    {
      "midi": 72,
      "hit": false,
      "t": 32359.535999999975,
      "d": 337.0784999999996,
      "v": 127
    },
    {
      "midi": 79,
      "hit": false,
      "t": 32696.614499999974,
      "d": 337.07850000000326,
      "v": 127
    },
    {
      "midi": 43,
      "hit": false,
      "t": 33033.69299999997,
      "d": 337.07850000000326,
      "v": 127
    },
    {
      "midi": 70,
      "hit": false,
      "t": 33033.69299999998,
      "d": 674.1569999999992,
      "v": 127
    },
    {
      "midi": 75,
      "hit": false,
      "t": 33033.69299999998,
      "d": 674.1569999999992,
      "v": 127
    },
    {
      "midi": 77,
      "hit": false,
      "t": 33033.69299999998,
      "d": 674.1569999999992,
      "v": 127
    },
    {
      "midi": 82,
      "hit": false,
      "t": 33033.69299999998,
      "d": 674.1569999999992,
      "v": 127
    },
    {
      "midi": 51,
      "hit": false,
      "t": 33370.77149999997,
      "d": 337.07850000000326,
      "v": 127
    },
    {
      "midi": 65,
      "hit": false,
      "t": 33707.84999999998,
      "d": 674.1569999999992,
      "v": 127
    },
    {
      "midi": 55,
      "hit": false,
      "t": 33707.84999999998,
      "d": 337.07850000000326,
      "v": 127
    },
    {
      "midi": 51,
      "hit": false,
      "t": 34044.92849999998,
      "d": 337.07850000000326,
      "v": 127
    },
    {
      "midi": 63,
      "hit": false,
      "t": 34382.006999999976,
      "d": 674.1569999999992,
      "v": 127
    },
    {
      "midi": 58,
      "hit": false,
      "t": 34382.00699999998,
      "d": 337.07850000000326,
      "v": 127
    },
    {
      "midi": 51,
      "hit": false,
      "t": 34719.08549999999,
      "d": 337.07850000000326,
      "v": 127
    },
    {
      "midi": 79,
      "hit": false,
      "t": 35056.163999999975,
      "d": 337.07850000000326,
      "v": 127
    },
    {
      "midi": 67,
      "hit": false,
      "t": 35056.163999999975,
      "d": 337.07850000000326,
      "v": 127
    },
    {
      "midi": 55,
      "hit": false,
      "t": 35056.16399999999,
      "d": 674.1569999999992,
      "v": 127
    },
    {
      "midi": 82,
      "hit": false,
      "t": 35393.24249999998,
      "d": 337.07850000000326,
      "v": 127
    },
    {
      "midi": 70,
      "hit": false,
      "t": 35393.24249999998,
      "d": 337.07850000000326,
      "v": 127
    },
    {
      "midi": 84,
      "hit": false,
      "t": 35730.32099999998,
      "d": 674.1569999999992,
      "v": 127
    },
    {
      "midi": 80,
      "hit": false,
      "t": 35730.32099999998,
      "d": 674.1569999999992,
      "v": 127
    },
    {
      "midi": 77,
      "hit": false,
      "t": 35730.32099999998,
      "d": 674.1569999999992,
      "v": 127
    },
    {
      "midi": 72,
      "hit": false,
      "t": 35730.32099999998,
      "d": 674.1569999999992,
      "v": 127
    },
    {
      "midi": 41,
      "hit": false,
      "t": 35730.32099999999,
      "d": 337.07850000000326,
      "v": 127
    },
    {
      "midi": 48,
      "hit": false,
      "t": 36067.39949999999,
      "d": 337.07850000000326,
      "v": 127
    },
    {
      "midi": 80,
      "hit": false,
      "t": 36404.47799999998,
      "d": 337.07850000000326,
      "v": 127
    },
    {
      "midi": 84,
      "hit": false,
      "t": 36404.47799999998,
      "d": 337.07850000000326,
      "v": 127
    },
    {
      "midi": 53,
      "hit": false,
      "t": 36404.477999999996,
      "d": 337.07850000000326,
      "v": 127
    },
    {
      "midi": 84,
      "hit": false,
      "t": 36741.556499999984,
      "d": 337.07850000000326,
      "v": 127
    },
    {
      "midi": 80,
      "hit": false,
      "t": 36741.556499999984,
      "d": 337.07850000000326,
      "v": 127
    },
    {
      "midi": 55,
      "hit": false,
      "t": 36741.5565,
      "d": 337.07850000000326,
      "v": 127
    },
    {
      "midi": 80,
      "hit": false,
      "t": 37078.63499999999,
      "d": 337.07850000000326,
      "v": 127
    },
    {
      "midi": 84,
      "hit": false,
      "t": 37078.63499999999,
      "d": 337.07850000000326,
      "v": 127
    },
    {
      "midi": 56,
      "hit": false,
      "t": 37078.635,
      "d": 674.1569999999992,
      "v": 127
    },
    {
      "midi": 72,
      "hit": false,
      "t": 37415.71349999999,
      "d": 337.07850000000326,
      "v": 127
    },
    {
      "midi": 77,
      "hit": false,
      "t": 37752.791999999994,
      "d": 337.07850000000326,
      "v": 127
    },
    {
      "midi": 84,
      "hit": false,
      "t": 38089.8705,
      "d": 337.07850000000326,
      "v": 127
    },
    {
      "midi": 74,
      "hit": false,
      "t": 38426.949,
      "d": 674.1569999999992,
      "v": 127
    },
    {
      "midi": 77,
      "hit": false,
      "t": 38426.949,
      "d": 674.1569999999992,
      "v": 127
    },
    {
      "midi": 82,
      "hit": false,
      "t": 38426.949,
      "d": 674.1569999999992,
      "v": 127
    },
    {
      "midi": 50,
      "hit": false,
      "t": 38426.949,
      "d": 337.07850000000326,
      "v": 127
    },
    {
      "midi": 58,
      "hit": false,
      "t": 38764.027500000004,
      "d": 337.07850000000326,
      "v": 127
    },
    {
      "midi": 70,
      "hit": false,
      "t": 39101.106,
      "d": 674.1569999999992,
      "v": 127
    },
    {
      "midi": 74,
      "hit": false,
      "t": 39101.106,
      "d": 674.1569999999992,
      "v": 127
    },
    {
      "midi": 77,
      "hit": false,
      "t": 39101.106,
      "d": 674.1569999999992,
      "v": 127
    },
    {
      "midi": 62,
      "hit": false,
      "t": 39101.10600000001,
      "d": 674.1569999999992,
      "v": 127
    },
    {
      "midi": 79,
      "hit": false,
      "t": 39775.263,
      "d": 674.1569999999992,
      "v": 127
    },
    {
      "midi": 75,
      "hit": false,
      "t": 39775.263,
      "d": 674.1569999999992,
      "v": 127
    },
    {
      "midi": 70,
      "hit": false,
      "t": 39775.263,
      "d": 674.1569999999992,
      "v": 127
    },
    {
      "midi": 51,
      "hit": false,
      "t": 39775.263000000006,
      "d": 337.07850000000326,
      "v": 127
    },
    {
      "midi": 58,
      "hit": false,
      "t": 40112.34150000001,
      "d": 337.07850000000326,
      "v": 127
    },
    {
      "midi": 63,
      "hit": false,
      "t": 40449.42000000001,
      "d": 674.1569999999992,
      "v": 127
    },
    {
      "midi": 68,
      "hit": false,
      "t": 41123.577,
      "d": 337.07850000000326,
      "v": 127
    },
    {
      "midi": 72,
      "hit": false,
      "t": 41123.577,
      "d": 337.07850000000326,
      "v": 127
    },
    {
      "midi": 77,
      "hit": false,
      "t": 41123.577,
      "d": 337.07850000000326,
      "v": 127
    },
    {
      "midi": 53,
      "hit": false,
      "t": 41123.57700000001,
      "d": 337.07850000000326,
      "v": 127
    },
    {
      "midi": 77,
      "hit": false,
      "t": 41460.6555,
      "d": 337.07850000000326,
      "v": 127
    },
    {
      "midi": 60,
      "hit": false,
      "t": 41460.655500000015,
      "d": 337.07850000000326,
      "v": 127
    },
    {
      "midi": 77,
      "hit": false,
      "t": 41797.734000000004,
      "d": 337.07850000000326,
      "v": 127
    },
    {
      "midi": 65,
      "hit": false,
      "t": 41797.73400000002,
      "d": 674.1569999999992,
      "v": 127
    },
    {
      "midi": 79,
      "hit": false,
      "t": 42134.81250000001,
      "d": 337.07850000000326,
      "v": 127
    },
    {
      "midi": 68,
      "hit": false,
      "t": 42471.89100000001,
      "d": 337.07850000000326,
      "v": 127
    },
    {
      "midi": 77,
      "hit": false,
      "t": 42471.89100000001,
      "d": 337.07850000000326,
      "v": 127
    },
    {
      "midi": 46,
      "hit": false,
      "t": 42471.89100000002,
      "d": 337.07850000000326,
      "v": 127
    },
    {
      "midi": 72,
      "hit": false,
      "t": 42808.969500000014,
      "d": 674.1569999999992,
      "v": 127
    },
    {
      "midi": 53,
      "hit": false,
      "t": 42808.96950000002,
      "d": 337.07850000000326,
      "v": 127
    },
    {
      "midi": 58,
      "hit": false,
      "t": 43146.048000000024,
      "d": 674.1569999999992,
      "v": 127
    },
    {
      "midi": 75,
      "hit": false,
      "t": 43483.12650000001,
      "d": 337.07850000000326,
      "v": 127
    },
    {
      "midi": 67,
      "hit": false,
      "t": 43820.205000000016,
      "d": 1348.314000000013,
      "v": 127
    },
    {
      "midi": 75,
      "hit": false,
      "t": 43820.205000000016,
      "d": 1348.314000000013,
      "v": 127
    },
    {
      "midi": 39,
      "hit": false,
      "t": 43820.20500000002,
      "d": 337.07850000000326,
      "v": 127
    },
    {
      "midi": 46,
      "hit": false,
      "t": 44157.28350000003,
      "d": 337.07850000000326,
      "v": 127
    },
    {
      "midi": 51,
      "hit": false,
      "t": 44494.36200000003,
      "d": 337.07850000000326,
      "v": 127
    },
    {
      "midi": 55,
      "hit": false,
      "t": 44831.44050000003,
      "d": 337.07850000000326,
      "v": 127
    },
    {
      "midi": 58,
      "hit": false,
      "t": 45168.51900000003,
      "d": 337.07850000000326,
      "v": 127
    },
    {
      "midi": 63,
      "hit": false,
      "t": 45505.59750000003,
      "d": 337.07850000000326,
      "v": 127
    },
    {
      "midi": 67,
      "hit": false,
      "t": 45842.676000000036,
      "d": 337.07850000000326,
      "v": 127
    },
    {
      "midi": 70,
      "hit": false,
      "t": 46179.75450000004,
      "d": 337.07850000000326,
      "v": 127
    },
    {
      "midi": 63,
      "hit": false,
      "t": 46516.83300000004,
      "d": 337.07850000000326,
      "v": 127
    },
    {
      "midi": 67,
      "hit": false,
      "t": 46516.83300000004,
      "d": 337.07850000000326,
      "v": 127
    },
    {
      "midi": 72,
      "hit": false,
      "t": 46516.83300000004,
      "d": 337.07850000000326,
      "v": 127
    },
    {
      "midi": 48,
      "hit": false,
      "t": 46516.83300000004,
      "d": 337.07850000000326,
      "v": 127
    },
    {
      "midi": 72,
      "hit": false,
      "t": 46853.911500000046,
      "d": 337.07850000000326,
      "v": 127
    },
    {
      "midi": 55,
      "hit": false,
      "t": 46853.911500000046,
      "d": 337.07850000000326,
      "v": 127
    },
    {
      "midi": 72,
      "hit": false,
      "t": 47190.99000000005,
      "d": 337.07850000000326,
      "v": 127
    },
    {
      "midi": 60,
      "hit": false,
      "t": 47190.99000000005,
      "d": 337.07850000000326,
      "v": 127
    },
    {
      "midi": 74,
      "hit": false,
      "t": 47528.06850000005,
      "d": 337.07850000000326,
      "v": 127
    },
    {
      "midi": 55,
      "hit": false,
      "t": 47528.06850000005,
      "d": 337.07850000000326,
      "v": 127
    },
    {
      "midi": 72,
      "hit": false,
      "t": 47865.147000000055,
      "d": 1011.2355000000025,
      "v": 127
    },
    {
      "midi": 62,
      "hit": false,
      "t": 47865.147000000055,
      "d": 337.07850000000326,
      "v": 127
    },
    {
      "midi": 55,
      "hit": false,
      "t": 48202.22550000006,
      "d": 337.07850000000326,
      "v": 127
    },
    {
      "midi": 60,
      "hit": false,
      "t": 48539.30400000006,
      "d": 674.1569999999992,
      "v": 127
    },
    {
      "midi": 72,
      "hit": false,
      "t": 48876.38250000006,
      "d": 337.07850000000326,
      "v": 127
    },
    {
      "midi": 67,
      "hit": false,
      "t": 49213.46100000006,
      "d": 674.1569999999992,
      "v": 127
    },
    {
      "midi": 75,
      "hit": false,
      "t": 49213.46100000006,
      "d": 674.1569999999992,
      "v": 127
    },
    {
      "midi": 46,
      "hit": false,
      "t": 49213.46100000006,
      "d": 337.07850000000326,
      "v": 127
    },
    {
      "midi": 53,
      "hit": false,
      "t": 49550.539500000064,
      "d": 337.07850000000326,
      "v": 127
    },
    {
      "midi": 74,
      "hit": false,
      "t": 49887.61800000006,
      "d": 674.1569999999992,
      "v": 127
    },
    {
      "midi": 55,
      "hit": false,
      "t": 49887.61800000007,
      "d": 337.07850000000326,
      "v": 127
    },
    {
      "midi": 53,
      "hit": false,
      "t": 50224.69650000007,
      "d": 337.07850000000326,
      "v": 127
    },
    {
      "midi": 67,
      "hit": false,
      "t": 50561.77500000006,
      "d": 674.1569999999992,
      "v": 127
    },
    {
      "midi": 62,
      "hit": false,
      "t": 50561.775000000074,
      "d": 674.1569999999992,
      "v": 127
    },
    {
      "midi": 55,
      "hit": false,
      "t": 51235.93200000007,
      "d": 337.07850000000326,
      "v": 127
    },
    {
      "midi": 53,
      "hit": false,
      "t": 51573.01050000008,
      "d": 337.07850000000326,
      "v": 127
    },
    {
      "midi": 60,
      "hit": false,
      "t": 51910.08900000006,
      "d": 674.1569999999992,
      "v": 127
    },
    {
      "midi": 65,
      "hit": false,
      "t": 51910.08900000006,
      "d": 674.1569999999992,
      "v": 127
    },
    {
      "midi": 44,
      "hit": false,
      "t": 51910.08900000008,
      "d": 337.07850000000326,
      "v": 127
    },
    {
      "midi": 51,
      "hit": false,
      "t": 52247.16750000008,
      "d": 337.07850000000326,
      "v": 127
    },
    {
      "midi": 70,
      "hit": false,
      "t": 52584.24600000006,
      "d": 337.07850000000326,
      "v": 127
    },
    {
      "midi": 56,
      "hit": false,
      "t": 52584.24600000009,
      "d": 674.1569999999992,
      "v": 127
    },
    {
      "midi": 65,
      "hit": false,
      "t": 52921.32450000006,
      "d": 337.07850000000326,
      "v": 127
    },
    {
      "midi": 63,
      "hit": false,
      "t": 53258.403000000064,
      "d": 674.1569999999992,
      "v": 127
    },
    {
      "midi": 67,
      "hit": false,
      "t": 53258.403000000064,
      "d": 674.1569999999992,
      "v": 127
    },
    {
      "midi": 39,
      "hit": false,
      "t": 53258.403000000086,
      "d": 337.07850000000326,
      "v": 127
    },
    {
      "midi": 46,
      "hit": false,
      "t": 53595.48150000009,
      "d": 337.07850000000326,
      "v": 127
    },
    {
      "midi": 65,
      "hit": false,
      "t": 53932.56000000006,
      "d": 337.07850000000326,
      "v": 127
    },
    {
      "midi": 51,
      "hit": false,
      "t": 53932.56000000009,
      "d": 674.1569999999992,
      "v": 127
    },
    {
      "midi": 67,
      "hit": false,
      "t": 54269.63850000007,
      "d": 337.07850000000326,
      "v": 127
    },
    {
      "midi": 74,
      "hit": false,
      "t": 54606.71700000007,
      "d": 337.07850000000326,
      "v": 127
    },
    {
      "midi": 70,
      "hit": false,
      "t": 54606.71700000007,
      "d": 337.07850000000326,
      "v": 127
    },
    {
      "midi": 67,
      "hit": false,
      "t": 54606.71700000007,
      "d": 337.07850000000326,
      "v": 127
    },
    {
      "midi": 43,
      "hit": false,
      "t": 54606.71700000009,
      "d": 337.07850000000326,
      "v": 127
    },
    {
      "midi": 74,
      "hit": false,
      "t": 54943.79550000007,
      "d": 337.07850000000326,
      "v": 127
    },
    {
      "midi": 50,
      "hit": false,
      "t": 54943.795500000095,
      "d": 337.07850000000326,
      "v": 127
    },
    {
      "midi": 74,
      "hit": false,
      "t": 55280.874000000076,
      "d": 337.07850000000326,
      "v": 127
    },
    {
      "midi": 55,
      "hit": false,
      "t": 55280.8740000001,
      "d": 337.07850000000326,
      "v": 127
    },
    {
      "midi": 75,
      "hit": false,
      "t": 55617.95250000008,
      "d": 337.07850000000326,
      "v": 127
    },
    {
      "midi": 50,
      "hit": false,
      "t": 55617.9525000001,
      "d": 337.07850000000326,
      "v": 127
    },
    {
      "midi": 74,
      "hit": false,
      "t": 55955.03100000008,
      "d": 1011.2355000000025,
      "v": 127
    },
    {
      "midi": 58,
      "hit": false,
      "t": 55955.031000000105,
      "d": 337.07850000000326,
      "v": 127
    },
    {
      "midi": 55,
      "hit": false,
      "t": 56292.10950000011,
      "d": 337.07850000000326,
      "v": 127
    },
    {
      "midi": 50,
      "hit": false,
      "t": 56629.18800000011,
      "d": 337.07850000000326,
      "v": 127
    },
    {
      "midi": 70,
      "hit": false,
      "t": 56966.266500000085,
      "d": 337.07850000000326,
      "v": 127
    },
    {
      "midi": 43,
      "hit": false,
      "t": 56966.266500000114,
      "d": 337.07850000000326,
      "v": 127
    },
    {
      "midi": 67,
      "hit": false,
      "t": 57303.34500000009,
      "d": 674.1569999999992,
      "v": 127
    },
    {
      "midi": 75,
      "hit": false,
      "t": 57303.34500000009,
      "d": 674.1569999999992,
      "v": 127
    },
    {
      "midi": 48,
      "hit": false,
      "t": 57303.34500000012,
      "d": 337.07850000000326,
      "v": 127
    },
    {
      "midi": 55,
      "hit": false,
      "t": 57640.42350000012,
      "d": 337.07850000000326,
      "v": 127
    },
    {
      "midi": 74,
      "hit": false,
      "t": 57977.50200000009,
      "d": 674.1569999999992,
      "v": 127
    },
    {
      "midi": 60,
      "hit": false,
      "t": 57977.502000000124,
      "d": 337.07850000000326,
      "v": 127
    },
    {
      "midi": 55,
      "hit": false,
      "t": 58314.58050000013,
      "d": 337.07850000000326,
      "v": 127
    },
    {
      "midi": 67,
      "hit": false,
      "t": 58651.65900000009,
      "d": 674.1569999999992,
      "v": 127
    },
    {
      "midi": 46,
      "hit": false,
      "t": 58651.65900000013,
      "d": 337.07850000000326,
      "v": 127
    },
    {
      "midi": 53,
      "hit": false,
      "t": 58988.737500000134,
      "d": 337.07850000000326,
      "v": 127
    },
    {
      "midi": 55,
      "hit": false,
      "t": 59325.81600000014,
      "d": 337.07850000000326,
      "v": 127
    },
    {
      "midi": 67,
      "hit": false,
      "t": 59662.89450000009,
      "d": 337.07850000000326,
      "v": 127
    },
    {
      "midi": 62,
      "hit": false,
      "t": 59662.89450000014,
      "d": 337.07850000000326,
      "v": 127
    },
    {
      "midi": 67,
      "hit": false,
      "t": 59999.97300000009,
      "d": 449.4380000000019,
      "v": 127
    },
    {
      "midi": 72,
      "hit": false,
      "t": 59999.97300000009,
      "d": 449.4380000000019,
      "v": 127
    },
    {
      "midi": 44,
      "hit": false,
      "t": 59999.973000000144,
      "d": 337.07850000000326,
      "v": 127
    },
    {
      "midi": 51,
      "hit": false,
      "t": 60337.05150000015,
      "d": 337.07850000000326,
      "v": 127
    },
    {
      "midi": 70,
      "hit": false,
      "t": 60449.411000000095,
      "d": 449.4380000000019,
      "v": 127
    },
    {
      "midi": 60,
      "hit": false,
      "t": 60674.13000000015,
      "d": 674.1569999999992,
      "v": 127
    },
    {
      "midi": 68,
      "hit": false,
      "t": 60898.8490000001,
      "d": 449.4380000000019,
      "v": 127
    },
    {
      "midi": 63,
      "hit": false,
      "t": 61348.2870000001,
      "d": 674.1569999999992,
      "v": 127
    },
    {
      "midi": 70,
      "hit": false,
      "t": 61348.2870000001,
      "d": 674.1569999999992,
      "v": 127
    },
    {
      "midi": 43,
      "hit": false,
      "t": 61348.28700000015,
      "d": 337.07850000000326,
      "v": 127
    },
    {
      "midi": 51,
      "hit": false,
      "t": 61685.36550000015,
      "d": 337.07850000000326,
      "v": 127
    },
    {
      "midi": 55,
      "hit": false,
      "t": 62022.444000000156,
      "d": 337.07850000000326,
      "v": 127
    },
    {
      "midi": 58,
      "hit": false,
      "t": 62359.52250000016,
      "d": 337.07850000000326,
      "v": 127
    },
    {
      "midi": 63,
      "hit": false,
      "t": 62696.60100000016,
      "d": 674.1569999999992,
      "v": 127
    },
    {
      "midi": 79,
      "hit": false,
      "t": 63370.758000000096,
      "d": 337.07850000000326,
      "v": 127
    },
    {
      "midi": 67,
      "hit": false,
      "t": 63370.758000000096,
      "d": 337.07850000000326,
      "v": 127
    },
    {
      "midi": 82,
      "hit": false,
      "t": 63707.8365000001,
      "d": 337.07850000000326,
      "v": 127
    },
    {
      "midi": 70,
      "hit": false,
      "t": 63707.8365000001,
      "d": 337.07850000000326,
      "v": 127
    },
    {
      "midi": 72,
      "hit": false,
      "t": 64044.9150000001,
      "d": 674.1569999999992,
      "v": 127
    },
    {
      "midi": 77,
      "hit": false,
      "t": 64044.9150000001,
      "d": 674.1569999999992,
      "v": 127
    },
    {
      "midi": 80,
      "hit": false,
      "t": 64044.9150000001,
      "d": 674.1569999999992,
      "v": 127
    },
    {
      "midi": 84,
      "hit": false,
      "t": 64044.9150000001,
      "d": 674.1569999999992,
      "v": 127
    },
    {
      "midi": 41,
      "hit": false,
      "t": 64044.91500000016,
      "d": 337.07850000000326,
      "v": 127
    },
    {
      "midi": 48,
      "hit": false,
      "t": 64381.993500000164,
      "d": 337.07850000000326,
      "v": 127
    },
    {
      "midi": 87,
      "hit": false,
      "t": 64719.0720000001,
      "d": 674.1569999999992,
      "v": 127
    },
    {
      "midi": 75,
      "hit": false,
      "t": 64719.0720000001,
      "d": 674.1569999999992,
      "v": 127
    },
    {
      "midi": 53,
      "hit": false,
      "t": 64719.07200000017,
      "d": 674.1569999999992,
      "v": 127
    },
    {
      "midi": 74,
      "hit": false,
      "t": 65393.2290000001,
      "d": 337.078499999996,
      "v": 127
    },
    {
      "midi": 79,
      "hit": false,
      "t": 65393.2290000001,
      "d": 337.078499999996,
      "v": 127
    },
    {
      "midi": 82,
      "hit": false,
      "t": 65393.2290000001,
      "d": 337.078499999996,
      "v": 127
    },
    {
      "midi": 86,
      "hit": false,
      "t": 65393.2290000001,
      "d": 337.078499999996,
      "v": 127
    },
    {
      "midi": 43,
      "hit": false,
      "t": 65393.22900000017,
      "d": 337.07850000000326,
      "v": 127
    },
    {
      "midi": 67,
      "hit": false,
      "t": 65730.3075000001,
      "d": 674.1570000000065,
      "v": 127
    },
    {
      "midi": 79,
      "hit": false,
      "t": 65730.3075000001,
      "d": 674.1570000000065,
      "v": 127
    },
    {
      "midi": 50,
      "hit": false,
      "t": 65730.30750000017,
      "d": 337.07850000000326,
      "v": 127
    },
    {
      "midi": 55,
      "hit": false,
      "t": 66067.38600000017,
      "d": 674.1570000000065,
      "v": 127
    },
    {
      "midi": 70,
      "hit": false,
      "t": 66404.4645000001,
      "d": 337.07850000000326,
      "v": 127
    },
    {
      "midi": 82,
      "hit": false,
      "t": 66404.4645000001,
      "d": 337.07850000000326,
      "v": 127
    },
    {
      "midi": 72,
      "hit": false,
      "t": 66741.5430000001,
      "d": 1348.3139999999985,
      "v": 127
    },
    {
      "midi": 75,
      "hit": false,
      "t": 66741.5430000001,
      "d": 1348.3139999999985,
      "v": 127
    },
    {
      "midi": 79,
      "hit": false,
      "t": 66741.5430000001,
      "d": 1348.3139999999985,
      "v": 127
    },
    {
      "midi": 84,
      "hit": false,
      "t": 66741.5430000001,
      "d": 1348.3139999999985,
      "v": 127
    },
    {
      "midi": 44,
      "hit": false,
      "t": 66741.54300000018,
      "d": 337.07850000000326,
      "v": 127
    },
    {
      "midi": 51,
      "hit": false,
      "t": 67078.62150000018,
      "d": 337.07850000000326,
      "v": 127
    },
    {
      "midi": 56,
      "hit": false,
      "t": 67415.70000000019,
      "d": 337.07850000000326,
      "v": 127
    },
    {
      "midi": 60,
      "hit": false,
      "t": 67752.77850000019,
      "d": 337.07850000000326,
      "v": 127
    },
    {
      "midi": 63,
      "hit": false,
      "t": 68089.8570000002,
      "d": 674.1570000000065,
      "v": 127
    },
    {
      "midi": 67,
      "hit": false,
      "t": 68764.01400000011,
      "d": 337.07850000000326,
      "v": 127
    },
    {
      "midi": 79,
      "hit": false,
      "t": 68764.01400000011,
      "d": 337.07850000000326,
      "v": 127
    },
    {
      "midi": 43,
      "hit": false,
      "t": 68764.0140000002,
      "d": 674.1570000000065,
      "v": 127
    },
    {
      "midi": 82,
      "hit": false,
      "t": 69101.09250000012,
      "d": 337.07850000000326,
      "v": 127
    },
    {
      "midi": 70,
      "hit": false,
      "t": 69101.09250000012,
      "d": 337.07850000000326,
      "v": 127
    },
    {
      "midi": 72,
      "hit": false,
      "t": 69438.17100000012,
      "d": 674.1570000000065,
      "v": 127
    },
    {
      "midi": 77,
      "hit": false,
      "t": 69438.17100000012,
      "d": 674.1570000000065,
      "v": 127
    },
    {
      "midi": 80,
      "hit": false,
      "t": 69438.17100000012,
      "d": 674.1570000000065,
      "v": 127
    },
    {
      "midi": 84,
      "hit": false,
      "t": 69438.17100000012,
      "d": 674.1570000000065,
      "v": 127
    },
    {
      "midi": 41,
      "hit": false,
      "t": 69438.1710000002,
      "d": 337.07850000000326,
      "v": 127
    },
    {
      "midi": 48,
      "hit": false,
      "t": 69775.24950000021,
      "d": 337.07850000000326,
      "v": 127
    },
    {
      "midi": 87,
      "hit": false,
      "t": 70112.32800000013,
      "d": 674.1570000000065,
      "v": 127
    },
    {
      "midi": 75,
      "hit": false,
      "t": 70112.32800000013,
      "d": 674.1570000000065,
      "v": 127
    },
    {
      "midi": 53,
      "hit": false,
      "t": 70112.32800000021,
      "d": 337.07850000000326,
      "v": 127
    },
    {
      "midi": 56,
      "hit": false,
      "t": 70449.40650000022,
      "d": 337.07850000000326,
      "v": 127
    },
    {
      "midi": 74,
      "hit": false,
      "t": 70786.48500000013,
      "d": 337.07850000000326,
      "v": 127
    },
    {
      "midi": 79,
      "hit": false,
      "t": 70786.48500000013,
      "d": 337.07850000000326,
      "v": 127
    },
    {
      "midi": 82,
      "hit": false,
      "t": 70786.48500000013,
      "d": 337.07850000000326,
      "v": 127
    },
    {
      "midi": 86,
      "hit": false,
      "t": 70786.48500000013,
      "d": 337.07850000000326,
      "v": 127
    },
    {
      "midi": 43,
      "hit": false,
      "t": 70786.48500000022,
      "d": 337.07850000000326,
      "v": 127
    },
    {
      "midi": 67,
      "hit": false,
      "t": 71123.56350000013,
      "d": 674.1570000000065,
      "v": 127
    },
    {
      "midi": 79,
      "hit": false,
      "t": 71123.56350000013,
      "d": 674.1570000000065,
      "v": 127
    },
    {
      "midi": 50,
      "hit": false,
      "t": 71123.56350000022,
      "d": 337.07850000000326,
      "v": 127
    },
    {
      "midi": 55,
      "hit": false,
      "t": 71460.64200000023,
      "d": 674.1570000000065,
      "v": 127
    },
    {
      "midi": 70,
      "hit": false,
      "t": 71797.72050000014,
      "d": 337.07850000000326,
      "v": 127
    },
    {
      "midi": 82,
      "hit": false,
      "t": 71797.72050000014,
      "d": 337.07850000000326,
      "v": 127
    },
    {
      "midi": 72,
      "hit": false,
      "t": 72134.79900000014,
      "d": 1348.314000000013,
      "v": 127
    },
    {
      "midi": 77,
      "hit": false,
      "t": 72134.79900000014,
      "d": 1348.314000000013,
      "v": 127
    },
    {
      "midi": 79,
      "hit": false,
      "t": 72134.79900000014,
      "d": 1348.314000000013,
      "v": 127
    },
    {
      "midi": 84,
      "hit": false,
      "t": 72134.79900000014,
      "d": 1348.314000000013,
      "v": 127
    },
    {
      "midi": 48,
      "hit": false,
      "t": 72134.79900000023,
      "d": 337.07850000000326,
      "v": 127
    },
    {
      "midi": 53,
      "hit": false,
      "t": 72471.87750000024,
      "d": 337.07850000000326,
      "v": 127
    },
    {
      "midi": 55,
      "hit": false,
      "t": 72808.95600000024,
      "d": 337.07850000000326,
      "v": 127
    },
    {
      "midi": 60,
      "hit": false,
      "t": 73146.03450000024,
      "d": 337.07850000000326,
      "v": 127
    },
    {
      "midi": 65,
      "hit": false,
      "t": 73483.11300000016,
      "d": 337.07850000000326,
      "v": 127
    },
    {
      "midi": 67,
      "hit": false,
      "t": 73820.19150000016,
      "d": 337.07850000000326,
      "v": 127
    },
    {
      "midi": 72,
      "hit": false,
      "t": 74157.27000000016,
      "d": 337.07850000000326,
      "v": 127
    },
    {
      "midi": 77,
      "hit": false,
      "t": 74494.34850000017,
      "d": 337.07850000000326,
      "v": 127
    },
    {
      "midi": 76,
      "hit": false,
      "t": 74831.42700000017,
      "d": 337.07850000000326,
      "v": 127
    },
    {
      "midi": 48,
      "hit": false,
      "t": 74831.42700000026,
      "d": 337.07850000000326,
      "v": 127
    },
    {
      "midi": 72,
      "hit": false,
      "t": 75168.50550000017,
      "d": 337.07850000000326,
      "v": 127
    },
    {
      "midi": 55,
      "hit": false,
      "t": 75168.50550000026,
      "d": 337.07850000000326,
      "v": 127
    },
    {
      "midi": 79,
      "hit": false,
      "t": 75505.58400000018,
      "d": 337.07850000000326,
      "v": 127
    },
    {
      "midi": 60,
      "hit": false,
      "t": 75505.58400000026,
      "d": 337.07850000000326,
      "v": 127
    },
    {
      "midi": 76,
      "hit": false,
      "t": 75842.66250000018,
      "d": 337.07850000000326,
      "v": 127
    },
    {
      "midi": 64,
      "hit": false,
      "t": 75842.66250000027,
      "d": 337.07850000000326,
      "v": 127
    },
    {
      "midi": 84,
      "hit": false,
      "t": 76179.74100000018,
      "d": 674.1570000000065,
      "v": 127
    },
    {
      "midi": 67,
      "hit": false,
      "t": 76179.74100000027,
      "d": 674.1570000000065,
      "v": 127
    }
  ]
}