{
  "jsonPath": "Unknown/Unknown/Westernhagen (WEA)/es-geht-mir-wie-dir-remastered.json",
  "path": "Unknown\\Unknown\\Westernhagen (WEA)\\Es Geht Mir Wie Dir (Remastered).mid",
  "name": "Es Geht Mir Wie Dir (Remastered)",
  "difficulty": "Advanced",
  "bpm": 100,
  "notes": [
    {
      "midi": 67,
      "hit": false,
      "t": 1800,
      "d": 1160,
      "v": 127
    },
    {
      "midi": 55,
      "hit": false,
      "t": 1810,
      "d": 510,
      "v": 127
    },
    {
      "midi": 55,
      "hit": false,
      "t": 2570,
      "d": 770,
      "v": 127
    },
    {
      "midi": 64,
      "hit": false,
      "t": 2940,
      "d": 200,
      "v": 127
    },
    {
      "midi": 60,
      "hit": false,
      "t": 2965,
      "d": 25,
      "v": 127
    },
    {
      "midi": 52,
      "hit": false,
      "t": 3510,
      "d": 150,
      "v": 127
    },
    {
      "midi": 48,
      "hit": false,
      "t": 3725,
      "d": 225,
      "v": 127
    },
    {
      "midi": 64,
      "hit": false,
      "t": 4085,
      "d": 175,
      "v": 127
    },
    {
      "midi": 60,
      "hit": false,
      "t": 4095,
      "d": 130,
      "v": 127
    },
    {
      "midi": 67,
      "hit": false,
      "t": 4105,
      "d": 65,
      "v": 127
    },
    {
      "midi": 55,
      "hit": false,
      "t": 4830,
      "d": 30,
      "v": 127
    },
    {
      "midi": 52,
      "hit": false,
      "t": 5020,
      "d": 25,
      "v": 127
    },
    {
      "midi": 64,
      "hit": false,
      "t": 5220,
      "d": 210,
      "v": 127
    },
    {
      "midi": 55,
      "hit": false,
      "t": 5230,
      "d": 15,
      "v": 127
    },
    {
      "midi": 67,
      "hit": false,
      "t": 5240,
      "d": 120,
      "v": 127
    },
    {
      "midi": 60,
      "hit": false,
      "t": 5240,
      "d": 165,
      "v": 127
    },
    {
      "midi": 48,
      "hit": false,
      "t": 5250,
      "d": 220,
      "v": 127
    },
    {
      "midi": 52,
      "hit": false,
      "t": 5620,
      "d": 545,
      "v": 127
    },
    {
      "midi": 64,
      "hit": false,
      "t": 5960,
      "d": 60,
      "v": 127
    },
    {
      "midi": 60,
      "hit": false,
      "t": 5990,
      "d": 160,
      "v": 127
    },
    {
      "midi": 67,
      "hit": false,
      "t": 6005,
      "d": 500,
      "v": 127
    },
    {
      "midi": 57,
      "hit": false,
      "t": 6380,
      "d": 1500,
      "v": 127
    },
    {
      "midi": 60,
      "hit": false,
      "t": 7555,
      "d": 195,
      "v": 127
    },
    {
      "midi": 65,
      "hit": false,
      "t": 7585,
      "d": 95,
      "v": 127
    },
    {
      "midi": 72,
      "hit": false,
      "t": 7595,
      "d": 2060,
      "v": 127
    },
    {
      "midi": 57,
      "hit": false,
      "t": 7950,
      "d": 310,
      "v": 127
    },
    {
      "midi": 60,
      "hit": false,
      "t": 8150,
      "d": 790,
      "v": 127
    },
    {
      "midi": 57,
      "hit": false,
      "t": 8300,
      "d": 330,
      "v": 127
    },
    {
      "midi": 53,
      "hit": false,
      "t": 8490,
      "d": 260,
      "v": 127
    },
    {
      "midi": 57,
      "hit": false,
      "t": 8685,
      "d": 1345,
      "v": 127
    },
    {
      "midi": 65,
      "hit": false,
      "t": 9400,
      "d": 255,
      "v": 127
    },
    {
      "midi": 53,
      "hit": false,
      "t": 9760,
      "d": 180,
      "v": 127
    },
    {
      "midi": 60,
      "hit": false,
      "t": 9770,
      "d": 95,
      "v": 127
    },
    {
      "midi": 69,
      "hit": false,
      "t": 9780,
      "d": 40,
      "v": 127
    },
    {
      "midi": 65,
      "hit": false,
      "t": 9780,
      "d": 545,
      "v": 127
    },
    {
      "midi": 72,
      "hit": false,
      "t": 9790,
      "d": 505,
      "v": 127
    },
    {
      "midi": 57,
      "hit": false,
      "t": 10150,
      "d": 330,
      "v": 127
    },
    {
      "midi": 65,
      "hit": false,
      "t": 10330,
      "d": 850,
      "v": 127
    },
    {
      "midi": 69,
      "hit": false,
      "t": 10340,
      "d": 5,
      "v": 127
    },
    {
      "midi": 72,
      "hit": false,
      "t": 10345,
      "d": 775,
      "v": 127
    },
    {
      "midi": 60,
      "hit": false,
      "t": 10485,
      "d": 100,
      "v": 127
    },
    {
      "midi": 53,
      "hit": false,
      "t": 10500,
      "d": 65,
      "v": 127
    },
    {
      "midi": 57,
      "hit": false,
      "t": 10500,
      "d": 155,
      "v": 127
    },
    {
      "midi": 55,
      "hit": false,
      "t": 10865,
      "d": 720,
      "v": 127
    },
    {
      "midi": 52,
      "hit": false,
      "t": 11240,
      "d": 935,
      "v": 127
    },
    {
      "midi": 60,
      "hit": false,
      "t": 11945,
      "d": 50,
      "v": 127
    },
    {
      "midi": 64,
      "hit": false,
      "t": 11965,
      "d": 1895,
      "v": 127
    },
    {
      "midi": 67,
      "hit": false,
      "t": 11985,
      "d": 1780,
      "v": 127
    },
    {
      "midi": 48,
      "hit": false,
      "t": 12000,
      "d": 145,
      "v": 127
    },
    {
      "midi": 55,
      "hit": false,
      "t": 12000,
      "d": 455,
      "v": 127
    },
    {
      "midi": 52,
      "hit": false,
      "t": 12325,
      "d": 290,
      "v": 127
    },
    {
      "midi": 55,
      "hit": false,
      "t": 12510,
      "d": 770,
      "v": 127
    },
    {
      "midi": 52,
      "hit": false,
      "t": 12670,
      "d": 305,
      "v": 127
    },
    {
      "midi": 48,
      "hit": false,
      "t": 12865,
      "d": 15,
      "v": 127
    },
    {
      "midi": 52,
      "hit": false,
      "t": 13070,
      "d": 1325,
      "v": 127
    },
    {
      "midi": 60,
      "hit": false,
      "t": 13775,
      "d": 90,
      "v": 127
    },
    {
      "midi": 48,
      "hit": false,
      "t": 14140,
      "d": 170,
      "v": 127
    },
    {
      "midi": 60,
      "hit": false,
      "t": 14150,
      "d": 10,
      "v": 127
    },
    {
      "midi": 55,
      "hit": false,
      "t": 14150,
      "d": 90,
      "v": 127
    },
    {
      "midi": 67,
      "hit": false,
      "t": 14175,
      "d": 535,
      "v": 127
    },
    {
      "midi": 52,
      "hit": false,
      "t": 14540,
      "d": 310,
      "v": 127
    },
    {
      "midi": 60,
      "hit": false,
      "t": 14730,
      "d": 475,
      "v": 127
    },
    {
      "midi": 64,
      "hit": false,
      "t": 14740,
      "d": 20,
      "v": 127
    },
    {
      "midi": 67,
      "hit": false,
      "t": 14755,
      "d": 660,
      "v": 127
    },
    {
      "midi": 52,
      "hit": false,
      "t": 14880,
      "d": 130,
      "v": 127
    },
    {
      "midi": 57,
      "hit": false,
      "t": 15250,
      "d": 1300,
      "v": 127
    },
    {
      "midi": 69,
      "hit": false,
      "t": 15965,
      "d": 455,
      "v": 127
    },
    {
      "midi": 60,
      "hit": false,
      "t": 16315,
      "d": 190,
      "v": 127
    },
    {
      "midi": 53,
      "hit": false,
      "t": 16325,
      "d": 145,
      "v": 127
    },
    {
      "midi": 65,
      "hit": false,
      "t": 16335,
      "d": 90,
      "v": 127
    },
    {
      "midi": 72,
      "hit": false,
      "t": 16345,
      "d": 845,
      "v": 127
    },
    {
      "midi": 57,
      "hit": false,
      "t": 16680,
      "d": 890,
      "v": 127
    },
    {
      "midi": 69,
      "hit": false,
      "t": 17025,
      "d": 515,
      "v": 127
    },
    {
      "midi": 53,
      "hit": false,
      "t": 17390,
      "d": 160,
      "v": 127
    },
    {
      "midi": 65,
      "hit": false,
      "t": 17435,
      "d": 685,
      "v": 127
    },
    {
      "midi": 69,
      "hit": false,
      "t": 17795,
      "d": 460,
      "v": 127
    },
    {
      "midi": 72,
      "hit": false,
      "t": 18155,
      "d": 480,
      "v": 127
    },
    {
      "midi": 53,
      "hit": false,
      "t": 18490,
      "d": 195,
      "v": 127
    },
    {
      "midi": 60,
      "hit": false,
      "t": 18525,
      "d": 115,
      "v": 127
    },
    {
      "midi": 69,
      "hit": false,
      "t": 18535,
      "d": 445,
      "v": 127
    },
    {
      "midi": 65,
      "hit": false,
      "t": 18875,
      "d": 490,
      "v": 127
    },
    {
      "midi": 69,
      "hit": false,
      "t": 19240,
      "d": 565,
      "v": 127
    },
    {
      "midi": 55,
      "hit": false,
      "t": 20730,
      "d": 135,
      "v": 127
    },
    {
      "midi": 48,
      "hit": false,
      "t": 20730,
      "d": 155,
      "v": 127
    },
    {
      "midi": 67,
      "hit": false,
      "t": 20740,
      "d": 515,
      "v": 127
    },
    {
      "midi": 64,
      "hit": false,
      "t": 21110,
      "d": 470,
      "v": 127
    },
    {
      "midi": 48,
      "hit": false,
      "t": 21855,
      "d": 170,
      "v": 127
    },
    {
      "midi": 60,
      "hit": false,
      "t": 21865,
      "d": 20,
      "v": 127
    },
    {
      "midi": 55,
      "hit": false,
      "t": 21875,
      "d": 165,
      "v": 127
    },
    {
      "midi": 52,
      "hit": false,
      "t": 22630,
      "d": 425,
      "v": 127
    },
    {
      "midi": 64,
      "hit": false,
      "t": 22985,
      "d": 205,
      "v": 127
    },
    {
      "midi": 48,
      "hit": false,
      "t": 22995,
      "d": 95,
      "v": 127
    },
    {
      "midi": 55,
      "hit": false,
      "t": 23005,
      "d": 95,
      "v": 127
    },
    {
      "midi": 67,
      "hit": false,
      "t": 23015,
      "d": 25,
      "v": 127
    },
    {
      "midi": 60,
      "hit": false,
      "t": 23015,
      "d": 115,
      "v": 127
    },
    {
      "midi": 52,
      "hit": false,
      "t": 23330,
      "d": 575,
      "v": 127
    },
    {
      "midi": 55,
      "hit": false,
      "t": 23725,
      "d": 130,
      "v": 127
    },
    {
      "midi": 57,
      "hit": false,
      "t": 24135,
      "d": 1385,
      "v": 127
    },
    {
      "midi": 60,
      "hit": false,
      "t": 25300,
      "d": 185,
      "v": 127
    },
    {
      "midi": 53,
      "hit": false,
      "t": 25310,
      "d": 165,
      "v": 127
    },
    {
      "midi": 57,
      "hit": false,
      "t": 25870,
      "d": 230,
      "v": 127
    },
    {
      "midi": 60,
      "hit": false,
      "t": 26010,
      "d": 970,
      "v": 127
    },
    {
      "midi": 57,
      "hit": false,
      "t": 26175,
      "d": 305,
      "v": 127
    },
    {
      "midi": 53,
      "hit": false,
      "t": 26360,
      "d": 70,
      "v": 127
    },
    {
      "midi": 57,
      "hit": false,
      "t": 26700,
      "d": 835,
      "v": 127
    },
    {
      "midi": 60,
      "hit": false,
      "t": 27040,
      "d": 295,
      "v": 127
    },
    {
      "midi": 53,
      "hit": false,
      "t": 27365,
      "d": 40,
      "v": 127
    },
    {
      "midi": 69,
      "hit": false,
      "t": 27385,
      "d": 355,
      "v": 127
    },
    {
      "midi": 65,
      "hit": false,
      "t": 27395,
      "d": 280,
      "v": 127
    },
    {
      "midi": 72,
      "hit": false,
      "t": 27405,
      "d": 150,
      "v": 127
    },
    {
      "midi": 57,
      "hit": false,
      "t": 27755,
      "d": 220,
      "v": 127
    },
    {
      "midi": 69,
      "hit": false,
      "t": 27895,
      "d": 30,
      "v": 127
    },
    {
      "midi": 65,
      "hit": false,
      "t": 27895,
      "d": 770,
      "v": 127
    },
    {
      "midi": 72,
      "hit": false,
      "t": 27905,
      "d": 710,
      "v": 127
    },
    {
      "midi": 53,
      "hit": false,
      "t": 28055,
      "d": 70,
      "v": 127
    },
    {
      "midi": 57,
      "hit": false,
      "t": 28065,
      "d": 140,
      "v": 127
    },
    {
      "midi": 60,
      "hit": false,
      "t": 28075,
      "d": 40,
      "v": 127
    },
    {
      "midi": 60,
      "hit": false,
      "t": 29505,
      "d": 80,
      "v": 127
    },
    {
      "midi": 48,
      "hit": false,
      "t": 29525,
      "d": 150,
      "v": 127
    },
    {
      "midi": 55,
      "hit": false,
      "t": 29535,
      "d": 135,
      "v": 127
    },
    {
      "midi": 52,
      "hit": false,
      "t": 29875,
      "d": 230,
      "v": 127
    },
    {
      "midi": 55,
      "hit": false,
      "t": 30030,
      "d": 1190,
      "v": 127
    },
    {
      "midi": 52,
      "hit": false,
      "t": 30220,
      "d": 505,
      "v": 127
    },
    {
      "midi": 52,
      "hit": false,
      "t": 30945,
      "d": 845,
      "v": 127
    },
    {
      "midi": 55,
      "hit": false,
      "t": 31325,
      "d": 290,
      "v": 127
    },
    {
      "midi": 64,
      "hit": false,
      "t": 31650,
      "d": 455,
      "v": 127
    },
    {
      "midi": 48,
      "hit": false,
      "t": 31670,
      "d": 70,
      "v": 127
    },
    {
      "midi": 67,
      "hit": false,
      "t": 31680,
      "d": 215,
      "v": 127
    },
    {
      "midi": 60,
      "hit": false,
      "t": 31680,
      "d": 275,
      "v": 127
    },
    {
      "midi": 60,
      "hit": false,
      "t": 32450,
      "d": 45,
      "v": 127
    },
    {
      "midi": 55,
      "hit": false,
      "t": 32450,
      "d": 90,
      "v": 127
    },
    {
      "midi": 64,
      "hit": false,
      "t": 32455,
      "d": 105,
      "v": 127
    },
    {
      "midi": 67,
      "hit": false,
      "t": 32475,
      "d": 530,
      "v": 127
    },
    {
      "midi": 53,
      "hit": false,
      "t": 33930,
      "d": 185,
      "v": 127
    },
    {
      "midi": 60,
      "hit": false,
      "t": 33940,
      "d": 150,
      "v": 127
    },
    {
      "midi": 57,
      "hit": false,
      "t": 34525,
      "d": 270,
      "v": 127
    },
    {
      "midi": 57,
      "hit": false,
      "t": 35040,
      "d": 510,
      "v": 127
    },
    {
      "midi": 57,
      "hit": false,
      "t": 35740,
      "d": 425,
      "v": 127
    },
    {
      "midi": 69,
      "hit": false,
      "t": 36080,
      "d": 365,
      "v": 127
    },
    {
      "midi": 53,
      "hit": false,
      "t": 36090,
      "d": 70,
      "v": 127
    },
    {
      "midi": 65,
      "hit": false,
      "t": 36090,
      "d": 355,
      "v": 127
    },
    {
      "midi": 72,
      "hit": false,
      "t": 36105,
      "d": 285,
      "v": 127
    },
    {
      "midi": 60,
      "hit": false,
      "t": 36115,
      "d": 165,
      "v": 127
    },
    {
      "midi": 57,
      "hit": false,
      "t": 36415,
      "d": 595,
      "v": 127
    },
    {
      "midi": 60,
      "hit": false,
      "t": 36775,
      "d": 115,
      "v": 127
    },
    {
      "midi": 48,
      "hit": false,
      "t": 38310,
      "d": 185,
      "v": 127
    },
    {
      "midi": 60,
      "hit": false,
      "t": 38325,
      "d": 75,
      "v": 127
    },
    {
      "midi": 55,
      "hit": false,
      "t": 38325,
      "d": 165,
      "v": 127
    },
    {
      "midi": 52,
      "hit": false,
      "t": 39135,
      "d": 520,
      "v": 127
    },
    {
      "midi": 48,
      "hit": false,
      "t": 39490,
      "d": 40,
      "v": 127
    },
    {
      "midi": 52,
      "hit": false,
      "t": 39825,
      "d": 860,
      "v": 127
    },
    {
      "midi": 55,
      "hit": false,
      "t": 40150,
      "d": 90,
      "v": 127
    },
    {
      "midi": 55,
      "hit": false,
      "t": 40520,
      "d": 40,
      "v": 127
    },
    {
      "midi": 48,
      "hit": false,
      "t": 40520,
      "d": 80,
      "v": 127
    },
    {
      "midi": 64,
      "hit": false,
      "t": 40520,
      "d": 505,
      "v": 127
    },
    {
      "midi": 67,
      "hit": false,
      "t": 40535,
      "d": 275,
      "v": 127
    },
    {
      "midi": 60,
      "hit": false,
      "t": 40535,
      "d": 315,
      "v": 127
    },
    {
      "midi": 52,
      "hit": false,
      "t": 40875,
      "d": 265,
      "v": 127
    },
    {
      "midi": 60,
      "hit": false,
      "t": 41035,
      "d": 15,
      "v": 127
    },
    {
      "midi": 64,
      "hit": false,
      "t": 41045,
      "d": 25,
      "v": 127
    },
    {
      "midi": 67,
      "hit": false,
      "t": 41055,
      "d": 690,
      "v": 127
    },
    {
      "midi": 52,
      "hit": false,
      "t": 41220,
      "d": 125,
      "v": 127
    },
    {
      "midi": 55,
      "hit": false,
      "t": 41250,
      "d": 90,
      "v": 127
    },
    {
      "midi": 59,
      "hit": false,
      "t": 41600,
      "d": 1415,
      "v": 127
    },
    {
      "midi": 55,
      "hit": false,
      "t": 42805,
      "d": 135,
      "v": 127
    },
    {
      "midi": 62,
      "hit": false,
      "t": 42810,
      "d": 145,
      "v": 127
    },
    {
      "midi": 59,
      "hit": false,
      "t": 43335,
      "d": 260,
      "v": 127
    },
    {
      "midi": 62,
      "hit": false,
      "t": 43465,
      "d": 955,
      "v": 127
    },
    {
      "midi": 59,
      "hit": false,
      "t": 43650,
      "d": 355,
      "v": 127
    },
    {
      "midi": 55,
      "hit": false,
      "t": 43850,
      "d": 75,
      "v": 127
    },
    {
      "midi": 59,
      "hit": false,
      "t": 44190,
      "d": 860,
      "v": 127
    },
    {
      "midi": 62,
      "hit": false,
      "t": 44550,
      "d": 340,
      "v": 127
    },
    {
      "midi": 55,
      "hit": false,
      "t": 44895,
      "d": 75,
      "v": 127
    },
    {
      "midi": 71,
      "hit": false,
      "t": 44905,
      "d": 405,
      "v": 127
    },
    {
      "midi": 67,
      "hit": false,
      "t": 44925,
      "d": 295,
      "v": 127
    },
    {
      "midi": 74,
      "hit": false,
      "t": 44935,
      "d": 245,
      "v": 127
    },
    {
      "midi": 59,
      "hit": false,
      "t": 45255,
      "d": 300,
      "v": 127
    },
    {
      "midi": 67,
      "hit": false,
      "t": 45440,
      "d": 15,
      "v": 127
    },
    {
      "midi": 71,
      "hit": false,
      "t": 45440,
      "d": 40,
      "v": 127
    },
    {
      "midi": 74,
      "hit": false,
      "t": 45445,
      "d": 690,
      "v": 127
    },
    {
      "midi": 55,
      "hit": false,
      "t": 45590,
      "d": 65,
      "v": 127
    },
    {
      "midi": 59,
      "hit": false,
      "t": 45600,
      "d": 155,
      "v": 127
    },
    {
      "midi": 62,
      "hit": false,
      "t": 45610,
      "d": 20,
      "v": 127
    },
    {
      "midi": 65,
      "hit": false,
      "t": 47015,
      "d": 90,
      "v": 127
    },
    {
      "midi": 53,
      "hit": false,
      "t": 47050,
      "d": 110,
      "v": 127
    },
    {
      "midi": 57,
      "hit": false,
      "t": 47370,
      "d": 595,
      "v": 127
    },
    {
      "midi": 60,
      "hit": false,
      "t": 47760,
      "d": 10,
      "v": 127
    },
    {
      "midi": 57,
      "hit": false,
      "t": 48085,
      "d": 505,
      "v": 127
    },
    {
      "midi": 57,
      "hit": false,
      "t": 48770,
      "d": 480,
      "v": 127
    },
    {
      "midi": 53,
      "hit": false,
      "t": 49095,
      "d": 80,
      "v": 127
    },
    {
      "midi": 69,
      "hit": false,
      "t": 49130,
      "d": 445,
      "v": 127
    },
    {
      "midi": 72,
      "hit": false,
      "t": 49140,
      "d": 230,
      "v": 127
    },
    {
      "midi": 65,
      "hit": false,
      "t": 49140,
      "d": 280,
      "v": 127
    },
    {
      "midi": 60,
      "hit": false,
      "t": 49150,
      "d": 90,
      "v": 127
    },
    {
      "midi": 57,
      "hit": false,
      "t": 49485,
      "d": 610,
      "v": 127
    },
    {
      "midi": 60,
      "hit": false,
      "t": 49875,
      "d": 85,
      "v": 127
    },
    {
      "midi": 67,
      "hit": false,
      "t": 50970,
      "d": 895,
      "v": 127
    },
    {
      "midi": 55,
      "hit": false,
      "t": 51360,
      "d": 180,
      "v": 127
    },
    {
      "midi": 64,
      "hit": false,
      "t": 51360,
      "d": 505,
      "v": 127
    },
    {
      "midi": 64,
      "hit": false,
      "t": 52065,
      "d": 3145,
      "v": 127
    },
    {
      "midi": 60,
      "hit": false,
      "t": 52460,
      "d": 50,
      "v": 127
    },
    {
      "midi": 55,
      "hit": false,
      "t": 52480,
      "d": 150,
      "v": 127
    },
    {
      "midi": 48,
      "hit": false,
      "t": 52480,
      "d": 390,
      "v": 127
    },
    {
      "midi": 52,
      "hit": false,
      "t": 53580,
      "d": 540,
      "v": 127
    },
    {
      "midi": 48,
      "hit": false,
      "t": 54270,
      "d": 60,
      "v": 127
    },
    {
      "midi": 55,
      "hit": false,
      "t": 54275,
      "d": 190,
      "v": 127
    },
    {
      "midi": 60,
      "hit": false,
      "t": 54285,
      "d": 260,
      "v": 127
    },
    {
      "midi": 67,
      "hit": false,
      "t": 54295,
      "d": 310,
      "v": 127
    },
    {
      "midi": 65,
      "hit": false,
      "t": 55760,
      "d": 40,
      "v": 127
    },
    {
      "midi": 53,
      "hit": false,
      "t": 55790,
      "d": 215,
      "v": 127
    },
    {
      "midi": 72,
      "hit": false,
      "t": 55830,
      "d": 100,
      "v": 127
    },
    {
      "midi": 57,
      "hit": false,
      "t": 56530,
      "d": 725,
      "v": 127
    },
    {
      "midi": 60,
      "hit": false,
      "t": 56905,
      "d": 185,
      "v": 127
    },
    {
      "midi": 53,
      "hit": false,
      "t": 57630,
      "d": 85,
      "v": 127
    },
    {
      "midi": 53,
      "hit": false,
      "t": 57955,
      "d": 740,
      "v": 127
    },
    {
      "midi": 57,
      "hit": false,
      "t": 57965,
      "d": 95,
      "v": 127
    },
    {
      "midi": 60,
      "hit": false,
      "t": 57965,
      "d": 105,
      "v": 127
    },
    {
      "midi": 72,
      "hit": false,
      "t": 57980,
      "d": 70,
      "v": 127
    },
    {
      "midi": 69,
      "hit": false,
      "t": 58330,
      "d": 10,
      "v": 127
    },
    {
      "midi": 65,
      "hit": false,
      "t": 58515,
      "d": 310,
      "v": 127
    },
    {
      "midi": 69,
      "hit": false,
      "t": 58720,
      "d": 460,
      "v": 127
    },
    {
      "midi": 48,
      "hit": false,
      "t": 60200,
      "d": 165,
      "v": 127
    },
    {
      "midi": 55,
      "hit": false,
      "t": 60210,
      "d": 140,
      "v": 127
    },
    {
      "midi": 52,
      "hit": false,
      "t": 60560,
      "d": 570,
      "v": 127
    },
    {
      "midi": 55,
      "hit": false,
      "t": 60925,
      "d": 1440,
      "v": 127
    },
    {
      "midi": 52,
      "hit": false,
      "t": 61290,
      "d": 520,
      "v": 127
    },
    {
      "midi": 48,
      "hit": false,
      "t": 61600,
      "d": 65,
      "v": 127
    },
    {
      "midi": 52,
      "hit": false,
      "t": 61980,
      "d": 510,
      "v": 127
    },
    {
      "midi": 64,
      "hit": false,
      "t": 62370,
      "d": 480,
      "v": 127
    },
    {
      "midi": 48,
      "hit": false,
      "t": 62380,
      "d": 85,
      "v": 127
    },
    {
      "midi": 67,
      "hit": false,
      "t": 62380,
      "d": 345,
      "v": 127
    },
    {
      "midi": 60,
      "hit": false,
      "t": 62380,
      "d": 465,
      "v": 127
    },
    {
      "midi": 55,
      "hit": false,
      "t": 62395,
      "d": 535,
      "v": 127
    },
    {
      "midi": 52,
      "hit": false,
      "t": 62710,
      "d": 550,
      "v": 127
    },
    {
      "midi": 55,
      "hit": false,
      "t": 63075,
      "d": 125,
      "v": 127
    },
    {
      "midi": 57,
      "hit": false,
      "t": 63455,
      "d": 1315,
      "v": 127
    },
    {
      "midi": 69,
      "hit": false,
      "t": 64185,
      "d": 2320,
      "v": 127
    },
    {
      "midi": 60,
      "hit": false,
      "t": 64555,
      "d": 170,
      "v": 127
    },
    {
      "midi": 65,
      "hit": false,
      "t": 64565,
      "d": 65,
      "v": 127
    },
    {
      "midi": 53,
      "hit": false,
      "t": 64565,
      "d": 135,
      "v": 127
    },
    {
      "midi": 57,
      "hit": false,
      "t": 64900,
      "d": 535,
      "v": 127
    },
    {
      "midi": 57,
      "hit": false,
      "t": 65570,
      "d": 2045,
      "v": 127
    },
    {
      "midi": 72,
      "hit": false,
      "t": 66240,
      "d": 125,
      "v": 127
    },
    {
      "midi": 69,
      "hit": false,
      "t": 66585,
      "d": 440,
      "v": 127
    },
    {
      "midi": 53,
      "hit": false,
      "t": 66595,
      "d": 60,
      "v": 127
    },
    {
      "midi": 60,
      "hit": false,
      "t": 66595,
      "d": 200,
      "v": 127
    },
    {
      "midi": 65,
      "hit": false,
      "t": 66925,
      "d": 460,
      "v": 127
    },
    {
      "midi": 69,
      "hit": false,
      "t": 67275,
      "d": 460,
      "v": 127
    },
    {
      "midi": 64,
      "hit": false,
      "t": 67645,
      "d": 880,
      "v": 127
    },
    {
      "midi": 55,
      "hit": false,
      "t": 68755,
      "d": 150,
      "v": 127
    },
    {
      "midi": 48,
      "hit": false,
      "t": 68760,
      "d": 100,
      "v": 127
    },
    {
      "midi": 52,
      "hit": false,
      "t": 69460,
      "d": 475,
      "v": 127
    },
    {
      "midi": 48,
      "hit": false,
      "t": 69810,
      "d": 140,
      "v": 127
    },
    {
      "midi": 55,
      "hit": false,
      "t": 69825,
      "d": 970,
      "v": 127
    },
    {
      "midi": 52,
      "hit": false,
      "t": 70525,
      "d": 470,
      "v": 127
    },
    {
      "midi": 48,
      "hit": false,
      "t": 70895,
      "d": 60,
      "v": 127
    },
    {
      "midi": 64,
      "hit": false,
      "t": 70900,
      "d": 165,
      "v": 127
    },
    {
      "midi": 55,
      "hit": false,
      "t": 70900,
      "d": 540,
      "v": 127
    },
    {
      "midi": 67,
      "hit": false,
      "t": 70915,
      "d": 70,
      "v": 127
    },
    {
      "midi": 60,
      "hit": false,
      "t": 70915,
      "d": 390,
      "v": 127
    },
    {
      "midi": 52,
      "hit": false,
      "t": 71255,
      "d": 550,
      "v": 127
    },
    {
      "midi": 55,
      "hit": false,
      "t": 71615,
      "d": 140,
      "v": 127
    },
    {
      "midi": 59,
      "hit": false,
      "t": 71985,
      "d": 1265,
      "v": 127
    },
    {
      "midi": 71,
      "hit": false,
      "t": 73055,
      "d": 30,
      "v": 127
    },
    {
      "midi": 67,
      "hit": false,
      "t": 73065,
      "d": 70,
      "v": 127
    },
    {
      "midi": 62,
      "hit": false,
      "t": 73065,
      "d": 135,
      "v": 127
    },
    {
      "midi": 74,
      "hit": false,
      "t": 73065,
      "d": 500,
      "v": 127
    },
    {
      "midi": 55,
      "hit": false,
      "t": 73080,
      "d": 120,
      "v": 127
    },
    {
      "midi": 71,
      "hit": false,
      "t": 73565,
      "d": 40,
      "v": 127
    },
    {
      "midi": 59,
      "hit": false,
      "t": 73745,
      "d": 10,
      "v": 127
    },
    {
      "midi": 62,
      "hit": false,
      "t": 73755,
      "d": 35,
      "v": 127
    },
    {
      "midi": 55,
      "hit": false,
      "t": 73765,
      "d": 920,
      "v": 127
    },
    {
      "midi": 59,
      "hit": false,
      "t": 74440,
      "d": 840,
      "v": 127
    },
    {
      "midi": 55,
      "hit": false,
      "t": 74780,
      "d": 330,
      "v": 127
    },
    {
      "midi": 71,
      "hit": false,
      "t": 75115,
      "d": 300,
      "v": 127
    },
    {
      "midi": 55,
      "hit": false,
      "t": 75125,
      "d": 1050,
      "v": 127
    },
    {
      "midi": 62,
      "hit": false,
      "t": 75140,
      "d": 100,
      "v": 127
    },
    {
      "midi": 74,
      "hit": false,
      "t": 75145,
      "d": 185,
      "v": 127
    },
    {
      "midi": 67,
      "hit": false,
      "t": 75165,
      "d": 155,
      "v": 127
    },
    {
      "midi": 59,
      "hit": false,
      "t": 75490,
      "d": 770,
      "v": 127
    },
    {
      "midi": 62,
      "hit": false,
      "t": 75850,
      "d": 205,
      "v": 127
    },
    {
      "midi": 69,
      "hit": false,
      "t": 76585,
      "d": 565,
      "v": 127
    },
    {
      "midi": 69,
      "hit": false,
      "t": 77165,
      "d": 100,
      "v": 127
    },
    {
      "midi": 72,
      "hit": false,
      "t": 77285,
      "d": 50,
      "v": 127
    },
    {
      "midi": 53,
      "hit": false,
      "t": 77310,
      "d": 120,
      "v": 127
    },
    {
      "midi": 60,
      "hit": false,
      "t": 77310,
      "d": 130,
      "v": 127
    },
    {
      "midi": 57,
      "hit": false,
      "t": 77660,
      "d": 560,
      "v": 127
    },
    {
      "midi": 65,
      "hit": false,
      "t": 77815,
      "d": 305,
      "v": 127
    },
    {
      "midi": 69,
      "hit": false,
      "t": 77830,
      "d": 60,
      "v": 127
    },
    {
      "midi": 72,
      "hit": false,
      "t": 77840,
      "d": 40,
      "v": 127
    },
    {
      "midi": 57,
      "hit": false,
      "t": 78355,
      "d": 510,
      "v": 127
    },
    {
      "midi": 57,
      "hit": false,
      "t": 79070,
      "d": 455,
      "v": 127
    },
    {
      "midi": 53,
      "hit": false,
      "t": 79410,
      "d": 50,
      "v": 127
    },
    {
      "midi": 60,
      "hit": false,
      "t": 79430,
      "d": 190,
      "v": 127
    },
    {
      "midi": 72,
      "hit": false,
      "t": 79440,
      "d": 140,
      "v": 127
    },
    {
      "midi": 69,
      "hit": false,
      "t": 79440,
      "d": 240,
      "v": 127
    },
    {
      "midi": 65,
      "hit": false,
      "t": 79450,
      "d": 200,
      "v": 127
    },
    {
      "midi": 57,
      "hit": false,
      "t": 79770,
      "d": 290,
      "v": 127
    },
    {
      "midi": 69,
      "hit": false,
      "t": 79935,
      "d": 10,
      "v": 127
    },
    {
      "midi": 65,
      "hit": false,
      "t": 79935,
      "d": 685,
      "v": 127
    },
    {
      "midi": 72,
      "hit": false,
      "t": 79935,
      "d": 695,
      "v": 127
    },
    {
      "midi": 60,
      "hit": false,
      "t": 80085,
      "d": 55,
      "v": 127
    },
    {
      "midi": 57,
      "hit": false,
      "t": 80090,
      "d": 140,
      "v": 127
    },
    {
      "midi": 53,
      "hit": false,
      "t": 80100,
      "d": 10,
      "v": 127
    },
    {
      "midi": 48,
      "hit": false,
      "t": 81525,
      "d": 95,
      "v": 127
    },
    {
      "midi": 60,
      "hit": false,
      "t": 81525,
      "d": 95,
      "v": 127
    },
    {
      "midi": 55,
      "hit": false,
      "t": 81535,
      "d": 135,
      "v": 127
    },
    {
      "midi": 52,
      "hit": false,
      "t": 81865,
      "d": 275,
      "v": 127
    },
    {
      "midi": 55,
      "hit": false,
      "t": 82065,
      "d": 740,
      "v": 127
    },
    {
      "midi": 52,
      "hit": false,
      "t": 82230,
      "d": 265,
      "v": 127
    },
    {
      "midi": 48,
      "hit": false,
      "t": 82380,
      "d": 85,
      "v": 127
    },
    {
      "midi": 52,
      "hit": false,
      "t": 82580,
      "d": 550,
      "v": 127
    },
    {
      "midi": 52,
      "hit": false,
      "t": 83285,
      "d": 390,
      "v": 127
    },
    {
      "midi": 55,
      "hit": false,
      "t": 83630,
      "d": 45,
      "v": 127
    },
    {
      "midi": 67,
      "hit": false,
      "t": 83630,
      "d": 295,
      "v": 127
    },
    {
      "midi": 48,
      "hit": false,
      "t": 83640,
      "d": 120,
      "v": 127
    },
    {
      "midi": 64,
      "hit": false,
      "t": 83645,
      "d": 420,
      "v": 127
    },
    {
      "midi": 60,
      "hit": false,
      "t": 83655,
      "d": 275,
      "v": 127
    },
    {
      "midi": 52,
      "hit": false,
      "t": 83975,
      "d": 545,
      "v": 127
    },
    {
      "midi": 55,
      "hit": false,
      "t": 84340,
      "d": 110,
      "v": 127
    },
    {
      "midi": 60,
      "hit": false,
      "t": 84715,
      "d": 1340,
      "v": 127
    },
    {
      "midi": 64,
      "hit": false,
      "t": 84730,
      "d": 120,
      "v": 127
    },
    {
      "midi": 69,
      "hit": false,
      "t": 85060,
      "d": 140,
      "v": 127
    },
    {
      "midi": 76,
      "hit": false,
      "t": 85070,
      "d": 130,
      "v": 127
    },
    {
      "midi": 69,
      "hit": false,
      "t": 85415,
      "d": 120,
      "v": 127
    },
    {
      "midi": 76,
      "hit": false,
      "t": 85420,
      "d": 125,
      "v": 127
    },
    {
      "midi": 69,
      "hit": false,
      "t": 85755,
      "d": 135,
      "v": 127
    },
    {
      "midi": 76,
      "hit": false,
      "t": 85755,
      "d": 140,
      "v": 127
    },
    {
      "midi": 57,
      "hit": false,
      "t": 85770,
      "d": 45,
      "v": 127
    },
    {
      "midi": 64,
      "hit": false,
      "t": 85790,
      "d": 105,
      "v": 127
    },
    {
      "midi": 69,
      "hit": false,
      "t": 85805,
      "d": 65,
      "v": 127
    },
    {
      "midi": 76,
      "hit": false,
      "t": 86125,
      "d": 145,
      "v": 127
    },
    {
      "midi": 60,
      "hit": false,
      "t": 86135,
      "d": 540,
      "v": 127
    },
    {
      "midi": 69,
      "hit": false,
      "t": 86135,
      "d": 120,
      "v": 127
    },
    {
      "midi": 69,
      "hit": false,
      "t": 86470,
      "d": 130,
      "v": 127
    },
    {
      "midi": 76,
      "hit": false,
      "t": 86480,
      "d": 130,
      "v": 127
    },
    {
      "midi": 60,
      "hit": false,
      "t": 86825,
      "d": 540,
      "v": 126
    },
    {
      "midi": 69,
      "hit": false,
      "t": 86840,
      "d": 135,
      "v": 126
    },
    {
      "midi": 76,
      "hit": false,
      "t": 86840,
      "d": 165,
      "v": 126
    },
    {
      "midi": 69,
      "hit": false,
      "t": 87190,
      "d": 155,
      "v": 126
    },
    {
      "midi": 76,
      "hit": false,
      "t": 87190,
      "d": 170,
      "v": 126
    },
    {
      "midi": 60,
      "hit": false,
      "t": 87520,
      "d": 410,
      "v": 126
    },
    {
      "midi": 69,
      "hit": false,
      "t": 87535,
      "d": 140,
      "v": 126
    },
    {
      "midi": 76,
      "hit": false,
      "t": 87535,
      "d": 145,
      "v": 126
    },
    {
      "midi": 57,
      "hit": false,
      "t": 87845,
      "d": 55,
      "v": 126
    },
    {
      "midi": 72,
      "hit": false,
      "t": 87850,
      "d": 420,
      "v": 126
    },
    {
      "midi": 76,
      "hit": false,
      "t": 87860,
      "d": 240,
      "v": 126
    },
    {
      "midi": 64,
      "hit": false,
      "t": 87870,
      "d": 150,
      "v": 126
    },
    {
      "midi": 69,
      "hit": false,
      "t": 87870,
      "d": 280,
      "v": 126
    },
    {
      "midi": 69,
      "hit": false,
      "t": 87885,
      "d": 145,
      "v": 126
    },
    {
      "midi": 76,
      "hit": false,
      "t": 87885,
      "d": 175,
      "v": 126
    },
    {
      "midi": 60,
      "hit": false,
      "t": 88210,
      "d": 560,
      "v": 126
    },
    {
      "midi": 69,
      "hit": false,
      "t": 88215,
      "d": 155,
      "v": 126
    },
    {
      "midi": 76,
      "hit": false,
      "t": 88215,
      "d": 180,
      "v": 126
    },
    {
      "midi": 76,
      "hit": false,
      "t": 88550,
      "d": 160,
      "v": 126
    },
    {
      "midi": 64,
      "hit": false,
      "t": 88555,
      "d": 115,
      "v": 126
    },
    {
      "midi": 69,
      "hit": false,
      "t": 88560,
      "d": 135,
      "v": 126
    },
    {
      "midi": 76,
      "hit": false,
      "t": 88890,
      "d": 160,
      "v": 126
    },
    {
      "midi": 71,
      "hit": false,
      "t": 88900,
      "d": 150,
      "v": 126
    },
    {
      "midi": 76,
      "hit": false,
      "t": 89240,
      "d": 175,
      "v": 126
    },
    {
      "midi": 71,
      "hit": false,
      "t": 89250,
      "d": 140,
      "v": 126
    },
    {
      "midi": 76,
      "hit": false,
      "t": 89600,
      "d": 160,
      "v": 126
    },
    {
      "midi": 71,
      "hit": false,
      "t": 89610,
      "d": 135,
      "v": 126
    },
    {
      "midi": 76,
      "hit": false,
      "t": 89960,
      "d": 175,
      "v": 126
    },
    {
      "midi": 52,
      "hit": false,
      "t": 89975,
      "d": 145,
      "v": 126
    },
    {
      "midi": 71,
      "hit": false,
      "t": 89975,
      "d": 155,
      "v": 126
    },
    {
      "midi": 59,
      "hit": false,
      "t": 89990,
      "d": 160,
      "v": 126
    },
    {
      "midi": 64,
      "hit": false,
      "t": 90000,
      "d": 95,
      "v": 126
    },
    {
      "midi": 55,
      "hit": false,
      "t": 90320,
      "d": 505,
      "v": 125
    },
    {
      "midi": 76,
      "hit": false,
      "t": 90340,
      "d": 160,
      "v": 125
    },
    {
      "midi": 71,
      "hit": false,
      "t": 90350,
      "d": 150,
      "v": 125
    },
    {
      "midi": 76,
      "hit": false,
      "t": 90670,
      "d": 170,
      "v": 125
    },
    {
      "midi": 71,
      "hit": false,
      "t": 90680,
      "d": 145,
      "v": 125
    },
    {
      "midi": 55,
      "hit": false,
      "t": 91010,
      "d": 530,
      "v": 125
    },
    {
      "midi": 76,
      "hit": false,
      "t": 91015,
      "d": 185,
      "v": 125
    },
    {
      "midi": 71,
      "hit": false,
      "t": 91040,
      "d": 155,
      "v": 125
    },
    {
      "midi": 52,
      "hit": false,
      "t": 91320,
      "d": 55,
      "v": 125
    },
    {
      "midi": 71,
      "hit": false,
      "t": 91375,
      "d": 155,
      "v": 125
    },
    {
      "midi": 76,
      "hit": false,
      "t": 91380,
      "d": 160,
      "v": 125
    },
    {
      "midi": 71,
      "hit": false,
      "t": 91700,
      "d": 150,
      "v": 125
    },
    {
      "midi": 55,
      "hit": false,
      "t": 91705,
      "d": 450,
      "v": 125
    },
    {
      "midi": 76,
      "hit": false,
      "t": 91705,
      "d": 165,
      "v": 125
    },
    {
      "midi": 76,
      "hit": false,
      "t": 92040,
      "d": 175,
      "v": 125
    },
    {
      "midi": 71,
      "hit": false,
      "t": 92050,
      "d": 150,
      "v": 125
    },
    {
      "midi": 71,
      "hit": false,
      "t": 92055,
      "d": 270,
      "v": 125
    },
    {
      "midi": 67,
      "hit": false,
      "t": 92055,
      "d": 400,
      "v": 125
    },
    {
      "midi": 64,
      "hit": false,
      "t": 92065,
      "d": 270,
      "v": 125
    },
    {
      "midi": 52,
      "hit": false,
      "t": 92065,
      "d": 895,
      "v": 125
    },
    {
      "midi": 59,
      "hit": false,
      "t": 92080,
      "d": 130,
      "v": 125
    },
    {
      "midi": 76,
      "hit": false,
      "t": 92390,
      "d": 170,
      "v": 125
    },
    {
      "midi": 55,
      "hit": false,
      "t": 92400,
      "d": 540,
      "v": 125
    },
    {
      "midi": 71,
      "hit": false,
      "t": 92400,
      "d": 150,
      "v": 125
    },
    {
      "midi": 76,
      "hit": false,
      "t": 92730,
      "d": 180,
      "v": 125
    },
    {
      "midi": 71,
      "hit": false,
      "t": 92740,
      "d": 155,
      "v": 125
    },
    {
      "midi": 59,
      "hit": false,
      "t": 92760,
      "d": 120,
      "v": 125
    },
    {
      "midi": 76,
      "hit": false,
      "t": 93070,
      "d": 200,
      "v": 125
    },
    {
      "midi": 69,
      "hit": false,
      "t": 93090,
      "d": 130,
      "v": 125
    },
    {
      "midi": 60,
      "hit": false,
      "t": 93120,
      "d": 1330,
      "v": 125
    },
    {
      "midi": 76,
      "hit": false,
      "t": 93415,
      "d": 175,
      "v": 125
    },
    {
      "midi": 69,
      "hit": false,
      "t": 93430,
      "d": 145,
      "v": 125
    },
    {
      "midi": 69,
      "hit": false,
      "t": 93765,
      "d": 140,
      "v": 124
    },
    {
      "midi": 76,
      "hit": false,
      "t": 93765,
      "d": 150,
      "v": 124
    },
    {
      "midi": 76,
      "hit": false,
      "t": 94115,
      "d": 185,
      "v": 124
    },
    {
      "midi": 69,
      "hit": false,
      "t": 94125,
      "d": 165,
      "v": 124
    },
    {
      "midi": 72,
      "hit": false,
      "t": 94245,
      "d": 75,
      "v": 124
    },
    {
      "midi": 69,
      "hit": false,
      "t": 94245,
      "d": 90,
      "v": 124
    },
    {
      "midi": 57,
      "hit": false,
      "t": 94245,
      "d": 130,
      "v": 124
    },
    {
      "midi": 64,
      "hit": false,
      "t": 94245,
      "d": 160,
      "v": 124
    },
    {
      "midi": 76,
      "hit": false,
      "t": 94490,
      "d": 195,
      "v": 124
    },
    {
      "midi": 69,
      "hit": false,
      "t": 94500,
      "d": 185,
      "v": 124
    },
    {
      "midi": 76,
      "hit": false,
      "t": 94865,
      "d": 155,
      "v": 124
    },
    {
      "midi": 69,
      "hit": false,
      "t": 94875,
      "d": 145,
      "v": 124
    },
    {
      "midi": 60,
      "hit": false,
      "t": 95265,
      "d": 460,
      "v": 124
    },
    {
      "midi": 76,
      "hit": false,
      "t": 95270,
      "d": 180,
      "v": 124
    },
    {
      "midi": 69,
      "hit": false,
      "t": 95280,
      "d": 155,
      "v": 124
    },
    {
      "midi": 76,
      "hit": false,
      "t": 95640,
      "d": 170,
      "v": 124
    },
    {
      "midi": 69,
      "hit": false,
      "t": 95660,
      "d": 145,
      "v": 124
    },
    {
      "midi": 60,
      "hit": false,
      "t": 95980,
      "d": 425,
      "v": 124
    },
    {
      "midi": 76,
      "hit": false,
      "t": 95990,
      "d": 150,
      "v": 124
    },
    {
      "midi": 69,
      "hit": false,
      "t": 96000,
      "d": 130,
      "v": 124
    },
    {
      "midi": 64,
      "hit": false,
      "t": 96315,
      "d": 90,
      "v": 124
    },
    {
      "midi": 57,
      "hit": false,
      "t": 96325,
      "d": 310,
      "v": 124
    },
    {
      "midi": 72,
      "hit": false,
      "t": 96335,
      "d": 350,
      "v": 124
    },
    {
      "midi": 76,
      "hit": false,
      "t": 96335,
      "d": 190,
      "v": 124
    },
    {
      "midi": 76,
      "hit": false,
      "t": 96345,
      "d": 250,
      "v": 124
    },
    {
      "midi": 69,
      "hit": false,
      "t": 96345,
      "d": 320,
      "v": 124
    },
    {
      "midi": 69,
      "hit": false,
      "t": 96345,
      "d": 165,
      "v": 124
    },
    {
      "midi": 60,
      "hit": false,
      "t": 96660,
      "d": 295,
      "v": 124
    },
    {
      "midi": 76,
      "hit": false,
      "t": 96680,
      "d": 165,
      "v": 124
    },
    {
      "midi": 69,
      "hit": false,
      "t": 96700,
      "d": 135,
      "v": 124
    },
    {
      "midi": 69,
      "hit": false,
      "t": 96825,
      "d": 80,
      "v": 124
    },
    {
      "midi": 76,
      "hit": false,
      "t": 96835,
      "d": 70,
      "v": 124
    },
    {
      "midi": 72,
      "hit": false,
      "t": 96845,
      "d": 60,
      "v": 124
    },
    {
      "midi": 64,
      "hit": false,
      "t": 96990,
      "d": 35,
      "v": 124
    },
    {
      "midi": 57,
      "hit": false,
      "t": 96990,
      "d": 60,
      "v": 124
    },
    {
      "midi": 60,
      "hit": false,
      "t": 97010,
      "d": 170,
      "v": 124
    },
    {
      "midi": 76,
      "hit": false,
      "t": 97020,
      "d": 160,
      "v": 124
    },
    {
      "midi": 69,
      "hit": false,
      "t": 97035,
      "d": 125,
      "v": 124
    },
    {
      "midi": 69,
      "hit": false,
      "t": 97370,
      "d": 140,
      "v": 123
    },
    {
      "midi": 77,
      "hit": false,
      "t": 97370,
      "d": 170,
      "v": 123
    },
    {
      "midi": 69,
      "hit": false,
      "t": 97720,
      "d": 155,
      "v": 123
    },
    {
      "midi": 65,
      "hit": false,
      "t": 97725,
      "d": 930,
      "v": 123
    },
    {
      "midi": 77,
      "hit": false,
      "t": 97725,
      "d": 165,
      "v": 123
    },
    {
      "midi": 69,
      "hit": false,
      "t": 98050,
      "d": 470,
      "v": 123
    },
    {
      "midi": 77,
      "hit": false,
      "t": 98065,
      "d": 160,
      "v": 123
    },
    {
      "midi": 69,
      "hit": false,
      "t": 98075,
      "d": 135,
      "v": 123
    },
    {
      "midi": 60,
      "hit": false,
      "t": 98395,
      "d": 185,
      "v": 123
    },
    {
      "midi": 53,
      "hit": false,
      "t": 98410,
      "d": 135,
      "v": 123
    },
    {
      "midi": 72,
      "hit": false,
      "t": 98415,
      "d": 500,
      "v": 123
    },
    {
      "midi": 77,
      "hit": false,
      "t": 98415,
      "d": 190,
      "v": 123
    },
    {
      "midi": 69,
      "hit": false,
      "t": 98435,
      "d": 155,
      "v": 123
    },
    {
      "midi": 69,
      "hit": false,
      "t": 98755,
      "d": 510,
      "v": 123
    },
    {
      "midi": 77,
      "hit": false,
      "t": 98770,
      "d": 195,
      "v": 123
    },
    {
      "midi": 69,
      "hit": false,
      "t": 98780,
      "d": 140,
      "v": 123
    },
    {
      "midi": 77,
      "hit": false,
      "t": 99100,
      "d": 195,
      "v": 123
    },
    {
      "midi": 69,
      "hit": false,
      "t": 99110,
      "d": 145,
      "v": 123
    },
    {
      "midi": 77,
      "hit": false,
      "t": 99440,
      "d": 215,
      "v": 123
    },
    {
      "midi": 69,
      "hit": false,
      "t": 99465,
      "d": 155,
      "v": 123
    },
    {
      "midi": 60,
      "hit": false,
      "t": 99475,
      "d": 160,
      "v": 123
    },
    {
      "midi": 53,
      "hit": false,
      "t": 99510,
      "d": 95,
      "v": 123
    },
    {
      "midi": 77,
      "hit": false,
      "t": 99800,
      "d": 190,
      "v": 123
    },
    {
      "midi": 69,
      "hit": false,
      "t": 99810,
      "d": 145,
      "v": 123
    },
    {
      "midi": 57,
      "hit": false,
      "t": 99820,
      "d": 295,
      "v": 123
    },
    {
      "midi": 77,
      "hit": false,
      "t": 100145,
      "d": 185,
      "v": 123
    },
    {
      "midi": 69,
      "hit": false,
      "t": 100160,
      "d": 140,
      "v": 123
    },
    {
      "midi": 53,
      "hit": false,
      "t": 100350,
      "d": 25,
      "v": 123
    },
    {
      "midi": 77,
      "hit": false,
      "t": 100510,
      "d": 190,
      "v": 123
    },
    {
      "midi": 69,
      "hit": false,
      "t": 100520,
      "d": 155,
      "v": 123
    },
    {
      "midi": 72,
      "hit": false,
      "t": 100555,
      "d": 455,
      "v": 123
    },
    {
      "midi": 60,
      "hit": false,
      "t": 100855,
      "d": 65,
      "v": 122
    },
    {
      "midi": 77,
      "hit": false,
      "t": 100865,
      "d": 195,
      "v": 122
    },
    {
      "midi": 69,
      "hit": false,
      "t": 100880,
      "d": 140,
      "v": 122
    },
    {
      "midi": 69,
      "hit": false,
      "t": 101005,
      "d": 265,
      "v": 122
    },
    {
      "midi": 65,
      "hit": false,
      "t": 101015,
      "d": 280,
      "v": 122
    },
    {
      "midi": 72,
      "hit": false,
      "t": 101015,
      "d": 860,
      "v": 122
    },
    {
      "midi": 77,
      "hit": false,
      "t": 101210,
      "d": 170,
      "v": 122
    },
    {
      "midi": 53,
      "hit": false,
      "t": 101215,
      "d": 45,
      "v": 122
    },
    {
      "midi": 57,
      "hit": false,
      "t": 101215,
      "d": 135,
      "v": 122
    },
    {
      "midi": 60,
      "hit": false,
      "t": 101215,
      "d": 160,
      "v": 122
    },
    {
      "midi": 69,
      "hit": false,
      "t": 101225,
      "d": 140,
      "v": 122
    },
    {
      "midi": 69,
      "hit": false,
      "t": 101555,
      "d": 165,
      "v": 122
    },
    {
      "midi": 76,
      "hit": false,
      "t": 101580,
      "d": 150,
      "v": 122
    },
    {
      "midi": 76,
      "hit": false,
      "t": 101905,
      "d": 165,
      "v": 122
    },
    {
      "midi": 69,
      "hit": false,
      "t": 101915,
      "d": 135,
      "v": 122
    },
    {
      "midi": 60,
      "hit": false,
      "t": 101950,
      "d": 845,
      "v": 122
    },
    {
      "midi": 69,
      "hit": false,
      "t": 102265,
      "d": 130,
      "v": 122
    },
    {
      "midi": 76,
      "hit": false,
      "t": 102270,
      "d": 135,
      "v": 122
    },
    {
      "midi": 76,
      "hit": false,
      "t": 102630,
      "d": 160,
      "v": 122
    },
    {
      "midi": 69,
      "hit": false,
      "t": 102640,
      "d": 135,
      "v": 122
    },
    {
      "midi": 69,
      "hit": false,
      "t": 102645,
      "d": 25,
      "v": 122
    },
    {
      "midi": 57,
      "hit": false,
      "t": 102655,
      "d": 120,
      "v": 122
    },
    {
      "midi": 64,
      "hit": false,
      "t": 102655,
      "d": 125,
      "v": 122
    },
    {
      "midi": 76,
      "hit": false,
      "t": 102655,
      "d": 455,
      "v": 122
    },
    {
      "midi": 72,
      "hit": false,
      "t": 102665,
      "d": 480,
      "v": 122
    },
    {
      "midi": 60,
      "hit": false,
      "t": 102980,
      "d": 530,
      "v": 122
    },
    {
      "midi": 69,
      "hit": false,
      "t": 102990,
      "d": 145,
      "v": 122
    },
    {
      "midi": 76,
      "hit": false,
      "t": 102990,
      "d": 145,
      "v": 122
    },
    {
      "midi": 64,
      "hit": false,
      "t": 103335,
      "d": 35,
      "v": 122
    },
    {
      "midi": 69,
      "hit": false,
      "t": 103345,
      "d": 150,
      "v": 122
    },
    {
      "midi": 76,
      "hit": false,
      "t": 103345,
      "d": 155,
      "v": 122
    },
    {
      "midi": 60,
      "hit": false,
      "t": 103670,
      "d": 550,
      "v": 122
    },
    {
      "midi": 69,
      "hit": false,
      "t": 103685,
      "d": 160,
      "v": 122
    },
    {
      "midi": 76,
      "hit": false,
      "t": 103685,
      "d": 175,
      "v": 122
    },
    {
      "midi": 76,
      "hit": false,
      "t": 104035,
      "d": 170,
      "v": 122
    },
    {
      "midi": 69,
      "hit": false,
      "t": 104045,
      "d": 145,
      "v": 122
    },
    {
      "midi": 60,
      "hit": false,
      "t": 104375,
      "d": 445,
      "v": 121
    },
    {
      "midi": 76,
      "hit": false,
      "t": 104380,
      "d": 170,
      "v": 121
    },
    {
      "midi": 69,
      "hit": false,
      "t": 104390,
      "d": 150,
      "v": 121
    },
    {
      "midi": 57,
      "hit": false,
      "t": 104710,
      "d": 60,
      "v": 121
    },
    {
      "midi": 76,
      "hit": false,
      "t": 104710,
      "d": 190,
      "v": 121
    },
    {
      "midi": 72,
      "hit": false,
      "t": 104710,
      "d": 250,
      "v": 121
    },
    {
      "midi": 69,
      "hit": false,
      "t": 104720,
      "d": 220,
      "v": 121
    },
    {
      "midi": 64,
      "hit": false,
      "t": 104730,
      "d": 175,
      "v": 121
    },
    {
      "midi": 69,
      "hit": false,
      "t": 104730,
      "d": 170,
      "v": 121
    },
    {
      "midi": 76,
      "hit": false,
      "t": 104730,
      "d": 175,
      "v": 121
    },
    {
      "midi": 69,
      "hit": false,
      "t": 105070,
      "d": 180,
      "v": 121
    },
    {
      "midi": 76,
      "hit": false,
      "t": 105075,
      "d": 180,
      "v": 121
    },
    {
      "midi": 60,
      "hit": false,
      "t": 105115,
      "d": 535,
      "v": 121
    },
    {
      "midi": 69,
      "hit": false,
      "t": 105420,
      "d": 145,
      "v": 121
    },
    {
      "midi": 76,
      "hit": false,
      "t": 105420,
      "d": 160,
      "v": 121
    },
    {
      "midi": 64,
      "hit": false,
      "t": 105455,
      "d": 65,
      "v": 121
    },
    {
      "midi": 71,
      "hit": false,
      "t": 105760,
      "d": 150,
      "v": 121
    },
    {
      "midi": 76,
      "hit": false,
      "t": 105765,
      "d": 185,
      "v": 121
    },
    {
      "midi": 55,
      "hit": false,
      "t": 105825,
      "d": 1290,
      "v": 121
    },
    {
      "midi": 76,
      "hit": false,
      "t": 106125,
      "d": 170,
      "v": 121
    },
    {
      "midi": 71,
      "hit": false,
      "t": 106150,
      "d": 130,
      "v": 121
    },
    {
      "midi": 76,
      "hit": false,
      "t": 106490,
      "d": 165,
      "v": 121
    },
    {
      "midi": 71,
      "hit": false,
      "t": 106510,
      "d": 130,
      "v": 121
    },
    {
      "midi": 76,
      "hit": false,
      "t": 106850,
      "d": 185,
      "v": 121
    },
    {
      "midi": 52,
      "hit": false,
      "t": 106870,
      "d": 105,
      "v": 121
    },
    {
      "midi": 71,
      "hit": false,
      "t": 106870,
      "d": 140,
      "v": 121
    },
    {
      "midi": 59,
      "hit": false,
      "t": 106880,
      "d": 115,
      "v": 121
    },
    {
      "midi": 64,
      "hit": false,
      "t": 106890,
      "d": 70,
      "v": 121
    },
    {
      "midi": 76,
      "hit": false,
      "t": 107220,
      "d": 160,
      "v": 121
    },
    {
      "midi": 55,
      "hit": false,
      "t": 107225,
      "d": 305,
      "v": 121
    },
    {
      "midi": 71,
      "hit": false,
      "t": 107230,
      "d": 130,
      "v": 121
    },
    {
      "midi": 59,
      "hit": false,
      "t": 107425,
      "d": 820,
      "v": 121
    },
    {
      "midi": 76,
      "hit": false,
      "t": 107565,
      "d": 160,
      "v": 121
    },
    {
      "midi": 71,
      "hit": false,
      "t": 107580,
      "d": 130,
      "v": 121
    },
    {
      "midi": 55,
      "hit": false,
      "t": 107590,
      "d": 320,
      "v": 121
    },
    {
      "midi": 52,
      "hit": false,
      "t": 107805,
      "d": 35,
      "v": 120
    },
    {
      "midi": 76,
      "hit": false,
      "t": 107910,
      "d": 180,
      "v": 120
    },
    {
      "midi": 71,
      "hit": false,
      "t": 107925,
      "d": 145,
      "v": 120
    },
    {
      "midi": 55,
      "hit": false,
      "t": 107970,
      "d": 1295,
      "v": 120
    },
    {
      "midi": 76,
      "hit": false,
      "t": 108275,
      "d": 160,
      "v": 120
    },
    {
      "midi": 71,
      "hit": false,
      "t": 108285,
      "d": 140,
      "v": 120
    },
    {
      "midi": 76,
      "hit": false,
      "t": 108630,
      "d": 175,
      "v": 120
    },
    {
      "midi": 71,
      "hit": false,
      "t": 108645,
      "d": 155,
      "v": 120
    },
    {
      "midi": 71,
      "hit": false,
      "t": 108980,
      "d": 170,
      "v": 120
    },
    {
      "midi": 76,
      "hit": false,
      "t": 108980,
      "d": 190,
      "v": 120
    },
    {
      "midi": 52,
      "hit": false,
      "t": 109030,
      "d": 145,
      "v": 120
    },
    {
      "midi": 59,
      "hit": false,
      "t": 109050,
      "d": 40,
      "v": 120
    },
    {
      "midi": 67,
      "hit": false,
      "t": 109050,
      "d": 445,
      "v": 120
    },
    {
      "midi": 71,
      "hit": false,
      "t": 109065,
      "d": 265,
      "v": 120
    },
    {
      "midi": 64,
      "hit": false,
      "t": 109065,
      "d": 295,
      "v": 120
    },
    {
      "midi": 76,
      "hit": false,
      "t": 109365,
      "d": 165,
      "v": 120
    },
    {
      "midi": 71,
      "hit": false,
      "t": 109375,
      "d": 145,
      "v": 120
    },
    {
      "midi": 55,
      "hit": false,
      "t": 109385,
      "d": 620,
      "v": 120
    },
    {
      "midi": 76,
      "hit": false,
      "t": 109720,
      "d": 150,
      "v": 120
    },
    {
      "midi": 71,
      "hit": false,
      "t": 109740,
      "d": 120,
      "v": 120
    },
    {
      "midi": 59,
      "hit": false,
      "t": 109750,
      "d": 45,
      "v": 120
    },
    {
      "midi": 69,
      "hit": false,
      "t": 110085,
      "d": 130,
      "v": 120
    },
    {
      "midi": 74,
      "hit": false,
      "t": 110095,
      "d": 120,
      "v": 120
    },
    {
      "midi": 53,
      "hit": false,
      "t": 110105,
      "d": 1360,
      "v": 120
    },
    {
      "midi": 74,
      "hit": false,
      "t": 110455,
      "d": 155,
      "v": 120
    },
    {
      "midi": 69,
      "hit": false,
      "t": 110475,
      "d": 120,
      "v": 120
    },
    {
      "midi": 74,
      "hit": false,
      "t": 110840,
      "d": 120,
      "v": 120
    },
    {
      "midi": 69,
      "hit": false,
      "t": 110850,
      "d": 95,
      "v": 120
    },
    {
      "midi": 50,
      "hit": false,
      "t": 111200,
      "d": 120,
      "v": 120
    },
    {
      "midi": 69,
      "hit": false,
      "t": 111215,
      "d": 135,
      "v": 120
    },
    {
      "midi": 62,
      "hit": false,
      "t": 111230,
      "d": 55,
      "v": 120
    },
    {
      "midi": 57,
      "hit": false,
      "t": 111230,
      "d": 165,
      "v": 120
    },
    {
      "midi": 74,
      "hit": false,
      "t": 111230,
      "d": 125,
      "v": 120
    },
    {
      "midi": 53,
      "hit": false,
      "t": 111565,
      "d": 650,
      "v": 119
    },
    {
      "midi": 69,
      "hit": false,
      "t": 111590,
      "d": 135,
      "v": 119
    },
    {
      "midi": 74,
      "hit": false,
      "t": 111600,
      "d": 130,
      "v": 119
    },
    {
      "midi": 62,
      "hit": false,
      "t": 111770,
      "d": 20,
      "v": 119
    },
    {
      "midi": 65,
      "hit": false,
      "t": 111770,
      "d": 135,
      "v": 119
    },
    {
      "midi": 69,
      "hit": false,
      "t": 111780,
      "d": 15,
      "v": 119
    },
    {
      "midi": 57,
      "hit": false,
      "t": 111940,
      "d": 35,
      "v": 119
    },
    {
      "midi": 74,
      "hit": false,
      "t": 111940,
      "d": 140,
      "v": 119
    },
    {
      "midi": 69,
      "hit": false,
      "t": 111950,
      "d": 120,
      "v": 119
    },
    {
      "midi": 53,
      "hit": false,
      "t": 112300,
      "d": 530,
      "v": 119
    },
    {
      "midi": 69,
      "hit": false,
      "t": 112305,
      "d": 135,
      "v": 119
    },
    {
      "midi": 74,
      "hit": false,
      "t": 112305,
      "d": 140,
      "v": 119
    },
    {
      "midi": 69,
      "hit": false,
      "t": 112675,
      "d": 120,
      "v": 119
    },
    {
      "midi": 74,
      "hit": false,
      "t": 112690,
      "d": 125,
      "v": 119
    },
    {
      "midi": 53,
      "hit": false,
      "t": 112965,
      "d": 680,
      "v": 119
    },
    {
      "midi": 69,
      "hit": false,
      "t": 113040,
      "d": 130,
      "v": 119
    },
    {
      "midi": 74,
      "hit": false,
      "t": 113045,
      "d": 135,
      "v": 119
    },
    {
      "midi": 65,
      "hit": false,
      "t": 113325,
      "d": 295,
      "v": 119
    },
    {
      "midi": 69,
      "hit": false,
      "t": 113340,
      "d": 190,
      "v": 119
    },
    {
      "midi": 62,
      "hit": false,
      "t": 113355,
      "d": 220,
      "v": 119
    },
    {
      "midi": 57,
      "hit": false,
      "t": 113385,
      "d": 955,
      "v": 119
    },
    {
      "midi": 69,
      "hit": false,
      "t": 113385,
      "d": 165,
      "v": 119
    },
    {
      "midi": 74,
      "hit": false,
      "t": 113395,
      "d": 170,
      "v": 119
    },
    {
      "midi": 53,
      "hit": false,
      "t": 113705,
      "d": 290,
      "v": 119
    },
    {
      "midi": 74,
      "hit": false,
      "t": 113730,
      "d": 155,
      "v": 119
    },
    {
      "midi": 69,
      "hit": false,
      "t": 113740,
      "d": 145,
      "v": 119
    },
    {
      "midi": 50,
      "hit": false,
      "t": 113880,
      "d": 150,
      "v": 119
    },
    {
      "midi": 53,
      "hit": false,
      "t": 114080,
      "d": 160,
      "v": 119
    },
    {
      "midi": 74,
      "hit": false,
      "t": 114085,
      "d": 95,
      "v": 119
    },
    {
      "midi": 69,
      "hit": false,
      "t": 114090,
      "d": 85,
      "v": 119
    },
    {
      "midi": 72,
      "hit": false,
      "t": 114405,
      "d": 3125,
      "v": 119
    },
    {
      "midi": 67,
      "hit": false,
      "t": 114420,
      "d": 3085,
      "v": 119
    },
    {
      "midi": 52,
      "hit": false,
      "t": 114440,
      "d": 1355,
      "v": 119
    },
    {
      "midi": 48,
      "hit": false,
      "t": 115560,
      "d": 130,
      "v": 118
    },
    {
      "midi": 60,
      "hit": false,
      "t": 115570,
      "d": 75,
      "v": 118
    },
    {
      "midi": 55,
      "hit": false,
      "t": 115570,
      "d": 145,
      "v": 118
    },
    {
      "midi": 52,
      "hit": false,
      "t": 115900,
      "d": 535,
      "v": 118
    },
    {
      "midi": 52,
      "hit": false,
      "t": 116585,
      "d": 535,
      "v": 118
    },
    {
      "midi": 52,
      "hit": false,
      "t": 117255,
      "d": 400,
      "v": 118
    },
    {
      "midi": 64,
      "hit": false,
      "t": 117595,
      "d": 440,
      "v": 118
    },
    {
      "midi": 60,
      "hit": false,
      "t": 117605,
      "d": 315,
      "v": 118
    },
    {
      "midi": 67,
      "hit": false,
      "t": 117615,
      "d": 285,
      "v": 118
    },
    {
      "midi": 48,
      "hit": false,
      "t": 117625,
      "d": 55,
      "v": 118
    },
    {
      "midi": 55,
      "hit": false,
      "t": 117630,
      "d": 155,
      "v": 118
    },
    {
      "midi": 52,
      "hit": false,
      "t": 117920,
      "d": 295,
      "v": 118
    },
    {
      "midi": 64,
      "hit": false,
      "t": 118090,
      "d": 35,
      "v": 118
    },
    {
      "midi": 60,
      "hit": false,
      "t": 118100,
      "d": 410,
      "v": 118
    },
    {
      "midi": 67,
      "hit": false,
      "t": 118105,
      "d": 715,
      "v": 118
    },
    {
      "midi": 48,
      "hit": false,
      "t": 118260,
      "d": 20,
      "v": 118
    },
    {
      "midi": 55,
      "hit": false,
      "t": 118280,
      "d": 140,
      "v": 118
    },
    {
      "midi": 52,
      "hit": false,
      "t": 118290,
      "d": 110,
      "v": 118
    },
    {
      "midi": 57,
      "hit": false,
      "t": 118640,
      "d": 1525,
      "v": 117
    },
    {
      "midi": 72,
      "hit": false,
      "t": 119835,
      "d": 560,
      "v": 117
    },
    {
      "midi": 53,
      "hit": false,
      "t": 119845,
      "d": 175,
      "v": 117
    },
    {
      "midi": 65,
      "hit": false,
      "t": 120375,
      "d": 90,
      "v": 117
    },
    {
      "midi": 69,
      "hit": false,
      "t": 120385,
      "d": 30,
      "v": 117
    },
    {
      "midi": 57,
      "hit": false,
      "t": 120520,
      "d": 45,
      "v": 117
    },
    {
      "midi": 60,
      "hit": false,
      "t": 120555,
      "d": 290,
      "v": 117
    },
    {
      "midi": 53,
      "hit": false,
      "t": 120595,
      "d": 950,
      "v": 117
    },
    {
      "midi": 57,
      "hit": false,
      "t": 121300,
      "d": 840,
      "v": 117
    },
    {
      "midi": 53,
      "hit": false,
      "t": 122000,
      "d": 25,
      "v": 116
    },
    {
      "midi": 60,
      "hit": false,
      "t": 122010,
      "d": 130,
      "v": 116
    },
    {
      "midi": 65,
      "hit": false,
      "t": 122010,
      "d": 160,
      "v": 116
    },
    {
      "midi": 72,
      "hit": false,
      "t": 122010,
      "d": 175,
      "v": 116
    },
    {
      "midi": 69,
      "hit": false,
      "t": 122010,
      "d": 235,
      "v": 116
    },
    {
      "midi": 69,
      "hit": false,
      "t": 122505,
      "d": 10,
      "v": 116
    },
    {
      "midi": 65,
      "hit": false,
      "t": 122510,
      "d": 670,
      "v": 116
    },
    {
      "midi": 72,
      "hit": false,
      "t": 122510,
      "d": 670,
      "v": 116
    },
    {
      "midi": 60,
      "hit": false,
      "t": 122620,
      "d": 110,
      "v": 116
    },
    {
      "midi": 57,
      "hit": false,
      "t": 122645,
      "d": 5,
      "v": 116
    },
    {
      "midi": 53,
      "hit": false,
      "t": 122645,
      "d": 75,
      "v": 116
    },
    {
      "midi": 60,
      "hit": false,
      "t": 123390,
      "d": 835,
      "v": 116
    },
    {
      "midi": 64,
      "hit": false,
      "t": 123735,
      "d": 500,
      "v": 116
    },
    {
      "midi": 55,
      "hit": false,
      "t": 124095,
      "d": 175,
      "v": 116
    },
    {
      "midi": 48,
      "hit": false,
      "t": 124115,
      "d": 120,
      "v": 116
    },
    {
      "midi": 67,
      "hit": false,
      "t": 124115,
      "d": 475,
      "v": 116
    },
    {
      "midi": 64,
      "hit": false,
      "t": 124470,
      "d": 395,
      "v": 116
    },
    {
      "midi": 55,
      "hit": false,
      "t": 125135,
      "d": 195,
      "v": 116
    },
    {
      "midi": 48,
      "hit": false,
      "t": 125140,
      "d": 155,
      "v": 116
    },
    {
      "midi": 52,
      "hit": false,
      "t": 125495,
      "d": 280,
      "v": 115
    },
    {
      "midi": 55,
      "hit": false,
      "t": 125675,
      "d": 880,
      "v": 115
    },
    {
      "midi": 52,
      "hit": false,
      "t": 125855,
      "d": 275,
      "v": 115
    },
    {
      "midi": 48,
      "hit": false,
      "t": 126035,
      "d": 10,
      "v": 115
    },
    {
      "midi": 55,
      "hit": false,
      "t": 126585,
      "d": 295,
      "v": 115
    },
    {
      "midi": 52,
      "hit": false,
      "t": 126920,
      "d": 75,
      "v": 115
    },
    {
      "midi": 60,
      "hit": false,
      "t": 126930,
      "d": 205,
      "v": 115
    },
    {
      "midi": 64,
      "hit": false,
      "t": 126930,
      "d": 285,
      "v": 115
    },
    {
      "midi": 55,
      "hit": false,
      "t": 126935,
      "d": 115,
      "v": 115
    },
    {
      "midi": 67,
      "hit": false,
      "t": 126950,
      "d": 195,
      "v": 115
    },
    {
      "midi": 57,
      "hit": false,
      "t": 127310,
      "d": 1295,
      "v": 115
    },
    {
      "midi": 65,
      "hit": false,
      "t": 127700,
      "d": 805,
      "v": 115
    },
    {
      "midi": 69,
      "hit": false,
      "t": 128040,
      "d": 510,
      "v": 115
    },
    {
      "midi": 60,
      "hit": false,
      "t": 128385,
      "d": 165,
      "v": 115
    },
    {
      "midi": 53,
      "hit": false,
      "t": 128400,
      "d": 80,
      "v": 115
    },
    {
      "midi": 72,
      "hit": false,
      "t": 128420,
      "d": 455,
      "v": 115
    },
    {
      "midi": 69,
      "hit": false,
      "t": 128785,
      "d": 450,
      "v": 115
    },
    {
      "midi": 65,
      "hit": false,
      "t": 129140,
      "d": 500,
      "v": 114
    },
    {
      "midi": 53,
      "hit": false,
      "t": 129475,
      "d": 90,
      "v": 114
    },
    {
      "midi": 60,
      "hit": false,
      "t": 129475,
      "d": 100,
      "v": 114
    },
    {
      "midi": 69,
      "hit": false,
      "t": 129495,
      "d": 425,
      "v": 114
    },
    {
      "midi": 72,
      "hit": false,
      "t": 129860,
      "d": 515,
      "v": 114
    },
    {
      "midi": 69,
      "hit": false,
      "t": 130210,
      "d": 800,
      "v": 114
    },
    {
      "midi": 65,
      "hit": false,
      "t": 130580,
      "d": 1235,
      "v": 114
    },
    {
      "midi": 60,
      "hit": false,
      "t": 130590,
      "d": 125,
      "v": 114
    },
    {
      "midi": 53,
      "hit": false,
      "t": 130600,
      "d": 155,
      "v": 114
    },
    {
      "midi": 57,
      "hit": false,
      "t": 130910,
      "d": 515,
      "v": 114
    },
    {
      "midi": 69,
      "hit": false,
      "t": 131265,
      "d": 470,
      "v": 114
    },
    {
      "midi": 60,
      "hit": false,
      "t": 132005,
      "d": 535,
      "v": 114
    },
    {
      "midi": 67,
      "hit": false,
      "t": 132365,
      "d": 450,
      "v": 114
    },
    {
      "midi": 55,
      "hit": false,
      "t": 132740,
      "d": 170,
      "v": 113
    },
    {
      "midi": 64,
      "hit": false,
      "t": 132740,
      "d": 455,
      "v": 113
    },
    {
      "midi": 48,
      "hit": false,
      "t": 132760,
      "d": 140,
      "v": 113
    },
    {
      "midi": 52,
      "hit": false,
      "t": 133815,
      "d": 535,
      "v": 113
    },
    {
      "midi": 55,
      "hit": false,
      "t": 134150,
      "d": 5,
      "v": 113
    },
    {
      "midi": 52,
      "hit": false,
      "t": 134500,
      "d": 440,
      "v": 113
    },
    {
      "midi": 64,
      "hit": false,
      "t": 134815,
      "d": 260,
      "v": 113
    },
    {
      "midi": 55,
      "hit": false,
      "t": 134855,
      "d": 25,
      "v": 113
    },
    {
      "midi": 48,
      "hit": false,
      "t": 134860,
      "d": 205,
      "v": 113
    },
    {
      "midi": 60,
      "hit": false,
      "t": 134865,
      "d": 205,
      "v": 113
    },
    {
      "midi": 67,
      "hit": false,
      "t": 134865,
      "d": 480,
      "v": 113
    },
    {
      "midi": 52,
      "hit": false,
      "t": 135215,
      "d": 270,
      "v": 113
    },
    {
      "midi": 64,
      "hit": false,
      "t": 135355,
      "d": 30,
      "v": 113
    },
    {
      "midi": 60,
      "hit": false,
      "t": 135370,
      "d": 295,
      "v": 113
    },
    {
      "midi": 67,
      "hit": false,
      "t": 135370,
      "d": 660,
      "v": 113
    },
    {
      "midi": 52,
      "hit": false,
      "t": 135545,
      "d": 100,
      "v": 113
    },
    {
      "midi": 59,
      "hit": false,
      "t": 135900,
      "d": 1270,
      "v": 113
    },
    {
      "midi": 55,
      "hit": false,
      "t": 136970,
      "d": 95,
      "v": 112
    },
    {
      "midi": 71,
      "hit": false,
      "t": 136980,
      "d": 60,
      "v": 112
    },
    {
      "midi": 74,
      "hit": false,
      "t": 136980,
      "d": 445,
      "v": 112
    },
    {
      "midi": 62,
      "hit": false,
      "t": 136990,
      "d": 120,
      "v": 112
    },
    {
      "midi": 67,
      "hit": false,
      "t": 137000,
      "d": 35,
      "v": 112
    },
    {
      "midi": 71,
      "hit": false,
      "t": 137485,
      "d": 15,
      "v": 112
    },
    {
      "midi": 59,
      "hit": false,
      "t": 137670,
      "d": 15,
      "v": 112
    },
    {
      "midi": 62,
      "hit": false,
      "t": 137670,
      "d": 40,
      "v": 112
    },
    {
      "midi": 55,
      "hit": false,
      "t": 137680,
      "d": 20,
      "v": 112
    },
    {
      "midi": 55,
      "hit": false,
      "t": 138030,
      "d": 20,
      "v": 112
    },
    {
      "midi": 62,
      "hit": false,
      "t": 138030,
      "d": 290,
      "v": 112
    },
    {
      "midi": 59,
      "hit": false,
      "t": 138030,
      "d": 550,
      "v": 112
    },
    {
      "midi": 59,
      "hit": false,
      "t": 138725,
      "d": 475,
      "v": 112
    },
    {
      "midi": 55,
      "hit": false,
      "t": 139080,
      "d": 25,
      "v": 112
    },
    {
      "midi": 62,
      "hit": false,
      "t": 139080,
      "d": 30,
      "v": 112
    },
    {
      "midi": 67,
      "hit": false,
      "t": 139090,
      "d": 230,
      "v": 112
    },
    {
      "midi": 74,
      "hit": false,
      "t": 139100,
      "d": 170,
      "v": 112
    },
    {
      "midi": 59,
      "hit": false,
      "t": 139430,
      "d": 290,
      "v": 112
    },
    {
      "midi": 71,
      "hit": false,
      "t": 139580,
      "d": 360,
      "v": 112
    },
    {
      "midi": 67,
      "hit": false,
      "t": 139580,
      "d": 740,
      "v": 112
    },
    {
      "midi": 74,
      "hit": false,
      "t": 139590,
      "d": 730,
      "v": 112
    },
    {
      "midi": 62,
      "hit": false,
      "t": 139735,
      "d": 70,
      "v": 111
    },
    {
      "midi": 55,
      "hit": false,
      "t": 139760,
      "d": 5,
      "v": 111
    },
    {
      "midi": 59,
      "hit": false,
      "t": 139765,
      "d": 160,
      "v": 111
    },
    {
      "midi": 57,
      "hit": false,
      "t": 140095,
      "d": 1220,
      "v": 111
    },
    {
      "midi": 53,
      "hit": false,
      "t": 141130,
      "d": 95,
      "v": 111
    },
    {
      "midi": 60,
      "hit": false,
      "t": 141130,
      "d": 170,
      "v": 111
    },
    {
      "midi": 65,
      "hit": false,
      "t": 141135,
      "d": 115,
      "v": 111
    },
    {
      "midi": 57,
      "hit": false,
      "t": 141470,
      "d": 565,
      "v": 111
    },
    {
      "midi": 57,
      "hit": false,
      "t": 142160,
      "d": 530,
      "v": 111
    },
    {
      "midi": 57,
      "hit": false,
      "t": 142840,
      "d": 390,
      "v": 111
    },
    {
      "midi": 53,
      "hit": false,
      "t": 143190,
      "d": 45,
      "v": 110
    },
    {
      "midi": 60,
      "hit": false,
      "t": 143200,
      "d": 170,
      "v": 110
    },
    {
      "midi": 69,
      "hit": false,
      "t": 143200,
      "d": 405,
      "v": 110
    },
    {
      "midi": 72,
      "hit": false,
      "t": 143205,
      "d": 280,
      "v": 110
    },
    {
      "midi": 65,
      "hit": false,
      "t": 143215,
      "d": 265,
      "v": 110
    },
    {
      "midi": 57,
      "hit": false,
      "t": 143525,
      "d": 320,
      "v": 110
    },
    {
      "midi": 69,
      "hit": false,
      "t": 143685,
      "d": 725,
      "v": 110
    },
    {
      "midi": 65,
      "hit": false,
      "t": 143690,
      "d": 700,
      "v": 110
    },
    {
      "midi": 72,
      "hit": false,
      "t": 143695,
      "d": 685,
      "v": 110
    },
    {
      "midi": 53,
      "hit": false,
      "t": 143820,
      "d": 110,
      "v": 110
    },
    {
      "midi": 57,
      "hit": false,
      "t": 143860,
      "d": 160,
      "v": 110
    },
    {
      "midi": 52,
      "hit": false,
      "t": 144220,
      "d": 1270,
      "v": 110
    },
    {
      "midi": 53,
      "hit": false,
      "t": 144230,
      "d": 85,
      "v": 110
    },
    {
      "midi": 48,
      "hit": false,
      "t": 145280,
      "d": 85,
      "v": 110
    },
    {
      "midi": 55,
      "hit": false,
      "t": 145290,
      "d": 140,
      "v": 110
    },
    {
      "midi": 60,
      "hit": false,
      "t": 145300,
      "d": 55,
      "v": 110
    },
    {
      "midi": 52,
      "hit": false,
      "t": 145640,
      "d": 270,
      "v": 110
    },
    {
      "midi": 55,
      "hit": false,
      "t": 145820,
      "d": 1200,
      "v": 110
    },
    {
      "midi": 52,
      "hit": false,
      "t": 145985,
      "d": 550,
      "v": 110
    },
    {
      "midi": 52,
      "hit": false,
      "t": 146705,
      "d": 835,
      "v": 109
    },
    {
      "midi": 55,
      "hit": false,
      "t": 147390,
      "d": 35,
      "v": 109
    },
    {
      "midi": 60,
      "hit": false,
      "t": 147400,
      "d": 310,
      "v": 109
    },
    {
      "midi": 64,
      "hit": false,
      "t": 147400,
      "d": 430,
      "v": 109
    },
    {
      "midi": 48,
      "hit": false,
      "t": 147410,
      "d": 110,
      "v": 109
    },
    {
      "midi": 67,
      "hit": false,
      "t": 147415,
      "d": 300,
      "v": 109
    },
    {
      "midi": 52,
      "hit": false,
      "t": 147725,
      "d": 295,
      "v": 109
    },
    {
      "midi": 60,
      "hit": false,
      "t": 147880,
      "d": 550,
      "v": 109
    },
    {
      "midi": 67,
      "hit": false,
      "t": 147890,
      "d": 740,
      "v": 109
    },
    {
      "midi": 64,
      "hit": false,
      "t": 147900,
      "d": 680,
      "v": 109
    },
    {
      "midi": 52,
      "hit": false,
      "t": 148040,
      "d": 145,
      "v": 109
    },
    {
      "midi": 48,
      "hit": false,
      "t": 148050,
      "d": 45,
      "v": 109
    },
    {
      "midi": 55,
      "hit": false,
      "t": 148060,
      "d": 130,
      "v": 109
    },
    {
      "midi": 57,
      "hit": false,
      "t": 148420,
      "d": 1270,
      "v": 109
    },
    {
      "midi": 65,
      "hit": false,
      "t": 149500,
      "d": 55,
      "v": 109
    },
    {
      "midi": 53,
      "hit": false,
      "t": 149500,
      "d": 80,
      "v": 109
    },
    {
      "midi": 72,
      "hit": false,
      "t": 149500,
      "d": 485,
      "v": 109
    },
    {
      "midi": 69,
      "hit": false,
      "t": 150020,
      "d": 95,
      "v": 109
    },
    {
      "midi": 57,
      "hit": false,
      "t": 150190,
      "d": 30,
      "v": 109
    },
    {
      "midi": 60,
      "hit": false,
      "t": 150200,
      "d": 275,
      "v": 109
    },
    {
      "midi": 53,
      "hit": false,
      "t": 150210,
      "d": 15,
      "v": 109
    },
    {
      "midi": 57,
      "hit": false,
      "t": 150550,
      "d": 550,
      "v": 108
    },
    {
      "midi": 60,
      "hit": false,
      "t": 150560,
      "d": 290,
      "v": 108
    },
    {
      "midi": 53,
      "hit": false,
      "t": 150560,
      "d": 905,
      "v": 108
    },
    {
      "midi": 57,
      "hit": false,
      "t": 151235,
      "d": 475,
      "v": 108
    },
    {
      "midi": 60,
      "hit": false,
      "t": 151585,
      "d": 55,
      "v": 108
    },
    {
      "midi": 72,
      "hit": false,
      "t": 151605,
      "d": 185,
      "v": 108
    },
    {
      "midi": 65,
      "hit": false,
      "t": 151605,
      "d": 245,
      "v": 108
    },
    {
      "midi": 69,
      "hit": false,
      "t": 151605,
      "d": 255,
      "v": 108
    },
    {
      "midi": 57,
      "hit": false,
      "t": 151935,
      "d": 290,
      "v": 108
    },
    {
      "midi": 69,
      "hit": false,
      "t": 152090,
      "d": 5,
      "v": 108
    },
    {
      "midi": 72,
      "hit": false,
      "t": 152095,
      "d": 710,
      "v": 108
    },
    {
      "midi": 65,
      "hit": false,
      "t": 152105,
      "d": 685,
      "v": 108
    },
    {
      "midi": 60,
      "hit": false,
      "t": 152235,
      "d": 95,
      "v": 108
    },
    {
      "midi": 53,
      "hit": false,
      "t": 152260,
      "d": 50,
      "v": 108
    },
    {
      "midi": 57,
      "hit": false,
      "t": 152270,
      "d": 130,
      "v": 108
    },
    {
      "midi": 64,
      "hit": false,
      "t": 153330,
      "d": 505,
      "v": 108
    },
    {
      "midi": 60,
      "hit": false,
      "t": 153680,
      "d": 85,
      "v": 108
    },
    {
      "midi": 55,
      "hit": false,
      "t": 153680,
      "d": 150,
      "v": 108
    },
    {
      "midi": 67,
      "hit": false,
      "t": 153680,
      "d": 485,
      "v": 108
    },
    {
      "midi": 48,
      "hit": false,
      "t": 153705,
      "d": 110,
      "v": 108
    },
    {
      "midi": 64,
      "hit": false,
      "t": 154025,
      "d": 430,
      "v": 107
    },
    {
      "midi": 60,
      "hit": false,
      "t": 154370,
      "d": 755,
      "v": 107
    },
    {
      "midi": 64,
      "hit": false,
      "t": 154700,
      "d": 515,
      "v": 107
    },
    {
      "midi": 55,
      "hit": false,
      "t": 154715,
      "d": 140,
      "v": 107
    },
    {
      "midi": 48,
      "hit": false,
      "t": 154725,
      "d": 120,
      "v": 107
    },
    {
      "midi": 67,
      "hit": false,
      "t": 155090,
      "d": 445,
      "v": 107
    },
    {
      "midi": 67,
      "hit": false,
      "t": 155740,
      "d": 470,
      "v": 107
    },
    {
      "midi": 60,
      "hit": false,
      "t": 155750,
      "d": 445,
      "v": 107
    },
    {
      "midi": 48,
      "hit": false,
      "t": 155760,
      "d": 95,
      "v": 107
    },
    {
      "midi": 55,
      "hit": false,
      "t": 155760,
      "d": 125,
      "v": 107
    },
    {
      "midi": 52,
      "hit": false,
      "t": 156080,
      "d": 250,
      "v": 107
    },
    {
      "midi": 60,
      "hit": false,
      "t": 156235,
      "d": 380,
      "v": 107
    },
    {
      "midi": 64,
      "hit": false,
      "t": 156245,
      "d": 65,
      "v": 107
    },
    {
      "midi": 67,
      "hit": false,
      "t": 156255,
      "d": 655,
      "v": 107
    },
    {
      "midi": 48,
      "hit": false,
      "t": 156360,
      "d": 110,
      "v": 107
    },
    {
      "midi": 55,
      "hit": false,
      "t": 156380,
      "d": 50,
      "v": 107
    },
    {
      "midi": 52,
      "hit": false,
      "t": 156405,
      "d": 115,
      "v": 107
    },
    {
      "midi": 57,
      "hit": false,
      "t": 156740,
      "d": 1230,
      "v": 107
    },
    {
      "midi": 72,
      "hit": false,
      "t": 157785,
      "d": 460,
      "v": 106
    },
    {
      "midi": 65,
      "hit": false,
      "t": 157795,
      "d": 35,
      "v": 106
    },
    {
      "midi": 53,
      "hit": false,
      "t": 157795,
      "d": 120,
      "v": 106
    },
    {
      "midi": 60,
      "hit": false,
      "t": 157795,
      "d": 150,
      "v": 106
    },
    {
      "midi": 69,
      "hit": false,
      "t": 158295,
      "d": 70,
      "v": 106
    },
    {
      "midi": 60,
      "hit": false,
      "t": 158465,
      "d": 75,
      "v": 106
    },
    {
      "midi": 57,
      "hit": false,
      "t": 158470,
      "d": 10,
      "v": 106
    },
    {
      "midi": 53,
      "hit": false,
      "t": 158480,
      "d": 10,
      "v": 106
    },
    {
      "midi": 60,
      "hit": false,
      "t": 158830,
      "d": 290,
      "v": 106
    },
    {
      "midi": 57,
      "hit": false,
      "t": 158845,
      "d": 535,
      "v": 106
    },
    {
      "midi": 53,
      "hit": false,
      "t": 158845,
      "d": 905,
      "v": 106
    },
    {
      "midi": 57,
      "hit": false,
      "t": 159500,
      "d": 470,
      "v": 106
    },
    {
      "midi": 60,
      "hit": false,
      "t": 159850,
      "d": 70,
      "v": 106
    },
    {
      "midi": 69,
      "hit": false,
      "t": 159850,
      "d": 265,
      "v": 106
    },
    {
      "midi": 72,
      "hit": false,
      "t": 159860,
      "d": 165,
      "v": 106
    },
    {
      "midi": 65,
      "hit": false,
      "t": 159860,
      "d": 215,
      "v": 106
    },
    {
      "midi": 57,
      "hit": false,
      "t": 160200,
      "d": 240,
      "v": 106
    },
    {
      "midi": 65,
      "hit": false,
      "t": 160360,
      "d": 640,
      "v": 106
    },
    {
      "midi": 72,
      "hit": false,
      "t": 160370,
      "d": 635,
      "v": 106
    },
    {
      "midi": 69,
      "hit": false,
      "t": 160375,
      "d": 630,
      "v": 106
    },
    {
      "midi": 53,
      "hit": false,
      "t": 160470,
      "d": 75,
      "v": 106
    },
    {
      "midi": 57,
      "hit": false,
      "t": 160505,
      "d": 150,
      "v": 106
    },
    {
      "midi": 52,
      "hit": false,
      "t": 160835,
      "d": 1260,
      "v": 106
    },
    {
      "midi": 60,
      "hit": false,
      "t": 161225,
      "d": 485,
      "v": 105
    },
    {
      "midi": 67,
      "hit": false,
      "t": 161545,
      "d": 430,
      "v": 105
    },
    {
      "midi": 55,
      "hit": false,
      "t": 161900,
      "d": 150,
      "v": 105
    },
    {
      "midi": 64,
      "hit": false,
      "t": 161905,
      "d": 440,
      "v": 105
    },
    {
      "midi": 48,
      "hit": false,
      "t": 161925,
      "d": 125,
      "v": 105
    },
    {
      "midi": 60,
      "hit": false,
      "t": 162260,
      "d": 455,
      "v": 105
    },
    {
      "midi": 64,
      "hit": false,
      "t": 162585,
      "d": 400,
      "v": 105
    },
    {
      "midi": 48,
      "hit": false,
      "t": 162920,
      "d": 180,
      "v": 105
    },
    {
      "midi": 55,
      "hit": false,
      "t": 162930,
      "d": 145,
      "v": 105
    },
    {
      "midi": 67,
      "hit": false,
      "t": 162950,
      "d": 415,
      "v": 105
    },
    {
      "midi": 64,
      "hit": false,
      "t": 163895,
      "d": 70,
      "v": 105
    },
    {
      "midi": 60,
      "hit": false,
      "t": 163905,
      "d": 20,
      "v": 105
    },
    {
      "midi": 67,
      "hit": false,
      "t": 163905,
      "d": 505,
      "v": 105
    },
    {
      "midi": 55,
      "hit": false,
      "t": 163960,
      "d": 90,
      "v": 105
    },
    {
      "midi": 48,
      "hit": false,
      "t": 163975,
      "d": 45,
      "v": 105
    },
    {
      "midi": 52,
      "hit": false,
      "t": 164280,
      "d": 210,
      "v": 105
    },
    {
      "midi": 60,
      "hit": false,
      "t": 164410,
      "d": 10,
      "v": 104
    },
    {
      "midi": 64,
      "hit": false,
      "t": 164410,
      "d": 45,
      "v": 104
    },
    {
      "midi": 67,
      "hit": false,
      "t": 164420,
      "d": 620,
      "v": 104
    },
    {
      "midi": 55,
      "hit": false,
      "t": 164555,
      "d": 140,
      "v": 104
    },
    {
      "midi": 52,
      "hit": false,
      "t": 164580,
      "d": 90,
      "v": 104
    },
    {
      "midi": 59,
      "hit": false,
      "t": 164925,
      "d": 1195,
      "v": 104
    },
    {
      "midi": 67,
      "hit": false,
      "t": 165280,
      "d": 665,
      "v": 104
    },
    {
      "midi": 74,
      "hit": false,
      "t": 165950,
      "d": 480,
      "v": 104
    },
    {
      "midi": 67,
      "hit": false,
      "t": 165950,
      "d": 500,
      "v": 104
    },
    {
      "midi": 55,
      "hit": false,
      "t": 165960,
      "d": 85,
      "v": 104
    },
    {
      "midi": 62,
      "hit": false,
      "t": 165960,
      "d": 105,
      "v": 104
    },
    {
      "midi": 59,
      "hit": false,
      "t": 166320,
      "d": 280,
      "v": 104
    },
    {
      "midi": 71,
      "hit": false,
      "t": 166460,
      "d": 85,
      "v": 104
    },
    {
      "midi": 62,
      "hit": false,
      "t": 166640,
      "d": 30,
      "v": 104
    },
    {
      "midi": 59,
      "hit": false,
      "t": 166640,
      "d": 250,
      "v": 104
    },
    {
      "midi": 55,
      "hit": false,
      "t": 166645,
      "d": 10,
      "v": 104
    },
    {
      "midi": 62,
      "hit": false,
      "t": 167000,
      "d": 265,
      "v": 104
    },
    {
      "midi": 59,
      "hit": false,
      "t": 167005,
      "d": 515,
      "v": 104
    },
    {
      "midi": 59,
      "hit": false,
      "t": 167695,
      "d": 390,
      "v": 104
    },
    {
      "midi": 55,
      "hit": false,
      "t": 168030,
      "d": 30,
      "v": 103
    },
    {
      "midi": 71,
      "hit": false,
      "t": 168030,
      "d": 250,
      "v": 103
    },
    {
      "midi": 62,
      "hit": false,
      "t": 168050,
      "d": 10,
      "v": 103
    },
    {
      "midi": 67,
      "hit": false,
      "t": 168050,
      "d": 150,
      "v": 103
    },
    {
      "midi": 74,
      "hit": false,
      "t": 168050,
      "d": 155,
      "v": 103
    },
    {
      "midi": 59,
      "hit": false,
      "t": 168390,
      "d": 290,
      "v": 103
    },
    {
      "midi": 71,
      "hit": false,
      "t": 168535,
      "d": 45,
      "v": 103
    },
    {
      "midi": 67,
      "hit": false,
      "t": 168550,
      "d": 630,
      "v": 103
    },
    {
      "midi": 74,
      "hit": false,
      "t": 168550,
      "d": 635,
      "v": 103
    },
    {
      "midi": 62,
      "hit": false,
      "t": 168680,
      "d": 55,
      "v": 103
    },
    {
      "midi": 55,
      "hit": false,
      "t": 168685,
      "d": 55,
      "v": 103
    },
    {
      "midi": 59,
      "hit": false,
      "t": 168685,
      "d": 125,
      "v": 103
    },
    {
      "midi": 72,
      "hit": false,
      "t": 169430,
      "d": 275,
      "v": 103
    },
    {
      "midi": 69,
      "hit": false,
      "t": 169440,
      "d": 205,
      "v": 103
    },
    {
      "midi": 53,
      "hit": false,
      "t": 170130,
      "d": 85,
      "v": 103
    },
    {
      "midi": 60,
      "hit": false,
      "t": 170130,
      "d": 105,
      "v": 103
    },
    {
      "midi": 72,
      "hit": false,
      "t": 170195,
      "d": 875,
      "v": 103
    },
    {
      "midi": 65,
      "hit": false,
      "t": 171215,
      "d": 70,
      "v": 103
    },
    {
      "midi": 60,
      "hit": false,
      "t": 171215,
      "d": 140,
      "v": 103
    },
    {
      "midi": 53,
      "hit": false,
      "t": 171230,
      "d": 95,
      "v": 103
    },
    {
      "midi": 65,
      "hit": false,
      "t": 171775,
      "d": 20,
      "v": 102
    },
    {
      "midi": 72,
      "hit": false,
      "t": 171775,
      "d": 45,
      "v": 102
    },
    {
      "midi": 69,
      "hit": false,
      "t": 171790,
      "d": 110,
      "v": 102
    },
    {
      "midi": 53,
      "hit": false,
      "t": 171970,
      "d": 95,
      "v": 102
    },
    {
      "midi": 60,
      "hit": false,
      "t": 171970,
      "d": 115,
      "v": 102
    },
    {
      "midi": 57,
      "hit": false,
      "t": 171980,
      "d": 10,
      "v": 102
    },
    {
      "midi": 57,
      "hit": false,
      "t": 172430,
      "d": 1200,
      "v": 102
    },
    {
      "midi": 65,
      "hit": false,
      "t": 173440,
      "d": 35,
      "v": 102
    },
    {
      "midi": 60,
      "hit": false,
      "t": 173440,
      "d": 120,
      "v": 102
    },
    {
      "midi": 69,
      "hit": false,
      "t": 173440,
      "d": 1055,
      "v": 102
    },
    {
      "midi": 72,
      "hit": false,
      "t": 173440,
      "d": 1055,
      "v": 102
    },
    {
      "midi": 53,
      "hit": false,
      "t": 173445,
      "d": 80,
      "v": 102
    },
    {
      "midi": 67,
      "hit": false,
      "t": 174750,
      "d": 480,
      "v": 102
    },
    {
      "midi": 64,
      "hit": false,
      "t": 175110,
      "d": 790,
      "v": 101
    },
    {
      "midi": 48,
      "hit": false,
      "t": 175590,
      "d": 190,
      "v": 101
    },
    {
      "midi": 55,
      "hit": false,
      "t": 175610,
      "d": 190,
      "v": 101
    },
    {
      "midi": 60,
      "hit": false,
      "t": 175740,
      "d": 500,
      "v": 101
    },
    {
      "midi": 64,
      "hit": false,
      "t": 176085,
      "d": 530,
      "v": 101
    },
    {
      "midi": 84,
      "hit": false,
      "t": 176530,
      "d": 1300,
      "v": 101
    }
  ]
}