{
  "jsonPath": "Pop/New Wave Pop/Exposé/your-baby-never-looked-good-in-blue.json",
  "path": "Pop\\New Wave Pop\\Exposé\\Your Baby Never Looked Good In Blue.mid",
  "name": "Your Baby Never Looked Good In Blue",
  "difficulty": "Advanced",
  "bpm": 69.99998833333528,
  "notes": [
    {
      "midi": 72,
      "hit": false,
      "t": 0,
      "d": 874.9990666666667,
      "v": 79
    },
    {
      "midi": 79,
      "hit": false,
      "t": 0,
      "d": 874.9990666666667,
      "v": 79
    },
    {
      "midi": 84,
      "hit": false,
      "t": 0,
      "d": 874.9990666666667,
      "v": 38
    },
    {
      "midi": 72,
      "hit": false,
      "t": 882.3520000000001,
      "d": 874.9990666666667,
      "v": 65
    },
    {
      "midi": 79,
      "hit": false,
      "t": 882.3520000000001,
      "d": 874.9990666666667,
      "v": 65
    },
    {
      "midi": 84,
      "hit": false,
      "t": 882.3520000000001,
      "d": 874.9990666666667,
      "v": 38
    },
    {
      "midi": 72,
      "hit": false,
      "t": 1764.7040000000002,
      "d": 874.9990666666667,
      "v": 65
    },
    {
      "midi": 79,
      "hit": false,
      "t": 1764.7040000000002,
      "d": 874.9990666666667,
      "v": 65
    },
    {
      "midi": 84,
      "hit": false,
      "t": 1764.7040000000002,
      "d": 874.9990666666667,
      "v": 38
    },
    {
      "midi": 72,
      "hit": false,
      "t": 2647.056,
      "d": 874.9990666666667,
      "v": 59
    },
    {
      "midi": 79,
      "hit": false,
      "t": 2647.056,
      "d": 874.9990666666667,
      "v": 59
    },
    {
      "midi": 84,
      "hit": false,
      "t": 2647.056,
      "d": 874.9990666666667,
      "v": 38
    },
    {
      "midi": 72,
      "hit": false,
      "t": 3529.408,
      "d": 874.9990666666667,
      "v": 57
    },
    {
      "midi": 79,
      "hit": false,
      "t": 3529.408,
      "d": 874.9990666666667,
      "v": 57
    },
    {
      "midi": 84,
      "hit": false,
      "t": 3529.408,
      "d": 874.9990666666667,
      "v": 38
    },
    {
      "midi": 72,
      "hit": false,
      "t": 4411.76,
      "d": 874.9990666666672,
      "v": 56
    },
    {
      "midi": 79,
      "hit": false,
      "t": 4411.76,
      "d": 874.9990666666672,
      "v": 56
    },
    {
      "midi": 84,
      "hit": false,
      "t": 4411.76,
      "d": 874.9990666666672,
      "v": 38
    },
    {
      "midi": 72,
      "hit": false,
      "t": 5294.112000000001,
      "d": 874.9990666666672,
      "v": 56
    },
    {
      "midi": 79,
      "hit": false,
      "t": 5294.112000000001,
      "d": 874.9990666666672,
      "v": 56
    },
    {
      "midi": 84,
      "hit": false,
      "t": 5294.112000000001,
      "d": 874.9990666666672,
      "v": 38
    },
    {
      "midi": 72,
      "hit": false,
      "t": 6176.464000000002,
      "d": 874.9990666666672,
      "v": 56
    },
    {
      "midi": 79,
      "hit": false,
      "t": 6176.464000000002,
      "d": 874.9990666666672,
      "v": 56
    },
    {
      "midi": 84,
      "hit": false,
      "t": 6176.464000000002,
      "d": 874.9990666666672,
      "v": 38
    },
    {
      "midi": 72,
      "hit": false,
      "t": 7058.8160000000025,
      "d": 2419.115066666667,
      "v": 56
    },
    {
      "midi": 76,
      "hit": false,
      "t": 7058.8160000000025,
      "d": 2419.115066666667,
      "v": 56
    },
    {
      "midi": 79,
      "hit": false,
      "t": 7058.8160000000025,
      "d": 2419.115066666667,
      "v": 56
    },
    {
      "midi": 67,
      "hit": false,
      "t": 9705.872000000003,
      "d": 874.9990666666672,
      "v": 56
    },
    {
      "midi": 72,
      "hit": false,
      "t": 9705.872000000003,
      "d": 874.9990666666672,
      "v": 56
    },
    {
      "midi": 77,
      "hit": false,
      "t": 9705.872000000003,
      "d": 874.9990666666672,
      "v": 56
    },
    {
      "midi": 72,
      "hit": false,
      "t": 10588.224000000004,
      "d": 1977.9390666666677,
      "v": 56
    },
    {
      "midi": 76,
      "hit": false,
      "t": 10588.224000000004,
      "d": 1977.9390666666677,
      "v": 56
    },
    {
      "midi": 79,
      "hit": false,
      "t": 10588.224000000004,
      "d": 1977.9390666666677,
      "v": 56
    },
    {
      "midi": 67,
      "hit": false,
      "t": 13235.280000000004,
      "d": 874.9990666666672,
      "v": 56
    },
    {
      "midi": 74,
      "hit": false,
      "t": 13235.280000000004,
      "d": 874.9990666666672,
      "v": 56
    },
    {
      "midi": 64,
      "hit": false,
      "t": 14117.632000000005,
      "d": 1536.7630666666664,
      "v": 56
    },
    {
      "midi": 67,
      "hit": false,
      "t": 14117.632000000005,
      "d": 1536.7630666666664,
      "v": 56
    },
    {
      "midi": 72,
      "hit": false,
      "t": 14117.632000000005,
      "d": 1757.3510666666662,
      "v": 56
    },
    {
      "midi": 62,
      "hit": false,
      "t": 15882.336000000005,
      "d": 1536.7630666666682,
      "v": 56
    },
    {
      "midi": 67,
      "hit": false,
      "t": 15882.336000000005,
      "d": 1536.7630666666682,
      "v": 56
    },
    {
      "midi": 71,
      "hit": false,
      "t": 16764.688000000006,
      "d": 654.4110666666675,
      "v": 70
    },
    {
      "midi": 65,
      "hit": false,
      "t": 17647.040000000008,
      "d": 1536.7630666666664,
      "v": 56
    },
    {
      "midi": 69,
      "hit": false,
      "t": 17647.040000000008,
      "d": 1536.7630666666664,
      "v": 56
    },
    {
      "midi": 72,
      "hit": false,
      "t": 17647.040000000008,
      "d": 1536.7630666666664,
      "v": 56
    },
    {
      "midi": 62,
      "hit": false,
      "t": 19411.74400000001,
      "d": 874.9990666666672,
      "v": 56
    },
    {
      "midi": 67,
      "hit": false,
      "t": 19411.74400000001,
      "d": 874.9990666666672,
      "v": 56
    },
    {
      "midi": 71,
      "hit": false,
      "t": 19411.74400000001,
      "d": 874.9990666666672,
      "v": 56
    },
    {
      "midi": 74,
      "hit": false,
      "t": 19411.74400000001,
      "d": 874.9990666666672,
      "v": 70
    },
    {
      "midi": 67,
      "hit": false,
      "t": 20294.09600000001,
      "d": 433.8230666666677,
      "v": 59
    },
    {
      "midi": 62,
      "hit": false,
      "t": 20294.09600000001,
      "d": 874.9990666666672,
      "v": 59
    },
    {
      "midi": 74,
      "hit": false,
      "t": 20735.272000000008,
      "d": 433.8230666666677,
      "v": 66
    },
    {
      "midi": 72,
      "hit": false,
      "t": 21176.448000000008,
      "d": 2419.1150666666617,
      "v": 65
    },
    {
      "midi": 76,
      "hit": false,
      "t": 21176.448000000008,
      "d": 2419.1150666666617,
      "v": 65
    },
    {
      "midi": 79,
      "hit": false,
      "t": 21176.448000000008,
      "d": 2419.1150666666617,
      "v": 65
    },
    {
      "midi": 67,
      "hit": false,
      "t": 23823.504000000004,
      "d": 874.9990666666672,
      "v": 56
    },
    {
      "midi": 72,
      "hit": false,
      "t": 23823.504000000004,
      "d": 874.9990666666672,
      "v": 56
    },
    {
      "midi": 77,
      "hit": false,
      "t": 23823.504000000004,
      "d": 874.9990666666672,
      "v": 56
    },
    {
      "midi": 72,
      "hit": false,
      "t": 24705.856000000003,
      "d": 1977.939066666666,
      "v": 56
    },
    {
      "midi": 76,
      "hit": false,
      "t": 24705.856000000003,
      "d": 1977.939066666666,
      "v": 56
    },
    {
      "midi": 79,
      "hit": false,
      "t": 24705.856000000003,
      "d": 1977.939066666666,
      "v": 56
    },
    {
      "midi": 67,
      "hit": false,
      "t": 27352.912000000004,
      "d": 874.9990666666672,
      "v": 56
    },
    {
      "midi": 74,
      "hit": false,
      "t": 27352.912000000004,
      "d": 874.9990666666672,
      "v": 56
    },
    {
      "midi": 64,
      "hit": false,
      "t": 28235.264000000003,
      "d": 1536.7630666666664,
      "v": 56
    },
    {
      "midi": 67,
      "hit": false,
      "t": 28235.264000000003,
      "d": 1536.7630666666664,
      "v": 56
    },
    {
      "midi": 72,
      "hit": false,
      "t": 28235.264000000003,
      "d": 1757.3510666666662,
      "v": 56
    },
    {
      "midi": 62,
      "hit": false,
      "t": 29999.968,
      "d": 1536.7630666666664,
      "v": 56
    },
    {
      "midi": 67,
      "hit": false,
      "t": 29999.968,
      "d": 1536.7630666666664,
      "v": 56
    },
    {
      "midi": 71,
      "hit": false,
      "t": 30882.32,
      "d": 654.4110666666675,
      "v": 70
    },
    {
      "midi": 65,
      "hit": false,
      "t": 31764.672000000002,
      "d": 1536.76306666667,
      "v": 56
    },
    {
      "midi": 69,
      "hit": false,
      "t": 31764.672000000002,
      "d": 1536.76306666667,
      "v": 56
    },
    {
      "midi": 72,
      "hit": false,
      "t": 31764.672000000002,
      "d": 1536.76306666667,
      "v": 56
    },
    {
      "midi": 62,
      "hit": false,
      "t": 33529.376000000004,
      "d": 1757.3510666666698,
      "v": 56
    },
    {
      "midi": 67,
      "hit": false,
      "t": 33529.376000000004,
      "d": 1757.3510666666698,
      "v": 56
    },
    {
      "midi": 71,
      "hit": false,
      "t": 33529.376000000004,
      "d": 1757.3510666666698,
      "v": 56
    },
    {
      "midi": 72,
      "hit": false,
      "t": 35294.08000000001,
      "d": 1316.1750666666703,
      "v": 56
    },
    {
      "midi": 76,
      "hit": false,
      "t": 35294.08000000001,
      "d": 1316.1750666666703,
      "v": 56
    },
    {
      "midi": 67,
      "hit": false,
      "t": 35294.08000000001,
      "d": 1757.3510666666698,
      "v": 56
    },
    {
      "midi": 74,
      "hit": false,
      "t": 36617.608000000015,
      "d": 433.8230666666641,
      "v": 56
    },
    {
      "midi": 72,
      "hit": false,
      "t": 37058.784000000014,
      "d": 1316.175066666663,
      "v": 56
    },
    {
      "midi": 64,
      "hit": false,
      "t": 37058.784000000014,
      "d": 1757.3510666666625,
      "v": 56
    },
    {
      "midi": 67,
      "hit": false,
      "t": 37058.784000000014,
      "d": 1757.3510666666625,
      "v": 56
    },
    {
      "midi": 71,
      "hit": false,
      "t": 38382.31200000001,
      "d": 433.8230666666641,
      "v": 56
    },
    {
      "midi": 65,
      "hit": false,
      "t": 38823.48800000001,
      "d": 1316.175066666663,
      "v": 56
    },
    {
      "midi": 69,
      "hit": false,
      "t": 38823.48800000001,
      "d": 1316.175066666663,
      "v": 56
    },
    {
      "midi": 72,
      "hit": false,
      "t": 38823.48800000001,
      "d": 1316.175066666663,
      "v": 56
    },
    {
      "midi": 67,
      "hit": false,
      "t": 40147.01600000001,
      "d": 433.8230666666641,
      "v": 56
    },
    {
      "midi": 71,
      "hit": false,
      "t": 40588.19200000001,
      "d": 654.4110666666675,
      "v": 56
    },
    {
      "midi": 72,
      "hit": false,
      "t": 41249.95600000001,
      "d": 654.4110666666675,
      "v": 56
    },
    {
      "midi": 74,
      "hit": false,
      "t": 41911.720000000016,
      "d": 433.8230666666641,
      "v": 56
    },
    {
      "midi": 72,
      "hit": false,
      "t": 42352.896000000015,
      "d": 1316.1750666666703,
      "v": 56
    },
    {
      "midi": 76,
      "hit": false,
      "t": 42352.896000000015,
      "d": 1316.1750666666703,
      "v": 56
    },
    {
      "midi": 67,
      "hit": false,
      "t": 42352.896000000015,
      "d": 1757.3510666666698,
      "v": 56
    },
    {
      "midi": 74,
      "hit": false,
      "t": 43676.42400000002,
      "d": 433.8230666666641,
      "v": 56
    },
    {
      "midi": 72,
      "hit": false,
      "t": 44117.60000000002,
      "d": 1316.175066666663,
      "v": 56
    },
    {
      "midi": 64,
      "hit": false,
      "t": 44117.60000000002,
      "d": 1757.3510666666625,
      "v": 56
    },
    {
      "midi": 67,
      "hit": false,
      "t": 44117.60000000002,
      "d": 1757.3510666666625,
      "v": 56
    },
    {
      "midi": 71,
      "hit": false,
      "t": 45441.12800000002,
      "d": 433.8230666666641,
      "v": 56
    },
    {
      "midi": 65,
      "hit": false,
      "t": 45882.30400000002,
      "d": 1316.175066666663,
      "v": 56
    },
    {
      "midi": 69,
      "hit": false,
      "t": 45882.30400000002,
      "d": 1316.175066666663,
      "v": 56
    },
    {
      "midi": 72,
      "hit": false,
      "t": 45882.30400000002,
      "d": 1316.175066666663,
      "v": 56
    },
    {
      "midi": 72,
      "hit": false,
      "t": 47205.83200000002,
      "d": 433.8230666666641,
      "v": 56
    },
    {
      "midi": 71,
      "hit": false,
      "t": 47647.008000000016,
      "d": 654.4110666666675,
      "v": 56
    },
    {
      "midi": 72,
      "hit": false,
      "t": 48308.77200000002,
      "d": 654.4110666666675,
      "v": 56
    },
    {
      "midi": 74,
      "hit": false,
      "t": 48970.53600000002,
      "d": 433.8230666666641,
      "v": 56
    },
    {
      "midi": 72,
      "hit": false,
      "t": 49411.71200000002,
      "d": 874.9990666666636,
      "v": 53
    },
    {
      "midi": 79,
      "hit": false,
      "t": 49411.71200000002,
      "d": 874.9990666666636,
      "v": 53
    },
    {
      "midi": 84,
      "hit": false,
      "t": 49411.71200000002,
      "d": 874.9990666666636,
      "v": 53
    },
    {
      "midi": 72,
      "hit": false,
      "t": 50294.06400000002,
      "d": 874.9990666666636,
      "v": 65
    },
    {
      "midi": 79,
      "hit": false,
      "t": 50294.06400000002,
      "d": 874.9990666666636,
      "v": 65
    },
    {
      "midi": 84,
      "hit": false,
      "t": 50294.06400000002,
      "d": 874.9990666666636,
      "v": 38
    },
    {
      "midi": 72,
      "hit": false,
      "t": 51176.41600000002,
      "d": 874.9990666666636,
      "v": 65
    },
    {
      "midi": 79,
      "hit": false,
      "t": 51176.41600000002,
      "d": 874.9990666666636,
      "v": 65
    },
    {
      "midi": 84,
      "hit": false,
      "t": 51176.41600000002,
      "d": 874.9990666666636,
      "v": 38
    },
    {
      "midi": 72,
      "hit": false,
      "t": 52058.76800000002,
      "d": 874.9990666666636,
      "v": 59
    },
    {
      "midi": 79,
      "hit": false,
      "t": 52058.76800000002,
      "d": 874.9990666666636,
      "v": 59
    },
    {
      "midi": 84,
      "hit": false,
      "t": 52058.76800000002,
      "d": 874.9990666666636,
      "v": 38
    },
    {
      "midi": 72,
      "hit": false,
      "t": 52941.12000000002,
      "d": 874.9990666666636,
      "v": 57
    },
    {
      "midi": 79,
      "hit": false,
      "t": 52941.12000000002,
      "d": 874.9990666666636,
      "v": 57
    },
    {
      "midi": 84,
      "hit": false,
      "t": 52941.12000000002,
      "d": 874.9990666666636,
      "v": 38
    },
    {
      "midi": 72,
      "hit": false,
      "t": 53823.472000000016,
      "d": 874.9990666666636,
      "v": 56
    },
    {
      "midi": 79,
      "hit": false,
      "t": 53823.472000000016,
      "d": 874.9990666666636,
      "v": 56
    },
    {
      "midi": 84,
      "hit": false,
      "t": 53823.472000000016,
      "d": 874.9990666666636,
      "v": 38
    },
    {
      "midi": 72,
      "hit": false,
      "t": 54705.824000000015,
      "d": 874.9990666666636,
      "v": 56
    },
    {
      "midi": 79,
      "hit": false,
      "t": 54705.824000000015,
      "d": 874.9990666666636,
      "v": 56
    },
    {
      "midi": 84,
      "hit": false,
      "t": 54705.824000000015,
      "d": 874.9990666666636,
      "v": 38
    },
    {
      "midi": 72,
      "hit": false,
      "t": 55588.176000000014,
      "d": 874.9990666666636,
      "v": 56
    },
    {
      "midi": 79,
      "hit": false,
      "t": 55588.176000000014,
      "d": 874.9990666666636,
      "v": 56
    },
    {
      "midi": 84,
      "hit": false,
      "t": 55588.176000000014,
      "d": 874.9990666666636,
      "v": 38
    },
    {
      "midi": 72,
      "hit": false,
      "t": 56470.52800000001,
      "d": 2419.1150666666654,
      "v": 56
    },
    {
      "midi": 76,
      "hit": false,
      "t": 56470.52800000001,
      "d": 2419.1150666666654,
      "v": 56
    },
    {
      "midi": 79,
      "hit": false,
      "t": 56470.52800000001,
      "d": 2419.1150666666654,
      "v": 56
    },
    {
      "midi": 67,
      "hit": false,
      "t": 59117.58400000001,
      "d": 874.9990666666636,
      "v": 56
    },
    {
      "midi": 72,
      "hit": false,
      "t": 59117.58400000001,
      "d": 874.9990666666636,
      "v": 56
    },
    {
      "midi": 77,
      "hit": false,
      "t": 59117.58400000001,
      "d": 874.9990666666636,
      "v": 56
    },
    {
      "midi": 72,
      "hit": false,
      "t": 59999.93600000001,
      "d": 1977.939066666666,
      "v": 56
    },
    {
      "midi": 76,
      "hit": false,
      "t": 59999.93600000001,
      "d": 1977.939066666666,
      "v": 56
    },
    {
      "midi": 79,
      "hit": false,
      "t": 59999.93600000001,
      "d": 1977.939066666666,
      "v": 56
    },
    {
      "midi": 67,
      "hit": false,
      "t": 62646.992000000006,
      "d": 874.9990666666636,
      "v": 56
    },
    {
      "midi": 74,
      "hit": false,
      "t": 62646.992000000006,
      "d": 874.9990666666636,
      "v": 56
    },
    {
      "midi": 64,
      "hit": false,
      "t": 63529.344000000005,
      "d": 1536.7630666666664,
      "v": 56
    },
    {
      "midi": 67,
      "hit": false,
      "t": 63529.344000000005,
      "d": 1536.7630666666664,
      "v": 56
    },
    {
      "midi": 72,
      "hit": false,
      "t": 63529.344000000005,
      "d": 1757.3510666666698,
      "v": 56
    },
    {
      "midi": 62,
      "hit": false,
      "t": 65294.04800000001,
      "d": 1536.7630666666664,
      "v": 56
    },
    {
      "midi": 67,
      "hit": false,
      "t": 65294.04800000001,
      "d": 1536.7630666666664,
      "v": 56
    },
    {
      "midi": 71,
      "hit": false,
      "t": 66176.40000000001,
      "d": 654.4110666666675,
      "v": 70
    },
    {
      "midi": 65,
      "hit": false,
      "t": 67058.75200000001,
      "d": 1536.7630666666664,
      "v": 56
    },
    {
      "midi": 69,
      "hit": false,
      "t": 67058.75200000001,
      "d": 1536.7630666666664,
      "v": 56
    },
    {
      "midi": 72,
      "hit": false,
      "t": 67058.75200000001,
      "d": 1536.7630666666664,
      "v": 56
    },
    {
      "midi": 62,
      "hit": false,
      "t": 68823.456,
      "d": 874.9990666666708,
      "v": 56
    },
    {
      "midi": 67,
      "hit": false,
      "t": 68823.456,
      "d": 874.9990666666708,
      "v": 56
    },
    {
      "midi": 71,
      "hit": false,
      "t": 68823.456,
      "d": 874.9990666666708,
      "v": 56
    },
    {
      "midi": 74,
      "hit": false,
      "t": 68823.456,
      "d": 874.9990666666708,
      "v": 70
    },
    {
      "midi": 67,
      "hit": false,
      "t": 69705.808,
      "d": 433.8230666666641,
      "v": 59
    },
    {
      "midi": 62,
      "hit": false,
      "t": 69705.808,
      "d": 874.9990666666563,
      "v": 59
    },
    {
      "midi": 74,
      "hit": false,
      "t": 70146.984,
      "d": 433.8230666666641,
      "v": 66
    },
    {
      "midi": 72,
      "hit": false,
      "t": 70588.15999999999,
      "d": 2419.11506666668,
      "v": 65
    },
    {
      "midi": 76,
      "hit": false,
      "t": 70588.15999999999,
      "d": 2419.11506666668,
      "v": 65
    },
    {
      "midi": 79,
      "hit": false,
      "t": 70588.15999999999,
      "d": 2419.11506666668,
      "v": 65
    },
    {
      "midi": 67,
      "hit": false,
      "t": 73235.216,
      "d": 874.9990666666708,
      "v": 56
    },
    {
      "midi": 72,
      "hit": false,
      "t": 73235.216,
      "d": 874.9990666666708,
      "v": 56
    },
    {
      "midi": 77,
      "hit": false,
      "t": 73235.216,
      "d": 874.9990666666708,
      "v": 56
    },
    {
      "midi": 72,
      "hit": false,
      "t": 74117.568,
      "d": 1977.9390666666732,
      "v": 56
    },
    {
      "midi": 76,
      "hit": false,
      "t": 74117.568,
      "d": 1977.9390666666732,
      "v": 56
    },
    {
      "midi": 79,
      "hit": false,
      "t": 74117.568,
      "d": 1977.9390666666732,
      "v": 56
    },
    {
      "midi": 67,
      "hit": false,
      "t": 76764.62400000001,
      "d": 874.9990666666708,
      "v": 56
    },
    {
      "midi": 74,
      "hit": false,
      "t": 76764.62400000001,
      "d": 874.9990666666708,
      "v": 56
    },
    {
      "midi": 64,
      "hit": false,
      "t": 77646.97600000001,
      "d": 1536.7630666666664,
      "v": 56
    },
    {
      "midi": 67,
      "hit": false,
      "t": 77646.97600000001,
      "d": 1536.7630666666664,
      "v": 56
    },
    {
      "midi": 72,
      "hit": false,
      "t": 77646.97600000001,
      "d": 1757.3510666666698,
      "v": 56
    },
    {
      "midi": 62,
      "hit": false,
      "t": 79411.68000000001,
      "d": 1536.7630666666664,
      "v": 56
    },
    {
      "midi": 67,
      "hit": false,
      "t": 79411.68000000001,
      "d": 1536.7630666666664,
      "v": 56
    },
    {
      "midi": 71,
      "hit": false,
      "t": 80294.032,
      "d": 654.4110666666675,
      "v": 70
    },
    {
      "midi": 65,
      "hit": false,
      "t": 81176.384,
      "d": 1536.7630666666664,
      "v": 56
    },
    {
      "midi": 69,
      "hit": false,
      "t": 81176.384,
      "d": 1536.7630666666664,
      "v": 56
    },
    {
      "midi": 72,
      "hit": false,
      "t": 81176.384,
      "d": 1536.7630666666664,
      "v": 56
    },
    {
      "midi": 62,
      "hit": false,
      "t": 82941.088,
      "d": 1757.3510666666698,
      "v": 56
    },
    {
      "midi": 67,
      "hit": false,
      "t": 82941.088,
      "d": 1757.3510666666698,
      "v": 56
    },
    {
      "midi": 71,
      "hit": false,
      "t": 82941.088,
      "d": 1757.3510666666698,
      "v": 56
    },
    {
      "midi": 72,
      "hit": false,
      "t": 84705.792,
      "d": 1316.175066666663,
      "v": 56
    },
    {
      "midi": 76,
      "hit": false,
      "t": 84705.792,
      "d": 1316.175066666663,
      "v": 56
    },
    {
      "midi": 67,
      "hit": false,
      "t": 84705.792,
      "d": 1757.3510666666552,
      "v": 56
    },
    {
      "midi": 74,
      "hit": false,
      "t": 86029.31999999999,
      "d": 433.8230666666641,
      "v": 56
    },
    {
      "midi": 72,
      "hit": false,
      "t": 86470.49599999998,
      "d": 1316.175066666663,
      "v": 56
    },
    {
      "midi": 64,
      "hit": false,
      "t": 86470.49599999998,
      "d": 1757.3510666666552,
      "v": 56
    },
    {
      "midi": 67,
      "hit": false,
      "t": 86470.49599999998,
      "d": 1757.3510666666552,
      "v": 56
    },
    {
      "midi": 71,
      "hit": false,
      "t": 87794.02399999998,
      "d": 433.8230666666641,
      "v": 56
    },
    {
      "midi": 65,
      "hit": false,
      "t": 88235.19999999997,
      "d": 1316.175066666663,
      "v": 56
    },
    {
      "midi": 69,
      "hit": false,
      "t": 88235.19999999997,
      "d": 1316.175066666663,
      "v": 56
    },
    {
      "midi": 72,
      "hit": false,
      "t": 88235.19999999997,
      "d": 1316.175066666663,
      "v": 56
    },
    {
      "midi": 67,
      "hit": false,
      "t": 89558.72799999996,
      "d": 433.8230666666641,
      "v": 56
    },
    {
      "midi": 71,
      "hit": false,
      "t": 89999.90399999995,
      "d": 654.4110666666675,
      "v": 56
    },
    {
      "midi": 72,
      "hit": false,
      "t": 90661.66799999995,
      "d": 654.4110666666675,
      "v": 56
    },
    {
      "midi": 74,
      "hit": false,
      "t": 91323.43199999994,
      "d": 433.8230666666641,
      "v": 56
    },
    {
      "midi": 72,
      "hit": false,
      "t": 91764.60799999993,
      "d": 1316.175066666663,
      "v": 56
    },
    {
      "midi": 76,
      "hit": false,
      "t": 91764.60799999993,
      "d": 1316.175066666663,
      "v": 56
    },
    {
      "midi": 67,
      "hit": false,
      "t": 91764.60799999993,
      "d": 1757.3510666666552,
      "v": 56
    },
    {
      "midi": 74,
      "hit": false,
      "t": 93088.13599999993,
      "d": 433.8230666666641,
      "v": 56
    },
    {
      "midi": 72,
      "hit": false,
      "t": 93529.31199999992,
      "d": 1316.175066666663,
      "v": 56
    },
    {
      "midi": 64,
      "hit": false,
      "t": 93529.31199999992,
      "d": 1757.3510666666552,
      "v": 56
    },
    {
      "midi": 67,
      "hit": false,
      "t": 93529.31199999992,
      "d": 1757.3510666666552,
      "v": 56
    },
    {
      "midi": 71,
      "hit": false,
      "t": 94852.83999999991,
      "d": 433.8230666666641,
      "v": 56
    },
    {
      "midi": 65,
      "hit": false,
      "t": 95294.0159999999,
      "d": 1316.175066666663,
      "v": 56
    },
    {
      "midi": 69,
      "hit": false,
      "t": 95294.0159999999,
      "d": 1316.175066666663,
      "v": 56
    },
    {
      "midi": 72,
      "hit": false,
      "t": 95294.0159999999,
      "d": 1316.175066666663,
      "v": 56
    },
    {
      "midi": 72,
      "hit": false,
      "t": 96617.54399999989,
      "d": 433.8230666666641,
      "v": 56
    },
    {
      "midi": 71,
      "hit": false,
      "t": 97058.71999999988,
      "d": 654.4110666666675,
      "v": 56
    },
    {
      "midi": 72,
      "hit": false,
      "t": 97720.48399999988,
      "d": 654.4110666666675,
      "v": 56
    },
    {
      "midi": 74,
      "hit": false,
      "t": 98382.24799999988,
      "d": 433.8230666666641,
      "v": 56
    },
    {
      "midi": 60,
      "hit": false,
      "t": 98823.42399999987,
      "d": 1316.175066666663,
      "v": 62
    },
    {
      "midi": 64,
      "hit": false,
      "t": 98823.42399999987,
      "d": 1316.175066666663,
      "v": 62
    },
    {
      "midi": 67,
      "hit": false,
      "t": 98823.42399999987,
      "d": 1316.175066666663,
      "v": 62
    },
    {
      "midi": 72,
      "hit": false,
      "t": 98823.42399999987,
      "d": 1316.175066666663,
      "v": 62
    },
    {
      "midi": 60,
      "hit": false,
      "t": 100146.95199999986,
      "d": 433.8230666666641,
      "v": 59
    },
    {
      "midi": 64,
      "hit": false,
      "t": 100146.95199999986,
      "d": 433.8230666666641,
      "v": 59
    },
    {
      "midi": 60,
      "hit": false,
      "t": 100588.12799999985,
      "d": 1316.175066666663,
      "v": 54
    },
    {
      "midi": 65,
      "hit": false,
      "t": 100588.12799999985,
      "d": 1316.175066666663,
      "v": 89
    },
    {
      "midi": 53,
      "hit": false,
      "t": 100588.12799999985,
      "d": 1757.3510666666552,
      "v": 54
    },
    {
      "midi": 60,
      "hit": false,
      "t": 101911.65599999984,
      "d": 433.8230666666641,
      "v": 54
    },
    {
      "midi": 65,
      "hit": false,
      "t": 101911.65599999984,
      "d": 433.8230666666641,
      "v": 89
    },
    {
      "midi": 56,
      "hit": false,
      "t": 102352.83199999983,
      "d": 1316.175066666663,
      "v": 75
    },
    {
      "midi": 61,
      "hit": false,
      "t": 102352.83199999983,
      "d": 1316.175066666663,
      "v": 75
    },
    {
      "midi": 65,
      "hit": false,
      "t": 102352.83199999983,
      "d": 1316.175066666663,
      "v": 75
    },
    {
      "midi": 56,
      "hit": false,
      "t": 103676.35999999983,
      "d": 433.8230666666641,
      "v": 75
    },
    {
      "midi": 61,
      "hit": false,
      "t": 103676.35999999983,
      "d": 433.8230666666641,
      "v": 75
    },
    {
      "midi": 65,
      "hit": false,
      "t": 103676.35999999983,
      "d": 433.8230666666641,
      "v": 75
    },
    {
      "midi": 56,
      "hit": false,
      "t": 104117.53599999982,
      "d": 433.8230666666641,
      "v": 75
    },
    {
      "midi": 60,
      "hit": false,
      "t": 104117.53599999982,
      "d": 654.4110666666529,
      "v": 75
    },
    {
      "midi": 63,
      "hit": false,
      "t": 104117.53599999982,
      "d": 874.9990666666563,
      "v": 75
    },
    {
      "midi": 56,
      "hit": false,
      "t": 104558.71199999981,
      "d": 1316.175066666663,
      "v": 75
    },
    {
      "midi": 63,
      "hit": false,
      "t": 104999.8879999998,
      "d": 874.9990666666708,
      "v": 75
    },
    {
      "midi": 80,
      "hit": false,
      "t": 105882.2399999998,
      "d": 874.9990666666708,
      "v": 63
    },
    {
      "midi": 85,
      "hit": false,
      "t": 105882.2399999998,
      "d": 874.9990666666708,
      "v": 63
    },
    {
      "midi": 68,
      "hit": false,
      "t": 105882.2399999998,
      "d": 2639.7030666666687,
      "v": 61
    },
    {
      "midi": 80,
      "hit": false,
      "t": 106764.5919999998,
      "d": 874.9990666666708,
      "v": 61
    },
    {
      "midi": 85,
      "hit": false,
      "t": 106764.5919999998,
      "d": 874.9990666666708,
      "v": 61
    },
    {
      "midi": 80,
      "hit": false,
      "t": 107646.9439999998,
      "d": 874.9990666666708,
      "v": 61
    },
    {
      "midi": 85,
      "hit": false,
      "t": 107646.9439999998,
      "d": 874.9990666666708,
      "v": 61
    },
    {
      "midi": 66,
      "hit": false,
      "t": 108529.2959999998,
      "d": 874.9990666666708,
      "v": 61
    },
    {
      "midi": 80,
      "hit": false,
      "t": 108529.2959999998,
      "d": 874.9990666666708,
      "v": 61
    },
    {
      "midi": 85,
      "hit": false,
      "t": 108529.2959999998,
      "d": 874.9990666666708,
      "v": 61
    },
    {
      "midi": 65,
      "hit": false,
      "t": 109411.6479999998,
      "d": 874.9990666666708,
      "v": 61
    },
    {
      "midi": 77,
      "hit": false,
      "t": 109411.6479999998,
      "d": 874.9990666666708,
      "v": 61
    },
    {
      "midi": 80,
      "hit": false,
      "t": 109411.6479999998,
      "d": 874.9990666666708,
      "v": 61
    },
    {
      "midi": 85,
      "hit": false,
      "t": 109411.6479999998,
      "d": 874.9990666666708,
      "v": 61
    },
    {
      "midi": 77,
      "hit": false,
      "t": 110293.9999999998,
      "d": 874.9990666666708,
      "v": 61
    },
    {
      "midi": 80,
      "hit": false,
      "t": 110293.9999999998,
      "d": 874.9990666666708,
      "v": 61
    },
    {
      "midi": 85,
      "hit": false,
      "t": 110293.9999999998,
      "d": 874.9990666666708,
      "v": 61
    },
    {
      "midi": 77,
      "hit": false,
      "t": 111176.3519999998,
      "d": 874.9990666666708,
      "v": 61
    },
    {
      "midi": 80,
      "hit": false,
      "t": 111176.3519999998,
      "d": 874.9990666666708,
      "v": 61
    },
    {
      "midi": 85,
      "hit": false,
      "t": 111176.3519999998,
      "d": 874.9990666666708,
      "v": 61
    },
    {
      "midi": 65,
      "hit": false,
      "t": 112058.7039999998,
      "d": 433.8230666666641,
      "v": 61
    },
    {
      "midi": 75,
      "hit": false,
      "t": 112058.7039999998,
      "d": 874.9990666666563,
      "v": 61
    },
    {
      "midi": 77,
      "hit": false,
      "t": 112058.7039999998,
      "d": 874.9990666666563,
      "v": 61
    },
    {
      "midi": 63,
      "hit": false,
      "t": 112499.87999999979,
      "d": 433.8230666666641,
      "v": 61
    },
    {
      "midi": 61,
      "hit": false,
      "t": 112941.05599999978,
      "d": 874.9990666666708,
      "v": 61
    },
    {
      "midi": 73,
      "hit": false,
      "t": 112941.05599999978,
      "d": 874.9990666666708,
      "v": 61
    },
    {
      "midi": 77,
      "hit": false,
      "t": 112941.05599999978,
      "d": 874.9990666666708,
      "v": 61
    },
    {
      "midi": 73,
      "hit": false,
      "t": 113823.40799999978,
      "d": 874.9990666666708,
      "v": 58
    },
    {
      "midi": 77,
      "hit": false,
      "t": 113823.40799999978,
      "d": 874.9990666666708,
      "v": 58
    },
    {
      "midi": 82,
      "hit": false,
      "t": 113823.40799999978,
      "d": 874.9990666666708,
      "v": 58
    },
    {
      "midi": 73,
      "hit": false,
      "t": 114705.75999999978,
      "d": 874.9990666666708,
      "v": 58
    },
    {
      "midi": 80,
      "hit": false,
      "t": 114705.75999999978,
      "d": 874.9990666666708,
      "v": 58
    },
    {
      "midi": 73,
      "hit": false,
      "t": 115588.11199999978,
      "d": 874.9990666666708,
      "v": 63
    },
    {
      "midi": 77,
      "hit": false,
      "t": 115588.11199999978,
      "d": 874.9990666666708,
      "v": 63
    },
    {
      "midi": 70,
      "hit": false,
      "t": 116470.46399999977,
      "d": 874.9990666666708,
      "v": 59
    },
    {
      "midi": 73,
      "hit": false,
      "t": 116470.46399999977,
      "d": 1316.175066666663,
      "v": 59
    },
    {
      "midi": 61,
      "hit": false,
      "t": 116470.46399999977,
      "d": 1757.3510666666552,
      "v": 59
    },
    {
      "midi": 66,
      "hit": false,
      "t": 116911.63999999978,
      "d": 433.8230666666641,
      "v": 59
    },
    {
      "midi": 68,
      "hit": false,
      "t": 117352.81599999977,
      "d": 433.8230666666641,
      "v": 59
    },
    {
      "midi": 82,
      "hit": false,
      "t": 117793.99199999977,
      "d": 433.8230666666641,
      "v": 59
    },
    {
      "midi": 80,
      "hit": false,
      "t": 118235.16799999976,
      "d": 1316.175066666663,
      "v": 59
    },
    {
      "midi": 60,
      "hit": false,
      "t": 118235.16799999976,
      "d": 1536.7630666666664,
      "v": 59
    },
    {
      "midi": 56,
      "hit": false,
      "t": 118235.16799999976,
      "d": 1757.3510666666698,
      "v": 59
    },
    {
      "midi": 68,
      "hit": false,
      "t": 118235.16799999976,
      "d": 1757.3510666666698,
      "v": 59
    },
    {
      "midi": 72,
      "hit": false,
      "t": 119999.87199999976,
      "d": 213.2350666666607,
      "v": 52
    },
    {
      "midi": 65,
      "hit": false,
      "t": 119999.87199999976,
      "d": 874.9990666666563,
      "v": 52
    },
    {
      "midi": 68,
      "hit": false,
      "t": 119999.87199999976,
      "d": 874.9990666666563,
      "v": 52
    },
    {
      "midi": 72,
      "hit": false,
      "t": 120882.22399999974,
      "d": 213.2350666666607,
      "v": 52
    },
    {
      "midi": 65,
      "hit": false,
      "t": 120882.22399999974,
      "d": 874.9990666666563,
      "v": 52
    },
    {
      "midi": 68,
      "hit": false,
      "t": 120882.22399999974,
      "d": 874.9990666666563,
      "v": 52
    },
    {
      "midi": 68,
      "hit": false,
      "t": 121764.57599999972,
      "d": 433.8230666666641,
      "v": 52
    },
    {
      "midi": 65,
      "hit": false,
      "t": 121764.57599999972,
      "d": 874.9990666666563,
      "v": 52
    },
    {
      "midi": 72,
      "hit": false,
      "t": 121764.57599999972,
      "d": 874.9990666666563,
      "v": 52
    },
    {
      "midi": 68,
      "hit": false,
      "t": 122205.75199999972,
      "d": 1316.1750666666485,
      "v": 52
    },
    {
      "midi": 70,
      "hit": false,
      "t": 122646.92799999971,
      "d": 433.8230666666641,
      "v": 52
    },
    {
      "midi": 65,
      "hit": false,
      "t": 122646.92799999971,
      "d": 874.9990666666563,
      "v": 52
    },
    {
      "midi": 72,
      "hit": false,
      "t": 123088.1039999997,
      "d": 433.8230666666641,
      "v": 52
    },
    {
      "midi": 65,
      "hit": false,
      "t": 123529.2799999997,
      "d": 874.9990666666708,
      "v": 52
    },
    {
      "midi": 73,
      "hit": false,
      "t": 123529.2799999997,
      "d": 874.9990666666708,
      "v": 52
    },
    {
      "midi": 65,
      "hit": false,
      "t": 124411.63199999969,
      "d": 874.9990666666708,
      "v": 52
    },
    {
      "midi": 73,
      "hit": false,
      "t": 124411.63199999969,
      "d": 874.9990666666708,
      "v": 52
    },
    {
      "midi": 65,
      "hit": false,
      "t": 125293.98399999969,
      "d": 874.9990666666708,
      "v": 52
    },
    {
      "midi": 72,
      "hit": false,
      "t": 125293.98399999969,
      "d": 874.9990666666708,
      "v": 52
    },
    {
      "midi": 65,
      "hit": false,
      "t": 126176.33599999969,
      "d": 874.9990666666708,
      "v": 52
    },
    {
      "midi": 68,
      "hit": false,
      "t": 126176.33599999969,
      "d": 874.9990666666708,
      "v": 52
    },
    {
      "midi": 54,
      "hit": false,
      "t": 127058.68799999969,
      "d": 874.9990666666708,
      "v": 52
    },
    {
      "midi": 58,
      "hit": false,
      "t": 127058.68799999969,
      "d": 874.9990666666708,
      "v": 52
    },
    {
      "midi": 61,
      "hit": false,
      "t": 127058.68799999969,
      "d": 874.9990666666708,
      "v": 52
    },
    {
      "midi": 66,
      "hit": false,
      "t": 127058.68799999969,
      "d": 874.9990666666708,
      "v": 52
    },
    {
      "midi": 70,
      "hit": false,
      "t": 127058.68799999969,
      "d": 874.9990666666708,
      "v": 52
    },
    {
      "midi": 54,
      "hit": false,
      "t": 127941.03999999969,
      "d": 874.9990666666708,
      "v": 52
    },
    {
      "midi": 58,
      "hit": false,
      "t": 127941.03999999969,
      "d": 874.9990666666708,
      "v": 52
    },
    {
      "midi": 61,
      "hit": false,
      "t": 127941.03999999969,
      "d": 874.9990666666708,
      "v": 52
    },
    {
      "midi": 66,
      "hit": false,
      "t": 127941.03999999969,
      "d": 874.9990666666708,
      "v": 52
    },
    {
      "midi": 70,
      "hit": false,
      "t": 127941.03999999969,
      "d": 874.9990666666708,
      "v": 52
    },
    {
      "midi": 54,
      "hit": false,
      "t": 128823.39199999969,
      "d": 874.9990666666708,
      "v": 52
    },
    {
      "midi": 58,
      "hit": false,
      "t": 128823.39199999969,
      "d": 874.9990666666708,
      "v": 52
    },
    {
      "midi": 61,
      "hit": false,
      "t": 128823.39199999969,
      "d": 874.9990666666708,
      "v": 52
    },
    {
      "midi": 66,
      "hit": false,
      "t": 128823.39199999969,
      "d": 874.9990666666708,
      "v": 52
    },
    {
      "midi": 70,
      "hit": false,
      "t": 128823.39199999969,
      "d": 874.9990666666708,
      "v": 52
    },
    {
      "midi": 54,
      "hit": false,
      "t": 129705.74399999969,
      "d": 874.9990666666708,
      "v": 52
    },
    {
      "midi": 58,
      "hit": false,
      "t": 129705.74399999969,
      "d": 874.9990666666708,
      "v": 52
    },
    {
      "midi": 61,
      "hit": false,
      "t": 129705.74399999969,
      "d": 874.9990666666708,
      "v": 52
    },
    {
      "midi": 66,
      "hit": false,
      "t": 129705.74399999969,
      "d": 874.9990666666708,
      "v": 52
    },
    {
      "midi": 70,
      "hit": false,
      "t": 129705.74399999969,
      "d": 874.9990666666708,
      "v": 52
    },
    {
      "midi": 54,
      "hit": false,
      "t": 130588.09599999968,
      "d": 874.9990666666563,
      "v": 52
    },
    {
      "midi": 58,
      "hit": false,
      "t": 130588.09599999968,
      "d": 874.9990666666563,
      "v": 52
    },
    {
      "midi": 61,
      "hit": false,
      "t": 130588.09599999968,
      "d": 874.9990666666563,
      "v": 52
    },
    {
      "midi": 66,
      "hit": false,
      "t": 130588.09599999968,
      "d": 874.9990666666563,
      "v": 52
    },
    {
      "midi": 70,
      "hit": false,
      "t": 130588.09599999968,
      "d": 874.9990666666563,
      "v": 52
    },
    {
      "midi": 54,
      "hit": false,
      "t": 131470.44799999968,
      "d": 874.9990666666708,
      "v": 52
    },
    {
      "midi": 58,
      "hit": false,
      "t": 131470.44799999968,
      "d": 874.9990666666708,
      "v": 52
    },
    {
      "midi": 61,
      "hit": false,
      "t": 131470.44799999968,
      "d": 874.9990666666708,
      "v": 52
    },
    {
      "midi": 66,
      "hit": false,
      "t": 131470.44799999968,
      "d": 874.9990666666708,
      "v": 52
    },
    {
      "midi": 70,
      "hit": false,
      "t": 131470.44799999968,
      "d": 874.9990666666708,
      "v": 52
    },
    {
      "midi": 56,
      "hit": false,
      "t": 132352.7999999997,
      "d": 1757.3510666666552,
      "v": 52
    },
    {
      "midi": 60,
      "hit": false,
      "t": 132352.7999999997,
      "d": 1757.3510666666552,
      "v": 52
    },
    {
      "midi": 63,
      "hit": false,
      "t": 132352.7999999997,
      "d": 1757.3510666666552,
      "v": 52
    },
    {
      "midi": 68,
      "hit": false,
      "t": 132352.7999999997,
      "d": 1757.3510666666552,
      "v": 52
    },
    {
      "midi": 73,
      "hit": false,
      "t": 137646.9119999997,
      "d": 1316.1750666666776,
      "v": 56
    },
    {
      "midi": 77,
      "hit": false,
      "t": 137646.9119999997,
      "d": 1316.1750666666776,
      "v": 56
    },
    {
      "midi": 68,
      "hit": false,
      "t": 137646.9119999997,
      "d": 1757.3510666666843,
      "v": 56
    },
    {
      "midi": 75,
      "hit": false,
      "t": 138970.4399999997,
      "d": 433.8230666666641,
      "v": 56
    },
    {
      "midi": 73,
      "hit": false,
      "t": 139411.61599999972,
      "d": 1316.1750666666776,
      "v": 56
    },
    {
      "midi": 65,
      "hit": false,
      "t": 139411.61599999972,
      "d": 1757.3510666666843,
      "v": 56
    },
    {
      "midi": 68,
      "hit": false,
      "t": 139411.61599999972,
      "d": 1757.3510666666843,
      "v": 56
    },
    {
      "midi": 72,
      "hit": false,
      "t": 140735.14399999974,
      "d": 433.8230666666641,
      "v": 56
    },
    {
      "midi": 66,
      "hit": false,
      "t": 141176.31999999975,
      "d": 1316.1750666666776,
      "v": 56
    },
    {
      "midi": 70,
      "hit": false,
      "t": 141176.31999999975,
      "d": 1316.1750666666776,
      "v": 56
    },
    {
      "midi": 73,
      "hit": false,
      "t": 141176.31999999975,
      "d": 1316.1750666666776,
      "v": 56
    },
    {
      "midi": 68,
      "hit": false,
      "t": 142499.84799999977,
      "d": 433.8230666666641,
      "v": 56
    },
    {
      "midi": 72,
      "hit": false,
      "t": 142941.02399999977,
      "d": 654.4110666666529,
      "v": 56
    },
    {
      "midi": 73,
      "hit": false,
      "t": 143602.78799999977,
      "d": 654.4110666666529,
      "v": 56
    },
    {
      "midi": 75,
      "hit": false,
      "t": 144264.55199999976,
      "d": 433.8230666666641,
      "v": 56
    },
    {
      "midi": 73,
      "hit": false,
      "t": 144705.72799999977,
      "d": 1316.1750666666776,
      "v": 56
    },
    {
      "midi": 77,
      "hit": false,
      "t": 144705.72799999977,
      "d": 1316.1750666666776,
      "v": 56
    },
    {
      "midi": 68,
      "hit": false,
      "t": 144705.72799999977,
      "d": 1757.3510666666843,
      "v": 56
    },
    {
      "midi": 75,
      "hit": false,
      "t": 146029.2559999998,
      "d": 433.8230666666641,
      "v": 56
    },
    {
      "midi": 73,
      "hit": false,
      "t": 146470.4319999998,
      "d": 1316.1750666666776,
      "v": 56
    },
    {
      "midi": 65,
      "hit": false,
      "t": 146470.4319999998,
      "d": 1757.3510666666843,
      "v": 56
    },
    {
      "midi": 68,
      "hit": false,
      "t": 146470.4319999998,
      "d": 1757.3510666666843,
      "v": 56
    },
    {
      "midi": 72,
      "hit": false,
      "t": 147793.95999999982,
      "d": 433.8230666666641,
      "v": 56
    },
    {
      "midi": 66,
      "hit": false,
      "t": 148235.13599999982,
      "d": 1316.1750666666776,
      "v": 56
    },
    {
      "midi": 70,
      "hit": false,
      "t": 148235.13599999982,
      "d": 1316.1750666666776,
      "v": 56
    },
    {
      "midi": 73,
      "hit": false,
      "t": 148235.13599999982,
      "d": 1316.1750666666776,
      "v": 56
    },
    {
      "midi": 73,
      "hit": false,
      "t": 149558.66399999984,
      "d": 433.8230666666641,
      "v": 56
    },
    {
      "midi": 72,
      "hit": false,
      "t": 149999.83999999985,
      "d": 654.4110666666529,
      "v": 56
    },
    {
      "midi": 73,
      "hit": false,
      "t": 150661.60399999985,
      "d": 654.4110666666529,
      "v": 56
    },
    {
      "midi": 75,
      "hit": false,
      "t": 151323.36799999984,
      "d": 433.8230666666641,
      "v": 56
    },
    {
      "midi": 73,
      "hit": false,
      "t": 151764.54399999985,
      "d": 1316.1750666666776,
      "v": 56
    },
    {
      "midi": 77,
      "hit": false,
      "t": 151764.54399999985,
      "d": 1316.1750666666776,
      "v": 56
    },
    {
      "midi": 68,
      "hit": false,
      "t": 151764.54399999985,
      "d": 1757.3510666666843,
      "v": 56
    },
    {
      "midi": 75,
      "hit": false,
      "t": 153088.07199999987,
      "d": 433.8230666666641,
      "v": 56
    },
    {
      "midi": 73,
      "hit": false,
      "t": 153529.24799999988,
      "d": 1316.1750666666776,
      "v": 56
    },
    {
      "midi": 65,
      "hit": false,
      "t": 153529.24799999988,
      "d": 1757.3510666666843,
      "v": 56
    },
    {
      "midi": 68,
      "hit": false,
      "t": 153529.24799999988,
      "d": 1757.3510666666843,
      "v": 56
    },
    {
      "midi": 72,
      "hit": false,
      "t": 154852.7759999999,
      "d": 433.8230666666641,
      "v": 56
    },
    {
      "midi": 66,
      "hit": false,
      "t": 155293.9519999999,
      "d": 1316.1750666666776,
      "v": 56
    },
    {
      "midi": 70,
      "hit": false,
      "t": 155293.9519999999,
      "d": 1316.1750666666776,
      "v": 56
    },
    {
      "midi": 73,
      "hit": false,
      "t": 155293.9519999999,
      "d": 1316.1750666666776,
      "v": 56
    },
    {
      "midi": 68,
      "hit": false,
      "t": 156617.47999999992,
      "d": 433.8230666666641,
      "v": 56
    },
    {
      "midi": 72,
      "hit": false,
      "t": 157058.65599999993,
      "d": 654.4110666666529,
      "v": 56
    },
    {
      "midi": 73,
      "hit": false,
      "t": 157720.41999999993,
      "d": 654.4110666666529,
      "v": 56
    },
    {
      "midi": 75,
      "hit": false,
      "t": 158382.18399999992,
      "d": 433.8230666666641,
      "v": 56
    },
    {
      "midi": 73,
      "hit": false,
      "t": 158823.35999999993,
      "d": 1316.1750666666776,
      "v": 56
    },
    {
      "midi": 77,
      "hit": false,
      "t": 158823.35999999993,
      "d": 1316.1750666666776,
      "v": 56
    },
    {
      "midi": 68,
      "hit": false,
      "t": 158823.35999999993,
      "d": 1757.3510666666843,
      "v": 56
    },
    {
      "midi": 75,
      "hit": false,
      "t": 160146.88799999995,
      "d": 433.8230666666641,
      "v": 56
    },
    {
      "midi": 73,
      "hit": false,
      "t": 160588.06399999995,
      "d": 1316.1750666666776,
      "v": 56
    },
    {
      "midi": 65,
      "hit": false,
      "t": 160588.06399999995,
      "d": 1757.3510666666843,
      "v": 56
    },
    {
      "midi": 68,
      "hit": false,
      "t": 160588.06399999995,
      "d": 1757.3510666666843,
      "v": 56
    },
    {
      "midi": 72,
      "hit": false,
      "t": 161911.59199999998,
      "d": 433.8230666666641,
      "v": 56
    },
    {
      "midi": 66,
      "hit": false,
      "t": 162352.76799999998,
      "d": 2419.11506666668,
      "v": 56
    },
    {
      "midi": 70,
      "hit": false,
      "t": 162352.76799999998,
      "d": 2860.2910666666867,
      "v": 56
    },
    {
      "midi": 73,
      "hit": false,
      "t": 162352.76799999998,
      "d": 3080.8790666666755,
      "v": 56
    },
    {
      "midi": 68,
      "hit": false,
      "t": 167646.88,
      "d": 874.9990666666708,
      "v": 45
    },
    {
      "midi": 73,
      "hit": false,
      "t": 167646.88,
      "d": 874.9990666666708,
      "v": 45
    },
    {
      "midi": 85,
      "hit": false,
      "t": 167646.88,
      "d": 874.9990666666708,
      "v": 63
    },
    {
      "midi": 73,
      "hit": false,
      "t": 168529.23200000002,
      "d": 874.9990666666708,
      "v": 45
    },
    {
      "midi": 85,
      "hit": false,
      "t": 168529.23200000002,
      "d": 874.9990666666708,
      "v": 64
    },
    {
      "midi": 68,
      "hit": false,
      "t": 168970.40800000002,
      "d": 433.8230666666641,
      "v": 45
    },
    {
      "midi": 68,
      "hit": false,
      "t": 169411.58400000003,
      "d": 874.9990666666708,
      "v": 45
    },
    {
      "midi": 73,
      "hit": false,
      "t": 169411.58400000003,
      "d": 874.9990666666708,
      "v": 45
    },
    {
      "midi": 85,
      "hit": false,
      "t": 169411.58400000003,
      "d": 874.9990666666708,
      "v": 63
    },
    {
      "midi": 73,
      "hit": false,
      "t": 170293.93600000005,
      "d": 433.8230666666641,
      "v": 45
    },
    {
      "midi": 68,
      "hit": false,
      "t": 170293.93600000005,
      "d": 874.9990666666708,
      "v": 45
    },
    {
      "midi": 85,
      "hit": false,
      "t": 170293.93600000005,
      "d": 874.9990666666708,
      "v": 63
    },
    {
      "midi": 75,
      "hit": false,
      "t": 170735.11200000005,
      "d": 433.8230666666641,
      "v": 45
    },
    {
      "midi": 73,
      "hit": false,
      "t": 171176.28800000006,
      "d": 874.9990666666708,
      "v": 45
    },
    {
      "midi": 78,
      "hit": false,
      "t": 171176.28800000006,
      "d": 874.9990666666708,
      "v": 60
    },
    {
      "midi": 82,
      "hit": false,
      "t": 171176.28800000006,
      "d": 874.9990666666708,
      "v": 45
    },
    {
      "midi": 73,
      "hit": false,
      "t": 172058.64000000007,
      "d": 874.9990666666708,
      "v": 40
    },
    {
      "midi": 78,
      "hit": false,
      "t": 172058.64000000007,
      "d": 874.9990666666708,
      "v": 40
    },
    {
      "midi": 82,
      "hit": false,
      "t": 172058.64000000007,
      "d": 874.9990666666708,
      "v": 40
    },
    {
      "midi": 73,
      "hit": false,
      "t": 172940.9920000001,
      "d": 874.9990666666708,
      "v": 40
    },
    {
      "midi": 78,
      "hit": false,
      "t": 172940.9920000001,
      "d": 874.9990666666708,
      "v": 40
    },
    {
      "midi": 82,
      "hit": false,
      "t": 172940.9920000001,
      "d": 874.9990666666708,
      "v": 40
    },
    {
      "midi": 75,
      "hit": false,
      "t": 173823.3440000001,
      "d": 654.4110666666529,
      "v": 40
    },
    {
      "midi": 82,
      "hit": false,
      "t": 173823.3440000001,
      "d": 654.4110666666529,
      "v": 12
    },
    {
      "midi": 78,
      "hit": false,
      "t": 174485.1080000001,
      "d": 654.4110666666529,
      "v": 41
    },
    {
      "midi": 61,
      "hit": false,
      "t": 176470.40000000008,
      "d": 4404.407066666725,
      "v": 43
    },
    {
      "midi": 65,
      "hit": false,
      "t": 176617.45866666676,
      "d": 4404.407066666725,
      "v": 43
    },
    {
      "midi": 68,
      "hit": false,
      "t": 176764.51733333344,
      "d": 4404.407066666725,
      "v": 43
    },
    {
      "midi": 73,
      "hit": false,
      "t": 176911.57600000012,
      "d": 2860.2910666666867,
      "v": 43
    },
    {
      "midi": 77,
      "hit": false,
      "t": 177058.6346666668,
      "d": 2823.5264000000025,
      "v": 43
    },
    {
      "midi": 80,
      "hit": false,
      "t": 177205.69333333347,
      "d": 2749.997066666663,
      "v": 43
    },
    {
      "midi": 85,
      "hit": false,
      "t": 177352.75200000015,
      "d": 2676.467733333324,
      "v": 43
    },
    {
      "midi": 75,
      "hit": false,
      "t": 179117.45600000015,
      "d": 1757.3510666666552,
      "v": 24
    },
    {
      "midi": 77,
      "hit": false,
      "t": 179999.80800000014,
      "d": 1757.3510666666843,
      "v": 17
    }
  ]
}