{
  "jsonPath": "Soundtracks/Video Game Music/Kingdom Hearts/kingdom-hearts-piratesgigue.json",
  "path": "Soundtracks\\Video Game Music\\Kingdom Hearts\\Kingdom_Hearts_PiratesGigue.mid",
  "name": "Kingdom_Hearts_PiratesGigue",
  "difficulty": "Advanced",
  "bpm": 123.99999173333389,
  "notes": [
    {
      "midi": 28,
      "hit": false,
      "t": 0,
      "d": 720.7661770833333,
      "v": 100
    },
    {
      "midi": 40,
      "hit": false,
      "t": 0,
      "d": 720.7661770833333,
      "v": 100
    },
    {
      "midi": 64,
      "hit": false,
      "t": 241.93550000000002,
      "d": 115.92742708333336,
      "v": 100
    },
    {
      "midi": 65,
      "hit": false,
      "t": 362.90325,
      "d": 115.92742708333333,
      "v": 100
    },
    {
      "midi": 67,
      "hit": false,
      "t": 483.871,
      "d": 115.92742708333333,
      "v": 100
    },
    {
      "midi": 29,
      "hit": false,
      "t": 725.8065,
      "d": 720.7661770833334,
      "v": 100
    },
    {
      "midi": 41,
      "hit": false,
      "t": 725.8065,
      "d": 720.7661770833334,
      "v": 100
    },
    {
      "midi": 65,
      "hit": false,
      "t": 967.742,
      "d": 115.92742708333344,
      "v": 100
    },
    {
      "midi": 67,
      "hit": false,
      "t": 1088.70975,
      "d": 115.92742708333344,
      "v": 100
    },
    {
      "midi": 68,
      "hit": false,
      "t": 1209.6775,
      "d": 115.92742708333344,
      "v": 100
    },
    {
      "midi": 31,
      "hit": false,
      "t": 1451.613,
      "d": 720.7661770833331,
      "v": 100
    },
    {
      "midi": 43,
      "hit": false,
      "t": 1451.613,
      "d": 720.7661770833331,
      "v": 100
    },
    {
      "midi": 67,
      "hit": false,
      "t": 1693.5485,
      "d": 115.92742708333344,
      "v": 100
    },
    {
      "midi": 68,
      "hit": false,
      "t": 1814.5162500000001,
      "d": 115.92742708333344,
      "v": 100
    },
    {
      "midi": 70,
      "hit": false,
      "t": 1935.4840000000002,
      "d": 115.92742708333321,
      "v": 100
    },
    {
      "midi": 41,
      "hit": false,
      "t": 2177.4195,
      "d": 720.7661770833333,
      "v": 100
    },
    {
      "midi": 29,
      "hit": false,
      "t": 2177.4195,
      "d": 720.7661770833333,
      "v": 100
    },
    {
      "midi": 68,
      "hit": false,
      "t": 2419.355,
      "d": 115.92742708333344,
      "v": 100
    },
    {
      "midi": 70,
      "hit": false,
      "t": 2540.3227500000003,
      "d": 115.92742708333344,
      "v": 100
    },
    {
      "midi": 72,
      "hit": false,
      "t": 2661.2905000000005,
      "d": 115.92742708333344,
      "v": 100
    },
    {
      "midi": 40,
      "hit": false,
      "t": 2903.226,
      "d": 720.7661770833333,
      "v": 100
    },
    {
      "midi": 28,
      "hit": false,
      "t": 2903.226,
      "d": 720.7661770833333,
      "v": 100
    },
    {
      "midi": 64,
      "hit": false,
      "t": 3145.1615000000006,
      "d": 115.92742708333344,
      "v": 100
    },
    {
      "midi": 60,
      "hit": false,
      "t": 3145.1615000000006,
      "d": 115.92742708333344,
      "v": 100
    },
    {
      "midi": 62,
      "hit": false,
      "t": 3266.129250000001,
      "d": 115.92742708333344,
      "v": 100
    },
    {
      "midi": 65,
      "hit": false,
      "t": 3266.129250000001,
      "d": 115.92742708333344,
      "v": 100
    },
    {
      "midi": 64,
      "hit": false,
      "t": 3387.097000000001,
      "d": 115.92742708333344,
      "v": 100
    },
    {
      "midi": 67,
      "hit": false,
      "t": 3387.097000000001,
      "d": 115.92742708333344,
      "v": 100
    },
    {
      "midi": 41,
      "hit": false,
      "t": 3629.0325000000003,
      "d": 720.7661770833338,
      "v": 100
    },
    {
      "midi": 29,
      "hit": false,
      "t": 3629.0325000000003,
      "d": 720.7661770833338,
      "v": 100
    },
    {
      "midi": 65,
      "hit": false,
      "t": 3870.968000000001,
      "d": 115.92742708333344,
      "v": 100
    },
    {
      "midi": 62,
      "hit": false,
      "t": 3870.968000000001,
      "d": 115.92742708333344,
      "v": 100
    },
    {
      "midi": 64,
      "hit": false,
      "t": 3991.9357500000015,
      "d": 115.92742708333299,
      "v": 100
    },
    {
      "midi": 67,
      "hit": false,
      "t": 3991.9357500000015,
      "d": 115.92742708333299,
      "v": 100
    },
    {
      "midi": 65,
      "hit": false,
      "t": 4112.903500000001,
      "d": 115.92742708333299,
      "v": 100
    },
    {
      "midi": 68,
      "hit": false,
      "t": 4112.903500000001,
      "d": 115.92742708333299,
      "v": 100
    },
    {
      "midi": 37,
      "hit": false,
      "t": 4354.839000000001,
      "d": 720.7661770833338,
      "v": 100
    },
    {
      "midi": 25,
      "hit": false,
      "t": 4354.839000000001,
      "d": 720.7661770833338,
      "v": 100
    },
    {
      "midi": 67,
      "hit": false,
      "t": 4596.774500000001,
      "d": 115.92742708333299,
      "v": 100
    },
    {
      "midi": 64,
      "hit": false,
      "t": 4596.774500000001,
      "d": 115.92742708333299,
      "v": 100
    },
    {
      "midi": 65,
      "hit": false,
      "t": 4717.742250000001,
      "d": 115.92742708333299,
      "v": 100
    },
    {
      "midi": 68,
      "hit": false,
      "t": 4717.742250000001,
      "d": 115.92742708333299,
      "v": 100
    },
    {
      "midi": 67,
      "hit": false,
      "t": 4838.710000000001,
      "d": 115.92742708333299,
      "v": 100
    },
    {
      "midi": 70,
      "hit": false,
      "t": 4838.710000000001,
      "d": 115.92742708333299,
      "v": 100
    },
    {
      "midi": 36,
      "hit": false,
      "t": 5080.645500000001,
      "d": 720.7661770833338,
      "v": 100
    },
    {
      "midi": 24,
      "hit": false,
      "t": 5080.645500000001,
      "d": 720.7661770833338,
      "v": 100
    },
    {
      "midi": 65,
      "hit": false,
      "t": 5322.581,
      "d": 115.92742708333299,
      "v": 100
    },
    {
      "midi": 68,
      "hit": false,
      "t": 5322.581,
      "d": 115.92742708333299,
      "v": 100
    },
    {
      "midi": 70,
      "hit": false,
      "t": 5443.54875,
      "d": 115.92742708333299,
      "v": 100
    },
    {
      "midi": 67,
      "hit": false,
      "t": 5443.54875,
      "d": 115.92742708333299,
      "v": 100
    },
    {
      "midi": 77,
      "hit": false,
      "t": 5564.5165,
      "d": 55.44355208333309,
      "v": 100
    },
    {
      "midi": 72,
      "hit": false,
      "t": 5564.5165,
      "d": 115.92742708333299,
      "v": 100
    },
    {
      "midi": 68,
      "hit": false,
      "t": 5564.5165,
      "d": 115.92742708333299,
      "v": 100
    },
    {
      "midi": 79,
      "hit": false,
      "t": 5625.000375,
      "d": 55.44355208333309,
      "v": 100
    },
    {
      "midi": 80,
      "hit": false,
      "t": 5685.4842499999995,
      "d": 55.44355208333309,
      "v": 100
    },
    {
      "midi": 82,
      "hit": false,
      "t": 5745.968124999999,
      "d": 55.44355208333309,
      "v": 100
    },
    {
      "midi": 84,
      "hit": false,
      "t": 5806.451999999999,
      "d": 115.92742708333299,
      "v": 100
    },
    {
      "midi": 29,
      "hit": false,
      "t": 5806.452000000002,
      "d": 115.92742708333299,
      "v": 100
    },
    {
      "midi": 41,
      "hit": false,
      "t": 5806.452000000002,
      "d": 115.92742708333299,
      "v": 100
    },
    {
      "midi": 82,
      "hit": false,
      "t": 6048.387499999999,
      "d": 115.92742708333299,
      "v": 100
    },
    {
      "midi": 48,
      "hit": false,
      "t": 6048.387500000002,
      "d": 115.92742708333299,
      "v": 100
    },
    {
      "midi": 36,
      "hit": false,
      "t": 6048.387500000002,
      "d": 115.92742708333299,
      "v": 100
    },
    {
      "midi": 80,
      "hit": false,
      "t": 6169.355249999999,
      "d": 115.92742708333299,
      "v": 100
    },
    {
      "midi": 79,
      "hit": false,
      "t": 6290.3229999999985,
      "d": 115.92742708333299,
      "v": 100
    },
    {
      "midi": 48,
      "hit": false,
      "t": 6290.323000000001,
      "d": 115.92742708333299,
      "v": 100
    },
    {
      "midi": 36,
      "hit": false,
      "t": 6290.323000000001,
      "d": 115.92742708333299,
      "v": 100
    },
    {
      "midi": 77,
      "hit": false,
      "t": 6532.258499999998,
      "d": 115.92742708333299,
      "v": 100
    },
    {
      "midi": 41,
      "hit": false,
      "t": 6532.258500000001,
      "d": 115.92742708333299,
      "v": 100
    },
    {
      "midi": 29,
      "hit": false,
      "t": 6532.258500000001,
      "d": 115.92742708333299,
      "v": 100
    },
    {
      "midi": 72,
      "hit": false,
      "t": 6774.193999999998,
      "d": 115.92742708333299,
      "v": 100
    },
    {
      "midi": 48,
      "hit": false,
      "t": 6774.194,
      "d": 115.92742708333299,
      "v": 100
    },
    {
      "midi": 36,
      "hit": false,
      "t": 6774.194,
      "d": 115.92742708333299,
      "v": 100
    },
    {
      "midi": 65,
      "hit": false,
      "t": 7016.129499999997,
      "d": 115.92742708333299,
      "v": 100
    },
    {
      "midi": 48,
      "hit": false,
      "t": 7016.1295,
      "d": 115.92742708333299,
      "v": 100
    },
    {
      "midi": 36,
      "hit": false,
      "t": 7016.1295,
      "d": 115.92742708333299,
      "v": 100
    },
    {
      "midi": 67,
      "hit": false,
      "t": 7258.064999999997,
      "d": 115.92742708333299,
      "v": 100
    },
    {
      "midi": 41,
      "hit": false,
      "t": 7258.065,
      "d": 115.92742708333299,
      "v": 100
    },
    {
      "midi": 29,
      "hit": false,
      "t": 7258.065,
      "d": 115.92742708333299,
      "v": 100
    },
    {
      "midi": 68,
      "hit": false,
      "t": 7379.032749999997,
      "d": 115.92742708333299,
      "v": 100
    },
    {
      "midi": 70,
      "hit": false,
      "t": 7500.0004999999965,
      "d": 115.92742708333299,
      "v": 100
    },
    {
      "midi": 48,
      "hit": false,
      "t": 7500.000499999999,
      "d": 115.92742708333299,
      "v": 100
    },
    {
      "midi": 36,
      "hit": false,
      "t": 7500.000499999999,
      "d": 115.92742708333299,
      "v": 100
    },
    {
      "midi": 73,
      "hit": false,
      "t": 7620.968249999996,
      "d": 115.92742708333299,
      "v": 100
    },
    {
      "midi": 72,
      "hit": false,
      "t": 7741.935999999996,
      "d": 115.92742708333299,
      "v": 100
    },
    {
      "midi": 48,
      "hit": false,
      "t": 7741.935999999999,
      "d": 115.92742708333299,
      "v": 100
    },
    {
      "midi": 36,
      "hit": false,
      "t": 7741.935999999999,
      "d": 115.92742708333299,
      "v": 100
    },
    {
      "midi": 70,
      "hit": false,
      "t": 7862.903749999996,
      "d": 115.92742708333299,
      "v": 100
    },
    {
      "midi": 68,
      "hit": false,
      "t": 7983.871499999996,
      "d": 115.92742708333299,
      "v": 100
    },
    {
      "midi": 41,
      "hit": false,
      "t": 7983.871499999998,
      "d": 115.92742708333299,
      "v": 100
    },
    {
      "midi": 29,
      "hit": false,
      "t": 7983.871499999998,
      "d": 115.92742708333299,
      "v": 100
    },
    {
      "midi": 65,
      "hit": false,
      "t": 8225.806999999995,
      "d": 115.9274270833339,
      "v": 100
    },
    {
      "midi": 48,
      "hit": false,
      "t": 8225.806999999999,
      "d": 115.9274270833339,
      "v": 100
    },
    {
      "midi": 36,
      "hit": false,
      "t": 8225.806999999999,
      "d": 115.9274270833339,
      "v": 100
    },
    {
      "midi": 74,
      "hit": false,
      "t": 8467.742499999997,
      "d": 115.9274270833339,
      "v": 100
    },
    {
      "midi": 36,
      "hit": false,
      "t": 8467.7425,
      "d": 115.9274270833339,
      "v": 100
    },
    {
      "midi": 48,
      "hit": false,
      "t": 8467.7425,
      "d": 115.9274270833339,
      "v": 100
    },
    {
      "midi": 76,
      "hit": false,
      "t": 8588.710249999996,
      "d": 115.9274270833339,
      "v": 100
    },
    {
      "midi": 84,
      "hit": false,
      "t": 8709.677999999996,
      "d": 115.9274270833339,
      "v": 100
    },
    {
      "midi": 77,
      "hit": false,
      "t": 8709.677999999996,
      "d": 115.9274270833339,
      "v": 100
    },
    {
      "midi": 29,
      "hit": false,
      "t": 8709.678000000002,
      "d": 115.9274270833339,
      "v": 100
    },
    {
      "midi": 41,
      "hit": false,
      "t": 8709.678000000002,
      "d": 115.9274270833339,
      "v": 100
    },
    {
      "midi": 82,
      "hit": false,
      "t": 8951.613499999998,
      "d": 115.9274270833339,
      "v": 100
    },
    {
      "midi": 36,
      "hit": false,
      "t": 8951.613500000003,
      "d": 115.9274270833339,
      "v": 100
    },
    {
      "midi": 48,
      "hit": false,
      "t": 8951.613500000003,
      "d": 115.9274270833339,
      "v": 100
    },
    {
      "midi": 80,
      "hit": false,
      "t": 9072.581249999997,
      "d": 115.9274270833339,
      "v": 100
    },
    {
      "midi": 79,
      "hit": false,
      "t": 9193.548999999997,
      "d": 115.9274270833339,
      "v": 100
    },
    {
      "midi": 36,
      "hit": false,
      "t": 9193.549000000005,
      "d": 115.9274270833339,
      "v": 100
    },
    {
      "midi": 48,
      "hit": false,
      "t": 9193.549000000005,
      "d": 115.9274270833339,
      "v": 100
    },
    {
      "midi": 77,
      "hit": false,
      "t": 9435.484499999999,
      "d": 115.9274270833339,
      "v": 100
    },
    {
      "midi": 29,
      "hit": false,
      "t": 9435.484500000006,
      "d": 115.9274270833339,
      "v": 100
    },
    {
      "midi": 41,
      "hit": false,
      "t": 9435.484500000006,
      "d": 115.9274270833339,
      "v": 100
    },
    {
      "midi": 72,
      "hit": false,
      "t": 9677.42,
      "d": 115.9274270833339,
      "v": 100
    },
    {
      "midi": 36,
      "hit": false,
      "t": 9677.420000000007,
      "d": 115.9274270833339,
      "v": 100
    },
    {
      "midi": 48,
      "hit": false,
      "t": 9677.420000000007,
      "d": 115.9274270833339,
      "v": 100
    },
    {
      "midi": 65,
      "hit": false,
      "t": 9919.355500000001,
      "d": 115.9274270833339,
      "v": 100
    },
    {
      "midi": 36,
      "hit": false,
      "t": 9919.355500000009,
      "d": 115.9274270833339,
      "v": 100
    },
    {
      "midi": 48,
      "hit": false,
      "t": 9919.355500000009,
      "d": 115.9274270833339,
      "v": 100
    },
    {
      "midi": 67,
      "hit": false,
      "t": 10161.291000000003,
      "d": 115.9274270833339,
      "v": 100
    },
    {
      "midi": 41,
      "hit": false,
      "t": 10161.29100000001,
      "d": 115.9274270833339,
      "v": 100
    },
    {
      "midi": 29,
      "hit": false,
      "t": 10161.29100000001,
      "d": 115.9274270833339,
      "v": 100
    },
    {
      "midi": 68,
      "hit": false,
      "t": 10282.258750000003,
      "d": 115.9274270833339,
      "v": 100
    },
    {
      "midi": 70,
      "hit": false,
      "t": 10403.226500000002,
      "d": 115.9274270833339,
      "v": 100
    },
    {
      "midi": 36,
      "hit": false,
      "t": 10403.226500000012,
      "d": 115.9274270833339,
      "v": 100
    },
    {
      "midi": 48,
      "hit": false,
      "t": 10403.226500000012,
      "d": 115.9274270833339,
      "v": 100
    },
    {
      "midi": 73,
      "hit": false,
      "t": 10524.194250000002,
      "d": 115.9274270833339,
      "v": 100
    },
    {
      "midi": 72,
      "hit": false,
      "t": 10645.162000000002,
      "d": 115.9274270833339,
      "v": 100
    },
    {
      "midi": 36,
      "hit": false,
      "t": 10645.162000000013,
      "d": 115.9274270833339,
      "v": 100
    },
    {
      "midi": 48,
      "hit": false,
      "t": 10645.162000000013,
      "d": 115.9274270833339,
      "v": 100
    },
    {
      "midi": 70,
      "hit": false,
      "t": 10766.129750000002,
      "d": 115.9274270833339,
      "v": 100
    },
    {
      "midi": 68,
      "hit": false,
      "t": 10887.097500000002,
      "d": 115.9274270833339,
      "v": 100
    },
    {
      "midi": 41,
      "hit": false,
      "t": 10887.097500000014,
      "d": 115.9274270833339,
      "v": 100
    },
    {
      "midi": 29,
      "hit": false,
      "t": 10887.097500000014,
      "d": 115.9274270833339,
      "v": 100
    },
    {
      "midi": 65,
      "hit": false,
      "t": 11129.033000000003,
      "d": 115.9274270833339,
      "v": 100
    },
    {
      "midi": 36,
      "hit": false,
      "t": 11129.033000000016,
      "d": 115.9274270833339,
      "v": 100
    },
    {
      "midi": 48,
      "hit": false,
      "t": 11129.033000000016,
      "d": 115.9274270833339,
      "v": 100
    },
    {
      "midi": 76,
      "hit": false,
      "t": 11370.968500000004,
      "d": 236.8951770833337,
      "v": 100
    },
    {
      "midi": 48,
      "hit": false,
      "t": 11370.968500000017,
      "d": 115.9274270833339,
      "v": 100
    },
    {
      "midi": 36,
      "hit": false,
      "t": 11370.968500000017,
      "d": 115.9274270833339,
      "v": 100
    },
    {
      "midi": 77,
      "hit": false,
      "t": 11612.904000000004,
      "d": 357.8629270833335,
      "v": 100
    },
    {
      "midi": 53,
      "hit": false,
      "t": 11612.904000000019,
      "d": 1446.5726770833335,
      "v": 100
    },
    {
      "midi": 48,
      "hit": false,
      "t": 11612.904000000019,
      "d": 1446.5726770833335,
      "v": 100
    },
    {
      "midi": 44,
      "hit": false,
      "t": 11612.904000000019,
      "d": 1446.5726770833335,
      "v": 100
    },
    {
      "midi": 76,
      "hit": false,
      "t": 11975.807250000003,
      "d": 115.9274270833339,
      "v": 100
    },
    {
      "midi": 77,
      "hit": false,
      "t": 12096.775000000003,
      "d": 236.8951770833337,
      "v": 100
    },
    {
      "midi": 80,
      "hit": false,
      "t": 12338.710500000003,
      "d": 357.8629270833335,
      "v": 100
    },
    {
      "midi": 79,
      "hit": false,
      "t": 12701.613750000002,
      "d": 115.9274270833339,
      "v": 100
    },
    {
      "midi": 80,
      "hit": false,
      "t": 12822.581500000002,
      "d": 236.8951770833337,
      "v": 100
    },
    {
      "midi": 82,
      "hit": false,
      "t": 13064.517000000002,
      "d": 236.8951770833337,
      "v": 100
    },
    {
      "midi": 46,
      "hit": false,
      "t": 13064.517000000018,
      "d": 1446.5726770833335,
      "v": 100
    },
    {
      "midi": 49,
      "hit": false,
      "t": 13064.517000000018,
      "d": 1446.5726770833335,
      "v": 100
    },
    {
      "midi": 55,
      "hit": false,
      "t": 13064.517000000018,
      "d": 1446.5726770833335,
      "v": 100
    },
    {
      "midi": 82,
      "hit": false,
      "t": 13306.452500000001,
      "d": 115.9274270833339,
      "v": 100
    },
    {
      "midi": 80,
      "hit": false,
      "t": 13427.420250000001,
      "d": 115.9274270833339,
      "v": 100
    },
    {
      "midi": 79,
      "hit": false,
      "t": 13548.388,
      "d": 115.9274270833339,
      "v": 100
    },
    {
      "midi": 77,
      "hit": false,
      "t": 13669.35575,
      "d": 115.9274270833339,
      "v": 100
    },
    {
      "midi": 82,
      "hit": false,
      "t": 13790.3235,
      "d": 236.8951770833337,
      "v": 100
    },
    {
      "midi": 82,
      "hit": false,
      "t": 14032.259,
      "d": 115.9274270833339,
      "v": 100
    },
    {
      "midi": 80,
      "hit": false,
      "t": 14153.22675,
      "d": 115.9274270833339,
      "v": 100
    },
    {
      "midi": 79,
      "hit": false,
      "t": 14274.1945,
      "d": 115.9274270833339,
      "v": 100
    },
    {
      "midi": 77,
      "hit": false,
      "t": 14395.16225,
      "d": 115.9274270833339,
      "v": 100
    },
    {
      "midi": 77,
      "hit": false,
      "t": 14516.13,
      "d": 357.8629270833335,
      "v": 100
    },
    {
      "midi": 53,
      "hit": false,
      "t": 14516.130000000017,
      "d": 1446.5726770833335,
      "v": 100
    },
    {
      "midi": 44,
      "hit": false,
      "t": 14516.130000000017,
      "d": 1446.5726770833335,
      "v": 100
    },
    {
      "midi": 48,
      "hit": false,
      "t": 14516.130000000017,
      "d": 1446.5726770833335,
      "v": 100
    },
    {
      "midi": 76,
      "hit": false,
      "t": 14879.033249999999,
      "d": 115.9274270833339,
      "v": 100
    },
    {
      "midi": 77,
      "hit": false,
      "t": 15000.000999999998,
      "d": 236.8951770833337,
      "v": 100
    },
    {
      "midi": 80,
      "hit": false,
      "t": 15241.936499999998,
      "d": 357.8629270833335,
      "v": 100
    },
    {
      "midi": 79,
      "hit": false,
      "t": 15604.839749999997,
      "d": 115.9274270833339,
      "v": 100
    },
    {
      "midi": 80,
      "hit": false,
      "t": 15725.807499999997,
      "d": 236.8951770833337,
      "v": 100
    },
    {
      "midi": 82,
      "hit": false,
      "t": 15967.742999999997,
      "d": 236.8951770833337,
      "v": 100
    },
    {
      "midi": 46,
      "hit": false,
      "t": 15967.743000000017,
      "d": 1446.5726770833353,
      "v": 100
    },
    {
      "midi": 49,
      "hit": false,
      "t": 15967.743000000017,
      "d": 1446.5726770833353,
      "v": 100
    },
    {
      "midi": 55,
      "hit": false,
      "t": 15967.743000000017,
      "d": 1446.5726770833353,
      "v": 100
    },
    {
      "midi": 82,
      "hit": false,
      "t": 16209.678499999996,
      "d": 115.9274270833339,
      "v": 100
    },
    {
      "midi": 80,
      "hit": false,
      "t": 16330.646249999996,
      "d": 115.92742708333208,
      "v": 100
    },
    {
      "midi": 79,
      "hit": false,
      "t": 16451.613999999994,
      "d": 115.9274270833339,
      "v": 100
    },
    {
      "midi": 77,
      "hit": false,
      "t": 16572.581749999994,
      "d": 115.9274270833339,
      "v": 100
    },
    {
      "midi": 82,
      "hit": false,
      "t": 16693.549499999994,
      "d": 115.9274270833339,
      "v": 100
    },
    {
      "midi": 84,
      "hit": false,
      "t": 16814.517249999994,
      "d": 115.9274270833339,
      "v": 100
    },
    {
      "midi": 82,
      "hit": false,
      "t": 16935.484999999993,
      "d": 115.9274270833339,
      "v": 100
    },
    {
      "midi": 80,
      "hit": false,
      "t": 17056.452749999993,
      "d": 115.9274270833339,
      "v": 100
    },
    {
      "midi": 79,
      "hit": false,
      "t": 17177.420499999993,
      "d": 115.9274270833339,
      "v": 100
    },
    {
      "midi": 77,
      "hit": false,
      "t": 17298.388249999993,
      "d": 115.9274270833339,
      "v": 100
    },
    {
      "midi": 76,
      "hit": false,
      "t": 17419.355999999992,
      "d": 115.9274270833339,
      "v": 100
    },
    {
      "midi": 48,
      "hit": false,
      "t": 17419.356000000018,
      "d": 720.7661770833329,
      "v": 100
    },
    {
      "midi": 43,
      "hit": false,
      "t": 17419.356000000018,
      "d": 720.7661770833329,
      "v": 100
    },
    {
      "midi": 36,
      "hit": false,
      "t": 17419.356000000018,
      "d": 720.7661770833329,
      "v": 100
    },
    {
      "midi": 77,
      "hit": false,
      "t": 17540.323749999992,
      "d": 115.9274270833339,
      "v": 100
    },
    {
      "midi": 79,
      "hit": false,
      "t": 17661.291499999992,
      "d": 115.9274270833339,
      "v": 100
    },
    {
      "midi": 72,
      "hit": false,
      "t": 17903.22699999999,
      "d": 115.9274270833339,
      "v": 100
    },
    {
      "midi": 77,
      "hit": false,
      "t": 18145.16249999999,
      "d": 115.9274270833339,
      "v": 100
    },
    {
      "midi": 43,
      "hit": false,
      "t": 18145.162500000017,
      "d": 720.7661770833329,
      "v": 100
    },
    {
      "midi": 36,
      "hit": false,
      "t": 18145.162500000017,
      "d": 720.7661770833329,
      "v": 100
    },
    {
      "midi": 48,
      "hit": false,
      "t": 18145.162500000017,
      "d": 720.7661770833329,
      "v": 100
    },
    {
      "midi": 79,
      "hit": false,
      "t": 18266.13024999999,
      "d": 115.9274270833339,
      "v": 100
    },
    {
      "midi": 80,
      "hit": false,
      "t": 18387.09799999999,
      "d": 115.9274270833339,
      "v": 100
    },
    {
      "midi": 72,
      "hit": false,
      "t": 18629.03349999999,
      "d": 115.9274270833339,
      "v": 100
    },
    {
      "midi": 79,
      "hit": false,
      "t": 18870.96899999999,
      "d": 115.9274270833339,
      "v": 100
    },
    {
      "midi": 37,
      "hit": false,
      "t": 18870.969000000016,
      "d": 720.7661770833329,
      "v": 100
    },
    {
      "midi": 44,
      "hit": false,
      "t": 18870.969000000016,
      "d": 720.7661770833329,
      "v": 100
    },
    {
      "midi": 49,
      "hit": false,
      "t": 18870.969000000016,
      "d": 720.7661770833329,
      "v": 100
    },
    {
      "midi": 80,
      "hit": false,
      "t": 18991.93674999999,
      "d": 115.9274270833339,
      "v": 100
    },
    {
      "midi": 82,
      "hit": false,
      "t": 19112.90449999999,
      "d": 115.9274270833339,
      "v": 100
    },
    {
      "midi": 72,
      "hit": false,
      "t": 19354.83999999999,
      "d": 115.9274270833339,
      "v": 100
    },
    {
      "midi": 80,
      "hit": false,
      "t": 19596.77549999999,
      "d": 115.9274270833339,
      "v": 100
    },
    {
      "midi": 43,
      "hit": false,
      "t": 19596.775500000014,
      "d": 720.7661770833329,
      "v": 100
    },
    {
      "midi": 48,
      "hit": false,
      "t": 19596.775500000014,
      "d": 720.7661770833329,
      "v": 100
    },
    {
      "midi": 36,
      "hit": false,
      "t": 19596.775500000014,
      "d": 720.7661770833329,
      "v": 100
    },
    {
      "midi": 82,
      "hit": false,
      "t": 19717.74324999999,
      "d": 115.9274270833339,
      "v": 100
    },
    {
      "midi": 84,
      "hit": false,
      "t": 19838.71099999999,
      "d": 115.9274270833339,
      "v": 100
    },
    {
      "midi": 72,
      "hit": false,
      "t": 20080.646499999988,
      "d": 115.9274270833339,
      "v": 100
    },
    {
      "midi": 72,
      "hit": false,
      "t": 20322.581999999988,
      "d": 115.9274270833339,
      "v": 100
    },
    {
      "midi": 76,
      "hit": false,
      "t": 20322.581999999988,
      "d": 115.9274270833339,
      "v": 100
    },
    {
      "midi": 36,
      "hit": false,
      "t": 20322.582000000013,
      "d": 720.7661770833329,
      "v": 100
    },
    {
      "midi": 43,
      "hit": false,
      "t": 20322.582000000013,
      "d": 720.7661770833329,
      "v": 100
    },
    {
      "midi": 48,
      "hit": false,
      "t": 20322.582000000013,
      "d": 720.7661770833329,
      "v": 100
    },
    {
      "midi": 77,
      "hit": false,
      "t": 20443.549749999987,
      "d": 115.9274270833339,
      "v": 100
    },
    {
      "midi": 74,
      "hit": false,
      "t": 20443.549749999987,
      "d": 115.9274270833339,
      "v": 100
    },
    {
      "midi": 79,
      "hit": false,
      "t": 20564.517499999987,
      "d": 115.9274270833339,
      "v": 100
    },
    {
      "midi": 76,
      "hit": false,
      "t": 20564.517499999987,
      "d": 115.9274270833339,
      "v": 100
    },
    {
      "midi": 67,
      "hit": false,
      "t": 20806.452999999987,
      "d": 115.9274270833339,
      "v": 100
    },
    {
      "midi": 72,
      "hit": false,
      "t": 20806.452999999987,
      "d": 115.9274270833339,
      "v": 100
    },
    {
      "midi": 74,
      "hit": false,
      "t": 21048.388499999986,
      "d": 115.9274270833339,
      "v": 100
    },
    {
      "midi": 77,
      "hit": false,
      "t": 21048.388499999986,
      "d": 115.9274270833339,
      "v": 100
    },
    {
      "midi": 48,
      "hit": false,
      "t": 21048.388500000012,
      "d": 720.7661770833329,
      "v": 100
    },
    {
      "midi": 43,
      "hit": false,
      "t": 21048.388500000012,
      "d": 720.7661770833329,
      "v": 100
    },
    {
      "midi": 36,
      "hit": false,
      "t": 21048.388500000012,
      "d": 720.7661770833329,
      "v": 100
    },
    {
      "midi": 76,
      "hit": false,
      "t": 21169.356249999986,
      "d": 115.9274270833339,
      "v": 100
    },
    {
      "midi": 79,
      "hit": false,
      "t": 21169.356249999986,
      "d": 115.9274270833339,
      "v": 100
    },
    {
      "midi": 77,
      "hit": false,
      "t": 21290.323999999986,
      "d": 115.9274270833339,
      "v": 100
    },
    {
      "midi": 80,
      "hit": false,
      "t": 21290.323999999986,
      "d": 115.9274270833339,
      "v": 100
    },
    {
      "midi": 67,
      "hit": false,
      "t": 21532.259499999986,
      "d": 115.9274270833339,
      "v": 100
    },
    {
      "midi": 72,
      "hit": false,
      "t": 21532.259499999986,
      "d": 115.9274270833339,
      "v": 100
    },
    {
      "midi": 79,
      "hit": false,
      "t": 21774.194999999985,
      "d": 115.9274270833339,
      "v": 100
    },
    {
      "midi": 76,
      "hit": false,
      "t": 21774.194999999985,
      "d": 115.9274270833339,
      "v": 100
    },
    {
      "midi": 37,
      "hit": false,
      "t": 21774.19500000001,
      "d": 720.7661770833329,
      "v": 100
    },
    {
      "midi": 44,
      "hit": false,
      "t": 21774.19500000001,
      "d": 720.7661770833329,
      "v": 100
    },
    {
      "midi": 49,
      "hit": false,
      "t": 21774.19500000001,
      "d": 720.7661770833329,
      "v": 100
    },
    {
      "midi": 80,
      "hit": false,
      "t": 21895.162749999985,
      "d": 115.9274270833339,
      "v": 100
    },
    {
      "midi": 77,
      "hit": false,
      "t": 21895.162749999985,
      "d": 115.9274270833339,
      "v": 100
    },
    {
      "midi": 82,
      "hit": false,
      "t": 22016.130499999985,
      "d": 115.9274270833339,
      "v": 100
    },
    {
      "midi": 79,
      "hit": false,
      "t": 22016.130499999985,
      "d": 115.9274270833339,
      "v": 100
    },
    {
      "midi": 85,
      "hit": false,
      "t": 22137.098249999985,
      "d": 115.9274270833339,
      "v": 100
    },
    {
      "midi": 82,
      "hit": false,
      "t": 22137.098249999985,
      "d": 115.9274270833339,
      "v": 100
    },
    {
      "midi": 84,
      "hit": false,
      "t": 22258.065999999984,
      "d": 115.9274270833339,
      "v": 100
    },
    {
      "midi": 80,
      "hit": false,
      "t": 22258.065999999984,
      "d": 115.9274270833339,
      "v": 100
    },
    {
      "midi": 82,
      "hit": false,
      "t": 22379.033749999984,
      "d": 115.9274270833339,
      "v": 100
    },
    {
      "midi": 79,
      "hit": false,
      "t": 22379.033749999984,
      "d": 115.9274270833339,
      "v": 100
    },
    {
      "midi": 76,
      "hit": false,
      "t": 22500.001499999984,
      "d": 720.7661770833329,
      "v": 100
    },
    {
      "midi": 84,
      "hit": false,
      "t": 22500.001499999984,
      "d": 720.7661770833329,
      "v": 100
    },
    {
      "midi": 79,
      "hit": false,
      "t": 22500.001499999984,
      "d": 720.7661770833329,
      "v": 100
    },
    {
      "midi": 48,
      "hit": false,
      "t": 22500.00150000001,
      "d": 720.7661770833329,
      "v": 100
    },
    {
      "midi": 36,
      "hit": false,
      "t": 22500.00150000001,
      "d": 720.7661770833329,
      "v": 100
    },
    {
      "midi": 43,
      "hit": false,
      "t": 22500.00150000001,
      "d": 720.7661770833329,
      "v": 100
    },
    {
      "midi": 84,
      "hit": false,
      "t": 23225.807999999983,
      "d": 115.9274270833339,
      "v": 100
    },
    {
      "midi": 80,
      "hit": false,
      "t": 23225.807999999983,
      "d": 115.9274270833339,
      "v": 100
    },
    {
      "midi": 29,
      "hit": false,
      "t": 23225.808000000008,
      "d": 115.9274270833339,
      "v": 100
    },
    {
      "midi": 41,
      "hit": false,
      "t": 23225.808000000008,
      "d": 115.9274270833339,
      "v": 100
    },
    {
      "midi": 79,
      "hit": false,
      "t": 23467.743499999982,
      "d": 115.9274270833339,
      "v": 100
    },
    {
      "midi": 82,
      "hit": false,
      "t": 23467.743499999982,
      "d": 115.9274270833339,
      "v": 100
    },
    {
      "midi": 48,
      "hit": false,
      "t": 23467.743500000008,
      "d": 115.9274270833339,
      "v": 100
    },
    {
      "midi": 36,
      "hit": false,
      "t": 23467.743500000008,
      "d": 115.9274270833339,
      "v": 100
    },
    {
      "midi": 80,
      "hit": false,
      "t": 23588.711249999982,
      "d": 115.9274270833339,
      "v": 100
    },
    {
      "midi": 77,
      "hit": false,
      "t": 23588.711249999982,
      "d": 115.9274270833339,
      "v": 100
    },
    {
      "midi": 79,
      "hit": false,
      "t": 23709.678999999982,
      "d": 115.9274270833339,
      "v": 100
    },
    {
      "midi": 76,
      "hit": false,
      "t": 23709.678999999982,
      "d": 115.9274270833339,
      "v": 100
    },
    {
      "midi": 48,
      "hit": false,
      "t": 23709.679000000007,
      "d": 115.9274270833339,
      "v": 100
    },
    {
      "midi": 36,
      "hit": false,
      "t": 23709.679000000007,
      "d": 115.9274270833339,
      "v": 100
    },
    {
      "midi": 72,
      "hit": false,
      "t": 23951.61449999998,
      "d": 115.9274270833339,
      "v": 100
    },
    {
      "midi": 77,
      "hit": false,
      "t": 23951.61449999998,
      "d": 115.9274270833339,
      "v": 100
    },
    {
      "midi": 41,
      "hit": false,
      "t": 23951.614500000007,
      "d": 115.9274270833339,
      "v": 100
    },
    {
      "midi": 29,
      "hit": false,
      "t": 23951.614500000007,
      "d": 115.9274270833339,
      "v": 100
    },
    {
      "midi": 67,
      "hit": false,
      "t": 24193.54999999998,
      "d": 115.9274270833339,
      "v": 100
    },
    {
      "midi": 72,
      "hit": false,
      "t": 24193.54999999998,
      "d": 115.9274270833339,
      "v": 100
    },
    {
      "midi": 48,
      "hit": false,
      "t": 24193.550000000007,
      "d": 115.9274270833339,
      "v": 100
    },
    {
      "midi": 36,
      "hit": false,
      "t": 24193.550000000007,
      "d": 115.9274270833339,
      "v": 100
    },
    {
      "midi": 65,
      "hit": false,
      "t": 24435.48549999998,
      "d": 115.9274270833339,
      "v": 100
    },
    {
      "midi": 60,
      "hit": false,
      "t": 24435.48549999998,
      "d": 115.9274270833339,
      "v": 100
    },
    {
      "midi": 48,
      "hit": false,
      "t": 24435.485500000006,
      "d": 115.9274270833339,
      "v": 100
    },
    {
      "midi": 36,
      "hit": false,
      "t": 24435.485500000006,
      "d": 115.9274270833339,
      "v": 100
    },
    {
      "midi": 64,
      "hit": false,
      "t": 24677.42099999998,
      "d": 115.9274270833339,
      "v": 100
    },
    {
      "midi": 67,
      "hit": false,
      "t": 24677.42099999998,
      "d": 115.9274270833339,
      "v": 100
    },
    {
      "midi": 41,
      "hit": false,
      "t": 24677.421000000006,
      "d": 115.9274270833339,
      "v": 100
    },
    {
      "midi": 29,
      "hit": false,
      "t": 24677.421000000006,
      "d": 115.9274270833339,
      "v": 100
    },
    {
      "midi": 68,
      "hit": false,
      "t": 24798.38874999998,
      "d": 115.9274270833339,
      "v": 100
    },
    {
      "midi": 65,
      "hit": false,
      "t": 24798.38874999998,
      "d": 115.9274270833339,
      "v": 100
    },
    {
      "midi": 70,
      "hit": false,
      "t": 24919.35649999998,
      "d": 115.9274270833339,
      "v": 100
    },
    {
      "midi": 67,
      "hit": false,
      "t": 24919.35649999998,
      "d": 115.9274270833339,
      "v": 100
    },
    {
      "midi": 48,
      "hit": false,
      "t": 24919.356500000005,
      "d": 115.9274270833339,
      "v": 100
    },
    {
      "midi": 36,
      "hit": false,
      "t": 24919.356500000005,
      "d": 115.9274270833339,
      "v": 100
    },
    {
      "midi": 73,
      "hit": false,
      "t": 25040.32424999998,
      "d": 115.9274270833339,
      "v": 100
    },
    {
      "midi": 70,
      "hit": false,
      "t": 25040.32424999998,
      "d": 115.9274270833339,
      "v": 100
    },
    {
      "midi": 72,
      "hit": false,
      "t": 25161.29199999998,
      "d": 115.9274270833339,
      "v": 100
    },
    {
      "midi": 68,
      "hit": false,
      "t": 25161.29199999998,
      "d": 115.9274270833339,
      "v": 100
    },
    {
      "midi": 48,
      "hit": false,
      "t": 25161.292000000005,
      "d": 115.9274270833339,
      "v": 100
    },
    {
      "midi": 36,
      "hit": false,
      "t": 25161.292000000005,
      "d": 115.9274270833339,
      "v": 100
    },
    {
      "midi": 70,
      "hit": false,
      "t": 25282.25974999998,
      "d": 115.9274270833339,
      "v": 100
    },
    {
      "midi": 67,
      "hit": false,
      "t": 25282.25974999998,
      "d": 115.9274270833339,
      "v": 100
    },
    {
      "midi": 68,
      "hit": false,
      "t": 25403.22749999998,
      "d": 115.9274270833339,
      "v": 100
    },
    {
      "midi": 65,
      "hit": false,
      "t": 25403.22749999998,
      "d": 115.9274270833339,
      "v": 100
    },
    {
      "midi": 41,
      "hit": false,
      "t": 25403.227500000005,
      "d": 115.9274270833339,
      "v": 100
    },
    {
      "midi": 29,
      "hit": false,
      "t": 25403.227500000005,
      "d": 115.9274270833339,
      "v": 100
    },
    {
      "midi": 65,
      "hit": false,
      "t": 25645.16299999998,
      "d": 478.8306770833333,
      "v": 100
    },
    {
      "midi": 60,
      "hit": false,
      "t": 25645.16299999998,
      "d": 478.8306770833333,
      "v": 100
    },
    {
      "midi": 48,
      "hit": false,
      "t": 25645.163000000004,
      "d": 115.9274270833339,
      "v": 100
    },
    {
      "midi": 36,
      "hit": false,
      "t": 25645.163000000004,
      "d": 115.9274270833339,
      "v": 100
    },
    {
      "midi": 36,
      "hit": false,
      "t": 25887.098500000004,
      "d": 115.9274270833339,
      "v": 100
    },
    {
      "midi": 48,
      "hit": false,
      "t": 25887.098500000004,
      "d": 115.9274270833339,
      "v": 100
    },
    {
      "midi": 77,
      "hit": false,
      "t": 26129.033999999978,
      "d": 115.9274270833339,
      "v": 100
    },
    {
      "midi": 84,
      "hit": false,
      "t": 26129.033999999978,
      "d": 115.9274270833339,
      "v": 100
    },
    {
      "midi": 80,
      "hit": false,
      "t": 26129.033999999978,
      "d": 115.9274270833339,
      "v": 100
    },
    {
      "midi": 29,
      "hit": false,
      "t": 26129.034000000003,
      "d": 115.9274270833339,
      "v": 100
    },
    {
      "midi": 41,
      "hit": false,
      "t": 26129.034000000003,
      "d": 115.9274270833339,
      "v": 100
    },
    {
      "midi": 79,
      "hit": false,
      "t": 26370.969499999977,
      "d": 115.9274270833339,
      "v": 100
    },
    {
      "midi": 82,
      "hit": false,
      "t": 26370.969499999977,
      "d": 115.9274270833339,
      "v": 100
    },
    {
      "midi": 36,
      "hit": false,
      "t": 26370.969500000003,
      "d": 115.9274270833339,
      "v": 100
    },
    {
      "midi": 48,
      "hit": false,
      "t": 26370.969500000003,
      "d": 115.9274270833339,
      "v": 100
    },
    {
      "midi": 80,
      "hit": false,
      "t": 26491.937249999977,
      "d": 115.9274270833339,
      "v": 100
    },
    {
      "midi": 77,
      "hit": false,
      "t": 26491.937249999977,
      "d": 115.9274270833339,
      "v": 100
    },
    {
      "midi": 79,
      "hit": false,
      "t": 26612.904999999977,
      "d": 115.9274270833339,
      "v": 100
    },
    {
      "midi": 76,
      "hit": false,
      "t": 26612.904999999977,
      "d": 115.9274270833339,
      "v": 100
    },
    {
      "midi": 36,
      "hit": false,
      "t": 26612.905000000002,
      "d": 115.9274270833339,
      "v": 100
    },
    {
      "midi": 48,
      "hit": false,
      "t": 26612.905000000002,
      "d": 115.9274270833339,
      "v": 100
    },
    {
      "midi": 72,
      "hit": false,
      "t": 26854.840499999977,
      "d": 115.9274270833339,
      "v": 100
    },
    {
      "midi": 77,
      "hit": false,
      "t": 26854.840499999977,
      "d": 115.9274270833339,
      "v": 100
    },
    {
      "midi": 29,
      "hit": false,
      "t": 26854.840500000002,
      "d": 115.9274270833339,
      "v": 100
    },
    {
      "midi": 41,
      "hit": false,
      "t": 26854.840500000002,
      "d": 115.9274270833339,
      "v": 100
    },
    {
      "midi": 72,
      "hit": false,
      "t": 27096.775999999976,
      "d": 115.9274270833339,
      "v": 100
    },
    {
      "midi": 67,
      "hit": false,
      "t": 27096.775999999976,
      "d": 115.9274270833339,
      "v": 100
    },
    {
      "midi": 48,
      "hit": false,
      "t": 27096.776,
      "d": 115.9274270833339,
      "v": 100
    },
    {
      "midi": 36,
      "hit": false,
      "t": 27096.776,
      "d": 115.9274270833339,
      "v": 100
    },
    {
      "midi": 60,
      "hit": false,
      "t": 27338.711499999976,
      "d": 115.9274270833339,
      "v": 100
    },
    {
      "midi": 65,
      "hit": false,
      "t": 27338.711499999976,
      "d": 115.9274270833339,
      "v": 100
    },
    {
      "midi": 36,
      "hit": false,
      "t": 27338.7115,
      "d": 115.9274270833339,
      "v": 100
    },
    {
      "midi": 48,
      "hit": false,
      "t": 27338.7115,
      "d": 115.9274270833339,
      "v": 100
    },
    {
      "midi": 67,
      "hit": false,
      "t": 27580.646999999975,
      "d": 115.9274270833339,
      "v": 100
    },
    {
      "midi": 64,
      "hit": false,
      "t": 27580.646999999975,
      "d": 115.9274270833339,
      "v": 100
    },
    {
      "midi": 29,
      "hit": false,
      "t": 27580.647,
      "d": 115.9274270833339,
      "v": 100
    },
    {
      "midi": 41,
      "hit": false,
      "t": 27580.647,
      "d": 115.9274270833339,
      "v": 100
    },
    {
      "midi": 65,
      "hit": false,
      "t": 27701.614749999975,
      "d": 115.9274270833339,
      "v": 100
    },
    {
      "midi": 68,
      "hit": false,
      "t": 27701.614749999975,
      "d": 115.9274270833339,
      "v": 100
    },
    {
      "midi": 70,
      "hit": false,
      "t": 27822.582499999975,
      "d": 115.9274270833339,
      "v": 100
    },
    {
      "midi": 67,
      "hit": false,
      "t": 27822.582499999975,
      "d": 115.9274270833339,
      "v": 100
    },
    {
      "midi": 36,
      "hit": false,
      "t": 27822.5825,
      "d": 115.9274270833339,
      "v": 100
    },
    {
      "midi": 48,
      "hit": false,
      "t": 27822.5825,
      "d": 115.9274270833339,
      "v": 100
    },
    {
      "midi": 73,
      "hit": false,
      "t": 27943.550249999975,
      "d": 115.9274270833339,
      "v": 100
    },
    {
      "midi": 70,
      "hit": false,
      "t": 27943.550249999975,
      "d": 115.9274270833339,
      "v": 100
    },
    {
      "midi": 68,
      "hit": false,
      "t": 28064.517999999975,
      "d": 115.9274270833339,
      "v": 100
    },
    {
      "midi": 72,
      "hit": false,
      "t": 28064.517999999975,
      "d": 115.9274270833339,
      "v": 100
    },
    {
      "midi": 48,
      "hit": false,
      "t": 28064.518,
      "d": 115.9274270833339,
      "v": 100
    },
    {
      "midi": 36,
      "hit": false,
      "t": 28064.518,
      "d": 115.9274270833339,
      "v": 100
    },
    {
      "midi": 67,
      "hit": false,
      "t": 28185.485749999974,
      "d": 115.9274270833339,
      "v": 100
    },
    {
      "midi": 70,
      "hit": false,
      "t": 28185.485749999974,
      "d": 115.9274270833339,
      "v": 100
    },
    {
      "midi": 65,
      "hit": false,
      "t": 28306.453499999974,
      "d": 115.9274270833339,
      "v": 100
    },
    {
      "midi": 68,
      "hit": false,
      "t": 28306.453499999974,
      "d": 115.9274270833339,
      "v": 100
    },
    {
      "midi": 29,
      "hit": false,
      "t": 28306.4535,
      "d": 115.9274270833339,
      "v": 100
    },
    {
      "midi": 41,
      "hit": false,
      "t": 28306.4535,
      "d": 115.9274270833339,
      "v": 100
    },
    {
      "midi": 60,
      "hit": false,
      "t": 28548.388999999974,
      "d": 478.8306770833333,
      "v": 100
    },
    {
      "midi": 65,
      "hit": false,
      "t": 28548.388999999974,
      "d": 478.8306770833333,
      "v": 100
    },
    {
      "midi": 36,
      "hit": false,
      "t": 28548.389,
      "d": 115.9274270833339,
      "v": 100
    },
    {
      "midi": 48,
      "hit": false,
      "t": 28548.389,
      "d": 115.9274270833339,
      "v": 100
    },
    {
      "midi": 36,
      "hit": false,
      "t": 28790.3245,
      "d": 115.9274270833339,
      "v": 100
    },
    {
      "midi": 48,
      "hit": false,
      "t": 28790.3245,
      "d": 115.9274270833339,
      "v": 100
    },
    {
      "midi": 68,
      "hit": false,
      "t": 29032.259999999973,
      "d": 236.8951770833337,
      "v": 100
    },
    {
      "midi": 72,
      "hit": false,
      "t": 29032.259999999973,
      "d": 236.8951770833337,
      "v": 100
    },
    {
      "midi": 56,
      "hit": false,
      "t": 29032.26,
      "d": 720.7661770833329,
      "v": 100
    },
    {
      "midi": 53,
      "hit": false,
      "t": 29032.26,
      "d": 720.7661770833329,
      "v": 100
    },
    {
      "midi": 48,
      "hit": false,
      "t": 29032.26,
      "d": 720.7661770833329,
      "v": 100
    },
    {
      "midi": 72,
      "hit": false,
      "t": 29274.195499999973,
      "d": 115.9274270833339,
      "v": 100
    },
    {
      "midi": 68,
      "hit": false,
      "t": 29274.195499999973,
      "d": 115.9274270833339,
      "v": 100
    },
    {
      "midi": 70,
      "hit": false,
      "t": 29395.163249999972,
      "d": 115.9274270833339,
      "v": 100
    },
    {
      "midi": 73,
      "hit": false,
      "t": 29395.163249999972,
      "d": 115.9274270833339,
      "v": 100
    },
    {
      "midi": 72,
      "hit": false,
      "t": 29516.130999999972,
      "d": 236.8951770833337,
      "v": 100
    },
    {
      "midi": 68,
      "hit": false,
      "t": 29516.130999999972,
      "d": 236.8951770833337,
      "v": 100
    },
    {
      "midi": 67,
      "hit": false,
      "t": 29758.06649999997,
      "d": 236.8951770833337,
      "v": 100
    },
    {
      "midi": 70,
      "hit": false,
      "t": 29758.06649999997,
      "d": 236.8951770833337,
      "v": 100
    },
    {
      "midi": 48,
      "hit": false,
      "t": 29758.066499999997,
      "d": 720.7661770833329,
      "v": 100
    },
    {
      "midi": 52,
      "hit": false,
      "t": 29758.066499999997,
      "d": 720.7661770833329,
      "v": 100
    },
    {
      "midi": 55,
      "hit": false,
      "t": 29758.066499999997,
      "d": 720.7661770833329,
      "v": 100
    },
    {
      "midi": 67,
      "hit": false,
      "t": 30000.00199999997,
      "d": 115.9274270833339,
      "v": 100
    },
    {
      "midi": 70,
      "hit": false,
      "t": 30000.00199999997,
      "d": 115.9274270833339,
      "v": 100
    },
    {
      "midi": 72,
      "hit": false,
      "t": 30120.96974999997,
      "d": 115.9274270833339,
      "v": 100
    },
    {
      "midi": 68,
      "hit": false,
      "t": 30120.96974999997,
      "d": 115.9274270833339,
      "v": 100
    },
    {
      "midi": 67,
      "hit": false,
      "t": 30241.93749999997,
      "d": 236.8951770833337,
      "v": 100
    },
    {
      "midi": 70,
      "hit": false,
      "t": 30241.93749999997,
      "d": 236.8951770833337,
      "v": 100
    },
    {
      "midi": 65,
      "hit": false,
      "t": 30483.87299999997,
      "d": 236.8951770833337,
      "v": 100
    },
    {
      "midi": 68,
      "hit": false,
      "t": 30483.87299999997,
      "d": 236.8951770833337,
      "v": 100
    },
    {
      "midi": 44,
      "hit": false,
      "t": 30483.872999999996,
      "d": 720.7661770833329,
      "v": 100
    },
    {
      "midi": 49,
      "hit": false,
      "t": 30483.872999999996,
      "d": 720.7661770833329,
      "v": 100
    },
    {
      "midi": 53,
      "hit": false,
      "t": 30483.872999999996,
      "d": 720.7661770833329,
      "v": 100
    },
    {
      "midi": 68,
      "hit": false,
      "t": 30725.80849999997,
      "d": 115.9274270833339,
      "v": 100
    },
    {
      "midi": 65,
      "hit": false,
      "t": 30725.80849999997,
      "d": 115.9274270833339,
      "v": 100
    },
    {
      "midi": 70,
      "hit": false,
      "t": 30846.77624999997,
      "d": 115.9274270833339,
      "v": 100
    },
    {
      "midi": 67,
      "hit": false,
      "t": 30846.77624999997,
      "d": 115.9274270833339,
      "v": 100
    },
    {
      "midi": 68,
      "hit": false,
      "t": 30967.74399999997,
      "d": 236.8951770833337,
      "v": 100
    },
    {
      "midi": 65,
      "hit": false,
      "t": 30967.74399999997,
      "d": 236.8951770833337,
      "v": 100
    },
    {
      "midi": 64,
      "hit": false,
      "t": 31209.67949999997,
      "d": 115.9274270833339,
      "v": 100
    },
    {
      "midi": 67,
      "hit": false,
      "t": 31209.67949999997,
      "d": 115.9274270833339,
      "v": 100
    },
    {
      "midi": 41,
      "hit": false,
      "t": 31209.679499999995,
      "d": 720.7661770833329,
      "v": 100
    },
    {
      "midi": 46,
      "hit": false,
      "t": 31209.679499999995,
      "d": 720.7661770833329,
      "v": 100
    },
    {
      "midi": 49,
      "hit": false,
      "t": 31209.679499999995,
      "d": 720.7661770833329,
      "v": 100
    },
    {
      "midi": 65,
      "hit": false,
      "t": 31330.64724999997,
      "d": 599.7984270833331,
      "v": 100
    },
    {
      "midi": 61,
      "hit": false,
      "t": 31330.64724999997,
      "d": 599.7984270833331,
      "v": 100
    },
    {
      "midi": 72,
      "hit": false,
      "t": 31451.61499999997,
      "d": 478.8306770833333,
      "v": 100
    },
    {
      "midi": 77,
      "hit": false,
      "t": 31451.61499999997,
      "d": 478.8306770833333,
      "v": 100
    },
    {
      "midi": 72,
      "hit": false,
      "t": 31935.485999999968,
      "d": 236.8951770833337,
      "v": 100
    },
    {
      "midi": 68,
      "hit": false,
      "t": 31935.485999999968,
      "d": 236.8951770833337,
      "v": 100
    },
    {
      "midi": 56,
      "hit": false,
      "t": 31935.485999999994,
      "d": 720.7661770833329,
      "v": 100
    },
    {
      "midi": 53,
      "hit": false,
      "t": 31935.485999999994,
      "d": 720.7661770833329,
      "v": 100
    },
    {
      "midi": 48,
      "hit": false,
      "t": 31935.485999999994,
      "d": 720.7661770833329,
      "v": 100
    },
    {
      "midi": 72,
      "hit": false,
      "t": 32177.421499999968,
      "d": 115.9274270833339,
      "v": 100
    },
    {
      "midi": 68,
      "hit": false,
      "t": 32177.421499999968,
      "d": 115.9274270833339,
      "v": 100
    },
    {
      "midi": 70,
      "hit": false,
      "t": 32298.389249999967,
      "d": 115.9274270833339,
      "v": 100
    },
    {
      "midi": 73,
      "hit": false,
      "t": 32298.389249999967,
      "d": 115.9274270833339,
      "v": 100
    },
    {
      "midi": 68,
      "hit": false,
      "t": 32419.356999999967,
      "d": 236.8951770833337,
      "v": 100
    },
    {
      "midi": 72,
      "hit": false,
      "t": 32419.356999999967,
      "d": 236.8951770833337,
      "v": 100
    },
    {
      "midi": 70,
      "hit": false,
      "t": 32661.292499999967,
      "d": 236.89517708333005,
      "v": 100
    },
    {
      "midi": 67,
      "hit": false,
      "t": 32661.292499999967,
      "d": 236.89517708333005,
      "v": 100
    },
    {
      "midi": 55,
      "hit": false,
      "t": 32661.292499999992,
      "d": 720.7661770833329,
      "v": 100
    },
    {
      "midi": 52,
      "hit": false,
      "t": 32661.292499999992,
      "d": 720.7661770833329,
      "v": 100
    },
    {
      "midi": 48,
      "hit": false,
      "t": 32661.292499999992,
      "d": 720.7661770833329,
      "v": 100
    },
    {
      "midi": 67,
      "hit": false,
      "t": 32903.22799999997,
      "d": 115.9274270833339,
      "v": 100
    },
    {
      "midi": 70,
      "hit": false,
      "t": 32903.22799999997,
      "d": 115.9274270833339,
      "v": 100
    },
    {
      "midi": 68,
      "hit": false,
      "t": 33024.19574999997,
      "d": 115.9274270833339,
      "v": 100
    },
    {
      "midi": 72,
      "hit": false,
      "t": 33024.19574999997,
      "d": 115.9274270833339,
      "v": 100
    },
    {
      "midi": 70,
      "hit": false,
      "t": 33145.16349999997,
      "d": 236.89517708333005,
      "v": 100
    },
    {
      "midi": 67,
      "hit": false,
      "t": 33145.16349999997,
      "d": 236.89517708333005,
      "v": 100
    },
    {
      "midi": 65,
      "hit": false,
      "t": 33387.09899999997,
      "d": 236.89517708333005,
      "v": 100
    },
    {
      "midi": 68,
      "hit": false,
      "t": 33387.09899999997,
      "d": 236.89517708333005,
      "v": 100
    },
    {
      "midi": 44,
      "hit": false,
      "t": 33387.098999999995,
      "d": 720.7661770833365,
      "v": 100
    },
    {
      "midi": 49,
      "hit": false,
      "t": 33387.098999999995,
      "d": 720.7661770833365,
      "v": 100
    },
    {
      "midi": 53,
      "hit": false,
      "t": 33387.098999999995,
      "d": 720.7661770833365,
      "v": 100
    },
    {
      "midi": 65,
      "hit": false,
      "t": 33629.03449999997,
      "d": 115.9274270833339,
      "v": 100
    },
    {
      "midi": 68,
      "hit": false,
      "t": 33629.03449999997,
      "d": 115.9274270833339,
      "v": 100
    },
    {
      "midi": 67,
      "hit": false,
      "t": 33750.002249999976,
      "d": 115.9274270833339,
      "v": 100
    },
    {
      "midi": 70,
      "hit": false,
      "t": 33750.002249999976,
      "d": 115.9274270833339,
      "v": 100
    },
    {
      "midi": 65,
      "hit": false,
      "t": 33870.96999999998,
      "d": 236.89517708333005,
      "v": 100
    },
    {
      "midi": 68,
      "hit": false,
      "t": 33870.96999999998,
      "d": 236.89517708333005,
      "v": 100
    },
    {
      "midi": 64,
      "hit": false,
      "t": 34112.90549999998,
      "d": 115.9274270833339,
      "v": 100
    },
    {
      "midi": 67,
      "hit": false,
      "t": 34112.90549999998,
      "d": 115.9274270833339,
      "v": 100
    },
    {
      "midi": 41,
      "hit": false,
      "t": 34112.9055,
      "d": 720.7661770833365,
      "v": 100
    },
    {
      "midi": 46,
      "hit": false,
      "t": 34112.9055,
      "d": 720.7661770833365,
      "v": 100
    },
    {
      "midi": 49,
      "hit": false,
      "t": 34112.9055,
      "d": 720.7661770833365,
      "v": 100
    },
    {
      "midi": 65,
      "hit": false,
      "t": 34233.87324999998,
      "d": 599.7984270833404,
      "v": 100
    },
    {
      "midi": 61,
      "hit": false,
      "t": 34233.87324999998,
      "d": 599.7984270833404,
      "v": 100
    },
    {
      "midi": 72,
      "hit": false,
      "t": 34354.840999999986,
      "d": 478.8306770833369,
      "v": 100
    },
    {
      "midi": 77,
      "hit": false,
      "t": 34354.840999999986,
      "d": 478.8306770833369,
      "v": 100
    },
    {
      "midi": 72,
      "hit": false,
      "t": 34838.71199999999,
      "d": 236.89517708333005,
      "v": 102
    },
    {
      "midi": 67,
      "hit": false,
      "t": 34838.71199999999,
      "d": 236.89517708333005,
      "v": 102
    },
    {
      "midi": 48,
      "hit": false,
      "t": 34838.71200000001,
      "d": 236.89517708333005,
      "v": 102
    },
    {
      "midi": 36,
      "hit": false,
      "t": 34838.71200000001,
      "d": 236.89517708333005,
      "v": 102
    },
    {
      "midi": 68,
      "hit": false,
      "t": 35201.61524999999,
      "d": 115.9274270833339,
      "v": 102
    },
    {
      "midi": 73,
      "hit": false,
      "t": 35201.61524999999,
      "d": 115.9274270833339,
      "v": 101
    },
    {
      "midi": 37,
      "hit": false,
      "t": 35201.61525,
      "d": 115.9274270833339,
      "v": 101
    },
    {
      "midi": 49,
      "hit": false,
      "t": 35201.61525,
      "d": 115.9274270833339,
      "v": 101
    },
    {
      "midi": 72,
      "hit": false,
      "t": 35322.58299999999,
      "d": 115.9274270833339,
      "v": 101
    },
    {
      "midi": 67,
      "hit": false,
      "t": 35322.58299999999,
      "d": 236.89517708333733,
      "v": 102
    },
    {
      "midi": 48,
      "hit": false,
      "t": 35322.583000000006,
      "d": 236.89517708333005,
      "v": 101
    },
    {
      "midi": 36,
      "hit": false,
      "t": 35322.583000000006,
      "d": 236.89517708333005,
      "v": 101
    },
    {
      "midi": 36,
      "hit": false,
      "t": 35564.518500000006,
      "d": 236.89517708333005,
      "v": 101
    },
    {
      "midi": 72,
      "hit": false,
      "t": 35806.454,
      "d": 115.9274270833339,
      "v": 101
    },
    {
      "midi": 67,
      "hit": false,
      "t": 35806.454,
      "d": 115.9274270833339,
      "v": 102
    },
    {
      "midi": 36,
      "hit": false,
      "t": 35806.454000000005,
      "d": 115.9274270833339,
      "v": 101
    },
    {
      "midi": 48,
      "hit": false,
      "t": 35806.454000000005,
      "d": 115.9274270833339,
      "v": 101
    },
    {
      "midi": 67,
      "hit": false,
      "t": 36048.3895,
      "d": 115.9274270833339,
      "v": 102
    },
    {
      "midi": 72,
      "hit": false,
      "t": 36048.3895,
      "d": 115.9274270833339,
      "v": 101
    },
    {
      "midi": 48,
      "hit": false,
      "t": 36048.389500000005,
      "d": 115.9274270833339,
      "v": 101
    },
    {
      "midi": 36,
      "hit": false,
      "t": 36048.389500000005,
      "d": 115.9274270833339,
      "v": 101
    },
    {
      "midi": 67,
      "hit": false,
      "t": 36290.325,
      "d": 236.89517708333005,
      "v": 102
    },
    {
      "midi": 72,
      "hit": false,
      "t": 36290.325,
      "d": 236.89517708333005,
      "v": 101
    },
    {
      "midi": 48,
      "hit": false,
      "t": 36290.325000000004,
      "d": 236.89517708333005,
      "v": 101
    },
    {
      "midi": 36,
      "hit": false,
      "t": 36290.325000000004,
      "d": 236.89517708333005,
      "v": 101
    },
    {
      "midi": 68,
      "hit": false,
      "t": 36653.22824999999,
      "d": 115.9274270833339,
      "v": 102
    },
    {
      "midi": 73,
      "hit": false,
      "t": 36653.22824999999,
      "d": 115.9274270833339,
      "v": 101
    },
    {
      "midi": 37,
      "hit": false,
      "t": 36653.22825,
      "d": 115.9274270833339,
      "v": 100
    },
    {
      "midi": 49,
      "hit": false,
      "t": 36653.22825,
      "d": 115.9274270833339,
      "v": 100
    },
    {
      "midi": 72,
      "hit": false,
      "t": 36774.195999999996,
      "d": 236.89517708333005,
      "v": 101
    },
    {
      "midi": 67,
      "hit": false,
      "t": 36774.195999999996,
      "d": 236.89517708333005,
      "v": 102
    },
    {
      "midi": 48,
      "hit": false,
      "t": 36774.196,
      "d": 236.89517708333005,
      "v": 99
    },
    {
      "midi": 36,
      "hit": false,
      "t": 36774.196,
      "d": 236.89517708333005,
      "v": 99
    },
    {
      "midi": 36,
      "hit": false,
      "t": 37016.1315,
      "d": 236.89517708333005,
      "v": 99
    },
    {
      "midi": 72,
      "hit": false,
      "t": 37258.066999999995,
      "d": 115.9274270833339,
      "v": 99
    },
    {
      "midi": 68,
      "hit": false,
      "t": 37258.066999999995,
      "d": 115.9274270833339,
      "v": 102
    },
    {
      "midi": 36,
      "hit": false,
      "t": 37258.067,
      "d": 115.9274270833339,
      "v": 99
    },
    {
      "midi": 48,
      "hit": false,
      "t": 37258.067,
      "d": 115.9274270833339,
      "v": 99
    },
    {
      "midi": 73,
      "hit": false,
      "t": 37379.03475,
      "d": 115.9274270833339,
      "v": 99
    },
    {
      "midi": 70,
      "hit": false,
      "t": 37379.03475,
      "d": 115.9274270833339,
      "v": 102
    },
    {
      "midi": 37,
      "hit": false,
      "t": 37379.034750000006,
      "d": 115.9274270833339,
      "v": 99
    },
    {
      "midi": 49,
      "hit": false,
      "t": 37379.034750000006,
      "d": 115.9274270833339,
      "v": 99
    },
    {
      "midi": 75,
      "hit": false,
      "t": 37500.0025,
      "d": 115.9274270833339,
      "v": 99
    },
    {
      "midi": 72,
      "hit": false,
      "t": 37500.0025,
      "d": 115.9274270833339,
      "v": 102
    },
    {
      "midi": 51,
      "hit": false,
      "t": 37500.00250000001,
      "d": 115.9274270833339,
      "v": 99
    },
    {
      "midi": 39,
      "hit": false,
      "t": 37500.00250000001,
      "d": 115.9274270833339,
      "v": 99
    },
    {
      "midi": 76,
      "hit": false,
      "t": 37620.970250000006,
      "d": 115.9274270833339,
      "v": 99
    },
    {
      "midi": 73,
      "hit": false,
      "t": 37620.970250000006,
      "d": 115.9274270833339,
      "v": 102
    },
    {
      "midi": 40,
      "hit": false,
      "t": 37620.97025000001,
      "d": 115.9274270833339,
      "v": 99
    },
    {
      "midi": 52,
      "hit": false,
      "t": 37620.97025000001,
      "d": 115.9274270833339,
      "v": 99
    },
    {
      "midi": 77,
      "hit": false,
      "t": 37741.93800000001,
      "d": 357.8629270833335,
      "v": 100
    },
    {
      "midi": 53,
      "hit": false,
      "t": 37741.93800000002,
      "d": 1446.5726770833353,
      "v": 99
    },
    {
      "midi": 48,
      "hit": false,
      "t": 37741.93800000002,
      "d": 1446.5726770833353,
      "v": 100
    },
    {
      "midi": 44,
      "hit": false,
      "t": 37741.93800000002,
      "d": 1446.5726770833353,
      "v": 100
    },
    {
      "midi": 76,
      "hit": false,
      "t": 38104.84125000001,
      "d": 115.9274270833339,
      "v": 100
    },
    {
      "midi": 77,
      "hit": false,
      "t": 38225.809000000016,
      "d": 236.89517708333005,
      "v": 100
    },
    {
      "midi": 80,
      "hit": false,
      "t": 38467.744500000015,
      "d": 357.8629270833335,
      "v": 100
    },
    {
      "midi": 79,
      "hit": false,
      "t": 38830.64775000002,
      "d": 115.9274270833339,
      "v": 100
    },
    {
      "midi": 80,
      "hit": false,
      "t": 38951.61550000002,
      "d": 236.89517708333005,
      "v": 100
    },
    {
      "midi": 82,
      "hit": false,
      "t": 39193.55100000002,
      "d": 236.89517708333005,
      "v": 100
    },
    {
      "midi": 55,
      "hit": false,
      "t": 39193.55100000002,
      "d": 1446.5726770833353,
      "v": 100
    },
    {
      "midi": 49,
      "hit": false,
      "t": 39193.55100000002,
      "d": 1446.5726770833353,
      "v": 100
    },
    {
      "midi": 46,
      "hit": false,
      "t": 39193.55100000002,
      "d": 1446.5726770833353,
      "v": 100
    },
    {
      "midi": 82,
      "hit": false,
      "t": 39435.48650000002,
      "d": 115.9274270833339,
      "v": 100
    },
    {
      "midi": 80,
      "hit": false,
      "t": 39556.454250000024,
      "d": 115.9274270833339,
      "v": 100
    },
    {
      "midi": 79,
      "hit": false,
      "t": 39677.42200000003,
      "d": 115.9274270833339,
      "v": 100
    },
    {
      "midi": 77,
      "hit": false,
      "t": 39798.38975000003,
      "d": 115.9274270833339,
      "v": 100
    },
    {
      "midi": 82,
      "hit": false,
      "t": 39919.357500000035,
      "d": 236.89517708333005,
      "v": 100
    },
    {
      "midi": 82,
      "hit": false,
      "t": 40161.293000000034,
      "d": 115.9274270833339,
      "v": 100
    },
    {
      "midi": 80,
      "hit": false,
      "t": 40282.26075000004,
      "d": 115.9274270833339,
      "v": 100
    },
    {
      "midi": 79,
      "hit": false,
      "t": 40403.22850000004,
      "d": 115.9274270833339,
      "v": 100
    },
    {
      "midi": 77,
      "hit": false,
      "t": 40524.196250000045,
      "d": 115.9274270833339,
      "v": 100
    },
    {
      "midi": 53,
      "hit": false,
      "t": 40645.164000000026,
      "d": 1446.5726770833353,
      "v": 100
    },
    {
      "midi": 44,
      "hit": false,
      "t": 40645.164000000026,
      "d": 1446.5726770833353,
      "v": 100
    },
    {
      "midi": 48,
      "hit": false,
      "t": 40645.164000000026,
      "d": 1446.5726770833353,
      "v": 100
    },
    {
      "midi": 77,
      "hit": false,
      "t": 40645.16400000005,
      "d": 357.8629270833335,
      "v": 100
    },
    {
      "midi": 76,
      "hit": false,
      "t": 41008.06725000005,
      "d": 115.9274270833339,
      "v": 100
    },
    {
      "midi": 77,
      "hit": false,
      "t": 41129.035000000054,
      "d": 236.89517708333005,
      "v": 100
    },
    {
      "midi": 80,
      "hit": false,
      "t": 41370.970500000054,
      "d": 357.8629270833335,
      "v": 100
    },
    {
      "midi": 79,
      "hit": false,
      "t": 41733.87375000006,
      "d": 115.9274270833339,
      "v": 100
    },
    {
      "midi": 80,
      "hit": false,
      "t": 41854.84150000006,
      "d": 236.89517708333005,
      "v": 100
    },
    {
      "midi": 46,
      "hit": false,
      "t": 42096.77700000003,
      "d": 1446.5726770833353,
      "v": 100
    },
    {
      "midi": 49,
      "hit": false,
      "t": 42096.77700000003,
      "d": 1446.5726770833353,
      "v": 100
    },
    {
      "midi": 55,
      "hit": false,
      "t": 42096.77700000003,
      "d": 1446.5726770833353,
      "v": 100
    },
    {
      "midi": 82,
      "hit": false,
      "t": 42096.77700000006,
      "d": 236.89517708333005,
      "v": 100
    },
    {
      "midi": 82,
      "hit": false,
      "t": 42338.71250000006,
      "d": 115.9274270833339,
      "v": 100
    },
    {
      "midi": 80,
      "hit": false,
      "t": 42459.68025000006,
      "d": 115.9274270833339,
      "v": 100
    },
    {
      "midi": 79,
      "hit": false,
      "t": 42580.64800000007,
      "d": 115.9274270833339,
      "v": 100
    },
    {
      "midi": 77,
      "hit": false,
      "t": 42701.61575000007,
      "d": 115.9274270833339,
      "v": 100
    },
    {
      "midi": 82,
      "hit": false,
      "t": 42822.58350000007,
      "d": 115.9274270833339,
      "v": 100
    },
    {
      "midi": 84,
      "hit": false,
      "t": 42943.55125000008,
      "d": 115.9274270833339,
      "v": 100
    },
    {
      "midi": 82,
      "hit": false,
      "t": 43064.51900000008,
      "d": 115.9274270833339,
      "v": 100
    },
    {
      "midi": 80,
      "hit": false,
      "t": 43185.486750000084,
      "d": 115.9274270833339,
      "v": 100
    },
    {
      "midi": 79,
      "hit": false,
      "t": 43306.45450000009,
      "d": 115.9274270833339,
      "v": 100
    },
    {
      "midi": 77,
      "hit": false,
      "t": 43427.42225000009,
      "d": 115.9274270833339,
      "v": 100
    },
    {
      "midi": 44,
      "hit": false,
      "t": 43548.390000000036,
      "d": 1446.5726770833353,
      "v": 100
    },
    {
      "midi": 48,
      "hit": false,
      "t": 43548.390000000036,
      "d": 1446.5726770833353,
      "v": 100
    },
    {
      "midi": 56,
      "hit": false,
      "t": 43548.390000000036,
      "d": 1446.5726770833353,
      "v": 100
    },
    {
      "midi": 65,
      "hit": false,
      "t": 43548.390000000094,
      "d": 236.89517708333005,
      "v": 100
    },
    {
      "midi": 77,
      "hit": false,
      "t": 43548.390000000094,
      "d": 236.89517708333005,
      "v": 100
    },
    {
      "midi": 64,
      "hit": false,
      "t": 43911.29325000009,
      "d": 115.9274270833339,
      "v": 100
    },
    {
      "midi": 76,
      "hit": false,
      "t": 43911.29325000009,
      "d": 115.9274270833339,
      "v": 100
    },
    {
      "midi": 77,
      "hit": false,
      "t": 44032.26100000009,
      "d": 236.89517708333005,
      "v": 100
    },
    {
      "midi": 65,
      "hit": false,
      "t": 44032.26100000009,
      "d": 236.89517708333005,
      "v": 100
    },
    {
      "midi": 80,
      "hit": false,
      "t": 44274.19650000009,
      "d": 236.89517708333005,
      "v": 100
    },
    {
      "midi": 68,
      "hit": false,
      "t": 44274.19650000009,
      "d": 236.89517708333005,
      "v": 100
    },
    {
      "midi": 67,
      "hit": false,
      "t": 44637.09975000009,
      "d": 115.9274270833339,
      "v": 100
    },
    {
      "midi": 79,
      "hit": false,
      "t": 44637.09975000009,
      "d": 115.9274270833339,
      "v": 100
    },
    {
      "midi": 80,
      "hit": false,
      "t": 44758.06750000009,
      "d": 236.89517708333005,
      "v": 100
    },
    {
      "midi": 68,
      "hit": false,
      "t": 44758.06750000009,
      "d": 236.89517708333005,
      "v": 100
    },
    {
      "midi": 58,
      "hit": false,
      "t": 45000.00300000004,
      "d": 1446.5726770833353,
      "v": 100
    },
    {
      "midi": 49,
      "hit": false,
      "t": 45000.00300000004,
      "d": 1446.5726770833353,
      "v": 100
    },
    {
      "midi": 46,
      "hit": false,
      "t": 45000.00300000004,
      "d": 1446.5726770833353,
      "v": 100
    },
    {
      "midi": 82,
      "hit": false,
      "t": 45000.00300000009,
      "d": 236.89517708333005,
      "v": 100
    },
    {
      "midi": 70,
      "hit": false,
      "t": 45000.00300000009,
      "d": 236.89517708333005,
      "v": 100
    },
    {
      "midi": 68,
      "hit": false,
      "t": 45362.90625000009,
      "d": 115.9274270833339,
      "v": 100
    },
    {
      "midi": 80,
      "hit": false,
      "t": 45362.90625000009,
      "d": 115.9274270833339,
      "v": 100
    },
    {
      "midi": 82,
      "hit": false,
      "t": 45483.87400000009,
      "d": 236.89517708333005,
      "v": 100
    },
    {
      "midi": 70,
      "hit": false,
      "t": 45483.87400000009,
      "d": 236.89517708333005,
      "v": 100
    },
    {
      "midi": 82,
      "hit": false,
      "t": 45725.80950000009,
      "d": 236.89517708333005,
      "v": 100
    },
    {
      "midi": 70,
      "hit": false,
      "t": 45725.80950000009,
      "d": 236.89517708333005,
      "v": 100
    },
    {
      "midi": 72,
      "hit": false,
      "t": 45967.74500000009,
      "d": 236.89517708333005,
      "v": 100
    },
    {
      "midi": 84,
      "hit": false,
      "t": 45967.74500000009,
      "d": 236.89517708333005,
      "v": 100
    },
    {
      "midi": 73,
      "hit": false,
      "t": 46209.68050000009,
      "d": 236.89517708333005,
      "v": 100
    },
    {
      "midi": 85,
      "hit": false,
      "t": 46209.68050000009,
      "d": 236.89517708333005,
      "v": 100
    },
    {
      "midi": 60,
      "hit": false,
      "t": 46451.616000000045,
      "d": 236.89517708333005,
      "v": 100
    },
    {
      "midi": 67,
      "hit": false,
      "t": 46451.616000000045,
      "d": 236.89517708333005,
      "v": 100
    },
    {
      "midi": 84,
      "hit": false,
      "t": 46451.61600000009,
      "d": 236.89517708333005,
      "v": 100
    },
    {
      "midi": 72,
      "hit": false,
      "t": 46451.61600000009,
      "d": 236.89517708333005,
      "v": 100
    },
    {
      "midi": 60,
      "hit": false,
      "t": 46693.551500000045,
      "d": 115.9274270833339,
      "v": 100
    },
    {
      "midi": 58,
      "hit": false,
      "t": 46814.51925000005,
      "d": 115.9274270833339,
      "v": 100
    },
    {
      "midi": 56,
      "hit": false,
      "t": 46935.48700000005,
      "d": 115.9274270833339,
      "v": 100
    },
    {
      "midi": 55,
      "hit": false,
      "t": 47056.454750000055,
      "d": 115.9274270833339,
      "v": 100
    },
    {
      "midi": 60,
      "hit": false,
      "t": 47177.42250000006,
      "d": 115.9274270833339,
      "v": 100
    },
    {
      "midi": 84,
      "hit": false,
      "t": 47177.42250000009,
      "d": 115.9274270833339,
      "v": 100
    },
    {
      "midi": 58,
      "hit": false,
      "t": 47298.39025000006,
      "d": 115.9274270833339,
      "v": 100
    },
    {
      "midi": 82,
      "hit": false,
      "t": 47298.39025000009,
      "d": 115.9274270833339,
      "v": 100
    },
    {
      "midi": 56,
      "hit": false,
      "t": 47419.358000000066,
      "d": 115.9274270833339,
      "v": 100
    },
    {
      "midi": 80,
      "hit": false,
      "t": 47419.358000000095,
      "d": 115.9274270833339,
      "v": 100
    },
    {
      "midi": 55,
      "hit": false,
      "t": 47540.32575000007,
      "d": 115.9274270833339,
      "v": 100
    },
    {
      "midi": 79,
      "hit": false,
      "t": 47540.3257500001,
      "d": 115.9274270833339,
      "v": 100
    },
    {
      "midi": 53,
      "hit": false,
      "t": 47661.29350000007,
      "d": 115.9274270833339,
      "v": 100
    },
    {
      "midi": 77,
      "hit": false,
      "t": 47661.2935000001,
      "d": 115.9274270833339,
      "v": 100
    },
    {
      "midi": 52,
      "hit": false,
      "t": 47782.261250000076,
      "d": 115.9274270833339,
      "v": 100
    },
    {
      "midi": 76,
      "hit": false,
      "t": 47782.261250000105,
      "d": 115.9274270833339,
      "v": 100
    },
    {
      "midi": 72,
      "hit": false,
      "t": 47903.22900000011,
      "d": 115.9274270833339,
      "v": 100
    },
    {
      "midi": 70,
      "hit": false,
      "t": 48024.19675000011,
      "d": 115.9274270833339,
      "v": 100
    },
    {
      "midi": 68,
      "hit": false,
      "t": 48145.164500000115,
      "d": 115.9274270833339,
      "v": 100
    },
    {
      "midi": 67,
      "hit": false,
      "t": 48266.13225000012,
      "d": 115.9274270833339,
      "v": 100
    },
    {
      "midi": 65,
      "hit": false,
      "t": 48387.10000000012,
      "d": 115.9274270833339,
      "v": 100
    },
    {
      "midi": 64,
      "hit": false,
      "t": 48508.067750000126,
      "d": 115.9274270833339,
      "v": 100
    },
    {
      "midi": 60,
      "hit": false,
      "t": 48629.03550000008,
      "d": 115.9274270833339,
      "v": 100
    },
    {
      "midi": 58,
      "hit": false,
      "t": 48750.00325000008,
      "d": 115.9274270833339,
      "v": 100
    },
    {
      "midi": 56,
      "hit": false,
      "t": 48870.971000000085,
      "d": 115.9274270833339,
      "v": 100
    },
    {
      "midi": 55,
      "hit": false,
      "t": 48991.93875000009,
      "d": 115.9274270833339,
      "v": 100
    },
    {
      "midi": 53,
      "hit": false,
      "t": 49112.90650000009,
      "d": 115.9274270833339,
      "v": 100
    },
    {
      "midi": 52,
      "hit": false,
      "t": 49233.874250000095,
      "d": 115.9274270833339,
      "v": 100
    },
    {
      "midi": 41,
      "hit": false,
      "t": 49354.8420000001,
      "d": 115.9274270833339,
      "v": 100
    },
    {
      "midi": 29,
      "hit": false,
      "t": 49354.8420000001,
      "d": 115.9274270833339,
      "v": 100
    },
    {
      "midi": 84,
      "hit": false,
      "t": 49354.84200000013,
      "d": 115.9274270833339,
      "v": 100
    },
    {
      "midi": 48,
      "hit": false,
      "t": 49596.7775000001,
      "d": 115.9274270833339,
      "v": 100
    },
    {
      "midi": 36,
      "hit": false,
      "t": 49596.7775000001,
      "d": 115.9274270833339,
      "v": 100
    },
    {
      "midi": 82,
      "hit": false,
      "t": 49596.77750000013,
      "d": 115.9274270833339,
      "v": 100
    },
    {
      "midi": 80,
      "hit": false,
      "t": 49717.74525000013,
      "d": 115.9274270833339,
      "v": 100
    },
    {
      "midi": 48,
      "hit": false,
      "t": 49838.7130000001,
      "d": 115.9274270833339,
      "v": 100
    },
    {
      "midi": 36,
      "hit": false,
      "t": 49838.7130000001,
      "d": 115.9274270833339,
      "v": 100
    },
    {
      "midi": 79,
      "hit": false,
      "t": 49838.713000000134,
      "d": 115.9274270833339,
      "v": 100
    },
    {
      "midi": 41,
      "hit": false,
      "t": 50080.6485000001,
      "d": 115.9274270833339,
      "v": 100
    },
    {
      "midi": 29,
      "hit": false,
      "t": 50080.6485000001,
      "d": 115.9274270833339,
      "v": 100
    },
    {
      "midi": 77,
      "hit": false,
      "t": 50080.648500000134,
      "d": 115.9274270833339,
      "v": 100
    },
    {
      "midi": 48,
      "hit": false,
      "t": 50322.5840000001,
      "d": 115.9274270833339,
      "v": 100
    },
    {
      "midi": 36,
      "hit": false,
      "t": 50322.5840000001,
      "d": 115.9274270833339,
      "v": 100
    },
    {
      "midi": 72,
      "hit": false,
      "t": 50322.58400000013,
      "d": 115.9274270833339,
      "v": 100
    },
    {
      "midi": 48,
      "hit": false,
      "t": 50564.5195000001,
      "d": 115.9274270833339,
      "v": 100
    },
    {
      "midi": 36,
      "hit": false,
      "t": 50564.5195000001,
      "d": 115.9274270833339,
      "v": 100
    },
    {
      "midi": 65,
      "hit": false,
      "t": 50564.51950000013,
      "d": 115.9274270833339,
      "v": 100
    },
    {
      "midi": 41,
      "hit": false,
      "t": 50806.455000000096,
      "d": 115.9274270833339,
      "v": 100
    },
    {
      "midi": 29,
      "hit": false,
      "t": 50806.455000000096,
      "d": 115.9274270833339,
      "v": 100
    },
    {
      "midi": 67,
      "hit": false,
      "t": 50806.45500000013,
      "d": 115.9274270833339,
      "v": 100
    },
    {
      "midi": 68,
      "hit": false,
      "t": 50927.422750000136,
      "d": 115.9274270833339,
      "v": 100
    },
    {
      "midi": 48,
      "hit": false,
      "t": 51048.390500000096,
      "d": 115.9274270833339,
      "v": 100
    },
    {
      "midi": 36,
      "hit": false,
      "t": 51048.390500000096,
      "d": 115.9274270833339,
      "v": 100
    },
    {
      "midi": 70,
      "hit": false,
      "t": 51048.39050000014,
      "d": 115.9274270833339,
      "v": 100
    },
    {
      "midi": 73,
      "hit": false,
      "t": 51169.35825000014,
      "d": 115.9274270833339,
      "v": 100
    },
    {
      "midi": 48,
      "hit": false,
      "t": 51290.326000000096,
      "d": 115.9274270833339,
      "v": 100
    },
    {
      "midi": 36,
      "hit": false,
      "t": 51290.326000000096,
      "d": 115.9274270833339,
      "v": 100
    },
    {
      "midi": 72,
      "hit": false,
      "t": 51290.32600000015,
      "d": 115.9274270833339,
      "v": 100
    },
    {
      "midi": 70,
      "hit": false,
      "t": 51411.29375000015,
      "d": 115.9274270833339,
      "v": 100
    },
    {
      "midi": 41,
      "hit": false,
      "t": 51532.261500000095,
      "d": 115.9274270833339,
      "v": 100
    },
    {
      "midi": 29,
      "hit": false,
      "t": 51532.261500000095,
      "d": 115.9274270833339,
      "v": 100
    },
    {
      "midi": 68,
      "hit": false,
      "t": 51532.26150000015,
      "d": 115.9274270833339,
      "v": 100
    },
    {
      "midi": 48,
      "hit": false,
      "t": 51774.197000000095,
      "d": 115.9274270833339,
      "v": 100
    },
    {
      "midi": 36,
      "hit": false,
      "t": 51774.197000000095,
      "d": 115.9274270833339,
      "v": 100
    },
    {
      "midi": 65,
      "hit": false,
      "t": 51774.19700000015,
      "d": 115.9274270833339,
      "v": 100
    },
    {
      "midi": 36,
      "hit": false,
      "t": 52016.132500000094,
      "d": 115.9274270833339,
      "v": 100
    },
    {
      "midi": 48,
      "hit": false,
      "t": 52016.132500000094,
      "d": 115.9274270833339,
      "v": 100
    },
    {
      "midi": 74,
      "hit": false,
      "t": 52016.13250000015,
      "d": 115.9274270833339,
      "v": 100
    },
    {
      "midi": 76,
      "hit": false,
      "t": 52137.100250000156,
      "d": 115.9274270833339,
      "v": 100
    },
    {
      "midi": 29,
      "hit": false,
      "t": 52258.068000000094,
      "d": 115.9274270833339,
      "v": 100
    },
    {
      "midi": 41,
      "hit": false,
      "t": 52258.068000000094,
      "d": 115.9274270833339,
      "v": 100
    },
    {
      "midi": 77,
      "hit": false,
      "t": 52258.06800000016,
      "d": 115.9274270833339,
      "v": 100
    },
    {
      "midi": 84,
      "hit": false,
      "t": 52258.06800000016,
      "d": 115.9274270833339,
      "v": 100
    },
    {
      "midi": 36,
      "hit": false,
      "t": 52500.00350000009,
      "d": 115.9274270833339,
      "v": 100
    },
    {
      "midi": 48,
      "hit": false,
      "t": 52500.00350000009,
      "d": 115.9274270833339,
      "v": 100
    },
    {
      "midi": 82,
      "hit": false,
      "t": 52500.00350000016,
      "d": 115.9274270833339,
      "v": 100
    },
    {
      "midi": 80,
      "hit": false,
      "t": 52620.97125000016,
      "d": 115.9274270833339,
      "v": 100
    },
    {
      "midi": 36,
      "hit": false,
      "t": 52741.93900000009,
      "d": 115.9274270833339,
      "v": 100
    },
    {
      "midi": 48,
      "hit": false,
      "t": 52741.93900000009,
      "d": 115.9274270833339,
      "v": 100
    },
    {
      "midi": 79,
      "hit": false,
      "t": 52741.939000000166,
      "d": 115.9274270833339,
      "v": 100
    },
    {
      "midi": 29,
      "hit": false,
      "t": 52983.87450000009,
      "d": 115.9274270833339,
      "v": 100
    },
    {
      "midi": 41,
      "hit": false,
      "t": 52983.87450000009,
      "d": 115.9274270833339,
      "v": 100
    },
    {
      "midi": 77,
      "hit": false,
      "t": 52983.874500000165,
      "d": 115.9274270833339,
      "v": 100
    },
    {
      "midi": 36,
      "hit": false,
      "t": 53225.81000000009,
      "d": 115.9274270833339,
      "v": 100
    },
    {
      "midi": 48,
      "hit": false,
      "t": 53225.81000000009,
      "d": 115.9274270833339,
      "v": 100
    },
    {
      "midi": 72,
      "hit": false,
      "t": 53225.810000000165,
      "d": 115.9274270833339,
      "v": 100
    },
    {
      "midi": 36,
      "hit": false,
      "t": 53467.74550000009,
      "d": 115.9274270833339,
      "v": 100
    },
    {
      "midi": 48,
      "hit": false,
      "t": 53467.74550000009,
      "d": 115.9274270833339,
      "v": 100
    },
    {
      "midi": 65,
      "hit": false,
      "t": 53467.745500000165,
      "d": 115.9274270833339,
      "v": 100
    },
    {
      "midi": 41,
      "hit": false,
      "t": 53709.68100000009,
      "d": 115.9274270833339,
      "v": 100
    },
    {
      "midi": 29,
      "hit": false,
      "t": 53709.68100000009,
      "d": 115.9274270833339,
      "v": 100
    },
    {
      "midi": 67,
      "hit": false,
      "t": 53709.681000000164,
      "d": 115.9274270833339,
      "v": 100
    },
    {
      "midi": 68,
      "hit": false,
      "t": 53830.64875000017,
      "d": 115.9274270833339,
      "v": 100
    },
    {
      "midi": 36,
      "hit": false,
      "t": 53951.61650000009,
      "d": 115.9274270833339,
      "v": 100
    },
    {
      "midi": 48,
      "hit": false,
      "t": 53951.61650000009,
      "d": 115.9274270833339,
      "v": 100
    },
    {
      "midi": 70,
      "hit": false,
      "t": 53951.61650000017,
      "d": 115.9274270833339,
      "v": 100
    },
    {
      "midi": 73,
      "hit": false,
      "t": 54072.584250000175,
      "d": 115.9274270833339,
      "v": 100
    },
    {
      "midi": 48,
      "hit": false,
      "t": 54193.55200000009,
      "d": 115.9274270833339,
      "v": 100
    },
    {
      "midi": 36,
      "hit": false,
      "t": 54193.55200000009,
      "d": 115.9274270833339,
      "v": 100
    },
    {
      "midi": 72,
      "hit": false,
      "t": 54193.55200000018,
      "d": 115.9274270833339,
      "v": 100
    },
    {
      "midi": 70,
      "hit": false,
      "t": 54314.51975000018,
      "d": 115.9274270833339,
      "v": 100
    },
    {
      "midi": 29,
      "hit": false,
      "t": 54435.48750000009,
      "d": 115.9274270833339,
      "v": 100
    },
    {
      "midi": 41,
      "hit": false,
      "t": 54435.48750000009,
      "d": 115.9274270833339,
      "v": 100
    },
    {
      "midi": 68,
      "hit": false,
      "t": 54435.487500000185,
      "d": 115.9274270833339,
      "v": 100
    },
    {
      "midi": 36,
      "hit": false,
      "t": 54677.42300000009,
      "d": 115.9274270833339,
      "v": 100
    },
    {
      "midi": 48,
      "hit": false,
      "t": 54677.42300000009,
      "d": 115.9274270833339,
      "v": 100
    },
    {
      "midi": 65,
      "hit": false,
      "t": 54677.423000000184,
      "d": 115.9274270833339,
      "v": 100
    },
    {
      "midi": 36,
      "hit": false,
      "t": 54919.35850000009,
      "d": 115.9274270833339,
      "v": 100
    },
    {
      "midi": 48,
      "hit": false,
      "t": 54919.35850000009,
      "d": 115.9274270833339,
      "v": 100
    },
    {
      "midi": 76,
      "hit": false,
      "t": 54919.358500000184,
      "d": 236.89517708333005,
      "v": 100
    },
    {
      "midi": 53,
      "hit": false,
      "t": 55161.29400000009,
      "d": 1446.5726770833353,
      "v": 100
    },
    {
      "midi": 48,
      "hit": false,
      "t": 55161.29400000009,
      "d": 1446.5726770833353,
      "v": 100
    },
    {
      "midi": 44,
      "hit": false,
      "t": 55161.29400000009,
      "d": 1446.5726770833353,
      "v": 100
    },
    {
      "midi": 77,
      "hit": false,
      "t": 55161.29400000018,
      "d": 357.8629270833335,
      "v": 100
    },
    {
      "midi": 76,
      "hit": false,
      "t": 55524.19725000019,
      "d": 115.9274270833339,
      "v": 100
    },
    {
      "midi": 77,
      "hit": false,
      "t": 55645.16500000019,
      "d": 236.89517708333005,
      "v": 100
    },
    {
      "midi": 80,
      "hit": false,
      "t": 55887.10050000019,
      "d": 357.8629270833335,
      "v": 100
    },
    {
      "midi": 79,
      "hit": false,
      "t": 56250.00375000019,
      "d": 115.9274270833339,
      "v": 100
    },
    {
      "midi": 80,
      "hit": false,
      "t": 56370.971500000196,
      "d": 236.89517708333005,
      "v": 100
    },
    {
      "midi": 55,
      "hit": false,
      "t": 56612.907000000094,
      "d": 1446.5726770833353,
      "v": 100
    },
    {
      "midi": 49,
      "hit": false,
      "t": 56612.907000000094,
      "d": 1446.5726770833353,
      "v": 100
    },
    {
      "midi": 46,
      "hit": false,
      "t": 56612.907000000094,
      "d": 1446.5726770833353,
      "v": 100
    },
    {
      "midi": 82,
      "hit": false,
      "t": 56612.907000000196,
      "d": 236.89517708333005,
      "v": 100
    },
    {
      "midi": 82,
      "hit": false,
      "t": 56854.842500000195,
      "d": 115.9274270833339,
      "v": 100
    },
    {
      "midi": 80,
      "hit": false,
      "t": 56975.8102500002,
      "d": 115.9274270833339,
      "v": 100
    },
    {
      "midi": 79,
      "hit": false,
      "t": 57096.7780000002,
      "d": 115.9274270833339,
      "v": 100
    },
    {
      "midi": 77,
      "hit": false,
      "t": 57217.745750000206,
      "d": 115.9274270833339,
      "v": 100
    },
    {
      "midi": 82,
      "hit": false,
      "t": 57338.71350000021,
      "d": 236.89517708333005,
      "v": 100
    },
    {
      "midi": 82,
      "hit": false,
      "t": 57580.64900000021,
      "d": 115.9274270833339,
      "v": 100
    },
    {
      "midi": 80,
      "hit": false,
      "t": 57701.61675000021,
      "d": 115.9274270833339,
      "v": 100
    },
    {
      "midi": 79,
      "hit": false,
      "t": 57822.584500000215,
      "d": 115.9274270833339,
      "v": 100
    },
    {
      "midi": 77,
      "hit": false,
      "t": 57943.55225000022,
      "d": 115.9274270833339,
      "v": 100
    },
    {
      "midi": 48,
      "hit": false,
      "t": 58064.5200000001,
      "d": 1446.5726770833353,
      "v": 100
    },
    {
      "midi": 44,
      "hit": false,
      "t": 58064.5200000001,
      "d": 1446.5726770833353,
      "v": 100
    },
    {
      "midi": 53,
      "hit": false,
      "t": 58064.5200000001,
      "d": 1446.5726770833353,
      "v": 100
    },
    {
      "midi": 77,
      "hit": false,
      "t": 58064.52000000022,
      "d": 357.8629270833335,
      "v": 100
    },
    {
      "midi": 76,
      "hit": false,
      "t": 58427.423250000225,
      "d": 115.9274270833339,
      "v": 100
    },
    {
      "midi": 77,
      "hit": false,
      "t": 58548.39100000023,
      "d": 236.89517708333005,
      "v": 100
    },
    {
      "midi": 80,
      "hit": false,
      "t": 58790.32650000023,
      "d": 357.8629270833335,
      "v": 100
    },
    {
      "midi": 79,
      "hit": false,
      "t": 59153.22975000023,
      "d": 115.9274270833339,
      "v": 100
    },
    {
      "midi": 80,
      "hit": false,
      "t": 59274.197500000235,
      "d": 236.89517708333005,
      "v": 100
    },
    {
      "midi": 55,
      "hit": false,
      "t": 59516.1330000001,
      "d": 1446.5726770833353,
      "v": 100
    },
    {
      "midi": 49,
      "hit": false,
      "t": 59516.1330000001,
      "d": 1446.5726770833353,
      "v": 100
    },
    {
      "midi": 46,
      "hit": false,
      "t": 59516.1330000001,
      "d": 1446.5726770833353,
      "v": 100
    },
    {
      "midi": 82,
      "hit": false,
      "t": 59516.133000000234,
      "d": 236.89517708333005,
      "v": 100
    },
    {
      "midi": 82,
      "hit": false,
      "t": 59758.068500000234,
      "d": 115.9274270833339,
      "v": 100
    },
    {
      "midi": 80,
      "hit": false,
      "t": 59879.03625000024,
      "d": 115.9274270833339,
      "v": 100
    },
    {
      "midi": 79,
      "hit": false,
      "t": 60000.00400000024,
      "d": 115.9274270833339,
      "v": 100
    },
    {
      "midi": 77,
      "hit": false,
      "t": 60120.971750000244,
      "d": 115.9274270833339,
      "v": 100
    },
    {
      "midi": 82,
      "hit": false,
      "t": 60241.93950000025,
      "d": 115.9274270833339,
      "v": 100
    },
    {
      "midi": 84,
      "hit": false,
      "t": 60362.90725000025,
      "d": 115.9274270833339,
      "v": 100
    },
    {
      "midi": 82,
      "hit": false,
      "t": 60483.875000000255,
      "d": 115.9274270833339,
      "v": 100
    },
    {
      "midi": 80,
      "hit": false,
      "t": 60604.84275000026,
      "d": 115.9274270833339,
      "v": 100
    },
    {
      "midi": 79,
      "hit": false,
      "t": 60725.81050000026,
      "d": 115.9274270833339,
      "v": 100
    },
    {
      "midi": 77,
      "hit": false,
      "t": 60846.778250000265,
      "d": 115.9274270833339,
      "v": 100
    },
    {
      "midi": 48,
      "hit": false,
      "t": 60967.74600000011,
      "d": 720.7661770833365,
      "v": 100
    },
    {
      "midi": 43,
      "hit": false,
      "t": 60967.74600000011,
      "d": 720.7661770833365,
      "v": 100
    },
    {
      "midi": 36,
      "hit": false,
      "t": 60967.74600000011,
      "d": 720.7661770833365,
      "v": 100
    },
    {
      "midi": 76,
      "hit": false,
      "t": 60967.74600000027,
      "d": 115.9274270833339,
      "v": 100
    },
    {
      "midi": 77,
      "hit": false,
      "t": 61088.71375000027,
      "d": 115.9274270833339,
      "v": 100
    },
    {
      "midi": 79,
      "hit": false,
      "t": 61209.681500000275,
      "d": 115.9274270833339,
      "v": 100
    },
    {
      "midi": 72,
      "hit": false,
      "t": 61451.617000000275,
      "d": 115.9274270833339,
      "v": 100
    },
    {
      "midi": 43,
      "hit": false,
      "t": 61693.552500000114,
      "d": 720.7661770833365,
      "v": 100
    },
    {
      "midi": 36,
      "hit": false,
      "t": 61693.552500000114,
      "d": 720.7661770833365,
      "v": 100
    },
    {
      "midi": 48,
      "hit": false,
      "t": 61693.552500000114,
      "d": 720.7661770833365,
      "v": 100
    },
    {
      "midi": 77,
      "hit": false,
      "t": 61693.552500000274,
      "d": 115.9274270833339,
      "v": 100
    },
    {
      "midi": 79,
      "hit": false,
      "t": 61814.52025000028,
      "d": 115.9274270833339,
      "v": 100
    },
    {
      "midi": 80,
      "hit": false,
      "t": 61935.48800000028,
      "d": 115.9274270833339,
      "v": 100
    },
    {
      "midi": 72,
      "hit": false,
      "t": 62177.42350000028,
      "d": 115.9274270833339,
      "v": 100
    },
    {
      "midi": 37,
      "hit": false,
      "t": 62419.35900000012,
      "d": 720.7661770833365,
      "v": 100
    },
    {
      "midi": 44,
      "hit": false,
      "t": 62419.35900000012,
      "d": 720.7661770833365,
      "v": 100
    },
    {
      "midi": 49,
      "hit": false,
      "t": 62419.35900000012,
      "d": 720.7661770833365,
      "v": 100
    },
    {
      "midi": 79,
      "hit": false,
      "t": 62419.35900000028,
      "d": 115.9274270833339,
      "v": 100
    },
    {
      "midi": 80,
      "hit": false,
      "t": 62540.326750000284,
      "d": 115.9274270833339,
      "v": 100
    },
    {
      "midi": 82,
      "hit": false,
      "t": 62661.29450000029,
      "d": 115.9274270833339,
      "v": 100
    },
    {
      "midi": 72,
      "hit": false,
      "t": 62903.23000000029,
      "d": 115.9274270833339,
      "v": 100
    },
    {
      "midi": 43,
      "hit": false,
      "t": 63145.16550000013,
      "d": 720.7661770833365,
      "v": 100
    },
    {
      "midi": 48,
      "hit": false,
      "t": 63145.16550000013,
      "d": 720.7661770833365,
      "v": 100
    },
    {
      "midi": 36,
      "hit": false,
      "t": 63145.16550000013,
      "d": 720.7661770833365,
      "v": 100
    },
    {
      "midi": 80,
      "hit": false,
      "t": 63145.16550000029,
      "d": 115.9274270833339,
      "v": 100
    },
    {
      "midi": 82,
      "hit": false,
      "t": 63266.13325000029,
      "d": 115.9274270833339,
      "v": 100
    },
    {
      "midi": 84,
      "hit": false,
      "t": 63387.10100000029,
      "d": 115.9274270833339,
      "v": 100
    },
    {
      "midi": 72,
      "hit": false,
      "t": 63629.03650000029,
      "d": 115.9274270833339,
      "v": 100
    },
    {
      "midi": 36,
      "hit": false,
      "t": 63870.97200000013,
      "d": 720.7661770833365,
      "v": 100
    },
    {
      "midi": 43,
      "hit": false,
      "t": 63870.97200000013,
      "d": 720.7661770833365,
      "v": 100
    },
    {
      "midi": 48,
      "hit": false,
      "t": 63870.97200000013,
      "d": 720.7661770833365,
      "v": 100
    },
    {
      "midi": 72,
      "hit": false,
      "t": 63870.97200000029,
      "d": 115.9274270833339,
      "v": 100
    },
    {
      "midi": 76,
      "hit": false,
      "t": 63870.97200000029,
      "d": 115.9274270833339,
      "v": 100
    },
    {
      "midi": 77,
      "hit": false,
      "t": 63991.939750000296,
      "d": 115.9274270833339,
      "v": 100
    },
    {
      "midi": 74,
      "hit": false,
      "t": 63991.939750000296,
      "d": 115.9274270833339,
      "v": 100
    },
    {
      "midi": 79,
      "hit": false,
      "t": 64112.9075000003,
      "d": 115.9274270833339,
      "v": 100
    },
    {
      "midi": 76,
      "hit": false,
      "t": 64112.9075000003,
      "d": 115.9274270833339,
      "v": 100
    },
    {
      "midi": 67,
      "hit": false,
      "t": 64354.8430000003,
      "d": 115.9274270833339,
      "v": 100
    },
    {
      "midi": 72,
      "hit": false,
      "t": 64354.8430000003,
      "d": 115.9274270833339,
      "v": 100
    },
    {
      "midi": 48,
      "hit": false,
      "t": 64596.77850000014,
      "d": 720.7661770833365,
      "v": 100
    },
    {
      "midi": 43,
      "hit": false,
      "t": 64596.77850000014,
      "d": 720.7661770833365,
      "v": 100
    },
    {
      "midi": 36,
      "hit": false,
      "t": 64596.77850000014,
      "d": 720.7661770833365,
      "v": 100
    },
    {
      "midi": 74,
      "hit": false,
      "t": 64596.7785000003,
      "d": 115.9274270833339,
      "v": 100
    },
    {
      "midi": 77,
      "hit": false,
      "t": 64596.7785000003,
      "d": 115.9274270833339,
      "v": 100
    },
    {
      "midi": 76,
      "hit": false,
      "t": 64717.7462500003,
      "d": 115.9274270833339,
      "v": 100
    },
    {
      "midi": 79,
      "hit": false,
      "t": 64717.7462500003,
      "d": 115.9274270833339,
      "v": 100
    },
    {
      "midi": 77,
      "hit": false,
      "t": 64838.714000000306,
      "d": 115.9274270833339,
      "v": 100
    },
    {
      "midi": 80,
      "hit": false,
      "t": 64838.714000000306,
      "d": 115.9274270833339,
      "v": 100
    },
    {
      "midi": 67,
      "hit": false,
      "t": 65080.649500000305,
      "d": 115.9274270833339,
      "v": 100
    },
    {
      "midi": 72,
      "hit": false,
      "t": 65080.649500000305,
      "d": 115.9274270833339,
      "v": 100
    },
    {
      "midi": 37,
      "hit": false,
      "t": 65322.585000000145,
      "d": 720.7661770833292,
      "v": 100
    },
    {
      "midi": 44,
      "hit": false,
      "t": 65322.585000000145,
      "d": 720.7661770833292,
      "v": 100
    },
    {
      "midi": 49,
      "hit": false,
      "t": 65322.585000000145,
      "d": 720.7661770833292,
      "v": 100
    },
    {
      "midi": 79,
      "hit": false,
      "t": 65322.585000000305,
      "d": 115.9274270833339,
      "v": 100
    },
    {
      "midi": 76,
      "hit": false,
      "t": 65322.585000000305,
      "d": 115.9274270833339,
      "v": 100
    },
    {
      "midi": 80,
      "hit": false,
      "t": 65443.55275000031,
      "d": 115.92742708332662,
      "v": 100
    },
    {
      "midi": 77,
      "hit": false,
      "t": 65443.55275000031,
      "d": 115.92742708332662,
      "v": 100
    },
    {
      "midi": 82,
      "hit": false,
      "t": 65564.5205000003,
      "d": 115.92742708332662,
      "v": 100
    },
    {
      "midi": 79,
      "hit": false,
      "t": 65564.5205000003,
      "d": 115.92742708332662,
      "v": 100
    },
    {
      "midi": 85,
      "hit": false,
      "t": 65685.4882500003,
      "d": 115.92742708332662,
      "v": 100
    },
    {
      "midi": 82,
      "hit": false,
      "t": 65685.4882500003,
      "d": 115.92742708332662,
      "v": 100
    },
    {
      "midi": 84,
      "hit": false,
      "t": 65806.4560000003,
      "d": 115.92742708332662,
      "v": 100
    },
    {
      "midi": 80,
      "hit": false,
      "t": 65806.4560000003,
      "d": 115.92742708332662,
      "v": 100
    },
    {
      "midi": 82,
      "hit": false,
      "t": 65927.4237500003,
      "d": 115.92742708332662,
      "v": 100
    },
    {
      "midi": 79,
      "hit": false,
      "t": 65927.4237500003,
      "d": 115.92742708332662,
      "v": 100
    },
    {
      "midi": 48,
      "hit": false,
      "t": 66048.39150000014,
      "d": 720.7661770833365,
      "v": 100
    },
    {
      "midi": 36,
      "hit": false,
      "t": 66048.39150000014,
      "d": 720.7661770833365,
      "v": 100
    },
    {
      "midi": 43,
      "hit": false,
      "t": 66048.39150000014,
      "d": 720.7661770833365,
      "v": 100
    },
    {
      "midi": 76,
      "hit": false,
      "t": 66048.39150000029,
      "d": 720.7661770833365,
      "v": 100
    },
    {
      "midi": 84,
      "hit": false,
      "t": 66048.39150000029,
      "d": 720.7661770833365,
      "v": 100
    },
    {
      "midi": 79,
      "hit": false,
      "t": 66048.39150000029,
      "d": 720.7661770833365,
      "v": 100
    },
    {
      "midi": 29,
      "hit": false,
      "t": 66774.19800000015,
      "d": 115.92742708332662,
      "v": 100
    },
    {
      "midi": 41,
      "hit": false,
      "t": 66774.19800000015,
      "d": 115.92742708332662,
      "v": 100
    },
    {
      "midi": 84,
      "hit": false,
      "t": 66774.1980000003,
      "d": 115.92742708332662,
      "v": 100
    },
    {
      "midi": 80,
      "hit": false,
      "t": 66774.1980000003,
      "d": 115.92742708332662,
      "v": 100
    },
    {
      "midi": 48,
      "hit": false,
      "t": 67016.13350000014,
      "d": 115.92742708332662,
      "v": 100
    },
    {
      "midi": 36,
      "hit": false,
      "t": 67016.13350000014,
      "d": 115.92742708332662,
      "v": 100
    },
    {
      "midi": 79,
      "hit": false,
      "t": 67016.13350000029,
      "d": 115.92742708332662,
      "v": 100
    },
    {
      "midi": 82,
      "hit": false,
      "t": 67016.13350000029,
      "d": 115.92742708332662,
      "v": 100
    },
    {
      "midi": 80,
      "hit": false,
      "t": 67137.10125000028,
      "d": 115.92742708332662,
      "v": 100
    },
    {
      "midi": 77,
      "hit": false,
      "t": 67137.10125000028,
      "d": 115.92742708332662,
      "v": 100
    },
    {
      "midi": 48,
      "hit": false,
      "t": 67258.06900000013,
      "d": 115.92742708332662,
      "v": 100
    },
    {
      "midi": 36,
      "hit": false,
      "t": 67258.06900000013,
      "d": 115.92742708332662,
      "v": 100
    },
    {
      "midi": 79,
      "hit": false,
      "t": 67258.06900000028,
      "d": 115.92742708332662,
      "v": 100
    },
    {
      "midi": 76,
      "hit": false,
      "t": 67258.06900000028,
      "d": 115.92742708332662,
      "v": 100
    },
    {
      "midi": 41,
      "hit": false,
      "t": 67500.00450000013,
      "d": 115.92742708332662,
      "v": 100
    },
    {
      "midi": 29,
      "hit": false,
      "t": 67500.00450000013,
      "d": 115.92742708332662,
      "v": 100
    },
    {
      "midi": 72,
      "hit": false,
      "t": 67500.00450000027,
      "d": 115.92742708332662,
      "v": 100
    },
    {
      "midi": 77,
      "hit": false,
      "t": 67500.00450000027,
      "d": 115.92742708332662,
      "v": 100
    },
    {
      "midi": 48,
      "hit": false,
      "t": 67741.94000000012,
      "d": 115.92742708332662,
      "v": 100
    },
    {
      "midi": 36,
      "hit": false,
      "t": 67741.94000000012,
      "d": 115.92742708332662,
      "v": 100
    },
    {
      "midi": 67,
      "hit": false,
      "t": 67741.94000000026,
      "d": 115.92742708332662,
      "v": 100
    },
    {
      "midi": 72,
      "hit": false,
      "t": 67741.94000000026,
      "d": 115.92742708332662,
      "v": 100
    },
    {
      "midi": 48,
      "hit": false,
      "t": 67983.87550000011,
      "d": 115.92742708332662,
      "v": 100
    },
    {
      "midi": 36,
      "hit": false,
      "t": 67983.87550000011,
      "d": 115.92742708332662,
      "v": 100
    },
    {
      "midi": 65,
      "hit": false,
      "t": 67983.87550000026,
      "d": 115.92742708332662,
      "v": 100
    },
    {
      "midi": 60,
      "hit": false,
      "t": 67983.87550000026,
      "d": 115.92742708332662,
      "v": 100
    },
    {
      "midi": 41,
      "hit": false,
      "t": 68225.8110000001,
      "d": 115.92742708332662,
      "v": 100
    },
    {
      "midi": 29,
      "hit": false,
      "t": 68225.8110000001,
      "d": 115.92742708332662,
      "v": 100
    },
    {
      "midi": 64,
      "hit": false,
      "t": 68225.81100000025,
      "d": 115.92742708332662,
      "v": 100
    },
    {
      "midi": 67,
      "hit": false,
      "t": 68225.81100000025,
      "d": 115.92742708332662,
      "v": 100
    },
    {
      "midi": 68,
      "hit": false,
      "t": 68346.77875000025,
      "d": 115.92742708332662,
      "v": 100
    },
    {
      "midi": 65,
      "hit": false,
      "t": 68346.77875000025,
      "d": 115.92742708332662,
      "v": 100
    },
    {
      "midi": 48,
      "hit": false,
      "t": 68467.7465000001,
      "d": 115.92742708332662,
      "v": 100
    },
    {
      "midi": 36,
      "hit": false,
      "t": 68467.7465000001,
      "d": 115.92742708332662,
      "v": 100
    },
    {
      "midi": 70,
      "hit": false,
      "t": 68467.74650000024,
      "d": 115.92742708332662,
      "v": 100
    },
    {
      "midi": 67,
      "hit": false,
      "t": 68467.74650000024,
      "d": 115.92742708332662,
      "v": 100
    },
    {
      "midi": 73,
      "hit": false,
      "t": 68588.71425000024,
      "d": 115.92742708332662,
      "v": 100
    },
    {
      "midi": 70,
      "hit": false,
      "t": 68588.71425000024,
      "d": 115.92742708332662,
      "v": 100
    },
    {
      "midi": 48,
      "hit": false,
      "t": 68709.68200000009,
      "d": 115.92742708332662,
      "v": 100
    },
    {
      "midi": 36,
      "hit": false,
      "t": 68709.68200000009,
      "d": 115.92742708332662,
      "v": 100
    },
    {
      "midi": 72,
      "hit": false,
      "t": 68709.68200000023,
      "d": 115.92742708332662,
      "v": 100
    },
    {
      "midi": 68,
      "hit": false,
      "t": 68709.68200000023,
      "d": 115.92742708332662,
      "v": 100
    },
    {
      "midi": 70,
      "hit": false,
      "t": 68830.64975000023,
      "d": 115.92742708332662,
      "v": 100
    },
    {
      "midi": 67,
      "hit": false,
      "t": 68830.64975000023,
      "d": 115.92742708332662,
      "v": 100
    },
    {
      "midi": 41,
      "hit": false,
      "t": 68951.61750000008,
      "d": 115.92742708332662,
      "v": 100
    },
    {
      "midi": 29,
      "hit": false,
      "t": 68951.61750000008,
      "d": 115.92742708332662,
      "v": 100
    },
    {
      "midi": 68,
      "hit": false,
      "t": 68951.61750000023,
      "d": 115.92742708332662,
      "v": 100
    },
    {
      "midi": 65,
      "hit": false,
      "t": 68951.61750000023,
      "d": 115.92742708332662,
      "v": 100
    },
    {
      "midi": 36,
      "hit": false,
      "t": 69193.55300000007,
      "d": 115.92742708332662,
      "v": 100
    },
    {
      "midi": 48,
      "hit": false,
      "t": 69193.55300000007,
      "d": 115.92742708332662,
      "v": 100
    },
    {
      "midi": 60,
      "hit": false,
      "t": 69193.55300000022,
      "d": 478.83067708332965,
      "v": 100
    },
    {
      "midi": 65,
      "hit": false,
      "t": 69193.55300000022,
      "d": 478.83067708332965,
      "v": 100
    },
    {
      "midi": 48,
      "hit": false,
      "t": 69435.48850000006,
      "d": 115.92742708332662,
      "v": 100
    },
    {
      "midi": 36,
      "hit": false,
      "t": 69435.48850000006,
      "d": 115.92742708332662,
      "v": 100
    },
    {
      "midi": 29,
      "hit": false,
      "t": 69677.42400000006,
      "d": 115.92742708332662,
      "v": 100
    },
    {
      "midi": 41,
      "hit": false,
      "t": 69677.42400000006,
      "d": 115.92742708332662,
      "v": 100
    },
    {
      "midi": 84,
      "hit": false,
      "t": 69677.42400000022,
      "d": 115.92742708332662,
      "v": 100
    },
    {
      "midi": 80,
      "hit": false,
      "t": 69677.42400000022,
      "d": 115.92742708332662,
      "v": 100
    },
    {
      "midi": 77,
      "hit": false,
      "t": 69677.42400000022,
      "d": 115.92742708332662,
      "v": 100
    },
    {
      "midi": 48,
      "hit": false,
      "t": 69919.35950000005,
      "d": 115.92742708332662,
      "v": 100
    },
    {
      "midi": 36,
      "hit": false,
      "t": 69919.35950000005,
      "d": 115.92742708332662,
      "v": 100
    },
    {
      "midi": 82,
      "hit": false,
      "t": 69919.35950000021,
      "d": 115.92742708332662,
      "v": 100
    },
    {
      "midi": 79,
      "hit": false,
      "t": 69919.35950000021,
      "d": 115.92742708332662,
      "v": 100
    },
    {
      "midi": 77,
      "hit": false,
      "t": 70040.3272500002,
      "d": 115.92742708332662,
      "v": 100
    },
    {
      "midi": 80,
      "hit": false,
      "t": 70040.3272500002,
      "d": 115.92742708332662,
      "v": 100
    },
    {
      "midi": 36,
      "hit": false,
      "t": 70161.29500000004,
      "d": 115.92742708332662,
      "v": 100
    },
    {
      "midi": 48,
      "hit": false,
      "t": 70161.29500000004,
      "d": 115.92742708332662,
      "v": 100
    },
    {
      "midi": 79,
      "hit": false,
      "t": 70161.2950000002,
      "d": 115.92742708332662,
      "v": 100
    },
    {
      "midi": 76,
      "hit": false,
      "t": 70161.2950000002,
      "d": 115.92742708332662,
      "v": 100
    },
    {
      "midi": 41,
      "hit": false,
      "t": 70403.23050000003,
      "d": 115.92742708332662,
      "v": 100
    },
    {
      "midi": 29,
      "hit": false,
      "t": 70403.23050000003,
      "d": 115.92742708332662,
      "v": 100
    },
    {
      "midi": 77,
      "hit": false,
      "t": 70403.2305000002,
      "d": 115.92742708332662,
      "v": 100
    },
    {
      "midi": 72,
      "hit": false,
      "t": 70403.2305000002,
      "d": 115.92742708332662,
      "v": 100
    },
    {
      "midi": 48,
      "hit": false,
      "t": 70645.16600000003,
      "d": 115.92742708332662,
      "v": 100
    },
    {
      "midi": 36,
      "hit": false,
      "t": 70645.16600000003,
      "d": 115.92742708332662,
      "v": 100
    },
    {
      "midi": 72,
      "hit": false,
      "t": 70645.16600000019,
      "d": 115.92742708332662,
      "v": 100
    },
    {
      "midi": 67,
      "hit": false,
      "t": 70645.16600000019,
      "d": 115.92742708332662,
      "v": 100
    },
    {
      "midi": 48,
      "hit": false,
      "t": 70887.10150000002,
      "d": 115.92742708332662,
      "v": 100
    },
    {
      "midi": 36,
      "hit": false,
      "t": 70887.10150000002,
      "d": 115.92742708332662,
      "v": 100
    },
    {
      "midi": 65,
      "hit": false,
      "t": 70887.10150000018,
      "d": 115.92742708332662,
      "v": 100
    },
    {
      "midi": 60,
      "hit": false,
      "t": 70887.10150000018,
      "d": 115.92742708332662,
      "v": 100
    },
    {
      "midi": 29,
      "hit": false,
      "t": 71129.03700000001,
      "d": 115.92742708332662,
      "v": 100
    },
    {
      "midi": 41,
      "hit": false,
      "t": 71129.03700000001,
      "d": 115.92742708332662,
      "v": 100
    },
    {
      "midi": 67,
      "hit": false,
      "t": 71129.03700000017,
      "d": 115.92742708332662,
      "v": 100
    },
    {
      "midi": 64,
      "hit": false,
      "t": 71129.03700000017,
      "d": 115.92742708332662,
      "v": 100
    },
    {
      "midi": 65,
      "hit": false,
      "t": 71250.00475000017,
      "d": 115.92742708332662,
      "v": 100
    },
    {
      "midi": 68,
      "hit": false,
      "t": 71250.00475000017,
      "d": 115.92742708332662,
      "v": 100
    },
    {
      "midi": 48,
      "hit": false,
      "t": 71370.9725,
      "d": 115.92742708332662,
      "v": 100
    },
    {
      "midi": 36,
      "hit": false,
      "t": 71370.9725,
      "d": 115.92742708332662,
      "v": 100
    },
    {
      "midi": 67,
      "hit": false,
      "t": 71370.97250000016,
      "d": 115.92742708332662,
      "v": 100
    },
    {
      "midi": 70,
      "hit": false,
      "t": 71370.97250000016,
      "d": 115.92742708332662,
      "v": 100
    },
    {
      "midi": 70,
      "hit": false,
      "t": 71491.94025000016,
      "d": 115.92742708332662,
      "v": 100
    },
    {
      "midi": 73,
      "hit": false,
      "t": 71491.94025000016,
      "d": 115.92742708332662,
      "v": 100
    },
    {
      "midi": 48,
      "hit": false,
      "t": 71612.908,
      "d": 115.92742708332662,
      "v": 100
    },
    {
      "midi": 36,
      "hit": false,
      "t": 71612.908,
      "d": 115.92742708332662,
      "v": 100
    },
    {
      "midi": 68,
      "hit": false,
      "t": 71612.90800000016,
      "d": 115.92742708332662,
      "v": 100
    },
    {
      "midi": 72,
      "hit": false,
      "t": 71612.90800000016,
      "d": 115.92742708332662,
      "v": 100
    },
    {
      "midi": 67,
      "hit": false,
      "t": 71733.87575000015,
      "d": 115.92742708332662,
      "v": 100
    },
    {
      "midi": 70,
      "hit": false,
      "t": 71733.87575000015,
      "d": 115.92742708332662,
      "v": 100
    },
    {
      "midi": 41,
      "hit": false,
      "t": 71854.84349999999,
      "d": 115.92742708332662,
      "v": 100
    },
    {
      "midi": 29,
      "hit": false,
      "t": 71854.84349999999,
      "d": 115.92742708332662,
      "v": 100
    },
    {
      "midi": 68,
      "hit": false,
      "t": 71854.84350000015,
      "d": 115.92742708332662,
      "v": 100
    },
    {
      "midi": 65,
      "hit": false,
      "t": 71854.84350000015,
      "d": 115.92742708332662,
      "v": 100
    },
    {
      "midi": 36,
      "hit": false,
      "t": 72096.77899999998,
      "d": 115.92742708332662,
      "v": 100
    },
    {
      "midi": 48,
      "hit": false,
      "t": 72096.77899999998,
      "d": 115.92742708332662,
      "v": 100
    },
    {
      "midi": 65,
      "hit": false,
      "t": 72096.77900000014,
      "d": 478.83067708332965,
      "v": 100
    },
    {
      "midi": 60,
      "hit": false,
      "t": 72096.77900000014,
      "d": 478.83067708332965,
      "v": 100
    },
    {
      "midi": 36,
      "hit": false,
      "t": 72338.71449999997,
      "d": 115.92742708332662,
      "v": 100
    },
    {
      "midi": 48,
      "hit": false,
      "t": 72338.71449999997,
      "d": 115.92742708332662,
      "v": 100
    },
    {
      "midi": 56,
      "hit": false,
      "t": 72580.64999999997,
      "d": 720.7661770833365,
      "v": 100
    },
    {
      "midi": 53,
      "hit": false,
      "t": 72580.64999999997,
      "d": 720.7661770833365,
      "v": 100
    },
    {
      "midi": 48,
      "hit": false,
      "t": 72580.64999999997,
      "d": 720.7661770833365,
      "v": 100
    },
    {
      "midi": 68,
      "hit": false,
      "t": 72580.65000000014,
      "d": 236.89517708333733,
      "v": 100
    },
    {
      "midi": 72,
      "hit": false,
      "t": 72580.65000000014,
      "d": 236.89517708333733,
      "v": 100
    },
    {
      "midi": 72,
      "hit": false,
      "t": 72822.58550000015,
      "d": 115.92742708332662,
      "v": 100
    },
    {
      "midi": 68,
      "hit": false,
      "t": 72822.58550000015,
      "d": 115.92742708332662,
      "v": 100
    },
    {
      "midi": 70,
      "hit": false,
      "t": 72943.55325000014,
      "d": 115.92742708332662,
      "v": 100
    },
    {
      "midi": 73,
      "hit": false,
      "t": 72943.55325000014,
      "d": 115.92742708332662,
      "v": 100
    },
    {
      "midi": 72,
      "hit": false,
      "t": 73064.52100000014,
      "d": 236.89517708333733,
      "v": 100
    },
    {
      "midi": 68,
      "hit": false,
      "t": 73064.52100000014,
      "d": 236.89517708333733,
      "v": 100
    },
    {
      "midi": 48,
      "hit": false,
      "t": 73306.45649999997,
      "d": 720.7661770833365,
      "v": 100
    },
    {
      "midi": 52,
      "hit": false,
      "t": 73306.45649999997,
      "d": 720.7661770833365,
      "v": 100
    },
    {
      "midi": 55,
      "hit": false,
      "t": 73306.45649999997,
      "d": 720.7661770833365,
      "v": 100
    },
    {
      "midi": 67,
      "hit": false,
      "t": 73306.45650000015,
      "d": 236.89517708333733,
      "v": 100
    },
    {
      "midi": 70,
      "hit": false,
      "t": 73306.45650000015,
      "d": 236.89517708333733,
      "v": 100
    },
    {
      "midi": 67,
      "hit": false,
      "t": 73548.39200000015,
      "d": 115.92742708332662,
      "v": 100
    },
    {
      "midi": 70,
      "hit": false,
      "t": 73548.39200000015,
      "d": 115.92742708332662,
      "v": 100
    },
    {
      "midi": 72,
      "hit": false,
      "t": 73669.35975000015,
      "d": 115.92742708332662,
      "v": 100
    },
    {
      "midi": 68,
      "hit": false,
      "t": 73669.35975000015,
      "d": 115.92742708332662,
      "v": 100
    },
    {
      "midi": 67,
      "hit": false,
      "t": 73790.32750000014,
      "d": 236.89517708333733,
      "v": 100
    },
    {
      "midi": 70,
      "hit": false,
      "t": 73790.32750000014,
      "d": 236.89517708333733,
      "v": 100
    },
    {
      "midi": 44,
      "hit": false,
      "t": 74032.26299999998,
      "d": 720.7661770833365,
      "v": 100
    },
    {
      "midi": 49,
      "hit": false,
      "t": 74032.26299999998,
      "d": 720.7661770833365,
      "v": 100
    },
    {
      "midi": 53,
      "hit": false,
      "t": 74032.26299999998,
      "d": 720.7661770833365,
      "v": 100
    },
    {
      "midi": 65,
      "hit": false,
      "t": 74032.26300000015,
      "d": 236.89517708333733,
      "v": 100
    },
    {
      "midi": 68,
      "hit": false,
      "t": 74032.26300000015,
      "d": 236.89517708333733,
      "v": 100
    },
    {
      "midi": 68,
      "hit": false,
      "t": 74274.19850000016,
      "d": 115.92742708332662,
      "v": 100
    },
    {
      "midi": 65,
      "hit": false,
      "t": 74274.19850000016,
      "d": 115.92742708332662,
      "v": 100
    },
    {
      "midi": 70,
      "hit": false,
      "t": 74395.16625000015,
      "d": 115.92742708332662,
      "v": 100
    },
    {
      "midi": 67,
      "hit": false,
      "t": 74395.16625000015,
      "d": 115.92742708332662,
      "v": 100
    },
    {
      "midi": 68,
      "hit": false,
      "t": 74516.13400000015,
      "d": 236.89517708333733,
      "v": 100
    },
    {
      "midi": 65,
      "hit": false,
      "t": 74516.13400000015,
      "d": 236.89517708333733,
      "v": 100
    },
    {
      "midi": 41,
      "hit": false,
      "t": 74758.06949999998,
      "d": 720.7661770833365,
      "v": 100
    },
    {
      "midi": 46,
      "hit": false,
      "t": 74758.06949999998,
      "d": 720.7661770833365,
      "v": 100
    },
    {
      "midi": 49,
      "hit": false,
      "t": 74758.06949999998,
      "d": 720.7661770833365,
      "v": 100
    },
    {
      "midi": 64,
      "hit": false,
      "t": 74758.06950000016,
      "d": 115.92742708332662,
      "v": 100
    },
    {
      "midi": 67,
      "hit": false,
      "t": 74758.06950000016,
      "d": 115.92742708332662,
      "v": 100
    },
    {
      "midi": 65,
      "hit": false,
      "t": 74879.03725000015,
      "d": 599.7984270833258,
      "v": 100
    },
    {
      "midi": 61,
      "hit": false,
      "t": 74879.03725000015,
      "d": 599.7984270833258,
      "v": 100
    },
    {
      "midi": 72,
      "hit": false,
      "t": 75000.00500000015,
      "d": 478.83067708332965,
      "v": 100
    },
    {
      "midi": 77,
      "hit": false,
      "t": 75000.00500000015,
      "d": 478.83067708332965,
      "v": 100
    },
    {
      "midi": 48,
      "hit": false,
      "t": 75483.87599999999,
      "d": 720.7661770833365,
      "v": 100
    },
    {
      "midi": 53,
      "hit": false,
      "t": 75483.87599999999,
      "d": 720.7661770833365,
      "v": 100
    },
    {
      "midi": 56,
      "hit": false,
      "t": 75483.87599999999,
      "d": 720.7661770833365,
      "v": 100
    },
    {
      "midi": 68,
      "hit": false,
      "t": 75483.87600000015,
      "d": 236.89517708333733,
      "v": 100
    },
    {
      "midi": 72,
      "hit": false,
      "t": 75483.87600000015,
      "d": 236.89517708333733,
      "v": 100
    },
    {
      "midi": 68,
      "hit": false,
      "t": 75725.81150000016,
      "d": 115.92742708332662,
      "v": 100
    },
    {
      "midi": 72,
      "hit": false,
      "t": 75725.81150000016,
      "d": 115.92742708332662,
      "v": 100
    },
    {
      "midi": 70,
      "hit": false,
      "t": 75846.77925000015,
      "d": 115.92742708332662,
      "v": 100
    },
    {
      "midi": 73,
      "hit": false,
      "t": 75846.77925000015,
      "d": 115.92742708332662,
      "v": 100
    },
    {
      "midi": 68,
      "hit": false,
      "t": 75967.74700000015,
      "d": 236.89517708333733,
      "v": 100
    },
    {
      "midi": 72,
      "hit": false,
      "t": 75967.74700000015,
      "d": 236.89517708333733,
      "v": 100
    },
    {
      "midi": 55,
      "hit": false,
      "t": 76209.6825,
      "d": 720.7661770833365,
      "v": 100
    },
    {
      "midi": 52,
      "hit": false,
      "t": 76209.6825,
      "d": 720.7661770833365,
      "v": 100
    },
    {
      "midi": 48,
      "hit": false,
      "t": 76209.6825,
      "d": 720.7661770833365,
      "v": 100
    },
    {
      "midi": 70,
      "hit": false,
      "t": 76209.68250000016,
      "d": 236.89517708333733,
      "v": 100
    },
    {
      "midi": 67,
      "hit": false,
      "t": 76209.68250000016,
      "d": 236.89517708333733,
      "v": 100
    },
    {
      "midi": 70,
      "hit": false,
      "t": 76451.61800000016,
      "d": 115.92742708332662,
      "v": 100
    },
    {
      "midi": 67,
      "hit": false,
      "t": 76451.61800000016,
      "d": 115.92742708332662,
      "v": 100
    },
    {
      "midi": 72,
      "hit": false,
      "t": 76572.58575000016,
      "d": 115.92742708332662,
      "v": 100
    },
    {
      "midi": 68,
      "hit": false,
      "t": 76572.58575000016,
      "d": 115.92742708332662,
      "v": 100
    },
    {
      "midi": 70,
      "hit": false,
      "t": 76693.55350000015,
      "d": 236.89517708333733,
      "v": 100
    },
    {
      "midi": 67,
      "hit": false,
      "t": 76693.55350000015,
      "d": 236.89517708333733,
      "v": 100
    },
    {
      "midi": 53,
      "hit": false,
      "t": 76935.489,
      "d": 720.7661770833365,
      "v": 100
    },
    {
      "midi": 49,
      "hit": false,
      "t": 76935.489,
      "d": 720.7661770833365,
      "v": 100
    },
    {
      "midi": 44,
      "hit": false,
      "t": 76935.489,
      "d": 720.7661770833365,
      "v": 100
    },
    {
      "midi": 68,
      "hit": false,
      "t": 76935.48900000016,
      "d": 236.89517708333733,
      "v": 100
    },
    {
      "midi": 65,
      "hit": false,
      "t": 76935.48900000016,
      "d": 236.89517708333733,
      "v": 100
    },
    {
      "midi": 68,
      "hit": false,
      "t": 77177.42450000017,
      "d": 115.92742708332662,
      "v": 100
    },
    {
      "midi": 65,
      "hit": false,
      "t": 77177.42450000017,
      "d": 115.92742708332662,
      "v": 100
    },
    {
      "midi": 67,
      "hit": false,
      "t": 77298.39225000016,
      "d": 115.92742708332662,
      "v": 100
    },
    {
      "midi": 70,
      "hit": false,
      "t": 77298.39225000016,
      "d": 115.92742708332662,
      "v": 100
    },
    {
      "midi": 65,
      "hit": false,
      "t": 77419.36000000016,
      "d": 236.89517708333733,
      "v": 100
    },
    {
      "midi": 68,
      "hit": false,
      "t": 77419.36000000016,
      "d": 236.89517708333733,
      "v": 100
    },
    {
      "midi": 41,
      "hit": false,
      "t": 77661.29550000001,
      "d": 720.7661770833365,
      "v": 100
    },
    {
      "midi": 46,
      "hit": false,
      "t": 77661.29550000001,
      "d": 720.7661770833365,
      "v": 100
    },
    {
      "midi": 49,
      "hit": false,
      "t": 77661.29550000001,
      "d": 720.7661770833365,
      "v": 100
    },
    {
      "midi": 64,
      "hit": false,
      "t": 77661.29550000017,
      "d": 115.92742708332662,
      "v": 100
    },
    {
      "midi": 67,
      "hit": false,
      "t": 77661.29550000017,
      "d": 115.92742708332662,
      "v": 100
    },
    {
      "midi": 65,
      "hit": false,
      "t": 77782.26325000016,
      "d": 599.7984270833258,
      "v": 100
    },
    {
      "midi": 61,
      "hit": false,
      "t": 77782.26325000016,
      "d": 599.7984270833258,
      "v": 100
    },
    {
      "midi": 77,
      "hit": false,
      "t": 77903.23100000016,
      "d": 478.83067708332965,
      "v": 100
    },
    {
      "midi": 72,
      "hit": false,
      "t": 77903.23100000016,
      "d": 478.83067708332965,
      "v": 100
    },
    {
      "midi": 36,
      "hit": false,
      "t": 78387.10200000001,
      "d": 236.89517708333733,
      "v": 102
    },
    {
      "midi": 48,
      "hit": false,
      "t": 78387.10200000001,
      "d": 236.89517708333733,
      "v": 102
    },
    {
      "midi": 72,
      "hit": false,
      "t": 78387.10200000016,
      "d": 236.89517708333733,
      "v": 102
    },
    {
      "midi": 67,
      "hit": false,
      "t": 78387.10200000016,
      "d": 236.89517708333733,
      "v": 102
    },
    {
      "midi": 49,
      "hit": false,
      "t": 78750.00525000002,
      "d": 115.92742708332662,
      "v": 101
    },
    {
      "midi": 37,
      "hit": false,
      "t": 78750.00525000002,
      "d": 115.92742708332662,
      "v": 101
    },
    {
      "midi": 68,
      "hit": false,
      "t": 78750.00525000016,
      "d": 115.92742708332662,
      "v": 102
    },
    {
      "midi": 73,
      "hit": false,
      "t": 78750.00525000016,
      "d": 115.92742708332662,
      "v": 101
    },
    {
      "midi": 48,
      "hit": false,
      "t": 78870.97300000001,
      "d": 236.89517708333733,
      "v": 101
    },
    {
      "midi": 36,
      "hit": false,
      "t": 78870.97300000001,
      "d": 236.89517708333733,
      "v": 101
    },
    {
      "midi": 72,
      "hit": false,
      "t": 78870.97300000016,
      "d": 115.92742708332662,
      "v": 101
    },
    {
      "midi": 67,
      "hit": false,
      "t": 78870.97300000016,
      "d": 236.89517708332278,
      "v": 102
    },
    {
      "midi": 36,
      "hit": false,
      "t": 79112.90850000002,
      "d": 236.89517708333733,
      "v": 101
    },
    {
      "midi": 36,
      "hit": false,
      "t": 79354.84400000003,
      "d": 115.92742708332662,
      "v": 101
    },
    {
      "midi": 48,
      "hit": false,
      "t": 79354.84400000003,
      "d": 115.92742708332662,
      "v": 101
    },
    {
      "midi": 67,
      "hit": false,
      "t": 79354.84400000014,
      "d": 115.92742708332662,
      "v": 102
    },
    {
      "midi": 72,
      "hit": false,
      "t": 79354.84400000014,
      "d": 115.92742708332662,
      "v": 101
    },
    {
      "midi": 48,
      "hit": false,
      "t": 79596.77950000002,
      "d": 115.92742708332662,
      "v": 101
    },
    {
      "midi": 36,
      "hit": false,
      "t": 79596.77950000002,
      "d": 115.92742708332662,
      "v": 101
    },
    {
      "midi": 67,
      "hit": false,
      "t": 79596.77950000014,
      "d": 115.92742708332662,
      "v": 102
    },
    {
      "midi": 72,
      "hit": false,
      "t": 79596.77950000014,
      "d": 115.92742708332662,
      "v": 101
    },
    {
      "midi": 36,
      "hit": false,
      "t": 79838.71500000001,
      "d": 236.89517708333733,
      "v": 101
    },
    {
      "midi": 48,
      "hit": false,
      "t": 79838.71500000001,
      "d": 236.89517708333733,
      "v": 101
    },
    {
      "midi": 67,
      "hit": false,
      "t": 79838.71500000013,
      "d": 236.89517708333733,
      "v": 102
    },
    {
      "midi": 72,
      "hit": false,
      "t": 79838.71500000013,
      "d": 236.89517708333733,
      "v": 101
    },
    {
      "midi": 49,
      "hit": false,
      "t": 80201.61825000001,
      "d": 115.92742708332662,
      "v": 100
    },
    {
      "midi": 37,
      "hit": false,
      "t": 80201.61825000001,
      "d": 115.92742708332662,
      "v": 100
    },
    {
      "midi": 68,
      "hit": false,
      "t": 80201.61825000013,
      "d": 115.92742708332662,
      "v": 102
    },
    {
      "midi": 73,
      "hit": false,
      "t": 80201.61825000013,
      "d": 115.92742708332662,
      "v": 101
    },
    {
      "midi": 48,
      "hit": false,
      "t": 80322.58600000001,
      "d": 236.89517708333733,
      "v": 99
    },
    {
      "midi": 36,
      "hit": false,
      "t": 80322.58600000001,
      "d": 236.89517708333733,
      "v": 99
    },
    {
      "midi": 72,
      "hit": false,
      "t": 80322.58600000013,
      "d": 236.89517708333733,
      "v": 101
    },
    {
      "midi": 67,
      "hit": false,
      "t": 80322.58600000013,
      "d": 236.89517708333733,
      "v": 102
    },
    {
      "midi": 36,
      "hit": false,
      "t": 80564.52150000002,
      "d": 236.89517708333733,
      "v": 99
    },
    {
      "midi": 36,
      "hit": false,
      "t": 80806.45700000002,
      "d": 115.92742708332662,
      "v": 99
    },
    {
      "midi": 48,
      "hit": false,
      "t": 80806.45700000002,
      "d": 115.92742708332662,
      "v": 99
    },
    {
      "midi": 72,
      "hit": false,
      "t": 80806.45700000013,
      "d": 115.92742708332662,
      "v": 99
    },
    {
      "midi": 68,
      "hit": false,
      "t": 80806.45700000013,
      "d": 115.92742708332662,
      "v": 102
    },
    {
      "midi": 37,
      "hit": false,
      "t": 80927.42475000002,
      "d": 115.92742708332662,
      "v": 100
    },
    {
      "midi": 49,
      "hit": false,
      "t": 80927.42475000002,
      "d": 115.92742708332662,
      "v": 99
    },
    {
      "midi": 73,
      "hit": false,
      "t": 80927.42475000012,
      "d": 115.92742708332662,
      "v": 99
    },
    {
      "midi": 70,
      "hit": false,
      "t": 80927.42475000012,
      "d": 115.92742708332662,
      "v": 102
    },
    {
      "midi": 39,
      "hit": false,
      "t": 81048.39250000002,
      "d": 115.92742708332662,
      "v": 99
    },
    {
      "midi": 51,
      "hit": false,
      "t": 81048.39250000002,
      "d": 115.92742708332662,
      "v": 99
    },
    {
      "midi": 75,
      "hit": false,
      "t": 81048.39250000012,
      "d": 115.92742708332662,
      "v": 99
    },
    {
      "midi": 72,
      "hit": false,
      "t": 81048.39250000012,
      "d": 115.92742708332662,
      "v": 102
    },
    {
      "midi": 52,
      "hit": false,
      "t": 81169.36025000001,
      "d": 115.92742708332662,
      "v": 99
    },
    {
      "midi": 40,
      "hit": false,
      "t": 81169.36025000001,
      "d": 115.92742708332662,
      "v": 99
    },
    {
      "midi": 73,
      "hit": false,
      "t": 81169.36025000011,
      "d": 115.92742708332662,
      "v": 102
    },
    {
      "midi": 76,
      "hit": false,
      "t": 81169.36025000011,
      "d": 115.92742708332662,
      "v": 100
    },
    {
      "midi": 53,
      "hit": false,
      "t": 81290.32800000001,
      "d": 1446.572677083328,
      "v": 100
    },
    {
      "midi": 44,
      "hit": false,
      "t": 81290.32800000001,
      "d": 1446.572677083328,
      "v": 100
    },
    {
      "midi": 48,
      "hit": false,
      "t": 81290.32800000001,
      "d": 1446.572677083328,
      "v": 100
    },
    {
      "midi": 77,
      "hit": false,
      "t": 81290.32800000011,
      "d": 357.8629270833335,
      "v": 100
    },
    {
      "midi": 76,
      "hit": false,
      "t": 81653.23125000011,
      "d": 115.92742708332662,
      "v": 100
    },
    {
      "midi": 77,
      "hit": false,
      "t": 81774.19900000011,
      "d": 236.89517708333733,
      "v": 100
    },
    {
      "midi": 80,
      "hit": false,
      "t": 82016.13450000012,
      "d": 357.8629270833335,
      "v": 100
    },
    {
      "midi": 79,
      "hit": false,
      "t": 82379.03775000012,
      "d": 115.92742708332662,
      "v": 100
    },
    {
      "midi": 80,
      "hit": false,
      "t": 82500.00550000012,
      "d": 236.89517708333733,
      "v": 100
    },
    {
      "midi": 55,
      "hit": false,
      "t": 82741.941,
      "d": 1446.572677083328,
      "v": 100
    },
    {
      "midi": 49,
      "hit": false,
      "t": 82741.941,
      "d": 1446.572677083328,
      "v": 100
    },
    {
      "midi": 46,
      "hit": false,
      "t": 82741.941,
      "d": 1446.572677083328,
      "v": 100
    },
    {
      "midi": 82,
      "hit": false,
      "t": 82741.94100000012,
      "d": 236.89517708333733,
      "v": 100
    },
    {
      "midi": 82,
      "hit": false,
      "t": 82983.87650000013,
      "d": 115.92742708332662,
      "v": 100
    },
    {
      "midi": 80,
      "hit": false,
      "t": 83104.84425000013,
      "d": 115.92742708332662,
      "v": 100
    },
    {
      "midi": 79,
      "hit": false,
      "t": 83225.81200000012,
      "d": 115.92742708332662,
      "v": 100
    },
    {
      "midi": 77,
      "hit": false,
      "t": 83346.77975000012,
      "d": 115.92742708332662,
      "v": 100
    },
    {
      "midi": 82,
      "hit": false,
      "t": 83467.74750000011,
      "d": 236.89517708333733,
      "v": 100
    },
    {
      "midi": 82,
      "hit": false,
      "t": 83709.68300000012,
      "d": 115.92742708332662,
      "v": 100
    },
    {
      "midi": 80,
      "hit": false,
      "t": 83830.65075000012,
      "d": 115.92742708332662,
      "v": 100
    },
    {
      "midi": 79,
      "hit": false,
      "t": 83951.61850000011,
      "d": 115.92742708332662,
      "v": 100
    },
    {
      "midi": 77,
      "hit": false,
      "t": 84072.58625000011,
      "d": 115.92742708332662,
      "v": 100
    },
    {
      "midi": 53,
      "hit": false,
      "t": 84193.554,
      "d": 1446.572677083328,
      "v": 100
    },
    {
      "midi": 44,
      "hit": false,
      "t": 84193.554,
      "d": 1446.572677083328,
      "v": 100
    },
    {
      "midi": 48,
      "hit": false,
      "t": 84193.554,
      "d": 1446.572677083328,
      "v": 100
    },
    {
      "midi": 77,
      "hit": false,
      "t": 84193.5540000001,
      "d": 357.8629270833335,
      "v": 100
    },
    {
      "midi": 76,
      "hit": false,
      "t": 84556.45725000011,
      "d": 115.92742708332662,
      "v": 100
    },
    {
      "midi": 77,
      "hit": false,
      "t": 84677.4250000001,
      "d": 236.89517708333733,
      "v": 100
    },
    {
      "midi": 80,
      "hit": false,
      "t": 84919.36050000011,
      "d": 357.8629270833335,
      "v": 100
    },
    {
      "midi": 79,
      "hit": false,
      "t": 85282.26375000011,
      "d": 115.92742708332662,
      "v": 100
    },
    {
      "midi": 80,
      "hit": false,
      "t": 85403.23150000011,
      "d": 236.89517708333733,
      "v": 100
    },
    {
      "midi": 46,
      "hit": false,
      "t": 85645.167,
      "d": 1446.572677083328,
      "v": 100
    },
    {
      "midi": 49,
      "hit": false,
      "t": 85645.167,
      "d": 1446.572677083328,
      "v": 100
    },
    {
      "midi": 55,
      "hit": false,
      "t": 85645.167,
      "d": 1446.572677083328,
      "v": 100
    },
    {
      "midi": 82,
      "hit": false,
      "t": 85645.16700000012,
      "d": 236.89517708333733,
      "v": 100
    },
    {
      "midi": 82,
      "hit": false,
      "t": 85887.10250000012,
      "d": 115.92742708332662,
      "v": 100
    },
    {
      "midi": 80,
      "hit": false,
      "t": 86008.07025000012,
      "d": 115.92742708332662,
      "v": 100
    },
    {
      "midi": 79,
      "hit": false,
      "t": 86129.03800000012,
      "d": 115.92742708332662,
      "v": 100
    },
    {
      "midi": 77,
      "hit": false,
      "t": 86250.00575000011,
      "d": 115.92742708332662,
      "v": 100
    },
    {
      "midi": 82,
      "hit": false,
      "t": 86370.97350000011,
      "d": 115.92742708332662,
      "v": 100
    },
    {
      "midi": 84,
      "hit": false,
      "t": 86491.9412500001,
      "d": 115.92742708332662,
      "v": 100
    },
    {
      "midi": 82,
      "hit": false,
      "t": 86612.9090000001,
      "d": 115.92742708332662,
      "v": 100
    },
    {
      "midi": 80,
      "hit": false,
      "t": 86733.8767500001,
      "d": 115.92742708332662,
      "v": 100
    },
    {
      "midi": 79,
      "hit": false,
      "t": 86854.8445000001,
      "d": 115.92742708332662,
      "v": 100
    },
    {
      "midi": 77,
      "hit": false,
      "t": 86975.81225000009,
      "d": 115.92742708332662,
      "v": 100
    },
    {
      "midi": 44,
      "hit": false,
      "t": 87096.78,
      "d": 1446.572677083328,
      "v": 100
    },
    {
      "midi": 48,
      "hit": false,
      "t": 87096.78,
      "d": 1446.572677083328,
      "v": 100
    },
    {
      "midi": 56,
      "hit": false,
      "t": 87096.78,
      "d": 1446.572677083328,
      "v": 100
    },
    {
      "midi": 65,
      "hit": false,
      "t": 87096.78000000009,
      "d": 236.89517708333733,
      "v": 100
    },
    {
      "midi": 77,
      "hit": false,
      "t": 87096.78000000009,
      "d": 236.89517708333733,
      "v": 100
    },
    {
      "midi": 64,
      "hit": false,
      "t": 87459.68325000009,
      "d": 115.92742708332662,
      "v": 100
    },
    {
      "midi": 76,
      "hit": false,
      "t": 87459.68325000009,
      "d": 115.92742708332662,
      "v": 100
    },
    {
      "midi": 77,
      "hit": false,
      "t": 87580.65100000009,
      "d": 236.89517708333733,
      "v": 100
    },
    {
      "midi": 65,
      "hit": false,
      "t": 87580.65100000009,
      "d": 236.89517708333733,
      "v": 100
    },
    {
      "midi": 80,
      "hit": false,
      "t": 87822.58650000009,
      "d": 236.89517708333733,
      "v": 100
    },
    {
      "midi": 68,
      "hit": false,
      "t": 87822.58650000009,
      "d": 236.89517708333733,
      "v": 100
    },
    {
      "midi": 67,
      "hit": false,
      "t": 88185.4897500001,
      "d": 115.92742708332662,
      "v": 100
    },
    {
      "midi": 79,
      "hit": false,
      "t": 88185.4897500001,
      "d": 115.92742708332662,
      "v": 100
    },
    {
      "midi": 80,
      "hit": false,
      "t": 88306.45750000009,
      "d": 236.89517708333733,
      "v": 100
    },
    {
      "midi": 68,
      "hit": false,
      "t": 88306.45750000009,
      "d": 236.89517708333733,
      "v": 100
    },
    {
      "midi": 58,
      "hit": false,
      "t": 88548.393,
      "d": 1446.572677083328,
      "v": 100
    },
    {
      "midi": 49,
      "hit": false,
      "t": 88548.393,
      "d": 1446.572677083328,
      "v": 100
    },
    {
      "midi": 46,
      "hit": false,
      "t": 88548.393,
      "d": 1446.572677083328,
      "v": 100
    },
    {
      "midi": 82,
      "hit": false,
      "t": 88548.3930000001,
      "d": 236.89517708333733,
      "v": 100
    },
    {
      "midi": 70,
      "hit": false,
      "t": 88548.3930000001,
      "d": 236.89517708333733,
      "v": 100
    },
    {
      "midi": 68,
      "hit": false,
      "t": 88911.2962500001,
      "d": 115.92742708332662,
      "v": 100
    },
    {
      "midi": 80,
      "hit": false,
      "t": 88911.2962500001,
      "d": 115.92742708332662,
      "v": 100
    },
    {
      "midi": 82,
      "hit": false,
      "t": 89032.2640000001,
      "d": 236.89517708333733,
      "v": 100
    },
    {
      "midi": 70,
      "hit": false,
      "t": 89032.2640000001,
      "d": 236.89517708333733,
      "v": 100
    },
    {
      "midi": 82,
      "hit": false,
      "t": 89274.1995000001,
      "d": 236.89517708333733,
      "v": 100
    },
    {
      "midi": 70,
      "hit": false,
      "t": 89274.1995000001,
      "d": 236.89517708333733,
      "v": 100
    },
    {
      "midi": 72,
      "hit": false,
      "t": 89516.13500000011,
      "d": 236.89517708333733,
      "v": 100
    },
    {
      "midi": 84,
      "hit": false,
      "t": 89516.13500000011,
      "d": 236.89517708333733,
      "v": 100
    },
    {
      "midi": 73,
      "hit": false,
      "t": 89758.07050000012,
      "d": 236.89517708333733,
      "v": 100
    },
    {
      "midi": 85,
      "hit": false,
      "t": 89758.07050000012,
      "d": 236.89517708333733,
      "v": 100
    },
    {
      "midi": 60,
      "hit": false,
      "t": 90000.006,
      "d": 236.89517708333733,
      "v": 100
    },
    {
      "midi": 67,
      "hit": false,
      "t": 90000.006,
      "d": 236.89517708333733,
      "v": 100
    },
    {
      "midi": 84,
      "hit": false,
      "t": 90000.00600000012,
      "d": 236.89517708333733,
      "v": 100
    },
    {
      "midi": 72,
      "hit": false,
      "t": 90000.00600000012,
      "d": 236.89517708333733,
      "v": 100
    },
    {
      "midi": 60,
      "hit": false,
      "t": 90241.9415,
      "d": 115.92742708332662,
      "v": 100
    },
    {
      "midi": 58,
      "hit": false,
      "t": 90362.90925,
      "d": 115.92742708332662,
      "v": 100
    },
    {
      "midi": 56,
      "hit": false,
      "t": 90483.877,
      "d": 115.92742708332662,
      "v": 100
    },
    {
      "midi": 55,
      "hit": false,
      "t": 90604.84474999999,
      "d": 115.92742708332662,
      "v": 100
    },
    {
      "midi": 60,
      "hit": false,
      "t": 90725.81249999999,
      "d": 115.92742708332662,
      "v": 100
    },
    {
      "midi": 84,
      "hit": false,
      "t": 90725.81250000013,
      "d": 115.92742708332662,
      "v": 100
    },
    {
      "midi": 58,
      "hit": false,
      "t": 90846.78024999998,
      "d": 115.92742708332662,
      "v": 100
    },
    {
      "midi": 82,
      "hit": false,
      "t": 90846.78025000013,
      "d": 115.92742708332662,
      "v": 100
    },
    {
      "midi": 56,
      "hit": false,
      "t": 90967.74799999998,
      "d": 115.92742708332662,
      "v": 100
    },
    {
      "midi": 80,
      "hit": false,
      "t": 90967.74800000012,
      "d": 115.92742708332662,
      "v": 100
    },
    {
      "midi": 55,
      "hit": false,
      "t": 91088.71574999997,
      "d": 115.92742708332662,
      "v": 100
    },
    {
      "midi": 79,
      "hit": false,
      "t": 91088.71575000012,
      "d": 115.92742708332662,
      "v": 100
    },
    {
      "midi": 53,
      "hit": false,
      "t": 91209.68349999997,
      "d": 115.92742708332662,
      "v": 100
    },
    {
      "midi": 77,
      "hit": false,
      "t": 91209.68350000012,
      "d": 115.92742708332662,
      "v": 100
    },
    {
      "midi": 52,
      "hit": false,
      "t": 91330.65124999997,
      "d": 115.92742708332662,
      "v": 100
    },
    {
      "midi": 76,
      "hit": false,
      "t": 91330.65125000011,
      "d": 115.92742708332662,
      "v": 100
    },
    {
      "midi": 72,
      "hit": false,
      "t": 91451.61900000011,
      "d": 115.92742708332662,
      "v": 100
    },
    {
      "midi": 70,
      "hit": false,
      "t": 91572.5867500001,
      "d": 115.92742708332662,
      "v": 100
    },
    {
      "midi": 68,
      "hit": false,
      "t": 91693.5545000001,
      "d": 115.92742708332662,
      "v": 100
    },
    {
      "midi": 67,
      "hit": false,
      "t": 91814.5222500001,
      "d": 115.92742708332662,
      "v": 100
    },
    {
      "midi": 65,
      "hit": false,
      "t": 91935.49000000009,
      "d": 115.92742708332662,
      "v": 100
    },
    {
      "midi": 64,
      "hit": false,
      "t": 92056.45775000009,
      "d": 115.92742708332662,
      "v": 100
    },
    {
      "midi": 60,
      "hit": false,
      "t": 92177.42550000008,
      "d": 115.92742708332662,
      "v": 100
    },
    {
      "midi": 58,
      "hit": false,
      "t": 92298.39325000008,
      "d": 115.92742708332662,
      "v": 100
    },
    {
      "midi": 56,
      "hit": false,
      "t": 92419.36100000008,
      "d": 115.92742708332662,
      "v": 100
    },
    {
      "midi": 55,
      "hit": false,
      "t": 92540.32875000007,
      "d": 115.92742708332662,
      "v": 100
    },
    {
      "midi": 53,
      "hit": false,
      "t": 92661.29650000007,
      "d": 115.92742708332662,
      "v": 100
    },
    {
      "midi": 52,
      "hit": false,
      "t": 92782.26425000007,
      "d": 115.92742708332662,
      "v": 100
    },
    {
      "midi": 41,
      "hit": false,
      "t": 92903.23199999996,
      "d": 7736.895677083332,
      "v": 100
    },
    {
      "midi": 29,
      "hit": false,
      "t": 92903.23199999996,
      "d": 7736.895677083332,
      "v": 100
    },
    {
      "midi": 48,
      "hit": false,
      "t": 92903.23200000006,
      "d": 7736.895677083332,
      "v": 100
    },
    {
      "midi": 53,
      "hit": false,
      "t": 92903.23200000006,
      "d": 7736.895677083332,
      "v": 100
    },
    {
      "midi": 56,
      "hit": false,
      "t": 92903.23200000006,
      "d": 7736.895677083332,
      "v": 100
    }
  ]
}