{
  "jsonPath": "Soundtracks/Video Game Music/Kingdom Hearts/kingdom-hearts-3582-days-xionstheme.json",
  "path": "Soundtracks\\Video Game Music\\Kingdom Hearts\\Kingdom_Hearts_3582_Days_XionsTheme.mid",
  "name": "Kingdom_Hearts_3582_Days_XionsTheme",
  "difficulty": "Advanced",
  "bpm": 53.000022083342536,
  "notes": [
    {
      "midi": 60,
      "hit": false,
      "t": 0,
      "d": 554.2450520833333,
      "v": 110
    },
    {
      "midi": 43,
      "hit": false,
      "t": 0,
      "d": 554.2450520833333,
      "v": 110
    },
    {
      "midi": 62,
      "hit": false,
      "t": 566.0375,
      "d": 554.2450520833335,
      "v": 110
    },
    {
      "midi": 50,
      "hit": false,
      "t": 566.0375,
      "d": 554.2450520833335,
      "v": 110
    },
    {
      "midi": 65,
      "hit": false,
      "t": 1132.075,
      "d": 554.2450520833333,
      "v": 110
    },
    {
      "midi": 55,
      "hit": false,
      "t": 1132.075,
      "d": 943.3958333333333,
      "v": 110
    },
    {
      "midi": 58,
      "hit": false,
      "t": 1132.075,
      "d": 943.3958333333333,
      "v": 110
    },
    {
      "midi": 60,
      "hit": false,
      "t": 1698.1125,
      "d": 188.67916666666656,
      "v": 110
    },
    {
      "midi": 62,
      "hit": false,
      "t": 2264.1499999999996,
      "d": 554.2450520833336,
      "v": 110
    },
    {
      "midi": 39,
      "hit": false,
      "t": 2264.15,
      "d": 554.2450520833331,
      "v": 110
    },
    {
      "midi": 65,
      "hit": false,
      "t": 2830.1875,
      "d": 554.2450520833336,
      "v": 110
    },
    {
      "midi": 46,
      "hit": false,
      "t": 2830.1875,
      "d": 554.2450520833336,
      "v": 110
    },
    {
      "midi": 60,
      "hit": false,
      "t": 3396.2250000000004,
      "d": 554.2450520833336,
      "v": 110
    },
    {
      "midi": 53,
      "hit": false,
      "t": 3396.2250000000004,
      "d": 943.395833333333,
      "v": 110
    },
    {
      "midi": 55,
      "hit": false,
      "t": 3396.2250000000004,
      "d": 943.395833333333,
      "v": 110
    },
    {
      "midi": 62,
      "hit": false,
      "t": 3962.2625000000007,
      "d": 188.6791666666668,
      "v": 110
    },
    {
      "midi": 41,
      "hit": false,
      "t": 4528.3,
      "d": 554.2450520833336,
      "v": 110
    },
    {
      "midi": 65,
      "hit": false,
      "t": 4528.300000000001,
      "d": 554.2450520833336,
      "v": 110
    },
    {
      "midi": 48,
      "hit": false,
      "t": 5094.337500000001,
      "d": 554.2450520833336,
      "v": 110
    },
    {
      "midi": 60,
      "hit": false,
      "t": 5094.3375000000015,
      "d": 554.2450520833336,
      "v": 110
    },
    {
      "midi": 53,
      "hit": false,
      "t": 5660.375000000001,
      "d": 943.395833333333,
      "v": 110
    },
    {
      "midi": 57,
      "hit": false,
      "t": 5660.375000000001,
      "d": 943.395833333333,
      "v": 110
    },
    {
      "midi": 62,
      "hit": false,
      "t": 5660.375000000002,
      "d": 554.2450520833336,
      "v": 110
    },
    {
      "midi": 60,
      "hit": false,
      "t": 6226.412500000002,
      "d": 188.6791666666668,
      "v": 110
    },
    {
      "midi": 43,
      "hit": false,
      "t": 6792.450000000001,
      "d": 554.2450520833336,
      "v": 110
    },
    {
      "midi": 58,
      "hit": false,
      "t": 6792.450000000003,
      "d": 554.2450520833336,
      "v": 110
    },
    {
      "midi": 50,
      "hit": false,
      "t": 7358.487500000001,
      "d": 554.2450520833336,
      "v": 110
    },
    {
      "midi": 60,
      "hit": false,
      "t": 7358.487500000003,
      "d": 554.2450520833336,
      "v": 110
    },
    {
      "midi": 53,
      "hit": false,
      "t": 7924.5250000000015,
      "d": 943.3958333333339,
      "v": 110
    },
    {
      "midi": 57,
      "hit": false,
      "t": 7924.5250000000015,
      "d": 943.3958333333339,
      "v": 110
    },
    {
      "midi": 62,
      "hit": false,
      "t": 7924.525000000003,
      "d": 554.2450520833336,
      "v": 110
    },
    {
      "midi": 77,
      "hit": false,
      "t": 8490.562500000004,
      "d": 554.2450520833336,
      "v": 110
    },
    {
      "midi": 39,
      "hit": false,
      "t": 9056.600000000002,
      "d": 554.2450520833336,
      "v": 110
    },
    {
      "midi": 72,
      "hit": false,
      "t": 9056.600000000004,
      "d": 1509.4333333333325,
      "v": 110
    },
    {
      "midi": 46,
      "hit": false,
      "t": 9622.637500000003,
      "d": 554.2450520833336,
      "v": 110
    },
    {
      "midi": 51,
      "hit": false,
      "t": 10188.675000000003,
      "d": 943.3958333333339,
      "v": 110
    },
    {
      "midi": 55,
      "hit": false,
      "t": 10188.675000000003,
      "d": 943.3958333333339,
      "v": 110
    },
    {
      "midi": 74,
      "hit": false,
      "t": 10754.712500000003,
      "d": 554.2450520833336,
      "v": 110
    },
    {
      "midi": 67,
      "hit": false,
      "t": 11320.750000000004,
      "d": 1509.4333333333343,
      "v": 110
    },
    {
      "midi": 41,
      "hit": false,
      "t": 11320.750000000004,
      "d": 554.2450520833336,
      "v": 110
    },
    {
      "midi": 48,
      "hit": false,
      "t": 11886.787500000004,
      "d": 554.2450520833336,
      "v": 110
    },
    {
      "midi": 55,
      "hit": false,
      "t": 12452.825000000004,
      "d": 943.3958333333339,
      "v": 110
    },
    {
      "midi": 58,
      "hit": false,
      "t": 12452.825000000004,
      "d": 943.3958333333339,
      "v": 110
    },
    {
      "midi": 69,
      "hit": false,
      "t": 13018.862500000005,
      "d": 554.2450520833336,
      "v": 110
    },
    {
      "midi": 69,
      "hit": false,
      "t": 13584.900000000005,
      "d": 271.2263020833325,
      "v": 110
    },
    {
      "midi": 43,
      "hit": false,
      "t": 13584.900000000005,
      "d": 554.2450520833336,
      "v": 110
    },
    {
      "midi": 70,
      "hit": false,
      "t": 13867.918750000004,
      "d": 271.2263020833325,
      "v": 110
    },
    {
      "midi": 69,
      "hit": false,
      "t": 14150.937500000004,
      "d": 271.2263020833325,
      "v": 110
    },
    {
      "midi": 50,
      "hit": false,
      "t": 14150.937500000005,
      "d": 554.2450520833336,
      "v": 110
    },
    {
      "midi": 62,
      "hit": false,
      "t": 14433.956250000003,
      "d": 271.2263020833325,
      "v": 110
    },
    {
      "midi": 69,
      "hit": false,
      "t": 14716.975000000002,
      "d": 554.2450520833336,
      "v": 110
    },
    {
      "midi": 55,
      "hit": false,
      "t": 14716.975000000006,
      "d": 554.2450520833336,
      "v": 110
    },
    {
      "midi": 70,
      "hit": false,
      "t": 15283.012500000003,
      "d": 554.2450520833336,
      "v": 110
    },
    {
      "midi": 50,
      "hit": false,
      "t": 15283.012500000006,
      "d": 554.2450520833336,
      "v": 110
    },
    {
      "midi": 69,
      "hit": false,
      "t": 15849.050000000003,
      "d": 554.2450520833336,
      "v": 110
    },
    {
      "midi": 31,
      "hit": false,
      "t": 15849.050000000007,
      "d": 554.2450520833336,
      "v": 110
    },
    {
      "midi": 67,
      "hit": false,
      "t": 16415.0875,
      "d": 554.2450520833336,
      "v": 110
    },
    {
      "midi": 38,
      "hit": false,
      "t": 16415.087500000005,
      "d": 554.2450520833336,
      "v": 110
    },
    {
      "midi": 62,
      "hit": false,
      "t": 16981.125,
      "d": 554.2450520833336,
      "v": 110
    },
    {
      "midi": 45,
      "hit": false,
      "t": 16981.125000000004,
      "d": 554.2450520833336,
      "v": 110
    },
    {
      "midi": 77,
      "hit": false,
      "t": 17547.1625,
      "d": 554.2450520833336,
      "v": 110
    },
    {
      "midi": 46,
      "hit": false,
      "t": 17547.162500000002,
      "d": 554.2450520833336,
      "v": 110
    },
    {
      "midi": 72,
      "hit": false,
      "t": 18113.199999999997,
      "d": 1509.4333333333343,
      "v": 110
    },
    {
      "midi": 39,
      "hit": false,
      "t": 18113.2,
      "d": 554.2450520833336,
      "v": 110
    },
    {
      "midi": 46,
      "hit": false,
      "t": 18679.2375,
      "d": 554.2450520833336,
      "v": 110
    },
    {
      "midi": 51,
      "hit": false,
      "t": 19245.274999999998,
      "d": 943.3958333333321,
      "v": 110
    },
    {
      "midi": 55,
      "hit": false,
      "t": 19245.274999999998,
      "d": 943.3958333333321,
      "v": 110
    },
    {
      "midi": 74,
      "hit": false,
      "t": 19811.312499999996,
      "d": 554.2450520833336,
      "v": 110
    },
    {
      "midi": 79,
      "hit": false,
      "t": 20377.349999999995,
      "d": 1509.4333333333343,
      "v": 110
    },
    {
      "midi": 41,
      "hit": false,
      "t": 20377.349999999995,
      "d": 554.2450520833336,
      "v": 110
    },
    {
      "midi": 48,
      "hit": false,
      "t": 20943.387499999993,
      "d": 554.2450520833336,
      "v": 110
    },
    {
      "midi": 55,
      "hit": false,
      "t": 21509.424999999992,
      "d": 943.3958333333321,
      "v": 110
    },
    {
      "midi": 57,
      "hit": false,
      "t": 21509.424999999992,
      "d": 943.3958333333321,
      "v": 110
    },
    {
      "midi": 81,
      "hit": false,
      "t": 22075.462499999994,
      "d": 554.2450520833336,
      "v": 110
    },
    {
      "midi": 43,
      "hit": false,
      "t": 22641.49999999999,
      "d": 554.2450520833336,
      "v": 110
    },
    {
      "midi": 74,
      "hit": false,
      "t": 22641.499999999993,
      "d": 943.3958333333321,
      "v": 110
    },
    {
      "midi": 50,
      "hit": false,
      "t": 23207.537499999988,
      "d": 554.2450520833336,
      "v": 110
    },
    {
      "midi": 57,
      "hit": false,
      "t": 23773.574999999986,
      "d": 943.3958333333321,
      "v": 110
    },
    {
      "midi": 58,
      "hit": false,
      "t": 23773.574999999986,
      "d": 943.3958333333321,
      "v": 110
    },
    {
      "midi": 69,
      "hit": false,
      "t": 23773.57499999999,
      "d": 554.2450520833336,
      "v": 110
    },
    {
      "midi": 67,
      "hit": false,
      "t": 24339.61249999999,
      "d": 554.2450520833336,
      "v": 110
    },
    {
      "midi": 31,
      "hit": false,
      "t": 24905.649999999983,
      "d": 554.2450520833336,
      "v": 110
    },
    {
      "midi": 62,
      "hit": false,
      "t": 24905.649999999987,
      "d": 1509.4333333333343,
      "v": 110
    },
    {
      "midi": 38,
      "hit": false,
      "t": 25471.68749999998,
      "d": 554.2450520833336,
      "v": 110
    },
    {
      "midi": 45,
      "hit": false,
      "t": 26037.72499999998,
      "d": 943.3958333333321,
      "v": 110
    },
    {
      "midi": 46,
      "hit": false,
      "t": 26037.72499999998,
      "d": 943.3958333333321,
      "v": 110
    },
    {
      "midi": 74,
      "hit": false,
      "t": 26603.762499999986,
      "d": 554.2450520833336,
      "v": 110
    },
    {
      "midi": 77,
      "hit": false,
      "t": 26603.762499999986,
      "d": 554.2450520833336,
      "v": 110
    },
    {
      "midi": 39,
      "hit": false,
      "t": 27169.799999999977,
      "d": 554.2450520833336,
      "v": 110
    },
    {
      "midi": 67,
      "hit": false,
      "t": 27169.799999999985,
      "d": 1509.4333333333343,
      "v": 110
    },
    {
      "midi": 72,
      "hit": false,
      "t": 27169.799999999985,
      "d": 1509.4333333333343,
      "v": 110
    },
    {
      "midi": 46,
      "hit": false,
      "t": 27735.837499999976,
      "d": 554.2450520833336,
      "v": 110
    },
    {
      "midi": 51,
      "hit": false,
      "t": 28301.874999999975,
      "d": 943.3958333333321,
      "v": 110
    },
    {
      "midi": 55,
      "hit": false,
      "t": 28301.874999999975,
      "d": 943.3958333333321,
      "v": 110
    },
    {
      "midi": 72,
      "hit": false,
      "t": 28867.912499999984,
      "d": 554.2450520833336,
      "v": 110
    },
    {
      "midi": 74,
      "hit": false,
      "t": 28867.912499999984,
      "d": 554.2450520833336,
      "v": 110
    },
    {
      "midi": 41,
      "hit": false,
      "t": 29433.94999999997,
      "d": 554.2450520833336,
      "v": 110
    },
    {
      "midi": 62,
      "hit": false,
      "t": 29433.949999999983,
      "d": 1509.4333333333343,
      "v": 110
    },
    {
      "midi": 67,
      "hit": false,
      "t": 29433.949999999983,
      "d": 1509.4333333333343,
      "v": 110
    },
    {
      "midi": 48,
      "hit": false,
      "t": 29999.98749999997,
      "d": 554.2450520833336,
      "v": 110
    },
    {
      "midi": 55,
      "hit": false,
      "t": 30566.02499999997,
      "d": 943.3958333333321,
      "v": 110
    },
    {
      "midi": 57,
      "hit": false,
      "t": 30566.02499999997,
      "d": 943.3958333333321,
      "v": 110
    },
    {
      "midi": 67,
      "hit": false,
      "t": 31132.06249999998,
      "d": 554.2450520833336,
      "v": 110
    },
    {
      "midi": 69,
      "hit": false,
      "t": 31132.06249999998,
      "d": 554.2450520833336,
      "v": 110
    },
    {
      "midi": 43,
      "hit": false,
      "t": 31698.099999999966,
      "d": 554.2450520833336,
      "v": 110
    },
    {
      "midi": 69,
      "hit": false,
      "t": 31698.09999999998,
      "d": 271.2263020833343,
      "v": 110
    },
    {
      "midi": 70,
      "hit": false,
      "t": 31981.11874999998,
      "d": 271.2263020833343,
      "v": 110
    },
    {
      "midi": 50,
      "hit": false,
      "t": 32264.137499999964,
      "d": 554.2450520833336,
      "v": 110
    },
    {
      "midi": 69,
      "hit": false,
      "t": 32264.13749999998,
      "d": 271.2263020833343,
      "v": 110
    },
    {
      "midi": 62,
      "hit": false,
      "t": 32547.156249999978,
      "d": 271.2263020833343,
      "v": 110
    },
    {
      "midi": 50,
      "hit": false,
      "t": 32830.17499999997,
      "d": 943.3958333333358,
      "v": 110
    },
    {
      "midi": 55,
      "hit": false,
      "t": 32830.17499999997,
      "d": 943.3958333333358,
      "v": 110
    },
    {
      "midi": 69,
      "hit": false,
      "t": 32830.17499999998,
      "d": 554.2450520833299,
      "v": 110
    },
    {
      "midi": 70,
      "hit": false,
      "t": 33396.21249999998,
      "d": 554.2450520833299,
      "v": 110
    },
    {
      "midi": 31,
      "hit": false,
      "t": 33962.24999999997,
      "d": 554.2450520833299,
      "v": 110
    },
    {
      "midi": 69,
      "hit": false,
      "t": 33962.24999999998,
      "d": 554.2450520833299,
      "v": 110
    },
    {
      "midi": 38,
      "hit": false,
      "t": 34528.28749999997,
      "d": 554.2450520833299,
      "v": 110
    },
    {
      "midi": 67,
      "hit": false,
      "t": 34528.28749999998,
      "d": 554.2450520833299,
      "v": 110
    },
    {
      "midi": 45,
      "hit": false,
      "t": 35094.32499999997,
      "d": 554.2450520833299,
      "v": 110
    },
    {
      "midi": 62,
      "hit": false,
      "t": 35094.324999999975,
      "d": 554.2450520833299,
      "v": 110
    },
    {
      "midi": 46,
      "hit": false,
      "t": 35660.36249999997,
      "d": 554.2450520833299,
      "v": 110
    },
    {
      "midi": 77,
      "hit": false,
      "t": 35660.362499999974,
      "d": 554.2450520833299,
      "v": 110
    },
    {
      "midi": 39,
      "hit": false,
      "t": 36226.399999999965,
      "d": 554.2450520833299,
      "v": 110
    },
    {
      "midi": 67,
      "hit": false,
      "t": 36226.39999999997,
      "d": 1509.4333333333343,
      "v": 110
    },
    {
      "midi": 72,
      "hit": false,
      "t": 36226.39999999997,
      "d": 1509.4333333333343,
      "v": 110
    },
    {
      "midi": 46,
      "hit": false,
      "t": 36792.43749999996,
      "d": 554.2450520833299,
      "v": 110
    },
    {
      "midi": 51,
      "hit": false,
      "t": 37358.47499999996,
      "d": 943.3958333333358,
      "v": 110
    },
    {
      "midi": 55,
      "hit": false,
      "t": 37358.47499999996,
      "d": 943.3958333333358,
      "v": 110
    },
    {
      "midi": 72,
      "hit": false,
      "t": 37924.512499999975,
      "d": 554.2450520833299,
      "v": 110
    },
    {
      "midi": 74,
      "hit": false,
      "t": 37924.512499999975,
      "d": 554.2450520833299,
      "v": 110
    },
    {
      "midi": 41,
      "hit": false,
      "t": 38490.54999999997,
      "d": 554.2450520833299,
      "v": 110
    },
    {
      "midi": 74,
      "hit": false,
      "t": 38490.549999999974,
      "d": 1509.4333333333343,
      "v": 110
    },
    {
      "midi": 79,
      "hit": false,
      "t": 38490.549999999974,
      "d": 1509.4333333333343,
      "v": 110
    },
    {
      "midi": 48,
      "hit": false,
      "t": 39056.587499999965,
      "d": 554.2450520833299,
      "v": 110
    },
    {
      "midi": 55,
      "hit": false,
      "t": 39622.62499999996,
      "d": 554.2450520833299,
      "v": 110
    },
    {
      "midi": 57,
      "hit": false,
      "t": 40188.66249999996,
      "d": 554.2450520833299,
      "v": 110
    },
    {
      "midi": 79,
      "hit": false,
      "t": 40188.66249999998,
      "d": 554.2450520833299,
      "v": 110
    },
    {
      "midi": 81,
      "hit": false,
      "t": 40188.66249999998,
      "d": 554.2450520833299,
      "v": 110
    },
    {
      "midi": 43,
      "hit": false,
      "t": 40754.69999999996,
      "d": 554.2450520833299,
      "v": 110
    },
    {
      "midi": 69,
      "hit": false,
      "t": 40754.699999999975,
      "d": 1509.4333333333343,
      "v": 110
    },
    {
      "midi": 74,
      "hit": false,
      "t": 40754.699999999975,
      "d": 1509.4333333333343,
      "v": 110
    },
    {
      "midi": 50,
      "hit": false,
      "t": 41320.73749999996,
      "d": 554.2450520833299,
      "v": 110
    },
    {
      "midi": 58,
      "hit": false,
      "t": 41886.77499999996,
      "d": 554.2450520833299,
      "v": 110
    },
    {
      "midi": 57,
      "hit": false,
      "t": 42452.812499999956,
      "d": 554.2450520833299,
      "v": 110
    },
    {
      "midi": 67,
      "hit": false,
      "t": 42452.81249999998,
      "d": 554.2450520833299,
      "v": 110
    },
    {
      "midi": 31,
      "hit": false,
      "t": 43018.849999999955,
      "d": 554.2450520833299,
      "v": 110
    },
    {
      "midi": 62,
      "hit": false,
      "t": 43018.84999999998,
      "d": 1981.1312499999985,
      "v": 110
    },
    {
      "midi": 38,
      "hit": false,
      "t": 43584.88749999995,
      "d": 554.2450520833299,
      "v": 110
    },
    {
      "midi": 45,
      "hit": false,
      "t": 44150.92499999995,
      "d": 554.2450520833299,
      "v": 110
    },
    {
      "midi": 46,
      "hit": false,
      "t": 44716.96249999995,
      "d": 554.2450520833299,
      "v": 110
    },
    {
      "midi": 34,
      "hit": false,
      "t": 45282.99999999995,
      "d": 188.6791666666686,
      "v": 110
    },
    {
      "midi": 39,
      "hit": false,
      "t": 45282.99999999995,
      "d": 188.6791666666686,
      "v": 110
    },
    {
      "midi": 46,
      "hit": false,
      "t": 45282.99999999995,
      "d": 188.6791666666686,
      "v": 110
    },
    {
      "midi": 72,
      "hit": false,
      "t": 45282.99999999998,
      "d": 554.2450520833299,
      "v": 110
    },
    {
      "midi": 39,
      "hit": false,
      "t": 45849.03749999995,
      "d": 554.2450520833299,
      "v": 110
    },
    {
      "midi": 46,
      "hit": false,
      "t": 45849.03749999995,
      "d": 554.2450520833299,
      "v": 110
    },
    {
      "midi": 74,
      "hit": false,
      "t": 45849.03749999998,
      "d": 554.2450520833299,
      "v": 110
    },
    {
      "midi": 39,
      "hit": false,
      "t": 46415.074999999946,
      "d": 554.2450520833299,
      "v": 110
    },
    {
      "midi": 46,
      "hit": false,
      "t": 46415.074999999946,
      "d": 554.2450520833299,
      "v": 110
    },
    {
      "midi": 77,
      "hit": false,
      "t": 46415.074999999975,
      "d": 554.2450520833299,
      "v": 110
    },
    {
      "midi": 39,
      "hit": false,
      "t": 46981.112499999945,
      "d": 188.6791666666686,
      "v": 110
    },
    {
      "midi": 46,
      "hit": false,
      "t": 46981.112499999945,
      "d": 188.6791666666686,
      "v": 110
    },
    {
      "midi": 72,
      "hit": false,
      "t": 46981.112499999974,
      "d": 554.2450520833299,
      "v": 110
    },
    {
      "midi": 36,
      "hit": false,
      "t": 47547.14999999994,
      "d": 188.6791666666686,
      "v": 110
    },
    {
      "midi": 41,
      "hit": false,
      "t": 47547.14999999994,
      "d": 188.6791666666686,
      "v": 110
    },
    {
      "midi": 48,
      "hit": false,
      "t": 47547.14999999994,
      "d": 188.6791666666686,
      "v": 110
    },
    {
      "midi": 74,
      "hit": false,
      "t": 47547.14999999997,
      "d": 554.2450520833299,
      "v": 110
    },
    {
      "midi": 41,
      "hit": false,
      "t": 48113.18749999994,
      "d": 554.2450520833299,
      "v": 110
    },
    {
      "midi": 48,
      "hit": false,
      "t": 48113.18749999994,
      "d": 554.2450520833299,
      "v": 110
    },
    {
      "midi": 77,
      "hit": false,
      "t": 48113.18749999997,
      "d": 554.2450520833299,
      "v": 110
    },
    {
      "midi": 41,
      "hit": false,
      "t": 48679.22499999994,
      "d": 554.2450520833299,
      "v": 110
    },
    {
      "midi": 48,
      "hit": false,
      "t": 48679.22499999994,
      "d": 554.2450520833299,
      "v": 110
    },
    {
      "midi": 72,
      "hit": false,
      "t": 48679.22499999997,
      "d": 554.2450520833299,
      "v": 110
    },
    {
      "midi": 41,
      "hit": false,
      "t": 49245.26249999994,
      "d": 188.6791666666686,
      "v": 110
    },
    {
      "midi": 48,
      "hit": false,
      "t": 49245.26249999994,
      "d": 188.6791666666686,
      "v": 110
    },
    {
      "midi": 74,
      "hit": false,
      "t": 49245.26249999997,
      "d": 554.2450520833299,
      "v": 110
    },
    {
      "midi": 38,
      "hit": false,
      "t": 49811.29999999994,
      "d": 188.6791666666686,
      "v": 110
    },
    {
      "midi": 43,
      "hit": false,
      "t": 49811.29999999994,
      "d": 188.6791666666686,
      "v": 110
    },
    {
      "midi": 50,
      "hit": false,
      "t": 49811.29999999994,
      "d": 188.6791666666686,
      "v": 110
    },
    {
      "midi": 72,
      "hit": false,
      "t": 49811.29999999997,
      "d": 554.2450520833299,
      "v": 110
    },
    {
      "midi": 43,
      "hit": false,
      "t": 50377.337499999936,
      "d": 554.2450520833299,
      "v": 110
    },
    {
      "midi": 50,
      "hit": false,
      "t": 50377.337499999936,
      "d": 554.2450520833299,
      "v": 110
    },
    {
      "midi": 74,
      "hit": false,
      "t": 50377.337499999965,
      "d": 554.2450520833299,
      "v": 110
    },
    {
      "midi": 43,
      "hit": false,
      "t": 50943.374999999935,
      "d": 188.6791666666686,
      "v": 110
    },
    {
      "midi": 45,
      "hit": false,
      "t": 50943.374999999935,
      "d": 188.6791666666686,
      "v": 110
    },
    {
      "midi": 50,
      "hit": false,
      "t": 50943.374999999935,
      "d": 188.6791666666686,
      "v": 110
    },
    {
      "midi": 77,
      "hit": false,
      "t": 50943.37499999996,
      "d": 554.2450520833299,
      "v": 110
    },
    {
      "midi": 81,
      "hit": false,
      "t": 50943.37499999996,
      "d": 554.2450520833299,
      "v": 110
    },
    {
      "midi": 43,
      "hit": false,
      "t": 51509.41249999993,
      "d": 554.2450520833299,
      "v": 110
    },
    {
      "midi": 45,
      "hit": false,
      "t": 51509.41249999993,
      "d": 554.2450520833299,
      "v": 110
    },
    {
      "midi": 50,
      "hit": false,
      "t": 51509.41249999993,
      "d": 554.2450520833299,
      "v": 110
    },
    {
      "midi": 77,
      "hit": false,
      "t": 51509.41249999996,
      "d": 554.2450520833299,
      "v": 110
    },
    {
      "midi": 82,
      "hit": false,
      "t": 51509.41249999996,
      "d": 554.2450520833299,
      "v": 110
    },
    {
      "midi": 43,
      "hit": false,
      "t": 52075.44999999993,
      "d": 188.6791666666686,
      "v": 110
    },
    {
      "midi": 48,
      "hit": false,
      "t": 52075.44999999993,
      "d": 188.6791666666686,
      "v": 110
    },
    {
      "midi": 50,
      "hit": false,
      "t": 52075.44999999993,
      "d": 188.6791666666686,
      "v": 110
    },
    {
      "midi": 77,
      "hit": false,
      "t": 52075.44999999996,
      "d": 554.2450520833299,
      "v": 110
    },
    {
      "midi": 81,
      "hit": false,
      "t": 52075.44999999996,
      "d": 554.2450520833299,
      "v": 110
    },
    {
      "midi": 43,
      "hit": false,
      "t": 52641.48749999993,
      "d": 554.2450520833299,
      "v": 110
    },
    {
      "midi": 45,
      "hit": false,
      "t": 52641.48749999993,
      "d": 554.2450520833299,
      "v": 110
    },
    {
      "midi": 50,
      "hit": false,
      "t": 52641.48749999993,
      "d": 554.2450520833299,
      "v": 110
    },
    {
      "midi": 79,
      "hit": false,
      "t": 52641.48749999996,
      "d": 554.2450520833299,
      "v": 110
    },
    {
      "midi": 43,
      "hit": false,
      "t": 53207.52499999993,
      "d": 188.6791666666686,
      "v": 110
    },
    {
      "midi": 45,
      "hit": false,
      "t": 53207.52499999993,
      "d": 188.6791666666686,
      "v": 110
    },
    {
      "midi": 50,
      "hit": false,
      "t": 53207.52499999993,
      "d": 188.6791666666686,
      "v": 110
    },
    {
      "midi": 74,
      "hit": false,
      "t": 53207.52499999996,
      "d": 943.3958333333358,
      "v": 110
    },
    {
      "midi": 43,
      "hit": false,
      "t": 53773.56249999993,
      "d": 188.6791666666686,
      "v": 110
    },
    {
      "midi": 46,
      "hit": false,
      "t": 53773.56249999993,
      "d": 188.6791666666686,
      "v": 110
    },
    {
      "midi": 51,
      "hit": false,
      "t": 53773.56249999993,
      "d": 188.6791666666686,
      "v": 110
    },
    {
      "midi": 33,
      "hit": false,
      "t": 54339.599999999926,
      "d": 188.6791666666686,
      "v": 110
    },
    {
      "midi": 39,
      "hit": false,
      "t": 54339.599999999926,
      "d": 188.6791666666686,
      "v": 110
    },
    {
      "midi": 46,
      "hit": false,
      "t": 54339.599999999926,
      "d": 188.6791666666686,
      "v": 110
    },
    {
      "midi": 72,
      "hit": false,
      "t": 54339.59999999996,
      "d": 271.2263020833343,
      "v": 110
    },
    {
      "midi": 84,
      "hit": false,
      "t": 54622.618749999965,
      "d": 271.2263020833343,
      "v": 110
    },
    {
      "midi": 39,
      "hit": false,
      "t": 54905.637499999924,
      "d": 554.2450520833299,
      "v": 110
    },
    {
      "midi": 46,
      "hit": false,
      "t": 54905.637499999924,
      "d": 554.2450520833299,
      "v": 110
    },
    {
      "midi": 74,
      "hit": false,
      "t": 54905.63749999997,
      "d": 271.2263020833343,
      "v": 110
    },
    {
      "midi": 86,
      "hit": false,
      "t": 55188.65624999997,
      "d": 271.2263020833343,
      "v": 110
    },
    {
      "midi": 39,
      "hit": false,
      "t": 55471.67499999992,
      "d": 554.2450520833299,
      "v": 110
    },
    {
      "midi": 46,
      "hit": false,
      "t": 55471.67499999992,
      "d": 554.2450520833299,
      "v": 110
    },
    {
      "midi": 77,
      "hit": false,
      "t": 55471.674999999974,
      "d": 271.2263020833343,
      "v": 110
    },
    {
      "midi": 89,
      "hit": false,
      "t": 55754.69374999998,
      "d": 271.2263020833343,
      "v": 110
    },
    {
      "midi": 39,
      "hit": false,
      "t": 56037.71249999992,
      "d": 188.6791666666686,
      "v": 110
    },
    {
      "midi": 46,
      "hit": false,
      "t": 56037.71249999992,
      "d": 188.6791666666686,
      "v": 110
    },
    {
      "midi": 72,
      "hit": false,
      "t": 56037.71249999998,
      "d": 271.2263020833343,
      "v": 110
    },
    {
      "midi": 84,
      "hit": false,
      "t": 56320.73124999998,
      "d": 271.2263020833343,
      "v": 110
    },
    {
      "midi": 36,
      "hit": false,
      "t": 56603.74999999992,
      "d": 188.6791666666686,
      "v": 110
    },
    {
      "midi": 41,
      "hit": false,
      "t": 56603.74999999992,
      "d": 188.6791666666686,
      "v": 110
    },
    {
      "midi": 48,
      "hit": false,
      "t": 56603.74999999992,
      "d": 188.6791666666686,
      "v": 110
    },
    {
      "midi": 74,
      "hit": false,
      "t": 56603.749999999985,
      "d": 271.2263020833343,
      "v": 110
    },
    {
      "midi": 86,
      "hit": false,
      "t": 56886.76874999999,
      "d": 271.2263020833343,
      "v": 110
    },
    {
      "midi": 41,
      "hit": false,
      "t": 57169.78749999992,
      "d": 554.2450520833299,
      "v": 110
    },
    {
      "midi": 48,
      "hit": false,
      "t": 57169.78749999992,
      "d": 554.2450520833299,
      "v": 110
    },
    {
      "midi": 77,
      "hit": false,
      "t": 57169.78749999999,
      "d": 271.2263020833343,
      "v": 110
    },
    {
      "midi": 89,
      "hit": false,
      "t": 57452.806249999994,
      "d": 271.2263020833343,
      "v": 110
    },
    {
      "midi": 41,
      "hit": false,
      "t": 57735.82499999992,
      "d": 554.2450520833299,
      "v": 110
    },
    {
      "midi": 48,
      "hit": false,
      "t": 57735.82499999992,
      "d": 554.2450520833299,
      "v": 110
    },
    {
      "midi": 72,
      "hit": false,
      "t": 57735.825,
      "d": 271.2263020833343,
      "v": 110
    },
    {
      "midi": 84,
      "hit": false,
      "t": 58018.84375,
      "d": 271.2263020833343,
      "v": 110
    },
    {
      "midi": 41,
      "hit": false,
      "t": 58301.862499999916,
      "d": 188.6791666666686,
      "v": 110
    },
    {
      "midi": 48,
      "hit": false,
      "t": 58301.862499999916,
      "d": 188.6791666666686,
      "v": 110
    },
    {
      "midi": 74,
      "hit": false,
      "t": 58301.8625,
      "d": 271.2263020833343,
      "v": 110
    },
    {
      "midi": 86,
      "hit": false,
      "t": 58584.881250000006,
      "d": 271.2263020833343,
      "v": 110
    },
    {
      "midi": 38,
      "hit": false,
      "t": 58867.899999999914,
      "d": 188.6791666666686,
      "v": 110
    },
    {
      "midi": 43,
      "hit": false,
      "t": 58867.899999999914,
      "d": 188.6791666666686,
      "v": 110
    },
    {
      "midi": 50,
      "hit": false,
      "t": 58867.899999999914,
      "d": 188.6791666666686,
      "v": 110
    },
    {
      "midi": 77,
      "hit": false,
      "t": 58867.90000000001,
      "d": 554.2450520833299,
      "v": 110
    },
    {
      "midi": 81,
      "hit": false,
      "t": 58867.90000000001,
      "d": 554.2450520833299,
      "v": 110
    },
    {
      "midi": 43,
      "hit": false,
      "t": 59433.93749999991,
      "d": 554.2450520833299,
      "v": 110
    },
    {
      "midi": 50,
      "hit": false,
      "t": 59433.93749999991,
      "d": 554.2450520833299,
      "v": 110
    },
    {
      "midi": 77,
      "hit": false,
      "t": 59433.93750000001,
      "d": 554.2450520833299,
      "v": 110
    },
    {
      "midi": 82,
      "hit": false,
      "t": 59433.93750000001,
      "d": 554.2450520833299,
      "v": 110
    },
    {
      "midi": 43,
      "hit": false,
      "t": 59999.97499999991,
      "d": 188.6791666666686,
      "v": 110
    },
    {
      "midi": 45,
      "hit": false,
      "t": 59999.97499999991,
      "d": 188.6791666666686,
      "v": 110
    },
    {
      "midi": 50,
      "hit": false,
      "t": 59999.97499999991,
      "d": 188.6791666666686,
      "v": 110
    },
    {
      "midi": 77,
      "hit": false,
      "t": 59999.975000000006,
      "d": 554.2450520833299,
      "v": 110
    },
    {
      "midi": 81,
      "hit": false,
      "t": 59999.975000000006,
      "d": 554.2450520833299,
      "v": 110
    },
    {
      "midi": 43,
      "hit": false,
      "t": 60566.01249999991,
      "d": 554.2450520833299,
      "v": 110
    },
    {
      "midi": 45,
      "hit": false,
      "t": 60566.01249999991,
      "d": 554.2450520833299,
      "v": 110
    },
    {
      "midi": 50,
      "hit": false,
      "t": 60566.01249999991,
      "d": 554.2450520833299,
      "v": 110
    },
    {
      "midi": 76,
      "hit": false,
      "t": 60566.012500000004,
      "d": 554.2450520833299,
      "v": 110
    },
    {
      "midi": 79,
      "hit": false,
      "t": 60566.012500000004,
      "d": 554.2450520833299,
      "v": 110
    },
    {
      "midi": 43,
      "hit": false,
      "t": 61132.04999999991,
      "d": 188.6791666666686,
      "v": 110
    },
    {
      "midi": 48,
      "hit": false,
      "t": 61132.04999999991,
      "d": 188.6791666666686,
      "v": 110
    },
    {
      "midi": 50,
      "hit": false,
      "t": 61132.04999999991,
      "d": 188.6791666666686,
      "v": 110
    },
    {
      "midi": 69,
      "hit": false,
      "t": 61132.05,
      "d": 1981.1312499999985,
      "v": 110
    },
    {
      "midi": 74,
      "hit": false,
      "t": 61132.05,
      "d": 1981.1312499999985,
      "v": 110
    },
    {
      "midi": 43,
      "hit": false,
      "t": 61698.08749999991,
      "d": 554.2450520833299,
      "v": 110
    },
    {
      "midi": 45,
      "hit": false,
      "t": 61698.08749999991,
      "d": 554.2450520833299,
      "v": 110
    },
    {
      "midi": 50,
      "hit": false,
      "t": 61698.08749999991,
      "d": 554.2450520833299,
      "v": 110
    },
    {
      "midi": 43,
      "hit": false,
      "t": 62264.124999999905,
      "d": 188.6791666666686,
      "v": 110
    },
    {
      "midi": 45,
      "hit": false,
      "t": 62264.124999999905,
      "d": 188.6791666666686,
      "v": 110
    },
    {
      "midi": 50,
      "hit": false,
      "t": 62264.124999999905,
      "d": 188.6791666666686,
      "v": 110
    },
    {
      "midi": 43,
      "hit": false,
      "t": 62830.162499999904,
      "d": 554.2450520833299,
      "v": 110
    },
    {
      "midi": 46,
      "hit": false,
      "t": 62830.162499999904,
      "d": 554.2450520833299,
      "v": 110
    },
    {
      "midi": 51,
      "hit": false,
      "t": 62830.162499999904,
      "d": 554.2450520833299,
      "v": 110
    },
    {
      "midi": 49,
      "hit": false,
      "t": 63396.1999999999,
      "d": 554.2450520833299,
      "v": 110
    },
    {
      "midi": 79,
      "hit": false,
      "t": 63396.200000000004,
      "d": 129.71692708333285,
      "v": 110
    },
    {
      "midi": 91,
      "hit": false,
      "t": 63537.709375000006,
      "d": 978.7731770833343,
      "v": 110
    },
    {
      "midi": 49,
      "hit": false,
      "t": 63962.2374999999,
      "d": 554.2450520833299,
      "v": 110
    },
    {
      "midi": 56,
      "hit": false,
      "t": 63962.2374999999,
      "d": 554.2450520833299,
      "v": 110
    },
    {
      "midi": 53,
      "hit": false,
      "t": 64528.2749999999,
      "d": 943.3958333333358,
      "v": 110
    },
    {
      "midi": 61,
      "hit": false,
      "t": 64528.2749999999,
      "d": 943.3958333333358,
      "v": 110
    },
    {
      "midi": 68,
      "hit": false,
      "t": 64528.2749999999,
      "d": 943.3958333333358,
      "v": 110
    },
    {
      "midi": 92,
      "hit": false,
      "t": 64811.293750000004,
      "d": 271.2263020833343,
      "v": 110
    },
    {
      "midi": 89,
      "hit": false,
      "t": 65094.31250000001,
      "d": 271.2263020833343,
      "v": 110
    },
    {
      "midi": 87,
      "hit": false,
      "t": 65377.33125000001,
      "d": 271.226302083327,
      "v": 110
    },
    {
      "midi": 47,
      "hit": false,
      "t": 65660.3499999999,
      "d": 554.2450520833372,
      "v": 110
    },
    {
      "midi": 77,
      "hit": false,
      "t": 65660.35,
      "d": 129.71692708334012,
      "v": 110
    },
    {
      "midi": 89,
      "hit": false,
      "t": 65801.85937500001,
      "d": 978.7731770833343,
      "v": 110
    },
    {
      "midi": 47,
      "hit": false,
      "t": 66226.38749999991,
      "d": 554.2450520833372,
      "v": 110
    },
    {
      "midi": 54,
      "hit": false,
      "t": 66226.38749999991,
      "d": 554.2450520833372,
      "v": 110
    },
    {
      "midi": 51,
      "hit": false,
      "t": 66792.42499999992,
      "d": 943.3958333333285,
      "v": 110
    },
    {
      "midi": 59,
      "hit": false,
      "t": 66792.42499999992,
      "d": 943.3958333333285,
      "v": 110
    },
    {
      "midi": 90,
      "hit": false,
      "t": 67075.44375000002,
      "d": 271.2263020833343,
      "v": 110
    },
    {
      "midi": 87,
      "hit": false,
      "t": 67358.46250000002,
      "d": 271.2263020833343,
      "v": 110
    },
    {
      "midi": 86,
      "hit": false,
      "t": 67641.48125000003,
      "d": 271.2263020833343,
      "v": 110
    },
    {
      "midi": 34,
      "hit": false,
      "t": 67924.49999999991,
      "d": 554.2450520833372,
      "v": 110
    },
    {
      "midi": 77,
      "hit": false,
      "t": 67924.50000000003,
      "d": 4245.28125,
      "v": 110
    },
    {
      "midi": 86,
      "hit": false,
      "t": 67924.50000000003,
      "d": 4245.28125,
      "v": 110
    },
    {
      "midi": 89,
      "hit": false,
      "t": 67924.50000000003,
      "d": 4245.28125,
      "v": 110
    },
    {
      "midi": 41,
      "hit": false,
      "t": 68490.53749999992,
      "d": 554.2450520833372,
      "v": 110
    },
    {
      "midi": 46,
      "hit": false,
      "t": 69056.57499999992,
      "d": 554.2450520833372,
      "v": 110
    },
    {
      "midi": 48,
      "hit": false,
      "t": 69622.61249999993,
      "d": 554.2450520833372,
      "v": 110
    },
    {
      "midi": 50,
      "hit": false,
      "t": 70188.64999999994,
      "d": 554.2450520833372,
      "v": 110
    },
    {
      "midi": 53,
      "hit": false,
      "t": 70754.68749999994,
      "d": 554.2450520833372,
      "v": 110
    },
    {
      "midi": 58,
      "hit": false,
      "t": 71320.72499999995,
      "d": 554.2450520833372,
      "v": 110
    },
    {
      "midi": 62,
      "hit": false,
      "t": 71886.76249999995,
      "d": 554.2450520833372,
      "v": 110
    },
    {
      "midi": 46,
      "hit": false,
      "t": 72452.79999999996,
      "d": 554.2450520833372,
      "v": 110
    },
    {
      "midi": 51,
      "hit": false,
      "t": 72452.79999999996,
      "d": 554.2450520833372,
      "v": 110
    },
    {
      "midi": 58,
      "hit": false,
      "t": 73018.83749999997,
      "d": 554.2450520833372,
      "v": 110
    },
    {
      "midi": 51,
      "hit": false,
      "t": 73584.87499999997,
      "d": 554.2450520833372,
      "v": 110
    },
    {
      "midi": 73,
      "hit": false,
      "t": 73584.87500000003,
      "d": 943.3958333333285,
      "v": 110
    },
    {
      "midi": 78,
      "hit": false,
      "t": 73584.87500000003,
      "d": 943.3958333333285,
      "v": 110
    },
    {
      "midi": 46,
      "hit": false,
      "t": 74150.91249999998,
      "d": 554.2450520833372,
      "v": 110
    },
    {
      "midi": 51,
      "hit": false,
      "t": 74716.94999999998,
      "d": 554.2450520833372,
      "v": 110
    },
    {
      "midi": 66,
      "hit": false,
      "t": 74716.95000000003,
      "d": 943.3958333333285,
      "v": 110
    },
    {
      "midi": 70,
      "hit": false,
      "t": 74716.95000000003,
      "d": 943.3958333333285,
      "v": 110
    },
    {
      "midi": 58,
      "hit": false,
      "t": 75282.98749999999,
      "d": 554.2450520833372,
      "v": 110
    },
    {
      "midi": 51,
      "hit": false,
      "t": 75849.025,
      "d": 554.2450520833372,
      "v": 110
    },
    {
      "midi": 70,
      "hit": false,
      "t": 75849.02500000002,
      "d": 943.3958333333285,
      "v": 110
    },
    {
      "midi": 82,
      "hit": false,
      "t": 75849.02500000002,
      "d": 943.3958333333285,
      "v": 110
    },
    {
      "midi": 46,
      "hit": false,
      "t": 76415.0625,
      "d": 554.2450520833372,
      "v": 110
    },
    {
      "midi": 41,
      "hit": false,
      "t": 76981.1,
      "d": 554.2450520833372,
      "v": 110
    },
    {
      "midi": 49,
      "hit": false,
      "t": 76981.1,
      "d": 554.2450520833372,
      "v": 110
    },
    {
      "midi": 75,
      "hit": false,
      "t": 76981.10000000002,
      "d": 1509.4333333333343,
      "v": 110
    },
    {
      "midi": 80,
      "hit": false,
      "t": 76981.10000000002,
      "d": 1509.4333333333343,
      "v": 110
    },
    {
      "midi": 53,
      "hit": false,
      "t": 77547.13750000001,
      "d": 554.2450520833372,
      "v": 110
    },
    {
      "midi": 61,
      "hit": false,
      "t": 78113.17500000002,
      "d": 554.2450520833372,
      "v": 110
    },
    {
      "midi": 78,
      "hit": false,
      "t": 78679.21250000002,
      "d": 554.2450520833372,
      "v": 110
    },
    {
      "midi": 53,
      "hit": false,
      "t": 78679.21250000002,
      "d": 554.2450520833372,
      "v": 110
    },
    {
      "midi": 77,
      "hit": false,
      "t": 79245.25000000003,
      "d": 554.2450520833372,
      "v": 110
    },
    {
      "midi": 42,
      "hit": false,
      "t": 79245.25000000003,
      "d": 554.2450520833372,
      "v": 110
    },
    {
      "midi": 51,
      "hit": false,
      "t": 79245.25000000003,
      "d": 554.2450520833372,
      "v": 110
    },
    {
      "midi": 78,
      "hit": false,
      "t": 79811.28750000003,
      "d": 554.2450520833372,
      "v": 110
    },
    {
      "midi": 42,
      "hit": false,
      "t": 79811.28750000003,
      "d": 554.2450520833372,
      "v": 110
    },
    {
      "midi": 80,
      "hit": false,
      "t": 80377.32500000004,
      "d": 554.2450520833372,
      "v": 110
    },
    {
      "midi": 39,
      "hit": false,
      "t": 80377.32500000004,
      "d": 554.2450520833372,
      "v": 110
    },
    {
      "midi": 82,
      "hit": false,
      "t": 80943.36250000005,
      "d": 1509.4333333333343,
      "v": 110
    },
    {
      "midi": 42,
      "hit": false,
      "t": 80943.36250000005,
      "d": 554.2450520833372,
      "v": 110
    },
    {
      "midi": 46,
      "hit": false,
      "t": 81509.40000000005,
      "d": 554.2450520833372,
      "v": 110
    },
    {
      "midi": 51,
      "hit": false,
      "t": 81509.40000000005,
      "d": 554.2450520833372,
      "v": 110
    },
    {
      "midi": 58,
      "hit": false,
      "t": 82075.43750000006,
      "d": 554.2450520833372,
      "v": 110
    },
    {
      "midi": 78,
      "hit": false,
      "t": 82641.47500000005,
      "d": 943.3958333333285,
      "v": 110
    },
    {
      "midi": 63,
      "hit": false,
      "t": 82641.47500000006,
      "d": 554.2450520833372,
      "v": 110
    },
    {
      "midi": 58,
      "hit": false,
      "t": 83207.51250000007,
      "d": 554.2450520833372,
      "v": 110
    },
    {
      "midi": 70,
      "hit": false,
      "t": 83773.55000000005,
      "d": 943.3958333333285,
      "v": 110
    },
    {
      "midi": 41,
      "hit": false,
      "t": 83773.55000000008,
      "d": 554.2450520833372,
      "v": 110
    },
    {
      "midi": 49,
      "hit": false,
      "t": 83773.55000000008,
      "d": 554.2450520833372,
      "v": 110
    },
    {
      "midi": 53,
      "hit": false,
      "t": 84339.58750000008,
      "d": 554.2450520833372,
      "v": 110
    },
    {
      "midi": 82,
      "hit": false,
      "t": 84905.62500000004,
      "d": 554.2450520833372,
      "v": 110
    },
    {
      "midi": 61,
      "hit": false,
      "t": 84905.62500000009,
      "d": 554.2450520833372,
      "v": 110
    },
    {
      "midi": 80,
      "hit": false,
      "t": 85471.66250000005,
      "d": 554.2450520833372,
      "v": 110
    },
    {
      "midi": 53,
      "hit": false,
      "t": 85471.6625000001,
      "d": 554.2450520833372,
      "v": 110
    },
    {
      "midi": 80,
      "hit": false,
      "t": 86037.70000000006,
      "d": 1509.4333333333343,
      "v": 110
    },
    {
      "midi": 53,
      "hit": false,
      "t": 86037.7000000001,
      "d": 554.2450520833372,
      "v": 110
    },
    {
      "midi": 54,
      "hit": false,
      "t": 86603.7375000001,
      "d": 554.2450520833372,
      "v": 110
    },
    {
      "midi": 53,
      "hit": false,
      "t": 87169.77500000011,
      "d": 554.2450520833372,
      "v": 110
    },
    {
      "midi": 78,
      "hit": false,
      "t": 87735.81250000006,
      "d": 554.2450520833372,
      "v": 110
    },
    {
      "midi": 51,
      "hit": false,
      "t": 87735.81250000012,
      "d": 554.2450520833372,
      "v": 110
    },
    {
      "midi": 71,
      "hit": false,
      "t": 88301.85000000006,
      "d": 1981.1312500000058,
      "v": 110
    },
    {
      "midi": 47,
      "hit": false,
      "t": 88301.85000000012,
      "d": 1981.1312500000058,
      "v": 110
    },
    {
      "midi": 53,
      "hit": false,
      "t": 90566.00000000007,
      "d": 943.3958333333285,
      "v": 110
    },
    {
      "midi": 65,
      "hit": false,
      "t": 90566.00000000007,
      "d": 943.3958333333285,
      "v": 110
    },
    {
      "midi": 47,
      "hit": false,
      "t": 90566.00000000013,
      "d": 554.2450520833372,
      "v": 110
    },
    {
      "midi": 54,
      "hit": false,
      "t": 91132.03750000014,
      "d": 554.2450520833372,
      "v": 110
    },
    {
      "midi": 54,
      "hit": false,
      "t": 91698.07500000014,
      "d": 943.3958333333285,
      "v": 110
    },
    {
      "midi": 59,
      "hit": false,
      "t": 91698.07500000014,
      "d": 943.3958333333285,
      "v": 110
    },
    {
      "midi": 54,
      "hit": false,
      "t": 91981.09375000007,
      "d": 271.2263020833343,
      "v": 110
    },
    {
      "midi": 66,
      "hit": false,
      "t": 91981.09375000007,
      "d": 271.2263020833343,
      "v": 110
    },
    {
      "midi": 56,
      "hit": false,
      "t": 92264.11250000008,
      "d": 271.2263020833343,
      "v": 110
    },
    {
      "midi": 68,
      "hit": false,
      "t": 92264.11250000008,
      "d": 271.2263020833343,
      "v": 110
    },
    {
      "midi": 58,
      "hit": false,
      "t": 92547.13125000008,
      "d": 271.2263020833343,
      "v": 110
    },
    {
      "midi": 70,
      "hit": false,
      "t": 92547.13125000008,
      "d": 271.2263020833343,
      "v": 110
    },
    {
      "midi": 53,
      "hit": false,
      "t": 92830.15000000008,
      "d": 943.3958333333285,
      "v": 110
    },
    {
      "midi": 65,
      "hit": false,
      "t": 92830.15000000008,
      "d": 943.3958333333285,
      "v": 110
    },
    {
      "midi": 49,
      "hit": false,
      "t": 92830.15000000014,
      "d": 554.2450520833372,
      "v": 110
    },
    {
      "midi": 56,
      "hit": false,
      "t": 93396.18750000015,
      "d": 554.2450520833372,
      "v": 110
    },
    {
      "midi": 56,
      "hit": false,
      "t": 93962.22500000015,
      "d": 943.3958333333285,
      "v": 110
    },
    {
      "midi": 61,
      "hit": false,
      "t": 93962.22500000015,
      "d": 943.3958333333285,
      "v": 110
    },
    {
      "midi": 39,
      "hit": false,
      "t": 95094.30000000015,
      "d": 554.2450520833372,
      "v": 110
    },
    {
      "midi": 53,
      "hit": false,
      "t": 95660.33750000008,
      "d": 554.2450520833372,
      "v": 110
    },
    {
      "midi": 65,
      "hit": false,
      "t": 95660.33750000008,
      "d": 554.2450520833372,
      "v": 110
    },
    {
      "midi": 51,
      "hit": false,
      "t": 95660.33750000015,
      "d": 1509.4333333333343,
      "v": 110
    },
    {
      "midi": 58,
      "hit": false,
      "t": 95660.33750000015,
      "d": 1509.4333333333343,
      "v": 110
    },
    {
      "midi": 54,
      "hit": false,
      "t": 96226.37500000009,
      "d": 554.2450520833372,
      "v": 110
    },
    {
      "midi": 66,
      "hit": false,
      "t": 96226.37500000009,
      "d": 554.2450520833372,
      "v": 110
    },
    {
      "midi": 53,
      "hit": false,
      "t": 96792.4125000001,
      "d": 554.2450520833372,
      "v": 110
    },
    {
      "midi": 65,
      "hit": false,
      "t": 96792.4125000001,
      "d": 554.2450520833372,
      "v": 110
    },
    {
      "midi": 46,
      "hit": false,
      "t": 97358.4500000001,
      "d": 943.3958333333285,
      "v": 110
    },
    {
      "midi": 58,
      "hit": false,
      "t": 97358.4500000001,
      "d": 943.3958333333285,
      "v": 110
    },
    {
      "midi": 39,
      "hit": false,
      "t": 97358.45000000016,
      "d": 554.2450520833372,
      "v": 110
    },
    {
      "midi": 46,
      "hit": false,
      "t": 97924.48750000016,
      "d": 554.2450520833372,
      "v": 110
    },
    {
      "midi": 53,
      "hit": false,
      "t": 98490.52500000017,
      "d": 554.2450520833372,
      "v": 110
    },
    {
      "midi": 54,
      "hit": false,
      "t": 99056.56250000017,
      "d": 554.2450520833372,
      "v": 110
    },
    {
      "midi": 71,
      "hit": false,
      "t": 99622.6000000001,
      "d": 943.3958333333285,
      "v": 110
    },
    {
      "midi": 77,
      "hit": false,
      "t": 99622.6000000001,
      "d": 943.3958333333285,
      "v": 110
    },
    {
      "midi": 47,
      "hit": false,
      "t": 99622.60000000018,
      "d": 554.2450520833372,
      "v": 110
    },
    {
      "midi": 54,
      "hit": false,
      "t": 100188.63750000019,
      "d": 554.2450520833372,
      "v": 110
    },
    {
      "midi": 54,
      "hit": false,
      "t": 100754.67500000019,
      "d": 943.3958333333285,
      "v": 110
    },
    {
      "midi": 59,
      "hit": false,
      "t": 100754.67500000019,
      "d": 943.3958333333285,
      "v": 110
    },
    {
      "midi": 73,
      "hit": false,
      "t": 101037.6937500001,
      "d": 271.2263020833343,
      "v": 110
    },
    {
      "midi": 78,
      "hit": false,
      "t": 101037.6937500001,
      "d": 271.2263020833343,
      "v": 110
    },
    {
      "midi": 75,
      "hit": false,
      "t": 101320.7125000001,
      "d": 271.2263020833343,
      "v": 110
    },
    {
      "midi": 80,
      "hit": false,
      "t": 101320.7125000001,
      "d": 271.2263020833343,
      "v": 110
    },
    {
      "midi": 78,
      "hit": false,
      "t": 101603.7312500001,
      "d": 271.2263020833343,
      "v": 110
    },
    {
      "midi": 82,
      "hit": false,
      "t": 101603.7312500001,
      "d": 271.2263020833343,
      "v": 110
    },
    {
      "midi": 65,
      "hit": false,
      "t": 101886.7500000001,
      "d": 943.3958333333285,
      "v": 110
    },
    {
      "midi": 77,
      "hit": false,
      "t": 101886.7500000001,
      "d": 943.3958333333285,
      "v": 110
    },
    {
      "midi": 49,
      "hit": false,
      "t": 101886.75000000019,
      "d": 554.2450520833372,
      "v": 110
    },
    {
      "midi": 56,
      "hit": false,
      "t": 102452.7875000002,
      "d": 554.2450520833372,
      "v": 110
    },
    {
      "midi": 56,
      "hit": false,
      "t": 103018.8250000002,
      "d": 943.3958333333285,
      "v": 110
    },
    {
      "midi": 61,
      "hit": false,
      "t": 103018.8250000002,
      "d": 943.3958333333285,
      "v": 110
    },
    {
      "midi": 58,
      "hit": false,
      "t": 104150.9000000001,
      "d": 554.2450520833372,
      "v": 110
    },
    {
      "midi": 39,
      "hit": false,
      "t": 104150.9000000002,
      "d": 554.2450520833372,
      "v": 110
    },
    {
      "midi": 66,
      "hit": false,
      "t": 104716.9375000001,
      "d": 554.2450520833372,
      "v": 110
    },
    {
      "midi": 51,
      "hit": false,
      "t": 104716.9375000002,
      "d": 1509.4333333333343,
      "v": 110
    },
    {
      "midi": 58,
      "hit": false,
      "t": 104716.9375000002,
      "d": 1509.4333333333343,
      "v": 110
    },
    {
      "midi": 68,
      "hit": false,
      "t": 105282.97500000011,
      "d": 554.2450520833372,
      "v": 110
    },
    {
      "midi": 66,
      "hit": false,
      "t": 105849.01250000011,
      "d": 554.2450520833372,
      "v": 110
    },
    {
      "midi": 63,
      "hit": false,
      "t": 106415.05000000012,
      "d": 943.3958333333285,
      "v": 110
    },
    {
      "midi": 39,
      "hit": false,
      "t": 106415.0500000002,
      "d": 554.2450520833372,
      "v": 110
    },
    {
      "midi": 46,
      "hit": false,
      "t": 106981.08750000021,
      "d": 554.2450520833372,
      "v": 110
    },
    {
      "midi": 53,
      "hit": false,
      "t": 107547.12500000022,
      "d": 554.2450520833372,
      "v": 110
    },
    {
      "midi": 73,
      "hit": false,
      "t": 108113.16250000011,
      "d": 554.2450520833372,
      "v": 110
    },
    {
      "midi": 54,
      "hit": false,
      "t": 108113.16250000022,
      "d": 554.2450520833372,
      "v": 110
    },
    {
      "midi": 68,
      "hit": false,
      "t": 108679.20000000011,
      "d": 1509.4333333333343,
      "v": 110
    },
    {
      "midi": 47,
      "hit": false,
      "t": 108679.20000000023,
      "d": 554.2450520833372,
      "v": 110
    },
    {
      "midi": 54,
      "hit": false,
      "t": 109245.23750000024,
      "d": 554.2450520833372,
      "v": 110
    },
    {
      "midi": 54,
      "hit": false,
      "t": 109811.27500000024,
      "d": 943.3958333333285,
      "v": 110
    },
    {
      "midi": 59,
      "hit": false,
      "t": 109811.27500000024,
      "d": 943.3958333333285,
      "v": 110
    },
    {
      "midi": 70,
      "hit": false,
      "t": 110377.31250000012,
      "d": 554.2450520833372,
      "v": 110
    },
    {
      "midi": 63,
      "hit": false,
      "t": 110943.35000000012,
      "d": 943.3958333333285,
      "v": 110
    },
    {
      "midi": 49,
      "hit": false,
      "t": 110943.35000000024,
      "d": 554.2450520833372,
      "v": 110
    },
    {
      "midi": 56,
      "hit": false,
      "t": 111509.38750000024,
      "d": 554.2450520833372,
      "v": 110
    },
    {
      "midi": 56,
      "hit": false,
      "t": 112075.42500000025,
      "d": 943.3958333333285,
      "v": 110
    },
    {
      "midi": 61,
      "hit": false,
      "t": 112075.42500000025,
      "d": 943.3958333333285,
      "v": 110
    },
    {
      "midi": 65,
      "hit": false,
      "t": 112641.46250000011,
      "d": 554.2450520833372,
      "v": 110
    },
    {
      "midi": 65,
      "hit": false,
      "t": 113207.50000000012,
      "d": 271.2263020833343,
      "v": 110
    },
    {
      "midi": 51,
      "hit": false,
      "t": 113207.50000000025,
      "d": 554.2450520833372,
      "v": 110
    },
    {
      "midi": 66,
      "hit": false,
      "t": 113490.51875000012,
      "d": 271.2263020833343,
      "v": 110
    },
    {
      "midi": 65,
      "hit": false,
      "t": 113773.53750000012,
      "d": 271.2263020833343,
      "v": 110
    },
    {
      "midi": 58,
      "hit": false,
      "t": 113773.53750000025,
      "d": 554.2450520833372,
      "v": 110
    },
    {
      "midi": 58,
      "hit": false,
      "t": 114056.55625000013,
      "d": 271.2263020833343,
      "v": 110
    },
    {
      "midi": 65,
      "hit": false,
      "t": 114339.57500000013,
      "d": 554.2450520833372,
      "v": 110
    },
    {
      "midi": 58,
      "hit": false,
      "t": 114339.57500000026,
      "d": 943.3958333333285,
      "v": 110
    },
    {
      "midi": 63,
      "hit": false,
      "t": 114339.57500000026,
      "d": 943.3958333333285,
      "v": 110
    },
    {
      "midi": 66,
      "hit": false,
      "t": 114905.61250000013,
      "d": 554.2450520833372,
      "v": 110
    },
    {
      "midi": 65,
      "hit": false,
      "t": 115471.65000000014,
      "d": 554.2450520833372,
      "v": 110
    },
    {
      "midi": 39,
      "hit": false,
      "t": 115471.65000000026,
      "d": 554.2450520833372,
      "v": 110
    },
    {
      "midi": 63,
      "hit": false,
      "t": 116037.68750000015,
      "d": 554.2450520833372,
      "v": 110
    },
    {
      "midi": 46,
      "hit": false,
      "t": 116037.68750000026,
      "d": 554.2450520833372,
      "v": 110
    },
    {
      "midi": 58,
      "hit": false,
      "t": 116603.72500000015,
      "d": 554.2450520833372,
      "v": 110
    },
    {
      "midi": 53,
      "hit": false,
      "t": 116603.72500000027,
      "d": 554.2450520833372,
      "v": 110
    },
    {
      "midi": 73,
      "hit": false,
      "t": 117169.76250000016,
      "d": 554.2450520833372,
      "v": 110
    },
    {
      "midi": 54,
      "hit": false,
      "t": 117169.76250000027,
      "d": 554.2450520833372,
      "v": 110
    },
    {
      "midi": 68,
      "hit": false,
      "t": 117735.80000000016,
      "d": 1509.4333333333343,
      "v": 110
    },
    {
      "midi": 47,
      "hit": false,
      "t": 117735.80000000028,
      "d": 554.2450520833372,
      "v": 110
    },
    {
      "midi": 54,
      "hit": false,
      "t": 118301.83750000029,
      "d": 554.2450520833372,
      "v": 110
    },
    {
      "midi": 54,
      "hit": false,
      "t": 118867.87500000029,
      "d": 943.3958333333285,
      "v": 110
    },
    {
      "midi": 59,
      "hit": false,
      "t": 118867.87500000029,
      "d": 943.3958333333285,
      "v": 110
    },
    {
      "midi": 68,
      "hit": false,
      "t": 119433.91250000017,
      "d": 554.2450520833372,
      "v": 110
    },
    {
      "midi": 70,
      "hit": false,
      "t": 119433.91250000017,
      "d": 554.2450520833372,
      "v": 110
    },
    {
      "midi": 70,
      "hit": false,
      "t": 119999.95000000017,
      "d": 1509.4333333333343,
      "v": 110
    },
    {
      "midi": 75,
      "hit": false,
      "t": 119999.95000000017,
      "d": 1509.4333333333343,
      "v": 110
    },
    {
      "midi": 49,
      "hit": false,
      "t": 119999.95000000029,
      "d": 554.2450520833372,
      "v": 110
    },
    {
      "midi": 56,
      "hit": false,
      "t": 120565.9875000003,
      "d": 554.2450520833372,
      "v": 110
    },
    {
      "midi": 56,
      "hit": false,
      "t": 121132.0250000003,
      "d": 943.3958333333285,
      "v": 110
    },
    {
      "midi": 61,
      "hit": false,
      "t": 121132.0250000003,
      "d": 943.3958333333285,
      "v": 110
    },
    {
      "midi": 75,
      "hit": false,
      "t": 121698.06250000017,
      "d": 554.2450520833372,
      "v": 110
    },
    {
      "midi": 77,
      "hit": false,
      "t": 121698.06250000017,
      "d": 554.2450520833372,
      "v": 110
    },
    {
      "midi": 65,
      "hit": false,
      "t": 122264.10000000018,
      "d": 1509.4333333333343,
      "v": 110
    },
    {
      "midi": 70,
      "hit": false,
      "t": 122264.10000000018,
      "d": 1509.4333333333343,
      "v": 110
    },
    {
      "midi": 51,
      "hit": false,
      "t": 122264.1000000003,
      "d": 554.2450520833372,
      "v": 110
    },
    {
      "midi": 58,
      "hit": false,
      "t": 122830.1375000003,
      "d": 554.2450520833372,
      "v": 110
    },
    {
      "midi": 58,
      "hit": false,
      "t": 123396.17500000031,
      "d": 943.3958333333285,
      "v": 110
    },
    {
      "midi": 63,
      "hit": false,
      "t": 123396.17500000031,
      "d": 943.3958333333285,
      "v": 110
    },
    {
      "midi": 75,
      "hit": false,
      "t": 123962.21250000018,
      "d": 554.2450520833372,
      "v": 110
    },
    {
      "midi": 70,
      "hit": false,
      "t": 124528.25000000019,
      "d": 1981.1312500000058,
      "v": 110
    },
    {
      "midi": 39,
      "hit": false,
      "t": 124528.2500000003,
      "d": 554.2450520833372,
      "v": 110
    },
    {
      "midi": 46,
      "hit": false,
      "t": 125094.28750000031,
      "d": 554.2450520833372,
      "v": 110
    },
    {
      "midi": 53,
      "hit": false,
      "t": 125660.32500000032,
      "d": 554.2450520833372,
      "v": 110
    },
    {
      "midi": 54,
      "hit": false,
      "t": 126226.36250000032,
      "d": 554.2450520833372,
      "v": 110
    },
    {
      "midi": 68,
      "hit": false,
      "t": 126792.4000000002,
      "d": 554.2450520833372,
      "v": 110
    },
    {
      "midi": 47,
      "hit": false,
      "t": 126792.40000000033,
      "d": 554.2450520833372,
      "v": 110
    },
    {
      "midi": 70,
      "hit": false,
      "t": 127358.4375000002,
      "d": 554.2450520833372,
      "v": 110
    },
    {
      "midi": 54,
      "hit": false,
      "t": 127358.43750000033,
      "d": 554.2450520833372,
      "v": 110
    },
    {
      "midi": 73,
      "hit": false,
      "t": 127924.47500000021,
      "d": 554.2450520833372,
      "v": 110
    },
    {
      "midi": 59,
      "hit": false,
      "t": 127924.47500000034,
      "d": 554.2450520833372,
      "v": 110
    },
    {
      "midi": 68,
      "hit": false,
      "t": 128490.51250000022,
      "d": 554.2450520833372,
      "v": 110
    },
    {
      "midi": 54,
      "hit": false,
      "t": 128490.51250000035,
      "d": 554.2450520833372,
      "v": 110
    },
    {
      "midi": 70,
      "hit": false,
      "t": 129056.55000000022,
      "d": 554.2450520833372,
      "v": 110
    },
    {
      "midi": 49,
      "hit": false,
      "t": 129056.55000000035,
      "d": 554.2450520833372,
      "v": 110
    },
    {
      "midi": 73,
      "hit": false,
      "t": 129622.58750000023,
      "d": 554.2450520833372,
      "v": 110
    },
    {
      "midi": 56,
      "hit": false,
      "t": 129622.58750000036,
      "d": 554.2450520833372,
      "v": 110
    },
    {
      "midi": 68,
      "hit": false,
      "t": 130188.62500000023,
      "d": 554.2450520833372,
      "v": 110
    },
    {
      "midi": 61,
      "hit": false,
      "t": 130188.62500000036,
      "d": 554.2450520833372,
      "v": 110
    },
    {
      "midi": 70,
      "hit": false,
      "t": 130754.66250000024,
      "d": 554.2450520833372,
      "v": 110
    },
    {
      "midi": 56,
      "hit": false,
      "t": 130754.66250000037,
      "d": 554.2450520833227,
      "v": 110
    },
    {
      "midi": 68,
      "hit": false,
      "t": 131320.70000000024,
      "d": 554.2450520833372,
      "v": 110
    },
    {
      "midi": 51,
      "hit": false,
      "t": 131320.70000000036,
      "d": 554.2450520833372,
      "v": 110
    },
    {
      "midi": 70,
      "hit": false,
      "t": 131886.73750000025,
      "d": 554.2450520833372,
      "v": 110
    },
    {
      "midi": 58,
      "hit": false,
      "t": 131886.73750000037,
      "d": 554.2450520833372,
      "v": 110
    },
    {
      "midi": 77,
      "hit": false,
      "t": 132452.77500000026,
      "d": 554.2450520833372,
      "v": 110
    },
    {
      "midi": 63,
      "hit": false,
      "t": 132452.77500000037,
      "d": 554.2450520833372,
      "v": 110
    },
    {
      "midi": 78,
      "hit": false,
      "t": 133018.81250000026,
      "d": 554.2450520833372,
      "v": 110
    },
    {
      "midi": 58,
      "hit": false,
      "t": 133018.81250000038,
      "d": 554.2450520833372,
      "v": 110
    },
    {
      "midi": 77,
      "hit": false,
      "t": 133584.85000000027,
      "d": 554.2450520833372,
      "v": 110
    },
    {
      "midi": 39,
      "hit": false,
      "t": 133584.85000000038,
      "d": 554.2450520833372,
      "v": 110
    },
    {
      "midi": 75,
      "hit": false,
      "t": 134150.88750000027,
      "d": 554.2450520833372,
      "v": 110
    },
    {
      "midi": 46,
      "hit": false,
      "t": 134150.8875000004,
      "d": 554.2450520833372,
      "v": 110
    },
    {
      "midi": 70,
      "hit": false,
      "t": 134716.92500000028,
      "d": 943.395833333343,
      "v": 110
    },
    {
      "midi": 53,
      "hit": false,
      "t": 134716.9250000004,
      "d": 554.2450520833372,
      "v": 110
    },
    {
      "midi": 54,
      "hit": false,
      "t": 135282.9625000004,
      "d": 554.2450520833372,
      "v": 110
    },
    {
      "midi": 68,
      "hit": false,
      "t": 135849.0000000003,
      "d": 554.2450520833372,
      "v": 110
    },
    {
      "midi": 47,
      "hit": false,
      "t": 135849.0000000004,
      "d": 554.2450520833372,
      "v": 110
    },
    {
      "midi": 70,
      "hit": false,
      "t": 136415.0375000003,
      "d": 554.2450520833372,
      "v": 110
    },
    {
      "midi": 54,
      "hit": false,
      "t": 136415.0375000004,
      "d": 554.2450520833372,
      "v": 110
    },
    {
      "midi": 73,
      "hit": false,
      "t": 136981.0750000003,
      "d": 554.2450520833372,
      "v": 110
    },
    {
      "midi": 59,
      "hit": false,
      "t": 136981.07500000042,
      "d": 554.2450520833372,
      "v": 110
    },
    {
      "midi": 68,
      "hit": false,
      "t": 137547.1125000003,
      "d": 554.2450520833372,
      "v": 110
    },
    {
      "midi": 54,
      "hit": false,
      "t": 137547.11250000042,
      "d": 554.2450520833372,
      "v": 110
    },
    {
      "midi": 70,
      "hit": false,
      "t": 138113.1500000003,
      "d": 554.2450520833372,
      "v": 110
    },
    {
      "midi": 49,
      "hit": false,
      "t": 138113.15000000043,
      "d": 554.2450520833372,
      "v": 110
    },
    {
      "midi": 73,
      "hit": false,
      "t": 138679.18750000032,
      "d": 554.2450520833372,
      "v": 110
    },
    {
      "midi": 56,
      "hit": false,
      "t": 138679.18750000044,
      "d": 554.2450520833372,
      "v": 110
    },
    {
      "midi": 68,
      "hit": false,
      "t": 139245.22500000033,
      "d": 554.2450520833372,
      "v": 110
    },
    {
      "midi": 61,
      "hit": false,
      "t": 139245.22500000044,
      "d": 554.2450520833372,
      "v": 110
    },
    {
      "midi": 70,
      "hit": false,
      "t": 139811.26250000033,
      "d": 554.2450520833372,
      "v": 110
    },
    {
      "midi": 56,
      "hit": false,
      "t": 139811.26250000045,
      "d": 554.2450520833372,
      "v": 110
    },
    {
      "midi": 73,
      "hit": false,
      "t": 140377.30000000034,
      "d": 554.2450520833372,
      "v": 110
    },
    {
      "midi": 77,
      "hit": false,
      "t": 140377.30000000034,
      "d": 554.2450520833372,
      "v": 110
    },
    {
      "midi": 44,
      "hit": false,
      "t": 140377.30000000045,
      "d": 554.2450520833372,
      "v": 110
    },
    {
      "midi": 75,
      "hit": false,
      "t": 140943.33750000034,
      "d": 554.2450520833372,
      "v": 110
    },
    {
      "midi": 78,
      "hit": false,
      "t": 140943.33750000034,
      "d": 554.2450520833372,
      "v": 110
    },
    {
      "midi": 51,
      "hit": false,
      "t": 140943.33750000046,
      "d": 554.2450520833372,
      "v": 110
    },
    {
      "midi": 73,
      "hit": false,
      "t": 141509.37500000035,
      "d": 554.2450520833372,
      "v": 110
    },
    {
      "midi": 77,
      "hit": false,
      "t": 141509.37500000035,
      "d": 554.2450520833372,
      "v": 110
    },
    {
      "midi": 56,
      "hit": false,
      "t": 141509.37500000047,
      "d": 554.2450520833372,
      "v": 110
    },
    {
      "midi": 70,
      "hit": false,
      "t": 142075.41250000036,
      "d": 554.2450520833372,
      "v": 110
    },
    {
      "midi": 75,
      "hit": false,
      "t": 142075.41250000036,
      "d": 554.2450520833372,
      "v": 110
    },
    {
      "midi": 58,
      "hit": false,
      "t": 142075.41250000047,
      "d": 554.2450520833372,
      "v": 110
    },
    {
      "midi": 63,
      "hit": false,
      "t": 142641.45000000036,
      "d": 1981.1312500000058,
      "v": 110
    },
    {
      "midi": 70,
      "hit": false,
      "t": 142641.45000000036,
      "d": 1981.1312500000058,
      "v": 110
    },
    {
      "midi": 58,
      "hit": false,
      "t": 142641.45000000048,
      "d": 188.6791666666686,
      "v": 110
    },
    {
      "midi": 59,
      "hit": false,
      "t": 142641.45000000048,
      "d": 188.6791666666686,
      "v": 110
    },
    {
      "midi": 58,
      "hit": false,
      "t": 143207.48750000048,
      "d": 554.2450520833372,
      "v": 110
    },
    {
      "midi": 59,
      "hit": false,
      "t": 143207.48750000048,
      "d": 554.2450520833372,
      "v": 110
    },
    {
      "midi": 58,
      "hit": false,
      "t": 143773.5250000005,
      "d": 188.6791666666686,
      "v": 110
    },
    {
      "midi": 59,
      "hit": false,
      "t": 143773.5250000005,
      "d": 188.6791666666686,
      "v": 110
    },
    {
      "midi": 58,
      "hit": false,
      "t": 144339.5625000005,
      "d": 554.2450520833372,
      "v": 110
    },
    {
      "midi": 59,
      "hit": false,
      "t": 144339.5625000005,
      "d": 554.2450520833372,
      "v": 110
    },
    {
      "midi": 46,
      "hit": false,
      "t": 144905.6000000005,
      "d": 554.2450520833372,
      "v": 110
    },
    {
      "midi": 51,
      "hit": false,
      "t": 144905.6000000005,
      "d": 554.2450520833372,
      "v": 110
    },
    {
      "midi": 58,
      "hit": false,
      "t": 145471.6375000005,
      "d": 554.2450520833372,
      "v": 110
    },
    {
      "midi": 73,
      "hit": false,
      "t": 146037.67500000037,
      "d": 943.395833333343,
      "v": 110
    },
    {
      "midi": 78,
      "hit": false,
      "t": 146037.67500000037,
      "d": 943.395833333343,
      "v": 110
    },
    {
      "midi": 51,
      "hit": false,
      "t": 146037.6750000005,
      "d": 554.2450520833372,
      "v": 110
    },
    {
      "midi": 46,
      "hit": false,
      "t": 146603.71250000052,
      "d": 554.2450520833372,
      "v": 110
    },
    {
      "midi": 66,
      "hit": false,
      "t": 147169.75000000038,
      "d": 943.395833333343,
      "v": 110
    },
    {
      "midi": 70,
      "hit": false,
      "t": 147169.75000000038,
      "d": 943.395833333343,
      "v": 110
    },
    {
      "midi": 51,
      "hit": false,
      "t": 147169.75000000052,
      "d": 554.2450520833372,
      "v": 110
    },
    {
      "midi": 58,
      "hit": false,
      "t": 147735.78750000053,
      "d": 554.2450520833372,
      "v": 110
    },
    {
      "midi": 70,
      "hit": false,
      "t": 148301.8250000004,
      "d": 943.395833333343,
      "v": 110
    },
    {
      "midi": 82,
      "hit": false,
      "t": 148301.8250000004,
      "d": 943.395833333343,
      "v": 110
    },
    {
      "midi": 51,
      "hit": false,
      "t": 148301.82500000054,
      "d": 554.2450520833372,
      "v": 110
    },
    {
      "midi": 46,
      "hit": false,
      "t": 148867.86250000054,
      "d": 554.2450520833372,
      "v": 110
    },
    {
      "midi": 75,
      "hit": false,
      "t": 149433.9000000004,
      "d": 1509.4333333333198,
      "v": 110
    },
    {
      "midi": 80,
      "hit": false,
      "t": 149433.9000000004,
      "d": 1509.4333333333198,
      "v": 110
    },
    {
      "midi": 41,
      "hit": false,
      "t": 149433.90000000055,
      "d": 554.2450520833372,
      "v": 110
    },
    {
      "midi": 49,
      "hit": false,
      "t": 149433.90000000055,
      "d": 554.2450520833372,
      "v": 110
    },
    {
      "midi": 53,
      "hit": false,
      "t": 149999.93750000055,
      "d": 554.2450520833372,
      "v": 110
    },
    {
      "midi": 61,
      "hit": false,
      "t": 150565.97500000056,
      "d": 554.2450520833372,
      "v": 110
    },
    {
      "midi": 78,
      "hit": false,
      "t": 151132.0125000004,
      "d": 554.2450520833372,
      "v": 110
    },
    {
      "midi": 53,
      "hit": false,
      "t": 151132.01250000056,
      "d": 554.2450520833372,
      "v": 110
    },
    {
      "midi": 77,
      "hit": false,
      "t": 151698.0500000004,
      "d": 554.2450520833372,
      "v": 110
    },
    {
      "midi": 42,
      "hit": false,
      "t": 151698.05000000057,
      "d": 554.2450520833372,
      "v": 110
    },
    {
      "midi": 51,
      "hit": false,
      "t": 151698.05000000057,
      "d": 554.2450520833372,
      "v": 110
    },
    {
      "midi": 78,
      "hit": false,
      "t": 152264.0875000004,
      "d": 554.2450520833372,
      "v": 110
    },
    {
      "midi": 42,
      "hit": false,
      "t": 152264.08750000058,
      "d": 554.2450520833372,
      "v": 110
    },
    {
      "midi": 80,
      "hit": false,
      "t": 152830.1250000004,
      "d": 554.2450520833372,
      "v": 110
    },
    {
      "midi": 39,
      "hit": false,
      "t": 152830.12500000058,
      "d": 554.2450520833372,
      "v": 110
    },
    {
      "midi": 82,
      "hit": false,
      "t": 153396.1625000004,
      "d": 1509.4333333333198,
      "v": 110
    },
    {
      "midi": 42,
      "hit": false,
      "t": 153396.1625000006,
      "d": 554.2450520833372,
      "v": 110
    },
    {
      "midi": 46,
      "hit": false,
      "t": 153962.2000000006,
      "d": 554.2450520833372,
      "v": 110
    },
    {
      "midi": 51,
      "hit": false,
      "t": 153962.2000000006,
      "d": 554.2450520833372,
      "v": 110
    },
    {
      "midi": 58,
      "hit": false,
      "t": 154528.2375000006,
      "d": 554.2450520833372,
      "v": 110
    },
    {
      "midi": 78,
      "hit": false,
      "t": 155094.2750000004,
      "d": 943.395833333343,
      "v": 110
    },
    {
      "midi": 63,
      "hit": false,
      "t": 155094.2750000006,
      "d": 554.2450520833372,
      "v": 110
    },
    {
      "midi": 58,
      "hit": false,
      "t": 155660.3125000006,
      "d": 554.2450520833372,
      "v": 110
    },
    {
      "midi": 70,
      "hit": false,
      "t": 156226.3500000004,
      "d": 943.395833333343,
      "v": 110
    },
    {
      "midi": 41,
      "hit": false,
      "t": 156226.35000000062,
      "d": 554.2450520833372,
      "v": 110
    },
    {
      "midi": 49,
      "hit": false,
      "t": 156226.35000000062,
      "d": 554.2450520833372,
      "v": 110
    },
    {
      "midi": 53,
      "hit": false,
      "t": 156792.38750000062,
      "d": 554.2450520833372,
      "v": 110
    },
    {
      "midi": 82,
      "hit": false,
      "t": 157358.42500000042,
      "d": 554.2450520833372,
      "v": 110
    },
    {
      "midi": 61,
      "hit": false,
      "t": 157358.42500000063,
      "d": 554.2450520833372,
      "v": 110
    },
    {
      "midi": 80,
      "hit": false,
      "t": 157924.46250000043,
      "d": 554.2450520833372,
      "v": 110
    },
    {
      "midi": 53,
      "hit": false,
      "t": 157924.46250000063,
      "d": 554.2450520833372,
      "v": 110
    },
    {
      "midi": 80,
      "hit": false,
      "t": 158490.50000000044,
      "d": 1509.4333333333198,
      "v": 110
    },
    {
      "midi": 53,
      "hit": false,
      "t": 158490.50000000064,
      "d": 554.2450520833372,
      "v": 110
    },
    {
      "midi": 54,
      "hit": false,
      "t": 159056.53750000065,
      "d": 554.2450520833372,
      "v": 110
    },
    {
      "midi": 53,
      "hit": false,
      "t": 159622.57500000065,
      "d": 554.2450520833372,
      "v": 110
    },
    {
      "midi": 78,
      "hit": false,
      "t": 160188.61250000042,
      "d": 554.2450520833372,
      "v": 110
    },
    {
      "midi": 51,
      "hit": false,
      "t": 160188.61250000066,
      "d": 554.2450520833372,
      "v": 110
    },
    {
      "midi": 71,
      "hit": false,
      "t": 160754.65000000043,
      "d": 1981.1312500000058,
      "v": 110
    },
    {
      "midi": 47,
      "hit": false,
      "t": 160754.65000000066,
      "d": 1981.1312500000058,
      "v": 110
    },
    {
      "midi": 77,
      "hit": false,
      "t": 163018.80000000042,
      "d": 943.395833333343,
      "v": 110
    },
    {
      "midi": 89,
      "hit": false,
      "t": 163018.80000000042,
      "d": 943.395833333343,
      "v": 110
    },
    {
      "midi": 47,
      "hit": false,
      "t": 163018.80000000066,
      "d": 554.2450520833372,
      "v": 110
    },
    {
      "midi": 54,
      "hit": false,
      "t": 163584.83750000066,
      "d": 554.2450520833372,
      "v": 110
    },
    {
      "midi": 54,
      "hit": false,
      "t": 164150.87500000067,
      "d": 943.395833333343,
      "v": 110
    },
    {
      "midi": 59,
      "hit": false,
      "t": 164150.87500000067,
      "d": 943.395833333343,
      "v": 110
    },
    {
      "midi": 78,
      "hit": false,
      "t": 164433.89375000042,
      "d": 271.22630208331975,
      "v": 110
    },
    {
      "midi": 90,
      "hit": false,
      "t": 164433.89375000042,
      "d": 271.22630208331975,
      "v": 110
    },
    {
      "midi": 80,
      "hit": false,
      "t": 164716.9125000004,
      "d": 271.22630208331975,
      "v": 110
    },
    {
      "midi": 92,
      "hit": false,
      "t": 164716.9125000004,
      "d": 271.22630208331975,
      "v": 110
    },
    {
      "midi": 82,
      "hit": false,
      "t": 164999.9312500004,
      "d": 271.22630208331975,
      "v": 110
    },
    {
      "midi": 94,
      "hit": false,
      "t": 164999.9312500004,
      "d": 271.22630208331975,
      "v": 110
    },
    {
      "midi": 77,
      "hit": false,
      "t": 165282.9500000004,
      "d": 943.395833333343,
      "v": 110
    },
    {
      "midi": 89,
      "hit": false,
      "t": 165282.9500000004,
      "d": 943.395833333343,
      "v": 110
    },
    {
      "midi": 49,
      "hit": false,
      "t": 165282.95000000068,
      "d": 554.2450520833372,
      "v": 110
    },
    {
      "midi": 56,
      "hit": false,
      "t": 165848.9875000007,
      "d": 554.2450520833372,
      "v": 110
    },
    {
      "midi": 56,
      "hit": false,
      "t": 166415.0250000007,
      "d": 943.395833333343,
      "v": 110
    },
    {
      "midi": 61,
      "hit": false,
      "t": 166415.0250000007,
      "d": 943.395833333343,
      "v": 110
    },
    {
      "midi": 39,
      "hit": false,
      "t": 167547.1000000007,
      "d": 554.2450520833372,
      "v": 110
    },
    {
      "midi": 77,
      "hit": false,
      "t": 168113.1375000004,
      "d": 554.2450520833372,
      "v": 110
    },
    {
      "midi": 89,
      "hit": false,
      "t": 168113.1375000004,
      "d": 554.2450520833372,
      "v": 110
    },
    {
      "midi": 51,
      "hit": false,
      "t": 168113.1375000007,
      "d": 1509.4333333333198,
      "v": 110
    },
    {
      "midi": 58,
      "hit": false,
      "t": 168113.1375000007,
      "d": 1509.4333333333198,
      "v": 110
    },
    {
      "midi": 78,
      "hit": false,
      "t": 168679.1750000004,
      "d": 554.2450520833372,
      "v": 110
    },
    {
      "midi": 90,
      "hit": false,
      "t": 168679.1750000004,
      "d": 554.2450520833372,
      "v": 110
    },
    {
      "midi": 77,
      "hit": false,
      "t": 169245.2125000004,
      "d": 554.2450520833372,
      "v": 110
    },
    {
      "midi": 89,
      "hit": false,
      "t": 169245.2125000004,
      "d": 554.2450520833372,
      "v": 110
    },
    {
      "midi": 70,
      "hit": false,
      "t": 169811.2500000004,
      "d": 943.395833333343,
      "v": 110
    },
    {
      "midi": 82,
      "hit": false,
      "t": 169811.2500000004,
      "d": 943.395833333343,
      "v": 110
    },
    {
      "midi": 39,
      "hit": false,
      "t": 169811.2500000007,
      "d": 554.2450520833372,
      "v": 110
    },
    {
      "midi": 46,
      "hit": false,
      "t": 170377.2875000007,
      "d": 554.2450520833372,
      "v": 110
    },
    {
      "midi": 53,
      "hit": false,
      "t": 170943.3250000007,
      "d": 554.2450520833372,
      "v": 110
    },
    {
      "midi": 54,
      "hit": false,
      "t": 171509.36250000072,
      "d": 554.2450520833372,
      "v": 110
    },
    {
      "midi": 83,
      "hit": false,
      "t": 172075.40000000043,
      "d": 943.395833333343,
      "v": 110
    },
    {
      "midi": 89,
      "hit": false,
      "t": 172075.40000000043,
      "d": 943.395833333343,
      "v": 110
    },
    {
      "midi": 47,
      "hit": false,
      "t": 172075.40000000072,
      "d": 554.2450520833372,
      "v": 110
    },
    {
      "midi": 54,
      "hit": false,
      "t": 172641.43750000073,
      "d": 554.2450520833372,
      "v": 110
    },
    {
      "midi": 54,
      "hit": false,
      "t": 173207.47500000073,
      "d": 943.395833333343,
      "v": 110
    },
    {
      "midi": 59,
      "hit": false,
      "t": 173207.47500000073,
      "d": 943.395833333343,
      "v": 110
    },
    {
      "midi": 85,
      "hit": false,
      "t": 173490.49375000043,
      "d": 271.22630208331975,
      "v": 110
    },
    {
      "midi": 90,
      "hit": false,
      "t": 173490.49375000043,
      "d": 271.22630208331975,
      "v": 110
    },
    {
      "midi": 87,
      "hit": false,
      "t": 173773.51250000042,
      "d": 271.22630208331975,
      "v": 110
    },
    {
      "midi": 92,
      "hit": false,
      "t": 173773.51250000042,
      "d": 271.22630208331975,
      "v": 110
    },
    {
      "midi": 90,
      "hit": false,
      "t": 174056.5312500004,
      "d": 271.22630208331975,
      "v": 110
    },
    {
      "midi": 94,
      "hit": false,
      "t": 174056.5312500004,
      "d": 271.22630208331975,
      "v": 110
    },
    {
      "midi": 77,
      "hit": false,
      "t": 174339.5500000004,
      "d": 943.395833333343,
      "v": 110
    },
    {
      "midi": 89,
      "hit": false,
      "t": 174339.5500000004,
      "d": 943.395833333343,
      "v": 110
    },
    {
      "midi": 49,
      "hit": false,
      "t": 174339.55000000075,
      "d": 554.2450520833372,
      "v": 110
    },
    {
      "midi": 56,
      "hit": false,
      "t": 174905.58750000075,
      "d": 554.2450520833372,
      "v": 110
    },
    {
      "midi": 56,
      "hit": false,
      "t": 175471.62500000076,
      "d": 943.395833333343,
      "v": 110
    },
    {
      "midi": 61,
      "hit": false,
      "t": 175471.62500000076,
      "d": 943.395833333343,
      "v": 110
    },
    {
      "midi": 70,
      "hit": false,
      "t": 176603.70000000042,
      "d": 554.2450520833372,
      "v": 110
    },
    {
      "midi": 39,
      "hit": false,
      "t": 176603.70000000077,
      "d": 554.2450520833372,
      "v": 110
    },
    {
      "midi": 78,
      "hit": false,
      "t": 177169.73750000042,
      "d": 554.2450520833372,
      "v": 110
    },
    {
      "midi": 51,
      "hit": false,
      "t": 177169.73750000077,
      "d": 1509.4333333333198,
      "v": 110
    },
    {
      "midi": 58,
      "hit": false,
      "t": 177169.73750000077,
      "d": 1509.4333333333198,
      "v": 110
    },
    {
      "midi": 80,
      "hit": false,
      "t": 177735.77500000043,
      "d": 554.2450520833372,
      "v": 110
    },
    {
      "midi": 78,
      "hit": false,
      "t": 178301.81250000044,
      "d": 554.2450520833372,
      "v": 110
    },
    {
      "midi": 75,
      "hit": false,
      "t": 178867.85000000044,
      "d": 943.395833333343,
      "v": 110
    },
    {
      "midi": 39,
      "hit": false,
      "t": 178867.85000000076,
      "d": 554.2450520833372,
      "v": 110
    },
    {
      "midi": 46,
      "hit": false,
      "t": 179433.88750000077,
      "d": 554.2450520833372,
      "v": 110
    },
    {
      "midi": 51,
      "hit": false,
      "t": 179999.92500000077,
      "d": 554.2450520833372,
      "v": 110
    },
    {
      "midi": 46,
      "hit": false,
      "t": 180565.96250000078,
      "d": 554.2450520833372,
      "v": 110
    },
    {
      "midi": 77,
      "hit": false,
      "t": 181132.00000000047,
      "d": 943.395833333343,
      "v": 110
    },
    {
      "midi": 47,
      "hit": false,
      "t": 181132.0000000008,
      "d": 1981.1312500000058,
      "v": 110
    },
    {
      "midi": 78,
      "hit": false,
      "t": 182547.09375000047,
      "d": 271.22630208331975,
      "v": 110
    },
    {
      "midi": 80,
      "hit": false,
      "t": 182830.11250000045,
      "d": 271.22630208331975,
      "v": 110
    },
    {
      "midi": 82,
      "hit": false,
      "t": 183113.13125000044,
      "d": 271.22630208331975,
      "v": 110
    },
    {
      "midi": 77,
      "hit": false,
      "t": 183396.15000000043,
      "d": 943.395833333343,
      "v": 110
    },
    {
      "midi": 49,
      "hit": false,
      "t": 183396.15000000078,
      "d": 1981.1312500000058,
      "v": 110
    },
    {
      "midi": 34,
      "hit": false,
      "t": 185660.30000000045,
      "d": 554.2450520833372,
      "v": 110
    },
    {
      "midi": 42,
      "hit": false,
      "t": 186226.33750000046,
      "d": 554.2450520833372,
      "v": 110
    },
    {
      "midi": 54,
      "hit": false,
      "t": 186792.37500000047,
      "d": 554.2450520833372,
      "v": 110
    },
    {
      "midi": 51,
      "hit": false,
      "t": 187358.41250000047,
      "d": 554.2450520833372,
      "v": 110
    },
    {
      "midi": 58,
      "hit": false,
      "t": 187924.45000000048,
      "d": 554.2450520833372,
      "v": 110
    },
    {
      "midi": 54,
      "hit": false,
      "t": 188490.48750000048,
      "d": 554.2450520833372,
      "v": 110
    },
    {
      "midi": 63,
      "hit": false,
      "t": 189056.5250000005,
      "d": 554.2450520833372,
      "v": 110
    },
    {
      "midi": 58,
      "hit": false,
      "t": 189622.5625000005,
      "d": 554.2450520833372,
      "v": 110
    },
    {
      "midi": 66,
      "hit": false,
      "t": 190188.6000000005,
      "d": 554.2450520833372,
      "v": 110
    },
    {
      "midi": 70,
      "hit": false,
      "t": 190754.6375000005,
      "d": 554.2450520833372,
      "v": 110
    },
    {
      "midi": 75,
      "hit": false,
      "t": 191320.6750000005,
      "d": 554.2450520833372,
      "v": 110
    },
    {
      "midi": 70,
      "hit": false,
      "t": 191886.71250000052,
      "d": 554.2450520833372,
      "v": 110
    },
    {
      "midi": 87,
      "hit": false,
      "t": 192452.75000000052,
      "d": 6509.431249999994,
      "v": 110
    }
  ]
}