{
  "jsonPath": "Latin/Latin/Laura Pausini/en-ausencia-de-ti.json",
  "path": "Latin\\Latin\\Laura Pausini\\En Ausencia De Ti.mid",
  "name": "En Ausencia De Ti",
  "difficulty": "Intermediate",
  "bpm": 55.00000458333371,
  "notes": [
    {
      "midi": 70,
      "hit": false,
      "t": 93824.99218125001,
      "d": 4006.8178479166527,
      "v": 107
    },
    {
      "midi": 74,
      "hit": false,
      "t": 93836.35581666668,
      "d": 1093.1817270833271,
      "v": 99
    },
    {
      "midi": 75,
      "hit": false,
      "t": 94893.17391041668,
      "d": 1070.454456249994,
      "v": 111
    },
    {
      "midi": 77,
      "hit": false,
      "t": 95990.90109166667,
      "d": 1338.6362520833354,
      "v": 104
    },
    {
      "midi": 75,
      "hit": false,
      "t": 97386.35552083334,
      "d": 302.2727020833263,
      "v": 111
    },
    {
      "midi": 74,
      "hit": false,
      "t": 97790.90094166667,
      "d": 295.4545208333293,
      "v": 107
    },
    {
      "midi": 74,
      "hit": false,
      "t": 98152.26454791667,
      "d": 1159.0908124999987,
      "v": 104
    },
    {
      "midi": 69,
      "hit": false,
      "t": 98181.81,
      "d": 3684.0906020833354,
      "v": 99
    },
    {
      "midi": 75,
      "hit": false,
      "t": 99268.17354583333,
      "d": 1090.9089999999997,
      "v": 109
    },
    {
      "midi": 77,
      "hit": false,
      "t": 100374.99163541666,
      "d": 1315.9089812500024,
      "v": 107
    },
    {
      "midi": 75,
      "hit": false,
      "t": 101759.08242916666,
      "d": 365.9090604166704,
      "v": 109
    },
    {
      "midi": 74,
      "hit": false,
      "t": 102127.26421666666,
      "d": 409.0908749999944,
      "v": 102
    },
    {
      "midi": 72,
      "hit": false,
      "t": 102543.17327291665,
      "d": 1102.2726354166662,
      "v": 104
    },
    {
      "midi": 67,
      "hit": false,
      "t": 102547.71872708332,
      "d": 3654.545149999991,
      "v": 95
    },
    {
      "midi": 74,
      "hit": false,
      "t": 103652.26408958332,
      "d": 1097.7271812499966,
      "v": 102
    },
    {
      "midi": 72,
      "hit": false,
      "t": 104745.44581666664,
      "d": 1361.3635229166684,
      "v": 95
    },
    {
      "midi": 75,
      "hit": false,
      "t": 106102.26388541664,
      "d": 397.72723958334245,
      "v": 111
    },
    {
      "midi": 74,
      "hit": false,
      "t": 106495.44567083332,
      "d": 388.6363312500034,
      "v": 104
    },
    {
      "midi": 67,
      "hit": false,
      "t": 106872.71836666665,
      "d": 2102.272552083319,
      "v": 92
    },
    {
      "midi": 72,
      "hit": false,
      "t": 106886.35472916665,
      "d": 1120.4544520833297,
      "v": 102
    },
    {
      "midi": 74,
      "hit": false,
      "t": 108013.62736249997,
      "d": 2365.9088937500055,
      "v": 99
    },
    {
      "midi": 70,
      "hit": false,
      "t": 110486.35442916665,
      "d": 347.7272437500069,
      "v": 116
    },
    {
      "midi": 72,
      "hit": false,
      "t": 110872.71803333332,
      "d": 299.9999749999988,
      "v": 102
    },
    {
      "midi": 74,
      "hit": false,
      "t": 111227.26345833333,
      "d": 1159.0908124999987,
      "v": 95
    },
    {
      "midi": 70,
      "hit": false,
      "t": 111229.53618541665,
      "d": 1077.2726375000057,
      "v": 109
    },
    {
      "midi": 63,
      "hit": false,
      "t": 112370.44518124999,
      "d": 1056.8180937500001,
      "v": 109
    },
    {
      "midi": 65,
      "hit": false,
      "t": 113465.89963541666,
      "d": 1413.6362458333315,
      "v": 109
    },
    {
      "midi": 75,
      "hit": false,
      "t": 114845.44497499999,
      "d": 409.0908749999944,
      "v": 109
    },
    {
      "midi": 63,
      "hit": false,
      "t": 114847.71770208332,
      "d": 361.3636062500009,
      "v": 104
    },
    {
      "midi": 62,
      "hit": false,
      "t": 115249.99039583332,
      "d": 227.27270833333023,
      "v": 82
    },
    {
      "midi": 74,
      "hit": false,
      "t": 115256.80857708331,
      "d": 272.7272499999963,
      "v": 95
    },
    {
      "midi": 62,
      "hit": false,
      "t": 115595.44491249998,
      "d": 1154.5453583333292,
      "v": 92
    },
    {
      "midi": 74,
      "hit": false,
      "t": 115613.62672916664,
      "d": 1079.5453645833331,
      "v": 99
    },
    {
      "midi": 63,
      "hit": false,
      "t": 116709.08118333331,
      "d": 1088.6362729166576,
      "v": 113
    },
    {
      "midi": 65,
      "hit": false,
      "t": 117797.71745624997,
      "d": 1409.0907916666765,
      "v": 104
    },
    {
      "midi": 75,
      "hit": false,
      "t": 119197.71733958331,
      "d": 324.99997291667387,
      "v": 109
    },
    {
      "midi": 63,
      "hit": false,
      "t": 119202.26279374998,
      "d": 374.99996875000943,
      "v": 104
    },
    {
      "midi": 62,
      "hit": false,
      "t": 119579.53548958332,
      "d": 418.18178333333344,
      "v": 99
    },
    {
      "midi": 74,
      "hit": false,
      "t": 119584.08094374998,
      "d": 431.818145833342,
      "v": 95
    },
    {
      "midi": 60,
      "hit": false,
      "t": 120002.26272708332,
      "d": 3461.3633479166747,
      "v": 102
    },
    {
      "midi": 72,
      "hit": false,
      "t": 120011.35363541666,
      "d": 3581.817883333337,
      "v": 99
    },
    {
      "midi": 63,
      "hit": false,
      "t": 123570.44424791666,
      "d": 449.9999625000055,
      "v": 115
    },
    {
      "midi": 62,
      "hit": false,
      "t": 124027.26239166666,
      "d": 324.99997291667387,
      "v": 107
    },
    {
      "midi": 60,
      "hit": false,
      "t": 124368.17145416667,
      "d": 1095.4544541666692,
      "v": 109
    },
    {
      "midi": 62,
      "hit": false,
      "t": 125445.44409166668,
      "d": 2956.817935416664,
      "v": 111
    },
    {
      "midi": 67,
      "hit": false,
      "t": 126802.26216041668,
      "d": 1829.545302083323,
      "v": 107
    },
    {
      "midi": 69,
      "hit": false,
      "t": 127077.26213750002,
      "d": 1059.0908208333276,
      "v": 109
    },
    {
      "midi": 74,
      "hit": false,
      "t": 127377.26211250002,
      "d": 1190.9089916666562,
      "v": 113
    },
    {
      "midi": 67,
      "hit": false,
      "t": 128690.89836666666,
      "d": 3065.9088354166597,
      "v": 75
    },
    {
      "midi": 62,
      "hit": false,
      "t": 128718.17109166666,
      "d": 1724.9998562499968,
      "v": 99
    },
    {
      "midi": 70,
      "hit": false,
      "t": 128724.98927291666,
      "d": 3220.454277083336,
      "v": 109
    },
    {
      "midi": 63,
      "hit": false,
      "t": 130893.17091041667,
      "d": 634.0908562499972,
      "v": 104
    },
    {
      "midi": 63,
      "hit": false,
      "t": 131713.62538749998,
      "d": 1036.3635500000091,
      "v": 115
    },
    {
      "midi": 67,
      "hit": false,
      "t": 132002.26172708333,
      "d": 799.9999333333399,
      "v": 104
    },
    {
      "midi": 72,
      "hit": false,
      "t": 132263.62534166666,
      "d": 884.0908354166895,
      "v": 107
    },
    {
      "midi": 69,
      "hit": false,
      "t": 133084.07981875,
      "d": 1529.5453270833532,
      "v": 104
    },
    {
      "midi": 65,
      "hit": false,
      "t": 133090.89800000002,
      "d": 1915.9089312499855,
      "v": 102
    },
    {
      "midi": 63,
      "hit": false,
      "t": 135002.26147708335,
      "d": 520.454502083332,
      "v": 107
    },
    {
      "midi": 75,
      "hit": false,
      "t": 135002.26147708335,
      "d": 563.6363166666706,
      "v": 111
    },
    {
      "midi": 62,
      "hit": false,
      "t": 135524.98870625,
      "d": 584.0908604166762,
      "v": 99
    },
    {
      "midi": 74,
      "hit": false,
      "t": 135547.71597708334,
      "d": 534.0908645833551,
      "v": 107
    },
    {
      "midi": 60,
      "hit": false,
      "t": 136084.07956875002,
      "d": 536.3635916666535,
      "v": 89
    },
    {
      "midi": 72,
      "hit": false,
      "t": 136086.35229583335,
      "d": 563.6363166666706,
      "v": 99
    },
    {
      "midi": 58,
      "hit": false,
      "t": 136631.80679583334,
      "d": 554.5454083333316,
      "v": 109
    },
    {
      "midi": 70,
      "hit": false,
      "t": 136638.62497708335,
      "d": 531.8181374999986,
      "v": 109
    },
    {
      "midi": 67,
      "hit": false,
      "t": 137181.80675000002,
      "d": 4256.817827083316,
      "v": 104
    },
    {
      "midi": 63,
      "hit": false,
      "t": 137188.62493125,
      "d": 2413.6361625000136,
      "v": 104
    },
    {
      "midi": 60,
      "hit": false,
      "t": 139624.98836458335,
      "d": 1774.9998520833324,
      "v": 102
    },
    {
      "midi": 60,
      "hit": false,
      "t": 142079.53361458334,
      "d": 1454.5453333333717,
      "v": 104
    },
    {
      "midi": 63,
      "hit": false,
      "t": 142356.80631875002,
      "d": 615.9090395833482,
      "v": 113
    },
    {
      "midi": 67,
      "hit": false,
      "t": 142615.89720625003,
      "d": 327.27270000000135,
      "v": 104
    },
    {
      "midi": 72,
      "hit": false,
      "t": 142911.35172708335,
      "d": 1018.1817333333602,
      "v": 109
    },
    {
      "midi": 67,
      "hit": false,
      "t": 143195.44261250005,
      "d": 459.0908708333445,
      "v": 102
    },
    {
      "midi": 63,
      "hit": false,
      "t": 143461.35168125006,
      "d": 297.7272479166568,
      "v": 109
    },
    {
      "midi": 60,
      "hit": false,
      "t": 143736.35165833338,
      "d": 99.99999166667112,
      "v": 92
    },
    {
      "midi": 69,
      "hit": false,
      "t": 143995.4425458334,
      "d": 1922.727112499997,
      "v": 104
    },
    {
      "midi": 67,
      "hit": false,
      "t": 144004.53345416673,
      "d": 1056.8180937499856,
      "v": 107
    },
    {
      "midi": 62,
      "hit": false,
      "t": 144004.53345416673,
      "d": 1986.363470833312,
      "v": 102
    },
    {
      "midi": 66,
      "hit": false,
      "t": 145063.62427500004,
      "d": 765.9090270833403,
      "v": 111
    },
    {
      "midi": 67,
      "hit": false,
      "t": 146181.80600000004,
      "d": 2174.9998187499586,
      "v": 102
    },
    {
      "midi": 62,
      "hit": false,
      "t": 146186.3514541667,
      "d": 2038.6361937499896,
      "v": 99
    },
    {
      "midi": 70,
      "hit": false,
      "t": 146197.71508958336,
      "d": 2097.7270979166497,
      "v": 109
    },
    {
      "midi": 63,
      "hit": false,
      "t": 148618.16943333333,
      "d": 959.0908291666419,
      "v": 111
    },
    {
      "midi": 67,
      "hit": false,
      "t": 148913.62395416666,
      "d": 1402.2726104166359,
      "v": 75
    },
    {
      "midi": 70,
      "hit": false,
      "t": 149188.62393124998,
      "d": 1340.9089791666484,
      "v": 111
    },
    {
      "midi": 65,
      "hit": false,
      "t": 150552.26018124996,
      "d": 1845.454391666659,
      "v": 107
    },
    {
      "midi": 75,
      "hit": false,
      "t": 152449.9872958333,
      "d": 529.5454104166711,
      "v": 113
    },
    {
      "midi": 63,
      "hit": false,
      "t": 152456.8054770833,
      "d": 518.1817750000046,
      "v": 109
    },
    {
      "midi": 62,
      "hit": false,
      "t": 152968.1690708333,
      "d": 604.5454041666526,
      "v": 95
    },
    {
      "midi": 74,
      "hit": false,
      "t": 152995.4417958333,
      "d": 556.8181354166591,
      "v": 104
    },
    {
      "midi": 60,
      "hit": false,
      "t": 153554.53265833328,
      "d": 513.6363208333496,
      "v": 89
    },
    {
      "midi": 72,
      "hit": false,
      "t": 153554.53265833328,
      "d": 536.3635916666826,
      "v": 102
    },
    {
      "midi": 58,
      "hit": false,
      "t": 154086.3507958333,
      "d": 615.9090395833191,
      "v": 104
    },
    {
      "midi": 70,
      "hit": false,
      "t": 154093.1689770833,
      "d": 527.2726833333436,
      "v": 109
    },
    {
      "midi": 79,
      "hit": false,
      "t": 154631.8052958333,
      "d": 2415.908889583341,
      "v": 109
    },
    {
      "midi": 67,
      "hit": false,
      "t": 157074.98691041663,
      "d": 3120.454285416694,
      "v": 82
    },
    {
      "midi": 60,
      "hit": false,
      "t": 157081.80509166664,
      "d": 1727.2725833333388,
      "v": 82
    },
    {
      "midi": 69,
      "hit": false,
      "t": 159288.6230895833,
      "d": 1968.1816541666922,
      "v": 99
    },
    {
      "midi": 62,
      "hit": false,
      "t": 159306.80490624998,
      "d": 1597.7271395833523,
      "v": 92
    },
    {
      "midi": 66,
      "hit": false,
      "t": 160363.623,
      "d": 865.9090187500115,
      "v": 99
    },
    {
      "midi": 62,
      "hit": false,
      "t": 161702.2592520833,
      "d": 1409.0907916667056,
      "v": 111
    },
    {
      "midi": 67,
      "hit": false,
      "t": 161970.44104791665,
      "d": 602.2726770833542,
      "v": 113
    },
    {
      "midi": 70,
      "hit": false,
      "t": 162245.44102499998,
      "d": 309.0908833333524,
      "v": 113
    },
    {
      "midi": 74,
      "hit": false,
      "t": 162522.71372916666,
      "d": 652.2726729167043,
      "v": 113
    },
    {
      "midi": 70,
      "hit": false,
      "t": 162802.25916041667,
      "d": 468.18177916668355,
      "v": 113
    },
    {
      "midi": 67,
      "hit": false,
      "t": 163093.16822708334,
      "d": 293.1817937500018,
      "v": 107
    },
    {
      "midi": 62,
      "hit": false,
      "t": 163374.98638541668,
      "d": 102.2727187499986,
      "v": 107
    },
    {
      "midi": 67,
      "hit": false,
      "t": 163647.71363541667,
      "d": 1865.9089354166645,
      "v": 111
    },
    {
      "midi": 64,
      "hit": false,
      "t": 163654.53181666668,
      "d": 2936.363391666644,
      "v": 104
    },
    {
      "midi": 72,
      "hit": false,
      "t": 165811.34981875,
      "d": 893.1817437499994,
      "v": 89
    },
    {
      "midi": 69,
      "hit": false,
      "t": 165815.89527291665,
      "d": 665.9090354166692,
      "v": 54
    },
    {
      "midi": 60,
      "hit": false,
      "t": 166613.62247916666,
      "d": 1384.090793750016,
      "v": 109
    },
    {
      "midi": 64,
      "hit": false,
      "t": 166906.80427291666,
      "d": 1084.0908187500027,
      "v": 109
    },
    {
      "midi": 69,
      "hit": false,
      "t": 167177.25879583333,
      "d": 822.7272041666729,
      "v": 109
    },
    {
      "midi": 66,
      "hit": false,
      "t": 167984.07691041665,
      "d": 1936.3634750000201,
      "v": 109
    },
    {
      "midi": 62,
      "hit": false,
      "t": 167990.89509166667,
      "d": 1934.0907479166635,
      "v": 99
    },
    {
      "midi": 60,
      "hit": false,
      "t": 169936.349475,
      "d": 563.6363166666706,
      "v": 104
    },
    {
      "midi": 72,
      "hit": false,
      "t": 169943.16765625,
      "d": 574.9999520833371,
      "v": 109
    },
    {
      "midi": 71,
      "hit": false,
      "t": 170472.71306666668,
      "d": 518.1817750000046,
      "v": 109
    },
    {
      "midi": 59,
      "hit": false,
      "t": 170472.71306666668,
      "d": 549.9999541666766,
      "v": 102
    },
    {
      "midi": 69,
      "hit": false,
      "t": 170979.53120625002,
      "d": 552.2726812500041,
      "v": 111
    },
    {
      "midi": 57,
      "hit": false,
      "t": 170986.34938750003,
      "d": 515.909047916648,
      "v": 102
    },
    {
      "midi": 55,
      "hit": false,
      "t": 171520.44025208335,
      "d": 559.0908624999865,
      "v": 95
    },
    {
      "midi": 67,
      "hit": false,
      "t": 171524.98570625,
      "d": 4884.0905020833015,
      "v": 107
    },
    {
      "midi": 60,
      "hit": false,
      "t": 172081.80384166667,
      "d": 3981.817849999992,
      "v": 99
    },
    {
      "midi": 64,
      "hit": false,
      "t": 172081.80384166667,
      "d": 4322.7269124999875,
      "v": 102
    },
    {
      "midi": 57,
      "hit": false,
      "t": 174527.25818333332,
      "d": 1524.9998729166691,
      "v": 99
    },
    {
      "midi": 66,
      "hit": false,
      "t": 176677.25800416665,
      "d": 1781.818033333344,
      "v": 109
    },
    {
      "midi": 69,
      "hit": false,
      "t": 176977.25797916666,
      "d": 1511.3635104166751,
      "v": 104
    },
    {
      "midi": 72,
      "hit": false,
      "t": 177224.98523125,
      "d": 347.7272437500069,
      "v": 107
    },
    {
      "midi": 76,
      "hit": false,
      "t": 177513.62157083335,
      "d": 1345.4544333333324,
      "v": 111
    },
    {
      "midi": 59,
      "hit": false,
      "t": 178884.07600208334,
      "d": 536.3635916666826,
      "v": 104
    },
    {
      "midi": 76,
      "hit": false,
      "t": 178890.89418333335,
      "d": 806.8181145833223,
      "v": 78
    },
    {
      "midi": 71,
      "hit": false,
      "t": 178902.25781875002,
      "d": 1802.2725770833204,
      "v": 104
    },
    {
      "midi": 66,
      "hit": false,
      "t": 178909.07600000003,
      "d": 674.9999437499791,
      "v": 109
    },
    {
      "midi": 66,
      "hit": false,
      "t": 179702.25775208333,
      "d": 1011.3635520833486,
      "v": 115
    },
    {
      "midi": 75,
      "hit": false,
      "t": 179709.07593333334,
      "d": 1393.181702083326,
      "v": 115
    },
    {
      "midi": 71,
      "hit": false,
      "t": 181111.34854375,
      "d": 2418.1816166666686,
      "v": 109
    },
    {
      "midi": 68,
      "hit": false,
      "t": 181118.16672500002,
      "d": 2270.454356250004,
      "v": 109
    },
    {
      "midi": 64,
      "hit": false,
      "t": 183506.80288958334,
      "d": 2002.2725604166626,
      "v": 104
    },
    {
      "midi": 71,
      "hit": false,
      "t": 183790.893775,
      "d": 1722.7271291666548,
      "v": 104
    },
    {
      "midi": 76,
      "hit": false,
      "t": 184054.53011666666,
      "d": 1431.8180625000095,
      "v": 104
    },
    {
      "midi": 66,
      "hit": false,
      "t": 185452.25727291667,
      "d": 1879.5452979166585,
      "v": 109
    },
    {
      "midi": 64,
      "hit": false,
      "t": 187347.71166041665,
      "d": 622.7272208333015,
      "v": 99
    },
    {
      "midi": 76,
      "hit": false,
      "t": 187359.07529583332,
      "d": 559.0908624999865,
      "v": 99
    },
    {
      "midi": 75,
      "hit": false,
      "t": 187906.80252291664,
      "d": 531.8181374999695,
      "v": 107
    },
    {
      "midi": 63,
      "hit": false,
      "t": 187920.43888541663,
      "d": 504.54541249998147,
      "v": 104
    },
    {
      "midi": 73,
      "hit": false,
      "t": 188431.80247916662,
      "d": 540.9090458333085,
      "v": 109
    },
    {
      "midi": 61,
      "hit": false,
      "t": 188434.07520624995,
      "d": 538.636318749981,
      "v": 107
    },
    {
      "midi": 59,
      "hit": false,
      "t": 188984.0751604166,
      "d": 572.7272250000387,
      "v": 102
    },
    {
      "midi": 71,
      "hit": false,
      "t": 188990.8933416666,
      "d": 572.7272250000387,
      "v": 104
    },
    {
      "midi": 68,
      "hit": false,
      "t": 189531.80238749995,
      "d": 4611.3632520833635,
      "v": 109
    },
    {
      "midi": 64,
      "hit": false,
      "t": 189538.62056874996,
      "d": 2479.545247916685,
      "v": 99
    },
    {
      "midi": 61,
      "hit": false,
      "t": 192013.6203625,
      "d": 2161.3634562499938,
      "v": 107
    },
    {
      "midi": 58,
      "hit": false,
      "t": 194177.2565458333,
      "d": 3759.090595833317,
      "v": 116
    },
    {
      "midi": 68,
      "hit": false,
      "t": 196631.8017958333,
      "d": 234.09088958334178,
      "v": 113
    },
    {
      "midi": 63,
      "hit": false,
      "t": 196643.16543124997,
      "d": 259.0908875000023,
      "v": 109
    },
    {
      "midi": 68,
      "hit": false,
      "t": 197143.1653895833,
      "d": 338.63633541666786,
      "v": 113
    },
    {
      "midi": 63,
      "hit": false,
      "t": 197154.52902499997,
      "d": 274.99997708332376,
      "v": 111
    },
    {
      "midi": 67,
      "hit": false,
      "t": 197947.7107770833,
      "d": 581.8181333333196,
      "v": 107
    },
    {
      "midi": 63,
      "hit": false,
      "t": 197952.25623124995,
      "d": 413.6363291666785,
      "v": 111
    },
    {
      "midi": 70,
      "hit": false,
      "t": 198536.34709166663,
      "d": 2195.4543625000224,
      "v": 109
    },
    {
      "midi": 66,
      "hit": false,
      "t": 198543.16527291664,
      "d": 1054.545366666658,
      "v": 111
    },
    {
      "midi": 68,
      "hit": false,
      "t": 200690.89236666664,
      "d": 1320.454435416672,
      "v": 109
    },
    {
      "midi": 64,
      "hit": false,
      "t": 202054.52861666665,
      "d": 1177.2726291666331,
      "v": 104
    },
    {
      "midi": 68,
      "hit": false,
      "t": 202349.98313749998,
      "d": 461.3635979166429,
      "v": 107
    },
    {
      "midi": 71,
      "hit": false,
      "t": 202613.61947916663,
      "d": 577.2726791666355,
      "v": 95
    },
    {
      "midi": 70,
      "hit": false,
      "t": 203140.89216249995,
      "d": 1138.6362687500077,
      "v": 111
    },
    {
      "midi": 66,
      "hit": false,
      "t": 204279.52843124996,
      "d": 2224.999814583338,
      "v": 95
    },
    {
      "midi": 70,
      "hit": false,
      "t": 204549.98295416663,
      "d": 213.63634583333624,
      "v": 99
    },
    {
      "midi": 76,
      "hit": false,
      "t": 204834.0738395833,
      "d": 522.7272291666595,
      "v": 107
    },
    {
      "midi": 75,
      "hit": false,
      "t": 205352.2556145833,
      "d": 522.7272291666595,
      "v": 111
    },
    {
      "midi": 73,
      "hit": false,
      "t": 205897.7101145833,
      "d": 495.45450416667154,
      "v": 109
    },
    {
      "midi": 71,
      "hit": false,
      "t": 206438.61916041662,
      "d": 3274.999727083341,
      "v": 99
    },
    {
      "midi": 64,
      "hit": false,
      "t": 209718.16434166662,
      "d": 1643.1816812499892,
      "v": 102
    },
    {
      "midi": 71,
      "hit": false,
      "t": 209984.07341041663,
      "d": 1349.9998874999874,
      "v": 92
    },
    {
      "midi": 76,
      "hit": false,
      "t": 210279.52793124996,
      "d": 1454.5453333333135,
      "v": 107
    },
    {
      "midi": 63,
      "hit": false,
      "t": 211890.89143333328,
      "d": 95.45453749998705,
      "v": 85
    },
    {
      "midi": 76,
      "hit": false,
      "t": 212193.1641354166,
      "d": 331.8181541666854,
      "v": 1
    },
    {
      "midi": 63,
      "hit": false,
      "t": 212199.9823166666,
      "d": 113.63635416666511,
      "v": 113
    },
    {
      "midi": 63,
      "hit": false,
      "t": 212449.98229583327,
      "d": 65.90908541667159,
      "v": 111
    },
    {
      "midi": 63,
      "hit": false,
      "t": 212718.1640916666,
      "d": 95.45453749998705,
      "v": 115
    },
    {
      "midi": 63,
      "hit": false,
      "t": 212995.43679583326,
      "d": 84.09090208332054,
      "v": 115
    },
    {
      "midi": 63,
      "hit": false,
      "t": 213263.61859166657,
      "d": 99.99999166667112,
      "v": 115
    },
    {
      "midi": 63,
      "hit": false,
      "t": 213552.25493124992,
      "d": 95.45453749998705,
      "v": 111
    },
    {
      "midi": 71,
      "hit": false,
      "t": 214081.80034166656,
      "d": 309.0908833333233,
      "v": 104
    },
    {
      "midi": 63,
      "hit": false,
      "t": 214379.52758958322,
      "d": 1356.8180687499698,
      "v": 115
    },
    {
      "midi": 68,
      "hit": false,
      "t": 214631.8002958332,
      "d": 502.272685416654,
      "v": 113
    },
    {
      "midi": 71,
      "hit": false,
      "t": 215190.8911583332,
      "d": 1079.5453645833186,
      "v": 104
    },
    {
      "midi": 64,
      "hit": false,
      "t": 216274.98197708317,
      "d": 1759.090762500011,
      "v": 104
    },
    {
      "midi": 68,
      "hit": false,
      "t": 216534.07286458317,
      "d": 313.63633750000736,
      "v": 111
    },
    {
      "midi": 71,
      "hit": false,
      "t": 216804.52738749984,
      "d": 1484.0907854166871,
      "v": 107
    },
    {
      "midi": 68,
      "hit": false,
      "t": 217359.07279583317,
      "d": 574.9999520833371,
      "v": 111
    },
    {
      "midi": 61,
      "hit": false,
      "t": 218443.1636145832,
      "d": 1136.3635416666802,
      "v": 113
    },
    {
      "midi": 66,
      "hit": false,
      "t": 218724.98177291654,
      "d": 420.45451041669,
      "v": 111
    },
    {
      "midi": 70,
      "hit": false,
      "t": 219013.61811249988,
      "d": 577.2726791666646,
      "v": 115
    },
    {
      "midi": 66,
      "hit": false,
      "t": 219554.52715833322,
      "d": 547.72722708332,
      "v": 111
    },
    {
      "midi": 63,
      "hit": false,
      "t": 220113.6180208332,
      "d": 1547.7271437500021,
      "v": 109
    },
    {
      "midi": 71,
      "hit": false,
      "t": 220147.7089270832,
      "d": 2647.7270520833263,
      "v": 107
    },
    {
      "midi": 64,
      "hit": false,
      "t": 222811.34506874986,
      "d": 1893.1816604166816,
      "v": 104
    },
    {
      "midi": 68,
      "hit": false,
      "t": 223079.5268645832,
      "d": 370.4545145833399,
      "v": 107
    },
    {
      "midi": 71,
      "hit": false,
      "t": 223336.34502499987,
      "d": 1377.2726125000045,
      "v": 104
    },
    {
      "midi": 61,
      "hit": false,
      "t": 224729.5267270832,
      "d": 547.7272270833491,
      "v": 109
    },
    {
      "midi": 64,
      "hit": false,
      "t": 224974.9812520832,
      "d": 1879.5452979166585,
      "v": 102
    },
    {
      "midi": 68,
      "hit": false,
      "t": 225247.7085020832,
      "d": 1556.8180520833412,
      "v": 109
    },
    {
      "midi": 71,
      "hit": false,
      "t": 225527.2539333332,
      "d": 1272.7271666666784,
      "v": 102
    },
    {
      "midi": 58,
      "hit": false,
      "t": 226902.25381874986,
      "d": 1743.1816729166603,
      "v": 111
    },
    {
      "midi": 61,
      "hit": false,
      "t": 227709.07193333318,
      "d": 999.9999166666821,
      "v": 111
    },
    {
      "midi": 63,
      "hit": false,
      "t": 229084.07181874986,
      "d": 68.18181249999907,
      "v": 104
    },
    {
      "midi": 68,
      "hit": false,
      "t": 229086.34454583318,
      "d": 88.63635625000461,
      "v": 111
    },
    {
      "midi": 63,
      "hit": false,
      "t": 229356.79906874985,
      "d": 59.09090416666004,
      "v": 71
    },
    {
      "midi": 68,
      "hit": false,
      "t": 229356.79906874985,
      "d": 88.63635625000461,
      "v": 102
    },
    {
      "midi": 63,
      "hit": false,
      "t": 229627.25359166652,
      "d": 65.90908541667159,
      "v": 102
    },
    {
      "midi": 68,
      "hit": false,
      "t": 229627.25359166652,
      "d": 88.63635625000461,
      "v": 109
    },
    {
      "midi": 63,
      "hit": false,
      "t": 229886.34447916652,
      "d": 222.72725416664616,
      "v": 109
    },
    {
      "midi": 68,
      "hit": false,
      "t": 229890.88993333318,
      "d": 181.81816666666418,
      "v": 111
    },
    {
      "midi": 63,
      "hit": false,
      "t": 230438.6171604165,
      "d": 531.8181374999986,
      "v": 107
    },
    {
      "midi": 67,
      "hit": false,
      "t": 230443.16261458315,
      "d": 745.4544833333348,
      "v": 109
    },
    {
      "midi": 68,
      "hit": false,
      "t": 231270.43527291648,
      "d": 2120.4543687499536,
      "v": 111
    },
    {
      "midi": 71,
      "hit": false,
      "t": 231534.07161458314,
      "d": 1772.7271249999758,
      "v": 102
    },
    {
      "midi": 75,
      "hit": false,
      "t": 231815.88977291647,
      "d": 1397.727156249981,
      "v": 104
    },
    {
      "midi": 80,
      "hit": false,
      "t": 232102.25338541646,
      "d": 1099.9999083333241,
      "v": 109
    },
    {
      "midi": 61,
      "hit": false,
      "t": 233449.9805458331,
      "d": 2140.9089125000173,
      "v": 102
    },
    {
      "midi": 64,
      "hit": false,
      "t": 233718.16234166644,
      "d": 1670.4544062500063,
      "v": 82
    },
    {
      "midi": 71,
      "hit": false,
      "t": 233963.61686666645,
      "d": 1465.908968750009,
      "v": 99
    },
    {
      "midi": 76,
      "hit": false,
      "t": 234247.7077520831,
      "d": 1343.181706250005,
      "v": 109
    },
    {
      "midi": 66,
      "hit": false,
      "t": 235624.9803645831,
      "d": 1424.999881249998,
      "v": 109
    },
    {
      "midi": 73,
      "hit": false,
      "t": 235886.34397916644,
      "d": 329.54542708332883,
      "v": 109
    },
    {
      "midi": 78,
      "hit": false,
      "t": 236179.52577291644,
      "d": 1165.9089937499957,
      "v": 115
    },
    {
      "midi": 59,
      "hit": false,
      "t": 237543.16202291643,
      "d": 1304.5453458333504,
      "v": 104
    },
    {
      "midi": 63,
      "hit": false,
      "t": 238063.61652499976,
      "d": 552.2726812500041,
      "v": 115
    },
    {
      "midi": 61,
      "hit": false,
      "t": 238593.16193541643,
      "d": 556.8181354166591,
      "v": 116
    },
    {
      "midi": 59,
      "hit": false,
      "t": 239145.43461666643,
      "d": 2893.1815770833346,
      "v": 109
    },
    {
      "midi": 63,
      "hit": false,
      "t": 239690.88911666643,
      "d": 2370.454347916675,
      "v": 113
    },
    {
      "midi": 68,
      "hit": false,
      "t": 239709.0709333331,
      "d": 2395.4543458333355,
      "v": 111
    },
    {
      "midi": 61,
      "hit": false,
      "t": 242156.79800208312,
      "d": 1563.6362333333236,
      "v": 113
    },
    {
      "midi": 64,
      "hit": false,
      "t": 242424.97979791646,
      "d": 1911.3634770833014,
      "v": 107
    },
    {
      "midi": 71,
      "hit": false,
      "t": 242699.97977499978,
      "d": 1611.3635020833171,
      "v": 107
    },
    {
      "midi": 76,
      "hit": false,
      "t": 242984.07066041644,
      "d": 1343.1817062499758,
      "v": 111
    },
    {
      "midi": 58,
      "hit": false,
      "t": 244354.52509166644,
      "d": 2059.090737499995,
      "v": 113
    },
    {
      "midi": 61,
      "hit": false,
      "t": 244913.61595416642,
      "d": 1572.7271416666626,
      "v": 111
    },
    {
      "midi": 64,
      "hit": false,
      "t": 245190.8886583331,
      "d": 1249.9998958333163,
      "v": 111
    },
    {
      "midi": 63,
      "hit": false,
      "t": 246513.61582083307,
      "d": 106.81817291665357,
      "v": 107
    },
    {
      "midi": 68,
      "hit": false,
      "t": 246518.16127499973,
      "d": 106.81817291665357,
      "v": 111
    },
    {
      "midi": 63,
      "hit": false,
      "t": 246797.7067062497,
      "d": 340.90906249999534,
      "v": 113
    },
    {
      "midi": 68,
      "hit": false,
      "t": 246802.25216041636,
      "d": 363.63633333332837,
      "v": 113
    },
    {
      "midi": 63,
      "hit": false,
      "t": 247334.07029791636,
      "d": 356.8181520833459,
      "v": 115
    },
    {
      "midi": 68,
      "hit": false,
      "t": 247343.1612062497,
      "d": 415.90905625000596,
      "v": 115
    },
    {
      "midi": 63,
      "hit": false,
      "t": 247852.25207291637,
      "d": 452.272689583333,
      "v": 113
    },
    {
      "midi": 67,
      "hit": false,
      "t": 247852.25207291637,
      "d": 788.6362979166734,
      "v": 111
    },
    {
      "midi": 68,
      "hit": false,
      "t": 248743.16108958304,
      "d": 1547.7271437500021,
      "v": 111
    },
    {
      "midi": 71,
      "hit": false,
      "t": 249002.25197708304,
      "d": 1838.6362104166765,
      "v": 104
    },
    {
      "midi": 75,
      "hit": false,
      "t": 249272.7064999997,
      "d": 1559.0907791666687,
      "v": 107
    },
    {
      "midi": 61,
      "hit": false,
      "t": 250895.43363749972,
      "d": 2104.545279166661,
      "v": 109
    },
    {
      "midi": 64,
      "hit": false,
      "t": 251161.34270624974,
      "d": 1811.3634854166594,
      "v": 104
    },
    {
      "midi": 71,
      "hit": false,
      "t": 251424.9790479164,
      "d": 1515.90896458333,
      "v": 107
    },
    {
      "midi": 76,
      "hit": false,
      "t": 251715.88811458307,
      "d": 1363.6362499999814,
      "v": 102
    },
    {
      "midi": 54,
      "hit": false,
      "t": 253074.9789104164,
      "d": 1934.0907479166344,
      "v": 107
    },
    {
      "midi": 61,
      "hit": false,
      "t": 253640.88795416636,
      "d": 870.4544729166664,
      "v": 104
    },
    {
      "midi": 66,
      "hit": false,
      "t": 253922.7061124997,
      "d": 345.4545166666794,
      "v": 109
    },
    {
      "midi": 66,
      "hit": false,
      "t": 254474.9787937497,
      "d": 131.81817083331407,
      "v": 111
    },
    {
      "midi": 76,
      "hit": false,
      "t": 254990.88784166635,
      "d": 524.999956249987,
      "v": 109
    },
    {
      "midi": 59,
      "hit": false,
      "t": 254990.88784166635,
      "d": 1818.1816666666127,
      "v": 104
    },
    {
      "midi": 75,
      "hit": false,
      "t": 255531.79688749966,
      "d": 581.8181333333196,
      "v": 113
    },
    {
      "midi": 73,
      "hit": false,
      "t": 256070.43320624964,
      "d": 597.7272229166701,
      "v": 115
    },
    {
      "midi": 71,
      "hit": false,
      "t": 256631.79679583298,
      "d": 549.9999541666184,
      "v": 111
    },
    {
      "midi": 76,
      "hit": false,
      "t": 257174.97856874962,
      "d": 2661.363414583291,
      "v": 109
    },
    {
      "midi": 68,
      "hit": false,
      "t": 257177.25129583295,
      "d": 2081.818008333299,
      "v": 111
    },
    {
      "midi": 61,
      "hit": false,
      "t": 259634.06927291624,
      "d": 1515.9089645833592,
      "v": 109
    },
    {
      "midi": 64,
      "hit": false,
      "t": 259888.6147062496,
      "d": 1934.0907479166344,
      "v": 104
    },
    {
      "midi": 71,
      "hit": false,
      "t": 260159.06922916626,
      "d": 1661.3634979166382,
      "v": 102
    },
    {
      "midi": 76,
      "hit": false,
      "t": 260447.7055687496,
      "d": 1349.9998874999874,
      "v": 109
    },
    {
      "midi": 58,
      "hit": false,
      "t": 261802.25091041625,
      "d": 1699.9998583332635,
      "v": 113
    },
    {
      "midi": 61,
      "hit": false,
      "t": 262088.61452291624,
      "d": 1409.0907916666183,
      "v": 113
    },
    {
      "midi": 64,
      "hit": false,
      "t": 262347.70541041624,
      "d": 1520.4544187498977,
      "v": 104
    },
    {
      "midi": 68,
      "hit": false,
      "t": 263981.7961833328,
      "d": 234.09088958334178,
      "v": 113
    },
    {
      "midi": 63,
      "hit": false,
      "t": 263981.7961833328,
      "d": 238.63634374999674,
      "v": 109
    },
    {
      "midi": 63,
      "hit": false,
      "t": 264284.06888541614,
      "d": 340.90906249999534,
      "v": 111
    },
    {
      "midi": 68,
      "hit": false,
      "t": 264302.2507020828,
      "d": 334.0908812499838,
      "v": 113
    },
    {
      "midi": 63,
      "hit": false,
      "t": 264820.4324770828,
      "d": 343.1817895832937,
      "v": 113
    },
    {
      "midi": 68,
      "hit": false,
      "t": 264820.4324770828,
      "d": 438.6363270832808,
      "v": 115
    },
    {
      "midi": 63,
      "hit": false,
      "t": 265349.97788749944,
      "d": 459.09087083337363,
      "v": 113
    },
    {
      "midi": 67,
      "hit": false,
      "t": 265356.79606874945,
      "d": 781.8181166666909,
      "v": 111
    },
    {
      "midi": 68,
      "hit": false,
      "t": 266174.9778187495,
      "d": 1313.6362541666604,
      "v": 116
    },
    {
      "midi": 71,
      "hit": false,
      "t": 266447.7050687495,
      "d": 1854.5452999999397,
      "v": 95
    },
    {
      "midi": 75,
      "hit": false,
      "t": 266715.88686458283,
      "d": 1570.454414583277,
      "v": 113
    },
    {
      "midi": 83,
      "hit": false,
      "t": 267002.25047708285,
      "d": 1256.8180770832696,
      "v": 111
    },
    {
      "midi": 61,
      "hit": false,
      "t": 268345.43218333274,
      "d": 2018.181649999984,
      "v": 109
    },
    {
      "midi": 64,
      "hit": false,
      "t": 268602.2503437494,
      "d": 1806.8180312499753,
      "v": 104
    },
    {
      "midi": 71,
      "hit": false,
      "t": 268861.3412312494,
      "d": 1581.8180500000017,
      "v": 107
    },
    {
      "midi": 76,
      "hit": false,
      "t": 269143.15938958275,
      "d": 1361.3635229166248,
      "v": 111
    }
  ]
}