{
  "jsonPath": "Rock/Pop Rock/Uncle Kracker/follow-me-explicit-lp-version.json",
  "path": "Rock\\Pop Rock\\Uncle Kracker\\Follow Me (Explicit LP Version).mid",
  "name": "Follow Me (Explicit LP Version)",
  "difficulty": "Advanced",
  "bpm": 107.01405808009646,
  "notes": [
    {
      "midi": 60,
      "hit": false,
      "t": 22426.96,
      "d": 213.1729270833348,
      "v": 110
    },
    {
      "midi": 65,
      "hit": false,
      "t": 22426.96,
      "d": 343.12080729167064,
      "v": 107
    },
    {
      "midi": 57,
      "hit": false,
      "t": 22426.96,
      "d": 611.7770989583369,
      "v": 103
    },
    {
      "midi": 53,
      "hit": false,
      "t": 22426.96,
      "d": 2108.367854166667,
      "v": 99
    },
    {
      "midi": 60,
      "hit": false,
      "t": 22707.297000000002,
      "d": 306.6185937500013,
      "v": 110
    },
    {
      "midi": 65,
      "hit": false,
      "t": 22987.634000000002,
      "d": 74.46451562500079,
      "v": 112
    },
    {
      "midi": 57,
      "hit": false,
      "t": 23267.971,
      "d": 389.84364062500026,
      "v": 88
    },
    {
      "midi": 60,
      "hit": false,
      "t": 23267.971,
      "d": 487.6695729166677,
      "v": 107
    },
    {
      "midi": 65,
      "hit": false,
      "t": 23267.971,
      "d": 559.2139114583333,
      "v": 107
    },
    {
      "midi": 57,
      "hit": false,
      "t": 23828.645,
      "d": 786.9877239583366,
      "v": 116
    },
    {
      "midi": 60,
      "hit": false,
      "t": 24108.982,
      "d": 489.12966145833343,
      "v": 125
    },
    {
      "midi": 65,
      "hit": false,
      "t": 24389.319,
      "d": 223.39354687500236,
      "v": 110
    },
    {
      "midi": 58,
      "hit": false,
      "t": 24669.656000000003,
      "d": 181.05097916666637,
      "v": 103
    },
    {
      "midi": 62,
      "hit": false,
      "t": 24669.656000000003,
      "d": 315.3791249999995,
      "v": 107
    },
    {
      "midi": 65,
      "hit": false,
      "t": 24669.656000000003,
      "d": 562.1340885416648,
      "v": 105
    },
    {
      "midi": 46,
      "hit": false,
      "t": 24669.656000000003,
      "d": 2302.5596302083286,
      "v": 94
    },
    {
      "midi": 58,
      "hit": false,
      "t": 24949.993000000002,
      "d": 1138.869062499998,
      "v": 105
    },
    {
      "midi": 62,
      "hit": false,
      "t": 25230.33,
      "d": 385.46337499999936,
      "v": 112
    },
    {
      "midi": 62,
      "hit": false,
      "t": 26071.341,
      "d": 899.4145416666652,
      "v": 105
    },
    {
      "midi": 58,
      "hit": false,
      "t": 26351.678,
      "d": 588.4156822916666,
      "v": 122
    },
    {
      "midi": 65,
      "hit": false,
      "t": 26912.352,
      "d": 46.722833333333256,
      "v": 96
    },
    {
      "midi": 60,
      "hit": false,
      "t": 26912.352,
      "d": 232.15407812500052,
      "v": 103
    },
    {
      "midi": 57,
      "hit": false,
      "t": 26912.352,
      "d": 363.5620468749985,
      "v": 84
    },
    {
      "midi": 60,
      "hit": false,
      "t": 27192.689,
      "d": 324.1396562500013,
      "v": 107
    },
    {
      "midi": 57,
      "hit": false,
      "t": 27473.025999999998,
      "d": 93.44566666667015,
      "v": 105
    },
    {
      "midi": 60,
      "hit": false,
      "t": 27753.363,
      "d": 384.0032864583336,
      "v": 112
    },
    {
      "midi": 57,
      "hit": false,
      "t": 27753.363,
      "d": 608.8569218749981,
      "v": 112
    },
    {
      "midi": 65,
      "hit": false,
      "t": 27753.363,
      "d": 1089.2260520833333,
      "v": 103
    },
    {
      "midi": 60,
      "hit": false,
      "t": 28314.037,
      "d": 525.6318749999991,
      "v": 116
    },
    {
      "midi": 57,
      "hit": false,
      "t": 28594.374,
      "d": 265.7361145833347,
      "v": 105
    },
    {
      "midi": 53,
      "hit": false,
      "t": 28874.711000000003,
      "d": 5.840354166666657,
      "v": 94
    },
    {
      "midi": 46,
      "hit": false,
      "t": 28874.711000000003,
      "d": 303.69841666666616,
      "v": 110
    },
    {
      "midi": 58,
      "hit": false,
      "t": 28874.711000000003,
      "d": 322.6795677083319,
      "v": 105
    },
    {
      "midi": 62,
      "hit": false,
      "t": 28874.711000000003,
      "d": 331.4400989583337,
      "v": 103
    },
    {
      "midi": 48,
      "hit": false,
      "t": 29435.385000000002,
      "d": 335.8203645833346,
      "v": 107
    },
    {
      "midi": 55,
      "hit": false,
      "t": 29435.385000000002,
      "d": 340.2006302083355,
      "v": 96
    },
    {
      "midi": 60,
      "hit": false,
      "t": 29435.385000000002,
      "d": 340.2006302083355,
      "v": 107
    },
    {
      "midi": 64,
      "hit": false,
      "t": 29435.385000000002,
      "d": 340.2006302083355,
      "v": 92
    },
    {
      "midi": 65,
      "hit": false,
      "t": 29996.059000000005,
      "d": 236.53434375000143,
      "v": 107
    },
    {
      "midi": 55,
      "hit": false,
      "t": 29996.059000000005,
      "d": 242.37469791666808,
      "v": 103
    },
    {
      "midi": 60,
      "hit": false,
      "t": 29996.059000000005,
      "d": 243.83478645833384,
      "v": 118
    },
    {
      "midi": 55,
      "hit": false,
      "t": 30255.954760416673,
      "d": 116.80708333333678,
      "v": 96
    },
    {
      "midi": 53,
      "hit": false,
      "t": 30276.396000000008,
      "d": 981.179500000002,
      "v": 92
    },
    {
      "midi": 57,
      "hit": false,
      "t": 30276.396000000008,
      "d": 981.179500000002,
      "v": 101
    },
    {
      "midi": 60,
      "hit": false,
      "t": 30276.396000000008,
      "d": 981.179500000002,
      "v": 107
    },
    {
      "midi": 65,
      "hit": false,
      "t": 30276.396000000008,
      "d": 981.179500000002,
      "v": 96
    },
    {
      "midi": 53,
      "hit": false,
      "t": 44853.92000000001,
      "d": 316.83921354166523,
      "v": 112
    },
    {
      "midi": 60,
      "hit": false,
      "t": 44853.92000000001,
      "d": 340.20063020833186,
      "v": 107
    },
    {
      "midi": 69,
      "hit": false,
      "t": 44853.92000000001,
      "d": 341.6607187499976,
      "v": 107
    },
    {
      "midi": 65,
      "hit": false,
      "t": 44853.92000000001,
      "d": 347.5010729166679,
      "v": 107
    },
    {
      "midi": 69,
      "hit": false,
      "t": 45414.59400000001,
      "d": 353.3414270833309,
      "v": 107
    },
    {
      "midi": 60,
      "hit": false,
      "t": 45414.59400000001,
      "d": 366.48222395833,
      "v": 105
    },
    {
      "midi": 53,
      "hit": false,
      "t": 45414.59400000001,
      "d": 372.3225781250003,
      "v": 114
    },
    {
      "midi": 65,
      "hit": false,
      "t": 45414.59400000001,
      "d": 394.22390625000116,
      "v": 105
    },
    {
      "midi": 60,
      "hit": false,
      "t": 45975.26800000001,
      "d": 316.83921354166523,
      "v": 116
    },
    {
      "midi": 67,
      "hit": false,
      "t": 45975.26800000001,
      "d": 334.36027604166884,
      "v": 105
    },
    {
      "midi": 53,
      "hit": false,
      "t": 45975.26800000001,
      "d": 521.2516093750019,
      "v": 116
    },
    {
      "midi": 65,
      "hit": false,
      "t": 46255.60500000001,
      "d": 302.2383281250004,
      "v": 110
    },
    {
      "midi": 60,
      "hit": false,
      "t": 46535.94200000001,
      "d": 169.3702708333367,
      "v": 110
    },
    {
      "midi": 58,
      "hit": false,
      "t": 46816.27900000002,
      "d": 388.38355208333087,
      "v": 110
    },
    {
      "midi": 65,
      "hit": false,
      "t": 46816.27900000002,
      "d": 394.22390625000116,
      "v": 101
    },
    {
      "midi": 62,
      "hit": false,
      "t": 46816.27900000002,
      "d": 405.9046145833345,
      "v": 110
    },
    {
      "midi": 46,
      "hit": false,
      "t": 46816.27900000002,
      "d": 414.6651458333363,
      "v": 101
    },
    {
      "midi": 67,
      "hit": false,
      "t": 47376.95300000002,
      "d": 329.9800104166643,
      "v": 110
    },
    {
      "midi": 48,
      "hit": false,
      "t": 47376.95300000002,
      "d": 343.12080729166337,
      "v": 96
    },
    {
      "midi": 60,
      "hit": false,
      "t": 47376.95300000002,
      "d": 373.78266666666605,
      "v": 107
    },
    {
      "midi": 64,
      "hit": false,
      "t": 47376.95300000002,
      "d": 410.28488020833174,
      "v": 107
    },
    {
      "midi": 60,
      "hit": false,
      "t": 47937.62700000002,
      "d": 113.88690625000163,
      "v": 114
    },
    {
      "midi": 57,
      "hit": false,
      "t": 47937.62700000002,
      "d": 115.34699479166738,
      "v": 103
    },
    {
      "midi": 65,
      "hit": false,
      "t": 47937.62700000002,
      "d": 127.0277031250007,
      "v": 103
    },
    {
      "midi": 53,
      "hit": false,
      "t": 47937.62700000002,
      "d": 129.9478802083322,
      "v": 101
    },
    {
      "midi": 53,
      "hit": false,
      "t": 48217.96400000002,
      "d": 310.9988593750022,
      "v": 107
    },
    {
      "midi": 57,
      "hit": false,
      "t": 48217.96400000002,
      "d": 318.29930208333826,
      "v": 112
    },
    {
      "midi": 60,
      "hit": false,
      "t": 48217.96400000002,
      "d": 325.5997447916743,
      "v": 116
    },
    {
      "midi": 65,
      "hit": false,
      "t": 48217.96400000002,
      "d": 340.20063020833913,
      "v": 105
    },
    {
      "midi": 48,
      "hit": false,
      "t": 48498.30100000002,
      "d": 303.69841666667344,
      "v": 101
    },
    {
      "midi": 50,
      "hit": false,
      "t": 48778.63800000003,
      "d": 255.51549479166715,
      "v": 116
    },
    {
      "midi": 53,
      "hit": false,
      "t": 49058.97500000003,
      "d": 284.7172656249968,
      "v": 116
    },
    {
      "midi": 41,
      "hit": false,
      "t": 49339.31200000003,
      "d": 734.424536458333,
      "v": 113
    },
    {
      "midi": 62,
      "hit": false,
      "t": 55787.063000000024,
      "d": 439.48665104166867,
      "v": 101
    },
    {
      "midi": 64,
      "hit": false,
      "t": 56347.73700000002,
      "d": 449.7072708333362,
      "v": 107
    },
    {
      "midi": 53,
      "hit": false,
      "t": 56908.41100000003,
      "d": 109.50664062499709,
      "v": 105
    },
    {
      "midi": 53,
      "hit": false,
      "t": 57188.74800000003,
      "d": 700.8424999999988,
      "v": 96
    },
    {
      "midi": 65,
      "hit": false,
      "t": 58321.77670833336,
      "d": 335.8203645833346,
      "v": 86
    },
    {
      "midi": 53,
      "hit": false,
      "t": 58321.77670833336,
      "d": 2214.9543177083397,
      "v": 92
    },
    {
      "midi": 60,
      "hit": false,
      "t": 58323.236796875026,
      "d": 202.9523072916636,
      "v": 99
    },
    {
      "midi": 57,
      "hit": false,
      "t": 58324.69688541669,
      "d": 454.0875364583335,
      "v": 90
    },
    {
      "midi": 60,
      "hit": false,
      "t": 58602.11370833336,
      "d": 128.48779166666645,
      "v": 92
    },
    {
      "midi": 60,
      "hit": false,
      "t": 58870.770000000026,
      "d": 91.98557812500076,
      "v": 94
    },
    {
      "midi": 65,
      "hit": false,
      "t": 58870.770000000026,
      "d": 106.58646354166558,
      "v": 83
    },
    {
      "midi": 57,
      "hit": false,
      "t": 58870.770000000026,
      "d": 113.88690625000163,
      "v": 90
    },
    {
      "midi": 57,
      "hit": false,
      "t": 59151.107000000025,
      "d": 426.3458541666696,
      "v": 101
    },
    {
      "midi": 65,
      "hit": false,
      "t": 59151.107000000025,
      "d": 553.3735572916703,
      "v": 92
    },
    {
      "midi": 60,
      "hit": false,
      "t": 59151.107000000025,
      "d": 565.0542656250036,
      "v": 107
    },
    {
      "midi": 57,
      "hit": false,
      "t": 59711.78100000003,
      "d": 805.9688749999987,
      "v": 112
    },
    {
      "midi": 60,
      "hit": false,
      "t": 59992.11800000003,
      "d": 508.1108125000028,
      "v": 107
    },
    {
      "midi": 65,
      "hit": false,
      "t": 60272.45500000003,
      "d": 240.91460937500233,
      "v": 92
    },
    {
      "midi": 62,
      "hit": false,
      "t": 60552.79200000003,
      "d": 500.81036979166674,
      "v": 107
    },
    {
      "midi": 53,
      "hit": false,
      "t": 60552.79200000003,
      "d": 2241.235911458338,
      "v": 99
    },
    {
      "midi": 58,
      "hit": false,
      "t": 60833.12900000003,
      "d": 201.49221874999785,
      "v": 94
    },
    {
      "midi": 58,
      "hit": false,
      "t": 61113.46600000003,
      "d": 74.46451562499715,
      "v": 89
    },
    {
      "midi": 62,
      "hit": false,
      "t": 61113.46600000003,
      "d": 78.84478124999441,
      "v": 94
    },
    {
      "midi": 65,
      "hit": false,
      "t": 61113.46600000003,
      "d": 96.36584374999802,
      "v": 77
    },
    {
      "midi": 62,
      "hit": false,
      "t": 61393.80300000003,
      "d": 499.350281250001,
      "v": 105
    },
    {
      "midi": 58,
      "hit": false,
      "t": 61393.80300000003,
      "d": 633.6784270833305,
      "v": 105
    },
    {
      "midi": 65,
      "hit": false,
      "t": 61393.80300000003,
      "d": 1382.7038489583356,
      "v": 96
    },
    {
      "midi": 62,
      "hit": false,
      "t": 61954.47700000003,
      "d": 766.5464843750015,
      "v": 107
    },
    {
      "midi": 58,
      "hit": false,
      "t": 62234.81400000003,
      "d": 497.89019270833523,
      "v": 110
    },
    {
      "midi": 57,
      "hit": false,
      "t": 62795.488000000034,
      "d": 833.7105572916698,
      "v": 96
    },
    {
      "midi": 60,
      "hit": false,
      "t": 62795.488000000034,
      "d": 835.1706458333356,
      "v": 99
    },
    {
      "midi": 65,
      "hit": false,
      "t": 62795.488000000034,
      "d": 848.3114427083347,
      "v": 88
    },
    {
      "midi": 57,
      "hit": false,
      "t": 80737.05600000004,
      "d": 1788.6084635416628,
      "v": 83
    },
    {
      "midi": 65,
      "hit": false,
      "t": 80737.05600000004,
      "d": 1810.5097916666564,
      "v": 74
    },
    {
      "midi": 60,
      "hit": false,
      "t": 80737.05600000004,
      "d": 1876.2137760416517,
      "v": 99
    },
    {
      "midi": 53,
      "hit": false,
      "t": 82699.41500000002,
      "d": 354.80151562500396,
      "v": 88
    },
    {
      "midi": 58,
      "hit": false,
      "t": 82699.41500000002,
      "d": 414.6651458333363,
      "v": 94
    },
    {
      "midi": 62,
      "hit": false,
      "t": 82699.41500000002,
      "d": 440.9467395833344,
      "v": 86
    },
    {
      "midi": 55,
      "hit": false,
      "t": 83260.08900000002,
      "d": 446.78709374999744,
      "v": 92
    },
    {
      "midi": 64,
      "hit": false,
      "t": 83260.08900000002,
      "d": 459.9278906249965,
      "v": 86
    },
    {
      "midi": 60,
      "hit": false,
      "t": 83260.08900000002,
      "d": 477.4489531250001,
      "v": 94
    },
    {
      "midi": 57,
      "hit": false,
      "t": 83820.76300000002,
      "d": 124.10752604166919,
      "v": 81
    },
    {
      "midi": 60,
      "hit": false,
      "t": 83820.76300000002,
      "d": 132.86805729166372,
      "v": 90
    },
    {
      "midi": 65,
      "hit": false,
      "t": 83820.76300000002,
      "d": 137.24832291666826,
      "v": 99
    },
    {
      "midi": 57,
      "hit": false,
      "t": 84101.10000000002,
      "d": 297.85806250000314,
      "v": 84
    },
    {
      "midi": 60,
      "hit": false,
      "t": 84101.10000000002,
      "d": 302.2383281250077,
      "v": 94
    },
    {
      "midi": 65,
      "hit": false,
      "t": 84101.10000000002,
      "d": 302.2383281250077,
      "v": 86
    },
    {
      "midi": 48,
      "hit": false,
      "t": 84381.43700000002,
      "d": 353.3414270833455,
      "v": 88
    },
    {
      "midi": 50,
      "hit": false,
      "t": 84661.77400000003,
      "d": 305.1585052083392,
      "v": 103
    },
    {
      "midi": 48,
      "hit": false,
      "t": 84942.11100000003,
      "d": 316.83921354166523,
      "v": 92
    },
    {
      "midi": 57,
      "hit": false,
      "t": 85222.44800000003,
      "d": 725.6640052083385,
      "v": 90
    },
    {
      "midi": 65,
      "hit": false,
      "t": 85222.44800000003,
      "d": 727.1240937500115,
      "v": 88
    },
    {
      "midi": 60,
      "hit": false,
      "t": 85222.44800000003,
      "d": 728.5841822916846,
      "v": 103
    },
    {
      "midi": 57,
      "hit": false,
      "t": 86063.45900000005,
      "d": 989.9400312499929,
      "v": 101
    },
    {
      "midi": 53,
      "hit": false,
      "t": 86063.45900000005,
      "d": 1010.381270833328,
      "v": 94
    },
    {
      "midi": 60,
      "hit": false,
      "t": 86063.45900000005,
      "d": 1049.8036614583252,
      "v": 99
    },
    {
      "midi": 53,
      "hit": false,
      "t": 87184.80700000004,
      "d": 965.1185260416678,
      "v": 76
    },
    {
      "midi": 58,
      "hit": false,
      "t": 87184.80700000004,
      "d": 1001.6207395833335,
      "v": 105
    },
    {
      "midi": 62,
      "hit": false,
      "t": 87184.80700000004,
      "d": 1014.7615364583326,
      "v": 90
    },
    {
      "midi": 60,
      "hit": false,
      "t": 88306.15500000004,
      "d": 404.4445260416687,
      "v": 110
    },
    {
      "midi": 55,
      "hit": false,
      "t": 88306.15500000004,
      "d": 1249.8357916666719,
      "v": 92
    },
    {
      "midi": 64,
      "hit": false,
      "t": 88306.15500000004,
      "d": 1268.8169427083485,
      "v": 88
    },
    {
      "midi": 60,
      "hit": false,
      "t": 88866.82900000004,
      "d": 696.4622343750088,
      "v": 110
    },
    {
      "midi": 65,
      "hit": false,
      "t": 89707.84000000005,
      "d": 728.58418229167,
      "v": 110
    },
    {
      "midi": 60,
      "hit": false,
      "t": 89707.84000000005,
      "d": 738.8048020833376,
      "v": 110
    },
    {
      "midi": 57,
      "hit": false,
      "t": 89707.84000000005,
      "d": 741.7249791666691,
      "v": 110
    },
    {
      "midi": 57,
      "hit": false,
      "t": 90548.85100000005,
      "d": 1017.6817135416641,
      "v": 104
    },
    {
      "midi": 53,
      "hit": false,
      "t": 90548.85100000005,
      "d": 1024.9821562500001,
      "v": 104
    },
    {
      "midi": 60,
      "hit": false,
      "t": 90548.85100000005,
      "d": 1067.3247239583288,
      "v": 104
    },
    {
      "midi": 53,
      "hit": false,
      "t": 91670.19900000005,
      "d": 984.0996770833299,
      "v": 94
    },
    {
      "midi": 58,
      "hit": false,
      "t": 91670.19900000005,
      "d": 1008.9211822916695,
      "v": 94
    },
    {
      "midi": 62,
      "hit": false,
      "t": 91670.19900000005,
      "d": 1019.1418020833371,
      "v": 94
    },
    {
      "midi": 60,
      "hit": false,
      "t": 92791.54700000005,
      "d": 473.0686874999956,
      "v": 85
    },
    {
      "midi": 55,
      "hit": false,
      "t": 92791.54700000005,
      "d": 1279.0375625000015,
      "v": 85
    },
    {
      "midi": 64,
      "hit": false,
      "t": 92791.54700000005,
      "d": 1315.5397760416672,
      "v": 85
    },
    {
      "midi": 60,
      "hit": false,
      "t": 93352.22100000005,
      "d": 702.3025885416719,
      "v": 81
    },
    {
      "midi": 57,
      "hit": false,
      "t": 94193.23200000005,
      "d": 759.2460416666727,
      "v": 74
    },
    {
      "midi": 60,
      "hit": false,
      "t": 94193.23200000005,
      "d": 759.2460416666727,
      "v": 74
    },
    {
      "midi": 65,
      "hit": false,
      "t": 94193.23200000005,
      "d": 763.6263072916772,
      "v": 74
    },
    {
      "midi": 57,
      "hit": false,
      "t": 95034.24300000006,
      "d": 985.5597656250029,
      "v": 67
    },
    {
      "midi": 53,
      "hit": false,
      "t": 95034.24300000006,
      "d": 1013.3014479166741,
      "v": 67
    },
    {
      "midi": 60,
      "hit": false,
      "t": 95034.24300000006,
      "d": 1055.6440156250028,
      "v": 67
    },
    {
      "midi": 53,
      "hit": false,
      "t": 96155.59100000006,
      "d": 957.8180833333317,
      "v": 58
    },
    {
      "midi": 58,
      "hit": false,
      "t": 96155.59100000006,
      "d": 985.5597656250029,
      "v": 58
    },
    {
      "midi": 62,
      "hit": false,
      "t": 96155.59100000006,
      "d": 987.0198541666759,
      "v": 58
    },
    {
      "midi": 60,
      "hit": false,
      "t": 97276.93900000007,
      "d": 468.6884218750056,
      "v": 49
    },
    {
      "midi": 55,
      "hit": false,
      "t": 97276.93900000007,
      "d": 1406.0652656249877,
      "v": 49
    },
    {
      "midi": 64,
      "hit": false,
      "t": 97276.93900000007,
      "d": 1419.2060624999867,
      "v": 49
    },
    {
      "midi": 60,
      "hit": false,
      "t": 97837.61300000007,
      "d": 779.6872812499932,
      "v": 44
    },
    {
      "midi": 48,
      "hit": false,
      "t": 102323.00500000006,
      "d": 310.9988593750022,
      "v": 7
    },
    {
      "midi": 50,
      "hit": false,
      "t": 102603.34200000006,
      "d": 275.95673437500955,
      "v": 5
    },
    {
      "midi": 53,
      "hit": false,
      "t": 102883.67900000008,
      "d": 347.5010729166679,
      "v": 3
    }
  ]
}