{
  "jsonPath": "World/Chanson/Patrick Juvet/i-love-america.json",
  "path": "World\\Chanson\\Patrick Juvet\\I love America.mid",
  "name": "I love America",
  "difficulty": "Advanced",
  "bpm": 123.99999173333389,
  "notes": [
    {
      "midi": 65,
      "hit": false,
      "t": 3876.008322916667,
      "d": 1234.8791145833325,
      "v": 93
    },
    {
      "midi": 55,
      "hit": false,
      "t": 3876.008322916667,
      "d": 1250.000083333333,
      "v": 94
    },
    {
      "midi": 60,
      "hit": false,
      "t": 3876.008322916667,
      "d": 1270.1613749999992,
      "v": 94
    },
    {
      "midi": 48,
      "hit": false,
      "t": 3886.0889687500003,
      "d": 161.29033333333336,
      "v": 87
    },
    {
      "midi": 48,
      "hit": false,
      "t": 4354.839,
      "d": 166.33065625000017,
      "v": 77
    },
    {
      "midi": 48,
      "hit": false,
      "t": 4833.669677083333,
      "d": 161.29033333333336,
      "v": 84
    },
    {
      "midi": 60,
      "hit": false,
      "t": 5317.540677083333,
      "d": 115.92742708333299,
      "v": 84
    },
    {
      "midi": 55,
      "hit": false,
      "t": 5317.540677083333,
      "d": 120.9677499999998,
      "v": 85
    },
    {
      "midi": 65,
      "hit": false,
      "t": 5317.540677083333,
      "d": 126.0080729166666,
      "v": 82
    },
    {
      "midi": 55,
      "hit": false,
      "t": 5564.5165,
      "d": 2016.1291666666666,
      "v": 95
    },
    {
      "midi": 64,
      "hit": false,
      "t": 5569.5568229166665,
      "d": 2021.1694895833334,
      "v": 94
    },
    {
      "midi": 60,
      "hit": false,
      "t": 5569.5568229166665,
      "d": 2031.250135416667,
      "v": 95
    },
    {
      "midi": 48,
      "hit": false,
      "t": 5806.452,
      "d": 161.29033333333336,
      "v": 86
    },
    {
      "midi": 48,
      "hit": false,
      "t": 6295.363322916667,
      "d": 151.20968749999975,
      "v": 75
    },
    {
      "midi": 48,
      "hit": false,
      "t": 6794.355291666667,
      "d": 156.25001041666656,
      "v": 84
    },
    {
      "midi": 48,
      "hit": false,
      "t": 7268.145645833333,
      "d": 161.29033333333336,
      "v": 80
    },
    {
      "midi": 48,
      "hit": false,
      "t": 7741.936000000001,
      "d": 166.33065625000017,
      "v": 87
    },
    {
      "midi": 60,
      "hit": false,
      "t": 7746.976322916667,
      "d": 1305.4436354166664,
      "v": 90
    },
    {
      "midi": 55,
      "hit": false,
      "t": 7752.016645833334,
      "d": 1285.28234375,
      "v": 91
    },
    {
      "midi": 65,
      "hit": false,
      "t": 7752.016645833334,
      "d": 1290.322666666666,
      "v": 91
    },
    {
      "midi": 48,
      "hit": false,
      "t": 8220.766677083335,
      "d": 161.29033333333246,
      "v": 84
    },
    {
      "midi": 48,
      "hit": false,
      "t": 8714.718322916668,
      "d": 141.12904166666704,
      "v": 74
    },
    {
      "midi": 60,
      "hit": false,
      "t": 9188.508677083333,
      "d": 126.00807291666752,
      "v": 97
    },
    {
      "midi": 55,
      "hit": false,
      "t": 9188.508677083333,
      "d": 131.04839583333342,
      "v": 97
    },
    {
      "midi": 65,
      "hit": false,
      "t": 9188.508677083333,
      "d": 131.04839583333342,
      "v": 96
    },
    {
      "midi": 48,
      "hit": false,
      "t": 9198.589322916667,
      "d": 151.20968750000065,
      "v": 84
    },
    {
      "midi": 55,
      "hit": false,
      "t": 9440.524822916668,
      "d": 1622.9839791666654,
      "v": 84
    },
    {
      "midi": 60,
      "hit": false,
      "t": 9440.524822916668,
      "d": 1628.0243020833313,
      "v": 85
    },
    {
      "midi": 64,
      "hit": false,
      "t": 9445.565145833334,
      "d": 1602.8226875,
      "v": 82
    },
    {
      "midi": 48,
      "hit": false,
      "t": 9667.339354166668,
      "d": 191.5322708333333,
      "v": 86
    },
    {
      "midi": 48,
      "hit": false,
      "t": 10156.250677083335,
      "d": 166.33065625000017,
      "v": 85
    },
    {
      "midi": 48,
      "hit": false,
      "t": 10650.202322916668,
      "d": 161.29033333333246,
      "v": 78
    },
    {
      "midi": 48,
      "hit": false,
      "t": 11154.234614583333,
      "d": 146.16936458333294,
      "v": 70
    },
    {
      "midi": 62,
      "hit": false,
      "t": 11602.823354166663,
      "d": 907.2581249999985,
      "v": 101
    },
    {
      "midi": 57,
      "hit": false,
      "t": 11607.86367708333,
      "d": 796.3710208333323,
      "v": 100
    },
    {
      "midi": 53,
      "hit": false,
      "t": 11607.86367708333,
      "d": 821.5726354166654,
      "v": 101
    },
    {
      "midi": 69,
      "hit": false,
      "t": 12071.573385416663,
      "d": 473.79035416666557,
      "v": 102
    },
    {
      "midi": 65,
      "hit": false,
      "t": 12076.613708333329,
      "d": 473.79035416666557,
      "v": 100
    },
    {
      "midi": 60,
      "hit": false,
      "t": 12076.613708333329,
      "d": 478.83067708333147,
      "v": 100
    },
    {
      "midi": 59,
      "hit": false,
      "t": 12585.686322916661,
      "d": 131.04839583333342,
      "v": 97
    },
    {
      "midi": 55,
      "hit": false,
      "t": 12590.726645833327,
      "d": 126.00807291666752,
      "v": 99
    },
    {
      "midi": 64,
      "hit": false,
      "t": 12590.726645833327,
      "d": 131.04839583333342,
      "v": 93
    },
    {
      "midi": 55,
      "hit": false,
      "t": 12827.62182291666,
      "d": 458.66938541666605,
      "v": 99
    },
    {
      "midi": 64,
      "hit": false,
      "t": 12827.62182291666,
      "d": 458.66938541666605,
      "v": 97
    },
    {
      "midi": 59,
      "hit": false,
      "t": 12827.62182291666,
      "d": 463.70970833333195,
      "v": 97
    },
    {
      "midi": 65,
      "hit": false,
      "t": 13301.412177083326,
      "d": 710.6855312499993,
      "v": 97
    },
    {
      "midi": 60,
      "hit": false,
      "t": 13306.452499999992,
      "d": 690.5242395833338,
      "v": 99
    },
    {
      "midi": 57,
      "hit": false,
      "t": 13306.452499999992,
      "d": 695.5645624999997,
      "v": 99
    },
    {
      "midi": 60,
      "hit": false,
      "t": 14027.218677083325,
      "d": 468.75003124999785,
      "v": 100
    },
    {
      "midi": 62,
      "hit": false,
      "t": 14027.218677083325,
      "d": 478.83067708333147,
      "v": 100
    },
    {
      "midi": 65,
      "hit": false,
      "t": 14032.258999999991,
      "d": 473.79035416666557,
      "v": 103
    },
    {
      "midi": 69,
      "hit": false,
      "t": 14037.299322916657,
      "d": 458.66938541666605,
      "v": 106
    },
    {
      "midi": 59,
      "hit": false,
      "t": 14516.12999999999,
      "d": 100.80645833333256,
      "v": 95
    },
    {
      "midi": 64,
      "hit": false,
      "t": 14521.170322916656,
      "d": 100.80645833333256,
      "v": 91
    },
    {
      "midi": 55,
      "hit": false,
      "t": 14521.170322916656,
      "d": 105.84678124999846,
      "v": 98
    },
    {
      "midi": 55,
      "hit": false,
      "t": 14753.025177083322,
      "d": 453.62906250000015,
      "v": 97
    },
    {
      "midi": 59,
      "hit": false,
      "t": 14753.025177083322,
      "d": 453.62906250000015,
      "v": 98
    },
    {
      "midi": 64,
      "hit": false,
      "t": 14753.025177083322,
      "d": 458.66938541666605,
      "v": 98
    },
    {
      "midi": 57,
      "hit": false,
      "t": 15236.896177083321,
      "d": 695.5645624999997,
      "v": 98
    },
    {
      "midi": 53,
      "hit": false,
      "t": 15241.936499999987,
      "d": 695.5645624999997,
      "v": 95
    },
    {
      "midi": 62,
      "hit": false,
      "t": 15241.936499999987,
      "d": 695.5645624999997,
      "v": 95
    },
    {
      "midi": 60,
      "hit": false,
      "t": 15942.541385416653,
      "d": 488.9113229166669,
      "v": 98
    },
    {
      "midi": 65,
      "hit": false,
      "t": 15942.541385416653,
      "d": 488.9113229166669,
      "v": 98
    },
    {
      "midi": 69,
      "hit": false,
      "t": 15942.541385416653,
      "d": 493.9516458333328,
      "v": 99
    },
    {
      "midi": 59,
      "hit": false,
      "t": 16451.613999999987,
      "d": 156.25001041666837,
      "v": 95
    },
    {
      "midi": 64,
      "hit": false,
      "t": 16451.613999999987,
      "d": 161.29033333333427,
      "v": 94
    },
    {
      "midi": 67,
      "hit": false,
      "t": 16451.613999999987,
      "d": 186.4919479166674,
      "v": 94
    },
    {
      "midi": 59,
      "hit": false,
      "t": 16703.630145833322,
      "d": 468.75003124999785,
      "v": 97
    },
    {
      "midi": 64,
      "hit": false,
      "t": 16703.630145833322,
      "d": 468.75003124999785,
      "v": 96
    },
    {
      "midi": 67,
      "hit": false,
      "t": 16708.670468749988,
      "d": 473.79035416666375,
      "v": 92
    },
    {
      "midi": 69,
      "hit": false,
      "t": 17182.46082291665,
      "d": 685.4839166666643,
      "v": 99
    },
    {
      "midi": 65,
      "hit": false,
      "t": 17187.501145833317,
      "d": 665.3226250000007,
      "v": 96
    },
    {
      "midi": 64,
      "hit": false,
      "t": 17187.501145833317,
      "d": 670.3629479166666,
      "v": 92
    },
    {
      "midi": 60,
      "hit": false,
      "t": 17187.501145833317,
      "d": 1123.992010416663,
      "v": 97
    },
    {
      "midi": 72,
      "hit": false,
      "t": 17888.106031249983,
      "d": 478.83067708332965,
      "v": 101
    },
    {
      "midi": 64,
      "hit": false,
      "t": 17893.14635416665,
      "d": 504.0322916666628,
      "v": 94
    },
    {
      "midi": 65,
      "hit": false,
      "t": 17893.14635416665,
      "d": 504.0322916666628,
      "v": 95
    },
    {
      "midi": 69,
      "hit": false,
      "t": 17898.186677083315,
      "d": 498.9919687499969,
      "v": 94
    },
    {
      "midi": 67,
      "hit": false,
      "t": 18397.17864583331,
      "d": 937.5000624999993,
      "v": 91
    },
    {
      "midi": 71,
      "hit": false,
      "t": 18397.17864583331,
      "d": 942.5403854166652,
      "v": 90
    },
    {
      "midi": 62,
      "hit": false,
      "t": 18407.259291666644,
      "d": 932.4597395833334,
      "v": 91
    },
    {
      "midi": 65,
      "hit": false,
      "t": 19359.880322916666,
      "d": 1285.282343750001,
      "v": 104
    },
    {
      "midi": 55,
      "hit": false,
      "t": 19359.880322916666,
      "d": 1295.3629895833328,
      "v": 104
    },
    {
      "midi": 60,
      "hit": false,
      "t": 19359.880322916666,
      "d": 1315.52428125,
      "v": 104
    },
    {
      "midi": 62,
      "hit": false,
      "t": 19359.880322916666,
      "d": 1315.52428125,
      "v": 104
    },
    {
      "midi": 60,
      "hit": false,
      "t": 20781.251385416665,
      "d": 95.76613541666666,
      "v": 99
    },
    {
      "midi": 55,
      "hit": false,
      "t": 20791.332031249996,
      "d": 85.68548958333486,
      "v": 99
    },
    {
      "midi": 65,
      "hit": false,
      "t": 20791.332031249996,
      "d": 85.68548958333486,
      "v": 99
    },
    {
      "midi": 62,
      "hit": false,
      "t": 20791.332031249996,
      "d": 100.8064583333362,
      "v": 99
    },
    {
      "midi": 55,
      "hit": false,
      "t": 21048.3885,
      "d": 1134.0726562499985,
      "v": 93
    },
    {
      "midi": 60,
      "hit": false,
      "t": 21048.3885,
      "d": 1280.2420208333315,
      "v": 93
    },
    {
      "midi": 64,
      "hit": false,
      "t": 21048.3885,
      "d": 1300.4033124999987,
      "v": 93
    },
    {
      "midi": 55,
      "hit": false,
      "t": 22253.025677083333,
      "d": 443.5484166666647,
      "v": 100
    },
    {
      "midi": 60,
      "hit": false,
      "t": 22500.0015,
      "d": 201.61291666666511,
      "v": 94
    },
    {
      "midi": 60,
      "hit": false,
      "t": 22731.856354166663,
      "d": 206.65323958333101,
      "v": 97
    },
    {
      "midi": 55,
      "hit": false,
      "t": 22736.89667708333,
      "d": 186.4919479166674,
      "v": 98
    },
    {
      "midi": 64,
      "hit": false,
      "t": 22736.89667708333,
      "d": 196.5725937499992,
      "v": 97
    },
    {
      "midi": 62,
      "hit": false,
      "t": 22978.832177083328,
      "d": 1512.0968749999993,
      "v": 104
    },
    {
      "midi": 65,
      "hit": false,
      "t": 22983.872499999994,
      "d": 1476.8146145833343,
      "v": 102
    },
    {
      "midi": 55,
      "hit": false,
      "t": 22983.872499999994,
      "d": 1512.0968749999993,
      "v": 103
    },
    {
      "midi": 60,
      "hit": false,
      "t": 22983.872499999994,
      "d": 1537.2984895833324,
      "v": 104
    },
    {
      "midi": 55,
      "hit": false,
      "t": 24652.219385416658,
      "d": 141.1290416666634,
      "v": 100
    },
    {
      "midi": 60,
      "hit": false,
      "t": 24657.259708333324,
      "d": 146.1693645833293,
      "v": 99
    },
    {
      "midi": 62,
      "hit": false,
      "t": 24657.259708333324,
      "d": 146.1693645833293,
      "v": 100
    },
    {
      "midi": 65,
      "hit": false,
      "t": 24662.30003124999,
      "d": 151.2096874999952,
      "v": 99
    },
    {
      "midi": 60,
      "hit": false,
      "t": 24909.27585416665,
      "d": 1411.2904166666667,
      "v": 93
    },
    {
      "midi": 55,
      "hit": false,
      "t": 24914.316177083318,
      "d": 1154.2339479166658,
      "v": 93
    },
    {
      "midi": 64,
      "hit": false,
      "t": 24914.316177083318,
      "d": 1547.3791354166679,
      "v": 93
    },
    {
      "midi": 55,
      "hit": false,
      "t": 26134.07432291665,
      "d": 493.9516458333346,
      "v": 90
    },
    {
      "midi": 60,
      "hit": false,
      "t": 26360.888854166653,
      "d": 367.9435729166653,
      "v": 93
    },
    {
      "midi": 64,
      "hit": false,
      "t": 26602.824354166652,
      "d": 161.29033333333064,
      "v": 95
    },
    {
      "midi": 55,
      "hit": false,
      "t": 26854.840499999984,
      "d": 1572.5807499999974,
      "v": 103
    },
    {
      "midi": 65,
      "hit": false,
      "t": 26854.840499999984,
      "d": 1587.7017187499987,
      "v": 103
    },
    {
      "midi": 61,
      "hit": false,
      "t": 26859.88082291665,
      "d": 1562.5001041666656,
      "v": 102
    },
    {
      "midi": 61,
      "hit": false,
      "t": 28533.268031249983,
      "d": 196.5725937499992,
      "v": 99
    },
    {
      "midi": 65,
      "hit": false,
      "t": 28533.268031249983,
      "d": 196.5725937499992,
      "v": 99
    },
    {
      "midi": 55,
      "hit": false,
      "t": 28538.30835416665,
      "d": 201.61291666666511,
      "v": 99
    },
    {
      "midi": 61,
      "hit": false,
      "t": 28775.20353124998,
      "d": 1426.411385416668,
      "v": 92
    },
    {
      "midi": 57,
      "hit": false,
      "t": 28780.243854166645,
      "d": 1360.8871875000004,
      "v": 93
    },
    {
      "midi": 55,
      "hit": false,
      "t": 28785.28417708331,
      "d": 1144.153302083334,
      "v": 93
    },
    {
      "midi": 64,
      "hit": false,
      "t": 28785.28417708331,
      "d": 1602.8226875000037,
      "v": 93
    },
    {
      "midi": 55,
      "hit": false,
      "t": 30015.12296874998,
      "d": 665.3226250000043,
      "v": 90
    },
    {
      "midi": 61,
      "hit": false,
      "t": 30246.977822916648,
      "d": 342.7419583333358,
      "v": 93
    },
    {
      "midi": 64,
      "hit": false,
      "t": 30478.832677083316,
      "d": 216.7338854166701,
      "v": 94
    },
    {
      "midi": 65,
      "hit": false,
      "t": 30725.808499999985,
      "d": 1617.9436562499977,
      "v": 106
    },
    {
      "midi": 55,
      "hit": false,
      "t": 30730.84882291665,
      "d": 1648.1855937499968,
      "v": 106
    },
    {
      "midi": 61,
      "hit": false,
      "t": 30735.889145833316,
      "d": 1607.863010416666,
      "v": 105
    },
    {
      "midi": 55,
      "hit": false,
      "t": 32389.11506249998,
      "d": 196.5725937499992,
      "v": 99
    },
    {
      "midi": 61,
      "hit": false,
      "t": 32389.11506249998,
      "d": 196.5725937499992,
      "v": 99
    },
    {
      "midi": 65,
      "hit": false,
      "t": 32394.155385416645,
      "d": 201.61291666666511,
      "v": 99
    },
    {
      "midi": 55,
      "hit": false,
      "t": 32646.171531249976,
      "d": 1194.5565312500003,
      "v": 93
    },
    {
      "midi": 64,
      "hit": false,
      "t": 32646.171531249976,
      "d": 1663.306562499998,
      "v": 93
    },
    {
      "midi": 57,
      "hit": false,
      "t": 32656.25217708331,
      "d": 1370.9678333333322,
      "v": 93
    },
    {
      "midi": 61,
      "hit": false,
      "t": 32656.25217708331,
      "d": 1617.9436562500014,
      "v": 92
    },
    {
      "midi": 55,
      "hit": false,
      "t": 33860.88935416664,
      "d": 514.1129375000019,
      "v": 90
    },
    {
      "midi": 57,
      "hit": false,
      "t": 34102.82485416664,
      "d": 337.7016354166699,
      "v": 93
    },
    {
      "midi": 61,
      "hit": false,
      "t": 34334.67970833331,
      "d": 201.6129166666724,
      "v": 89
    },
    {
      "midi": 60,
      "hit": false,
      "t": 34576.615208333315,
      "d": 1663.3065625000017,
      "v": 102
    },
    {
      "midi": 64,
      "hit": false,
      "t": 34581.655531249984,
      "d": 1658.2662395833322,
      "v": 101
    },
    {
      "midi": 57,
      "hit": false,
      "t": 34581.655531249984,
      "d": 1668.346885416664,
      "v": 101
    },
    {
      "midi": 54,
      "hit": false,
      "t": 34581.655531249984,
      "d": 1673.3872083333335,
      "v": 100
    },
    {
      "midi": 60,
      "hit": false,
      "t": 36275.20403124998,
      "d": 161.2903333333379,
      "v": 100
    },
    {
      "midi": 57,
      "hit": false,
      "t": 36285.28467708331,
      "d": 176.41130208333925,
      "v": 99
    },
    {
      "midi": 54,
      "hit": false,
      "t": 36290.32499999998,
      "d": 171.3709791666697,
      "v": 99
    },
    {
      "midi": 64,
      "hit": false,
      "t": 36295.36532291665,
      "d": 171.3709791666697,
      "v": 99
    },
    {
      "midi": 60,
      "hit": false,
      "t": 36512.09920833332,
      "d": 1658.2662395833322,
      "v": 93
    },
    {
      "midi": 54,
      "hit": false,
      "t": 36522.17985416665,
      "d": 1118.9516874999972,
      "v": 93
    },
    {
      "midi": 57,
      "hit": false,
      "t": 36522.17985416665,
      "d": 1144.1533020833303,
      "v": 93
    },
    {
      "midi": 62,
      "hit": false,
      "t": 36522.17985416665,
      "d": 1643.1452708333309,
      "v": 93
    },
    {
      "midi": 54,
      "hit": false,
      "t": 37746.97832291665,
      "d": 665.3226250000007,
      "v": 100
    },
    {
      "midi": 57,
      "hit": false,
      "t": 37988.91382291665,
      "d": 433.4677708333329,
      "v": 94
    },
    {
      "midi": 62,
      "hit": false,
      "t": 38215.72835416665,
      "d": 216.73388541666645,
      "v": 103
    },
    {
      "midi": 57,
      "hit": false,
      "t": 38462.70417708332,
      "d": 1537.298489583336,
      "v": 106
    },
    {
      "midi": 64,
      "hit": false,
      "t": 38462.70417708332,
      "d": 1572.580750000001,
      "v": 106
    },
    {
      "midi": 54,
      "hit": false,
      "t": 38467.744499999986,
      "d": 1527.217843749997,
      "v": 105
    },
    {
      "midi": 60,
      "hit": false,
      "t": 38467.744499999986,
      "d": 1577.6210729166633,
      "v": 106
    },
    {
      "midi": 54,
      "hit": false,
      "t": 40131.05106249998,
      "d": 141.1290416666743,
      "v": 99
    },
    {
      "midi": 60,
      "hit": false,
      "t": 40136.09138541665,
      "d": 131.04839583333523,
      "v": 99
    },
    {
      "midi": 57,
      "hit": false,
      "t": 40136.09138541665,
      "d": 141.1290416666743,
      "v": 99
    },
    {
      "midi": 64,
      "hit": false,
      "t": 40141.13170833332,
      "d": 126.0080729166657,
      "v": 99
    },
    {
      "midi": 57,
      "hit": false,
      "t": 40388.10753124999,
      "d": 720.7661770833365,
      "v": 93
    },
    {
      "midi": 54,
      "hit": false,
      "t": 40393.14785416666,
      "d": 715.725854166667,
      "v": 93
    },
    {
      "midi": 60,
      "hit": false,
      "t": 40393.14785416666,
      "d": 715.725854166667,
      "v": 93
    },
    {
      "midi": 62,
      "hit": false,
      "t": 40398.18817708333,
      "d": 725.8064999999988,
      "v": 92
    },
    {
      "midi": 62,
      "hit": false,
      "t": 41129.034999999996,
      "d": 191.5322708333333,
      "v": 101
    },
    {
      "midi": 54,
      "hit": false,
      "t": 41129.034999999996,
      "d": 201.61291666666511,
      "v": 101
    },
    {
      "midi": 57,
      "hit": false,
      "t": 41129.034999999996,
      "d": 201.61291666666511,
      "v": 101
    },
    {
      "midi": 60,
      "hit": false,
      "t": 41129.034999999996,
      "d": 221.77420833332872,
      "v": 101
    },
    {
      "midi": 64,
      "hit": false,
      "t": 41355.849531249994,
      "d": 468.7500312500051,
      "v": 93
    },
    {
      "midi": 60,
      "hit": false,
      "t": 41360.889854166664,
      "d": 463.7097083333356,
      "v": 94
    },
    {
      "midi": 54,
      "hit": false,
      "t": 41360.889854166664,
      "d": 473.7903541666674,
      "v": 94
    },
    {
      "midi": 57,
      "hit": false,
      "t": 41360.889854166664,
      "d": 473.7903541666674,
      "v": 94
    },
    {
      "midi": 57,
      "hit": false,
      "t": 41854.841499999995,
      "d": 191.5322708333333,
      "v": 93
    },
    {
      "midi": 60,
      "hit": false,
      "t": 41854.841499999995,
      "d": 191.5322708333333,
      "v": 93
    },
    {
      "midi": 64,
      "hit": false,
      "t": 41854.841499999995,
      "d": 196.57259375000285,
      "v": 93
    },
    {
      "midi": 54,
      "hit": false,
      "t": 41854.841499999995,
      "d": 201.6129166666724,
      "v": 93
    },
    {
      "midi": 60,
      "hit": false,
      "t": 42096.777,
      "d": 403.2258333333375,
      "v": 104
    },
    {
      "midi": 65,
      "hit": false,
      "t": 42101.81732291667,
      "d": 398.18551041666797,
      "v": 103
    },
    {
      "midi": 57,
      "hit": false,
      "t": 42101.81732291667,
      "d": 403.2258333333375,
      "v": 104
    },
    {
      "midi": 53,
      "hit": false,
      "t": 42585.68832291668,
      "d": 1340.7258958333405,
      "v": 104
    },
    {
      "midi": 62,
      "hit": false,
      "t": 42585.68832291668,
      "d": 1355.8468645833418,
      "v": 104
    },
    {
      "midi": 55,
      "hit": false,
      "t": 42590.72864583335,
      "d": 1330.6452500000014,
      "v": 104
    },
    {
      "midi": 58,
      "hit": false,
      "t": 42590.72864583335,
      "d": 1345.7662187500027,
      "v": 104
    },
    {
      "midi": 53,
      "hit": false,
      "t": 44027.22067708335,
      "d": 201.6129166666724,
      "v": 99
    },
    {
      "midi": 62,
      "hit": false,
      "t": 44032.26100000002,
      "d": 201.6129166666724,
      "v": 99
    },
    {
      "midi": 58,
      "hit": false,
      "t": 44032.26100000002,
      "d": 206.65323958334193,
      "v": 99
    },
    {
      "midi": 58,
      "hit": false,
      "t": 44269.156177083365,
      "d": 1204.6371770833357,
      "v": 93
    },
    {
      "midi": 62,
      "hit": false,
      "t": 44269.156177083365,
      "d": 1567.5404270833387,
      "v": 93
    },
    {
      "midi": 65,
      "hit": false,
      "t": 44269.156177083365,
      "d": 1688.5081770833422,
      "v": 93
    },
    {
      "midi": 55,
      "hit": false,
      "t": 44274.196500000035,
      "d": 1083.6694270833323,
      "v": 93
    },
    {
      "midi": 55,
      "hit": false,
      "t": 45478.83367708337,
      "d": 302.4193749999977,
      "v": 100
    },
    {
      "midi": 58,
      "hit": false,
      "t": 45715.7288541667,
      "d": 221.774208333336,
      "v": 92
    },
    {
      "midi": 58,
      "hit": false,
      "t": 45947.58370833337,
      "d": 211.6935625000042,
      "v": 103
    },
    {
      "midi": 55,
      "hit": false,
      "t": 45952.62403125004,
      "d": 216.73388541666645,
      "v": 104
    },
    {
      "midi": 62,
      "hit": false,
      "t": 45957.66435416671,
      "d": 201.61291666666511,
      "v": 102
    },
    {
      "midi": 53,
      "hit": false,
      "t": 45957.66435416671,
      "d": 221.77420833332872,
      "v": 103
    },
    {
      "midi": 55,
      "hit": false,
      "t": 46209.68050000004,
      "d": 1597.7823645833341,
      "v": 105
    },
    {
      "midi": 61,
      "hit": false,
      "t": 46214.72082291671,
      "d": 1577.6210729166633,
      "v": 103
    },
    {
      "midi": 65,
      "hit": false,
      "t": 46214.72082291671,
      "d": 1582.6613958333328,
      "v": 105
    },
    {
      "midi": 61,
      "hit": false,
      "t": 47898.18867708337,
      "d": 211.6935625000042,
      "v": 99
    },
    {
      "midi": 55,
      "hit": false,
      "t": 47898.18867708337,
      "d": 216.73388541667373,
      "v": 99
    },
    {
      "midi": 65,
      "hit": false,
      "t": 47903.22900000004,
      "d": 216.73388541667373,
      "v": 99
    },
    {
      "midi": 61,
      "hit": false,
      "t": 48140.12417708338,
      "d": 1809.4759270833383,
      "v": 92
    },
    {
      "midi": 55,
      "hit": false,
      "t": 48145.16450000005,
      "d": 1295.3629895833365,
      "v": 93
    },
    {
      "midi": 64,
      "hit": false,
      "t": 48145.16450000005,
      "d": 1950.6049687500054,
      "v": 93
    },
    {
      "midi": 57,
      "hit": false,
      "t": 48150.20482291672,
      "d": 1542.3388124999983,
      "v": 93
    },
    {
      "midi": 55,
      "hit": false,
      "t": 49606.85814583339,
      "d": 589.7177812500013,
      "v": 83
    },
    {
      "midi": 57,
      "hit": false,
      "t": 49843.75332291672,
      "d": 327.6209895833381,
      "v": 93
    },
    {
      "midi": 61,
      "hit": false,
      "t": 50065.52753125005,
      "d": 166.33065625000017,
      "v": 77
    },
    {
      "midi": 53,
      "hit": false,
      "t": 50569.55982291672,
      "d": 252.01614583333867,
      "v": 101
    },
    {
      "midi": 60,
      "hit": false,
      "t": 50569.55982291672,
      "d": 272.17743750000955,
      "v": 102
    },
    {
      "midi": 57,
      "hit": false,
      "t": 50574.60014583339,
      "d": 262.09679166667047,
      "v": 102
    },
    {
      "midi": 64,
      "hit": false,
      "t": 51043.3501770834,
      "d": 337.7016354166699,
      "v": 102
    },
    {
      "midi": 65,
      "hit": false,
      "t": 51048.39050000007,
      "d": 322.58066666666855,
      "v": 102
    },
    {
      "midi": 72,
      "hit": false,
      "t": 51048.39050000007,
      "d": 322.58066666666855,
      "v": 102
    },
    {
      "midi": 69,
      "hit": false,
      "t": 51048.39050000007,
      "d": 332.66131250000035,
      "v": 102
    },
    {
      "midi": 53,
      "hit": false,
      "t": 51517.140531250065,
      "d": 272.17743750000227,
      "v": 101
    },
    {
      "midi": 57,
      "hit": false,
      "t": 51517.140531250065,
      "d": 272.17743750000227,
      "v": 101
    },
    {
      "midi": 60,
      "hit": false,
      "t": 51522.180854166734,
      "d": 282.25808333333407,
      "v": 102
    },
    {
      "midi": 72,
      "hit": false,
      "t": 51985.89056250007,
      "d": 342.7419583333394,
      "v": 102
    },
    {
      "midi": 65,
      "hit": false,
      "t": 51985.89056250007,
      "d": 347.78228125000896,
      "v": 102
    },
    {
      "midi": 64,
      "hit": false,
      "t": 51990.93088541674,
      "d": 342.7419583333394,
      "v": 102
    },
    {
      "midi": 69,
      "hit": false,
      "t": 51990.93088541674,
      "d": 352.8226041666712,
      "v": 102
    },
    {
      "midi": 53,
      "hit": false,
      "t": 52731.85835416675,
      "d": 423.3871250000084,
      "v": 95
    },
    {
      "midi": 60,
      "hit": false,
      "t": 52731.85835416675,
      "d": 423.3871250000084,
      "v": 94
    },
    {
      "midi": 57,
      "hit": false,
      "t": 52736.898677083416,
      "d": 413.3064791666693,
      "v": 95
    },
    {
      "midi": 59,
      "hit": false,
      "t": 53467.74550000009,
      "d": 257.05646875000093,
      "v": 77
    },
    {
      "midi": 62,
      "hit": false,
      "t": 53472.78582291676,
      "d": 252.0161458333314,
      "v": 79
    },
    {
      "midi": 65,
      "hit": false,
      "t": 53472.78582291676,
      "d": 257.05646875000093,
      "v": 79
    },
    {
      "midi": 55,
      "hit": false,
      "t": 53472.78582291676,
      "d": 262.09679166667047,
      "v": 80
    },
    {
      "midi": 57,
      "hit": false,
      "t": 53931.455208333435,
      "d": 488.911322916676,
      "v": 84
    },
    {
      "midi": 55,
      "hit": false,
      "t": 53936.495531250104,
      "d": 478.8306770833369,
      "v": 85
    },
    {
      "midi": 60,
      "hit": false,
      "t": 53936.495531250104,
      "d": 478.8306770833369,
      "v": 84
    },
    {
      "midi": 64,
      "hit": false,
      "t": 53936.495531250104,
      "d": 483.87100000000646,
      "v": 84
    },
    {
      "midi": 72,
      "hit": false,
      "t": 54667.34235416678,
      "d": 493.95164583333826,
      "v": 96
    },
    {
      "midi": 67,
      "hit": false,
      "t": 54667.34235416678,
      "d": 504.03229166667734,
      "v": 96
    },
    {
      "midi": 64,
      "hit": false,
      "t": 54672.38267708345,
      "d": 493.95164583333826,
      "v": 97
    },
    {
      "midi": 69,
      "hit": false,
      "t": 54672.38267708345,
      "d": 504.03229166667734,
      "v": 96
    },
    {
      "midi": 64,
      "hit": false,
      "t": 55388.10853125012,
      "d": 221.774208333336,
      "v": 85
    },
    {
      "midi": 69,
      "hit": false,
      "t": 55388.10853125012,
      "d": 221.774208333336,
      "v": 85
    },
    {
      "midi": 67,
      "hit": false,
      "t": 55388.10853125012,
      "d": 226.81453125000553,
      "v": 85
    },
    {
      "midi": 71,
      "hit": false,
      "t": 55393.14885416679,
      "d": 216.73388541666645,
      "v": 85
    },
    {
      "midi": 64,
      "hit": false,
      "t": 55892.140822916794,
      "d": 226.81453124999825,
      "v": 85
    },
    {
      "midi": 67,
      "hit": false,
      "t": 55892.140822916794,
      "d": 226.81453124999825,
      "v": 85
    },
    {
      "midi": 69,
      "hit": false,
      "t": 55892.140822916794,
      "d": 226.81453124999825,
      "v": 86
    },
    {
      "midi": 72,
      "hit": false,
      "t": 55892.140822916794,
      "d": 236.89517708333005,
      "v": 86
    },
    {
      "midi": 67,
      "hit": false,
      "t": 56370.97150000012,
      "d": 443.548416666672,
      "v": 96
    },
    {
      "midi": 72,
      "hit": false,
      "t": 56370.97150000012,
      "d": 453.6290625000038,
      "v": 96
    },
    {
      "midi": 64,
      "hit": false,
      "t": 56376.01182291679,
      "d": 423.3871250000011,
      "v": 97
    },
    {
      "midi": 69,
      "hit": false,
      "t": 56376.01182291679,
      "d": 428.42744791667064,
      "v": 96
    },
    {
      "midi": 67,
      "hit": false,
      "t": 56834.68120833346,
      "d": 388.10486458333617,
      "v": 87
    },
    {
      "midi": 64,
      "hit": false,
      "t": 56834.68120833346,
      "d": 398.18551041666797,
      "v": 87
    },
    {
      "midi": 60,
      "hit": false,
      "t": 56834.68120833346,
      "d": 428.42744791667064,
      "v": 87
    },
    {
      "midi": 60,
      "hit": false,
      "t": 57555.447385416795,
      "d": 272.17743750000955,
      "v": 87
    },
    {
      "midi": 57,
      "hit": false,
      "t": 57560.487708333465,
      "d": 282.25808333334135,
      "v": 87
    },
    {
      "midi": 64,
      "hit": false,
      "t": 57565.528031250135,
      "d": 282.25808333334135,
      "v": 86
    },
    {
      "midi": 67,
      "hit": false,
      "t": 57570.568354166804,
      "d": 277.2177604166718,
      "v": 86
    },
    {
      "midi": 52,
      "hit": false,
      "t": 58316.536145833474,
      "d": 297.3790520833354,
      "v": 99
    },
    {
      "midi": 53,
      "hit": false,
      "t": 58316.536145833474,
      "d": 307.4596979166672,
      "v": 100
    },
    {
      "midi": 57,
      "hit": false,
      "t": 58316.536145833474,
      "d": 307.4596979166672,
      "v": 98
    },
    {
      "midi": 60,
      "hit": false,
      "t": 58316.536145833474,
      "d": 327.6209895833308,
      "v": 101
    },
    {
      "midi": 72,
      "hit": false,
      "t": 58785.28617708347,
      "d": 735.8871458333379,
      "v": 105
    },
    {
      "midi": 64,
      "hit": false,
      "t": 58785.28617708347,
      "d": 740.9274687500074,
      "v": 104
    },
    {
      "midi": 65,
      "hit": false,
      "t": 58790.32650000014,
      "d": 725.8064999999988,
      "v": 104
    },
    {
      "midi": 69,
      "hit": false,
      "t": 58790.32650000014,
      "d": 735.8871458333379,
      "v": 102
    },
    {
      "midi": 60,
      "hit": false,
      "t": 59753.02817708348,
      "d": 423.3871250000011,
      "v": 89
    },
    {
      "midi": 69,
      "hit": false,
      "t": 59753.02817708348,
      "d": 423.3871250000011,
      "v": 89
    },
    {
      "midi": 64,
      "hit": false,
      "t": 59753.02817708348,
      "d": 428.42744791667064,
      "v": 88
    },
    {
      "midi": 65,
      "hit": false,
      "t": 59753.02817708348,
      "d": 453.6290625000038,
      "v": 90
    },
    {
      "midi": 52,
      "hit": false,
      "t": 60241.939500000146,
      "d": 761.0887604166637,
      "v": 100
    },
    {
      "midi": 53,
      "hit": false,
      "t": 60241.939500000146,
      "d": 761.0887604166637,
      "v": 101
    },
    {
      "midi": 57,
      "hit": false,
      "t": 60241.939500000146,
      "d": 771.1694062499955,
      "v": 101
    },
    {
      "midi": 60,
      "hit": false,
      "t": 60241.939500000146,
      "d": 776.209729166665,
      "v": 101
    },
    {
      "midi": 59,
      "hit": false,
      "t": 61209.681500000144,
      "d": 257.05646875000093,
      "v": 77
    },
    {
      "midi": 62,
      "hit": false,
      "t": 61214.721822916814,
      "d": 252.0161458333314,
      "v": 79
    },
    {
      "midi": 65,
      "hit": false,
      "t": 61214.721822916814,
      "d": 257.05646875000093,
      "v": 79
    },
    {
      "midi": 55,
      "hit": false,
      "t": 61214.721822916814,
      "d": 262.09679166667047,
      "v": 80
    },
    {
      "midi": 57,
      "hit": false,
      "t": 61673.39120833349,
      "d": 488.911322916676,
      "v": 84
    },
    {
      "midi": 55,
      "hit": false,
      "t": 61678.43153125016,
      "d": 478.8306770833369,
      "v": 85
    },
    {
      "midi": 60,
      "hit": false,
      "t": 61678.43153125016,
      "d": 478.8306770833369,
      "v": 84
    },
    {
      "midi": 64,
      "hit": false,
      "t": 61678.43153125016,
      "d": 483.87100000000646,
      "v": 84
    },
    {
      "midi": 72,
      "hit": false,
      "t": 62409.27835416683,
      "d": 493.95164583333826,
      "v": 96
    },
    {
      "midi": 67,
      "hit": false,
      "t": 62409.27835416683,
      "d": 504.03229166667734,
      "v": 96
    },
    {
      "midi": 64,
      "hit": false,
      "t": 62414.3186770835,
      "d": 493.95164583333826,
      "v": 97
    },
    {
      "midi": 69,
      "hit": false,
      "t": 62414.3186770835,
      "d": 504.03229166667734,
      "v": 96
    },
    {
      "midi": 64,
      "hit": false,
      "t": 63130.044531250176,
      "d": 221.774208333336,
      "v": 85
    },
    {
      "midi": 69,
      "hit": false,
      "t": 63130.044531250176,
      "d": 221.774208333336,
      "v": 85
    },
    {
      "midi": 67,
      "hit": false,
      "t": 63130.044531250176,
      "d": 226.81453125000553,
      "v": 85
    },
    {
      "midi": 71,
      "hit": false,
      "t": 63135.084854166846,
      "d": 216.73388541666645,
      "v": 85
    },
    {
      "midi": 64,
      "hit": false,
      "t": 63634.076822916846,
      "d": 226.81453124999825,
      "v": 85
    },
    {
      "midi": 67,
      "hit": false,
      "t": 63634.076822916846,
      "d": 226.81453124999825,
      "v": 85
    },
    {
      "midi": 69,
      "hit": false,
      "t": 63634.076822916846,
      "d": 226.81453124999825,
      "v": 86
    },
    {
      "midi": 72,
      "hit": false,
      "t": 63634.076822916846,
      "d": 236.89517708333005,
      "v": 86
    },
    {
      "midi": 67,
      "hit": false,
      "t": 64112.907500000176,
      "d": 443.548416666672,
      "v": 96
    },
    {
      "midi": 72,
      "hit": false,
      "t": 64112.907500000176,
      "d": 453.6290625000038,
      "v": 96
    },
    {
      "midi": 64,
      "hit": false,
      "t": 64117.947822916845,
      "d": 423.3871250000011,
      "v": 97
    },
    {
      "midi": 69,
      "hit": false,
      "t": 64117.947822916845,
      "d": 428.42744791667064,
      "v": 96
    },
    {
      "midi": 67,
      "hit": false,
      "t": 64576.61720833351,
      "d": 630.0403645833358,
      "v": 87
    },
    {
      "midi": 60,
      "hit": false,
      "t": 64576.61720833351,
      "d": 635.0806875000053,
      "v": 87
    },
    {
      "midi": 64,
      "hit": false,
      "t": 64576.61720833351,
      "d": 635.0806875000053,
      "v": 87
    },
    {
      "midi": 60,
      "hit": false,
      "t": 65297.38338541685,
      "d": 453.62906250001106,
      "v": 87
    },
    {
      "midi": 57,
      "hit": false,
      "t": 65302.42370833352,
      "d": 458.6693854166806,
      "v": 87
    },
    {
      "midi": 64,
      "hit": false,
      "t": 65307.46403125019,
      "d": 458.6693854166806,
      "v": 86
    },
    {
      "midi": 67,
      "hit": false,
      "t": 65312.50435416686,
      "d": 463.70970833335014,
      "v": 86
    },
    {
      "midi": 60,
      "hit": false,
      "t": 65786.29470833355,
      "d": 912.2984479166771,
      "v": 88
    },
    {
      "midi": 64,
      "hit": false,
      "t": 65791.33503125022,
      "d": 614.919395833349,
      "v": 89
    },
    {
      "midi": 57,
      "hit": false,
      "t": 65801.41567708355,
      "d": 856.8548958333413,
      "v": 89
    },
    {
      "midi": 53,
      "hit": false,
      "t": 65806.45600000022,
      "d": 871.9758645833354,
      "v": 90
    },
    {
      "midi": 64,
      "hit": false,
      "t": 66537.3028229169,
      "d": 156.25001041665382,
      "v": 82
    },
    {
      "midi": 53,
      "hit": false,
      "t": 66764.11735416688,
      "d": 761.0887604166637,
      "v": 92
    },
    {
      "midi": 57,
      "hit": false,
      "t": 66764.11735416688,
      "d": 766.1290833333333,
      "v": 93
    },
    {
      "midi": 64,
      "hit": false,
      "t": 66769.15767708355,
      "d": 705.6452083333279,
      "v": 93
    },
    {
      "midi": 60,
      "hit": false,
      "t": 66769.15767708355,
      "d": 725.8064999999915,
      "v": 93
    },
    {
      "midi": 67,
      "hit": false,
      "t": 67505.04482291688,
      "d": 201.61291666666511,
      "v": 80
    },
    {
      "midi": 60,
      "hit": false,
      "t": 67731.85935416688,
      "d": 1139.1129791666754,
      "v": 99
    },
    {
      "midi": 64,
      "hit": false,
      "t": 67731.85935416688,
      "d": 1139.1129791666754,
      "v": 98
    },
    {
      "midi": 53,
      "hit": false,
      "t": 67736.89967708355,
      "d": 1123.9920104166667,
      "v": 99
    },
    {
      "midi": 69,
      "hit": false,
      "t": 67736.89967708355,
      "d": 1134.0726562500058,
      "v": 98
    },
    {
      "midi": 59,
      "hit": false,
      "t": 69183.4723541669,
      "d": 408.26615624999977,
      "v": 89
    },
    {
      "midi": 50,
      "hit": false,
      "t": 69183.4723541669,
      "d": 418.34680208333884,
      "v": 89
    },
    {
      "midi": 55,
      "hit": false,
      "t": 69188.51267708356,
      "d": 418.34680208333884,
      "v": 90
    },
    {
      "midi": 60,
      "hit": false,
      "t": 69667.34335416691,
      "d": 307.4596979166672,
      "v": 93
    },
    {
      "midi": 52,
      "hit": false,
      "t": 69672.38367708358,
      "d": 302.4193749999977,
      "v": 93
    },
    {
      "midi": 57,
      "hit": false,
      "t": 69672.38367708358,
      "d": 312.50002083333675,
      "v": 93
    },
    {
      "midi": 45,
      "hit": false,
      "t": 69677.42400000025,
      "d": 771.1694062500028,
      "v": 93
    },
    {
      "midi": 57,
      "hit": false,
      "t": 70166.33532291692,
      "d": 544.3548750000045,
      "v": 96
    },
    {
      "midi": 52,
      "hit": false,
      "t": 70171.37564583358,
      "d": 498.99196874999325,
      "v": 97
    },
    {
      "midi": 60,
      "hit": false,
      "t": 70171.37564583358,
      "d": 534.2742291666655,
      "v": 97
    },
    {
      "midi": 45,
      "hit": false,
      "t": 70645.16600000024,
      "d": 539.3145520833496,
      "v": 99
    },
    {
      "midi": 54,
      "hit": false,
      "t": 70892.14182291692,
      "d": 282.25808333333407,
      "v": 111
    },
    {
      "midi": 57,
      "hit": false,
      "t": 70892.14182291692,
      "d": 292.33872916667315,
      "v": 111
    },
    {
      "midi": 62,
      "hit": false,
      "t": 70897.18214583359,
      "d": 287.2984062500036,
      "v": 110
    },
    {
      "midi": 52,
      "hit": false,
      "t": 71365.9321770836,
      "d": 569.5564895833377,
      "v": 102
    },
    {
      "midi": 60,
      "hit": false,
      "t": 71365.9321770836,
      "d": 569.5564895833377,
      "v": 110
    },
    {
      "midi": 57,
      "hit": false,
      "t": 71365.9321770836,
      "d": 594.7581041666708,
      "v": 102
    },
    {
      "midi": 45,
      "hit": false,
      "t": 71370.97250000027,
      "d": 337.7016354166699,
      "v": 102
    },
    {
      "midi": 45,
      "hit": false,
      "t": 71869.96446875027,
      "d": 559.4758437499986,
      "v": 102
    },
    {
      "midi": 52,
      "hit": false,
      "t": 72091.7386770836,
      "d": 347.78228125000896,
      "v": 102
    },
    {
      "midi": 60,
      "hit": false,
      "t": 72091.7386770836,
      "d": 367.94357291667257,
      "v": 102
    },
    {
      "midi": 57,
      "hit": false,
      "t": 72091.7386770836,
      "d": 372.9838958333421,
      "v": 102
    },
    {
      "midi": 52,
      "hit": false,
      "t": 72565.52903125028,
      "d": 136.08871875000477,
      "v": 107
    },
    {
      "midi": 60,
      "hit": false,
      "t": 72570.56935416695,
      "d": 156.25001041666837,
      "v": 96
    },
    {
      "midi": 57,
      "hit": false,
      "t": 72570.56935416695,
      "d": 161.2903333333379,
      "v": 108
    },
    {
      "midi": 45,
      "hit": false,
      "t": 72570.56935416695,
      "d": 544.3548750000045,
      "v": 102
    },
    {
      "midi": 50,
      "hit": false,
      "t": 72807.46453125028,
      "d": 226.81453124999825,
      "v": 99
    },
    {
      "midi": 55,
      "hit": false,
      "t": 72807.46453125028,
      "d": 231.8548541666678,
      "v": 97
    },
    {
      "midi": 59,
      "hit": false,
      "t": 72807.46453125028,
      "d": 231.8548541666678,
      "v": 97
    },
    {
      "midi": 52,
      "hit": false,
      "t": 73296.37585416695,
      "d": 519.1532604166714,
      "v": 106
    },
    {
      "midi": 60,
      "hit": false,
      "t": 73296.37585416695,
      "d": 539.314552083335,
      "v": 106
    },
    {
      "midi": 45,
      "hit": false,
      "t": 73296.37585416695,
      "d": 1078.62910416667,
      "v": 107
    },
    {
      "midi": 57,
      "hit": false,
      "t": 73301.41617708362,
      "d": 539.314552083335,
      "v": 108
    },
    {
      "midi": 52,
      "hit": false,
      "t": 74022.18235416696,
      "d": 544.35487499999,
      "v": 112
    },
    {
      "midi": 60,
      "hit": false,
      "t": 74022.18235416696,
      "d": 564.5161666666536,
      "v": 112
    },
    {
      "midi": 57,
      "hit": false,
      "t": 74027.22267708363,
      "d": 534.2742291666509,
      "v": 113
    },
    {
      "midi": 45,
      "hit": false,
      "t": 74521.17432291695,
      "d": 564.5161666666681,
      "v": 93
    },
    {
      "midi": 54,
      "hit": false,
      "t": 74753.0291770836,
      "d": 307.45969791668176,
      "v": 114
    },
    {
      "midi": 57,
      "hit": false,
      "t": 74758.06950000027,
      "d": 297.3790520833427,
      "v": 114
    },
    {
      "midi": 62,
      "hit": false,
      "t": 74763.10982291694,
      "d": 297.3790520833427,
      "v": 113
    },
    {
      "midi": 52,
      "hit": false,
      "t": 75236.90017708362,
      "d": 362.9032499999885,
      "v": 102
    },
    {
      "midi": 57,
      "hit": false,
      "t": 75236.90017708362,
      "d": 393.14518749999115,
      "v": 102
    },
    {
      "midi": 60,
      "hit": false,
      "t": 75236.90017708362,
      "d": 393.14518749999115,
      "v": 102
    },
    {
      "midi": 45,
      "hit": false,
      "t": 75252.02114583361,
      "d": 534.2742291666655,
      "v": 102
    },
    {
      "midi": 52,
      "hit": false,
      "t": 75710.69053125028,
      "d": 599.7984270833258,
      "v": 111
    },
    {
      "midi": 57,
      "hit": false,
      "t": 75715.73085416695,
      "d": 619.9597187499894,
      "v": 111
    },
    {
      "midi": 60,
      "hit": false,
      "t": 75715.73085416695,
      "d": 619.9597187499894,
      "v": 111
    },
    {
      "midi": 45,
      "hit": false,
      "t": 75957.66635416694,
      "d": 599.7984270833404,
      "v": 110
    },
    {
      "midi": 60,
      "hit": false,
      "t": 76441.53735416694,
      "d": 236.89517708333733,
      "v": 110
    },
    {
      "midi": 52,
      "hit": false,
      "t": 76446.57767708361,
      "d": 236.89517708333733,
      "v": 109
    },
    {
      "midi": 57,
      "hit": false,
      "t": 76446.57767708361,
      "d": 236.89517708333733,
      "v": 108
    },
    {
      "midi": 59,
      "hit": false,
      "t": 76688.51317708362,
      "d": 529.2339062500105,
      "v": 103
    },
    {
      "midi": 55,
      "hit": false,
      "t": 76693.55350000029,
      "d": 529.2339062500105,
      "v": 104
    },
    {
      "midi": 50,
      "hit": false,
      "t": 76693.55350000029,
      "d": 534.27422916668,
      "v": 104
    },
    {
      "midi": 43,
      "hit": false,
      "t": 76698.59382291696,
      "d": 509.0726145833323,
      "v": 105
    },
    {
      "midi": 65,
      "hit": false,
      "t": 77424.40032291696,
      "d": 1285.2823437500047,
      "v": 104
    },
    {
      "midi": 55,
      "hit": false,
      "t": 77424.40032291696,
      "d": 1295.3629895833437,
      "v": 104
    },
    {
      "midi": 60,
      "hit": false,
      "t": 77424.40032291696,
      "d": 1315.5242812500073,
      "v": 104
    },
    {
      "midi": 62,
      "hit": false,
      "t": 77424.40032291696,
      "d": 1315.5242812500073,
      "v": 104
    },
    {
      "midi": 60,
      "hit": false,
      "t": 78845.77138541697,
      "d": 95.76613541667757,
      "v": 99
    },
    {
      "midi": 55,
      "hit": false,
      "t": 78855.85203125031,
      "d": 85.6854895833385,
      "v": 99
    },
    {
      "midi": 65,
      "hit": false,
      "t": 78855.85203125031,
      "d": 85.6854895833385,
      "v": 99
    },
    {
      "midi": 62,
      "hit": false,
      "t": 78855.85203125031,
      "d": 100.80645833333256,
      "v": 99
    },
    {
      "midi": 55,
      "hit": false,
      "t": 79112.90850000031,
      "d": 1134.0726562500058,
      "v": 93
    },
    {
      "midi": 60,
      "hit": false,
      "t": 79112.90850000031,
      "d": 1280.2420208333351,
      "v": 93
    },
    {
      "midi": 64,
      "hit": false,
      "t": 79112.90850000031,
      "d": 1300.4033124999987,
      "v": 93
    },
    {
      "midi": 55,
      "hit": false,
      "t": 80317.54567708365,
      "d": 443.54841666665743,
      "v": 100
    },
    {
      "midi": 60,
      "hit": false,
      "t": 80564.52150000031,
      "d": 201.61291666666511,
      "v": 94
    },
    {
      "midi": 60,
      "hit": false,
      "t": 80796.37635416698,
      "d": 206.6532395833492,
      "v": 97
    },
    {
      "midi": 55,
      "hit": false,
      "t": 80801.41667708365,
      "d": 186.49194791667105,
      "v": 98
    },
    {
      "midi": 64,
      "hit": false,
      "t": 80801.41667708365,
      "d": 196.57259375001013,
      "v": 97
    },
    {
      "midi": 62,
      "hit": false,
      "t": 81043.35217708365,
      "d": 1512.096875000003,
      "v": 104
    },
    {
      "midi": 65,
      "hit": false,
      "t": 81048.39250000032,
      "d": 1476.8146145833307,
      "v": 102
    },
    {
      "midi": 55,
      "hit": false,
      "t": 81048.39250000032,
      "d": 1512.096875000003,
      "v": 103
    },
    {
      "midi": 60,
      "hit": false,
      "t": 81048.39250000032,
      "d": 1537.298489583336,
      "v": 104
    },
    {
      "midi": 55,
      "hit": false,
      "t": 82716.739385417,
      "d": 141.1290416666743,
      "v": 100
    },
    {
      "midi": 60,
      "hit": false,
      "t": 82721.77970833366,
      "d": 146.16936458334385,
      "v": 99
    },
    {
      "midi": 62,
      "hit": false,
      "t": 82721.77970833366,
      "d": 146.16936458334385,
      "v": 100
    },
    {
      "midi": 65,
      "hit": false,
      "t": 82726.82003125033,
      "d": 151.2096875000134,
      "v": 99
    },
    {
      "midi": 60,
      "hit": false,
      "t": 82973.79585416701,
      "d": 1411.2904166666704,
      "v": 93
    },
    {
      "midi": 55,
      "hit": false,
      "t": 82978.83617708368,
      "d": 1154.2339479166694,
      "v": 93
    },
    {
      "midi": 64,
      "hit": false,
      "t": 82978.83617708368,
      "d": 1547.3791354166606,
      "v": 93
    },
    {
      "midi": 55,
      "hit": false,
      "t": 84198.59432291701,
      "d": 493.9516458333237,
      "v": 90
    },
    {
      "midi": 60,
      "hit": false,
      "t": 84425.408854167,
      "d": 367.943572916658,
      "v": 93
    },
    {
      "midi": 64,
      "hit": false,
      "t": 84667.344354167,
      "d": 161.2903333333379,
      "v": 95
    },
    {
      "midi": 55,
      "hit": false,
      "t": 84919.36050000033,
      "d": 1572.5807500000083,
      "v": 103
    },
    {
      "midi": 65,
      "hit": false,
      "t": 84919.36050000033,
      "d": 1587.7017187500023,
      "v": 103
    },
    {
      "midi": 61,
      "hit": false,
      "t": 84924.400822917,
      "d": 1562.5001041666692,
      "v": 102
    },
    {
      "midi": 61,
      "hit": false,
      "t": 86597.78803125033,
      "d": 196.57259375001013,
      "v": 99
    },
    {
      "midi": 65,
      "hit": false,
      "t": 86597.78803125033,
      "d": 196.57259375001013,
      "v": 99
    },
    {
      "midi": 55,
      "hit": false,
      "t": 86602.828354167,
      "d": 201.61291666667967,
      "v": 99
    },
    {
      "midi": 61,
      "hit": false,
      "t": 86839.72353125035,
      "d": 1426.411385416679,
      "v": 92
    },
    {
      "midi": 57,
      "hit": false,
      "t": 86844.76385416702,
      "d": 1360.887187500004,
      "v": 93
    },
    {
      "midi": 55,
      "hit": false,
      "t": 86849.80417708369,
      "d": 1144.1533020833303,
      "v": 93
    },
    {
      "midi": 64,
      "hit": false,
      "t": 86849.80417708369,
      "d": 1602.8226874999964,
      "v": 93
    },
    {
      "midi": 55,
      "hit": false,
      "t": 88079.64296875036,
      "d": 665.3226249999861,
      "v": 90
    },
    {
      "midi": 61,
      "hit": false,
      "t": 88311.49782291702,
      "d": 342.7419583333249,
      "v": 93
    },
    {
      "midi": 64,
      "hit": false,
      "t": 88543.35267708368,
      "d": 216.73388541665918,
      "v": 94
    },
    {
      "midi": 65,
      "hit": false,
      "t": 88790.32850000034,
      "d": 1617.943656250005,
      "v": 106
    },
    {
      "midi": 55,
      "hit": false,
      "t": 88795.36882291701,
      "d": 1648.1855937500077,
      "v": 106
    },
    {
      "midi": 61,
      "hit": false,
      "t": 88800.40914583368,
      "d": 1607.863010416666,
      "v": 105
    },
    {
      "midi": 55,
      "hit": false,
      "t": 90453.63506250035,
      "d": 196.57259375001013,
      "v": 99
    },
    {
      "midi": 61,
      "hit": false,
      "t": 90453.63506250035,
      "d": 196.57259375001013,
      "v": 99
    },
    {
      "midi": 65,
      "hit": false,
      "t": 90458.67538541702,
      "d": 201.61291666667967,
      "v": 99
    },
    {
      "midi": 55,
      "hit": false,
      "t": 90710.69153125037,
      "d": 1194.5565312500112,
      "v": 93
    },
    {
      "midi": 64,
      "hit": false,
      "t": 90710.69153125037,
      "d": 1663.3065625000017,
      "v": 93
    },
    {
      "midi": 57,
      "hit": false,
      "t": 90720.77217708371,
      "d": 1370.9678333333286,
      "v": 93
    },
    {
      "midi": 61,
      "hit": false,
      "t": 90720.77217708371,
      "d": 1617.9436562499905,
      "v": 92
    },
    {
      "midi": 55,
      "hit": false,
      "t": 91925.40935416704,
      "d": 514.1129374999873,
      "v": 90
    },
    {
      "midi": 57,
      "hit": false,
      "t": 92167.34485416704,
      "d": 337.70163541665534,
      "v": 93
    },
    {
      "midi": 61,
      "hit": false,
      "t": 92399.1997083337,
      "d": 201.61291666665056,
      "v": 89
    },
    {
      "midi": 60,
      "hit": false,
      "t": 92641.13520833368,
      "d": 1663.3065625000017,
      "v": 102
    },
    {
      "midi": 64,
      "hit": false,
      "t": 92646.17553125035,
      "d": 1658.2662395833322,
      "v": 101
    },
    {
      "midi": 57,
      "hit": false,
      "t": 92646.17553125035,
      "d": 1668.3468854166713,
      "v": 101
    },
    {
      "midi": 54,
      "hit": false,
      "t": 92646.17553125035,
      "d": 1673.3872083333408,
      "v": 100
    },
    {
      "midi": 60,
      "hit": false,
      "t": 94339.72403125036,
      "d": 161.2903333333379,
      "v": 100
    },
    {
      "midi": 57,
      "hit": false,
      "t": 94349.8046770837,
      "d": 176.41130208333198,
      "v": 99
    },
    {
      "midi": 54,
      "hit": false,
      "t": 94354.84500000036,
      "d": 171.37097916666244,
      "v": 99
    },
    {
      "midi": 64,
      "hit": false,
      "t": 94359.88532291703,
      "d": 171.37097916666244,
      "v": 99
    },
    {
      "midi": 60,
      "hit": false,
      "t": 94576.6192083337,
      "d": 1658.2662395833468,
      "v": 93
    },
    {
      "midi": 54,
      "hit": false,
      "t": 94586.69985416703,
      "d": 1118.9516874999972,
      "v": 93
    },
    {
      "midi": 57,
      "hit": false,
      "t": 94586.69985416703,
      "d": 1144.1533020833303,
      "v": 93
    },
    {
      "midi": 62,
      "hit": false,
      "t": 94586.69985416703,
      "d": 1643.1452708333381,
      "v": 93
    },
    {
      "midi": 54,
      "hit": false,
      "t": 95811.49832291703,
      "d": 665.3226250000007,
      "v": 100
    },
    {
      "midi": 57,
      "hit": false,
      "t": 96053.43382291704,
      "d": 433.4677708333329,
      "v": 94
    },
    {
      "midi": 62,
      "hit": false,
      "t": 96280.24835416704,
      "d": 216.73388541667373,
      "v": 103
    },
    {
      "midi": 57,
      "hit": false,
      "t": 96527.22417708371,
      "d": 1537.298489583336,
      "v": 106
    },
    {
      "midi": 64,
      "hit": false,
      "t": 96527.22417708371,
      "d": 1572.5807500000083,
      "v": 106
    },
    {
      "midi": 54,
      "hit": false,
      "t": 96532.26450000038,
      "d": 1527.217843749997,
      "v": 105
    },
    {
      "midi": 60,
      "hit": false,
      "t": 96532.26450000038,
      "d": 1577.6210729166778,
      "v": 106
    },
    {
      "midi": 54,
      "hit": false,
      "t": 98195.5710625004,
      "d": 141.1290416666743,
      "v": 99
    },
    {
      "midi": 60,
      "hit": false,
      "t": 98200.61138541707,
      "d": 131.04839583333523,
      "v": 99
    },
    {
      "midi": 57,
      "hit": false,
      "t": 98200.61138541707,
      "d": 141.1290416666743,
      "v": 99
    },
    {
      "midi": 64,
      "hit": false,
      "t": 98205.65170833374,
      "d": 126.0080729166657,
      "v": 99
    },
    {
      "midi": 57,
      "hit": false,
      "t": 98452.62753125041,
      "d": 720.7661770833365,
      "v": 93
    },
    {
      "midi": 54,
      "hit": false,
      "t": 98457.66785416708,
      "d": 715.725854166667,
      "v": 93
    },
    {
      "midi": 60,
      "hit": false,
      "t": 98457.66785416708,
      "d": 715.725854166667,
      "v": 93
    },
    {
      "midi": 62,
      "hit": false,
      "t": 98462.70817708375,
      "d": 725.8064999999915,
      "v": 92
    },
    {
      "midi": 62,
      "hit": false,
      "t": 99193.55500000042,
      "d": 191.5322708333406,
      "v": 101
    },
    {
      "midi": 54,
      "hit": false,
      "t": 99193.55500000042,
      "d": 201.61291666667967,
      "v": 101
    },
    {
      "midi": 57,
      "hit": false,
      "t": 99193.55500000042,
      "d": 201.61291666667967,
      "v": 101
    },
    {
      "midi": 60,
      "hit": false,
      "t": 99193.55500000042,
      "d": 221.77420833334327,
      "v": 101
    },
    {
      "midi": 64,
      "hit": false,
      "t": 99420.36953125043,
      "d": 468.7500312500051,
      "v": 93
    },
    {
      "midi": 60,
      "hit": false,
      "t": 99425.4098541671,
      "d": 463.7097083333356,
      "v": 94
    },
    {
      "midi": 54,
      "hit": false,
      "t": 99425.4098541671,
      "d": 473.79035416667466,
      "v": 94
    },
    {
      "midi": 57,
      "hit": false,
      "t": 99425.4098541671,
      "d": 473.79035416667466,
      "v": 94
    },
    {
      "midi": 57,
      "hit": false,
      "t": 99919.36150000044,
      "d": 191.5322708333406,
      "v": 93
    },
    {
      "midi": 60,
      "hit": false,
      "t": 99919.36150000044,
      "d": 191.5322708333406,
      "v": 93
    },
    {
      "midi": 64,
      "hit": false,
      "t": 99919.36150000044,
      "d": 196.57259375001013,
      "v": 93
    },
    {
      "midi": 54,
      "hit": false,
      "t": 99919.36150000044,
      "d": 201.61291666667967,
      "v": 93
    },
    {
      "midi": 60,
      "hit": false,
      "t": 100161.29700000044,
      "d": 403.22583333333023,
      "v": 104
    },
    {
      "midi": 65,
      "hit": false,
      "t": 100166.33732291711,
      "d": 398.1855104166607,
      "v": 103
    },
    {
      "midi": 57,
      "hit": false,
      "t": 100166.33732291711,
      "d": 403.22583333333023,
      "v": 104
    },
    {
      "midi": 53,
      "hit": false,
      "t": 100650.20832291711,
      "d": 1340.7258958333405,
      "v": 104
    },
    {
      "midi": 62,
      "hit": false,
      "t": 100650.20832291711,
      "d": 1355.846864583349,
      "v": 104
    },
    {
      "midi": 55,
      "hit": false,
      "t": 100655.24864583378,
      "d": 1330.6452500000014,
      "v": 104
    },
    {
      "midi": 58,
      "hit": false,
      "t": 100655.24864583378,
      "d": 1345.76621875001,
      "v": 104
    },
    {
      "midi": 53,
      "hit": false,
      "t": 102091.7406770838,
      "d": 201.61291666666511,
      "v": 99
    },
    {
      "midi": 62,
      "hit": false,
      "t": 102096.78100000047,
      "d": 201.61291666666511,
      "v": 99
    },
    {
      "midi": 58,
      "hit": false,
      "t": 102096.78100000047,
      "d": 206.65323958333465,
      "v": 99
    },
    {
      "midi": 58,
      "hit": false,
      "t": 102333.6761770838,
      "d": 1204.6371770833357,
      "v": 93
    },
    {
      "midi": 62,
      "hit": false,
      "t": 102333.6761770838,
      "d": 1567.5404270833387,
      "v": 93
    },
    {
      "midi": 65,
      "hit": false,
      "t": 102333.6761770838,
      "d": 1688.5081770833494,
      "v": 93
    },
    {
      "midi": 55,
      "hit": false,
      "t": 102338.71650000048,
      "d": 1083.6694270833395,
      "v": 93
    },
    {
      "midi": 55,
      "hit": false,
      "t": 103543.35367708381,
      "d": 302.4193749999977,
      "v": 100
    },
    {
      "midi": 58,
      "hit": false,
      "t": 103780.24885416715,
      "d": 221.77420833332872,
      "v": 92
    },
    {
      "midi": 58,
      "hit": false,
      "t": 104012.10370833382,
      "d": 211.6935625000042,
      "v": 103
    },
    {
      "midi": 55,
      "hit": false,
      "t": 104017.14403125049,
      "d": 216.73388541667373,
      "v": 104
    },
    {
      "midi": 62,
      "hit": false,
      "t": 104022.18435416716,
      "d": 201.61291666666511,
      "v": 102
    },
    {
      "midi": 53,
      "hit": false,
      "t": 104022.18435416716,
      "d": 221.77420833334327,
      "v": 103
    },
    {
      "midi": 55,
      "hit": false,
      "t": 104274.2005000005,
      "d": 1597.7823645833414,
      "v": 105
    },
    {
      "midi": 61,
      "hit": false,
      "t": 104279.24082291717,
      "d": 1577.6210729166633,
      "v": 103
    },
    {
      "midi": 65,
      "hit": false,
      "t": 104279.24082291717,
      "d": 1582.6613958333328,
      "v": 105
    },
    {
      "midi": 61,
      "hit": false,
      "t": 105962.70867708384,
      "d": 211.6935625000042,
      "v": 99
    },
    {
      "midi": 55,
      "hit": false,
      "t": 105962.70867708384,
      "d": 216.73388541667373,
      "v": 99
    },
    {
      "midi": 65,
      "hit": false,
      "t": 105967.7490000005,
      "d": 216.73388541667373,
      "v": 99
    },
    {
      "midi": 61,
      "hit": false,
      "t": 106204.64417708384,
      "d": 1809.475927083331,
      "v": 92
    },
    {
      "midi": 55,
      "hit": false,
      "t": 106209.68450000051,
      "d": 1295.3629895833292,
      "v": 93
    },
    {
      "midi": 64,
      "hit": false,
      "t": 106209.68450000051,
      "d": 1950.6049687499908,
      "v": 93
    },
    {
      "midi": 57,
      "hit": false,
      "t": 106214.72482291718,
      "d": 1542.338812499991,
      "v": 93
    },
    {
      "midi": 55,
      "hit": false,
      "t": 107671.37814583383,
      "d": 589.7177812500013,
      "v": 83
    },
    {
      "midi": 57,
      "hit": false,
      "t": 107908.27332291717,
      "d": 327.6209895833308,
      "v": 93
    },
    {
      "midi": 61,
      "hit": false,
      "t": 108130.0475312505,
      "d": 166.33065625000745,
      "v": 77
    },
    {
      "midi": 53,
      "hit": false,
      "t": 108634.07982291718,
      "d": 252.0161458333314,
      "v": 101
    },
    {
      "midi": 60,
      "hit": false,
      "t": 108634.07982291718,
      "d": 272.177437499995,
      "v": 102
    },
    {
      "midi": 57,
      "hit": false,
      "t": 108639.12014583385,
      "d": 262.0967916666559,
      "v": 102
    },
    {
      "midi": 64,
      "hit": false,
      "t": 109107.87017708384,
      "d": 337.7016354166699,
      "v": 102
    },
    {
      "midi": 65,
      "hit": false,
      "t": 109112.91050000051,
      "d": 322.5806666666613,
      "v": 102
    },
    {
      "midi": 72,
      "hit": false,
      "t": 109112.91050000051,
      "d": 322.5806666666613,
      "v": 102
    },
    {
      "midi": 69,
      "hit": false,
      "t": 109112.91050000051,
      "d": 332.66131250000035,
      "v": 102
    },
    {
      "midi": 53,
      "hit": false,
      "t": 109581.66053125051,
      "d": 272.17743750000955,
      "v": 101
    },
    {
      "midi": 57,
      "hit": false,
      "t": 109581.66053125051,
      "d": 272.17743750000955,
      "v": 101
    },
    {
      "midi": 60,
      "hit": false,
      "t": 109586.70085416718,
      "d": 282.25808333333407,
      "v": 102
    },
    {
      "midi": 72,
      "hit": false,
      "t": 110050.41056250052,
      "d": 342.7419583333394,
      "v": 102
    },
    {
      "midi": 65,
      "hit": false,
      "t": 110050.41056250052,
      "d": 347.78228125000896,
      "v": 102
    },
    {
      "midi": 64,
      "hit": false,
      "t": 110055.45088541719,
      "d": 342.7419583333394,
      "v": 102
    },
    {
      "midi": 69,
      "hit": false,
      "t": 110055.45088541719,
      "d": 352.8226041666785,
      "v": 102
    },
    {
      "midi": 53,
      "hit": false,
      "t": 110796.3783541672,
      "d": 423.3871250000084,
      "v": 95
    },
    {
      "midi": 60,
      "hit": false,
      "t": 110796.3783541672,
      "d": 423.3871250000084,
      "v": 94
    },
    {
      "midi": 57,
      "hit": false,
      "t": 110801.41867708387,
      "d": 413.3064791666693,
      "v": 95
    },
    {
      "midi": 59,
      "hit": false,
      "t": 111532.26550000055,
      "d": 257.05646875000093,
      "v": 77
    },
    {
      "midi": 62,
      "hit": false,
      "t": 111537.30582291722,
      "d": 252.0161458333314,
      "v": 79
    },
    {
      "midi": 65,
      "hit": false,
      "t": 111537.30582291722,
      "d": 257.05646875000093,
      "v": 79
    },
    {
      "midi": 55,
      "hit": false,
      "t": 111537.30582291722,
      "d": 262.09679166667047,
      "v": 80
    },
    {
      "midi": 57,
      "hit": false,
      "t": 111995.97520833388,
      "d": 488.9113229166687,
      "v": 84
    },
    {
      "midi": 55,
      "hit": false,
      "t": 112001.01553125055,
      "d": 478.83067708332965,
      "v": 85
    },
    {
      "midi": 60,
      "hit": false,
      "t": 112001.01553125055,
      "d": 478.83067708332965,
      "v": 84
    },
    {
      "midi": 64,
      "hit": false,
      "t": 112001.01553125055,
      "d": 483.8709999999992,
      "v": 84
    },
    {
      "midi": 72,
      "hit": false,
      "t": 112731.86235416721,
      "d": 493.95164583333826,
      "v": 96
    },
    {
      "midi": 67,
      "hit": false,
      "t": 112731.86235416721,
      "d": 504.03229166667734,
      "v": 96
    },
    {
      "midi": 64,
      "hit": false,
      "t": 112736.90267708388,
      "d": 493.95164583333826,
      "v": 97
    },
    {
      "midi": 69,
      "hit": false,
      "t": 112736.90267708388,
      "d": 504.03229166667734,
      "v": 96
    },
    {
      "midi": 64,
      "hit": false,
      "t": 113452.62853125056,
      "d": 221.77420833334327,
      "v": 85
    },
    {
      "midi": 69,
      "hit": false,
      "t": 113452.62853125056,
      "d": 221.77420833334327,
      "v": 85
    },
    {
      "midi": 67,
      "hit": false,
      "t": 113452.62853125056,
      "d": 226.8145312500128,
      "v": 85
    },
    {
      "midi": 71,
      "hit": false,
      "t": 113457.66885416723,
      "d": 216.73388541667373,
      "v": 85
    },
    {
      "midi": 64,
      "hit": false,
      "t": 113956.66082291724,
      "d": 226.81453124999825,
      "v": 85
    },
    {
      "midi": 67,
      "hit": false,
      "t": 113956.66082291724,
      "d": 226.81453124999825,
      "v": 85
    },
    {
      "midi": 69,
      "hit": false,
      "t": 113956.66082291724,
      "d": 226.81453124999825,
      "v": 86
    },
    {
      "midi": 72,
      "hit": false,
      "t": 113956.66082291724,
      "d": 236.89517708333733,
      "v": 86
    },
    {
      "midi": 67,
      "hit": false,
      "t": 114435.49150000059,
      "d": 443.548416666672,
      "v": 96
    },
    {
      "midi": 72,
      "hit": false,
      "t": 114435.49150000059,
      "d": 453.62906250001106,
      "v": 96
    },
    {
      "midi": 64,
      "hit": false,
      "t": 114440.53182291726,
      "d": 423.38712499999383,
      "v": 97
    },
    {
      "midi": 69,
      "hit": false,
      "t": 114440.53182291726,
      "d": 428.42744791666337,
      "v": 96
    },
    {
      "midi": 67,
      "hit": false,
      "t": 114899.20120833394,
      "d": 388.10486458333617,
      "v": 87
    },
    {
      "midi": 64,
      "hit": false,
      "t": 114899.20120833394,
      "d": 398.18551041667524,
      "v": 87
    },
    {
      "midi": 60,
      "hit": false,
      "t": 114899.20120833394,
      "d": 428.4274479166779,
      "v": 87
    },
    {
      "midi": 60,
      "hit": false,
      "t": 115619.96738541729,
      "d": 272.17743750000955,
      "v": 87
    },
    {
      "midi": 57,
      "hit": false,
      "t": 115625.00770833396,
      "d": 282.25808333333407,
      "v": 87
    },
    {
      "midi": 64,
      "hit": false,
      "t": 115630.04803125063,
      "d": 282.25808333333407,
      "v": 86
    },
    {
      "midi": 67,
      "hit": false,
      "t": 115635.0883541673,
      "d": 277.21776041666453,
      "v": 86
    },
    {
      "midi": 52,
      "hit": false,
      "t": 116381.05614583397,
      "d": 297.37905208332813,
      "v": 99
    },
    {
      "midi": 53,
      "hit": false,
      "t": 116381.05614583397,
      "d": 307.4596979166672,
      "v": 100
    },
    {
      "midi": 57,
      "hit": false,
      "t": 116381.05614583397,
      "d": 307.4596979166672,
      "v": 98
    },
    {
      "midi": 60,
      "hit": false,
      "t": 116381.05614583397,
      "d": 327.6209895833308,
      "v": 101
    },
    {
      "midi": 72,
      "hit": false,
      "t": 116849.80617708396,
      "d": 735.8871458333451,
      "v": 105
    },
    {
      "midi": 64,
      "hit": false,
      "t": 116849.80617708396,
      "d": 740.9274687500147,
      "v": 104
    },
    {
      "midi": 65,
      "hit": false,
      "t": 116854.84650000063,
      "d": 725.806500000006,
      "v": 104
    },
    {
      "midi": 69,
      "hit": false,
      "t": 116854.84650000063,
      "d": 735.8871458333451,
      "v": 102
    },
    {
      "midi": 60,
      "hit": false,
      "t": 117817.54817708397,
      "d": 423.38712499999383,
      "v": 89
    },
    {
      "midi": 69,
      "hit": false,
      "t": 117817.54817708397,
      "d": 423.38712499999383,
      "v": 89
    },
    {
      "midi": 64,
      "hit": false,
      "t": 117817.54817708397,
      "d": 428.42744791666337,
      "v": 88
    },
    {
      "midi": 65,
      "hit": false,
      "t": 117817.54817708397,
      "d": 453.6290624999965,
      "v": 90
    },
    {
      "midi": 52,
      "hit": false,
      "t": 118306.45950000064,
      "d": 761.0887604166637,
      "v": 100
    },
    {
      "midi": 53,
      "hit": false,
      "t": 118306.45950000064,
      "d": 761.0887604166637,
      "v": 101
    },
    {
      "midi": 57,
      "hit": false,
      "t": 118306.45950000064,
      "d": 771.1694062500028,
      "v": 101
    },
    {
      "midi": 60,
      "hit": false,
      "t": 118306.45950000064,
      "d": 776.2097291666723,
      "v": 101
    },
    {
      "midi": 59,
      "hit": false,
      "t": 119274.20150000065,
      "d": 257.05646875000093,
      "v": 77
    },
    {
      "midi": 62,
      "hit": false,
      "t": 119279.24182291732,
      "d": 252.0161458333314,
      "v": 79
    },
    {
      "midi": 65,
      "hit": false,
      "t": 119279.24182291732,
      "d": 257.05646875000093,
      "v": 79
    },
    {
      "midi": 55,
      "hit": false,
      "t": 119279.24182291732,
      "d": 262.09679166667047,
      "v": 80
    },
    {
      "midi": 57,
      "hit": false,
      "t": 119737.91120833399,
      "d": 488.9113229166687,
      "v": 84
    },
    {
      "midi": 55,
      "hit": false,
      "t": 119742.95153125066,
      "d": 478.83067708332965,
      "v": 85
    },
    {
      "midi": 60,
      "hit": false,
      "t": 119742.95153125066,
      "d": 478.83067708332965,
      "v": 84
    },
    {
      "midi": 64,
      "hit": false,
      "t": 119742.95153125066,
      "d": 483.8709999999992,
      "v": 84
    },
    {
      "midi": 72,
      "hit": false,
      "t": 120473.79835416732,
      "d": 493.95164583333826,
      "v": 96
    },
    {
      "midi": 67,
      "hit": false,
      "t": 120473.79835416732,
      "d": 504.03229166667734,
      "v": 96
    },
    {
      "midi": 64,
      "hit": false,
      "t": 120478.83867708399,
      "d": 493.95164583333826,
      "v": 97
    },
    {
      "midi": 69,
      "hit": false,
      "t": 120478.83867708399,
      "d": 504.03229166667734,
      "v": 96
    },
    {
      "midi": 64,
      "hit": false,
      "t": 121194.56453125067,
      "d": 221.77420833334327,
      "v": 85
    },
    {
      "midi": 69,
      "hit": false,
      "t": 121194.56453125067,
      "d": 221.77420833334327,
      "v": 85
    },
    {
      "midi": 67,
      "hit": false,
      "t": 121194.56453125067,
      "d": 226.8145312500128,
      "v": 85
    },
    {
      "midi": 71,
      "hit": false,
      "t": 121199.60485416734,
      "d": 216.73388541667373,
      "v": 85
    },
    {
      "midi": 64,
      "hit": false,
      "t": 121698.59682291734,
      "d": 226.81453124999825,
      "v": 85
    },
    {
      "midi": 67,
      "hit": false,
      "t": 121698.59682291734,
      "d": 226.81453124999825,
      "v": 85
    },
    {
      "midi": 69,
      "hit": false,
      "t": 121698.59682291734,
      "d": 226.81453124999825,
      "v": 86
    },
    {
      "midi": 72,
      "hit": false,
      "t": 121698.59682291734,
      "d": 236.89517708333733,
      "v": 86
    },
    {
      "midi": 67,
      "hit": false,
      "t": 122177.42750000069,
      "d": 443.548416666672,
      "v": 96
    },
    {
      "midi": 72,
      "hit": false,
      "t": 122177.42750000069,
      "d": 453.62906250001106,
      "v": 96
    },
    {
      "midi": 64,
      "hit": false,
      "t": 122182.46782291736,
      "d": 423.38712499999383,
      "v": 97
    },
    {
      "midi": 69,
      "hit": false,
      "t": 122182.46782291736,
      "d": 428.42744791666337,
      "v": 96
    },
    {
      "midi": 67,
      "hit": false,
      "t": 122641.13720833404,
      "d": 630.0403645833285,
      "v": 87
    },
    {
      "midi": 60,
      "hit": false,
      "t": 122641.13720833404,
      "d": 635.080687499998,
      "v": 87
    },
    {
      "midi": 64,
      "hit": false,
      "t": 122641.13720833404,
      "d": 635.080687499998,
      "v": 87
    },
    {
      "midi": 60,
      "hit": false,
      "t": 123361.90338541738,
      "d": 453.62906250001106,
      "v": 87
    },
    {
      "midi": 57,
      "hit": false,
      "t": 123366.94370833405,
      "d": 458.6693854166806,
      "v": 87
    },
    {
      "midi": 64,
      "hit": false,
      "t": 123371.98403125071,
      "d": 458.6693854166806,
      "v": 86
    },
    {
      "midi": 67,
      "hit": false,
      "t": 123377.02435416738,
      "d": 463.70970833335014,
      "v": 86
    },
    {
      "midi": 60,
      "hit": false,
      "t": 123850.81470833407,
      "d": 912.2984479166771,
      "v": 88
    },
    {
      "midi": 64,
      "hit": false,
      "t": 123855.85503125074,
      "d": 614.919395833349,
      "v": 89
    },
    {
      "midi": 57,
      "hit": false,
      "t": 123865.93567708408,
      "d": 856.8548958333413,
      "v": 89
    },
    {
      "midi": 53,
      "hit": false,
      "t": 123870.97600000075,
      "d": 871.9758645833354,
      "v": 90
    },
    {
      "midi": 64,
      "hit": false,
      "t": 124601.82282291743,
      "d": 156.25001041665382,
      "v": 82
    },
    {
      "midi": 53,
      "hit": false,
      "t": 124828.63735416741,
      "d": 761.0887604166637,
      "v": 92
    },
    {
      "midi": 57,
      "hit": false,
      "t": 124828.63735416741,
      "d": 766.1290833333333,
      "v": 93
    },
    {
      "midi": 64,
      "hit": false,
      "t": 124833.67767708408,
      "d": 705.6452083333279,
      "v": 93
    },
    {
      "midi": 60,
      "hit": false,
      "t": 124833.67767708408,
      "d": 725.8064999999915,
      "v": 93
    },
    {
      "midi": 67,
      "hit": false,
      "t": 125569.56482291741,
      "d": 201.61291666666511,
      "v": 80
    },
    {
      "midi": 60,
      "hit": false,
      "t": 125796.37935416741,
      "d": 1139.1129791666754,
      "v": 99
    },
    {
      "midi": 64,
      "hit": false,
      "t": 125796.37935416741,
      "d": 1139.1129791666754,
      "v": 98
    },
    {
      "midi": 53,
      "hit": false,
      "t": 125801.41967708408,
      "d": 1123.9920104166667,
      "v": 99
    },
    {
      "midi": 69,
      "hit": false,
      "t": 125801.41967708408,
      "d": 1134.0726562500058,
      "v": 98
    },
    {
      "midi": 59,
      "hit": false,
      "t": 127247.99235416742,
      "d": 408.26615624999977,
      "v": 89
    },
    {
      "midi": 50,
      "hit": false,
      "t": 127247.99235416742,
      "d": 418.34680208333884,
      "v": 89
    },
    {
      "midi": 55,
      "hit": false,
      "t": 127253.03267708409,
      "d": 418.34680208333884,
      "v": 90
    },
    {
      "midi": 60,
      "hit": false,
      "t": 127731.86335416744,
      "d": 307.4596979166672,
      "v": 93
    },
    {
      "midi": 52,
      "hit": false,
      "t": 127736.9036770841,
      "d": 302.4193749999977,
      "v": 93
    },
    {
      "midi": 57,
      "hit": false,
      "t": 127736.9036770841,
      "d": 312.50002083333675,
      "v": 93
    },
    {
      "midi": 45,
      "hit": false,
      "t": 127741.94400000077,
      "d": 771.1694062500028,
      "v": 93
    },
    {
      "midi": 57,
      "hit": false,
      "t": 128230.85532291744,
      "d": 544.3548750000045,
      "v": 96
    },
    {
      "midi": 52,
      "hit": false,
      "t": 128235.89564583411,
      "d": 498.99196874999325,
      "v": 97
    },
    {
      "midi": 60,
      "hit": false,
      "t": 128235.89564583411,
      "d": 534.2742291666655,
      "v": 97
    },
    {
      "midi": 45,
      "hit": false,
      "t": 128709.68600000077,
      "d": 539.3145520833496,
      "v": 99
    },
    {
      "midi": 54,
      "hit": false,
      "t": 128956.66182291745,
      "d": 282.25808333333407,
      "v": 111
    },
    {
      "midi": 57,
      "hit": false,
      "t": 128956.66182291745,
      "d": 292.33872916667315,
      "v": 111
    },
    {
      "midi": 62,
      "hit": false,
      "t": 128961.70214583412,
      "d": 287.2984062500036,
      "v": 110
    },
    {
      "midi": 52,
      "hit": false,
      "t": 129430.45217708412,
      "d": 569.5564895833377,
      "v": 102
    },
    {
      "midi": 60,
      "hit": false,
      "t": 129430.45217708412,
      "d": 569.5564895833377,
      "v": 110
    },
    {
      "midi": 57,
      "hit": false,
      "t": 129430.45217708412,
      "d": 594.7581041666708,
      "v": 102
    },
    {
      "midi": 45,
      "hit": false,
      "t": 129435.4925000008,
      "d": 337.7016354166699,
      "v": 102
    },
    {
      "midi": 45,
      "hit": false,
      "t": 129934.4844687508,
      "d": 559.4758437499986,
      "v": 102
    },
    {
      "midi": 52,
      "hit": false,
      "t": 130156.25867708413,
      "d": 347.78228125000896,
      "v": 102
    },
    {
      "midi": 60,
      "hit": false,
      "t": 130156.25867708413,
      "d": 367.94357291667257,
      "v": 102
    },
    {
      "midi": 57,
      "hit": false,
      "t": 130156.25867708413,
      "d": 372.9838958333421,
      "v": 102
    },
    {
      "midi": 52,
      "hit": false,
      "t": 130630.0490312508,
      "d": 136.08871875000477,
      "v": 107
    },
    {
      "midi": 60,
      "hit": false,
      "t": 130635.08935416747,
      "d": 156.25001041666837,
      "v": 96
    },
    {
      "midi": 57,
      "hit": false,
      "t": 130635.08935416747,
      "d": 161.2903333333379,
      "v": 108
    },
    {
      "midi": 45,
      "hit": false,
      "t": 130635.08935416747,
      "d": 544.3548750000336,
      "v": 102
    },
    {
      "midi": 50,
      "hit": false,
      "t": 130871.98453125081,
      "d": 226.8145312500128,
      "v": 99
    },
    {
      "midi": 55,
      "hit": false,
      "t": 130871.98453125081,
      "d": 231.85485416668234,
      "v": 97
    },
    {
      "midi": 59,
      "hit": false,
      "t": 130871.98453125081,
      "d": 231.85485416668234,
      "v": 97
    },
    {
      "midi": 52,
      "hit": false,
      "t": 131360.8958541675,
      "d": 519.1532604166714,
      "v": 106
    },
    {
      "midi": 60,
      "hit": false,
      "t": 131360.8958541675,
      "d": 539.3145520833496,
      "v": 106
    },
    {
      "midi": 45,
      "hit": false,
      "t": 131360.8958541675,
      "d": 1078.62910416667,
      "v": 107
    },
    {
      "midi": 57,
      "hit": false,
      "t": 131365.93617708416,
      "d": 539.3145520833496,
      "v": 108
    },
    {
      "midi": 52,
      "hit": false,
      "t": 132086.7023541675,
      "d": 544.35487499999,
      "v": 112
    },
    {
      "midi": 60,
      "hit": false,
      "t": 132086.7023541675,
      "d": 564.5161666666681,
      "v": 112
    },
    {
      "midi": 57,
      "hit": false,
      "t": 132091.74267708417,
      "d": 534.2742291666509,
      "v": 113
    },
    {
      "midi": 45,
      "hit": false,
      "t": 132585.6943229175,
      "d": 564.5161666666972,
      "v": 93
    },
    {
      "midi": 54,
      "hit": false,
      "t": 132817.54917708418,
      "d": 307.4596979166672,
      "v": 114
    },
    {
      "midi": 57,
      "hit": false,
      "t": 132822.58950000085,
      "d": 297.37905208332813,
      "v": 114
    },
    {
      "midi": 62,
      "hit": false,
      "t": 132827.62982291752,
      "d": 297.37905208332813,
      "v": 113
    },
    {
      "midi": 52,
      "hit": false,
      "t": 133301.4201770842,
      "d": 362.903250000003,
      "v": 102
    },
    {
      "midi": 57,
      "hit": false,
      "t": 133301.4201770842,
      "d": 393.14518749999115,
      "v": 102
    },
    {
      "midi": 60,
      "hit": false,
      "t": 133301.4201770842,
      "d": 393.14518749999115,
      "v": 102
    },
    {
      "midi": 45,
      "hit": false,
      "t": 133316.5411458342,
      "d": 534.2742291666509,
      "v": 102
    },
    {
      "midi": 52,
      "hit": false,
      "t": 133775.21053125084,
      "d": 599.7984270833549,
      "v": 111
    },
    {
      "midi": 57,
      "hit": false,
      "t": 133780.2508541675,
      "d": 619.9597187500331,
      "v": 111
    },
    {
      "midi": 60,
      "hit": false,
      "t": 133780.2508541675,
      "d": 619.9597187500331,
      "v": 111
    },
    {
      "midi": 45,
      "hit": false,
      "t": 134022.18635416753,
      "d": 599.7984270833549,
      "v": 110
    },
    {
      "midi": 60,
      "hit": false,
      "t": 134506.05735416754,
      "d": 236.89517708335188,
      "v": 110
    },
    {
      "midi": 52,
      "hit": false,
      "t": 134511.0976770842,
      "d": 236.89517708335188,
      "v": 109
    },
    {
      "midi": 57,
      "hit": false,
      "t": 134511.0976770842,
      "d": 236.89517708335188,
      "v": 108
    },
    {
      "midi": 59,
      "hit": false,
      "t": 134753.03317708423,
      "d": 529.2339062500105,
      "v": 103
    },
    {
      "midi": 55,
      "hit": false,
      "t": 134758.0735000009,
      "d": 529.2339062500105,
      "v": 104
    },
    {
      "midi": 50,
      "hit": false,
      "t": 134758.0735000009,
      "d": 534.27422916668,
      "v": 104
    },
    {
      "midi": 43,
      "hit": false,
      "t": 134763.11382291757,
      "d": 509.0726145833323,
      "v": 105
    },
    {
      "midi": 55,
      "hit": false,
      "t": 135488.92032291758,
      "d": 559.4758437499986,
      "v": 103
    },
    {
      "midi": 57,
      "hit": false,
      "t": 135488.92032291758,
      "d": 564.5161666666681,
      "v": 103
    },
    {
      "midi": 64,
      "hit": false,
      "t": 135488.92032291758,
      "d": 569.5564895833377,
      "v": 103
    },
    {
      "midi": 61,
      "hit": false,
      "t": 135493.96064583425,
      "d": 559.4758437499986,
      "v": 103
    },
    {
      "midi": 61,
      "hit": false,
      "t": 135509.08161458332,
      "d": 569.5564895833377,
      "v": 99
    },
    {
      "midi": 55,
      "hit": false,
      "t": 135514.1219375,
      "d": 589.7177812500158,
      "v": 96
    },
    {
      "midi": 64,
      "hit": false,
      "t": 136219.76714583425,
      "d": 70.56452083334443,
      "v": 91
    },
    {
      "midi": 55,
      "hit": false,
      "t": 136219.76714583425,
      "d": 80.64516666668351,
      "v": 91
    },
    {
      "midi": 61,
      "hit": false,
      "t": 136219.76714583425,
      "d": 80.64516666668351,
      "v": 91
    },
    {
      "midi": 57,
      "hit": false,
      "t": 136219.76714583425,
      "d": 85.68548958335305,
      "v": 91
    },
    {
      "midi": 61,
      "hit": false,
      "t": 136229.8477916667,
      "d": 80.64516666668351,
      "v": 89
    },
    {
      "midi": 55,
      "hit": false,
      "t": 136234.88811458336,
      "d": 75.60484375001397,
      "v": 89
    },
    {
      "midi": 55,
      "hit": false,
      "t": 136930.45267708428,
      "d": 80.6451666666544,
      "v": 98
    },
    {
      "midi": 57,
      "hit": false,
      "t": 136930.45267708428,
      "d": 85.68548958332394,
      "v": 98
    },
    {
      "midi": 61,
      "hit": false,
      "t": 136930.45267708428,
      "d": 100.80645833333256,
      "v": 98
    },
    {
      "midi": 64,
      "hit": false,
      "t": 136930.45267708428,
      "d": 100.80645833333256,
      "v": 98
    },
    {
      "midi": 55,
      "hit": false,
      "t": 136950.61396875003,
      "d": 80.6451666666544,
      "v": 92
    },
    {
      "midi": 61,
      "hit": false,
      "t": 136950.61396875003,
      "d": 85.68548958332394,
      "v": 86
    },
    {
      "midi": 55,
      "hit": false,
      "t": 137424.4043229176,
      "d": 554.4355208333291,
      "v": 102
    },
    {
      "midi": 57,
      "hit": false,
      "t": 137424.4043229176,
      "d": 559.4758437499986,
      "v": 102
    },
    {
      "midi": 64,
      "hit": false,
      "t": 137424.4043229176,
      "d": 579.6371354166768,
      "v": 102
    },
    {
      "midi": 61,
      "hit": false,
      "t": 137424.4043229176,
      "d": 584.6774583333463,
      "v": 102
    },
    {
      "midi": 61,
      "hit": false,
      "t": 137449.60593750002,
      "d": 635.0806875000126,
      "v": 92
    },
    {
      "midi": 55,
      "hit": false,
      "t": 137449.60593750002,
      "d": 650.2016562500212,
      "v": 89
    },
    {
      "midi": 55,
      "hit": false,
      "t": 138155.25114583428,
      "d": 90.72581249999348,
      "v": 93
    },
    {
      "midi": 57,
      "hit": false,
      "t": 138155.25114583428,
      "d": 90.72581249999348,
      "v": 92
    },
    {
      "midi": 61,
      "hit": false,
      "t": 138155.25114583428,
      "d": 105.8467812500021,
      "v": 92
    },
    {
      "midi": 64,
      "hit": false,
      "t": 138155.25114583428,
      "d": 105.8467812500021,
      "v": 92
    },
    {
      "midi": 61,
      "hit": false,
      "t": 138175.41243750005,
      "d": 483.87100000001374,
      "v": 96
    },
    {
      "midi": 55,
      "hit": false,
      "t": 138180.45276041672,
      "d": 509.0726145833323,
      "v": 86
    },
    {
      "midi": 61,
      "hit": false,
      "t": 138860.8963541676,
      "d": 105.8467812500021,
      "v": 103
    },
    {
      "midi": 64,
      "hit": false,
      "t": 138860.8963541676,
      "d": 110.88710416667163,
      "v": 102
    },
    {
      "midi": 55,
      "hit": false,
      "t": 138865.93667708428,
      "d": 90.72581249999348,
      "v": 103
    },
    {
      "midi": 57,
      "hit": false,
      "t": 138865.93667708428,
      "d": 95.76613541666302,
      "v": 103
    },
    {
      "midi": 55,
      "hit": false,
      "t": 138876.0173229167,
      "d": 80.6451666666544,
      "v": 96
    },
    {
      "midi": 61,
      "hit": false,
      "t": 138876.0173229167,
      "d": 90.72581249999348,
      "v": 92
    },
    {
      "midi": 61,
      "hit": false,
      "t": 139349.8076770843,
      "d": 115.92742708334117,
      "v": 103
    },
    {
      "midi": 57,
      "hit": false,
      "t": 139354.84800000096,
      "d": 95.76613541666302,
      "v": 103
    },
    {
      "midi": 55,
      "hit": false,
      "t": 139354.84800000096,
      "d": 100.80645833333256,
      "v": 103
    },
    {
      "midi": 64,
      "hit": false,
      "t": 139354.84800000096,
      "d": 110.88710416667163,
      "v": 103
    },
    {
      "midi": 55,
      "hit": false,
      "t": 139369.96896875004,
      "d": 141.12904166665976,
      "v": 92
    },
    {
      "midi": 61,
      "hit": false,
      "t": 139369.96896875004,
      "d": 141.12904166665976,
      "v": 92
    },
    {
      "midi": 61,
      "hit": false,
      "t": 140075.6141770843,
      "d": 201.61291666666511,
      "v": 91
    },
    {
      "midi": 64,
      "hit": false,
      "t": 140080.65450000096,
      "d": 131.04839583332068,
      "v": 90
    },
    {
      "midi": 55,
      "hit": false,
      "t": 140080.65450000096,
      "d": 201.61291666666511,
      "v": 91
    },
    {
      "midi": 57,
      "hit": false,
      "t": 140080.65450000096,
      "d": 206.65323958333465,
      "v": 91
    },
    {
      "midi": 61,
      "hit": false,
      "t": 140105.85611458335,
      "d": 529.2339062500105,
      "v": 86
    },
    {
      "midi": 55,
      "hit": false,
      "t": 140110.89643750002,
      "d": 529.2339062500105,
      "v": 92
    },
    {
      "midi": 55,
      "hit": false,
      "t": 140796.38035416763,
      "d": 120.96775000001071,
      "v": 98
    },
    {
      "midi": 57,
      "hit": false,
      "t": 140796.38035416763,
      "d": 120.96775000001071,
      "v": 98
    },
    {
      "midi": 61,
      "hit": false,
      "t": 140796.38035416763,
      "d": 120.96775000001071,
      "v": 98
    },
    {
      "midi": 64,
      "hit": false,
      "t": 140796.38035416763,
      "d": 126.00807291668025,
      "v": 98
    },
    {
      "midi": 61,
      "hit": false,
      "t": 140811.5013229167,
      "d": 186.4919479166565,
      "v": 92
    },
    {
      "midi": 55,
      "hit": false,
      "t": 140816.54164583338,
      "d": 191.53227083332604,
      "v": 89
    },
    {
      "midi": 61,
      "hit": false,
      "t": 141280.25135416765,
      "d": 463.7097083333356,
      "v": 102
    },
    {
      "midi": 64,
      "hit": false,
      "t": 141285.29167708431,
      "d": 453.6290624999965,
      "v": 102
    },
    {
      "midi": 55,
      "hit": false,
      "t": 141285.29167708431,
      "d": 458.66938541666605,
      "v": 102
    },
    {
      "midi": 57,
      "hit": false,
      "t": 141285.29167708431,
      "d": 458.66938541666605,
      "v": 102
    },
    {
      "midi": 61,
      "hit": false,
      "t": 141295.3723229167,
      "d": 383.0645416666812,
      "v": 96
    },
    {
      "midi": 55,
      "hit": false,
      "t": 141295.3723229167,
      "d": 398.1855104166898,
      "v": 96
    },
    {
      "midi": 61,
      "hit": false,
      "t": 142011.09817708432,
      "d": 141.12904166668886,
      "v": 93
    },
    {
      "midi": 55,
      "hit": false,
      "t": 142016.13850000006,
      "d": 433.46777083334746,
      "v": 96
    },
    {
      "midi": 61,
      "hit": false,
      "t": 142021.17882291673,
      "d": 418.34680208333884,
      "v": 92
    },
    {
      "midi": 55,
      "hit": false,
      "t": 142021.17882291766,
      "d": 126.00807291668025,
      "v": 93
    },
    {
      "midi": 57,
      "hit": false,
      "t": 142021.17882291766,
      "d": 126.00807291668025,
      "v": 93
    },
    {
      "midi": 64,
      "hit": false,
      "t": 142021.17882291766,
      "d": 131.0483958333498,
      "v": 92
    },
    {
      "midi": 55,
      "hit": false,
      "t": 142731.86435416673,
      "d": 105.8467812500021,
      "v": 92
    },
    {
      "midi": 61,
      "hit": false,
      "t": 142731.8643541677,
      "d": 115.92742708334117,
      "v": 103
    },
    {
      "midi": 61,
      "hit": false,
      "t": 142736.9046770834,
      "d": 131.04839583332068,
      "v": 92
    },
    {
      "midi": 55,
      "hit": false,
      "t": 142736.90467708436,
      "d": 100.80645833333256,
      "v": 103
    },
    {
      "midi": 57,
      "hit": false,
      "t": 142736.90467708436,
      "d": 100.80645833333256,
      "v": 103
    },
    {
      "midi": 64,
      "hit": false,
      "t": 142736.90467708436,
      "d": 115.92742708334117,
      "v": 103
    },
    {
      "midi": 54,
      "hit": false,
      "t": 143215.7353541677,
      "d": 509.0726145833323,
      "v": 103
    },
    {
      "midi": 60,
      "hit": false,
      "t": 143220.77567708437,
      "d": 488.91132291665417,
      "v": 103
    },
    {
      "midi": 64,
      "hit": false,
      "t": 143220.77567708437,
      "d": 488.91132291665417,
      "v": 103
    },
    {
      "midi": 57,
      "hit": false,
      "t": 143220.77567708437,
      "d": 514.1129375000019,
      "v": 103
    },
    {
      "midi": 60,
      "hit": false,
      "t": 143251.0176145834,
      "d": 614.9193958333344,
      "v": 92
    },
    {
      "midi": 54,
      "hit": false,
      "t": 143256.05793750007,
      "d": 609.8790729166649,
      "v": 96
    },
    {
      "midi": 54,
      "hit": false,
      "t": 143946.58217708438,
      "d": 115.92742708334117,
      "v": 91
    },
    {
      "midi": 57,
      "hit": false,
      "t": 143946.58217708438,
      "d": 115.92742708334117,
      "v": 91
    },
    {
      "midi": 60,
      "hit": false,
      "t": 143946.58217708438,
      "d": 115.92742708334117,
      "v": 91
    },
    {
      "midi": 64,
      "hit": false,
      "t": 143951.62250000105,
      "d": 110.88710416667163,
      "v": 91
    },
    {
      "midi": 60,
      "hit": false,
      "t": 143956.66282291673,
      "d": 75.60484375001397,
      "v": 89
    },
    {
      "midi": 54,
      "hit": false,
      "t": 143956.66282291673,
      "d": 80.64516666668351,
      "v": 92
    },
    {
      "midi": 60,
      "hit": false,
      "t": 144672.38867708438,
      "d": 105.8467812500021,
      "v": 98
    },
    {
      "midi": 64,
      "hit": false,
      "t": 144672.38867708438,
      "d": 115.92742708334117,
      "v": 98
    },
    {
      "midi": 54,
      "hit": false,
      "t": 144672.38867708438,
      "d": 126.00807291668025,
      "v": 98
    },
    {
      "midi": 57,
      "hit": false,
      "t": 144672.38867708438,
      "d": 126.00807291668025,
      "v": 98
    },
    {
      "midi": 54,
      "hit": false,
      "t": 144682.46932291673,
      "d": 85.68548958332394,
      "v": 92
    },
    {
      "midi": 60,
      "hit": false,
      "t": 144687.5096458334,
      "d": 100.80645833333256,
      "v": 86
    },
    {
      "midi": 54,
      "hit": false,
      "t": 145156.2596770844,
      "d": 579.6371354166768,
      "v": 102
    },
    {
      "midi": 60,
      "hit": false,
      "t": 145161.30000000107,
      "d": 579.6371354166768,
      "v": 102
    },
    {
      "midi": 64,
      "hit": false,
      "t": 145166.34032291773,
      "d": 584.6774583333463,
      "v": 102
    },
    {
      "midi": 57,
      "hit": false,
      "t": 145166.34032291773,
      "d": 589.7177812500158,
      "v": 102
    },
    {
      "midi": 60,
      "hit": false,
      "t": 145186.5016145834,
      "d": 589.7177812499867,
      "v": 89
    },
    {
      "midi": 54,
      "hit": false,
      "t": 145186.5016145834,
      "d": 594.7581041666563,
      "v": 92
    },
    {
      "midi": 54,
      "hit": false,
      "t": 145887.10650000005,
      "d": 85.68548958332394,
      "v": 92
    },
    {
      "midi": 60,
      "hit": false,
      "t": 145887.10650000005,
      "d": 100.80645833333256,
      "v": 89
    },
    {
      "midi": 54,
      "hit": false,
      "t": 145897.1871458344,
      "d": 110.88710416667163,
      "v": 93
    },
    {
      "midi": 60,
      "hit": false,
      "t": 145897.1871458344,
      "d": 110.88710416667163,
      "v": 93
    },
    {
      "midi": 57,
      "hit": false,
      "t": 145902.22746875108,
      "d": 115.92742708334117,
      "v": 93
    },
    {
      "midi": 64,
      "hit": false,
      "t": 145902.22746875108,
      "d": 115.92742708334117,
      "v": 92
    },
    {
      "midi": 54,
      "hit": false,
      "t": 146607.8726770844,
      "d": 126.00807291668025,
      "v": 103
    },
    {
      "midi": 57,
      "hit": false,
      "t": 146607.8726770844,
      "d": 126.00807291668025,
      "v": 102
    },
    {
      "midi": 60,
      "hit": false,
      "t": 146607.8726770844,
      "d": 131.0483958333498,
      "v": 103
    },
    {
      "midi": 64,
      "hit": false,
      "t": 146607.8726770844,
      "d": 141.12904166668886,
      "v": 102
    },
    {
      "midi": 54,
      "hit": false,
      "t": 146628.03396875004,
      "d": 70.56452083334443,
      "v": 92
    },
    {
      "midi": 60,
      "hit": false,
      "t": 146628.03396875004,
      "d": 90.72581250002258,
      "v": 86
    },
    {
      "midi": 64,
      "hit": false,
      "t": 147091.74367708442,
      "d": 438.508093750017,
      "v": 103
    },
    {
      "midi": 54,
      "hit": false,
      "t": 147091.74367708442,
      "d": 453.6290625000256,
      "v": 103
    },
    {
      "midi": 60,
      "hit": false,
      "t": 147091.74367708442,
      "d": 453.6290625000256,
      "v": 103
    },
    {
      "midi": 57,
      "hit": false,
      "t": 147096.7840000011,
      "d": 448.5887395833561,
      "v": 103
    },
    {
      "midi": 54,
      "hit": false,
      "t": 147121.9856145834,
      "d": 574.5968125000072,
      "v": 96
    },
    {
      "midi": 60,
      "hit": false,
      "t": 147127.02593750006,
      "d": 579.6371354166768,
      "v": 92
    },
    {
      "midi": 64,
      "hit": false,
      "t": 147827.63082291777,
      "d": 196.57259374999558,
      "v": 91
    },
    {
      "midi": 57,
      "hit": false,
      "t": 147827.63082291777,
      "d": 201.61291666666511,
      "v": 91
    },
    {
      "midi": 60,
      "hit": false,
      "t": 147827.63082291777,
      "d": 201.61291666666511,
      "v": 91
    },
    {
      "midi": 54,
      "hit": false,
      "t": 147827.63082291777,
      "d": 206.65323958333465,
      "v": 91
    },
    {
      "midi": 54,
      "hit": false,
      "t": 147832.67114583342,
      "d": 80.64516666668351,
      "v": 89
    },
    {
      "midi": 60,
      "hit": false,
      "t": 147837.7114687501,
      "d": 80.64516666668351,
      "v": 89
    },
    {
      "midi": 60,
      "hit": false,
      "t": 148543.35667708443,
      "d": 146.1693645833293,
      "v": 98
    },
    {
      "midi": 54,
      "hit": false,
      "t": 148543.35667708443,
      "d": 181.45162500001607,
      "v": 98
    },
    {
      "midi": 57,
      "hit": false,
      "t": 148548.3970000011,
      "d": 176.41130208334653,
      "v": 98
    },
    {
      "midi": 64,
      "hit": false,
      "t": 148553.43732291777,
      "d": 146.1693645833293,
      "v": 98
    },
    {
      "midi": 54,
      "hit": false,
      "t": 148558.47764583342,
      "d": 90.72581249999348,
      "v": 92
    },
    {
      "midi": 60,
      "hit": false,
      "t": 148563.5179687501,
      "d": 110.88710416667163,
      "v": 92
    },
    {
      "midi": 60,
      "hit": false,
      "t": 149027.22767708343,
      "d": 635.0806875000126,
      "v": 89
    },
    {
      "midi": 54,
      "hit": false,
      "t": 149032.2680000001,
      "d": 625.0000416666735,
      "v": 96
    },
    {
      "midi": 60,
      "hit": false,
      "t": 149037.3083229178,
      "d": 156.25001041666837,
      "v": 102
    },
    {
      "midi": 54,
      "hit": false,
      "t": 149037.3083229178,
      "d": 166.33065625000745,
      "v": 102
    },
    {
      "midi": 57,
      "hit": false,
      "t": 149037.3083229178,
      "d": 181.45162500001607,
      "v": 102
    },
    {
      "midi": 64,
      "hit": false,
      "t": 149042.34864583446,
      "d": 151.20968749999884,
      "v": 102
    },
    {
      "midi": 54,
      "hit": false,
      "t": 149763.11482291677,
      "d": 100.80645833333256,
      "v": 96
    },
    {
      "midi": 60,
      "hit": false,
      "t": 149763.11482291677,
      "d": 120.96775000001071,
      "v": 89
    },
    {
      "midi": 54,
      "hit": false,
      "t": 149763.1148229178,
      "d": 252.0161458333314,
      "v": 93
    },
    {
      "midi": 60,
      "hit": false,
      "t": 149763.1148229178,
      "d": 252.0161458333314,
      "v": 93
    },
    {
      "midi": 57,
      "hit": false,
      "t": 149763.1148229178,
      "d": 277.2177604166791,
      "v": 93
    },
    {
      "midi": 64,
      "hit": false,
      "t": 149763.1148229178,
      "d": 282.2580833333486,
      "v": 92
    },
    {
      "midi": 54,
      "hit": false,
      "t": 150473.80035416677,
      "d": 90.72581249999348,
      "v": 92
    },
    {
      "midi": 60,
      "hit": false,
      "t": 150478.84067708344,
      "d": 115.92742708331207,
      "v": 89
    },
    {
      "midi": 60,
      "hit": false,
      "t": 150478.8406770845,
      "d": 141.12904166665976,
      "v": 101
    },
    {
      "midi": 64,
      "hit": false,
      "t": 150478.8406770845,
      "d": 141.12904166665976,
      "v": 101
    },
    {
      "midi": 54,
      "hit": false,
      "t": 150478.8406770845,
      "d": 151.20968749999884,
      "v": 101
    },
    {
      "midi": 57,
      "hit": false,
      "t": 150478.8406770845,
      "d": 156.25001041666837,
      "v": 101
    },
    {
      "midi": 53,
      "hit": false,
      "t": 150962.7116770845,
      "d": 453.6290624999965,
      "v": 103
    },
    {
      "midi": 62,
      "hit": false,
      "t": 150962.7116770845,
      "d": 453.6290624999965,
      "v": 102
    },
    {
      "midi": 59,
      "hit": false,
      "t": 150962.7116770845,
      "d": 458.66938541666605,
      "v": 103
    },
    {
      "midi": 55,
      "hit": false,
      "t": 150962.7116770845,
      "d": 478.8306770833442,
      "v": 103
    },
    {
      "midi": 59,
      "hit": false,
      "t": 150987.91329166674,
      "d": 630.040364583343,
      "v": 96
    },
    {
      "midi": 53,
      "hit": false,
      "t": 150992.9536145834,
      "d": 614.9193958333344,
      "v": 89
    },
    {
      "midi": 62,
      "hit": false,
      "t": 151683.47785416784,
      "d": 105.8467812500021,
      "v": 91
    },
    {
      "midi": 53,
      "hit": false,
      "t": 151683.47785416784,
      "d": 110.88710416667163,
      "v": 91
    },
    {
      "midi": 55,
      "hit": false,
      "t": 151683.47785416784,
      "d": 110.88710416667163,
      "v": 91
    },
    {
      "midi": 59,
      "hit": false,
      "t": 151683.47785416784,
      "d": 115.92742708334117,
      "v": 91
    },
    {
      "midi": 53,
      "hit": false,
      "t": 151688.51817708343,
      "d": 95.76613541669212,
      "v": 89
    },
    {
      "midi": 59,
      "hit": false,
      "t": 151693.5585000001,
      "d": 70.56452083334443,
      "v": 92
    },
    {
      "midi": 62,
      "hit": false,
      "t": 152409.28435416784,
      "d": 131.04839583332068,
      "v": 98
    },
    {
      "midi": 53,
      "hit": false,
      "t": 152409.28435416784,
      "d": 141.12904166665976,
      "v": 98
    },
    {
      "midi": 55,
      "hit": false,
      "t": 152409.28435416784,
      "d": 141.12904166665976,
      "v": 98
    },
    {
      "midi": 59,
      "hit": false,
      "t": 152409.28435416784,
      "d": 146.1693645833293,
      "v": 98
    },
    {
      "midi": 53,
      "hit": false,
      "t": 152419.36500000014,
      "d": 105.8467812500021,
      "v": 89
    },
    {
      "midi": 59,
      "hit": false,
      "t": 152419.36500000014,
      "d": 110.88710416667163,
      "v": 89
    },
    {
      "midi": 55,
      "hit": false,
      "t": 152893.15535416783,
      "d": 458.66938541666605,
      "v": 102
    },
    {
      "midi": 53,
      "hit": false,
      "t": 152898.1956770845,
      "d": 453.6290624999965,
      "v": 102
    },
    {
      "midi": 59,
      "hit": false,
      "t": 152898.1956770845,
      "d": 453.6290624999965,
      "v": 102
    },
    {
      "midi": 62,
      "hit": false,
      "t": 152898.1956770845,
      "d": 453.6290624999965,
      "v": 102
    },
    {
      "midi": 53,
      "hit": false,
      "t": 152913.3166458335,
      "d": 589.7177812499867,
      "v": 89
    },
    {
      "midi": 59,
      "hit": false,
      "t": 152913.3166458335,
      "d": 599.7984270833258,
      "v": 89
    },
    {
      "midi": 55,
      "hit": false,
      "t": 153618.96185416784,
      "d": 115.92742708334117,
      "v": 93
    },
    {
      "midi": 53,
      "hit": false,
      "t": 153618.96185416784,
      "d": 120.96775000001071,
      "v": 92
    },
    {
      "midi": 59,
      "hit": false,
      "t": 153618.96185416784,
      "d": 120.96775000001071,
      "v": 92
    },
    {
      "midi": 62,
      "hit": false,
      "t": 153624.0021770845,
      "d": 126.00807291668025,
      "v": 92
    },
    {
      "midi": 53,
      "hit": false,
      "t": 153654.24411458347,
      "d": 504.0322916666628,
      "v": 89
    },
    {
      "midi": 59,
      "hit": false,
      "t": 153664.3247604168,
      "d": 534.2742291666509,
      "v": 89
    },
    {
      "midi": 53,
      "hit": false,
      "t": 154349.80867708346,
      "d": 100.80645833333256,
      "v": 83
    },
    {
      "midi": 62,
      "hit": false,
      "t": 154349.8086770845,
      "d": 115.92742708334117,
      "v": 103
    },
    {
      "midi": 55,
      "hit": false,
      "t": 154349.8086770845,
      "d": 126.00807291668025,
      "v": 103
    },
    {
      "midi": 53,
      "hit": false,
      "t": 154349.8086770845,
      "d": 131.0483958333498,
      "v": 103
    },
    {
      "midi": 59,
      "hit": false,
      "t": 154349.8086770845,
      "d": 131.0483958333498,
      "v": 103
    },
    {
      "midi": 59,
      "hit": false,
      "t": 154354.84900000013,
      "d": 120.96775000001071,
      "v": 86
    },
    {
      "midi": 62,
      "hit": false,
      "t": 154833.67967708452,
      "d": 519.1532604166714,
      "v": 103
    },
    {
      "midi": 55,
      "hit": false,
      "t": 154833.67967708452,
      "d": 524.1935833333409,
      "v": 103
    },
    {
      "midi": 59,
      "hit": false,
      "t": 154833.67967708452,
      "d": 524.1935833333409,
      "v": 103
    },
    {
      "midi": 53,
      "hit": false,
      "t": 154833.67967708452,
      "d": 529.2339062500105,
      "v": 103
    },
    {
      "midi": 53,
      "hit": false,
      "t": 154879.04258333347,
      "d": 534.27422916668,
      "v": 96
    },
    {
      "midi": 59,
      "hit": false,
      "t": 154879.04258333347,
      "d": 564.5161666666681,
      "v": 86
    },
    {
      "midi": 53,
      "hit": false,
      "t": 155549.40553125014,
      "d": 100.80645833333256,
      "v": 86
    },
    {
      "midi": 59,
      "hit": false,
      "t": 155549.40553125014,
      "d": 115.92742708334117,
      "v": 73
    },
    {
      "midi": 62,
      "hit": false,
      "t": 155554.44585416786,
      "d": 110.88710416667163,
      "v": 91
    },
    {
      "midi": 53,
      "hit": false,
      "t": 155554.44585416786,
      "d": 120.96775000001071,
      "v": 91
    },
    {
      "midi": 55,
      "hit": false,
      "t": 155554.44585416786,
      "d": 120.96775000001071,
      "v": 91
    },
    {
      "midi": 59,
      "hit": false,
      "t": 155554.44585416786,
      "d": 126.00807291668025,
      "v": 91
    },
    {
      "midi": 53,
      "hit": false,
      "t": 156280.25235416682,
      "d": 105.8467812500021,
      "v": 86
    },
    {
      "midi": 59,
      "hit": false,
      "t": 156280.25235416682,
      "d": 110.88710416667163,
      "v": 83
    },
    {
      "midi": 59,
      "hit": false,
      "t": 156280.25235416787,
      "d": 100.80645833333256,
      "v": 98
    },
    {
      "midi": 55,
      "hit": false,
      "t": 156280.25235416787,
      "d": 110.88710416667163,
      "v": 98
    },
    {
      "midi": 62,
      "hit": false,
      "t": 156280.25235416787,
      "d": 115.92742708334117,
      "v": 98
    },
    {
      "midi": 53,
      "hit": false,
      "t": 156280.25235416787,
      "d": 120.96775000001071,
      "v": 98
    },
    {
      "midi": 59,
      "hit": false,
      "t": 156769.16367708455,
      "d": 105.8467812500021,
      "v": 90
    },
    {
      "midi": 53,
      "hit": false,
      "t": 156769.16367708455,
      "d": 115.92742708334117,
      "v": 89
    },
    {
      "midi": 55,
      "hit": false,
      "t": 156769.16367708455,
      "d": 115.92742708334117,
      "v": 88
    },
    {
      "midi": 62,
      "hit": false,
      "t": 156769.16367708455,
      "d": 120.96775000001071,
      "v": 89
    },
    {
      "midi": 53,
      "hit": false,
      "t": 156779.2443229168,
      "d": 609.8790729166649,
      "v": 86
    },
    {
      "midi": 59,
      "hit": false,
      "t": 156784.28464583348,
      "d": 609.8790729166649,
      "v": 86
    },
    {
      "midi": 53,
      "hit": false,
      "t": 157494.97017708456,
      "d": 95.76613541666302,
      "v": 81
    },
    {
      "midi": 59,
      "hit": false,
      "t": 157494.97017708456,
      "d": 95.76613541666302,
      "v": 79
    },
    {
      "midi": 55,
      "hit": false,
      "t": 157494.97017708456,
      "d": 100.80645833333256,
      "v": 81
    },
    {
      "midi": 62,
      "hit": false,
      "t": 157494.97017708456,
      "d": 100.80645833333256,
      "v": 80
    },
    {
      "midi": 53,
      "hit": false,
      "t": 157515.13146875016,
      "d": 80.64516666668351,
      "v": 96
    },
    {
      "midi": 59,
      "hit": false,
      "t": 157520.17179166683,
      "d": 65.5241979166749,
      "v": 92
    },
    {
      "midi": 55,
      "hit": false,
      "t": 158215.7363541679,
      "d": 95.76613541666302,
      "v": 85
    },
    {
      "midi": 62,
      "hit": false,
      "t": 158215.7363541679,
      "d": 100.80645833333256,
      "v": 84
    },
    {
      "midi": 53,
      "hit": false,
      "t": 158215.7363541679,
      "d": 105.8467812500021,
      "v": 86
    },
    {
      "midi": 59,
      "hit": false,
      "t": 158215.7363541679,
      "d": 105.8467812500021,
      "v": 84
    },
    {
      "midi": 53,
      "hit": false,
      "t": 158251.0186145835,
      "d": 95.76613541666302,
      "v": 89
    },
    {
      "midi": 59,
      "hit": false,
      "t": 158251.0186145835,
      "d": 95.76613541666302,
      "v": 86
    },
    {
      "midi": 60,
      "hit": false,
      "t": 158709.68800000122,
      "d": 614.9193958333344,
      "v": 104
    },
    {
      "midi": 65,
      "hit": false,
      "t": 158709.68800000122,
      "d": 619.959718750004,
      "v": 104
    },
    {
      "midi": 70,
      "hit": false,
      "t": 158709.68800000122,
      "d": 625.0000416666735,
      "v": 104
    },
    {
      "midi": 67,
      "hit": false,
      "t": 158709.68800000122,
      "d": 630.040364583343,
      "v": 104
    },
    {
      "midi": 53,
      "hit": false,
      "t": 158739.92993750016,
      "d": 1759.0726979166793,
      "v": 99
    },
    {
      "midi": 60,
      "hit": false,
      "t": 158744.97026041683,
      "d": 1759.0726979166793,
      "v": 99
    },
    {
      "midi": 55,
      "hit": false,
      "t": 158750.0105833335,
      "d": 1759.0726979166793,
      "v": 99
    },
    {
      "midi": 60,
      "hit": false,
      "t": 159430.45417708455,
      "d": 161.2903333333379,
      "v": 93
    },
    {
      "midi": 65,
      "hit": false,
      "t": 159435.49450000122,
      "d": 151.20968749999884,
      "v": 93
    },
    {
      "midi": 70,
      "hit": false,
      "t": 159440.5348229179,
      "d": 151.20968749999884,
      "v": 92
    },
    {
      "midi": 67,
      "hit": false,
      "t": 159440.5348229179,
      "d": 156.25001041666837,
      "v": 93
    },
    {
      "midi": 65,
      "hit": false,
      "t": 160156.26067708456,
      "d": 126.00807291668025,
      "v": 99
    },
    {
      "midi": 70,
      "hit": false,
      "t": 160156.26067708456,
      "d": 126.00807291668025,
      "v": 99
    },
    {
      "midi": 60,
      "hit": false,
      "t": 160156.26067708456,
      "d": 131.0483958333498,
      "v": 100
    },
    {
      "midi": 67,
      "hit": false,
      "t": 160166.3413229179,
      "d": 146.1693645833584,
      "v": 98
    },
    {
      "midi": 60,
      "hit": false,
      "t": 160640.1316770846,
      "d": 589.7177812500158,
      "v": 103
    },
    {
      "midi": 70,
      "hit": false,
      "t": 160645.17200000127,
      "d": 579.6371354166768,
      "v": 103
    },
    {
      "midi": 65,
      "hit": false,
      "t": 160645.17200000127,
      "d": 584.6774583333463,
      "v": 103
    },
    {
      "midi": 67,
      "hit": false,
      "t": 160645.17200000127,
      "d": 589.7177812500158,
      "v": 103
    },
    {
      "midi": 53,
      "hit": false,
      "t": 160675.41393750018,
      "d": 1678.4275312499958,
      "v": 96
    },
    {
      "midi": 55,
      "hit": false,
      "t": 160675.41393750018,
      "d": 1688.5081770833349,
      "v": 89
    },
    {
      "midi": 60,
      "hit": false,
      "t": 160680.45426041685,
      "d": 1673.3872083333263,
      "v": 96
    },
    {
      "midi": 60,
      "hit": false,
      "t": 161370.97850000128,
      "d": 105.8467812500021,
      "v": 95
    },
    {
      "midi": 67,
      "hit": false,
      "t": 161376.01882291795,
      "d": 100.80645833333256,
      "v": 94
    },
    {
      "midi": 65,
      "hit": false,
      "t": 161376.01882291795,
      "d": 126.00807291668025,
      "v": 94
    },
    {
      "midi": 70,
      "hit": false,
      "t": 161376.01882291795,
      "d": 126.00807291668025,
      "v": 94
    },
    {
      "midi": 60,
      "hit": false,
      "t": 162091.7446770846,
      "d": 146.1693645833293,
      "v": 88
    },
    {
      "midi": 70,
      "hit": false,
      "t": 162091.7446770846,
      "d": 146.1693645833293,
      "v": 89
    },
    {
      "midi": 65,
      "hit": false,
      "t": 162091.7446770846,
      "d": 151.20968749999884,
      "v": 90
    },
    {
      "midi": 67,
      "hit": false,
      "t": 162091.7446770846,
      "d": 151.20968749999884,
      "v": 89
    },
    {
      "midi": 60,
      "hit": false,
      "t": 162575.6156770846,
      "d": 584.6774583333463,
      "v": 104
    },
    {
      "midi": 65,
      "hit": false,
      "t": 162575.6156770846,
      "d": 584.6774583333463,
      "v": 104
    },
    {
      "midi": 67,
      "hit": false,
      "t": 162580.65600000127,
      "d": 589.7177812500158,
      "v": 104
    },
    {
      "midi": 70,
      "hit": false,
      "t": 162580.65600000127,
      "d": 589.7177812500158,
      "v": 103
    },
    {
      "midi": 53,
      "hit": false,
      "t": 162595.77696875017,
      "d": 1673.3872083333554,
      "v": 92
    },
    {
      "midi": 60,
      "hit": false,
      "t": 162600.81729166684,
      "d": 1658.2662395833468,
      "v": 92
    },
    {
      "midi": 55,
      "hit": false,
      "t": 162600.81729166684,
      "d": 1673.3872083333554,
      "v": 92
    },
    {
      "midi": 60,
      "hit": false,
      "t": 163311.50282291794,
      "d": 463.7097083333647,
      "v": 93
    },
    {
      "midi": 65,
      "hit": false,
      "t": 163316.5431458346,
      "d": 433.46777083334746,
      "v": 92
    },
    {
      "midi": 70,
      "hit": false,
      "t": 163316.5431458346,
      "d": 438.508093750017,
      "v": 92
    },
    {
      "midi": 67,
      "hit": false,
      "t": 163316.5431458346,
      "d": 443.54841666668653,
      "v": 93
    },
    {
      "midi": 65,
      "hit": false,
      "t": 164027.22867708464,
      "d": 201.61291666666511,
      "v": 99
    },
    {
      "midi": 67,
      "hit": false,
      "t": 164027.22867708464,
      "d": 201.61291666666511,
      "v": 98
    },
    {
      "midi": 70,
      "hit": false,
      "t": 164027.22867708464,
      "d": 221.77420833334327,
      "v": 99
    },
    {
      "midi": 60,
      "hit": false,
      "t": 164027.22867708464,
      "d": 231.85485416668234,
      "v": 100
    },
    {
      "midi": 67,
      "hit": false,
      "t": 164511.09967708465,
      "d": 539.3145520833205,
      "v": 103
    },
    {
      "midi": 65,
      "hit": false,
      "t": 164511.09967708465,
      "d": 544.35487499999,
      "v": 103
    },
    {
      "midi": 60,
      "hit": false,
      "t": 164511.09967708465,
      "d": 554.4355208333291,
      "v": 103
    },
    {
      "midi": 70,
      "hit": false,
      "t": 164511.09967708465,
      "d": 554.4355208333291,
      "v": 103
    },
    {
      "midi": 53,
      "hit": false,
      "t": 164551.42226041688,
      "d": 1653.2259166666772,
      "v": 89
    },
    {
      "midi": 55,
      "hit": false,
      "t": 164556.46258333354,
      "d": 1638.1049479166686,
      "v": 89
    },
    {
      "midi": 60,
      "hit": false,
      "t": 164556.46258333354,
      "d": 1638.1049479166686,
      "v": 89
    },
    {
      "midi": 65,
      "hit": false,
      "t": 165236.90617708466,
      "d": 564.5161666666681,
      "v": 94
    },
    {
      "midi": 70,
      "hit": false,
      "t": 165236.90617708466,
      "d": 564.5161666666681,
      "v": 94
    },
    {
      "midi": 67,
      "hit": false,
      "t": 165241.94650000133,
      "d": 564.5161666666681,
      "v": 94
    },
    {
      "midi": 65,
      "hit": false,
      "t": 165962.71267708467,
      "d": 252.0161458333314,
      "v": 90
    },
    {
      "midi": 70,
      "hit": false,
      "t": 165962.71267708467,
      "d": 252.0161458333314,
      "v": 90
    },
    {
      "midi": 67,
      "hit": false,
      "t": 165962.71267708467,
      "d": 257.05646875000093,
      "v": 89
    },
    {
      "midi": 53,
      "hit": false,
      "t": 166698.599822918,
      "d": 252.0161458333314,
      "v": 101
    },
    {
      "midi": 60,
      "hit": false,
      "t": 166698.599822918,
      "d": 272.17743750000955,
      "v": 102
    },
    {
      "midi": 57,
      "hit": false,
      "t": 166703.64014583468,
      "d": 262.09679166667047,
      "v": 102
    },
    {
      "midi": 64,
      "hit": false,
      "t": 167172.3901770847,
      "d": 337.70163541668444,
      "v": 102
    },
    {
      "midi": 65,
      "hit": false,
      "t": 167177.43050000136,
      "d": 322.5806666666758,
      "v": 102
    },
    {
      "midi": 72,
      "hit": false,
      "t": 167177.43050000136,
      "d": 322.5806666666758,
      "v": 102
    },
    {
      "midi": 69,
      "hit": false,
      "t": 167177.43050000136,
      "d": 332.6613125000149,
      "v": 102
    },
    {
      "midi": 53,
      "hit": false,
      "t": 167646.18053125136,
      "d": 272.17743750000955,
      "v": 101
    },
    {
      "midi": 57,
      "hit": false,
      "t": 167646.18053125136,
      "d": 272.17743750000955,
      "v": 101
    },
    {
      "midi": 60,
      "hit": false,
      "t": 167651.22085416803,
      "d": 282.2580833333486,
      "v": 102
    },
    {
      "midi": 72,
      "hit": false,
      "t": 168114.93056250137,
      "d": 342.7419583333249,
      "v": 102
    },
    {
      "midi": 65,
      "hit": false,
      "t": 168114.93056250137,
      "d": 347.7822812499944,
      "v": 102
    },
    {
      "midi": 64,
      "hit": false,
      "t": 168119.97088541804,
      "d": 342.7419583333249,
      "v": 102
    },
    {
      "midi": 69,
      "hit": false,
      "t": 168119.97088541804,
      "d": 352.82260416666395,
      "v": 102
    },
    {
      "midi": 53,
      "hit": false,
      "t": 168860.89835416802,
      "d": 423.3871250000084,
      "v": 95
    },
    {
      "midi": 60,
      "hit": false,
      "t": 168860.89835416802,
      "d": 423.3871250000084,
      "v": 94
    },
    {
      "midi": 57,
      "hit": false,
      "t": 168865.9386770847,
      "d": 413.3064791666693,
      "v": 95
    },
    {
      "midi": 59,
      "hit": false,
      "t": 169596.78550000137,
      "d": 257.05646875000093,
      "v": 77
    },
    {
      "midi": 62,
      "hit": false,
      "t": 169601.82582291804,
      "d": 252.0161458333314,
      "v": 79
    },
    {
      "midi": 65,
      "hit": false,
      "t": 169601.82582291804,
      "d": 257.05646875000093,
      "v": 79
    },
    {
      "midi": 55,
      "hit": false,
      "t": 169601.82582291804,
      "d": 262.09679166667047,
      "v": 80
    },
    {
      "midi": 57,
      "hit": false,
      "t": 170060.4952083347,
      "d": 488.9113229166833,
      "v": 84
    },
    {
      "midi": 55,
      "hit": false,
      "t": 170065.53553125137,
      "d": 478.8306770833442,
      "v": 85
    },
    {
      "midi": 60,
      "hit": false,
      "t": 170065.53553125137,
      "d": 478.8306770833442,
      "v": 84
    },
    {
      "midi": 64,
      "hit": false,
      "t": 170065.53553125137,
      "d": 483.87100000001374,
      "v": 84
    },
    {
      "midi": 72,
      "hit": false,
      "t": 170796.38235416805,
      "d": 493.9516458333237,
      "v": 96
    },
    {
      "midi": 67,
      "hit": false,
      "t": 170796.38235416805,
      "d": 504.0322916666628,
      "v": 96
    },
    {
      "midi": 64,
      "hit": false,
      "t": 170801.42267708472,
      "d": 493.9516458333237,
      "v": 97
    },
    {
      "midi": 69,
      "hit": false,
      "t": 170801.42267708472,
      "d": 504.0322916666628,
      "v": 96
    },
    {
      "midi": 64,
      "hit": false,
      "t": 171517.14853125138,
      "d": 221.77420833334327,
      "v": 85
    },
    {
      "midi": 69,
      "hit": false,
      "t": 171517.14853125138,
      "d": 221.77420833334327,
      "v": 85
    },
    {
      "midi": 67,
      "hit": false,
      "t": 171517.14853125138,
      "d": 226.8145312500128,
      "v": 85
    },
    {
      "midi": 71,
      "hit": false,
      "t": 171522.18885416805,
      "d": 216.73388541667373,
      "v": 85
    },
    {
      "midi": 64,
      "hit": false,
      "t": 172021.18082291808,
      "d": 226.8145312500128,
      "v": 85
    },
    {
      "midi": 67,
      "hit": false,
      "t": 172021.18082291808,
      "d": 226.8145312500128,
      "v": 85
    },
    {
      "midi": 69,
      "hit": false,
      "t": 172021.18082291808,
      "d": 226.8145312500128,
      "v": 86
    },
    {
      "midi": 72,
      "hit": false,
      "t": 172021.18082291808,
      "d": 236.89517708335188,
      "v": 86
    },
    {
      "midi": 67,
      "hit": false,
      "t": 172500.01150000142,
      "d": 443.54841666668653,
      "v": 96
    },
    {
      "midi": 72,
      "hit": false,
      "t": 172500.01150000142,
      "d": 453.6290625000256,
      "v": 96
    },
    {
      "midi": 64,
      "hit": false,
      "t": 172505.0518229181,
      "d": 423.3871250000084,
      "v": 97
    },
    {
      "midi": 69,
      "hit": false,
      "t": 172505.0518229181,
      "d": 428.4274479166779,
      "v": 96
    },
    {
      "midi": 67,
      "hit": false,
      "t": 172963.72120833478,
      "d": 388.1048645833216,
      "v": 87
    },
    {
      "midi": 64,
      "hit": false,
      "t": 172963.72120833478,
      "d": 398.1855104166607,
      "v": 87
    },
    {
      "midi": 60,
      "hit": false,
      "t": 172963.72120833478,
      "d": 428.4274479166488,
      "v": 87
    },
    {
      "midi": 60,
      "hit": false,
      "t": 173684.4873854181,
      "d": 272.17743750000955,
      "v": 87
    },
    {
      "midi": 57,
      "hit": false,
      "t": 173689.52770833476,
      "d": 282.2580833333486,
      "v": 87
    },
    {
      "midi": 64,
      "hit": false,
      "t": 173694.56803125143,
      "d": 282.2580833333486,
      "v": 86
    },
    {
      "midi": 67,
      "hit": false,
      "t": 173699.6083541681,
      "d": 277.2177604166791,
      "v": 86
    },
    {
      "midi": 52,
      "hit": false,
      "t": 174445.57614583478,
      "d": 297.37905208332813,
      "v": 99
    },
    {
      "midi": 53,
      "hit": false,
      "t": 174445.57614583478,
      "d": 307.4596979166672,
      "v": 100
    },
    {
      "midi": 57,
      "hit": false,
      "t": 174445.57614583478,
      "d": 307.4596979166672,
      "v": 98
    },
    {
      "midi": 60,
      "hit": false,
      "t": 174445.57614583478,
      "d": 327.62098958334536,
      "v": 101
    },
    {
      "midi": 72,
      "hit": false,
      "t": 174914.3261770848,
      "d": 735.8871458333451,
      "v": 105
    },
    {
      "midi": 64,
      "hit": false,
      "t": 174914.3261770848,
      "d": 740.9274687500147,
      "v": 104
    },
    {
      "midi": 65,
      "hit": false,
      "t": 174919.36650000146,
      "d": 725.806500000006,
      "v": 104
    },
    {
      "midi": 69,
      "hit": false,
      "t": 174919.36650000146,
      "d": 735.8871458333451,
      "v": 102
    },
    {
      "midi": 60,
      "hit": false,
      "t": 175882.06817708482,
      "d": 423.3871250000084,
      "v": 89
    },
    {
      "midi": 69,
      "hit": false,
      "t": 175882.06817708482,
      "d": 423.3871250000084,
      "v": 89
    },
    {
      "midi": 64,
      "hit": false,
      "t": 175882.06817708482,
      "d": 428.4274479166779,
      "v": 88
    },
    {
      "midi": 65,
      "hit": false,
      "t": 175882.06817708482,
      "d": 453.6290625000256,
      "v": 90
    },
    {
      "midi": 52,
      "hit": false,
      "t": 176370.9795000015,
      "d": 761.0887604166637,
      "v": 100
    },
    {
      "midi": 53,
      "hit": false,
      "t": 176370.9795000015,
      "d": 761.0887604166637,
      "v": 101
    },
    {
      "midi": 57,
      "hit": false,
      "t": 176370.9795000015,
      "d": 771.1694062500028,
      "v": 101
    },
    {
      "midi": 60,
      "hit": false,
      "t": 176370.9795000015,
      "d": 776.2097291666723,
      "v": 101
    },
    {
      "midi": 59,
      "hit": false,
      "t": 177338.7215000015,
      "d": 257.05646875000093,
      "v": 77
    },
    {
      "midi": 62,
      "hit": false,
      "t": 177343.76182291817,
      "d": 252.0161458333314,
      "v": 79
    },
    {
      "midi": 65,
      "hit": false,
      "t": 177343.76182291817,
      "d": 257.05646875000093,
      "v": 79
    },
    {
      "midi": 55,
      "hit": false,
      "t": 177343.76182291817,
      "d": 262.09679166667047,
      "v": 80
    },
    {
      "midi": 57,
      "hit": false,
      "t": 177802.43120833483,
      "d": 488.9113229166833,
      "v": 84
    },
    {
      "midi": 55,
      "hit": false,
      "t": 177807.4715312515,
      "d": 478.8306770833442,
      "v": 85
    },
    {
      "midi": 60,
      "hit": false,
      "t": 177807.4715312515,
      "d": 478.8306770833442,
      "v": 84
    },
    {
      "midi": 64,
      "hit": false,
      "t": 177807.4715312515,
      "d": 483.87100000001374,
      "v": 84
    },
    {
      "midi": 72,
      "hit": false,
      "t": 178538.31835416818,
      "d": 493.9516458333237,
      "v": 96
    },
    {
      "midi": 67,
      "hit": false,
      "t": 178538.31835416818,
      "d": 504.0322916666628,
      "v": 96
    },
    {
      "midi": 64,
      "hit": false,
      "t": 178543.35867708485,
      "d": 493.9516458333237,
      "v": 97
    },
    {
      "midi": 69,
      "hit": false,
      "t": 178543.35867708485,
      "d": 504.0322916666628,
      "v": 96
    },
    {
      "midi": 64,
      "hit": false,
      "t": 179259.08453125152,
      "d": 221.77420833334327,
      "v": 85
    },
    {
      "midi": 69,
      "hit": false,
      "t": 179259.08453125152,
      "d": 221.77420833334327,
      "v": 85
    },
    {
      "midi": 67,
      "hit": false,
      "t": 179259.08453125152,
      "d": 226.8145312500128,
      "v": 85
    },
    {
      "midi": 71,
      "hit": false,
      "t": 179264.12485416819,
      "d": 216.73388541667373,
      "v": 85
    },
    {
      "midi": 64,
      "hit": false,
      "t": 179763.1168229182,
      "d": 226.8145312500128,
      "v": 85
    },
    {
      "midi": 67,
      "hit": false,
      "t": 179763.1168229182,
      "d": 226.8145312500128,
      "v": 85
    },
    {
      "midi": 69,
      "hit": false,
      "t": 179763.1168229182,
      "d": 226.8145312500128,
      "v": 86
    },
    {
      "midi": 72,
      "hit": false,
      "t": 179763.1168229182,
      "d": 236.89517708335188,
      "v": 86
    },
    {
      "midi": 67,
      "hit": false,
      "t": 180241.94750000155,
      "d": 443.54841666668653,
      "v": 96
    },
    {
      "midi": 72,
      "hit": false,
      "t": 180241.94750000155,
      "d": 453.6290625000256,
      "v": 96
    },
    {
      "midi": 64,
      "hit": false,
      "t": 180246.98782291822,
      "d": 423.3871250000084,
      "v": 97
    },
    {
      "midi": 69,
      "hit": false,
      "t": 180246.98782291822,
      "d": 428.4274479166779,
      "v": 96
    },
    {
      "midi": 67,
      "hit": false,
      "t": 180705.65720833492,
      "d": 630.040364583343,
      "v": 87
    },
    {
      "midi": 60,
      "hit": false,
      "t": 180705.65720833492,
      "d": 635.0806875000126,
      "v": 87
    },
    {
      "midi": 64,
      "hit": false,
      "t": 180705.65720833492,
      "d": 635.0806875000126,
      "v": 87
    },
    {
      "midi": 60,
      "hit": false,
      "t": 181426.42338541825,
      "d": 453.6290624999965,
      "v": 87
    },
    {
      "midi": 57,
      "hit": false,
      "t": 181431.46370833492,
      "d": 458.66938541666605,
      "v": 87
    },
    {
      "midi": 64,
      "hit": false,
      "t": 181436.5040312516,
      "d": 458.66938541666605,
      "v": 86
    },
    {
      "midi": 67,
      "hit": false,
      "t": 181441.54435416826,
      "d": 463.7097083333356,
      "v": 86
    },
    {
      "midi": 60,
      "hit": false,
      "t": 181915.33470833494,
      "d": 912.2984479166917,
      "v": 88
    },
    {
      "midi": 64,
      "hit": false,
      "t": 181920.3750312516,
      "d": 614.9193958333344,
      "v": 89
    },
    {
      "midi": 57,
      "hit": false,
      "t": 181930.45567708494,
      "d": 856.8548958333267,
      "v": 89
    },
    {
      "midi": 53,
      "hit": false,
      "t": 181935.4960000016,
      "d": 871.9758645833354,
      "v": 90
    },
    {
      "midi": 64,
      "hit": false,
      "t": 182666.34282291826,
      "d": 156.25001041669748,
      "v": 82
    },
    {
      "midi": 53,
      "hit": false,
      "t": 182893.1573541683,
      "d": 761.0887604166928,
      "v": 92
    },
    {
      "midi": 57,
      "hit": false,
      "t": 182893.1573541683,
      "d": 766.1290833333624,
      "v": 93
    },
    {
      "midi": 64,
      "hit": false,
      "t": 182898.19767708497,
      "d": 705.6452083333279,
      "v": 93
    },
    {
      "midi": 60,
      "hit": false,
      "t": 182898.19767708497,
      "d": 725.806500000006,
      "v": 93
    },
    {
      "midi": 67,
      "hit": false,
      "t": 183634.08482291832,
      "d": 201.61291666669422,
      "v": 80
    },
    {
      "midi": 60,
      "hit": false,
      "t": 183860.89935416836,
      "d": 1139.1129791666754,
      "v": 99
    },
    {
      "midi": 64,
      "hit": false,
      "t": 183860.89935416836,
      "d": 1139.1129791666754,
      "v": 98
    },
    {
      "midi": 53,
      "hit": false,
      "t": 183865.93967708503,
      "d": 1123.9920104166667,
      "v": 99
    },
    {
      "midi": 69,
      "hit": false,
      "t": 183865.93967708503,
      "d": 1134.0726562500058,
      "v": 98
    },
    {
      "midi": 59,
      "hit": false,
      "t": 185312.51235416837,
      "d": 408.26615624999977,
      "v": 89
    },
    {
      "midi": 50,
      "hit": false,
      "t": 185312.51235416837,
      "d": 418.34680208333884,
      "v": 89
    },
    {
      "midi": 55,
      "hit": false,
      "t": 185317.55267708504,
      "d": 418.34680208333884,
      "v": 90
    },
    {
      "midi": 60,
      "hit": false,
      "t": 185796.38335416839,
      "d": 307.4596979166672,
      "v": 93
    },
    {
      "midi": 52,
      "hit": false,
      "t": 185801.42367708505,
      "d": 302.4193749999977,
      "v": 93
    },
    {
      "midi": 57,
      "hit": false,
      "t": 185801.42367708505,
      "d": 312.50002083333675,
      "v": 93
    },
    {
      "midi": 45,
      "hit": false,
      "t": 185806.46400000172,
      "d": 771.1694062500028,
      "v": 93
    },
    {
      "midi": 57,
      "hit": false,
      "t": 186295.37532291838,
      "d": 544.3548750000191,
      "v": 96
    },
    {
      "midi": 52,
      "hit": false,
      "t": 186300.41564583505,
      "d": 498.99196875002235,
      "v": 97
    },
    {
      "midi": 60,
      "hit": false,
      "t": 186300.41564583505,
      "d": 534.27422916668,
      "v": 97
    },
    {
      "midi": 45,
      "hit": false,
      "t": 186774.20600000172,
      "d": 539.3145520833496,
      "v": 99
    },
    {
      "midi": 54,
      "hit": false,
      "t": 187021.18182291838,
      "d": 282.2580833333486,
      "v": 111
    },
    {
      "midi": 57,
      "hit": false,
      "t": 187021.18182291838,
      "d": 292.3387291666877,
      "v": 111
    },
    {
      "midi": 62,
      "hit": false,
      "t": 187026.22214583505,
      "d": 287.29840625001816,
      "v": 110
    },
    {
      "midi": 52,
      "hit": false,
      "t": 187494.97217708506,
      "d": 569.5564895833377,
      "v": 102
    },
    {
      "midi": 60,
      "hit": false,
      "t": 187494.97217708506,
      "d": 569.5564895833377,
      "v": 110
    },
    {
      "midi": 57,
      "hit": false,
      "t": 187494.97217708506,
      "d": 594.7581041666854,
      "v": 102
    },
    {
      "midi": 45,
      "hit": false,
      "t": 187500.01250000173,
      "d": 337.70163541665534,
      "v": 102
    },
    {
      "midi": 45,
      "hit": false,
      "t": 187999.00446875172,
      "d": 559.4758437499986,
      "v": 102
    },
    {
      "midi": 52,
      "hit": false,
      "t": 188220.77867708507,
      "d": 347.7822812499944,
      "v": 102
    },
    {
      "midi": 60,
      "hit": false,
      "t": 188220.77867708507,
      "d": 367.94357291667257,
      "v": 102
    },
    {
      "midi": 57,
      "hit": false,
      "t": 188220.77867708507,
      "d": 372.9838958333421,
      "v": 102
    },
    {
      "midi": 52,
      "hit": false,
      "t": 188694.56903125174,
      "d": 136.08871874999022,
      "v": 107
    },
    {
      "midi": 60,
      "hit": false,
      "t": 188699.6093541684,
      "d": 156.25001041666837,
      "v": 96
    },
    {
      "midi": 57,
      "hit": false,
      "t": 188699.6093541684,
      "d": 161.2903333333379,
      "v": 108
    },
    {
      "midi": 45,
      "hit": false,
      "t": 188699.6093541684,
      "d": 544.3548750000482,
      "v": 102
    },
    {
      "midi": 50,
      "hit": false,
      "t": 188936.50453125176,
      "d": 226.8145312500128,
      "v": 99
    },
    {
      "midi": 55,
      "hit": false,
      "t": 188936.50453125176,
      "d": 231.85485416668234,
      "v": 97
    },
    {
      "midi": 59,
      "hit": false,
      "t": 188936.50453125176,
      "d": 231.85485416668234,
      "v": 97
    },
    {
      "midi": 53,
      "hit": false,
      "t": 189924.40782291847,
      "d": 252.0161458333314,
      "v": 101
    },
    {
      "midi": 60,
      "hit": false,
      "t": 189924.40782291847,
      "d": 272.17743750000955,
      "v": 102
    },
    {
      "midi": 57,
      "hit": false,
      "t": 189929.44814583514,
      "d": 262.09679166667047,
      "v": 102
    },
    {
      "midi": 64,
      "hit": false,
      "t": 190398.19817708514,
      "d": 337.70163541668444,
      "v": 102
    },
    {
      "midi": 65,
      "hit": false,
      "t": 190403.2385000018,
      "d": 322.5806666666758,
      "v": 102
    },
    {
      "midi": 72,
      "hit": false,
      "t": 190403.2385000018,
      "d": 322.5806666666758,
      "v": 102
    },
    {
      "midi": 69,
      "hit": false,
      "t": 190403.2385000018,
      "d": 332.6613125000149,
      "v": 102
    },
    {
      "midi": 53,
      "hit": false,
      "t": 190871.98853125182,
      "d": 272.17743750000955,
      "v": 101
    },
    {
      "midi": 57,
      "hit": false,
      "t": 190871.98853125182,
      "d": 272.17743750000955,
      "v": 101
    },
    {
      "midi": 60,
      "hit": false,
      "t": 190877.0288541685,
      "d": 282.2580833333486,
      "v": 102
    },
    {
      "midi": 72,
      "hit": false,
      "t": 191340.73856250182,
      "d": 342.7419583333249,
      "v": 102
    },
    {
      "midi": 65,
      "hit": false,
      "t": 191340.73856250182,
      "d": 347.7822812499944,
      "v": 102
    },
    {
      "midi": 64,
      "hit": false,
      "t": 191345.7788854185,
      "d": 342.7419583333249,
      "v": 102
    },
    {
      "midi": 69,
      "hit": false,
      "t": 191345.7788854185,
      "d": 352.82260416666395,
      "v": 102
    },
    {
      "midi": 53,
      "hit": false,
      "t": 192086.70635416848,
      "d": 423.3871250000084,
      "v": 95
    },
    {
      "midi": 60,
      "hit": false,
      "t": 192086.70635416848,
      "d": 423.3871250000084,
      "v": 94
    },
    {
      "midi": 57,
      "hit": false,
      "t": 192091.74667708515,
      "d": 413.3064791666693,
      "v": 95
    },
    {
      "midi": 59,
      "hit": false,
      "t": 192822.59350000182,
      "d": 257.05646875000093,
      "v": 77
    },
    {
      "midi": 62,
      "hit": false,
      "t": 192827.6338229185,
      "d": 252.0161458333314,
      "v": 79
    },
    {
      "midi": 65,
      "hit": false,
      "t": 192827.6338229185,
      "d": 257.05646875000093,
      "v": 79
    },
    {
      "midi": 55,
      "hit": false,
      "t": 192827.6338229185,
      "d": 262.09679166667047,
      "v": 80
    },
    {
      "midi": 57,
      "hit": false,
      "t": 193286.30320833516,
      "d": 488.9113229166833,
      "v": 84
    },
    {
      "midi": 55,
      "hit": false,
      "t": 193291.34353125183,
      "d": 478.8306770833442,
      "v": 85
    },
    {
      "midi": 60,
      "hit": false,
      "t": 193291.34353125183,
      "d": 478.8306770833442,
      "v": 84
    },
    {
      "midi": 64,
      "hit": false,
      "t": 193291.34353125183,
      "d": 483.87100000001374,
      "v": 84
    },
    {
      "midi": 72,
      "hit": false,
      "t": 194022.1903541685,
      "d": 493.9516458333237,
      "v": 96
    },
    {
      "midi": 67,
      "hit": false,
      "t": 194022.1903541685,
      "d": 504.0322916666628,
      "v": 96
    },
    {
      "midi": 64,
      "hit": false,
      "t": 194027.23067708517,
      "d": 493.9516458333237,
      "v": 97
    },
    {
      "midi": 69,
      "hit": false,
      "t": 194027.23067708517,
      "d": 504.0322916666628,
      "v": 96
    },
    {
      "midi": 64,
      "hit": false,
      "t": 194742.95653125184,
      "d": 221.77420833334327,
      "v": 85
    },
    {
      "midi": 69,
      "hit": false,
      "t": 194742.95653125184,
      "d": 221.77420833334327,
      "v": 85
    },
    {
      "midi": 67,
      "hit": false,
      "t": 194742.95653125184,
      "d": 226.8145312500128,
      "v": 85
    },
    {
      "midi": 71,
      "hit": false,
      "t": 194747.9968541685,
      "d": 216.73388541667373,
      "v": 85
    },
    {
      "midi": 64,
      "hit": false,
      "t": 195246.98882291853,
      "d": 226.8145312500128,
      "v": 85
    },
    {
      "midi": 67,
      "hit": false,
      "t": 195246.98882291853,
      "d": 226.8145312500128,
      "v": 85
    },
    {
      "midi": 69,
      "hit": false,
      "t": 195246.98882291853,
      "d": 226.8145312500128,
      "v": 86
    },
    {
      "midi": 72,
      "hit": false,
      "t": 195246.98882291853,
      "d": 236.89517708335188,
      "v": 86
    },
    {
      "midi": 67,
      "hit": false,
      "t": 195725.81950000187,
      "d": 443.54841666668653,
      "v": 96
    },
    {
      "midi": 72,
      "hit": false,
      "t": 195725.81950000187,
      "d": 453.6290625000256,
      "v": 96
    },
    {
      "midi": 64,
      "hit": false,
      "t": 195730.85982291854,
      "d": 423.3871250000084,
      "v": 97
    },
    {
      "midi": 69,
      "hit": false,
      "t": 195730.85982291854,
      "d": 428.4274479166779,
      "v": 96
    },
    {
      "midi": 67,
      "hit": false,
      "t": 196189.52920833524,
      "d": 388.1048645833216,
      "v": 87
    },
    {
      "midi": 64,
      "hit": false,
      "t": 196189.52920833524,
      "d": 398.1855104166607,
      "v": 87
    },
    {
      "midi": 60,
      "hit": false,
      "t": 196189.52920833524,
      "d": 428.4274479166488,
      "v": 87
    },
    {
      "midi": 60,
      "hit": false,
      "t": 196910.29538541855,
      "d": 272.17743750000955,
      "v": 87
    },
    {
      "midi": 57,
      "hit": false,
      "t": 196915.33570833522,
      "d": 282.2580833333486,
      "v": 87
    },
    {
      "midi": 64,
      "hit": false,
      "t": 196920.3760312519,
      "d": 282.2580833333486,
      "v": 86
    },
    {
      "midi": 67,
      "hit": false,
      "t": 196925.41635416856,
      "d": 277.2177604166791,
      "v": 86
    },
    {
      "midi": 52,
      "hit": false,
      "t": 197671.38414583524,
      "d": 297.37905208332813,
      "v": 99
    },
    {
      "midi": 53,
      "hit": false,
      "t": 197671.38414583524,
      "d": 307.4596979166672,
      "v": 100
    },
    {
      "midi": 57,
      "hit": false,
      "t": 197671.38414583524,
      "d": 307.4596979166672,
      "v": 98
    },
    {
      "midi": 60,
      "hit": false,
      "t": 197671.38414583524,
      "d": 327.62098958334536,
      "v": 101
    },
    {
      "midi": 72,
      "hit": false,
      "t": 198140.13417708525,
      "d": 735.8871458333451,
      "v": 105
    },
    {
      "midi": 64,
      "hit": false,
      "t": 198140.13417708525,
      "d": 740.9274687500147,
      "v": 104
    },
    {
      "midi": 65,
      "hit": false,
      "t": 198145.17450000191,
      "d": 725.806500000006,
      "v": 104
    },
    {
      "midi": 69,
      "hit": false,
      "t": 198145.17450000191,
      "d": 735.8871458333451,
      "v": 102
    },
    {
      "midi": 60,
      "hit": false,
      "t": 199107.87617708527,
      "d": 423.3871250000084,
      "v": 89
    },
    {
      "midi": 69,
      "hit": false,
      "t": 199107.87617708527,
      "d": 423.3871250000084,
      "v": 89
    },
    {
      "midi": 64,
      "hit": false,
      "t": 199107.87617708527,
      "d": 428.4274479166779,
      "v": 88
    },
    {
      "midi": 65,
      "hit": false,
      "t": 199107.87617708527,
      "d": 453.6290625000256,
      "v": 90
    },
    {
      "midi": 52,
      "hit": false,
      "t": 199596.78750000196,
      "d": 761.0887604166637,
      "v": 100
    },
    {
      "midi": 53,
      "hit": false,
      "t": 199596.78750000196,
      "d": 761.0887604166637,
      "v": 101
    },
    {
      "midi": 57,
      "hit": false,
      "t": 199596.78750000196,
      "d": 771.1694062500028,
      "v": 101
    },
    {
      "midi": 60,
      "hit": false,
      "t": 199596.78750000196,
      "d": 776.2097291666723,
      "v": 101
    },
    {
      "midi": 59,
      "hit": false,
      "t": 200564.52950000195,
      "d": 257.05646875000093,
      "v": 77
    },
    {
      "midi": 62,
      "hit": false,
      "t": 200569.56982291862,
      "d": 252.0161458333314,
      "v": 79
    },
    {
      "midi": 65,
      "hit": false,
      "t": 200569.56982291862,
      "d": 257.05646875000093,
      "v": 79
    },
    {
      "midi": 55,
      "hit": false,
      "t": 200569.56982291862,
      "d": 262.09679166667047,
      "v": 80
    },
    {
      "midi": 57,
      "hit": false,
      "t": 201028.2392083353,
      "d": 488.9113229166833,
      "v": 84
    },
    {
      "midi": 55,
      "hit": false,
      "t": 201033.27953125196,
      "d": 478.8306770833442,
      "v": 85
    },
    {
      "midi": 60,
      "hit": false,
      "t": 201033.27953125196,
      "d": 478.8306770833442,
      "v": 84
    },
    {
      "midi": 64,
      "hit": false,
      "t": 201033.27953125196,
      "d": 483.87100000001374,
      "v": 84
    },
    {
      "midi": 72,
      "hit": false,
      "t": 201764.12635416863,
      "d": 493.9516458333237,
      "v": 96
    },
    {
      "midi": 67,
      "hit": false,
      "t": 201764.12635416863,
      "d": 504.0322916666628,
      "v": 96
    },
    {
      "midi": 64,
      "hit": false,
      "t": 201769.1666770853,
      "d": 493.9516458333237,
      "v": 97
    },
    {
      "midi": 69,
      "hit": false,
      "t": 201769.1666770853,
      "d": 504.0322916666628,
      "v": 96
    },
    {
      "midi": 64,
      "hit": false,
      "t": 202484.89253125197,
      "d": 221.77420833334327,
      "v": 85
    },
    {
      "midi": 69,
      "hit": false,
      "t": 202484.89253125197,
      "d": 221.77420833334327,
      "v": 85
    },
    {
      "midi": 67,
      "hit": false,
      "t": 202484.89253125197,
      "d": 226.8145312500128,
      "v": 85
    },
    {
      "midi": 71,
      "hit": false,
      "t": 202489.93285416864,
      "d": 216.73388541667373,
      "v": 85
    },
    {
      "midi": 64,
      "hit": false,
      "t": 202988.92482291866,
      "d": 226.8145312500128,
      "v": 85
    },
    {
      "midi": 67,
      "hit": false,
      "t": 202988.92482291866,
      "d": 226.8145312500128,
      "v": 85
    },
    {
      "midi": 69,
      "hit": false,
      "t": 202988.92482291866,
      "d": 226.8145312500128,
      "v": 86
    },
    {
      "midi": 72,
      "hit": false,
      "t": 202988.92482291866,
      "d": 236.89517708335188,
      "v": 86
    },
    {
      "midi": 67,
      "hit": false,
      "t": 203467.755500002,
      "d": 443.54841666668653,
      "v": 96
    },
    {
      "midi": 72,
      "hit": false,
      "t": 203467.755500002,
      "d": 453.6290625000256,
      "v": 96
    },
    {
      "midi": 64,
      "hit": false,
      "t": 203472.79582291868,
      "d": 423.3871250000084,
      "v": 97
    },
    {
      "midi": 69,
      "hit": false,
      "t": 203472.79582291868,
      "d": 428.4274479166779,
      "v": 96
    },
    {
      "midi": 67,
      "hit": false,
      "t": 203931.46520833537,
      "d": 630.040364583343,
      "v": 87
    },
    {
      "midi": 60,
      "hit": false,
      "t": 203931.46520833537,
      "d": 635.0806875000126,
      "v": 87
    },
    {
      "midi": 64,
      "hit": false,
      "t": 203931.46520833537,
      "d": 635.0806875000126,
      "v": 87
    },
    {
      "midi": 60,
      "hit": false,
      "t": 204652.2313854187,
      "d": 453.6290624999965,
      "v": 87
    },
    {
      "midi": 57,
      "hit": false,
      "t": 204657.27170833538,
      "d": 458.66938541666605,
      "v": 87
    },
    {
      "midi": 64,
      "hit": false,
      "t": 204662.31203125205,
      "d": 458.66938541666605,
      "v": 86
    },
    {
      "midi": 67,
      "hit": false,
      "t": 204667.35235416872,
      "d": 463.7097083333356,
      "v": 86
    },
    {
      "midi": 60,
      "hit": false,
      "t": 205141.1427083354,
      "d": 912.2984479166917,
      "v": 88
    },
    {
      "midi": 64,
      "hit": false,
      "t": 205146.18303125206,
      "d": 614.9193958333344,
      "v": 89
    },
    {
      "midi": 57,
      "hit": false,
      "t": 205156.2636770854,
      "d": 856.8548958333267,
      "v": 89
    },
    {
      "midi": 53,
      "hit": false,
      "t": 205161.30400000207,
      "d": 871.9758645833354,
      "v": 90
    },
    {
      "midi": 64,
      "hit": false,
      "t": 205892.15082291872,
      "d": 156.25001041669748,
      "v": 82
    },
    {
      "midi": 53,
      "hit": false,
      "t": 206118.96535416876,
      "d": 761.0887604166928,
      "v": 92
    },
    {
      "midi": 57,
      "hit": false,
      "t": 206118.96535416876,
      "d": 766.1290833333624,
      "v": 93
    },
    {
      "midi": 64,
      "hit": false,
      "t": 206124.00567708543,
      "d": 705.6452083333279,
      "v": 93
    },
    {
      "midi": 60,
      "hit": false,
      "t": 206124.00567708543,
      "d": 725.806500000006,
      "v": 93
    },
    {
      "midi": 67,
      "hit": false,
      "t": 206859.89282291877,
      "d": 201.61291666669422,
      "v": 80
    },
    {
      "midi": 60,
      "hit": false,
      "t": 207086.70735416882,
      "d": 1139.1129791666754,
      "v": 99
    },
    {
      "midi": 64,
      "hit": false,
      "t": 207086.70735416882,
      "d": 1139.1129791666754,
      "v": 98
    },
    {
      "midi": 53,
      "hit": false,
      "t": 207091.74767708548,
      "d": 1123.9920104166667,
      "v": 99
    },
    {
      "midi": 69,
      "hit": false,
      "t": 207091.74767708548,
      "d": 1134.0726562500058,
      "v": 98
    },
    {
      "midi": 59,
      "hit": false,
      "t": 208538.32035416883,
      "d": 408.26615624999977,
      "v": 89
    },
    {
      "midi": 50,
      "hit": false,
      "t": 208538.32035416883,
      "d": 418.34680208333884,
      "v": 89
    },
    {
      "midi": 55,
      "hit": false,
      "t": 208543.3606770855,
      "d": 418.34680208333884,
      "v": 90
    },
    {
      "midi": 60,
      "hit": false,
      "t": 209022.19135416884,
      "d": 307.4596979166672,
      "v": 93
    },
    {
      "midi": 52,
      "hit": false,
      "t": 209027.2316770855,
      "d": 302.4193749999977,
      "v": 93
    },
    {
      "midi": 57,
      "hit": false,
      "t": 209027.2316770855,
      "d": 312.50002083333675,
      "v": 93
    },
    {
      "midi": 45,
      "hit": false,
      "t": 209032.27200000218,
      "d": 771.1694062500028,
      "v": 93
    },
    {
      "midi": 57,
      "hit": false,
      "t": 209521.18332291883,
      "d": 544.3548750000191,
      "v": 96
    },
    {
      "midi": 52,
      "hit": false,
      "t": 209526.2236458355,
      "d": 498.99196875002235,
      "v": 97
    },
    {
      "midi": 60,
      "hit": false,
      "t": 209526.2236458355,
      "d": 534.27422916668,
      "v": 97
    },
    {
      "midi": 45,
      "hit": false,
      "t": 210000.01400000218,
      "d": 539.3145520833496,
      "v": 99
    },
    {
      "midi": 54,
      "hit": false,
      "t": 210246.98982291884,
      "d": 282.2580833333486,
      "v": 111
    },
    {
      "midi": 57,
      "hit": false,
      "t": 210246.98982291884,
      "d": 292.3387291666877,
      "v": 111
    },
    {
      "midi": 62,
      "hit": false,
      "t": 210252.0301458355,
      "d": 287.29840625001816,
      "v": 110
    },
    {
      "midi": 52,
      "hit": false,
      "t": 210720.78017708551,
      "d": 569.5564895833377,
      "v": 102
    },
    {
      "midi": 60,
      "hit": false,
      "t": 210720.78017708551,
      "d": 569.5564895833377,
      "v": 110
    },
    {
      "midi": 57,
      "hit": false,
      "t": 210720.78017708551,
      "d": 594.7581041666854,
      "v": 102
    },
    {
      "midi": 45,
      "hit": false,
      "t": 210725.82050000218,
      "d": 337.70163541665534,
      "v": 102
    },
    {
      "midi": 45,
      "hit": false,
      "t": 211224.81246875218,
      "d": 559.4758437499986,
      "v": 102
    },
    {
      "midi": 52,
      "hit": false,
      "t": 211446.58667708552,
      "d": 347.7822812499944,
      "v": 102
    },
    {
      "midi": 60,
      "hit": false,
      "t": 211446.58667708552,
      "d": 367.94357291667257,
      "v": 102
    },
    {
      "midi": 57,
      "hit": false,
      "t": 211446.58667708552,
      "d": 372.9838958333421,
      "v": 102
    },
    {
      "midi": 52,
      "hit": false,
      "t": 211920.3770312522,
      "d": 136.08871874999022,
      "v": 107
    },
    {
      "midi": 60,
      "hit": false,
      "t": 211925.41735416887,
      "d": 156.25001041666837,
      "v": 96
    },
    {
      "midi": 57,
      "hit": false,
      "t": 211925.41735416887,
      "d": 161.2903333333379,
      "v": 108
    },
    {
      "midi": 45,
      "hit": false,
      "t": 211925.41735416887,
      "d": 544.3548750000482,
      "v": 102
    },
    {
      "midi": 50,
      "hit": false,
      "t": 212162.31253125222,
      "d": 226.8145312500128,
      "v": 99
    },
    {
      "midi": 55,
      "hit": false,
      "t": 212162.31253125222,
      "d": 231.85485416668234,
      "v": 97
    },
    {
      "midi": 59,
      "hit": false,
      "t": 212162.31253125222,
      "d": 231.85485416668234,
      "v": 97
    },
    {
      "midi": 52,
      "hit": false,
      "t": 212651.2238541689,
      "d": 519.1532604166714,
      "v": 106
    },
    {
      "midi": 45,
      "hit": false,
      "t": 212651.2238541689,
      "d": 1078.629104166699,
      "v": 107
    },
    {
      "midi": 60,
      "hit": false,
      "t": 213150.2158229189,
      "d": 40.322583333356306,
      "v": 102
    },
    {
      "midi": 53,
      "hit": false,
      "t": 213150.2158229189,
      "d": 252.0161458333605,
      "v": 101
    },
    {
      "midi": 57,
      "hit": false,
      "t": 213155.25614583556,
      "d": 40.322583333356306,
      "v": 102
    },
    {
      "midi": 64,
      "hit": false,
      "t": 213624.0061770856,
      "d": 337.70163541668444,
      "v": 102
    },
    {
      "midi": 65,
      "hit": false,
      "t": 213629.04650000227,
      "d": 322.5806666666758,
      "v": 102
    },
    {
      "midi": 72,
      "hit": false,
      "t": 213629.04650000227,
      "d": 322.5806666666758,
      "v": 102
    },
    {
      "midi": 69,
      "hit": false,
      "t": 213629.04650000227,
      "d": 332.6613125000149,
      "v": 102
    },
    {
      "midi": 53,
      "hit": false,
      "t": 214097.79653125227,
      "d": 272.17743750000955,
      "v": 101
    },
    {
      "midi": 57,
      "hit": false,
      "t": 214097.79653125227,
      "d": 272.17743750000955,
      "v": 101
    },
    {
      "midi": 60,
      "hit": false,
      "t": 214102.83685416894,
      "d": 282.2580833333486,
      "v": 102
    },
    {
      "midi": 72,
      "hit": false,
      "t": 214566.54656250228,
      "d": 342.7419583333249,
      "v": 102
    },
    {
      "midi": 65,
      "hit": false,
      "t": 214566.54656250228,
      "d": 347.7822812499944,
      "v": 102
    },
    {
      "midi": 64,
      "hit": false,
      "t": 214571.58688541895,
      "d": 342.7419583333249,
      "v": 102
    },
    {
      "midi": 69,
      "hit": false,
      "t": 214571.58688541895,
      "d": 352.82260416666395,
      "v": 102
    },
    {
      "midi": 53,
      "hit": false,
      "t": 215312.51435416893,
      "d": 423.3871250000084,
      "v": 95
    },
    {
      "midi": 60,
      "hit": false,
      "t": 215312.51435416893,
      "d": 423.3871250000084,
      "v": 94
    },
    {
      "midi": 57,
      "hit": false,
      "t": 215317.5546770856,
      "d": 413.3064791666693,
      "v": 95
    },
    {
      "midi": 59,
      "hit": false,
      "t": 216048.40150000228,
      "d": 257.05646875000093,
      "v": 77
    },
    {
      "midi": 62,
      "hit": false,
      "t": 216053.44182291895,
      "d": 252.0161458333314,
      "v": 79
    },
    {
      "midi": 65,
      "hit": false,
      "t": 216053.44182291895,
      "d": 257.05646875000093,
      "v": 79
    },
    {
      "midi": 55,
      "hit": false,
      "t": 216053.44182291895,
      "d": 262.09679166667047,
      "v": 80
    },
    {
      "midi": 57,
      "hit": false,
      "t": 216512.1112083356,
      "d": 488.9113229166833,
      "v": 84
    },
    {
      "midi": 55,
      "hit": false,
      "t": 216517.15153125228,
      "d": 478.8306770833442,
      "v": 85
    },
    {
      "midi": 60,
      "hit": false,
      "t": 216517.15153125228,
      "d": 478.8306770833442,
      "v": 84
    },
    {
      "midi": 64,
      "hit": false,
      "t": 216517.15153125228,
      "d": 483.87100000001374,
      "v": 84
    },
    {
      "midi": 72,
      "hit": false,
      "t": 217247.99835416896,
      "d": 493.9516458333237,
      "v": 96
    },
    {
      "midi": 67,
      "hit": false,
      "t": 217247.99835416896,
      "d": 504.0322916666628,
      "v": 96
    },
    {
      "midi": 64,
      "hit": false,
      "t": 217253.03867708563,
      "d": 493.9516458333237,
      "v": 97
    },
    {
      "midi": 69,
      "hit": false,
      "t": 217253.03867708563,
      "d": 504.0322916666628,
      "v": 96
    },
    {
      "midi": 64,
      "hit": false,
      "t": 217968.7645312523,
      "d": 221.77420833334327,
      "v": 85
    },
    {
      "midi": 69,
      "hit": false,
      "t": 217968.7645312523,
      "d": 221.77420833334327,
      "v": 85
    },
    {
      "midi": 67,
      "hit": false,
      "t": 217968.7645312523,
      "d": 226.8145312500128,
      "v": 85
    },
    {
      "midi": 71,
      "hit": false,
      "t": 217973.80485416896,
      "d": 216.73388541667373,
      "v": 85
    },
    {
      "midi": 64,
      "hit": false,
      "t": 218472.796822919,
      "d": 226.8145312500128,
      "v": 85
    },
    {
      "midi": 67,
      "hit": false,
      "t": 218472.796822919,
      "d": 226.8145312500128,
      "v": 85
    },
    {
      "midi": 69,
      "hit": false,
      "t": 218472.796822919,
      "d": 226.8145312500128,
      "v": 86
    },
    {
      "midi": 72,
      "hit": false,
      "t": 218472.796822919,
      "d": 236.89517708335188,
      "v": 86
    },
    {
      "midi": 67,
      "hit": false,
      "t": 218951.62750000233,
      "d": 443.54841666668653,
      "v": 96
    },
    {
      "midi": 72,
      "hit": false,
      "t": 218951.62750000233,
      "d": 453.6290625000256,
      "v": 96
    },
    {
      "midi": 64,
      "hit": false,
      "t": 218956.667822919,
      "d": 423.3871250000084,
      "v": 97
    },
    {
      "midi": 69,
      "hit": false,
      "t": 218956.667822919,
      "d": 428.4274479166779,
      "v": 96
    },
    {
      "midi": 67,
      "hit": false,
      "t": 219415.3372083357,
      "d": 388.1048645833216,
      "v": 87
    },
    {
      "midi": 64,
      "hit": false,
      "t": 219415.3372083357,
      "d": 398.1855104166607,
      "v": 87
    },
    {
      "midi": 60,
      "hit": false,
      "t": 219415.3372083357,
      "d": 428.4274479166488,
      "v": 87
    },
    {
      "midi": 60,
      "hit": false,
      "t": 220136.103385419,
      "d": 272.17743750000955,
      "v": 87
    },
    {
      "midi": 57,
      "hit": false,
      "t": 220141.14370833567,
      "d": 282.2580833333486,
      "v": 87
    },
    {
      "midi": 64,
      "hit": false,
      "t": 220146.18403125234,
      "d": 282.2580833333486,
      "v": 86
    },
    {
      "midi": 67,
      "hit": false,
      "t": 220151.224354169,
      "d": 277.2177604166791,
      "v": 86
    },
    {
      "midi": 52,
      "hit": false,
      "t": 220897.1921458357,
      "d": 297.37905208332813,
      "v": 99
    },
    {
      "midi": 53,
      "hit": false,
      "t": 220897.1921458357,
      "d": 307.4596979166672,
      "v": 100
    },
    {
      "midi": 57,
      "hit": false,
      "t": 220897.1921458357,
      "d": 307.4596979166672,
      "v": 98
    },
    {
      "midi": 60,
      "hit": false,
      "t": 220897.1921458357,
      "d": 327.62098958334536,
      "v": 101
    },
    {
      "midi": 72,
      "hit": false,
      "t": 221365.9421770857,
      "d": 735.8871458333451,
      "v": 105
    },
    {
      "midi": 64,
      "hit": false,
      "t": 221365.9421770857,
      "d": 740.9274687500147,
      "v": 104
    },
    {
      "midi": 65,
      "hit": false,
      "t": 221370.98250000237,
      "d": 725.806500000006,
      "v": 104
    },
    {
      "midi": 69,
      "hit": false,
      "t": 221370.98250000237,
      "d": 735.8871458333451,
      "v": 102
    },
    {
      "midi": 60,
      "hit": false,
      "t": 222333.68417708573,
      "d": 423.3871250000084,
      "v": 89
    },
    {
      "midi": 69,
      "hit": false,
      "t": 222333.68417708573,
      "d": 423.3871250000084,
      "v": 89
    },
    {
      "midi": 64,
      "hit": false,
      "t": 222333.68417708573,
      "d": 428.4274479166779,
      "v": 88
    },
    {
      "midi": 65,
      "hit": false,
      "t": 222333.68417708573,
      "d": 453.6290625000256,
      "v": 90
    },
    {
      "midi": 52,
      "hit": false,
      "t": 222822.5955000024,
      "d": 761.0887604166637,
      "v": 100
    },
    {
      "midi": 53,
      "hit": false,
      "t": 222822.5955000024,
      "d": 761.0887604166637,
      "v": 101
    },
    {
      "midi": 57,
      "hit": false,
      "t": 222822.5955000024,
      "d": 771.1694062500028,
      "v": 101
    },
    {
      "midi": 60,
      "hit": false,
      "t": 222822.5955000024,
      "d": 776.2097291666723,
      "v": 101
    },
    {
      "midi": 59,
      "hit": false,
      "t": 223790.3375000024,
      "d": 257.05646875000093,
      "v": 77
    },
    {
      "midi": 62,
      "hit": false,
      "t": 223795.37782291908,
      "d": 252.0161458333314,
      "v": 79
    },
    {
      "midi": 65,
      "hit": false,
      "t": 223795.37782291908,
      "d": 257.05646875000093,
      "v": 79
    },
    {
      "midi": 55,
      "hit": false,
      "t": 223795.37782291908,
      "d": 262.09679166667047,
      "v": 80
    },
    {
      "midi": 57,
      "hit": false,
      "t": 224254.04720833575,
      "d": 488.9113229166833,
      "v": 84
    },
    {
      "midi": 55,
      "hit": false,
      "t": 224259.08753125241,
      "d": 478.8306770833442,
      "v": 85
    },
    {
      "midi": 60,
      "hit": false,
      "t": 224259.08753125241,
      "d": 478.8306770833442,
      "v": 84
    },
    {
      "midi": 64,
      "hit": false,
      "t": 224259.08753125241,
      "d": 483.87100000001374,
      "v": 84
    },
    {
      "midi": 72,
      "hit": false,
      "t": 224989.9343541691,
      "d": 493.9516458333237,
      "v": 96
    },
    {
      "midi": 67,
      "hit": false,
      "t": 224989.9343541691,
      "d": 504.0322916666628,
      "v": 96
    },
    {
      "midi": 64,
      "hit": false,
      "t": 224994.97467708576,
      "d": 493.9516458333237,
      "v": 97
    },
    {
      "midi": 69,
      "hit": false,
      "t": 224994.97467708576,
      "d": 504.0322916666628,
      "v": 96
    },
    {
      "midi": 64,
      "hit": false,
      "t": 225710.70053125243,
      "d": 221.77420833334327,
      "v": 85
    },
    {
      "midi": 69,
      "hit": false,
      "t": 225710.70053125243,
      "d": 221.77420833334327,
      "v": 85
    },
    {
      "midi": 67,
      "hit": false,
      "t": 225710.70053125243,
      "d": 226.8145312500128,
      "v": 85
    },
    {
      "midi": 71,
      "hit": false,
      "t": 225715.7408541691,
      "d": 216.73388541667373,
      "v": 85
    },
    {
      "midi": 64,
      "hit": false,
      "t": 226214.73282291912,
      "d": 226.8145312500128,
      "v": 85
    },
    {
      "midi": 67,
      "hit": false,
      "t": 226214.73282291912,
      "d": 226.8145312500128,
      "v": 85
    },
    {
      "midi": 69,
      "hit": false,
      "t": 226214.73282291912,
      "d": 226.8145312500128,
      "v": 86
    },
    {
      "midi": 72,
      "hit": false,
      "t": 226214.73282291912,
      "d": 236.89517708335188,
      "v": 86
    },
    {
      "midi": 67,
      "hit": false,
      "t": 226693.56350000246,
      "d": 443.54841666668653,
      "v": 96
    },
    {
      "midi": 72,
      "hit": false,
      "t": 226693.56350000246,
      "d": 453.6290625000256,
      "v": 96
    },
    {
      "midi": 64,
      "hit": false,
      "t": 226698.60382291913,
      "d": 423.3871250000084,
      "v": 97
    },
    {
      "midi": 69,
      "hit": false,
      "t": 226698.60382291913,
      "d": 428.4274479166779,
      "v": 96
    },
    {
      "midi": 67,
      "hit": false,
      "t": 227157.27320833583,
      "d": 630.040364583343,
      "v": 87
    },
    {
      "midi": 60,
      "hit": false,
      "t": 227157.27320833583,
      "d": 635.0806875000126,
      "v": 87
    },
    {
      "midi": 64,
      "hit": false,
      "t": 227157.27320833583,
      "d": 635.0806875000126,
      "v": 87
    },
    {
      "midi": 60,
      "hit": false,
      "t": 227878.03938541916,
      "d": 453.6290624999965,
      "v": 87
    },
    {
      "midi": 57,
      "hit": false,
      "t": 227883.07970833583,
      "d": 458.66938541666605,
      "v": 87
    },
    {
      "midi": 64,
      "hit": false,
      "t": 227888.1200312525,
      "d": 458.66938541666605,
      "v": 86
    },
    {
      "midi": 67,
      "hit": false,
      "t": 227893.16035416917,
      "d": 463.7097083333356,
      "v": 86
    },
    {
      "midi": 60,
      "hit": false,
      "t": 228366.95070833585,
      "d": 912.2984479166917,
      "v": 88
    },
    {
      "midi": 64,
      "hit": false,
      "t": 228371.99103125252,
      "d": 614.9193958333344,
      "v": 89
    },
    {
      "midi": 57,
      "hit": false,
      "t": 228382.07167708586,
      "d": 856.8548958333267,
      "v": 89
    },
    {
      "midi": 53,
      "hit": false,
      "t": 228387.11200000253,
      "d": 871.9758645833354,
      "v": 90
    },
    {
      "midi": 64,
      "hit": false,
      "t": 229117.95882291917,
      "d": 156.25001041669748,
      "v": 82
    },
    {
      "midi": 53,
      "hit": false,
      "t": 229344.7733541692,
      "d": 761.0887604166928,
      "v": 92
    },
    {
      "midi": 57,
      "hit": false,
      "t": 229344.7733541692,
      "d": 766.1290833333624,
      "v": 93
    },
    {
      "midi": 64,
      "hit": false,
      "t": 229349.81367708588,
      "d": 705.6452083333279,
      "v": 93
    },
    {
      "midi": 60,
      "hit": false,
      "t": 229349.81367708588,
      "d": 725.806500000006,
      "v": 93
    },
    {
      "midi": 67,
      "hit": false,
      "t": 230085.70082291923,
      "d": 201.61291666669422,
      "v": 80
    },
    {
      "midi": 60,
      "hit": false,
      "t": 230312.51535416927,
      "d": 1139.1129791666754,
      "v": 99
    },
    {
      "midi": 64,
      "hit": false,
      "t": 230312.51535416927,
      "d": 1139.1129791666754,
      "v": 98
    },
    {
      "midi": 53,
      "hit": false,
      "t": 230317.55567708594,
      "d": 1123.9920104166667,
      "v": 99
    },
    {
      "midi": 69,
      "hit": false,
      "t": 230317.55567708594,
      "d": 1134.0726562500058,
      "v": 98
    },
    {
      "midi": 59,
      "hit": false,
      "t": 231764.12835416928,
      "d": 408.26615624999977,
      "v": 89
    },
    {
      "midi": 50,
      "hit": false,
      "t": 231764.12835416928,
      "d": 418.34680208333884,
      "v": 89
    },
    {
      "midi": 55,
      "hit": false,
      "t": 231769.16867708595,
      "d": 418.34680208333884,
      "v": 90
    },
    {
      "midi": 60,
      "hit": false,
      "t": 232247.9993541693,
      "d": 1764.1130208333489,
      "v": 93
    },
    {
      "midi": 57,
      "hit": false,
      "t": 232253.03967708597,
      "d": 1754.0323750000098,
      "v": 93
    },
    {
      "midi": 52,
      "hit": false,
      "t": 232253.03967708597,
      "d": 1764.1130208333489,
      "v": 93
    },
    {
      "midi": 45,
      "hit": false,
      "t": 232258.08000000264,
      "d": 1738.9114062500012,
      "v": 93
    }
  ]
}