{
  "jsonPath": "Animes/Neon Genesis Evangelion MIDI Collection/peace-of-mind.json",
  "path": "Animes\\Neon Genesis Evangelion MIDI Collection\\Peace of Mind.mid",
  "name": "Peace of Mind",
  "difficulty": "Advanced",
  "bpm": 81.000081000081,
  "notes": [
    {
      "midi": 53,
      "hit": false,
      "t": 1090.909,
      "d": 343.1817895833333,
      "v": 72
    },
    {
      "midi": 57,
      "hit": false,
      "t": 1090.909,
      "d": 665.9090354166667,
      "v": 53
    },
    {
      "midi": 53,
      "hit": false,
      "t": 1106.8180895833334,
      "d": 665.9090354166667,
      "v": 53
    },
    {
      "midi": 55,
      "hit": false,
      "t": 1115.9089979166667,
      "d": 406.8181479166667,
      "v": 32
    },
    {
      "midi": 57,
      "hit": false,
      "t": 1636.3635000000002,
      "d": 340.9090625000001,
      "v": 60
    },
    {
      "midi": 60,
      "hit": false,
      "t": 1909.0907500000003,
      "d": 529.5454104166665,
      "v": 68
    },
    {
      "midi": 53,
      "hit": false,
      "t": 2181.818,
      "d": 343.1817895833333,
      "v": 56
    },
    {
      "midi": 65,
      "hit": false,
      "t": 2454.54525,
      "d": 259.0908875,
      "v": 80
    },
    {
      "midi": 60,
      "hit": false,
      "t": 2727.2725,
      "d": 313.6363375000001,
      "v": 46
    },
    {
      "midi": 57,
      "hit": false,
      "t": 2999.99975,
      "d": 268.1817958333336,
      "v": 56
    },
    {
      "midi": 53,
      "hit": false,
      "t": 3272.7270000000003,
      "d": 470.4545062500001,
      "v": 64
    },
    {
      "midi": 57,
      "hit": false,
      "t": 3820.454227083334,
      "d": 718.1817583333327,
      "v": 63
    },
    {
      "midi": 60,
      "hit": false,
      "t": 4090.9087500000005,
      "d": 499.99995833333287,
      "v": 63
    },
    {
      "midi": 69,
      "hit": false,
      "t": 4354.545091666667,
      "d": 270.454522916667,
      "v": 88
    },
    {
      "midi": 53,
      "hit": false,
      "t": 4363.636,
      "d": 470.4545062500001,
      "v": 53
    },
    {
      "midi": 70,
      "hit": false,
      "t": 4624.999614583334,
      "d": 252.27270624999983,
      "v": 97
    },
    {
      "midi": 65,
      "hit": false,
      "t": 4636.36325,
      "d": 263.63634166666725,
      "v": 68
    },
    {
      "midi": 69,
      "hit": false,
      "t": 4877.272320833334,
      "d": 240.90907083333332,
      "v": 93
    },
    {
      "midi": 60,
      "hit": false,
      "t": 4909.090500000001,
      "d": 261.3636145833334,
      "v": 50
    },
    {
      "midi": 70,
      "hit": false,
      "t": 5118.181391666667,
      "d": 329.5454270833334,
      "v": 95
    },
    {
      "midi": 57,
      "hit": false,
      "t": 5181.817750000001,
      "d": 165.9090770833336,
      "v": 62
    },
    {
      "midi": 72,
      "hit": false,
      "t": 5429.545002083334,
      "d": 2190.908908333333,
      "v": 102
    },
    {
      "midi": 45,
      "hit": false,
      "t": 5454.545000000001,
      "d": 445.45450833333416,
      "v": 88
    },
    {
      "midi": 55,
      "hit": false,
      "t": 5456.817727083334,
      "d": 406.81814791666693,
      "v": 47
    },
    {
      "midi": 57,
      "hit": false,
      "t": 5477.272270833334,
      "d": 545.4544999999998,
      "v": 47
    },
    {
      "midi": 52,
      "hit": false,
      "t": 5493.181360416667,
      "d": 665.9090354166665,
      "v": 68
    },
    {
      "midi": 60,
      "hit": false,
      "t": 5999.999500000002,
      "d": 549.9999541666666,
      "v": 72
    },
    {
      "midi": 64,
      "hit": false,
      "t": 6545.4540000000015,
      "d": 527.2726833333336,
      "v": 65
    },
    {
      "midi": 60,
      "hit": false,
      "t": 7090.908500000001,
      "d": 279.54543124999964,
      "v": 63
    },
    {
      "midi": 45,
      "hit": false,
      "t": 7363.635750000001,
      "d": 279.54543124999964,
      "v": 63
    },
    {
      "midi": 78,
      "hit": false,
      "t": 7618.181183333334,
      "d": 243.18179791666626,
      "v": 77
    },
    {
      "midi": 67,
      "hit": false,
      "t": 7634.090272916667,
      "d": 534.0908645833333,
      "v": 84
    },
    {
      "midi": 79,
      "hit": false,
      "t": 7811.362985416667,
      "d": 627.2726750000002,
      "v": 95
    },
    {
      "midi": 64,
      "hit": false,
      "t": 8181.817500000001,
      "d": 254.54543333333277,
      "v": 61
    },
    {
      "midi": 77,
      "hit": false,
      "t": 8438.635660416667,
      "d": 790.909024999999,
      "v": 89
    },
    {
      "midi": 45,
      "hit": false,
      "t": 8454.544750000001,
      "d": 252.27270624999983,
      "v": 65
    },
    {
      "midi": 67,
      "hit": false,
      "t": 8729.544727083334,
      "d": 297.7272479166659,
      "v": 69
    },
    {
      "midi": 76,
      "hit": false,
      "t": 9247.726502083333,
      "d": 536.3635916666663,
      "v": 96
    },
    {
      "midi": 64,
      "hit": false,
      "t": 9272.726499999999,
      "d": 243.18179791666626,
      "v": 49
    },
    {
      "midi": 76,
      "hit": false,
      "t": 9799.999183333333,
      "d": 284.0908854166664,
      "v": 99
    },
    {
      "midi": 46,
      "hit": false,
      "t": 9818.180999999999,
      "d": 343.1817895833319,
      "v": 88
    },
    {
      "midi": 50,
      "hit": false,
      "t": 9818.181000000002,
      "d": 545.4544999999998,
      "v": 37
    },
    {
      "midi": 57,
      "hit": false,
      "t": 9843.180997916668,
      "d": 406.81814791666693,
      "v": 52
    },
    {
      "midi": 53,
      "hit": false,
      "t": 9843.180997916668,
      "d": 406.81814791666693,
      "v": 42
    },
    {
      "midi": 77,
      "hit": false,
      "t": 10086.362795833333,
      "d": 265.9090687500011,
      "v": 79
    },
    {
      "midi": 74,
      "hit": false,
      "t": 10349.9991375,
      "d": 2590.908875000003,
      "v": 95
    },
    {
      "midi": 58,
      "hit": false,
      "t": 10363.635499999997,
      "d": 340.9090625000008,
      "v": 64
    },
    {
      "midi": 62,
      "hit": false,
      "t": 10636.362749999997,
      "d": 529.5454104166693,
      "v": 71
    },
    {
      "midi": 46,
      "hit": false,
      "t": 10909.089999999998,
      "d": 343.18178958333556,
      "v": 59
    },
    {
      "midi": 65,
      "hit": false,
      "t": 11181.81725,
      "d": 259.09088750000046,
      "v": 82
    },
    {
      "midi": 46,
      "hit": false,
      "t": 11454.5445,
      "d": 313.6363375000001,
      "v": 37
    },
    {
      "midi": 62,
      "hit": false,
      "t": 11727.27175,
      "d": 268.18179583333404,
      "v": 72
    },
    {
      "midi": 46,
      "hit": false,
      "t": 11999.999,
      "d": 470.4545062500001,
      "v": 59
    },
    {
      "midi": 58,
      "hit": false,
      "t": 12547.726227083333,
      "d": 718.1817583333341,
      "v": 63
    },
    {
      "midi": 62,
      "hit": false,
      "t": 12818.18075,
      "d": 499.9999583333338,
      "v": 63
    },
    {
      "midi": 65,
      "hit": false,
      "t": 13090.908,
      "d": 263.63634166666634,
      "v": 75
    },
    {
      "midi": 65,
      "hit": false,
      "t": 13379.544339583337,
      "d": 215.90907291666736,
      "v": 84
    },
    {
      "midi": 64,
      "hit": false,
      "t": 13595.453412500005,
      "d": 313.6363375000001,
      "v": 87
    },
    {
      "midi": 64,
      "hit": false,
      "t": 13636.3625,
      "d": 534.0908645833333,
      "v": 67
    },
    {
      "midi": 65,
      "hit": false,
      "t": 13868.180662500004,
      "d": 320.4545187500007,
      "v": 94
    },
    {
      "midi": 46,
      "hit": false,
      "t": 14181.817,
      "d": 470.4545062500001,
      "v": 44
    },
    {
      "midi": 73,
      "hit": false,
      "t": 14202.271543750005,
      "d": 1047.7271854166665,
      "v": 93
    },
    {
      "midi": 56,
      "hit": false,
      "t": 14206.816997916669,
      "d": 406.8181479166651,
      "v": 43
    },
    {
      "midi": 49,
      "hit": false,
      "t": 14229.544268750002,
      "d": 406.8181479166651,
      "v": 33
    },
    {
      "midi": 46,
      "hit": false,
      "t": 14243.180631250001,
      "d": 552.2726812499986,
      "v": 36
    },
    {
      "midi": 53,
      "hit": false,
      "t": 14243.180631250001,
      "d": 665.9090354166656,
      "v": 49
    },
    {
      "midi": 58,
      "hit": false,
      "t": 14729.544227083332,
      "d": 718.1817583333341,
      "v": 38
    },
    {
      "midi": 61,
      "hit": false,
      "t": 14999.998749999999,
      "d": 499.9999583333338,
      "v": 63
    },
    {
      "midi": 68,
      "hit": false,
      "t": 15256.816910416672,
      "d": 470.4545062500001,
      "v": 88
    },
    {
      "midi": 65,
      "hit": false,
      "t": 15272.725999999999,
      "d": 263.63634166666634,
      "v": 75
    },
    {
      "midi": 72,
      "hit": false,
      "t": 15738.635052083338,
      "d": 1136.3635416666639,
      "v": 98
    },
    {
      "midi": 64,
      "hit": false,
      "t": 15818.180499999999,
      "d": 261.3636145833334,
      "v": 50
    },
    {
      "midi": 48,
      "hit": false,
      "t": 16363.634999999998,
      "d": 515.9090479166662,
      "v": 86
    },
    {
      "midi": 58,
      "hit": false,
      "t": 16365.907727083333,
      "d": 406.81814791666693,
      "v": 36
    },
    {
      "midi": 55,
      "hit": false,
      "t": 16379.544089583333,
      "d": 529.5454104166693,
      "v": 49
    },
    {
      "midi": 48,
      "hit": false,
      "t": 16379.544089583333,
      "d": 552.2726812500023,
      "v": 29
    },
    {
      "midi": 53,
      "hit": false,
      "t": 16402.271360416667,
      "d": 665.9090354166692,
      "v": 57
    },
    {
      "midi": 71,
      "hit": false,
      "t": 16859.08950416667,
      "d": 38.63636041666541,
      "v": 69
    },
    {
      "midi": 55,
      "hit": false,
      "t": 16909.0895,
      "d": 634.0908562500008,
      "v": 49
    },
    {
      "midi": 70,
      "hit": false,
      "t": 16909.089500000002,
      "d": 1084.0908187500027,
      "v": 84
    },
    {
      "midi": 64,
      "hit": false,
      "t": 17454.543999999998,
      "d": 545.4544999999998,
      "v": 68
    },
    {
      "midi": 67,
      "hit": false,
      "t": 17454.543999999998,
      "d": 552.2726812500005,
      "v": 81
    },
    {
      "midi": 65,
      "hit": false,
      "t": 17956.81668541667,
      "d": 256.8181604166675,
      "v": 79
    },
    {
      "midi": 50,
      "hit": false,
      "t": 17999.998499999998,
      "d": 452.272689583333,
      "v": 59
    },
    {
      "midi": 67,
      "hit": false,
      "t": 18179.54393958334,
      "d": 331.8181541666672,
      "v": 79
    },
    {
      "midi": 69,
      "hit": false,
      "t": 18488.634822916672,
      "d": 1104.5453624999973,
      "v": 94
    },
    {
      "midi": 53,
      "hit": false,
      "t": 18545.452999999998,
      "d": 343.18178958333374,
      "v": 72
    },
    {
      "midi": 57,
      "hit": false,
      "t": 18584.089360416667,
      "d": 438.6363270833317,
      "v": 52
    },
    {
      "midi": 53,
      "hit": false,
      "t": 18584.089360416667,
      "d": 506.8181395833308,
      "v": 46
    },
    {
      "midi": 55,
      "hit": false,
      "t": 18584.089360416667,
      "d": 665.9090354166656,
      "v": 40
    },
    {
      "midi": 57,
      "hit": false,
      "t": 19090.907499999998,
      "d": 340.909062499999,
      "v": 60
    },
    {
      "midi": 60,
      "hit": false,
      "t": 19363.634749999997,
      "d": 529.5454104166674,
      "v": 68
    },
    {
      "midi": 72,
      "hit": false,
      "t": 19572.725641666668,
      "d": 995.4544625000017,
      "v": 89
    },
    {
      "midi": 53,
      "hit": false,
      "t": 19636.361999999997,
      "d": 343.18178958333374,
      "v": 56
    },
    {
      "midi": 65,
      "hit": false,
      "t": 19909.089249999997,
      "d": 259.0908875000023,
      "v": 80
    },
    {
      "midi": 60,
      "hit": false,
      "t": 20181.8165,
      "d": 313.6363375000001,
      "v": 46
    },
    {
      "midi": 57,
      "hit": false,
      "t": 20454.54375,
      "d": 268.18179583333404,
      "v": 56
    },
    {
      "midi": 71,
      "hit": false,
      "t": 20568.18010416667,
      "d": 81.81817500000034,
      "v": 42
    },
    {
      "midi": 69,
      "hit": false,
      "t": 20647.725552083335,
      "d": 81.81817500000034,
      "v": 41
    },
    {
      "midi": 53,
      "hit": false,
      "t": 20727.271,
      "d": 470.4545062500001,
      "v": 64
    },
    {
      "midi": 67,
      "hit": false,
      "t": 20729.543727083335,
      "d": 65.90908541666795,
      "v": 41
    },
    {
      "midi": 64,
      "hit": false,
      "t": 20815.90735625,
      "d": 63.63635833333319,
      "v": 36
    },
    {
      "midi": 60,
      "hit": false,
      "t": 20906.816439583334,
      "d": 77.27272083333446,
      "v": 32
    },
    {
      "midi": 58,
      "hit": false,
      "t": 20995.452795833335,
      "d": 27.2727249999989,
      "v": 30
    },
    {
      "midi": 57,
      "hit": false,
      "t": 21274.998227083335,
      "d": 718.1817583333323,
      "v": 63
    },
    {
      "midi": 60,
      "hit": false,
      "t": 21545.45275,
      "d": 499.9999583333338,
      "v": 63
    },
    {
      "midi": 69,
      "hit": false,
      "t": 21809.08909166667,
      "d": 306.81815624999945,
      "v": 92
    },
    {
      "midi": 53,
      "hit": false,
      "t": 21818.18,
      "d": 470.4545062500001,
      "v": 53
    },
    {
      "midi": 70,
      "hit": false,
      "t": 22079.543614583334,
      "d": 286.3636125000012,
      "v": 89
    },
    {
      "midi": 65,
      "hit": false,
      "t": 22090.90725,
      "d": 263.63634166666816,
      "v": 68
    },
    {
      "midi": 69,
      "hit": false,
      "t": 22331.816320833335,
      "d": 277.2727041666658,
      "v": 99
    },
    {
      "midi": 60,
      "hit": false,
      "t": 22363.6345,
      "d": 261.3636145833334,
      "v": 50
    },
    {
      "midi": 70,
      "hit": false,
      "t": 22572.725391666667,
      "d": 329.5454270833361,
      "v": 87
    },
    {
      "midi": 57,
      "hit": false,
      "t": 22636.36175,
      "d": 165.9090770833318,
      "v": 62
    },
    {
      "midi": 72,
      "hit": false,
      "t": 22884.089002083336,
      "d": 2190.9089083333347,
      "v": 102
    },
    {
      "midi": 45,
      "hit": false,
      "t": 22909.089,
      "d": 445.454508333336,
      "v": 89
    },
    {
      "midi": 55,
      "hit": false,
      "t": 22911.361727083335,
      "d": 406.8181479166633,
      "v": 47
    },
    {
      "midi": 57,
      "hit": false,
      "t": 22931.816270833333,
      "d": 545.4544999999998,
      "v": 47
    },
    {
      "midi": 52,
      "hit": false,
      "t": 22947.725360416665,
      "d": 665.9090354166692,
      "v": 68
    },
    {
      "midi": 60,
      "hit": false,
      "t": 23454.543500000003,
      "d": 549.9999541666657,
      "v": 71
    },
    {
      "midi": 64,
      "hit": false,
      "t": 23999.998000000003,
      "d": 527.2726833333327,
      "v": 77
    },
    {
      "midi": 60,
      "hit": false,
      "t": 24545.452500000003,
      "d": 279.54543125000055,
      "v": 63
    },
    {
      "midi": 45,
      "hit": false,
      "t": 24818.179750000003,
      "d": 279.54543125000055,
      "v": 63
    },
    {
      "midi": 78,
      "hit": false,
      "t": 25072.725183333336,
      "d": 243.18179791666626,
      "v": 94
    },
    {
      "midi": 67,
      "hit": false,
      "t": 25088.63427291667,
      "d": 534.0908645833333,
      "v": 84
    },
    {
      "midi": 79,
      "hit": false,
      "t": 25265.90698541667,
      "d": 627.2726750000002,
      "v": 95
    },
    {
      "midi": 64,
      "hit": false,
      "t": 25636.361500000006,
      "d": 254.54543333333277,
      "v": 61
    },
    {
      "midi": 77,
      "hit": false,
      "t": 25893.17966041667,
      "d": 790.9090249999972,
      "v": 101
    },
    {
      "midi": 45,
      "hit": false,
      "t": 25909.088750000006,
      "d": 252.27270625000165,
      "v": 65
    },
    {
      "midi": 67,
      "hit": false,
      "t": 26184.08872708334,
      "d": 297.7272479166677,
      "v": 69
    },
    {
      "midi": 76,
      "hit": false,
      "t": 26690.906866666668,
      "d": 524.9999562500016,
      "v": 96
    },
    {
      "midi": 64,
      "hit": false,
      "t": 26727.27050000001,
      "d": 243.18179791666626,
      "v": 49
    },
    {
      "midi": 45,
      "hit": false,
      "t": 26999.99775000001,
      "d": 279.54543125000055,
      "v": 63
    },
    {
      "midi": 76,
      "hit": false,
      "t": 27254.543183333335,
      "d": 284.0908854166664,
      "v": 99
    },
    {
      "midi": 50,
      "hit": false,
      "t": 27272.725000000002,
      "d": 545.4544999999998,
      "v": 37
    },
    {
      "midi": 46,
      "hit": false,
      "t": 27272.72500000001,
      "d": 343.18178958333374,
      "v": 88
    },
    {
      "midi": 57,
      "hit": false,
      "t": 27297.72499791667,
      "d": 406.81814791666693,
      "v": 52
    },
    {
      "midi": 53,
      "hit": false,
      "t": 27297.72499791667,
      "d": 406.81814791666693,
      "v": 42
    },
    {
      "midi": 77,
      "hit": false,
      "t": 27529.54316041667,
      "d": 265.9090687499993,
      "v": 79
    },
    {
      "midi": 74,
      "hit": false,
      "t": 27804.5431375,
      "d": 2590.9088749999974,
      "v": 95
    },
    {
      "midi": 58,
      "hit": false,
      "t": 27818.17950000001,
      "d": 340.909062499999,
      "v": 64
    },
    {
      "midi": 62,
      "hit": false,
      "t": 28363.63400000001,
      "d": 529.5454104166674,
      "v": 71
    },
    {
      "midi": 58,
      "hit": false,
      "t": 29181.81575000001,
      "d": 268.18179583333404,
      "v": 72
    },
    {
      "midi": 46,
      "hit": false,
      "t": 29454.54300000001,
      "d": 470.4545062500001,
      "v": 59
    },
    {
      "midi": 58,
      "hit": false,
      "t": 30002.270227083343,
      "d": 718.1817583333323,
      "v": 63
    },
    {
      "midi": 62,
      "hit": false,
      "t": 30272.72475000001,
      "d": 499.9999583333338,
      "v": 63
    },
    {
      "midi": 46,
      "hit": false,
      "t": 30545.45200000001,
      "d": 470.4545062500001,
      "v": 59
    },
    {
      "midi": 65,
      "hit": false,
      "t": 30818.17925000001,
      "d": 263.63634166666816,
      "v": 75
    },
    {
      "midi": 65,
      "hit": false,
      "t": 30834.08833958333,
      "d": 215.90907291666736,
      "v": 84
    },
    {
      "midi": 64,
      "hit": false,
      "t": 31049.997412499997,
      "d": 313.6363375000001,
      "v": 87
    },
    {
      "midi": 65,
      "hit": false,
      "t": 31322.724662499997,
      "d": 320.4545187500007,
      "v": 94
    },
    {
      "midi": 64,
      "hit": false,
      "t": 31363.633750000008,
      "d": 261.3636145833334,
      "v": 67
    },
    {
      "midi": 46,
      "hit": false,
      "t": 31636.361000000008,
      "d": 470.4545062500001,
      "v": 59
    },
    {
      "midi": 73,
      "hit": false,
      "t": 31656.815543749995,
      "d": 1047.7271854166647,
      "v": 93
    },
    {
      "midi": 56,
      "hit": false,
      "t": 31661.36099791667,
      "d": 406.81814791666693,
      "v": 43
    },
    {
      "midi": 49,
      "hit": false,
      "t": 31684.08826875,
      "d": 406.81814791666693,
      "v": 33
    },
    {
      "midi": 46,
      "hit": false,
      "t": 31697.724631250003,
      "d": 552.2726812500005,
      "v": 36
    },
    {
      "midi": 53,
      "hit": false,
      "t": 31697.724631250003,
      "d": 665.9090354166656,
      "v": 49
    },
    {
      "midi": 58,
      "hit": false,
      "t": 32184.088227083343,
      "d": 718.1817583333286,
      "v": 38
    },
    {
      "midi": 61,
      "hit": false,
      "t": 32454.542750000008,
      "d": 499.9999583333265,
      "v": 63
    },
    {
      "midi": 80,
      "hit": false,
      "t": 32711.36091041666,
      "d": 470.4545062499965,
      "v": 108
    },
    {
      "midi": 65,
      "hit": false,
      "t": 32727.270000000008,
      "d": 263.6363416666609,
      "v": 75
    },
    {
      "midi": 72,
      "hit": false,
      "t": 33193.179052083324,
      "d": 1199.9998999999807,
      "v": 100
    },
    {
      "midi": 46,
      "hit": false,
      "t": 33545.45175,
      "d": 215.909072916671,
      "v": 50
    },
    {
      "midi": 48,
      "hit": false,
      "t": 33818.179000000004,
      "d": 515.9090479166698,
      "v": 86
    },
    {
      "midi": 58,
      "hit": false,
      "t": 33820.45172708334,
      "d": 406.8181479166742,
      "v": 36
    },
    {
      "midi": 55,
      "hit": false,
      "t": 33834.08808958334,
      "d": 529.5454104166711,
      "v": 49
    },
    {
      "midi": 48,
      "hit": false,
      "t": 33834.08808958334,
      "d": 552.2726812500041,
      "v": 29
    },
    {
      "midi": 53,
      "hit": false,
      "t": 33856.81536041667,
      "d": 665.9090354166692,
      "v": 57
    },
    {
      "midi": 70,
      "hit": false,
      "t": 34363.633499999974,
      "d": 1084.0908187499954,
      "v": 94
    },
    {
      "midi": 55,
      "hit": false,
      "t": 34363.6335,
      "d": 634.0908562500044,
      "v": 49
    },
    {
      "midi": 64,
      "hit": false,
      "t": 34636.36075000001,
      "d": 545.4544999999998,
      "v": 75
    },
    {
      "midi": 67,
      "hit": false,
      "t": 34909.08800000001,
      "d": 552.2726812499968,
      "v": 88
    },
    {
      "midi": 65,
      "hit": false,
      "t": 35411.360685416636,
      "d": 256.8181604166675,
      "v": 79
    },
    {
      "midi": 67,
      "hit": false,
      "t": 35634.0879395833,
      "d": 331.8181541666636,
      "v": 79
    },
    {
      "midi": 50,
      "hit": false,
      "t": 35997.724272916676,
      "d": 568.1817708333328,
      "v": 65
    },
    {
      "midi": 57,
      "hit": false,
      "t": 35997.724272916676,
      "d": 1484.0907854166653,
      "v": 63
    },
    {
      "midi": 65,
      "hit": false,
      "t": 35999.99700000001,
      "d": 1599.9998666666652,
      "v": 69
    },
    {
      "midi": 62,
      "hit": false,
      "t": 36002.269727083345,
      "d": 1036.3635499999946,
      "v": 58
    },
    {
      "midi": 69,
      "hit": false,
      "t": 36015.906089583295,
      "d": 920.4544687499874,
      "v": 99
    },
    {
      "midi": 62,
      "hit": false,
      "t": 36543.178772916675,
      "d": 536.3635916666681,
      "v": 68
    },
    {
      "midi": 71,
      "hit": false,
      "t": 36934.08783124995,
      "d": 65.90908541667159,
      "v": 68
    },
    {
      "midi": 72,
      "hit": false,
      "t": 36999.99691666662,
      "d": 72.72726666666858,
      "v": 68
    },
    {
      "midi": 74,
      "hit": false,
      "t": 37077.26963749996,
      "d": 1054.5453666666654,
      "v": 100
    },
    {
      "midi": 69,
      "hit": false,
      "t": 37090.90600000001,
      "d": 545.4544999999998,
      "v": 69
    },
    {
      "midi": 75,
      "hit": false,
      "t": 38131.81500416662,
      "d": 68.18181249999907,
      "v": 55
    },
    {
      "midi": 50,
      "hit": false,
      "t": 38181.81500000001,
      "d": 427.2726916666652,
      "v": 54
    },
    {
      "midi": 61,
      "hit": false,
      "t": 38181.81500000001,
      "d": 1070.4544562500014,
      "v": 66
    },
    {
      "midi": 76,
      "hit": false,
      "t": 38206.81499791662,
      "d": 1013.6362791666616,
      "v": 99
    },
    {
      "midi": 62,
      "hit": false,
      "t": 38727.26950000001,
      "d": 534.0908645833333,
      "v": 56
    },
    {
      "midi": 77,
      "hit": false,
      "t": 39199.99673333328,
      "d": 709.0908500000005,
      "v": 99
    },
    {
      "midi": 69,
      "hit": false,
      "t": 39272.72400000001,
      "d": 474.999960416666,
      "v": 64
    },
    {
      "midi": 62,
      "hit": false,
      "t": 39818.17850000001,
      "d": 461.36359791666473,
      "v": 59
    },
    {
      "midi": 76,
      "hit": false,
      "t": 39909.08758333328,
      "d": 124.99998958333163,
      "v": 64
    },
    {
      "midi": 74,
      "hit": false,
      "t": 40059.08757083328,
      "d": 134.09089791666338,
      "v": 57
    },
    {
      "midi": 72,
      "hit": false,
      "t": 40193.178468749946,
      "d": 102.2727187499986,
      "v": 63
    },
    {
      "midi": 71,
      "hit": false,
      "t": 40329.542093749944,
      "d": 95.4545375000016,
      "v": 65
    },
    {
      "midi": 62,
      "hit": false,
      "t": 40363.63300000001,
      "d": 513.636320833335,
      "v": 53
    },
    {
      "midi": 60,
      "hit": false,
      "t": 40368.17845416668,
      "d": 1113.6362708333327,
      "v": 66
    },
    {
      "midi": 69,
      "hit": false,
      "t": 40422.72390416661,
      "d": 2781.8179500000115,
      "v": 89
    },
    {
      "midi": 65,
      "hit": false,
      "t": 40906.814772916674,
      "d": 295.4545208333293,
      "v": 74
    },
    {
      "midi": 69,
      "hit": false,
      "t": 41181.814750000005,
      "d": 474.999960416666,
      "v": 60
    },
    {
      "midi": 65,
      "hit": false,
      "t": 41727.269250000005,
      "d": 265.9090687499993,
      "v": 65
    },
    {
      "midi": 62,
      "hit": false,
      "t": 41999.9965,
      "d": 238.63634374999674,
      "v": 49
    },
    {
      "midi": 50,
      "hit": false,
      "t": 42272.72375,
      "d": 209.09089166666672,
      "v": 58
    },
    {
      "midi": 62,
      "hit": false,
      "t": 42543.17827291667,
      "d": 1022.7271875000079,
      "v": 66
    },
    {
      "midi": 50,
      "hit": false,
      "t": 42547.72372708333,
      "d": 272.72725000000355,
      "v": 65
    },
    {
      "midi": 67,
      "hit": false,
      "t": 42547.72372708334,
      "d": 993.1817354166706,
      "v": 79
    },
    {
      "midi": 59,
      "hit": false,
      "t": 42549.99645416668,
      "d": 852.2726562500029,
      "v": 58
    },
    {
      "midi": 62,
      "hit": false,
      "t": 43093.178227083336,
      "d": 272.7272499999963,
      "v": 58
    },
    {
      "midi": 69,
      "hit": false,
      "t": 43634.087272916666,
      "d": 474.999960416666,
      "v": 70
    },
    {
      "midi": 69,
      "hit": false,
      "t": 43636.35999999995,
      "d": 315.90906458332756,
      "v": 104
    },
    {
      "midi": 67,
      "hit": false,
      "t": 43897.72361458328,
      "d": 284.0908854166628,
      "v": 84
    },
    {
      "midi": 65,
      "hit": false,
      "t": 44174.996318749945,
      "d": 311.3636104166653,
      "v": 104
    },
    {
      "midi": 62,
      "hit": false,
      "t": 44181.8145,
      "d": 309.09088333333057,
      "v": 65
    },
    {
      "midi": 67,
      "hit": false,
      "t": 44461.35993124994,
      "d": 309.09088333333057,
      "v": 87
    },
    {
      "midi": 46,
      "hit": false,
      "t": 44727.269,
      "d": 506.81813958333805,
      "v": 66
    },
    {
      "midi": 65,
      "hit": false,
      "t": 44727.269000000015,
      "d": 936.3635583333307,
      "v": 60
    },
    {
      "midi": 57,
      "hit": false,
      "t": 44729.54172708335,
      "d": 934.090831249996,
      "v": 63
    },
    {
      "midi": 69,
      "hit": false,
      "t": 44747.72354374994,
      "d": 1013.636279166647,
      "v": 94
    },
    {
      "midi": 62,
      "hit": false,
      "t": 44747.72354375001,
      "d": 738.6363020833305,
      "v": 53
    },
    {
      "midi": 53,
      "hit": false,
      "t": 45272.72350000001,
      "d": 565.9090437499981,
      "v": 60
    },
    {
      "midi": 65,
      "hit": false,
      "t": 45774.99618541659,
      "d": 413.6363291666639,
      "v": 87
    },
    {
      "midi": 65,
      "hit": false,
      "t": 45818.17800000001,
      "d": 1077.2726374999984,
      "v": 81
    },
    {
      "midi": 65,
      "hit": false,
      "t": 46306.81432291659,
      "d": 1670.4544062500063,
      "v": 99
    },
    {
      "midi": 57,
      "hit": false,
      "t": 46906.81427291668,
      "d": 886.3635625000097,
      "v": 58
    },
    {
      "midi": 45,
      "hit": false,
      "t": 46911.35972708334,
      "d": 515.9090479166698,
      "v": 70
    },
    {
      "midi": 60,
      "hit": false,
      "t": 46911.35972708335,
      "d": 856.8181104166724,
      "v": 71
    },
    {
      "midi": 55,
      "hit": false,
      "t": 46913.63245416668,
      "d": 715.9090312500048,
      "v": 50
    },
    {
      "midi": 57,
      "hit": false,
      "t": 47456.81422708334,
      "d": 274.9999770833383,
      "v": 63
    },
    {
      "midi": 53,
      "hit": false,
      "t": 47727.26875000001,
      "d": 229.54543541667226,
      "v": 58
    },
    {
      "midi": 65,
      "hit": false,
      "t": 47999.996000000014,
      "d": 752.2726645833318,
      "v": 73
    },
    {
      "midi": 62,
      "hit": false,
      "t": 48297.7232479166,
      "d": 218.18179999999847,
      "v": 99
    },
    {
      "midi": 65,
      "hit": false,
      "t": 48554.541408333265,
      "d": 277.2727041666658,
      "v": 81
    },
    {
      "midi": 67,
      "hit": false,
      "t": 48809.0868416666,
      "d": 288.6363395833323,
      "v": 89
    },
    {
      "midi": 53,
      "hit": false,
      "t": 48818.17775000001,
      "d": 136.36362499999814,
      "v": 70
    },
    {
      "midi": 69,
      "hit": false,
      "t": 49086.359545833264,
      "d": 252.272706249998,
      "v": 94
    },
    {
      "midi": 43,
      "hit": false,
      "t": 49090.905000000006,
      "d": 727.2726666666713,
      "v": 68
    },
    {
      "midi": 65,
      "hit": false,
      "t": 49090.90500000002,
      "d": 936.3635583333307,
      "v": 60
    },
    {
      "midi": 58,
      "hit": false,
      "t": 49093.177727083355,
      "d": 934.090831249996,
      "v": 63
    },
    {
      "midi": 62,
      "hit": false,
      "t": 49111.35954375002,
      "d": 738.6363020833305,
      "v": 53
    },
    {
      "midi": 70,
      "hit": false,
      "t": 49361.359522916595,
      "d": 799.9999333333326,
      "v": 101
    },
    {
      "midi": 62,
      "hit": false,
      "t": 49909.08675000001,
      "d": 334.0908812500056,
      "v": 73
    },
    {
      "midi": 69,
      "hit": false,
      "t": 50163.63218333326,
      "d": 1056.8180937499783,
      "v": 89
    },
    {
      "midi": 65,
      "hit": false,
      "t": 50179.54127291668,
      "d": 529.5454104166711,
      "v": 73
    },
    {
      "midi": 58,
      "hit": false,
      "t": 50724.995772916685,
      "d": 520.454502083332,
      "v": 65
    },
    {
      "midi": 65,
      "hit": false,
      "t": 51247.72300208324,
      "d": 518.1817749999973,
      "v": 99
    },
    {
      "midi": 69,
      "hit": false,
      "t": 51272.72300000002,
      "d": 545.4544999999998,
      "v": 73
    },
    {
      "midi": 67,
      "hit": false,
      "t": 51777.26841249991,
      "d": 659.0908541666649,
      "v": 94
    },
    {
      "midi": 65,
      "hit": false,
      "t": 51818.17750000002,
      "d": 504.5454125000033,
      "v": 76
    },
    {
      "midi": 64,
      "hit": false,
      "t": 52363.63200000002,
      "d": 663.6363083333345,
      "v": 58
    },
    {
      "midi": 61,
      "hit": false,
      "t": 52365.904727083354,
      "d": 661.3635812499997,
      "v": 61
    },
    {
      "midi": 67,
      "hit": false,
      "t": 52384.08654375002,
      "d": 465.90905208333425,
      "v": 51
    },
    {
      "midi": 65,
      "hit": false,
      "t": 52852.26832291657,
      "d": 295.4545208333366,
      "v": 101
    },
    {
      "midi": 65,
      "hit": false,
      "t": 52909.08650000003,
      "d": 254.54543333333277,
      "v": 66
    },
    {
      "midi": 67,
      "hit": false,
      "t": 53124.995572916574,
      "d": 338.63633541666786,
      "v": 99
    },
    {
      "midi": 69,
      "hit": false,
      "t": 53181.81375000002,
      "d": 327.27270000000135,
      "v": 62
    },
    {
      "midi": 69,
      "hit": false,
      "t": 53447.722818749906,
      "d": 1120.454452083337,
      "v": 104
    },
    {
      "midi": 57,
      "hit": false,
      "t": 53452.268272916685,
      "d": 802.2726604166673,
      "v": 53
    },
    {
      "midi": 65,
      "hit": false,
      "t": 53454.54100000002,
      "d": 918.1817416666672,
      "v": 59
    },
    {
      "midi": 62,
      "hit": false,
      "t": 53456.813727083354,
      "d": 1036.3635500000019,
      "v": 48
    },
    {
      "midi": 62,
      "hit": false,
      "t": 53997.72277291669,
      "d": 2.2727270833347575,
      "v": 60
    },
    {
      "midi": 62,
      "hit": false,
      "t": 54270.450022916695,
      "d": 2.2727270833347575,
      "v": 58
    },
    {
      "midi": 57,
      "hit": false,
      "t": 54270.450022916695,
      "d": 274.99997708333103,
      "v": 51
    },
    {
      "midi": 50,
      "hit": false,
      "t": 54272.72275000003,
      "d": 90.90908333333209,
      "v": 55
    },
    {
      "midi": 65,
      "hit": false,
      "t": 54545.450000000026,
      "d": 159.09089583333116,
      "v": 43
    },
    {
      "midi": 69,
      "hit": false,
      "t": 54545.450000000026,
      "d": 159.09089583333116,
      "v": 57
    },
    {
      "midi": 74,
      "hit": false,
      "t": 54579.54090624991,
      "d": 954.5453750000015,
      "v": 100
    },
    {
      "midi": 65,
      "hit": false,
      "t": 55090.904500000026,
      "d": 249.99997916666325,
      "v": 39
    },
    {
      "midi": 69,
      "hit": false,
      "t": 55090.904500000026,
      "d": 249.99997916666325,
      "v": 57
    },
    {
      "midi": 75,
      "hit": false,
      "t": 55522.722645833244,
      "d": 181.81816666666418,
      "v": 59
    },
    {
      "midi": 50,
      "hit": false,
      "t": 55636.359000000026,
      "d": 563.6363166666633,
      "v": 65
    },
    {
      "midi": 65,
      "hit": false,
      "t": 55636.359000000026,
      "d": 918.1817416666672,
      "v": 59
    },
    {
      "midi": 61,
      "hit": false,
      "t": 55636.359000000026,
      "d": 1070.4544562500014,
      "v": 56
    },
    {
      "midi": 57,
      "hit": false,
      "t": 55679.54081458336,
      "d": 802.2726604166673,
      "v": 53
    },
    {
      "midi": 76,
      "hit": false,
      "t": 55704.54081249991,
      "d": 1022.7271875000006,
      "v": 94
    },
    {
      "midi": 62,
      "hit": false,
      "t": 56181.813500000026,
      "d": 124.99998958333163,
      "v": 59
    },
    {
      "midi": 69,
      "hit": false,
      "t": 56727.268000000025,
      "d": 474.999960416666,
      "v": 67
    },
    {
      "midi": 77,
      "hit": false,
      "t": 56731.81345416658,
      "d": 359.0908791666661,
      "v": 77
    },
    {
      "midi": 78,
      "hit": false,
      "t": 57084.08615208325,
      "d": 347.7272437499996,
      "v": 75
    },
    {
      "midi": 62,
      "hit": false,
      "t": 57272.722500000025,
      "d": 461.36359791666473,
      "v": 62
    },
    {
      "midi": 79,
      "hit": false,
      "t": 57431.81339583325,
      "d": 1431.818062499995,
      "v": 91
    },
    {
      "midi": 62,
      "hit": false,
      "t": 57818.177000000025,
      "d": 513.636320833335,
      "v": 64
    },
    {
      "midi": 65,
      "hit": false,
      "t": 57818.177000000025,
      "d": 918.1817416666745,
      "v": 59
    },
    {
      "midi": 60,
      "hit": false,
      "t": 57822.722454166695,
      "d": 1113.63627083334,
      "v": 56
    },
    {
      "midi": 57,
      "hit": false,
      "t": 57838.63154375003,
      "d": 802.2726604166673,
      "v": 53
    },
    {
      "midi": 65,
      "hit": false,
      "t": 58361.35877291669,
      "d": 568.1817708333328,
      "v": 73
    },
    {
      "midi": 77,
      "hit": false,
      "t": 58834.08600624991,
      "d": 984.0908270833243,
      "v": 78
    },
    {
      "midi": 69,
      "hit": false,
      "t": 58909.086000000025,
      "d": 202.27271041666245,
      "v": 59
    },
    {
      "midi": 65,
      "hit": false,
      "t": 59181.81325000002,
      "d": 265.9090687499993,
      "v": 64
    },
    {
      "midi": 62,
      "hit": false,
      "t": 59454.54050000002,
      "d": 238.63634374999674,
      "v": 58
    },
    {
      "midi": 50,
      "hit": false,
      "t": 59727.26775000001,
      "d": 209.09089166666672,
      "v": 57
    },
    {
      "midi": 62,
      "hit": false,
      "t": 59997.7222729167,
      "d": 1022.7271875000079,
      "v": 56
    },
    {
      "midi": 50,
      "hit": false,
      "t": 60002.267727083345,
      "d": 136.36362499999814,
      "v": 65
    },
    {
      "midi": 67,
      "hit": false,
      "t": 60002.26772708337,
      "d": 993.1817354166706,
      "v": 69
    },
    {
      "midi": 59,
      "hit": false,
      "t": 60004.5404541667,
      "d": 852.2726562500029,
      "v": 48
    },
    {
      "midi": 62,
      "hit": false,
      "t": 60547.722227083344,
      "d": 272.7272499999963,
      "v": 68
    },
    {
      "midi": 76,
      "hit": false,
      "t": 60554.54040833323,
      "d": 513.6363208333278,
      "v": 89
    },
    {
      "midi": 77,
      "hit": false,
      "t": 61061.35854791656,
      "d": 472.72723333333124,
      "v": 94
    },
    {
      "midi": 69,
      "hit": false,
      "t": 61088.631272916675,
      "d": 474.999960416666,
      "v": 68
    },
    {
      "midi": 65,
      "hit": false,
      "t": 61090.90400000001,
      "d": 309.09088333333057,
      "v": 49
    },
    {
      "midi": 78,
      "hit": false,
      "t": 61534.085781249894,
      "d": 129.54544375000114,
      "v": 66
    },
    {
      "midi": 79,
      "hit": false,
      "t": 61636.35849999989,
      "d": 129.54544375000114,
      "v": 66
    },
    {
      "midi": 81,
      "hit": false,
      "t": 61729.54031041656,
      "d": 1997.7271062500004,
      "v": 103
    },
    {
      "midi": 46,
      "hit": false,
      "t": 62181.81300000001,
      "d": 506.81813958333805,
      "v": 77
    },
    {
      "midi": 65,
      "hit": false,
      "t": 62181.81300000004,
      "d": 2349.9998041666695,
      "v": 62
    },
    {
      "midi": 62,
      "hit": false,
      "t": 62181.81300000004,
      "d": 2354.545258333339,
      "v": 56
    },
    {
      "midi": 58,
      "hit": false,
      "t": 62184.08572708337,
      "d": 2338.636168750003,
      "v": 56
    },
    {
      "midi": 69,
      "hit": false,
      "t": 62184.08572708337,
      "d": 2338.636168750003,
      "v": 56
    },
    {
      "midi": 53,
      "hit": false,
      "t": 62727.267500000016,
      "d": 565.9090437499981,
      "v": 71
    },
    {
      "midi": 65,
      "hit": false,
      "t": 63272.722000000016,
      "d": 531.8181374999986,
      "v": 80
    },
    {
      "midi": 77,
      "hit": false,
      "t": 63749.99468749989,
      "d": 290.90906666666706,
      "v": 81
    },
    {
      "midi": 53,
      "hit": false,
      "t": 63818.176500000016,
      "d": 272.72725000000355,
      "v": 58
    },
    {
      "midi": 74,
      "hit": false,
      "t": 64040.90375416656,
      "d": 309.09088333333057,
      "v": 81
    },
    {
      "midi": 45,
      "hit": false,
      "t": 64340.90372916669,
      "d": 2.2727270833347575,
      "v": 63
    },
    {
      "midi": 77,
      "hit": false,
      "t": 64349.99463749989,
      "d": 1572.72714166667,
      "v": 99
    },
    {
      "midi": 62,
      "hit": false,
      "t": 64890.90368333336,
      "d": 140.90907916666038,
      "v": 73
    },
    {
      "midi": 65,
      "hit": false,
      "t": 64899.99459166669,
      "d": 109.0908999999956,
      "v": 49
    },
    {
      "midi": 69,
      "hit": false,
      "t": 64909.08550000002,
      "d": 156.8181687499964,
      "v": 79
    },
    {
      "midi": 60,
      "hit": false,
      "t": 65436.35818333335,
      "d": 145.4545333333299,
      "v": 78
    },
    {
      "midi": 64,
      "hit": false,
      "t": 65445.449091666684,
      "d": 115.9090812499926,
      "v": 45
    },
    {
      "midi": 60,
      "hit": false,
      "t": 65449.994545833375,
      "d": 220.4545270833405,
      "v": 52
    },
    {
      "midi": 67,
      "hit": false,
      "t": 65454.540000000015,
      "d": 111.36362708333036,
      "v": 68
    },
    {
      "midi": 67,
      "hit": false,
      "t": 65454.540000000045,
      "d": 193.18180208333797,
      "v": 57
    },
    {
      "midi": 64,
      "hit": false,
      "t": 65456.81272708338,
      "d": 211.36361875000875,
      "v": 52
    },
    {
      "midi": 76,
      "hit": false,
      "t": 65934.08541458323,
      "d": 115.90908125000715,
      "v": 50
    },
    {
      "midi": 58,
      "hit": false,
      "t": 65981.81268333335,
      "d": 2288.6361729166674,
      "v": 51
    },
    {
      "midi": 62,
      "hit": false,
      "t": 65990.90359166669,
      "d": 2265.9089020833344,
      "v": 64
    },
    {
      "midi": 62,
      "hit": false,
      "t": 65995.44904583339,
      "d": 2270.454356250004,
      "v": 44
    },
    {
      "midi": 65,
      "hit": false,
      "t": 65999.99450000003,
      "d": 2215.908906249999,
      "v": 79
    },
    {
      "midi": 65,
      "hit": false,
      "t": 65999.99450000006,
      "d": 2227.2725416666653,
      "v": 46
    },
    {
      "midi": 58,
      "hit": false,
      "t": 65999.99450000006,
      "d": 2231.817995833335,
      "v": 61
    },
    {
      "midi": 74,
      "hit": false,
      "t": 66056.81267708323,
      "d": 88.63635625000461,
      "v": 52
    },
    {
      "midi": 72,
      "hit": false,
      "t": 66152.26721458323,
      "d": 84.0909020833351,
      "v": 56
    },
    {
      "midi": 71,
      "hit": false,
      "t": 66238.6308437499,
      "d": 79.54544791666558,
      "v": 58
    },
    {
      "midi": 69,
      "hit": false,
      "t": 66322.72174583323,
      "d": 95.4545375000016,
      "v": 56
    },
    {
      "midi": 67,
      "hit": false,
      "t": 66418.17628333323,
      "d": 95.4545375000016,
      "v": 46
    },
    {
      "midi": 65,
      "hit": false,
      "t": 66552.2671812499,
      "d": 936.363558333338,
      "v": 92
    },
    {
      "midi": 67,
      "hit": false,
      "t": 67381.81256666657,
      "d": 231.81816249999974,
      "v": 61
    },
    {
      "midi": 69,
      "hit": false,
      "t": 67640.90345416658,
      "d": 563.6363166666706,
      "v": 91
    },
    {
      "midi": 67,
      "hit": false,
      "t": 68197.72158958325,
      "d": 1029.5453687500121,
      "v": 99
    },
    {
      "midi": 58,
      "hit": false,
      "t": 68727.26700000002,
      "d": 131.81817083334317,
      "v": 52
    },
    {
      "midi": 67,
      "hit": false,
      "t": 68727.26700000007,
      "d": 243.18179791666626,
      "v": 49
    },
    {
      "midi": 58,
      "hit": false,
      "t": 68729.5397270834,
      "d": 220.45452708333323,
      "v": 59
    },
    {
      "midi": 62,
      "hit": false,
      "t": 68734.08518125006,
      "d": 254.54543333333277,
      "v": 66
    },
    {
      "midi": 62,
      "hit": false,
      "t": 68736.35790833336,
      "d": 120.45453541667666,
      "v": 60
    },
    {
      "midi": 65,
      "hit": false,
      "t": 68745.4488166667,
      "d": 154.54544166666165,
      "v": 79
    },
    {
      "midi": 65,
      "hit": false,
      "t": 69240.90332083325,
      "d": 547.7272270833346,
      "v": 99
    },
    {
      "midi": 67,
      "hit": false,
      "t": 69265.90331875006,
      "d": 747.7272104166623,
      "v": 60
    },
    {
      "midi": 58,
      "hit": false,
      "t": 69268.17604583339,
      "d": 768.1817541666678,
      "v": 45
    },
    {
      "midi": 58,
      "hit": false,
      "t": 69272.72150000003,
      "d": 695.4544874999992,
      "v": 49
    },
    {
      "midi": 62,
      "hit": false,
      "t": 69277.26695416673,
      "d": 736.3635749999958,
      "v": 60
    },
    {
      "midi": 62,
      "hit": false,
      "t": 69279.53968125003,
      "d": 706.8181229166657,
      "v": 55
    },
    {
      "midi": 65,
      "hit": false,
      "t": 69290.90331666669,
      "d": 734.0908479166683,
      "v": 75
    },
    {
      "midi": 64,
      "hit": false,
      "t": 69759.08509583326,
      "d": 574.9999520833371,
      "v": 87
    },
    {
      "midi": 65,
      "hit": false,
      "t": 70334.0850479166,
      "d": 8809.090174999932,
      "v": 81
    },
    {
      "midi": 57,
      "hit": false,
      "t": 70363.63050000003,
      "d": 568.1817708333547,
      "v": 71
    },
    {
      "midi": 53,
      "hit": false,
      "t": 70363.63050000003,
      "d": 847.7272020833625,
      "v": 71
    },
    {
      "midi": 57,
      "hit": false,
      "t": 70363.63050000006,
      "d": 5545.45408333333,
      "v": 53
    },
    {
      "midi": 65,
      "hit": false,
      "t": 70363.63050000006,
      "d": 5545.45408333333,
      "v": 62
    },
    {
      "midi": 60,
      "hit": false,
      "t": 70368.17595416673,
      "d": 5556.817718749997,
      "v": 56
    },
    {
      "midi": 60,
      "hit": false,
      "t": 70384.08504375003,
      "d": 538.6363187500101,
      "v": 76
    },
    {
      "midi": 65,
      "hit": false,
      "t": 70404.53958750004,
      "d": 536.3635916666826,
      "v": 67
    },
    {
      "midi": 57,
      "hit": false,
      "t": 71454.53950000006,
      "d": 340.90906249999534,
      "v": 60
    },
    {
      "midi": 60,
      "hit": false,
      "t": 71727.26675000005,
      "d": 529.5454104166565,
      "v": 68
    },
    {
      "midi": 53,
      "hit": false,
      "t": 71999.99400000005,
      "d": 343.1817895833228,
      "v": 56
    },
    {
      "midi": 65,
      "hit": false,
      "t": 72272.72125000005,
      "d": 259.09088749998773,
      "v": 63
    },
    {
      "midi": 60,
      "hit": false,
      "t": 72545.44850000003,
      "d": 313.6363374999928,
      "v": 46
    },
    {
      "midi": 57,
      "hit": false,
      "t": 72818.17575000002,
      "d": 268.18179583332676,
      "v": 56
    },
    {
      "midi": 53,
      "hit": false,
      "t": 73090.90300000002,
      "d": 470.4545062499965,
      "v": 64
    },
    {
      "midi": 57,
      "hit": false,
      "t": 73638.63022708335,
      "d": 718.1817583333323,
      "v": 58
    },
    {
      "midi": 60,
      "hit": false,
      "t": 73909.08475000002,
      "d": 499.9999583333265,
      "v": 59
    },
    {
      "midi": 53,
      "hit": false,
      "t": 74181.81200000002,
      "d": 470.4545062499965,
      "v": 53
    },
    {
      "midi": 65,
      "hit": false,
      "t": 74454.53925000002,
      "d": 263.6363416666718,
      "v": 61
    },
    {
      "midi": 60,
      "hit": false,
      "t": 74727.26650000003,
      "d": 261.36361458332976,
      "v": 50
    },
    {
      "midi": 57,
      "hit": false,
      "t": 74999.99375000002,
      "d": 165.90907708332816,
      "v": 62
    },
    {
      "midi": 53,
      "hit": false,
      "t": 75272.72100000002,
      "d": 470.4545062499965,
      "v": 64
    },
    {
      "midi": 57,
      "hit": false,
      "t": 75818.17550000001,
      "d": 340.90906249999534,
      "v": 60
    },
    {
      "midi": 60,
      "hit": false,
      "t": 76090.90275000001,
      "d": 529.5454104166565,
      "v": 70
    },
    {
      "midi": 53,
      "hit": false,
      "t": 76363.63,
      "d": 343.1817895833228,
      "v": 56
    },
    {
      "midi": 65,
      "hit": false,
      "t": 76636.35725,
      "d": 259.09088749998773,
      "v": 72
    },
    {
      "midi": 60,
      "hit": false,
      "t": 76909.08449999998,
      "d": 313.6363374999928,
      "v": 46
    },
    {
      "midi": 57,
      "hit": false,
      "t": 77181.81174999998,
      "d": 268.18179583332676,
      "v": 56
    },
    {
      "midi": 53,
      "hit": false,
      "t": 77454.53899999998,
      "d": 470.4545062499965,
      "v": 64
    },
    {
      "midi": 57,
      "hit": false,
      "t": 78002.26622708331,
      "d": 718.1817583333323,
      "v": 63
    },
    {
      "midi": 60,
      "hit": false,
      "t": 78272.72074999998,
      "d": 499.9999583333265,
      "v": 63
    },
    {
      "midi": 65,
      "hit": false,
      "t": 78545.44799999997,
      "d": 470.4545062499965,
      "v": 53
    },
    {
      "midi": 60,
      "hit": false,
      "t": 79090.90249999997,
      "d": 261.36361458332976,
      "v": 50
    },
    {
      "midi": 56,
      "hit": false,
      "t": 79636.35699999996,
      "d": 470.4545062499965,
      "v": 63
    },
    {
      "midi": 36,
      "hit": false,
      "t": 79636.357,
      "d": 365.9090604166704,
      "v": 81
    },
    {
      "midi": 80,
      "hit": false,
      "t": 79636.357,
      "d": 111.36362708333763,
      "v": 39
    },
    {
      "midi": 60,
      "hit": false,
      "t": 79636.35700000005,
      "d": 665.9090354166547,
      "v": 63
    },
    {
      "midi": 63,
      "hit": false,
      "t": 79638.62972708337,
      "d": 406.81814791666693,
      "v": 68
    },
    {
      "midi": 44,
      "hit": false,
      "t": 79640.90245416667,
      "d": 4268.181462499997,
      "v": 86
    },
    {
      "midi": 56,
      "hit": false,
      "t": 79652.26608958337,
      "d": 665.9090354166692,
      "v": 65
    },
    {
      "midi": 42,
      "hit": false,
      "t": 79659.08427083334,
      "d": 152.27271458333416,
      "v": 55
    },
    {
      "midi": 58,
      "hit": false,
      "t": 79661.35699791671,
      "d": 406.81814791666693,
      "v": 52
    },
    {
      "midi": 80,
      "hit": false,
      "t": 79915.90243125001,
      "d": 152.27271458333416,
      "v": 32
    },
    {
      "midi": 60,
      "hit": false,
      "t": 80181.81149999995,
      "d": 340.90906249999534,
      "v": 59
    },
    {
      "midi": 81,
      "hit": false,
      "t": 80181.81150000001,
      "d": 456.8181437500025,
      "v": 50
    },
    {
      "midi": 42,
      "hit": false,
      "t": 80186.35695416667,
      "d": 154.54544166666165,
      "v": 45
    },
    {
      "midi": 63,
      "hit": false,
      "t": 80454.53874999995,
      "d": 529.5454104166565,
      "v": 70
    },
    {
      "midi": 80,
      "hit": false,
      "t": 80724.99327291668,
      "d": 143.18180624999513,
      "v": 32
    },
    {
      "midi": 56,
      "hit": false,
      "t": 80727.26599999995,
      "d": 343.1817895833228,
      "v": 54
    },
    {
      "midi": 42,
      "hit": false,
      "t": 80734.08418125,
      "d": 131.81817083332862,
      "v": 45
    },
    {
      "midi": 68,
      "hit": false,
      "t": 80999.99324999994,
      "d": 259.09088749998773,
      "v": 72
    },
    {
      "midi": 80,
      "hit": false,
      "t": 81006.81143125001,
      "d": 193.1818020833307,
      "v": 39
    },
    {
      "midi": 81,
      "hit": false,
      "t": 81270.44777291667,
      "d": 415.90905625000596,
      "v": 57
    },
    {
      "midi": 63,
      "hit": false,
      "t": 81272.72049999992,
      "d": 313.6363374999928,
      "v": 43
    },
    {
      "midi": 42,
      "hit": false,
      "t": 81274.99322708332,
      "d": 147.72726041666465,
      "v": 45
    },
    {
      "midi": 60,
      "hit": false,
      "t": 81545.44774999992,
      "d": 268.18179583332676,
      "v": 54
    },
    {
      "midi": 60,
      "hit": false,
      "t": 81784.08409375,
      "d": 636.3635833333246,
      "v": 103
    },
    {
      "midi": 60,
      "hit": false,
      "t": 81784.08409375,
      "d": 636.3635833333392,
      "v": 103
    },
    {
      "midi": 42,
      "hit": false,
      "t": 81813.62954583332,
      "d": 138.63635208334017,
      "v": 47
    },
    {
      "midi": 56,
      "hit": false,
      "t": 81818.17499999992,
      "d": 470.4545062499965,
      "v": 63
    },
    {
      "midi": 37,
      "hit": false,
      "t": 81818.175,
      "d": 174.9999854166672,
      "v": 86
    },
    {
      "midi": 80,
      "hit": false,
      "t": 81822.72045416667,
      "d": 136.36362499999814,
      "v": 39
    },
    {
      "midi": 80,
      "hit": false,
      "t": 82099.99315833334,
      "d": 195.45452916667273,
      "v": 39
    },
    {
      "midi": 42,
      "hit": false,
      "t": 82359.08404583333,
      "d": 143.18180624999513,
      "v": 45
    },
    {
      "midi": 81,
      "hit": false,
      "t": 82363.62950000001,
      "d": 449.9999625000055,
      "v": 62
    },
    {
      "midi": 60,
      "hit": false,
      "t": 82365.90222708325,
      "d": 718.1817583333323,
      "v": 62
    },
    {
      "midi": 61,
      "hit": false,
      "t": 82420.44767708333,
      "d": 956.818102083329,
      "v": 97
    },
    {
      "midi": 61,
      "hit": false,
      "t": 82420.44767708334,
      "d": 956.818102083329,
      "v": 97
    },
    {
      "midi": 63,
      "hit": false,
      "t": 82636.35674999992,
      "d": 499.9999583333265,
      "v": 62
    },
    {
      "midi": 42,
      "hit": false,
      "t": 82902.26581874999,
      "d": 136.36362499999814,
      "v": 45
    },
    {
      "midi": 80,
      "hit": false,
      "t": 82906.81127291668,
      "d": 140.90907916666765,
      "v": 39
    },
    {
      "midi": 68,
      "hit": false,
      "t": 82909.08399999992,
      "d": 470.4545062499965,
      "v": 51
    },
    {
      "midi": 80,
      "hit": false,
      "t": 83188.62943125001,
      "d": 193.1818020833307,
      "v": 39
    },
    {
      "midi": 60,
      "hit": false,
      "t": 83377.26577916666,
      "d": 277.2727041666658,
      "v": 97
    },
    {
      "midi": 60,
      "hit": false,
      "t": 83377.26577916667,
      "d": 277.2727041666658,
      "v": 97
    },
    {
      "midi": 42,
      "hit": false,
      "t": 83440.90213749999,
      "d": 143.18180624999513,
      "v": 55
    },
    {
      "midi": 63,
      "hit": false,
      "t": 83454.53849999991,
      "d": 261.36361458332976,
      "v": 48
    },
    {
      "midi": 36,
      "hit": false,
      "t": 83454.53850000001,
      "d": 184.09089375000622,
      "v": 81
    },
    {
      "midi": 81,
      "hit": false,
      "t": 83454.53850000001,
      "d": 440.90905416666646,
      "v": 54
    },
    {
      "midi": 61,
      "hit": false,
      "t": 83654.53848333332,
      "d": 361.3636062500009,
      "v": 96
    },
    {
      "midi": 61,
      "hit": false,
      "t": 83654.53848333334,
      "d": 361.3636062500009,
      "v": 96
    },
    {
      "midi": 36,
      "hit": false,
      "t": 83977.26572916667,
      "d": 3643.181514583339,
      "v": 92
    },
    {
      "midi": 55,
      "hit": false,
      "t": 83999.9929999999,
      "d": 470.4545062499965,
      "v": 63
    },
    {
      "midi": 60,
      "hit": false,
      "t": 83999.99300000003,
      "d": 665.9090354166547,
      "v": 64
    },
    {
      "midi": 36,
      "hit": false,
      "t": 84002.26572708334,
      "d": 197.7272562500002,
      "v": 82
    },
    {
      "midi": 80,
      "hit": false,
      "t": 84002.26572708334,
      "d": 147.72726041666465,
      "v": 28
    },
    {
      "midi": 63,
      "hit": false,
      "t": 84002.26572708336,
      "d": 406.81814791666693,
      "v": 63
    },
    {
      "midi": 42,
      "hit": false,
      "t": 84006.81118124998,
      "d": 147.72726041666465,
      "v": 45
    },
    {
      "midi": 63,
      "hit": false,
      "t": 84015.90208958332,
      "d": 1984.09074374997,
      "v": 101
    },
    {
      "midi": 63,
      "hit": false,
      "t": 84015.90208958334,
      "d": 1984.090743749999,
      "v": 101
    },
    {
      "midi": 55,
      "hit": false,
      "t": 84015.90208958335,
      "d": 665.9090354166692,
      "v": 58
    },
    {
      "midi": 58,
      "hit": false,
      "t": 84024.99299791669,
      "d": 406.81814791666693,
      "v": 52
    },
    {
      "midi": 80,
      "hit": false,
      "t": 84281.81115833334,
      "d": 177.27271249999467,
      "v": 39
    },
    {
      "midi": 81,
      "hit": false,
      "t": 84543.17477291667,
      "d": 459.09087083333,
      "v": 47
    },
    {
      "midi": 63,
      "hit": false,
      "t": 84545.4474999999,
      "d": 340.90906249999534,
      "v": 59
    },
    {
      "midi": 42,
      "hit": false,
      "t": 84563.62931666664,
      "d": 140.90907916666765,
      "v": 51
    },
    {
      "midi": 67,
      "hit": false,
      "t": 84818.17474999989,
      "d": 529.5454104166565,
      "v": 70
    },
    {
      "midi": 55,
      "hit": false,
      "t": 85090.90199999989,
      "d": 343.1817895833228,
      "v": 54
    },
    {
      "midi": 80,
      "hit": false,
      "t": 85090.902,
      "d": 124.99998958333163,
      "v": 32
    },
    {
      "midi": 42,
      "hit": false,
      "t": 85111.35654374998,
      "d": 147.72726041666465,
      "v": 45
    },
    {
      "midi": 70,
      "hit": false,
      "t": 85363.62924999988,
      "d": 259.09088749998773,
      "v": 72
    },
    {
      "midi": 80,
      "hit": false,
      "t": 85374.99288541666,
      "d": 159.09089583333116,
      "v": 28
    },
    {
      "midi": 81,
      "hit": false,
      "t": 85634.08377291667,
      "d": 454.54541666666046,
      "v": 47
    },
    {
      "midi": 67,
      "hit": false,
      "t": 85636.35649999986,
      "d": 313.6363374999928,
      "v": 43
    },
    {
      "midi": 42,
      "hit": false,
      "t": 85661.35649791664,
      "d": 127.27271666667366,
      "v": 45
    },
    {
      "midi": 63,
      "hit": false,
      "t": 85909.08374999986,
      "d": 268.18179583332676,
      "v": 54
    },
    {
      "midi": 70,
      "hit": false,
      "t": 86168.17463749996,
      "d": 740.9090291666653,
      "v": 102
    },
    {
      "midi": 70,
      "hit": false,
      "t": 86168.17463750001,
      "d": 740.9090291666653,
      "v": 102
    },
    {
      "midi": 80,
      "hit": false,
      "t": 86177.26554583333,
      "d": 134.09089791667066,
      "v": 39
    },
    {
      "midi": 55,
      "hit": false,
      "t": 86181.81099999986,
      "d": 470.4545062499965,
      "v": 63
    },
    {
      "midi": 37,
      "hit": false,
      "t": 86181.81100000002,
      "d": 179.5454395833367,
      "v": 91
    },
    {
      "midi": 42,
      "hit": false,
      "t": 86190.90190833331,
      "d": 136.36362499999814,
      "v": 45
    },
    {
      "midi": 80,
      "hit": false,
      "t": 86463.62915833334,
      "d": 147.72726041666465,
      "v": 32
    },
    {
      "midi": 63,
      "hit": false,
      "t": 86729.53822708319,
      "d": 718.1817583333323,
      "v": 62
    },
    {
      "midi": 81,
      "hit": false,
      "t": 86729.53822708334,
      "d": 459.09087083333,
      "v": 56
    },
    {
      "midi": 42,
      "hit": false,
      "t": 86747.72004374997,
      "d": 145.45453333333717,
      "v": 45
    },
    {
      "midi": 68,
      "hit": false,
      "t": 86918.17457499997,
      "d": 756.8181187499868,
      "v": 104
    },
    {
      "midi": 68,
      "hit": false,
      "t": 86918.17457500001,
      "d": 756.8181187500013,
      "v": 104
    },
    {
      "midi": 67,
      "hit": false,
      "t": 86999.99274999986,
      "d": 499.9999583333265,
      "v": 62
    },
    {
      "midi": 80,
      "hit": false,
      "t": 87270.44727291666,
      "d": 124.99998958333163,
      "v": 39
    },
    {
      "midi": 70,
      "hit": false,
      "t": 87272.71999999986,
      "d": 470.4545062499965,
      "v": 51
    },
    {
      "midi": 42,
      "hit": false,
      "t": 87281.81090833331,
      "d": 138.63635208334017,
      "v": 45
    },
    {
      "midi": 80,
      "hit": false,
      "t": 87554.53815833332,
      "d": 143.18180624999513,
      "v": 28
    },
    {
      "midi": 67,
      "hit": false,
      "t": 87656.81087708329,
      "d": 661.3635812499851,
      "v": 103
    },
    {
      "midi": 67,
      "hit": false,
      "t": 87656.81087708335,
      "d": 661.3635812499997,
      "v": 103
    },
    {
      "midi": 81,
      "hit": false,
      "t": 87813.62904583332,
      "d": 445.454508333336,
      "v": 50
    },
    {
      "midi": 36,
      "hit": false,
      "t": 87813.62904583334,
      "d": 456.8181437500025,
      "v": 74
    },
    {
      "midi": 67,
      "hit": false,
      "t": 87818.17449999985,
      "d": 261.36361458332976,
      "v": 48
    },
    {
      "midi": 42,
      "hit": false,
      "t": 87818.17449999998,
      "d": 147.72726041666465,
      "v": 45
    },
    {
      "midi": 67,
      "hit": false,
      "t": 88347.7199104166,
      "d": 320.45451875000435,
      "v": 103
    },
    {
      "midi": 67,
      "hit": false,
      "t": 88347.71991041668,
      "d": 320.45451875000435,
      "v": 103
    },
    {
      "midi": 56,
      "hit": false,
      "t": 88363.62899999984,
      "d": 470.4545062499965,
      "v": 63
    },
    {
      "midi": 42,
      "hit": false,
      "t": 88363.62899999997,
      "d": 147.72726041666465,
      "v": 45
    },
    {
      "midi": 65,
      "hit": false,
      "t": 88363.62900000002,
      "d": 545.4544999999925,
      "v": 47
    },
    {
      "midi": 80,
      "hit": false,
      "t": 88365.90172708333,
      "d": 131.81817083332862,
      "v": 39
    },
    {
      "midi": 63,
      "hit": false,
      "t": 88365.90172708334,
      "d": 406.81814791666693,
      "v": 55
    },
    {
      "midi": 36,
      "hit": false,
      "t": 88365.90172708336,
      "d": 154.54544166666165,
      "v": 81
    },
    {
      "midi": 56,
      "hit": false,
      "t": 88388.62899791668,
      "d": 406.81814791666693,
      "v": 49
    },
    {
      "midi": 60,
      "hit": false,
      "t": 88388.62899791668,
      "d": 406.81814791666693,
      "v": 59
    },
    {
      "midi": 37,
      "hit": false,
      "t": 88388.62899791668,
      "d": 2652.272506249996,
      "v": 78
    },
    {
      "midi": 80,
      "hit": false,
      "t": 88645.44715833332,
      "d": 140.90907916666765,
      "v": 28
    },
    {
      "midi": 68,
      "hit": false,
      "t": 88647.7198854166,
      "d": 311.3636104166653,
      "v": 97
    },
    {
      "midi": 68,
      "hit": false,
      "t": 88647.71988541668,
      "d": 311.3636104166653,
      "v": 97
    },
    {
      "midi": 61,
      "hit": false,
      "t": 88909.08349999983,
      "d": 340.90906249999534,
      "v": 59
    },
    {
      "midi": 81,
      "hit": false,
      "t": 88909.0835,
      "d": 415.90905625000596,
      "v": 51
    },
    {
      "midi": 42,
      "hit": false,
      "t": 88929.53804374997,
      "d": 140.90907916666765,
      "v": 54
    },
    {
      "midi": 65,
      "hit": false,
      "t": 88940.9016791666,
      "d": 2468.181612499975,
      "v": 95
    },
    {
      "midi": 65,
      "hit": false,
      "t": 88940.90167916668,
      "d": 2468.1816124999896,
      "v": 95
    },
    {
      "midi": 65,
      "hit": false,
      "t": 89181.81074999983,
      "d": 529.5454104166565,
      "v": 70
    },
    {
      "midi": 56,
      "hit": false,
      "t": 89454.53799999983,
      "d": 343.1817895833228,
      "v": 54
    },
    {
      "midi": 80,
      "hit": false,
      "t": 89456.81072708333,
      "d": 129.54544375000114,
      "v": 39
    },
    {
      "midi": 42,
      "hit": false,
      "t": 89486.35617916664,
      "d": 159.09089583333116,
      "v": 45
    },
    {
      "midi": 68,
      "hit": false,
      "t": 89727.26524999982,
      "d": 259.09088749998773,
      "v": 72
    },
    {
      "midi": 80,
      "hit": false,
      "t": 89736.35615833334,
      "d": 129.54544375000114,
      "v": 36
    },
    {
      "midi": 65,
      "hit": false,
      "t": 89999.9924999998,
      "d": 313.6363374999928,
      "v": 43
    },
    {
      "midi": 42,
      "hit": false,
      "t": 90004.53795416665,
      "d": 163.63635000000068,
      "v": 45
    },
    {
      "midi": 81,
      "hit": false,
      "t": 90004.53795416668,
      "d": 436.36359999999695,
      "v": 49
    },
    {
      "midi": 61,
      "hit": false,
      "t": 90272.7197499998,
      "d": 268.18179583332676,
      "v": 54
    },
    {
      "midi": 37,
      "hit": false,
      "t": 90543.17427291669,
      "d": 156.81816875000368,
      "v": 102
    },
    {
      "midi": 56,
      "hit": false,
      "t": 90545.4469999998,
      "d": 470.4545062499965,
      "v": 63
    },
    {
      "midi": 80,
      "hit": false,
      "t": 90547.71972708334,
      "d": 131.81817083332862,
      "v": 36
    },
    {
      "midi": 42,
      "hit": false,
      "t": 90556.81063541665,
      "d": 147.72726041666465,
      "v": 45
    },
    {
      "midi": 80,
      "hit": false,
      "t": 90827.26515833334,
      "d": 136.36362499999814,
      "v": 36
    },
    {
      "midi": 81,
      "hit": false,
      "t": 91090.9015,
      "d": 434.09087291666947,
      "v": 53
    },
    {
      "midi": 61,
      "hit": false,
      "t": 91093.17422708313,
      "d": 718.1817583333323,
      "v": 62
    },
    {
      "midi": 42,
      "hit": false,
      "t": 91106.81058958331,
      "d": 156.81816875000368,
      "v": 45
    },
    {
      "midi": 44,
      "hit": false,
      "t": 91106.81058958334,
      "d": 1034.090822916667,
      "v": 74
    },
    {
      "midi": 65,
      "hit": false,
      "t": 91363.6287499998,
      "d": 499.9999583333265,
      "v": 62
    },
    {
      "midi": 56,
      "hit": false,
      "t": 91579.53782291658,
      "d": 190.9090750000032,
      "v": 89
    },
    {
      "midi": 56,
      "hit": false,
      "t": 91579.53782291667,
      "d": 190.9090750000032,
      "v": 95
    },
    {
      "midi": 68,
      "hit": false,
      "t": 91636.3559999998,
      "d": 470.4545062499965,
      "v": 51
    },
    {
      "midi": 80,
      "hit": false,
      "t": 91636.35600000001,
      "d": 122.72726250000414,
      "v": 39
    },
    {
      "midi": 42,
      "hit": false,
      "t": 91654.53781666665,
      "d": 143.18180624999513,
      "v": 47
    },
    {
      "midi": 58,
      "hit": false,
      "t": 91749.99235416658,
      "d": 218.18180000000575,
      "v": 85
    },
    {
      "midi": 58,
      "hit": false,
      "t": 91749.99235416666,
      "d": 218.18180000000575,
      "v": 91
    },
    {
      "midi": 80,
      "hit": false,
      "t": 91915.90143125002,
      "d": 120.45453541666211,
      "v": 28
    },
    {
      "midi": 56,
      "hit": false,
      "t": 91931.81052083326,
      "d": 268.18179583332676,
      "v": 93
    },
    {
      "midi": 56,
      "hit": false,
      "t": 91931.81052083334,
      "d": 268.18179583332676,
      "v": 99
    },
    {
      "midi": 65,
      "hit": false,
      "t": 92181.81049999979,
      "d": 261.36361458332976,
      "v": 48
    },
    {
      "midi": 55,
      "hit": false,
      "t": 92181.81049999992,
      "d": 165.90907708332816,
      "v": 93
    },
    {
      "midi": 55,
      "hit": false,
      "t": 92181.8105,
      "d": 165.90907708332816,
      "v": 99
    },
    {
      "midi": 36,
      "hit": false,
      "t": 92181.81050000002,
      "d": 165.90907708332816,
      "v": 82
    },
    {
      "midi": 42,
      "hit": false,
      "t": 92184.0832270833,
      "d": 145.45453333333717,
      "v": 51
    },
    {
      "midi": 81,
      "hit": false,
      "t": 92184.08322708335,
      "d": 431.81814583332743,
      "v": 54
    },
    {
      "midi": 32,
      "hit": false,
      "t": 92222.7195875,
      "d": 456.8181437500025,
      "v": 70
    },
    {
      "midi": 56,
      "hit": false,
      "t": 92331.81048749991,
      "d": 224.99998125000275,
      "v": 77
    },
    {
      "midi": 56,
      "hit": false,
      "t": 92331.8104875,
      "d": 224.99998125000275,
      "v": 83
    },
    {
      "midi": 58,
      "hit": false,
      "t": 92538.62865208325,
      "d": 188.63634791666118,
      "v": 85
    },
    {
      "midi": 58,
      "hit": false,
      "t": 92538.62865208334,
      "d": 188.63634791666118,
      "v": 91
    },
    {
      "midi": 80,
      "hit": false,
      "t": 92724.99227291667,
      "d": 140.90907916666765,
      "v": 39
    },
    {
      "midi": 56,
      "hit": false,
      "t": 92727.26499999978,
      "d": 470.4545062499965,
      "v": 63
    },
    {
      "midi": 36,
      "hit": false,
      "t": 92731.81045416668,
      "d": 177.27271249999467,
      "v": 87
    },
    {
      "midi": 42,
      "hit": false,
      "t": 92736.35590833331,
      "d": 154.54544166666165,
      "v": 54
    },
    {
      "midi": 64,
      "hit": false,
      "t": 92752.26499791657,
      "d": 997.7271895833255,
      "v": 94
    },
    {
      "midi": 64,
      "hit": false,
      "t": 92752.26499791666,
      "d": 997.7271895833401,
      "v": 94
    },
    {
      "midi": 59,
      "hit": false,
      "t": 92752.26499791669,
      "d": 406.8181479166524,
      "v": 51
    },
    {
      "midi": 37,
      "hit": false,
      "t": 92759.08317916667,
      "d": 2097.727097916664,
      "v": 91
    },
    {
      "midi": 64,
      "hit": false,
      "t": 92774.99226875002,
      "d": 406.8181479166524,
      "v": 43
    },
    {
      "midi": 61,
      "hit": false,
      "t": 92788.62863125002,
      "d": 552.2726812499895,
      "v": 42
    },
    {
      "midi": 68,
      "hit": false,
      "t": 92788.62863125002,
      "d": 665.9090354166547,
      "v": 62
    },
    {
      "midi": 80,
      "hit": false,
      "t": 93009.08315833333,
      "d": 129.54544375000114,
      "v": 28
    },
    {
      "midi": 61,
      "hit": false,
      "t": 93272.71949999977,
      "d": 340.90906249999534,
      "v": 59
    },
    {
      "midi": 81,
      "hit": false,
      "t": 93272.7195,
      "d": 452.272689583333,
      "v": 47
    },
    {
      "midi": 42,
      "hit": false,
      "t": 93274.9922270833,
      "d": 154.54544166666165,
      "v": 45
    },
    {
      "midi": 64,
      "hit": false,
      "t": 93545.44674999977,
      "d": 529.5454104166565,
      "v": 70
    },
    {
      "midi": 71,
      "hit": false,
      "t": 93797.71945624989,
      "d": 543.1817729166651,
      "v": 106
    },
    {
      "midi": 71,
      "hit": false,
      "t": 93797.71945625,
      "d": 543.1817729166651,
      "v": 106
    },
    {
      "midi": 80,
      "hit": false,
      "t": 93815.90127291667,
      "d": 124.99998958333163,
      "v": 32
    },
    {
      "midi": 56,
      "hit": false,
      "t": 93818.17399999977,
      "d": 343.1817895833228,
      "v": 54
    },
    {
      "midi": 42,
      "hit": false,
      "t": 93831.81036249996,
      "d": 134.09089791667066,
      "v": 45
    },
    {
      "midi": 68,
      "hit": false,
      "t": 94090.90124999976,
      "d": 259.09088749998773,
      "v": 72
    },
    {
      "midi": 80,
      "hit": false,
      "t": 94099.99215833333,
      "d": 143.18180624999513,
      "v": 32
    },
    {
      "midi": 42,
      "hit": false,
      "t": 94349.99213749997,
      "d": 143.18180624999513,
      "v": 45
    },
    {
      "midi": 64,
      "hit": false,
      "t": 94363.62849999974,
      "d": 313.6363374999928,
      "v": 43
    },
    {
      "midi": 81,
      "hit": false,
      "t": 94363.62849999999,
      "d": 434.09087291666947,
      "v": 47
    },
    {
      "midi": 63,
      "hit": false,
      "t": 94365.90122708322,
      "d": 1099.9999083333532,
      "v": 104
    },
    {
      "midi": 63,
      "hit": false,
      "t": 94365.90122708332,
      "d": 1099.9999083333387,
      "v": 104
    },
    {
      "midi": 61,
      "hit": false,
      "t": 94636.35574999974,
      "d": 268.1817958333413,
      "v": 54
    },
    {
      "midi": 42,
      "hit": false,
      "t": 94895.44663749996,
      "d": 138.63635208334017,
      "v": 45
    },
    {
      "midi": 70,
      "hit": false,
      "t": 94902.26481875,
      "d": 665.9090354166547,
      "v": 71
    },
    {
      "midi": 39,
      "hit": false,
      "t": 94906.81027291667,
      "d": 2090.908916666667,
      "v": 78
    },
    {
      "midi": 58,
      "hit": false,
      "t": 94909.08299999975,
      "d": 470.4545062499965,
      "v": 63
    },
    {
      "midi": 80,
      "hit": false,
      "t": 94909.083,
      "d": 111.36362708333763,
      "v": 32
    },
    {
      "midi": 37,
      "hit": false,
      "t": 94909.08300000001,
      "d": 168.1818041666702,
      "v": 114
    },
    {
      "midi": 61,
      "hit": false,
      "t": 94911.35572708334,
      "d": 406.8181479166524,
      "v": 41
    },
    {
      "midi": 65,
      "hit": false,
      "t": 94924.99208958333,
      "d": 529.5454104166565,
      "v": 59
    },
    {
      "midi": 63,
      "hit": false,
      "t": 94924.99208958333,
      "d": 552.2726812499895,
      "v": 38
    },
    {
      "midi": 80,
      "hit": false,
      "t": 95188.62843125,
      "d": 131.81817083332862,
      "v": 32
    },
    {
      "midi": 63,
      "hit": false,
      "t": 95456.81022708309,
      "d": 718.1817583333323,
      "v": 62
    },
    {
      "midi": 61,
      "hit": false,
      "t": 95456.81022708323,
      "d": 974.9999187500216,
      "v": 102
    },
    {
      "midi": 61,
      "hit": false,
      "t": 95456.81022708332,
      "d": 974.999918750007,
      "v": 102
    },
    {
      "midi": 81,
      "hit": false,
      "t": 95456.81022708333,
      "d": 447.72723541666346,
      "v": 54
    },
    {
      "midi": 42,
      "hit": false,
      "t": 95477.2647708333,
      "d": 143.18180624999513,
      "v": 45
    },
    {
      "midi": 68,
      "hit": false,
      "t": 95727.26474999975,
      "d": 499.9999583333265,
      "v": 62
    },
    {
      "midi": 70,
      "hit": false,
      "t": 95999.99199999975,
      "d": 470.4545062499965,
      "v": 51
    },
    {
      "midi": 80,
      "hit": false,
      "t": 95999.992,
      "d": 129.54544375000114,
      "v": 39
    },
    {
      "midi": 42,
      "hit": false,
      "t": 96013.62836249996,
      "d": 147.72726041666465,
      "v": 47
    },
    {
      "midi": 80,
      "hit": false,
      "t": 96281.81015833333,
      "d": 124.99998958333163,
      "v": 39
    },
    {
      "midi": 56,
      "hit": false,
      "t": 96479.53741458325,
      "d": 315.90906458333484,
      "v": 104
    },
    {
      "midi": 56,
      "hit": false,
      "t": 96479.53741458332,
      "d": 315.90906458333484,
      "v": 104
    },
    {
      "midi": 42,
      "hit": false,
      "t": 96543.17377291663,
      "d": 140.90907916666765,
      "v": 45
    },
    {
      "midi": 68,
      "hit": false,
      "t": 96545.44649999974,
      "d": 261.36361458332976,
      "v": 48
    },
    {
      "midi": 81,
      "hit": false,
      "t": 96547.71922708333,
      "d": 452.272689583333,
      "v": 47
    },
    {
      "midi": 58,
      "hit": false,
      "t": 96797.71920624991,
      "d": 293.1817937500018,
      "v": 104
    },
    {
      "midi": 58,
      "hit": false,
      "t": 96797.71920624998,
      "d": 293.1817937500018,
      "v": 104
    },
    {
      "midi": 80,
      "hit": false,
      "t": 97088.62827291667,
      "d": 111.36362708333763,
      "v": 39
    },
    {
      "midi": 36,
      "hit": false,
      "t": 97088.62827291669,
      "d": 156.81816875000368,
      "v": 82
    },
    {
      "midi": 56,
      "hit": false,
      "t": 97090.90099999974,
      "d": 470.4545062499965,
      "v": 63
    },
    {
      "midi": 44,
      "hit": false,
      "t": 97090.901,
      "d": 4268.181462499997,
      "v": 86
    },
    {
      "midi": 60,
      "hit": false,
      "t": 97095.44645416658,
      "d": 265.9090687499993,
      "v": 86
    },
    {
      "midi": 60,
      "hit": false,
      "t": 97095.44645416665,
      "d": 265.9090687499993,
      "v": 96
    },
    {
      "midi": 42,
      "hit": false,
      "t": 97113.6282708333,
      "d": 152.27271458333416,
      "v": 55
    },
    {
      "midi": 60,
      "hit": false,
      "t": 97129.53736041665,
      "d": 665.9090354166547,
      "v": 65
    },
    {
      "midi": 63,
      "hit": false,
      "t": 97131.81008749998,
      "d": 406.81814791666693,
      "v": 70
    },
    {
      "midi": 56,
      "hit": false,
      "t": 97145.44644999997,
      "d": 665.9090354166692,
      "v": 60
    },
    {
      "midi": 58,
      "hit": false,
      "t": 97154.53735833331,
      "d": 406.81814791666693,
      "v": 58
    },
    {
      "midi": 61,
      "hit": false,
      "t": 97361.35552291658,
      "d": 272.7272499999963,
      "v": 92
    },
    {
      "midi": 61,
      "hit": false,
      "t": 97361.35552291665,
      "d": 272.7272499999963,
      "v": 102
    },
    {
      "midi": 80,
      "hit": false,
      "t": 97372.71915833335,
      "d": 152.27271458333416,
      "v": 32
    },
    {
      "midi": 60,
      "hit": false,
      "t": 97634.08277291658,
      "d": 274.99997708332376,
      "v": 87
    },
    {
      "midi": 60,
      "hit": false,
      "t": 97634.08277291665,
      "d": 274.9999770833383,
      "v": 97
    },
    {
      "midi": 60,
      "hit": false,
      "t": 97636.35549999973,
      "d": 340.90906249999534,
      "v": 59
    },
    {
      "midi": 81,
      "hit": false,
      "t": 97638.62822708335,
      "d": 456.8181437500025,
      "v": 50
    },
    {
      "midi": 42,
      "hit": false,
      "t": 97640.90095416663,
      "d": 154.54544166666165,
      "v": 45
    },
    {
      "midi": 63,
      "hit": false,
      "t": 97909.08274999972,
      "d": 529.5454104166565,
      "v": 70
    },
    {
      "midi": 61,
      "hit": false,
      "t": 97909.0827499999,
      "d": 320.4545187499898,
      "v": 103
    },
    {
      "midi": 61,
      "hit": false,
      "t": 97909.08274999999,
      "d": 320.4545187499898,
      "v": 103
    },
    {
      "midi": 63,
      "hit": false,
      "t": 98177.26454583323,
      "d": 1579.545322916645,
      "v": 102
    },
    {
      "midi": 63,
      "hit": false,
      "t": 98177.26454583331,
      "d": 1579.5453229166596,
      "v": 102
    },
    {
      "midi": 56,
      "hit": false,
      "t": 98181.80999999972,
      "d": 343.1817895833228,
      "v": 54
    },
    {
      "midi": 80,
      "hit": false,
      "t": 98181.81000000001,
      "d": 143.18180624999513,
      "v": 32
    },
    {
      "midi": 42,
      "hit": false,
      "t": 98188.62818124997,
      "d": 131.81817083332862,
      "v": 45
    },
    {
      "midi": 68,
      "hit": false,
      "t": 98454.53724999972,
      "d": 259.09088749998773,
      "v": 72
    },
    {
      "midi": 80,
      "hit": false,
      "t": 98465.90088541668,
      "d": 193.1818020833307,
      "v": 39
    },
    {
      "midi": 81,
      "hit": false,
      "t": 98722.71904583334,
      "d": 415.90905625000596,
      "v": 57
    },
    {
      "midi": 63,
      "hit": false,
      "t": 98727.2644999997,
      "d": 313.6363374999928,
      "v": 43
    },
    {
      "midi": 42,
      "hit": false,
      "t": 98729.53722708329,
      "d": 147.72726041666465,
      "v": 45
    },
    {
      "midi": 60,
      "hit": false,
      "t": 98999.9917499997,
      "d": 268.18179583332676,
      "v": 54
    },
    {
      "midi": 42,
      "hit": false,
      "t": 99268.17354583328,
      "d": 138.63635208334017,
      "v": 47
    },
    {
      "midi": 37,
      "hit": false,
      "t": 99270.44627291668,
      "d": 149.99998750000668,
      "v": 102
    },
    {
      "midi": 56,
      "hit": false,
      "t": 99272.71899999969,
      "d": 470.4545062499965,
      "v": 63
    },
    {
      "midi": 80,
      "hit": false,
      "t": 99272.71900000001,
      "d": 136.36362499999814,
      "v": 39
    },
    {
      "midi": 80,
      "hit": false,
      "t": 99554.53715833335,
      "d": 195.45452916667273,
      "v": 39
    },
    {
      "midi": 42,
      "hit": false,
      "t": 99813.62804583329,
      "d": 143.18180624999513,
      "v": 45
    },
    {
      "midi": 68,
      "hit": false,
      "t": 99815.90077291653,
      "d": 820.4544770833163,
      "v": 105
    },
    {
      "midi": 68,
      "hit": false,
      "t": 99815.90077291663,
      "d": 820.4544770833309,
      "v": 105
    },
    {
      "midi": 81,
      "hit": false,
      "t": 99818.17350000002,
      "d": 449.9999625000055,
      "v": 62
    },
    {
      "midi": 60,
      "hit": false,
      "t": 99820.44622708303,
      "d": 718.1817583333323,
      "v": 62
    },
    {
      "midi": 63,
      "hit": false,
      "t": 100090.9007499997,
      "d": 499.9999583333265,
      "v": 62
    },
    {
      "midi": 42,
      "hit": false,
      "t": 100356.80981874996,
      "d": 136.36362499999814,
      "v": 45
    },
    {
      "midi": 68,
      "hit": false,
      "t": 100363.62799999969,
      "d": 470.4545062499965,
      "v": 51
    },
    {
      "midi": 80,
      "hit": false,
      "t": 100365.90072708335,
      "d": 140.90907916666765,
      "v": 39
    },
    {
      "midi": 72,
      "hit": false,
      "t": 100634.08252291652,
      "d": 843.1817479166493,
      "v": 107
    },
    {
      "midi": 72,
      "hit": false,
      "t": 100634.08252291664,
      "d": 843.1817479166639,
      "v": 107
    },
    {
      "midi": 80,
      "hit": false,
      "t": 100647.71888541669,
      "d": 193.1818020833307,
      "v": 39
    },
    {
      "midi": 42,
      "hit": false,
      "t": 100895.44613749995,
      "d": 143.18180624999513,
      "v": 55
    },
    {
      "midi": 63,
      "hit": false,
      "t": 100909.08249999968,
      "d": 261.36361458332976,
      "v": 48
    },
    {
      "midi": 81,
      "hit": false,
      "t": 100909.08250000002,
      "d": 440.90905416666646,
      "v": 54
    },
    {
      "midi": 36,
      "hit": false,
      "t": 100913.62795416669,
      "d": 161.3636229166732,
      "v": 91
    },
    {
      "midi": 75,
      "hit": false,
      "t": 101434.08245624983,
      "d": 1134.0908145833237,
      "v": 106
    },
    {
      "midi": 75,
      "hit": false,
      "t": 101434.08245624996,
      "d": 1134.0908145833382,
      "v": 106
    },
    {
      "midi": 36,
      "hit": false,
      "t": 101452.2642729167,
      "d": 170.45453124999767,
      "v": 82
    },
    {
      "midi": 55,
      "hit": false,
      "t": 101454.53699999968,
      "d": 470.4545062499965,
      "v": 63
    },
    {
      "midi": 60,
      "hit": false,
      "t": 101454.53699999998,
      "d": 665.9090354166547,
      "v": 58
    },
    {
      "midi": 63,
      "hit": false,
      "t": 101456.80972708331,
      "d": 406.81814791666693,
      "v": 70
    },
    {
      "midi": 80,
      "hit": false,
      "t": 101459.08245416668,
      "d": 147.72726041666465,
      "v": 28
    },
    {
      "midi": 42,
      "hit": false,
      "t": 101461.35518124995,
      "d": 147.72726041666465,
      "v": 45
    },
    {
      "midi": 55,
      "hit": false,
      "t": 101470.4460895833,
      "d": 665.9090354166692,
      "v": 60
    },
    {
      "midi": 36,
      "hit": false,
      "t": 101477.26427083333,
      "d": 4249.9996458333335,
      "v": 81
    },
    {
      "midi": 58,
      "hit": false,
      "t": 101479.53699791664,
      "d": 406.81814791666693,
      "v": 58
    },
    {
      "midi": 80,
      "hit": false,
      "t": 101738.62788541667,
      "d": 177.27271249999467,
      "v": 39
    },
    {
      "midi": 63,
      "hit": false,
      "t": 101999.99149999967,
      "d": 340.90906249999534,
      "v": 59
    },
    {
      "midi": 81,
      "hit": false,
      "t": 102002.26422708333,
      "d": 459.09087083333,
      "v": 47
    },
    {
      "midi": 42,
      "hit": false,
      "t": 102018.17331666661,
      "d": 140.90907916666765,
      "v": 51
    },
    {
      "midi": 67,
      "hit": false,
      "t": 102272.71874999967,
      "d": 529.5454104166565,
      "v": 70
    },
    {
      "midi": 55,
      "hit": false,
      "t": 102545.44599999966,
      "d": 343.1817895833228,
      "v": 54
    },
    {
      "midi": 73,
      "hit": false,
      "t": 102545.44599999982,
      "d": 568.1817708333256,
      "v": 103
    },
    {
      "midi": 73,
      "hit": false,
      "t": 102545.44599999997,
      "d": 568.1817708333401,
      "v": 103
    },
    {
      "midi": 80,
      "hit": false,
      "t": 102549.99145416667,
      "d": 124.99998958333163,
      "v": 32
    },
    {
      "midi": 42,
      "hit": false,
      "t": 102565.90054374994,
      "d": 147.72726041666465,
      "v": 45
    },
    {
      "midi": 70,
      "hit": false,
      "t": 102818.17324999966,
      "d": 259.09088749998773,
      "v": 72
    },
    {
      "midi": 80,
      "hit": false,
      "t": 102822.71870416666,
      "d": 159.09089583333116,
      "v": 28
    },
    {
      "midi": 67,
      "hit": false,
      "t": 103090.90049999964,
      "d": 313.6363374999928,
      "v": 43
    },
    {
      "midi": 72,
      "hit": false,
      "t": 103093.17322708314,
      "d": 1111.3635437499906,
      "v": 96
    },
    {
      "midi": 72,
      "hit": false,
      "t": 103093.1732270833,
      "d": 1111.3635437500052,
      "v": 96
    },
    {
      "midi": 81,
      "hit": false,
      "t": 103093.17322708333,
      "d": 454.54541666666046,
      "v": 47
    },
    {
      "midi": 42,
      "hit": false,
      "t": 103115.9004979166,
      "d": 127.27271666667366,
      "v": 45
    },
    {
      "midi": 63,
      "hit": false,
      "t": 103363.62774999964,
      "d": 268.18179583332676,
      "v": 54
    },
    {
      "midi": 55,
      "hit": false,
      "t": 103636.35499999963,
      "d": 470.4545062499965,
      "v": 63
    },
    {
      "midi": 37,
      "hit": false,
      "t": 103636.35500000003,
      "d": 168.1818041666702,
      "v": 96
    },
    {
      "midi": 80,
      "hit": false,
      "t": 103638.62772708332,
      "d": 134.09089791667066,
      "v": 39
    },
    {
      "midi": 42,
      "hit": false,
      "t": 103645.44590833328,
      "d": 136.36362499999814,
      "v": 45
    },
    {
      "midi": 80,
      "hit": false,
      "t": 103918.17315833333,
      "d": 147.72726041666465,
      "v": 32
    },
    {
      "midi": 63,
      "hit": false,
      "t": 104184.08222708297,
      "d": 718.1817583333323,
      "v": 62
    },
    {
      "midi": 73,
      "hit": false,
      "t": 104184.08222708313,
      "d": 1088.636272916643,
      "v": 99
    },
    {
      "midi": 73,
      "hit": false,
      "t": 104184.0822270833,
      "d": 1088.6362729166722,
      "v": 99
    },
    {
      "midi": 81,
      "hit": false,
      "t": 104184.08222708333,
      "d": 459.09087083333,
      "v": 56
    },
    {
      "midi": 42,
      "hit": false,
      "t": 104202.26404374994,
      "d": 145.45453333333717,
      "v": 45
    },
    {
      "midi": 67,
      "hit": false,
      "t": 104454.53674999964,
      "d": 499.9999583333265,
      "v": 62
    },
    {
      "midi": 70,
      "hit": false,
      "t": 104727.26399999963,
      "d": 470.4545062499965,
      "v": 51
    },
    {
      "midi": 80,
      "hit": false,
      "t": 104727.264,
      "d": 124.99998958333163,
      "v": 39
    },
    {
      "midi": 42,
      "hit": false,
      "t": 104736.35490833328,
      "d": 138.63635208334017,
      "v": 45
    },
    {
      "midi": 80,
      "hit": false,
      "t": 105011.35488541666,
      "d": 143.18180624999513,
      "v": 28
    },
    {
      "midi": 67,
      "hit": false,
      "t": 105272.71849999962,
      "d": 261.36361458332976,
      "v": 48
    },
    {
      "midi": 72,
      "hit": false,
      "t": 105272.71849999977,
      "d": 1636.3634999999922,
      "v": 107
    },
    {
      "midi": 42,
      "hit": false,
      "t": 105272.71849999994,
      "d": 147.72726041666465,
      "v": 45
    },
    {
      "midi": 72,
      "hit": false,
      "t": 105272.71849999997,
      "d": 1636.3635000000068,
      "v": 107
    },
    {
      "midi": 81,
      "hit": false,
      "t": 105272.71849999999,
      "d": 445.454508333336,
      "v": 50
    },
    {
      "midi": 56,
      "hit": false,
      "t": 105818.17299999962,
      "d": 470.4545062499965,
      "v": 63
    },
    {
      "midi": 42,
      "hit": false,
      "t": 105818.17299999994,
      "d": 147.72726041666465,
      "v": 45
    },
    {
      "midi": 65,
      "hit": false,
      "t": 105818.17299999997,
      "d": 545.4544999999925,
      "v": 49
    },
    {
      "midi": 36,
      "hit": false,
      "t": 105818.17300000002,
      "d": 165.90907708332816,
      "v": 82
    },
    {
      "midi": 63,
      "hit": false,
      "t": 105820.4457270833,
      "d": 406.81814791666693,
      "v": 53
    },
    {
      "midi": 80,
      "hit": false,
      "t": 105822.71845416665,
      "d": 131.81817083332862,
      "v": 39
    },
    {
      "midi": 56,
      "hit": false,
      "t": 105843.17299791663,
      "d": 406.81814791666693,
      "v": 56
    },
    {
      "midi": 60,
      "hit": false,
      "t": 105843.17299791663,
      "d": 406.81814791666693,
      "v": 62
    },
    {
      "midi": 37,
      "hit": false,
      "t": 105843.17299791667,
      "d": 2652.272506249996,
      "v": 77
    },
    {
      "midi": 80,
      "hit": false,
      "t": 106104.53661249999,
      "d": 140.90907916666765,
      "v": 28
    },
    {
      "midi": 81,
      "hit": false,
      "t": 106361.35477291666,
      "d": 415.90905625000596,
      "v": 51
    },
    {
      "midi": 61,
      "hit": false,
      "t": 106363.62749999961,
      "d": 340.90906249999534,
      "v": 59
    },
    {
      "midi": 42,
      "hit": false,
      "t": 106384.08204374994,
      "d": 140.90907916666765,
      "v": 54
    },
    {
      "midi": 65,
      "hit": false,
      "t": 106636.3547499996,
      "d": 529.5454104166565,
      "v": 70
    },
    {
      "midi": 56,
      "hit": false,
      "t": 106909.0819999996,
      "d": 343.1817895833228,
      "v": 54
    },
    {
      "midi": 70,
      "hit": false,
      "t": 106909.08199999976,
      "d": 568.1817708333401,
      "v": 97
    },
    {
      "midi": 70,
      "hit": false,
      "t": 106909.08199999998,
      "d": 568.1817708333401,
      "v": 97
    },
    {
      "midi": 80,
      "hit": false,
      "t": 106909.082,
      "d": 129.54544375000114,
      "v": 39
    },
    {
      "midi": 42,
      "hit": false,
      "t": 106940.90017916661,
      "d": 159.09089583333116,
      "v": 45
    },
    {
      "midi": 68,
      "hit": false,
      "t": 107181.8092499996,
      "d": 259.09088749998773,
      "v": 72
    },
    {
      "midi": 80,
      "hit": false,
      "t": 107193.17288541666,
      "d": 129.54544375000114,
      "v": 36
    },
    {
      "midi": 65,
      "hit": false,
      "t": 107454.53649999958,
      "d": 313.6363374999928,
      "v": 43
    },
    {
      "midi": 42,
      "hit": false,
      "t": 107459.08195416661,
      "d": 163.63635000000068,
      "v": 45
    },
    {
      "midi": 81,
      "hit": false,
      "t": 107459.08195416666,
      "d": 436.36359999999695,
      "v": 49
    },
    {
      "midi": 68,
      "hit": false,
      "t": 107477.2637708331,
      "d": 1065.9090020833391,
      "v": 95
    },
    {
      "midi": 68,
      "hit": false,
      "t": 107477.26377083332,
      "d": 1065.9090020833391,
      "v": 95
    },
    {
      "midi": 61,
      "hit": false,
      "t": 107727.26374999958,
      "d": 268.18179583332676,
      "v": 54
    },
    {
      "midi": 56,
      "hit": false,
      "t": 107999.99099999957,
      "d": 470.4545062499965,
      "v": 63
    },
    {
      "midi": 80,
      "hit": false,
      "t": 107999.99099999998,
      "d": 131.81817083332862,
      "v": 36
    },
    {
      "midi": 37,
      "hit": false,
      "t": 108004.5364541667,
      "d": 154.54544166666165,
      "v": 82
    },
    {
      "midi": 42,
      "hit": false,
      "t": 108011.35463541662,
      "d": 147.72726041666465,
      "v": 45
    },
    {
      "midi": 80,
      "hit": false,
      "t": 108284.08188541664,
      "d": 136.36362499999814,
      "v": 36
    },
    {
      "midi": 65,
      "hit": false,
      "t": 108543.17277291644,
      "d": 1663.6362249999802,
      "v": 95
    },
    {
      "midi": 65,
      "hit": false,
      "t": 108543.17277291666,
      "d": 1663.6362249999947,
      "v": 95
    },
    {
      "midi": 81,
      "hit": false,
      "t": 108545.44549999997,
      "d": 434.09087291666947,
      "v": 53
    },
    {
      "midi": 61,
      "hit": false,
      "t": 108547.7182270829,
      "d": 718.1817583333323,
      "v": 62
    },
    {
      "midi": 42,
      "hit": false,
      "t": 108561.35458958328,
      "d": 156.81816875000368,
      "v": 45
    },
    {
      "midi": 44,
      "hit": false,
      "t": 108606.80913125,
      "d": 1034.090822916667,
      "v": 64
    },
    {
      "midi": 65,
      "hit": false,
      "t": 108818.17274999958,
      "d": 499.9999583333265,
      "v": 62
    },
    {
      "midi": 68,
      "hit": false,
      "t": 109090.89999999957,
      "d": 470.4545062499965,
      "v": 51
    },
    {
      "midi": 80,
      "hit": false,
      "t": 109093.1727270833,
      "d": 122.72726250000414,
      "v": 39
    },
    {
      "midi": 42,
      "hit": false,
      "t": 109109.08181666661,
      "d": 143.18180624999513,
      "v": 47
    },
    {
      "midi": 80,
      "hit": false,
      "t": 109370.44543124997,
      "d": 120.45453541666211,
      "v": 28
    },
    {
      "midi": 65,
      "hit": false,
      "t": 109636.35449999956,
      "d": 261.36361458332976,
      "v": 48
    },
    {
      "midi": 81,
      "hit": false,
      "t": 109636.35449999997,
      "d": 431.81814583332743,
      "v": 54
    },
    {
      "midi": 42,
      "hit": false,
      "t": 109638.62722708327,
      "d": 145.45453333333717,
      "v": 51
    },
    {
      "midi": 36,
      "hit": false,
      "t": 109640.89995416669,
      "d": 177.27271249999467,
      "v": 82
    },
    {
      "midi": 32,
      "hit": false,
      "t": 109677.2635875,
      "d": 456.8181437500025,
      "v": 64
    },
    {
      "midi": 56,
      "hit": false,
      "t": 110181.80899999956,
      "d": 470.4545062499965,
      "v": 63
    },
    {
      "midi": 36,
      "hit": false,
      "t": 110181.80900000001,
      "d": 159.09089583333116,
      "v": 81
    },
    {
      "midi": 80,
      "hit": false,
      "t": 110184.0817270833,
      "d": 140.90907916666765,
      "v": 39
    },
    {
      "midi": 42,
      "hit": false,
      "t": 110190.89990833327,
      "d": 154.54544166666165,
      "v": 54
    },
    {
      "midi": 64,
      "hit": false,
      "t": 110206.80899791642,
      "d": 1070.4544562499505,
      "v": 94
    },
    {
      "midi": 59,
      "hit": false,
      "t": 110206.80899791664,
      "d": 406.8181479166524,
      "v": 50
    },
    {
      "midi": 64,
      "hit": false,
      "t": 110206.80899791665,
      "d": 1070.454456249994,
      "v": 94
    },
    {
      "midi": 37,
      "hit": false,
      "t": 110213.62717916667,
      "d": 2097.727097916664,
      "v": 86
    },
    {
      "midi": 64,
      "hit": false,
      "t": 110229.53626874997,
      "d": 406.8181479166524,
      "v": 42
    },
    {
      "midi": 61,
      "hit": false,
      "t": 110243.17263124997,
      "d": 552.2726812499895,
      "v": 50
    },
    {
      "midi": 68,
      "hit": false,
      "t": 110243.17263124997,
      "d": 665.9090354166547,
      "v": 55
    },
    {
      "midi": 80,
      "hit": false,
      "t": 110468.17261249997,
      "d": 129.54544375000114,
      "v": 28
    },
    {
      "midi": 61,
      "hit": false,
      "t": 110727.26349999955,
      "d": 340.90906249999534,
      "v": 59
    },
    {
      "midi": 81,
      "hit": false,
      "t": 110727.26349999997,
      "d": 452.272689583333,
      "v": 47
    },
    {
      "midi": 42,
      "hit": false,
      "t": 110729.53622708327,
      "d": 154.54544166666165,
      "v": 45
    },
    {
      "midi": 64,
      "hit": false,
      "t": 110999.99074999955,
      "d": 529.5454104166565,
      "v": 70
    },
    {
      "midi": 80,
      "hit": false,
      "t": 111268.17254583331,
      "d": 124.99998958333163,
      "v": 32
    },
    {
      "midi": 56,
      "hit": false,
      "t": 111272.71799999954,
      "d": 343.1817895833228,
      "v": 54
    },
    {
      "midi": 64,
      "hit": false,
      "t": 111277.26345416637,
      "d": 536.3635916666681,
      "v": 102
    },
    {
      "midi": 64,
      "hit": false,
      "t": 111277.26345416665,
      "d": 536.3635916666681,
      "v": 102
    },
    {
      "midi": 42,
      "hit": false,
      "t": 111286.35436249993,
      "d": 134.09089791667066,
      "v": 45
    },
    {
      "midi": 68,
      "hit": false,
      "t": 111545.44524999954,
      "d": 259.09088749998773,
      "v": 72
    },
    {
      "midi": 80,
      "hit": false,
      "t": 111554.53615833331,
      "d": 143.18180624999513,
      "v": 32
    },
    {
      "midi": 42,
      "hit": false,
      "t": 111804.53613749993,
      "d": 143.18180624999513,
      "v": 45
    },
    {
      "midi": 63,
      "hit": false,
      "t": 111813.62704583304,
      "d": 1095.4544541666692,
      "v": 109
    },
    {
      "midi": 63,
      "hit": false,
      "t": 111813.62704583332,
      "d": 1095.4544541666692,
      "v": 109
    },
    {
      "midi": 64,
      "hit": false,
      "t": 111818.17249999952,
      "d": 313.6363374999928,
      "v": 43
    },
    {
      "midi": 81,
      "hit": false,
      "t": 111818.17249999997,
      "d": 434.09087291666947,
      "v": 47
    },
    {
      "midi": 61,
      "hit": false,
      "t": 112090.89974999952,
      "d": 268.1817958333413,
      "v": 54
    },
    {
      "midi": 42,
      "hit": false,
      "t": 112349.99063749993,
      "d": 138.63635208334017,
      "v": 45
    },
    {
      "midi": 70,
      "hit": false,
      "t": 112356.80881874995,
      "d": 665.9090354166547,
      "v": 64
    },
    {
      "midi": 58,
      "hit": false,
      "t": 112363.62699999953,
      "d": 470.4545062499965,
      "v": 63
    },
    {
      "midi": 80,
      "hit": false,
      "t": 112363.62699999998,
      "d": 111.36362708333763,
      "v": 32
    },
    {
      "midi": 61,
      "hit": false,
      "t": 112365.89972708329,
      "d": 406.8181479166524,
      "v": 45
    },
    {
      "midi": 37,
      "hit": false,
      "t": 112368.17245416668,
      "d": 147.72726041666465,
      "v": 114
    },
    {
      "midi": 39,
      "hit": false,
      "t": 112372.71790833333,
      "d": 2090.908916666667,
      "v": 74
    },
    {
      "midi": 65,
      "hit": false,
      "t": 112379.53608958329,
      "d": 529.5454104166565,
      "v": 60
    },
    {
      "midi": 63,
      "hit": false,
      "t": 112379.53608958329,
      "d": 552.2726812499895,
      "v": 35
    },
    {
      "midi": 80,
      "hit": false,
      "t": 112645.44515833331,
      "d": 131.81817083332862,
      "v": 32
    },
    {
      "midi": 81,
      "hit": false,
      "t": 112906.80877291664,
      "d": 447.72723541666346,
      "v": 54
    },
    {
      "midi": 61,
      "hit": false,
      "t": 112909.08149999971,
      "d": 1127.2726333332976,
      "v": 102
    },
    {
      "midi": 61,
      "hit": false,
      "t": 112909.08149999999,
      "d": 1127.2726333333267,
      "v": 102
    },
    {
      "midi": 63,
      "hit": false,
      "t": 112911.35422708286,
      "d": 718.1817583333323,
      "v": 62
    },
    {
      "midi": 42,
      "hit": false,
      "t": 112931.80877083326,
      "d": 143.18180624999513,
      "v": 45
    },
    {
      "midi": 68,
      "hit": false,
      "t": 113181.80874999953,
      "d": 499.9999583333265,
      "v": 62
    },
    {
      "midi": 80,
      "hit": false,
      "t": 113452.26327291664,
      "d": 129.54544375000114,
      "v": 39
    },
    {
      "midi": 70,
      "hit": false,
      "t": 113454.53599999953,
      "d": 470.4545062499965,
      "v": 51
    },
    {
      "midi": 42,
      "hit": false,
      "t": 113468.17236249993,
      "d": 147.72726041666465,
      "v": 47
    },
    {
      "midi": 80,
      "hit": false,
      "t": 113736.3541583333,
      "d": 124.99998958333163,
      "v": 39
    },
    {
      "midi": 56,
      "hit": false,
      "t": 113995.44504583301,
      "d": 311.3636104166653,
      "v": 94
    },
    {
      "midi": 56,
      "hit": false,
      "t": 113995.44504583332,
      "d": 311.3636104166653,
      "v": 102
    },
    {
      "midi": 42,
      "hit": false,
      "t": 113997.7177729166,
      "d": 140.90907916666765,
      "v": 45
    },
    {
      "midi": 68,
      "hit": false,
      "t": 113999.99049999952,
      "d": 261.36361458332976,
      "v": 48
    },
    {
      "midi": 81,
      "hit": false,
      "t": 114004.53595416663,
      "d": 452.272689583333,
      "v": 47
    },
    {
      "midi": 58,
      "hit": false,
      "t": 114272.71774999968,
      "d": 277.2727041666658,
      "v": 84
    },
    {
      "midi": 58,
      "hit": false,
      "t": 114272.71774999998,
      "d": 277.2727041666658,
      "v": 92
    },
    {
      "midi": 60,
      "hit": false,
      "t": 114540.899545833,
      "d": 1095.4544541666546,
      "v": 103
    },
    {
      "midi": 60,
      "hit": false,
      "t": 114540.89954583331,
      "d": 1095.4544541666692,
      "v": 103
    },
    {
      "midi": 60,
      "hit": false,
      "t": 114543.1722729166,
      "d": 1484.0907854166435,
      "v": 71
    },
    {
      "midi": 80,
      "hit": false,
      "t": 114543.17227291662,
      "d": 111.36362708333763,
      "v": 39
    },
    {
      "midi": 53,
      "hit": false,
      "t": 114545.44499999951,
      "d": 470.4545062499965,
      "v": 63
    },
    {
      "midi": 68,
      "hit": false,
      "t": 114545.44499999993,
      "d": 918.18174166666,
      "v": 71
    },
    {
      "midi": 36,
      "hit": false,
      "t": 114545.445,
      "d": 177.27271249999467,
      "v": 81
    },
    {
      "midi": 65,
      "hit": false,
      "t": 114547.71772708326,
      "d": 1036.3635499999946,
      "v": 60
    },
    {
      "midi": 41,
      "hit": false,
      "t": 114552.26318125,
      "d": 2024.9998312499956,
      "v": 81
    },
    {
      "midi": 42,
      "hit": false,
      "t": 114568.17227083327,
      "d": 152.27271458333416,
      "v": 55
    },
    {
      "midi": 80,
      "hit": false,
      "t": 114831.80861249995,
      "d": 152.27271458333416,
      "v": 32
    },
    {
      "midi": 81,
      "hit": false,
      "t": 115088.62677291661,
      "d": 456.8181437500025,
      "v": 50
    },
    {
      "midi": 42,
      "hit": false,
      "t": 115095.4449541666,
      "d": 154.54544166666165,
      "v": 45
    },
    {
      "midi": 60,
      "hit": false,
      "t": 115363.62674999952,
      "d": 529.5454104166565,
      "v": 70
    },
    {
      "midi": 80,
      "hit": false,
      "t": 115634.08127291662,
      "d": 143.18180624999513,
      "v": 32
    },
    {
      "midi": 65,
      "hit": false,
      "t": 115636.35399999951,
      "d": 259.09088749998773,
      "v": 72
    },
    {
      "midi": 53,
      "hit": false,
      "t": 115636.35399999951,
      "d": 343.1817895833228,
      "v": 54
    },
    {
      "midi": 42,
      "hit": false,
      "t": 115643.17218124993,
      "d": 131.81817083332862,
      "v": 45
    },
    {
      "midi": 65,
      "hit": false,
      "t": 115652.263089583,
      "d": 1734.0907645833067,
      "v": 106
    },
    {
      "midi": 65,
      "hit": false,
      "t": 115652.26308958331,
      "d": 1711.3634937500028,
      "v": 106
    },
    {
      "midi": 80,
      "hit": false,
      "t": 115915.89943124996,
      "d": 193.1818020833307,
      "v": 39
    },
    {
      "midi": 60,
      "hit": false,
      "t": 116181.8084999995,
      "d": 313.6363374999928,
      "v": 43
    },
    {
      "midi": 81,
      "hit": false,
      "t": 116181.80849999996,
      "d": 415.90905625000596,
      "v": 57
    },
    {
      "midi": 42,
      "hit": false,
      "t": 116184.08122708325,
      "d": 147.72726041666465,
      "v": 45
    },
    {
      "midi": 42,
      "hit": false,
      "t": 116722.71754583325,
      "d": 138.63635208334017,
      "v": 47
    },
    {
      "midi": 40,
      "hit": false,
      "t": 116724.99027291666,
      "d": 2013.636195833329,
      "v": 89
    },
    {
      "midi": 52,
      "hit": false,
      "t": 116727.2629999995,
      "d": 470.4545062499965,
      "v": 63
    },
    {
      "midi": 68,
      "hit": false,
      "t": 116727.26299999992,
      "d": 918.18174166666,
      "v": 71
    },
    {
      "midi": 64,
      "hit": false,
      "t": 116727.26299999992,
      "d": 1070.454456249994,
      "v": 68
    },
    {
      "midi": 37,
      "hit": false,
      "t": 116727.263,
      "d": 140.90907916666765,
      "v": 111
    },
    {
      "midi": 80,
      "hit": false,
      "t": 116729.53572708329,
      "d": 136.36362499999814,
      "v": 39
    },
    {
      "midi": 60,
      "hit": false,
      "t": 116770.44481458326,
      "d": 802.2726604166528,
      "v": 49
    },
    {
      "midi": 80,
      "hit": false,
      "t": 117011.35388541663,
      "d": 195.45452916667273,
      "v": 39
    },
    {
      "midi": 42,
      "hit": false,
      "t": 117268.17204583326,
      "d": 143.18180624999513,
      "v": 45
    },
    {
      "midi": 81,
      "hit": false,
      "t": 117272.71749999997,
      "d": 449.9999625000055,
      "v": 62
    },
    {
      "midi": 60,
      "hit": false,
      "t": 117274.99022708283,
      "d": 718.1817583333323,
      "v": 62
    },
    {
      "midi": 67,
      "hit": false,
      "t": 117393.1720354163,
      "d": 811.3635687499918,
      "v": 104
    },
    {
      "midi": 67,
      "hit": false,
      "t": 117393.17203541665,
      "d": 811.3635687500064,
      "v": 104
    },
    {
      "midi": 42,
      "hit": false,
      "t": 117811.35381874992,
      "d": 136.36362499999814,
      "v": 45
    },
    {
      "midi": 65,
      "hit": false,
      "t": 117818.1719999995,
      "d": 470.4545062499965,
      "v": 51
    },
    {
      "midi": 80,
      "hit": false,
      "t": 117818.17199999998,
      "d": 140.90907916666765,
      "v": 39
    },
    {
      "midi": 80,
      "hit": false,
      "t": 118097.71743124998,
      "d": 193.1818020833307,
      "v": 39
    },
    {
      "midi": 68,
      "hit": false,
      "t": 118204.53560416629,
      "d": 699.9999416666542,
      "v": 101
    },
    {
      "midi": 68,
      "hit": false,
      "t": 118204.53560416665,
      "d": 699.9999416666687,
      "v": 101
    },
    {
      "midi": 42,
      "hit": false,
      "t": 118349.99013749992,
      "d": 143.18180624999513,
      "v": 55
    },
    {
      "midi": 60,
      "hit": false,
      "t": 118363.62649999949,
      "d": 261.36361458332976,
      "v": 48
    },
    {
      "midi": 81,
      "hit": false,
      "t": 118363.62649999998,
      "d": 440.90905416666646,
      "v": 54
    },
    {
      "midi": 36,
      "hit": false,
      "t": 118365.89922708334,
      "d": 181.81816666666418,
      "v": 82
    },
    {
      "midi": 60,
      "hit": false,
      "t": 118904.53554583294,
      "d": 3186.3633708332927,
      "v": 89
    },
    {
      "midi": 39,
      "hit": false,
      "t": 118904.53554583332,
      "d": 2024.9998312499956,
      "v": 76
    },
    {
      "midi": 60,
      "hit": false,
      "t": 118904.53554583332,
      "d": 3186.3633708333364,
      "v": 89
    },
    {
      "midi": 53,
      "hit": false,
      "t": 118909.08099999948,
      "d": 470.4545062499965,
      "v": 63
    },
    {
      "midi": 68,
      "hit": false,
      "t": 118909.08099999992,
      "d": 918.18174166666,
      "v": 71
    },
    {
      "midi": 80,
      "hit": false,
      "t": 118909.08099999998,
      "d": 147.72726041666465,
      "v": 28
    },
    {
      "midi": 36,
      "hit": false,
      "t": 118909.081,
      "d": 161.3636229166732,
      "v": 82
    },
    {
      "midi": 63,
      "hit": false,
      "t": 118913.62645416659,
      "d": 1113.6362708333181,
      "v": 68
    },
    {
      "midi": 42,
      "hit": false,
      "t": 118915.89918124992,
      "d": 147.72726041666465,
      "v": 45
    },
    {
      "midi": 60,
      "hit": false,
      "t": 118929.53554374992,
      "d": 802.2726604166528,
      "v": 65
    },
    {
      "midi": 80,
      "hit": false,
      "t": 119186.35370416664,
      "d": 177.27271249999467,
      "v": 39
    },
    {
      "midi": 81,
      "hit": false,
      "t": 119456.8082270833,
      "d": 459.09087083333,
      "v": 47
    },
    {
      "midi": 42,
      "hit": false,
      "t": 119472.71731666657,
      "d": 140.90907916666765,
      "v": 51
    },
    {
      "midi": 65,
      "hit": false,
      "t": 119727.26274999949,
      "d": 529.5454104166565,
      "v": 70
    },
    {
      "midi": 68,
      "hit": false,
      "t": 119999.98999999948,
      "d": 259.09088749998773,
      "v": 72
    },
    {
      "midi": 53,
      "hit": false,
      "t": 119999.98999999948,
      "d": 343.1817895833228,
      "v": 54
    },
    {
      "midi": 80,
      "hit": false,
      "t": 120002.26272708329,
      "d": 124.99998958333163,
      "v": 32
    },
    {
      "midi": 42,
      "hit": false,
      "t": 120020.44454374991,
      "d": 147.72726041666465,
      "v": 45
    },
    {
      "midi": 80,
      "hit": false,
      "t": 120281.80815833328,
      "d": 159.09089583333116,
      "v": 28
    },
    {
      "midi": 65,
      "hit": false,
      "t": 120545.44449999947,
      "d": 313.6363374999928,
      "v": 43
    },
    {
      "midi": 81,
      "hit": false,
      "t": 120547.71722708328,
      "d": 454.54541666666046,
      "v": 47
    },
    {
      "midi": 42,
      "hit": false,
      "t": 120570.44449791657,
      "d": 127.27271666667366,
      "v": 45
    },
    {
      "midi": 65,
      "hit": false,
      "t": 121088.62627291658,
      "d": 1022.727187499986,
      "v": 68
    },
    {
      "midi": 53,
      "hit": false,
      "t": 121090.89899999947,
      "d": 470.4545062499965,
      "v": 63
    },
    {
      "midi": 37,
      "hit": false,
      "t": 121090.89900000002,
      "d": 152.27271458333416,
      "v": 114
    },
    {
      "midi": 70,
      "hit": false,
      "t": 121093.17172708325,
      "d": 993.181735416656,
      "v": 81
    },
    {
      "midi": 80,
      "hit": false,
      "t": 121093.17172708327,
      "d": 134.09089791667066,
      "v": 39
    },
    {
      "midi": 62,
      "hit": false,
      "t": 121095.44445416657,
      "d": 852.2726562499884,
      "v": 60
    },
    {
      "midi": 42,
      "hit": false,
      "t": 121099.98990833324,
      "d": 136.36362499999814,
      "v": 45
    },
    {
      "midi": 38,
      "hit": false,
      "t": 121104.53536249998,
      "d": 2022.7271041666681,
      "v": 79
    },
    {
      "midi": 80,
      "hit": false,
      "t": 121374.98988541661,
      "d": 147.72726041666465,
      "v": 32
    },
    {
      "midi": 81,
      "hit": false,
      "t": 121634.08077291661,
      "d": 459.09087083333,
      "v": 56
    },
    {
      "midi": 42,
      "hit": false,
      "t": 121656.8080437499,
      "d": 145.45453333333717,
      "v": 45
    },
    {
      "midi": 60,
      "hit": false,
      "t": 121911.3534770828,
      "d": 718.1817583333323,
      "v": 62
    },
    {
      "midi": 60,
      "hit": false,
      "t": 122147.71709374957,
      "d": 290.9090666666598,
      "v": 89
    },
    {
      "midi": 60,
      "hit": false,
      "t": 122147.71709374999,
      "d": 290.9090666666598,
      "v": 96
    },
    {
      "midi": 80,
      "hit": false,
      "t": 122179.5352729166,
      "d": 124.99998958333163,
      "v": 39
    },
    {
      "midi": 65,
      "hit": false,
      "t": 122181.80799999947,
      "d": 470.4545062499965,
      "v": 51
    },
    {
      "midi": 42,
      "hit": false,
      "t": 122190.89890833324,
      "d": 138.63635208334017,
      "v": 45
    },
    {
      "midi": 58,
      "hit": false,
      "t": 122438.62616041623,
      "d": 254.54543333333277,
      "v": 102
    },
    {
      "midi": 58,
      "hit": false,
      "t": 122438.62616041665,
      "d": 254.54543333333277,
      "v": 102
    },
    {
      "midi": 80,
      "hit": false,
      "t": 122463.62615833327,
      "d": 143.18180624999513,
      "v": 28
    },
    {
      "midi": 56,
      "hit": false,
      "t": 122693.17159374956,
      "d": 252.27270624999073,
      "v": 87
    },
    {
      "midi": 56,
      "hit": false,
      "t": 122693.17159374998,
      "d": 252.27270625000529,
      "v": 94
    },
    {
      "midi": 60,
      "hit": false,
      "t": 122727.26249999946,
      "d": 261.36361458332976,
      "v": 48
    },
    {
      "midi": 42,
      "hit": false,
      "t": 122727.26249999991,
      "d": 147.72726041666465,
      "v": 45
    },
    {
      "midi": 81,
      "hit": false,
      "t": 122731.8079541666,
      "d": 445.454508333336,
      "v": 50
    },
    {
      "midi": 58,
      "hit": false,
      "t": 122945.44429999955,
      "d": 281.8181583333353,
      "v": 89
    },
    {
      "midi": 58,
      "hit": false,
      "t": 122945.44429999999,
      "d": 281.8181583333353,
      "v": 96
    },
    {
      "midi": 60,
      "hit": false,
      "t": 123227.26245833289,
      "d": 1065.9090020833246,
      "v": 82
    },
    {
      "midi": 60,
      "hit": false,
      "t": 123227.26245833332,
      "d": 1065.9090020833391,
      "v": 93
    },
    {
      "midi": 53,
      "hit": false,
      "t": 123272.71699999945,
      "d": 470.4545062499965,
      "v": 63
    },
    {
      "midi": 68,
      "hit": false,
      "t": 123272.71699999989,
      "d": 936.3635583333235,
      "v": 60
    },
    {
      "midi": 42,
      "hit": false,
      "t": 123272.7169999999,
      "d": 147.72726041666465,
      "v": 45
    },
    {
      "midi": 80,
      "hit": false,
      "t": 123272.71699999993,
      "d": 131.81817083332862,
      "v": 39
    },
    {
      "midi": 36,
      "hit": false,
      "t": 123272.71700000002,
      "d": 190.9090750000032,
      "v": 81
    },
    {
      "midi": 72,
      "hit": false,
      "t": 123274.98972708322,
      "d": 934.090831249996,
      "v": 63
    },
    {
      "midi": 37,
      "hit": false,
      "t": 123274.98972708332,
      "d": 2120.4543687499972,
      "v": 79
    },
    {
      "midi": 65,
      "hit": false,
      "t": 123293.17154374988,
      "d": 738.6363020833378,
      "v": 53
    },
    {
      "midi": 80,
      "hit": false,
      "t": 123552.26243124992,
      "d": 140.90907916666765,
      "v": 28
    },
    {
      "midi": 53,
      "hit": false,
      "t": 123818.17149999944,
      "d": 340.90906249999534,
      "v": 59
    },
    {
      "midi": 81,
      "hit": false,
      "t": 123818.17149999992,
      "d": 415.90905625000596,
      "v": 51
    },
    {
      "midi": 42,
      "hit": false,
      "t": 123838.6260437499,
      "d": 140.90907916666765,
      "v": 54
    },
    {
      "midi": 60,
      "hit": false,
      "t": 124090.89874999944,
      "d": 529.5454104166565,
      "v": 70
    },
    {
      "midi": 56,
      "hit": false,
      "t": 124293.17146041621,
      "d": 479.5454145833355,
      "v": 81
    },
    {
      "midi": 56,
      "hit": false,
      "t": 124293.17146041666,
      "d": 479.5454145833355,
      "v": 92
    },
    {
      "midi": 80,
      "hit": false,
      "t": 124361.3532729166,
      "d": 129.54544375000114,
      "v": 39
    },
    {
      "midi": 53,
      "hit": false,
      "t": 124363.62599999944,
      "d": 343.1817895833228,
      "v": 54
    },
    {
      "midi": 42,
      "hit": false,
      "t": 124395.44417916657,
      "d": 159.09089583333116,
      "v": 45
    },
    {
      "midi": 65,
      "hit": false,
      "t": 124636.35324999943,
      "d": 259.09088749998773,
      "v": 72
    },
    {
      "midi": 80,
      "hit": false,
      "t": 124647.71688541661,
      "d": 129.54544375000114,
      "v": 36
    },
    {
      "midi": 56,
      "hit": false,
      "t": 124843.17141458287,
      "d": 2074.999827083331,
      "v": 94
    },
    {
      "midi": 56,
      "hit": false,
      "t": 124843.17141458332,
      "d": 2074.999827083331,
      "v": 94
    },
    {
      "midi": 81,
      "hit": false,
      "t": 124906.80777291661,
      "d": 436.36359999999695,
      "v": 49
    },
    {
      "midi": 53,
      "hit": false,
      "t": 124909.08049999941,
      "d": 313.6363374999928,
      "v": 43
    },
    {
      "midi": 42,
      "hit": false,
      "t": 124913.62595416658,
      "d": 163.63635000000068,
      "v": 45
    },
    {
      "midi": 60,
      "hit": false,
      "t": 125181.80774999941,
      "d": 268.1817958333413,
      "v": 54
    },
    {
      "midi": 80,
      "hit": false,
      "t": 125449.98954583328,
      "d": 131.81817083332862,
      "v": 36
    },
    {
      "midi": 60,
      "hit": false,
      "t": 125452.26227291655,
      "d": 886.3635624999879,
      "v": 58
    },
    {
      "midi": 63,
      "hit": false,
      "t": 125452.26227291655,
      "d": 886.3635624999879,
      "v": 58
    },
    {
      "midi": 37,
      "hit": false,
      "t": 125452.26227291669,
      "d": 165.90907708332816,
      "v": 108
    },
    {
      "midi": 56,
      "hit": false,
      "t": 125456.80772708275,
      "d": 718.1817583333323,
      "v": 48
    },
    {
      "midi": 68,
      "hit": false,
      "t": 125459.08045416654,
      "d": 715.9090312499902,
      "v": 50
    },
    {
      "midi": 42,
      "hit": false,
      "t": 125465.89863541658,
      "d": 147.72726041666465,
      "v": 45
    },
    {
      "midi": 36,
      "hit": false,
      "t": 125484.08045208332,
      "d": 1984.090743749999,
      "v": 77
    },
    {
      "midi": 80,
      "hit": false,
      "t": 125734.08043124994,
      "d": 136.36362499999814,
      "v": 36
    },
    {
      "midi": 51,
      "hit": false,
      "t": 125999.98949999941,
      "d": 470.4545062499965,
      "v": 63
    },
    {
      "midi": 81,
      "hit": false,
      "t": 126004.53495416661,
      "d": 434.09087291666947,
      "v": 53
    },
    {
      "midi": 42,
      "hit": false,
      "t": 126015.89858958324,
      "d": 156.81816875000368,
      "v": 45
    },
    {
      "midi": 65,
      "hit": false,
      "t": 126534.08036458274,
      "d": 499.9999583333265,
      "v": 76
    },
    {
      "midi": 68,
      "hit": false,
      "t": 126545.4439999994,
      "d": 470.4545062499965,
      "v": 65
    },
    {
      "midi": 80,
      "hit": false,
      "t": 126547.71672708327,
      "d": 122.72726250000414,
      "v": 39
    },
    {
      "midi": 42,
      "hit": false,
      "t": 126563.62581666658,
      "d": 143.18180624999513,
      "v": 47
    },
    {
      "midi": 80,
      "hit": false,
      "t": 126829.53488541661,
      "d": 120.45453541666211,
      "v": 28
    },
    {
      "midi": 58,
      "hit": false,
      "t": 126918.1712416662,
      "d": 313.6363374999928,
      "v": 100
    },
    {
      "midi": 58,
      "hit": false,
      "t": 126918.17124166666,
      "d": 313.6363374999928,
      "v": 100
    },
    {
      "midi": 81,
      "hit": false,
      "t": 127090.89849999994,
      "d": 431.81814583332743,
      "v": 54
    },
    {
      "midi": 42,
      "hit": false,
      "t": 127093.17122708324,
      "d": 145.45453333333717,
      "v": 51
    },
    {
      "midi": 36,
      "hit": false,
      "t": 127093.17122708335,
      "d": 190.9090750000032,
      "v": 81
    },
    {
      "midi": 60,
      "hit": false,
      "t": 127231.8075791662,
      "d": 343.1817895833228,
      "v": 89
    },
    {
      "midi": 60,
      "hit": false,
      "t": 127231.80757916665,
      "d": 343.1817895833374,
      "v": 89
    },
    {
      "midi": 61,
      "hit": false,
      "t": 127574.98936874952,
      "d": 1147.7271770833177,
      "v": 107
    },
    {
      "midi": 61,
      "hit": false,
      "t": 127574.98936874999,
      "d": 1147.7271770833322,
      "v": 107
    },
    {
      "midi": 34,
      "hit": false,
      "t": 127604.53482083332,
      "d": 2068.181645833334,
      "v": 81
    },
    {
      "midi": 53,
      "hit": false,
      "t": 127636.35299999939,
      "d": 470.4545062499965,
      "v": 63
    },
    {
      "midi": 68,
      "hit": false,
      "t": 127636.35299999987,
      "d": 936.3635583333235,
      "v": 60
    },
    {
      "midi": 36,
      "hit": false,
      "t": 127636.35300000002,
      "d": 170.45453124999767,
      "v": 81
    },
    {
      "midi": 61,
      "hit": false,
      "t": 127638.6257270832,
      "d": 934.090831249996,
      "v": 63
    },
    {
      "midi": 80,
      "hit": false,
      "t": 127638.62572708327,
      "d": 140.90907916666765,
      "v": 39
    },
    {
      "midi": 42,
      "hit": false,
      "t": 127645.44390833324,
      "d": 154.54544166666165,
      "v": 54
    },
    {
      "midi": 65,
      "hit": false,
      "t": 127656.80754374986,
      "d": 738.6363020833378,
      "v": 53
    },
    {
      "midi": 80,
      "hit": false,
      "t": 127918.17115833328,
      "d": 129.54544375000114,
      "v": 28
    },
    {
      "midi": 81,
      "hit": false,
      "t": 128181.80749999995,
      "d": 452.272689583333,
      "v": 47
    },
    {
      "midi": 42,
      "hit": false,
      "t": 128184.08022708324,
      "d": 154.54544166666165,
      "v": 45
    },
    {
      "midi": 60,
      "hit": false,
      "t": 128722.71654583284,
      "d": 1109.0908166666486,
      "v": 112
    },
    {
      "midi": 60,
      "hit": false,
      "t": 128722.71654583332,
      "d": 1109.0908166666632,
      "v": 112
    },
    {
      "midi": 56,
      "hit": false,
      "t": 128727.26199999939,
      "d": 68.18181249999907,
      "v": 54
    },
    {
      "midi": 65,
      "hit": false,
      "t": 128727.26199999939,
      "d": 529.5454104166565,
      "v": 70
    },
    {
      "midi": 80,
      "hit": false,
      "t": 128727.26199999994,
      "d": 124.99998958333163,
      "v": 32
    },
    {
      "midi": 42,
      "hit": false,
      "t": 128740.8983624999,
      "d": 134.09089791667066,
      "v": 45
    },
    {
      "midi": 53,
      "hit": false,
      "t": 128999.98924999939,
      "d": 268.18179583332676,
      "v": 54
    },
    {
      "midi": 80,
      "hit": false,
      "t": 129004.53470416661,
      "d": 143.18180624999513,
      "v": 32
    },
    {
      "midi": 42,
      "hit": false,
      "t": 129259.0801374999,
      "d": 143.18180624999513,
      "v": 45
    },
    {
      "midi": 81,
      "hit": false,
      "t": 129270.44377291661,
      "d": 434.09087291666947,
      "v": 47
    },
    {
      "midi": 63,
      "hit": false,
      "t": 129272.71649999938,
      "d": 313.6363374999928,
      "v": 43
    },
    {
      "midi": 39,
      "hit": false,
      "t": 129790.89827499999,
      "d": 954.5453750000015,
      "v": 80
    },
    {
      "midi": 56,
      "hit": false,
      "t": 129793.17100208272,
      "d": 354.54542500001844,
      "v": 42
    },
    {
      "midi": 60,
      "hit": false,
      "t": 129802.26191041605,
      "d": 243.1817979166808,
      "v": 62
    },
    {
      "midi": 42,
      "hit": false,
      "t": 129804.53463749989,
      "d": 138.63635208334017,
      "v": 45
    },
    {
      "midi": 80,
      "hit": false,
      "t": 129820.44372708329,
      "d": 111.36362708333763,
      "v": 32
    },
    {
      "midi": 37,
      "hit": false,
      "t": 129820.44372708334,
      "d": 147.72726041666465,
      "v": 102
    },
    {
      "midi": 65,
      "hit": false,
      "t": 129822.71645416606,
      "d": 213.63634583333624,
      "v": 81
    },
    {
      "midi": 56,
      "hit": false,
      "t": 129831.80736249949,
      "d": 1095.4544541666546,
      "v": 104
    },
    {
      "midi": 56,
      "hit": false,
      "t": 129831.80736249998,
      "d": 1095.4544541666692,
      "v": 104
    },
    {
      "midi": 80,
      "hit": false,
      "t": 130099.9891583333,
      "d": 131.81817083332862,
      "v": 32
    },
    {
      "midi": 81,
      "hit": false,
      "t": 130359.0800458333,
      "d": 447.72723541666346,
      "v": 54
    },
    {
      "midi": 42,
      "hit": false,
      "t": 130386.35277083323,
      "d": 143.18180624999513,
      "v": 45
    },
    {
      "midi": 58,
      "hit": false,
      "t": 130886.35272916607,
      "d": 263.63634166665724,
      "v": 42
    },
    {
      "midi": 67,
      "hit": false,
      "t": 130909.07999999986,
      "d": 663.6363083333272,
      "v": 58
    },
    {
      "midi": 80,
      "hit": false,
      "t": 130909.07999999996,
      "d": 129.54544375000114,
      "v": 39
    },
    {
      "midi": 64,
      "hit": false,
      "t": 130911.35272708318,
      "d": 661.3635812499997,
      "v": 61
    },
    {
      "midi": 42,
      "hit": false,
      "t": 130922.7163624999,
      "d": 147.72726041666465,
      "v": 47
    },
    {
      "midi": 64,
      "hit": false,
      "t": 130927.26181666607,
      "d": 261.3636145833152,
      "v": 48
    },
    {
      "midi": 58,
      "hit": false,
      "t": 130927.26181666614,
      "d": 1081.8180916666752,
      "v": 104
    },
    {
      "midi": 58,
      "hit": false,
      "t": 130927.26181666665,
      "d": 1081.8180916666606,
      "v": 104
    },
    {
      "midi": 70,
      "hit": false,
      "t": 130929.53454374985,
      "d": 465.90905208332697,
      "v": 51
    },
    {
      "midi": 40,
      "hit": false,
      "t": 130929.53454375,
      "d": 886.3635624999879,
      "v": 74
    },
    {
      "midi": 67,
      "hit": false,
      "t": 130961.35272291607,
      "d": 261.3636145833152,
      "v": 69
    },
    {
      "midi": 80,
      "hit": false,
      "t": 131190.8981583333,
      "d": 124.99998958333163,
      "v": 39
    },
    {
      "midi": 42,
      "hit": false,
      "t": 131452.26177291656,
      "d": 140.9090791666531,
      "v": 45
    },
    {
      "midi": 81,
      "hit": false,
      "t": 131456.80722708328,
      "d": 452.272689583333,
      "v": 47
    },
    {
      "midi": 60,
      "hit": false,
      "t": 131997.71627291653,
      "d": 1484.090785416658,
      "v": 63
    },
    {
      "midi": 53,
      "hit": false,
      "t": 131999.9889999994,
      "d": 470.45450624998193,
      "v": 63
    },
    {
      "midi": 68,
      "hit": false,
      "t": 131999.98899999986,
      "d": 918.18174166666,
      "v": 71
    },
    {
      "midi": 41,
      "hit": false,
      "t": 131999.98899999997,
      "d": 2024.9998312499956,
      "v": 82
    },
    {
      "midi": 36,
      "hit": false,
      "t": 131999.989,
      "d": 154.5454416666762,
      "v": 87
    },
    {
      "midi": 65,
      "hit": false,
      "t": 132002.26172708318,
      "d": 1036.3635500000091,
      "v": 60
    },
    {
      "midi": 80,
      "hit": false,
      "t": 132002.26172708327,
      "d": 111.36362708333763,
      "v": 39
    },
    {
      "midi": 60,
      "hit": false,
      "t": 132009.07990833282,
      "d": 1070.4544562499796,
      "v": 95
    },
    {
      "midi": 60,
      "hit": false,
      "t": 132009.0799083333,
      "d": 1070.4544562500087,
      "v": 103
    },
    {
      "midi": 42,
      "hit": false,
      "t": 132022.71627083322,
      "d": 152.2727145833196,
      "v": 55
    },
    {
      "midi": 80,
      "hit": false,
      "t": 132284.0798854166,
      "d": 152.2727145833196,
      "v": 32
    },
    {
      "midi": 53,
      "hit": false,
      "t": 132545.44349999938,
      "d": 340.90906249999534,
      "v": 59
    },
    {
      "midi": 81,
      "hit": false,
      "t": 132545.44349999994,
      "d": 456.81814374998794,
      "v": 50
    },
    {
      "midi": 42,
      "hit": false,
      "t": 132549.98895416653,
      "d": 154.5454416666762,
      "v": 45
    },
    {
      "midi": 60,
      "hit": false,
      "t": 132818.17074999938,
      "d": 529.5454104166711,
      "v": 70
    },
    {
      "midi": 65,
      "hit": false,
      "t": 133079.5343645828,
      "d": 1131.8180874999962,
      "v": 103
    },
    {
      "midi": 65,
      "hit": false,
      "t": 133079.53436458332,
      "d": 1131.8180874999962,
      "v": 100
    },
    {
      "midi": 53,
      "hit": false,
      "t": 133090.89799999938,
      "d": 343.1817895833228,
      "v": 54
    },
    {
      "midi": 80,
      "hit": false,
      "t": 133090.89799999993,
      "d": 143.18180625000969,
      "v": 32
    },
    {
      "midi": 42,
      "hit": false,
      "t": 133097.71618124988,
      "d": 131.81817083334317,
      "v": 45
    },
    {
      "midi": 65,
      "hit": false,
      "t": 133363.62524999937,
      "d": 259.0908875000023,
      "v": 72
    },
    {
      "midi": 80,
      "hit": false,
      "t": 133368.1707041666,
      "d": 193.1818020833307,
      "v": 39
    },
    {
      "midi": 53,
      "hit": false,
      "t": 133636.35249999937,
      "d": 313.63633750000736,
      "v": 43
    },
    {
      "midi": 42,
      "hit": false,
      "t": 133638.62522708322,
      "d": 147.72726041666465,
      "v": 45
    },
    {
      "midi": 81,
      "hit": false,
      "t": 133638.62522708328,
      "d": 415.90905625000596,
      "v": 57
    },
    {
      "midi": 60,
      "hit": false,
      "t": 133909.07974999936,
      "d": 268.1817958333413,
      "v": 54
    },
    {
      "midi": 42,
      "hit": false,
      "t": 134177.26154583323,
      "d": 138.63635208332562,
      "v": 47
    },
    {
      "midi": 52,
      "hit": false,
      "t": 134181.80699999936,
      "d": 470.45450624998193,
      "v": 63
    },
    {
      "midi": 68,
      "hit": false,
      "t": 134181.80699999986,
      "d": 918.18174166666,
      "v": 71
    },
    {
      "midi": 64,
      "hit": false,
      "t": 134181.80699999986,
      "d": 1070.4544562499796,
      "v": 68
    },
    {
      "midi": 80,
      "hit": false,
      "t": 134181.80699999994,
      "d": 136.36362499999814,
      "v": 39
    },
    {
      "midi": 40,
      "hit": false,
      "t": 134184.0797270833,
      "d": 2013.636195833329,
      "v": 89
    },
    {
      "midi": 37,
      "hit": false,
      "t": 134184.07972708336,
      "d": 127.27271666665911,
      "v": 102
    },
    {
      "midi": 67,
      "hit": false,
      "t": 134211.3524520828,
      "d": 1106.8180895833066,
      "v": 105
    },
    {
      "midi": 67,
      "hit": false,
      "t": 134211.35245208332,
      "d": 1106.8180895833357,
      "v": 101
    },
    {
      "midi": 60,
      "hit": false,
      "t": 134224.9888145832,
      "d": 802.2726604166673,
      "v": 65
    },
    {
      "midi": 80,
      "hit": false,
      "t": 134465.8978854166,
      "d": 195.45452916665818,
      "v": 39
    },
    {
      "midi": 42,
      "hit": false,
      "t": 134722.71604583322,
      "d": 143.18180625000969,
      "v": 45
    },
    {
      "midi": 52,
      "hit": false,
      "t": 134727.26149999935,
      "d": 340.90906249999534,
      "v": 59
    },
    {
      "midi": 81,
      "hit": false,
      "t": 134727.26149999994,
      "d": 449.9999625000055,
      "v": 62
    },
    {
      "midi": 60,
      "hit": false,
      "t": 134999.98874999935,
      "d": 529.5454104166711,
      "v": 70
    },
    {
      "midi": 42,
      "hit": false,
      "t": 135265.8978187499,
      "d": 136.36362499999814,
      "v": 45
    },
    {
      "midi": 52,
      "hit": false,
      "t": 135272.71599999935,
      "d": 343.1817895833228,
      "v": 54
    },
    {
      "midi": 80,
      "hit": false,
      "t": 135277.2614541666,
      "d": 140.9090791666531,
      "v": 39
    },
    {
      "midi": 68,
      "hit": false,
      "t": 135318.1705416661,
      "d": 556.8181354166591,
      "v": 101
    },
    {
      "midi": 68,
      "hit": false,
      "t": 135318.17054166665,
      "d": 556.8181354166591,
      "v": 101
    },
    {
      "midi": 64,
      "hit": false,
      "t": 135534.07961458268,
      "d": 259.0908875000023,
      "v": 72
    },
    {
      "midi": 80,
      "hit": false,
      "t": 135549.9887041666,
      "d": 193.1818020833307,
      "v": 39
    },
    {
      "midi": 42,
      "hit": false,
      "t": 135804.5341374999,
      "d": 143.18180625000969,
      "v": 55
    },
    {
      "midi": 52,
      "hit": false,
      "t": 135818.17049999934,
      "d": 313.63633750000736,
      "v": 43
    },
    {
      "midi": 36,
      "hit": false,
      "t": 135818.1705,
      "d": 165.9090770833427,
      "v": 81
    },
    {
      "midi": 81,
      "hit": false,
      "t": 135820.44322708328,
      "d": 440.90905416666646,
      "v": 54
    },
    {
      "midi": 70,
      "hit": false,
      "t": 135824.98868124944,
      "d": 1518.1816916666285,
      "v": 109
    },
    {
      "midi": 70,
      "hit": false,
      "t": 135824.98868125,
      "d": 1518.1816916666576,
      "v": 109
    },
    {
      "midi": 60,
      "hit": false,
      "t": 136090.89774999933,
      "d": 268.1817958333413,
      "v": 54
    },
    {
      "midi": 80,
      "hit": false,
      "t": 136359.0795458333,
      "d": 147.72726041666465,
      "v": 28
    },
    {
      "midi": 36,
      "hit": false,
      "t": 136361.35227291667,
      "d": 165.9090770833427,
      "v": 81
    },
    {
      "midi": 51,
      "hit": false,
      "t": 136363.62499999933,
      "d": 470.45450624998193,
      "v": 63
    },
    {
      "midi": 68,
      "hit": false,
      "t": 136363.62499999983,
      "d": 918.1817416666308,
      "v": 71
    },
    {
      "midi": 39,
      "hit": false,
      "t": 136363.62499999997,
      "d": 2024.9998312499956,
      "v": 78
    },
    {
      "midi": 63,
      "hit": false,
      "t": 136368.17045416648,
      "d": 1113.6362708333181,
      "v": 68
    },
    {
      "midi": 42,
      "hit": false,
      "t": 136370.4431812499,
      "d": 147.72726041666465,
      "v": 45
    },
    {
      "midi": 60,
      "hit": false,
      "t": 136384.0795437498,
      "d": 802.2726604166673,
      "v": 65
    },
    {
      "midi": 80,
      "hit": false,
      "t": 136647.7158854166,
      "d": 177.27271250000922,
      "v": 39
    },
    {
      "midi": 51,
      "hit": false,
      "t": 136909.07949999932,
      "d": 340.90906249999534,
      "v": 59
    },
    {
      "midi": 81,
      "hit": false,
      "t": 136909.07949999993,
      "d": 459.0908708333445,
      "v": 47
    },
    {
      "midi": 42,
      "hit": false,
      "t": 136927.26131666655,
      "d": 140.9090791666531,
      "v": 51
    },
    {
      "midi": 60,
      "hit": false,
      "t": 137181.80674999932,
      "d": 529.5454104166711,
      "v": 70
    },
    {
      "midi": 68,
      "hit": false,
      "t": 137343.17037291607,
      "d": 1634.0907729166502,
      "v": 107
    },
    {
      "midi": 68,
      "hit": false,
      "t": 137343.17037291665,
      "d": 1634.0907729166793,
      "v": 107
    },
    {
      "midi": 51,
      "hit": false,
      "t": 137454.53399999932,
      "d": 343.1817895833228,
      "v": 54
    },
    {
      "midi": 80,
      "hit": false,
      "t": 137454.53399999996,
      "d": 124.99998958333163,
      "v": 32
    },
    {
      "midi": 42,
      "hit": false,
      "t": 137474.98854374987,
      "d": 147.72726041666465,
      "v": 45
    },
    {
      "midi": 65,
      "hit": false,
      "t": 137727.2612499993,
      "d": 259.0908875000023,
      "v": 72
    },
    {
      "midi": 80,
      "hit": false,
      "t": 137738.62488541662,
      "d": 159.09089583333116,
      "v": 28
    },
    {
      "midi": 81,
      "hit": false,
      "t": 137997.71577291662,
      "d": 454.54541666666046,
      "v": 47
    },
    {
      "midi": 51,
      "hit": false,
      "t": 137999.9884999993,
      "d": 313.63633750000736,
      "v": 43
    },
    {
      "midi": 42,
      "hit": false,
      "t": 138024.98849791655,
      "d": 127.27271666665911,
      "v": 45
    },
    {
      "midi": 60,
      "hit": false,
      "t": 138272.7157499993,
      "d": 268.1817958333413,
      "v": 54
    },
    {
      "midi": 80,
      "hit": false,
      "t": 138540.8975458333,
      "d": 134.09089791667066,
      "v": 39
    },
    {
      "midi": 65,
      "hit": false,
      "t": 138543.17027291647,
      "d": 1022.727187499986,
      "v": 68
    },
    {
      "midi": 50,
      "hit": false,
      "t": 138545.4429999993,
      "d": 470.45450624998193,
      "v": 63
    },
    {
      "midi": 37,
      "hit": false,
      "t": 138545.44300000003,
      "d": 138.63635208332562,
      "v": 89
    },
    {
      "midi": 70,
      "hit": false,
      "t": 138547.71572708312,
      "d": 993.1817354166706,
      "v": 81
    },
    {
      "midi": 62,
      "hit": false,
      "t": 138549.98845416645,
      "d": 852.2726562500175,
      "v": 60
    },
    {
      "midi": 38,
      "hit": false,
      "t": 138552.26118124995,
      "d": 2022.7271041666681,
      "v": 81
    },
    {
      "midi": 42,
      "hit": false,
      "t": 138554.53390833322,
      "d": 136.36362499999814,
      "v": 45
    },
    {
      "midi": 80,
      "hit": false,
      "t": 138824.98843124995,
      "d": 147.72726041666465,
      "v": 32
    },
    {
      "midi": 67,
      "hit": false,
      "t": 139065.89750208272,
      "d": 604.5454041666526,
      "v": 105
    },
    {
      "midi": 67,
      "hit": false,
      "t": 139065.89750208333,
      "d": 604.5454041666526,
      "v": 105
    },
    {
      "midi": 50,
      "hit": false,
      "t": 139090.8974999993,
      "d": 340.90906249999534,
      "v": 59
    },
    {
      "midi": 81,
      "hit": false,
      "t": 139090.89749999993,
      "d": 459.0908708333445,
      "v": 56
    },
    {
      "midi": 42,
      "hit": false,
      "t": 139111.35204374988,
      "d": 145.45453333333717,
      "v": 45
    },
    {
      "midi": 60,
      "hit": false,
      "t": 139363.6247499993,
      "d": 529.5454104166711,
      "v": 70
    },
    {
      "midi": 65,
      "hit": false,
      "t": 139636.3519999993,
      "d": 259.0908875000023,
      "v": 72
    },
    {
      "midi": 80,
      "hit": false,
      "t": 139638.62472708328,
      "d": 124.99998958333163,
      "v": 39
    },
    {
      "midi": 42,
      "hit": false,
      "t": 139645.4429083332,
      "d": 138.63635208332562,
      "v": 45
    },
    {
      "midi": 68,
      "hit": false,
      "t": 139670.44290624937,
      "d": 511.363593749993,
      "v": 104
    },
    {
      "midi": 68,
      "hit": false,
      "t": 139670.44290624998,
      "d": 511.363593749993,
      "v": 104
    },
    {
      "midi": 80,
      "hit": false,
      "t": 139920.44288541662,
      "d": 143.18180625000969,
      "v": 28
    },
    {
      "midi": 72,
      "hit": false,
      "t": 140181.80649999937,
      "d": 2097.7270979166497,
      "v": 110
    },
    {
      "midi": 42,
      "hit": false,
      "t": 140181.80649999986,
      "d": 147.72726041666465,
      "v": 45
    },
    {
      "midi": 72,
      "hit": false,
      "t": 140181.80649999998,
      "d": 2097.7270979166788,
      "v": 110
    },
    {
      "midi": 81,
      "hit": false,
      "t": 140186.35195416663,
      "d": 445.4545083333214,
      "v": 50
    },
    {
      "midi": 37,
      "hit": false,
      "t": 140699.98827499995,
      "d": 2572.7270583333448,
      "v": 81
    },
    {
      "midi": 80,
      "hit": false,
      "t": 140724.9882729166,
      "d": 131.81817083334317,
      "v": 39
    },
    {
      "midi": 68,
      "hit": false,
      "t": 140727.2609999998,
      "d": 986.363554166659,
      "v": 76
    },
    {
      "midi": 65,
      "hit": false,
      "t": 140727.2609999998,
      "d": 1263.6362583333103,
      "v": 54
    },
    {
      "midi": 42,
      "hit": false,
      "t": 140727.26099999985,
      "d": 147.72726041666465,
      "v": 45
    },
    {
      "midi": 72,
      "hit": false,
      "t": 140729.53372708312,
      "d": 1247.7271687499888,
      "v": 62
    },
    {
      "midi": 36,
      "hit": false,
      "t": 140731.80645416668,
      "d": 170.45453124999767,
      "v": 81
    },
    {
      "midi": 80,
      "hit": false,
      "t": 141013.62461249996,
      "d": 140.9090791666531,
      "v": 28
    },
    {
      "midi": 81,
      "hit": false,
      "t": 141272.71549999993,
      "d": 415.90905625000596,
      "v": 51
    },
    {
      "midi": 42,
      "hit": false,
      "t": 141293.17004374985,
      "d": 140.9090791666531,
      "v": 54
    },
    {
      "midi": 65,
      "hit": false,
      "t": 141768.17000416596,
      "d": 340.90906249999534,
      "v": 43
    },
    {
      "midi": 68,
      "hit": false,
      "t": 141795.44272916595,
      "d": 259.0908875000023,
      "v": 56
    },
    {
      "midi": 72,
      "hit": false,
      "t": 141818.16999999929,
      "d": 268.1817958333413,
      "v": 38
    },
    {
      "midi": 80,
      "hit": false,
      "t": 141818.16999999993,
      "d": 129.5454437499866,
      "v": 39
    },
    {
      "midi": 42,
      "hit": false,
      "t": 141849.9881791665,
      "d": 159.09089583333116,
      "v": 45
    },
    {
      "midi": 80,
      "hit": false,
      "t": 142097.7154312499,
      "d": 129.5454437499866,
      "v": 36
    },
    {
      "midi": 68,
      "hit": false,
      "t": 142279.53359791602,
      "d": 306.8181562499958,
      "v": 93
    },
    {
      "midi": 68,
      "hit": false,
      "t": 142279.53359791666,
      "d": 306.8181562499958,
      "v": 93
    },
    {
      "midi": 81,
      "hit": false,
      "t": 142363.6244999999,
      "d": 436.3636000000115,
      "v": 49
    },
    {
      "midi": 42,
      "hit": false,
      "t": 142368.16995416651,
      "d": 163.63634999998612,
      "v": 45
    },
    {
      "midi": 65,
      "hit": false,
      "t": 142586.351754166,
      "d": 309.0908833333233,
      "v": 82
    },
    {
      "midi": 65,
      "hit": false,
      "t": 142586.35175416665,
      "d": 309.0908833333233,
      "v": 82
    },
    {
      "midi": 68,
      "hit": false,
      "t": 142895.44263749933,
      "d": 2536.3634249999595,
      "v": 89
    },
    {
      "midi": 68,
      "hit": false,
      "t": 142895.44263749997,
      "d": 2536.3634249999886,
      "v": 89
    },
    {
      "midi": 80,
      "hit": false,
      "t": 142906.80627291655,
      "d": 131.81817083334317,
      "v": 36
    },
    {
      "midi": 37,
      "hit": false,
      "t": 142911.35172708335,
      "d": 152.2727145833196,
      "v": 84
    },
    {
      "midi": 42,
      "hit": false,
      "t": 142920.4426354165,
      "d": 147.72726041666465,
      "v": 45
    },
    {
      "midi": 80,
      "hit": false,
      "t": 143193.16988541657,
      "d": 136.36362499999814,
      "v": 36
    },
    {
      "midi": 81,
      "hit": false,
      "t": 143454.5334999999,
      "d": 434.0908729166549,
      "v": 53
    },
    {
      "midi": 42,
      "hit": false,
      "t": 143470.44258958317,
      "d": 156.81816875000368,
      "v": 45
    },
    {
      "midi": 32,
      "hit": false,
      "t": 143477.2607708333,
      "d": 522.7272291666595,
      "v": 75
    },
    {
      "midi": 65,
      "hit": false,
      "t": 143965.89709374928,
      "d": 340.90906249999534,
      "v": 41
    },
    {
      "midi": 68,
      "hit": false,
      "t": 143984.07891041596,
      "d": 259.0908875000023,
      "v": 54
    },
    {
      "midi": 72,
      "hit": false,
      "t": 143999.98799999928,
      "d": 268.1817958333413,
      "v": 36
    },
    {
      "midi": 80,
      "hit": false,
      "t": 144002.26072708322,
      "d": 122.72726250000414,
      "v": 39
    },
    {
      "midi": 42,
      "hit": false,
      "t": 144018.16981666652,
      "d": 143.18180625000969,
      "v": 47
    },
    {
      "midi": 37,
      "hit": false,
      "t": 144022.7152708333,
      "d": 556.8181354166591,
      "v": 79
    },
    {
      "midi": 80,
      "hit": false,
      "t": 144284.07888541656,
      "d": 120.45453541667666,
      "v": 28
    },
    {
      "midi": 81,
      "hit": false,
      "t": 144543.16977291656,
      "d": 431.81814583332743,
      "v": 54
    },
    {
      "midi": 36,
      "hit": false,
      "t": 144545.4425,
      "d": 184.09089374999166,
      "v": 81
    },
    {
      "midi": 42,
      "hit": false,
      "t": 144547.7152270832,
      "d": 145.45453333333717,
      "v": 51
    },
    {
      "midi": 41,
      "hit": false,
      "t": 144568.16977083328,
      "d": 499.9999583333265,
      "v": 66
    },
    {
      "midi": 65,
      "hit": false,
      "t": 145086.3515458331,
      "d": 1315.9089812499878,
      "v": 44
    },
    {
      "midi": 68,
      "hit": false,
      "t": 145090.89699999976,
      "d": 1272.7271666666784,
      "v": 46
    },
    {
      "midi": 61,
      "hit": false,
      "t": 145090.89699999976,
      "d": 1277.2726208333333,
      "v": 51
    },
    {
      "midi": 36,
      "hit": false,
      "t": 145090.897,
      "d": 195.45452916665818,
      "v": 82
    },
    {
      "midi": 51,
      "hit": false,
      "t": 145090.89700000003,
      "d": 79.54544791666558,
      "v": 84
    },
    {
      "midi": 39,
      "hit": false,
      "t": 145097.71518124995,
      "d": 4084.090568749991,
      "v": 87
    },
    {
      "midi": 51,
      "hit": false,
      "t": 145186.3515375,
      "d": 79.54544791666558,
      "v": 48
    },
    {
      "midi": 51,
      "hit": false,
      "t": 145293.16971041667,
      "d": 79.54544791666558,
      "v": 44
    },
    {
      "midi": 51,
      "hit": false,
      "t": 145411.35151875,
      "d": 79.54544791666558,
      "v": 44
    },
    {
      "midi": 51,
      "hit": false,
      "t": 145556.80605208332,
      "d": 79.54544791666558,
      "v": 42
    },
    {
      "midi": 51,
      "hit": false,
      "t": 145672.71513333332,
      "d": 79.54544791666558,
      "v": 36
    },
    {
      "midi": 51,
      "hit": false,
      "t": 145795.44239583332,
      "d": 79.54544791666558,
      "v": 34
    },
    {
      "midi": 51,
      "hit": false,
      "t": 145911.3514770833,
      "d": 79.54544791666558,
      "v": 32
    },
    {
      "midi": 51,
      "hit": false,
      "t": 146015.89692291664,
      "d": 79.54544791666558,
      "v": 28
    },
    {
      "midi": 51,
      "hit": false,
      "t": 146111.35146041663,
      "d": 79.54544791666558,
      "v": 24
    },
    {
      "midi": 56,
      "hit": false,
      "t": 146199.98781666596,
      "d": 1570.4544145833352,
      "v": 96
    },
    {
      "midi": 56,
      "hit": false,
      "t": 146199.98781666663,
      "d": 1570.4544145833352,
      "v": 96
    },
    {
      "midi": 51,
      "hit": false,
      "t": 146220.44236041664,
      "d": 79.54544791666558,
      "v": 22
    },
    {
      "midi": 51,
      "hit": false,
      "t": 146336.35144166663,
      "d": 79.54544791666558,
      "v": 22
    },
    {
      "midi": 51,
      "hit": false,
      "t": 146468.16961249997,
      "d": 79.54544791666558,
      "v": 20
    },
    {
      "midi": 51,
      "hit": false,
      "t": 146579.5332395833,
      "d": 79.54544791666558,
      "v": 20
    },
    {
      "midi": 51,
      "hit": false,
      "t": 146693.16959374998,
      "d": 79.54544791666558,
      "v": 20
    },
    {
      "midi": 51,
      "hit": false,
      "t": 146806.80594791664,
      "d": 79.54544791666558,
      "v": 20
    },
    {
      "midi": 51,
      "hit": false,
      "t": 146940.8968458333,
      "d": 79.54544791666558,
      "v": 16
    },
    {
      "midi": 51,
      "hit": false,
      "t": 147049.98774583332,
      "d": 79.54544791666558,
      "v": 16
    },
    {
      "midi": 51,
      "hit": false,
      "t": 147168.16955416664,
      "d": 79.54544791666558,
      "v": 16
    },
    {
      "midi": 51,
      "hit": false,
      "t": 147313.62408749998,
      "d": 79.54544791666558,
      "v": 16
    },
    {
      "midi": 51,
      "hit": false,
      "t": 147429.53316874997,
      "d": 79.54544791666558,
      "v": 16
    },
    {
      "midi": 51,
      "hit": false,
      "t": 147552.26043124998,
      "d": 79.54544791666558,
      "v": 12
    },
    {
      "midi": 51,
      "hit": false,
      "t": 147665.89678541664,
      "d": 79.54544791666558,
      "v": 12
    },
    {
      "midi": 58,
      "hit": false,
      "t": 147770.4422312493,
      "d": 531.8181374999986,
      "v": 55
    },
    {
      "midi": 58,
      "hit": false,
      "t": 147770.44223124997,
      "d": 531.8181374999986,
      "v": 55
    },
    {
      "midi": 51,
      "hit": false,
      "t": 147772.7149583333,
      "d": 79.54544791666558,
      "v": 12
    },
    {
      "midi": 51,
      "hit": false,
      "t": 147868.16949583328,
      "d": 79.54544791666558,
      "v": 12
    },
    {
      "midi": 56,
      "hit": false,
      "t": 148302.2603687493,
      "d": 540.9090458333085,
      "v": 55
    },
    {
      "midi": 56,
      "hit": false,
      "t": 148302.26036874996,
      "d": 540.9090458333376,
      "v": 55
    },
    {
      "midi": 60,
      "hit": false,
      "t": 148843.1694145826,
      "d": 6565.908543749945,
      "v": 61
    },
    {
      "midi": 60,
      "hit": false,
      "t": 148843.1694145833,
      "d": 4974.999585416663,
      "v": 61
    },
    {
      "midi": 55,
      "hit": false,
      "t": 149418.16936666667,
      "d": 4381.817816666589,
      "v": 60
    },
    {
      "midi": 53,
      "hit": false,
      "t": 149454.53299999927,
      "d": 343.1817895833228,
      "v": 72
    },
    {
      "midi": 57,
      "hit": false,
      "t": 149454.53299999976,
      "d": 665.9090354166692,
      "v": 53
    },
    {
      "midi": 53,
      "hit": false,
      "t": 149470.44208958308,
      "d": 665.9090354166692,
      "v": 36
    },
    {
      "midi": 55,
      "hit": false,
      "t": 149479.53299791642,
      "d": 406.81814791666693,
      "v": 32
    },
    {
      "midi": 57,
      "hit": false,
      "t": 149484.07845208334,
      "d": 4388.635997916601,
      "v": 69
    },
    {
      "midi": 41,
      "hit": false,
      "t": 149488.62390625,
      "d": 4397.726906249911,
      "v": 71
    },
    {
      "midi": 57,
      "hit": false,
      "t": 149999.98749999926,
      "d": 340.90906249999534,
      "v": 60
    },
    {
      "midi": 60,
      "hit": false,
      "t": 150272.71474999926,
      "d": 529.5454104166711,
      "v": 68
    },
    {
      "midi": 53,
      "hit": false,
      "t": 150545.44199999925,
      "d": 343.1817895833228,
      "v": 56
    },
    {
      "midi": 65,
      "hit": false,
      "t": 150818.16924999925,
      "d": 259.0908875000023,
      "v": 80
    },
    {
      "midi": 60,
      "hit": false,
      "t": 151090.89649999925,
      "d": 313.63633750000736,
      "v": 46
    },
    {
      "midi": 57,
      "hit": false,
      "t": 151363.62374999924,
      "d": 268.1817958333413,
      "v": 56
    },
    {
      "midi": 53,
      "hit": false,
      "t": 151636.35099999924,
      "d": 470.45450625001104,
      "v": 64
    },
    {
      "midi": 57,
      "hit": false,
      "t": 152184.0782270826,
      "d": 718.1817583333177,
      "v": 63
    },
    {
      "midi": 60,
      "hit": false,
      "t": 152454.53274999926,
      "d": 499.9999583333265,
      "v": 63
    },
    {
      "midi": 53,
      "hit": false,
      "t": 152727.25999999925,
      "d": 470.45450624998193,
      "v": 53
    },
    {
      "midi": 65,
      "hit": false,
      "t": 152999.98724999925,
      "d": 263.63634166665724,
      "v": 68
    },
    {
      "midi": 60,
      "hit": false,
      "t": 153272.71449999925,
      "d": 261.36361458332976,
      "v": 50
    },
    {
      "midi": 57,
      "hit": false,
      "t": 153545.44174999924,
      "d": 165.9090770833427,
      "v": 62
    },
    {
      "midi": 45,
      "hit": false,
      "t": 153804.5326374999,
      "d": 4390.908724999928,
      "v": 79
    },
    {
      "midi": 45,
      "hit": false,
      "t": 153818.16899999927,
      "d": 445.4545083333214,
      "v": 88
    },
    {
      "midi": 55,
      "hit": false,
      "t": 153820.4417270831,
      "d": 406.81814791666693,
      "v": 61
    },
    {
      "midi": 60,
      "hit": false,
      "t": 153840.8962708331,
      "d": 545.4544999999925,
      "v": 61
    },
    {
      "midi": 55,
      "hit": false,
      "t": 153845.44172499995,
      "d": 4195.45419583327,
      "v": 71
    },
    {
      "midi": 52,
      "hit": false,
      "t": 153852.2599062499,
      "d": 4343.181456249935,
      "v": 62
    },
    {
      "midi": 52,
      "hit": false,
      "t": 153856.80536041642,
      "d": 665.9090354166692,
      "v": 39
    },
    {
      "midi": 60,
      "hit": false,
      "t": 153861.35081458327,
      "d": 4263.636008333269,
      "v": 66
    },
    {
      "midi": 60,
      "hit": false,
      "t": 154363.62349999926,
      "d": 549.9999541666475,
      "v": 72
    },
    {
      "midi": 64,
      "hit": false,
      "t": 154909.07799999925,
      "d": 527.2726833333145,
      "v": 65
    },
    {
      "midi": 60,
      "hit": false,
      "t": 155454.53249999924,
      "d": 279.5454312500078,
      "v": 63
    },
    {
      "midi": 45,
      "hit": false,
      "t": 155727.25974999924,
      "d": 279.5454312500078,
      "v": 63
    },
    {
      "midi": 67,
      "hit": false,
      "t": 155997.7142729159,
      "d": 534.090864583326,
      "v": 84
    },
    {
      "midi": 78,
      "hit": false,
      "t": 156493.1687770832,
      "d": 120.45453541667666,
      "v": 58
    },
    {
      "midi": 64,
      "hit": false,
      "t": 156545.44149999923,
      "d": 254.54543333334732,
      "v": 61
    },
    {
      "midi": 79,
      "hit": false,
      "t": 156618.16876666652,
      "d": 1029.5453687499976,
      "v": 95
    },
    {
      "midi": 45,
      "hit": false,
      "t": 156818.16874999925,
      "d": 252.27270624999073,
      "v": 65
    },
    {
      "midi": 67,
      "hit": false,
      "t": 157093.16872708258,
      "d": 297.7272479166568,
      "v": 69
    },
    {
      "midi": 64,
      "hit": false,
      "t": 157636.35049999924,
      "d": 243.1817979166808,
      "v": 49
    },
    {
      "midi": 77,
      "hit": false,
      "t": 157654.53231666653,
      "d": 243.1817979166808,
      "v": 89
    },
    {
      "midi": 76,
      "hit": false,
      "t": 157918.16865833322,
      "d": 218.1817999999912,
      "v": 96
    },
    {
      "midi": 46,
      "hit": false,
      "t": 158181.80499999927,
      "d": 343.1817895833228,
      "v": 88
    },
    {
      "midi": 62,
      "hit": false,
      "t": 158181.80499999976,
      "d": 545.4544999999925,
      "v": 39
    },
    {
      "midi": 53,
      "hit": false,
      "t": 158181.80499999985,
      "d": 4354.545091666601,
      "v": 54
    },
    {
      "midi": 76,
      "hit": false,
      "t": 158186.35045416653,
      "d": 529.545410416642,
      "v": 99
    },
    {
      "midi": 57,
      "hit": false,
      "t": 158188.6231812499,
      "d": 4352.272364583303,
      "v": 61
    },
    {
      "midi": 53,
      "hit": false,
      "t": 158206.80499791642,
      "d": 406.81814791666693,
      "v": 37
    },
    {
      "midi": 57,
      "hit": false,
      "t": 158206.80499791642,
      "d": 406.81814791666693,
      "v": 52
    },
    {
      "midi": 46,
      "hit": false,
      "t": 158206.8049979165,
      "d": 4263.636008333269,
      "v": 68
    },
    {
      "midi": 62,
      "hit": false,
      "t": 158247.71408541655,
      "d": 4259.090554166614,
      "v": 66
    },
    {
      "midi": 58,
      "hit": false,
      "t": 158727.25949999926,
      "d": 340.90906249999534,
      "v": 64
    },
    {
      "midi": 77,
      "hit": false,
      "t": 158734.07768124985,
      "d": 254.5454333332891,
      "v": 79
    },
    {
      "midi": 62,
      "hit": false,
      "t": 158999.98674999925,
      "d": 529.5454104166711,
      "v": 71
    },
    {
      "midi": 74,
      "hit": false,
      "t": 159009.07765833315,
      "d": 2263.6361749999924,
      "v": 95
    },
    {
      "midi": 46,
      "hit": false,
      "t": 159272.71399999925,
      "d": 343.1817895833228,
      "v": 59
    },
    {
      "midi": 65,
      "hit": false,
      "t": 159545.44124999925,
      "d": 259.0908875000023,
      "v": 82
    },
    {
      "midi": 46,
      "hit": false,
      "t": 159818.16849999924,
      "d": 313.63633750000736,
      "v": 37
    },
    {
      "midi": 62,
      "hit": false,
      "t": 160090.89574999924,
      "d": 268.1817958333413,
      "v": 72
    },
    {
      "midi": 46,
      "hit": false,
      "t": 160363.62299999924,
      "d": 470.45450625001104,
      "v": 59
    },
    {
      "midi": 58,
      "hit": false,
      "t": 160911.35022708258,
      "d": 718.1817583333177,
      "v": 63
    },
    {
      "midi": 62,
      "hit": false,
      "t": 161181.80474999925,
      "d": 499.9999583333265,
      "v": 63
    },
    {
      "midi": 65,
      "hit": false,
      "t": 161454.53199999925,
      "d": 263.63634166665724,
      "v": 75
    },
    {
      "midi": 65,
      "hit": false,
      "t": 161743.16833958315,
      "d": 215.90907291666372,
      "v": 84
    },
    {
      "midi": 64,
      "hit": false,
      "t": 161959.0774124998,
      "d": 313.63633750000736,
      "v": 87
    },
    {
      "midi": 64,
      "hit": false,
      "t": 161999.98649999924,
      "d": 534.0908645833551,
      "v": 67
    },
    {
      "midi": 65,
      "hit": false,
      "t": 162231.8046624998,
      "d": 320.4545187500189,
      "v": 94
    },
    {
      "midi": 56,
      "hit": false,
      "t": 162515.89554791644,
      "d": 2161.3634562499938,
      "v": 56
    },
    {
      "midi": 65,
      "hit": false,
      "t": 162515.8955479165,
      "d": 2090.908916666667,
      "v": 56
    },
    {
      "midi": 61,
      "hit": false,
      "t": 162534.07736458318,
      "d": 2168.1816375000053,
      "v": 59
    },
    {
      "midi": 46,
      "hit": false,
      "t": 162545.44099999926,
      "d": 470.45450624998193,
      "v": 44
    },
    {
      "midi": 73,
      "hit": false,
      "t": 162565.89554374982,
      "d": 1047.7271854166465,
      "v": 93
    },
    {
      "midi": 56,
      "hit": false,
      "t": 162570.44099791642,
      "d": 406.81814791666693,
      "v": 43
    },
    {
      "midi": 49,
      "hit": false,
      "t": 162593.16826874975,
      "d": 406.81814791666693,
      "v": 37
    },
    {
      "midi": 58,
      "hit": false,
      "t": 162606.80463124975,
      "d": 552.2726812500041,
      "v": 37
    },
    {
      "midi": 53,
      "hit": false,
      "t": 162606.80463124975,
      "d": 665.9090354166692,
      "v": 49
    },
    {
      "midi": 58,
      "hit": false,
      "t": 163093.16822708258,
      "d": 718.1817583333177,
      "v": 38
    },
    {
      "midi": 61,
      "hit": false,
      "t": 163363.62274999925,
      "d": 499.9999583333265,
      "v": 63
    },
    {
      "midi": 80,
      "hit": false,
      "t": 163631.80454583315,
      "d": 436.3636000000115,
      "v": 100
    },
    {
      "midi": 65,
      "hit": false,
      "t": 163636.34999999925,
      "d": 263.63634166665724,
      "v": 75
    },
    {
      "midi": 72,
      "hit": false,
      "t": 164102.25905208316,
      "d": 1136.3635416666802,
      "v": 84
    },
    {
      "midi": 64,
      "hit": false,
      "t": 164181.80449999924,
      "d": 261.36361458335887,
      "v": 50
    },
    {
      "midi": 58,
      "hit": false,
      "t": 164668.1680958331,
      "d": 18.181816666648956,
      "v": 62
    },
    {
      "midi": 48,
      "hit": false,
      "t": 164706.80445624975,
      "d": 2218.1816333333263,
      "v": 61
    },
    {
      "midi": 62,
      "hit": false,
      "t": 164713.62263749985,
      "d": 2056.8180104166386,
      "v": 53
    },
    {
      "midi": 48,
      "hit": false,
      "t": 164727.25899999926,
      "d": 515.909047916648,
      "v": 86
    },
    {
      "midi": 58,
      "hit": false,
      "t": 164729.5317270831,
      "d": 406.81814791666693,
      "v": 36
    },
    {
      "midi": 55,
      "hit": false,
      "t": 164743.16808958308,
      "d": 529.5454104166711,
      "v": 49
    },
    {
      "midi": 60,
      "hit": false,
      "t": 164743.16808958308,
      "d": 552.2726812500041,
      "v": 39
    },
    {
      "midi": 65,
      "hit": false,
      "t": 164745.44081666652,
      "d": 2120.4543687499536,
      "v": 56
    },
    {
      "midi": 53,
      "hit": false,
      "t": 164765.8953604164,
      "d": 665.9090354166692,
      "v": 57
    },
    {
      "midi": 71,
      "hit": false,
      "t": 165222.71350416652,
      "d": 38.6363604166545,
      "v": 69
    },
    {
      "midi": 55,
      "hit": false,
      "t": 165272.71349999926,
      "d": 634.0908562499972,
      "v": 49
    },
    {
      "midi": 70,
      "hit": false,
      "t": 165272.71349999984,
      "d": 1084.0908187500027,
      "v": 84
    },
    {
      "midi": 64,
      "hit": false,
      "t": 165818.16799999925,
      "d": 545.4544999999925,
      "v": 68
    },
    {
      "midi": 67,
      "hit": false,
      "t": 165818.16799999925,
      "d": 552.2726812500041,
      "v": 81
    },
    {
      "midi": 65,
      "hit": false,
      "t": 166320.4406854165,
      "d": 256.8181604166457,
      "v": 79
    },
    {
      "midi": 50,
      "hit": false,
      "t": 166363.62249999924,
      "d": 452.272689583333,
      "v": 59
    },
    {
      "midi": 67,
      "hit": false,
      "t": 166543.16793958316,
      "d": 331.8181541666563,
      "v": 79
    },
    {
      "midi": 69,
      "hit": false,
      "t": 166852.25882291648,
      "d": 1104.5453625000373,
      "v": 94
    },
    {
      "midi": 53,
      "hit": false,
      "t": 166909.07699999923,
      "d": 343.18178958335193,
      "v": 72
    },
    {
      "midi": 41,
      "hit": false,
      "t": 166924.98608958308,
      "d": 4386.3632708333025,
      "v": 63
    },
    {
      "midi": 60,
      "hit": false,
      "t": 166934.07699791648,
      "d": 4181.817833333276,
      "v": 61
    },
    {
      "midi": 57,
      "hit": false,
      "t": 166934.07699791648,
      "d": 4329.545093749941,
      "v": 55
    },
    {
      "midi": 57,
      "hit": false,
      "t": 166947.7133604164,
      "d": 438.636327083339,
      "v": 52
    },
    {
      "midi": 53,
      "hit": false,
      "t": 166947.7133604164,
      "d": 506.81813958333805,
      "v": 46
    },
    {
      "midi": 55,
      "hit": false,
      "t": 166947.7133604164,
      "d": 665.9090354166692,
      "v": 40
    },
    {
      "midi": 55,
      "hit": false,
      "t": 166972.7133583331,
      "d": 4209.090558333293,
      "v": 55
    },
    {
      "midi": 57,
      "hit": false,
      "t": 167454.53149999926,
      "d": 340.90906249999534,
      "v": 60
    },
    {
      "midi": 60,
      "hit": false,
      "t": 167727.25874999925,
      "d": 529.5454104166711,
      "v": 68
    },
    {
      "midi": 72,
      "hit": false,
      "t": 167936.34964166651,
      "d": 831.8181125000119,
      "v": 89
    },
    {
      "midi": 53,
      "hit": false,
      "t": 167999.98599999925,
      "d": 343.1817895833228,
      "v": 56
    },
    {
      "midi": 65,
      "hit": false,
      "t": 168272.71324999924,
      "d": 259.0908875000023,
      "v": 80
    },
    {
      "midi": 60,
      "hit": false,
      "t": 168545.44049999924,
      "d": 313.63633750000736,
      "v": 46
    },
    {
      "midi": 71,
      "hit": false,
      "t": 168768.16775416653,
      "d": 120.45453541667666,
      "v": 55
    },
    {
      "midi": 57,
      "hit": false,
      "t": 168818.16774999924,
      "d": 268.1817958333413,
      "v": 56
    },
    {
      "midi": 69,
      "hit": false,
      "t": 168888.6222895832,
      "d": 81.81817499999306,
      "v": 50
    },
    {
      "midi": 67,
      "hit": false,
      "t": 168970.4404645832,
      "d": 65.90908541667159,
      "v": 60
    },
    {
      "midi": 65,
      "hit": false,
      "t": 169036.34954999987,
      "d": 65.90908541667159,
      "v": 56
    },
    {
      "midi": 53,
      "hit": false,
      "t": 169090.89499999923,
      "d": 470.45450625001104,
      "v": 64
    },
    {
      "midi": 64,
      "hit": false,
      "t": 169102.25863541654,
      "d": 63.636358333344106,
      "v": 48
    },
    {
      "midi": 62,
      "hit": false,
      "t": 169165.89499374988,
      "d": 61.36363124998752,
      "v": 44
    },
    {
      "midi": 60,
      "hit": false,
      "t": 169227.25862499987,
      "d": 77.2727208333381,
      "v": 38
    },
    {
      "midi": 59,
      "hit": false,
      "t": 169304.5313458332,
      "d": 27.272724999987986,
      "v": 34
    },
    {
      "midi": 57,
      "hit": false,
      "t": 169638.62222708258,
      "d": 718.1817583333177,
      "v": 63
    },
    {
      "midi": 60,
      "hit": false,
      "t": 169909.07674999925,
      "d": 499.9999583333265,
      "v": 63
    },
    {
      "midi": 69,
      "hit": false,
      "t": 170172.71309166652,
      "d": 306.8181562499958,
      "v": 92
    },
    {
      "midi": 53,
      "hit": false,
      "t": 170181.80399999925,
      "d": 470.45450624998193,
      "v": 53
    },
    {
      "midi": 70,
      "hit": false,
      "t": 170443.1676145832,
      "d": 286.36361249999027,
      "v": 89
    },
    {
      "midi": 65,
      "hit": false,
      "t": 170454.53124999924,
      "d": 263.63634166665724,
      "v": 68
    },
    {
      "midi": 69,
      "hit": false,
      "t": 170695.44032083318,
      "d": 277.27270416665124,
      "v": 99
    },
    {
      "midi": 60,
      "hit": false,
      "t": 170727.25849999924,
      "d": 261.36361458332976,
      "v": 50
    },
    {
      "midi": 70,
      "hit": false,
      "t": 170936.3493916665,
      "d": 329.54542708332883,
      "v": 87
    },
    {
      "midi": 57,
      "hit": false,
      "t": 170999.98574999924,
      "d": 165.9090770833427,
      "v": 62
    },
    {
      "midi": 60,
      "hit": false,
      "t": 171247.7130020831,
      "d": 4386.363270833273,
      "v": 64
    },
    {
      "midi": 72,
      "hit": false,
      "t": 171247.71300208315,
      "d": 2190.908908333251,
      "v": 102
    },
    {
      "midi": 52,
      "hit": false,
      "t": 171270.4402729164,
      "d": 4388.635997916601,
      "v": 62
    },
    {
      "midi": 45,
      "hit": false,
      "t": 171272.71299999926,
      "d": 445.4545083333214,
      "v": 89
    },
    {
      "midi": 55,
      "hit": false,
      "t": 171274.98572708308,
      "d": 406.81814791666693,
      "v": 47
    },
    {
      "midi": 45,
      "hit": false,
      "t": 171295.44027083306,
      "d": 4363.63599999994,
      "v": 74
    },
    {
      "midi": 60,
      "hit": false,
      "t": 171295.4402708331,
      "d": 545.4544999999925,
      "v": 35
    },
    {
      "midi": 55,
      "hit": false,
      "t": 171295.4402708331,
      "d": 4338.63600208328,
      "v": 65
    },
    {
      "midi": 52,
      "hit": false,
      "t": 171311.3493604164,
      "d": 665.9090354166692,
      "v": 68
    },
    {
      "midi": 60,
      "hit": false,
      "t": 171818.16749999925,
      "d": 549.9999541666475,
      "v": 71
    },
    {
      "midi": 64,
      "hit": false,
      "t": 172363.62199999925,
      "d": 527.2726833333145,
      "v": 77
    },
    {
      "midi": 60,
      "hit": false,
      "t": 172909.07649999924,
      "d": 279.5454312500078,
      "v": 63
    },
    {
      "midi": 45,
      "hit": false,
      "t": 173181.80374999924,
      "d": 279.5454312500078,
      "v": 63
    },
    {
      "midi": 78,
      "hit": false,
      "t": 173436.34918333308,
      "d": 243.1817979166517,
      "v": 94
    },
    {
      "midi": 67,
      "hit": false,
      "t": 173452.2582729159,
      "d": 534.090864583326,
      "v": 84
    },
    {
      "midi": 79,
      "hit": false,
      "t": 173629.5309854164,
      "d": 627.2726749999565,
      "v": 95
    },
    {
      "midi": 64,
      "hit": false,
      "t": 173999.98549999922,
      "d": 254.54543333334732,
      "v": 61
    },
    {
      "midi": 77,
      "hit": false,
      "t": 174256.80366041636,
      "d": 790.9090249999717,
      "v": 101
    },
    {
      "midi": 45,
      "hit": false,
      "t": 174272.71274999925,
      "d": 252.27270624999073,
      "v": 65
    },
    {
      "midi": 67,
      "hit": false,
      "t": 174547.71272708257,
      "d": 297.7272479166568,
      "v": 69
    },
    {
      "midi": 76,
      "hit": false,
      "t": 175054.53086666635,
      "d": 524.999956249987,
      "v": 96
    },
    {
      "midi": 64,
      "hit": false,
      "t": 175090.89449999924,
      "d": 243.1817979166808,
      "v": 49
    },
    {
      "midi": 45,
      "hit": false,
      "t": 175363.62174999926,
      "d": 279.5454312500369,
      "v": 63
    },
    {
      "midi": 76,
      "hit": false,
      "t": 175618.167183333,
      "d": 284.0908854166628,
      "v": 99
    },
    {
      "midi": 46,
      "hit": false,
      "t": 175636.3489999993,
      "d": 343.18178958335193,
      "v": 88
    },
    {
      "midi": 46,
      "hit": false,
      "t": 175636.34899999967,
      "d": 4388.635997916601,
      "v": 64
    },
    {
      "midi": 62,
      "hit": false,
      "t": 175636.34899999975,
      "d": 545.4544999999925,
      "v": 38
    },
    {
      "midi": 53,
      "hit": false,
      "t": 175652.258089583,
      "d": 4395.454179166612,
      "v": 67
    },
    {
      "midi": 62,
      "hit": false,
      "t": 175652.25808958302,
      "d": 4293.181460416643,
      "v": 66
    },
    {
      "midi": 57,
      "hit": false,
      "t": 175659.07627083303,
      "d": 4240.908737499965,
      "v": 66
    },
    {
      "midi": 57,
      "hit": false,
      "t": 175661.34899791642,
      "d": 406.81814791666693,
      "v": 52
    },
    {
      "midi": 53,
      "hit": false,
      "t": 175661.34899791642,
      "d": 406.81814791666693,
      "v": 42
    },
    {
      "midi": 77,
      "hit": false,
      "t": 175893.1671604163,
      "d": 265.90906875001383,
      "v": 79
    },
    {
      "midi": 74,
      "hit": false,
      "t": 176168.16713749967,
      "d": 2590.9088749999937,
      "v": 95
    },
    {
      "midi": 58,
      "hit": false,
      "t": 176181.8034999993,
      "d": 340.90906249999534,
      "v": 64
    },
    {
      "midi": 62,
      "hit": false,
      "t": 176727.2579999993,
      "d": 529.5454104166711,
      "v": 71
    },
    {
      "midi": 58,
      "hit": false,
      "t": 177545.43974999932,
      "d": 268.1817958333413,
      "v": 72
    },
    {
      "midi": 46,
      "hit": false,
      "t": 177818.16699999932,
      "d": 470.45450625001104,
      "v": 59
    },
    {
      "midi": 58,
      "hit": false,
      "t": 178365.89422708267,
      "d": 718.1817583333177,
      "v": 63
    },
    {
      "midi": 62,
      "hit": false,
      "t": 178636.34874999934,
      "d": 499.9999583333265,
      "v": 63
    },
    {
      "midi": 46,
      "hit": false,
      "t": 178909.07599999933,
      "d": 470.45450624998193,
      "v": 59
    },
    {
      "midi": 65,
      "hit": false,
      "t": 179181.80324999933,
      "d": 263.63634166665724,
      "v": 75
    },
    {
      "midi": 65,
      "hit": false,
      "t": 179197.712339583,
      "d": 215.90907291666372,
      "v": 84
    },
    {
      "midi": 64,
      "hit": false,
      "t": 179413.62141249966,
      "d": 313.63633750000736,
      "v": 87
    },
    {
      "midi": 65,
      "hit": false,
      "t": 179686.34866249966,
      "d": 320.4545187500189,
      "v": 94
    },
    {
      "midi": 64,
      "hit": false,
      "t": 179727.25774999932,
      "d": 261.36361458335887,
      "v": 67
    },
    {
      "midi": 46,
      "hit": false,
      "t": 179999.98499999935,
      "d": 470.45450624998193,
      "v": 59
    },
    {
      "midi": 73,
      "hit": false,
      "t": 180020.43954374967,
      "d": 1047.7271854167047,
      "v": 93
    },
    {
      "midi": 56,
      "hit": false,
      "t": 180024.9849979164,
      "d": 406.81814791666693,
      "v": 43
    },
    {
      "midi": 56,
      "hit": false,
      "t": 180040.8940874996,
      "d": 2104.5452791667194,
      "v": 56
    },
    {
      "midi": 49,
      "hit": false,
      "t": 180047.71226874975,
      "d": 406.81814791666693,
      "v": 34
    },
    {
      "midi": 58,
      "hit": false,
      "t": 180061.34863124974,
      "d": 552.2726812500041,
      "v": 36
    },
    {
      "midi": 53,
      "hit": false,
      "t": 180061.34863124974,
      "d": 665.9090354166692,
      "v": 49
    },
    {
      "midi": 61,
      "hit": false,
      "t": 180063.62135833298,
      "d": 2063.6361916667374,
      "v": 62
    },
    {
      "midi": 65,
      "hit": false,
      "t": 180081.80317499966,
      "d": 1956.8180187500548,
      "v": 53
    },
    {
      "midi": 58,
      "hit": false,
      "t": 180547.71222708267,
      "d": 718.1817583333177,
      "v": 38
    },
    {
      "midi": 61,
      "hit": false,
      "t": 180818.16674999933,
      "d": 499.9999583333265,
      "v": 63
    },
    {
      "midi": 80,
      "hit": false,
      "t": 181074.9849104164,
      "d": 470.45450624998193,
      "v": 108
    },
    {
      "midi": 65,
      "hit": false,
      "t": 181090.89399999933,
      "d": 263.63634166665724,
      "v": 75
    },
    {
      "midi": 72,
      "hit": false,
      "t": 181556.80305208304,
      "d": 1199.9999000000535,
      "v": 100
    },
    {
      "midi": 46,
      "hit": false,
      "t": 181909.07574999932,
      "d": 215.90907291666372,
      "v": 50
    },
    {
      "midi": 58,
      "hit": false,
      "t": 182113.62118749964,
      "d": 6.818181250011548,
      "v": 51
    },
    {
      "midi": 48,
      "hit": false,
      "t": 182131.80300416632,
      "d": 2084.0907354166557,
      "v": 69
    },
    {
      "midi": 65,
      "hit": false,
      "t": 182149.98482083305,
      "d": 2154.545274999982,
      "v": 62
    },
    {
      "midi": 62,
      "hit": false,
      "t": 182156.80300208306,
      "d": 2029.5452854166506,
      "v": 62
    },
    {
      "midi": 48,
      "hit": false,
      "t": 182181.80299999932,
      "d": 515.909047916648,
      "v": 86
    },
    {
      "midi": 58,
      "hit": false,
      "t": 182184.07572708308,
      "d": 406.81814791666693,
      "v": 36
    },
    {
      "midi": 55,
      "hit": false,
      "t": 182197.71208958307,
      "d": 529.5454104166711,
      "v": 49
    },
    {
      "midi": 60,
      "hit": false,
      "t": 182197.71208958307,
      "d": 552.2726812500041,
      "v": 34
    },
    {
      "midi": 53,
      "hit": false,
      "t": 182220.4393604164,
      "d": 665.9090354166692,
      "v": 57
    },
    {
      "midi": 55,
      "hit": false,
      "t": 182727.2574999993,
      "d": 634.0908562499972,
      "v": 49
    },
    {
      "midi": 70,
      "hit": false,
      "t": 182727.25749999975,
      "d": 1084.0908187500027,
      "v": 94
    },
    {
      "midi": 64,
      "hit": false,
      "t": 182999.9847499993,
      "d": 545.4544999999925,
      "v": 75
    },
    {
      "midi": 67,
      "hit": false,
      "t": 183272.7119999993,
      "d": 552.2726812500041,
      "v": 88
    },
    {
      "midi": 65,
      "hit": false,
      "t": 183774.98468541642,
      "d": 256.8181604166457,
      "v": 79
    },
    {
      "midi": 67,
      "hit": false,
      "t": 183997.71193958307,
      "d": 331.8181541666563,
      "v": 79
    },
    {
      "midi": 50,
      "hit": false,
      "t": 184361.34827291596,
      "d": 568.1817708333547,
      "v": 65
    },
    {
      "midi": 57,
      "hit": false,
      "t": 184361.34827291642,
      "d": 1484.090785416658,
      "v": 63
    },
    {
      "midi": 65,
      "hit": false,
      "t": 184363.6209999997,
      "d": 4390.908724999987,
      "v": 57
    },
    {
      "midi": 65,
      "hit": false,
      "t": 184363.62099999975,
      "d": 1599.9998666666506,
      "v": 69
    },
    {
      "midi": 62,
      "hit": false,
      "t": 184365.89372708308,
      "d": 1036.3635500000091,
      "v": 58
    },
    {
      "midi": 69,
      "hit": false,
      "t": 184379.53008958307,
      "d": 920.4544687500456,
      "v": 99
    },
    {
      "midi": 62,
      "hit": false,
      "t": 184388.6209979163,
      "d": 2197.7270895832917,
      "v": 79
    },
    {
      "midi": 50,
      "hit": false,
      "t": 184404.53008749962,
      "d": 2174.9998187499586,
      "v": 62
    },
    {
      "midi": 69,
      "hit": false,
      "t": 184443.16644791636,
      "d": 4213.636012499977,
      "v": 59
    },
    {
      "midi": 62,
      "hit": false,
      "t": 184906.80277291598,
      "d": 536.3635916666535,
      "v": 68
    },
    {
      "midi": 71,
      "hit": false,
      "t": 185297.7118312498,
      "d": 65.90908541667159,
      "v": 68
    },
    {
      "midi": 72,
      "hit": false,
      "t": 185363.62091666646,
      "d": 72.72726666665403,
      "v": 68
    },
    {
      "midi": 74,
      "hit": false,
      "t": 185440.89363749977,
      "d": 1054.545366666658,
      "v": 100
    },
    {
      "midi": 69,
      "hit": false,
      "t": 185454.5299999993,
      "d": 545.4544999999925,
      "v": 69
    },
    {
      "midi": 75,
      "hit": false,
      "t": 186495.43900416643,
      "d": 68.18181249999907,
      "v": 55
    },
    {
      "midi": 50,
      "hit": false,
      "t": 186545.4389999993,
      "d": 427.2726916666725,
      "v": 54
    },
    {
      "midi": 61,
      "hit": false,
      "t": 186545.43899999972,
      "d": 1070.4544562500087,
      "v": 66
    },
    {
      "midi": 49,
      "hit": false,
      "t": 186549.98445416623,
      "d": 2238.636177083332,
      "v": 77
    },
    {
      "midi": 76,
      "hit": false,
      "t": 186570.43899791644,
      "d": 1013.6362791666761,
      "v": 99
    },
    {
      "midi": 64,
      "hit": false,
      "t": 186586.3480874996,
      "d": 2179.5452729166427,
      "v": 66
    },
    {
      "midi": 62,
      "hit": false,
      "t": 187090.8934999993,
      "d": 534.0908645833551,
      "v": 56
    },
    {
      "midi": 77,
      "hit": false,
      "t": 187563.6207333331,
      "d": 709.0908500000078,
      "v": 99
    },
    {
      "midi": 69,
      "hit": false,
      "t": 187636.34799999933,
      "d": 474.999960416666,
      "v": 64
    },
    {
      "midi": 62,
      "hit": false,
      "t": 188181.80249999932,
      "d": 461.363597916672,
      "v": 59
    },
    {
      "midi": 76,
      "hit": false,
      "t": 188272.71158333312,
      "d": 124.99998958333163,
      "v": 64
    },
    {
      "midi": 74,
      "hit": false,
      "t": 188422.7115708331,
      "d": 134.09089791667066,
      "v": 57
    },
    {
      "midi": 72,
      "hit": false,
      "t": 188556.80246874978,
      "d": 102.2727187499986,
      "v": 63
    },
    {
      "midi": 71,
      "hit": false,
      "t": 188693.16609374978,
      "d": 95.45453749998705,
      "v": 65
    },
    {
      "midi": 62,
      "hit": false,
      "t": 188727.2569999993,
      "d": 513.6363208333496,
      "v": 53
    },
    {
      "midi": 60,
      "hit": false,
      "t": 188731.8024541664,
      "d": 1113.6362708333472,
      "v": 66
    },
    {
      "midi": 62,
      "hit": false,
      "t": 188743.166089583,
      "d": 4309.090549999964,
      "v": 66
    },
    {
      "midi": 69,
      "hit": false,
      "t": 188763.62063333302,
      "d": 4281.817824999947,
      "v": 66
    },
    {
      "midi": 65,
      "hit": false,
      "t": 188765.89336041623,
      "d": 2138.6361854166607,
      "v": 64
    },
    {
      "midi": 48,
      "hit": false,
      "t": 188784.0751770829,
      "d": 2172.727091666631,
      "v": 62
    },
    {
      "midi": 69,
      "hit": false,
      "t": 188786.34790416644,
      "d": 2781.8179499999096,
      "v": 89
    },
    {
      "midi": 65,
      "hit": false,
      "t": 189270.438772916,
      "d": 295.4545208333293,
      "v": 74
    },
    {
      "midi": 69,
      "hit": false,
      "t": 189545.43874999933,
      "d": 474.999960416666,
      "v": 60
    },
    {
      "midi": 65,
      "hit": false,
      "t": 190090.89324999932,
      "d": 265.90906875001383,
      "v": 65
    },
    {
      "midi": 62,
      "hit": false,
      "t": 190363.62049999935,
      "d": 238.63634374999674,
      "v": 49
    },
    {
      "midi": 50,
      "hit": false,
      "t": 190636.34774999935,
      "d": 209.09089166665217,
      "v": 58
    },
    {
      "midi": 67,
      "hit": false,
      "t": 190897.71136458288,
      "d": 2181.81799999997,
      "v": 56
    },
    {
      "midi": 62,
      "hit": false,
      "t": 190906.80227291642,
      "d": 1022.727187499986,
      "v": 66
    },
    {
      "midi": 50,
      "hit": false,
      "t": 190911.34772708267,
      "d": 272.7272499999963,
      "v": 65
    },
    {
      "midi": 67,
      "hit": false,
      "t": 190911.34772708308,
      "d": 993.1817354166706,
      "v": 79
    },
    {
      "midi": 59,
      "hit": false,
      "t": 190913.6204541664,
      "d": 852.2726562500175,
      "v": 58
    },
    {
      "midi": 47,
      "hit": false,
      "t": 190934.0749979162,
      "d": 2129.5452770833217,
      "v": 60
    },
    {
      "midi": 62,
      "hit": false,
      "t": 191456.80222708266,
      "d": 272.7272499999963,
      "v": 58
    },
    {
      "midi": 69,
      "hit": false,
      "t": 191997.711272916,
      "d": 474.999960416666,
      "v": 70
    },
    {
      "midi": 69,
      "hit": false,
      "t": 191999.9839999997,
      "d": 315.90906458333484,
      "v": 104
    },
    {
      "midi": 67,
      "hit": false,
      "t": 192261.34761458304,
      "d": 284.0908854166919,
      "v": 84
    },
    {
      "midi": 65,
      "hit": false,
      "t": 192538.62031874972,
      "d": 311.3636104166799,
      "v": 104
    },
    {
      "midi": 62,
      "hit": false,
      "t": 192545.43849999932,
      "d": 309.0908833333233,
      "v": 65
    },
    {
      "midi": 67,
      "hit": false,
      "t": 192824.98393124974,
      "d": 309.0908833333233,
      "v": 87
    },
    {
      "midi": 46,
      "hit": false,
      "t": 193047.7111854162,
      "d": 2224.9998145833088,
      "v": 54
    },
    {
      "midi": 65,
      "hit": false,
      "t": 193084.07481874965,
      "d": 2143.1816395832866,
      "v": 69
    },
    {
      "midi": 46,
      "hit": false,
      "t": 193090.8929999993,
      "d": 506.81813958330895,
      "v": 73
    },
    {
      "midi": 65,
      "hit": false,
      "t": 193090.89299999975,
      "d": 936.363558333338,
      "v": 60
    },
    {
      "midi": 57,
      "hit": false,
      "t": 193093.16572708308,
      "d": 934.0908312500105,
      "v": 63
    },
    {
      "midi": 69,
      "hit": false,
      "t": 193111.34754374973,
      "d": 1013.6362791667052,
      "v": 94
    },
    {
      "midi": 62,
      "hit": false,
      "t": 193111.34754374975,
      "d": 738.6363020833232,
      "v": 53
    },
    {
      "midi": 62,
      "hit": false,
      "t": 193129.52936041617,
      "d": 2120.454368750012,
      "v": 60
    },
    {
      "midi": 69,
      "hit": false,
      "t": 193134.07481458297,
      "d": 2093.1816437499656,
      "v": 45
    },
    {
      "midi": 53,
      "hit": false,
      "t": 193636.34749999928,
      "d": 565.9090437499981,
      "v": 67
    },
    {
      "midi": 65,
      "hit": false,
      "t": 194138.62018541642,
      "d": 413.6363291666785,
      "v": 87
    },
    {
      "midi": 65,
      "hit": false,
      "t": 194181.80199999927,
      "d": 1077.272637499991,
      "v": 90
    },
    {
      "midi": 65,
      "hit": false,
      "t": 194670.43832291642,
      "d": 1670.4544062499772,
      "v": 99
    },
    {
      "midi": 45,
      "hit": false,
      "t": 195236.34736666616,
      "d": 2218.1816333333263,
      "v": 69
    },
    {
      "midi": 60,
      "hit": false,
      "t": 195243.16554791617,
      "d": 2202.2725437499757,
      "v": 56
    },
    {
      "midi": 67,
      "hit": false,
      "t": 195243.16554791626,
      "d": 2186.3634541666543,
      "v": 56
    },
    {
      "midi": 57,
      "hit": false,
      "t": 195270.43827291642,
      "d": 886.3635624999879,
      "v": 58
    },
    {
      "midi": 45,
      "hit": false,
      "t": 195274.98372708258,
      "d": 515.909047916648,
      "v": 66
    },
    {
      "midi": 60,
      "hit": false,
      "t": 195274.98372708308,
      "d": 856.8181104166724,
      "v": 71
    },
    {
      "midi": 65,
      "hit": false,
      "t": 195277.25645416626,
      "d": 2086.363462499983,
      "v": 61
    },
    {
      "midi": 55,
      "hit": false,
      "t": 195277.2564541664,
      "d": 715.9090312500193,
      "v": 50
    },
    {
      "midi": 57,
      "hit": false,
      "t": 195820.43822708257,
      "d": 274.99997708332376,
      "v": 58
    },
    {
      "midi": 53,
      "hit": false,
      "t": 196090.89274999924,
      "d": 229.5454354166577,
      "v": 52
    },
    {
      "midi": 65,
      "hit": false,
      "t": 196363.61999999924,
      "d": 752.2726645833463,
      "v": 76
    },
    {
      "midi": 62,
      "hit": false,
      "t": 196661.3472479164,
      "d": 218.1817999999912,
      "v": 99
    },
    {
      "midi": 65,
      "hit": false,
      "t": 196918.16540833304,
      "d": 277.27270416668034,
      "v": 81
    },
    {
      "midi": 67,
      "hit": false,
      "t": 197172.71084166638,
      "d": 288.63633958334685,
      "v": 89
    },
    {
      "midi": 53,
      "hit": false,
      "t": 197181.80174999926,
      "d": 136.36362499999814,
      "v": 66
    },
    {
      "midi": 65,
      "hit": false,
      "t": 197399.98354999957,
      "d": 2090.908916666638,
      "v": 61
    },
    {
      "midi": 69,
      "hit": false,
      "t": 197449.98354583306,
      "d": 252.27270624999073,
      "v": 94
    },
    {
      "midi": 43,
      "hit": false,
      "t": 197454.52899999925,
      "d": 727.2726666666567,
      "v": 77
    },
    {
      "midi": 58,
      "hit": false,
      "t": 197454.5289999995,
      "d": 1947.7271104166575,
      "v": 62
    },
    {
      "midi": 65,
      "hit": false,
      "t": 197454.52899999975,
      "d": 936.363558333338,
      "v": 60
    },
    {
      "midi": 58,
      "hit": false,
      "t": 197456.80172708308,
      "d": 934.0908312500105,
      "v": 63
    },
    {
      "midi": 43,
      "hit": false,
      "t": 197459.07445416614,
      "d": 2131.8180041666783,
      "v": 68
    },
    {
      "midi": 62,
      "hit": false,
      "t": 197461.34718124958,
      "d": 2024.9998312499665,
      "v": 72
    },
    {
      "midi": 62,
      "hit": false,
      "t": 197474.98354374975,
      "d": 738.6363020833232,
      "v": 53
    },
    {
      "midi": 70,
      "hit": false,
      "t": 197724.9835229164,
      "d": 799.9999333333399,
      "v": 101
    },
    {
      "midi": 62,
      "hit": false,
      "t": 198272.71074999924,
      "d": 334.0908812500129,
      "v": 82
    },
    {
      "midi": 69,
      "hit": false,
      "t": 198527.25618333305,
      "d": 1056.8180937500729,
      "v": 89
    },
    {
      "midi": 65,
      "hit": false,
      "t": 198543.1652729159,
      "d": 529.5454104166711,
      "v": 82
    },
    {
      "midi": 58,
      "hit": false,
      "t": 199088.6197729159,
      "d": 520.454502083332,
      "v": 73
    },
    {
      "midi": 58,
      "hit": false,
      "t": 199597.71063958283,
      "d": 1097.7271812499675,
      "v": 56
    },
    {
      "midi": 65,
      "hit": false,
      "t": 199602.25609374954,
      "d": 1034.0908229166525,
      "v": 53
    },
    {
      "midi": 65,
      "hit": false,
      "t": 199611.34700208312,
      "d": 518.1817750000046,
      "v": 99
    },
    {
      "midi": 48,
      "hit": false,
      "t": 199620.43791041616,
      "d": 1109.090816666634,
      "v": 77
    },
    {
      "midi": 69,
      "hit": false,
      "t": 199636.34699999922,
      "d": 545.4544999999925,
      "v": 82
    },
    {
      "midi": 62,
      "hit": false,
      "t": 199636.34699999954,
      "d": 947.7271937499754,
      "v": 64
    },
    {
      "midi": 67,
      "hit": false,
      "t": 200140.8924124998,
      "d": 659.0908541666577,
      "v": 94
    },
    {
      "midi": 65,
      "hit": false,
      "t": 200181.80149999922,
      "d": 504.54541250001057,
      "v": 86
    },
    {
      "midi": 67,
      "hit": false,
      "t": 200665.89236874954,
      "d": 1204.5453541666793,
      "v": 61
    },
    {
      "midi": 57,
      "hit": false,
      "t": 200684.07418541613,
      "d": 1149.9999041666451,
      "v": 56
    },
    {
      "midi": 49,
      "hit": false,
      "t": 200718.16509166613,
      "d": 1009.090824999992,
      "v": 77
    },
    {
      "midi": 64,
      "hit": false,
      "t": 200727.25599999976,
      "d": 663.6363083333417,
      "v": 58
    },
    {
      "midi": 61,
      "hit": false,
      "t": 200729.5287270831,
      "d": 661.3635812500142,
      "v": 61
    },
    {
      "midi": 64,
      "hit": false,
      "t": 200731.8014541662,
      "d": 974.9999187499925,
      "v": 68
    },
    {
      "midi": 67,
      "hit": false,
      "t": 200747.71054374977,
      "d": 465.90905208332697,
      "v": 51
    },
    {
      "midi": 65,
      "hit": false,
      "t": 201215.89232291645,
      "d": 295.4545208333293,
      "v": 101
    },
    {
      "midi": 65,
      "hit": false,
      "t": 201272.71049999923,
      "d": 254.54543333331821,
      "v": 75
    },
    {
      "midi": 67,
      "hit": false,
      "t": 201488.61957291645,
      "d": 338.63633541666786,
      "v": 99
    },
    {
      "midi": 69,
      "hit": false,
      "t": 201545.43774999923,
      "d": 327.27270000000135,
      "v": 70
    },
    {
      "midi": 69,
      "hit": false,
      "t": 201811.3468187498,
      "d": 1120.4544520833006,
      "v": 104
    },
    {
      "midi": 57,
      "hit": false,
      "t": 201815.89227291645,
      "d": 802.2726604166673,
      "v": 65
    },
    {
      "midi": 65,
      "hit": false,
      "t": 201818.16499999978,
      "d": 918.18174166666,
      "v": 71
    },
    {
      "midi": 62,
      "hit": false,
      "t": 201820.4377270831,
      "d": 1036.3635500000091,
      "v": 60
    },
    {
      "midi": 65,
      "hit": false,
      "t": 201822.7104541662,
      "d": 4302.272368750011,
      "v": 63
    },
    {
      "midi": 62,
      "hit": false,
      "t": 201843.16499791612,
      "d": 2156.8180020833097,
      "v": 74
    },
    {
      "midi": 50,
      "hit": false,
      "t": 201863.61954166612,
      "d": 2179.5452729166136,
      "v": 77
    },
    {
      "midi": 69,
      "hit": false,
      "t": 201888.6195395829,
      "d": 4204.545104166638,
      "v": 56
    },
    {
      "midi": 62,
      "hit": false,
      "t": 202361.3467729159,
      "d": 2.2727270833274815,
      "v": 66
    },
    {
      "midi": 62,
      "hit": false,
      "t": 202634.07402291588,
      "d": 2.2727270833274815,
      "v": 64
    },
    {
      "midi": 57,
      "hit": false,
      "t": 202634.07402291588,
      "d": 274.99997708332376,
      "v": 56
    },
    {
      "midi": 50,
      "hit": false,
      "t": 202636.3467499992,
      "d": 90.90908333333209,
      "v": 60
    },
    {
      "midi": 65,
      "hit": false,
      "t": 202909.0739999992,
      "d": 159.09089583333116,
      "v": 73
    },
    {
      "midi": 69,
      "hit": false,
      "t": 202909.0739999992,
      "d": 159.09089583333116,
      "v": 73
    },
    {
      "midi": 74,
      "hit": false,
      "t": 202943.16490624976,
      "d": 954.545374999987,
      "v": 100
    },
    {
      "midi": 65,
      "hit": false,
      "t": 203454.5284999992,
      "d": 249.99997916666325,
      "v": 73
    },
    {
      "midi": 69,
      "hit": false,
      "t": 203454.5284999992,
      "d": 249.99997916666325,
      "v": 73
    },
    {
      "midi": 75,
      "hit": false,
      "t": 203886.34664583308,
      "d": 181.81816666666418,
      "v": 59
    },
    {
      "midi": 64,
      "hit": false,
      "t": 203986.34663749943,
      "d": 2218.181633333268,
      "v": 56
    },
    {
      "midi": 50,
      "hit": false,
      "t": 203999.9829999992,
      "d": 563.6363166666706,
      "v": 60
    },
    {
      "midi": 65,
      "hit": false,
      "t": 203999.98299999977,
      "d": 918.18174166666,
      "v": 71
    },
    {
      "midi": 61,
      "hit": false,
      "t": 203999.98299999977,
      "d": 1070.4544562499796,
      "v": 68
    },
    {
      "midi": 49,
      "hit": false,
      "t": 204027.2557249994,
      "d": 2143.1816395832866,
      "v": 62
    },
    {
      "midi": 57,
      "hit": false,
      "t": 204043.1648145831,
      "d": 802.2726604166673,
      "v": 65
    },
    {
      "midi": 76,
      "hit": false,
      "t": 204068.16481249974,
      "d": 1022.727187499986,
      "v": 94
    },
    {
      "midi": 62,
      "hit": false,
      "t": 204545.43749999919,
      "d": 124.99998958333163,
      "v": 73
    },
    {
      "midi": 69,
      "hit": false,
      "t": 205090.89199999918,
      "d": 474.999960416666,
      "v": 82
    },
    {
      "midi": 77,
      "hit": false,
      "t": 205095.4374541664,
      "d": 359.0908791666734,
      "v": 89
    },
    {
      "midi": 78,
      "hit": false,
      "t": 205447.71015208305,
      "d": 347.7272437500069,
      "v": 69
    },
    {
      "midi": 62,
      "hit": false,
      "t": 205636.34649999917,
      "d": 461.363597916672,
      "v": 77
    },
    {
      "midi": 79,
      "hit": false,
      "t": 205795.43739583305,
      "d": 1431.8180625000095,
      "v": 91
    },
    {
      "midi": 62,
      "hit": false,
      "t": 206147.71009374954,
      "d": 4263.636008333298,
      "v": 61
    },
    {
      "midi": 48,
      "hit": false,
      "t": 206170.4373645827,
      "d": 2215.9089062499697,
      "v": 71
    },
    {
      "midi": 62,
      "hit": false,
      "t": 206181.80099999916,
      "d": 513.6363208333496,
      "v": 59
    },
    {
      "midi": 65,
      "hit": false,
      "t": 206181.80099999974,
      "d": 918.1817416666308,
      "v": 71
    },
    {
      "midi": 60,
      "hit": false,
      "t": 206186.3464541664,
      "d": 1113.6362708333181,
      "v": 68
    },
    {
      "midi": 65,
      "hit": false,
      "t": 206199.98281666604,
      "d": 2179.5452729166136,
      "v": 56
    },
    {
      "midi": 57,
      "hit": false,
      "t": 206202.25554374972,
      "d": 802.2726604166673,
      "v": 65
    },
    {
      "midi": 69,
      "hit": false,
      "t": 206206.8009979162,
      "d": 4131.817837499984,
      "v": 64
    },
    {
      "midi": 65,
      "hit": false,
      "t": 206724.98277291586,
      "d": 568.1817708333256,
      "v": 93
    },
    {
      "midi": 77,
      "hit": false,
      "t": 207197.71000624972,
      "d": 859.0908374999999,
      "v": 78
    },
    {
      "midi": 69,
      "hit": false,
      "t": 207272.70999999918,
      "d": 202.27271041666972,
      "v": 78
    },
    {
      "midi": 65,
      "hit": false,
      "t": 207545.43724999917,
      "d": 265.90906875001383,
      "v": 83
    },
    {
      "midi": 62,
      "hit": false,
      "t": 207818.1644999992,
      "d": 238.63634374999674,
      "v": 65
    },
    {
      "midi": 50,
      "hit": false,
      "t": 208090.8917499992,
      "d": 209.09089166665217,
      "v": 64
    },
    {
      "midi": 47,
      "hit": false,
      "t": 208349.98263749934,
      "d": 2172.727091666631,
      "v": 69
    },
    {
      "midi": 62,
      "hit": false,
      "t": 208361.3462729164,
      "d": 1022.727187499986,
      "v": 68
    },
    {
      "midi": 50,
      "hit": false,
      "t": 208365.89172708252,
      "d": 136.36362499999814,
      "v": 72
    },
    {
      "midi": 67,
      "hit": false,
      "t": 208365.89172708304,
      "d": 993.1817354166706,
      "v": 81
    },
    {
      "midi": 59,
      "hit": false,
      "t": 208368.16445416637,
      "d": 852.2726562500175,
      "v": 60
    },
    {
      "midi": 67,
      "hit": false,
      "t": 208374.982635416,
      "d": 2124.9998229166376,
      "v": 72
    },
    {
      "midi": 62,
      "hit": false,
      "t": 208911.3462270825,
      "d": 272.7272499999963,
      "v": 64
    },
    {
      "midi": 76,
      "hit": false,
      "t": 208918.16440833305,
      "d": 513.6363208333496,
      "v": 89
    },
    {
      "midi": 77,
      "hit": false,
      "t": 209424.98254791638,
      "d": 472.7272333333385,
      "v": 94
    },
    {
      "midi": 69,
      "hit": false,
      "t": 209452.25527291585,
      "d": 474.9999604166369,
      "v": 63
    },
    {
      "midi": 65,
      "hit": false,
      "t": 209454.52799999918,
      "d": 309.0908833333233,
      "v": 42
    },
    {
      "midi": 78,
      "hit": false,
      "t": 209897.70978124972,
      "d": 129.5454437499866,
      "v": 66
    },
    {
      "midi": 79,
      "hit": false,
      "t": 209999.98249999972,
      "d": 129.5454437499866,
      "v": 66
    },
    {
      "midi": 81,
      "hit": false,
      "t": 210093.16431041638,
      "d": 1997.7271062499785,
      "v": 103
    },
    {
      "midi": 69,
      "hit": false,
      "t": 210495.43700416616,
      "d": 2586.3634208332805,
      "v": 65
    },
    {
      "midi": 46,
      "hit": false,
      "t": 210504.5279124993,
      "d": 2597.727056249976,
      "v": 74
    },
    {
      "midi": 65,
      "hit": false,
      "t": 210504.52791249947,
      "d": 2481.8179749999836,
      "v": 57
    },
    {
      "midi": 62,
      "hit": false,
      "t": 210511.3460937493,
      "d": 2570.454331249959,
      "v": 69
    },
    {
      "midi": 46,
      "hit": false,
      "t": 210545.43699999916,
      "d": 506.81813958330895,
      "v": 73
    },
    {
      "midi": 65,
      "hit": false,
      "t": 210545.4369999997,
      "d": 2349.9998041666695,
      "v": 62
    },
    {
      "midi": 62,
      "hit": false,
      "t": 210545.4369999997,
      "d": 2354.5452583333245,
      "v": 56
    },
    {
      "midi": 69,
      "hit": false,
      "t": 210547.70972708304,
      "d": 2338.636168750003,
      "v": 56
    },
    {
      "midi": 53,
      "hit": false,
      "t": 211090.89149999912,
      "d": 565.9090437499981,
      "v": 67
    },
    {
      "midi": 65,
      "hit": false,
      "t": 211636.34599999912,
      "d": 531.8181374999986,
      "v": 77
    },
    {
      "midi": 77,
      "hit": false,
      "t": 212113.6186874997,
      "d": 290.90906666667433,
      "v": 81
    },
    {
      "midi": 53,
      "hit": false,
      "t": 212181.8004999991,
      "d": 272.7272499999963,
      "v": 52
    },
    {
      "midi": 74,
      "hit": false,
      "t": 212404.52775416637,
      "d": 309.0908833333233,
      "v": 81
    },
    {
      "midi": 77,
      "hit": false,
      "t": 212713.6186374997,
      "d": 1695.4544041666668,
      "v": 99
    },
    {
      "midi": 45,
      "hit": false,
      "t": 212727.2549999991,
      "d": 2.2727270833274815,
      "v": 100
    },
    {
      "midi": 65,
      "hit": false,
      "t": 213213.61859583278,
      "d": 313.63633749997825,
      "v": 67
    },
    {
      "midi": 46,
      "hit": false,
      "t": 213220.4367770826,
      "d": 531.8181374999986,
      "v": 68
    },
    {
      "midi": 69,
      "hit": false,
      "t": 213247.70950208278,
      "d": 329.54542708332883,
      "v": 57
    },
    {
      "midi": 62,
      "hit": false,
      "t": 213254.52768333242,
      "d": 140.9090791666822,
      "v": 82
    },
    {
      "midi": 65,
      "hit": false,
      "t": 213263.61859166576,
      "d": 109.09090000001015,
      "v": 56
    },
    {
      "midi": 69,
      "hit": false,
      "t": 213272.7094999991,
      "d": 156.81816875000368,
      "v": 89
    },
    {
      "midi": 62,
      "hit": false,
      "t": 213279.52768124928,
      "d": 431.81814583332743,
      "v": 54
    },
    {
      "midi": 45,
      "hit": false,
      "t": 213747.70946041594,
      "d": 593.1817687499861,
      "v": 64
    },
    {
      "midi": 67,
      "hit": false,
      "t": 213772.70945833277,
      "d": 343.18178958335193,
      "v": 61
    },
    {
      "midi": 64,
      "hit": false,
      "t": 213777.25491249943,
      "d": 320.4545187500189,
      "v": 65
    },
    {
      "midi": 60,
      "hit": false,
      "t": 213799.98218333244,
      "d": 145.45453333330806,
      "v": 88
    },
    {
      "midi": 64,
      "hit": false,
      "t": 213809.07309166578,
      "d": 115.9090812499926,
      "v": 51
    },
    {
      "midi": 60,
      "hit": false,
      "t": 213809.07309166592,
      "d": 418.18178333333344,
      "v": 59
    },
    {
      "midi": 60,
      "hit": false,
      "t": 213813.61854583304,
      "d": 220.45452708331868,
      "v": 52
    },
    {
      "midi": 67,
      "hit": false,
      "t": 213818.16399999912,
      "d": 111.36362708330853,
      "v": 77
    },
    {
      "midi": 67,
      "hit": false,
      "t": 213818.1639999997,
      "d": 193.1818020833307,
      "v": 57
    },
    {
      "midi": 64,
      "hit": false,
      "t": 213820.43672708303,
      "d": 211.36361875000875,
      "v": 52
    },
    {
      "midi": 65,
      "hit": false,
      "t": 214313.61850416614,
      "d": 2772.727041666658,
      "v": 57
    },
    {
      "midi": 62,
      "hit": false,
      "t": 214340.89122916613,
      "d": 2695.45432083332,
      "v": 67
    },
    {
      "midi": 58,
      "hit": false,
      "t": 214345.4366833324,
      "d": 2288.636172916682,
      "v": 58
    },
    {
      "midi": 62,
      "hit": false,
      "t": 214354.52759166574,
      "d": 2265.908902083349,
      "v": 72
    },
    {
      "midi": 43,
      "hit": false,
      "t": 214354.52759166592,
      "d": 2702.2725020833022,
      "v": 71
    },
    {
      "midi": 62,
      "hit": false,
      "t": 214359.07304583304,
      "d": 2270.454356249975,
      "v": 44
    },
    {
      "midi": 65,
      "hit": false,
      "t": 214363.61849999908,
      "d": 2215.908906249999,
      "v": 89
    },
    {
      "midi": 65,
      "hit": false,
      "t": 214363.6184999997,
      "d": 2227.2725416666653,
      "v": 46
    },
    {
      "midi": 58,
      "hit": false,
      "t": 214363.6184999997,
      "d": 2231.8179958333203,
      "v": 51
    },
    {
      "midi": 58,
      "hit": false,
      "t": 214365.89122708258,
      "d": 2699.9997749999748,
      "v": 64
    },
    {
      "midi": 76,
      "hit": false,
      "t": 214434.07303958302,
      "d": 127.27271666665911,
      "v": 50
    },
    {
      "midi": 74,
      "hit": false,
      "t": 214570.43666458302,
      "d": 97.72726458334364,
      "v": 52
    },
    {
      "midi": 72,
      "hit": false,
      "t": 214674.98211041637,
      "d": 111.36362708333763,
      "v": 56
    },
    {
      "midi": 71,
      "hit": false,
      "t": 214786.3457374997,
      "d": 109.09090000001015,
      "v": 58
    },
    {
      "midi": 69,
      "hit": false,
      "t": 214915.89118124972,
      "d": 1106.8180895833648,
      "v": 92
    },
    {
      "midi": 67,
      "hit": false,
      "t": 216015.89108958308,
      "d": 1165.9089937499957,
      "v": 99
    },
    {
      "midi": 58,
      "hit": false,
      "t": 217054.52736666612,
      "d": 279.5454312500078,
      "v": 59
    },
    {
      "midi": 58,
      "hit": false,
      "t": 217090.89099999907,
      "d": 131.81817083334317,
      "v": 71
    },
    {
      "midi": 67,
      "hit": false,
      "t": 217090.89099999968,
      "d": 243.1817979166517,
      "v": 31
    },
    {
      "midi": 58,
      "hit": false,
      "t": 217093.163727083,
      "d": 220.45452708331868,
      "v": 41
    },
    {
      "midi": 62,
      "hit": false,
      "t": 217097.70918124967,
      "d": 254.54543333334732,
      "v": 48
    },
    {
      "midi": 62,
      "hit": false,
      "t": 217099.9819083324,
      "d": 120.45453541667666,
      "v": 80
    },
    {
      "midi": 62,
      "hit": false,
      "t": 217106.8000895828,
      "d": 259.0908875000023,
      "v": 63
    },
    {
      "midi": 65,
      "hit": false,
      "t": 217109.07281666575,
      "d": 154.5454416666762,
      "v": 101
    },
    {
      "midi": 36,
      "hit": false,
      "t": 217109.0728166659,
      "d": 334.0908812500129,
      "v": 64
    },
    {
      "midi": 53,
      "hit": false,
      "t": 217138.61826874924,
      "d": 272.7272499999963,
      "v": 64
    },
    {
      "midi": 62,
      "hit": false,
      "t": 217584.0727770828,
      "d": 1097.7271812500258,
      "v": 55
    },
    {
      "midi": 36,
      "hit": false,
      "t": 217597.70913958258,
      "d": 1234.090806250024,
      "v": 79
    },
    {
      "midi": 65,
      "hit": false,
      "t": 217604.52732083306,
      "d": 547.7272270833491,
      "v": 99
    },
    {
      "midi": 53,
      "hit": false,
      "t": 217606.80004791592,
      "d": 1172.7271750000073,
      "v": 62
    },
    {
      "midi": 58,
      "hit": false,
      "t": 217613.61822916614,
      "d": 1122.7271791666863,
      "v": 57
    },
    {
      "midi": 58,
      "hit": false,
      "t": 217629.52731874908,
      "d": 695.4544874999847,
      "v": 68
    },
    {
      "midi": 67,
      "hit": false,
      "t": 217629.5273187497,
      "d": 747.7272104166623,
      "v": 42
    },
    {
      "midi": 58,
      "hit": false,
      "t": 217631.80004583302,
      "d": 768.1817541666678,
      "v": 27
    },
    {
      "midi": 62,
      "hit": false,
      "t": 217640.89095416636,
      "d": 736.3635749999958,
      "v": 42
    },
    {
      "midi": 62,
      "hit": false,
      "t": 217643.16368124908,
      "d": 706.8181229166512,
      "v": 75
    },
    {
      "midi": 65,
      "hit": false,
      "t": 217654.52731666574,
      "d": 734.0908479166392,
      "v": 97
    },
    {
      "midi": 64,
      "hit": false,
      "t": 218122.70909583307,
      "d": 574.9999520833371,
      "v": 87
    },
    {
      "midi": 53,
      "hit": false,
      "t": 218679.52723124906,
      "d": 847.7272020833334,
      "v": 67
    },
    {
      "midi": 57,
      "hit": false,
      "t": 218684.0726854157,
      "d": 568.1817708333547,
      "v": 67
    },
    {
      "midi": 65,
      "hit": false,
      "t": 218697.7090479164,
      "d": 8809.090174999932,
      "v": 89
    },
    {
      "midi": 60,
      "hit": false,
      "t": 218718.1635916657,
      "d": 538.6363187500101,
      "v": 72
    },
    {
      "midi": 57,
      "hit": false,
      "t": 218727.2544999997,
      "d": 5545.454083333316,
      "v": 37
    },
    {
      "midi": 65,
      "hit": false,
      "t": 218727.2544999997,
      "d": 5545.454083333316,
      "v": 46
    },
    {
      "midi": 60,
      "hit": false,
      "t": 218731.79995416634,
      "d": 5556.817718749982,
      "v": 40
    },
    {
      "midi": 65,
      "hit": false,
      "t": 218738.61813541572,
      "d": 536.3635916666826,
      "v": 62
    },
    {
      "midi": 60,
      "hit": false,
      "t": 218749.98177083282,
      "d": 9179.544689583243,
      "v": 53
    },
    {
      "midi": 57,
      "hit": false,
      "t": 218777.2544958328,
      "d": 9061.362881249923,
      "v": 61
    },
    {
      "midi": 55,
      "hit": false,
      "t": 218779.52722291593,
      "d": 2681.817958333326,
      "v": 64
    },
    {
      "midi": 41,
      "hit": false,
      "t": 218861.34539791595,
      "d": 9115.908331249928,
      "v": 63
    },
    {
      "midi": 57,
      "hit": false,
      "t": 219818.16349999906,
      "d": 340.90906249999534,
      "v": 67
    },
    {
      "midi": 60,
      "hit": false,
      "t": 220090.89074999906,
      "d": 529.5454104166711,
      "v": 75
    },
    {
      "midi": 53,
      "hit": false,
      "t": 220363.61799999906,
      "d": 343.1817895833228,
      "v": 62
    },
    {
      "midi": 65,
      "hit": false,
      "t": 220636.34524999905,
      "d": 259.0908875000023,
      "v": 70
    },
    {
      "midi": 60,
      "hit": false,
      "t": 220909.07249999905,
      "d": 313.63633750000736,
      "v": 51
    },
    {
      "midi": 57,
      "hit": false,
      "t": 221181.79974999905,
      "d": 268.1817958333413,
      "v": 62
    },
    {
      "midi": 53,
      "hit": false,
      "t": 221454.52699999904,
      "d": 470.45450625001104,
      "v": 71
    },
    {
      "midi": 53,
      "hit": false,
      "t": 221461.34518124926,
      "d": 2186.3634541666834,
      "v": 67
    },
    {
      "midi": 57,
      "hit": false,
      "t": 222002.2542270824,
      "d": 718.1817583333177,
      "v": 64
    },
    {
      "midi": 60,
      "hit": false,
      "t": 222272.70874999906,
      "d": 499.9999583333265,
      "v": 66
    },
    {
      "midi": 53,
      "hit": false,
      "t": 222545.43599999906,
      "d": 470.45450624998193,
      "v": 59
    },
    {
      "midi": 65,
      "hit": false,
      "t": 222818.16324999905,
      "d": 263.63634166665724,
      "v": 68
    },
    {
      "midi": 60,
      "hit": false,
      "t": 223090.89049999905,
      "d": 261.36361458332976,
      "v": 56
    },
    {
      "midi": 57,
      "hit": false,
      "t": 223363.61774999904,
      "d": 165.9090770833427,
      "v": 69
    },
    {
      "midi": 53,
      "hit": false,
      "t": 223636.34499999904,
      "d": 470.45450625001104,
      "v": 71
    },
    {
      "midi": 52,
      "hit": false,
      "t": 223647.70863541594,
      "d": 2165.9089104166487,
      "v": 70
    },
    {
      "midi": 57,
      "hit": false,
      "t": 224181.79949999906,
      "d": 340.90906249999534,
      "v": 67
    },
    {
      "midi": 60,
      "hit": false,
      "t": 224454.52674999906,
      "d": 529.5454104166711,
      "v": 78
    },
    {
      "midi": 53,
      "hit": false,
      "t": 224727.25399999905,
      "d": 343.1817895833228,
      "v": 62
    },
    {
      "midi": 65,
      "hit": false,
      "t": 224999.98124999905,
      "d": 259.0908875000023,
      "v": 80
    },
    {
      "midi": 60,
      "hit": false,
      "t": 225272.70849999905,
      "d": 313.63633750000736,
      "v": 51
    },
    {
      "midi": 57,
      "hit": false,
      "t": 225545.43574999904,
      "d": 268.1817958333413,
      "v": 62
    },
    {
      "midi": 53,
      "hit": false,
      "t": 225813.6175458326,
      "d": 2186.363454166625,
      "v": 59
    },
    {
      "midi": 53,
      "hit": false,
      "t": 225818.16299999904,
      "d": 470.45450625001104,
      "v": 71
    },
    {
      "midi": 57,
      "hit": false,
      "t": 226365.8902270824,
      "d": 718.1817583333177,
      "v": 70
    },
    {
      "midi": 60,
      "hit": false,
      "t": 226636.34474999906,
      "d": 499.9999583333265,
      "v": 70
    },
    {
      "midi": 65,
      "hit": false,
      "t": 226909.07199999905,
      "d": 470.45450625001104,
      "v": 59
    },
    {
      "midi": 60,
      "hit": false,
      "t": 227454.52649999908,
      "d": 261.36361458332976,
      "v": 56
    },
    {
      "midi": 56,
      "hit": false,
      "t": 227999.9809999991,
      "d": 470.45450624998193,
      "v": 71
    },
    {
      "midi": 60,
      "hit": false,
      "t": 227999.98099999965,
      "d": 665.9090354166692,
      "v": 53
    },
    {
      "midi": 80,
      "hit": false,
      "t": 227999.9809999999,
      "d": 111.36362708333763,
      "v": 39
    },
    {
      "midi": 36,
      "hit": false,
      "t": 227999.981,
      "d": 365.90906041665585,
      "v": 81
    },
    {
      "midi": 63,
      "hit": false,
      "t": 228002.25372708298,
      "d": 406.81814791666693,
      "v": 58
    },
    {
      "midi": 44,
      "hit": false,
      "t": 228004.5264541666,
      "d": 4268.181462500012,
      "v": 80
    },
    {
      "midi": 56,
      "hit": false,
      "t": 228015.89008958297,
      "d": 665.9090354166692,
      "v": 53
    },
    {
      "midi": 42,
      "hit": false,
      "t": 228022.7082708332,
      "d": 152.2727145833196,
      "v": 55
    },
    {
      "midi": 58,
      "hit": false,
      "t": 228024.9809979163,
      "d": 406.81814791666693,
      "v": 46
    },
    {
      "midi": 80,
      "hit": false,
      "t": 228279.52643124992,
      "d": 152.2727145833196,
      "v": 32
    },
    {
      "midi": 60,
      "hit": false,
      "t": 228545.4354999991,
      "d": 340.90906249999534,
      "v": 67
    },
    {
      "midi": 81,
      "hit": false,
      "t": 228545.4354999999,
      "d": 456.81814374998794,
      "v": 50
    },
    {
      "midi": 42,
      "hit": false,
      "t": 228549.9809541665,
      "d": 154.5454416666762,
      "v": 45
    },
    {
      "midi": 63,
      "hit": false,
      "t": 228818.1627499991,
      "d": 529.5454104166711,
      "v": 78
    },
    {
      "midi": 80,
      "hit": false,
      "t": 229088.61727291657,
      "d": 143.18180625000969,
      "v": 32
    },
    {
      "midi": 56,
      "hit": false,
      "t": 229090.88999999908,
      "d": 343.1817895833228,
      "v": 62
    },
    {
      "midi": 42,
      "hit": false,
      "t": 229097.70818124985,
      "d": 131.81817083334317,
      "v": 45
    },
    {
      "midi": 68,
      "hit": false,
      "t": 229363.61724999908,
      "d": 259.0908875000023,
      "v": 80
    },
    {
      "midi": 80,
      "hit": false,
      "t": 229370.4354312499,
      "d": 193.1818020833307,
      "v": 39
    },
    {
      "midi": 81,
      "hit": false,
      "t": 229634.07177291656,
      "d": 415.90905625000596,
      "v": 57
    },
    {
      "midi": 63,
      "hit": false,
      "t": 229636.34449999908,
      "d": 313.63633750000736,
      "v": 51
    },
    {
      "midi": 42,
      "hit": false,
      "t": 229638.6172270832,
      "d": 147.72726041666465,
      "v": 45
    },
    {
      "midi": 60,
      "hit": false,
      "t": 229909.07174999907,
      "d": 268.1817958333413,
      "v": 62
    },
    {
      "midi": 60,
      "hit": false,
      "t": 230147.70809374924,
      "d": 636.3635833333246,
      "v": 98
    },
    {
      "midi": 60,
      "hit": false,
      "t": 230147.70809374997,
      "d": 636.3635833333246,
      "v": 98
    },
    {
      "midi": 42,
      "hit": false,
      "t": 230177.2535458332,
      "d": 138.63635208332562,
      "v": 47
    },
    {
      "midi": 56,
      "hit": false,
      "t": 230181.79899999907,
      "d": 470.45450625001104,
      "v": 71
    },
    {
      "midi": 37,
      "hit": false,
      "t": 230181.799,
      "d": 174.99998541665263,
      "v": 86
    },
    {
      "midi": 80,
      "hit": false,
      "t": 230186.34445416657,
      "d": 136.36362499999814,
      "v": 39
    },
    {
      "midi": 80,
      "hit": false,
      "t": 230463.61715833322,
      "d": 195.45452916665818,
      "v": 39
    },
    {
      "midi": 42,
      "hit": false,
      "t": 230722.7080458332,
      "d": 143.18180625000969,
      "v": 45
    },
    {
      "midi": 81,
      "hit": false,
      "t": 230727.25349999988,
      "d": 449.9999625000055,
      "v": 62
    },
    {
      "midi": 60,
      "hit": false,
      "t": 230729.52622708242,
      "d": 718.1817583333177,
      "v": 70
    },
    {
      "midi": 61,
      "hit": false,
      "t": 230784.07167708257,
      "d": 956.8181020833144,
      "v": 92
    },
    {
      "midi": 61,
      "hit": false,
      "t": 230784.0716770833,
      "d": 956.8181020833435,
      "v": 92
    },
    {
      "midi": 63,
      "hit": false,
      "t": 230999.9807499991,
      "d": 499.9999583333265,
      "v": 70
    },
    {
      "midi": 42,
      "hit": false,
      "t": 231265.88981874986,
      "d": 136.36362499999814,
      "v": 45
    },
    {
      "midi": 80,
      "hit": false,
      "t": 231270.43527291654,
      "d": 140.9090791666531,
      "v": 39
    },
    {
      "midi": 68,
      "hit": false,
      "t": 231272.70799999908,
      "d": 470.45450625001104,
      "v": 59
    },
    {
      "midi": 80,
      "hit": false,
      "t": 231552.25343124985,
      "d": 193.1818020833307,
      "v": 39
    },
    {
      "midi": 60,
      "hit": false,
      "t": 231740.88977916588,
      "d": 277.27270416668034,
      "v": 92
    },
    {
      "midi": 60,
      "hit": false,
      "t": 231740.88977916664,
      "d": 277.27270416668034,
      "v": 92
    },
    {
      "midi": 42,
      "hit": false,
      "t": 231804.52613749987,
      "d": 143.18180625000969,
      "v": 55
    },
    {
      "midi": 63,
      "hit": false,
      "t": 231818.1624999991,
      "d": 261.36361458332976,
      "v": 56
    },
    {
      "midi": 81,
      "hit": false,
      "t": 231818.16249999983,
      "d": 440.90905416666646,
      "v": 54
    },
    {
      "midi": 36,
      "hit": false,
      "t": 231818.16249999998,
      "d": 184.09089374999166,
      "v": 81
    },
    {
      "midi": 61,
      "hit": false,
      "t": 232018.16248333256,
      "d": 361.3636062499718,
      "v": 91
    },
    {
      "midi": 61,
      "hit": false,
      "t": 232018.16248333332,
      "d": 361.3636062500009,
      "v": 91
    },
    {
      "midi": 36,
      "hit": false,
      "t": 232340.8897291666,
      "d": 4324.999639583344,
      "v": 83
    },
    {
      "midi": 55,
      "hit": false,
      "t": 232363.6169999991,
      "d": 470.45450624998193,
      "v": 71
    },
    {
      "midi": 60,
      "hit": false,
      "t": 232363.61699999965,
      "d": 665.9090354166692,
      "v": 53
    },
    {
      "midi": 63,
      "hit": false,
      "t": 232365.88972708298,
      "d": 406.81814791666693,
      "v": 58
    },
    {
      "midi": 80,
      "hit": false,
      "t": 232365.88972708315,
      "d": 147.72726041666465,
      "v": 28
    },
    {
      "midi": 36,
      "hit": false,
      "t": 232365.8897270833,
      "d": 197.72725624998566,
      "v": 82
    },
    {
      "midi": 42,
      "hit": false,
      "t": 232370.43518124986,
      "d": 147.72726041666465,
      "v": 45
    },
    {
      "midi": 63,
      "hit": false,
      "t": 232379.52608958253,
      "d": 1984.0907437499845,
      "v": 96
    },
    {
      "midi": 55,
      "hit": false,
      "t": 232379.52608958297,
      "d": 665.9090354166692,
      "v": 53
    },
    {
      "midi": 63,
      "hit": false,
      "t": 232379.52608958332,
      "d": 1984.0907437500136,
      "v": 96
    },
    {
      "midi": 58,
      "hit": false,
      "t": 232388.6169979163,
      "d": 406.81814791666693,
      "v": 46
    },
    {
      "midi": 80,
      "hit": false,
      "t": 232645.43515833316,
      "d": 177.27271250000922,
      "v": 39
    },
    {
      "midi": 81,
      "hit": false,
      "t": 232906.7987729165,
      "d": 459.0908708333445,
      "v": 47
    },
    {
      "midi": 63,
      "hit": false,
      "t": 232909.0714999991,
      "d": 340.90906249999534,
      "v": 67
    },
    {
      "midi": 42,
      "hit": false,
      "t": 232927.25331666652,
      "d": 140.9090791666531,
      "v": 51
    },
    {
      "midi": 67,
      "hit": false,
      "t": 233181.79874999908,
      "d": 529.5454104166711,
      "v": 78
    },
    {
      "midi": 55,
      "hit": false,
      "t": 233454.52599999908,
      "d": 343.1817895833228,
      "v": 62
    },
    {
      "midi": 80,
      "hit": false,
      "t": 233454.52599999984,
      "d": 124.99998958333163,
      "v": 32
    },
    {
      "midi": 42,
      "hit": false,
      "t": 233474.98054374984,
      "d": 147.72726041666465,
      "v": 45
    },
    {
      "midi": 70,
      "hit": false,
      "t": 233727.25324999908,
      "d": 259.0908875000023,
      "v": 80
    },
    {
      "midi": 80,
      "hit": false,
      "t": 233738.6168854165,
      "d": 159.09089583333116,
      "v": 28
    },
    {
      "midi": 81,
      "hit": false,
      "t": 233997.7077729165,
      "d": 454.54541666666046,
      "v": 47
    },
    {
      "midi": 67,
      "hit": false,
      "t": 233999.98049999907,
      "d": 313.63633750000736,
      "v": 51
    },
    {
      "midi": 42,
      "hit": false,
      "t": 234024.98049791652,
      "d": 127.27271666665911,
      "v": 45
    },
    {
      "midi": 63,
      "hit": false,
      "t": 234272.70774999907,
      "d": 268.1817958333413,
      "v": 62
    },
    {
      "midi": 70,
      "hit": false,
      "t": 234531.7986374992,
      "d": 740.9090291666507,
      "v": 97
    },
    {
      "midi": 70,
      "hit": false,
      "t": 234531.7986375,
      "d": 740.9090291666798,
      "v": 97
    },
    {
      "midi": 80,
      "hit": false,
      "t": 234540.88954583317,
      "d": 134.09089791667066,
      "v": 39
    },
    {
      "midi": 55,
      "hit": false,
      "t": 234545.43499999907,
      "d": 470.45450625001104,
      "v": 71
    },
    {
      "midi": 37,
      "hit": false,
      "t": 234545.43499999994,
      "d": 179.5454395833367,
      "v": 91
    },
    {
      "midi": 42,
      "hit": false,
      "t": 234554.5259083332,
      "d": 136.36362499999814,
      "v": 45
    },
    {
      "midi": 80,
      "hit": false,
      "t": 234827.25315833316,
      "d": 147.72726041666465,
      "v": 32
    },
    {
      "midi": 63,
      "hit": false,
      "t": 235093.16222708242,
      "d": 718.1817583333177,
      "v": 70
    },
    {
      "midi": 81,
      "hit": false,
      "t": 235093.16222708314,
      "d": 459.0908708333445,
      "v": 56
    },
    {
      "midi": 42,
      "hit": false,
      "t": 235111.34404374985,
      "d": 145.45453333333717,
      "v": 45
    },
    {
      "midi": 68,
      "hit": false,
      "t": 235281.79857499918,
      "d": 756.8181187499722,
      "v": 99
    },
    {
      "midi": 68,
      "hit": false,
      "t": 235281.79857500002,
      "d": 756.8181187500013,
      "v": 99
    },
    {
      "midi": 67,
      "hit": false,
      "t": 235363.61674999908,
      "d": 499.9999583333265,
      "v": 70
    },
    {
      "midi": 80,
      "hit": false,
      "t": 235634.07127291648,
      "d": 124.99998958333163,
      "v": 39
    },
    {
      "midi": 70,
      "hit": false,
      "t": 235636.34399999908,
      "d": 470.45450625001104,
      "v": 59
    },
    {
      "midi": 42,
      "hit": false,
      "t": 235645.43490833318,
      "d": 138.63635208332562,
      "v": 45
    },
    {
      "midi": 80,
      "hit": false,
      "t": 235918.16215833314,
      "d": 143.18180625000969,
      "v": 28
    },
    {
      "midi": 67,
      "hit": false,
      "t": 236020.4348770825,
      "d": 661.3635812499851,
      "v": 98
    },
    {
      "midi": 67,
      "hit": false,
      "t": 236020.43487708335,
      "d": 661.3635812500142,
      "v": 98
    },
    {
      "midi": 81,
      "hit": false,
      "t": 236177.25304583315,
      "d": 445.4545083333214,
      "v": 50
    },
    {
      "midi": 67,
      "hit": false,
      "t": 236181.7984999991,
      "d": 261.36361458332976,
      "v": 56
    },
    {
      "midi": 42,
      "hit": false,
      "t": 236181.79849999983,
      "d": 147.72726041666465,
      "v": 45
    },
    {
      "midi": 67,
      "hit": false,
      "t": 236711.34391041583,
      "d": 320.4545187500189,
      "v": 98
    },
    {
      "midi": 67,
      "hit": false,
      "t": 236711.3439104167,
      "d": 320.4545187500189,
      "v": 98
    },
    {
      "midi": 56,
      "hit": false,
      "t": 236727.2529999991,
      "d": 470.45450624998193,
      "v": 71
    },
    {
      "midi": 65,
      "hit": false,
      "t": 236727.25299999965,
      "d": 545.4544999999925,
      "v": 37
    },
    {
      "midi": 42,
      "hit": false,
      "t": 236727.25299999982,
      "d": 147.72726041666465,
      "v": 45
    },
    {
      "midi": 63,
      "hit": false,
      "t": 236729.52572708298,
      "d": 406.81814791666693,
      "v": 46
    },
    {
      "midi": 80,
      "hit": false,
      "t": 236729.52572708312,
      "d": 131.81817083334317,
      "v": 39
    },
    {
      "midi": 36,
      "hit": false,
      "t": 236729.52572708327,
      "d": 154.5454416666762,
      "v": 81
    },
    {
      "midi": 56,
      "hit": false,
      "t": 236752.2529979163,
      "d": 406.81814791666693,
      "v": 42
    },
    {
      "midi": 60,
      "hit": false,
      "t": 236752.2529979163,
      "d": 406.81814791666693,
      "v": 52
    },
    {
      "midi": 37,
      "hit": false,
      "t": 236752.25299791663,
      "d": 2106.8180062499887,
      "v": 80
    },
    {
      "midi": 80,
      "hit": false,
      "t": 237009.07115833313,
      "d": 140.9090791666531,
      "v": 28
    },
    {
      "midi": 68,
      "hit": false,
      "t": 237011.34388541584,
      "d": 311.3636104166799,
      "v": 92
    },
    {
      "midi": 68,
      "hit": false,
      "t": 237011.34388541672,
      "d": 311.3636104166799,
      "v": 92
    },
    {
      "midi": 61,
      "hit": false,
      "t": 237272.7074999991,
      "d": 340.90906249999534,
      "v": 67
    },
    {
      "midi": 81,
      "hit": false,
      "t": 237272.7074999998,
      "d": 415.90905625000596,
      "v": 51
    },
    {
      "midi": 42,
      "hit": false,
      "t": 237293.16204374982,
      "d": 140.9090791666531,
      "v": 54
    },
    {
      "midi": 65,
      "hit": false,
      "t": 237304.52567916585,
      "d": 2468.1816124999896,
      "v": 90
    },
    {
      "midi": 65,
      "hit": false,
      "t": 237304.52567916672,
      "d": 2468.1816125000187,
      "v": 90
    },
    {
      "midi": 65,
      "hit": false,
      "t": 237545.43474999908,
      "d": 529.5454104166711,
      "v": 78
    },
    {
      "midi": 56,
      "hit": false,
      "t": 237818.16199999908,
      "d": 343.1817895833228,
      "v": 62
    },
    {
      "midi": 80,
      "hit": false,
      "t": 237820.43472708313,
      "d": 129.5454437499866,
      "v": 39
    },
    {
      "midi": 42,
      "hit": false,
      "t": 237849.98017916648,
      "d": 159.09089583333116,
      "v": 45
    },
    {
      "midi": 68,
      "hit": false,
      "t": 238090.88924999908,
      "d": 259.0908875000023,
      "v": 80
    },
    {
      "midi": 80,
      "hit": false,
      "t": 238099.9801583331,
      "d": 129.5454437499866,
      "v": 36
    },
    {
      "midi": 65,
      "hit": false,
      "t": 238363.61649999907,
      "d": 313.63633750000736,
      "v": 51
    },
    {
      "midi": 81,
      "hit": false,
      "t": 238368.16195416643,
      "d": 436.3636000000115,
      "v": 49
    },
    {
      "midi": 42,
      "hit": false,
      "t": 238368.16195416648,
      "d": 163.63634999998612,
      "v": 45
    },
    {
      "midi": 61,
      "hit": false,
      "t": 238636.34374999907,
      "d": 268.1817958333413,
      "v": 62
    },
    {
      "midi": 37,
      "hit": false,
      "t": 238906.7982729166,
      "d": 156.81816875000368,
      "v": 102
    },
    {
      "midi": 56,
      "hit": false,
      "t": 238909.07099999906,
      "d": 470.45450625001104,
      "v": 71
    },
    {
      "midi": 80,
      "hit": false,
      "t": 238911.3437270831,
      "d": 131.81817083334317,
      "v": 36
    },
    {
      "midi": 42,
      "hit": false,
      "t": 238920.43463541646,
      "d": 147.72726041666465,
      "v": 45
    },
    {
      "midi": 37,
      "hit": false,
      "t": 238949.98008749995,
      "d": 1547.7271437500021,
      "v": 75
    },
    {
      "midi": 80,
      "hit": false,
      "t": 239190.8891583331,
      "d": 136.36362499999814,
      "v": 36
    },
    {
      "midi": 81,
      "hit": false,
      "t": 239454.52549999976,
      "d": 434.0908729166549,
      "v": 53
    },
    {
      "midi": 61,
      "hit": false,
      "t": 239456.7982270824,
      "d": 718.1817583333177,
      "v": 70
    },
    {
      "midi": 42,
      "hit": false,
      "t": 239470.43458958314,
      "d": 156.81816875000368,
      "v": 45
    },
    {
      "midi": 44,
      "hit": false,
      "t": 239470.43458958328,
      "d": 1034.0908229166816,
      "v": 78
    },
    {
      "midi": 65,
      "hit": false,
      "t": 239727.25274999908,
      "d": 499.9999583333265,
      "v": 70
    },
    {
      "midi": 56,
      "hit": false,
      "t": 239943.16182291583,
      "d": 190.9090750000032,
      "v": 84
    },
    {
      "midi": 56,
      "hit": false,
      "t": 239943.16182291674,
      "d": 190.9090750000032,
      "v": 90
    },
    {
      "midi": 68,
      "hit": false,
      "t": 239999.97999999908,
      "d": 470.45450625001104,
      "v": 59
    },
    {
      "midi": 80,
      "hit": false,
      "t": 239999.97999999975,
      "d": 122.72726250000414,
      "v": 39
    },
    {
      "midi": 42,
      "hit": false,
      "t": 240018.16181666648,
      "d": 143.18180625000969,
      "v": 47
    },
    {
      "midi": 58,
      "hit": false,
      "t": 240113.61635416583,
      "d": 218.1817999999912,
      "v": 80
    },
    {
      "midi": 58,
      "hit": false,
      "t": 240113.61635416673,
      "d": 218.1817999999912,
      "v": 86
    },
    {
      "midi": 80,
      "hit": false,
      "t": 240279.52543124976,
      "d": 120.45453541667666,
      "v": 28
    },
    {
      "midi": 56,
      "hit": false,
      "t": 240295.4345208325,
      "d": 268.1817958333413,
      "v": 88
    },
    {
      "midi": 56,
      "hit": false,
      "t": 240295.4345208334,
      "d": 268.1817958333413,
      "v": 94
    },
    {
      "midi": 65,
      "hit": false,
      "t": 240545.4344999991,
      "d": 261.36361458332976,
      "v": 56
    },
    {
      "midi": 55,
      "hit": false,
      "t": 240545.43449999916,
      "d": 165.9090770833427,
      "v": 88
    },
    {
      "midi": 36,
      "hit": false,
      "t": 240545.43449999994,
      "d": 165.9090770833427,
      "v": 82
    },
    {
      "midi": 55,
      "hit": false,
      "t": 240545.43450000006,
      "d": 165.9090770833427,
      "v": 94
    },
    {
      "midi": 81,
      "hit": false,
      "t": 240547.7072270831,
      "d": 431.81814583332743,
      "v": 54
    },
    {
      "midi": 42,
      "hit": false,
      "t": 240547.70722708316,
      "d": 145.45453333333717,
      "v": 51
    },
    {
      "midi": 32,
      "hit": false,
      "t": 240586.34358749996,
      "d": 456.81814374998794,
      "v": 72
    },
    {
      "midi": 56,
      "hit": false,
      "t": 240695.43448749918,
      "d": 224.99998125000275,
      "v": 72
    },
    {
      "midi": 56,
      "hit": false,
      "t": 240695.43448750008,
      "d": 224.99998125000275,
      "v": 78
    },
    {
      "midi": 58,
      "hit": false,
      "t": 240902.2526520825,
      "d": 188.63634791667573,
      "v": 80
    },
    {
      "midi": 58,
      "hit": false,
      "t": 240902.2526520834,
      "d": 188.63634791667573,
      "v": 86
    },
    {
      "midi": 80,
      "hit": false,
      "t": 241088.61627291644,
      "d": 140.9090791666531,
      "v": 39
    },
    {
      "midi": 56,
      "hit": false,
      "t": 241090.8889999991,
      "d": 470.45450624998193,
      "v": 71
    },
    {
      "midi": 36,
      "hit": false,
      "t": 241095.43445416662,
      "d": 177.27271250000922,
      "v": 87
    },
    {
      "midi": 42,
      "hit": false,
      "t": 241099.97990833316,
      "d": 154.5454416666762,
      "v": 54
    },
    {
      "midi": 64,
      "hit": false,
      "t": 241115.88899791584,
      "d": 997.7271895833255,
      "v": 89
    },
    {
      "midi": 59,
      "hit": false,
      "t": 241115.8889979163,
      "d": 406.81814791666693,
      "v": 43
    },
    {
      "midi": 64,
      "hit": false,
      "t": 241115.88899791674,
      "d": 997.7271895833255,
      "v": 89
    },
    {
      "midi": 37,
      "hit": false,
      "t": 241122.7071791666,
      "d": 2097.7270979166788,
      "v": 93
    },
    {
      "midi": 64,
      "hit": false,
      "t": 241138.61626874964,
      "d": 406.81814791666693,
      "v": 33
    },
    {
      "midi": 61,
      "hit": false,
      "t": 241152.25263124963,
      "d": 552.2726812500041,
      "v": 36
    },
    {
      "midi": 68,
      "hit": false,
      "t": 241152.25263124963,
      "d": 665.9090354166692,
      "v": 49
    },
    {
      "midi": 80,
      "hit": false,
      "t": 241372.7071583331,
      "d": 129.5454437499866,
      "v": 28
    },
    {
      "midi": 61,
      "hit": false,
      "t": 241636.3434999991,
      "d": 340.90906249999534,
      "v": 67
    },
    {
      "midi": 81,
      "hit": false,
      "t": 241636.34349999976,
      "d": 452.272689583333,
      "v": 47
    },
    {
      "midi": 42,
      "hit": false,
      "t": 241638.61622708317,
      "d": 154.5454416666762,
      "v": 45
    },
    {
      "midi": 64,
      "hit": false,
      "t": 241909.07074999908,
      "d": 529.5454104166711,
      "v": 78
    },
    {
      "midi": 71,
      "hit": false,
      "t": 242161.34345624916,
      "d": 543.1817729166651,
      "v": 101
    },
    {
      "midi": 71,
      "hit": false,
      "t": 242161.34345625006,
      "d": 543.1817729166651,
      "v": 101
    },
    {
      "midi": 80,
      "hit": false,
      "t": 242179.52527291642,
      "d": 124.99998958333163,
      "v": 32
    },
    {
      "midi": 56,
      "hit": false,
      "t": 242181.79799999908,
      "d": 343.1817895833228,
      "v": 62
    },
    {
      "midi": 42,
      "hit": false,
      "t": 242195.43436249986,
      "d": 134.09089791667066,
      "v": 45
    },
    {
      "midi": 68,
      "hit": false,
      "t": 242454.52524999907,
      "d": 259.0908875000023,
      "v": 80
    },
    {
      "midi": 80,
      "hit": false,
      "t": 242463.61615833308,
      "d": 143.18180625000969,
      "v": 32
    },
    {
      "midi": 42,
      "hit": false,
      "t": 242713.61613749986,
      "d": 143.18180625000969,
      "v": 45
    },
    {
      "midi": 64,
      "hit": false,
      "t": 242727.25249999907,
      "d": 313.63633750000736,
      "v": 51
    },
    {
      "midi": 81,
      "hit": false,
      "t": 242727.25249999977,
      "d": 434.0908729166549,
      "v": 47
    },
    {
      "midi": 63,
      "hit": false,
      "t": 242729.5252270825,
      "d": 1099.9999083333241,
      "v": 99
    },
    {
      "midi": 63,
      "hit": false,
      "t": 242729.5252270834,
      "d": 1099.9999083333532,
      "v": 99
    },
    {
      "midi": 61,
      "hit": false,
      "t": 242999.97974999907,
      "d": 268.1817958333413,
      "v": 62
    },
    {
      "midi": 42,
      "hit": false,
      "t": 243259.07063749988,
      "d": 138.63635208332562,
      "v": 45
    },
    {
      "midi": 70,
      "hit": false,
      "t": 243265.88881874963,
      "d": 665.9090354166692,
      "v": 57
    },
    {
      "midi": 39,
      "hit": false,
      "t": 243270.4342729166,
      "d": 2090.908916666667,
      "v": 88
    },
    {
      "midi": 58,
      "hit": false,
      "t": 243272.70699999906,
      "d": 470.45450624998193,
      "v": 71
    },
    {
      "midi": 80,
      "hit": false,
      "t": 243272.70699999976,
      "d": 111.36362708333763,
      "v": 32
    },
    {
      "midi": 37,
      "hit": false,
      "t": 243272.70699999997,
      "d": 168.1818041666702,
      "v": 114
    },
    {
      "midi": 61,
      "hit": false,
      "t": 243274.97972708297,
      "d": 406.81814791666693,
      "v": 36
    },
    {
      "midi": 65,
      "hit": false,
      "t": 243288.61608958297,
      "d": 529.5454104166711,
      "v": 49
    },
    {
      "midi": 63,
      "hit": false,
      "t": 243288.61608958297,
      "d": 552.2726812500041,
      "v": 29
    },
    {
      "midi": 80,
      "hit": false,
      "t": 243552.25243124977,
      "d": 131.81817083334317,
      "v": 32
    },
    {
      "midi": 63,
      "hit": false,
      "t": 243820.43422708238,
      "d": 718.1817583333177,
      "v": 70
    },
    {
      "midi": 61,
      "hit": false,
      "t": 243820.43422708247,
      "d": 974.9999187499925,
      "v": 97
    },
    {
      "midi": 81,
      "hit": false,
      "t": 243820.4342270831,
      "d": 447.727235416678,
      "v": 54
    },
    {
      "midi": 61,
      "hit": false,
      "t": 243820.4342270834,
      "d": 974.9999187499925,
      "v": 97
    },
    {
      "midi": 42,
      "hit": false,
      "t": 243840.8887708332,
      "d": 143.18180625000969,
      "v": 45
    },
    {
      "midi": 68,
      "hit": false,
      "t": 244090.88874999905,
      "d": 499.9999583333265,
      "v": 70
    },
    {
      "midi": 70,
      "hit": false,
      "t": 244363.61599999905,
      "d": 470.45450625001104,
      "v": 59
    },
    {
      "midi": 80,
      "hit": false,
      "t": 244363.61599999978,
      "d": 129.5454437499866,
      "v": 39
    },
    {
      "midi": 42,
      "hit": false,
      "t": 244377.2523624999,
      "d": 147.72726041666465,
      "v": 47
    },
    {
      "midi": 80,
      "hit": false,
      "t": 244645.43415833308,
      "d": 124.99998958333163,
      "v": 39
    },
    {
      "midi": 56,
      "hit": false,
      "t": 244843.16141458246,
      "d": 315.90906458333484,
      "v": 99
    },
    {
      "midi": 56,
      "hit": false,
      "t": 244843.1614145834,
      "d": 315.90906458333484,
      "v": 99
    },
    {
      "midi": 42,
      "hit": false,
      "t": 244906.79777291656,
      "d": 140.9090791666531,
      "v": 45
    },
    {
      "midi": 68,
      "hit": false,
      "t": 244909.07049999907,
      "d": 261.36361458332976,
      "v": 56
    },
    {
      "midi": 81,
      "hit": false,
      "t": 244911.34322708307,
      "d": 452.272689583333,
      "v": 47
    },
    {
      "midi": 58,
      "hit": false,
      "t": 245161.34320624912,
      "d": 293.1817937500018,
      "v": 99
    },
    {
      "midi": 58,
      "hit": false,
      "t": 245161.34320625005,
      "d": 293.1817937500018,
      "v": 99
    },
    {
      "midi": 80,
      "hit": false,
      "t": 245452.2522729164,
      "d": 111.36362708333763,
      "v": 39
    },
    {
      "midi": 36,
      "hit": false,
      "t": 245452.25227291664,
      "d": 156.81816875000368,
      "v": 82
    },
    {
      "midi": 56,
      "hit": false,
      "t": 245454.52499999906,
      "d": 470.45450624998193,
      "v": 71
    },
    {
      "midi": 32,
      "hit": false,
      "t": 245454.52499999994,
      "d": 1636.3635000000068,
      "v": 78
    },
    {
      "midi": 60,
      "hit": false,
      "t": 245459.07045416578,
      "d": 265.90906875001383,
      "v": 81
    },
    {
      "midi": 60,
      "hit": false,
      "t": 245459.0704541667,
      "d": 265.90906875001383,
      "v": 91
    },
    {
      "midi": 42,
      "hit": false,
      "t": 245477.2522708332,
      "d": 152.2727145833196,
      "v": 55
    },
    {
      "midi": 60,
      "hit": false,
      "t": 245493.1613604163,
      "d": 665.9090354166692,
      "v": 53
    },
    {
      "midi": 63,
      "hit": false,
      "t": 245495.43408749963,
      "d": 406.81814791666693,
      "v": 58
    },
    {
      "midi": 56,
      "hit": false,
      "t": 245509.07044999962,
      "d": 665.9090354166692,
      "v": 53
    },
    {
      "midi": 58,
      "hit": false,
      "t": 245518.16135833296,
      "d": 406.81814791666693,
      "v": 46
    },
    {
      "midi": 61,
      "hit": false,
      "t": 245724.9795229158,
      "d": 272.7272499999963,
      "v": 87
    },
    {
      "midi": 61,
      "hit": false,
      "t": 245724.97952291672,
      "d": 272.7272499999963,
      "v": 97
    },
    {
      "midi": 80,
      "hit": false,
      "t": 245736.34315833307,
      "d": 152.2727145833196,
      "v": 32
    },
    {
      "midi": 60,
      "hit": false,
      "t": 245997.7067729158,
      "d": 274.99997708332376,
      "v": 82
    },
    {
      "midi": 60,
      "hit": false,
      "t": 245997.70677291672,
      "d": 274.99997708332376,
      "v": 92
    },
    {
      "midi": 60,
      "hit": false,
      "t": 245999.97949999906,
      "d": 340.90906249999534,
      "v": 67
    },
    {
      "midi": 81,
      "hit": false,
      "t": 246002.25222708305,
      "d": 456.81814374998794,
      "v": 50
    },
    {
      "midi": 42,
      "hit": false,
      "t": 246004.52495416653,
      "d": 154.5454416666762,
      "v": 45
    },
    {
      "midi": 63,
      "hit": false,
      "t": 246272.70674999905,
      "d": 529.5454104166711,
      "v": 78
    },
    {
      "midi": 61,
      "hit": false,
      "t": 246272.7067499991,
      "d": 320.4545187499898,
      "v": 98
    },
    {
      "midi": 61,
      "hit": false,
      "t": 246272.70675000004,
      "d": 320.4545187500189,
      "v": 98
    },
    {
      "midi": 63,
      "hit": false,
      "t": 246540.88854583245,
      "d": 1579.545322916645,
      "v": 97
    },
    {
      "midi": 63,
      "hit": false,
      "t": 246540.88854583338,
      "d": 1579.5453229166742,
      "v": 97
    },
    {
      "midi": 56,
      "hit": false,
      "t": 246545.43399999905,
      "d": 343.1817895833228,
      "v": 62
    },
    {
      "midi": 80,
      "hit": false,
      "t": 246545.43399999972,
      "d": 143.18180625000969,
      "v": 32
    },
    {
      "midi": 42,
      "hit": false,
      "t": 246552.25218124987,
      "d": 131.81817083334317,
      "v": 45
    },
    {
      "midi": 68,
      "hit": false,
      "t": 246818.16124999904,
      "d": 259.0908875000023,
      "v": 80
    },
    {
      "midi": 80,
      "hit": false,
      "t": 246829.52488541638,
      "d": 193.1818020833307,
      "v": 39
    },
    {
      "midi": 81,
      "hit": false,
      "t": 247086.34304583305,
      "d": 415.90905625000596,
      "v": 57
    },
    {
      "midi": 63,
      "hit": false,
      "t": 247090.88849999904,
      "d": 313.63633750000736,
      "v": 51
    },
    {
      "midi": 46,
      "hit": false,
      "t": 247090.88849999994,
      "d": 1131.8180874999962,
      "v": 80
    },
    {
      "midi": 42,
      "hit": false,
      "t": 247093.1612270832,
      "d": 147.72726041666465,
      "v": 45
    },
    {
      "midi": 60,
      "hit": false,
      "t": 247363.61574999904,
      "d": 268.1817958333413,
      "v": 62
    },
    {
      "midi": 42,
      "hit": false,
      "t": 247631.79754583322,
      "d": 138.63635208332562,
      "v": 47
    },
    {
      "midi": 37,
      "hit": false,
      "t": 247634.07027291664,
      "d": 149.99998749999213,
      "v": 102
    },
    {
      "midi": 56,
      "hit": false,
      "t": 247636.34299999903,
      "d": 470.45450625001104,
      "v": 71
    },
    {
      "midi": 80,
      "hit": false,
      "t": 247636.34299999973,
      "d": 136.36362499999814,
      "v": 39
    },
    {
      "midi": 80,
      "hit": false,
      "t": 247918.16115833307,
      "d": 195.45452916665818,
      "v": 39
    },
    {
      "midi": 42,
      "hit": false,
      "t": 248177.25204583321,
      "d": 143.18180625000969,
      "v": 45
    },
    {
      "midi": 68,
      "hit": false,
      "t": 248179.52477291576,
      "d": 820.4544770833163,
      "v": 100
    },
    {
      "midi": 68,
      "hit": false,
      "t": 248179.52477291672,
      "d": 820.4544770833163,
      "v": 100
    },
    {
      "midi": 81,
      "hit": false,
      "t": 248181.79749999972,
      "d": 449.9999625000055,
      "v": 62
    },
    {
      "midi": 44,
      "hit": false,
      "t": 248181.79749999993,
      "d": 586.3635875000327,
      "v": 82
    },
    {
      "midi": 60,
      "hit": false,
      "t": 248184.07022708238,
      "d": 718.1817583333177,
      "v": 70
    },
    {
      "midi": 63,
      "hit": false,
      "t": 248454.52474999905,
      "d": 499.9999583333265,
      "v": 70
    },
    {
      "midi": 42,
      "hit": false,
      "t": 248720.43381874988,
      "d": 136.36362499999814,
      "v": 45
    },
    {
      "midi": 68,
      "hit": false,
      "t": 248727.25199999905,
      "d": 470.45450625001104,
      "v": 59
    },
    {
      "midi": 39,
      "hit": false,
      "t": 248727.25199999995,
      "d": 586.3635875000327,
      "v": 80
    },
    {
      "midi": 80,
      "hit": false,
      "t": 248729.52472708307,
      "d": 140.9090791666531,
      "v": 39
    },
    {
      "midi": 72,
      "hit": false,
      "t": 248997.70652291575,
      "d": 843.1817479166493,
      "v": 102
    },
    {
      "midi": 72,
      "hit": false,
      "t": 248997.7065229167,
      "d": 843.1817479166784,
      "v": 102
    },
    {
      "midi": 80,
      "hit": false,
      "t": 249011.34288541638,
      "d": 193.1818020833307,
      "v": 39
    },
    {
      "midi": 42,
      "hit": false,
      "t": 249259.0701374999,
      "d": 143.18180625000969,
      "v": 55
    },
    {
      "midi": 63,
      "hit": false,
      "t": 249272.70649999907,
      "d": 261.36361458332976,
      "v": 56
    },
    {
      "midi": 81,
      "hit": false,
      "t": 249272.7064999997,
      "d": 440.90905416666646,
      "v": 54
    },
    {
      "midi": 44,
      "hit": false,
      "t": 249272.70649999997,
      "d": 586.3635875000327,
      "v": 87
    },
    {
      "midi": 36,
      "hit": false,
      "t": 249277.25195416663,
      "d": 161.36362291665864,
      "v": 91
    },
    {
      "midi": 75,
      "hit": false,
      "t": 249797.70645624906,
      "d": 1134.0908145833237,
      "v": 101
    },
    {
      "midi": 75,
      "hit": false,
      "t": 249797.70645625005,
      "d": 1134.0908145833528,
      "v": 101
    },
    {
      "midi": 36,
      "hit": false,
      "t": 249815.8882729166,
      "d": 170.45453124999767,
      "v": 82
    },
    {
      "midi": 55,
      "hit": false,
      "t": 249818.16099999906,
      "d": 470.45450624998193,
      "v": 71
    },
    {
      "midi": 60,
      "hit": false,
      "t": 249818.1609999996,
      "d": 665.9090354166692,
      "v": 53
    },
    {
      "midi": 63,
      "hit": false,
      "t": 249820.43372708294,
      "d": 406.81814791666693,
      "v": 58
    },
    {
      "midi": 80,
      "hit": false,
      "t": 249822.7064541664,
      "d": 147.72726041666465,
      "v": 28
    },
    {
      "midi": 42,
      "hit": false,
      "t": 249824.9791812499,
      "d": 147.72726041666465,
      "v": 45
    },
    {
      "midi": 55,
      "hit": false,
      "t": 249834.07008958294,
      "d": 665.9090354166692,
      "v": 53
    },
    {
      "midi": 36,
      "hit": false,
      "t": 249840.88827083333,
      "d": 4249.9996458333335,
      "v": 83
    },
    {
      "midi": 58,
      "hit": false,
      "t": 249843.16099791627,
      "d": 406.81814791666693,
      "v": 46
    },
    {
      "midi": 80,
      "hit": false,
      "t": 250102.2518854164,
      "d": 177.27271250000922,
      "v": 39
    },
    {
      "midi": 63,
      "hit": false,
      "t": 250363.61549999905,
      "d": 340.90906249999534,
      "v": 67
    },
    {
      "midi": 81,
      "hit": false,
      "t": 250365.88822708308,
      "d": 459.0908708333445,
      "v": 47
    },
    {
      "midi": 42,
      "hit": false,
      "t": 250381.79731666655,
      "d": 140.9090791666531,
      "v": 51
    },
    {
      "midi": 67,
      "hit": false,
      "t": 250636.34274999905,
      "d": 529.5454104166711,
      "v": 78
    },
    {
      "midi": 55,
      "hit": false,
      "t": 250909.06999999905,
      "d": 343.1817895833228,
      "v": 62
    },
    {
      "midi": 73,
      "hit": false,
      "t": 250909.06999999905,
      "d": 568.1817708333256,
      "v": 98
    },
    {
      "midi": 73,
      "hit": false,
      "t": 250909.07000000007,
      "d": 568.1817708333256,
      "v": 98
    },
    {
      "midi": 80,
      "hit": false,
      "t": 250913.61545416643,
      "d": 124.99998958333163,
      "v": 32
    },
    {
      "midi": 42,
      "hit": false,
      "t": 250929.52454374987,
      "d": 147.72726041666465,
      "v": 45
    },
    {
      "midi": 70,
      "hit": false,
      "t": 251181.79724999904,
      "d": 259.0908875000023,
      "v": 80
    },
    {
      "midi": 80,
      "hit": false,
      "t": 251186.34270416643,
      "d": 159.09089583333116,
      "v": 28
    },
    {
      "midi": 67,
      "hit": false,
      "t": 251454.52449999904,
      "d": 313.63633750000736,
      "v": 51
    },
    {
      "midi": 72,
      "hit": false,
      "t": 251456.79722708237,
      "d": 1111.3635437499906,
      "v": 91
    },
    {
      "midi": 81,
      "hit": false,
      "t": 251456.7972270831,
      "d": 454.54541666666046,
      "v": 47
    },
    {
      "midi": 72,
      "hit": false,
      "t": 251456.79722708339,
      "d": 1111.3635437500197,
      "v": 91
    },
    {
      "midi": 42,
      "hit": false,
      "t": 251479.52449791654,
      "d": 127.27271666665911,
      "v": 45
    },
    {
      "midi": 63,
      "hit": false,
      "t": 251727.25174999904,
      "d": 268.1817958333413,
      "v": 62
    },
    {
      "midi": 55,
      "hit": false,
      "t": 251999.97899999903,
      "d": 470.45450625001104,
      "v": 71
    },
    {
      "midi": 37,
      "hit": false,
      "t": 251999.97899999993,
      "d": 168.1818041666702,
      "v": 96
    },
    {
      "midi": 80,
      "hit": false,
      "t": 252002.2517270831,
      "d": 134.09089791667066,
      "v": 39
    },
    {
      "midi": 42,
      "hit": false,
      "t": 252009.06990833321,
      "d": 136.36362499999814,
      "v": 45
    },
    {
      "midi": 80,
      "hit": false,
      "t": 252281.7971583331,
      "d": 147.72726041666465,
      "v": 32
    },
    {
      "midi": 73,
      "hit": false,
      "t": 252547.70622708235,
      "d": 1088.6362729166576,
      "v": 94
    },
    {
      "midi": 63,
      "hit": false,
      "t": 252547.70622708238,
      "d": 718.1817583333177,
      "v": 70
    },
    {
      "midi": 81,
      "hit": false,
      "t": 252547.70622708308,
      "d": 459.0908708333445,
      "v": 56
    },
    {
      "midi": 73,
      "hit": false,
      "t": 252547.7062270834,
      "d": 1088.6362729166867,
      "v": 94
    },
    {
      "midi": 42,
      "hit": false,
      "t": 252565.88804374987,
      "d": 145.45453333333717,
      "v": 45
    },
    {
      "midi": 67,
      "hit": false,
      "t": 252818.16074999905,
      "d": 499.9999583333265,
      "v": 70
    },
    {
      "midi": 70,
      "hit": false,
      "t": 253090.88799999905,
      "d": 470.45450625001104,
      "v": 59
    },
    {
      "midi": 80,
      "hit": false,
      "t": 253090.88799999974,
      "d": 124.99998958333163,
      "v": 39
    },
    {
      "midi": 42,
      "hit": false,
      "t": 253099.9789083332,
      "d": 138.63635208332562,
      "v": 45
    },
    {
      "midi": 80,
      "hit": false,
      "t": 253374.9788854164,
      "d": 143.18180625000969,
      "v": 28
    },
    {
      "midi": 72,
      "hit": false,
      "t": 253636.342499999,
      "d": 1636.3635000000068,
      "v": 102
    },
    {
      "midi": 67,
      "hit": false,
      "t": 253636.34249999907,
      "d": 261.36361458332976,
      "v": 56
    },
    {
      "midi": 81,
      "hit": false,
      "t": 253636.34249999974,
      "d": 445.4545083333214,
      "v": 50
    },
    {
      "midi": 42,
      "hit": false,
      "t": 253636.34249999985,
      "d": 147.72726041666465,
      "v": 45
    },
    {
      "midi": 72,
      "hit": false,
      "t": 253636.3425000001,
      "d": 1636.3635000000068,
      "v": 102
    },
    {
      "midi": 56,
      "hit": false,
      "t": 254181.79699999906,
      "d": 470.45450624998193,
      "v": 71
    },
    {
      "midi": 65,
      "hit": false,
      "t": 254181.7969999996,
      "d": 545.4544999999925,
      "v": 37
    },
    {
      "midi": 42,
      "hit": false,
      "t": 254181.79699999985,
      "d": 147.72726041666465,
      "v": 45
    },
    {
      "midi": 36,
      "hit": false,
      "t": 254181.79699999993,
      "d": 165.9090770833427,
      "v": 82
    },
    {
      "midi": 63,
      "hit": false,
      "t": 254184.06972708294,
      "d": 406.81814791666693,
      "v": 46
    },
    {
      "midi": 80,
      "hit": false,
      "t": 254186.34245416638,
      "d": 131.81817083334317,
      "v": 39
    },
    {
      "midi": 56,
      "hit": false,
      "t": 254206.79699791627,
      "d": 406.81814791666693,
      "v": 42
    },
    {
      "midi": 60,
      "hit": false,
      "t": 254206.79699791627,
      "d": 406.81814791666693,
      "v": 52
    },
    {
      "midi": 37,
      "hit": false,
      "t": 254206.79699791665,
      "d": 2652.2725062500103,
      "v": 82
    },
    {
      "midi": 80,
      "hit": false,
      "t": 254468.16061249972,
      "d": 140.9090791666531,
      "v": 28
    },
    {
      "midi": 81,
      "hit": false,
      "t": 254724.97877291637,
      "d": 415.90905625000596,
      "v": 51
    },
    {
      "midi": 61,
      "hit": false,
      "t": 254727.25149999905,
      "d": 340.90906249999534,
      "v": 67
    },
    {
      "midi": 42,
      "hit": false,
      "t": 254747.70604374984,
      "d": 140.9090791666531,
      "v": 54
    },
    {
      "midi": 65,
      "hit": false,
      "t": 254999.97874999905,
      "d": 529.5454104166711,
      "v": 78
    },
    {
      "midi": 70,
      "hit": false,
      "t": 255272.70599999902,
      "d": 568.1817708333256,
      "v": 92
    },
    {
      "midi": 56,
      "hit": false,
      "t": 255272.70599999905,
      "d": 343.1817895833228,
      "v": 62
    },
    {
      "midi": 80,
      "hit": false,
      "t": 255272.7059999997,
      "d": 129.5454437499866,
      "v": 39
    },
    {
      "midi": 70,
      "hit": false,
      "t": 255272.7060000001,
      "d": 568.1817708333256,
      "v": 92
    },
    {
      "midi": 42,
      "hit": false,
      "t": 255304.5241791665,
      "d": 159.09089583333116,
      "v": 45
    },
    {
      "midi": 68,
      "hit": false,
      "t": 255545.43324999904,
      "d": 259.0908875000023,
      "v": 80
    },
    {
      "midi": 80,
      "hit": false,
      "t": 255556.79688541638,
      "d": 129.5454437499866,
      "v": 36
    },
    {
      "midi": 65,
      "hit": false,
      "t": 255818.16049999904,
      "d": 313.63633750000736,
      "v": 51
    },
    {
      "midi": 81,
      "hit": false,
      "t": 255822.70595416636,
      "d": 436.3636000000115,
      "v": 49
    },
    {
      "midi": 42,
      "hit": false,
      "t": 255822.7059541665,
      "d": 163.63634999998612,
      "v": 45
    },
    {
      "midi": 68,
      "hit": false,
      "t": 255840.88777083234,
      "d": 1065.9090020833246,
      "v": 90
    },
    {
      "midi": 68,
      "hit": false,
      "t": 255840.88777083342,
      "d": 1065.9090020833246,
      "v": 90
    },
    {
      "midi": 61,
      "hit": false,
      "t": 256090.88774999903,
      "d": 268.1817958333413,
      "v": 62
    },
    {
      "midi": 56,
      "hit": false,
      "t": 256363.61499999903,
      "d": 470.45450625001104,
      "v": 71
    },
    {
      "midi": 80,
      "hit": false,
      "t": 256363.6149999997,
      "d": 131.81817083334317,
      "v": 36
    },
    {
      "midi": 37,
      "hit": false,
      "t": 256368.16045416662,
      "d": 154.5454416666762,
      "v": 82
    },
    {
      "midi": 42,
      "hit": false,
      "t": 256374.97863541648,
      "d": 147.72726041666465,
      "v": 45
    },
    {
      "midi": 80,
      "hit": false,
      "t": 256647.70588541636,
      "d": 136.36362499999814,
      "v": 36
    },
    {
      "midi": 65,
      "hit": false,
      "t": 256906.79677291567,
      "d": 1663.6362249999656,
      "v": 90
    },
    {
      "midi": 65,
      "hit": false,
      "t": 256906.79677291674,
      "d": 1663.6362249999947,
      "v": 90
    },
    {
      "midi": 81,
      "hit": false,
      "t": 256909.0694999997,
      "d": 434.0908729166549,
      "v": 53
    },
    {
      "midi": 61,
      "hit": false,
      "t": 256911.34222708238,
      "d": 718.1817583333177,
      "v": 70
    },
    {
      "midi": 42,
      "hit": false,
      "t": 256924.97858958316,
      "d": 156.81816875000368,
      "v": 45
    },
    {
      "midi": 44,
      "hit": false,
      "t": 256970.43313125,
      "d": 1034.0908229166525,
      "v": 69
    },
    {
      "midi": 65,
      "hit": false,
      "t": 257181.79674999905,
      "d": 499.9999583333265,
      "v": 70
    },
    {
      "midi": 68,
      "hit": false,
      "t": 257454.52399999904,
      "d": 470.45450625001104,
      "v": 59
    },
    {
      "midi": 80,
      "hit": false,
      "t": 257456.796727083,
      "d": 122.72726250000414,
      "v": 39
    },
    {
      "midi": 42,
      "hit": false,
      "t": 257472.7058166665,
      "d": 143.18180625000969,
      "v": 47
    },
    {
      "midi": 80,
      "hit": false,
      "t": 257734.0694312497,
      "d": 120.45453541667666,
      "v": 28
    },
    {
      "midi": 65,
      "hit": false,
      "t": 257999.97849999907,
      "d": 261.36361458332976,
      "v": 56
    },
    {
      "midi": 81,
      "hit": false,
      "t": 257999.9784999997,
      "d": 431.81814583332743,
      "v": 54
    },
    {
      "midi": 42,
      "hit": false,
      "t": 258002.25122708318,
      "d": 145.45453333333717,
      "v": 51
    },
    {
      "midi": 36,
      "hit": false,
      "t": 258004.52395416662,
      "d": 177.27271250000922,
      "v": 82
    },
    {
      "midi": 32,
      "hit": false,
      "t": 258040.88758749998,
      "d": 456.81814374998794,
      "v": 63
    },
    {
      "midi": 56,
      "hit": false,
      "t": 258545.43299999906,
      "d": 470.45450624998193,
      "v": 71
    },
    {
      "midi": 36,
      "hit": false,
      "t": 258545.43299999996,
      "d": 159.09089583333116,
      "v": 81
    },
    {
      "midi": 80,
      "hit": false,
      "t": 258547.70572708303,
      "d": 140.9090791666531,
      "v": 39
    },
    {
      "midi": 42,
      "hit": false,
      "t": 258554.52390833318,
      "d": 154.5454416666762,
      "v": 54
    },
    {
      "midi": 64,
      "hit": false,
      "t": 258570.43299791563,
      "d": 1070.4544562499505,
      "v": 94
    },
    {
      "midi": 59,
      "hit": false,
      "t": 258570.43299791627,
      "d": 406.81814791666693,
      "v": 43
    },
    {
      "midi": 64,
      "hit": false,
      "t": 258570.43299791674,
      "d": 1070.4544562500087,
      "v": 94
    },
    {
      "midi": 37,
      "hit": false,
      "t": 258577.25117916663,
      "d": 2097.7270979166788,
      "v": 85
    },
    {
      "midi": 64,
      "hit": false,
      "t": 258593.1602687496,
      "d": 406.81814791666693,
      "v": 33
    },
    {
      "midi": 61,
      "hit": false,
      "t": 258606.7966312496,
      "d": 552.2726812500041,
      "v": 36
    },
    {
      "midi": 68,
      "hit": false,
      "t": 258606.7966312496,
      "d": 665.9090354166692,
      "v": 49
    },
    {
      "midi": 80,
      "hit": false,
      "t": 258831.7966124997,
      "d": 129.5454437499866,
      "v": 28
    },
    {
      "midi": 61,
      "hit": false,
      "t": 259090.88749999905,
      "d": 340.90906249999534,
      "v": 67
    },
    {
      "midi": 81,
      "hit": false,
      "t": 259090.88749999966,
      "d": 452.272689583333,
      "v": 47
    },
    {
      "midi": 42,
      "hit": false,
      "t": 259093.1602270832,
      "d": 154.5454416666762,
      "v": 45
    },
    {
      "midi": 64,
      "hit": false,
      "t": 259363.61474999905,
      "d": 529.5454104166711,
      "v": 78
    },
    {
      "midi": 80,
      "hit": false,
      "t": 259631.796545833,
      "d": 124.99998958333163,
      "v": 32
    },
    {
      "midi": 56,
      "hit": false,
      "t": 259636.34199999904,
      "d": 343.1817895833228,
      "v": 62
    },
    {
      "midi": 64,
      "hit": false,
      "t": 259640.88745416558,
      "d": 536.3635916666244,
      "v": 102
    },
    {
      "midi": 64,
      "hit": false,
      "t": 259640.88745416675,
      "d": 536.3635916666535,
      "v": 102
    },
    {
      "midi": 42,
      "hit": false,
      "t": 259649.97836249988,
      "d": 134.09089791667066,
      "v": 45
    },
    {
      "midi": 68,
      "hit": false,
      "t": 259909.06924999904,
      "d": 259.0908875000023,
      "v": 80
    },
    {
      "midi": 80,
      "hit": false,
      "t": 259918.160158333,
      "d": 143.18180625000969,
      "v": 32
    },
    {
      "midi": 42,
      "hit": false,
      "t": 260168.1601374999,
      "d": 143.18180625000969,
      "v": 45
    },
    {
      "midi": 63,
      "hit": false,
      "t": 260177.2510458322,
      "d": 1095.4544541666692,
      "v": 109
    },
    {
      "midi": 63,
      "hit": false,
      "t": 260177.2510458334,
      "d": 1095.4544541666692,
      "v": 109
    },
    {
      "midi": 64,
      "hit": false,
      "t": 260181.79649999904,
      "d": 313.63633750000736,
      "v": 51
    },
    {
      "midi": 81,
      "hit": false,
      "t": 260181.79649999968,
      "d": 434.0908729166549,
      "v": 47
    },
    {
      "midi": 61,
      "hit": false,
      "t": 260454.52374999903,
      "d": 268.1817958333413,
      "v": 62
    },
    {
      "midi": 42,
      "hit": false,
      "t": 260713.6146374999,
      "d": 138.63635208332562,
      "v": 45
    },
    {
      "midi": 70,
      "hit": false,
      "t": 260720.4328187496,
      "d": 665.9090354166692,
      "v": 57
    },
    {
      "midi": 58,
      "hit": false,
      "t": 260727.25099999903,
      "d": 470.45450624998193,
      "v": 71
    },
    {
      "midi": 80,
      "hit": false,
      "t": 260727.25099999967,
      "d": 111.36362708333763,
      "v": 32
    },
    {
      "midi": 61,
      "hit": false,
      "t": 260729.52372708294,
      "d": 406.81814791666693,
      "v": 36
    },
    {
      "midi": 37,
      "hit": false,
      "t": 260731.79645416662,
      "d": 147.72726041666465,
      "v": 114
    },
    {
      "midi": 39,
      "hit": false,
      "t": 260736.3419083333,
      "d": 2090.908916666638,
      "v": 75
    },
    {
      "midi": 65,
      "hit": false,
      "t": 260743.16008958293,
      "d": 529.5454104166711,
      "v": 49
    },
    {
      "midi": 63,
      "hit": false,
      "t": 260743.16008958293,
      "d": 552.2726812500041,
      "v": 29
    },
    {
      "midi": 80,
      "hit": false,
      "t": 261009.069158333,
      "d": 131.81817083334317,
      "v": 32
    },
    {
      "midi": 81,
      "hit": false,
      "t": 261270.43277291633,
      "d": 447.727235416678,
      "v": 54
    },
    {
      "midi": 61,
      "hit": false,
      "t": 261272.70549999888,
      "d": 1127.2726333333412,
      "v": 102
    },
    {
      "midi": 61,
      "hit": false,
      "t": 261272.70550000007,
      "d": 1127.2726333333703,
      "v": 102
    },
    {
      "midi": 63,
      "hit": false,
      "t": 261274.97822708235,
      "d": 718.1817583333177,
      "v": 70
    },
    {
      "midi": 42,
      "hit": false,
      "t": 261295.43277083323,
      "d": 143.18180625000969,
      "v": 45
    },
    {
      "midi": 68,
      "hit": false,
      "t": 261545.43274999902,
      "d": 499.9999583333265,
      "v": 70
    },
    {
      "midi": 80,
      "hit": false,
      "t": 261815.88727291636,
      "d": 129.5454437499866,
      "v": 39
    },
    {
      "midi": 70,
      "hit": false,
      "t": 261818.159999999,
      "d": 470.45450625001104,
      "v": 59
    },
    {
      "midi": 42,
      "hit": false,
      "t": 261831.7963624999,
      "d": 147.72726041666465,
      "v": 47
    },
    {
      "midi": 80,
      "hit": false,
      "t": 262099.97815833302,
      "d": 124.99998958336073,
      "v": 39
    },
    {
      "midi": 56,
      "hit": false,
      "t": 262359.0690458322,
      "d": 311.3636104166508,
      "v": 94
    },
    {
      "midi": 56,
      "hit": false,
      "t": 262359.0690458334,
      "d": 311.3636104166508,
      "v": 102
    },
    {
      "midi": 42,
      "hit": false,
      "t": 262361.34177291655,
      "d": 140.9090791666531,
      "v": 45
    },
    {
      "midi": 68,
      "hit": false,
      "t": 262363.61449999904,
      "d": 261.36361458332976,
      "v": 56
    },
    {
      "midi": 81,
      "hit": false,
      "t": 262368.1599541664,
      "d": 452.2726895833621,
      "v": 47
    },
    {
      "midi": 58,
      "hit": false,
      "t": 262636.34174999886,
      "d": 277.27270416665124,
      "v": 84
    },
    {
      "midi": 58,
      "hit": false,
      "t": 262636.3417500001,
      "d": 277.27270416665124,
      "v": 92
    },
    {
      "midi": 60,
      "hit": false,
      "t": 262904.5235458322,
      "d": 1095.45445416664,
      "v": 103
    },
    {
      "midi": 60,
      "hit": false,
      "t": 262904.5235458334,
      "d": 1095.45445416664,
      "v": 103
    },
    {
      "midi": 60,
      "hit": false,
      "t": 262906.79627291625,
      "d": 1484.0907854167162,
      "v": 63
    },
    {
      "midi": 80,
      "hit": false,
      "t": 262906.7962729164,
      "d": 111.36362708330853,
      "v": 39
    },
    {
      "midi": 53,
      "hit": false,
      "t": 262909.068999999,
      "d": 470.45450624998193,
      "v": 71
    },
    {
      "midi": 68,
      "hit": false,
      "t": 262909.0689999996,
      "d": 918.181741666689,
      "v": 71
    },
    {
      "midi": 36,
      "hit": false,
      "t": 262909.06899999996,
      "d": 177.27271250000922,
      "v": 81
    },
    {
      "midi": 65,
      "hit": false,
      "t": 262911.34172708297,
      "d": 1036.3635500000091,
      "v": 60
    },
    {
      "midi": 41,
      "hit": false,
      "t": 262915.8871812499,
      "d": 2024.9998312499956,
      "v": 84
    },
    {
      "midi": 42,
      "hit": false,
      "t": 262931.79627083323,
      "d": 152.2727145833196,
      "v": 55
    },
    {
      "midi": 80,
      "hit": false,
      "t": 263195.43261249975,
      "d": 152.2727145833196,
      "v": 32
    },
    {
      "midi": 81,
      "hit": false,
      "t": 263452.2507729164,
      "d": 456.81814375001704,
      "v": 50
    },
    {
      "midi": 42,
      "hit": false,
      "t": 263459.06895416655,
      "d": 154.5454416666762,
      "v": 45
    },
    {
      "midi": 60,
      "hit": false,
      "t": 263727.250749999,
      "d": 529.5454104166711,
      "v": 78
    },
    {
      "midi": 80,
      "hit": false,
      "t": 263997.7052729164,
      "d": 143.18180625000969,
      "v": 32
    },
    {
      "midi": 65,
      "hit": false,
      "t": 263999.977999999,
      "d": 259.0908875000314,
      "v": 80
    },
    {
      "midi": 53,
      "hit": false,
      "t": 263999.977999999,
      "d": 343.18178958335193,
      "v": 62
    },
    {
      "midi": 42,
      "hit": false,
      "t": 264006.7961812499,
      "d": 131.81817083334317,
      "v": 45
    },
    {
      "midi": 65,
      "hit": false,
      "t": 264015.88708958216,
      "d": 1734.0907645833213,
      "v": 106
    },
    {
      "midi": 65,
      "hit": false,
      "t": 264015.8870895834,
      "d": 1711.3634937499883,
      "v": 106
    },
    {
      "midi": 80,
      "hit": false,
      "t": 264279.5234312498,
      "d": 193.1818020833307,
      "v": 39
    },
    {
      "midi": 60,
      "hit": false,
      "t": 264545.432499999,
      "d": 313.63633750000736,
      "v": 51
    },
    {
      "midi": 81,
      "hit": false,
      "t": 264545.43249999976,
      "d": 415.90905625000596,
      "v": 57
    },
    {
      "midi": 42,
      "hit": false,
      "t": 264547.70522708324,
      "d": 147.72726041666465,
      "v": 45
    },
    {
      "midi": 42,
      "hit": false,
      "t": 265086.3415458332,
      "d": 138.63635208335472,
      "v": 47
    },
    {
      "midi": 40,
      "hit": false,
      "t": 265088.6142729166,
      "d": 2013.636195833329,
      "v": 80
    },
    {
      "midi": 52,
      "hit": false,
      "t": 265090.886999999,
      "d": 470.45450624998193,
      "v": 71
    },
    {
      "midi": 68,
      "hit": false,
      "t": 265090.88699999964,
      "d": 918.1817416666308,
      "v": 71
    },
    {
      "midi": 64,
      "hit": false,
      "t": 265090.88699999964,
      "d": 1070.4544562499505,
      "v": 68
    },
    {
      "midi": 37,
      "hit": false,
      "t": 265090.887,
      "d": 140.9090791666531,
      "v": 111
    },
    {
      "midi": 80,
      "hit": false,
      "t": 265093.1597270831,
      "d": 136.36362499999814,
      "v": 39
    },
    {
      "midi": 60,
      "hit": false,
      "t": 265134.06881458295,
      "d": 802.2726604166673,
      "v": 65
    },
    {
      "midi": 80,
      "hit": false,
      "t": 265374.9778854164,
      "d": 195.45452916668728,
      "v": 39
    },
    {
      "midi": 42,
      "hit": false,
      "t": 265631.7960458332,
      "d": 143.18180625000969,
      "v": 45
    },
    {
      "midi": 81,
      "hit": false,
      "t": 265636.34149999975,
      "d": 449.9999625000055,
      "v": 62
    },
    {
      "midi": 60,
      "hit": false,
      "t": 265638.6142270823,
      "d": 718.1817583333468,
      "v": 70
    },
    {
      "midi": 67,
      "hit": false,
      "t": 265756.7960354155,
      "d": 811.3635687499773,
      "v": 104
    },
    {
      "midi": 67,
      "hit": false,
      "t": 265756.7960354167,
      "d": 811.3635687499773,
      "v": 104
    },
    {
      "midi": 42,
      "hit": false,
      "t": 266174.9778187499,
      "d": 136.36362499999814,
      "v": 45
    },
    {
      "midi": 65,
      "hit": false,
      "t": 266181.795999999,
      "d": 470.45450624998193,
      "v": 59
    },
    {
      "midi": 80,
      "hit": false,
      "t": 266181.79599999974,
      "d": 140.9090791666531,
      "v": 39
    },
    {
      "midi": 80,
      "hit": false,
      "t": 266461.34143124975,
      "d": 193.1818020833307,
      "v": 39
    },
    {
      "midi": 68,
      "hit": false,
      "t": 266568.15960416547,
      "d": 699.9999416666687,
      "v": 101
    },
    {
      "midi": 68,
      "hit": false,
      "t": 266568.1596041667,
      "d": 699.9999416666687,
      "v": 101
    },
    {
      "midi": 42,
      "hit": false,
      "t": 266713.6141374999,
      "d": 143.18180625000969,
      "v": 55
    },
    {
      "midi": 60,
      "hit": false,
      "t": 266727.250499999,
      "d": 261.36361458332976,
      "v": 56
    },
    {
      "midi": 81,
      "hit": false,
      "t": 266727.25049999973,
      "d": 440.90905416669557,
      "v": 54
    },
    {
      "midi": 36,
      "hit": false,
      "t": 266729.5232270833,
      "d": 181.81816666666418,
      "v": 82
    },
    {
      "midi": 60,
      "hit": false,
      "t": 267268.15954583214,
      "d": 3186.363370833278,
      "v": 89
    },
    {
      "midi": 39,
      "hit": false,
      "t": 267268.15954583324,
      "d": 2024.9998312499956,
      "v": 87
    },
    {
      "midi": 60,
      "hit": false,
      "t": 267268.15954583336,
      "d": 3186.3633708333364,
      "v": 89
    },
    {
      "midi": 53,
      "hit": false,
      "t": 267272.70499999897,
      "d": 470.45450624998193,
      "v": 71
    },
    {
      "midi": 68,
      "hit": false,
      "t": 267272.7049999996,
      "d": 918.1817416666308,
      "v": 71
    },
    {
      "midi": 80,
      "hit": false,
      "t": 267272.7049999998,
      "d": 147.72726041666465,
      "v": 28
    },
    {
      "midi": 36,
      "hit": false,
      "t": 267272.70499999996,
      "d": 161.36362291668775,
      "v": 82
    },
    {
      "midi": 63,
      "hit": false,
      "t": 267277.25045416626,
      "d": 1113.6362708333181,
      "v": 68
    },
    {
      "midi": 42,
      "hit": false,
      "t": 267279.5231812499,
      "d": 147.72726041666465,
      "v": 45
    },
    {
      "midi": 60,
      "hit": false,
      "t": 267293.1595437496,
      "d": 802.2726604166673,
      "v": 65
    },
    {
      "midi": 80,
      "hit": false,
      "t": 267549.97770416643,
      "d": 177.27271250000922,
      "v": 39
    },
    {
      "midi": 81,
      "hit": false,
      "t": 267820.43222708313,
      "d": 459.0908708333154,
      "v": 47
    },
    {
      "midi": 42,
      "hit": false,
      "t": 267836.34131666657,
      "d": 140.9090791666531,
      "v": 51
    },
    {
      "midi": 65,
      "hit": false,
      "t": 268090.88674999896,
      "d": 529.5454104166711,
      "v": 78
    },
    {
      "midi": 68,
      "hit": false,
      "t": 268363.61399999895,
      "d": 259.0908875000314,
      "v": 80
    },
    {
      "midi": 53,
      "hit": false,
      "t": 268363.61399999895,
      "d": 343.18178958335193,
      "v": 62
    },
    {
      "midi": 80,
      "hit": false,
      "t": 268365.8867270831,
      "d": 124.99998958333163,
      "v": 32
    },
    {
      "midi": 42,
      "hit": false,
      "t": 268384.06854374986,
      "d": 147.72726041666465,
      "v": 45
    },
    {
      "midi": 80,
      "hit": false,
      "t": 268645.43215833313,
      "d": 159.09089583333116,
      "v": 28
    },
    {
      "midi": 65,
      "hit": false,
      "t": 268909.06849999895,
      "d": 313.63633750000736,
      "v": 51
    },
    {
      "midi": 81,
      "hit": false,
      "t": 268911.3412270831,
      "d": 454.54541666666046,
      "v": 47
    },
    {
      "midi": 42,
      "hit": false,
      "t": 268934.0684979165,
      "d": 127.27271666668821,
      "v": 45
    },
    {
      "midi": 65,
      "hit": false,
      "t": 269452.2502729162,
      "d": 1022.7271875000442,
      "v": 68
    },
    {
      "midi": 53,
      "hit": false,
      "t": 269454.52299999894,
      "d": 470.45450624998193,
      "v": 71
    },
    {
      "midi": 37,
      "hit": false,
      "t": 269454.523,
      "d": 152.2727145833196,
      "v": 114
    },
    {
      "midi": 70,
      "hit": false,
      "t": 269456.7957270829,
      "d": 993.1817354166997,
      "v": 81
    },
    {
      "midi": 80,
      "hit": false,
      "t": 269456.7957270831,
      "d": 134.09089791664155,
      "v": 39
    },
    {
      "midi": 62,
      "hit": false,
      "t": 269459.06845416623,
      "d": 852.2726562499884,
      "v": 60
    },
    {
      "midi": 42,
      "hit": false,
      "t": 269463.6139083332,
      "d": 136.36362499999814,
      "v": 45
    },
    {
      "midi": 38,
      "hit": false,
      "t": 269468.1593624999,
      "d": 2022.727104166639,
      "v": 79
    },
    {
      "midi": 80,
      "hit": false,
      "t": 269738.6138854164,
      "d": 147.72726041666465,
      "v": 32
    },
    {
      "midi": 81,
      "hit": false,
      "t": 269997.7047729164,
      "d": 459.0908708333154,
      "v": 56
    },
    {
      "midi": 42,
      "hit": false,
      "t": 270020.43204374984,
      "d": 145.45453333330806,
      "v": 45
    },
    {
      "midi": 60,
      "hit": false,
      "t": 270274.9774770822,
      "d": 718.1817583332886,
      "v": 70
    },
    {
      "midi": 60,
      "hit": false,
      "t": 270511.34109374875,
      "d": 290.90906666667433,
      "v": 84
    },
    {
      "midi": 60,
      "hit": false,
      "t": 270511.34109375003,
      "d": 290.90906666667433,
      "v": 91
    },
    {
      "midi": 80,
      "hit": false,
      "t": 270543.1592729164,
      "d": 124.99998958333163,
      "v": 39
    },
    {
      "midi": 65,
      "hit": false,
      "t": 270545.43199999887,
      "d": 470.45450624998193,
      "v": 59
    },
    {
      "midi": 42,
      "hit": false,
      "t": 270554.52290833317,
      "d": 138.63635208335472,
      "v": 45
    },
    {
      "midi": 58,
      "hit": false,
      "t": 270802.2501604154,
      "d": 254.54543333331821,
      "v": 97
    },
    {
      "midi": 58,
      "hit": false,
      "t": 270802.2501604167,
      "d": 254.54543333331821,
      "v": 97
    },
    {
      "midi": 80,
      "hit": false,
      "t": 270827.25015833304,
      "d": 143.18180625000969,
      "v": 28
    },
    {
      "midi": 56,
      "hit": false,
      "t": 271056.79559374874,
      "d": 252.27270625001984,
      "v": 82
    },
    {
      "midi": 56,
      "hit": false,
      "t": 271056.79559375,
      "d": 252.27270625001984,
      "v": 89
    },
    {
      "midi": 60,
      "hit": false,
      "t": 271090.88649999886,
      "d": 261.36361458332976,
      "v": 56
    },
    {
      "midi": 42,
      "hit": false,
      "t": 271090.88649999985,
      "d": 147.72726041666465,
      "v": 45
    },
    {
      "midi": 81,
      "hit": false,
      "t": 271095.4319541664,
      "d": 445.45450833335053,
      "v": 50
    },
    {
      "midi": 58,
      "hit": false,
      "t": 271309.06829999876,
      "d": 281.8181583333062,
      "v": 84
    },
    {
      "midi": 58,
      "hit": false,
      "t": 271309.06830000004,
      "d": 281.8181583333062,
      "v": 91
    },
    {
      "midi": 60,
      "hit": false,
      "t": 271590.88645833207,
      "d": 1065.9090020832955,
      "v": 77
    },
    {
      "midi": 60,
      "hit": false,
      "t": 271590.88645833335,
      "d": 1065.9090020833537,
      "v": 88
    },
    {
      "midi": 53,
      "hit": false,
      "t": 271636.34099999885,
      "d": 470.45450624998193,
      "v": 71
    },
    {
      "midi": 68,
      "hit": false,
      "t": 271636.3409999996,
      "d": 936.3635583334253,
      "v": 60
    },
    {
      "midi": 80,
      "hit": false,
      "t": 271636.3409999997,
      "d": 131.81817083334317,
      "v": 39
    },
    {
      "midi": 42,
      "hit": false,
      "t": 271636.34099999984,
      "d": 147.72726041666465,
      "v": 45
    },
    {
      "midi": 36,
      "hit": false,
      "t": 271636.34099999996,
      "d": 190.9090749999741,
      "v": 81
    },
    {
      "midi": 72,
      "hit": false,
      "t": 271638.61372708296,
      "d": 934.0908312500687,
      "v": 63
    },
    {
      "midi": 37,
      "hit": false,
      "t": 271638.6137270832,
      "d": 2120.4543687499827,
      "v": 75
    },
    {
      "midi": 65,
      "hit": false,
      "t": 271656.79554374964,
      "d": 738.6363020833815,
      "v": 53
    },
    {
      "midi": 80,
      "hit": false,
      "t": 271915.88643124973,
      "d": 140.9090791666531,
      "v": 28
    },
    {
      "midi": 53,
      "hit": false,
      "t": 272181.79549999884,
      "d": 340.90906249999534,
      "v": 67
    },
    {
      "midi": 81,
      "hit": false,
      "t": 272181.7954999997,
      "d": 415.90905625000596,
      "v": 51
    },
    {
      "midi": 42,
      "hit": false,
      "t": 272202.2500437498,
      "d": 140.9090791666531,
      "v": 54
    },
    {
      "midi": 60,
      "hit": false,
      "t": 272454.52274999884,
      "d": 529.5454104166711,
      "v": 78
    },
    {
      "midi": 56,
      "hit": false,
      "t": 272656.79546041536,
      "d": 479.54541458335007,
      "v": 76
    },
    {
      "midi": 56,
      "hit": false,
      "t": 272656.7954604167,
      "d": 479.54541458335007,
      "v": 87
    },
    {
      "midi": 80,
      "hit": false,
      "t": 272724.9772729164,
      "d": 129.5454437499866,
      "v": 39
    },
    {
      "midi": 53,
      "hit": false,
      "t": 272727.24999999884,
      "d": 343.18178958335193,
      "v": 62
    },
    {
      "midi": 42,
      "hit": false,
      "t": 272759.06817916647,
      "d": 159.09089583333116,
      "v": 45
    },
    {
      "midi": 65,
      "hit": false,
      "t": 272999.97724999883,
      "d": 259.0908875000314,
      "v": 80
    },
    {
      "midi": 80,
      "hit": false,
      "t": 273011.3408854164,
      "d": 129.5454437499866,
      "v": 36
    },
    {
      "midi": 56,
      "hit": false,
      "t": 273206.79541458207,
      "d": 2074.9998270832584,
      "v": 89
    },
    {
      "midi": 56,
      "hit": false,
      "t": 273206.7954145834,
      "d": 2074.9998270833166,
      "v": 89
    },
    {
      "midi": 81,
      "hit": false,
      "t": 273270.43177291634,
      "d": 436.3635999999824,
      "v": 49
    },
    {
      "midi": 53,
      "hit": false,
      "t": 273272.7044999989,
      "d": 313.63633750000736,
      "v": 51
    },
    {
      "midi": 42,
      "hit": false,
      "t": 273277.2499541665,
      "d": 163.63634999998612,
      "v": 45
    },
    {
      "midi": 60,
      "hit": false,
      "t": 273545.4317499989,
      "d": 268.1817958333413,
      "v": 62
    },
    {
      "midi": 80,
      "hit": false,
      "t": 273813.613545833,
      "d": 131.81817083334317,
      "v": 36
    },
    {
      "midi": 60,
      "hit": false,
      "t": 273815.88627291634,
      "d": 886.3635624999879,
      "v": 58
    },
    {
      "midi": 63,
      "hit": false,
      "t": 273815.88627291634,
      "d": 886.3635624999879,
      "v": 58
    },
    {
      "midi": 37,
      "hit": false,
      "t": 273815.88627291657,
      "d": 165.9090770833427,
      "v": 108
    },
    {
      "midi": 56,
      "hit": false,
      "t": 273820.43172708224,
      "d": 718.1817583333468,
      "v": 56
    },
    {
      "midi": 68,
      "hit": false,
      "t": 273822.70445416635,
      "d": 715.9090312499902,
      "v": 50
    },
    {
      "midi": 42,
      "hit": false,
      "t": 273829.5226354165,
      "d": 147.72726041666465,
      "v": 45
    },
    {
      "midi": 36,
      "hit": false,
      "t": 273847.70445208316,
      "d": 1984.0907437499845,
      "v": 79
    },
    {
      "midi": 80,
      "hit": false,
      "t": 274097.70443124964,
      "d": 136.36362499999814,
      "v": 36
    },
    {
      "midi": 51,
      "hit": false,
      "t": 274363.61349999893,
      "d": 470.45450624998193,
      "v": 71
    },
    {
      "midi": 81,
      "hit": false,
      "t": 274368.1589541663,
      "d": 434.090872916684,
      "v": 53
    },
    {
      "midi": 42,
      "hit": false,
      "t": 274379.5225895831,
      "d": 156.81816874997457,
      "v": 45
    },
    {
      "midi": 65,
      "hit": false,
      "t": 274897.70436458226,
      "d": 499.9999583333265,
      "v": 84
    },
    {
      "midi": 68,
      "hit": false,
      "t": 274909.0679999989,
      "d": 470.45450624998193,
      "v": 73
    },
    {
      "midi": 80,
      "hit": false,
      "t": 274911.340727083,
      "d": 122.72726249997504,
      "v": 39
    },
    {
      "midi": 42,
      "hit": false,
      "t": 274927.2498166664,
      "d": 143.18180625000969,
      "v": 47
    },
    {
      "midi": 80,
      "hit": false,
      "t": 275193.1588854163,
      "d": 120.45453541667666,
      "v": 28
    },
    {
      "midi": 58,
      "hit": false,
      "t": 275281.7952416653,
      "d": 313.63633750000736,
      "v": 95
    },
    {
      "midi": 58,
      "hit": false,
      "t": 275281.7952416667,
      "d": 313.63633750000736,
      "v": 95
    },
    {
      "midi": 81,
      "hit": false,
      "t": 275454.5224999996,
      "d": 431.81814583332743,
      "v": 54
    },
    {
      "midi": 42,
      "hit": false,
      "t": 275456.7952270831,
      "d": 145.45453333330806,
      "v": 51
    },
    {
      "midi": 36,
      "hit": false,
      "t": 275456.79522708326,
      "d": 190.9090749999741,
      "v": 81
    },
    {
      "midi": 60,
      "hit": false,
      "t": 275595.43157916534,
      "d": 343.18178958335193,
      "v": 84
    },
    {
      "midi": 60,
      "hit": false,
      "t": 275595.43157916673,
      "d": 343.18178958335193,
      "v": 84
    },
    {
      "midi": 61,
      "hit": false,
      "t": 275938.6133687487,
      "d": 1147.7271770833177,
      "v": 102
    },
    {
      "midi": 61,
      "hit": false,
      "t": 275938.6133687501,
      "d": 1147.7271770833177,
      "v": 102
    },
    {
      "midi": 34,
      "hit": false,
      "t": 275968.15882083314,
      "d": 2068.181645833305,
      "v": 83
    },
    {
      "midi": 53,
      "hit": false,
      "t": 275999.9769999989,
      "d": 470.45450624998193,
      "v": 71
    },
    {
      "midi": 68,
      "hit": false,
      "t": 275999.97699999966,
      "d": 936.3635583334253,
      "v": 60
    },
    {
      "midi": 36,
      "hit": false,
      "t": 275999.9769999999,
      "d": 170.45453124999767,
      "v": 81
    },
    {
      "midi": 80,
      "hit": false,
      "t": 276002.24972708296,
      "d": 140.9090791666531,
      "v": 39
    },
    {
      "midi": 61,
      "hit": false,
      "t": 276002.249727083,
      "d": 934.0908312500687,
      "v": 63
    },
    {
      "midi": 42,
      "hit": false,
      "t": 276009.06790833303,
      "d": 154.5454416666762,
      "v": 54
    },
    {
      "midi": 65,
      "hit": false,
      "t": 276020.4315437497,
      "d": 738.6363020833815,
      "v": 53
    },
    {
      "midi": 80,
      "hit": false,
      "t": 276281.79515833297,
      "d": 129.5454437499866,
      "v": 28
    },
    {
      "midi": 81,
      "hit": false,
      "t": 276545.4314999996,
      "d": 452.2726895833621,
      "v": 47
    },
    {
      "midi": 42,
      "hit": false,
      "t": 276547.704227083,
      "d": 154.5454416666762,
      "v": 45
    },
    {
      "midi": 60,
      "hit": false,
      "t": 277086.340545832,
      "d": 1109.0908166666632,
      "v": 107
    },
    {
      "midi": 60,
      "hit": false,
      "t": 277086.3405458334,
      "d": 1109.0908166666632,
      "v": 107
    },
    {
      "midi": 56,
      "hit": false,
      "t": 277090.8859999989,
      "d": 68.18181249999907,
      "v": 62
    },
    {
      "midi": 65,
      "hit": false,
      "t": 277090.8859999989,
      "d": 529.5454104166711,
      "v": 78
    },
    {
      "midi": 80,
      "hit": false,
      "t": 277090.88599999965,
      "d": 124.99998958333163,
      "v": 32
    },
    {
      "midi": 42,
      "hit": false,
      "t": 277104.5223624997,
      "d": 134.09089791664155,
      "v": 45
    },
    {
      "midi": 53,
      "hit": false,
      "t": 277363.6132499989,
      "d": 268.1817958333413,
      "v": 62
    },
    {
      "midi": 80,
      "hit": false,
      "t": 277368.1587041663,
      "d": 143.18180625000969,
      "v": 32
    },
    {
      "midi": 42,
      "hit": false,
      "t": 277622.7041374996,
      "d": 143.18180625000969,
      "v": 45
    },
    {
      "midi": 81,
      "hit": false,
      "t": 277634.0677729163,
      "d": 434.090872916684,
      "v": 47
    },
    {
      "midi": 63,
      "hit": false,
      "t": 277636.3404999989,
      "d": 313.63633750000736,
      "v": 51
    },
    {
      "midi": 39,
      "hit": false,
      "t": 278154.52227499976,
      "d": 954.545374999987,
      "v": 78
    },
    {
      "midi": 56,
      "hit": false,
      "t": 278156.7950020822,
      "d": 354.545424999902,
      "v": 50
    },
    {
      "midi": 60,
      "hit": false,
      "t": 278165.8859104155,
      "d": 243.1817979165935,
      "v": 70
    },
    {
      "midi": 42,
      "hit": false,
      "t": 278168.1586374996,
      "d": 138.63635208335472,
      "v": 45
    },
    {
      "midi": 80,
      "hit": false,
      "t": 278184.067727083,
      "d": 111.36362708330853,
      "v": 32
    },
    {
      "midi": 37,
      "hit": false,
      "t": 278184.0677270832,
      "d": 147.72726041666465,
      "v": 102
    },
    {
      "midi": 65,
      "hit": false,
      "t": 278186.3404541655,
      "d": 213.63634583330713,
      "v": 89
    },
    {
      "midi": 56,
      "hit": false,
      "t": 278195.43136249867,
      "d": 1095.45445416664,
      "v": 99
    },
    {
      "midi": 56,
      "hit": false,
      "t": 278195.43136250007,
      "d": 1095.45445416664,
      "v": 99
    },
    {
      "midi": 80,
      "hit": false,
      "t": 278463.61315833294,
      "d": 131.81817083334317,
      "v": 32
    },
    {
      "midi": 81,
      "hit": false,
      "t": 278722.704045833,
      "d": 447.7272354166489,
      "v": 54
    },
    {
      "midi": 42,
      "hit": false,
      "t": 278749.97677083296,
      "d": 143.18180625000969,
      "v": 45
    },
    {
      "midi": 58,
      "hit": false,
      "t": 279249.9767291654,
      "d": 263.63634166662814,
      "v": 50
    },
    {
      "midi": 64,
      "hit": false,
      "t": 279268.1585458321,
      "d": 261.36361458327156,
      "v": 56
    },
    {
      "midi": 80,
      "hit": false,
      "t": 279272.7039999996,
      "d": 129.5454437499866,
      "v": 39
    },
    {
      "midi": 67,
      "hit": false,
      "t": 279272.70399999974,
      "d": 663.6363083333708,
      "v": 58
    },
    {
      "midi": 64,
      "hit": false,
      "t": 279274.9767270831,
      "d": 661.3635812500142,
      "v": 61
    },
    {
      "midi": 67,
      "hit": false,
      "t": 279277.2494541654,
      "d": 261.36361458327156,
      "v": 77
    },
    {
      "midi": 42,
      "hit": false,
      "t": 279286.34036249964,
      "d": 147.72726041666465,
      "v": 47
    },
    {
      "midi": 58,
      "hit": false,
      "t": 279290.8858166653,
      "d": 1081.818091666617,
      "v": 99
    },
    {
      "midi": 58,
      "hit": false,
      "t": 279290.8858166667,
      "d": 1081.8180916666752,
      "v": 99
    },
    {
      "midi": 70,
      "hit": false,
      "t": 279293.15854374977,
      "d": 465.90905208332697,
      "v": 51
    },
    {
      "midi": 40,
      "hit": false,
      "t": 279293.15854374977,
      "d": 886.3635624999879,
      "v": 74
    },
    {
      "midi": 80,
      "hit": false,
      "t": 279554.5221583329,
      "d": 124.99998958333163,
      "v": 39
    },
    {
      "midi": 42,
      "hit": false,
      "t": 279815.8857729163,
      "d": 140.9090791666531,
      "v": 45
    },
    {
      "midi": 81,
      "hit": false,
      "t": 279820.4312270829,
      "d": 452.2726895833621,
      "v": 47
    },
    {
      "midi": 60,
      "hit": false,
      "t": 280361.3402729164,
      "d": 1484.0907854167162,
      "v": 63
    },
    {
      "midi": 53,
      "hit": false,
      "t": 280363.6129999987,
      "d": 470.45450624998193,
      "v": 71
    },
    {
      "midi": 68,
      "hit": false,
      "t": 280363.6129999998,
      "d": 918.181741666689,
      "v": 71
    },
    {
      "midi": 41,
      "hit": false,
      "t": 280363.6129999998,
      "d": 2024.9998312499956,
      "v": 81
    },
    {
      "midi": 36,
      "hit": false,
      "t": 280363.6129999999,
      "d": 154.5454416666762,
      "v": 87
    },
    {
      "midi": 80,
      "hit": false,
      "t": 280365.88572708296,
      "d": 111.36362708330853,
      "v": 39
    },
    {
      "midi": 65,
      "hit": false,
      "t": 280365.88572708314,
      "d": 1036.3635500000091,
      "v": 60
    },
    {
      "midi": 60,
      "hit": false,
      "t": 280372.7039083319,
      "d": 1070.4544562500087,
      "v": 98
    },
    {
      "midi": 60,
      "hit": false,
      "t": 280372.7039083334,
      "d": 1070.4544562500087,
      "v": 98
    },
    {
      "midi": 42,
      "hit": false,
      "t": 280386.340270833,
      "d": 152.2727145833196,
      "v": 55
    },
    {
      "midi": 80,
      "hit": false,
      "t": 280647.70388541627,
      "d": 152.2727145833196,
      "v": 32
    },
    {
      "midi": 53,
      "hit": false,
      "t": 280909.06749999867,
      "d": 340.90906249999534,
      "v": 67
    },
    {
      "midi": 81,
      "hit": false,
      "t": 280909.0674999996,
      "d": 456.81814375001704,
      "v": 50
    },
    {
      "midi": 42,
      "hit": false,
      "t": 280913.6129541663,
      "d": 154.5454416666762,
      "v": 45
    },
    {
      "midi": 60,
      "hit": false,
      "t": 281181.79474999866,
      "d": 529.5454104166711,
      "v": 78
    },
    {
      "midi": 65,
      "hit": false,
      "t": 281443.15836458193,
      "d": 1131.8180874999962,
      "v": 95
    },
    {
      "midi": 65,
      "hit": false,
      "t": 281443.1583645834,
      "d": 1131.8180874999962,
      "v": 92
    },
    {
      "midi": 53,
      "hit": false,
      "t": 281454.52199999866,
      "d": 343.18178958335193,
      "v": 62
    },
    {
      "midi": 80,
      "hit": false,
      "t": 281454.5219999996,
      "d": 143.18180625000969,
      "v": 32
    },
    {
      "midi": 42,
      "hit": false,
      "t": 281461.34018124966,
      "d": 131.81817083334317,
      "v": 45
    },
    {
      "midi": 65,
      "hit": false,
      "t": 281727.24924999865,
      "d": 259.0908875000314,
      "v": 80
    },
    {
      "midi": 80,
      "hit": false,
      "t": 281731.79470416624,
      "d": 193.1818020833307,
      "v": 39
    },
    {
      "midi": 53,
      "hit": false,
      "t": 281999.9764999987,
      "d": 313.63633750000736,
      "v": 51
    },
    {
      "midi": 81,
      "hit": false,
      "t": 282002.2492270829,
      "d": 415.90905625000596,
      "v": 57
    },
    {
      "midi": 42,
      "hit": false,
      "t": 282002.249227083,
      "d": 147.72726041666465,
      "v": 45
    },
    {
      "midi": 60,
      "hit": false,
      "t": 282272.7037499987,
      "d": 268.1817958333413,
      "v": 62
    },
    {
      "midi": 42,
      "hit": false,
      "t": 282540.885545833,
      "d": 138.63635208335472,
      "v": 47
    },
    {
      "midi": 52,
      "hit": false,
      "t": 282545.4309999987,
      "d": 470.45450624998193,
      "v": 71
    },
    {
      "midi": 80,
      "hit": false,
      "t": 282545.4309999996,
      "d": 136.36362499999814,
      "v": 39
    },
    {
      "midi": 68,
      "hit": false,
      "t": 282545.4309999998,
      "d": 918.1817416666308,
      "v": 71
    },
    {
      "midi": 64,
      "hit": false,
      "t": 282545.4309999998,
      "d": 1070.4544562499505,
      "v": 68
    },
    {
      "midi": 40,
      "hit": false,
      "t": 282547.7037270831,
      "d": 2013.636195833329,
      "v": 80
    },
    {
      "midi": 37,
      "hit": false,
      "t": 282547.7037270832,
      "d": 127.27271666668821,
      "v": 102
    },
    {
      "midi": 67,
      "hit": false,
      "t": 282574.97645208193,
      "d": 1106.8180895833066,
      "v": 93
    },
    {
      "midi": 67,
      "hit": false,
      "t": 282574.9764520834,
      "d": 1106.8180895833066,
      "v": 100
    },
    {
      "midi": 60,
      "hit": false,
      "t": 282588.6128145831,
      "d": 802.2726604166673,
      "v": 65
    },
    {
      "midi": 80,
      "hit": false,
      "t": 282829.52188541624,
      "d": 195.45452916668728,
      "v": 39
    },
    {
      "midi": 42,
      "hit": false,
      "t": 283086.34004583297,
      "d": 143.18180625000969,
      "v": 45
    },
    {
      "midi": 52,
      "hit": false,
      "t": 283090.8854999987,
      "d": 340.90906249999534,
      "v": 67
    },
    {
      "midi": 81,
      "hit": false,
      "t": 283090.88549999957,
      "d": 449.9999625000055,
      "v": 62
    },
    {
      "midi": 60,
      "hit": false,
      "t": 283363.6127499987,
      "d": 529.5454104166711,
      "v": 78
    },
    {
      "midi": 42,
      "hit": false,
      "t": 283629.52181874966,
      "d": 136.36362499999814,
      "v": 45
    },
    {
      "midi": 52,
      "hit": false,
      "t": 283636.3399999987,
      "d": 343.18178958335193,
      "v": 62
    },
    {
      "midi": 80,
      "hit": false,
      "t": 283640.8854541662,
      "d": 140.9090791666531,
      "v": 39
    },
    {
      "midi": 68,
      "hit": false,
      "t": 283681.79454166524,
      "d": 556.8181354166591,
      "v": 96
    },
    {
      "midi": 68,
      "hit": false,
      "t": 283681.7945416667,
      "d": 556.8181354166591,
      "v": 96
    },
    {
      "midi": 64,
      "hit": false,
      "t": 283897.703614582,
      "d": 259.0908875000314,
      "v": 80
    },
    {
      "midi": 80,
      "hit": false,
      "t": 283913.6127041662,
      "d": 193.1818020833307,
      "v": 39
    },
    {
      "midi": 42,
      "hit": false,
      "t": 284168.15813749965,
      "d": 143.18180625000969,
      "v": 55
    },
    {
      "midi": 52,
      "hit": false,
      "t": 284181.79449999874,
      "d": 313.63633750000736,
      "v": 51
    },
    {
      "midi": 36,
      "hit": false,
      "t": 284181.7944999999,
      "d": 165.9090770833427,
      "v": 81
    },
    {
      "midi": 81,
      "hit": false,
      "t": 284184.06722708285,
      "d": 440.90905416669557,
      "v": 54
    },
    {
      "midi": 70,
      "hit": false,
      "t": 284188.6126812486,
      "d": 1518.1816916666576,
      "v": 104
    },
    {
      "midi": 70,
      "hit": false,
      "t": 284188.61268125003,
      "d": 1518.1816916666576,
      "v": 104
    },
    {
      "midi": 60,
      "hit": false,
      "t": 284454.52174999873,
      "d": 268.1817958333413,
      "v": 62
    },
    {
      "midi": 80,
      "hit": false,
      "t": 284722.7035458329,
      "d": 147.72726041666465,
      "v": 28
    },
    {
      "midi": 36,
      "hit": false,
      "t": 284724.9762729166,
      "d": 165.9090770833427,
      "v": 81
    },
    {
      "midi": 51,
      "hit": false,
      "t": 284727.24899999873,
      "d": 470.45450624998193,
      "v": 71
    },
    {
      "midi": 68,
      "hit": false,
      "t": 284727.2489999998,
      "d": 918.1817416666308,
      "v": 71
    },
    {
      "midi": 39,
      "hit": false,
      "t": 284727.2489999998,
      "d": 2024.9998312499956,
      "v": 78
    },
    {
      "midi": 63,
      "hit": false,
      "t": 284731.79445416643,
      "d": 1113.6362708333181,
      "v": 68
    },
    {
      "midi": 42,
      "hit": false,
      "t": 284734.0671812497,
      "d": 147.72726041666465,
      "v": 45
    },
    {
      "midi": 60,
      "hit": false,
      "t": 284747.70354374975,
      "d": 802.2726604166673,
      "v": 65
    },
    {
      "midi": 80,
      "hit": false,
      "t": 285011.3398854162,
      "d": 177.27271250000922,
      "v": 39
    },
    {
      "midi": 51,
      "hit": false,
      "t": 285272.7034999987,
      "d": 340.90906249999534,
      "v": 67
    },
    {
      "midi": 81,
      "hit": false,
      "t": 285272.70349999954,
      "d": 459.0908708333154,
      "v": 47
    },
    {
      "midi": 42,
      "hit": false,
      "t": 285290.88531666633,
      "d": 140.9090791666531,
      "v": 51
    },
    {
      "midi": 60,
      "hit": false,
      "t": 285545.4307499987,
      "d": 529.5454104166711,
      "v": 78
    },
    {
      "midi": 68,
      "hit": false,
      "t": 285706.79437291523,
      "d": 1634.090772916621,
      "v": 102
    },
    {
      "midi": 68,
      "hit": false,
      "t": 285706.7943729167,
      "d": 1634.0907729166793,
      "v": 102
    },
    {
      "midi": 51,
      "hit": false,
      "t": 285818.1579999987,
      "d": 343.18178958335193,
      "v": 62
    },
    {
      "midi": 80,
      "hit": false,
      "t": 285818.15799999953,
      "d": 124.99998958333163,
      "v": 32
    },
    {
      "midi": 42,
      "hit": false,
      "t": 285838.6125437496,
      "d": 147.72726041666465,
      "v": 45
    },
    {
      "midi": 65,
      "hit": false,
      "t": 286090.8852499987,
      "d": 259.0908875000314,
      "v": 80
    },
    {
      "midi": 80,
      "hit": false,
      "t": 286102.2488854162,
      "d": 159.09089583333116,
      "v": 28
    },
    {
      "midi": 81,
      "hit": false,
      "t": 286361.33977291617,
      "d": 454.54541666666046,
      "v": 47
    },
    {
      "midi": 51,
      "hit": false,
      "t": 286363.61249999877,
      "d": 313.63633750000736,
      "v": 51
    },
    {
      "midi": 42,
      "hit": false,
      "t": 286388.61249791627,
      "d": 127.27271666668821,
      "v": 45
    },
    {
      "midi": 60,
      "hit": false,
      "t": 286636.33974999876,
      "d": 268.1817958333413,
      "v": 62
    },
    {
      "midi": 80,
      "hit": false,
      "t": 286904.5215458328,
      "d": 134.09089791664155,
      "v": 39
    },
    {
      "midi": 65,
      "hit": false,
      "t": 286906.7942729164,
      "d": 1022.7271875000442,
      "v": 68
    },
    {
      "midi": 50,
      "hit": false,
      "t": 286909.06699999876,
      "d": 470.45450624998193,
      "v": 71
    },
    {
      "midi": 37,
      "hit": false,
      "t": 286909.0669999999,
      "d": 138.63635208335472,
      "v": 89
    },
    {
      "midi": 70,
      "hit": false,
      "t": 286911.33972708305,
      "d": 993.1817354166997,
      "v": 81
    },
    {
      "midi": 62,
      "hit": false,
      "t": 286913.6124541664,
      "d": 852.2726562499884,
      "v": 60
    },
    {
      "midi": 38,
      "hit": false,
      "t": 286915.88518124976,
      "d": 2022.727104166639,
      "v": 79
    },
    {
      "midi": 42,
      "hit": false,
      "t": 286918.15790833294,
      "d": 136.36362499999814,
      "v": 45
    },
    {
      "midi": 80,
      "hit": false,
      "t": 287188.61243124946,
      "d": 147.72726041666465,
      "v": 32
    },
    {
      "midi": 67,
      "hit": false,
      "t": 287429.5215020818,
      "d": 604.5454041666817,
      "v": 100
    },
    {
      "midi": 67,
      "hit": false,
      "t": 287429.52150208334,
      "d": 604.5454041666817,
      "v": 100
    },
    {
      "midi": 50,
      "hit": false,
      "t": 287454.52149999875,
      "d": 340.90906249999534,
      "v": 67
    },
    {
      "midi": 81,
      "hit": false,
      "t": 287454.52149999945,
      "d": 459.0908708333154,
      "v": 56
    },
    {
      "midi": 42,
      "hit": false,
      "t": 287474.9760437496,
      "d": 145.45453333330806,
      "v": 45
    },
    {
      "midi": 60,
      "hit": false,
      "t": 287727.24874999875,
      "d": 529.5454104166711,
      "v": 78
    },
    {
      "midi": 65,
      "hit": false,
      "t": 287999.97599999874,
      "d": 259.0908875000314,
      "v": 80
    },
    {
      "midi": 50,
      "hit": false,
      "t": 287999.97599999874,
      "d": 343.18178958335193,
      "v": 62
    },
    {
      "midi": 80,
      "hit": false,
      "t": 288002.24872708274,
      "d": 124.99998958333163,
      "v": 39
    },
    {
      "midi": 42,
      "hit": false,
      "t": 288009.0669083329,
      "d": 138.63635208335472,
      "v": 45
    },
    {
      "midi": 68,
      "hit": false,
      "t": 288034.0669062485,
      "d": 511.363593749993,
      "v": 99
    },
    {
      "midi": 68,
      "hit": false,
      "t": 288034.06690625,
      "d": 511.363593749993,
      "v": 99
    },
    {
      "midi": 80,
      "hit": false,
      "t": 288284.06688541605,
      "d": 143.18180625000969,
      "v": 28
    },
    {
      "midi": 72,
      "hit": false,
      "t": 288545.4304999985,
      "d": 2097.7270979166497,
      "v": 105
    },
    {
      "midi": 50,
      "hit": false,
      "t": 288545.43049999874,
      "d": 313.63633750000736,
      "v": 51
    },
    {
      "midi": 42,
      "hit": false,
      "t": 288545.4304999996,
      "d": 147.72726041666465,
      "v": 45
    },
    {
      "midi": 72,
      "hit": false,
      "t": 288545.4305,
      "d": 2097.7270979166497,
      "v": 105
    },
    {
      "midi": 81,
      "hit": false,
      "t": 288549.97595416603,
      "d": 445.45450833335053,
      "v": 50
    },
    {
      "midi": 60,
      "hit": false,
      "t": 288818.15774999873,
      "d": 268.1817958333413,
      "v": 62
    },
    {
      "midi": 37,
      "hit": false,
      "t": 289063.61227499973,
      "d": 2572.7270583333448,
      "v": 82
    },
    {
      "midi": 80,
      "hit": false,
      "t": 289088.61227291607,
      "d": 131.81817083334317,
      "v": 39
    },
    {
      "midi": 56,
      "hit": false,
      "t": 289090.8849999987,
      "d": 470.45450624998193,
      "v": 71
    },
    {
      "midi": 42,
      "hit": false,
      "t": 289090.8849999996,
      "d": 147.72726041666465,
      "v": 45
    },
    {
      "midi": 68,
      "hit": false,
      "t": 289090.8849999998,
      "d": 2349.9998041666113,
      "v": 62
    },
    {
      "midi": 65,
      "hit": false,
      "t": 289090.8849999998,
      "d": 2354.5452583332662,
      "v": 56
    },
    {
      "midi": 72,
      "hit": false,
      "t": 289093.15772708313,
      "d": 2338.6361687499448,
      "v": 56
    },
    {
      "midi": 36,
      "hit": false,
      "t": 289095.4304541666,
      "d": 170.45453124999767,
      "v": 81
    },
    {
      "midi": 80,
      "hit": false,
      "t": 289377.2486124994,
      "d": 140.9090791666531,
      "v": 28
    },
    {
      "midi": 61,
      "hit": false,
      "t": 289636.3394999987,
      "d": 340.90906249999534,
      "v": 67
    },
    {
      "midi": 81,
      "hit": false,
      "t": 289636.33949999936,
      "d": 415.90905625000596,
      "v": 51
    },
    {
      "midi": 42,
      "hit": false,
      "t": 289656.79404374957,
      "d": 140.9090791666531,
      "v": 54
    },
    {
      "midi": 65,
      "hit": false,
      "t": 289909.0667499987,
      "d": 529.5454104166711,
      "v": 78
    },
    {
      "midi": 56,
      "hit": false,
      "t": 290181.7939999987,
      "d": 343.18178958335193,
      "v": 62
    },
    {
      "midi": 80,
      "hit": false,
      "t": 290181.79399999935,
      "d": 129.5454437499866,
      "v": 39
    },
    {
      "midi": 42,
      "hit": false,
      "t": 290213.61217916623,
      "d": 159.09089583333116,
      "v": 45
    },
    {
      "midi": 68,
      "hit": false,
      "t": 290454.5212499987,
      "d": 259.0908875000314,
      "v": 80
    },
    {
      "midi": 80,
      "hit": false,
      "t": 290461.33943124936,
      "d": 129.5454437499866,
      "v": 36
    },
    {
      "midi": 68,
      "hit": false,
      "t": 290643.15759791515,
      "d": 306.8181562499958,
      "v": 88
    },
    {
      "midi": 68,
      "hit": false,
      "t": 290643.15759791667,
      "d": 306.8181562499958,
      "v": 88
    },
    {
      "midi": 65,
      "hit": false,
      "t": 290727.24849999876,
      "d": 313.63633750000736,
      "v": 51
    },
    {
      "midi": 81,
      "hit": false,
      "t": 290727.24849999935,
      "d": 436.3635999999824,
      "v": 49
    },
    {
      "midi": 42,
      "hit": false,
      "t": 290731.79395416623,
      "d": 163.63634999998612,
      "v": 45
    },
    {
      "midi": 65,
      "hit": false,
      "t": 290949.97575416515,
      "d": 309.0908833332942,
      "v": 77
    },
    {
      "midi": 65,
      "hit": false,
      "t": 290949.97575416666,
      "d": 309.0908833333524,
      "v": 77
    },
    {
      "midi": 61,
      "hit": false,
      "t": 290999.97574999876,
      "d": 268.1817958333413,
      "v": 62
    },
    {
      "midi": 68,
      "hit": false,
      "t": 291259.06663749844,
      "d": 2536.3634249999886,
      "v": 84
    },
    {
      "midi": 68,
      "hit": false,
      "t": 291259.0666375,
      "d": 2536.3634249999886,
      "v": 84
    },
    {
      "midi": 80,
      "hit": false,
      "t": 291270.430272916,
      "d": 131.81817083334317,
      "v": 36
    },
    {
      "midi": 56,
      "hit": false,
      "t": 291272.70299999876,
      "d": 470.45450624998193,
      "v": 71
    },
    {
      "midi": 37,
      "hit": false,
      "t": 291274.9757270833,
      "d": 152.2727145833196,
      "v": 84
    },
    {
      "midi": 42,
      "hit": false,
      "t": 291284.06663541624,
      "d": 147.72726041666465,
      "v": 45
    },
    {
      "midi": 80,
      "hit": false,
      "t": 291556.793885416,
      "d": 136.36362499999814,
      "v": 36
    },
    {
      "midi": 81,
      "hit": false,
      "t": 291818.15749999933,
      "d": 434.090872916684,
      "v": 53
    },
    {
      "midi": 61,
      "hit": false,
      "t": 291820.43022708205,
      "d": 718.1817583332886,
      "v": 70
    },
    {
      "midi": 42,
      "hit": false,
      "t": 291834.0665895829,
      "d": 156.81816874997457,
      "v": 45
    },
    {
      "midi": 32,
      "hit": false,
      "t": 291840.8847708331,
      "d": 522.7272291666595,
      "v": 78
    },
    {
      "midi": 65,
      "hit": false,
      "t": 292090.8847499987,
      "d": 499.9999583333265,
      "v": 70
    },
    {
      "midi": 68,
      "hit": false,
      "t": 292363.6119999987,
      "d": 470.45450624998193,
      "v": 59
    },
    {
      "midi": 80,
      "hit": false,
      "t": 292365.8847270827,
      "d": 122.72726249997504,
      "v": 39
    },
    {
      "midi": 42,
      "hit": false,
      "t": 292381.7938166662,
      "d": 143.18180625000969,
      "v": 47
    },
    {
      "midi": 37,
      "hit": false,
      "t": 292386.33927083306,
      "d": 556.8181354166591,
      "v": 80
    },
    {
      "midi": 80,
      "hit": false,
      "t": 292647.702885416,
      "d": 120.45453541667666,
      "v": 28
    },
    {
      "midi": 81,
      "hit": false,
      "t": 292906.793772916,
      "d": 431.81814583332743,
      "v": 54
    },
    {
      "midi": 65,
      "hit": false,
      "t": 292909.0664999987,
      "d": 261.36361458332976,
      "v": 56
    },
    {
      "midi": 36,
      "hit": false,
      "t": 292909.06649999996,
      "d": 184.09089375002077,
      "v": 81
    },
    {
      "midi": 42,
      "hit": false,
      "t": 292911.33922708285,
      "d": 145.45453333330806,
      "v": 51
    },
    {
      "midi": 41,
      "hit": false,
      "t": 292931.79377083306,
      "d": 499.9999583333265,
      "v": 81
    },
    {
      "midi": 61,
      "hit": false,
      "t": 293363.61191666534,
      "d": 470.45450625004014,
      "v": 71
    },
    {
      "midi": 65,
      "hit": false,
      "t": 293449.97554583306,
      "d": 1315.9089812499587,
      "v": 44
    },
    {
      "midi": 68,
      "hit": false,
      "t": 293454.5209999997,
      "d": 1272.7271666666493,
      "v": 46
    },
    {
      "midi": 61,
      "hit": false,
      "t": 293454.5209999997,
      "d": 1277.2726208333042,
      "v": 51
    },
    {
      "midi": 36,
      "hit": false,
      "t": 293454.52099999995,
      "d": 195.45452916668728,
      "v": 82
    },
    {
      "midi": 51,
      "hit": false,
      "t": 293454.52099999995,
      "d": 79.54544791666558,
      "v": 84
    },
    {
      "midi": 39,
      "hit": false,
      "t": 293461.3391812497,
      "d": 4084.090568749991,
      "v": 81
    },
    {
      "midi": 65,
      "hit": false,
      "t": 293477.248270832,
      "d": 313.63633750000736,
      "v": 51
    },
    {
      "midi": 68,
      "hit": false,
      "t": 293545.430083332,
      "d": 259.0908875000314,
      "v": 80
    },
    {
      "midi": 51,
      "hit": false,
      "t": 293549.97553749994,
      "d": 79.54544791666558,
      "v": 48
    },
    {
      "midi": 51,
      "hit": false,
      "t": 293656.7937104166,
      "d": 79.54544791666558,
      "v": 44
    },
    {
      "midi": 70,
      "hit": false,
      "t": 293659.06643749867,
      "d": 343.18178958335193,
      "v": 62
    },
    {
      "midi": 51,
      "hit": false,
      "t": 293774.9755187499,
      "d": 79.54544791666558,
      "v": 44
    },
    {
      "midi": 51,
      "hit": false,
      "t": 293920.4300520832,
      "d": 79.54544791666558,
      "v": 42
    },
    {
      "midi": 51,
      "hit": false,
      "t": 294036.33913333324,
      "d": 79.54544791666558,
      "v": 36
    },
    {
      "midi": 51,
      "hit": false,
      "t": 294159.0663958332,
      "d": 79.54544791666558,
      "v": 34
    },
    {
      "midi": 51,
      "hit": false,
      "t": 294274.97547708324,
      "d": 79.54544791666558,
      "v": 32
    },
    {
      "midi": 51,
      "hit": false,
      "t": 294379.5209229166,
      "d": 79.54544791666558,
      "v": 28
    },
    {
      "midi": 51,
      "hit": false,
      "t": 294474.9754604166,
      "d": 79.54544791666558,
      "v": 24
    },
    {
      "midi": 56,
      "hit": false,
      "t": 294563.6118166651,
      "d": 1570.454414583277,
      "v": 96
    },
    {
      "midi": 56,
      "hit": false,
      "t": 294563.6118166667,
      "d": 1570.4544145833352,
      "v": 96
    },
    {
      "midi": 51,
      "hit": false,
      "t": 294584.0663604166,
      "d": 79.54544791666558,
      "v": 22
    },
    {
      "midi": 51,
      "hit": false,
      "t": 294699.9754416666,
      "d": 79.54544791666558,
      "v": 22
    },
    {
      "midi": 51,
      "hit": false,
      "t": 294831.79361249995,
      "d": 79.54544791666558,
      "v": 20
    },
    {
      "midi": 51,
      "hit": false,
      "t": 294943.15723958326,
      "d": 79.54544791666558,
      "v": 20
    },
    {
      "midi": 51,
      "hit": false,
      "t": 295056.7935937499,
      "d": 79.54544791666558,
      "v": 20
    },
    {
      "midi": 51,
      "hit": false,
      "t": 295170.4299479166,
      "d": 79.54544791666558,
      "v": 20
    },
    {
      "midi": 51,
      "hit": false,
      "t": 295304.52084583323,
      "d": 79.54544791666558,
      "v": 16
    },
    {
      "midi": 51,
      "hit": false,
      "t": 295413.61174583324,
      "d": 79.54544791666558,
      "v": 16
    },
    {
      "midi": 51,
      "hit": false,
      "t": 295531.79355416656,
      "d": 79.54544791666558,
      "v": 16
    },
    {
      "midi": 51,
      "hit": false,
      "t": 295677.2480874999,
      "d": 79.54544791666558,
      "v": 16
    },
    {
      "midi": 51,
      "hit": false,
      "t": 295793.1571687499,
      "d": 79.54544791666558,
      "v": 16
    },
    {
      "midi": 51,
      "hit": false,
      "t": 295915.88443124987,
      "d": 79.54544791666558,
      "v": 12
    },
    {
      "midi": 51,
      "hit": false,
      "t": 296029.52078541653,
      "d": 79.54544791666558,
      "v": 12
    },
    {
      "midi": 58,
      "hit": false,
      "t": 296134.0662312484,
      "d": 531.8181375000277,
      "v": 55
    },
    {
      "midi": 58,
      "hit": false,
      "t": 296134.06623125,
      "d": 531.8181375000277,
      "v": 55
    },
    {
      "midi": 51,
      "hit": false,
      "t": 296136.3389583332,
      "d": 79.54544791666558,
      "v": 12
    },
    {
      "midi": 51,
      "hit": false,
      "t": 296231.7934958332,
      "d": 79.54544791666558,
      "v": 12
    },
    {
      "midi": 56,
      "hit": false,
      "t": 296665.8843687484,
      "d": 540.9090458333376,
      "v": 55
    },
    {
      "midi": 56,
      "hit": false,
      "t": 296665.88436875003,
      "d": 540.9090458333376,
      "v": 55
    },
    {
      "midi": 60,
      "hit": false,
      "t": 297206.79341458174,
      "d": 7077.27213749988,
      "v": 61
    },
    {
      "midi": 60,
      "hit": false,
      "t": 297206.7934145834,
      "d": 7065.908502083272,
      "v": 61
    },
    {
      "midi": 55,
      "hit": false,
      "t": 297818.15699999925,
      "d": 6318.18129166658,
      "v": 74
    },
    {
      "midi": 57,
      "hit": false,
      "t": 297840.88427083276,
      "d": 6477.2721874999115,
      "v": 89
    },
    {
      "midi": 41,
      "hit": false,
      "t": 297909.0660833326,
      "d": 6181.817666666582,
      "v": 74
    },
    {
      "midi": 41,
      "hit": false,
      "t": 297977.24789583305,
      "d": 1413.6362458333024,
      "v": 50
    },
    {
      "midi": 29,
      "hit": false,
      "t": 297984.06607708306,
      "d": 6084.090402083297,
      "v": 67
    },
    {
      "midi": 53,
      "hit": false,
      "t": 298090.8842499997,
      "d": 1413.6362458333024,
      "v": 60
    },
    {
      "midi": 55,
      "hit": false,
      "t": 298159.0660624997,
      "d": 1413.6362458333024,
      "v": 46
    },
    {
      "midi": 57,
      "hit": false,
      "t": 298204.5206041664,
      "d": 1413.6362458333024,
      "v": 54
    },
    {
      "midi": 60,
      "hit": false,
      "t": 298295.4296874997,
      "d": 1413.6362458333024,
      "v": 56
    },
    {
      "midi": 53,
      "hit": false,
      "t": 298590.884208332,
      "d": 343.18178958335193,
      "v": 74
    },
    {
      "midi": 57,
      "hit": false,
      "t": 299045.42962499865,
      "d": 340.90906249999534,
      "v": 66
    },
    {
      "midi": 60,
      "hit": false,
      "t": 299340.884145832,
      "d": 529.5454104166711,
      "v": 84
    },
    {
      "midi": 65,
      "hit": false,
      "t": 300363.61133333197,
      "d": 259.0908874999732,
      "v": 84
    }
  ]
}