{
  "jsonPath": "Soundtracks/Video Game Music/Super Mario Bros/super-mario-bros-starman.json",
  "path": "Soundtracks\\Video Game Music\\Super Mario Bros\\Super_Mario_Bros_Starman.mid",
  "name": "Super_Mario_Bros_Starman",
  "difficulty": "Advanced",
  "bpm": 150,
  "notes": [
    {
      "midi": 65,
      "hit": false,
      "t": 0,
      "d": 95.83333333333333,
      "v": 110
    },
    {
      "midi": 72,
      "hit": false,
      "t": 0,
      "d": 95.83333333333333,
      "v": 110
    },
    {
      "midi": 50,
      "hit": false,
      "t": 0,
      "d": 95.83333333333333,
      "v": 110
    },
    {
      "midi": 65,
      "hit": false,
      "t": 200,
      "d": 95.83333333333331,
      "v": 110
    },
    {
      "midi": 72,
      "hit": false,
      "t": 200,
      "d": 95.83333333333331,
      "v": 110
    },
    {
      "midi": 65,
      "hit": false,
      "t": 400,
      "d": 95.83333333333331,
      "v": 110
    },
    {
      "midi": 72,
      "hit": false,
      "t": 400,
      "d": 95.83333333333331,
      "v": 110
    },
    {
      "midi": 57,
      "hit": false,
      "t": 400,
      "d": 95.83333333333331,
      "v": 110
    },
    {
      "midi": 62,
      "hit": false,
      "t": 600,
      "d": 95.83333333333337,
      "v": 110
    },
    {
      "midi": 65,
      "hit": false,
      "t": 700,
      "d": 95.83333333333337,
      "v": 110
    },
    {
      "midi": 72,
      "hit": false,
      "t": 700,
      "d": 95.83333333333337,
      "v": 110
    },
    {
      "midi": 62,
      "hit": false,
      "t": 700,
      "d": 95.83333333333337,
      "v": 110
    },
    {
      "midi": 65,
      "hit": false,
      "t": 900,
      "d": 95.83333333333337,
      "v": 110
    },
    {
      "midi": 72,
      "hit": false,
      "t": 900,
      "d": 95.83333333333337,
      "v": 110
    },
    {
      "midi": 62,
      "hit": false,
      "t": 1100,
      "d": 95.83333333333326,
      "v": 110
    },
    {
      "midi": 65,
      "hit": false,
      "t": 1200,
      "d": 95.83333333333326,
      "v": 110
    },
    {
      "midi": 72,
      "hit": false,
      "t": 1200,
      "d": 95.83333333333326,
      "v": 110
    },
    {
      "midi": 57,
      "hit": false,
      "t": 1200,
      "d": 95.83333333333326,
      "v": 110
    },
    {
      "midi": 62,
      "hit": false,
      "t": 1300,
      "d": 95.83333333333326,
      "v": 110
    },
    {
      "midi": 65,
      "hit": false,
      "t": 1400,
      "d": 95.83333333333326,
      "v": 110
    },
    {
      "midi": 72,
      "hit": false,
      "t": 1400,
      "d": 95.83333333333326,
      "v": 110
    },
    {
      "midi": 62,
      "hit": false,
      "t": 1400,
      "d": 95.83333333333326,
      "v": 110
    },
    {
      "midi": 64,
      "hit": false,
      "t": 1600,
      "d": 95.83333333333326,
      "v": 110
    },
    {
      "midi": 71,
      "hit": false,
      "t": 1600,
      "d": 95.83333333333326,
      "v": 110
    },
    {
      "midi": 48,
      "hit": false,
      "t": 1600,
      "d": 95.83333333333326,
      "v": 110
    },
    {
      "midi": 64,
      "hit": false,
      "t": 1800,
      "d": 95.83333333333326,
      "v": 110
    },
    {
      "midi": 71,
      "hit": false,
      "t": 1800,
      "d": 95.83333333333326,
      "v": 110
    },
    {
      "midi": 64,
      "hit": false,
      "t": 2000,
      "d": 95.83333333333348,
      "v": 110
    },
    {
      "midi": 71,
      "hit": false,
      "t": 2000,
      "d": 95.83333333333348,
      "v": 110
    },
    {
      "midi": 55,
      "hit": false,
      "t": 2000,
      "d": 95.83333333333348,
      "v": 110
    },
    {
      "midi": 60,
      "hit": false,
      "t": 2200,
      "d": 95.83333333333348,
      "v": 110
    },
    {
      "midi": 64,
      "hit": false,
      "t": 2300,
      "d": 95.83333333333348,
      "v": 110
    },
    {
      "midi": 71,
      "hit": false,
      "t": 2300,
      "d": 95.83333333333348,
      "v": 110
    },
    {
      "midi": 60,
      "hit": false,
      "t": 2300,
      "d": 95.83333333333348,
      "v": 110
    },
    {
      "midi": 64,
      "hit": false,
      "t": 2500,
      "d": 95.83333333333348,
      "v": 110
    },
    {
      "midi": 71,
      "hit": false,
      "t": 2500,
      "d": 95.83333333333348,
      "v": 110
    },
    {
      "midi": 60,
      "hit": false,
      "t": 2700,
      "d": 95.83333333333348,
      "v": 110
    },
    {
      "midi": 64,
      "hit": false,
      "t": 2800,
      "d": 95.83333333333348,
      "v": 110
    },
    {
      "midi": 71,
      "hit": false,
      "t": 2800,
      "d": 95.83333333333348,
      "v": 110
    },
    {
      "midi": 55,
      "hit": false,
      "t": 2800,
      "d": 95.83333333333348,
      "v": 110
    },
    {
      "midi": 60,
      "hit": false,
      "t": 2900,
      "d": 95.83333333333348,
      "v": 110
    },
    {
      "midi": 64,
      "hit": false,
      "t": 3000,
      "d": 95.83333333333348,
      "v": 110
    },
    {
      "midi": 71,
      "hit": false,
      "t": 3000,
      "d": 95.83333333333348,
      "v": 110
    },
    {
      "midi": 60,
      "hit": false,
      "t": 3000,
      "d": 95.83333333333348,
      "v": 110
    },
    {
      "midi": 65,
      "hit": false,
      "t": 3200,
      "d": 95.83333333333348,
      "v": 110
    },
    {
      "midi": 72,
      "hit": false,
      "t": 3200,
      "d": 95.83333333333348,
      "v": 110
    },
    {
      "midi": 50,
      "hit": false,
      "t": 3200,
      "d": 95.83333333333348,
      "v": 110
    },
    {
      "midi": 65,
      "hit": false,
      "t": 3400,
      "d": 95.83333333333348,
      "v": 110
    },
    {
      "midi": 72,
      "hit": false,
      "t": 3400,
      "d": 95.83333333333348,
      "v": 110
    },
    {
      "midi": 65,
      "hit": false,
      "t": 3600,
      "d": 95.83333333333348,
      "v": 110
    },
    {
      "midi": 72,
      "hit": false,
      "t": 3600,
      "d": 95.83333333333348,
      "v": 110
    },
    {
      "midi": 57,
      "hit": false,
      "t": 3600,
      "d": 95.83333333333348,
      "v": 110
    },
    {
      "midi": 62,
      "hit": false,
      "t": 3800,
      "d": 95.83333333333348,
      "v": 110
    },
    {
      "midi": 65,
      "hit": false,
      "t": 3900,
      "d": 95.83333333333348,
      "v": 110
    },
    {
      "midi": 72,
      "hit": false,
      "t": 3900,
      "d": 95.83333333333348,
      "v": 110
    },
    {
      "midi": 62,
      "hit": false,
      "t": 3900,
      "d": 95.83333333333348,
      "v": 110
    },
    {
      "midi": 65,
      "hit": false,
      "t": 4100,
      "d": 95.83333333333303,
      "v": 110
    },
    {
      "midi": 72,
      "hit": false,
      "t": 4100,
      "d": 95.83333333333303,
      "v": 110
    },
    {
      "midi": 62,
      "hit": false,
      "t": 4300,
      "d": 95.83333333333303,
      "v": 110
    },
    {
      "midi": 65,
      "hit": false,
      "t": 4400,
      "d": 95.83333333333303,
      "v": 110
    },
    {
      "midi": 72,
      "hit": false,
      "t": 4400,
      "d": 95.83333333333303,
      "v": 110
    },
    {
      "midi": 57,
      "hit": false,
      "t": 4400,
      "d": 95.83333333333303,
      "v": 110
    },
    {
      "midi": 62,
      "hit": false,
      "t": 4500,
      "d": 95.83333333333303,
      "v": 110
    },
    {
      "midi": 65,
      "hit": false,
      "t": 4600,
      "d": 95.83333333333303,
      "v": 110
    },
    {
      "midi": 72,
      "hit": false,
      "t": 4600,
      "d": 95.83333333333303,
      "v": 110
    },
    {
      "midi": 62,
      "hit": false,
      "t": 4600,
      "d": 95.83333333333303,
      "v": 110
    },
    {
      "midi": 64,
      "hit": false,
      "t": 4800,
      "d": 95.83333333333303,
      "v": 110
    },
    {
      "midi": 71,
      "hit": false,
      "t": 4800,
      "d": 95.83333333333303,
      "v": 110
    },
    {
      "midi": 48,
      "hit": false,
      "t": 4800,
      "d": 95.83333333333303,
      "v": 110
    },
    {
      "midi": 64,
      "hit": false,
      "t": 5000,
      "d": 95.83333333333303,
      "v": 110
    },
    {
      "midi": 71,
      "hit": false,
      "t": 5000,
      "d": 95.83333333333303,
      "v": 110
    },
    {
      "midi": 64,
      "hit": false,
      "t": 5200,
      "d": 95.83333333333303,
      "v": 110
    },
    {
      "midi": 71,
      "hit": false,
      "t": 5200,
      "d": 95.83333333333303,
      "v": 110
    },
    {
      "midi": 55,
      "hit": false,
      "t": 5200,
      "d": 95.83333333333303,
      "v": 110
    },
    {
      "midi": 60,
      "hit": false,
      "t": 5400,
      "d": 95.83333333333303,
      "v": 110
    },
    {
      "midi": 64,
      "hit": false,
      "t": 5500,
      "d": 95.83333333333303,
      "v": 110
    },
    {
      "midi": 71,
      "hit": false,
      "t": 5500,
      "d": 95.83333333333303,
      "v": 110
    },
    {
      "midi": 60,
      "hit": false,
      "t": 5500,
      "d": 95.83333333333303,
      "v": 110
    },
    {
      "midi": 64,
      "hit": false,
      "t": 5700,
      "d": 95.83333333333303,
      "v": 110
    },
    {
      "midi": 71,
      "hit": false,
      "t": 5700,
      "d": 95.83333333333303,
      "v": 110
    },
    {
      "midi": 60,
      "hit": false,
      "t": 5900,
      "d": 95.83333333333303,
      "v": 110
    },
    {
      "midi": 64,
      "hit": false,
      "t": 6000,
      "d": 95.83333333333303,
      "v": 110
    },
    {
      "midi": 71,
      "hit": false,
      "t": 6000,
      "d": 95.83333333333303,
      "v": 110
    },
    {
      "midi": 55,
      "hit": false,
      "t": 6000,
      "d": 95.83333333333303,
      "v": 110
    },
    {
      "midi": 60,
      "hit": false,
      "t": 6100,
      "d": 95.83333333333303,
      "v": 110
    },
    {
      "midi": 64,
      "hit": false,
      "t": 6200,
      "d": 95.83333333333303,
      "v": 110
    },
    {
      "midi": 71,
      "hit": false,
      "t": 6200,
      "d": 95.83333333333303,
      "v": 110
    },
    {
      "midi": 60,
      "hit": false,
      "t": 6200,
      "d": 95.83333333333303,
      "v": 110
    },
    {
      "midi": 65,
      "hit": false,
      "t": 6400,
      "d": 95.83333333333303,
      "v": 110
    },
    {
      "midi": 72,
      "hit": false,
      "t": 6400,
      "d": 95.83333333333303,
      "v": 110
    },
    {
      "midi": 50,
      "hit": false,
      "t": 6400,
      "d": 95.83333333333303,
      "v": 110
    },
    {
      "midi": 65,
      "hit": false,
      "t": 6600,
      "d": 95.83333333333303,
      "v": 110
    },
    {
      "midi": 72,
      "hit": false,
      "t": 6600,
      "d": 95.83333333333303,
      "v": 110
    },
    {
      "midi": 65,
      "hit": false,
      "t": 6800,
      "d": 95.83333333333303,
      "v": 110
    },
    {
      "midi": 72,
      "hit": false,
      "t": 6800,
      "d": 95.83333333333303,
      "v": 110
    },
    {
      "midi": 57,
      "hit": false,
      "t": 6800,
      "d": 95.83333333333303,
      "v": 110
    },
    {
      "midi": 62,
      "hit": false,
      "t": 7000,
      "d": 95.83333333333303,
      "v": 110
    },
    {
      "midi": 65,
      "hit": false,
      "t": 7100,
      "d": 95.83333333333303,
      "v": 110
    },
    {
      "midi": 72,
      "hit": false,
      "t": 7100,
      "d": 95.83333333333303,
      "v": 110
    },
    {
      "midi": 62,
      "hit": false,
      "t": 7100,
      "d": 95.83333333333303,
      "v": 110
    },
    {
      "midi": 65,
      "hit": false,
      "t": 7300,
      "d": 95.83333333333303,
      "v": 110
    },
    {
      "midi": 72,
      "hit": false,
      "t": 7300,
      "d": 95.83333333333303,
      "v": 110
    },
    {
      "midi": 62,
      "hit": false,
      "t": 7500,
      "d": 95.83333333333303,
      "v": 110
    },
    {
      "midi": 65,
      "hit": false,
      "t": 7600,
      "d": 95.83333333333303,
      "v": 110
    },
    {
      "midi": 72,
      "hit": false,
      "t": 7600,
      "d": 95.83333333333303,
      "v": 110
    },
    {
      "midi": 57,
      "hit": false,
      "t": 7600,
      "d": 95.83333333333303,
      "v": 110
    },
    {
      "midi": 62,
      "hit": false,
      "t": 7700,
      "d": 95.83333333333303,
      "v": 110
    },
    {
      "midi": 65,
      "hit": false,
      "t": 7800,
      "d": 95.83333333333303,
      "v": 110
    },
    {
      "midi": 72,
      "hit": false,
      "t": 7800,
      "d": 95.83333333333303,
      "v": 110
    },
    {
      "midi": 62,
      "hit": false,
      "t": 7800,
      "d": 95.83333333333303,
      "v": 110
    },
    {
      "midi": 64,
      "hit": false,
      "t": 8000,
      "d": 95.83333333333303,
      "v": 110
    },
    {
      "midi": 71,
      "hit": false,
      "t": 8000,
      "d": 95.83333333333303,
      "v": 110
    },
    {
      "midi": 48,
      "hit": false,
      "t": 8000,
      "d": 95.83333333333303,
      "v": 110
    },
    {
      "midi": 64,
      "hit": false,
      "t": 8200,
      "d": 95.83333333333394,
      "v": 110
    },
    {
      "midi": 71,
      "hit": false,
      "t": 8200,
      "d": 95.83333333333394,
      "v": 110
    },
    {
      "midi": 64,
      "hit": false,
      "t": 8400,
      "d": 95.83333333333394,
      "v": 110
    },
    {
      "midi": 71,
      "hit": false,
      "t": 8400,
      "d": 95.83333333333394,
      "v": 110
    },
    {
      "midi": 55,
      "hit": false,
      "t": 8400,
      "d": 95.83333333333394,
      "v": 110
    },
    {
      "midi": 60,
      "hit": false,
      "t": 8600,
      "d": 95.83333333333394,
      "v": 110
    },
    {
      "midi": 64,
      "hit": false,
      "t": 8700,
      "d": 95.83333333333394,
      "v": 110
    },
    {
      "midi": 71,
      "hit": false,
      "t": 8700,
      "d": 95.83333333333394,
      "v": 110
    },
    {
      "midi": 60,
      "hit": false,
      "t": 8700,
      "d": 95.83333333333394,
      "v": 110
    },
    {
      "midi": 64,
      "hit": false,
      "t": 8900,
      "d": 95.83333333333394,
      "v": 110
    },
    {
      "midi": 71,
      "hit": false,
      "t": 8900,
      "d": 95.83333333333394,
      "v": 110
    },
    {
      "midi": 60,
      "hit": false,
      "t": 9100,
      "d": 95.83333333333394,
      "v": 110
    },
    {
      "midi": 64,
      "hit": false,
      "t": 9200,
      "d": 95.83333333333394,
      "v": 110
    },
    {
      "midi": 71,
      "hit": false,
      "t": 9200,
      "d": 95.83333333333394,
      "v": 110
    },
    {
      "midi": 55,
      "hit": false,
      "t": 9200,
      "d": 95.83333333333394,
      "v": 110
    },
    {
      "midi": 60,
      "hit": false,
      "t": 9300,
      "d": 95.83333333333394,
      "v": 110
    },
    {
      "midi": 64,
      "hit": false,
      "t": 9400,
      "d": 95.83333333333394,
      "v": 110
    },
    {
      "midi": 71,
      "hit": false,
      "t": 9400,
      "d": 95.83333333333394,
      "v": 110
    },
    {
      "midi": 60,
      "hit": false,
      "t": 9400,
      "d": 95.83333333333394,
      "v": 110
    },
    {
      "midi": 65,
      "hit": false,
      "t": 9600,
      "d": 95.83333333333394,
      "v": 110
    },
    {
      "midi": 72,
      "hit": false,
      "t": 9600,
      "d": 95.83333333333394,
      "v": 110
    },
    {
      "midi": 50,
      "hit": false,
      "t": 9600,
      "d": 95.83333333333394,
      "v": 110
    },
    {
      "midi": 65,
      "hit": false,
      "t": 9800,
      "d": 95.83333333333394,
      "v": 110
    },
    {
      "midi": 72,
      "hit": false,
      "t": 9800,
      "d": 95.83333333333394,
      "v": 110
    },
    {
      "midi": 65,
      "hit": false,
      "t": 10000,
      "d": 95.83333333333394,
      "v": 110
    },
    {
      "midi": 72,
      "hit": false,
      "t": 10000,
      "d": 95.83333333333394,
      "v": 110
    },
    {
      "midi": 57,
      "hit": false,
      "t": 10000,
      "d": 95.83333333333394,
      "v": 110
    },
    {
      "midi": 62,
      "hit": false,
      "t": 10200,
      "d": 95.83333333333394,
      "v": 110
    },
    {
      "midi": 65,
      "hit": false,
      "t": 10300,
      "d": 95.83333333333394,
      "v": 110
    },
    {
      "midi": 72,
      "hit": false,
      "t": 10300,
      "d": 95.83333333333394,
      "v": 110
    },
    {
      "midi": 62,
      "hit": false,
      "t": 10300,
      "d": 95.83333333333394,
      "v": 110
    },
    {
      "midi": 65,
      "hit": false,
      "t": 10500,
      "d": 95.83333333333394,
      "v": 110
    },
    {
      "midi": 72,
      "hit": false,
      "t": 10500,
      "d": 95.83333333333394,
      "v": 110
    },
    {
      "midi": 62,
      "hit": false,
      "t": 10700,
      "d": 95.83333333333394,
      "v": 110
    },
    {
      "midi": 65,
      "hit": false,
      "t": 10800,
      "d": 95.83333333333394,
      "v": 110
    },
    {
      "midi": 72,
      "hit": false,
      "t": 10800,
      "d": 95.83333333333394,
      "v": 110
    },
    {
      "midi": 57,
      "hit": false,
      "t": 10800,
      "d": 95.83333333333394,
      "v": 110
    },
    {
      "midi": 62,
      "hit": false,
      "t": 10900,
      "d": 95.83333333333394,
      "v": 110
    },
    {
      "midi": 65,
      "hit": false,
      "t": 11000,
      "d": 95.83333333333394,
      "v": 110
    },
    {
      "midi": 72,
      "hit": false,
      "t": 11000,
      "d": 95.83333333333394,
      "v": 110
    },
    {
      "midi": 62,
      "hit": false,
      "t": 11000,
      "d": 95.83333333333394,
      "v": 110
    },
    {
      "midi": 64,
      "hit": false,
      "t": 11200,
      "d": 95.83333333333394,
      "v": 110
    },
    {
      "midi": 71,
      "hit": false,
      "t": 11200,
      "d": 95.83333333333394,
      "v": 110
    },
    {
      "midi": 48,
      "hit": false,
      "t": 11200,
      "d": 95.83333333333394,
      "v": 110
    },
    {
      "midi": 64,
      "hit": false,
      "t": 11400,
      "d": 95.83333333333394,
      "v": 110
    },
    {
      "midi": 71,
      "hit": false,
      "t": 11400,
      "d": 95.83333333333394,
      "v": 110
    },
    {
      "midi": 64,
      "hit": false,
      "t": 11600,
      "d": 95.83333333333394,
      "v": 110
    },
    {
      "midi": 71,
      "hit": false,
      "t": 11600,
      "d": 95.83333333333394,
      "v": 110
    },
    {
      "midi": 55,
      "hit": false,
      "t": 11600,
      "d": 95.83333333333394,
      "v": 110
    },
    {
      "midi": 60,
      "hit": false,
      "t": 11800,
      "d": 95.83333333333394,
      "v": 110
    },
    {
      "midi": 64,
      "hit": false,
      "t": 11900,
      "d": 95.83333333333394,
      "v": 110
    },
    {
      "midi": 71,
      "hit": false,
      "t": 11900,
      "d": 95.83333333333394,
      "v": 110
    },
    {
      "midi": 60,
      "hit": false,
      "t": 11900,
      "d": 95.83333333333394,
      "v": 110
    },
    {
      "midi": 64,
      "hit": false,
      "t": 12100,
      "d": 95.83333333333394,
      "v": 110
    },
    {
      "midi": 71,
      "hit": false,
      "t": 12100,
      "d": 95.83333333333394,
      "v": 110
    },
    {
      "midi": 60,
      "hit": false,
      "t": 12300,
      "d": 95.83333333333394,
      "v": 110
    },
    {
      "midi": 64,
      "hit": false,
      "t": 12400,
      "d": 95.83333333333394,
      "v": 110
    },
    {
      "midi": 71,
      "hit": false,
      "t": 12400,
      "d": 95.83333333333394,
      "v": 110
    },
    {
      "midi": 55,
      "hit": false,
      "t": 12400,
      "d": 95.83333333333394,
      "v": 110
    },
    {
      "midi": 60,
      "hit": false,
      "t": 12500,
      "d": 95.83333333333394,
      "v": 110
    },
    {
      "midi": 64,
      "hit": false,
      "t": 12600,
      "d": 95.83333333333394,
      "v": 110
    },
    {
      "midi": 71,
      "hit": false,
      "t": 12600,
      "d": 95.83333333333394,
      "v": 110
    },
    {
      "midi": 60,
      "hit": false,
      "t": 12600,
      "d": 95.83333333333394,
      "v": 110
    }
  ]
}