{
  "jsonPath": "Rock/Kiwi Rock/Bic Runga/winning-arrow.json",
  "path": "Rock\\Kiwi Rock\\Bic Runga\\Winning Arrow.mid",
  "name": "Winning Arrow",
  "difficulty": "Advanced",
  "bpm": 105.99995053335641,
  "notes": [
    {
      "midi": 55,
      "hit": false,
      "t": 37.73586666666667,
      "d": 2037.7368000000004,
      "v": 78
    },
    {
      "midi": 60,
      "hit": false,
      "t": 37.73586666666667,
      "d": 2037.7368000000004,
      "v": 78
    },
    {
      "midi": 64,
      "hit": false,
      "t": 37.73586666666667,
      "d": 2037.7368000000004,
      "v": 78
    },
    {
      "midi": 63,
      "hit": false,
      "t": 1183.9628166666669,
      "d": 566.038,
      "v": 80
    },
    {
      "midi": 64,
      "hit": false,
      "t": 1754.7178000000001,
      "d": 566.0379999999998,
      "v": 80
    },
    {
      "midi": 57,
      "hit": false,
      "t": 2264.1520000000005,
      "d": 1858.4914333333331,
      "v": 72
    },
    {
      "midi": 65,
      "hit": false,
      "t": 2264.1520000000005,
      "d": 1858.4914333333331,
      "v": 72
    },
    {
      "midi": 65,
      "hit": false,
      "t": 2320.7558,
      "d": 566.038,
      "v": 80
    },
    {
      "midi": 65,
      "hit": false,
      "t": 3462.2657666666664,
      "d": 566.038,
      "v": 80
    },
    {
      "midi": 62,
      "hit": false,
      "t": 3981.133933333334,
      "d": 141.50949999999966,
      "v": 61
    },
    {
      "midi": 64,
      "hit": false,
      "t": 4023.586783333333,
      "d": 566.0379999999996,
      "v": 80
    },
    {
      "midi": 65,
      "hit": false,
      "t": 4127.360416666667,
      "d": 198.11329999999998,
      "v": 74
    },
    {
      "midi": 69,
      "hit": false,
      "t": 4268.869916666667,
      "d": 183.9623499999998,
      "v": 68
    },
    {
      "midi": 74,
      "hit": false,
      "t": 4415.0964,
      "d": 103.77363333333324,
      "v": 68
    },
    {
      "midi": 62,
      "hit": false,
      "t": 4566.039866666666,
      "d": 566.0380000000005,
      "v": 80
    },
    {
      "midi": 55,
      "hit": false,
      "t": 4566.039866666667,
      "d": 2037.7367999999997,
      "v": 78
    },
    {
      "midi": 59,
      "hit": false,
      "t": 4566.039866666667,
      "d": 2037.7367999999997,
      "v": 78
    },
    {
      "midi": 62,
      "hit": false,
      "t": 4566.039866666667,
      "d": 2037.7367999999997,
      "v": 78
    },
    {
      "midi": 67,
      "hit": false,
      "t": 5698.115866666667,
      "d": 566.0380000000005,
      "v": 80
    },
    {
      "midi": 65,
      "hit": false,
      "t": 6226.418000000001,
      "d": 566.0380000000005,
      "v": 80
    },
    {
      "midi": 67,
      "hit": false,
      "t": 6792.456,
      "d": 698.1135333333341,
      "v": 55
    },
    {
      "midi": 64,
      "hit": false,
      "t": 6792.456,
      "d": 726.4154333333345,
      "v": 58
    },
    {
      "midi": 60,
      "hit": false,
      "t": 6792.456,
      "d": 759.4343166666677,
      "v": 53
    },
    {
      "midi": 64,
      "hit": false,
      "t": 6792.456000000001,
      "d": 566.0380000000005,
      "v": 80
    },
    {
      "midi": 36,
      "hit": false,
      "t": 6816.040916666667,
      "d": 1962.2650666666686,
      "v": 33
    },
    {
      "midi": 65,
      "hit": false,
      "t": 7330.192100000001,
      "d": 566.0380000000005,
      "v": 80
    },
    {
      "midi": 67,
      "hit": false,
      "t": 7754.7206000000015,
      "d": 443.39643333333424,
      "v": 58
    },
    {
      "midi": 64,
      "hit": false,
      "t": 7783.022500000002,
      "d": 419.81151666666756,
      "v": 61
    },
    {
      "midi": 60,
      "hit": false,
      "t": 7834.909316666669,
      "d": 297.1699500000004,
      "v": 85
    },
    {
      "midi": 64,
      "hit": false,
      "t": 7877.362166666669,
      "d": 283.0189999999993,
      "v": 80
    },
    {
      "midi": 62,
      "hit": false,
      "t": 8160.381166666668,
      "d": 283.01900000000023,
      "v": 80
    },
    {
      "midi": 60,
      "hit": false,
      "t": 8202.83401666667,
      "d": 292.4529666666658,
      "v": 91
    },
    {
      "midi": 60,
      "hit": false,
      "t": 8462.268100000001,
      "d": 1132.076000000001,
      "v": 80
    },
    {
      "midi": 64,
      "hit": false,
      "t": 8495.286983333335,
      "d": 301.88693333333504,
      "v": 70
    },
    {
      "midi": 67,
      "hit": false,
      "t": 8787.739950000003,
      "d": 122.64156666666713,
      "v": 68
    },
    {
      "midi": 72,
      "hit": false,
      "t": 9056.608000000004,
      "d": 698.1135333333332,
      "v": 55
    },
    {
      "midi": 69,
      "hit": false,
      "t": 9056.608000000004,
      "d": 726.4154333333336,
      "v": 58
    },
    {
      "midi": 65,
      "hit": false,
      "t": 9056.608000000004,
      "d": 759.4343166666677,
      "v": 53
    },
    {
      "midi": 41,
      "hit": false,
      "t": 9080.19291666667,
      "d": 1962.2650666666668,
      "v": 33
    },
    {
      "midi": 72,
      "hit": false,
      "t": 10018.872600000004,
      "d": 443.39643333333333,
      "v": 58
    },
    {
      "midi": 69,
      "hit": false,
      "t": 10047.174500000005,
      "d": 419.81151666666665,
      "v": 61
    },
    {
      "midi": 65,
      "hit": false,
      "t": 10099.061316666672,
      "d": 297.1699499999995,
      "v": 85
    },
    {
      "midi": 62,
      "hit": false,
      "t": 10188.684000000003,
      "d": 566.0380000000005,
      "v": 80
    },
    {
      "midi": 65,
      "hit": false,
      "t": 10466.986016666671,
      "d": 292.4529666666658,
      "v": 91
    },
    {
      "midi": 64,
      "hit": false,
      "t": 10754.722000000003,
      "d": 566.0380000000005,
      "v": 80
    },
    {
      "midi": 69,
      "hit": false,
      "t": 10759.438983333337,
      "d": 301.88693333333504,
      "v": 70
    },
    {
      "midi": 72,
      "hit": false,
      "t": 11051.891950000005,
      "d": 122.64156666666713,
      "v": 68
    },
    {
      "midi": 65,
      "hit": false,
      "t": 11320.760000000004,
      "d": 566.0380000000005,
      "v": 80
    },
    {
      "midi": 58,
      "hit": false,
      "t": 11358.495866666672,
      "d": 2037.7368000000006,
      "v": 78
    },
    {
      "midi": 62,
      "hit": false,
      "t": 11358.495866666672,
      "d": 2037.7368000000006,
      "v": 78
    },
    {
      "midi": 65,
      "hit": false,
      "t": 11358.495866666672,
      "d": 2037.7368000000006,
      "v": 78
    },
    {
      "midi": 64,
      "hit": false,
      "t": 11858.496100000004,
      "d": 566.0380000000005,
      "v": 80
    },
    {
      "midi": 62,
      "hit": false,
      "t": 12405.666166666671,
      "d": 566.0380000000005,
      "v": 80
    },
    {
      "midi": 60,
      "hit": false,
      "t": 12971.704166666672,
      "d": 566.0380000000005,
      "v": 80
    },
    {
      "midi": 52,
      "hit": false,
      "t": 13584.912000000006,
      "d": 924.5287333333326,
      "v": 54
    },
    {
      "midi": 68,
      "hit": false,
      "t": 13584.912000000006,
      "d": 1132.075999999999,
      "v": 57
    },
    {
      "midi": 71,
      "hit": false,
      "t": 13584.912000000006,
      "d": 1155.6609166666658,
      "v": 56
    },
    {
      "midi": 64,
      "hit": false,
      "t": 13584.912000000006,
      "d": 1174.5288499999988,
      "v": 61
    },
    {
      "midi": 62,
      "hit": false,
      "t": 13594.345966666673,
      "d": 566.0380000000005,
      "v": 80
    },
    {
      "midi": 40,
      "hit": false,
      "t": 14433.969000000005,
      "d": 1207.5477333333347,
      "v": 49
    },
    {
      "midi": 64,
      "hit": false,
      "t": 14707.554033333341,
      "d": 566.0380000000005,
      "v": 80
    },
    {
      "midi": 52,
      "hit": false,
      "t": 14716.988000000005,
      "d": 1080.1891833333339,
      "v": 52
    },
    {
      "midi": 64,
      "hit": false,
      "t": 15000.007000000005,
      "d": 768.8682833333332,
      "v": 76
    },
    {
      "midi": 62,
      "hit": false,
      "t": 15273.592033333342,
      "d": 566.0380000000005,
      "v": 80
    },
    {
      "midi": 68,
      "hit": false,
      "t": 15566.045000000006,
      "d": 179.2453666666661,
      "v": 87
    },
    {
      "midi": 60,
      "hit": false,
      "t": 15849.06400000001,
      "d": 566.0380000000005,
      "v": 80
    },
    {
      "midi": 57,
      "hit": false,
      "t": 16132.083000000006,
      "d": 570.7549833333323,
      "v": 68
    },
    {
      "midi": 60,
      "hit": false,
      "t": 16415.102000000006,
      "d": 382.07564999999886,
      "v": 85
    },
    {
      "midi": 60,
      "hit": false,
      "t": 16433.969933333345,
      "d": 566.0380000000005,
      "v": 80
    },
    {
      "midi": 64,
      "hit": false,
      "t": 16698.121000000006,
      "d": 117.92458333333343,
      "v": 87
    },
    {
      "midi": 55,
      "hit": false,
      "t": 16981.140000000007,
      "d": 1132.076000000001,
      "v": 80
    },
    {
      "midi": 59,
      "hit": false,
      "t": 16981.140000000007,
      "d": 1132.076000000001,
      "v": 80
    },
    {
      "midi": 62,
      "hit": false,
      "t": 16981.140000000007,
      "d": 1132.076000000001,
      "v": 80
    },
    {
      "midi": 60,
      "hit": false,
      "t": 17000.007933333345,
      "d": 566.0380000000005,
      "v": 80
    },
    {
      "midi": 62,
      "hit": false,
      "t": 17566.045933333346,
      "d": 566.0380000000005,
      "v": 80
    },
    {
      "midi": 64,
      "hit": false,
      "t": 18113.216000000008,
      "d": 698.1135333333332,
      "v": 55
    },
    {
      "midi": 61,
      "hit": false,
      "t": 18113.216000000008,
      "d": 726.4154333333317,
      "v": 58
    },
    {
      "midi": 57,
      "hit": false,
      "t": 18113.216000000008,
      "d": 759.4343166666658,
      "v": 53
    },
    {
      "midi": 64,
      "hit": false,
      "t": 18113.21600000001,
      "d": 566.0380000000005,
      "v": 80
    },
    {
      "midi": 45,
      "hit": false,
      "t": 18136.800916666674,
      "d": 1962.2650666666632,
      "v": 33
    },
    {
      "midi": 64,
      "hit": false,
      "t": 19075.480600000006,
      "d": 443.3964333333315,
      "v": 58
    },
    {
      "midi": 61,
      "hit": false,
      "t": 19103.782500000005,
      "d": 419.81151666666483,
      "v": 61
    },
    {
      "midi": 57,
      "hit": false,
      "t": 19155.66931666667,
      "d": 297.1699499999995,
      "v": 85
    },
    {
      "midi": 62,
      "hit": false,
      "t": 19245.292000000012,
      "d": 566.0380000000005,
      "v": 80
    },
    {
      "midi": 57,
      "hit": false,
      "t": 19523.59401666667,
      "d": 292.45296666666763,
      "v": 91
    },
    {
      "midi": 64,
      "hit": false,
      "t": 19801.896033333345,
      "d": 566.0380000000005,
      "v": 80
    },
    {
      "midi": 61,
      "hit": false,
      "t": 19816.046983333337,
      "d": 301.88693333333504,
      "v": 70
    },
    {
      "midi": 64,
      "hit": false,
      "t": 20108.499950000005,
      "d": 122.64156666666895,
      "v": 68
    },
    {
      "midi": 65,
      "hit": false,
      "t": 20377.368000000013,
      "d": 566.0380000000005,
      "v": 80
    },
    {
      "midi": 57,
      "hit": false,
      "t": 20391.51895000001,
      "d": 1632.0762333333332,
      "v": 87
    },
    {
      "midi": 62,
      "hit": false,
      "t": 20391.51895000001,
      "d": 1632.0762333333332,
      "v": 87
    },
    {
      "midi": 65,
      "hit": false,
      "t": 20391.51895000001,
      "d": 1632.0762333333332,
      "v": 87
    },
    {
      "midi": 65,
      "hit": false,
      "t": 21452.840200000013,
      "d": 566.0380000000005,
      "v": 80
    },
    {
      "midi": 69,
      "hit": false,
      "t": 21806.61395000001,
      "d": 339.622800000001,
      "v": 68
    },
    {
      "midi": 64,
      "hit": false,
      "t": 22018.878200000014,
      "d": 566.0380000000005,
      "v": 80
    },
    {
      "midi": 65,
      "hit": false,
      "t": 22089.63295000001,
      "d": 330.1888333333336,
      "v": 64
    },
    {
      "midi": 62,
      "hit": false,
      "t": 22382.085916666678,
      "d": 245.28313333333426,
      "v": 91
    },
    {
      "midi": 62,
      "hit": false,
      "t": 22641.520000000015,
      "d": 566.0380000000005,
      "v": 80
    },
    {
      "midi": 55,
      "hit": false,
      "t": 22655.67095000001,
      "d": 844.3400166666688,
      "v": 82
    },
    {
      "midi": 59,
      "hit": false,
      "t": 22655.67095000001,
      "d": 844.3400166666688,
      "v": 82
    },
    {
      "midi": 62,
      "hit": false,
      "t": 22655.67095000001,
      "d": 844.3400166666688,
      "v": 82
    },
    {
      "midi": 43,
      "hit": false,
      "t": 23481.143033333345,
      "d": 1377.3591333333352,
      "v": 63
    },
    {
      "midi": 55,
      "hit": false,
      "t": 23783.02996666668,
      "d": 1084.9061666666676,
      "v": 66
    },
    {
      "midi": 67,
      "hit": false,
      "t": 23792.463933333347,
      "d": 566.0380000000005,
      "v": 80
    },
    {
      "midi": 59,
      "hit": false,
      "t": 24056.615000000013,
      "d": 792.4531999999999,
      "v": 68
    },
    {
      "midi": 62,
      "hit": false,
      "t": 24358.501933333348,
      "d": 481.1323000000011,
      "v": 82
    },
    {
      "midi": 65,
      "hit": false,
      "t": 24377.369866666682,
      "d": 566.0380000000005,
      "v": 80
    },
    {
      "midi": 67,
      "hit": false,
      "t": 24613.21903333335,
      "d": 226.41519999999946,
      "v": 59
    },
    {
      "midi": 48,
      "hit": false,
      "t": 24905.672000000013,
      "d": 924.5287333333326,
      "v": 54
    },
    {
      "midi": 64,
      "hit": false,
      "t": 24905.672000000013,
      "d": 1132.076000000001,
      "v": 57
    },
    {
      "midi": 67,
      "hit": false,
      "t": 24905.672000000013,
      "d": 1155.6609166666676,
      "v": 56
    },
    {
      "midi": 60,
      "hit": false,
      "t": 24905.672000000013,
      "d": 1174.5288500000024,
      "v": 61
    },
    {
      "midi": 64,
      "hit": false,
      "t": 24905.672000000017,
      "d": 566.0380000000005,
      "v": 80
    },
    {
      "midi": 65,
      "hit": false,
      "t": 25415.106200000017,
      "d": 566.0380000000005,
      "v": 80
    },
    {
      "midi": 36,
      "hit": false,
      "t": 25754.729000000014,
      "d": 1207.5477333333329,
      "v": 49
    },
    {
      "midi": 64,
      "hit": false,
      "t": 26000.01213333335,
      "d": 283.01900000000023,
      "v": 80
    },
    {
      "midi": 48,
      "hit": false,
      "t": 26037.748000000014,
      "d": 1080.189183333332,
      "v": 52
    },
    {
      "midi": 62,
      "hit": false,
      "t": 26226.42733333335,
      "d": 283.01900000000387,
      "v": 80
    },
    {
      "midi": 60,
      "hit": false,
      "t": 26320.767000000014,
      "d": 768.8682833333332,
      "v": 76
    },
    {
      "midi": 60,
      "hit": false,
      "t": 26490.57840000002,
      "d": 1132.076000000001,
      "v": 80
    },
    {
      "midi": 64,
      "hit": false,
      "t": 26886.805000000015,
      "d": 179.2453666666661,
      "v": 87
    },
    {
      "midi": 57,
      "hit": false,
      "t": 27183.974950000014,
      "d": 1632.0762333333332,
      "v": 87
    },
    {
      "midi": 60,
      "hit": false,
      "t": 27183.974950000014,
      "d": 1632.0762333333332,
      "v": 87
    },
    {
      "midi": 65,
      "hit": false,
      "t": 27183.974950000014,
      "d": 1632.0762333333332,
      "v": 87
    },
    {
      "midi": 62,
      "hit": false,
      "t": 28320.767933333354,
      "d": 566.0380000000005,
      "v": 80
    },
    {
      "midi": 72,
      "hit": false,
      "t": 28599.069950000016,
      "d": 339.622800000001,
      "v": 68
    },
    {
      "midi": 64,
      "hit": false,
      "t": 28867.93800000002,
      "d": 566.0380000000005,
      "v": 80
    },
    {
      "midi": 69,
      "hit": false,
      "t": 28882.088950000016,
      "d": 330.1888333333336,
      "v": 64
    },
    {
      "midi": 65,
      "hit": false,
      "t": 29174.541916666683,
      "d": 245.28313333333426,
      "v": 91
    },
    {
      "midi": 53,
      "hit": false,
      "t": 29433.976000000017,
      "d": 966.9815833333341,
      "v": 76
    },
    {
      "midi": 65,
      "hit": false,
      "t": 29452.843933333355,
      "d": 566.0380000000005,
      "v": 80
    },
    {
      "midi": 58,
      "hit": false,
      "t": 29716.995000000017,
      "d": 570.7549833333323,
      "v": 68
    },
    {
      "midi": 62,
      "hit": false,
      "t": 30000.014000000017,
      "d": 382.07564999999886,
      "v": 85
    },
    {
      "midi": 64,
      "hit": false,
      "t": 30000.01400000002,
      "d": 566.0380000000005,
      "v": 80
    },
    {
      "midi": 65,
      "hit": false,
      "t": 30283.033000000018,
      "d": 160.37743333333492,
      "v": 87
    },
    {
      "midi": 62,
      "hit": false,
      "t": 30528.316133333356,
      "d": 566.0380000000005,
      "v": 80
    },
    {
      "midi": 57,
      "hit": false,
      "t": 30566.052000000018,
      "d": 966.9815833333341,
      "v": 76
    },
    {
      "midi": 62,
      "hit": false,
      "t": 30849.071000000018,
      "d": 570.7549833333323,
      "v": 68
    },
    {
      "midi": 60,
      "hit": false,
      "t": 31094.354133333356,
      "d": 566.0380000000005,
      "v": 80
    },
    {
      "midi": 65,
      "hit": false,
      "t": 31132.09000000002,
      "d": 382.07564999999886,
      "v": 85
    },
    {
      "midi": 69,
      "hit": false,
      "t": 31415.10900000002,
      "d": 160.37743333333492,
      "v": 87
    },
    {
      "midi": 55,
      "hit": false,
      "t": 31716.995933333354,
      "d": 1287.7364499999967,
      "v": 74
    },
    {
      "midi": 59,
      "hit": false,
      "t": 31716.995933333354,
      "d": 1287.7364499999967,
      "v": 74
    },
    {
      "midi": 62,
      "hit": false,
      "t": 31716.995933333354,
      "d": 1287.7364499999967,
      "v": 74
    },
    {
      "midi": 62,
      "hit": false,
      "t": 31716.995933333357,
      "d": 566.0380000000005,
      "v": 80
    },
    {
      "midi": 60,
      "hit": false,
      "t": 32830.20400000003,
      "d": 566.0380000000005,
      "v": 80
    },
    {
      "midi": 43,
      "hit": false,
      "t": 33127.373950000016,
      "d": 320.75486666666984,
      "v": 78
    },
    {
      "midi": 55,
      "hit": false,
      "t": 33405.675966666684,
      "d": 396.2266000000018,
      "v": 74
    },
    {
      "midi": 59,
      "hit": false,
      "t": 33405.675966666684,
      "d": 396.2266000000018,
      "v": 74
    },
    {
      "midi": 62,
      "hit": false,
      "t": 33405.675966666684,
      "d": 396.2266000000018,
      "v": 74
    },
    {
      "midi": 59,
      "hit": false,
      "t": 33415.10993333336,
      "d": 566.0380000000005,
      "v": 80
    },
    {
      "midi": 48,
      "hit": false,
      "t": 33962.28000000002,
      "d": 924.5287333333326,
      "v": 54
    },
    {
      "midi": 64,
      "hit": false,
      "t": 33962.28000000002,
      "d": 1132.076000000001,
      "v": 57
    },
    {
      "midi": 67,
      "hit": false,
      "t": 33962.28000000002,
      "d": 1155.6609166666676,
      "v": 56
    },
    {
      "midi": 60,
      "hit": false,
      "t": 33962.28000000002,
      "d": 1174.5288500000024,
      "v": 61
    },
    {
      "midi": 60,
      "hit": false,
      "t": 33981.14793333336,
      "d": 1698.1140000000014,
      "v": 80
    },
    {
      "midi": 36,
      "hit": false,
      "t": 34811.33700000002,
      "d": 1207.5477333333329,
      "v": 49
    },
    {
      "midi": 48,
      "hit": false,
      "t": 35094.35600000002,
      "d": 1080.1891833333357,
      "v": 52
    },
    {
      "midi": 60,
      "hit": false,
      "t": 35377.37500000002,
      "d": 768.8682833333369,
      "v": 76
    },
    {
      "midi": 64,
      "hit": false,
      "t": 35943.41300000002,
      "d": 179.24536666666972,
      "v": 87
    },
    {
      "midi": 48,
      "hit": false,
      "t": 36226.43200000002,
      "d": 924.5287333333326,
      "v": 54
    },
    {
      "midi": 64,
      "hit": false,
      "t": 36226.43200000002,
      "d": 1132.076000000001,
      "v": 57
    },
    {
      "midi": 67,
      "hit": false,
      "t": 36226.43200000002,
      "d": 1155.6609166666676,
      "v": 56
    },
    {
      "midi": 60,
      "hit": false,
      "t": 36226.43200000002,
      "d": 1174.5288500000024,
      "v": 61
    },
    {
      "midi": 36,
      "hit": false,
      "t": 37075.48900000002,
      "d": 1207.5477333333329,
      "v": 49
    },
    {
      "midi": 48,
      "hit": false,
      "t": 37358.50800000002,
      "d": 1080.1891833333357,
      "v": 52
    },
    {
      "midi": 62,
      "hit": false,
      "t": 37396.2438666667,
      "d": 566.0380000000005,
      "v": 80
    },
    {
      "midi": 60,
      "hit": false,
      "t": 37641.527000000024,
      "d": 768.8682833333369,
      "v": 76
    },
    {
      "midi": 64,
      "hit": false,
      "t": 37924.54600000003,
      "d": 566.0380000000005,
      "v": 80
    },
    {
      "midi": 64,
      "hit": false,
      "t": 38207.565000000024,
      "d": 179.24536666666972,
      "v": 87
    },
    {
      "midi": 64,
      "hit": false,
      "t": 38490.58400000003,
      "d": 56.603799999997136,
      "v": 80
    },
    {
      "midi": 57,
      "hit": false,
      "t": 38528.319866666694,
      "d": 2037.7367999999988,
      "v": 78
    },
    {
      "midi": 62,
      "hit": false,
      "t": 38528.319866666694,
      "d": 2037.7367999999988,
      "v": 78
    },
    {
      "midi": 65,
      "hit": false,
      "t": 38528.319866666694,
      "d": 2037.7367999999988,
      "v": 78
    },
    {
      "midi": 65,
      "hit": false,
      "t": 38547.18780000003,
      "d": 566.0380000000005,
      "v": 80
    },
    {
      "midi": 65,
      "hit": false,
      "t": 39688.69776666669,
      "d": 566.0380000000005,
      "v": 80
    },
    {
      "midi": 64,
      "hit": false,
      "t": 40250.01878333336,
      "d": 566.0380000000005,
      "v": 80
    },
    {
      "midi": 74,
      "hit": false,
      "t": 40754.736000000026,
      "d": 698.1135333333368,
      "v": 55
    },
    {
      "midi": 71,
      "hit": false,
      "t": 40754.736000000026,
      "d": 726.4154333333354,
      "v": 58
    },
    {
      "midi": 67,
      "hit": false,
      "t": 40754.736000000026,
      "d": 759.4343166666658,
      "v": 53
    },
    {
      "midi": 43,
      "hit": false,
      "t": 40778.32091666669,
      "d": 1962.2650666666668,
      "v": 33
    },
    {
      "midi": 62,
      "hit": false,
      "t": 40792.471866666696,
      "d": 566.0380000000005,
      "v": 80
    },
    {
      "midi": 74,
      "hit": false,
      "t": 41717.00060000003,
      "d": 443.39643333333515,
      "v": 58
    },
    {
      "midi": 71,
      "hit": false,
      "t": 41745.30250000003,
      "d": 419.81151666666847,
      "v": 61
    },
    {
      "midi": 67,
      "hit": false,
      "t": 41797.18931666669,
      "d": 297.16995000000315,
      "v": 85
    },
    {
      "midi": 67,
      "hit": false,
      "t": 41924.5478666667,
      "d": 566.0380000000005,
      "v": 80
    },
    {
      "midi": 67,
      "hit": false,
      "t": 42165.114016666696,
      "d": 292.452966666664,
      "v": 91
    },
    {
      "midi": 65,
      "hit": false,
      "t": 42452.85000000003,
      "d": 566.0380000000005,
      "v": 80
    },
    {
      "midi": 71,
      "hit": false,
      "t": 42457.56698333336,
      "d": 301.88693333332776,
      "v": 70
    },
    {
      "midi": 74,
      "hit": false,
      "t": 42750.01995000002,
      "d": 122.64156666666531,
      "v": 68
    },
    {
      "midi": 55,
      "hit": false,
      "t": 43018.88800000002,
      "d": 1858.4914333333363,
      "v": 72
    },
    {
      "midi": 64,
      "hit": false,
      "t": 43018.88800000002,
      "d": 1858.4914333333363,
      "v": 72
    },
    {
      "midi": 64,
      "hit": false,
      "t": 43018.88800000003,
      "d": 566.0380000000005,
      "v": 80
    },
    {
      "midi": 65,
      "hit": false,
      "t": 43556.62410000003,
      "d": 566.0380000000005,
      "v": 80
    },
    {
      "midi": 64,
      "hit": false,
      "t": 44103.794166666696,
      "d": 283.01900000000023,
      "v": 80
    },
    {
      "midi": 62,
      "hit": false,
      "t": 44386.813166666696,
      "d": 283.01900000000023,
      "v": 80
    },
    {
      "midi": 60,
      "hit": false,
      "t": 44688.70010000003,
      "d": 1132.076000000001,
      "v": 80
    },
    {
      "midi": 60,
      "hit": false,
      "t": 44735.86993333336,
      "d": 141.50950000000012,
      "v": 61
    },
    {
      "midi": 64,
      "hit": false,
      "t": 44882.09641666669,
      "d": 198.11329999999725,
      "v": 74
    },
    {
      "midi": 67,
      "hit": false,
      "t": 45023.60591666669,
      "d": 183.9623500000016,
      "v": 68
    },
    {
      "midi": 72,
      "hit": false,
      "t": 45169.83240000002,
      "d": 103.77363333333778,
      "v": 68
    },
    {
      "midi": 57,
      "hit": false,
      "t": 45297.190950000026,
      "d": 844.3400166666688,
      "v": 82
    },
    {
      "midi": 60,
      "hit": false,
      "t": 45297.190950000026,
      "d": 844.3400166666688,
      "v": 82
    },
    {
      "midi": 65,
      "hit": false,
      "t": 45297.190950000026,
      "d": 844.3400166666688,
      "v": 82
    },
    {
      "midi": 53,
      "hit": false,
      "t": 46122.66303333336,
      "d": 1377.3591333333316,
      "v": 63
    },
    {
      "midi": 62,
      "hit": false,
      "t": 46415.11600000003,
      "d": 566.0380000000005,
      "v": 80
    },
    {
      "midi": 65,
      "hit": false,
      "t": 46424.549966666695,
      "d": 1084.9061666666603,
      "v": 66
    },
    {
      "midi": 69,
      "hit": false,
      "t": 46698.13500000003,
      "d": 792.4531999999963,
      "v": 68
    },
    {
      "midi": 64,
      "hit": false,
      "t": 46981.15400000003,
      "d": 566.0380000000005,
      "v": 80
    },
    {
      "midi": 72,
      "hit": false,
      "t": 47000.02193333336,
      "d": 481.13230000000476,
      "v": 82
    },
    {
      "midi": 77,
      "hit": false,
      "t": 47254.73903333336,
      "d": 226.4152000000031,
      "v": 59
    },
    {
      "midi": 65,
      "hit": false,
      "t": 47547.19200000003,
      "d": 566.0380000000005,
      "v": 80
    },
    {
      "midi": 58,
      "hit": false,
      "t": 47584.92786666669,
      "d": 2037.7367999999988,
      "v": 78
    },
    {
      "midi": 62,
      "hit": false,
      "t": 47584.92786666669,
      "d": 2037.7367999999988,
      "v": 78
    },
    {
      "midi": 65,
      "hit": false,
      "t": 47584.92786666669,
      "d": 2037.7367999999988,
      "v": 78
    },
    {
      "midi": 64,
      "hit": false,
      "t": 48084.928100000034,
      "d": 566.0380000000005,
      "v": 80
    },
    {
      "midi": 62,
      "hit": false,
      "t": 48632.0981666667,
      "d": 566.0380000000005,
      "v": 80
    },
    {
      "midi": 60,
      "hit": false,
      "t": 49198.1361666667,
      "d": 566.0380000000005,
      "v": 80
    },
    {
      "midi": 62,
      "hit": false,
      "t": 49820.7779666667,
      "d": 566.0380000000005,
      "v": 80
    },
    {
      "midi": 56,
      "hit": false,
      "t": 49849.07986666669,
      "d": 2037.7367999999988,
      "v": 78
    },
    {
      "midi": 59,
      "hit": false,
      "t": 49849.07986666669,
      "d": 2037.7367999999988,
      "v": 78
    },
    {
      "midi": 64,
      "hit": false,
      "t": 49849.07986666669,
      "d": 2037.7367999999988,
      "v": 78
    },
    {
      "midi": 64,
      "hit": false,
      "t": 50933.98603333336,
      "d": 566.0380000000005,
      "v": 80
    },
    {
      "midi": 62,
      "hit": false,
      "t": 51500.024033333364,
      "d": 566.0380000000005,
      "v": 80
    },
    {
      "midi": 57,
      "hit": false,
      "t": 52075.49600000002,
      "d": 1132.076000000001,
      "v": 80
    },
    {
      "midi": 60,
      "hit": false,
      "t": 52075.49600000002,
      "d": 1132.076000000001,
      "v": 80
    },
    {
      "midi": 64,
      "hit": false,
      "t": 52075.49600000002,
      "d": 1132.076000000001,
      "v": 80
    },
    {
      "midi": 60,
      "hit": false,
      "t": 52075.49600000003,
      "d": 566.0380000000005,
      "v": 80
    },
    {
      "midi": 60,
      "hit": false,
      "t": 52660.40193333336,
      "d": 566.0380000000005,
      "v": 80
    },
    {
      "midi": 60,
      "hit": false,
      "t": 53226.439933333364,
      "d": 566.0380000000005,
      "v": 80
    },
    {
      "midi": 55,
      "hit": false,
      "t": 53490.59100000002,
      "d": 570.7549833333323,
      "v": 68
    },
    {
      "midi": 59,
      "hit": false,
      "t": 53773.61000000002,
      "d": 382.07564999999886,
      "v": 85
    },
    {
      "midi": 62,
      "hit": false,
      "t": 53792.477933333364,
      "d": 566.0380000000005,
      "v": 80
    },
    {
      "midi": 62,
      "hit": false,
      "t": 54056.62900000002,
      "d": 117.92458333333343,
      "v": 87
    },
    {
      "midi": 45,
      "hit": false,
      "t": 54339.64800000002,
      "d": 924.5287333333399,
      "v": 54
    },
    {
      "midi": 61,
      "hit": false,
      "t": 54339.64800000002,
      "d": 1132.0760000000082,
      "v": 57
    },
    {
      "midi": 64,
      "hit": false,
      "t": 54339.64800000002,
      "d": 1155.660916666675,
      "v": 56
    },
    {
      "midi": 57,
      "hit": false,
      "t": 54339.64800000002,
      "d": 1174.5288500000097,
      "v": 61
    },
    {
      "midi": 64,
      "hit": false,
      "t": 54339.64800000003,
      "d": 566.0380000000005,
      "v": 80
    },
    {
      "midi": 62,
      "hit": false,
      "t": 55471.72400000003,
      "d": 566.0380000000005,
      "v": 80
    },
    {
      "midi": 45,
      "hit": false,
      "t": 55471.72400000003,
      "d": 924.5287333333326,
      "v": 52
    },
    {
      "midi": 57,
      "hit": false,
      "t": 55754.74300000003,
      "d": 768.8682833333369,
      "v": 76
    },
    {
      "midi": 64,
      "hit": false,
      "t": 56028.32803333337,
      "d": 566.0380000000005,
      "v": 80
    },
    {
      "midi": 61,
      "hit": false,
      "t": 56320.78100000003,
      "d": 179.24536666666972,
      "v": 87
    },
    {
      "midi": 65,
      "hit": false,
      "t": 56603.80000000003,
      "d": 566.0380000000005,
      "v": 80
    },
    {
      "midi": 57,
      "hit": false,
      "t": 56641.5358666667,
      "d": 2037.7367999999988,
      "v": 78
    },
    {
      "midi": 62,
      "hit": false,
      "t": 56641.5358666667,
      "d": 2037.7367999999988,
      "v": 78
    },
    {
      "midi": 65,
      "hit": false,
      "t": 56641.5358666667,
      "d": 2037.7367999999988,
      "v": 78
    },
    {
      "midi": 65,
      "hit": false,
      "t": 57679.272200000036,
      "d": 566.0380000000005,
      "v": 80
    },
    {
      "midi": 64,
      "hit": false,
      "t": 58245.310200000036,
      "d": 566.0380000000005,
      "v": 80
    },
    {
      "midi": 62,
      "hit": false,
      "t": 58867.952000000034,
      "d": 566.0380000000005,
      "v": 80
    },
    {
      "midi": 55,
      "hit": false,
      "t": 58882.10295000004,
      "d": 844.3400166666688,
      "v": 82
    },
    {
      "midi": 59,
      "hit": false,
      "t": 58882.10295000004,
      "d": 844.3400166666688,
      "v": 82
    },
    {
      "midi": 62,
      "hit": false,
      "t": 58882.10295000004,
      "d": 844.3400166666688,
      "v": 82
    },
    {
      "midi": 43,
      "hit": false,
      "t": 59707.57503333337,
      "d": 1377.3591333333316,
      "v": 63
    },
    {
      "midi": 55,
      "hit": false,
      "t": 60009.461966666706,
      "d": 1084.9061666666603,
      "v": 66
    },
    {
      "midi": 67,
      "hit": false,
      "t": 60018.89593333337,
      "d": 566.0380000000005,
      "v": 80
    },
    {
      "midi": 59,
      "hit": false,
      "t": 60283.04700000004,
      "d": 792.4531999999963,
      "v": 68
    },
    {
      "midi": 62,
      "hit": false,
      "t": 60584.93393333337,
      "d": 481.13230000000476,
      "v": 82
    },
    {
      "midi": 65,
      "hit": false,
      "t": 60603.801866666705,
      "d": 566.0380000000005,
      "v": 80
    },
    {
      "midi": 67,
      "hit": false,
      "t": 60839.65103333337,
      "d": 226.4152000000031,
      "v": 59
    },
    {
      "midi": 64,
      "hit": false,
      "t": 61132.104000000036,
      "d": 566.0380000000005,
      "v": 80
    },
    {
      "midi": 55,
      "hit": false,
      "t": 61146.25495000003,
      "d": 1632.0762333333332,
      "v": 87
    },
    {
      "midi": 60,
      "hit": false,
      "t": 61146.25495000003,
      "d": 1632.0762333333332,
      "v": 87
    },
    {
      "midi": 64,
      "hit": false,
      "t": 61146.25495000003,
      "d": 1632.0762333333332,
      "v": 87
    },
    {
      "midi": 65,
      "hit": false,
      "t": 61641.53820000004,
      "d": 566.0380000000005,
      "v": 80
    },
    {
      "midi": 64,
      "hit": false,
      "t": 62226.444133333374,
      "d": 283.01900000000023,
      "v": 80
    },
    {
      "midi": 62,
      "hit": false,
      "t": 62452.85933333338,
      "d": 283.01900000000023,
      "v": 80
    },
    {
      "midi": 67,
      "hit": false,
      "t": 62561.34995000003,
      "d": 339.62279999999737,
      "v": 68
    },
    {
      "midi": 60,
      "hit": false,
      "t": 62717.01040000004,
      "d": 1132.076000000001,
      "v": 80
    },
    {
      "midi": 64,
      "hit": false,
      "t": 62844.36895000003,
      "d": 330.1888333333336,
      "v": 64
    },
    {
      "midi": 60,
      "hit": false,
      "t": 63136.8219166667,
      "d": 245.2831333333379,
      "v": 91
    },
    {
      "midi": 53,
      "hit": false,
      "t": 63396.25600000004,
      "d": 924.5287333333326,
      "v": 54
    },
    {
      "midi": 69,
      "hit": false,
      "t": 63396.25600000004,
      "d": 1132.076000000001,
      "v": 57
    },
    {
      "midi": 72,
      "hit": false,
      "t": 63396.25600000004,
      "d": 1155.6609166666676,
      "v": 56
    },
    {
      "midi": 65,
      "hit": false,
      "t": 63396.25600000004,
      "d": 1174.5288500000024,
      "v": 61
    },
    {
      "midi": 41,
      "hit": false,
      "t": 64245.31300000004,
      "d": 1207.5477333333329,
      "v": 49
    },
    {
      "midi": 53,
      "hit": false,
      "t": 64528.33200000004,
      "d": 1080.1891833333357,
      "v": 52
    },
    {
      "midi": 62,
      "hit": false,
      "t": 64547.19993333338,
      "d": 566.0380000000005,
      "v": 80
    },
    {
      "midi": 65,
      "hit": false,
      "t": 64811.35100000004,
      "d": 768.8682833333296,
      "v": 76
    },
    {
      "midi": 64,
      "hit": false,
      "t": 65094.370000000046,
      "d": 566.0380000000077,
      "v": 80
    },
    {
      "midi": 69,
      "hit": false,
      "t": 65377.38900000004,
      "d": 179.24536666666972,
      "v": 87
    },
    {
      "midi": 53,
      "hit": false,
      "t": 65660.40800000004,
      "d": 1132.076000000001,
      "v": 80
    },
    {
      "midi": 58,
      "hit": false,
      "t": 65660.40800000004,
      "d": 1132.076000000001,
      "v": 80
    },
    {
      "midi": 62,
      "hit": false,
      "t": 65660.40800000004,
      "d": 1132.076000000001,
      "v": 80
    },
    {
      "midi": 65,
      "hit": false,
      "t": 65679.27593333338,
      "d": 566.0380000000005,
      "v": 80
    },
    {
      "midi": 64,
      "hit": false,
      "t": 66226.44600000005,
      "d": 566.0380000000005,
      "v": 80
    },
    {
      "midi": 62,
      "hit": false,
      "t": 66754.74813333339,
      "d": 566.0380000000005,
      "v": 80
    },
    {
      "midi": 57,
      "hit": false,
      "t": 66792.48400000004,
      "d": 966.9815833333269,
      "v": 76
    },
    {
      "midi": 62,
      "hit": false,
      "t": 67075.50300000004,
      "d": 570.7549833333323,
      "v": 68
    },
    {
      "midi": 60,
      "hit": false,
      "t": 67320.78613333339,
      "d": 566.0380000000005,
      "v": 80
    },
    {
      "midi": 65,
      "hit": false,
      "t": 67358.52200000004,
      "d": 382.07564999999886,
      "v": 85
    },
    {
      "midi": 69,
      "hit": false,
      "t": 67641.54100000004,
      "d": 160.37743333332764,
      "v": 87
    },
    {
      "midi": 59,
      "hit": false,
      "t": 67924.56000000004,
      "d": 1858.491433333329,
      "v": 72
    },
    {
      "midi": 62,
      "hit": false,
      "t": 67924.56000000004,
      "d": 1858.491433333329,
      "v": 72
    },
    {
      "midi": 62,
      "hit": false,
      "t": 67943.42793333338,
      "d": 566.0380000000005,
      "v": 80
    },
    {
      "midi": 60,
      "hit": false,
      "t": 69056.63600000006,
      "d": 566.0380000000005,
      "v": 80
    },
    {
      "midi": 55,
      "hit": false,
      "t": 69641.54193333337,
      "d": 141.50950000000012,
      "v": 61
    },
    {
      "midi": 59,
      "hit": false,
      "t": 69641.54193333338,
      "d": 566.0380000000005,
      "v": 80
    },
    {
      "midi": 59,
      "hit": false,
      "t": 69787.7684166667,
      "d": 198.11329999999725,
      "v": 74
    },
    {
      "midi": 62,
      "hit": false,
      "t": 69929.2779166667,
      "d": 183.9623500000016,
      "v": 68
    },
    {
      "midi": 67,
      "hit": false,
      "t": 70075.50440000003,
      "d": 103.77363333333051,
      "v": 68
    },
    {
      "midi": 60,
      "hit": false,
      "t": 70207.57993333339,
      "d": 1698.1140000000014,
      "v": 80
    },
    {
      "midi": 55,
      "hit": false,
      "t": 70226.4478666667,
      "d": 2037.7367999999988,
      "v": 78
    },
    {
      "midi": 60,
      "hit": false,
      "t": 70226.4478666667,
      "d": 2037.7367999999988,
      "v": 78
    },
    {
      "midi": 64,
      "hit": false,
      "t": 70226.4478666667,
      "d": 2037.7367999999988,
      "v": 78
    },
    {
      "midi": 55,
      "hit": false,
      "t": 72490.5998666667,
      "d": 2037.7367999999988,
      "v": 78
    },
    {
      "midi": 60,
      "hit": false,
      "t": 72490.5998666667,
      "d": 2037.7367999999988,
      "v": 78
    },
    {
      "midi": 64,
      "hit": false,
      "t": 72490.5998666667,
      "d": 2037.7367999999988,
      "v": 78
    },
    {
      "midi": 62,
      "hit": false,
      "t": 73584.94000000006,
      "d": 566.0380000000005,
      "v": 80
    },
    {
      "midi": 64,
      "hit": false,
      "t": 74132.11006666673,
      "d": 566.0380000000005,
      "v": 80
    },
    {
      "midi": 57,
      "hit": false,
      "t": 74717.01600000003,
      "d": 1858.491433333329,
      "v": 72
    },
    {
      "midi": 65,
      "hit": false,
      "t": 74717.01600000003,
      "d": 1858.491433333329,
      "v": 72
    },
    {
      "midi": 64,
      "hit": false,
      "t": 74717.01600000006,
      "d": 56.603799999997136,
      "v": 80
    },
    {
      "midi": 65,
      "hit": false,
      "t": 74773.61980000006,
      "d": 566.0380000000005,
      "v": 80
    },
    {
      "midi": 65,
      "hit": false,
      "t": 75915.12976666672,
      "d": 566.0380000000005,
      "v": 80
    },
    {
      "midi": 62,
      "hit": false,
      "t": 76433.99793333336,
      "d": 141.50950000000012,
      "v": 61
    },
    {
      "midi": 64,
      "hit": false,
      "t": 76476.45078333339,
      "d": 566.0379999999859,
      "v": 80
    },
    {
      "midi": 65,
      "hit": false,
      "t": 76580.2244166667,
      "d": 198.11329999999725,
      "v": 74
    },
    {
      "midi": 69,
      "hit": false,
      "t": 76721.7339166667,
      "d": 183.9623500000016,
      "v": 68
    },
    {
      "midi": 74,
      "hit": false,
      "t": 76867.96040000003,
      "d": 103.77363333333051,
      "v": 68
    },
    {
      "midi": 59,
      "hit": false,
      "t": 76981.16800000002,
      "d": 1858.491433333329,
      "v": 72
    },
    {
      "midi": 62,
      "hit": false,
      "t": 76981.16800000002,
      "d": 1858.491433333329,
      "v": 72
    },
    {
      "midi": 62,
      "hit": false,
      "t": 77018.90386666672,
      "d": 566.0379999999859,
      "v": 80
    },
    {
      "midi": 67,
      "hit": false,
      "t": 78150.9798666667,
      "d": 566.0380000000005,
      "v": 80
    },
    {
      "midi": 65,
      "hit": false,
      "t": 78679.28200000004,
      "d": 566.0380000000005,
      "v": 80
    },
    {
      "midi": 55,
      "hit": false,
      "t": 78698.14993333335,
      "d": 141.50950000000012,
      "v": 61
    },
    {
      "midi": 59,
      "hit": false,
      "t": 78844.37641666668,
      "d": 198.11329999999725,
      "v": 74
    },
    {
      "midi": 62,
      "hit": false,
      "t": 78985.88591666668,
      "d": 183.9623500000016,
      "v": 68
    },
    {
      "midi": 67,
      "hit": false,
      "t": 79132.11240000001,
      "d": 103.77363333333051,
      "v": 68
    },
    {
      "midi": 64,
      "hit": false,
      "t": 79245.32000000004,
      "d": 566.0380000000005,
      "v": 80
    },
    {
      "midi": 55,
      "hit": false,
      "t": 79259.47095,
      "d": 1632.0762333333405,
      "v": 87
    },
    {
      "midi": 60,
      "hit": false,
      "t": 79259.47095,
      "d": 1632.0762333333405,
      "v": 87
    },
    {
      "midi": 64,
      "hit": false,
      "t": 79259.47095,
      "d": 1632.0762333333405,
      "v": 87
    },
    {
      "midi": 65,
      "hit": false,
      "t": 79783.05610000003,
      "d": 566.0380000000005,
      "v": 80
    },
    {
      "midi": 64,
      "hit": false,
      "t": 80330.2261666667,
      "d": 283.01900000000023,
      "v": 80
    },
    {
      "midi": 62,
      "hit": false,
      "t": 80613.2451666667,
      "d": 283.01900000000023,
      "v": 80
    },
    {
      "midi": 67,
      "hit": false,
      "t": 80674.56595,
      "d": 339.62279999999737,
      "v": 68
    },
    {
      "midi": 60,
      "hit": false,
      "t": 80915.13210000003,
      "d": 1132.076000000001,
      "v": 80
    },
    {
      "midi": 64,
      "hit": false,
      "t": 80957.58495,
      "d": 330.1888333333336,
      "v": 64
    },
    {
      "midi": 60,
      "hit": false,
      "t": 81250.03791666667,
      "d": 245.28313333333062,
      "v": 91
    },
    {
      "midi": 53,
      "hit": false,
      "t": 81509.472,
      "d": 924.5287333333399,
      "v": 54
    },
    {
      "midi": 69,
      "hit": false,
      "t": 81509.472,
      "d": 1132.076000000001,
      "v": 57
    },
    {
      "midi": 72,
      "hit": false,
      "t": 81509.472,
      "d": 1155.6609166666603,
      "v": 56
    },
    {
      "midi": 65,
      "hit": false,
      "t": 81509.472,
      "d": 1174.5288499999879,
      "v": 61
    },
    {
      "midi": 41,
      "hit": false,
      "t": 82358.529,
      "d": 1207.5477333333256,
      "v": 49
    },
    {
      "midi": 53,
      "hit": false,
      "t": 82641.548,
      "d": 1080.1891833333211,
      "v": 52
    },
    {
      "midi": 62,
      "hit": false,
      "t": 82641.54800000004,
      "d": 566.0380000000005,
      "v": 80
    },
    {
      "midi": 65,
      "hit": false,
      "t": 82924.56699999998,
      "d": 768.8682833333296,
      "v": 76
    },
    {
      "midi": 64,
      "hit": false,
      "t": 83207.58600000004,
      "d": 566.0380000000005,
      "v": 80
    },
    {
      "midi": 69,
      "hit": false,
      "t": 83490.60499999998,
      "d": 179.24536666666972,
      "v": 87
    },
    {
      "midi": 65,
      "hit": false,
      "t": 83773.62399999998,
      "d": 698.1135333333223,
      "v": 55
    },
    {
      "midi": 62,
      "hit": false,
      "t": 83773.62399999998,
      "d": 726.4154333333281,
      "v": 58
    },
    {
      "midi": 58,
      "hit": false,
      "t": 83773.62399999998,
      "d": 759.4343166666658,
      "v": 53
    },
    {
      "midi": 65,
      "hit": false,
      "t": 83773.62400000004,
      "d": 566.0380000000005,
      "v": 80
    },
    {
      "midi": 34,
      "hit": false,
      "t": 83797.20891666664,
      "d": 1962.2650666666595,
      "v": 33
    },
    {
      "midi": 64,
      "hit": false,
      "t": 84311.36010000003,
      "d": 566.0380000000005,
      "v": 80
    },
    {
      "midi": 65,
      "hit": false,
      "t": 84735.88859999998,
      "d": 443.3964333333279,
      "v": 58
    },
    {
      "midi": 62,
      "hit": false,
      "t": 84764.19049999998,
      "d": 419.8115166666539,
      "v": 61
    },
    {
      "midi": 58,
      "hit": false,
      "t": 84816.07731666665,
      "d": 297.1699499999959,
      "v": 85
    },
    {
      "midi": 62,
      "hit": false,
      "t": 84858.53016666671,
      "d": 566.0380000000005,
      "v": 80
    },
    {
      "midi": 58,
      "hit": false,
      "t": 85184.00201666664,
      "d": 292.452966666664,
      "v": 91
    },
    {
      "midi": 60,
      "hit": false,
      "t": 85424.56816666671,
      "d": 566.0380000000005,
      "v": 80
    },
    {
      "midi": 62,
      "hit": false,
      "t": 85476.4549833333,
      "d": 301.88693333332776,
      "v": 70
    },
    {
      "midi": 65,
      "hit": false,
      "t": 85768.90794999996,
      "d": 122.64156666665804,
      "v": 68
    },
    {
      "midi": 62,
      "hit": false,
      "t": 86047.2099666667,
      "d": 566.0380000000005,
      "v": 80
    },
    {
      "midi": 56,
      "hit": false,
      "t": 86056.64393333328,
      "d": 1287.7364499999967,
      "v": 74
    },
    {
      "midi": 59,
      "hit": false,
      "t": 86056.64393333328,
      "d": 1287.7364499999967,
      "v": 74
    },
    {
      "midi": 64,
      "hit": false,
      "t": 86056.64393333328,
      "d": 1287.7364499999967,
      "v": 74
    },
    {
      "midi": 64,
      "hit": false,
      "t": 87160.41803333338,
      "d": 566.0380000000005,
      "v": 80
    },
    {
      "midi": 52,
      "hit": false,
      "t": 87467.02194999995,
      "d": 320.75486666666984,
      "v": 78
    },
    {
      "midi": 62,
      "hit": false,
      "t": 87726.45603333338,
      "d": 566.0380000000005,
      "v": 80
    },
    {
      "midi": 56,
      "hit": false,
      "t": 87745.32396666662,
      "d": 396.2265999999945,
      "v": 74
    },
    {
      "midi": 59,
      "hit": false,
      "t": 87745.32396666662,
      "d": 396.2265999999945,
      "v": 74
    },
    {
      "midi": 64,
      "hit": false,
      "t": 87745.32396666662,
      "d": 396.2265999999945,
      "v": 74
    },
    {
      "midi": 57,
      "hit": false,
      "t": 88301.92799999994,
      "d": 367.9247000000032,
      "v": 68
    },
    {
      "midi": 60,
      "hit": false,
      "t": 88301.92799999994,
      "d": 367.9247000000032,
      "v": 68
    },
    {
      "midi": 64,
      "hit": false,
      "t": 88301.92799999994,
      "d": 367.9247000000032,
      "v": 68
    },
    {
      "midi": 60,
      "hit": false,
      "t": 88301.92800000004,
      "d": 566.0380000000005,
      "v": 80
    },
    {
      "midi": 45,
      "hit": false,
      "t": 88584.94699999994,
      "d": 551.8870500000048,
      "v": 78
    },
    {
      "midi": 57,
      "hit": false,
      "t": 88867.96599999994,
      "d": 316.03788333333796,
      "v": 80
    },
    {
      "midi": 60,
      "hit": false,
      "t": 88867.96599999994,
      "d": 316.03788333333796,
      "v": 80
    },
    {
      "midi": 64,
      "hit": false,
      "t": 88867.96599999994,
      "d": 316.03788333333796,
      "v": 80
    },
    {
      "midi": 60,
      "hit": false,
      "t": 88886.83393333337,
      "d": 566.0380000000005,
      "v": 80
    },
    {
      "midi": 55,
      "hit": false,
      "t": 89434.00399999994,
      "d": 367.9247000000032,
      "v": 68
    },
    {
      "midi": 59,
      "hit": false,
      "t": 89434.00399999994,
      "d": 367.9247000000032,
      "v": 68
    },
    {
      "midi": 62,
      "hit": false,
      "t": 89434.00399999994,
      "d": 367.9247000000032,
      "v": 68
    },
    {
      "midi": 60,
      "hit": false,
      "t": 89452.87193333337,
      "d": 566.0380000000005,
      "v": 80
    },
    {
      "midi": 43,
      "hit": false,
      "t": 89717.02299999994,
      "d": 551.8870500000048,
      "v": 78
    },
    {
      "midi": 55,
      "hit": false,
      "t": 90000.04199999994,
      "d": 316.03788333333796,
      "v": 80
    },
    {
      "midi": 59,
      "hit": false,
      "t": 90000.04199999994,
      "d": 316.03788333333796,
      "v": 80
    },
    {
      "midi": 62,
      "hit": false,
      "t": 90000.04199999994,
      "d": 316.03788333333796,
      "v": 80
    },
    {
      "midi": 62,
      "hit": false,
      "t": 90018.90993333337,
      "d": 566.0380000000005,
      "v": 80
    },
    {
      "midi": 64,
      "hit": false,
      "t": 90566.08000000005,
      "d": 566.0380000000005,
      "v": 80
    },
    {
      "midi": 57,
      "hit": false,
      "t": 90580.23094999995,
      "d": 844.3400166666543,
      "v": 82
    },
    {
      "midi": 61,
      "hit": false,
      "t": 90580.23094999995,
      "d": 844.3400166666543,
      "v": 82
    },
    {
      "midi": 64,
      "hit": false,
      "t": 90580.23094999995,
      "d": 844.3400166666543,
      "v": 82
    },
    {
      "midi": 45,
      "hit": false,
      "t": 91405.70303333328,
      "d": 1377.3591333333316,
      "v": 63
    },
    {
      "midi": 62,
      "hit": false,
      "t": 91698.15600000005,
      "d": 566.0380000000005,
      "v": 80
    },
    {
      "midi": 57,
      "hit": false,
      "t": 91707.58996666661,
      "d": 1084.9061666666676,
      "v": 66
    },
    {
      "midi": 61,
      "hit": false,
      "t": 91981.17499999994,
      "d": 792.4532000000036,
      "v": 68
    },
    {
      "midi": 64,
      "hit": false,
      "t": 92254.76003333338,
      "d": 566.0380000000005,
      "v": 80
    },
    {
      "midi": 64,
      "hit": false,
      "t": 92283.06193333329,
      "d": 481.1322999999975,
      "v": 82
    },
    {
      "midi": 69,
      "hit": false,
      "t": 92537.77903333328,
      "d": 226.4152000000031,
      "v": 59
    },
    {
      "midi": 65,
      "hit": false,
      "t": 92830.23200000005,
      "d": 566.0380000000005,
      "v": 80
    },
    {
      "midi": 57,
      "hit": false,
      "t": 92867.96786666662,
      "d": 2037.7367999999988,
      "v": 78
    },
    {
      "midi": 62,
      "hit": false,
      "t": 92867.96786666662,
      "d": 2037.7367999999988,
      "v": 78
    },
    {
      "midi": 65,
      "hit": false,
      "t": 92867.96786666662,
      "d": 2037.7367999999988,
      "v": 78
    },
    {
      "midi": 65,
      "hit": false,
      "t": 93905.70420000005,
      "d": 566.0380000000005,
      "v": 80
    },
    {
      "midi": 64,
      "hit": false,
      "t": 94471.74220000005,
      "d": 566.0380000000005,
      "v": 80
    },
    {
      "midi": 62,
      "hit": false,
      "t": 95094.38400000005,
      "d": 566.0380000000005,
      "v": 80
    },
    {
      "midi": 55,
      "hit": false,
      "t": 95108.53494999994,
      "d": 844.3400166666543,
      "v": 82
    },
    {
      "midi": 59,
      "hit": false,
      "t": 95108.53494999994,
      "d": 844.3400166666543,
      "v": 82
    },
    {
      "midi": 62,
      "hit": false,
      "t": 95108.53494999994,
      "d": 844.3400166666543,
      "v": 82
    },
    {
      "midi": 43,
      "hit": false,
      "t": 95934.00703333327,
      "d": 1377.3591333333316,
      "v": 63
    },
    {
      "midi": 55,
      "hit": false,
      "t": 96235.8939666666,
      "d": 1084.9061666666676,
      "v": 66
    },
    {
      "midi": 67,
      "hit": false,
      "t": 96245.32793333338,
      "d": 566.0380000000005,
      "v": 80
    },
    {
      "midi": 59,
      "hit": false,
      "t": 96509.47899999993,
      "d": 792.4532000000036,
      "v": 68
    },
    {
      "midi": 62,
      "hit": false,
      "t": 96811.36593333328,
      "d": 481.1322999999975,
      "v": 82
    },
    {
      "midi": 65,
      "hit": false,
      "t": 96830.2338666667,
      "d": 566.0380000000005,
      "v": 80
    },
    {
      "midi": 67,
      "hit": false,
      "t": 97066.08303333327,
      "d": 226.4152000000031,
      "v": 59
    },
    {
      "midi": 64,
      "hit": false,
      "t": 97358.53600000004,
      "d": 566.0380000000005,
      "v": 80
    },
    {
      "midi": 55,
      "hit": false,
      "t": 97396.2718666666,
      "d": 2037.7367999999988,
      "v": 78
    },
    {
      "midi": 60,
      "hit": false,
      "t": 97396.2718666666,
      "d": 2037.7367999999988,
      "v": 78
    },
    {
      "midi": 64,
      "hit": false,
      "t": 97396.2718666666,
      "d": 2037.7367999999988,
      "v": 78
    },
    {
      "midi": 65,
      "hit": false,
      "t": 97867.97020000004,
      "d": 566.0380000000005,
      "v": 80
    },
    {
      "midi": 64,
      "hit": false,
      "t": 98452.87613333337,
      "d": 283.01900000000023,
      "v": 80
    },
    {
      "midi": 62,
      "hit": false,
      "t": 98679.29133333337,
      "d": 283.0189999999857,
      "v": 80
    },
    {
      "midi": 60,
      "hit": false,
      "t": 98943.44240000003,
      "d": 1132.076000000001,
      "v": 80
    },
    {
      "midi": 57,
      "hit": false,
      "t": 99636.83894999993,
      "d": 1632.0762333333405,
      "v": 87
    },
    {
      "midi": 60,
      "hit": false,
      "t": 99636.83894999993,
      "d": 1632.0762333333405,
      "v": 87
    },
    {
      "midi": 65,
      "hit": false,
      "t": 99636.83894999993,
      "d": 1632.0762333333405,
      "v": 87
    },
    {
      "midi": 62,
      "hit": false,
      "t": 100773.63193333337,
      "d": 566.0380000000005,
      "v": 80
    },
    {
      "midi": 72,
      "hit": false,
      "t": 101051.93394999993,
      "d": 339.62279999999737,
      "v": 68
    },
    {
      "midi": 64,
      "hit": false,
      "t": 101320.80200000004,
      "d": 566.0380000000005,
      "v": 80
    },
    {
      "midi": 69,
      "hit": false,
      "t": 101334.95294999993,
      "d": 330.1888333333336,
      "v": 64
    },
    {
      "midi": 65,
      "hit": false,
      "t": 101627.4059166666,
      "d": 245.28313333333062,
      "v": 91
    },
    {
      "midi": 53,
      "hit": false,
      "t": 101886.83999999992,
      "d": 1858.491433333329,
      "v": 72
    },
    {
      "midi": 62,
      "hit": false,
      "t": 101886.83999999992,
      "d": 1858.491433333329,
      "v": 72
    },
    {
      "midi": 62,
      "hit": false,
      "t": 101886.84000000004,
      "d": 566.0380000000005,
      "v": 80
    },
    {
      "midi": 62,
      "hit": false,
      "t": 102452.87800000004,
      "d": 566.0380000000005,
      "v": 80
    },
    {
      "midi": 62,
      "hit": false,
      "t": 103018.91600000004,
      "d": 566.0380000000005,
      "v": 80
    },
    {
      "midi": 60,
      "hit": false,
      "t": 103584.95400000004,
      "d": 566.0380000000005,
      "v": 80
    },
    {
      "midi": 58,
      "hit": false,
      "t": 103603.82193333325,
      "d": 141.50950000000012,
      "v": 61
    },
    {
      "midi": 62,
      "hit": false,
      "t": 103750.04841666658,
      "d": 198.11329999999725,
      "v": 74
    },
    {
      "midi": 65,
      "hit": false,
      "t": 103891.55791666658,
      "d": 183.9623500000016,
      "v": 68
    },
    {
      "midi": 70,
      "hit": false,
      "t": 104037.78439999992,
      "d": 103.77363333333051,
      "v": 68
    },
    {
      "midi": 62,
      "hit": false,
      "t": 104150.99200000004,
      "d": 566.0380000000005,
      "v": 80
    },
    {
      "midi": 55,
      "hit": false,
      "t": 104165.1429499999,
      "d": 1632.0762333333405,
      "v": 87
    },
    {
      "midi": 59,
      "hit": false,
      "t": 104165.1429499999,
      "d": 1632.0762333333405,
      "v": 87
    },
    {
      "midi": 62,
      "hit": false,
      "t": 105580.23794999991,
      "d": 216.98123333333933,
      "v": 68
    },
    {
      "midi": 59,
      "hit": false,
      "t": 105849.10600000004,
      "d": 283.01900000000023,
      "v": 80
    },
    {
      "midi": 59,
      "hit": false,
      "t": 105863.25694999991,
      "d": 330.1888333333336,
      "v": 64
    },
    {
      "midi": 60,
      "hit": false,
      "t": 106094.38913333337,
      "d": 283.01900000000023,
      "v": 80
    },
    {
      "midi": 55,
      "hit": false,
      "t": 106155.70991666657,
      "d": 245.28313333333062,
      "v": 91
    },
    {
      "midi": 46,
      "hit": false,
      "t": 106415.1439999999,
      "d": 924.5287333333399,
      "v": 54
    },
    {
      "midi": 62,
      "hit": false,
      "t": 106415.1439999999,
      "d": 1132.076000000001,
      "v": 57
    },
    {
      "midi": 65,
      "hit": false,
      "t": 106415.1439999999,
      "d": 1155.6609166666603,
      "v": 56
    },
    {
      "midi": 58,
      "hit": false,
      "t": 106415.1439999999,
      "d": 1174.5288499999879,
      "v": 61
    },
    {
      "midi": 62,
      "hit": false,
      "t": 106415.14400000004,
      "d": 566.0380000000005,
      "v": 80
    },
    {
      "midi": 62,
      "hit": false,
      "t": 106981.18200000004,
      "d": 566.0380000000005,
      "v": 80
    },
    {
      "midi": 34,
      "hit": false,
      "t": 107264.2009999999,
      "d": 1207.5477333333256,
      "v": 49
    },
    {
      "midi": 46,
      "hit": false,
      "t": 107547.2199999999,
      "d": 1080.1891833333211,
      "v": 52
    },
    {
      "midi": 62,
      "hit": false,
      "t": 107547.22000000004,
      "d": 566.0380000000005,
      "v": 80
    },
    {
      "midi": 58,
      "hit": false,
      "t": 107830.23899999988,
      "d": 768.8682833333296,
      "v": 76
    },
    {
      "midi": 65,
      "hit": false,
      "t": 108113.25800000005,
      "d": 566.0380000000005,
      "v": 80
    },
    {
      "midi": 62,
      "hit": false,
      "t": 108396.27699999989,
      "d": 179.24536666666972,
      "v": 87
    },
    {
      "midi": 67,
      "hit": false,
      "t": 108679.29600000005,
      "d": 1132.076000000001,
      "v": 80
    },
    {
      "midi": 55,
      "hit": false,
      "t": 108693.44694999988,
      "d": 844.3400166666543,
      "v": 82
    },
    {
      "midi": 59,
      "hit": false,
      "t": 108693.44694999988,
      "d": 844.3400166666543,
      "v": 82
    },
    {
      "midi": 62,
      "hit": false,
      "t": 108693.44694999988,
      "d": 844.3400166666543,
      "v": 82
    },
    {
      "midi": 43,
      "hit": false,
      "t": 109518.91903333321,
      "d": 1377.3591333333316,
      "v": 63
    },
    {
      "midi": 62,
      "hit": false,
      "t": 109811.37200000005,
      "d": 566.0380000000005,
      "v": 80
    },
    {
      "midi": 55,
      "hit": false,
      "t": 109820.80596666654,
      "d": 1084.9061666666676,
      "v": 66
    },
    {
      "midi": 59,
      "hit": false,
      "t": 110094.39099999987,
      "d": 792.4532000000036,
      "v": 68
    },
    {
      "midi": 64,
      "hit": false,
      "t": 110377.41000000005,
      "d": 566.0380000000005,
      "v": 80
    },
    {
      "midi": 62,
      "hit": false,
      "t": 110396.27793333321,
      "d": 481.1322999999975,
      "v": 82
    },
    {
      "midi": 67,
      "hit": false,
      "t": 110650.99503333321,
      "d": 226.4152000000031,
      "v": 59
    },
    {
      "midi": 69,
      "hit": false,
      "t": 110943.44799999987,
      "d": 698.1135333333223,
      "v": 55
    },
    {
      "midi": 65,
      "hit": false,
      "t": 110943.44799999987,
      "d": 726.4154333333281,
      "v": 58
    },
    {
      "midi": 62,
      "hit": false,
      "t": 110943.44799999987,
      "d": 759.4343166666658,
      "v": 53
    },
    {
      "midi": 65,
      "hit": false,
      "t": 110943.44800000005,
      "d": 566.0380000000005,
      "v": 80
    },
    {
      "midi": 38,
      "hit": false,
      "t": 110967.03291666653,
      "d": 1962.2650666666595,
      "v": 33
    },
    {
      "midi": 69,
      "hit": false,
      "t": 111905.71259999987,
      "d": 443.3964333333279,
      "v": 58
    },
    {
      "midi": 65,
      "hit": false,
      "t": 111934.01449999987,
      "d": 419.8115166666539,
      "v": 61
    },
    {
      "midi": 62,
      "hit": false,
      "t": 111985.90131666654,
      "d": 297.1699499999959,
      "v": 85
    },
    {
      "midi": 65,
      "hit": false,
      "t": 112075.52400000005,
      "d": 566.0380000000005,
      "v": 80
    },
    {
      "midi": 62,
      "hit": false,
      "t": 112353.82601666653,
      "d": 292.452966666664,
      "v": 91
    },
    {
      "midi": 64,
      "hit": false,
      "t": 112622.69406666672,
      "d": 566.0380000000005,
      "v": 80
    },
    {
      "midi": 65,
      "hit": false,
      "t": 112646.27898333319,
      "d": 301.88693333332776,
      "v": 70
    },
    {
      "midi": 69,
      "hit": false,
      "t": 112938.73194999986,
      "d": 122.64156666665804,
      "v": 68
    },
    {
      "midi": 62,
      "hit": false,
      "t": 113207.60000000005,
      "d": 566.0380000000005,
      "v": 80
    },
    {
      "midi": 55,
      "hit": false,
      "t": 113221.75094999984,
      "d": 844.3400166666543,
      "v": 82
    },
    {
      "midi": 59,
      "hit": false,
      "t": 113221.75094999984,
      "d": 844.3400166666543,
      "v": 82
    },
    {
      "midi": 62,
      "hit": false,
      "t": 113221.75094999984,
      "d": 844.3400166666543,
      "v": 82
    },
    {
      "midi": 43,
      "hit": false,
      "t": 114047.22303333317,
      "d": 1377.3591333333316,
      "v": 63
    },
    {
      "midi": 67,
      "hit": false,
      "t": 114339.67600000005,
      "d": 566.0380000000005,
      "v": 80
    },
    {
      "midi": 55,
      "hit": false,
      "t": 114349.1099666665,
      "d": 1084.9061666666676,
      "v": 66
    },
    {
      "midi": 59,
      "hit": false,
      "t": 114622.69499999983,
      "d": 792.4532000000036,
      "v": 68
    },
    {
      "midi": 65,
      "hit": false,
      "t": 114905.71400000005,
      "d": 566.0380000000005,
      "v": 80
    },
    {
      "midi": 62,
      "hit": false,
      "t": 114924.58193333317,
      "d": 481.1322999999975,
      "v": 82
    },
    {
      "midi": 67,
      "hit": false,
      "t": 115179.29903333317,
      "d": 226.4152000000031,
      "v": 59
    },
    {
      "midi": 55,
      "hit": false,
      "t": 115471.75199999983,
      "d": 1858.491433333329,
      "v": 72
    },
    {
      "midi": 64,
      "hit": false,
      "t": 115471.75199999983,
      "d": 1858.491433333329,
      "v": 72
    },
    {
      "midi": 64,
      "hit": false,
      "t": 115471.75200000005,
      "d": 566.0380000000005,
      "v": 80
    },
    {
      "midi": 65,
      "hit": false,
      "t": 116056.65793333338,
      "d": 566.0380000000005,
      "v": 80
    },
    {
      "midi": 64,
      "hit": false,
      "t": 116622.69593333338,
      "d": 283.01900000000023,
      "v": 80
    },
    {
      "midi": 62,
      "hit": false,
      "t": 116886.84700000005,
      "d": 283.01900000000023,
      "v": 80
    },
    {
      "midi": 60,
      "hit": false,
      "t": 117169.86600000005,
      "d": 1132.076000000001,
      "v": 80
    },
    {
      "midi": 60,
      "hit": false,
      "t": 117188.73393333316,
      "d": 141.50950000000012,
      "v": 61
    },
    {
      "midi": 64,
      "hit": false,
      "t": 117334.9604166665,
      "d": 198.11329999999725,
      "v": 74
    },
    {
      "midi": 67,
      "hit": false,
      "t": 117476.4699166665,
      "d": 183.9623500000016,
      "v": 68
    },
    {
      "midi": 72,
      "hit": false,
      "t": 117622.69639999983,
      "d": 103.77363333333051,
      "v": 68
    },
    {
      "midi": 57,
      "hit": false,
      "t": 117754.77193333316,
      "d": 1287.7364499999967,
      "v": 74
    },
    {
      "midi": 60,
      "hit": false,
      "t": 117754.77193333316,
      "d": 1287.7364499999967,
      "v": 74
    },
    {
      "midi": 65,
      "hit": false,
      "t": 117754.77193333316,
      "d": 1287.7364499999967,
      "v": 74
    },
    {
      "midi": 62,
      "hit": false,
      "t": 118867.98000000005,
      "d": 566.0380000000005,
      "v": 80
    },
    {
      "midi": 53,
      "hit": false,
      "t": 119165.14994999983,
      "d": 320.75486666666984,
      "v": 78
    },
    {
      "midi": 64,
      "hit": false,
      "t": 119434.01800000005,
      "d": 566.0380000000005,
      "v": 80
    },
    {
      "midi": 57,
      "hit": false,
      "t": 119443.4519666665,
      "d": 396.2265999999945,
      "v": 74
    },
    {
      "midi": 60,
      "hit": false,
      "t": 119443.4519666665,
      "d": 396.2265999999945,
      "v": 74
    },
    {
      "midi": 65,
      "hit": false,
      "t": 119443.4519666665,
      "d": 396.2265999999945,
      "v": 74
    },
    {
      "midi": 65,
      "hit": false,
      "t": 120000.05600000006,
      "d": 566.0380000000005,
      "v": 80
    },
    {
      "midi": 53,
      "hit": false,
      "t": 120014.20694999983,
      "d": 844.3400166666543,
      "v": 82
    },
    {
      "midi": 58,
      "hit": false,
      "t": 120014.20694999983,
      "d": 844.3400166666543,
      "v": 82
    },
    {
      "midi": 62,
      "hit": false,
      "t": 120014.20694999983,
      "d": 844.3400166666543,
      "v": 82
    },
    {
      "midi": 64,
      "hit": false,
      "t": 120547.22606666673,
      "d": 566.0380000000005,
      "v": 80
    },
    {
      "midi": 46,
      "hit": false,
      "t": 120839.67903333316,
      "d": 1377.3591333333316,
      "v": 63
    },
    {
      "midi": 62,
      "hit": false,
      "t": 121075.52820000006,
      "d": 566.0380000000005,
      "v": 80
    },
    {
      "midi": 58,
      "hit": false,
      "t": 121141.56596666649,
      "d": 1084.9061666666676,
      "v": 66
    },
    {
      "midi": 62,
      "hit": false,
      "t": 121415.15099999982,
      "d": 792.4532000000036,
      "v": 68
    },
    {
      "midi": 60,
      "hit": false,
      "t": 121660.43413333339,
      "d": 566.0380000000005,
      "v": 80
    },
    {
      "midi": 65,
      "hit": false,
      "t": 121717.03793333317,
      "d": 481.1322999999975,
      "v": 82
    },
    {
      "midi": 70,
      "hit": false,
      "t": 121971.75503333316,
      "d": 226.4152000000031,
      "v": 59
    },
    {
      "midi": 62,
      "hit": false,
      "t": 122264.20800000006,
      "d": 566.0380000000005,
      "v": 80
    },
    {
      "midi": 56,
      "hit": false,
      "t": 122283.07593333315,
      "d": 1287.7364499999967,
      "v": 74
    },
    {
      "midi": 59,
      "hit": false,
      "t": 122283.07593333315,
      "d": 1287.7364499999967,
      "v": 74
    },
    {
      "midi": 64,
      "hit": false,
      "t": 122283.07593333315,
      "d": 1287.7364499999967,
      "v": 74
    },
    {
      "midi": 64,
      "hit": false,
      "t": 123396.28400000006,
      "d": 566.0380000000005,
      "v": 80
    },
    {
      "midi": 52,
      "hit": false,
      "t": 123693.45394999982,
      "d": 320.75486666666984,
      "v": 78
    },
    {
      "midi": 62,
      "hit": false,
      "t": 123943.45406666673,
      "d": 566.0380000000005,
      "v": 80
    },
    {
      "midi": 56,
      "hit": false,
      "t": 123971.75596666649,
      "d": 396.2265999999945,
      "v": 74
    },
    {
      "midi": 59,
      "hit": false,
      "t": 123971.75596666649,
      "d": 396.2265999999945,
      "v": 74
    },
    {
      "midi": 64,
      "hit": false,
      "t": 123971.75596666649,
      "d": 396.2265999999945,
      "v": 74
    },
    {
      "midi": 60,
      "hit": false,
      "t": 124528.36000000006,
      "d": 566.0380000000005,
      "v": 80
    },
    {
      "midi": 57,
      "hit": false,
      "t": 124811.37899999981,
      "d": 570.7549833333323,
      "v": 68
    },
    {
      "midi": 60,
      "hit": false,
      "t": 125094.39799999981,
      "d": 382.07564999999886,
      "v": 85
    },
    {
      "midi": 60,
      "hit": false,
      "t": 125113.26593333339,
      "d": 566.0380000000005,
      "v": 80
    },
    {
      "midi": 64,
      "hit": false,
      "t": 125377.41699999981,
      "d": 117.92458333332615,
      "v": 87
    },
    {
      "midi": 60,
      "hit": false,
      "t": 125679.30393333339,
      "d": 566.0380000000005,
      "v": 80
    },
    {
      "midi": 55,
      "hit": false,
      "t": 125943.4549999998,
      "d": 570.7549833333323,
      "v": 68
    },
    {
      "midi": 59,
      "hit": false,
      "t": 126226.4739999998,
      "d": 382.07564999999886,
      "v": 85
    },
    {
      "midi": 62,
      "hit": false,
      "t": 126245.34193333339,
      "d": 283.01900000000023,
      "v": 80
    },
    {
      "midi": 62,
      "hit": false,
      "t": 126509.4929999998,
      "d": 117.92458333332615,
      "v": 87
    },
    {
      "midi": 64,
      "hit": false,
      "t": 126509.49300000006,
      "d": 283.01900000000023,
      "v": 80
    },
    {
      "midi": 64,
      "hit": false,
      "t": 126792.51200000006,
      "d": 566.0380000000005,
      "v": 80
    },
    {
      "midi": 57,
      "hit": false,
      "t": 126806.6629499998,
      "d": 844.3400166666543,
      "v": 82
    },
    {
      "midi": 61,
      "hit": false,
      "t": 126806.6629499998,
      "d": 844.3400166666543,
      "v": 82
    },
    {
      "midi": 64,
      "hit": false,
      "t": 126806.6629499998,
      "d": 844.3400166666543,
      "v": 82
    },
    {
      "midi": 45,
      "hit": false,
      "t": 127632.13503333312,
      "d": 1377.3591333333316,
      "v": 63
    },
    {
      "midi": 62,
      "hit": false,
      "t": 127924.58800000006,
      "d": 566.0380000000005,
      "v": 80
    },
    {
      "midi": 57,
      "hit": false,
      "t": 127934.02196666645,
      "d": 1084.9061666666676,
      "v": 66
    },
    {
      "midi": 61,
      "hit": false,
      "t": 128207.60699999979,
      "d": 792.4532000000036,
      "v": 68
    },
    {
      "midi": 64,
      "hit": false,
      "t": 128490.62600000006,
      "d": 566.0380000000005,
      "v": 80
    },
    {
      "midi": 64,
      "hit": false,
      "t": 128509.49393333313,
      "d": 481.1322999999975,
      "v": 82
    },
    {
      "midi": 69,
      "hit": false,
      "t": 128764.21103333312,
      "d": 226.4152000000031,
      "v": 59
    },
    {
      "midi": 69,
      "hit": false,
      "t": 129056.66399999979,
      "d": 698.1135333333223,
      "v": 55
    },
    {
      "midi": 65,
      "hit": false,
      "t": 129056.66399999979,
      "d": 726.4154333333281,
      "v": 58
    },
    {
      "midi": 62,
      "hit": false,
      "t": 129056.66399999979,
      "d": 759.4343166666658,
      "v": 53
    },
    {
      "midi": 65,
      "hit": false,
      "t": 129056.66400000006,
      "d": 566.0380000000005,
      "v": 80
    },
    {
      "midi": 38,
      "hit": false,
      "t": 129080.24891666645,
      "d": 1962.2650666666595,
      "v": 33
    },
    {
      "midi": 69,
      "hit": false,
      "t": 130018.92859999978,
      "d": 443.3964333333279,
      "v": 58
    },
    {
      "midi": 65,
      "hit": false,
      "t": 130047.23049999979,
      "d": 419.8115166666539,
      "v": 61
    },
    {
      "midi": 62,
      "hit": false,
      "t": 130099.11731666645,
      "d": 297.1699499999959,
      "v": 85
    },
    {
      "midi": 65,
      "hit": false,
      "t": 130188.74000000006,
      "d": 566.0380000000005,
      "v": 80
    },
    {
      "midi": 62,
      "hit": false,
      "t": 130467.04201666644,
      "d": 292.452966666664,
      "v": 91
    },
    {
      "midi": 64,
      "hit": false,
      "t": 130754.77800000006,
      "d": 188.6793333333335,
      "v": 80
    },
    {
      "midi": 65,
      "hit": false,
      "t": 130759.4949833331,
      "d": 301.88693333332776,
      "v": 70
    },
    {
      "midi": 65,
      "hit": false,
      "t": 130962.32526666672,
      "d": 188.67933333331894,
      "v": 80
    },
    {
      "midi": 69,
      "hit": false,
      "t": 131051.94794999977,
      "d": 122.64156666665804,
      "v": 68
    },
    {
      "midi": 64,
      "hit": false,
      "t": 131132.13666666672,
      "d": 188.6793333333335,
      "v": 80
    },
    {
      "midi": 62,
      "hit": false,
      "t": 131320.81600000005,
      "d": 566.0380000000005,
      "v": 80
    },
    {
      "midi": 55,
      "hit": false,
      "t": 131358.5518666664,
      "d": 2037.7368000000133,
      "v": 78
    },
    {
      "midi": 59,
      "hit": false,
      "t": 131358.5518666664,
      "d": 2037.7368000000133,
      "v": 78
    },
    {
      "midi": 62,
      "hit": false,
      "t": 131358.5518666664,
      "d": 2037.7368000000133,
      "v": 78
    },
    {
      "midi": 67,
      "hit": false,
      "t": 132452.89200000005,
      "d": 566.0380000000005,
      "v": 80
    },
    {
      "midi": 65,
      "hit": false,
      "t": 133018.93000000005,
      "d": 566.0380000000005,
      "v": 80
    },
    {
      "midi": 64,
      "hit": false,
      "t": 133584.96800000005,
      "d": 566.0380000000005,
      "v": 80
    },
    {
      "midi": 55,
      "hit": false,
      "t": 133599.11894999977,
      "d": 844.3400166666543,
      "v": 82
    },
    {
      "midi": 60,
      "hit": false,
      "t": 133599.11894999977,
      "d": 844.3400166666543,
      "v": 82
    },
    {
      "midi": 64,
      "hit": false,
      "t": 133599.11894999977,
      "d": 844.3400166666543,
      "v": 82
    },
    {
      "midi": 65,
      "hit": false,
      "t": 134151.00600000005,
      "d": 566.0380000000005,
      "v": 80
    },
    {
      "midi": 48,
      "hit": false,
      "t": 134424.5910333331,
      "d": 1377.359133333346,
      "v": 63
    },
    {
      "midi": 64,
      "hit": false,
      "t": 134717.04400000005,
      "d": 283.01900000000023,
      "v": 80
    },
    {
      "midi": 60,
      "hit": false,
      "t": 134726.47796666643,
      "d": 1084.906166666682,
      "v": 66
    },
    {
      "midi": 62,
      "hit": false,
      "t": 134981.19506666673,
      "d": 283.01900000000023,
      "v": 80
    },
    {
      "midi": 64,
      "hit": false,
      "t": 135000.06299999976,
      "d": 792.4532000000181,
      "v": 68
    },
    {
      "midi": 60,
      "hit": false,
      "t": 135264.21406666673,
      "d": 1132.076000000001,
      "v": 80
    },
    {
      "midi": 67,
      "hit": false,
      "t": 135301.9499333331,
      "d": 481.1322999999975,
      "v": 82
    },
    {
      "midi": 72,
      "hit": false,
      "t": 135556.6670333331,
      "d": 226.41519999998854,
      "v": 59
    },
    {
      "midi": 72,
      "hit": false,
      "t": 135849.11999999976,
      "d": 698.1135333333223,
      "v": 55
    },
    {
      "midi": 69,
      "hit": false,
      "t": 135849.11999999976,
      "d": 726.4154333333136,
      "v": 58
    },
    {
      "midi": 65,
      "hit": false,
      "t": 135849.11999999976,
      "d": 759.4343166666513,
      "v": 53
    },
    {
      "midi": 41,
      "hit": false,
      "t": 135872.70491666644,
      "d": 1962.265066666674,
      "v": 33
    },
    {
      "midi": 72,
      "hit": false,
      "t": 136811.38459999976,
      "d": 443.39643333334243,
      "v": 58
    },
    {
      "midi": 69,
      "hit": false,
      "t": 136839.68649999975,
      "d": 419.81151666669757,
      "v": 61
    },
    {
      "midi": 65,
      "hit": false,
      "t": 136891.5733166664,
      "d": 297.16995000001043,
      "v": 85
    },
    {
      "midi": 62,
      "hit": false,
      "t": 136981.19600000005,
      "d": 566.0380000000005,
      "v": 80
    },
    {
      "midi": 65,
      "hit": false,
      "t": 137259.49801666645,
      "d": 292.452966666664,
      "v": 91
    },
    {
      "midi": 64,
      "hit": false,
      "t": 137547.23400000005,
      "d": 566.0380000000005,
      "v": 80
    },
    {
      "midi": 69,
      "hit": false,
      "t": 137551.9509833331,
      "d": 301.88693333332776,
      "v": 70
    },
    {
      "midi": 72,
      "hit": false,
      "t": 137844.40394999977,
      "d": 122.64156666665804,
      "v": 68
    },
    {
      "midi": 46,
      "hit": false,
      "t": 138113.27199999976,
      "d": 924.5287333333399,
      "v": 54
    },
    {
      "midi": 62,
      "hit": false,
      "t": 138113.27199999976,
      "d": 1132.076000000001,
      "v": 57
    },
    {
      "midi": 65,
      "hit": false,
      "t": 138113.27199999976,
      "d": 1155.660916666675,
      "v": 56
    },
    {
      "midi": 58,
      "hit": false,
      "t": 138113.27199999976,
      "d": 1174.5288500000024,
      "v": 61
    },
    {
      "midi": 65,
      "hit": false,
      "t": 138113.27200000006,
      "d": 566.0380000000005,
      "v": 80
    },
    {
      "midi": 64,
      "hit": false,
      "t": 138679.31000000006,
      "d": 566.0380000000005,
      "v": 80
    },
    {
      "midi": 34,
      "hit": false,
      "t": 138962.32899999977,
      "d": 1207.5477333333401,
      "v": 49
    },
    {
      "midi": 46,
      "hit": false,
      "t": 139245.34799999977,
      "d": 1080.1891833333357,
      "v": 52
    },
    {
      "midi": 62,
      "hit": false,
      "t": 139245.34800000006,
      "d": 566.0380000000005,
      "v": 80
    },
    {
      "midi": 58,
      "hit": false,
      "t": 139528.36699999977,
      "d": 768.8682833333442,
      "v": 76
    },
    {
      "midi": 60,
      "hit": false,
      "t": 139811.38600000006,
      "d": 566.0380000000005,
      "v": 80
    },
    {
      "midi": 62,
      "hit": false,
      "t": 140094.40499999977,
      "d": 179.24536666666972,
      "v": 87
    },
    {
      "midi": 62,
      "hit": false,
      "t": 140377.42400000006,
      "d": 566.0380000000005,
      "v": 80
    },
    {
      "midi": 55,
      "hit": false,
      "t": 140396.2919333331,
      "d": 1287.7364499999967,
      "v": 74
    },
    {
      "midi": 59,
      "hit": false,
      "t": 140396.2919333331,
      "d": 1287.7364499999967,
      "v": 74
    },
    {
      "midi": 62,
      "hit": false,
      "t": 140396.2919333331,
      "d": 1287.7364499999967,
      "v": 74
    },
    {
      "midi": 60,
      "hit": false,
      "t": 141509.50000000006,
      "d": 566.0380000000005,
      "v": 80
    },
    {
      "midi": 43,
      "hit": false,
      "t": 141806.66994999975,
      "d": 320.7548666666553,
      "v": 78
    },
    {
      "midi": 59,
      "hit": false,
      "t": 142075.53800000006,
      "d": 566.0380000000005,
      "v": 80
    },
    {
      "midi": 55,
      "hit": false,
      "t": 142084.9719666664,
      "d": 396.2265999999945,
      "v": 74
    },
    {
      "midi": 59,
      "hit": false,
      "t": 142084.9719666664,
      "d": 396.2265999999945,
      "v": 74
    },
    {
      "midi": 62,
      "hit": false,
      "t": 142084.9719666664,
      "d": 396.2265999999945,
      "v": 74
    },
    {
      "midi": 60,
      "hit": false,
      "t": 142641.57600000006,
      "d": 1698.1140000000014,
      "v": 80
    },
    {
      "midi": 55,
      "hit": false,
      "t": 142655.72694999972,
      "d": 1632.076233333326,
      "v": 87
    },
    {
      "midi": 60,
      "hit": false,
      "t": 142655.72694999972,
      "d": 1632.076233333326,
      "v": 87
    },
    {
      "midi": 64,
      "hit": false,
      "t": 142655.72694999972,
      "d": 1632.076233333326,
      "v": 87
    },
    {
      "midi": 67,
      "hit": false,
      "t": 144070.82194999972,
      "d": 339.6228000000119,
      "v": 68
    },
    {
      "midi": 64,
      "hit": false,
      "t": 144353.84094999972,
      "d": 330.18883333331905,
      "v": 64
    },
    {
      "midi": 60,
      "hit": false,
      "t": 144646.2939166664,
      "d": 245.28313333331607,
      "v": 91
    },
    {
      "midi": 55,
      "hit": false,
      "t": 144919.8789499997,
      "d": 844.3400166666543,
      "v": 82
    },
    {
      "midi": 60,
      "hit": false,
      "t": 144919.8789499997,
      "d": 844.3400166666543,
      "v": 82
    },
    {
      "midi": 64,
      "hit": false,
      "t": 144919.8789499997,
      "d": 844.3400166666543,
      "v": 82
    },
    {
      "midi": 48,
      "hit": false,
      "t": 145745.35103333302,
      "d": 1377.359133333346,
      "v": 63
    },
    {
      "midi": 60,
      "hit": false,
      "t": 146047.23796666635,
      "d": 1084.906166666682,
      "v": 66
    },
    {
      "midi": 64,
      "hit": false,
      "t": 146320.82299999968,
      "d": 792.4532000000181,
      "v": 68
    },
    {
      "midi": 67,
      "hit": false,
      "t": 146622.709933333,
      "d": 481.1322999999975,
      "v": 82
    },
    {
      "midi": 72,
      "hit": false,
      "t": 146877.42703333302,
      "d": 226.41519999998854,
      "v": 59
    },
    {
      "midi": 52,
      "hit": false,
      "t": 147169.87999999968,
      "d": 3004.7183833333256,
      "v": 82
    },
    {
      "midi": 55,
      "hit": false,
      "t": 147169.87999999968,
      "d": 3004.7183833333256,
      "v": 82
    },
    {
      "midi": 60,
      "hit": false,
      "t": 147169.87999999968,
      "d": 3004.7183833333256,
      "v": 82
    },
    {
      "midi": 48,
      "hit": false,
      "t": 150283.0889999997,
      "d": 301.88693333332776,
      "v": 59
    },
    {
      "midi": 52,
      "hit": false,
      "t": 150566.1079999997,
      "d": 561.321016666654,
      "v": 68
    },
    {
      "midi": 55,
      "hit": false,
      "t": 150566.1079999997,
      "d": 561.321016666654,
      "v": 68
    },
    {
      "midi": 60,
      "hit": false,
      "t": 150566.1079999997,
      "d": 561.321016666654,
      "v": 68
    }
  ]
}