{
  "jsonPath": "World/German Pop/Blue System/hello-america.json",
  "path": "World\\German Pop\\Blue System\\Hello America.mid",
  "name": "Hello America",
  "difficulty": "Advanced",
  "bpm": 80,
  "notes": [
    {
      "midi": 55,
      "hit": false,
      "t": 3000,
      "d": 3000,
      "v": 127
    },
    {
      "midi": 59,
      "hit": false,
      "t": 3093.75,
      "d": 2250,
      "v": 127
    },
    {
      "midi": 62,
      "hit": false,
      "t": 3187.5,
      "d": 2250,
      "v": 127
    },
    {
      "midi": 67,
      "hit": false,
      "t": 3281.25,
      "d": 2250,
      "v": 127
    },
    {
      "midi": 59,
      "hit": false,
      "t": 6000,
      "d": 3000,
      "v": 127
    },
    {
      "midi": 62,
      "hit": false,
      "t": 6093.75,
      "d": 2250,
      "v": 127
    },
    {
      "midi": 66,
      "hit": false,
      "t": 6187.5,
      "d": 2250,
      "v": 127
    },
    {
      "midi": 71,
      "hit": false,
      "t": 6281.25,
      "d": 2250,
      "v": 127
    },
    {
      "midi": 60,
      "hit": false,
      "t": 9000,
      "d": 3000,
      "v": 127
    },
    {
      "midi": 64,
      "hit": false,
      "t": 9093.75,
      "d": 2250,
      "v": 127
    },
    {
      "midi": 67,
      "hit": false,
      "t": 9187.5,
      "d": 2250,
      "v": 127
    },
    {
      "midi": 72,
      "hit": false,
      "t": 9281.25,
      "d": 2250,
      "v": 127
    },
    {
      "midi": 59,
      "hit": false,
      "t": 12000,
      "d": 750,
      "v": 127
    },
    {
      "midi": 62,
      "hit": false,
      "t": 12375,
      "d": 375,
      "v": 127
    },
    {
      "midi": 66,
      "hit": false,
      "t": 12750,
      "d": 375,
      "v": 127
    },
    {
      "midi": 71,
      "hit": false,
      "t": 13125,
      "d": 375,
      "v": 127
    },
    {
      "midi": 62,
      "hit": false,
      "t": 13500,
      "d": 375,
      "v": 127
    },
    {
      "midi": 66,
      "hit": false,
      "t": 13875,
      "d": 187.5,
      "v": 127
    },
    {
      "midi": 69,
      "hit": false,
      "t": 14062.5,
      "d": 187.5,
      "v": 127
    },
    {
      "midi": 74,
      "hit": false,
      "t": 14250,
      "d": 187.5,
      "v": 127
    },
    {
      "midi": 69,
      "hit": false,
      "t": 14437.5,
      "d": 187.5,
      "v": 127
    },
    {
      "midi": 74,
      "hit": false,
      "t": 14625,
      "d": 187.5,
      "v": 127
    },
    {
      "midi": 78,
      "hit": false,
      "t": 14812.5,
      "d": 187.5,
      "v": 127
    },
    {
      "midi": 52,
      "hit": false,
      "t": 15000,
      "d": 750,
      "v": 127
    },
    {
      "midi": 55,
      "hit": false,
      "t": 15000,
      "d": 750,
      "v": 127
    },
    {
      "midi": 60,
      "hit": false,
      "t": 15000,
      "d": 750,
      "v": 127
    },
    {
      "midi": 67,
      "hit": false,
      "t": 15750,
      "d": 375,
      "v": 127
    },
    {
      "midi": 64,
      "hit": false,
      "t": 16125,
      "d": 375,
      "v": 127
    },
    {
      "midi": 60,
      "hit": false,
      "t": 16500,
      "d": 375,
      "v": 127
    },
    {
      "midi": 55,
      "hit": false,
      "t": 16875,
      "d": 375,
      "v": 127
    },
    {
      "midi": 64,
      "hit": false,
      "t": 16875,
      "d": 375,
      "v": 127
    },
    {
      "midi": 72,
      "hit": false,
      "t": 16875,
      "d": 375,
      "v": 127
    },
    {
      "midi": 55,
      "hit": false,
      "t": 17250,
      "d": 750,
      "v": 127
    },
    {
      "midi": 60,
      "hit": false,
      "t": 17250,
      "d": 750,
      "v": 127
    },
    {
      "midi": 67,
      "hit": false,
      "t": 17250,
      "d": 750,
      "v": 127
    },
    {
      "midi": 59,
      "hit": false,
      "t": 18000,
      "d": 750,
      "v": 127
    },
    {
      "midi": 62,
      "hit": false,
      "t": 18000,
      "d": 750,
      "v": 127
    },
    {
      "midi": 55,
      "hit": false,
      "t": 18000,
      "d": 1312.5,
      "v": 127
    },
    {
      "midi": 62,
      "hit": false,
      "t": 18750,
      "d": 187.5,
      "v": 127
    },
    {
      "midi": 66,
      "hit": false,
      "t": 18937.5,
      "d": 187.5,
      "v": 127
    },
    {
      "midi": 67,
      "hit": false,
      "t": 19125,
      "d": 187.5,
      "v": 127
    },
    {
      "midi": 71,
      "hit": false,
      "t": 19312.5,
      "d": 187.5,
      "v": 127
    },
    {
      "midi": 55,
      "hit": false,
      "t": 19312.5,
      "d": 1312.5,
      "v": 127
    },
    {
      "midi": 74,
      "hit": false,
      "t": 19500,
      "d": 187.5,
      "v": 127
    },
    {
      "midi": 78,
      "hit": false,
      "t": 19687.5,
      "d": 187.5,
      "v": 127
    },
    {
      "midi": 59,
      "hit": false,
      "t": 19875,
      "d": 750,
      "v": 127
    },
    {
      "midi": 62,
      "hit": false,
      "t": 19875,
      "d": 750,
      "v": 127
    },
    {
      "midi": 67,
      "hit": false,
      "t": 19875,
      "d": 750,
      "v": 127
    },
    {
      "midi": 59,
      "hit": false,
      "t": 20625,
      "d": 375,
      "v": 127
    },
    {
      "midi": 62,
      "hit": false,
      "t": 20625,
      "d": 375,
      "v": 127
    },
    {
      "midi": 55,
      "hit": false,
      "t": 20625,
      "d": 378.90625,
      "v": 127
    },
    {
      "midi": 52,
      "hit": false,
      "t": 21000,
      "d": 750,
      "v": 127
    },
    {
      "midi": 60,
      "hit": false,
      "t": 21000,
      "d": 750,
      "v": 127
    },
    {
      "midi": 67,
      "hit": false,
      "t": 21750,
      "d": 375,
      "v": 127
    },
    {
      "midi": 64,
      "hit": false,
      "t": 22125,
      "d": 375,
      "v": 127
    },
    {
      "midi": 60,
      "hit": false,
      "t": 22500,
      "d": 375,
      "v": 127
    },
    {
      "midi": 55,
      "hit": false,
      "t": 22875,
      "d": 375,
      "v": 127
    },
    {
      "midi": 64,
      "hit": false,
      "t": 22875,
      "d": 375,
      "v": 127
    },
    {
      "midi": 72,
      "hit": false,
      "t": 22875,
      "d": 375,
      "v": 127
    },
    {
      "midi": 55,
      "hit": false,
      "t": 23250,
      "d": 750,
      "v": 127
    },
    {
      "midi": 60,
      "hit": false,
      "t": 23250,
      "d": 750,
      "v": 127
    },
    {
      "midi": 67,
      "hit": false,
      "t": 23250,
      "d": 750,
      "v": 127
    },
    {
      "midi": 50,
      "hit": false,
      "t": 24000,
      "d": 3000,
      "v": 127
    },
    {
      "midi": 54,
      "hit": false,
      "t": 24375,
      "d": 375,
      "v": 127
    },
    {
      "midi": 57,
      "hit": false,
      "t": 24750,
      "d": 375,
      "v": 127
    },
    {
      "midi": 62,
      "hit": false,
      "t": 25125,
      "d": 187.5,
      "v": 127
    },
    {
      "midi": 66,
      "hit": false,
      "t": 25312.5,
      "d": 187.5,
      "v": 127
    },
    {
      "midi": 69,
      "hit": false,
      "t": 25500,
      "d": 187.5,
      "v": 127
    },
    {
      "midi": 74,
      "hit": false,
      "t": 25687.5,
      "d": 187.5,
      "v": 127
    },
    {
      "midi": 69,
      "hit": false,
      "t": 25875,
      "d": 375,
      "v": 127
    },
    {
      "midi": 66,
      "hit": false,
      "t": 26250,
      "d": 187.5,
      "v": 127
    },
    {
      "midi": 62,
      "hit": false,
      "t": 26437.5,
      "d": 187.5,
      "v": 127
    },
    {
      "midi": 57,
      "hit": false,
      "t": 26625,
      "d": 187.5,
      "v": 127
    },
    {
      "midi": 54,
      "hit": false,
      "t": 26812.5,
      "d": 187.5,
      "v": 127
    },
    {
      "midi": 50,
      "hit": false,
      "t": 27000,
      "d": 2250,
      "v": 127
    },
    {
      "midi": 54,
      "hit": false,
      "t": 27000,
      "d": 2250,
      "v": 127
    },
    {
      "midi": 57,
      "hit": false,
      "t": 27000,
      "d": 2250,
      "v": 127
    },
    {
      "midi": 62,
      "hit": false,
      "t": 27000,
      "d": 2250,
      "v": 127
    },
    {
      "midi": 47,
      "hit": false,
      "t": 30000,
      "d": 750,
      "v": 94
    },
    {
      "midi": 62,
      "hit": false,
      "t": 30000,
      "d": 750,
      "v": 94
    },
    {
      "midi": 43,
      "hit": false,
      "t": 30000,
      "d": 1500,
      "v": 94
    },
    {
      "midi": 67,
      "hit": false,
      "t": 30750,
      "d": 750,
      "v": 94
    },
    {
      "midi": 71,
      "hit": false,
      "t": 30750,
      "d": 750,
      "v": 94
    },
    {
      "midi": 74,
      "hit": false,
      "t": 30750,
      "d": 750,
      "v": 94
    },
    {
      "midi": 66,
      "hit": false,
      "t": 31500,
      "d": 187.5,
      "v": 94
    },
    {
      "midi": 62,
      "hit": false,
      "t": 31687.5,
      "d": 187.5,
      "v": 94
    },
    {
      "midi": 59,
      "hit": false,
      "t": 31875,
      "d": 187.5,
      "v": 94
    },
    {
      "midi": 55,
      "hit": false,
      "t": 32062.5,
      "d": 937.5,
      "v": 94
    },
    {
      "midi": 59,
      "hit": false,
      "t": 32250,
      "d": 750,
      "v": 94
    },
    {
      "midi": 62,
      "hit": false,
      "t": 32250,
      "d": 750,
      "v": 94
    },
    {
      "midi": 67,
      "hit": false,
      "t": 32250,
      "d": 750,
      "v": 94
    },
    {
      "midi": 50,
      "hit": false,
      "t": 33000,
      "d": 375,
      "v": 94
    },
    {
      "midi": 66,
      "hit": false,
      "t": 33000,
      "d": 375,
      "v": 94
    },
    {
      "midi": 47,
      "hit": false,
      "t": 33000,
      "d": 1500,
      "v": 94
    },
    {
      "midi": 71,
      "hit": false,
      "t": 33375,
      "d": 375,
      "v": 94
    },
    {
      "midi": 74,
      "hit": false,
      "t": 33375,
      "d": 375,
      "v": 94
    },
    {
      "midi": 71,
      "hit": false,
      "t": 33750,
      "d": 187.5,
      "v": 94
    },
    {
      "midi": 66,
      "hit": false,
      "t": 33937.5,
      "d": 187.5,
      "v": 94
    },
    {
      "midi": 62,
      "hit": false,
      "t": 34125,
      "d": 187.5,
      "v": 94
    },
    {
      "midi": 59,
      "hit": false,
      "t": 34312.5,
      "d": 187.5,
      "v": 94
    },
    {
      "midi": 62,
      "hit": false,
      "t": 34500,
      "d": 187.5,
      "v": 94
    },
    {
      "midi": 54,
      "hit": false,
      "t": 34687.5,
      "d": 375,
      "v": 94
    },
    {
      "midi": 59,
      "hit": false,
      "t": 34687.5,
      "d": 375,
      "v": 94
    },
    {
      "midi": 59,
      "hit": false,
      "t": 35062.5,
      "d": 187.5,
      "v": 94
    },
    {
      "midi": 62,
      "hit": false,
      "t": 35062.5,
      "d": 187.5,
      "v": 94
    },
    {
      "midi": 66,
      "hit": false,
      "t": 35062.5,
      "d": 187.5,
      "v": 94
    },
    {
      "midi": 62,
      "hit": false,
      "t": 35250,
      "d": 375,
      "v": 94
    },
    {
      "midi": 66,
      "hit": false,
      "t": 35250,
      "d": 375,
      "v": 94
    },
    {
      "midi": 71,
      "hit": false,
      "t": 35250,
      "d": 375,
      "v": 94
    },
    {
      "midi": 66,
      "hit": false,
      "t": 35625,
      "d": 375,
      "v": 94
    },
    {
      "midi": 71,
      "hit": false,
      "t": 35625,
      "d": 375,
      "v": 94
    },
    {
      "midi": 74,
      "hit": false,
      "t": 35625,
      "d": 375,
      "v": 94
    },
    {
      "midi": 48,
      "hit": false,
      "t": 36000,
      "d": 1125,
      "v": 94
    },
    {
      "midi": 60,
      "hit": false,
      "t": 36000,
      "d": 1500,
      "v": 94
    },
    {
      "midi": 64,
      "hit": false,
      "t": 36750,
      "d": 750,
      "v": 94
    },
    {
      "midi": 67,
      "hit": false,
      "t": 36750,
      "d": 750,
      "v": 94
    },
    {
      "midi": 52,
      "hit": false,
      "t": 37125,
      "d": 375,
      "v": 94
    },
    {
      "midi": 48,
      "hit": false,
      "t": 37125,
      "d": 1875,
      "v": 94
    },
    {
      "midi": 60,
      "hit": false,
      "t": 37500,
      "d": 750,
      "v": 94
    },
    {
      "midi": 64,
      "hit": false,
      "t": 37500,
      "d": 750,
      "v": 94
    },
    {
      "midi": 67,
      "hit": false,
      "t": 37500,
      "d": 750,
      "v": 94
    },
    {
      "midi": 67,
      "hit": false,
      "t": 38250,
      "d": 750,
      "v": 94
    },
    {
      "midi": 72,
      "hit": false,
      "t": 38250,
      "d": 750,
      "v": 94
    },
    {
      "midi": 76,
      "hit": false,
      "t": 38250,
      "d": 750,
      "v": 94
    },
    {
      "midi": 50,
      "hit": false,
      "t": 39000,
      "d": 375,
      "v": 94
    },
    {
      "midi": 66,
      "hit": false,
      "t": 39000,
      "d": 375,
      "v": 94
    },
    {
      "midi": 47,
      "hit": false,
      "t": 39000,
      "d": 1500,
      "v": 94
    },
    {
      "midi": 71,
      "hit": false,
      "t": 39375,
      "d": 375,
      "v": 94
    },
    {
      "midi": 74,
      "hit": false,
      "t": 39375,
      "d": 375,
      "v": 94
    },
    {
      "midi": 71,
      "hit": false,
      "t": 39750,
      "d": 187.5,
      "v": 94
    },
    {
      "midi": 66,
      "hit": false,
      "t": 39937.5,
      "d": 187.5,
      "v": 94
    },
    {
      "midi": 62,
      "hit": false,
      "t": 40125,
      "d": 187.5,
      "v": 94
    },
    {
      "midi": 59,
      "hit": false,
      "t": 40312.5,
      "d": 187.5,
      "v": 94
    },
    {
      "midi": 62,
      "hit": false,
      "t": 40500,
      "d": 187.5,
      "v": 94
    },
    {
      "midi": 54,
      "hit": false,
      "t": 40687.5,
      "d": 375,
      "v": 94
    },
    {
      "midi": 59,
      "hit": false,
      "t": 40687.5,
      "d": 375,
      "v": 94
    },
    {
      "midi": 59,
      "hit": false,
      "t": 41062.5,
      "d": 187.5,
      "v": 94
    },
    {
      "midi": 62,
      "hit": false,
      "t": 41062.5,
      "d": 187.5,
      "v": 94
    },
    {
      "midi": 66,
      "hit": false,
      "t": 41062.5,
      "d": 187.5,
      "v": 94
    },
    {
      "midi": 62,
      "hit": false,
      "t": 41250,
      "d": 375,
      "v": 94
    },
    {
      "midi": 66,
      "hit": false,
      "t": 41250,
      "d": 375,
      "v": 94
    },
    {
      "midi": 71,
      "hit": false,
      "t": 41250,
      "d": 375,
      "v": 94
    },
    {
      "midi": 66,
      "hit": false,
      "t": 41625,
      "d": 375,
      "v": 94
    },
    {
      "midi": 71,
      "hit": false,
      "t": 41625,
      "d": 375,
      "v": 94
    },
    {
      "midi": 74,
      "hit": false,
      "t": 41625,
      "d": 375,
      "v": 94
    },
    {
      "midi": 48,
      "hit": false,
      "t": 42000,
      "d": 1125,
      "v": 94
    },
    {
      "midi": 60,
      "hit": false,
      "t": 42000,
      "d": 1500,
      "v": 94
    },
    {
      "midi": 64,
      "hit": false,
      "t": 42750,
      "d": 750,
      "v": 94
    },
    {
      "midi": 67,
      "hit": false,
      "t": 42750,
      "d": 750,
      "v": 94
    },
    {
      "midi": 52,
      "hit": false,
      "t": 43125,
      "d": 375,
      "v": 94
    },
    {
      "midi": 48,
      "hit": false,
      "t": 43125,
      "d": 1875,
      "v": 94
    },
    {
      "midi": 60,
      "hit": false,
      "t": 43500,
      "d": 750,
      "v": 94
    },
    {
      "midi": 64,
      "hit": false,
      "t": 43500,
      "d": 750,
      "v": 94
    },
    {
      "midi": 67,
      "hit": false,
      "t": 43500,
      "d": 750,
      "v": 94
    },
    {
      "midi": 67,
      "hit": false,
      "t": 44250,
      "d": 750,
      "v": 94
    },
    {
      "midi": 72,
      "hit": false,
      "t": 44250,
      "d": 750,
      "v": 94
    },
    {
      "midi": 76,
      "hit": false,
      "t": 44250,
      "d": 750,
      "v": 94
    },
    {
      "midi": 47,
      "hit": false,
      "t": 45000,
      "d": 750,
      "v": 94
    },
    {
      "midi": 62,
      "hit": false,
      "t": 45000,
      "d": 750,
      "v": 94
    },
    {
      "midi": 43,
      "hit": false,
      "t": 45000,
      "d": 1500,
      "v": 94
    },
    {
      "midi": 67,
      "hit": false,
      "t": 45750,
      "d": 750,
      "v": 94
    },
    {
      "midi": 71,
      "hit": false,
      "t": 45750,
      "d": 750,
      "v": 94
    },
    {
      "midi": 74,
      "hit": false,
      "t": 45750,
      "d": 750,
      "v": 94
    },
    {
      "midi": 66,
      "hit": false,
      "t": 46500,
      "d": 187.5,
      "v": 94
    },
    {
      "midi": 62,
      "hit": false,
      "t": 46687.5,
      "d": 187.5,
      "v": 94
    },
    {
      "midi": 59,
      "hit": false,
      "t": 46875,
      "d": 187.5,
      "v": 94
    },
    {
      "midi": 55,
      "hit": false,
      "t": 47062.5,
      "d": 937.5,
      "v": 94
    },
    {
      "midi": 59,
      "hit": false,
      "t": 47250,
      "d": 750,
      "v": 94
    },
    {
      "midi": 62,
      "hit": false,
      "t": 47250,
      "d": 750,
      "v": 94
    },
    {
      "midi": 67,
      "hit": false,
      "t": 47250,
      "d": 750,
      "v": 94
    },
    {
      "midi": 48,
      "hit": false,
      "t": 48000,
      "d": 1125,
      "v": 94
    },
    {
      "midi": 60,
      "hit": false,
      "t": 48000,
      "d": 1500,
      "v": 94
    },
    {
      "midi": 64,
      "hit": false,
      "t": 48750,
      "d": 750,
      "v": 94
    },
    {
      "midi": 67,
      "hit": false,
      "t": 48750,
      "d": 750,
      "v": 94
    },
    {
      "midi": 52,
      "hit": false,
      "t": 49125,
      "d": 375,
      "v": 94
    },
    {
      "midi": 48,
      "hit": false,
      "t": 49125,
      "d": 1875,
      "v": 94
    },
    {
      "midi": 60,
      "hit": false,
      "t": 49500,
      "d": 750,
      "v": 94
    },
    {
      "midi": 64,
      "hit": false,
      "t": 49500,
      "d": 750,
      "v": 94
    },
    {
      "midi": 67,
      "hit": false,
      "t": 49500,
      "d": 750,
      "v": 94
    },
    {
      "midi": 67,
      "hit": false,
      "t": 50250,
      "d": 750,
      "v": 94
    },
    {
      "midi": 72,
      "hit": false,
      "t": 50250,
      "d": 750,
      "v": 94
    },
    {
      "midi": 76,
      "hit": false,
      "t": 50250,
      "d": 750,
      "v": 94
    },
    {
      "midi": 38,
      "hit": false,
      "t": 51000,
      "d": 3000,
      "v": 94
    },
    {
      "midi": 42,
      "hit": false,
      "t": 51187.5,
      "d": 187.5,
      "v": 94
    },
    {
      "midi": 43,
      "hit": false,
      "t": 51375,
      "d": 187.5,
      "v": 94
    },
    {
      "midi": 45,
      "hit": false,
      "t": 51562.5,
      "d": 187.5,
      "v": 94
    },
    {
      "midi": 47,
      "hit": false,
      "t": 51750,
      "d": 187.5,
      "v": 94
    },
    {
      "midi": 48,
      "hit": false,
      "t": 51937.5,
      "d": 187.5,
      "v": 94
    },
    {
      "midi": 50,
      "hit": false,
      "t": 52125,
      "d": 187.5,
      "v": 94
    },
    {
      "midi": 52,
      "hit": false,
      "t": 52312.5,
      "d": 187.5,
      "v": 94
    },
    {
      "midi": 54,
      "hit": false,
      "t": 52500,
      "d": 187.5,
      "v": 94
    },
    {
      "midi": 55,
      "hit": false,
      "t": 52687.5,
      "d": 187.5,
      "v": 94
    },
    {
      "midi": 57,
      "hit": false,
      "t": 52875,
      "d": 187.5,
      "v": 94
    },
    {
      "midi": 59,
      "hit": false,
      "t": 53062.5,
      "d": 187.5,
      "v": 94
    },
    {
      "midi": 60,
      "hit": false,
      "t": 53250,
      "d": 187.5,
      "v": 94
    },
    {
      "midi": 62,
      "hit": false,
      "t": 53437.5,
      "d": 187.5,
      "v": 94
    },
    {
      "midi": 66,
      "hit": false,
      "t": 53625,
      "d": 375,
      "v": 94
    },
    {
      "midi": 69,
      "hit": false,
      "t": 53625,
      "d": 375,
      "v": 94
    },
    {
      "midi": 74,
      "hit": false,
      "t": 53625,
      "d": 375,
      "v": 94
    },
    {
      "midi": 66,
      "hit": false,
      "t": 54000,
      "d": 2250,
      "v": 110
    },
    {
      "midi": 69,
      "hit": false,
      "t": 54000,
      "d": 2250,
      "v": 110
    },
    {
      "midi": 74,
      "hit": false,
      "t": 54000,
      "d": 2250,
      "v": 110
    },
    {
      "midi": 47,
      "hit": false,
      "t": 57000,
      "d": 750,
      "v": 94
    },
    {
      "midi": 62,
      "hit": false,
      "t": 57000,
      "d": 750,
      "v": 94
    },
    {
      "midi": 43,
      "hit": false,
      "t": 57000,
      "d": 1500,
      "v": 94
    },
    {
      "midi": 67,
      "hit": false,
      "t": 57750,
      "d": 750,
      "v": 94
    },
    {
      "midi": 71,
      "hit": false,
      "t": 57750,
      "d": 750,
      "v": 94
    },
    {
      "midi": 74,
      "hit": false,
      "t": 57750,
      "d": 750,
      "v": 94
    },
    {
      "midi": 66,
      "hit": false,
      "t": 58500,
      "d": 187.5,
      "v": 94
    },
    {
      "midi": 62,
      "hit": false,
      "t": 58687.5,
      "d": 187.5,
      "v": 94
    },
    {
      "midi": 59,
      "hit": false,
      "t": 58875,
      "d": 187.5,
      "v": 94
    },
    {
      "midi": 55,
      "hit": false,
      "t": 59062.5,
      "d": 937.5,
      "v": 94
    },
    {
      "midi": 59,
      "hit": false,
      "t": 59250,
      "d": 750,
      "v": 94
    },
    {
      "midi": 62,
      "hit": false,
      "t": 59250,
      "d": 750,
      "v": 94
    },
    {
      "midi": 67,
      "hit": false,
      "t": 59250,
      "d": 750,
      "v": 94
    },
    {
      "midi": 50,
      "hit": false,
      "t": 60000,
      "d": 375,
      "v": 94
    },
    {
      "midi": 66,
      "hit": false,
      "t": 60000,
      "d": 375,
      "v": 94
    },
    {
      "midi": 47,
      "hit": false,
      "t": 60000,
      "d": 1500,
      "v": 94
    },
    {
      "midi": 71,
      "hit": false,
      "t": 60375,
      "d": 375,
      "v": 94
    },
    {
      "midi": 74,
      "hit": false,
      "t": 60375,
      "d": 375,
      "v": 94
    },
    {
      "midi": 71,
      "hit": false,
      "t": 60750,
      "d": 187.5,
      "v": 94
    },
    {
      "midi": 66,
      "hit": false,
      "t": 60937.5,
      "d": 187.5,
      "v": 94
    },
    {
      "midi": 62,
      "hit": false,
      "t": 61125,
      "d": 187.5,
      "v": 94
    },
    {
      "midi": 59,
      "hit": false,
      "t": 61312.5,
      "d": 187.5,
      "v": 94
    },
    {
      "midi": 62,
      "hit": false,
      "t": 61500,
      "d": 187.5,
      "v": 94
    },
    {
      "midi": 54,
      "hit": false,
      "t": 61687.5,
      "d": 375,
      "v": 94
    },
    {
      "midi": 59,
      "hit": false,
      "t": 61687.5,
      "d": 375,
      "v": 94
    },
    {
      "midi": 59,
      "hit": false,
      "t": 62062.5,
      "d": 187.5,
      "v": 94
    },
    {
      "midi": 62,
      "hit": false,
      "t": 62062.5,
      "d": 187.5,
      "v": 94
    },
    {
      "midi": 66,
      "hit": false,
      "t": 62062.5,
      "d": 187.5,
      "v": 94
    },
    {
      "midi": 62,
      "hit": false,
      "t": 62250,
      "d": 375,
      "v": 94
    },
    {
      "midi": 66,
      "hit": false,
      "t": 62250,
      "d": 375,
      "v": 94
    },
    {
      "midi": 71,
      "hit": false,
      "t": 62250,
      "d": 375,
      "v": 94
    },
    {
      "midi": 66,
      "hit": false,
      "t": 62625,
      "d": 375,
      "v": 94
    },
    {
      "midi": 71,
      "hit": false,
      "t": 62625,
      "d": 375,
      "v": 94
    },
    {
      "midi": 74,
      "hit": false,
      "t": 62625,
      "d": 375,
      "v": 94
    },
    {
      "midi": 48,
      "hit": false,
      "t": 63000,
      "d": 1125,
      "v": 94
    },
    {
      "midi": 60,
      "hit": false,
      "t": 63000,
      "d": 1500,
      "v": 94
    },
    {
      "midi": 64,
      "hit": false,
      "t": 63750,
      "d": 750,
      "v": 94
    },
    {
      "midi": 67,
      "hit": false,
      "t": 63750,
      "d": 750,
      "v": 94
    },
    {
      "midi": 52,
      "hit": false,
      "t": 64125,
      "d": 375,
      "v": 94
    },
    {
      "midi": 48,
      "hit": false,
      "t": 64125,
      "d": 1875,
      "v": 94
    },
    {
      "midi": 60,
      "hit": false,
      "t": 64500,
      "d": 750,
      "v": 94
    },
    {
      "midi": 64,
      "hit": false,
      "t": 64500,
      "d": 750,
      "v": 94
    },
    {
      "midi": 67,
      "hit": false,
      "t": 64500,
      "d": 750,
      "v": 94
    },
    {
      "midi": 67,
      "hit": false,
      "t": 65250,
      "d": 750,
      "v": 94
    },
    {
      "midi": 72,
      "hit": false,
      "t": 65250,
      "d": 750,
      "v": 94
    },
    {
      "midi": 76,
      "hit": false,
      "t": 65250,
      "d": 750,
      "v": 94
    },
    {
      "midi": 50,
      "hit": false,
      "t": 66000,
      "d": 375,
      "v": 94
    },
    {
      "midi": 66,
      "hit": false,
      "t": 66000,
      "d": 375,
      "v": 94
    },
    {
      "midi": 47,
      "hit": false,
      "t": 66000,
      "d": 1500,
      "v": 94
    },
    {
      "midi": 71,
      "hit": false,
      "t": 66375,
      "d": 375,
      "v": 94
    },
    {
      "midi": 74,
      "hit": false,
      "t": 66375,
      "d": 375,
      "v": 94
    },
    {
      "midi": 71,
      "hit": false,
      "t": 66750,
      "d": 187.5,
      "v": 94
    },
    {
      "midi": 66,
      "hit": false,
      "t": 66937.5,
      "d": 187.5,
      "v": 94
    },
    {
      "midi": 62,
      "hit": false,
      "t": 67125,
      "d": 187.5,
      "v": 94
    },
    {
      "midi": 59,
      "hit": false,
      "t": 67312.5,
      "d": 187.5,
      "v": 94
    },
    {
      "midi": 62,
      "hit": false,
      "t": 67500,
      "d": 187.5,
      "v": 94
    },
    {
      "midi": 54,
      "hit": false,
      "t": 67687.5,
      "d": 375,
      "v": 94
    },
    {
      "midi": 59,
      "hit": false,
      "t": 67687.5,
      "d": 375,
      "v": 94
    },
    {
      "midi": 59,
      "hit": false,
      "t": 68062.5,
      "d": 187.5,
      "v": 94
    },
    {
      "midi": 62,
      "hit": false,
      "t": 68062.5,
      "d": 187.5,
      "v": 94
    },
    {
      "midi": 66,
      "hit": false,
      "t": 68062.5,
      "d": 187.5,
      "v": 94
    },
    {
      "midi": 62,
      "hit": false,
      "t": 68250,
      "d": 375,
      "v": 94
    },
    {
      "midi": 66,
      "hit": false,
      "t": 68250,
      "d": 375,
      "v": 94
    },
    {
      "midi": 71,
      "hit": false,
      "t": 68250,
      "d": 375,
      "v": 94
    },
    {
      "midi": 66,
      "hit": false,
      "t": 68625,
      "d": 375,
      "v": 94
    },
    {
      "midi": 71,
      "hit": false,
      "t": 68625,
      "d": 375,
      "v": 94
    },
    {
      "midi": 74,
      "hit": false,
      "t": 68625,
      "d": 375,
      "v": 94
    },
    {
      "midi": 48,
      "hit": false,
      "t": 69000,
      "d": 1125,
      "v": 94
    },
    {
      "midi": 60,
      "hit": false,
      "t": 69000,
      "d": 1500,
      "v": 94
    },
    {
      "midi": 64,
      "hit": false,
      "t": 69750,
      "d": 750,
      "v": 94
    },
    {
      "midi": 67,
      "hit": false,
      "t": 69750,
      "d": 750,
      "v": 94
    },
    {
      "midi": 52,
      "hit": false,
      "t": 70125,
      "d": 375,
      "v": 94
    },
    {
      "midi": 48,
      "hit": false,
      "t": 70125,
      "d": 1875,
      "v": 94
    },
    {
      "midi": 60,
      "hit": false,
      "t": 70500,
      "d": 750,
      "v": 94
    },
    {
      "midi": 64,
      "hit": false,
      "t": 70500,
      "d": 750,
      "v": 94
    },
    {
      "midi": 67,
      "hit": false,
      "t": 70500,
      "d": 750,
      "v": 94
    },
    {
      "midi": 67,
      "hit": false,
      "t": 71250,
      "d": 750,
      "v": 94
    },
    {
      "midi": 72,
      "hit": false,
      "t": 71250,
      "d": 750,
      "v": 94
    },
    {
      "midi": 76,
      "hit": false,
      "t": 71250,
      "d": 750,
      "v": 94
    },
    {
      "midi": 47,
      "hit": false,
      "t": 72000,
      "d": 750,
      "v": 94
    },
    {
      "midi": 62,
      "hit": false,
      "t": 72000,
      "d": 750,
      "v": 94
    },
    {
      "midi": 43,
      "hit": false,
      "t": 72000,
      "d": 1500,
      "v": 94
    },
    {
      "midi": 67,
      "hit": false,
      "t": 72750,
      "d": 750,
      "v": 94
    },
    {
      "midi": 71,
      "hit": false,
      "t": 72750,
      "d": 750,
      "v": 94
    },
    {
      "midi": 74,
      "hit": false,
      "t": 72750,
      "d": 750,
      "v": 94
    },
    {
      "midi": 66,
      "hit": false,
      "t": 73500,
      "d": 187.5,
      "v": 94
    },
    {
      "midi": 62,
      "hit": false,
      "t": 73687.5,
      "d": 187.5,
      "v": 94
    },
    {
      "midi": 59,
      "hit": false,
      "t": 73875,
      "d": 187.5,
      "v": 94
    },
    {
      "midi": 55,
      "hit": false,
      "t": 74062.5,
      "d": 937.5,
      "v": 94
    },
    {
      "midi": 59,
      "hit": false,
      "t": 74250,
      "d": 750,
      "v": 94
    },
    {
      "midi": 62,
      "hit": false,
      "t": 74250,
      "d": 750,
      "v": 94
    },
    {
      "midi": 67,
      "hit": false,
      "t": 74250,
      "d": 750,
      "v": 94
    },
    {
      "midi": 48,
      "hit": false,
      "t": 75000,
      "d": 1125,
      "v": 94
    },
    {
      "midi": 60,
      "hit": false,
      "t": 75000,
      "d": 1500,
      "v": 94
    },
    {
      "midi": 64,
      "hit": false,
      "t": 75750,
      "d": 750,
      "v": 94
    },
    {
      "midi": 67,
      "hit": false,
      "t": 75750,
      "d": 750,
      "v": 94
    },
    {
      "midi": 52,
      "hit": false,
      "t": 76125,
      "d": 375,
      "v": 94
    },
    {
      "midi": 48,
      "hit": false,
      "t": 76125,
      "d": 1875,
      "v": 94
    },
    {
      "midi": 60,
      "hit": false,
      "t": 76500,
      "d": 750,
      "v": 94
    },
    {
      "midi": 64,
      "hit": false,
      "t": 76500,
      "d": 750,
      "v": 94
    },
    {
      "midi": 67,
      "hit": false,
      "t": 76500,
      "d": 750,
      "v": 94
    },
    {
      "midi": 67,
      "hit": false,
      "t": 77250,
      "d": 750,
      "v": 94
    },
    {
      "midi": 72,
      "hit": false,
      "t": 77250,
      "d": 750,
      "v": 94
    },
    {
      "midi": 76,
      "hit": false,
      "t": 77250,
      "d": 750,
      "v": 94
    },
    {
      "midi": 38,
      "hit": false,
      "t": 78000,
      "d": 3000,
      "v": 94
    },
    {
      "midi": 42,
      "hit": false,
      "t": 78187.5,
      "d": 187.5,
      "v": 94
    },
    {
      "midi": 43,
      "hit": false,
      "t": 78375,
      "d": 187.5,
      "v": 94
    },
    {
      "midi": 45,
      "hit": false,
      "t": 78562.5,
      "d": 187.5,
      "v": 94
    },
    {
      "midi": 47,
      "hit": false,
      "t": 78750,
      "d": 187.5,
      "v": 94
    },
    {
      "midi": 48,
      "hit": false,
      "t": 78937.5,
      "d": 187.5,
      "v": 94
    },
    {
      "midi": 50,
      "hit": false,
      "t": 79125,
      "d": 187.5,
      "v": 94
    },
    {
      "midi": 52,
      "hit": false,
      "t": 79312.5,
      "d": 187.5,
      "v": 94
    },
    {
      "midi": 54,
      "hit": false,
      "t": 79500,
      "d": 187.5,
      "v": 94
    },
    {
      "midi": 55,
      "hit": false,
      "t": 79687.5,
      "d": 187.5,
      "v": 94
    },
    {
      "midi": 57,
      "hit": false,
      "t": 79875,
      "d": 187.5,
      "v": 94
    },
    {
      "midi": 59,
      "hit": false,
      "t": 80062.5,
      "d": 187.5,
      "v": 94
    },
    {
      "midi": 60,
      "hit": false,
      "t": 80250,
      "d": 187.5,
      "v": 94
    },
    {
      "midi": 62,
      "hit": false,
      "t": 80437.5,
      "d": 187.5,
      "v": 94
    },
    {
      "midi": 66,
      "hit": false,
      "t": 80625,
      "d": 375,
      "v": 94
    },
    {
      "midi": 69,
      "hit": false,
      "t": 80625,
      "d": 375,
      "v": 94
    },
    {
      "midi": 74,
      "hit": false,
      "t": 80625,
      "d": 375,
      "v": 94
    },
    {
      "midi": 66,
      "hit": false,
      "t": 81000,
      "d": 2250,
      "v": 110
    },
    {
      "midi": 69,
      "hit": false,
      "t": 81000,
      "d": 2250,
      "v": 110
    },
    {
      "midi": 74,
      "hit": false,
      "t": 81000,
      "d": 2250,
      "v": 110
    },
    {
      "midi": 59,
      "hit": false,
      "t": 84000,
      "d": 3000,
      "v": 94
    },
    {
      "midi": 62,
      "hit": false,
      "t": 84000,
      "d": 3000,
      "v": 94
    },
    {
      "midi": 55,
      "hit": false,
      "t": 84000,
      "d": 3003.90625,
      "v": 94
    },
    {
      "midi": 59,
      "hit": false,
      "t": 87000,
      "d": 3000,
      "v": 94
    },
    {
      "midi": 62,
      "hit": false,
      "t": 87000,
      "d": 3000,
      "v": 94
    },
    {
      "midi": 64,
      "hit": false,
      "t": 90000,
      "d": 375,
      "v": 94
    },
    {
      "midi": 67,
      "hit": false,
      "t": 90000,
      "d": 375,
      "v": 94
    },
    {
      "midi": 72,
      "hit": false,
      "t": 90375,
      "d": 375,
      "v": 94
    },
    {
      "midi": 71,
      "hit": false,
      "t": 90750,
      "d": 375,
      "v": 94
    },
    {
      "midi": 69,
      "hit": false,
      "t": 91125,
      "d": 375,
      "v": 94
    },
    {
      "midi": 64,
      "hit": false,
      "t": 91500,
      "d": 375,
      "v": 94
    },
    {
      "midi": 55,
      "hit": false,
      "t": 91500,
      "d": 1500,
      "v": 94
    },
    {
      "midi": 60,
      "hit": false,
      "t": 91500,
      "d": 1500,
      "v": 94
    },
    {
      "midi": 48,
      "hit": false,
      "t": 91875,
      "d": 1125,
      "v": 94
    },
    {
      "midi": 50,
      "hit": false,
      "t": 92062.5,
      "d": 187.5,
      "v": 94
    },
    {
      "midi": 52,
      "hit": false,
      "t": 92250,
      "d": 187.5,
      "v": 94
    },
    {
      "midi": 54,
      "hit": false,
      "t": 92437.5,
      "d": 187.5,
      "v": 94
    },
    {
      "midi": 64,
      "hit": false,
      "t": 92625,
      "d": 375,
      "v": 94
    },
    {
      "midi": 67,
      "hit": false,
      "t": 92625,
      "d": 375,
      "v": 94
    },
    {
      "midi": 72,
      "hit": false,
      "t": 92625,
      "d": 375,
      "v": 94
    },
    {
      "midi": 50,
      "hit": false,
      "t": 93000,
      "d": 375,
      "v": 94
    },
    {
      "midi": 66,
      "hit": false,
      "t": 93000,
      "d": 375,
      "v": 94
    },
    {
      "midi": 47,
      "hit": false,
      "t": 93000,
      "d": 1500,
      "v": 94
    },
    {
      "midi": 71,
      "hit": false,
      "t": 93375,
      "d": 375,
      "v": 94
    },
    {
      "midi": 74,
      "hit": false,
      "t": 93375,
      "d": 375,
      "v": 94
    },
    {
      "midi": 71,
      "hit": false,
      "t": 93750,
      "d": 187.5,
      "v": 94
    },
    {
      "midi": 66,
      "hit": false,
      "t": 93937.5,
      "d": 187.5,
      "v": 94
    },
    {
      "midi": 62,
      "hit": false,
      "t": 94125,
      "d": 187.5,
      "v": 94
    },
    {
      "midi": 59,
      "hit": false,
      "t": 94312.5,
      "d": 187.5,
      "v": 94
    },
    {
      "midi": 62,
      "hit": false,
      "t": 94500,
      "d": 187.5,
      "v": 94
    },
    {
      "midi": 54,
      "hit": false,
      "t": 94687.5,
      "d": 375,
      "v": 94
    },
    {
      "midi": 59,
      "hit": false,
      "t": 94687.5,
      "d": 375,
      "v": 94
    },
    {
      "midi": 59,
      "hit": false,
      "t": 95062.5,
      "d": 187.5,
      "v": 94
    },
    {
      "midi": 62,
      "hit": false,
      "t": 95062.5,
      "d": 187.5,
      "v": 94
    },
    {
      "midi": 66,
      "hit": false,
      "t": 95062.5,
      "d": 187.5,
      "v": 94
    },
    {
      "midi": 62,
      "hit": false,
      "t": 95250,
      "d": 375,
      "v": 94
    },
    {
      "midi": 66,
      "hit": false,
      "t": 95250,
      "d": 375,
      "v": 94
    },
    {
      "midi": 71,
      "hit": false,
      "t": 95250,
      "d": 375,
      "v": 94
    },
    {
      "midi": 66,
      "hit": false,
      "t": 95625,
      "d": 375,
      "v": 94
    },
    {
      "midi": 71,
      "hit": false,
      "t": 95625,
      "d": 375,
      "v": 94
    },
    {
      "midi": 74,
      "hit": false,
      "t": 95625,
      "d": 375,
      "v": 94
    },
    {
      "midi": 64,
      "hit": false,
      "t": 96750,
      "d": 750,
      "v": 94
    },
    {
      "midi": 67,
      "hit": false,
      "t": 96750,
      "d": 750,
      "v": 94
    },
    {
      "midi": 52,
      "hit": false,
      "t": 97125,
      "d": 375,
      "v": 94
    },
    {
      "midi": 48,
      "hit": false,
      "t": 97125,
      "d": 4875,
      "v": 94
    },
    {
      "midi": 64,
      "hit": false,
      "t": 97500,
      "d": 750,
      "v": 94
    },
    {
      "midi": 67,
      "hit": false,
      "t": 97500,
      "d": 750,
      "v": 94
    },
    {
      "midi": 60,
      "hit": false,
      "t": 97500,
      "d": 1500,
      "v": 94
    },
    {
      "midi": 67,
      "hit": false,
      "t": 98250,
      "d": 750,
      "v": 94
    },
    {
      "midi": 72,
      "hit": false,
      "t": 98250,
      "d": 750,
      "v": 94
    },
    {
      "midi": 76,
      "hit": false,
      "t": 98250,
      "d": 750,
      "v": 94
    },
    {
      "midi": 47,
      "hit": false,
      "t": 99000,
      "d": 750,
      "v": 94
    },
    {
      "midi": 62,
      "hit": false,
      "t": 99000,
      "d": 750,
      "v": 94
    },
    {
      "midi": 43,
      "hit": false,
      "t": 99000,
      "d": 1500,
      "v": 94
    },
    {
      "midi": 67,
      "hit": false,
      "t": 99750,
      "d": 750,
      "v": 94
    },
    {
      "midi": 71,
      "hit": false,
      "t": 99750,
      "d": 750,
      "v": 94
    },
    {
      "midi": 74,
      "hit": false,
      "t": 99750,
      "d": 750,
      "v": 94
    },
    {
      "midi": 66,
      "hit": false,
      "t": 100500,
      "d": 187.5,
      "v": 94
    },
    {
      "midi": 62,
      "hit": false,
      "t": 100687.5,
      "d": 187.5,
      "v": 94
    },
    {
      "midi": 59,
      "hit": false,
      "t": 100875,
      "d": 187.5,
      "v": 94
    },
    {
      "midi": 55,
      "hit": false,
      "t": 101062.5,
      "d": 941.40625,
      "v": 94
    },
    {
      "midi": 59,
      "hit": false,
      "t": 101250,
      "d": 750,
      "v": 94
    },
    {
      "midi": 62,
      "hit": false,
      "t": 101250,
      "d": 750,
      "v": 94
    },
    {
      "midi": 67,
      "hit": false,
      "t": 101250,
      "d": 750,
      "v": 94
    },
    {
      "midi": 59,
      "hit": false,
      "t": 102000,
      "d": 750,
      "v": 94
    },
    {
      "midi": 52,
      "hit": false,
      "t": 102000,
      "d": 2250,
      "v": 94
    },
    {
      "midi": 76,
      "hit": false,
      "t": 102750,
      "d": 187.5,
      "v": 94
    },
    {
      "midi": 74,
      "hit": false,
      "t": 102937.5,
      "d": 187.5,
      "v": 94
    },
    {
      "midi": 71,
      "hit": false,
      "t": 103125,
      "d": 187.5,
      "v": 94
    },
    {
      "midi": 69,
      "hit": false,
      "t": 103312.5,
      "d": 187.5,
      "v": 94
    },
    {
      "midi": 59,
      "hit": false,
      "t": 103500,
      "d": 750,
      "v": 94
    },
    {
      "midi": 64,
      "hit": false,
      "t": 103500,
      "d": 750,
      "v": 94
    },
    {
      "midi": 67,
      "hit": false,
      "t": 104250,
      "d": 375,
      "v": 94
    },
    {
      "midi": 71,
      "hit": false,
      "t": 104250,
      "d": 375,
      "v": 94
    },
    {
      "midi": 76,
      "hit": false,
      "t": 104250,
      "d": 375,
      "v": 94
    },
    {
      "midi": 71,
      "hit": false,
      "t": 104625,
      "d": 187.5,
      "v": 94
    },
    {
      "midi": 69,
      "hit": false,
      "t": 104812.5,
      "d": 187.5,
      "v": 94
    },
    {
      "midi": 50,
      "hit": false,
      "t": 105000,
      "d": 375,
      "v": 94
    },
    {
      "midi": 66,
      "hit": false,
      "t": 105000,
      "d": 375,
      "v": 94
    },
    {
      "midi": 47,
      "hit": false,
      "t": 105000,
      "d": 1500,
      "v": 94
    },
    {
      "midi": 71,
      "hit": false,
      "t": 105375,
      "d": 375,
      "v": 94
    },
    {
      "midi": 74,
      "hit": false,
      "t": 105375,
      "d": 375,
      "v": 94
    },
    {
      "midi": 71,
      "hit": false,
      "t": 105750,
      "d": 187.5,
      "v": 94
    },
    {
      "midi": 66,
      "hit": false,
      "t": 105937.5,
      "d": 187.5,
      "v": 94
    },
    {
      "midi": 62,
      "hit": false,
      "t": 106125,
      "d": 187.5,
      "v": 94
    },
    {
      "midi": 59,
      "hit": false,
      "t": 106312.5,
      "d": 187.5,
      "v": 94
    },
    {
      "midi": 59,
      "hit": false,
      "t": 106500,
      "d": 750,
      "v": 94
    },
    {
      "midi": 64,
      "hit": false,
      "t": 106500,
      "d": 750,
      "v": 94
    },
    {
      "midi": 67,
      "hit": false,
      "t": 107250,
      "d": 375,
      "v": 94
    },
    {
      "midi": 71,
      "hit": false,
      "t": 107250,
      "d": 375,
      "v": 94
    },
    {
      "midi": 76,
      "hit": false,
      "t": 107250,
      "d": 375,
      "v": 94
    },
    {
      "midi": 71,
      "hit": false,
      "t": 107625,
      "d": 187.5,
      "v": 94
    },
    {
      "midi": 69,
      "hit": false,
      "t": 107812.5,
      "d": 187.5,
      "v": 94
    },
    {
      "midi": 57,
      "hit": false,
      "t": 108000,
      "d": 750,
      "v": 94
    },
    {
      "midi": 64,
      "hit": false,
      "t": 108000,
      "d": 750,
      "v": 94
    },
    {
      "midi": 60,
      "hit": false,
      "t": 108000,
      "d": 1125,
      "v": 94
    },
    {
      "midi": 69,
      "hit": false,
      "t": 108750,
      "d": 375,
      "v": 94
    },
    {
      "midi": 72,
      "hit": false,
      "t": 108750,
      "d": 375,
      "v": 94
    },
    {
      "midi": 64,
      "hit": false,
      "t": 109125,
      "d": 375,
      "v": 94
    },
    {
      "midi": 69,
      "hit": false,
      "t": 109125,
      "d": 375,
      "v": 94
    },
    {
      "midi": 60,
      "hit": false,
      "t": 109125,
      "d": 1875,
      "v": 94
    },
    {
      "midi": 62,
      "hit": false,
      "t": 109500,
      "d": 1500,
      "v": 94
    },
    {
      "midi": 66,
      "hit": false,
      "t": 109500,
      "d": 1500,
      "v": 94
    },
    {
      "midi": 69,
      "hit": false,
      "t": 109500,
      "d": 1500,
      "v": 94
    },
    {
      "midi": 55,
      "hit": false,
      "t": 111000,
      "d": 4500,
      "v": 110
    },
    {
      "midi": 59,
      "hit": false,
      "t": 111375,
      "d": 375,
      "v": 110
    },
    {
      "midi": 62,
      "hit": false,
      "t": 111750,
      "d": 375,
      "v": 110
    },
    {
      "midi": 59,
      "hit": false,
      "t": 112125,
      "d": 1875,
      "v": 110
    },
    {
      "midi": 67,
      "hit": false,
      "t": 112125,
      "d": 1875,
      "v": 110
    },
    {
      "midi": 74,
      "hit": false,
      "t": 112125,
      "d": 1875,
      "v": 110
    },
    {
      "midi": 64,
      "hit": false,
      "t": 114000,
      "d": 375,
      "v": 94
    },
    {
      "midi": 67,
      "hit": false,
      "t": 114000,
      "d": 375,
      "v": 94
    },
    {
      "midi": 60,
      "hit": false,
      "t": 114000,
      "d": 1500,
      "v": 94
    },
    {
      "midi": 72,
      "hit": false,
      "t": 114375,
      "d": 375,
      "v": 94
    },
    {
      "midi": 71,
      "hit": false,
      "t": 114750,
      "d": 375,
      "v": 94
    },
    {
      "midi": 69,
      "hit": false,
      "t": 115125,
      "d": 375,
      "v": 94
    },
    {
      "midi": 64,
      "hit": false,
      "t": 115500,
      "d": 375,
      "v": 94
    },
    {
      "midi": 55,
      "hit": false,
      "t": 115500,
      "d": 1500,
      "v": 94
    },
    {
      "midi": 60,
      "hit": false,
      "t": 115500,
      "d": 1500,
      "v": 94
    },
    {
      "midi": 48,
      "hit": false,
      "t": 115875,
      "d": 4128.90625,
      "v": 94
    },
    {
      "midi": 50,
      "hit": false,
      "t": 116062.5,
      "d": 187.5,
      "v": 94
    },
    {
      "midi": 52,
      "hit": false,
      "t": 116250,
      "d": 187.5,
      "v": 94
    },
    {
      "midi": 54,
      "hit": false,
      "t": 116437.5,
      "d": 187.5,
      "v": 94
    },
    {
      "midi": 64,
      "hit": false,
      "t": 116625,
      "d": 375,
      "v": 94
    },
    {
      "midi": 67,
      "hit": false,
      "t": 116625,
      "d": 375,
      "v": 94
    },
    {
      "midi": 72,
      "hit": false,
      "t": 116625,
      "d": 375,
      "v": 94
    },
    {
      "midi": 50,
      "hit": false,
      "t": 117000,
      "d": 375,
      "v": 94
    },
    {
      "midi": 66,
      "hit": false,
      "t": 117000,
      "d": 375,
      "v": 94
    },
    {
      "midi": 47,
      "hit": false,
      "t": 117000,
      "d": 1500,
      "v": 94
    },
    {
      "midi": 71,
      "hit": false,
      "t": 117375,
      "d": 375,
      "v": 94
    },
    {
      "midi": 74,
      "hit": false,
      "t": 117375,
      "d": 375,
      "v": 94
    },
    {
      "midi": 71,
      "hit": false,
      "t": 117750,
      "d": 187.5,
      "v": 94
    },
    {
      "midi": 66,
      "hit": false,
      "t": 117937.5,
      "d": 187.5,
      "v": 94
    },
    {
      "midi": 62,
      "hit": false,
      "t": 118125,
      "d": 187.5,
      "v": 94
    },
    {
      "midi": 59,
      "hit": false,
      "t": 118312.5,
      "d": 187.5,
      "v": 94
    },
    {
      "midi": 62,
      "hit": false,
      "t": 118500,
      "d": 187.5,
      "v": 94
    },
    {
      "midi": 54,
      "hit": false,
      "t": 118687.5,
      "d": 375,
      "v": 94
    },
    {
      "midi": 59,
      "hit": false,
      "t": 118687.5,
      "d": 375,
      "v": 94
    },
    {
      "midi": 59,
      "hit": false,
      "t": 119062.5,
      "d": 187.5,
      "v": 94
    },
    {
      "midi": 62,
      "hit": false,
      "t": 119062.5,
      "d": 187.5,
      "v": 94
    },
    {
      "midi": 66,
      "hit": false,
      "t": 119062.5,
      "d": 187.5,
      "v": 94
    },
    {
      "midi": 62,
      "hit": false,
      "t": 119250,
      "d": 375,
      "v": 94
    },
    {
      "midi": 66,
      "hit": false,
      "t": 119250,
      "d": 375,
      "v": 94
    },
    {
      "midi": 71,
      "hit": false,
      "t": 119250,
      "d": 375,
      "v": 94
    },
    {
      "midi": 66,
      "hit": false,
      "t": 119625,
      "d": 375,
      "v": 94
    },
    {
      "midi": 71,
      "hit": false,
      "t": 119625,
      "d": 375,
      "v": 94
    },
    {
      "midi": 74,
      "hit": false,
      "t": 119625,
      "d": 375,
      "v": 94
    },
    {
      "midi": 64,
      "hit": false,
      "t": 120750,
      "d": 750,
      "v": 94
    },
    {
      "midi": 67,
      "hit": false,
      "t": 120750,
      "d": 750,
      "v": 94
    },
    {
      "midi": 52,
      "hit": false,
      "t": 121125,
      "d": 375,
      "v": 94
    },
    {
      "midi": 48,
      "hit": false,
      "t": 121125,
      "d": 25878.90625,
      "v": 94
    },
    {
      "midi": 64,
      "hit": false,
      "t": 121500,
      "d": 750,
      "v": 94
    },
    {
      "midi": 67,
      "hit": false,
      "t": 121500,
      "d": 750,
      "v": 94
    },
    {
      "midi": 60,
      "hit": false,
      "t": 121500,
      "d": 1500,
      "v": 94
    },
    {
      "midi": 67,
      "hit": false,
      "t": 122250,
      "d": 750,
      "v": 94
    },
    {
      "midi": 72,
      "hit": false,
      "t": 122250,
      "d": 750,
      "v": 94
    },
    {
      "midi": 76,
      "hit": false,
      "t": 122250,
      "d": 750,
      "v": 94
    },
    {
      "midi": 47,
      "hit": false,
      "t": 123000,
      "d": 750,
      "v": 94
    },
    {
      "midi": 62,
      "hit": false,
      "t": 123000,
      "d": 750,
      "v": 94
    },
    {
      "midi": 43,
      "hit": false,
      "t": 123000,
      "d": 1500,
      "v": 94
    },
    {
      "midi": 67,
      "hit": false,
      "t": 123750,
      "d": 750,
      "v": 94
    },
    {
      "midi": 71,
      "hit": false,
      "t": 123750,
      "d": 750,
      "v": 94
    },
    {
      "midi": 74,
      "hit": false,
      "t": 123750,
      "d": 750,
      "v": 94
    },
    {
      "midi": 66,
      "hit": false,
      "t": 124500,
      "d": 187.5,
      "v": 94
    },
    {
      "midi": 62,
      "hit": false,
      "t": 124687.5,
      "d": 187.5,
      "v": 94
    },
    {
      "midi": 59,
      "hit": false,
      "t": 124875,
      "d": 187.5,
      "v": 94
    },
    {
      "midi": 55,
      "hit": false,
      "t": 125062.5,
      "d": 941.40625,
      "v": 94
    },
    {
      "midi": 59,
      "hit": false,
      "t": 125250,
      "d": 750,
      "v": 94
    },
    {
      "midi": 62,
      "hit": false,
      "t": 125250,
      "d": 750,
      "v": 94
    },
    {
      "midi": 67,
      "hit": false,
      "t": 125250,
      "d": 750,
      "v": 94
    },
    {
      "midi": 59,
      "hit": false,
      "t": 126000,
      "d": 750,
      "v": 94
    },
    {
      "midi": 52,
      "hit": false,
      "t": 126000,
      "d": 2250,
      "v": 94
    },
    {
      "midi": 76,
      "hit": false,
      "t": 126750,
      "d": 187.5,
      "v": 94
    },
    {
      "midi": 74,
      "hit": false,
      "t": 126937.5,
      "d": 187.5,
      "v": 94
    },
    {
      "midi": 71,
      "hit": false,
      "t": 127125,
      "d": 187.5,
      "v": 94
    },
    {
      "midi": 69,
      "hit": false,
      "t": 127312.5,
      "d": 187.5,
      "v": 94
    },
    {
      "midi": 59,
      "hit": false,
      "t": 127500,
      "d": 750,
      "v": 94
    },
    {
      "midi": 64,
      "hit": false,
      "t": 127500,
      "d": 750,
      "v": 94
    },
    {
      "midi": 67,
      "hit": false,
      "t": 128250,
      "d": 375,
      "v": 94
    },
    {
      "midi": 71,
      "hit": false,
      "t": 128250,
      "d": 375,
      "v": 94
    },
    {
      "midi": 76,
      "hit": false,
      "t": 128250,
      "d": 375,
      "v": 94
    },
    {
      "midi": 71,
      "hit": false,
      "t": 128625,
      "d": 187.5,
      "v": 94
    },
    {
      "midi": 69,
      "hit": false,
      "t": 128812.5,
      "d": 187.5,
      "v": 94
    },
    {
      "midi": 50,
      "hit": false,
      "t": 129000,
      "d": 375,
      "v": 94
    },
    {
      "midi": 66,
      "hit": false,
      "t": 129000,
      "d": 375,
      "v": 94
    },
    {
      "midi": 47,
      "hit": false,
      "t": 129000,
      "d": 1500,
      "v": 94
    },
    {
      "midi": 71,
      "hit": false,
      "t": 129375,
      "d": 375,
      "v": 94
    },
    {
      "midi": 74,
      "hit": false,
      "t": 129375,
      "d": 375,
      "v": 94
    },
    {
      "midi": 71,
      "hit": false,
      "t": 129750,
      "d": 187.5,
      "v": 94
    },
    {
      "midi": 66,
      "hit": false,
      "t": 129937.5,
      "d": 187.5,
      "v": 94
    },
    {
      "midi": 62,
      "hit": false,
      "t": 130125,
      "d": 187.5,
      "v": 94
    },
    {
      "midi": 59,
      "hit": false,
      "t": 130312.5,
      "d": 187.5,
      "v": 94
    },
    {
      "midi": 59,
      "hit": false,
      "t": 130500,
      "d": 750,
      "v": 94
    },
    {
      "midi": 64,
      "hit": false,
      "t": 130500,
      "d": 750,
      "v": 94
    },
    {
      "midi": 67,
      "hit": false,
      "t": 131250,
      "d": 375,
      "v": 94
    },
    {
      "midi": 71,
      "hit": false,
      "t": 131250,
      "d": 375,
      "v": 94
    },
    {
      "midi": 76,
      "hit": false,
      "t": 131250,
      "d": 375,
      "v": 94
    },
    {
      "midi": 71,
      "hit": false,
      "t": 131625,
      "d": 187.5,
      "v": 94
    },
    {
      "midi": 69,
      "hit": false,
      "t": 131812.5,
      "d": 187.5,
      "v": 94
    },
    {
      "midi": 57,
      "hit": false,
      "t": 132000,
      "d": 750,
      "v": 94
    },
    {
      "midi": 64,
      "hit": false,
      "t": 132000,
      "d": 750,
      "v": 94
    },
    {
      "midi": 60,
      "hit": false,
      "t": 132000,
      "d": 1125,
      "v": 94
    },
    {
      "midi": 69,
      "hit": false,
      "t": 132750,
      "d": 375,
      "v": 94
    },
    {
      "midi": 72,
      "hit": false,
      "t": 132750,
      "d": 375,
      "v": 94
    },
    {
      "midi": 64,
      "hit": false,
      "t": 133125,
      "d": 375,
      "v": 94
    },
    {
      "midi": 69,
      "hit": false,
      "t": 133125,
      "d": 375,
      "v": 94
    },
    {
      "midi": 60,
      "hit": false,
      "t": 133125,
      "d": 1875,
      "v": 94
    },
    {
      "midi": 62,
      "hit": false,
      "t": 133500,
      "d": 1500,
      "v": 94
    },
    {
      "midi": 66,
      "hit": false,
      "t": 133500,
      "d": 1500,
      "v": 94
    },
    {
      "midi": 69,
      "hit": false,
      "t": 133500,
      "d": 1500,
      "v": 94
    },
    {
      "midi": 59,
      "hit": false,
      "t": 135375,
      "d": 375,
      "v": 110
    },
    {
      "midi": 62,
      "hit": false,
      "t": 135750,
      "d": 375,
      "v": 110
    },
    {
      "midi": 59,
      "hit": false,
      "t": 136125,
      "d": 1875,
      "v": 110
    },
    {
      "midi": 67,
      "hit": false,
      "t": 136125,
      "d": 1875,
      "v": 110
    },
    {
      "midi": 74,
      "hit": false,
      "t": 136125,
      "d": 1875,
      "v": 110
    },
    {
      "midi": 59,
      "hit": false,
      "t": 138000,
      "d": 750,
      "v": 94
    },
    {
      "midi": 62,
      "hit": false,
      "t": 138000,
      "d": 750,
      "v": 94
    },
    {
      "midi": 55,
      "hit": false,
      "t": 138750,
      "d": 750,
      "v": 94
    },
    {
      "midi": 59,
      "hit": false,
      "t": 138750,
      "d": 750,
      "v": 94
    },
    {
      "midi": 62,
      "hit": false,
      "t": 138750,
      "d": 750,
      "v": 94
    },
    {
      "midi": 55,
      "hit": false,
      "t": 139500,
      "d": 750,
      "v": 94
    },
    {
      "midi": 59,
      "hit": false,
      "t": 139500,
      "d": 750,
      "v": 94
    },
    {
      "midi": 62,
      "hit": false,
      "t": 139500,
      "d": 750,
      "v": 94
    },
    {
      "midi": 59,
      "hit": false,
      "t": 140250,
      "d": 750,
      "v": 94
    },
    {
      "midi": 62,
      "hit": false,
      "t": 140250,
      "d": 750,
      "v": 94
    },
    {
      "midi": 55,
      "hit": false,
      "t": 140250,
      "d": 2812.5,
      "v": 94
    },
    {
      "midi": 47,
      "hit": false,
      "t": 141000,
      "d": 750,
      "v": 94
    },
    {
      "midi": 62,
      "hit": false,
      "t": 141000,
      "d": 750,
      "v": 94
    },
    {
      "midi": 43,
      "hit": false,
      "t": 141000,
      "d": 1500,
      "v": 94
    },
    {
      "midi": 67,
      "hit": false,
      "t": 141750,
      "d": 750,
      "v": 94
    },
    {
      "midi": 71,
      "hit": false,
      "t": 141750,
      "d": 750,
      "v": 94
    },
    {
      "midi": 74,
      "hit": false,
      "t": 141750,
      "d": 750,
      "v": 94
    },
    {
      "midi": 66,
      "hit": false,
      "t": 142500,
      "d": 187.5,
      "v": 94
    },
    {
      "midi": 62,
      "hit": false,
      "t": 142687.5,
      "d": 187.5,
      "v": 94
    },
    {
      "midi": 59,
      "hit": false,
      "t": 142875,
      "d": 187.5,
      "v": 94
    },
    {
      "midi": 55,
      "hit": false,
      "t": 143062.5,
      "d": 937.5,
      "v": 94
    },
    {
      "midi": 59,
      "hit": false,
      "t": 143250,
      "d": 750,
      "v": 94
    },
    {
      "midi": 62,
      "hit": false,
      "t": 143250,
      "d": 750,
      "v": 94
    },
    {
      "midi": 67,
      "hit": false,
      "t": 143250,
      "d": 750,
      "v": 94
    },
    {
      "midi": 50,
      "hit": false,
      "t": 144000,
      "d": 375,
      "v": 94
    },
    {
      "midi": 66,
      "hit": false,
      "t": 144000,
      "d": 375,
      "v": 94
    },
    {
      "midi": 47,
      "hit": false,
      "t": 144000,
      "d": 1500,
      "v": 94
    },
    {
      "midi": 71,
      "hit": false,
      "t": 144375,
      "d": 375,
      "v": 94
    },
    {
      "midi": 74,
      "hit": false,
      "t": 144375,
      "d": 375,
      "v": 94
    },
    {
      "midi": 71,
      "hit": false,
      "t": 144750,
      "d": 187.5,
      "v": 94
    },
    {
      "midi": 66,
      "hit": false,
      "t": 144937.5,
      "d": 187.5,
      "v": 94
    },
    {
      "midi": 62,
      "hit": false,
      "t": 145125,
      "d": 187.5,
      "v": 94
    },
    {
      "midi": 59,
      "hit": false,
      "t": 145312.5,
      "d": 187.5,
      "v": 94
    },
    {
      "midi": 62,
      "hit": false,
      "t": 145500,
      "d": 187.5,
      "v": 94
    },
    {
      "midi": 54,
      "hit": false,
      "t": 145687.5,
      "d": 375,
      "v": 94
    },
    {
      "midi": 59,
      "hit": false,
      "t": 145687.5,
      "d": 375,
      "v": 94
    },
    {
      "midi": 59,
      "hit": false,
      "t": 146062.5,
      "d": 187.5,
      "v": 94
    },
    {
      "midi": 62,
      "hit": false,
      "t": 146062.5,
      "d": 187.5,
      "v": 94
    },
    {
      "midi": 66,
      "hit": false,
      "t": 146062.5,
      "d": 187.5,
      "v": 94
    },
    {
      "midi": 62,
      "hit": false,
      "t": 146250,
      "d": 375,
      "v": 94
    },
    {
      "midi": 66,
      "hit": false,
      "t": 146250,
      "d": 375,
      "v": 94
    },
    {
      "midi": 71,
      "hit": false,
      "t": 146250,
      "d": 375,
      "v": 94
    },
    {
      "midi": 66,
      "hit": false,
      "t": 146625,
      "d": 375,
      "v": 94
    },
    {
      "midi": 71,
      "hit": false,
      "t": 146625,
      "d": 375,
      "v": 94
    },
    {
      "midi": 74,
      "hit": false,
      "t": 146625,
      "d": 375,
      "v": 94
    },
    {
      "midi": 64,
      "hit": false,
      "t": 147750,
      "d": 750,
      "v": 94
    },
    {
      "midi": 67,
      "hit": false,
      "t": 147750,
      "d": 750,
      "v": 94
    },
    {
      "midi": 52,
      "hit": false,
      "t": 148125,
      "d": 375,
      "v": 94
    },
    {
      "midi": 48,
      "hit": false,
      "t": 148125,
      "d": 4878.90625,
      "v": 94
    },
    {
      "midi": 64,
      "hit": false,
      "t": 148500,
      "d": 750,
      "v": 94
    },
    {
      "midi": 67,
      "hit": false,
      "t": 148500,
      "d": 750,
      "v": 94
    },
    {
      "midi": 60,
      "hit": false,
      "t": 148500,
      "d": 1500,
      "v": 94
    },
    {
      "midi": 67,
      "hit": false,
      "t": 149250,
      "d": 750,
      "v": 94
    },
    {
      "midi": 72,
      "hit": false,
      "t": 149250,
      "d": 750,
      "v": 94
    },
    {
      "midi": 76,
      "hit": false,
      "t": 149250,
      "d": 750,
      "v": 94
    },
    {
      "midi": 50,
      "hit": false,
      "t": 150000,
      "d": 375,
      "v": 94
    },
    {
      "midi": 66,
      "hit": false,
      "t": 150000,
      "d": 375,
      "v": 94
    },
    {
      "midi": 47,
      "hit": false,
      "t": 150000,
      "d": 1500,
      "v": 94
    },
    {
      "midi": 71,
      "hit": false,
      "t": 150375,
      "d": 375,
      "v": 94
    },
    {
      "midi": 74,
      "hit": false,
      "t": 150375,
      "d": 375,
      "v": 94
    },
    {
      "midi": 71,
      "hit": false,
      "t": 150750,
      "d": 187.5,
      "v": 94
    },
    {
      "midi": 66,
      "hit": false,
      "t": 150937.5,
      "d": 187.5,
      "v": 94
    },
    {
      "midi": 62,
      "hit": false,
      "t": 151125,
      "d": 187.5,
      "v": 94
    },
    {
      "midi": 59,
      "hit": false,
      "t": 151312.5,
      "d": 187.5,
      "v": 94
    },
    {
      "midi": 62,
      "hit": false,
      "t": 151500,
      "d": 187.5,
      "v": 94
    },
    {
      "midi": 54,
      "hit": false,
      "t": 151687.5,
      "d": 375,
      "v": 94
    },
    {
      "midi": 59,
      "hit": false,
      "t": 151687.5,
      "d": 375,
      "v": 94
    },
    {
      "midi": 59,
      "hit": false,
      "t": 152062.5,
      "d": 187.5,
      "v": 94
    },
    {
      "midi": 62,
      "hit": false,
      "t": 152062.5,
      "d": 187.5,
      "v": 94
    },
    {
      "midi": 66,
      "hit": false,
      "t": 152062.5,
      "d": 187.5,
      "v": 94
    },
    {
      "midi": 62,
      "hit": false,
      "t": 152250,
      "d": 375,
      "v": 94
    },
    {
      "midi": 66,
      "hit": false,
      "t": 152250,
      "d": 375,
      "v": 94
    },
    {
      "midi": 71,
      "hit": false,
      "t": 152250,
      "d": 375,
      "v": 94
    },
    {
      "midi": 66,
      "hit": false,
      "t": 152625,
      "d": 375,
      "v": 94
    },
    {
      "midi": 71,
      "hit": false,
      "t": 152625,
      "d": 375,
      "v": 94
    },
    {
      "midi": 74,
      "hit": false,
      "t": 152625,
      "d": 375,
      "v": 94
    },
    {
      "midi": 64,
      "hit": false,
      "t": 153750,
      "d": 750,
      "v": 94
    },
    {
      "midi": 67,
      "hit": false,
      "t": 153750,
      "d": 750,
      "v": 94
    },
    {
      "midi": 52,
      "hit": false,
      "t": 154125,
      "d": 375,
      "v": 94
    },
    {
      "midi": 48,
      "hit": false,
      "t": 154125,
      "d": 4878.90625,
      "v": 94
    },
    {
      "midi": 64,
      "hit": false,
      "t": 154500,
      "d": 750,
      "v": 94
    },
    {
      "midi": 67,
      "hit": false,
      "t": 154500,
      "d": 750,
      "v": 94
    },
    {
      "midi": 60,
      "hit": false,
      "t": 154500,
      "d": 1500,
      "v": 94
    },
    {
      "midi": 67,
      "hit": false,
      "t": 155250,
      "d": 750,
      "v": 94
    },
    {
      "midi": 72,
      "hit": false,
      "t": 155250,
      "d": 750,
      "v": 94
    },
    {
      "midi": 76,
      "hit": false,
      "t": 155250,
      "d": 750,
      "v": 94
    },
    {
      "midi": 47,
      "hit": false,
      "t": 156000,
      "d": 750,
      "v": 94
    },
    {
      "midi": 62,
      "hit": false,
      "t": 156000,
      "d": 750,
      "v": 94
    },
    {
      "midi": 43,
      "hit": false,
      "t": 156000,
      "d": 1500,
      "v": 94
    },
    {
      "midi": 67,
      "hit": false,
      "t": 156750,
      "d": 750,
      "v": 94
    },
    {
      "midi": 71,
      "hit": false,
      "t": 156750,
      "d": 750,
      "v": 94
    },
    {
      "midi": 74,
      "hit": false,
      "t": 156750,
      "d": 750,
      "v": 94
    },
    {
      "midi": 66,
      "hit": false,
      "t": 157500,
      "d": 187.5,
      "v": 94
    },
    {
      "midi": 62,
      "hit": false,
      "t": 157687.5,
      "d": 187.5,
      "v": 94
    },
    {
      "midi": 59,
      "hit": false,
      "t": 157875,
      "d": 187.5,
      "v": 94
    },
    {
      "midi": 55,
      "hit": false,
      "t": 158062.5,
      "d": 937.5,
      "v": 94
    },
    {
      "midi": 59,
      "hit": false,
      "t": 158250,
      "d": 750,
      "v": 94
    },
    {
      "midi": 62,
      "hit": false,
      "t": 158250,
      "d": 750,
      "v": 94
    },
    {
      "midi": 67,
      "hit": false,
      "t": 158250,
      "d": 750,
      "v": 94
    },
    {
      "midi": 64,
      "hit": false,
      "t": 159750,
      "d": 750,
      "v": 94
    },
    {
      "midi": 67,
      "hit": false,
      "t": 159750,
      "d": 750,
      "v": 94
    },
    {
      "midi": 52,
      "hit": false,
      "t": 160125,
      "d": 375,
      "v": 94
    },
    {
      "midi": 48,
      "hit": false,
      "t": 160125,
      "d": 1875,
      "v": 94
    },
    {
      "midi": 64,
      "hit": false,
      "t": 160500,
      "d": 750,
      "v": 94
    },
    {
      "midi": 67,
      "hit": false,
      "t": 160500,
      "d": 750,
      "v": 94
    },
    {
      "midi": 60,
      "hit": false,
      "t": 160500,
      "d": 1500,
      "v": 94
    },
    {
      "midi": 67,
      "hit": false,
      "t": 161250,
      "d": 750,
      "v": 94
    },
    {
      "midi": 72,
      "hit": false,
      "t": 161250,
      "d": 750,
      "v": 94
    },
    {
      "midi": 76,
      "hit": false,
      "t": 161250,
      "d": 750,
      "v": 94
    },
    {
      "midi": 38,
      "hit": false,
      "t": 162000,
      "d": 3000,
      "v": 94
    },
    {
      "midi": 42,
      "hit": false,
      "t": 162187.5,
      "d": 187.5,
      "v": 94
    },
    {
      "midi": 43,
      "hit": false,
      "t": 162375,
      "d": 187.5,
      "v": 94
    },
    {
      "midi": 45,
      "hit": false,
      "t": 162562.5,
      "d": 187.5,
      "v": 94
    },
    {
      "midi": 47,
      "hit": false,
      "t": 162750,
      "d": 187.5,
      "v": 94
    },
    {
      "midi": 48,
      "hit": false,
      "t": 162937.5,
      "d": 187.5,
      "v": 94
    },
    {
      "midi": 50,
      "hit": false,
      "t": 163125,
      "d": 187.5,
      "v": 94
    },
    {
      "midi": 52,
      "hit": false,
      "t": 163312.5,
      "d": 187.5,
      "v": 94
    },
    {
      "midi": 54,
      "hit": false,
      "t": 163500,
      "d": 187.5,
      "v": 94
    },
    {
      "midi": 55,
      "hit": false,
      "t": 163687.5,
      "d": 187.5,
      "v": 94
    },
    {
      "midi": 57,
      "hit": false,
      "t": 163875,
      "d": 187.5,
      "v": 94
    },
    {
      "midi": 59,
      "hit": false,
      "t": 164062.5,
      "d": 187.5,
      "v": 94
    },
    {
      "midi": 60,
      "hit": false,
      "t": 164250,
      "d": 187.5,
      "v": 94
    },
    {
      "midi": 62,
      "hit": false,
      "t": 164437.5,
      "d": 187.5,
      "v": 94
    },
    {
      "midi": 66,
      "hit": false,
      "t": 164625,
      "d": 375,
      "v": 94
    },
    {
      "midi": 69,
      "hit": false,
      "t": 164625,
      "d": 375,
      "v": 94
    },
    {
      "midi": 74,
      "hit": false,
      "t": 164625,
      "d": 375,
      "v": 94
    },
    {
      "midi": 38,
      "hit": false,
      "t": 165000,
      "d": 3000,
      "v": 94
    },
    {
      "midi": 42,
      "hit": false,
      "t": 165187.5,
      "d": 187.5,
      "v": 94
    },
    {
      "midi": 43,
      "hit": false,
      "t": 165375,
      "d": 187.5,
      "v": 94
    },
    {
      "midi": 45,
      "hit": false,
      "t": 165562.5,
      "d": 187.5,
      "v": 94
    },
    {
      "midi": 47,
      "hit": false,
      "t": 165750,
      "d": 187.5,
      "v": 94
    },
    {
      "midi": 48,
      "hit": false,
      "t": 165937.5,
      "d": 187.5,
      "v": 94
    },
    {
      "midi": 50,
      "hit": false,
      "t": 166125,
      "d": 187.5,
      "v": 94
    },
    {
      "midi": 52,
      "hit": false,
      "t": 166312.5,
      "d": 187.5,
      "v": 94
    },
    {
      "midi": 54,
      "hit": false,
      "t": 166500,
      "d": 187.5,
      "v": 94
    },
    {
      "midi": 55,
      "hit": false,
      "t": 166687.5,
      "d": 187.5,
      "v": 94
    },
    {
      "midi": 57,
      "hit": false,
      "t": 166875,
      "d": 187.5,
      "v": 94
    },
    {
      "midi": 59,
      "hit": false,
      "t": 167062.5,
      "d": 187.5,
      "v": 94
    },
    {
      "midi": 60,
      "hit": false,
      "t": 167250,
      "d": 187.5,
      "v": 94
    },
    {
      "midi": 62,
      "hit": false,
      "t": 167437.5,
      "d": 187.5,
      "v": 94
    },
    {
      "midi": 66,
      "hit": false,
      "t": 167625,
      "d": 375,
      "v": 94
    },
    {
      "midi": 69,
      "hit": false,
      "t": 167625,
      "d": 375,
      "v": 94
    },
    {
      "midi": 74,
      "hit": false,
      "t": 167625,
      "d": 375,
      "v": 94
    },
    {
      "midi": 47,
      "hit": false,
      "t": 168000,
      "d": 750,
      "v": 94
    },
    {
      "midi": 62,
      "hit": false,
      "t": 168000,
      "d": 750,
      "v": 94
    },
    {
      "midi": 43,
      "hit": false,
      "t": 168000,
      "d": 1500,
      "v": 94
    },
    {
      "midi": 67,
      "hit": false,
      "t": 168750,
      "d": 750,
      "v": 94
    },
    {
      "midi": 71,
      "hit": false,
      "t": 168750,
      "d": 750,
      "v": 94
    },
    {
      "midi": 74,
      "hit": false,
      "t": 168750,
      "d": 750,
      "v": 94
    },
    {
      "midi": 66,
      "hit": false,
      "t": 169500,
      "d": 187.5,
      "v": 94
    },
    {
      "midi": 62,
      "hit": false,
      "t": 169687.5,
      "d": 187.5,
      "v": 94
    },
    {
      "midi": 59,
      "hit": false,
      "t": 169875,
      "d": 187.5,
      "v": 94
    },
    {
      "midi": 55,
      "hit": false,
      "t": 170062.5,
      "d": 937.5,
      "v": 94
    },
    {
      "midi": 59,
      "hit": false,
      "t": 170250,
      "d": 750,
      "v": 94
    },
    {
      "midi": 62,
      "hit": false,
      "t": 170250,
      "d": 750,
      "v": 94
    },
    {
      "midi": 67,
      "hit": false,
      "t": 170250,
      "d": 750,
      "v": 94
    },
    {
      "midi": 50,
      "hit": false,
      "t": 171000,
      "d": 375,
      "v": 94
    },
    {
      "midi": 66,
      "hit": false,
      "t": 171000,
      "d": 375,
      "v": 94
    },
    {
      "midi": 47,
      "hit": false,
      "t": 171000,
      "d": 1500,
      "v": 94
    },
    {
      "midi": 71,
      "hit": false,
      "t": 171375,
      "d": 375,
      "v": 94
    },
    {
      "midi": 74,
      "hit": false,
      "t": 171375,
      "d": 375,
      "v": 94
    },
    {
      "midi": 71,
      "hit": false,
      "t": 171750,
      "d": 187.5,
      "v": 94
    },
    {
      "midi": 66,
      "hit": false,
      "t": 171937.5,
      "d": 187.5,
      "v": 94
    },
    {
      "midi": 62,
      "hit": false,
      "t": 172125,
      "d": 187.5,
      "v": 94
    },
    {
      "midi": 59,
      "hit": false,
      "t": 172312.5,
      "d": 187.5,
      "v": 94
    },
    {
      "midi": 62,
      "hit": false,
      "t": 172500,
      "d": 187.5,
      "v": 94
    },
    {
      "midi": 54,
      "hit": false,
      "t": 172687.5,
      "d": 375,
      "v": 94
    },
    {
      "midi": 59,
      "hit": false,
      "t": 172687.5,
      "d": 375,
      "v": 94
    },
    {
      "midi": 59,
      "hit": false,
      "t": 173062.5,
      "d": 187.5,
      "v": 94
    },
    {
      "midi": 62,
      "hit": false,
      "t": 173062.5,
      "d": 187.5,
      "v": 94
    },
    {
      "midi": 66,
      "hit": false,
      "t": 173062.5,
      "d": 187.5,
      "v": 94
    },
    {
      "midi": 62,
      "hit": false,
      "t": 173250,
      "d": 375,
      "v": 94
    },
    {
      "midi": 66,
      "hit": false,
      "t": 173250,
      "d": 375,
      "v": 94
    },
    {
      "midi": 71,
      "hit": false,
      "t": 173250,
      "d": 375,
      "v": 94
    },
    {
      "midi": 66,
      "hit": false,
      "t": 173625,
      "d": 375,
      "v": 94
    },
    {
      "midi": 71,
      "hit": false,
      "t": 173625,
      "d": 375,
      "v": 94
    },
    {
      "midi": 74,
      "hit": false,
      "t": 173625,
      "d": 375,
      "v": 94
    },
    {
      "midi": 64,
      "hit": false,
      "t": 174750,
      "d": 750,
      "v": 94
    },
    {
      "midi": 67,
      "hit": false,
      "t": 174750,
      "d": 750,
      "v": 94
    },
    {
      "midi": 52,
      "hit": false,
      "t": 175125,
      "d": 375,
      "v": 94
    },
    {
      "midi": 48,
      "hit": false,
      "t": 175125,
      "d": 1875,
      "v": 94
    },
    {
      "midi": 64,
      "hit": false,
      "t": 175500,
      "d": 750,
      "v": 94
    },
    {
      "midi": 67,
      "hit": false,
      "t": 175500,
      "d": 750,
      "v": 94
    },
    {
      "midi": 60,
      "hit": false,
      "t": 175500,
      "d": 1500,
      "v": 94
    },
    {
      "midi": 67,
      "hit": false,
      "t": 176250,
      "d": 750,
      "v": 94
    },
    {
      "midi": 72,
      "hit": false,
      "t": 176250,
      "d": 750,
      "v": 94
    },
    {
      "midi": 76,
      "hit": false,
      "t": 176250,
      "d": 750,
      "v": 94
    },
    {
      "midi": 50,
      "hit": false,
      "t": 177000,
      "d": 375,
      "v": 94
    },
    {
      "midi": 66,
      "hit": false,
      "t": 177000,
      "d": 375,
      "v": 94
    },
    {
      "midi": 47,
      "hit": false,
      "t": 177000,
      "d": 1500,
      "v": 94
    },
    {
      "midi": 71,
      "hit": false,
      "t": 177375,
      "d": 375,
      "v": 94
    },
    {
      "midi": 74,
      "hit": false,
      "t": 177375,
      "d": 375,
      "v": 94
    },
    {
      "midi": 71,
      "hit": false,
      "t": 177750,
      "d": 187.5,
      "v": 94
    },
    {
      "midi": 66,
      "hit": false,
      "t": 177937.5,
      "d": 187.5,
      "v": 94
    },
    {
      "midi": 62,
      "hit": false,
      "t": 178125,
      "d": 187.5,
      "v": 94
    },
    {
      "midi": 59,
      "hit": false,
      "t": 178312.5,
      "d": 187.5,
      "v": 94
    },
    {
      "midi": 62,
      "hit": false,
      "t": 178500,
      "d": 187.5,
      "v": 94
    },
    {
      "midi": 54,
      "hit": false,
      "t": 178687.5,
      "d": 375,
      "v": 94
    },
    {
      "midi": 59,
      "hit": false,
      "t": 178687.5,
      "d": 375,
      "v": 94
    },
    {
      "midi": 59,
      "hit": false,
      "t": 179062.5,
      "d": 187.5,
      "v": 94
    },
    {
      "midi": 62,
      "hit": false,
      "t": 179062.5,
      "d": 187.5,
      "v": 94
    },
    {
      "midi": 66,
      "hit": false,
      "t": 179062.5,
      "d": 187.5,
      "v": 94
    },
    {
      "midi": 62,
      "hit": false,
      "t": 179250,
      "d": 375,
      "v": 94
    },
    {
      "midi": 66,
      "hit": false,
      "t": 179250,
      "d": 375,
      "v": 94
    },
    {
      "midi": 71,
      "hit": false,
      "t": 179250,
      "d": 375,
      "v": 94
    },
    {
      "midi": 66,
      "hit": false,
      "t": 179625,
      "d": 375,
      "v": 94
    },
    {
      "midi": 71,
      "hit": false,
      "t": 179625,
      "d": 375,
      "v": 94
    },
    {
      "midi": 74,
      "hit": false,
      "t": 179625,
      "d": 375,
      "v": 94
    },
    {
      "midi": 64,
      "hit": false,
      "t": 180750,
      "d": 750,
      "v": 94
    },
    {
      "midi": 67,
      "hit": false,
      "t": 180750,
      "d": 750,
      "v": 94
    },
    {
      "midi": 52,
      "hit": false,
      "t": 181125,
      "d": 375,
      "v": 94
    },
    {
      "midi": 48,
      "hit": false,
      "t": 181125,
      "d": 4878.90625,
      "v": 94
    },
    {
      "midi": 64,
      "hit": false,
      "t": 181500,
      "d": 750,
      "v": 94
    },
    {
      "midi": 67,
      "hit": false,
      "t": 181500,
      "d": 750,
      "v": 94
    },
    {
      "midi": 60,
      "hit": false,
      "t": 181500,
      "d": 1500,
      "v": 94
    },
    {
      "midi": 67,
      "hit": false,
      "t": 182250,
      "d": 750,
      "v": 94
    },
    {
      "midi": 72,
      "hit": false,
      "t": 182250,
      "d": 750,
      "v": 94
    },
    {
      "midi": 76,
      "hit": false,
      "t": 182250,
      "d": 750,
      "v": 94
    },
    {
      "midi": 47,
      "hit": false,
      "t": 183000,
      "d": 750,
      "v": 94
    },
    {
      "midi": 62,
      "hit": false,
      "t": 183000,
      "d": 750,
      "v": 94
    },
    {
      "midi": 43,
      "hit": false,
      "t": 183000,
      "d": 1500,
      "v": 94
    },
    {
      "midi": 67,
      "hit": false,
      "t": 183750,
      "d": 750,
      "v": 94
    },
    {
      "midi": 71,
      "hit": false,
      "t": 183750,
      "d": 750,
      "v": 94
    },
    {
      "midi": 74,
      "hit": false,
      "t": 183750,
      "d": 750,
      "v": 94
    },
    {
      "midi": 66,
      "hit": false,
      "t": 184500,
      "d": 187.5,
      "v": 94
    },
    {
      "midi": 62,
      "hit": false,
      "t": 184687.5,
      "d": 187.5,
      "v": 94
    },
    {
      "midi": 59,
      "hit": false,
      "t": 184875,
      "d": 187.5,
      "v": 94
    },
    {
      "midi": 55,
      "hit": false,
      "t": 185062.5,
      "d": 937.5,
      "v": 94
    },
    {
      "midi": 59,
      "hit": false,
      "t": 185250,
      "d": 750,
      "v": 94
    },
    {
      "midi": 62,
      "hit": false,
      "t": 185250,
      "d": 750,
      "v": 94
    },
    {
      "midi": 67,
      "hit": false,
      "t": 185250,
      "d": 750,
      "v": 94
    },
    {
      "midi": 64,
      "hit": false,
      "t": 186750,
      "d": 750,
      "v": 94
    },
    {
      "midi": 67,
      "hit": false,
      "t": 186750,
      "d": 750,
      "v": 94
    },
    {
      "midi": 52,
      "hit": false,
      "t": 187125,
      "d": 375,
      "v": 94
    },
    {
      "midi": 48,
      "hit": false,
      "t": 187125,
      "d": 1875,
      "v": 94
    },
    {
      "midi": 64,
      "hit": false,
      "t": 187500,
      "d": 750,
      "v": 94
    },
    {
      "midi": 67,
      "hit": false,
      "t": 187500,
      "d": 750,
      "v": 94
    },
    {
      "midi": 60,
      "hit": false,
      "t": 187500,
      "d": 1500,
      "v": 94
    },
    {
      "midi": 67,
      "hit": false,
      "t": 188250,
      "d": 750,
      "v": 94
    },
    {
      "midi": 72,
      "hit": false,
      "t": 188250,
      "d": 750,
      "v": 94
    },
    {
      "midi": 76,
      "hit": false,
      "t": 188250,
      "d": 750,
      "v": 94
    },
    {
      "midi": 38,
      "hit": false,
      "t": 189000,
      "d": 3000,
      "v": 94
    },
    {
      "midi": 42,
      "hit": false,
      "t": 189187.5,
      "d": 187.5,
      "v": 94
    },
    {
      "midi": 43,
      "hit": false,
      "t": 189375,
      "d": 187.5,
      "v": 94
    },
    {
      "midi": 45,
      "hit": false,
      "t": 189562.5,
      "d": 187.5,
      "v": 94
    },
    {
      "midi": 47,
      "hit": false,
      "t": 189750,
      "d": 187.5,
      "v": 94
    },
    {
      "midi": 48,
      "hit": false,
      "t": 189937.5,
      "d": 187.5,
      "v": 94
    },
    {
      "midi": 50,
      "hit": false,
      "t": 190125,
      "d": 187.5,
      "v": 94
    },
    {
      "midi": 52,
      "hit": false,
      "t": 190312.5,
      "d": 187.5,
      "v": 94
    },
    {
      "midi": 54,
      "hit": false,
      "t": 190500,
      "d": 187.5,
      "v": 94
    },
    {
      "midi": 55,
      "hit": false,
      "t": 190687.5,
      "d": 187.5,
      "v": 94
    },
    {
      "midi": 57,
      "hit": false,
      "t": 190875,
      "d": 187.5,
      "v": 94
    },
    {
      "midi": 59,
      "hit": false,
      "t": 191062.5,
      "d": 187.5,
      "v": 94
    },
    {
      "midi": 60,
      "hit": false,
      "t": 191250,
      "d": 187.5,
      "v": 94
    },
    {
      "midi": 62,
      "hit": false,
      "t": 191437.5,
      "d": 187.5,
      "v": 94
    },
    {
      "midi": 66,
      "hit": false,
      "t": 191625,
      "d": 375,
      "v": 94
    },
    {
      "midi": 69,
      "hit": false,
      "t": 191625,
      "d": 375,
      "v": 94
    },
    {
      "midi": 74,
      "hit": false,
      "t": 191625,
      "d": 375,
      "v": 94
    },
    {
      "midi": 66,
      "hit": false,
      "t": 192000,
      "d": 2250,
      "v": 110
    },
    {
      "midi": 69,
      "hit": false,
      "t": 192000,
      "d": 2250,
      "v": 110
    },
    {
      "midi": 74,
      "hit": false,
      "t": 192000,
      "d": 2250,
      "v": 110
    },
    {
      "midi": 59,
      "hit": false,
      "t": 195000,
      "d": 3000,
      "v": 94
    },
    {
      "midi": 62,
      "hit": false,
      "t": 195000,
      "d": 3000,
      "v": 94
    },
    {
      "midi": 55,
      "hit": false,
      "t": 195000,
      "d": 3003.90625,
      "v": 94
    },
    {
      "midi": 59,
      "hit": false,
      "t": 198000,
      "d": 3000,
      "v": 94
    },
    {
      "midi": 62,
      "hit": false,
      "t": 198000,
      "d": 3000,
      "v": 94
    },
    {
      "midi": 64,
      "hit": false,
      "t": 201000,
      "d": 375,
      "v": 94
    },
    {
      "midi": 67,
      "hit": false,
      "t": 201000,
      "d": 375,
      "v": 94
    },
    {
      "midi": 72,
      "hit": false,
      "t": 201375,
      "d": 375,
      "v": 94
    },
    {
      "midi": 71,
      "hit": false,
      "t": 201750,
      "d": 375,
      "v": 94
    },
    {
      "midi": 69,
      "hit": false,
      "t": 202125,
      "d": 375,
      "v": 94
    },
    {
      "midi": 64,
      "hit": false,
      "t": 202500,
      "d": 375,
      "v": 94
    },
    {
      "midi": 55,
      "hit": false,
      "t": 202500,
      "d": 1500,
      "v": 94
    },
    {
      "midi": 60,
      "hit": false,
      "t": 202500,
      "d": 1500,
      "v": 94
    },
    {
      "midi": 48,
      "hit": false,
      "t": 202875,
      "d": 1125,
      "v": 94
    },
    {
      "midi": 50,
      "hit": false,
      "t": 203062.5,
      "d": 187.5,
      "v": 94
    },
    {
      "midi": 52,
      "hit": false,
      "t": 203250,
      "d": 187.5,
      "v": 94
    },
    {
      "midi": 54,
      "hit": false,
      "t": 203437.5,
      "d": 187.5,
      "v": 94
    },
    {
      "midi": 64,
      "hit": false,
      "t": 203625,
      "d": 375,
      "v": 94
    },
    {
      "midi": 67,
      "hit": false,
      "t": 203625,
      "d": 375,
      "v": 94
    },
    {
      "midi": 72,
      "hit": false,
      "t": 203625,
      "d": 375,
      "v": 94
    },
    {
      "midi": 50,
      "hit": false,
      "t": 204000,
      "d": 375,
      "v": 94
    },
    {
      "midi": 66,
      "hit": false,
      "t": 204000,
      "d": 375,
      "v": 94
    },
    {
      "midi": 47,
      "hit": false,
      "t": 204000,
      "d": 1500,
      "v": 94
    },
    {
      "midi": 71,
      "hit": false,
      "t": 204375,
      "d": 375,
      "v": 94
    },
    {
      "midi": 74,
      "hit": false,
      "t": 204375,
      "d": 375,
      "v": 94
    },
    {
      "midi": 71,
      "hit": false,
      "t": 204750,
      "d": 187.5,
      "v": 94
    },
    {
      "midi": 66,
      "hit": false,
      "t": 204937.5,
      "d": 187.5,
      "v": 94
    },
    {
      "midi": 62,
      "hit": false,
      "t": 205125,
      "d": 187.5,
      "v": 94
    },
    {
      "midi": 59,
      "hit": false,
      "t": 205312.5,
      "d": 187.5,
      "v": 94
    },
    {
      "midi": 62,
      "hit": false,
      "t": 205500,
      "d": 187.5,
      "v": 94
    },
    {
      "midi": 54,
      "hit": false,
      "t": 205687.5,
      "d": 375,
      "v": 94
    },
    {
      "midi": 59,
      "hit": false,
      "t": 205687.5,
      "d": 375,
      "v": 94
    },
    {
      "midi": 59,
      "hit": false,
      "t": 206062.5,
      "d": 187.5,
      "v": 94
    },
    {
      "midi": 62,
      "hit": false,
      "t": 206062.5,
      "d": 187.5,
      "v": 94
    },
    {
      "midi": 66,
      "hit": false,
      "t": 206062.5,
      "d": 187.5,
      "v": 94
    },
    {
      "midi": 62,
      "hit": false,
      "t": 206250,
      "d": 375,
      "v": 94
    },
    {
      "midi": 66,
      "hit": false,
      "t": 206250,
      "d": 375,
      "v": 94
    },
    {
      "midi": 71,
      "hit": false,
      "t": 206250,
      "d": 375,
      "v": 94
    },
    {
      "midi": 66,
      "hit": false,
      "t": 206625,
      "d": 375,
      "v": 94
    },
    {
      "midi": 71,
      "hit": false,
      "t": 206625,
      "d": 375,
      "v": 94
    },
    {
      "midi": 74,
      "hit": false,
      "t": 206625,
      "d": 375,
      "v": 94
    },
    {
      "midi": 64,
      "hit": false,
      "t": 207750,
      "d": 750,
      "v": 94
    },
    {
      "midi": 67,
      "hit": false,
      "t": 207750,
      "d": 750,
      "v": 94
    },
    {
      "midi": 52,
      "hit": false,
      "t": 208125,
      "d": 375,
      "v": 94
    },
    {
      "midi": 48,
      "hit": false,
      "t": 208125,
      "d": 1875,
      "v": 94
    },
    {
      "midi": 64,
      "hit": false,
      "t": 208500,
      "d": 750,
      "v": 94
    },
    {
      "midi": 67,
      "hit": false,
      "t": 208500,
      "d": 750,
      "v": 94
    },
    {
      "midi": 60,
      "hit": false,
      "t": 208500,
      "d": 1500,
      "v": 94
    },
    {
      "midi": 67,
      "hit": false,
      "t": 209250,
      "d": 750,
      "v": 94
    },
    {
      "midi": 72,
      "hit": false,
      "t": 209250,
      "d": 750,
      "v": 94
    },
    {
      "midi": 76,
      "hit": false,
      "t": 209250,
      "d": 750,
      "v": 94
    },
    {
      "midi": 47,
      "hit": false,
      "t": 210000,
      "d": 750,
      "v": 94
    },
    {
      "midi": 62,
      "hit": false,
      "t": 210000,
      "d": 750,
      "v": 94
    },
    {
      "midi": 43,
      "hit": false,
      "t": 210000,
      "d": 1500,
      "v": 94
    },
    {
      "midi": 67,
      "hit": false,
      "t": 210750,
      "d": 750,
      "v": 94
    },
    {
      "midi": 71,
      "hit": false,
      "t": 210750,
      "d": 750,
      "v": 94
    },
    {
      "midi": 74,
      "hit": false,
      "t": 210750,
      "d": 750,
      "v": 94
    },
    {
      "midi": 66,
      "hit": false,
      "t": 211500,
      "d": 187.5,
      "v": 94
    },
    {
      "midi": 62,
      "hit": false,
      "t": 211687.5,
      "d": 187.5,
      "v": 94
    },
    {
      "midi": 59,
      "hit": false,
      "t": 211875,
      "d": 187.5,
      "v": 94
    },
    {
      "midi": 55,
      "hit": false,
      "t": 212062.5,
      "d": 941.40625,
      "v": 94
    },
    {
      "midi": 59,
      "hit": false,
      "t": 212250,
      "d": 750,
      "v": 94
    },
    {
      "midi": 62,
      "hit": false,
      "t": 212250,
      "d": 750,
      "v": 94
    },
    {
      "midi": 67,
      "hit": false,
      "t": 212250,
      "d": 750,
      "v": 94
    },
    {
      "midi": 59,
      "hit": false,
      "t": 213000,
      "d": 750,
      "v": 94
    },
    {
      "midi": 52,
      "hit": false,
      "t": 213000,
      "d": 2250,
      "v": 94
    },
    {
      "midi": 76,
      "hit": false,
      "t": 213750,
      "d": 187.5,
      "v": 94
    },
    {
      "midi": 74,
      "hit": false,
      "t": 213937.5,
      "d": 187.5,
      "v": 94
    },
    {
      "midi": 71,
      "hit": false,
      "t": 214125,
      "d": 187.5,
      "v": 94
    },
    {
      "midi": 69,
      "hit": false,
      "t": 214312.5,
      "d": 187.5,
      "v": 94
    },
    {
      "midi": 59,
      "hit": false,
      "t": 214500,
      "d": 750,
      "v": 94
    },
    {
      "midi": 64,
      "hit": false,
      "t": 214500,
      "d": 750,
      "v": 94
    },
    {
      "midi": 67,
      "hit": false,
      "t": 215250,
      "d": 375,
      "v": 94
    },
    {
      "midi": 71,
      "hit": false,
      "t": 215250,
      "d": 375,
      "v": 94
    },
    {
      "midi": 76,
      "hit": false,
      "t": 215250,
      "d": 375,
      "v": 94
    },
    {
      "midi": 71,
      "hit": false,
      "t": 215625,
      "d": 187.5,
      "v": 94
    },
    {
      "midi": 69,
      "hit": false,
      "t": 215812.5,
      "d": 187.5,
      "v": 94
    },
    {
      "midi": 50,
      "hit": false,
      "t": 216000,
      "d": 375,
      "v": 94
    },
    {
      "midi": 66,
      "hit": false,
      "t": 216000,
      "d": 375,
      "v": 94
    },
    {
      "midi": 47,
      "hit": false,
      "t": 216000,
      "d": 1500,
      "v": 94
    },
    {
      "midi": 71,
      "hit": false,
      "t": 216375,
      "d": 375,
      "v": 94
    },
    {
      "midi": 74,
      "hit": false,
      "t": 216375,
      "d": 375,
      "v": 94
    },
    {
      "midi": 71,
      "hit": false,
      "t": 216750,
      "d": 187.5,
      "v": 94
    },
    {
      "midi": 66,
      "hit": false,
      "t": 216937.5,
      "d": 187.5,
      "v": 94
    },
    {
      "midi": 62,
      "hit": false,
      "t": 217125,
      "d": 187.5,
      "v": 94
    },
    {
      "midi": 59,
      "hit": false,
      "t": 217312.5,
      "d": 187.5,
      "v": 94
    },
    {
      "midi": 59,
      "hit": false,
      "t": 217500,
      "d": 750,
      "v": 94
    },
    {
      "midi": 64,
      "hit": false,
      "t": 217500,
      "d": 750,
      "v": 94
    },
    {
      "midi": 67,
      "hit": false,
      "t": 218250,
      "d": 375,
      "v": 94
    },
    {
      "midi": 71,
      "hit": false,
      "t": 218250,
      "d": 375,
      "v": 94
    },
    {
      "midi": 76,
      "hit": false,
      "t": 218250,
      "d": 375,
      "v": 94
    },
    {
      "midi": 71,
      "hit": false,
      "t": 218625,
      "d": 187.5,
      "v": 94
    },
    {
      "midi": 69,
      "hit": false,
      "t": 218812.5,
      "d": 187.5,
      "v": 94
    },
    {
      "midi": 57,
      "hit": false,
      "t": 219000,
      "d": 750,
      "v": 94
    },
    {
      "midi": 64,
      "hit": false,
      "t": 219000,
      "d": 750,
      "v": 94
    },
    {
      "midi": 69,
      "hit": false,
      "t": 219750,
      "d": 375,
      "v": 94
    },
    {
      "midi": 72,
      "hit": false,
      "t": 219750,
      "d": 375,
      "v": 94
    },
    {
      "midi": 64,
      "hit": false,
      "t": 220125,
      "d": 375,
      "v": 94
    },
    {
      "midi": 69,
      "hit": false,
      "t": 220125,
      "d": 375,
      "v": 94
    },
    {
      "midi": 60,
      "hit": false,
      "t": 220125,
      "d": 1875,
      "v": 94
    },
    {
      "midi": 62,
      "hit": false,
      "t": 220500,
      "d": 1500,
      "v": 94
    },
    {
      "midi": 66,
      "hit": false,
      "t": 220500,
      "d": 1500,
      "v": 94
    },
    {
      "midi": 69,
      "hit": false,
      "t": 220500,
      "d": 1500,
      "v": 94
    },
    {
      "midi": 55,
      "hit": false,
      "t": 222000,
      "d": 3003.90625,
      "v": 110
    },
    {
      "midi": 59,
      "hit": false,
      "t": 222375,
      "d": 375,
      "v": 110
    },
    {
      "midi": 62,
      "hit": false,
      "t": 222750,
      "d": 375,
      "v": 110
    },
    {
      "midi": 59,
      "hit": false,
      "t": 223125,
      "d": 1875,
      "v": 110
    },
    {
      "midi": 67,
      "hit": false,
      "t": 223125,
      "d": 1875,
      "v": 110
    },
    {
      "midi": 74,
      "hit": false,
      "t": 223125,
      "d": 1875,
      "v": 110
    },
    {
      "midi": 59,
      "hit": false,
      "t": 225000,
      "d": 750,
      "v": 94
    },
    {
      "midi": 52,
      "hit": false,
      "t": 225000,
      "d": 2250,
      "v": 94
    },
    {
      "midi": 76,
      "hit": false,
      "t": 225750,
      "d": 187.5,
      "v": 94
    },
    {
      "midi": 74,
      "hit": false,
      "t": 225937.5,
      "d": 187.5,
      "v": 94
    },
    {
      "midi": 71,
      "hit": false,
      "t": 226125,
      "d": 187.5,
      "v": 94
    },
    {
      "midi": 69,
      "hit": false,
      "t": 226312.5,
      "d": 187.5,
      "v": 94
    },
    {
      "midi": 59,
      "hit": false,
      "t": 226500,
      "d": 750,
      "v": 94
    },
    {
      "midi": 64,
      "hit": false,
      "t": 226500,
      "d": 750,
      "v": 94
    },
    {
      "midi": 67,
      "hit": false,
      "t": 227250,
      "d": 375,
      "v": 94
    },
    {
      "midi": 71,
      "hit": false,
      "t": 227250,
      "d": 375,
      "v": 94
    },
    {
      "midi": 76,
      "hit": false,
      "t": 227250,
      "d": 375,
      "v": 94
    },
    {
      "midi": 71,
      "hit": false,
      "t": 227625,
      "d": 187.5,
      "v": 94
    },
    {
      "midi": 69,
      "hit": false,
      "t": 227812.5,
      "d": 187.5,
      "v": 94
    },
    {
      "midi": 50,
      "hit": false,
      "t": 228000,
      "d": 375,
      "v": 94
    },
    {
      "midi": 66,
      "hit": false,
      "t": 228000,
      "d": 375,
      "v": 94
    },
    {
      "midi": 47,
      "hit": false,
      "t": 228000,
      "d": 1500,
      "v": 94
    },
    {
      "midi": 71,
      "hit": false,
      "t": 228375,
      "d": 375,
      "v": 94
    },
    {
      "midi": 74,
      "hit": false,
      "t": 228375,
      "d": 375,
      "v": 94
    },
    {
      "midi": 71,
      "hit": false,
      "t": 228750,
      "d": 187.5,
      "v": 94
    },
    {
      "midi": 66,
      "hit": false,
      "t": 228937.5,
      "d": 187.5,
      "v": 94
    },
    {
      "midi": 62,
      "hit": false,
      "t": 229125,
      "d": 187.5,
      "v": 94
    },
    {
      "midi": 59,
      "hit": false,
      "t": 229312.5,
      "d": 187.5,
      "v": 94
    },
    {
      "midi": 59,
      "hit": false,
      "t": 229500,
      "d": 750,
      "v": 94
    },
    {
      "midi": 64,
      "hit": false,
      "t": 229500,
      "d": 750,
      "v": 94
    },
    {
      "midi": 67,
      "hit": false,
      "t": 230250,
      "d": 375,
      "v": 94
    },
    {
      "midi": 71,
      "hit": false,
      "t": 230250,
      "d": 375,
      "v": 94
    },
    {
      "midi": 76,
      "hit": false,
      "t": 230250,
      "d": 375,
      "v": 94
    },
    {
      "midi": 71,
      "hit": false,
      "t": 230625,
      "d": 187.5,
      "v": 94
    },
    {
      "midi": 69,
      "hit": false,
      "t": 230812.5,
      "d": 187.5,
      "v": 94
    },
    {
      "midi": 57,
      "hit": false,
      "t": 231000,
      "d": 750,
      "v": 94
    },
    {
      "midi": 64,
      "hit": false,
      "t": 231000,
      "d": 750,
      "v": 94
    },
    {
      "midi": 69,
      "hit": false,
      "t": 231750,
      "d": 375,
      "v": 94
    },
    {
      "midi": 72,
      "hit": false,
      "t": 231750,
      "d": 375,
      "v": 94
    },
    {
      "midi": 64,
      "hit": false,
      "t": 232125,
      "d": 375,
      "v": 94
    },
    {
      "midi": 69,
      "hit": false,
      "t": 232125,
      "d": 375,
      "v": 94
    },
    {
      "midi": 60,
      "hit": false,
      "t": 232125,
      "d": 1875,
      "v": 94
    },
    {
      "midi": 62,
      "hit": false,
      "t": 232500,
      "d": 1500,
      "v": 94
    },
    {
      "midi": 66,
      "hit": false,
      "t": 232500,
      "d": 1500,
      "v": 94
    },
    {
      "midi": 69,
      "hit": false,
      "t": 232500,
      "d": 1500,
      "v": 94
    },
    {
      "midi": 59,
      "hit": false,
      "t": 234375,
      "d": 375,
      "v": 110
    },
    {
      "midi": 62,
      "hit": false,
      "t": 234750,
      "d": 375,
      "v": 110
    },
    {
      "midi": 59,
      "hit": false,
      "t": 235125,
      "d": 1875,
      "v": 110
    },
    {
      "midi": 67,
      "hit": false,
      "t": 235125,
      "d": 1875,
      "v": 110
    },
    {
      "midi": 74,
      "hit": false,
      "t": 235125,
      "d": 1875,
      "v": 110
    },
    {
      "midi": 59,
      "hit": false,
      "t": 237000,
      "d": 3000,
      "v": 94
    },
    {
      "midi": 67,
      "hit": false,
      "t": 237000,
      "d": 3000,
      "v": 94
    }
  ]
}