{
  "jsonPath": "Unknown/Unknown/The Forester Sisters/id-choose-you-again-album-version.json",
  "path": "Unknown\\Unknown\\The Forester Sisters\\(Id Choose) You Again (Album Version).mid",
  "name": "(Id Choose) You Again (Album Version)",
  "difficulty": "Advanced",
  "bpm": 135.000135000135,
  "notes": [
    {
      "midi": 55,
      "hit": false,
      "t": 3555.552,
      "d": 211.11090000000013,
      "v": 59
    },
    {
      "midi": 58,
      "hit": false,
      "t": 3851.8480000000004,
      "d": 151.85170000000016,
      "v": 53
    },
    {
      "midi": 62,
      "hit": false,
      "t": 3999.9960000000005,
      "d": 274.07379999999966,
      "v": 87
    },
    {
      "midi": 67,
      "hit": false,
      "t": 4296.292,
      "d": 166.66650000000027,
      "v": 82
    },
    {
      "midi": 43,
      "hit": false,
      "t": 4740.736000000001,
      "d": 99.9998999999998,
      "v": 66
    },
    {
      "midi": 62,
      "hit": false,
      "t": 4888.884000000001,
      "d": 144.4443000000001,
      "v": 87
    },
    {
      "midi": 67,
      "hit": false,
      "t": 4888.884000000001,
      "d": 144.4443000000001,
      "v": 87
    },
    {
      "midi": 70,
      "hit": false,
      "t": 4888.884000000001,
      "d": 144.4443000000001,
      "v": 87
    },
    {
      "midi": 58,
      "hit": false,
      "t": 5777.772000000001,
      "d": 240.74049999999988,
      "v": 78
    },
    {
      "midi": 60,
      "hit": false,
      "t": 5777.772000000001,
      "d": 240.74049999999988,
      "v": 78
    },
    {
      "midi": 64,
      "hit": false,
      "t": 5777.772000000001,
      "d": 240.74049999999988,
      "v": 78
    },
    {
      "midi": 67,
      "hit": false,
      "t": 5777.772000000001,
      "d": 240.74049999999988,
      "v": 78
    },
    {
      "midi": 48,
      "hit": false,
      "t": 6518.512000000001,
      "d": 77.77769999999964,
      "v": 57
    },
    {
      "midi": 58,
      "hit": false,
      "t": 6666.66,
      "d": 81.48139999999967,
      "v": 89
    },
    {
      "midi": 60,
      "hit": false,
      "t": 6666.66,
      "d": 81.48139999999967,
      "v": 89
    },
    {
      "midi": 64,
      "hit": false,
      "t": 6666.66,
      "d": 81.48139999999967,
      "v": 89
    },
    {
      "midi": 67,
      "hit": false,
      "t": 6666.66,
      "d": 81.48139999999967,
      "v": 89
    },
    {
      "midi": 65,
      "hit": false,
      "t": 7111.103999999999,
      "d": 211.11089999999967,
      "v": 59
    },
    {
      "midi": 69,
      "hit": false,
      "t": 7407.399999999999,
      "d": 151.85170000000016,
      "v": 53
    },
    {
      "midi": 72,
      "hit": false,
      "t": 7555.547999999999,
      "d": 274.0738000000001,
      "v": 87
    },
    {
      "midi": 77,
      "hit": false,
      "t": 7851.843999999999,
      "d": 166.66650000000027,
      "v": 82
    },
    {
      "midi": 53,
      "hit": false,
      "t": 8296.287999999999,
      "d": 99.99990000000071,
      "v": 66
    },
    {
      "midi": 57,
      "hit": false,
      "t": 8444.436,
      "d": 144.4442999999992,
      "v": 87
    },
    {
      "midi": 60,
      "hit": false,
      "t": 8444.436,
      "d": 144.4442999999992,
      "v": 87
    },
    {
      "midi": 65,
      "hit": false,
      "t": 8444.436,
      "d": 144.4442999999992,
      "v": 87
    },
    {
      "midi": 57,
      "hit": false,
      "t": 9333.323999999999,
      "d": 296.2960000000003,
      "v": 82
    },
    {
      "midi": 62,
      "hit": false,
      "t": 9333.323999999999,
      "d": 296.2960000000003,
      "v": 82
    },
    {
      "midi": 65,
      "hit": false,
      "t": 9333.323999999999,
      "d": 296.2960000000003,
      "v": 82
    },
    {
      "midi": 62,
      "hit": false,
      "t": 10074.063999999998,
      "d": 155.55539999999928,
      "v": 68
    },
    {
      "midi": 65,
      "hit": false,
      "t": 10229.619399999998,
      "d": 48.14810000000034,
      "v": 82
    },
    {
      "midi": 69,
      "hit": false,
      "t": 10370.359999999999,
      "d": 88.88880000000063,
      "v": 78
    },
    {
      "midi": 74,
      "hit": false,
      "t": 10518.508,
      "d": 44.444400000000314,
      "v": 98
    },
    {
      "midi": 58,
      "hit": false,
      "t": 11111.1,
      "d": 296.2960000000003,
      "v": 82
    },
    {
      "midi": 62,
      "hit": false,
      "t": 11111.1,
      "d": 296.2960000000003,
      "v": 82
    },
    {
      "midi": 65,
      "hit": false,
      "t": 11111.1,
      "d": 296.2960000000003,
      "v": 82
    },
    {
      "midi": 58,
      "hit": false,
      "t": 11851.84,
      "d": 155.55539999999928,
      "v": 68
    },
    {
      "midi": 61,
      "hit": false,
      "t": 12007.3954,
      "d": 48.14810000000034,
      "v": 52
    },
    {
      "midi": 62,
      "hit": false,
      "t": 12007.3954,
      "d": 107.40730000000076,
      "v": 82
    },
    {
      "midi": 65,
      "hit": false,
      "t": 12148.136,
      "d": 88.88880000000063,
      "v": 78
    },
    {
      "midi": 70,
      "hit": false,
      "t": 12296.284000000001,
      "d": 44.444400000000314,
      "v": 98
    },
    {
      "midi": 55,
      "hit": false,
      "t": 12888.876000000002,
      "d": 240.74049999999988,
      "v": 78
    },
    {
      "midi": 58,
      "hit": false,
      "t": 12888.876000000002,
      "d": 240.74049999999988,
      "v": 78
    },
    {
      "midi": 62,
      "hit": false,
      "t": 12888.876000000002,
      "d": 240.74049999999988,
      "v": 78
    },
    {
      "midi": 43,
      "hit": false,
      "t": 13629.616000000002,
      "d": 77.77770000000055,
      "v": 57
    },
    {
      "midi": 55,
      "hit": false,
      "t": 13777.764000000003,
      "d": 81.48140000000058,
      "v": 89
    },
    {
      "midi": 58,
      "hit": false,
      "t": 13777.764000000003,
      "d": 81.48140000000058,
      "v": 89
    },
    {
      "midi": 62,
      "hit": false,
      "t": 13777.764000000003,
      "d": 81.48140000000058,
      "v": 89
    },
    {
      "midi": 58,
      "hit": false,
      "t": 14666.652000000004,
      "d": 151.85169999999925,
      "v": 80
    },
    {
      "midi": 63,
      "hit": false,
      "t": 14666.652000000004,
      "d": 151.85169999999925,
      "v": 80
    },
    {
      "midi": 67,
      "hit": false,
      "t": 14666.652000000004,
      "d": 151.85169999999925,
      "v": 80
    },
    {
      "midi": 58,
      "hit": false,
      "t": 15555.540000000003,
      "d": 103.70360000000073,
      "v": 80
    },
    {
      "midi": 63,
      "hit": false,
      "t": 15555.540000000003,
      "d": 103.70360000000073,
      "v": 80
    },
    {
      "midi": 67,
      "hit": false,
      "t": 15555.540000000003,
      "d": 103.70360000000073,
      "v": 80
    },
    {
      "midi": 58,
      "hit": false,
      "t": 16444.428000000004,
      "d": 129.6294999999991,
      "v": 72
    },
    {
      "midi": 63,
      "hit": false,
      "t": 16444.428000000004,
      "d": 129.6294999999991,
      "v": 72
    },
    {
      "midi": 67,
      "hit": false,
      "t": 16444.428000000004,
      "d": 129.6294999999991,
      "v": 72
    },
    {
      "midi": 51,
      "hit": false,
      "t": 17185.168,
      "d": 51.85180000000037,
      "v": 60
    },
    {
      "midi": 58,
      "hit": false,
      "t": 17333.316000000003,
      "d": 74.07400000000052,
      "v": 102
    },
    {
      "midi": 63,
      "hit": false,
      "t": 17333.316000000003,
      "d": 74.07400000000052,
      "v": 102
    },
    {
      "midi": 67,
      "hit": false,
      "t": 17333.316000000003,
      "d": 74.07400000000052,
      "v": 102
    },
    {
      "midi": 55,
      "hit": false,
      "t": 18222.204,
      "d": 296.29599999999846,
      "v": 82
    },
    {
      "midi": 58,
      "hit": false,
      "t": 18222.204,
      "d": 296.29599999999846,
      "v": 82
    },
    {
      "midi": 62,
      "hit": false,
      "t": 18222.204,
      "d": 296.29599999999846,
      "v": 82
    },
    {
      "midi": 55,
      "hit": false,
      "t": 18962.944,
      "d": 155.5554000000011,
      "v": 68
    },
    {
      "midi": 58,
      "hit": false,
      "t": 19118.4994,
      "d": 48.14809999999852,
      "v": 82
    },
    {
      "midi": 62,
      "hit": false,
      "t": 19259.239999999998,
      "d": 88.88880000000063,
      "v": 78
    },
    {
      "midi": 67,
      "hit": false,
      "t": 19407.388,
      "d": 44.444400000000314,
      "v": 98
    },
    {
      "midi": 58,
      "hit": false,
      "t": 19555.536,
      "d": 170.3702000000012,
      "v": 80
    },
    {
      "midi": 60,
      "hit": false,
      "t": 19555.536,
      "d": 170.3702000000012,
      "v": 80
    },
    {
      "midi": 64,
      "hit": false,
      "t": 19555.536,
      "d": 170.3702000000012,
      "v": 80
    },
    {
      "midi": 67,
      "hit": false,
      "t": 19555.536,
      "d": 170.3702000000012,
      "v": 80
    },
    {
      "midi": 58,
      "hit": false,
      "t": 19999.98,
      "d": 162.96280000000115,
      "v": 72
    },
    {
      "midi": 60,
      "hit": false,
      "t": 19999.98,
      "d": 162.96280000000115,
      "v": 72
    },
    {
      "midi": 64,
      "hit": false,
      "t": 19999.98,
      "d": 162.96280000000115,
      "v": 72
    },
    {
      "midi": 67,
      "hit": false,
      "t": 19999.98,
      "d": 162.96280000000115,
      "v": 72
    },
    {
      "midi": 48,
      "hit": false,
      "t": 20740.72,
      "d": 66.66660000000047,
      "v": 60
    },
    {
      "midi": 58,
      "hit": false,
      "t": 20888.868000000002,
      "d": 99.99989999999889,
      "v": 85
    },
    {
      "midi": 60,
      "hit": false,
      "t": 20888.868000000002,
      "d": 99.99989999999889,
      "v": 85
    },
    {
      "midi": 64,
      "hit": false,
      "t": 20888.868000000002,
      "d": 99.99989999999889,
      "v": 85
    },
    {
      "midi": 67,
      "hit": false,
      "t": 20888.868000000002,
      "d": 99.99989999999889,
      "v": 85
    },
    {
      "midi": 57,
      "hit": false,
      "t": 21333.312,
      "d": 266.66639999999825,
      "v": 85
    },
    {
      "midi": 60,
      "hit": false,
      "t": 21333.312,
      "d": 266.66639999999825,
      "v": 85
    },
    {
      "midi": 65,
      "hit": false,
      "t": 21333.312,
      "d": 266.66639999999825,
      "v": 85
    },
    {
      "midi": 57,
      "hit": false,
      "t": 21629.608,
      "d": 88.88880000000063,
      "v": 68
    },
    {
      "midi": 60,
      "hit": false,
      "t": 21629.608,
      "d": 88.88880000000063,
      "v": 68
    },
    {
      "midi": 65,
      "hit": false,
      "t": 21629.608,
      "d": 88.88880000000063,
      "v": 68
    },
    {
      "midi": 57,
      "hit": false,
      "t": 22074.052,
      "d": 122.22209999999905,
      "v": 66
    },
    {
      "midi": 60,
      "hit": false,
      "t": 22074.052,
      "d": 122.22209999999905,
      "v": 66
    },
    {
      "midi": 65,
      "hit": false,
      "t": 22074.052,
      "d": 122.22209999999905,
      "v": 66
    },
    {
      "midi": 53,
      "hit": false,
      "t": 22518.496,
      "d": 81.48140000000058,
      "v": 55
    },
    {
      "midi": 57,
      "hit": false,
      "t": 22666.644,
      "d": 99.99989999999889,
      "v": 82
    },
    {
      "midi": 60,
      "hit": false,
      "t": 22666.644,
      "d": 99.99989999999889,
      "v": 82
    },
    {
      "midi": 65,
      "hit": false,
      "t": 22666.644,
      "d": 99.99989999999889,
      "v": 82
    },
    {
      "midi": 62,
      "hit": false,
      "t": 23111.088,
      "d": 211.11089999999967,
      "v": 59
    },
    {
      "midi": 65,
      "hit": false,
      "t": 23407.384,
      "d": 151.85169999999925,
      "v": 53
    },
    {
      "midi": 69,
      "hit": false,
      "t": 23555.532,
      "d": 274.0737999999983,
      "v": 87
    },
    {
      "midi": 74,
      "hit": false,
      "t": 23851.827999999998,
      "d": 166.66649999999936,
      "v": 82
    },
    {
      "midi": 50,
      "hit": false,
      "t": 24296.271999999997,
      "d": 99.99989999999889,
      "v": 66
    },
    {
      "midi": 57,
      "hit": false,
      "t": 24444.419999999995,
      "d": 144.4442999999992,
      "v": 87
    },
    {
      "midi": 62,
      "hit": false,
      "t": 24444.419999999995,
      "d": 144.4442999999992,
      "v": 87
    },
    {
      "midi": 65,
      "hit": false,
      "t": 24444.419999999995,
      "d": 144.4442999999992,
      "v": 87
    },
    {
      "midi": 58,
      "hit": false,
      "t": 25333.307999999994,
      "d": 240.74049999999988,
      "v": 78
    },
    {
      "midi": 62,
      "hit": false,
      "t": 25333.307999999994,
      "d": 240.74049999999988,
      "v": 78
    },
    {
      "midi": 65,
      "hit": false,
      "t": 25333.307999999994,
      "d": 240.74049999999988,
      "v": 78
    },
    {
      "midi": 46,
      "hit": false,
      "t": 26074.047999999995,
      "d": 77.77769999999873,
      "v": 57
    },
    {
      "midi": 58,
      "hit": false,
      "t": 26222.195999999993,
      "d": 81.48140000000058,
      "v": 89
    },
    {
      "midi": 62,
      "hit": false,
      "t": 26222.195999999993,
      "d": 81.48140000000058,
      "v": 89
    },
    {
      "midi": 65,
      "hit": false,
      "t": 26222.195999999993,
      "d": 81.48140000000058,
      "v": 89
    },
    {
      "midi": 58,
      "hit": false,
      "t": 26666.639999999992,
      "d": 211.11089999999967,
      "v": 59
    },
    {
      "midi": 64,
      "hit": false,
      "t": 26962.93599999999,
      "d": 151.85169999999925,
      "v": 53
    },
    {
      "midi": 67,
      "hit": false,
      "t": 27111.08399999999,
      "d": 274.0737999999983,
      "v": 87
    },
    {
      "midi": 72,
      "hit": false,
      "t": 27407.37999999999,
      "d": 166.66649999999936,
      "v": 82
    },
    {
      "midi": 48,
      "hit": false,
      "t": 27851.82399999999,
      "d": 99.99989999999889,
      "v": 66
    },
    {
      "midi": 58,
      "hit": false,
      "t": 27999.971999999987,
      "d": 144.4442999999992,
      "v": 87
    },
    {
      "midi": 60,
      "hit": false,
      "t": 27999.971999999987,
      "d": 144.4442999999992,
      "v": 87
    },
    {
      "midi": 64,
      "hit": false,
      "t": 27999.971999999987,
      "d": 144.4442999999992,
      "v": 87
    },
    {
      "midi": 67,
      "hit": false,
      "t": 27999.971999999987,
      "d": 144.4442999999992,
      "v": 87
    },
    {
      "midi": 57,
      "hit": false,
      "t": 28888.859999999986,
      "d": 296.29599999999846,
      "v": 82
    },
    {
      "midi": 60,
      "hit": false,
      "t": 28888.859999999986,
      "d": 296.29599999999846,
      "v": 82
    },
    {
      "midi": 65,
      "hit": false,
      "t": 28888.859999999986,
      "d": 296.29599999999846,
      "v": 82
    },
    {
      "midi": 65,
      "hit": false,
      "t": 29629.599999999984,
      "d": 155.5554000000011,
      "v": 68
    },
    {
      "midi": 68,
      "hit": false,
      "t": 29785.155399999985,
      "d": 48.14809999999852,
      "v": 52
    },
    {
      "midi": 69,
      "hit": false,
      "t": 29785.155399999985,
      "d": 107.40729999999894,
      "v": 82
    },
    {
      "midi": 72,
      "hit": false,
      "t": 29925.895999999982,
      "d": 88.88880000000063,
      "v": 78
    },
    {
      "midi": 77,
      "hit": false,
      "t": 30074.043999999983,
      "d": 44.444400000000314,
      "v": 98
    },
    {
      "midi": 57,
      "hit": false,
      "t": 30222.191999999985,
      "d": 199.99980000000141,
      "v": 80
    },
    {
      "midi": 60,
      "hit": false,
      "t": 30222.191999999985,
      "d": 199.99980000000141,
      "v": 80
    },
    {
      "midi": 65,
      "hit": false,
      "t": 30222.191999999985,
      "d": 199.99980000000141,
      "v": 80
    },
    {
      "midi": 65,
      "hit": false,
      "t": 30666.635999999988,
      "d": 137.03689999999915,
      "v": 58
    },
    {
      "midi": 69,
      "hit": false,
      "t": 30814.783999999985,
      "d": 114.814699999999,
      "v": 80
    },
    {
      "midi": 72,
      "hit": false,
      "t": 30962.931999999983,
      "d": 55.555499999998574,
      "v": 85
    },
    {
      "midi": 50,
      "hit": false,
      "t": 31407.375999999982,
      "d": 151.85169999999925,
      "v": 63
    },
    {
      "midi": 60,
      "hit": false,
      "t": 31559.22769999998,
      "d": 174.0738999999994,
      "v": 85
    },
    {
      "midi": 62,
      "hit": false,
      "t": 31559.22769999998,
      "d": 174.0738999999994,
      "v": 85
    },
    {
      "midi": 66,
      "hit": false,
      "t": 31559.22769999998,
      "d": 174.0738999999994,
      "v": 85
    },
    {
      "midi": 69,
      "hit": false,
      "t": 31559.22769999998,
      "d": 174.0738999999994,
      "v": 85
    },
    {
      "midi": 55,
      "hit": false,
      "t": 32444.411999999982,
      "d": 296.29599999999846,
      "v": 82
    },
    {
      "midi": 58,
      "hit": false,
      "t": 32444.411999999982,
      "d": 296.29599999999846,
      "v": 82
    },
    {
      "midi": 62,
      "hit": false,
      "t": 32444.411999999982,
      "d": 296.29599999999846,
      "v": 82
    },
    {
      "midi": 55,
      "hit": false,
      "t": 33185.15199999998,
      "d": 155.55539999999746,
      "v": 68
    },
    {
      "midi": 58,
      "hit": false,
      "t": 33340.70739999998,
      "d": 48.14809999999852,
      "v": 82
    },
    {
      "midi": 62,
      "hit": false,
      "t": 33481.447999999975,
      "d": 88.88880000000063,
      "v": 78
    },
    {
      "midi": 67,
      "hit": false,
      "t": 33629.595999999976,
      "d": 44.444400000000314,
      "v": 98
    },
    {
      "midi": 58,
      "hit": false,
      "t": 33777.74399999998,
      "d": 170.37019999999757,
      "v": 80
    },
    {
      "midi": 60,
      "hit": false,
      "t": 33777.74399999998,
      "d": 170.37019999999757,
      "v": 80
    },
    {
      "midi": 64,
      "hit": false,
      "t": 33777.74399999998,
      "d": 170.37019999999757,
      "v": 80
    },
    {
      "midi": 67,
      "hit": false,
      "t": 33777.74399999998,
      "d": 170.37019999999757,
      "v": 80
    },
    {
      "midi": 58,
      "hit": false,
      "t": 34222.18799999997,
      "d": 162.96280000000115,
      "v": 72
    },
    {
      "midi": 60,
      "hit": false,
      "t": 34222.18799999997,
      "d": 162.96280000000115,
      "v": 72
    },
    {
      "midi": 64,
      "hit": false,
      "t": 34222.18799999997,
      "d": 162.96280000000115,
      "v": 72
    },
    {
      "midi": 67,
      "hit": false,
      "t": 34222.18799999997,
      "d": 162.96280000000115,
      "v": 72
    },
    {
      "midi": 48,
      "hit": false,
      "t": 34962.92799999997,
      "d": 66.66659999999683,
      "v": 60
    },
    {
      "midi": 58,
      "hit": false,
      "t": 35111.075999999965,
      "d": 99.99990000000253,
      "v": 85
    },
    {
      "midi": 60,
      "hit": false,
      "t": 35111.075999999965,
      "d": 99.99990000000253,
      "v": 85
    },
    {
      "midi": 64,
      "hit": false,
      "t": 35111.075999999965,
      "d": 99.99990000000253,
      "v": 85
    },
    {
      "midi": 67,
      "hit": false,
      "t": 35111.075999999965,
      "d": 99.99990000000253,
      "v": 85
    },
    {
      "midi": 57,
      "hit": false,
      "t": 35555.51999999997,
      "d": 266.6664000000019,
      "v": 85
    },
    {
      "midi": 60,
      "hit": false,
      "t": 35555.51999999997,
      "d": 266.6664000000019,
      "v": 85
    },
    {
      "midi": 65,
      "hit": false,
      "t": 35555.51999999997,
      "d": 266.6664000000019,
      "v": 85
    },
    {
      "midi": 57,
      "hit": false,
      "t": 35851.81599999997,
      "d": 88.88880000000063,
      "v": 68
    },
    {
      "midi": 60,
      "hit": false,
      "t": 35851.81599999997,
      "d": 88.88880000000063,
      "v": 68
    },
    {
      "midi": 65,
      "hit": false,
      "t": 35851.81599999997,
      "d": 88.88880000000063,
      "v": 68
    },
    {
      "midi": 57,
      "hit": false,
      "t": 36296.25999999997,
      "d": 122.22209999999905,
      "v": 66
    },
    {
      "midi": 60,
      "hit": false,
      "t": 36296.25999999997,
      "d": 122.22209999999905,
      "v": 66
    },
    {
      "midi": 65,
      "hit": false,
      "t": 36296.25999999997,
      "d": 122.22209999999905,
      "v": 66
    },
    {
      "midi": 53,
      "hit": false,
      "t": 36740.70399999997,
      "d": 81.48139999999694,
      "v": 55
    },
    {
      "midi": 57,
      "hit": false,
      "t": 36888.85199999996,
      "d": 99.99990000000253,
      "v": 82
    },
    {
      "midi": 60,
      "hit": false,
      "t": 36888.85199999996,
      "d": 99.99990000000253,
      "v": 82
    },
    {
      "midi": 65,
      "hit": false,
      "t": 36888.85199999996,
      "d": 99.99990000000253,
      "v": 82
    },
    {
      "midi": 57,
      "hit": false,
      "t": 37333.295999999966,
      "d": 170.37019999999757,
      "v": 80
    },
    {
      "midi": 62,
      "hit": false,
      "t": 37333.295999999966,
      "d": 170.37019999999757,
      "v": 80
    },
    {
      "midi": 65,
      "hit": false,
      "t": 37333.295999999966,
      "d": 170.37019999999757,
      "v": 80
    },
    {
      "midi": 57,
      "hit": false,
      "t": 37777.73999999996,
      "d": 162.96280000000115,
      "v": 72
    },
    {
      "midi": 62,
      "hit": false,
      "t": 37777.73999999996,
      "d": 162.96280000000115,
      "v": 72
    },
    {
      "midi": 65,
      "hit": false,
      "t": 37777.73999999996,
      "d": 162.96280000000115,
      "v": 72
    },
    {
      "midi": 50,
      "hit": false,
      "t": 38518.47999999996,
      "d": 66.66659999999683,
      "v": 60
    },
    {
      "midi": 57,
      "hit": false,
      "t": 38666.62799999995,
      "d": 99.99990000000253,
      "v": 85
    },
    {
      "midi": 62,
      "hit": false,
      "t": 38666.62799999995,
      "d": 99.99990000000253,
      "v": 85
    },
    {
      "midi": 65,
      "hit": false,
      "t": 38666.62799999995,
      "d": 99.99990000000253,
      "v": 85
    },
    {
      "midi": 58,
      "hit": false,
      "t": 39111.07199999996,
      "d": 170.37019999999757,
      "v": 80
    },
    {
      "midi": 62,
      "hit": false,
      "t": 39111.07199999996,
      "d": 170.37019999999757,
      "v": 80
    },
    {
      "midi": 65,
      "hit": false,
      "t": 39111.07199999996,
      "d": 170.37019999999757,
      "v": 80
    },
    {
      "midi": 58,
      "hit": false,
      "t": 39555.51599999995,
      "d": 162.96280000000115,
      "v": 72
    },
    {
      "midi": 62,
      "hit": false,
      "t": 39555.51599999995,
      "d": 162.96280000000115,
      "v": 72
    },
    {
      "midi": 65,
      "hit": false,
      "t": 39555.51599999995,
      "d": 162.96280000000115,
      "v": 72
    },
    {
      "midi": 46,
      "hit": false,
      "t": 40296.25599999995,
      "d": 66.66659999999683,
      "v": 60
    },
    {
      "midi": 58,
      "hit": false,
      "t": 40444.403999999944,
      "d": 99.99990000000253,
      "v": 85
    },
    {
      "midi": 62,
      "hit": false,
      "t": 40444.403999999944,
      "d": 99.99990000000253,
      "v": 85
    },
    {
      "midi": 65,
      "hit": false,
      "t": 40444.403999999944,
      "d": 99.99990000000253,
      "v": 85
    },
    {
      "midi": 55,
      "hit": false,
      "t": 40888.84799999995,
      "d": 170.37019999999757,
      "v": 80
    },
    {
      "midi": 58,
      "hit": false,
      "t": 40888.84799999995,
      "d": 170.37019999999757,
      "v": 80
    },
    {
      "midi": 62,
      "hit": false,
      "t": 40888.84799999995,
      "d": 170.37019999999757,
      "v": 80
    },
    {
      "midi": 55,
      "hit": false,
      "t": 41333.29199999994,
      "d": 162.96280000000115,
      "v": 72
    },
    {
      "midi": 58,
      "hit": false,
      "t": 41333.29199999994,
      "d": 162.96280000000115,
      "v": 72
    },
    {
      "midi": 62,
      "hit": false,
      "t": 41333.29199999994,
      "d": 162.96280000000115,
      "v": 72
    },
    {
      "midi": 43,
      "hit": false,
      "t": 42074.03199999994,
      "d": 66.66659999999683,
      "v": 60
    },
    {
      "midi": 55,
      "hit": false,
      "t": 42222.179999999935,
      "d": 99.99990000000253,
      "v": 85
    },
    {
      "midi": 58,
      "hit": false,
      "t": 42222.179999999935,
      "d": 99.99990000000253,
      "v": 85
    },
    {
      "midi": 62,
      "hit": false,
      "t": 42222.179999999935,
      "d": 99.99990000000253,
      "v": 85
    },
    {
      "midi": 58,
      "hit": false,
      "t": 43111.067999999934,
      "d": 151.85169999999925,
      "v": 80
    },
    {
      "midi": 63,
      "hit": false,
      "t": 43111.067999999934,
      "d": 151.85169999999925,
      "v": 80
    },
    {
      "midi": 67,
      "hit": false,
      "t": 43111.067999999934,
      "d": 151.85169999999925,
      "v": 80
    },
    {
      "midi": 58,
      "hit": false,
      "t": 43999.95599999993,
      "d": 103.70360000000073,
      "v": 80
    },
    {
      "midi": 63,
      "hit": false,
      "t": 43999.95599999993,
      "d": 103.70360000000073,
      "v": 80
    },
    {
      "midi": 67,
      "hit": false,
      "t": 43999.95599999993,
      "d": 103.70360000000073,
      "v": 80
    },
    {
      "midi": 58,
      "hit": false,
      "t": 44888.84399999993,
      "d": 129.62950000000274,
      "v": 72
    },
    {
      "midi": 63,
      "hit": false,
      "t": 44888.84399999993,
      "d": 129.62950000000274,
      "v": 72
    },
    {
      "midi": 67,
      "hit": false,
      "t": 44888.84399999993,
      "d": 129.62950000000274,
      "v": 72
    },
    {
      "midi": 51,
      "hit": false,
      "t": 45629.58399999994,
      "d": 51.85179999999673,
      "v": 60
    },
    {
      "midi": 58,
      "hit": false,
      "t": 45777.73199999993,
      "d": 74.07400000000052,
      "v": 102
    },
    {
      "midi": 63,
      "hit": false,
      "t": 45777.73199999993,
      "d": 74.07400000000052,
      "v": 102
    },
    {
      "midi": 67,
      "hit": false,
      "t": 45777.73199999993,
      "d": 74.07400000000052,
      "v": 102
    },
    {
      "midi": 55,
      "hit": false,
      "t": 46222.175999999934,
      "d": 170.37019999999757,
      "v": 80
    },
    {
      "midi": 58,
      "hit": false,
      "t": 46222.175999999934,
      "d": 170.37019999999757,
      "v": 80
    },
    {
      "midi": 62,
      "hit": false,
      "t": 46222.175999999934,
      "d": 170.37019999999757,
      "v": 80
    },
    {
      "midi": 55,
      "hit": false,
      "t": 46666.61999999993,
      "d": 162.96280000000115,
      "v": 72
    },
    {
      "midi": 58,
      "hit": false,
      "t": 46666.61999999993,
      "d": 162.96280000000115,
      "v": 72
    },
    {
      "midi": 62,
      "hit": false,
      "t": 46666.61999999993,
      "d": 162.96280000000115,
      "v": 72
    },
    {
      "midi": 43,
      "hit": false,
      "t": 47407.35999999993,
      "d": 66.66659999999683,
      "v": 60
    },
    {
      "midi": 55,
      "hit": false,
      "t": 47555.50799999992,
      "d": 99.99990000000253,
      "v": 85
    },
    {
      "midi": 58,
      "hit": false,
      "t": 47555.50799999992,
      "d": 99.99990000000253,
      "v": 85
    },
    {
      "midi": 62,
      "hit": false,
      "t": 47555.50799999992,
      "d": 99.99990000000253,
      "v": 85
    },
    {
      "midi": 58,
      "hit": false,
      "t": 47999.951999999925,
      "d": 266.6664000000019,
      "v": 85
    },
    {
      "midi": 60,
      "hit": false,
      "t": 47999.951999999925,
      "d": 266.6664000000019,
      "v": 85
    },
    {
      "midi": 64,
      "hit": false,
      "t": 47999.951999999925,
      "d": 266.6664000000019,
      "v": 85
    },
    {
      "midi": 67,
      "hit": false,
      "t": 47999.951999999925,
      "d": 266.6664000000019,
      "v": 85
    },
    {
      "midi": 58,
      "hit": false,
      "t": 48296.24799999993,
      "d": 88.88880000000063,
      "v": 68
    },
    {
      "midi": 60,
      "hit": false,
      "t": 48296.24799999993,
      "d": 88.88880000000063,
      "v": 68
    },
    {
      "midi": 64,
      "hit": false,
      "t": 48296.24799999993,
      "d": 88.88880000000063,
      "v": 68
    },
    {
      "midi": 67,
      "hit": false,
      "t": 48296.24799999993,
      "d": 88.88880000000063,
      "v": 68
    },
    {
      "midi": 58,
      "hit": false,
      "t": 48740.69199999993,
      "d": 122.22209999999905,
      "v": 66
    },
    {
      "midi": 60,
      "hit": false,
      "t": 48740.69199999993,
      "d": 122.22209999999905,
      "v": 66
    },
    {
      "midi": 64,
      "hit": false,
      "t": 48740.69199999993,
      "d": 122.22209999999905,
      "v": 66
    },
    {
      "midi": 67,
      "hit": false,
      "t": 48740.69199999993,
      "d": 122.22209999999905,
      "v": 66
    },
    {
      "midi": 48,
      "hit": false,
      "t": 49185.135999999926,
      "d": 81.48139999999694,
      "v": 55
    },
    {
      "midi": 58,
      "hit": false,
      "t": 49333.28399999992,
      "d": 99.99990000000253,
      "v": 82
    },
    {
      "midi": 60,
      "hit": false,
      "t": 49333.28399999992,
      "d": 99.99990000000253,
      "v": 82
    },
    {
      "midi": 64,
      "hit": false,
      "t": 49333.28399999992,
      "d": 99.99990000000253,
      "v": 82
    },
    {
      "midi": 67,
      "hit": false,
      "t": 49333.28399999992,
      "d": 99.99990000000253,
      "v": 82
    },
    {
      "midi": 57,
      "hit": false,
      "t": 50222.17199999992,
      "d": 296.2960000000021,
      "v": 82
    },
    {
      "midi": 60,
      "hit": false,
      "t": 50222.17199999992,
      "d": 296.2960000000021,
      "v": 82
    },
    {
      "midi": 65,
      "hit": false,
      "t": 50222.17199999992,
      "d": 296.2960000000021,
      "v": 82
    },
    {
      "midi": 65,
      "hit": false,
      "t": 50962.911999999924,
      "d": 155.55539999999746,
      "v": 68
    },
    {
      "midi": 68,
      "hit": false,
      "t": 51118.46739999992,
      "d": 48.14809999999852,
      "v": 52
    },
    {
      "midi": 69,
      "hit": false,
      "t": 51118.46739999992,
      "d": 107.40729999999894,
      "v": 82
    },
    {
      "midi": 72,
      "hit": false,
      "t": 51259.20799999992,
      "d": 88.88880000000063,
      "v": 78
    },
    {
      "midi": 77,
      "hit": false,
      "t": 51407.35599999992,
      "d": 44.444400000000314,
      "v": 98
    },
    {
      "midi": 57,
      "hit": false,
      "t": 51999.94799999992,
      "d": 240.74049999999988,
      "v": 78
    },
    {
      "midi": 62,
      "hit": false,
      "t": 51999.94799999992,
      "d": 240.74049999999988,
      "v": 78
    },
    {
      "midi": 65,
      "hit": false,
      "t": 51999.94799999992,
      "d": 240.74049999999988,
      "v": 78
    },
    {
      "midi": 50,
      "hit": false,
      "t": 52740.687999999915,
      "d": 77.77769999999873,
      "v": 57
    },
    {
      "midi": 57,
      "hit": false,
      "t": 52888.835999999916,
      "d": 81.48139999999694,
      "v": 89
    },
    {
      "midi": 62,
      "hit": false,
      "t": 52888.835999999916,
      "d": 81.48139999999694,
      "v": 89
    },
    {
      "midi": 65,
      "hit": false,
      "t": 52888.835999999916,
      "d": 81.48139999999694,
      "v": 89
    },
    {
      "midi": 58,
      "hit": false,
      "t": 53333.27999999991,
      "d": 211.11089999999967,
      "v": 59
    },
    {
      "midi": 62,
      "hit": false,
      "t": 53629.57599999991,
      "d": 151.85169999999925,
      "v": 53
    },
    {
      "midi": 65,
      "hit": false,
      "t": 53777.723999999915,
      "d": 274.0737999999983,
      "v": 87
    },
    {
      "midi": 70,
      "hit": false,
      "t": 54074.01999999991,
      "d": 166.66649999999936,
      "v": 82
    },
    {
      "midi": 46,
      "hit": false,
      "t": 54518.463999999905,
      "d": 99.99990000000253,
      "v": 66
    },
    {
      "midi": 58,
      "hit": false,
      "t": 54666.61199999991,
      "d": 144.44430000000284,
      "v": 87
    },
    {
      "midi": 62,
      "hit": false,
      "t": 54666.61199999991,
      "d": 144.44430000000284,
      "v": 87
    },
    {
      "midi": 65,
      "hit": false,
      "t": 54666.61199999991,
      "d": 144.44430000000284,
      "v": 87
    },
    {
      "midi": 58,
      "hit": false,
      "t": 55555.49999999991,
      "d": 240.74049999999988,
      "v": 78
    },
    {
      "midi": 60,
      "hit": false,
      "t": 55555.49999999991,
      "d": 240.74049999999988,
      "v": 78
    },
    {
      "midi": 64,
      "hit": false,
      "t": 55555.49999999991,
      "d": 240.74049999999988,
      "v": 78
    },
    {
      "midi": 67,
      "hit": false,
      "t": 55555.49999999991,
      "d": 240.74049999999988,
      "v": 78
    },
    {
      "midi": 48,
      "hit": false,
      "t": 56296.23999999991,
      "d": 77.77769999999873,
      "v": 57
    },
    {
      "midi": 58,
      "hit": false,
      "t": 56444.38799999991,
      "d": 81.48139999999694,
      "v": 89
    },
    {
      "midi": 60,
      "hit": false,
      "t": 56444.38799999991,
      "d": 81.48139999999694,
      "v": 89
    },
    {
      "midi": 64,
      "hit": false,
      "t": 56444.38799999991,
      "d": 81.48139999999694,
      "v": 89
    },
    {
      "midi": 67,
      "hit": false,
      "t": 56444.38799999991,
      "d": 81.48139999999694,
      "v": 89
    },
    {
      "midi": 57,
      "hit": false,
      "t": 57333.27599999991,
      "d": 174.07390000000305,
      "v": 78
    },
    {
      "midi": 60,
      "hit": false,
      "t": 57333.27599999991,
      "d": 174.07390000000305,
      "v": 78
    },
    {
      "midi": 65,
      "hit": false,
      "t": 57333.27599999991,
      "d": 174.07390000000305,
      "v": 78
    },
    {
      "midi": 57,
      "hit": false,
      "t": 58222.16399999992,
      "d": 218.51830000000336,
      "v": 85
    },
    {
      "midi": 60,
      "hit": false,
      "t": 58222.16399999992,
      "d": 218.51830000000336,
      "v": 85
    },
    {
      "midi": 65,
      "hit": false,
      "t": 58222.16399999992,
      "d": 218.51830000000336,
      "v": 85
    },
    {
      "midi": 57,
      "hit": false,
      "t": 58666.60799999992,
      "d": 181.48129999999946,
      "v": 89
    },
    {
      "midi": 60,
      "hit": false,
      "t": 58666.60799999992,
      "d": 181.48129999999946,
      "v": 89
    },
    {
      "midi": 65,
      "hit": false,
      "t": 58666.60799999992,
      "d": 181.48129999999946,
      "v": 89
    },
    {
      "midi": 57,
      "hit": false,
      "t": 59111.051999999916,
      "d": 170.37019999999757,
      "v": 78
    },
    {
      "midi": 60,
      "hit": false,
      "t": 59111.051999999916,
      "d": 170.37019999999757,
      "v": 78
    },
    {
      "midi": 65,
      "hit": false,
      "t": 59111.051999999916,
      "d": 170.37019999999757,
      "v": 78
    },
    {
      "midi": 53,
      "hit": false,
      "t": 59851.791999999914,
      "d": 92.59249999999884,
      "v": 55
    },
    {
      "midi": 57,
      "hit": false,
      "t": 59999.939999999915,
      "d": 122.22209999999905,
      "v": 82
    },
    {
      "midi": 60,
      "hit": false,
      "t": 59999.939999999915,
      "d": 122.22209999999905,
      "v": 82
    },
    {
      "midi": 65,
      "hit": false,
      "t": 59999.939999999915,
      "d": 122.22209999999905,
      "v": 82
    },
    {
      "midi": 50,
      "hit": false,
      "t": 60444.38399999991,
      "d": 177.77760000000126,
      "v": 72
    },
    {
      "midi": 57,
      "hit": false,
      "t": 60444.38399999991,
      "d": 222.22200000000157,
      "v": 87
    },
    {
      "midi": 62,
      "hit": false,
      "t": 60444.38399999991,
      "d": 222.22200000000157,
      "v": 87
    },
    {
      "midi": 65,
      "hit": false,
      "t": 60444.38399999991,
      "d": 222.22200000000157,
      "v": 87
    },
    {
      "midi": 50,
      "hit": false,
      "t": 60888.827999999914,
      "d": 696.2955999999976,
      "v": 66
    },
    {
      "midi": 57,
      "hit": false,
      "t": 60888.827999999914,
      "d": 766.6659,
      "v": 74
    },
    {
      "midi": 62,
      "hit": false,
      "t": 60888.827999999914,
      "d": 766.6659,
      "v": 74
    },
    {
      "midi": 65,
      "hit": false,
      "t": 60888.827999999914,
      "d": 766.6659,
      "v": 74
    },
    {
      "midi": 45,
      "hit": false,
      "t": 61629.56799999991,
      "d": 122.22209999999905,
      "v": 68
    },
    {
      "midi": 50,
      "hit": false,
      "t": 61777.71599999991,
      "d": 155.55539999999746,
      "v": 66
    },
    {
      "midi": 57,
      "hit": false,
      "t": 61777.71599999991,
      "d": 188.88869999999588,
      "v": 87
    },
    {
      "midi": 62,
      "hit": false,
      "t": 61777.71599999991,
      "d": 188.88869999999588,
      "v": 87
    },
    {
      "midi": 65,
      "hit": false,
      "t": 61777.71599999991,
      "d": 188.88869999999588,
      "v": 87
    },
    {
      "midi": 61,
      "hit": false,
      "t": 62222.15999999991,
      "d": 1177.7765999999974,
      "v": 76
    },
    {
      "midi": 64,
      "hit": false,
      "t": 62222.15999999991,
      "d": 1177.7765999999974,
      "v": 76
    },
    {
      "midi": 67,
      "hit": false,
      "t": 62222.15999999991,
      "d": 1177.7765999999974,
      "v": 76
    },
    {
      "midi": 69,
      "hit": false,
      "t": 62222.15999999991,
      "d": 1177.7765999999974,
      "v": 76
    },
    {
      "midi": 45,
      "hit": false,
      "t": 63407.3439999999,
      "d": 170.37019999999757,
      "v": 57
    },
    {
      "midi": 61,
      "hit": false,
      "t": 63577.7141999999,
      "d": 133.33320000000094,
      "v": 85
    },
    {
      "midi": 64,
      "hit": false,
      "t": 63577.7141999999,
      "d": 133.33320000000094,
      "v": 85
    },
    {
      "midi": 67,
      "hit": false,
      "t": 63577.7141999999,
      "d": 133.33320000000094,
      "v": 85
    },
    {
      "midi": 69,
      "hit": false,
      "t": 63577.7141999999,
      "d": 133.33320000000094,
      "v": 85
    },
    {
      "midi": 53,
      "hit": false,
      "t": 63999.9359999999,
      "d": 155.55539999999746,
      "v": 58
    },
    {
      "midi": 57,
      "hit": false,
      "t": 63999.9359999999,
      "d": 237.0367999999944,
      "v": 80
    },
    {
      "midi": 60,
      "hit": false,
      "t": 63999.9359999999,
      "d": 237.0367999999944,
      "v": 80
    },
    {
      "midi": 65,
      "hit": false,
      "t": 63999.9359999999,
      "d": 237.0367999999944,
      "v": 80
    },
    {
      "midi": 53,
      "hit": false,
      "t": 64444.379999999896,
      "d": 144.44430000000284,
      "v": 57
    },
    {
      "midi": 57,
      "hit": false,
      "t": 64444.379999999896,
      "d": 211.11089999999967,
      "v": 85
    },
    {
      "midi": 60,
      "hit": false,
      "t": 64444.379999999896,
      "d": 211.11089999999967,
      "v": 85
    },
    {
      "midi": 65,
      "hit": false,
      "t": 64444.379999999896,
      "d": 211.11089999999967,
      "v": 85
    },
    {
      "midi": 53,
      "hit": false,
      "t": 64888.8239999999,
      "d": 140.74059999999736,
      "v": 66
    },
    {
      "midi": 57,
      "hit": false,
      "t": 64888.8239999999,
      "d": 188.88869999999588,
      "v": 87
    },
    {
      "midi": 60,
      "hit": false,
      "t": 64888.8239999999,
      "d": 188.88869999999588,
      "v": 87
    },
    {
      "midi": 65,
      "hit": false,
      "t": 64888.8239999999,
      "d": 188.88869999999588,
      "v": 87
    },
    {
      "midi": 53,
      "hit": false,
      "t": 65333.267999999895,
      "d": 133.33320000000094,
      "v": 70
    },
    {
      "midi": 57,
      "hit": false,
      "t": 65333.267999999895,
      "d": 188.88870000000315,
      "v": 85
    },
    {
      "midi": 60,
      "hit": false,
      "t": 65333.267999999895,
      "d": 188.88870000000315,
      "v": 85
    },
    {
      "midi": 65,
      "hit": false,
      "t": 65333.267999999895,
      "d": 188.88870000000315,
      "v": 85
    },
    {
      "midi": 48,
      "hit": false,
      "t": 65629.5639999999,
      "d": 103.70359999999346,
      "v": 55
    },
    {
      "midi": 53,
      "hit": false,
      "t": 65777.71199999988,
      "d": 133.33319999999367,
      "v": 66
    },
    {
      "midi": 57,
      "hit": false,
      "t": 65777.71199999988,
      "d": 196.2960999999923,
      "v": 85
    },
    {
      "midi": 60,
      "hit": false,
      "t": 65777.71199999988,
      "d": 196.2960999999923,
      "v": 85
    },
    {
      "midi": 65,
      "hit": false,
      "t": 65777.71199999988,
      "d": 196.2960999999923,
      "v": 85
    },
    {
      "midi": 53,
      "hit": false,
      "t": 66222.15599999987,
      "d": 133.33319999999367,
      "v": 66
    },
    {
      "midi": 57,
      "hit": false,
      "t": 66222.15599999987,
      "d": 192.5923999999941,
      "v": 78
    },
    {
      "midi": 60,
      "hit": false,
      "t": 66222.15599999987,
      "d": 192.5923999999941,
      "v": 78
    },
    {
      "midi": 65,
      "hit": false,
      "t": 66222.15599999987,
      "d": 192.5923999999941,
      "v": 78
    },
    {
      "midi": 53,
      "hit": false,
      "t": 66666.59999999986,
      "d": 155.55539999999746,
      "v": 64
    },
    {
      "midi": 57,
      "hit": false,
      "t": 66666.59999999986,
      "d": 192.5923999999941,
      "v": 68
    },
    {
      "midi": 60,
      "hit": false,
      "t": 66666.59999999986,
      "d": 192.5923999999941,
      "v": 68
    },
    {
      "midi": 65,
      "hit": false,
      "t": 66666.59999999986,
      "d": 192.5923999999941,
      "v": 68
    },
    {
      "midi": 48,
      "hit": false,
      "t": 66962.89599999985,
      "d": 85.18510000000242,
      "v": 38
    },
    {
      "midi": 57,
      "hit": false,
      "t": 67111.04399999985,
      "d": 103.70359999999346,
      "v": 76
    },
    {
      "midi": 60,
      "hit": false,
      "t": 67111.04399999985,
      "d": 103.70359999999346,
      "v": 76
    },
    {
      "midi": 65,
      "hit": false,
      "t": 67111.04399999985,
      "d": 103.70359999999346,
      "v": 76
    },
    {
      "midi": 53,
      "hit": false,
      "t": 67111.04399999985,
      "d": 125.92579999999725,
      "v": 66
    },
    {
      "midi": 57,
      "hit": false,
      "t": 67555.48799999985,
      "d": 837.0362000000023,
      "v": 89
    },
    {
      "midi": 62,
      "hit": false,
      "t": 67555.48799999985,
      "d": 837.0362000000023,
      "v": 89
    },
    {
      "midi": 65,
      "hit": false,
      "t": 67555.48799999985,
      "d": 837.0362000000023,
      "v": 89
    },
    {
      "midi": 62,
      "hit": false,
      "t": 68444.37599999986,
      "d": 240.74049999999988,
      "v": 78
    },
    {
      "midi": 62,
      "hit": false,
      "t": 68740.67199999986,
      "d": 170.37020000000484,
      "v": 53
    },
    {
      "midi": 65,
      "hit": false,
      "t": 68888.81999999986,
      "d": 262.9627000000037,
      "v": 52
    },
    {
      "midi": 69,
      "hit": false,
      "t": 69185.11599999986,
      "d": 77.777700000006,
      "v": 89
    },
    {
      "midi": 61,
      "hit": false,
      "t": 69333.26399999986,
      "d": 1177.7765999999974,
      "v": 76
    },
    {
      "midi": 64,
      "hit": false,
      "t": 69333.26399999986,
      "d": 1177.7765999999974,
      "v": 76
    },
    {
      "midi": 67,
      "hit": false,
      "t": 69333.26399999986,
      "d": 1177.7765999999974,
      "v": 76
    },
    {
      "midi": 69,
      "hit": false,
      "t": 69333.26399999986,
      "d": 1177.7765999999974,
      "v": 76
    },
    {
      "midi": 45,
      "hit": false,
      "t": 70518.44799999986,
      "d": 170.37020000000484,
      "v": 57
    },
    {
      "midi": 61,
      "hit": false,
      "t": 70688.81819999986,
      "d": 133.33319999999367,
      "v": 85
    },
    {
      "midi": 64,
      "hit": false,
      "t": 70688.81819999986,
      "d": 133.33319999999367,
      "v": 85
    },
    {
      "midi": 67,
      "hit": false,
      "t": 70688.81819999986,
      "d": 133.33319999999367,
      "v": 85
    },
    {
      "midi": 69,
      "hit": false,
      "t": 70688.81819999986,
      "d": 133.33319999999367,
      "v": 85
    },
    {
      "midi": 57,
      "hit": false,
      "t": 71111.03999999986,
      "d": 837.0362000000023,
      "v": 89
    },
    {
      "midi": 60,
      "hit": false,
      "t": 71111.03999999986,
      "d": 837.0362000000023,
      "v": 89
    },
    {
      "midi": 65,
      "hit": false,
      "t": 71111.03999999986,
      "d": 837.0362000000023,
      "v": 89
    },
    {
      "midi": 65,
      "hit": false,
      "t": 71999.92799999987,
      "d": 240.74049999999988,
      "v": 78
    },
    {
      "midi": 65,
      "hit": false,
      "t": 72296.22399999987,
      "d": 170.37020000000484,
      "v": 53
    },
    {
      "midi": 69,
      "hit": false,
      "t": 72444.37199999987,
      "d": 262.9627000000037,
      "v": 52
    },
    {
      "midi": 72,
      "hit": false,
      "t": 72740.66799999987,
      "d": 77.777700000006,
      "v": 89
    },
    {
      "midi": 57,
      "hit": false,
      "t": 72888.81599999988,
      "d": 237.03680000000168,
      "v": 62
    },
    {
      "midi": 60,
      "hit": false,
      "t": 72888.81599999988,
      "d": 237.03680000000168,
      "v": 62
    },
    {
      "midi": 65,
      "hit": false,
      "t": 72888.81599999988,
      "d": 237.03680000000168,
      "v": 62
    },
    {
      "midi": 57,
      "hit": false,
      "t": 73333.25999999988,
      "d": 148.14800000000105,
      "v": 87
    },
    {
      "midi": 60,
      "hit": false,
      "t": 73333.25999999988,
      "d": 148.14800000000105,
      "v": 87
    },
    {
      "midi": 65,
      "hit": false,
      "t": 73333.25999999988,
      "d": 148.14800000000105,
      "v": 87
    },
    {
      "midi": 60,
      "hit": false,
      "t": 73777.70399999988,
      "d": 444.44400000000314,
      "v": 85
    },
    {
      "midi": 62,
      "hit": false,
      "t": 73777.70399999988,
      "d": 444.44400000000314,
      "v": 85
    },
    {
      "midi": 66,
      "hit": false,
      "t": 73777.70399999988,
      "d": 444.44400000000314,
      "v": 85
    },
    {
      "midi": 69,
      "hit": false,
      "t": 73777.70399999988,
      "d": 444.44400000000314,
      "v": 85
    },
    {
      "midi": 60,
      "hit": false,
      "t": 74222.14799999988,
      "d": 144.44430000000284,
      "v": 63
    },
    {
      "midi": 66,
      "hit": false,
      "t": 74370.29599999989,
      "d": 125.92579999999725,
      "v": 74
    },
    {
      "midi": 69,
      "hit": false,
      "t": 74518.44399999989,
      "d": 85.18510000000242,
      "v": 95
    },
    {
      "midi": 55,
      "hit": false,
      "t": 74666.59199999989,
      "d": 211.11089999999967,
      "v": 59
    },
    {
      "midi": 58,
      "hit": false,
      "t": 74962.88799999989,
      "d": 151.85169999999925,
      "v": 53
    },
    {
      "midi": 62,
      "hit": false,
      "t": 75111.03599999989,
      "d": 274.0737999999983,
      "v": 87
    },
    {
      "midi": 67,
      "hit": false,
      "t": 75407.3319999999,
      "d": 166.66650000000664,
      "v": 82
    },
    {
      "midi": 43,
      "hit": false,
      "t": 75851.7759999999,
      "d": 99.99989999999525,
      "v": 66
    },
    {
      "midi": 58,
      "hit": false,
      "t": 75999.9239999999,
      "d": 144.44430000000284,
      "v": 87
    },
    {
      "midi": 62,
      "hit": false,
      "t": 75999.9239999999,
      "d": 144.44430000000284,
      "v": 87
    },
    {
      "midi": 67,
      "hit": false,
      "t": 75999.9239999999,
      "d": 144.44430000000284,
      "v": 87
    },
    {
      "midi": 58,
      "hit": false,
      "t": 76888.8119999999,
      "d": 296.2960000000021,
      "v": 82
    },
    {
      "midi": 60,
      "hit": false,
      "t": 76888.8119999999,
      "d": 296.2960000000021,
      "v": 82
    },
    {
      "midi": 64,
      "hit": false,
      "t": 76888.8119999999,
      "d": 296.2960000000021,
      "v": 82
    },
    {
      "midi": 67,
      "hit": false,
      "t": 76888.8119999999,
      "d": 296.2960000000021,
      "v": 82
    },
    {
      "midi": 58,
      "hit": false,
      "t": 77629.55199999991,
      "d": 155.55539999999746,
      "v": 68
    },
    {
      "midi": 63,
      "hit": false,
      "t": 77785.1073999999,
      "d": 48.1481000000058,
      "v": 52
    },
    {
      "midi": 64,
      "hit": false,
      "t": 77785.1073999999,
      "d": 107.40730000000622,
      "v": 82
    },
    {
      "midi": 67,
      "hit": false,
      "t": 77925.84799999991,
      "d": 88.88880000000063,
      "v": 78
    },
    {
      "midi": 72,
      "hit": false,
      "t": 78073.99599999991,
      "d": 44.44439999999304,
      "v": 98
    },
    {
      "midi": 57,
      "hit": false,
      "t": 78222.1439999999,
      "d": 266.6664000000019,
      "v": 85
    },
    {
      "midi": 60,
      "hit": false,
      "t": 78222.1439999999,
      "d": 266.6664000000019,
      "v": 85
    },
    {
      "midi": 65,
      "hit": false,
      "t": 78222.1439999999,
      "d": 266.6664000000019,
      "v": 85
    },
    {
      "midi": 57,
      "hit": false,
      "t": 78518.4399999999,
      "d": 88.88880000000063,
      "v": 68
    },
    {
      "midi": 60,
      "hit": false,
      "t": 78518.4399999999,
      "d": 88.88880000000063,
      "v": 68
    },
    {
      "midi": 65,
      "hit": false,
      "t": 78518.4399999999,
      "d": 88.88880000000063,
      "v": 68
    },
    {
      "midi": 57,
      "hit": false,
      "t": 78962.8839999999,
      "d": 122.22209999999905,
      "v": 66
    },
    {
      "midi": 60,
      "hit": false,
      "t": 78962.8839999999,
      "d": 122.22209999999905,
      "v": 66
    },
    {
      "midi": 65,
      "hit": false,
      "t": 78962.8839999999,
      "d": 122.22209999999905,
      "v": 66
    },
    {
      "midi": 53,
      "hit": false,
      "t": 79407.3279999999,
      "d": 81.48140000000421,
      "v": 55
    },
    {
      "midi": 57,
      "hit": false,
      "t": 79555.47599999991,
      "d": 99.99989999999525,
      "v": 82
    },
    {
      "midi": 60,
      "hit": false,
      "t": 79555.47599999991,
      "d": 99.99989999999525,
      "v": 82
    },
    {
      "midi": 65,
      "hit": false,
      "t": 79555.47599999991,
      "d": 99.99989999999525,
      "v": 82
    },
    {
      "midi": 57,
      "hit": false,
      "t": 79999.9199999999,
      "d": 170.37020000000484,
      "v": 80
    },
    {
      "midi": 62,
      "hit": false,
      "t": 79999.9199999999,
      "d": 170.37020000000484,
      "v": 80
    },
    {
      "midi": 65,
      "hit": false,
      "t": 79999.9199999999,
      "d": 170.37020000000484,
      "v": 80
    },
    {
      "midi": 57,
      "hit": false,
      "t": 80444.3639999999,
      "d": 162.96279999999388,
      "v": 72
    },
    {
      "midi": 62,
      "hit": false,
      "t": 80444.3639999999,
      "d": 162.96279999999388,
      "v": 72
    },
    {
      "midi": 65,
      "hit": false,
      "t": 80444.3639999999,
      "d": 162.96279999999388,
      "v": 72
    },
    {
      "midi": 50,
      "hit": false,
      "t": 81185.10399999989,
      "d": 66.66659999999683,
      "v": 60
    },
    {
      "midi": 57,
      "hit": false,
      "t": 81333.25199999989,
      "d": 99.99989999999525,
      "v": 85
    },
    {
      "midi": 62,
      "hit": false,
      "t": 81333.25199999989,
      "d": 99.99989999999525,
      "v": 85
    },
    {
      "midi": 65,
      "hit": false,
      "t": 81333.25199999989,
      "d": 99.99989999999525,
      "v": 85
    },
    {
      "midi": 58,
      "hit": false,
      "t": 82222.13999999988,
      "d": 240.74049999999988,
      "v": 78
    },
    {
      "midi": 62,
      "hit": false,
      "t": 82222.13999999988,
      "d": 240.74049999999988,
      "v": 78
    },
    {
      "midi": 65,
      "hit": false,
      "t": 82222.13999999988,
      "d": 240.74049999999988,
      "v": 78
    },
    {
      "midi": 46,
      "hit": false,
      "t": 82962.87999999989,
      "d": 77.777700000006,
      "v": 57
    },
    {
      "midi": 58,
      "hit": false,
      "t": 83111.02799999989,
      "d": 81.48140000000421,
      "v": 89
    },
    {
      "midi": 62,
      "hit": false,
      "t": 83111.02799999989,
      "d": 81.48140000000421,
      "v": 89
    },
    {
      "midi": 65,
      "hit": false,
      "t": 83111.02799999989,
      "d": 81.48140000000421,
      "v": 89
    },
    {
      "midi": 55,
      "hit": false,
      "t": 83555.47199999989,
      "d": 211.11089999999967,
      "v": 59
    },
    {
      "midi": 58,
      "hit": false,
      "t": 83851.7679999999,
      "d": 151.85169999999925,
      "v": 53
    },
    {
      "midi": 62,
      "hit": false,
      "t": 83999.9159999999,
      "d": 274.0737999999983,
      "v": 87
    },
    {
      "midi": 67,
      "hit": false,
      "t": 84296.2119999999,
      "d": 166.66650000000664,
      "v": 82
    },
    {
      "midi": 43,
      "hit": false,
      "t": 84740.6559999999,
      "d": 99.99989999999525,
      "v": 66
    },
    {
      "midi": 55,
      "hit": false,
      "t": 84888.8039999999,
      "d": 144.44430000000284,
      "v": 87
    },
    {
      "midi": 58,
      "hit": false,
      "t": 84888.8039999999,
      "d": 144.44430000000284,
      "v": 87
    },
    {
      "midi": 62,
      "hit": false,
      "t": 84888.8039999999,
      "d": 144.44430000000284,
      "v": 87
    },
    {
      "midi": 55,
      "hit": false,
      "t": 85777.69199999991,
      "d": 140.74060000000463,
      "v": 82
    },
    {
      "midi": 58,
      "hit": false,
      "t": 85777.69199999991,
      "d": 140.74060000000463,
      "v": 82
    },
    {
      "midi": 63,
      "hit": false,
      "t": 85777.69199999991,
      "d": 140.74060000000463,
      "v": 82
    },
    {
      "midi": 63,
      "hit": false,
      "t": 86666.57999999991,
      "d": 133.33319999999367,
      "v": 70
    },
    {
      "midi": 67,
      "hit": false,
      "t": 86814.7279999999,
      "d": 96.29619999999704,
      "v": 58
    },
    {
      "midi": 70,
      "hit": false,
      "t": 86962.8759999999,
      "d": 111.11100000000442,
      "v": 82
    },
    {
      "midi": 55,
      "hit": false,
      "t": 87555.4679999999,
      "d": 162.96279999999388,
      "v": 76
    },
    {
      "midi": 58,
      "hit": false,
      "t": 87555.4679999999,
      "d": 162.96279999999388,
      "v": 76
    },
    {
      "midi": 63,
      "hit": false,
      "t": 87555.4679999999,
      "d": 162.96279999999388,
      "v": 76
    },
    {
      "midi": 55,
      "hit": false,
      "t": 87999.9119999999,
      "d": 170.37020000000484,
      "v": 78
    },
    {
      "midi": 58,
      "hit": false,
      "t": 87999.9119999999,
      "d": 170.37020000000484,
      "v": 78
    },
    {
      "midi": 63,
      "hit": false,
      "t": 87999.9119999999,
      "d": 170.37020000000484,
      "v": 78
    },
    {
      "midi": 55,
      "hit": false,
      "t": 88444.3559999999,
      "d": 151.85169999999925,
      "v": 82
    },
    {
      "midi": 58,
      "hit": false,
      "t": 88444.3559999999,
      "d": 151.85169999999925,
      "v": 82
    },
    {
      "midi": 63,
      "hit": false,
      "t": 88444.3559999999,
      "d": 151.85169999999925,
      "v": 82
    },
    {
      "midi": 55,
      "hit": false,
      "t": 88888.7999999999,
      "d": 211.11089999999967,
      "v": 59
    },
    {
      "midi": 58,
      "hit": false,
      "t": 89185.0959999999,
      "d": 151.85169999999925,
      "v": 53
    },
    {
      "midi": 62,
      "hit": false,
      "t": 89333.2439999999,
      "d": 274.0737999999983,
      "v": 87
    },
    {
      "midi": 67,
      "hit": false,
      "t": 89629.5399999999,
      "d": 166.66650000000664,
      "v": 82
    },
    {
      "midi": 43,
      "hit": false,
      "t": 90073.98399999991,
      "d": 99.99989999999525,
      "v": 66
    },
    {
      "midi": 55,
      "hit": false,
      "t": 90222.13199999991,
      "d": 144.44430000000284,
      "v": 87
    },
    {
      "midi": 58,
      "hit": false,
      "t": 90222.13199999991,
      "d": 144.44430000000284,
      "v": 87
    },
    {
      "midi": 62,
      "hit": false,
      "t": 90222.13199999991,
      "d": 144.44430000000284,
      "v": 87
    },
    {
      "midi": 58,
      "hit": false,
      "t": 90666.57599999991,
      "d": 266.6664000000019,
      "v": 85
    },
    {
      "midi": 60,
      "hit": false,
      "t": 90666.57599999991,
      "d": 266.6664000000019,
      "v": 85
    },
    {
      "midi": 64,
      "hit": false,
      "t": 90666.57599999991,
      "d": 266.6664000000019,
      "v": 85
    },
    {
      "midi": 67,
      "hit": false,
      "t": 90666.57599999991,
      "d": 266.6664000000019,
      "v": 85
    },
    {
      "midi": 58,
      "hit": false,
      "t": 90962.87199999992,
      "d": 88.88880000000063,
      "v": 68
    },
    {
      "midi": 60,
      "hit": false,
      "t": 90962.87199999992,
      "d": 88.88880000000063,
      "v": 68
    },
    {
      "midi": 64,
      "hit": false,
      "t": 90962.87199999992,
      "d": 88.88880000000063,
      "v": 68
    },
    {
      "midi": 67,
      "hit": false,
      "t": 90962.87199999992,
      "d": 88.88880000000063,
      "v": 68
    },
    {
      "midi": 58,
      "hit": false,
      "t": 91407.31599999992,
      "d": 122.22209999999905,
      "v": 66
    },
    {
      "midi": 60,
      "hit": false,
      "t": 91407.31599999992,
      "d": 122.22209999999905,
      "v": 66
    },
    {
      "midi": 64,
      "hit": false,
      "t": 91407.31599999992,
      "d": 122.22209999999905,
      "v": 66
    },
    {
      "midi": 67,
      "hit": false,
      "t": 91407.31599999992,
      "d": 122.22209999999905,
      "v": 66
    },
    {
      "midi": 48,
      "hit": false,
      "t": 91851.75999999992,
      "d": 81.48140000000421,
      "v": 55
    },
    {
      "midi": 58,
      "hit": false,
      "t": 91999.90799999992,
      "d": 99.99989999999525,
      "v": 82
    },
    {
      "midi": 60,
      "hit": false,
      "t": 91999.90799999992,
      "d": 99.99989999999525,
      "v": 82
    },
    {
      "midi": 64,
      "hit": false,
      "t": 91999.90799999992,
      "d": 99.99989999999525,
      "v": 82
    },
    {
      "midi": 67,
      "hit": false,
      "t": 91999.90799999992,
      "d": 99.99989999999525,
      "v": 82
    },
    {
      "midi": 57,
      "hit": false,
      "t": 92444.35199999991,
      "d": 266.6664000000019,
      "v": 85
    },
    {
      "midi": 60,
      "hit": false,
      "t": 92444.35199999991,
      "d": 266.6664000000019,
      "v": 85
    },
    {
      "midi": 65,
      "hit": false,
      "t": 92444.35199999991,
      "d": 266.6664000000019,
      "v": 85
    },
    {
      "midi": 57,
      "hit": false,
      "t": 92740.64799999991,
      "d": 88.88880000000063,
      "v": 68
    },
    {
      "midi": 60,
      "hit": false,
      "t": 92740.64799999991,
      "d": 88.88880000000063,
      "v": 68
    },
    {
      "midi": 65,
      "hit": false,
      "t": 92740.64799999991,
      "d": 88.88880000000063,
      "v": 68
    },
    {
      "midi": 57,
      "hit": false,
      "t": 93185.09199999992,
      "d": 122.22209999999905,
      "v": 66
    },
    {
      "midi": 60,
      "hit": false,
      "t": 93185.09199999992,
      "d": 122.22209999999905,
      "v": 66
    },
    {
      "midi": 65,
      "hit": false,
      "t": 93185.09199999992,
      "d": 122.22209999999905,
      "v": 66
    },
    {
      "midi": 53,
      "hit": false,
      "t": 93629.53599999992,
      "d": 81.48140000000421,
      "v": 55
    },
    {
      "midi": 57,
      "hit": false,
      "t": 93777.68399999992,
      "d": 99.99989999999525,
      "v": 82
    },
    {
      "midi": 60,
      "hit": false,
      "t": 93777.68399999992,
      "d": 99.99989999999525,
      "v": 82
    },
    {
      "midi": 65,
      "hit": false,
      "t": 93777.68399999992,
      "d": 99.99989999999525,
      "v": 82
    },
    {
      "midi": 57,
      "hit": false,
      "t": 94666.57199999991,
      "d": 296.2960000000021,
      "v": 82
    },
    {
      "midi": 62,
      "hit": false,
      "t": 94666.57199999991,
      "d": 296.2960000000021,
      "v": 82
    },
    {
      "midi": 65,
      "hit": false,
      "t": 94666.57199999991,
      "d": 296.2960000000021,
      "v": 82
    },
    {
      "midi": 62,
      "hit": false,
      "t": 95407.31199999992,
      "d": 155.55539999999746,
      "v": 68
    },
    {
      "midi": 65,
      "hit": false,
      "t": 95562.86739999992,
      "d": 48.1481000000058,
      "v": 82
    },
    {
      "midi": 69,
      "hit": false,
      "t": 95703.60799999992,
      "d": 88.88880000000063,
      "v": 78
    },
    {
      "midi": 74,
      "hit": false,
      "t": 95851.75599999992,
      "d": 44.44439999999304,
      "v": 98
    },
    {
      "midi": 58,
      "hit": false,
      "t": 95999.90399999991,
      "d": 211.11089999999967,
      "v": 59
    },
    {
      "midi": 62,
      "hit": false,
      "t": 96296.19999999991,
      "d": 151.85169999999925,
      "v": 53
    },
    {
      "midi": 65,
      "hit": false,
      "t": 96444.34799999991,
      "d": 274.0737999999983,
      "v": 87
    },
    {
      "midi": 70,
      "hit": false,
      "t": 96740.64399999991,
      "d": 166.66650000000664,
      "v": 82
    },
    {
      "midi": 46,
      "hit": false,
      "t": 97185.08799999992,
      "d": 99.99989999999525,
      "v": 66
    },
    {
      "midi": 58,
      "hit": false,
      "t": 97333.23599999992,
      "d": 144.44430000000284,
      "v": 87
    },
    {
      "midi": 62,
      "hit": false,
      "t": 97333.23599999992,
      "d": 144.44430000000284,
      "v": 87
    },
    {
      "midi": 65,
      "hit": false,
      "t": 97333.23599999992,
      "d": 144.44430000000284,
      "v": 87
    },
    {
      "midi": 58,
      "hit": false,
      "t": 97777.67999999992,
      "d": 266.6664000000019,
      "v": 85
    },
    {
      "midi": 60,
      "hit": false,
      "t": 97777.67999999992,
      "d": 266.6664000000019,
      "v": 85
    },
    {
      "midi": 64,
      "hit": false,
      "t": 97777.67999999992,
      "d": 266.6664000000019,
      "v": 85
    },
    {
      "midi": 67,
      "hit": false,
      "t": 97777.67999999992,
      "d": 266.6664000000019,
      "v": 85
    },
    {
      "midi": 58,
      "hit": false,
      "t": 98073.97599999992,
      "d": 88.88880000000063,
      "v": 68
    },
    {
      "midi": 60,
      "hit": false,
      "t": 98073.97599999992,
      "d": 88.88880000000063,
      "v": 68
    },
    {
      "midi": 64,
      "hit": false,
      "t": 98073.97599999992,
      "d": 88.88880000000063,
      "v": 68
    },
    {
      "midi": 67,
      "hit": false,
      "t": 98073.97599999992,
      "d": 88.88880000000063,
      "v": 68
    },
    {
      "midi": 58,
      "hit": false,
      "t": 98518.41999999993,
      "d": 122.22209999999905,
      "v": 66
    },
    {
      "midi": 60,
      "hit": false,
      "t": 98518.41999999993,
      "d": 122.22209999999905,
      "v": 66
    },
    {
      "midi": 64,
      "hit": false,
      "t": 98518.41999999993,
      "d": 122.22209999999905,
      "v": 66
    },
    {
      "midi": 67,
      "hit": false,
      "t": 98518.41999999993,
      "d": 122.22209999999905,
      "v": 66
    },
    {
      "midi": 48,
      "hit": false,
      "t": 98962.86399999993,
      "d": 81.48140000000421,
      "v": 55
    },
    {
      "midi": 58,
      "hit": false,
      "t": 99111.01199999993,
      "d": 99.99989999999525,
      "v": 82
    },
    {
      "midi": 60,
      "hit": false,
      "t": 99111.01199999993,
      "d": 99.99989999999525,
      "v": 82
    },
    {
      "midi": 64,
      "hit": false,
      "t": 99111.01199999993,
      "d": 99.99989999999525,
      "v": 82
    },
    {
      "midi": 67,
      "hit": false,
      "t": 99111.01199999993,
      "d": 99.99989999999525,
      "v": 82
    },
    {
      "midi": 57,
      "hit": false,
      "t": 99999.89999999992,
      "d": 140.74060000000463,
      "v": 78
    },
    {
      "midi": 60,
      "hit": false,
      "t": 99999.89999999992,
      "d": 140.74060000000463,
      "v": 78
    },
    {
      "midi": 65,
      "hit": false,
      "t": 99999.89999999992,
      "d": 140.74060000000463,
      "v": 78
    },
    {
      "midi": 53,
      "hit": false,
      "t": 100740.63999999993,
      "d": 151.85169999999925,
      "v": 60
    },
    {
      "midi": 57,
      "hit": false,
      "t": 100892.49169999993,
      "d": 144.44430000000284,
      "v": 80
    },
    {
      "midi": 60,
      "hit": false,
      "t": 100892.49169999993,
      "d": 144.44430000000284,
      "v": 80
    },
    {
      "midi": 65,
      "hit": false,
      "t": 100892.49169999993,
      "d": 144.44430000000284,
      "v": 80
    },
    {
      "midi": 57,
      "hit": false,
      "t": 101777.67599999993,
      "d": 133.33319999999367,
      "v": 74
    },
    {
      "midi": 60,
      "hit": false,
      "t": 101777.67599999993,
      "d": 133.33319999999367,
      "v": 74
    },
    {
      "midi": 65,
      "hit": false,
      "t": 101777.67599999993,
      "d": 133.33319999999367,
      "v": 74
    },
    {
      "midi": 53,
      "hit": false,
      "t": 102518.41599999992,
      "d": 81.48140000000421,
      "v": 56
    },
    {
      "midi": 57,
      "hit": false,
      "t": 102666.56399999993,
      "d": 111.11100000000442,
      "v": 85
    },
    {
      "midi": 60,
      "hit": false,
      "t": 102666.56399999993,
      "d": 111.11100000000442,
      "v": 85
    },
    {
      "midi": 65,
      "hit": false,
      "t": 102666.56399999993,
      "d": 111.11100000000442,
      "v": 85
    },
    {
      "midi": 50,
      "hit": false,
      "t": 103111.00799999993,
      "d": 177.77760000000126,
      "v": 72
    },
    {
      "midi": 57,
      "hit": false,
      "t": 103111.00799999993,
      "d": 222.2219999999943,
      "v": 87
    },
    {
      "midi": 62,
      "hit": false,
      "t": 103111.00799999993,
      "d": 222.2219999999943,
      "v": 87
    },
    {
      "midi": 65,
      "hit": false,
      "t": 103111.00799999993,
      "d": 222.2219999999943,
      "v": 87
    },
    {
      "midi": 50,
      "hit": false,
      "t": 103555.45199999992,
      "d": 696.2955999999976,
      "v": 66
    },
    {
      "midi": 57,
      "hit": false,
      "t": 103555.45199999992,
      "d": 766.6658999999927,
      "v": 74
    },
    {
      "midi": 62,
      "hit": false,
      "t": 103555.45199999992,
      "d": 766.6658999999927,
      "v": 74
    },
    {
      "midi": 65,
      "hit": false,
      "t": 103555.45199999992,
      "d": 766.6658999999927,
      "v": 74
    },
    {
      "midi": 45,
      "hit": false,
      "t": 104296.19199999991,
      "d": 122.22209999999905,
      "v": 68
    },
    {
      "midi": 50,
      "hit": false,
      "t": 104444.33999999991,
      "d": 155.55539999999746,
      "v": 66
    },
    {
      "midi": 57,
      "hit": false,
      "t": 104444.33999999991,
      "d": 188.88869999999588,
      "v": 87
    },
    {
      "midi": 62,
      "hit": false,
      "t": 104444.33999999991,
      "d": 188.88869999999588,
      "v": 87
    },
    {
      "midi": 65,
      "hit": false,
      "t": 104444.33999999991,
      "d": 188.88869999999588,
      "v": 87
    },
    {
      "midi": 61,
      "hit": false,
      "t": 104888.7839999999,
      "d": 1177.7765999999974,
      "v": 76
    },
    {
      "midi": 64,
      "hit": false,
      "t": 104888.7839999999,
      "d": 1177.7765999999974,
      "v": 76
    },
    {
      "midi": 67,
      "hit": false,
      "t": 104888.7839999999,
      "d": 1177.7765999999974,
      "v": 76
    },
    {
      "midi": 69,
      "hit": false,
      "t": 104888.7839999999,
      "d": 1177.7765999999974,
      "v": 76
    },
    {
      "midi": 45,
      "hit": false,
      "t": 106073.96799999989,
      "d": 170.37020000000484,
      "v": 57
    },
    {
      "midi": 61,
      "hit": false,
      "t": 106244.3381999999,
      "d": 133.33319999999367,
      "v": 85
    },
    {
      "midi": 64,
      "hit": false,
      "t": 106244.3381999999,
      "d": 133.33319999999367,
      "v": 85
    },
    {
      "midi": 67,
      "hit": false,
      "t": 106244.3381999999,
      "d": 133.33319999999367,
      "v": 85
    },
    {
      "midi": 69,
      "hit": false,
      "t": 106244.3381999999,
      "d": 133.33319999999367,
      "v": 85
    },
    {
      "midi": 53,
      "hit": false,
      "t": 106666.5599999999,
      "d": 155.55539999999746,
      "v": 58
    },
    {
      "midi": 57,
      "hit": false,
      "t": 106666.5599999999,
      "d": 237.03680000000168,
      "v": 80
    },
    {
      "midi": 60,
      "hit": false,
      "t": 106666.5599999999,
      "d": 237.03680000000168,
      "v": 80
    },
    {
      "midi": 65,
      "hit": false,
      "t": 106666.5599999999,
      "d": 237.03680000000168,
      "v": 80
    },
    {
      "midi": 53,
      "hit": false,
      "t": 107111.0039999999,
      "d": 144.44430000000284,
      "v": 57
    },
    {
      "midi": 57,
      "hit": false,
      "t": 107111.0039999999,
      "d": 211.11089999999967,
      "v": 85
    },
    {
      "midi": 60,
      "hit": false,
      "t": 107111.0039999999,
      "d": 211.11089999999967,
      "v": 85
    },
    {
      "midi": 65,
      "hit": false,
      "t": 107111.0039999999,
      "d": 211.11089999999967,
      "v": 85
    },
    {
      "midi": 53,
      "hit": false,
      "t": 107555.4479999999,
      "d": 140.74060000000463,
      "v": 66
    },
    {
      "midi": 57,
      "hit": false,
      "t": 107555.4479999999,
      "d": 188.88870000001043,
      "v": 87
    },
    {
      "midi": 60,
      "hit": false,
      "t": 107555.4479999999,
      "d": 188.88870000001043,
      "v": 87
    },
    {
      "midi": 65,
      "hit": false,
      "t": 107555.4479999999,
      "d": 188.88870000001043,
      "v": 87
    },
    {
      "midi": 53,
      "hit": false,
      "t": 107999.8919999999,
      "d": 133.33319999999367,
      "v": 70
    },
    {
      "midi": 57,
      "hit": false,
      "t": 107999.8919999999,
      "d": 188.88869999999588,
      "v": 85
    },
    {
      "midi": 60,
      "hit": false,
      "t": 107999.8919999999,
      "d": 188.88869999999588,
      "v": 85
    },
    {
      "midi": 65,
      "hit": false,
      "t": 107999.8919999999,
      "d": 188.88869999999588,
      "v": 85
    },
    {
      "midi": 48,
      "hit": false,
      "t": 108296.18799999991,
      "d": 103.70359999999346,
      "v": 55
    },
    {
      "midi": 53,
      "hit": false,
      "t": 108444.3359999999,
      "d": 133.33319999999367,
      "v": 66
    },
    {
      "midi": 57,
      "hit": false,
      "t": 108444.3359999999,
      "d": 196.2960999999923,
      "v": 85
    },
    {
      "midi": 60,
      "hit": false,
      "t": 108444.3359999999,
      "d": 196.2960999999923,
      "v": 85
    },
    {
      "midi": 65,
      "hit": false,
      "t": 108444.3359999999,
      "d": 196.2960999999923,
      "v": 85
    },
    {
      "midi": 53,
      "hit": false,
      "t": 108888.77999999988,
      "d": 133.33319999999367,
      "v": 66
    },
    {
      "midi": 57,
      "hit": false,
      "t": 108888.77999999988,
      "d": 192.5923999999941,
      "v": 78
    },
    {
      "midi": 60,
      "hit": false,
      "t": 108888.77999999988,
      "d": 192.5923999999941,
      "v": 78
    },
    {
      "midi": 65,
      "hit": false,
      "t": 108888.77999999988,
      "d": 192.5923999999941,
      "v": 78
    },
    {
      "midi": 53,
      "hit": false,
      "t": 109333.22399999987,
      "d": 155.55539999999746,
      "v": 64
    },
    {
      "midi": 57,
      "hit": false,
      "t": 109333.22399999987,
      "d": 192.5923999999941,
      "v": 68
    },
    {
      "midi": 60,
      "hit": false,
      "t": 109333.22399999987,
      "d": 192.5923999999941,
      "v": 68
    },
    {
      "midi": 65,
      "hit": false,
      "t": 109333.22399999987,
      "d": 192.5923999999941,
      "v": 68
    },
    {
      "midi": 48,
      "hit": false,
      "t": 109629.51999999986,
      "d": 85.18510000000242,
      "v": 38
    },
    {
      "midi": 57,
      "hit": false,
      "t": 109777.66799999986,
      "d": 103.70359999999346,
      "v": 76
    },
    {
      "midi": 60,
      "hit": false,
      "t": 109777.66799999986,
      "d": 103.70359999999346,
      "v": 76
    },
    {
      "midi": 65,
      "hit": false,
      "t": 109777.66799999986,
      "d": 103.70359999999346,
      "v": 76
    },
    {
      "midi": 53,
      "hit": false,
      "t": 109777.66799999986,
      "d": 125.92579999999725,
      "v": 66
    },
    {
      "midi": 50,
      "hit": false,
      "t": 110222.11199999986,
      "d": 177.77760000000126,
      "v": 72
    },
    {
      "midi": 57,
      "hit": false,
      "t": 110222.11199999986,
      "d": 222.2219999999943,
      "v": 87
    },
    {
      "midi": 62,
      "hit": false,
      "t": 110222.11199999986,
      "d": 222.2219999999943,
      "v": 87
    },
    {
      "midi": 65,
      "hit": false,
      "t": 110222.11199999986,
      "d": 222.2219999999943,
      "v": 87
    },
    {
      "midi": 50,
      "hit": false,
      "t": 110666.55599999985,
      "d": 696.2955999999976,
      "v": 66
    },
    {
      "midi": 57,
      "hit": false,
      "t": 110666.55599999985,
      "d": 766.6658999999927,
      "v": 74
    },
    {
      "midi": 62,
      "hit": false,
      "t": 110666.55599999985,
      "d": 766.6658999999927,
      "v": 74
    },
    {
      "midi": 65,
      "hit": false,
      "t": 110666.55599999985,
      "d": 766.6658999999927,
      "v": 74
    },
    {
      "midi": 45,
      "hit": false,
      "t": 111407.29599999984,
      "d": 122.22209999999905,
      "v": 68
    },
    {
      "midi": 50,
      "hit": false,
      "t": 111555.44399999984,
      "d": 155.55539999999746,
      "v": 66
    },
    {
      "midi": 57,
      "hit": false,
      "t": 111555.44399999984,
      "d": 188.88869999999588,
      "v": 87
    },
    {
      "midi": 62,
      "hit": false,
      "t": 111555.44399999984,
      "d": 188.88869999999588,
      "v": 87
    },
    {
      "midi": 65,
      "hit": false,
      "t": 111555.44399999984,
      "d": 188.88869999999588,
      "v": 87
    },
    {
      "midi": 45,
      "hit": false,
      "t": 111999.88799999983,
      "d": 177.77760000000126,
      "v": 72
    },
    {
      "midi": 61,
      "hit": false,
      "t": 111999.88799999983,
      "d": 222.2219999999943,
      "v": 87
    },
    {
      "midi": 64,
      "hit": false,
      "t": 111999.88799999983,
      "d": 222.2219999999943,
      "v": 87
    },
    {
      "midi": 67,
      "hit": false,
      "t": 111999.88799999983,
      "d": 222.2219999999943,
      "v": 87
    },
    {
      "midi": 69,
      "hit": false,
      "t": 111999.88799999983,
      "d": 222.2219999999943,
      "v": 87
    },
    {
      "midi": 45,
      "hit": false,
      "t": 112444.33199999982,
      "d": 696.2955999999976,
      "v": 66
    },
    {
      "midi": 61,
      "hit": false,
      "t": 112444.33199999982,
      "d": 766.6658999999927,
      "v": 74
    },
    {
      "midi": 64,
      "hit": false,
      "t": 112444.33199999982,
      "d": 766.6658999999927,
      "v": 74
    },
    {
      "midi": 67,
      "hit": false,
      "t": 112444.33199999982,
      "d": 766.6658999999927,
      "v": 74
    },
    {
      "midi": 69,
      "hit": false,
      "t": 112444.33199999982,
      "d": 766.6658999999927,
      "v": 74
    },
    {
      "midi": 40,
      "hit": false,
      "t": 113185.07199999981,
      "d": 122.22209999999905,
      "v": 68
    },
    {
      "midi": 45,
      "hit": false,
      "t": 113333.21999999981,
      "d": 155.55539999999746,
      "v": 66
    },
    {
      "midi": 61,
      "hit": false,
      "t": 113333.21999999981,
      "d": 188.88869999999588,
      "v": 87
    },
    {
      "midi": 64,
      "hit": false,
      "t": 113333.21999999981,
      "d": 188.88869999999588,
      "v": 87
    },
    {
      "midi": 67,
      "hit": false,
      "t": 113333.21999999981,
      "d": 188.88869999999588,
      "v": 87
    },
    {
      "midi": 69,
      "hit": false,
      "t": 113333.21999999981,
      "d": 188.88869999999588,
      "v": 87
    },
    {
      "midi": 57,
      "hit": false,
      "t": 114222.1079999998,
      "d": 144.44430000000284,
      "v": 85
    },
    {
      "midi": 60,
      "hit": false,
      "t": 114222.1079999998,
      "d": 144.44430000000284,
      "v": 85
    },
    {
      "midi": 65,
      "hit": false,
      "t": 114222.1079999998,
      "d": 144.44430000000284,
      "v": 85
    },
    {
      "midi": 57,
      "hit": false,
      "t": 115110.99599999981,
      "d": 114.81470000000263,
      "v": 82
    },
    {
      "midi": 60,
      "hit": false,
      "t": 115110.99599999981,
      "d": 114.81470000000263,
      "v": 82
    },
    {
      "midi": 65,
      "hit": false,
      "t": 115110.99599999981,
      "d": 114.81470000000263,
      "v": 82
    },
    {
      "midi": 53,
      "hit": false,
      "t": 115999.88399999982,
      "d": 285.1848999999929,
      "v": 54
    },
    {
      "midi": 57,
      "hit": false,
      "t": 116296.1799999998,
      "d": 214.81459999999788,
      "v": 87
    },
    {
      "midi": 60,
      "hit": false,
      "t": 116296.1799999998,
      "d": 214.81459999999788,
      "v": 87
    },
    {
      "midi": 65,
      "hit": false,
      "t": 116296.1799999998,
      "d": 214.81459999999788,
      "v": 87
    }
  ]
}