{
  "jsonPath": "World/Australian Pop/The Veronicas/everything-im-not-jason-nevins-remix-edit.json",
  "path": "World\\Australian Pop\\The Veronicas\\Everything Im Not Jason Nevins Remix Edit.mid",
  "name": "Everything Im Not Jason Nevins Remix Edit",
  "difficulty": "Advanced",
  "bpm": 130.0026650546336,
  "notes": [
    {
      "midi": 57,
      "hit": false,
      "t": 5543.155593750001,
      "d": 81.72909375000017,
      "v": 112
    },
    {
      "midi": 60,
      "hit": false,
      "t": 5543.155593750001,
      "d": 81.72909375000017,
      "v": 112
    },
    {
      "midi": 29,
      "hit": false,
      "t": 5543.155593750001,
      "d": 115.38225000000057,
      "v": 112
    },
    {
      "midi": 57,
      "hit": false,
      "t": 5547.9631875000005,
      "d": 52.88353124999958,
      "v": 112
    },
    {
      "midi": 60,
      "hit": false,
      "t": 5547.9631875000005,
      "d": 52.88353124999958,
      "v": 112
    },
    {
      "midi": 65,
      "hit": false,
      "t": 5547.9631875000005,
      "d": 52.88353124999958,
      "v": 112
    },
    {
      "midi": 69,
      "hit": false,
      "t": 5547.9631875000005,
      "d": 62.49871875000008,
      "v": 112
    },
    {
      "midi": 65,
      "hit": false,
      "t": 5547.9631875000005,
      "d": 76.92150000000038,
      "v": 112
    },
    {
      "midi": 60,
      "hit": false,
      "t": 5773.920093750001,
      "d": 91.34428124999977,
      "v": 112
    },
    {
      "midi": 69,
      "hit": false,
      "t": 5773.920093750001,
      "d": 91.34428124999977,
      "v": 112
    },
    {
      "midi": 57,
      "hit": false,
      "t": 5773.920093750001,
      "d": 96.15187499999956,
      "v": 112
    },
    {
      "midi": 65,
      "hit": false,
      "t": 5773.920093750001,
      "d": 96.15187499999956,
      "v": 112
    },
    {
      "midi": 29,
      "hit": false,
      "t": 5773.920093750001,
      "d": 124.99743749999925,
      "v": 112
    },
    {
      "midi": 57,
      "hit": false,
      "t": 5778.7276875,
      "d": 67.30631249999988,
      "v": 112
    },
    {
      "midi": 60,
      "hit": false,
      "t": 5778.7276875,
      "d": 67.30631249999988,
      "v": 112
    },
    {
      "midi": 65,
      "hit": false,
      "t": 5778.7276875,
      "d": 72.11390624999967,
      "v": 112
    },
    {
      "midi": 60,
      "hit": false,
      "t": 6120.06684375,
      "d": 91.34428124999977,
      "v": 112
    },
    {
      "midi": 65,
      "hit": false,
      "t": 6120.06684375,
      "d": 91.34428124999977,
      "v": 112
    },
    {
      "midi": 69,
      "hit": false,
      "t": 6120.06684375,
      "d": 91.34428124999977,
      "v": 112
    },
    {
      "midi": 57,
      "hit": false,
      "t": 6120.06684375,
      "d": 96.15187499999956,
      "v": 112
    },
    {
      "midi": 29,
      "hit": false,
      "t": 6120.06684375,
      "d": 120.18984374999945,
      "v": 112
    },
    {
      "midi": 57,
      "hit": false,
      "t": 6124.8744375,
      "d": 67.30631249999988,
      "v": 112
    },
    {
      "midi": 60,
      "hit": false,
      "t": 6124.8744375,
      "d": 67.30631249999988,
      "v": 112
    },
    {
      "midi": 65,
      "hit": false,
      "t": 6124.8744375,
      "d": 67.30631249999988,
      "v": 112
    },
    {
      "midi": 57,
      "hit": false,
      "t": 6350.831343749999,
      "d": 38.46075000000019,
      "v": 112
    },
    {
      "midi": 60,
      "hit": false,
      "t": 6350.831343749999,
      "d": 38.46075000000019,
      "v": 112
    },
    {
      "midi": 65,
      "hit": false,
      "t": 6350.831343749999,
      "d": 38.46075000000019,
      "v": 112
    },
    {
      "midi": 29,
      "hit": false,
      "t": 6350.831343749999,
      "d": 57.691125000000284,
      "v": 112
    },
    {
      "midi": 60,
      "hit": false,
      "t": 6466.21359375,
      "d": 91.34428124999977,
      "v": 112
    },
    {
      "midi": 65,
      "hit": false,
      "t": 6466.21359375,
      "d": 91.34428124999977,
      "v": 112
    },
    {
      "midi": 29,
      "hit": false,
      "t": 6466.21359375,
      "d": 144.22781250000025,
      "v": 112
    },
    {
      "midi": 57,
      "hit": false,
      "t": 6471.0211874999995,
      "d": 81.72909375000017,
      "v": 112
    },
    {
      "midi": 60,
      "hit": false,
      "t": 6471.0211874999995,
      "d": 100.95946875000027,
      "v": 112
    },
    {
      "midi": 65,
      "hit": false,
      "t": 6471.0211874999995,
      "d": 100.95946875000027,
      "v": 112
    },
    {
      "midi": 69,
      "hit": false,
      "t": 6471.0211874999995,
      "d": 81.72909375000017,
      "v": 112
    },
    {
      "midi": 57,
      "hit": false,
      "t": 6471.0211874999995,
      "d": 105.76706250000007,
      "v": 112
    },
    {
      "midi": 29,
      "hit": false,
      "t": 7158.50709375,
      "d": 57.691125000000284,
      "v": 112
    },
    {
      "midi": 31,
      "hit": false,
      "t": 7273.889343750001,
      "d": 72.11390624999967,
      "v": 112
    },
    {
      "midi": 57,
      "hit": false,
      "t": 7389.271593750001,
      "d": 81.72909375000017,
      "v": 112
    },
    {
      "midi": 60,
      "hit": false,
      "t": 7389.271593750001,
      "d": 81.72909375000017,
      "v": 112
    },
    {
      "midi": 64,
      "hit": false,
      "t": 7389.271593750001,
      "d": 81.72909375000017,
      "v": 112
    },
    {
      "midi": 33,
      "hit": false,
      "t": 7389.271593750001,
      "d": 96.15187500000047,
      "v": 112
    },
    {
      "midi": 57,
      "hit": false,
      "t": 7394.0791874999995,
      "d": 81.72909375000017,
      "v": 112
    },
    {
      "midi": 60,
      "hit": false,
      "t": 7394.0791874999995,
      "d": 81.72909375000017,
      "v": 112
    },
    {
      "midi": 64,
      "hit": false,
      "t": 7394.0791874999995,
      "d": 81.72909375000017,
      "v": 112
    },
    {
      "midi": 67,
      "hit": false,
      "t": 7394.0791874999995,
      "d": 81.72909375000017,
      "v": 112
    },
    {
      "midi": 67,
      "hit": false,
      "t": 7394.0791875,
      "d": 76.92150000000038,
      "v": 112
    },
    {
      "midi": 33,
      "hit": false,
      "t": 7620.036093750001,
      "d": 91.34428124999977,
      "v": 112
    },
    {
      "midi": 64,
      "hit": false,
      "t": 7620.036093750001,
      "d": 91.34428124999977,
      "v": 112
    },
    {
      "midi": 60,
      "hit": false,
      "t": 7620.036093750001,
      "d": 96.15187499999956,
      "v": 112
    },
    {
      "midi": 57,
      "hit": false,
      "t": 7620.036093750001,
      "d": 100.95946874999936,
      "v": 112
    },
    {
      "midi": 67,
      "hit": false,
      "t": 7620.036093750001,
      "d": 100.95946874999936,
      "v": 112
    },
    {
      "midi": 57,
      "hit": false,
      "t": 7624.8436875,
      "d": 91.34428124999977,
      "v": 112
    },
    {
      "midi": 60,
      "hit": false,
      "t": 7624.8436875,
      "d": 91.34428124999977,
      "v": 112
    },
    {
      "midi": 64,
      "hit": false,
      "t": 7624.8436875,
      "d": 91.34428124999977,
      "v": 112
    },
    {
      "midi": 67,
      "hit": false,
      "t": 7624.8436875,
      "d": 91.34428124999977,
      "v": 112
    },
    {
      "midi": 33,
      "hit": false,
      "t": 7966.18284375,
      "d": 110.57465624999986,
      "v": 112
    },
    {
      "midi": 57,
      "hit": false,
      "t": 7966.18284375,
      "d": 120.18984374999945,
      "v": 112
    },
    {
      "midi": 60,
      "hit": false,
      "t": 7966.18284375,
      "d": 124.99743749999925,
      "v": 112
    },
    {
      "midi": 64,
      "hit": false,
      "t": 7966.18284375,
      "d": 124.99743749999925,
      "v": 112
    },
    {
      "midi": 67,
      "hit": false,
      "t": 7966.18284375,
      "d": 129.80503124999905,
      "v": 112
    },
    {
      "midi": 57,
      "hit": false,
      "t": 7970.9904375,
      "d": 91.34428124999977,
      "v": 112
    },
    {
      "midi": 60,
      "hit": false,
      "t": 7970.9904375,
      "d": 91.34428124999977,
      "v": 112
    },
    {
      "midi": 64,
      "hit": false,
      "t": 7970.9904375,
      "d": 91.34428124999977,
      "v": 112
    },
    {
      "midi": 67,
      "hit": false,
      "t": 7970.9904375,
      "d": 91.34428124999977,
      "v": 112
    },
    {
      "midi": 33,
      "hit": false,
      "t": 8196.947343749998,
      "d": 62.49871874999917,
      "v": 112
    },
    {
      "midi": 67,
      "hit": false,
      "t": 8196.94734375,
      "d": 52.88353124999958,
      "v": 112
    },
    {
      "midi": 60,
      "hit": false,
      "t": 8196.94734375,
      "d": 57.691124999999374,
      "v": 112
    },
    {
      "midi": 64,
      "hit": false,
      "t": 8196.94734375,
      "d": 57.691124999999374,
      "v": 112
    },
    {
      "midi": 57,
      "hit": false,
      "t": 8201.7549375,
      "d": 48.07593749999978,
      "v": 112
    },
    {
      "midi": 60,
      "hit": false,
      "t": 8312.329593749997,
      "d": 86.53668749999997,
      "v": 112
    },
    {
      "midi": 64,
      "hit": false,
      "t": 8312.329593749997,
      "d": 91.34428124999977,
      "v": 112
    },
    {
      "midi": 33,
      "hit": false,
      "t": 8312.329593749997,
      "d": 124.99743750000016,
      "v": 112
    },
    {
      "midi": 57,
      "hit": false,
      "t": 8317.137187499997,
      "d": 81.72909375000017,
      "v": 112
    },
    {
      "midi": 67,
      "hit": false,
      "t": 8317.137187499997,
      "d": 81.72909375000017,
      "v": 112
    },
    {
      "midi": 60,
      "hit": false,
      "t": 8317.137187499999,
      "d": 105.76706249999916,
      "v": 112
    },
    {
      "midi": 64,
      "hit": false,
      "t": 8317.137187499999,
      "d": 105.76706249999916,
      "v": 112
    },
    {
      "midi": 57,
      "hit": false,
      "t": 8317.137187499999,
      "d": 110.57465624999895,
      "v": 112
    },
    {
      "midi": 67,
      "hit": false,
      "t": 8317.137187499999,
      "d": 129.80503124999814,
      "v": 112
    },
    {
      "midi": 65,
      "hit": false,
      "t": 9235.387593749998,
      "d": 76.92150000000038,
      "v": 112
    },
    {
      "midi": 34,
      "hit": false,
      "t": 9235.387593749998,
      "d": 129.80503124999996,
      "v": 112
    },
    {
      "midi": 58,
      "hit": false,
      "t": 9240.195187499998,
      "d": 57.691124999999374,
      "v": 112
    },
    {
      "midi": 62,
      "hit": false,
      "t": 9240.195187499998,
      "d": 57.691124999999374,
      "v": 112
    },
    {
      "midi": 65,
      "hit": false,
      "t": 9240.195187499998,
      "d": 62.49871874999917,
      "v": 112
    },
    {
      "midi": 58,
      "hit": false,
      "t": 9240.195187499998,
      "d": 67.30631250000079,
      "v": 112
    },
    {
      "midi": 53,
      "hit": false,
      "t": 9240.195187499998,
      "d": 72.11390625000058,
      "v": 112
    },
    {
      "midi": 62,
      "hit": false,
      "t": 9240.195187499998,
      "d": 72.11390625000058,
      "v": 112
    },
    {
      "midi": 34,
      "hit": false,
      "t": 9466.152093749997,
      "d": 91.34428124999977,
      "v": 112
    },
    {
      "midi": 53,
      "hit": false,
      "t": 9466.152093749997,
      "d": 96.15187499999956,
      "v": 112
    },
    {
      "midi": 58,
      "hit": false,
      "t": 9466.152093749997,
      "d": 96.15187499999956,
      "v": 112
    },
    {
      "midi": 62,
      "hit": false,
      "t": 9466.152093749997,
      "d": 96.15187499999956,
      "v": 112
    },
    {
      "midi": 65,
      "hit": false,
      "t": 9466.152093749997,
      "d": 96.15187499999956,
      "v": 112
    },
    {
      "midi": 58,
      "hit": false,
      "t": 9470.959687499997,
      "d": 28.845562500000597,
      "v": 112
    },
    {
      "midi": 62,
      "hit": false,
      "t": 9470.959687499997,
      "d": 67.30631250000079,
      "v": 112
    },
    {
      "midi": 65,
      "hit": false,
      "t": 9470.959687499997,
      "d": 72.11390625000058,
      "v": 112
    },
    {
      "midi": 58,
      "hit": false,
      "t": 9812.298843749997,
      "d": 91.34428124999977,
      "v": 112
    },
    {
      "midi": 62,
      "hit": false,
      "t": 9812.298843749997,
      "d": 91.34428124999977,
      "v": 112
    },
    {
      "midi": 65,
      "hit": false,
      "t": 9812.298843749997,
      "d": 91.34428124999977,
      "v": 112
    },
    {
      "midi": 34,
      "hit": false,
      "t": 9812.298843749997,
      "d": 105.76706249999916,
      "v": 112
    },
    {
      "midi": 58,
      "hit": false,
      "t": 9817.106437499997,
      "d": 67.30631250000079,
      "v": 112
    },
    {
      "midi": 65,
      "hit": false,
      "t": 9817.106437499997,
      "d": 67.30631250000079,
      "v": 112
    },
    {
      "midi": 62,
      "hit": false,
      "t": 9817.106437499997,
      "d": 72.11390625000058,
      "v": 112
    },
    {
      "midi": 53,
      "hit": false,
      "t": 9922.873499999996,
      "d": 52.88353124999958,
      "v": 112
    },
    {
      "midi": 34,
      "hit": false,
      "t": 10043.063343749996,
      "d": 43.268343749999985,
      "v": 112
    },
    {
      "midi": 58,
      "hit": false,
      "t": 10043.063343749998,
      "d": 38.46075000000019,
      "v": 112
    },
    {
      "midi": 62,
      "hit": false,
      "t": 10043.063343749998,
      "d": 81.72909375000017,
      "v": 112
    },
    {
      "midi": 65,
      "hit": false,
      "t": 10043.063343749998,
      "d": 81.72909375000017,
      "v": 112
    },
    {
      "midi": 58,
      "hit": false,
      "t": 10158.445593749997,
      "d": 96.15187499999956,
      "v": 112
    },
    {
      "midi": 53,
      "hit": false,
      "t": 10158.445593749997,
      "d": 100.95946874999936,
      "v": 112
    },
    {
      "midi": 34,
      "hit": false,
      "t": 10158.445593749997,
      "d": 120.18984374999854,
      "v": 112
    },
    {
      "midi": 62,
      "hit": false,
      "t": 10163.253187499997,
      "d": 86.53668749999997,
      "v": 112
    },
    {
      "midi": 65,
      "hit": false,
      "t": 10163.253187499997,
      "d": 96.15187499999956,
      "v": 112
    },
    {
      "midi": 58,
      "hit": false,
      "t": 10163.253187499999,
      "d": 76.92150000000038,
      "v": 112
    },
    {
      "midi": 62,
      "hit": false,
      "t": 10163.253187499999,
      "d": 81.72909375000017,
      "v": 112
    },
    {
      "midi": 65,
      "hit": false,
      "t": 10163.253187499999,
      "d": 81.72909375000017,
      "v": 112
    },
    {
      "midi": 34,
      "hit": false,
      "t": 10850.739093749995,
      "d": 19.230374999999185,
      "v": 112
    },
    {
      "midi": 34,
      "hit": false,
      "t": 10966.121343749994,
      "d": 57.691124999999374,
      "v": 112
    },
    {
      "midi": 34,
      "hit": false,
      "t": 11081.503593749992,
      "d": 81.72909375000017,
      "v": 112
    },
    {
      "midi": 58,
      "hit": false,
      "t": 11081.503593749992,
      "d": 86.53668749999997,
      "v": 112
    },
    {
      "midi": 62,
      "hit": false,
      "t": 11086.311187499992,
      "d": 76.92150000000038,
      "v": 112
    },
    {
      "midi": 53,
      "hit": false,
      "t": 11086.311187499992,
      "d": 81.72909375000017,
      "v": 112
    },
    {
      "midi": 65,
      "hit": false,
      "t": 11086.311187499992,
      "d": 81.72909375000017,
      "v": 112
    },
    {
      "midi": 58,
      "hit": false,
      "t": 11086.3111875,
      "d": 57.691124999999374,
      "v": 112
    },
    {
      "midi": 62,
      "hit": false,
      "t": 11086.3111875,
      "d": 57.691124999999374,
      "v": 112
    },
    {
      "midi": 65,
      "hit": false,
      "t": 11086.3111875,
      "d": 57.691124999999374,
      "v": 112
    },
    {
      "midi": 34,
      "hit": false,
      "t": 11312.268093749992,
      "d": 81.72909375000017,
      "v": 112
    },
    {
      "midi": 53,
      "hit": false,
      "t": 11312.268093749992,
      "d": 96.15187499999956,
      "v": 112
    },
    {
      "midi": 62,
      "hit": false,
      "t": 11312.268093749992,
      "d": 96.15187499999956,
      "v": 112
    },
    {
      "midi": 65,
      "hit": false,
      "t": 11312.268093749992,
      "d": 96.15187499999956,
      "v": 112
    },
    {
      "midi": 58,
      "hit": false,
      "t": 11312.268093749992,
      "d": 100.95946874999936,
      "v": 112
    },
    {
      "midi": 62,
      "hit": false,
      "t": 11317.075687499999,
      "d": 62.49871874999917,
      "v": 112
    },
    {
      "midi": 65,
      "hit": false,
      "t": 11317.075687499999,
      "d": 62.49871874999917,
      "v": 112
    },
    {
      "midi": 58,
      "hit": false,
      "t": 11317.075687499999,
      "d": 81.72909374999836,
      "v": 112
    },
    {
      "midi": 58,
      "hit": false,
      "t": 11658.414843749992,
      "d": 57.691124999999374,
      "v": 112
    },
    {
      "midi": 62,
      "hit": false,
      "t": 11658.414843749992,
      "d": 57.691124999999374,
      "v": 112
    },
    {
      "midi": 65,
      "hit": false,
      "t": 11658.414843749992,
      "d": 57.691124999999374,
      "v": 112
    },
    {
      "midi": 53,
      "hit": false,
      "t": 11658.414843749992,
      "d": 96.15187499999956,
      "v": 112
    },
    {
      "midi": 34,
      "hit": false,
      "t": 11658.414843749992,
      "d": 115.38224999999875,
      "v": 112
    },
    {
      "midi": 58,
      "hit": false,
      "t": 11663.222437499997,
      "d": 57.691124999999374,
      "v": 112
    },
    {
      "midi": 65,
      "hit": false,
      "t": 11663.222437499997,
      "d": 57.691124999999374,
      "v": 112
    },
    {
      "midi": 62,
      "hit": false,
      "t": 11663.222437499997,
      "d": 76.92149999999856,
      "v": 112
    },
    {
      "midi": 34,
      "hit": false,
      "t": 11889.179343749991,
      "d": 38.46075000000019,
      "v": 112
    },
    {
      "midi": 62,
      "hit": false,
      "t": 11889.179343749995,
      "d": 43.268343749999985,
      "v": 112
    },
    {
      "midi": 65,
      "hit": false,
      "t": 11889.179343749995,
      "d": 43.268343749999985,
      "v": 112
    },
    {
      "midi": 58,
      "hit": false,
      "t": 11889.179343749995,
      "d": 57.691124999999374,
      "v": 112
    },
    {
      "midi": 53,
      "hit": false,
      "t": 12004.561593749992,
      "d": 100.95946874999936,
      "v": 112
    },
    {
      "midi": 58,
      "hit": false,
      "t": 12004.561593749992,
      "d": 100.95946874999936,
      "v": 112
    },
    {
      "midi": 34,
      "hit": false,
      "t": 12004.561593749992,
      "d": 134.61262499999975,
      "v": 112
    },
    {
      "midi": 62,
      "hit": false,
      "t": 12009.369187499991,
      "d": 96.15187499999956,
      "v": 112
    },
    {
      "midi": 65,
      "hit": false,
      "t": 12009.369187499991,
      "d": 100.95946874999936,
      "v": 112
    },
    {
      "midi": 58,
      "hit": false,
      "t": 12009.369187499993,
      "d": 57.691124999999374,
      "v": 112
    },
    {
      "midi": 62,
      "hit": false,
      "t": 12009.369187499993,
      "d": 67.30631249999897,
      "v": 112
    },
    {
      "midi": 65,
      "hit": false,
      "t": 12009.369187499993,
      "d": 67.30631249999897,
      "v": 112
    },
    {
      "midi": 34,
      "hit": false,
      "t": 12466.090593749992,
      "d": 432.68343749999985,
      "v": 112
    },
    {
      "midi": 29,
      "hit": false,
      "t": 12927.619593749992,
      "d": 72.11390625000058,
      "v": 112
    },
    {
      "midi": 65,
      "hit": false,
      "t": 12927.619593749992,
      "d": 81.72909375000017,
      "v": 112
    },
    {
      "midi": 60,
      "hit": false,
      "t": 12932.427187499992,
      "d": 52.88353124999958,
      "v": 112
    },
    {
      "midi": 65,
      "hit": false,
      "t": 12932.427187499992,
      "d": 76.92150000000038,
      "v": 112
    },
    {
      "midi": 57,
      "hit": false,
      "t": 12932.427187499992,
      "d": 43.268343749999985,
      "v": 112
    },
    {
      "midi": 60,
      "hit": false,
      "t": 12932.427187499992,
      "d": 76.92150000000038,
      "v": 112
    },
    {
      "midi": 69,
      "hit": false,
      "t": 12932.427187499992,
      "d": 81.72909375000017,
      "v": 112
    },
    {
      "midi": 57,
      "hit": false,
      "t": 12937.234781249992,
      "d": 38.46075000000019,
      "v": 112
    },
    {
      "midi": 57,
      "hit": false,
      "t": 13158.384093749992,
      "d": 52.88353124999958,
      "v": 112
    },
    {
      "midi": 69,
      "hit": false,
      "t": 13158.384093749992,
      "d": 91.34428124999977,
      "v": 112
    },
    {
      "midi": 65,
      "hit": false,
      "t": 13158.384093749992,
      "d": 96.15187499999956,
      "v": 112
    },
    {
      "midi": 60,
      "hit": false,
      "t": 13158.384093749992,
      "d": 100.95946874999936,
      "v": 112
    },
    {
      "midi": 29,
      "hit": false,
      "t": 13158.384093749992,
      "d": 105.76706249999916,
      "v": 112
    },
    {
      "midi": 57,
      "hit": false,
      "t": 13163.191687499993,
      "d": 67.30631250000079,
      "v": 112
    },
    {
      "midi": 60,
      "hit": false,
      "t": 13163.191687499993,
      "d": 67.30631250000079,
      "v": 112
    },
    {
      "midi": 65,
      "hit": false,
      "t": 13163.191687499993,
      "d": 67.30631250000079,
      "v": 112
    },
    {
      "midi": 57,
      "hit": false,
      "t": 13504.530843749992,
      "d": 91.34428124999977,
      "v": 112
    },
    {
      "midi": 60,
      "hit": false,
      "t": 13504.530843749992,
      "d": 91.34428124999977,
      "v": 112
    },
    {
      "midi": 65,
      "hit": false,
      "t": 13504.530843749992,
      "d": 91.34428124999977,
      "v": 112
    },
    {
      "midi": 69,
      "hit": false,
      "t": 13504.530843749992,
      "d": 96.15187499999956,
      "v": 112
    },
    {
      "midi": 29,
      "hit": false,
      "t": 13504.530843749992,
      "d": 105.76706249999916,
      "v": 112
    },
    {
      "midi": 65,
      "hit": false,
      "t": 13509.338437499995,
      "d": 33.65315625000039,
      "v": 112
    },
    {
      "midi": 60,
      "hit": false,
      "t": 13509.338437499995,
      "d": 57.69112500000119,
      "v": 112
    },
    {
      "midi": 57,
      "hit": false,
      "t": 13509.338437499995,
      "d": 91.34428125000159,
      "v": 112
    },
    {
      "midi": 29,
      "hit": false,
      "t": 13735.295343749991,
      "d": 52.88353124999958,
      "v": 112
    },
    {
      "midi": 60,
      "hit": false,
      "t": 13735.295343749996,
      "d": 38.46075000000019,
      "v": 112
    },
    {
      "midi": 65,
      "hit": false,
      "t": 13735.295343749996,
      "d": 38.46075000000019,
      "v": 112
    },
    {
      "midi": 57,
      "hit": false,
      "t": 13735.295343749996,
      "d": 76.92150000000038,
      "v": 112
    },
    {
      "midi": 57,
      "hit": false,
      "t": 13850.67759374999,
      "d": 91.34428124999977,
      "v": 112
    },
    {
      "midi": 65,
      "hit": false,
      "t": 13850.67759374999,
      "d": 91.34428124999977,
      "v": 112
    },
    {
      "midi": 29,
      "hit": false,
      "t": 13850.67759374999,
      "d": 134.61262499999975,
      "v": 112
    },
    {
      "midi": 60,
      "hit": false,
      "t": 13855.48518749999,
      "d": 86.53668749999997,
      "v": 112
    },
    {
      "midi": 69,
      "hit": false,
      "t": 13855.48518749999,
      "d": 86.53668749999997,
      "v": 112
    },
    {
      "midi": 57,
      "hit": false,
      "t": 13855.485187499997,
      "d": 81.72909375000017,
      "v": 112
    },
    {
      "midi": 60,
      "hit": false,
      "t": 13855.485187499997,
      "d": 81.72909375000017,
      "v": 112
    },
    {
      "midi": 65,
      "hit": false,
      "t": 13855.485187499997,
      "d": 81.72909375000017,
      "v": 112
    },
    {
      "midi": 29,
      "hit": false,
      "t": 14542.97109374999,
      "d": 72.11390625000058,
      "v": 112
    },
    {
      "midi": 31,
      "hit": false,
      "t": 14658.35334374999,
      "d": 62.49871874999917,
      "v": 112
    },
    {
      "midi": 33,
      "hit": false,
      "t": 14773.735593749989,
      "d": 81.72909375000017,
      "v": 112
    },
    {
      "midi": 64,
      "hit": false,
      "t": 14773.735593749989,
      "d": 86.53668749999997,
      "v": 112
    },
    {
      "midi": 57,
      "hit": false,
      "t": 14778.543187499989,
      "d": 81.72909375000017,
      "v": 112
    },
    {
      "midi": 60,
      "hit": false,
      "t": 14778.543187499989,
      "d": 81.72909375000017,
      "v": 112
    },
    {
      "midi": 67,
      "hit": false,
      "t": 14778.543187499989,
      "d": 81.72909375000017,
      "v": 112
    },
    {
      "midi": 57,
      "hit": false,
      "t": 14778.543187499998,
      "d": 67.30631250000079,
      "v": 112
    },
    {
      "midi": 64,
      "hit": false,
      "t": 14778.543187499998,
      "d": 67.30631250000079,
      "v": 112
    },
    {
      "midi": 67,
      "hit": false,
      "t": 14778.543187499998,
      "d": 67.30631250000079,
      "v": 112
    },
    {
      "midi": 60,
      "hit": false,
      "t": 14778.543187499998,
      "d": 72.11390625000058,
      "v": 112
    },
    {
      "midi": 33,
      "hit": false,
      "t": 15004.500093749988,
      "d": 76.92150000000038,
      "v": 112
    },
    {
      "midi": 57,
      "hit": false,
      "t": 15004.500093749988,
      "d": 96.15187499999956,
      "v": 112
    },
    {
      "midi": 60,
      "hit": false,
      "t": 15004.500093749988,
      "d": 96.15187499999956,
      "v": 112
    },
    {
      "midi": 64,
      "hit": false,
      "t": 15004.500093749988,
      "d": 96.15187499999956,
      "v": 112
    },
    {
      "midi": 67,
      "hit": false,
      "t": 15004.500093749988,
      "d": 96.15187499999956,
      "v": 112
    },
    {
      "midi": 57,
      "hit": false,
      "t": 15009.307687499999,
      "d": 96.15187499999956,
      "v": 112
    },
    {
      "midi": 60,
      "hit": false,
      "t": 15009.307687499999,
      "d": 96.15187499999956,
      "v": 112
    },
    {
      "midi": 64,
      "hit": false,
      "t": 15009.307687499999,
      "d": 96.15187499999956,
      "v": 112
    },
    {
      "midi": 67,
      "hit": false,
      "t": 15009.307687499999,
      "d": 96.15187499999956,
      "v": 112
    },
    {
      "midi": 33,
      "hit": false,
      "t": 15350.646843749988,
      "d": 86.53668749999997,
      "v": 112
    },
    {
      "midi": 57,
      "hit": false,
      "t": 15350.646843749988,
      "d": 91.34428124999977,
      "v": 112
    },
    {
      "midi": 60,
      "hit": false,
      "t": 15350.646843749988,
      "d": 91.34428124999977,
      "v": 112
    },
    {
      "midi": 64,
      "hit": false,
      "t": 15350.646843749988,
      "d": 91.34428124999977,
      "v": 112
    },
    {
      "midi": 67,
      "hit": false,
      "t": 15350.646843749988,
      "d": 96.15187499999956,
      "v": 112
    },
    {
      "midi": 57,
      "hit": false,
      "t": 15355.454437499999,
      "d": 43.268343749999985,
      "v": 112
    },
    {
      "midi": 60,
      "hit": false,
      "t": 15355.454437499999,
      "d": 76.92150000000038,
      "v": 112
    },
    {
      "midi": 64,
      "hit": false,
      "t": 15355.454437499999,
      "d": 76.92150000000038,
      "v": 112
    },
    {
      "midi": 67,
      "hit": false,
      "t": 15355.454437499999,
      "d": 76.92150000000038,
      "v": 112
    },
    {
      "midi": 33,
      "hit": false,
      "t": 15581.411343749987,
      "d": 57.691124999999374,
      "v": 112
    },
    {
      "midi": 60,
      "hit": false,
      "t": 15581.411343749998,
      "d": 48.07593749999978,
      "v": 112
    },
    {
      "midi": 64,
      "hit": false,
      "t": 15581.411343749998,
      "d": 48.07593749999978,
      "v": 112
    },
    {
      "midi": 67,
      "hit": false,
      "t": 15581.411343749998,
      "d": 48.07593749999978,
      "v": 112
    },
    {
      "midi": 57,
      "hit": false,
      "t": 15581.411343749998,
      "d": 96.15187499999956,
      "v": 112
    },
    {
      "midi": 57,
      "hit": false,
      "t": 15696.793593749986,
      "d": 105.76706249999916,
      "v": 112
    },
    {
      "midi": 33,
      "hit": false,
      "t": 15696.793593749986,
      "d": 149.03540624999914,
      "v": 112
    },
    {
      "midi": 60,
      "hit": false,
      "t": 15701.601187499986,
      "d": 62.49871874999917,
      "v": 112
    },
    {
      "midi": 67,
      "hit": false,
      "t": 15701.601187499986,
      "d": 62.49871874999917,
      "v": 112
    },
    {
      "midi": 64,
      "hit": false,
      "t": 15701.601187499986,
      "d": 76.92149999999856,
      "v": 112
    },
    {
      "midi": 57,
      "hit": false,
      "t": 15701.601187499999,
      "d": 43.268343749999985,
      "v": 112
    },
    {
      "midi": 60,
      "hit": false,
      "t": 15701.601187499999,
      "d": 96.15187499999956,
      "v": 112
    },
    {
      "midi": 64,
      "hit": false,
      "t": 15701.601187499999,
      "d": 96.15187499999956,
      "v": 112
    },
    {
      "midi": 67,
      "hit": false,
      "t": 15706.408781249998,
      "d": 91.34428124999977,
      "v": 112
    },
    {
      "midi": 33,
      "hit": false,
      "t": 16389.087093749986,
      "d": 33.653156249998574,
      "v": 112
    },
    {
      "midi": 33,
      "hit": false,
      "t": 16504.469343749985,
      "d": 57.69112500000119,
      "v": 112
    },
    {
      "midi": 65,
      "hit": false,
      "t": 16619.851593749987,
      "d": 86.53668749999997,
      "v": 112
    },
    {
      "midi": 34,
      "hit": false,
      "t": 16619.851593749987,
      "d": 110.57465624999895,
      "v": 112
    },
    {
      "midi": 53,
      "hit": false,
      "t": 16624.659187499987,
      "d": 48.0759375000016,
      "v": 112
    },
    {
      "midi": 58,
      "hit": false,
      "t": 16624.659187499987,
      "d": 76.92150000000038,
      "v": 112
    },
    {
      "midi": 62,
      "hit": false,
      "t": 16624.659187499987,
      "d": 76.92150000000038,
      "v": 112
    },
    {
      "midi": 58,
      "hit": false,
      "t": 16624.659187499998,
      "d": 57.69112500000119,
      "v": 112
    },
    {
      "midi": 62,
      "hit": false,
      "t": 16624.659187499998,
      "d": 57.69112500000119,
      "v": 112
    },
    {
      "midi": 65,
      "hit": false,
      "t": 16624.659187499998,
      "d": 57.69112500000119,
      "v": 112
    },
    {
      "midi": 53,
      "hit": false,
      "t": 16850.616093749984,
      "d": 57.69112500000119,
      "v": 112
    },
    {
      "midi": 62,
      "hit": false,
      "t": 16850.616093749984,
      "d": 91.34428124999977,
      "v": 112
    },
    {
      "midi": 58,
      "hit": false,
      "t": 16850.616093749984,
      "d": 96.15187499999956,
      "v": 112
    },
    {
      "midi": 65,
      "hit": false,
      "t": 16850.616093749984,
      "d": 96.15187499999956,
      "v": 112
    },
    {
      "midi": 34,
      "hit": false,
      "t": 16850.616093749984,
      "d": 134.61262499999793,
      "v": 112
    },
    {
      "midi": 58,
      "hit": false,
      "t": 16855.4236875,
      "d": 33.653156249998574,
      "v": 112
    },
    {
      "midi": 62,
      "hit": false,
      "t": 16855.4236875,
      "d": 76.92150000000038,
      "v": 112
    },
    {
      "midi": 65,
      "hit": false,
      "t": 16855.4236875,
      "d": 76.92150000000038,
      "v": 112
    },
    {
      "midi": 53,
      "hit": false,
      "t": 17196.76284374998,
      "d": 48.0759375000016,
      "v": 112
    },
    {
      "midi": 58,
      "hit": false,
      "t": 17196.76284374998,
      "d": 86.53668749999997,
      "v": 112
    },
    {
      "midi": 62,
      "hit": false,
      "t": 17196.76284374998,
      "d": 86.53668749999997,
      "v": 112
    },
    {
      "midi": 65,
      "hit": false,
      "t": 17196.76284374998,
      "d": 91.34428124999977,
      "v": 112
    },
    {
      "midi": 34,
      "hit": false,
      "t": 17196.76284374998,
      "d": 134.61262500000157,
      "v": 112
    },
    {
      "midi": 65,
      "hit": false,
      "t": 17201.5704375,
      "d": 67.30631250000079,
      "v": 112
    },
    {
      "midi": 58,
      "hit": false,
      "t": 17201.5704375,
      "d": 72.11390625000058,
      "v": 112
    },
    {
      "midi": 62,
      "hit": false,
      "t": 17201.5704375,
      "d": 72.11390625000058,
      "v": 112
    },
    {
      "midi": 34,
      "hit": false,
      "t": 17427.52734374998,
      "d": 57.69112500000119,
      "v": 112
    },
    {
      "midi": 58,
      "hit": false,
      "t": 17427.52734375,
      "d": 38.46074999999837,
      "v": 112
    },
    {
      "midi": 62,
      "hit": false,
      "t": 17427.52734375,
      "d": 38.46074999999837,
      "v": 112
    },
    {
      "midi": 65,
      "hit": false,
      "t": 17432.3349375,
      "d": 28.845562499998778,
      "v": 112
    },
    {
      "midi": 53,
      "hit": false,
      "t": 17542.909593749984,
      "d": 86.53668749999997,
      "v": 112
    },
    {
      "midi": 58,
      "hit": false,
      "t": 17542.909593749984,
      "d": 86.53668749999997,
      "v": 112
    },
    {
      "midi": 34,
      "hit": false,
      "t": 17542.909593749984,
      "d": 134.61262500000157,
      "v": 112
    },
    {
      "midi": 62,
      "hit": false,
      "t": 17547.717187499984,
      "d": 72.11390625000058,
      "v": 112
    },
    {
      "midi": 65,
      "hit": false,
      "t": 17547.717187499984,
      "d": 81.72909375000017,
      "v": 112
    },
    {
      "midi": 58,
      "hit": false,
      "t": 17547.7171875,
      "d": 76.92150000000038,
      "v": 112
    },
    {
      "midi": 65,
      "hit": false,
      "t": 17547.7171875,
      "d": 76.92150000000038,
      "v": 112
    },
    {
      "midi": 62,
      "hit": false,
      "t": 17547.7171875,
      "d": 86.53668749999997,
      "v": 112
    },
    {
      "midi": 34,
      "hit": false,
      "t": 18235.203093749988,
      "d": 19.230374999999185,
      "v": 112
    },
    {
      "midi": 34,
      "hit": false,
      "t": 18350.585343749986,
      "d": 38.46074999999837,
      "v": 112
    },
    {
      "midi": 62,
      "hit": false,
      "t": 18465.967593749985,
      "d": 81.72909375000017,
      "v": 112
    },
    {
      "midi": 65,
      "hit": false,
      "t": 18465.967593749985,
      "d": 86.53668749999997,
      "v": 112
    },
    {
      "midi": 34,
      "hit": false,
      "t": 18465.967593749985,
      "d": 100.95946874999936,
      "v": 112
    },
    {
      "midi": 53,
      "hit": false,
      "t": 18470.775187499985,
      "d": 86.53668749999997,
      "v": 112
    },
    {
      "midi": 58,
      "hit": false,
      "t": 18470.775187499985,
      "d": 86.53668749999997,
      "v": 112
    },
    {
      "midi": 62,
      "hit": false,
      "t": 18470.7751875,
      "d": 57.69112500000119,
      "v": 112
    },
    {
      "midi": 65,
      "hit": false,
      "t": 18470.7751875,
      "d": 57.69112500000119,
      "v": 112
    },
    {
      "midi": 58,
      "hit": false,
      "t": 18470.7751875,
      "d": 62.49871875000099,
      "v": 112
    },
    {
      "midi": 62,
      "hit": false,
      "t": 18696.732093749986,
      "d": 57.69112500000119,
      "v": 112
    },
    {
      "midi": 58,
      "hit": false,
      "t": 18696.732093749986,
      "d": 62.49871875000099,
      "v": 112
    },
    {
      "midi": 34,
      "hit": false,
      "t": 18696.732093749986,
      "d": 81.72909375000017,
      "v": 112
    },
    {
      "midi": 53,
      "hit": false,
      "t": 18696.732093749986,
      "d": 100.95946874999936,
      "v": 112
    },
    {
      "midi": 65,
      "hit": false,
      "t": 18696.732093749986,
      "d": 100.95946874999936,
      "v": 112
    },
    {
      "midi": 58,
      "hit": false,
      "t": 18701.5396875,
      "d": 72.11390625000058,
      "v": 112
    },
    {
      "midi": 62,
      "hit": false,
      "t": 18701.5396875,
      "d": 72.11390625000058,
      "v": 112
    },
    {
      "midi": 65,
      "hit": false,
      "t": 18701.5396875,
      "d": 72.11390625000058,
      "v": 112
    },
    {
      "midi": 53,
      "hit": false,
      "t": 19042.878843749986,
      "d": 81.72909375000017,
      "v": 112
    },
    {
      "midi": 58,
      "hit": false,
      "t": 19042.878843749986,
      "d": 81.72909375000017,
      "v": 112
    },
    {
      "midi": 62,
      "hit": false,
      "t": 19042.878843749986,
      "d": 81.72909375000017,
      "v": 112
    },
    {
      "midi": 65,
      "hit": false,
      "t": 19042.878843749986,
      "d": 86.53668749999997,
      "v": 112
    },
    {
      "midi": 34,
      "hit": false,
      "t": 19042.878843749986,
      "d": 96.15187499999956,
      "v": 112
    },
    {
      "midi": 62,
      "hit": false,
      "t": 19047.6864375,
      "d": 67.30631250000079,
      "v": 112
    },
    {
      "midi": 65,
      "hit": false,
      "t": 19047.6864375,
      "d": 67.30631250000079,
      "v": 112
    },
    {
      "midi": 58,
      "hit": false,
      "t": 19047.6864375,
      "d": 72.11390625000058,
      "v": 112
    },
    {
      "midi": 34,
      "hit": false,
      "t": 19273.643343749987,
      "d": 57.69112500000119,
      "v": 112
    },
    {
      "midi": 62,
      "hit": false,
      "t": 19278.4509375,
      "d": 38.46074999999837,
      "v": 112
    },
    {
      "midi": 58,
      "hit": false,
      "t": 19278.4509375,
      "d": 62.49871874999735,
      "v": 112
    },
    {
      "midi": 65,
      "hit": false,
      "t": 19278.4509375,
      "d": 62.49871874999735,
      "v": 112
    },
    {
      "midi": 53,
      "hit": false,
      "t": 19389.02559374999,
      "d": 96.15187499999956,
      "v": 112
    },
    {
      "midi": 58,
      "hit": false,
      "t": 19389.02559374999,
      "d": 96.15187499999956,
      "v": 112
    },
    {
      "midi": 62,
      "hit": false,
      "t": 19389.02559374999,
      "d": 96.15187499999956,
      "v": 112
    },
    {
      "midi": 34,
      "hit": false,
      "t": 19389.02559374999,
      "d": 110.57465624999895,
      "v": 112
    },
    {
      "midi": 65,
      "hit": false,
      "t": 19393.83318749999,
      "d": 86.53668749999997,
      "v": 112
    },
    {
      "midi": 58,
      "hit": false,
      "t": 19393.8331875,
      "d": 76.92150000000038,
      "v": 112
    },
    {
      "midi": 62,
      "hit": false,
      "t": 19393.8331875,
      "d": 76.92150000000038,
      "v": 112
    },
    {
      "midi": 65,
      "hit": false,
      "t": 19393.8331875,
      "d": 76.92150000000038,
      "v": 112
    },
    {
      "midi": 34,
      "hit": false,
      "t": 19850.55459374999,
      "d": 91.34428124999977,
      "v": 112
    },
    {
      "midi": 36,
      "hit": false,
      "t": 20081.31909374999,
      "d": 105.76706249999916,
      "v": 112
    },
    {
      "midi": 65,
      "hit": false,
      "t": 20312.083593749987,
      "d": 1.2018984374990396,
      "v": 112
    },
    {
      "midi": 38,
      "hit": false,
      "t": 20312.083593749987,
      "d": 100.95946874999936,
      "v": 112
    },
    {
      "midi": 57,
      "hit": false,
      "t": 20316.891187499987,
      "d": 62.49871875000099,
      "v": 112
    },
    {
      "midi": 62,
      "hit": false,
      "t": 20316.891187499987,
      "d": 67.30631250000079,
      "v": 112
    },
    {
      "midi": 69,
      "hit": false,
      "t": 20316.891187499987,
      "d": 67.30631250000079,
      "v": 112
    },
    {
      "midi": 65,
      "hit": false,
      "t": 20316.8911875,
      "d": 57.69112500000119,
      "v": 112
    },
    {
      "midi": 62,
      "hit": false,
      "t": 20316.8911875,
      "d": 67.30631250000079,
      "v": 112
    },
    {
      "midi": 69,
      "hit": false,
      "t": 20321.69878125,
      "d": 52.8835312500014,
      "v": 112
    },
    {
      "midi": 38,
      "hit": false,
      "t": 20542.848093749988,
      "d": 81.72909375000017,
      "v": 112
    },
    {
      "midi": 57,
      "hit": false,
      "t": 20542.848093749988,
      "d": 96.15187499999956,
      "v": 112
    },
    {
      "midi": 62,
      "hit": false,
      "t": 20542.848093749988,
      "d": 96.15187499999956,
      "v": 112
    },
    {
      "midi": 65,
      "hit": false,
      "t": 20542.848093749988,
      "d": 96.15187499999956,
      "v": 112
    },
    {
      "midi": 69,
      "hit": false,
      "t": 20542.848093749988,
      "d": 96.15187499999956,
      "v": 112
    },
    {
      "midi": 62,
      "hit": false,
      "t": 20547.655687500002,
      "d": 67.30631250000079,
      "v": 112
    },
    {
      "midi": 65,
      "hit": false,
      "t": 20547.655687500002,
      "d": 67.30631250000079,
      "v": 112
    },
    {
      "midi": 69,
      "hit": false,
      "t": 20547.655687500002,
      "d": 67.30631250000079,
      "v": 112
    },
    {
      "midi": 62,
      "hit": false,
      "t": 20888.994843749988,
      "d": 91.34428124999977,
      "v": 112
    },
    {
      "midi": 65,
      "hit": false,
      "t": 20888.994843749988,
      "d": 91.34428124999977,
      "v": 112
    },
    {
      "midi": 69,
      "hit": false,
      "t": 20888.994843749988,
      "d": 91.34428124999977,
      "v": 112
    },
    {
      "midi": 57,
      "hit": false,
      "t": 20888.994843749988,
      "d": 96.15187499999956,
      "v": 112
    },
    {
      "midi": 38,
      "hit": false,
      "t": 20888.994843749988,
      "d": 105.76706249999916,
      "v": 112
    },
    {
      "midi": 62,
      "hit": false,
      "t": 20893.802437500002,
      "d": 72.11390625000058,
      "v": 112
    },
    {
      "midi": 65,
      "hit": false,
      "t": 20893.802437500002,
      "d": 72.11390625000058,
      "v": 112
    },
    {
      "midi": 69,
      "hit": false,
      "t": 20893.802437500002,
      "d": 72.11390625000058,
      "v": 112
    },
    {
      "midi": 38,
      "hit": false,
      "t": 21119.759343749985,
      "d": 48.0759375000016,
      "v": 112
    },
    {
      "midi": 62,
      "hit": false,
      "t": 21119.759343750004,
      "d": 38.46074999999837,
      "v": 112
    },
    {
      "midi": 69,
      "hit": false,
      "t": 21119.759343750004,
      "d": 38.46074999999837,
      "v": 112
    },
    {
      "midi": 65,
      "hit": false,
      "t": 21119.759343750004,
      "d": 57.691124999997555,
      "v": 112
    },
    {
      "midi": 62,
      "hit": false,
      "t": 21235.141593749988,
      "d": 86.53668749999997,
      "v": 112
    },
    {
      "midi": 65,
      "hit": false,
      "t": 21235.141593749988,
      "d": 86.53668749999997,
      "v": 112
    },
    {
      "midi": 38,
      "hit": false,
      "t": 21235.141593749988,
      "d": 139.42021874999773,
      "v": 112
    },
    {
      "midi": 57,
      "hit": false,
      "t": 21239.949187499988,
      "d": 81.72909375000017,
      "v": 112
    },
    {
      "midi": 69,
      "hit": false,
      "t": 21239.949187499988,
      "d": 105.76706249999916,
      "v": 112
    },
    {
      "midi": 62,
      "hit": false,
      "t": 21239.949187500002,
      "d": 76.92150000000038,
      "v": 112
    },
    {
      "midi": 65,
      "hit": false,
      "t": 21239.949187500002,
      "d": 76.92150000000038,
      "v": 112
    },
    {
      "midi": 69,
      "hit": false,
      "t": 21239.949187500002,
      "d": 76.92150000000038,
      "v": 112
    },
    {
      "midi": 38,
      "hit": false,
      "t": 21927.435093749984,
      "d": 48.0759375000016,
      "v": 112
    },
    {
      "midi": 38,
      "hit": false,
      "t": 22042.817343749986,
      "d": 67.30631250000079,
      "v": 112
    },
    {
      "midi": 65,
      "hit": false,
      "t": 22158.19959374999,
      "d": 81.72909375000017,
      "v": 112
    },
    {
      "midi": 36,
      "hit": false,
      "t": 22158.19959374999,
      "d": 110.57465624999895,
      "v": 112
    },
    {
      "midi": 57,
      "hit": false,
      "t": 22163.00718749999,
      "d": 52.8835312500014,
      "v": 112
    },
    {
      "midi": 60,
      "hit": false,
      "t": 22163.00718749999,
      "d": 76.92150000000038,
      "v": 112
    },
    {
      "midi": 69,
      "hit": false,
      "t": 22163.00718749999,
      "d": 96.15187499999956,
      "v": 112
    },
    {
      "midi": 65,
      "hit": false,
      "t": 22163.007187500003,
      "d": 52.8835312500014,
      "v": 112
    },
    {
      "midi": 69,
      "hit": false,
      "t": 22163.007187500003,
      "d": 57.69112500000119,
      "v": 112
    },
    {
      "midi": 60,
      "hit": false,
      "t": 22163.007187500003,
      "d": 72.11390625000058,
      "v": 112
    },
    {
      "midi": 57,
      "hit": false,
      "t": 22388.964093749986,
      "d": 91.34428124999977,
      "v": 112
    },
    {
      "midi": 65,
      "hit": false,
      "t": 22388.964093749986,
      "d": 91.34428124999977,
      "v": 112
    },
    {
      "midi": 69,
      "hit": false,
      "t": 22388.964093749986,
      "d": 91.34428124999977,
      "v": 112
    },
    {
      "midi": 60,
      "hit": false,
      "t": 22388.964093749986,
      "d": 96.15187499999956,
      "v": 112
    },
    {
      "midi": 36,
      "hit": false,
      "t": 22388.964093749986,
      "d": 139.42021875000137,
      "v": 112
    },
    {
      "midi": 69,
      "hit": false,
      "t": 22393.771687500004,
      "d": 62.49871875000099,
      "v": 112
    },
    {
      "midi": 60,
      "hit": false,
      "t": 22393.771687500004,
      "d": 67.30631250000079,
      "v": 112
    },
    {
      "midi": 65,
      "hit": false,
      "t": 22393.771687500004,
      "d": 67.30631250000079,
      "v": 112
    },
    {
      "midi": 60,
      "hit": false,
      "t": 22735.110843749986,
      "d": 86.53668749999997,
      "v": 112
    },
    {
      "midi": 65,
      "hit": false,
      "t": 22735.110843749986,
      "d": 86.53668749999997,
      "v": 112
    },
    {
      "midi": 69,
      "hit": false,
      "t": 22735.110843749986,
      "d": 86.53668749999997,
      "v": 112
    },
    {
      "midi": 57,
      "hit": false,
      "t": 22735.110843749986,
      "d": 91.34428124999977,
      "v": 112
    },
    {
      "midi": 36,
      "hit": false,
      "t": 22735.110843749986,
      "d": 129.80503124999814,
      "v": 112
    },
    {
      "midi": 60,
      "hit": false,
      "t": 22739.918437500004,
      "d": 57.69112500000119,
      "v": 112
    },
    {
      "midi": 65,
      "hit": false,
      "t": 22739.918437500004,
      "d": 57.69112500000119,
      "v": 112
    },
    {
      "midi": 69,
      "hit": false,
      "t": 22739.918437500004,
      "d": 57.69112500000119,
      "v": 112
    },
    {
      "midi": 36,
      "hit": false,
      "t": 22965.875343749984,
      "d": 62.49871875000099,
      "v": 112
    },
    {
      "midi": 69,
      "hit": false,
      "t": 22965.875343750005,
      "d": 38.46074999999837,
      "v": 112
    },
    {
      "midi": 65,
      "hit": false,
      "t": 22965.875343750005,
      "d": 62.49871874999735,
      "v": 112
    },
    {
      "midi": 60,
      "hit": false,
      "t": 22965.875343750005,
      "d": 67.30631249999715,
      "v": 112
    },
    {
      "midi": 57,
      "hit": false,
      "t": 23081.257593749986,
      "d": 91.34428124999977,
      "v": 112
    },
    {
      "midi": 60,
      "hit": false,
      "t": 23081.257593749986,
      "d": 96.15187499999956,
      "v": 112
    },
    {
      "midi": 36,
      "hit": false,
      "t": 23081.257593749986,
      "d": 144.22781250000116,
      "v": 112
    },
    {
      "midi": 69,
      "hit": false,
      "t": 23086.065187499986,
      "d": 91.34428124999977,
      "v": 112
    },
    {
      "midi": 65,
      "hit": false,
      "t": 23086.065187499986,
      "d": 96.15187499999956,
      "v": 112
    },
    {
      "midi": 60,
      "hit": false,
      "t": 23086.065187500004,
      "d": 76.92150000000038,
      "v": 112
    },
    {
      "midi": 65,
      "hit": false,
      "t": 23086.065187500004,
      "d": 76.92150000000038,
      "v": 112
    },
    {
      "midi": 69,
      "hit": false,
      "t": 23086.065187500004,
      "d": 76.92150000000038,
      "v": 112
    },
    {
      "midi": 36,
      "hit": false,
      "t": 23773.551093749986,
      "d": 81.72909375000017,
      "v": 112
    },
    {
      "midi": 38,
      "hit": false,
      "t": 23888.933343749984,
      "d": 96.15187499999956,
      "v": 112
    },
    {
      "midi": 63,
      "hit": false,
      "t": 24004.315593749983,
      "d": 96.15187499999956,
      "v": 112
    },
    {
      "midi": 39,
      "hit": false,
      "t": 24004.315593749983,
      "d": 120.18984374999854,
      "v": 112
    },
    {
      "midi": 58,
      "hit": false,
      "t": 24009.123187499983,
      "d": 72.11390625000058,
      "v": 112
    },
    {
      "midi": 70,
      "hit": false,
      "t": 24009.123187499983,
      "d": 72.11390625000058,
      "v": 112
    },
    {
      "midi": 67,
      "hit": false,
      "t": 24009.123187499983,
      "d": 76.92150000000038,
      "v": 112
    },
    {
      "midi": 70,
      "hit": false,
      "t": 24009.123187500005,
      "d": 28.845562499998778,
      "v": 112
    },
    {
      "midi": 63,
      "hit": false,
      "t": 24009.123187500005,
      "d": 52.88353124999776,
      "v": 112
    },
    {
      "midi": 58,
      "hit": false,
      "t": 24009.123187500005,
      "d": 57.691124999997555,
      "v": 112
    },
    {
      "midi": 58,
      "hit": false,
      "t": 24235.08009374998,
      "d": 91.34428124999977,
      "v": 112
    },
    {
      "midi": 63,
      "hit": false,
      "t": 24235.08009374998,
      "d": 96.15187499999956,
      "v": 112
    },
    {
      "midi": 67,
      "hit": false,
      "t": 24235.08009374998,
      "d": 96.15187499999956,
      "v": 112
    },
    {
      "midi": 70,
      "hit": false,
      "t": 24235.08009374998,
      "d": 96.15187499999956,
      "v": 112
    },
    {
      "midi": 39,
      "hit": false,
      "t": 24235.08009374998,
      "d": 115.38224999999875,
      "v": 112
    },
    {
      "midi": 58,
      "hit": false,
      "t": 24239.887687500002,
      "d": 67.30631250000079,
      "v": 112
    },
    {
      "midi": 63,
      "hit": false,
      "t": 24239.887687500002,
      "d": 67.30631250000079,
      "v": 112
    },
    {
      "midi": 70,
      "hit": false,
      "t": 24239.887687500002,
      "d": 67.30631250000079,
      "v": 112
    },
    {
      "midi": 67,
      "hit": false,
      "t": 24581.22684374998,
      "d": 81.72909375000017,
      "v": 112
    },
    {
      "midi": 70,
      "hit": false,
      "t": 24581.22684374998,
      "d": 81.72909375000017,
      "v": 112
    },
    {
      "midi": 58,
      "hit": false,
      "t": 24581.22684374998,
      "d": 86.53668749999997,
      "v": 112
    },
    {
      "midi": 63,
      "hit": false,
      "t": 24581.22684374998,
      "d": 86.53668749999997,
      "v": 112
    },
    {
      "midi": 39,
      "hit": false,
      "t": 24581.22684374998,
      "d": 91.34428124999977,
      "v": 112
    },
    {
      "midi": 63,
      "hit": false,
      "t": 24586.034437500002,
      "d": 67.30631250000079,
      "v": 112
    },
    {
      "midi": 70,
      "hit": false,
      "t": 24586.034437500002,
      "d": 67.30631250000079,
      "v": 112
    },
    {
      "midi": 58,
      "hit": false,
      "t": 24586.034437500002,
      "d": 72.11390625000058,
      "v": 112
    },
    {
      "midi": 39,
      "hit": false,
      "t": 24811.99134374998,
      "d": 57.69112500000119,
      "v": 112
    },
    {
      "midi": 63,
      "hit": false,
      "t": 24811.991343750004,
      "d": 38.46074999999837,
      "v": 112
    },
    {
      "midi": 70,
      "hit": false,
      "t": 24811.991343750004,
      "d": 38.46074999999837,
      "v": 112
    },
    {
      "midi": 58,
      "hit": false,
      "t": 24811.991343750004,
      "d": 62.49871874999735,
      "v": 112
    },
    {
      "midi": 63,
      "hit": false,
      "t": 24927.373593749984,
      "d": 100.95946874999936,
      "v": 112
    },
    {
      "midi": 70,
      "hit": false,
      "t": 24927.373593749984,
      "d": 100.95946874999936,
      "v": 112
    },
    {
      "midi": 39,
      "hit": false,
      "t": 24927.373593749984,
      "d": 302.8784062499981,
      "v": 112
    },
    {
      "midi": 58,
      "hit": false,
      "t": 24932.181187499984,
      "d": 81.72909375000017,
      "v": 112
    },
    {
      "midi": 67,
      "hit": false,
      "t": 24932.181187499984,
      "d": 91.34428124999977,
      "v": 112
    },
    {
      "midi": 58,
      "hit": false,
      "t": 24932.181187500002,
      "d": 67.30631250000079,
      "v": 112
    },
    {
      "midi": 63,
      "hit": false,
      "t": 24932.181187500002,
      "d": 72.11390625000058,
      "v": 112
    },
    {
      "midi": 70,
      "hit": false,
      "t": 24932.181187500002,
      "d": 72.11390625000058,
      "v": 112
    },
    {
      "midi": 34,
      "hit": false,
      "t": 25850.43159374998,
      "d": 3413.3915624999972,
      "v": 112
    },
    {
      "midi": 62,
      "hit": false,
      "t": 25855.23918749998,
      "d": 2456.6804062500014,
      "v": 112
    },
    {
      "midi": 65,
      "hit": false,
      "t": 25855.23918749998,
      "d": 2475.9107812500006,
      "v": 112
    },
    {
      "midi": 58,
      "hit": false,
      "t": 25855.23918749998,
      "d": 2509.563937499999,
      "v": 112
    },
    {
      "midi": 70,
      "hit": false,
      "t": 25855.23918749998,
      "d": 2509.563937499999,
      "v": 112
    },
    {
      "midi": 65,
      "hit": false,
      "t": 25855.239187500003,
      "d": 2812.442343750001,
      "v": 112
    },
    {
      "midi": 70,
      "hit": false,
      "t": 25855.239187500003,
      "d": 2812.442343750001,
      "v": 112
    },
    {
      "midi": 58,
      "hit": false,
      "t": 25860.046781250003,
      "d": 1365.3566250000003,
      "v": 112
    },
    {
      "midi": 62,
      "hit": false,
      "t": 25860.046781250003,
      "d": 2793.2119687500017,
      "v": 112
    },
    {
      "midi": 60,
      "hit": false,
      "t": 30696.48609374998,
      "d": 620.1795937499992,
      "v": 112
    },
    {
      "midi": 72,
      "hit": false,
      "t": 30696.48609374998,
      "d": 687.48590625,
      "v": 112
    },
    {
      "midi": 65,
      "hit": false,
      "t": 30696.48609374998,
      "d": 692.2934999999998,
      "v": 112
    },
    {
      "midi": 69,
      "hit": false,
      "t": 30696.48609374998,
      "d": 711.523874999999,
      "v": 112
    },
    {
      "midi": 65,
      "hit": false,
      "t": 30696.486093750005,
      "d": 423.06825000000026,
      "v": 112
    },
    {
      "midi": 57,
      "hit": false,
      "t": 30696.486093750005,
      "d": 437.49103124999965,
      "v": 112
    },
    {
      "midi": 60,
      "hit": false,
      "t": 30696.486093750005,
      "d": 437.49103124999965,
      "v": 112
    },
    {
      "midi": 65,
      "hit": false,
      "t": 31619.544093749977,
      "d": 725.9466562499983,
      "v": 112
    },
    {
      "midi": 60,
      "hit": false,
      "t": 31619.544093749977,
      "d": 740.3694374999977,
      "v": 112
    },
    {
      "midi": 72,
      "hit": false,
      "t": 31619.544093749977,
      "d": 740.3694374999977,
      "v": 112
    },
    {
      "midi": 69,
      "hit": false,
      "t": 31619.544093749977,
      "d": 759.5998124999969,
      "v": 112
    },
    {
      "midi": 60,
      "hit": false,
      "t": 31619.544093750006,
      "d": 624.987187499999,
      "v": 112
    },
    {
      "midi": 65,
      "hit": false,
      "t": 31624.351687500006,
      "d": 586.5264375000006,
      "v": 112
    },
    {
      "midi": 57,
      "hit": false,
      "t": 31624.351687500006,
      "d": 605.7568124999998,
      "v": 112
    },
    {
      "midi": 69,
      "hit": false,
      "t": 32542.602093749974,
      "d": 600.9492187499964,
      "v": 112
    },
    {
      "midi": 72,
      "hit": false,
      "t": 32542.602093749974,
      "d": 624.987187499999,
      "v": 112
    },
    {
      "midi": 60,
      "hit": false,
      "t": 32542.602093749974,
      "d": 629.7947812500024,
      "v": 112
    },
    {
      "midi": 65,
      "hit": false,
      "t": 32542.602093749974,
      "d": 639.409968750002,
      "v": 112
    },
    {
      "midi": 57,
      "hit": false,
      "t": 32547.409687500007,
      "d": 399.03028124999764,
      "v": 112
    },
    {
      "midi": 60,
      "hit": false,
      "t": 32547.409687500007,
      "d": 413.45306250000067,
      "v": 112
    },
    {
      "midi": 65,
      "hit": false,
      "t": 32547.409687500007,
      "d": 413.45306250000067,
      "v": 112
    },
    {
      "midi": 63,
      "hit": false,
      "t": 33234.89559375001,
      "d": 456.72140624999884,
      "v": 112
    },
    {
      "midi": 67,
      "hit": false,
      "t": 33234.89559375001,
      "d": 461.52900000000227,
      "v": 112
    },
    {
      "midi": 58,
      "hit": false,
      "t": 33234.89559375001,
      "d": 480.75937500000146,
      "v": 112
    },
    {
      "midi": 58,
      "hit": false,
      "t": 33465.660093749975,
      "d": 528.8353124999994,
      "v": 112
    },
    {
      "midi": 63,
      "hit": false,
      "t": 33465.660093749975,
      "d": 528.8353124999994,
      "v": 112
    },
    {
      "midi": 67,
      "hit": false,
      "t": 33465.660093749975,
      "d": 528.8353124999994,
      "v": 112
    },
    {
      "midi": 70,
      "hit": false,
      "t": 33465.660093749975,
      "d": 533.6429062500029,
      "v": 112
    },
    {
      "midi": 58,
      "hit": false,
      "t": 33927.18909375001,
      "d": 942.2883749999964,
      "v": 112
    },
    {
      "midi": 67,
      "hit": false,
      "t": 33927.18909375001,
      "d": 942.2883749999964,
      "v": 112
    },
    {
      "midi": 63,
      "hit": false,
      "t": 33927.18909375001,
      "d": 961.5187499999956,
      "v": 112
    },
    {
      "midi": 67,
      "hit": false,
      "t": 34157.953593749975,
      "d": 749.9846249999973,
      "v": 112
    },
    {
      "midi": 63,
      "hit": false,
      "t": 34157.953593749975,
      "d": 754.7922187500008,
      "v": 112
    },
    {
      "midi": 70,
      "hit": false,
      "t": 34157.953593749975,
      "d": 769.2150000000038,
      "v": 112
    },
    {
      "midi": 58,
      "hit": false,
      "t": 34157.953593749975,
      "d": 788.445375000003,
      "v": 112
    },
    {
      "midi": 58,
      "hit": false,
      "t": 35081.01159375,
      "d": 543.2580937500024,
      "v": 112
    },
    {
      "midi": 62,
      "hit": false,
      "t": 35081.01159375,
      "d": 543.2580937500024,
      "v": 112
    },
    {
      "midi": 65,
      "hit": false,
      "t": 35081.01159375,
      "d": 548.0656875000059,
      "v": 112
    },
    {
      "midi": 58,
      "hit": false,
      "t": 35311.77609374998,
      "d": 370.1847187500025,
      "v": 112
    },
    {
      "midi": 65,
      "hit": false,
      "t": 35311.77609374998,
      "d": 461.52900000000227,
      "v": 112
    },
    {
      "midi": 70,
      "hit": false,
      "t": 35311.77609374998,
      "d": 475.9517812500053,
      "v": 112
    },
    {
      "midi": 62,
      "hit": false,
      "t": 35311.77609374998,
      "d": 495.1821562500045,
      "v": 112
    },
    {
      "midi": 70,
      "hit": false,
      "t": 36004.069593749984,
      "d": 937.4807812500003,
      "v": 112
    },
    {
      "midi": 58,
      "hit": false,
      "t": 36004.069593749984,
      "d": 956.7111562499995,
      "v": 112
    },
    {
      "midi": 62,
      "hit": false,
      "t": 36004.069593749984,
      "d": 956.7111562499995,
      "v": 112
    },
    {
      "midi": 65,
      "hit": false,
      "t": 36004.069593749984,
      "d": 956.7111562499995,
      "v": 112
    },
    {
      "midi": 58,
      "hit": false,
      "t": 36008.87718750001,
      "d": 605.7568125000034,
      "v": 112
    },
    {
      "midi": 62,
      "hit": false,
      "t": 36008.87718750001,
      "d": 605.7568125000034,
      "v": 112
    },
    {
      "midi": 65,
      "hit": false,
      "t": 36008.87718750001,
      "d": 624.9871875000026,
      "v": 112
    },
    {
      "midi": 57,
      "hit": false,
      "t": 37157.892093750015,
      "d": 624.9871875000026,
      "v": 112
    },
    {
      "midi": 60,
      "hit": false,
      "t": 37157.892093750015,
      "d": 624.9871875000026,
      "v": 112
    },
    {
      "midi": 65,
      "hit": false,
      "t": 37157.892093750015,
      "d": 624.9871875000026,
      "v": 112
    },
    {
      "midi": 60,
      "hit": false,
      "t": 38080.95009374998,
      "d": 682.6783125000002,
      "v": 112
    },
    {
      "midi": 65,
      "hit": false,
      "t": 38080.95009374998,
      "d": 697.1010937500032,
      "v": 112
    },
    {
      "midi": 72,
      "hit": false,
      "t": 38080.95009374998,
      "d": 711.5238750000062,
      "v": 112
    },
    {
      "midi": 69,
      "hit": false,
      "t": 38080.95009374998,
      "d": 716.3314687500097,
      "v": 112
    },
    {
      "midi": 57,
      "hit": false,
      "t": 38080.95009375002,
      "d": 754.7922187500008,
      "v": 112
    },
    {
      "midi": 60,
      "hit": false,
      "t": 38080.95009375002,
      "d": 754.7922187500008,
      "v": 112
    },
    {
      "midi": 65,
      "hit": false,
      "t": 38080.95009375002,
      "d": 754.7922187500008,
      "v": 112
    },
    {
      "midi": 60,
      "hit": false,
      "t": 39004.008093749995,
      "d": 701.9086874999994,
      "v": 112
    },
    {
      "midi": 65,
      "hit": false,
      "t": 39004.008093749995,
      "d": 701.9086874999994,
      "v": 112
    },
    {
      "midi": 72,
      "hit": false,
      "t": 39004.008093749995,
      "d": 716.3314687500024,
      "v": 112
    },
    {
      "midi": 69,
      "hit": false,
      "t": 39004.008093749995,
      "d": 740.369437500005,
      "v": 112
    },
    {
      "midi": 65,
      "hit": false,
      "t": 39004.00809375002,
      "d": 692.293500000007,
      "v": 112
    },
    {
      "midi": 57,
      "hit": false,
      "t": 39008.81568750002,
      "d": 701.9086875000066,
      "v": 112
    },
    {
      "midi": 60,
      "hit": false,
      "t": 39008.81568750002,
      "d": 721.1390625000058,
      "v": 112
    },
    {
      "midi": 69,
      "hit": false,
      "t": 39927.06609375,
      "d": 379.7999062500021,
      "v": 112
    },
    {
      "midi": 72,
      "hit": false,
      "t": 39927.06609375,
      "d": 475.9517812500053,
      "v": 112
    },
    {
      "midi": 65,
      "hit": false,
      "t": 39927.06609375,
      "d": 490.3745625000083,
      "v": 112
    },
    {
      "midi": 60,
      "hit": false,
      "t": 39927.06609375,
      "d": 514.4125312500109,
      "v": 112
    },
    {
      "midi": 57,
      "hit": false,
      "t": 39927.06609375003,
      "d": 591.3340312500004,
      "v": 112
    },
    {
      "midi": 60,
      "hit": false,
      "t": 39927.06609375003,
      "d": 591.3340312500004,
      "v": 112
    },
    {
      "midi": 65,
      "hit": false,
      "t": 39927.06609375003,
      "d": 649.025156249998,
      "v": 112
    },
    {
      "midi": 58,
      "hit": false,
      "t": 40619.359593750014,
      "d": 942.2883749999964,
      "v": 112
    },
    {
      "midi": 70,
      "hit": false,
      "t": 40619.359593750014,
      "d": 947.0959687499999,
      "v": 112
    },
    {
      "midi": 63,
      "hit": false,
      "t": 40619.359593750014,
      "d": 961.5187500000029,
      "v": 112
    },
    {
      "midi": 67,
      "hit": false,
      "t": 40619.359593750014,
      "d": 961.5187500000029,
      "v": 112
    },
    {
      "midi": 67,
      "hit": false,
      "t": 40850.124093750026,
      "d": 447.10621874999924,
      "v": 112
    },
    {
      "midi": 58,
      "hit": false,
      "t": 40850.124093750026,
      "d": 456.72140624999884,
      "v": 112
    },
    {
      "midi": 63,
      "hit": false,
      "t": 40850.124093750026,
      "d": 461.52900000000227,
      "v": 112
    },
    {
      "midi": 58,
      "hit": false,
      "t": 41542.417593750026,
      "d": 913.4428124999977,
      "v": 112
    },
    {
      "midi": 67,
      "hit": false,
      "t": 41542.417593750026,
      "d": 932.6731874999969,
      "v": 112
    },
    {
      "midi": 63,
      "hit": false,
      "t": 41542.417593750026,
      "d": 966.3263437499991,
      "v": 112
    },
    {
      "midi": 67,
      "hit": false,
      "t": 41773.182093750016,
      "d": 379.7999062500021,
      "v": 112
    },
    {
      "midi": 63,
      "hit": false,
      "t": 41773.182093750016,
      "d": 423.0682500000039,
      "v": 112
    },
    {
      "midi": 70,
      "hit": false,
      "t": 41773.182093750016,
      "d": 423.0682500000039,
      "v": 112
    },
    {
      "midi": 58,
      "hit": false,
      "t": 41773.182093750016,
      "d": 456.7214062500061,
      "v": 112
    },
    {
      "midi": 65,
      "hit": false,
      "t": 42465.47559375002,
      "d": 932.6731874999969,
      "v": 112
    },
    {
      "midi": 70,
      "hit": false,
      "t": 42465.47559375002,
      "d": 932.6731874999969,
      "v": 112
    },
    {
      "midi": 58,
      "hit": false,
      "t": 42465.47559375002,
      "d": 937.4807812500003,
      "v": 112
    },
    {
      "midi": 62,
      "hit": false,
      "t": 42465.47559375002,
      "d": 956.7111562499995,
      "v": 112
    },
    {
      "midi": 58,
      "hit": false,
      "t": 42696.24009375003,
      "d": 278.84043750000274,
      "v": 112
    },
    {
      "midi": 62,
      "hit": false,
      "t": 42696.24009375003,
      "d": 288.4556250000023,
      "v": 112
    },
    {
      "midi": 65,
      "hit": false,
      "t": 42696.24009375003,
      "d": 307.6860000000015,
      "v": 112
    },
    {
      "midi": 58,
      "hit": false,
      "t": 43388.53359375003,
      "d": 740.3694374999977,
      "v": 112
    },
    {
      "midi": 65,
      "hit": false,
      "t": 43388.53359375003,
      "d": 740.3694374999977,
      "v": 112
    },
    {
      "midi": 62,
      "hit": false,
      "t": 43388.53359375003,
      "d": 745.1770312500012,
      "v": 112
    },
    {
      "midi": 58,
      "hit": false,
      "t": 43619.298093750025,
      "d": 475.951781249998,
      "v": 112
    },
    {
      "midi": 62,
      "hit": false,
      "t": 43619.298093750025,
      "d": 495.1821562499972,
      "v": 112
    },
    {
      "midi": 65,
      "hit": false,
      "t": 43619.298093750025,
      "d": 509.60493750000023,
      "v": 112
    },
    {
      "midi": 70,
      "hit": false,
      "t": 43619.298093750025,
      "d": 509.60493750000023,
      "v": 112
    },
    {
      "midi": 58,
      "hit": false,
      "t": 44311.591593750025,
      "d": 1.2018984375026776,
      "v": 112
    },
    {
      "midi": 67,
      "hit": false,
      "t": 44311.591593750025,
      "d": 975.9415312500059,
      "v": 112
    },
    {
      "midi": 62,
      "hit": false,
      "t": 44316.39918750003,
      "d": 951.9035625000033,
      "v": 112
    },
    {
      "midi": 70,
      "hit": false,
      "t": 44316.39918750003,
      "d": 961.5187500000029,
      "v": 112
    },
    {
      "midi": 58,
      "hit": false,
      "t": 44542.35609375003,
      "d": 423.0682499999966,
      "v": 112
    },
    {
      "midi": 62,
      "hit": false,
      "t": 44542.35609375003,
      "d": 423.0682499999966,
      "v": 112
    },
    {
      "midi": 67,
      "hit": false,
      "t": 44542.35609375003,
      "d": 423.0682499999966,
      "v": 112
    },
    {
      "midi": 58,
      "hit": false,
      "t": 45234.64959375003,
      "d": 937.4807812500003,
      "v": 112
    },
    {
      "midi": 67,
      "hit": false,
      "t": 45234.64959375003,
      "d": 937.4807812500003,
      "v": 112
    },
    {
      "midi": 62,
      "hit": false,
      "t": 45234.64959375003,
      "d": 956.7111562499995,
      "v": 112
    },
    {
      "midi": 70,
      "hit": false,
      "t": 45465.414093750034,
      "d": 466.3365937499984,
      "v": 112
    },
    {
      "midi": 58,
      "hit": false,
      "t": 45465.414093750034,
      "d": 471.14418750000186,
      "v": 112
    },
    {
      "midi": 62,
      "hit": false,
      "t": 45465.414093750034,
      "d": 471.14418750000186,
      "v": 112
    },
    {
      "midi": 67,
      "hit": false,
      "t": 45465.414093750034,
      "d": 490.37456250000105,
      "v": 112
    },
    {
      "midi": 62,
      "hit": false,
      "t": 46157.707593750034,
      "d": 942.2883750000037,
      "v": 112
    },
    {
      "midi": 65,
      "hit": false,
      "t": 46157.707593750034,
      "d": 942.2883750000037,
      "v": 112
    },
    {
      "midi": 58,
      "hit": false,
      "t": 46157.707593750034,
      "d": 971.1339375000025,
      "v": 112
    },
    {
      "midi": 70,
      "hit": false,
      "t": 46157.707593750034,
      "d": 975.9415312500059,
      "v": 112
    },
    {
      "midi": 65,
      "hit": false,
      "t": 46388.47209375003,
      "d": 495.1821562499972,
      "v": 112
    },
    {
      "midi": 62,
      "hit": false,
      "t": 46388.47209375003,
      "d": 509.60493750000023,
      "v": 112
    },
    {
      "midi": 58,
      "hit": false,
      "t": 46388.47209375003,
      "d": 514.4125312500037,
      "v": 112
    },
    {
      "midi": 58,
      "hit": false,
      "t": 47080.76559375004,
      "d": 740.3694374999977,
      "v": 112
    },
    {
      "midi": 65,
      "hit": false,
      "t": 47080.76559375004,
      "d": 740.3694374999977,
      "v": 112
    },
    {
      "midi": 62,
      "hit": false,
      "t": 47080.76559375004,
      "d": 754.7922187500008,
      "v": 112
    },
    {
      "midi": 58,
      "hit": false,
      "t": 47311.53009375004,
      "d": 245.18728125000052,
      "v": 112
    },
    {
      "midi": 65,
      "hit": false,
      "t": 47311.53009375004,
      "d": 259.61006250000355,
      "v": 112
    },
    {
      "midi": 62,
      "hit": false,
      "t": 47311.53009375004,
      "d": 274.0328437500066,
      "v": 112
    },
    {
      "midi": 70,
      "hit": false,
      "t": 47311.53009375004,
      "d": 274.0328437500066,
      "v": 112
    },
    {
      "midi": 58,
      "hit": false,
      "t": 47773.05909375005,
      "d": 91.34428124999977,
      "v": 112
    },
    {
      "midi": 65,
      "hit": false,
      "t": 47773.05909375005,
      "d": 91.34428124999977,
      "v": 112
    },
    {
      "midi": 62,
      "hit": false,
      "t": 47773.05909375005,
      "d": 100.95946874999936,
      "v": 112
    },
    {
      "midi": 70,
      "hit": false,
      "t": 47773.05909375005,
      "d": 110.57465624999895,
      "v": 112
    },
    {
      "midi": 57,
      "hit": false,
      "t": 48003.82359375005,
      "d": 966.3263437499991,
      "v": 112
    },
    {
      "midi": 62,
      "hit": false,
      "t": 48003.82359375005,
      "d": 966.3263437499991,
      "v": 112
    },
    {
      "midi": 65,
      "hit": false,
      "t": 48003.82359375005,
      "d": 975.9415312499987,
      "v": 112
    },
    {
      "midi": 69,
      "hit": false,
      "t": 48003.82359375005,
      "d": 980.7491250000021,
      "v": 112
    },
    {
      "midi": 57,
      "hit": false,
      "t": 48234.58809375004,
      "d": 264.4176562499997,
      "v": 112
    },
    {
      "midi": 62,
      "hit": false,
      "t": 48234.58809375004,
      "d": 264.4176562499997,
      "v": 112
    },
    {
      "midi": 65,
      "hit": false,
      "t": 48234.58809375004,
      "d": 264.4176562499997,
      "v": 112
    },
    {
      "midi": 57,
      "hit": false,
      "t": 48926.88159375004,
      "d": 677.870718750004,
      "v": 112
    },
    {
      "midi": 65,
      "hit": false,
      "t": 48926.88159375004,
      "d": 725.946656250002,
      "v": 112
    },
    {
      "midi": 62,
      "hit": false,
      "t": 48931.689187500044,
      "d": 701.9086874999994,
      "v": 112
    },
    {
      "midi": 62,
      "hit": false,
      "t": 49157.64609375005,
      "d": 288.4556250000023,
      "v": 112
    },
    {
      "midi": 69,
      "hit": false,
      "t": 49157.64609375005,
      "d": 288.4556250000023,
      "v": 112
    },
    {
      "midi": 65,
      "hit": false,
      "t": 49157.64609375005,
      "d": 293.26321875000576,
      "v": 112
    },
    {
      "midi": 57,
      "hit": false,
      "t": 49157.64609375005,
      "d": 298.0708125000092,
      "v": 112
    },
    {
      "midi": 65,
      "hit": false,
      "t": 49619.17509375006,
      "d": 524.0277187500033,
      "v": 112
    },
    {
      "midi": 62,
      "hit": false,
      "t": 49619.17509375006,
      "d": 528.8353125000067,
      "v": 112
    },
    {
      "midi": 57,
      "hit": false,
      "t": 49619.17509375006,
      "d": 538.4505000000063,
      "v": 112
    },
    {
      "midi": 69,
      "hit": false,
      "t": 49619.17509375006,
      "d": 548.0656875000059,
      "v": 112
    },
    {
      "midi": 62,
      "hit": false,
      "t": 50080.70409375004,
      "d": 201.91893749999872,
      "v": 112
    },
    {
      "midi": 69,
      "hit": false,
      "t": 50080.70409375004,
      "d": 201.91893749999872,
      "v": 112
    },
    {
      "midi": 65,
      "hit": false,
      "t": 50080.70409375004,
      "d": 206.72653125000215,
      "v": 112
    },
    {
      "midi": 57,
      "hit": false,
      "t": 50311.46859375007,
      "d": 509.60493750000023,
      "v": 112
    },
    {
      "midi": 62,
      "hit": false,
      "t": 50311.46859375007,
      "d": 514.4125312500037,
      "v": 112
    },
    {
      "midi": 65,
      "hit": false,
      "t": 50311.46859375007,
      "d": 514.4125312500037,
      "v": 112
    },
    {
      "midi": 69,
      "hit": false,
      "t": 50311.46859375007,
      "d": 519.2201250000071,
      "v": 112
    },
    {
      "midi": 69,
      "hit": false,
      "t": 50772.99759375004,
      "d": 605.7568125000034,
      "v": 112
    },
    {
      "midi": 65,
      "hit": false,
      "t": 50772.99759375004,
      "d": 624.9871875000026,
      "v": 112
    },
    {
      "midi": 62,
      "hit": false,
      "t": 50777.805187500046,
      "d": 600.94921875,
      "v": 112
    },
    {
      "midi": 62,
      "hit": false,
      "t": 51003.762093750076,
      "d": 326.9163750000007,
      "v": 112
    },
    {
      "midi": 69,
      "hit": false,
      "t": 51003.762093750076,
      "d": 423.0682500000039,
      "v": 112
    },
    {
      "midi": 65,
      "hit": false,
      "t": 51003.762093750076,
      "d": 442.2986250000031,
      "v": 112
    },
    {
      "midi": 57,
      "hit": false,
      "t": 51003.762093750076,
      "d": 528.8353124999994,
      "v": 112
    },
    {
      "midi": 62,
      "hit": false,
      "t": 51465.29109375008,
      "d": 86.53668749999633,
      "v": 112
    },
    {
      "midi": 58,
      "hit": false,
      "t": 51696.055593750076,
      "d": 947.0959687499999,
      "v": 112
    },
    {
      "midi": 67,
      "hit": false,
      "t": 51696.055593750076,
      "d": 947.0959687499999,
      "v": 112
    },
    {
      "midi": 63,
      "hit": false,
      "t": 51696.055593750076,
      "d": 975.9415312499987,
      "v": 112
    },
    {
      "midi": 70,
      "hit": false,
      "t": 51696.055593750076,
      "d": 980.7491250000021,
      "v": 112
    },
    {
      "midi": 58,
      "hit": false,
      "t": 51926.820093750044,
      "d": 302.8784062499981,
      "v": 112
    },
    {
      "midi": 63,
      "hit": false,
      "t": 51926.820093750044,
      "d": 322.10878124999726,
      "v": 112
    },
    {
      "midi": 70,
      "hit": false,
      "t": 51926.820093750044,
      "d": 322.10878124999726,
      "v": 112
    },
    {
      "midi": 63,
      "hit": false,
      "t": 52619.113593750044,
      "d": 649.025156249998,
      "v": 112
    },
    {
      "midi": 70,
      "hit": false,
      "t": 52619.113593750044,
      "d": 687.4859062499963,
      "v": 112
    },
    {
      "midi": 58,
      "hit": false,
      "t": 52619.113593750044,
      "d": 754.7922187499935,
      "v": 112
    },
    {
      "midi": 58,
      "hit": false,
      "t": 52849.87809375008,
      "d": 302.8784062499981,
      "v": 112
    },
    {
      "midi": 63,
      "hit": false,
      "t": 52849.87809375008,
      "d": 307.6860000000015,
      "v": 112
    },
    {
      "midi": 67,
      "hit": false,
      "t": 52849.87809375008,
      "d": 331.72396875000413,
      "v": 112
    },
    {
      "midi": 70,
      "hit": false,
      "t": 52849.87809375008,
      "d": 336.53156250000757,
      "v": 112
    },
    {
      "midi": 62,
      "hit": false,
      "t": 53542.171593750085,
      "d": 947.0959687499999,
      "v": 112
    },
    {
      "midi": 58,
      "hit": false,
      "t": 53542.171593750085,
      "d": 966.3263437499991,
      "v": 112
    },
    {
      "midi": 65,
      "hit": false,
      "t": 53542.171593750085,
      "d": 966.3263437499991,
      "v": 112
    },
    {
      "midi": 70,
      "hit": false,
      "t": 53542.171593750085,
      "d": 966.3263437499991,
      "v": 112
    },
    {
      "midi": 58,
      "hit": false,
      "t": 53772.93609375004,
      "d": 341.33915624999645,
      "v": 112
    },
    {
      "midi": 62,
      "hit": false,
      "t": 53772.93609375004,
      "d": 341.33915624999645,
      "v": 112
    },
    {
      "midi": 65,
      "hit": false,
      "t": 53772.93609375004,
      "d": 346.1467499999999,
      "v": 112
    },
    {
      "midi": 70,
      "hit": false,
      "t": 53772.93609375004,
      "d": 346.1467499999999,
      "v": 112
    },
    {
      "midi": 62,
      "hit": false,
      "t": 54465.22959375004,
      "d": 644.2175625000018,
      "v": 112
    },
    {
      "midi": 65,
      "hit": false,
      "t": 54465.22959375004,
      "d": 644.2175625000018,
      "v": 112
    },
    {
      "midi": 70,
      "hit": false,
      "t": 54465.22959375004,
      "d": 692.2934999999998,
      "v": 112
    },
    {
      "midi": 58,
      "hit": false,
      "t": 54470.03718750004,
      "d": 586.526437499997,
      "v": 112
    },
    {
      "midi": 65,
      "hit": false,
      "t": 54695.99409375009,
      "d": 259.61006250000355,
      "v": 112
    },
    {
      "midi": 62,
      "hit": false,
      "t": 54695.99409375009,
      "d": 264.417656250007,
      "v": 112
    },
    {
      "midi": 58,
      "hit": false,
      "t": 54695.99409375009,
      "d": 274.0328437500066,
      "v": 112
    },
    {
      "midi": 70,
      "hit": false,
      "t": 54695.99409375009,
      "d": 322.10878125000454,
      "v": 112
    },
    {
      "midi": 60,
      "hit": false,
      "t": 55388.287593750094,
      "d": 985.5567187499983,
      "v": 112
    },
    {
      "midi": 72,
      "hit": false,
      "t": 55388.287593750094,
      "d": 999.9795000000013,
      "v": 112
    },
    {
      "midi": 65,
      "hit": false,
      "t": 55388.287593750094,
      "d": 1009.5946875000009,
      "v": 112
    },
    {
      "midi": 67,
      "hit": false,
      "t": 55388.287593750094,
      "d": 1024.017468750004,
      "v": 112
    },
    {
      "midi": 60,
      "hit": false,
      "t": 55619.05209375004,
      "d": 360.5695312500029,
      "v": 112
    },
    {
      "midi": 65,
      "hit": false,
      "t": 55619.05209375004,
      "d": 374.99231250000594,
      "v": 112
    },
    {
      "midi": 67,
      "hit": false,
      "t": 55619.05209375004,
      "d": 374.99231250000594,
      "v": 112
    },
    {
      "midi": 72,
      "hit": false,
      "t": 55619.05209375004,
      "d": 379.79990625000937,
      "v": 112
    },
    {
      "midi": 60,
      "hit": false,
      "t": 56311.34559375005,
      "d": 524.0277187500033,
      "v": 112
    },
    {
      "midi": 65,
      "hit": false,
      "t": 56311.34559375005,
      "d": 524.0277187500033,
      "v": 112
    },
    {
      "midi": 67,
      "hit": false,
      "t": 56311.34559375005,
      "d": 543.2580937500024,
      "v": 112
    },
    {
      "midi": 72,
      "hit": false,
      "t": 56316.15318750005,
      "d": 538.450499999999,
      "v": 112
    },
    {
      "midi": 60,
      "hit": false,
      "t": 56542.110093750096,
      "d": 312.4935937499977,
      "v": 112
    },
    {
      "midi": 65,
      "hit": false,
      "t": 56542.110093750096,
      "d": 360.56953124999563,
      "v": 112
    },
    {
      "midi": 67,
      "hit": false,
      "t": 56542.110093750096,
      "d": 360.56953124999563,
      "v": 112
    },
    {
      "midi": 72,
      "hit": false,
      "t": 56542.110093750096,
      "d": 374.99231249999866,
      "v": 112
    },
    {
      "midi": 60,
      "hit": false,
      "t": 57234.403593750096,
      "d": 134.61262500000157,
      "v": 112
    },
    {
      "midi": 72,
      "hit": false,
      "t": 57234.403593750096,
      "d": 182.68856249999953,
      "v": 112
    },
    {
      "midi": 67,
      "hit": false,
      "t": 57234.403593750096,
      "d": 197.11134375000256,
      "v": 112
    },
    {
      "midi": 64,
      "hit": false,
      "t": 57234.403593750096,
      "d": 225.95690625000134,
      "v": 112
    },
    {
      "midi": 72,
      "hit": false,
      "t": 57239.21118750005,
      "d": 225.95690625000861,
      "v": 112
    },
    {
      "midi": 67,
      "hit": false,
      "t": 57239.21118750005,
      "d": 245.1872812500078,
      "v": 112
    },
    {
      "midi": 64,
      "hit": false,
      "t": 57239.21118750005,
      "d": 259.6100625000108,
      "v": 112
    },
    {
      "midi": 60,
      "hit": false,
      "t": 57244.01878125005,
      "d": 206.72653125000215,
      "v": 112
    },
    {
      "midi": 48,
      "hit": false,
      "t": 57921.8895000001,
      "d": 225.95690625000134,
      "v": 112
    },
    {
      "midi": 60,
      "hit": false,
      "t": 57926.69709375006,
      "d": 134.61262500000157,
      "v": 112
    },
    {
      "midi": 64,
      "hit": false,
      "t": 57926.69709375006,
      "d": 163.45818750000035,
      "v": 112
    },
    {
      "midi": 60,
      "hit": false,
      "t": 57926.6970937501,
      "d": 129.80503124999814,
      "v": 112
    },
    {
      "midi": 64,
      "hit": false,
      "t": 57926.6970937501,
      "d": 192.30374999999913,
      "v": 112
    },
    {
      "midi": 62,
      "hit": false,
      "t": 58157.46159375006,
      "d": 317.3011875000011,
      "v": 112
    },
    {
      "midi": 62,
      "hit": false,
      "t": 58157.4615937501,
      "d": 365.37712499999907,
      "v": 112
    },
    {
      "midi": 65,
      "hit": false,
      "t": 58157.4615937501,
      "d": 418.26065625000047,
      "v": 112
    },
    {
      "midi": 50,
      "hit": false,
      "t": 58157.4615937501,
      "d": 432.6834375000035,
      "v": 112
    },
    {
      "midi": 65,
      "hit": false,
      "t": 58162.26918750006,
      "d": 336.5315625000003,
      "v": 112
    },
    {
      "midi": 64,
      "hit": false,
      "t": 58618.99059375006,
      "d": 240.3796874999971,
      "v": 112
    },
    {
      "midi": 67,
      "hit": false,
      "t": 58618.99059375006,
      "d": 245.18728125000052,
      "v": 112
    },
    {
      "midi": 64,
      "hit": false,
      "t": 58618.9905937501,
      "d": 365.37712499999907,
      "v": 112
    },
    {
      "midi": 67,
      "hit": false,
      "t": 58618.9905937501,
      "d": 413.45306249999703,
      "v": 112
    },
    {
      "midi": 52,
      "hit": false,
      "t": 58618.9905937501,
      "d": 427.87584375000006,
      "v": 112
    },
    {
      "midi": 29,
      "hit": false,
      "t": 59080.519593750105,
      "d": 81.72909375000017,
      "v": 112
    },
    {
      "midi": 53,
      "hit": false,
      "t": 59080.519593750105,
      "d": 86.53668750000361,
      "v": 112
    },
    {
      "midi": 60,
      "hit": false,
      "t": 59085.32718750006,
      "d": 62.49871875000099,
      "v": 112
    },
    {
      "midi": 65,
      "hit": false,
      "t": 59085.32718750006,
      "d": 62.49871875000099,
      "v": 112
    },
    {
      "midi": 69,
      "hit": false,
      "t": 59085.32718750006,
      "d": 67.30631250000442,
      "v": 112
    },
    {
      "midi": 65,
      "hit": false,
      "t": 59085.32718750011,
      "d": 76.92149999999674,
      "v": 112
    },
    {
      "midi": 60,
      "hit": false,
      "t": 59085.32718750011,
      "d": 81.72909375000017,
      "v": 112
    },
    {
      "midi": 69,
      "hit": false,
      "t": 59085.32718750011,
      "d": 81.72909375000017,
      "v": 112
    },
    {
      "midi": 29,
      "hit": false,
      "t": 59311.28409375011,
      "d": 81.72909375000745,
      "v": 112
    },
    {
      "midi": 60,
      "hit": false,
      "t": 59311.28409375011,
      "d": 96.15187500001048,
      "v": 112
    },
    {
      "midi": 65,
      "hit": false,
      "t": 59311.28409375011,
      "d": 96.15187500001048,
      "v": 112
    },
    {
      "midi": 69,
      "hit": false,
      "t": 59311.28409375011,
      "d": 96.15187500001048,
      "v": 112
    },
    {
      "midi": 60,
      "hit": false,
      "t": 59316.09168750006,
      "d": 72.11390625000058,
      "v": 112
    },
    {
      "midi": 65,
      "hit": false,
      "t": 59316.09168750006,
      "d": 72.11390625000058,
      "v": 112
    },
    {
      "midi": 69,
      "hit": false,
      "t": 59316.09168750006,
      "d": 72.11390625000058,
      "v": 112
    },
    {
      "midi": 53,
      "hit": false,
      "t": 59316.09168750011,
      "d": 43.268343750001804,
      "v": 112
    },
    {
      "midi": 65,
      "hit": false,
      "t": 59657.430843750066,
      "d": 67.30631250000442,
      "v": 112
    },
    {
      "midi": 60,
      "hit": false,
      "t": 59657.430843750066,
      "d": 72.11390625000786,
      "v": 112
    },
    {
      "midi": 29,
      "hit": false,
      "t": 59657.43084375012,
      "d": 81.72909375000017,
      "v": 112
    },
    {
      "midi": 53,
      "hit": false,
      "t": 59657.43084375012,
      "d": 81.72909375000017,
      "v": 112
    },
    {
      "midi": 65,
      "hit": false,
      "t": 59657.43084375012,
      "d": 86.53668750000361,
      "v": 112
    },
    {
      "midi": 60,
      "hit": false,
      "t": 59657.43084375012,
      "d": 100.95946875000664,
      "v": 112
    },
    {
      "midi": 69,
      "hit": false,
      "t": 59657.43084375012,
      "d": 100.95946875000664,
      "v": 112
    },
    {
      "midi": 69,
      "hit": false,
      "t": 59662.23843750007,
      "d": 67.30631250000442,
      "v": 112
    },
    {
      "midi": 29,
      "hit": false,
      "t": 59888.19534375012,
      "d": 62.49871875000099,
      "v": 112
    },
    {
      "midi": 53,
      "hit": false,
      "t": 60003.577593750124,
      "d": 81.72909375000017,
      "v": 112
    },
    {
      "midi": 69,
      "hit": false,
      "t": 60003.577593750124,
      "d": 105.7670625000028,
      "v": 112
    },
    {
      "midi": 29,
      "hit": false,
      "t": 60003.577593750124,
      "d": 120.18984375000582,
      "v": 112
    },
    {
      "midi": 65,
      "hit": false,
      "t": 60008.38518750008,
      "d": 62.49871875000099,
      "v": 112
    },
    {
      "midi": 60,
      "hit": false,
      "t": 60008.38518750008,
      "d": 81.72909375000017,
      "v": 112
    },
    {
      "midi": 69,
      "hit": false,
      "t": 60008.38518750008,
      "d": 81.72909375000017,
      "v": 112
    },
    {
      "midi": 60,
      "hit": false,
      "t": 60008.38518750013,
      "d": 96.15187499999593,
      "v": 112
    },
    {
      "midi": 65,
      "hit": false,
      "t": 60008.38518750013,
      "d": 96.15187499999593,
      "v": 112
    },
    {
      "midi": 29,
      "hit": false,
      "t": 60695.87109375013,
      "d": 62.49871875000099,
      "v": 112
    },
    {
      "midi": 31,
      "hit": false,
      "t": 60811.25334375013,
      "d": 72.11390625000058,
      "v": 112
    },
    {
      "midi": 33,
      "hit": false,
      "t": 60926.635593750136,
      "d": 91.34428125000704,
      "v": 112
    },
    {
      "midi": 60,
      "hit": false,
      "t": 60926.635593750136,
      "d": 96.15187500001048,
      "v": 112
    },
    {
      "midi": 60,
      "hit": false,
      "t": 60931.443187500074,
      "d": 57.691124999997555,
      "v": 112
    },
    {
      "midi": 64,
      "hit": false,
      "t": 60931.443187500074,
      "d": 57.691124999997555,
      "v": 112
    },
    {
      "midi": 67,
      "hit": false,
      "t": 60931.443187500074,
      "d": 57.691124999997555,
      "v": 112
    },
    {
      "midi": 67,
      "hit": false,
      "t": 60931.44318750014,
      "d": 72.11390625000058,
      "v": 112
    },
    {
      "midi": 64,
      "hit": false,
      "t": 60931.44318750014,
      "d": 91.34428125000704,
      "v": 112
    },
    {
      "midi": 57,
      "hit": false,
      "t": 60931.44318750014,
      "d": 110.57465625000623,
      "v": 112
    },
    {
      "midi": 33,
      "hit": false,
      "t": 61157.40009375015,
      "d": 81.72909375000017,
      "v": 112
    },
    {
      "midi": 60,
      "hit": false,
      "t": 61157.40009375015,
      "d": 86.53668750000361,
      "v": 112
    },
    {
      "midi": 64,
      "hit": false,
      "t": 61157.40009375015,
      "d": 91.34428125000704,
      "v": 112
    },
    {
      "midi": 57,
      "hit": false,
      "t": 61157.40009375015,
      "d": 96.15187500001048,
      "v": 112
    },
    {
      "midi": 67,
      "hit": false,
      "t": 61157.40009375015,
      "d": 96.15187500001048,
      "v": 112
    },
    {
      "midi": 60,
      "hit": false,
      "t": 61162.20768750007,
      "d": 72.11390625000058,
      "v": 112
    },
    {
      "midi": 67,
      "hit": false,
      "t": 61162.20768750007,
      "d": 72.11390625000058,
      "v": 112
    },
    {
      "midi": 64,
      "hit": false,
      "t": 61162.20768750007,
      "d": 76.92150000000402,
      "v": 112
    },
    {
      "midi": 64,
      "hit": false,
      "t": 61503.546843750075,
      "d": 72.11390625000058,
      "v": 112
    },
    {
      "midi": 67,
      "hit": false,
      "t": 61503.546843750075,
      "d": 76.92150000000402,
      "v": 112
    },
    {
      "midi": 60,
      "hit": false,
      "t": 61503.546843750155,
      "d": 86.53668750000361,
      "v": 112
    },
    {
      "midi": 64,
      "hit": false,
      "t": 61503.546843750155,
      "d": 86.53668750000361,
      "v": 112
    },
    {
      "midi": 57,
      "hit": false,
      "t": 61503.546843750155,
      "d": 91.34428125000704,
      "v": 112
    },
    {
      "midi": 67,
      "hit": false,
      "t": 61503.546843750155,
      "d": 110.57465625000623,
      "v": 112
    },
    {
      "midi": 33,
      "hit": false,
      "t": 61503.546843750155,
      "d": 120.18984375000582,
      "v": 112
    },
    {
      "midi": 60,
      "hit": false,
      "t": 61508.35443750008,
      "d": 67.30631249999715,
      "v": 112
    },
    {
      "midi": 33,
      "hit": false,
      "t": 61734.31134375016,
      "d": 67.30631249999715,
      "v": 112
    },
    {
      "midi": 67,
      "hit": false,
      "t": 61849.693593750155,
      "d": 115.38225000000239,
      "v": 112
    },
    {
      "midi": 33,
      "hit": false,
      "t": 61849.693593750155,
      "d": 149.0354062500046,
      "v": 112
    },
    {
      "midi": 64,
      "hit": false,
      "t": 61854.50118750008,
      "d": 62.49871875000099,
      "v": 112
    },
    {
      "midi": 60,
      "hit": false,
      "t": 61854.50118750008,
      "d": 67.30631250000442,
      "v": 112
    },
    {
      "midi": 67,
      "hit": false,
      "t": 61854.50118750008,
      "d": 67.30631250000442,
      "v": 112
    },
    {
      "midi": 57,
      "hit": false,
      "t": 61854.50118750016,
      "d": 91.34428124999977,
      "v": 112
    },
    {
      "midi": 60,
      "hit": false,
      "t": 61854.50118750016,
      "d": 91.34428124999977,
      "v": 112
    },
    {
      "midi": 64,
      "hit": false,
      "t": 61854.50118750016,
      "d": 91.34428124999977,
      "v": 112
    },
    {
      "midi": 62,
      "hit": false,
      "t": 62772.75159375016,
      "d": 96.15187500001048,
      "v": 112
    },
    {
      "midi": 34,
      "hit": false,
      "t": 62772.75159375016,
      "d": 110.5746562500135,
      "v": 112
    },
    {
      "midi": 58,
      "hit": false,
      "t": 62777.55918750008,
      "d": 57.691124999997555,
      "v": 112
    },
    {
      "midi": 62,
      "hit": false,
      "t": 62777.55918750008,
      "d": 57.691124999997555,
      "v": 112
    },
    {
      "midi": 65,
      "hit": false,
      "t": 62777.55918750008,
      "d": 57.691124999997555,
      "v": 112
    },
    {
      "midi": 58,
      "hit": false,
      "t": 62777.55918750016,
      "d": 86.53668750000361,
      "v": 112
    },
    {
      "midi": 65,
      "hit": false,
      "t": 62777.55918750016,
      "d": 86.53668750000361,
      "v": 112
    },
    {
      "midi": 58,
      "hit": false,
      "t": 63003.51609375017,
      "d": 81.72909375000017,
      "v": 112
    },
    {
      "midi": 62,
      "hit": false,
      "t": 63003.51609375017,
      "d": 81.72909375000017,
      "v": 112
    },
    {
      "midi": 65,
      "hit": false,
      "t": 63003.51609375017,
      "d": 81.72909375000017,
      "v": 112
    },
    {
      "midi": 34,
      "hit": false,
      "t": 63003.51609375017,
      "d": 100.95946874999936,
      "v": 112
    },
    {
      "midi": 58,
      "hit": false,
      "t": 63008.32368750008,
      "d": 67.30631249999715,
      "v": 112
    },
    {
      "midi": 65,
      "hit": false,
      "t": 63008.32368750008,
      "d": 67.30631249999715,
      "v": 112
    },
    {
      "midi": 62,
      "hit": false,
      "t": 63008.32368750008,
      "d": 72.11390625000058,
      "v": 112
    },
    {
      "midi": 34,
      "hit": false,
      "t": 63344.85525000017,
      "d": 105.7670625000028,
      "v": 112
    },
    {
      "midi": 58,
      "hit": false,
      "t": 63349.662843750084,
      "d": 67.30631249999715,
      "v": 112
    },
    {
      "midi": 62,
      "hit": false,
      "t": 63349.662843750084,
      "d": 67.30631249999715,
      "v": 112
    },
    {
      "midi": 65,
      "hit": false,
      "t": 63349.662843750084,
      "d": 72.11390625000058,
      "v": 112
    },
    {
      "midi": 58,
      "hit": false,
      "t": 63349.66284375017,
      "d": 72.11390625000058,
      "v": 112
    },
    {
      "midi": 62,
      "hit": false,
      "t": 63349.66284375017,
      "d": 72.11390625000058,
      "v": 112
    },
    {
      "midi": 65,
      "hit": false,
      "t": 63349.66284375017,
      "d": 91.34428124999977,
      "v": 112
    },
    {
      "midi": 58,
      "hit": false,
      "t": 63580.42734375008,
      "d": 62.49871875000099,
      "v": 112
    },
    {
      "midi": 62,
      "hit": false,
      "t": 63580.42734375008,
      "d": 72.11390625000058,
      "v": 112
    },
    {
      "midi": 34,
      "hit": false,
      "t": 63580.42734375017,
      "d": 48.07593749999796,
      "v": 112
    },
    {
      "midi": 65,
      "hit": false,
      "t": 63585.234937500085,
      "d": 72.11390625000058,
      "v": 112
    },
    {
      "midi": 62,
      "hit": false,
      "t": 63695.809593750164,
      "d": 91.34428125000704,
      "v": 112
    },
    {
      "midi": 65,
      "hit": false,
      "t": 63695.809593750164,
      "d": 91.34428125000704,
      "v": 112
    },
    {
      "midi": 34,
      "hit": false,
      "t": 63695.809593750164,
      "d": 124.99743750000926,
      "v": 112
    },
    {
      "midi": 58,
      "hit": false,
      "t": 63700.61718750009,
      "d": 72.11390625000058,
      "v": 112
    },
    {
      "midi": 65,
      "hit": false,
      "t": 63700.61718750009,
      "d": 72.11390625000058,
      "v": 112
    },
    {
      "midi": 62,
      "hit": false,
      "t": 63700.61718750009,
      "d": 76.92150000000402,
      "v": 112
    },
    {
      "midi": 58,
      "hit": false,
      "t": 63700.61718750017,
      "d": 72.11390625000058,
      "v": 112
    },
    {
      "midi": 34,
      "hit": false,
      "t": 64388.10309375017,
      "d": 48.07593749999796,
      "v": 112
    },
    {
      "midi": 34,
      "hit": false,
      "t": 64503.485343750166,
      "d": 62.49871875000099,
      "v": 112
    },
    {
      "midi": 58,
      "hit": false,
      "t": 64618.86759375017,
      "d": 76.92150000000402,
      "v": 112
    },
    {
      "midi": 62,
      "hit": false,
      "t": 64618.86759375017,
      "d": 76.92150000000402,
      "v": 112
    },
    {
      "midi": 34,
      "hit": false,
      "t": 64618.86759375017,
      "d": 91.34428125000704,
      "v": 112
    },
    {
      "midi": 58,
      "hit": false,
      "t": 64623.67518750009,
      "d": 57.691124999997555,
      "v": 112
    },
    {
      "midi": 65,
      "hit": false,
      "t": 64623.67518750009,
      "d": 62.49871875000099,
      "v": 112
    },
    {
      "midi": 62,
      "hit": false,
      "t": 64623.67518750009,
      "d": 76.92150000000402,
      "v": 112
    },
    {
      "midi": 65,
      "hit": false,
      "t": 64623.67518750017,
      "d": 91.34428125000704,
      "v": 112
    },
    {
      "midi": 34,
      "hit": false,
      "t": 64849.63209375018,
      "d": 72.11390625000058,
      "v": 112
    },
    {
      "midi": 58,
      "hit": false,
      "t": 64849.63209375018,
      "d": 86.53668750000361,
      "v": 112
    },
    {
      "midi": 62,
      "hit": false,
      "t": 64849.63209375018,
      "d": 86.53668750000361,
      "v": 112
    },
    {
      "midi": 65,
      "hit": false,
      "t": 64849.63209375018,
      "d": 91.34428125000704,
      "v": 112
    },
    {
      "midi": 58,
      "hit": false,
      "t": 64854.4396875001,
      "d": 72.11390625000058,
      "v": 112
    },
    {
      "midi": 65,
      "hit": false,
      "t": 64854.4396875001,
      "d": 72.11390625000058,
      "v": 112
    },
    {
      "midi": 62,
      "hit": false,
      "t": 64854.4396875001,
      "d": 76.92150000000402,
      "v": 112
    },
    {
      "midi": 58,
      "hit": false,
      "t": 65195.7788437501,
      "d": 76.92150000000402,
      "v": 112
    },
    {
      "midi": 65,
      "hit": false,
      "t": 65195.7788437501,
      "d": 76.92150000000402,
      "v": 112
    },
    {
      "midi": 58,
      "hit": false,
      "t": 65195.77884375019,
      "d": 72.11390625000058,
      "v": 112
    },
    {
      "midi": 62,
      "hit": false,
      "t": 65195.77884375019,
      "d": 72.11390625000058,
      "v": 112
    },
    {
      "midi": 65,
      "hit": false,
      "t": 65195.77884375019,
      "d": 72.11390625000058,
      "v": 112
    },
    {
      "midi": 34,
      "hit": false,
      "t": 65195.77884375019,
      "d": 124.99743750000198,
      "v": 112
    },
    {
      "midi": 62,
      "hit": false,
      "t": 65200.586437500104,
      "d": 72.11390625000058,
      "v": 112
    },
    {
      "midi": 58,
      "hit": false,
      "t": 65426.543343750105,
      "d": 72.11390625000058,
      "v": 112
    },
    {
      "midi": 62,
      "hit": false,
      "t": 65426.543343750105,
      "d": 72.11390625000058,
      "v": 112
    },
    {
      "midi": 65,
      "hit": false,
      "t": 65426.543343750105,
      "d": 76.92150000000402,
      "v": 112
    },
    {
      "midi": 34,
      "hit": false,
      "t": 65426.54334375019,
      "d": 57.691124999997555,
      "v": 112
    },
    {
      "midi": 58,
      "hit": false,
      "t": 65541.92559375019,
      "d": 86.53668749998906,
      "v": 112
    },
    {
      "midi": 65,
      "hit": false,
      "t": 65541.92559375019,
      "d": 105.76706249998824,
      "v": 112
    },
    {
      "midi": 34,
      "hit": false,
      "t": 65541.92559375019,
      "d": 120.18984374999127,
      "v": 112
    },
    {
      "midi": 58,
      "hit": false,
      "t": 65546.73318750011,
      "d": 76.92149999999674,
      "v": 112
    },
    {
      "midi": 62,
      "hit": false,
      "t": 65546.73318750011,
      "d": 76.92149999999674,
      "v": 112
    },
    {
      "midi": 65,
      "hit": false,
      "t": 65546.73318750011,
      "d": 76.92149999999674,
      "v": 112
    },
    {
      "midi": 62,
      "hit": false,
      "t": 65546.73318750018,
      "d": 81.7290937499929,
      "v": 112
    },
    {
      "midi": 65,
      "hit": false,
      "t": 66464.98359375018,
      "d": 76.92149999999674,
      "v": 112
    },
    {
      "midi": 69,
      "hit": false,
      "t": 66464.98359375018,
      "d": 76.92149999999674,
      "v": 112
    },
    {
      "midi": 29,
      "hit": false,
      "t": 66464.98359375018,
      "d": 96.15187499999593,
      "v": 112
    },
    {
      "midi": 57,
      "hit": false,
      "t": 66469.7911875001,
      "d": 52.8835312500014,
      "v": 112
    },
    {
      "midi": 65,
      "hit": false,
      "t": 66469.7911875001,
      "d": 52.8835312500014,
      "v": 112
    },
    {
      "midi": 60,
      "hit": false,
      "t": 66469.7911875001,
      "d": 76.92149999999674,
      "v": 112
    },
    {
      "midi": 60,
      "hit": false,
      "t": 66469.79118750017,
      "d": 72.11390625000058,
      "v": 112
    },
    {
      "midi": 57,
      "hit": false,
      "t": 66469.79118750017,
      "d": 76.92149999999674,
      "v": 112
    },
    {
      "midi": 29,
      "hit": false,
      "t": 66695.74809375017,
      "d": 96.15187499999593,
      "v": 112
    },
    {
      "midi": 57,
      "hit": false,
      "t": 66695.74809375017,
      "d": 96.15187499999593,
      "v": 112
    },
    {
      "midi": 60,
      "hit": false,
      "t": 66695.74809375017,
      "d": 100.95946874999208,
      "v": 112
    },
    {
      "midi": 65,
      "hit": false,
      "t": 66695.74809375017,
      "d": 100.95946874999208,
      "v": 112
    },
    {
      "midi": 69,
      "hit": false,
      "t": 66695.74809375017,
      "d": 100.95946874999208,
      "v": 112
    },
    {
      "midi": 60,
      "hit": false,
      "t": 66700.55568750009,
      "d": 33.65315625000221,
      "v": 112
    },
    {
      "midi": 65,
      "hit": false,
      "t": 66700.55568750009,
      "d": 62.498718750008265,
      "v": 112
    },
    {
      "midi": 57,
      "hit": false,
      "t": 66700.55568750009,
      "d": 86.53668750000361,
      "v": 112
    },
    {
      "midi": 60,
      "hit": false,
      "t": 67041.8948437501,
      "d": 91.34428124998522,
      "v": 112
    },
    {
      "midi": 60,
      "hit": false,
      "t": 67041.89484375015,
      "d": 52.8835312500014,
      "v": 112
    },
    {
      "midi": 65,
      "hit": false,
      "t": 67041.89484375015,
      "d": 57.691124999997555,
      "v": 112
    },
    {
      "midi": 69,
      "hit": false,
      "t": 67041.89484375015,
      "d": 57.691124999997555,
      "v": 112
    },
    {
      "midi": 29,
      "hit": false,
      "t": 67041.89484375015,
      "d": 96.15187499999593,
      "v": 112
    },
    {
      "midi": 57,
      "hit": false,
      "t": 67041.89484375015,
      "d": 100.95946874999208,
      "v": 112
    },
    {
      "midi": 57,
      "hit": false,
      "t": 67046.70243750009,
      "d": 62.498718749993714,
      "v": 112
    },
    {
      "midi": 65,
      "hit": false,
      "t": 67046.70243750009,
      "d": 62.498718749993714,
      "v": 112
    },
    {
      "midi": 65,
      "hit": false,
      "t": 67272.65934375009,
      "d": 38.46074999999837,
      "v": 112
    },
    {
      "midi": 57,
      "hit": false,
      "t": 67272.65934375009,
      "d": 76.92149999999674,
      "v": 112
    },
    {
      "midi": 60,
      "hit": false,
      "t": 67272.65934375009,
      "d": 76.92149999999674,
      "v": 112
    },
    {
      "midi": 29,
      "hit": false,
      "t": 67272.65934375014,
      "d": 62.498718749993714,
      "v": 112
    },
    {
      "midi": 57,
      "hit": false,
      "t": 67388.04159375014,
      "d": 91.34428124999977,
      "v": 112
    },
    {
      "midi": 69,
      "hit": false,
      "t": 67388.04159375014,
      "d": 96.15187499999593,
      "v": 112
    },
    {
      "midi": 29,
      "hit": false,
      "t": 67388.04159375014,
      "d": 105.7670625000028,
      "v": 112
    },
    {
      "midi": 57,
      "hit": false,
      "t": 67392.84918750008,
      "d": 67.30631250000442,
      "v": 112
    },
    {
      "midi": 60,
      "hit": false,
      "t": 67392.84918750008,
      "d": 67.30631250000442,
      "v": 112
    },
    {
      "midi": 65,
      "hit": false,
      "t": 67392.84918750008,
      "d": 72.11390625000058,
      "v": 112
    },
    {
      "midi": 65,
      "hit": false,
      "t": 67392.84918750013,
      "d": 86.53668750000361,
      "v": 112
    },
    {
      "midi": 60,
      "hit": false,
      "t": 67392.84918750013,
      "d": 91.34428124999977,
      "v": 112
    },
    {
      "midi": 29,
      "hit": false,
      "t": 68080.33509375014,
      "d": 76.92149999999674,
      "v": 112
    },
    {
      "midi": 31,
      "hit": false,
      "t": 68195.71734375013,
      "d": 86.53668750000361,
      "v": 112
    },
    {
      "midi": 33,
      "hit": false,
      "t": 68311.09959375014,
      "d": 91.34428124998522,
      "v": 112
    },
    {
      "midi": 67,
      "hit": false,
      "t": 68311.09959375014,
      "d": 91.34428124998522,
      "v": 112
    },
    {
      "midi": 64,
      "hit": false,
      "t": 68315.90718750008,
      "d": 33.65315625000221,
      "v": 112
    },
    {
      "midi": 67,
      "hit": false,
      "t": 68315.90718750008,
      "d": 33.65315625000221,
      "v": 112
    },
    {
      "midi": 60,
      "hit": false,
      "t": 68315.90718750008,
      "d": 38.46074999999837,
      "v": 112
    },
    {
      "midi": 57,
      "hit": false,
      "t": 68315.90718750008,
      "d": 57.691124999997555,
      "v": 112
    },
    {
      "midi": 60,
      "hit": false,
      "t": 68315.90718750014,
      "d": 76.92149999999674,
      "v": 112
    },
    {
      "midi": 57,
      "hit": false,
      "t": 68315.90718750014,
      "d": 81.7290937499929,
      "v": 112
    },
    {
      "midi": 64,
      "hit": false,
      "t": 68315.90718750014,
      "d": 81.7290937499929,
      "v": 112
    },
    {
      "midi": 60,
      "hit": false,
      "t": 68541.86409375013,
      "d": 48.07593750000524,
      "v": 112
    },
    {
      "midi": 64,
      "hit": false,
      "t": 68541.86409375013,
      "d": 48.07593750000524,
      "v": 112
    },
    {
      "midi": 33,
      "hit": false,
      "t": 68541.86409375013,
      "d": 81.72909375000745,
      "v": 112
    },
    {
      "midi": 57,
      "hit": false,
      "t": 68541.86409375013,
      "d": 91.34428125001432,
      "v": 112
    },
    {
      "midi": 67,
      "hit": false,
      "t": 68541.86409375013,
      "d": 91.34428125001432,
      "v": 112
    },
    {
      "midi": 57,
      "hit": false,
      "t": 68546.67168750009,
      "d": 48.07593750000524,
      "v": 112
    },
    {
      "midi": 60,
      "hit": false,
      "t": 68546.67168750009,
      "d": 48.07593750000524,
      "v": 112
    },
    {
      "midi": 64,
      "hit": false,
      "t": 68546.67168750009,
      "d": 48.07593750000524,
      "v": 112
    },
    {
      "midi": 67,
      "hit": false,
      "t": 68546.67168750009,
      "d": 48.07593750000524,
      "v": 112
    },
    {
      "midi": 60,
      "hit": false,
      "t": 68888.01084375009,
      "d": 48.07593749999069,
      "v": 112
    },
    {
      "midi": 64,
      "hit": false,
      "t": 68888.01084375009,
      "d": 72.11390624998603,
      "v": 112
    },
    {
      "midi": 57,
      "hit": false,
      "t": 68888.01084375015,
      "d": 91.34428124999977,
      "v": 112
    },
    {
      "midi": 64,
      "hit": false,
      "t": 68888.01084375015,
      "d": 91.34428124999977,
      "v": 112
    },
    {
      "midi": 60,
      "hit": false,
      "t": 68888.01084375015,
      "d": 96.15187499999593,
      "v": 112
    },
    {
      "midi": 67,
      "hit": false,
      "t": 68888.01084375015,
      "d": 96.15187499999593,
      "v": 112
    },
    {
      "midi": 33,
      "hit": false,
      "t": 68888.01084375015,
      "d": 120.18984374999127,
      "v": 112
    },
    {
      "midi": 67,
      "hit": false,
      "t": 68892.81843750009,
      "d": 38.46074999999837,
      "v": 112
    },
    {
      "midi": 57,
      "hit": false,
      "t": 68892.81843750009,
      "d": 43.26834374999453,
      "v": 112
    },
    {
      "midi": 60,
      "hit": false,
      "t": 69118.77534375008,
      "d": 52.8835312500014,
      "v": 112
    },
    {
      "midi": 64,
      "hit": false,
      "t": 69118.77534375008,
      "d": 52.8835312500014,
      "v": 112
    },
    {
      "midi": 67,
      "hit": false,
      "t": 69118.77534375008,
      "d": 52.8835312500014,
      "v": 112
    },
    {
      "midi": 33,
      "hit": false,
      "t": 69118.77534375014,
      "d": 67.30631250000442,
      "v": 112
    },
    {
      "midi": 57,
      "hit": false,
      "t": 69123.58293750008,
      "d": 52.8835312500014,
      "v": 112
    },
    {
      "midi": 57,
      "hit": false,
      "t": 69234.15759375015,
      "d": 91.34428124998522,
      "v": 112
    },
    {
      "midi": 33,
      "hit": false,
      "t": 69234.15759375015,
      "d": 110.5746562499844,
      "v": 112
    },
    {
      "midi": 67,
      "hit": false,
      "t": 69234.15759375015,
      "d": 115.38224999998056,
      "v": 112
    },
    {
      "midi": 57,
      "hit": false,
      "t": 69238.96518750007,
      "d": 52.8835312500014,
      "v": 112
    },
    {
      "midi": 60,
      "hit": false,
      "t": 69238.96518750007,
      "d": 52.8835312500014,
      "v": 112
    },
    {
      "midi": 64,
      "hit": false,
      "t": 69238.96518750007,
      "d": 57.691124999997555,
      "v": 112
    },
    {
      "midi": 67,
      "hit": false,
      "t": 69238.96518750007,
      "d": 57.691124999997555,
      "v": 112
    },
    {
      "midi": 60,
      "hit": false,
      "t": 69238.96518750014,
      "d": 81.7290937499929,
      "v": 112
    },
    {
      "midi": 64,
      "hit": false,
      "t": 69238.96518750014,
      "d": 86.53668749998906,
      "v": 112
    },
    {
      "midi": 62,
      "hit": false,
      "t": 70157.21559375012,
      "d": 72.11390625000058,
      "v": 112
    },
    {
      "midi": 34,
      "hit": false,
      "t": 70157.21559375012,
      "d": 86.53668750000361,
      "v": 112
    },
    {
      "midi": 62,
      "hit": false,
      "t": 70162.02318750008,
      "d": 72.11390625000058,
      "v": 112
    },
    {
      "midi": 58,
      "hit": false,
      "t": 70162.02318750008,
      "d": 76.92149999999674,
      "v": 112
    },
    {
      "midi": 65,
      "hit": false,
      "t": 70162.02318750008,
      "d": 76.92149999999674,
      "v": 112
    },
    {
      "midi": 70,
      "hit": false,
      "t": 70162.02318750008,
      "d": 76.92149999999674,
      "v": 112
    },
    {
      "midi": 65,
      "hit": false,
      "t": 70162.02318750012,
      "d": 67.30631250000442,
      "v": 112
    },
    {
      "midi": 58,
      "hit": false,
      "t": 70162.02318750012,
      "d": 72.11390625000058,
      "v": 112
    },
    {
      "midi": 53,
      "hit": false,
      "t": 70162.02318750012,
      "d": 86.53668750000361,
      "v": 112
    },
    {
      "midi": 58,
      "hit": false,
      "t": 70387.98009375013,
      "d": 81.7290937499929,
      "v": 112
    },
    {
      "midi": 62,
      "hit": false,
      "t": 70387.98009375013,
      "d": 81.7290937499929,
      "v": 112
    },
    {
      "midi": 65,
      "hit": false,
      "t": 70387.98009375013,
      "d": 81.7290937499929,
      "v": 112
    },
    {
      "midi": 34,
      "hit": false,
      "t": 70387.98009375013,
      "d": 86.53668749998906,
      "v": 112
    },
    {
      "midi": 53,
      "hit": false,
      "t": 70387.98009375013,
      "d": 86.53668749998906,
      "v": 112
    },
    {
      "midi": 65,
      "hit": false,
      "t": 70392.78768750007,
      "d": 43.26834374999453,
      "v": 112
    },
    {
      "midi": 58,
      "hit": false,
      "t": 70392.78768750007,
      "d": 48.07593749999069,
      "v": 112
    },
    {
      "midi": 62,
      "hit": false,
      "t": 70392.78768750007,
      "d": 48.07593749999069,
      "v": 112
    },
    {
      "midi": 70,
      "hit": false,
      "t": 70392.78768750007,
      "d": 48.07593749999069,
      "v": 112
    },
    {
      "midi": 65,
      "hit": false,
      "t": 70734.12684375005,
      "d": 96.15187499999593,
      "v": 112
    },
    {
      "midi": 70,
      "hit": false,
      "t": 70734.12684375005,
      "d": 96.15187499999593,
      "v": 112
    },
    {
      "midi": 34,
      "hit": false,
      "t": 70734.12684375011,
      "d": 86.53668750000361,
      "v": 112
    },
    {
      "midi": 53,
      "hit": false,
      "t": 70734.12684375011,
      "d": 91.34428124999977,
      "v": 112
    },
    {
      "midi": 62,
      "hit": false,
      "t": 70734.12684375011,
      "d": 91.34428124999977,
      "v": 112
    },
    {
      "midi": 65,
      "hit": false,
      "t": 70734.12684375011,
      "d": 91.34428124999977,
      "v": 112
    },
    {
      "midi": 58,
      "hit": false,
      "t": 70734.12684375011,
      "d": 96.15187499999593,
      "v": 112
    },
    {
      "midi": 58,
      "hit": false,
      "t": 70738.93443750005,
      "d": 91.34428124999977,
      "v": 112
    },
    {
      "midi": 62,
      "hit": false,
      "t": 70738.93443750005,
      "d": 91.34428124999977,
      "v": 112
    },
    {
      "midi": 70,
      "hit": false,
      "t": 70964.89134375005,
      "d": 48.07593749999069,
      "v": 112
    },
    {
      "midi": 58,
      "hit": false,
      "t": 70964.89134375005,
      "d": 52.883531249986845,
      "v": 112
    },
    {
      "midi": 65,
      "hit": false,
      "t": 70964.89134375005,
      "d": 52.883531249986845,
      "v": 112
    },
    {
      "midi": 34,
      "hit": false,
      "t": 70964.8913437501,
      "d": 62.498718749993714,
      "v": 112
    },
    {
      "midi": 62,
      "hit": false,
      "t": 70969.69893750004,
      "d": 43.26834374999453,
      "v": 112
    },
    {
      "midi": 53,
      "hit": false,
      "t": 71080.2735937501,
      "d": 91.34428124999977,
      "v": 112
    },
    {
      "midi": 58,
      "hit": false,
      "t": 71080.2735937501,
      "d": 91.34428124999977,
      "v": 112
    },
    {
      "midi": 34,
      "hit": false,
      "t": 71080.2735937501,
      "d": 105.7670625000028,
      "v": 112
    },
    {
      "midi": 58,
      "hit": false,
      "t": 71085.08118750004,
      "d": 52.8835312500014,
      "v": 112
    },
    {
      "midi": 62,
      "hit": false,
      "t": 71085.08118750004,
      "d": 52.8835312500014,
      "v": 112
    },
    {
      "midi": 65,
      "hit": false,
      "t": 71085.08118750004,
      "d": 52.8835312500014,
      "v": 112
    },
    {
      "midi": 62,
      "hit": false,
      "t": 71085.0811875001,
      "d": 86.53668750000361,
      "v": 112
    },
    {
      "midi": 65,
      "hit": false,
      "t": 71085.0811875001,
      "d": 86.53668750000361,
      "v": 112
    },
    {
      "midi": 70,
      "hit": false,
      "t": 71089.88878125003,
      "d": 48.07593750000524,
      "v": 112
    },
    {
      "midi": 34,
      "hit": false,
      "t": 71772.5670937501,
      "d": 48.07593750000524,
      "v": 112
    },
    {
      "midi": 34,
      "hit": false,
      "t": 71887.94934375011,
      "d": 62.498718749993714,
      "v": 112
    },
    {
      "midi": 34,
      "hit": false,
      "t": 72003.3315937501,
      "d": 62.498718749993714,
      "v": 112
    },
    {
      "midi": 53,
      "hit": false,
      "t": 72003.3315937501,
      "d": 91.34428124999977,
      "v": 112
    },
    {
      "midi": 58,
      "hit": false,
      "t": 72008.13918750004,
      "d": 28.845562500006054,
      "v": 112
    },
    {
      "midi": 62,
      "hit": false,
      "t": 72008.13918750004,
      "d": 62.498718750008265,
      "v": 112
    },
    {
      "midi": 65,
      "hit": false,
      "t": 72008.13918750004,
      "d": 62.498718750008265,
      "v": 112
    },
    {
      "midi": 58,
      "hit": false,
      "t": 72008.1391875001,
      "d": 86.53668750000361,
      "v": 112
    },
    {
      "midi": 62,
      "hit": false,
      "t": 72008.1391875001,
      "d": 86.53668750000361,
      "v": 112
    },
    {
      "midi": 65,
      "hit": false,
      "t": 72008.1391875001,
      "d": 86.53668750000361,
      "v": 112
    },
    {
      "midi": 34,
      "hit": false,
      "t": 72234.09609375011,
      "d": 62.498718749993714,
      "v": 112
    },
    {
      "midi": 58,
      "hit": false,
      "t": 72234.09609375011,
      "d": 62.498718749993714,
      "v": 112
    },
    {
      "midi": 62,
      "hit": false,
      "t": 72234.09609375011,
      "d": 67.30631249998987,
      "v": 112
    },
    {
      "midi": 65,
      "hit": false,
      "t": 72234.09609375011,
      "d": 67.30631249998987,
      "v": 112
    },
    {
      "midi": 53,
      "hit": false,
      "t": 72234.09609375011,
      "d": 105.76706249998824,
      "v": 112
    },
    {
      "midi": 58,
      "hit": false,
      "t": 72238.90368750005,
      "d": 67.30631250000442,
      "v": 112
    },
    {
      "midi": 62,
      "hit": false,
      "t": 72238.90368750005,
      "d": 72.11390625000058,
      "v": 112
    },
    {
      "midi": 65,
      "hit": false,
      "t": 72238.90368750005,
      "d": 72.11390625000058,
      "v": 112
    },
    {
      "midi": 58,
      "hit": false,
      "t": 72580.24284375005,
      "d": 81.7290937499929,
      "v": 112
    },
    {
      "midi": 62,
      "hit": false,
      "t": 72580.24284375005,
      "d": 81.7290937499929,
      "v": 112
    },
    {
      "midi": 62,
      "hit": false,
      "t": 72580.2428437501,
      "d": 52.8835312500014,
      "v": 112
    },
    {
      "midi": 34,
      "hit": false,
      "t": 72580.2428437501,
      "d": 76.92149999999674,
      "v": 112
    },
    {
      "midi": 53,
      "hit": false,
      "t": 72580.2428437501,
      "d": 91.34428124999977,
      "v": 112
    },
    {
      "midi": 65,
      "hit": false,
      "t": 72580.2428437501,
      "d": 91.34428124999977,
      "v": 112
    },
    {
      "midi": 58,
      "hit": false,
      "t": 72580.2428437501,
      "d": 96.15187499999593,
      "v": 112
    },
    {
      "midi": 65,
      "hit": false,
      "t": 72585.05043750005,
      "d": 76.92149999999674,
      "v": 112
    },
    {
      "midi": 58,
      "hit": false,
      "t": 72811.00734375004,
      "d": 38.46074999999837,
      "v": 112
    },
    {
      "midi": 62,
      "hit": false,
      "t": 72811.00734375004,
      "d": 81.7290937499929,
      "v": 112
    },
    {
      "midi": 65,
      "hit": false,
      "t": 72811.00734375004,
      "d": 81.7290937499929,
      "v": 112
    },
    {
      "midi": 34,
      "hit": false,
      "t": 72811.00734375008,
      "d": 48.07593750000524,
      "v": 112
    },
    {
      "midi": 34,
      "hit": false,
      "t": 72926.3895937501,
      "d": 86.53668749998906,
      "v": 112
    },
    {
      "midi": 58,
      "hit": false,
      "t": 72926.3895937501,
      "d": 100.95946874999208,
      "v": 112
    },
    {
      "midi": 58,
      "hit": false,
      "t": 72931.19718750003,
      "d": 72.11390625000058,
      "v": 112
    },
    {
      "midi": 62,
      "hit": false,
      "t": 72931.19718750003,
      "d": 72.11390625000058,
      "v": 112
    },
    {
      "midi": 65,
      "hit": false,
      "t": 72931.19718750003,
      "d": 72.11390625000058,
      "v": 112
    },
    {
      "midi": 53,
      "hit": false,
      "t": 72931.19718750009,
      "d": 96.15187499999593,
      "v": 112
    },
    {
      "midi": 62,
      "hit": false,
      "t": 72931.19718750009,
      "d": 96.15187499999593,
      "v": 112
    },
    {
      "midi": 65,
      "hit": false,
      "t": 72931.19718750009,
      "d": 96.15187499999593,
      "v": 112
    },
    {
      "midi": 34,
      "hit": false,
      "t": 73387.91859375009,
      "d": 76.92149999999674,
      "v": 112
    },
    {
      "midi": 36,
      "hit": false,
      "t": 73618.68309375008,
      "d": 67.30631250000442,
      "v": 112
    },
    {
      "midi": 38,
      "hit": false,
      "t": 73849.44759375008,
      "d": 62.498718749993714,
      "v": 112
    },
    {
      "midi": 65,
      "hit": false,
      "t": 73849.44759375008,
      "d": 86.53668749998906,
      "v": 112
    },
    {
      "midi": 65,
      "hit": false,
      "t": 73854.25518750004,
      "d": 57.691124999997555,
      "v": 112
    },
    {
      "midi": 62,
      "hit": false,
      "t": 73854.25518750004,
      "d": 62.498718749993714,
      "v": 112
    },
    {
      "midi": 57,
      "hit": false,
      "t": 73854.25518750008,
      "d": 76.92149999999674,
      "v": 112
    },
    {
      "midi": 62,
      "hit": false,
      "t": 73854.25518750008,
      "d": 76.92149999999674,
      "v": 112
    },
    {
      "midi": 69,
      "hit": false,
      "t": 73854.25518750008,
      "d": 86.53668749998906,
      "v": 112
    },
    {
      "midi": 69,
      "hit": false,
      "t": 73859.06278125003,
      "d": 72.11390625000058,
      "v": 112
    },
    {
      "midi": 65,
      "hit": false,
      "t": 74080.21209375007,
      "d": 52.8835312500014,
      "v": 112
    },
    {
      "midi": 57,
      "hit": false,
      "t": 74080.21209375007,
      "d": 57.691124999997555,
      "v": 112
    },
    {
      "midi": 62,
      "hit": false,
      "t": 74080.21209375007,
      "d": 57.691124999997555,
      "v": 112
    },
    {
      "midi": 69,
      "hit": false,
      "t": 74080.21209375007,
      "d": 57.691124999997555,
      "v": 112
    },
    {
      "midi": 38,
      "hit": false,
      "t": 74080.21209375007,
      "d": 76.92149999999674,
      "v": 112
    },
    {
      "midi": 62,
      "hit": false,
      "t": 74085.01968750003,
      "d": 72.11390625000058,
      "v": 112
    },
    {
      "midi": 65,
      "hit": false,
      "t": 74085.01968750003,
      "d": 72.11390625000058,
      "v": 112
    },
    {
      "midi": 69,
      "hit": false,
      "t": 74085.01968750003,
      "d": 72.11390625000058,
      "v": 112
    },
    {
      "midi": 38,
      "hit": false,
      "t": 74421.55125000008,
      "d": 100.95946874997753,
      "v": 112
    },
    {
      "midi": 65,
      "hit": false,
      "t": 74426.35884375003,
      "d": 72.11390625000058,
      "v": 112
    },
    {
      "midi": 62,
      "hit": false,
      "t": 74426.35884375003,
      "d": 76.92149999999674,
      "v": 112
    },
    {
      "midi": 62,
      "hit": false,
      "t": 74426.35884375007,
      "d": 81.7290937499929,
      "v": 112
    },
    {
      "midi": 65,
      "hit": false,
      "t": 74426.35884375007,
      "d": 86.53668749998906,
      "v": 112
    },
    {
      "midi": 69,
      "hit": false,
      "t": 74426.35884375007,
      "d": 86.53668749998906,
      "v": 112
    },
    {
      "midi": 57,
      "hit": false,
      "t": 74426.35884375007,
      "d": 91.34428124998522,
      "v": 112
    },
    {
      "midi": 69,
      "hit": false,
      "t": 74431.16643750003,
      "d": 67.30631250000442,
      "v": 112
    },
    {
      "midi": 69,
      "hit": false,
      "t": 74657.12334375002,
      "d": 38.46074999999837,
      "v": 112
    },
    {
      "midi": 65,
      "hit": false,
      "t": 74657.12334375002,
      "d": 72.11390625000058,
      "v": 112
    },
    {
      "midi": 62,
      "hit": false,
      "t": 74657.12334375002,
      "d": 76.92149999999674,
      "v": 112
    },
    {
      "midi": 38,
      "hit": false,
      "t": 74657.12334375005,
      "d": 48.07593750000524,
      "v": 112
    },
    {
      "midi": 38,
      "hit": false,
      "t": 74772.50559375006,
      "d": 100.95946874999208,
      "v": 112
    },
    {
      "midi": 57,
      "hit": false,
      "t": 74772.50559375006,
      "d": 100.95946874999208,
      "v": 112
    },
    {
      "midi": 62,
      "hit": false,
      "t": 74777.31318750001,
      "d": 76.92149999999674,
      "v": 112
    },
    {
      "midi": 65,
      "hit": false,
      "t": 74777.31318750001,
      "d": 100.95946874999208,
      "v": 112
    },
    {
      "midi": 69,
      "hit": false,
      "t": 74777.31318750001,
      "d": 115.38224999999511,
      "v": 112
    },
    {
      "midi": 62,
      "hit": false,
      "t": 74777.31318750005,
      "d": 76.92149999999674,
      "v": 112
    },
    {
      "midi": 69,
      "hit": false,
      "t": 74777.31318750005,
      "d": 76.92149999999674,
      "v": 112
    },
    {
      "midi": 65,
      "hit": false,
      "t": 74777.31318750005,
      "d": 81.7290937499929,
      "v": 112
    },
    {
      "midi": 38,
      "hit": false,
      "t": 75464.79909375004,
      "d": 57.691124999997555,
      "v": 112
    },
    {
      "midi": 38,
      "hit": false,
      "t": 75580.18134375004,
      "d": 62.498718749993714,
      "v": 112
    },
    {
      "midi": 36,
      "hit": false,
      "t": 75695.56359375003,
      "d": 57.691124999997555,
      "v": 112
    },
    {
      "midi": 60,
      "hit": false,
      "t": 75695.56359375003,
      "d": 76.92149999999674,
      "v": 112
    },
    {
      "midi": 57,
      "hit": false,
      "t": 75695.56359375003,
      "d": 96.15187499999593,
      "v": 112
    },
    {
      "midi": 65,
      "hit": false,
      "t": 75700.37118750003,
      "d": 67.30631250000442,
      "v": 112
    },
    {
      "midi": 69,
      "hit": false,
      "t": 75700.37118750003,
      "d": 72.11390625000058,
      "v": 112
    },
    {
      "midi": 36,
      "hit": false,
      "t": 75926.32809375002,
      "d": 76.92149999999674,
      "v": 112
    },
    {
      "midi": 57,
      "hit": false,
      "t": 75926.32809375002,
      "d": 96.15187499999593,
      "v": 112
    },
    {
      "midi": 60,
      "hit": false,
      "t": 75926.32809375002,
      "d": 96.15187499999593,
      "v": 112
    },
    {
      "midi": 65,
      "hit": false,
      "t": 75926.32809375002,
      "d": 96.15187499999593,
      "v": 112
    },
    {
      "midi": 69,
      "hit": false,
      "t": 75926.32809375002,
      "d": 100.95946874999208,
      "v": 112
    },
    {
      "midi": 62,
      "hit": false,
      "t": 75931.1356875,
      "d": 52.8835312500014,
      "v": 112
    },
    {
      "midi": 69,
      "hit": false,
      "t": 75931.1356875,
      "d": 52.8835312500014,
      "v": 112
    },
    {
      "midi": 65,
      "hit": false,
      "t": 75931.1356875,
      "d": 76.92149999999674,
      "v": 112
    },
    {
      "midi": 36,
      "hit": false,
      "t": 76267.66725000001,
      "d": 115.38224999999511,
      "v": 112
    },
    {
      "midi": 65,
      "hit": false,
      "t": 76272.47484375001,
      "d": 67.30631249998987,
      "v": 112
    },
    {
      "midi": 69,
      "hit": false,
      "t": 76272.47484375001,
      "d": 72.11390624998603,
      "v": 112
    },
    {
      "midi": 57,
      "hit": false,
      "t": 76272.47484375001,
      "d": 76.92149999999674,
      "v": 112
    },
    {
      "midi": 60,
      "hit": false,
      "t": 76272.47484375001,
      "d": 81.7290937499929,
      "v": 112
    },
    {
      "midi": 65,
      "hit": false,
      "t": 76272.47484375001,
      "d": 81.7290937499929,
      "v": 112
    },
    {
      "midi": 69,
      "hit": false,
      "t": 76272.47484375001,
      "d": 81.7290937499929,
      "v": 112
    },
    {
      "midi": 60,
      "hit": false,
      "t": 76277.2824375,
      "d": 62.498718749993714,
      "v": 112
    },
    {
      "midi": 60,
      "hit": false,
      "t": 76503.23934375,
      "d": 38.46074999999837,
      "v": 112
    },
    {
      "midi": 69,
      "hit": false,
      "t": 76503.23934375,
      "d": 38.46074999999837,
      "v": 112
    },
    {
      "midi": 65,
      "hit": false,
      "t": 76503.23934375,
      "d": 62.498718749993714,
      "v": 112
    },
    {
      "midi": 36,
      "hit": false,
      "t": 76503.23934375001,
      "d": 62.498718749993714,
      "v": 112
    },
    {
      "midi": 60,
      "hit": false,
      "t": 76618.62159375001,
      "d": 81.7290937499929,
      "v": 112
    },
    {
      "midi": 57,
      "hit": false,
      "t": 76618.62159375001,
      "d": 100.95946874999208,
      "v": 112
    },
    {
      "midi": 36,
      "hit": false,
      "t": 76618.62159375001,
      "d": 105.76706249998824,
      "v": 112
    },
    {
      "midi": 60,
      "hit": false,
      "t": 76623.42918749999,
      "d": 81.7290937499929,
      "v": 112
    },
    {
      "midi": 65,
      "hit": false,
      "t": 76623.42918749999,
      "d": 81.7290937499929,
      "v": 112
    },
    {
      "midi": 69,
      "hit": false,
      "t": 76623.42918749999,
      "d": 81.7290937499929,
      "v": 112
    },
    {
      "midi": 65,
      "hit": false,
      "t": 76623.4291875,
      "d": 72.11390625000058,
      "v": 112
    },
    {
      "midi": 69,
      "hit": false,
      "t": 76623.4291875,
      "d": 100.95946874999208,
      "v": 112
    },
    {
      "midi": 36,
      "hit": false,
      "t": 77310.91509375,
      "d": 76.92149999999674,
      "v": 112
    },
    {
      "midi": 38,
      "hit": false,
      "t": 77426.29734374999,
      "d": 86.53668750000361,
      "v": 112
    },
    {
      "midi": 63,
      "hit": false,
      "t": 77541.67959375,
      "d": 48.07593749999069,
      "v": 112
    },
    {
      "midi": 39,
      "hit": false,
      "t": 77541.67959375,
      "d": 67.30631249998987,
      "v": 112
    },
    {
      "midi": 70,
      "hit": false,
      "t": 77541.67959375,
      "d": 91.34428124998522,
      "v": 112
    },
    {
      "midi": 63,
      "hit": false,
      "t": 77546.48718749998,
      "d": 28.845562500006054,
      "v": 112
    },
    {
      "midi": 58,
      "hit": false,
      "t": 77546.48718749998,
      "d": 57.69112500001211,
      "v": 112
    },
    {
      "midi": 70,
      "hit": false,
      "t": 77546.48718749998,
      "d": 62.498718750008265,
      "v": 112
    },
    {
      "midi": 58,
      "hit": false,
      "t": 77546.4871875,
      "d": 76.92149999999674,
      "v": 112
    },
    {
      "midi": 67,
      "hit": false,
      "t": 77546.4871875,
      "d": 81.7290937499929,
      "v": 112
    },
    {
      "midi": 58,
      "hit": false,
      "t": 77772.44409374999,
      "d": 57.691124999997555,
      "v": 112
    },
    {
      "midi": 39,
      "hit": false,
      "t": 77772.44409374999,
      "d": 91.34428124999977,
      "v": 112
    },
    {
      "midi": 63,
      "hit": false,
      "t": 77772.44409374999,
      "d": 96.15187499999593,
      "v": 112
    },
    {
      "midi": 67,
      "hit": false,
      "t": 77772.44409374999,
      "d": 96.15187499999593,
      "v": 112
    },
    {
      "midi": 70,
      "hit": false,
      "t": 77772.44409374999,
      "d": 96.15187499999593,
      "v": 112
    },
    {
      "midi": 63,
      "hit": false,
      "t": 77777.25168749999,
      "d": 33.65315625000221,
      "v": 112
    },
    {
      "midi": 70,
      "hit": false,
      "t": 77777.25168749999,
      "d": 33.65315625000221,
      "v": 112
    },
    {
      "midi": 58,
      "hit": false,
      "t": 77777.25168749999,
      "d": 57.691124999997555,
      "v": 112
    },
    {
      "midi": 58,
      "hit": false,
      "t": 78118.59084374999,
      "d": 72.11390624998603,
      "v": 112
    },
    {
      "midi": 70,
      "hit": false,
      "t": 78118.59084374999,
      "d": 72.11390624998603,
      "v": 112
    },
    {
      "midi": 63,
      "hit": false,
      "t": 78118.59084374999,
      "d": 86.53668750000361,
      "v": 112
    },
    {
      "midi": 67,
      "hit": false,
      "t": 78118.59084374999,
      "d": 86.53668750000361,
      "v": 112
    },
    {
      "midi": 70,
      "hit": false,
      "t": 78118.59084374999,
      "d": 86.53668750000361,
      "v": 112
    },
    {
      "midi": 58,
      "hit": false,
      "t": 78118.59084374999,
      "d": 91.34428124999977,
      "v": 112
    },
    {
      "midi": 39,
      "hit": false,
      "t": 78118.59084374999,
      "d": 100.95946875000664,
      "v": 112
    },
    {
      "midi": 63,
      "hit": false,
      "t": 78123.39843749999,
      "d": 62.498718749993714,
      "v": 112
    },
    {
      "midi": 58,
      "hit": false,
      "t": 78349.35534374998,
      "d": 38.46074999999837,
      "v": 112
    },
    {
      "midi": 63,
      "hit": false,
      "t": 78349.35534374998,
      "d": 38.46074999999837,
      "v": 112
    },
    {
      "midi": 70,
      "hit": false,
      "t": 78349.35534374998,
      "d": 81.7290937499929,
      "v": 112
    },
    {
      "midi": 39,
      "hit": false,
      "t": 78349.35534375,
      "d": 52.8835312500014,
      "v": 112
    },
    {
      "midi": 58,
      "hit": false,
      "t": 78464.73759374999,
      "d": 91.34428124999977,
      "v": 112
    },
    {
      "midi": 70,
      "hit": false,
      "t": 78464.73759374999,
      "d": 115.38224999999511,
      "v": 112
    },
    {
      "midi": 39,
      "hit": false,
      "t": 78464.73759374999,
      "d": 124.99743750000198,
      "v": 112
    },
    {
      "midi": 58,
      "hit": false,
      "t": 78469.54518749997,
      "d": 86.53668750000361,
      "v": 112
    },
    {
      "midi": 63,
      "hit": false,
      "t": 78469.54518749997,
      "d": 91.34428124999977,
      "v": 112
    },
    {
      "midi": 70,
      "hit": false,
      "t": 78469.54518749997,
      "d": 110.57465624999895,
      "v": 112
    },
    {
      "midi": 63,
      "hit": false,
      "t": 78469.54518749999,
      "d": 91.34428124999977,
      "v": 112
    },
    {
      "midi": 67,
      "hit": false,
      "t": 78469.54518749999,
      "d": 91.34428124999977,
      "v": 112
    },
    {
      "midi": 39,
      "hit": false,
      "t": 79157.03109374999,
      "d": 96.15187499999593,
      "v": 112
    },
    {
      "midi": 34,
      "hit": false,
      "t": 79387.79559374998,
      "d": 1721.1185624999925,
      "v": 112
    },
    {
      "midi": 58,
      "hit": false,
      "t": 79387.79559374998,
      "d": 2187.4551562499983,
      "v": 112
    },
    {
      "midi": 70,
      "hit": false,
      "t": 79387.79559374998,
      "d": 2201.8779375000013,
      "v": 112
    },
    {
      "midi": 65,
      "hit": false,
      "t": 79392.60318749998,
      "d": 1831.6932187499915,
      "v": 112
    },
    {
      "midi": 70,
      "hit": false,
      "t": 79392.60318749998,
      "d": 1831.6932187499915,
      "v": 112
    },
    {
      "midi": 62,
      "hit": false,
      "t": 79392.60318749998,
      "d": 2211.493125000008,
      "v": 112
    },
    {
      "midi": 65,
      "hit": false,
      "t": 79392.60318749998,
      "d": 2211.493125000008,
      "v": 112
    },
    {
      "midi": 62,
      "hit": false,
      "t": 79397.41078124997,
      "d": 1826.8856249999953,
      "v": 112
    },
    {
      "midi": 57,
      "hit": false,
      "t": 82387.73409374997,
      "d": 615.372000000003,
      "v": 112
    },
    {
      "midi": 60,
      "hit": false,
      "t": 82387.73409374997,
      "d": 701.9086875000066,
      "v": 112
    },
    {
      "midi": 69,
      "hit": false,
      "t": 82387.73409374998,
      "d": 687.4859062500036,
      "v": 112
    },
    {
      "midi": 65,
      "hit": false,
      "t": 82387.73409374998,
      "d": 692.2934999999998,
      "v": 112
    },
    {
      "midi": 72,
      "hit": false,
      "t": 82387.73409374998,
      "d": 692.2934999999998,
      "v": 112
    },
    {
      "midi": 64,
      "hit": false,
      "t": 82392.54168749996,
      "d": 28.845562500006054,
      "v": 112
    },
    {
      "midi": 65,
      "hit": false,
      "t": 82392.54168749996,
      "d": 624.9871875000099,
      "v": 112
    },
    {
      "midi": 57,
      "hit": false,
      "t": 83310.79209374997,
      "d": 697.1010937499959,
      "v": 112
    },
    {
      "midi": 60,
      "hit": false,
      "t": 83310.79209374997,
      "d": 716.3314687499951,
      "v": 112
    },
    {
      "midi": 65,
      "hit": false,
      "t": 83310.79209374999,
      "d": 721.1390625000058,
      "v": 112
    },
    {
      "midi": 72,
      "hit": false,
      "t": 83310.79209374999,
      "d": 735.5618437500088,
      "v": 112
    },
    {
      "midi": 69,
      "hit": false,
      "t": 83310.79209374999,
      "d": 749.9846250000119,
      "v": 112
    },
    {
      "midi": 65,
      "hit": false,
      "t": 83315.59968749997,
      "d": 692.2934999999998,
      "v": 112
    },
    {
      "midi": 57,
      "hit": false,
      "t": 84233.85009374996,
      "d": 605.7568124999962,
      "v": 112
    },
    {
      "midi": 65,
      "hit": false,
      "t": 84233.85009374996,
      "d": 639.4099687499984,
      "v": 112
    },
    {
      "midi": 69,
      "hit": false,
      "t": 84233.85009375,
      "d": 567.2960624999978,
      "v": 112
    },
    {
      "midi": 72,
      "hit": false,
      "t": 84233.85009375,
      "d": 639.4099687499984,
      "v": 112
    },
    {
      "midi": 60,
      "hit": false,
      "t": 84233.85009375,
      "d": 653.8327500000014,
      "v": 112
    },
    {
      "midi": 65,
      "hit": false,
      "t": 84233.85009375,
      "d": 668.2555312500044,
      "v": 112
    },
    {
      "midi": 60,
      "hit": false,
      "t": 84238.65768749996,
      "d": 600.94921875,
      "v": 112
    },
    {
      "midi": 58,
      "hit": false,
      "t": 85156.90809374997,
      "d": 360.5695312500029,
      "v": 112
    },
    {
      "midi": 67,
      "hit": false,
      "t": 85156.90809374997,
      "d": 360.5695312500029,
      "v": 112
    },
    {
      "midi": 67,
      "hit": false,
      "t": 85156.90809375001,
      "d": 499.98974999999336,
      "v": 112
    },
    {
      "midi": 58,
      "hit": false,
      "t": 85156.90809375001,
      "d": 504.7973437499895,
      "v": 112
    },
    {
      "midi": 63,
      "hit": false,
      "t": 85156.90809375001,
      "d": 504.7973437499895,
      "v": 112
    },
    {
      "midi": 70,
      "hit": false,
      "t": 85156.90809375001,
      "d": 528.8353124999849,
      "v": 112
    },
    {
      "midi": 63,
      "hit": false,
      "t": 85161.71568749996,
      "d": 355.76193750000675,
      "v": 112
    },
    {
      "midi": 67,
      "hit": false,
      "t": 85849.20159375,
      "d": 769.2149999999965,
      "v": 112
    },
    {
      "midi": 63,
      "hit": false,
      "t": 85849.20159375,
      "d": 802.8681562499987,
      "v": 112
    },
    {
      "midi": 70,
      "hit": false,
      "t": 85849.20159375,
      "d": 826.9061249999941,
      "v": 112
    },
    {
      "midi": 58,
      "hit": false,
      "t": 85849.20159375,
      "d": 831.7137187499902,
      "v": 112
    },
    {
      "midi": 67,
      "hit": false,
      "t": 85854.00918749996,
      "d": 764.4074062500003,
      "v": 112
    },
    {
      "midi": 58,
      "hit": false,
      "t": 85854.00918749996,
      "d": 783.6377812499995,
      "v": 112
    },
    {
      "midi": 63,
      "hit": false,
      "t": 85854.00918749996,
      "d": 793.2529687500064,
      "v": 112
    },
    {
      "midi": 65,
      "hit": false,
      "t": 87003.02409374998,
      "d": 182.68856249999953,
      "v": 112
    },
    {
      "midi": 62,
      "hit": false,
      "t": 87003.02409374999,
      "d": 610.5644062500069,
      "v": 112
    },
    {
      "midi": 65,
      "hit": false,
      "t": 87003.02409374999,
      "d": 610.5644062500069,
      "v": 112
    },
    {
      "midi": 58,
      "hit": false,
      "t": 87003.02409374999,
      "d": 615.372000000003,
      "v": 112
    },
    {
      "midi": 70,
      "hit": false,
      "t": 87003.02409374999,
      "d": 615.372000000003,
      "v": 112
    },
    {
      "midi": 58,
      "hit": false,
      "t": 87007.83168749997,
      "d": 173.07337500000722,
      "v": 112
    },
    {
      "midi": 62,
      "hit": false,
      "t": 87007.83168749997,
      "d": 173.07337500000722,
      "v": 112
    },
    {
      "midi": 70,
      "hit": false,
      "t": 87695.31759374999,
      "d": 682.6783124999929,
      "v": 112
    },
    {
      "midi": 65,
      "hit": false,
      "t": 87695.31759374999,
      "d": 697.1010937499959,
      "v": 112
    },
    {
      "midi": 58,
      "hit": false,
      "t": 87695.31759374999,
      "d": 711.523874999999,
      "v": 112
    },
    {
      "midi": 62,
      "hit": false,
      "t": 87695.31759374999,
      "d": 725.946656250002,
      "v": 112
    },
    {
      "midi": 58,
      "hit": false,
      "t": 87700.12518749997,
      "d": 519.2201250000071,
      "v": 112
    },
    {
      "midi": 62,
      "hit": false,
      "t": 87700.12518749997,
      "d": 519.2201250000071,
      "v": 112
    },
    {
      "midi": 65,
      "hit": false,
      "t": 87700.12518749997,
      "d": 538.4505000000063,
      "v": 112
    },
    {
      "midi": 65,
      "hit": false,
      "t": 88849.14009374999,
      "d": 706.7162812500028,
      "v": 112
    },
    {
      "midi": 57,
      "hit": false,
      "t": 88849.14009374999,
      "d": 711.523874999999,
      "v": 112
    },
    {
      "midi": 60,
      "hit": false,
      "t": 88849.14009374999,
      "d": 711.523874999999,
      "v": 112
    },
    {
      "midi": 57,
      "hit": false,
      "t": 89772.19809374999,
      "d": 711.523874999999,
      "v": 112
    },
    {
      "midi": 60,
      "hit": false,
      "t": 89772.19809374999,
      "d": 721.1390625000058,
      "v": 112
    },
    {
      "midi": 65,
      "hit": false,
      "t": 89772.19809374999,
      "d": 754.792218750008,
      "v": 112
    },
    {
      "midi": 69,
      "hit": false,
      "t": 89772.19809374999,
      "d": 769.2150000000111,
      "v": 112
    },
    {
      "midi": 72,
      "hit": false,
      "t": 89772.19809374999,
      "d": 769.2150000000111,
      "v": 112
    },
    {
      "midi": 65,
      "hit": false,
      "t": 89777.00568749999,
      "d": 716.3314687500097,
      "v": 112
    },
    {
      "midi": 60,
      "hit": false,
      "t": 89777.00568749999,
      "d": 721.1390625000058,
      "v": 112
    },
    {
      "midi": 57,
      "hit": false,
      "t": 90695.25609375,
      "d": 711.523874999999,
      "v": 112
    },
    {
      "midi": 60,
      "hit": false,
      "t": 90695.25609375,
      "d": 682.6783124999929,
      "v": 112
    },
    {
      "midi": 65,
      "hit": false,
      "t": 90695.25609375,
      "d": 692.2934999999998,
      "v": 112
    },
    {
      "midi": 72,
      "hit": false,
      "t": 90695.25609375,
      "d": 706.7162812500028,
      "v": 112
    },
    {
      "midi": 69,
      "hit": false,
      "t": 90695.25609375,
      "d": 725.946656250002,
      "v": 112
    },
    {
      "midi": 65,
      "hit": false,
      "t": 90700.06368749999,
      "d": 706.7162812500028,
      "v": 112
    },
    {
      "midi": 60,
      "hit": false,
      "t": 90700.06368749999,
      "d": 725.946656250002,
      "v": 112
    },
    {
      "midi": 65,
      "hit": false,
      "t": 91618.31409375,
      "d": 533.6429062499956,
      "v": 112
    },
    {
      "midi": 69,
      "hit": false,
      "t": 91618.31409375,
      "d": 341.3391562500037,
      "v": 112
    },
    {
      "midi": 65,
      "hit": false,
      "t": 91618.31409375,
      "d": 451.9138125000027,
      "v": 112
    },
    {
      "midi": 60,
      "hit": false,
      "t": 91618.31409375,
      "d": 490.37456250000105,
      "v": 112
    },
    {
      "midi": 72,
      "hit": false,
      "t": 91618.31409375,
      "d": 509.60493750000023,
      "v": 112
    },
    {
      "midi": 57,
      "hit": false,
      "t": 91623.1216875,
      "d": 495.1821562499972,
      "v": 112
    },
    {
      "midi": 60,
      "hit": false,
      "t": 91623.1216875,
      "d": 509.60493750000023,
      "v": 112
    },
    {
      "midi": 58,
      "hit": false,
      "t": 92310.60759375,
      "d": 504.7973437500041,
      "v": 112
    },
    {
      "midi": 63,
      "hit": false,
      "t": 92310.60759375,
      "d": 509.60493750000023,
      "v": 112
    },
    {
      "midi": 70,
      "hit": false,
      "t": 92310.60759375,
      "d": 524.0277187500033,
      "v": 112
    },
    {
      "midi": 67,
      "hit": false,
      "t": 92310.60759375,
      "d": 528.8353124999994,
      "v": 112
    },
    {
      "midi": 63,
      "hit": false,
      "t": 92541.37209374999,
      "d": 399.0302812500013,
      "v": 112
    },
    {
      "midi": 67,
      "hit": false,
      "t": 92541.37209374999,
      "d": 399.0302812500013,
      "v": 112
    },
    {
      "midi": 58,
      "hit": false,
      "t": 92541.37209374999,
      "d": 427.87584375000733,
      "v": 112
    },
    {
      "midi": 67,
      "hit": false,
      "t": 93002.90109375,
      "d": 975.9415312500059,
      "v": 112
    },
    {
      "midi": 63,
      "hit": false,
      "t": 93002.90109375,
      "d": 980.7491250000021,
      "v": 112
    },
    {
      "midi": 58,
      "hit": false,
      "t": 93002.90109375,
      "d": 1009.5946875000081,
      "v": 112
    },
    {
      "midi": 70,
      "hit": false,
      "t": 93002.90109375,
      "d": 1014.4022812500043,
      "v": 112
    },
    {
      "midi": 67,
      "hit": false,
      "t": 93233.66559375,
      "d": 778.8301875000034,
      "v": 112
    },
    {
      "midi": 58,
      "hit": false,
      "t": 93233.66559375,
      "d": 807.6757500000094,
      "v": 112
    },
    {
      "midi": 63,
      "hit": false,
      "t": 93233.66559375,
      "d": 822.0985312500125,
      "v": 112
    },
    {
      "midi": 62,
      "hit": false,
      "t": 94387.48809375,
      "d": 240.3796874999971,
      "v": 112
    },
    {
      "midi": 65,
      "hit": false,
      "t": 94387.48809375,
      "d": 240.3796874999971,
      "v": 112
    },
    {
      "midi": 58,
      "hit": false,
      "t": 94387.48809375,
      "d": 269.22525000000314,
      "v": 112
    },
    {
      "midi": 70,
      "hit": false,
      "t": 94387.48809375,
      "d": 269.22525000000314,
      "v": 112
    },
    {
      "midi": 65,
      "hit": false,
      "t": 94387.48809375001,
      "d": 298.07081249999464,
      "v": 112
    },
    {
      "midi": 62,
      "hit": false,
      "t": 94392.29568750001,
      "d": 278.84043749999546,
      "v": 112
    },
    {
      "midi": 58,
      "hit": false,
      "t": 94392.29568750001,
      "d": 293.2632187499985,
      "v": 112
    },
    {
      "midi": 70,
      "hit": false,
      "t": 95079.78159375,
      "d": 721.1390625000058,
      "v": 112
    },
    {
      "midi": 65,
      "hit": false,
      "t": 95079.78159375,
      "d": 764.4074062500003,
      "v": 112
    },
    {
      "midi": 58,
      "hit": false,
      "t": 95079.78159375,
      "d": 769.2149999999965,
      "v": 112
    },
    {
      "midi": 62,
      "hit": false,
      "t": 95079.78159375,
      "d": 778.8301875000034,
      "v": 112
    },
    {
      "midi": 62,
      "hit": false,
      "t": 95084.58918750001,
      "d": 663.4479374999937,
      "v": 112
    },
    {
      "midi": 58,
      "hit": false,
      "t": 95084.58918750001,
      "d": 668.2555312499899,
      "v": 112
    },
    {
      "midi": 65,
      "hit": false,
      "t": 95084.58918750001,
      "d": 687.4859062499891,
      "v": 112
    },
    {
      "midi": 55,
      "hit": false,
      "t": 96002.83959375,
      "d": 158.6505937500042,
      "v": 112
    },
    {
      "midi": 67,
      "hit": false,
      "t": 96233.60409375001,
      "d": 86.53668750000361,
      "v": 112
    },
    {
      "midi": 70,
      "hit": false,
      "t": 96233.60409375001,
      "d": 158.6505937500042,
      "v": 112
    },
    {
      "midi": 58,
      "hit": false,
      "t": 96233.60409375001,
      "d": 163.45818750000035,
      "v": 112
    },
    {
      "midi": 62,
      "hit": false,
      "t": 96233.60409375001,
      "d": 163.45818750000035,
      "v": 112
    },
    {
      "midi": 67,
      "hit": false,
      "t": 96233.60409375001,
      "d": 168.2657812499965,
      "v": 112
    },
    {
      "midi": 62,
      "hit": false,
      "t": 96238.4116875,
      "d": 67.30631250000442,
      "v": 112
    },
    {
      "midi": 55,
      "hit": false,
      "t": 96464.36859375001,
      "d": 86.53668750000361,
      "v": 112
    },
    {
      "midi": 62,
      "hit": false,
      "t": 96579.75084375002,
      "d": 86.53668750000361,
      "v": 112
    },
    {
      "midi": 67,
      "hit": false,
      "t": 96579.75084375002,
      "d": 129.80503124999814,
      "v": 112
    },
    {
      "midi": 55,
      "hit": false,
      "t": 96810.51534375003,
      "d": 86.53668750000361,
      "v": 112
    },
    {
      "midi": 58,
      "hit": false,
      "t": 96925.89759375,
      "d": 870.1744687500031,
      "v": 112
    },
    {
      "midi": 70,
      "hit": false,
      "t": 96925.89759375,
      "d": 870.1744687500031,
      "v": 112
    },
    {
      "midi": 67,
      "hit": false,
      "t": 96925.89759375,
      "d": 884.5972500000062,
      "v": 112
    },
    {
      "midi": 62,
      "hit": false,
      "t": 96925.89759375,
      "d": 889.4048437500023,
      "v": 112
    },
    {
      "midi": 67,
      "hit": false,
      "t": 96930.70518750003,
      "d": 158.6505937500042,
      "v": 112
    },
    {
      "midi": 62,
      "hit": false,
      "t": 96930.70518750003,
      "d": 177.88096875000338,
      "v": 112
    },
    {
      "midi": 55,
      "hit": false,
      "t": 97156.66209375004,
      "d": 91.34428124999977,
      "v": 112
    },
    {
      "midi": 62,
      "hit": false,
      "t": 97272.04434375004,
      "d": 197.11134375000256,
      "v": 112
    },
    {
      "midi": 67,
      "hit": false,
      "t": 97272.04434375004,
      "d": 197.11134375000256,
      "v": 112
    },
    {
      "midi": 55,
      "hit": false,
      "t": 97502.80884375004,
      "d": 76.92149999999674,
      "v": 112
    },
    {
      "midi": 67,
      "hit": false,
      "t": 97618.19109375004,
      "d": 115.38224999999511,
      "v": 112
    },
    {
      "midi": 62,
      "hit": false,
      "t": 97618.19109375004,
      "d": 139.42021874999045,
      "v": 112
    },
    {
      "midi": 55,
      "hit": false,
      "t": 97728.76575000004,
      "d": 115.38224999999511,
      "v": 112
    },
    {
      "midi": 53,
      "hit": false,
      "t": 97848.95559375003,
      "d": 1.2018984375026776,
      "v": 112
    },
    {
      "midi": 65,
      "hit": false,
      "t": 98079.72009375003,
      "d": 72.11390625000058,
      "v": 112
    },
    {
      "midi": 58,
      "hit": false,
      "t": 98079.72009375003,
      "d": 76.92149999999674,
      "v": 112
    },
    {
      "midi": 62,
      "hit": false,
      "t": 98310.48459375,
      "d": 326.9163750000007,
      "v": 112
    },
    {
      "midi": 65,
      "hit": false,
      "t": 98310.48459375,
      "d": 326.9163750000007,
      "v": 112
    },
    {
      "midi": 70,
      "hit": false,
      "t": 98310.48459375,
      "d": 326.9163750000007,
      "v": 112
    },
    {
      "midi": 58,
      "hit": false,
      "t": 98310.48459375,
      "d": 360.5695312500029,
      "v": 112
    },
    {
      "midi": 53,
      "hit": false,
      "t": 98315.29218750003,
      "d": 76.92149999999674,
      "v": 112
    },
    {
      "midi": 58,
      "hit": false,
      "t": 98421.05925000003,
      "d": 182.68856249998498,
      "v": 112
    },
    {
      "midi": 65,
      "hit": false,
      "t": 98425.86684375003,
      "d": 134.6126249999943,
      "v": 112
    },
    {
      "midi": 53,
      "hit": false,
      "t": 98656.63134375002,
      "d": 91.34428124999977,
      "v": 112
    },
    {
      "midi": 58,
      "hit": false,
      "t": 98772.01359375002,
      "d": 57.691124999997555,
      "v": 112
    },
    {
      "midi": 65,
      "hit": false,
      "t": 98772.01359375002,
      "d": 57.691124999997555,
      "v": 112
    },
    {
      "midi": 58,
      "hit": false,
      "t": 98772.01359375002,
      "d": 52.8835312500014,
      "v": 112
    },
    {
      "midi": 58,
      "hit": false,
      "t": 98882.58825000002,
      "d": 72.11390625000058,
      "v": 112
    },
    {
      "midi": 65,
      "hit": false,
      "t": 98882.58825000002,
      "d": 72.11390625000058,
      "v": 112
    },
    {
      "midi": 53,
      "hit": false,
      "t": 99002.77809375002,
      "d": 86.53668750000361,
      "v": 112
    },
    {
      "midi": 58,
      "hit": false,
      "t": 99002.77809375002,
      "d": 543.2580937500024,
      "v": 112
    },
    {
      "midi": 62,
      "hit": false,
      "t": 99002.77809375002,
      "d": 548.0656874999986,
      "v": 112
    },
    {
      "midi": 65,
      "hit": false,
      "t": 99002.77809375002,
      "d": 548.0656874999986,
      "v": 112
    },
    {
      "midi": 70,
      "hit": false,
      "t": 99002.77809375002,
      "d": 567.2960624999978,
      "v": 112
    },
    {
      "midi": 65,
      "hit": false,
      "t": 99118.16034375003,
      "d": 216.34171875000175,
      "v": 112
    },
    {
      "midi": 58,
      "hit": false,
      "t": 99118.16034375003,
      "d": 235.57209375000093,
      "v": 112
    },
    {
      "midi": 53,
      "hit": false,
      "t": 99348.92484375004,
      "d": 86.53668749998906,
      "v": 112
    },
    {
      "midi": 66,
      "hit": false,
      "t": 99464.30709375003,
      "d": 38.46074999999837,
      "v": 112
    },
    {
      "midi": 65,
      "hit": false,
      "t": 99464.30709375003,
      "d": 91.34428124999977,
      "v": 112
    },
    {
      "midi": 58,
      "hit": false,
      "t": 99464.30709375003,
      "d": 96.15187499999593,
      "v": 112
    },
    {
      "midi": 53,
      "hit": false,
      "t": 99579.68934375003,
      "d": 86.53668750000361,
      "v": 112
    },
    {
      "midi": 57,
      "hit": false,
      "t": 99695.07159375004,
      "d": 72.11390625000058,
      "v": 112
    },
    {
      "midi": 57,
      "hit": false,
      "t": 99925.83609375003,
      "d": 461.528999999995,
      "v": 112
    },
    {
      "midi": 62,
      "hit": false,
      "t": 99925.83609375003,
      "d": 461.528999999995,
      "v": 112
    },
    {
      "midi": 65,
      "hit": false,
      "t": 99925.83609375003,
      "d": 461.528999999995,
      "v": 112
    },
    {
      "midi": 69,
      "hit": false,
      "t": 99925.83609375003,
      "d": 480.7593749999942,
      "v": 112
    },
    {
      "midi": 62,
      "hit": false,
      "t": 99925.83609375004,
      "d": 62.498718749993714,
      "v": 112
    },
    {
      "midi": 69,
      "hit": false,
      "t": 99930.64368750004,
      "d": 57.691124999997555,
      "v": 112
    },
    {
      "midi": 57,
      "hit": false,
      "t": 100156.60059375003,
      "d": 86.53668750000361,
      "v": 112
    },
    {
      "midi": 69,
      "hit": false,
      "t": 100271.98284375004,
      "d": 91.34428124999977,
      "v": 112
    },
    {
      "midi": 62,
      "hit": false,
      "t": 100271.98284375004,
      "d": 96.15187499999593,
      "v": 112
    },
    {
      "midi": 57,
      "hit": false,
      "t": 100497.93975000003,
      "d": 91.34428124999977,
      "v": 112
    },
    {
      "midi": 62,
      "hit": false,
      "t": 100618.12959375003,
      "d": 1120.169343750007,
      "v": 112
    },
    {
      "midi": 65,
      "hit": false,
      "t": 100618.12959375003,
      "d": 1139.3997187500063,
      "v": 112
    },
    {
      "midi": 69,
      "hit": false,
      "t": 100618.12959375003,
      "d": 1139.3997187500063,
      "v": 112
    },
    {
      "midi": 57,
      "hit": false,
      "t": 100618.12959375003,
      "d": 1144.2073125000024,
      "v": 112
    },
    {
      "midi": 62,
      "hit": false,
      "t": 100622.93718750004,
      "d": 81.7290937499929,
      "v": 112
    },
    {
      "midi": 69,
      "hit": false,
      "t": 100622.93718750004,
      "d": 110.57465624999895,
      "v": 112
    },
    {
      "midi": 57,
      "hit": false,
      "t": 100848.89409375003,
      "d": 91.34428124999977,
      "v": 112
    },
    {
      "midi": 62,
      "hit": false,
      "t": 100964.27634375003,
      "d": 86.53668750000361,
      "v": 112
    },
    {
      "midi": 69,
      "hit": false,
      "t": 100964.27634375003,
      "d": 96.15187500001048,
      "v": 112
    },
    {
      "midi": 57,
      "hit": false,
      "t": 101195.04084375003,
      "d": 91.34428124999977,
      "v": 112
    },
    {
      "midi": 62,
      "hit": false,
      "t": 101310.42309375003,
      "d": 62.498718749993714,
      "v": 112
    },
    {
      "midi": 69,
      "hit": false,
      "t": 101310.42309375003,
      "d": 76.92149999999674,
      "v": 112
    },
    {
      "midi": 57,
      "hit": false,
      "t": 101425.80534375002,
      "d": 52.8835312500014,
      "v": 112
    },
    {
      "midi": 57,
      "hit": false,
      "t": 101541.18759375002,
      "d": 129.80503124999814,
      "v": 112
    },
    {
      "midi": 69,
      "hit": false,
      "t": 101771.95209375002,
      "d": 62.498718749993714,
      "v": 112
    },
    {
      "midi": 62,
      "hit": false,
      "t": 101771.95209375002,
      "d": 67.30631249998987,
      "v": 112
    },
    {
      "midi": 57,
      "hit": false,
      "t": 102002.71659375002,
      "d": 394.2226875000051,
      "v": 112
    },
    {
      "midi": 62,
      "hit": false,
      "t": 102002.71659375002,
      "d": 403.837875000012,
      "v": 112
    },
    {
      "midi": 65,
      "hit": false,
      "t": 102002.71659375002,
      "d": 451.91381250001723,
      "v": 112
    },
    {
      "midi": 69,
      "hit": false,
      "t": 102002.71659375002,
      "d": 466.33659375002026,
      "v": 112
    },
    {
      "midi": 57,
      "hit": false,
      "t": 102007.5241875,
      "d": 76.92149999999674,
      "v": 112
    },
    {
      "midi": 62,
      "hit": false,
      "t": 102118.09884375,
      "d": 67.30631250000442,
      "v": 112
    },
    {
      "midi": 69,
      "hit": false,
      "t": 102118.09884375,
      "d": 115.38225000000966,
      "v": 112
    },
    {
      "midi": 57,
      "hit": false,
      "t": 102348.86334375001,
      "d": 86.53668750000361,
      "v": 112
    },
    {
      "midi": 69,
      "hit": false,
      "t": 102464.24559375002,
      "d": 57.691124999997555,
      "v": 112
    },
    {
      "midi": 62,
      "hit": false,
      "t": 102464.24559375002,
      "d": 62.498718749993714,
      "v": 112
    },
    {
      "midi": 62,
      "hit": false,
      "t": 102579.62784375002,
      "d": 57.691124999997555,
      "v": 112
    },
    {
      "midi": 69,
      "hit": false,
      "t": 102579.62784375002,
      "d": 76.92149999999674,
      "v": 112
    },
    {
      "midi": 57,
      "hit": false,
      "t": 102695.01009375001,
      "d": 100.95946875000664,
      "v": 112
    },
    {
      "midi": 57,
      "hit": false,
      "t": 102695.01009375004,
      "d": 600.94921875,
      "v": 112
    },
    {
      "midi": 69,
      "hit": false,
      "t": 102695.01009375004,
      "d": 620.1795937499992,
      "v": 112
    },
    {
      "midi": 62,
      "hit": false,
      "t": 102695.01009375004,
      "d": 634.6023750000022,
      "v": 112
    },
    {
      "midi": 65,
      "hit": false,
      "t": 102695.01009375004,
      "d": 634.6023750000022,
      "v": 112
    },
    {
      "midi": 62,
      "hit": false,
      "t": 102805.58475000002,
      "d": 182.68856249999953,
      "v": 112
    },
    {
      "midi": 69,
      "hit": false,
      "t": 102810.39234375002,
      "d": 163.45818750000035,
      "v": 112
    },
    {
      "midi": 57,
      "hit": false,
      "t": 103036.34925000003,
      "d": 96.15187499999593,
      "v": 112
    },
    {
      "midi": 62,
      "hit": false,
      "t": 103156.53909375002,
      "d": 67.30631250000442,
      "v": 112
    },
    {
      "midi": 69,
      "hit": false,
      "t": 103156.53909375002,
      "d": 100.95946875000664,
      "v": 112
    },
    {
      "midi": 57,
      "hit": false,
      "t": 103271.92134375003,
      "d": 96.15187499999593,
      "v": 112
    },
    {
      "midi": 58,
      "hit": false,
      "t": 103387.30359375002,
      "d": 81.7290937499929,
      "v": 112
    },
    {
      "midi": 63,
      "hit": false,
      "t": 103618.06809375001,
      "d": 67.30631249998987,
      "v": 112
    },
    {
      "midi": 58,
      "hit": false,
      "t": 103618.06809375004,
      "d": 274.0328437499993,
      "v": 112
    },
    {
      "midi": 67,
      "hit": false,
      "t": 103618.06809375004,
      "d": 278.84043749999546,
      "v": 112
    },
    {
      "midi": 63,
      "hit": false,
      "t": 103618.06809375004,
      "d": 293.2632187499985,
      "v": 112
    },
    {
      "midi": 70,
      "hit": false,
      "t": 103618.06809375004,
      "d": 293.2632187499985,
      "v": 112
    },
    {
      "midi": 70,
      "hit": false,
      "t": 103622.87568750001,
      "d": 62.498718749993714,
      "v": 112
    },
    {
      "midi": 58,
      "hit": false,
      "t": 103848.83259375,
      "d": 76.92149999999674,
      "v": 112
    },
    {
      "midi": 63,
      "hit": false,
      "t": 103964.21484375,
      "d": 72.11390625000058,
      "v": 112
    },
    {
      "midi": 70,
      "hit": false,
      "t": 103964.21484375,
      "d": 86.53668750000361,
      "v": 112
    },
    {
      "midi": 58,
      "hit": false,
      "t": 104194.97934375,
      "d": 62.498718749993714,
      "v": 112
    },
    {
      "midi": 67,
      "hit": false,
      "t": 104310.36159375004,
      "d": 673.0631250000006,
      "v": 112
    },
    {
      "midi": 63,
      "hit": false,
      "t": 104310.36159375004,
      "d": 725.946656250002,
      "v": 112
    },
    {
      "midi": 70,
      "hit": false,
      "t": 104310.36159375004,
      "d": 725.946656250002,
      "v": 112
    },
    {
      "midi": 58,
      "hit": false,
      "t": 104310.36159375004,
      "d": 754.792218750008,
      "v": 112
    },
    {
      "midi": 63,
      "hit": false,
      "t": 104315.1691875,
      "d": 57.691124999997555,
      "v": 112
    },
    {
      "midi": 70,
      "hit": false,
      "t": 104315.1691875,
      "d": 57.691124999997555,
      "v": 112
    },
    {
      "midi": 63,
      "hit": false,
      "t": 104420.93625,
      "d": 76.92149999999674,
      "v": 112
    },
    {
      "midi": 70,
      "hit": false,
      "t": 104425.74384375,
      "d": 72.11390625000058,
      "v": 112
    },
    {
      "midi": 58,
      "hit": false,
      "t": 104541.12609374999,
      "d": 76.92149999999674,
      "v": 112
    },
    {
      "midi": 63,
      "hit": false,
      "t": 104656.50834374999,
      "d": 86.53668750000361,
      "v": 112
    },
    {
      "midi": 70,
      "hit": false,
      "t": 104656.50834374999,
      "d": 129.80503124999814,
      "v": 112
    },
    {
      "midi": 58,
      "hit": false,
      "t": 104887.27284374999,
      "d": 62.498718749993714,
      "v": 112
    },
    {
      "midi": 63,
      "hit": false,
      "t": 105002.65509374999,
      "d": 62.498718749993714,
      "v": 112
    },
    {
      "midi": 70,
      "hit": false,
      "t": 105002.65509374999,
      "d": 105.76706249998824,
      "v": 112
    },
    {
      "midi": 58,
      "hit": false,
      "t": 105118.03734374998,
      "d": 52.8835312500014,
      "v": 112
    },
    {
      "midi": 65,
      "hit": false,
      "t": 105233.41959375005,
      "d": 423.0682499999966,
      "v": 112
    },
    {
      "midi": 58,
      "hit": false,
      "t": 105233.41959375005,
      "d": 442.2986249999958,
      "v": 112
    },
    {
      "midi": 62,
      "hit": false,
      "t": 105233.41959375005,
      "d": 442.2986249999958,
      "v": 112
    },
    {
      "midi": 70,
      "hit": false,
      "t": 105233.41959375005,
      "d": 442.2986249999958,
      "v": 112
    },
    {
      "midi": 58,
      "hit": false,
      "t": 105238.22718749999,
      "d": 67.30631250000442,
      "v": 112
    },
    {
      "midi": 65,
      "hit": false,
      "t": 105464.18409375,
      "d": 81.7290937499929,
      "v": 112
    },
    {
      "midi": 70,
      "hit": false,
      "t": 105464.18409375,
      "d": 81.7290937499929,
      "v": 112
    },
    {
      "midi": 58,
      "hit": false,
      "t": 105694.94859374998,
      "d": 67.30631250000442,
      "v": 112
    },
    {
      "midi": 65,
      "hit": false,
      "t": 105810.33084375,
      "d": 81.7290937499929,
      "v": 112
    },
    {
      "midi": 70,
      "hit": false,
      "t": 105810.33084375,
      "d": 96.15187499999593,
      "v": 112
    },
    {
      "midi": 62,
      "hit": false,
      "t": 105925.71309375005,
      "d": 807.6757499999949,
      "v": 112
    },
    {
      "midi": 65,
      "hit": false,
      "t": 105925.71309375005,
      "d": 812.483343749991,
      "v": 112
    },
    {
      "midi": 58,
      "hit": false,
      "t": 105925.71309375005,
      "d": 826.9061249999941,
      "v": 112
    },
    {
      "midi": 70,
      "hit": false,
      "t": 105925.71309375005,
      "d": 855.7516875000001,
      "v": 112
    },
    {
      "midi": 58,
      "hit": false,
      "t": 106041.09534374998,
      "d": 76.92149999999674,
      "v": 112
    },
    {
      "midi": 68,
      "hit": false,
      "t": 106156.47759374998,
      "d": 4.807593749996158,
      "v": 112
    },
    {
      "midi": 70,
      "hit": false,
      "t": 106156.47759374998,
      "d": 62.498718749993714,
      "v": 112
    },
    {
      "midi": 65,
      "hit": false,
      "t": 106156.47759374998,
      "d": 67.30631249998987,
      "v": 112
    },
    {
      "midi": 65,
      "hit": false,
      "t": 106267.05224999996,
      "d": 67.30631249998987,
      "v": 112
    },
    {
      "midi": 70,
      "hit": false,
      "t": 106271.85984374996,
      "d": 76.92149999999674,
      "v": 112
    },
    {
      "midi": 58,
      "hit": false,
      "t": 106387.24209374996,
      "d": 81.7290937499929,
      "v": 112
    },
    {
      "midi": 70,
      "hit": false,
      "t": 106497.81674999995,
      "d": 76.92149999999674,
      "v": 112
    },
    {
      "midi": 65,
      "hit": false,
      "t": 106502.62434374995,
      "d": 72.11390625000058,
      "v": 112
    },
    {
      "midi": 58,
      "hit": false,
      "t": 106728.58124999994,
      "d": 67.30631250000442,
      "v": 112
    },
    {
      "midi": 65,
      "hit": false,
      "t": 106848.77109374995,
      "d": 72.11390625000058,
      "v": 112
    },
    {
      "midi": 70,
      "hit": false,
      "t": 106848.77109374995,
      "d": 76.92149999999674,
      "v": 112
    },
    {
      "midi": 58,
      "hit": false,
      "t": 106959.34574999995,
      "d": 91.34428124999977,
      "v": 112
    },
    {
      "midi": 60,
      "hit": false,
      "t": 107079.53559374996,
      "d": 81.7290937499929,
      "v": 112
    },
    {
      "midi": 67,
      "hit": false,
      "t": 107310.30009374995,
      "d": 72.11390625000058,
      "v": 112
    },
    {
      "midi": 60,
      "hit": false,
      "t": 107310.30009375005,
      "d": 245.18728124999325,
      "v": 112
    },
    {
      "midi": 65,
      "hit": false,
      "t": 107310.30009375005,
      "d": 259.6100624999963,
      "v": 112
    },
    {
      "midi": 67,
      "hit": false,
      "t": 107310.30009375005,
      "d": 259.6100624999963,
      "v": 112
    },
    {
      "midi": 72,
      "hit": false,
      "t": 107310.30009375005,
      "d": 259.6100624999963,
      "v": 112
    },
    {
      "midi": 65,
      "hit": false,
      "t": 107315.10768749994,
      "d": 67.30631250000442,
      "v": 112
    },
    {
      "midi": 72,
      "hit": false,
      "t": 107315.10768749994,
      "d": 100.95946875000664,
      "v": 112
    },
    {
      "midi": 60,
      "hit": false,
      "t": 107541.06459374995,
      "d": 81.7290937499929,
      "v": 112
    },
    {
      "midi": 67,
      "hit": false,
      "t": 107656.44684374995,
      "d": 76.92149999999674,
      "v": 112
    },
    {
      "midi": 65,
      "hit": false,
      "t": 107656.44684374995,
      "d": 105.7670625000028,
      "v": 112
    },
    {
      "midi": 72,
      "hit": false,
      "t": 107656.44684374995,
      "d": 105.7670625000028,
      "v": 112
    },
    {
      "midi": 60,
      "hit": false,
      "t": 107887.21134374995,
      "d": 67.30631250000442,
      "v": 112
    },
    {
      "midi": 60,
      "hit": false,
      "t": 108002.59359375005,
      "d": 456.72140624999884,
      "v": 112
    },
    {
      "midi": 65,
      "hit": false,
      "t": 108002.59359375005,
      "d": 649.0251562500052,
      "v": 112
    },
    {
      "midi": 67,
      "hit": false,
      "t": 108002.59359375005,
      "d": 663.4479375000083,
      "v": 112
    },
    {
      "midi": 72,
      "hit": false,
      "t": 108002.59359375005,
      "d": 721.1390625000058,
      "v": 112
    },
    {
      "midi": 65,
      "hit": false,
      "t": 108007.40118749996,
      "d": 28.845562500006054,
      "v": 112
    },
    {
      "midi": 72,
      "hit": false,
      "t": 108007.40118749996,
      "d": 33.65315625000221,
      "v": 112
    },
    {
      "midi": 67,
      "hit": false,
      "t": 108007.40118749996,
      "d": 57.691124999997555,
      "v": 112
    },
    {
      "midi": 65,
      "hit": false,
      "t": 108113.16824999996,
      "d": 86.53668749998906,
      "v": 112
    },
    {
      "midi": 67,
      "hit": false,
      "t": 108113.16824999996,
      "d": 86.53668749998906,
      "v": 112
    },
    {
      "midi": 72,
      "hit": false,
      "t": 108117.97584374995,
      "d": 81.7290937499929,
      "v": 112
    },
    {
      "midi": 60,
      "hit": false,
      "t": 108233.35809374995,
      "d": 57.691124999997555,
      "v": 112
    },
    {
      "midi": 65,
      "hit": false,
      "t": 108348.74034374995,
      "d": 134.6126249999943,
      "v": 112
    },
    {
      "midi": 67,
      "hit": false,
      "t": 108348.74034374995,
      "d": 149.03540624999732,
      "v": 112
    },
    {
      "midi": 72,
      "hit": false,
      "t": 108348.74034374995,
      "d": 149.03540624999732,
      "v": 112
    },
    {
      "midi": 60,
      "hit": false,
      "t": 108579.50484374994,
      "d": 67.30631250000442,
      "v": 112
    },
    {
      "midi": 65,
      "hit": false,
      "t": 108694.88709374995,
      "d": 76.92149999999674,
      "v": 112
    },
    {
      "midi": 67,
      "hit": false,
      "t": 108694.88709374995,
      "d": 81.7290937499929,
      "v": 112
    },
    {
      "midi": 72,
      "hit": false,
      "t": 108699.69468749994,
      "d": 72.11390625000058,
      "v": 112
    },
    {
      "midi": 60,
      "hit": false,
      "t": 108810.26934374994,
      "d": 81.7290937499929,
      "v": 112
    },
    {
      "midi": 67,
      "hit": false,
      "t": 108925.65159375005,
      "d": 177.88096875000338,
      "v": 112
    },
    {
      "midi": 72,
      "hit": false,
      "t": 108925.65159375005,
      "d": 177.88096875000338,
      "v": 112
    },
    {
      "midi": 64,
      "hit": false,
      "t": 108925.65159375005,
      "d": 230.76450000000477,
      "v": 112
    },
    {
      "midi": 72,
      "hit": false,
      "t": 108930.45918749993,
      "d": 331.72396874999686,
      "v": 112
    },
    {
      "midi": 67,
      "hit": false,
      "t": 108930.45918749993,
      "d": 336.531562499993,
      "v": 112
    },
    {
      "midi": 64,
      "hit": false,
      "t": 108930.45918749993,
      "d": 355.7619374999922,
      "v": 112
    },
    {
      "midi": 60,
      "hit": false,
      "t": 109617.94509374992,
      "d": 120.18984375000582,
      "v": 112
    },
    {
      "midi": 64,
      "hit": false,
      "t": 109617.94509374992,
      "d": 149.03540625001187,
      "v": 112
    },
    {
      "midi": 60,
      "hit": false,
      "t": 109617.94509375005,
      "d": 110.57465624999895,
      "v": 112
    },
    {
      "midi": 64,
      "hit": false,
      "t": 109617.94509375005,
      "d": 149.03540624999732,
      "v": 112
    },
    {
      "midi": 48,
      "hit": false,
      "t": 109617.94509375005,
      "d": 168.2657812499965,
      "v": 112
    },
    {
      "midi": 65,
      "hit": false,
      "t": 109848.70959374993,
      "d": 336.53156250000757,
      "v": 112
    },
    {
      "midi": 62,
      "hit": false,
      "t": 109848.70959375004,
      "d": 336.531562499993,
      "v": 112
    },
    {
      "midi": 65,
      "hit": false,
      "t": 109848.70959375004,
      "d": 394.22268749999057,
      "v": 112
    },
    {
      "midi": 50,
      "hit": false,
      "t": 109848.70959375004,
      "d": 427.8758437499928,
      "v": 112
    },
    {
      "midi": 62,
      "hit": false,
      "t": 109853.51718749992,
      "d": 302.87840625000536,
      "v": 112
    },
    {
      "midi": 64,
      "hit": false,
      "t": 110310.23859374993,
      "d": 216.34171875000175,
      "v": 112
    },
    {
      "midi": 64,
      "hit": false,
      "t": 110310.23859375004,
      "d": 302.87840625000536,
      "v": 112
    },
    {
      "midi": 67,
      "hit": false,
      "t": 110310.23859375004,
      "d": 336.53156250000757,
      "v": 112
    },
    {
      "midi": 52,
      "hit": false,
      "t": 110310.23859375004,
      "d": 374.99231250000594,
      "v": 112
    },
    {
      "midi": 67,
      "hit": false,
      "t": 110315.04618749993,
      "d": 192.3037500000064,
      "v": 112
    },
    {
      "midi": 53,
      "hit": false,
      "t": 110771.76759375005,
      "d": 67.30631249998987,
      "v": 112
    },
    {
      "midi": 29,
      "hit": false,
      "t": 110771.76759375005,
      "d": 91.34428124998522,
      "v": 112
    },
    {
      "midi": 65,
      "hit": false,
      "t": 110776.57518749994,
      "d": 57.691124999997555,
      "v": 112
    },
    {
      "midi": 69,
      "hit": false,
      "t": 110776.57518749994,
      "d": 62.498718749993714,
      "v": 112
    },
    {
      "midi": 60,
      "hit": false,
      "t": 110776.57518749994,
      "d": 67.30631249998987,
      "v": 112
    },
    {
      "midi": 60,
      "hit": false,
      "t": 110776.57518750004,
      "d": 38.46074999999837,
      "v": 112
    },
    {
      "midi": 65,
      "hit": false,
      "t": 110776.57518750004,
      "d": 38.46074999999837,
      "v": 112
    },
    {
      "midi": 69,
      "hit": false,
      "t": 110776.57518750004,
      "d": 38.46074999999837,
      "v": 112
    },
    {
      "midi": 60,
      "hit": false,
      "t": 111002.53209375004,
      "d": 72.11390625000058,
      "v": 112
    },
    {
      "midi": 65,
      "hit": false,
      "t": 111002.53209375004,
      "d": 72.11390625000058,
      "v": 112
    },
    {
      "midi": 69,
      "hit": false,
      "t": 111002.53209375004,
      "d": 72.11390625000058,
      "v": 112
    },
    {
      "midi": 53,
      "hit": false,
      "t": 111002.53209375004,
      "d": 105.7670625000028,
      "v": 112
    },
    {
      "midi": 29,
      "hit": false,
      "t": 111002.53209375004,
      "d": 120.18984375000582,
      "v": 112
    },
    {
      "midi": 60,
      "hit": false,
      "t": 111007.33968749993,
      "d": 72.11390625000058,
      "v": 112
    },
    {
      "midi": 65,
      "hit": false,
      "t": 111007.33968749993,
      "d": 72.11390625000058,
      "v": 112
    },
    {
      "midi": 69,
      "hit": false,
      "t": 111007.33968749993,
      "d": 72.11390625000058,
      "v": 112
    },
    {
      "midi": 29,
      "hit": false,
      "t": 111343.87125000004,
      "d": 110.5746562499844,
      "v": 112
    },
    {
      "midi": 60,
      "hit": false,
      "t": 111348.67884374993,
      "d": 62.498718749993714,
      "v": 112
    },
    {
      "midi": 65,
      "hit": false,
      "t": 111348.67884374993,
      "d": 86.53668749998906,
      "v": 112
    },
    {
      "midi": 69,
      "hit": false,
      "t": 111348.67884375004,
      "d": 76.92149999999674,
      "v": 112
    },
    {
      "midi": 60,
      "hit": false,
      "t": 111348.67884375004,
      "d": 81.7290937499929,
      "v": 112
    },
    {
      "midi": 65,
      "hit": false,
      "t": 111348.67884375004,
      "d": 81.7290937499929,
      "v": 112
    },
    {
      "midi": 53,
      "hit": false,
      "t": 111348.67884375004,
      "d": 86.53668749998906,
      "v": 112
    },
    {
      "midi": 69,
      "hit": false,
      "t": 111353.48643749993,
      "d": 57.691124999997555,
      "v": 112
    },
    {
      "midi": 65,
      "hit": false,
      "t": 111579.44334374992,
      "d": 76.92149999999674,
      "v": 112
    },
    {
      "midi": 69,
      "hit": false,
      "t": 111579.44334374992,
      "d": 81.7290937499929,
      "v": 112
    },
    {
      "midi": 29,
      "hit": false,
      "t": 111579.44334375003,
      "d": 62.498718749993714,
      "v": 112
    },
    {
      "midi": 60,
      "hit": false,
      "t": 111584.25093749992,
      "d": 72.11390625000058,
      "v": 112
    },
    {
      "midi": 53,
      "hit": false,
      "t": 111694.82559375002,
      "d": 91.34428124999977,
      "v": 112
    },
    {
      "midi": 60,
      "hit": false,
      "t": 111694.82559375002,
      "d": 105.7670625000028,
      "v": 112
    },
    {
      "midi": 29,
      "hit": false,
      "t": 111694.82559375002,
      "d": 124.99743750000198,
      "v": 112
    },
    {
      "midi": 60,
      "hit": false,
      "t": 111699.63318749992,
      "d": 76.92149999999674,
      "v": 112
    },
    {
      "midi": 65,
      "hit": false,
      "t": 111699.63318749992,
      "d": 96.15187499999593,
      "v": 112
    },
    {
      "midi": 69,
      "hit": false,
      "t": 111699.63318749992,
      "d": 124.99743750000198,
      "v": 112
    },
    {
      "midi": 65,
      "hit": false,
      "t": 111699.63318750002,
      "d": 100.95946875000664,
      "v": 112
    },
    {
      "midi": 69,
      "hit": false,
      "t": 111699.63318750002,
      "d": 120.18984375000582,
      "v": 112
    },
    {
      "midi": 29,
      "hit": false,
      "t": 112387.11909375002,
      "d": 86.53668750000361,
      "v": 112
    },
    {
      "midi": 31,
      "hit": false,
      "t": 112502.50134375003,
      "d": 124.99743749998743,
      "v": 112
    },
    {
      "midi": 60,
      "hit": false,
      "t": 112617.88359375003,
      "d": 76.92149999999674,
      "v": 112
    },
    {
      "midi": 67,
      "hit": false,
      "t": 112617.88359375003,
      "d": 76.92149999999674,
      "v": 112
    },
    {
      "midi": 33,
      "hit": false,
      "t": 112617.88359375003,
      "d": 129.80503124999814,
      "v": 112
    },
    {
      "midi": 64,
      "hit": false,
      "t": 112622.69118749992,
      "d": 67.30631250000442,
      "v": 112
    },
    {
      "midi": 57,
      "hit": false,
      "t": 112622.69118749992,
      "d": 76.92150000001129,
      "v": 112
    },
    {
      "midi": 60,
      "hit": false,
      "t": 112622.69118749992,
      "d": 76.92150000001129,
      "v": 112
    },
    {
      "midi": 67,
      "hit": false,
      "t": 112622.69118749992,
      "d": 76.92150000001129,
      "v": 112
    },
    {
      "midi": 64,
      "hit": false,
      "t": 112622.69118750002,
      "d": 72.11390625000058,
      "v": 112
    },
    {
      "midi": 60,
      "hit": false,
      "t": 112848.64809375003,
      "d": 76.92149999999674,
      "v": 112
    },
    {
      "midi": 64,
      "hit": false,
      "t": 112848.64809375003,
      "d": 76.92149999999674,
      "v": 112
    },
    {
      "midi": 67,
      "hit": false,
      "t": 112848.64809375003,
      "d": 76.92149999999674,
      "v": 112
    },
    {
      "midi": 33,
      "hit": false,
      "t": 112848.64809375003,
      "d": 129.80503124999814,
      "v": 112
    },
    {
      "midi": 60,
      "hit": false,
      "t": 112853.45568749993,
      "d": 91.34428124999977,
      "v": 112
    },
    {
      "midi": 64,
      "hit": false,
      "t": 112853.45568749993,
      "d": 91.34428124999977,
      "v": 112
    },
    {
      "midi": 57,
      "hit": false,
      "t": 112853.45568749993,
      "d": 96.15187499999593,
      "v": 112
    },
    {
      "midi": 67,
      "hit": false,
      "t": 112853.45568749993,
      "d": 96.15187499999593,
      "v": 112
    },
    {
      "midi": 64,
      "hit": false,
      "t": 113194.79484374991,
      "d": 81.7290937499929,
      "v": 112
    },
    {
      "midi": 57,
      "hit": false,
      "t": 113194.79484374991,
      "d": 86.53668749998906,
      "v": 112
    },
    {
      "midi": 67,
      "hit": false,
      "t": 113194.79484374991,
      "d": 91.34428124998522,
      "v": 112
    },
    {
      "midi": 67,
      "hit": false,
      "t": 113194.79484375003,
      "d": 76.92149999999674,
      "v": 112
    },
    {
      "midi": 64,
      "hit": false,
      "t": 113194.79484375003,
      "d": 81.7290937499929,
      "v": 112
    },
    {
      "midi": 60,
      "hit": false,
      "t": 113194.79484375003,
      "d": 100.95946874999208,
      "v": 112
    },
    {
      "midi": 33,
      "hit": false,
      "t": 113194.79484375003,
      "d": 124.99743749998743,
      "v": 112
    },
    {
      "midi": 60,
      "hit": false,
      "t": 113199.60243749991,
      "d": 81.7290937499929,
      "v": 112
    },
    {
      "midi": 57,
      "hit": false,
      "t": 113425.5593437499,
      "d": 48.07593750000524,
      "v": 112
    },
    {
      "midi": 60,
      "hit": false,
      "t": 113425.5593437499,
      "d": 57.69112500001211,
      "v": 112
    },
    {
      "midi": 64,
      "hit": false,
      "t": 113425.5593437499,
      "d": 57.69112500001211,
      "v": 112
    },
    {
      "midi": 67,
      "hit": false,
      "t": 113425.5593437499,
      "d": 57.69112500001211,
      "v": 112
    },
    {
      "midi": 33,
      "hit": false,
      "t": 113425.55934375002,
      "d": 57.691124999997555,
      "v": 112
    },
    {
      "midi": 60,
      "hit": false,
      "t": 113540.94159375002,
      "d": 96.15187499999593,
      "v": 112
    },
    {
      "midi": 64,
      "hit": false,
      "t": 113540.94159375002,
      "d": 96.15187499999593,
      "v": 112
    },
    {
      "midi": 33,
      "hit": false,
      "t": 113540.94159375002,
      "d": 144.2278124999866,
      "v": 112
    },
    {
      "midi": 60,
      "hit": false,
      "t": 113545.74918749991,
      "d": 48.07593750000524,
      "v": 112
    },
    {
      "midi": 64,
      "hit": false,
      "t": 113545.74918749991,
      "d": 48.07593750000524,
      "v": 112
    },
    {
      "midi": 57,
      "hit": false,
      "t": 113545.74918749991,
      "d": 52.8835312500014,
      "v": 112
    },
    {
      "midi": 67,
      "hit": false,
      "t": 113545.74918749991,
      "d": 52.8835312500014,
      "v": 112
    },
    {
      "midi": 67,
      "hit": false,
      "t": 113545.74918750001,
      "d": 96.15187499999593,
      "v": 112
    },
    {
      "midi": 58,
      "hit": false,
      "t": 114463.99959375,
      "d": 86.53668749998906,
      "v": 112
    },
    {
      "midi": 34,
      "hit": false,
      "t": 114463.99959375,
      "d": 105.76706249998824,
      "v": 112
    },
    {
      "midi": 58,
      "hit": false,
      "t": 114468.80718749992,
      "d": 57.691124999997555,
      "v": 112
    },
    {
      "midi": 62,
      "hit": false,
      "t": 114468.80718749992,
      "d": 57.691124999997555,
      "v": 112
    },
    {
      "midi": 65,
      "hit": false,
      "t": 114468.80718749992,
      "d": 62.498718749993714,
      "v": 112
    },
    {
      "midi": 62,
      "hit": false,
      "t": 114468.8071875,
      "d": 62.498718749993714,
      "v": 112
    },
    {
      "midi": 65,
      "hit": false,
      "t": 114468.8071875,
      "d": 76.92149999999674,
      "v": 112
    },
    {
      "midi": 58,
      "hit": false,
      "t": 114694.76409375,
      "d": 86.53668750000361,
      "v": 112
    },
    {
      "midi": 62,
      "hit": false,
      "t": 114694.76409375,
      "d": 86.53668750000361,
      "v": 112
    },
    {
      "midi": 65,
      "hit": false,
      "t": 114694.76409375,
      "d": 86.53668750000361,
      "v": 112
    },
    {
      "midi": 34,
      "hit": false,
      "t": 114694.76409375,
      "d": 115.38225000000966,
      "v": 112
    },
    {
      "midi": 58,
      "hit": false,
      "t": 114699.5716874999,
      "d": 33.65315625000221,
      "v": 112
    },
    {
      "midi": 65,
      "hit": false,
      "t": 114699.5716874999,
      "d": 67.30631250000442,
      "v": 112
    },
    {
      "midi": 62,
      "hit": false,
      "t": 114699.5716874999,
      "d": 76.92150000001129,
      "v": 112
    },
    {
      "midi": 62,
      "hit": false,
      "t": 115040.91084374992,
      "d": 76.92149999999674,
      "v": 112
    },
    {
      "midi": 62,
      "hit": false,
      "t": 115040.91084375001,
      "d": 62.498718749993714,
      "v": 112
    },
    {
      "midi": 65,
      "hit": false,
      "t": 115040.91084375001,
      "d": 62.498718749993714,
      "v": 112
    },
    {
      "midi": 34,
      "hit": false,
      "t": 115040.91084375001,
      "d": 96.15187499999593,
      "v": 112
    },
    {
      "midi": 58,
      "hit": false,
      "t": 115040.91084375001,
      "d": 96.15187499999593,
      "v": 112
    },
    {
      "midi": 58,
      "hit": false,
      "t": 115045.71843749992,
      "d": 67.30631250000442,
      "v": 112
    },
    {
      "midi": 65,
      "hit": false,
      "t": 115045.71843749992,
      "d": 72.11390625000058,
      "v": 112
    },
    {
      "midi": 65,
      "hit": false,
      "t": 115271.67534374991,
      "d": 33.65315625000221,
      "v": 112
    },
    {
      "midi": 58,
      "hit": false,
      "t": 115271.67534374991,
      "d": 57.691124999997555,
      "v": 112
    },
    {
      "midi": 62,
      "hit": false,
      "t": 115271.67534374991,
      "d": 72.11390625000058,
      "v": 112
    },
    {
      "midi": 34,
      "hit": false,
      "t": 115271.67534375,
      "d": 52.8835312500014,
      "v": 112
    },
    {
      "midi": 62,
      "hit": false,
      "t": 115387.05759375,
      "d": 81.7290937499929,
      "v": 112
    },
    {
      "midi": 58,
      "hit": false,
      "t": 115387.05759375,
      "d": 86.53668749998906,
      "v": 112
    },
    {
      "midi": 34,
      "hit": false,
      "t": 115387.05759375,
      "d": 129.80503124999814,
      "v": 112
    },
    {
      "midi": 58,
      "hit": false,
      "t": 115391.86518749992,
      "d": 76.92149999999674,
      "v": 112
    },
    {
      "midi": 62,
      "hit": false,
      "t": 115391.86518749992,
      "d": 76.92149999999674,
      "v": 112
    },
    {
      "midi": 65,
      "hit": false,
      "t": 115391.86518749992,
      "d": 81.7290937499929,
      "v": 112
    },
    {
      "midi": 65,
      "hit": false,
      "t": 115391.86518749999,
      "d": 96.15187499999593,
      "v": 112
    },
    {
      "midi": 65,
      "hit": false,
      "t": 116310.11559375,
      "d": 67.30631249998987,
      "v": 112
    },
    {
      "midi": 34,
      "hit": false,
      "t": 116310.11559375,
      "d": 72.11390624998603,
      "v": 112
    },
    {
      "midi": 65,
      "hit": false,
      "t": 116314.92318749991,
      "d": 28.845562500006054,
      "v": 112
    },
    {
      "midi": 58,
      "hit": false,
      "t": 116314.92318749991,
      "d": 52.8835312500014,
      "v": 112
    },
    {
      "midi": 62,
      "hit": false,
      "t": 116314.92318749991,
      "d": 57.691124999997555,
      "v": 112
    },
    {
      "midi": 58,
      "hit": false,
      "t": 116314.9231875,
      "d": 62.498718749993714,
      "v": 112
    },
    {
      "midi": 62,
      "hit": false,
      "t": 116314.9231875,
      "d": 62.498718749993714,
      "v": 112
    },
    {
      "midi": 58,
      "hit": false,
      "t": 116540.88009374999,
      "d": 48.07593750000524,
      "v": 112
    },
    {
      "midi": 34,
      "hit": false,
      "t": 116540.88009374999,
      "d": 86.53668750000361,
      "v": 112
    },
    {
      "midi": 62,
      "hit": false,
      "t": 116540.88009374999,
      "d": 86.53668750000361,
      "v": 112
    },
    {
      "midi": 65,
      "hit": false,
      "t": 116540.88009374999,
      "d": 86.53668750000361,
      "v": 112
    },
    {
      "midi": 58,
      "hit": false,
      "t": 116545.68768749991,
      "d": 52.8835312500014,
      "v": 112
    },
    {
      "midi": 65,
      "hit": false,
      "t": 116545.68768749991,
      "d": 62.498718750008265,
      "v": 112
    },
    {
      "midi": 62,
      "hit": false,
      "t": 116545.68768749991,
      "d": 67.30631250000442,
      "v": 112
    },
    {
      "midi": 58,
      "hit": false,
      "t": 116887.02684374992,
      "d": 72.11390625000058,
      "v": 112
    },
    {
      "midi": 65,
      "hit": false,
      "t": 116887.02684374992,
      "d": 72.11390625000058,
      "v": 112
    },
    {
      "midi": 62,
      "hit": false,
      "t": 116887.02684374992,
      "d": 76.92149999999674,
      "v": 112
    },
    {
      "midi": 62,
      "hit": false,
      "t": 116887.02684374999,
      "d": 76.92149999999674,
      "v": 112
    },
    {
      "midi": 34,
      "hit": false,
      "t": 116887.02684374999,
      "d": 100.95946874999208,
      "v": 112
    },
    {
      "midi": 65,
      "hit": false,
      "t": 116887.02684374999,
      "d": 100.95946874999208,
      "v": 112
    },
    {
      "midi": 58,
      "hit": false,
      "t": 116887.02684374999,
      "d": 105.76706249998824,
      "v": 112
    },
    {
      "midi": 58,
      "hit": false,
      "t": 117117.79134374991,
      "d": 38.46074999999837,
      "v": 112
    },
    {
      "midi": 62,
      "hit": false,
      "t": 117117.79134374991,
      "d": 76.92149999999674,
      "v": 112
    },
    {
      "midi": 65,
      "hit": false,
      "t": 117117.79134374991,
      "d": 76.92149999999674,
      "v": 112
    },
    {
      "midi": 34,
      "hit": false,
      "t": 117117.79134374998,
      "d": 48.07593750000524,
      "v": 112
    },
    {
      "midi": 65,
      "hit": false,
      "t": 117233.17359374999,
      "d": 81.7290937499929,
      "v": 112
    },
    {
      "midi": 58,
      "hit": false,
      "t": 117233.17359374999,
      "d": 91.34428124999977,
      "v": 112
    },
    {
      "midi": 34,
      "hit": false,
      "t": 117233.17359374999,
      "d": 144.22781250000116,
      "v": 112
    },
    {
      "midi": 58,
      "hit": false,
      "t": 117237.9811874999,
      "d": 72.11390625000058,
      "v": 112
    },
    {
      "midi": 62,
      "hit": false,
      "t": 117237.9811874999,
      "d": 81.72909375000745,
      "v": 112
    },
    {
      "midi": 65,
      "hit": false,
      "t": 117237.9811874999,
      "d": 81.72909375000745,
      "v": 112
    },
    {
      "midi": 62,
      "hit": false,
      "t": 117237.98118749999,
      "d": 76.92149999999674,
      "v": 112
    },
    {
      "midi": 29,
      "hit": false,
      "t": 118156.23159375,
      "d": 120.18984374999127,
      "v": 112
    },
    {
      "midi": 65,
      "hit": false,
      "t": 118161.0391874999,
      "d": 28.8455624999915,
      "v": 112
    },
    {
      "midi": 60,
      "hit": false,
      "t": 118161.0391874999,
      "d": 67.30631249998987,
      "v": 112
    },
    {
      "midi": 57,
      "hit": false,
      "t": 118161.03918749999,
      "d": 72.11390625000058,
      "v": 112
    },
    {
      "midi": 60,
      "hit": false,
      "t": 118161.03918749999,
      "d": 72.11390625000058,
      "v": 112
    },
    {
      "midi": 65,
      "hit": false,
      "t": 118161.03918749999,
      "d": 76.92149999999674,
      "v": 112
    },
    {
      "midi": 69,
      "hit": false,
      "t": 118161.03918749999,
      "d": 76.92149999999674,
      "v": 112
    },
    {
      "midi": 69,
      "hit": false,
      "t": 118165.8467812499,
      "d": 62.498718749993714,
      "v": 112
    },
    {
      "midi": 60,
      "hit": false,
      "t": 118386.99609374999,
      "d": 57.691124999997555,
      "v": 112
    },
    {
      "midi": 65,
      "hit": false,
      "t": 118386.99609374999,
      "d": 57.691124999997555,
      "v": 112
    },
    {
      "midi": 57,
      "hit": false,
      "t": 118386.99609374999,
      "d": 81.7290937499929,
      "v": 112
    },
    {
      "midi": 29,
      "hit": false,
      "t": 118386.99609374999,
      "d": 110.57465624999895,
      "v": 112
    },
    {
      "midi": 60,
      "hit": false,
      "t": 118391.8036874999,
      "d": 67.30631250000442,
      "v": 112
    },
    {
      "midi": 65,
      "hit": false,
      "t": 118391.8036874999,
      "d": 67.30631250000442,
      "v": 112
    },
    {
      "midi": 69,
      "hit": false,
      "t": 118391.8036874999,
      "d": 67.30631250000442,
      "v": 112
    },
    {
      "midi": 69,
      "hit": false,
      "t": 118391.80368749998,
      "d": 57.691124999997555,
      "v": 112
    },
    {
      "midi": 65,
      "hit": false,
      "t": 118733.1428437499,
      "d": 38.46074999999837,
      "v": 112
    },
    {
      "midi": 60,
      "hit": false,
      "t": 118733.1428437499,
      "d": 72.11390625000058,
      "v": 112
    },
    {
      "midi": 57,
      "hit": false,
      "t": 118733.14284374999,
      "d": 91.34428124999977,
      "v": 112
    },
    {
      "midi": 65,
      "hit": false,
      "t": 118733.14284374999,
      "d": 91.34428124999977,
      "v": 112
    },
    {
      "midi": 60,
      "hit": false,
      "t": 118733.14284374999,
      "d": 96.15187499999593,
      "v": 112
    },
    {
      "midi": 69,
      "hit": false,
      "t": 118733.14284374999,
      "d": 96.15187499999593,
      "v": 112
    },
    {
      "midi": 29,
      "hit": false,
      "t": 118733.14284374999,
      "d": 110.57465624999895,
      "v": 112
    },
    {
      "midi": 69,
      "hit": false,
      "t": 118737.9504374999,
      "d": 67.30631250000442,
      "v": 112
    },
    {
      "midi": 60,
      "hit": false,
      "t": 118963.9073437499,
      "d": 38.46074999999837,
      "v": 112
    },
    {
      "midi": 65,
      "hit": false,
      "t": 118963.9073437499,
      "d": 38.46074999999837,
      "v": 112
    },
    {
      "midi": 69,
      "hit": false,
      "t": 118963.9073437499,
      "d": 38.46074999999837,
      "v": 112
    },
    {
      "midi": 29,
      "hit": false,
      "t": 118963.90734374999,
      "d": 62.498718749993714,
      "v": 112
    },
    {
      "midi": 57,
      "hit": false,
      "t": 119079.28959374999,
      "d": 91.34428124999977,
      "v": 112
    },
    {
      "midi": 29,
      "hit": false,
      "t": 119079.28959374999,
      "d": 105.7670625000028,
      "v": 112
    },
    {
      "midi": 60,
      "hit": false,
      "t": 119079.28959374999,
      "d": 110.57465624999895,
      "v": 112
    },
    {
      "midi": 60,
      "hit": false,
      "t": 119084.0971874999,
      "d": 76.92149999999674,
      "v": 112
    },
    {
      "midi": 65,
      "hit": false,
      "t": 119084.0971874999,
      "d": 76.92149999999674,
      "v": 112
    },
    {
      "midi": 69,
      "hit": false,
      "t": 119084.0971874999,
      "d": 96.15187499999593,
      "v": 112
    },
    {
      "midi": 65,
      "hit": false,
      "t": 119084.09718749998,
      "d": 86.53668750000361,
      "v": 112
    },
    {
      "midi": 69,
      "hit": false,
      "t": 119084.09718749998,
      "d": 105.7670625000028,
      "v": 112
    },
    {
      "midi": 29,
      "hit": false,
      "t": 119771.58309374998,
      "d": 76.92149999999674,
      "v": 112
    },
    {
      "midi": 31,
      "hit": false,
      "t": 119886.96534374998,
      "d": 91.34428124999977,
      "v": 112
    },
    {
      "midi": 64,
      "hit": false,
      "t": 120002.34759374998,
      "d": 76.92149999999674,
      "v": 112
    },
    {
      "midi": 33,
      "hit": false,
      "t": 120002.34759374998,
      "d": 100.95946874999208,
      "v": 112
    },
    {
      "midi": 64,
      "hit": false,
      "t": 120007.15518749988,
      "d": 52.8835312500014,
      "v": 112
    },
    {
      "midi": 67,
      "hit": false,
      "t": 120007.15518749988,
      "d": 57.691124999997555,
      "v": 112
    },
    {
      "midi": 60,
      "hit": false,
      "t": 120007.15518749988,
      "d": 62.498718749993714,
      "v": 112
    },
    {
      "midi": 60,
      "hit": false,
      "t": 120007.15518749997,
      "d": 67.30631250000442,
      "v": 112
    },
    {
      "midi": 67,
      "hit": false,
      "t": 120007.15518749997,
      "d": 67.30631250000442,
      "v": 112
    },
    {
      "midi": 57,
      "hit": false,
      "t": 120007.15518749997,
      "d": 72.11390625000058,
      "v": 112
    },
    {
      "midi": 60,
      "hit": false,
      "t": 120233.11209374997,
      "d": 81.7290937499929,
      "v": 112
    },
    {
      "midi": 64,
      "hit": false,
      "t": 120233.11209374997,
      "d": 86.53668749998906,
      "v": 112
    },
    {
      "midi": 67,
      "hit": false,
      "t": 120233.11209374997,
      "d": 86.53668749998906,
      "v": 112
    },
    {
      "midi": 57,
      "hit": false,
      "t": 120233.11209374997,
      "d": 91.34428124998522,
      "v": 112
    },
    {
      "midi": 33,
      "hit": false,
      "t": 120233.11209374997,
      "d": 100.95946874999208,
      "v": 112
    },
    {
      "midi": 64,
      "hit": false,
      "t": 120237.91968749987,
      "d": 67.30631250000442,
      "v": 112
    },
    {
      "midi": 60,
      "hit": false,
      "t": 120237.91968749987,
      "d": 72.11390625000058,
      "v": 112
    },
    {
      "midi": 67,
      "hit": false,
      "t": 120237.91968749987,
      "d": 72.11390625000058,
      "v": 112
    },
    {
      "midi": 60,
      "hit": false,
      "t": 120579.25884374988,
      "d": 33.65315625000221,
      "v": 112
    },
    {
      "midi": 64,
      "hit": false,
      "t": 120579.25884374988,
      "d": 43.26834375000908,
      "v": 112
    },
    {
      "midi": 60,
      "hit": false,
      "t": 120579.25884374995,
      "d": 91.34428124999977,
      "v": 112
    },
    {
      "midi": 57,
      "hit": false,
      "t": 120579.25884374995,
      "d": 96.15187499999593,
      "v": 112
    },
    {
      "midi": 64,
      "hit": false,
      "t": 120579.25884374995,
      "d": 96.15187499999593,
      "v": 112
    },
    {
      "midi": 67,
      "hit": false,
      "t": 120579.25884374995,
      "d": 96.15187499999593,
      "v": 112
    },
    {
      "midi": 33,
      "hit": false,
      "t": 120579.25884374995,
      "d": 100.95946874999208,
      "v": 112
    },
    {
      "midi": 67,
      "hit": false,
      "t": 120584.06643749987,
      "d": 28.845562500006054,
      "v": 112
    },
    {
      "midi": 60,
      "hit": false,
      "t": 120810.02334374988,
      "d": 28.845562500006054,
      "v": 112
    },
    {
      "midi": 64,
      "hit": false,
      "t": 120810.02334374988,
      "d": 48.07593750000524,
      "v": 112
    },
    {
      "midi": 33,
      "hit": false,
      "t": 120810.02334374994,
      "d": 48.07593750000524,
      "v": 112
    },
    {
      "midi": 67,
      "hit": false,
      "t": 120925.40559374995,
      "d": 120.18984374999127,
      "v": 112
    },
    {
      "midi": 33,
      "hit": false,
      "t": 120925.40559374995,
      "d": 129.80503124999814,
      "v": 112
    },
    {
      "midi": 60,
      "hit": false,
      "t": 120930.21318749989,
      "d": 76.92149999999674,
      "v": 112
    },
    {
      "midi": 64,
      "hit": false,
      "t": 120930.21318749989,
      "d": 76.92149999999674,
      "v": 112
    },
    {
      "midi": 67,
      "hit": false,
      "t": 120930.21318749989,
      "d": 76.92149999999674,
      "v": 112
    },
    {
      "midi": 57,
      "hit": false,
      "t": 120930.21318749995,
      "d": 91.34428124999977,
      "v": 112
    },
    {
      "midi": 60,
      "hit": false,
      "t": 120930.21318749995,
      "d": 91.34428124999977,
      "v": 112
    },
    {
      "midi": 64,
      "hit": false,
      "t": 120930.21318749995,
      "d": 91.34428124999977,
      "v": 112
    },
    {
      "midi": 65,
      "hit": false,
      "t": 121848.46359374996,
      "d": 86.53668749998906,
      "v": 112
    },
    {
      "midi": 34,
      "hit": false,
      "t": 121848.46359374996,
      "d": 110.5746562499844,
      "v": 112
    },
    {
      "midi": 58,
      "hit": false,
      "t": 121853.27118749988,
      "d": 57.691124999997555,
      "v": 112
    },
    {
      "midi": 62,
      "hit": false,
      "t": 121853.27118749988,
      "d": 57.691124999997555,
      "v": 112
    },
    {
      "midi": 65,
      "hit": false,
      "t": 121853.27118749988,
      "d": 62.498718749993714,
      "v": 112
    },
    {
      "midi": 58,
      "hit": false,
      "t": 121853.27118749995,
      "d": 62.498718749993714,
      "v": 112
    },
    {
      "midi": 62,
      "hit": false,
      "t": 121853.27118749995,
      "d": 62.498718749993714,
      "v": 112
    },
    {
      "midi": 58,
      "hit": false,
      "t": 122079.22809374987,
      "d": 72.11390625000058,
      "v": 112
    },
    {
      "midi": 62,
      "hit": false,
      "t": 122079.22809374987,
      "d": 72.11390625000058,
      "v": 112
    },
    {
      "midi": 62,
      "hit": false,
      "t": 122079.22809374995,
      "d": 76.92149999999674,
      "v": 112
    },
    {
      "midi": 58,
      "hit": false,
      "t": 122079.22809374995,
      "d": 81.7290937499929,
      "v": 112
    },
    {
      "midi": 34,
      "hit": false,
      "t": 122079.22809374995,
      "d": 100.95946874999208,
      "v": 112
    },
    {
      "midi": 65,
      "hit": false,
      "t": 122079.22809374995,
      "d": 100.95946874999208,
      "v": 112
    },
    {
      "midi": 65,
      "hit": false,
      "t": 122084.03568749987,
      "d": 33.65315625000221,
      "v": 112
    },
    {
      "midi": 62,
      "hit": false,
      "t": 122425.37484374987,
      "d": 38.46074999999837,
      "v": 112
    },
    {
      "midi": 58,
      "hit": false,
      "t": 122425.37484374987,
      "d": 62.498718749993714,
      "v": 112
    },
    {
      "midi": 58,
      "hit": false,
      "t": 122425.37484374993,
      "d": 76.92149999999674,
      "v": 112
    },
    {
      "midi": 62,
      "hit": false,
      "t": 122425.37484374993,
      "d": 76.92149999999674,
      "v": 112
    },
    {
      "midi": 34,
      "hit": false,
      "t": 122425.37484374993,
      "d": 96.15187499999593,
      "v": 112
    },
    {
      "midi": 65,
      "hit": false,
      "t": 122425.37484374993,
      "d": 110.57465624999895,
      "v": 112
    },
    {
      "midi": 65,
      "hit": false,
      "t": 122430.18243749987,
      "d": 28.845562500006054,
      "v": 112
    },
    {
      "midi": 62,
      "hit": false,
      "t": 122656.13934374986,
      "d": 43.26834374999453,
      "v": 112
    },
    {
      "midi": 65,
      "hit": false,
      "t": 122656.13934374986,
      "d": 43.26834374999453,
      "v": 112
    },
    {
      "midi": 58,
      "hit": false,
      "t": 122656.13934374986,
      "d": 67.30631249998987,
      "v": 112
    },
    {
      "midi": 34,
      "hit": false,
      "t": 122656.13934374994,
      "d": 57.691124999997555,
      "v": 112
    },
    {
      "midi": 58,
      "hit": false,
      "t": 122771.52159374993,
      "d": 81.7290937499929,
      "v": 112
    },
    {
      "midi": 65,
      "hit": false,
      "t": 122771.52159374993,
      "d": 100.95946874999208,
      "v": 112
    },
    {
      "midi": 34,
      "hit": false,
      "t": 122771.52159374993,
      "d": 124.99743749998743,
      "v": 112
    },
    {
      "midi": 58,
      "hit": false,
      "t": 122776.32918749985,
      "d": 81.7290937499929,
      "v": 112
    },
    {
      "midi": 62,
      "hit": false,
      "t": 122776.32918749985,
      "d": 81.7290937499929,
      "v": 112
    },
    {
      "midi": 65,
      "hit": false,
      "t": 122776.32918749985,
      "d": 86.53668749998906,
      "v": 112
    },
    {
      "midi": 62,
      "hit": false,
      "t": 122776.32918749993,
      "d": 81.7290937499929,
      "v": 112
    },
    {
      "midi": 62,
      "hit": false,
      "t": 123694.57959374992,
      "d": 76.92149999999674,
      "v": 112
    },
    {
      "midi": 65,
      "hit": false,
      "t": 123694.57959374992,
      "d": 91.34428124999977,
      "v": 112
    },
    {
      "midi": 34,
      "hit": false,
      "t": 123694.57959374992,
      "d": 100.95946875000664,
      "v": 112
    },
    {
      "midi": 58,
      "hit": false,
      "t": 123699.38718749984,
      "d": 52.8835312500014,
      "v": 112
    },
    {
      "midi": 62,
      "hit": false,
      "t": 123699.38718749984,
      "d": 52.8835312500014,
      "v": 112
    },
    {
      "midi": 65,
      "hit": false,
      "t": 123699.38718749984,
      "d": 52.8835312500014,
      "v": 112
    },
    {
      "midi": 58,
      "hit": false,
      "t": 123699.38718749992,
      "d": 67.30631250000442,
      "v": 112
    },
    {
      "midi": 34,
      "hit": false,
      "t": 123925.34409374993,
      "d": 76.92149999999674,
      "v": 112
    },
    {
      "midi": 58,
      "hit": false,
      "t": 123925.34409374993,
      "d": 86.53668750000361,
      "v": 112
    },
    {
      "midi": 62,
      "hit": false,
      "t": 123925.34409374993,
      "d": 86.53668750000361,
      "v": 112
    },
    {
      "midi": 65,
      "hit": false,
      "t": 123925.34409374993,
      "d": 86.53668750000361,
      "v": 112
    },
    {
      "midi": 62,
      "hit": false,
      "t": 123930.15168749985,
      "d": 33.65315625000221,
      "v": 112
    },
    {
      "midi": 65,
      "hit": false,
      "t": 123930.15168749985,
      "d": 33.65315625000221,
      "v": 112
    },
    {
      "midi": 58,
      "hit": false,
      "t": 123930.15168749985,
      "d": 52.8835312500014,
      "v": 112
    },
    {
      "midi": 34,
      "hit": false,
      "t": 124266.68324999993,
      "d": 100.95946874999208,
      "v": 112
    },
    {
      "midi": 58,
      "hit": false,
      "t": 124271.49084374985,
      "d": 81.7290937499929,
      "v": 112
    },
    {
      "midi": 62,
      "hit": false,
      "t": 124271.49084374993,
      "d": 67.30631250000442,
      "v": 112
    },
    {
      "midi": 58,
      "hit": false,
      "t": 124271.49084374993,
      "d": 72.11390625000058,
      "v": 112
    },
    {
      "midi": 65,
      "hit": false,
      "t": 124271.49084374993,
      "d": 72.11390625000058,
      "v": 112
    },
    {
      "midi": 62,
      "hit": false,
      "t": 124276.29843749985,
      "d": 72.11390625000058,
      "v": 112
    },
    {
      "midi": 65,
      "hit": false,
      "t": 124276.29843749985,
      "d": 72.11390625000058,
      "v": 112
    },
    {
      "midi": 62,
      "hit": false,
      "t": 124502.25534374984,
      "d": 43.26834374999453,
      "v": 112
    },
    {
      "midi": 58,
      "hit": false,
      "t": 124502.25534374984,
      "d": 62.498718749993714,
      "v": 112
    },
    {
      "midi": 34,
      "hit": false,
      "t": 124502.25534374992,
      "d": 48.07593750000524,
      "v": 112
    },
    {
      "midi": 65,
      "hit": false,
      "t": 124507.06293749984,
      "d": 33.65315625000221,
      "v": 112
    },
    {
      "midi": 58,
      "hit": false,
      "t": 124617.63759374993,
      "d": 81.7290937499929,
      "v": 112
    },
    {
      "midi": 65,
      "hit": false,
      "t": 124617.63759374993,
      "d": 105.76706249998824,
      "v": 112
    },
    {
      "midi": 34,
      "hit": false,
      "t": 124617.63759374993,
      "d": 129.80503124998359,
      "v": 112
    },
    {
      "midi": 58,
      "hit": false,
      "t": 124622.44518749983,
      "d": 76.92149999999674,
      "v": 112
    },
    {
      "midi": 62,
      "hit": false,
      "t": 124622.44518749983,
      "d": 76.92149999999674,
      "v": 112
    },
    {
      "midi": 65,
      "hit": false,
      "t": 124622.44518749983,
      "d": 81.7290937499929,
      "v": 112
    },
    {
      "midi": 62,
      "hit": false,
      "t": 124622.44518749992,
      "d": 81.7290937499929,
      "v": 112
    },
    {
      "midi": 34,
      "hit": false,
      "t": 125309.93109374991,
      "d": 62.498718749993714,
      "v": 112
    },
    {
      "midi": 36,
      "hit": false,
      "t": 125425.3133437499,
      "d": 48.07593750000524,
      "v": 112
    },
    {
      "midi": 65,
      "hit": false,
      "t": 125540.69559374992,
      "d": 43.26834374999453,
      "v": 112
    },
    {
      "midi": 62,
      "hit": false,
      "t": 125540.69559374992,
      "d": 86.53668749998906,
      "v": 112
    },
    {
      "midi": 38,
      "hit": false,
      "t": 125540.69559374992,
      "d": 91.34428124998522,
      "v": 112
    },
    {
      "midi": 62,
      "hit": false,
      "t": 125545.50318749982,
      "d": 28.8455624999915,
      "v": 112
    },
    {
      "midi": 65,
      "hit": false,
      "t": 125545.50318749982,
      "d": 52.883531249986845,
      "v": 112
    },
    {
      "midi": 69,
      "hit": false,
      "t": 125545.50318749991,
      "d": 76.92149999999674,
      "v": 112
    },
    {
      "midi": 57,
      "hit": false,
      "t": 125545.50318749991,
      "d": 81.7290937499929,
      "v": 112
    },
    {
      "midi": 69,
      "hit": false,
      "t": 125550.31078124982,
      "d": 19.230374999999185,
      "v": 112
    },
    {
      "midi": 65,
      "hit": false,
      "t": 125771.4600937499,
      "d": 57.691124999997555,
      "v": 112
    },
    {
      "midi": 38,
      "hit": false,
      "t": 125771.4600937499,
      "d": 72.11390625000058,
      "v": 112
    },
    {
      "midi": 57,
      "hit": false,
      "t": 125771.4600937499,
      "d": 100.95946875000664,
      "v": 112
    },
    {
      "midi": 62,
      "hit": false,
      "t": 125771.4600937499,
      "d": 100.95946875000664,
      "v": 112
    },
    {
      "midi": 69,
      "hit": false,
      "t": 125771.4600937499,
      "d": 100.95946875000664,
      "v": 112
    },
    {
      "midi": 62,
      "hit": false,
      "t": 125776.26768749981,
      "d": 33.65315625000221,
      "v": 112
    },
    {
      "midi": 69,
      "hit": false,
      "t": 125776.26768749981,
      "d": 33.65315625000221,
      "v": 112
    },
    {
      "midi": 65,
      "hit": false,
      "t": 125776.26768749981,
      "d": 57.691124999997555,
      "v": 112
    },
    {
      "midi": 62,
      "hit": false,
      "t": 126117.60684374982,
      "d": 72.11390625000058,
      "v": 112
    },
    {
      "midi": 65,
      "hit": false,
      "t": 126117.60684374982,
      "d": 72.11390625000058,
      "v": 112
    },
    {
      "midi": 69,
      "hit": false,
      "t": 126117.60684374982,
      "d": 72.11390625000058,
      "v": 112
    },
    {
      "midi": 65,
      "hit": false,
      "t": 126117.6068437499,
      "d": 86.53668750000361,
      "v": 112
    },
    {
      "midi": 69,
      "hit": false,
      "t": 126117.6068437499,
      "d": 86.53668750000361,
      "v": 112
    },
    {
      "midi": 57,
      "hit": false,
      "t": 126117.6068437499,
      "d": 91.34428124999977,
      "v": 112
    },
    {
      "midi": 62,
      "hit": false,
      "t": 126117.6068437499,
      "d": 91.34428124999977,
      "v": 112
    },
    {
      "midi": 38,
      "hit": false,
      "t": 126117.6068437499,
      "d": 100.95946875000664,
      "v": 112
    },
    {
      "midi": 69,
      "hit": false,
      "t": 126348.37134374982,
      "d": 38.46074999999837,
      "v": 112
    },
    {
      "midi": 62,
      "hit": false,
      "t": 126348.37134374982,
      "d": 72.11390625000058,
      "v": 112
    },
    {
      "midi": 65,
      "hit": false,
      "t": 126348.37134374982,
      "d": 72.11390625000058,
      "v": 112
    },
    {
      "midi": 38,
      "hit": false,
      "t": 126348.37134374991,
      "d": 67.30631250000442,
      "v": 112
    },
    {
      "midi": 62,
      "hit": false,
      "t": 126463.75359374992,
      "d": 91.34428124998522,
      "v": 112
    },
    {
      "midi": 69,
      "hit": false,
      "t": 126463.75359374992,
      "d": 91.34428124998522,
      "v": 112
    },
    {
      "midi": 38,
      "hit": false,
      "t": 126463.75359374992,
      "d": 115.38224999998056,
      "v": 112
    },
    {
      "midi": 62,
      "hit": false,
      "t": 126468.56118749983,
      "d": 76.92149999999674,
      "v": 112
    },
    {
      "midi": 65,
      "hit": false,
      "t": 126468.56118749983,
      "d": 76.92149999999674,
      "v": 112
    },
    {
      "midi": 69,
      "hit": false,
      "t": 126468.56118749983,
      "d": 76.92149999999674,
      "v": 112
    },
    {
      "midi": 57,
      "hit": false,
      "t": 126468.56118749992,
      "d": 81.7290937499929,
      "v": 112
    },
    {
      "midi": 65,
      "hit": false,
      "t": 126468.56118749992,
      "d": 86.53668749998906,
      "v": 112
    },
    {
      "midi": 57,
      "hit": false,
      "t": 127386.8115937499,
      "d": 91.34428124999977,
      "v": 112
    },
    {
      "midi": 36,
      "hit": false,
      "t": 127386.8115937499,
      "d": 115.38224999999511,
      "v": 112
    },
    {
      "midi": 60,
      "hit": false,
      "t": 127391.61918749982,
      "d": 57.691124999997555,
      "v": 112
    },
    {
      "midi": 65,
      "hit": false,
      "t": 127391.61918749982,
      "d": 57.691124999997555,
      "v": 112
    },
    {
      "midi": 69,
      "hit": false,
      "t": 127391.61918749982,
      "d": 62.498718749993714,
      "v": 112
    },
    {
      "midi": 65,
      "hit": false,
      "t": 127391.61918749989,
      "d": 67.30631250000442,
      "v": 112
    },
    {
      "midi": 69,
      "hit": false,
      "t": 127391.61918749989,
      "d": 67.30631250000442,
      "v": 112
    },
    {
      "midi": 60,
      "hit": false,
      "t": 127391.61918749989,
      "d": 72.11390625000058,
      "v": 112
    },
    {
      "midi": 57,
      "hit": false,
      "t": 127617.57609374989,
      "d": 91.34428124999977,
      "v": 112
    },
    {
      "midi": 60,
      "hit": false,
      "t": 127617.57609374989,
      "d": 91.34428124999977,
      "v": 112
    },
    {
      "midi": 65,
      "hit": false,
      "t": 127617.57609374989,
      "d": 91.34428124999977,
      "v": 112
    },
    {
      "midi": 69,
      "hit": false,
      "t": 127617.57609374989,
      "d": 96.15187499999593,
      "v": 112
    },
    {
      "midi": 36,
      "hit": false,
      "t": 127617.57609374989,
      "d": 110.57465624999895,
      "v": 112
    },
    {
      "midi": 65,
      "hit": false,
      "t": 127622.38368749981,
      "d": 33.65315625000221,
      "v": 112
    },
    {
      "midi": 60,
      "hit": false,
      "t": 127622.38368749981,
      "d": 72.11390625000058,
      "v": 112
    },
    {
      "midi": 69,
      "hit": false,
      "t": 127622.38368749981,
      "d": 72.11390625000058,
      "v": 112
    },
    {
      "midi": 69,
      "hit": false,
      "t": 127963.72284374981,
      "d": 38.46074999999837,
      "v": 112
    },
    {
      "midi": 60,
      "hit": false,
      "t": 127963.72284374981,
      "d": 67.30631250000442,
      "v": 112
    },
    {
      "midi": 65,
      "hit": false,
      "t": 127963.72284374981,
      "d": 67.30631250000442,
      "v": 112
    },
    {
      "midi": 57,
      "hit": false,
      "t": 127963.72284374989,
      "d": 86.53668750000361,
      "v": 112
    },
    {
      "midi": 65,
      "hit": false,
      "t": 127963.72284374989,
      "d": 86.53668750000361,
      "v": 112
    },
    {
      "midi": 60,
      "hit": false,
      "t": 127963.72284374989,
      "d": 91.34428124999977,
      "v": 112
    },
    {
      "midi": 69,
      "hit": false,
      "t": 127963.72284374989,
      "d": 91.34428124999977,
      "v": 112
    },
    {
      "midi": 36,
      "hit": false,
      "t": 127963.72284374989,
      "d": 115.38224999999511,
      "v": 112
    },
    {
      "midi": 60,
      "hit": false,
      "t": 128194.48734374982,
      "d": 38.46074999999837,
      "v": 112
    },
    {
      "midi": 65,
      "hit": false,
      "t": 128194.48734374982,
      "d": 57.691124999997555,
      "v": 112
    },
    {
      "midi": 36,
      "hit": false,
      "t": 128194.48734374988,
      "d": 62.498718749993714,
      "v": 112
    },
    {
      "midi": 69,
      "hit": false,
      "t": 128199.29493749981,
      "d": 33.65315625000221,
      "v": 112
    },
    {
      "midi": 60,
      "hit": false,
      "t": 128309.86959374987,
      "d": 91.34428124998522,
      "v": 112
    },
    {
      "midi": 69,
      "hit": false,
      "t": 128309.86959374987,
      "d": 91.34428124998522,
      "v": 112
    },
    {
      "midi": 36,
      "hit": false,
      "t": 128309.86959374987,
      "d": 105.76706249998824,
      "v": 112
    },
    {
      "midi": 60,
      "hit": false,
      "t": 128314.67718749981,
      "d": 76.92149999999674,
      "v": 112
    },
    {
      "midi": 65,
      "hit": false,
      "t": 128314.67718749981,
      "d": 76.92149999999674,
      "v": 112
    },
    {
      "midi": 57,
      "hit": false,
      "t": 128314.67718749987,
      "d": 81.7290937499929,
      "v": 112
    },
    {
      "midi": 65,
      "hit": false,
      "t": 128314.67718749987,
      "d": 81.7290937499929,
      "v": 112
    },
    {
      "midi": 69,
      "hit": false,
      "t": 128319.4847812498,
      "d": 72.11390625000058,
      "v": 112
    },
    {
      "midi": 36,
      "hit": false,
      "t": 129002.16309374986,
      "d": 100.95946875000664,
      "v": 112
    },
    {
      "midi": 38,
      "hit": false,
      "t": 129117.54534374987,
      "d": 96.15187499999593,
      "v": 112
    },
    {
      "midi": 58,
      "hit": false,
      "t": 129232.92759374986,
      "d": 86.53668749998906,
      "v": 112
    },
    {
      "midi": 39,
      "hit": false,
      "t": 129232.92759374986,
      "d": 110.5746562499844,
      "v": 112
    },
    {
      "midi": 58,
      "hit": false,
      "t": 129237.7351874998,
      "d": 62.498718749993714,
      "v": 112
    },
    {
      "midi": 63,
      "hit": false,
      "t": 129237.7351874998,
      "d": 62.498718749993714,
      "v": 112
    },
    {
      "midi": 70,
      "hit": false,
      "t": 129237.7351874998,
      "d": 62.498718749993714,
      "v": 112
    },
    {
      "midi": 63,
      "hit": false,
      "t": 129237.73518749986,
      "d": 76.92149999999674,
      "v": 112
    },
    {
      "midi": 67,
      "hit": false,
      "t": 129237.73518749986,
      "d": 81.7290937499929,
      "v": 112
    },
    {
      "midi": 70,
      "hit": false,
      "t": 129237.73518749986,
      "d": 81.7290937499929,
      "v": 112
    },
    {
      "midi": 63,
      "hit": false,
      "t": 129463.69209374985,
      "d": 57.691124999997555,
      "v": 112
    },
    {
      "midi": 58,
      "hit": false,
      "t": 129463.69209374985,
      "d": 96.15187499999593,
      "v": 112
    },
    {
      "midi": 67,
      "hit": false,
      "t": 129463.69209374985,
      "d": 96.15187499999593,
      "v": 112
    },
    {
      "midi": 39,
      "hit": false,
      "t": 129463.69209374985,
      "d": 110.57465624999895,
      "v": 112
    },
    {
      "midi": 58,
      "hit": false,
      "t": 129468.49968749979,
      "d": 72.11390625000058,
      "v": 112
    },
    {
      "midi": 63,
      "hit": false,
      "t": 129468.49968749979,
      "d": 72.11390625000058,
      "v": 112
    },
    {
      "midi": 70,
      "hit": false,
      "t": 129468.49968749979,
      "d": 72.11390625000058,
      "v": 112
    },
    {
      "midi": 70,
      "hit": false,
      "t": 129468.49968749985,
      "d": 91.34428124999977,
      "v": 112
    },
    {
      "midi": 58,
      "hit": false,
      "t": 129809.83884374979,
      "d": 72.11390625000058,
      "v": 112
    },
    {
      "midi": 70,
      "hit": false,
      "t": 129809.83884374979,
      "d": 72.11390625000058,
      "v": 112
    },
    {
      "midi": 58,
      "hit": false,
      "t": 129809.83884374985,
      "d": 86.53668750000361,
      "v": 112
    },
    {
      "midi": 63,
      "hit": false,
      "t": 129809.83884374985,
      "d": 86.53668750000361,
      "v": 112
    },
    {
      "midi": 67,
      "hit": false,
      "t": 129809.83884374985,
      "d": 86.53668750000361,
      "v": 112
    },
    {
      "midi": 70,
      "hit": false,
      "t": 129809.83884374985,
      "d": 86.53668750000361,
      "v": 112
    },
    {
      "midi": 39,
      "hit": false,
      "t": 129809.83884374985,
      "d": 100.95946875000664,
      "v": 112
    },
    {
      "midi": 63,
      "hit": false,
      "t": 129814.64643749979,
      "d": 28.845562500006054,
      "v": 112
    },
    {
      "midi": 58,
      "hit": false,
      "t": 130040.6033437498,
      "d": 33.65315625000221,
      "v": 112
    },
    {
      "midi": 63,
      "hit": false,
      "t": 130040.6033437498,
      "d": 33.65315625000221,
      "v": 112
    },
    {
      "midi": 70,
      "hit": false,
      "t": 130040.6033437498,
      "d": 38.46074999999837,
      "v": 112
    },
    {
      "midi": 39,
      "hit": false,
      "t": 130040.60334374986,
      "d": 52.8835312500014,
      "v": 112
    },
    {
      "midi": 63,
      "hit": false,
      "t": 130155.98559374985,
      "d": 91.34428124999977,
      "v": 112
    },
    {
      "midi": 70,
      "hit": false,
      "t": 130155.98559374985,
      "d": 96.15187499999593,
      "v": 112
    },
    {
      "midi": 39,
      "hit": false,
      "t": 130155.98559374985,
      "d": 182.68856249999953,
      "v": 112
    },
    {
      "midi": 58,
      "hit": false,
      "t": 130160.79318749979,
      "d": 76.92149999999674,
      "v": 112
    },
    {
      "midi": 63,
      "hit": false,
      "t": 130160.79318749979,
      "d": 76.92149999999674,
      "v": 112
    },
    {
      "midi": 70,
      "hit": false,
      "t": 130160.79318749979,
      "d": 96.15187499999593,
      "v": 112
    },
    {
      "midi": 67,
      "hit": false,
      "t": 130160.79318749985,
      "d": 86.53668750000361,
      "v": 112
    },
    {
      "midi": 58,
      "hit": false,
      "t": 130160.79318749985,
      "d": 91.34428124999977,
      "v": 112
    },
    {
      "midi": 39,
      "hit": false,
      "t": 130848.27909374985,
      "d": 158.6505937500042,
      "v": 112
    },
    {
      "midi": 70,
      "hit": false,
      "t": 131079.04359374984,
      "d": 1576.8907500000205,
      "v": 112
    },
    {
      "midi": 34,
      "hit": false,
      "t": 131079.04359374984,
      "d": 1639.3894687500142,
      "v": 112
    },
    {
      "midi": 70,
      "hit": false,
      "t": 131083.8511874998,
      "d": 1418.2401562499872,
      "v": 112
    },
    {
      "midi": 62,
      "hit": false,
      "t": 131083.8511874998,
      "d": 1423.047749999998,
      "v": 112
    },
    {
      "midi": 65,
      "hit": false,
      "t": 131083.8511874998,
      "d": 1423.047749999998,
      "v": 112
    },
    {
      "midi": 62,
      "hit": false,
      "t": 131083.85118749985,
      "d": 1538.429999999993,
      "v": 112
    },
    {
      "midi": 65,
      "hit": false,
      "t": 131083.85118749985,
      "d": 1552.852781249996,
      "v": 112
    },
    {
      "midi": 58,
      "hit": false,
      "t": 131083.85118749985,
      "d": 1572.0831562500098,
      "v": 112
    },
    {
      "midi": 60,
      "hit": false,
      "t": 134078.98209374986,
      "d": 552.8732812500093,
      "v": 112
    },
    {
      "midi": 65,
      "hit": false,
      "t": 134078.98209374986,
      "d": 701.9086875000212,
      "v": 112
    },
    {
      "midi": 72,
      "hit": false,
      "t": 134078.98209374986,
      "d": 701.9086875000212,
      "v": 112
    },
    {
      "midi": 69,
      "hit": false,
      "t": 134078.98209374986,
      "d": 716.3314687500242,
      "v": 112
    },
    {
      "midi": 65,
      "hit": false,
      "t": 135002.04009374988,
      "d": 711.5238750000135,
      "v": 112
    },
    {
      "midi": 72,
      "hit": false,
      "t": 135002.04009374988,
      "d": 730.7542500000272,
      "v": 112
    },
    {
      "midi": 60,
      "hit": false,
      "t": 135002.04009374988,
      "d": 735.561843750038,
      "v": 112
    },
    {
      "midi": 69,
      "hit": false,
      "t": 135002.04009374988,
      "d": 745.1770312500303,
      "v": 112
    },
    {
      "midi": 69,
      "hit": false,
      "t": 135925.0980937499,
      "d": 365.37712499999907,
      "v": 112
    },
    {
      "midi": 72,
      "hit": false,
      "t": 135925.0980937499,
      "d": 432.6834375000035,
      "v": 112
    },
    {
      "midi": 65,
      "hit": false,
      "t": 135925.0980937499,
      "d": 475.9517812500126,
      "v": 112
    },
    {
      "midi": 60,
      "hit": false,
      "t": 135925.0980937499,
      "d": 499.9897500000079,
      "v": 112
    },
    {
      "midi": 70,
      "hit": false,
      "t": 136617.3915937499,
      "d": 947.0959687500144,
      "v": 112
    },
    {
      "midi": 58,
      "hit": false,
      "t": 136617.3915937499,
      "d": 961.5187500000175,
      "v": 112
    },
    {
      "midi": 63,
      "hit": false,
      "t": 136617.3915937499,
      "d": 961.5187500000175,
      "v": 112
    },
    {
      "midi": 67,
      "hit": false,
      "t": 136617.3915937499,
      "d": 980.7491250000312,
      "v": 112
    },
    {
      "midi": 67,
      "hit": false,
      "t": 137771.21409374994,
      "d": 374.9923124999914,
      "v": 112
    },
    {
      "midi": 63,
      "hit": false,
      "t": 137771.21409374994,
      "d": 389.4150937499944,
      "v": 112
    },
    {
      "midi": 58,
      "hit": false,
      "t": 137771.21409374994,
      "d": 413.45306249998976,
      "v": 112
    },
    {
      "midi": 70,
      "hit": false,
      "t": 137771.21409374994,
      "d": 418.26065625000047,
      "v": 112
    },
    {
      "midi": 58,
      "hit": false,
      "t": 138463.50759374994,
      "d": 980.7491250000021,
      "v": 112
    },
    {
      "midi": 62,
      "hit": false,
      "t": 138463.50759374994,
      "d": 1009.5946875000081,
      "v": 112
    },
    {
      "midi": 70,
      "hit": false,
      "t": 138463.50759374994,
      "d": 1009.5946875000081,
      "v": 112
    },
    {
      "midi": 65,
      "hit": false,
      "t": 138463.50759374994,
      "d": 1038.4402500000142,
      "v": 112
    },
    {
      "midi": 58,
      "hit": false,
      "t": 139617.33009374994,
      "d": 653.8327500000014,
      "v": 112
    },
    {
      "midi": 62,
      "hit": false,
      "t": 139617.33009374994,
      "d": 663.4479374999937,
      "v": 112
    },
    {
      "midi": 65,
      "hit": false,
      "t": 139617.33009374994,
      "d": 663.4479374999937,
      "v": 112
    },
    {
      "midi": 70,
      "hit": false,
      "t": 139617.33009374994,
      "d": 682.6783125000075,
      "v": 112
    },
    {
      "midi": 60,
      "hit": false,
      "t": 141463.44609374995,
      "d": 649.0251562499907,
      "v": 112
    },
    {
      "midi": 72,
      "hit": false,
      "t": 141463.44609374995,
      "d": 725.9466562499874,
      "v": 112
    },
    {
      "midi": 65,
      "hit": false,
      "t": 141463.44609374995,
      "d": 745.1770312500012,
      "v": 112
    },
    {
      "midi": 69,
      "hit": false,
      "t": 141463.44609374995,
      "d": 745.1770312500012,
      "v": 112
    },
    {
      "midi": 60,
      "hit": false,
      "t": 142386.50409374994,
      "d": 706.7162812500028,
      "v": 112
    },
    {
      "midi": 65,
      "hit": false,
      "t": 142386.50409374994,
      "d": 716.3314687499951,
      "v": 112
    },
    {
      "midi": 72,
      "hit": false,
      "t": 142386.50409374994,
      "d": 730.7542499999981,
      "v": 112
    },
    {
      "midi": 69,
      "hit": false,
      "t": 142386.50409374994,
      "d": 749.9846250000119,
      "v": 112
    },
    {
      "midi": 69,
      "hit": false,
      "t": 143309.56209374996,
      "d": 307.68599999998696,
      "v": 112
    },
    {
      "midi": 72,
      "hit": false,
      "t": 143309.56209374996,
      "d": 403.83787499999744,
      "v": 112
    },
    {
      "midi": 65,
      "hit": false,
      "t": 143309.56209374996,
      "d": 471.14418750000186,
      "v": 112
    },
    {
      "midi": 60,
      "hit": false,
      "t": 143309.56209374996,
      "d": 485.5669687500049,
      "v": 112
    },
    {
      "midi": 67,
      "hit": false,
      "t": 144001.85559374996,
      "d": 942.2883750000037,
      "v": 112
    },
    {
      "midi": 70,
      "hit": false,
      "t": 144001.85559374996,
      "d": 947.0959687500144,
      "v": 112
    },
    {
      "midi": 58,
      "hit": false,
      "t": 144001.85559374996,
      "d": 956.7111562500068,
      "v": 112
    },
    {
      "midi": 63,
      "hit": false,
      "t": 144001.85559374996,
      "d": 961.5187500000175,
      "v": 112
    },
    {
      "midi": 67,
      "hit": false,
      "t": 145155.67809374997,
      "d": 298.07081249999464,
      "v": 112
    },
    {
      "midi": 63,
      "hit": false,
      "t": 145155.67809374997,
      "d": 317.3011875000084,
      "v": 112
    },
    {
      "midi": 58,
      "hit": false,
      "t": 145155.67809374997,
      "d": 355.76193750000675,
      "v": 112
    },
    {
      "midi": 70,
      "hit": false,
      "t": 145155.67809374997,
      "d": 360.56953125001746,
      "v": 112
    },
    {
      "midi": 58,
      "hit": false,
      "t": 145847.97159375,
      "d": 947.0959687500144,
      "v": 112
    },
    {
      "midi": 70,
      "hit": false,
      "t": 145847.97159375,
      "d": 961.5187500000175,
      "v": 112
    },
    {
      "midi": 65,
      "hit": false,
      "t": 145847.97159375,
      "d": 966.3263437500282,
      "v": 112
    },
    {
      "midi": 62,
      "hit": false,
      "t": 145847.97159375,
      "d": 971.1339375000389,
      "v": 112
    },
    {
      "midi": 58,
      "hit": false,
      "t": 147001.79409375004,
      "d": 374.9923124999914,
      "v": 112
    },
    {
      "midi": 65,
      "hit": false,
      "t": 147001.79409375004,
      "d": 374.9923124999914,
      "v": 112
    },
    {
      "midi": 62,
      "hit": false,
      "t": 147001.79409375004,
      "d": 394.2226875000051,
      "v": 112
    },
    {
      "midi": 70,
      "hit": false,
      "t": 147001.79409375004,
      "d": 394.2226875000051,
      "v": 112
    },
    {
      "midi": 62,
      "hit": false,
      "t": 147694.08759375004,
      "d": 966.3263437499991,
      "v": 112
    },
    {
      "midi": 67,
      "hit": false,
      "t": 147694.08759375004,
      "d": 980.7491250000021,
      "v": 112
    },
    {
      "midi": 70,
      "hit": false,
      "t": 147694.08759375004,
      "d": 980.7491250000021,
      "v": 112
    },
    {
      "midi": 58,
      "hit": false,
      "t": 147694.08759375004,
      "d": 990.3643124999944,
      "v": 112
    },
    {
      "midi": 58,
      "hit": false,
      "t": 148847.91009375002,
      "d": 418.26065625000047,
      "v": 112
    },
    {
      "midi": 67,
      "hit": false,
      "t": 148847.91009375002,
      "d": 471.14418750000186,
      "v": 112
    },
    {
      "midi": 62,
      "hit": false,
      "t": 148847.91009375002,
      "d": 490.3745625000156,
      "v": 112
    },
    {
      "midi": 70,
      "hit": false,
      "t": 148847.91009375002,
      "d": 490.3745625000156,
      "v": 112
    },
    {
      "midi": 58,
      "hit": false,
      "t": 149540.20359375005,
      "d": 951.903562499996,
      "v": 112
    },
    {
      "midi": 62,
      "hit": false,
      "t": 149540.20359375005,
      "d": 975.9415312499914,
      "v": 112
    },
    {
      "midi": 65,
      "hit": false,
      "t": 149540.20359375005,
      "d": 975.9415312499914,
      "v": 112
    },
    {
      "midi": 70,
      "hit": false,
      "t": 149540.20359375005,
      "d": 980.7491250000021,
      "v": 112
    },
    {
      "midi": 70,
      "hit": false,
      "t": 150694.02609375006,
      "d": 355.76193750000675,
      "v": 112
    },
    {
      "midi": 58,
      "hit": false,
      "t": 150694.02609375006,
      "d": 403.83787499999744,
      "v": 112
    },
    {
      "midi": 62,
      "hit": false,
      "t": 150694.02609375006,
      "d": 543.2580937499879,
      "v": 112
    },
    {
      "midi": 65,
      "hit": false,
      "t": 150694.02609375006,
      "d": 543.2580937499879,
      "v": 112
    },
    {
      "midi": 69,
      "hit": false,
      "t": 151386.31959375006,
      "d": 947.0959687500144,
      "v": 112
    },
    {
      "midi": 65,
      "hit": false,
      "t": 151386.31959375006,
      "d": 956.7111562500068,
      "v": 112
    },
    {
      "midi": 62,
      "hit": false,
      "t": 151386.31959375006,
      "d": 961.5187500000175,
      "v": 112
    },
    {
      "midi": 57,
      "hit": false,
      "t": 151386.31959375006,
      "d": 985.5567187500128,
      "v": 112
    },
    {
      "midi": 57,
      "hit": false,
      "t": 152540.14209375007,
      "d": 504.7973437499895,
      "v": 112
    },
    {
      "midi": 62,
      "hit": false,
      "t": 152540.14209375007,
      "d": 519.2201249999925,
      "v": 112
    },
    {
      "midi": 65,
      "hit": false,
      "t": 152540.14209375007,
      "d": 519.2201249999925,
      "v": 112
    },
    {
      "midi": 69,
      "hit": false,
      "t": 152540.14209375007,
      "d": 519.2201249999925,
      "v": 112
    },
    {
      "midi": 62,
      "hit": false,
      "t": 153232.43559375007,
      "d": 971.1339375000098,
      "v": 112
    },
    {
      "midi": 65,
      "hit": false,
      "t": 153232.43559375007,
      "d": 990.3643125000235,
      "v": 112
    },
    {
      "midi": 69,
      "hit": false,
      "t": 153232.43559375007,
      "d": 990.3643125000235,
      "v": 112
    },
    {
      "midi": 57,
      "hit": false,
      "t": 153232.43559375007,
      "d": 1004.7870937500265,
      "v": 112
    },
    {
      "midi": 69,
      "hit": false,
      "t": 154386.2580937501,
      "d": 317.3011875000084,
      "v": 112
    },
    {
      "midi": 57,
      "hit": false,
      "t": 154386.2580937501,
      "d": 331.7239687500114,
      "v": 112
    },
    {
      "midi": 62,
      "hit": false,
      "t": 154386.2580937501,
      "d": 331.7239687500114,
      "v": 112
    },
    {
      "midi": 65,
      "hit": false,
      "t": 154386.2580937501,
      "d": 331.7239687500114,
      "v": 112
    },
    {
      "midi": 63,
      "hit": false,
      "t": 155078.5515937501,
      "d": 942.2883750000037,
      "v": 112
    },
    {
      "midi": 67,
      "hit": false,
      "t": 155078.5515937501,
      "d": 942.2883750000037,
      "v": 112
    },
    {
      "midi": 70,
      "hit": false,
      "t": 155078.5515937501,
      "d": 956.7111562500068,
      "v": 112
    },
    {
      "midi": 58,
      "hit": false,
      "t": 155078.5515937501,
      "d": 999.9795000000158,
      "v": 112
    },
    {
      "midi": 63,
      "hit": false,
      "t": 155309.3160937498,
      "d": 57.69112500001211,
      "v": 112
    },
    {
      "midi": 70,
      "hit": false,
      "t": 155309.3160937498,
      "d": 57.69112500001211,
      "v": 112
    },
    {
      "midi": 58,
      "hit": false,
      "t": 155309.3160937498,
      "d": 62.49871875002282,
      "v": 112
    },
    {
      "midi": 63,
      "hit": false,
      "t": 155655.46284374982,
      "d": 72.11390624998603,
      "v": 112
    },
    {
      "midi": 58,
      "hit": false,
      "t": 155655.46284374982,
      "d": 76.92149999999674,
      "v": 112
    },
    {
      "midi": 70,
      "hit": false,
      "t": 155655.46284374982,
      "d": 76.92149999999674,
      "v": 112
    },
    {
      "midi": 58,
      "hit": false,
      "t": 156001.6095937498,
      "d": 57.69112500001211,
      "v": 112
    },
    {
      "midi": 63,
      "hit": false,
      "t": 156001.6095937498,
      "d": 72.11390625001513,
      "v": 112
    },
    {
      "midi": 70,
      "hit": false,
      "t": 156006.4171874998,
      "d": 62.498718749993714,
      "v": 112
    },
    {
      "midi": 58,
      "hit": false,
      "t": 156232.3740937501,
      "d": 461.52900000000955,
      "v": 112
    },
    {
      "midi": 70,
      "hit": false,
      "t": 156232.3740937501,
      "d": 485.5669687500049,
      "v": 112
    },
    {
      "midi": 63,
      "hit": false,
      "t": 156232.3740937501,
      "d": 514.4125312500109,
      "v": 112
    },
    {
      "midi": 67,
      "hit": false,
      "t": 156232.3740937501,
      "d": 519.2201250000217,
      "v": 112
    },
    {
      "midi": 63,
      "hit": false,
      "t": 156347.75634374982,
      "d": 38.46074999999837,
      "v": 112
    },
    {
      "midi": 58,
      "hit": false,
      "t": 156347.75634374982,
      "d": 76.92149999999674,
      "v": 112
    },
    {
      "midi": 70,
      "hit": false,
      "t": 156347.75634374982,
      "d": 76.92149999999674,
      "v": 112
    },
    {
      "midi": 63,
      "hit": false,
      "t": 156693.9030937498,
      "d": 38.46074999999837,
      "v": 112
    },
    {
      "midi": 70,
      "hit": false,
      "t": 156693.9030937498,
      "d": 43.26834375000908,
      "v": 112
    },
    {
      "midi": 58,
      "hit": false,
      "t": 156693.9030937498,
      "d": 57.69112500001211,
      "v": 112
    },
    {
      "midi": 62,
      "hit": false,
      "t": 156924.66759375014,
      "d": 999.9795000000158,
      "v": 112
    },
    {
      "midi": 70,
      "hit": false,
      "t": 156924.66759375014,
      "d": 999.9795000000158,
      "v": 112
    },
    {
      "midi": 65,
      "hit": false,
      "t": 156924.66759375014,
      "d": 1019.2098750000296,
      "v": 112
    },
    {
      "midi": 58,
      "hit": false,
      "t": 156929.47518750015,
      "d": 985.5567187500128,
      "v": 112
    },
    {
      "midi": 58,
      "hit": false,
      "t": 157155.4320937498,
      "d": 38.46074999999837,
      "v": 112
    },
    {
      "midi": 65,
      "hit": false,
      "t": 157155.4320937498,
      "d": 67.30631250000442,
      "v": 112
    },
    {
      "midi": 70,
      "hit": false,
      "t": 157155.4320937498,
      "d": 67.30631250000442,
      "v": 112
    },
    {
      "midi": 65,
      "hit": false,
      "t": 157501.57884374983,
      "d": 28.845562500006054,
      "v": 112
    },
    {
      "midi": 70,
      "hit": false,
      "t": 157501.57884374983,
      "d": 33.653156250016764,
      "v": 112
    },
    {
      "midi": 58,
      "hit": false,
      "t": 157501.57884374983,
      "d": 57.69112500001211,
      "v": 112
    },
    {
      "midi": 65,
      "hit": false,
      "t": 157847.72559374984,
      "d": 72.11390625001513,
      "v": 112
    },
    {
      "midi": 70,
      "hit": false,
      "t": 157847.72559374984,
      "d": 72.11390625001513,
      "v": 112
    },
    {
      "midi": 58,
      "hit": false,
      "t": 157852.53318749985,
      "d": 67.30631250000442,
      "v": 112
    },
    {
      "midi": 62,
      "hit": false,
      "t": 158078.49009375018,
      "d": 302.87840625000536,
      "v": 112
    },
    {
      "midi": 65,
      "hit": false,
      "t": 158078.49009375018,
      "d": 317.3011875000084,
      "v": 112
    },
    {
      "midi": 58,
      "hit": false,
      "t": 158078.49009375018,
      "d": 355.76193750000675,
      "v": 112
    },
    {
      "midi": 70,
      "hit": false,
      "t": 158078.49009375018,
      "d": 370.1847187500098,
      "v": 112
    },
    {
      "midi": 58,
      "hit": false,
      "t": 158189.06474999984,
      "d": 76.92149999999674,
      "v": 112
    },
    {
      "midi": 65,
      "hit": false,
      "t": 158193.87234374986,
      "d": 72.11390624998603,
      "v": 112
    },
    {
      "midi": 70,
      "hit": false,
      "t": 158193.87234374986,
      "d": 72.11390624998603,
      "v": 112
    },
    {
      "midi": 70,
      "hit": false,
      "t": 158419.82924999984,
      "d": 72.11390625001513,
      "v": 112
    },
    {
      "midi": 65,
      "hit": false,
      "t": 158424.63684374985,
      "d": 67.30631250000442,
      "v": 112
    },
    {
      "midi": 65,
      "hit": false,
      "t": 158540.01909374984,
      "d": 43.26834375000908,
      "v": 112
    },
    {
      "midi": 58,
      "hit": false,
      "t": 158540.01909374984,
      "d": 81.72909375000745,
      "v": 112
    },
    {
      "midi": 70,
      "hit": false,
      "t": 158540.01909374984,
      "d": 86.53668750001816,
      "v": 112
    },
    {
      "midi": 60,
      "hit": false,
      "t": 158770.78359375018,
      "d": 942.2883750000037,
      "v": 112
    },
    {
      "midi": 65,
      "hit": false,
      "t": 158770.78359375018,
      "d": 971.1339375000098,
      "v": 112
    },
    {
      "midi": 72,
      "hit": false,
      "t": 158770.78359375018,
      "d": 971.1339375000098,
      "v": 112
    },
    {
      "midi": 67,
      "hit": false,
      "t": 158770.78359375018,
      "d": 990.3643125000235,
      "v": 112
    },
    {
      "midi": 60,
      "hit": false,
      "t": 159001.54809374985,
      "d": 43.26834375000908,
      "v": 112
    },
    {
      "midi": 65,
      "hit": false,
      "t": 159001.54809374985,
      "d": 81.72909375000745,
      "v": 112
    },
    {
      "midi": 67,
      "hit": false,
      "t": 159001.54809374985,
      "d": 81.72909375000745,
      "v": 112
    },
    {
      "midi": 72,
      "hit": false,
      "t": 159001.54809374985,
      "d": 81.72909375000745,
      "v": 112
    },
    {
      "midi": 65,
      "hit": false,
      "t": 159347.69484374986,
      "d": 72.11390624998603,
      "v": 112
    },
    {
      "midi": 67,
      "hit": false,
      "t": 159347.69484374986,
      "d": 72.11390624998603,
      "v": 112
    },
    {
      "midi": 72,
      "hit": false,
      "t": 159347.69484374986,
      "d": 76.92149999999674,
      "v": 112
    },
    {
      "midi": 60,
      "hit": false,
      "t": 159573.65174999987,
      "d": 72.11390624998603,
      "v": 112
    },
    {
      "midi": 65,
      "hit": false,
      "t": 159693.84159374985,
      "d": 81.72909375000745,
      "v": 112
    },
    {
      "midi": 67,
      "hit": false,
      "t": 159693.84159374985,
      "d": 81.72909375000745,
      "v": 112
    },
    {
      "midi": 72,
      "hit": false,
      "t": 159693.84159374985,
      "d": 81.72909375000745,
      "v": 112
    },
    {
      "midi": 72,
      "hit": false,
      "t": 159804.41624999986,
      "d": 91.34428125002887,
      "v": 112
    },
    {
      "midi": 67,
      "hit": false,
      "t": 159809.22384374987,
      "d": 81.72909375000745,
      "v": 112
    },
    {
      "midi": 65,
      "hit": false,
      "t": 159809.22384374987,
      "d": 86.53668750001816,
      "v": 112
    },
    {
      "midi": 65,
      "hit": false,
      "t": 159924.6060937502,
      "d": 326.9163750000007,
      "v": 112
    },
    {
      "midi": 72,
      "hit": false,
      "t": 159924.6060937502,
      "d": 326.9163750000007,
      "v": 112
    },
    {
      "midi": 67,
      "hit": false,
      "t": 159924.6060937502,
      "d": 341.3391562500037,
      "v": 112
    },
    {
      "midi": 60,
      "hit": false,
      "t": 159924.6060937502,
      "d": 384.6075000000128,
      "v": 112
    },
    {
      "midi": 60,
      "hit": false,
      "t": 159929.41368749988,
      "d": 52.8835312500014,
      "v": 112
    },
    {
      "midi": 65,
      "hit": false,
      "t": 160039.9883437499,
      "d": 81.72909375000745,
      "v": 112
    },
    {
      "midi": 67,
      "hit": false,
      "t": 160039.9883437499,
      "d": 81.72909375000745,
      "v": 112
    },
    {
      "midi": 72,
      "hit": false,
      "t": 160039.9883437499,
      "d": 81.72909375000745,
      "v": 112
    },
    {
      "midi": 60,
      "hit": false,
      "t": 160270.7528437499,
      "d": 62.498718749993714,
      "v": 112
    },
    {
      "midi": 65,
      "hit": false,
      "t": 160386.1350937499,
      "d": 76.92149999999674,
      "v": 112
    },
    {
      "midi": 67,
      "hit": false,
      "t": 160386.1350937499,
      "d": 76.92149999999674,
      "v": 112
    },
    {
      "midi": 72,
      "hit": false,
      "t": 160386.1350937499,
      "d": 76.92149999999674,
      "v": 112
    },
    {
      "midi": 60,
      "hit": false,
      "t": 160501.5173437499,
      "d": 43.26834375000908,
      "v": 112
    },
    {
      "midi": 72,
      "hit": false,
      "t": 160616.8995937502,
      "d": 134.61262500000885,
      "v": 112
    },
    {
      "midi": 60,
      "hit": false,
      "t": 160616.8995937502,
      "d": 139.42021875001956,
      "v": 112
    },
    {
      "midi": 67,
      "hit": false,
      "t": 160616.8995937502,
      "d": 158.6505937500333,
      "v": 112
    },
    {
      "midi": 64,
      "hit": false,
      "t": 160616.8995937502,
      "d": 197.11134375003166,
      "v": 112
    },
    {
      "midi": 67,
      "hit": false,
      "t": 160621.7071874999,
      "d": 124.99743750001653,
      "v": 112
    },
    {
      "midi": 72,
      "hit": false,
      "t": 160621.7071874999,
      "d": 134.61262500000885,
      "v": 112
    },
    {
      "midi": 60,
      "hit": false,
      "t": 160626.51478124992,
      "d": 57.69112500001211,
      "v": 112
    },
    {
      "midi": 64,
      "hit": false,
      "t": 160626.51478124992,
      "d": 105.7670625000028,
      "v": 112
    },
    {
      "midi": 60,
      "hit": false,
      "t": 161304.3855000002,
      "d": 120.18984375000582,
      "v": 112
    },
    {
      "midi": 60,
      "hit": false,
      "t": 161309.19309374993,
      "d": 100.95946874999208,
      "v": 112
    },
    {
      "midi": 64,
      "hit": false,
      "t": 161309.19309374993,
      "d": 134.61262499997974,
      "v": 112
    },
    {
      "midi": 48,
      "hit": false,
      "t": 161309.19309375022,
      "d": 129.80503124999814,
      "v": 112
    },
    {
      "midi": 64,
      "hit": false,
      "t": 161309.19309375022,
      "d": 163.4581874999858,
      "v": 112
    },
    {
      "midi": 62,
      "hit": false,
      "t": 161539.95759374992,
      "d": 230.76450000001932,
      "v": 112
    },
    {
      "midi": 62,
      "hit": false,
      "t": 161539.9575937502,
      "d": 370.1847187500098,
      "v": 112
    },
    {
      "midi": 65,
      "hit": false,
      "t": 161539.9575937502,
      "d": 423.0682500000112,
      "v": 112
    },
    {
      "midi": 50,
      "hit": false,
      "t": 161539.9575937502,
      "d": 466.33659375002026,
      "v": 112
    },
    {
      "midi": 67,
      "hit": false,
      "t": 161544.76518749993,
      "d": 28.845562500006054,
      "v": 112
    },
    {
      "midi": 65,
      "hit": false,
      "t": 161544.76518749993,
      "d": 211.5341250000056,
      "v": 112
    },
    {
      "midi": 64,
      "hit": false,
      "t": 162001.48659374993,
      "d": 144.22781250000116,
      "v": 112
    },
    {
      "midi": 64,
      "hit": false,
      "t": 162001.48659375022,
      "d": 374.9923125000205,
      "v": 112
    },
    {
      "midi": 67,
      "hit": false,
      "t": 162001.48659375022,
      "d": 394.2226875000342,
      "v": 112
    },
    {
      "midi": 52,
      "hit": false,
      "t": 162001.48659375022,
      "d": 408.64546875003725,
      "v": 112
    },
    {
      "midi": 67,
      "hit": false,
      "t": 162006.29418749994,
      "d": 163.4581874999858,
      "v": 112
    },
    {
      "midi": 60,
      "hit": false,
      "t": 162463.01559375026,
      "d": 81.72909375000745,
      "v": 112
    },
    {
      "midi": 29,
      "hit": false,
      "t": 162463.01559375026,
      "d": 86.53668750001816,
      "v": 112
    },
    {
      "midi": 53,
      "hit": false,
      "t": 162463.01559375026,
      "d": 86.53668750001816,
      "v": 112
    },
    {
      "midi": 69,
      "hit": false,
      "t": 162467.82318750027,
      "d": 33.65315624998766,
      "v": 112
    },
    {
      "midi": 65,
      "hit": false,
      "t": 162467.82318750027,
      "d": 38.46074999999837,
      "v": 112
    },
    {
      "midi": 69,
      "hit": false,
      "t": 162693.78009375028,
      "d": 48.07593749999069,
      "v": 112
    },
    {
      "midi": 53,
      "hit": false,
      "t": 162693.78009375028,
      "d": 96.15187499998137,
      "v": 112
    },
    {
      "midi": 60,
      "hit": false,
      "t": 162693.78009375028,
      "d": 96.15187499998137,
      "v": 112
    },
    {
      "midi": 65,
      "hit": false,
      "t": 162693.78009375028,
      "d": 96.15187499998137,
      "v": 112
    },
    {
      "midi": 29,
      "hit": false,
      "t": 162693.78009375028,
      "d": 120.18984374997672,
      "v": 112
    },
    {
      "midi": 65,
      "hit": false,
      "t": 162698.58768749994,
      "d": 57.69112500001211,
      "v": 112
    },
    {
      "midi": 60,
      "hit": false,
      "t": 162698.58768749994,
      "d": 62.49871875002282,
      "v": 112
    },
    {
      "midi": 69,
      "hit": false,
      "t": 162698.58768749994,
      "d": 62.49871875002282,
      "v": 112
    },
    {
      "midi": 60,
      "hit": false,
      "t": 163039.92684374997,
      "d": 67.30631250000442,
      "v": 112
    },
    {
      "midi": 65,
      "hit": false,
      "t": 163039.92684374997,
      "d": 67.30631250000442,
      "v": 112
    },
    {
      "midi": 69,
      "hit": false,
      "t": 163039.92684374997,
      "d": 72.11390625001513,
      "v": 112
    },
    {
      "midi": 65,
      "hit": false,
      "t": 163039.92684375026,
      "d": 96.15187500001048,
      "v": 112
    },
    {
      "midi": 29,
      "hit": false,
      "t": 163039.92684375026,
      "d": 105.7670625000028,
      "v": 112
    },
    {
      "midi": 69,
      "hit": false,
      "t": 163039.92684375026,
      "d": 124.99743750001653,
      "v": 112
    },
    {
      "midi": 60,
      "hit": false,
      "t": 163039.92684375026,
      "d": 129.80503125002724,
      "v": 112
    },
    {
      "midi": 65,
      "hit": false,
      "t": 163270.69134375,
      "d": 76.92149999999674,
      "v": 112
    },
    {
      "midi": 60,
      "hit": false,
      "t": 163270.69134375,
      "d": 81.72909375000745,
      "v": 112
    },
    {
      "midi": 69,
      "hit": false,
      "t": 163270.69134375,
      "d": 81.72909375000745,
      "v": 112
    },
    {
      "midi": 29,
      "hit": false,
      "t": 163270.69134375028,
      "d": 62.498718749993714,
      "v": 112
    },
    {
      "midi": 29,
      "hit": false,
      "t": 163386.07359375028,
      "d": 120.18984375000582,
      "v": 112
    },
    {
      "midi": 60,
      "hit": false,
      "t": 163386.07359375028,
      "d": 139.42021875001956,
      "v": 112
    },
    {
      "midi": 65,
      "hit": false,
      "t": 163386.07359375028,
      "d": 139.42021875001956,
      "v": 112
    },
    {
      "midi": 60,
      "hit": false,
      "t": 163390.8811875,
      "d": 81.72909375000745,
      "v": 112
    },
    {
      "midi": 65,
      "hit": false,
      "t": 163390.8811875,
      "d": 81.72909375000745,
      "v": 112
    },
    {
      "midi": 69,
      "hit": false,
      "t": 163390.8811875,
      "d": 81.72909375000745,
      "v": 112
    },
    {
      "midi": 69,
      "hit": false,
      "t": 163390.8811875003,
      "d": 129.80503124999814,
      "v": 112
    },
    {
      "midi": 29,
      "hit": false,
      "t": 164078.3670937503,
      "d": 67.30631250000442,
      "v": 112
    },
    {
      "midi": 31,
      "hit": false,
      "t": 164193.7493437503,
      "d": 105.7670625000028,
      "v": 112
    },
    {
      "midi": 57,
      "hit": false,
      "t": 164309.1315937503,
      "d": 81.72909375000745,
      "v": 112
    },
    {
      "midi": 33,
      "hit": false,
      "t": 164309.1315937503,
      "d": 120.18984375000582,
      "v": 112
    },
    {
      "midi": 60,
      "hit": false,
      "t": 164313.9391875003,
      "d": 76.92149999999674,
      "v": 112
    },
    {
      "midi": 64,
      "hit": false,
      "t": 164313.9391875003,
      "d": 76.92149999999674,
      "v": 112
    },
    {
      "midi": 67,
      "hit": false,
      "t": 164313.9391875003,
      "d": 81.72909375000745,
      "v": 112
    },
    {
      "midi": 57,
      "hit": false,
      "t": 164539.8960937503,
      "d": 86.53668749998906,
      "v": 112
    },
    {
      "midi": 60,
      "hit": false,
      "t": 164539.8960937503,
      "d": 86.53668749998906,
      "v": 112
    },
    {
      "midi": 64,
      "hit": false,
      "t": 164539.8960937503,
      "d": 86.53668749998906,
      "v": 112
    },
    {
      "midi": 67,
      "hit": false,
      "t": 164539.8960937503,
      "d": 91.34428124999977,
      "v": 112
    },
    {
      "midi": 33,
      "hit": false,
      "t": 164539.8960937503,
      "d": 124.99743749998743,
      "v": 112
    },
    {
      "midi": 60,
      "hit": false,
      "t": 164544.7036875,
      "d": 57.69112500001211,
      "v": 112
    },
    {
      "midi": 64,
      "hit": false,
      "t": 164544.7036875,
      "d": 57.69112500001211,
      "v": 112
    },
    {
      "midi": 67,
      "hit": false,
      "t": 164544.7036875,
      "d": 57.69112500001211,
      "v": 112
    },
    {
      "midi": 60,
      "hit": false,
      "t": 164886.04284375,
      "d": 72.11390625001513,
      "v": 112
    },
    {
      "midi": 64,
      "hit": false,
      "t": 164886.04284375,
      "d": 76.92150000002584,
      "v": 112
    },
    {
      "midi": 64,
      "hit": false,
      "t": 164886.0428437503,
      "d": 96.15187500001048,
      "v": 112
    },
    {
      "midi": 33,
      "hit": false,
      "t": 164886.0428437503,
      "d": 120.18984375000582,
      "v": 112
    },
    {
      "midi": 57,
      "hit": false,
      "t": 164886.0428437503,
      "d": 124.99743750001653,
      "v": 112
    },
    {
      "midi": 60,
      "hit": false,
      "t": 164886.0428437503,
      "d": 124.99743750001653,
      "v": 112
    },
    {
      "midi": 67,
      "hit": false,
      "t": 164886.0428437503,
      "d": 144.22781250003027,
      "v": 112
    },
    {
      "midi": 67,
      "hit": false,
      "t": 164890.85043750002,
      "d": 81.72909375000745,
      "v": 112
    },
    {
      "midi": 60,
      "hit": false,
      "t": 165116.80734375003,
      "d": 76.92149999999674,
      "v": 112
    },
    {
      "midi": 64,
      "hit": false,
      "t": 165116.80734375003,
      "d": 76.92149999999674,
      "v": 112
    },
    {
      "midi": 67,
      "hit": false,
      "t": 165116.80734375003,
      "d": 76.92149999999674,
      "v": 112
    },
    {
      "midi": 33,
      "hit": false,
      "t": 165116.80734375032,
      "d": 67.30631250000442,
      "v": 112
    },
    {
      "midi": 57,
      "hit": false,
      "t": 165232.1895937503,
      "d": 124.99743750001653,
      "v": 112
    },
    {
      "midi": 33,
      "hit": false,
      "t": 165232.1895937503,
      "d": 144.22781250003027,
      "v": 112
    },
    {
      "midi": 67,
      "hit": false,
      "t": 165232.1895937503,
      "d": 158.6505937500333,
      "v": 112
    },
    {
      "midi": 60,
      "hit": false,
      "t": 165236.99718750003,
      "d": 86.53668749998906,
      "v": 112
    },
    {
      "midi": 64,
      "hit": false,
      "t": 165236.99718750003,
      "d": 86.53668749998906,
      "v": 112
    },
    {
      "midi": 67,
      "hit": false,
      "t": 165236.99718750003,
      "d": 86.53668749998906,
      "v": 112
    },
    {
      "midi": 60,
      "hit": false,
      "t": 165236.99718750032,
      "d": 115.38224999999511,
      "v": 112
    },
    {
      "midi": 64,
      "hit": false,
      "t": 165236.99718750032,
      "d": 115.38224999999511,
      "v": 112
    },
    {
      "midi": 58,
      "hit": false,
      "t": 166155.24759375033,
      "d": 81.72909375000745,
      "v": 112
    },
    {
      "midi": 34,
      "hit": false,
      "t": 166155.24759375033,
      "d": 110.5746562500135,
      "v": 112
    },
    {
      "midi": 62,
      "hit": false,
      "t": 166160.05518750034,
      "d": 76.92149999999674,
      "v": 112
    },
    {
      "midi": 53,
      "hit": false,
      "t": 166160.05518750034,
      "d": 96.15187500001048,
      "v": 112
    },
    {
      "midi": 65,
      "hit": false,
      "t": 166160.05518750034,
      "d": 96.15187500001048,
      "v": 112
    },
    {
      "midi": 62,
      "hit": false,
      "t": 166386.01209375035,
      "d": 91.34428124999977,
      "v": 112
    },
    {
      "midi": 58,
      "hit": false,
      "t": 166386.01209375035,
      "d": 96.15187500001048,
      "v": 112
    },
    {
      "midi": 65,
      "hit": false,
      "t": 166386.01209375035,
      "d": 96.15187500001048,
      "v": 112
    },
    {
      "midi": 53,
      "hit": false,
      "t": 166386.01209375035,
      "d": 100.95946875002119,
      "v": 112
    },
    {
      "midi": 34,
      "hit": false,
      "t": 166386.01209375035,
      "d": 115.38225000002421,
      "v": 112
    },
    {
      "midi": 62,
      "hit": false,
      "t": 166390.8196875,
      "d": 62.498718749993714,
      "v": 112
    },
    {
      "midi": 58,
      "hit": false,
      "t": 166390.8196875,
      "d": 67.30631250000442,
      "v": 112
    },
    {
      "midi": 65,
      "hit": false,
      "t": 166390.8196875,
      "d": 67.30631250000442,
      "v": 112
    },
    {
      "midi": 65,
      "hit": false,
      "t": 166732.15884375002,
      "d": 67.30631250000442,
      "v": 112
    },
    {
      "midi": 62,
      "hit": false,
      "t": 166732.15884375002,
      "d": 72.11390625001513,
      "v": 112
    },
    {
      "midi": 58,
      "hit": false,
      "t": 166732.15884375037,
      "d": 91.34428124999977,
      "v": 112
    },
    {
      "midi": 62,
      "hit": false,
      "t": 166732.15884375037,
      "d": 91.34428124999977,
      "v": 112
    },
    {
      "midi": 65,
      "hit": false,
      "t": 166732.15884375037,
      "d": 91.34428124999977,
      "v": 112
    },
    {
      "midi": 34,
      "hit": false,
      "t": 166732.15884375037,
      "d": 100.95946874999208,
      "v": 112
    },
    {
      "midi": 53,
      "hit": false,
      "t": 166732.15884375037,
      "d": 115.38224999999511,
      "v": 112
    },
    {
      "midi": 58,
      "hit": false,
      "t": 166736.96643750003,
      "d": 62.498718749993714,
      "v": 112
    },
    {
      "midi": 58,
      "hit": false,
      "t": 166962.92334375004,
      "d": 38.46074999999837,
      "v": 112
    },
    {
      "midi": 65,
      "hit": false,
      "t": 166962.92334375004,
      "d": 43.26834375000908,
      "v": 112
    },
    {
      "midi": 62,
      "hit": false,
      "t": 166962.92334375004,
      "d": 57.69112500001211,
      "v": 112
    },
    {
      "midi": 34,
      "hit": false,
      "t": 166962.92334375036,
      "d": 62.498718749993714,
      "v": 112
    },
    {
      "midi": 53,
      "hit": false,
      "t": 167078.30559375035,
      "d": 96.15187500001048,
      "v": 112
    },
    {
      "midi": 34,
      "hit": false,
      "t": 167078.30559375035,
      "d": 139.42021875004866,
      "v": 112
    },
    {
      "midi": 58,
      "hit": false,
      "t": 167083.11318750004,
      "d": 86.53668750001816,
      "v": 112
    },
    {
      "midi": 62,
      "hit": false,
      "t": 167083.11318750004,
      "d": 86.53668750001816,
      "v": 112
    },
    {
      "midi": 58,
      "hit": false,
      "t": 167083.11318750036,
      "d": 110.5746562500135,
      "v": 112
    },
    {
      "midi": 62,
      "hit": false,
      "t": 167083.11318750036,
      "d": 110.5746562500135,
      "v": 112
    },
    {
      "midi": 65,
      "hit": false,
      "t": 167083.11318750036,
      "d": 129.80503125002724,
      "v": 112
    },
    {
      "midi": 65,
      "hit": false,
      "t": 167087.92078125005,
      "d": 96.15187500001048,
      "v": 112
    },
    {
      "midi": 65,
      "hit": false,
      "t": 168001.3635937504,
      "d": 86.53668750001816,
      "v": 112
    },
    {
      "midi": 34,
      "hit": false,
      "t": 168001.3635937504,
      "d": 110.5746562500135,
      "v": 112
    },
    {
      "midi": 62,
      "hit": false,
      "t": 168006.1711875004,
      "d": 52.8835312500014,
      "v": 112
    },
    {
      "midi": 58,
      "hit": false,
      "t": 168006.1711875004,
      "d": 81.72909375000745,
      "v": 112
    },
    {
      "midi": 58,
      "hit": false,
      "t": 168232.12809375042,
      "d": 81.72909375000745,
      "v": 112
    },
    {
      "midi": 62,
      "hit": false,
      "t": 168232.12809375042,
      "d": 81.72909375000745,
      "v": 112
    },
    {
      "midi": 65,
      "hit": false,
      "t": 168232.12809375042,
      "d": 81.72909375000745,
      "v": 112
    },
    {
      "midi": 34,
      "hit": false,
      "t": 168232.12809375042,
      "d": 105.7670625000028,
      "v": 112
    },
    {
      "midi": 58,
      "hit": false,
      "t": 168236.93568750005,
      "d": 57.69112500001211,
      "v": 112
    },
    {
      "midi": 62,
      "hit": false,
      "t": 168236.93568750005,
      "d": 57.69112500001211,
      "v": 112
    },
    {
      "midi": 65,
      "hit": false,
      "t": 168236.93568750005,
      "d": 57.69112500001211,
      "v": 112
    },
    {
      "midi": 62,
      "hit": false,
      "t": 168578.27484375006,
      "d": 67.30631250000442,
      "v": 112
    },
    {
      "midi": 58,
      "hit": false,
      "t": 168578.27484375006,
      "d": 72.11390625001513,
      "v": 112
    },
    {
      "midi": 65,
      "hit": false,
      "t": 168578.27484375006,
      "d": 72.11390625001513,
      "v": 112
    },
    {
      "midi": 58,
      "hit": false,
      "t": 168578.27484375043,
      "d": 67.30631250000442,
      "v": 112
    },
    {
      "midi": 62,
      "hit": false,
      "t": 168578.27484375043,
      "d": 67.30631250000442,
      "v": 112
    },
    {
      "midi": 65,
      "hit": false,
      "t": 168578.27484375043,
      "d": 72.11390625001513,
      "v": 112
    },
    {
      "midi": 34,
      "hit": false,
      "t": 168578.27484375043,
      "d": 100.95946875002119,
      "v": 112
    },
    {
      "midi": 58,
      "hit": false,
      "t": 168809.03934375008,
      "d": 38.46074999999837,
      "v": 112
    },
    {
      "midi": 65,
      "hit": false,
      "t": 168809.03934375008,
      "d": 38.46074999999837,
      "v": 112
    },
    {
      "midi": 62,
      "hit": false,
      "t": 168809.03934375008,
      "d": 57.69112500001211,
      "v": 112
    },
    {
      "midi": 34,
      "hit": false,
      "t": 168809.03934375045,
      "d": 62.498718749993714,
      "v": 112
    },
    {
      "midi": 65,
      "hit": false,
      "t": 168924.42159375045,
      "d": 115.38225000002421,
      "v": 112
    },
    {
      "midi": 34,
      "hit": false,
      "t": 168924.42159375045,
      "d": 201.91893750001327,
      "v": 112
    },
    {
      "midi": 58,
      "hit": false,
      "t": 168929.22918750008,
      "d": 76.92149999999674,
      "v": 112
    },
    {
      "midi": 62,
      "hit": false,
      "t": 168929.22918750008,
      "d": 76.92149999999674,
      "v": 112
    },
    {
      "midi": 65,
      "hit": false,
      "t": 168929.22918750008,
      "d": 76.92149999999674,
      "v": 112
    },
    {
      "midi": 58,
      "hit": false,
      "t": 168929.22918750046,
      "d": 91.34428124999977,
      "v": 112
    },
    {
      "midi": 62,
      "hit": false,
      "t": 168929.22918750046,
      "d": 110.5746562500135,
      "v": 112
    },
    {
      "midi": 60,
      "hit": false,
      "t": 169847.47959375047,
      "d": 67.30631250000442,
      "v": 112
    },
    {
      "midi": 65,
      "hit": false,
      "t": 169847.47959375047,
      "d": 67.30631250000442,
      "v": 112
    },
    {
      "midi": 29,
      "hit": false,
      "t": 169847.47959375047,
      "d": 81.72909375000745,
      "v": 112
    },
    {
      "midi": 69,
      "hit": false,
      "t": 169852.28718750048,
      "d": 81.72909375000745,
      "v": 112
    },
    {
      "midi": 60,
      "hit": false,
      "t": 170078.2440937505,
      "d": 86.53668749998906,
      "v": 112
    },
    {
      "midi": 65,
      "hit": false,
      "t": 170078.2440937505,
      "d": 86.53668749998906,
      "v": 112
    },
    {
      "midi": 29,
      "hit": false,
      "t": 170078.2440937505,
      "d": 91.34428124999977,
      "v": 112
    },
    {
      "midi": 69,
      "hit": false,
      "t": 170078.2440937505,
      "d": 96.15187500001048,
      "v": 112
    },
    {
      "midi": 60,
      "hit": false,
      "t": 170083.0516875001,
      "d": 52.8835312500014,
      "v": 112
    },
    {
      "midi": 69,
      "hit": false,
      "t": 170083.0516875001,
      "d": 52.8835312500014,
      "v": 112
    },
    {
      "midi": 65,
      "hit": false,
      "t": 170083.0516875001,
      "d": 72.11390625001513,
      "v": 112
    },
    {
      "midi": 29,
      "hit": false,
      "t": 170419.5832500005,
      "d": 91.34428124999977,
      "v": 112
    },
    {
      "midi": 65,
      "hit": false,
      "t": 170424.3908437501,
      "d": 62.49871875002282,
      "v": 112
    },
    {
      "midi": 69,
      "hit": false,
      "t": 170424.3908437501,
      "d": 67.30631250003353,
      "v": 112
    },
    {
      "midi": 60,
      "hit": false,
      "t": 170424.3908437505,
      "d": 76.92149999999674,
      "v": 112
    },
    {
      "midi": 65,
      "hit": false,
      "t": 170424.3908437505,
      "d": 76.92149999999674,
      "v": 112
    },
    {
      "midi": 69,
      "hit": false,
      "t": 170424.3908437505,
      "d": 76.92149999999674,
      "v": 112
    },
    {
      "midi": 57,
      "hit": false,
      "t": 170424.3908437505,
      "d": 86.53668749998906,
      "v": 112
    },
    {
      "midi": 60,
      "hit": false,
      "t": 170429.1984375001,
      "d": 62.49871875002282,
      "v": 112
    },
    {
      "midi": 60,
      "hit": false,
      "t": 170655.1553437501,
      "d": 76.92149999999674,
      "v": 112
    },
    {
      "midi": 65,
      "hit": false,
      "t": 170655.1553437501,
      "d": 76.92149999999674,
      "v": 112
    },
    {
      "midi": 69,
      "hit": false,
      "t": 170655.1553437501,
      "d": 76.92149999999674,
      "v": 112
    },
    {
      "midi": 29,
      "hit": false,
      "t": 170655.1553437505,
      "d": 57.69112500001211,
      "v": 112
    },
    {
      "midi": 60,
      "hit": false,
      "t": 170770.53759375052,
      "d": 91.34428125002887,
      "v": 112
    },
    {
      "midi": 65,
      "hit": false,
      "t": 170770.53759375052,
      "d": 91.34428125002887,
      "v": 112
    },
    {
      "midi": 69,
      "hit": false,
      "t": 170770.53759375052,
      "d": 91.34428125002887,
      "v": 112
    },
    {
      "midi": 29,
      "hit": false,
      "t": 170770.53759375052,
      "d": 105.7670625000319,
      "v": 112
    },
    {
      "midi": 60,
      "hit": false,
      "t": 170775.34518750012,
      "d": 72.11390624998603,
      "v": 112
    },
    {
      "midi": 65,
      "hit": false,
      "t": 170775.34518750012,
      "d": 72.11390624998603,
      "v": 112
    },
    {
      "midi": 69,
      "hit": false,
      "t": 170775.34518750012,
      "d": 72.11390624998603,
      "v": 112
    },
    {
      "midi": 57,
      "hit": false,
      "t": 170775.34518750053,
      "d": 81.72909375000745,
      "v": 112
    },
    {
      "midi": 29,
      "hit": false,
      "t": 171462.83109375054,
      "d": 100.95946874999208,
      "v": 112
    },
    {
      "midi": 31,
      "hit": false,
      "t": 171578.21334375054,
      "d": 105.7670625000028,
      "v": 112
    },
    {
      "midi": 57,
      "hit": false,
      "t": 171693.59559375054,
      "d": 81.72909375000745,
      "v": 112
    },
    {
      "midi": 64,
      "hit": false,
      "t": 171693.59559375054,
      "d": 81.72909375000745,
      "v": 112
    },
    {
      "midi": 33,
      "hit": false,
      "t": 171693.59559375054,
      "d": 96.15187500001048,
      "v": 112
    },
    {
      "midi": 60,
      "hit": false,
      "t": 171698.40318750055,
      "d": 76.92149999999674,
      "v": 112
    },
    {
      "midi": 67,
      "hit": false,
      "t": 171698.40318750055,
      "d": 81.72909375000745,
      "v": 112
    },
    {
      "midi": 57,
      "hit": false,
      "t": 171924.36009375055,
      "d": 57.69112500001211,
      "v": 112
    },
    {
      "midi": 60,
      "hit": false,
      "t": 171924.36009375055,
      "d": 57.69112500001211,
      "v": 112
    },
    {
      "midi": 64,
      "hit": false,
      "t": 171924.36009375055,
      "d": 62.49871875002282,
      "v": 112
    },
    {
      "midi": 33,
      "hit": false,
      "t": 171924.36009375055,
      "d": 91.34428125002887,
      "v": 112
    },
    {
      "midi": 67,
      "hit": false,
      "t": 171924.36009375055,
      "d": 105.7670625000319,
      "v": 112
    },
    {
      "midi": 57,
      "hit": false,
      "t": 171929.1676875001,
      "d": 72.11390624998603,
      "v": 112
    },
    {
      "midi": 60,
      "hit": false,
      "t": 171929.1676875001,
      "d": 72.11390624998603,
      "v": 112
    },
    {
      "midi": 64,
      "hit": false,
      "t": 171929.1676875001,
      "d": 72.11390624998603,
      "v": 112
    },
    {
      "midi": 67,
      "hit": false,
      "t": 171929.1676875001,
      "d": 76.92149999999674,
      "v": 112
    },
    {
      "midi": 57,
      "hit": false,
      "t": 172270.5068437501,
      "d": 91.34428124999977,
      "v": 112
    },
    {
      "midi": 64,
      "hit": false,
      "t": 172270.5068437501,
      "d": 91.34428124999977,
      "v": 112
    },
    {
      "midi": 60,
      "hit": false,
      "t": 172270.5068437506,
      "d": 86.53668749998906,
      "v": 112
    },
    {
      "midi": 64,
      "hit": false,
      "t": 172270.5068437506,
      "d": 91.34428124999977,
      "v": 112
    },
    {
      "midi": 33,
      "hit": false,
      "t": 172270.5068437506,
      "d": 96.15187500001048,
      "v": 112
    },
    {
      "midi": 57,
      "hit": false,
      "t": 172270.5068437506,
      "d": 96.15187500001048,
      "v": 112
    },
    {
      "midi": 67,
      "hit": false,
      "t": 172270.5068437506,
      "d": 96.15187500001048,
      "v": 112
    },
    {
      "midi": 60,
      "hit": false,
      "t": 172275.3144375001,
      "d": 91.34428124999977,
      "v": 112
    },
    {
      "midi": 67,
      "hit": false,
      "t": 172275.3144375001,
      "d": 96.15187500001048,
      "v": 112
    },
    {
      "midi": 60,
      "hit": false,
      "t": 172501.27134375012,
      "d": 81.72909375000745,
      "v": 112
    },
    {
      "midi": 64,
      "hit": false,
      "t": 172501.27134375012,
      "d": 81.72909375000745,
      "v": 112
    },
    {
      "midi": 67,
      "hit": false,
      "t": 172501.27134375012,
      "d": 81.72909375000745,
      "v": 112
    },
    {
      "midi": 33,
      "hit": false,
      "t": 172501.27134375062,
      "d": 52.8835312500014,
      "v": 112
    },
    {
      "midi": 57,
      "hit": false,
      "t": 172616.6535937506,
      "d": 91.34428125002887,
      "v": 112
    },
    {
      "midi": 64,
      "hit": false,
      "t": 172616.6535937506,
      "d": 91.34428125002887,
      "v": 112
    },
    {
      "midi": 33,
      "hit": false,
      "t": 172616.6535937506,
      "d": 120.18984375003492,
      "v": 112
    },
    {
      "midi": 60,
      "hit": false,
      "t": 172621.46118750013,
      "d": 91.34428124999977,
      "v": 112
    },
    {
      "midi": 64,
      "hit": false,
      "t": 172621.46118750013,
      "d": 91.34428124999977,
      "v": 112
    },
    {
      "midi": 67,
      "hit": false,
      "t": 172621.46118750013,
      "d": 96.15187500001048,
      "v": 112
    },
    {
      "midi": 60,
      "hit": false,
      "t": 172621.46118750062,
      "d": 81.72909375000745,
      "v": 112
    },
    {
      "midi": 67,
      "hit": false,
      "t": 172621.46118750062,
      "d": 81.72909375000745,
      "v": 112
    },
    {
      "midi": 58,
      "hit": false,
      "t": 173539.71159375066,
      "d": 86.53668750001816,
      "v": 112
    },
    {
      "midi": 34,
      "hit": false,
      "t": 173539.71159375066,
      "d": 110.5746562500135,
      "v": 112
    },
    {
      "midi": 62,
      "hit": false,
      "t": 173544.51918750067,
      "d": 57.69112500001211,
      "v": 112
    },
    {
      "midi": 65,
      "hit": false,
      "t": 173544.51918750067,
      "d": 57.69112500001211,
      "v": 112
    },
    {
      "midi": 58,
      "hit": false,
      "t": 173770.47609375068,
      "d": 81.72909375000745,
      "v": 112
    },
    {
      "midi": 62,
      "hit": false,
      "t": 173770.47609375068,
      "d": 81.72909375000745,
      "v": 112
    },
    {
      "midi": 34,
      "hit": false,
      "t": 173770.47609375068,
      "d": 86.53668750001816,
      "v": 112
    },
    {
      "midi": 65,
      "hit": false,
      "t": 173770.47609375068,
      "d": 86.53668750001816,
      "v": 112
    },
    {
      "midi": 58,
      "hit": false,
      "t": 173775.28368750014,
      "d": 57.69112500001211,
      "v": 112
    },
    {
      "midi": 62,
      "hit": false,
      "t": 173775.28368750014,
      "d": 62.49871875002282,
      "v": 112
    },
    {
      "midi": 65,
      "hit": false,
      "t": 173775.28368750014,
      "d": 76.92150000002584,
      "v": 112
    },
    {
      "midi": 62,
      "hit": false,
      "t": 174116.62284375017,
      "d": 67.30631250000442,
      "v": 112
    },
    {
      "midi": 58,
      "hit": false,
      "t": 174116.62284375017,
      "d": 72.11390625001513,
      "v": 112
    },
    {
      "midi": 65,
      "hit": false,
      "t": 174116.62284375017,
      "d": 72.11390625001513,
      "v": 112
    },
    {
      "midi": 58,
      "hit": false,
      "t": 174116.6228437507,
      "d": 96.15187500001048,
      "v": 112
    },
    {
      "midi": 62,
      "hit": false,
      "t": 174116.6228437507,
      "d": 96.15187500001048,
      "v": 112
    },
    {
      "midi": 65,
      "hit": false,
      "t": 174116.6228437507,
      "d": 96.15187500001048,
      "v": 112
    },
    {
      "midi": 34,
      "hit": false,
      "t": 174116.6228437507,
      "d": 100.95946875002119,
      "v": 112
    },
    {
      "midi": 58,
      "hit": false,
      "t": 174347.3873437502,
      "d": 43.26834375000908,
      "v": 112
    },
    {
      "midi": 65,
      "hit": false,
      "t": 174347.3873437502,
      "d": 43.26834375000908,
      "v": 112
    },
    {
      "midi": 62,
      "hit": false,
      "t": 174347.3873437502,
      "d": 62.49871875002282,
      "v": 112
    },
    {
      "midi": 34,
      "hit": false,
      "t": 174347.3873437507,
      "d": 52.8835312500014,
      "v": 112
    },
    {
      "midi": 65,
      "hit": false,
      "t": 174462.7695937507,
      "d": 67.30631250000442,
      "v": 112
    },
    {
      "midi": 58,
      "hit": false,
      "t": 174462.7695937507,
      "d": 96.15187500001048,
      "v": 112
    },
    {
      "midi": 34,
      "hit": false,
      "t": 174462.7695937507,
      "d": 134.61262500000885,
      "v": 112
    },
    {
      "midi": 58,
      "hit": false,
      "t": 174467.57718750022,
      "d": 72.11390624998603,
      "v": 112
    },
    {
      "midi": 62,
      "hit": false,
      "t": 174467.57718750022,
      "d": 72.11390624998603,
      "v": 112
    },
    {
      "midi": 65,
      "hit": false,
      "t": 174467.57718750022,
      "d": 91.34428124999977,
      "v": 112
    },
    {
      "midi": 62,
      "hit": false,
      "t": 174467.57718750072,
      "d": 62.498718749993714,
      "v": 112
    },
    {
      "midi": 34,
      "hit": false,
      "t": 175155.0630937507,
      "d": 48.07593749999069,
      "v": 112
    },
    {
      "midi": 34,
      "hit": false,
      "t": 175270.4453437507,
      "d": 48.07593749999069,
      "v": 112
    },
    {
      "midi": 65,
      "hit": false,
      "t": 175385.8275937507,
      "d": 72.11390625001513,
      "v": 112
    },
    {
      "midi": 34,
      "hit": false,
      "t": 175385.8275937507,
      "d": 100.95946875002119,
      "v": 112
    },
    {
      "midi": 58,
      "hit": false,
      "t": 175390.6351875007,
      "d": 62.498718749993714,
      "v": 112
    },
    {
      "midi": 62,
      "hit": false,
      "t": 175390.6351875007,
      "d": 67.30631250000442,
      "v": 112
    },
    {
      "midi": 34,
      "hit": false,
      "t": 175616.59209375072,
      "d": 67.30631250000442,
      "v": 112
    },
    {
      "midi": 58,
      "hit": false,
      "t": 175616.59209375072,
      "d": 81.72909375000745,
      "v": 112
    },
    {
      "midi": 62,
      "hit": false,
      "t": 175616.59209375072,
      "d": 81.72909375000745,
      "v": 112
    },
    {
      "midi": 65,
      "hit": false,
      "t": 175616.59209375072,
      "d": 81.72909375000745,
      "v": 112
    },
    {
      "midi": 58,
      "hit": false,
      "t": 175621.39968750023,
      "d": 67.30631250000442,
      "v": 112
    },
    {
      "midi": 62,
      "hit": false,
      "t": 175621.39968750023,
      "d": 67.30631250000442,
      "v": 112
    },
    {
      "midi": 65,
      "hit": false,
      "t": 175621.39968750023,
      "d": 67.30631250000442,
      "v": 112
    },
    {
      "midi": 58,
      "hit": false,
      "t": 175962.73884375024,
      "d": 67.30631250000442,
      "v": 112
    },
    {
      "midi": 62,
      "hit": false,
      "t": 175962.73884375024,
      "d": 67.30631250000442,
      "v": 112
    },
    {
      "midi": 65,
      "hit": false,
      "t": 175962.73884375024,
      "d": 67.30631250000442,
      "v": 112
    },
    {
      "midi": 58,
      "hit": false,
      "t": 175962.73884375073,
      "d": 81.72909375000745,
      "v": 112
    },
    {
      "midi": 62,
      "hit": false,
      "t": 175962.73884375073,
      "d": 81.72909375000745,
      "v": 112
    },
    {
      "midi": 65,
      "hit": false,
      "t": 175962.73884375073,
      "d": 86.53668750001816,
      "v": 112
    },
    {
      "midi": 34,
      "hit": false,
      "t": 175962.73884375073,
      "d": 91.34428125002887,
      "v": 112
    },
    {
      "midi": 65,
      "hit": false,
      "t": 176193.50334375023,
      "d": 72.11390624998603,
      "v": 112
    },
    {
      "midi": 58,
      "hit": false,
      "t": 176193.50334375023,
      "d": 76.92149999999674,
      "v": 112
    },
    {
      "midi": 62,
      "hit": false,
      "t": 176193.50334375023,
      "d": 76.92149999999674,
      "v": 112
    },
    {
      "midi": 34,
      "hit": false,
      "t": 176193.50334375075,
      "d": 52.8835312500014,
      "v": 112
    },
    {
      "midi": 58,
      "hit": false,
      "t": 176308.88559375075,
      "d": 76.92149999999674,
      "v": 112
    },
    {
      "midi": 34,
      "hit": false,
      "t": 176308.88559375075,
      "d": 91.34428124999977,
      "v": 112
    },
    {
      "midi": 65,
      "hit": false,
      "t": 176308.88559375075,
      "d": 105.7670625000028,
      "v": 112
    },
    {
      "midi": 58,
      "hit": false,
      "t": 176313.69318750023,
      "d": 72.11390624998603,
      "v": 112
    },
    {
      "midi": 62,
      "hit": false,
      "t": 176313.69318750023,
      "d": 72.11390624998603,
      "v": 112
    },
    {
      "midi": 65,
      "hit": false,
      "t": 176313.69318750023,
      "d": 72.11390624998603,
      "v": 112
    },
    {
      "midi": 62,
      "hit": false,
      "t": 176313.69318750076,
      "d": 86.53668749998906,
      "v": 112
    },
    {
      "midi": 34,
      "hit": false,
      "t": 176770.41459375076,
      "d": 110.5746562500135,
      "v": 112
    },
    {
      "midi": 36,
      "hit": false,
      "t": 177001.17909375078,
      "d": 76.92149999999674,
      "v": 112
    },
    {
      "midi": 38,
      "hit": false,
      "t": 177231.94359375077,
      "d": 72.11390625001513,
      "v": 112
    },
    {
      "midi": 57,
      "hit": false,
      "t": 177231.94359375077,
      "d": 100.95946875005029,
      "v": 112
    },
    {
      "midi": 65,
      "hit": false,
      "t": 177236.75118750078,
      "d": 38.46074999999837,
      "v": 112
    },
    {
      "midi": 62,
      "hit": false,
      "t": 177236.75118750078,
      "d": 72.11390625001513,
      "v": 112
    },
    {
      "midi": 69,
      "hit": false,
      "t": 177236.75118750078,
      "d": 76.92150000002584,
      "v": 112
    },
    {
      "midi": 65,
      "hit": false,
      "t": 177462.7080937508,
      "d": 57.69112500001211,
      "v": 112
    },
    {
      "midi": 38,
      "hit": false,
      "t": 177462.7080937508,
      "d": 72.11390625001513,
      "v": 112
    },
    {
      "midi": 62,
      "hit": false,
      "t": 177462.7080937508,
      "d": 96.15187500001048,
      "v": 112
    },
    {
      "midi": 69,
      "hit": false,
      "t": 177462.7080937508,
      "d": 96.15187500001048,
      "v": 112
    },
    {
      "midi": 57,
      "hit": false,
      "t": 177462.7080937508,
      "d": 100.95946875002119,
      "v": 112
    },
    {
      "midi": 69,
      "hit": false,
      "t": 177467.5156875002,
      "d": 52.8835312500014,
      "v": 112
    },
    {
      "midi": 62,
      "hit": false,
      "t": 177467.5156875002,
      "d": 57.69112500001211,
      "v": 112
    },
    {
      "midi": 65,
      "hit": false,
      "t": 177467.5156875002,
      "d": 57.69112500001211,
      "v": 112
    },
    {
      "midi": 65,
      "hit": false,
      "t": 177808.85484375022,
      "d": 72.11390625001513,
      "v": 112
    },
    {
      "midi": 69,
      "hit": false,
      "t": 177808.85484375022,
      "d": 72.11390625001513,
      "v": 112
    },
    {
      "midi": 38,
      "hit": false,
      "t": 177808.85484375083,
      "d": 81.72909375000745,
      "v": 112
    },
    {
      "midi": 62,
      "hit": false,
      "t": 177808.85484375083,
      "d": 81.72909375000745,
      "v": 112
    },
    {
      "midi": 57,
      "hit": false,
      "t": 177808.85484375083,
      "d": 86.53668750001816,
      "v": 112
    },
    {
      "midi": 65,
      "hit": false,
      "t": 177808.85484375083,
      "d": 86.53668750001816,
      "v": 112
    },
    {
      "midi": 69,
      "hit": false,
      "t": 177808.85484375083,
      "d": 86.53668750001816,
      "v": 112
    },
    {
      "midi": 62,
      "hit": false,
      "t": 177813.66243750023,
      "d": 67.30631250000442,
      "v": 112
    },
    {
      "midi": 69,
      "hit": false,
      "t": 178039.61934375024,
      "d": 38.46074999999837,
      "v": 112
    },
    {
      "midi": 62,
      "hit": false,
      "t": 178039.61934375024,
      "d": 67.30631250000442,
      "v": 112
    },
    {
      "midi": 65,
      "hit": false,
      "t": 178039.61934375024,
      "d": 72.11390625001513,
      "v": 112
    },
    {
      "midi": 38,
      "hit": false,
      "t": 178039.61934375085,
      "d": 48.07593749999069,
      "v": 112
    },
    {
      "midi": 57,
      "hit": false,
      "t": 178155.00159375084,
      "d": 110.5746562500135,
      "v": 112
    },
    {
      "midi": 69,
      "hit": false,
      "t": 178155.00159375084,
      "d": 110.5746562500135,
      "v": 112
    },
    {
      "midi": 38,
      "hit": false,
      "t": 178155.00159375084,
      "d": 120.18984375000582,
      "v": 112
    },
    {
      "midi": 62,
      "hit": false,
      "t": 178159.80918750024,
      "d": 76.92149999999674,
      "v": 112
    },
    {
      "midi": 65,
      "hit": false,
      "t": 178159.80918750024,
      "d": 76.92149999999674,
      "v": 112
    },
    {
      "midi": 69,
      "hit": false,
      "t": 178159.80918750024,
      "d": 76.92149999999674,
      "v": 112
    },
    {
      "midi": 62,
      "hit": false,
      "t": 178159.80918750085,
      "d": 81.72909375000745,
      "v": 112
    },
    {
      "midi": 65,
      "hit": false,
      "t": 178159.80918750085,
      "d": 91.34428124999977,
      "v": 112
    },
    {
      "midi": 57,
      "hit": false,
      "t": 179078.05959375086,
      "d": 96.15187500001048,
      "v": 112
    },
    {
      "midi": 36,
      "hit": false,
      "t": 179078.05959375086,
      "d": 120.18984375000582,
      "v": 112
    },
    {
      "midi": 60,
      "hit": false,
      "t": 179082.86718750087,
      "d": 67.30631250000442,
      "v": 112
    },
    {
      "midi": 65,
      "hit": false,
      "t": 179082.86718750087,
      "d": 67.30631250000442,
      "v": 112
    },
    {
      "midi": 69,
      "hit": false,
      "t": 179082.86718750087,
      "d": 67.30631250000442,
      "v": 112
    },
    {
      "midi": 65,
      "hit": false,
      "t": 179308.82409375088,
      "d": 52.8835312500014,
      "v": 112
    },
    {
      "midi": 60,
      "hit": false,
      "t": 179308.82409375088,
      "d": 96.15187500001048,
      "v": 112
    },
    {
      "midi": 57,
      "hit": false,
      "t": 179308.82409375088,
      "d": 100.95946875002119,
      "v": 112
    },
    {
      "midi": 36,
      "hit": false,
      "t": 179308.82409375088,
      "d": 110.5746562500135,
      "v": 112
    },
    {
      "midi": 60,
      "hit": false,
      "t": 179313.63168750025,
      "d": 57.69112500001211,
      "v": 112
    },
    {
      "midi": 65,
      "hit": false,
      "t": 179313.63168750025,
      "d": 57.69112500001211,
      "v": 112
    },
    {
      "midi": 69,
      "hit": false,
      "t": 179313.63168750025,
      "d": 57.69112500001211,
      "v": 112
    },
    {
      "midi": 69,
      "hit": false,
      "t": 179313.6316875009,
      "d": 91.34428124999977,
      "v": 112
    },
    {
      "midi": 65,
      "hit": false,
      "t": 179654.97084375026,
      "d": 67.30631250003353,
      "v": 112
    },
    {
      "midi": 69,
      "hit": false,
      "t": 179654.97084375026,
      "d": 67.30631250003353,
      "v": 112
    },
    {
      "midi": 60,
      "hit": false,
      "t": 179654.9708437509,
      "d": 86.53668749998906,
      "v": 112
    },
    {
      "midi": 69,
      "hit": false,
      "t": 179654.9708437509,
      "d": 86.53668749998906,
      "v": 112
    },
    {
      "midi": 57,
      "hit": false,
      "t": 179654.9708437509,
      "d": 91.34428124999977,
      "v": 112
    },
    {
      "midi": 65,
      "hit": false,
      "t": 179654.9708437509,
      "d": 91.34428124999977,
      "v": 112
    },
    {
      "midi": 36,
      "hit": false,
      "t": 179654.9708437509,
      "d": 110.5746562500135,
      "v": 112
    },
    {
      "midi": 60,
      "hit": false,
      "t": 179659.77843750027,
      "d": 57.69112500001211,
      "v": 112
    },
    {
      "midi": 60,
      "hit": false,
      "t": 179885.73534375028,
      "d": 33.65315624998766,
      "v": 112
    },
    {
      "midi": 65,
      "hit": false,
      "t": 179885.73534375028,
      "d": 33.65315624998766,
      "v": 112
    },
    {
      "midi": 69,
      "hit": false,
      "t": 179885.73534375028,
      "d": 33.65315624998766,
      "v": 112
    },
    {
      "midi": 36,
      "hit": false,
      "t": 179885.73534375092,
      "d": 76.92149999999674,
      "v": 112
    },
    {
      "midi": 57,
      "hit": false,
      "t": 180001.1175937509,
      "d": 91.34428124999977,
      "v": 112
    },
    {
      "midi": 36,
      "hit": false,
      "t": 180001.1175937509,
      "d": 139.42021875001956,
      "v": 112
    },
    {
      "midi": 60,
      "hit": false,
      "t": 180005.92518750025,
      "d": 81.72909375000745,
      "v": 112
    },
    {
      "midi": 65,
      "hit": false,
      "t": 180005.92518750025,
      "d": 81.72909375000745,
      "v": 112
    },
    {
      "midi": 69,
      "hit": false,
      "t": 180005.92518750025,
      "d": 100.95946875002119,
      "v": 112
    },
    {
      "midi": 60,
      "hit": false,
      "t": 180005.92518750092,
      "d": 100.95946874999208,
      "v": 112
    },
    {
      "midi": 65,
      "hit": false,
      "t": 180005.92518750092,
      "d": 100.95946874999208,
      "v": 112
    },
    {
      "midi": 69,
      "hit": false,
      "t": 180005.92518750092,
      "d": 120.18984375000582,
      "v": 112
    },
    {
      "midi": 36,
      "hit": false,
      "t": 180693.41109375094,
      "d": 76.92149999999674,
      "v": 112
    },
    {
      "midi": 38,
      "hit": false,
      "t": 180808.79334375093,
      "d": 86.53668749998906,
      "v": 112
    },
    {
      "midi": 70,
      "hit": false,
      "t": 180924.17559375093,
      "d": 86.53668750001816,
      "v": 112
    },
    {
      "midi": 39,
      "hit": false,
      "t": 180924.17559375093,
      "d": 96.15187500001048,
      "v": 112
    },
    {
      "midi": 58,
      "hit": false,
      "t": 180928.98318750094,
      "d": 72.11390624998603,
      "v": 112
    },
    {
      "midi": 63,
      "hit": false,
      "t": 180928.98318750094,
      "d": 76.92149999999674,
      "v": 112
    },
    {
      "midi": 67,
      "hit": false,
      "t": 180928.98318750094,
      "d": 81.72909375000745,
      "v": 112
    },
    {
      "midi": 58,
      "hit": false,
      "t": 181154.94009375095,
      "d": 86.53668749998906,
      "v": 112
    },
    {
      "midi": 67,
      "hit": false,
      "t": 181154.94009375095,
      "d": 86.53668749998906,
      "v": 112
    },
    {
      "midi": 63,
      "hit": false,
      "t": 181154.94009375095,
      "d": 91.34428124999977,
      "v": 112
    },
    {
      "midi": 70,
      "hit": false,
      "t": 181154.94009375095,
      "d": 91.34428124999977,
      "v": 112
    },
    {
      "midi": 39,
      "hit": false,
      "t": 181154.94009375095,
      "d": 96.15187500001048,
      "v": 112
    },
    {
      "midi": 58,
      "hit": false,
      "t": 181159.74768750026,
      "d": 62.498718749993714,
      "v": 112
    },
    {
      "midi": 63,
      "hit": false,
      "t": 181159.74768750026,
      "d": 62.498718749993714,
      "v": 112
    },
    {
      "midi": 70,
      "hit": false,
      "t": 181159.74768750026,
      "d": 62.498718749993714,
      "v": 112
    },
    {
      "midi": 39,
      "hit": false,
      "t": 181496.27925000095,
      "d": 110.5746562500135,
      "v": 112
    },
    {
      "midi": 58,
      "hit": false,
      "t": 181501.08684375096,
      "d": 48.07593749999069,
      "v": 112
    },
    {
      "midi": 63,
      "hit": false,
      "t": 181501.08684375096,
      "d": 86.53668749998906,
      "v": 112
    },
    {
      "midi": 67,
      "hit": false,
      "t": 181501.08684375096,
      "d": 86.53668749998906,
      "v": 112
    },
    {
      "midi": 70,
      "hit": false,
      "t": 181501.08684375096,
      "d": 86.53668749998906,
      "v": 112
    },
    {
      "midi": 58,
      "hit": false,
      "t": 181505.89443750025,
      "d": 67.30631250000442,
      "v": 112
    },
    {
      "midi": 63,
      "hit": false,
      "t": 181505.89443750025,
      "d": 67.30631250000442,
      "v": 112
    },
    {
      "midi": 70,
      "hit": false,
      "t": 181505.89443750025,
      "d": 67.30631250000442,
      "v": 112
    },
    {
      "midi": 63,
      "hit": false,
      "t": 181731.85134375026,
      "d": 38.46074999999837,
      "v": 112
    },
    {
      "midi": 39,
      "hit": false,
      "t": 181731.85134375095,
      "d": 62.498718749993714,
      "v": 112
    },
    {
      "midi": 58,
      "hit": false,
      "t": 181736.65893750027,
      "d": 33.65315624998766,
      "v": 112
    },
    {
      "midi": 70,
      "hit": false,
      "t": 181736.65893750027,
      "d": 33.65315624998766,
      "v": 112
    },
    {
      "midi": 67,
      "hit": false,
      "t": 181847.23359375095,
      "d": 100.95946874999208,
      "v": 112
    },
    {
      "midi": 70,
      "hit": false,
      "t": 181847.23359375095,
      "d": 100.95946874999208,
      "v": 112
    },
    {
      "midi": 39,
      "hit": false,
      "t": 181847.23359375095,
      "d": 163.4581874999858,
      "v": 112
    },
    {
      "midi": 58,
      "hit": false,
      "t": 181852.04118750026,
      "d": 76.92149999999674,
      "v": 112
    },
    {
      "midi": 63,
      "hit": false,
      "t": 181852.04118750026,
      "d": 76.92149999999674,
      "v": 112
    },
    {
      "midi": 70,
      "hit": false,
      "t": 181852.04118750026,
      "d": 115.38224999999511,
      "v": 112
    },
    {
      "midi": 58,
      "hit": false,
      "t": 181852.04118750096,
      "d": 72.11390624998603,
      "v": 112
    },
    {
      "midi": 63,
      "hit": false,
      "t": 181852.04118750096,
      "d": 72.11390624998603,
      "v": 112
    },
    {
      "midi": 39,
      "hit": false,
      "t": 182539.52709375095,
      "d": 177.88096874998882,
      "v": 112
    },
    {
      "midi": 70,
      "hit": false,
      "t": 182770.29159375094,
      "d": 1596.1211250000051,
      "v": 112
    },
    {
      "midi": 65,
      "hit": false,
      "t": 182770.29159375094,
      "d": 1663.4274375000095,
      "v": 112
    },
    {
      "midi": 34,
      "hit": false,
      "t": 182770.29159375094,
      "d": 1716.310968750011,
      "v": 112
    },
    {
      "midi": 70,
      "hit": false,
      "t": 182775.09918750025,
      "d": 1168.2452812500123,
      "v": 112
    },
    {
      "midi": 65,
      "hit": false,
      "t": 182775.09918750025,
      "d": 1182.6680625000154,
      "v": 112
    },
    {
      "midi": 58,
      "hit": false,
      "t": 182775.09918750095,
      "d": 1653.8122499999881,
      "v": 112
    },
    {
      "midi": 62,
      "hit": false,
      "t": 182775.09918750095,
      "d": 1677.8502187500126,
      "v": 112
    },
    {
      "midi": 62,
      "hit": false,
      "t": 182779.90678125026,
      "d": 1177.8604687500047,
      "v": 112
    },
    {
      "midi": 69,
      "hit": false,
      "t": 184616.40759375095,
      "d": 72.11390625001513,
      "v": 112
    },
    {
      "midi": 57,
      "hit": false,
      "t": 184616.40759375095,
      "d": 76.92150000002584,
      "v": 112
    },
    {
      "midi": 29,
      "hit": false,
      "t": 184616.40759375095,
      "d": 86.53668750001816,
      "v": 112
    },
    {
      "midi": 60,
      "hit": false,
      "t": 184621.21518750096,
      "d": 62.498718749993714,
      "v": 112
    },
    {
      "midi": 65,
      "hit": false,
      "t": 184621.21518750096,
      "d": 67.30631250000442,
      "v": 112
    },
    {
      "midi": 65,
      "hit": false,
      "t": 184847.17209375097,
      "d": 57.69112500001211,
      "v": 112
    },
    {
      "midi": 60,
      "hit": false,
      "t": 184847.17209375097,
      "d": 62.49871875002282,
      "v": 112
    },
    {
      "midi": 69,
      "hit": false,
      "t": 184847.17209375097,
      "d": 62.49871875002282,
      "v": 112
    },
    {
      "midi": 57,
      "hit": false,
      "t": 184847.17209375097,
      "d": 67.30631250003353,
      "v": 112
    },
    {
      "midi": 29,
      "hit": false,
      "t": 184847.17209375097,
      "d": 110.57465625004261,
      "v": 112
    },
    {
      "midi": 60,
      "hit": false,
      "t": 184851.97968750028,
      "d": 57.69112500001211,
      "v": 112
    },
    {
      "midi": 65,
      "hit": false,
      "t": 184851.97968750028,
      "d": 57.69112500001211,
      "v": 112
    },
    {
      "midi": 69,
      "hit": false,
      "t": 184851.97968750028,
      "d": 62.49871875002282,
      "v": 112
    },
    {
      "midi": 60,
      "hit": false,
      "t": 185193.3188437503,
      "d": 72.11390625001513,
      "v": 112
    },
    {
      "midi": 65,
      "hit": false,
      "t": 185193.3188437503,
      "d": 72.11390625001513,
      "v": 112
    },
    {
      "midi": 60,
      "hit": false,
      "t": 185193.318843751,
      "d": 48.07593749999069,
      "v": 112
    },
    {
      "midi": 69,
      "hit": false,
      "t": 185193.318843751,
      "d": 48.07593749999069,
      "v": 112
    },
    {
      "midi": 65,
      "hit": false,
      "t": 185193.318843751,
      "d": 67.30631250000442,
      "v": 112
    },
    {
      "midi": 29,
      "hit": false,
      "t": 185193.318843751,
      "d": 81.72909375000745,
      "v": 112
    },
    {
      "midi": 57,
      "hit": false,
      "t": 185193.318843751,
      "d": 81.72909375000745,
      "v": 112
    },
    {
      "midi": 69,
      "hit": false,
      "t": 185198.12643750032,
      "d": 67.30631250000442,
      "v": 112
    },
    {
      "midi": 60,
      "hit": false,
      "t": 185424.08334375033,
      "d": 33.65315624998766,
      "v": 112
    },
    {
      "midi": 69,
      "hit": false,
      "t": 185424.08334375033,
      "d": 33.65315624998766,
      "v": 112
    },
    {
      "midi": 65,
      "hit": false,
      "t": 185424.08334375033,
      "d": 38.46074999999837,
      "v": 112
    },
    {
      "midi": 29,
      "hit": false,
      "t": 185424.08334375103,
      "d": 62.498718749993714,
      "v": 112
    },
    {
      "midi": 57,
      "hit": false,
      "t": 185539.46559375103,
      "d": 91.34428124999977,
      "v": 112
    },
    {
      "midi": 69,
      "hit": false,
      "t": 185539.46559375103,
      "d": 91.34428124999977,
      "v": 112
    },
    {
      "midi": 29,
      "hit": false,
      "t": 185539.46559375103,
      "d": 110.5746562500135,
      "v": 112
    },
    {
      "midi": 60,
      "hit": false,
      "t": 185544.27318750034,
      "d": 81.72909375000745,
      "v": 112
    },
    {
      "midi": 65,
      "hit": false,
      "t": 185544.27318750034,
      "d": 81.72909375000745,
      "v": 112
    },
    {
      "midi": 69,
      "hit": false,
      "t": 185544.27318750034,
      "d": 81.72909375000745,
      "v": 112
    },
    {
      "midi": 65,
      "hit": false,
      "t": 185544.27318750104,
      "d": 86.53668749998906,
      "v": 112
    },
    {
      "midi": 60,
      "hit": false,
      "t": 185544.27318750104,
      "d": 91.34428124999977,
      "v": 112
    },
    {
      "midi": 29,
      "hit": false,
      "t": 186231.75909375102,
      "d": 76.92149999999674,
      "v": 112
    },
    {
      "midi": 31,
      "hit": false,
      "t": 186347.14134375102,
      "d": 100.95946874999208,
      "v": 112
    },
    {
      "midi": 67,
      "hit": false,
      "t": 186462.52359375102,
      "d": 86.53668749998906,
      "v": 112
    },
    {
      "midi": 33,
      "hit": false,
      "t": 186462.52359375102,
      "d": 115.38224999999511,
      "v": 112
    },
    {
      "midi": 60,
      "hit": false,
      "t": 186467.33118750103,
      "d": 72.11390624998603,
      "v": 112
    },
    {
      "midi": 57,
      "hit": false,
      "t": 186467.33118750103,
      "d": 81.72909374997835,
      "v": 112
    },
    {
      "midi": 64,
      "hit": false,
      "t": 186467.33118750103,
      "d": 81.72909374997835,
      "v": 112
    },
    {
      "midi": 64,
      "hit": false,
      "t": 186693.288093751,
      "d": 91.34428124999977,
      "v": 112
    },
    {
      "midi": 57,
      "hit": false,
      "t": 186693.288093751,
      "d": 96.15187500001048,
      "v": 112
    },
    {
      "midi": 60,
      "hit": false,
      "t": 186693.288093751,
      "d": 96.15187500001048,
      "v": 112
    },
    {
      "midi": 67,
      "hit": false,
      "t": 186693.288093751,
      "d": 96.15187500001048,
      "v": 112
    },
    {
      "midi": 33,
      "hit": false,
      "t": 186693.288093751,
      "d": 110.5746562500135,
      "v": 112
    },
    {
      "midi": 67,
      "hit": false,
      "t": 186698.09568750035,
      "d": 52.8835312500014,
      "v": 112
    },
    {
      "midi": 60,
      "hit": false,
      "t": 186698.09568750035,
      "d": 57.69112500001211,
      "v": 112
    },
    {
      "midi": 64,
      "hit": false,
      "t": 186698.09568750035,
      "d": 57.69112500001211,
      "v": 112
    },
    {
      "midi": 60,
      "hit": false,
      "t": 187039.43484375035,
      "d": 72.11390624998603,
      "v": 112
    },
    {
      "midi": 64,
      "hit": false,
      "t": 187039.43484375035,
      "d": 72.11390624998603,
      "v": 112
    },
    {
      "midi": 67,
      "hit": false,
      "t": 187039.43484375035,
      "d": 72.11390624998603,
      "v": 112
    },
    {
      "midi": 60,
      "hit": false,
      "t": 187039.43484375102,
      "d": 91.34428124999977,
      "v": 112
    },
    {
      "midi": 64,
      "hit": false,
      "t": 187039.43484375102,
      "d": 91.34428124999977,
      "v": 112
    },
    {
      "midi": 67,
      "hit": false,
      "t": 187039.43484375102,
      "d": 91.34428124999977,
      "v": 112
    },
    {
      "midi": 57,
      "hit": false,
      "t": 187039.43484375102,
      "d": 96.15187500001048,
      "v": 112
    },
    {
      "midi": 33,
      "hit": false,
      "t": 187039.43484375102,
      "d": 100.95946875002119,
      "v": 112
    },
    {
      "midi": 60,
      "hit": false,
      "t": 187270.19934375034,
      "d": 67.30631250000442,
      "v": 112
    },
    {
      "midi": 64,
      "hit": false,
      "t": 187270.19934375034,
      "d": 67.30631250000442,
      "v": 112
    },
    {
      "midi": 67,
      "hit": false,
      "t": 187270.19934375034,
      "d": 67.30631250000442,
      "v": 112
    },
    {
      "midi": 33,
      "hit": false,
      "t": 187270.19934375104,
      "d": 52.8835312500014,
      "v": 112
    },
    {
      "midi": 57,
      "hit": false,
      "t": 187385.58159375103,
      "d": 110.5746562500135,
      "v": 112
    },
    {
      "midi": 60,
      "hit": false,
      "t": 187385.58159375103,
      "d": 110.5746562500135,
      "v": 112
    },
    {
      "midi": 33,
      "hit": false,
      "t": 187385.58159375103,
      "d": 153.84300000002258,
      "v": 112
    },
    {
      "midi": 60,
      "hit": false,
      "t": 187390.38918750035,
      "d": 76.92149999999674,
      "v": 112
    },
    {
      "midi": 64,
      "hit": false,
      "t": 187390.38918750035,
      "d": 76.92149999999674,
      "v": 112
    },
    {
      "midi": 67,
      "hit": false,
      "t": 187390.38918750035,
      "d": 76.92149999999674,
      "v": 112
    },
    {
      "midi": 64,
      "hit": false,
      "t": 187390.38918750104,
      "d": 105.7670625000028,
      "v": 112
    },
    {
      "midi": 67,
      "hit": false,
      "t": 187390.38918750104,
      "d": 124.99743750001653,
      "v": 112
    },
    {
      "midi": 62,
      "hit": false,
      "t": 188308.63959375105,
      "d": 72.11390625001513,
      "v": 112
    },
    {
      "midi": 34,
      "hit": false,
      "t": 188308.63959375105,
      "d": 96.15187500003958,
      "v": 112
    },
    {
      "midi": 58,
      "hit": false,
      "t": 188313.44718750106,
      "d": 67.30631250000442,
      "v": 112
    },
    {
      "midi": 65,
      "hit": false,
      "t": 188313.44718750106,
      "d": 72.11390625001513,
      "v": 112
    },
    {
      "midi": 58,
      "hit": false,
      "t": 188539.4040937511,
      "d": 81.72909375000745,
      "v": 112
    },
    {
      "midi": 62,
      "hit": false,
      "t": 188539.4040937511,
      "d": 81.72909375000745,
      "v": 112
    },
    {
      "midi": 65,
      "hit": false,
      "t": 188539.4040937511,
      "d": 86.53668750001816,
      "v": 112
    },
    {
      "midi": 34,
      "hit": false,
      "t": 188539.4040937511,
      "d": 115.38225000002421,
      "v": 112
    },
    {
      "midi": 58,
      "hit": false,
      "t": 188544.21168750036,
      "d": 62.498718749993714,
      "v": 112
    },
    {
      "midi": 62,
      "hit": false,
      "t": 188544.21168750036,
      "d": 62.498718749993714,
      "v": 112
    },
    {
      "midi": 65,
      "hit": false,
      "t": 188544.21168750036,
      "d": 81.72909375000745,
      "v": 112
    },
    {
      "midi": 58,
      "hit": false,
      "t": 188885.55084375036,
      "d": 72.11390624998603,
      "v": 112
    },
    {
      "midi": 62,
      "hit": false,
      "t": 188885.55084375036,
      "d": 72.11390624998603,
      "v": 112
    },
    {
      "midi": 65,
      "hit": false,
      "t": 188885.55084375036,
      "d": 72.11390624998603,
      "v": 112
    },
    {
      "midi": 58,
      "hit": false,
      "t": 188885.55084375112,
      "d": 81.72909375000745,
      "v": 112
    },
    {
      "midi": 62,
      "hit": false,
      "t": 188885.55084375112,
      "d": 81.72909375000745,
      "v": 112
    },
    {
      "midi": 65,
      "hit": false,
      "t": 188885.55084375112,
      "d": 81.72909375000745,
      "v": 112
    },
    {
      "midi": 34,
      "hit": false,
      "t": 188885.55084375112,
      "d": 96.15187500001048,
      "v": 112
    },
    {
      "midi": 58,
      "hit": false,
      "t": 189116.31534375035,
      "d": 76.92149999999674,
      "v": 112
    },
    {
      "midi": 62,
      "hit": false,
      "t": 189116.31534375035,
      "d": 76.92149999999674,
      "v": 112
    },
    {
      "midi": 65,
      "hit": false,
      "t": 189116.31534375035,
      "d": 76.92149999999674,
      "v": 112
    },
    {
      "midi": 34,
      "hit": false,
      "t": 189116.31534375114,
      "d": 48.07593749999069,
      "v": 112
    },
    {
      "midi": 62,
      "hit": false,
      "t": 189231.69759375113,
      "d": 67.30631250000442,
      "v": 112
    },
    {
      "midi": 34,
      "hit": false,
      "t": 189231.69759375113,
      "d": 91.34428124999977,
      "v": 112
    },
    {
      "midi": 58,
      "hit": false,
      "t": 189231.69759375113,
      "d": 96.15187500001048,
      "v": 112
    },
    {
      "midi": 65,
      "hit": false,
      "t": 189236.50518750036,
      "d": 62.498718749993714,
      "v": 112
    },
    {
      "midi": 58,
      "hit": false,
      "t": 189236.50518750036,
      "d": 96.15187499998137,
      "v": 112
    },
    {
      "midi": 62,
      "hit": false,
      "t": 189236.50518750036,
      "d": 96.15187499998137,
      "v": 112
    },
    {
      "midi": 65,
      "hit": false,
      "t": 189236.50518750114,
      "d": 62.498718749993714,
      "v": 112
    },
    {
      "midi": 34,
      "hit": false,
      "t": 189923.99109375113,
      "d": 62.498718749993714,
      "v": 112
    },
    {
      "midi": 34,
      "hit": false,
      "t": 190039.37334375113,
      "d": 62.498718749993714,
      "v": 112
    },
    {
      "midi": 34,
      "hit": false,
      "t": 190154.75559375112,
      "d": 91.34428125002887,
      "v": 112
    },
    {
      "midi": 65,
      "hit": false,
      "t": 190154.75559375112,
      "d": 91.34428125002887,
      "v": 112
    },
    {
      "midi": 58,
      "hit": false,
      "t": 190159.56318750113,
      "d": 57.69112500001211,
      "v": 112
    },
    {
      "midi": 62,
      "hit": false,
      "t": 190159.56318750113,
      "d": 91.34428125002887,
      "v": 112
    },
    {
      "midi": 58,
      "hit": false,
      "t": 190385.52009375117,
      "d": 76.92149999999674,
      "v": 112
    },
    {
      "midi": 62,
      "hit": false,
      "t": 190385.52009375117,
      "d": 76.92149999999674,
      "v": 112
    },
    {
      "midi": 65,
      "hit": false,
      "t": 190385.52009375117,
      "d": 76.92149999999674,
      "v": 112
    },
    {
      "midi": 34,
      "hit": false,
      "t": 190385.52009375117,
      "d": 86.53668749998906,
      "v": 112
    },
    {
      "midi": 58,
      "hit": false,
      "t": 190390.32768750034,
      "d": 62.498718749993714,
      "v": 112
    },
    {
      "midi": 62,
      "hit": false,
      "t": 190390.32768750034,
      "d": 62.498718749993714,
      "v": 112
    },
    {
      "midi": 65,
      "hit": false,
      "t": 190390.32768750034,
      "d": 62.498718749993714,
      "v": 112
    },
    {
      "midi": 58,
      "hit": false,
      "t": 190731.66684375034,
      "d": 62.49871875002282,
      "v": 112
    },
    {
      "midi": 62,
      "hit": false,
      "t": 190731.66684375034,
      "d": 62.49871875002282,
      "v": 112
    },
    {
      "midi": 58,
      "hit": false,
      "t": 190731.66684375115,
      "d": 76.92149999999674,
      "v": 112
    },
    {
      "midi": 62,
      "hit": false,
      "t": 190731.66684375115,
      "d": 76.92149999999674,
      "v": 112
    },
    {
      "midi": 34,
      "hit": false,
      "t": 190731.66684375115,
      "d": 91.34428124999977,
      "v": 112
    },
    {
      "midi": 65,
      "hit": false,
      "t": 190731.66684375115,
      "d": 96.15187500001048,
      "v": 112
    },
    {
      "midi": 65,
      "hit": false,
      "t": 190736.47443750035,
      "d": 62.49871875002282,
      "v": 112
    },
    {
      "midi": 58,
      "hit": false,
      "t": 190962.43134375036,
      "d": 76.92149999999674,
      "v": 112
    },
    {
      "midi": 62,
      "hit": false,
      "t": 190962.43134375036,
      "d": 76.92149999999674,
      "v": 112
    },
    {
      "midi": 65,
      "hit": false,
      "t": 190962.43134375036,
      "d": 76.92149999999674,
      "v": 112
    },
    {
      "midi": 34,
      "hit": false,
      "t": 190962.43134375117,
      "d": 57.69112500001211,
      "v": 112
    },
    {
      "midi": 65,
      "hit": false,
      "t": 191077.8135937512,
      "d": 115.38225000002421,
      "v": 112
    },
    {
      "midi": 34,
      "hit": false,
      "t": 191077.8135937512,
      "d": 144.22781250003027,
      "v": 112
    },
    {
      "midi": 58,
      "hit": false,
      "t": 191082.62118750036,
      "d": 81.72909375000745,
      "v": 112
    },
    {
      "midi": 62,
      "hit": false,
      "t": 191082.62118750036,
      "d": 81.72909375000745,
      "v": 112
    },
    {
      "midi": 65,
      "hit": false,
      "t": 191082.62118750036,
      "d": 81.72909375000745,
      "v": 112
    },
    {
      "midi": 58,
      "hit": false,
      "t": 191082.6211875012,
      "d": 76.92149999999674,
      "v": 112
    },
    {
      "midi": 62,
      "hit": false,
      "t": 191082.6211875012,
      "d": 91.34428124999977,
      "v": 112
    },
    {
      "midi": 65,
      "hit": false,
      "t": 192000.87159375122,
      "d": 81.72909375000745,
      "v": 112
    },
    {
      "midi": 29,
      "hit": false,
      "t": 192000.87159375122,
      "d": 86.53668750001816,
      "v": 112
    },
    {
      "midi": 69,
      "hit": false,
      "t": 192005.67918750123,
      "d": 72.11390624998603,
      "v": 112
    },
    {
      "midi": 57,
      "hit": false,
      "t": 192005.67918750123,
      "d": 76.92149999999674,
      "v": 112
    },
    {
      "midi": 60,
      "hit": false,
      "t": 192005.67918750123,
      "d": 76.92149999999674,
      "v": 112
    },
    {
      "midi": 29,
      "hit": false,
      "t": 192231.63609375124,
      "d": 86.53668749998906,
      "v": 112
    },
    {
      "midi": 60,
      "hit": false,
      "t": 192231.63609375124,
      "d": 91.34428124999977,
      "v": 112
    },
    {
      "midi": 65,
      "hit": false,
      "t": 192231.63609375124,
      "d": 96.15187500001048,
      "v": 112
    },
    {
      "midi": 57,
      "hit": false,
      "t": 192231.63609375124,
      "d": 100.95946875002119,
      "v": 112
    },
    {
      "midi": 69,
      "hit": false,
      "t": 192231.63609375124,
      "d": 100.95946875002119,
      "v": 112
    },
    {
      "midi": 69,
      "hit": false,
      "t": 192236.44368750037,
      "d": 28.845562500006054,
      "v": 112
    },
    {
      "midi": 65,
      "hit": false,
      "t": 192236.44368750037,
      "d": 48.07593750001979,
      "v": 112
    },
    {
      "midi": 60,
      "hit": false,
      "t": 192236.44368750037,
      "d": 57.69112500001211,
      "v": 112
    },
    {
      "midi": 29,
      "hit": false,
      "t": 192572.97525000127,
      "d": 100.95946875002119,
      "v": 112
    },
    {
      "midi": 60,
      "hit": false,
      "t": 192577.78284375038,
      "d": 62.49871875002282,
      "v": 112
    },
    {
      "midi": 65,
      "hit": false,
      "t": 192577.78284375038,
      "d": 67.30631250003353,
      "v": 112
    },
    {
      "midi": 65,
      "hit": false,
      "t": 192577.78284375128,
      "d": 52.8835312500014,
      "v": 112
    },
    {
      "midi": 60,
      "hit": false,
      "t": 192577.78284375128,
      "d": 91.34428124999977,
      "v": 112
    },
    {
      "midi": 57,
      "hit": false,
      "t": 192577.78284375128,
      "d": 96.15187500001048,
      "v": 112
    },
    {
      "midi": 69,
      "hit": false,
      "t": 192577.78284375128,
      "d": 100.95946875002119,
      "v": 112
    },
    {
      "midi": 69,
      "hit": false,
      "t": 192582.5904375004,
      "d": 57.69112500001211,
      "v": 112
    },
    {
      "midi": 69,
      "hit": false,
      "t": 192808.5473437504,
      "d": 38.46074999999837,
      "v": 112
    },
    {
      "midi": 65,
      "hit": false,
      "t": 192808.5473437504,
      "d": 67.30631250000442,
      "v": 112
    },
    {
      "midi": 60,
      "hit": false,
      "t": 192808.5473437504,
      "d": 72.11390625001513,
      "v": 112
    },
    {
      "midi": 29,
      "hit": false,
      "t": 192808.5473437513,
      "d": 62.498718749993714,
      "v": 112
    },
    {
      "midi": 57,
      "hit": false,
      "t": 192923.9295937513,
      "d": 57.69112500001211,
      "v": 112
    },
    {
      "midi": 65,
      "hit": false,
      "t": 192923.9295937513,
      "d": 91.34428125002887,
      "v": 112
    },
    {
      "midi": 29,
      "hit": false,
      "t": 192923.9295937513,
      "d": 115.38225000002421,
      "v": 112
    },
    {
      "midi": 60,
      "hit": false,
      "t": 192928.7371875004,
      "d": 72.11390624998603,
      "v": 112
    },
    {
      "midi": 65,
      "hit": false,
      "t": 192928.7371875004,
      "d": 72.11390624998603,
      "v": 112
    },
    {
      "midi": 69,
      "hit": false,
      "t": 192928.7371875004,
      "d": 72.11390624998603,
      "v": 112
    },
    {
      "midi": 69,
      "hit": false,
      "t": 192928.7371875013,
      "d": 81.72909375000745,
      "v": 112
    },
    {
      "midi": 60,
      "hit": false,
      "t": 192928.7371875013,
      "d": 86.53668750001816,
      "v": 112
    },
    {
      "midi": 29,
      "hit": false,
      "t": 193616.22309375132,
      "d": 100.95946874999208,
      "v": 112
    },
    {
      "midi": 31,
      "hit": false,
      "t": 193731.60534375132,
      "d": 86.53668749998906,
      "v": 112
    },
    {
      "midi": 60,
      "hit": false,
      "t": 193846.9875937513,
      "d": 81.72909375000745,
      "v": 112
    },
    {
      "midi": 64,
      "hit": false,
      "t": 193846.9875937513,
      "d": 81.72909375000745,
      "v": 112
    },
    {
      "midi": 33,
      "hit": false,
      "t": 193846.9875937513,
      "d": 100.95946875002119,
      "v": 112
    },
    {
      "midi": 57,
      "hit": false,
      "t": 193851.79518750132,
      "d": 76.92149999999674,
      "v": 112
    },
    {
      "midi": 67,
      "hit": false,
      "t": 193851.79518750132,
      "d": 76.92149999999674,
      "v": 112
    },
    {
      "midi": 33,
      "hit": false,
      "t": 194077.75209375133,
      "d": 67.30631250000442,
      "v": 112
    },
    {
      "midi": 64,
      "hit": false,
      "t": 194077.75209375133,
      "d": 81.72909375000745,
      "v": 112
    },
    {
      "midi": 60,
      "hit": false,
      "t": 194077.75209375133,
      "d": 86.53668750001816,
      "v": 112
    },
    {
      "midi": 57,
      "hit": false,
      "t": 194077.75209375133,
      "d": 91.34428125002887,
      "v": 112
    },
    {
      "midi": 67,
      "hit": false,
      "t": 194077.75209375133,
      "d": 91.34428125002887,
      "v": 112
    },
    {
      "midi": 60,
      "hit": false,
      "t": 194082.55968750038,
      "d": 57.69112500001211,
      "v": 112
    },
    {
      "midi": 67,
      "hit": false,
      "t": 194082.55968750038,
      "d": 57.69112500001211,
      "v": 112
    },
    {
      "midi": 64,
      "hit": false,
      "t": 194082.55968750038,
      "d": 62.49871875002282,
      "v": 112
    },
    {
      "midi": 33,
      "hit": false,
      "t": 194419.09125000137,
      "d": 96.15187500003958,
      "v": 112
    },
    {
      "midi": 60,
      "hit": false,
      "t": 194423.89884375042,
      "d": 72.11390625001513,
      "v": 112
    },
    {
      "midi": 64,
      "hit": false,
      "t": 194423.89884375042,
      "d": 72.11390625001513,
      "v": 112
    },
    {
      "midi": 57,
      "hit": false,
      "t": 194423.89884375138,
      "d": 81.72909375000745,
      "v": 112
    },
    {
      "midi": 64,
      "hit": false,
      "t": 194423.89884375138,
      "d": 81.72909375000745,
      "v": 112
    },
    {
      "midi": 67,
      "hit": false,
      "t": 194423.89884375138,
      "d": 81.72909375000745,
      "v": 112
    },
    {
      "midi": 60,
      "hit": false,
      "t": 194423.89884375138,
      "d": 86.53668750001816,
      "v": 112
    },
    {
      "midi": 67,
      "hit": false,
      "t": 194428.70643750043,
      "d": 67.30631250000442,
      "v": 112
    },
    {
      "midi": 60,
      "hit": false,
      "t": 194654.66334375044,
      "d": 38.46074999999837,
      "v": 112
    },
    {
      "midi": 67,
      "hit": false,
      "t": 194654.66334375044,
      "d": 67.30631250000442,
      "v": 112
    },
    {
      "midi": 64,
      "hit": false,
      "t": 194654.66334375044,
      "d": 72.11390625001513,
      "v": 112
    },
    {
      "midi": 33,
      "hit": false,
      "t": 194654.6633437514,
      "d": 52.8835312500014,
      "v": 112
    },
    {
      "midi": 57,
      "hit": false,
      "t": 194770.0455937514,
      "d": 86.53668750001816,
      "v": 112
    },
    {
      "midi": 67,
      "hit": false,
      "t": 194770.0455937514,
      "d": 120.18984375003492,
      "v": 112
    },
    {
      "midi": 33,
      "hit": false,
      "t": 194770.0455937514,
      "d": 129.80503125002724,
      "v": 112
    },
    {
      "midi": 67,
      "hit": false,
      "t": 194774.85318750044,
      "d": 76.92149999999674,
      "v": 112
    },
    {
      "midi": 60,
      "hit": false,
      "t": 194774.85318750044,
      "d": 81.72909375000745,
      "v": 112
    },
    {
      "midi": 64,
      "hit": false,
      "t": 194774.85318750044,
      "d": 81.72909375000745,
      "v": 112
    },
    {
      "midi": 64,
      "hit": false,
      "t": 194774.8531875014,
      "d": 76.92149999999674,
      "v": 112
    },
    {
      "midi": 60,
      "hit": false,
      "t": 194774.8531875014,
      "d": 100.95946875002119,
      "v": 112
    },
    {
      "midi": 62,
      "hit": false,
      "t": 195693.1035937514,
      "d": 76.92149999999674,
      "v": 112
    },
    {
      "midi": 58,
      "hit": false,
      "t": 195693.1035937514,
      "d": 81.72909375000745,
      "v": 112
    },
    {
      "midi": 34,
      "hit": false,
      "t": 195693.1035937514,
      "d": 86.53668750001816,
      "v": 112
    },
    {
      "midi": 65,
      "hit": false,
      "t": 195697.91118750142,
      "d": 96.15187500001048,
      "v": 112
    },
    {
      "midi": 62,
      "hit": false,
      "t": 195923.86809375143,
      "d": 81.72909375000745,
      "v": 112
    },
    {
      "midi": 34,
      "hit": false,
      "t": 195923.86809375143,
      "d": 86.53668750001816,
      "v": 112
    },
    {
      "midi": 65,
      "hit": false,
      "t": 195923.86809375143,
      "d": 86.53668750001816,
      "v": 112
    },
    {
      "midi": 58,
      "hit": false,
      "t": 195923.86809375143,
      "d": 91.34428125002887,
      "v": 112
    },
    {
      "midi": 62,
      "hit": false,
      "t": 195928.67568750045,
      "d": 57.69112500001211,
      "v": 112
    },
    {
      "midi": 65,
      "hit": false,
      "t": 195928.67568750045,
      "d": 57.69112500001211,
      "v": 112
    },
    {
      "midi": 70,
      "hit": false,
      "t": 195928.67568750045,
      "d": 57.69112500001211,
      "v": 112
    },
    {
      "midi": 62,
      "hit": false,
      "t": 196270.01484375045,
      "d": 67.30631250000442,
      "v": 112
    },
    {
      "midi": 65,
      "hit": false,
      "t": 196270.01484375045,
      "d": 67.30631250000442,
      "v": 112
    },
    {
      "midi": 70,
      "hit": false,
      "t": 196270.01484375045,
      "d": 67.30631250000442,
      "v": 112
    },
    {
      "midi": 62,
      "hit": false,
      "t": 196270.01484375144,
      "d": 76.92149999999674,
      "v": 112
    },
    {
      "midi": 58,
      "hit": false,
      "t": 196270.01484375144,
      "d": 81.72909375000745,
      "v": 112
    },
    {
      "midi": 65,
      "hit": false,
      "t": 196270.01484375144,
      "d": 81.72909375000745,
      "v": 112
    },
    {
      "midi": 34,
      "hit": false,
      "t": 196270.01484375144,
      "d": 86.53668750001816,
      "v": 112
    },
    {
      "midi": 62,
      "hit": false,
      "t": 196500.77934375044,
      "d": 38.46074999999837,
      "v": 112
    },
    {
      "midi": 65,
      "hit": false,
      "t": 196500.77934375044,
      "d": 38.46074999999837,
      "v": 112
    },
    {
      "midi": 70,
      "hit": false,
      "t": 196500.77934375044,
      "d": 38.46074999999837,
      "v": 112
    },
    {
      "midi": 34,
      "hit": false,
      "t": 196500.77934375146,
      "d": 52.8835312500014,
      "v": 112
    },
    {
      "midi": 62,
      "hit": false,
      "t": 196616.16159375146,
      "d": 100.95946875002119,
      "v": 112
    },
    {
      "midi": 58,
      "hit": false,
      "t": 196616.16159375146,
      "d": 105.7670625000319,
      "v": 112
    },
    {
      "midi": 34,
      "hit": false,
      "t": 196616.16159375146,
      "d": 129.80503125002724,
      "v": 112
    },
    {
      "midi": 65,
      "hit": false,
      "t": 196620.96918750045,
      "d": 81.72909375000745,
      "v": 112
    },
    {
      "midi": 70,
      "hit": false,
      "t": 196620.96918750045,
      "d": 81.72909375000745,
      "v": 112
    },
    {
      "midi": 62,
      "hit": false,
      "t": 196620.96918750045,
      "d": 86.53668750001816,
      "v": 112
    },
    {
      "midi": 65,
      "hit": false,
      "t": 196620.96918750147,
      "d": 81.72909375000745,
      "v": 112
    },
    {
      "midi": 34,
      "hit": false,
      "t": 197308.4550937515,
      "d": 62.498718749993714,
      "v": 112
    },
    {
      "midi": 34,
      "hit": false,
      "t": 197423.83734375148,
      "d": 62.498718749993714,
      "v": 112
    },
    {
      "midi": 58,
      "hit": false,
      "t": 197539.21959375148,
      "d": 72.11390625001513,
      "v": 112
    },
    {
      "midi": 34,
      "hit": false,
      "t": 197539.21959375148,
      "d": 81.72909375000745,
      "v": 112
    },
    {
      "midi": 62,
      "hit": false,
      "t": 197544.0271875015,
      "d": 67.30631250000442,
      "v": 112
    },
    {
      "midi": 65,
      "hit": false,
      "t": 197544.0271875015,
      "d": 67.30631250000442,
      "v": 112
    },
    {
      "midi": 34,
      "hit": false,
      "t": 197769.9840937515,
      "d": 62.498718749993714,
      "v": 112
    },
    {
      "midi": 58,
      "hit": false,
      "t": 197769.9840937515,
      "d": 86.53668749998906,
      "v": 112
    },
    {
      "midi": 62,
      "hit": false,
      "t": 197769.9840937515,
      "d": 86.53668749998906,
      "v": 112
    },
    {
      "midi": 65,
      "hit": false,
      "t": 197769.9840937515,
      "d": 86.53668749998906,
      "v": 112
    },
    {
      "midi": 58,
      "hit": false,
      "t": 197774.79168750046,
      "d": 62.498718749993714,
      "v": 112
    },
    {
      "midi": 62,
      "hit": false,
      "t": 197774.79168750046,
      "d": 62.498718749993714,
      "v": 112
    },
    {
      "midi": 65,
      "hit": false,
      "t": 197774.79168750046,
      "d": 62.498718749993714,
      "v": 112
    },
    {
      "midi": 58,
      "hit": false,
      "t": 198116.13084375046,
      "d": 72.11390624998603,
      "v": 112
    },
    {
      "midi": 62,
      "hit": false,
      "t": 198116.13084375046,
      "d": 72.11390624998603,
      "v": 112
    },
    {
      "midi": 65,
      "hit": false,
      "t": 198116.13084375046,
      "d": 76.92149999999674,
      "v": 112
    },
    {
      "midi": 65,
      "hit": false,
      "t": 198116.13084375148,
      "d": 72.11390624998603,
      "v": 112
    },
    {
      "midi": 58,
      "hit": false,
      "t": 198116.13084375148,
      "d": 76.92149999999674,
      "v": 112
    },
    {
      "midi": 62,
      "hit": false,
      "t": 198116.13084375148,
      "d": 76.92149999999674,
      "v": 112
    },
    {
      "midi": 34,
      "hit": false,
      "t": 198116.13084375148,
      "d": 81.72909375000745,
      "v": 112
    },
    {
      "midi": 58,
      "hit": false,
      "t": 198346.89534375045,
      "d": 38.46074999999837,
      "v": 112
    },
    {
      "midi": 62,
      "hit": false,
      "t": 198346.89534375045,
      "d": 38.46074999999837,
      "v": 112
    },
    {
      "midi": 65,
      "hit": false,
      "t": 198346.89534375045,
      "d": 81.72909375000745,
      "v": 112
    },
    {
      "midi": 34,
      "hit": false,
      "t": 198346.8953437515,
      "d": 43.26834375000908,
      "v": 112
    },
    {
      "midi": 62,
      "hit": false,
      "t": 198462.2775937515,
      "d": 81.72909375000745,
      "v": 112
    },
    {
      "midi": 65,
      "hit": false,
      "t": 198462.2775937515,
      "d": 100.95946875002119,
      "v": 112
    },
    {
      "midi": 34,
      "hit": false,
      "t": 198462.2775937515,
      "d": 105.7670625000319,
      "v": 112
    },
    {
      "midi": 65,
      "hit": false,
      "t": 198467.08518750046,
      "d": 76.92149999999674,
      "v": 112
    },
    {
      "midi": 58,
      "hit": false,
      "t": 198467.08518750046,
      "d": 81.72909375000745,
      "v": 112
    },
    {
      "midi": 62,
      "hit": false,
      "t": 198467.08518750046,
      "d": 81.72909375000745,
      "v": 112
    },
    {
      "midi": 58,
      "hit": false,
      "t": 198467.0851875015,
      "d": 72.11390624998603,
      "v": 112
    },
    {
      "midi": 29,
      "hit": false,
      "t": 199385.33559375152,
      "d": 100.95946874999208,
      "v": 112
    },
    {
      "midi": 57,
      "hit": false,
      "t": 199616.1000937515,
      "d": 76.92149999999674,
      "v": 112
    },
    {
      "midi": 62,
      "hit": false,
      "t": 199616.1000937515,
      "d": 76.92149999999674,
      "v": 112
    },
    {
      "midi": 65,
      "hit": false,
      "t": 199616.1000937515,
      "d": 76.92149999999674,
      "v": 112
    },
    {
      "midi": 69,
      "hit": false,
      "t": 199616.1000937515,
      "d": 76.92149999999674,
      "v": 112
    },
    {
      "midi": 29,
      "hit": false,
      "t": 199616.1000937515,
      "d": 124.99743749998743,
      "v": 112
    },
    {
      "midi": 65,
      "hit": false,
      "t": 199620.90768750047,
      "d": 43.26834375000908,
      "v": 112
    },
    {
      "midi": 60,
      "hit": false,
      "t": 199620.90768750047,
      "d": 57.69112500001211,
      "v": 112
    },
    {
      "midi": 65,
      "hit": false,
      "t": 199962.24684375047,
      "d": 48.07593749999069,
      "v": 112
    },
    {
      "midi": 60,
      "hit": false,
      "t": 199962.24684375047,
      "d": 57.691124999983,
      "v": 112
    },
    {
      "midi": 57,
      "hit": false,
      "t": 199962.2468437515,
      "d": 91.34428124999977,
      "v": 112
    },
    {
      "midi": 65,
      "hit": false,
      "t": 199962.2468437515,
      "d": 91.34428124999977,
      "v": 112
    },
    {
      "midi": 29,
      "hit": false,
      "t": 199962.2468437515,
      "d": 96.15187500001048,
      "v": 112
    },
    {
      "midi": 69,
      "hit": false,
      "t": 199962.2468437515,
      "d": 96.15187500001048,
      "v": 112
    },
    {
      "midi": 60,
      "hit": false,
      "t": 199962.2468437515,
      "d": 100.95946875002119,
      "v": 112
    },
    {
      "midi": 65,
      "hit": false,
      "t": 200193.01134375046,
      "d": 52.8835312500014,
      "v": 112
    },
    {
      "midi": 60,
      "hit": false,
      "t": 200193.01134375046,
      "d": 57.69112500001211,
      "v": 112
    },
    {
      "midi": 29,
      "hit": false,
      "t": 200193.0113437515,
      "d": 62.498718749993714,
      "v": 112
    },
    {
      "midi": 57,
      "hit": false,
      "t": 200308.3935937515,
      "d": 91.34428124999977,
      "v": 112
    },
    {
      "midi": 29,
      "hit": false,
      "t": 200308.3935937515,
      "d": 120.18984375000582,
      "v": 112
    },
    {
      "midi": 60,
      "hit": false,
      "t": 200313.20118750047,
      "d": 120.18984375000582,
      "v": 112
    },
    {
      "midi": 65,
      "hit": false,
      "t": 200313.20118750047,
      "d": 124.99743750001653,
      "v": 112
    },
    {
      "midi": 65,
      "hit": false,
      "t": 200313.20118750152,
      "d": 86.53668749998906,
      "v": 112
    },
    {
      "midi": 60,
      "hit": false,
      "t": 200313.20118750152,
      "d": 91.34428124999977,
      "v": 112
    },
    {
      "midi": 69,
      "hit": false,
      "t": 200313.20118750152,
      "d": 91.34428124999977,
      "v": 112
    },
    {
      "midi": 29,
      "hit": false,
      "t": 201000.6870937515,
      "d": 86.53668749998906,
      "v": 112
    },
    {
      "midi": 31,
      "hit": false,
      "t": 201116.0693437515,
      "d": 91.34428124999977,
      "v": 112
    },
    {
      "midi": 33,
      "hit": false,
      "t": 201231.4515937515,
      "d": 110.5746562500135,
      "v": 112
    },
    {
      "midi": 60,
      "hit": false,
      "t": 201462.21609375151,
      "d": 81.72909375000745,
      "v": 112
    },
    {
      "midi": 64,
      "hit": false,
      "t": 201462.21609375151,
      "d": 81.72909375000745,
      "v": 112
    },
    {
      "midi": 67,
      "hit": false,
      "t": 201462.21609375151,
      "d": 81.72909375000745,
      "v": 112
    },
    {
      "midi": 33,
      "hit": false,
      "t": 201462.21609375151,
      "d": 100.95946875002119,
      "v": 112
    },
    {
      "midi": 60,
      "hit": false,
      "t": 201467.02368750048,
      "d": 57.69112500001211,
      "v": 112
    },
    {
      "midi": 64,
      "hit": false,
      "t": 201467.02368750048,
      "d": 57.69112500001211,
      "v": 112
    },
    {
      "midi": 67,
      "hit": false,
      "t": 201467.02368750048,
      "d": 57.69112500001211,
      "v": 112
    },
    {
      "midi": 57,
      "hit": false,
      "t": 201467.02368750153,
      "d": 96.15187500001048,
      "v": 112
    },
    {
      "midi": 64,
      "hit": false,
      "t": 201808.36284375048,
      "d": 72.11390625001513,
      "v": 112
    },
    {
      "midi": 67,
      "hit": false,
      "t": 201808.36284375048,
      "d": 72.11390625001513,
      "v": 112
    },
    {
      "midi": 60,
      "hit": false,
      "t": 201808.36284375153,
      "d": 81.72909375000745,
      "v": 112
    },
    {
      "midi": 67,
      "hit": false,
      "t": 201808.36284375153,
      "d": 81.72909375000745,
      "v": 112
    },
    {
      "midi": 33,
      "hit": false,
      "t": 201808.36284375153,
      "d": 105.7670625000028,
      "v": 112
    },
    {
      "midi": 57,
      "hit": false,
      "t": 201808.36284375153,
      "d": 105.7670625000028,
      "v": 112
    },
    {
      "midi": 64,
      "hit": false,
      "t": 201808.36284375153,
      "d": 105.7670625000028,
      "v": 112
    },
    {
      "midi": 60,
      "hit": false,
      "t": 201813.1704375005,
      "d": 67.30631250000442,
      "v": 112
    },
    {
      "midi": 60,
      "hit": false,
      "t": 202039.1273437505,
      "d": 72.11390624998603,
      "v": 112
    },
    {
      "midi": 64,
      "hit": false,
      "t": 202039.1273437505,
      "d": 72.11390624998603,
      "v": 112
    },
    {
      "midi": 67,
      "hit": false,
      "t": 202039.1273437505,
      "d": 76.92149999999674,
      "v": 112
    },
    {
      "midi": 33,
      "hit": false,
      "t": 202039.12734375152,
      "d": 62.498718749993714,
      "v": 112
    },
    {
      "midi": 64,
      "hit": false,
      "t": 202154.5095937515,
      "d": 115.38225000002421,
      "v": 112
    },
    {
      "midi": 67,
      "hit": false,
      "t": 202154.5095937515,
      "d": 134.61262500003795,
      "v": 112
    },
    {
      "midi": 33,
      "hit": false,
      "t": 202154.5095937515,
      "d": 149.03540625004098,
      "v": 112
    },
    {
      "midi": 60,
      "hit": false,
      "t": 202159.3171875005,
      "d": 76.92149999999674,
      "v": 112
    },
    {
      "midi": 64,
      "hit": false,
      "t": 202159.3171875005,
      "d": 76.92149999999674,
      "v": 112
    },
    {
      "midi": 67,
      "hit": false,
      "t": 202159.3171875005,
      "d": 81.72909375000745,
      "v": 112
    },
    {
      "midi": 60,
      "hit": false,
      "t": 202159.31718750153,
      "d": 110.5746562500135,
      "v": 112
    },
    {
      "midi": 57,
      "hit": false,
      "t": 202159.31718750153,
      "d": 124.99743750001653,
      "v": 112
    },
    {
      "midi": 34,
      "hit": false,
      "t": 203077.56759375156,
      "d": 86.53668750001816,
      "v": 112
    },
    {
      "midi": 58,
      "hit": false,
      "t": 203077.56759375156,
      "d": 86.53668750001816,
      "v": 112
    },
    {
      "midi": 62,
      "hit": false,
      "t": 203082.37518750157,
      "d": 62.498718749993714,
      "v": 112
    },
    {
      "midi": 65,
      "hit": false,
      "t": 203082.37518750157,
      "d": 96.15187500001048,
      "v": 112
    },
    {
      "midi": 58,
      "hit": false,
      "t": 203308.33209375158,
      "d": 81.72909375000745,
      "v": 112
    },
    {
      "midi": 34,
      "hit": false,
      "t": 203308.33209375158,
      "d": 86.53668750001816,
      "v": 112
    },
    {
      "midi": 62,
      "hit": false,
      "t": 203308.33209375158,
      "d": 86.53668750001816,
      "v": 112
    },
    {
      "midi": 65,
      "hit": false,
      "t": 203308.33209375158,
      "d": 86.53668750001816,
      "v": 112
    },
    {
      "midi": 58,
      "hit": false,
      "t": 203313.13968750052,
      "d": 62.498718749993714,
      "v": 112
    },
    {
      "midi": 62,
      "hit": false,
      "t": 203313.13968750052,
      "d": 62.498718749993714,
      "v": 112
    },
    {
      "midi": 65,
      "hit": false,
      "t": 203313.13968750052,
      "d": 62.498718749993714,
      "v": 112
    },
    {
      "midi": 58,
      "hit": false,
      "t": 203654.47884375052,
      "d": 67.30631250000442,
      "v": 112
    },
    {
      "midi": 62,
      "hit": false,
      "t": 203654.47884375052,
      "d": 67.30631250000442,
      "v": 112
    },
    {
      "midi": 65,
      "hit": false,
      "t": 203654.47884375052,
      "d": 67.30631250000442,
      "v": 112
    },
    {
      "midi": 58,
      "hit": false,
      "t": 203654.4788437516,
      "d": 76.92149999999674,
      "v": 112
    },
    {
      "midi": 62,
      "hit": false,
      "t": 203654.4788437516,
      "d": 76.92149999999674,
      "v": 112
    },
    {
      "midi": 34,
      "hit": false,
      "t": 203654.4788437516,
      "d": 86.53668749998906,
      "v": 112
    },
    {
      "midi": 65,
      "hit": false,
      "t": 203654.4788437516,
      "d": 96.15187499998137,
      "v": 112
    },
    {
      "midi": 58,
      "hit": false,
      "t": 203885.2433437505,
      "d": 38.46074999999837,
      "v": 112
    },
    {
      "midi": 62,
      "hit": false,
      "t": 203885.2433437505,
      "d": 76.92149999999674,
      "v": 112
    },
    {
      "midi": 65,
      "hit": false,
      "t": 203885.2433437505,
      "d": 76.92149999999674,
      "v": 112
    },
    {
      "midi": 34,
      "hit": false,
      "t": 203885.2433437516,
      "d": 48.07593749999069,
      "v": 112
    },
    {
      "midi": 62,
      "hit": false,
      "t": 204000.62559375158,
      "d": 96.15187500001048,
      "v": 112
    },
    {
      "midi": 34,
      "hit": false,
      "t": 204000.62559375158,
      "d": 129.80503125002724,
      "v": 112
    },
    {
      "midi": 58,
      "hit": false,
      "t": 204005.43318750052,
      "d": 72.11390624998603,
      "v": 112
    },
    {
      "midi": 62,
      "hit": false,
      "t": 204005.43318750052,
      "d": 72.11390624998603,
      "v": 112
    },
    {
      "midi": 65,
      "hit": false,
      "t": 204005.43318750052,
      "d": 91.34428124999977,
      "v": 112
    },
    {
      "midi": 58,
      "hit": false,
      "t": 204005.4331875016,
      "d": 76.92149999999674,
      "v": 112
    },
    {
      "midi": 65,
      "hit": false,
      "t": 204005.4331875016,
      "d": 110.5746562500135,
      "v": 112
    },
    {
      "midi": 62,
      "hit": false,
      "t": 204231.39009375052,
      "d": 72.11390624998603,
      "v": 112
    },
    {
      "midi": 58,
      "hit": false,
      "t": 204231.39009375052,
      "d": 76.92149999999674,
      "v": 112
    },
    {
      "midi": 65,
      "hit": false,
      "t": 204231.39009375052,
      "d": 76.92149999999674,
      "v": 112
    },
    {
      "midi": 34,
      "hit": false,
      "t": 204692.9190937516,
      "d": 72.11390624998603,
      "v": 112
    },
    {
      "midi": 34,
      "hit": false,
      "t": 204808.3013437516,
      "d": 62.498718749993714,
      "v": 112
    },
    {
      "midi": 58,
      "hit": false,
      "t": 204923.6835937516,
      "d": 81.72909375000745,
      "v": 112
    },
    {
      "midi": 34,
      "hit": false,
      "t": 204923.6835937516,
      "d": 91.34428125002887,
      "v": 112
    },
    {
      "midi": 53,
      "hit": false,
      "t": 204928.4911875016,
      "d": 43.26834375000908,
      "v": 112
    },
    {
      "midi": 62,
      "hit": false,
      "t": 204928.4911875016,
      "d": 76.92149999999674,
      "v": 112
    },
    {
      "midi": 65,
      "hit": false,
      "t": 204928.4911875016,
      "d": 81.72909375000745,
      "v": 112
    },
    {
      "midi": 62,
      "hit": false,
      "t": 205154.44809375162,
      "d": 52.8835312500014,
      "v": 112
    },
    {
      "midi": 65,
      "hit": false,
      "t": 205154.44809375162,
      "d": 62.498718749993714,
      "v": 112
    },
    {
      "midi": 34,
      "hit": false,
      "t": 205154.44809375162,
      "d": 76.92149999999674,
      "v": 112
    },
    {
      "midi": 53,
      "hit": false,
      "t": 205154.44809375162,
      "d": 100.95946874999208,
      "v": 112
    },
    {
      "midi": 58,
      "hit": false,
      "t": 205154.44809375162,
      "d": 105.7670625000028,
      "v": 112
    },
    {
      "midi": 58,
      "hit": false,
      "t": 205159.25568750052,
      "d": 62.498718749993714,
      "v": 112
    },
    {
      "midi": 62,
      "hit": false,
      "t": 205159.25568750052,
      "d": 62.498718749993714,
      "v": 112
    },
    {
      "midi": 65,
      "hit": false,
      "t": 205159.25568750052,
      "d": 81.72909375000745,
      "v": 112
    },
    {
      "midi": 34,
      "hit": false,
      "t": 205495.78725000162,
      "d": 81.72909375000745,
      "v": 112
    },
    {
      "midi": 58,
      "hit": false,
      "t": 205500.59484375053,
      "d": 67.30631250000442,
      "v": 112
    },
    {
      "midi": 65,
      "hit": false,
      "t": 205500.59484375053,
      "d": 67.30631250000442,
      "v": 112
    },
    {
      "midi": 62,
      "hit": false,
      "t": 205500.59484375053,
      "d": 72.11390625001513,
      "v": 112
    },
    {
      "midi": 58,
      "hit": false,
      "t": 205500.59484375163,
      "d": 81.72909375000745,
      "v": 112
    },
    {
      "midi": 62,
      "hit": false,
      "t": 205500.59484375163,
      "d": 86.53668750001816,
      "v": 112
    },
    {
      "midi": 65,
      "hit": false,
      "t": 205500.59484375163,
      "d": 86.53668750001816,
      "v": 112
    },
    {
      "midi": 53,
      "hit": false,
      "t": 205615.97709375166,
      "d": 67.30631250000442,
      "v": 112
    },
    {
      "midi": 58,
      "hit": false,
      "t": 205731.35934375055,
      "d": 33.65315624998766,
      "v": 112
    },
    {
      "midi": 65,
      "hit": false,
      "t": 205731.35934375055,
      "d": 38.46074999999837,
      "v": 112
    },
    {
      "midi": 62,
      "hit": false,
      "t": 205731.35934375055,
      "d": 57.69112500001211,
      "v": 112
    },
    {
      "midi": 34,
      "hit": false,
      "t": 205731.35934375165,
      "d": 52.8835312500014,
      "v": 112
    },
    {
      "midi": 34,
      "hit": false,
      "t": 205846.74159375165,
      "d": 91.34428124999977,
      "v": 112
    },
    {
      "midi": 53,
      "hit": false,
      "t": 205846.74159375165,
      "d": 96.15187500001048,
      "v": 112
    },
    {
      "midi": 65,
      "hit": false,
      "t": 205846.74159375165,
      "d": 96.15187500001048,
      "v": 112
    },
    {
      "midi": 58,
      "hit": false,
      "t": 205851.54918750055,
      "d": 341.3391562500037,
      "v": 112
    },
    {
      "midi": 62,
      "hit": false,
      "t": 205851.54918750055,
      "d": 355.76193750000675,
      "v": 112
    },
    {
      "midi": 65,
      "hit": false,
      "t": 205851.54918750055,
      "d": 355.76193750000675,
      "v": 112
    },
    {
      "midi": 62,
      "hit": false,
      "t": 205851.54918750166,
      "d": 86.53668749998906,
      "v": 112
    },
    {
      "midi": 58,
      "hit": false,
      "t": 205851.54918750166,
      "d": 91.34428124999977,
      "v": 112
    },
    {
      "midi": 34,
      "hit": false,
      "t": 206539.03509375165,
      "d": 72.11390624998603,
      "v": 112
    },
    {
      "midi": 36,
      "hit": false,
      "t": 206654.41734375164,
      "d": 86.53668749998906,
      "v": 112
    },
    {
      "midi": 38,
      "hit": false,
      "t": 206769.79959375164,
      "d": 100.95946874999208,
      "v": 112
    },
    {
      "midi": 60,
      "hit": false,
      "t": 207000.56409375163,
      "d": 81.72909375000745,
      "v": 112
    },
    {
      "midi": 65,
      "hit": false,
      "t": 207000.56409375163,
      "d": 81.72909375000745,
      "v": 112
    },
    {
      "midi": 69,
      "hit": false,
      "t": 207000.56409375163,
      "d": 81.72909375000745,
      "v": 112
    },
    {
      "midi": 57,
      "hit": false,
      "t": 207000.56409375163,
      "d": 86.53668750001816,
      "v": 112
    },
    {
      "midi": 38,
      "hit": false,
      "t": 207000.56409375163,
      "d": 110.5746562500135,
      "v": 112
    },
    {
      "midi": 62,
      "hit": false,
      "t": 207005.37168750056,
      "d": 57.69112500001211,
      "v": 112
    },
    {
      "midi": 65,
      "hit": false,
      "t": 207005.37168750056,
      "d": 57.69112500001211,
      "v": 112
    },
    {
      "midi": 69,
      "hit": false,
      "t": 207005.37168750056,
      "d": 57.69112500001211,
      "v": 112
    },
    {
      "midi": 38,
      "hit": false,
      "t": 207341.90325000163,
      "d": 115.38225000002421,
      "v": 112
    },
    {
      "midi": 65,
      "hit": false,
      "t": 207346.71084375164,
      "d": 76.92149999999674,
      "v": 112
    },
    {
      "midi": 69,
      "hit": false,
      "t": 207346.71084375164,
      "d": 76.92149999999674,
      "v": 112
    },
    {
      "midi": 60,
      "hit": false,
      "t": 207346.71084375164,
      "d": 81.72909375000745,
      "v": 112
    },
    {
      "midi": 57,
      "hit": false,
      "t": 207346.71084375164,
      "d": 100.95946875002119,
      "v": 112
    },
    {
      "midi": 65,
      "hit": false,
      "t": 207351.51843750058,
      "d": 67.30631250000442,
      "v": 112
    },
    {
      "midi": 62,
      "hit": false,
      "t": 207351.51843750058,
      "d": 76.92149999999674,
      "v": 112
    },
    {
      "midi": 69,
      "hit": false,
      "t": 207351.51843750058,
      "d": 76.92149999999674,
      "v": 112
    },
    {
      "midi": 65,
      "hit": false,
      "t": 207577.4753437506,
      "d": 38.46074999999837,
      "v": 112
    },
    {
      "midi": 69,
      "hit": false,
      "t": 207577.4753437506,
      "d": 38.46074999999837,
      "v": 112
    },
    {
      "midi": 38,
      "hit": false,
      "t": 207577.47534375166,
      "d": 52.8835312500014,
      "v": 112
    },
    {
      "midi": 62,
      "hit": false,
      "t": 207582.2829375006,
      "d": 38.46074999999837,
      "v": 112
    },
    {
      "midi": 57,
      "hit": false,
      "t": 207692.85759375166,
      "d": 86.53668750001816,
      "v": 112
    },
    {
      "midi": 65,
      "hit": false,
      "t": 207692.85759375166,
      "d": 86.53668750001816,
      "v": 112
    },
    {
      "midi": 38,
      "hit": false,
      "t": 207692.85759375166,
      "d": 124.99743750001653,
      "v": 112
    },
    {
      "midi": 62,
      "hit": false,
      "t": 207697.6651875006,
      "d": 38.46074999999837,
      "v": 112
    },
    {
      "midi": 69,
      "hit": false,
      "t": 207697.6651875006,
      "d": 38.46074999999837,
      "v": 112
    },
    {
      "midi": 65,
      "hit": false,
      "t": 207697.6651875006,
      "d": 57.69112500001211,
      "v": 112
    },
    {
      "midi": 62,
      "hit": false,
      "t": 207697.66518750167,
      "d": 81.72909375000745,
      "v": 112
    },
    {
      "midi": 69,
      "hit": false,
      "t": 207697.66518750167,
      "d": 81.72909375000745,
      "v": 112
    },
    {
      "midi": 62,
      "hit": false,
      "t": 207923.6220937506,
      "d": 76.92149999999674,
      "v": 112
    },
    {
      "midi": 65,
      "hit": false,
      "t": 207923.6220937506,
      "d": 81.72909375000745,
      "v": 112
    },
    {
      "midi": 69,
      "hit": false,
      "t": 207923.6220937506,
      "d": 81.72909375000745,
      "v": 112
    },
    {
      "midi": 36,
      "hit": false,
      "t": 208615.91559375168,
      "d": 96.15187500001048,
      "v": 112
    },
    {
      "midi": 65,
      "hit": false,
      "t": 208846.6800937517,
      "d": 72.11390624998603,
      "v": 112
    },
    {
      "midi": 69,
      "hit": false,
      "t": 208846.6800937517,
      "d": 72.11390624998603,
      "v": 112
    },
    {
      "midi": 57,
      "hit": false,
      "t": 208846.6800937517,
      "d": 91.34428124999977,
      "v": 112
    },
    {
      "midi": 60,
      "hit": false,
      "t": 208846.6800937517,
      "d": 91.34428124999977,
      "v": 112
    },
    {
      "midi": 36,
      "hit": false,
      "t": 208846.6800937517,
      "d": 96.15187500001048,
      "v": 112
    },
    {
      "midi": 65,
      "hit": false,
      "t": 208851.4876875006,
      "d": 57.69112500001211,
      "v": 112
    },
    {
      "midi": 60,
      "hit": false,
      "t": 208851.4876875006,
      "d": 62.49871875002282,
      "v": 112
    },
    {
      "midi": 69,
      "hit": false,
      "t": 208851.4876875006,
      "d": 62.49871875002282,
      "v": 112
    },
    {
      "midi": 60,
      "hit": false,
      "t": 209192.82684375063,
      "d": 72.11390625001513,
      "v": 112
    },
    {
      "midi": 60,
      "hit": false,
      "t": 209192.8268437517,
      "d": 86.53668749998906,
      "v": 112
    },
    {
      "midi": 65,
      "hit": false,
      "t": 209192.8268437517,
      "d": 86.53668749998906,
      "v": 112
    },
    {
      "midi": 69,
      "hit": false,
      "t": 209192.8268437517,
      "d": 86.53668749998906,
      "v": 112
    },
    {
      "midi": 36,
      "hit": false,
      "t": 209192.8268437517,
      "d": 100.95946874999208,
      "v": 112
    },
    {
      "midi": 57,
      "hit": false,
      "t": 209192.8268437517,
      "d": 100.95946874999208,
      "v": 112
    },
    {
      "midi": 69,
      "hit": false,
      "t": 209197.63443750064,
      "d": 67.30631250000442,
      "v": 112
    },
    {
      "midi": 65,
      "hit": false,
      "t": 209197.63443750064,
      "d": 72.11390625001513,
      "v": 112
    },
    {
      "midi": 69,
      "hit": false,
      "t": 209423.59134375065,
      "d": 38.46074999999837,
      "v": 112
    },
    {
      "midi": 60,
      "hit": false,
      "t": 209423.59134375065,
      "d": 72.11390624998603,
      "v": 112
    },
    {
      "midi": 65,
      "hit": false,
      "t": 209423.59134375065,
      "d": 72.11390624998603,
      "v": 112
    },
    {
      "midi": 36,
      "hit": false,
      "t": 209423.5913437517,
      "d": 48.07593749999069,
      "v": 112
    },
    {
      "midi": 57,
      "hit": false,
      "t": 209538.9735937517,
      "d": 81.72909375000745,
      "v": 112
    },
    {
      "midi": 65,
      "hit": false,
      "t": 209538.9735937517,
      "d": 81.72909375000745,
      "v": 112
    },
    {
      "midi": 36,
      "hit": false,
      "t": 209538.9735937517,
      "d": 124.99743750001653,
      "v": 112
    },
    {
      "midi": 60,
      "hit": false,
      "t": 209543.78118750063,
      "d": 76.92149999999674,
      "v": 112
    },
    {
      "midi": 69,
      "hit": false,
      "t": 209543.78118750063,
      "d": 76.92149999999674,
      "v": 112
    },
    {
      "midi": 65,
      "hit": false,
      "t": 209543.78118750063,
      "d": 81.72909375000745,
      "v": 112
    },
    {
      "midi": 60,
      "hit": false,
      "t": 209543.7811875017,
      "d": 72.11390624998603,
      "v": 112
    },
    {
      "midi": 69,
      "hit": false,
      "t": 209543.7811875017,
      "d": 100.95946874999208,
      "v": 112
    },
    {
      "midi": 60,
      "hit": false,
      "t": 209649.54825000063,
      "d": 91.34428125002887,
      "v": 112
    },
    {
      "midi": 65,
      "hit": false,
      "t": 209654.35584375064,
      "d": 81.72909375000745,
      "v": 112
    },
    {
      "midi": 69,
      "hit": false,
      "t": 209654.35584375064,
      "d": 81.72909375000745,
      "v": 112
    },
    {
      "midi": 60,
      "hit": false,
      "t": 209769.73809375067,
      "d": 91.34428124999977,
      "v": 112
    },
    {
      "midi": 65,
      "hit": false,
      "t": 209769.73809375067,
      "d": 91.34428124999977,
      "v": 112
    },
    {
      "midi": 69,
      "hit": false,
      "t": 209769.73809375067,
      "d": 96.15187500001048,
      "v": 112
    },
    {
      "midi": 36,
      "hit": false,
      "t": 210231.26709375173,
      "d": 96.15187500001048,
      "v": 112
    },
    {
      "midi": 38,
      "hit": false,
      "t": 210346.64934375175,
      "d": 100.95946874999208,
      "v": 112
    },
    {
      "midi": 58,
      "hit": false,
      "t": 210462.03159375174,
      "d": 72.11390625001513,
      "v": 112
    },
    {
      "midi": 39,
      "hit": false,
      "t": 210462.03159375174,
      "d": 91.34428125002887,
      "v": 112
    },
    {
      "midi": 63,
      "hit": false,
      "t": 210466.83918750176,
      "d": 43.26834375000908,
      "v": 112
    },
    {
      "midi": 67,
      "hit": false,
      "t": 210466.83918750176,
      "d": 81.72909375000745,
      "v": 112
    },
    {
      "midi": 70,
      "hit": false,
      "t": 210466.83918750176,
      "d": 81.72909375000745,
      "v": 112
    },
    {
      "midi": 58,
      "hit": false,
      "t": 210692.79609375176,
      "d": 43.26834375000908,
      "v": 112
    },
    {
      "midi": 63,
      "hit": false,
      "t": 210692.79609375176,
      "d": 91.34428124999977,
      "v": 112
    },
    {
      "midi": 67,
      "hit": false,
      "t": 210692.79609375176,
      "d": 91.34428124999977,
      "v": 112
    },
    {
      "midi": 70,
      "hit": false,
      "t": 210692.79609375176,
      "d": 91.34428124999977,
      "v": 112
    },
    {
      "midi": 39,
      "hit": false,
      "t": 210692.79609375176,
      "d": 100.95946874999208,
      "v": 112
    },
    {
      "midi": 63,
      "hit": false,
      "t": 210697.60368750067,
      "d": 62.498718749993714,
      "v": 112
    },
    {
      "midi": 70,
      "hit": false,
      "t": 210697.60368750067,
      "d": 62.498718749993714,
      "v": 112
    },
    {
      "midi": 58,
      "hit": false,
      "t": 210697.60368750067,
      "d": 67.30631250000442,
      "v": 112
    },
    {
      "midi": 70,
      "hit": false,
      "t": 211038.94284375067,
      "d": 72.11390625001513,
      "v": 112
    },
    {
      "midi": 58,
      "hit": false,
      "t": 211038.94284375067,
      "d": 76.92150000002584,
      "v": 112
    },
    {
      "midi": 63,
      "hit": false,
      "t": 211038.94284375175,
      "d": 72.11390624998603,
      "v": 112
    },
    {
      "midi": 67,
      "hit": false,
      "t": 211038.94284375175,
      "d": 72.11390624998603,
      "v": 112
    },
    {
      "midi": 70,
      "hit": false,
      "t": 211038.94284375175,
      "d": 76.92149999999674,
      "v": 112
    },
    {
      "midi": 39,
      "hit": false,
      "t": 211038.94284375175,
      "d": 96.15187500001048,
      "v": 112
    },
    {
      "midi": 58,
      "hit": false,
      "t": 211038.94284375175,
      "d": 100.95946875002119,
      "v": 112
    },
    {
      "midi": 63,
      "hit": false,
      "t": 211043.75043750068,
      "d": 72.11390625001513,
      "v": 112
    },
    {
      "midi": 58,
      "hit": false,
      "t": 211269.7073437507,
      "d": 38.46074999999837,
      "v": 112
    },
    {
      "midi": 63,
      "hit": false,
      "t": 211269.7073437507,
      "d": 38.46074999999837,
      "v": 112
    },
    {
      "midi": 70,
      "hit": false,
      "t": 211269.7073437507,
      "d": 38.46074999999837,
      "v": 112
    },
    {
      "midi": 39,
      "hit": false,
      "t": 211269.70734375177,
      "d": 48.07593749999069,
      "v": 112
    },
    {
      "midi": 58,
      "hit": false,
      "t": 211385.08959375176,
      "d": 96.15187500001048,
      "v": 112
    },
    {
      "midi": 67,
      "hit": false,
      "t": 211385.08959375176,
      "d": 96.15187500001048,
      "v": 112
    },
    {
      "midi": 39,
      "hit": false,
      "t": 211385.08959375176,
      "d": 120.18984375003492,
      "v": 112
    },
    {
      "midi": 58,
      "hit": false,
      "t": 211389.8971875007,
      "d": 43.26834375000908,
      "v": 112
    },
    {
      "midi": 63,
      "hit": false,
      "t": 211389.8971875007,
      "d": 43.26834375000908,
      "v": 112
    },
    {
      "midi": 70,
      "hit": false,
      "t": 211389.8971875007,
      "d": 81.72909375000745,
      "v": 112
    },
    {
      "midi": 63,
      "hit": false,
      "t": 211389.89718750177,
      "d": 72.11390624998603,
      "v": 112
    },
    {
      "midi": 70,
      "hit": false,
      "t": 211389.89718750177,
      "d": 110.5746562500135,
      "v": 112
    },
    {
      "midi": 58,
      "hit": false,
      "t": 211500.4718437507,
      "d": 81.72909375000745,
      "v": 112
    },
    {
      "midi": 63,
      "hit": false,
      "t": 211500.4718437507,
      "d": 81.72909375000745,
      "v": 112
    },
    {
      "midi": 70,
      "hit": false,
      "t": 211500.4718437507,
      "d": 81.72909375000745,
      "v": 112
    },
    {
      "midi": 58,
      "hit": false,
      "t": 211615.8540937507,
      "d": 76.92149999999674,
      "v": 112
    },
    {
      "midi": 63,
      "hit": false,
      "t": 211615.8540937507,
      "d": 76.92149999999674,
      "v": 112
    },
    {
      "midi": 70,
      "hit": false,
      "t": 211615.8540937507,
      "d": 76.92149999999674,
      "v": 112
    },
    {
      "midi": 58,
      "hit": false,
      "t": 211731.2363437507,
      "d": 38.46074999999837,
      "v": 112
    },
    {
      "midi": 63,
      "hit": false,
      "t": 211731.2363437507,
      "d": 43.26834375000908,
      "v": 112
    },
    {
      "midi": 70,
      "hit": false,
      "t": 211731.2363437507,
      "d": 43.26834375000908,
      "v": 112
    },
    {
      "midi": 39,
      "hit": false,
      "t": 212077.3830937518,
      "d": 62.498718749993714,
      "v": 112
    },
    {
      "midi": 39,
      "hit": false,
      "t": 212192.7653437518,
      "d": 72.11390624998603,
      "v": 112
    },
    {
      "midi": 70,
      "hit": false,
      "t": 212308.14759375178,
      "d": 1447.0857187500224,
      "v": 112
    },
    {
      "midi": 34,
      "hit": false,
      "t": 212308.14759375178,
      "d": 1605.7363125000265,
      "v": 112
    },
    {
      "midi": 70,
      "hit": false,
      "t": 212312.95518750072,
      "d": 1480.73887500001,
      "v": 112
    },
    {
      "midi": 65,
      "hit": false,
      "t": 212312.95518750072,
      "d": 1495.161656250013,
      "v": 112
    },
    {
      "midi": 58,
      "hit": false,
      "t": 212312.9551875018,
      "d": 1437.470531250001,
      "v": 112
    },
    {
      "midi": 62,
      "hit": false,
      "t": 212312.9551875018,
      "d": 1437.470531250001,
      "v": 112
    },
    {
      "midi": 65,
      "hit": false,
      "t": 212312.9551875018,
      "d": 1442.2781250000116,
      "v": 112
    },
    {
      "midi": 62,
      "hit": false,
      "t": 212317.76278125073,
      "d": 1504.7768437500054,
      "v": 112
    },
    {
      "midi": 29,
      "hit": false,
      "t": 214154.26359375182,
      "d": 81.72909375000745,
      "v": 112
    },
    {
      "midi": 60,
      "hit": false,
      "t": 214154.26359375182,
      "d": 96.15187500001048,
      "v": 112
    },
    {
      "midi": 53,
      "hit": false,
      "t": 214159.07118750073,
      "d": 72.11390624998603,
      "v": 112
    },
    {
      "midi": 65,
      "hit": false,
      "t": 214159.07118750183,
      "d": 38.46074999999837,
      "v": 112
    },
    {
      "midi": 69,
      "hit": false,
      "t": 214159.07118750183,
      "d": 38.46074999999837,
      "v": 112
    },
    {
      "midi": 57,
      "hit": false,
      "t": 214159.07118750183,
      "d": 67.30631250000442,
      "v": 112
    },
    {
      "midi": 65,
      "hit": false,
      "t": 214385.02809375184,
      "d": 48.07593749999069,
      "v": 112
    },
    {
      "midi": 69,
      "hit": false,
      "t": 214385.02809375184,
      "d": 48.07593749999069,
      "v": 112
    },
    {
      "midi": 29,
      "hit": false,
      "t": 214385.02809375184,
      "d": 96.15187499998137,
      "v": 112
    },
    {
      "midi": 57,
      "hit": false,
      "t": 214385.02809375184,
      "d": 96.15187499998137,
      "v": 112
    },
    {
      "midi": 60,
      "hit": false,
      "t": 214385.02809375184,
      "d": 100.95946874999208,
      "v": 112
    },
    {
      "midi": 60,
      "hit": false,
      "t": 214389.83568750072,
      "d": 48.07593749999069,
      "v": 112
    },
    {
      "midi": 65,
      "hit": false,
      "t": 214389.83568750072,
      "d": 67.30631250000442,
      "v": 112
    },
    {
      "midi": 60,
      "hit": false,
      "t": 214731.17484375072,
      "d": 67.30631250000442,
      "v": 112
    },
    {
      "midi": 65,
      "hit": false,
      "t": 214731.17484375183,
      "d": 43.26834375000908,
      "v": 112
    },
    {
      "midi": 69,
      "hit": false,
      "t": 214731.17484375183,
      "d": 43.26834375000908,
      "v": 112
    },
    {
      "midi": 57,
      "hit": false,
      "t": 214731.17484375183,
      "d": 81.72909375000745,
      "v": 112
    },
    {
      "midi": 60,
      "hit": false,
      "t": 214731.17484375183,
      "d": 81.72909375000745,
      "v": 112
    },
    {
      "midi": 29,
      "hit": false,
      "t": 214731.17484375183,
      "d": 110.5746562500135,
      "v": 112
    },
    {
      "midi": 65,
      "hit": false,
      "t": 214735.98243750073,
      "d": 76.92149999999674,
      "v": 112
    },
    {
      "midi": 53,
      "hit": false,
      "t": 214961.93934375074,
      "d": 52.8835312500014,
      "v": 112
    },
    {
      "midi": 29,
      "hit": false,
      "t": 214961.93934375184,
      "d": 62.498718749993714,
      "v": 112
    },
    {
      "midi": 57,
      "hit": false,
      "t": 215077.32159375184,
      "d": 91.34428124999977,
      "v": 112
    },
    {
      "midi": 29,
      "hit": false,
      "t": 215077.32159375184,
      "d": 134.61262500000885,
      "v": 112
    },
    {
      "midi": 60,
      "hit": false,
      "t": 215082.12918750074,
      "d": 52.8835312500014,
      "v": 112
    },
    {
      "midi": 65,
      "hit": false,
      "t": 215082.12918750074,
      "d": 52.8835312500014,
      "v": 112
    },
    {
      "midi": 65,
      "hit": false,
      "t": 215082.12918750185,
      "d": 48.07593749999069,
      "v": 112
    },
    {
      "midi": 60,
      "hit": false,
      "t": 215082.12918750185,
      "d": 86.53668749998906,
      "v": 112
    },
    {
      "midi": 69,
      "hit": false,
      "t": 215082.12918750185,
      "d": 86.53668749998906,
      "v": 112
    },
    {
      "midi": 60,
      "hit": false,
      "t": 215187.89625000075,
      "d": 62.498718749993714,
      "v": 112
    },
    {
      "midi": 65,
      "hit": false,
      "t": 215187.89625000075,
      "d": 76.92149999999674,
      "v": 112
    },
    {
      "midi": 53,
      "hit": false,
      "t": 215308.08609375075,
      "d": 43.26834375000908,
      "v": 112
    },
    {
      "midi": 60,
      "hit": false,
      "t": 215423.46834375075,
      "d": 62.498718749993714,
      "v": 112
    },
    {
      "midi": 65,
      "hit": false,
      "t": 215423.46834375075,
      "d": 62.498718749993714,
      "v": 112
    },
    {
      "midi": 29,
      "hit": false,
      "t": 215769.61509375184,
      "d": 76.92149999999674,
      "v": 112
    },
    {
      "midi": 31,
      "hit": false,
      "t": 215884.99734375183,
      "d": 91.34428124999977,
      "v": 112
    },
    {
      "midi": 64,
      "hit": false,
      "t": 216000.37959375183,
      "d": 86.53668750001816,
      "v": 112
    },
    {
      "midi": 33,
      "hit": false,
      "t": 216000.37959375183,
      "d": 96.15187500003958,
      "v": 112
    },
    {
      "midi": 57,
      "hit": false,
      "t": 216005.18718750184,
      "d": 76.92149999999674,
      "v": 112
    },
    {
      "midi": 60,
      "hit": false,
      "t": 216005.18718750184,
      "d": 81.72909375000745,
      "v": 112
    },
    {
      "midi": 67,
      "hit": false,
      "t": 216005.18718750184,
      "d": 86.53668750001816,
      "v": 112
    },
    {
      "midi": 60,
      "hit": false,
      "t": 216231.14409375188,
      "d": 57.69112500001211,
      "v": 112
    },
    {
      "midi": 57,
      "hit": false,
      "t": 216231.14409375188,
      "d": 62.49871875002282,
      "v": 112
    },
    {
      "midi": 67,
      "hit": false,
      "t": 216231.14409375188,
      "d": 62.49871875002282,
      "v": 112
    },
    {
      "midi": 64,
      "hit": false,
      "t": 216231.14409375188,
      "d": 67.30631250003353,
      "v": 112
    },
    {
      "midi": 33,
      "hit": false,
      "t": 216231.14409375188,
      "d": 120.18984375003492,
      "v": 112
    },
    {
      "midi": 62,
      "hit": false,
      "t": 216235.95168750075,
      "d": 24.037968749995343,
      "v": 112
    },
    {
      "midi": 64,
      "hit": false,
      "t": 216235.95168750075,
      "d": 43.26834375000908,
      "v": 112
    },
    {
      "midi": 57,
      "hit": false,
      "t": 216461.90859375076,
      "d": 48.07593749999069,
      "v": 112
    },
    {
      "midi": 57,
      "hit": false,
      "t": 216577.29084375192,
      "d": 81.72909375000745,
      "v": 112
    },
    {
      "midi": 60,
      "hit": false,
      "t": 216577.29084375192,
      "d": 81.72909375000745,
      "v": 112
    },
    {
      "midi": 64,
      "hit": false,
      "t": 216577.29084375192,
      "d": 81.72909375000745,
      "v": 112
    },
    {
      "midi": 67,
      "hit": false,
      "t": 216577.29084375192,
      "d": 86.53668750001816,
      "v": 112
    },
    {
      "midi": 33,
      "hit": false,
      "t": 216577.29084375192,
      "d": 105.7670625000319,
      "v": 112
    },
    {
      "midi": 64,
      "hit": false,
      "t": 216582.09843750074,
      "d": 52.8835312500014,
      "v": 112
    },
    {
      "midi": 60,
      "hit": false,
      "t": 216582.09843750074,
      "d": 67.30631250000442,
      "v": 112
    },
    {
      "midi": 57,
      "hit": false,
      "t": 216808.05534375075,
      "d": 38.46074999999837,
      "v": 112
    },
    {
      "midi": 33,
      "hit": false,
      "t": 216808.05534375194,
      "d": 67.30631250000442,
      "v": 112
    },
    {
      "midi": 60,
      "hit": false,
      "t": 216923.43759375194,
      "d": 96.15187500001048,
      "v": 112
    },
    {
      "midi": 64,
      "hit": false,
      "t": 216923.43759375194,
      "d": 96.15187500001048,
      "v": 112
    },
    {
      "midi": 33,
      "hit": false,
      "t": 216923.43759375194,
      "d": 144.22781250000116,
      "v": 112
    },
    {
      "midi": 62,
      "hit": false,
      "t": 216928.24518750075,
      "d": 52.8835312500014,
      "v": 112
    },
    {
      "midi": 67,
      "hit": false,
      "t": 216928.24518750075,
      "d": 52.8835312500014,
      "v": 112
    },
    {
      "midi": 57,
      "hit": false,
      "t": 216928.24518750195,
      "d": 86.53668749998906,
      "v": 112
    },
    {
      "midi": 67,
      "hit": false,
      "t": 216928.24518750195,
      "d": 86.53668749998906,
      "v": 112
    },
    {
      "midi": 62,
      "hit": false,
      "t": 217038.81984375077,
      "d": 57.69112500001211,
      "v": 112
    },
    {
      "midi": 67,
      "hit": false,
      "t": 217038.81984375077,
      "d": 62.49871875002282,
      "v": 112
    },
    {
      "midi": 57,
      "hit": false,
      "t": 217154.2020937508,
      "d": 52.8835312500014,
      "v": 112
    },
    {
      "midi": 64,
      "hit": false,
      "t": 217269.5843437508,
      "d": 57.69112500001211,
      "v": 112
    },
    {
      "midi": 60,
      "hit": false,
      "t": 217269.5843437508,
      "d": 76.92150000002584,
      "v": 112
    },
    {
      "midi": 62,
      "hit": false,
      "t": 217846.49559375193,
      "d": 52.8835312500014,
      "v": 112
    },
    {
      "midi": 58,
      "hit": false,
      "t": 217846.49559375193,
      "d": 81.72909375000745,
      "v": 112
    },
    {
      "midi": 65,
      "hit": false,
      "t": 217846.49559375193,
      "d": 81.72909375000745,
      "v": 112
    },
    {
      "midi": 34,
      "hit": false,
      "t": 217846.49559375193,
      "d": 91.34428124999977,
      "v": 112
    },
    {
      "midi": 34,
      "hit": false,
      "t": 218077.26009375192,
      "d": 86.53668749998906,
      "v": 112
    },
    {
      "midi": 58,
      "hit": false,
      "t": 218077.26009375192,
      "d": 86.53668749998906,
      "v": 112
    },
    {
      "midi": 62,
      "hit": false,
      "t": 218077.26009375192,
      "d": 91.34428124999977,
      "v": 112
    },
    {
      "midi": 65,
      "hit": false,
      "t": 218077.26009375192,
      "d": 91.34428124999977,
      "v": 112
    },
    {
      "midi": 65,
      "hit": false,
      "t": 218082.06768750082,
      "d": 48.07593749999069,
      "v": 112
    },
    {
      "midi": 62,
      "hit": false,
      "t": 218082.06768750082,
      "d": 62.498718749993714,
      "v": 112
    },
    {
      "midi": 58,
      "hit": false,
      "t": 218308.0245937508,
      "d": 38.46074999999837,
      "v": 112
    },
    {
      "midi": 70,
      "hit": false,
      "t": 218423.4068437508,
      "d": 76.92150000002584,
      "v": 112
    },
    {
      "midi": 58,
      "hit": false,
      "t": 218423.4068437519,
      "d": 81.72909375000745,
      "v": 112
    },
    {
      "midi": 62,
      "hit": false,
      "t": 218423.4068437519,
      "d": 81.72909375000745,
      "v": 112
    },
    {
      "midi": 65,
      "hit": false,
      "t": 218423.4068437519,
      "d": 81.72909375000745,
      "v": 112
    },
    {
      "midi": 34,
      "hit": false,
      "t": 218423.4068437519,
      "d": 86.53668750001816,
      "v": 112
    },
    {
      "midi": 65,
      "hit": false,
      "t": 218428.2144375008,
      "d": 57.69112500001211,
      "v": 112
    },
    {
      "midi": 58,
      "hit": false,
      "t": 218654.17134375082,
      "d": 48.07593749999069,
      "v": 112
    },
    {
      "midi": 34,
      "hit": false,
      "t": 218654.17134375192,
      "d": 57.69112500001211,
      "v": 112
    },
    {
      "midi": 58,
      "hit": false,
      "t": 218769.55359375195,
      "d": 76.92149999999674,
      "v": 112
    },
    {
      "midi": 34,
      "hit": false,
      "t": 218769.55359375195,
      "d": 81.72909375000745,
      "v": 112
    },
    {
      "midi": 65,
      "hit": false,
      "t": 218769.55359375195,
      "d": 96.15187500001048,
      "v": 112
    },
    {
      "midi": 62,
      "hit": false,
      "t": 218774.3611875008,
      "d": 52.8835312500014,
      "v": 112
    },
    {
      "midi": 65,
      "hit": false,
      "t": 218774.3611875008,
      "d": 52.8835312500014,
      "v": 112
    },
    {
      "midi": 62,
      "hit": false,
      "t": 218774.36118750196,
      "d": 72.11390624998603,
      "v": 112
    },
    {
      "midi": 62,
      "hit": false,
      "t": 218880.1282500008,
      "d": 76.92149999999674,
      "v": 112
    },
    {
      "midi": 65,
      "hit": false,
      "t": 218880.1282500008,
      "d": 76.92149999999674,
      "v": 112
    },
    {
      "midi": 58,
      "hit": false,
      "t": 219000.3180937508,
      "d": 38.46074999999837,
      "v": 112
    },
    {
      "midi": 70,
      "hit": false,
      "t": 219115.7003437508,
      "d": 72.11390624998603,
      "v": 112
    },
    {
      "midi": 65,
      "hit": false,
      "t": 219115.7003437508,
      "d": 76.92149999999674,
      "v": 112
    },
    {
      "midi": 62,
      "hit": false,
      "t": 219692.61159375196,
      "d": 72.11390625001513,
      "v": 112
    },
    {
      "midi": 65,
      "hit": false,
      "t": 219692.61159375196,
      "d": 76.92150000002584,
      "v": 112
    },
    {
      "midi": 34,
      "hit": false,
      "t": 219692.61159375196,
      "d": 96.15187500003958,
      "v": 112
    },
    {
      "midi": 58,
      "hit": false,
      "t": 219697.41918750198,
      "d": 72.11390625001513,
      "v": 112
    },
    {
      "midi": 58,
      "hit": false,
      "t": 219923.376093752,
      "d": 76.92149999999674,
      "v": 112
    },
    {
      "midi": 62,
      "hit": false,
      "t": 219923.376093752,
      "d": 76.92149999999674,
      "v": 112
    },
    {
      "midi": 65,
      "hit": false,
      "t": 219923.376093752,
      "d": 76.92149999999674,
      "v": 112
    },
    {
      "midi": 34,
      "hit": false,
      "t": 219923.376093752,
      "d": 86.53668749998906,
      "v": 112
    },
    {
      "midi": 70,
      "hit": false,
      "t": 219928.1836875008,
      "d": 62.498718749993714,
      "v": 112
    },
    {
      "midi": 62,
      "hit": false,
      "t": 219928.1836875008,
      "d": 67.30631250000442,
      "v": 112
    },
    {
      "midi": 65,
      "hit": false,
      "t": 219928.1836875008,
      "d": 67.30631250000442,
      "v": 112
    },
    {
      "midi": 58,
      "hit": false,
      "t": 220158.9481875008,
      "d": 33.65315624998766,
      "v": 112
    },
    {
      "midi": 65,
      "hit": false,
      "t": 220269.52284375078,
      "d": 67.30631250000442,
      "v": 112
    },
    {
      "midi": 58,
      "hit": false,
      "t": 220269.522843752,
      "d": 76.92149999999674,
      "v": 112
    },
    {
      "midi": 62,
      "hit": false,
      "t": 220269.522843752,
      "d": 76.92149999999674,
      "v": 112
    },
    {
      "midi": 65,
      "hit": false,
      "t": 220269.522843752,
      "d": 76.92149999999674,
      "v": 112
    },
    {
      "midi": 34,
      "hit": false,
      "t": 220269.522843752,
      "d": 81.72909375000745,
      "v": 112
    },
    {
      "midi": 62,
      "hit": false,
      "t": 220274.3304375008,
      "d": 62.498718749993714,
      "v": 112
    },
    {
      "midi": 58,
      "hit": false,
      "t": 220500.28734375077,
      "d": 38.46074999999837,
      "v": 112
    },
    {
      "midi": 34,
      "hit": false,
      "t": 220500.28734375202,
      "d": 67.30631250000442,
      "v": 112
    },
    {
      "midi": 62,
      "hit": false,
      "t": 220615.669593752,
      "d": 76.92149999999674,
      "v": 112
    },
    {
      "midi": 65,
      "hit": false,
      "t": 220615.669593752,
      "d": 76.92149999999674,
      "v": 112
    },
    {
      "midi": 34,
      "hit": false,
      "t": 220615.669593752,
      "d": 134.61262500000885,
      "v": 112
    },
    {
      "midi": 65,
      "hit": false,
      "t": 220620.47718750077,
      "d": 57.69112500001211,
      "v": 112
    },
    {
      "midi": 70,
      "hit": false,
      "t": 220620.47718750077,
      "d": 57.69112500001211,
      "v": 112
    },
    {
      "midi": 58,
      "hit": false,
      "t": 220620.47718750202,
      "d": 72.11390624998603,
      "v": 112
    },
    {
      "midi": 65,
      "hit": false,
      "t": 220731.05184375079,
      "d": 62.498718749993714,
      "v": 112
    },
    {
      "midi": 70,
      "hit": false,
      "t": 220731.05184375079,
      "d": 76.92149999999674,
      "v": 112
    },
    {
      "midi": 58,
      "hit": false,
      "t": 220846.43409375078,
      "d": 43.26834375000908,
      "v": 112
    },
    {
      "midi": 65,
      "hit": false,
      "t": 220961.81634375078,
      "d": 57.69112500001211,
      "v": 112
    },
    {
      "midi": 70,
      "hit": false,
      "t": 220961.81634375078,
      "d": 57.69112500001211,
      "v": 112
    },
    {
      "midi": 65,
      "hit": false,
      "t": 221192.5808437508,
      "d": 57.69112500001211,
      "v": 112
    },
    {
      "midi": 70,
      "hit": false,
      "t": 221192.5808437508,
      "d": 76.92150000002584,
      "v": 112
    },
    {
      "midi": 58,
      "hit": false,
      "t": 221307.96309375082,
      "d": 33.65315624998766,
      "v": 112
    },
    {
      "midi": 65,
      "hit": false,
      "t": 221538.72759375203,
      "d": 48.07593750001979,
      "v": 112
    },
    {
      "midi": 57,
      "hit": false,
      "t": 221538.72759375203,
      "d": 81.72909375000745,
      "v": 112
    },
    {
      "midi": 29,
      "hit": false,
      "t": 221538.72759375203,
      "d": 96.15187500001048,
      "v": 112
    },
    {
      "midi": 60,
      "hit": false,
      "t": 221543.53518750204,
      "d": 76.92149999999674,
      "v": 112
    },
    {
      "midi": 69,
      "hit": false,
      "t": 221543.53518750204,
      "d": 76.92149999999674,
      "v": 112
    },
    {
      "midi": 65,
      "hit": false,
      "t": 221769.49209375205,
      "d": 57.69112500001211,
      "v": 112
    },
    {
      "midi": 69,
      "hit": false,
      "t": 221769.49209375205,
      "d": 57.69112500001211,
      "v": 112
    },
    {
      "midi": 57,
      "hit": false,
      "t": 221769.49209375205,
      "d": 100.95946875002119,
      "v": 112
    },
    {
      "midi": 60,
      "hit": false,
      "t": 221769.49209375205,
      "d": 100.95946875002119,
      "v": 112
    },
    {
      "midi": 29,
      "hit": false,
      "t": 221769.49209375205,
      "d": 115.38225000002421,
      "v": 112
    },
    {
      "midi": 60,
      "hit": false,
      "t": 221774.2996875008,
      "d": 62.498718749993714,
      "v": 112
    },
    {
      "midi": 65,
      "hit": false,
      "t": 221774.2996875008,
      "d": 62.498718749993714,
      "v": 112
    },
    {
      "midi": 53,
      "hit": false,
      "t": 222000.2565937508,
      "d": 62.498718749993714,
      "v": 112
    },
    {
      "midi": 60,
      "hit": false,
      "t": 222115.63884375078,
      "d": 67.30631250000442,
      "v": 112
    },
    {
      "midi": 65,
      "hit": false,
      "t": 222115.63884375078,
      "d": 86.53668750001816,
      "v": 112
    },
    {
      "midi": 57,
      "hit": false,
      "t": 222115.63884375207,
      "d": 91.34428124999977,
      "v": 112
    },
    {
      "midi": 65,
      "hit": false,
      "t": 222115.63884375207,
      "d": 91.34428124999977,
      "v": 112
    },
    {
      "midi": 29,
      "hit": false,
      "t": 222115.63884375207,
      "d": 96.15187500001048,
      "v": 112
    },
    {
      "midi": 60,
      "hit": false,
      "t": 222115.63884375207,
      "d": 96.15187500001048,
      "v": 112
    },
    {
      "midi": 69,
      "hit": false,
      "t": 222115.63884375207,
      "d": 100.95946875002119,
      "v": 112
    },
    {
      "midi": 53,
      "hit": false,
      "t": 222346.4033437508,
      "d": 52.8835312500014,
      "v": 112
    },
    {
      "midi": 29,
      "hit": false,
      "t": 222346.40334375208,
      "d": 72.11390624998603,
      "v": 112
    },
    {
      "midi": 57,
      "hit": false,
      "t": 222461.78559375208,
      "d": 91.34428125002887,
      "v": 112
    },
    {
      "midi": 29,
      "hit": false,
      "t": 222461.78559375208,
      "d": 134.61262500003795,
      "v": 112
    },
    {
      "midi": 62,
      "hit": false,
      "t": 222466.5931875008,
      "d": 48.07593749999069,
      "v": 112
    },
    {
      "midi": 65,
      "hit": false,
      "t": 222466.5931875008,
      "d": 52.8835312500014,
      "v": 112
    },
    {
      "midi": 65,
      "hit": false,
      "t": 222466.5931875021,
      "d": 81.72909375000745,
      "v": 112
    },
    {
      "midi": 60,
      "hit": false,
      "t": 222466.5931875021,
      "d": 86.53668750001816,
      "v": 112
    },
    {
      "midi": 69,
      "hit": false,
      "t": 222466.5931875021,
      "d": 86.53668750001816,
      "v": 112
    },
    {
      "midi": 62,
      "hit": false,
      "t": 222572.3602500008,
      "d": 62.49871875002282,
      "v": 112
    },
    {
      "midi": 65,
      "hit": false,
      "t": 222577.16784375082,
      "d": 72.11390625001513,
      "v": 112
    },
    {
      "midi": 53,
      "hit": false,
      "t": 222692.55009375085,
      "d": 43.26834375000908,
      "v": 112
    },
    {
      "midi": 60,
      "hit": false,
      "t": 222807.93234375084,
      "d": 62.498718749993714,
      "v": 112
    },
    {
      "midi": 65,
      "hit": false,
      "t": 222807.93234375084,
      "d": 62.498718749993714,
      "v": 112
    },
    {
      "midi": 29,
      "hit": false,
      "t": 223154.0790937521,
      "d": 67.30631250000442,
      "v": 112
    },
    {
      "midi": 31,
      "hit": false,
      "t": 223269.4613437521,
      "d": 91.34428124999977,
      "v": 112
    },
    {
      "midi": 57,
      "hit": false,
      "t": 223384.8435937521,
      "d": 96.15187500001048,
      "v": 112
    },
    {
      "midi": 33,
      "hit": false,
      "t": 223384.8435937521,
      "d": 115.38225000002421,
      "v": 112
    },
    {
      "midi": 57,
      "hit": false,
      "t": 223389.65118750083,
      "d": 57.69112500001211,
      "v": 112
    },
    {
      "midi": 60,
      "hit": false,
      "t": 223389.6511875021,
      "d": 72.11390624998603,
      "v": 112
    },
    {
      "midi": 64,
      "hit": false,
      "t": 223389.6511875021,
      "d": 72.11390624998603,
      "v": 112
    },
    {
      "midi": 67,
      "hit": false,
      "t": 223389.6511875021,
      "d": 76.92149999999674,
      "v": 112
    },
    {
      "midi": 67,
      "hit": false,
      "t": 223615.60809375212,
      "d": 57.69112500001211,
      "v": 112
    },
    {
      "midi": 60,
      "hit": false,
      "t": 223615.60809375212,
      "d": 62.49871875002282,
      "v": 112
    },
    {
      "midi": 64,
      "hit": false,
      "t": 223615.60809375212,
      "d": 62.49871875002282,
      "v": 112
    },
    {
      "midi": 57,
      "hit": false,
      "t": 223615.60809375212,
      "d": 105.7670625000319,
      "v": 112
    },
    {
      "midi": 33,
      "hit": false,
      "t": 223615.60809375212,
      "d": 129.80503125002724,
      "v": 112
    },
    {
      "midi": 60,
      "hit": false,
      "t": 223620.41568750085,
      "d": 57.69112500001211,
      "v": 112
    },
    {
      "midi": 67,
      "hit": false,
      "t": 223620.41568750085,
      "d": 76.92150000002584,
      "v": 112
    },
    {
      "midi": 57,
      "hit": false,
      "t": 223846.3725937509,
      "d": 76.92149999999674,
      "v": 112
    },
    {
      "midi": 60,
      "hit": false,
      "t": 223961.75484375088,
      "d": 86.53668750001816,
      "v": 112
    },
    {
      "midi": 57,
      "hit": false,
      "t": 223961.75484375213,
      "d": 81.72909375000745,
      "v": 112
    },
    {
      "midi": 60,
      "hit": false,
      "t": 223961.75484375213,
      "d": 81.72909375000745,
      "v": 112
    },
    {
      "midi": 64,
      "hit": false,
      "t": 223961.75484375213,
      "d": 86.53668750001816,
      "v": 112
    },
    {
      "midi": 67,
      "hit": false,
      "t": 223961.75484375213,
      "d": 86.53668750001816,
      "v": 112
    },
    {
      "midi": 33,
      "hit": false,
      "t": 223961.75484375213,
      "d": 100.95946875002119,
      "v": 112
    },
    {
      "midi": 67,
      "hit": false,
      "t": 223966.5624375009,
      "d": 57.69112500001211,
      "v": 112
    },
    {
      "midi": 57,
      "hit": false,
      "t": 224192.5193437509,
      "d": 62.498718749993714,
      "v": 112
    },
    {
      "midi": 33,
      "hit": false,
      "t": 224192.51934375215,
      "d": 52.8835312500014,
      "v": 112
    },
    {
      "midi": 57,
      "hit": false,
      "t": 224307.90159375215,
      "d": 91.34428125002887,
      "v": 112
    },
    {
      "midi": 67,
      "hit": false,
      "t": 224307.90159375215,
      "d": 91.34428125002887,
      "v": 112
    },
    {
      "midi": 33,
      "hit": false,
      "t": 224307.90159375215,
      "d": 120.18984375003492,
      "v": 112
    },
    {
      "midi": 60,
      "hit": false,
      "t": 224312.7091875009,
      "d": 52.8835312500014,
      "v": 112
    },
    {
      "midi": 67,
      "hit": false,
      "t": 224312.7091875009,
      "d": 57.69112500001211,
      "v": 112
    },
    {
      "midi": 64,
      "hit": false,
      "t": 224312.70918750216,
      "d": 81.72909375000745,
      "v": 112
    },
    {
      "midi": 60,
      "hit": false,
      "t": 224312.70918750216,
      "d": 86.53668750001816,
      "v": 112
    },
    {
      "midi": 60,
      "hit": false,
      "t": 224418.4762500009,
      "d": 62.49871875002282,
      "v": 112
    },
    {
      "midi": 67,
      "hit": false,
      "t": 224423.28384375092,
      "d": 57.69112500001211,
      "v": 112
    },
    {
      "midi": 57,
      "hit": false,
      "t": 224538.66609375094,
      "d": 57.69112500001211,
      "v": 112
    },
    {
      "midi": 60,
      "hit": false,
      "t": 224654.04834375097,
      "d": 57.69112500001211,
      "v": 112
    },
    {
      "midi": 67,
      "hit": false,
      "t": 224654.04834375097,
      "d": 57.69112500001211,
      "v": 112
    },
    {
      "midi": 34,
      "hit": false,
      "t": 225230.9595937522,
      "d": 72.11390625001513,
      "v": 112
    },
    {
      "midi": 58,
      "hit": false,
      "t": 225230.9595937522,
      "d": 76.92150000002584,
      "v": 112
    },
    {
      "midi": 62,
      "hit": false,
      "t": 225235.7671875022,
      "d": 72.11390625001513,
      "v": 112
    },
    {
      "midi": 65,
      "hit": false,
      "t": 225235.7671875022,
      "d": 72.11390625001513,
      "v": 112
    },
    {
      "midi": 53,
      "hit": false,
      "t": 225235.7671875022,
      "d": 96.15187500001048,
      "v": 112
    },
    {
      "midi": 34,
      "hit": false,
      "t": 225461.72409375221,
      "d": 86.53668750001816,
      "v": 112
    },
    {
      "midi": 53,
      "hit": false,
      "t": 225461.72409375221,
      "d": 91.34428125002887,
      "v": 112
    },
    {
      "midi": 58,
      "hit": false,
      "t": 225461.72409375221,
      "d": 91.34428125002887,
      "v": 112
    },
    {
      "midi": 65,
      "hit": false,
      "t": 225461.72409375221,
      "d": 91.34428125002887,
      "v": 112
    },
    {
      "midi": 65,
      "hit": false,
      "t": 225466.53168750097,
      "d": 43.26834375000908,
      "v": 112
    },
    {
      "midi": 70,
      "hit": false,
      "t": 225466.53168750097,
      "d": 48.07593750001979,
      "v": 112
    },
    {
      "midi": 62,
      "hit": false,
      "t": 225466.53168750223,
      "d": 86.53668750001816,
      "v": 112
    },
    {
      "midi": 58,
      "hit": false,
      "t": 225692.48859375098,
      "d": 38.46074999999837,
      "v": 112
    },
    {
      "midi": 65,
      "hit": false,
      "t": 225807.87084375098,
      "d": 52.8835312500014,
      "v": 112
    },
    {
      "midi": 53,
      "hit": false,
      "t": 225807.87084375223,
      "d": 62.498718749993714,
      "v": 112
    },
    {
      "midi": 58,
      "hit": false,
      "t": 225807.87084375223,
      "d": 86.53668749998906,
      "v": 112
    },
    {
      "midi": 62,
      "hit": false,
      "t": 225807.87084375223,
      "d": 86.53668749998906,
      "v": 112
    },
    {
      "midi": 65,
      "hit": false,
      "t": 225807.87084375223,
      "d": 86.53668749998906,
      "v": 112
    },
    {
      "midi": 34,
      "hit": false,
      "t": 225807.87084375223,
      "d": 100.95946874999208,
      "v": 112
    },
    {
      "midi": 70,
      "hit": false,
      "t": 225812.678437501,
      "d": 48.07593749999069,
      "v": 112
    },
    {
      "midi": 58,
      "hit": false,
      "t": 226038.63534375097,
      "d": 38.46074999999837,
      "v": 112
    },
    {
      "midi": 34,
      "hit": false,
      "t": 226038.63534375222,
      "d": 57.69112500001211,
      "v": 112
    },
    {
      "midi": 34,
      "hit": false,
      "t": 226154.01759375224,
      "d": 86.53668750001816,
      "v": 112
    },
    {
      "midi": 58,
      "hit": false,
      "t": 226154.01759375224,
      "d": 96.15187500001048,
      "v": 112
    },
    {
      "midi": 62,
      "hit": false,
      "t": 226154.01759375224,
      "d": 96.15187500001048,
      "v": 112
    },
    {
      "midi": 70,
      "hit": false,
      "t": 226158.82518750097,
      "d": 24.037968749995343,
      "v": 112
    },
    {
      "midi": 65,
      "hit": false,
      "t": 226158.82518750097,
      "d": 52.8835312500014,
      "v": 112
    },
    {
      "midi": 65,
      "hit": false,
      "t": 226158.82518750225,
      "d": 96.15187500001048,
      "v": 112
    },
    {
      "midi": 53,
      "hit": false,
      "t": 226158.82518750225,
      "d": 100.95946875002119,
      "v": 112
    },
    {
      "midi": 65,
      "hit": false,
      "t": 226264.59225000098,
      "d": 62.498718749993714,
      "v": 112
    },
    {
      "midi": 70,
      "hit": false,
      "t": 226264.59225000098,
      "d": 62.498718749993714,
      "v": 112
    },
    {
      "midi": 58,
      "hit": false,
      "t": 226384.78209375098,
      "d": 43.26834375000908,
      "v": 112
    },
    {
      "midi": 65,
      "hit": false,
      "t": 226500.16434375098,
      "d": 62.498718749993714,
      "v": 112
    },
    {
      "midi": 70,
      "hit": false,
      "t": 226500.16434375098,
      "d": 62.498718749993714,
      "v": 112
    },
    {
      "midi": 34,
      "hit": false,
      "t": 226846.31109375227,
      "d": 62.498718749993714,
      "v": 112
    },
    {
      "midi": 34,
      "hit": false,
      "t": 226961.69334375227,
      "d": 62.498718749993714,
      "v": 112
    },
    {
      "midi": 34,
      "hit": false,
      "t": 227077.07559375226,
      "d": 67.30631250000442,
      "v": 112
    },
    {
      "midi": 58,
      "hit": false,
      "t": 227077.07559375226,
      "d": 86.53668750001816,
      "v": 112
    },
    {
      "midi": 63,
      "hit": false,
      "t": 227081.88318750227,
      "d": 81.72909375000745,
      "v": 112
    },
    {
      "midi": 67,
      "hit": false,
      "t": 227081.88318750227,
      "d": 81.72909375000745,
      "v": 112
    },
    {
      "midi": 55,
      "hit": false,
      "t": 227081.88318750227,
      "d": 86.53668750001816,
      "v": 112
    },
    {
      "midi": 58,
      "hit": false,
      "t": 227307.84009375228,
      "d": 52.8835312500014,
      "v": 112
    },
    {
      "midi": 63,
      "hit": false,
      "t": 227307.84009375228,
      "d": 52.8835312500014,
      "v": 112
    },
    {
      "midi": 67,
      "hit": false,
      "t": 227307.84009375228,
      "d": 52.8835312500014,
      "v": 112
    },
    {
      "midi": 34,
      "hit": false,
      "t": 227307.84009375228,
      "d": 76.92149999999674,
      "v": 112
    },
    {
      "midi": 55,
      "hit": false,
      "t": 227307.84009375228,
      "d": 100.95946874999208,
      "v": 112
    },
    {
      "midi": 58,
      "hit": false,
      "t": 227543.41218750097,
      "d": 33.65315624998766,
      "v": 112
    },
    {
      "midi": 63,
      "hit": false,
      "t": 227653.98684375096,
      "d": 52.8835312500014,
      "v": 112
    },
    {
      "midi": 70,
      "hit": false,
      "t": 227653.98684375096,
      "d": 72.11390625001513,
      "v": 112
    },
    {
      "midi": 63,
      "hit": false,
      "t": 227653.98684375227,
      "d": 43.26834375000908,
      "v": 112
    },
    {
      "midi": 34,
      "hit": false,
      "t": 227653.98684375227,
      "d": 76.92149999999674,
      "v": 112
    },
    {
      "midi": 58,
      "hit": false,
      "t": 227653.98684375227,
      "d": 81.72909375000745,
      "v": 112
    },
    {
      "midi": 55,
      "hit": false,
      "t": 227653.98684375227,
      "d": 86.53668750001816,
      "v": 112
    },
    {
      "midi": 67,
      "hit": false,
      "t": 227653.98684375227,
      "d": 86.53668750001816,
      "v": 112
    },
    {
      "midi": 58,
      "hit": false,
      "t": 227884.75134375098,
      "d": 38.46074999999837,
      "v": 112
    },
    {
      "midi": 34,
      "hit": false,
      "t": 227884.7513437523,
      "d": 52.8835312500014,
      "v": 112
    },
    {
      "midi": 34,
      "hit": false,
      "t": 228000.13359375228,
      "d": 91.34428124999977,
      "v": 112
    },
    {
      "midi": 58,
      "hit": false,
      "t": 228000.13359375228,
      "d": 110.5746562500135,
      "v": 112
    },
    {
      "midi": 65,
      "hit": false,
      "t": 228000.13359375228,
      "d": 115.38225000002421,
      "v": 112
    },
    {
      "midi": 65,
      "hit": false,
      "t": 228004.94118750098,
      "d": 57.69112500001211,
      "v": 112
    },
    {
      "midi": 70,
      "hit": false,
      "t": 228004.94118750098,
      "d": 57.69112500001211,
      "v": 112
    },
    {
      "midi": 62,
      "hit": false,
      "t": 228004.9411875023,
      "d": 105.7670625000028,
      "v": 112
    },
    {
      "midi": 53,
      "hit": false,
      "t": 228004.9411875023,
      "d": 129.80503125002724,
      "v": 112
    },
    {
      "midi": 70,
      "hit": false,
      "t": 228115.515843751,
      "d": 57.69112500001211,
      "v": 112
    },
    {
      "midi": 65,
      "hit": false,
      "t": 228115.515843751,
      "d": 62.49871875002282,
      "v": 112
    },
    {
      "midi": 58,
      "hit": false,
      "t": 228230.89809375102,
      "d": 38.46074999999837,
      "v": 112
    },
    {
      "midi": 65,
      "hit": false,
      "t": 228346.28034375102,
      "d": 48.07593749999069,
      "v": 112
    },
    {
      "midi": 70,
      "hit": false,
      "t": 228346.28034375102,
      "d": 67.30631250000442,
      "v": 112
    },
    {
      "midi": 34,
      "hit": false,
      "t": 228692.4270937523,
      "d": 72.11390624998603,
      "v": 112
    },
    {
      "midi": 36,
      "hit": false,
      "t": 228807.8093437523,
      "d": 86.53668749998906,
      "v": 112
    },
    {
      "midi": 38,
      "hit": false,
      "t": 228923.1915937523,
      "d": 76.92149999999674,
      "v": 112
    },
    {
      "midi": 57,
      "hit": false,
      "t": 229153.9560937523,
      "d": 76.92149999999674,
      "v": 112
    },
    {
      "midi": 69,
      "hit": false,
      "t": 229153.9560937523,
      "d": 76.92149999999674,
      "v": 112
    },
    {
      "midi": 62,
      "hit": false,
      "t": 229153.9560937523,
      "d": 81.72909375000745,
      "v": 112
    },
    {
      "midi": 65,
      "hit": false,
      "t": 229153.9560937523,
      "d": 81.72909375000745,
      "v": 112
    },
    {
      "midi": 38,
      "hit": false,
      "t": 229153.9560937523,
      "d": 86.53668750001816,
      "v": 112
    },
    {
      "midi": 62,
      "hit": false,
      "t": 229158.76368750102,
      "d": 57.69112500001211,
      "v": 112
    },
    {
      "midi": 69,
      "hit": false,
      "t": 229158.76368750102,
      "d": 62.49871875002282,
      "v": 112
    },
    {
      "midi": 38,
      "hit": false,
      "t": 229500.1028437523,
      "d": 91.34428124999977,
      "v": 112
    },
    {
      "midi": 69,
      "hit": false,
      "t": 229500.1028437523,
      "d": 91.34428124999977,
      "v": 112
    },
    {
      "midi": 57,
      "hit": false,
      "t": 229500.1028437523,
      "d": 96.15187500001048,
      "v": 112
    },
    {
      "midi": 62,
      "hit": false,
      "t": 229500.1028437523,
      "d": 96.15187500001048,
      "v": 112
    },
    {
      "midi": 65,
      "hit": false,
      "t": 229500.1028437523,
      "d": 96.15187500001048,
      "v": 112
    },
    {
      "midi": 62,
      "hit": false,
      "t": 229504.91043750104,
      "d": 57.69112500001211,
      "v": 112
    },
    {
      "midi": 69,
      "hit": false,
      "t": 229504.91043750104,
      "d": 72.11390625001513,
      "v": 112
    },
    {
      "midi": 57,
      "hit": false,
      "t": 229730.86734375104,
      "d": 57.69112500001211,
      "v": 112
    },
    {
      "midi": 38,
      "hit": false,
      "t": 229730.86734375232,
      "d": 57.69112500001211,
      "v": 112
    },
    {
      "midi": 62,
      "hit": false,
      "t": 229846.24959375235,
      "d": 105.7670625000028,
      "v": 112
    },
    {
      "midi": 57,
      "hit": false,
      "t": 229846.24959375235,
      "d": 110.5746562500135,
      "v": 112
    },
    {
      "midi": 38,
      "hit": false,
      "t": 229846.24959375235,
      "d": 139.42021875001956,
      "v": 112
    },
    {
      "midi": 69,
      "hit": false,
      "t": 229851.05718750105,
      "d": 57.69112500001211,
      "v": 112
    },
    {
      "midi": 65,
      "hit": false,
      "t": 229851.05718750236,
      "d": 91.34428124999977,
      "v": 112
    },
    {
      "midi": 69,
      "hit": false,
      "t": 229851.05718750236,
      "d": 105.7670625000028,
      "v": 112
    },
    {
      "midi": 62,
      "hit": false,
      "t": 229855.86478125106,
      "d": 52.8835312500014,
      "v": 112
    },
    {
      "midi": 62,
      "hit": false,
      "t": 229961.63184375106,
      "d": 72.11390624998603,
      "v": 112
    },
    {
      "midi": 69,
      "hit": false,
      "t": 229961.63184375106,
      "d": 72.11390624998603,
      "v": 112
    },
    {
      "midi": 57,
      "hit": false,
      "t": 230077.01409375106,
      "d": 57.69112500001211,
      "v": 112
    },
    {
      "midi": 62,
      "hit": false,
      "t": 230192.39634375108,
      "d": 62.498718749993714,
      "v": 112
    },
    {
      "midi": 69,
      "hit": false,
      "t": 230192.39634375108,
      "d": 76.92149999999674,
      "v": 112
    },
    {
      "midi": 57,
      "hit": false,
      "t": 230418.3532500011,
      "d": 67.30631250000442,
      "v": 112
    },
    {
      "midi": 38,
      "hit": false,
      "t": 230538.54309375238,
      "d": 62.498718749993714,
      "v": 112
    },
    {
      "midi": 62,
      "hit": false,
      "t": 230543.3506875011,
      "d": 57.69112500001211,
      "v": 112
    },
    {
      "midi": 69,
      "hit": false,
      "t": 230543.3506875011,
      "d": 62.49871875002282,
      "v": 112
    },
    {
      "midi": 38,
      "hit": false,
      "t": 230653.92534375237,
      "d": 86.53668749998906,
      "v": 112
    },
    {
      "midi": 65,
      "hit": false,
      "t": 230769.30759375237,
      "d": 76.92150000002584,
      "v": 112
    },
    {
      "midi": 57,
      "hit": false,
      "t": 230769.30759375237,
      "d": 96.15187500003958,
      "v": 112
    },
    {
      "midi": 36,
      "hit": false,
      "t": 230769.30759375237,
      "d": 110.57465625004261,
      "v": 112
    },
    {
      "midi": 69,
      "hit": false,
      "t": 230774.11518750238,
      "d": 67.30631250000442,
      "v": 112
    },
    {
      "midi": 60,
      "hit": false,
      "t": 230774.11518750238,
      "d": 76.92150000002584,
      "v": 112
    },
    {
      "midi": 65,
      "hit": false,
      "t": 231000.07209375242,
      "d": 48.07593750001979,
      "v": 112
    },
    {
      "midi": 60,
      "hit": false,
      "t": 231000.07209375242,
      "d": 52.8835312500305,
      "v": 112
    },
    {
      "midi": 57,
      "hit": false,
      "t": 231000.07209375242,
      "d": 81.72909375003655,
      "v": 112
    },
    {
      "midi": 36,
      "hit": false,
      "t": 231000.07209375242,
      "d": 124.99743750004563,
      "v": 112
    },
    {
      "midi": 60,
      "hit": false,
      "t": 231004.87968750112,
      "d": 62.498718749993714,
      "v": 112
    },
    {
      "midi": 69,
      "hit": false,
      "t": 231004.87968750112,
      "d": 62.498718749993714,
      "v": 112
    },
    {
      "midi": 69,
      "hit": false,
      "t": 231004.87968750243,
      "d": 48.07593750001979,
      "v": 112
    },
    {
      "midi": 65,
      "hit": false,
      "t": 231346.21884375246,
      "d": 76.92149999999674,
      "v": 112
    },
    {
      "midi": 60,
      "hit": false,
      "t": 231346.21884375246,
      "d": 86.53668749998906,
      "v": 112
    },
    {
      "midi": 36,
      "hit": false,
      "t": 231346.21884375246,
      "d": 91.34428124999977,
      "v": 112
    },
    {
      "midi": 69,
      "hit": false,
      "t": 231346.21884375246,
      "d": 105.7670625000028,
      "v": 112
    },
    {
      "midi": 60,
      "hit": false,
      "t": 231351.0264375011,
      "d": 62.498718749993714,
      "v": 112
    },
    {
      "midi": 69,
      "hit": false,
      "t": 231351.0264375011,
      "d": 62.498718749993714,
      "v": 112
    },
    {
      "midi": 57,
      "hit": false,
      "t": 231461.60109375246,
      "d": 67.30631250000442,
      "v": 112
    },
    {
      "midi": 57,
      "hit": false,
      "t": 231576.98334375108,
      "d": 67.30631250000442,
      "v": 112
    },
    {
      "midi": 36,
      "hit": false,
      "t": 231576.98334375245,
      "d": 52.8835312500014,
      "v": 112
    },
    {
      "midi": 57,
      "hit": false,
      "t": 231692.36559375245,
      "d": 91.34428124999977,
      "v": 112
    },
    {
      "midi": 36,
      "hit": false,
      "t": 231692.36559375245,
      "d": 124.99743750001653,
      "v": 112
    },
    {
      "midi": 69,
      "hit": false,
      "t": 231692.36559375245,
      "d": 144.22781250003027,
      "v": 112
    },
    {
      "midi": 60,
      "hit": false,
      "t": 231697.1731875011,
      "d": 24.037968749995343,
      "v": 112
    },
    {
      "midi": 69,
      "hit": false,
      "t": 231697.1731875011,
      "d": 67.30631250000442,
      "v": 112
    },
    {
      "midi": 65,
      "hit": false,
      "t": 231697.17318750246,
      "d": 100.95946874999208,
      "v": 112
    },
    {
      "midi": 60,
      "hit": false,
      "t": 231697.17318750246,
      "d": 120.18984375000582,
      "v": 112
    },
    {
      "midi": 60,
      "hit": false,
      "t": 231807.7478437511,
      "d": 62.498718749993714,
      "v": 112
    },
    {
      "midi": 69,
      "hit": false,
      "t": 231807.7478437511,
      "d": 62.498718749993714,
      "v": 112
    },
    {
      "midi": 57,
      "hit": false,
      "t": 231923.1300937511,
      "d": 43.26834375000908,
      "v": 112
    },
    {
      "midi": 60,
      "hit": false,
      "t": 232038.5123437511,
      "d": 72.11390624998603,
      "v": 112
    },
    {
      "midi": 69,
      "hit": false,
      "t": 232038.5123437511,
      "d": 72.11390624998603,
      "v": 112
    },
    {
      "midi": 57,
      "hit": false,
      "t": 232269.27684375108,
      "d": 52.8835312500014,
      "v": 112
    },
    {
      "midi": 36,
      "hit": false,
      "t": 232384.65909375247,
      "d": 76.92149999999674,
      "v": 112
    },
    {
      "midi": 60,
      "hit": false,
      "t": 232389.4666875011,
      "d": 72.11390624998603,
      "v": 112
    },
    {
      "midi": 69,
      "hit": false,
      "t": 232389.4666875011,
      "d": 91.34428124999977,
      "v": 112
    },
    {
      "midi": 38,
      "hit": false,
      "t": 232500.04134375247,
      "d": 72.11390624998603,
      "v": 112
    },
    {
      "midi": 39,
      "hit": false,
      "t": 232615.42359375246,
      "d": 91.34428125002887,
      "v": 112
    },
    {
      "midi": 70,
      "hit": false,
      "t": 232615.42359375246,
      "d": 96.15187500003958,
      "v": 112
    },
    {
      "midi": 67,
      "hit": false,
      "t": 232620.23118750248,
      "d": 48.07593749999069,
      "v": 112
    },
    {
      "midi": 58,
      "hit": false,
      "t": 232620.23118750248,
      "d": 76.92149999999674,
      "v": 112
    },
    {
      "midi": 63,
      "hit": false,
      "t": 232620.23118750248,
      "d": 81.72909375000745,
      "v": 112
    },
    {
      "midi": 58,
      "hit": false,
      "t": 232846.1880937525,
      "d": 52.8835312500014,
      "v": 112
    },
    {
      "midi": 39,
      "hit": false,
      "t": 232846.1880937525,
      "d": 76.92149999999674,
      "v": 112
    },
    {
      "midi": 63,
      "hit": false,
      "t": 232846.1880937525,
      "d": 100.95946874999208,
      "v": 112
    },
    {
      "midi": 67,
      "hit": false,
      "t": 232846.1880937525,
      "d": 100.95946874999208,
      "v": 112
    },
    {
      "midi": 70,
      "hit": false,
      "t": 232846.1880937525,
      "d": 100.95946874999208,
      "v": 112
    },
    {
      "midi": 63,
      "hit": false,
      "t": 232850.9956875011,
      "d": 48.07593749999069,
      "v": 112
    },
    {
      "midi": 70,
      "hit": false,
      "t": 232850.9956875011,
      "d": 67.30631250000442,
      "v": 112
    },
    {
      "midi": 58,
      "hit": false,
      "t": 233076.9525937511,
      "d": 62.498718749993714,
      "v": 112
    },
    {
      "midi": 58,
      "hit": false,
      "t": 233192.3348437525,
      "d": 81.72909375000745,
      "v": 112
    },
    {
      "midi": 63,
      "hit": false,
      "t": 233192.3348437525,
      "d": 86.53668750001816,
      "v": 112
    },
    {
      "midi": 67,
      "hit": false,
      "t": 233192.3348437525,
      "d": 86.53668750001816,
      "v": 112
    },
    {
      "midi": 70,
      "hit": false,
      "t": 233192.3348437525,
      "d": 86.53668750001816,
      "v": 112
    },
    {
      "midi": 39,
      "hit": false,
      "t": 233192.3348437525,
      "d": 96.15187500001048,
      "v": 112
    },
    {
      "midi": 63,
      "hit": false,
      "t": 233197.1424375011,
      "d": 52.8835312500014,
      "v": 112
    },
    {
      "midi": 70,
      "hit": false,
      "t": 233197.1424375011,
      "d": 67.30631250000442,
      "v": 112
    },
    {
      "midi": 58,
      "hit": false,
      "t": 233423.09934375112,
      "d": 43.26834375000908,
      "v": 112
    },
    {
      "midi": 39,
      "hit": false,
      "t": 233423.09934375252,
      "d": 62.498718749993714,
      "v": 112
    },
    {
      "midi": 58,
      "hit": false,
      "t": 233538.4815937525,
      "d": 86.53668750001816,
      "v": 112
    },
    {
      "midi": 63,
      "hit": false,
      "t": 233538.4815937525,
      "d": 100.95946875002119,
      "v": 112
    },
    {
      "midi": 39,
      "hit": false,
      "t": 233538.4815937525,
      "d": 124.99743750001653,
      "v": 112
    },
    {
      "midi": 63,
      "hit": false,
      "t": 233543.28918750113,
      "d": 52.8835312500014,
      "v": 112
    },
    {
      "midi": 70,
      "hit": false,
      "t": 233543.28918750113,
      "d": 52.8835312500014,
      "v": 112
    },
    {
      "midi": 70,
      "hit": false,
      "t": 233543.28918750252,
      "d": 76.92149999999674,
      "v": 112
    },
    {
      "midi": 67,
      "hit": false,
      "t": 233543.28918750252,
      "d": 96.15187500001048,
      "v": 112
    },
    {
      "midi": 63,
      "hit": false,
      "t": 233653.86384375114,
      "d": 62.498718749993714,
      "v": 112
    },
    {
      "midi": 70,
      "hit": false,
      "t": 233653.86384375114,
      "d": 62.498718749993714,
      "v": 112
    },
    {
      "midi": 58,
      "hit": false,
      "t": 233769.24609375114,
      "d": 43.26834375000908,
      "v": 112
    },
    {
      "midi": 63,
      "hit": false,
      "t": 233884.62834375113,
      "d": 57.69112500001211,
      "v": 112
    },
    {
      "midi": 70,
      "hit": false,
      "t": 233884.62834375113,
      "d": 76.92150000002584,
      "v": 112
    },
    {
      "midi": 58,
      "hit": false,
      "t": 234110.58525000117,
      "d": 43.26834375000908,
      "v": 112
    },
    {
      "midi": 63,
      "hit": false,
      "t": 234230.77509375117,
      "d": 72.11390624998603,
      "v": 112
    },
    {
      "midi": 70,
      "hit": false,
      "t": 234230.77509375117,
      "d": 72.11390624998603,
      "v": 112
    },
    {
      "midi": 39,
      "hit": false,
      "t": 234230.77509375254,
      "d": 48.07593749999069,
      "v": 112
    },
    {
      "midi": 39,
      "hit": false,
      "t": 234346.15734375254,
      "d": 72.11390624998603,
      "v": 112
    },
    {
      "midi": 34,
      "hit": false,
      "t": 234461.53959375253,
      "d": 3211.472625000024,
      "v": 112
    },
    {
      "midi": 70,
      "hit": false,
      "t": 234461.53959375253,
      "d": 3245.1257812500116,
      "v": 112
    },
    {
      "midi": 65,
      "hit": false,
      "t": 234466.34718750115,
      "d": 1562.4679687500175,
      "v": 112
    },
    {
      "midi": 70,
      "hit": false,
      "t": 234466.34718750115,
      "d": 1562.4679687500175,
      "v": 112
    },
    {
      "midi": 62,
      "hit": false,
      "t": 234466.34718750254,
      "d": 3278.7789374999993,
      "v": 112
    },
    {
      "midi": 65,
      "hit": false,
      "t": 234466.34718750254,
      "d": 3283.58653125001,
      "v": 112
    },
    {
      "midi": 58,
      "hit": false,
      "t": 234466.34718750254,
      "d": 3293.2017187500023,
      "v": 112
    },
    {
      "midi": 58,
      "hit": false,
      "t": 234471.15478125116,
      "d": 1543.2375937500037,
      "v": 112
    },
    {
      "midi": 65,
      "hit": false,
      "t": 236192.27334375115,
      "d": 76.92149999999674,
      "v": 112
    },
    {
      "midi": 70,
      "hit": false,
      "t": 236192.27334375115,
      "d": 76.92149999999674,
      "v": 112
    },
    {
      "midi": 58,
      "hit": false,
      "t": 236307.65559375114,
      "d": 76.92149999999674,
      "v": 112
    },
    {
      "midi": 70,
      "hit": false,
      "t": 236533.61250000115,
      "d": 72.11390625001513,
      "v": 112
    },
    {
      "midi": 65,
      "hit": false,
      "t": 236538.42009375116,
      "d": 67.30631250000442,
      "v": 112
    },
    {
      "midi": 65,
      "hit": false,
      "t": 236879.75925000117,
      "d": 57.69112500001211,
      "v": 112
    },
    {
      "midi": 70,
      "hit": false,
      "t": 236884.56684375118,
      "d": 52.8835312500014,
      "v": 112
    },
    {
      "midi": 58,
      "hit": false,
      "t": 237115.33134375117,
      "d": 62.498718749993714,
      "v": 112
    },
    {
      "midi": 65,
      "hit": false,
      "t": 237230.71359375116,
      "d": 48.07593749999069,
      "v": 112
    },
    {
      "midi": 70,
      "hit": false,
      "t": 237230.71359375116,
      "d": 48.07593749999069,
      "v": 112
    },
    {
      "midi": 65,
      "hit": false,
      "t": 237341.28825000115,
      "d": 62.49871875002282,
      "v": 112
    },
    {
      "midi": 70,
      "hit": false,
      "t": 237346.09584375116,
      "d": 57.69112500001211,
      "v": 112
    },
    {
      "midi": 58,
      "hit": false,
      "t": 237461.47809375118,
      "d": 43.26834375000908,
      "v": 112
    },
    {
      "midi": 70,
      "hit": false,
      "t": 237576.86034375118,
      "d": 62.498718749993714,
      "v": 112
    },
    {
      "midi": 65,
      "hit": false,
      "t": 237576.86034375118,
      "d": 76.92149999999674,
      "v": 112
    },
    {
      "midi": 58,
      "hit": false,
      "t": 237807.62484375117,
      "d": 52.8835312500014,
      "v": 112
    },
    {
      "midi": 65,
      "hit": false,
      "t": 237923.00709375116,
      "d": 62.498718749993714,
      "v": 112
    },
    {
      "midi": 70,
      "hit": false,
      "t": 237923.00709375116,
      "d": 62.498718749993714,
      "v": 112
    },
    {
      "midi": 41,
      "hit": false,
      "t": 238153.77159375255,
      "d": 216.3417187500163,
      "v": 112
    },
    {
      "midi": 69,
      "hit": false,
      "t": 238153.77159375255,
      "d": 413.45306250001886,
      "v": 112
    },
    {
      "midi": 60,
      "hit": false,
      "t": 238153.77159375255,
      "d": 427.8758437500219,
      "v": 112
    },
    {
      "midi": 60,
      "hit": false,
      "t": 238158.57918750116,
      "d": 485.5669687500049,
      "v": 112
    },
    {
      "midi": 57,
      "hit": false,
      "t": 238158.57918750256,
      "d": 394.2226875000051,
      "v": 112
    },
    {
      "midi": 65,
      "hit": false,
      "t": 238158.57918750256,
      "d": 399.03028125001583,
      "v": 112
    },
    {
      "midi": 53,
      "hit": false,
      "t": 238163.38678125117,
      "d": 451.9138124999881,
      "v": 112
    },
    {
      "midi": 65,
      "hit": false,
      "t": 238163.38678125117,
      "d": 480.7593749999942,
      "v": 112
    }
  ]
}