{
  "jsonPath": "Unknown/Unknown/Frank Sullivan & Jim Peterik/eye-of-the-tiger.json",
  "path": "Unknown\\Unknown\\Frank Sullivan & Jim Peterik\\Eye of the Tiger.mid",
  "name": "Eye of the Tiger",
  "difficulty": "Advanced",
  "bpm": 120,
  "notes": [
    {
      "midi": 63,
      "hit": false,
      "t": 0,
      "d": 500,
      "v": 100
    },
    {
      "midi": 67,
      "hit": false,
      "t": 0,
      "d": 500,
      "v": 100
    },
    {
      "midi": 36,
      "hit": false,
      "t": 0,
      "d": 500,
      "v": 100
    },
    {
      "midi": 48,
      "hit": false,
      "t": 500,
      "d": 500,
      "v": 100
    },
    {
      "midi": 63,
      "hit": false,
      "t": 1000,
      "d": 375,
      "v": 100
    },
    {
      "midi": 67,
      "hit": false,
      "t": 1000,
      "d": 375,
      "v": 100
    },
    {
      "midi": 36,
      "hit": false,
      "t": 1000,
      "d": 500,
      "v": 100
    },
    {
      "midi": 62,
      "hit": false,
      "t": 1375,
      "d": 375,
      "v": 100
    },
    {
      "midi": 65,
      "hit": false,
      "t": 1375,
      "d": 375,
      "v": 100
    },
    {
      "midi": 48,
      "hit": false,
      "t": 1500,
      "d": 500,
      "v": 100
    },
    {
      "midi": 63,
      "hit": false,
      "t": 1750,
      "d": 750,
      "v": 100
    },
    {
      "midi": 67,
      "hit": false,
      "t": 1750,
      "d": 750,
      "v": 100
    },
    {
      "midi": 36,
      "hit": false,
      "t": 2000,
      "d": 500,
      "v": 100
    },
    {
      "midi": 48,
      "hit": false,
      "t": 2500,
      "d": 500,
      "v": 100
    },
    {
      "midi": 63,
      "hit": false,
      "t": 3000,
      "d": 375,
      "v": 100
    },
    {
      "midi": 67,
      "hit": false,
      "t": 3000,
      "d": 375,
      "v": 100
    },
    {
      "midi": 36,
      "hit": false,
      "t": 3000,
      "d": 500,
      "v": 100
    },
    {
      "midi": 62,
      "hit": false,
      "t": 3375,
      "d": 375,
      "v": 100
    },
    {
      "midi": 65,
      "hit": false,
      "t": 3375,
      "d": 375,
      "v": 100
    },
    {
      "midi": 48,
      "hit": false,
      "t": 3500,
      "d": 500,
      "v": 100
    },
    {
      "midi": 63,
      "hit": false,
      "t": 3750,
      "d": 750,
      "v": 100
    },
    {
      "midi": 67,
      "hit": false,
      "t": 3750,
      "d": 750,
      "v": 100
    },
    {
      "midi": 36,
      "hit": false,
      "t": 4000,
      "d": 500,
      "v": 100
    },
    {
      "midi": 48,
      "hit": false,
      "t": 4500,
      "d": 500,
      "v": 100
    },
    {
      "midi": 63,
      "hit": false,
      "t": 5000,
      "d": 375,
      "v": 100
    },
    {
      "midi": 67,
      "hit": false,
      "t": 5000,
      "d": 375,
      "v": 100
    },
    {
      "midi": 36,
      "hit": false,
      "t": 5000,
      "d": 500,
      "v": 100
    },
    {
      "midi": 58,
      "hit": false,
      "t": 5375,
      "d": 375,
      "v": 100
    },
    {
      "midi": 62,
      "hit": false,
      "t": 5375,
      "d": 375,
      "v": 100
    },
    {
      "midi": 43,
      "hit": false,
      "t": 5500,
      "d": 500,
      "v": 100
    },
    {
      "midi": 60,
      "hit": false,
      "t": 5750,
      "d": 750,
      "v": 100
    },
    {
      "midi": 63,
      "hit": false,
      "t": 5750,
      "d": 750,
      "v": 100
    },
    {
      "midi": 44,
      "hit": false,
      "t": 6000,
      "d": 500,
      "v": 100
    },
    {
      "midi": 44,
      "hit": false,
      "t": 6500,
      "d": 500,
      "v": 100
    },
    {
      "midi": 44,
      "hit": false,
      "t": 7000,
      "d": 500,
      "v": 100
    },
    {
      "midi": 44,
      "hit": false,
      "t": 7500,
      "d": 500,
      "v": 100
    },
    {
      "midi": 36,
      "hit": false,
      "t": 8000,
      "d": 500,
      "v": 100
    },
    {
      "midi": 63,
      "hit": false,
      "t": 8500,
      "d": 250,
      "v": 100
    },
    {
      "midi": 67,
      "hit": false,
      "t": 8500,
      "d": 250,
      "v": 100
    },
    {
      "midi": 48,
      "hit": false,
      "t": 8500,
      "d": 500,
      "v": 100
    },
    {
      "midi": 70,
      "hit": false,
      "t": 8750,
      "d": 125,
      "v": 100
    },
    {
      "midi": 67,
      "hit": false,
      "t": 8875,
      "d": 625,
      "v": 100
    },
    {
      "midi": 36,
      "hit": false,
      "t": 9000,
      "d": 500,
      "v": 100
    },
    {
      "midi": 48,
      "hit": false,
      "t": 9500,
      "d": 500,
      "v": 100
    },
    {
      "midi": 65,
      "hit": false,
      "t": 10000,
      "d": 250,
      "v": 100
    },
    {
      "midi": 36,
      "hit": false,
      "t": 10000,
      "d": 500,
      "v": 100
    },
    {
      "midi": 63,
      "hit": false,
      "t": 10250,
      "d": 250,
      "v": 100
    },
    {
      "midi": 67,
      "hit": false,
      "t": 10500,
      "d": 250,
      "v": 100
    },
    {
      "midi": 48,
      "hit": false,
      "t": 10500,
      "d": 500,
      "v": 100
    },
    {
      "midi": 65,
      "hit": false,
      "t": 10750,
      "d": 500,
      "v": 100
    },
    {
      "midi": 36,
      "hit": false,
      "t": 11000,
      "d": 500,
      "v": 100
    },
    {
      "midi": 63,
      "hit": false,
      "t": 11250,
      "d": 750,
      "v": 100
    },
    {
      "midi": 48,
      "hit": false,
      "t": 11500,
      "d": 500,
      "v": 100
    },
    {
      "midi": 36,
      "hit": false,
      "t": 12000,
      "d": 500,
      "v": 100
    },
    {
      "midi": 62,
      "hit": false,
      "t": 12500,
      "d": 250,
      "v": 100
    },
    {
      "midi": 65,
      "hit": false,
      "t": 12500,
      "d": 250,
      "v": 100
    },
    {
      "midi": 48,
      "hit": false,
      "t": 12500,
      "d": 500,
      "v": 100
    },
    {
      "midi": 58,
      "hit": false,
      "t": 12750,
      "d": 250,
      "v": 100
    },
    {
      "midi": 62,
      "hit": false,
      "t": 12750,
      "d": 250,
      "v": 100
    },
    {
      "midi": 65,
      "hit": false,
      "t": 12750,
      "d": 250,
      "v": 100
    },
    {
      "midi": 58,
      "hit": false,
      "t": 13000,
      "d": 500,
      "v": 100
    },
    {
      "midi": 62,
      "hit": false,
      "t": 13000,
      "d": 500,
      "v": 100
    },
    {
      "midi": 65,
      "hit": false,
      "t": 13000,
      "d": 500,
      "v": 100
    },
    {
      "midi": 36,
      "hit": false,
      "t": 13000,
      "d": 500,
      "v": 100
    },
    {
      "midi": 58,
      "hit": false,
      "t": 13500,
      "d": 250,
      "v": 100
    },
    {
      "midi": 62,
      "hit": false,
      "t": 13500,
      "d": 250,
      "v": 100
    },
    {
      "midi": 65,
      "hit": false,
      "t": 13500,
      "d": 250,
      "v": 100
    },
    {
      "midi": 48,
      "hit": false,
      "t": 13500,
      "d": 500,
      "v": 100
    },
    {
      "midi": 58,
      "hit": false,
      "t": 13750,
      "d": 250,
      "v": 100
    },
    {
      "midi": 62,
      "hit": false,
      "t": 13750,
      "d": 250,
      "v": 100
    },
    {
      "midi": 67,
      "hit": false,
      "t": 13750,
      "d": 250,
      "v": 100
    },
    {
      "midi": 65,
      "hit": false,
      "t": 14000,
      "d": 500,
      "v": 100
    },
    {
      "midi": 60,
      "hit": false,
      "t": 14000,
      "d": 1000,
      "v": 100
    },
    {
      "midi": 36,
      "hit": false,
      "t": 14000,
      "d": 500,
      "v": 100
    },
    {
      "midi": 63,
      "hit": false,
      "t": 14500,
      "d": 500,
      "v": 100
    },
    {
      "midi": 48,
      "hit": false,
      "t": 14500,
      "d": 500,
      "v": 100
    },
    {
      "midi": 36,
      "hit": false,
      "t": 15000,
      "d": 500,
      "v": 100
    },
    {
      "midi": 48,
      "hit": false,
      "t": 15500,
      "d": 500,
      "v": 100
    },
    {
      "midi": 36,
      "hit": false,
      "t": 16000,
      "d": 500,
      "v": 100
    },
    {
      "midi": 63,
      "hit": false,
      "t": 16500,
      "d": 250,
      "v": 100
    },
    {
      "midi": 67,
      "hit": false,
      "t": 16500,
      "d": 250,
      "v": 100
    },
    {
      "midi": 48,
      "hit": false,
      "t": 16500,
      "d": 500,
      "v": 100
    },
    {
      "midi": 70,
      "hit": false,
      "t": 16750,
      "d": 125,
      "v": 100
    },
    {
      "midi": 72,
      "hit": false,
      "t": 16875,
      "d": 375,
      "v": 100
    },
    {
      "midi": 36,
      "hit": false,
      "t": 17000,
      "d": 500,
      "v": 100
    },
    {
      "midi": 67,
      "hit": false,
      "t": 17250,
      "d": 250,
      "v": 100
    },
    {
      "midi": 65,
      "hit": false,
      "t": 17500,
      "d": 250,
      "v": 100
    },
    {
      "midi": 48,
      "hit": false,
      "t": 17500,
      "d": 500,
      "v": 100
    },
    {
      "midi": 63,
      "hit": false,
      "t": 17750,
      "d": 250,
      "v": 100
    },
    {
      "midi": 67,
      "hit": false,
      "t": 18000,
      "d": 250,
      "v": 100
    },
    {
      "midi": 56,
      "hit": false,
      "t": 18000,
      "d": 1000,
      "v": 100
    },
    {
      "midi": 36,
      "hit": false,
      "t": 18000,
      "d": 500,
      "v": 100
    },
    {
      "midi": 65,
      "hit": false,
      "t": 18250,
      "d": 250,
      "v": 100
    },
    {
      "midi": 65,
      "hit": false,
      "t": 18500,
      "d": 500,
      "v": 100
    },
    {
      "midi": 48,
      "hit": false,
      "t": 18500,
      "d": 500,
      "v": 100
    },
    {
      "midi": 63,
      "hit": false,
      "t": 19000,
      "d": 500,
      "v": 100
    },
    {
      "midi": 55,
      "hit": false,
      "t": 19000,
      "d": 1000,
      "v": 100
    },
    {
      "midi": 36,
      "hit": false,
      "t": 19000,
      "d": 500,
      "v": 100
    },
    {
      "midi": 60,
      "hit": false,
      "t": 19500,
      "d": 250,
      "v": 100
    },
    {
      "midi": 48,
      "hit": false,
      "t": 19500,
      "d": 500,
      "v": 100
    },
    {
      "midi": 63,
      "hit": false,
      "t": 19750,
      "d": 250,
      "v": 100
    },
    {
      "midi": 65,
      "hit": false,
      "t": 20000,
      "d": 500,
      "v": 100
    },
    {
      "midi": 62,
      "hit": false,
      "t": 20000,
      "d": 1500,
      "v": 100
    },
    {
      "midi": 36,
      "hit": false,
      "t": 20000,
      "d": 500,
      "v": 100
    },
    {
      "midi": 65,
      "hit": false,
      "t": 20500,
      "d": 250,
      "v": 100
    },
    {
      "midi": 48,
      "hit": false,
      "t": 20500,
      "d": 500,
      "v": 100
    },
    {
      "midi": 65,
      "hit": false,
      "t": 20750,
      "d": 250,
      "v": 100
    },
    {
      "midi": 65,
      "hit": false,
      "t": 21000,
      "d": 500,
      "v": 100
    },
    {
      "midi": 36,
      "hit": false,
      "t": 21000,
      "d": 500,
      "v": 100
    },
    {
      "midi": 65,
      "hit": false,
      "t": 21500,
      "d": 250,
      "v": 100
    },
    {
      "midi": 48,
      "hit": false,
      "t": 21500,
      "d": 500,
      "v": 100
    },
    {
      "midi": 63,
      "hit": false,
      "t": 21750,
      "d": 125,
      "v": 100
    },
    {
      "midi": 63,
      "hit": false,
      "t": 21875,
      "d": 2125,
      "v": 100
    },
    {
      "midi": 67,
      "hit": false,
      "t": 21875,
      "d": 2125,
      "v": 100
    },
    {
      "midi": 36,
      "hit": false,
      "t": 22000,
      "d": 500,
      "v": 100
    },
    {
      "midi": 48,
      "hit": false,
      "t": 22500,
      "d": 500,
      "v": 100
    },
    {
      "midi": 36,
      "hit": false,
      "t": 23000,
      "d": 500,
      "v": 100
    },
    {
      "midi": 48,
      "hit": false,
      "t": 23500,
      "d": 500,
      "v": 100
    },
    {
      "midi": 36,
      "hit": false,
      "t": 24000,
      "d": 500,
      "v": 100
    },
    {
      "midi": 63,
      "hit": false,
      "t": 24250,
      "d": 250,
      "v": 100
    },
    {
      "midi": 67,
      "hit": false,
      "t": 24250,
      "d": 250,
      "v": 100
    },
    {
      "midi": 63,
      "hit": false,
      "t": 24500,
      "d": 250,
      "v": 100
    },
    {
      "midi": 67,
      "hit": false,
      "t": 24500,
      "d": 250,
      "v": 100
    },
    {
      "midi": 48,
      "hit": false,
      "t": 24500,
      "d": 500,
      "v": 100
    },
    {
      "midi": 70,
      "hit": false,
      "t": 24750,
      "d": 125,
      "v": 100
    },
    {
      "midi": 67,
      "hit": false,
      "t": 24875,
      "d": 625,
      "v": 100
    },
    {
      "midi": 36,
      "hit": false,
      "t": 25000,
      "d": 500,
      "v": 100
    },
    {
      "midi": 48,
      "hit": false,
      "t": 25500,
      "d": 500,
      "v": 100
    },
    {
      "midi": 63,
      "hit": false,
      "t": 25750,
      "d": 250,
      "v": 100
    },
    {
      "midi": 65,
      "hit": false,
      "t": 26000,
      "d": 250,
      "v": 100
    },
    {
      "midi": 60,
      "hit": false,
      "t": 26000,
      "d": 2000,
      "v": 100
    },
    {
      "midi": 32,
      "hit": false,
      "t": 26000,
      "d": 500,
      "v": 100
    },
    {
      "midi": 63,
      "hit": false,
      "t": 26250,
      "d": 250,
      "v": 100
    },
    {
      "midi": 67,
      "hit": false,
      "t": 26500,
      "d": 250,
      "v": 100
    },
    {
      "midi": 44,
      "hit": false,
      "t": 26500,
      "d": 500,
      "v": 100
    },
    {
      "midi": 65,
      "hit": false,
      "t": 26750,
      "d": 250,
      "v": 100
    },
    {
      "midi": 63,
      "hit": false,
      "t": 27000,
      "d": 1000,
      "v": 100
    },
    {
      "midi": 32,
      "hit": false,
      "t": 27000,
      "d": 500,
      "v": 100
    },
    {
      "midi": 44,
      "hit": false,
      "t": 27500,
      "d": 500,
      "v": 100
    },
    {
      "midi": 31,
      "hit": false,
      "t": 28000,
      "d": 500,
      "v": 100
    },
    {
      "midi": 62,
      "hit": false,
      "t": 28250,
      "d": 250,
      "v": 100
    },
    {
      "midi": 65,
      "hit": false,
      "t": 28250,
      "d": 250,
      "v": 100
    },
    {
      "midi": 62,
      "hit": false,
      "t": 28500,
      "d": 250,
      "v": 100
    },
    {
      "midi": 65,
      "hit": false,
      "t": 28500,
      "d": 250,
      "v": 100
    },
    {
      "midi": 46,
      "hit": false,
      "t": 28500,
      "d": 500,
      "v": 100
    },
    {
      "midi": 62,
      "hit": false,
      "t": 28750,
      "d": 250,
      "v": 100
    },
    {
      "midi": 65,
      "hit": false,
      "t": 28750,
      "d": 250,
      "v": 100
    },
    {
      "midi": 62,
      "hit": false,
      "t": 29000,
      "d": 250,
      "v": 100
    },
    {
      "midi": 65,
      "hit": false,
      "t": 29000,
      "d": 250,
      "v": 100
    },
    {
      "midi": 31,
      "hit": false,
      "t": 29000,
      "d": 500,
      "v": 100
    },
    {
      "midi": 63,
      "hit": false,
      "t": 29250,
      "d": 250,
      "v": 100
    },
    {
      "midi": 67,
      "hit": false,
      "t": 29500,
      "d": 250,
      "v": 100
    },
    {
      "midi": 46,
      "hit": false,
      "t": 29500,
      "d": 500,
      "v": 100
    },
    {
      "midi": 65,
      "hit": false,
      "t": 29750,
      "d": 500,
      "v": 100
    },
    {
      "midi": 55,
      "hit": false,
      "t": 30000,
      "d": 2000,
      "v": 100
    },
    {
      "midi": 36,
      "hit": false,
      "t": 30000,
      "d": 500,
      "v": 100
    },
    {
      "midi": 63,
      "hit": false,
      "t": 30250,
      "d": 750,
      "v": 100
    },
    {
      "midi": 48,
      "hit": false,
      "t": 30500,
      "d": 500,
      "v": 100
    },
    {
      "midi": 36,
      "hit": false,
      "t": 31000,
      "d": 500,
      "v": 100
    },
    {
      "midi": 48,
      "hit": false,
      "t": 31500,
      "d": 500,
      "v": 100
    },
    {
      "midi": 36,
      "hit": false,
      "t": 32000,
      "d": 500,
      "v": 100
    },
    {
      "midi": 63,
      "hit": false,
      "t": 32250,
      "d": 250,
      "v": 100
    },
    {
      "midi": 67,
      "hit": false,
      "t": 32250,
      "d": 250,
      "v": 100
    },
    {
      "midi": 63,
      "hit": false,
      "t": 32500,
      "d": 250,
      "v": 100
    },
    {
      "midi": 67,
      "hit": false,
      "t": 32500,
      "d": 250,
      "v": 100
    },
    {
      "midi": 48,
      "hit": false,
      "t": 32500,
      "d": 500,
      "v": 100
    },
    {
      "midi": 70,
      "hit": false,
      "t": 32750,
      "d": 125,
      "v": 100
    },
    {
      "midi": 72,
      "hit": false,
      "t": 32875,
      "d": 375,
      "v": 100
    },
    {
      "midi": 36,
      "hit": false,
      "t": 33000,
      "d": 500,
      "v": 100
    },
    {
      "midi": 65,
      "hit": false,
      "t": 33500,
      "d": 250,
      "v": 100
    },
    {
      "midi": 48,
      "hit": false,
      "t": 33500,
      "d": 500,
      "v": 100
    },
    {
      "midi": 63,
      "hit": false,
      "t": 33750,
      "d": 250,
      "v": 100
    },
    {
      "midi": 67,
      "hit": false,
      "t": 34000,
      "d": 250,
      "v": 100
    },
    {
      "midi": 60,
      "hit": false,
      "t": 34000,
      "d": 1500,
      "v": 100
    },
    {
      "midi": 32,
      "hit": false,
      "t": 34000,
      "d": 500,
      "v": 100
    },
    {
      "midi": 65,
      "hit": false,
      "t": 34250,
      "d": 250,
      "v": 100
    },
    {
      "midi": 65,
      "hit": false,
      "t": 34500,
      "d": 500,
      "v": 100
    },
    {
      "midi": 44,
      "hit": false,
      "t": 34500,
      "d": 500,
      "v": 100
    },
    {
      "midi": 63,
      "hit": false,
      "t": 35000,
      "d": 500,
      "v": 100
    },
    {
      "midi": 32,
      "hit": false,
      "t": 35000,
      "d": 500,
      "v": 100
    },
    {
      "midi": 60,
      "hit": false,
      "t": 35500,
      "d": 250,
      "v": 100
    },
    {
      "midi": 44,
      "hit": false,
      "t": 35500,
      "d": 500,
      "v": 100
    },
    {
      "midi": 63,
      "hit": false,
      "t": 35750,
      "d": 250,
      "v": 100
    },
    {
      "midi": 65,
      "hit": false,
      "t": 36000,
      "d": 500,
      "v": 100
    },
    {
      "midi": 62,
      "hit": false,
      "t": 36000,
      "d": 1500,
      "v": 100
    },
    {
      "midi": 31,
      "hit": false,
      "t": 36000,
      "d": 500,
      "v": 100
    },
    {
      "midi": 65,
      "hit": false,
      "t": 36500,
      "d": 250,
      "v": 100
    },
    {
      "midi": 46,
      "hit": false,
      "t": 36500,
      "d": 500,
      "v": 100
    },
    {
      "midi": 65,
      "hit": false,
      "t": 36750,
      "d": 250,
      "v": 100
    },
    {
      "midi": 65,
      "hit": false,
      "t": 37000,
      "d": 500,
      "v": 100
    },
    {
      "midi": 31,
      "hit": false,
      "t": 37000,
      "d": 500,
      "v": 100
    },
    {
      "midi": 65,
      "hit": false,
      "t": 37500,
      "d": 250,
      "v": 100
    },
    {
      "midi": 46,
      "hit": false,
      "t": 37500,
      "d": 500,
      "v": 100
    },
    {
      "midi": 63,
      "hit": false,
      "t": 37750,
      "d": 125,
      "v": 100
    },
    {
      "midi": 63,
      "hit": false,
      "t": 37875,
      "d": 1375,
      "v": 100
    },
    {
      "midi": 67,
      "hit": false,
      "t": 37875,
      "d": 1375,
      "v": 100
    },
    {
      "midi": 36,
      "hit": false,
      "t": 38000,
      "d": 500,
      "v": 100
    },
    {
      "midi": 48,
      "hit": false,
      "t": 38500,
      "d": 500,
      "v": 100
    },
    {
      "midi": 36,
      "hit": false,
      "t": 39000,
      "d": 500,
      "v": 100
    },
    {
      "midi": 65,
      "hit": false,
      "t": 39250,
      "d": 500,
      "v": 100
    },
    {
      "midi": 48,
      "hit": false,
      "t": 39500,
      "d": 500,
      "v": 100
    },
    {
      "midi": 67,
      "hit": false,
      "t": 39750,
      "d": 250,
      "v": 100
    },
    {
      "midi": 41,
      "hit": false,
      "t": 40000,
      "d": 500,
      "v": 100
    },
    {
      "midi": 60,
      "hit": false,
      "t": 40250,
      "d": 250,
      "v": 100
    },
    {
      "midi": 68,
      "hit": false,
      "t": 40250,
      "d": 250,
      "v": 100
    },
    {
      "midi": 60,
      "hit": false,
      "t": 40500,
      "d": 250,
      "v": 100
    },
    {
      "midi": 68,
      "hit": false,
      "t": 40500,
      "d": 250,
      "v": 100
    },
    {
      "midi": 53,
      "hit": false,
      "t": 40500,
      "d": 500,
      "v": 100
    },
    {
      "midi": 60,
      "hit": false,
      "t": 40750,
      "d": 125,
      "v": 100
    },
    {
      "midi": 68,
      "hit": false,
      "t": 40750,
      "d": 125,
      "v": 100
    },
    {
      "midi": 60,
      "hit": false,
      "t": 40875,
      "d": 375,
      "v": 100
    },
    {
      "midi": 68,
      "hit": false,
      "t": 40875,
      "d": 375,
      "v": 100
    },
    {
      "midi": 41,
      "hit": false,
      "t": 41000,
      "d": 500,
      "v": 100
    },
    {
      "midi": 67,
      "hit": false,
      "t": 41250,
      "d": 250,
      "v": 100
    },
    {
      "midi": 65,
      "hit": false,
      "t": 41500,
      "d": 250,
      "v": 100
    },
    {
      "midi": 53,
      "hit": false,
      "t": 41500,
      "d": 500,
      "v": 100
    },
    {
      "midi": 63,
      "hit": false,
      "t": 41750,
      "d": 250,
      "v": 100
    },
    {
      "midi": 63,
      "hit": false,
      "t": 42000,
      "d": 250,
      "v": 100
    },
    {
      "midi": 55,
      "hit": false,
      "t": 42000,
      "d": 750,
      "v": 100
    },
    {
      "midi": 39,
      "hit": false,
      "t": 42000,
      "d": 500,
      "v": 100
    },
    {
      "midi": 65,
      "hit": false,
      "t": 42250,
      "d": 250,
      "v": 100
    },
    {
      "midi": 67,
      "hit": false,
      "t": 42500,
      "d": 250,
      "v": 100
    },
    {
      "midi": 39,
      "hit": false,
      "t": 42500,
      "d": 500,
      "v": 100
    },
    {
      "midi": 65,
      "hit": false,
      "t": 42750,
      "d": 250,
      "v": 100
    },
    {
      "midi": 58,
      "hit": false,
      "t": 42750,
      "d": 250,
      "v": 100
    },
    {
      "midi": 46,
      "hit": false,
      "t": 43000,
      "d": 500,
      "v": 100
    },
    {
      "midi": 65,
      "hit": false,
      "t": 43250,
      "d": 500,
      "v": 100
    },
    {
      "midi": 48,
      "hit": false,
      "t": 43500,
      "d": 500,
      "v": 100
    },
    {
      "midi": 67,
      "hit": false,
      "t": 43750,
      "d": 250,
      "v": 100
    },
    {
      "midi": 60,
      "hit": false,
      "t": 44000,
      "d": 250,
      "v": 100
    },
    {
      "midi": 68,
      "hit": false,
      "t": 44000,
      "d": 250,
      "v": 100
    },
    {
      "midi": 41,
      "hit": false,
      "t": 44000,
      "d": 500,
      "v": 100
    },
    {
      "midi": 60,
      "hit": false,
      "t": 44500,
      "d": 250,
      "v": 100
    },
    {
      "midi": 68,
      "hit": false,
      "t": 44500,
      "d": 250,
      "v": 100
    },
    {
      "midi": 53,
      "hit": false,
      "t": 44500,
      "d": 500,
      "v": 100
    },
    {
      "midi": 60,
      "hit": false,
      "t": 44750,
      "d": 250,
      "v": 100
    },
    {
      "midi": 68,
      "hit": false,
      "t": 44750,
      "d": 250,
      "v": 100
    },
    {
      "midi": 60,
      "hit": false,
      "t": 45000,
      "d": 250,
      "v": 100
    },
    {
      "midi": 68,
      "hit": false,
      "t": 45000,
      "d": 250,
      "v": 100
    },
    {
      "midi": 41,
      "hit": false,
      "t": 45000,
      "d": 500,
      "v": 100
    },
    {
      "midi": 67,
      "hit": false,
      "t": 45250,
      "d": 250,
      "v": 100
    },
    {
      "midi": 65,
      "hit": false,
      "t": 45500,
      "d": 250,
      "v": 100
    },
    {
      "midi": 53,
      "hit": false,
      "t": 45500,
      "d": 500,
      "v": 100
    },
    {
      "midi": 63,
      "hit": false,
      "t": 45750,
      "d": 250,
      "v": 100
    },
    {
      "midi": 63,
      "hit": false,
      "t": 46000,
      "d": 250,
      "v": 100
    },
    {
      "midi": 67,
      "hit": false,
      "t": 46000,
      "d": 250,
      "v": 100
    },
    {
      "midi": 48,
      "hit": false,
      "t": 46000,
      "d": 500,
      "v": 100
    },
    {
      "midi": 65,
      "hit": false,
      "t": 46250,
      "d": 250,
      "v": 100
    },
    {
      "midi": 58,
      "hit": false,
      "t": 46500,
      "d": 500,
      "v": 100
    },
    {
      "midi": 62,
      "hit": false,
      "t": 46500,
      "d": 500,
      "v": 100
    },
    {
      "midi": 65,
      "hit": false,
      "t": 46500,
      "d": 500,
      "v": 100
    },
    {
      "midi": 46,
      "hit": false,
      "t": 46500,
      "d": 500,
      "v": 100
    },
    {
      "midi": 46,
      "hit": false,
      "t": 47000,
      "d": 500,
      "v": 100
    },
    {
      "midi": 65,
      "hit": false,
      "t": 47250,
      "d": 500,
      "v": 100
    },
    {
      "midi": 46,
      "hit": false,
      "t": 47500,
      "d": 500,
      "v": 100
    },
    {
      "midi": 67,
      "hit": false,
      "t": 47750,
      "d": 250,
      "v": 100
    },
    {
      "midi": 60,
      "hit": false,
      "t": 48000,
      "d": 250,
      "v": 100
    },
    {
      "midi": 68,
      "hit": false,
      "t": 48000,
      "d": 250,
      "v": 100
    },
    {
      "midi": 41,
      "hit": false,
      "t": 48000,
      "d": 500,
      "v": 100
    },
    {
      "midi": 60,
      "hit": false,
      "t": 48500,
      "d": 250,
      "v": 100
    },
    {
      "midi": 68,
      "hit": false,
      "t": 48500,
      "d": 250,
      "v": 100
    },
    {
      "midi": 53,
      "hit": false,
      "t": 48500,
      "d": 500,
      "v": 100
    },
    {
      "midi": 60,
      "hit": false,
      "t": 48750,
      "d": 250,
      "v": 100
    },
    {
      "midi": 68,
      "hit": false,
      "t": 48750,
      "d": 250,
      "v": 100
    },
    {
      "midi": 60,
      "hit": false,
      "t": 49000,
      "d": 250,
      "v": 100
    },
    {
      "midi": 68,
      "hit": false,
      "t": 49000,
      "d": 250,
      "v": 100
    },
    {
      "midi": 41,
      "hit": false,
      "t": 49000,
      "d": 500,
      "v": 100
    },
    {
      "midi": 67,
      "hit": false,
      "t": 49250,
      "d": 250,
      "v": 100
    },
    {
      "midi": 65,
      "hit": false,
      "t": 49500,
      "d": 250,
      "v": 100
    },
    {
      "midi": 53,
      "hit": false,
      "t": 49500,
      "d": 500,
      "v": 100
    },
    {
      "midi": 63,
      "hit": false,
      "t": 49750,
      "d": 250,
      "v": 100
    },
    {
      "midi": 63,
      "hit": false,
      "t": 50000,
      "d": 250,
      "v": 100
    },
    {
      "midi": 58,
      "hit": false,
      "t": 50000,
      "d": 750,
      "v": 100
    },
    {
      "midi": 43,
      "hit": false,
      "t": 50000,
      "d": 500,
      "v": 100
    },
    {
      "midi": 65,
      "hit": false,
      "t": 50250,
      "d": 250,
      "v": 100
    },
    {
      "midi": 67,
      "hit": false,
      "t": 50500,
      "d": 250,
      "v": 100
    },
    {
      "midi": 43,
      "hit": false,
      "t": 50500,
      "d": 500,
      "v": 100
    },
    {
      "midi": 65,
      "hit": false,
      "t": 50750,
      "d": 250,
      "v": 100
    },
    {
      "midi": 58,
      "hit": false,
      "t": 50750,
      "d": 250,
      "v": 100
    },
    {
      "midi": 62,
      "hit": false,
      "t": 50750,
      "d": 250,
      "v": 100
    },
    {
      "midi": 46,
      "hit": false,
      "t": 51000,
      "d": 500,
      "v": 100
    },
    {
      "midi": 65,
      "hit": false,
      "t": 51250,
      "d": 500,
      "v": 100
    },
    {
      "midi": 48,
      "hit": false,
      "t": 51500,
      "d": 500,
      "v": 100
    },
    {
      "midi": 67,
      "hit": false,
      "t": 51750,
      "d": 250,
      "v": 100
    },
    {
      "midi": 68,
      "hit": false,
      "t": 52000,
      "d": 333.33333333333576,
      "v": 100
    },
    {
      "midi": 60,
      "hit": false,
      "t": 52000,
      "d": 1000,
      "v": 100
    },
    {
      "midi": 41,
      "hit": false,
      "t": 52000,
      "d": 500,
      "v": 100
    },
    {
      "midi": 67,
      "hit": false,
      "t": 52333.333333333336,
      "d": 333.33333333333576,
      "v": 100
    },
    {
      "midi": 41,
      "hit": false,
      "t": 52500,
      "d": 500,
      "v": 100
    },
    {
      "midi": 68,
      "hit": false,
      "t": 52666.66666666667,
      "d": 333.33333333333576,
      "v": 100
    },
    {
      "midi": 63,
      "hit": false,
      "t": 53000,
      "d": 1000,
      "v": 100
    },
    {
      "midi": 39,
      "hit": false,
      "t": 53000,
      "d": 500,
      "v": 100
    },
    {
      "midi": 70,
      "hit": false,
      "t": 53000.00000000001,
      "d": 333.33333333333576,
      "v": 100
    },
    {
      "midi": 68,
      "hit": false,
      "t": 53333.33333333334,
      "d": 333.33333333333576,
      "v": 100
    },
    {
      "midi": 39,
      "hit": false,
      "t": 53500,
      "d": 500,
      "v": 100
    },
    {
      "midi": 72,
      "hit": false,
      "t": 53666.66666666668,
      "d": 333.33333333333576,
      "v": 100
    },
    {
      "midi": 44,
      "hit": false,
      "t": 54000,
      "d": 1500,
      "v": 100
    },
    {
      "midi": 63,
      "hit": false,
      "t": 54000.000000000015,
      "d": 1500,
      "v": 100
    },
    {
      "midi": 72,
      "hit": false,
      "t": 54000.000000000015,
      "d": 1500,
      "v": 100
    },
    {
      "midi": 65,
      "hit": false,
      "t": 55500.000000000015,
      "d": 375,
      "v": 100
    },
    {
      "midi": 63,
      "hit": false,
      "t": 55875.000000000015,
      "d": 125,
      "v": 100
    },
    {
      "midi": 36,
      "hit": false,
      "t": 56000,
      "d": 500,
      "v": 100
    },
    {
      "midi": 65,
      "hit": false,
      "t": 56000.000000000015,
      "d": 250,
      "v": 100
    },
    {
      "midi": 63,
      "hit": false,
      "t": 56250.000000000015,
      "d": 250,
      "v": 100
    },
    {
      "midi": 48,
      "hit": false,
      "t": 56500,
      "d": 500,
      "v": 100
    },
    {
      "midi": 63,
      "hit": false,
      "t": 56500.000000000015,
      "d": 500,
      "v": 100
    },
    {
      "midi": 36,
      "hit": false,
      "t": 57000,
      "d": 500,
      "v": 100
    },
    {
      "midi": 60,
      "hit": false,
      "t": 57000.000000000015,
      "d": 375,
      "v": 100
    },
    {
      "midi": 63,
      "hit": false,
      "t": 57000.000000000015,
      "d": 375,
      "v": 100
    },
    {
      "midi": 67,
      "hit": false,
      "t": 57000.000000000015,
      "d": 375,
      "v": 100
    },
    {
      "midi": 58,
      "hit": false,
      "t": 57375.000000000015,
      "d": 375,
      "v": 100
    },
    {
      "midi": 62,
      "hit": false,
      "t": 57375.000000000015,
      "d": 375,
      "v": 100
    },
    {
      "midi": 65,
      "hit": false,
      "t": 57375.000000000015,
      "d": 375,
      "v": 100
    },
    {
      "midi": 48,
      "hit": false,
      "t": 57500,
      "d": 500,
      "v": 100
    },
    {
      "midi": 60,
      "hit": false,
      "t": 57750.000000000015,
      "d": 750,
      "v": 100
    },
    {
      "midi": 63,
      "hit": false,
      "t": 57750.000000000015,
      "d": 750,
      "v": 100
    },
    {
      "midi": 67,
      "hit": false,
      "t": 57750.000000000015,
      "d": 750,
      "v": 100
    },
    {
      "midi": 36,
      "hit": false,
      "t": 58000,
      "d": 500,
      "v": 100
    },
    {
      "midi": 48,
      "hit": false,
      "t": 58500,
      "d": 500,
      "v": 100
    },
    {
      "midi": 36,
      "hit": false,
      "t": 59000,
      "d": 500,
      "v": 100
    },
    {
      "midi": 60,
      "hit": false,
      "t": 59000.000000000015,
      "d": 375,
      "v": 100
    },
    {
      "midi": 63,
      "hit": false,
      "t": 59000.000000000015,
      "d": 375,
      "v": 100
    },
    {
      "midi": 67,
      "hit": false,
      "t": 59000.000000000015,
      "d": 375,
      "v": 100
    },
    {
      "midi": 58,
      "hit": false,
      "t": 59375.000000000015,
      "d": 375,
      "v": 100
    },
    {
      "midi": 62,
      "hit": false,
      "t": 59375.000000000015,
      "d": 375,
      "v": 100
    },
    {
      "midi": 65,
      "hit": false,
      "t": 59375.000000000015,
      "d": 375,
      "v": 100
    },
    {
      "midi": 48,
      "hit": false,
      "t": 59500,
      "d": 500,
      "v": 100
    },
    {
      "midi": 60,
      "hit": false,
      "t": 59750.000000000015,
      "d": 750,
      "v": 100
    },
    {
      "midi": 63,
      "hit": false,
      "t": 59750.000000000015,
      "d": 750,
      "v": 100
    },
    {
      "midi": 67,
      "hit": false,
      "t": 59750.000000000015,
      "d": 750,
      "v": 100
    },
    {
      "midi": 36,
      "hit": false,
      "t": 60000,
      "d": 500,
      "v": 100
    },
    {
      "midi": 48,
      "hit": false,
      "t": 60500,
      "d": 500,
      "v": 100
    },
    {
      "midi": 36,
      "hit": false,
      "t": 61000,
      "d": 500,
      "v": 100
    },
    {
      "midi": 60,
      "hit": false,
      "t": 61000.000000000015,
      "d": 375,
      "v": 100
    },
    {
      "midi": 63,
      "hit": false,
      "t": 61000.000000000015,
      "d": 375,
      "v": 100
    },
    {
      "midi": 67,
      "hit": false,
      "t": 61000.000000000015,
      "d": 375,
      "v": 100
    },
    {
      "midi": 55,
      "hit": false,
      "t": 61375.000000000015,
      "d": 375,
      "v": 100
    },
    {
      "midi": 58,
      "hit": false,
      "t": 61375.000000000015,
      "d": 375,
      "v": 100
    },
    {
      "midi": 62,
      "hit": false,
      "t": 61375.000000000015,
      "d": 375,
      "v": 100
    },
    {
      "midi": 43,
      "hit": false,
      "t": 61500,
      "d": 500,
      "v": 100
    },
    {
      "midi": 56,
      "hit": false,
      "t": 61750.000000000015,
      "d": 1000,
      "v": 100
    },
    {
      "midi": 59,
      "hit": false,
      "t": 61750.000000000015,
      "d": 1000,
      "v": 100
    },
    {
      "midi": 63,
      "hit": false,
      "t": 61750.000000000015,
      "d": 1000,
      "v": 100
    },
    {
      "midi": 44,
      "hit": false,
      "t": 62000,
      "d": 500,
      "v": 100
    },
    {
      "midi": 44,
      "hit": false,
      "t": 62500,
      "d": 500,
      "v": 100
    },
    {
      "midi": 60,
      "hit": false,
      "t": 62750.000000000015,
      "d": 250,
      "v": 100
    },
    {
      "midi": 44,
      "hit": false,
      "t": 63000,
      "d": 500,
      "v": 100
    },
    {
      "midi": 67,
      "hit": false,
      "t": 63000.000000000015,
      "d": 250,
      "v": 100
    },
    {
      "midi": 65,
      "hit": false,
      "t": 63250.000000000015,
      "d": 250,
      "v": 100
    },
    {
      "midi": 44,
      "hit": false,
      "t": 63500,
      "d": 500,
      "v": 100
    },
    {
      "midi": 63,
      "hit": false,
      "t": 63500.000000000015,
      "d": 250,
      "v": 100
    },
    {
      "midi": 65,
      "hit": false,
      "t": 63750.000000000015,
      "d": 500,
      "v": 100
    },
    {
      "midi": 36,
      "hit": false,
      "t": 64000,
      "d": 500,
      "v": 100
    },
    {
      "midi": 63,
      "hit": false,
      "t": 64250.000000000015,
      "d": 250,
      "v": 100
    },
    {
      "midi": 48,
      "hit": false,
      "t": 64500,
      "d": 500,
      "v": 100
    },
    {
      "midi": 63,
      "hit": false,
      "t": 64500.000000000015,
      "d": 500,
      "v": 100
    },
    {
      "midi": 36,
      "hit": false,
      "t": 65000,
      "d": 500,
      "v": 100
    },
    {
      "midi": 60,
      "hit": false,
      "t": 65000.000000000015,
      "d": 375,
      "v": 100
    },
    {
      "midi": 63,
      "hit": false,
      "t": 65000.000000000015,
      "d": 375,
      "v": 100
    },
    {
      "midi": 67,
      "hit": false,
      "t": 65000.000000000015,
      "d": 375,
      "v": 100
    },
    {
      "midi": 58,
      "hit": false,
      "t": 65375.000000000015,
      "d": 375,
      "v": 100
    },
    {
      "midi": 62,
      "hit": false,
      "t": 65375.000000000015,
      "d": 375,
      "v": 100
    },
    {
      "midi": 65,
      "hit": false,
      "t": 65375.000000000015,
      "d": 375,
      "v": 100
    },
    {
      "midi": 48,
      "hit": false,
      "t": 65500,
      "d": 500,
      "v": 100
    },
    {
      "midi": 60,
      "hit": false,
      "t": 65750.00000000001,
      "d": 750,
      "v": 100
    },
    {
      "midi": 63,
      "hit": false,
      "t": 65750.00000000001,
      "d": 750,
      "v": 100
    },
    {
      "midi": 67,
      "hit": false,
      "t": 65750.00000000001,
      "d": 750,
      "v": 100
    },
    {
      "midi": 36,
      "hit": false,
      "t": 66000,
      "d": 500,
      "v": 100
    },
    {
      "midi": 48,
      "hit": false,
      "t": 66500,
      "d": 500,
      "v": 100
    },
    {
      "midi": 36,
      "hit": false,
      "t": 67000,
      "d": 500,
      "v": 100
    },
    {
      "midi": 60,
      "hit": false,
      "t": 67000.00000000001,
      "d": 375,
      "v": 100
    },
    {
      "midi": 63,
      "hit": false,
      "t": 67000.00000000001,
      "d": 375,
      "v": 100
    },
    {
      "midi": 67,
      "hit": false,
      "t": 67000.00000000001,
      "d": 375,
      "v": 100
    },
    {
      "midi": 58,
      "hit": false,
      "t": 67375.00000000001,
      "d": 375,
      "v": 100
    },
    {
      "midi": 62,
      "hit": false,
      "t": 67375.00000000001,
      "d": 375,
      "v": 100
    },
    {
      "midi": 65,
      "hit": false,
      "t": 67375.00000000001,
      "d": 375,
      "v": 100
    },
    {
      "midi": 48,
      "hit": false,
      "t": 67500,
      "d": 500,
      "v": 100
    },
    {
      "midi": 60,
      "hit": false,
      "t": 67750.00000000001,
      "d": 750,
      "v": 100
    },
    {
      "midi": 63,
      "hit": false,
      "t": 67750.00000000001,
      "d": 750,
      "v": 100
    },
    {
      "midi": 67,
      "hit": false,
      "t": 67750.00000000001,
      "d": 750,
      "v": 100
    },
    {
      "midi": 36,
      "hit": false,
      "t": 68000,
      "d": 500,
      "v": 100
    },
    {
      "midi": 48,
      "hit": false,
      "t": 68500,
      "d": 500,
      "v": 100
    },
    {
      "midi": 36,
      "hit": false,
      "t": 69000,
      "d": 500,
      "v": 100
    },
    {
      "midi": 60,
      "hit": false,
      "t": 69000.00000000001,
      "d": 375,
      "v": 100
    },
    {
      "midi": 63,
      "hit": false,
      "t": 69000.00000000001,
      "d": 375,
      "v": 100
    },
    {
      "midi": 67,
      "hit": false,
      "t": 69000.00000000001,
      "d": 375,
      "v": 100
    },
    {
      "midi": 55,
      "hit": false,
      "t": 69375.00000000001,
      "d": 375,
      "v": 100
    },
    {
      "midi": 58,
      "hit": false,
      "t": 69375.00000000001,
      "d": 375,
      "v": 100
    },
    {
      "midi": 62,
      "hit": false,
      "t": 69375.00000000001,
      "d": 375,
      "v": 100
    },
    {
      "midi": 43,
      "hit": false,
      "t": 69500,
      "d": 500,
      "v": 100
    },
    {
      "midi": 56,
      "hit": false,
      "t": 69750.00000000001,
      "d": 2250,
      "v": 100
    },
    {
      "midi": 60,
      "hit": false,
      "t": 69750.00000000001,
      "d": 2250,
      "v": 100
    },
    {
      "midi": 63,
      "hit": false,
      "t": 69750.00000000001,
      "d": 2250,
      "v": 100
    },
    {
      "midi": 44,
      "hit": false,
      "t": 70000,
      "d": 500,
      "v": 100
    },
    {
      "midi": 44,
      "hit": false,
      "t": 70500,
      "d": 500,
      "v": 100
    },
    {
      "midi": 44,
      "hit": false,
      "t": 71000,
      "d": 500,
      "v": 100
    },
    {
      "midi": 44,
      "hit": false,
      "t": 71500,
      "d": 500,
      "v": 100
    }
  ]
}