{
  "jsonPath": "Pop/Karaoke/The Karaoke Channel/i-turn-to-you-in-the-style-of-christina-aguilera-karaoke-version.json",
  "path": "Pop\\Karaoke\\The Karaoke Channel\\I Turn To You (in the style of Christina Aguilera) (Karaoke Version).mid",
  "name": "I Turn To You (in the style of Christina Aguilera) (Karaoke Version)",
  "difficulty": "Advanced",
  "bpm": 75.99996960001216,
  "notes": [
    {
      "midi": 39,
      "hit": false,
      "t": 6315.792,
      "d": 539.4739,
      "v": 48
    },
    {
      "midi": 58,
      "hit": false,
      "t": 6315.792,
      "d": 1059.2109499999997,
      "v": 63
    },
    {
      "midi": 61,
      "hit": false,
      "t": 6315.792,
      "d": 1059.2109499999997,
      "v": 63
    },
    {
      "midi": 65,
      "hit": false,
      "t": 6315.792,
      "d": 1059.2109499999997,
      "v": 63
    },
    {
      "midi": 66,
      "hit": false,
      "t": 6315.792,
      "d": 1059.2109499999997,
      "v": 63
    },
    {
      "midi": 39,
      "hit": false,
      "t": 6315.792,
      "d": 3223.6854999999987,
      "v": 114
    },
    {
      "midi": 66,
      "hit": false,
      "t": 6315.792,
      "d": 3263.159199999999,
      "v": 114
    },
    {
      "midi": 73,
      "hit": false,
      "t": 6315.792,
      "d": 3263.159199999999,
      "v": 114
    },
    {
      "midi": 53,
      "hit": false,
      "t": 6315.792,
      "d": 3289.4749999999995,
      "v": 114
    },
    {
      "midi": 70,
      "hit": false,
      "t": 6315.792,
      "d": 3289.4749999999995,
      "v": 114
    },
    {
      "midi": 77,
      "hit": false,
      "t": 6355.2657,
      "d": 3263.1592,
      "v": 114
    },
    {
      "midi": 39,
      "hit": false,
      "t": 7500.003,
      "d": 1151.3162500000008,
      "v": 48
    },
    {
      "midi": 58,
      "hit": false,
      "t": 7513.1609,
      "d": 217.10534999999982,
      "v": 61
    },
    {
      "midi": 61,
      "hit": false,
      "t": 7513.1609,
      "d": 217.10534999999982,
      "v": 61
    },
    {
      "midi": 65,
      "hit": false,
      "t": 7513.1609,
      "d": 217.10534999999982,
      "v": 61
    },
    {
      "midi": 66,
      "hit": false,
      "t": 7513.1609,
      "d": 217.10534999999982,
      "v": 61
    },
    {
      "midi": 58,
      "hit": false,
      "t": 8684.214,
      "d": 282.8948500000006,
      "v": 43
    },
    {
      "midi": 61,
      "hit": false,
      "t": 8684.214,
      "d": 282.8948500000006,
      "v": 43
    },
    {
      "midi": 65,
      "hit": false,
      "t": 8684.214,
      "d": 282.8948500000006,
      "v": 43
    },
    {
      "midi": 66,
      "hit": false,
      "t": 8684.214,
      "d": 282.8948500000006,
      "v": 43
    },
    {
      "midi": 34,
      "hit": false,
      "t": 9078.951000000001,
      "d": 361.8422499999997,
      "v": 60
    },
    {
      "midi": 60,
      "hit": false,
      "t": 9473.688,
      "d": 3243.4223500000007,
      "v": 114
    },
    {
      "midi": 44,
      "hit": false,
      "t": 9473.688,
      "d": 3263.1592,
      "v": 114
    },
    {
      "midi": 63,
      "hit": false,
      "t": 9473.688,
      "d": 3263.1592,
      "v": 114
    },
    {
      "midi": 56,
      "hit": false,
      "t": 9480.266950000001,
      "d": 2934.211699999998,
      "v": 61
    },
    {
      "midi": 60,
      "hit": false,
      "t": 9480.266950000001,
      "d": 2934.211699999998,
      "v": 61
    },
    {
      "midi": 63,
      "hit": false,
      "t": 9480.266950000001,
      "d": 2934.211699999998,
      "v": 61
    },
    {
      "midi": 44,
      "hit": false,
      "t": 9500.0038,
      "d": 2519.7378499999995,
      "v": 46
    },
    {
      "midi": 68,
      "hit": false,
      "t": 9519.74065,
      "d": 3289.4750000000004,
      "v": 114
    },
    {
      "midi": 39,
      "hit": false,
      "t": 12631.583999999999,
      "d": 539.4739000000009,
      "v": 48
    },
    {
      "midi": 61,
      "hit": false,
      "t": 12631.583999999999,
      "d": 1059.2109500000006,
      "v": 63
    },
    {
      "midi": 65,
      "hit": false,
      "t": 12631.583999999999,
      "d": 1059.2109500000006,
      "v": 63
    },
    {
      "midi": 66,
      "hit": false,
      "t": 12631.583999999999,
      "d": 1059.2109500000006,
      "v": 63
    },
    {
      "midi": 70,
      "hit": false,
      "t": 12631.583999999999,
      "d": 1059.2109500000006,
      "v": 63
    },
    {
      "midi": 66,
      "hit": false,
      "t": 12631.584,
      "d": 3092.1065,
      "v": 114
    },
    {
      "midi": 70,
      "hit": false,
      "t": 12631.584,
      "d": 3092.1065,
      "v": 114
    },
    {
      "midi": 73,
      "hit": false,
      "t": 12631.584,
      "d": 3092.1065,
      "v": 114
    },
    {
      "midi": 53,
      "hit": false,
      "t": 12631.584,
      "d": 3263.1592,
      "v": 114
    },
    {
      "midi": 39,
      "hit": false,
      "t": 12631.584,
      "d": 3289.4750000000004,
      "v": 114
    },
    {
      "midi": 77,
      "hit": false,
      "t": 12677.63665,
      "d": 3052.6327999999994,
      "v": 114
    },
    {
      "midi": 39,
      "hit": false,
      "t": 13815.795,
      "d": 1151.3162499999999,
      "v": 48
    },
    {
      "midi": 61,
      "hit": false,
      "t": 13828.9529,
      "d": 217.10534999999982,
      "v": 61
    },
    {
      "midi": 65,
      "hit": false,
      "t": 13828.9529,
      "d": 217.10534999999982,
      "v": 61
    },
    {
      "midi": 66,
      "hit": false,
      "t": 13828.9529,
      "d": 217.10534999999982,
      "v": 61
    },
    {
      "midi": 70,
      "hit": false,
      "t": 13828.9529,
      "d": 217.10534999999982,
      "v": 61
    },
    {
      "midi": 61,
      "hit": false,
      "t": 15000.006,
      "d": 282.8948500000006,
      "v": 43
    },
    {
      "midi": 65,
      "hit": false,
      "t": 15000.006,
      "d": 282.8948500000006,
      "v": 43
    },
    {
      "midi": 66,
      "hit": false,
      "t": 15000.006,
      "d": 282.8948500000006,
      "v": 43
    },
    {
      "midi": 70,
      "hit": false,
      "t": 15000.006,
      "d": 282.8948500000006,
      "v": 43
    },
    {
      "midi": 34,
      "hit": false,
      "t": 15394.743,
      "d": 361.8422499999997,
      "v": 60
    },
    {
      "midi": 68,
      "hit": false,
      "t": 15789.48,
      "d": 2171.053500000002,
      "v": 114
    },
    {
      "midi": 63,
      "hit": false,
      "t": 15789.48,
      "d": 2236.8430000000008,
      "v": 114
    },
    {
      "midi": 44,
      "hit": false,
      "t": 15789.48,
      "d": 3263.1591999999982,
      "v": 114
    },
    {
      "midi": 56,
      "hit": false,
      "t": 15796.05895,
      "d": 2934.2117000000017,
      "v": 61
    },
    {
      "midi": 60,
      "hit": false,
      "t": 15796.05895,
      "d": 2934.2117000000017,
      "v": 61
    },
    {
      "midi": 63,
      "hit": false,
      "t": 15796.05895,
      "d": 2934.2117000000017,
      "v": 61
    },
    {
      "midi": 44,
      "hit": false,
      "t": 15815.7958,
      "d": 2519.7378500000013,
      "v": 46
    },
    {
      "midi": 72,
      "hit": false,
      "t": 15828.9537,
      "d": 2125.000850000002,
      "v": 114
    },
    {
      "midi": 61,
      "hit": false,
      "t": 18157.902000000002,
      "d": 388.1580499999982,
      "v": 114
    },
    {
      "midi": 60,
      "hit": false,
      "t": 18552.639,
      "d": 355.2632999999987,
      "v": 114
    },
    {
      "midi": 53,
      "hit": false,
      "t": 18750.0075,
      "d": 2256.579850000002,
      "v": 114
    },
    {
      "midi": 56,
      "hit": false,
      "t": 18750.0075,
      "d": 2309.2114500000025,
      "v": 114
    },
    {
      "midi": 61,
      "hit": false,
      "t": 18789.4812,
      "d": 2269.737750000004,
      "v": 114
    },
    {
      "midi": 37,
      "hit": false,
      "t": 18947.375999999997,
      "d": 1355.2637000000032,
      "v": 114
    },
    {
      "midi": 56,
      "hit": false,
      "t": 18947.376000000004,
      "d": 177.63164999999935,
      "v": 75
    },
    {
      "midi": 61,
      "hit": false,
      "t": 18947.376000000004,
      "d": 177.63164999999935,
      "v": 75
    },
    {
      "midi": 65,
      "hit": false,
      "t": 18947.376000000004,
      "d": 177.63164999999935,
      "v": 75
    },
    {
      "midi": 49,
      "hit": false,
      "t": 18947.376000000004,
      "d": 2710.5274000000027,
      "v": 64
    },
    {
      "midi": 56,
      "hit": false,
      "t": 19342.113000000005,
      "d": 164.47375000000102,
      "v": 39
    },
    {
      "midi": 61,
      "hit": false,
      "t": 19342.113000000005,
      "d": 164.47375000000102,
      "v": 39
    },
    {
      "midi": 65,
      "hit": false,
      "t": 19342.113000000005,
      "d": 164.47375000000102,
      "v": 39
    },
    {
      "midi": 56,
      "hit": false,
      "t": 19736.850000000006,
      "d": 164.47375000000102,
      "v": 52
    },
    {
      "midi": 61,
      "hit": false,
      "t": 19736.850000000006,
      "d": 164.47375000000102,
      "v": 52
    },
    {
      "midi": 65,
      "hit": false,
      "t": 19736.850000000006,
      "d": 164.47375000000102,
      "v": 52
    },
    {
      "midi": 56,
      "hit": false,
      "t": 20144.744900000005,
      "d": 164.47375000000102,
      "v": 63
    },
    {
      "midi": 61,
      "hit": false,
      "t": 20144.744900000005,
      "d": 164.47375000000102,
      "v": 63
    },
    {
      "midi": 65,
      "hit": false,
      "t": 20144.744900000005,
      "d": 164.47375000000102,
      "v": 63
    },
    {
      "midi": 37,
      "hit": false,
      "t": 20328.9555,
      "d": 190.78955000000133,
      "v": 114
    },
    {
      "midi": 37,
      "hit": false,
      "t": 20526.324,
      "d": 1697.3691000000035,
      "v": 114
    },
    {
      "midi": 61,
      "hit": false,
      "t": 21315.798000000003,
      "d": 467.10545000000275,
      "v": 114
    },
    {
      "midi": 60,
      "hit": false,
      "t": 21710.535000000003,
      "d": 190.78955000000133,
      "v": 114
    },
    {
      "midi": 56,
      "hit": false,
      "t": 21730.27185000001,
      "d": 3302.6329000000005,
      "v": 61
    },
    {
      "midi": 60,
      "hit": false,
      "t": 21730.27185000001,
      "d": 3302.6329000000005,
      "v": 61
    },
    {
      "midi": 63,
      "hit": false,
      "t": 21730.27185000001,
      "d": 3302.6329000000005,
      "v": 61
    },
    {
      "midi": 36,
      "hit": false,
      "t": 21750.00870000001,
      "d": 2888.1590499999984,
      "v": 46
    },
    {
      "midi": 56,
      "hit": false,
      "t": 21907.903500000004,
      "d": 2434.2115000000013,
      "v": 114
    },
    {
      "midi": 60,
      "hit": false,
      "t": 21907.903500000004,
      "d": 2434.2115000000013,
      "v": 114
    },
    {
      "midi": 63,
      "hit": false,
      "t": 21907.903500000004,
      "d": 2434.2115000000013,
      "v": 114
    },
    {
      "midi": 36,
      "hit": false,
      "t": 22105.272000000004,
      "d": 1355.2636999999995,
      "v": 114
    },
    {
      "midi": 36,
      "hit": false,
      "t": 23486.851500000004,
      "d": 190.78955000000133,
      "v": 114
    },
    {
      "midi": 36,
      "hit": false,
      "t": 23684.220000000005,
      "d": 1697.3691,
      "v": 114
    },
    {
      "midi": 63,
      "hit": false,
      "t": 24868.431000000004,
      "d": 282.8948500000006,
      "v": 114
    },
    {
      "midi": 65,
      "hit": false,
      "t": 25065.799500000005,
      "d": 190.78955000000133,
      "v": 114
    },
    {
      "midi": 61,
      "hit": false,
      "t": 25263.168000000005,
      "d": 894.7371999999996,
      "v": 114
    },
    {
      "midi": 58,
      "hit": false,
      "t": 25263.168000000005,
      "d": 914.4740500000007,
      "v": 114
    },
    {
      "midi": 34,
      "hit": false,
      "t": 25263.168000000005,
      "d": 1500.0005999999994,
      "v": 114
    },
    {
      "midi": 54,
      "hit": false,
      "t": 25263.16800000001,
      "d": 177.63164999999935,
      "v": 75
    },
    {
      "midi": 58,
      "hit": false,
      "t": 25263.16800000001,
      "d": 177.63164999999935,
      "v": 75
    },
    {
      "midi": 61,
      "hit": false,
      "t": 25263.16800000001,
      "d": 177.63164999999935,
      "v": 75
    },
    {
      "midi": 34,
      "hit": false,
      "t": 25263.16800000001,
      "d": 3131.580200000004,
      "v": 64
    },
    {
      "midi": 66,
      "hit": false,
      "t": 25302.641700000004,
      "d": 348.68434999999954,
      "v": 114
    },
    {
      "midi": 66,
      "hit": false,
      "t": 25657.905000000002,
      "d": 190.78955000000133,
      "v": 114
    },
    {
      "midi": 54,
      "hit": false,
      "t": 25657.90500000001,
      "d": 164.47375000000102,
      "v": 39
    },
    {
      "midi": 58,
      "hit": false,
      "t": 25657.90500000001,
      "d": 164.47375000000102,
      "v": 39
    },
    {
      "midi": 61,
      "hit": false,
      "t": 25657.90500000001,
      "d": 164.47375000000102,
      "v": 39
    },
    {
      "midi": 66,
      "hit": false,
      "t": 25855.273500000003,
      "d": 578.9476000000031,
      "v": 114
    },
    {
      "midi": 54,
      "hit": false,
      "t": 26052.64200000001,
      "d": 164.47375000000102,
      "v": 52
    },
    {
      "midi": 58,
      "hit": false,
      "t": 26052.64200000001,
      "d": 164.47375000000102,
      "v": 52
    },
    {
      "midi": 61,
      "hit": false,
      "t": 26052.64200000001,
      "d": 164.47375000000102,
      "v": 52
    },
    {
      "midi": 65,
      "hit": false,
      "t": 26447.379000000004,
      "d": 322.36854999999923,
      "v": 114
    },
    {
      "midi": 54,
      "hit": false,
      "t": 26460.53690000001,
      "d": 164.47375000000102,
      "v": 63
    },
    {
      "midi": 58,
      "hit": false,
      "t": 26460.53690000001,
      "d": 164.47375000000102,
      "v": 63
    },
    {
      "midi": 61,
      "hit": false,
      "t": 26460.53690000001,
      "d": 164.47375000000102,
      "v": 63
    },
    {
      "midi": 63,
      "hit": false,
      "t": 26644.747500000005,
      "d": 697.3687000000027,
      "v": 114
    },
    {
      "midi": 34,
      "hit": false,
      "t": 26842.116000000005,
      "d": 1789.4743999999992,
      "v": 114
    },
    {
      "midi": 61,
      "hit": false,
      "t": 27236.853000000006,
      "d": 190.78955000000133,
      "v": 114
    },
    {
      "midi": 61,
      "hit": false,
      "t": 27434.221500000007,
      "d": 776.3161,
      "v": 114
    },
    {
      "midi": 58,
      "hit": false,
      "t": 28223.695500000005,
      "d": 190.78955000000133,
      "v": 114
    },
    {
      "midi": 44,
      "hit": false,
      "t": 28421.064000000006,
      "d": 388.1580499999982,
      "v": 114
    },
    {
      "midi": 54,
      "hit": false,
      "t": 28421.064000000006,
      "d": 388.1580499999982,
      "v": 114
    },
    {
      "midi": 58,
      "hit": false,
      "t": 28421.064000000006,
      "d": 388.1580499999982,
      "v": 114
    },
    {
      "midi": 61,
      "hit": false,
      "t": 28427.642950000012,
      "d": 322.36855000000287,
      "v": 55
    },
    {
      "midi": 63,
      "hit": false,
      "t": 28427.642950000012,
      "d": 322.36855000000287,
      "v": 55
    },
    {
      "midi": 66,
      "hit": false,
      "t": 28427.642950000012,
      "d": 322.36855000000287,
      "v": 55
    },
    {
      "midi": 70,
      "hit": false,
      "t": 28427.642950000012,
      "d": 322.36855000000287,
      "v": 55
    },
    {
      "midi": 44,
      "hit": false,
      "t": 28447.379800000013,
      "d": 302.63170000000173,
      "v": 52
    },
    {
      "midi": 61,
      "hit": false,
      "t": 28460.537700000004,
      "d": 348.68434999999954,
      "v": 114
    },
    {
      "midi": 44,
      "hit": false,
      "t": 28815.801000000003,
      "d": 776.3161,
      "v": 114
    },
    {
      "midi": 61,
      "hit": false,
      "t": 28815.801000000003,
      "d": 776.3161,
      "v": 114
    },
    {
      "midi": 58,
      "hit": false,
      "t": 28815.801000000003,
      "d": 855.2635000000009,
      "v": 114
    },
    {
      "midi": 54,
      "hit": false,
      "t": 28815.801000000003,
      "d": 894.7371999999996,
      "v": 114
    },
    {
      "midi": 56,
      "hit": false,
      "t": 28815.801000000014,
      "d": 1289.4742000000006,
      "v": 69
    },
    {
      "midi": 60,
      "hit": false,
      "t": 28815.801000000014,
      "d": 1289.4742000000006,
      "v": 69
    },
    {
      "midi": 63,
      "hit": false,
      "t": 28815.801000000014,
      "d": 1289.4742000000006,
      "v": 69
    },
    {
      "midi": 44,
      "hit": false,
      "t": 28815.801000000014,
      "d": 1960.527100000003,
      "v": 56
    },
    {
      "midi": 65,
      "hit": false,
      "t": 28861.853650000005,
      "d": 789.4739999999983,
      "v": 114
    },
    {
      "midi": 44,
      "hit": false,
      "t": 29605.275,
      "d": 282.8948500000006,
      "v": 114
    },
    {
      "midi": 60,
      "hit": false,
      "t": 29605.275,
      "d": 282.8948500000006,
      "v": 114
    },
    {
      "midi": 66,
      "hit": false,
      "t": 29605.275,
      "d": 282.8948500000006,
      "v": 114
    },
    {
      "midi": 65,
      "hit": false,
      "t": 29802.643500000002,
      "d": 302.63170000000173,
      "v": 114
    },
    {
      "midi": 63,
      "hit": false,
      "t": 30000.012000000002,
      "d": 855.2635000000009,
      "v": 114
    },
    {
      "midi": 44,
      "hit": false,
      "t": 30000.012000000002,
      "d": 1592.1058999999987,
      "v": 114
    },
    {
      "midi": 56,
      "hit": false,
      "t": 30394.749000000014,
      "d": 164.47375000000102,
      "v": 72
    },
    {
      "midi": 60,
      "hit": false,
      "t": 30394.749000000014,
      "d": 164.47375000000102,
      "v": 72
    },
    {
      "midi": 63,
      "hit": false,
      "t": 30394.749000000014,
      "d": 164.47375000000102,
      "v": 72
    },
    {
      "midi": 54,
      "hit": false,
      "t": 30789.486000000004,
      "d": 388.1580499999982,
      "v": 114
    },
    {
      "midi": 61,
      "hit": false,
      "t": 30789.486000000004,
      "d": 388.1580499999982,
      "v": 114
    },
    {
      "midi": 61,
      "hit": false,
      "t": 30796.064950000018,
      "d": 743.4213500000005,
      "v": 55
    },
    {
      "midi": 63,
      "hit": false,
      "t": 30796.064950000018,
      "d": 743.4213500000005,
      "v": 55
    },
    {
      "midi": 66,
      "hit": false,
      "t": 30796.064950000018,
      "d": 743.4213500000005,
      "v": 55
    },
    {
      "midi": 70,
      "hit": false,
      "t": 30796.064950000018,
      "d": 743.4213500000005,
      "v": 55
    },
    {
      "midi": 44,
      "hit": false,
      "t": 30815.80180000002,
      "d": 743.4213500000005,
      "v": 52
    },
    {
      "midi": 60,
      "hit": false,
      "t": 31184.223,
      "d": 190.78955000000133,
      "v": 114
    },
    {
      "midi": 56,
      "hit": false,
      "t": 31381.591500000002,
      "d": 2217.1061499999996,
      "v": 114
    },
    {
      "midi": 53,
      "hit": false,
      "t": 31381.591500000002,
      "d": 2256.579850000002,
      "v": 114
    },
    {
      "midi": 61,
      "hit": false,
      "t": 31381.591500000002,
      "d": 2269.7377500000002,
      "v": 114
    },
    {
      "midi": 37,
      "hit": false,
      "t": 31578.960000000003,
      "d": 1355.2636999999995,
      "v": 114
    },
    {
      "midi": 56,
      "hit": false,
      "t": 31578.96000000002,
      "d": 177.63164999999935,
      "v": 75
    },
    {
      "midi": 61,
      "hit": false,
      "t": 31578.96000000002,
      "d": 177.63164999999935,
      "v": 75
    },
    {
      "midi": 65,
      "hit": false,
      "t": 31578.96000000002,
      "d": 177.63164999999935,
      "v": 75
    },
    {
      "midi": 49,
      "hit": false,
      "t": 31578.96000000002,
      "d": 3131.5801999999967,
      "v": 64
    },
    {
      "midi": 56,
      "hit": false,
      "t": 31973.697000000022,
      "d": 164.47375000000102,
      "v": 39
    },
    {
      "midi": 61,
      "hit": false,
      "t": 31973.697000000022,
      "d": 164.47375000000102,
      "v": 39
    },
    {
      "midi": 65,
      "hit": false,
      "t": 31973.697000000022,
      "d": 164.47375000000102,
      "v": 39
    },
    {
      "midi": 56,
      "hit": false,
      "t": 32368.434000000023,
      "d": 164.47375000000102,
      "v": 52
    },
    {
      "midi": 61,
      "hit": false,
      "t": 32368.434000000023,
      "d": 164.47375000000102,
      "v": 52
    },
    {
      "midi": 65,
      "hit": false,
      "t": 32368.434000000023,
      "d": 164.47375000000102,
      "v": 52
    },
    {
      "midi": 56,
      "hit": false,
      "t": 32776.32890000002,
      "d": 164.47374999999738,
      "v": 63
    },
    {
      "midi": 61,
      "hit": false,
      "t": 32776.32890000002,
      "d": 164.47374999999738,
      "v": 63
    },
    {
      "midi": 65,
      "hit": false,
      "t": 32776.32890000002,
      "d": 164.47374999999738,
      "v": 63
    },
    {
      "midi": 37,
      "hit": false,
      "t": 32960.5395,
      "d": 190.78955000000133,
      "v": 114
    },
    {
      "midi": 37,
      "hit": false,
      "t": 33157.908,
      "d": 1717.1059500000047,
      "v": 114
    },
    {
      "midi": 61,
      "hit": false,
      "t": 33947.382000000005,
      "d": 447.3686000000016,
      "v": 114
    },
    {
      "midi": 65,
      "hit": false,
      "t": 34342.119000000006,
      "d": 539.4739000000045,
      "v": 114
    },
    {
      "midi": 36,
      "hit": false,
      "t": 34736.85600000001,
      "d": 1289.474199999997,
      "v": 114
    },
    {
      "midi": 56,
      "hit": false,
      "t": 34736.85600000001,
      "d": 1684.2112000000052,
      "v": 114
    },
    {
      "midi": 56,
      "hit": false,
      "t": 34743.43495000002,
      "d": 2934.2117,
      "v": 61
    },
    {
      "midi": 60,
      "hit": false,
      "t": 34743.43495000002,
      "d": 2934.2117,
      "v": 61
    },
    {
      "midi": 63,
      "hit": false,
      "t": 34743.43495000002,
      "d": 2934.2117,
      "v": 61
    },
    {
      "midi": 36,
      "hit": false,
      "t": 34763.17180000002,
      "d": 2519.7378499999977,
      "v": 46
    },
    {
      "midi": 60,
      "hit": false,
      "t": 34776.32970000001,
      "d": 1644.737500000003,
      "v": 114
    },
    {
      "midi": 66,
      "hit": false,
      "t": 35131.59300000001,
      "d": 282.89484999999695,
      "v": 114
    },
    {
      "midi": 65,
      "hit": false,
      "t": 35328.961500000005,
      "d": 302.6316999999981,
      "v": 114
    },
    {
      "midi": 63,
      "hit": false,
      "t": 35526.33,
      "d": 1664.4743500000113,
      "v": 114
    },
    {
      "midi": 36,
      "hit": false,
      "t": 36118.43550000001,
      "d": 190.78955000000133,
      "v": 114
    },
    {
      "midi": 36,
      "hit": false,
      "t": 36315.80400000001,
      "d": 1664.4743500000113,
      "v": 114
    },
    {
      "midi": 70,
      "hit": false,
      "t": 37105.27800000001,
      "d": 539.4739000000045,
      "v": 114
    },
    {
      "midi": 68,
      "hit": false,
      "t": 37500.015000000014,
      "d": 500.0002000000095,
      "v": 114
    },
    {
      "midi": 54,
      "hit": false,
      "t": 37855.27830000002,
      "d": 967.105650000005,
      "v": 114
    },
    {
      "midi": 40,
      "hit": false,
      "t": 37894.752000000015,
      "d": 539.4738999999972,
      "v": 48
    },
    {
      "midi": 59,
      "hit": false,
      "t": 37894.752000000015,
      "d": 1059.2109500000006,
      "v": 63
    },
    {
      "midi": 63,
      "hit": false,
      "t": 37894.752000000015,
      "d": 1059.2109500000006,
      "v": 63
    },
    {
      "midi": 66,
      "hit": false,
      "t": 37894.752000000015,
      "d": 1059.2109500000006,
      "v": 63
    },
    {
      "midi": 68,
      "hit": false,
      "t": 37894.752000000015,
      "d": 1059.2109500000006,
      "v": 63
    },
    {
      "midi": 63,
      "hit": false,
      "t": 37894.75200000002,
      "d": 388.1580499999982,
      "v": 114
    },
    {
      "midi": 56,
      "hit": false,
      "t": 37894.75200000002,
      "d": 927.6319500000027,
      "v": 114
    },
    {
      "midi": 40,
      "hit": false,
      "t": 37894.75200000002,
      "d": 1289.4742000000042,
      "v": 114
    },
    {
      "midi": 61,
      "hit": false,
      "t": 38289.48900000002,
      "d": 190.78955000000133,
      "v": 114
    },
    {
      "midi": 61,
      "hit": false,
      "t": 38486.85750000003,
      "d": 578.9475999999995,
      "v": 114
    },
    {
      "midi": 40,
      "hit": false,
      "t": 39078.96300000002,
      "d": 1151.3162499999962,
      "v": 48
    },
    {
      "midi": 56,
      "hit": false,
      "t": 39078.963000000025,
      "d": 342.10540000000765,
      "v": 114
    },
    {
      "midi": 59,
      "hit": false,
      "t": 39092.120900000016,
      "d": 217.105349999998,
      "v": 61
    },
    {
      "midi": 63,
      "hit": false,
      "t": 39092.120900000016,
      "d": 217.105349999998,
      "v": 61
    },
    {
      "midi": 66,
      "hit": false,
      "t": 39092.120900000016,
      "d": 217.105349999998,
      "v": 61
    },
    {
      "midi": 68,
      "hit": false,
      "t": 39092.120900000016,
      "d": 217.105349999998,
      "v": 61
    },
    {
      "midi": 40,
      "hit": false,
      "t": 39276.33150000003,
      "d": 190.78955000000133,
      "v": 114
    },
    {
      "midi": 61,
      "hit": false,
      "t": 39276.33150000003,
      "d": 500.0002000000022,
      "v": 114
    },
    {
      "midi": 40,
      "hit": false,
      "t": 39473.70000000003,
      "d": 1664.474350000004,
      "v": 114
    },
    {
      "midi": 63,
      "hit": false,
      "t": 39671.06850000003,
      "d": 500.0002000000022,
      "v": 114
    },
    {
      "midi": 59,
      "hit": false,
      "t": 40263.17400000001,
      "d": 282.89484999999695,
      "v": 43
    },
    {
      "midi": 63,
      "hit": false,
      "t": 40263.17400000001,
      "d": 282.89484999999695,
      "v": 43
    },
    {
      "midi": 66,
      "hit": false,
      "t": 40263.17400000001,
      "d": 282.89484999999695,
      "v": 43
    },
    {
      "midi": 68,
      "hit": false,
      "t": 40263.17400000001,
      "d": 282.89484999999695,
      "v": 43
    },
    {
      "midi": 70,
      "hit": false,
      "t": 40263.174000000035,
      "d": 552.6318000000028,
      "v": 114
    },
    {
      "midi": 35,
      "hit": false,
      "t": 40657.91100000001,
      "d": 361.8422500000015,
      "v": 60
    },
    {
      "midi": 68,
      "hit": false,
      "t": 40657.91100000004,
      "d": 539.4739000000045,
      "v": 114
    },
    {
      "midi": 39,
      "hit": false,
      "t": 41052.64800000001,
      "d": 3131.580200000004,
      "v": 66
    },
    {
      "midi": 39,
      "hit": false,
      "t": 41052.64800000004,
      "d": 1289.4742000000115,
      "v": 114
    },
    {
      "midi": 54,
      "hit": false,
      "t": 41052.64800000004,
      "d": 3092.1065000000162,
      "v": 114
    },
    {
      "midi": 58,
      "hit": false,
      "t": 41052.64800000004,
      "d": 3144.738100000017,
      "v": 114
    },
    {
      "midi": 63,
      "hit": false,
      "t": 41092.12170000004,
      "d": 348.6843500000032,
      "v": 114
    },
    {
      "midi": 61,
      "hit": false,
      "t": 41447.385000000046,
      "d": 190.78955000000133,
      "v": 114
    },
    {
      "midi": 61,
      "hit": false,
      "t": 41644.75350000005,
      "d": 730.2634499999986,
      "v": 114
    },
    {
      "midi": 61,
      "hit": false,
      "t": 41842.12200000001,
      "d": 2342.106200000002,
      "v": 67
    },
    {
      "midi": 63,
      "hit": false,
      "t": 41842.12200000001,
      "d": 2342.106200000002,
      "v": 67
    },
    {
      "midi": 66,
      "hit": false,
      "t": 41842.12200000001,
      "d": 2342.106200000002,
      "v": 67
    },
    {
      "midi": 70,
      "hit": false,
      "t": 41842.12200000001,
      "d": 2342.106200000002,
      "v": 67
    },
    {
      "midi": 63,
      "hit": false,
      "t": 42236.85900000005,
      "d": 190.78955000000133,
      "v": 114
    },
    {
      "midi": 39,
      "hit": false,
      "t": 42434.22750000005,
      "d": 190.78955000000133,
      "v": 114
    },
    {
      "midi": 65,
      "hit": false,
      "t": 42434.22750000005,
      "d": 480.2633500000011,
      "v": 114
    },
    {
      "midi": 39,
      "hit": false,
      "t": 42631.596000000056,
      "d": 1019.7372499999983,
      "v": 114
    },
    {
      "midi": 63,
      "hit": false,
      "t": 42828.96450000005,
      "d": 190.78955000000133,
      "v": 114
    },
    {
      "midi": 65,
      "hit": false,
      "t": 43026.33300000006,
      "d": 539.4738999999972,
      "v": 114
    },
    {
      "midi": 39,
      "hit": false,
      "t": 43815.80700000005,
      "d": 190.78955000000133,
      "v": 114
    },
    {
      "midi": 40,
      "hit": false,
      "t": 44013.175500000056,
      "d": 190.78955000000133,
      "v": 114
    },
    {
      "midi": 61,
      "hit": false,
      "t": 44210.54400000001,
      "d": 177.631650000003,
      "v": 75
    },
    {
      "midi": 63,
      "hit": false,
      "t": 44210.54400000001,
      "d": 177.631650000003,
      "v": 75
    },
    {
      "midi": 65,
      "hit": false,
      "t": 44210.54400000001,
      "d": 177.631650000003,
      "v": 75
    },
    {
      "midi": 69,
      "hit": false,
      "t": 44210.54400000001,
      "d": 177.631650000003,
      "v": 75
    },
    {
      "midi": 41,
      "hit": false,
      "t": 44210.54400000001,
      "d": 2710.527399999999,
      "v": 64
    },
    {
      "midi": 41,
      "hit": false,
      "t": 44210.54400000006,
      "d": 1289.4742000000042,
      "v": 114
    },
    {
      "midi": 57,
      "hit": false,
      "t": 44210.54400000006,
      "d": 1684.2112000000052,
      "v": 114
    },
    {
      "midi": 61,
      "hit": false,
      "t": 44250.01770000006,
      "d": 1664.474350000004,
      "v": 114
    },
    {
      "midi": 61,
      "hit": false,
      "t": 44605.28100000001,
      "d": 164.47374999999738,
      "v": 39
    },
    {
      "midi": 63,
      "hit": false,
      "t": 44605.28100000001,
      "d": 164.47374999999738,
      "v": 39
    },
    {
      "midi": 65,
      "hit": false,
      "t": 44605.28100000001,
      "d": 164.47374999999738,
      "v": 39
    },
    {
      "midi": 69,
      "hit": false,
      "t": 44605.28100000001,
      "d": 164.47374999999738,
      "v": 39
    },
    {
      "midi": 63,
      "hit": false,
      "t": 44605.28100000006,
      "d": 388.1580499999982,
      "v": 114
    },
    {
      "midi": 61,
      "hit": false,
      "t": 45000.01800000001,
      "d": 164.47374999999738,
      "v": 52
    },
    {
      "midi": 63,
      "hit": false,
      "t": 45000.01800000001,
      "d": 164.47374999999738,
      "v": 52
    },
    {
      "midi": 65,
      "hit": false,
      "t": 45000.01800000001,
      "d": 164.47374999999738,
      "v": 52
    },
    {
      "midi": 69,
      "hit": false,
      "t": 45000.01800000001,
      "d": 164.47374999999738,
      "v": 52
    },
    {
      "midi": 63,
      "hit": false,
      "t": 45000.01800000006,
      "d": 388.1580499999982,
      "v": 114
    },
    {
      "midi": 63,
      "hit": false,
      "t": 45394.75500000006,
      "d": 190.78955000000133,
      "v": 114
    },
    {
      "midi": 61,
      "hit": false,
      "t": 45407.91290000001,
      "d": 164.47374999999738,
      "v": 63
    },
    {
      "midi": 63,
      "hit": false,
      "t": 45407.91290000001,
      "d": 164.47374999999738,
      "v": 63
    },
    {
      "midi": 65,
      "hit": false,
      "t": 45407.91290000001,
      "d": 164.47374999999738,
      "v": 63
    },
    {
      "midi": 69,
      "hit": false,
      "t": 45407.91290000001,
      "d": 164.47374999999738,
      "v": 63
    },
    {
      "midi": 41,
      "hit": false,
      "t": 45592.12350000007,
      "d": 342.1054000000004,
      "v": 114
    },
    {
      "midi": 63,
      "hit": false,
      "t": 45592.12350000007,
      "d": 500.0002000000022,
      "v": 114
    },
    {
      "midi": 45,
      "hit": false,
      "t": 45789.492000000064,
      "d": 1717.1059500000047,
      "v": 114
    },
    {
      "midi": 63,
      "hit": false,
      "t": 46184.22900000007,
      "d": 282.89484999999695,
      "v": 114
    },
    {
      "midi": 66,
      "hit": false,
      "t": 46381.59750000007,
      "d": 967.1056499999977,
      "v": 114
    },
    {
      "midi": 61,
      "hit": false,
      "t": 46993.43985000001,
      "d": 3302.632900000004,
      "v": 61
    },
    {
      "midi": 65,
      "hit": false,
      "t": 46993.43985000001,
      "d": 3302.632900000004,
      "v": 61
    },
    {
      "midi": 68,
      "hit": false,
      "t": 46993.43985000001,
      "d": 3302.632900000004,
      "v": 61
    },
    {
      "midi": 70,
      "hit": false,
      "t": 46993.43985000001,
      "d": 3302.632900000004,
      "v": 61
    },
    {
      "midi": 46,
      "hit": false,
      "t": 47013.17670000001,
      "d": 2888.159050000002,
      "v": 46
    },
    {
      "midi": 46,
      "hit": false,
      "t": 47368.44000000007,
      "d": 1000.0004000000117,
      "v": 114
    },
    {
      "midi": 58,
      "hit": false,
      "t": 47368.44000000007,
      "d": 1664.4743500000186,
      "v": 114
    },
    {
      "midi": 53,
      "hit": false,
      "t": 47368.44000000007,
      "d": 1697.369100000018,
      "v": 114
    },
    {
      "midi": 63,
      "hit": false,
      "t": 47407.91370000007,
      "d": 250.00010000000475,
      "v": 114
    },
    {
      "midi": 61,
      "hit": false,
      "t": 47565.80850000007,
      "d": 190.78955000000133,
      "v": 114
    },
    {
      "midi": 61,
      "hit": false,
      "t": 47763.177000000076,
      "d": 388.1580499999982,
      "v": 114
    },
    {
      "midi": 61,
      "hit": false,
      "t": 48157.91400000008,
      "d": 388.15805000000546,
      "v": 114
    },
    {
      "midi": 46,
      "hit": false,
      "t": 48552.651000000085,
      "d": 388.1580499999982,
      "v": 114
    },
    {
      "midi": 61,
      "hit": false,
      "t": 48552.651000000085,
      "d": 500.0002000000022,
      "v": 114
    },
    {
      "midi": 46,
      "hit": false,
      "t": 48947.388000000086,
      "d": 776.3160999999964,
      "v": 114
    },
    {
      "midi": 63,
      "hit": false,
      "t": 48947.388000000086,
      "d": 855.2634999999937,
      "v": 114
    },
    {
      "midi": 58,
      "hit": false,
      "t": 49736.86200000008,
      "d": 322.36854999999923,
      "v": 114
    },
    {
      "midi": 61,
      "hit": false,
      "t": 49934.23050000008,
      "d": 302.63170000000537,
      "v": 114
    },
    {
      "midi": 37,
      "hit": false,
      "t": 50131.59900000008,
      "d": 190.78955000000133,
      "v": 114
    },
    {
      "midi": 65,
      "hit": false,
      "t": 50131.59900000008,
      "d": 269.7369500000059,
      "v": 114
    },
    {
      "midi": 38,
      "hit": false,
      "t": 50328.967500000086,
      "d": 190.78955000000133,
      "v": 114
    },
    {
      "midi": 63,
      "hit": false,
      "t": 50328.967500000086,
      "d": 282.8948500000042,
      "v": 114
    },
    {
      "midi": 39,
      "hit": false,
      "t": 50526.33600000002,
      "d": 539.4738999999972,
      "v": 48
    },
    {
      "midi": 58,
      "hit": false,
      "t": 50526.33600000002,
      "d": 1059.2109500000006,
      "v": 63
    },
    {
      "midi": 61,
      "hit": false,
      "t": 50526.33600000002,
      "d": 1059.2109500000006,
      "v": 63
    },
    {
      "midi": 63,
      "hit": false,
      "t": 50526.33600000002,
      "d": 1059.2109500000006,
      "v": 63
    },
    {
      "midi": 66,
      "hit": false,
      "t": 50526.33600000002,
      "d": 1059.2109500000006,
      "v": 63
    },
    {
      "midi": 39,
      "hit": false,
      "t": 50526.33600000009,
      "d": 1039.4740999999995,
      "v": 114
    },
    {
      "midi": 61,
      "hit": false,
      "t": 50526.33600000009,
      "d": 1717.1059500000047,
      "v": 114
    },
    {
      "midi": 66,
      "hit": false,
      "t": 50565.80970000009,
      "d": 1684.2112000000052,
      "v": 114
    },
    {
      "midi": 70,
      "hit": false,
      "t": 50921.07300000009,
      "d": 388.1580499999982,
      "v": 114
    },
    {
      "midi": 70,
      "hit": false,
      "t": 51315.81000000009,
      "d": 388.1580499999982,
      "v": 114
    },
    {
      "midi": 39,
      "hit": false,
      "t": 51710.54700000002,
      "d": 1151.3162499999962,
      "v": 48
    },
    {
      "midi": 39,
      "hit": false,
      "t": 51710.54700000009,
      "d": 388.1580499999982,
      "v": 114
    },
    {
      "midi": 70,
      "hit": false,
      "t": 51710.54700000009,
      "d": 388.1580499999982,
      "v": 114
    },
    {
      "midi": 58,
      "hit": false,
      "t": 51723.70490000002,
      "d": 217.105349999998,
      "v": 61
    },
    {
      "midi": 61,
      "hit": false,
      "t": 51723.70490000002,
      "d": 217.105349999998,
      "v": 61
    },
    {
      "midi": 63,
      "hit": false,
      "t": 51723.70490000002,
      "d": 217.105349999998,
      "v": 61
    },
    {
      "midi": 66,
      "hit": false,
      "t": 51723.70490000002,
      "d": 217.105349999998,
      "v": 61
    },
    {
      "midi": 70,
      "hit": false,
      "t": 52105.284000000094,
      "d": 388.15805000000546,
      "v": 114
    },
    {
      "midi": 39,
      "hit": false,
      "t": 52105.284000000094,
      "d": 1684.2112000000197,
      "v": 114
    },
    {
      "midi": 70,
      "hit": false,
      "t": 52500.0210000001,
      "d": 190.78955000000133,
      "v": 114
    },
    {
      "midi": 70,
      "hit": false,
      "t": 52697.38950000011,
      "d": 190.78955000000133,
      "v": 114
    },
    {
      "midi": 58,
      "hit": false,
      "t": 52894.758000000016,
      "d": 282.89484999999695,
      "v": 43
    },
    {
      "midi": 61,
      "hit": false,
      "t": 52894.758000000016,
      "d": 282.89484999999695,
      "v": 43
    },
    {
      "midi": 63,
      "hit": false,
      "t": 52894.758000000016,
      "d": 282.89484999999695,
      "v": 43
    },
    {
      "midi": 66,
      "hit": false,
      "t": 52894.758000000016,
      "d": 282.89484999999695,
      "v": 43
    },
    {
      "midi": 70,
      "hit": false,
      "t": 52894.75800000011,
      "d": 388.1580499999982,
      "v": 114
    },
    {
      "midi": 34,
      "hit": false,
      "t": 53289.49500000001,
      "d": 361.8422500000015,
      "v": 60
    },
    {
      "midi": 61,
      "hit": false,
      "t": 53289.49500000011,
      "d": 1894.7376000000004,
      "v": 114
    },
    {
      "midi": 71,
      "hit": false,
      "t": 53328.968700000114,
      "d": 875.0003500000021,
      "v": 114
    },
    {
      "midi": 44,
      "hit": false,
      "t": 53684.23200000011,
      "d": 1302.6321000000025,
      "v": 114
    },
    {
      "midi": 61,
      "hit": false,
      "t": 53690.810950000014,
      "d": 2934.2117,
      "v": 61
    },
    {
      "midi": 63,
      "hit": false,
      "t": 53690.810950000014,
      "d": 2934.2117,
      "v": 61
    },
    {
      "midi": 66,
      "hit": false,
      "t": 53690.810950000014,
      "d": 2934.2117,
      "v": 61
    },
    {
      "midi": 70,
      "hit": false,
      "t": 53690.810950000014,
      "d": 2934.2117,
      "v": 61
    },
    {
      "midi": 44,
      "hit": false,
      "t": 53710.547800000015,
      "d": 2519.7378499999977,
      "v": 46
    },
    {
      "midi": 68,
      "hit": false,
      "t": 54078.969000000114,
      "d": 190.78955000000133,
      "v": 114
    },
    {
      "midi": 66,
      "hit": false,
      "t": 54276.33750000012,
      "d": 269.7369499999986,
      "v": 114
    },
    {
      "midi": 68,
      "hit": false,
      "t": 54473.706000000115,
      "d": 578.9475999999995,
      "v": 114
    },
    {
      "midi": 44,
      "hit": false,
      "t": 55065.81150000011,
      "d": 190.78955000000133,
      "v": 114
    },
    {
      "midi": 61,
      "hit": false,
      "t": 55263.18000000012,
      "d": 776.3160999999964,
      "v": 114
    },
    {
      "midi": 54,
      "hit": false,
      "t": 55263.18000000012,
      "d": 894.7371999999959,
      "v": 114
    },
    {
      "midi": 58,
      "hit": false,
      "t": 55263.18000000012,
      "d": 914.4740499999971,
      "v": 114
    },
    {
      "midi": 44,
      "hit": false,
      "t": 55263.18000000012,
      "d": 1625.0006500000018,
      "v": 114
    },
    {
      "midi": 65,
      "hit": false,
      "t": 55309.232650000115,
      "d": 842.1055999999953,
      "v": 114
    },
    {
      "midi": 61,
      "hit": false,
      "t": 56052.65400000011,
      "d": 388.15805000000546,
      "v": 114
    },
    {
      "midi": 60,
      "hit": false,
      "t": 56447.39100000012,
      "d": 322.36854999999923,
      "v": 114
    },
    {
      "midi": 53,
      "hit": false,
      "t": 56644.75950000012,
      "d": 1072.3688500000062,
      "v": 114
    },
    {
      "midi": 56,
      "hit": false,
      "t": 56644.75950000012,
      "d": 1111.8425500000085,
      "v": 114
    },
    {
      "midi": 61,
      "hit": false,
      "t": 56684.23320000012,
      "d": 894.7372000000032,
      "v": 114
    },
    {
      "midi": 49,
      "hit": false,
      "t": 56842.12800000001,
      "d": 539.4738999999972,
      "v": 54
    },
    {
      "midi": 56,
      "hit": false,
      "t": 56842.12800000001,
      "d": 1118.4214999999967,
      "v": 69
    },
    {
      "midi": 61,
      "hit": false,
      "t": 56842.12800000001,
      "d": 1118.4214999999967,
      "v": 69
    },
    {
      "midi": 65,
      "hit": false,
      "t": 56842.12800000001,
      "d": 1118.4214999999967,
      "v": 69
    },
    {
      "midi": 37,
      "hit": false,
      "t": 56842.12800000012,
      "d": 1322.368950000011,
      "v": 114
    },
    {
      "midi": 61,
      "hit": false,
      "t": 57631.60200000012,
      "d": 388.15805000000546,
      "v": 114
    },
    {
      "midi": 39,
      "hit": false,
      "t": 58026.33900000001,
      "d": 1671.0532999999996,
      "v": 64
    },
    {
      "midi": 61,
      "hit": false,
      "t": 58026.33900000001,
      "d": 1723.6849000000002,
      "v": 59
    },
    {
      "midi": 63,
      "hit": false,
      "t": 58026.33900000001,
      "d": 1723.6849000000002,
      "v": 59
    },
    {
      "midi": 66,
      "hit": false,
      "t": 58026.33900000001,
      "d": 1723.6849000000002,
      "v": 59
    },
    {
      "midi": 70,
      "hit": false,
      "t": 58026.33900000001,
      "d": 1723.6849000000002,
      "v": 59
    },
    {
      "midi": 60,
      "hit": false,
      "t": 58026.33900000013,
      "d": 190.78955000000133,
      "v": 114
    },
    {
      "midi": 37,
      "hit": false,
      "t": 58223.707500000135,
      "d": 190.78955000000133,
      "v": 114
    },
    {
      "midi": 54,
      "hit": false,
      "t": 58223.707500000135,
      "d": 1039.4741000000067,
      "v": 114
    },
    {
      "midi": 58,
      "hit": false,
      "t": 58223.707500000135,
      "d": 1092.1057000000073,
      "v": 114
    },
    {
      "midi": 61,
      "hit": false,
      "t": 58263.18120000014,
      "d": 855.2635000000009,
      "v": 114
    },
    {
      "midi": 39,
      "hit": false,
      "t": 58421.07600000014,
      "d": 1769.7375500000053,
      "v": 114
    },
    {
      "midi": 61,
      "hit": false,
      "t": 59210.55000000014,
      "d": 388.1580499999982,
      "v": 114
    },
    {
      "midi": 60,
      "hit": false,
      "t": 59605.28700000014,
      "d": 302.6316999999981,
      "v": 114
    },
    {
      "midi": 56,
      "hit": false,
      "t": 59802.65550000014,
      "d": 1072.3688500000062,
      "v": 114
    },
    {
      "midi": 53,
      "hit": false,
      "t": 59802.65550000014,
      "d": 1092.1057000000073,
      "v": 114
    },
    {
      "midi": 61,
      "hit": false,
      "t": 59842.12920000014,
      "d": 842.1056000000026,
      "v": 114
    },
    {
      "midi": 53,
      "hit": false,
      "t": 60000.024000000005,
      "d": 1506.5795500000022,
      "v": 54
    },
    {
      "midi": 56,
      "hit": false,
      "t": 60000.024000000005,
      "d": 1552.6322,
      "v": 69
    },
    {
      "midi": 61,
      "hit": false,
      "t": 60000.024000000005,
      "d": 1552.6322,
      "v": 69
    },
    {
      "midi": 65,
      "hit": false,
      "t": 60000.024000000005,
      "d": 1552.6322,
      "v": 69
    },
    {
      "midi": 41,
      "hit": false,
      "t": 60000.02400000014,
      "d": 1302.6321000000025,
      "v": 114
    },
    {
      "midi": 61,
      "hit": false,
      "t": 60789.498000000145,
      "d": 388.1580499999982,
      "v": 114
    },
    {
      "midi": 63,
      "hit": false,
      "t": 61184.235000000146,
      "d": 190.78955000000133,
      "v": 114
    },
    {
      "midi": 41,
      "hit": false,
      "t": 61381.60350000015,
      "d": 190.78955000000133,
      "v": 114
    },
    {
      "midi": 61,
      "hit": false,
      "t": 61381.60350000015,
      "d": 625.0002500000046,
      "v": 114
    },
    {
      "midi": 58,
      "hit": false,
      "t": 61381.60350000015,
      "d": 677.6318500000052,
      "v": 114
    },
    {
      "midi": 65,
      "hit": false,
      "t": 61421.07720000015,
      "d": 625.0002500000046,
      "v": 114
    },
    {
      "midi": 42,
      "hit": false,
      "t": 61578.972,
      "d": 1506.5795500000022,
      "v": 54
    },
    {
      "midi": 58,
      "hit": false,
      "t": 61578.972,
      "d": 1552.6322,
      "v": 69
    },
    {
      "midi": 61,
      "hit": false,
      "t": 61578.972,
      "d": 1552.6322,
      "v": 69
    },
    {
      "midi": 65,
      "hit": false,
      "t": 61578.972,
      "d": 1552.6322,
      "v": 69
    },
    {
      "midi": 68,
      "hit": false,
      "t": 61578.972,
      "d": 1552.6322,
      "v": 69
    },
    {
      "midi": 42,
      "hit": false,
      "t": 61578.972000000154,
      "d": 967.1056499999977,
      "v": 114
    },
    {
      "midi": 63,
      "hit": false,
      "t": 61973.709000000155,
      "d": 302.6316999999981,
      "v": 114
    },
    {
      "midi": 61,
      "hit": false,
      "t": 62171.07750000015,
      "d": 578.9475999999995,
      "v": 114
    },
    {
      "midi": 60,
      "hit": false,
      "t": 62763.18300000015,
      "d": 250.00009999999747,
      "v": 114
    },
    {
      "midi": 42,
      "hit": false,
      "t": 62763.18300000015,
      "d": 539.4739000000045,
      "v": 114
    },
    {
      "midi": 54,
      "hit": false,
      "t": 62960.55150000015,
      "d": 717.1055500000075,
      "v": 114
    },
    {
      "midi": 58,
      "hit": false,
      "t": 62960.55150000015,
      "d": 730.2634500000058,
      "v": 114
    },
    {
      "midi": 58,
      "hit": false,
      "t": 63157.92,
      "d": 177.631650000003,
      "v": 77
    },
    {
      "midi": 61,
      "hit": false,
      "t": 63157.92,
      "d": 177.631650000003,
      "v": 77
    },
    {
      "midi": 63,
      "hit": false,
      "t": 63157.92,
      "d": 177.631650000003,
      "v": 77
    },
    {
      "midi": 66,
      "hit": false,
      "t": 63157.92,
      "d": 177.631650000003,
      "v": 77
    },
    {
      "midi": 39,
      "hit": false,
      "t": 63157.92,
      "d": 3131.5801999999967,
      "v": 66
    },
    {
      "midi": 39,
      "hit": false,
      "t": 63157.92000000015,
      "d": 1289.4742000000042,
      "v": 114
    },
    {
      "midi": 58,
      "hit": false,
      "t": 63552.657,
      "d": 164.47374999999738,
      "v": 41
    },
    {
      "midi": 61,
      "hit": false,
      "t": 63552.657,
      "d": 164.47374999999738,
      "v": 41
    },
    {
      "midi": 63,
      "hit": false,
      "t": 63552.657,
      "d": 164.47374999999738,
      "v": 41
    },
    {
      "midi": 66,
      "hit": false,
      "t": 63552.657,
      "d": 164.47374999999738,
      "v": 41
    },
    {
      "midi": 56,
      "hit": false,
      "t": 63552.65700000015,
      "d": 388.1580499999982,
      "v": 114
    },
    {
      "midi": 58,
      "hit": false,
      "t": 63947.394,
      "d": 164.47374999999738,
      "v": 54
    },
    {
      "midi": 61,
      "hit": false,
      "t": 63947.394,
      "d": 164.47374999999738,
      "v": 54
    },
    {
      "midi": 63,
      "hit": false,
      "t": 63947.394,
      "d": 164.47374999999738,
      "v": 54
    },
    {
      "midi": 66,
      "hit": false,
      "t": 63947.394,
      "d": 164.47374999999738,
      "v": 54
    },
    {
      "midi": 56,
      "hit": false,
      "t": 63947.39400000015,
      "d": 578.9475999999995,
      "v": 114
    },
    {
      "midi": 58,
      "hit": false,
      "t": 64355.2889,
      "d": 164.47374999999738,
      "v": 65
    },
    {
      "midi": 61,
      "hit": false,
      "t": 64355.2889,
      "d": 164.47374999999738,
      "v": 65
    },
    {
      "midi": 63,
      "hit": false,
      "t": 64355.2889,
      "d": 164.47374999999738,
      "v": 65
    },
    {
      "midi": 66,
      "hit": false,
      "t": 64355.2889,
      "d": 164.47374999999738,
      "v": 65
    },
    {
      "midi": 39,
      "hit": false,
      "t": 64539.49950000015,
      "d": 190.78955000000133,
      "v": 114
    },
    {
      "midi": 54,
      "hit": false,
      "t": 64736.868000000155,
      "d": 552.6318000000028,
      "v": 114
    },
    {
      "midi": 39,
      "hit": false,
      "t": 64736.868000000155,
      "d": 1072.3688499999917,
      "v": 114
    },
    {
      "midi": 58,
      "hit": false,
      "t": 65131.605000000156,
      "d": 519.7370499999961,
      "v": 114
    },
    {
      "midi": 63,
      "hit": false,
      "t": 65526.34200000016,
      "d": 519.7370499999888,
      "v": 114
    },
    {
      "midi": 41,
      "hit": false,
      "t": 65723.71050000015,
      "d": 190.78955000000133,
      "v": 114
    },
    {
      "midi": 56,
      "hit": false,
      "t": 65921.07900000014,
      "d": 190.78955000000133,
      "v": 114
    },
    {
      "midi": 42,
      "hit": false,
      "t": 65921.07900000014,
      "d": 302.6316999999981,
      "v": 114
    },
    {
      "midi": 39,
      "hit": false,
      "t": 66118.44750000014,
      "d": 322.36854999999923,
      "v": 114
    },
    {
      "midi": 44,
      "hit": false,
      "t": 66315.81600000014,
      "d": 986.8424999999988,
      "v": 114
    },
    {
      "midi": 54,
      "hit": false,
      "t": 66315.81600000014,
      "d": 1157.895199999999,
      "v": 114
    },
    {
      "midi": 61,
      "hit": false,
      "t": 66322.39495,
      "d": 2934.2117,
      "v": 69
    },
    {
      "midi": 63,
      "hit": false,
      "t": 66322.39495,
      "d": 2934.2117,
      "v": 69
    },
    {
      "midi": 66,
      "hit": false,
      "t": 66322.39495,
      "d": 2934.2117,
      "v": 69
    },
    {
      "midi": 70,
      "hit": false,
      "t": 66322.39495,
      "d": 2934.2117,
      "v": 69
    },
    {
      "midi": 44,
      "hit": false,
      "t": 66342.1318,
      "d": 2519.737850000005,
      "v": 54
    },
    {
      "midi": 56,
      "hit": false,
      "t": 66355.28970000014,
      "d": 1125.0004499999923,
      "v": 114
    },
    {
      "midi": 63,
      "hit": false,
      "t": 67500.02700000013,
      "d": 190.78955000000133,
      "v": 114
    },
    {
      "midi": 44,
      "hit": false,
      "t": 67500.02700000013,
      "d": 322.36854999999923,
      "v": 114
    },
    {
      "midi": 54,
      "hit": false,
      "t": 67697.39550000013,
      "d": 697.3686999999918,
      "v": 114
    },
    {
      "midi": 58,
      "hit": false,
      "t": 67697.39550000013,
      "d": 697.3686999999918,
      "v": 114
    },
    {
      "midi": 63,
      "hit": false,
      "t": 67730.29025000014,
      "d": 697.3686999999918,
      "v": 114
    },
    {
      "midi": 44,
      "hit": false,
      "t": 67894.76400000013,
      "d": 1000.0004000000044,
      "v": 114
    },
    {
      "midi": 65,
      "hit": false,
      "t": 68289.50100000012,
      "d": 572.368650000004,
      "v": 114
    },
    {
      "midi": 54,
      "hit": false,
      "t": 68684.23800000013,
      "d": 427.631750000015,
      "v": 114
    },
    {
      "midi": 58,
      "hit": false,
      "t": 68684.23800000013,
      "d": 447.36860000001616,
      "v": 114
    },
    {
      "midi": 61,
      "hit": false,
      "t": 68723.71170000013,
      "d": 394.73700000000827,
      "v": 114
    },
    {
      "midi": 60,
      "hit": false,
      "t": 69078.97500000014,
      "d": 322.3685500000138,
      "v": 114
    },
    {
      "midi": 44,
      "hit": false,
      "t": 69078.97500000014,
      "d": 480.26335000000836,
      "v": 114
    },
    {
      "midi": 53,
      "hit": false,
      "t": 69276.34350000015,
      "d": 1072.368849999999,
      "v": 114
    },
    {
      "midi": 56,
      "hit": false,
      "t": 69276.34350000015,
      "d": 1072.368849999999,
      "v": 114
    },
    {
      "midi": 61,
      "hit": false,
      "t": 69309.23825000015,
      "d": 894.7371999999887,
      "v": 114
    },
    {
      "midi": 49,
      "hit": false,
      "t": 69473.712,
      "d": 539.4738999999972,
      "v": 54
    },
    {
      "midi": 56,
      "hit": false,
      "t": 69473.712,
      "d": 1118.4214999999967,
      "v": 69
    },
    {
      "midi": 61,
      "hit": false,
      "t": 69473.712,
      "d": 1118.4214999999967,
      "v": 69
    },
    {
      "midi": 65,
      "hit": false,
      "t": 69473.712,
      "d": 1118.4214999999967,
      "v": 69
    },
    {
      "midi": 37,
      "hit": false,
      "t": 69473.71200000015,
      "d": 1269.7373499999958,
      "v": 114
    },
    {
      "midi": 61,
      "hit": false,
      "t": 70263.18600000015,
      "d": 388.1580499999982,
      "v": 114
    },
    {
      "midi": 39,
      "hit": false,
      "t": 70657.923,
      "d": 1671.0532999999996,
      "v": 64
    },
    {
      "midi": 61,
      "hit": false,
      "t": 70657.923,
      "d": 1723.684899999993,
      "v": 59
    },
    {
      "midi": 63,
      "hit": false,
      "t": 70657.923,
      "d": 1723.684899999993,
      "v": 59
    },
    {
      "midi": 66,
      "hit": false,
      "t": 70657.923,
      "d": 1723.684899999993,
      "v": 59
    },
    {
      "midi": 70,
      "hit": false,
      "t": 70657.923,
      "d": 1723.684899999993,
      "v": 59
    },
    {
      "midi": 60,
      "hit": false,
      "t": 70657.92300000014,
      "d": 322.36854999999923,
      "v": 114
    },
    {
      "midi": 37,
      "hit": false,
      "t": 70855.29150000014,
      "d": 190.78955000000133,
      "v": 114
    },
    {
      "midi": 54,
      "hit": false,
      "t": 70855.29150000014,
      "d": 1072.3688499999844,
      "v": 114
    },
    {
      "midi": 58,
      "hit": false,
      "t": 70855.29150000014,
      "d": 1072.3688499999844,
      "v": 114
    },
    {
      "midi": 61,
      "hit": false,
      "t": 70894.76520000014,
      "d": 894.7371999999887,
      "v": 114
    },
    {
      "midi": 39,
      "hit": false,
      "t": 71052.66000000013,
      "d": 1697.3690999999817,
      "v": 114
    },
    {
      "midi": 61,
      "hit": false,
      "t": 71842.13400000012,
      "d": 388.1580499999982,
      "v": 114
    },
    {
      "midi": 61,
      "hit": false,
      "t": 72236.87100000012,
      "d": 190.78955000000133,
      "v": 114
    },
    {
      "midi": 65,
      "hit": false,
      "t": 72434.23950000011,
      "d": 664.4739499999996,
      "v": 114
    },
    {
      "midi": 61,
      "hit": false,
      "t": 72434.23950000011,
      "d": 697.3687000000064,
      "v": 114
    },
    {
      "midi": 70,
      "hit": false,
      "t": 72473.71320000011,
      "d": 664.4739499999996,
      "v": 114
    },
    {
      "midi": 53,
      "hit": false,
      "t": 72631.608,
      "d": 1506.579549999995,
      "v": 54
    },
    {
      "midi": 56,
      "hit": false,
      "t": 72631.608,
      "d": 1552.6321999999927,
      "v": 69
    },
    {
      "midi": 61,
      "hit": false,
      "t": 72631.608,
      "d": 1552.6321999999927,
      "v": 69
    },
    {
      "midi": 65,
      "hit": false,
      "t": 72631.608,
      "d": 1552.6321999999927,
      "v": 69
    },
    {
      "midi": 41,
      "hit": false,
      "t": 72631.60800000011,
      "d": 1717.1059499999974,
      "v": 114
    },
    {
      "midi": 68,
      "hit": false,
      "t": 73026.34500000012,
      "d": 190.78955000000133,
      "v": 114
    },
    {
      "midi": 68,
      "hit": false,
      "t": 73223.71350000011,
      "d": 388.1580499999982,
      "v": 114
    },
    {
      "midi": 68,
      "hit": false,
      "t": 73618.45050000011,
      "d": 190.78955000000133,
      "v": 114
    },
    {
      "midi": 63,
      "hit": false,
      "t": 73815.8190000001,
      "d": 1875.0007500000065,
      "v": 114
    },
    {
      "midi": 66,
      "hit": false,
      "t": 73815.8190000001,
      "d": 1894.7376000000077,
      "v": 114
    },
    {
      "midi": 70,
      "hit": false,
      "t": 73815.8190000001,
      "d": 1894.7376000000077,
      "v": 114
    },
    {
      "midi": 73,
      "hit": false,
      "t": 73855.29270000011,
      "d": 1861.842850000001,
      "v": 114
    },
    {
      "midi": 47,
      "hit": false,
      "t": 74210.55599999998,
      "d": 1506.579549999995,
      "v": 54
    },
    {
      "midi": 58,
      "hit": false,
      "t": 74210.55599999998,
      "d": 1552.6321999999927,
      "v": 69
    },
    {
      "midi": 61,
      "hit": false,
      "t": 74210.55599999998,
      "d": 1552.6321999999927,
      "v": 69
    },
    {
      "midi": 63,
      "hit": false,
      "t": 74210.55599999998,
      "d": 1552.6321999999927,
      "v": 69
    },
    {
      "midi": 66,
      "hit": false,
      "t": 74210.55599999998,
      "d": 1552.6321999999927,
      "v": 69
    },
    {
      "midi": 35,
      "hit": false,
      "t": 74210.55600000011,
      "d": 1822.369149999984,
      "v": 114
    },
    {
      "midi": 61,
      "hit": false,
      "t": 75592.1355000001,
      "d": 190.78955000000133,
      "v": 114
    },
    {
      "midi": 61,
      "hit": false,
      "t": 75789.50399999997,
      "d": 177.63164999999572,
      "v": 77
    },
    {
      "midi": 63,
      "hit": false,
      "t": 75789.50399999997,
      "d": 177.63164999999572,
      "v": 77
    },
    {
      "midi": 66,
      "hit": false,
      "t": 75789.50399999997,
      "d": 177.63164999999572,
      "v": 77
    },
    {
      "midi": 70,
      "hit": false,
      "t": 75789.50399999997,
      "d": 177.63164999999572,
      "v": 77
    },
    {
      "midi": 39,
      "hit": false,
      "t": 75789.50399999997,
      "d": 3131.5802000000112,
      "v": 66
    },
    {
      "midi": 66,
      "hit": false,
      "t": 75789.5040000001,
      "d": 388.1580499999982,
      "v": 114
    },
    {
      "midi": 58,
      "hit": false,
      "t": 75789.5040000001,
      "d": 539.4738999999972,
      "v": 114
    },
    {
      "midi": 61,
      "hit": false,
      "t": 75789.5040000001,
      "d": 552.6318000000028,
      "v": 114
    },
    {
      "midi": 39,
      "hit": false,
      "t": 75789.5040000001,
      "d": 1289.474199999997,
      "v": 114
    },
    {
      "midi": 61,
      "hit": false,
      "t": 76184.24099999997,
      "d": 164.47375000000466,
      "v": 41
    },
    {
      "midi": 63,
      "hit": false,
      "t": 76184.24099999997,
      "d": 164.47375000000466,
      "v": 41
    },
    {
      "midi": 66,
      "hit": false,
      "t": 76184.24099999997,
      "d": 164.47375000000466,
      "v": 41
    },
    {
      "midi": 70,
      "hit": false,
      "t": 76184.24099999997,
      "d": 164.47375000000466,
      "v": 41
    },
    {
      "midi": 66,
      "hit": false,
      "t": 76184.2410000001,
      "d": 190.78955000001588,
      "v": 114
    },
    {
      "midi": 68,
      "hit": false,
      "t": 76381.60950000011,
      "d": 388.1580499999982,
      "v": 114
    },
    {
      "midi": 61,
      "hit": false,
      "t": 76578.97799999997,
      "d": 164.47375000000466,
      "v": 54
    },
    {
      "midi": 63,
      "hit": false,
      "t": 76578.97799999997,
      "d": 164.47375000000466,
      "v": 54
    },
    {
      "midi": 66,
      "hit": false,
      "t": 76578.97799999997,
      "d": 164.47375000000466,
      "v": 54
    },
    {
      "midi": 70,
      "hit": false,
      "t": 76578.97799999997,
      "d": 164.47375000000466,
      "v": 54
    },
    {
      "midi": 68,
      "hit": false,
      "t": 76776.3465000001,
      "d": 342.1054000000004,
      "v": 114
    },
    {
      "midi": 61,
      "hit": false,
      "t": 76973.7150000001,
      "d": 1664.4743499999895,
      "v": 114
    },
    {
      "midi": 66,
      "hit": false,
      "t": 76973.7150000001,
      "d": 1894.737599999993,
      "v": 114
    },
    {
      "midi": 61,
      "hit": false,
      "t": 76986.87289999997,
      "d": 164.47375000000466,
      "v": 65
    },
    {
      "midi": 63,
      "hit": false,
      "t": 76986.87289999997,
      "d": 164.47375000000466,
      "v": 65
    },
    {
      "midi": 66,
      "hit": false,
      "t": 76986.87289999997,
      "d": 164.47375000000466,
      "v": 65
    },
    {
      "midi": 70,
      "hit": false,
      "t": 76986.87289999997,
      "d": 164.47375000000466,
      "v": 65
    },
    {
      "midi": 70,
      "hit": false,
      "t": 77006.6097500001,
      "d": 1894.737599999993,
      "v": 114
    },
    {
      "midi": 39,
      "hit": false,
      "t": 77171.0835000001,
      "d": 190.78955000000133,
      "v": 114
    },
    {
      "midi": 39,
      "hit": false,
      "t": 77368.45200000009,
      "d": 1789.4744000000064,
      "v": 114
    },
    {
      "midi": 61,
      "hit": false,
      "t": 78750.03150000008,
      "d": 190.78955000001588,
      "v": 114
    },
    {
      "midi": 57,
      "hit": false,
      "t": 78947.4000000001,
      "d": 500.00019999999495,
      "v": 114
    },
    {
      "midi": 61,
      "hit": false,
      "t": 78947.4000000001,
      "d": 500.00019999999495,
      "v": 114
    },
    {
      "midi": 47,
      "hit": false,
      "t": 78947.4000000001,
      "d": 1000.0003999999899,
      "v": 114
    },
    {
      "midi": 57,
      "hit": false,
      "t": 78953.97894999999,
      "d": 322.36854999999923,
      "v": 63
    },
    {
      "midi": 61,
      "hit": false,
      "t": 78953.97894999999,
      "d": 322.36854999999923,
      "v": 63
    },
    {
      "midi": 64,
      "hit": false,
      "t": 78953.97894999999,
      "d": 322.36854999999923,
      "v": 63
    },
    {
      "midi": 47,
      "hit": false,
      "t": 78973.71579999999,
      "d": 302.6316999999981,
      "v": 60
    },
    {
      "midi": 64,
      "hit": false,
      "t": 78986.8737000001,
      "d": 348.6843499999959,
      "v": 114
    },
    {
      "midi": 64,
      "hit": false,
      "t": 79342.13700000009,
      "d": 322.36854999999923,
      "v": 114
    },
    {
      "midi": 58,
      "hit": false,
      "t": 79348.71594999998,
      "d": 1125.0004500000068,
      "v": 63
    },
    {
      "midi": 61,
      "hit": false,
      "t": 79348.71594999998,
      "d": 1125.0004500000068,
      "v": 63
    },
    {
      "midi": 63,
      "hit": false,
      "t": 79348.71594999998,
      "d": 1125.0004500000068,
      "v": 63
    },
    {
      "midi": 66,
      "hit": false,
      "t": 79348.71594999998,
      "d": 1125.0004500000068,
      "v": 63
    },
    {
      "midi": 44,
      "hit": false,
      "t": 79368.45279999998,
      "d": 1125.0004500000068,
      "v": 60
    },
    {
      "midi": 66,
      "hit": false,
      "t": 79539.50550000009,
      "d": 388.1580499999982,
      "v": 114
    },
    {
      "midi": 66,
      "hit": false,
      "t": 79934.24250000008,
      "d": 342.1054000000149,
      "v": 114
    },
    {
      "midi": 58,
      "hit": false,
      "t": 80131.61100000009,
      "d": 776.3160999999964,
      "v": 114
    },
    {
      "midi": 61,
      "hit": false,
      "t": 80131.61100000009,
      "d": 776.3160999999964,
      "v": 114
    },
    {
      "midi": 44,
      "hit": false,
      "t": 80131.61100000009,
      "d": 2072.369249999989,
      "v": 114
    },
    {
      "midi": 63,
      "hit": false,
      "t": 80164.5057500001,
      "d": 894.7371999999887,
      "v": 114
    },
    {
      "midi": 68,
      "hit": false,
      "t": 80171.0847000001,
      "d": 842.1055999999953,
      "v": 114
    },
    {
      "midi": 44,
      "hit": false,
      "t": 80526.348,
      "d": 1506.579549999995,
      "v": 54
    },
    {
      "midi": 58,
      "hit": false,
      "t": 80526.348,
      "d": 1552.6321999999927,
      "v": 69
    },
    {
      "midi": 61,
      "hit": false,
      "t": 80526.348,
      "d": 1552.6321999999927,
      "v": 69
    },
    {
      "midi": 63,
      "hit": false,
      "t": 80526.348,
      "d": 1552.6321999999927,
      "v": 69
    },
    {
      "midi": 66,
      "hit": false,
      "t": 80526.348,
      "d": 1552.6321999999927,
      "v": 69
    },
    {
      "midi": 61,
      "hit": false,
      "t": 80921.0850000001,
      "d": 388.1580499999982,
      "v": 114
    },
    {
      "midi": 61,
      "hit": false,
      "t": 81315.82200000009,
      "d": 388.1580499999982,
      "v": 114
    },
    {
      "midi": 60,
      "hit": false,
      "t": 81710.55900000008,
      "d": 302.6316999999981,
      "v": 114
    },
    {
      "midi": 53,
      "hit": false,
      "t": 81907.92750000008,
      "d": 2743.422150000013,
      "v": 114
    },
    {
      "midi": 56,
      "hit": false,
      "t": 81907.92750000008,
      "d": 2743.422150000013,
      "v": 114
    },
    {
      "midi": 61,
      "hit": false,
      "t": 81947.40120000008,
      "d": 2743.422150000013,
      "v": 114
    },
    {
      "midi": 49,
      "hit": false,
      "t": 82105.29599999999,
      "d": 539.4738999999972,
      "v": 56
    },
    {
      "midi": 56,
      "hit": false,
      "t": 82105.29599999999,
      "d": 1059.2109499999933,
      "v": 71
    },
    {
      "midi": 61,
      "hit": false,
      "t": 82105.29599999999,
      "d": 1059.2109499999933,
      "v": 71
    },
    {
      "midi": 65,
      "hit": false,
      "t": 82105.29599999999,
      "d": 1059.2109499999933,
      "v": 71
    },
    {
      "midi": 37,
      "hit": false,
      "t": 82105.29600000007,
      "d": 2513.1589000000095,
      "v": 114
    },
    {
      "midi": 49,
      "hit": false,
      "t": 83289.50699999998,
      "d": 1151.3162500000035,
      "v": 56
    },
    {
      "midi": 56,
      "hit": false,
      "t": 83302.66489999999,
      "d": 217.105349999998,
      "v": 69
    },
    {
      "midi": 61,
      "hit": false,
      "t": 83302.66489999999,
      "d": 217.105349999998,
      "v": 69
    },
    {
      "midi": 65,
      "hit": false,
      "t": 83302.66489999999,
      "d": 217.105349999998,
      "v": 69
    },
    {
      "midi": 56,
      "hit": false,
      "t": 84473.718,
      "d": 282.89484999999695,
      "v": 51
    },
    {
      "midi": 61,
      "hit": false,
      "t": 84473.718,
      "d": 282.89484999999695,
      "v": 51
    },
    {
      "midi": 65,
      "hit": false,
      "t": 84473.718,
      "d": 282.89484999999695,
      "v": 51
    },
    {
      "midi": 63,
      "hit": false,
      "t": 84671.08650000009,
      "d": 190.78955000000133,
      "v": 114
    },
    {
      "midi": 44,
      "hit": false,
      "t": 84868.45499999999,
      "d": 361.8422500000015,
      "v": 68
    },
    {
      "midi": 64,
      "hit": false,
      "t": 84868.45500000009,
      "d": 190.78955000000133,
      "v": 114
    },
    {
      "midi": 66,
      "hit": false,
      "t": 85065.82350000009,
      "d": 190.78955000000133,
      "v": 114
    },
    {
      "midi": 52,
      "hit": false,
      "t": 85263.192,
      "d": 1506.579549999995,
      "v": 54
    },
    {
      "midi": 61,
      "hit": false,
      "t": 85263.192,
      "d": 1552.6321999999927,
      "v": 69
    },
    {
      "midi": 64,
      "hit": false,
      "t": 85263.192,
      "d": 1552.6321999999927,
      "v": 69
    },
    {
      "midi": 68,
      "hit": false,
      "t": 85263.192,
      "d": 1552.6321999999927,
      "v": 69
    },
    {
      "midi": 71,
      "hit": false,
      "t": 85263.192,
      "d": 1552.6321999999927,
      "v": 69
    },
    {
      "midi": 40,
      "hit": false,
      "t": 85263.19200000008,
      "d": 388.1580499999982,
      "v": 114
    },
    {
      "midi": 57,
      "hit": false,
      "t": 85263.19200000008,
      "d": 388.1580499999982,
      "v": 114
    },
    {
      "midi": 61,
      "hit": false,
      "t": 85263.19200000008,
      "d": 388.1580499999982,
      "v": 114
    },
    {
      "midi": 64,
      "hit": false,
      "t": 85263.19200000008,
      "d": 388.1580499999982,
      "v": 114
    },
    {
      "midi": 68,
      "hit": false,
      "t": 85263.19200000008,
      "d": 388.1580499999982,
      "v": 114
    },
    {
      "midi": 57,
      "hit": false,
      "t": 85657.92900000008,
      "d": 644.7370999999985,
      "v": 114
    },
    {
      "midi": 64,
      "hit": false,
      "t": 85657.92900000008,
      "d": 644.7370999999985,
      "v": 114
    },
    {
      "midi": 61,
      "hit": false,
      "t": 85657.92900000008,
      "d": 677.6318499999907,
      "v": 114
    },
    {
      "midi": 40,
      "hit": false,
      "t": 85657.92900000008,
      "d": 1157.8951999999845,
      "v": 114
    },
    {
      "midi": 68,
      "hit": false,
      "t": 85703.98165000007,
      "d": 605.2633999999962,
      "v": 114
    },
    {
      "midi": 40,
      "hit": false,
      "t": 86842.14000000006,
      "d": 190.78955000000133,
      "v": 114
    },
    {
      "midi": 57,
      "hit": false,
      "t": 86842.14000000006,
      "d": 190.78955000000133,
      "v": 114
    },
    {
      "midi": 61,
      "hit": false,
      "t": 86842.14000000006,
      "d": 190.78955000000133,
      "v": 114
    },
    {
      "midi": 64,
      "hit": false,
      "t": 86842.14000000006,
      "d": 190.78955000000133,
      "v": 114
    },
    {
      "midi": 68,
      "hit": false,
      "t": 86842.14000000006,
      "d": 190.78955000000133,
      "v": 114
    },
    {
      "midi": 61,
      "hit": false,
      "t": 86848.71895,
      "d": 743.4213500000042,
      "v": 63
    },
    {
      "midi": 64,
      "hit": false,
      "t": 86848.71895,
      "d": 743.4213500000042,
      "v": 63
    },
    {
      "midi": 68,
      "hit": false,
      "t": 86848.71895,
      "d": 743.4213500000042,
      "v": 63
    },
    {
      "midi": 71,
      "hit": false,
      "t": 86848.71895,
      "d": 743.4213500000042,
      "v": 63
    },
    {
      "midi": 52,
      "hit": false,
      "t": 86868.4558,
      "d": 743.4213500000042,
      "v": 60
    },
    {
      "midi": 40,
      "hit": false,
      "t": 87039.50850000005,
      "d": 427.63175000000047,
      "v": 114
    },
    {
      "midi": 57,
      "hit": false,
      "t": 87039.50850000005,
      "d": 427.63175000000047,
      "v": 114
    },
    {
      "midi": 61,
      "hit": false,
      "t": 87039.50850000005,
      "d": 467.10545000000275,
      "v": 114
    },
    {
      "midi": 64,
      "hit": false,
      "t": 87039.50850000005,
      "d": 467.10545000000275,
      "v": 114
    },
    {
      "midi": 68,
      "hit": false,
      "t": 87072.40325000006,
      "d": 414.47384999999485,
      "v": 114
    },
    {
      "midi": 39,
      "hit": false,
      "t": 87631.61400000006,
      "d": 190.78955000000133,
      "v": 114
    },
    {
      "midi": 61,
      "hit": false,
      "t": 87631.61400000006,
      "d": 190.78955000000133,
      "v": 114
    },
    {
      "midi": 58,
      "hit": false,
      "t": 87631.61400000006,
      "d": 414.47384999999485,
      "v": 114
    },
    {
      "midi": 66,
      "hit": false,
      "t": 87631.61400000006,
      "d": 447.3686000000016,
      "v": 114
    },
    {
      "midi": 58,
      "hit": false,
      "t": 87638.19295,
      "d": 743.4213500000042,
      "v": 63
    },
    {
      "midi": 61,
      "hit": false,
      "t": 87638.19295,
      "d": 743.4213500000042,
      "v": 63
    },
    {
      "midi": 63,
      "hit": false,
      "t": 87638.19295,
      "d": 743.4213500000042,
      "v": 63
    },
    {
      "midi": 66,
      "hit": false,
      "t": 87638.19295,
      "d": 743.4213500000042,
      "v": 63
    },
    {
      "midi": 39,
      "hit": false,
      "t": 87657.9298,
      "d": 743.4213500000042,
      "v": 60
    },
    {
      "midi": 63,
      "hit": false,
      "t": 87671.08770000006,
      "d": 414.47384999999485,
      "v": 114
    },
    {
      "midi": 39,
      "hit": false,
      "t": 87828.98250000006,
      "d": 480.2633499999938,
      "v": 114
    },
    {
      "midi": 60,
      "hit": false,
      "t": 88026.35100000005,
      "d": 302.6316999999981,
      "v": 114
    },
    {
      "midi": 53,
      "hit": false,
      "t": 88223.71950000005,
      "d": 2256.57984999998,
      "v": 114
    },
    {
      "midi": 56,
      "hit": false,
      "t": 88223.71950000005,
      "d": 2256.57984999998,
      "v": 114
    },
    {
      "midi": 61,
      "hit": false,
      "t": 88263.19320000005,
      "d": 2164.4745499999844,
      "v": 114
    },
    {
      "midi": 56,
      "hit": false,
      "t": 88421.088,
      "d": 177.63164999999572,
      "v": 75
    },
    {
      "midi": 61,
      "hit": false,
      "t": 88421.088,
      "d": 177.63164999999572,
      "v": 75
    },
    {
      "midi": 65,
      "hit": false,
      "t": 88421.088,
      "d": 177.63164999999572,
      "v": 75
    },
    {
      "midi": 49,
      "hit": false,
      "t": 88421.088,
      "d": 3131.5802000000112,
      "v": 64
    },
    {
      "midi": 37,
      "hit": false,
      "t": 88421.08800000005,
      "d": 1355.2636999999959,
      "v": 114
    },
    {
      "midi": 56,
      "hit": false,
      "t": 88815.825,
      "d": 164.47375000000466,
      "v": 39
    },
    {
      "midi": 61,
      "hit": false,
      "t": 88815.825,
      "d": 164.47375000000466,
      "v": 39
    },
    {
      "midi": 65,
      "hit": false,
      "t": 88815.825,
      "d": 164.47375000000466,
      "v": 39
    },
    {
      "midi": 56,
      "hit": false,
      "t": 89210.562,
      "d": 164.47375000000466,
      "v": 52
    },
    {
      "midi": 61,
      "hit": false,
      "t": 89210.562,
      "d": 164.47375000000466,
      "v": 52
    },
    {
      "midi": 65,
      "hit": false,
      "t": 89210.562,
      "d": 164.47375000000466,
      "v": 52
    },
    {
      "midi": 56,
      "hit": false,
      "t": 89618.4569,
      "d": 164.47375000000466,
      "v": 63
    },
    {
      "midi": 61,
      "hit": false,
      "t": 89618.4569,
      "d": 164.47375000000466,
      "v": 63
    },
    {
      "midi": 65,
      "hit": false,
      "t": 89618.4569,
      "d": 164.47375000000466,
      "v": 63
    },
    {
      "midi": 37,
      "hit": false,
      "t": 89802.66750000004,
      "d": 190.78955000000133,
      "v": 114
    },
    {
      "midi": 37,
      "hit": false,
      "t": 90000.03600000004,
      "d": 1697.3690999999817,
      "v": 114
    },
    {
      "midi": 61,
      "hit": false,
      "t": 90789.51000000002,
      "d": 467.1054499999882,
      "v": 114
    },
    {
      "midi": 60,
      "hit": false,
      "t": 91184.24700000002,
      "d": 190.78955000000133,
      "v": 114
    },
    {
      "midi": 56,
      "hit": false,
      "t": 91381.61550000001,
      "d": 2434.211500000005,
      "v": 114
    },
    {
      "midi": 60,
      "hit": false,
      "t": 91381.61550000001,
      "d": 2434.211500000005,
      "v": 114
    },
    {
      "midi": 63,
      "hit": false,
      "t": 91381.61550000001,
      "d": 2434.211500000005,
      "v": 114
    },
    {
      "midi": 36,
      "hit": false,
      "t": 91578.98400000001,
      "d": 3131.5801999999967,
      "v": 66
    },
    {
      "midi": 36,
      "hit": false,
      "t": 91578.98400000001,
      "d": 1355.2637000000104,
      "v": 114
    },
    {
      "midi": 56,
      "hit": false,
      "t": 92368.45800000001,
      "d": 2342.1061999999947,
      "v": 67
    },
    {
      "midi": 60,
      "hit": false,
      "t": 92368.45800000001,
      "d": 2342.1061999999947,
      "v": 67
    },
    {
      "midi": 63,
      "hit": false,
      "t": 92368.45800000001,
      "d": 2342.1061999999947,
      "v": 67
    },
    {
      "midi": 36,
      "hit": false,
      "t": 92960.56350000002,
      "d": 190.78955000000133,
      "v": 114
    },
    {
      "midi": 36,
      "hit": false,
      "t": 93157.93200000002,
      "d": 1697.3691000000108,
      "v": 114
    },
    {
      "midi": 63,
      "hit": false,
      "t": 94342.14300000003,
      "d": 282.89484999999695,
      "v": 114
    },
    {
      "midi": 65,
      "hit": false,
      "t": 94539.51150000002,
      "d": 190.78955000000133,
      "v": 114
    },
    {
      "midi": 61,
      "hit": false,
      "t": 94736.88,
      "d": 177.63164999999572,
      "v": 75
    },
    {
      "midi": 66,
      "hit": false,
      "t": 94736.88,
      "d": 177.63164999999572,
      "v": 75
    },
    {
      "midi": 70,
      "hit": false,
      "t": 94736.88,
      "d": 177.63164999999572,
      "v": 75
    },
    {
      "midi": 34,
      "hit": false,
      "t": 94736.88,
      "d": 3131.5802000000112,
      "v": 64
    },
    {
      "midi": 61,
      "hit": false,
      "t": 94736.88000000002,
      "d": 894.7372000000032,
      "v": 114
    },
    {
      "midi": 58,
      "hit": false,
      "t": 94736.88000000002,
      "d": 914.4740500000044,
      "v": 114
    },
    {
      "midi": 34,
      "hit": false,
      "t": 94736.88000000002,
      "d": 1500.000600000014,
      "v": 114
    },
    {
      "midi": 66,
      "hit": false,
      "t": 94776.35370000002,
      "d": 348.68435000001045,
      "v": 114
    },
    {
      "midi": 61,
      "hit": false,
      "t": 95131.617,
      "d": 164.47375000000466,
      "v": 39
    },
    {
      "midi": 66,
      "hit": false,
      "t": 95131.617,
      "d": 164.47375000000466,
      "v": 39
    },
    {
      "midi": 70,
      "hit": false,
      "t": 95131.617,
      "d": 164.47375000000466,
      "v": 39
    },
    {
      "midi": 66,
      "hit": false,
      "t": 95131.61700000003,
      "d": 190.78955000000133,
      "v": 114
    },
    {
      "midi": 66,
      "hit": false,
      "t": 95328.98550000002,
      "d": 578.9475999999995,
      "v": 114
    },
    {
      "midi": 61,
      "hit": false,
      "t": 95526.354,
      "d": 164.47375000000466,
      "v": 52
    },
    {
      "midi": 66,
      "hit": false,
      "t": 95526.354,
      "d": 164.47375000000466,
      "v": 52
    },
    {
      "midi": 70,
      "hit": false,
      "t": 95526.354,
      "d": 164.47375000000466,
      "v": 52
    },
    {
      "midi": 65,
      "hit": false,
      "t": 95921.09100000003,
      "d": 322.36854999999923,
      "v": 114
    },
    {
      "midi": 61,
      "hit": false,
      "t": 95934.2489,
      "d": 164.47375000000466,
      "v": 63
    },
    {
      "midi": 66,
      "hit": false,
      "t": 95934.2489,
      "d": 164.47375000000466,
      "v": 63
    },
    {
      "midi": 70,
      "hit": false,
      "t": 95934.2489,
      "d": 164.47375000000466,
      "v": 63
    },
    {
      "midi": 63,
      "hit": false,
      "t": 96118.45950000003,
      "d": 697.3686999999918,
      "v": 114
    },
    {
      "midi": 34,
      "hit": false,
      "t": 96315.82800000002,
      "d": 1789.4743999999919,
      "v": 114
    },
    {
      "midi": 61,
      "hit": false,
      "t": 96710.56500000002,
      "d": 190.78955000000133,
      "v": 114
    },
    {
      "midi": 61,
      "hit": false,
      "t": 96907.93350000001,
      "d": 776.3160999999964,
      "v": 114
    },
    {
      "midi": 58,
      "hit": false,
      "t": 97697.40750000002,
      "d": 190.78955000000133,
      "v": 114
    },
    {
      "midi": 44,
      "hit": false,
      "t": 97894.77600000001,
      "d": 388.1580499999982,
      "v": 114
    },
    {
      "midi": 54,
      "hit": false,
      "t": 97894.77600000001,
      "d": 388.1580499999982,
      "v": 114
    },
    {
      "midi": 58,
      "hit": false,
      "t": 97894.77600000001,
      "d": 388.1580499999982,
      "v": 114
    },
    {
      "midi": 58,
      "hit": false,
      "t": 97901.35495000002,
      "d": 322.36854999999923,
      "v": 55
    },
    {
      "midi": 61,
      "hit": false,
      "t": 97901.35495000002,
      "d": 322.36854999999923,
      "v": 55
    },
    {
      "midi": 63,
      "hit": false,
      "t": 97901.35495000002,
      "d": 322.36854999999923,
      "v": 55
    },
    {
      "midi": 66,
      "hit": false,
      "t": 97901.35495000002,
      "d": 322.36854999999923,
      "v": 55
    },
    {
      "midi": 44,
      "hit": false,
      "t": 97921.09180000002,
      "d": 302.6316999999981,
      "v": 52
    },
    {
      "midi": 61,
      "hit": false,
      "t": 97934.24970000001,
      "d": 348.6843499999959,
      "v": 114
    },
    {
      "midi": 44,
      "hit": false,
      "t": 98289.513,
      "d": 776.3160999999964,
      "v": 114
    },
    {
      "midi": 61,
      "hit": false,
      "t": 98289.513,
      "d": 776.3160999999964,
      "v": 114
    },
    {
      "midi": 58,
      "hit": false,
      "t": 98289.513,
      "d": 855.2635000000009,
      "v": 114
    },
    {
      "midi": 54,
      "hit": false,
      "t": 98289.513,
      "d": 894.7372000000032,
      "v": 114
    },
    {
      "midi": 56,
      "hit": false,
      "t": 98289.51300000002,
      "d": 1289.474199999997,
      "v": 69
    },
    {
      "midi": 60,
      "hit": false,
      "t": 98289.51300000002,
      "d": 1289.474199999997,
      "v": 69
    },
    {
      "midi": 63,
      "hit": false,
      "t": 98289.51300000002,
      "d": 1289.474199999997,
      "v": 69
    },
    {
      "midi": 44,
      "hit": false,
      "t": 98289.51300000002,
      "d": 1960.5271000000066,
      "v": 56
    },
    {
      "midi": 65,
      "hit": false,
      "t": 98335.56565,
      "d": 789.474000000002,
      "v": 114
    },
    {
      "midi": 44,
      "hit": false,
      "t": 99078.98700000001,
      "d": 282.89484999999695,
      "v": 114
    },
    {
      "midi": 60,
      "hit": false,
      "t": 99078.98700000001,
      "d": 282.89484999999695,
      "v": 114
    },
    {
      "midi": 66,
      "hit": false,
      "t": 99078.98700000001,
      "d": 282.89484999999695,
      "v": 114
    },
    {
      "midi": 65,
      "hit": false,
      "t": 99276.3555,
      "d": 302.6316999999981,
      "v": 114
    },
    {
      "midi": 63,
      "hit": false,
      "t": 99473.724,
      "d": 855.2635000000009,
      "v": 114
    },
    {
      "midi": 44,
      "hit": false,
      "t": 99473.724,
      "d": 1592.105899999995,
      "v": 114
    },
    {
      "midi": 56,
      "hit": false,
      "t": 99868.46100000002,
      "d": 164.47375000000466,
      "v": 72
    },
    {
      "midi": 60,
      "hit": false,
      "t": 99868.46100000002,
      "d": 164.47375000000466,
      "v": 72
    },
    {
      "midi": 63,
      "hit": false,
      "t": 99868.46100000002,
      "d": 164.47375000000466,
      "v": 72
    },
    {
      "midi": 54,
      "hit": false,
      "t": 100263.198,
      "d": 388.1580499999982,
      "v": 114
    },
    {
      "midi": 61,
      "hit": false,
      "t": 100263.198,
      "d": 388.1580499999982,
      "v": 114
    },
    {
      "midi": 58,
      "hit": false,
      "t": 100269.77695000003,
      "d": 743.4213500000042,
      "v": 55
    },
    {
      "midi": 61,
      "hit": false,
      "t": 100269.77695000003,
      "d": 743.4213500000042,
      "v": 55
    },
    {
      "midi": 63,
      "hit": false,
      "t": 100269.77695000003,
      "d": 743.4213500000042,
      "v": 55
    },
    {
      "midi": 66,
      "hit": false,
      "t": 100269.77695000003,
      "d": 743.4213500000042,
      "v": 55
    },
    {
      "midi": 44,
      "hit": false,
      "t": 100289.51380000003,
      "d": 743.4213500000042,
      "v": 52
    },
    {
      "midi": 60,
      "hit": false,
      "t": 100657.935,
      "d": 190.78955000000133,
      "v": 114
    },
    {
      "midi": 56,
      "hit": false,
      "t": 100855.3035,
      "d": 2217.106150000007,
      "v": 114
    },
    {
      "midi": 53,
      "hit": false,
      "t": 100855.3035,
      "d": 2256.579850000009,
      "v": 114
    },
    {
      "midi": 61,
      "hit": false,
      "t": 100855.3035,
      "d": 2269.737750000015,
      "v": 114
    },
    {
      "midi": 37,
      "hit": false,
      "t": 101052.67199999999,
      "d": 1355.2637000000104,
      "v": 114
    },
    {
      "midi": 56,
      "hit": false,
      "t": 101052.67200000004,
      "d": 177.63164999999572,
      "v": 75
    },
    {
      "midi": 61,
      "hit": false,
      "t": 101052.67200000004,
      "d": 177.63164999999572,
      "v": 75
    },
    {
      "midi": 65,
      "hit": false,
      "t": 101052.67200000004,
      "d": 177.63164999999572,
      "v": 75
    },
    {
      "midi": 49,
      "hit": false,
      "t": 101052.67200000004,
      "d": 3131.5802000000112,
      "v": 64
    },
    {
      "midi": 56,
      "hit": false,
      "t": 101447.40900000003,
      "d": 164.47375000000466,
      "v": 39
    },
    {
      "midi": 61,
      "hit": false,
      "t": 101447.40900000003,
      "d": 164.47375000000466,
      "v": 39
    },
    {
      "midi": 65,
      "hit": false,
      "t": 101447.40900000003,
      "d": 164.47375000000466,
      "v": 39
    },
    {
      "midi": 56,
      "hit": false,
      "t": 101842.14600000004,
      "d": 164.47375000000466,
      "v": 52
    },
    {
      "midi": 61,
      "hit": false,
      "t": 101842.14600000004,
      "d": 164.47375000000466,
      "v": 52
    },
    {
      "midi": 65,
      "hit": false,
      "t": 101842.14600000004,
      "d": 164.47375000000466,
      "v": 52
    },
    {
      "midi": 56,
      "hit": false,
      "t": 102250.04090000004,
      "d": 164.47375000000466,
      "v": 63
    },
    {
      "midi": 61,
      "hit": false,
      "t": 102250.04090000004,
      "d": 164.47375000000466,
      "v": 63
    },
    {
      "midi": 65,
      "hit": false,
      "t": 102250.04090000004,
      "d": 164.47375000000466,
      "v": 63
    },
    {
      "midi": 37,
      "hit": false,
      "t": 102434.2515,
      "d": 190.78955000000133,
      "v": 114
    },
    {
      "midi": 37,
      "hit": false,
      "t": 102631.62,
      "d": 1717.105950000012,
      "v": 114
    },
    {
      "midi": 61,
      "hit": false,
      "t": 103421.09400000001,
      "d": 447.36859999998705,
      "v": 114
    },
    {
      "midi": 65,
      "hit": false,
      "t": 103815.831,
      "d": 539.4738999999972,
      "v": 114
    },
    {
      "midi": 36,
      "hit": false,
      "t": 104210.568,
      "d": 1289.474199999997,
      "v": 114
    },
    {
      "midi": 56,
      "hit": false,
      "t": 104210.568,
      "d": 1684.2111999999906,
      "v": 114
    },
    {
      "midi": 36,
      "hit": false,
      "t": 104210.56800000004,
      "d": 3131.5801999999967,
      "v": 66
    },
    {
      "midi": 60,
      "hit": false,
      "t": 104250.0417,
      "d": 1644.7374999999884,
      "v": 114
    },
    {
      "midi": 66,
      "hit": false,
      "t": 104605.30500000001,
      "d": 282.89484999999695,
      "v": 114
    },
    {
      "midi": 65,
      "hit": false,
      "t": 104802.6735,
      "d": 302.6316999999981,
      "v": 114
    },
    {
      "midi": 63,
      "hit": false,
      "t": 105000.042,
      "d": 1664.4743499999895,
      "v": 114
    },
    {
      "midi": 56,
      "hit": false,
      "t": 105000.04200000004,
      "d": 2342.1061999999947,
      "v": 67
    },
    {
      "midi": 60,
      "hit": false,
      "t": 105000.04200000004,
      "d": 2342.1061999999947,
      "v": 67
    },
    {
      "midi": 63,
      "hit": false,
      "t": 105000.04200000004,
      "d": 2342.1061999999947,
      "v": 67
    },
    {
      "midi": 36,
      "hit": false,
      "t": 105592.14749999999,
      "d": 190.78955000000133,
      "v": 114
    },
    {
      "midi": 36,
      "hit": false,
      "t": 105789.51599999999,
      "d": 1664.474350000004,
      "v": 114
    },
    {
      "midi": 70,
      "hit": false,
      "t": 106578.98999999999,
      "d": 539.4738999999972,
      "v": 114
    },
    {
      "midi": 68,
      "hit": false,
      "t": 106973.72699999998,
      "d": 500.0002000000095,
      "v": 114
    },
    {
      "midi": 54,
      "hit": false,
      "t": 107328.99029999999,
      "d": 967.1056499999977,
      "v": 114
    },
    {
      "midi": 63,
      "hit": false,
      "t": 107368.46399999999,
      "d": 388.1580499999982,
      "v": 114
    },
    {
      "midi": 56,
      "hit": false,
      "t": 107368.46399999999,
      "d": 927.6319499999954,
      "v": 114
    },
    {
      "midi": 40,
      "hit": false,
      "t": 107368.46399999999,
      "d": 1289.474199999997,
      "v": 114
    },
    {
      "midi": 59,
      "hit": false,
      "t": 107368.46400000004,
      "d": 177.63164999999572,
      "v": 75
    },
    {
      "midi": 63,
      "hit": false,
      "t": 107368.46400000004,
      "d": 177.63164999999572,
      "v": 75
    },
    {
      "midi": 66,
      "hit": false,
      "t": 107368.46400000004,
      "d": 177.63164999999572,
      "v": 75
    },
    {
      "midi": 68,
      "hit": false,
      "t": 107368.46400000004,
      "d": 177.63164999999572,
      "v": 75
    },
    {
      "midi": 40,
      "hit": false,
      "t": 107368.46400000004,
      "d": 3131.5802000000112,
      "v": 64
    },
    {
      "midi": 61,
      "hit": false,
      "t": 107763.20099999999,
      "d": 190.78955000000133,
      "v": 114
    },
    {
      "midi": 59,
      "hit": false,
      "t": 107763.20100000003,
      "d": 164.47375000000466,
      "v": 39
    },
    {
      "midi": 63,
      "hit": false,
      "t": 107763.20100000003,
      "d": 164.47375000000466,
      "v": 39
    },
    {
      "midi": 66,
      "hit": false,
      "t": 107763.20100000003,
      "d": 164.47375000000466,
      "v": 39
    },
    {
      "midi": 68,
      "hit": false,
      "t": 107763.20100000003,
      "d": 164.47375000000466,
      "v": 39
    },
    {
      "midi": 61,
      "hit": false,
      "t": 107960.56949999998,
      "d": 578.9475999999995,
      "v": 114
    },
    {
      "midi": 59,
      "hit": false,
      "t": 108157.93800000004,
      "d": 164.47375000000466,
      "v": 52
    },
    {
      "midi": 63,
      "hit": false,
      "t": 108157.93800000004,
      "d": 164.47375000000466,
      "v": 52
    },
    {
      "midi": 66,
      "hit": false,
      "t": 108157.93800000004,
      "d": 164.47375000000466,
      "v": 52
    },
    {
      "midi": 68,
      "hit": false,
      "t": 108157.93800000004,
      "d": 164.47375000000466,
      "v": 52
    },
    {
      "midi": 56,
      "hit": false,
      "t": 108552.67499999999,
      "d": 342.1054000000004,
      "v": 114
    },
    {
      "midi": 59,
      "hit": false,
      "t": 108565.83290000004,
      "d": 164.47375000000466,
      "v": 63
    },
    {
      "midi": 63,
      "hit": false,
      "t": 108565.83290000004,
      "d": 164.47375000000466,
      "v": 63
    },
    {
      "midi": 66,
      "hit": false,
      "t": 108565.83290000004,
      "d": 164.47375000000466,
      "v": 63
    },
    {
      "midi": 68,
      "hit": false,
      "t": 108565.83290000004,
      "d": 164.47375000000466,
      "v": 63
    },
    {
      "midi": 40,
      "hit": false,
      "t": 108750.04349999999,
      "d": 190.78955000000133,
      "v": 114
    },
    {
      "midi": 61,
      "hit": false,
      "t": 108750.04349999999,
      "d": 500.00019999999495,
      "v": 114
    },
    {
      "midi": 40,
      "hit": false,
      "t": 108947.41199999998,
      "d": 1664.474349999975,
      "v": 114
    },
    {
      "midi": 63,
      "hit": false,
      "t": 109144.78049999998,
      "d": 500.00019999999495,
      "v": 114
    },
    {
      "midi": 70,
      "hit": false,
      "t": 109736.88599999997,
      "d": 552.6317999999883,
      "v": 114
    },
    {
      "midi": 68,
      "hit": false,
      "t": 110131.62299999996,
      "d": 539.4738999999972,
      "v": 114
    },
    {
      "midi": 39,
      "hit": false,
      "t": 110526.35999999996,
      "d": 1289.474199999997,
      "v": 114
    },
    {
      "midi": 54,
      "hit": false,
      "t": 110526.35999999996,
      "d": 3092.10649999998,
      "v": 114
    },
    {
      "midi": 58,
      "hit": false,
      "t": 110526.35999999996,
      "d": 3144.738099999973,
      "v": 114
    },
    {
      "midi": 61,
      "hit": false,
      "t": 110532.93895000005,
      "d": 2934.2117,
      "v": 61
    },
    {
      "midi": 63,
      "hit": false,
      "t": 110532.93895000005,
      "d": 2934.2117,
      "v": 61
    },
    {
      "midi": 66,
      "hit": false,
      "t": 110532.93895000005,
      "d": 2934.2117,
      "v": 61
    },
    {
      "midi": 70,
      "hit": false,
      "t": 110532.93895000005,
      "d": 2934.2117,
      "v": 61
    },
    {
      "midi": 39,
      "hit": false,
      "t": 110552.67580000006,
      "d": 2519.737850000005,
      "v": 46
    },
    {
      "midi": 63,
      "hit": false,
      "t": 110565.83369999996,
      "d": 348.6843499999959,
      "v": 114
    },
    {
      "midi": 61,
      "hit": false,
      "t": 110921.09699999995,
      "d": 190.78955000000133,
      "v": 114
    },
    {
      "midi": 61,
      "hit": false,
      "t": 111118.46549999995,
      "d": 730.2634500000131,
      "v": 114
    },
    {
      "midi": 63,
      "hit": false,
      "t": 111710.57099999995,
      "d": 190.78955000000133,
      "v": 114
    },
    {
      "midi": 39,
      "hit": false,
      "t": 111907.93949999995,
      "d": 190.78955000000133,
      "v": 114
    },
    {
      "midi": 65,
      "hit": false,
      "t": 111907.93949999995,
      "d": 480.2633499999938,
      "v": 114
    },
    {
      "midi": 39,
      "hit": false,
      "t": 112105.30799999995,
      "d": 1019.737249999991,
      "v": 114
    },
    {
      "midi": 63,
      "hit": false,
      "t": 112302.67649999994,
      "d": 190.78955000000133,
      "v": 114
    },
    {
      "midi": 65,
      "hit": false,
      "t": 112500.04499999994,
      "d": 539.4738999999972,
      "v": 114
    },
    {
      "midi": 39,
      "hit": false,
      "t": 113289.51899999994,
      "d": 190.78955000000133,
      "v": 114
    },
    {
      "midi": 40,
      "hit": false,
      "t": 113486.88749999994,
      "d": 190.78954999998678,
      "v": 114
    },
    {
      "midi": 41,
      "hit": false,
      "t": 113684.25599999992,
      "d": 1289.474199999997,
      "v": 114
    },
    {
      "midi": 57,
      "hit": false,
      "t": 113684.25599999992,
      "d": 1684.2111999999906,
      "v": 114
    },
    {
      "midi": 41,
      "hit": false,
      "t": 113684.25600000005,
      "d": 539.4738999999972,
      "v": 48
    },
    {
      "midi": 61,
      "hit": false,
      "t": 113684.25600000005,
      "d": 1059.2109499999933,
      "v": 63
    },
    {
      "midi": 63,
      "hit": false,
      "t": 113684.25600000005,
      "d": 1059.2109499999933,
      "v": 63
    },
    {
      "midi": 65,
      "hit": false,
      "t": 113684.25600000005,
      "d": 1059.2109499999933,
      "v": 63
    },
    {
      "midi": 69,
      "hit": false,
      "t": 113684.25600000005,
      "d": 1059.2109499999933,
      "v": 63
    },
    {
      "midi": 61,
      "hit": false,
      "t": 113723.72969999992,
      "d": 1664.4743499999895,
      "v": 114
    },
    {
      "midi": 63,
      "hit": false,
      "t": 114078.99299999993,
      "d": 388.1580499999982,
      "v": 114
    },
    {
      "midi": 63,
      "hit": false,
      "t": 114473.72999999992,
      "d": 388.1580499999982,
      "v": 114
    },
    {
      "midi": 63,
      "hit": false,
      "t": 114868.46699999992,
      "d": 190.78955000000133,
      "v": 114
    },
    {
      "midi": 41,
      "hit": false,
      "t": 114868.46700000005,
      "d": 1151.3162500000035,
      "v": 48
    },
    {
      "midi": 61,
      "hit": false,
      "t": 114881.62490000005,
      "d": 217.105349999998,
      "v": 61
    },
    {
      "midi": 63,
      "hit": false,
      "t": 114881.62490000005,
      "d": 217.105349999998,
      "v": 61
    },
    {
      "midi": 65,
      "hit": false,
      "t": 114881.62490000005,
      "d": 217.105349999998,
      "v": 61
    },
    {
      "midi": 69,
      "hit": false,
      "t": 114881.62490000005,
      "d": 217.105349999998,
      "v": 61
    },
    {
      "midi": 41,
      "hit": false,
      "t": 115065.83549999991,
      "d": 342.1054000000004,
      "v": 114
    },
    {
      "midi": 63,
      "hit": false,
      "t": 115065.83549999991,
      "d": 500.00019999999495,
      "v": 114
    },
    {
      "midi": 45,
      "hit": false,
      "t": 115263.20399999991,
      "d": 1717.1059499999974,
      "v": 114
    },
    {
      "midi": 63,
      "hit": false,
      "t": 115657.9409999999,
      "d": 282.89484999999695,
      "v": 114
    },
    {
      "midi": 66,
      "hit": false,
      "t": 115855.3094999999,
      "d": 967.1056499999977,
      "v": 114
    },
    {
      "midi": 61,
      "hit": false,
      "t": 116052.67800000006,
      "d": 282.89484999999695,
      "v": 43
    },
    {
      "midi": 63,
      "hit": false,
      "t": 116052.67800000006,
      "d": 282.89484999999695,
      "v": 43
    },
    {
      "midi": 65,
      "hit": false,
      "t": 116052.67800000006,
      "d": 282.89484999999695,
      "v": 43
    },
    {
      "midi": 69,
      "hit": false,
      "t": 116052.67800000006,
      "d": 282.89484999999695,
      "v": 43
    },
    {
      "midi": 37,
      "hit": false,
      "t": 116447.41500000005,
      "d": 361.8422500000015,
      "v": 60
    },
    {
      "midi": 46,
      "hit": false,
      "t": 116842.1519999999,
      "d": 1000.0004000000044,
      "v": 114
    },
    {
      "midi": 58,
      "hit": false,
      "t": 116842.1519999999,
      "d": 1664.4743499999895,
      "v": 114
    },
    {
      "midi": 53,
      "hit": false,
      "t": 116842.1519999999,
      "d": 1697.3690999999963,
      "v": 114
    },
    {
      "midi": 61,
      "hit": false,
      "t": 116848.73095000006,
      "d": 2934.2117,
      "v": 61
    },
    {
      "midi": 65,
      "hit": false,
      "t": 116848.73095000006,
      "d": 2934.2117,
      "v": 61
    },
    {
      "midi": 68,
      "hit": false,
      "t": 116848.73095000006,
      "d": 2934.2117,
      "v": 61
    },
    {
      "midi": 70,
      "hit": false,
      "t": 116848.73095000006,
      "d": 2934.2117,
      "v": 61
    },
    {
      "midi": 46,
      "hit": false,
      "t": 116868.46780000006,
      "d": 2519.737850000005,
      "v": 46
    },
    {
      "midi": 63,
      "hit": false,
      "t": 116881.6256999999,
      "d": 250.00010000000475,
      "v": 114
    },
    {
      "midi": 61,
      "hit": false,
      "t": 117039.52049999991,
      "d": 190.78955000000133,
      "v": 114
    },
    {
      "midi": 61,
      "hit": false,
      "t": 117236.88899999991,
      "d": 388.1580499999982,
      "v": 114
    },
    {
      "midi": 61,
      "hit": false,
      "t": 117631.6259999999,
      "d": 388.1580499999982,
      "v": 114
    },
    {
      "midi": 46,
      "hit": false,
      "t": 118026.3629999999,
      "d": 388.1580499999982,
      "v": 114
    },
    {
      "midi": 61,
      "hit": false,
      "t": 118026.3629999999,
      "d": 500.00019999999495,
      "v": 114
    },
    {
      "midi": 46,
      "hit": false,
      "t": 118421.09999999989,
      "d": 776.3161000000109,
      "v": 114
    },
    {
      "midi": 63,
      "hit": false,
      "t": 118421.09999999989,
      "d": 855.2635000000155,
      "v": 114
    },
    {
      "midi": 58,
      "hit": false,
      "t": 119210.5739999999,
      "d": 322.36854999999923,
      "v": 114
    },
    {
      "midi": 61,
      "hit": false,
      "t": 119407.9424999999,
      "d": 302.6316999999981,
      "v": 114
    },
    {
      "midi": 37,
      "hit": false,
      "t": 119605.3109999999,
      "d": 190.78955000000133,
      "v": 114
    },
    {
      "midi": 65,
      "hit": false,
      "t": 119605.3109999999,
      "d": 269.73694999999134,
      "v": 114
    },
    {
      "midi": 38,
      "hit": false,
      "t": 119802.6794999999,
      "d": 190.78955000000133,
      "v": 114
    },
    {
      "midi": 63,
      "hit": false,
      "t": 119802.6794999999,
      "d": 282.89484999999695,
      "v": 114
    },
    {
      "midi": 39,
      "hit": false,
      "t": 120000.0479999999,
      "d": 1039.4740999999922,
      "v": 114
    },
    {
      "midi": 61,
      "hit": false,
      "t": 120000.0479999999,
      "d": 1717.1059499999683,
      "v": 114
    },
    {
      "midi": 39,
      "hit": false,
      "t": 120000.04800000005,
      "d": 539.4738999999972,
      "v": 48
    },
    {
      "midi": 58,
      "hit": false,
      "t": 120000.04800000005,
      "d": 1059.2109499999933,
      "v": 63
    },
    {
      "midi": 61,
      "hit": false,
      "t": 120000.04800000005,
      "d": 1059.2109499999933,
      "v": 63
    },
    {
      "midi": 63,
      "hit": false,
      "t": 120000.04800000005,
      "d": 1059.2109499999933,
      "v": 63
    },
    {
      "midi": 66,
      "hit": false,
      "t": 120000.04800000005,
      "d": 1059.2109499999933,
      "v": 63
    },
    {
      "midi": 66,
      "hit": false,
      "t": 120039.5216999999,
      "d": 1684.2111999999615,
      "v": 114
    },
    {
      "midi": 70,
      "hit": false,
      "t": 120394.78499999989,
      "d": 388.1580499999982,
      "v": 114
    },
    {
      "midi": 70,
      "hit": false,
      "t": 120789.52199999988,
      "d": 388.1580499999982,
      "v": 114
    },
    {
      "midi": 39,
      "hit": false,
      "t": 121184.25899999987,
      "d": 388.1580499999982,
      "v": 114
    },
    {
      "midi": 70,
      "hit": false,
      "t": 121184.25899999987,
      "d": 388.1580499999982,
      "v": 114
    },
    {
      "midi": 39,
      "hit": false,
      "t": 121184.25900000005,
      "d": 1151.3162500000035,
      "v": 48
    },
    {
      "midi": 58,
      "hit": false,
      "t": 121197.41690000005,
      "d": 217.105349999998,
      "v": 61
    },
    {
      "midi": 61,
      "hit": false,
      "t": 121197.41690000005,
      "d": 217.105349999998,
      "v": 61
    },
    {
      "midi": 63,
      "hit": false,
      "t": 121197.41690000005,
      "d": 217.105349999998,
      "v": 61
    },
    {
      "midi": 66,
      "hit": false,
      "t": 121197.41690000005,
      "d": 217.105349999998,
      "v": 61
    },
    {
      "midi": 70,
      "hit": false,
      "t": 121578.99599999987,
      "d": 388.15804999998363,
      "v": 114
    },
    {
      "midi": 39,
      "hit": false,
      "t": 121578.99599999987,
      "d": 1684.211199999976,
      "v": 114
    },
    {
      "midi": 70,
      "hit": false,
      "t": 121973.73299999985,
      "d": 190.78955000000133,
      "v": 114
    },
    {
      "midi": 70,
      "hit": false,
      "t": 122171.10149999984,
      "d": 190.78955000000133,
      "v": 114
    },
    {
      "midi": 70,
      "hit": false,
      "t": 122368.46999999984,
      "d": 388.1580499999982,
      "v": 114
    },
    {
      "midi": 58,
      "hit": false,
      "t": 122368.47000000006,
      "d": 282.89484999999695,
      "v": 43
    },
    {
      "midi": 61,
      "hit": false,
      "t": 122368.47000000006,
      "d": 282.89484999999695,
      "v": 43
    },
    {
      "midi": 63,
      "hit": false,
      "t": 122368.47000000006,
      "d": 282.89484999999695,
      "v": 43
    },
    {
      "midi": 66,
      "hit": false,
      "t": 122368.47000000006,
      "d": 282.89484999999695,
      "v": 43
    },
    {
      "midi": 61,
      "hit": false,
      "t": 122763.20699999983,
      "d": 1894.7376000000222,
      "v": 114
    },
    {
      "midi": 34,
      "hit": false,
      "t": 122763.20700000005,
      "d": 361.8422500000015,
      "v": 60
    },
    {
      "midi": 71,
      "hit": false,
      "t": 122802.68069999984,
      "d": 875.0003500000166,
      "v": 114
    },
    {
      "midi": 44,
      "hit": false,
      "t": 123157.94399999984,
      "d": 1302.6321000000025,
      "v": 114
    },
    {
      "midi": 44,
      "hit": false,
      "t": 123157.94400000006,
      "d": 3131.5801999999967,
      "v": 66
    },
    {
      "midi": 68,
      "hit": false,
      "t": 123552.68099999985,
      "d": 190.78955000000133,
      "v": 114
    },
    {
      "midi": 66,
      "hit": false,
      "t": 123750.04949999985,
      "d": 269.73694999999134,
      "v": 114
    },
    {
      "midi": 68,
      "hit": false,
      "t": 123947.41799999985,
      "d": 578.9475999999995,
      "v": 114
    },
    {
      "midi": 61,
      "hit": false,
      "t": 123947.41800000006,
      "d": 2342.1061999999947,
      "v": 67
    },
    {
      "midi": 63,
      "hit": false,
      "t": 123947.41800000006,
      "d": 2342.1061999999947,
      "v": 67
    },
    {
      "midi": 66,
      "hit": false,
      "t": 123947.41800000006,
      "d": 2342.1061999999947,
      "v": 67
    },
    {
      "midi": 70,
      "hit": false,
      "t": 123947.41800000006,
      "d": 2342.1061999999947,
      "v": 67
    },
    {
      "midi": 44,
      "hit": false,
      "t": 124539.52349999985,
      "d": 190.78955000000133,
      "v": 114
    },
    {
      "midi": 61,
      "hit": false,
      "t": 124736.89199999985,
      "d": 776.3160999999964,
      "v": 114
    },
    {
      "midi": 54,
      "hit": false,
      "t": 124736.89199999985,
      "d": 894.7372000000032,
      "v": 114
    },
    {
      "midi": 58,
      "hit": false,
      "t": 124736.89199999985,
      "d": 914.4740500000044,
      "v": 114
    },
    {
      "midi": 44,
      "hit": false,
      "t": 124736.89199999985,
      "d": 1625.0006499999872,
      "v": 114
    },
    {
      "midi": 65,
      "hit": false,
      "t": 124782.94464999984,
      "d": 842.1056000000099,
      "v": 114
    },
    {
      "midi": 61,
      "hit": false,
      "t": 125526.36599999985,
      "d": 388.1580499999982,
      "v": 114
    },
    {
      "midi": 60,
      "hit": false,
      "t": 125921.10299999984,
      "d": 322.36854999999923,
      "v": 114
    },
    {
      "midi": 53,
      "hit": false,
      "t": 126118.47149999984,
      "d": 1072.3688499999844,
      "v": 114
    },
    {
      "midi": 56,
      "hit": false,
      "t": 126118.47149999984,
      "d": 1111.8425499999867,
      "v": 114
    },
    {
      "midi": 61,
      "hit": false,
      "t": 126157.94519999984,
      "d": 894.7371999999887,
      "v": 114
    },
    {
      "midi": 37,
      "hit": false,
      "t": 126315.83999999984,
      "d": 1322.3689499999746,
      "v": 114
    },
    {
      "midi": 49,
      "hit": false,
      "t": 126315.84000000005,
      "d": 539.4738999999972,
      "v": 54
    },
    {
      "midi": 56,
      "hit": false,
      "t": 126315.84000000005,
      "d": 1118.4214999999967,
      "v": 69
    },
    {
      "midi": 61,
      "hit": false,
      "t": 126315.84000000005,
      "d": 1118.4214999999967,
      "v": 69
    },
    {
      "midi": 65,
      "hit": false,
      "t": 126315.84000000005,
      "d": 1118.4214999999967,
      "v": 69
    },
    {
      "midi": 61,
      "hit": false,
      "t": 127105.31399999982,
      "d": 388.1580499999982,
      "v": 114
    },
    {
      "midi": 60,
      "hit": false,
      "t": 127500.05099999982,
      "d": 190.78954999998678,
      "v": 114
    },
    {
      "midi": 39,
      "hit": false,
      "t": 127500.05100000005,
      "d": 1671.0532999999996,
      "v": 64
    },
    {
      "midi": 61,
      "hit": false,
      "t": 127500.05100000005,
      "d": 1723.684899999993,
      "v": 59
    },
    {
      "midi": 63,
      "hit": false,
      "t": 127500.05100000005,
      "d": 1723.684899999993,
      "v": 59
    },
    {
      "midi": 66,
      "hit": false,
      "t": 127500.05100000005,
      "d": 1723.684899999993,
      "v": 59
    },
    {
      "midi": 70,
      "hit": false,
      "t": 127500.05100000005,
      "d": 1723.684899999993,
      "v": 59
    },
    {
      "midi": 37,
      "hit": false,
      "t": 127697.4194999998,
      "d": 190.78955000000133,
      "v": 114
    },
    {
      "midi": 54,
      "hit": false,
      "t": 127697.4194999998,
      "d": 1039.4740999999922,
      "v": 114
    },
    {
      "midi": 58,
      "hit": false,
      "t": 127697.4194999998,
      "d": 1092.1056999999855,
      "v": 114
    },
    {
      "midi": 61,
      "hit": false,
      "t": 127736.8931999998,
      "d": 855.2635000000009,
      "v": 114
    },
    {
      "midi": 39,
      "hit": false,
      "t": 127894.7879999998,
      "d": 1769.7375499999762,
      "v": 114
    },
    {
      "midi": 61,
      "hit": false,
      "t": 128684.2619999998,
      "d": 388.15804999998363,
      "v": 114
    },
    {
      "midi": 60,
      "hit": false,
      "t": 129078.99899999978,
      "d": 302.6316999999981,
      "v": 114
    },
    {
      "midi": 56,
      "hit": false,
      "t": 129276.36749999977,
      "d": 1072.368849999999,
      "v": 114
    },
    {
      "midi": 53,
      "hit": false,
      "t": 129276.36749999977,
      "d": 1092.1057,
      "v": 114
    },
    {
      "midi": 61,
      "hit": false,
      "t": 129315.84119999978,
      "d": 842.1055999999953,
      "v": 114
    },
    {
      "midi": 41,
      "hit": false,
      "t": 129473.73599999977,
      "d": 1302.6321000000025,
      "v": 114
    },
    {
      "midi": 53,
      "hit": false,
      "t": 129473.73600000005,
      "d": 1506.579549999995,
      "v": 54
    },
    {
      "midi": 56,
      "hit": false,
      "t": 129473.73600000005,
      "d": 1552.6321999999927,
      "v": 69
    },
    {
      "midi": 61,
      "hit": false,
      "t": 129473.73600000005,
      "d": 1552.6321999999927,
      "v": 69
    },
    {
      "midi": 65,
      "hit": false,
      "t": 129473.73600000005,
      "d": 1552.6321999999927,
      "v": 69
    },
    {
      "midi": 61,
      "hit": false,
      "t": 130263.20999999977,
      "d": 388.1580499999982,
      "v": 114
    },
    {
      "midi": 63,
      "hit": false,
      "t": 130657.94699999977,
      "d": 190.78955000000133,
      "v": 114
    },
    {
      "midi": 41,
      "hit": false,
      "t": 130855.31549999976,
      "d": 190.78955000000133,
      "v": 114
    },
    {
      "midi": 61,
      "hit": false,
      "t": 130855.31549999976,
      "d": 625.0002500000119,
      "v": 114
    },
    {
      "midi": 58,
      "hit": false,
      "t": 130855.31549999976,
      "d": 677.6318500000052,
      "v": 114
    },
    {
      "midi": 65,
      "hit": false,
      "t": 130894.78919999977,
      "d": 625.0002500000119,
      "v": 114
    },
    {
      "midi": 42,
      "hit": false,
      "t": 131052.68399999976,
      "d": 967.1056499999977,
      "v": 114
    },
    {
      "midi": 42,
      "hit": false,
      "t": 131052.68400000004,
      "d": 1506.579549999995,
      "v": 54
    },
    {
      "midi": 58,
      "hit": false,
      "t": 131052.68400000004,
      "d": 1552.6321999999927,
      "v": 69
    },
    {
      "midi": 61,
      "hit": false,
      "t": 131052.68400000004,
      "d": 1552.6321999999927,
      "v": 69
    },
    {
      "midi": 65,
      "hit": false,
      "t": 131052.68400000004,
      "d": 1552.6321999999927,
      "v": 69
    },
    {
      "midi": 68,
      "hit": false,
      "t": 131052.68400000004,
      "d": 1552.6321999999927,
      "v": 69
    },
    {
      "midi": 63,
      "hit": false,
      "t": 131447.42099999977,
      "d": 302.6316999999981,
      "v": 114
    },
    {
      "midi": 61,
      "hit": false,
      "t": 131644.78949999978,
      "d": 578.947599999985,
      "v": 114
    },
    {
      "midi": 60,
      "hit": false,
      "t": 132236.89499999976,
      "d": 250.00010000000475,
      "v": 114
    },
    {
      "midi": 42,
      "hit": false,
      "t": 132236.89499999976,
      "d": 539.4738999999827,
      "v": 114
    },
    {
      "midi": 54,
      "hit": false,
      "t": 132434.26349999977,
      "d": 717.1055499999784,
      "v": 114
    },
    {
      "midi": 58,
      "hit": false,
      "t": 132434.26349999977,
      "d": 730.2634499999695,
      "v": 114
    },
    {
      "midi": 39,
      "hit": false,
      "t": 132631.63199999975,
      "d": 1289.474199999997,
      "v": 114
    },
    {
      "midi": 58,
      "hit": false,
      "t": 132631.63200000004,
      "d": 177.63164999999572,
      "v": 77
    },
    {
      "midi": 61,
      "hit": false,
      "t": 132631.63200000004,
      "d": 177.63164999999572,
      "v": 77
    },
    {
      "midi": 63,
      "hit": false,
      "t": 132631.63200000004,
      "d": 177.63164999999572,
      "v": 77
    },
    {
      "midi": 66,
      "hit": false,
      "t": 132631.63200000004,
      "d": 177.63164999999572,
      "v": 77
    },
    {
      "midi": 39,
      "hit": false,
      "t": 132631.63200000004,
      "d": 3131.5801999999967,
      "v": 66
    },
    {
      "midi": 56,
      "hit": false,
      "t": 133026.36899999974,
      "d": 388.1580499999982,
      "v": 114
    },
    {
      "midi": 58,
      "hit": false,
      "t": 133026.36900000004,
      "d": 164.47375000000466,
      "v": 41
    },
    {
      "midi": 61,
      "hit": false,
      "t": 133026.36900000004,
      "d": 164.47375000000466,
      "v": 41
    },
    {
      "midi": 63,
      "hit": false,
      "t": 133026.36900000004,
      "d": 164.47375000000466,
      "v": 41
    },
    {
      "midi": 66,
      "hit": false,
      "t": 133026.36900000004,
      "d": 164.47375000000466,
      "v": 41
    },
    {
      "midi": 56,
      "hit": false,
      "t": 133421.10599999974,
      "d": 578.9476000000141,
      "v": 114
    },
    {
      "midi": 58,
      "hit": false,
      "t": 133421.10600000003,
      "d": 164.47375000000466,
      "v": 54
    },
    {
      "midi": 61,
      "hit": false,
      "t": 133421.10600000003,
      "d": 164.47375000000466,
      "v": 54
    },
    {
      "midi": 63,
      "hit": false,
      "t": 133421.10600000003,
      "d": 164.47375000000466,
      "v": 54
    },
    {
      "midi": 66,
      "hit": false,
      "t": 133421.10600000003,
      "d": 164.47375000000466,
      "v": 54
    },
    {
      "midi": 58,
      "hit": false,
      "t": 133829.00090000004,
      "d": 164.47375000000466,
      "v": 65
    },
    {
      "midi": 61,
      "hit": false,
      "t": 133829.00090000004,
      "d": 164.47375000000466,
      "v": 65
    },
    {
      "midi": 63,
      "hit": false,
      "t": 133829.00090000004,
      "d": 164.47375000000466,
      "v": 65
    },
    {
      "midi": 66,
      "hit": false,
      "t": 133829.00090000004,
      "d": 164.47375000000466,
      "v": 65
    },
    {
      "midi": 39,
      "hit": false,
      "t": 134013.21149999974,
      "d": 190.78954999998678,
      "v": 114
    },
    {
      "midi": 54,
      "hit": false,
      "t": 134210.57999999973,
      "d": 552.6318000000028,
      "v": 114
    },
    {
      "midi": 39,
      "hit": false,
      "t": 134210.57999999973,
      "d": 1072.368850000028,
      "v": 114
    },
    {
      "midi": 58,
      "hit": false,
      "t": 134605.31699999972,
      "d": 519.7370500000252,
      "v": 114
    },
    {
      "midi": 63,
      "hit": false,
      "t": 135000.05399999974,
      "d": 519.7370499999961,
      "v": 114
    },
    {
      "midi": 41,
      "hit": false,
      "t": 135197.42249999975,
      "d": 190.78954999998678,
      "v": 114
    },
    {
      "midi": 56,
      "hit": false,
      "t": 135394.79099999974,
      "d": 190.78955000001588,
      "v": 114
    },
    {
      "midi": 42,
      "hit": false,
      "t": 135394.79099999974,
      "d": 302.6316999999981,
      "v": 114
    },
    {
      "midi": 39,
      "hit": false,
      "t": 135592.15949999975,
      "d": 322.3685499999847,
      "v": 114
    },
    {
      "midi": 44,
      "hit": false,
      "t": 135789.52799999973,
      "d": 986.8424999999988,
      "v": 114
    },
    {
      "midi": 54,
      "hit": false,
      "t": 135789.52799999973,
      "d": 1157.895199999999,
      "v": 114
    },
    {
      "midi": 44,
      "hit": false,
      "t": 135789.52800000005,
      "d": 3131.5801999999967,
      "v": 61
    },
    {
      "midi": 56,
      "hit": false,
      "t": 135829.00169999973,
      "d": 1125.0004499999923,
      "v": 114
    },
    {
      "midi": 58,
      "hit": false,
      "t": 136579.00200000004,
      "d": 2342.1062000000093,
      "v": 62
    },
    {
      "midi": 61,
      "hit": false,
      "t": 136579.00200000004,
      "d": 2342.1062000000093,
      "v": 62
    },
    {
      "midi": 63,
      "hit": false,
      "t": 136579.00200000004,
      "d": 2342.1062000000093,
      "v": 62
    },
    {
      "midi": 66,
      "hit": false,
      "t": 136579.00200000004,
      "d": 2342.1062000000093,
      "v": 62
    },
    {
      "midi": 63,
      "hit": false,
      "t": 136973.7389999997,
      "d": 190.78954999998678,
      "v": 114
    },
    {
      "midi": 44,
      "hit": false,
      "t": 136973.7389999997,
      "d": 322.3685499999847,
      "v": 114
    },
    {
      "midi": 54,
      "hit": false,
      "t": 137171.1074999997,
      "d": 697.3686999999918,
      "v": 114
    },
    {
      "midi": 58,
      "hit": false,
      "t": 137171.1074999997,
      "d": 697.3686999999918,
      "v": 114
    },
    {
      "midi": 63,
      "hit": false,
      "t": 137204.0022499997,
      "d": 697.3686999999918,
      "v": 114
    },
    {
      "midi": 44,
      "hit": false,
      "t": 137368.4759999997,
      "d": 1000.0003999999899,
      "v": 114
    },
    {
      "midi": 65,
      "hit": false,
      "t": 137763.2129999997,
      "d": 572.3686499999894,
      "v": 114
    },
    {
      "midi": 54,
      "hit": false,
      "t": 138157.9499999997,
      "d": 427.63175000000047,
      "v": 114
    },
    {
      "midi": 58,
      "hit": false,
      "t": 138157.9499999997,
      "d": 447.36859999998705,
      "v": 114
    },
    {
      "midi": 61,
      "hit": false,
      "t": 138197.4236999997,
      "d": 394.7369999999937,
      "v": 114
    },
    {
      "midi": 60,
      "hit": false,
      "t": 138552.68699999969,
      "d": 322.3685499999847,
      "v": 114
    },
    {
      "midi": 44,
      "hit": false,
      "t": 138552.68699999969,
      "d": 480.2633499999938,
      "v": 114
    },
    {
      "midi": 53,
      "hit": false,
      "t": 138750.05549999967,
      "d": 1072.368849999999,
      "v": 114
    },
    {
      "midi": 56,
      "hit": false,
      "t": 138750.05549999967,
      "d": 1072.368849999999,
      "v": 114
    },
    {
      "midi": 61,
      "hit": false,
      "t": 138782.95024999967,
      "d": 894.7372000000032,
      "v": 114
    },
    {
      "midi": 37,
      "hit": false,
      "t": 138947.42399999968,
      "d": 1269.7373499999812,
      "v": 114
    },
    {
      "midi": 49,
      "hit": false,
      "t": 138947.42400000006,
      "d": 539.4739000000118,
      "v": 54
    },
    {
      "midi": 56,
      "hit": false,
      "t": 138947.42400000006,
      "d": 1118.4215000000258,
      "v": 69
    },
    {
      "midi": 61,
      "hit": false,
      "t": 138947.42400000006,
      "d": 1118.4215000000258,
      "v": 69
    },
    {
      "midi": 65,
      "hit": false,
      "t": 138947.42400000006,
      "d": 1118.4215000000258,
      "v": 69
    },
    {
      "midi": 61,
      "hit": false,
      "t": 139736.89799999967,
      "d": 388.1580499999982,
      "v": 114
    },
    {
      "midi": 60,
      "hit": false,
      "t": 140131.63499999966,
      "d": 322.3685500000138,
      "v": 114
    },
    {
      "midi": 39,
      "hit": false,
      "t": 140131.6350000001,
      "d": 1671.0532999999996,
      "v": 64
    },
    {
      "midi": 61,
      "hit": false,
      "t": 140131.6350000001,
      "d": 1723.684899999993,
      "v": 59
    },
    {
      "midi": 63,
      "hit": false,
      "t": 140131.6350000001,
      "d": 1723.684899999993,
      "v": 59
    },
    {
      "midi": 66,
      "hit": false,
      "t": 140131.6350000001,
      "d": 1723.684899999993,
      "v": 59
    },
    {
      "midi": 70,
      "hit": false,
      "t": 140131.6350000001,
      "d": 1723.684899999993,
      "v": 59
    },
    {
      "midi": 37,
      "hit": false,
      "t": 140329.00349999967,
      "d": 190.78955000001588,
      "v": 114
    },
    {
      "midi": 54,
      "hit": false,
      "t": 140329.00349999967,
      "d": 1072.368849999999,
      "v": 114
    },
    {
      "midi": 58,
      "hit": false,
      "t": 140329.00349999967,
      "d": 1072.368849999999,
      "v": 114
    },
    {
      "midi": 61,
      "hit": false,
      "t": 140368.47719999967,
      "d": 894.7372000000032,
      "v": 114
    },
    {
      "midi": 39,
      "hit": false,
      "t": 140526.37199999968,
      "d": 1697.3690999999817,
      "v": 114
    },
    {
      "midi": 61,
      "hit": false,
      "t": 141315.84599999967,
      "d": 388.1580499999982,
      "v": 114
    },
    {
      "midi": 61,
      "hit": false,
      "t": 141710.58299999966,
      "d": 190.78954999998678,
      "v": 114
    },
    {
      "midi": 61,
      "hit": false,
      "t": 141907.95149999965,
      "d": 644.7370999999985,
      "v": 114
    },
    {
      "midi": 65,
      "hit": false,
      "t": 141907.95149999965,
      "d": 644.7370999999985,
      "v": 114
    },
    {
      "midi": 70,
      "hit": false,
      "t": 141947.42519999965,
      "d": 657.8949999999895,
      "v": 114
    },
    {
      "midi": 41,
      "hit": false,
      "t": 142105.31999999966,
      "d": 1657.8953999999794,
      "v": 114
    },
    {
      "midi": 53,
      "hit": false,
      "t": 142105.3200000001,
      "d": 1506.579549999995,
      "v": 54
    },
    {
      "midi": 56,
      "hit": false,
      "t": 142105.3200000001,
      "d": 1552.6321999999927,
      "v": 69
    },
    {
      "midi": 61,
      "hit": false,
      "t": 142105.3200000001,
      "d": 1552.6321999999927,
      "v": 69
    },
    {
      "midi": 65,
      "hit": false,
      "t": 142105.3200000001,
      "d": 1552.6321999999927,
      "v": 69
    },
    {
      "midi": 68,
      "hit": false,
      "t": 142500.05699999965,
      "d": 190.78954999998678,
      "v": 114
    },
    {
      "midi": 68,
      "hit": false,
      "t": 142697.42549999963,
      "d": 388.1580499999982,
      "v": 114
    },
    {
      "midi": 68,
      "hit": false,
      "t": 143092.16249999963,
      "d": 296.05275000000256,
      "v": 114
    },
    {
      "midi": 70,
      "hit": false,
      "t": 143289.53099999964,
      "d": 1914.4744500000088,
      "v": 114
    },
    {
      "midi": 66,
      "hit": false,
      "t": 143289.53099999964,
      "d": 2052.6324000000022,
      "v": 114
    },
    {
      "midi": 73,
      "hit": false,
      "t": 143289.53099999964,
      "d": 2052.6324000000022,
      "v": 114
    },
    {
      "midi": 63,
      "hit": false,
      "t": 143289.53099999964,
      "d": 2072.369249999989,
      "v": 114
    },
    {
      "midi": 35,
      "hit": false,
      "t": 143684.26799999963,
      "d": 1355.2637000000104,
      "v": 114
    },
    {
      "midi": 58,
      "hit": false,
      "t": 143684.2680000001,
      "d": 177.63164999999572,
      "v": 77
    },
    {
      "midi": 61,
      "hit": false,
      "t": 143684.2680000001,
      "d": 177.63164999999572,
      "v": 77
    },
    {
      "midi": 63,
      "hit": false,
      "t": 143684.2680000001,
      "d": 177.63164999999572,
      "v": 77
    },
    {
      "midi": 66,
      "hit": false,
      "t": 143684.2680000001,
      "d": 177.63164999999572,
      "v": 77
    },
    {
      "midi": 47,
      "hit": false,
      "t": 143684.2680000001,
      "d": 3131.5801999999967,
      "v": 66
    },
    {
      "midi": 58,
      "hit": false,
      "t": 144079.0050000001,
      "d": 164.47375000000466,
      "v": 41
    },
    {
      "midi": 61,
      "hit": false,
      "t": 144079.0050000001,
      "d": 164.47375000000466,
      "v": 41
    },
    {
      "midi": 63,
      "hit": false,
      "t": 144079.0050000001,
      "d": 164.47375000000466,
      "v": 41
    },
    {
      "midi": 66,
      "hit": false,
      "t": 144079.0050000001,
      "d": 164.47375000000466,
      "v": 41
    },
    {
      "midi": 58,
      "hit": false,
      "t": 144473.7420000001,
      "d": 164.47375000000466,
      "v": 54
    },
    {
      "midi": 61,
      "hit": false,
      "t": 144473.7420000001,
      "d": 164.47375000000466,
      "v": 54
    },
    {
      "midi": 63,
      "hit": false,
      "t": 144473.7420000001,
      "d": 164.47375000000466,
      "v": 54
    },
    {
      "midi": 66,
      "hit": false,
      "t": 144473.7420000001,
      "d": 164.47375000000466,
      "v": 54
    },
    {
      "midi": 58,
      "hit": false,
      "t": 144881.6369000001,
      "d": 164.47375000000466,
      "v": 65
    },
    {
      "midi": 61,
      "hit": false,
      "t": 144881.6369000001,
      "d": 164.47375000000466,
      "v": 65
    },
    {
      "midi": 63,
      "hit": false,
      "t": 144881.6369000001,
      "d": 164.47375000000466,
      "v": 65
    },
    {
      "midi": 66,
      "hit": false,
      "t": 144881.6369000001,
      "d": 164.47375000000466,
      "v": 65
    },
    {
      "midi": 35,
      "hit": false,
      "t": 145065.84749999965,
      "d": 190.78954999998678,
      "v": 114
    },
    {
      "midi": 71,
      "hit": false,
      "t": 145263.21599999964,
      "d": 388.1580499999982,
      "v": 114
    },
    {
      "midi": 35,
      "hit": false,
      "t": 145263.21599999964,
      "d": 1651.316449999984,
      "v": 114
    },
    {
      "midi": 70,
      "hit": false,
      "t": 145657.95299999963,
      "d": 565.7896999999939,
      "v": 114
    },
    {
      "midi": 68,
      "hit": false,
      "t": 146052.68999999962,
      "d": 500.0001999999804,
      "v": 114
    },
    {
      "midi": 66,
      "hit": false,
      "t": 146447.42699999962,
      "d": 388.1580499999982,
      "v": 114
    },
    {
      "midi": 58,
      "hit": false,
      "t": 146842.1639999996,
      "d": 493.42124999998487,
      "v": 114
    },
    {
      "midi": 61,
      "hit": false,
      "t": 146842.1639999996,
      "d": 513.1580999999715,
      "v": 114
    },
    {
      "midi": 39,
      "hit": false,
      "t": 146842.1639999996,
      "d": 1250.0004999999946,
      "v": 114
    },
    {
      "midi": 39,
      "hit": false,
      "t": 146842.1640000001,
      "d": 3131.5801999999967,
      "v": 61
    },
    {
      "midi": 66,
      "hit": false,
      "t": 146881.6376999996,
      "d": 348.6843499999959,
      "v": 114
    },
    {
      "midi": 66,
      "hit": false,
      "t": 147236.9009999996,
      "d": 315.78959999998915,
      "v": 114
    },
    {
      "midi": 68,
      "hit": false,
      "t": 147434.2694999996,
      "d": 388.1580499999982,
      "v": 114
    },
    {
      "midi": 61,
      "hit": false,
      "t": 147631.6380000001,
      "d": 2342.1062000000093,
      "v": 62
    },
    {
      "midi": 63,
      "hit": false,
      "t": 147631.6380000001,
      "d": 2342.1062000000093,
      "v": 62
    },
    {
      "midi": 66,
      "hit": false,
      "t": 147631.6380000001,
      "d": 2342.1062000000093,
      "v": 62
    },
    {
      "midi": 70,
      "hit": false,
      "t": 147631.6380000001,
      "d": 2342.1062000000093,
      "v": 62
    },
    {
      "midi": 68,
      "hit": false,
      "t": 147829.00649999958,
      "d": 289.47380000003614,
      "v": 114
    },
    {
      "midi": 61,
      "hit": false,
      "t": 148026.3749999996,
      "d": 671.0528999999806,
      "v": 114
    },
    {
      "midi": 66,
      "hit": false,
      "t": 148026.3749999996,
      "d": 848.6845499999763,
      "v": 114
    },
    {
      "midi": 70,
      "hit": false,
      "t": 148059.2697499996,
      "d": 828.9476999999606,
      "v": 114
    },
    {
      "midi": 39,
      "hit": false,
      "t": 148223.7434999996,
      "d": 190.78954999998678,
      "v": 114
    },
    {
      "midi": 39,
      "hit": false,
      "t": 148421.1119999996,
      "d": 671.0528999999806,
      "v": 114
    },
    {
      "midi": 61,
      "hit": false,
      "t": 148815.84899999958,
      "d": 388.1580499999982,
      "v": 114
    },
    {
      "midi": 39,
      "hit": false,
      "t": 149210.58599999957,
      "d": 190.78954999998678,
      "v": 114
    },
    {
      "midi": 61,
      "hit": false,
      "t": 149210.58599999957,
      "d": 401.31594999998924,
      "v": 114
    },
    {
      "midi": 41,
      "hit": false,
      "t": 149407.95449999956,
      "d": 269.73695000002044,
      "v": 114
    },
    {
      "midi": 60,
      "hit": false,
      "t": 149605.32299999957,
      "d": 289.47380000000703,
      "v": 114
    },
    {
      "midi": 42,
      "hit": false,
      "t": 149605.32299999957,
      "d": 467.10545000000275,
      "v": 114
    },
    {
      "midi": 53,
      "hit": false,
      "t": 149802.69149999958,
      "d": 467.10545000000275,
      "v": 114
    },
    {
      "midi": 56,
      "hit": false,
      "t": 149802.69149999958,
      "d": 671.0529000000097,
      "v": 114
    },
    {
      "midi": 61,
      "hit": false,
      "t": 149842.16519999958,
      "d": 625.0002500000119,
      "v": 114
    },
    {
      "midi": 37,
      "hit": false,
      "t": 150000.05999999956,
      "d": 388.1580500000273,
      "v": 114
    },
    {
      "midi": 49,
      "hit": false,
      "t": 150000.0600000001,
      "d": 539.4739000000118,
      "v": 56
    },
    {
      "midi": 56,
      "hit": false,
      "t": 150000.0600000001,
      "d": 1059.2109500000079,
      "v": 71
    },
    {
      "midi": 61,
      "hit": false,
      "t": 150000.0600000001,
      "d": 1059.2109500000079,
      "v": 71
    },
    {
      "midi": 65,
      "hit": false,
      "t": 150000.0600000001,
      "d": 1059.2109500000079,
      "v": 71
    },
    {
      "midi": 53,
      "hit": false,
      "t": 150394.79699999958,
      "d": 388.1580499999982,
      "v": 114
    },
    {
      "midi": 37,
      "hit": false,
      "t": 150789.53399999958,
      "d": 190.78954999998678,
      "v": 114
    },
    {
      "midi": 56,
      "hit": false,
      "t": 150789.53399999958,
      "d": 513.1580999999715,
      "v": 114
    },
    {
      "midi": 37,
      "hit": false,
      "t": 150986.90249999956,
      "d": 190.78954999998678,
      "v": 114
    },
    {
      "midi": 37,
      "hit": false,
      "t": 151184.27099999954,
      "d": 388.1580499999982,
      "v": 114
    },
    {
      "midi": 61,
      "hit": false,
      "t": 151184.27099999954,
      "d": 513.1581000000006,
      "v": 114
    },
    {
      "midi": 49,
      "hit": false,
      "t": 151184.27100000012,
      "d": 1151.3162500000035,
      "v": 56
    },
    {
      "midi": 56,
      "hit": false,
      "t": 151197.42890000012,
      "d": 217.105349999998,
      "v": 69
    },
    {
      "midi": 61,
      "hit": false,
      "t": 151197.42890000012,
      "d": 217.105349999998,
      "v": 69
    },
    {
      "midi": 65,
      "hit": false,
      "t": 151197.42890000012,
      "d": 217.105349999998,
      "v": 69
    },
    {
      "midi": 65,
      "hit": false,
      "t": 151579.00799999954,
      "d": 578.947599999985,
      "v": 114
    },
    {
      "midi": 37,
      "hit": false,
      "t": 151579.00799999954,
      "d": 671.0528999999806,
      "v": 114
    },
    {
      "midi": 61,
      "hit": false,
      "t": 151973.74499999953,
      "d": 493.42124999998487,
      "v": 114
    },
    {
      "midi": 56,
      "hit": false,
      "t": 152368.48199999952,
      "d": 539.4738999999827,
      "v": 114
    },
    {
      "midi": 37,
      "hit": false,
      "t": 152368.48199999952,
      "d": 940.789850000001,
      "v": 114
    },
    {
      "midi": 56,
      "hit": false,
      "t": 152368.48200000013,
      "d": 282.8948500000115,
      "v": 51
    },
    {
      "midi": 61,
      "hit": false,
      "t": 152368.48200000013,
      "d": 282.8948500000115,
      "v": 51
    },
    {
      "midi": 65,
      "hit": false,
      "t": 152368.48200000013,
      "d": 282.8948500000115,
      "v": 51
    },
    {
      "midi": 61,
      "hit": false,
      "t": 152763.21899999952,
      "d": 388.1580499999982,
      "v": 114
    },
    {
      "midi": 44,
      "hit": false,
      "t": 152763.21900000016,
      "d": 361.84224999998696,
      "v": 68
    },
    {
      "midi": 54,
      "hit": false,
      "t": 153157.9559999995,
      "d": 894.7372000000032,
      "v": 114
    },
    {
      "midi": 58,
      "hit": false,
      "t": 153157.9559999995,
      "d": 894.7372000000032,
      "v": 114
    },
    {
      "midi": 61,
      "hit": false,
      "t": 153157.9559999995,
      "d": 894.7372000000032,
      "v": 114
    },
    {
      "midi": 35,
      "hit": false,
      "t": 153157.9559999995,
      "d": 1138.1583500000124,
      "v": 114
    },
    {
      "midi": 47,
      "hit": false,
      "t": 153157.95600000015,
      "d": 539.4739000000118,
      "v": 48
    },
    {
      "midi": 58,
      "hit": false,
      "t": 153157.95600000015,
      "d": 1059.2109500000079,
      "v": 63
    },
    {
      "midi": 61,
      "hit": false,
      "t": 153157.95600000015,
      "d": 1059.2109500000079,
      "v": 63
    },
    {
      "midi": 63,
      "hit": false,
      "t": 153157.95600000015,
      "d": 1059.2109500000079,
      "v": 63
    },
    {
      "midi": 66,
      "hit": false,
      "t": 153157.95600000015,
      "d": 1059.2109500000079,
      "v": 63
    },
    {
      "midi": 63,
      "hit": false,
      "t": 153197.4296999995,
      "d": 894.7372000000032,
      "v": 114
    },
    {
      "midi": 70,
      "hit": false,
      "t": 153947.42999999953,
      "d": 388.1580499999982,
      "v": 114
    },
    {
      "midi": 35,
      "hit": false,
      "t": 154342.16699999952,
      "d": 388.1580499999982,
      "v": 114
    },
    {
      "midi": 68,
      "hit": false,
      "t": 154342.16699999952,
      "d": 388.1580499999982,
      "v": 114
    },
    {
      "midi": 47,
      "hit": false,
      "t": 154342.16700000016,
      "d": 1151.3162500000035,
      "v": 48
    },
    {
      "midi": 58,
      "hit": false,
      "t": 154355.32490000015,
      "d": 217.105349999998,
      "v": 61
    },
    {
      "midi": 61,
      "hit": false,
      "t": 154355.32490000015,
      "d": 217.105349999998,
      "v": 61
    },
    {
      "midi": 63,
      "hit": false,
      "t": 154355.32490000015,
      "d": 217.105349999998,
      "v": 61
    },
    {
      "midi": 66,
      "hit": false,
      "t": 154355.32490000015,
      "d": 217.105349999998,
      "v": 61
    },
    {
      "midi": 58,
      "hit": false,
      "t": 154736.90399999951,
      "d": 493.42124999998487,
      "v": 114
    },
    {
      "midi": 63,
      "hit": false,
      "t": 154736.90399999951,
      "d": 559.2107499999984,
      "v": 114
    },
    {
      "midi": 35,
      "hit": false,
      "t": 154736.90399999951,
      "d": 960.5266999999876,
      "v": 114
    },
    {
      "midi": 66,
      "hit": false,
      "t": 154782.9566499995,
      "d": 342.1054000000004,
      "v": 114
    },
    {
      "midi": 65,
      "hit": false,
      "t": 155131.6409999995,
      "d": 335.52645000000484,
      "v": 114
    },
    {
      "midi": 66,
      "hit": false,
      "t": 155329.00949999952,
      "d": 513.1581000000006,
      "v": 114
    },
    {
      "midi": 47,
      "hit": false,
      "t": 155526.3779999995,
      "d": 651.3160500000231,
      "v": 114
    },
    {
      "midi": 58,
      "hit": false,
      "t": 155526.37800000017,
      "d": 282.8948500000115,
      "v": 43
    },
    {
      "midi": 61,
      "hit": false,
      "t": 155526.37800000017,
      "d": 282.8948500000115,
      "v": 43
    },
    {
      "midi": 63,
      "hit": false,
      "t": 155526.37800000017,
      "d": 282.8948500000115,
      "v": 43
    },
    {
      "midi": 66,
      "hit": false,
      "t": 155526.37800000017,
      "d": 282.8948500000115,
      "v": 43
    },
    {
      "midi": 68,
      "hit": false,
      "t": 155723.7464999995,
      "d": 447.36860000001616,
      "v": 114
    },
    {
      "midi": 42,
      "hit": false,
      "t": 155921.1150000002,
      "d": 361.84224999998696,
      "v": 60
    },
    {
      "midi": 61,
      "hit": false,
      "t": 156315.85199999952,
      "d": 388.1580499999982,
      "v": 114
    },
    {
      "midi": 58,
      "hit": false,
      "t": 156315.85199999952,
      "d": 493.42124999998487,
      "v": 114
    },
    {
      "midi": 46,
      "hit": false,
      "t": 156315.85199999952,
      "d": 960.5266999999585,
      "v": 114
    },
    {
      "midi": 46,
      "hit": false,
      "t": 156315.8520000002,
      "d": 3131.5801999999967,
      "v": 66
    },
    {
      "midi": 68,
      "hit": false,
      "t": 156355.32569999952,
      "d": 447.36859999998705,
      "v": 114
    },
    {
      "midi": 61,
      "hit": false,
      "t": 156710.5889999995,
      "d": 190.78954999998678,
      "v": 114
    },
    {
      "midi": 61,
      "hit": false,
      "t": 156907.9574999995,
      "d": 190.78954999998678,
      "v": 114
    },
    {
      "midi": 61,
      "hit": false,
      "t": 157105.32599999948,
      "d": 315.78960000001825,
      "v": 114
    },
    {
      "midi": 61,
      "hit": false,
      "t": 157105.32600000018,
      "d": 2342.1062000000093,
      "v": 67
    },
    {
      "midi": 65,
      "hit": false,
      "t": 157105.32600000018,
      "d": 2342.1062000000093,
      "v": 67
    },
    {
      "midi": 68,
      "hit": false,
      "t": 157105.32600000018,
      "d": 2342.1062000000093,
      "v": 67
    },
    {
      "midi": 70,
      "hit": false,
      "t": 157105.32600000018,
      "d": 2342.1062000000093,
      "v": 67
    },
    {
      "midi": 63,
      "hit": false,
      "t": 157302.6944999995,
      "d": 335.52645000000484,
      "v": 114
    },
    {
      "midi": 46,
      "hit": false,
      "t": 157500.0629999995,
      "d": 388.1580499999982,
      "v": 114
    },
    {
      "midi": 65,
      "hit": false,
      "t": 157500.0629999995,
      "d": 1296.0531499999925,
      "v": 114
    },
    {
      "midi": 46,
      "hit": false,
      "t": 157894.7999999995,
      "d": 776.3160999999964,
      "v": 114
    },
    {
      "midi": 56,
      "hit": false,
      "t": 157894.7999999995,
      "d": 940.789850000001,
      "v": 114
    },
    {
      "midi": 61,
      "hit": false,
      "t": 157927.6947499995,
      "d": 875.0003499999875,
      "v": 114
    },
    {
      "midi": 46,
      "hit": false,
      "t": 158684.27399999948,
      "d": 802.6319000000076,
      "v": 114
    },
    {
      "midi": 68,
      "hit": false,
      "t": 159079.0109999995,
      "d": 388.1580499999982,
      "v": 114
    },
    {
      "midi": 61,
      "hit": false,
      "t": 159473.7479999995,
      "d": 388.1580499999982,
      "v": 114
    },
    {
      "midi": 68,
      "hit": false,
      "t": 159473.7479999995,
      "d": 493.42124999998487,
      "v": 114
    },
    {
      "midi": 44,
      "hit": false,
      "t": 159473.7479999995,
      "d": 960.5266999999585,
      "v": 114
    },
    {
      "midi": 54,
      "hit": false,
      "t": 159473.7479999995,
      "d": 1723.6848999999638,
      "v": 114
    },
    {
      "midi": 61,
      "hit": false,
      "t": 159473.7480000002,
      "d": 177.63164999999572,
      "v": 75
    },
    {
      "midi": 63,
      "hit": false,
      "t": 159473.7480000002,
      "d": 177.63164999999572,
      "v": 75
    },
    {
      "midi": 66,
      "hit": false,
      "t": 159473.7480000002,
      "d": 177.63164999999572,
      "v": 75
    },
    {
      "midi": 70,
      "hit": false,
      "t": 159473.7480000002,
      "d": 177.63164999999572,
      "v": 75
    },
    {
      "midi": 44,
      "hit": false,
      "t": 159473.7480000002,
      "d": 3131.5801999999967,
      "v": 64
    },
    {
      "midi": 63,
      "hit": false,
      "t": 159513.2216999995,
      "d": 467.10544999997364,
      "v": 114
    },
    {
      "midi": 61,
      "hit": false,
      "t": 159868.4849999995,
      "d": 190.78954999998678,
      "v": 114
    },
    {
      "midi": 61,
      "hit": false,
      "t": 159868.4850000002,
      "d": 164.47375000000466,
      "v": 39
    },
    {
      "midi": 63,
      "hit": false,
      "t": 159868.4850000002,
      "d": 164.47375000000466,
      "v": 39
    },
    {
      "midi": 66,
      "hit": false,
      "t": 159868.4850000002,
      "d": 164.47375000000466,
      "v": 39
    },
    {
      "midi": 70,
      "hit": false,
      "t": 159868.4850000002,
      "d": 164.47375000000466,
      "v": 39
    },
    {
      "midi": 61,
      "hit": false,
      "t": 160065.85349999947,
      "d": 190.78954999998678,
      "v": 114
    },
    {
      "midi": 61,
      "hit": false,
      "t": 160263.22199999946,
      "d": 315.78960000001825,
      "v": 114
    },
    {
      "midi": 61,
      "hit": false,
      "t": 160263.22200000018,
      "d": 164.47375000000466,
      "v": 52
    },
    {
      "midi": 63,
      "hit": false,
      "t": 160263.22200000018,
      "d": 164.47375000000466,
      "v": 52
    },
    {
      "midi": 66,
      "hit": false,
      "t": 160263.22200000018,
      "d": 164.47375000000466,
      "v": 52
    },
    {
      "midi": 70,
      "hit": false,
      "t": 160263.22200000018,
      "d": 164.47375000000466,
      "v": 52
    },
    {
      "midi": 63,
      "hit": false,
      "t": 160460.59049999947,
      "d": 289.47380000000703,
      "v": 114
    },
    {
      "midi": 44,
      "hit": false,
      "t": 160657.95899999948,
      "d": 388.1580499999982,
      "v": 114
    },
    {
      "midi": 65,
      "hit": false,
      "t": 160657.95899999948,
      "d": 1361.8426499999769,
      "v": 114
    },
    {
      "midi": 61,
      "hit": false,
      "t": 160671.1169000002,
      "d": 164.47375000000466,
      "v": 63
    },
    {
      "midi": 63,
      "hit": false,
      "t": 160671.1169000002,
      "d": 164.47375000000466,
      "v": 63
    },
    {
      "midi": 66,
      "hit": false,
      "t": 160671.1169000002,
      "d": 164.47375000000466,
      "v": 63
    },
    {
      "midi": 70,
      "hit": false,
      "t": 160671.1169000002,
      "d": 164.47375000000466,
      "v": 63
    },
    {
      "midi": 56,
      "hit": false,
      "t": 161052.69599999947,
      "d": 940.789850000001,
      "v": 114
    },
    {
      "midi": 61,
      "hit": false,
      "t": 161052.69599999947,
      "d": 960.5266999999876,
      "v": 114
    },
    {
      "midi": 44,
      "hit": false,
      "t": 161052.69599999947,
      "d": 1072.3688499999698,
      "v": 114
    },
    {
      "midi": 39,
      "hit": false,
      "t": 162236.90699999945,
      "d": 388.1580499999982,
      "v": 114
    },
    {
      "midi": 61,
      "hit": false,
      "t": 162236.90699999945,
      "d": 388.1580499999982,
      "v": 114
    },
    {
      "midi": 37,
      "hit": false,
      "t": 162631.64399999945,
      "d": 776.3160999999964,
      "v": 114
    },
    {
      "midi": 56,
      "hit": false,
      "t": 162631.64399999945,
      "d": 776.3160999999964,
      "v": 114
    },
    {
      "midi": 60,
      "hit": false,
      "t": 162631.64399999945,
      "d": 875.0003499999875,
      "v": 114
    },
    {
      "midi": 63,
      "hit": false,
      "t": 162631.64399999945,
      "d": 940.789850000001,
      "v": 114
    },
    {
      "midi": 56,
      "hit": false,
      "t": 162638.2229500002,
      "d": 743.4213499999896,
      "v": 55
    },
    {
      "midi": 59,
      "hit": false,
      "t": 162638.2229500002,
      "d": 743.4213499999896,
      "v": 55
    },
    {
      "midi": 63,
      "hit": false,
      "t": 162638.2229500002,
      "d": 743.4213499999896,
      "v": 55
    },
    {
      "midi": 37,
      "hit": false,
      "t": 162657.9598000002,
      "d": 743.4213499999896,
      "v": 52
    },
    {
      "midi": 66,
      "hit": false,
      "t": 162671.11769999945,
      "d": 875.0003499999875,
      "v": 114
    },
    {
      "midi": 37,
      "hit": false,
      "t": 163421.11799999943,
      "d": 776.3161000000255,
      "v": 114
    },
    {
      "midi": 56,
      "hit": false,
      "t": 163421.11799999943,
      "d": 776.3161000000255,
      "v": 114
    },
    {
      "midi": 61,
      "hit": false,
      "t": 163421.11799999943,
      "d": 776.3161000000255,
      "v": 114
    },
    {
      "midi": 65,
      "hit": false,
      "t": 163421.11799999943,
      "d": 776.3161000000255,
      "v": 114
    },
    {
      "midi": 56,
      "hit": false,
      "t": 163427.6969500002,
      "d": 743.4213499999896,
      "v": 55
    },
    {
      "midi": 61,
      "hit": false,
      "t": 163427.6969500002,
      "d": 743.4213499999896,
      "v": 55
    },
    {
      "midi": 65,
      "hit": false,
      "t": 163427.6969500002,
      "d": 743.4213499999896,
      "v": 55
    },
    {
      "midi": 49,
      "hit": false,
      "t": 163447.43380000017,
      "d": 743.4213499999896,
      "v": 52
    },
    {
      "midi": 60,
      "hit": false,
      "t": 164210.59199999945,
      "d": 776.3160999999964,
      "v": 114
    },
    {
      "midi": 63,
      "hit": false,
      "t": 164210.59199999945,
      "d": 776.3160999999964,
      "v": 114
    },
    {
      "midi": 56,
      "hit": false,
      "t": 164210.59199999945,
      "d": 894.7371999999741,
      "v": 114
    },
    {
      "midi": 37,
      "hit": false,
      "t": 164210.59199999945,
      "d": 1697.3690999999817,
      "v": 114
    },
    {
      "midi": 59,
      "hit": false,
      "t": 164217.17095000017,
      "d": 743.4213499999896,
      "v": 55
    },
    {
      "midi": 63,
      "hit": false,
      "t": 164217.17095000017,
      "d": 743.4213499999896,
      "v": 55
    },
    {
      "midi": 66,
      "hit": false,
      "t": 164217.17095000017,
      "d": 743.4213499999896,
      "v": 55
    },
    {
      "midi": 68,
      "hit": false,
      "t": 164217.17095000017,
      "d": 743.4213499999896,
      "v": 55
    },
    {
      "midi": 37,
      "hit": false,
      "t": 164236.90780000016,
      "d": 743.4213499999896,
      "v": 52
    },
    {
      "midi": 66,
      "hit": false,
      "t": 164243.48674999946,
      "d": 743.4213499999896,
      "v": 114
    },
    {
      "midi": 61,
      "hit": false,
      "t": 165000.06599999944,
      "d": 776.3160999999964,
      "v": 114
    },
    {
      "midi": 68,
      "hit": false,
      "t": 165000.06599999944,
      "d": 914.4740499999898,
      "v": 114
    },
    {
      "midi": 65,
      "hit": false,
      "t": 165000.06599999944,
      "d": 960.5266999999876,
      "v": 114
    },
    {
      "midi": 56,
      "hit": false,
      "t": 165006.64495000016,
      "d": 743.4213499999896,
      "v": 55
    },
    {
      "midi": 61,
      "hit": false,
      "t": 165006.64495000016,
      "d": 743.4213499999896,
      "v": 55
    },
    {
      "midi": 65,
      "hit": false,
      "t": 165006.64495000016,
      "d": 743.4213499999896,
      "v": 55
    },
    {
      "midi": 49,
      "hit": false,
      "t": 165026.38180000015,
      "d": 743.4213499999896,
      "v": 52
    },
    {
      "midi": 35,
      "hit": false,
      "t": 165789.53999999943,
      "d": 776.3160999999964,
      "v": 114
    },
    {
      "midi": 70,
      "hit": false,
      "t": 165789.53999999943,
      "d": 776.3160999999964,
      "v": 114
    },
    {
      "midi": 61,
      "hit": false,
      "t": 165789.53999999943,
      "d": 875.0003499999875,
      "v": 114
    },
    {
      "midi": 66,
      "hit": false,
      "t": 165789.53999999943,
      "d": 914.4740499999898,
      "v": 114
    },
    {
      "midi": 58,
      "hit": false,
      "t": 165789.54000000012,
      "d": 177.63164999999572,
      "v": 75
    },
    {
      "midi": 61,
      "hit": false,
      "t": 165789.54000000012,
      "d": 177.63164999999572,
      "v": 75
    },
    {
      "midi": 63,
      "hit": false,
      "t": 165789.54000000012,
      "d": 177.63164999999572,
      "v": 75
    },
    {
      "midi": 66,
      "hit": false,
      "t": 165789.54000000012,
      "d": 177.63164999999572,
      "v": 75
    },
    {
      "midi": 47,
      "hit": false,
      "t": 165789.54000000012,
      "d": 3131.5801999999967,
      "v": 64
    },
    {
      "midi": 63,
      "hit": false,
      "t": 165829.01369999943,
      "d": 848.6845499999763,
      "v": 114
    },
    {
      "midi": 58,
      "hit": false,
      "t": 166184.27700000012,
      "d": 164.47375000000466,
      "v": 39
    },
    {
      "midi": 61,
      "hit": false,
      "t": 166184.27700000012,
      "d": 164.47375000000466,
      "v": 39
    },
    {
      "midi": 63,
      "hit": false,
      "t": 166184.27700000012,
      "d": 164.47375000000466,
      "v": 39
    },
    {
      "midi": 66,
      "hit": false,
      "t": 166184.27700000012,
      "d": 164.47375000000466,
      "v": 39
    },
    {
      "midi": 70,
      "hit": false,
      "t": 166579.0139999994,
      "d": 578.947599999985,
      "v": 114
    },
    {
      "midi": 58,
      "hit": false,
      "t": 166579.0140000001,
      "d": 164.47375000000466,
      "v": 52
    },
    {
      "midi": 61,
      "hit": false,
      "t": 166579.0140000001,
      "d": 164.47375000000466,
      "v": 52
    },
    {
      "midi": 63,
      "hit": false,
      "t": 166579.0140000001,
      "d": 164.47375000000466,
      "v": 52
    },
    {
      "midi": 66,
      "hit": false,
      "t": 166579.0140000001,
      "d": 164.47375000000466,
      "v": 52
    },
    {
      "midi": 35,
      "hit": false,
      "t": 166973.7509999994,
      "d": 388.1580499999982,
      "v": 114
    },
    {
      "midi": 68,
      "hit": false,
      "t": 166973.7509999994,
      "d": 388.1580499999982,
      "v": 114
    },
    {
      "midi": 58,
      "hit": false,
      "t": 166986.90890000013,
      "d": 164.47375000000466,
      "v": 63
    },
    {
      "midi": 61,
      "hit": false,
      "t": 166986.90890000013,
      "d": 164.47375000000466,
      "v": 63
    },
    {
      "midi": 63,
      "hit": false,
      "t": 166986.90890000013,
      "d": 164.47375000000466,
      "v": 63
    },
    {
      "midi": 66,
      "hit": false,
      "t": 166986.90890000013,
      "d": 164.47375000000466,
      "v": 63
    },
    {
      "midi": 66,
      "hit": false,
      "t": 167368.4879999994,
      "d": 388.1580499999982,
      "v": 114
    },
    {
      "midi": 58,
      "hit": false,
      "t": 167368.4879999994,
      "d": 513.1581000000006,
      "v": 114
    },
    {
      "midi": 63,
      "hit": false,
      "t": 167368.4879999994,
      "d": 513.1581000000006,
      "v": 114
    },
    {
      "midi": 35,
      "hit": false,
      "t": 167368.4879999994,
      "d": 1434.211099999986,
      "v": 114
    },
    {
      "midi": 65,
      "hit": false,
      "t": 167763.2249999994,
      "d": 289.47380000000703,
      "v": 114
    },
    {
      "midi": 66,
      "hit": false,
      "t": 167960.5934999994,
      "d": 190.78954999998678,
      "v": 114
    },
    {
      "midi": 66,
      "hit": false,
      "t": 168157.9619999994,
      "d": 513.1581000000006,
      "v": 114
    },
    {
      "midi": 68,
      "hit": false,
      "t": 168552.69899999938,
      "d": 388.1580499999982,
      "v": 114
    },
    {
      "midi": 61,
      "hit": false,
      "t": 168947.43599999938,
      "d": 388.1580499999982,
      "v": 114
    },
    {
      "midi": 58,
      "hit": false,
      "t": 168947.43599999938,
      "d": 513.1581000000006,
      "v": 114
    },
    {
      "midi": 34,
      "hit": false,
      "t": 168947.43599999938,
      "d": 940.789850000001,
      "v": 114
    },
    {
      "midi": 34,
      "hit": false,
      "t": 168947.43600000013,
      "d": 3131.5801999999967,
      "v": 66
    },
    {
      "midi": 68,
      "hit": false,
      "t": 168986.90969999938,
      "d": 348.6843499999959,
      "v": 114
    },
    {
      "midi": 68,
      "hit": false,
      "t": 169342.17299999937,
      "d": 190.78955000001588,
      "v": 114
    },
    {
      "midi": 68,
      "hit": false,
      "t": 169539.54149999938,
      "d": 190.78954999998678,
      "v": 114
    },
    {
      "midi": 68,
      "hit": false,
      "t": 169736.90999999936,
      "d": 190.78955000001588,
      "v": 114
    },
    {
      "midi": 61,
      "hit": false,
      "t": 169736.91000000012,
      "d": 2342.1062000000093,
      "v": 67
    },
    {
      "midi": 66,
      "hit": false,
      "t": 169736.91000000012,
      "d": 2342.1062000000093,
      "v": 67
    },
    {
      "midi": 70,
      "hit": false,
      "t": 169736.91000000012,
      "d": 2342.1062000000093,
      "v": 67
    },
    {
      "midi": 66,
      "hit": false,
      "t": 169934.27849999937,
      "d": 190.78954999998678,
      "v": 114
    },
    {
      "midi": 34,
      "hit": false,
      "t": 170131.64699999936,
      "d": 388.1580499999982,
      "v": 114
    },
    {
      "midi": 66,
      "hit": false,
      "t": 170131.64699999936,
      "d": 1230.263650000008,
      "v": 114
    },
    {
      "midi": 61,
      "hit": false,
      "t": 170131.64699999936,
      "d": 1250.0004999999946,
      "v": 114
    },
    {
      "midi": 70,
      "hit": false,
      "t": 170164.54174999936,
      "d": 1230.263649999979,
      "v": 114
    },
    {
      "midi": 34,
      "hit": false,
      "t": 170526.38399999935,
      "d": 1947.3692000000447,
      "v": 114
    },
    {
      "midi": 68,
      "hit": false,
      "t": 171513.22649999935,
      "d": 269.73695000002044,
      "v": 114
    },
    {
      "midi": 70,
      "hit": false,
      "t": 171710.59499999936,
      "d": 315.78960000001825,
      "v": 114
    },
    {
      "midi": 44,
      "hit": false,
      "t": 172105.33199999938,
      "d": 1157.895199999999,
      "v": 114
    },
    {
      "midi": 63,
      "hit": false,
      "t": 172105.33199999938,
      "d": 1157.895199999999,
      "v": 114
    },
    {
      "midi": 66,
      "hit": false,
      "t": 172105.33199999938,
      "d": 1157.895199999999,
      "v": 114
    },
    {
      "midi": 70,
      "hit": false,
      "t": 172105.33199999938,
      "d": 1157.895199999999,
      "v": 114
    },
    {
      "midi": 61,
      "hit": false,
      "t": 172105.33200000014,
      "d": 177.63164999999572,
      "v": 75
    },
    {
      "midi": 63,
      "hit": false,
      "t": 172105.33200000014,
      "d": 177.63164999999572,
      "v": 75
    },
    {
      "midi": 66,
      "hit": false,
      "t": 172105.33200000014,
      "d": 177.63164999999572,
      "v": 75
    },
    {
      "midi": 70,
      "hit": false,
      "t": 172105.33200000014,
      "d": 177.63164999999572,
      "v": 75
    },
    {
      "midi": 44,
      "hit": false,
      "t": 172105.33200000014,
      "d": 3131.5801999999967,
      "v": 64
    },
    {
      "midi": 73,
      "hit": false,
      "t": 172144.8056999994,
      "d": 1125.0004499999923,
      "v": 114
    },
    {
      "midi": 61,
      "hit": false,
      "t": 172500.06900000013,
      "d": 164.47375000000466,
      "v": 39
    },
    {
      "midi": 63,
      "hit": false,
      "t": 172500.06900000013,
      "d": 164.47375000000466,
      "v": 39
    },
    {
      "midi": 66,
      "hit": false,
      "t": 172500.06900000013,
      "d": 164.47375000000466,
      "v": 39
    },
    {
      "midi": 70,
      "hit": false,
      "t": 172500.06900000013,
      "d": 164.47375000000466,
      "v": 39
    },
    {
      "midi": 61,
      "hit": false,
      "t": 172894.80600000013,
      "d": 164.47375000000466,
      "v": 52
    },
    {
      "midi": 63,
      "hit": false,
      "t": 172894.80600000013,
      "d": 164.47375000000466,
      "v": 52
    },
    {
      "midi": 66,
      "hit": false,
      "t": 172894.80600000013,
      "d": 164.47375000000466,
      "v": 52
    },
    {
      "midi": 70,
      "hit": false,
      "t": 172894.80600000013,
      "d": 164.47375000000466,
      "v": 52
    },
    {
      "midi": 70,
      "hit": false,
      "t": 173289.54299999936,
      "d": 190.78954999998678,
      "v": 114
    },
    {
      "midi": 44,
      "hit": false,
      "t": 173289.54299999936,
      "d": 269.73694999999134,
      "v": 114
    },
    {
      "midi": 61,
      "hit": false,
      "t": 173302.70090000014,
      "d": 164.47375000000466,
      "v": 63
    },
    {
      "midi": 63,
      "hit": false,
      "t": 173302.70090000014,
      "d": 164.47375000000466,
      "v": 63
    },
    {
      "midi": 66,
      "hit": false,
      "t": 173302.70090000014,
      "d": 164.47375000000466,
      "v": 63
    },
    {
      "midi": 70,
      "hit": false,
      "t": 173302.70090000014,
      "d": 164.47375000000466,
      "v": 63
    },
    {
      "midi": 68,
      "hit": false,
      "t": 173421.12199999936,
      "d": 157.89479999998002,
      "v": 114
    },
    {
      "midi": 66,
      "hit": false,
      "t": 173552.70099999936,
      "d": 131.5789999999688,
      "v": 114
    },
    {
      "midi": 68,
      "hit": false,
      "t": 173684.27999999933,
      "d": 388.1580499999982,
      "v": 114
    },
    {
      "midi": 61,
      "hit": false,
      "t": 173684.27999999933,
      "d": 401.31594999998924,
      "v": 114
    },
    {
      "midi": 44,
      "hit": false,
      "t": 173684.27999999933,
      "d": 1453.9479500000016,
      "v": 114
    },
    {
      "midi": 63,
      "hit": false,
      "t": 173736.91159999932,
      "d": 736.8423999999941,
      "v": 114
    },
    {
      "midi": 66,
      "hit": false,
      "t": 173736.91159999932,
      "d": 763.1582000000053,
      "v": 114
    },
    {
      "midi": 70,
      "hit": false,
      "t": 174079.01699999932,
      "d": 467.10545000000275,
      "v": 114
    },
    {
      "midi": 68,
      "hit": false,
      "t": 174671.12249999933,
      "d": 335.52645000000484,
      "v": 114
    },
    {
      "midi": 70,
      "hit": false,
      "t": 174868.49099999934,
      "d": 388.1580499999982,
      "v": 114
    },
    {
      "midi": 44,
      "hit": false,
      "t": 175263.22799999933,
      "d": 3868.422599999991,
      "v": 114
    },
    {
      "midi": 66,
      "hit": false,
      "t": 175263.22799999933,
      "d": 3868.422599999991,
      "v": 114
    },
    {
      "midi": 70,
      "hit": false,
      "t": 175263.22799999933,
      "d": 3868.422599999991,
      "v": 114
    },
    {
      "midi": 73,
      "hit": false,
      "t": 175263.22799999933,
      "d": 3868.422599999991,
      "v": 114
    },
    {
      "midi": 44,
      "hit": false,
      "t": 175263.22800000015,
      "d": 1506.579549999995,
      "v": 46
    },
    {
      "midi": 61,
      "hit": false,
      "t": 175263.22800000015,
      "d": 1552.6321999999927,
      "v": 61
    },
    {
      "midi": 63,
      "hit": false,
      "t": 175263.22800000015,
      "d": 1552.6321999999927,
      "v": 61
    },
    {
      "midi": 66,
      "hit": false,
      "t": 175263.22800000015,
      "d": 1552.6321999999927,
      "v": 61
    },
    {
      "midi": 70,
      "hit": false,
      "t": 175263.22800000015,
      "d": 1552.6321999999927,
      "v": 61
    },
    {
      "midi": 77,
      "hit": false,
      "t": 175302.70169999934,
      "d": 1677.632249999995,
      "v": 114
    },
    {
      "midi": 58,
      "hit": false,
      "t": 179210.59799999933,
      "d": 388.1580499999982,
      "v": 114
    },
    {
      "midi": 63,
      "hit": false,
      "t": 179210.59799999933,
      "d": 388.1580499999982,
      "v": 114
    },
    {
      "midi": 58,
      "hit": false,
      "t": 179605.33499999932,
      "d": 190.78954999998678,
      "v": 114
    },
    {
      "midi": 62,
      "hit": false,
      "t": 179605.33499999932,
      "d": 190.78954999998678,
      "v": 114
    },
    {
      "midi": 55,
      "hit": false,
      "t": 179802.7034999993,
      "d": 1065.7899000000325,
      "v": 114
    },
    {
      "midi": 58,
      "hit": false,
      "t": 179802.7034999993,
      "d": 1085.526750000019,
      "v": 114
    },
    {
      "midi": 63,
      "hit": false,
      "t": 179842.1771999993,
      "d": 828.9477000000188,
      "v": 114
    },
    {
      "midi": 39,
      "hit": false,
      "t": 180000.07199999932,
      "d": 1276.3163000000059,
      "v": 114
    },
    {
      "midi": 39,
      "hit": false,
      "t": 180000.07200000013,
      "d": 539.4739000000118,
      "v": 54
    },
    {
      "midi": 55,
      "hit": false,
      "t": 180000.07200000013,
      "d": 1118.4215000000258,
      "v": 69
    },
    {
      "midi": 58,
      "hit": false,
      "t": 180000.07200000013,
      "d": 1118.4215000000258,
      "v": 69
    },
    {
      "midi": 63,
      "hit": false,
      "t": 180000.07200000013,
      "d": 1118.4215000000258,
      "v": 69
    },
    {
      "midi": 63,
      "hit": false,
      "t": 180789.54599999933,
      "d": 388.1580499999982,
      "v": 114
    },
    {
      "midi": 62,
      "hit": false,
      "t": 181184.28299999933,
      "d": 296.05275000000256,
      "v": 114
    },
    {
      "midi": 41,
      "hit": false,
      "t": 181184.28300000017,
      "d": 1671.0532999999996,
      "v": 64
    },
    {
      "midi": 60,
      "hit": false,
      "t": 181184.28300000017,
      "d": 1723.684899999993,
      "v": 59
    },
    {
      "midi": 63,
      "hit": false,
      "t": 181184.28300000017,
      "d": 1723.684899999993,
      "v": 59
    },
    {
      "midi": 65,
      "hit": false,
      "t": 181184.28300000017,
      "d": 1723.684899999993,
      "v": 59
    },
    {
      "midi": 68,
      "hit": false,
      "t": 181184.28300000017,
      "d": 1723.684899999993,
      "v": 59
    },
    {
      "midi": 39,
      "hit": false,
      "t": 181381.6514999993,
      "d": 276.315900000016,
      "v": 114
    },
    {
      "midi": 60,
      "hit": false,
      "t": 181381.6514999993,
      "d": 1046.0530500000168,
      "v": 114
    },
    {
      "midi": 56,
      "hit": false,
      "t": 181381.6514999993,
      "d": 1125.0004500000214,
      "v": 114
    },
    {
      "midi": 63,
      "hit": false,
      "t": 181414.54624999932,
      "d": 828.9477000000188,
      "v": 114
    },
    {
      "midi": 41,
      "hit": false,
      "t": 181579.01999999932,
      "d": 1690.7901500000444,
      "v": 114
    },
    {
      "midi": 63,
      "hit": false,
      "t": 182368.49399999934,
      "d": 388.1580499999982,
      "v": 114
    },
    {
      "midi": 62,
      "hit": false,
      "t": 182763.23099999933,
      "d": 315.78960000001825,
      "v": 114
    },
    {
      "midi": 58,
      "hit": false,
      "t": 182960.59949999934,
      "d": 1026.3162000000302,
      "v": 114
    },
    {
      "midi": 55,
      "hit": false,
      "t": 182960.59949999934,
      "d": 1046.0530500000168,
      "v": 114
    },
    {
      "midi": 63,
      "hit": false,
      "t": 183000.07319999934,
      "d": 828.9477000000188,
      "v": 114
    },
    {
      "midi": 43,
      "hit": false,
      "t": 183157.96799999935,
      "d": 1276.3163000000059,
      "v": 114
    },
    {
      "midi": 43,
      "hit": false,
      "t": 183157.96800000017,
      "d": 1506.579549999995,
      "v": 54
    },
    {
      "midi": 55,
      "hit": false,
      "t": 183157.96800000017,
      "d": 1552.6321999999927,
      "v": 69
    },
    {
      "midi": 58,
      "hit": false,
      "t": 183157.96800000017,
      "d": 1552.6321999999927,
      "v": 69
    },
    {
      "midi": 63,
      "hit": false,
      "t": 183157.96800000017,
      "d": 1552.6321999999927,
      "v": 69
    },
    {
      "midi": 63,
      "hit": false,
      "t": 183947.44199999937,
      "d": 388.1580499999982,
      "v": 114
    },
    {
      "midi": 65,
      "hit": false,
      "t": 184342.17899999936,
      "d": 190.78954999998678,
      "v": 114
    },
    {
      "midi": 43,
      "hit": false,
      "t": 184539.54749999935,
      "d": 335.52645000000484,
      "v": 114
    },
    {
      "midi": 63,
      "hit": false,
      "t": 184539.54749999935,
      "d": 611.8423499999917,
      "v": 114
    },
    {
      "midi": 56,
      "hit": false,
      "t": 184539.54749999935,
      "d": 671.0528999999806,
      "v": 114
    },
    {
      "midi": 67,
      "hit": false,
      "t": 184579.02119999935,
      "d": 631.5791999999783,
      "v": 114
    },
    {
      "midi": 44,
      "hit": false,
      "t": 184736.91599999936,
      "d": 1085.5267499999609,
      "v": 114
    },
    {
      "midi": 44,
      "hit": false,
      "t": 184736.91600000017,
      "d": 1506.579549999995,
      "v": 54
    },
    {
      "midi": 60,
      "hit": false,
      "t": 184736.91600000017,
      "d": 1552.6321999999927,
      "v": 69
    },
    {
      "midi": 63,
      "hit": false,
      "t": 184736.91600000017,
      "d": 1552.6321999999927,
      "v": 69
    },
    {
      "midi": 67,
      "hit": false,
      "t": 184736.91600000017,
      "d": 1552.6321999999927,
      "v": 69
    },
    {
      "midi": 70,
      "hit": false,
      "t": 184736.91600000017,
      "d": 1552.6321999999927,
      "v": 69
    },
    {
      "midi": 65,
      "hit": false,
      "t": 185131.65299999935,
      "d": 296.05274999997346,
      "v": 114
    },
    {
      "midi": 63,
      "hit": false,
      "t": 185329.02149999933,
      "d": 750.0002999999851,
      "v": 114
    },
    {
      "midi": 62,
      "hit": false,
      "t": 185921.1269999993,
      "d": 296.05275000000256,
      "v": 114
    },
    {
      "midi": 43,
      "hit": false,
      "t": 185921.1269999993,
      "d": 513.1581000000006,
      "v": 114
    },
    {
      "midi": 56,
      "hit": false,
      "t": 186118.49549999932,
      "d": 690.7897499999672,
      "v": 114
    },
    {
      "midi": 60,
      "hit": false,
      "t": 186118.49549999932,
      "d": 710.5265999999538,
      "v": 114
    },
    {
      "midi": 41,
      "hit": false,
      "t": 186315.8639999993,
      "d": 1335.5268499999656,
      "v": 114
    },
    {
      "midi": 60,
      "hit": false,
      "t": 186315.86400000018,
      "d": 177.63164999999572,
      "v": 77
    },
    {
      "midi": 63,
      "hit": false,
      "t": 186315.86400000018,
      "d": 177.63164999999572,
      "v": 77
    },
    {
      "midi": 65,
      "hit": false,
      "t": 186315.86400000018,
      "d": 177.63164999999572,
      "v": 77
    },
    {
      "midi": 68,
      "hit": false,
      "t": 186315.86400000018,
      "d": 177.63164999999572,
      "v": 77
    },
    {
      "midi": 41,
      "hit": false,
      "t": 186315.86400000018,
      "d": 2710.5273999999918,
      "v": 66
    },
    {
      "midi": 58,
      "hit": false,
      "t": 186710.6009999993,
      "d": 388.1580499999691,
      "v": 114
    },
    {
      "midi": 60,
      "hit": false,
      "t": 186710.60100000017,
      "d": 164.47375000000466,
      "v": 41
    },
    {
      "midi": 63,
      "hit": false,
      "t": 186710.60100000017,
      "d": 164.47375000000466,
      "v": 41
    },
    {
      "midi": 65,
      "hit": false,
      "t": 186710.60100000017,
      "d": 164.47375000000466,
      "v": 41
    },
    {
      "midi": 68,
      "hit": false,
      "t": 186710.60100000017,
      "d": 164.47375000000466,
      "v": 41
    },
    {
      "midi": 58,
      "hit": false,
      "t": 187105.33799999926,
      "d": 927.6319499999809,
      "v": 114
    },
    {
      "midi": 60,
      "hit": false,
      "t": 187105.33800000016,
      "d": 164.47375000000466,
      "v": 54
    },
    {
      "midi": 63,
      "hit": false,
      "t": 187105.33800000016,
      "d": 164.47375000000466,
      "v": 54
    },
    {
      "midi": 65,
      "hit": false,
      "t": 187105.33800000016,
      "d": 164.47375000000466,
      "v": 54
    },
    {
      "midi": 68,
      "hit": false,
      "t": 187105.33800000016,
      "d": 164.47375000000466,
      "v": 54
    },
    {
      "midi": 60,
      "hit": false,
      "t": 187513.23290000018,
      "d": 164.47375000000466,
      "v": 65
    },
    {
      "midi": 63,
      "hit": false,
      "t": 187513.23290000018,
      "d": 164.47375000000466,
      "v": 65
    },
    {
      "midi": 65,
      "hit": false,
      "t": 187513.23290000018,
      "d": 164.47375000000466,
      "v": 65
    },
    {
      "midi": 68,
      "hit": false,
      "t": 187513.23290000018,
      "d": 164.47375000000466,
      "v": 65
    },
    {
      "midi": 41,
      "hit": false,
      "t": 187697.44349999927,
      "d": 190.78954999998678,
      "v": 114
    },
    {
      "midi": 56,
      "hit": false,
      "t": 187894.81199999925,
      "d": 572.3686499999894,
      "v": 114
    },
    {
      "midi": 41,
      "hit": false,
      "t": 187894.81199999925,
      "d": 1105.2636000000057,
      "v": 114
    },
    {
      "midi": 60,
      "hit": false,
      "t": 188289.54899999924,
      "d": 513.1581000000006,
      "v": 114
    },
    {
      "midi": 65,
      "hit": false,
      "t": 188684.28599999924,
      "d": 532.8949500000163,
      "v": 114
    },
    {
      "midi": 43,
      "hit": false,
      "t": 188881.65449999925,
      "d": 190.78955000001588,
      "v": 114
    },
    {
      "midi": 44,
      "hit": false,
      "t": 189079.02299999926,
      "d": 190.78954999998678,
      "v": 114
    },
    {
      "midi": 58,
      "hit": false,
      "t": 189079.02299999926,
      "d": 414.4738499999803,
      "v": 114
    },
    {
      "midi": 60,
      "hit": false,
      "t": 189098.75985000018,
      "d": 3302.632899999968,
      "v": 69
    },
    {
      "midi": 63,
      "hit": false,
      "t": 189098.75985000018,
      "d": 3302.632899999968,
      "v": 69
    },
    {
      "midi": 65,
      "hit": false,
      "t": 189098.75985000018,
      "d": 3302.632899999968,
      "v": 69
    },
    {
      "midi": 68,
      "hit": false,
      "t": 189098.75985000018,
      "d": 3302.632899999968,
      "v": 69
    },
    {
      "midi": 34,
      "hit": false,
      "t": 189118.49670000016,
      "d": 2888.1590499999875,
      "v": 54
    },
    {
      "midi": 43,
      "hit": false,
      "t": 189276.39149999924,
      "d": 296.05275000000256,
      "v": 114
    },
    {
      "midi": 56,
      "hit": false,
      "t": 189473.75999999925,
      "d": 967.1056499999831,
      "v": 114
    },
    {
      "midi": 46,
      "hit": false,
      "t": 189473.75999999925,
      "d": 986.8424999999697,
      "v": 114
    },
    {
      "midi": 58,
      "hit": false,
      "t": 189519.81264999925,
      "d": 986.8424999999697,
      "v": 114
    },
    {
      "midi": 65,
      "hit": false,
      "t": 190657.97099999923,
      "d": 190.78954999998678,
      "v": 114
    },
    {
      "midi": 46,
      "hit": false,
      "t": 190657.97099999923,
      "d": 315.78959999998915,
      "v": 114
    },
    {
      "midi": 60,
      "hit": false,
      "t": 190855.33949999922,
      "d": 690.7897499999963,
      "v": 114
    },
    {
      "midi": 56,
      "hit": false,
      "t": 190855.33949999922,
      "d": 710.5265999999829,
      "v": 114
    },
    {
      "midi": 65,
      "hit": false,
      "t": 190894.81319999922,
      "d": 651.316049999994,
      "v": 114
    },
    {
      "midi": 46,
      "hit": false,
      "t": 191052.70799999923,
      "d": 1006.5793499999563,
      "v": 114
    },
    {
      "midi": 67,
      "hit": false,
      "t": 191447.44499999922,
      "d": 552.6317999999737,
      "v": 114
    },
    {
      "midi": 56,
      "hit": false,
      "t": 191842.1819999992,
      "d": 388.1580499999982,
      "v": 114
    },
    {
      "midi": 60,
      "hit": false,
      "t": 191842.1819999992,
      "d": 513.1581000000006,
      "v": 114
    },
    {
      "midi": 63,
      "hit": false,
      "t": 191875.0767499992,
      "d": 355.26329999999143,
      "v": 114
    },
    {
      "midi": 62,
      "hit": false,
      "t": 192236.91899999918,
      "d": 348.684350000025,
      "v": 114
    },
    {
      "midi": 46,
      "hit": false,
      "t": 192236.91899999918,
      "d": 592.1055000000342,
      "v": 114
    },
    {
      "midi": 55,
      "hit": false,
      "t": 192434.2874999992,
      "d": 1138.1583500000415,
      "v": 114
    },
    {
      "midi": 58,
      "hit": false,
      "t": 192434.2874999992,
      "d": 1157.8952000000281,
      "v": 114
    },
    {
      "midi": 63,
      "hit": false,
      "t": 192473.7611999992,
      "d": 828.9477000000188,
      "v": 114
    },
    {
      "midi": 39,
      "hit": false,
      "t": 192631.6559999992,
      "d": 1223.6847000000125,
      "v": 114
    },
    {
      "midi": 39,
      "hit": false,
      "t": 192631.65600000013,
      "d": 539.4739000000118,
      "v": 54
    },
    {
      "midi": 55,
      "hit": false,
      "t": 192631.65600000013,
      "d": 1118.4215000000258,
      "v": 69
    },
    {
      "midi": 58,
      "hit": false,
      "t": 192631.65600000013,
      "d": 1118.4215000000258,
      "v": 69
    },
    {
      "midi": 63,
      "hit": false,
      "t": 192631.65600000013,
      "d": 1118.4215000000258,
      "v": 69
    },
    {
      "midi": 63,
      "hit": false,
      "t": 193421.12999999922,
      "d": 388.1580499999982,
      "v": 114
    },
    {
      "midi": 62,
      "hit": false,
      "t": 193815.8669999992,
      "d": 190.78955000001588,
      "v": 114
    },
    {
      "midi": 41,
      "hit": false,
      "t": 193815.86700000017,
      "d": 1671.0532999999996,
      "v": 64
    },
    {
      "midi": 60,
      "hit": false,
      "t": 193815.86700000017,
      "d": 1723.684899999993,
      "v": 59
    },
    {
      "midi": 63,
      "hit": false,
      "t": 193815.86700000017,
      "d": 1723.684899999993,
      "v": 59
    },
    {
      "midi": 65,
      "hit": false,
      "t": 193815.86700000017,
      "d": 1723.684899999993,
      "v": 59
    },
    {
      "midi": 68,
      "hit": false,
      "t": 193815.86700000017,
      "d": 1723.684899999993,
      "v": 59
    },
    {
      "midi": 39,
      "hit": false,
      "t": 194013.23549999922,
      "d": 190.78955000001588,
      "v": 114
    },
    {
      "midi": 60,
      "hit": false,
      "t": 194013.23549999922,
      "d": 1092.1057000000146,
      "v": 114
    },
    {
      "midi": 56,
      "hit": false,
      "t": 194013.23549999922,
      "d": 1118.4215000000258,
      "v": 114
    },
    {
      "midi": 63,
      "hit": false,
      "t": 194052.70919999923,
      "d": 828.9477000000188,
      "v": 114
    },
    {
      "midi": 41,
      "hit": false,
      "t": 194210.60399999924,
      "d": 1684.2111999999906,
      "v": 114
    },
    {
      "midi": 63,
      "hit": false,
      "t": 195000.07799999925,
      "d": 388.1580499999982,
      "v": 114
    },
    {
      "midi": 63,
      "hit": false,
      "t": 195394.81499999925,
      "d": 190.78954999998678,
      "v": 114
    },
    {
      "midi": 63,
      "hit": false,
      "t": 195592.18349999923,
      "d": 657.8950000000186,
      "v": 114
    },
    {
      "midi": 67,
      "hit": false,
      "t": 195592.18349999923,
      "d": 657.8950000000186,
      "v": 114
    },
    {
      "midi": 72,
      "hit": false,
      "t": 195631.65719999923,
      "d": 657.8950000000186,
      "v": 114
    },
    {
      "midi": 43,
      "hit": false,
      "t": 195789.55199999924,
      "d": 1703.9480500000063,
      "v": 114
    },
    {
      "midi": 43,
      "hit": false,
      "t": 195789.55200000017,
      "d": 1506.579549999995,
      "v": 54
    },
    {
      "midi": 55,
      "hit": false,
      "t": 195789.55200000017,
      "d": 1552.6321999999927,
      "v": 69
    },
    {
      "midi": 58,
      "hit": false,
      "t": 195789.55200000017,
      "d": 1552.6321999999927,
      "v": 69
    },
    {
      "midi": 63,
      "hit": false,
      "t": 195789.55200000017,
      "d": 1552.6321999999927,
      "v": 69
    },
    {
      "midi": 70,
      "hit": false,
      "t": 196184.28899999923,
      "d": 190.78955000001588,
      "v": 114
    },
    {
      "midi": 70,
      "hit": false,
      "t": 196381.65749999924,
      "d": 388.1580499999982,
      "v": 114
    },
    {
      "midi": 70,
      "hit": false,
      "t": 196776.39449999924,
      "d": 375.0001500000071,
      "v": 114
    },
    {
      "midi": 65,
      "hit": false,
      "t": 196973.76299999925,
      "d": 1881.579699999973,
      "v": 114
    },
    {
      "midi": 68,
      "hit": false,
      "t": 196973.76299999925,
      "d": 1881.579699999973,
      "v": 114
    },
    {
      "midi": 72,
      "hit": false,
      "t": 196973.76299999925,
      "d": 1881.579699999973,
      "v": 114
    },
    {
      "midi": 75,
      "hit": false,
      "t": 197013.23669999925,
      "d": 1835.5270499999751,
      "v": 114
    },
    {
      "midi": 37,
      "hit": false,
      "t": 197368.49999999924,
      "d": 1769.7375499999907,
      "v": 114
    },
    {
      "midi": 49,
      "hit": false,
      "t": 197368.50000000017,
      "d": 1506.579549999995,
      "v": 54
    },
    {
      "midi": 60,
      "hit": false,
      "t": 197368.50000000017,
      "d": 1552.6321999999927,
      "v": 69
    },
    {
      "midi": 63,
      "hit": false,
      "t": 197368.50000000017,
      "d": 1552.6321999999927,
      "v": 69
    },
    {
      "midi": 65,
      "hit": false,
      "t": 197368.50000000017,
      "d": 1552.6321999999927,
      "v": 69
    },
    {
      "midi": 68,
      "hit": false,
      "t": 197368.50000000017,
      "d": 1552.6321999999927,
      "v": 69
    },
    {
      "midi": 63,
      "hit": false,
      "t": 198750.07949999924,
      "d": 190.78954999998678,
      "v": 114
    },
    {
      "midi": 63,
      "hit": false,
      "t": 198947.44799999922,
      "d": 500.0002000000095,
      "v": 114
    },
    {
      "midi": 60,
      "hit": false,
      "t": 198947.44799999922,
      "d": 546.0528500000073,
      "v": 114
    },
    {
      "midi": 41,
      "hit": false,
      "t": 198947.44799999922,
      "d": 1289.4742000000551,
      "v": 114
    },
    {
      "midi": 60,
      "hit": false,
      "t": 198947.44800000018,
      "d": 177.63164999999572,
      "v": 77
    },
    {
      "midi": 63,
      "hit": false,
      "t": 198947.44800000018,
      "d": 177.63164999999572,
      "v": 77
    },
    {
      "midi": 65,
      "hit": false,
      "t": 198947.44800000018,
      "d": 177.63164999999572,
      "v": 77
    },
    {
      "midi": 68,
      "hit": false,
      "t": 198947.44800000018,
      "d": 177.63164999999572,
      "v": 77
    },
    {
      "midi": 41,
      "hit": false,
      "t": 198947.44800000018,
      "d": 3131.5801999999967,
      "v": 66
    },
    {
      "midi": 68,
      "hit": false,
      "t": 198973.76379999923,
      "d": 361.84225000001607,
      "v": 114
    },
    {
      "midi": 68,
      "hit": false,
      "t": 199342.18499999924,
      "d": 263.1579999999958,
      "v": 114
    },
    {
      "midi": 60,
      "hit": false,
      "t": 199342.18500000017,
      "d": 164.47375000000466,
      "v": 41
    },
    {
      "midi": 63,
      "hit": false,
      "t": 199342.18500000017,
      "d": 164.47375000000466,
      "v": 41
    },
    {
      "midi": 65,
      "hit": false,
      "t": 199342.18500000017,
      "d": 164.47375000000466,
      "v": 41
    },
    {
      "midi": 68,
      "hit": false,
      "t": 199342.18500000017,
      "d": 164.47375000000466,
      "v": 41
    },
    {
      "midi": 70,
      "hit": false,
      "t": 199539.55349999922,
      "d": 388.1580500000273,
      "v": 114
    },
    {
      "midi": 60,
      "hit": false,
      "t": 199736.92200000017,
      "d": 164.47375000000466,
      "v": 54
    },
    {
      "midi": 63,
      "hit": false,
      "t": 199736.92200000017,
      "d": 164.47375000000466,
      "v": 54
    },
    {
      "midi": 65,
      "hit": false,
      "t": 199736.92200000017,
      "d": 164.47375000000466,
      "v": 54
    },
    {
      "midi": 68,
      "hit": false,
      "t": 199736.92200000017,
      "d": 164.47375000000466,
      "v": 54
    },
    {
      "midi": 70,
      "hit": false,
      "t": 199934.29049999925,
      "d": 348.684350000025,
      "v": 114
    },
    {
      "midi": 63,
      "hit": false,
      "t": 200131.65899999926,
      "d": 1684.2111999999906,
      "v": 114
    },
    {
      "midi": 68,
      "hit": false,
      "t": 200131.65899999926,
      "d": 1901.3165499999886,
      "v": 114
    },
    {
      "midi": 60,
      "hit": false,
      "t": 200144.81690000018,
      "d": 164.47375000000466,
      "v": 65
    },
    {
      "midi": 63,
      "hit": false,
      "t": 200144.81690000018,
      "d": 164.47375000000466,
      "v": 65
    },
    {
      "midi": 65,
      "hit": false,
      "t": 200144.81690000018,
      "d": 164.47375000000466,
      "v": 65
    },
    {
      "midi": 68,
      "hit": false,
      "t": 200144.81690000018,
      "d": 164.47375000000466,
      "v": 65
    },
    {
      "midi": 72,
      "hit": false,
      "t": 200171.13269999926,
      "d": 1835.5270499999751,
      "v": 114
    },
    {
      "midi": 41,
      "hit": false,
      "t": 200329.02749999927,
      "d": 190.78954999998678,
      "v": 114
    },
    {
      "midi": 41,
      "hit": false,
      "t": 200526.39599999925,
      "d": 1750.0007000000041,
      "v": 114
    },
    {
      "midi": 63,
      "hit": false,
      "t": 201907.97549999924,
      "d": 190.78955000001588,
      "v": 114
    },
    {
      "midi": 66,
      "hit": false,
      "t": 202105.34399999926,
      "d": 388.1580499999982,
      "v": 114
    },
    {
      "midi": 59,
      "hit": false,
      "t": 202105.34399999926,
      "d": 480.2633499999938,
      "v": 114
    },
    {
      "midi": 63,
      "hit": false,
      "t": 202105.34399999926,
      "d": 480.2633499999938,
      "v": 114
    },
    {
      "midi": 49,
      "hit": false,
      "t": 202105.34399999926,
      "d": 1026.3162000000011,
      "v": 114
    },
    {
      "midi": 54,
      "hit": false,
      "t": 202111.92295000018,
      "d": 322.3685499999847,
      "v": 63
    },
    {
      "midi": 59,
      "hit": false,
      "t": 202111.92295000018,
      "d": 322.3685499999847,
      "v": 63
    },
    {
      "midi": 63,
      "hit": false,
      "t": 202111.92295000018,
      "d": 322.3685499999847,
      "v": 63
    },
    {
      "midi": 49,
      "hit": false,
      "t": 202131.65980000017,
      "d": 302.6316999999981,
      "v": 60
    },
    {
      "midi": 66,
      "hit": false,
      "t": 202500.08099999925,
      "d": 328.9475000000093,
      "v": 114
    },
    {
      "midi": 60,
      "hit": false,
      "t": 202506.65995000018,
      "d": 1125.0004499999923,
      "v": 63
    },
    {
      "midi": 63,
      "hit": false,
      "t": 202506.65995000018,
      "d": 1125.0004499999923,
      "v": 63
    },
    {
      "midi": 65,
      "hit": false,
      "t": 202506.65995000018,
      "d": 1125.0004499999923,
      "v": 63
    },
    {
      "midi": 68,
      "hit": false,
      "t": 202506.65995000018,
      "d": 1125.0004499999923,
      "v": 63
    },
    {
      "midi": 34,
      "hit": false,
      "t": 202526.39680000016,
      "d": 1125.0004499999923,
      "v": 60
    },
    {
      "midi": 68,
      "hit": false,
      "t": 202697.44949999926,
      "d": 388.1580499999982,
      "v": 114
    },
    {
      "midi": 68,
      "hit": false,
      "t": 203092.18649999925,
      "d": 348.684350000025,
      "v": 114
    },
    {
      "midi": 63,
      "hit": false,
      "t": 203289.55499999927,
      "d": 1355.2637000000104,
      "v": 114
    },
    {
      "midi": 60,
      "hit": false,
      "t": 203289.55499999927,
      "d": 1401.3163500000082,
      "v": 114
    },
    {
      "midi": 70,
      "hit": false,
      "t": 203289.55499999927,
      "d": 1440.7900500000105,
      "v": 114
    },
    {
      "midi": 46,
      "hit": false,
      "t": 203289.55499999927,
      "d": 2078.9482000000135,
      "v": 114
    },
    {
      "midi": 65,
      "hit": false,
      "t": 203329.02869999927,
      "d": 1401.3163500000082,
      "v": 114
    },
    {
      "midi": 34,
      "hit": false,
      "t": 203684.29200000016,
      "d": 1506.579549999995,
      "v": 54
    },
    {
      "midi": 60,
      "hit": false,
      "t": 203684.29200000016,
      "d": 1552.6321999999927,
      "v": 69
    },
    {
      "midi": 63,
      "hit": false,
      "t": 203684.29200000016,
      "d": 1552.6321999999927,
      "v": 69
    },
    {
      "midi": 65,
      "hit": false,
      "t": 203684.29200000016,
      "d": 1552.6321999999927,
      "v": 69
    },
    {
      "midi": 68,
      "hit": false,
      "t": 203684.29200000016,
      "d": 1552.6321999999927,
      "v": 69
    },
    {
      "midi": 63,
      "hit": false,
      "t": 204868.50299999927,
      "d": 388.1580499999982,
      "v": 114
    },
    {
      "midi": 60,
      "hit": false,
      "t": 205263.23999999926,
      "d": 526.3160000000207,
      "v": 114
    },
    {
      "midi": 63,
      "hit": false,
      "t": 205263.23999999926,
      "d": 526.3160000000207,
      "v": 114
    },
    {
      "midi": 41,
      "hit": false,
      "t": 205263.23999999926,
      "d": 1269.7373500000103,
      "v": 114
    },
    {
      "midi": 41,
      "hit": false,
      "t": 205263.24000000017,
      "d": 539.4739000000118,
      "v": 56
    },
    {
      "midi": 60,
      "hit": false,
      "t": 205263.24000000017,
      "d": 1059.2109500000079,
      "v": 71
    },
    {
      "midi": 63,
      "hit": false,
      "t": 205263.24000000017,
      "d": 1059.2109500000079,
      "v": 71
    },
    {
      "midi": 65,
      "hit": false,
      "t": 205263.24000000017,
      "d": 1059.2109500000079,
      "v": 71
    },
    {
      "midi": 68,
      "hit": false,
      "t": 205263.24000000017,
      "d": 1059.2109500000079,
      "v": 71
    },
    {
      "midi": 68,
      "hit": false,
      "t": 205302.71369999927,
      "d": 348.684350000025,
      "v": 114
    },
    {
      "midi": 68,
      "hit": false,
      "t": 205657.9769999993,
      "d": 309.2106500000227,
      "v": 114
    },
    {
      "midi": 70,
      "hit": false,
      "t": 205855.3454999993,
      "d": 388.1580499999982,
      "v": 114
    },
    {
      "midi": 70,
      "hit": false,
      "t": 206250.0824999993,
      "d": 190.78954999998678,
      "v": 114
    },
    {
      "midi": 63,
      "hit": false,
      "t": 206447.45099999927,
      "d": 1664.474350000004,
      "v": 114
    },
    {
      "midi": 68,
      "hit": false,
      "t": 206447.45099999927,
      "d": 1901.3165500000177,
      "v": 114
    },
    {
      "midi": 41,
      "hit": false,
      "t": 206447.45100000018,
      "d": 1151.3162500000035,
      "v": 56
    },
    {
      "midi": 60,
      "hit": false,
      "t": 206460.60890000017,
      "d": 217.105349999998,
      "v": 69
    },
    {
      "midi": 63,
      "hit": false,
      "t": 206460.60890000017,
      "d": 217.105349999998,
      "v": 69
    },
    {
      "midi": 65,
      "hit": false,
      "t": 206460.60890000017,
      "d": 217.105349999998,
      "v": 69
    },
    {
      "midi": 68,
      "hit": false,
      "t": 206460.60890000017,
      "d": 217.105349999998,
      "v": 69
    },
    {
      "midi": 72,
      "hit": false,
      "t": 206480.34574999928,
      "d": 1881.579700000002,
      "v": 114
    },
    {
      "midi": 41,
      "hit": false,
      "t": 206644.81949999928,
      "d": 190.78954999998678,
      "v": 114
    },
    {
      "midi": 41,
      "hit": false,
      "t": 206842.18799999927,
      "d": 1618.4217000000062,
      "v": 114
    },
    {
      "midi": 60,
      "hit": false,
      "t": 207631.6620000002,
      "d": 282.8948500000115,
      "v": 51
    },
    {
      "midi": 63,
      "hit": false,
      "t": 207631.6620000002,
      "d": 282.8948500000115,
      "v": 51
    },
    {
      "midi": 65,
      "hit": false,
      "t": 207631.6620000002,
      "d": 282.8948500000115,
      "v": 51
    },
    {
      "midi": 68,
      "hit": false,
      "t": 207631.6620000002,
      "d": 282.8948500000115,
      "v": 51
    },
    {
      "midi": 36,
      "hit": false,
      "t": 208026.3990000002,
      "d": 361.84224999998696,
      "v": 68
    },
    {
      "midi": 63,
      "hit": false,
      "t": 208223.7674999993,
      "d": 190.78954999998678,
      "v": 114
    },
    {
      "midi": 59,
      "hit": false,
      "t": 208421.13599999927,
      "d": 460.5265000000072,
      "v": 114
    },
    {
      "midi": 63,
      "hit": false,
      "t": 208421.13599999927,
      "d": 526.3160000000207,
      "v": 114
    },
    {
      "midi": 49,
      "hit": false,
      "t": 208421.13599999927,
      "d": 1006.5793499999854,
      "v": 114
    },
    {
      "midi": 54,
      "hit": false,
      "t": 208427.7149500002,
      "d": 322.3685499999847,
      "v": 63
    },
    {
      "midi": 59,
      "hit": false,
      "t": 208427.7149500002,
      "d": 322.3685499999847,
      "v": 63
    },
    {
      "midi": 63,
      "hit": false,
      "t": 208427.7149500002,
      "d": 322.3685499999847,
      "v": 63
    },
    {
      "midi": 49,
      "hit": false,
      "t": 208447.45180000018,
      "d": 302.6316999999981,
      "v": 60
    },
    {
      "midi": 66,
      "hit": false,
      "t": 208460.60969999927,
      "d": 348.6843499999959,
      "v": 114
    },
    {
      "midi": 66,
      "hit": false,
      "t": 208815.87299999926,
      "d": 190.78955000001588,
      "v": 114
    },
    {
      "midi": 60,
      "hit": false,
      "t": 208822.4519500002,
      "d": 1125.0004499999923,
      "v": 63
    },
    {
      "midi": 63,
      "hit": false,
      "t": 208822.4519500002,
      "d": 1125.0004499999923,
      "v": 63
    },
    {
      "midi": 65,
      "hit": false,
      "t": 208822.4519500002,
      "d": 1125.0004499999923,
      "v": 63
    },
    {
      "midi": 68,
      "hit": false,
      "t": 208822.4519500002,
      "d": 1125.0004499999923,
      "v": 63
    },
    {
      "midi": 34,
      "hit": false,
      "t": 208842.18880000018,
      "d": 1125.0004499999923,
      "v": 60
    },
    {
      "midi": 68,
      "hit": false,
      "t": 209013.24149999928,
      "d": 388.1580499999982,
      "v": 114
    },
    {
      "midi": 68,
      "hit": false,
      "t": 209407.97849999927,
      "d": 328.9474999999802,
      "v": 114
    },
    {
      "midi": 63,
      "hit": false,
      "t": 209605.34699999925,
      "d": 776.3160999999964,
      "v": 114
    },
    {
      "midi": 60,
      "hit": false,
      "t": 209605.34699999925,
      "d": 894.7371999999741,
      "v": 114
    },
    {
      "midi": 70,
      "hit": false,
      "t": 209605.34699999925,
      "d": 921.0529999999853,
      "v": 114
    },
    {
      "midi": 46,
      "hit": false,
      "t": 209605.34699999925,
      "d": 2098.685049999971,
      "v": 114
    },
    {
      "midi": 65,
      "hit": false,
      "t": 209638.24174999926,
      "d": 855.2634999999718,
      "v": 114
    },
    {
      "midi": 34,
      "hit": false,
      "t": 210000.08400000018,
      "d": 1506.579549999995,
      "v": 54
    },
    {
      "midi": 60,
      "hit": false,
      "t": 210000.08400000018,
      "d": 1552.6321999999927,
      "v": 69
    },
    {
      "midi": 63,
      "hit": false,
      "t": 210000.08400000018,
      "d": 1552.6321999999927,
      "v": 69
    },
    {
      "midi": 65,
      "hit": false,
      "t": 210000.08400000018,
      "d": 1552.6321999999927,
      "v": 69
    },
    {
      "midi": 68,
      "hit": false,
      "t": 210000.08400000018,
      "d": 1552.6321999999927,
      "v": 69
    },
    {
      "midi": 63,
      "hit": false,
      "t": 210394.82099999924,
      "d": 388.1580499999982,
      "v": 114
    },
    {
      "midi": 63,
      "hit": false,
      "t": 210789.55799999923,
      "d": 388.1580499999982,
      "v": 114
    },
    {
      "midi": 62,
      "hit": false,
      "t": 211184.29499999923,
      "d": 263.1579999999958,
      "v": 114
    },
    {
      "midi": 55,
      "hit": false,
      "t": 211381.66349999924,
      "d": 3453.9487499999814,
      "v": 114
    },
    {
      "midi": 58,
      "hit": false,
      "t": 211381.66349999924,
      "d": 3453.9487499999814,
      "v": 114
    },
    {
      "midi": 63,
      "hit": false,
      "t": 211427.71614999924,
      "d": 3434.211899999995,
      "v": 114
    },
    {
      "midi": 39,
      "hit": false,
      "t": 211579.03199999922,
      "d": 6190.7919500000135,
      "v": 114
    },
    {
      "midi": 39,
      "hit": false,
      "t": 211579.03200000018,
      "d": 539.4739000000118,
      "v": 56
    },
    {
      "midi": 55,
      "hit": false,
      "t": 211579.03200000018,
      "d": 1059.2109500000079,
      "v": 71
    },
    {
      "midi": 58,
      "hit": false,
      "t": 211579.03200000018,
      "d": 1059.2109500000079,
      "v": 71
    },
    {
      "midi": 63,
      "hit": false,
      "t": 211579.03200000018,
      "d": 1059.2109500000079,
      "v": 71
    },
    {
      "midi": 39,
      "hit": false,
      "t": 212763.2430000002,
      "d": 1151.3162500000035,
      "v": 56
    },
    {
      "midi": 55,
      "hit": false,
      "t": 212776.40090000018,
      "d": 217.105349999998,
      "v": 69
    },
    {
      "midi": 58,
      "hit": false,
      "t": 212776.40090000018,
      "d": 217.105349999998,
      "v": 69
    },
    {
      "midi": 63,
      "hit": false,
      "t": 212776.40090000018,
      "d": 217.105349999998,
      "v": 69
    },
    {
      "midi": 55,
      "hit": false,
      "t": 213947.4540000002,
      "d": 282.8948500000115,
      "v": 51
    },
    {
      "midi": 58,
      "hit": false,
      "t": 213947.4540000002,
      "d": 282.8948500000115,
      "v": 51
    },
    {
      "midi": 63,
      "hit": false,
      "t": 213947.4540000002,
      "d": 282.8948500000115,
      "v": 51
    },
    {
      "midi": 34,
      "hit": false,
      "t": 214342.19100000022,
      "d": 361.84224999998696,
      "v": 68
    },
    {
      "midi": 55,
      "hit": false,
      "t": 214743.5069500002,
      "d": 1559.2111499999883,
      "v": 56
    },
    {
      "midi": 58,
      "hit": false,
      "t": 214743.5069500002,
      "d": 1559.2111499999883,
      "v": 56
    },
    {
      "midi": 63,
      "hit": false,
      "t": 214743.5069500002,
      "d": 1559.2111499999883,
      "v": 56
    },
    {
      "midi": 39,
      "hit": false,
      "t": 214763.2438000002,
      "d": 1026.3162000000011,
      "v": 41
    },
    {
      "midi": 55,
      "hit": false,
      "t": 216315.8760000002,
      "d": 427.63175000000047,
      "v": 64
    },
    {
      "midi": 58,
      "hit": false,
      "t": 216315.8760000002,
      "d": 427.63175000000047,
      "v": 64
    },
    {
      "midi": 63,
      "hit": false,
      "t": 216315.8760000002,
      "d": 427.63175000000047,
      "v": 64
    },
    {
      "midi": 70,
      "hit": false,
      "t": 216335.61285000018,
      "d": 407.8949000000139,
      "v": 86
    },
    {
      "midi": 39,
      "hit": false,
      "t": 216335.61285000018,
      "d": 875.0003499999875,
      "v": 57
    },
    {
      "midi": 75,
      "hit": false,
      "t": 216750.0867000002,
      "d": 730.2634499999695,
      "v": 64
    },
    {
      "midi": 34,
      "hit": false,
      "t": 217111.92895000018,
      "d": 407.8948999999848,
      "v": 81
    },
    {
      "midi": 79,
      "hit": false,
      "t": 217526.40280000016,
      "d": 394.7369999999937,
      "v": 64
    },
    {
      "midi": 39,
      "hit": false,
      "t": 217927.71875000015,
      "d": 2500.0009999999893,
      "v": 41
    },
    {
      "midi": 55,
      "hit": false,
      "t": 217927.71875000015,
      "d": 2519.737849999976,
      "v": 62
    },
    {
      "midi": 58,
      "hit": false,
      "t": 217927.71875000015,
      "d": 2519.737849999976,
      "v": 62
    },
    {
      "midi": 63,
      "hit": false,
      "t": 217927.71875000015,
      "d": 2519.737849999976,
      "v": 62
    },
    {
      "midi": 70,
      "hit": false,
      "t": 218289.56100000013,
      "d": 1953.948150000011,
      "v": 67
    },
    {
      "midi": 79,
      "hit": false,
      "t": 218717.19275000013,
      "d": 1657.8954000000085,
      "v": 57
    }
  ]
}