{
  "jsonPath": "Rock/Brazilian Rock/Hevo 84/minha-vida-e-voce.json",
  "path": "Rock\\Brazilian Rock\\Hevo 84\\Minha Vida É Você.mid",
  "name": "Minha Vida É Você",
  "difficulty": "Advanced",
  "bpm": 62.00005993339127,
  "notes": [
    {
      "midi": 62,
      "hit": false,
      "t": 6153.84,
      "d": 1602.5625,
      "v": 101
    },
    {
      "midi": 53,
      "hit": false,
      "t": 6153.84,
      "d": 3733.970625,
      "v": 98
    },
    {
      "midi": 57,
      "hit": false,
      "t": 6153.84,
      "d": 4374.995625,
      "v": 102
    },
    {
      "midi": 41,
      "hit": false,
      "t": 6153.84,
      "d": 5256.405000000001,
      "v": 80
    },
    {
      "midi": 60,
      "hit": false,
      "t": 8461.53,
      "d": 1794.869999999999,
      "v": 112
    },
    {
      "midi": 53,
      "hit": false,
      "t": 10384.605,
      "d": 657.0506249999999,
      "v": 85
    },
    {
      "midi": 59,
      "hit": false,
      "t": 10769.22,
      "d": 448.71750000000065,
      "v": 122
    },
    {
      "midi": 60,
      "hit": false,
      "t": 11153.835,
      "d": 432.69187500000226,
      "v": 118
    },
    {
      "midi": 62,
      "hit": false,
      "t": 11538.45,
      "d": 368.5893750000014,
      "v": 120
    },
    {
      "midi": 62,
      "hit": false,
      "t": 12307.680000000002,
      "d": 1666.6650000000009,
      "v": 121
    },
    {
      "midi": 55,
      "hit": false,
      "t": 12307.680000000002,
      "d": 3189.099375,
      "v": 95
    },
    {
      "midi": 40,
      "hit": false,
      "t": 12307.680000000002,
      "d": 3541.663124999999,
      "v": 80
    },
    {
      "midi": 60,
      "hit": false,
      "t": 14615.370000000003,
      "d": 1009.6143749999992,
      "v": 111
    },
    {
      "midi": 67,
      "hit": false,
      "t": 16923.06,
      "d": 512.8200000000033,
      "v": 125
    },
    {
      "midi": 65,
      "hit": false,
      "t": 17307.675000000003,
      "d": 432.69187500000044,
      "v": 121
    },
    {
      "midi": 64,
      "hit": false,
      "t": 17692.290000000005,
      "d": 576.9225000000006,
      "v": 107
    },
    {
      "midi": 38,
      "hit": false,
      "t": 18461.520000000004,
      "d": 1410.2549999999974,
      "v": 79
    },
    {
      "midi": 60,
      "hit": false,
      "t": 18461.520000000004,
      "d": 1490.3831249999967,
      "v": 106
    },
    {
      "midi": 65,
      "hit": false,
      "t": 18461.520000000004,
      "d": 1586.536874999998,
      "v": 117
    },
    {
      "midi": 67,
      "hit": false,
      "t": 20769.210000000003,
      "d": 1923.0750000000007,
      "v": 115
    },
    {
      "midi": 40,
      "hit": false,
      "t": 20769.210000000003,
      "d": 1987.1775000000016,
      "v": 80
    },
    {
      "midi": 62,
      "hit": false,
      "t": 20769.210000000003,
      "d": 1987.1775000000016,
      "v": 93
    },
    {
      "midi": 69,
      "hit": false,
      "t": 23076.900000000005,
      "d": 160.25624999999854,
      "v": 107
    },
    {
      "midi": 55,
      "hit": false,
      "t": 23846.130000000005,
      "d": 1169.8706250000032,
      "v": 103
    },
    {
      "midi": 60,
      "hit": false,
      "t": 23846.130000000005,
      "d": 1490.383125000004,
      "v": 118
    },
    {
      "midi": 45,
      "hit": false,
      "t": 23846.130000000005,
      "d": 6217.942500000005,
      "v": 82
    },
    {
      "midi": 60,
      "hit": false,
      "t": 25769.20500000001,
      "d": 705.1274999999987,
      "v": 64
    },
    {
      "midi": 59,
      "hit": false,
      "t": 26538.43500000001,
      "d": 416.6662499999984,
      "v": 73
    },
    {
      "midi": 60,
      "hit": false,
      "t": 27307.665000000008,
      "d": 897.4350000000013,
      "v": 81
    },
    {
      "midi": 59,
      "hit": false,
      "t": 28076.895000000008,
      "d": 560.8968750000022,
      "v": 57
    },
    {
      "midi": 60,
      "hit": false,
      "t": 28846.12500000001,
      "d": 272.43562499999825,
      "v": 82
    },
    {
      "midi": 64,
      "hit": false,
      "t": 29999.97000000001,
      "d": 2019.2287499999948,
      "v": 75
    },
    {
      "midi": 57,
      "hit": false,
      "t": 30384.58500000001,
      "d": 160.25624999999854,
      "v": 50
    },
    {
      "midi": 72,
      "hit": false,
      "t": 30769.200000000008,
      "d": 592.948124999999,
      "v": 127
    },
    {
      "midi": 45,
      "hit": false,
      "t": 30769.200000000008,
      "d": 2467.94624999999,
      "v": 96
    },
    {
      "midi": 57,
      "hit": false,
      "t": 31153.815000000006,
      "d": 817.3068749999984,
      "v": 75
    },
    {
      "midi": 74,
      "hit": false,
      "t": 31538.430000000008,
      "d": 160.25624999999854,
      "v": 94
    },
    {
      "midi": 76,
      "hit": false,
      "t": 31923.045000000006,
      "d": 544.8712499999965,
      "v": 102
    },
    {
      "midi": 64,
      "hit": false,
      "t": 32307.660000000003,
      "d": 544.8712499999965,
      "v": 83
    },
    {
      "midi": 72,
      "hit": false,
      "t": 32692.275,
      "d": 416.66624999999476,
      "v": 102
    },
    {
      "midi": 64,
      "hit": false,
      "t": 33076.89,
      "d": 1987.1775000000125,
      "v": 68
    },
    {
      "midi": 71,
      "hit": false,
      "t": 33846.12,
      "d": 1249.998750000006,
      "v": 110
    },
    {
      "midi": 43,
      "hit": false,
      "t": 33846.12,
      "d": 2211.5362500000047,
      "v": 83
    },
    {
      "midi": 72,
      "hit": false,
      "t": 34615.350000000006,
      "d": 368.5893750000032,
      "v": 95
    },
    {
      "midi": 74,
      "hit": false,
      "t": 34999.96500000001,
      "d": 881.4093749999956,
      "v": 123
    },
    {
      "midi": 71,
      "hit": false,
      "t": 35769.19500000001,
      "d": 208.33312499999738,
      "v": 108
    },
    {
      "midi": 69,
      "hit": false,
      "t": 36923.04000000001,
      "d": 737.1787500000064,
      "v": 94
    },
    {
      "midi": 64,
      "hit": false,
      "t": 36923.04000000001,
      "d": 913.4606249999997,
      "v": 75
    },
    {
      "midi": 60,
      "hit": false,
      "t": 36923.04000000001,
      "d": 1458.3318750000035,
      "v": 46
    },
    {
      "midi": 53,
      "hit": false,
      "t": 36923.04000000001,
      "d": 5176.276875000003,
      "v": 79
    },
    {
      "midi": 67,
      "hit": false,
      "t": 37692.27000000001,
      "d": 336.5381249999991,
      "v": 66
    },
    {
      "midi": 69,
      "hit": false,
      "t": 38076.88500000001,
      "d": 240.38437500000146,
      "v": 102
    },
    {
      "midi": 60,
      "hit": false,
      "t": 38461.500000000015,
      "d": 657.0506249999962,
      "v": 63
    },
    {
      "midi": 72,
      "hit": false,
      "t": 38846.11500000001,
      "d": 368.5893749999959,
      "v": 71
    },
    {
      "midi": 69,
      "hit": false,
      "t": 39230.73000000001,
      "d": 3141.022499999999,
      "v": 83
    },
    {
      "midi": 64,
      "hit": false,
      "t": 42692.26500000001,
      "d": 576.9225000000006,
      "v": 81
    },
    {
      "midi": 72,
      "hit": false,
      "t": 43076.880000000005,
      "d": 480.7687500000029,
      "v": 124
    },
    {
      "midi": 45,
      "hit": false,
      "t": 43076.880000000005,
      "d": 2227.5618749999994,
      "v": 92
    },
    {
      "midi": 64,
      "hit": false,
      "t": 43461.49500000001,
      "d": 977.5631249999933,
      "v": 90
    },
    {
      "midi": 74,
      "hit": false,
      "t": 43846.11000000001,
      "d": 112.17937499999971,
      "v": 53
    },
    {
      "midi": 76,
      "hit": false,
      "t": 44230.725000000006,
      "d": 496.7943749999977,
      "v": 116
    },
    {
      "midi": 64,
      "hit": false,
      "t": 44615.340000000004,
      "d": 448.71749999999884,
      "v": 69
    },
    {
      "midi": 72,
      "hit": false,
      "t": 44999.955,
      "d": 464.74312500000815,
      "v": 111
    },
    {
      "midi": 64,
      "hit": false,
      "t": 45384.57000000001,
      "d": 2836.5356249999895,
      "v": 77
    },
    {
      "midi": 71,
      "hit": false,
      "t": 46153.80000000001,
      "d": 1217.9474999999875,
      "v": 117
    },
    {
      "midi": 43,
      "hit": false,
      "t": 46153.80000000001,
      "d": 2211.53624999999,
      "v": 75
    },
    {
      "midi": 55,
      "hit": false,
      "t": 46538.41500000001,
      "d": 1570.5112499999886,
      "v": 60
    },
    {
      "midi": 72,
      "hit": false,
      "t": 46923.030000000006,
      "d": 416.66624999999476,
      "v": 97
    },
    {
      "midi": 74,
      "hit": false,
      "t": 47307.645000000004,
      "d": 929.4862499999945,
      "v": 127
    },
    {
      "midi": 71,
      "hit": false,
      "t": 48076.875,
      "d": 224.35874999999942,
      "v": 97
    },
    {
      "midi": 69,
      "hit": false,
      "t": 49230.72,
      "d": 673.0762499999983,
      "v": 109
    },
    {
      "midi": 64,
      "hit": false,
      "t": 49230.72,
      "d": 881.4093749999956,
      "v": 98
    },
    {
      "midi": 60,
      "hit": false,
      "t": 49230.72,
      "d": 2115.3824999999924,
      "v": 66
    },
    {
      "midi": 53,
      "hit": false,
      "t": 49230.72,
      "d": 5192.302499999991,
      "v": 80
    },
    {
      "midi": 67,
      "hit": false,
      "t": 49999.95,
      "d": 320.5124999999971,
      "v": 98
    },
    {
      "midi": 69,
      "hit": false,
      "t": 50384.564999999995,
      "d": 224.35874999999942,
      "v": 92
    },
    {
      "midi": 72,
      "hit": false,
      "t": 51153.79499999999,
      "d": 416.66625000000204,
      "v": 100
    },
    {
      "midi": 69,
      "hit": false,
      "t": 51538.409999999996,
      "d": 2996.7918749999953,
      "v": 94
    },
    {
      "midi": 45,
      "hit": false,
      "t": 55384.55999999999,
      "d": 2147.4337499999965,
      "v": 73
    },
    {
      "midi": 69,
      "hit": false,
      "t": 55384.55999999999,
      "d": 2147.4337499999965,
      "v": 92
    },
    {
      "midi": 64,
      "hit": false,
      "t": 55384.55999999999,
      "d": 2211.5362499999974,
      "v": 67
    },
    {
      "midi": 72,
      "hit": false,
      "t": 55384.55999999999,
      "d": 2419.8693749999948,
      "v": 86
    },
    {
      "midi": 62,
      "hit": false,
      "t": 58461.47999999999,
      "d": 1698.716250000005,
      "v": 61
    },
    {
      "midi": 67,
      "hit": false,
      "t": 58461.47999999999,
      "d": 1987.1775000000052,
      "v": 76
    },
    {
      "midi": 71,
      "hit": false,
      "t": 58461.47999999999,
      "d": 2003.2031250000073,
      "v": 63
    },
    {
      "midi": 43,
      "hit": false,
      "t": 58461.47999999999,
      "d": 2323.7156250000116,
      "v": 52
    },
    {
      "midi": 62,
      "hit": false,
      "t": 60384.55499999999,
      "d": 641.0250000000015,
      "v": 75
    },
    {
      "midi": 71,
      "hit": false,
      "t": 60769.17,
      "d": 224.35874999999942,
      "v": 110
    },
    {
      "midi": 60,
      "hit": false,
      "t": 61538.399999999994,
      "d": 4711.533750000002,
      "v": 74
    },
    {
      "midi": 64,
      "hit": false,
      "t": 61538.399999999994,
      "d": 4983.969375000001,
      "v": 84
    },
    {
      "midi": 53,
      "hit": false,
      "t": 61538.399999999994,
      "d": 5048.071874999994,
      "v": 79
    },
    {
      "midi": 69,
      "hit": false,
      "t": 61538.399999999994,
      "d": 5064.097499999989,
      "v": 77
    },
    {
      "midi": 69,
      "hit": false,
      "t": 67692.23999999998,
      "d": 1971.151874999996,
      "v": 92
    },
    {
      "midi": 72,
      "hit": false,
      "t": 67692.23999999998,
      "d": 1971.151874999996,
      "v": 100
    },
    {
      "midi": 45,
      "hit": false,
      "t": 67692.23999999998,
      "d": 2051.279999999999,
      "v": 85
    },
    {
      "midi": 64,
      "hit": false,
      "t": 67692.23999999998,
      "d": 2083.331250000003,
      "v": 83
    },
    {
      "midi": 62,
      "hit": false,
      "t": 70769.15999999997,
      "d": 1682.6906249999884,
      "v": 90
    },
    {
      "midi": 67,
      "hit": false,
      "t": 70769.15999999997,
      "d": 1939.1006249999773,
      "v": 102
    },
    {
      "midi": 71,
      "hit": false,
      "t": 70769.15999999997,
      "d": 1939.1006249999773,
      "v": 92
    },
    {
      "midi": 43,
      "hit": false,
      "t": 70769.15999999997,
      "d": 2179.4849999999715,
      "v": 46
    },
    {
      "midi": 62,
      "hit": false,
      "t": 72692.23499999996,
      "d": 673.0762499999983,
      "v": 80
    },
    {
      "midi": 71,
      "hit": false,
      "t": 73076.84999999995,
      "d": 208.33312500000466,
      "v": 120
    },
    {
      "midi": 41,
      "hit": false,
      "t": 73461.46499999995,
      "d": 5544.866250000006,
      "v": 85
    },
    {
      "midi": 69,
      "hit": false,
      "t": 73846.07999999996,
      "d": 5016.020625000005,
      "v": 85
    },
    {
      "midi": 53,
      "hit": false,
      "t": 73846.07999999996,
      "d": 5032.046249999999,
      "v": 71
    },
    {
      "midi": 64,
      "hit": false,
      "t": 73846.07999999996,
      "d": 5064.0975000000035,
      "v": 93
    },
    {
      "midi": 60,
      "hit": false,
      "t": 73846.07999999996,
      "d": 5096.148750000008,
      "v": 83
    },
    {
      "midi": 62,
      "hit": false,
      "t": 79999.91999999995,
      "d": 1554.4856250000012,
      "v": 108
    },
    {
      "midi": 67,
      "hit": false,
      "t": 79999.91999999995,
      "d": 1586.5368750000052,
      "v": 95
    },
    {
      "midi": 52,
      "hit": false,
      "t": 79999.91999999995,
      "d": 3301.2787499999977,
      "v": 56
    },
    {
      "midi": 40,
      "hit": false,
      "t": 79999.91999999995,
      "d": 5224.353750000009,
      "v": 46
    },
    {
      "midi": 67,
      "hit": false,
      "t": 82307.60999999996,
      "d": 1506.4087500000023,
      "v": 103
    },
    {
      "midi": 60,
      "hit": false,
      "t": 82307.60999999996,
      "d": 1538.4600000000064,
      "v": 105
    },
    {
      "midi": 52,
      "hit": false,
      "t": 84230.68499999997,
      "d": 1378.2037500000006,
      "v": 73
    },
    {
      "midi": 67,
      "hit": false,
      "t": 84615.29999999997,
      "d": 544.8712499999965,
      "v": 115
    },
    {
      "midi": 59,
      "hit": false,
      "t": 84615.29999999997,
      "d": 657.0506249999889,
      "v": 112
    },
    {
      "midi": 55,
      "hit": false,
      "t": 86153.75999999997,
      "d": 2355.7668750000157,
      "v": 101
    },
    {
      "midi": 53,
      "hit": false,
      "t": 86153.75999999997,
      "d": 2820.5100000000093,
      "v": 73
    },
    {
      "midi": 57,
      "hit": false,
      "t": 86153.75999999997,
      "d": 2852.5612500000134,
      "v": 90
    },
    {
      "midi": 60,
      "hit": false,
      "t": 86153.75999999997,
      "d": 2916.663750000007,
      "v": 66
    },
    {
      "midi": 41,
      "hit": false,
      "t": 86153.75999999997,
      "d": 4935.892499999987,
      "v": 80
    },
    {
      "midi": 53,
      "hit": false,
      "t": 89615.29499999997,
      "d": 240.38437499999418,
      "v": 69
    },
    {
      "midi": 55,
      "hit": false,
      "t": 89999.90999999996,
      "d": 112.17937500000698,
      "v": 92
    },
    {
      "midi": 55,
      "hit": false,
      "t": 90384.52499999997,
      "d": 641.0249999999942,
      "v": 127
    },
    {
      "midi": 60,
      "hit": false,
      "t": 90384.52499999997,
      "d": 657.0506249999889,
      "v": 127
    },
    {
      "midi": 57,
      "hit": false,
      "t": 91153.75499999995,
      "d": 160.25625000000582,
      "v": 97
    },
    {
      "midi": 40,
      "hit": false,
      "t": 91922.98499999996,
      "d": 5544.866250000021,
      "v": 77
    },
    {
      "midi": 67,
      "hit": false,
      "t": 92307.59999999996,
      "d": 1554.4856250000157,
      "v": 108
    },
    {
      "midi": 62,
      "hit": false,
      "t": 92307.59999999996,
      "d": 1586.5368750000198,
      "v": 121
    },
    {
      "midi": 52,
      "hit": false,
      "t": 92307.59999999996,
      "d": 3413.458125000019,
      "v": 78
    },
    {
      "midi": 67,
      "hit": false,
      "t": 94615.28999999998,
      "d": 1746.7931249999965,
      "v": 111
    },
    {
      "midi": 60,
      "hit": false,
      "t": 94615.28999999998,
      "d": 1842.9468749999942,
      "v": 105
    },
    {
      "midi": 52,
      "hit": false,
      "t": 96538.36499999998,
      "d": 1137.8193750000064,
      "v": 79
    },
    {
      "midi": 67,
      "hit": false,
      "t": 96922.97999999998,
      "d": 576.9225000000006,
      "v": 118
    },
    {
      "midi": 59,
      "hit": false,
      "t": 96922.97999999998,
      "d": 657.0506250000035,
      "v": 115
    },
    {
      "midi": 53,
      "hit": false,
      "t": 98461.43999999999,
      "d": 3605.7656249999854,
      "v": 90
    },
    {
      "midi": 55,
      "hit": false,
      "t": 98461.43999999999,
      "d": 3926.2781249999825,
      "v": 110
    },
    {
      "midi": 57,
      "hit": false,
      "t": 98461.43999999999,
      "d": 4038.4574999999895,
      "v": 90
    },
    {
      "midi": 60,
      "hit": false,
      "t": 98461.43999999999,
      "d": 4182.688124999986,
      "v": 80
    },
    {
      "midi": 41,
      "hit": false,
      "t": 98461.43999999999,
      "d": 4294.867499999993,
      "v": 87
    },
    {
      "midi": 64,
      "hit": false,
      "t": 104230.66499999998,
      "d": 560.8968750000058,
      "v": 79
    },
    {
      "midi": 72,
      "hit": false,
      "t": 104615.27999999998,
      "d": 448.71749999999884,
      "v": 127
    },
    {
      "midi": 45,
      "hit": false,
      "t": 104615.27999999998,
      "d": 2035.254375000004,
      "v": 92
    },
    {
      "midi": 64,
      "hit": false,
      "t": 104999.89499999999,
      "d": 769.2299999999959,
      "v": 74
    },
    {
      "midi": 74,
      "hit": false,
      "t": 105384.50999999998,
      "d": 176.28187500000058,
      "v": 99
    },
    {
      "midi": 76,
      "hit": false,
      "t": 105769.12499999999,
      "d": 624.9993749999994,
      "v": 112
    },
    {
      "midi": 64,
      "hit": false,
      "t": 106153.73999999999,
      "d": 544.8712499999965,
      "v": 87
    },
    {
      "midi": 72,
      "hit": false,
      "t": 106538.35499999998,
      "d": 464.74312500000815,
      "v": 104
    },
    {
      "midi": 64,
      "hit": false,
      "t": 106922.96999999999,
      "d": 2019.2287499999948,
      "v": 80
    },
    {
      "midi": 71,
      "hit": false,
      "t": 107307.58499999999,
      "d": 1249.9987499999988,
      "v": 115
    },
    {
      "midi": 43,
      "hit": false,
      "t": 107692.2,
      "d": 1923.0749999999825,
      "v": 76
    },
    {
      "midi": 72,
      "hit": false,
      "t": 108461.43,
      "d": 464.7431249999936,
      "v": 92
    },
    {
      "midi": 74,
      "hit": false,
      "t": 108846.04499999998,
      "d": 865.3837499999936,
      "v": 127
    },
    {
      "midi": 64,
      "hit": false,
      "t": 109230.65999999997,
      "d": 400.640625,
      "v": 63
    },
    {
      "midi": 71,
      "hit": false,
      "t": 109615.27499999998,
      "d": 336.53812499999185,
      "v": 101
    },
    {
      "midi": 57,
      "hit": false,
      "t": 110384.50499999998,
      "d": 144.2306249999965,
      "v": 46
    },
    {
      "midi": 69,
      "hit": false,
      "t": 110769.11999999997,
      "d": 801.28125,
      "v": 120
    },
    {
      "midi": 45,
      "hit": false,
      "t": 110769.11999999997,
      "d": 5833.327499999985,
      "v": 66
    },
    {
      "midi": 57,
      "hit": false,
      "t": 111153.73499999997,
      "d": 4102.559999999983,
      "v": 74
    },
    {
      "midi": 67,
      "hit": false,
      "t": 111538.34999999996,
      "d": 480.7687500000029,
      "v": 85
    },
    {
      "midi": 69,
      "hit": false,
      "t": 111922.96499999997,
      "d": 785.2556249999907,
      "v": 116
    },
    {
      "midi": 72,
      "hit": false,
      "t": 112692.19499999996,
      "d": 496.7943749999977,
      "v": 110
    },
    {
      "midi": 69,
      "hit": false,
      "t": 113076.80999999995,
      "d": 2932.6893750000017,
      "v": 114
    },
    {
      "midi": 64,
      "hit": false,
      "t": 116538.34499999996,
      "d": 544.8712499999965,
      "v": 82
    },
    {
      "midi": 72,
      "hit": false,
      "t": 116922.95999999995,
      "d": 480.7687500000029,
      "v": 127
    },
    {
      "midi": 45,
      "hit": false,
      "t": 116922.95999999995,
      "d": 2291.664374999993,
      "v": 82
    },
    {
      "midi": 64,
      "hit": false,
      "t": 117307.57499999995,
      "d": 849.3581249999988,
      "v": 92
    },
    {
      "midi": 74,
      "hit": false,
      "t": 117692.18999999994,
      "d": 176.28187500000058,
      "v": 113
    },
    {
      "midi": 76,
      "hit": false,
      "t": 118076.80499999995,
      "d": 753.2043750000012,
      "v": 114
    },
    {
      "midi": 57,
      "hit": false,
      "t": 118461.41999999995,
      "d": 192.30749999999534,
      "v": 52
    },
    {
      "midi": 64,
      "hit": false,
      "t": 118461.41999999995,
      "d": 528.8456249999872,
      "v": 107
    },
    {
      "midi": 72,
      "hit": false,
      "t": 118846.03499999995,
      "d": 576.922499999986,
      "v": 127
    },
    {
      "midi": 64,
      "hit": false,
      "t": 119230.64999999994,
      "d": 2147.433749999982,
      "v": 87
    },
    {
      "midi": 71,
      "hit": false,
      "t": 119615.26499999993,
      "d": 1474.3574999999983,
      "v": 118
    },
    {
      "midi": 43,
      "hit": false,
      "t": 119999.87999999992,
      "d": 2259.613125000018,
      "v": 73
    },
    {
      "midi": 55,
      "hit": false,
      "t": 120384.49499999992,
      "d": 1714.741875000007,
      "v": 59
    },
    {
      "midi": 72,
      "hit": false,
      "t": 120769.10999999993,
      "d": 480.76874999998836,
      "v": 63
    },
    {
      "midi": 74,
      "hit": false,
      "t": 121153.72499999992,
      "d": 881.4093750000175,
      "v": 124
    },
    {
      "midi": 64,
      "hit": false,
      "t": 121538.33999999992,
      "d": 352.56375000000116,
      "v": 85
    },
    {
      "midi": 71,
      "hit": false,
      "t": 121922.95499999993,
      "d": 528.8456250000017,
      "v": 127
    },
    {
      "midi": 69,
      "hit": false,
      "t": 123076.79999999993,
      "d": 865.383749999979,
      "v": 107
    },
    {
      "midi": 45,
      "hit": false,
      "t": 123076.79999999993,
      "d": 5112.174374999973,
      "v": 80
    },
    {
      "midi": 57,
      "hit": false,
      "t": 123461.41499999992,
      "d": 192.30749999999534,
      "v": 56
    },
    {
      "midi": 67,
      "hit": false,
      "t": 123846.02999999991,
      "d": 496.7943749999977,
      "v": 58
    },
    {
      "midi": 69,
      "hit": false,
      "t": 124230.6449999999,
      "d": 833.3325000000041,
      "v": 113
    },
    {
      "midi": 72,
      "hit": false,
      "t": 124999.87499999991,
      "d": 480.76874999998836,
      "v": 106
    },
    {
      "midi": 69,
      "hit": false,
      "t": 125384.4899999999,
      "d": 2884.612500000003,
      "v": 102
    },
    {
      "midi": 69,
      "hit": false,
      "t": 129230.63999999991,
      "d": 2131.4081250000017,
      "v": 86
    },
    {
      "midi": 45,
      "hit": false,
      "t": 129230.63999999991,
      "d": 2163.4593749999913,
      "v": 73
    },
    {
      "midi": 64,
      "hit": false,
      "t": 129230.63999999991,
      "d": 2323.715624999997,
      "v": 62
    },
    {
      "midi": 72,
      "hit": false,
      "t": 129230.63999999991,
      "d": 2451.9206249999843,
      "v": 81
    },
    {
      "midi": 62,
      "hit": false,
      "t": 132307.5599999999,
      "d": 961.5375000000058,
      "v": 72
    },
    {
      "midi": 67,
      "hit": false,
      "t": 132307.5599999999,
      "d": 1121.7937500000116,
      "v": 94
    },
    {
      "midi": 71,
      "hit": false,
      "t": 132307.5599999999,
      "d": 1185.8962499999907,
      "v": 73
    },
    {
      "midi": 43,
      "hit": false,
      "t": 132307.5599999999,
      "d": 2612.1768749999756,
      "v": 66
    },
    {
      "midi": 62,
      "hit": false,
      "t": 133461.4049999999,
      "d": 96.15374999999767,
      "v": 71
    },
    {
      "midi": 67,
      "hit": false,
      "t": 133846.0199999999,
      "d": 160.25625000000582,
      "v": 104
    },
    {
      "midi": 71,
      "hit": false,
      "t": 133846.0199999999,
      "d": 192.30749999999534,
      "v": 108
    },
    {
      "midi": 69,
      "hit": false,
      "t": 134230.6349999999,
      "d": 112.17937500000698,
      "v": 90
    },
    {
      "midi": 72,
      "hit": false,
      "t": 134230.6349999999,
      "d": 208.33312500000466,
      "v": 104
    },
    {
      "midi": 74,
      "hit": false,
      "t": 134615.24999999988,
      "d": 384.6149999999907,
      "v": 121
    },
    {
      "midi": 71,
      "hit": false,
      "t": 134615.24999999988,
      "d": 416.6662499999802,
      "v": 123
    },
    {
      "midi": 72,
      "hit": false,
      "t": 135384.47999999986,
      "d": 2243.5875000000233,
      "v": 87
    },
    {
      "midi": 69,
      "hit": false,
      "t": 135384.47999999986,
      "d": 2275.638750000013,
      "v": 92
    },
    {
      "midi": 41,
      "hit": false,
      "t": 135384.47999999986,
      "d": 4711.533749999973,
      "v": 87
    },
    {
      "midi": 60,
      "hit": false,
      "t": 138846.01499999987,
      "d": 288.461249999993,
      "v": 91
    },
    {
      "midi": 62,
      "hit": false,
      "t": 139230.62999999986,
      "d": 144.2306249999965,
      "v": 83
    },
    {
      "midi": 62,
      "hit": false,
      "t": 139615.24499999985,
      "d": 608.9737499999756,
      "v": 127
    },
    {
      "midi": 64,
      "hit": false,
      "t": 140384.47499999983,
      "d": 368.5893750000105,
      "v": 108
    },
    {
      "midi": 57,
      "hit": false,
      "t": 141153.70499999984,
      "d": 2259.6131250000035,
      "v": 46
    },
    {
      "midi": 45,
      "hit": false,
      "t": 141538.31999999983,
      "d": 2083.3312500000175,
      "v": 46
    },
    {
      "midi": 69,
      "hit": false,
      "t": 141538.31999999983,
      "d": 2179.485000000015,
      "v": 93
    },
    {
      "midi": 64,
      "hit": false,
      "t": 141538.31999999983,
      "d": 2307.6900000000023,
      "v": 46
    },
    {
      "midi": 72,
      "hit": false,
      "t": 141538.31999999983,
      "d": 2644.228124999994,
      "v": 98
    },
    {
      "midi": 62,
      "hit": false,
      "t": 144615.23999999982,
      "d": 1666.664999999979,
      "v": 56
    },
    {
      "midi": 43,
      "hit": false,
      "t": 144615.23999999982,
      "d": 2195.5106249999953,
      "v": 63
    },
    {
      "midi": 67,
      "hit": false,
      "t": 144615.23999999982,
      "d": 2291.664374999993,
      "v": 87
    },
    {
      "midi": 71,
      "hit": false,
      "t": 144615.23999999982,
      "d": 2307.6900000000023,
      "v": 82
    },
    {
      "midi": 62,
      "hit": false,
      "t": 146538.3149999998,
      "d": 480.76875000001746,
      "v": 77
    },
    {
      "midi": 41,
      "hit": false,
      "t": 147307.5449999998,
      "d": 5737.173750000016,
      "v": 87
    },
    {
      "midi": 53,
      "hit": false,
      "t": 147692.1599999998,
      "d": 3557.6887500000303,
      "v": 75
    },
    {
      "midi": 60,
      "hit": false,
      "t": 147692.1599999998,
      "d": 3894.226875000022,
      "v": 66
    },
    {
      "midi": 69,
      "hit": false,
      "t": 147692.1599999998,
      "d": 5352.558750000026,
      "v": 105
    },
    {
      "midi": 64,
      "hit": false,
      "t": 147692.1599999998,
      "d": 5416.661250000034,
      "v": 87
    },
    {
      "midi": 40,
      "hit": false,
      "t": 153461.38499999983,
      "d": 5608.968749999942,
      "v": 69
    },
    {
      "midi": 52,
      "hit": false,
      "t": 153845.99999999983,
      "d": 1185.8962499999907,
      "v": 77
    },
    {
      "midi": 62,
      "hit": false,
      "t": 153845.99999999983,
      "d": 1730.7674999999872,
      "v": 108
    },
    {
      "midi": 67,
      "hit": false,
      "t": 153845.99999999983,
      "d": 1778.844374999986,
      "v": 115
    },
    {
      "midi": 67,
      "hit": false,
      "t": 156153.6899999998,
      "d": 1682.6906249999884,
      "v": 117
    },
    {
      "midi": 60,
      "hit": false,
      "t": 156153.6899999998,
      "d": 1730.7674999999872,
      "v": 117
    },
    {
      "midi": 52,
      "hit": false,
      "t": 158076.76499999978,
      "d": 1249.9987499999988,
      "v": 66
    },
    {
      "midi": 67,
      "hit": false,
      "t": 158461.37999999977,
      "d": 560.8968750000058,
      "v": 124
    },
    {
      "midi": 59,
      "hit": false,
      "t": 158461.37999999977,
      "d": 657.0506250000035,
      "v": 123
    },
    {
      "midi": 55,
      "hit": false,
      "t": 159999.8399999998,
      "d": 2083.3312499999884,
      "v": 112
    },
    {
      "midi": 53,
      "hit": false,
      "t": 159999.8399999998,
      "d": 2596.1512499999953,
      "v": 96
    },
    {
      "midi": 57,
      "hit": false,
      "t": 159999.8399999998,
      "d": 3317.304375000007,
      "v": 107
    },
    {
      "midi": 60,
      "hit": false,
      "t": 159999.8399999998,
      "d": 3461.5350000000035,
      "v": 104
    },
    {
      "midi": 41,
      "hit": false,
      "t": 159999.8399999998,
      "d": 4999.994999999995,
      "v": 86
    },
    {
      "midi": 53,
      "hit": false,
      "t": 163845.9899999998,
      "d": 160.25625000000582,
      "v": 68
    },
    {
      "midi": 55,
      "hit": false,
      "t": 164230.6049999998,
      "d": 673.0762499999837,
      "v": 127
    },
    {
      "midi": 60,
      "hit": false,
      "t": 164230.6049999998,
      "d": 737.1787499999919,
      "v": 115
    },
    {
      "midi": 53,
      "hit": false,
      "t": 164615.2199999998,
      "d": 400.640625,
      "v": 71
    },
    {
      "midi": 57,
      "hit": false,
      "t": 164999.8349999998,
      "d": 320.51250000001164,
      "v": 101
    },
    {
      "midi": 67,
      "hit": false,
      "t": 166153.6799999998,
      "d": 1650.639375000028,
      "v": 116
    },
    {
      "midi": 62,
      "hit": false,
      "t": 166153.6799999998,
      "d": 1682.6906250000175,
      "v": 124
    },
    {
      "midi": 52,
      "hit": false,
      "t": 166153.6799999998,
      "d": 3333.3300000000454,
      "v": 73
    },
    {
      "midi": 40,
      "hit": false,
      "t": 166153.6799999998,
      "d": 5304.481875000056,
      "v": 46
    },
    {
      "midi": 67,
      "hit": false,
      "t": 168461.36999999982,
      "d": 1698.7162500000268,
      "v": 116
    },
    {
      "midi": 60,
      "hit": false,
      "t": 168461.36999999982,
      "d": 1762.818750000035,
      "v": 121
    },
    {
      "midi": 52,
      "hit": false,
      "t": 170384.44499999986,
      "d": 1426.2806249999849,
      "v": 63
    },
    {
      "midi": 67,
      "hit": false,
      "t": 170769.05999999985,
      "d": 689.101874999993,
      "v": 127
    },
    {
      "midi": 59,
      "hit": false,
      "t": 170769.05999999985,
      "d": 753.2043750000012,
      "v": 127
    },
    {
      "midi": 48,
      "hit": false,
      "t": 171922.90499999985,
      "d": 208.33312500000466,
      "v": 73
    },
    {
      "midi": 53,
      "hit": false,
      "t": 172307.51999999984,
      "d": 5336.533124999987,
      "v": 107
    },
    {
      "midi": 55,
      "hit": false,
      "t": 172307.51999999984,
      "d": 5384.609999999986,
      "v": 122
    },
    {
      "midi": 57,
      "hit": false,
      "t": 172307.51999999984,
      "d": 5528.8406249999825,
      "v": 106
    },
    {
      "midi": 60,
      "hit": false,
      "t": 172307.51999999984,
      "d": 5544.866249999992,
      "v": 107
    },
    {
      "midi": 41,
      "hit": false,
      "t": 172307.51999999984,
      "d": 5769.225000000006,
      "v": 97
    },
    {
      "midi": 84,
      "hit": false,
      "t": 173525.4675,
      "d": 320.51250000001164,
      "v": 115
    },
    {
      "midi": 79,
      "hit": false,
      "t": 173845.98,
      "d": 240.38437499999418,
      "v": 118
    },
    {
      "midi": 81,
      "hit": false,
      "t": 174102.39,
      "d": 272.4356250000128,
      "v": 97
    },
    {
      "midi": 76,
      "hit": false,
      "t": 174358.80000000002,
      "d": 272.4356250000128,
      "v": 107
    },
    {
      "midi": 79,
      "hit": false,
      "t": 174615.21000000002,
      "d": 224.35875000001397,
      "v": 108
    },
    {
      "midi": 74,
      "hit": false,
      "t": 174871.62000000002,
      "d": 224.35875000001397,
      "v": 123
    },
    {
      "midi": 76,
      "hit": false,
      "t": 175128.03000000003,
      "d": 240.38437499999418,
      "v": 110
    },
    {
      "midi": 72,
      "hit": false,
      "t": 175384.44000000003,
      "d": 224.35875000001397,
      "v": 119
    },
    {
      "midi": 74,
      "hit": false,
      "t": 175640.85000000003,
      "d": 224.35875000001397,
      "v": 115
    },
    {
      "midi": 69,
      "hit": false,
      "t": 175897.26000000004,
      "d": 256.4100000000035,
      "v": 90
    },
    {
      "midi": 72,
      "hit": false,
      "t": 176153.67000000004,
      "d": 224.35875000001397,
      "v": 118
    },
    {
      "midi": 67,
      "hit": false,
      "t": 176410.08000000005,
      "d": 240.38437499999418,
      "v": 115
    },
    {
      "midi": 69,
      "hit": false,
      "t": 176666.49000000005,
      "d": 240.38437499999418,
      "v": 120
    },
    {
      "midi": 64,
      "hit": false,
      "t": 176922.90000000005,
      "d": 272.4356250000128,
      "v": 116
    },
    {
      "midi": 67,
      "hit": false,
      "t": 177179.31000000006,
      "d": 224.35875000001397,
      "v": 120
    },
    {
      "midi": 62,
      "hit": false,
      "t": 177435.72000000006,
      "d": 288.461249999993,
      "v": 121
    },
    {
      "midi": 64,
      "hit": false,
      "t": 177692.13000000006,
      "d": 240.38437499999418,
      "v": 119
    },
    {
      "midi": 60,
      "hit": false,
      "t": 177948.54000000007,
      "d": 256.4100000000035,
      "v": 109
    },
    {
      "midi": 62,
      "hit": false,
      "t": 178204.95000000007,
      "d": 272.4356250000128,
      "v": 127
    },
    {
      "midi": 55,
      "hit": false,
      "t": 178461.35999999984,
      "d": 2291.664374999993,
      "v": 120
    },
    {
      "midi": 59,
      "hit": false,
      "t": 178461.35999999984,
      "d": 2307.6900000000023,
      "v": 124
    },
    {
      "midi": 62,
      "hit": false,
      "t": 178461.35999999984,
      "d": 2355.766875000001,
      "v": 123
    },
    {
      "midi": 43,
      "hit": false,
      "t": 178461.35999999984,
      "d": 2451.920624999999,
      "v": 105
    },
    {
      "midi": 56,
      "hit": false,
      "t": 181538.27999999985,
      "d": 2051.279999999999,
      "v": 97
    },
    {
      "midi": 59,
      "hit": false,
      "t": 181538.27999999985,
      "d": 2131.408124999987,
      "v": 120
    },
    {
      "midi": 62,
      "hit": false,
      "t": 181538.27999999985,
      "d": 2179.484999999986,
      "v": 111
    },
    {
      "midi": 44,
      "hit": false,
      "t": 181538.27999999985,
      "d": 2756.407499999972,
      "v": 85
    },
    {
      "midi": 45,
      "hit": false,
      "t": 184615.19999999984,
      "d": 1939.1006249999919,
      "v": 97
    },
    {
      "midi": 57,
      "hit": false,
      "t": 184615.19999999984,
      "d": 2067.305624999979,
      "v": 108
    },
    {
      "midi": 60,
      "hit": false,
      "t": 184615.19999999984,
      "d": 2115.382499999978,
      "v": 113
    },
    {
      "midi": 64,
      "hit": false,
      "t": 184615.19999999984,
      "d": 2147.4337499999674,
      "v": 114
    },
    {
      "midi": 53,
      "hit": false,
      "t": 187692.1199999998,
      "d": 2516.023124999978,
      "v": 90
    },
    {
      "midi": 56,
      "hit": false,
      "t": 187692.1199999998,
      "d": 2964.7406249999767,
      "v": 99
    },
    {
      "midi": 60,
      "hit": false,
      "t": 187692.1199999998,
      "d": 3157.048124999972,
      "v": 100
    },
    {
      "midi": 41,
      "hit": false,
      "t": 187692.1199999998,
      "d": 4775.636249999952,
      "v": 84
    },
    {
      "midi": 53,
      "hit": false,
      "t": 191153.65499999977,
      "d": 1346.1524999999674,
      "v": 87
    },
    {
      "midi": 56,
      "hit": false,
      "t": 191538.26999999976,
      "d": 416.6662499999802,
      "v": 56
    },
    {
      "midi": 60,
      "hit": false,
      "t": 191922.88499999975,
      "d": 641.0249999999942,
      "v": 122
    },
    {
      "midi": 64,
      "hit": false,
      "t": 193461.34499999974,
      "d": 592.9481249999953,
      "v": 69
    },
    {
      "midi": 72,
      "hit": false,
      "t": 193845.95999999973,
      "d": 480.76875000001746,
      "v": 127
    },
    {
      "midi": 45,
      "hit": false,
      "t": 193845.95999999973,
      "d": 2307.689999999973,
      "v": 96
    },
    {
      "midi": 64,
      "hit": false,
      "t": 194230.57499999975,
      "d": 817.3068749999802,
      "v": 82
    },
    {
      "midi": 74,
      "hit": false,
      "t": 194615.18999999974,
      "d": 176.28187499998603,
      "v": 102
    },
    {
      "midi": 76,
      "hit": false,
      "t": 194999.80499999973,
      "d": 737.1787499999919,
      "v": 107
    },
    {
      "midi": 64,
      "hit": false,
      "t": 195384.41999999972,
      "d": 512.8199999999779,
      "v": 92
    },
    {
      "midi": 72,
      "hit": false,
      "t": 195769.0349999997,
      "d": 560.8968749999767,
      "v": 122
    },
    {
      "midi": 64,
      "hit": false,
      "t": 196153.6499999997,
      "d": 2596.1512499999662,
      "v": 85
    },
    {
      "midi": 71,
      "hit": false,
      "t": 196538.2649999997,
      "d": 1153.8450000000012,
      "v": 113
    },
    {
      "midi": 43,
      "hit": false,
      "t": 196922.87999999968,
      "d": 2259.6131249999744,
      "v": 52
    },
    {
      "midi": 72,
      "hit": false,
      "t": 197692.1099999997,
      "d": 464.74312499997905,
      "v": 101
    },
    {
      "midi": 74,
      "hit": false,
      "t": 198076.7249999997,
      "d": 1105.7681249999732,
      "v": 125
    },
    {
      "midi": 71,
      "hit": false,
      "t": 198845.95499999967,
      "d": 464.74312499997905,
      "v": 96
    },
    {
      "midi": 69,
      "hit": false,
      "t": 199999.79999999964,
      "d": 769.2299999999814,
      "v": 103
    },
    {
      "midi": 45,
      "hit": false,
      "t": 199999.79999999964,
      "d": 5641.01999999996,
      "v": 82
    },
    {
      "midi": 57,
      "hit": false,
      "t": 200384.41499999963,
      "d": 608.9737500000047,
      "v": 48
    },
    {
      "midi": 67,
      "hit": false,
      "t": 200769.02999999962,
      "d": 384.6150000000198,
      "v": 48
    },
    {
      "midi": 69,
      "hit": false,
      "t": 201153.64499999964,
      "d": 769.2300000000105,
      "v": 99
    },
    {
      "midi": 72,
      "hit": false,
      "t": 201922.87499999965,
      "d": 544.8712499999965,
      "v": 94
    },
    {
      "midi": 69,
      "hit": false,
      "t": 202307.48999999964,
      "d": 3108.971249999973,
      "v": 111
    },
    {
      "midi": 57,
      "hit": false,
      "t": 204999.79499999963,
      "d": 496.79437499996857,
      "v": 97
    },
    {
      "midi": 64,
      "hit": false,
      "t": 205384.40999999963,
      "d": 1041.665624999965,
      "v": 121
    },
    {
      "midi": 57,
      "hit": false,
      "t": 205769.0249999996,
      "d": 1650.6393749999988,
      "v": 94
    },
    {
      "midi": 72,
      "hit": false,
      "t": 206153.63999999958,
      "d": 512.820000000007,
      "v": 127
    },
    {
      "midi": 45,
      "hit": false,
      "t": 206153.63999999958,
      "d": 2227.561874999985,
      "v": 102
    },
    {
      "midi": 64,
      "hit": false,
      "t": 206538.2549999996,
      "d": 897.4349999999977,
      "v": 83
    },
    {
      "midi": 74,
      "hit": false,
      "t": 206922.8699999996,
      "d": 176.28187499998603,
      "v": 101
    },
    {
      "midi": 76,
      "hit": false,
      "t": 207307.48499999958,
      "d": 673.0762500000128,
      "v": 123
    },
    {
      "midi": 64,
      "hit": false,
      "t": 207692.0999999996,
      "d": 560.8968749999767,
      "v": 89
    },
    {
      "midi": 72,
      "hit": false,
      "t": 208076.7149999996,
      "d": 544.8712499999674,
      "v": 127
    },
    {
      "midi": 64,
      "hit": false,
      "t": 208461.32999999955,
      "d": 2483.9718750000175,
      "v": 87
    },
    {
      "midi": 71,
      "hit": false,
      "t": 208845.94499999957,
      "d": 1137.8193749999919,
      "v": 127
    },
    {
      "midi": 72,
      "hit": false,
      "t": 209999.78999999957,
      "d": 384.6149999999907,
      "v": 77
    },
    {
      "midi": 74,
      "hit": false,
      "t": 210384.40499999956,
      "d": 913.460625000007,
      "v": 127
    },
    {
      "midi": 71,
      "hit": false,
      "t": 211153.63499999957,
      "d": 432.6918749999895,
      "v": 127
    },
    {
      "midi": 45,
      "hit": false,
      "t": 211922.86499999955,
      "d": 6089.737499999959,
      "v": 79
    },
    {
      "midi": 69,
      "hit": false,
      "t": 212307.47999999954,
      "d": 817.3068749999802,
      "v": 127
    },
    {
      "midi": 57,
      "hit": false,
      "t": 212307.47999999954,
      "d": 913.4606249999779,
      "v": 77
    },
    {
      "midi": 67,
      "hit": false,
      "t": 213076.70999999953,
      "d": 384.6149999999907,
      "v": 93
    },
    {
      "midi": 69,
      "hit": false,
      "t": 213461.32499999952,
      "d": 769.2300000000105,
      "v": 124
    },
    {
      "midi": 72,
      "hit": false,
      "t": 214230.55499999953,
      "d": 480.76874999998836,
      "v": 124
    },
    {
      "midi": 69,
      "hit": false,
      "t": 214615.16999999952,
      "d": 2692.304999999993,
      "v": 123
    },
    {
      "midi": 57,
      "hit": false,
      "t": 217307.4749999995,
      "d": 592.9481249999953,
      "v": 64
    },
    {
      "midi": 59,
      "hit": false,
      "t": 218076.70499999952,
      "d": 144.2306249999965,
      "v": 75
    },
    {
      "midi": 59,
      "hit": false,
      "t": 218461.3199999995,
      "d": 2355.766875000001,
      "v": 120
    },
    {
      "midi": 47,
      "hit": false,
      "t": 218461.3199999995,
      "d": 2836.5356249999895,
      "v": 87
    },
    {
      "midi": 63,
      "hit": false,
      "t": 218461.3199999995,
      "d": 3012.8174999999756,
      "v": 116
    },
    {
      "midi": 66,
      "hit": false,
      "t": 218461.3199999995,
      "d": 3108.971249999973,
      "v": 114
    },
    {
      "midi": 59,
      "hit": false,
      "t": 221153.6249999995,
      "d": 368.5893749999814,
      "v": 69
    },
    {
      "midi": 47,
      "hit": false,
      "t": 221538.2399999995,
      "d": 1442.3062499999942,
      "v": 96
    },
    {
      "midi": 59,
      "hit": false,
      "t": 221922.8549999995,
      "d": 1282.0499999999884,
      "v": 120
    },
    {
      "midi": 66,
      "hit": false,
      "t": 221922.8549999995,
      "d": 1586.5368749999907,
      "v": 102
    },
    {
      "midi": 63,
      "hit": false,
      "t": 221922.8549999995,
      "d": 1971.1518750000105,
      "v": 105
    },
    {
      "midi": 47,
      "hit": false,
      "t": 223076.6999999995,
      "d": 657.0506250000035,
      "v": 100
    },
    {
      "midi": 59,
      "hit": false,
      "t": 223461.31499999948,
      "d": 496.7943750000268,
      "v": 91
    },
    {
      "midi": 66,
      "hit": false,
      "t": 223845.9299999995,
      "d": 208.33312500000466,
      "v": 107
    },
    {
      "midi": 47,
      "hit": false,
      "t": 224230.5449999995,
      "d": 336.53812499999185,
      "v": 92
    },
    {
      "midi": 60,
      "hit": false,
      "t": 224615.15999999948,
      "d": 1858.9724999999744,
      "v": 117
    },
    {
      "midi": 48,
      "hit": false,
      "t": 224615.15999999948,
      "d": 2275.6387499999837,
      "v": 113
    },
    {
      "midi": 64,
      "hit": false,
      "t": 224615.15999999948,
      "d": 2323.7156249999825,
      "v": 127
    },
    {
      "midi": 69,
      "hit": false,
      "t": 224615.15999999948,
      "d": 2403.843749999971,
      "v": 127
    },
    {
      "midi": 48,
      "hit": false,
      "t": 226922.84999999945,
      "d": 1346.1524999999965,
      "v": 79
    },
    {
      "midi": 60,
      "hit": false,
      "t": 227307.46499999944,
      "d": 608.9737500000047,
      "v": 113
    },
    {
      "midi": 64,
      "hit": false,
      "t": 227307.46499999944,
      "d": 753.2043750000012,
      "v": 118
    },
    {
      "midi": 67,
      "hit": false,
      "t": 227307.46499999944,
      "d": 945.5118749999965,
      "v": 124
    },
    {
      "midi": 60,
      "hit": false,
      "t": 228076.69499999945,
      "d": 208.33312500000466,
      "v": 88
    },
    {
      "midi": 48,
      "hit": false,
      "t": 228461.30999999944,
      "d": 528.8456249999872,
      "v": 88
    },
    {
      "midi": 60,
      "hit": false,
      "t": 228845.92499999944,
      "d": 576.922499999986,
      "v": 127
    },
    {
      "midi": 62,
      "hit": false,
      "t": 228845.92499999944,
      "d": 945.5118749999674,
      "v": 127
    },
    {
      "midi": 67,
      "hit": false,
      "t": 228845.92499999944,
      "d": 1089.742499999964,
      "v": 127
    },
    {
      "midi": 48,
      "hit": false,
      "t": 229230.53999999943,
      "d": 304.4868750000023,
      "v": 102
    },
    {
      "midi": 60,
      "hit": false,
      "t": 229615.15499999942,
      "d": 240.38437499999418,
      "v": 101
    },
    {
      "midi": 43,
      "hit": false,
      "t": 230384.3849999994,
      "d": 2676.2793749999837,
      "v": 91
    },
    {
      "midi": 55,
      "hit": false,
      "t": 230768.9999999994,
      "d": 1330.1268750000163,
      "v": 104
    },
    {
      "midi": 62,
      "hit": false,
      "t": 230768.9999999994,
      "d": 1650.639375000028,
      "v": 125
    },
    {
      "midi": 67,
      "hit": false,
      "t": 230768.9999999994,
      "d": 2051.280000000028,
      "v": 127
    },
    {
      "midi": 71,
      "hit": false,
      "t": 230768.9999999994,
      "d": 2083.3312500000175,
      "v": 127
    },
    {
      "midi": 62,
      "hit": false,
      "t": 232692.07499999943,
      "d": 240.38437499996508,
      "v": 88
    },
    {
      "midi": 62,
      "hit": false,
      "t": 233076.6899999994,
      "d": 160.25625000000582,
      "v": 73
    },
    {
      "midi": 71,
      "hit": false,
      "t": 233076.6899999994,
      "d": 224.35875000001397,
      "v": 81
    },
    {
      "midi": 67,
      "hit": false,
      "t": 233076.6899999994,
      "d": 336.53812500002095,
      "v": 106
    },
    {
      "midi": 62,
      "hit": false,
      "t": 233461.3049999994,
      "d": 128.2049999999872,
      "v": 69
    },
    {
      "midi": 62,
      "hit": false,
      "t": 233845.9199999994,
      "d": 865.383749999979,
      "v": 116
    },
    {
      "midi": 53,
      "hit": false,
      "t": 233845.9199999994,
      "d": 1089.742499999993,
      "v": 83
    },
    {
      "midi": 65,
      "hit": false,
      "t": 233845.9199999994,
      "d": 1634.6137499999895,
      "v": 124
    },
    {
      "midi": 71,
      "hit": false,
      "t": 233845.9199999994,
      "d": 1634.6137499999895,
      "v": 115
    },
    {
      "midi": 41,
      "hit": false,
      "t": 233845.9199999994,
      "d": 2003.203124999971,
      "v": 98
    },
    {
      "midi": 62,
      "hit": false,
      "t": 234999.7649999994,
      "d": 480.76874999998836,
      "v": 82
    },
    {
      "midi": 53,
      "hit": false,
      "t": 235384.3799999994,
      "d": 560.8968749999767,
      "v": 101
    },
    {
      "midi": 62,
      "hit": false,
      "t": 235768.99499999938,
      "d": 480.76874999998836,
      "v": 120
    },
    {
      "midi": 65,
      "hit": false,
      "t": 235768.99499999938,
      "d": 560.8968749999767,
      "v": 117
    },
    {
      "midi": 71,
      "hit": false,
      "t": 235768.99499999938,
      "d": 657.0506249999744,
      "v": 105
    },
    {
      "midi": 41,
      "hit": false,
      "t": 236153.60999999937,
      "d": 80.12812499998836,
      "v": 69
    },
    {
      "midi": 60,
      "hit": false,
      "t": 236538.22499999937,
      "d": 208.33312500000466,
      "v": 87
    },
    {
      "midi": 50,
      "hit": false,
      "t": 236922.83999999936,
      "d": 1025.6399999999849,
      "v": 89
    },
    {
      "midi": 60,
      "hit": false,
      "t": 236922.83999999936,
      "d": 1634.6137499999895,
      "v": 125
    },
    {
      "midi": 69,
      "hit": false,
      "t": 236922.83999999936,
      "d": 1955.1262500000012,
      "v": 127
    },
    {
      "midi": 65,
      "hit": false,
      "t": 236922.83999999936,
      "d": 1987.1774999999907,
      "v": 127
    },
    {
      "midi": 38,
      "hit": false,
      "t": 236922.83999999936,
      "d": 2179.484999999986,
      "v": 46
    },
    {
      "midi": 50,
      "hit": false,
      "t": 238461.29999999935,
      "d": 320.51250000001164,
      "v": 85
    },
    {
      "midi": 60,
      "hit": false,
      "t": 238845.91499999937,
      "d": 128.2049999999872,
      "v": 105
    },
    {
      "midi": 50,
      "hit": false,
      "t": 239615.14499999935,
      "d": 512.8199999999779,
      "v": 92
    },
    {
      "midi": 69,
      "hit": false,
      "t": 239999.75999999934,
      "d": 240.38437499999418,
      "v": 127
    },
    {
      "midi": 77,
      "hit": false,
      "t": 239999.75999999934,
      "d": 256.4100000000035,
      "v": 127
    },
    {
      "midi": 38,
      "hit": false,
      "t": 239999.75999999934,
      "d": 2403.843749999942,
      "v": 104
    },
    {
      "midi": 50,
      "hit": false,
      "t": 240384.37499999933,
      "d": 448.71749999999884,
      "v": 94
    },
    {
      "midi": 67,
      "hit": false,
      "t": 240768.98999999932,
      "d": 208.33312500000466,
      "v": 127
    },
    {
      "midi": 76,
      "hit": false,
      "t": 240768.98999999932,
      "d": 208.33312500000466,
      "v": 127
    },
    {
      "midi": 50,
      "hit": false,
      "t": 241153.6049999993,
      "d": 432.6918749999895,
      "v": 87
    },
    {
      "midi": 74,
      "hit": false,
      "t": 241538.2199999993,
      "d": 176.28187499998603,
      "v": 127
    },
    {
      "midi": 65,
      "hit": false,
      "t": 241538.2199999993,
      "d": 224.35874999998487,
      "v": 127
    },
    {
      "midi": 50,
      "hit": false,
      "t": 241922.8349999993,
      "d": 673.0762499999837,
      "v": 81
    },
    {
      "midi": 64,
      "hit": false,
      "t": 242307.44999999928,
      "d": 160.25625000000582,
      "v": 111
    },
    {
      "midi": 72,
      "hit": false,
      "t": 242307.44999999928,
      "d": 208.33312500000466,
      "v": 117
    },
    {
      "midi": 53,
      "hit": false,
      "t": 243076.67999999927,
      "d": 1217.9474999999802,
      "v": 96
    },
    {
      "midi": 65,
      "hit": false,
      "t": 243076.67999999927,
      "d": 1698.7162499999686,
      "v": 127
    },
    {
      "midi": 74,
      "hit": false,
      "t": 243076.67999999927,
      "d": 2259.6131249999744,
      "v": 127
    },
    {
      "midi": 41,
      "hit": false,
      "t": 243076.67999999927,
      "d": 5432.686874999927,
      "v": 102
    },
    {
      "midi": 65,
      "hit": false,
      "t": 244999.75499999925,
      "d": 576.922499999986,
      "v": 71
    },
    {
      "midi": 69,
      "hit": false,
      "t": 245384.36999999924,
      "d": 192.30749999999534,
      "v": 82
    },
    {
      "midi": 69,
      "hit": false,
      "t": 245768.98499999923,
      "d": 1009.6143750000047,
      "v": 116
    },
    {
      "midi": 74,
      "hit": false,
      "t": 245768.98499999923,
      "d": 1089.742499999993,
      "v": 127
    },
    {
      "midi": 65,
      "hit": false,
      "t": 245768.98499999923,
      "d": 1314.101250000007,
      "v": 115
    },
    {
      "midi": 53,
      "hit": false,
      "t": 246153.59999999922,
      "d": 1105.7681250000023,
      "v": 54
    },
    {
      "midi": 72,
      "hit": false,
      "t": 246922.82999999923,
      "d": 112.17937500000698,
      "v": 48
    },
    {
      "midi": 72,
      "hit": false,
      "t": 247307.44499999922,
      "d": 817.3068749999802,
      "v": 127
    },
    {
      "midi": 65,
      "hit": false,
      "t": 247307.44499999922,
      "d": 1201.921874999971,
      "v": 118
    },
    {
      "midi": 53,
      "hit": false,
      "t": 247692.0599999992,
      "d": 432.6918749999895,
      "v": 79
    },
    {
      "midi": 74,
      "hit": false,
      "t": 248076.6749999992,
      "d": 592.9481249999953,
      "v": 118
    },
    {
      "midi": 40,
      "hit": false,
      "t": 248845.90499999918,
      "d": 5705.122499999998,
      "v": 58
    },
    {
      "midi": 64,
      "hit": false,
      "t": 249230.51999999917,
      "d": 977.5631250000151,
      "v": 121
    },
    {
      "midi": 52,
      "hit": false,
      "t": 249230.51999999917,
      "d": 1137.819375000021,
      "v": 79
    },
    {
      "midi": 74,
      "hit": false,
      "t": 249230.51999999917,
      "d": 2371.7925000000396,
      "v": 127
    },
    {
      "midi": 64,
      "hit": false,
      "t": 250384.3649999992,
      "d": 544.8712499999965,
      "v": 97
    },
    {
      "midi": 64,
      "hit": false,
      "t": 251153.59499999922,
      "d": 512.820000000007,
      "v": 85
    },
    {
      "midi": 52,
      "hit": false,
      "t": 251922.82499999923,
      "d": 1009.6143750000047,
      "v": 93
    },
    {
      "midi": 64,
      "hit": false,
      "t": 252307.43999999922,
      "d": 817.3068750000093,
      "v": 127
    },
    {
      "midi": 72,
      "hit": false,
      "t": 252307.43999999922,
      "d": 2291.664374999964,
      "v": 127
    },
    {
      "midi": 64,
      "hit": false,
      "t": 253461.28499999922,
      "d": 480.76874999998836,
      "v": 85
    },
    {
      "midi": 52,
      "hit": false,
      "t": 253845.8999999992,
      "d": 464.74312499997905,
      "v": 114
    },
    {
      "midi": 64,
      "hit": false,
      "t": 254230.5149999992,
      "d": 432.6918749999895,
      "v": 125
    },
    {
      "midi": 40,
      "hit": false,
      "t": 254999.74499999918,
      "d": 176.28187499998603,
      "v": 102
    },
    {
      "midi": 50,
      "hit": false,
      "t": 255384.35999999917,
      "d": 1378.2037500000151,
      "v": 76
    },
    {
      "midi": 60,
      "hit": false,
      "t": 255384.35999999917,
      "d": 1746.7931250000256,
      "v": 127
    },
    {
      "midi": 65,
      "hit": false,
      "t": 255384.35999999917,
      "d": 2035.2543750000186,
      "v": 127
    },
    {
      "midi": 69,
      "hit": false,
      "t": 255384.35999999917,
      "d": 2740.381875000021,
      "v": 127
    },
    {
      "midi": 38,
      "hit": false,
      "t": 255384.35999999917,
      "d": 5416.661249999976,
      "v": 111
    },
    {
      "midi": 60,
      "hit": false,
      "t": 257307.43499999918,
      "d": 544.8712499999965,
      "v": 98
    },
    {
      "midi": 60,
      "hit": false,
      "t": 258076.6649999992,
      "d": 432.6918749999895,
      "v": 86
    },
    {
      "midi": 50,
      "hit": false,
      "t": 258461.27999999918,
      "d": 528.8456249999872,
      "v": 100
    },
    {
      "midi": 60,
      "hit": false,
      "t": 258845.89499999917,
      "d": 528.8456249999872,
      "v": 127
    },
    {
      "midi": 67,
      "hit": false,
      "t": 258845.89499999917,
      "d": 624.9993749999849,
      "v": 127
    },
    {
      "midi": 72,
      "hit": false,
      "t": 258845.89499999917,
      "d": 1233.9731249999604,
      "v": 127
    },
    {
      "midi": 50,
      "hit": false,
      "t": 259230.50999999917,
      "d": 320.51249999998254,
      "v": 63
    },
    {
      "midi": 60,
      "hit": false,
      "t": 259615.12499999916,
      "d": 464.74312499997905,
      "v": 102
    },
    {
      "midi": 50,
      "hit": false,
      "t": 259999.73999999915,
      "d": 464.74312499997905,
      "v": 109
    },
    {
      "midi": 60,
      "hit": false,
      "t": 260384.35499999914,
      "d": 400.640625,
      "v": 127
    },
    {
      "midi": 65,
      "hit": false,
      "t": 260384.35499999914,
      "d": 480.76875000001746,
      "v": 127
    },
    {
      "midi": 72,
      "hit": false,
      "t": 260384.35499999914,
      "d": 673.0762500000128,
      "v": 127
    },
    {
      "midi": 50,
      "hit": false,
      "t": 260768.96999999913,
      "d": 256.4100000000326,
      "v": 75
    },
    {
      "midi": 40,
      "hit": false,
      "t": 261153.58499999915,
      "d": 5817.301875000063,
      "v": 95
    },
    {
      "midi": 52,
      "hit": false,
      "t": 261538.19999999914,
      "d": 1362.178125000035,
      "v": 111
    },
    {
      "midi": 62,
      "hit": false,
      "t": 261538.19999999914,
      "d": 1650.639375000028,
      "v": 127
    },
    {
      "midi": 67,
      "hit": false,
      "t": 261538.19999999914,
      "d": 1923.0750000000116,
      "v": 127
    },
    {
      "midi": 71,
      "hit": false,
      "t": 261538.19999999914,
      "d": 2323.7156250000116,
      "v": 127
    },
    {
      "midi": 62,
      "hit": false,
      "t": 263461.27499999915,
      "d": 448.71750000002794,
      "v": 67
    },
    {
      "midi": 67,
      "hit": false,
      "t": 263845.88999999914,
      "d": 208.33312500006286,
      "v": 106
    },
    {
      "midi": 62,
      "hit": false,
      "t": 264230.5049999992,
      "d": 624.999375000014,
      "v": 127
    },
    {
      "midi": 69,
      "hit": false,
      "t": 264230.5049999992,
      "d": 689.101874999993,
      "v": 127
    },
    {
      "midi": 74,
      "hit": false,
      "t": 264230.5049999992,
      "d": 2564.0999999999767,
      "v": 127
    },
    {
      "midi": 52,
      "hit": false,
      "t": 264615.1199999992,
      "d": 576.922499999986,
      "v": 75
    },
    {
      "midi": 67,
      "hit": false,
      "t": 264999.7349999992,
      "d": 1217.947499999951,
      "v": 121
    },
    {
      "midi": 52,
      "hit": false,
      "t": 265384.34999999916,
      "d": 320.51250000001164,
      "v": 62
    },
    {
      "midi": 62,
      "hit": false,
      "t": 265768.96499999915,
      "d": 977.563124999986,
      "v": 124
    },
    {
      "midi": 52,
      "hit": false,
      "t": 266153.57999999914,
      "d": 496.7943749999977,
      "v": 86
    },
    {
      "midi": 67,
      "hit": false,
      "t": 266538.19499999913,
      "d": 416.6662500000675,
      "v": 127
    },
    {
      "midi": 52,
      "hit": false,
      "t": 266922.8099999992,
      "d": 272.4356250000419,
      "v": 77
    },
    {
      "midi": 41,
      "hit": false,
      "t": 267307.42499999923,
      "d": 5801.276250000054,
      "v": 82
    },
    {
      "midi": 53,
      "hit": false,
      "t": 267692.0399999992,
      "d": 1249.998750000028,
      "v": 93
    },
    {
      "midi": 65,
      "hit": false,
      "t": 267692.0399999992,
      "d": 1650.639375000028,
      "v": 127
    },
    {
      "midi": 69,
      "hit": false,
      "t": 267692.0399999992,
      "d": 2820.5100000000675,
      "v": 127
    },
    {
      "midi": 74,
      "hit": false,
      "t": 267692.0399999992,
      "d": 2916.663750000065,
      "v": 127
    },
    {
      "midi": 53,
      "hit": false,
      "t": 269230.49999999924,
      "d": 416.6662500000093,
      "v": 104
    },
    {
      "midi": 65,
      "hit": false,
      "t": 269615.11499999923,
      "d": 528.8456250000163,
      "v": 116
    },
    {
      "midi": 65,
      "hit": false,
      "t": 270384.3449999993,
      "d": 128.2050000000163,
      "v": 79
    },
    {
      "midi": 53,
      "hit": false,
      "t": 270384.3449999993,
      "d": 624.999375000014,
      "v": 103
    },
    {
      "midi": 65,
      "hit": false,
      "t": 270768.95999999926,
      "d": 769.2300000000396,
      "v": 127
    },
    {
      "midi": 72,
      "hit": false,
      "t": 270768.95999999926,
      "d": 1650.639375000028,
      "v": 127
    },
    {
      "midi": 65,
      "hit": false,
      "t": 271922.8049999993,
      "d": 448.71749999996973,
      "v": 124
    },
    {
      "midi": 53,
      "hit": false,
      "t": 272307.4199999993,
      "d": 480.76874999998836,
      "v": 116
    },
    {
      "midi": 65,
      "hit": false,
      "t": 272692.0349999993,
      "d": 368.5893749999814,
      "v": 127
    },
    {
      "midi": 72,
      "hit": false,
      "t": 272692.0349999993,
      "d": 560.8968750000349,
      "v": 127
    },
    {
      "midi": 53,
      "hit": false,
      "t": 273076.64999999927,
      "d": 208.33312500006286,
      "v": 77
    },
    {
      "midi": 43,
      "hit": false,
      "t": 273461.2649999993,
      "d": 2676.2793749999837,
      "v": 102
    },
    {
      "midi": 67,
      "hit": false,
      "t": 273845.8799999993,
      "d": 833.3324999999604,
      "v": 127
    },
    {
      "midi": 74,
      "hit": false,
      "t": 273845.8799999993,
      "d": 849.3581249999697,
      "v": 127
    },
    {
      "midi": 55,
      "hit": false,
      "t": 273845.8799999993,
      "d": 1073.7168749999837,
      "v": 109
    },
    {
      "midi": 74,
      "hit": false,
      "t": 274999.7249999993,
      "d": 1121.7937500000116,
      "v": 124
    },
    {
      "midi": 69,
      "hit": false,
      "t": 274999.7249999993,
      "d": 1137.819375000021,
      "v": 127
    },
    {
      "midi": 55,
      "hit": false,
      "t": 275384.33999999927,
      "d": 416.6662500000093,
      "v": 124
    },
    {
      "midi": 67,
      "hit": false,
      "t": 275768.95499999926,
      "d": 336.53812500002095,
      "v": 127
    },
    {
      "midi": 55,
      "hit": false,
      "t": 276153.5699999993,
      "d": 80.12812499998836,
      "v": 70
    },
    {
      "midi": 44,
      "hit": false,
      "t": 276538.1849999993,
      "d": 2692.304999999993,
      "v": 80
    },
    {
      "midi": 56,
      "hit": false,
      "t": 276922.7999999993,
      "d": 865.383749999979,
      "v": 122
    },
    {
      "midi": 64,
      "hit": false,
      "t": 276922.7999999993,
      "d": 897.4349999999977,
      "v": 127
    },
    {
      "midi": 68,
      "hit": false,
      "t": 276922.7999999993,
      "d": 1650.6393749999697,
      "v": 127
    },
    {
      "midi": 71,
      "hit": false,
      "t": 276922.7999999993,
      "d": 1650.6393749999697,
      "v": 127
    },
    {
      "midi": 64,
      "hit": false,
      "t": 278076.64499999926,
      "d": 480.76874999998836,
      "v": 115
    },
    {
      "midi": 56,
      "hit": false,
      "t": 278461.25999999925,
      "d": 480.76874999998836,
      "v": 102
    },
    {
      "midi": 64,
      "hit": false,
      "t": 278845.87499999924,
      "d": 336.53812500002095,
      "v": 104
    },
    {
      "midi": 68,
      "hit": false,
      "t": 278845.87499999924,
      "d": 384.6150000000489,
      "v": 102
    },
    {
      "midi": 71,
      "hit": false,
      "t": 278845.87499999924,
      "d": 480.76875000004657,
      "v": 120
    },
    {
      "midi": 56,
      "hit": false,
      "t": 279230.4899999993,
      "d": 128.2050000000163,
      "v": 58
    },
    {
      "midi": 45,
      "hit": false,
      "t": 279615.1049999993,
      "d": 2403.84375,
      "v": 70
    },
    {
      "midi": 69,
      "hit": false,
      "t": 279999.7199999993,
      "d": 1009.6143750000047,
      "v": 125
    },
    {
      "midi": 57,
      "hit": false,
      "t": 279999.7199999993,
      "d": 1153.8450000000303,
      "v": 96
    },
    {
      "midi": 76,
      "hit": false,
      "t": 279999.7199999993,
      "d": 2163.459375000035,
      "v": 121
    },
    {
      "midi": 72,
      "hit": false,
      "t": 279999.7199999993,
      "d": 2195.5106250000536,
      "v": 127
    },
    {
      "midi": 69,
      "hit": false,
      "t": 281153.5649999993,
      "d": 480.76874999998836,
      "v": 59
    },
    {
      "midi": 57,
      "hit": false,
      "t": 281538.1799999993,
      "d": 464.74312499997905,
      "v": 114
    },
    {
      "midi": 69,
      "hit": false,
      "t": 281922.7949999993,
      "d": 304.48687500006054,
      "v": 118
    },
    {
      "midi": 45,
      "hit": false,
      "t": 282307.40999999933,
      "d": 80.12812499998836,
      "v": 53
    },
    {
      "midi": 65,
      "hit": false,
      "t": 282692.0249999993,
      "d": 5368.584375000035,
      "v": 46
    },
    {
      "midi": 41,
      "hit": false,
      "t": 283076.6399999993,
      "d": 5128.20000000007,
      "v": 46
    },
    {
      "midi": 68,
      "hit": false,
      "t": 283076.6399999993,
      "d": 5128.20000000007,
      "v": 122
    },
    {
      "midi": 72,
      "hit": false,
      "t": 283076.6399999993,
      "d": 5224.3537500000675,
      "v": 127
    },
    {
      "midi": 53,
      "hit": false,
      "t": 283076.6399999993,
      "d": 5272.4306250000955,
      "v": 97
    },
    {
      "midi": 64,
      "hit": false,
      "t": 288845.8649999994,
      "d": 1634.6137500000186,
      "v": 54
    },
    {
      "midi": 72,
      "hit": false,
      "t": 289230.4799999994,
      "d": 544.8712500000256,
      "v": 105
    },
    {
      "midi": 45,
      "hit": false,
      "t": 289230.4799999994,
      "d": 2339.741250000021,
      "v": 86
    },
    {
      "midi": 74,
      "hit": false,
      "t": 289999.70999999944,
      "d": 128.2050000000163,
      "v": 58
    },
    {
      "midi": 76,
      "hit": false,
      "t": 290384.32499999943,
      "d": 576.922499999986,
      "v": 111
    },
    {
      "midi": 64,
      "hit": false,
      "t": 290768.9399999994,
      "d": 560.8968749999767,
      "v": 65
    },
    {
      "midi": 72,
      "hit": false,
      "t": 291153.5549999994,
      "d": 512.820000000007,
      "v": 106
    },
    {
      "midi": 64,
      "hit": false,
      "t": 291538.1699999994,
      "d": 2756.4075000000303,
      "v": 74
    },
    {
      "midi": 71,
      "hit": false,
      "t": 291922.7849999994,
      "d": 1217.9475000000675,
      "v": 112
    },
    {
      "midi": 43,
      "hit": false,
      "t": 292307.39999999944,
      "d": 2275.6387499999837,
      "v": 77
    },
    {
      "midi": 72,
      "hit": false,
      "t": 293076.6299999995,
      "d": 384.6149999999907,
      "v": 92
    },
    {
      "midi": 74,
      "hit": false,
      "t": 293461.2449999995,
      "d": 913.4606249999488,
      "v": 117
    },
    {
      "midi": 71,
      "hit": false,
      "t": 294230.47499999945,
      "d": 336.53812499996275,
      "v": 101
    },
    {
      "midi": 69,
      "hit": false,
      "t": 295384.3199999994,
      "d": 865.3837500000373,
      "v": 95
    },
    {
      "midi": 53,
      "hit": false,
      "t": 295384.3199999994,
      "d": 4679.482500000042,
      "v": 46
    },
    {
      "midi": 67,
      "hit": false,
      "t": 296153.54999999946,
      "d": 368.5893749999814,
      "v": 50
    },
    {
      "midi": 69,
      "hit": false,
      "t": 296538.16499999946,
      "d": 737.178750000021,
      "v": 71
    },
    {
      "midi": 72,
      "hit": false,
      "t": 297307.3949999995,
      "d": 496.7943749999977,
      "v": 98
    },
    {
      "midi": 69,
      "hit": false,
      "t": 297692.0099999995,
      "d": 3269.227499999979,
      "v": 76
    },
    {
      "midi": 64,
      "hit": false,
      "t": 301153.54499999946,
      "d": 528.8456250000163,
      "v": 77
    },
    {
      "midi": 72,
      "hit": false,
      "t": 301538.15999999945,
      "d": 496.7943750000559,
      "v": 127
    },
    {
      "midi": 45,
      "hit": false,
      "t": 301538.15999999945,
      "d": 2355.7668750000303,
      "v": 86
    },
    {
      "midi": 64,
      "hit": false,
      "t": 301922.7749999995,
      "d": 608.9737500000047,
      "v": 107
    },
    {
      "midi": 74,
      "hit": false,
      "t": 302307.3899999995,
      "d": 176.28187499998603,
      "v": 110
    },
    {
      "midi": 76,
      "hit": false,
      "t": 302692.0049999995,
      "d": 753.2043749999721,
      "v": 116
    },
    {
      "midi": 64,
      "hit": false,
      "t": 303076.6199999995,
      "d": 608.9737500000047,
      "v": 80
    },
    {
      "midi": 72,
      "hit": false,
      "t": 303461.23499999946,
      "d": 673.0762500000419,
      "v": 104
    },
    {
      "midi": 64,
      "hit": false,
      "t": 303845.84999999945,
      "d": 1826.9212500000722,
      "v": 81
    },
    {
      "midi": 71,
      "hit": false,
      "t": 304230.4649999995,
      "d": 1233.9731250000186,
      "v": 123
    },
    {
      "midi": 43,
      "hit": false,
      "t": 304615.0799999995,
      "d": 2339.741250000021,
      "v": 82
    },
    {
      "midi": 55,
      "hit": false,
      "t": 304999.69499999954,
      "d": 833.3325000000186,
      "v": 66
    },
    {
      "midi": 72,
      "hit": false,
      "t": 305384.30999999953,
      "d": 432.6918750000186,
      "v": 101
    },
    {
      "midi": 74,
      "hit": false,
      "t": 305768.9249999995,
      "d": 833.3325000000186,
      "v": 127
    },
    {
      "midi": 55,
      "hit": false,
      "t": 306153.5399999996,
      "d": 224.35875000001397,
      "v": 61
    },
    {
      "midi": 71,
      "hit": false,
      "t": 306538.15499999956,
      "d": 496.79437499993946,
      "v": 113
    },
    {
      "midi": 69,
      "hit": false,
      "t": 307691.9999999995,
      "d": 865.3837500000373,
      "v": 113
    },
    {
      "midi": 53,
      "hit": false,
      "t": 307691.9999999995,
      "d": 5368.584375000035,
      "v": 69
    },
    {
      "midi": 67,
      "hit": false,
      "t": 308461.2299999995,
      "d": 400.640625,
      "v": 66
    },
    {
      "midi": 69,
      "hit": false,
      "t": 308845.8449999995,
      "d": 769.2299999999814,
      "v": 109
    },
    {
      "midi": 72,
      "hit": false,
      "t": 309615.0749999995,
      "d": 496.7943749999977,
      "v": 114
    },
    {
      "midi": 69,
      "hit": false,
      "t": 309999.6899999995,
      "d": 3076.920000000042,
      "v": 112
    },
    {
      "midi": 67,
      "hit": false,
      "t": 313845.8399999995,
      "d": 1907.0493750000023,
      "v": 104
    },
    {
      "midi": 62,
      "hit": false,
      "t": 313845.8399999995,
      "d": 1939.100625000021,
      "v": 116
    },
    {
      "midi": 52,
      "hit": false,
      "t": 313845.8399999995,
      "d": 3381.406874999986,
      "v": 64
    },
    {
      "midi": 40,
      "hit": false,
      "t": 313845.8399999995,
      "d": 4983.969374999986,
      "v": 55
    },
    {
      "midi": 60,
      "hit": false,
      "t": 316153.5299999995,
      "d": 1810.8956250000047,
      "v": 122
    },
    {
      "midi": 67,
      "hit": false,
      "t": 316153.5299999995,
      "d": 1826.921250000014,
      "v": 116
    },
    {
      "midi": 52,
      "hit": false,
      "t": 318076.6049999995,
      "d": 817.3068749999511,
      "v": 68
    },
    {
      "midi": 67,
      "hit": false,
      "t": 318461.2199999995,
      "d": 576.922499999986,
      "v": 127
    },
    {
      "midi": 59,
      "hit": false,
      "t": 318461.2199999995,
      "d": 673.0762499999837,
      "v": 118
    },
    {
      "midi": 48,
      "hit": false,
      "t": 319615.0649999995,
      "d": 272.4356249999837,
      "v": 52
    },
    {
      "midi": 53,
      "hit": false,
      "t": 319999.67999999947,
      "d": 1009.6143749999464,
      "v": 92
    },
    {
      "midi": 55,
      "hit": false,
      "t": 319999.67999999947,
      "d": 1185.8962499999325,
      "v": 112
    },
    {
      "midi": 57,
      "hit": false,
      "t": 319999.67999999947,
      "d": 1554.4856249999139,
      "v": 98
    },
    {
      "midi": 60,
      "hit": false,
      "t": 319999.67999999947,
      "d": 1634.6137499999022,
      "v": 90
    },
    {
      "midi": 41,
      "hit": false,
      "t": 319999.67999999947,
      "d": 5352.558749999851,
      "v": 94
    },
    {
      "midi": 67,
      "hit": false,
      "t": 322691.98499999935,
      "d": 272.4356249999837,
      "v": 127
    },
    {
      "midi": 72,
      "hit": false,
      "t": 322691.98499999935,
      "d": 464.74312499997905,
      "v": 115
    },
    {
      "midi": 69,
      "hit": false,
      "t": 323076.59999999934,
      "d": 240.38437499996508,
      "v": 87
    },
    {
      "midi": 72,
      "hit": false,
      "t": 323461.2149999993,
      "d": 224.35875000001397,
      "v": 111
    },
    {
      "midi": 65,
      "hit": false,
      "t": 323461.2149999993,
      "d": 240.38437500002328,
      "v": 105
    },
    {
      "midi": 53,
      "hit": false,
      "t": 324615.05999999936,
      "d": 352.56374999997206,
      "v": 82
    },
    {
      "midi": 55,
      "hit": false,
      "t": 324999.67499999935,
      "d": 368.5893749999814,
      "v": 111
    },
    {
      "midi": 41,
      "hit": false,
      "t": 325768.90499999933,
      "d": 192.30749999999534,
      "v": 83
    },
    {
      "midi": 52,
      "hit": false,
      "t": 326153.5199999993,
      "d": 1762.818750000035,
      "v": 85
    },
    {
      "midi": 67,
      "hit": false,
      "t": 326153.5199999993,
      "d": 1778.8443750000442,
      "v": 122
    },
    {
      "midi": 62,
      "hit": false,
      "t": 326153.5199999993,
      "d": 1794.8700000000536,
      "v": 125
    },
    {
      "midi": 60,
      "hit": false,
      "t": 328461.2099999994,
      "d": 1923.0750000000116,
      "v": 113
    },
    {
      "midi": 67,
      "hit": false,
      "t": 328461.2099999994,
      "d": 1955.1262500000303,
      "v": 111
    },
    {
      "midi": 40,
      "hit": false,
      "t": 330384.2849999994,
      "d": 929.4862500000163,
      "v": 79
    },
    {
      "midi": 67,
      "hit": false,
      "t": 330768.8999999994,
      "d": 608.9737500000047,
      "v": 127
    },
    {
      "midi": 59,
      "hit": false,
      "t": 330768.8999999994,
      "d": 721.1531250000116,
      "v": 127
    },
    {
      "midi": 48,
      "hit": false,
      "t": 331922.7449999994,
      "d": 240.38437500002328,
      "v": 90
    },
    {
      "midi": 53,
      "hit": false,
      "t": 332307.35999999946,
      "d": 1570.5112500000396,
      "v": 116
    },
    {
      "midi": 55,
      "hit": false,
      "t": 332307.35999999946,
      "d": 1698.7162500000559,
      "v": 124
    },
    {
      "midi": 57,
      "hit": false,
      "t": 332307.35999999946,
      "d": 1794.8700000000536,
      "v": 118
    },
    {
      "midi": 60,
      "hit": false,
      "t": 332307.35999999946,
      "d": 1874.998125000042,
      "v": 116
    },
    {
      "midi": 41,
      "hit": false,
      "t": 332307.35999999946,
      "d": 4999.995000000054,
      "v": 97
    },
    {
      "midi": 81,
      "hit": false,
      "t": 333076.5900000001,
      "d": 288.461249999993,
      "v": 127
    },
    {
      "midi": 84,
      "hit": false,
      "t": 333333.00000000006,
      "d": 224.35875000001397,
      "v": 127
    },
    {
      "midi": 79,
      "hit": false,
      "t": 333589.4100000001,
      "d": 224.35875000001397,
      "v": 127
    },
    {
      "midi": 81,
      "hit": false,
      "t": 333845.8200000001,
      "d": 192.30749999999534,
      "v": 127
    },
    {
      "midi": 76,
      "hit": false,
      "t": 334102.2300000001,
      "d": 208.33312500000466,
      "v": 127
    },
    {
      "midi": 79,
      "hit": false,
      "t": 334358.64000000013,
      "d": 192.30749999999534,
      "v": 127
    },
    {
      "midi": 74,
      "hit": false,
      "t": 334615.0500000001,
      "d": 256.4099999999744,
      "v": 127
    },
    {
      "midi": 76,
      "hit": false,
      "t": 334871.4600000001,
      "d": 208.33312500000466,
      "v": 127
    },
    {
      "midi": 72,
      "hit": false,
      "t": 335127.8700000001,
      "d": 224.35875000001397,
      "v": 127
    },
    {
      "midi": 53,
      "hit": false,
      "t": 335384.2799999995,
      "d": 160.25624999997672,
      "v": 58
    },
    {
      "midi": 74,
      "hit": false,
      "t": 335384.28000000014,
      "d": 240.38437500002328,
      "v": 127
    },
    {
      "midi": 69,
      "hit": false,
      "t": 335640.6900000002,
      "d": 208.33312500000466,
      "v": 127
    },
    {
      "midi": 60,
      "hit": false,
      "t": 335768.8949999995,
      "d": 128.2050000000163,
      "v": 76
    },
    {
      "midi": 72,
      "hit": false,
      "t": 335897.1000000002,
      "d": 224.35875000001397,
      "v": 127
    },
    {
      "midi": 72,
      "hit": false,
      "t": 336153.5099999995,
      "d": 496.7943749999977,
      "v": 120
    },
    {
      "midi": 67,
      "hit": false,
      "t": 336153.5099999995,
      "d": 512.820000000007,
      "v": 127
    },
    {
      "midi": 60,
      "hit": false,
      "t": 336153.5099999995,
      "d": 528.8456250000163,
      "v": 116
    },
    {
      "midi": 67,
      "hit": false,
      "t": 336153.51000000024,
      "d": 256.4099999999744,
      "v": 127
    },
    {
      "midi": 69,
      "hit": false,
      "t": 336409.9200000002,
      "d": 224.35875000001397,
      "v": 127
    },
    {
      "midi": 53,
      "hit": false,
      "t": 336538.1249999995,
      "d": 144.2306250000256,
      "v": 62
    },
    {
      "midi": 64,
      "hit": false,
      "t": 336666.33000000025,
      "d": 240.38437500002328,
      "v": 127
    },
    {
      "midi": 65,
      "hit": false,
      "t": 336922.7399999995,
      "d": 576.922499999986,
      "v": 127
    },
    {
      "midi": 67,
      "hit": false,
      "t": 336922.7400000003,
      "d": 224.35875000001397,
      "v": 127
    },
    {
      "midi": 62,
      "hit": false,
      "t": 337179.1500000003,
      "d": 240.38437500002328,
      "v": 127
    },
    {
      "midi": 60,
      "hit": false,
      "t": 337307.3549999995,
      "d": 192.30749999999534,
      "v": 110
    },
    {
      "midi": 64,
      "hit": false,
      "t": 337435.56000000035,
      "d": 240.38437500002328,
      "v": 127
    },
    {
      "midi": 60,
      "hit": false,
      "t": 337691.9700000004,
      "d": 288.461249999993,
      "v": 127
    },
    {
      "midi": 62,
      "hit": false,
      "t": 337948.38000000035,
      "d": 240.38437500002328,
      "v": 127
    },
    {
      "midi": 50,
      "hit": false,
      "t": 338076.5849999995,
      "d": 288.461249999993,
      "v": 61
    },
    {
      "midi": 57,
      "hit": false,
      "t": 338204.7900000004,
      "d": 176.28187499998603,
      "v": 127
    },
    {
      "midi": 55,
      "hit": false,
      "t": 338461.1999999995,
      "d": 1634.6137500000186,
      "v": 116
    },
    {
      "midi": 59,
      "hit": false,
      "t": 338461.1999999995,
      "d": 1650.639375000028,
      "v": 124
    },
    {
      "midi": 62,
      "hit": false,
      "t": 338461.1999999995,
      "d": 1682.6906250000466,
      "v": 122
    },
    {
      "midi": 43,
      "hit": false,
      "t": 338461.1999999995,
      "d": 1923.0750000000698,
      "v": 109
    },
    {
      "midi": 59,
      "hit": false,
      "t": 340384.27499999956,
      "d": 432.6918750000186,
      "v": 123
    },
    {
      "midi": 55,
      "hit": false,
      "t": 340384.27499999956,
      "d": 448.71750000002794,
      "v": 116
    },
    {
      "midi": 62,
      "hit": false,
      "t": 340384.27499999956,
      "d": 480.76875000004657,
      "v": 116
    },
    {
      "midi": 43,
      "hit": false,
      "t": 340768.88999999955,
      "d": 192.30750000005355,
      "v": 82
    },
    {
      "midi": 56,
      "hit": false,
      "t": 341538.1199999996,
      "d": 1554.485624999972,
      "v": 108
    },
    {
      "midi": 59,
      "hit": false,
      "t": 341538.1199999996,
      "d": 1554.485624999972,
      "v": 127
    },
    {
      "midi": 64,
      "hit": false,
      "t": 341538.1199999996,
      "d": 1570.5112499999814,
      "v": 121
    },
    {
      "midi": 44,
      "hit": false,
      "t": 341538.1199999996,
      "d": 2051.2799999999697,
      "v": 107
    },
    {
      "midi": 56,
      "hit": false,
      "t": 343461.19499999954,
      "d": 496.7943749999977,
      "v": 100
    },
    {
      "midi": 59,
      "hit": false,
      "t": 343461.19499999954,
      "d": 528.8456250000163,
      "v": 123
    },
    {
      "midi": 64,
      "hit": false,
      "t": 343461.19499999954,
      "d": 624.999375000014,
      "v": 96
    },
    {
      "midi": 44,
      "hit": false,
      "t": 344230.4249999996,
      "d": 400.640625,
      "v": 65
    },
    {
      "midi": 57,
      "hit": false,
      "t": 344615.0399999996,
      "d": 1634.6137500000186,
      "v": 116
    },
    {
      "midi": 60,
      "hit": false,
      "t": 344615.0399999996,
      "d": 1666.6650000000373,
      "v": 122
    },
    {
      "midi": 64,
      "hit": false,
      "t": 344615.0399999996,
      "d": 1682.6906250000466,
      "v": 111
    },
    {
      "midi": 45,
      "hit": false,
      "t": 344615.0399999996,
      "d": 1987.177500000049,
      "v": 95
    },
    {
      "midi": 57,
      "hit": false,
      "t": 346538.11499999964,
      "d": 352.56374999997206,
      "v": 105
    },
    {
      "midi": 60,
      "hit": false,
      "t": 346538.11499999964,
      "d": 352.56374999997206,
      "v": 109
    },
    {
      "midi": 64,
      "hit": false,
      "t": 346538.11499999964,
      "d": 352.56374999997206,
      "v": 113
    },
    {
      "midi": 45,
      "hit": false,
      "t": 347307.3449999996,
      "d": 336.53812500002095,
      "v": 46
    },
    {
      "midi": 56,
      "hit": false,
      "t": 347691.9599999997,
      "d": 1891.023749999993,
      "v": 90
    },
    {
      "midi": 53,
      "hit": false,
      "t": 347691.9599999997,
      "d": 2131.4081250000163,
      "v": 94
    },
    {
      "midi": 65,
      "hit": false,
      "t": 347691.9599999997,
      "d": 3926.2781250000116,
      "v": 103
    },
    {
      "midi": 60,
      "hit": false,
      "t": 347691.9599999997,
      "d": 4102.559999999998,
      "v": 101
    },
    {
      "midi": 41,
      "hit": false,
      "t": 347691.9599999997,
      "d": 5176.27687500004,
      "v": 79
    },
    {
      "midi": 53,
      "hit": false,
      "t": 351153.4949999997,
      "d": 384.6149999999907,
      "v": 83
    },
    {
      "midi": 56,
      "hit": false,
      "t": 351538.1099999997,
      "d": 336.53812499996275,
      "v": 49
    },
    {
      "midi": 65,
      "hit": false,
      "t": 351922.7249999997,
      "d": 705.1275000000023,
      "v": 127
    },
    {
      "midi": 53,
      "hit": false,
      "t": 352307.3399999997,
      "d": 112.17937500000698,
      "v": 54
    },
    {
      "midi": 64,
      "hit": false,
      "t": 353845.7999999997,
      "d": 1041.6656250000233,
      "v": 81
    },
    {
      "midi": 45,
      "hit": false,
      "t": 353845.7999999997,
      "d": 2179.484999999986,
      "v": 83
    },
    {
      "midi": 69,
      "hit": false,
      "t": 353845.7999999997,
      "d": 2291.664374999993,
      "v": 96
    },
    {
      "midi": 72,
      "hit": false,
      "t": 353845.7999999997,
      "d": 2868.5868750000373,
      "v": 100
    },
    {
      "midi": 64,
      "hit": false,
      "t": 354999.6449999997,
      "d": 368.5893749999814,
      "v": 46
    },
    {
      "midi": 57,
      "hit": false,
      "t": 355384.2599999997,
      "d": 320.51250000001164,
      "v": 72
    },
    {
      "midi": 64,
      "hit": false,
      "t": 355768.8749999997,
      "d": 560.8968749999767,
      "v": 106
    },
    {
      "midi": 45,
      "hit": false,
      "t": 356538.1049999997,
      "d": 128.2050000000163,
      "v": 57
    },
    {
      "midi": 62,
      "hit": false,
      "t": 356922.71999999974,
      "d": 737.178750000021,
      "v": 61
    },
    {
      "midi": 67,
      "hit": false,
      "t": 356922.71999999974,
      "d": 801.28125,
      "v": 92
    },
    {
      "midi": 71,
      "hit": false,
      "t": 356922.71999999974,
      "d": 929.4862500000163,
      "v": 76
    },
    {
      "midi": 55,
      "hit": false,
      "t": 356922.71999999974,
      "d": 2676.279375000042,
      "v": 60
    },
    {
      "midi": 43,
      "hit": false,
      "t": 358076.56499999977,
      "d": 1346.1524999999674,
      "v": 69
    },
    {
      "midi": 71,
      "hit": false,
      "t": 358461.17999999976,
      "d": 256.4099999999744,
      "v": 116
    },
    {
      "midi": 67,
      "hit": false,
      "t": 358461.17999999976,
      "d": 272.4356249999837,
      "v": 113
    },
    {
      "midi": 69,
      "hit": false,
      "t": 358845.79499999975,
      "d": 176.28187499998603,
      "v": 112
    },
    {
      "midi": 72,
      "hit": false,
      "t": 358845.79499999975,
      "d": 256.4099999999744,
      "v": 116
    },
    {
      "midi": 74,
      "hit": false,
      "t": 359230.40999999974,
      "d": 336.53812500002095,
      "v": 125
    },
    {
      "midi": 71,
      "hit": false,
      "t": 359230.40999999974,
      "d": 400.6406250000582,
      "v": 123
    },
    {
      "midi": 69,
      "hit": false,
      "t": 359999.6399999998,
      "d": 1891.0237500000512,
      "v": 105
    },
    {
      "midi": 72,
      "hit": false,
      "t": 359999.6399999998,
      "d": 2323.71562500007,
      "v": 101
    },
    {
      "midi": 45,
      "hit": false,
      "t": 359999.6399999998,
      "d": 4711.533750000002,
      "v": 71
    },
    {
      "midi": 69,
      "hit": false,
      "t": 362307.32999999984,
      "d": 160.25625000003492,
      "v": 81
    },
    {
      "midi": 64,
      "hit": false,
      "t": 362307.32999999984,
      "d": 320.51250000001164,
      "v": 46
    },
    {
      "midi": 72,
      "hit": false,
      "t": 362691.94499999983,
      "d": 849.3581249999697,
      "v": 127
    },
    {
      "midi": 64,
      "hit": false,
      "t": 363076.5599999998,
      "d": 288.461249999993,
      "v": 56
    },
    {
      "midi": 71,
      "hit": false,
      "t": 363461.1749999998,
      "d": 512.820000000007,
      "v": 98
    },
    {
      "midi": 69,
      "hit": false,
      "t": 364230.4049999998,
      "d": 176.28187499998603,
      "v": 84
    },
    {
      "midi": 57,
      "hit": false,
      "t": 364999.6349999998,
      "d": 448.71749999996973,
      "v": 86
    },
    {
      "midi": 64,
      "hit": false,
      "t": 365384.24999999977,
      "d": 2019.2287500000093,
      "v": 116
    },
    {
      "midi": 57,
      "hit": false,
      "t": 365768.86499999976,
      "d": 1714.741875000007,
      "v": 76
    },
    {
      "midi": 72,
      "hit": false,
      "t": 366153.47999999975,
      "d": 448.71750000002794,
      "v": 127
    },
    {
      "midi": 45,
      "hit": false,
      "t": 366153.47999999975,
      "d": 2275.6387500001,
      "v": 97
    },
    {
      "midi": 74,
      "hit": false,
      "t": 366922.7099999998,
      "d": 176.28187499998603,
      "v": 75
    },
    {
      "midi": 76,
      "hit": false,
      "t": 367307.3249999998,
      "d": 528.8456250000163,
      "v": 122
    },
    {
      "midi": 64,
      "hit": false,
      "t": 367691.93999999977,
      "d": 512.8200000000652,
      "v": 71
    },
    {
      "midi": 72,
      "hit": false,
      "t": 368076.5549999998,
      "d": 544.8712500000256,
      "v": 125
    },
    {
      "midi": 64,
      "hit": false,
      "t": 368461.16999999987,
      "d": 1746.7931250000256,
      "v": 77
    },
    {
      "midi": 71,
      "hit": false,
      "t": 368845.78499999986,
      "d": 1185.896250000049,
      "v": 118
    },
    {
      "midi": 43,
      "hit": false,
      "t": 369230.39999999985,
      "d": 1907.0493750001187,
      "v": 85
    },
    {
      "midi": 55,
      "hit": false,
      "t": 369615.0149999999,
      "d": 849.3581250000279,
      "v": 76
    },
    {
      "midi": 72,
      "hit": false,
      "t": 369999.6299999999,
      "d": 352.56375000003027,
      "v": 81
    },
    {
      "midi": 74,
      "hit": false,
      "t": 370384.24499999994,
      "d": 801.2812500000582,
      "v": 118
    },
    {
      "midi": 55,
      "hit": false,
      "t": 370768.8599999999,
      "d": 320.51250000001164,
      "v": 53
    },
    {
      "midi": 71,
      "hit": false,
      "t": 371153.475,
      "d": 320.51250000001164,
      "v": 96
    },
    {
      "midi": 69,
      "hit": false,
      "t": 372307.32,
      "d": 817.3068750000093,
      "v": 102
    },
    {
      "midi": 53,
      "hit": false,
      "t": 372307.32,
      "d": 4166.662499999977,
      "v": 68
    },
    {
      "midi": 67,
      "hit": false,
      "t": 373076.55,
      "d": 368.5893750000396,
      "v": 62
    },
    {
      "midi": 69,
      "hit": false,
      "t": 373461.16500000004,
      "d": 753.2043749999721,
      "v": 96
    },
    {
      "midi": 72,
      "hit": false,
      "t": 374230.395,
      "d": 464.74312499997905,
      "v": 101
    },
    {
      "midi": 69,
      "hit": false,
      "t": 374615.01,
      "d": 1650.6393749999697,
      "v": 91
    },
    {
      "midi": 55,
      "hit": false,
      "t": 378461.16,
      "d": 144.2306250000256,
      "v": 115
    },
    {
      "midi": 59,
      "hit": false,
      "t": 378461.16,
      "d": 448.71750000002794,
      "v": 46
    },
    {
      "midi": 60,
      "hit": false,
      "t": 378461.16,
      "d": 480.76875000004657,
      "v": 51
    },
    {
      "midi": 45,
      "hit": false,
      "t": 378701.544375,
      "d": 6201.916875000112,
      "v": 78
    },
    {
      "midi": 50,
      "hit": false,
      "t": 378781.6725,
      "d": 256.4100000000326,
      "v": 92
    },
    {
      "midi": 55,
      "hit": false,
      "t": 379006.03125,
      "d": 224.35875000001397,
      "v": 110
    },
    {
      "midi": 59,
      "hit": false,
      "t": 379246.415625,
      "d": 192.30749999999534,
      "v": 95
    },
    {
      "midi": 60,
      "hit": false,
      "t": 379502.825625,
      "d": 48.07687500002794,
      "v": 64
    },
    {
      "midi": 69,
      "hit": false,
      "t": 379823.338125,
      "d": 336.53812500002095,
      "v": 81
    },
    {
      "midi": 72,
      "hit": false,
      "t": 380175.90187500004,
      "d": 304.4868750000023,
      "v": 94
    },
    {
      "midi": 74,
      "hit": false,
      "t": 380592.56812500005,
      "d": 176.28187499998603,
      "v": 88
    },
    {
      "midi": 76,
      "hit": false,
      "t": 381041.285625,
      "d": 176.28187499998603,
      "v": 85
    },
    {
      "midi": 81,
      "hit": false,
      "t": 381554.105625,
      "d": 224.35875000001397,
      "v": 68
    },
    {
      "midi": 83,
      "hit": false,
      "t": 382098.97687500005,
      "d": 288.461249999993,
      "v": 66
    },
    {
      "midi": 84,
      "hit": false,
      "t": 382691.92500000005,
      "d": 208.33312500000466,
      "v": 49
    },
    {
      "midi": 88,
      "hit": false,
      "t": 383332.95000000007,
      "d": 208.33312500000466,
      "v": 57
    },
    {
      "midi": 93,
      "hit": false,
      "t": 384070.1287500001,
      "d": 240.38437500002328,
      "v": 46
    }
  ]
}