{
  "jsonPath": "Unknown/Unknown/LOrchestra Electronique/1492-the-conquest-of-paradise.json",
  "path": "Unknown\\Unknown\\LOrchestra Electronique\\1492 - The Conquest Of Paradise.mid",
  "name": "1492 - The Conquest Of Paradise",
  "difficulty": "Advanced",
  "bpm": 73.99998273333736,
  "notes": [
    {
      "midi": 69,
      "hit": false,
      "t": 84324.34400000001,
      "d": 810.8110000000015,
      "v": 120
    },
    {
      "midi": 77,
      "hit": false,
      "t": 85135.15500000001,
      "d": 608.1082499999902,
      "v": 127
    },
    {
      "midi": 62,
      "hit": false,
      "t": 85135.15500000001,
      "d": 1013.5137499999837,
      "v": 96
    },
    {
      "midi": 65,
      "hit": false,
      "t": 85540.5605,
      "d": 1013.5137499999837,
      "v": 95
    },
    {
      "midi": 76,
      "hit": false,
      "t": 85743.26325,
      "d": 195.9459916666674,
      "v": 126
    },
    {
      "midi": 69,
      "hit": false,
      "t": 85945.966,
      "d": 810.810999999987,
      "v": 103
    },
    {
      "midi": 74,
      "hit": false,
      "t": 85945.966,
      "d": 810.810999999987,
      "v": 127
    },
    {
      "midi": 65,
      "hit": false,
      "t": 86756.77699999999,
      "d": 405.4054999999935,
      "v": 101
    },
    {
      "midi": 73,
      "hit": false,
      "t": 86756.77699999999,
      "d": 608.1082499999902,
      "v": 125
    },
    {
      "midi": 69,
      "hit": false,
      "t": 87162.18249999998,
      "d": 195.9459916666674,
      "v": 113
    },
    {
      "midi": 74,
      "hit": false,
      "t": 87364.88524999998,
      "d": 195.9459916666674,
      "v": 111
    },
    {
      "midi": 57,
      "hit": false,
      "t": 87567.58799999997,
      "d": 1418.9192499999917,
      "v": 107
    },
    {
      "midi": 76,
      "hit": false,
      "t": 87567.58799999997,
      "d": 2027.027499999982,
      "v": 120
    },
    {
      "midi": 64,
      "hit": false,
      "t": 87972.99349999997,
      "d": 1824.3247499999852,
      "v": 108
    },
    {
      "midi": 73,
      "hit": false,
      "t": 88175.69624999996,
      "d": 1621.6219999999885,
      "v": 110
    },
    {
      "midi": 61,
      "hit": false,
      "t": 88378.39899999996,
      "d": 1013.5137499999983,
      "v": 94
    },
    {
      "midi": 69,
      "hit": false,
      "t": 88378.39899999996,
      "d": 1216.216499999995,
      "v": 119
    },
    {
      "midi": 55,
      "hit": false,
      "t": 89189.20999999996,
      "d": 608.1082499999902,
      "v": 85
    },
    {
      "midi": 61,
      "hit": false,
      "t": 89594.61549999996,
      "d": 195.9459916666674,
      "v": 104
    },
    {
      "midi": 69,
      "hit": false,
      "t": 89797.31824999995,
      "d": 195.9459916666674,
      "v": 118
    },
    {
      "midi": 77,
      "hit": false,
      "t": 90000.02099999995,
      "d": 608.1082499999902,
      "v": 127
    },
    {
      "midi": 62,
      "hit": false,
      "t": 90000.02099999995,
      "d": 1013.5137499999837,
      "v": 87
    },
    {
      "midi": 69,
      "hit": false,
      "t": 90405.42649999994,
      "d": 1216.2164999999804,
      "v": 101
    },
    {
      "midi": 76,
      "hit": false,
      "t": 90608.12924999994,
      "d": 195.9459916666674,
      "v": 127
    },
    {
      "midi": 65,
      "hit": false,
      "t": 90810.83199999994,
      "d": 608.1082499999902,
      "v": 115
    },
    {
      "midi": 74,
      "hit": false,
      "t": 90810.83199999994,
      "d": 810.810999999987,
      "v": 127
    },
    {
      "midi": 65,
      "hit": false,
      "t": 91621.64299999992,
      "d": 405.4054999999935,
      "v": 107
    },
    {
      "midi": 73,
      "hit": false,
      "t": 91621.64299999992,
      "d": 810.810999999987,
      "v": 127
    },
    {
      "midi": 69,
      "hit": false,
      "t": 92027.04849999992,
      "d": 195.9459916666674,
      "v": 109
    },
    {
      "midi": 74,
      "hit": false,
      "t": 92229.75124999991,
      "d": 195.9459916666674,
      "v": 120
    },
    {
      "midi": 60,
      "hit": false,
      "t": 92432.45399999991,
      "d": 1216.216499999995,
      "v": 99
    },
    {
      "midi": 76,
      "hit": false,
      "t": 92432.45399999991,
      "d": 1621.6219999999885,
      "v": 127
    },
    {
      "midi": 67,
      "hit": false,
      "t": 93243.26499999991,
      "d": 1418.9192499999772,
      "v": 89
    },
    {
      "midi": 64,
      "hit": false,
      "t": 93648.6704999999,
      "d": 608.1082499999902,
      "v": 104
    },
    {
      "midi": 58,
      "hit": false,
      "t": 94054.0759999999,
      "d": 405.4054999999935,
      "v": 109
    },
    {
      "midi": 72,
      "hit": false,
      "t": 94054.0759999999,
      "d": 810.810999999987,
      "v": 127
    },
    {
      "midi": 64,
      "hit": false,
      "t": 94459.48149999989,
      "d": 195.9459916666674,
      "v": 111
    },
    {
      "midi": 81,
      "hit": false,
      "t": 94864.88699999989,
      "d": 810.810999999987,
      "v": 127
    },
    {
      "midi": 65,
      "hit": false,
      "t": 94864.88699999989,
      "d": 1013.5137499999837,
      "v": 111
    },
    {
      "midi": 72,
      "hit": false,
      "t": 95270.29249999988,
      "d": 1013.5137499999837,
      "v": 110
    },
    {
      "midi": 79,
      "hit": false,
      "t": 95472.99524999988,
      "d": 195.9459916666674,
      "v": 126
    },
    {
      "midi": 69,
      "hit": false,
      "t": 95675.69799999987,
      "d": 608.1082499999902,
      "v": 104
    },
    {
      "midi": 77,
      "hit": false,
      "t": 95675.69799999987,
      "d": 810.810999999987,
      "v": 127
    },
    {
      "midi": 69,
      "hit": false,
      "t": 96486.50899999986,
      "d": 608.1082499999902,
      "v": 100
    },
    {
      "midi": 76,
      "hit": false,
      "t": 96486.50899999986,
      "d": 608.1082499999902,
      "v": 127
    },
    {
      "midi": 72,
      "hit": false,
      "t": 96891.91449999985,
      "d": 195.9459916666674,
      "v": 113
    },
    {
      "midi": 77,
      "hit": false,
      "t": 97094.61724999985,
      "d": 195.9459916666674,
      "v": 121
    },
    {
      "midi": 79,
      "hit": false,
      "t": 97297.31999999985,
      "d": 1216.2164999999804,
      "v": 113
    },
    {
      "midi": 60,
      "hit": false,
      "t": 97297.31999999985,
      "d": 1418.9192499999772,
      "v": 79
    },
    {
      "midi": 67,
      "hit": false,
      "t": 97702.72549999984,
      "d": 1418.9192499999772,
      "v": 95
    },
    {
      "midi": 76,
      "hit": false,
      "t": 97905.42824999984,
      "d": 195.9459916666674,
      "v": 117
    },
    {
      "midi": 64,
      "hit": false,
      "t": 98108.13099999983,
      "d": 1216.2164999999804,
      "v": 94
    },
    {
      "midi": 72,
      "hit": false,
      "t": 98108.13099999983,
      "d": 1216.2164999999804,
      "v": 114
    },
    {
      "midi": 60,
      "hit": false,
      "t": 98918.94199999982,
      "d": 405.4054999999935,
      "v": 76
    },
    {
      "midi": 67,
      "hit": false,
      "t": 99324.34749999981,
      "d": 195.9459916666674,
      "v": 102
    },
    {
      "midi": 72,
      "hit": false,
      "t": 99527.05024999981,
      "d": 195.9459916666674,
      "v": 127
    },
    {
      "midi": 70,
      "hit": false,
      "t": 99729.75299999981,
      "d": 810.810999999987,
      "v": 127
    },
    {
      "midi": 58,
      "hit": false,
      "t": 99729.75299999981,
      "d": 1013.5137499999837,
      "v": 119
    },
    {
      "midi": 62,
      "hit": false,
      "t": 100135.1584999998,
      "d": 1824.3247499999707,
      "v": 96
    },
    {
      "midi": 72,
      "hit": false,
      "t": 100337.8612499998,
      "d": 195.9459916666674,
      "v": 119
    },
    {
      "midi": 74,
      "hit": false,
      "t": 100540.5639999998,
      "d": 608.1082499999902,
      "v": 127
    },
    {
      "midi": 65,
      "hit": false,
      "t": 100540.5639999998,
      "d": 810.810999999987,
      "v": 115
    },
    {
      "midi": 58,
      "hit": false,
      "t": 100945.96949999979,
      "d": 1013.5137499999837,
      "v": 109
    },
    {
      "midi": 76,
      "hit": false,
      "t": 101148.67224999978,
      "d": 195.9459916666674,
      "v": 112
    },
    {
      "midi": 74,
      "hit": false,
      "t": 101250.02362499978,
      "d": 101.35137499999837,
      "v": 104
    },
    {
      "midi": 72,
      "hit": false,
      "t": 101351.37499999978,
      "d": 810.810999999987,
      "v": 127
    },
    {
      "midi": 65,
      "hit": false,
      "t": 101756.78049999978,
      "d": 405.4054999999935,
      "v": 116
    },
    {
      "midi": 70,
      "hit": false,
      "t": 101959.48324999977,
      "d": 195.9459916666674,
      "v": 125
    },
    {
      "midi": 69,
      "hit": false,
      "t": 102162.18599999977,
      "d": 1418.9192499999772,
      "v": 127
    },
    {
      "midi": 57,
      "hit": false,
      "t": 102162.18599999977,
      "d": 1621.621999999974,
      "v": 93
    },
    {
      "midi": 61,
      "hit": false,
      "t": 102567.59149999976,
      "d": 608.1082499999902,
      "v": 69
    },
    {
      "midi": 64,
      "hit": false,
      "t": 102972.99699999976,
      "d": 1013.5137499999837,
      "v": 109
    },
    {
      "midi": 61,
      "hit": false,
      "t": 103378.40249999975,
      "d": 405.4054999999935,
      "v": 69
    },
    {
      "midi": 69,
      "hit": false,
      "t": 107027.05200000001,
      "d": 810.8110000000015,
      "v": 60
    },
    {
      "midi": 69,
      "hit": false,
      "t": 145135.16899999973,
      "d": 810.810999999987,
      "v": 120
    },
    {
      "midi": 77,
      "hit": false,
      "t": 145945.97999999972,
      "d": 608.1082499999902,
      "v": 127
    },
    {
      "midi": 62,
      "hit": false,
      "t": 145945.97999999972,
      "d": 1013.5137499999837,
      "v": 96
    },
    {
      "midi": 65,
      "hit": false,
      "t": 146351.3854999997,
      "d": 1013.5137499999837,
      "v": 95
    },
    {
      "midi": 76,
      "hit": false,
      "t": 146554.0882499997,
      "d": 195.9459916666674,
      "v": 126
    },
    {
      "midi": 69,
      "hit": false,
      "t": 146756.7909999997,
      "d": 810.810999999987,
      "v": 103
    },
    {
      "midi": 74,
      "hit": false,
      "t": 146756.7909999997,
      "d": 810.810999999987,
      "v": 127
    },
    {
      "midi": 65,
      "hit": false,
      "t": 147567.6019999997,
      "d": 405.4054999999935,
      "v": 101
    },
    {
      "midi": 73,
      "hit": false,
      "t": 147567.6019999997,
      "d": 608.1082499999902,
      "v": 125
    },
    {
      "midi": 69,
      "hit": false,
      "t": 147973.0074999997,
      "d": 195.9459916666674,
      "v": 113
    },
    {
      "midi": 74,
      "hit": false,
      "t": 148175.71024999968,
      "d": 195.9459916666674,
      "v": 111
    },
    {
      "midi": 57,
      "hit": false,
      "t": 148378.41299999968,
      "d": 1418.9192499999772,
      "v": 107
    },
    {
      "midi": 76,
      "hit": false,
      "t": 148378.41299999968,
      "d": 2027.0274999999674,
      "v": 120
    },
    {
      "midi": 64,
      "hit": false,
      "t": 148783.81849999967,
      "d": 1824.3247499999707,
      "v": 108
    },
    {
      "midi": 73,
      "hit": false,
      "t": 148986.52124999967,
      "d": 1621.621999999974,
      "v": 110
    },
    {
      "midi": 61,
      "hit": false,
      "t": 149189.22399999967,
      "d": 1013.5137499999837,
      "v": 94
    },
    {
      "midi": 69,
      "hit": false,
      "t": 149189.22399999967,
      "d": 1216.2164999999804,
      "v": 119
    },
    {
      "midi": 55,
      "hit": false,
      "t": 150000.03499999965,
      "d": 608.1082499999902,
      "v": 85
    },
    {
      "midi": 61,
      "hit": false,
      "t": 150405.44049999965,
      "d": 195.9459916666674,
      "v": 104
    },
    {
      "midi": 69,
      "hit": false,
      "t": 150608.14324999964,
      "d": 195.9459916666674,
      "v": 118
    },
    {
      "midi": 77,
      "hit": false,
      "t": 150810.84599999964,
      "d": 608.1082499999902,
      "v": 127
    },
    {
      "midi": 62,
      "hit": false,
      "t": 150810.84599999964,
      "d": 1013.5137499999837,
      "v": 87
    },
    {
      "midi": 69,
      "hit": false,
      "t": 151216.25149999963,
      "d": 1216.2164999999804,
      "v": 101
    },
    {
      "midi": 76,
      "hit": false,
      "t": 151418.95424999963,
      "d": 195.9459916666674,
      "v": 127
    },
    {
      "midi": 65,
      "hit": false,
      "t": 151621.65699999963,
      "d": 608.1082499999902,
      "v": 115
    },
    {
      "midi": 74,
      "hit": false,
      "t": 151621.65699999963,
      "d": 810.810999999987,
      "v": 127
    },
    {
      "midi": 65,
      "hit": false,
      "t": 152432.46799999962,
      "d": 405.4054999999935,
      "v": 107
    },
    {
      "midi": 73,
      "hit": false,
      "t": 152432.46799999962,
      "d": 810.810999999987,
      "v": 127
    },
    {
      "midi": 69,
      "hit": false,
      "t": 152837.8734999996,
      "d": 195.9459916666674,
      "v": 109
    },
    {
      "midi": 74,
      "hit": false,
      "t": 153040.5762499996,
      "d": 195.9459916666674,
      "v": 120
    },
    {
      "midi": 60,
      "hit": false,
      "t": 153243.2789999996,
      "d": 1216.2164999999804,
      "v": 99
    },
    {
      "midi": 76,
      "hit": false,
      "t": 153243.2789999996,
      "d": 1621.621999999974,
      "v": 127
    },
    {
      "midi": 67,
      "hit": false,
      "t": 154054.0899999996,
      "d": 1418.9192499999772,
      "v": 89
    },
    {
      "midi": 64,
      "hit": false,
      "t": 154459.49549999958,
      "d": 608.1082499999902,
      "v": 104
    },
    {
      "midi": 58,
      "hit": false,
      "t": 154864.90099999958,
      "d": 405.4054999999935,
      "v": 109
    },
    {
      "midi": 72,
      "hit": false,
      "t": 154864.90099999958,
      "d": 810.810999999987,
      "v": 127
    },
    {
      "midi": 64,
      "hit": false,
      "t": 155270.30649999957,
      "d": 195.9459916666674,
      "v": 111
    },
    {
      "midi": 81,
      "hit": false,
      "t": 155675.71199999956,
      "d": 810.810999999987,
      "v": 127
    },
    {
      "midi": 65,
      "hit": false,
      "t": 155675.71199999956,
      "d": 1013.5137499999837,
      "v": 111
    },
    {
      "midi": 72,
      "hit": false,
      "t": 156081.11749999956,
      "d": 1013.5137499999837,
      "v": 110
    },
    {
      "midi": 79,
      "hit": false,
      "t": 156283.82024999955,
      "d": 195.9459916666674,
      "v": 126
    },
    {
      "midi": 69,
      "hit": false,
      "t": 156486.52299999955,
      "d": 608.1082499999902,
      "v": 104
    },
    {
      "midi": 77,
      "hit": false,
      "t": 156486.52299999955,
      "d": 810.810999999987,
      "v": 127
    },
    {
      "midi": 69,
      "hit": false,
      "t": 157297.33399999954,
      "d": 608.1082499999902,
      "v": 100
    },
    {
      "midi": 76,
      "hit": false,
      "t": 157297.33399999954,
      "d": 608.1082499999902,
      "v": 127
    },
    {
      "midi": 72,
      "hit": false,
      "t": 157702.73949999953,
      "d": 195.9459916666674,
      "v": 113
    },
    {
      "midi": 77,
      "hit": false,
      "t": 157905.44224999953,
      "d": 195.9459916666674,
      "v": 121
    },
    {
      "midi": 79,
      "hit": false,
      "t": 158108.14499999952,
      "d": 1216.2164999999804,
      "v": 113
    },
    {
      "midi": 60,
      "hit": false,
      "t": 158108.14499999952,
      "d": 1418.9192499999772,
      "v": 79
    },
    {
      "midi": 67,
      "hit": false,
      "t": 158513.55049999952,
      "d": 1418.9192499999772,
      "v": 95
    },
    {
      "midi": 76,
      "hit": false,
      "t": 158716.2532499995,
      "d": 195.9459916666674,
      "v": 117
    },
    {
      "midi": 64,
      "hit": false,
      "t": 158918.9559999995,
      "d": 1216.2164999999804,
      "v": 94
    },
    {
      "midi": 72,
      "hit": false,
      "t": 158918.9559999995,
      "d": 1216.2164999999804,
      "v": 114
    },
    {
      "midi": 60,
      "hit": false,
      "t": 159729.7669999995,
      "d": 405.4054999999935,
      "v": 76
    },
    {
      "midi": 67,
      "hit": false,
      "t": 160135.1724999995,
      "d": 195.9459916666674,
      "v": 102
    },
    {
      "midi": 72,
      "hit": false,
      "t": 160337.8752499995,
      "d": 195.9459916666674,
      "v": 127
    },
    {
      "midi": 70,
      "hit": false,
      "t": 160540.57799999948,
      "d": 810.810999999987,
      "v": 127
    },
    {
      "midi": 58,
      "hit": false,
      "t": 160540.57799999948,
      "d": 1013.5137499999837,
      "v": 119
    },
    {
      "midi": 62,
      "hit": false,
      "t": 160945.98349999948,
      "d": 1824.3247499999707,
      "v": 96
    },
    {
      "midi": 72,
      "hit": false,
      "t": 161148.68624999947,
      "d": 195.9459916666674,
      "v": 119
    },
    {
      "midi": 74,
      "hit": false,
      "t": 161351.38899999947,
      "d": 608.1082499999902,
      "v": 127
    },
    {
      "midi": 65,
      "hit": false,
      "t": 161351.38899999947,
      "d": 810.810999999987,
      "v": 115
    },
    {
      "midi": 58,
      "hit": false,
      "t": 161756.79449999947,
      "d": 1013.5137499999837,
      "v": 109
    },
    {
      "midi": 76,
      "hit": false,
      "t": 161959.49724999946,
      "d": 195.9459916666674,
      "v": 112
    },
    {
      "midi": 74,
      "hit": false,
      "t": 162060.84862499946,
      "d": 101.35137499999837,
      "v": 104
    },
    {
      "midi": 72,
      "hit": false,
      "t": 162162.19999999946,
      "d": 810.810999999987,
      "v": 127
    },
    {
      "midi": 65,
      "hit": false,
      "t": 162567.60549999945,
      "d": 405.4054999999935,
      "v": 116
    },
    {
      "midi": 70,
      "hit": false,
      "t": 162770.30824999945,
      "d": 195.9459916666674,
      "v": 125
    },
    {
      "midi": 69,
      "hit": false,
      "t": 162973.01099999945,
      "d": 1418.9192499999772,
      "v": 127
    },
    {
      "midi": 57,
      "hit": false,
      "t": 162973.01099999945,
      "d": 1621.621999999974,
      "v": 93
    },
    {
      "midi": 61,
      "hit": false,
      "t": 163378.41649999944,
      "d": 608.1082499999902,
      "v": 69
    },
    {
      "midi": 64,
      "hit": false,
      "t": 163783.82199999943,
      "d": 1013.5137499999837,
      "v": 109
    },
    {
      "midi": 61,
      "hit": false,
      "t": 164189.22749999943,
      "d": 405.4054999999935,
      "v": 69
    },
    {
      "midi": 69,
      "hit": false,
      "t": 187297.34100000001,
      "d": 810.810999999987,
      "v": 60
    },
    {
      "midi": 69,
      "hit": false,
      "t": 244864.92199999944,
      "d": 810.810999999987,
      "v": 120
    },
    {
      "midi": 77,
      "hit": false,
      "t": 245675.73299999943,
      "d": 608.1082499999902,
      "v": 127
    },
    {
      "midi": 62,
      "hit": false,
      "t": 245675.73299999943,
      "d": 1013.5137499999837,
      "v": 96
    },
    {
      "midi": 65,
      "hit": false,
      "t": 246081.13849999942,
      "d": 1013.5137499999837,
      "v": 95
    },
    {
      "midi": 76,
      "hit": false,
      "t": 246283.84124999942,
      "d": 195.9459916666674,
      "v": 126
    },
    {
      "midi": 69,
      "hit": false,
      "t": 246486.5439999994,
      "d": 810.810999999987,
      "v": 103
    },
    {
      "midi": 74,
      "hit": false,
      "t": 246486.5439999994,
      "d": 810.810999999987,
      "v": 127
    },
    {
      "midi": 65,
      "hit": false,
      "t": 247297.3549999994,
      "d": 405.4054999999935,
      "v": 101
    },
    {
      "midi": 73,
      "hit": false,
      "t": 247297.3549999994,
      "d": 608.1082499999902,
      "v": 125
    },
    {
      "midi": 69,
      "hit": false,
      "t": 247702.7604999994,
      "d": 195.9459916666674,
      "v": 113
    },
    {
      "midi": 74,
      "hit": false,
      "t": 247905.4632499994,
      "d": 195.9459916666674,
      "v": 111
    },
    {
      "midi": 57,
      "hit": false,
      "t": 248108.1659999994,
      "d": 1418.9192499999772,
      "v": 107
    },
    {
      "midi": 76,
      "hit": false,
      "t": 248108.1659999994,
      "d": 2027.0274999999674,
      "v": 120
    },
    {
      "midi": 64,
      "hit": false,
      "t": 248513.57149999938,
      "d": 1824.3247499999707,
      "v": 108
    },
    {
      "midi": 73,
      "hit": false,
      "t": 248716.27424999938,
      "d": 1621.621999999974,
      "v": 110
    },
    {
      "midi": 61,
      "hit": false,
      "t": 248918.97699999937,
      "d": 1013.5137499999837,
      "v": 94
    },
    {
      "midi": 69,
      "hit": false,
      "t": 248918.97699999937,
      "d": 1216.2164999999804,
      "v": 119
    },
    {
      "midi": 55,
      "hit": false,
      "t": 249729.78799999936,
      "d": 608.1082499999902,
      "v": 85
    },
    {
      "midi": 61,
      "hit": false,
      "t": 250135.19349999935,
      "d": 195.9459916666674,
      "v": 104
    },
    {
      "midi": 69,
      "hit": false,
      "t": 250337.89624999935,
      "d": 195.9459916666674,
      "v": 118
    },
    {
      "midi": 77,
      "hit": false,
      "t": 250540.59899999935,
      "d": 608.1082499999902,
      "v": 127
    },
    {
      "midi": 62,
      "hit": false,
      "t": 250540.59899999935,
      "d": 1013.5137499999837,
      "v": 87
    },
    {
      "midi": 69,
      "hit": false,
      "t": 250946.00449999934,
      "d": 1216.2164999999804,
      "v": 101
    },
    {
      "midi": 76,
      "hit": false,
      "t": 251148.70724999934,
      "d": 195.9459916666674,
      "v": 127
    },
    {
      "midi": 65,
      "hit": false,
      "t": 251351.40999999933,
      "d": 608.1082499999902,
      "v": 115
    },
    {
      "midi": 74,
      "hit": false,
      "t": 251351.40999999933,
      "d": 810.810999999987,
      "v": 127
    },
    {
      "midi": 65,
      "hit": false,
      "t": 252162.22099999932,
      "d": 405.4054999999935,
      "v": 107
    },
    {
      "midi": 73,
      "hit": false,
      "t": 252162.22099999932,
      "d": 810.810999999987,
      "v": 127
    },
    {
      "midi": 69,
      "hit": false,
      "t": 252567.6264999993,
      "d": 195.9459916666674,
      "v": 109
    },
    {
      "midi": 74,
      "hit": false,
      "t": 252770.3292499993,
      "d": 195.9459916666674,
      "v": 120
    },
    {
      "midi": 60,
      "hit": false,
      "t": 252973.0319999993,
      "d": 1216.2164999999804,
      "v": 99
    },
    {
      "midi": 76,
      "hit": false,
      "t": 252973.0319999993,
      "d": 1621.621999999974,
      "v": 127
    },
    {
      "midi": 67,
      "hit": false,
      "t": 253783.8429999993,
      "d": 1418.9192499999772,
      "v": 89
    },
    {
      "midi": 64,
      "hit": false,
      "t": 254189.2484999993,
      "d": 608.1082499999902,
      "v": 104
    },
    {
      "midi": 58,
      "hit": false,
      "t": 254594.65399999928,
      "d": 405.4054999999935,
      "v": 109
    },
    {
      "midi": 72,
      "hit": false,
      "t": 254594.65399999928,
      "d": 810.810999999987,
      "v": 127
    },
    {
      "midi": 64,
      "hit": false,
      "t": 255000.05949999928,
      "d": 195.9459916666674,
      "v": 111
    },
    {
      "midi": 81,
      "hit": false,
      "t": 255405.46499999927,
      "d": 810.810999999987,
      "v": 127
    },
    {
      "midi": 65,
      "hit": false,
      "t": 255405.46499999927,
      "d": 1013.5137499999837,
      "v": 111
    },
    {
      "midi": 72,
      "hit": false,
      "t": 255810.87049999926,
      "d": 1013.5137499999837,
      "v": 110
    },
    {
      "midi": 79,
      "hit": false,
      "t": 256013.57324999926,
      "d": 195.9459916666674,
      "v": 126
    },
    {
      "midi": 69,
      "hit": false,
      "t": 256216.27599999926,
      "d": 608.1082499999902,
      "v": 104
    },
    {
      "midi": 77,
      "hit": false,
      "t": 256216.27599999926,
      "d": 810.810999999987,
      "v": 127
    },
    {
      "midi": 69,
      "hit": false,
      "t": 257027.08699999924,
      "d": 608.1082499999902,
      "v": 100
    },
    {
      "midi": 76,
      "hit": false,
      "t": 257027.08699999924,
      "d": 608.1082499999902,
      "v": 127
    },
    {
      "midi": 72,
      "hit": false,
      "t": 257432.49249999924,
      "d": 195.9459916666674,
      "v": 113
    },
    {
      "midi": 77,
      "hit": false,
      "t": 257635.19524999923,
      "d": 195.9459916666674,
      "v": 121
    },
    {
      "midi": 79,
      "hit": false,
      "t": 257837.89799999923,
      "d": 1216.2164999999804,
      "v": 113
    },
    {
      "midi": 60,
      "hit": false,
      "t": 257837.89799999923,
      "d": 1418.9192499999772,
      "v": 79
    },
    {
      "midi": 67,
      "hit": false,
      "t": 258243.30349999922,
      "d": 1418.9192499999772,
      "v": 95
    },
    {
      "midi": 76,
      "hit": false,
      "t": 258446.00624999922,
      "d": 195.9459916666674,
      "v": 117
    },
    {
      "midi": 64,
      "hit": false,
      "t": 258648.70899999922,
      "d": 1216.2164999999804,
      "v": 94
    },
    {
      "midi": 72,
      "hit": false,
      "t": 258648.70899999922,
      "d": 1216.2164999999804,
      "v": 114
    },
    {
      "midi": 60,
      "hit": false,
      "t": 259459.5199999992,
      "d": 405.4054999999935,
      "v": 76
    },
    {
      "midi": 67,
      "hit": false,
      "t": 259864.9254999992,
      "d": 195.9459916666674,
      "v": 102
    },
    {
      "midi": 72,
      "hit": false,
      "t": 260067.6282499992,
      "d": 195.9459916666674,
      "v": 127
    },
    {
      "midi": 70,
      "hit": false,
      "t": 260270.3309999992,
      "d": 810.810999999987,
      "v": 127
    },
    {
      "midi": 58,
      "hit": false,
      "t": 260270.3309999992,
      "d": 1013.5137499999837,
      "v": 119
    },
    {
      "midi": 62,
      "hit": false,
      "t": 260675.73649999918,
      "d": 1824.3247499999707,
      "v": 96
    },
    {
      "midi": 72,
      "hit": false,
      "t": 260878.43924999918,
      "d": 195.9459916666674,
      "v": 119
    },
    {
      "midi": 74,
      "hit": false,
      "t": 261081.14199999918,
      "d": 608.1082499999902,
      "v": 127
    },
    {
      "midi": 65,
      "hit": false,
      "t": 261081.14199999918,
      "d": 810.810999999987,
      "v": 115
    },
    {
      "midi": 58,
      "hit": false,
      "t": 261486.54749999917,
      "d": 1013.5137499999837,
      "v": 109
    },
    {
      "midi": 76,
      "hit": false,
      "t": 261689.25024999917,
      "d": 195.9459916666674,
      "v": 112
    },
    {
      "midi": 74,
      "hit": false,
      "t": 261790.60162499917,
      "d": 101.35137499999837,
      "v": 104
    },
    {
      "midi": 72,
      "hit": false,
      "t": 261891.95299999916,
      "d": 810.810999999987,
      "v": 127
    },
    {
      "midi": 65,
      "hit": false,
      "t": 262297.35849999916,
      "d": 405.4054999999935,
      "v": 116
    },
    {
      "midi": 70,
      "hit": false,
      "t": 262500.06124999915,
      "d": 195.9459916666383,
      "v": 125
    },
    {
      "midi": 69,
      "hit": false,
      "t": 262702.76399999915,
      "d": 1418.9192499999772,
      "v": 127
    },
    {
      "midi": 57,
      "hit": false,
      "t": 262702.76399999915,
      "d": 1621.621999999974,
      "v": 93
    },
    {
      "midi": 61,
      "hit": false,
      "t": 263108.16949999915,
      "d": 608.1082499999902,
      "v": 69
    },
    {
      "midi": 61,
      "hit": false,
      "t": 263918.98049999913,
      "d": 405.4054999999935,
      "v": 69
    },
    {
      "midi": 69,
      "hit": false,
      "t": 264729.7914999991,
      "d": 405.4054999999935,
      "v": 102
    },
    {
      "midi": 70,
      "hit": false,
      "t": 265135.1969999991,
      "d": 810.810999999987,
      "v": 127
    },
    {
      "midi": 58,
      "hit": false,
      "t": 265135.1969999991,
      "d": 1013.5137499999837,
      "v": 119
    },
    {
      "midi": 62,
      "hit": false,
      "t": 265540.6024999991,
      "d": 1824.3247500000289,
      "v": 96
    },
    {
      "midi": 72,
      "hit": false,
      "t": 265743.3052499991,
      "d": 195.9459916666383,
      "v": 119
    },
    {
      "midi": 74,
      "hit": false,
      "t": 265946.0079999991,
      "d": 608.1082499999902,
      "v": 127
    },
    {
      "midi": 65,
      "hit": false,
      "t": 265946.0079999991,
      "d": 810.8110000000452,
      "v": 115
    },
    {
      "midi": 58,
      "hit": false,
      "t": 266351.4134999991,
      "d": 1013.5137500000419,
      "v": 109
    },
    {
      "midi": 76,
      "hit": false,
      "t": 266554.1162499991,
      "d": 195.9459916666965,
      "v": 112
    },
    {
      "midi": 74,
      "hit": false,
      "t": 266655.4676249991,
      "d": 101.35137500002747,
      "v": 104
    },
    {
      "midi": 72,
      "hit": false,
      "t": 266756.81899999914,
      "d": 810.810999999987,
      "v": 127
    },
    {
      "midi": 65,
      "hit": false,
      "t": 267162.22449999914,
      "d": 405.4054999999935,
      "v": 116
    },
    {
      "midi": 70,
      "hit": false,
      "t": 267364.92724999913,
      "d": 195.9459916666383,
      "v": 125
    },
    {
      "midi": 69,
      "hit": false,
      "t": 267567.62999999913,
      "d": 1418.9192499999772,
      "v": 127
    },
    {
      "midi": 57,
      "hit": false,
      "t": 267567.62999999913,
      "d": 1621.621999999974,
      "v": 93
    },
    {
      "midi": 61,
      "hit": false,
      "t": 267973.0354999991,
      "d": 608.1082499999902,
      "v": 69
    },
    {
      "midi": 61,
      "hit": false,
      "t": 268783.8464999991,
      "d": 405.4054999999935,
      "v": 69
    },
    {
      "midi": 69,
      "hit": false,
      "t": 269594.6574999991,
      "d": 405.4054999999935,
      "v": 102
    },
    {
      "midi": 70,
      "hit": false,
      "t": 270000.0629999991,
      "d": 810.810999999987,
      "v": 127
    },
    {
      "midi": 58,
      "hit": false,
      "t": 270000.0629999991,
      "d": 1013.5137499999837,
      "v": 119
    },
    {
      "midi": 62,
      "hit": false,
      "t": 270405.4684999991,
      "d": 1824.3247500000289,
      "v": 96
    },
    {
      "midi": 72,
      "hit": false,
      "t": 270608.1712499991,
      "d": 195.9459916666383,
      "v": 119
    },
    {
      "midi": 74,
      "hit": false,
      "t": 270810.8739999991,
      "d": 608.1082499999902,
      "v": 127
    },
    {
      "midi": 65,
      "hit": false,
      "t": 270810.8739999991,
      "d": 810.8110000000452,
      "v": 115
    },
    {
      "midi": 58,
      "hit": false,
      "t": 271216.2794999991,
      "d": 1013.5137500000419,
      "v": 109
    },
    {
      "midi": 76,
      "hit": false,
      "t": 271418.98224999907,
      "d": 195.9459916666965,
      "v": 112
    },
    {
      "midi": 74,
      "hit": false,
      "t": 271520.3336249991,
      "d": 101.35137500002747,
      "v": 104
    },
    {
      "midi": 72,
      "hit": false,
      "t": 271621.6849999991,
      "d": 810.810999999987,
      "v": 127
    },
    {
      "midi": 65,
      "hit": false,
      "t": 272027.0904999991,
      "d": 405.4054999999935,
      "v": 116
    },
    {
      "midi": 70,
      "hit": false,
      "t": 272229.7932499991,
      "d": 195.9459916666383,
      "v": 125
    },
    {
      "midi": 69,
      "hit": false,
      "t": 272432.4959999991,
      "d": 1418.9192499999772,
      "v": 127
    },
    {
      "midi": 57,
      "hit": false,
      "t": 272432.4959999991,
      "d": 1621.621999999974,
      "v": 93
    },
    {
      "midi": 61,
      "hit": false,
      "t": 272837.9014999991,
      "d": 608.1082499999902,
      "v": 69
    },
    {
      "midi": 61,
      "hit": false,
      "t": 273648.7124999991,
      "d": 405.4054999999935,
      "v": 69
    },
    {
      "midi": 74,
      "hit": false,
      "t": 274864.9289999991,
      "d": 3243.244000000006,
      "v": 127
    },
    {
      "midi": 78,
      "hit": false,
      "t": 274864.9289999991,
      "d": 3243.244000000006,
      "v": 127
    },
    {
      "midi": 81,
      "hit": false,
      "t": 277297.3619999991,
      "d": 3243.243999999948,
      "v": 127
    },
    {
      "midi": 86,
      "hit": false,
      "t": 279729.79499999905,
      "d": 3243.243999999948,
      "v": 127
    },
    {
      "midi": 50,
      "hit": false,
      "t": 284594.660999999,
      "d": 810.810999999987,
      "v": 127
    },
    {
      "midi": 76,
      "hit": false,
      "t": 284594.661,
      "d": 1621.621999999974,
      "v": 80
    }
  ]
}