{
  "jsonPath": "Rock/Dance Rock/Marc Almond/somethings-gotten-hold-of-my-heart.json",
  "path": "Rock\\Dance Rock\\Marc Almond\\Somethings Gotten Hold Of My Heart.mid",
  "name": "Somethings Gotten Hold Of My Heart",
  "difficulty": "Advanced",
  "bpm": 98.00094407576127,
  "notes": [
    {
      "midi": 47,
      "hit": false,
      "t": 4907.478234374999,
      "d": 420.91431250000005,
      "v": 90
    },
    {
      "midi": 75,
      "hit": false,
      "t": 4910.666979166666,
      "d": 417.7255677083331,
      "v": 90
    },
    {
      "midi": 59,
      "hit": false,
      "t": 4910.666979166666,
      "d": 1626.25984375,
      "v": 81
    },
    {
      "midi": 71,
      "hit": false,
      "t": 4913.855723958333,
      "d": 398.59309895833303,
      "v": 99
    },
    {
      "midi": 66,
      "hit": false,
      "t": 4913.855723958333,
      "d": 408.15933333333305,
      "v": 90
    },
    {
      "midi": 47,
      "hit": false,
      "t": 5516.528489583333,
      "d": 679.2026406249997,
      "v": 69
    },
    {
      "midi": 66,
      "hit": false,
      "t": 5822.647989583333,
      "d": 92.47359895833324,
      "v": 73
    },
    {
      "midi": 71,
      "hit": false,
      "t": 5825.836734375,
      "d": 70.15238541666622,
      "v": 77
    },
    {
      "midi": 75,
      "hit": false,
      "t": 5825.836734375,
      "d": 76.52987499999927,
      "v": 73
    },
    {
      "midi": 66,
      "hit": false,
      "t": 6131.956234374999,
      "d": 169.00347395833342,
      "v": 81
    },
    {
      "midi": 71,
      "hit": false,
      "t": 6131.956234374999,
      "d": 178.56970833333344,
      "v": 90
    },
    {
      "midi": 75,
      "hit": false,
      "t": 6131.956234374999,
      "d": 197.70217708333348,
      "v": 81
    },
    {
      "midi": 47,
      "hit": false,
      "t": 6434.886989583333,
      "d": 475.1229739583332,
      "v": 81
    },
    {
      "midi": 71,
      "hit": false,
      "t": 6741.006489583333,
      "d": 360.32816145833294,
      "v": 77
    },
    {
      "midi": 75,
      "hit": false,
      "t": 7047.125989583333,
      "d": 114.79481250000026,
      "v": 90
    },
    {
      "midi": 71,
      "hit": false,
      "t": 7356.4342343749995,
      "d": 382.6493750000009,
      "v": 81
    },
    {
      "midi": 75,
      "hit": false,
      "t": 7356.4342343749995,
      "d": 522.9541458333342,
      "v": 90
    },
    {
      "midi": 78,
      "hit": false,
      "t": 7356.4342343749995,
      "d": 554.8415937500013,
      "v": 81
    },
    {
      "midi": 47,
      "hit": false,
      "t": 7359.6229791666665,
      "d": 1859.0382135416658,
      "v": 73
    },
    {
      "midi": 59,
      "hit": false,
      "t": 7359.6229791666665,
      "d": 1897.3031510416658,
      "v": 69
    },
    {
      "midi": 75,
      "hit": false,
      "t": 8274.792734375002,
      "d": 86.09610937499929,
      "v": 77
    },
    {
      "midi": 78,
      "hit": false,
      "t": 8274.792734375002,
      "d": 114.79481249999844,
      "v": 73
    },
    {
      "midi": 83,
      "hit": false,
      "t": 8274.792734375002,
      "d": 121.1723020833324,
      "v": 81
    },
    {
      "midi": 75,
      "hit": false,
      "t": 8580.912234375,
      "d": 86.09610937499929,
      "v": 73
    },
    {
      "midi": 83,
      "hit": false,
      "t": 8580.912234375,
      "d": 98.85108854166538,
      "v": 73
    },
    {
      "midi": 78,
      "hit": false,
      "t": 8580.912234375,
      "d": 114.79481249999844,
      "v": 73
    },
    {
      "midi": 75,
      "hit": false,
      "t": 9189.962489583333,
      "d": 60.58615104166529,
      "v": 77
    },
    {
      "midi": 71,
      "hit": false,
      "t": 9189.962489583333,
      "d": 76.52987499999836,
      "v": 77
    },
    {
      "midi": 78,
      "hit": false,
      "t": 9189.962489583333,
      "d": 76.52987499999836,
      "v": 77
    },
    {
      "midi": 70,
      "hit": false,
      "t": 9805.390234374998,
      "d": 462.3679947916662,
      "v": 90
    },
    {
      "midi": 73,
      "hit": false,
      "t": 9805.390234374998,
      "d": 640.9377031249987,
      "v": 90
    },
    {
      "midi": 78,
      "hit": false,
      "t": 9805.390234374998,
      "d": 934.3022239583297,
      "v": 81
    },
    {
      "midi": 54,
      "hit": false,
      "t": 9805.390234374998,
      "d": 4467.431453124997,
      "v": 77
    },
    {
      "midi": 42,
      "hit": false,
      "t": 9808.578979166665,
      "d": 921.5472447916636,
      "v": 77
    },
    {
      "midi": 70,
      "hit": false,
      "t": 10414.44048958333,
      "d": 357.13941666666324,
      "v": 77
    },
    {
      "midi": 73,
      "hit": false,
      "t": 10720.55998958333,
      "d": 130.7385364583315,
      "v": 81
    },
    {
      "midi": 42,
      "hit": false,
      "t": 11026.679489583328,
      "d": 1151.136869791666,
      "v": 90
    },
    {
      "midi": 70,
      "hit": false,
      "t": 11335.987734374994,
      "d": 98.8510885416672,
      "v": 81
    },
    {
      "midi": 73,
      "hit": false,
      "t": 11339.176479166661,
      "d": 60.58615104166711,
      "v": 77
    },
    {
      "midi": 78,
      "hit": false,
      "t": 11339.176479166661,
      "d": 105.22857812499933,
      "v": 73
    },
    {
      "midi": 73,
      "hit": false,
      "t": 11645.29597916666,
      "d": 60.58615104166711,
      "v": 77
    },
    {
      "midi": 68,
      "hit": false,
      "t": 11645.29597916666,
      "d": 70.15238541666622,
      "v": 73
    },
    {
      "midi": 77,
      "hit": false,
      "t": 11648.484723958327,
      "d": 31.887447916666133,
      "v": 73
    },
    {
      "midi": 66,
      "hit": false,
      "t": 11948.226734374994,
      "d": 1096.9282083333346,
      "v": 81
    },
    {
      "midi": 71,
      "hit": false,
      "t": 11948.226734374994,
      "d": 1106.4944427083337,
      "v": 81
    },
    {
      "midi": 75,
      "hit": false,
      "t": 11951.41547916666,
      "d": 1087.3619739583337,
      "v": 77
    },
    {
      "midi": 71,
      "hit": false,
      "t": 13169.515989583328,
      "d": 181.7584531249995,
      "v": 81
    },
    {
      "midi": 66,
      "hit": false,
      "t": 13169.515989583328,
      "d": 191.32468749999862,
      "v": 73
    },
    {
      "midi": 75,
      "hit": false,
      "t": 13172.704734374995,
      "d": 159.43723958333248,
      "v": 77
    },
    {
      "midi": 66,
      "hit": false,
      "t": 13482.01297916666,
      "d": 140.30477083333244,
      "v": 65
    },
    {
      "midi": 71,
      "hit": false,
      "t": 13482.01297916666,
      "d": 184.94719791666648,
      "v": 77
    },
    {
      "midi": 75,
      "hit": false,
      "t": 13485.201723958327,
      "d": 127.54979166666635,
      "v": 69
    },
    {
      "midi": 68,
      "hit": false,
      "t": 13784.943734374994,
      "d": 133.9272812500003,
      "v": 57
    },
    {
      "midi": 73,
      "hit": false,
      "t": 13784.943734374994,
      "d": 165.81472916666644,
      "v": 73
    },
    {
      "midi": 77,
      "hit": false,
      "t": 13788.132479166661,
      "d": 111.60606770833328,
      "v": 65
    },
    {
      "midi": 66,
      "hit": false,
      "t": 14094.25197916666,
      "d": 108.41732291666631,
      "v": 69
    },
    {
      "midi": 71,
      "hit": false,
      "t": 14094.25197916666,
      "d": 130.73853645833333,
      "v": 77
    },
    {
      "midi": 75,
      "hit": false,
      "t": 14097.440723958327,
      "d": 133.9272812500003,
      "v": 77
    },
    {
      "midi": 73,
      "hit": false,
      "t": 14706.490979166661,
      "d": 589.9177864583326,
      "v": 81
    },
    {
      "midi": 68,
      "hit": false,
      "t": 14706.490979166661,
      "d": 593.1065312499995,
      "v": 81
    },
    {
      "midi": 61,
      "hit": false,
      "t": 14706.490979166661,
      "d": 2005.7204739583285,
      "v": 81
    },
    {
      "midi": 65,
      "hit": false,
      "t": 14709.679723958328,
      "d": 363.516906249999,
      "v": 90
    },
    {
      "midi": 49,
      "hit": false,
      "t": 14709.679723958328,
      "d": 1906.8693854166631,
      "v": 77
    },
    {
      "midi": 65,
      "hit": false,
      "t": 15312.352489583327,
      "d": 296.55326562499977,
      "v": 73
    },
    {
      "midi": 68,
      "hit": false,
      "t": 15618.471989583326,
      "d": 312.49698958333283,
      "v": 73
    },
    {
      "midi": 73,
      "hit": false,
      "t": 15927.780234374992,
      "d": 102.03983333333417,
      "v": 65
    },
    {
      "midi": 77,
      "hit": false,
      "t": 16230.710989583325,
      "d": 679.2026406249988,
      "v": 77
    },
    {
      "midi": 80,
      "hit": false,
      "t": 16536.830489583324,
      "d": 357.13941666666506,
      "v": 77
    },
    {
      "midi": 85,
      "hit": false,
      "t": 16842.94998958332,
      "d": 92.47359895833506,
      "v": 69
    },
    {
      "midi": 49,
      "hit": false,
      "t": 16992.820994791655,
      "d": 1371.1602604166692,
      "v": 65
    },
    {
      "midi": 80,
      "hit": false,
      "t": 16996.00973958332,
      "d": 1294.630385416669,
      "v": 65
    },
    {
      "midi": 77,
      "hit": false,
      "t": 16996.00973958332,
      "d": 1339.272812500003,
      "v": 69
    },
    {
      "midi": 89,
      "hit": false,
      "t": 17155.446979166656,
      "d": 1176.6468281250018,
      "v": 90
    },
    {
      "midi": 85,
      "hit": false,
      "t": 17158.635723958323,
      "d": 1240.421723958334,
      "v": 69
    },
    {
      "midi": 61,
      "hit": false,
      "t": 17161.82446874999,
      "d": 1278.6866614583341,
      "v": 57
    },
    {
      "midi": 66,
      "hit": false,
      "t": 19604.402979166658,
      "d": 465.556739583335,
      "v": 65
    },
    {
      "midi": 69,
      "hit": false,
      "t": 19607.591723958325,
      "d": 462.367994791668,
      "v": 73
    },
    {
      "midi": 54,
      "hit": false,
      "t": 19607.591723958325,
      "d": 1763.3758697916674,
      "v": 65
    },
    {
      "midi": 42,
      "hit": false,
      "t": 19607.591723958325,
      "d": 2133.2702656250076,
      "v": 73
    },
    {
      "midi": 73,
      "hit": false,
      "t": 19610.780468749992,
      "d": 452.8017604166671,
      "v": 69
    },
    {
      "midi": 66,
      "hit": false,
      "t": 20516.383989583326,
      "d": 73.3411302083332,
      "v": 49
    },
    {
      "midi": 73,
      "hit": false,
      "t": 20516.383989583326,
      "d": 76.52987500000017,
      "v": 73
    },
    {
      "midi": 69,
      "hit": false,
      "t": 20516.383989583326,
      "d": 82.90736458333413,
      "v": 77
    },
    {
      "midi": 66,
      "hit": false,
      "t": 20822.503489583327,
      "d": 149.87100520833337,
      "v": 53
    },
    {
      "midi": 69,
      "hit": false,
      "t": 20822.503489583327,
      "d": 599.4840208333335,
      "v": 77
    },
    {
      "midi": 73,
      "hit": false,
      "t": 20822.503489583327,
      "d": 628.1827239583363,
      "v": 73
    },
    {
      "midi": 66,
      "hit": false,
      "t": 21434.74248958333,
      "d": 102.03983333333599,
      "v": 53
    },
    {
      "midi": 54,
      "hit": false,
      "t": 21740.861989583333,
      "d": 102.03983333333235,
      "v": 53
    },
    {
      "midi": 64,
      "hit": false,
      "t": 22053.358979166664,
      "d": 1396.6702187500014,
      "v": 73
    },
    {
      "midi": 68,
      "hit": false,
      "t": 22053.358979166664,
      "d": 1849.471979166672,
      "v": 73
    },
    {
      "midi": 52,
      "hit": false,
      "t": 22056.54772395833,
      "d": 1718.733442708337,
      "v": 69
    },
    {
      "midi": 40,
      "hit": false,
      "t": 22059.736468749998,
      "d": 746.1662812499999,
      "v": 73
    },
    {
      "midi": 71,
      "hit": false,
      "t": 22059.736468749998,
      "d": 1623.071098958335,
      "v": 77
    },
    {
      "midi": 40,
      "hit": false,
      "t": 22965.33998958333,
      "d": 121.17230208333422,
      "v": 49
    },
    {
      "midi": 40,
      "hit": false,
      "t": 23271.459489583332,
      "d": 656.8814270833354,
      "v": 77
    },
    {
      "midi": 64,
      "hit": false,
      "t": 23577.578989583333,
      "d": 360.32816145833567,
      "v": 69
    },
    {
      "midi": 71,
      "hit": false,
      "t": 23886.887234375,
      "d": 108.41732291666631,
      "v": 73
    },
    {
      "midi": 66,
      "hit": false,
      "t": 24499.126234375,
      "d": 417.725567708334,
      "v": 57
    },
    {
      "midi": 69,
      "hit": false,
      "t": 24499.126234375,
      "d": 621.8052343750023,
      "v": 73
    },
    {
      "midi": 73,
      "hit": false,
      "t": 24499.126234375,
      "d": 628.1827239583363,
      "v": 69
    },
    {
      "midi": 42,
      "hit": false,
      "t": 24499.126234375,
      "d": 918.3585000000057,
      "v": 61
    },
    {
      "midi": 54,
      "hit": false,
      "t": 24502.314979166666,
      "d": 602.6727656250005,
      "v": 65
    },
    {
      "midi": 66,
      "hit": false,
      "t": 25108.176489583333,
      "d": 108.41732291666995,
      "v": 65
    },
    {
      "midi": 54,
      "hit": false,
      "t": 25414.295989583337,
      "d": 117.98355729166724,
      "v": 61
    },
    {
      "midi": 65,
      "hit": false,
      "t": 25726.792979166672,
      "d": 133.92728125000212,
      "v": 69
    },
    {
      "midi": 49,
      "hit": false,
      "t": 25726.792979166672,
      "d": 691.9576197916685,
      "v": 73
    },
    {
      "midi": 68,
      "hit": false,
      "t": 25729.98172395834,
      "d": 302.93075520833736,
      "v": 73
    },
    {
      "midi": 73,
      "hit": false,
      "t": 25729.98172395834,
      "d": 360.32816145833567,
      "v": 73
    },
    {
      "midi": 65,
      "hit": false,
      "t": 26029.72373437501,
      "d": 334.8182031249962,
      "v": 65
    },
    {
      "midi": 61,
      "hit": false,
      "t": 26335.843234375006,
      "d": 73.3411302083332,
      "v": 65
    },
    {
      "midi": 68,
      "hit": false,
      "t": 26335.843234375006,
      "d": 95.66234375000204,
      "v": 65
    },
    {
      "midi": 66,
      "hit": false,
      "t": 26641.962734375007,
      "d": 806.7524322916688,
      "v": 69
    },
    {
      "midi": 69,
      "hit": false,
      "t": 26641.962734375007,
      "d": 937.4909687500003,
      "v": 77
    },
    {
      "midi": 73,
      "hit": false,
      "t": 26645.151479166674,
      "d": 953.4346927083316,
      "v": 77
    },
    {
      "midi": 42,
      "hit": false,
      "t": 26948.082234375008,
      "d": 2031.2304322916643,
      "v": 77
    },
    {
      "midi": 54,
      "hit": false,
      "t": 27557.132489583342,
      "d": 1438.1239010416648,
      "v": 61
    },
    {
      "midi": 66,
      "hit": false,
      "t": 27560.32123437501,
      "d": 612.2389999999978,
      "v": 49
    },
    {
      "midi": 69,
      "hit": false,
      "t": 27863.25198958334,
      "d": 612.2390000000014,
      "v": 65
    },
    {
      "midi": 73,
      "hit": false,
      "t": 28169.37148958334,
      "d": 366.705651041666,
      "v": 73
    },
    {
      "midi": 66,
      "hit": false,
      "t": 28475.49098958334,
      "d": 682.3913854166676,
      "v": 69
    },
    {
      "midi": 69,
      "hit": false,
      "t": 28781.610489583338,
      "d": 376.27188541667056,
      "v": 81
    },
    {
      "midi": 73,
      "hit": false,
      "t": 29087.729989583342,
      "d": 111.60606770833328,
      "v": 61
    },
    {
      "midi": 66,
      "hit": false,
      "t": 29237.600994791675,
      "d": 545.2753593750022,
      "v": 57
    },
    {
      "midi": 42,
      "hit": false,
      "t": 29240.789739583342,
      "d": 1422.1801770833335,
      "v": 65
    },
    {
      "midi": 78,
      "hit": false,
      "t": 29400.226979166677,
      "d": 583.5402968750022,
      "v": 73
    },
    {
      "midi": 73,
      "hit": false,
      "t": 29406.60446875001,
      "d": 631.3714687499996,
      "v": 77
    },
    {
      "midi": 54,
      "hit": false,
      "t": 29406.60446875001,
      "d": 2085.4390937499993,
      "v": 57
    },
    {
      "midi": 69,
      "hit": false,
      "t": 29409.793213541678,
      "d": 663.2589166666658,
      "v": 69
    },
    {
      "midi": 66,
      "hit": false,
      "t": 30006.088489583344,
      "d": 95.6623437499984,
      "v": 65
    },
    {
      "midi": 69,
      "hit": false,
      "t": 30312.20798958334,
      "d": 89.28485416666808,
      "v": 77
    },
    {
      "midi": 66,
      "hit": false,
      "t": 30312.20798958334,
      "d": 92.47359895833506,
      "v": 57
    },
    {
      "midi": 73,
      "hit": false,
      "t": 30315.39673437501,
      "d": 86.0961093750011,
      "v": 73
    },
    {
      "midi": 66,
      "hit": false,
      "t": 30621.51623437501,
      "d": 232.7783697916675,
      "v": 65
    },
    {
      "midi": 73,
      "hit": false,
      "t": 30621.51623437501,
      "d": 596.2952760416665,
      "v": 77
    },
    {
      "midi": 69,
      "hit": false,
      "t": 30621.51623437501,
      "d": 940.6797135416673,
      "v": 77
    },
    {
      "midi": 42,
      "hit": false,
      "t": 30927.63573437501,
      "d": 522.9541458333333,
      "v": 81
    },
    {
      "midi": 66,
      "hit": false,
      "t": 31233.75523437501,
      "d": 344.3844375000008,
      "v": 69
    },
    {
      "midi": 73,
      "hit": false,
      "t": 31539.87473437501,
      "d": 223.21213541666657,
      "v": 69
    },
    {
      "midi": 40,
      "hit": false,
      "t": 31845.99423437501,
      "d": 443.2355260416698,
      "v": 73
    },
    {
      "midi": 68,
      "hit": false,
      "t": 31845.99423437501,
      "d": 551.6528489583361,
      "v": 77
    },
    {
      "midi": 71,
      "hit": false,
      "t": 31845.99423437501,
      "d": 561.219083333337,
      "v": 77
    },
    {
      "midi": 52,
      "hit": false,
      "t": 31845.99423437501,
      "d": 1980.2105156250072,
      "v": 61
    },
    {
      "midi": 64,
      "hit": false,
      "t": 31849.18297916668,
      "d": 385.83811979166785,
      "v": 73
    },
    {
      "midi": 40,
      "hit": false,
      "t": 32761.16398958335,
      "d": 108.41732291666995,
      "v": 77
    },
    {
      "midi": 64,
      "hit": false,
      "t": 33070.47223437502,
      "d": 580.3515520833316,
      "v": 69
    },
    {
      "midi": 68,
      "hit": false,
      "t": 33070.47223437502,
      "d": 621.805234374995,
      "v": 69
    },
    {
      "midi": 71,
      "hit": false,
      "t": 33070.47223437502,
      "d": 628.182723958329,
      "v": 69
    },
    {
      "midi": 40,
      "hit": false,
      "t": 33070.47223437502,
      "d": 720.6563229166641,
      "v": 73
    },
    {
      "midi": 73,
      "hit": false,
      "t": 34298.13897916669,
      "d": 586.7290416666656,
      "v": 69
    },
    {
      "midi": 54,
      "hit": false,
      "t": 34298.13897916669,
      "d": 963.0009270833398,
      "v": 69
    },
    {
      "midi": 66,
      "hit": false,
      "t": 34301.327723958355,
      "d": 344.38443749999715,
      "v": 57
    },
    {
      "midi": 42,
      "hit": false,
      "t": 34301.327723958355,
      "d": 624.9939791666693,
      "v": 65
    },
    {
      "midi": 69,
      "hit": false,
      "t": 34304.51646875002,
      "d": 644.1264479166712,
      "v": 73
    },
    {
      "midi": 66,
      "hit": false,
      "t": 34907.18923437502,
      "d": 127.54979166667181,
      "v": 53
    },
    {
      "midi": 42,
      "hit": false,
      "t": 35213.30873437503,
      "d": 111.60606770832965,
      "v": 65
    },
    {
      "midi": 65,
      "hit": false,
      "t": 35522.6169791667,
      "d": 420.9143124999973,
      "v": 57
    },
    {
      "midi": 68,
      "hit": false,
      "t": 35522.6169791667,
      "d": 663.2589166666585,
      "v": 65
    },
    {
      "midi": 49,
      "hit": false,
      "t": 35522.6169791667,
      "d": 918.3584999999948,
      "v": 69
    },
    {
      "midi": 73,
      "hit": false,
      "t": 35525.805723958365,
      "d": 711.0900885416559,
      "v": 69
    },
    {
      "midi": 37,
      "hit": false,
      "t": 35525.805723958365,
      "d": 803.5636874999909,
      "v": 65
    },
    {
      "midi": 65,
      "hit": false,
      "t": 36131.667234375025,
      "d": 114.79481249999662,
      "v": 53
    },
    {
      "midi": 73,
      "hit": false,
      "t": 36743.90623437503,
      "d": 573.9740624999977,
      "v": 65
    },
    {
      "midi": 42,
      "hit": false,
      "t": 36743.90623437503,
      "d": 672.8251510416667,
      "v": 65
    },
    {
      "midi": 69,
      "hit": false,
      "t": 36743.90623437503,
      "d": 924.735989583336,
      "v": 73
    },
    {
      "midi": 54,
      "hit": false,
      "t": 36743.90623437503,
      "d": 959.8121822916728,
      "v": 48
    },
    {
      "midi": 66,
      "hit": false,
      "t": 36747.09497916669,
      "d": 347.5731822916641,
      "v": 61
    },
    {
      "midi": 66,
      "hit": false,
      "t": 37352.95648958336,
      "d": 194.51343229166378,
      "v": 65
    },
    {
      "midi": 42,
      "hit": false,
      "t": 37659.07598958336,
      "d": 86.0961093750011,
      "v": 65
    },
    {
      "midi": 73,
      "hit": false,
      "t": 37659.07598958336,
      "d": 153.05975000000035,
      "v": 65
    },
    {
      "midi": 64,
      "hit": false,
      "t": 37971.572979166696,
      "d": 175.3809635416692,
      "v": 73
    },
    {
      "midi": 68,
      "hit": false,
      "t": 37971.572979166696,
      "d": 376.2718854166669,
      "v": 73
    },
    {
      "midi": 71,
      "hit": false,
      "t": 37974.76172395836,
      "d": 640.9377031250042,
      "v": 73
    },
    {
      "midi": 40,
      "hit": false,
      "t": 37974.76172395836,
      "d": 806.7524322916724,
      "v": 69
    },
    {
      "midi": 52,
      "hit": false,
      "t": 37974.76172395836,
      "d": 876.9048177083387,
      "v": 65
    },
    {
      "midi": 64,
      "hit": false,
      "t": 38274.50373437503,
      "d": 373.0831406250072,
      "v": 69
    },
    {
      "midi": 68,
      "hit": false,
      "t": 38580.62323437503,
      "d": 283.79828645833913,
      "v": 65
    },
    {
      "midi": 73,
      "hit": false,
      "t": 38883.55398958337,
      "d": 911.9810104166681,
      "v": 73
    },
    {
      "midi": 69,
      "hit": false,
      "t": 39196.05097916671,
      "d": 644.1264479166639,
      "v": 73
    },
    {
      "midi": 42,
      "hit": false,
      "t": 39196.05097916671,
      "d": 972.5671614583262,
      "v": 73
    },
    {
      "midi": 66,
      "hit": false,
      "t": 39199.23972395837,
      "d": 322.0632239583356,
      "v": 53
    },
    {
      "midi": 66,
      "hit": false,
      "t": 39801.912489583374,
      "d": 108.41732291666267,
      "v": 73
    },
    {
      "midi": 54,
      "hit": false,
      "t": 40108.03198958337,
      "d": 76.52987500000017,
      "v": 81
    },
    {
      "midi": 65,
      "hit": false,
      "t": 40420.5289791667,
      "d": 140.30477083333244,
      "v": 69
    },
    {
      "midi": 68,
      "hit": false,
      "t": 40423.71772395837,
      "d": 334.8182031250035,
      "v": 73
    },
    {
      "midi": 73,
      "hit": false,
      "t": 40423.71772395837,
      "d": 554.8415937500031,
      "v": 73
    },
    {
      "midi": 49,
      "hit": false,
      "t": 40423.71772395837,
      "d": 886.4710520833323,
      "v": 69
    },
    {
      "midi": 37,
      "hit": false,
      "t": 40426.906468750036,
      "d": 825.884901041667,
      "v": 73
    },
    {
      "midi": 65,
      "hit": false,
      "t": 40723.459734375036,
      "d": 350.7619270833311,
      "v": 77
    },
    {
      "midi": 68,
      "hit": false,
      "t": 41029.579234375036,
      "d": 117.9835572916636,
      "v": 65
    },
    {
      "midi": 66,
      "hit": false,
      "t": 41338.887479166704,
      "d": 542.0866145833352,
      "v": 65
    },
    {
      "midi": 69,
      "hit": false,
      "t": 41338.887479166704,
      "d": 924.735989583336,
      "v": 73
    },
    {
      "midi": 73,
      "hit": false,
      "t": 41338.887479166704,
      "d": 1010.8320989583372,
      "v": 77
    },
    {
      "midi": 42,
      "hit": false,
      "t": 41641.81823437504,
      "d": 924.735989583336,
      "v": 81
    },
    {
      "midi": 66,
      "hit": false,
      "t": 42254.05723437504,
      "d": 111.60606770833692,
      "v": 73
    },
    {
      "midi": 54,
      "hit": false,
      "t": 42560.17673437504,
      "d": 76.52987500000017,
      "v": 73
    },
    {
      "midi": 64,
      "hit": false,
      "t": 42869.48497916671,
      "d": 159.4372395833343,
      "v": 77
    },
    {
      "midi": 68,
      "hit": false,
      "t": 42869.48497916671,
      "d": 637.7489583333299,
      "v": 73
    },
    {
      "midi": 71,
      "hit": false,
      "t": 42872.673723958374,
      "d": 338.0069479166632,
      "v": 81
    },
    {
      "midi": 52,
      "hit": false,
      "t": 42872.673723958374,
      "d": 835.4511354166607,
      "v": 69
    },
    {
      "midi": 40,
      "hit": false,
      "t": 42875.86246875004,
      "d": 765.2987499999945,
      "v": 77
    },
    {
      "midi": 64,
      "hit": false,
      "t": 43169.226989583374,
      "d": 353.9506718749981,
      "v": 73
    },
    {
      "midi": 71,
      "hit": false,
      "t": 43478.535234375035,
      "d": 213.64590104166564,
      "v": 77
    },
    {
      "midi": 69,
      "hit": false,
      "t": 43781.46598958337,
      "d": 924.735989583336,
      "v": 81
    },
    {
      "midi": 66,
      "hit": false,
      "t": 43784.654734375035,
      "d": 589.9177864583326,
      "v": 77
    },
    {
      "midi": 73,
      "hit": false,
      "t": 43784.654734375035,
      "d": 905.6035208333342,
      "v": 73
    },
    {
      "midi": 42,
      "hit": false,
      "t": 44093.9629791667,
      "d": 1023.5870781249978,
      "v": 90
    },
    {
      "midi": 66,
      "hit": false,
      "t": 44699.82448958337,
      "d": 98.85108854166901,
      "v": 73
    },
    {
      "midi": 54,
      "hit": false,
      "t": 45009.13273437504,
      "d": 63.774895833332266,
      "v": 77
    },
    {
      "midi": 65,
      "hit": false,
      "t": 45318.4409791667,
      "d": 146.6822604166664,
      "v": 69
    },
    {
      "midi": 68,
      "hit": false,
      "t": 45318.4409791667,
      "d": 350.7619270833311,
      "v": 73
    },
    {
      "midi": 73,
      "hit": false,
      "t": 45321.629723958366,
      "d": 618.6164895833354,
      "v": 77
    },
    {
      "midi": 49,
      "hit": false,
      "t": 45321.629723958366,
      "d": 714.2788333333301,
      "v": 77
    },
    {
      "midi": 37,
      "hit": false,
      "t": 45321.629723958366,
      "d": 924.7359895833288,
      "v": 73
    },
    {
      "midi": 65,
      "hit": false,
      "t": 45621.37173437503,
      "d": 366.705651041666,
      "v": 73
    },
    {
      "midi": 68,
      "hit": false,
      "t": 45927.49123437503,
      "d": 98.85108854166174,
      "v": 69
    },
    {
      "midi": 49,
      "hit": false,
      "t": 46230.42198958336,
      "d": 57.39740624999831,
      "v": 43
    },
    {
      "midi": 73,
      "hit": false,
      "t": 46542.918979166694,
      "d": 481.5004635416699,
      "v": 81
    },
    {
      "midi": 69,
      "hit": false,
      "t": 46546.10772395836,
      "d": 471.93422916666896,
      "v": 61
    },
    {
      "midi": 54,
      "hit": false,
      "t": 46546.10772395836,
      "d": 3338.615796875005,
      "v": 65
    },
    {
      "midi": 66,
      "hit": false,
      "t": 46549.29646875003,
      "d": 529.3316354166673,
      "v": 61
    },
    {
      "midi": 42,
      "hit": false,
      "t": 46549.29646875003,
      "d": 3443.844375000008,
      "v": 69
    },
    {
      "midi": 78,
      "hit": false,
      "t": 47454.89998958336,
      "d": 379.4606302083339,
      "v": 61
    },
    {
      "midi": 81,
      "hit": false,
      "t": 47761.01948958336,
      "d": 698.3351093750025,
      "v": 77
    },
    {
      "midi": 85,
      "hit": false,
      "t": 48373.258489583364,
      "d": 707.9013437500034,
      "v": 73
    },
    {
      "midi": 81,
      "hit": false,
      "t": 48676.1892447917,
      "d": 369.89439583333296,
      "v": 73
    },
    {
      "midi": 90,
      "hit": false,
      "t": 48988.68623437503,
      "d": 63.774895833332266,
      "v": 73
    },
    {
      "midi": 69,
      "hit": false,
      "t": 49903.85598958337,
      "d": 63.774895833332266,
      "v": 77
    },
    {
      "midi": 66,
      "hit": false,
      "t": 49903.85598958337,
      "d": 82.90736458333413,
      "v": 69
    },
    {
      "midi": 66,
      "hit": false,
      "t": 50053.7269947917,
      "d": 73.3411302083332,
      "v": 57
    },
    {
      "midi": 69,
      "hit": false,
      "t": 50056.91573958337,
      "d": 70.15238541666622,
      "v": 81
    },
    {
      "midi": 66,
      "hit": false,
      "t": 50216.3529791667,
      "d": 334.8182031250035,
      "v": 69
    },
    {
      "midi": 69,
      "hit": false,
      "t": 50216.3529791667,
      "d": 522.9541458333333,
      "v": 90
    },
    {
      "midi": 71,
      "hit": false,
      "t": 50672.34348437504,
      "d": 481.5004635416699,
      "v": 81
    },
    {
      "midi": 68,
      "hit": false,
      "t": 50675.5322291667,
      "d": 433.66929166666523,
      "v": 61
    },
    {
      "midi": 69,
      "hit": false,
      "t": 51131.52273437504,
      "d": 76.52987500000017,
      "v": 73
    },
    {
      "midi": 73,
      "hit": false,
      "t": 51134.711479166705,
      "d": 162.62598437500128,
      "v": 77
    },
    {
      "midi": 76,
      "hit": false,
      "t": 51437.64223437504,
      "d": 2222.555119791672,
      "v": 73
    },
    {
      "midi": 68,
      "hit": false,
      "t": 51440.830979166705,
      "d": 577.1628072916646,
      "v": 77
    },
    {
      "midi": 71,
      "hit": false,
      "t": 51440.830979166705,
      "d": 593.1065312499995,
      "v": 73
    },
    {
      "midi": 40,
      "hit": false,
      "t": 51440.830979166705,
      "d": 2155.591479166673,
      "v": 77
    },
    {
      "midi": 52,
      "hit": false,
      "t": 51440.830979166705,
      "d": 2197.045161458336,
      "v": 77
    },
    {
      "midi": 64,
      "hit": false,
      "t": 52046.69248958337,
      "d": 6.377489583333954,
      "v": 33
    },
    {
      "midi": 68,
      "hit": false,
      "t": 52352.81198958337,
      "d": 124.36104687499756,
      "v": 65
    },
    {
      "midi": 64,
      "hit": false,
      "t": 52352.81198958337,
      "d": 127.54979166666453,
      "v": 65
    },
    {
      "midi": 71,
      "hit": false,
      "t": 52356.00073437504,
      "d": 127.54979166666453,
      "v": 69
    },
    {
      "midi": 71,
      "hit": false,
      "t": 52658.931489583374,
      "d": 774.8649843750027,
      "v": 69
    },
    {
      "midi": 64,
      "hit": false,
      "t": 52662.12023437504,
      "d": 360.32816145833203,
      "v": 69
    },
    {
      "midi": 68,
      "hit": false,
      "t": 52662.12023437504,
      "d": 723.8450677083383,
      "v": 65
    },
    {
      "midi": 64,
      "hit": false,
      "t": 53274.35923437504,
      "d": 363.516906249999,
      "v": 69
    },
    {
      "midi": 68,
      "hit": false,
      "t": 53577.289989583376,
      "d": 216.83464583333262,
      "v": 77
    },
    {
      "midi": 40,
      "hit": false,
      "t": 53886.598234375044,
      "d": 491.0666979166708,
      "v": 69
    },
    {
      "midi": 68,
      "hit": false,
      "t": 53886.598234375044,
      "d": 615.4277447916684,
      "v": 69
    },
    {
      "midi": 71,
      "hit": false,
      "t": 53886.598234375044,
      "d": 615.4277447916684,
      "v": 77
    },
    {
      "midi": 64,
      "hit": false,
      "t": 53889.78697916671,
      "d": 398.59309895833576,
      "v": 77
    },
    {
      "midi": 52,
      "hit": false,
      "t": 53889.78697916671,
      "d": 1693.223484375012,
      "v": 65
    },
    {
      "midi": 40,
      "hit": false,
      "t": 54498.837234375045,
      "d": 204.0796666666647,
      "v": 69
    },
    {
      "midi": 64,
      "hit": false,
      "t": 54801.76798958338,
      "d": 102.03983333333599,
      "v": 73
    },
    {
      "midi": 74,
      "hit": false,
      "t": 54801.76798958338,
      "d": 102.03983333333599,
      "v": 73
    },
    {
      "midi": 71,
      "hit": false,
      "t": 54804.956734375046,
      "d": 41.453682291663426,
      "v": 69
    },
    {
      "midi": 68,
      "hit": false,
      "t": 54804.956734375046,
      "d": 70.15238541666622,
      "v": 69
    },
    {
      "midi": 68,
      "hit": false,
      "t": 55111.07623437505,
      "d": 341.19569270833745,
      "v": 73
    },
    {
      "midi": 64,
      "hit": false,
      "t": 55114.26497916671,
      "d": 299.74201041666674,
      "v": 73
    },
    {
      "midi": 71,
      "hit": false,
      "t": 55114.26497916671,
      "d": 309.3082447916677,
      "v": 77
    },
    {
      "midi": 74,
      "hit": false,
      "t": 55114.26497916671,
      "d": 325.25196875000256,
      "v": 73
    },
    {
      "midi": 40,
      "hit": false,
      "t": 55414.00698958338,
      "d": 471.93422916667623,
      "v": 77
    },
    {
      "midi": 68,
      "hit": false,
      "t": 55563.87799479172,
      "d": 468.745484375002,
      "v": 73
    },
    {
      "midi": 64,
      "hit": false,
      "t": 55567.06673958339,
      "d": 159.4372395833343,
      "v": 77
    },
    {
      "midi": 71,
      "hit": false,
      "t": 55567.06673958339,
      "d": 478.3117187500029,
      "v": 81
    },
    {
      "midi": 52,
      "hit": false,
      "t": 55869.99749479172,
      "d": 156.24849479166733,
      "v": 69
    },
    {
      "midi": 64,
      "hit": false,
      "t": 56029.434734375056,
      "d": 133.9272812499985,
      "v": 81
    },
    {
      "midi": 64,
      "hit": false,
      "t": 56335.55423437506,
      "d": 392.2156093750018,
      "v": 73
    },
    {
      "midi": 73,
      "hit": false,
      "t": 56335.55423437506,
      "d": 538.8978697916682,
      "v": 81
    },
    {
      "midi": 69,
      "hit": false,
      "t": 56338.742979166724,
      "d": 577.1628072916646,
      "v": 90
    },
    {
      "midi": 57,
      "hit": false,
      "t": 56338.742979166724,
      "d": 742.9775364583402,
      "v": 73
    },
    {
      "midi": 45,
      "hit": false,
      "t": 56338.742979166724,
      "d": 774.86498437501,
      "v": 73
    },
    {
      "midi": 64,
      "hit": false,
      "t": 56947.79323437506,
      "d": 105.22857812500297,
      "v": 69
    },
    {
      "midi": 73,
      "hit": false,
      "t": 57250.7239895834,
      "d": 121.17230208333058,
      "v": 81
    },
    {
      "midi": 64,
      "hit": false,
      "t": 57253.912734375066,
      "d": 66.96364062499924,
      "v": 73
    },
    {
      "midi": 69,
      "hit": false,
      "t": 57253.912734375066,
      "d": 66.96364062499924,
      "v": 77
    },
    {
      "midi": 69,
      "hit": false,
      "t": 57560.03223437506,
      "d": 988.510885416661,
      "v": 81
    },
    {
      "midi": 66,
      "hit": false,
      "t": 57563.22097916673,
      "d": 417.72556770833035,
      "v": 69
    },
    {
      "midi": 50,
      "hit": false,
      "t": 57563.22097916673,
      "d": 867.3385833333305,
      "v": 77
    },
    {
      "midi": 74,
      "hit": false,
      "t": 57566.40972395839,
      "d": 621.805234374995,
      "v": 81
    },
    {
      "midi": 38,
      "hit": false,
      "t": 57566.40972395839,
      "d": 867.3385833333305,
      "v": 77
    },
    {
      "midi": 66,
      "hit": false,
      "t": 58172.27123437505,
      "d": 404.9705885416697,
      "v": 65
    },
    {
      "midi": 74,
      "hit": false,
      "t": 58475.20198958339,
      "d": 137.11602604167274,
      "v": 73
    },
    {
      "midi": 65,
      "hit": false,
      "t": 58784.51023437506,
      "d": 328.44071354166954,
      "v": 77
    },
    {
      "midi": 68,
      "hit": false,
      "t": 58784.51023437506,
      "d": 599.4840208333335,
      "v": 73
    },
    {
      "midi": 37,
      "hit": false,
      "t": 58784.51023437506,
      "d": 943.8684583333379,
      "v": 73
    },
    {
      "midi": 73,
      "hit": false,
      "t": 58787.69897916673,
      "d": 593.1065312499995,
      "v": 73
    },
    {
      "midi": 49,
      "hit": false,
      "t": 58787.69897916673,
      "d": 615.4277447916684,
      "v": 77
    },
    {
      "midi": 65,
      "hit": false,
      "t": 59396.749234375064,
      "d": 70.15238541666622,
      "v": 69
    },
    {
      "midi": 49,
      "hit": false,
      "t": 59699.6799895834,
      "d": 92.47359895833506,
      "v": 65
    },
    {
      "midi": 61,
      "hit": false,
      "t": 60008.988234375065,
      "d": 392.2156093750018,
      "v": 73
    },
    {
      "midi": 69,
      "hit": false,
      "t": 60008.988234375065,
      "d": 478.3117187500029,
      "v": 90
    },
    {
      "midi": 66,
      "hit": false,
      "t": 60008.988234375065,
      "d": 491.0666979166708,
      "v": 81
    },
    {
      "midi": 42,
      "hit": false,
      "t": 60008.988234375065,
      "d": 1383.915239583337,
      "v": 73
    },
    {
      "midi": 54,
      "hit": false,
      "t": 60012.17697916673,
      "d": 1913.2468750000116,
      "v": 81
    },
    {
      "midi": 69,
      "hit": false,
      "t": 60927.34673437507,
      "d": 60.58615104166529,
      "v": 73
    },
    {
      "midi": 66,
      "hit": false,
      "t": 60927.34673437507,
      "d": 79.71861979166715,
      "v": 69
    },
    {
      "midi": 61,
      "hit": false,
      "t": 60927.34673437507,
      "d": 105.22857812500297,
      "v": 65
    },
    {
      "midi": 61,
      "hit": false,
      "t": 61236.654979166735,
      "d": 538.8978697916682,
      "v": 69
    },
    {
      "midi": 66,
      "hit": false,
      "t": 61236.654979166735,
      "d": 564.407828125004,
      "v": 77
    },
    {
      "midi": 69,
      "hit": false,
      "t": 61236.654979166735,
      "d": 580.3515520833389,
      "v": 81
    },
    {
      "midi": 66,
      "hit": false,
      "t": 62457.94423437508,
      "d": 267.854562499997,
      "v": 69
    },
    {
      "midi": 69,
      "hit": false,
      "t": 62457.94423437508,
      "d": 551.6528489583216,
      "v": 81
    },
    {
      "midi": 73,
      "hit": false,
      "t": 62461.132979166745,
      "d": 503.8216770833242,
      "v": 81
    },
    {
      "midi": 54,
      "hit": false,
      "t": 62461.132979166745,
      "d": 845.0173697916543,
      "v": 77
    },
    {
      "midi": 42,
      "hit": false,
      "t": 62461.132979166745,
      "d": 899.2260312499857,
      "v": 73
    },
    {
      "midi": 66,
      "hit": false,
      "t": 62917.12348437507,
      "d": 156.24849479166005,
      "v": 73
    },
    {
      "midi": 69,
      "hit": false,
      "t": 63376.302734375065,
      "d": 54.208661458331335,
      "v": 77
    },
    {
      "midi": 66,
      "hit": false,
      "t": 63376.302734375065,
      "d": 76.52987500000017,
      "v": 65
    },
    {
      "midi": 73,
      "hit": false,
      "t": 63376.302734375065,
      "d": 102.03983333333599,
      "v": 69
    },
    {
      "midi": 64,
      "hit": false,
      "t": 63682.422234375066,
      "d": 436.8580364583322,
      "v": 77
    },
    {
      "midi": 68,
      "hit": false,
      "t": 63685.61097916673,
      "d": 628.182723958329,
      "v": 81
    },
    {
      "midi": 71,
      "hit": false,
      "t": 63685.61097916673,
      "d": 628.182723958329,
      "v": 81
    },
    {
      "midi": 40,
      "hit": false,
      "t": 63685.61097916673,
      "d": 1020.3983333333308,
      "v": 73
    },
    {
      "midi": 52,
      "hit": false,
      "t": 63685.61097916673,
      "d": 1779.3195937499986,
      "v": 81
    },
    {
      "midi": 40,
      "hit": false,
      "t": 64903.711489583395,
      "d": 717.4675781249971,
      "v": 81
    },
    {
      "midi": 64,
      "hit": false,
      "t": 65209.830989583395,
      "d": 679.2026406250079,
      "v": 77
    },
    {
      "midi": 68,
      "hit": false,
      "t": 65519.13923437506,
      "d": 395.40435416667606,
      "v": 77
    },
    {
      "midi": 71,
      "hit": false,
      "t": 65822.0699895834,
      "d": 130.73853645834606,
      "v": 81
    },
    {
      "midi": 64,
      "hit": false,
      "t": 66131.37823437508,
      "d": 733.411302083332,
      "v": 77
    },
    {
      "midi": 68,
      "hit": false,
      "t": 66131.37823437508,
      "d": 924.735989583336,
      "v": 77
    },
    {
      "midi": 71,
      "hit": false,
      "t": 66131.37823437508,
      "d": 943.8684583333379,
      "v": 81
    },
    {
      "midi": 40,
      "hit": false,
      "t": 66134.56697916675,
      "d": 714.2788333333301,
      "v": 73
    },
    {
      "midi": 52,
      "hit": false,
      "t": 66134.56697916675,
      "d": 1616.6936093749973,
      "v": 77
    },
    {
      "midi": 76,
      "hit": false,
      "t": 66134.56697916675,
      "d": 2130.081520833337,
      "v": 81
    },
    {
      "midi": 40,
      "hit": false,
      "t": 67046.54798958341,
      "d": 146.6822604166664,
      "v": 77
    },
    {
      "midi": 71,
      "hit": false,
      "t": 67352.66748958341,
      "d": 596.2952760416665,
      "v": 77
    },
    {
      "midi": 64,
      "hit": false,
      "t": 67355.85623437508,
      "d": 251.9108385416621,
      "v": 69
    },
    {
      "midi": 68,
      "hit": false,
      "t": 67355.85623437508,
      "d": 570.7853177083307,
      "v": 73
    },
    {
      "midi": 40,
      "hit": false,
      "t": 67355.85623437508,
      "d": 790.8087083333376,
      "v": 77
    },
    {
      "midi": 64,
      "hit": false,
      "t": 67808.65799479175,
      "d": 178.56970833333617,
      "v": 77
    },
    {
      "midi": 52,
      "hit": false,
      "t": 67968.09523437508,
      "d": 194.51343229167105,
      "v": 69
    },
    {
      "midi": 71,
      "hit": false,
      "t": 68271.02598958342,
      "d": 95.66234374999476,
      "v": 77
    },
    {
      "midi": 64,
      "hit": false,
      "t": 68271.02598958342,
      "d": 114.79481249999662,
      "v": 73
    },
    {
      "midi": 64,
      "hit": false,
      "t": 68583.52297916675,
      "d": 306.1195000000007,
      "v": 81
    },
    {
      "midi": 73,
      "hit": false,
      "t": 68583.52297916675,
      "d": 558.0303385416628,
      "v": 77
    },
    {
      "midi": 57,
      "hit": false,
      "t": 68583.52297916675,
      "d": 599.4840208333335,
      "v": 73
    },
    {
      "midi": 69,
      "hit": false,
      "t": 68583.52297916675,
      "d": 892.8485416666663,
      "v": 90
    },
    {
      "midi": 45,
      "hit": false,
      "t": 68586.71172395842,
      "d": 660.070171875006,
      "v": 69
    },
    {
      "midi": 64,
      "hit": false,
      "t": 69189.38448958342,
      "d": 369.89439583334024,
      "v": 77
    },
    {
      "midi": 73,
      "hit": false,
      "t": 69495.50398958342,
      "d": 127.54979166667908,
      "v": 77
    },
    {
      "midi": 64,
      "hit": false,
      "t": 69801.62348958344,
      "d": 347.5731822916714,
      "v": 73
    },
    {
      "midi": 52,
      "hit": false,
      "t": 69801.62348958344,
      "d": 768.4874947916833,
      "v": 73
    },
    {
      "midi": 71,
      "hit": false,
      "t": 69804.8122343751,
      "d": 564.4078281250113,
      "v": 81
    },
    {
      "midi": 68,
      "hit": false,
      "t": 69804.8122343751,
      "d": 593.1065312500141,
      "v": 77
    },
    {
      "midi": 40,
      "hit": false,
      "t": 69804.8122343751,
      "d": 704.7125989583437,
      "v": 77
    },
    {
      "midi": 64,
      "hit": false,
      "t": 70417.05123437512,
      "d": 204.07966666667198,
      "v": 65
    },
    {
      "midi": 64,
      "hit": false,
      "t": 70719.98198958345,
      "d": 66.96364062500652,
      "v": 61
    },
    {
      "midi": 71,
      "hit": false,
      "t": 70723.17073437512,
      "d": 63.77489583333954,
      "v": 57
    },
    {
      "midi": 68,
      "hit": false,
      "t": 70723.17073437512,
      "d": 95.66234375000931,
      "v": 61
    },
    {
      "midi": 59,
      "hit": false,
      "t": 71029.29023437513,
      "d": 618.6164895833354,
      "v": 73
    },
    {
      "midi": 66,
      "hit": false,
      "t": 71029.29023437513,
      "d": 656.8814270833391,
      "v": 73
    },
    {
      "midi": 47,
      "hit": false,
      "t": 71029.29023437513,
      "d": 669.636406250007,
      "v": 69
    },
    {
      "midi": 63,
      "hit": false,
      "t": 71032.4789791668,
      "d": 389.02686458332755,
      "v": 69
    },
    {
      "midi": 71,
      "hit": false,
      "t": 71032.4789791668,
      "d": 781.2424739583366,
      "v": 77
    },
    {
      "midi": 63,
      "hit": false,
      "t": 71641.52923437514,
      "d": 156.24849479166733,
      "v": 65
    },
    {
      "midi": 64,
      "hit": false,
      "t": 71947.64873437514,
      "d": 618.6164895833354,
      "v": 73
    },
    {
      "midi": 68,
      "hit": false,
      "t": 71947.64873437514,
      "d": 921.5472447916691,
      "v": 73
    },
    {
      "midi": 71,
      "hit": false,
      "t": 71947.64873437514,
      "d": 1160.7031041666778,
      "v": 69
    },
    {
      "midi": 40,
      "hit": false,
      "t": 72253.76823437514,
      "d": 902.4147760416818,
      "v": 81
    },
    {
      "midi": 52,
      "hit": false,
      "t": 72256.9569791668,
      "d": 637.7489583333372,
      "v": 81
    },
    {
      "midi": 64,
      "hit": false,
      "t": 72866.00723437514,
      "d": 261.47707291667757,
      "v": 77
    },
    {
      "midi": 52,
      "hit": false,
      "t": 73172.12673437515,
      "d": 54.20866145833861,
      "v": 69
    },
    {
      "midi": 66,
      "hit": false,
      "t": 73475.05748958349,
      "d": 389.02686458332755,
      "v": 81
    },
    {
      "midi": 71,
      "hit": false,
      "t": 73475.05748958349,
      "d": 640.9377031250042,
      "v": 77
    },
    {
      "midi": 63,
      "hit": false,
      "t": 73478.24623437515,
      "d": 146.6822604166664,
      "v": 73
    },
    {
      "midi": 59,
      "hit": false,
      "t": 73478.24623437515,
      "d": 577.1628072916646,
      "v": 81
    },
    {
      "midi": 47,
      "hit": false,
      "t": 73478.24623437515,
      "d": 647.3151927083381,
      "v": 69
    },
    {
      "midi": 63,
      "hit": false,
      "t": 73781.17698958349,
      "d": 344.3844375000044,
      "v": 77
    },
    {
      "midi": 66,
      "hit": false,
      "t": 74087.29648958349,
      "d": 210.45715625000594,
      "v": 65
    },
    {
      "midi": 64,
      "hit": false,
      "t": 74393.41598958349,
      "d": 640.9377031250042,
      "v": 73
    },
    {
      "midi": 68,
      "hit": false,
      "t": 74393.41598958349,
      "d": 927.924734375003,
      "v": 73
    },
    {
      "midi": 71,
      "hit": false,
      "t": 74396.60473437516,
      "d": 1214.9117656250019,
      "v": 73
    },
    {
      "midi": 40,
      "hit": false,
      "t": 74702.72423437516,
      "d": 717.4675781249971,
      "v": 77
    },
    {
      "midi": 52,
      "hit": false,
      "t": 74702.72423437516,
      "d": 749.3550260416669,
      "v": 81
    },
    {
      "midi": 64,
      "hit": false,
      "t": 75314.96323437516,
      "d": 373.0831406250072,
      "v": 69
    },
    {
      "midi": 68,
      "hit": false,
      "t": 75617.89398958349,
      "d": 149.87100520833337,
      "v": 73
    },
    {
      "midi": 66,
      "hit": false,
      "t": 75924.01348958349,
      "d": 392.21560937499453,
      "v": 77
    },
    {
      "midi": 71,
      "hit": false,
      "t": 75924.01348958349,
      "d": 503.8216770833242,
      "v": 77
    },
    {
      "midi": 63,
      "hit": false,
      "t": 75927.20223437516,
      "d": 194.51343229167105,
      "v": 73
    },
    {
      "midi": 47,
      "hit": false,
      "t": 75927.20223437516,
      "d": 730.222557291665,
      "v": 73
    },
    {
      "midi": 59,
      "hit": false,
      "t": 75927.20223437516,
      "d": 832.2623906249937,
      "v": 77
    },
    {
      "midi": 63,
      "hit": false,
      "t": 76230.1329895835,
      "d": 363.51690624999173,
      "v": 73
    },
    {
      "midi": 66,
      "hit": false,
      "t": 76539.44123437515,
      "d": 114.79481250001118,
      "v": 77
    },
    {
      "midi": 71,
      "hit": false,
      "t": 76539.44123437515,
      "d": 137.11602604168002,
      "v": 77
    },
    {
      "midi": 62,
      "hit": false,
      "t": 77154.86897916681,
      "d": 322.0632239583356,
      "v": 77
    },
    {
      "midi": 66,
      "hit": false,
      "t": 77154.86897916681,
      "d": 369.89439583334024,
      "v": 81
    },
    {
      "midi": 69,
      "hit": false,
      "t": 77154.86897916681,
      "d": 389.0268645833421,
      "v": 90
    },
    {
      "midi": 50,
      "hit": false,
      "t": 77154.86897916681,
      "d": 1884.5481718750525,
      "v": 90
    },
    {
      "midi": 66,
      "hit": false,
      "t": 77763.91923437516,
      "d": 47.83117187500466,
      "v": 77
    },
    {
      "midi": 69,
      "hit": false,
      "t": 77763.91923437516,
      "d": 76.52987500000745,
      "v": 81
    },
    {
      "midi": 74,
      "hit": false,
      "t": 77763.91923437516,
      "d": 117.98355729167815,
      "v": 81
    },
    {
      "midi": 69,
      "hit": false,
      "t": 78376.15823437518,
      "d": 73.34113020834047,
      "v": 77
    },
    {
      "midi": 78,
      "hit": false,
      "t": 78376.15823437518,
      "d": 92.47359895834234,
      "v": 77
    },
    {
      "midi": 74,
      "hit": false,
      "t": 78379.34697916685,
      "d": 57.39740625000559,
      "v": 90
    },
    {
      "midi": 74,
      "hit": false,
      "t": 78988.3972343752,
      "d": 44.64242708333768,
      "v": 81
    },
    {
      "midi": 81,
      "hit": false,
      "t": 78988.3972343752,
      "d": 51.019916666671634,
      "v": 77
    },
    {
      "midi": 78,
      "hit": false,
      "t": 78988.3972343752,
      "d": 79.71861979167443,
      "v": 77
    },
    {
      "midi": 65,
      "hit": false,
      "t": 79600.6362343752,
      "d": 178.56970833333617,
      "v": 90
    },
    {
      "midi": 68,
      "hit": false,
      "t": 79600.6362343752,
      "d": 207.26841145833896,
      "v": 77
    },
    {
      "midi": 49,
      "hit": false,
      "t": 79600.6362343752,
      "d": 2133.270265625004,
      "v": 81
    },
    {
      "midi": 73,
      "hit": false,
      "t": 79603.82497916686,
      "d": 235.96711458334175,
      "v": 81
    },
    {
      "midi": 61,
      "hit": false,
      "t": 79603.82497916686,
      "d": 2152.402734375006,
      "v": 90
    },
    {
      "midi": 68,
      "hit": false,
      "t": 80515.80598958353,
      "d": 408.1593333333294,
      "v": 77
    },
    {
      "midi": 73,
      "hit": false,
      "t": 80518.9947343752,
      "d": 404.97058854166244,
      "v": 77
    },
    {
      "midi": 77,
      "hit": false,
      "t": 80518.9947343752,
      "d": 420.9143124999973,
      "v": 73
    },
    {
      "midi": 65,
      "hit": false,
      "t": 81437.3532343752,
      "d": 277.4207968749979,
      "v": 73
    },
    {
      "midi": 73,
      "hit": false,
      "t": 81437.3532343752,
      "d": 309.3082447916677,
      "v": 77
    },
    {
      "midi": 68,
      "hit": false,
      "t": 81437.3532343752,
      "d": 328.44071354166954,
      "v": 73
    },
    {
      "midi": 42,
      "hit": false,
      "t": 82055.96972395854,
      "d": 2155.5914791666873,
      "v": 73
    },
    {
      "midi": 69,
      "hit": false,
      "t": 82059.1584687502,
      "d": 475.12297395833593,
      "v": 81
    },
    {
      "midi": 73,
      "hit": false,
      "t": 82059.1584687502,
      "d": 475.12297395833593,
      "v": 77
    },
    {
      "midi": 54,
      "hit": false,
      "t": 82059.1584687502,
      "d": 1859.038213541673,
      "v": 77
    },
    {
      "midi": 66,
      "hit": false,
      "t": 82062.34721354187,
      "d": 478.3117187500029,
      "v": 77
    },
    {
      "midi": 69,
      "hit": false,
      "t": 83883.12048958354,
      "d": 70.1523854166735,
      "v": 81
    },
    {
      "midi": 66,
      "hit": false,
      "t": 83883.12048958354,
      "d": 95.66234375000931,
      "v": 77
    },
    {
      "midi": 73,
      "hit": false,
      "t": 83886.3092343752,
      "d": 79.71861979167443,
      "v": 77
    },
    {
      "midi": 54,
      "hit": false,
      "t": 84189.23998958356,
      "d": 51.019916666671634,
      "v": 42
    },
    {
      "midi": 71,
      "hit": false,
      "t": 84501.73697916689,
      "d": 1425.3689218750078,
      "v": 81
    },
    {
      "midi": 68,
      "hit": false,
      "t": 84504.92572395856,
      "d": 1441.3126458333427,
      "v": 77
    },
    {
      "midi": 40,
      "hit": false,
      "t": 84504.92572395856,
      "d": 1859.038213541673,
      "v": 77
    },
    {
      "midi": 64,
      "hit": false,
      "t": 84508.11446875022,
      "d": 1367.9715156250022,
      "v": 81
    },
    {
      "midi": 52,
      "hit": false,
      "t": 84508.11446875022,
      "d": 1855.849468750006,
      "v": 77
    },
    {
      "midi": 76,
      "hit": false,
      "t": 85723.02623437523,
      "d": 596.2952760416665,
      "v": 73
    },
    {
      "midi": 54,
      "hit": false,
      "t": 86947.50423437523,
      "d": 637.7489583333372,
      "v": 77
    },
    {
      "midi": 69,
      "hit": false,
      "t": 86947.50423437523,
      "d": 637.7489583333372,
      "v": 77
    },
    {
      "midi": 42,
      "hit": false,
      "t": 86947.50423437523,
      "d": 998.0771197916911,
      "v": 77
    },
    {
      "midi": 66,
      "hit": false,
      "t": 86950.6929791669,
      "d": 382.6493749999936,
      "v": 77
    },
    {
      "midi": 73,
      "hit": false,
      "t": 86950.6929791669,
      "d": 660.070171875006,
      "v": 77
    },
    {
      "midi": 66,
      "hit": false,
      "t": 87556.55448958356,
      "d": 114.79481250001118,
      "v": 65
    },
    {
      "midi": 54,
      "hit": false,
      "t": 87865.86273437525,
      "d": 70.1523854166735,
      "v": 69
    },
    {
      "midi": 65,
      "hit": false,
      "t": 88175.17097916693,
      "d": 573.9740624999977,
      "v": 77
    },
    {
      "midi": 68,
      "hit": false,
      "t": 88175.17097916693,
      "d": 573.9740624999977,
      "v": 73
    },
    {
      "midi": 73,
      "hit": false,
      "t": 88178.3597239586,
      "d": 586.7290416666656,
      "v": 77
    },
    {
      "midi": 37,
      "hit": false,
      "t": 88178.3597239586,
      "d": 666.4476614583255,
      "v": 77
    },
    {
      "midi": 49,
      "hit": false,
      "t": 88181.54846875026,
      "d": 704.7125989583292,
      "v": 77
    },
    {
      "midi": 73,
      "hit": false,
      "t": 89396.46023437526,
      "d": 966.1896718750068,
      "v": 77
    },
    {
      "midi": 42,
      "hit": false,
      "t": 89396.46023437526,
      "d": 1935.568088541666,
      "v": 73
    },
    {
      "midi": 54,
      "hit": false,
      "t": 89396.46023437526,
      "d": 1970.6442812500027,
      "v": 69
    },
    {
      "midi": 66,
      "hit": false,
      "t": 89399.64897916693,
      "d": 851.3948593749956,
      "v": 73
    },
    {
      "midi": 69,
      "hit": false,
      "t": 89399.64897916693,
      "d": 889.6597968749993,
      "v": 81
    },
    {
      "midi": 66,
      "hit": false,
      "t": 90923.8689895836,
      "d": 676.0138958333409,
      "v": 69
    },
    {
      "midi": 69,
      "hit": false,
      "t": 91229.9884895836,
      "d": 353.95067187500536,
      "v": 73
    },
    {
      "midi": 73,
      "hit": false,
      "t": 91536.1079895836,
      "d": 79.71861979167443,
      "v": 73
    },
    {
      "midi": 54,
      "hit": false,
      "t": 91848.60497916694,
      "d": 1894.1144062500243,
      "v": 65
    },
    {
      "midi": 69,
      "hit": false,
      "t": 91851.7937239586,
      "d": 621.8052343750023,
      "v": 81
    },
    {
      "midi": 42,
      "hit": false,
      "t": 91851.7937239586,
      "d": 1906.8693854166922,
      "v": 77
    },
    {
      "midi": 66,
      "hit": false,
      "t": 91854.98246875027,
      "d": 503.8216770833387,
      "v": 69
    },
    {
      "midi": 73,
      "hit": false,
      "t": 91854.98246875027,
      "d": 605.8615104166674,
      "v": 81
    },
    {
      "midi": 78,
      "hit": false,
      "t": 91858.17121354194,
      "d": 653.6926822916721,
      "v": 77
    },
    {
      "midi": 69,
      "hit": false,
      "t": 92763.77473437527,
      "d": 63.77489583333954,
      "v": 77
    },
    {
      "midi": 73,
      "hit": false,
      "t": 92763.77473437527,
      "d": 82.9073645833414,
      "v": 73
    },
    {
      "midi": 66,
      "hit": false,
      "t": 92763.77473437527,
      "d": 102.03983333334327,
      "v": 69
    },
    {
      "midi": 66,
      "hit": false,
      "t": 93069.89423437529,
      "d": 369.89439583334024,
      "v": 73
    },
    {
      "midi": 69,
      "hit": false,
      "t": 93069.89423437529,
      "d": 653.6926822916721,
      "v": 77
    },
    {
      "midi": 73,
      "hit": false,
      "t": 93073.08297916695,
      "d": 695.1463645833428,
      "v": 77
    },
    {
      "midi": 66,
      "hit": false,
      "t": 93682.13323437529,
      "d": 102.03983333334327,
      "v": 65
    },
    {
      "midi": 64,
      "hit": false,
      "t": 94294.3722343753,
      "d": 392.21560937499453,
      "v": 77
    },
    {
      "midi": 71,
      "hit": false,
      "t": 94294.3722343753,
      "d": 860.9610937500111,
      "v": 77
    },
    {
      "midi": 68,
      "hit": false,
      "t": 94294.3722343753,
      "d": 896.0372864583478,
      "v": 73
    },
    {
      "midi": 40,
      "hit": false,
      "t": 94297.56097916697,
      "d": 666.44766145834,
      "v": 73
    },
    {
      "midi": 52,
      "hit": false,
      "t": 94297.56097916697,
      "d": 1967.4555364583648,
      "v": 73
    },
    {
      "midi": 64,
      "hit": false,
      "t": 94903.42248958364,
      "d": 1297.8191302083578,
      "v": 69
    },
    {
      "midi": 40,
      "hit": false,
      "t": 95212.73073437532,
      "d": 95.66234374999476,
      "v": 81
    },
    {
      "midi": 68,
      "hit": false,
      "t": 95518.85023437532,
      "d": 644.1264479166712,
      "v": 73
    },
    {
      "midi": 40,
      "hit": false,
      "t": 95518.85023437532,
      "d": 746.1662812500144,
      "v": 81
    },
    {
      "midi": 71,
      "hit": false,
      "t": 95522.03897916699,
      "d": 669.636406250007,
      "v": 77
    },
    {
      "midi": 54,
      "hit": false,
      "t": 96746.516979167,
      "d": 532.5203802083415,
      "v": 69
    },
    {
      "midi": 73,
      "hit": false,
      "t": 96749.70572395867,
      "d": 621.8052343750023,
      "v": 77
    },
    {
      "midi": 42,
      "hit": false,
      "t": 96749.70572395867,
      "d": 975.7559062500077,
      "v": 77
    },
    {
      "midi": 66,
      "hit": false,
      "t": 96752.89446875034,
      "d": 334.8182031250035,
      "v": 65
    },
    {
      "midi": 69,
      "hit": false,
      "t": 96752.89446875034,
      "d": 615.4277447916684,
      "v": 77
    },
    {
      "midi": 66,
      "hit": false,
      "t": 97355.56723437534,
      "d": 127.54979166666453,
      "v": 65
    },
    {
      "midi": 54,
      "hit": false,
      "t": 97661.68673437534,
      "d": 63.77489583333954,
      "v": 73
    },
    {
      "midi": 37,
      "hit": false,
      "t": 97970.99497916701,
      "d": 519.7654010416736,
      "v": 77
    },
    {
      "midi": 49,
      "hit": false,
      "t": 97970.99497916701,
      "d": 621.8052343750023,
      "v": 73
    },
    {
      "midi": 65,
      "hit": false,
      "t": 97974.18372395867,
      "d": 137.11602604166546,
      "v": 65
    },
    {
      "midi": 73,
      "hit": false,
      "t": 97974.18372395867,
      "d": 612.2390000000014,
      "v": 77
    },
    {
      "midi": 68,
      "hit": false,
      "t": 97977.37246875034,
      "d": 322.0632239583356,
      "v": 73
    },
    {
      "midi": 65,
      "hit": false,
      "t": 98273.92573437534,
      "d": 357.13941666667233,
      "v": 65
    },
    {
      "midi": 68,
      "hit": false,
      "t": 98580.04523437534,
      "d": 60.586151041672565,
      "v": 49
    },
    {
      "midi": 66,
      "hit": false,
      "t": 98886.16473437534,
      "d": 494.2554427083378,
      "v": 69
    },
    {
      "midi": 73,
      "hit": false,
      "t": 98886.16473437534,
      "d": 1052.2857812500151,
      "v": 73
    },
    {
      "midi": 69,
      "hit": false,
      "t": 98889.35347916701,
      "d": 991.6996302083426,
      "v": 77
    },
    {
      "midi": 42,
      "hit": false,
      "t": 99192.28423437534,
      "d": 985.3221406250232,
      "v": 77
    },
    {
      "midi": 54,
      "hit": false,
      "t": 99195.47297916701,
      "d": 666.44766145834,
      "v": 81
    },
    {
      "midi": 66,
      "hit": false,
      "t": 99801.33448958368,
      "d": 172.19221875001676,
      "v": 65
    },
    {
      "midi": 54,
      "hit": false,
      "t": 100110.64273437536,
      "d": 102.03983333334327,
      "v": 57
    },
    {
      "midi": 64,
      "hit": false,
      "t": 100419.95097916704,
      "d": 172.1922187500022,
      "v": 69
    },
    {
      "midi": 40,
      "hit": false,
      "t": 100423.13972395871,
      "d": 720.6563229166786,
      "v": 73
    },
    {
      "midi": 52,
      "hit": false,
      "t": 100423.13972395871,
      "d": 771.6762395833503,
      "v": 73
    },
    {
      "midi": 68,
      "hit": false,
      "t": 100426.32846875038,
      "d": 379.4606302083266,
      "v": 73
    },
    {
      "midi": 71,
      "hit": false,
      "t": 100426.32846875038,
      "d": 414.53682291666337,
      "v": 73
    },
    {
      "midi": 64,
      "hit": false,
      "t": 100722.88173437538,
      "d": 379.4606302083412,
      "v": 65
    },
    {
      "midi": 68,
      "hit": false,
      "t": 101029.00123437538,
      "d": 60.586151041672565,
      "v": 34
    },
    {
      "midi": 71,
      "hit": false,
      "t": 101029.00123437538,
      "d": 102.03983333334327,
      "v": 49
    },
    {
      "midi": 66,
      "hit": false,
      "t": 101335.12073437539,
      "d": 564.4078281249967,
      "v": 57
    },
    {
      "midi": 73,
      "hit": false,
      "t": 101335.12073437539,
      "d": 886.4710520833323,
      "v": 69
    },
    {
      "midi": 69,
      "hit": false,
      "t": 101335.12073437539,
      "d": 905.6035208333342,
      "v": 73
    },
    {
      "midi": 42,
      "hit": false,
      "t": 101644.42897916706,
      "d": 975.7559062500222,
      "v": 73
    },
    {
      "midi": 54,
      "hit": false,
      "t": 101647.61772395873,
      "d": 640.9377031250042,
      "v": 77
    },
    {
      "midi": 66,
      "hit": false,
      "t": 102250.29048958373,
      "d": 111.6060677083442,
      "v": 57
    },
    {
      "midi": 54,
      "hit": false,
      "t": 102559.59873437541,
      "d": 66.96364062500652,
      "v": 81
    },
    {
      "midi": 65,
      "hit": false,
      "t": 102868.90697916708,
      "d": 322.0632239583356,
      "v": 73
    },
    {
      "midi": 68,
      "hit": false,
      "t": 102868.90697916708,
      "d": 618.6164895833354,
      "v": 73
    },
    {
      "midi": 73,
      "hit": false,
      "t": 102872.09572395874,
      "d": 634.5602135416702,
      "v": 77
    },
    {
      "midi": 49,
      "hit": false,
      "t": 102872.09572395874,
      "d": 666.44766145834,
      "v": 77
    },
    {
      "midi": 37,
      "hit": false,
      "t": 102872.09572395874,
      "d": 924.7359895833506,
      "v": 73
    },
    {
      "midi": 65,
      "hit": false,
      "t": 103477.95723437541,
      "d": 92.47359895834234,
      "v": 48
    },
    {
      "midi": 49,
      "hit": false,
      "t": 103784.07673437543,
      "d": 92.47359895832778,
      "v": 53
    },
    {
      "midi": 66,
      "hit": false,
      "t": 104090.19623437543,
      "d": 455.99050520833407,
      "v": 61
    },
    {
      "midi": 69,
      "hit": false,
      "t": 104090.19623437543,
      "d": 660.070171875006,
      "v": 73
    },
    {
      "midi": 42,
      "hit": false,
      "t": 104090.19623437543,
      "d": 994.888374999995,
      "v": 77
    },
    {
      "midi": 73,
      "hit": false,
      "t": 104093.3849791671,
      "d": 672.825151041674,
      "v": 73
    },
    {
      "midi": 54,
      "hit": false,
      "t": 105008.55473437543,
      "d": 92.47359895832778,
      "v": 73
    },
    {
      "midi": 52,
      "hit": false,
      "t": 105321.05172395876,
      "d": 334.8182031250035,
      "v": 81
    },
    {
      "midi": 68,
      "hit": false,
      "t": 105321.05172395876,
      "d": 615.4277447916684,
      "v": 73
    },
    {
      "midi": 64,
      "hit": false,
      "t": 105321.05172395876,
      "d": 647.3151927083381,
      "v": 69
    },
    {
      "midi": 40,
      "hit": false,
      "t": 105321.05172395876,
      "d": 669.636406250007,
      "v": 73
    },
    {
      "midi": 71,
      "hit": false,
      "t": 105324.24046875043,
      "d": 325.25196875000256,
      "v": 81
    },
    {
      "midi": 76,
      "hit": false,
      "t": 105620.79373437543,
      "d": 290.1757760416658,
      "v": 77
    },
    {
      "midi": 71,
      "hit": false,
      "t": 105926.91323437543,
      "d": 146.6822604166664,
      "v": 73
    },
    {
      "midi": 66,
      "hit": false,
      "t": 106233.03273437543,
      "d": 481.5004635416699,
      "v": 61
    },
    {
      "midi": 69,
      "hit": false,
      "t": 106233.03273437543,
      "d": 911.9810104166681,
      "v": 73
    },
    {
      "midi": 73,
      "hit": false,
      "t": 106233.03273437543,
      "d": 924.735989583336,
      "v": 69
    },
    {
      "midi": 42,
      "hit": false,
      "t": 106545.52972395877,
      "d": 991.6996302083426,
      "v": 81
    },
    {
      "midi": 66,
      "hit": false,
      "t": 107148.20248958377,
      "d": 102.03983333332872,
      "v": 65
    },
    {
      "midi": 54,
      "hit": false,
      "t": 107457.51073437544,
      "d": 66.96364062500652,
      "v": 77
    },
    {
      "midi": 65,
      "hit": false,
      "t": 107766.8189791671,
      "d": 143.49351562499942,
      "v": 61
    },
    {
      "midi": 73,
      "hit": false,
      "t": 107770.00772395877,
      "d": 609.0502552083344,
      "v": 73
    },
    {
      "midi": 49,
      "hit": false,
      "t": 107770.00772395877,
      "d": 640.9377031250042,
      "v": 77
    },
    {
      "midi": 68,
      "hit": false,
      "t": 107773.19646875044,
      "d": 306.1195000000007,
      "v": 69
    },
    {
      "midi": 37,
      "hit": false,
      "t": 107773.19646875044,
      "d": 864.149838541678,
      "v": 73
    },
    {
      "midi": 65,
      "hit": false,
      "t": 108069.74973437544,
      "d": 347.5731822916714,
      "v": 65
    },
    {
      "midi": 68,
      "hit": false,
      "t": 108375.86923437544,
      "d": 102.03983333334327,
      "v": 57
    },
    {
      "midi": 49,
      "hit": false,
      "t": 108681.98873437545,
      "d": 35.07619270833675,
      "v": 39
    },
    {
      "midi": 66,
      "hit": false,
      "t": 108828.67099479212,
      "d": 532.520380208327,
      "v": 47
    },
    {
      "midi": 42,
      "hit": false,
      "t": 108828.67099479212,
      "d": 2544.618343749986,
      "v": 48
    },
    {
      "midi": 73,
      "hit": false,
      "t": 108991.29697916712,
      "d": 449.61301562498556,
      "v": 57
    },
    {
      "midi": 69,
      "hit": false,
      "t": 108997.67446875045,
      "d": 446.4242708333186,
      "v": 57
    },
    {
      "midi": 54,
      "hit": false,
      "t": 108997.67446875045,
      "d": 2464.899723958326,
      "v": 61
    },
    {
      "midi": 73,
      "hit": false,
      "t": 109906.46673437544,
      "d": 771.6762395833357,
      "v": 53
    },
    {
      "midi": 81,
      "hit": false,
      "t": 110212.58623437544,
      "d": 293.3645208333328,
      "v": 46
    },
    {
      "midi": 78,
      "hit": false,
      "t": 110515.51698958378,
      "d": 283.79828645833186,
      "v": 65
    },
    {
      "midi": 85,
      "hit": false,
      "t": 110821.63648958378,
      "d": 54.20866145833861,
      "v": 61
    },
    {
      "midi": 81,
      "hit": false,
      "t": 111127.75598958378,
      "d": 312.49698958333465,
      "v": 57
    },
    {
      "midi": 90,
      "hit": false,
      "t": 111433.87548958378,
      "d": 9.566234375000931,
      "v": 69
    },
    {
      "midi": 66,
      "hit": false,
      "t": 113889.20897916712,
      "d": 1482.7663281249988,
      "v": 77
    },
    {
      "midi": 71,
      "hit": false,
      "t": 113889.20897916712,
      "d": 1836.7169999999896,
      "v": 90
    },
    {
      "midi": 75,
      "hit": false,
      "t": 113889.20897916712,
      "d": 1859.0382135416585,
      "v": 81
    },
    {
      "midi": 47,
      "hit": false,
      "t": 113892.39772395878,
      "d": 615.4277447916684,
      "v": 73
    },
    {
      "midi": 59,
      "hit": false,
      "t": 113892.39772395878,
      "d": 1747.4321458333288,
      "v": 73
    },
    {
      "midi": 47,
      "hit": false,
      "t": 114801.18998958379,
      "d": 121.17230208333058,
      "v": 77
    },
    {
      "midi": 47,
      "hit": false,
      "t": 115110.49823437545,
      "d": 1001.265864583329,
      "v": 81
    },
    {
      "midi": 66,
      "hit": false,
      "t": 115722.73723437544,
      "d": 89.28485416667536,
      "v": 77
    },
    {
      "midi": 59,
      "hit": false,
      "t": 116028.85673437545,
      "d": 102.03983333332872,
      "v": 65
    },
    {
      "midi": 59,
      "hit": false,
      "t": 116334.97623437546,
      "d": 507.0104218750057,
      "v": 69
    },
    {
      "midi": 75,
      "hit": false,
      "t": 116338.16497916712,
      "d": 742.9775364583329,
      "v": 77
    },
    {
      "midi": 78,
      "hit": false,
      "t": 116338.16497916712,
      "d": 755.7325156250008,
      "v": 81
    },
    {
      "midi": 71,
      "hit": false,
      "t": 116338.16497916712,
      "d": 765.2987500000017,
      "v": 81
    },
    {
      "midi": 47,
      "hit": false,
      "t": 116338.16497916712,
      "d": 2177.9126927083416,
      "v": 73
    },
    {
      "midi": 59,
      "hit": false,
      "t": 117253.33473437546,
      "d": 95.66234374999476,
      "v": 61
    },
    {
      "midi": 75,
      "hit": false,
      "t": 117559.45423437546,
      "d": 277.4207968749979,
      "v": 73
    },
    {
      "midi": 78,
      "hit": false,
      "t": 117559.45423437546,
      "d": 312.49698958333465,
      "v": 73
    },
    {
      "midi": 59,
      "hit": false,
      "t": 117559.45423437546,
      "d": 408.1593333333294,
      "v": 73
    },
    {
      "midi": 83,
      "hit": false,
      "t": 117559.45423437546,
      "d": 618.6164895833354,
      "v": 73
    },
    {
      "midi": 75,
      "hit": false,
      "t": 118171.69323437546,
      "d": 41.4536822916707,
      "v": 73
    },
    {
      "midi": 71,
      "hit": false,
      "t": 118171.69323437546,
      "d": 70.1523854166735,
      "v": 77
    },
    {
      "midi": 78,
      "hit": false,
      "t": 118171.69323437546,
      "d": 73.34113020834047,
      "v": 73
    },
    {
      "midi": 59,
      "hit": false,
      "t": 118474.6239895838,
      "d": 44.64242708333768,
      "v": 73
    },
    {
      "midi": 73,
      "hit": false,
      "t": 118787.12097916713,
      "d": 978.9446510416747,
      "v": 77
    },
    {
      "midi": 66,
      "hit": false,
      "t": 118790.3097239588,
      "d": 433.66929166666523,
      "v": 73
    },
    {
      "midi": 70,
      "hit": false,
      "t": 118790.3097239588,
      "d": 660.070171875006,
      "v": 90
    },
    {
      "midi": 42,
      "hit": false,
      "t": 118790.3097239588,
      "d": 915.1697552083351,
      "v": 77
    },
    {
      "midi": 54,
      "hit": false,
      "t": 118790.3097239588,
      "d": 4470.620197916724,
      "v": 77
    },
    {
      "midi": 66,
      "hit": false,
      "t": 119396.17123437546,
      "d": 366.70565104167326,
      "v": 65
    },
    {
      "midi": 70,
      "hit": false,
      "t": 119699.1019895838,
      "d": 95.66234375000931,
      "v": 73
    },
    {
      "midi": 42,
      "hit": false,
      "t": 120005.22148958381,
      "d": 982.1333958333707,
      "v": 73
    },
    {
      "midi": 73,
      "hit": false,
      "t": 120317.71847916715,
      "d": 66.96364062500652,
      "v": 77
    },
    {
      "midi": 70,
      "hit": false,
      "t": 120317.71847916715,
      "d": 114.79481250001118,
      "v": 73
    },
    {
      "midi": 78,
      "hit": false,
      "t": 120320.90722395881,
      "d": 146.68226041668095,
      "v": 73
    },
    {
      "midi": 68,
      "hit": false,
      "t": 120623.83797916716,
      "d": 102.03983333334327,
      "v": 73
    },
    {
      "midi": 77,
      "hit": false,
      "t": 120627.02672395883,
      "d": 31.88744791666977,
      "v": 69
    },
    {
      "midi": 73,
      "hit": false,
      "t": 120627.02672395883,
      "d": 66.96364062500652,
      "v": 73
    },
    {
      "midi": 75,
      "hit": false,
      "t": 120929.95747916718,
      "d": 1106.4944427083392,
      "v": 73
    },
    {
      "midi": 66,
      "hit": false,
      "t": 120929.95747916718,
      "d": 1109.6831875000062,
      "v": 69
    },
    {
      "midi": 71,
      "hit": false,
      "t": 120929.95747916718,
      "d": 1135.193145833342,
      "v": 81
    },
    {
      "midi": 42,
      "hit": false,
      "t": 121229.69948958384,
      "d": 1996.1542395833385,
      "v": 77
    },
    {
      "midi": 66,
      "hit": false,
      "t": 122148.05798958385,
      "d": 184.94719791667012,
      "v": 69
    },
    {
      "midi": 75,
      "hit": false,
      "t": 122151.24673437551,
      "d": 169.00347395833523,
      "v": 69
    },
    {
      "midi": 71,
      "hit": false,
      "t": 122151.24673437551,
      "d": 184.94719791667012,
      "v": 77
    },
    {
      "midi": 66,
      "hit": false,
      "t": 122457.36623437551,
      "d": 117.9835572916636,
      "v": 69
    },
    {
      "midi": 75,
      "hit": false,
      "t": 122460.55497916718,
      "d": 140.30477083333244,
      "v": 65
    },
    {
      "midi": 71,
      "hit": false,
      "t": 122460.55497916718,
      "d": 146.6822604166664,
      "v": 77
    },
    {
      "midi": 77,
      "hit": false,
      "t": 122766.67447916718,
      "d": 82.90736458332685,
      "v": 61
    },
    {
      "midi": 68,
      "hit": false,
      "t": 122766.67447916718,
      "d": 149.87100520833337,
      "v": 65
    },
    {
      "midi": 73,
      "hit": false,
      "t": 122766.67447916718,
      "d": 153.05975000000035,
      "v": 69
    },
    {
      "midi": 66,
      "hit": false,
      "t": 123072.79397916718,
      "d": 143.49351562499942,
      "v": 65
    },
    {
      "midi": 71,
      "hit": false,
      "t": 123075.98272395885,
      "d": 140.30477083333244,
      "v": 73
    },
    {
      "midi": 75,
      "hit": false,
      "t": 123075.98272395885,
      "d": 143.49351562499942,
      "v": 73
    },
    {
      "midi": 44,
      "hit": false,
      "t": 123685.03297916718,
      "d": 2037.6079218750092,
      "v": 77
    },
    {
      "midi": 60,
      "hit": false,
      "t": 123688.22172395885,
      "d": 452.8017604166671,
      "v": 90
    },
    {
      "midi": 56,
      "hit": false,
      "t": 123688.22172395885,
      "d": 5216.786479166694,
      "v": 81
    },
    {
      "midi": 68,
      "hit": false,
      "t": 123691.41046875052,
      "d": 446.42427083333314,
      "v": 81
    },
    {
      "midi": 63,
      "hit": false,
      "t": 123691.41046875052,
      "d": 452.8017604166671,
      "v": 81
    },
    {
      "midi": 63,
      "hit": false,
      "t": 124600.20273437552,
      "d": 153.05975000000035,
      "v": 81
    },
    {
      "midi": 72,
      "hit": false,
      "t": 124600.20273437552,
      "d": 169.00347395833523,
      "v": 73
    },
    {
      "midi": 68,
      "hit": false,
      "t": 124600.20273437552,
      "d": 210.45715625000594,
      "v": 81
    },
    {
      "midi": 72,
      "hit": false,
      "t": 125518.56123437552,
      "d": 79.71861979165988,
      "v": 81
    },
    {
      "midi": 68,
      "hit": false,
      "t": 125518.56123437552,
      "d": 89.2848541666608,
      "v": 77
    },
    {
      "midi": 75,
      "hit": false,
      "t": 125518.56123437552,
      "d": 130.7385364583315,
      "v": 81
    },
    {
      "midi": 72,
      "hit": false,
      "t": 126130.80023437552,
      "d": 369.89439583334024,
      "v": 77
    },
    {
      "midi": 75,
      "hit": false,
      "t": 126130.80023437552,
      "d": 389.0268645833421,
      "v": 81
    },
    {
      "midi": 44,
      "hit": false,
      "t": 126130.80023437552,
      "d": 2796.5291822916915,
      "v": 90
    },
    {
      "midi": 80,
      "hit": false,
      "t": 126133.98897916719,
      "d": 452.80176041668165,
      "v": 77
    },
    {
      "midi": 80,
      "hit": false,
      "t": 127049.15873437554,
      "d": 79.71861979165988,
      "v": 81
    },
    {
      "midi": 75,
      "hit": false,
      "t": 127049.15873437554,
      "d": 92.47359895832778,
      "v": 73
    },
    {
      "midi": 84,
      "hit": false,
      "t": 127049.15873437554,
      "d": 102.03983333332872,
      "v": 77
    },
    {
      "midi": 84,
      "hit": false,
      "t": 127967.51723437554,
      "d": 86.09610937499383,
      "v": 77
    },
    {
      "midi": 80,
      "hit": false,
      "t": 127967.51723437554,
      "d": 98.85108854166174,
      "v": 73
    },
    {
      "midi": 87,
      "hit": false,
      "t": 127967.51723437554,
      "d": 111.60606770832965,
      "v": 77
    },
    {
      "midi": 80,
      "hit": false,
      "t": 128579.75623437554,
      "d": 293.3645208333328,
      "v": 65
    },
    {
      "midi": 92,
      "hit": false,
      "t": 128579.75623437554,
      "d": 299.74201041666674,
      "v": 69
    },
    {
      "midi": 84,
      "hit": false,
      "t": 128579.75623437554,
      "d": 334.8182031250035,
      "v": 90
    },
    {
      "midi": 87,
      "hit": false,
      "t": 128579.75623437554,
      "d": 353.95067187500536,
      "v": 73
    },
    {
      "midi": 44,
      "hit": false,
      "t": 133480.8569791672,
      "d": 1970.6442812499881,
      "v": 81
    },
    {
      "midi": 60,
      "hit": false,
      "t": 133484.04572395887,
      "d": 2512.730895833316,
      "v": 73
    },
    {
      "midi": 56,
      "hit": false,
      "t": 133484.04572395887,
      "d": 3003.7975937500014,
      "v": 73
    },
    {
      "midi": 68,
      "hit": false,
      "t": 133487.23446875054,
      "d": 2522.297130208317,
      "v": 77
    },
    {
      "midi": 63,
      "hit": false,
      "t": 133487.23446875054,
      "d": 2538.240854166652,
      "v": 81
    },
    {
      "midi": 44,
      "hit": false,
      "t": 135926.62423437551,
      "d": 538.89786979169,
      "v": 90
    },
    {
      "midi": 49,
      "hit": false,
      "t": 140824.53623437553,
      "d": 395.40435416667606,
      "v": 77
    },
    {
      "midi": 73,
      "hit": false,
      "t": 140824.53623437553,
      "d": 2139.647755208309,
      "v": 69
    },
    {
      "midi": 68,
      "hit": false,
      "t": 140824.53623437553,
      "d": 2142.836499999976,
      "v": 65
    },
    {
      "midi": 65,
      "hit": false,
      "t": 140824.53623437553,
      "d": 2146.0252447916428,
      "v": 77
    },
    {
      "midi": 61,
      "hit": false,
      "t": 140827.7249791672,
      "d": 4330.3154270833475,
      "v": 81
    },
    {
      "midi": 49,
      "hit": false,
      "t": 141436.77523437553,
      "d": 114.79481250001118,
      "v": 65
    },
    {
      "midi": 49,
      "hit": false,
      "t": 141739.70598958386,
      "d": 172.19221874998766,
      "v": 77
    },
    {
      "midi": 49,
      "hit": false,
      "t": 142049.01423437553,
      "d": 140.304770833347,
      "v": 73
    },
    {
      "midi": 49,
      "hit": false,
      "t": 142351.94498958386,
      "d": 156.24849479165277,
      "v": 77
    },
    {
      "midi": 49,
      "hit": false,
      "t": 142661.2532343755,
      "d": 140.304770833347,
      "v": 77
    },
    {
      "midi": 49,
      "hit": false,
      "t": 142967.3727343755,
      "d": 146.68226041668095,
      "v": 73
    },
    {
      "midi": 73,
      "hit": false,
      "t": 143273.4922343755,
      "d": 583.5402968750277,
      "v": 73
    },
    {
      "midi": 49,
      "hit": false,
      "t": 143276.68097916717,
      "d": 153.0597499999858,
      "v": 77
    },
    {
      "midi": 65,
      "hit": false,
      "t": 143276.68097916717,
      "d": 392.2156093750091,
      "v": 65
    },
    {
      "midi": 68,
      "hit": false,
      "t": 143276.68097916717,
      "d": 586.7290416666947,
      "v": 73
    },
    {
      "midi": 49,
      "hit": false,
      "t": 143576.42298958384,
      "d": 194.5134322916856,
      "v": 65
    },
    {
      "midi": 49,
      "hit": false,
      "t": 143885.73123437553,
      "d": 427.29180208334583,
      "v": 77
    },
    {
      "midi": 68,
      "hit": false,
      "t": 144188.66198958387,
      "d": 114.79481250001118,
      "v": 77
    },
    {
      "midi": 73,
      "hit": false,
      "t": 144188.66198958387,
      "d": 143.49351562501397,
      "v": 77
    },
    {
      "midi": 49,
      "hit": false,
      "t": 144497.97023437553,
      "d": 54.20866145833861,
      "v": 47
    },
    {
      "midi": 49,
      "hit": false,
      "t": 144800.90098958387,
      "d": 398.59309895834303,
      "v": 73
    },
    {
      "midi": 68,
      "hit": false,
      "t": 145110.20923437554,
      "d": 86.09610937500838,
      "v": 69
    },
    {
      "midi": 73,
      "hit": false,
      "t": 145110.20923437554,
      "d": 95.66234375000931,
      "v": 77
    },
    {
      "midi": 77,
      "hit": false,
      "t": 145110.20923437554,
      "d": 108.41732291667722,
      "v": 73
    },
    {
      "midi": 49,
      "hit": false,
      "t": 145722.44823437554,
      "d": 720.6563229166786,
      "v": 73
    },
    {
      "midi": 65,
      "hit": false,
      "t": 145725.6369791672,
      "d": 522.954145833326,
      "v": 73
    },
    {
      "midi": 73,
      "hit": false,
      "t": 145725.6369791672,
      "d": 612.2390000000014,
      "v": 77
    },
    {
      "midi": 68,
      "hit": false,
      "t": 145728.82572395887,
      "d": 589.9177864583326,
      "v": 77
    },
    {
      "midi": 61,
      "hit": false,
      "t": 145728.82572395887,
      "d": 2904.946505208354,
      "v": 73
    },
    {
      "midi": 49,
      "hit": false,
      "t": 146640.80673437554,
      "d": 98.85108854167629,
      "v": 65
    },
    {
      "midi": 65,
      "hit": false,
      "t": 146946.92623437554,
      "d": 188.13594270832255,
      "v": 61
    },
    {
      "midi": 73,
      "hit": false,
      "t": 146946.92623437554,
      "d": 494.25544270832324,
      "v": 77
    },
    {
      "midi": 68,
      "hit": false,
      "t": 146946.92623437554,
      "d": 535.709124999994,
      "v": 73
    },
    {
      "midi": 49,
      "hit": false,
      "t": 146946.92623437554,
      "d": 902.4147760416672,
      "v": 77
    },
    {
      "midi": 49,
      "hit": false,
      "t": 148171.40423437554,
      "d": 1843.0944895833672,
      "v": 81
    },
    {
      "midi": 77,
      "hit": false,
      "t": 148174.5929791672,
      "d": 1808.0182968750305,
      "v": 73
    },
    {
      "midi": 68,
      "hit": false,
      "t": 148177.78172395888,
      "d": 545.275359375024,
      "v": 73
    },
    {
      "midi": 73,
      "hit": false,
      "t": 148177.78172395888,
      "d": 545.275359375024,
      "v": 77
    },
    {
      "midi": 68,
      "hit": false,
      "t": 149089.76273437557,
      "d": 70.1523854166735,
      "v": 61
    },
    {
      "midi": 65,
      "hit": false,
      "t": 149089.76273437557,
      "d": 89.28485416667536,
      "v": 61
    },
    {
      "midi": 73,
      "hit": false,
      "t": 149089.76273437557,
      "d": 130.73853645834606,
      "v": 73
    },
    {
      "midi": 65,
      "hit": false,
      "t": 149395.88223437557,
      "d": 248.7220937499951,
      "v": 69
    },
    {
      "midi": 73,
      "hit": false,
      "t": 149395.88223437557,
      "d": 640.9377031250042,
      "v": 73
    },
    {
      "midi": 68,
      "hit": false,
      "t": 149399.07097916724,
      "d": 640.9377031250042,
      "v": 73
    },
    {
      "midi": 61,
      "hit": false,
      "t": 149702.00173437558,
      "d": 739.7887916666805,
      "v": 77
    },
    {
      "midi": 65,
      "hit": false,
      "t": 150008.12123437558,
      "d": 149.87100520834792,
      "v": 77
    },
    {
      "midi": 49,
      "hit": false,
      "t": 150317.42947916724,
      "d": 124.36104687501211,
      "v": 77
    },
    {
      "midi": 71,
      "hit": false,
      "t": 150620.36023437558,
      "d": 596.2952760416665,
      "v": 81
    },
    {
      "midi": 49,
      "hit": false,
      "t": 150620.36023437558,
      "d": 1026.7758229166793,
      "v": 73
    },
    {
      "midi": 61,
      "hit": false,
      "t": 150620.36023437558,
      "d": 2021.6641979166598,
      "v": 73
    },
    {
      "midi": 65,
      "hit": false,
      "t": 150623.54897916724,
      "d": 379.4606302083412,
      "v": 77
    },
    {
      "midi": 68,
      "hit": false,
      "t": 150623.54897916724,
      "d": 586.7290416666656,
      "v": 77
    },
    {
      "midi": 68,
      "hit": false,
      "t": 151535.5299895839,
      "d": 624.9939791666693,
      "v": 73
    },
    {
      "midi": 65,
      "hit": false,
      "t": 151538.71873437558,
      "d": 443.2355260416807,
      "v": 73
    },
    {
      "midi": 71,
      "hit": false,
      "t": 151538.71873437558,
      "d": 628.1827239583363,
      "v": 81
    },
    {
      "midi": 49,
      "hit": false,
      "t": 152147.7689895839,
      "d": 771.6762395833503,
      "v": 77
    },
    {
      "midi": 61,
      "hit": false,
      "t": 152763.19673437558,
      "d": 114.79481250001118,
      "v": 77
    },
    {
      "midi": 65,
      "hit": false,
      "t": 153069.31623437558,
      "d": 379.4606302083412,
      "v": 77
    },
    {
      "midi": 68,
      "hit": false,
      "t": 153069.31623437558,
      "d": 602.6727656250005,
      "v": 73
    },
    {
      "midi": 61,
      "hit": false,
      "t": 153069.31623437558,
      "d": 924.735989583336,
      "v": 81
    },
    {
      "midi": 71,
      "hit": false,
      "t": 153072.50497916725,
      "d": 599.4840208333335,
      "v": 90
    },
    {
      "midi": 49,
      "hit": false,
      "t": 153072.50497916725,
      "d": 2066.3066250000265,
      "v": 81
    },
    {
      "midi": 73,
      "hit": false,
      "t": 153984.48598958392,
      "d": 296.55326562499977,
      "v": 81
    },
    {
      "midi": 65,
      "hit": false,
      "t": 153984.48598958392,
      "d": 299.74201041666674,
      "v": 77
    },
    {
      "midi": 68,
      "hit": false,
      "t": 153987.67473437559,
      "d": 290.1757760416658,
      "v": 81
    },
    {
      "midi": 61,
      "hit": false,
      "t": 154293.7942343756,
      "d": 672.825151041674,
      "v": 73
    },
    {
      "midi": 68,
      "hit": false,
      "t": 154906.0332343756,
      "d": 76.52987500000745,
      "v": 77
    },
    {
      "midi": 77,
      "hit": false,
      "t": 154906.0332343756,
      "d": 105.22857812501024,
      "v": 81
    },
    {
      "midi": 73,
      "hit": false,
      "t": 154906.0332343756,
      "d": 156.24849479168188,
      "v": 90
    },
    {
      "midi": 61,
      "hit": false,
      "t": 155208.96398958395,
      "d": 89.28485416667536,
      "v": 65
    },
    {
      "midi": 49,
      "hit": false,
      "t": 155521.46097916728,
      "d": 427.29180208334583,
      "v": 73
    },
    {
      "midi": 77,
      "hit": false,
      "t": 155521.46097916728,
      "d": 475.1229739583505,
      "v": 90
    },
    {
      "midi": 73,
      "hit": false,
      "t": 155521.46097916728,
      "d": 494.25544270835235,
      "v": 77
    },
    {
      "midi": 61,
      "hit": false,
      "t": 155521.46097916728,
      "d": 2021.664197916747,
      "v": 77
    },
    {
      "midi": 68,
      "hit": false,
      "t": 155524.64972395895,
      "d": 392.2156093750091,
      "v": 73
    },
    {
      "midi": 80,
      "hit": false,
      "t": 155524.64972395895,
      "d": 535.709125000023,
      "v": 81
    },
    {
      "midi": 49,
      "hit": false,
      "t": 156277.19349479233,
      "d": 25.509958333335817,
      "v": 53
    },
    {
      "midi": 80,
      "hit": false,
      "t": 156433.441989584,
      "d": 966.1896718750068,
      "v": 81
    },
    {
      "midi": 68,
      "hit": false,
      "t": 156436.63073437568,
      "d": 778.0537291666551,
      "v": 77
    },
    {
      "midi": 77,
      "hit": false,
      "t": 156436.63073437568,
      "d": 905.6035208333342,
      "v": 90
    },
    {
      "midi": 73,
      "hit": false,
      "t": 156439.81947916734,
      "d": 886.4710520833323,
      "v": 90
    },
    {
      "midi": 49,
      "hit": false,
      "t": 157967.2282343757,
      "d": 369.89439583334024,
      "v": 69
    },
    {
      "midi": 73,
      "hit": false,
      "t": 157967.2282343757,
      "d": 420.9143125000119,
      "v": 77
    },
    {
      "midi": 77,
      "hit": false,
      "t": 157967.2282343757,
      "d": 433.6692916666798,
      "v": 73
    },
    {
      "midi": 85,
      "hit": false,
      "t": 157967.2282343757,
      "d": 440.04678125001374,
      "v": 73
    },
    {
      "midi": 80,
      "hit": false,
      "t": 157970.41697916738,
      "d": 446.4242708333477,
      "v": 77
    },
    {
      "midi": 61,
      "hit": false,
      "t": 157970.41697916738,
      "d": 1766.5646145833307,
      "v": 77
    },
    {
      "midi": 49,
      "hit": false,
      "t": 158579.4672343757,
      "d": 111.6060677083442,
      "v": 65
    },
    {
      "midi": 49,
      "hit": false,
      "t": 158882.39798958405,
      "d": 188.13594270832255,
      "v": 73
    },
    {
      "midi": 85,
      "hit": false,
      "t": 158882.39798958405,
      "d": 947.0572031250049,
      "v": 77
    },
    {
      "midi": 80,
      "hit": false,
      "t": 158885.5867343757,
      "d": 586.7290416666656,
      "v": 77
    },
    {
      "midi": 73,
      "hit": false,
      "t": 158885.5867343757,
      "d": 615.4277447916684,
      "v": 73
    },
    {
      "midi": 77,
      "hit": false,
      "t": 158888.77547916738,
      "d": 593.1065312499995,
      "v": 90
    },
    {
      "midi": 49,
      "hit": false,
      "t": 159494.63698958405,
      "d": 666.44766145834,
      "v": 81
    },
    {
      "midi": 77,
      "hit": false,
      "t": 159803.94523437571,
      "d": 60.586151041672565,
      "v": 81
    },
    {
      "midi": 80,
      "hit": false,
      "t": 159803.94523437571,
      "d": 76.52987500000745,
      "v": 77
    },
    {
      "midi": 73,
      "hit": false,
      "t": 159803.94523437571,
      "d": 102.03983333334327,
      "v": 69
    },
    {
      "midi": 61,
      "hit": false,
      "t": 160106.87598958405,
      "d": 121.17230208334513,
      "v": 77
    },
    {
      "midi": 65,
      "hit": false,
      "t": 160416.18423437572,
      "d": 436.85803645834676,
      "v": 69
    },
    {
      "midi": 61,
      "hit": false,
      "t": 160416.18423437572,
      "d": 1846.2832343750342,
      "v": 81
    },
    {
      "midi": 49,
      "hit": false,
      "t": 160419.37297916738,
      "d": 475.1229739583505,
      "v": 73
    },
    {
      "midi": 73,
      "hit": false,
      "t": 160419.37297916738,
      "d": 535.709125000023,
      "v": 73
    },
    {
      "midi": 68,
      "hit": false,
      "t": 160422.56172395905,
      "d": 538.89786979169,
      "v": 77
    },
    {
      "midi": 49,
      "hit": false,
      "t": 161331.35398958408,
      "d": 108.41732291667722,
      "v": 81
    },
    {
      "midi": 65,
      "hit": false,
      "t": 161640.66223437575,
      "d": 360.3281614583393,
      "v": 73
    },
    {
      "midi": 73,
      "hit": false,
      "t": 161640.66223437575,
      "d": 685.5801302083419,
      "v": 77
    },
    {
      "midi": 68,
      "hit": false,
      "t": 161643.85097916742,
      "d": 672.825151041674,
      "v": 73
    },
    {
      "midi": 49,
      "hit": false,
      "t": 161643.85097916742,
      "d": 937.490968750004,
      "v": 81
    },
    {
      "midi": 65,
      "hit": false,
      "t": 162249.71248958408,
      "d": 89.28485416667536,
      "v": 77
    },
    {
      "midi": 61,
      "hit": false,
      "t": 162555.83198958408,
      "d": 1623.071098958375,
      "v": 81
    },
    {
      "midi": 65,
      "hit": false,
      "t": 162861.95148958408,
      "d": 350.7619270833384,
      "v": 77
    },
    {
      "midi": 73,
      "hit": false,
      "t": 162865.14023437575,
      "d": 395.40435416667606,
      "v": 77
    },
    {
      "midi": 49,
      "hit": false,
      "t": 162865.14023437575,
      "d": 481.50046354168444,
      "v": 90
    },
    {
      "midi": 68,
      "hit": false,
      "t": 162868.32897916742,
      "d": 385.8381197916751,
      "v": 77
    },
    {
      "midi": 68,
      "hit": false,
      "t": 163783.49873437578,
      "d": 602.6727656250005,
      "v": 77
    },
    {
      "midi": 77,
      "hit": false,
      "t": 163783.49873437578,
      "d": 943.8684583333379,
      "v": 77
    },
    {
      "midi": 49,
      "hit": false,
      "t": 163786.68747916745,
      "d": 70.1523854166735,
      "v": 65
    },
    {
      "midi": 73,
      "hit": false,
      "t": 163786.68747916745,
      "d": 612.2390000000014,
      "v": 81
    },
    {
      "midi": 49,
      "hit": false,
      "t": 164086.42948958412,
      "d": 883.2823072916653,
      "v": 77
    },
    {
      "midi": 61,
      "hit": false,
      "t": 164392.54898958412,
      "d": 271.04330729166395,
      "v": 73
    },
    {
      "midi": 65,
      "hit": false,
      "t": 164698.66848958412,
      "d": 95.66234375000931,
      "v": 73
    },
    {
      "midi": 73,
      "hit": false,
      "t": 164698.66848958412,
      "d": 111.6060677083442,
      "v": 77
    },
    {
      "midi": 68,
      "hit": false,
      "t": 164701.85723437578,
      "d": 73.34113020834047,
      "v": 73
    },
    {
      "midi": 61,
      "hit": false,
      "t": 165004.78798958412,
      "d": 89.28485416667536,
      "v": 81
    },
    {
      "midi": 49,
      "hit": false,
      "t": 165314.0962343758,
      "d": 599.4840208333335,
      "v": 73
    },
    {
      "midi": 61,
      "hit": false,
      "t": 165314.0962343758,
      "d": 1747.4321458333288,
      "v": 90
    },
    {
      "midi": 65,
      "hit": false,
      "t": 165317.28497916745,
      "d": 1438.1239010416612,
      "v": 81
    },
    {
      "midi": 68,
      "hit": false,
      "t": 165317.28497916745,
      "d": 2018.4754531249928,
      "v": 81
    },
    {
      "midi": 73,
      "hit": false,
      "t": 165317.28497916745,
      "d": 2031.2304322916607,
      "v": 73
    },
    {
      "midi": 49,
      "hit": false,
      "t": 166229.26598958412,
      "d": 108.41732291667722,
      "v": 81
    },
    {
      "midi": 49,
      "hit": false,
      "t": 166535.38548958412,
      "d": 937.490968750004,
      "v": 90
    },
    {
      "midi": 65,
      "hit": false,
      "t": 167147.62448958412,
      "d": 156.24849479165277,
      "v": 73
    },
    {
      "midi": 61,
      "hit": false,
      "t": 167453.74398958412,
      "d": 2079.0616041666653,
      "v": 73
    },
    {
      "midi": 65,
      "hit": false,
      "t": 167763.0522343758,
      "d": 312.49698958333465,
      "v": 77
    },
    {
      "midi": 49,
      "hit": false,
      "t": 167763.0522343758,
      "d": 774.8649843749881,
      "v": 90
    },
    {
      "midi": 68,
      "hit": false,
      "t": 167763.0522343758,
      "d": 1916.4356197916786,
      "v": 77
    },
    {
      "midi": 73,
      "hit": false,
      "t": 167763.0522343758,
      "d": 1945.1343229166814,
      "v": 69
    },
    {
      "midi": 65,
      "hit": false,
      "t": 168375.2912343758,
      "d": 790.808708333323,
      "v": 69
    },
    {
      "midi": 49,
      "hit": false,
      "t": 168678.22198958413,
      "d": 98.85108854167629,
      "v": 81
    },
    {
      "midi": 49,
      "hit": false,
      "t": 168984.34148958413,
      "d": 589.9177864583326,
      "v": 99
    },
    {
      "midi": 65,
      "hit": false,
      "t": 169596.58048958413,
      "d": 86.09610937500838,
      "v": 81
    },
    {
      "midi": 37,
      "hit": false,
      "t": 170212.0082343758,
      "d": 455.9905052083486,
      "v": 73
    },
    {
      "midi": 65,
      "hit": false,
      "t": 170212.0082343758,
      "d": 778.0537291666842,
      "v": 73
    },
    {
      "midi": 73,
      "hit": false,
      "t": 170212.0082343758,
      "d": 797.1861979166861,
      "v": 77
    },
    {
      "midi": 49,
      "hit": false,
      "t": 170212.0082343758,
      "d": 1926.0018541666795,
      "v": 90
    },
    {
      "midi": 68,
      "hit": false,
      "t": 170215.19697916746,
      "d": 816.3186666666879,
      "v": 73
    },
    {
      "midi": 37,
      "hit": false,
      "t": 171127.17798958416,
      "d": 121.17230208334513,
      "v": 81
    },
    {
      "midi": 65,
      "hit": false,
      "t": 171436.48623437583,
      "d": 452.80176041665254,
      "v": 77
    },
    {
      "midi": 73,
      "hit": false,
      "t": 171436.48623437583,
      "d": 736.6000468749844,
      "v": 69
    },
    {
      "midi": 68,
      "hit": false,
      "t": 171436.48623437583,
      "d": 746.1662812499853,
      "v": 69
    },
    {
      "midi": 37,
      "hit": false,
      "t": 171439.6749791675,
      "d": 1023.5870781249832,
      "v": 81
    },
    {
      "midi": 65,
      "hit": false,
      "t": 172048.7252343758,
      "d": 108.41732291667722,
      "v": 73
    },
    {
      "midi": 49,
      "hit": false,
      "t": 172354.8447343758,
      "d": 98.85108854167629,
      "v": 77
    },
    {
      "midi": 68,
      "hit": false,
      "t": 172660.9642343758,
      "d": 615.4277447916684,
      "v": 77
    },
    {
      "midi": 65,
      "hit": false,
      "t": 172664.15297916747,
      "d": 363.5169062500063,
      "v": 77
    },
    {
      "midi": 73,
      "hit": false,
      "t": 172664.15297916747,
      "d": 593.1065312499995,
      "v": 77
    },
    {
      "midi": 49,
      "hit": false,
      "t": 172667.34172395914,
      "d": 2002.531729166658,
      "v": 90
    },
    {
      "midi": 37,
      "hit": false,
      "t": 172670.5304687508,
      "d": 593.1065312499995,
      "v": 77
    },
    {
      "midi": 65,
      "hit": false,
      "t": 173273.2032343758,
      "d": 60.586151041672565,
      "v": 69
    },
    {
      "midi": 37,
      "hit": false,
      "t": 173576.13398958414,
      "d": 79.71861979167443,
      "v": 73
    },
    {
      "midi": 65,
      "hit": false,
      "t": 173885.4422343758,
      "d": 774.8649843749881,
      "v": 77
    },
    {
      "midi": 37,
      "hit": false,
      "t": 173885.4422343758,
      "d": 781.2424739583221,
      "v": 81
    },
    {
      "midi": 68,
      "hit": false,
      "t": 173885.4422343758,
      "d": 790.808708333323,
      "v": 77
    },
    {
      "midi": 73,
      "hit": false,
      "t": 173885.4422343758,
      "d": 813.1299218749919,
      "v": 69
    },
    {
      "midi": 54,
      "hit": false,
      "t": 175113.10897916747,
      "d": 1852.660723958339,
      "v": 65
    },
    {
      "midi": 66,
      "hit": false,
      "t": 175116.29772395914,
      "d": 1221.2892552083358,
      "v": 65
    },
    {
      "midi": 69,
      "hit": false,
      "t": 175116.29772395914,
      "d": 1272.3091718750075,
      "v": 81
    },
    {
      "midi": 73,
      "hit": false,
      "t": 175119.4864687508,
      "d": 1294.6303854166763,
      "v": 73
    },
    {
      "midi": 42,
      "hit": false,
      "t": 175119.4864687508,
      "d": 1843.0944895833381,
      "v": 73
    },
    {
      "midi": 69,
      "hit": false,
      "t": 176943.44848958415,
      "d": 111.6060677083442,
      "v": 81
    },
    {
      "midi": 66,
      "hit": false,
      "t": 176943.44848958415,
      "d": 117.98355729167815,
      "v": 73
    },
    {
      "midi": 73,
      "hit": false,
      "t": 176946.6372343758,
      "d": 117.98355729167815,
      "v": 77
    },
    {
      "midi": 40,
      "hit": false,
      "t": 177562.06497916748,
      "d": 1680.4685052083223,
      "v": 77
    },
    {
      "midi": 64,
      "hit": false,
      "t": 177562.06497916748,
      "d": 1785.6970833333326,
      "v": 77
    },
    {
      "midi": 52,
      "hit": false,
      "t": 177565.25372395915,
      "d": 1696.4122291666572,
      "v": 69
    },
    {
      "midi": 68,
      "hit": false,
      "t": 177568.4424687508,
      "d": 1782.5083385416656,
      "v": 77
    },
    {
      "midi": 71,
      "hit": false,
      "t": 177568.4424687508,
      "d": 1808.0182968750014,
      "v": 77
    },
    {
      "midi": 66,
      "hit": false,
      "t": 180007.83223437582,
      "d": 468.7454843749874,
      "v": 65
    },
    {
      "midi": 69,
      "hit": false,
      "t": 180007.83223437582,
      "d": 666.44766145834,
      "v": 81
    },
    {
      "midi": 54,
      "hit": false,
      "t": 180007.83223437582,
      "d": 688.7688750000088,
      "v": 69
    },
    {
      "midi": 42,
      "hit": false,
      "t": 180007.83223437582,
      "d": 746.1662812500144,
      "v": 69
    },
    {
      "midi": 73,
      "hit": false,
      "t": 180007.83223437582,
      "d": 790.8087083333521,
      "v": 77
    },
    {
      "midi": 66,
      "hit": false,
      "t": 180616.88248958415,
      "d": 216.83464583335444,
      "v": 53
    },
    {
      "midi": 49,
      "hit": false,
      "t": 181235.49897916752,
      "d": 612.2390000000305,
      "v": 69
    },
    {
      "midi": 37,
      "hit": false,
      "t": 181238.68772395918,
      "d": 580.3515520833607,
      "v": 65
    },
    {
      "midi": 65,
      "hit": false,
      "t": 181238.68772395918,
      "d": 580.3515520833607,
      "v": 69
    },
    {
      "midi": 73,
      "hit": false,
      "t": 181238.68772395918,
      "d": 618.6164895833645,
      "v": 73
    },
    {
      "midi": 68,
      "hit": false,
      "t": 181241.87646875085,
      "d": 586.7290416666947,
      "v": 69
    },
    {
      "midi": 66,
      "hit": false,
      "t": 182456.78823437588,
      "d": 398.59309895834303,
      "v": 73
    },
    {
      "midi": 69,
      "hit": false,
      "t": 182456.78823437588,
      "d": 459.1792500000156,
      "v": 81
    },
    {
      "midi": 73,
      "hit": false,
      "t": 182456.78823437588,
      "d": 532.5203802083561,
      "v": 77
    },
    {
      "midi": 42,
      "hit": false,
      "t": 182456.78823437588,
      "d": 551.6528489583579,
      "v": 73
    },
    {
      "midi": 54,
      "hit": false,
      "t": 182459.97697916755,
      "d": 1977.0217708333803,
      "v": 69
    },
    {
      "midi": 42,
      "hit": false,
      "t": 183371.95798958425,
      "d": 143.49351562501397,
      "v": 73
    },
    {
      "midi": 73,
      "hit": false,
      "t": 183678.07748958425,
      "d": 615.4277447916684,
      "v": 77
    },
    {
      "midi": 42,
      "hit": false,
      "t": 183678.07748958425,
      "d": 742.9775364583475,
      "v": 77
    },
    {
      "midi": 69,
      "hit": false,
      "t": 183984.19698958425,
      "d": 1444.501390624995,
      "v": 65
    },
    {
      "midi": 78,
      "hit": false,
      "t": 184290.31648958425,
      "d": 1285.0641510416754,
      "v": 73
    },
    {
      "midi": 73,
      "hit": false,
      "t": 184596.43598958425,
      "d": 963.0009270833398,
      "v": 73
    },
    {
      "midi": 54,
      "hit": false,
      "t": 184908.93297916758,
      "d": 1683.6572500000184,
      "v": 77
    },
    {
      "midi": 42,
      "hit": false,
      "t": 184912.12172395925,
      "d": 1323.329088541679,
      "v": 73
    },
    {
      "midi": 81,
      "hit": false,
      "t": 184915.31046875092,
      "d": 624.9939791666693,
      "v": 77
    },
    {
      "midi": 69,
      "hit": false,
      "t": 185820.91398958425,
      "d": 60.586151041672565,
      "v": 61
    },
    {
      "midi": 78,
      "hit": false,
      "t": 185824.10273437592,
      "d": 44.64242708333768,
      "v": 61
    },
    {
      "midi": 73,
      "hit": false,
      "t": 185824.10273437592,
      "d": 51.019916666671634,
      "v": 69
    },
    {
      "midi": 69,
      "hit": false,
      "t": 186130.22223437592,
      "d": 159.43723958334886,
      "v": 65
    },
    {
      "midi": 78,
      "hit": false,
      "t": 186130.22223437592,
      "d": 558.0303385416919,
      "v": 69
    },
    {
      "midi": 73,
      "hit": false,
      "t": 186130.22223437592,
      "d": 593.1065312500286,
      "v": 73
    },
    {
      "midi": 42,
      "hit": false,
      "t": 186436.34173437595,
      "d": 593.1065312499995,
      "v": 77
    },
    {
      "midi": 69,
      "hit": false,
      "t": 186742.46123437595,
      "d": 89.28485416667536,
      "v": 73
    },
    {
      "midi": 54,
      "hit": false,
      "t": 187048.58073437595,
      "d": 92.47359895834234,
      "v": 61
    },
    {
      "midi": 71,
      "hit": false,
      "t": 187354.70023437595,
      "d": 580.3515520833316,
      "v": 73
    },
    {
      "midi": 52,
      "hit": false,
      "t": 187354.70023437595,
      "d": 596.2952760416665,
      "v": 77
    },
    {
      "midi": 68,
      "hit": false,
      "t": 187354.70023437595,
      "d": 596.2952760416665,
      "v": 73
    },
    {
      "midi": 76,
      "hit": false,
      "t": 187357.88897916762,
      "d": 1747.4321458333288,
      "v": 65
    },
    {
      "midi": 40,
      "hit": false,
      "t": 187357.88897916762,
      "d": 1814.3957864583354,
      "v": 77
    },
    {
      "midi": 52,
      "hit": false,
      "t": 188269.8699895843,
      "d": 105.22857812501024,
      "v": 69
    },
    {
      "midi": 68,
      "hit": false,
      "t": 188579.17823437596,
      "d": 529.33163541666,
      "v": 65
    },
    {
      "midi": 71,
      "hit": false,
      "t": 188579.17823437596,
      "d": 545.2753593749949,
      "v": 69
    },
    {
      "midi": 52,
      "hit": false,
      "t": 188579.17823437596,
      "d": 596.2952760416665,
      "v": 73
    },
    {
      "midi": 64,
      "hit": false,
      "t": 188582.36697916762,
      "d": 491.06669791665627,
      "v": 69
    },
    {
      "midi": 73,
      "hit": false,
      "t": 189806.84497916762,
      "d": 593.1065312499995,
      "v": 73
    },
    {
      "midi": 42,
      "hit": false,
      "t": 189806.84497916762,
      "d": 972.5671614583407,
      "v": 73
    },
    {
      "midi": 69,
      "hit": false,
      "t": 189810.0337239593,
      "d": 609.0502552083344,
      "v": 77
    },
    {
      "midi": 54,
      "hit": false,
      "t": 189810.0337239593,
      "d": 621.8052343750023,
      "v": 69
    },
    {
      "midi": 66,
      "hit": false,
      "t": 189813.22246875096,
      "d": 334.8182031250035,
      "v": 61
    },
    {
      "midi": 66,
      "hit": false,
      "t": 190415.89523437596,
      "d": 60.586151041672565,
      "v": 65
    },
    {
      "midi": 54,
      "hit": false,
      "t": 190722.01473437596,
      "d": 66.96364062500652,
      "v": 65
    },
    {
      "midi": 65,
      "hit": false,
      "t": 191031.32297916763,
      "d": 140.304770833347,
      "v": 61
    },
    {
      "midi": 37,
      "hit": false,
      "t": 191031.32297916763,
      "d": 660.070171875006,
      "v": 73
    },
    {
      "midi": 49,
      "hit": false,
      "t": 191031.32297916763,
      "d": 742.9775364583475,
      "v": 73
    },
    {
      "midi": 73,
      "hit": false,
      "t": 191034.5117239593,
      "d": 302.9307552083337,
      "v": 73
    },
    {
      "midi": 68,
      "hit": false,
      "t": 191034.5117239593,
      "d": 325.25196875000256,
      "v": 73
    },
    {
      "midi": 65,
      "hit": false,
      "t": 191334.25373437596,
      "d": 347.5731822916714,
      "v": 61
    },
    {
      "midi": 68,
      "hit": false,
      "t": 191640.37323437596,
      "d": 38.264937500003725,
      "v": 47
    },
    {
      "midi": 66,
      "hit": false,
      "t": 191946.49273437596,
      "d": 558.0303385416628,
      "v": 49
    },
    {
      "midi": 69,
      "hit": false,
      "t": 191946.49273437596,
      "d": 924.735989583336,
      "v": 69
    },
    {
      "midi": 73,
      "hit": false,
      "t": 191949.68147916763,
      "d": 931.11347916667,
      "v": 69
    },
    {
      "midi": 54,
      "hit": false,
      "t": 192252.61223437596,
      "d": 631.3714687500033,
      "v": 77
    },
    {
      "midi": 42,
      "hit": false,
      "t": 192252.61223437596,
      "d": 950.2459479166719,
      "v": 77
    },
    {
      "midi": 66,
      "hit": false,
      "t": 192861.6624895843,
      "d": 130.73853645834606,
      "v": 57
    },
    {
      "midi": 54,
      "hit": false,
      "t": 193167.7819895843,
      "d": 89.28485416667536,
      "v": 57
    },
    {
      "midi": 52,
      "hit": false,
      "t": 193480.27897916763,
      "d": 803.5636875000491,
      "v": 73
    },
    {
      "midi": 64,
      "hit": false,
      "t": 193483.4677239593,
      "d": 153.0597500000149,
      "v": 69
    },
    {
      "midi": 71,
      "hit": false,
      "t": 193483.4677239593,
      "d": 322.0632239583647,
      "v": 77
    },
    {
      "midi": 68,
      "hit": false,
      "t": 193483.4677239593,
      "d": 637.7489583333663,
      "v": 73
    },
    {
      "midi": 40,
      "hit": false,
      "t": 193483.4677239593,
      "d": 730.2225572917087,
      "v": 73
    },
    {
      "midi": 64,
      "hit": false,
      "t": 193780.02098958433,
      "d": 360.3281614583393,
      "v": 65
    },
    {
      "midi": 71,
      "hit": false,
      "t": 194089.329234376,
      "d": 117.98355729167815,
      "v": 65
    },
    {
      "midi": 66,
      "hit": false,
      "t": 194392.25998958436,
      "d": 507.01042187502026,
      "v": 65
    },
    {
      "midi": 69,
      "hit": false,
      "t": 194392.25998958436,
      "d": 902.4147760416963,
      "v": 77
    },
    {
      "midi": 73,
      "hit": false,
      "t": 194395.44873437603,
      "d": 886.4710520833614,
      "v": 77
    },
    {
      "midi": 42,
      "hit": false,
      "t": 194704.7569791677,
      "d": 934.3022239583661,
      "v": 81
    },
    {
      "midi": 66,
      "hit": false,
      "t": 195310.6184895844,
      "d": 86.09610937500838,
      "v": 73
    },
    {
      "midi": 54,
      "hit": false,
      "t": 195616.7379895844,
      "d": 82.9073645833414,
      "v": 81
    },
    {
      "midi": 65,
      "hit": false,
      "t": 195929.23497916773,
      "d": 143.49351562501397,
      "v": 73
    },
    {
      "midi": 68,
      "hit": false,
      "t": 195929.23497916773,
      "d": 379.4606302083412,
      "v": 73
    },
    {
      "midi": 37,
      "hit": false,
      "t": 195932.4237239594,
      "d": 682.3913854166749,
      "v": 73
    },
    {
      "midi": 49,
      "hit": false,
      "t": 195932.4237239594,
      "d": 746.1662812500144,
      "v": 77
    },
    {
      "midi": 73,
      "hit": false,
      "t": 195935.61246875106,
      "d": 328.44071354166954,
      "v": 69
    },
    {
      "midi": 65,
      "hit": false,
      "t": 196232.16573437606,
      "d": 344.3844375000044,
      "v": 69
    },
    {
      "midi": 68,
      "hit": false,
      "t": 196538.28523437606,
      "d": 89.28485416667536,
      "v": 65
    },
    {
      "midi": 66,
      "hit": false,
      "t": 196847.59347916773,
      "d": 433.6692916666798,
      "v": 53
    },
    {
      "midi": 73,
      "hit": false,
      "t": 196847.59347916773,
      "d": 931.11347916667,
      "v": 69
    },
    {
      "midi": 69,
      "hit": false,
      "t": 196847.59347916773,
      "d": 937.490968750004,
      "v": 73
    },
    {
      "midi": 42,
      "hit": false,
      "t": 197150.52423437606,
      "d": 931.11347916667,
      "v": 81
    },
    {
      "midi": 66,
      "hit": false,
      "t": 197762.76323437606,
      "d": 127.54979166667908,
      "v": 65
    },
    {
      "midi": 54,
      "hit": false,
      "t": 198068.88273437606,
      "d": 114.79481250001118,
      "v": 77
    },
    {
      "midi": 64,
      "hit": false,
      "t": 198378.19097916773,
      "d": 178.5697083333216,
      "v": 73
    },
    {
      "midi": 68,
      "hit": false,
      "t": 198378.19097916773,
      "d": 369.89439583334024,
      "v": 77
    },
    {
      "midi": 52,
      "hit": false,
      "t": 198381.3797239594,
      "d": 580.3515520833316,
      "v": 73
    },
    {
      "midi": 71,
      "hit": false,
      "t": 198381.3797239594,
      "d": 672.825151041674,
      "v": 81
    },
    {
      "midi": 40,
      "hit": false,
      "t": 198384.56846875107,
      "d": 787.6199635416851,
      "v": 69
    },
    {
      "midi": 64,
      "hit": false,
      "t": 198681.12173437607,
      "d": 357.13941666667233,
      "v": 69
    },
    {
      "midi": 68,
      "hit": false,
      "t": 198987.24123437607,
      "d": 66.96364062500652,
      "v": 57
    },
    {
      "midi": 73,
      "hit": false,
      "t": 199290.17198958443,
      "d": 1084.173229166685,
      "v": 77
    },
    {
      "midi": 42,
      "hit": false,
      "t": 199602.66897916776,
      "d": 1017.2095885417075,
      "v": 90
    },
    {
      "midi": 66,
      "hit": false,
      "t": 200211.7192343761,
      "d": 121.17230208334513,
      "v": 73
    },
    {
      "midi": 69,
      "hit": false,
      "t": 200211.7192343761,
      "d": 133.92728125001304,
      "v": 77
    },
    {
      "midi": 54,
      "hit": false,
      "t": 200517.83873437613,
      "d": 66.96364062500652,
      "v": 77
    },
    {
      "midi": 65,
      "hit": false,
      "t": 200827.1469791678,
      "d": 169.00347395832068,
      "v": 69
    },
    {
      "midi": 68,
      "hit": false,
      "t": 200827.1469791678,
      "d": 334.8182031250035,
      "v": 69
    },
    {
      "midi": 73,
      "hit": false,
      "t": 200830.33572395946,
      "d": 621.8052343750023,
      "v": 77
    },
    {
      "midi": 49,
      "hit": false,
      "t": 200830.33572395946,
      "d": 660.070171875006,
      "v": 77
    },
    {
      "midi": 37,
      "hit": false,
      "t": 200830.33572395946,
      "d": 896.0372864583333,
      "v": 73
    },
    {
      "midi": 65,
      "hit": false,
      "t": 201130.07773437613,
      "d": 331.6294583333365,
      "v": 69
    },
    {
      "midi": 68,
      "hit": false,
      "t": 201436.19723437613,
      "d": 102.03983333334327,
      "v": 69
    },
    {
      "midi": 49,
      "hit": false,
      "t": 201739.12798958446,
      "d": 57.39740625000559,
      "v": 45
    },
    {
      "midi": 66,
      "hit": false,
      "t": 201888.9989947928,
      "d": 548.4641041666619,
      "v": 49
    },
    {
      "midi": 73,
      "hit": false,
      "t": 202051.6249791678,
      "d": 465.55673958334955,
      "v": 65
    },
    {
      "midi": 54,
      "hit": false,
      "t": 202051.6249791678,
      "d": 4598.169989583432,
      "v": 49
    },
    {
      "midi": 69,
      "hit": false,
      "t": 202058.00246875113,
      "d": 478.31171875001746,
      "v": 53
    },
    {
      "midi": 42,
      "hit": false,
      "t": 202058.00246875113,
      "d": 4630.0574375001015,
      "v": 49
    },
    {
      "midi": 69,
      "hit": false,
      "t": 202963.6059895845,
      "d": 752.5437708333484,
      "v": 53
    },
    {
      "midi": 73,
      "hit": false,
      "t": 203269.7254895845,
      "d": 494.25544270835235,
      "v": 69
    },
    {
      "midi": 78,
      "hit": false,
      "t": 203269.7254895845,
      "d": 516.5766562500212,
      "v": 73
    },
    {
      "midi": 73,
      "hit": false,
      "t": 204188.08398958453,
      "d": 424.10305729167885,
      "v": 65
    },
    {
      "midi": 81,
      "hit": false,
      "t": 204497.3922343762,
      "d": 47.83117187500466,
      "v": 61
    },
    {
      "midi": 69,
      "hit": false,
      "t": 205415.7507343762,
      "d": 63.77489583333954,
      "v": 73
    },
    {
      "midi": 66,
      "hit": false,
      "t": 205415.7507343762,
      "d": 82.9073645833414,
      "v": 73
    },
    {
      "midi": 66,
      "hit": false,
      "t": 205565.62173958455,
      "d": 57.39740625000559,
      "v": 47
    },
    {
      "midi": 69,
      "hit": false,
      "t": 205565.62173958455,
      "d": 73.34113020834047,
      "v": 77
    },
    {
      "midi": 66,
      "hit": false,
      "t": 205725.0589791679,
      "d": 299.74201041666674,
      "v": 65
    },
    {
      "midi": 69,
      "hit": false,
      "t": 205728.24772395956,
      "d": 519.7654010416591,
      "v": 77
    },
    {
      "midi": 68,
      "hit": false,
      "t": 206184.23822916788,
      "d": 430.4805468750128,
      "v": 57
    },
    {
      "midi": 71,
      "hit": false,
      "t": 206184.23822916788,
      "d": 436.85803645834676,
      "v": 73
    },
    {
      "midi": 69,
      "hit": false,
      "t": 206643.4174791679,
      "d": 44.64242708333768,
      "v": 73
    },
    {
      "midi": 73,
      "hit": false,
      "t": 206643.4174791679,
      "d": 146.68226041668095,
      "v": 77
    },
    {
      "midi": 68,
      "hit": false,
      "t": 206946.34823437623,
      "d": 1492.3325624999998,
      "v": 77
    },
    {
      "midi": 71,
      "hit": false,
      "t": 206949.5369791679,
      "d": 1501.8987968750007,
      "v": 81
    },
    {
      "midi": 52,
      "hit": false,
      "t": 206949.5369791679,
      "d": 1792.0745729166665,
      "v": 77
    },
    {
      "midi": 76,
      "hit": false,
      "t": 206949.5369791679,
      "d": 1868.604447916674,
      "v": 81
    },
    {
      "midi": 40,
      "hit": false,
      "t": 206949.5369791679,
      "d": 2200.2339062500105,
      "v": 73
    },
    {
      "midi": 68,
      "hit": false,
      "t": 208783.06523437623,
      "d": 92.47359895834234,
      "v": 77
    },
    {
      "midi": 71,
      "hit": false,
      "t": 208783.06523437623,
      "d": 92.47359895834234,
      "v": 73
    },
    {
      "midi": 64,
      "hit": false,
      "t": 208783.06523437623,
      "d": 102.03983333334327,
      "v": 77
    },
    {
      "midi": 52,
      "hit": false,
      "t": 209085.99598958457,
      "d": 92.47359895834234,
      "v": 69
    },
    {
      "midi": 64,
      "hit": false,
      "t": 209395.30423437624,
      "d": 529.33163541666,
      "v": 73
    },
    {
      "midi": 68,
      "hit": false,
      "t": 209395.30423437624,
      "d": 535.709124999994,
      "v": 81
    },
    {
      "midi": 71,
      "hit": false,
      "t": 209395.30423437624,
      "d": 551.6528489583288,
      "v": 81
    },
    {
      "midi": 40,
      "hit": false,
      "t": 209395.30423437624,
      "d": 1887.7369166666758,
      "v": 77
    },
    {
      "midi": 74,
      "hit": false,
      "t": 209398.4929791679,
      "d": 535.709124999994,
      "v": 73
    },
    {
      "midi": 52,
      "hit": false,
      "t": 209398.4929791679,
      "d": 1894.1144062500098,
      "v": 77
    },
    {
      "midi": 68,
      "hit": false,
      "t": 210310.47398958457,
      "d": 207.2684114583244,
      "v": 77
    },
    {
      "midi": 64,
      "hit": false,
      "t": 210313.66273437624,
      "d": 172.19221874998766,
      "v": 77
    },
    {
      "midi": 71,
      "hit": false,
      "t": 210313.66273437624,
      "d": 204.07966666665743,
      "v": 81
    },
    {
      "midi": 64,
      "hit": false,
      "t": 210619.78223437624,
      "d": 373.0831406250072,
      "v": 73
    },
    {
      "midi": 68,
      "hit": false,
      "t": 210619.78223437624,
      "d": 373.0831406250072,
      "v": 77
    },
    {
      "midi": 71,
      "hit": false,
      "t": 210619.78223437624,
      "d": 408.15933333334397,
      "v": 81
    },
    {
      "midi": 68,
      "hit": false,
      "t": 211232.02123437624,
      "d": 102.03983333334327,
      "v": 73
    },
    {
      "midi": 64,
      "hit": false,
      "t": 211232.02123437624,
      "d": 108.41732291667722,
      "v": 81
    },
    {
      "midi": 76,
      "hit": false,
      "t": 211232.02123437624,
      "d": 143.49351562501397,
      "v": 90
    },
    {
      "midi": 71,
      "hit": false,
      "t": 211232.02123437624,
      "d": 149.87100520834792,
      "v": 77
    },
    {
      "midi": 64,
      "hit": false,
      "t": 211844.26023437624,
      "d": 392.2156093750091,
      "v": 90
    },
    {
      "midi": 57,
      "hit": false,
      "t": 211844.26023437624,
      "d": 634.5602135416702,
      "v": 77
    },
    {
      "midi": 45,
      "hit": false,
      "t": 211844.26023437624,
      "d": 666.44766145834,
      "v": 90
    },
    {
      "midi": 73,
      "hit": false,
      "t": 211847.4489791679,
      "d": 609.0502552083344,
      "v": 81
    },
    {
      "midi": 69,
      "hit": false,
      "t": 211847.4489791679,
      "d": 640.9377031250042,
      "v": 81
    },
    {
      "midi": 64,
      "hit": false,
      "t": 212456.49923437624,
      "d": 114.79481250001118,
      "v": 73
    },
    {
      "midi": 73,
      "hit": false,
      "t": 212759.42998958458,
      "d": 111.6060677083442,
      "v": 73
    },
    {
      "midi": 64,
      "hit": false,
      "t": 212762.61873437624,
      "d": 41.4536822916707,
      "v": 73
    },
    {
      "midi": 69,
      "hit": false,
      "t": 212762.61873437624,
      "d": 51.019916666671634,
      "v": 73
    },
    {
      "midi": 66,
      "hit": false,
      "t": 213068.73823437624,
      "d": 363.5169062500063,
      "v": 73
    },
    {
      "midi": 50,
      "hit": false,
      "t": 213071.9269791679,
      "d": 612.2390000000014,
      "v": 77
    },
    {
      "midi": 69,
      "hit": false,
      "t": 213071.9269791679,
      "d": 650.5039375000051,
      "v": 81
    },
    {
      "midi": 38,
      "hit": false,
      "t": 213071.9269791679,
      "d": 711.0900885416777,
      "v": 73
    },
    {
      "midi": 74,
      "hit": false,
      "t": 213075.11572395958,
      "d": 899.2260312500002,
      "v": 73
    },
    {
      "midi": 66,
      "hit": false,
      "t": 213680.97723437625,
      "d": 328.44071354166954,
      "v": 73
    },
    {
      "midi": 69,
      "hit": false,
      "t": 213983.90798958458,
      "d": 89.28485416667536,
      "v": 77
    },
    {
      "midi": 37,
      "hit": false,
      "t": 214293.21623437625,
      "d": 554.8415937499958,
      "v": 73
    },
    {
      "midi": 49,
      "hit": false,
      "t": 214293.21623437625,
      "d": 596.2952760416665,
      "v": 77
    },
    {
      "midi": 73,
      "hit": false,
      "t": 214293.21623437625,
      "d": 631.3714687500033,
      "v": 73
    },
    {
      "midi": 65,
      "hit": false,
      "t": 214296.4049791679,
      "d": 580.3515520833316,
      "v": 73
    },
    {
      "midi": 68,
      "hit": false,
      "t": 214296.4049791679,
      "d": 580.3515520833316,
      "v": 81
    },
    {
      "midi": 54,
      "hit": false,
      "t": 215514.50548958458,
      "d": 2385.181104166666,
      "v": 77
    },
    {
      "midi": 61,
      "hit": false,
      "t": 215514.50548958458,
      "d": 2404.313572916668,
      "v": 73
    },
    {
      "midi": 42,
      "hit": false,
      "t": 215517.69423437625,
      "d": 723.8450677083456,
      "v": 77
    },
    {
      "midi": 66,
      "hit": false,
      "t": 215517.69423437625,
      "d": 2394.747338541667,
      "v": 77
    },
    {
      "midi": 69,
      "hit": false,
      "t": 215517.69423437625,
      "d": 2407.502317708335,
      "v": 81
    },
    {
      "midi": 42,
      "hit": false,
      "t": 216432.86398958458,
      "d": 130.73853645834606,
      "v": 73
    },
    {
      "midi": 42,
      "hit": false,
      "t": 216742.17223437625,
      "d": 1132.0044010416605,
      "v": 77
    },
    {
      "midi": 54,
      "hit": false,
      "t": 218582.07797916792,
      "d": 366.70565104167326,
      "v": 81
    },
    {
      "midi": 73,
      "hit": false,
      "t": 218582.07797916792,
      "d": 366.70565104167326,
      "v": 81
    },
    {
      "midi": 66,
      "hit": false,
      "t": 218585.2667239596,
      "d": 334.8182031250035,
      "v": 81
    },
    {
      "midi": 42,
      "hit": false,
      "t": 218585.2667239596,
      "d": 338.00694791667047,
      "v": 90
    },
    {
      "midi": 78,
      "hit": false,
      "t": 218588.45546875126,
      "d": 277.4207968749979,
      "v": 81
    },
    {
      "midi": 69,
      "hit": false,
      "t": 218588.45546875126,
      "d": 302.9307552083337,
      "v": 90
    },
    {
      "midi": 54,
      "hit": false,
      "t": 219803.36723437626,
      "d": 414.5368229166779,
      "v": 90
    },
    {
      "midi": 42,
      "hit": false,
      "t": 219806.55597916793,
      "d": 395.40435416667606,
      "v": 90
    },
    {
      "midi": 73,
      "hit": false,
      "t": 219806.55597916793,
      "d": 408.15933333334397,
      "v": 81
    },
    {
      "midi": 78,
      "hit": false,
      "t": 219809.7447239596,
      "d": 331.6294583333365,
      "v": 90
    },
    {
      "midi": 66,
      "hit": false,
      "t": 219809.7447239596,
      "d": 366.70565104167326,
      "v": 81
    },
    {
      "midi": 69,
      "hit": false,
      "t": 219812.93346875126,
      "d": 363.5169062500063,
      "v": 81
    },
    {
      "midi": 69,
      "hit": false,
      "t": 221027.84523437626,
      "d": 382.64937500000815,
      "v": 99
    },
    {
      "midi": 54,
      "hit": false,
      "t": 221027.84523437626,
      "d": 389.0268645833421,
      "v": 90
    },
    {
      "midi": 42,
      "hit": false,
      "t": 221027.84523437626,
      "d": 401.78184375001,
      "v": 99
    },
    {
      "midi": 78,
      "hit": false,
      "t": 221031.03397916793,
      "d": 318.8744791666686,
      "v": 90
    },
    {
      "midi": 66,
      "hit": false,
      "t": 221031.03397916793,
      "d": 360.3281614583393,
      "v": 81
    },
    {
      "midi": 73,
      "hit": false,
      "t": 221031.03397916793,
      "d": 395.40435416667606,
      "v": 90
    },
    {
      "midi": 64,
      "hit": false,
      "t": 222870.9397239596,
      "d": 1728.299677083327,
      "v": 81
    },
    {
      "midi": 71,
      "hit": false,
      "t": 222870.9397239596,
      "d": 2091.8165833333624,
      "v": 77
    },
    {
      "midi": 40,
      "hit": false,
      "t": 222874.12846875127,
      "d": 621.8052343750023,
      "v": 90
    },
    {
      "midi": 68,
      "hit": false,
      "t": 222874.12846875127,
      "d": 1961.0780468750163,
      "v": 81
    },
    {
      "midi": 52,
      "hit": false,
      "t": 222877.31721354293,
      "d": 1897.3031510416768,
      "v": 81
    },
    {
      "midi": 76,
      "hit": false,
      "t": 222877.31721354293,
      "d": 2120.515286458365,
      "v": 81
    },
    {
      "midi": 40,
      "hit": false,
      "t": 223779.7319895846,
      "d": 121.17230208334513,
      "v": 81
    },
    {
      "midi": 40,
      "hit": false,
      "t": 224085.8514895846,
      "d": 848.2061145833577,
      "v": 90
    },
    {
      "midi": 64,
      "hit": false,
      "t": 224701.27923437627,
      "d": 261.4770729166921,
      "v": 77
    },
    {
      "midi": 40,
      "hit": false,
      "t": 225313.5182343763,
      "d": 373.0831406250072,
      "v": 73
    },
    {
      "midi": 74,
      "hit": false,
      "t": 225313.5182343763,
      "d": 669.636406250007,
      "v": 69
    },
    {
      "midi": 64,
      "hit": false,
      "t": 225313.5182343763,
      "d": 685.5801302083419,
      "v": 73
    },
    {
      "midi": 68,
      "hit": false,
      "t": 225313.5182343763,
      "d": 695.1463645833428,
      "v": 69
    },
    {
      "midi": 71,
      "hit": false,
      "t": 225316.70697916797,
      "d": 676.0138958333409,
      "v": 73
    },
    {
      "midi": 52,
      "hit": false,
      "t": 225316.70697916797,
      "d": 1970.6442812500172,
      "v": 77
    },
    {
      "midi": 40,
      "hit": false,
      "t": 226228.68798958464,
      "d": 98.85108854167629,
      "v": 77
    },
    {
      "midi": 64,
      "hit": false,
      "t": 226537.9962343763,
      "d": 739.7887916666805,
      "v": 69
    },
    {
      "midi": 71,
      "hit": false,
      "t": 226537.9962343763,
      "d": 755.7325156250154,
      "v": 73
    },
    {
      "midi": 40,
      "hit": false,
      "t": 226537.9962343763,
      "d": 762.1100052083493,
      "v": 73
    },
    {
      "midi": 68,
      "hit": false,
      "t": 226537.9962343763,
      "d": 771.6762395833503,
      "v": 73
    },
    {
      "midi": 64,
      "hit": false,
      "t": 227762.4742343763,
      "d": 822.6961562499928,
      "v": 81
    },
    {
      "midi": 73,
      "hit": false,
      "t": 227762.4742343763,
      "d": 822.6961562499928,
      "v": 69
    },
    {
      "midi": 69,
      "hit": false,
      "t": 227762.4742343763,
      "d": 838.6398802083277,
      "v": 77
    },
    {
      "midi": 57,
      "hit": false,
      "t": 227765.66297916797,
      "d": 6.377489583333954,
      "v": 73
    },
    {
      "midi": 45,
      "hit": false,
      "t": 227765.66297916797,
      "d": 803.5636874999909,
      "v": 77
    },
    {
      "midi": 64,
      "hit": false,
      "t": 228986.9522343763,
      "d": 554.8415937499958,
      "v": 77
    },
    {
      "midi": 40,
      "hit": false,
      "t": 228986.9522343763,
      "d": 621.8052343750023,
      "v": 77
    },
    {
      "midi": 71,
      "hit": false,
      "t": 228986.9522343763,
      "d": 624.9939791666693,
      "v": 81
    },
    {
      "midi": 68,
      "hit": false,
      "t": 228986.9522343763,
      "d": 628.1827239583363,
      "v": 77
    },
    {
      "midi": 52,
      "hit": false,
      "t": 228986.9522343763,
      "d": 682.3913854166749,
      "v": 81
    },
    {
      "midi": 64,
      "hit": false,
      "t": 229599.1912343763,
      "d": 117.98355729167815,
      "v": 65
    },
    {
      "midi": 66,
      "hit": false,
      "t": 230211.4302343763,
      "d": 344.3844375000044,
      "v": 77
    },
    {
      "midi": 47,
      "hit": false,
      "t": 230211.4302343763,
      "d": 510.19916666668723,
      "v": 77
    },
    {
      "midi": 71,
      "hit": false,
      "t": 230211.4302343763,
      "d": 589.9177864583617,
      "v": 90
    },
    {
      "midi": 63,
      "hit": false,
      "t": 230214.61897916798,
      "d": 149.87100520834792,
      "v": 81
    },
    {
      "midi": 59,
      "hit": false,
      "t": 230214.61897916798,
      "d": 443.2355260416807,
      "v": 81
    },
    {
      "midi": 63,
      "hit": false,
      "t": 230514.36098958465,
      "d": 338.0069479166996,
      "v": 73
    },
    {
      "midi": 66,
      "hit": false,
      "t": 230823.66923437634,
      "d": 102.03983333334327,
      "v": 69
    },
    {
      "midi": 68,
      "hit": false,
      "t": 231126.59998958468,
      "d": 963.0009270833398,
      "v": 81
    },
    {
      "midi": 64,
      "hit": false,
      "t": 231129.78873437634,
      "d": 628.1827239583363,
      "v": 81
    },
    {
      "midi": 71,
      "hit": false,
      "t": 231129.78873437634,
      "d": 873.7160729166644,
      "v": 73
    },
    {
      "midi": 40,
      "hit": false,
      "t": 231439.096979168,
      "d": 663.258916666673,
      "v": 81
    },
    {
      "midi": 52,
      "hit": false,
      "t": 231439.096979168,
      "d": 666.44766145834,
      "v": 77
    },
    {
      "midi": 64,
      "hit": false,
      "t": 232048.14723437635,
      "d": 140.304770833347,
      "v": 69
    },
    {
      "midi": 63,
      "hit": false,
      "t": 232657.19748958468,
      "d": 561.2190833333298,
      "v": 77
    },
    {
      "midi": 59,
      "hit": false,
      "t": 232660.38623437635,
      "d": 522.954145833326,
      "v": 73
    },
    {
      "midi": 66,
      "hit": false,
      "t": 232660.38623437635,
      "d": 558.0303385416628,
      "v": 77
    },
    {
      "midi": 71,
      "hit": false,
      "t": 232660.38623437635,
      "d": 586.7290416666656,
      "v": 81
    },
    {
      "midi": 47,
      "hit": false,
      "t": 232660.38623437635,
      "d": 589.9177864583326,
      "v": 77
    },
    {
      "midi": 64,
      "hit": false,
      "t": 233884.86423437632,
      "d": 427.29180208334583,
      "v": 77
    },
    {
      "midi": 40,
      "hit": false,
      "t": 233884.86423437632,
      "d": 813.1299218749919,
      "v": 81
    },
    {
      "midi": 52,
      "hit": false,
      "t": 233884.86423437632,
      "d": 854.5836041666626,
      "v": 81
    },
    {
      "midi": 71,
      "hit": false,
      "t": 233884.86423437632,
      "d": 927.924734375003,
      "v": 81
    },
    {
      "midi": 68,
      "hit": false,
      "t": 233888.052979168,
      "d": 647.3151927083381,
      "v": 81
    },
    {
      "midi": 64,
      "hit": false,
      "t": 234497.10323437632,
      "d": 376.2718854166742,
      "v": 65
    },
    {
      "midi": 68,
      "hit": false,
      "t": 234800.03398958466,
      "d": 137.11602604168002,
      "v": 65
    },
    {
      "midi": 71,
      "hit": false,
      "t": 235106.15348958466,
      "d": 698.3351093750098,
      "v": 77
    },
    {
      "midi": 59,
      "hit": false,
      "t": 235109.34223437632,
      "d": 637.7489583333372,
      "v": 73
    },
    {
      "midi": 63,
      "hit": false,
      "t": 235109.34223437632,
      "d": 656.8814270833391,
      "v": 77
    },
    {
      "midi": 47,
      "hit": false,
      "t": 235109.34223437632,
      "d": 672.825151041674,
      "v": 77
    },
    {
      "midi": 66,
      "hit": false,
      "t": 235109.34223437632,
      "d": 682.3913854166749,
      "v": 81
    },
    {
      "midi": 50,
      "hit": false,
      "t": 236337.008979168,
      "d": 475.1229739583505,
      "v": 81
    },
    {
      "midi": 38,
      "hit": false,
      "t": 236337.008979168,
      "d": 711.0900885417068,
      "v": 73
    },
    {
      "midi": 74,
      "hit": false,
      "t": 236337.008979168,
      "d": 1808.0182968750305,
      "v": 73
    },
    {
      "midi": 62,
      "hit": false,
      "t": 236340.19772395966,
      "d": 430.4805468750128,
      "v": 73
    },
    {
      "midi": 69,
      "hit": false,
      "t": 236340.19772395966,
      "d": 593.1065312500286,
      "v": 77
    },
    {
      "midi": 66,
      "hit": false,
      "t": 236340.19772395966,
      "d": 596.2952760416956,
      "v": 81
    },
    {
      "midi": 38,
      "hit": false,
      "t": 237252.17873437636,
      "d": 133.92728125001304,
      "v": 69
    },
    {
      "midi": 62,
      "hit": false,
      "t": 237561.48697916802,
      "d": 334.8182031250035,
      "v": 77
    },
    {
      "midi": 69,
      "hit": false,
      "t": 237561.48697916802,
      "d": 656.8814270833391,
      "v": 81
    },
    {
      "midi": 66,
      "hit": false,
      "t": 237561.48697916802,
      "d": 660.070171875006,
      "v": 73
    },
    {
      "midi": 38,
      "hit": false,
      "t": 237561.48697916802,
      "d": 1029.9645677083463,
      "v": 90
    },
    {
      "midi": 62,
      "hit": false,
      "t": 238170.53723437636,
      "d": 124.36104687501211,
      "v": 77
    },
    {
      "midi": 50,
      "hit": false,
      "t": 238476.65673437636,
      "d": 111.6060677083442,
      "v": 65
    },
    {
      "midi": 73,
      "hit": false,
      "t": 238782.77623437636,
      "d": 235.9671145833563,
      "v": 77
    },
    {
      "midi": 37,
      "hit": false,
      "t": 238782.77623437636,
      "d": 1849.4719791667012,
      "v": 69
    },
    {
      "midi": 65,
      "hit": false,
      "t": 238785.96497916803,
      "d": 191.32468750001863,
      "v": 90
    },
    {
      "midi": 61,
      "hit": false,
      "t": 238785.96497916803,
      "d": 197.70217708335258,
      "v": 81
    },
    {
      "midi": 68,
      "hit": false,
      "t": 238785.96497916803,
      "d": 229.58962500002235,
      "v": 81
    },
    {
      "midi": 49,
      "hit": false,
      "t": 238785.96497916803,
      "d": 1941.9455781250435,
      "v": 90
    },
    {
      "midi": 73,
      "hit": false,
      "t": 239395.0152343764,
      "d": 1275.4979166666744,
      "v": 73
    },
    {
      "midi": 77,
      "hit": false,
      "t": 239701.1347343764,
      "d": 373.0831406250072,
      "v": 90
    },
    {
      "midi": 80,
      "hit": false,
      "t": 240007.2542343764,
      "d": 669.636406250007,
      "v": 77
    },
    {
      "midi": 77,
      "hit": false,
      "t": 240313.3737343764,
      "d": 360.3281614583393,
      "v": 81
    },
    {
      "midi": 85,
      "hit": false,
      "t": 240616.30448958473,
      "d": 66.96364062500652,
      "v": 77
    },
    {
      "midi": 69,
      "hit": false,
      "t": 241238.10972395973,
      "d": 896.0372864583333,
      "v": 81
    },
    {
      "midi": 73,
      "hit": false,
      "t": 241238.10972395973,
      "d": 1868.604447916674,
      "v": 73
    },
    {
      "midi": 42,
      "hit": false,
      "t": 241241.2984687514,
      "d": 567.5965729166637,
      "v": 77
    },
    {
      "midi": 66,
      "hit": false,
      "t": 241241.2984687514,
      "d": 883.2823072916653,
      "v": 73
    },
    {
      "midi": 54,
      "hit": false,
      "t": 241241.2984687514,
      "d": 1941.9455781250144,
      "v": 77
    },
    {
      "midi": 42,
      "hit": false,
      "t": 242146.90198958473,
      "d": 98.85108854167629,
      "v": 69
    },
    {
      "midi": 42,
      "hit": false,
      "t": 242453.02148958473,
      "d": 803.56368750002,
      "v": 73
    },
    {
      "midi": 66,
      "hit": false,
      "t": 242456.2102343764,
      "d": 146.68226041668095,
      "v": 61
    },
    {
      "midi": 69,
      "hit": false,
      "t": 242456.2102343764,
      "d": 341.19569270833745,
      "v": 77
    },
    {
      "midi": 66,
      "hit": false,
      "t": 242759.14098958473,
      "d": 663.2589166667021,
      "v": 69
    },
    {
      "midi": 69,
      "hit": false,
      "t": 243065.26048958473,
      "d": 312.49698958336376,
      "v": 69
    },
    {
      "midi": 73,
      "hit": false,
      "t": 243371.37998958476,
      "d": 124.36104687501211,
      "v": 65
    },
    {
      "midi": 68,
      "hit": false,
      "t": 243683.8769791681,
      "d": 711.0900885416777,
      "v": 73
    },
    {
      "midi": 64,
      "hit": false,
      "t": 243683.8769791681,
      "d": 1785.6970833333326,
      "v": 69
    },
    {
      "midi": 52,
      "hit": false,
      "t": 243683.8769791681,
      "d": 1843.0944895833381,
      "v": 73
    },
    {
      "midi": 71,
      "hit": false,
      "t": 243687.06572395976,
      "d": 672.825151041674,
      "v": 77
    },
    {
      "midi": 40,
      "hit": false,
      "t": 243690.25446875143,
      "d": 602.6727656250005,
      "v": 73
    },
    {
      "midi": 40,
      "hit": false,
      "t": 244595.85798958477,
      "d": 127.54979166667908,
      "v": 69
    },
    {
      "midi": 68,
      "hit": false,
      "t": 244905.16623437643,
      "d": 640.9377031250042,
      "v": 65
    },
    {
      "midi": 71,
      "hit": false,
      "t": 244905.16623437643,
      "d": 656.8814270833391,
      "v": 69
    },
    {
      "midi": 40,
      "hit": false,
      "t": 244905.16623437643,
      "d": 682.3913854166749,
      "v": 77
    },
    {
      "midi": 73,
      "hit": false,
      "t": 246129.64423437644,
      "d": 580.3515520833316,
      "v": 77
    },
    {
      "midi": 54,
      "hit": false,
      "t": 246129.64423437644,
      "d": 663.258916666673,
      "v": 69
    },
    {
      "midi": 69,
      "hit": false,
      "t": 246129.64423437644,
      "d": 663.258916666673,
      "v": 81
    },
    {
      "midi": 42,
      "hit": false,
      "t": 246129.64423437644,
      "d": 755.7325156250154,
      "v": 77
    },
    {
      "midi": 66,
      "hit": false,
      "t": 246132.8329791681,
      "d": 369.89439583334024,
      "v": 65
    },
    {
      "midi": 66,
      "hit": false,
      "t": 246738.69448958477,
      "d": 309.3082447916677,
      "v": 65
    },
    {
      "midi": 69,
      "hit": false,
      "t": 247044.81398958477,
      "d": 82.9073645833414,
      "v": 77
    },
    {
      "midi": 68,
      "hit": false,
      "t": 247357.3109791681,
      "d": 599.4840208333335,
      "v": 65
    },
    {
      "midi": 65,
      "hit": false,
      "t": 247360.49972395977,
      "d": 554.8415937499958,
      "v": 69
    },
    {
      "midi": 37,
      "hit": false,
      "t": 247360.49972395977,
      "d": 618.6164895833354,
      "v": 77
    },
    {
      "midi": 49,
      "hit": false,
      "t": 247360.49972395977,
      "d": 717.4675781250116,
      "v": 69
    },
    {
      "midi": 73,
      "hit": false,
      "t": 247363.68846875144,
      "d": 558.0303385416628,
      "v": 73
    },
    {
      "midi": 61,
      "hit": false,
      "t": 248578.60023437644,
      "d": 258.28832812502515,
      "v": 69
    },
    {
      "midi": 66,
      "hit": false,
      "t": 248578.60023437644,
      "d": 283.79828645836096,
      "v": 73
    },
    {
      "midi": 69,
      "hit": false,
      "t": 248578.60023437644,
      "d": 306.1195000000298,
      "v": 77
    },
    {
      "midi": 42,
      "hit": false,
      "t": 248578.60023437644,
      "d": 2075.8728593750566,
      "v": 73
    },
    {
      "midi": 54,
      "hit": false,
      "t": 248581.7889791681,
      "d": 1935.5680885417096,
      "v": 65
    },
    {
      "midi": 69,
      "hit": false,
      "t": 249493.7699895848,
      "d": 1294.6303854167054,
      "v": 65
    },
    {
      "midi": 78,
      "hit": false,
      "t": 249799.8894895848,
      "d": 618.6164895833354,
      "v": 69
    },
    {
      "midi": 73,
      "hit": false,
      "t": 250106.0089895848,
      "d": 436.85803645834676,
      "v": 77
    },
    {
      "midi": 81,
      "hit": false,
      "t": 250412.1284895848,
      "d": 235.9671145833563,
      "v": 48
    },
    {
      "midi": 78,
      "hit": false,
      "t": 250718.24798958484,
      "d": 73.34113020834047,
      "v": 69
    },
    {
      "midi": 42,
      "hit": false,
      "t": 251030.74497916817,
      "d": 596.2952760416665,
      "v": 73
    },
    {
      "midi": 66,
      "hit": false,
      "t": 251037.1224687515,
      "d": 341.19569270833745,
      "v": 65
    },
    {
      "midi": 69,
      "hit": false,
      "t": 251037.1224687515,
      "d": 567.5965729166637,
      "v": 73
    },
    {
      "midi": 73,
      "hit": false,
      "t": 251040.31121354317,
      "d": 551.6528489583288,
      "v": 73
    },
    {
      "midi": 54,
      "hit": false,
      "t": 251040.31121354317,
      "d": 1498.7100520833628,
      "v": 65
    },
    {
      "midi": 66,
      "hit": false,
      "t": 251636.60648958484,
      "d": 165.8147291666537,
      "v": 69
    },
    {
      "midi": 78,
      "hit": false,
      "t": 251942.72598958484,
      "d": 117.98355729167815,
      "v": 65
    },
    {
      "midi": 69,
      "hit": false,
      "t": 251945.9147343765,
      "d": 70.1523854166735,
      "v": 77
    },
    {
      "midi": 73,
      "hit": false,
      "t": 251945.9147343765,
      "d": 98.85108854167629,
      "v": 77
    },
    {
      "midi": 42,
      "hit": false,
      "t": 251945.9147343765,
      "d": 102.03983333334327,
      "v": 69
    },
    {
      "midi": 78,
      "hit": false,
      "t": 252252.0342343765,
      "d": 226.40088020835537,
      "v": 73
    },
    {
      "midi": 73,
      "hit": false,
      "t": 252252.0342343765,
      "d": 271.04330729169305,
      "v": 77
    },
    {
      "midi": 69,
      "hit": false,
      "t": 252252.0342343765,
      "d": 290.1757760416949,
      "v": 77
    },
    {
      "midi": 42,
      "hit": false,
      "t": 252252.0342343765,
      "d": 758.9212604167114,
      "v": 73
    },
    {
      "midi": 66,
      "hit": false,
      "t": 252558.15373437654,
      "d": 669.636406250007,
      "v": 73
    },
    {
      "midi": 69,
      "hit": false,
      "t": 252864.27323437654,
      "d": 331.6294583333365,
      "v": 90
    },
    {
      "midi": 73,
      "hit": false,
      "t": 253170.39273437654,
      "d": 130.73853645834606,
      "v": 73
    },
    {
      "midi": 40,
      "hit": false,
      "t": 253476.51223437654,
      "d": 660.070171875006,
      "v": 69
    },
    {
      "midi": 64,
      "hit": false,
      "t": 253476.51223437654,
      "d": 1390.2927291666856,
      "v": 77
    },
    {
      "midi": 71,
      "hit": false,
      "t": 253476.51223437654,
      "d": 1642.2035677083768,
      "v": 81
    },
    {
      "midi": 52,
      "hit": false,
      "t": 253476.51223437654,
      "d": 2024.852942708385,
      "v": 77
    },
    {
      "midi": 68,
      "hit": false,
      "t": 253479.7009791682,
      "d": 1613.504864583374,
      "v": 77
    },
    {
      "midi": 40,
      "hit": false,
      "t": 254391.68198958487,
      "d": 143.49351562501397,
      "v": 77
    },
    {
      "midi": 40,
      "hit": false,
      "t": 254700.99023437654,
      "d": 774.8649843750463,
      "v": 73
    },
    {
      "midi": 64,
      "hit": false,
      "t": 255007.10973437657,
      "d": 369.89439583334024,
      "v": 69
    },
    {
      "midi": 71,
      "hit": false,
      "t": 255313.22923437657,
      "d": 86.09610937500838,
      "v": 65
    },
    {
      "midi": 66,
      "hit": false,
      "t": 255928.65697916827,
      "d": 264.66581770833,
      "v": 65
    },
    {
      "midi": 69,
      "hit": false,
      "t": 255928.65697916827,
      "d": 593.1065312499995,
      "v": 77
    },
    {
      "midi": 54,
      "hit": false,
      "t": 255931.84572395994,
      "d": 529.33163541666,
      "v": 77
    },
    {
      "midi": 42,
      "hit": false,
      "t": 255931.84572395994,
      "d": 736.6000468750135,
      "v": 69
    },
    {
      "midi": 73,
      "hit": false,
      "t": 255935.0344687516,
      "d": 564.4078281249967,
      "v": 73
    },
    {
      "midi": 66,
      "hit": false,
      "t": 256537.7072343766,
      "d": 363.5169062500063,
      "v": 53
    },
    {
      "midi": 69,
      "hit": false,
      "t": 256843.8267343766,
      "d": 79.71861979167443,
      "v": 77
    },
    {
      "midi": 65,
      "hit": false,
      "t": 257153.13497916827,
      "d": 153.0597500000149,
      "v": 69
    },
    {
      "midi": 68,
      "hit": false,
      "t": 257153.13497916827,
      "d": 328.44071354166954,
      "v": 61
    },
    {
      "midi": 73,
      "hit": false,
      "t": 257156.32372395994,
      "d": 318.8744791666686,
      "v": 77
    },
    {
      "midi": 37,
      "hit": false,
      "t": 257156.32372395994,
      "d": 691.9576197916758,
      "v": 73
    },
    {
      "midi": 49,
      "hit": false,
      "t": 257156.32372395994,
      "d": 723.8450677083456,
      "v": 77
    },
    {
      "midi": 65,
      "hit": false,
      "t": 257456.0657343766,
      "d": 382.64937500000815,
      "v": 73
    },
    {
      "midi": 68,
      "hit": false,
      "t": 257762.1852343766,
      "d": 105.22857812501024,
      "v": 61
    },
    {
      "midi": 66,
      "hit": false,
      "t": 258068.3047343766,
      "d": 991.6996302083135,
      "v": 65
    },
    {
      "midi": 69,
      "hit": false,
      "t": 258068.3047343766,
      "d": 1014.0208437499823,
      "v": 77
    },
    {
      "midi": 73,
      "hit": false,
      "t": 258071.49347916828,
      "d": 1017.2095885416493,
      "v": 73
    },
    {
      "midi": 42,
      "hit": false,
      "t": 258374.4242343766,
      "d": 666.4476614583109,
      "v": 81
    },
    {
      "midi": 64,
      "hit": false,
      "t": 259602.09097916825,
      "d": 149.87100520834792,
      "v": 65
    },
    {
      "midi": 68,
      "hit": false,
      "t": 259602.09097916825,
      "d": 612.2390000000014,
      "v": 69
    },
    {
      "midi": 40,
      "hit": false,
      "t": 259605.27972395992,
      "d": 739.7887916666805,
      "v": 69
    },
    {
      "midi": 52,
      "hit": false,
      "t": 259605.27972395992,
      "d": 784.4312187500182,
      "v": 69
    },
    {
      "midi": 71,
      "hit": false,
      "t": 259608.46846875158,
      "d": 325.25196875000256,
      "v": 77
    },
    {
      "midi": 64,
      "hit": false,
      "t": 259901.83298958492,
      "d": 341.19569270833745,
      "v": 73
    },
    {
      "midi": 71,
      "hit": false,
      "t": 260211.14123437658,
      "d": 114.79481250001118,
      "v": 69
    },
    {
      "midi": 66,
      "hit": false,
      "t": 260514.07198958495,
      "d": 494.25544270835235,
      "v": 65
    },
    {
      "midi": 69,
      "hit": false,
      "t": 260514.07198958495,
      "d": 918.3585000000312,
      "v": 77
    },
    {
      "midi": 73,
      "hit": false,
      "t": 260517.2607343766,
      "d": 889.6597968750284,
      "v": 73
    },
    {
      "midi": 42,
      "hit": false,
      "t": 260826.56897916828,
      "d": 963.0009270833689,
      "v": 77
    },
    {
      "midi": 66,
      "hit": false,
      "t": 261435.61923437665,
      "d": 117.98355729167815,
      "v": 49
    },
    {
      "midi": 54,
      "hit": false,
      "t": 261738.54998958498,
      "d": 70.1523854166735,
      "v": 73
    },
    {
      "midi": 49,
      "hit": false,
      "t": 262047.85823437665,
      "d": 845.0173697917489,
      "v": 73
    },
    {
      "midi": 65,
      "hit": false,
      "t": 262051.0469791683,
      "d": 133.92728125001304,
      "v": 61
    },
    {
      "midi": 37,
      "hit": false,
      "t": 262051.0469791683,
      "d": 771.6762395834085,
      "v": 69
    },
    {
      "midi": 68,
      "hit": false,
      "t": 262054.23572395998,
      "d": 338.0069479166996,
      "v": 73
    },
    {
      "midi": 73,
      "hit": false,
      "t": 262054.23572395998,
      "d": 650.5039375000633,
      "v": 73
    },
    {
      "midi": 65,
      "hit": false,
      "t": 262353.9777343767,
      "d": 357.13941666670144,
      "v": 65
    },
    {
      "midi": 68,
      "hit": false,
      "t": 262660.0972343767,
      "d": 86.09610937500838,
      "v": 57
    },
    {
      "midi": 66,
      "hit": false,
      "t": 262966.21673437674,
      "d": 487.8779531249893,
      "v": 65
    },
    {
      "midi": 73,
      "hit": false,
      "t": 262969.4054791684,
      "d": 899.2260312499711,
      "v": 73
    },
    {
      "midi": 69,
      "hit": false,
      "t": 262972.59422396007,
      "d": 886.4710520833032,
      "v": 77
    },
    {
      "midi": 42,
      "hit": false,
      "t": 263272.3362343767,
      "d": 902.4147760416963,
      "v": 81
    },
    {
      "midi": 66,
      "hit": false,
      "t": 263884.5752343767,
      "d": 108.41732291667722,
      "v": 65
    },
    {
      "midi": 54,
      "hit": false,
      "t": 264190.69473437674,
      "d": 92.47359895834234,
      "v": 73
    },
    {
      "midi": 64,
      "hit": false,
      "t": 264500.00297916844,
      "d": 149.87100520834792,
      "v": 73
    },
    {
      "midi": 68,
      "hit": false,
      "t": 264503.1917239601,
      "d": 612.2390000000596,
      "v": 69
    },
    {
      "midi": 40,
      "hit": false,
      "t": 264503.1917239601,
      "d": 813.1299218750792,
      "v": 73
    },
    {
      "midi": 52,
      "hit": false,
      "t": 264503.1917239601,
      "d": 857.7723489584168,
      "v": 77
    },
    {
      "midi": 71,
      "hit": false,
      "t": 264506.38046875177,
      "d": 309.3082447916968,
      "v": 77
    },
    {
      "midi": 64,
      "hit": false,
      "t": 264802.9337343768,
      "d": 341.19569270836655,
      "v": 77
    },
    {
      "midi": 71,
      "hit": false,
      "t": 265109.0532343768,
      "d": 108.41732291667722,
      "v": 69
    },
    {
      "midi": 66,
      "hit": false,
      "t": 265415.17273437686,
      "d": 526.142890624993,
      "v": 69
    },
    {
      "midi": 73,
      "hit": false,
      "t": 265415.17273437686,
      "d": 870.5273281249683,
      "v": 77
    },
    {
      "midi": 69,
      "hit": false,
      "t": 265415.17273437686,
      "d": 896.0372864583042,
      "v": 77
    },
    {
      "midi": 42,
      "hit": false,
      "t": 265721.29223437683,
      "d": 1014.0208437500405,
      "v": 77
    },
    {
      "midi": 66,
      "hit": false,
      "t": 266330.34248958516,
      "d": 117.98355729167815,
      "v": 61
    },
    {
      "midi": 54,
      "hit": false,
      "t": 266636.4619895852,
      "d": 70.1523854166735,
      "v": 65
    },
    {
      "midi": 65,
      "hit": false,
      "t": 266945.7702343769,
      "d": 156.24849479168188,
      "v": 61
    },
    {
      "midi": 68,
      "hit": false,
      "t": 266945.7702343769,
      "d": 353.95067187503446,
      "v": 73
    },
    {
      "midi": 73,
      "hit": false,
      "t": 266945.7702343769,
      "d": 848.2061145834159,
      "v": 69
    },
    {
      "midi": 49,
      "hit": false,
      "t": 266945.7702343769,
      "d": 915.1697552084224,
      "v": 57
    },
    {
      "midi": 37,
      "hit": false,
      "t": 266948.95897916856,
      "d": 819.5074114584131,
      "v": 73
    },
    {
      "midi": 65,
      "hit": false,
      "t": 267248.70098958525,
      "d": 385.83811979170423,
      "v": 53
    },
    {
      "midi": 68,
      "hit": false,
      "t": 267558.00923437695,
      "d": 149.87100520834792,
      "v": 65
    },
    {
      "midi": 54,
      "hit": false,
      "t": 268167.0594895853,
      "d": 6399.810796874983,
      "v": 48
    },
    {
      "midi": 61,
      "hit": false,
      "t": 268170.24823437695,
      "d": 1836.7170000000042,
      "v": 42
    },
    {
      "midi": 42,
      "hit": false,
      "t": 268170.24823437695,
      "d": 6473.151927083323,
      "v": 77
    },
    {
      "midi": 66,
      "hit": false,
      "t": 268779.2984895853,
      "d": 644.1264479166712,
      "v": 53
    },
    {
      "midi": 70,
      "hit": false,
      "t": 269391.5374895853,
      "d": 682.3913854166749,
      "v": 53
    },
    {
      "midi": 73,
      "hit": false,
      "t": 270003.7764895853,
      "d": 111.6060677083442,
      "v": 57
    },
    {
      "midi": 70,
      "hit": false,
      "t": 270616.0154895853,
      "d": 1591.183651041647,
      "v": 65
    },
    {
      "midi": 73,
      "hit": false,
      "t": 270616.0154895853,
      "d": 1591.183651041647,
      "v": 65
    },
    {
      "midi": 66,
      "hit": false,
      "t": 270619.20423437696,
      "d": 1587.99490624998,
      "v": 61
    },
    {
      "midi": 78,
      "hit": false,
      "t": 270619.20423437696,
      "d": 1661.3360364583205,
      "v": 49
    }
  ]
}