{
  "jsonPath": "Rock/Pop Rock/Boyzone/baby-can-i-hold-you.json",
  "path": "Rock\\Pop Rock\\Boyzone\\Baby Can I Hold You.mid",
  "name": "Baby Can I Hold You",
  "difficulty": "Intermediate",
  "bpm": 73.99012725068718,
  "notes": [
    {
      "midi": 55,
      "hit": false,
      "t": 133333.3,
      "d": 3708.3324062500033,
      "v": 116
    },
    {
      "midi": 64,
      "hit": false,
      "t": 133333.3,
      "d": 3736.1101770833484,
      "v": 114
    },
    {
      "midi": 60,
      "hit": false,
      "t": 133333.3,
      "d": 3777.776833333337,
      "v": 115
    },
    {
      "midi": 60,
      "hit": false,
      "t": 137333.299,
      "d": 158.33329375000903,
      "v": 123
    },
    {
      "midi": 64,
      "hit": false,
      "t": 137333.299,
      "d": 338.88880416666507,
      "v": 122
    },
    {
      "midi": 55,
      "hit": false,
      "t": 137333.299,
      "d": 1138.8886041666556,
      "v": 117
    },
    {
      "midi": 62,
      "hit": false,
      "t": 137666.63225,
      "d": 263.8888229166623,
      "v": 121
    },
    {
      "midi": 60,
      "hit": false,
      "t": 137999.9655,
      "d": 472.2221041666635,
      "v": 122
    },
    {
      "midi": 62,
      "hit": false,
      "t": 138666.63199999998,
      "d": 2477.777158333338,
      "v": 110
    },
    {
      "midi": 57,
      "hit": false,
      "t": 138666.63199999998,
      "d": 2533.332699999999,
      "v": 115
    },
    {
      "midi": 53,
      "hit": false,
      "t": 138666.63199999998,
      "d": 2574.9993562499876,
      "v": 106
    },
    {
      "midi": 53,
      "hit": false,
      "t": 141333.29799999998,
      "d": 2380.554960416659,
      "v": 110
    },
    {
      "midi": 55,
      "hit": false,
      "t": 141333.29799999998,
      "d": 2449.9993874999927,
      "v": 116
    },
    {
      "midi": 60,
      "hit": false,
      "t": 141333.29799999998,
      "d": 2519.4438145833265,
      "v": 123
    },
    {
      "midi": 55,
      "hit": false,
      "t": 143999.96399999998,
      "d": 3602.776877083321,
      "v": 122
    },
    {
      "midi": 64,
      "hit": false,
      "t": 143999.96399999998,
      "d": 3644.4435333333095,
      "v": 119
    },
    {
      "midi": 60,
      "hit": false,
      "t": 143999.96399999998,
      "d": 3694.4435208333016,
      "v": 105
    },
    {
      "midi": 60,
      "hit": false,
      "t": 147999.96299999996,
      "d": 186.11106458332506,
      "v": 122
    },
    {
      "midi": 64,
      "hit": false,
      "t": 147999.96299999996,
      "d": 416.6665625000023,
      "v": 123
    },
    {
      "midi": 55,
      "hit": false,
      "t": 147999.96299999996,
      "d": 1180.5552604166733,
      "v": 118
    },
    {
      "midi": 62,
      "hit": false,
      "t": 148333.29624999996,
      "d": 241.66660625001532,
      "v": 120
    },
    {
      "midi": 60,
      "hit": false,
      "t": 148666.62949999998,
      "d": 449.9998874999874,
      "v": 121
    },
    {
      "midi": 62,
      "hit": false,
      "t": 149333.29599999997,
      "d": 2416.6660625000077,
      "v": 112
    },
    {
      "midi": 57,
      "hit": false,
      "t": 149333.29599999997,
      "d": 2486.1104895833414,
      "v": 109
    },
    {
      "midi": 53,
      "hit": false,
      "t": 149333.29599999997,
      "d": 2491.6660437500104,
      "v": 115
    },
    {
      "midi": 53,
      "hit": false,
      "t": 151999.96199999997,
      "d": 2505.554929166654,
      "v": 109
    },
    {
      "midi": 60,
      "hit": false,
      "t": 151999.96199999997,
      "d": 2505.554929166654,
      "v": 111
    },
    {
      "midi": 55,
      "hit": false,
      "t": 151999.96199999997,
      "d": 2513.8882604166574,
      "v": 116
    },
    {
      "midi": 57,
      "hit": false,
      "t": 154666.62799999997,
      "d": 4986.109864583326,
      "v": 103
    },
    {
      "midi": 64,
      "hit": false,
      "t": 154666.62799999997,
      "d": 4999.998749999999,
      "v": 107
    },
    {
      "midi": 60,
      "hit": false,
      "t": 154666.62799999997,
      "d": 5047.220960416656,
      "v": 103
    },
    {
      "midi": 55,
      "hit": false,
      "t": 159999.95999999996,
      "d": 5019.44318958334,
      "v": 106
    },
    {
      "midi": 62,
      "hit": false,
      "t": 159999.95999999996,
      "d": 5019.44318958334,
      "v": 102
    },
    {
      "midi": 59,
      "hit": false,
      "t": 159999.95999999996,
      "d": 5033.332075000013,
      "v": 106
    },
    {
      "midi": 55,
      "hit": false,
      "t": 165333.292,
      "d": 4963.887647916679,
      "v": 115
    },
    {
      "midi": 64,
      "hit": false,
      "t": 165333.292,
      "d": 4977.776533333352,
      "v": 107
    },
    {
      "midi": 60,
      "hit": false,
      "t": 165333.292,
      "d": 5088.887616666674,
      "v": 111
    },
    {
      "midi": 57,
      "hit": false,
      "t": 170666.62399999998,
      "d": 1458.3329687500081,
      "v": 101
    },
    {
      "midi": 65,
      "hit": false,
      "t": 170666.62399999998,
      "d": 1658.3329187500058,
      "v": 105
    },
    {
      "midi": 62,
      "hit": false,
      "t": 170666.62399999998,
      "d": 1708.332906249998,
      "v": 103
    },
    {
      "midi": 57,
      "hit": false,
      "t": 172333.29025,
      "d": 41.66665624998859,
      "v": 58
    },
    {
      "midi": 55,
      "hit": false,
      "t": 172666.6235,
      "d": 463.88877291665995,
      "v": 111
    },
    {
      "midi": 64,
      "hit": false,
      "t": 172666.6235,
      "d": 513.8887604166521,
      "v": 110
    },
    {
      "midi": 60,
      "hit": false,
      "t": 172666.6235,
      "d": 1874.9995312499814,
      "v": 103
    },
    {
      "midi": 57,
      "hit": false,
      "t": 173333.28999999998,
      "d": 1005.5553041666572,
      "v": 102
    },
    {
      "midi": 65,
      "hit": false,
      "t": 173333.28999999998,
      "d": 1041.6664062499767,
      "v": 116
    },
    {
      "midi": 67,
      "hit": false,
      "t": 174666.62299999996,
      "d": 1152.7774895833281,
      "v": 111
    },
    {
      "midi": 59,
      "hit": false,
      "t": 174666.62299999996,
      "d": 1158.3330437499972,
      "v": 110
    },
    {
      "midi": 62,
      "hit": false,
      "t": 174666.62299999996,
      "d": 1166.6663750000007,
      "v": 97
    },
    {
      "midi": 55,
      "hit": false,
      "t": 175999.95599999998,
      "d": 4611.109958333342,
      "v": 89
    },
    {
      "midi": 64,
      "hit": false,
      "t": 175999.95599999998,
      "d": 4644.443283333356,
      "v": 82
    },
    {
      "midi": 60,
      "hit": false,
      "t": 175999.95599999998,
      "d": 4666.665500000032,
      "v": 78
    },
    {
      "midi": 79,
      "hit": false,
      "t": 179999.955,
      "d": 1658.3329187500058,
      "v": 90
    },
    {
      "midi": 67,
      "hit": false,
      "t": 180666.6215,
      "d": 1005.5553041666572,
      "v": 92
    },
    {
      "midi": 55,
      "hit": false,
      "t": 181333.288,
      "d": 4902.776552083378,
      "v": 86
    },
    {
      "midi": 65,
      "hit": false,
      "t": 181333.288,
      "d": 4902.776552083378,
      "v": 73
    },
    {
      "midi": 62,
      "hit": false,
      "t": 181333.288,
      "d": 4908.332106250047,
      "v": 66
    },
    {
      "midi": 60,
      "hit": false,
      "t": 181333.288,
      "d": 4972.220979166712,
      "v": 67
    },
    {
      "midi": 72,
      "hit": false,
      "t": 181666.62125,
      "d": 338.88880416666507,
      "v": 70
    },
    {
      "midi": 74,
      "hit": false,
      "t": 181999.9545,
      "d": 1305.5552291666681,
      "v": 89
    },
    {
      "midi": 74,
      "hit": false,
      "t": 183333.2875,
      "d": 1638.8884791666642,
      "v": 84
    },
    {
      "midi": 71,
      "hit": false,
      "t": 185333.287,
      "d": 630.5553979166725,
      "v": 70
    },
    {
      "midi": 74,
      "hit": false,
      "t": 185333.287,
      "d": 638.8887291666761,
      "v": 72
    },
    {
      "midi": 76,
      "hit": false,
      "t": 185999.95350000003,
      "d": 638.8887291666761,
      "v": 82
    },
    {
      "midi": 72,
      "hit": false,
      "t": 185999.95350000003,
      "d": 644.4442833333451,
      "v": 76
    },
    {
      "midi": 74,
      "hit": false,
      "t": 186666.62000000005,
      "d": 638.8887291666761,
      "v": 84
    },
    {
      "midi": 77,
      "hit": false,
      "t": 186666.62000000005,
      "d": 638.8887291666761,
      "v": 90
    },
    {
      "midi": 65,
      "hit": false,
      "t": 186666.62000000005,
      "d": 4894.443220833346,
      "v": 88
    },
    {
      "midi": 57,
      "hit": false,
      "t": 186666.62000000005,
      "d": 4963.887647916679,
      "v": 95
    },
    {
      "midi": 62,
      "hit": false,
      "t": 186666.62000000005,
      "d": 5047.220960416686,
      "v": 92
    },
    {
      "midi": 76,
      "hit": false,
      "t": 187333.28650000007,
      "d": 208.33328125000116,
      "v": 68
    },
    {
      "midi": 72,
      "hit": false,
      "t": 187333.28650000007,
      "d": 297.2221479166765,
      "v": 65
    },
    {
      "midi": 77,
      "hit": false,
      "t": 187666.61975000007,
      "d": 227.77772083334276,
      "v": 86
    },
    {
      "midi": 74,
      "hit": false,
      "t": 187666.61975000007,
      "d": 263.8888229166623,
      "v": 91
    },
    {
      "midi": 76,
      "hit": false,
      "t": 188333.28625000006,
      "d": 277.7777083333349,
      "v": 70
    },
    {
      "midi": 72,
      "hit": false,
      "t": 188333.28625000006,
      "d": 297.2221479166765,
      "v": 67
    },
    {
      "midi": 77,
      "hit": false,
      "t": 188666.61950000006,
      "d": 1861.110645833338,
      "v": 82
    },
    {
      "midi": 74,
      "hit": false,
      "t": 188666.61950000006,
      "d": 1902.7773020833265,
      "v": 86
    },
    {
      "midi": 62,
      "hit": false,
      "t": 191999.95200000008,
      "d": 4930.554322916636,
      "v": 66
    },
    {
      "midi": 55,
      "hit": false,
      "t": 191999.95200000008,
      "d": 4936.109877083305,
      "v": 85
    },
    {
      "midi": 60,
      "hit": false,
      "t": 191999.95200000008,
      "d": 4936.109877083305,
      "v": 79
    },
    {
      "midi": 67,
      "hit": false,
      "t": 195333.28450000007,
      "d": 666.6664999999921,
      "v": 69
    },
    {
      "midi": 72,
      "hit": false,
      "t": 195999.95100000006,
      "d": 666.6664999999921,
      "v": 91
    },
    {
      "midi": 74,
      "hit": false,
      "t": 196666.61750000005,
      "d": 561.1109708333388,
      "v": 89
    },
    {
      "midi": 55,
      "hit": false,
      "t": 197333.28400000004,
      "d": 4611.109958333342,
      "v": 92
    },
    {
      "midi": 64,
      "hit": false,
      "t": 197333.28400000004,
      "d": 4644.443283333356,
      "v": 91
    },
    {
      "midi": 60,
      "hit": false,
      "t": 197333.28400000004,
      "d": 4666.665500000032,
      "v": 75
    },
    {
      "midi": 79,
      "hit": false,
      "t": 201333.28300000005,
      "d": 1658.3329187500058,
      "v": 87
    },
    {
      "midi": 67,
      "hit": false,
      "t": 201999.94950000008,
      "d": 1005.5553041666572,
      "v": 91
    },
    {
      "midi": 55,
      "hit": false,
      "t": 202666.61600000007,
      "d": 4902.776552083378,
      "v": 88
    },
    {
      "midi": 65,
      "hit": false,
      "t": 202666.61600000007,
      "d": 4902.776552083378,
      "v": 74
    },
    {
      "midi": 62,
      "hit": false,
      "t": 202666.61600000007,
      "d": 4908.332106250047,
      "v": 71
    },
    {
      "midi": 60,
      "hit": false,
      "t": 202666.61600000007,
      "d": 4972.220979166712,
      "v": 76
    },
    {
      "midi": 72,
      "hit": false,
      "t": 202999.94925000006,
      "d": 338.88880416666507,
      "v": 68
    },
    {
      "midi": 74,
      "hit": false,
      "t": 203333.28250000006,
      "d": 1305.5552291666681,
      "v": 85
    },
    {
      "midi": 74,
      "hit": false,
      "t": 204666.61550000007,
      "d": 1638.8884791666642,
      "v": 84
    },
    {
      "midi": 71,
      "hit": false,
      "t": 206666.61500000008,
      "d": 630.5553979166725,
      "v": 66
    },
    {
      "midi": 74,
      "hit": false,
      "t": 206666.61500000008,
      "d": 638.8887291666761,
      "v": 71
    },
    {
      "midi": 76,
      "hit": false,
      "t": 207333.2815000001,
      "d": 638.8887291666761,
      "v": 76
    },
    {
      "midi": 72,
      "hit": false,
      "t": 207333.2815000001,
      "d": 644.4442833333451,
      "v": 75
    },
    {
      "midi": 74,
      "hit": false,
      "t": 207999.94800000012,
      "d": 638.8887291666761,
      "v": 86
    },
    {
      "midi": 77,
      "hit": false,
      "t": 207999.94800000012,
      "d": 638.8887291666761,
      "v": 83
    },
    {
      "midi": 65,
      "hit": false,
      "t": 207999.94800000012,
      "d": 4894.443220833346,
      "v": 94
    },
    {
      "midi": 57,
      "hit": false,
      "t": 207999.94800000012,
      "d": 4963.887647916679,
      "v": 88
    },
    {
      "midi": 62,
      "hit": false,
      "t": 207999.94800000012,
      "d": 5047.220960416686,
      "v": 92
    },
    {
      "midi": 76,
      "hit": false,
      "t": 208666.61450000014,
      "d": 208.33328125000116,
      "v": 64
    },
    {
      "midi": 72,
      "hit": false,
      "t": 208666.61450000014,
      "d": 297.2221479166765,
      "v": 68
    },
    {
      "midi": 77,
      "hit": false,
      "t": 208999.94775000014,
      "d": 227.77772083334276,
      "v": 88
    },
    {
      "midi": 74,
      "hit": false,
      "t": 208999.94775000014,
      "d": 263.8888229166623,
      "v": 86
    },
    {
      "midi": 76,
      "hit": false,
      "t": 209666.61425000013,
      "d": 277.7777083333349,
      "v": 69
    },
    {
      "midi": 72,
      "hit": false,
      "t": 209666.61425000013,
      "d": 297.2221479166765,
      "v": 70
    },
    {
      "midi": 77,
      "hit": false,
      "t": 209999.94750000013,
      "d": 1861.110645833338,
      "v": 91
    },
    {
      "midi": 74,
      "hit": false,
      "t": 209999.94750000013,
      "d": 1902.7773020833265,
      "v": 87
    },
    {
      "midi": 55,
      "hit": false,
      "t": 226666.61000000013,
      "d": 3708.3324062500033,
      "v": 113
    },
    {
      "midi": 64,
      "hit": false,
      "t": 226666.61000000013,
      "d": 3736.1101770833484,
      "v": 113
    },
    {
      "midi": 60,
      "hit": false,
      "t": 226666.61000000013,
      "d": 3777.776833333337,
      "v": 117
    },
    {
      "midi": 60,
      "hit": false,
      "t": 230666.60900000014,
      "d": 158.33329375000903,
      "v": 121
    },
    {
      "midi": 64,
      "hit": false,
      "t": 230666.60900000014,
      "d": 338.88880416666507,
      "v": 120
    },
    {
      "midi": 55,
      "hit": false,
      "t": 230666.60900000014,
      "d": 1138.8886041666556,
      "v": 122
    },
    {
      "midi": 62,
      "hit": false,
      "t": 230999.94225000014,
      "d": 263.8888229166623,
      "v": 121
    },
    {
      "midi": 60,
      "hit": false,
      "t": 231333.27550000013,
      "d": 472.2221041666635,
      "v": 123
    },
    {
      "midi": 62,
      "hit": false,
      "t": 231999.94200000013,
      "d": 2477.777158333338,
      "v": 119
    },
    {
      "midi": 57,
      "hit": false,
      "t": 231999.94200000013,
      "d": 2533.332699999999,
      "v": 114
    },
    {
      "midi": 53,
      "hit": false,
      "t": 231999.94200000013,
      "d": 2574.9993562499876,
      "v": 112
    },
    {
      "midi": 53,
      "hit": false,
      "t": 234666.60800000012,
      "d": 2380.554960416659,
      "v": 115
    },
    {
      "midi": 55,
      "hit": false,
      "t": 234666.60800000012,
      "d": 2449.9993874999927,
      "v": 119
    },
    {
      "midi": 60,
      "hit": false,
      "t": 234666.60800000012,
      "d": 2519.4438145833265,
      "v": 123
    },
    {
      "midi": 55,
      "hit": false,
      "t": 237333.27400000012,
      "d": 3602.776877083321,
      "v": 121
    },
    {
      "midi": 64,
      "hit": false,
      "t": 237333.27400000012,
      "d": 3644.4435333333095,
      "v": 113
    },
    {
      "midi": 60,
      "hit": false,
      "t": 237333.27400000012,
      "d": 3694.4435208333016,
      "v": 104
    },
    {
      "midi": 60,
      "hit": false,
      "t": 241333.2730000001,
      "d": 186.11106458332506,
      "v": 121
    },
    {
      "midi": 64,
      "hit": false,
      "t": 241333.2730000001,
      "d": 416.6665625000023,
      "v": 119
    },
    {
      "midi": 55,
      "hit": false,
      "t": 241333.2730000001,
      "d": 1180.5552604166733,
      "v": 121
    },
    {
      "midi": 62,
      "hit": false,
      "t": 241666.6062500001,
      "d": 241.66660625001532,
      "v": 123
    },
    {
      "midi": 60,
      "hit": false,
      "t": 241999.93950000012,
      "d": 449.9998874999874,
      "v": 118
    },
    {
      "midi": 62,
      "hit": false,
      "t": 242666.60600000012,
      "d": 2416.6660625000077,
      "v": 114
    },
    {
      "midi": 57,
      "hit": false,
      "t": 242666.60600000012,
      "d": 2486.1104895833414,
      "v": 103
    },
    {
      "midi": 53,
      "hit": false,
      "t": 242666.60600000012,
      "d": 2491.6660437500104,
      "v": 110
    },
    {
      "midi": 53,
      "hit": false,
      "t": 245333.2720000001,
      "d": 2505.554929166654,
      "v": 103
    },
    {
      "midi": 60,
      "hit": false,
      "t": 245333.2720000001,
      "d": 2505.554929166654,
      "v": 116
    },
    {
      "midi": 55,
      "hit": false,
      "t": 245333.2720000001,
      "d": 2513.8882604166574,
      "v": 119
    },
    {
      "midi": 57,
      "hit": false,
      "t": 247999.9380000001,
      "d": 4986.109864583326,
      "v": 105
    },
    {
      "midi": 64,
      "hit": false,
      "t": 247999.9380000001,
      "d": 4999.998749999999,
      "v": 105
    },
    {
      "midi": 60,
      "hit": false,
      "t": 247999.9380000001,
      "d": 5047.220960416656,
      "v": 105
    },
    {
      "midi": 55,
      "hit": false,
      "t": 253333.2700000001,
      "d": 5019.44318958334,
      "v": 108
    },
    {
      "midi": 62,
      "hit": false,
      "t": 253333.2700000001,
      "d": 5019.44318958334,
      "v": 106
    },
    {
      "midi": 59,
      "hit": false,
      "t": 253333.2700000001,
      "d": 5033.332075000013,
      "v": 105
    },
    {
      "midi": 55,
      "hit": false,
      "t": 258666.60200000013,
      "d": 3708.3324062500033,
      "v": 118
    },
    {
      "midi": 64,
      "hit": false,
      "t": 258666.60200000013,
      "d": 3736.1101770833484,
      "v": 115
    },
    {
      "midi": 60,
      "hit": false,
      "t": 258666.60200000013,
      "d": 3777.776833333366,
      "v": 115
    },
    {
      "midi": 60,
      "hit": false,
      "t": 262666.60100000014,
      "d": 158.33329375000903,
      "v": 122
    },
    {
      "midi": 64,
      "hit": false,
      "t": 262666.60100000014,
      "d": 338.8888041666942,
      "v": 118
    },
    {
      "midi": 55,
      "hit": false,
      "t": 262666.60100000014,
      "d": 1138.8886041666847,
      "v": 118
    },
    {
      "midi": 62,
      "hit": false,
      "t": 262999.93425000017,
      "d": 263.8888229166623,
      "v": 118
    },
    {
      "midi": 60,
      "hit": false,
      "t": 263333.26750000013,
      "d": 472.2221041666926,
      "v": 123
    },
    {
      "midi": 62,
      "hit": false,
      "t": 263999.9340000002,
      "d": 2477.777158333338,
      "v": 116
    },
    {
      "midi": 57,
      "hit": false,
      "t": 263999.9340000002,
      "d": 2533.332700000028,
      "v": 108
    },
    {
      "midi": 53,
      "hit": false,
      "t": 263999.9340000002,
      "d": 2574.999356250046,
      "v": 111
    },
    {
      "midi": 53,
      "hit": false,
      "t": 266666.6000000002,
      "d": 2380.554960416688,
      "v": 115
    },
    {
      "midi": 55,
      "hit": false,
      "t": 266666.6000000002,
      "d": 2449.9993874999927,
      "v": 116
    },
    {
      "midi": 60,
      "hit": false,
      "t": 266666.6000000002,
      "d": 2519.4438145832974,
      "v": 123
    },
    {
      "midi": 55,
      "hit": false,
      "t": 269333.2660000002,
      "d": 3602.77687708335,
      "v": 123
    },
    {
      "midi": 64,
      "hit": false,
      "t": 269333.2660000002,
      "d": 3644.4435333333677,
      "v": 115
    },
    {
      "midi": 60,
      "hit": false,
      "t": 269333.2660000002,
      "d": 3694.443520833389,
      "v": 105
    },
    {
      "midi": 60,
      "hit": false,
      "t": 273333.26500000025,
      "d": 186.11106458335416,
      "v": 118
    },
    {
      "midi": 64,
      "hit": false,
      "t": 273333.26500000025,
      "d": 416.6665625000023,
      "v": 120
    },
    {
      "midi": 55,
      "hit": false,
      "t": 273333.26500000025,
      "d": 1180.5552604167024,
      "v": 123
    },
    {
      "midi": 62,
      "hit": false,
      "t": 273666.5982500003,
      "d": 241.66660624998622,
      "v": 123
    },
    {
      "midi": 60,
      "hit": false,
      "t": 273999.93150000024,
      "d": 449.9998875000165,
      "v": 119
    },
    {
      "midi": 62,
      "hit": false,
      "t": 274666.5980000003,
      "d": 2416.6660624999786,
      "v": 118
    },
    {
      "midi": 57,
      "hit": false,
      "t": 274666.5980000003,
      "d": 2486.110489583283,
      "v": 110
    },
    {
      "midi": 53,
      "hit": false,
      "t": 274666.5980000003,
      "d": 2491.666043749952,
      "v": 110
    },
    {
      "midi": 53,
      "hit": false,
      "t": 277333.26400000026,
      "d": 2505.554929166683,
      "v": 107
    },
    {
      "midi": 60,
      "hit": false,
      "t": 277333.26400000026,
      "d": 2505.554929166683,
      "v": 115
    },
    {
      "midi": 55,
      "hit": false,
      "t": 277333.26400000026,
      "d": 2513.8882604166865,
      "v": 119
    },
    {
      "midi": 57,
      "hit": false,
      "t": 279999.9300000003,
      "d": 4986.109864583355,
      "v": 100
    },
    {
      "midi": 64,
      "hit": false,
      "t": 279999.9300000003,
      "d": 4999.998750000028,
      "v": 109
    },
    {
      "midi": 60,
      "hit": false,
      "t": 279999.9300000003,
      "d": 5047.220960416715,
      "v": 105
    },
    {
      "midi": 55,
      "hit": false,
      "t": 285333.26200000034,
      "d": 5019.443189583311,
      "v": 110
    },
    {
      "midi": 62,
      "hit": false,
      "t": 285333.26200000034,
      "d": 5019.443189583311,
      "v": 102
    },
    {
      "midi": 59,
      "hit": false,
      "t": 285333.26200000034,
      "d": 5033.332074999984,
      "v": 110
    },
    {
      "midi": 55,
      "hit": false,
      "t": 290666.59400000033,
      "d": 3708.3324062500033,
      "v": 117
    },
    {
      "midi": 64,
      "hit": false,
      "t": 290666.59400000033,
      "d": 3736.1101770833484,
      "v": 114
    },
    {
      "midi": 60,
      "hit": false,
      "t": 290666.59400000033,
      "d": 3777.776833333366,
      "v": 119
    },
    {
      "midi": 60,
      "hit": false,
      "t": 294666.59300000034,
      "d": 158.33329375000903,
      "v": 123
    },
    {
      "midi": 64,
      "hit": false,
      "t": 294666.59300000034,
      "d": 338.8888041666942,
      "v": 121
    },
    {
      "midi": 55,
      "hit": false,
      "t": 294666.59300000034,
      "d": 1083.3330624999944,
      "v": 118
    },
    {
      "midi": 62,
      "hit": false,
      "t": 294999.92625000037,
      "d": 263.8888229166623,
      "v": 123
    },
    {
      "midi": 60,
      "hit": false,
      "t": 295333.25950000033,
      "d": 394.4443458333262,
      "v": 123
    },
    {
      "midi": 62,
      "hit": false,
      "t": 295999.9260000003,
      "d": 2477.777158333338,
      "v": 118
    },
    {
      "midi": 57,
      "hit": false,
      "t": 295999.9260000003,
      "d": 2533.332700000028,
      "v": 114
    },
    {
      "midi": 53,
      "hit": false,
      "t": 295999.9260000003,
      "d": 2574.999356250046,
      "v": 112
    },
    {
      "midi": 53,
      "hit": false,
      "t": 298666.59200000035,
      "d": 2380.554960416688,
      "v": 109
    },
    {
      "midi": 55,
      "hit": false,
      "t": 298666.59200000035,
      "d": 2449.9993874999927,
      "v": 119
    },
    {
      "midi": 60,
      "hit": false,
      "t": 298666.59200000035,
      "d": 2519.4438145832974,
      "v": 123
    },
    {
      "midi": 55,
      "hit": false,
      "t": 301333.2580000003,
      "d": 3708.3324062500033,
      "v": 116
    },
    {
      "midi": 64,
      "hit": false,
      "t": 301333.2580000003,
      "d": 3736.1101770833484,
      "v": 113
    },
    {
      "midi": 60,
      "hit": false,
      "t": 301333.2580000003,
      "d": 3777.776833333366,
      "v": 118
    },
    {
      "midi": 60,
      "hit": false,
      "t": 305333.25700000033,
      "d": 158.33329375000903,
      "v": 123
    },
    {
      "midi": 64,
      "hit": false,
      "t": 305333.25700000033,
      "d": 338.8888041666942,
      "v": 118
    },
    {
      "midi": 55,
      "hit": false,
      "t": 305333.25700000033,
      "d": 1083.3330624999944,
      "v": 116
    },
    {
      "midi": 62,
      "hit": false,
      "t": 305666.59025000036,
      "d": 263.8888229166623,
      "v": 123
    },
    {
      "midi": 60,
      "hit": false,
      "t": 305999.9235000003,
      "d": 394.4443458333262,
      "v": 123
    },
    {
      "midi": 62,
      "hit": false,
      "t": 306666.5900000003,
      "d": 2477.777158333338,
      "v": 116
    },
    {
      "midi": 57,
      "hit": false,
      "t": 306666.5900000003,
      "d": 2533.332700000028,
      "v": 110
    },
    {
      "midi": 53,
      "hit": false,
      "t": 306666.5900000003,
      "d": 2574.999356250046,
      "v": 106
    },
    {
      "midi": 53,
      "hit": false,
      "t": 309333.25600000034,
      "d": 2380.554960416688,
      "v": 113
    },
    {
      "midi": 55,
      "hit": false,
      "t": 309333.25600000034,
      "d": 2449.9993874999927,
      "v": 115
    },
    {
      "midi": 60,
      "hit": false,
      "t": 309333.25600000034,
      "d": 2519.4438145832974,
      "v": 123
    },
    {
      "midi": 55,
      "hit": false,
      "t": 311999.9220000003,
      "d": 3708.3324062500033,
      "v": 114
    },
    {
      "midi": 64,
      "hit": false,
      "t": 311999.9220000003,
      "d": 3736.1101770833484,
      "v": 121
    },
    {
      "midi": 60,
      "hit": false,
      "t": 311999.9220000003,
      "d": 3777.776833333366,
      "v": 123
    },
    {
      "midi": 60,
      "hit": false,
      "t": 315999.9210000003,
      "d": 158.33329375000903,
      "v": 116
    },
    {
      "midi": 64,
      "hit": false,
      "t": 315999.9210000003,
      "d": 338.8888041666942,
      "v": 122
    },
    {
      "midi": 55,
      "hit": false,
      "t": 315999.9210000003,
      "d": 1083.3330624999944,
      "v": 117
    },
    {
      "midi": 62,
      "hit": false,
      "t": 316333.25425000035,
      "d": 263.8888229166623,
      "v": 120
    },
    {
      "midi": 60,
      "hit": false,
      "t": 316666.5875000003,
      "d": 394.4443458333262,
      "v": 123
    },
    {
      "midi": 62,
      "hit": false,
      "t": 317333.2540000003,
      "d": 2477.777158333338,
      "v": 110
    },
    {
      "midi": 57,
      "hit": false,
      "t": 317333.2540000003,
      "d": 2533.332700000028,
      "v": 114
    },
    {
      "midi": 53,
      "hit": false,
      "t": 317333.2540000003,
      "d": 2574.999356250046,
      "v": 114
    },
    {
      "midi": 53,
      "hit": false,
      "t": 319999.92000000033,
      "d": 2380.554960416688,
      "v": 117
    },
    {
      "midi": 55,
      "hit": false,
      "t": 319999.92000000033,
      "d": 2449.9993874999927,
      "v": 110
    },
    {
      "midi": 60,
      "hit": false,
      "t": 319999.92000000033,
      "d": 2519.4438145832974,
      "v": 123
    },
    {
      "midi": 55,
      "hit": false,
      "t": 322666.5860000003,
      "d": 5144.443158333306,
      "v": 116
    },
    {
      "midi": 64,
      "hit": false,
      "t": 322666.5860000003,
      "d": 5144.443158333306,
      "v": 116
    },
    {
      "midi": 60,
      "hit": false,
      "t": 322666.5860000003,
      "d": 5152.77648958331,
      "v": 113
    }
  ]
}