{
  "jsonPath": "Rock/Pop Rock/Boyzone/father-and-son.json",
  "path": "Rock\\Pop Rock\\Boyzone\\Father And Son.mid",
  "name": "Father And Son",
  "difficulty": "Advanced",
  "bpm": 75,
  "notes": [
    {
      "midi": 39,
      "hit": false,
      "t": 6400,
      "d": 2841.666666666666,
      "v": 116
    },
    {
      "midi": 46,
      "hit": false,
      "t": 6800,
      "d": 750,
      "v": 66
    },
    {
      "midi": 51,
      "hit": false,
      "t": 7000,
      "d": 2225,
      "v": 78
    },
    {
      "midi": 53,
      "hit": false,
      "t": 7400,
      "d": 2025,
      "v": 68
    },
    {
      "midi": 55,
      "hit": false,
      "t": 7600,
      "d": 425,
      "v": 70
    },
    {
      "midi": 58,
      "hit": false,
      "t": 8000,
      "d": 1700,
      "v": 74
    },
    {
      "midi": 39,
      "hit": false,
      "t": 9600,
      "d": 2674.999999999998,
      "v": 116
    },
    {
      "midi": 46,
      "hit": false,
      "t": 10000,
      "d": 1241.666666666666,
      "v": 85
    },
    {
      "midi": 51,
      "hit": false,
      "t": 10200,
      "d": 2049.999999999998,
      "v": 85
    },
    {
      "midi": 53,
      "hit": false,
      "t": 10600,
      "d": 2249.999999999998,
      "v": 72
    },
    {
      "midi": 55,
      "hit": false,
      "t": 10800,
      "d": 458.3333333333321,
      "v": 80
    },
    {
      "midi": 58,
      "hit": false,
      "t": 11200,
      "d": 2599.999999999998,
      "v": 93
    },
    {
      "midi": 39,
      "hit": false,
      "t": 12799.999999999998,
      "d": 2641.666666666666,
      "v": 109
    },
    {
      "midi": 46,
      "hit": false,
      "t": 13199.999999999998,
      "d": 333.33333333333394,
      "v": 67
    },
    {
      "midi": 51,
      "hit": false,
      "t": 13399.999999999998,
      "d": 2058.333333333332,
      "v": 85
    },
    {
      "midi": 53,
      "hit": false,
      "t": 13799.999999999998,
      "d": 2233.333333333332,
      "v": 76
    },
    {
      "midi": 55,
      "hit": false,
      "t": 13999.999999999998,
      "d": 450,
      "v": 86
    },
    {
      "midi": 58,
      "hit": false,
      "t": 14399.999999999998,
      "d": 2708.3333333333303,
      "v": 93
    },
    {
      "midi": 39,
      "hit": false,
      "t": 15999.999999999996,
      "d": 2983.3333333333358,
      "v": 93
    },
    {
      "midi": 46,
      "hit": false,
      "t": 16399.999999999996,
      "d": 1150,
      "v": 67
    },
    {
      "midi": 51,
      "hit": false,
      "t": 16599.999999999996,
      "d": 2333.3333333333358,
      "v": 85
    },
    {
      "midi": 53,
      "hit": false,
      "t": 16999.999999999996,
      "d": 316.6666666666679,
      "v": 72
    },
    {
      "midi": 55,
      "hit": false,
      "t": 17199.999999999996,
      "d": 416.6666666666679,
      "v": 65
    },
    {
      "midi": 53,
      "hit": false,
      "t": 17399.999999999996,
      "d": 1441.6666666666679,
      "v": 37
    },
    {
      "midi": 58,
      "hit": false,
      "t": 17599.999999999996,
      "d": 1600.0000000000036,
      "v": 78
    },
    {
      "midi": 51,
      "hit": false,
      "t": 19200,
      "d": 787.5,
      "v": 63
    },
    {
      "midi": 55,
      "hit": false,
      "t": 19200,
      "d": 825,
      "v": 59
    },
    {
      "midi": 58,
      "hit": false,
      "t": 19200,
      "d": 841.6666666666679,
      "v": 85
    },
    {
      "midi": 39,
      "hit": false,
      "t": 19200,
      "d": 1166.6666666666679,
      "v": 78
    },
    {
      "midi": 63,
      "hit": false,
      "t": 19200,
      "d": 1216.6666666666679,
      "v": 71
    },
    {
      "midi": 51,
      "hit": false,
      "t": 20000,
      "d": 450,
      "v": 109
    },
    {
      "midi": 55,
      "hit": false,
      "t": 20400,
      "d": 395.8333333333321,
      "v": 92
    },
    {
      "midi": 46,
      "hit": false,
      "t": 20800,
      "d": 795.8333333333321,
      "v": 67
    },
    {
      "midi": 53,
      "hit": false,
      "t": 20800,
      "d": 825,
      "v": 78
    },
    {
      "midi": 58,
      "hit": false,
      "t": 20800,
      "d": 891.6666666666679,
      "v": 71
    },
    {
      "midi": 62,
      "hit": false,
      "t": 20800,
      "d": 1200,
      "v": 86
    },
    {
      "midi": 46,
      "hit": false,
      "t": 21600,
      "d": 491.6666666666679,
      "v": 116
    },
    {
      "midi": 53,
      "hit": false,
      "t": 22000,
      "d": 395.83333333333576,
      "v": 96
    },
    {
      "midi": 51,
      "hit": false,
      "t": 22400.000000000004,
      "d": 395.83333333333576,
      "v": 74
    },
    {
      "midi": 58,
      "hit": false,
      "t": 22400.000000000004,
      "d": 450.00000000000364,
      "v": 74
    },
    {
      "midi": 63,
      "hit": false,
      "t": 22400.000000000004,
      "d": 483.33333333333576,
      "v": 85
    },
    {
      "midi": 44,
      "hit": false,
      "t": 22400.000000000004,
      "d": 725.0000000000036,
      "v": 66
    },
    {
      "midi": 51,
      "hit": false,
      "t": 22800.000000000007,
      "d": 195.83333333333212,
      "v": 55
    },
    {
      "midi": 58,
      "hit": false,
      "t": 23000.000000000007,
      "d": 275,
      "v": 109
    },
    {
      "midi": 63,
      "hit": false,
      "t": 23000.000000000007,
      "d": 275,
      "v": 101
    },
    {
      "midi": 51,
      "hit": false,
      "t": 23000.000000000007,
      "d": 300,
      "v": 67
    },
    {
      "midi": 44,
      "hit": false,
      "t": 23200.000000000007,
      "d": 350,
      "v": 74
    },
    {
      "midi": 51,
      "hit": false,
      "t": 23400.000000000007,
      "d": 387.5,
      "v": 93
    },
    {
      "midi": 58,
      "hit": false,
      "t": 23400.000000000007,
      "d": 387.5,
      "v": 116
    },
    {
      "midi": 63,
      "hit": false,
      "t": 23400.000000000007,
      "d": 387.5,
      "v": 116
    },
    {
      "midi": 48,
      "hit": false,
      "t": 23800.000000000007,
      "d": 195.83333333333576,
      "v": 52
    },
    {
      "midi": 41,
      "hit": false,
      "t": 24000.00000000001,
      "d": 425,
      "v": 66
    },
    {
      "midi": 56,
      "hit": false,
      "t": 24000.00000000001,
      "d": 800,
      "v": 67
    },
    {
      "midi": 63,
      "hit": false,
      "t": 24000.00000000001,
      "d": 808.3333333333358,
      "v": 64
    },
    {
      "midi": 60,
      "hit": false,
      "t": 24000.00000000001,
      "d": 816.6666666666679,
      "v": 80
    },
    {
      "midi": 53,
      "hit": false,
      "t": 24400.00000000001,
      "d": 404.1666666666679,
      "v": 53
    },
    {
      "midi": 41,
      "hit": false,
      "t": 24800.00000000001,
      "d": 233.33333333333212,
      "v": 83
    },
    {
      "midi": 48,
      "hit": false,
      "t": 25000.00000000001,
      "d": 187.5,
      "v": 83
    },
    {
      "midi": 53,
      "hit": false,
      "t": 25200.00000000001,
      "d": 404.1666666666679,
      "v": 92
    },
    {
      "midi": 51,
      "hit": false,
      "t": 25600.00000000001,
      "d": 795.8333333333358,
      "v": 61
    },
    {
      "midi": 55,
      "hit": false,
      "t": 25600.00000000001,
      "d": 795.8333333333358,
      "v": 80
    },
    {
      "midi": 58,
      "hit": false,
      "t": 25600.00000000001,
      "d": 795.8333333333358,
      "v": 66
    },
    {
      "midi": 39,
      "hit": false,
      "t": 25600.00000000001,
      "d": 1191.6666666666715,
      "v": 67
    },
    {
      "midi": 51,
      "hit": false,
      "t": 26400.000000000015,
      "d": 395.83333333333576,
      "v": 64
    },
    {
      "midi": 55,
      "hit": false,
      "t": 26400.000000000015,
      "d": 395.83333333333576,
      "v": 68
    },
    {
      "midi": 58,
      "hit": false,
      "t": 26400.000000000015,
      "d": 395.83333333333576,
      "v": 61
    },
    {
      "midi": 51,
      "hit": false,
      "t": 26800.00000000002,
      "d": 195.83333333333212,
      "v": 78
    },
    {
      "midi": 53,
      "hit": false,
      "t": 27000.00000000002,
      "d": 195.83333333333576,
      "v": 105
    },
    {
      "midi": 48,
      "hit": false,
      "t": 27200.000000000022,
      "d": 795.8333333333321,
      "v": 86
    },
    {
      "midi": 51,
      "hit": false,
      "t": 27200.000000000022,
      "d": 795.8333333333321,
      "v": 93
    },
    {
      "midi": 55,
      "hit": false,
      "t": 27200.000000000022,
      "d": 795.8333333333321,
      "v": 92
    },
    {
      "midi": 36,
      "hit": false,
      "t": 27200.000000000022,
      "d": 1258.3333333333321,
      "v": 72
    },
    {
      "midi": 48,
      "hit": false,
      "t": 28000.000000000022,
      "d": 387.5,
      "v": 70
    },
    {
      "midi": 51,
      "hit": false,
      "t": 28000.000000000022,
      "d": 387.5,
      "v": 60
    },
    {
      "midi": 55,
      "hit": false,
      "t": 28000.000000000022,
      "d": 387.5,
      "v": 70
    },
    {
      "midi": 48,
      "hit": false,
      "t": 28400.000000000022,
      "d": 195.83333333333212,
      "v": 80
    },
    {
      "midi": 36,
      "hit": false,
      "t": 28600.000000000022,
      "d": 195.83333333333212,
      "v": 55
    },
    {
      "midi": 48,
      "hit": false,
      "t": 28800.000000000022,
      "d": 395.8333333333321,
      "v": 83
    },
    {
      "midi": 51,
      "hit": false,
      "t": 28800.000000000022,
      "d": 395.8333333333321,
      "v": 85
    },
    {
      "midi": 56,
      "hit": false,
      "t": 28800.000000000022,
      "d": 395.8333333333321,
      "v": 85
    },
    {
      "midi": 41,
      "hit": false,
      "t": 28800.000000000022,
      "d": 1066.6666666666679,
      "v": 80
    },
    {
      "midi": 53,
      "hit": false,
      "t": 29200.000000000022,
      "d": 195.83333333333212,
      "v": 76
    },
    {
      "midi": 53,
      "hit": false,
      "t": 29400.000000000022,
      "d": 395.8333333333321,
      "v": 96
    },
    {
      "midi": 58,
      "hit": false,
      "t": 29400.000000000022,
      "d": 395.8333333333321,
      "v": 125
    },
    {
      "midi": 53,
      "hit": false,
      "t": 29800.000000000022,
      "d": 395.83333333333576,
      "v": 96
    },
    {
      "midi": 58,
      "hit": false,
      "t": 29800.000000000022,
      "d": 395.83333333333576,
      "v": 69
    },
    {
      "midi": 60,
      "hit": false,
      "t": 29800.000000000022,
      "d": 395.83333333333576,
      "v": 110
    },
    {
      "midi": 41,
      "hit": false,
      "t": 30200.000000000025,
      "d": 195.83333333333576,
      "v": 61
    },
    {
      "midi": 46,
      "hit": false,
      "t": 30400.00000000003,
      "d": 395.8333333333321,
      "v": 109
    },
    {
      "midi": 53,
      "hit": false,
      "t": 30400.00000000003,
      "d": 395.8333333333321,
      "v": 78
    },
    {
      "midi": 58,
      "hit": false,
      "t": 30400.00000000003,
      "d": 450,
      "v": 109
    },
    {
      "midi": 53,
      "hit": false,
      "t": 30800.00000000003,
      "d": 233.33333333333212,
      "v": 57
    },
    {
      "midi": 34,
      "hit": false,
      "t": 31000.00000000003,
      "d": 366.6666666666679,
      "v": 74
    },
    {
      "midi": 46,
      "hit": false,
      "t": 31200.00000000003,
      "d": 250,
      "v": 74
    },
    {
      "midi": 53,
      "hit": false,
      "t": 31400.00000000003,
      "d": 195.83333333333212,
      "v": 59
    },
    {
      "midi": 53,
      "hit": false,
      "t": 31600.00000000003,
      "d": 195.83333333333212,
      "v": 80
    },
    {
      "midi": 58,
      "hit": false,
      "t": 31600.00000000003,
      "d": 195.83333333333212,
      "v": 109
    },
    {
      "midi": 46,
      "hit": false,
      "t": 31800.00000000003,
      "d": 225,
      "v": 71
    },
    {
      "midi": 55,
      "hit": false,
      "t": 32000.00000000003,
      "d": 450,
      "v": 72
    },
    {
      "midi": 58,
      "hit": false,
      "t": 32000.00000000003,
      "d": 508.3333333333321,
      "v": 93
    },
    {
      "midi": 63,
      "hit": false,
      "t": 32000.00000000003,
      "d": 591.6666666666642,
      "v": 69
    },
    {
      "midi": 39,
      "hit": false,
      "t": 32000.00000000003,
      "d": 1224.9999999999927,
      "v": 69
    },
    {
      "midi": 46,
      "hit": false,
      "t": 32200.00000000003,
      "d": 1016.666666666657,
      "v": 69
    },
    {
      "midi": 51,
      "hit": false,
      "t": 32400.00000000003,
      "d": 841.666666666657,
      "v": 66
    },
    {
      "midi": 55,
      "hit": false,
      "t": 32600.000000000025,
      "d": 291.6666666666679,
      "v": 65
    },
    {
      "midi": 58,
      "hit": false,
      "t": 32800.00000000003,
      "d": 395.8333333333285,
      "v": 109
    },
    {
      "midi": 55,
      "hit": false,
      "t": 33200.00000000002,
      "d": 195.83333333332848,
      "v": 110
    },
    {
      "midi": 56,
      "hit": false,
      "t": 33400.000000000015,
      "d": 195.83333333333576,
      "v": 93
    },
    {
      "midi": 53,
      "hit": false,
      "t": 33600.000000000015,
      "d": 395.83333333333576,
      "v": 86
    },
    {
      "midi": 58,
      "hit": false,
      "t": 33600.000000000015,
      "d": 408.33333333333576,
      "v": 116
    },
    {
      "midi": 62,
      "hit": false,
      "t": 33600.000000000015,
      "d": 450,
      "v": 92
    },
    {
      "midi": 46,
      "hit": false,
      "t": 33600.000000000015,
      "d": 1275,
      "v": 109
    },
    {
      "midi": 53,
      "hit": false,
      "t": 34000.000000000015,
      "d": 225,
      "v": 65
    },
    {
      "midi": 58,
      "hit": false,
      "t": 34200.000000000015,
      "d": 195.83333333333576,
      "v": 57
    },
    {
      "midi": 53,
      "hit": false,
      "t": 34400.000000000015,
      "d": 395.83333333333576,
      "v": 80
    },
    {
      "midi": 58,
      "hit": false,
      "t": 34400.000000000015,
      "d": 395.83333333333576,
      "v": 78
    },
    {
      "midi": 62,
      "hit": false,
      "t": 34400.000000000015,
      "d": 395.83333333333576,
      "v": 83
    },
    {
      "midi": 55,
      "hit": false,
      "t": 34800.000000000015,
      "d": 195.83333333333576,
      "v": 92
    },
    {
      "midi": 46,
      "hit": false,
      "t": 35000.000000000015,
      "d": 195.83333333333576,
      "v": 52
    },
    {
      "midi": 56,
      "hit": false,
      "t": 35000.000000000015,
      "d": 195.83333333333576,
      "v": 101
    },
    {
      "midi": 51,
      "hit": false,
      "t": 35200.000000000015,
      "d": 395.83333333333576,
      "v": 109
    },
    {
      "midi": 58,
      "hit": false,
      "t": 35200.000000000015,
      "d": 395.83333333333576,
      "v": 109
    },
    {
      "midi": 63,
      "hit": false,
      "t": 35200.000000000015,
      "d": 395.83333333333576,
      "v": 74
    },
    {
      "midi": 44,
      "hit": false,
      "t": 35200.000000000015,
      "d": 1033.3333333333358,
      "v": 109
    },
    {
      "midi": 51,
      "hit": false,
      "t": 35600.000000000015,
      "d": 195.83333333333576,
      "v": 56
    },
    {
      "midi": 51,
      "hit": false,
      "t": 35800.000000000015,
      "d": 400,
      "v": 74
    },
    {
      "midi": 58,
      "hit": false,
      "t": 35800.000000000015,
      "d": 400,
      "v": 101
    },
    {
      "midi": 63,
      "hit": false,
      "t": 35800.000000000015,
      "d": 400,
      "v": 85
    },
    {
      "midi": 51,
      "hit": false,
      "t": 36200.000000000015,
      "d": 387.5,
      "v": 109
    },
    {
      "midi": 58,
      "hit": false,
      "t": 36200.000000000015,
      "d": 387.5,
      "v": 109
    },
    {
      "midi": 63,
      "hit": false,
      "t": 36200.000000000015,
      "d": 387.5,
      "v": 93
    },
    {
      "midi": 44,
      "hit": false,
      "t": 36600.000000000015,
      "d": 195.83333333333576,
      "v": 64
    },
    {
      "midi": 41,
      "hit": false,
      "t": 36800.000000000015,
      "d": 600,
      "v": 70
    },
    {
      "midi": 63,
      "hit": false,
      "t": 36800.000000000015,
      "d": 741.6666666666642,
      "v": 74
    },
    {
      "midi": 60,
      "hit": false,
      "t": 36800.000000000015,
      "d": 750,
      "v": 96
    },
    {
      "midi": 56,
      "hit": false,
      "t": 36800.000000000015,
      "d": 850,
      "v": 78
    },
    {
      "midi": 41,
      "hit": false,
      "t": 37400.000000000015,
      "d": 508.3333333333285,
      "v": 61
    },
    {
      "midi": 48,
      "hit": false,
      "t": 37600.000000000015,
      "d": 266.66666666666424,
      "v": 96
    },
    {
      "midi": 53,
      "hit": false,
      "t": 37800.000000000015,
      "d": 187.49999999999272,
      "v": 96
    },
    {
      "midi": 56,
      "hit": false,
      "t": 38000.00000000001,
      "d": 404.16666666665697,
      "v": 101
    },
    {
      "midi": 51,
      "hit": false,
      "t": 38400,
      "d": 795.8333333333285,
      "v": 93
    },
    {
      "midi": 55,
      "hit": false,
      "t": 38400,
      "d": 795.8333333333285,
      "v": 105
    },
    {
      "midi": 58,
      "hit": false,
      "t": 38400,
      "d": 795.8333333333285,
      "v": 78
    },
    {
      "midi": 39,
      "hit": false,
      "t": 38400,
      "d": 1216.666666666657,
      "v": 101
    },
    {
      "midi": 51,
      "hit": false,
      "t": 39199.99999999999,
      "d": 395.83333333333576,
      "v": 60
    },
    {
      "midi": 58,
      "hit": false,
      "t": 39199.99999999999,
      "d": 395.83333333333576,
      "v": 51
    },
    {
      "midi": 51,
      "hit": false,
      "t": 39599.99999999999,
      "d": 195.83333333332848,
      "v": 74
    },
    {
      "midi": 53,
      "hit": false,
      "t": 39799.999999999985,
      "d": 195.83333333333576,
      "v": 74
    },
    {
      "midi": 51,
      "hit": false,
      "t": 39999.999999999985,
      "d": 395.8333333333285,
      "v": 78
    },
    {
      "midi": 55,
      "hit": false,
      "t": 39999.999999999985,
      "d": 395.8333333333285,
      "v": 89
    },
    {
      "midi": 36,
      "hit": false,
      "t": 39999.999999999985,
      "d": 1116.666666666657,
      "v": 76
    },
    {
      "midi": 48,
      "hit": false,
      "t": 40399.99999999998,
      "d": 187.5,
      "v": 61
    },
    {
      "midi": 56,
      "hit": false,
      "t": 40599.99999999998,
      "d": 275,
      "v": 121
    },
    {
      "midi": 48,
      "hit": false,
      "t": 40799.99999999998,
      "d": 187.5,
      "v": 43
    },
    {
      "midi": 48,
      "hit": false,
      "t": 40999.99999999998,
      "d": 195.83333333332848,
      "v": 44
    },
    {
      "midi": 55,
      "hit": false,
      "t": 40999.99999999998,
      "d": 199.99999999999272,
      "v": 105
    },
    {
      "midi": 48,
      "hit": false,
      "t": 41199.99999999997,
      "d": 195.83333333333576,
      "v": 65
    },
    {
      "midi": 39,
      "hit": false,
      "t": 41399.99999999997,
      "d": 195.83333333332848,
      "v": 71
    },
    {
      "midi": 53,
      "hit": false,
      "t": 41599.99999999996,
      "d": 395.83333333333576,
      "v": 89
    },
    {
      "midi": 41,
      "hit": false,
      "t": 41599.99999999996,
      "d": 1149.9999999999927,
      "v": 92
    },
    {
      "midi": 53,
      "hit": false,
      "t": 41999.99999999996,
      "d": 195.83333333333576,
      "v": 70
    },
    {
      "midi": 53,
      "hit": false,
      "t": 42199.99999999996,
      "d": 195.83333333333576,
      "v": 76
    },
    {
      "midi": 58,
      "hit": false,
      "t": 42199.99999999996,
      "d": 266.66666666666424,
      "v": 116
    },
    {
      "midi": 53,
      "hit": false,
      "t": 42399.99999999996,
      "d": 195.83333333332848,
      "v": 47
    },
    {
      "midi": 53,
      "hit": false,
      "t": 42599.999999999956,
      "d": 395.83333333333576,
      "v": 96
    },
    {
      "midi": 60,
      "hit": false,
      "t": 42599.999999999956,
      "d": 395.83333333333576,
      "v": 110
    },
    {
      "midi": 41,
      "hit": false,
      "t": 42999.999999999956,
      "d": 195.83333333332848,
      "v": 62
    },
    {
      "midi": 53,
      "hit": false,
      "t": 43199.99999999995,
      "d": 795.8333333333285,
      "v": 74
    },
    {
      "midi": 58,
      "hit": false,
      "t": 43199.99999999995,
      "d": 795.8333333333285,
      "v": 74
    },
    {
      "midi": 62,
      "hit": false,
      "t": 43199.99999999995,
      "d": 795.8333333333285,
      "v": 89
    },
    {
      "midi": 46,
      "hit": false,
      "t": 43199.99999999995,
      "d": 1033.3333333333285,
      "v": 93
    },
    {
      "midi": 58,
      "hit": false,
      "t": 43999.99999999994,
      "d": 800,
      "v": 109
    },
    {
      "midi": 53,
      "hit": false,
      "t": 43999.99999999994,
      "d": 804.1666666666642,
      "v": 92
    },
    {
      "midi": 62,
      "hit": false,
      "t": 43999.99999999994,
      "d": 804.1666666666642,
      "v": 96
    },
    {
      "midi": 55,
      "hit": false,
      "t": 44799.99999999994,
      "d": 1187.5,
      "v": 83
    },
    {
      "midi": 58,
      "hit": false,
      "t": 44799.99999999994,
      "d": 1187.5,
      "v": 101
    },
    {
      "midi": 63,
      "hit": false,
      "t": 44799.99999999994,
      "d": 1291.6666666666642,
      "v": 101
    },
    {
      "midi": 67,
      "hit": false,
      "t": 44799.99999999994,
      "d": 1316.6666666666642,
      "v": 86
    },
    {
      "midi": 39,
      "hit": false,
      "t": 44799.99999999994,
      "d": 1341.6666666666642,
      "v": 116
    },
    {
      "midi": 55,
      "hit": false,
      "t": 45999.99999999994,
      "d": 308.33333333333576,
      "v": 72
    },
    {
      "midi": 58,
      "hit": false,
      "t": 46199.99999999994,
      "d": 195.83333333333576,
      "v": 78
    },
    {
      "midi": 55,
      "hit": false,
      "t": 46399.99999999994,
      "d": 795.8333333333358,
      "v": 80
    },
    {
      "midi": 58,
      "hit": false,
      "t": 46399.99999999994,
      "d": 795.8333333333358,
      "v": 93
    },
    {
      "midi": 62,
      "hit": false,
      "t": 46399.99999999994,
      "d": 925,
      "v": 115
    },
    {
      "midi": 43,
      "hit": false,
      "t": 46399.99999999994,
      "d": 1100,
      "v": 83
    },
    {
      "midi": 65,
      "hit": false,
      "t": 46399.99999999994,
      "d": 1116.6666666666642,
      "v": 115
    },
    {
      "midi": 55,
      "hit": false,
      "t": 47199.99999999994,
      "d": 458.3333333333285,
      "v": 86
    },
    {
      "midi": 58,
      "hit": false,
      "t": 47399.99999999994,
      "d": 195.83333333332848,
      "v": 78
    },
    {
      "midi": 58,
      "hit": false,
      "t": 47599.999999999935,
      "d": 195.83333333333576,
      "v": 61
    },
    {
      "midi": 43,
      "hit": false,
      "t": 47799.999999999935,
      "d": 195.83333333333576,
      "v": 42
    },
    {
      "midi": 51,
      "hit": false,
      "t": 47999.999999999935,
      "d": 395.83333333333576,
      "v": 93
    },
    {
      "midi": 58,
      "hit": false,
      "t": 47999.999999999935,
      "d": 466.66666666666424,
      "v": 109
    },
    {
      "midi": 63,
      "hit": false,
      "t": 47999.999999999935,
      "d": 791.6666666666715,
      "v": 101
    },
    {
      "midi": 44,
      "hit": false,
      "t": 47999.999999999935,
      "d": 1100.0000000000073,
      "v": 109
    },
    {
      "midi": 51,
      "hit": false,
      "t": 48399.999999999935,
      "d": 208.33333333333576,
      "v": 47
    },
    {
      "midi": 58,
      "hit": false,
      "t": 48599.999999999935,
      "d": 266.6666666666715,
      "v": 66
    },
    {
      "midi": 51,
      "hit": false,
      "t": 48799.99999999994,
      "d": 458.33333333333576,
      "v": 61
    },
    {
      "midi": 58,
      "hit": false,
      "t": 48999.99999999994,
      "d": 283.33333333333576,
      "v": 74
    },
    {
      "midi": 63,
      "hit": false,
      "t": 49199.99999999994,
      "d": 195.83333333333576,
      "v": 85
    },
    {
      "midi": 44,
      "hit": false,
      "t": 49399.99999999994,
      "d": 195.83333333333576,
      "v": 57
    },
    {
      "midi": 56,
      "hit": false,
      "t": 49599.99999999994,
      "d": 575,
      "v": 101
    },
    {
      "midi": 60,
      "hit": false,
      "t": 49599.99999999994,
      "d": 608.3333333333285,
      "v": 92
    },
    {
      "midi": 63,
      "hit": false,
      "t": 49599.99999999994,
      "d": 608.3333333333285,
      "v": 74
    },
    {
      "midi": 41,
      "hit": false,
      "t": 49599.99999999994,
      "d": 1083.3333333333212,
      "v": 100
    },
    {
      "midi": 53,
      "hit": false,
      "t": 49999.99999999994,
      "d": 204.16666666666424,
      "v": 53
    },
    {
      "midi": 48,
      "hit": false,
      "t": 50199.99999999994,
      "d": 441.66666666665697,
      "v": 86
    },
    {
      "midi": 53,
      "hit": false,
      "t": 50399.999999999935,
      "d": 624.9999999999927,
      "v": 110
    },
    {
      "midi": 56,
      "hit": false,
      "t": 50599.999999999935,
      "d": 187.49999999999272,
      "v": 78
    },
    {
      "midi": 60,
      "hit": false,
      "t": 50799.99999999993,
      "d": 333.33333333333576,
      "v": 74
    },
    {
      "midi": 46,
      "hit": false,
      "t": 50999.99999999993,
      "d": 204.16666666666424,
      "v": 49
    },
    {
      "midi": 55,
      "hit": false,
      "t": 51199.99999999993,
      "d": 795.8333333333285,
      "v": 83
    },
    {
      "midi": 58,
      "hit": false,
      "t": 51199.99999999993,
      "d": 795.8333333333285,
      "v": 101
    },
    {
      "midi": 63,
      "hit": false,
      "t": 51199.99999999993,
      "d": 795.8333333333285,
      "v": 78
    },
    {
      "midi": 51,
      "hit": false,
      "t": 51199.99999999993,
      "d": 858.3333333333285,
      "v": 78
    },
    {
      "midi": 39,
      "hit": false,
      "t": 51199.99999999993,
      "d": 1024.9999999999927,
      "v": 74
    },
    {
      "midi": 55,
      "hit": false,
      "t": 51999.99999999992,
      "d": 395.83333333333576,
      "v": 65
    },
    {
      "midi": 58,
      "hit": false,
      "t": 51999.99999999992,
      "d": 395.83333333333576,
      "v": 71
    },
    {
      "midi": 63,
      "hit": false,
      "t": 51999.99999999992,
      "d": 483.33333333333576,
      "v": 64
    },
    {
      "midi": 39,
      "hit": false,
      "t": 52399.99999999992,
      "d": 395.83333333333576,
      "v": 74
    },
    {
      "midi": 55,
      "hit": false,
      "t": 52399.99999999992,
      "d": 395.83333333333576,
      "v": 92
    },
    {
      "midi": 55,
      "hit": false,
      "t": 52799.99999999992,
      "d": 395.83333333333576,
      "v": 80
    },
    {
      "midi": 60,
      "hit": false,
      "t": 52799.99999999992,
      "d": 583.3333333333358,
      "v": 92
    },
    {
      "midi": 63,
      "hit": false,
      "t": 52799.99999999992,
      "d": 625,
      "v": 74
    },
    {
      "midi": 36,
      "hit": false,
      "t": 52799.99999999992,
      "d": 1199.9999999999927,
      "v": 92
    },
    {
      "midi": 55,
      "hit": false,
      "t": 53199.99999999992,
      "d": 187.5,
      "v": 61
    },
    {
      "midi": 48,
      "hit": false,
      "t": 53399.99999999992,
      "d": 491.66666666666424,
      "v": 86
    },
    {
      "midi": 55,
      "hit": false,
      "t": 53599.99999999992,
      "d": 308.3333333333285,
      "v": 110
    },
    {
      "midi": 60,
      "hit": false,
      "t": 53799.99999999992,
      "d": 195.83333333332848,
      "v": 86
    },
    {
      "midi": 55,
      "hit": false,
      "t": 53999.99999999991,
      "d": 195.83333333333576,
      "v": 70
    },
    {
      "midi": 60,
      "hit": false,
      "t": 53999.99999999991,
      "d": 195.83333333333576,
      "v": 80
    },
    {
      "midi": 63,
      "hit": false,
      "t": 53999.99999999991,
      "d": 195.83333333333576,
      "v": 85
    },
    {
      "midi": 39,
      "hit": false,
      "t": 54199.99999999991,
      "d": 195.83333333333576,
      "v": 93
    },
    {
      "midi": 53,
      "hit": false,
      "t": 54399.99999999991,
      "d": 395.83333333333576,
      "v": 80
    },
    {
      "midi": 41,
      "hit": false,
      "t": 54399.99999999991,
      "d": 475,
      "v": 92
    },
    {
      "midi": 56,
      "hit": false,
      "t": 54399.99999999991,
      "d": 608.3333333333358,
      "v": 101
    },
    {
      "midi": 60,
      "hit": false,
      "t": 54399.99999999991,
      "d": 633.3333333333358,
      "v": 100
    },
    {
      "midi": 63,
      "hit": false,
      "t": 54399.99999999991,
      "d": 641.6666666666715,
      "v": 85
    },
    {
      "midi": 53,
      "hit": false,
      "t": 54799.99999999991,
      "d": 195.83333333333576,
      "v": 55
    },
    {
      "midi": 41,
      "hit": false,
      "t": 54999.99999999991,
      "d": 591.6666666666715,
      "v": 86
    },
    {
      "midi": 53,
      "hit": false,
      "t": 55199.99999999992,
      "d": 533.3333333333285,
      "v": 89
    },
    {
      "midi": 56,
      "hit": false,
      "t": 55399.99999999992,
      "d": 195.83333333332848,
      "v": 109
    },
    {
      "midi": 56,
      "hit": false,
      "t": 55599.99999999991,
      "d": 195.83333333333576,
      "v": 78
    },
    {
      "midi": 60,
      "hit": false,
      "t": 55599.99999999991,
      "d": 195.83333333333576,
      "v": 110
    },
    {
      "midi": 41,
      "hit": false,
      "t": 55799.99999999991,
      "d": 195.83333333333576,
      "v": 68
    },
    {
      "midi": 60,
      "hit": false,
      "t": 55799.99999999991,
      "d": 195.83333333333576,
      "v": 25
    },
    {
      "midi": 53,
      "hit": false,
      "t": 55999.99999999991,
      "d": 195.83333333333576,
      "v": 72
    },
    {
      "midi": 58,
      "hit": false,
      "t": 55999.99999999991,
      "d": 195.83333333333576,
      "v": 85
    },
    {
      "midi": 62,
      "hit": false,
      "t": 55999.99999999991,
      "d": 308.33333333333576,
      "v": 86
    },
    {
      "midi": 46,
      "hit": false,
      "t": 55999.99999999991,
      "d": 1433.3333333333358,
      "v": 101
    },
    {
      "midi": 53,
      "hit": false,
      "t": 56199.99999999991,
      "d": 458.33333333333576,
      "v": 63
    },
    {
      "midi": 58,
      "hit": false,
      "t": 56399.99999999991,
      "d": 400,
      "v": 78
    },
    {
      "midi": 65,
      "hit": false,
      "t": 56599.99999999991,
      "d": 600,
      "v": 110
    },
    {
      "midi": 53,
      "hit": false,
      "t": 56799.99999999991,
      "d": 483.33333333333576,
      "v": 62
    },
    {
      "midi": 62,
      "hit": false,
      "t": 56999.99999999991,
      "d": 316.6666666666715,
      "v": 83
    },
    {
      "midi": 58,
      "hit": false,
      "t": 57199.99999999991,
      "d": 400,
      "v": 69
    },
    {
      "midi": 58,
      "hit": false,
      "t": 57599.99999999991,
      "d": 387.5,
      "v": 93
    },
    {
      "midi": 67,
      "hit": false,
      "t": 57599.99999999991,
      "d": 558.3333333333358,
      "v": 86
    },
    {
      "midi": 63,
      "hit": false,
      "t": 57599.99999999991,
      "d": 608.3333333333358,
      "v": 93
    },
    {
      "midi": 70,
      "hit": false,
      "t": 57599.99999999991,
      "d": 766.6666666666715,
      "v": 93
    },
    {
      "midi": 39,
      "hit": false,
      "t": 57599.99999999991,
      "d": 1150.0000000000073,
      "v": 93
    },
    {
      "midi": 58,
      "hit": false,
      "t": 57999.99999999991,
      "d": 200,
      "v": 43
    },
    {
      "midi": 51,
      "hit": false,
      "t": 58199.99999999991,
      "d": 483.33333333334303,
      "v": 67
    },
    {
      "midi": 58,
      "hit": false,
      "t": 58399.99999999992,
      "d": 441.66666666666424,
      "v": 121
    },
    {
      "midi": 63,
      "hit": false,
      "t": 58599.99999999992,
      "d": 350,
      "v": 93
    },
    {
      "midi": 70,
      "hit": false,
      "t": 58799.99999999992,
      "d": 316.66666666666424,
      "v": 121
    },
    {
      "midi": 39,
      "hit": false,
      "t": 58999.99999999992,
      "d": 195.83333333332848,
      "v": 66
    },
    {
      "midi": 58,
      "hit": false,
      "t": 59199.99999999991,
      "d": 395.83333333333576,
      "v": 78
    },
    {
      "midi": 62,
      "hit": false,
      "t": 59199.99999999991,
      "d": 441.66666666666424,
      "v": 110
    },
    {
      "midi": 65,
      "hit": false,
      "t": 59199.99999999991,
      "d": 458.3333333333285,
      "v": 100
    },
    {
      "midi": 43,
      "hit": false,
      "t": 59199.99999999991,
      "d": 491.66666666666424,
      "v": 50
    },
    {
      "midi": 70,
      "hit": false,
      "t": 59199.99999999991,
      "d": 608.3333333333358,
      "v": 78
    },
    {
      "midi": 58,
      "hit": false,
      "t": 59599.99999999991,
      "d": 799.9999999999927,
      "v": 63
    },
    {
      "midi": 62,
      "hit": false,
      "t": 59799.99999999991,
      "d": 341.66666666666424,
      "v": 92
    },
    {
      "midi": 43,
      "hit": false,
      "t": 59799.99999999991,
      "d": 466.66666666666424,
      "v": 44
    },
    {
      "midi": 70,
      "hit": false,
      "t": 59999.99999999991,
      "d": 458.3333333333285,
      "v": 125
    },
    {
      "midi": 62,
      "hit": false,
      "t": 60199.99999999991,
      "d": 195.83333333332848,
      "v": 57
    },
    {
      "midi": 65,
      "hit": false,
      "t": 60199.99999999991,
      "d": 299.9999999999927,
      "v": 100
    },
    {
      "midi": 62,
      "hit": false,
      "t": 60399.999999999905,
      "d": 195.83333333333576,
      "v": 96
    },
    {
      "midi": 43,
      "hit": false,
      "t": 60599.999999999905,
      "d": 195.83333333333576,
      "v": 63
    },
    {
      "midi": 58,
      "hit": false,
      "t": 60599.999999999905,
      "d": 195.83333333333576,
      "v": 66
    },
    {
      "midi": 58,
      "hit": false,
      "t": 60799.999999999905,
      "d": 395.8333333333285,
      "v": 93
    },
    {
      "midi": 63,
      "hit": false,
      "t": 60799.999999999905,
      "d": 408.3333333333285,
      "v": 116
    },
    {
      "midi": 70,
      "hit": false,
      "t": 60799.999999999905,
      "d": 424.9999999999927,
      "v": 109
    },
    {
      "midi": 44,
      "hit": false,
      "t": 60799.999999999905,
      "d": 1224.9999999999927,
      "v": 93
    },
    {
      "midi": 58,
      "hit": false,
      "t": 61199.9999999999,
      "d": 266.66666666666424,
      "v": 55
    },
    {
      "midi": 63,
      "hit": false,
      "t": 61399.9999999999,
      "d": 241.66666666666424,
      "v": 85
    },
    {
      "midi": 58,
      "hit": false,
      "t": 61599.9999999999,
      "d": 195.83333333333576,
      "v": 50
    },
    {
      "midi": 58,
      "hit": false,
      "t": 61799.9999999999,
      "d": 187.5,
      "v": 85
    },
    {
      "midi": 70,
      "hit": false,
      "t": 61799.9999999999,
      "d": 275,
      "v": 109
    },
    {
      "midi": 63,
      "hit": false,
      "t": 61799.9999999999,
      "d": 283.33333333333576,
      "v": 116
    },
    {
      "midi": 58,
      "hit": false,
      "t": 61999.9999999999,
      "d": 195.83333333333576,
      "v": 67
    },
    {
      "midi": 44,
      "hit": false,
      "t": 62199.9999999999,
      "d": 195.83333333333576,
      "v": 61
    },
    {
      "midi": 60,
      "hit": false,
      "t": 62399.9999999999,
      "d": 395.83333333333576,
      "v": 80
    },
    {
      "midi": 72,
      "hit": false,
      "t": 62399.9999999999,
      "d": 395.83333333333576,
      "v": 83
    },
    {
      "midi": 68,
      "hit": false,
      "t": 62399.9999999999,
      "d": 400,
      "v": 85
    },
    {
      "midi": 41,
      "hit": false,
      "t": 62399.9999999999,
      "d": 1058.3333333333285,
      "v": 92
    },
    {
      "midi": 60,
      "hit": false,
      "t": 62799.9999999999,
      "d": 204.16666666666424,
      "v": 86
    },
    {
      "midi": 48,
      "hit": false,
      "t": 62999.9999999999,
      "d": 266.66666666666424,
      "v": 86
    },
    {
      "midi": 53,
      "hit": false,
      "t": 63199.9999999999,
      "d": 195.83333333332848,
      "v": 86
    },
    {
      "midi": 60,
      "hit": false,
      "t": 63399.99999999989,
      "d": 187.5,
      "v": 110
    },
    {
      "midi": 63,
      "hit": false,
      "t": 63599.99999999989,
      "d": 195.83333333333576,
      "v": 116
    },
    {
      "midi": 46,
      "hit": false,
      "t": 63799.99999999989,
      "d": 241.66666666666424,
      "v": 71
    },
    {
      "midi": 58,
      "hit": false,
      "t": 63999.99999999989,
      "d": 795.8333333333285,
      "v": 93
    },
    {
      "midi": 63,
      "hit": false,
      "t": 63999.99999999989,
      "d": 795.8333333333285,
      "v": 109
    },
    {
      "midi": 67,
      "hit": false,
      "t": 63999.99999999989,
      "d": 795.8333333333285,
      "v": 96
    },
    {
      "midi": 51,
      "hit": false,
      "t": 63999.99999999989,
      "d": 974.9999999999927,
      "v": 109
    },
    {
      "midi": 63,
      "hit": false,
      "t": 64799.99999999988,
      "d": 395.83333333333576,
      "v": 125
    },
    {
      "midi": 65,
      "hit": false,
      "t": 65199.99999999988,
      "d": 395.8333333333285,
      "v": 100
    },
    {
      "midi": 48,
      "hit": false,
      "t": 65599.99999999988,
      "d": 795.8333333333285,
      "v": 89
    },
    {
      "midi": 60,
      "hit": false,
      "t": 65599.99999999988,
      "d": 795.8333333333285,
      "v": 89
    },
    {
      "midi": 63,
      "hit": false,
      "t": 65599.99999999988,
      "d": 795.8333333333285,
      "v": 116
    },
    {
      "midi": 67,
      "hit": false,
      "t": 65599.99999999988,
      "d": 795.8333333333285,
      "v": 96
    },
    {
      "midi": 56,
      "hit": false,
      "t": 66399.99999999988,
      "d": 387.5,
      "v": 109
    },
    {
      "midi": 60,
      "hit": false,
      "t": 66399.99999999988,
      "d": 387.5,
      "v": 92
    },
    {
      "midi": 63,
      "hit": false,
      "t": 66399.99999999988,
      "d": 387.5,
      "v": 125
    },
    {
      "midi": 68,
      "hit": false,
      "t": 66399.99999999988,
      "d": 387.5,
      "v": 101
    },
    {
      "midi": 67,
      "hit": false,
      "t": 66799.99999999988,
      "d": 395.8333333333285,
      "v": 83
    },
    {
      "midi": 68,
      "hit": false,
      "t": 66799.99999999988,
      "d": 395.8333333333285,
      "v": 64
    },
    {
      "midi": 46,
      "hit": false,
      "t": 67199.99999999988,
      "d": 395.8333333333285,
      "v": 121
    },
    {
      "midi": 58,
      "hit": false,
      "t": 67199.99999999988,
      "d": 395.8333333333285,
      "v": 93
    },
    {
      "midi": 65,
      "hit": false,
      "t": 67199.99999999988,
      "d": 395.8333333333285,
      "v": 89
    },
    {
      "midi": 62,
      "hit": false,
      "t": 67599.99999999988,
      "d": 395.8333333333285,
      "v": 105
    },
    {
      "midi": 63,
      "hit": false,
      "t": 67999.99999999988,
      "d": 1600,
      "v": 121
    },
    {
      "midi": 51,
      "hit": false,
      "t": 67999.99999999988,
      "d": 1604.1666666666715,
      "v": 101
    },
    {
      "midi": 58,
      "hit": false,
      "t": 67999.99999999988,
      "d": 1604.1666666666715,
      "v": 101
    },
    {
      "midi": 56,
      "hit": false,
      "t": 69599.99999999988,
      "d": 1595.833333333343,
      "v": 121
    },
    {
      "midi": 63,
      "hit": false,
      "t": 69599.99999999988,
      "d": 1595.833333333343,
      "v": 121
    },
    {
      "midi": 68,
      "hit": false,
      "t": 69599.99999999988,
      "d": 1595.833333333343,
      "v": 109
    },
    {
      "midi": 51,
      "hit": false,
      "t": 71199.9999999999,
      "d": 1595.8333333333285,
      "v": 121
    },
    {
      "midi": 67,
      "hit": false,
      "t": 71199.9999999999,
      "d": 1595.8333333333285,
      "v": 115
    },
    {
      "midi": 70,
      "hit": false,
      "t": 71199.9999999999,
      "d": 1595.8333333333285,
      "v": 125
    },
    {
      "midi": 56,
      "hit": false,
      "t": 72799.9999999999,
      "d": 1595.8333333333285,
      "v": 121
    },
    {
      "midi": 68,
      "hit": false,
      "t": 72799.9999999999,
      "d": 1595.8333333333285,
      "v": 121
    },
    {
      "midi": 72,
      "hit": false,
      "t": 72799.9999999999,
      "d": 1595.8333333333285,
      "v": 115
    },
    {
      "midi": 58,
      "hit": false,
      "t": 74399.9999999999,
      "d": 795.8333333333285,
      "v": 121
    },
    {
      "midi": 63,
      "hit": false,
      "t": 74399.9999999999,
      "d": 795.8333333333285,
      "v": 125
    },
    {
      "midi": 39,
      "hit": false,
      "t": 74399.9999999999,
      "d": 1241.6666666666715,
      "v": 125
    },
    {
      "midi": 63,
      "hit": false,
      "t": 75199.9999999999,
      "d": 683.3333333333285,
      "v": 125
    },
    {
      "midi": 58,
      "hit": false,
      "t": 75199.9999999999,
      "d": 708.3333333333285,
      "v": 121
    },
    {
      "midi": 39,
      "hit": false,
      "t": 75799.9999999999,
      "d": 195.83333333332848,
      "v": 109
    },
    {
      "midi": 58,
      "hit": false,
      "t": 75999.9999999999,
      "d": 795.8333333333285,
      "v": 109
    },
    {
      "midi": 62,
      "hit": false,
      "t": 75999.9999999999,
      "d": 795.8333333333285,
      "v": 115
    },
    {
      "midi": 43,
      "hit": false,
      "t": 75999.9999999999,
      "d": 1300,
      "v": 110
    },
    {
      "midi": 55,
      "hit": false,
      "t": 76799.9999999999,
      "d": 258.3333333333285,
      "v": 115
    },
    {
      "midi": 58,
      "hit": false,
      "t": 76999.9999999999,
      "d": 441.6666666666715,
      "v": 121
    },
    {
      "midi": 62,
      "hit": false,
      "t": 77199.9999999999,
      "d": 291.6666666666715,
      "v": 120
    },
    {
      "midi": 43,
      "hit": false,
      "t": 77399.9999999999,
      "d": 195.83333333334303,
      "v": 80
    },
    {
      "midi": 58,
      "hit": false,
      "t": 77599.99999999991,
      "d": 795.8333333333285,
      "v": 121
    },
    {
      "midi": 63,
      "hit": false,
      "t": 77599.99999999991,
      "d": 795.8333333333285,
      "v": 125
    },
    {
      "midi": 44,
      "hit": false,
      "t": 77599.99999999991,
      "d": 1133.3333333333285,
      "v": 121
    },
    {
      "midi": 58,
      "hit": false,
      "t": 78399.99999999991,
      "d": 675,
      "v": 125
    },
    {
      "midi": 63,
      "hit": false,
      "t": 78399.99999999991,
      "d": 683.3333333333285,
      "v": 125
    },
    {
      "midi": 44,
      "hit": false,
      "t": 78799.99999999991,
      "d": 395.8333333333285,
      "v": 101
    },
    {
      "midi": 56,
      "hit": false,
      "t": 79199.99999999991,
      "d": 795.8333333333285,
      "v": 109
    },
    {
      "midi": 60,
      "hit": false,
      "t": 79199.99999999991,
      "d": 795.8333333333285,
      "v": 115
    },
    {
      "midi": 41,
      "hit": false,
      "t": 79199.99999999991,
      "d": 1058.3333333333285,
      "v": 96
    },
    {
      "midi": 56,
      "hit": false,
      "t": 79999.99999999991,
      "d": 700,
      "v": 116
    },
    {
      "midi": 60,
      "hit": false,
      "t": 79999.99999999991,
      "d": 858.3333333333285,
      "v": 110
    },
    {
      "midi": 41,
      "hit": false,
      "t": 80399.99999999991,
      "d": 395.8333333333285,
      "v": 83
    },
    {
      "midi": 39,
      "hit": false,
      "t": 80799.99999999991,
      "d": 1333.3333333333285,
      "v": 125
    },
    {
      "midi": 55,
      "hit": false,
      "t": 81199.99999999991,
      "d": 300,
      "v": 110
    },
    {
      "midi": 58,
      "hit": false,
      "t": 81399.99999999991,
      "d": 241.66666666667152,
      "v": 121
    },
    {
      "midi": 63,
      "hit": false,
      "t": 81599.99999999991,
      "d": 749.9999999999854,
      "v": 121
    },
    {
      "midi": 58,
      "hit": false,
      "t": 81799.99999999991,
      "d": 541.666666666657,
      "v": 121
    },
    {
      "midi": 55,
      "hit": false,
      "t": 81999.99999999991,
      "d": 399.99999999998545,
      "v": 110
    },
    {
      "midi": 36,
      "hit": false,
      "t": 82399.9999999999,
      "d": 1533.333333333343,
      "v": 124
    },
    {
      "midi": 55,
      "hit": false,
      "t": 82799.9999999999,
      "d": 616.6666666666715,
      "v": 105
    },
    {
      "midi": 60,
      "hit": false,
      "t": 82999.9999999999,
      "d": 250,
      "v": 110
    },
    {
      "midi": 63,
      "hit": false,
      "t": 83199.9999999999,
      "d": 416.6666666666715,
      "v": 125
    },
    {
      "midi": 60,
      "hit": false,
      "t": 83399.9999999999,
      "d": 266.6666666666715,
      "v": 115
    },
    {
      "midi": 55,
      "hit": false,
      "t": 83599.9999999999,
      "d": 395.83333333334303,
      "v": 105
    },
    {
      "midi": 53,
      "hit": false,
      "t": 83999.99999999991,
      "d": 795.8333333333285,
      "v": 100
    },
    {
      "midi": 56,
      "hit": false,
      "t": 83999.99999999991,
      "d": 795.8333333333285,
      "v": 121
    },
    {
      "midi": 41,
      "hit": false,
      "t": 83999.99999999991,
      "d": 1066.6666666666715,
      "v": 124
    },
    {
      "midi": 60,
      "hit": false,
      "t": 84799.99999999991,
      "d": 516.6666666666715,
      "v": 120
    },
    {
      "midi": 56,
      "hit": false,
      "t": 84799.99999999991,
      "d": 533.333333333343,
      "v": 121
    },
    {
      "midi": 41,
      "hit": false,
      "t": 85199.99999999991,
      "d": 395.83333333334303,
      "v": 100
    },
    {
      "midi": 58,
      "hit": false,
      "t": 85599.99999999993,
      "d": 995.8333333333285,
      "v": 121
    },
    {
      "midi": 62,
      "hit": false,
      "t": 85599.99999999993,
      "d": 995.8333333333285,
      "v": 115
    },
    {
      "midi": 46,
      "hit": false,
      "t": 85599.99999999993,
      "d": 1316.6666666666715,
      "v": 116
    },
    {
      "midi": 58,
      "hit": false,
      "t": 86599.99999999993,
      "d": 595.833333333343,
      "v": 121
    },
    {
      "midi": 62,
      "hit": false,
      "t": 86599.99999999993,
      "d": 595.833333333343,
      "v": 120
    },
    {
      "midi": 58,
      "hit": false,
      "t": 87199.99999999994,
      "d": 795.8333333333285,
      "v": 125
    },
    {
      "midi": 63,
      "hit": false,
      "t": 87199.99999999994,
      "d": 795.8333333333285,
      "v": 121
    },
    {
      "midi": 39,
      "hit": false,
      "t": 87199.99999999994,
      "d": 1133.3333333333285,
      "v": 125
    },
    {
      "midi": 58,
      "hit": false,
      "t": 87999.99999999994,
      "d": 666.6666666666715,
      "v": 121
    },
    {
      "midi": 63,
      "hit": false,
      "t": 87999.99999999994,
      "d": 666.6666666666715,
      "v": 125
    },
    {
      "midi": 39,
      "hit": false,
      "t": 88399.99999999994,
      "d": 395.83333333334303,
      "v": 121
    },
    {
      "midi": 58,
      "hit": false,
      "t": 88799.99999999996,
      "d": 795.8333333333285,
      "v": 121
    },
    {
      "midi": 62,
      "hit": false,
      "t": 88799.99999999996,
      "d": 795.8333333333285,
      "v": 115
    },
    {
      "midi": 43,
      "hit": false,
      "t": 88799.99999999996,
      "d": 983.3333333333285,
      "v": 115
    },
    {
      "midi": 58,
      "hit": false,
      "t": 89599.99999999996,
      "d": 491.6666666666715,
      "v": 125
    },
    {
      "midi": 55,
      "hit": false,
      "t": 89599.99999999996,
      "d": 675,
      "v": 105
    },
    {
      "midi": 43,
      "hit": false,
      "t": 89999.99999999996,
      "d": 395.8333333333285,
      "v": 110
    },
    {
      "midi": 56,
      "hit": false,
      "t": 90399.99999999996,
      "d": 795.8333333333285,
      "v": 121
    },
    {
      "midi": 60,
      "hit": false,
      "t": 90399.99999999996,
      "d": 795.8333333333285,
      "v": 110
    },
    {
      "midi": 44,
      "hit": false,
      "t": 90399.99999999996,
      "d": 1083.3333333333285,
      "v": 116
    },
    {
      "midi": 60,
      "hit": false,
      "t": 91199.99999999996,
      "d": 675,
      "v": 124
    },
    {
      "midi": 56,
      "hit": false,
      "t": 91199.99999999996,
      "d": 716.6666666666715,
      "v": 121
    },
    {
      "midi": 44,
      "hit": false,
      "t": 91599.99999999996,
      "d": 395.83333333334303,
      "v": 109
    },
    {
      "midi": 53,
      "hit": false,
      "t": 91999.99999999997,
      "d": 795.8333333333285,
      "v": 105
    },
    {
      "midi": 56,
      "hit": false,
      "t": 91999.99999999997,
      "d": 795.8333333333285,
      "v": 125
    },
    {
      "midi": 41,
      "hit": false,
      "t": 91999.99999999997,
      "d": 891.6666666666715,
      "v": 96
    },
    {
      "midi": 56,
      "hit": false,
      "t": 92799.99999999997,
      "d": 425,
      "v": 121
    },
    {
      "midi": 53,
      "hit": false,
      "t": 92799.99999999997,
      "d": 716.6666666666715,
      "v": 110
    },
    {
      "midi": 41,
      "hit": false,
      "t": 93199.99999999997,
      "d": 395.83333333334303,
      "v": 92
    },
    {
      "midi": 58,
      "hit": false,
      "t": 93599.99999999999,
      "d": 795.8333333333285,
      "v": 121
    },
    {
      "midi": 63,
      "hit": false,
      "t": 93599.99999999999,
      "d": 795.8333333333285,
      "v": 116
    },
    {
      "midi": 39,
      "hit": false,
      "t": 93599.99999999999,
      "d": 991.6666666666715,
      "v": 116
    },
    {
      "midi": 63,
      "hit": false,
      "t": 94399.99999999999,
      "d": 683.3333333333285,
      "v": 125
    },
    {
      "midi": 58,
      "hit": false,
      "t": 94399.99999999999,
      "d": 700,
      "v": 121
    },
    {
      "midi": 39,
      "hit": false,
      "t": 94799.99999999999,
      "d": 395.8333333333285,
      "v": 101
    },
    {
      "midi": 60,
      "hit": false,
      "t": 95199.99999999999,
      "d": 795.8333333333285,
      "v": 124
    },
    {
      "midi": 63,
      "hit": false,
      "t": 95199.99999999999,
      "d": 795.8333333333285,
      "v": 125
    },
    {
      "midi": 48,
      "hit": false,
      "t": 95199.99999999999,
      "d": 1166.6666666666715,
      "v": 96
    },
    {
      "midi": 60,
      "hit": false,
      "t": 95999.99999999999,
      "d": 795.833333333343,
      "v": 120
    },
    {
      "midi": 63,
      "hit": false,
      "t": 95999.99999999999,
      "d": 795.833333333343,
      "v": 121
    },
    {
      "midi": 46,
      "hit": false,
      "t": 96800,
      "d": 395.8333333333285,
      "v": 125
    },
    {
      "midi": 58,
      "hit": false,
      "t": 96800,
      "d": 395.8333333333285,
      "v": 121
    },
    {
      "midi": 62,
      "hit": false,
      "t": 96800,
      "d": 395.8333333333285,
      "v": 110
    },
    {
      "midi": 44,
      "hit": false,
      "t": 97200,
      "d": 395.8333333333285,
      "v": 116
    },
    {
      "midi": 56,
      "hit": false,
      "t": 97200,
      "d": 395.8333333333285,
      "v": 121
    },
    {
      "midi": 62,
      "hit": false,
      "t": 97200,
      "d": 395.8333333333285,
      "v": 86
    },
    {
      "midi": 39,
      "hit": false,
      "t": 97600,
      "d": 2395.8333333333285,
      "v": 125
    },
    {
      "midi": 58,
      "hit": false,
      "t": 97600,
      "d": 2395.8333333333285,
      "v": 121
    },
    {
      "midi": 63,
      "hit": false,
      "t": 97600,
      "d": 2395.8333333333285,
      "v": 121
    },
    {
      "midi": 46,
      "hit": false,
      "t": 100000,
      "d": 1595.8333333333285,
      "v": 121
    },
    {
      "midi": 58,
      "hit": false,
      "t": 100000,
      "d": 1595.8333333333285,
      "v": 121
    },
    {
      "midi": 62,
      "hit": false,
      "t": 100000,
      "d": 1595.8333333333285,
      "v": 120
    },
    {
      "midi": 44,
      "hit": false,
      "t": 101600,
      "d": 795.8333333333285,
      "v": 121
    },
    {
      "midi": 56,
      "hit": false,
      "t": 101600,
      "d": 795.8333333333285,
      "v": 85
    },
    {
      "midi": 60,
      "hit": false,
      "t": 101600,
      "d": 795.8333333333285,
      "v": 120
    },
    {
      "midi": 39,
      "hit": false,
      "t": 102400,
      "d": 1595.8333333333285,
      "v": 125
    },
    {
      "midi": 55,
      "hit": false,
      "t": 102400,
      "d": 1595.8333333333285,
      "v": 96
    },
    {
      "midi": 58,
      "hit": false,
      "t": 102400,
      "d": 1595.8333333333285,
      "v": 121
    },
    {
      "midi": 56,
      "hit": false,
      "t": 104000,
      "d": 795.8333333333285,
      "v": 116
    },
    {
      "midi": 60,
      "hit": false,
      "t": 104000,
      "d": 795.8333333333285,
      "v": 115
    },
    {
      "midi": 44,
      "hit": false,
      "t": 104000,
      "d": 1441.6666666666715,
      "v": 125
    },
    {
      "midi": 56,
      "hit": false,
      "t": 104800,
      "d": 795.833333333343,
      "v": 116
    },
    {
      "midi": 60,
      "hit": false,
      "t": 104800,
      "d": 795.833333333343,
      "v": 115
    },
    {
      "midi": 55,
      "hit": false,
      "t": 105600.00000000001,
      "d": 795.8333333333285,
      "v": 96
    },
    {
      "midi": 58,
      "hit": false,
      "t": 105600.00000000001,
      "d": 795.8333333333285,
      "v": 125
    },
    {
      "midi": 39,
      "hit": false,
      "t": 105600.00000000001,
      "d": 1208.3333333333285,
      "v": 121
    },
    {
      "midi": 55,
      "hit": false,
      "t": 106400.00000000001,
      "d": 795.8333333333285,
      "v": 105
    },
    {
      "midi": 58,
      "hit": false,
      "t": 106400.00000000001,
      "d": 795.8333333333285,
      "v": 121
    },
    {
      "midi": 56,
      "hit": false,
      "t": 107200.00000000001,
      "d": 395.8333333333285,
      "v": 121
    },
    {
      "midi": 44,
      "hit": false,
      "t": 107200.00000000001,
      "d": 400,
      "v": 116
    },
    {
      "midi": 46,
      "hit": false,
      "t": 107600.00000000001,
      "d": 395.8333333333285,
      "v": 121
    },
    {
      "midi": 58,
      "hit": false,
      "t": 107600.00000000001,
      "d": 395.8333333333285,
      "v": 121
    },
    {
      "midi": 48,
      "hit": false,
      "t": 108000.00000000001,
      "d": 395.8333333333285,
      "v": 115
    },
    {
      "midi": 60,
      "hit": false,
      "t": 108000.00000000001,
      "d": 395.8333333333285,
      "v": 120
    },
    {
      "midi": 62,
      "hit": false,
      "t": 108400.00000000001,
      "d": 283.3333333333285,
      "v": 127
    },
    {
      "midi": 50,
      "hit": false,
      "t": 108400.00000000001,
      "d": 291.66666666665697,
      "v": 120
    },
    {
      "midi": 51,
      "hit": false,
      "t": 108800,
      "d": 1033.3333333333285,
      "v": 88
    },
    {
      "midi": 75,
      "hit": false,
      "t": 109600,
      "d": 695.8333333333285,
      "v": 95
    },
    {
      "midi": 70,
      "hit": false,
      "t": 109600,
      "d": 712.5,
      "v": 88
    },
    {
      "midi": 51,
      "hit": false,
      "t": 110000,
      "d": 341.6666666666715,
      "v": 83
    },
    {
      "midi": 74,
      "hit": false,
      "t": 110400,
      "d": 670.8333333333285,
      "v": 95
    },
    {
      "midi": 70,
      "hit": false,
      "t": 110400,
      "d": 683.3333333333285,
      "v": 85
    },
    {
      "midi": 55,
      "hit": false,
      "t": 110400,
      "d": 945.8333333333285,
      "v": 93
    },
    {
      "midi": 74,
      "hit": false,
      "t": 111200,
      "d": 695.8333333333285,
      "v": 95
    },
    {
      "midi": 70,
      "hit": false,
      "t": 111200,
      "d": 708.3333333333285,
      "v": 88
    },
    {
      "midi": 55,
      "hit": false,
      "t": 111600,
      "d": 362.5,
      "v": 89
    },
    {
      "midi": 75,
      "hit": false,
      "t": 112000,
      "d": 650,
      "v": 88
    },
    {
      "midi": 70,
      "hit": false,
      "t": 112000,
      "d": 658.3333333333285,
      "v": 85
    },
    {
      "midi": 56,
      "hit": false,
      "t": 112000,
      "d": 970.8333333333285,
      "v": 85
    },
    {
      "midi": 75,
      "hit": false,
      "t": 112800,
      "d": 654.166666666657,
      "v": 88
    },
    {
      "midi": 70,
      "hit": false,
      "t": 112800,
      "d": 662.4999999999854,
      "v": 88
    },
    {
      "midi": 56,
      "hit": false,
      "t": 113200,
      "d": 220.83333333332848,
      "v": 81
    },
    {
      "midi": 70,
      "hit": false,
      "t": 113599.99999999999,
      "d": 687.5,
      "v": 88
    },
    {
      "midi": 75,
      "hit": false,
      "t": 113599.99999999999,
      "d": 700,
      "v": 95
    },
    {
      "midi": 53,
      "hit": false,
      "t": 113599.99999999999,
      "d": 1062.5,
      "v": 93
    },
    {
      "midi": 77,
      "hit": false,
      "t": 114399.99999999999,
      "d": 687.5,
      "v": 93
    },
    {
      "midi": 70,
      "hit": false,
      "t": 114399.99999999999,
      "d": 695.8333333333285,
      "v": 85
    },
    {
      "midi": 53,
      "hit": false,
      "t": 114799.99999999999,
      "d": 262.5,
      "v": 87
    },
    {
      "midi": 75,
      "hit": false,
      "t": 115199.99999999999,
      "d": 662.5,
      "v": 88
    },
    {
      "midi": 70,
      "hit": false,
      "t": 115199.99999999999,
      "d": 670.8333333333285,
      "v": 85
    },
    {
      "midi": 51,
      "hit": false,
      "t": 115199.99999999999,
      "d": 1062.5,
      "v": 85
    },
    {
      "midi": 70,
      "hit": false,
      "t": 115999.99999999999,
      "d": 666.6666666666715,
      "v": 95
    },
    {
      "midi": 75,
      "hit": false,
      "t": 115999.99999999999,
      "d": 695.833333333343,
      "v": 95
    },
    {
      "midi": 51,
      "hit": false,
      "t": 116399.99999999999,
      "d": 358.33333333334303,
      "v": 85
    },
    {
      "midi": 72,
      "hit": false,
      "t": 116800,
      "d": 666.6666666666715,
      "v": 95
    },
    {
      "midi": 75,
      "hit": false,
      "t": 116800,
      "d": 675,
      "v": 85
    },
    {
      "midi": 48,
      "hit": false,
      "t": 116800,
      "d": 1000,
      "v": 91
    },
    {
      "midi": 72,
      "hit": false,
      "t": 117600,
      "d": 708.3333333333285,
      "v": 95
    },
    {
      "midi": 75,
      "hit": false,
      "t": 117600,
      "d": 716.666666666657,
      "v": 83
    },
    {
      "midi": 48,
      "hit": false,
      "t": 118000,
      "d": 370.8333333333285,
      "v": 87
    },
    {
      "midi": 68,
      "hit": false,
      "t": 118400,
      "d": 683.3333333333285,
      "v": 81
    },
    {
      "midi": 72,
      "hit": false,
      "t": 118400,
      "d": 733.3333333333285,
      "v": 85
    },
    {
      "midi": 53,
      "hit": false,
      "t": 118400,
      "d": 1050,
      "v": 95
    },
    {
      "midi": 75,
      "hit": false,
      "t": 119200,
      "d": 654.1666666666715,
      "v": 85
    },
    {
      "midi": 72,
      "hit": false,
      "t": 119200,
      "d": 704.1666666666715,
      "v": 95
    },
    {
      "midi": 53,
      "hit": false,
      "t": 119600,
      "d": 320.83333333334303,
      "v": 89
    },
    {
      "midi": 70,
      "hit": false,
      "t": 120000.00000000001,
      "d": 750,
      "v": 85
    },
    {
      "midi": 58,
      "hit": false,
      "t": 120000.00000000001,
      "d": 762.5,
      "v": 81
    },
    {
      "midi": 74,
      "hit": false,
      "t": 120000.00000000001,
      "d": 766.6666666666715,
      "v": 89
    },
    {
      "midi": 51,
      "hit": false,
      "t": 121600.00000000001,
      "d": 995.8333333333285,
      "v": 88
    },
    {
      "midi": 75,
      "hit": false,
      "t": 122400.00000000001,
      "d": 658.3333333333285,
      "v": 95
    },
    {
      "midi": 70,
      "hit": false,
      "t": 122400.00000000001,
      "d": 675,
      "v": 88
    },
    {
      "midi": 51,
      "hit": false,
      "t": 122800.00000000001,
      "d": 304.1666666666715,
      "v": 83
    },
    {
      "midi": 74,
      "hit": false,
      "t": 123200.00000000001,
      "d": 633.3333333333285,
      "v": 95
    },
    {
      "midi": 70,
      "hit": false,
      "t": 123200.00000000001,
      "d": 645.8333333333285,
      "v": 85
    },
    {
      "midi": 55,
      "hit": false,
      "t": 123200.00000000001,
      "d": 908.3333333333285,
      "v": 93
    },
    {
      "midi": 74,
      "hit": false,
      "t": 124000.00000000001,
      "d": 658.3333333333285,
      "v": 95
    },
    {
      "midi": 70,
      "hit": false,
      "t": 124000.00000000001,
      "d": 670.8333333333285,
      "v": 88
    },
    {
      "midi": 55,
      "hit": false,
      "t": 124400.00000000001,
      "d": 325,
      "v": 89
    },
    {
      "midi": 75,
      "hit": false,
      "t": 124800.00000000001,
      "d": 612.5,
      "v": 88
    },
    {
      "midi": 70,
      "hit": false,
      "t": 124800.00000000001,
      "d": 620.8333333333285,
      "v": 85
    },
    {
      "midi": 56,
      "hit": false,
      "t": 124800.00000000001,
      "d": 933.3333333333285,
      "v": 85
    },
    {
      "midi": 75,
      "hit": false,
      "t": 125600.00000000001,
      "d": 616.666666666657,
      "v": 88
    },
    {
      "midi": 70,
      "hit": false,
      "t": 125600.00000000001,
      "d": 624.9999999999854,
      "v": 88
    },
    {
      "midi": 56,
      "hit": false,
      "t": 126000.00000000001,
      "d": 183.33333333332848,
      "v": 81
    },
    {
      "midi": 70,
      "hit": false,
      "t": 126400,
      "d": 650,
      "v": 88
    },
    {
      "midi": 75,
      "hit": false,
      "t": 126400,
      "d": 662.5,
      "v": 95
    },
    {
      "midi": 53,
      "hit": false,
      "t": 126400,
      "d": 1025,
      "v": 93
    },
    {
      "midi": 77,
      "hit": false,
      "t": 127200,
      "d": 650,
      "v": 93
    },
    {
      "midi": 70,
      "hit": false,
      "t": 127200,
      "d": 658.3333333333285,
      "v": 85
    },
    {
      "midi": 53,
      "hit": false,
      "t": 127600,
      "d": 225,
      "v": 87
    },
    {
      "midi": 75,
      "hit": false,
      "t": 128000,
      "d": 625,
      "v": 88
    },
    {
      "midi": 70,
      "hit": false,
      "t": 128000,
      "d": 633.3333333333285,
      "v": 85
    },
    {
      "midi": 51,
      "hit": false,
      "t": 128000,
      "d": 1025,
      "v": 85
    },
    {
      "midi": 70,
      "hit": false,
      "t": 128800,
      "d": 629.1666666666715,
      "v": 95
    },
    {
      "midi": 75,
      "hit": false,
      "t": 128800,
      "d": 658.333333333343,
      "v": 95
    },
    {
      "midi": 51,
      "hit": false,
      "t": 129200,
      "d": 320.83333333334303,
      "v": 85
    },
    {
      "midi": 72,
      "hit": false,
      "t": 129600.00000000001,
      "d": 629.1666666666715,
      "v": 95
    },
    {
      "midi": 75,
      "hit": false,
      "t": 129600.00000000001,
      "d": 637.5,
      "v": 85
    },
    {
      "midi": 48,
      "hit": false,
      "t": 129600.00000000001,
      "d": 962.5,
      "v": 91
    },
    {
      "midi": 72,
      "hit": false,
      "t": 130400.00000000001,
      "d": 670.8333333333285,
      "v": 95
    },
    {
      "midi": 75,
      "hit": false,
      "t": 130400.00000000001,
      "d": 679.1666666666715,
      "v": 83
    },
    {
      "midi": 48,
      "hit": false,
      "t": 130800.00000000001,
      "d": 333.3333333333285,
      "v": 87
    },
    {
      "midi": 68,
      "hit": false,
      "t": 131200,
      "d": 645.833333333343,
      "v": 81
    },
    {
      "midi": 72,
      "hit": false,
      "t": 131200,
      "d": 695.833333333343,
      "v": 85
    },
    {
      "midi": 53,
      "hit": false,
      "t": 131200,
      "d": 1012.5,
      "v": 95
    },
    {
      "midi": 75,
      "hit": false,
      "t": 132000,
      "d": 616.666666666657,
      "v": 85
    },
    {
      "midi": 72,
      "hit": false,
      "t": 132000,
      "d": 666.666666666657,
      "v": 95
    },
    {
      "midi": 53,
      "hit": false,
      "t": 132400,
      "d": 283.33333333331393,
      "v": 89
    },
    {
      "midi": 70,
      "hit": false,
      "t": 132799.99999999997,
      "d": 712.5,
      "v": 85
    },
    {
      "midi": 58,
      "hit": false,
      "t": 132799.99999999997,
      "d": 725,
      "v": 81
    },
    {
      "midi": 74,
      "hit": false,
      "t": 132799.99999999997,
      "d": 729.166666666657,
      "v": 89
    },
    {
      "midi": 51,
      "hit": false,
      "t": 134399.99999999997,
      "d": 1033.333333333343,
      "v": 88
    },
    {
      "midi": 75,
      "hit": false,
      "t": 135199.99999999997,
      "d": 695.833333333343,
      "v": 95
    },
    {
      "midi": 70,
      "hit": false,
      "t": 135199.99999999997,
      "d": 712.5,
      "v": 88
    },
    {
      "midi": 51,
      "hit": false,
      "t": 135599.99999999997,
      "d": 341.66666666665697,
      "v": 83
    },
    {
      "midi": 74,
      "hit": false,
      "t": 135999.99999999997,
      "d": 670.833333333343,
      "v": 95
    },
    {
      "midi": 70,
      "hit": false,
      "t": 135999.99999999997,
      "d": 683.333333333343,
      "v": 85
    },
    {
      "midi": 55,
      "hit": false,
      "t": 135999.99999999997,
      "d": 945.833333333343,
      "v": 93
    },
    {
      "midi": 74,
      "hit": false,
      "t": 136799.99999999997,
      "d": 695.833333333343,
      "v": 95
    },
    {
      "midi": 70,
      "hit": false,
      "t": 136799.99999999997,
      "d": 708.333333333343,
      "v": 88
    },
    {
      "midi": 55,
      "hit": false,
      "t": 137199.99999999997,
      "d": 362.5,
      "v": 89
    },
    {
      "midi": 75,
      "hit": false,
      "t": 137599.99999999997,
      "d": 650,
      "v": 88
    },
    {
      "midi": 70,
      "hit": false,
      "t": 137599.99999999997,
      "d": 658.333333333343,
      "v": 85
    },
    {
      "midi": 56,
      "hit": false,
      "t": 137599.99999999997,
      "d": 970.833333333343,
      "v": 85
    },
    {
      "midi": 75,
      "hit": false,
      "t": 138399.99999999997,
      "d": 654.1666666666861,
      "v": 88
    },
    {
      "midi": 70,
      "hit": false,
      "t": 138399.99999999997,
      "d": 662.5000000000291,
      "v": 88
    },
    {
      "midi": 56,
      "hit": false,
      "t": 138799.99999999997,
      "d": 220.83333333334303,
      "v": 81
    },
    {
      "midi": 70,
      "hit": false,
      "t": 139200,
      "d": 687.5,
      "v": 88
    },
    {
      "midi": 75,
      "hit": false,
      "t": 139200,
      "d": 700,
      "v": 95
    },
    {
      "midi": 53,
      "hit": false,
      "t": 139200,
      "d": 1062.5,
      "v": 93
    },
    {
      "midi": 77,
      "hit": false,
      "t": 140000,
      "d": 687.5,
      "v": 93
    },
    {
      "midi": 70,
      "hit": false,
      "t": 140000,
      "d": 695.833333333343,
      "v": 85
    },
    {
      "midi": 53,
      "hit": false,
      "t": 140400,
      "d": 262.5,
      "v": 87
    },
    {
      "midi": 75,
      "hit": false,
      "t": 140800,
      "d": 662.5,
      "v": 88
    },
    {
      "midi": 70,
      "hit": false,
      "t": 140800,
      "d": 670.833333333343,
      "v": 85
    },
    {
      "midi": 51,
      "hit": false,
      "t": 140800,
      "d": 1062.5,
      "v": 85
    },
    {
      "midi": 70,
      "hit": false,
      "t": 141600,
      "d": 666.666666666657,
      "v": 95
    },
    {
      "midi": 75,
      "hit": false,
      "t": 141600,
      "d": 695.8333333333139,
      "v": 95
    },
    {
      "midi": 51,
      "hit": false,
      "t": 142000,
      "d": 358.33333333331393,
      "v": 85
    },
    {
      "midi": 72,
      "hit": false,
      "t": 142399.99999999997,
      "d": 666.666666666657,
      "v": 95
    },
    {
      "midi": 75,
      "hit": false,
      "t": 142399.99999999997,
      "d": 675,
      "v": 85
    },
    {
      "midi": 48,
      "hit": false,
      "t": 142399.99999999997,
      "d": 1000,
      "v": 91
    },
    {
      "midi": 72,
      "hit": false,
      "t": 143199.99999999997,
      "d": 708.333333333343,
      "v": 95
    },
    {
      "midi": 75,
      "hit": false,
      "t": 143199.99999999997,
      "d": 716.6666666666861,
      "v": 83
    },
    {
      "midi": 48,
      "hit": false,
      "t": 143599.99999999997,
      "d": 370.83333333334303,
      "v": 87
    },
    {
      "midi": 68,
      "hit": false,
      "t": 143999.99999999997,
      "d": 683.333333333343,
      "v": 81
    },
    {
      "midi": 72,
      "hit": false,
      "t": 143999.99999999997,
      "d": 733.333333333343,
      "v": 85
    },
    {
      "midi": 53,
      "hit": false,
      "t": 143999.99999999997,
      "d": 1050,
      "v": 95
    },
    {
      "midi": 75,
      "hit": false,
      "t": 144799.99999999997,
      "d": 654.166666666657,
      "v": 85
    },
    {
      "midi": 72,
      "hit": false,
      "t": 144799.99999999997,
      "d": 704.166666666657,
      "v": 95
    },
    {
      "midi": 53,
      "hit": false,
      "t": 145199.99999999997,
      "d": 320.83333333331393,
      "v": 89
    },
    {
      "midi": 70,
      "hit": false,
      "t": 145599.99999999994,
      "d": 750,
      "v": 85
    },
    {
      "midi": 58,
      "hit": false,
      "t": 145599.99999999994,
      "d": 762.5,
      "v": 81
    },
    {
      "midi": 74,
      "hit": false,
      "t": 145599.99999999994,
      "d": 766.666666666657,
      "v": 89
    },
    {
      "midi": 58,
      "hit": false,
      "t": 147199.99999999994,
      "d": 795.833333333343,
      "v": 125
    },
    {
      "midi": 63,
      "hit": false,
      "t": 147199.99999999994,
      "d": 795.833333333343,
      "v": 121
    },
    {
      "midi": 39,
      "hit": false,
      "t": 147199.99999999994,
      "d": 1133.333333333343,
      "v": 125
    },
    {
      "midi": 58,
      "hit": false,
      "t": 147999.99999999994,
      "d": 666.666666666657,
      "v": 121
    },
    {
      "midi": 63,
      "hit": false,
      "t": 147999.99999999994,
      "d": 666.666666666657,
      "v": 125
    },
    {
      "midi": 39,
      "hit": false,
      "t": 148399.99999999994,
      "d": 395.83333333331393,
      "v": 121
    },
    {
      "midi": 58,
      "hit": false,
      "t": 148799.9999999999,
      "d": 795.833333333343,
      "v": 121
    },
    {
      "midi": 62,
      "hit": false,
      "t": 148799.9999999999,
      "d": 795.833333333343,
      "v": 115
    },
    {
      "midi": 43,
      "hit": false,
      "t": 148799.9999999999,
      "d": 983.333333333343,
      "v": 115
    },
    {
      "midi": 58,
      "hit": false,
      "t": 149599.9999999999,
      "d": 491.66666666665697,
      "v": 125
    },
    {
      "midi": 55,
      "hit": false,
      "t": 149599.9999999999,
      "d": 675,
      "v": 105
    },
    {
      "midi": 43,
      "hit": false,
      "t": 149999.9999999999,
      "d": 395.83333333334303,
      "v": 110
    },
    {
      "midi": 56,
      "hit": false,
      "t": 150399.9999999999,
      "d": 795.833333333343,
      "v": 121
    },
    {
      "midi": 60,
      "hit": false,
      "t": 150399.9999999999,
      "d": 795.833333333343,
      "v": 110
    },
    {
      "midi": 44,
      "hit": false,
      "t": 150399.9999999999,
      "d": 1083.333333333343,
      "v": 116
    },
    {
      "midi": 60,
      "hit": false,
      "t": 151199.9999999999,
      "d": 675,
      "v": 124
    },
    {
      "midi": 56,
      "hit": false,
      "t": 151199.9999999999,
      "d": 716.666666666657,
      "v": 121
    },
    {
      "midi": 44,
      "hit": false,
      "t": 151599.9999999999,
      "d": 395.83333333331393,
      "v": 109
    },
    {
      "midi": 53,
      "hit": false,
      "t": 151999.99999999988,
      "d": 795.833333333343,
      "v": 105
    },
    {
      "midi": 56,
      "hit": false,
      "t": 151999.99999999988,
      "d": 795.833333333343,
      "v": 125
    },
    {
      "midi": 41,
      "hit": false,
      "t": 151999.99999999988,
      "d": 891.666666666657,
      "v": 96
    },
    {
      "midi": 56,
      "hit": false,
      "t": 152799.99999999988,
      "d": 425,
      "v": 121
    },
    {
      "midi": 53,
      "hit": false,
      "t": 152799.99999999988,
      "d": 716.666666666657,
      "v": 110
    },
    {
      "midi": 41,
      "hit": false,
      "t": 153199.99999999988,
      "d": 395.83333333331393,
      "v": 92
    },
    {
      "midi": 58,
      "hit": false,
      "t": 153599.99999999985,
      "d": 795.833333333343,
      "v": 121
    },
    {
      "midi": 63,
      "hit": false,
      "t": 153599.99999999985,
      "d": 795.833333333343,
      "v": 116
    },
    {
      "midi": 39,
      "hit": false,
      "t": 153599.99999999985,
      "d": 991.666666666657,
      "v": 116
    },
    {
      "midi": 63,
      "hit": false,
      "t": 154399.99999999985,
      "d": 683.333333333343,
      "v": 125
    },
    {
      "midi": 58,
      "hit": false,
      "t": 154399.99999999985,
      "d": 700,
      "v": 121
    },
    {
      "midi": 39,
      "hit": false,
      "t": 154799.99999999985,
      "d": 395.83333333334303,
      "v": 101
    },
    {
      "midi": 60,
      "hit": false,
      "t": 155199.99999999985,
      "d": 795.833333333343,
      "v": 124
    },
    {
      "midi": 63,
      "hit": false,
      "t": 155199.99999999985,
      "d": 795.833333333343,
      "v": 125
    },
    {
      "midi": 48,
      "hit": false,
      "t": 155199.99999999985,
      "d": 1166.666666666657,
      "v": 96
    },
    {
      "midi": 60,
      "hit": false,
      "t": 155999.99999999985,
      "d": 795.8333333333139,
      "v": 120
    },
    {
      "midi": 63,
      "hit": false,
      "t": 155999.99999999985,
      "d": 795.8333333333139,
      "v": 121
    },
    {
      "midi": 46,
      "hit": false,
      "t": 156799.99999999983,
      "d": 395.83333333334303,
      "v": 125
    },
    {
      "midi": 58,
      "hit": false,
      "t": 156799.99999999983,
      "d": 395.83333333334303,
      "v": 121
    },
    {
      "midi": 62,
      "hit": false,
      "t": 156799.99999999983,
      "d": 395.83333333334303,
      "v": 110
    },
    {
      "midi": 44,
      "hit": false,
      "t": 157199.99999999983,
      "d": 395.83333333334303,
      "v": 116
    },
    {
      "midi": 56,
      "hit": false,
      "t": 157199.99999999983,
      "d": 395.83333333334303,
      "v": 121
    },
    {
      "midi": 62,
      "hit": false,
      "t": 157199.99999999983,
      "d": 395.83333333334303,
      "v": 86
    },
    {
      "midi": 39,
      "hit": false,
      "t": 157599.99999999983,
      "d": 2395.833333333343,
      "v": 125
    },
    {
      "midi": 58,
      "hit": false,
      "t": 157599.99999999983,
      "d": 2395.833333333343,
      "v": 121
    },
    {
      "midi": 63,
      "hit": false,
      "t": 157599.99999999983,
      "d": 2395.833333333343,
      "v": 121
    },
    {
      "midi": 46,
      "hit": false,
      "t": 159999.99999999983,
      "d": 1595.833333333343,
      "v": 121
    },
    {
      "midi": 58,
      "hit": false,
      "t": 159999.99999999983,
      "d": 1595.833333333343,
      "v": 121
    },
    {
      "midi": 62,
      "hit": false,
      "t": 159999.99999999983,
      "d": 1595.833333333343,
      "v": 120
    },
    {
      "midi": 44,
      "hit": false,
      "t": 161599.99999999983,
      "d": 795.833333333343,
      "v": 121
    },
    {
      "midi": 56,
      "hit": false,
      "t": 161599.99999999983,
      "d": 795.833333333343,
      "v": 85
    },
    {
      "midi": 60,
      "hit": false,
      "t": 161599.99999999983,
      "d": 795.833333333343,
      "v": 120
    },
    {
      "midi": 39,
      "hit": false,
      "t": 162399.99999999983,
      "d": 1595.833333333343,
      "v": 125
    },
    {
      "midi": 55,
      "hit": false,
      "t": 162399.99999999983,
      "d": 1595.833333333343,
      "v": 96
    },
    {
      "midi": 58,
      "hit": false,
      "t": 162399.99999999983,
      "d": 1595.833333333343,
      "v": 121
    }
  ]
}