{
  "jsonPath": "Soundtracks/Video Game Music/Super Mario Galaxy/super-mario-galaxy-spacejunkgalaxy.json",
  "path": "Soundtracks\\Video Game Music\\Super Mario Galaxy\\Super_Mario_Galaxy_SpaceJunkGalaxy.mid",
  "name": "Super_Mario_Galaxy_SpaceJunkGalaxy",
  "difficulty": "Advanced",
  "bpm": 114.0001710002565,
  "notes": [
    {
      "midi": 44,
      "hit": false,
      "t": 5.139794921875,
      "d": 1573.2912255859376,
      "v": 64
    },
    {
      "midi": 51,
      "hit": false,
      "t": 279.60484375000004,
      "d": 244.14025878906256,
      "v": 64
    },
    {
      "midi": 56,
      "hit": false,
      "t": 539.6784667968751,
      "d": 245.68219726562495,
      "v": 65
    },
    {
      "midi": 60,
      "hit": false,
      "t": 801.2940283203126,
      "d": 244.65423828125006,
      "v": 64
    },
    {
      "midi": 62,
      "hit": false,
      "t": 1061.881630859375,
      "d": 241.57036132812505,
      "v": 67
    },
    {
      "midi": 67,
      "hit": false,
      "t": 1319.3853564453125,
      "d": 243.62627929687505,
      "v": 64
    },
    {
      "midi": 72,
      "hit": false,
      "t": 1581.00091796875,
      "d": 1059.3117333984378,
      "v": 64
    },
    {
      "midi": 44,
      "hit": false,
      "t": 1581.00091796875,
      "d": 1576.375102539063,
      "v": 64
    },
    {
      "midi": 51,
      "hit": false,
      "t": 1858.54984375,
      "d": 244.1402587890625,
      "v": 64
    },
    {
      "midi": 56,
      "hit": false,
      "t": 2118.623466796875,
      "d": 245.68219726562484,
      "v": 65
    },
    {
      "midi": 60,
      "hit": false,
      "t": 2380.2390283203126,
      "d": 244.65423828124995,
      "v": 64
    },
    {
      "midi": 62,
      "hit": false,
      "t": 2640.826630859375,
      "d": 241.57036132812482,
      "v": 67
    },
    {
      "midi": 67,
      "hit": false,
      "t": 2898.3303564453126,
      "d": 243.62627929687505,
      "v": 64
    },
    {
      "midi": 44,
      "hit": false,
      "t": 3159.9459179687506,
      "d": 1576.3751025390616,
      "v": 64
    },
    {
      "midi": 51,
      "hit": false,
      "t": 3437.4948437500007,
      "d": 244.1402587890625,
      "v": 64
    },
    {
      "midi": 56,
      "hit": false,
      "t": 3697.568466796876,
      "d": 245.68219726562484,
      "v": 65
    },
    {
      "midi": 60,
      "hit": false,
      "t": 3959.1840283203132,
      "d": 244.65423828124995,
      "v": 64
    },
    {
      "midi": 62,
      "hit": false,
      "t": 4219.771630859375,
      "d": 241.57036132812482,
      "v": 67
    },
    {
      "midi": 67,
      "hit": false,
      "t": 4477.275356445312,
      "d": 243.6262792968746,
      "v": 64
    },
    {
      "midi": 72,
      "hit": false,
      "t": 4738.89091796875,
      "d": 1059.3117333984374,
      "v": 64
    },
    {
      "midi": 44,
      "hit": false,
      "t": 4738.89091796875,
      "d": 1576.375102539062,
      "v": 64
    },
    {
      "midi": 51,
      "hit": false,
      "t": 5016.439843749999,
      "d": 244.1402587890625,
      "v": 64
    },
    {
      "midi": 56,
      "hit": false,
      "t": 5276.513466796874,
      "d": 245.6821972656253,
      "v": 65
    },
    {
      "midi": 60,
      "hit": false,
      "t": 5538.129028320312,
      "d": 244.6542382812504,
      "v": 64
    },
    {
      "midi": 62,
      "hit": false,
      "t": 5798.716630859375,
      "d": 241.57036132812482,
      "v": 67
    },
    {
      "midi": 67,
      "hit": false,
      "t": 6056.220356445312,
      "d": 243.6262792968746,
      "v": 64
    },
    {
      "midi": 44,
      "hit": false,
      "t": 6317.8359179687495,
      "d": 1576.375102539062,
      "v": 64
    },
    {
      "midi": 51,
      "hit": false,
      "t": 6595.384843749999,
      "d": 244.1402587890625,
      "v": 64
    },
    {
      "midi": 56,
      "hit": false,
      "t": 6855.458466796874,
      "d": 245.6821972656253,
      "v": 65
    },
    {
      "midi": 63,
      "hit": false,
      "t": 6855.458466796874,
      "d": 521.689184570313,
      "v": 65
    },
    {
      "midi": 58,
      "hit": false,
      "t": 7117.074028320311,
      "d": 244.6542382812504,
      "v": 64
    },
    {
      "midi": 60,
      "hit": false,
      "t": 7377.661630859375,
      "d": 241.57036132812482,
      "v": 67
    },
    {
      "midi": 75,
      "hit": false,
      "t": 7377.661630859375,
      "d": 516.5493896484368,
      "v": 67
    },
    {
      "midi": 63,
      "hit": false,
      "t": 7635.165356445312,
      "d": 243.6262792968746,
      "v": 64
    },
    {
      "midi": 74,
      "hit": false,
      "t": 7896.780917968749,
      "d": 798.7241308593739,
      "v": 69
    },
    {
      "midi": 44,
      "hit": false,
      "t": 7896.780917968749,
      "d": 1576.375102539062,
      "v": 64
    },
    {
      "midi": 51,
      "hit": false,
      "t": 8174.329843749999,
      "d": 244.1402587890616,
      "v": 64
    },
    {
      "midi": 56,
      "hit": false,
      "t": 8434.403466796874,
      "d": 245.6821972656253,
      "v": 65
    },
    {
      "midi": 72,
      "hit": false,
      "t": 8696.01902832031,
      "d": 244.6542382812495,
      "v": 64
    },
    {
      "midi": 58,
      "hit": false,
      "t": 8696.01902832031,
      "d": 244.6542382812495,
      "v": 64
    },
    {
      "midi": 70,
      "hit": false,
      "t": 8956.606630859373,
      "d": 241.57036132812573,
      "v": 67
    },
    {
      "midi": 60,
      "hit": false,
      "t": 8956.606630859373,
      "d": 241.57036132812573,
      "v": 67
    },
    {
      "midi": 68,
      "hit": false,
      "t": 9214.110356445311,
      "d": 243.6262792968755,
      "v": 64
    },
    {
      "midi": 63,
      "hit": false,
      "t": 9214.110356445311,
      "d": 243.6262792968755,
      "v": 64
    },
    {
      "midi": 72,
      "hit": false,
      "t": 9475.725917968748,
      "d": 1576.3751025390648,
      "v": 64
    },
    {
      "midi": 44,
      "hit": false,
      "t": 9475.725917968748,
      "d": 1576.3751025390648,
      "v": 64
    },
    {
      "midi": 51,
      "hit": false,
      "t": 9753.274843749998,
      "d": 244.1402587890625,
      "v": 64
    },
    {
      "midi": 56,
      "hit": false,
      "t": 10013.348466796873,
      "d": 245.6821972656253,
      "v": 65
    },
    {
      "midi": 58,
      "hit": false,
      "t": 10274.964028320312,
      "d": 244.6542382812495,
      "v": 64
    },
    {
      "midi": 60,
      "hit": false,
      "t": 10535.551630859374,
      "d": 241.57036132812573,
      "v": 67
    },
    {
      "midi": 63,
      "hit": false,
      "t": 10793.055356445313,
      "d": 243.6262792968755,
      "v": 64
    },
    {
      "midi": 44,
      "hit": false,
      "t": 11054.67091796875,
      "d": 1576.3751025390648,
      "v": 64
    },
    {
      "midi": 51,
      "hit": false,
      "t": 11332.21984375,
      "d": 244.1402587890625,
      "v": 64
    },
    {
      "midi": 56,
      "hit": false,
      "t": 11592.293466796875,
      "d": 245.6821972656253,
      "v": 65
    },
    {
      "midi": 58,
      "hit": false,
      "t": 11853.909028320313,
      "d": 244.6542382812495,
      "v": 64
    },
    {
      "midi": 60,
      "hit": false,
      "t": 12114.496630859376,
      "d": 241.57036132812573,
      "v": 67
    },
    {
      "midi": 63,
      "hit": false,
      "t": 12372.000356445315,
      "d": 243.6262792968755,
      "v": 64
    },
    {
      "midi": 44,
      "hit": false,
      "t": 12633.615917968751,
      "d": 1576.375102539063,
      "v": 64
    },
    {
      "midi": 51,
      "hit": false,
      "t": 12911.16484375,
      "d": 244.1402587890625,
      "v": 64
    },
    {
      "midi": 56,
      "hit": false,
      "t": 13171.238466796876,
      "d": 245.6821972656253,
      "v": 65
    },
    {
      "midi": 63,
      "hit": false,
      "t": 13171.238466796876,
      "d": 521.6891845703121,
      "v": 65
    },
    {
      "midi": 58,
      "hit": false,
      "t": 13432.854028320315,
      "d": 244.6542382812495,
      "v": 64
    },
    {
      "midi": 60,
      "hit": false,
      "t": 13693.441630859375,
      "d": 241.57036132812573,
      "v": 67
    },
    {
      "midi": 75,
      "hit": false,
      "t": 13693.441630859375,
      "d": 516.5493896484386,
      "v": 67
    },
    {
      "midi": 63,
      "hit": false,
      "t": 13950.945356445314,
      "d": 243.6262792968755,
      "v": 64
    },
    {
      "midi": 74,
      "hit": false,
      "t": 14212.56091796875,
      "d": 798.7241308593748,
      "v": 69
    },
    {
      "midi": 44,
      "hit": false,
      "t": 14212.56091796875,
      "d": 1576.375102539063,
      "v": 64
    },
    {
      "midi": 51,
      "hit": false,
      "t": 14490.10984375,
      "d": 244.1402587890625,
      "v": 64
    },
    {
      "midi": 56,
      "hit": false,
      "t": 14750.183466796876,
      "d": 245.6821972656253,
      "v": 65
    },
    {
      "midi": 72,
      "hit": false,
      "t": 15011.799028320313,
      "d": 244.6542382812495,
      "v": 64
    },
    {
      "midi": 58,
      "hit": false,
      "t": 15011.799028320313,
      "d": 244.6542382812495,
      "v": 64
    },
    {
      "midi": 70,
      "hit": false,
      "t": 15272.386630859375,
      "d": 241.57036132812573,
      "v": 67
    },
    {
      "midi": 60,
      "hit": false,
      "t": 15272.386630859375,
      "d": 241.57036132812573,
      "v": 67
    },
    {
      "midi": 68,
      "hit": false,
      "t": 15529.890356445314,
      "d": 243.6262792968755,
      "v": 64
    },
    {
      "midi": 63,
      "hit": false,
      "t": 15529.890356445314,
      "d": 243.6262792968755,
      "v": 64
    },
    {
      "midi": 42,
      "hit": false,
      "t": 15791.50591796875,
      "d": 1576.3751025390648,
      "v": 64
    },
    {
      "midi": 72,
      "hit": false,
      "t": 15791.50591796875,
      "d": 3155.320102539068,
      "v": 64
    },
    {
      "midi": 51,
      "hit": false,
      "t": 16069.05484375,
      "d": 244.1402587890625,
      "v": 64
    },
    {
      "midi": 56,
      "hit": false,
      "t": 16329.128466796876,
      "d": 245.6821972656253,
      "v": 65
    },
    {
      "midi": 58,
      "hit": false,
      "t": 16590.744028320314,
      "d": 244.6542382812513,
      "v": 64
    },
    {
      "midi": 60,
      "hit": false,
      "t": 16851.33163085938,
      "d": 241.57036132812573,
      "v": 67
    },
    {
      "midi": 63,
      "hit": false,
      "t": 17108.835356445317,
      "d": 243.6262792968737,
      "v": 64
    },
    {
      "midi": 42,
      "hit": false,
      "t": 17370.450917968752,
      "d": 1576.3751025390666,
      "v": 64
    },
    {
      "midi": 51,
      "hit": false,
      "t": 17647.999843750003,
      "d": 244.1402587890625,
      "v": 64
    },
    {
      "midi": 56,
      "hit": false,
      "t": 17908.07346679688,
      "d": 245.6821972656253,
      "v": 65
    },
    {
      "midi": 58,
      "hit": false,
      "t": 18169.689028320317,
      "d": 244.6542382812513,
      "v": 64
    },
    {
      "midi": 60,
      "hit": false,
      "t": 18430.276630859382,
      "d": 241.57036132812573,
      "v": 67
    },
    {
      "midi": 63,
      "hit": false,
      "t": 18687.78035644532,
      "d": 243.6262792968737,
      "v": 64
    },
    {
      "midi": 44,
      "hit": false,
      "t": 18949.395917968755,
      "d": 1576.3751025390666,
      "v": 64
    },
    {
      "midi": 51,
      "hit": false,
      "t": 19226.944843750007,
      "d": 244.1402587890625,
      "v": 64
    },
    {
      "midi": 56,
      "hit": false,
      "t": 19487.018466796882,
      "d": 245.6821972656253,
      "v": 65
    },
    {
      "midi": 63,
      "hit": false,
      "t": 19487.018466796882,
      "d": 542.2483642578154,
      "v": 53
    },
    {
      "midi": 58,
      "hit": false,
      "t": 19748.63402832032,
      "d": 244.6542382812513,
      "v": 64
    },
    {
      "midi": 60,
      "hit": false,
      "t": 20009.221630859385,
      "d": 241.57036132812573,
      "v": 67
    },
    {
      "midi": 75,
      "hit": false,
      "t": 20009.221630859385,
      "d": 537.1085693359346,
      "v": 55
    },
    {
      "midi": 63,
      "hit": false,
      "t": 20266.725356445324,
      "d": 243.6262792968737,
      "v": 64
    },
    {
      "midi": 74,
      "hit": false,
      "t": 20528.34091796876,
      "d": 798.724130859373,
      "v": 69
    },
    {
      "midi": 44,
      "hit": false,
      "t": 20528.34091796876,
      "d": 1576.375102539063,
      "v": 64
    },
    {
      "midi": 51,
      "hit": false,
      "t": 20805.889843750007,
      "d": 244.1402587890625,
      "v": 64
    },
    {
      "midi": 56,
      "hit": false,
      "t": 21065.963466796882,
      "d": 245.6821972656253,
      "v": 65
    },
    {
      "midi": 72,
      "hit": false,
      "t": 21327.57902832032,
      "d": 244.6542382812513,
      "v": 64
    },
    {
      "midi": 58,
      "hit": false,
      "t": 21327.57902832032,
      "d": 244.6542382812513,
      "v": 64
    },
    {
      "midi": 70,
      "hit": false,
      "t": 21588.166630859385,
      "d": 241.57036132812573,
      "v": 67
    },
    {
      "midi": 60,
      "hit": false,
      "t": 21588.166630859385,
      "d": 241.57036132812573,
      "v": 67
    },
    {
      "midi": 68,
      "hit": false,
      "t": 21845.670356445324,
      "d": 243.6262792968737,
      "v": 64
    },
    {
      "midi": 63,
      "hit": false,
      "t": 21845.670356445324,
      "d": 243.6262792968737,
      "v": 64
    },
    {
      "midi": 72,
      "hit": false,
      "t": 22107.28591796876,
      "d": 1576.3751025390666,
      "v": 64
    },
    {
      "midi": 44,
      "hit": false,
      "t": 22107.28591796876,
      "d": 1576.3751025390666,
      "v": 64
    },
    {
      "midi": 51,
      "hit": false,
      "t": 22384.83484375001,
      "d": 244.1402587890625,
      "v": 64
    },
    {
      "midi": 56,
      "hit": false,
      "t": 22644.908466796885,
      "d": 245.6821972656253,
      "v": 65
    },
    {
      "midi": 58,
      "hit": false,
      "t": 22906.524028320324,
      "d": 244.6542382812513,
      "v": 64
    },
    {
      "midi": 60,
      "hit": false,
      "t": 23167.11163085939,
      "d": 241.57036132812573,
      "v": 67
    },
    {
      "midi": 63,
      "hit": false,
      "t": 23424.615356445327,
      "d": 243.6262792968737,
      "v": 64
    },
    {
      "midi": 44,
      "hit": false,
      "t": 23686.23091796876,
      "d": 1576.3751025390666,
      "v": 64
    },
    {
      "midi": 51,
      "hit": false,
      "t": 23963.779843750013,
      "d": 244.1402587890625,
      "v": 64
    },
    {
      "midi": 56,
      "hit": false,
      "t": 24223.85346679689,
      "d": 245.6821972656253,
      "v": 65
    },
    {
      "midi": 58,
      "hit": false,
      "t": 24485.469028320327,
      "d": 244.6542382812513,
      "v": 64
    },
    {
      "midi": 60,
      "hit": false,
      "t": 24746.05663085939,
      "d": 241.57036132812573,
      "v": 67
    },
    {
      "midi": 63,
      "hit": false,
      "t": 25003.56035644533,
      "d": 243.6262792968737,
      "v": 64
    },
    {
      "midi": 40,
      "hit": false,
      "t": 25265.175917968765,
      "d": 1576.3751025390666,
      "v": 63
    },
    {
      "midi": 47,
      "hit": false,
      "t": 25542.724843750017,
      "d": 244.1402587890625,
      "v": 64
    },
    {
      "midi": 52,
      "hit": false,
      "t": 25802.798466796892,
      "d": 245.6821972656253,
      "v": 65
    },
    {
      "midi": 63,
      "hit": false,
      "t": 25802.798466796892,
      "d": 521.689184570314,
      "v": 65
    },
    {
      "midi": 54,
      "hit": false,
      "t": 26064.41402832033,
      "d": 244.6542382812513,
      "v": 64
    },
    {
      "midi": 56,
      "hit": false,
      "t": 26325.001630859395,
      "d": 241.57036132812573,
      "v": 67
    },
    {
      "midi": 75,
      "hit": false,
      "t": 26325.001630859395,
      "d": 516.5493896484368,
      "v": 67
    },
    {
      "midi": 59,
      "hit": false,
      "t": 26582.505356445334,
      "d": 243.6262792968737,
      "v": 64
    },
    {
      "midi": 73,
      "hit": false,
      "t": 26844.12091796877,
      "d": 798.7241308593766,
      "v": 69
    },
    {
      "midi": 42,
      "hit": false,
      "t": 26844.12091796877,
      "d": 1576.3751025390666,
      "v": 64
    },
    {
      "midi": 49,
      "hit": false,
      "t": 27121.66984375002,
      "d": 244.1402587890625,
      "v": 64
    },
    {
      "midi": 54,
      "hit": false,
      "t": 27381.743466796896,
      "d": 245.6821972656253,
      "v": 65
    },
    {
      "midi": 72,
      "hit": false,
      "t": 27643.359028320334,
      "d": 244.6542382812513,
      "v": 64
    },
    {
      "midi": 56,
      "hit": false,
      "t": 27643.359028320334,
      "d": 244.6542382812513,
      "v": 64
    },
    {
      "midi": 70,
      "hit": false,
      "t": 27903.9466308594,
      "d": 241.57036132812573,
      "v": 67
    },
    {
      "midi": 58,
      "hit": false,
      "t": 27903.9466308594,
      "d": 241.57036132812573,
      "v": 67
    },
    {
      "midi": 73,
      "hit": false,
      "t": 28161.450356445337,
      "d": 243.6262792968737,
      "v": 64
    },
    {
      "midi": 61,
      "hit": false,
      "t": 28161.450356445337,
      "d": 243.6262792968737,
      "v": 64
    },
    {
      "midi": 44,
      "hit": false,
      "t": 28423.065917968772,
      "d": 1576.3751025390666,
      "v": 64
    },
    {
      "midi": 72,
      "hit": false,
      "t": 28423.065917968772,
      "d": 3155.3201025390663,
      "v": 64
    },
    {
      "midi": 51,
      "hit": false,
      "t": 28700.614843750023,
      "d": 244.1402587890625,
      "v": 64
    },
    {
      "midi": 56,
      "hit": false,
      "t": 28960.6884667969,
      "d": 245.6821972656253,
      "v": 65
    },
    {
      "midi": 58,
      "hit": false,
      "t": 29222.304028320337,
      "d": 244.6542382812513,
      "v": 64
    },
    {
      "midi": 60,
      "hit": false,
      "t": 29482.8916308594,
      "d": 241.57036132812573,
      "v": 67
    },
    {
      "midi": 63,
      "hit": false,
      "t": 29740.39535644534,
      "d": 243.6262792968737,
      "v": 64
    },
    {
      "midi": 68,
      "hit": false,
      "t": 30002.010917968775,
      "d": 261.10158203124956,
      "v": 69
    },
    {
      "midi": 67,
      "hit": false,
      "t": 30279.559843750023,
      "d": 244.1402587890625,
      "v": 64
    },
    {
      "midi": 63,
      "hit": false,
      "t": 30539.6334667969,
      "d": 245.6821972656253,
      "v": 65
    },
    {
      "midi": 60,
      "hit": false,
      "t": 30801.249028320337,
      "d": 244.6542382812513,
      "v": 64
    },
    {
      "midi": 56,
      "hit": false,
      "t": 31061.8366308594,
      "d": 241.57036132812573,
      "v": 67
    },
    {
      "midi": 55,
      "hit": false,
      "t": 31319.34035644534,
      "d": 243.6262792968737,
      "v": 64
    },
    {
      "midi": 44,
      "hit": false,
      "t": 31580.955917968775,
      "d": 1576.3751025390702,
      "v": 64
    },
    {
      "midi": 51,
      "hit": false,
      "t": 31858.504843750026,
      "d": 244.1402587890625,
      "v": 64
    },
    {
      "midi": 56,
      "hit": false,
      "t": 32118.578466796902,
      "d": 245.6821972656253,
      "v": 65
    },
    {
      "midi": 75,
      "hit": false,
      "t": 32118.578466796902,
      "d": 542.2483642578154,
      "v": 53
    },
    {
      "midi": 58,
      "hit": false,
      "t": 32380.19402832034,
      "d": 244.6542382812513,
      "v": 64
    },
    {
      "midi": 60,
      "hit": false,
      "t": 32640.781630859405,
      "d": 241.5703613281221,
      "v": 67
    },
    {
      "midi": 87,
      "hit": false,
      "t": 32640.781630859405,
      "d": 537.1085693359419,
      "v": 55
    },
    {
      "midi": 63,
      "hit": false,
      "t": 32898.28535644534,
      "d": 243.62627929687733,
      "v": 64
    },
    {
      "midi": 86,
      "hit": false,
      "t": 33159.900917968786,
      "d": 798.7241308593802,
      "v": 69
    },
    {
      "midi": 44,
      "hit": false,
      "t": 33159.900917968786,
      "d": 1576.3751025390666,
      "v": 64
    },
    {
      "midi": 51,
      "hit": false,
      "t": 33437.44984375004,
      "d": 244.1402587890625,
      "v": 64
    },
    {
      "midi": 56,
      "hit": false,
      "t": 33697.52346679691,
      "d": 245.6821972656253,
      "v": 65
    },
    {
      "midi": 84,
      "hit": false,
      "t": 33959.13902832035,
      "d": 244.65423828124767,
      "v": 64
    },
    {
      "midi": 58,
      "hit": false,
      "t": 33959.13902832035,
      "d": 244.65423828124767,
      "v": 64
    },
    {
      "midi": 82,
      "hit": false,
      "t": 34219.72663085941,
      "d": 241.5703613281221,
      "v": 67
    },
    {
      "midi": 60,
      "hit": false,
      "t": 34219.72663085941,
      "d": 241.5703613281221,
      "v": 67
    },
    {
      "midi": 80,
      "hit": false,
      "t": 34477.23035644535,
      "d": 243.62627929687733,
      "v": 64
    },
    {
      "midi": 63,
      "hit": false,
      "t": 34477.23035644535,
      "d": 243.62627929687733,
      "v": 64
    },
    {
      "midi": 84,
      "hit": false,
      "t": 34738.84591796879,
      "d": 1576.3751025390666,
      "v": 64
    },
    {
      "midi": 44,
      "hit": false,
      "t": 34738.84591796879,
      "d": 1576.3751025390666,
      "v": 64
    },
    {
      "midi": 51,
      "hit": false,
      "t": 35016.394843750044,
      "d": 244.1402587890625,
      "v": 64
    },
    {
      "midi": 56,
      "hit": false,
      "t": 35276.46846679692,
      "d": 245.6821972656253,
      "v": 65
    },
    {
      "midi": 58,
      "hit": false,
      "t": 35538.08402832036,
      "d": 244.65423828124767,
      "v": 64
    },
    {
      "midi": 60,
      "hit": false,
      "t": 35798.67163085942,
      "d": 241.5703613281221,
      "v": 67
    },
    {
      "midi": 63,
      "hit": false,
      "t": 36056.175356445354,
      "d": 243.62627929687733,
      "v": 64
    },
    {
      "midi": 75,
      "hit": false,
      "t": 36317.7909179688,
      "d": 1576.3751025390666,
      "v": 64
    },
    {
      "midi": 44,
      "hit": false,
      "t": 36317.7909179688,
      "d": 1576.3751025390666,
      "v": 64
    },
    {
      "midi": 51,
      "hit": false,
      "t": 36595.33984375005,
      "d": 244.1402587890625,
      "v": 64
    },
    {
      "midi": 56,
      "hit": false,
      "t": 36855.41346679693,
      "d": 245.6821972656253,
      "v": 65
    },
    {
      "midi": 58,
      "hit": false,
      "t": 37117.029028320365,
      "d": 244.65423828124767,
      "v": 64
    },
    {
      "midi": 60,
      "hit": false,
      "t": 37377.616630859426,
      "d": 241.5703613281221,
      "v": 67
    },
    {
      "midi": 63,
      "hit": false,
      "t": 37635.12035644536,
      "d": 243.62627929687733,
      "v": 64
    },
    {
      "midi": 44,
      "hit": false,
      "t": 37896.73591796881,
      "d": 1576.3751025390666,
      "v": 64
    },
    {
      "midi": 51,
      "hit": false,
      "t": 38174.28484375006,
      "d": 244.1402587890625,
      "v": 64
    },
    {
      "midi": 56,
      "hit": false,
      "t": 38434.35846679693,
      "d": 245.6821972656253,
      "v": 65
    },
    {
      "midi": 75,
      "hit": false,
      "t": 38434.35846679693,
      "d": 521.689184570314,
      "v": 65
    },
    {
      "midi": 58,
      "hit": false,
      "t": 38695.97402832037,
      "d": 244.65423828124767,
      "v": 64
    },
    {
      "midi": 60,
      "hit": false,
      "t": 38956.56163085943,
      "d": 241.5703613281221,
      "v": 67
    },
    {
      "midi": 87,
      "hit": false,
      "t": 38956.56163085943,
      "d": 516.5493896484404,
      "v": 67
    },
    {
      "midi": 63,
      "hit": false,
      "t": 39214.06535644537,
      "d": 243.62627929687733,
      "v": 64
    },
    {
      "midi": 86,
      "hit": false,
      "t": 39475.68091796881,
      "d": 798.7241308593802,
      "v": 69
    },
    {
      "midi": 44,
      "hit": false,
      "t": 39475.68091796881,
      "d": 1576.3751025390666,
      "v": 64
    },
    {
      "midi": 51,
      "hit": false,
      "t": 39753.229843750065,
      "d": 244.1402587890625,
      "v": 64
    },
    {
      "midi": 56,
      "hit": false,
      "t": 40013.30346679694,
      "d": 245.6821972656253,
      "v": 65
    },
    {
      "midi": 84,
      "hit": false,
      "t": 40274.91902832038,
      "d": 244.65423828124767,
      "v": 64
    },
    {
      "midi": 58,
      "hit": false,
      "t": 40274.91902832038,
      "d": 244.65423828124767,
      "v": 64
    },
    {
      "midi": 82,
      "hit": false,
      "t": 40535.50663085944,
      "d": 241.5703613281221,
      "v": 67
    },
    {
      "midi": 60,
      "hit": false,
      "t": 40535.50663085944,
      "d": 241.5703613281221,
      "v": 67
    },
    {
      "midi": 80,
      "hit": false,
      "t": 40793.010356445375,
      "d": 243.62627929687733,
      "v": 64
    },
    {
      "midi": 63,
      "hit": false,
      "t": 40793.010356445375,
      "d": 243.62627929687733,
      "v": 64
    },
    {
      "midi": 84,
      "hit": false,
      "t": 41054.62591796882,
      "d": 1576.3751025390666,
      "v": 64
    },
    {
      "midi": 42,
      "hit": false,
      "t": 41054.62591796882,
      "d": 1576.3751025390666,
      "v": 64
    },
    {
      "midi": 51,
      "hit": false,
      "t": 41332.17484375007,
      "d": 244.1402587890625,
      "v": 64
    },
    {
      "midi": 56,
      "hit": false,
      "t": 41592.24846679695,
      "d": 245.6821972656253,
      "v": 65
    },
    {
      "midi": 58,
      "hit": false,
      "t": 41853.864028320386,
      "d": 244.65423828124767,
      "v": 64
    },
    {
      "midi": 60,
      "hit": false,
      "t": 42114.45163085945,
      "d": 241.5703613281221,
      "v": 67
    },
    {
      "midi": 63,
      "hit": false,
      "t": 42371.95535644538,
      "d": 243.62627929687733,
      "v": 64
    },
    {
      "midi": 42,
      "hit": false,
      "t": 42633.57091796883,
      "d": 1576.3751025390666,
      "v": 64
    },
    {
      "midi": 51,
      "hit": false,
      "t": 42911.11984375008,
      "d": 244.1402587890625,
      "v": 64
    },
    {
      "midi": 56,
      "hit": false,
      "t": 43171.193466796954,
      "d": 245.6821972656253,
      "v": 65
    },
    {
      "midi": 58,
      "hit": false,
      "t": 43432.80902832039,
      "d": 244.65423828124767,
      "v": 64
    },
    {
      "midi": 60,
      "hit": false,
      "t": 43693.39663085945,
      "d": 241.5703613281221,
      "v": 67
    },
    {
      "midi": 63,
      "hit": false,
      "t": 43950.90035644539,
      "d": 243.62627929687733,
      "v": 64
    },
    {
      "midi": 44,
      "hit": false,
      "t": 44212.515917968834,
      "d": 1576.3751025390666,
      "v": 64
    },
    {
      "midi": 51,
      "hit": false,
      "t": 44490.064843750086,
      "d": 244.1402587890625,
      "v": 64
    },
    {
      "midi": 56,
      "hit": false,
      "t": 44750.13846679696,
      "d": 245.6821972656253,
      "v": 65
    },
    {
      "midi": 75,
      "hit": false,
      "t": 44750.13846679696,
      "d": 542.2483642578081,
      "v": 53
    },
    {
      "midi": 58,
      "hit": false,
      "t": 45011.7540283204,
      "d": 244.65423828124767,
      "v": 64
    },
    {
      "midi": 60,
      "hit": false,
      "t": 45272.34163085946,
      "d": 241.5703613281221,
      "v": 67
    },
    {
      "midi": 87,
      "hit": false,
      "t": 45272.34163085946,
      "d": 537.1085693359419,
      "v": 55
    },
    {
      "midi": 63,
      "hit": false,
      "t": 45529.845356445396,
      "d": 243.62627929687733,
      "v": 64
    },
    {
      "midi": 86,
      "hit": false,
      "t": 45791.46091796884,
      "d": 798.7241308593802,
      "v": 69
    },
    {
      "midi": 44,
      "hit": false,
      "t": 45791.46091796884,
      "d": 1576.3751025390666,
      "v": 64
    },
    {
      "midi": 51,
      "hit": false,
      "t": 46069.00984375009,
      "d": 244.1402587890625,
      "v": 64
    },
    {
      "midi": 56,
      "hit": false,
      "t": 46329.08346679697,
      "d": 245.6821972656253,
      "v": 65
    },
    {
      "midi": 84,
      "hit": false,
      "t": 46590.69902832041,
      "d": 244.65423828124767,
      "v": 64
    },
    {
      "midi": 58,
      "hit": false,
      "t": 46590.69902832041,
      "d": 244.65423828124767,
      "v": 64
    },
    {
      "midi": 82,
      "hit": false,
      "t": 46851.28663085947,
      "d": 241.5703613281221,
      "v": 67
    },
    {
      "midi": 60,
      "hit": false,
      "t": 46851.28663085947,
      "d": 241.5703613281221,
      "v": 67
    },
    {
      "midi": 80,
      "hit": false,
      "t": 47108.7903564454,
      "d": 243.62627929687733,
      "v": 64
    },
    {
      "midi": 63,
      "hit": false,
      "t": 47108.7903564454,
      "d": 243.62627929687733,
      "v": 64
    },
    {
      "midi": 84,
      "hit": false,
      "t": 47370.40591796885,
      "d": 1576.3751025390666,
      "v": 64
    },
    {
      "midi": 44,
      "hit": false,
      "t": 47370.40591796885,
      "d": 1576.3751025390666,
      "v": 64
    },
    {
      "midi": 51,
      "hit": false,
      "t": 47647.9548437501,
      "d": 244.1402587890625,
      "v": 64
    },
    {
      "midi": 56,
      "hit": false,
      "t": 47908.028466796975,
      "d": 245.6821972656253,
      "v": 65
    },
    {
      "midi": 58,
      "hit": false,
      "t": 48169.644028320414,
      "d": 244.65423828124767,
      "v": 64
    },
    {
      "midi": 60,
      "hit": false,
      "t": 48430.231630859475,
      "d": 241.5703613281221,
      "v": 67
    },
    {
      "midi": 63,
      "hit": false,
      "t": 48687.73535644541,
      "d": 243.62627929687733,
      "v": 64
    },
    {
      "midi": 75,
      "hit": false,
      "t": 48949.350917968855,
      "d": 1576.3751025390666,
      "v": 64
    },
    {
      "midi": 44,
      "hit": false,
      "t": 48949.350917968855,
      "d": 1576.3751025390666,
      "v": 64
    },
    {
      "midi": 51,
      "hit": false,
      "t": 49226.89984375011,
      "d": 244.1402587890625,
      "v": 64
    },
    {
      "midi": 56,
      "hit": false,
      "t": 49486.97346679698,
      "d": 245.6821972656253,
      "v": 65
    },
    {
      "midi": 58,
      "hit": false,
      "t": 49748.58902832042,
      "d": 244.65423828124767,
      "v": 64
    },
    {
      "midi": 60,
      "hit": false,
      "t": 50009.17663085948,
      "d": 241.5703613281221,
      "v": 67
    },
    {
      "midi": 63,
      "hit": false,
      "t": 50266.68035644542,
      "d": 243.62627929687733,
      "v": 64
    },
    {
      "midi": 40,
      "hit": false,
      "t": 50528.29591796886,
      "d": 1576.3751025390666,
      "v": 63
    },
    {
      "midi": 47,
      "hit": false,
      "t": 50805.844843750114,
      "d": 244.1402587890625,
      "v": 64
    },
    {
      "midi": 52,
      "hit": false,
      "t": 51065.91846679699,
      "d": 245.6821972656253,
      "v": 65
    },
    {
      "midi": 71,
      "hit": false,
      "t": 51065.91846679699,
      "d": 521.689184570314,
      "v": 57
    },
    {
      "midi": 75,
      "hit": false,
      "t": 51065.91846679699,
      "d": 521.689184570314,
      "v": 71
    },
    {
      "midi": 54,
      "hit": false,
      "t": 51327.53402832043,
      "d": 244.65423828124767,
      "v": 64
    },
    {
      "midi": 56,
      "hit": false,
      "t": 51588.12163085949,
      "d": 241.5703613281221,
      "v": 67
    },
    {
      "midi": 83,
      "hit": false,
      "t": 51588.12163085949,
      "d": 516.5493896484404,
      "v": 59
    },
    {
      "midi": 87,
      "hit": false,
      "t": 51588.12163085949,
      "d": 516.5493896484404,
      "v": 73
    },
    {
      "midi": 59,
      "hit": false,
      "t": 51845.625356445424,
      "d": 243.62627929687733,
      "v": 64
    },
    {
      "midi": 80,
      "hit": false,
      "t": 52107.24091796887,
      "d": 798.7241308593802,
      "v": 61
    },
    {
      "midi": 85,
      "hit": false,
      "t": 52107.24091796887,
      "d": 798.7241308593802,
      "v": 75
    },
    {
      "midi": 42,
      "hit": false,
      "t": 52107.24091796887,
      "d": 1576.3751025390666,
      "v": 64
    },
    {
      "midi": 49,
      "hit": false,
      "t": 52384.78984375012,
      "d": 244.1402587890625,
      "v": 64
    },
    {
      "midi": 54,
      "hit": false,
      "t": 52644.863466797,
      "d": 245.6821972656253,
      "v": 65
    },
    {
      "midi": 80,
      "hit": false,
      "t": 52906.479028320435,
      "d": 244.65423828124767,
      "v": 56
    },
    {
      "midi": 84,
      "hit": false,
      "t": 52906.479028320435,
      "d": 244.65423828124767,
      "v": 70
    },
    {
      "midi": 56,
      "hit": false,
      "t": 52906.479028320435,
      "d": 244.65423828124767,
      "v": 64
    },
    {
      "midi": 77,
      "hit": false,
      "t": 53167.066630859495,
      "d": 241.5703613281221,
      "v": 59
    },
    {
      "midi": 82,
      "hit": false,
      "t": 53167.066630859495,
      "d": 241.5703613281221,
      "v": 73
    },
    {
      "midi": 58,
      "hit": false,
      "t": 53167.066630859495,
      "d": 241.5703613281221,
      "v": 67
    },
    {
      "midi": 82,
      "hit": false,
      "t": 53424.57035644543,
      "d": 243.62627929687733,
      "v": 56
    },
    {
      "midi": 85,
      "hit": false,
      "t": 53424.57035644543,
      "d": 243.62627929687733,
      "v": 70
    },
    {
      "midi": 61,
      "hit": false,
      "t": 53424.57035644543,
      "d": 243.62627929687733,
      "v": 64
    },
    {
      "midi": 80,
      "hit": false,
      "t": 53686.185917968876,
      "d": 261.1015820312532,
      "v": 61
    },
    {
      "midi": 84,
      "hit": false,
      "t": 53686.185917968876,
      "d": 261.1015820312532,
      "v": 75
    },
    {
      "midi": 44,
      "hit": false,
      "t": 53686.185917968876,
      "d": 1576.3751025390666,
      "v": 64
    },
    {
      "midi": 51,
      "hit": false,
      "t": 53963.73484375013,
      "d": 244.1402587890625,
      "v": 64
    },
    {
      "midi": 56,
      "hit": false,
      "t": 54223.808466797,
      "d": 245.6821972656253,
      "v": 65
    },
    {
      "midi": 58,
      "hit": false,
      "t": 54485.42402832044,
      "d": 244.65423828124767,
      "v": 64
    },
    {
      "midi": 60,
      "hit": false,
      "t": 54746.0116308595,
      "d": 241.5703613281221,
      "v": 67
    },
    {
      "midi": 63,
      "hit": false,
      "t": 55003.51535644544,
      "d": 243.62627929687733,
      "v": 64
    },
    {
      "midi": 68,
      "hit": false,
      "t": 55265.13091796888,
      "d": 1576.3751025390666,
      "v": 64
    },
    {
      "midi": 67,
      "hit": false,
      "t": 55542.679843750135,
      "d": 244.1402587890625,
      "v": 64
    },
    {
      "midi": 63,
      "hit": false,
      "t": 55802.75346679701,
      "d": 245.6821972656253,
      "v": 65
    },
    {
      "midi": 60,
      "hit": false,
      "t": 56064.36902832045,
      "d": 244.65423828124767,
      "v": 64
    },
    {
      "midi": 56,
      "hit": false,
      "t": 56324.95663085951,
      "d": 241.5703613281221,
      "v": 67
    },
    {
      "midi": 55,
      "hit": false,
      "t": 56582.460356445445,
      "d": 243.62627929687733,
      "v": 64
    },
    {
      "midi": 68,
      "hit": false,
      "t": 56844.07591796889,
      "d": 119.24324218749825,
      "v": 57
    },
    {
      "midi": 45,
      "hit": false,
      "t": 56844.07591796889,
      "d": 119.24324218749825,
      "v": 68
    },
    {
      "midi": 68,
      "hit": false,
      "t": 57121.62484375014,
      "d": 101.76793945312238,
      "v": 52
    },
    {
      "midi": 52,
      "hit": false,
      "t": 57121.62484375014,
      "d": 101.76793945312238,
      "v": 64
    },
    {
      "midi": 68,
      "hit": false,
      "t": 57381.69846679702,
      "d": 103.30987792968517,
      "v": 53
    },
    {
      "midi": 54,
      "hit": false,
      "t": 57381.69846679702,
      "d": 103.30987792968517,
      "v": 65
    },
    {
      "midi": 56,
      "hit": false,
      "t": 57643.314028320456,
      "d": 102.28191894531483,
      "v": 64
    },
    {
      "midi": 54,
      "hit": false,
      "t": 57903.901630859524,
      "d": 99.19804199218925,
      "v": 67
    },
    {
      "midi": 52,
      "hit": false,
      "t": 58161.405356445466,
      "d": 101.25395996093721,
      "v": 64
    },
    {
      "midi": 45,
      "hit": false,
      "t": 58423.020917968905,
      "d": 119.24324218749825,
      "v": 68
    },
    {
      "midi": 52,
      "hit": false,
      "t": 58700.569843750156,
      "d": 101.76793945312238,
      "v": 64
    },
    {
      "midi": 54,
      "hit": false,
      "t": 58960.64346679703,
      "d": 103.30987792968517,
      "v": 65
    },
    {
      "midi": 73,
      "hit": false,
      "t": 58960.64346679703,
      "d": 779.1929101562564,
      "v": 65
    },
    {
      "midi": 56,
      "hit": false,
      "t": 59222.25902832047,
      "d": 102.28191894531483,
      "v": 64
    },
    {
      "midi": 54,
      "hit": false,
      "t": 59482.84663085954,
      "d": 99.19804199218925,
      "v": 67
    },
    {
      "midi": 52,
      "hit": false,
      "t": 59740.35035644547,
      "d": 101.25395996093721,
      "v": 64
    },
    {
      "midi": 71,
      "hit": false,
      "t": 59740.35035644547,
      "d": 243.62627929687733,
      "v": 64
    },
    {
      "midi": 73,
      "hit": false,
      "t": 60001.96591796891,
      "d": 119.24324218749825,
      "v": 69
    },
    {
      "midi": 45,
      "hit": false,
      "t": 60001.96591796891,
      "d": 119.24324218749825,
      "v": 68
    },
    {
      "midi": 73,
      "hit": false,
      "t": 60279.51484375016,
      "d": 101.76793945312238,
      "v": 64
    },
    {
      "midi": 52,
      "hit": false,
      "t": 60279.51484375016,
      "d": 101.76793945312238,
      "v": 64
    },
    {
      "midi": 73,
      "hit": false,
      "t": 60539.58846679704,
      "d": 103.30987792968517,
      "v": 65
    },
    {
      "midi": 54,
      "hit": false,
      "t": 60539.58846679704,
      "d": 103.30987792968517,
      "v": 65
    },
    {
      "midi": 56,
      "hit": false,
      "t": 60801.20402832048,
      "d": 102.28191894531483,
      "v": 64
    },
    {
      "midi": 54,
      "hit": false,
      "t": 61061.791630859545,
      "d": 99.19804199218925,
      "v": 67
    },
    {
      "midi": 52,
      "hit": false,
      "t": 61319.29535644549,
      "d": 101.25395996093721,
      "v": 64
    },
    {
      "midi": 45,
      "hit": false,
      "t": 61580.910917968926,
      "d": 119.24324218749825,
      "v": 68
    },
    {
      "midi": 52,
      "hit": false,
      "t": 61858.45984375018,
      "d": 101.76793945312238,
      "v": 64
    },
    {
      "midi": 54,
      "hit": false,
      "t": 62118.53346679705,
      "d": 103.30987792968517,
      "v": 65
    },
    {
      "midi": 76,
      "hit": false,
      "t": 62118.53346679705,
      "d": 779.1929101562564,
      "v": 65
    },
    {
      "midi": 56,
      "hit": false,
      "t": 62380.14902832049,
      "d": 102.28191894531483,
      "v": 64
    },
    {
      "midi": 54,
      "hit": false,
      "t": 62640.73663085956,
      "d": 99.19804199218925,
      "v": 67
    },
    {
      "midi": 52,
      "hit": false,
      "t": 62898.240356445494,
      "d": 101.25395996093721,
      "v": 64
    },
    {
      "midi": 75,
      "hit": false,
      "t": 62898.240356445494,
      "d": 243.62627929687733,
      "v": 64
    },
    {
      "midi": 71,
      "hit": false,
      "t": 63159.85591796893,
      "d": 119.24324218749825,
      "v": 69
    },
    {
      "midi": 47,
      "hit": false,
      "t": 63159.85591796893,
      "d": 119.24324218749825,
      "v": 68
    },
    {
      "midi": 71,
      "hit": false,
      "t": 63437.404843750184,
      "d": 101.76793945312238,
      "v": 64
    },
    {
      "midi": 54,
      "hit": false,
      "t": 63437.404843750184,
      "d": 101.76793945312238,
      "v": 64
    },
    {
      "midi": 71,
      "hit": false,
      "t": 63697.47846679706,
      "d": 103.30987792968517,
      "v": 65
    },
    {
      "midi": 56,
      "hit": false,
      "t": 63697.47846679706,
      "d": 103.30987792968517,
      "v": 65
    },
    {
      "midi": 58,
      "hit": false,
      "t": 63959.0940283205,
      "d": 102.28191894531483,
      "v": 64
    },
    {
      "midi": 56,
      "hit": false,
      "t": 64219.681630859566,
      "d": 99.19804199218925,
      "v": 67
    },
    {
      "midi": 54,
      "hit": false,
      "t": 64477.18535644551,
      "d": 101.25395996093721,
      "v": 64
    },
    {
      "midi": 47,
      "hit": false,
      "t": 64738.80091796895,
      "d": 119.24324218749825,
      "v": 68
    },
    {
      "midi": 54,
      "hit": false,
      "t": 65016.3498437502,
      "d": 101.76793945312238,
      "v": 64
    },
    {
      "midi": 56,
      "hit": false,
      "t": 65276.423466797074,
      "d": 103.30987792968517,
      "v": 65
    },
    {
      "midi": 78,
      "hit": false,
      "t": 65276.423466797074,
      "d": 779.1929101562419,
      "v": 65
    },
    {
      "midi": 58,
      "hit": false,
      "t": 65538.0390283205,
      "d": 102.28191894531483,
      "v": 64
    },
    {
      "midi": 56,
      "hit": false,
      "t": 65798.62663085957,
      "d": 99.19804199218925,
      "v": 67
    },
    {
      "midi": 54,
      "hit": false,
      "t": 66056.1303564455,
      "d": 101.25395996094448,
      "v": 64
    },
    {
      "midi": 76,
      "hit": false,
      "t": 66056.1303564455,
      "d": 243.62627929687733,
      "v": 64
    },
    {
      "midi": 75,
      "hit": false,
      "t": 66317.74591796895,
      "d": 119.24324218749825,
      "v": 69
    },
    {
      "midi": 47,
      "hit": false,
      "t": 66317.74591796895,
      "d": 119.24324218749825,
      "v": 68
    },
    {
      "midi": 75,
      "hit": false,
      "t": 66595.29484375019,
      "d": 101.76793945312966,
      "v": 64
    },
    {
      "midi": 54,
      "hit": false,
      "t": 66595.29484375019,
      "d": 101.76793945312966,
      "v": 64
    },
    {
      "midi": 75,
      "hit": false,
      "t": 66855.36846679707,
      "d": 103.30987792968517,
      "v": 65
    },
    {
      "midi": 56,
      "hit": false,
      "t": 66855.36846679707,
      "d": 103.30987792968517,
      "v": 65
    },
    {
      "midi": 58,
      "hit": false,
      "t": 67116.9840283205,
      "d": 102.28191894531483,
      "v": 64
    },
    {
      "midi": 56,
      "hit": false,
      "t": 67377.57163085956,
      "d": 99.19804199218925,
      "v": 67
    },
    {
      "midi": 54,
      "hit": false,
      "t": 67635.0753564455,
      "d": 101.25395996094448,
      "v": 64
    },
    {
      "midi": 47,
      "hit": false,
      "t": 67896.69091796894,
      "d": 119.24324218749825,
      "v": 68
    },
    {
      "midi": 68,
      "hit": false,
      "t": 67896.69091796894,
      "d": 1059.3117333984264,
      "v": 64
    },
    {
      "midi": 54,
      "hit": false,
      "t": 68174.23984375018,
      "d": 101.76793945312966,
      "v": 64
    },
    {
      "midi": 56,
      "hit": false,
      "t": 68434.31346679706,
      "d": 103.30987792968517,
      "v": 65
    },
    {
      "midi": 58,
      "hit": false,
      "t": 68695.92902832049,
      "d": 102.28191894531483,
      "v": 64
    },
    {
      "midi": 56,
      "hit": false,
      "t": 68956.51663085955,
      "d": 99.19804199218925,
      "v": 67
    },
    {
      "midi": 66,
      "hit": false,
      "t": 68956.51663085955,
      "d": 516.5493896484404,
      "v": 67
    },
    {
      "midi": 54,
      "hit": false,
      "t": 69214.02035644549,
      "d": 101.25395996094448,
      "v": 64
    },
    {
      "midi": 68,
      "hit": false,
      "t": 69475.63591796893,
      "d": 119.24324218749825,
      "v": 57
    },
    {
      "midi": 45,
      "hit": false,
      "t": 69475.63591796893,
      "d": 119.24324218749825,
      "v": 68
    },
    {
      "midi": 68,
      "hit": false,
      "t": 69753.18484375018,
      "d": 101.76793945312966,
      "v": 52
    },
    {
      "midi": 52,
      "hit": false,
      "t": 69753.18484375018,
      "d": 101.76793945312966,
      "v": 64
    },
    {
      "midi": 68,
      "hit": false,
      "t": 70013.25846679705,
      "d": 103.30987792968517,
      "v": 53
    },
    {
      "midi": 54,
      "hit": false,
      "t": 70013.25846679705,
      "d": 103.30987792968517,
      "v": 65
    },
    {
      "midi": 56,
      "hit": false,
      "t": 70274.87402832048,
      "d": 102.28191894531483,
      "v": 64
    },
    {
      "midi": 54,
      "hit": false,
      "t": 70535.46163085954,
      "d": 99.19804199218925,
      "v": 67
    },
    {
      "midi": 52,
      "hit": false,
      "t": 70792.96535644548,
      "d": 101.25395996094448,
      "v": 64
    },
    {
      "midi": 45,
      "hit": false,
      "t": 71054.58091796892,
      "d": 119.24324218749825,
      "v": 68
    },
    {
      "midi": 52,
      "hit": false,
      "t": 71332.12984375017,
      "d": 101.76793945312966,
      "v": 64
    },
    {
      "midi": 54,
      "hit": false,
      "t": 71592.20346679704,
      "d": 103.30987792968517,
      "v": 65
    },
    {
      "midi": 73,
      "hit": false,
      "t": 71592.20346679704,
      "d": 779.1929101562419,
      "v": 65
    },
    {
      "midi": 56,
      "hit": false,
      "t": 71853.81902832047,
      "d": 102.28191894531483,
      "v": 64
    },
    {
      "midi": 54,
      "hit": false,
      "t": 72114.40663085954,
      "d": 99.19804199218925,
      "v": 67
    },
    {
      "midi": 52,
      "hit": false,
      "t": 72371.91035644547,
      "d": 101.25395996094448,
      "v": 64
    },
    {
      "midi": 71,
      "hit": false,
      "t": 72371.91035644547,
      "d": 243.62627929687733,
      "v": 64
    },
    {
      "midi": 73,
      "hit": false,
      "t": 72633.52591796892,
      "d": 119.24324218749825,
      "v": 69
    },
    {
      "midi": 45,
      "hit": false,
      "t": 72633.52591796892,
      "d": 119.24324218749825,
      "v": 68
    },
    {
      "midi": 73,
      "hit": false,
      "t": 72911.07484375016,
      "d": 101.76793945312966,
      "v": 64
    },
    {
      "midi": 52,
      "hit": false,
      "t": 72911.07484375016,
      "d": 101.76793945312966,
      "v": 64
    },
    {
      "midi": 73,
      "hit": false,
      "t": 73171.14846679704,
      "d": 103.30987792968517,
      "v": 65
    },
    {
      "midi": 54,
      "hit": false,
      "t": 73171.14846679704,
      "d": 103.30987792968517,
      "v": 65
    },
    {
      "midi": 56,
      "hit": false,
      "t": 73432.76402832047,
      "d": 102.28191894531483,
      "v": 64
    },
    {
      "midi": 54,
      "hit": false,
      "t": 73693.35163085953,
      "d": 99.19804199218925,
      "v": 67
    },
    {
      "midi": 52,
      "hit": false,
      "t": 73950.85535644546,
      "d": 101.25395996094448,
      "v": 64
    },
    {
      "midi": 45,
      "hit": false,
      "t": 74212.47091796891,
      "d": 119.24324218749825,
      "v": 68
    },
    {
      "midi": 52,
      "hit": false,
      "t": 74490.01984375015,
      "d": 101.76793945312966,
      "v": 64
    },
    {
      "midi": 54,
      "hit": false,
      "t": 74750.09346679703,
      "d": 103.30987792968517,
      "v": 65
    },
    {
      "midi": 76,
      "hit": false,
      "t": 74750.09346679703,
      "d": 779.1929101562419,
      "v": 65
    },
    {
      "midi": 56,
      "hit": false,
      "t": 75011.70902832046,
      "d": 102.28191894531483,
      "v": 64
    },
    {
      "midi": 54,
      "hit": false,
      "t": 75272.29663085952,
      "d": 99.19804199218925,
      "v": 67
    },
    {
      "midi": 52,
      "hit": false,
      "t": 75529.80035644546,
      "d": 101.25395996094448,
      "v": 64
    },
    {
      "midi": 75,
      "hit": false,
      "t": 75529.80035644546,
      "d": 243.62627929687733,
      "v": 64
    },
    {
      "midi": 71,
      "hit": false,
      "t": 75791.4159179689,
      "d": 119.24324218749825,
      "v": 69
    },
    {
      "midi": 47,
      "hit": false,
      "t": 75791.4159179689,
      "d": 119.24324218749825,
      "v": 68
    },
    {
      "midi": 71,
      "hit": false,
      "t": 76068.96484375015,
      "d": 101.76793945312966,
      "v": 64
    },
    {
      "midi": 54,
      "hit": false,
      "t": 76068.96484375015,
      "d": 101.76793945312966,
      "v": 64
    },
    {
      "midi": 71,
      "hit": false,
      "t": 76329.03846679702,
      "d": 103.30987792968517,
      "v": 65
    },
    {
      "midi": 56,
      "hit": false,
      "t": 76329.03846679702,
      "d": 103.30987792968517,
      "v": 65
    },
    {
      "midi": 58,
      "hit": false,
      "t": 76590.65402832045,
      "d": 102.28191894531483,
      "v": 64
    },
    {
      "midi": 56,
      "hit": false,
      "t": 76851.24163085951,
      "d": 99.19804199218925,
      "v": 67
    },
    {
      "midi": 54,
      "hit": false,
      "t": 77108.74535644545,
      "d": 101.25395996094448,
      "v": 64
    },
    {
      "midi": 47,
      "hit": false,
      "t": 77370.3609179689,
      "d": 119.24324218749825,
      "v": 68
    },
    {
      "midi": 54,
      "hit": false,
      "t": 77647.90984375014,
      "d": 101.76793945312966,
      "v": 64
    },
    {
      "midi": 56,
      "hit": false,
      "t": 77907.98346679701,
      "d": 103.30987792968517,
      "v": 65
    },
    {
      "midi": 78,
      "hit": false,
      "t": 77907.98346679701,
      "d": 779.1929101562419,
      "v": 65
    },
    {
      "midi": 58,
      "hit": false,
      "t": 78169.59902832044,
      "d": 102.28191894531483,
      "v": 64
    },
    {
      "midi": 56,
      "hit": false,
      "t": 78430.1866308595,
      "d": 99.19804199218925,
      "v": 67
    },
    {
      "midi": 54,
      "hit": false,
      "t": 78687.69035644544,
      "d": 101.25395996094448,
      "v": 64
    },
    {
      "midi": 76,
      "hit": false,
      "t": 78687.69035644544,
      "d": 243.62627929687733,
      "v": 64
    },
    {
      "midi": 75,
      "hit": false,
      "t": 78949.30591796889,
      "d": 119.24324218749825,
      "v": 69
    },
    {
      "midi": 47,
      "hit": false,
      "t": 78949.30591796889,
      "d": 119.24324218749825,
      "v": 68
    },
    {
      "midi": 75,
      "hit": false,
      "t": 79226.85484375013,
      "d": 101.76793945312966,
      "v": 64
    },
    {
      "midi": 54,
      "hit": false,
      "t": 79226.85484375013,
      "d": 101.76793945312966,
      "v": 64
    },
    {
      "midi": 75,
      "hit": false,
      "t": 79486.928466797,
      "d": 103.30987792968517,
      "v": 65
    },
    {
      "midi": 56,
      "hit": false,
      "t": 79486.928466797,
      "d": 103.30987792968517,
      "v": 65
    },
    {
      "midi": 58,
      "hit": false,
      "t": 79748.54402832044,
      "d": 102.28191894531483,
      "v": 64
    },
    {
      "midi": 56,
      "hit": false,
      "t": 80009.1316308595,
      "d": 99.19804199218925,
      "v": 67
    },
    {
      "midi": 54,
      "hit": false,
      "t": 80266.63535644543,
      "d": 101.25395996094448,
      "v": 64
    },
    {
      "midi": 44,
      "hit": false,
      "t": 80528.25091796888,
      "d": 1576.375102539052,
      "v": 64
    },
    {
      "midi": 68,
      "hit": false,
      "t": 80805.79984375012,
      "d": 244.1402587890625,
      "v": 64
    },
    {
      "midi": 63,
      "hit": false,
      "t": 80805.79984375012,
      "d": 244.1402587890625,
      "v": 64
    },
    {
      "midi": 66,
      "hit": false,
      "t": 81065.873466797,
      "d": 245.68219726561802,
      "v": 65
    },
    {
      "midi": 80,
      "hit": false,
      "t": 81065.873466797,
      "d": 521.6891845703067,
      "v": 57
    },
    {
      "midi": 85,
      "hit": false,
      "t": 81065.873466797,
      "d": 521.6891845703067,
      "v": 71
    },
    {
      "midi": 63,
      "hit": false,
      "t": 81327.48902832043,
      "d": 244.65423828124767,
      "v": 64
    },
    {
      "midi": 61,
      "hit": false,
      "t": 81588.07663085949,
      "d": 241.5703613281221,
      "v": 67
    },
    {
      "midi": 78,
      "hit": false,
      "t": 81588.07663085949,
      "d": 516.5493896484404,
      "v": 59
    },
    {
      "midi": 82,
      "hit": false,
      "t": 81588.07663085949,
      "d": 516.5493896484404,
      "v": 73
    },
    {
      "midi": 58,
      "hit": false,
      "t": 81845.58035644543,
      "d": 243.62627929687733,
      "v": 64
    },
    {
      "midi": 49,
      "hit": false,
      "t": 82107.19591796887,
      "d": 1576.375102539052,
      "v": 64
    },
    {
      "midi": 56,
      "hit": false,
      "t": 82384.74484375012,
      "d": 244.1402587890625,
      "v": 64
    },
    {
      "midi": 63,
      "hit": false,
      "t": 82644.81846679699,
      "d": 245.68219726561802,
      "v": 65
    },
    {
      "midi": 80,
      "hit": false,
      "t": 82644.81846679699,
      "d": 521.6891845703067,
      "v": 65
    },
    {
      "midi": 65,
      "hit": false,
      "t": 82906.43402832042,
      "d": 244.65423828124767,
      "v": 64
    },
    {
      "midi": 72,
      "hit": false,
      "t": 83167.02163085948,
      "d": 241.5703613281221,
      "v": 67
    },
    {
      "midi": 92,
      "hit": false,
      "t": 83167.02163085948,
      "d": 516.5493896484404,
      "v": 67
    },
    {
      "midi": 73,
      "hit": false,
      "t": 83424.52535644542,
      "d": 243.62627929687733,
      "v": 64
    },
    {
      "midi": 91,
      "hit": false,
      "t": 83686.14091796886,
      "d": 798.7241308593657,
      "v": 69
    },
    {
      "midi": 49,
      "hit": false,
      "t": 83686.14091796886,
      "d": 1576.375102539052,
      "v": 64
    },
    {
      "midi": 56,
      "hit": false,
      "t": 83963.68984375011,
      "d": 244.1402587890625,
      "v": 64
    },
    {
      "midi": 63,
      "hit": false,
      "t": 84223.76346679698,
      "d": 245.68219726561802,
      "v": 65
    },
    {
      "midi": 89,
      "hit": false,
      "t": 84485.37902832041,
      "d": 244.65423828124767,
      "v": 64
    },
    {
      "midi": 65,
      "hit": false,
      "t": 84485.37902832041,
      "d": 244.65423828124767,
      "v": 64
    },
    {
      "midi": 87,
      "hit": false,
      "t": 84745.96663085948,
      "d": 241.5703613281221,
      "v": 67
    },
    {
      "midi": 68,
      "hit": false,
      "t": 84745.96663085948,
      "d": 241.5703613281221,
      "v": 67
    },
    {
      "midi": 85,
      "hit": false,
      "t": 85003.47035644541,
      "d": 243.62627929687733,
      "v": 64
    },
    {
      "midi": 73,
      "hit": false,
      "t": 85003.47035644541,
      "d": 243.62627929687733,
      "v": 64
    },
    {
      "midi": 87,
      "hit": false,
      "t": 85265.08591796886,
      "d": 1576.375102539052,
      "v": 64
    },
    {
      "midi": 51,
      "hit": false,
      "t": 85265.08591796886,
      "d": 1576.375102539052,
      "v": 64
    },
    {
      "midi": 58,
      "hit": false,
      "t": 85542.6348437501,
      "d": 244.1402587890625,
      "v": 64
    },
    {
      "midi": 63,
      "hit": false,
      "t": 85802.70846679698,
      "d": 245.68219726561802,
      "v": 65
    },
    {
      "midi": 65,
      "hit": false,
      "t": 86064.3240283204,
      "d": 244.65423828124767,
      "v": 64
    },
    {
      "midi": 67,
      "hit": false,
      "t": 86324.91163085947,
      "d": 241.5703613281221,
      "v": 67
    },
    {
      "midi": 70,
      "hit": false,
      "t": 86582.4153564454,
      "d": 243.62627929687733,
      "v": 64
    },
    {
      "midi": 82,
      "hit": false,
      "t": 86844.03091796885,
      "d": 1576.375102539052,
      "v": 64
    },
    {
      "midi": 51,
      "hit": false,
      "t": 86844.03091796885,
      "d": 1576.375102539052,
      "v": 64
    },
    {
      "midi": 58,
      "hit": false,
      "t": 87121.57984375009,
      "d": 244.1402587890625,
      "v": 64
    },
    {
      "midi": 63,
      "hit": false,
      "t": 87381.65346679697,
      "d": 245.68219726561802,
      "v": 65
    },
    {
      "midi": 65,
      "hit": false,
      "t": 87643.2690283204,
      "d": 244.65423828124767,
      "v": 64
    },
    {
      "midi": 67,
      "hit": false,
      "t": 87903.85663085946,
      "d": 241.5703613281221,
      "v": 67
    },
    {
      "midi": 70,
      "hit": false,
      "t": 88161.3603564454,
      "d": 243.62627929687733,
      "v": 64
    },
    {
      "midi": 49,
      "hit": false,
      "t": 88422.97591796884,
      "d": 1576.375102539052,
      "v": 64
    },
    {
      "midi": 56,
      "hit": false,
      "t": 88700.52484375008,
      "d": 244.1402587890625,
      "v": 64
    },
    {
      "midi": 63,
      "hit": false,
      "t": 88960.59846679696,
      "d": 245.68219726561802,
      "v": 65
    },
    {
      "midi": 80,
      "hit": false,
      "t": 88960.59846679696,
      "d": 521.6891845703067,
      "v": 65
    },
    {
      "midi": 65,
      "hit": false,
      "t": 89222.21402832039,
      "d": 244.65423828124767,
      "v": 64
    },
    {
      "midi": 72,
      "hit": false,
      "t": 89482.80163085945,
      "d": 241.5703613281221,
      "v": 67
    },
    {
      "midi": 92,
      "hit": false,
      "t": 89482.80163085945,
      "d": 516.5493896484404,
      "v": 67
    },
    {
      "midi": 73,
      "hit": false,
      "t": 89740.30535644539,
      "d": 243.62627929687733,
      "v": 64
    },
    {
      "midi": 91,
      "hit": false,
      "t": 90001.92091796883,
      "d": 798.7241308593657,
      "v": 69
    },
    {
      "midi": 49,
      "hit": false,
      "t": 90001.92091796883,
      "d": 1576.375102539052,
      "v": 64
    },
    {
      "midi": 56,
      "hit": false,
      "t": 90279.46984375008,
      "d": 244.1402587890625,
      "v": 64
    },
    {
      "midi": 63,
      "hit": false,
      "t": 90539.54346679695,
      "d": 245.68219726561802,
      "v": 65
    },
    {
      "midi": 89,
      "hit": false,
      "t": 90801.15902832038,
      "d": 244.65423828124767,
      "v": 64
    },
    {
      "midi": 65,
      "hit": false,
      "t": 90801.15902832038,
      "d": 244.65423828124767,
      "v": 64
    },
    {
      "midi": 87,
      "hit": false,
      "t": 91061.74663085944,
      "d": 241.5703613281221,
      "v": 67
    },
    {
      "midi": 68,
      "hit": false,
      "t": 91061.74663085944,
      "d": 241.5703613281221,
      "v": 67
    },
    {
      "midi": 85,
      "hit": false,
      "t": 91319.25035644538,
      "d": 243.62627929687733,
      "v": 64
    },
    {
      "midi": 73,
      "hit": false,
      "t": 91319.25035644538,
      "d": 243.62627929687733,
      "v": 64
    },
    {
      "midi": 87,
      "hit": false,
      "t": 91580.86591796883,
      "d": 1576.375102539052,
      "v": 64
    },
    {
      "midi": 51,
      "hit": false,
      "t": 91580.86591796883,
      "d": 1576.375102539052,
      "v": 64
    },
    {
      "midi": 58,
      "hit": false,
      "t": 91858.41484375007,
      "d": 244.1402587890625,
      "v": 64
    },
    {
      "midi": 63,
      "hit": false,
      "t": 92118.48846679695,
      "d": 245.68219726561802,
      "v": 65
    },
    {
      "midi": 77,
      "hit": false,
      "t": 92118.48846679695,
      "d": 521.6891845703067,
      "v": 65
    },
    {
      "midi": 65,
      "hit": false,
      "t": 92380.10402832038,
      "d": 244.65423828124767,
      "v": 64
    },
    {
      "midi": 67,
      "hit": false,
      "t": 92640.69163085944,
      "d": 241.5703613281221,
      "v": 67
    },
    {
      "midi": 79,
      "hit": false,
      "t": 92640.69163085944,
      "d": 516.5493896484404,
      "v": 67
    },
    {
      "midi": 70,
      "hit": false,
      "t": 92898.19535644537,
      "d": 243.62627929687733,
      "v": 64
    },
    {
      "midi": 82,
      "hit": false,
      "t": 93159.81091796882,
      "d": 537.1085693359346,
      "v": 69
    },
    {
      "midi": 51,
      "hit": false,
      "t": 93159.81091796882,
      "d": 1576.375102539052,
      "v": 64
    },
    {
      "midi": 58,
      "hit": false,
      "t": 93437.35984375006,
      "d": 244.1402587890625,
      "v": 64
    },
    {
      "midi": 63,
      "hit": false,
      "t": 93697.43346679694,
      "d": 245.68219726561802,
      "v": 65
    },
    {
      "midi": 87,
      "hit": false,
      "t": 93697.43346679694,
      "d": 521.6891845703067,
      "v": 65
    },
    {
      "midi": 65,
      "hit": false,
      "t": 93959.04902832037,
      "d": 244.65423828124767,
      "v": 64
    },
    {
      "midi": 67,
      "hit": false,
      "t": 94219.63663085943,
      "d": 241.5703613281221,
      "v": 67
    },
    {
      "midi": 89,
      "hit": false,
      "t": 94219.63663085943,
      "d": 516.5493896484404,
      "v": 67
    },
    {
      "midi": 70,
      "hit": false,
      "t": 94477.14035644536,
      "d": 243.62627929687733,
      "v": 64
    },
    {
      "midi": 87,
      "hit": false,
      "t": 94738.75591796881,
      "d": 537.1085693359346,
      "v": 61
    },
    {
      "midi": 91,
      "hit": false,
      "t": 94738.75591796881,
      "d": 537.1085693359346,
      "v": 75
    },
    {
      "midi": 75,
      "hit": false,
      "t": 94738.75591796881,
      "d": 1576.375102539052,
      "v": 64
    },
    {
      "midi": 91,
      "hit": false,
      "t": 95276.37846679693,
      "d": 521.6891845703067,
      "v": 57
    },
    {
      "midi": 94,
      "hit": false,
      "t": 95276.37846679693,
      "d": 521.6891845703067,
      "v": 71
    },
    {
      "midi": 87,
      "hit": false,
      "t": 95798.58163085942,
      "d": 516.5493896484404,
      "v": 59
    },
    {
      "midi": 91,
      "hit": false,
      "t": 95798.58163085942,
      "d": 516.5493896484404,
      "v": 73
    },
    {
      "midi": 82,
      "hit": false,
      "t": 96317.7009179688,
      "d": 537.1085693359346,
      "v": 61
    },
    {
      "midi": 87,
      "hit": false,
      "t": 96317.7009179688,
      "d": 537.1085693359346,
      "v": 75
    },
    {
      "midi": 79,
      "hit": false,
      "t": 96855.32346679692,
      "d": 521.6891845703067,
      "v": 57
    },
    {
      "midi": 82,
      "hit": false,
      "t": 96855.32346679692,
      "d": 521.6891845703067,
      "v": 71
    },
    {
      "midi": 75,
      "hit": false,
      "t": 97377.52663085941,
      "d": 516.5493896484404,
      "v": 59
    },
    {
      "midi": 79,
      "hit": false,
      "t": 97377.52663085941,
      "d": 516.5493896484404,
      "v": 73
    }
  ]
}