{
  "jsonPath": "Ambient/Focus/Evolution/could-it-be-magic.json",
  "path": "Ambient\\Focus\\Evolution\\Could It Be Magic.mid",
  "name": "Could It Be Magic",
  "difficulty": "Advanced",
  "bpm": 104.99992125005906,
  "notes": [
    {
      "midi": 36,
      "hit": false,
      "t": 4571.432,
      "d": 542.8575499999997,
      "v": 127
    },
    {
      "midi": 48,
      "hit": false,
      "t": 4571.432,
      "d": 542.8575499999997,
      "v": 127
    },
    {
      "midi": 55,
      "hit": false,
      "t": 4571.432,
      "d": 542.8575499999997,
      "v": 127
    },
    {
      "midi": 60,
      "hit": false,
      "t": 4571.432,
      "d": 542.8575499999997,
      "v": 127
    },
    {
      "midi": 63,
      "hit": false,
      "t": 4571.432,
      "d": 542.8575499999997,
      "v": 127
    },
    {
      "midi": 67,
      "hit": false,
      "t": 4571.432,
      "d": 542.8575499999997,
      "v": 127
    },
    {
      "midi": 29,
      "hit": false,
      "t": 5142.861,
      "d": 542.8575499999997,
      "v": 127
    },
    {
      "midi": 41,
      "hit": false,
      "t": 5142.861,
      "d": 542.8575499999997,
      "v": 127
    },
    {
      "midi": 56,
      "hit": false,
      "t": 5142.861,
      "d": 542.8575499999997,
      "v": 127
    },
    {
      "midi": 60,
      "hit": false,
      "t": 5142.861,
      "d": 542.8575499999997,
      "v": 127
    },
    {
      "midi": 63,
      "hit": false,
      "t": 5142.861,
      "d": 542.8575499999997,
      "v": 127
    },
    {
      "midi": 68,
      "hit": false,
      "t": 5142.861,
      "d": 542.8575499999997,
      "v": 127
    },
    {
      "midi": 63,
      "hit": false,
      "t": 5714.29,
      "d": 380.952666666667,
      "v": 127
    },
    {
      "midi": 67,
      "hit": false,
      "t": 5714.29,
      "d": 395.23839166666676,
      "v": 127
    },
    {
      "midi": 43,
      "hit": false,
      "t": 5714.29,
      "d": 509.5241916666664,
      "v": 127
    },
    {
      "midi": 55,
      "hit": false,
      "t": 5714.29,
      "d": 509.5241916666664,
      "v": 127
    },
    {
      "midi": 31,
      "hit": false,
      "t": 5714.29,
      "d": 538.0956416666668,
      "v": 127
    },
    {
      "midi": 59,
      "hit": false,
      "t": 5714.29,
      "d": 557.1432750000004,
      "v": 127
    },
    {
      "midi": 62,
      "hit": false,
      "t": 6142.86175,
      "d": 138.09534166666708,
      "v": 127
    },
    {
      "midi": 65,
      "hit": false,
      "t": 6142.86175,
      "d": 138.09534166666708,
      "v": 127
    },
    {
      "midi": 36,
      "hit": false,
      "t": 6285.719,
      "d": 542.8575499999997,
      "v": 127
    },
    {
      "midi": 43,
      "hit": false,
      "t": 6285.719,
      "d": 542.8575499999997,
      "v": 127
    },
    {
      "midi": 48,
      "hit": false,
      "t": 6285.719,
      "d": 542.8575499999997,
      "v": 127
    },
    {
      "midi": 51,
      "hit": false,
      "t": 6285.719,
      "d": 542.8575499999997,
      "v": 127
    },
    {
      "midi": 55,
      "hit": false,
      "t": 6285.719,
      "d": 542.8575499999997,
      "v": 127
    },
    {
      "midi": 60,
      "hit": false,
      "t": 6285.719,
      "d": 542.8575499999997,
      "v": 127
    },
    {
      "midi": 63,
      "hit": false,
      "t": 6285.719,
      "d": 542.8575499999997,
      "v": 127
    },
    {
      "midi": 32,
      "hit": false,
      "t": 6857.148,
      "d": 542.8575499999997,
      "v": 127
    },
    {
      "midi": 44,
      "hit": false,
      "t": 6857.148,
      "d": 542.8575499999997,
      "v": 127
    },
    {
      "midi": 51,
      "hit": false,
      "t": 6857.148,
      "d": 542.8575499999997,
      "v": 127
    },
    {
      "midi": 56,
      "hit": false,
      "t": 6857.148,
      "d": 542.8575499999997,
      "v": 127
    },
    {
      "midi": 60,
      "hit": false,
      "t": 6857.148,
      "d": 542.8575499999997,
      "v": 127
    },
    {
      "midi": 63,
      "hit": false,
      "t": 6857.148,
      "d": 542.8575499999997,
      "v": 127
    },
    {
      "midi": 65,
      "hit": false,
      "t": 7428.577,
      "d": 138.09534166666708,
      "v": 127
    },
    {
      "midi": 25,
      "hit": false,
      "t": 7428.577,
      "d": 542.8575500000006,
      "v": 127
    },
    {
      "midi": 37,
      "hit": false,
      "t": 7428.577,
      "d": 542.8575500000006,
      "v": 127
    },
    {
      "midi": 53,
      "hit": false,
      "t": 7428.577,
      "d": 542.8575500000006,
      "v": 127
    },
    {
      "midi": 56,
      "hit": false,
      "t": 7428.577,
      "d": 542.8575500000006,
      "v": 127
    },
    {
      "midi": 61,
      "hit": false,
      "t": 7428.577,
      "d": 542.8575500000006,
      "v": 127
    },
    {
      "midi": 63,
      "hit": false,
      "t": 8000.006000000001,
      "d": 395.23839166666585,
      "v": 127
    },
    {
      "midi": 31,
      "hit": false,
      "t": 8000.006000000001,
      "d": 409.5241166666656,
      "v": 127
    },
    {
      "midi": 43,
      "hit": false,
      "t": 8000.006000000001,
      "d": 409.5241166666656,
      "v": 127
    },
    {
      "midi": 53,
      "hit": false,
      "t": 8000.006000000001,
      "d": 409.5241166666656,
      "v": 127
    },
    {
      "midi": 59,
      "hit": false,
      "t": 8000.006000000001,
      "d": 442.8574749999989,
      "v": 127
    },
    {
      "midi": 55,
      "hit": false,
      "t": 8000.006000000001,
      "d": 461.90510833333246,
      "v": 127
    },
    {
      "midi": 62,
      "hit": false,
      "t": 8428.57775,
      "d": 138.09534166666708,
      "v": 127
    },
    {
      "midi": 51,
      "hit": false,
      "t": 8571.435000000001,
      "d": 814.2863250000009,
      "v": 127
    },
    {
      "midi": 55,
      "hit": false,
      "t": 8571.435000000001,
      "d": 814.2863250000009,
      "v": 127
    },
    {
      "midi": 60,
      "hit": false,
      "t": 8571.435000000001,
      "d": 814.2863250000009,
      "v": 127
    },
    {
      "midi": 67,
      "hit": false,
      "t": 9147.625908333333,
      "d": 3133.335683333333,
      "v": 59
    },
    {
      "midi": 55,
      "hit": false,
      "t": 9157.149725,
      "d": 2395.239891666666,
      "v": 69
    },
    {
      "midi": 58,
      "hit": false,
      "t": 9157.149725,
      "d": 2666.6686666666665,
      "v": 47
    },
    {
      "midi": 63,
      "hit": false,
      "t": 9157.149725,
      "d": 2838.097366666667,
      "v": 61
    },
    {
      "midi": 55,
      "hit": false,
      "t": 9428.578500000001,
      "d": 271.4287750000003,
      "v": 127
    },
    {
      "midi": 60,
      "hit": false,
      "t": 9714.293000000001,
      "d": 271.4287750000003,
      "v": 127
    },
    {
      "midi": 62,
      "hit": false,
      "t": 10000.007500000002,
      "d": 271.4287750000003,
      "v": 127
    },
    {
      "midi": 60,
      "hit": false,
      "t": 10285.722000000002,
      "d": 271.4287750000003,
      "v": 127
    },
    {
      "midi": 48,
      "hit": false,
      "t": 10285.722000000002,
      "d": 1157.143725,
      "v": 127
    },
    {
      "midi": 55,
      "hit": false,
      "t": 10571.436500000002,
      "d": 271.4287750000003,
      "v": 127
    },
    {
      "midi": 60,
      "hit": false,
      "t": 10857.151000000002,
      "d": 271.4287750000003,
      "v": 127
    },
    {
      "midi": 67,
      "hit": false,
      "t": 11142.865500000002,
      "d": 271.4287750000003,
      "v": 127
    },
    {
      "midi": 60,
      "hit": false,
      "t": 11428.580000000002,
      "d": 271.4287750000003,
      "v": 127
    },
    {
      "midi": 36,
      "hit": false,
      "t": 11428.580000000002,
      "d": 1157.143725,
      "v": 127
    },
    {
      "midi": 55,
      "hit": false,
      "t": 11704.770683333332,
      "d": 1709.5250916666664,
      "v": 76
    },
    {
      "midi": 55,
      "hit": false,
      "t": 11714.294500000002,
      "d": 271.4287750000003,
      "v": 127
    },
    {
      "midi": 60,
      "hit": false,
      "t": 12000.009000000002,
      "d": 271.4287750000003,
      "v": 127
    },
    {
      "midi": 62,
      "hit": false,
      "t": 12285.723500000002,
      "d": 271.4287750000003,
      "v": 127
    },
    {
      "midi": 58,
      "hit": false,
      "t": 12304.771133333334,
      "d": 1123.8103666666648,
      "v": 44
    },
    {
      "midi": 55,
      "hit": false,
      "t": 12571.438000000002,
      "d": 271.4287750000003,
      "v": 127
    },
    {
      "midi": 48,
      "hit": false,
      "t": 12571.438000000002,
      "d": 1176.1913583333335,
      "v": 127
    },
    {
      "midi": 63,
      "hit": false,
      "t": 12852.390591666666,
      "d": 552.3813666666665,
      "v": 52
    },
    {
      "midi": 60,
      "hit": false,
      "t": 12857.152500000002,
      "d": 271.4287750000003,
      "v": 127
    },
    {
      "midi": 63,
      "hit": false,
      "t": 13142.867000000002,
      "d": 271.4287750000003,
      "v": 127
    },
    {
      "midi": 67,
      "hit": false,
      "t": 13147.628908333332,
      "d": 280.9525916666662,
      "v": 64
    },
    {
      "midi": 60,
      "hit": false,
      "t": 13428.581500000002,
      "d": 271.4287750000003,
      "v": 127
    },
    {
      "midi": 55,
      "hit": false,
      "t": 13714.295999999998,
      "d": 1185.7151749999994,
      "v": 68
    },
    {
      "midi": 63,
      "hit": false,
      "t": 13714.295999999998,
      "d": 3171.4309500000018,
      "v": 41
    },
    {
      "midi": 67,
      "hit": false,
      "t": 13714.295999999998,
      "d": 3242.859575000002,
      "v": 58
    },
    {
      "midi": 72,
      "hit": false,
      "t": 13714.296000000002,
      "d": 271.4287750000003,
      "v": 127
    },
    {
      "midi": 36,
      "hit": false,
      "t": 13714.296000000002,
      "d": 1157.143725,
      "v": 127
    },
    {
      "midi": 67,
      "hit": false,
      "t": 14000.010500000002,
      "d": 271.4287750000003,
      "v": 127
    },
    {
      "midi": 72,
      "hit": false,
      "t": 14285.725000000002,
      "d": 271.4287750000003,
      "v": 127
    },
    {
      "midi": 75,
      "hit": false,
      "t": 14571.439500000002,
      "d": 271.4287750000003,
      "v": 127
    },
    {
      "midi": 48,
      "hit": false,
      "t": 14857.154000000002,
      "d": 271.4287750000003,
      "v": 127
    },
    {
      "midi": 77,
      "hit": false,
      "t": 14857.154000000002,
      "d": 557.1432750000004,
      "v": 127
    },
    {
      "midi": 55,
      "hit": false,
      "t": 15142.868499999999,
      "d": 1500.0011250000007,
      "v": 67
    },
    {
      "midi": 43,
      "hit": false,
      "t": 15142.868500000002,
      "d": 800.0005999999994,
      "v": 127
    },
    {
      "midi": 79,
      "hit": false,
      "t": 15428.583000000002,
      "d": 271.4287750000003,
      "v": 127
    },
    {
      "midi": 70,
      "hit": false,
      "t": 15714.297499999999,
      "d": 2295.23981666667,
      "v": 56
    },
    {
      "midi": 72,
      "hit": false,
      "t": 15714.297500000002,
      "d": 271.4287749999985,
      "v": 127
    },
    {
      "midi": 48,
      "hit": false,
      "t": 16000.012,
      "d": 271.4287750000003,
      "v": 127
    },
    {
      "midi": 55,
      "hit": false,
      "t": 16285.7265,
      "d": 823.810141666665,
      "v": 127
    },
    {
      "midi": 63,
      "hit": false,
      "t": 16571.441,
      "d": 271.4287750000003,
      "v": 127
    },
    {
      "midi": 55,
      "hit": false,
      "t": 16857.1555,
      "d": 1038.0960166666664,
      "v": 61
    },
    {
      "midi": 74,
      "hit": false,
      "t": 16857.1555,
      "d": 271.4287749999967,
      "v": 127
    },
    {
      "midi": 63,
      "hit": false,
      "t": 17142.87,
      "d": 866.6673166666696,
      "v": 47
    },
    {
      "midi": 55,
      "hit": false,
      "t": 17142.87,
      "d": 271.4287750000003,
      "v": 127
    },
    {
      "midi": 72,
      "hit": false,
      "t": 17142.87,
      "d": 1128.572275000006,
      "v": 127
    },
    {
      "midi": 60,
      "hit": false,
      "t": 17428.5845,
      "d": 271.4287750000003,
      "v": 127
    },
    {
      "midi": 67,
      "hit": false,
      "t": 17714.299,
      "d": 257.1430500000024,
      "v": 63
    },
    {
      "midi": 55,
      "hit": false,
      "t": 17714.299000000003,
      "d": 271.4287750000003,
      "v": 127
    },
    {
      "midi": 48,
      "hit": false,
      "t": 18000.013500000005,
      "d": 271.4287750000003,
      "v": 127
    },
    {
      "midi": 65,
      "hit": false,
      "t": 18285.728000000003,
      "d": 85.71434999999838,
      "v": 34
    },
    {
      "midi": 55,
      "hit": false,
      "t": 18285.728000000003,
      "d": 457.1431999999986,
      "v": 58
    },
    {
      "midi": 60,
      "hit": false,
      "t": 18285.728000000003,
      "d": 1142.8579999999965,
      "v": 39
    },
    {
      "midi": 67,
      "hit": false,
      "t": 18285.728000000003,
      "d": 1142.8579999999965,
      "v": 66
    },
    {
      "midi": 36,
      "hit": false,
      "t": 18285.728000000006,
      "d": 271.4287750000003,
      "v": 127
    },
    {
      "midi": 65,
      "hit": false,
      "t": 18285.728000000006,
      "d": 1100.0008250000064,
      "v": 127
    },
    {
      "midi": 43,
      "hit": false,
      "t": 18571.44250000001,
      "d": 271.4287750000003,
      "v": 127
    },
    {
      "midi": 55,
      "hit": false,
      "t": 18857.157000000003,
      "d": 571.4289999999964,
      "v": 64
    },
    {
      "midi": 48,
      "hit": false,
      "t": 18857.15700000001,
      "d": 271.4287750000003,
      "v": 127
    },
    {
      "midi": 65,
      "hit": false,
      "t": 19142.8715,
      "d": 285.7144999999982,
      "v": 51
    },
    {
      "midi": 52,
      "hit": false,
      "t": 19142.871500000012,
      "d": 538.0956416666668,
      "v": 127
    },
    {
      "midi": 55,
      "hit": false,
      "t": 19428.586,
      "d": 1142.8580000000002,
      "v": 52
    },
    {
      "midi": 64,
      "hit": false,
      "t": 19428.586,
      "d": 1142.8580000000002,
      "v": 73
    },
    {
      "midi": 67,
      "hit": false,
      "t": 19428.586,
      "d": 1142.8580000000002,
      "v": 58
    },
    {
      "midi": 60,
      "hit": false,
      "t": 19428.586000000014,
      "d": 271.4287749999967,
      "v": 127
    },
    {
      "midi": 64,
      "hit": false,
      "t": 19428.586000000014,
      "d": 271.4287749999967,
      "v": 127
    },
    {
      "midi": 48,
      "hit": false,
      "t": 19714.300500000012,
      "d": 271.4287750000003,
      "v": 127
    },
    {
      "midi": 67,
      "hit": false,
      "t": 19714.300500000012,
      "d": 271.4287750000003,
      "v": 127
    },
    {
      "midi": 60,
      "hit": false,
      "t": 20000.015,
      "d": 571.4290000000001,
      "v": 50
    },
    {
      "midi": 48,
      "hit": false,
      "t": 20000.015000000014,
      "d": 271.4287750000003,
      "v": 127
    },
    {
      "midi": 62,
      "hit": false,
      "t": 20000.015000000014,
      "d": 809.5244166666707,
      "v": 127
    },
    {
      "midi": 66,
      "hit": false,
      "t": 20000.015000000014,
      "d": 842.857775000004,
      "v": 127
    },
    {
      "midi": 43,
      "hit": false,
      "t": 20285.729500000016,
      "d": 271.4287750000003,
      "v": 127
    },
    {
      "midi": 57,
      "hit": false,
      "t": 20571.444,
      "d": 1142.8580000000002,
      "v": 52
    },
    {
      "midi": 67,
      "hit": false,
      "t": 20571.444,
      "d": 1142.8580000000002,
      "v": 73
    },
    {
      "midi": 69,
      "hit": false,
      "t": 20571.444,
      "d": 1142.8580000000002,
      "v": 58
    },
    {
      "midi": 38,
      "hit": false,
      "t": 20571.444000000018,
      "d": 271.4287750000003,
      "v": 127
    },
    {
      "midi": 45,
      "hit": false,
      "t": 20857.15850000002,
      "d": 271.4287750000003,
      "v": 127
    },
    {
      "midi": 62,
      "hit": false,
      "t": 20857.15850000002,
      "d": 776.1910583333374,
      "v": 127
    },
    {
      "midi": 62,
      "hit": false,
      "t": 21142.873,
      "d": 571.4290000000001,
      "v": 50
    },
    {
      "midi": 50,
      "hit": false,
      "t": 21142.87300000002,
      "d": 271.4287750000003,
      "v": 127
    },
    {
      "midi": 45,
      "hit": false,
      "t": 21428.587500000023,
      "d": 271.4287750000003,
      "v": 127
    },
    {
      "midi": 57,
      "hit": false,
      "t": 21714.302,
      "d": 1142.8580000000002,
      "v": 52
    },
    {
      "midi": 66,
      "hit": false,
      "t": 21714.302,
      "d": 1142.8580000000002,
      "v": 73
    },
    {
      "midi": 69,
      "hit": false,
      "t": 21714.302,
      "d": 1142.8580000000002,
      "v": 58
    },
    {
      "midi": 50,
      "hit": false,
      "t": 21714.302000000025,
      "d": 271.4287750000003,
      "v": 127
    },
    {
      "midi": 66,
      "hit": false,
      "t": 21714.302000000025,
      "d": 271.4287750000003,
      "v": 127
    },
    {
      "midi": 45,
      "hit": false,
      "t": 22000.016500000027,
      "d": 271.4287750000003,
      "v": 127
    },
    {
      "midi": 62,
      "hit": false,
      "t": 22285.731,
      "d": 571.4290000000001,
      "v": 50
    },
    {
      "midi": 50,
      "hit": false,
      "t": 22285.73100000003,
      "d": 271.4287750000003,
      "v": 127
    },
    {
      "midi": 62,
      "hit": false,
      "t": 22285.73100000003,
      "d": 271.4287750000003,
      "v": 127
    },
    {
      "midi": 45,
      "hit": false,
      "t": 22571.44550000003,
      "d": 271.4287750000003,
      "v": 127
    },
    {
      "midi": 51,
      "hit": false,
      "t": 22857.16,
      "d": 1228.5723499999986,
      "v": 51
    },
    {
      "midi": 55,
      "hit": false,
      "t": 22857.16,
      "d": 1433.3344083333322,
      "v": 59
    },
    {
      "midi": 58,
      "hit": false,
      "t": 22857.16,
      "d": 1623.8107416666644,
      "v": 49
    },
    {
      "midi": 62,
      "hit": false,
      "t": 22857.16,
      "d": 2285.715999999993,
      "v": 56
    },
    {
      "midi": 62,
      "hit": false,
      "t": 22857.160000000033,
      "d": 542.8575500000006,
      "v": 127
    },
    {
      "midi": 70,
      "hit": false,
      "t": 22857.160000000033,
      "d": 542.8575500000006,
      "v": 127
    },
    {
      "midi": 39,
      "hit": false,
      "t": 22857.160000000033,
      "d": 1152.3818166666679,
      "v": 127
    },
    {
      "midi": 65,
      "hit": false,
      "t": 23428.589000000033,
      "d": 271.4287750000003,
      "v": 127
    },
    {
      "midi": 69,
      "hit": false,
      "t": 23428.589000000033,
      "d": 271.4287750000003,
      "v": 127
    },
    {
      "midi": 63,
      "hit": false,
      "t": 23714.303500000035,
      "d": 561.9051833333324,
      "v": 127
    },
    {
      "midi": 67,
      "hit": false,
      "t": 23714.303500000035,
      "d": 561.9051833333324,
      "v": 127
    },
    {
      "midi": 51,
      "hit": false,
      "t": 24000.018000000033,
      "d": 1138.09609166667,
      "v": 127
    },
    {
      "midi": 51,
      "hit": false,
      "t": 24285.7325,
      "d": 857.1434999999947,
      "v": 49
    },
    {
      "midi": 55,
      "hit": false,
      "t": 24571.446999999996,
      "d": 571.4289999999964,
      "v": 62
    },
    {
      "midi": 67,
      "hit": false,
      "t": 24571.447000000033,
      "d": 271.4287750000003,
      "v": 127
    },
    {
      "midi": 70,
      "hit": false,
      "t": 24571.447000000033,
      "d": 271.4287750000003,
      "v": 127
    },
    {
      "midi": 58,
      "hit": false,
      "t": 24857.161499999995,
      "d": 285.7144999999982,
      "v": 51
    },
    {
      "midi": 65,
      "hit": false,
      "t": 24857.161500000035,
      "d": 528.5718250000027,
      "v": 127
    },
    {
      "midi": 69,
      "hit": false,
      "t": 24857.161500000035,
      "d": 561.905183333336,
      "v": 127
    },
    {
      "midi": 62,
      "hit": false,
      "t": 25142.875999999993,
      "d": 1566.6678416666655,
      "v": 31
    },
    {
      "midi": 60,
      "hit": false,
      "t": 25142.875999999993,
      "d": 2285.7160000000003,
      "v": 64
    },
    {
      "midi": 65,
      "hit": false,
      "t": 25142.875999999993,
      "d": 2285.7160000000003,
      "v": 50
    },
    {
      "midi": 69,
      "hit": false,
      "t": 25142.875999999993,
      "d": 2285.7160000000003,
      "v": 43
    },
    {
      "midi": 38,
      "hit": false,
      "t": 25142.876000000037,
      "d": 271.4287750000003,
      "v": 127
    },
    {
      "midi": 45,
      "hit": false,
      "t": 25428.59050000004,
      "d": 271.4287750000003,
      "v": 127
    },
    {
      "midi": 60,
      "hit": false,
      "t": 25428.59050000004,
      "d": 747.619608333338,
      "v": 127
    },
    {
      "midi": 65,
      "hit": false,
      "t": 25428.59050000004,
      "d": 785.7148750000051,
      "v": 127
    },
    {
      "midi": 50,
      "hit": false,
      "t": 25714.30500000004,
      "d": 271.4287750000003,
      "v": 127
    },
    {
      "midi": 53,
      "hit": false,
      "t": 26000.019500000042,
      "d": 271.4287750000003,
      "v": 127
    },
    {
      "midi": 60,
      "hit": false,
      "t": 26285.734000000044,
      "d": 271.4287750000003,
      "v": 127
    },
    {
      "midi": 50,
      "hit": false,
      "t": 26285.734000000044,
      "d": 1152.3818166666751,
      "v": 127
    },
    {
      "midi": 67,
      "hit": false,
      "t": 26571.448500000046,
      "d": 271.4287750000003,
      "v": 127
    },
    {
      "midi": 62,
      "hit": false,
      "t": 26857.162999999993,
      "d": 571.4290000000001,
      "v": 54
    },
    {
      "midi": 63,
      "hit": false,
      "t": 26857.163000000048,
      "d": 271.4287750000003,
      "v": 127
    },
    {
      "midi": 60,
      "hit": false,
      "t": 27142.87750000005,
      "d": 271.4287750000003,
      "v": 127
    },
    {
      "midi": 51,
      "hit": false,
      "t": 27428.591999999993,
      "d": 1404.7629583333328,
      "v": 51
    },
    {
      "midi": 55,
      "hit": false,
      "t": 27428.591999999993,
      "d": 2285.7160000000003,
      "v": 65
    },
    {
      "midi": 58,
      "hit": false,
      "t": 27428.591999999993,
      "d": 2285.7160000000003,
      "v": 39
    },
    {
      "midi": 62,
      "hit": false,
      "t": 27428.591999999993,
      "d": 2285.7160000000003,
      "v": 53
    },
    {
      "midi": 62,
      "hit": false,
      "t": 27428.59200000005,
      "d": 271.4287750000003,
      "v": 127
    },
    {
      "midi": 67,
      "hit": false,
      "t": 27428.59200000005,
      "d": 271.4287750000003,
      "v": 127
    },
    {
      "midi": 70,
      "hit": false,
      "t": 27428.59200000005,
      "d": 271.4287750000003,
      "v": 127
    },
    {
      "midi": 39,
      "hit": false,
      "t": 27428.59200000005,
      "d": 1138.09609166667,
      "v": 127
    },
    {
      "midi": 65,
      "hit": false,
      "t": 27714.306500000053,
      "d": 542.8575500000006,
      "v": 127
    },
    {
      "midi": 69,
      "hit": false,
      "t": 27714.306500000053,
      "d": 542.8575500000006,
      "v": 127
    },
    {
      "midi": 67,
      "hit": false,
      "t": 28285.735500000053,
      "d": 514.2861000000012,
      "v": 127
    },
    {
      "midi": 63,
      "hit": false,
      "t": 28285.735500000053,
      "d": 561.905183333336,
      "v": 127
    },
    {
      "midi": 51,
      "hit": false,
      "t": 28571.450000000055,
      "d": 1138.09609166667,
      "v": 127
    },
    {
      "midi": 67,
      "hit": false,
      "t": 28857.164500000057,
      "d": 542.8575500000006,
      "v": 127
    },
    {
      "midi": 70,
      "hit": false,
      "t": 28857.164500000057,
      "d": 542.8575500000006,
      "v": 127
    },
    {
      "midi": 51,
      "hit": false,
      "t": 29142.878999999994,
      "d": 571.4290000000001,
      "v": 76
    },
    {
      "midi": 69,
      "hit": false,
      "t": 29428.593500000057,
      "d": 538.0956416666668,
      "v": 127
    },
    {
      "midi": 72,
      "hit": false,
      "t": 29428.593500000057,
      "d": 552.3813666666683,
      "v": 127
    },
    {
      "midi": 65,
      "hit": false,
      "t": 29428.593500000057,
      "d": 576.1909083333339,
      "v": 127
    },
    {
      "midi": 57,
      "hit": false,
      "t": 29714.307999999994,
      "d": 1404.7629583333328,
      "v": 51
    },
    {
      "midi": 60,
      "hit": false,
      "t": 29714.307999999994,
      "d": 2285.7160000000003,
      "v": 65
    },
    {
      "midi": 62,
      "hit": false,
      "t": 29714.307999999994,
      "d": 2285.7160000000003,
      "v": 39
    },
    {
      "midi": 65,
      "hit": false,
      "t": 29714.307999999994,
      "d": 2285.7160000000003,
      "v": 53
    },
    {
      "midi": 38,
      "hit": false,
      "t": 29714.30800000006,
      "d": 1209.5247166666632,
      "v": 127
    },
    {
      "midi": 70,
      "hit": false,
      "t": 30000.022500000057,
      "d": 761.9053333333322,
      "v": 127
    },
    {
      "midi": 65,
      "hit": false,
      "t": 30857.166000000056,
      "d": 542.8575500000006,
      "v": 127
    },
    {
      "midi": 69,
      "hit": false,
      "t": 30857.166000000056,
      "d": 542.8575500000006,
      "v": 127
    },
    {
      "midi": 50,
      "hit": false,
      "t": 30857.166000000056,
      "d": 1138.0960916666663,
      "v": 127
    },
    {
      "midi": 57,
      "hit": false,
      "t": 31428.594999999994,
      "d": 571.4290000000001,
      "v": 76
    },
    {
      "midi": 72,
      "hit": false,
      "t": 31428.595000000056,
      "d": 542.8575500000006,
      "v": 127
    },
    {
      "midi": 67,
      "hit": false,
      "t": 32000.023999999994,
      "d": 85.71434999999838,
      "v": 34
    },
    {
      "midi": 60,
      "hit": false,
      "t": 32000.023999999994,
      "d": 457.1431999999986,
      "v": 58
    },
    {
      "midi": 62,
      "hit": false,
      "t": 32000.023999999994,
      "d": 1142.8580000000038,
      "v": 39
    },
    {
      "midi": 72,
      "hit": false,
      "t": 32000.023999999994,
      "d": 1142.8580000000038,
      "v": 66
    },
    {
      "midi": 69,
      "hit": false,
      "t": 32000.024000000056,
      "d": 271.4287750000003,
      "v": 127
    },
    {
      "midi": 72,
      "hit": false,
      "t": 32000.024000000056,
      "d": 271.4287750000003,
      "v": 127
    },
    {
      "midi": 43,
      "hit": false,
      "t": 32000.024000000056,
      "d": 1100.0008250000028,
      "v": 127
    },
    {
      "midi": 62,
      "hit": false,
      "t": 32285.738500000058,
      "d": 271.4287750000003,
      "v": 127
    },
    {
      "midi": 60,
      "hit": false,
      "t": 32571.452999999994,
      "d": 571.4290000000037,
      "v": 64
    },
    {
      "midi": 67,
      "hit": false,
      "t": 32571.45300000006,
      "d": 271.4287750000003,
      "v": 127
    },
    {
      "midi": 67,
      "hit": false,
      "t": 32857.167499999996,
      "d": 285.71450000000186,
      "v": 51
    },
    {
      "midi": 72,
      "hit": false,
      "t": 32857.16750000006,
      "d": 271.4287750000003,
      "v": 127
    },
    {
      "midi": 59,
      "hit": false,
      "t": 33142.882,
      "d": 809.5244166666671,
      "v": 67
    },
    {
      "midi": 67,
      "hit": false,
      "t": 33142.882,
      "d": 809.5244166666671,
      "v": 63
    },
    {
      "midi": 67,
      "hit": false,
      "t": 33142.88200000006,
      "d": 271.4287750000003,
      "v": 127
    },
    {
      "midi": 71,
      "hit": false,
      "t": 33142.88200000006,
      "d": 271.4287750000003,
      "v": 127
    },
    {
      "midi": 55,
      "hit": false,
      "t": 33142.88200000006,
      "d": 1138.0960916666736,
      "v": 127
    },
    {
      "midi": 62,
      "hit": false,
      "t": 33428.596500000065,
      "d": 271.4287750000003,
      "v": 127
    },
    {
      "midi": 67,
      "hit": false,
      "t": 33714.31100000007,
      "d": 271.4287750000003,
      "v": 127
    },
    {
      "midi": 57,
      "hit": false,
      "t": 34000.025499999996,
      "d": 1680.953641666667,
      "v": 51
    },
    {
      "midi": 62,
      "hit": false,
      "t": 34000.025499999996,
      "d": 2561.9066833333345,
      "v": 65
    },
    {
      "midi": 65,
      "hit": false,
      "t": 34000.025499999996,
      "d": 2561.9066833333345,
      "v": 39
    },
    {
      "midi": 69,
      "hit": false,
      "t": 34000.025499999996,
      "d": 2561.9066833333345,
      "v": 53
    },
    {
      "midi": 71,
      "hit": false,
      "t": 34000.02550000007,
      "d": 271.4287750000003,
      "v": 127
    },
    {
      "midi": 65,
      "hit": false,
      "t": 34285.74000000007,
      "d": 271.4287750000003,
      "v": 127
    },
    {
      "midi": 69,
      "hit": false,
      "t": 34285.74000000007,
      "d": 271.4287750000003,
      "v": 127
    },
    {
      "midi": 41,
      "hit": false,
      "t": 34285.74000000007,
      "d": 1090.4770083333424,
      "v": 127
    },
    {
      "midi": 62,
      "hit": false,
      "t": 34571.45450000007,
      "d": 271.4287750000003,
      "v": 127
    },
    {
      "midi": 65,
      "hit": false,
      "t": 34857.169000000074,
      "d": 271.4287750000003,
      "v": 127
    },
    {
      "midi": 69,
      "hit": false,
      "t": 35142.883500000076,
      "d": 271.4287750000003,
      "v": 127
    },
    {
      "midi": 74,
      "hit": false,
      "t": 35428.59800000008,
      "d": 271.4287750000003,
      "v": 127
    },
    {
      "midi": 41,
      "hit": false,
      "t": 35428.59800000008,
      "d": 1123.810366666672,
      "v": 127
    },
    {
      "midi": 65,
      "hit": false,
      "t": 35714.31250000008,
      "d": 271.4287750000003,
      "v": 127
    },
    {
      "midi": 57,
      "hit": false,
      "t": 36000.026999999995,
      "d": 571.4290000000037,
      "v": 76
    },
    {
      "midi": 67,
      "hit": false,
      "t": 36000.02700000008,
      "d": 271.4287750000003,
      "v": 127
    },
    {
      "midi": 65,
      "hit": false,
      "t": 36285.741500000084,
      "d": 271.4287750000003,
      "v": 127
    },
    {
      "midi": 55,
      "hit": false,
      "t": 36571.456,
      "d": 809.5244166666598,
      "v": 52
    },
    {
      "midi": 65,
      "hit": false,
      "t": 36571.456,
      "d": 809.5244166666598,
      "v": 73
    },
    {
      "midi": 67,
      "hit": false,
      "t": 36571.456,
      "d": 809.5244166666598,
      "v": 58
    },
    {
      "midi": 65,
      "hit": false,
      "t": 36571.456000000086,
      "d": 271.4287750000003,
      "v": 127
    },
    {
      "midi": 36,
      "hit": false,
      "t": 36571.456000000086,
      "d": 1152.3818166666751,
      "v": 127
    },
    {
      "midi": 60,
      "hit": false,
      "t": 36857.17050000009,
      "d": 271.4287750000003,
      "v": 127
    },
    {
      "midi": 60,
      "hit": false,
      "t": 37142.884999999995,
      "d": 238.09541666666337,
      "v": 50
    },
    {
      "midi": 65,
      "hit": false,
      "t": 37142.88500000009,
      "d": 271.4287750000003,
      "v": 127
    },
    {
      "midi": 55,
      "hit": false,
      "t": 37428.59949999999,
      "d": 1419.0486833333343,
      "v": 52
    },
    {
      "midi": 64,
      "hit": false,
      "t": 37428.59949999999,
      "d": 1419.0486833333343,
      "v": 73
    },
    {
      "midi": 67,
      "hit": false,
      "t": 37428.59949999999,
      "d": 1419.0486833333343,
      "v": 58
    },
    {
      "midi": 67,
      "hit": false,
      "t": 37428.59950000009,
      "d": 271.4287750000003,
      "v": 127
    },
    {
      "midi": 60,
      "hit": false,
      "t": 37714.31400000009,
      "d": 271.4287750000003,
      "v": 127
    },
    {
      "midi": 64,
      "hit": false,
      "t": 37714.31400000009,
      "d": 271.4287750000003,
      "v": 127
    },
    {
      "midi": 48,
      "hit": false,
      "t": 37714.31400000009,
      "d": 1123.810366666672,
      "v": 127
    },
    {
      "midi": 67,
      "hit": false,
      "t": 38000.028500000095,
      "d": 542.8575500000006,
      "v": 127
    },
    {
      "midi": 60,
      "hit": false,
      "t": 38285.74299999999,
      "d": 571.4290000000037,
      "v": 50
    },
    {
      "midi": 62,
      "hit": false,
      "t": 38571.4575000001,
      "d": 271.4287750000003,
      "v": 127
    },
    {
      "midi": 67,
      "hit": false,
      "t": 38571.4575000001,
      "d": 271.4287750000003,
      "v": 127
    },
    {
      "midi": 69,
      "hit": false,
      "t": 38571.4575000001,
      "d": 271.4287750000003,
      "v": 127
    },
    {
      "midi": 62,
      "hit": false,
      "t": 38857.17199999999,
      "d": 1566.6678416666691,
      "v": 31
    },
    {
      "midi": 57,
      "hit": false,
      "t": 38857.17199999999,
      "d": 2285.7160000000003,
      "v": 64
    },
    {
      "midi": 67,
      "hit": false,
      "t": 38857.17199999999,
      "d": 2285.7160000000003,
      "v": 50
    },
    {
      "midi": 69,
      "hit": false,
      "t": 38857.17199999999,
      "d": 2285.7160000000003,
      "v": 43
    },
    {
      "midi": 38,
      "hit": false,
      "t": 38857.1720000001,
      "d": 1152.3818166666751,
      "v": 127
    },
    {
      "midi": 66,
      "hit": false,
      "t": 39142.8865000001,
      "d": 271.4287750000003,
      "v": 127
    },
    {
      "midi": 62,
      "hit": false,
      "t": 39428.601000000104,
      "d": 271.4287750000003,
      "v": 127
    },
    {
      "midi": 66,
      "hit": false,
      "t": 39714.315500000106,
      "d": 271.4287750000003,
      "v": 127
    },
    {
      "midi": 62,
      "hit": false,
      "t": 40000.03000000011,
      "d": 271.4287750000003,
      "v": 127
    },
    {
      "midi": 50,
      "hit": false,
      "t": 40000.03000000011,
      "d": 1123.810366666672,
      "v": 127
    },
    {
      "midi": 64,
      "hit": false,
      "t": 40285.74450000011,
      "d": 271.4287750000003,
      "v": 127
    },
    {
      "midi": 62,
      "hit": false,
      "t": 40571.458999999995,
      "d": 571.4289999999964,
      "v": 54
    },
    {
      "midi": 66,
      "hit": false,
      "t": 40571.45900000011,
      "d": 271.4287750000003,
      "v": 127
    },
    {
      "midi": 69,
      "hit": false,
      "t": 40857.17350000011,
      "d": 271.4287750000003,
      "v": 127
    },
    {
      "midi": 58,
      "hit": false,
      "t": 41142.88799999999,
      "d": 1566.6678416666691,
      "v": 31
    },
    {
      "midi": 55,
      "hit": false,
      "t": 41142.88799999999,
      "d": 1952.3824166666673,
      "v": 64
    },
    {
      "midi": 62,
      "hit": false,
      "t": 41142.88799999999,
      "d": 1952.3824166666673,
      "v": 50
    },
    {
      "midi": 65,
      "hit": false,
      "t": 41142.88799999999,
      "d": 1952.3824166666673,
      "v": 43
    },
    {
      "midi": 62,
      "hit": false,
      "t": 41142.888000000115,
      "d": 542.8575500000006,
      "v": 127
    },
    {
      "midi": 67,
      "hit": false,
      "t": 41142.888000000115,
      "d": 542.8575500000006,
      "v": 127
    },
    {
      "midi": 70,
      "hit": false,
      "t": 41142.888000000115,
      "d": 542.8575500000006,
      "v": 127
    },
    {
      "midi": 39,
      "hit": false,
      "t": 41142.888000000115,
      "d": 1138.0960916666736,
      "v": 127
    },
    {
      "midi": 69,
      "hit": false,
      "t": 41714.31700000012,
      "d": 271.4287750000003,
      "v": 127
    },
    {
      "midi": 67,
      "hit": false,
      "t": 42000.03150000012,
      "d": 552.3813666666683,
      "v": 127
    },
    {
      "midi": 62,
      "hit": false,
      "t": 42000.03150000012,
      "d": 561.905183333336,
      "v": 127
    },
    {
      "midi": 51,
      "hit": false,
      "t": 42285.74600000012,
      "d": 1123.810366666672,
      "v": 127
    },
    {
      "midi": 70,
      "hit": false,
      "t": 42571.460500000125,
      "d": 542.8575500000006,
      "v": 127
    },
    {
      "midi": 58,
      "hit": false,
      "t": 42857.174999999996,
      "d": 238.09541666666337,
      "v": 54
    },
    {
      "midi": 57,
      "hit": false,
      "t": 43142.88949999999,
      "d": 1680.953641666667,
      "v": 51
    },
    {
      "midi": 60,
      "hit": false,
      "t": 43142.88949999999,
      "d": 2561.9066833333345,
      "v": 65
    },
    {
      "midi": 62,
      "hit": false,
      "t": 43142.88949999999,
      "d": 2561.9066833333345,
      "v": 39
    },
    {
      "midi": 65,
      "hit": false,
      "t": 43142.88949999999,
      "d": 2561.9066833333345,
      "v": 53
    },
    {
      "midi": 65,
      "hit": false,
      "t": 43142.88950000013,
      "d": 538.0956416666668,
      "v": 127
    },
    {
      "midi": 69,
      "hit": false,
      "t": 43142.88950000013,
      "d": 552.3813666666683,
      "v": 127
    },
    {
      "midi": 60,
      "hit": false,
      "t": 43142.88950000013,
      "d": 576.1909083333376,
      "v": 127
    },
    {
      "midi": 38,
      "hit": false,
      "t": 43428.60400000013,
      "d": 1138.0960916666736,
      "v": 127
    },
    {
      "midi": 65,
      "hit": false,
      "t": 43714.31850000013,
      "d": 271.4287750000003,
      "v": 127
    },
    {
      "midi": 57,
      "hit": false,
      "t": 44000.033000000134,
      "d": 271.4287750000003,
      "v": 127
    },
    {
      "midi": 60,
      "hit": false,
      "t": 44285.747500000136,
      "d": 271.4287750000003,
      "v": 127
    },
    {
      "midi": 65,
      "hit": false,
      "t": 44571.46200000014,
      "d": 271.4287750000003,
      "v": 127
    },
    {
      "midi": 50,
      "hit": false,
      "t": 44571.46200000014,
      "d": 1138.0960916666736,
      "v": 127
    },
    {
      "midi": 60,
      "hit": false,
      "t": 44857.17650000014,
      "d": 271.4287750000003,
      "v": 127
    },
    {
      "midi": 57,
      "hit": false,
      "t": 45142.89099999999,
      "d": 571.4290000000037,
      "v": 76
    },
    {
      "midi": 69,
      "hit": false,
      "t": 45142.89100000014,
      "d": 271.4287750000003,
      "v": 127
    },
    {
      "midi": 60,
      "hit": false,
      "t": 45428.60550000014,
      "d": 271.4287750000003,
      "v": 127
    },
    {
      "midi": 51,
      "hit": false,
      "t": 45714.31999999999,
      "d": 1404.7629583333328,
      "v": 51
    },
    {
      "midi": 55,
      "hit": false,
      "t": 45714.31999999999,
      "d": 2285.715999999993,
      "v": 65
    },
    {
      "midi": 58,
      "hit": false,
      "t": 45714.31999999999,
      "d": 2285.715999999993,
      "v": 39
    },
    {
      "midi": 62,
      "hit": false,
      "t": 45714.31999999999,
      "d": 2285.715999999993,
      "v": 53
    },
    {
      "midi": 62,
      "hit": false,
      "t": 45714.320000000145,
      "d": 271.4287750000003,
      "v": 127
    },
    {
      "midi": 67,
      "hit": false,
      "t": 45714.320000000145,
      "d": 271.4287750000003,
      "v": 127
    },
    {
      "midi": 70,
      "hit": false,
      "t": 45714.320000000145,
      "d": 271.4287750000003,
      "v": 127
    },
    {
      "midi": 39,
      "hit": false,
      "t": 45714.320000000145,
      "d": 1123.810366666672,
      "v": 127
    },
    {
      "midi": 65,
      "hit": false,
      "t": 46000.03450000015,
      "d": 542.8575500000006,
      "v": 127
    },
    {
      "midi": 69,
      "hit": false,
      "t": 46000.03450000015,
      "d": 542.8575500000006,
      "v": 127
    },
    {
      "midi": 63,
      "hit": false,
      "t": 46571.46350000015,
      "d": 271.4287750000003,
      "v": 127
    },
    {
      "midi": 67,
      "hit": false,
      "t": 46571.46350000015,
      "d": 271.4287750000003,
      "v": 127
    },
    {
      "midi": 51,
      "hit": false,
      "t": 46857.17800000015,
      "d": 1123.810366666672,
      "v": 127
    },
    {
      "midi": 67,
      "hit": false,
      "t": 47142.892500000155,
      "d": 542.8575500000006,
      "v": 127
    },
    {
      "midi": 70,
      "hit": false,
      "t": 47142.892500000155,
      "d": 542.8575500000006,
      "v": 127
    },
    {
      "midi": 51,
      "hit": false,
      "t": 47428.60699999999,
      "d": 571.4289999999964,
      "v": 76
    },
    {
      "midi": 69,
      "hit": false,
      "t": 47714.32150000016,
      "d": 528.5718249999991,
      "v": 127
    },
    {
      "midi": 72,
      "hit": false,
      "t": 47714.32150000016,
      "d": 561.905183333336,
      "v": 127
    },
    {
      "midi": 60,
      "hit": false,
      "t": 48000.035999999986,
      "d": 1142.8580000000002,
      "v": 67
    },
    {
      "midi": 67,
      "hit": false,
      "t": 48000.035999999986,
      "d": 1142.8580000000002,
      "v": 63
    },
    {
      "midi": 38,
      "hit": false,
      "t": 48000.03600000016,
      "d": 271.4287750000003,
      "v": 127
    },
    {
      "midi": 45,
      "hit": false,
      "t": 48285.75050000016,
      "d": 271.4287750000003,
      "v": 127
    },
    {
      "midi": 60,
      "hit": false,
      "t": 48285.75050000016,
      "d": 761.9053333333359,
      "v": 127
    },
    {
      "midi": 67,
      "hit": false,
      "t": 48285.75050000016,
      "d": 785.7148750000051,
      "v": 127
    },
    {
      "midi": 70,
      "hit": false,
      "t": 48285.75050000016,
      "d": 800.0006000000067,
      "v": 127
    },
    {
      "midi": 48,
      "hit": false,
      "t": 48571.465000000164,
      "d": 271.4287750000003,
      "v": 127
    },
    {
      "midi": 50,
      "hit": false,
      "t": 48857.179500000166,
      "d": 271.4287750000003,
      "v": 127
    },
    {
      "midi": 65,
      "hit": false,
      "t": 49142.893999999986,
      "d": 85.71435000000201,
      "v": 34
    },
    {
      "midi": 60,
      "hit": false,
      "t": 49142.893999999986,
      "d": 457.1431999999986,
      "v": 58
    },
    {
      "midi": 62,
      "hit": false,
      "t": 49142.893999999986,
      "d": 1142.8580000000002,
      "v": 39
    },
    {
      "midi": 69,
      "hit": false,
      "t": 49142.893999999986,
      "d": 1142.8580000000002,
      "v": 66
    },
    {
      "midi": 38,
      "hit": false,
      "t": 49142.89400000017,
      "d": 271.4287750000003,
      "v": 127
    },
    {
      "midi": 60,
      "hit": false,
      "t": 49142.89400000017,
      "d": 271.4287750000003,
      "v": 127
    },
    {
      "midi": 65,
      "hit": false,
      "t": 49142.89400000017,
      "d": 271.4287750000003,
      "v": 127
    },
    {
      "midi": 69,
      "hit": false,
      "t": 49142.89400000017,
      "d": 271.4287750000003,
      "v": 127
    },
    {
      "midi": 45,
      "hit": false,
      "t": 49428.60850000017,
      "d": 271.4287750000003,
      "v": 127
    },
    {
      "midi": 72,
      "hit": false,
      "t": 49428.60850000017,
      "d": 723.8100666666724,
      "v": 127
    },
    {
      "midi": 60,
      "hit": false,
      "t": 49714.32299999998,
      "d": 571.4290000000037,
      "v": 64
    },
    {
      "midi": 48,
      "hit": false,
      "t": 49714.32300000017,
      "d": 271.4287750000003,
      "v": 127
    },
    {
      "midi": 65,
      "hit": false,
      "t": 50000.037499999984,
      "d": 285.71450000000186,
      "v": 51
    },
    {
      "midi": 50,
      "hit": false,
      "t": 50000.03750000017,
      "d": 271.4287750000003,
      "v": 127
    },
    {
      "midi": 67,
      "hit": false,
      "t": 50285.751999999986,
      "d": 85.71435000000201,
      "v": 34
    },
    {
      "midi": 60,
      "hit": false,
      "t": 50285.751999999986,
      "d": 457.1431999999986,
      "v": 58
    },
    {
      "midi": 62,
      "hit": false,
      "t": 50285.751999999986,
      "d": 1142.8580000000002,
      "v": 39
    },
    {
      "midi": 72,
      "hit": false,
      "t": 50285.751999999986,
      "d": 1142.8580000000002,
      "v": 66
    },
    {
      "midi": 69,
      "hit": false,
      "t": 50285.752000000175,
      "d": 271.4287750000003,
      "v": 127
    },
    {
      "midi": 72,
      "hit": false,
      "t": 50285.752000000175,
      "d": 271.4287750000003,
      "v": 127
    },
    {
      "midi": 74,
      "hit": false,
      "t": 50285.752000000175,
      "d": 271.4287750000003,
      "v": 127
    },
    {
      "midi": 43,
      "hit": false,
      "t": 50285.752000000175,
      "d": 1076.1912833333408,
      "v": 127
    },
    {
      "midi": 62,
      "hit": false,
      "t": 50571.46650000018,
      "d": 271.4287750000003,
      "v": 127
    },
    {
      "midi": 60,
      "hit": false,
      "t": 50857.18099999998,
      "d": 571.4290000000037,
      "v": 64
    },
    {
      "midi": 67,
      "hit": false,
      "t": 50857.18100000018,
      "d": 271.4287750000003,
      "v": 127
    },
    {
      "midi": 67,
      "hit": false,
      "t": 51142.895499999984,
      "d": 285.71450000000186,
      "v": 51
    },
    {
      "midi": 62,
      "hit": false,
      "t": 51142.89550000018,
      "d": 271.4287750000003,
      "v": 127
    },
    {
      "midi": 59,
      "hit": false,
      "t": 51428.609999999986,
      "d": 1142.857999999993,
      "v": 52
    },
    {
      "midi": 67,
      "hit": false,
      "t": 51428.609999999986,
      "d": 1142.857999999993,
      "v": 73
    },
    {
      "midi": 71,
      "hit": false,
      "t": 51428.609999999986,
      "d": 1142.857999999993,
      "v": 58
    },
    {
      "midi": 67,
      "hit": false,
      "t": 51428.61000000018,
      "d": 271.4287750000003,
      "v": 127
    },
    {
      "midi": 71,
      "hit": false,
      "t": 51428.61000000018,
      "d": 271.4287750000003,
      "v": 127
    },
    {
      "midi": 43,
      "hit": false,
      "t": 51428.61000000018,
      "d": 1138.0960916666736,
      "v": 127
    },
    {
      "midi": 62,
      "hit": false,
      "t": 51714.324500000184,
      "d": 271.4287750000003,
      "v": 127
    },
    {
      "midi": 62,
      "hit": false,
      "t": 52000.03899999998,
      "d": 571.4289999999964,
      "v": 50
    },
    {
      "midi": 67,
      "hit": false,
      "t": 52000.039000000186,
      "d": 271.4287750000003,
      "v": 127
    },
    {
      "midi": 62,
      "hit": false,
      "t": 52285.75350000019,
      "d": 271.4287750000003,
      "v": 127
    },
    {
      "midi": 59,
      "hit": false,
      "t": 52571.46799999998,
      "d": 1142.8580000000002,
      "v": 67
    },
    {
      "midi": 65,
      "hit": false,
      "t": 52571.46799999998,
      "d": 1142.8580000000002,
      "v": 63
    },
    {
      "midi": 53,
      "hit": false,
      "t": 52571.46800000019,
      "d": 271.4287750000003,
      "v": 127
    },
    {
      "midi": 62,
      "hit": false,
      "t": 52571.46800000019,
      "d": 271.4287750000003,
      "v": 127
    },
    {
      "midi": 65,
      "hit": false,
      "t": 52571.46800000019,
      "d": 271.4287750000003,
      "v": 127
    },
    {
      "midi": 71,
      "hit": false,
      "t": 52571.46800000019,
      "d": 271.4287750000003,
      "v": 127
    },
    {
      "midi": 53,
      "hit": false,
      "t": 52857.18250000019,
      "d": 271.4287750000003,
      "v": 127
    },
    {
      "midi": 62,
      "hit": false,
      "t": 52857.18250000019,
      "d": 271.4287750000003,
      "v": 127
    },
    {
      "midi": 65,
      "hit": false,
      "t": 52857.18250000019,
      "d": 271.4287750000003,
      "v": 127
    },
    {
      "midi": 71,
      "hit": false,
      "t": 52857.18250000019,
      "d": 271.4287750000003,
      "v": 127
    },
    {
      "midi": 53,
      "hit": false,
      "t": 53142.897000000194,
      "d": 271.4287750000003,
      "v": 127
    },
    {
      "midi": 62,
      "hit": false,
      "t": 53142.897000000194,
      "d": 271.4287750000003,
      "v": 127
    },
    {
      "midi": 65,
      "hit": false,
      "t": 53142.897000000194,
      "d": 271.4287750000003,
      "v": 127
    },
    {
      "midi": 71,
      "hit": false,
      "t": 53142.897000000194,
      "d": 271.4287750000003,
      "v": 127
    },
    {
      "midi": 51,
      "hit": false,
      "t": 53428.611500000196,
      "d": 542.8575500000006,
      "v": 127
    },
    {
      "midi": 63,
      "hit": false,
      "t": 53428.611500000196,
      "d": 542.8575500000006,
      "v": 127
    },
    {
      "midi": 67,
      "hit": false,
      "t": 53428.611500000196,
      "d": 542.8575500000006,
      "v": 127
    },
    {
      "midi": 72,
      "hit": false,
      "t": 53428.611500000196,
      "d": 542.8575500000006,
      "v": 127
    },
    {
      "midi": 55,
      "hit": false,
      "t": 53714.32599999998,
      "d": 238.09541666666337,
      "v": 67
    },
    {
      "midi": 63,
      "hit": false,
      "t": 53714.32599999998,
      "d": 238.09541666666337,
      "v": 63
    },
    {
      "midi": 59,
      "hit": false,
      "t": 54000.040499999974,
      "d": 523.8099166666652,
      "v": 73
    },
    {
      "midi": 74,
      "hit": false,
      "t": 54000.0405000002,
      "d": 785.7148749999978,
      "v": 127
    },
    {
      "midi": 50,
      "hit": false,
      "t": 54000.0405000002,
      "d": 814.2863250000009,
      "v": 127
    },
    {
      "midi": 65,
      "hit": false,
      "t": 54000.0405000002,
      "d": 814.2863250000009,
      "v": 127
    },
    {
      "midi": 71,
      "hit": false,
      "t": 54000.0405000002,
      "d": 814.2863250000009,
      "v": 127
    },
    {
      "midi": 55,
      "hit": false,
      "t": 54571.46949999997,
      "d": 1504.7630333333364,
      "v": 51
    },
    {
      "midi": 60,
      "hit": false,
      "t": 54571.46949999997,
      "d": 1709.52509166667,
      "v": 59
    },
    {
      "midi": 63,
      "hit": false,
      "t": 54571.46949999997,
      "d": 1900.0014250000022,
      "v": 49
    },
    {
      "midi": 67,
      "hit": false,
      "t": 54571.46949999997,
      "d": 2561.906683333342,
      "v": 56
    },
    {
      "midi": 48,
      "hit": false,
      "t": 54857.1840000002,
      "d": 271.4287750000003,
      "v": 127
    },
    {
      "midi": 75,
      "hit": false,
      "t": 54857.1840000002,
      "d": 552.3813666666683,
      "v": 127
    },
    {
      "midi": 55,
      "hit": false,
      "t": 55142.8985000002,
      "d": 271.4287750000003,
      "v": 127
    },
    {
      "midi": 60,
      "hit": false,
      "t": 55428.6130000002,
      "d": 271.4287750000003,
      "v": 127
    },
    {
      "midi": 63,
      "hit": false,
      "t": 55714.3275000002,
      "d": 271.4287750000003,
      "v": 127
    },
    {
      "midi": 48,
      "hit": false,
      "t": 56000.042000000205,
      "d": 271.4287750000003,
      "v": 127
    },
    {
      "midi": 63,
      "hit": false,
      "t": 56000.042000000205,
      "d": 528.5718249999991,
      "v": 127
    },
    {
      "midi": 67,
      "hit": false,
      "t": 56000.042000000205,
      "d": 561.905183333336,
      "v": 127
    },
    {
      "midi": 55,
      "hit": false,
      "t": 56285.756499999974,
      "d": 857.1435000000056,
      "v": 49
    },
    {
      "midi": 55,
      "hit": false,
      "t": 56285.75650000021,
      "d": 271.4287750000003,
      "v": 127
    },
    {
      "midi": 60,
      "hit": false,
      "t": 56571.470999999976,
      "d": 571.4290000000037,
      "v": 62
    },
    {
      "midi": 60,
      "hit": false,
      "t": 56571.47100000021,
      "d": 271.4287750000003,
      "v": 127
    },
    {
      "midi": 63,
      "hit": false,
      "t": 56857.18549999998,
      "d": 285.71450000000186,
      "v": 51
    },
    {
      "midi": 63,
      "hit": false,
      "t": 56857.18550000021,
      "d": 271.4287750000003,
      "v": 127
    },
    {
      "midi": 60,
      "hit": false,
      "t": 57142.89999999998,
      "d": 1228.5723500000022,
      "v": 51
    },
    {
      "midi": 63,
      "hit": false,
      "t": 57142.89999999998,
      "d": 1433.334408333336,
      "v": 59
    },
    {
      "midi": 68,
      "hit": false,
      "t": 57142.89999999998,
      "d": 1623.810741666668,
      "v": 49
    },
    {
      "midi": 72,
      "hit": false,
      "t": 57142.89999999998,
      "d": 2285.7160000000076,
      "v": 56
    },
    {
      "midi": 48,
      "hit": false,
      "t": 57142.90000000021,
      "d": 271.4287750000003,
      "v": 127
    },
    {
      "midi": 75,
      "hit": false,
      "t": 57142.90000000021,
      "d": 552.3813666666683,
      "v": 127
    },
    {
      "midi": 68,
      "hit": false,
      "t": 57142.90000000021,
      "d": 561.905183333336,
      "v": 127
    },
    {
      "midi": 72,
      "hit": false,
      "t": 57142.90000000021,
      "d": 585.7147250000053,
      "v": 127
    },
    {
      "midi": 51,
      "hit": false,
      "t": 57428.614500000214,
      "d": 271.4287750000003,
      "v": 127
    },
    {
      "midi": 56,
      "hit": false,
      "t": 57714.329000000216,
      "d": 271.4287750000003,
      "v": 127
    },
    {
      "midi": 60,
      "hit": false,
      "t": 58000.04350000022,
      "d": 271.4287750000003,
      "v": 127
    },
    {
      "midi": 48,
      "hit": false,
      "t": 58285.75800000022,
      "d": 271.4287750000003,
      "v": 127
    },
    {
      "midi": 72,
      "hit": false,
      "t": 58285.75800000022,
      "d": 576.1909083333376,
      "v": 127
    },
    {
      "midi": 75,
      "hit": false,
      "t": 58285.75800000022,
      "d": 576.1909083333376,
      "v": 127
    },
    {
      "midi": 68,
      "hit": false,
      "t": 58285.75800000022,
      "d": 585.7147250000053,
      "v": 127
    },
    {
      "midi": 60,
      "hit": false,
      "t": 58571.47249999998,
      "d": 857.1435000000056,
      "v": 49
    },
    {
      "midi": 51,
      "hit": false,
      "t": 58571.47250000022,
      "d": 271.4287750000003,
      "v": 127
    },
    {
      "midi": 63,
      "hit": false,
      "t": 58857.18699999998,
      "d": 571.4290000000037,
      "v": 62
    },
    {
      "midi": 56,
      "hit": false,
      "t": 58857.18700000022,
      "d": 271.4287750000003,
      "v": 127
    },
    {
      "midi": 68,
      "hit": false,
      "t": 59142.901499999985,
      "d": 285.71450000000186,
      "v": 51
    },
    {
      "midi": 60,
      "hit": false,
      "t": 59142.901500000225,
      "d": 271.4287750000003,
      "v": 127
    },
    {
      "midi": 59,
      "hit": false,
      "t": 59428.61599999999,
      "d": 1142.8580000000002,
      "v": 67
    },
    {
      "midi": 66,
      "hit": false,
      "t": 59428.61599999999,
      "d": 1142.8580000000002,
      "v": 63
    },
    {
      "midi": 62,
      "hit": false,
      "t": 59428.61600000023,
      "d": 542.8575500000006,
      "v": 127
    },
    {
      "midi": 69,
      "hit": false,
      "t": 59428.61600000023,
      "d": 542.8575500000006,
      "v": 127
    },
    {
      "midi": 74,
      "hit": false,
      "t": 59428.61600000023,
      "d": 542.8575500000006,
      "v": 127
    },
    {
      "midi": 47,
      "hit": false,
      "t": 59428.61600000023,
      "d": 1066.6674666666731,
      "v": 127
    },
    {
      "midi": 57,
      "hit": false,
      "t": 59428.61600000023,
      "d": 1114.2865500000044,
      "v": 127
    },
    {
      "midi": 72,
      "hit": false,
      "t": 60000.04500000023,
      "d": 271.4287750000003,
      "v": 127
    },
    {
      "midi": 67,
      "hit": false,
      "t": 60285.75950000023,
      "d": 552.3813666666683,
      "v": 127
    },
    {
      "midi": 62,
      "hit": false,
      "t": 60285.75950000023,
      "d": 561.905183333336,
      "v": 127
    },
    {
      "midi": 71,
      "hit": false,
      "t": 60285.75950000023,
      "d": 561.905183333336,
      "v": 127
    },
    {
      "midi": 59,
      "hit": false,
      "t": 60571.47399999999,
      "d": 809.5244166666598,
      "v": 52
    },
    {
      "midi": 67,
      "hit": false,
      "t": 60571.47399999999,
      "d": 809.5244166666598,
      "v": 73
    },
    {
      "midi": 71,
      "hit": false,
      "t": 60571.47399999999,
      "d": 809.5244166666598,
      "v": 58
    },
    {
      "midi": 47,
      "hit": false,
      "t": 60571.474000000235,
      "d": 1138.0960916666736,
      "v": 127
    },
    {
      "midi": 55,
      "hit": false,
      "t": 60571.474000000235,
      "d": 1152.3818166666751,
      "v": 127
    },
    {
      "midi": 72,
      "hit": false,
      "t": 60857.18850000024,
      "d": 271.4287750000003,
      "v": 127
    },
    {
      "midi": 62,
      "hit": false,
      "t": 61142.902999999984,
      "d": 238.09541666666337,
      "v": 50
    },
    {
      "midi": 74,
      "hit": false,
      "t": 61142.90300000024,
      "d": 542.8575500000006,
      "v": 127
    },
    {
      "midi": 57,
      "hit": false,
      "t": 61428.61749999998,
      "d": 1419.0486833333343,
      "v": 52
    },
    {
      "midi": 62,
      "hit": false,
      "t": 61428.61749999998,
      "d": 1419.0486833333343,
      "v": 73
    },
    {
      "midi": 65,
      "hit": false,
      "t": 61428.61749999998,
      "d": 1419.0486833333343,
      "v": 58
    },
    {
      "midi": 57,
      "hit": false,
      "t": 61714.33200000024,
      "d": 1085.7151000000013,
      "v": 127
    },
    {
      "midi": 62,
      "hit": false,
      "t": 61714.33200000024,
      "d": 1085.7151000000013,
      "v": 127
    },
    {
      "midi": 69,
      "hit": false,
      "t": 61714.33200000024,
      "d": 1085.7151000000013,
      "v": 127
    },
    {
      "midi": 74,
      "hit": false,
      "t": 61714.33200000024,
      "d": 1085.7151000000013,
      "v": 127
    },
    {
      "midi": 46,
      "hit": false,
      "t": 61714.33200000024,
      "d": 2276.1921833333327,
      "v": 127
    },
    {
      "midi": 58,
      "hit": false,
      "t": 62285.76099999998,
      "d": 571.4290000000037,
      "v": 50
    },
    {
      "midi": 55,
      "hit": false,
      "t": 62857.18999999998,
      "d": 1142.8580000000002,
      "v": 67
    },
    {
      "midi": 62,
      "hit": false,
      "t": 62857.18999999998,
      "d": 1142.8580000000002,
      "v": 63
    },
    {
      "midi": 55,
      "hit": false,
      "t": 62857.19000000024,
      "d": 1085.7151000000013,
      "v": 127
    },
    {
      "midi": 62,
      "hit": false,
      "t": 62857.19000000024,
      "d": 1085.7151000000013,
      "v": 127
    },
    {
      "midi": 67,
      "hit": false,
      "t": 62857.19000000024,
      "d": 1085.7151000000013,
      "v": 127
    },
    {
      "midi": 52,
      "hit": false,
      "t": 64000.04799999998,
      "d": 1228.5723500000022,
      "v": 51
    },
    {
      "midi": 55,
      "hit": false,
      "t": 64000.04799999998,
      "d": 1433.334408333336,
      "v": 59
    },
    {
      "midi": 57,
      "hit": false,
      "t": 64000.04799999998,
      "d": 1623.8107416666753,
      "v": 49
    },
    {
      "midi": 60,
      "hit": false,
      "t": 64000.04799999998,
      "d": 1952.3824166666745,
      "v": 56
    },
    {
      "midi": 60,
      "hit": false,
      "t": 64000.04800000024,
      "d": 542.8575500000006,
      "v": 127
    },
    {
      "midi": 67,
      "hit": false,
      "t": 64000.04800000024,
      "d": 542.8575500000006,
      "v": 127
    },
    {
      "midi": 72,
      "hit": false,
      "t": 64000.04800000024,
      "d": 542.8575500000006,
      "v": 127
    },
    {
      "midi": 55,
      "hit": false,
      "t": 64000.04800000024,
      "d": 2252.382641666656,
      "v": 127
    },
    {
      "midi": 45,
      "hit": false,
      "t": 64000.04800000024,
      "d": 2290.4779083333124,
      "v": 127
    },
    {
      "midi": 72,
      "hit": false,
      "t": 64571.477000000246,
      "d": 271.4287750000003,
      "v": 127
    },
    {
      "midi": 72,
      "hit": false,
      "t": 64857.19150000025,
      "d": 814.2863249999937,
      "v": 127
    },
    {
      "midi": 52,
      "hit": false,
      "t": 65428.62049999998,
      "d": 523.8099166666725,
      "v": 49
    },
    {
      "midi": 55,
      "hit": false,
      "t": 65714.33499999999,
      "d": 238.09541666666337,
      "v": 62
    },
    {
      "midi": 72,
      "hit": false,
      "t": 65714.33500000024,
      "d": 271.42877499999304,
      "v": 127
    },
    {
      "midi": 56,
      "hit": false,
      "t": 66000.0495,
      "d": 1504.7630333333364,
      "v": 51
    },
    {
      "midi": 60,
      "hit": false,
      "t": 66000.0495,
      "d": 1709.52509166667,
      "v": 59
    },
    {
      "midi": 63,
      "hit": false,
      "t": 66000.0495,
      "d": 1900.001424999995,
      "v": 49
    },
    {
      "midi": 66,
      "hit": false,
      "t": 66000.0495,
      "d": 2561.9066833333345,
      "v": 56
    },
    {
      "midi": 66,
      "hit": false,
      "t": 66000.04950000023,
      "d": 528.5718249999918,
      "v": 127
    },
    {
      "midi": 72,
      "hit": false,
      "t": 66000.04950000023,
      "d": 528.5718249999918,
      "v": 127
    },
    {
      "midi": 60,
      "hit": false,
      "t": 66000.04950000023,
      "d": 552.3813666666538,
      "v": 127
    },
    {
      "midi": 44,
      "hit": false,
      "t": 66285.76400000023,
      "d": 552.3813666666538,
      "v": 127
    },
    {
      "midi": 60,
      "hit": false,
      "t": 66571.47850000022,
      "d": 785.7148750000051,
      "v": 127
    },
    {
      "midi": 74,
      "hit": false,
      "t": 66571.47850000022,
      "d": 785.7148750000051,
      "v": 127
    },
    {
      "midi": 66,
      "hit": false,
      "t": 66571.47850000022,
      "d": 800.0005999999994,
      "v": 127
    },
    {
      "midi": 56,
      "hit": false,
      "t": 66857.19300000022,
      "d": 542.8575500000006,
      "v": 127
    },
    {
      "midi": 44,
      "hit": false,
      "t": 67428.62200000022,
      "d": 542.8575500000006,
      "v": 127
    },
    {
      "midi": 56,
      "hit": false,
      "t": 67714.33649999999,
      "d": 857.1435000000056,
      "v": 49
    },
    {
      "midi": 60,
      "hit": false,
      "t": 68000.05099999999,
      "d": 571.4290000000037,
      "v": 62
    },
    {
      "midi": 56,
      "hit": false,
      "t": 68000.05100000023,
      "d": 552.3813666666683,
      "v": 127
    },
    {
      "midi": 63,
      "hit": false,
      "t": 68285.7655,
      "d": 285.71450000000186,
      "v": 51
    },
    {
      "midi": 72,
      "hit": false,
      "t": 68285.76550000023,
      "d": 271.42877499999304,
      "v": 127
    },
    {
      "midi": 67,
      "hit": false,
      "t": 68571.48,
      "d": 85.71434999999474,
      "v": 34
    },
    {
      "midi": 60,
      "hit": false,
      "t": 68571.48,
      "d": 457.14319999999134,
      "v": 58
    },
    {
      "midi": 62,
      "hit": false,
      "t": 68571.48,
      "d": 1142.857999999993,
      "v": 39
    },
    {
      "midi": 72,
      "hit": false,
      "t": 68571.48,
      "d": 1142.857999999993,
      "v": 66
    },
    {
      "midi": 43,
      "hit": false,
      "t": 68571.48000000021,
      "d": 271.42877499999304,
      "v": 127
    },
    {
      "midi": 62,
      "hit": false,
      "t": 68571.48000000021,
      "d": 271.42877499999304,
      "v": 127
    },
    {
      "midi": 71,
      "hit": false,
      "t": 68571.48000000021,
      "d": 271.42877499999304,
      "v": 127
    },
    {
      "midi": 50,
      "hit": false,
      "t": 68857.1945000002,
      "d": 271.42877499999304,
      "v": 127
    },
    {
      "midi": 69,
      "hit": false,
      "t": 68857.1945000002,
      "d": 271.42877499999304,
      "v": 127
    },
    {
      "midi": 60,
      "hit": false,
      "t": 69142.90899999999,
      "d": 571.4290000000037,
      "v": 64
    },
    {
      "midi": 55,
      "hit": false,
      "t": 69142.90900000019,
      "d": 271.42877499999304,
      "v": 127
    },
    {
      "midi": 67,
      "hit": false,
      "t": 69142.90900000019,
      "d": 271.42877499999304,
      "v": 127
    },
    {
      "midi": 67,
      "hit": false,
      "t": 69428.62349999999,
      "d": 285.71450000000186,
      "v": 51
    },
    {
      "midi": 50,
      "hit": false,
      "t": 69428.62350000018,
      "d": 271.42877499999304,
      "v": 127
    },
    {
      "midi": 59,
      "hit": false,
      "t": 69428.62350000018,
      "d": 819.0482333333057,
      "v": 127
    },
    {
      "midi": 67,
      "hit": false,
      "t": 69428.62350000018,
      "d": 833.3339583333,
      "v": 127
    },
    {
      "midi": 59,
      "hit": false,
      "t": 69714.33799999999,
      "d": 1142.857999999993,
      "v": 67
    },
    {
      "midi": 67,
      "hit": false,
      "t": 69714.33799999999,
      "d": 1142.857999999993,
      "v": 63
    },
    {
      "midi": 43,
      "hit": false,
      "t": 69714.33800000016,
      "d": 271.42877499999304,
      "v": 127
    },
    {
      "midi": 50,
      "hit": false,
      "t": 70000.05250000015,
      "d": 271.42877499999304,
      "v": 127
    },
    {
      "midi": 55,
      "hit": false,
      "t": 70285.76700000014,
      "d": 271.42877499999304,
      "v": 127
    },
    {
      "midi": 50,
      "hit": false,
      "t": 70571.48150000013,
      "d": 271.42877499999304,
      "v": 127
    },
    {
      "midi": 59,
      "hit": false,
      "t": 70857.19599999998,
      "d": 571.4290000000037,
      "v": 67
    },
    {
      "midi": 65,
      "hit": false,
      "t": 70857.19599999998,
      "d": 571.4290000000037,
      "v": 63
    },
    {
      "midi": 53,
      "hit": false,
      "t": 70857.19600000011,
      "d": 271.42877499999304,
      "v": 127
    },
    {
      "midi": 62,
      "hit": false,
      "t": 70857.19600000011,
      "d": 271.42877499999304,
      "v": 127
    },
    {
      "midi": 65,
      "hit": false,
      "t": 70857.19600000011,
      "d": 271.42877499999304,
      "v": 127
    },
    {
      "midi": 71,
      "hit": false,
      "t": 70857.19600000011,
      "d": 271.42877499999304,
      "v": 127
    },
    {
      "midi": 53,
      "hit": false,
      "t": 71142.9105000001,
      "d": 271.42877499999304,
      "v": 127
    },
    {
      "midi": 62,
      "hit": false,
      "t": 71142.9105000001,
      "d": 271.42877499999304,
      "v": 127
    },
    {
      "midi": 65,
      "hit": false,
      "t": 71142.9105000001,
      "d": 271.42877499999304,
      "v": 127
    },
    {
      "midi": 71,
      "hit": false,
      "t": 71142.9105000001,
      "d": 271.42877499999304,
      "v": 127
    },
    {
      "midi": 55,
      "hit": false,
      "t": 71428.62499999999,
      "d": 571.4290000000037,
      "v": 67
    },
    {
      "midi": 63,
      "hit": false,
      "t": 71428.62499999999,
      "d": 571.4290000000037,
      "v": 63
    },
    {
      "midi": 53,
      "hit": false,
      "t": 71428.62500000009,
      "d": 271.42877499999304,
      "v": 127
    },
    {
      "midi": 62,
      "hit": false,
      "t": 71428.62500000009,
      "d": 271.42877499999304,
      "v": 127
    },
    {
      "midi": 65,
      "hit": false,
      "t": 71428.62500000009,
      "d": 271.42877499999304,
      "v": 127
    },
    {
      "midi": 71,
      "hit": false,
      "t": 71428.62500000009,
      "d": 271.42877499999304,
      "v": 127
    },
    {
      "midi": 51,
      "hit": false,
      "t": 71714.33950000007,
      "d": 542.8575500000006,
      "v": 127
    },
    {
      "midi": 63,
      "hit": false,
      "t": 71714.33950000007,
      "d": 542.8575500000006,
      "v": 127
    },
    {
      "midi": 67,
      "hit": false,
      "t": 71714.33950000007,
      "d": 542.8575500000006,
      "v": 127
    },
    {
      "midi": 72,
      "hit": false,
      "t": 71714.33950000007,
      "d": 542.8575500000006,
      "v": 127
    },
    {
      "midi": 59,
      "hit": false,
      "t": 72000.05399999999,
      "d": 809.5244166666671,
      "v": 67
    },
    {
      "midi": 67,
      "hit": false,
      "t": 72000.05399999999,
      "d": 809.5244166666671,
      "v": 63
    },
    {
      "midi": 50,
      "hit": false,
      "t": 72285.76850000008,
      "d": 542.8575500000006,
      "v": 127
    },
    {
      "midi": 74,
      "hit": false,
      "t": 72285.76850000008,
      "d": 776.1910583333374,
      "v": 127
    },
    {
      "midi": 60,
      "hit": false,
      "t": 72857.1975,
      "d": 1842.8585250000033,
      "v": 31
    },
    {
      "midi": 55,
      "hit": false,
      "t": 72857.1975,
      "d": 2561.9066833333345,
      "v": 64
    },
    {
      "midi": 63,
      "hit": false,
      "t": 72857.1975,
      "d": 2561.9066833333345,
      "v": 50
    },
    {
      "midi": 67,
      "hit": false,
      "t": 72857.1975,
      "d": 2561.9066833333345,
      "v": 43
    },
    {
      "midi": 43,
      "hit": false,
      "t": 72857.19750000008,
      "d": 2442.858974999923,
      "v": 127
    },
    {
      "midi": 48,
      "hit": false,
      "t": 73142.91200000008,
      "d": 271.42877499999304,
      "v": 127
    },
    {
      "midi": 75,
      "hit": false,
      "t": 73142.91200000008,
      "d": 552.3813666666538,
      "v": 127
    },
    {
      "midi": 55,
      "hit": false,
      "t": 73428.62650000007,
      "d": 271.42877499999304,
      "v": 127
    },
    {
      "midi": 60,
      "hit": false,
      "t": 73714.34100000006,
      "d": 271.42877499999304,
      "v": 127
    },
    {
      "midi": 63,
      "hit": false,
      "t": 74000.05550000005,
      "d": 271.42877499999304,
      "v": 127
    },
    {
      "midi": 48,
      "hit": false,
      "t": 74285.77000000003,
      "d": 271.42877499999304,
      "v": 127
    },
    {
      "midi": 63,
      "hit": false,
      "t": 74285.77000000003,
      "d": 528.5718249999918,
      "v": 127
    },
    {
      "midi": 67,
      "hit": false,
      "t": 74285.77000000003,
      "d": 561.9051833333215,
      "v": 127
    },
    {
      "midi": 55,
      "hit": false,
      "t": 74571.48450000002,
      "d": 271.4287750000076,
      "v": 127
    },
    {
      "midi": 60,
      "hit": false,
      "t": 74857.199,
      "d": 571.4290000000037,
      "v": 54
    },
    {
      "midi": 60,
      "hit": false,
      "t": 74857.19900000002,
      "d": 271.42877499999304,
      "v": 127
    },
    {
      "midi": 63,
      "hit": false,
      "t": 75142.91350000001,
      "d": 271.42877499999304,
      "v": 127
    },
    {
      "midi": 63,
      "hit": false,
      "t": 75428.628,
      "d": 1566.6678416666691,
      "v": 31
    },
    {
      "midi": 60,
      "hit": false,
      "t": 75428.628,
      "d": 2285.7160000000003,
      "v": 64
    },
    {
      "midi": 68,
      "hit": false,
      "t": 75428.628,
      "d": 2285.7160000000003,
      "v": 50
    },
    {
      "midi": 72,
      "hit": false,
      "t": 75428.628,
      "d": 2285.7160000000003,
      "v": 43
    },
    {
      "midi": 48,
      "hit": false,
      "t": 75428.628,
      "d": 271.42877499999304,
      "v": 127
    },
    {
      "midi": 75,
      "hit": false,
      "t": 75428.628,
      "d": 552.3813666666538,
      "v": 127
    },
    {
      "midi": 68,
      "hit": false,
      "t": 75428.628,
      "d": 561.9051833333069,
      "v": 127
    },
    {
      "midi": 72,
      "hit": false,
      "t": 75428.628,
      "d": 585.7147249999689,
      "v": 127
    },
    {
      "midi": 51,
      "hit": false,
      "t": 75714.34249999998,
      "d": 271.42877499999304,
      "v": 127
    },
    {
      "midi": 56,
      "hit": false,
      "t": 76000.05699999997,
      "d": 271.42877499999304,
      "v": 127
    },
    {
      "midi": 60,
      "hit": false,
      "t": 76285.77149999996,
      "d": 271.42877499999304,
      "v": 127
    },
    {
      "midi": 48,
      "hit": false,
      "t": 76571.48599999995,
      "d": 271.42877499999304,
      "v": 127
    },
    {
      "midi": 72,
      "hit": false,
      "t": 76571.48599999995,
      "d": 576.1909083333012,
      "v": 127
    },
    {
      "midi": 75,
      "hit": false,
      "t": 76571.48599999995,
      "d": 576.1909083333012,
      "v": 127
    },
    {
      "midi": 68,
      "hit": false,
      "t": 76571.48599999995,
      "d": 585.7147249999689,
      "v": 127
    },
    {
      "midi": 51,
      "hit": false,
      "t": 76857.20049999993,
      "d": 271.42877499999304,
      "v": 127
    },
    {
      "midi": 56,
      "hit": false,
      "t": 77142.91499999992,
      "d": 271.42877499999304,
      "v": 127
    },
    {
      "midi": 63,
      "hit": false,
      "t": 77142.915,
      "d": 571.4290000000037,
      "v": 54
    },
    {
      "midi": 60,
      "hit": false,
      "t": 77428.62949999991,
      "d": 271.42877499999304,
      "v": 127
    },
    {
      "midi": 62,
      "hit": false,
      "t": 77714.3439999999,
      "d": 542.8575500000006,
      "v": 127
    },
    {
      "midi": 69,
      "hit": false,
      "t": 77714.3439999999,
      "d": 542.8575500000006,
      "v": 127
    },
    {
      "midi": 74,
      "hit": false,
      "t": 77714.3439999999,
      "d": 542.8575500000006,
      "v": 127
    },
    {
      "midi": 47,
      "hit": false,
      "t": 77714.3439999999,
      "d": 1066.6674666666513,
      "v": 127
    },
    {
      "midi": 57,
      "hit": false,
      "t": 77714.3439999999,
      "d": 1114.2865499999898,
      "v": 127
    },
    {
      "midi": 59,
      "hit": false,
      "t": 77714.344,
      "d": 1142.8580000000075,
      "v": 52
    },
    {
      "midi": 66,
      "hit": false,
      "t": 77714.344,
      "d": 1142.8580000000075,
      "v": 73
    },
    {
      "midi": 69,
      "hit": false,
      "t": 77714.344,
      "d": 1142.8580000000075,
      "v": 58
    },
    {
      "midi": 72,
      "hit": false,
      "t": 78285.7729999999,
      "d": 271.42877499999304,
      "v": 127
    },
    {
      "midi": 62,
      "hit": false,
      "t": 78285.773,
      "d": 571.4290000000037,
      "v": 50
    },
    {
      "midi": 67,
      "hit": false,
      "t": 78571.48749999989,
      "d": 552.3813666666683,
      "v": 127
    },
    {
      "midi": 62,
      "hit": false,
      "t": 78571.48749999989,
      "d": 561.905183333336,
      "v": 127
    },
    {
      "midi": 71,
      "hit": false,
      "t": 78571.48749999989,
      "d": 561.905183333336,
      "v": 127
    },
    {
      "midi": 47,
      "hit": false,
      "t": 78857.20199999989,
      "d": 1138.0960916666518,
      "v": 127
    },
    {
      "midi": 55,
      "hit": false,
      "t": 78857.20199999989,
      "d": 1152.381816666646,
      "v": 127
    },
    {
      "midi": 59,
      "hit": false,
      "t": 78857.202,
      "d": 1142.8580000000075,
      "v": 52
    },
    {
      "midi": 67,
      "hit": false,
      "t": 78857.202,
      "d": 1142.8580000000075,
      "v": 73
    },
    {
      "midi": 71,
      "hit": false,
      "t": 78857.202,
      "d": 1142.8580000000075,
      "v": 58
    },
    {
      "midi": 72,
      "hit": false,
      "t": 79142.91649999989,
      "d": 271.42877499999304,
      "v": 127
    },
    {
      "midi": 74,
      "hit": false,
      "t": 79428.63099999988,
      "d": 542.8575500000006,
      "v": 127
    },
    {
      "midi": 62,
      "hit": false,
      "t": 79428.63100000001,
      "d": 571.4290000000037,
      "v": 50
    },
    {
      "midi": 57,
      "hit": false,
      "t": 80000.05999999987,
      "d": 1085.7151000000013,
      "v": 127
    },
    {
      "midi": 62,
      "hit": false,
      "t": 80000.05999999987,
      "d": 1085.7151000000013,
      "v": 127
    },
    {
      "midi": 69,
      "hit": false,
      "t": 80000.05999999987,
      "d": 1085.7151000000013,
      "v": 127
    },
    {
      "midi": 74,
      "hit": false,
      "t": 80000.05999999987,
      "d": 1085.7151000000013,
      "v": 127
    },
    {
      "midi": 46,
      "hit": false,
      "t": 80000.05999999987,
      "d": 2276.192183333347,
      "v": 127
    },
    {
      "midi": 57,
      "hit": false,
      "t": 80000.06000000001,
      "d": 1142.8580000000075,
      "v": 52
    },
    {
      "midi": 62,
      "hit": false,
      "t": 80000.06000000001,
      "d": 1142.8580000000075,
      "v": 73
    },
    {
      "midi": 65,
      "hit": false,
      "t": 80000.06000000001,
      "d": 1142.8580000000075,
      "v": 58
    },
    {
      "midi": 58,
      "hit": false,
      "t": 80571.48900000002,
      "d": 571.4290000000037,
      "v": 50
    },
    {
      "midi": 55,
      "hit": false,
      "t": 81142.91799999987,
      "d": 1085.7151000000013,
      "v": 127
    },
    {
      "midi": 62,
      "hit": false,
      "t": 81142.91799999987,
      "d": 1085.7151000000013,
      "v": 127
    },
    {
      "midi": 67,
      "hit": false,
      "t": 81142.91799999987,
      "d": 1085.7151000000013,
      "v": 127
    },
    {
      "midi": 55,
      "hit": false,
      "t": 81142.91800000002,
      "d": 1142.857999999993,
      "v": 67
    },
    {
      "midi": 62,
      "hit": false,
      "t": 81142.91800000002,
      "d": 1142.857999999993,
      "v": 63
    },
    {
      "midi": 60,
      "hit": false,
      "t": 82285.77599999988,
      "d": 542.8575500000006,
      "v": 127
    },
    {
      "midi": 67,
      "hit": false,
      "t": 82285.77599999988,
      "d": 542.8575500000006,
      "v": 127
    },
    {
      "midi": 72,
      "hit": false,
      "t": 82285.77599999988,
      "d": 542.8575500000006,
      "v": 127
    },
    {
      "midi": 55,
      "hit": false,
      "t": 82285.77599999988,
      "d": 2252.3826416666416,
      "v": 127
    },
    {
      "midi": 45,
      "hit": false,
      "t": 82285.77599999988,
      "d": 2290.477908333298,
      "v": 127
    },
    {
      "midi": 57,
      "hit": false,
      "t": 82285.77600000001,
      "d": 1566.6678416666691,
      "v": 31
    },
    {
      "midi": 55,
      "hit": false,
      "t": 82285.77600000001,
      "d": 2285.7160000000003,
      "v": 64
    },
    {
      "midi": 60,
      "hit": false,
      "t": 82285.77600000001,
      "d": 2285.7160000000003,
      "v": 50
    },
    {
      "midi": 64,
      "hit": false,
      "t": 82285.77600000001,
      "d": 2285.7160000000003,
      "v": 43
    },
    {
      "midi": 72,
      "hit": false,
      "t": 82857.20499999989,
      "d": 271.42877499999304,
      "v": 127
    },
    {
      "midi": 72,
      "hit": false,
      "t": 83142.91949999987,
      "d": 814.2863249999937,
      "v": 127
    },
    {
      "midi": 72,
      "hit": false,
      "t": 84000.06299999986,
      "d": 271.42877499999304,
      "v": 127
    },
    {
      "midi": 57,
      "hit": false,
      "t": 84000.06300000001,
      "d": 571.4290000000037,
      "v": 54
    },
    {
      "midi": 66,
      "hit": false,
      "t": 84285.77749999985,
      "d": 528.5718249999918,
      "v": 127
    },
    {
      "midi": 72,
      "hit": false,
      "t": 84285.77749999985,
      "d": 528.5718249999918,
      "v": 127
    },
    {
      "midi": 60,
      "hit": false,
      "t": 84285.77749999985,
      "d": 552.3813666666538,
      "v": 127
    },
    {
      "midi": 44,
      "hit": false,
      "t": 84571.49199999985,
      "d": 552.3813666666538,
      "v": 127
    },
    {
      "midi": 56,
      "hit": false,
      "t": 84571.49200000001,
      "d": 1404.7629583333328,
      "v": 51
    },
    {
      "midi": 60,
      "hit": false,
      "t": 84571.49200000001,
      "d": 2285.7160000000003,
      "v": 65
    },
    {
      "midi": 63,
      "hit": false,
      "t": 84571.49200000001,
      "d": 2285.7160000000003,
      "v": 39
    },
    {
      "midi": 66,
      "hit": false,
      "t": 84571.49200000001,
      "d": 2285.7160000000003,
      "v": 53
    },
    {
      "midi": 74,
      "hit": false,
      "t": 84857.20649999984,
      "d": 800.0005999999994,
      "v": 127
    },
    {
      "midi": 60,
      "hit": false,
      "t": 84857.20649999984,
      "d": 814.2863249999937,
      "v": 127
    },
    {
      "midi": 66,
      "hit": false,
      "t": 84857.20649999984,
      "d": 814.2863249999937,
      "v": 127
    },
    {
      "midi": 56,
      "hit": false,
      "t": 85142.92099999984,
      "d": 542.8575499999861,
      "v": 127
    },
    {
      "midi": 44,
      "hit": false,
      "t": 85714.34999999983,
      "d": 542.8575500000006,
      "v": 127
    },
    {
      "midi": 56,
      "hit": false,
      "t": 86285.77899999983,
      "d": 552.3813666666683,
      "v": 127
    },
    {
      "midi": 56,
      "hit": false,
      "t": 86285.77900000001,
      "d": 571.4290000000037,
      "v": 76
    },
    {
      "midi": 72,
      "hit": false,
      "t": 86571.49349999984,
      "d": 271.42877499999304,
      "v": 127
    },
    {
      "midi": 43,
      "hit": false,
      "t": 86857.20799999982,
      "d": 271.42877499999304,
      "v": 127
    },
    {
      "midi": 62,
      "hit": false,
      "t": 86857.20799999982,
      "d": 271.42877499999304,
      "v": 127
    },
    {
      "midi": 71,
      "hit": false,
      "t": 86857.20799999982,
      "d": 271.42877499999304,
      "v": 127
    },
    {
      "midi": 60,
      "hit": false,
      "t": 86857.20800000001,
      "d": 1142.8580000000075,
      "v": 52
    },
    {
      "midi": 67,
      "hit": false,
      "t": 86857.20800000001,
      "d": 1142.8580000000075,
      "v": 73
    },
    {
      "midi": 72,
      "hit": false,
      "t": 86857.20800000001,
      "d": 1142.8580000000075,
      "v": 58
    },
    {
      "midi": 50,
      "hit": false,
      "t": 87142.92249999981,
      "d": 271.42877499999304,
      "v": 127
    },
    {
      "midi": 69,
      "hit": false,
      "t": 87142.92249999981,
      "d": 271.42877499999304,
      "v": 127
    },
    {
      "midi": 55,
      "hit": false,
      "t": 87428.6369999998,
      "d": 271.42877499999304,
      "v": 127
    },
    {
      "midi": 67,
      "hit": false,
      "t": 87428.6369999998,
      "d": 271.42877499999304,
      "v": 127
    },
    {
      "midi": 62,
      "hit": false,
      "t": 87428.63700000002,
      "d": 571.4290000000037,
      "v": 50
    },
    {
      "midi": 50,
      "hit": false,
      "t": 87714.35149999979,
      "d": 271.42877499999304,
      "v": 127
    },
    {
      "midi": 59,
      "hit": false,
      "t": 87714.35149999979,
      "d": 819.0482333333057,
      "v": 127
    },
    {
      "midi": 67,
      "hit": false,
      "t": 87714.35149999979,
      "d": 833.3339583333,
      "v": 127
    },
    {
      "midi": 43,
      "hit": false,
      "t": 88000.06599999977,
      "d": 271.42877499999304,
      "v": 127
    },
    {
      "midi": 59,
      "hit": false,
      "t": 88000.06600000002,
      "d": 1142.857999999993,
      "v": 67
    },
    {
      "midi": 67,
      "hit": false,
      "t": 88000.06600000002,
      "d": 1142.857999999993,
      "v": 63
    },
    {
      "midi": 50,
      "hit": false,
      "t": 88285.78049999976,
      "d": 271.42877499999304,
      "v": 127
    },
    {
      "midi": 55,
      "hit": false,
      "t": 88571.49499999975,
      "d": 271.42877499999304,
      "v": 127
    },
    {
      "midi": 50,
      "hit": false,
      "t": 88857.20949999974,
      "d": 271.42877499999304,
      "v": 127
    },
    {
      "midi": 41,
      "hit": false,
      "t": 89142.92399999972,
      "d": 271.42877499999304,
      "v": 127
    },
    {
      "midi": 62,
      "hit": false,
      "t": 89142.92399999972,
      "d": 1114.2865499999607,
      "v": 127
    },
    {
      "midi": 69,
      "hit": false,
      "t": 89142.92399999972,
      "d": 1123.8103666666284,
      "v": 127
    },
    {
      "midi": 65,
      "hit": false,
      "t": 89142.92399999972,
      "d": 1152.3818166666315,
      "v": 127
    },
    {
      "midi": 57,
      "hit": false,
      "t": 89142.92400000001,
      "d": 1404.7629583333328,
      "v": 51
    },
    {
      "midi": 60,
      "hit": false,
      "t": 89142.92400000001,
      "d": 2285.7160000000003,
      "v": 65
    },
    {
      "midi": 62,
      "hit": false,
      "t": 89142.92400000001,
      "d": 2285.7160000000003,
      "v": 39
    },
    {
      "midi": 65,
      "hit": false,
      "t": 89142.92400000001,
      "d": 2285.7160000000003,
      "v": 53
    },
    {
      "midi": 50,
      "hit": false,
      "t": 89428.63849999971,
      "d": 271.42877499999304,
      "v": 127
    },
    {
      "midi": 53,
      "hit": false,
      "t": 89714.3529999997,
      "d": 271.42877499999304,
      "v": 127
    },
    {
      "midi": 57,
      "hit": false,
      "t": 90000.06749999968,
      "d": 842.8577749999968,
      "v": 127
    },
    {
      "midi": 71,
      "hit": false,
      "t": 90285.78199999969,
      "d": 542.8575500000006,
      "v": 127
    },
    {
      "midi": 41,
      "hit": false,
      "t": 90857.21099999968,
      "d": 542.8575500000006,
      "v": 127
    },
    {
      "midi": 72,
      "hit": false,
      "t": 90857.21099999968,
      "d": 542.8575500000006,
      "v": 127
    },
    {
      "midi": 57,
      "hit": false,
      "t": 90857.21100000001,
      "d": 571.4290000000037,
      "v": 76
    },
    {
      "midi": 62,
      "hit": false,
      "t": 91428.63999999968,
      "d": 271.42877499999304,
      "v": 127
    },
    {
      "midi": 67,
      "hit": false,
      "t": 91428.63999999968,
      "d": 271.42877499999304,
      "v": 127
    },
    {
      "midi": 40,
      "hit": false,
      "t": 91428.63999999968,
      "d": 1152.381816666617,
      "v": 127
    },
    {
      "midi": 55,
      "hit": false,
      "t": 91714.35449999967,
      "d": 271.42877499999304,
      "v": 127
    },
    {
      "midi": 62,
      "hit": false,
      "t": 92000.06899999965,
      "d": 271.42877499999304,
      "v": 127
    },
    {
      "midi": 67,
      "hit": false,
      "t": 92285.78349999964,
      "d": 271.42877499999304,
      "v": 127
    },
    {
      "midi": 60,
      "hit": false,
      "t": 92571.49799999963,
      "d": 271.4287750000076,
      "v": 127
    },
    {
      "midi": 52,
      "hit": false,
      "t": 92571.49799999963,
      "d": 1138.0960916666372,
      "v": 127
    },
    {
      "midi": 55,
      "hit": false,
      "t": 92857.21249999963,
      "d": 271.42877499999304,
      "v": 127
    },
    {
      "midi": 60,
      "hit": false,
      "t": 93142.92699999962,
      "d": 271.42877499999304,
      "v": 127
    },
    {
      "midi": 67,
      "hit": false,
      "t": 93428.6414999996,
      "d": 271.42877499999304,
      "v": 127
    },
    {
      "midi": 67,
      "hit": false,
      "t": 93714.35599999959,
      "d": 271.42877499999304,
      "v": 127
    },
    {
      "midi": 39,
      "hit": false,
      "t": 93714.35599999959,
      "d": 1152.381816666617,
      "v": 127
    },
    {
      "midi": 55,
      "hit": false,
      "t": 94000.07049999958,
      "d": 271.42877499999304,
      "v": 127
    },
    {
      "midi": 59,
      "hit": false,
      "t": 94285.78499999957,
      "d": 271.42877499999304,
      "v": 127
    },
    {
      "midi": 60,
      "hit": false,
      "t": 94571.49949999955,
      "d": 271.42877499999304,
      "v": 127
    },
    {
      "midi": 60,
      "hit": false,
      "t": 94857.21399999954,
      "d": 271.4287750000076,
      "v": 127
    },
    {
      "midi": 51,
      "hit": false,
      "t": 94857.21399999954,
      "d": 1138.0960916666372,
      "v": 127
    },
    {
      "midi": 55,
      "hit": false,
      "t": 95142.92849999954,
      "d": 271.42877499999304,
      "v": 127
    },
    {
      "midi": 60,
      "hit": false,
      "t": 95428.64299999953,
      "d": 271.42877499999304,
      "v": 127
    },
    {
      "midi": 67,
      "hit": false,
      "t": 95714.35749999952,
      "d": 271.42877499999304,
      "v": 127
    },
    {
      "midi": 45,
      "hit": false,
      "t": 96000.0719999995,
      "d": 1123.810366666643,
      "v": 127
    },
    {
      "midi": 71,
      "hit": false,
      "t": 96000.0719999995,
      "d": 1480.9534916666162,
      "v": 127
    },
    {
      "midi": 59,
      "hit": false,
      "t": 96285.7864999995,
      "d": 271.42877499999304,
      "v": 127
    },
    {
      "midi": 60,
      "hit": false,
      "t": 96571.5009999995,
      "d": 271.42877499999304,
      "v": 127
    },
    {
      "midi": 64,
      "hit": false,
      "t": 96857.21549999948,
      "d": 271.42877499999304,
      "v": 127
    },
    {
      "midi": 60,
      "hit": false,
      "t": 97142.92999999947,
      "d": 271.42877499999304,
      "v": 127
    },
    {
      "midi": 52,
      "hit": false,
      "t": 97142.92999999947,
      "d": 1138.0960916666372,
      "v": 127
    },
    {
      "midi": 59,
      "hit": false,
      "t": 97428.64449999946,
      "d": 271.42877499999304,
      "v": 127
    },
    {
      "midi": 71,
      "hit": false,
      "t": 97714.35899999944,
      "d": 1104.762733333322,
      "v": 127
    },
    {
      "midi": 60,
      "hit": false,
      "t": 98000.07349999945,
      "d": 271.42877499999304,
      "v": 127
    },
    {
      "midi": 45,
      "hit": false,
      "t": 98285.78799999943,
      "d": 1114.2865499999898,
      "v": 127
    },
    {
      "midi": 64,
      "hit": false,
      "t": 98571.50249999943,
      "d": 271.42877499999304,
      "v": 127
    },
    {
      "midi": 72,
      "hit": false,
      "t": 98857.21699999942,
      "d": 547.6194583333272,
      "v": 127
    },
    {
      "midi": 64,
      "hit": false,
      "t": 99142.93149999942,
      "d": 271.42877499999304,
      "v": 127
    },
    {
      "midi": 74,
      "hit": false,
      "t": 99428.64599999941,
      "d": 509.52419166667096,
      "v": 127
    },
    {
      "midi": 52,
      "hit": false,
      "t": 99428.64599999941,
      "d": 1114.2865500000044,
      "v": 127
    },
    {
      "midi": 64,
      "hit": false,
      "t": 99714.36049999941,
      "d": 271.4287750000076,
      "v": 127
    },
    {
      "midi": 76,
      "hit": false,
      "t": 100000.07499999942,
      "d": 557.1432749999949,
      "v": 127
    },
    {
      "midi": 64,
      "hit": false,
      "t": 100285.78949999942,
      "d": 271.42877499999304,
      "v": 127
    },
    {
      "midi": 69,
      "hit": false,
      "t": 100571.5039999994,
      "d": 1123.810366666643,
      "v": 127
    },
    {
      "midi": 40,
      "hit": false,
      "t": 100571.5039999994,
      "d": 1152.3818166666315,
      "v": 127
    },
    {
      "midi": 59,
      "hit": false,
      "t": 100857.2184999994,
      "d": 271.42877499999304,
      "v": 127
    },
    {
      "midi": 62,
      "hit": false,
      "t": 101142.9329999994,
      "d": 271.42877499999304,
      "v": 127
    },
    {
      "midi": 66,
      "hit": false,
      "t": 101428.64749999938,
      "d": 271.42877499999304,
      "v": 127
    },
    {
      "midi": 66,
      "hit": false,
      "t": 101714.36199999937,
      "d": 271.4287750000076,
      "v": 127
    },
    {
      "midi": 52,
      "hit": false,
      "t": 101714.36199999937,
      "d": 1123.810366666643,
      "v": 127
    },
    {
      "midi": 59,
      "hit": false,
      "t": 102000.07649999937,
      "d": 271.42877499999304,
      "v": 127
    },
    {
      "midi": 62,
      "hit": false,
      "t": 102285.79099999936,
      "d": 271.42877499999304,
      "v": 127
    },
    {
      "midi": 66,
      "hit": false,
      "t": 102571.50549999934,
      "d": 271.42877499999304,
      "v": 127
    },
    {
      "midi": 69,
      "hit": false,
      "t": 102571.50549999934,
      "d": 271.42877499999304,
      "v": 127
    },
    {
      "midi": 66,
      "hit": false,
      "t": 102857.21999999933,
      "d": 271.42877499999304,
      "v": 127
    },
    {
      "midi": 69,
      "hit": false,
      "t": 102857.21999999933,
      "d": 271.42877499999304,
      "v": 127
    },
    {
      "midi": 40,
      "hit": false,
      "t": 102857.21999999933,
      "d": 1176.1913583332935,
      "v": 127
    },
    {
      "midi": 59,
      "hit": false,
      "t": 103142.93449999932,
      "d": 271.42877499999304,
      "v": 127
    },
    {
      "midi": 62,
      "hit": false,
      "t": 103428.6489999993,
      "d": 271.42877499999304,
      "v": 127
    },
    {
      "midi": 62,
      "hit": false,
      "t": 103714.3634999993,
      "d": 561.905183333336,
      "v": 127
    },
    {
      "midi": 66,
      "hit": false,
      "t": 103714.3634999993,
      "d": 576.1909083333303,
      "v": 127
    },
    {
      "midi": 52,
      "hit": false,
      "t": 104000.0779999993,
      "d": 561.9051833333215,
      "v": 127
    },
    {
      "midi": 59,
      "hit": false,
      "t": 104285.7924999993,
      "d": 271.42877499999304,
      "v": 127
    },
    {
      "midi": 62,
      "hit": false,
      "t": 104571.50699999928,
      "d": 271.42877499999304,
      "v": 127
    },
    {
      "midi": 47,
      "hit": false,
      "t": 104571.50699999928,
      "d": 585.7147249999689,
      "v": 127
    },
    {
      "midi": 59,
      "hit": false,
      "t": 104857.22149999927,
      "d": 271.42877499999304,
      "v": 127
    },
    {
      "midi": 71,
      "hit": false,
      "t": 105142.93599999926,
      "d": 738.0957916666375,
      "v": 127
    },
    {
      "midi": 45,
      "hit": false,
      "t": 105142.93599999926,
      "d": 1138.0960916666227,
      "v": 127
    },
    {
      "midi": 59,
      "hit": false,
      "t": 105428.65049999925,
      "d": 271.42877499999304,
      "v": 127
    },
    {
      "midi": 60,
      "hit": false,
      "t": 105714.36499999923,
      "d": 271.42877499999304,
      "v": 127
    },
    {
      "midi": 71,
      "hit": false,
      "t": 106000.07949999922,
      "d": 1980.9538666666049,
      "v": 127
    },
    {
      "midi": 52,
      "hit": false,
      "t": 106285.79399999921,
      "d": 1123.810366666643,
      "v": 127
    },
    {
      "midi": 59,
      "hit": false,
      "t": 106571.50849999921,
      "d": 271.42877499999304,
      "v": 127
    },
    {
      "midi": 60,
      "hit": false,
      "t": 106857.2229999992,
      "d": 271.42877499999304,
      "v": 127
    },
    {
      "midi": 64,
      "hit": false,
      "t": 107142.93749999919,
      "d": 271.42877499999304,
      "v": 127
    },
    {
      "midi": 67,
      "hit": false,
      "t": 107428.65199999917,
      "d": 271.42877499999304,
      "v": 127
    },
    {
      "midi": 45,
      "hit": false,
      "t": 107428.65199999917,
      "d": 1123.8103666666284,
      "v": 127
    },
    {
      "midi": 59,
      "hit": false,
      "t": 107714.36649999916,
      "d": 271.42877499999304,
      "v": 127
    },
    {
      "midi": 69,
      "hit": false,
      "t": 108000.08099999915,
      "d": 271.42877499999304,
      "v": 127
    },
    {
      "midi": 72,
      "hit": false,
      "t": 108000.08099999915,
      "d": 490.476558333321,
      "v": 127
    },
    {
      "midi": 60,
      "hit": false,
      "t": 108285.79549999913,
      "d": 271.42877499999304,
      "v": 127
    },
    {
      "midi": 71,
      "hit": false,
      "t": 108571.50999999912,
      "d": 271.42877499999304,
      "v": 127
    },
    {
      "midi": 74,
      "hit": false,
      "t": 108571.50999999912,
      "d": 490.476558333321,
      "v": 127
    },
    {
      "midi": 52,
      "hit": false,
      "t": 108571.50999999912,
      "d": 1152.3818166666315,
      "v": 127
    },
    {
      "midi": 62,
      "hit": false,
      "t": 108857.22449999911,
      "d": 271.4287750000076,
      "v": 127
    },
    {
      "midi": 72,
      "hit": false,
      "t": 109142.93899999911,
      "d": 271.42877499999304,
      "v": 127
    },
    {
      "midi": 76,
      "hit": false,
      "t": 109142.93899999911,
      "d": 561.9051833333069,
      "v": 127
    },
    {
      "midi": 66,
      "hit": false,
      "t": 109428.6534999991,
      "d": 271.42877499999304,
      "v": 127
    },
    {
      "midi": 78,
      "hit": false,
      "t": 109714.36799999909,
      "d": 561.9051833333215,
      "v": 127
    },
    {
      "midi": 40,
      "hit": false,
      "t": 109714.36799999909,
      "d": 1123.810366666643,
      "v": 127
    },
    {
      "midi": 59,
      "hit": false,
      "t": 110000.08249999909,
      "d": 271.42877499999304,
      "v": 127
    },
    {
      "midi": 62,
      "hit": false,
      "t": 110285.79699999907,
      "d": 271.42877499999304,
      "v": 127
    },
    {
      "midi": 66,
      "hit": false,
      "t": 110571.51149999906,
      "d": 271.42877499999304,
      "v": 127
    },
    {
      "midi": 71,
      "hit": false,
      "t": 110857.22599999905,
      "d": 271.42877499999304,
      "v": 127
    },
    {
      "midi": 52,
      "hit": false,
      "t": 110857.22599999905,
      "d": 1138.0960916666227,
      "v": 127
    },
    {
      "midi": 62,
      "hit": false,
      "t": 111142.94049999904,
      "d": 271.42877499999304,
      "v": 127
    },
    {
      "midi": 66,
      "hit": false,
      "t": 111142.94049999904,
      "d": 271.42877499999304,
      "v": 127
    },
    {
      "midi": 66,
      "hit": false,
      "t": 111428.65499999902,
      "d": 271.42877499999304,
      "v": 127
    },
    {
      "midi": 71,
      "hit": false,
      "t": 111428.65499999902,
      "d": 271.42877499999304,
      "v": 127
    },
    {
      "midi": 74,
      "hit": false,
      "t": 111714.36949999901,
      "d": 271.42877499999304,
      "v": 127
    },
    {
      "midi": 72,
      "hit": false,
      "t": 112000.083999999,
      "d": 271.42877499999304,
      "v": 127
    },
    {
      "midi": 81,
      "hit": false,
      "t": 112000.083999999,
      "d": 966.6673916666332,
      "v": 127
    },
    {
      "midi": 40,
      "hit": false,
      "t": 112000.083999999,
      "d": 1152.3818166666315,
      "v": 127
    },
    {
      "midi": 69,
      "hit": false,
      "t": 112285.79849999899,
      "d": 271.42877499999304,
      "v": 127
    },
    {
      "midi": 71,
      "hit": false,
      "t": 112571.51299999897,
      "d": 271.42877499999304,
      "v": 127
    },
    {
      "midi": 74,
      "hit": false,
      "t": 112857.22749999896,
      "d": 552.3813666666683,
      "v": 127
    },
    {
      "midi": 71,
      "hit": false,
      "t": 113142.94199999896,
      "d": 271.42877499999304,
      "v": 127
    },
    {
      "midi": 52,
      "hit": false,
      "t": 113142.94199999896,
      "d": 1114.2865499999607,
      "v": 127
    },
    {
      "midi": 78,
      "hit": false,
      "t": 113428.65649999895,
      "d": 271.42877499999304,
      "v": 127
    },
    {
      "midi": 69,
      "hit": false,
      "t": 113714.37099999894,
      "d": 271.42877499999304,
      "v": 127
    },
    {
      "midi": 71,
      "hit": false,
      "t": 114000.08549999892,
      "d": 271.42877499999304,
      "v": 127
    },
    {
      "midi": 79,
      "hit": false,
      "t": 114285.79999999891,
      "d": 2214.2873749999126,
      "v": 127
    },
    {
      "midi": 31,
      "hit": false,
      "t": 114285.79999999891,
      "d": 2238.0969166665745,
      "v": 127
    },
    {
      "midi": 67,
      "hit": false,
      "t": 114571.51449999891,
      "d": 271.42877499999304,
      "v": 127
    },
    {
      "midi": 72,
      "hit": false,
      "t": 114857.2289999989,
      "d": 271.42877499999304,
      "v": 127
    },
    {
      "midi": 74,
      "hit": false,
      "t": 115142.94349999889,
      "d": 271.42877499999304,
      "v": 127
    },
    {
      "midi": 67,
      "hit": false,
      "t": 115428.65799999888,
      "d": 271.42877499999304,
      "v": 127
    },
    {
      "midi": 72,
      "hit": false,
      "t": 115714.37249999886,
      "d": 271.42877499999304,
      "v": 127
    },
    {
      "midi": 74,
      "hit": false,
      "t": 116000.08699999885,
      "d": 138.0953416666598,
      "v": 127
    },
    {
      "midi": 72,
      "hit": false,
      "t": 116142.94424999884,
      "d": 271.42877499999304,
      "v": 127
    },
    {
      "midi": 67,
      "hit": false,
      "t": 116428.65874999882,
      "d": 138.0953416666598,
      "v": 127
    },
    {
      "midi": 79,
      "hit": false,
      "t": 116571.51599999881,
      "d": 2214.287374999927,
      "v": 127
    },
    {
      "midi": 31,
      "hit": false,
      "t": 116571.51599999881,
      "d": 2252.382641666598,
      "v": 127
    },
    {
      "midi": 67,
      "hit": false,
      "t": 116857.23049999881,
      "d": 271.42877499999304,
      "v": 127
    },
    {
      "midi": 72,
      "hit": false,
      "t": 117142.9449999988,
      "d": 271.42877499999304,
      "v": 127
    },
    {
      "midi": 74,
      "hit": false,
      "t": 117428.65949999879,
      "d": 271.42877499999304,
      "v": 127
    },
    {
      "midi": 67,
      "hit": false,
      "t": 117714.37399999877,
      "d": 271.42877499999304,
      "v": 127
    },
    {
      "midi": 72,
      "hit": false,
      "t": 118000.08849999876,
      "d": 271.42877499999304,
      "v": 127
    },
    {
      "midi": 74,
      "hit": false,
      "t": 118285.80299999875,
      "d": 271.42877499999304,
      "v": 127
    },
    {
      "midi": 67,
      "hit": false,
      "t": 118571.51749999874,
      "d": 271.4287750000076,
      "v": 127
    },
    {
      "midi": 31,
      "hit": false,
      "t": 118857.23199999874,
      "d": 2214.2873749999126,
      "v": 127
    },
    {
      "midi": 79,
      "hit": false,
      "t": 118857.23199999874,
      "d": 2238.0969166665745,
      "v": 127
    },
    {
      "midi": 67,
      "hit": false,
      "t": 119142.94649999874,
      "d": 271.42877499999304,
      "v": 127
    },
    {
      "midi": 72,
      "hit": false,
      "t": 119428.66099999873,
      "d": 271.42877499999304,
      "v": 127
    },
    {
      "midi": 74,
      "hit": false,
      "t": 119714.37549999871,
      "d": 271.42877499999304,
      "v": 127
    },
    {
      "midi": 67,
      "hit": false,
      "t": 120000.0899999987,
      "d": 271.42877499999304,
      "v": 127
    },
    {
      "midi": 72,
      "hit": false,
      "t": 120285.80449999869,
      "d": 271.42877499999304,
      "v": 127
    },
    {
      "midi": 74,
      "hit": false,
      "t": 120571.51899999868,
      "d": 138.0953416666598,
      "v": 127
    },
    {
      "midi": 72,
      "hit": false,
      "t": 120714.37624999866,
      "d": 271.42877499999304,
      "v": 127
    },
    {
      "midi": 67,
      "hit": false,
      "t": 121000.09074999865,
      "d": 138.0953416666598,
      "v": 127
    },
    {
      "midi": 79,
      "hit": false,
      "t": 121142.94799999864,
      "d": 2261.9064583332656,
      "v": 127
    },
    {
      "midi": 31,
      "hit": false,
      "t": 121142.94799999864,
      "d": 2276.19218333326,
      "v": 127
    },
    {
      "midi": 67,
      "hit": false,
      "t": 121428.66249999864,
      "d": 271.42877499999304,
      "v": 127
    },
    {
      "midi": 72,
      "hit": false,
      "t": 121714.37699999863,
      "d": 271.42877499999304,
      "v": 127
    },
    {
      "midi": 74,
      "hit": false,
      "t": 122000.09149999861,
      "d": 271.42877499999304,
      "v": 127
    },
    {
      "midi": 67,
      "hit": false,
      "t": 122285.8059999986,
      "d": 271.42877499999304,
      "v": 127
    },
    {
      "midi": 72,
      "hit": false,
      "t": 122571.52049999859,
      "d": 271.42877499999304,
      "v": 127
    },
    {
      "midi": 74,
      "hit": false,
      "t": 122857.23499999857,
      "d": 271.42877499999304,
      "v": 127
    },
    {
      "midi": 67,
      "hit": false,
      "t": 123142.94949999856,
      "d": 271.4287750000076,
      "v": 127
    },
    {
      "midi": 36,
      "hit": false,
      "t": 123428.66399999856,
      "d": 271.42877499999304,
      "v": 127
    },
    {
      "midi": 65,
      "hit": false,
      "t": 123428.66399999856,
      "d": 1100.0008249999664,
      "v": 127
    },
    {
      "midi": 55,
      "hit": false,
      "t": 123428.66400000002,
      "d": 1142.857999999993,
      "v": 67
    },
    {
      "midi": 65,
      "hit": false,
      "t": 123428.66400000002,
      "d": 1142.857999999993,
      "v": 63
    },
    {
      "midi": 43,
      "hit": false,
      "t": 123714.37849999855,
      "d": 271.42877499999304,
      "v": 127
    },
    {
      "midi": 48,
      "hit": false,
      "t": 124000.09299999854,
      "d": 271.42877499999304,
      "v": 127
    },
    {
      "midi": 52,
      "hit": false,
      "t": 124285.80749999853,
      "d": 538.095641666674,
      "v": 127
    },
    {
      "midi": 60,
      "hit": false,
      "t": 124571.52199999853,
      "d": 271.4287750000076,
      "v": 127
    },
    {
      "midi": 64,
      "hit": false,
      "t": 124571.52199999853,
      "d": 271.4287750000076,
      "v": 127
    },
    {
      "midi": 55,
      "hit": false,
      "t": 124571.52200000001,
      "d": 1142.8580000000075,
      "v": 52
    },
    {
      "midi": 64,
      "hit": false,
      "t": 124571.52200000001,
      "d": 1142.8580000000075,
      "v": 73
    },
    {
      "midi": 67,
      "hit": false,
      "t": 124571.52200000001,
      "d": 1142.8580000000075,
      "v": 58
    },
    {
      "midi": 48,
      "hit": false,
      "t": 124857.23649999853,
      "d": 271.42877499999304,
      "v": 127
    },
    {
      "midi": 67,
      "hit": false,
      "t": 124857.23649999853,
      "d": 271.42877499999304,
      "v": 127
    },
    {
      "midi": 48,
      "hit": false,
      "t": 125142.95099999852,
      "d": 271.42877499999304,
      "v": 127
    },
    {
      "midi": 62,
      "hit": false,
      "t": 125142.95099999852,
      "d": 809.524416666638,
      "v": 127
    },
    {
      "midi": 66,
      "hit": false,
      "t": 125142.95099999852,
      "d": 842.8577749999677,
      "v": 127
    },
    {
      "midi": 60,
      "hit": false,
      "t": 125142.95100000002,
      "d": 571.4290000000037,
      "v": 50
    },
    {
      "midi": 43,
      "hit": false,
      "t": 125428.6654999985,
      "d": 271.42877499999304,
      "v": 127
    },
    {
      "midi": 38,
      "hit": false,
      "t": 125714.37999999849,
      "d": 271.42877499999304,
      "v": 127
    },
    {
      "midi": 57,
      "hit": false,
      "t": 125714.38000000002,
      "d": 1142.857999999993,
      "v": 67
    },
    {
      "midi": 67,
      "hit": false,
      "t": 125714.38000000002,
      "d": 1142.857999999993,
      "v": 63
    },
    {
      "midi": 45,
      "hit": false,
      "t": 126000.09449999848,
      "d": 271.42877499999304,
      "v": 127
    },
    {
      "midi": 62,
      "hit": false,
      "t": 126000.09449999848,
      "d": 614.286174999972,
      "v": 127
    },
    {
      "midi": 50,
      "hit": false,
      "t": 126285.80899999847,
      "d": 271.42877499999304,
      "v": 127
    },
    {
      "midi": 45,
      "hit": false,
      "t": 126571.52349999845,
      "d": 271.42877499999304,
      "v": 127
    },
    {
      "midi": 50,
      "hit": false,
      "t": 126857.23799999844,
      "d": 271.42877499999304,
      "v": 127
    },
    {
      "midi": 66,
      "hit": false,
      "t": 126857.23799999844,
      "d": 271.42877499999304,
      "v": 127
    },
    {
      "midi": 57,
      "hit": false,
      "t": 126857.23800000001,
      "d": 1142.857999999993,
      "v": 67
    },
    {
      "midi": 66,
      "hit": false,
      "t": 126857.23800000001,
      "d": 1142.857999999993,
      "v": 63
    },
    {
      "midi": 45,
      "hit": false,
      "t": 127142.95249999843,
      "d": 271.42877499999304,
      "v": 127
    },
    {
      "midi": 50,
      "hit": false,
      "t": 127428.66699999842,
      "d": 271.42877499999304,
      "v": 127
    },
    {
      "midi": 62,
      "hit": false,
      "t": 127428.66699999842,
      "d": 271.42877499999304,
      "v": 127
    },
    {
      "midi": 45,
      "hit": false,
      "t": 127714.3814999984,
      "d": 271.42877499999304,
      "v": 127
    },
    {
      "midi": 62,
      "hit": false,
      "t": 128000.09599999839,
      "d": 542.8575500000006,
      "v": 127
    },
    {
      "midi": 70,
      "hit": false,
      "t": 128000.09599999839,
      "d": 542.8575500000006,
      "v": 127
    },
    {
      "midi": 39,
      "hit": false,
      "t": 128000.09599999839,
      "d": 1152.3818166666606,
      "v": 127
    },
    {
      "midi": 58,
      "hit": false,
      "t": 128000.096,
      "d": 1566.6678416666691,
      "v": 31
    },
    {
      "midi": 55,
      "hit": false,
      "t": 128000.096,
      "d": 2285.7160000000003,
      "v": 64
    },
    {
      "midi": 62,
      "hit": false,
      "t": 128000.096,
      "d": 2285.7160000000003,
      "v": 50
    },
    {
      "midi": 65,
      "hit": false,
      "t": 128000.096,
      "d": 2285.7160000000003,
      "v": 43
    },
    {
      "midi": 65,
      "hit": false,
      "t": 128571.5249999984,
      "d": 271.42877499999304,
      "v": 127
    },
    {
      "midi": 69,
      "hit": false,
      "t": 128571.5249999984,
      "d": 271.42877499999304,
      "v": 127
    },
    {
      "midi": 63,
      "hit": false,
      "t": 128857.23949999838,
      "d": 561.905183333336,
      "v": 127
    },
    {
      "midi": 67,
      "hit": false,
      "t": 128857.23949999838,
      "d": 561.905183333336,
      "v": 127
    },
    {
      "midi": 51,
      "hit": false,
      "t": 129142.95399999838,
      "d": 1138.0960916666518,
      "v": 127
    },
    {
      "midi": 67,
      "hit": false,
      "t": 129714.38299999839,
      "d": 271.42877499999304,
      "v": 127
    },
    {
      "midi": 70,
      "hit": false,
      "t": 129714.38299999839,
      "d": 271.42877499999304,
      "v": 127
    },
    {
      "midi": 58,
      "hit": false,
      "t": 129714.383,
      "d": 571.4290000000037,
      "v": 54
    },
    {
      "midi": 65,
      "hit": false,
      "t": 130000.09749999837,
      "d": 528.5718249999918,
      "v": 127
    },
    {
      "midi": 69,
      "hit": false,
      "t": 130000.09749999837,
      "d": 561.9051833333215,
      "v": 127
    },
    {
      "midi": 38,
      "hit": false,
      "t": 130285.81199999836,
      "d": 271.4287750000076,
      "v": 127
    },
    {
      "midi": 57,
      "hit": false,
      "t": 130285.812,
      "d": 1404.7629583333328,
      "v": 51
    },
    {
      "midi": 60,
      "hit": false,
      "t": 130285.812,
      "d": 2285.716000000015,
      "v": 65
    },
    {
      "midi": 62,
      "hit": false,
      "t": 130285.812,
      "d": 2285.716000000015,
      "v": 39
    },
    {
      "midi": 65,
      "hit": false,
      "t": 130285.812,
      "d": 2285.716000000015,
      "v": 53
    },
    {
      "midi": 45,
      "hit": false,
      "t": 130571.52649999836,
      "d": 271.42877499999304,
      "v": 127
    },
    {
      "midi": 65,
      "hit": false,
      "t": 130571.52649999836,
      "d": 576.1909083333303,
      "v": 127
    },
    {
      "midi": 60,
      "hit": false,
      "t": 130571.52649999836,
      "d": 585.7147249999834,
      "v": 127
    },
    {
      "midi": 50,
      "hit": false,
      "t": 130857.24099999835,
      "d": 271.4287750000076,
      "v": 127
    },
    {
      "midi": 53,
      "hit": false,
      "t": 131142.95549999835,
      "d": 271.4287750000076,
      "v": 127
    },
    {
      "midi": 60,
      "hit": false,
      "t": 131428.66999999835,
      "d": 271.4287750000076,
      "v": 127
    },
    {
      "midi": 50,
      "hit": false,
      "t": 131428.66999999835,
      "d": 1152.3818166666606,
      "v": 127
    },
    {
      "midi": 67,
      "hit": false,
      "t": 131714.38449999836,
      "d": 271.4287750000076,
      "v": 127
    },
    {
      "midi": 63,
      "hit": false,
      "t": 132000.09899999836,
      "d": 271.4287750000076,
      "v": 127
    },
    {
      "midi": 57,
      "hit": false,
      "t": 132000.09900000002,
      "d": 571.4290000000037,
      "v": 76
    },
    {
      "midi": 60,
      "hit": false,
      "t": 132285.81349999836,
      "d": 271.4287750000076,
      "v": 127
    },
    {
      "midi": 62,
      "hit": false,
      "t": 132571.52799999836,
      "d": 271.4287749999785,
      "v": 127
    },
    {
      "midi": 67,
      "hit": false,
      "t": 132571.52799999836,
      "d": 271.4287749999785,
      "v": 127
    },
    {
      "midi": 70,
      "hit": false,
      "t": 132571.52799999836,
      "d": 271.4287749999785,
      "v": 127
    },
    {
      "midi": 39,
      "hit": false,
      "t": 132571.52799999836,
      "d": 1138.0960916666081,
      "v": 127
    },
    {
      "midi": 51,
      "hit": false,
      "t": 132571.52800000002,
      "d": 1228.5723500000022,
      "v": 51
    },
    {
      "midi": 55,
      "hit": false,
      "t": 132571.52800000002,
      "d": 1433.3344083333504,
      "v": 59
    },
    {
      "midi": 58,
      "hit": false,
      "t": 132571.52800000002,
      "d": 1623.8107416666753,
      "v": 49
    },
    {
      "midi": 62,
      "hit": false,
      "t": 132571.52800000002,
      "d": 2285.716000000015,
      "v": 56
    },
    {
      "midi": 65,
      "hit": false,
      "t": 132857.24249999833,
      "d": 542.8575499999861,
      "v": 127
    },
    {
      "midi": 69,
      "hit": false,
      "t": 132857.24249999833,
      "d": 542.8575499999861,
      "v": 127
    },
    {
      "midi": 67,
      "hit": false,
      "t": 133428.6714999983,
      "d": 514.2860999999975,
      "v": 127
    },
    {
      "midi": 63,
      "hit": false,
      "t": 133428.6714999983,
      "d": 561.9051833333215,
      "v": 127
    },
    {
      "midi": 51,
      "hit": false,
      "t": 133714.3859999983,
      "d": 1138.0960916666081,
      "v": 127
    },
    {
      "midi": 67,
      "hit": false,
      "t": 134000.10049999828,
      "d": 542.8575499999861,
      "v": 127
    },
    {
      "midi": 70,
      "hit": false,
      "t": 134000.10049999828,
      "d": 542.8575499999861,
      "v": 127
    },
    {
      "midi": 51,
      "hit": false,
      "t": 134000.10050000003,
      "d": 857.1435000000056,
      "v": 49
    },
    {
      "midi": 55,
      "hit": false,
      "t": 134285.81500000003,
      "d": 571.4290000000037,
      "v": 62
    },
    {
      "midi": 69,
      "hit": false,
      "t": 134571.52949999826,
      "d": 538.095641666674,
      "v": 127
    },
    {
      "midi": 72,
      "hit": false,
      "t": 134571.52949999826,
      "d": 552.3813666666683,
      "v": 127
    },
    {
      "midi": 65,
      "hit": false,
      "t": 134571.52949999826,
      "d": 576.1909083333449,
      "v": 127
    },
    {
      "midi": 58,
      "hit": false,
      "t": 134571.52950000003,
      "d": 285.71450000000186,
      "v": 51
    },
    {
      "midi": 38,
      "hit": false,
      "t": 134857.24399999826,
      "d": 1209.5247166666668,
      "v": 127
    },
    {
      "midi": 57,
      "hit": false,
      "t": 134857.24400000004,
      "d": 1404.7629583333328,
      "v": 51
    },
    {
      "midi": 60,
      "hit": false,
      "t": 134857.24400000004,
      "d": 2285.716000000015,
      "v": 65
    },
    {
      "midi": 62,
      "hit": false,
      "t": 134857.24400000004,
      "d": 2285.716000000015,
      "v": 39
    },
    {
      "midi": 65,
      "hit": false,
      "t": 134857.24400000004,
      "d": 2285.716000000015,
      "v": 53
    },
    {
      "midi": 70,
      "hit": false,
      "t": 135142.95849999826,
      "d": 552.3813666666683,
      "v": 127
    },
    {
      "midi": 65,
      "hit": false,
      "t": 136000.10199999827,
      "d": 542.8575499999861,
      "v": 127
    },
    {
      "midi": 69,
      "hit": false,
      "t": 136000.10199999827,
      "d": 542.8575499999861,
      "v": 127
    },
    {
      "midi": 50,
      "hit": false,
      "t": 136000.10199999827,
      "d": 1138.0960916666372,
      "v": 127
    },
    {
      "midi": 72,
      "hit": false,
      "t": 136571.53099999824,
      "d": 542.8575499999861,
      "v": 127
    },
    {
      "midi": 57,
      "hit": false,
      "t": 136571.53100000005,
      "d": 571.4290000000037,
      "v": 76
    },
    {
      "midi": 69,
      "hit": false,
      "t": 137142.95999999825,
      "d": 271.4287750000076,
      "v": 127
    },
    {
      "midi": 72,
      "hit": false,
      "t": 137142.95999999825,
      "d": 271.4287750000076,
      "v": 127
    },
    {
      "midi": 43,
      "hit": false,
      "t": 137142.95999999825,
      "d": 1100.0008249999955,
      "v": 127
    },
    {
      "midi": 60,
      "hit": false,
      "t": 137142.96000000005,
      "d": 1142.8580000000075,
      "v": 67
    },
    {
      "midi": 67,
      "hit": false,
      "t": 137142.96000000005,
      "d": 1142.8580000000075,
      "v": 63
    },
    {
      "midi": 62,
      "hit": false,
      "t": 137428.67449999825,
      "d": 271.4287750000076,
      "v": 127
    },
    {
      "midi": 67,
      "hit": false,
      "t": 137714.38899999825,
      "d": 271.4287750000076,
      "v": 127
    },
    {
      "midi": 72,
      "hit": false,
      "t": 138000.10349999825,
      "d": 271.4287749999785,
      "v": 127
    },
    {
      "midi": 67,
      "hit": false,
      "t": 138285.81799999822,
      "d": 271.4287750000076,
      "v": 127
    },
    {
      "midi": 71,
      "hit": false,
      "t": 138285.81799999822,
      "d": 271.4287750000076,
      "v": 127
    },
    {
      "midi": 55,
      "hit": false,
      "t": 138285.81799999822,
      "d": 1138.0960916666663,
      "v": 127
    },
    {
      "midi": 59,
      "hit": false,
      "t": 138285.81800000006,
      "d": 1142.8580000000075,
      "v": 67
    },
    {
      "midi": 67,
      "hit": false,
      "t": 138285.81800000006,
      "d": 1142.8580000000075,
      "v": 63
    },
    {
      "midi": 62,
      "hit": false,
      "t": 138571.53249999823,
      "d": 271.4287750000076,
      "v": 127
    },
    {
      "midi": 67,
      "hit": false,
      "t": 138857.24699999823,
      "d": 271.4287750000076,
      "v": 127
    },
    {
      "midi": 71,
      "hit": false,
      "t": 139142.96149999823,
      "d": 271.4287750000076,
      "v": 127
    },
    {
      "midi": 65,
      "hit": false,
      "t": 139428.67599999823,
      "d": 271.4287750000076,
      "v": 127
    },
    {
      "midi": 69,
      "hit": false,
      "t": 139428.67599999823,
      "d": 271.4287750000076,
      "v": 127
    },
    {
      "midi": 41,
      "hit": false,
      "t": 139428.67599999823,
      "d": 1090.4770083333424,
      "v": 127
    },
    {
      "midi": 62,
      "hit": false,
      "t": 139428.67600000006,
      "d": 1566.6678416666691,
      "v": 31
    },
    {
      "midi": 57,
      "hit": false,
      "t": 139428.67600000006,
      "d": 1952.382416666689,
      "v": 64
    },
    {
      "midi": 65,
      "hit": false,
      "t": 139428.67600000006,
      "d": 1952.382416666689,
      "v": 50
    },
    {
      "midi": 69,
      "hit": false,
      "t": 139428.67600000006,
      "d": 1952.382416666689,
      "v": 43
    },
    {
      "midi": 62,
      "hit": false,
      "t": 139714.39049999823,
      "d": 271.4287750000076,
      "v": 127
    },
    {
      "midi": 65,
      "hit": false,
      "t": 140000.10499999824,
      "d": 271.4287750000076,
      "v": 127
    },
    {
      "midi": 69,
      "hit": false,
      "t": 140285.81949999824,
      "d": 271.4287750000076,
      "v": 127
    },
    {
      "midi": 74,
      "hit": false,
      "t": 140571.53399999824,
      "d": 271.4287750000076,
      "v": 127
    },
    {
      "midi": 41,
      "hit": false,
      "t": 140571.53399999824,
      "d": 1123.810366666672,
      "v": 127
    },
    {
      "midi": 65,
      "hit": false,
      "t": 140857.24849999824,
      "d": 271.4287750000076,
      "v": 127
    },
    {
      "midi": 67,
      "hit": false,
      "t": 141142.96299999824,
      "d": 271.4287750000076,
      "v": 127
    },
    {
      "midi": 62,
      "hit": false,
      "t": 141142.96300000008,
      "d": 238.09541666667792,
      "v": 54
    },
    {
      "midi": 65,
      "hit": false,
      "t": 141428.67749999824,
      "d": 271.4287750000076,
      "v": 127
    },
    {
      "midi": 65,
      "hit": false,
      "t": 141428.67750000008,
      "d": 361.90503333334345,
      "v": 34
    },
    {
      "midi": 55,
      "hit": false,
      "t": 141428.67750000008,
      "d": 733.33388333334,
      "v": 58
    },
    {
      "midi": 60,
      "hit": false,
      "t": 141428.67750000008,
      "d": 1419.048683333327,
      "v": 39
    },
    {
      "midi": 67,
      "hit": false,
      "t": 141428.67750000008,
      "d": 1419.048683333327,
      "v": 66
    },
    {
      "midi": 65,
      "hit": false,
      "t": 141714.39199999825,
      "d": 271.4287750000076,
      "v": 127
    },
    {
      "midi": 36,
      "hit": false,
      "t": 141714.39199999825,
      "d": 1152.3818166666606,
      "v": 127
    },
    {
      "midi": 60,
      "hit": false,
      "t": 142000.10649999825,
      "d": 271.4287750000076,
      "v": 127
    },
    {
      "midi": 65,
      "hit": false,
      "t": 142285.82099999825,
      "d": 271.4287750000076,
      "v": 127
    },
    {
      "midi": 55,
      "hit": false,
      "t": 142285.82100000008,
      "d": 571.4289999999746,
      "v": 64
    },
    {
      "midi": 67,
      "hit": false,
      "t": 142571.53549999825,
      "d": 271.4287750000076,
      "v": 127
    },
    {
      "midi": 65,
      "hit": false,
      "t": 142571.5355000001,
      "d": 285.71449999997276,
      "v": 51
    },
    {
      "midi": 60,
      "hit": false,
      "t": 142857.24999999825,
      "d": 271.4287749999785,
      "v": 127
    },
    {
      "midi": 64,
      "hit": false,
      "t": 142857.24999999825,
      "d": 271.4287749999785,
      "v": 127
    },
    {
      "midi": 48,
      "hit": false,
      "t": 142857.24999999825,
      "d": 1123.8103666666138,
      "v": 127
    },
    {
      "midi": 55,
      "hit": false,
      "t": 142857.25000000006,
      "d": 1142.8580000000075,
      "v": 67
    },
    {
      "midi": 64,
      "hit": false,
      "t": 142857.25000000006,
      "d": 1142.8580000000075,
      "v": 63
    },
    {
      "midi": 67,
      "hit": false,
      "t": 143142.96449999823,
      "d": 542.8575499999861,
      "v": 127
    },
    {
      "midi": 62,
      "hit": false,
      "t": 143714.3934999982,
      "d": 271.4287750000076,
      "v": 127
    },
    {
      "midi": 67,
      "hit": false,
      "t": 143714.3934999982,
      "d": 271.4287750000076,
      "v": 127
    },
    {
      "midi": 69,
      "hit": false,
      "t": 143714.3934999982,
      "d": 271.4287750000076,
      "v": 127
    },
    {
      "midi": 38,
      "hit": false,
      "t": 144000.1079999982,
      "d": 1152.3818166666606,
      "v": 127
    },
    {
      "midi": 62,
      "hit": false,
      "t": 144000.10800000007,
      "d": 1566.6678416666691,
      "v": 31
    },
    {
      "midi": 57,
      "hit": false,
      "t": 144000.10800000007,
      "d": 2285.716000000015,
      "v": 64
    },
    {
      "midi": 67,
      "hit": false,
      "t": 144000.10800000007,
      "d": 2285.716000000015,
      "v": 50
    },
    {
      "midi": 69,
      "hit": false,
      "t": 144000.10800000007,
      "d": 2285.716000000015,
      "v": 43
    },
    {
      "midi": 66,
      "hit": false,
      "t": 144285.8224999982,
      "d": 271.4287750000076,
      "v": 127
    },
    {
      "midi": 62,
      "hit": false,
      "t": 144571.5369999982,
      "d": 271.4287750000076,
      "v": 127
    },
    {
      "midi": 66,
      "hit": false,
      "t": 144857.2514999982,
      "d": 271.4287750000076,
      "v": 127
    },
    {
      "midi": 62,
      "hit": false,
      "t": 145142.9659999982,
      "d": 271.4287749999785,
      "v": 127
    },
    {
      "midi": 50,
      "hit": false,
      "t": 145142.9659999982,
      "d": 1123.810366666643,
      "v": 127
    },
    {
      "midi": 64,
      "hit": false,
      "t": 145428.68049999818,
      "d": 271.4287750000076,
      "v": 127
    },
    {
      "midi": 66,
      "hit": false,
      "t": 145714.39499999819,
      "d": 271.4287750000076,
      "v": 127
    },
    {
      "midi": 62,
      "hit": false,
      "t": 145714.39500000008,
      "d": 571.4290000000037,
      "v": 54
    },
    {
      "midi": 69,
      "hit": false,
      "t": 146000.1094999982,
      "d": 271.4287750000076,
      "v": 127
    },
    {
      "midi": 62,
      "hit": false,
      "t": 146285.8239999982,
      "d": 542.8575499999861,
      "v": 127
    },
    {
      "midi": 67,
      "hit": false,
      "t": 146285.8239999982,
      "d": 542.8575499999861,
      "v": 127
    },
    {
      "midi": 70,
      "hit": false,
      "t": 146285.8239999982,
      "d": 542.8575499999861,
      "v": 127
    },
    {
      "midi": 39,
      "hit": false,
      "t": 146285.8239999982,
      "d": 1138.0960916666372,
      "v": 127
    },
    {
      "midi": 58,
      "hit": false,
      "t": 146285.82400000008,
      "d": 1566.6678416666691,
      "v": 31
    },
    {
      "midi": 55,
      "hit": false,
      "t": 146285.82400000008,
      "d": 2285.716000000015,
      "v": 64
    },
    {
      "midi": 62,
      "hit": false,
      "t": 146285.82400000008,
      "d": 2285.716000000015,
      "v": 50
    },
    {
      "midi": 65,
      "hit": false,
      "t": 146285.82400000008,
      "d": 2285.716000000015,
      "v": 43
    },
    {
      "midi": 69,
      "hit": false,
      "t": 146857.25299999816,
      "d": 271.4287750000076,
      "v": 127
    },
    {
      "midi": 67,
      "hit": false,
      "t": 147142.96749999817,
      "d": 552.3813666666683,
      "v": 127
    },
    {
      "midi": 62,
      "hit": false,
      "t": 147142.96749999817,
      "d": 561.9051833333215,
      "v": 127
    },
    {
      "midi": 51,
      "hit": false,
      "t": 147428.68199999817,
      "d": 1123.8103666666138,
      "v": 127
    },
    {
      "midi": 70,
      "hit": false,
      "t": 147714.39649999814,
      "d": 542.8575499999861,
      "v": 127
    },
    {
      "midi": 58,
      "hit": false,
      "t": 148000.1110000001,
      "d": 571.4290000000037,
      "v": 54
    },
    {
      "midi": 65,
      "hit": false,
      "t": 148285.8254999981,
      "d": 538.095641666674,
      "v": 127
    },
    {
      "midi": 69,
      "hit": false,
      "t": 148285.8254999981,
      "d": 552.3813666666683,
      "v": 127
    },
    {
      "midi": 60,
      "hit": false,
      "t": 148285.8254999981,
      "d": 576.1909083333449,
      "v": 127
    },
    {
      "midi": 38,
      "hit": false,
      "t": 148571.53999999812,
      "d": 1138.0960916666663,
      "v": 127
    },
    {
      "midi": 62,
      "hit": false,
      "t": 148571.5400000001,
      "d": 1566.6678416666691,
      "v": 31
    },
    {
      "midi": 60,
      "hit": false,
      "t": 148571.5400000001,
      "d": 2285.716000000015,
      "v": 64
    },
    {
      "midi": 65,
      "hit": false,
      "t": 148571.5400000001,
      "d": 2285.716000000015,
      "v": 50
    },
    {
      "midi": 69,
      "hit": false,
      "t": 148571.5400000001,
      "d": 2285.716000000015,
      "v": 43
    },
    {
      "midi": 65,
      "hit": false,
      "t": 148857.25449999812,
      "d": 271.4287750000076,
      "v": 127
    },
    {
      "midi": 57,
      "hit": false,
      "t": 149142.96899999812,
      "d": 271.4287750000076,
      "v": 127
    },
    {
      "midi": 60,
      "hit": false,
      "t": 149428.68349999812,
      "d": 271.4287750000076,
      "v": 127
    },
    {
      "midi": 65,
      "hit": false,
      "t": 149714.39799999812,
      "d": 271.4287750000076,
      "v": 127
    },
    {
      "midi": 50,
      "hit": false,
      "t": 149714.39799999812,
      "d": 1138.0960916666663,
      "v": 127
    },
    {
      "midi": 60,
      "hit": false,
      "t": 150000.11249999813,
      "d": 271.4287750000076,
      "v": 127
    },
    {
      "midi": 69,
      "hit": false,
      "t": 150285.82699999813,
      "d": 271.4287750000076,
      "v": 127
    },
    {
      "midi": 62,
      "hit": false,
      "t": 150285.8270000001,
      "d": 571.4290000000037,
      "v": 54
    },
    {
      "midi": 60,
      "hit": false,
      "t": 150571.54149999813,
      "d": 271.4287750000076,
      "v": 127
    },
    {
      "midi": 62,
      "hit": false,
      "t": 150857.25599999813,
      "d": 271.4287750000076,
      "v": 127
    },
    {
      "midi": 67,
      "hit": false,
      "t": 150857.25599999813,
      "d": 271.4287750000076,
      "v": 127
    },
    {
      "midi": 70,
      "hit": false,
      "t": 150857.25599999813,
      "d": 271.4287750000076,
      "v": 127
    },
    {
      "midi": 39,
      "hit": false,
      "t": 150857.25599999813,
      "d": 1123.810366666643,
      "v": 127
    },
    {
      "midi": 58,
      "hit": false,
      "t": 150857.2560000001,
      "d": 1566.6678416666691,
      "v": 31
    },
    {
      "midi": 55,
      "hit": false,
      "t": 150857.2560000001,
      "d": 2285.716000000015,
      "v": 64
    },
    {
      "midi": 62,
      "hit": false,
      "t": 150857.2560000001,
      "d": 2285.716000000015,
      "v": 50
    },
    {
      "midi": 65,
      "hit": false,
      "t": 150857.2560000001,
      "d": 2285.716000000015,
      "v": 43
    },
    {
      "midi": 65,
      "hit": false,
      "t": 151142.97049999813,
      "d": 542.8575499999861,
      "v": 127
    },
    {
      "midi": 69,
      "hit": false,
      "t": 151142.97049999813,
      "d": 542.8575499999861,
      "v": 127
    },
    {
      "midi": 63,
      "hit": false,
      "t": 151714.3994999981,
      "d": 271.4287750000076,
      "v": 127
    },
    {
      "midi": 67,
      "hit": false,
      "t": 151714.3994999981,
      "d": 271.4287750000076,
      "v": 127
    },
    {
      "midi": 51,
      "hit": false,
      "t": 152000.1139999981,
      "d": 1123.810366666643,
      "v": 127
    },
    {
      "midi": 67,
      "hit": false,
      "t": 152285.8284999981,
      "d": 542.8575499999861,
      "v": 127
    },
    {
      "midi": 70,
      "hit": false,
      "t": 152285.8284999981,
      "d": 542.8575499999861,
      "v": 127
    },
    {
      "midi": 58,
      "hit": false,
      "t": 152571.54300000012,
      "d": 571.4290000000037,
      "v": 54
    },
    {
      "midi": 69,
      "hit": false,
      "t": 152857.2574999981,
      "d": 528.5718249999918,
      "v": 127
    },
    {
      "midi": 72,
      "hit": false,
      "t": 152857.2574999981,
      "d": 561.9051833333215,
      "v": 127
    },
    {
      "midi": 38,
      "hit": false,
      "t": 153142.9719999981,
      "d": 271.4287749999785,
      "v": 127
    },
    {
      "midi": 60,
      "hit": false,
      "t": 153142.97200000013,
      "d": 1142.8580000000075,
      "v": 52
    },
    {
      "midi": 67,
      "hit": false,
      "t": 153142.97200000013,
      "d": 1142.8580000000075,
      "v": 73
    },
    {
      "midi": 69,
      "hit": false,
      "t": 153142.97200000013,
      "d": 1142.8580000000075,
      "v": 58
    },
    {
      "midi": 45,
      "hit": false,
      "t": 153428.68649999806,
      "d": 271.4287750000076,
      "v": 127
    },
    {
      "midi": 60,
      "hit": false,
      "t": 153428.68649999806,
      "d": 538.095641666674,
      "v": 127
    },
    {
      "midi": 67,
      "hit": false,
      "t": 153428.68649999806,
      "d": 552.3813666666683,
      "v": 127
    },
    {
      "midi": 70,
      "hit": false,
      "t": 153428.68649999806,
      "d": 561.9051833333506,
      "v": 127
    },
    {
      "midi": 48,
      "hit": false,
      "t": 153714.40099999806,
      "d": 271.4287750000076,
      "v": 127
    },
    {
      "midi": 64,
      "hit": false,
      "t": 153714.40100000013,
      "d": 571.4290000000037,
      "v": 50
    },
    {
      "midi": 50,
      "hit": false,
      "t": 154000.11549999806,
      "d": 271.4287750000076,
      "v": 127
    },
    {
      "midi": 38,
      "hit": false,
      "t": 154285.82999999807,
      "d": 271.4287750000076,
      "v": 127
    },
    {
      "midi": 60,
      "hit": false,
      "t": 154285.82999999807,
      "d": 271.4287750000076,
      "v": 127
    },
    {
      "midi": 65,
      "hit": false,
      "t": 154285.82999999807,
      "d": 271.4287750000076,
      "v": 127
    },
    {
      "midi": 69,
      "hit": false,
      "t": 154285.82999999807,
      "d": 271.4287750000076,
      "v": 127
    },
    {
      "midi": 60,
      "hit": false,
      "t": 154285.83000000013,
      "d": 1142.8580000000075,
      "v": 52
    },
    {
      "midi": 65,
      "hit": false,
      "t": 154285.83000000013,
      "d": 1142.8580000000075,
      "v": 73
    },
    {
      "midi": 69,
      "hit": false,
      "t": 154285.83000000013,
      "d": 1142.8580000000075,
      "v": 58
    },
    {
      "midi": 45,
      "hit": false,
      "t": 154571.54449999807,
      "d": 271.4287750000076,
      "v": 127
    },
    {
      "midi": 72,
      "hit": false,
      "t": 154571.54449999807,
      "d": 576.1909083333449,
      "v": 127
    },
    {
      "midi": 48,
      "hit": false,
      "t": 154857.25899999807,
      "d": 271.4287750000076,
      "v": 127
    },
    {
      "midi": 62,
      "hit": false,
      "t": 154857.25900000014,
      "d": 571.4290000000037,
      "v": 50
    },
    {
      "midi": 50,
      "hit": false,
      "t": 155142.97349999807,
      "d": 271.4287750000076,
      "v": 127
    },
    {
      "midi": 69,
      "hit": false,
      "t": 155428.68799999807,
      "d": 271.4287750000076,
      "v": 127
    },
    {
      "midi": 72,
      "hit": false,
      "t": 155428.68799999807,
      "d": 271.4287750000076,
      "v": 127
    },
    {
      "midi": 74,
      "hit": false,
      "t": 155428.68799999807,
      "d": 271.4287750000076,
      "v": 127
    },
    {
      "midi": 43,
      "hit": false,
      "t": 155428.68799999807,
      "d": 1076.191283333348,
      "v": 127
    },
    {
      "midi": 60,
      "hit": false,
      "t": 155428.68800000014,
      "d": 1142.8580000000075,
      "v": 52
    },
    {
      "midi": 67,
      "hit": false,
      "t": 155428.68800000014,
      "d": 1142.8580000000075,
      "v": 73
    },
    {
      "midi": 72,
      "hit": false,
      "t": 155428.68800000014,
      "d": 1142.8580000000075,
      "v": 58
    },
    {
      "midi": 62,
      "hit": false,
      "t": 155714.40249999808,
      "d": 271.4287750000076,
      "v": 127
    },
    {
      "midi": 67,
      "hit": false,
      "t": 156000.11699999808,
      "d": 271.4287750000076,
      "v": 127
    },
    {
      "midi": 62,
      "hit": false,
      "t": 156000.11700000014,
      "d": 571.4290000000037,
      "v": 50
    },
    {
      "midi": 62,
      "hit": false,
      "t": 156285.83149999808,
      "d": 271.4287750000076,
      "v": 127
    },
    {
      "midi": 67,
      "hit": false,
      "t": 156571.54599999808,
      "d": 271.4287750000076,
      "v": 127
    },
    {
      "midi": 71,
      "hit": false,
      "t": 156571.54599999808,
      "d": 271.4287750000076,
      "v": 127
    },
    {
      "midi": 43,
      "hit": false,
      "t": 156571.54599999808,
      "d": 1138.0960916666663,
      "v": 127
    },
    {
      "midi": 59,
      "hit": false,
      "t": 156571.54600000015,
      "d": 1142.8580000000075,
      "v": 67
    },
    {
      "midi": 67,
      "hit": false,
      "t": 156571.54600000015,
      "d": 1142.8580000000075,
      "v": 63
    },
    {
      "midi": 62,
      "hit": false,
      "t": 156857.26049999808,
      "d": 271.4287750000076,
      "v": 127
    },
    {
      "midi": 67,
      "hit": false,
      "t": 157142.97499999808,
      "d": 271.4287750000076,
      "v": 127
    },
    {
      "midi": 62,
      "hit": false,
      "t": 157428.6894999981,
      "d": 271.4287750000076,
      "v": 127
    },
    {
      "midi": 53,
      "hit": false,
      "t": 157714.4039999981,
      "d": 271.4287750000076,
      "v": 127
    },
    {
      "midi": 62,
      "hit": false,
      "t": 157714.4039999981,
      "d": 271.4287750000076,
      "v": 127
    },
    {
      "midi": 65,
      "hit": false,
      "t": 157714.4039999981,
      "d": 271.4287750000076,
      "v": 127
    },
    {
      "midi": 71,
      "hit": false,
      "t": 157714.4039999981,
      "d": 271.4287750000076,
      "v": 127
    },
    {
      "midi": 59,
      "hit": false,
      "t": 157714.40400000016,
      "d": 1142.8580000000075,
      "v": 67
    },
    {
      "midi": 65,
      "hit": false,
      "t": 157714.40400000016,
      "d": 1142.8580000000075,
      "v": 63
    },
    {
      "midi": 53,
      "hit": false,
      "t": 158000.1184999981,
      "d": 271.4287750000076,
      "v": 127
    },
    {
      "midi": 62,
      "hit": false,
      "t": 158000.1184999981,
      "d": 271.4287750000076,
      "v": 127
    },
    {
      "midi": 65,
      "hit": false,
      "t": 158000.1184999981,
      "d": 271.4287750000076,
      "v": 127
    },
    {
      "midi": 71,
      "hit": false,
      "t": 158000.1184999981,
      "d": 271.4287750000076,
      "v": 127
    },
    {
      "midi": 53,
      "hit": false,
      "t": 158285.8329999981,
      "d": 271.4287750000076,
      "v": 127
    },
    {
      "midi": 62,
      "hit": false,
      "t": 158285.8329999981,
      "d": 271.4287750000076,
      "v": 127
    },
    {
      "midi": 65,
      "hit": false,
      "t": 158285.8329999981,
      "d": 271.4287750000076,
      "v": 127
    },
    {
      "midi": 71,
      "hit": false,
      "t": 158285.8329999981,
      "d": 271.4287750000076,
      "v": 127
    },
    {
      "midi": 51,
      "hit": false,
      "t": 158571.5474999981,
      "d": 542.8575499999861,
      "v": 127
    },
    {
      "midi": 63,
      "hit": false,
      "t": 158571.5474999981,
      "d": 542.8575499999861,
      "v": 127
    },
    {
      "midi": 67,
      "hit": false,
      "t": 158571.5474999981,
      "d": 542.8575499999861,
      "v": 127
    },
    {
      "midi": 72,
      "hit": false,
      "t": 158571.5474999981,
      "d": 542.8575499999861,
      "v": 127
    },
    {
      "midi": 55,
      "hit": false,
      "t": 158857.26200000016,
      "d": 571.4290000000037,
      "v": 67
    },
    {
      "midi": 63,
      "hit": false,
      "t": 158857.26200000016,
      "d": 571.4290000000037,
      "v": 63
    },
    {
      "midi": 74,
      "hit": false,
      "t": 159142.97649999807,
      "d": 576.1909083333449,
      "v": 127
    },
    {
      "midi": 50,
      "hit": false,
      "t": 159142.97649999807,
      "d": 814.2863250000228,
      "v": 127
    },
    {
      "midi": 65,
      "hit": false,
      "t": 159142.97649999807,
      "d": 814.2863250000228,
      "v": 127
    },
    {
      "midi": 71,
      "hit": false,
      "t": 159142.97649999807,
      "d": 814.2863250000228,
      "v": 127
    },
    {
      "midi": 59,
      "hit": false,
      "t": 159428.69100000017,
      "d": 571.4290000000037,
      "v": 73
    },
    {
      "midi": 65,
      "hit": false,
      "t": 159709.64359166683,
      "d": 290.476408333343,
      "v": 55
    },
    {
      "midi": 48,
      "hit": false,
      "t": 160000.1199999981,
      "d": 271.4287750000076,
      "v": 127
    },
    {
      "midi": 75,
      "hit": false,
      "t": 160000.1199999981,
      "d": 552.3813666666683,
      "v": 127
    },
    {
      "midi": 60,
      "hit": false,
      "t": 160000.12000000017,
      "d": 1566.6678416666691,
      "v": 31
    },
    {
      "midi": 55,
      "hit": false,
      "t": 160000.12000000017,
      "d": 2285.716000000015,
      "v": 64
    },
    {
      "midi": 63,
      "hit": false,
      "t": 160000.12000000017,
      "d": 2285.716000000015,
      "v": 50
    },
    {
      "midi": 67,
      "hit": false,
      "t": 160000.12000000017,
      "d": 2285.716000000015,
      "v": 43
    },
    {
      "midi": 55,
      "hit": false,
      "t": 160285.8344999981,
      "d": 271.4287750000076,
      "v": 127
    },
    {
      "midi": 60,
      "hit": false,
      "t": 160571.5489999981,
      "d": 271.4287750000076,
      "v": 127
    },
    {
      "midi": 63,
      "hit": false,
      "t": 160857.2634999981,
      "d": 271.4287750000076,
      "v": 127
    },
    {
      "midi": 48,
      "hit": false,
      "t": 161142.9779999981,
      "d": 271.4287750000076,
      "v": 127
    },
    {
      "midi": 63,
      "hit": false,
      "t": 161142.9779999981,
      "d": 528.5718249999918,
      "v": 127
    },
    {
      "midi": 67,
      "hit": false,
      "t": 161142.9779999981,
      "d": 561.9051833333215,
      "v": 127
    },
    {
      "midi": 55,
      "hit": false,
      "t": 161428.6924999981,
      "d": 271.4287749999785,
      "v": 127
    },
    {
      "midi": 60,
      "hit": false,
      "t": 161714.4069999981,
      "d": 271.4287750000076,
      "v": 127
    },
    {
      "midi": 60,
      "hit": false,
      "t": 161714.40700000018,
      "d": 571.4290000000037,
      "v": 54
    },
    {
      "midi": 63,
      "hit": false,
      "t": 162000.1214999981,
      "d": 271.4287750000076,
      "v": 127
    },
    {
      "midi": 48,
      "hit": false,
      "t": 162285.8359999981,
      "d": 271.4287750000076,
      "v": 127
    },
    {
      "midi": 75,
      "hit": false,
      "t": 162285.8359999981,
      "d": 552.3813666666683,
      "v": 127
    },
    {
      "midi": 68,
      "hit": false,
      "t": 162285.8359999981,
      "d": 561.9051833333506,
      "v": 127
    },
    {
      "midi": 72,
      "hit": false,
      "t": 162285.8359999981,
      "d": 585.714724999998,
      "v": 127
    },
    {
      "midi": 60,
      "hit": false,
      "t": 162285.83600000018,
      "d": 1404.7629583333328,
      "v": 51
    },
    {
      "midi": 63,
      "hit": false,
      "t": 162285.83600000018,
      "d": 2285.716000000015,
      "v": 65
    },
    {
      "midi": 68,
      "hit": false,
      "t": 162285.83600000018,
      "d": 2285.716000000015,
      "v": 39
    },
    {
      "midi": 72,
      "hit": false,
      "t": 162285.83600000018,
      "d": 2285.716000000015,
      "v": 53
    },
    {
      "midi": 51,
      "hit": false,
      "t": 162571.5504999981,
      "d": 271.4287750000076,
      "v": 127
    },
    {
      "midi": 56,
      "hit": false,
      "t": 162857.2649999981,
      "d": 271.4287750000076,
      "v": 127
    },
    {
      "midi": 60,
      "hit": false,
      "t": 163142.9794999981,
      "d": 271.4287750000076,
      "v": 127
    },
    {
      "midi": 48,
      "hit": false,
      "t": 163428.6939999981,
      "d": 271.4287750000076,
      "v": 127
    },
    {
      "midi": 72,
      "hit": false,
      "t": 163428.6939999981,
      "d": 576.1909083333449,
      "v": 127
    },
    {
      "midi": 75,
      "hit": false,
      "t": 163428.6939999981,
      "d": 576.1909083333449,
      "v": 127
    },
    {
      "midi": 68,
      "hit": false,
      "t": 163428.6939999981,
      "d": 585.714724999998,
      "v": 127
    },
    {
      "midi": 51,
      "hit": false,
      "t": 163714.4084999981,
      "d": 271.4287750000076,
      "v": 127
    },
    {
      "midi": 56,
      "hit": false,
      "t": 164000.1229999981,
      "d": 271.4287750000076,
      "v": 127
    },
    {
      "midi": 60,
      "hit": false,
      "t": 164000.1230000002,
      "d": 571.4290000000037,
      "v": 76
    },
    {
      "midi": 60,
      "hit": false,
      "t": 164285.8374999981,
      "d": 271.4287750000076,
      "v": 127
    },
    {
      "midi": 62,
      "hit": false,
      "t": 164571.5519999981,
      "d": 542.8575499999861,
      "v": 127
    },
    {
      "midi": 69,
      "hit": false,
      "t": 164571.5519999981,
      "d": 542.8575499999861,
      "v": 127
    },
    {
      "midi": 74,
      "hit": false,
      "t": 164571.5519999981,
      "d": 542.8575499999861,
      "v": 127
    },
    {
      "midi": 47,
      "hit": false,
      "t": 164571.5519999981,
      "d": 1066.6674666666368,
      "v": 127
    },
    {
      "midi": 57,
      "hit": false,
      "t": 164571.5519999981,
      "d": 1114.2865499999607,
      "v": 127
    },
    {
      "midi": 59,
      "hit": false,
      "t": 164571.5520000002,
      "d": 1142.8580000000075,
      "v": 52
    },
    {
      "midi": 66,
      "hit": false,
      "t": 164571.5520000002,
      "d": 1142.8580000000075,
      "v": 73
    },
    {
      "midi": 69,
      "hit": false,
      "t": 164571.5520000002,
      "d": 1142.8580000000075,
      "v": 58
    },
    {
      "midi": 72,
      "hit": false,
      "t": 165142.98099999808,
      "d": 271.4287750000076,
      "v": 127
    },
    {
      "midi": 62,
      "hit": false,
      "t": 165142.9810000002,
      "d": 571.4290000000037,
      "v": 50
    },
    {
      "midi": 67,
      "hit": false,
      "t": 165428.69549999808,
      "d": 552.3813666666392,
      "v": 127
    },
    {
      "midi": 62,
      "hit": false,
      "t": 165428.69549999808,
      "d": 561.9051833332924,
      "v": 127
    },
    {
      "midi": 71,
      "hit": false,
      "t": 165428.69549999808,
      "d": 561.9051833332924,
      "v": 127
    },
    {
      "midi": 47,
      "hit": false,
      "t": 165714.40999999805,
      "d": 1138.0960916666372,
      "v": 127
    },
    {
      "midi": 55,
      "hit": false,
      "t": 165714.40999999805,
      "d": 1152.3818166666315,
      "v": 127
    },
    {
      "midi": 59,
      "hit": false,
      "t": 165714.4100000002,
      "d": 809.5244166666525,
      "v": 67
    },
    {
      "midi": 67,
      "hit": false,
      "t": 165714.4100000002,
      "d": 809.5244166666525,
      "v": 63
    },
    {
      "midi": 72,
      "hit": false,
      "t": 166000.12449999803,
      "d": 271.4287750000076,
      "v": 127
    },
    {
      "midi": 74,
      "hit": false,
      "t": 166285.83899999803,
      "d": 542.8575499999861,
      "v": 127
    },
    {
      "midi": 57,
      "hit": false,
      "t": 166571.55350000018,
      "d": 1419.048683333327,
      "v": 67
    },
    {
      "midi": 62,
      "hit": false,
      "t": 166571.55350000018,
      "d": 1419.048683333327,
      "v": 63
    },
    {
      "midi": 57,
      "hit": false,
      "t": 166857.26799999803,
      "d": 1085.7150999999722,
      "v": 127
    },
    {
      "midi": 62,
      "hit": false,
      "t": 166857.26799999803,
      "d": 1085.7150999999722,
      "v": 127
    },
    {
      "midi": 69,
      "hit": false,
      "t": 166857.26799999803,
      "d": 1085.7150999999722,
      "v": 127
    },
    {
      "midi": 74,
      "hit": false,
      "t": 166857.26799999803,
      "d": 1085.7150999999722,
      "v": 127
    },
    {
      "midi": 46,
      "hit": false,
      "t": 166857.26799999803,
      "d": 2276.1921833333035,
      "v": 127
    },
    {
      "midi": 55,
      "hit": false,
      "t": 168000.125999998,
      "d": 1085.7151000000013,
      "v": 127
    },
    {
      "midi": 62,
      "hit": false,
      "t": 168000.125999998,
      "d": 1085.7151000000013,
      "v": 127
    },
    {
      "midi": 67,
      "hit": false,
      "t": 168000.125999998,
      "d": 1085.7151000000013,
      "v": 127
    },
    {
      "midi": 62,
      "hit": false,
      "t": 168000.12600000016,
      "d": 85.71434999999474,
      "v": 34
    },
    {
      "midi": 55,
      "hit": false,
      "t": 168000.12600000016,
      "d": 457.14319999999134,
      "v": 58
    },
    {
      "midi": 58,
      "hit": false,
      "t": 168000.12600000016,
      "d": 1142.8580000000075,
      "v": 39
    },
    {
      "midi": 65,
      "hit": false,
      "t": 168000.12600000016,
      "d": 1142.8580000000075,
      "v": 66
    },
    {
      "midi": 55,
      "hit": false,
      "t": 168571.55500000017,
      "d": 571.4290000000037,
      "v": 64
    },
    {
      "midi": 62,
      "hit": false,
      "t": 168857.26950000017,
      "d": 285.71450000000186,
      "v": 51
    },
    {
      "midi": 60,
      "hit": false,
      "t": 169142.983999998,
      "d": 542.8575499999861,
      "v": 127
    },
    {
      "midi": 67,
      "hit": false,
      "t": 169142.983999998,
      "d": 542.8575499999861,
      "v": 127
    },
    {
      "midi": 72,
      "hit": false,
      "t": 169142.983999998,
      "d": 542.8575499999861,
      "v": 127
    },
    {
      "midi": 55,
      "hit": false,
      "t": 169142.983999998,
      "d": 2252.382641666656,
      "v": 127
    },
    {
      "midi": 45,
      "hit": false,
      "t": 169142.983999998,
      "d": 2290.477908333327,
      "v": 127
    },
    {
      "midi": 52,
      "hit": false,
      "t": 169142.98400000017,
      "d": 1404.7629583333328,
      "v": 51
    },
    {
      "midi": 55,
      "hit": false,
      "t": 169142.98400000017,
      "d": 2285.716000000015,
      "v": 65
    },
    {
      "midi": 57,
      "hit": false,
      "t": 169142.98400000017,
      "d": 2285.716000000015,
      "v": 39
    },
    {
      "midi": 60,
      "hit": false,
      "t": 169142.98400000017,
      "d": 2285.716000000015,
      "v": 53
    },
    {
      "midi": 72,
      "hit": false,
      "t": 169714.41299999796,
      "d": 271.4287750000076,
      "v": 127
    },
    {
      "midi": 72,
      "hit": false,
      "t": 170000.12749999797,
      "d": 814.2863249999937,
      "v": 127
    },
    {
      "midi": 72,
      "hit": false,
      "t": 170857.27099999797,
      "d": 271.4287750000076,
      "v": 127
    },
    {
      "midi": 52,
      "hit": false,
      "t": 170857.27100000018,
      "d": 571.4290000000037,
      "v": 76
    },
    {
      "midi": 66,
      "hit": false,
      "t": 171142.98549999797,
      "d": 528.5718250000209,
      "v": 127
    },
    {
      "midi": 72,
      "hit": false,
      "t": 171142.98549999797,
      "d": 528.5718250000209,
      "v": 127
    },
    {
      "midi": 60,
      "hit": false,
      "t": 171142.98549999797,
      "d": 552.3813666666974,
      "v": 127
    },
    {
      "midi": 44,
      "hit": false,
      "t": 171428.69999999797,
      "d": 552.3813666666974,
      "v": 127
    },
    {
      "midi": 56,
      "hit": false,
      "t": 171428.7000000002,
      "d": 1228.5723500000022,
      "v": 51
    },
    {
      "midi": 60,
      "hit": false,
      "t": 171428.7000000002,
      "d": 1433.3344083333504,
      "v": 59
    },
    {
      "midi": 63,
      "hit": false,
      "t": 171428.7000000002,
      "d": 1623.8107416666753,
      "v": 49
    },
    {
      "midi": 66,
      "hit": false,
      "t": 171428.7000000002,
      "d": 2285.716000000015,
      "v": 56
    },
    {
      "midi": 60,
      "hit": false,
      "t": 171714.414499998,
      "d": 552.3813666666683,
      "v": 127
    },
    {
      "midi": 66,
      "hit": false,
      "t": 171714.414499998,
      "d": 552.3813666666683,
      "v": 127
    },
    {
      "midi": 74,
      "hit": false,
      "t": 171714.414499998,
      "d": 561.9051833333215,
      "v": 127
    },
    {
      "midi": 56,
      "hit": false,
      "t": 172000.128999998,
      "d": 542.8575499999861,
      "v": 127
    },
    {
      "midi": 44,
      "hit": false,
      "t": 172571.55799999798,
      "d": 542.8575499999861,
      "v": 127
    },
    {
      "midi": 56,
      "hit": false,
      "t": 172857.2725000002,
      "d": 857.1435000000056,
      "v": 49
    },
    {
      "midi": 56,
      "hit": false,
      "t": 173142.98699999796,
      "d": 552.3813666666683,
      "v": 127
    },
    {
      "midi": 60,
      "hit": false,
      "t": 173142.9870000002,
      "d": 571.4290000000037,
      "v": 62
    },
    {
      "midi": 72,
      "hit": false,
      "t": 173428.70149999796,
      "d": 271.4287750000076,
      "v": 127
    },
    {
      "midi": 63,
      "hit": false,
      "t": 173428.7015000002,
      "d": 285.71450000000186,
      "v": 51
    },
    {
      "midi": 43,
      "hit": false,
      "t": 173714.41599999796,
      "d": 271.4287750000076,
      "v": 127
    },
    {
      "midi": 62,
      "hit": false,
      "t": 173714.41599999796,
      "d": 271.4287750000076,
      "v": 127
    },
    {
      "midi": 71,
      "hit": false,
      "t": 173714.41599999796,
      "d": 271.4287750000076,
      "v": 127
    },
    {
      "midi": 60,
      "hit": false,
      "t": 173714.4160000002,
      "d": 1142.8580000000075,
      "v": 67
    },
    {
      "midi": 67,
      "hit": false,
      "t": 173714.4160000002,
      "d": 1142.8580000000075,
      "v": 63
    },
    {
      "midi": 50,
      "hit": false,
      "t": 174000.13049999796,
      "d": 271.4287750000076,
      "v": 127
    },
    {
      "midi": 69,
      "hit": false,
      "t": 174000.13049999796,
      "d": 271.4287750000076,
      "v": 127
    },
    {
      "midi": 55,
      "hit": false,
      "t": 174285.84499999796,
      "d": 271.4287750000076,
      "v": 127
    },
    {
      "midi": 67,
      "hit": false,
      "t": 174285.84499999796,
      "d": 271.4287750000076,
      "v": 127
    },
    {
      "midi": 50,
      "hit": false,
      "t": 174571.55949999797,
      "d": 271.4287750000076,
      "v": 127
    },
    {
      "midi": 59,
      "hit": false,
      "t": 174571.55949999797,
      "d": 819.0482333333348,
      "v": 127
    },
    {
      "midi": 67,
      "hit": false,
      "t": 174571.55949999797,
      "d": 833.3339583333291,
      "v": 127
    },
    {
      "midi": 43,
      "hit": false,
      "t": 174857.27399999797,
      "d": 271.4287750000076,
      "v": 127
    },
    {
      "midi": 59,
      "hit": false,
      "t": 174857.2740000002,
      "d": 1142.8580000000075,
      "v": 67
    },
    {
      "midi": 67,
      "hit": false,
      "t": 174857.2740000002,
      "d": 1142.8580000000075,
      "v": 63
    },
    {
      "midi": 50,
      "hit": false,
      "t": 175142.98849999797,
      "d": 271.4287749999785,
      "v": 127
    },
    {
      "midi": 55,
      "hit": false,
      "t": 175428.70299999794,
      "d": 271.4287750000076,
      "v": 127
    },
    {
      "midi": 50,
      "hit": false,
      "t": 175714.41749999794,
      "d": 271.4287750000076,
      "v": 127
    },
    {
      "midi": 53,
      "hit": false,
      "t": 176000.13199999795,
      "d": 271.4287750000076,
      "v": 127
    },
    {
      "midi": 62,
      "hit": false,
      "t": 176000.13199999795,
      "d": 271.4287750000076,
      "v": 127
    },
    {
      "midi": 65,
      "hit": false,
      "t": 176000.13199999795,
      "d": 271.4287750000076,
      "v": 127
    },
    {
      "midi": 71,
      "hit": false,
      "t": 176000.13199999795,
      "d": 271.4287750000076,
      "v": 127
    },
    {
      "midi": 59,
      "hit": false,
      "t": 176000.13200000022,
      "d": 1142.8580000000075,
      "v": 67
    },
    {
      "midi": 65,
      "hit": false,
      "t": 176000.13200000022,
      "d": 1142.8580000000075,
      "v": 63
    },
    {
      "midi": 53,
      "hit": false,
      "t": 176285.84649999795,
      "d": 271.4287750000076,
      "v": 127
    },
    {
      "midi": 62,
      "hit": false,
      "t": 176285.84649999795,
      "d": 271.4287750000076,
      "v": 127
    },
    {
      "midi": 65,
      "hit": false,
      "t": 176285.84649999795,
      "d": 271.4287750000076,
      "v": 127
    },
    {
      "midi": 71,
      "hit": false,
      "t": 176285.84649999795,
      "d": 271.4287750000076,
      "v": 127
    },
    {
      "midi": 53,
      "hit": false,
      "t": 176571.56099999795,
      "d": 271.4287750000076,
      "v": 127
    },
    {
      "midi": 62,
      "hit": false,
      "t": 176571.56099999795,
      "d": 271.4287750000076,
      "v": 127
    },
    {
      "midi": 65,
      "hit": false,
      "t": 176571.56099999795,
      "d": 271.4287750000076,
      "v": 127
    },
    {
      "midi": 71,
      "hit": false,
      "t": 176571.56099999795,
      "d": 271.4287750000076,
      "v": 127
    },
    {
      "midi": 51,
      "hit": false,
      "t": 176857.27549999795,
      "d": 542.8575499999861,
      "v": 127
    },
    {
      "midi": 63,
      "hit": false,
      "t": 176857.27549999795,
      "d": 542.8575499999861,
      "v": 127
    },
    {
      "midi": 67,
      "hit": false,
      "t": 176857.27549999795,
      "d": 542.8575499999861,
      "v": 127
    },
    {
      "midi": 72,
      "hit": false,
      "t": 176857.27549999795,
      "d": 542.8575499999861,
      "v": 127
    },
    {
      "midi": 55,
      "hit": false,
      "t": 177142.99000000022,
      "d": 571.4290000000037,
      "v": 67
    },
    {
      "midi": 63,
      "hit": false,
      "t": 177142.99000000022,
      "d": 571.4290000000037,
      "v": 63
    },
    {
      "midi": 50,
      "hit": false,
      "t": 177428.70449999793,
      "d": 542.8575499999861,
      "v": 127
    },
    {
      "midi": 71,
      "hit": false,
      "t": 177428.70449999793,
      "d": 738.0957916666521,
      "v": 127
    },
    {
      "midi": 74,
      "hit": false,
      "t": 177428.70449999793,
      "d": 747.6196083333052,
      "v": 127
    },
    {
      "midi": 67,
      "hit": false,
      "t": 177428.70449999793,
      "d": 761.9053333332995,
      "v": 127
    },
    {
      "midi": 59,
      "hit": false,
      "t": 177714.41900000023,
      "d": 571.4290000000037,
      "v": 67
    },
    {
      "midi": 67,
      "hit": false,
      "t": 177714.41900000023,
      "d": 571.4290000000037,
      "v": 63
    },
    {
      "midi": 43,
      "hit": false,
      "t": 178000.1334999979,
      "d": 271.4287749999785,
      "v": 127
    },
    {
      "midi": 75,
      "hit": false,
      "t": 178285.84799999787,
      "d": 571.4290000000037,
      "v": 127
    },
    {
      "midi": 36,
      "hit": false,
      "t": 178285.84799999787,
      "d": 1142.8580000000075,
      "v": 127
    },
    {
      "midi": 55,
      "hit": false,
      "t": 178285.84800000023,
      "d": 1228.5723500000022,
      "v": 51
    },
    {
      "midi": 60,
      "hit": false,
      "t": 178285.84800000023,
      "d": 1433.3344083333504,
      "v": 59
    },
    {
      "midi": 63,
      "hit": false,
      "t": 178285.84800000023,
      "d": 1623.8107416666753,
      "v": 49
    },
    {
      "midi": 67,
      "hit": false,
      "t": 178285.84800000023,
      "d": 2285.716000000015,
      "v": 56
    },
    {
      "midi": 63,
      "hit": false,
      "t": 178571.56249999788,
      "d": 271.4287750000076,
      "v": 127
    },
    {
      "midi": 67,
      "hit": false,
      "t": 178857.27699999788,
      "d": 271.4287750000076,
      "v": 127
    },
    {
      "midi": 63,
      "hit": false,
      "t": 179142.99149999788,
      "d": 271.4287750000076,
      "v": 127
    },
    {
      "midi": 72,
      "hit": false,
      "t": 179428.70599999788,
      "d": 271.4287750000076,
      "v": 127
    },
    {
      "midi": 48,
      "hit": false,
      "t": 179428.70599999788,
      "d": 1128.5722750000132,
      "v": 127
    },
    {
      "midi": 63,
      "hit": false,
      "t": 179714.42049999788,
      "d": 271.4287750000076,
      "v": 127
    },
    {
      "midi": 55,
      "hit": false,
      "t": 179714.42050000024,
      "d": 857.1435000000056,
      "v": 49
    },
    {
      "midi": 67,
      "hit": false,
      "t": 180000.13499999788,
      "d": 271.4287750000076,
      "v": 127
    },
    {
      "midi": 60,
      "hit": false,
      "t": 180000.13500000024,
      "d": 571.4290000000037,
      "v": 62
    },
    {
      "midi": 63,
      "hit": false,
      "t": 180285.8494999979,
      "d": 271.4287750000076,
      "v": 127
    },
    {
      "midi": 63,
      "hit": false,
      "t": 180285.84950000024,
      "d": 285.71450000000186,
      "v": 51
    },
    {
      "midi": 75,
      "hit": false,
      "t": 180571.5639999979,
      "d": 557.1432750000095,
      "v": 127
    },
    {
      "midi": 36,
      "hit": false,
      "t": 180571.5639999979,
      "d": 1119.048458333331,
      "v": 127
    },
    {
      "midi": 60,
      "hit": false,
      "t": 180571.56400000025,
      "d": 1228.5723500000022,
      "v": 51
    },
    {
      "midi": 63,
      "hit": false,
      "t": 180571.56400000025,
      "d": 1433.3344083333504,
      "v": 59
    },
    {
      "midi": 68,
      "hit": false,
      "t": 180571.56400000025,
      "d": 1623.8107416666753,
      "v": 49
    },
    {
      "midi": 72,
      "hit": false,
      "t": 180571.56400000025,
      "d": 1952.382416666689,
      "v": 56
    },
    {
      "midi": 63,
      "hit": false,
      "t": 180857.2784999979,
      "d": 271.4287750000076,
      "v": 127
    },
    {
      "midi": 68,
      "hit": false,
      "t": 181142.9929999979,
      "d": 271.4287750000076,
      "v": 127
    },
    {
      "midi": 63,
      "hit": false,
      "t": 181428.7074999979,
      "d": 271.4287749999785,
      "v": 127
    },
    {
      "midi": 72,
      "hit": false,
      "t": 181714.42199999787,
      "d": 271.4287750000076,
      "v": 127
    },
    {
      "midi": 48,
      "hit": false,
      "t": 181714.42199999787,
      "d": 1128.5722750000132,
      "v": 127
    },
    {
      "midi": 63,
      "hit": false,
      "t": 182000.13649999787,
      "d": 271.4287750000076,
      "v": 127
    },
    {
      "midi": 60,
      "hit": false,
      "t": 182000.13650000026,
      "d": 523.8099166666798,
      "v": 49
    },
    {
      "midi": 68,
      "hit": false,
      "t": 182285.85099999787,
      "d": 271.4287750000076,
      "v": 127
    },
    {
      "midi": 63,
      "hit": false,
      "t": 182285.85100000026,
      "d": 238.09541666667792,
      "v": 62
    },
    {
      "midi": 63,
      "hit": false,
      "t": 182571.56549999787,
      "d": 271.4287750000076,
      "v": 127
    },
    {
      "midi": 66,
      "hit": false,
      "t": 182571.56550000026,
      "d": 361.90503333334345,
      "v": 34
    },
    {
      "midi": 59,
      "hit": false,
      "t": 182571.56550000026,
      "d": 733.33388333334,
      "v": 58
    },
    {
      "midi": 62,
      "hit": false,
      "t": 182571.56550000026,
      "d": 1419.048683333327,
      "v": 39
    },
    {
      "midi": 69,
      "hit": false,
      "t": 182571.56550000026,
      "d": 1419.048683333327,
      "v": 66
    },
    {
      "midi": 66,
      "hit": false,
      "t": 182857.27999999787,
      "d": 542.8575499999861,
      "v": 127
    },
    {
      "midi": 69,
      "hit": false,
      "t": 182857.27999999787,
      "d": 542.8575499999861,
      "v": 127
    },
    {
      "midi": 74,
      "hit": false,
      "t": 182857.27999999787,
      "d": 542.8575499999861,
      "v": 127
    },
    {
      "midi": 35,
      "hit": false,
      "t": 182857.27999999787,
      "d": 1142.8579999999783,
      "v": 127
    },
    {
      "midi": 72,
      "hit": false,
      "t": 183428.70899999785,
      "d": 271.4287750000076,
      "v": 127
    },
    {
      "midi": 59,
      "hit": false,
      "t": 183428.70900000026,
      "d": 571.4289999999746,
      "v": 64
    },
    {
      "midi": 71,
      "hit": false,
      "t": 183714.42349999785,
      "d": 547.6194583333272,
      "v": 127
    },
    {
      "midi": 67,
      "hit": false,
      "t": 183714.42349999785,
      "d": 557.1432749999803,
      "v": 127
    },
    {
      "midi": 66,
      "hit": false,
      "t": 183714.42350000027,
      "d": 285.71449999997276,
      "v": 51
    },
    {
      "midi": 47,
      "hit": false,
      "t": 184000.13799999785,
      "d": 1119.0484583333018,
      "v": 127
    },
    {
      "midi": 67,
      "hit": false,
      "t": 184000.13800000024,
      "d": 85.71434999999474,
      "v": 34
    },
    {
      "midi": 59,
      "hit": false,
      "t": 184000.13800000024,
      "d": 457.14319999999134,
      "v": 58
    },
    {
      "midi": 62,
      "hit": false,
      "t": 184000.13800000024,
      "d": 1142.8580000000075,
      "v": 39
    },
    {
      "midi": 71,
      "hit": false,
      "t": 184000.13800000024,
      "d": 1142.8580000000075,
      "v": 66
    },
    {
      "midi": 72,
      "hit": false,
      "t": 184285.85249999783,
      "d": 271.4287750000076,
      "v": 127
    },
    {
      "midi": 74,
      "hit": false,
      "t": 184571.56699999783,
      "d": 542.8575499999861,
      "v": 127
    },
    {
      "midi": 59,
      "hit": false,
      "t": 184571.56700000024,
      "d": 571.4290000000037,
      "v": 64
    },
    {
      "midi": 67,
      "hit": false,
      "t": 184857.28150000024,
      "d": 285.71450000000186,
      "v": 51
    },
    {
      "midi": 74,
      "hit": false,
      "t": 185142.99599999783,
      "d": 271.4287750000076,
      "v": 127
    },
    {
      "midi": 34,
      "hit": false,
      "t": 185142.99599999783,
      "d": 1128.5722750000132,
      "v": 127
    },
    {
      "midi": 57,
      "hit": false,
      "t": 185142.99600000025,
      "d": 1142.8580000000075,
      "v": 67
    },
    {
      "midi": 62,
      "hit": false,
      "t": 185142.99600000025,
      "d": 1142.8580000000075,
      "v": 63
    },
    {
      "midi": 62,
      "hit": false,
      "t": 185428.71049999783,
      "d": 271.4287750000076,
      "v": 127
    },
    {
      "midi": 65,
      "hit": false,
      "t": 185714.42499999783,
      "d": 271.4287750000076,
      "v": 127
    },
    {
      "midi": 69,
      "hit": false,
      "t": 186000.13949999784,
      "d": 271.4287750000076,
      "v": 127
    },
    {
      "midi": 67,
      "hit": false,
      "t": 186285.85399999784,
      "d": 271.4287750000076,
      "v": 127
    },
    {
      "midi": 46,
      "hit": false,
      "t": 186285.85399999784,
      "d": 1128.5722750000132,
      "v": 127
    },
    {
      "midi": 55,
      "hit": false,
      "t": 186285.85400000025,
      "d": 1142.8580000000075,
      "v": 67
    },
    {
      "midi": 62,
      "hit": false,
      "t": 186285.85400000025,
      "d": 1142.8580000000075,
      "v": 63
    },
    {
      "midi": 62,
      "hit": false,
      "t": 186571.56849999784,
      "d": 271.4287750000076,
      "v": 127
    },
    {
      "midi": 65,
      "hit": false,
      "t": 186857.28299999784,
      "d": 271.4287750000076,
      "v": 127
    },
    {
      "midi": 67,
      "hit": false,
      "t": 187142.99749999784,
      "d": 271.4287750000076,
      "v": 127
    },
    {
      "midi": 64,
      "hit": false,
      "t": 187428.71199999785,
      "d": 542.8575499999861,
      "v": 127
    },
    {
      "midi": 67,
      "hit": false,
      "t": 187428.71199999785,
      "d": 542.8575499999861,
      "v": 127
    },
    {
      "midi": 72,
      "hit": false,
      "t": 187428.71199999785,
      "d": 542.8575499999861,
      "v": 127
    },
    {
      "midi": 33,
      "hit": false,
      "t": 187428.71199999785,
      "d": 1128.572274999984,
      "v": 127
    },
    {
      "midi": 52,
      "hit": false,
      "t": 187428.71200000026,
      "d": 1404.7629583333328,
      "v": 51
    },
    {
      "midi": 55,
      "hit": false,
      "t": 187428.71200000026,
      "d": 2285.716000000015,
      "v": 65
    },
    {
      "midi": 57,
      "hit": false,
      "t": 187428.71200000026,
      "d": 2285.716000000015,
      "v": 39
    },
    {
      "midi": 60,
      "hit": false,
      "t": 187428.71200000026,
      "d": 2285.716000000015,
      "v": 53
    },
    {
      "midi": 64,
      "hit": false,
      "t": 188000.14099999782,
      "d": 271.4287750000076,
      "v": 127
    },
    {
      "midi": 67,
      "hit": false,
      "t": 188000.14099999782,
      "d": 271.4287750000076,
      "v": 127
    },
    {
      "midi": 72,
      "hit": false,
      "t": 188000.14099999782,
      "d": 271.4287750000076,
      "v": 127
    },
    {
      "midi": 72,
      "hit": false,
      "t": 188285.85549999782,
      "d": 785.7148750000051,
      "v": 127
    },
    {
      "midi": 64,
      "hit": false,
      "t": 188285.85549999782,
      "d": 838.0958666666702,
      "v": 127
    },
    {
      "midi": 67,
      "hit": false,
      "t": 188285.85549999782,
      "d": 838.0958666666702,
      "v": 127
    },
    {
      "midi": 45,
      "hit": false,
      "t": 188571.56999999782,
      "d": 1142.8580000000075,
      "v": 127
    },
    {
      "midi": 72,
      "hit": false,
      "t": 189142.99899999783,
      "d": 271.4287750000076,
      "v": 127
    },
    {
      "midi": 52,
      "hit": false,
      "t": 189142.99900000027,
      "d": 571.4290000000037,
      "v": 76
    },
    {
      "midi": 63,
      "hit": false,
      "t": 189428.71349999783,
      "d": 271.4287750000076,
      "v": 127
    },
    {
      "midi": 66,
      "hit": false,
      "t": 189428.71349999783,
      "d": 271.4287750000076,
      "v": 127
    },
    {
      "midi": 72,
      "hit": false,
      "t": 189428.71349999783,
      "d": 271.4287750000076,
      "v": 127
    },
    {
      "midi": 32,
      "hit": false,
      "t": 189714.42799999783,
      "d": 1157.1437250000017,
      "v": 127
    },
    {
      "midi": 63,
      "hit": false,
      "t": 189714.42800000028,
      "d": 1566.6678416666691,
      "v": 31
    },
    {
      "midi": 60,
      "hit": false,
      "t": 189714.42800000028,
      "d": 2285.716000000015,
      "v": 64
    },
    {
      "midi": 66,
      "hit": false,
      "t": 189714.42800000028,
      "d": 2285.716000000015,
      "v": 50
    },
    {
      "midi": 68,
      "hit": false,
      "t": 189714.42800000028,
      "d": 2285.716000000015,
      "v": 43
    },
    {
      "midi": 63,
      "hit": false,
      "t": 190000.14249999783,
      "d": 814.2863249999937,
      "v": 127
    },
    {
      "midi": 66,
      "hit": false,
      "t": 190000.14249999783,
      "d": 814.2863249999937,
      "v": 127
    },
    {
      "midi": 74,
      "hit": false,
      "t": 190000.14249999783,
      "d": 814.2863249999937,
      "v": 127
    },
    {
      "midi": 44,
      "hit": false,
      "t": 190857.28599999784,
      "d": 1142.8580000000075,
      "v": 127
    },
    {
      "midi": 63,
      "hit": false,
      "t": 191428.7150000003,
      "d": 571.4290000000037,
      "v": 54
    },
    {
      "midi": 72,
      "hit": false,
      "t": 191714.42949999784,
      "d": 271.4287750000076,
      "v": 127
    },
    {
      "midi": 60,
      "hit": false,
      "t": 192000.14399999785,
      "d": 271.4287750000076,
      "v": 127
    },
    {
      "midi": 67,
      "hit": false,
      "t": 192000.14399999785,
      "d": 271.4287750000076,
      "v": 127
    },
    {
      "midi": 71,
      "hit": false,
      "t": 192000.14399999785,
      "d": 271.4287750000076,
      "v": 127
    },
    {
      "midi": 43,
      "hit": false,
      "t": 192000.14399999785,
      "d": 1066.6674666666659,
      "v": 127
    },
    {
      "midi": 60,
      "hit": false,
      "t": 192000.1440000003,
      "d": 1142.8580000000075,
      "v": 52
    },
    {
      "midi": 67,
      "hit": false,
      "t": 192000.1440000003,
      "d": 1142.8580000000075,
      "v": 73
    },
    {
      "midi": 72,
      "hit": false,
      "t": 192000.1440000003,
      "d": 1142.8580000000075,
      "v": 58
    },
    {
      "midi": 69,
      "hit": false,
      "t": 192285.85849999785,
      "d": 271.4287750000076,
      "v": 127
    },
    {
      "midi": 67,
      "hit": false,
      "t": 192571.57299999785,
      "d": 271.4287750000076,
      "v": 127
    },
    {
      "midi": 62,
      "hit": false,
      "t": 192571.5730000003,
      "d": 571.4290000000037,
      "v": 50
    },
    {
      "midi": 59,
      "hit": false,
      "t": 192857.28749999785,
      "d": 533.3337333333329,
      "v": 127
    },
    {
      "midi": 62,
      "hit": false,
      "t": 192857.28749999785,
      "d": 557.1432750000095,
      "v": 127
    },
    {
      "midi": 67,
      "hit": false,
      "t": 192857.28749999785,
      "d": 557.1432750000095,
      "v": 127
    },
    {
      "midi": 43,
      "hit": false,
      "t": 193143.00199999785,
      "d": 1119.048458333331,
      "v": 127
    },
    {
      "midi": 59,
      "hit": false,
      "t": 193143.0020000003,
      "d": 1142.8580000000075,
      "v": 67
    },
    {
      "midi": 67,
      "hit": false,
      "t": 193143.0020000003,
      "d": 1142.8580000000075,
      "v": 63
    },
    {
      "midi": 59,
      "hit": false,
      "t": 193428.71649999786,
      "d": 271.4287750000076,
      "v": 127
    },
    {
      "midi": 62,
      "hit": false,
      "t": 193714.43099999786,
      "d": 271.4287750000076,
      "v": 127
    },
    {
      "midi": 67,
      "hit": false,
      "t": 194000.14549999786,
      "d": 271.4287749999785,
      "v": 127
    },
    {
      "midi": 53,
      "hit": false,
      "t": 194285.85999999783,
      "d": 271.4287750000076,
      "v": 127
    },
    {
      "midi": 62,
      "hit": false,
      "t": 194285.85999999783,
      "d": 271.4287750000076,
      "v": 127
    },
    {
      "midi": 65,
      "hit": false,
      "t": 194285.85999999783,
      "d": 271.4287750000076,
      "v": 127
    },
    {
      "midi": 71,
      "hit": false,
      "t": 194285.85999999783,
      "d": 271.4287750000076,
      "v": 127
    },
    {
      "midi": 59,
      "hit": false,
      "t": 194285.8600000003,
      "d": 1142.8580000000075,
      "v": 67
    },
    {
      "midi": 65,
      "hit": false,
      "t": 194285.8600000003,
      "d": 1142.8580000000075,
      "v": 63
    },
    {
      "midi": 53,
      "hit": false,
      "t": 194571.57449999783,
      "d": 271.4287750000076,
      "v": 127
    },
    {
      "midi": 62,
      "hit": false,
      "t": 194571.57449999783,
      "d": 271.4287750000076,
      "v": 127
    },
    {
      "midi": 65,
      "hit": false,
      "t": 194571.57449999783,
      "d": 271.4287750000076,
      "v": 127
    },
    {
      "midi": 71,
      "hit": false,
      "t": 194571.57449999783,
      "d": 271.4287750000076,
      "v": 127
    },
    {
      "midi": 53,
      "hit": false,
      "t": 194857.28899999784,
      "d": 271.4287750000076,
      "v": 127
    },
    {
      "midi": 62,
      "hit": false,
      "t": 194857.28899999784,
      "d": 271.4287750000076,
      "v": 127
    },
    {
      "midi": 65,
      "hit": false,
      "t": 194857.28899999784,
      "d": 271.4287750000076,
      "v": 127
    },
    {
      "midi": 71,
      "hit": false,
      "t": 194857.28899999784,
      "d": 271.4287750000076,
      "v": 127
    },
    {
      "midi": 51,
      "hit": false,
      "t": 195143.00349999784,
      "d": 542.8575499999861,
      "v": 127
    },
    {
      "midi": 63,
      "hit": false,
      "t": 195143.00349999784,
      "d": 542.8575499999861,
      "v": 127
    },
    {
      "midi": 67,
      "hit": false,
      "t": 195143.00349999784,
      "d": 542.8575499999861,
      "v": 127
    },
    {
      "midi": 72,
      "hit": false,
      "t": 195143.00349999784,
      "d": 542.8575499999861,
      "v": 127
    },
    {
      "midi": 55,
      "hit": false,
      "t": 195428.7180000003,
      "d": 238.09541666667792,
      "v": 67
    },
    {
      "midi": 63,
      "hit": false,
      "t": 195428.7180000003,
      "d": 238.09541666667792,
      "v": 63
    },
    {
      "midi": 50,
      "hit": false,
      "t": 195714.4324999978,
      "d": 542.8575499999861,
      "v": 127
    },
    {
      "midi": 71,
      "hit": false,
      "t": 195714.4324999978,
      "d": 747.6196083333052,
      "v": 127
    },
    {
      "midi": 67,
      "hit": false,
      "t": 195714.4324999978,
      "d": 761.9053333332995,
      "v": 127
    },
    {
      "midi": 74,
      "hit": false,
      "t": 195714.4324999978,
      "d": 761.9053333332995,
      "v": 127
    },
    {
      "midi": 59,
      "hit": false,
      "t": 195714.43250000032,
      "d": 847.6196833333233,
      "v": 67
    },
    {
      "midi": 67,
      "hit": false,
      "t": 195714.43250000032,
      "d": 847.6196833333233,
      "v": 63
    },
    {
      "midi": 43,
      "hit": false,
      "t": 196285.8614999978,
      "d": 2442.85897500001,
      "v": 127
    },
    {
      "midi": 75,
      "hit": false,
      "t": 196571.5759999978,
      "d": 571.4290000000037,
      "v": 127
    },
    {
      "midi": 36,
      "hit": false,
      "t": 196571.5759999978,
      "d": 1142.8580000000075,
      "v": 127
    },
    {
      "midi": 60,
      "hit": false,
      "t": 196571.5760000003,
      "d": 1566.6678416666691,
      "v": 31
    },
    {
      "midi": 55,
      "hit": false,
      "t": 196571.5760000003,
      "d": 2285.716000000015,
      "v": 64
    },
    {
      "midi": 63,
      "hit": false,
      "t": 196571.5760000003,
      "d": 2285.716000000015,
      "v": 50
    },
    {
      "midi": 67,
      "hit": false,
      "t": 196571.5760000003,
      "d": 2285.716000000015,
      "v": 43
    },
    {
      "midi": 63,
      "hit": false,
      "t": 196857.2904999978,
      "d": 271.4287750000076,
      "v": 127
    },
    {
      "midi": 67,
      "hit": false,
      "t": 197143.0049999978,
      "d": 271.4287750000076,
      "v": 127
    },
    {
      "midi": 63,
      "hit": false,
      "t": 197428.7194999978,
      "d": 271.4287750000076,
      "v": 127
    },
    {
      "midi": 72,
      "hit": false,
      "t": 197714.4339999978,
      "d": 271.4287750000076,
      "v": 127
    },
    {
      "midi": 48,
      "hit": false,
      "t": 197714.4339999978,
      "d": 1128.5722750000132,
      "v": 127
    },
    {
      "midi": 63,
      "hit": false,
      "t": 198000.1484999978,
      "d": 271.4287750000076,
      "v": 127
    },
    {
      "midi": 67,
      "hit": false,
      "t": 198285.8629999978,
      "d": 271.4287750000076,
      "v": 127
    },
    {
      "midi": 60,
      "hit": false,
      "t": 198285.8630000003,
      "d": 571.4290000000037,
      "v": 54
    },
    {
      "midi": 63,
      "hit": false,
      "t": 198571.5774999978,
      "d": 271.4287750000076,
      "v": 127
    },
    {
      "midi": 75,
      "hit": false,
      "t": 198857.2919999978,
      "d": 557.1432750000095,
      "v": 127
    },
    {
      "midi": 36,
      "hit": false,
      "t": 198857.2919999978,
      "d": 1119.048458333331,
      "v": 127
    },
    {
      "midi": 60,
      "hit": false,
      "t": 198857.2920000003,
      "d": 1228.5723500000022,
      "v": 51
    },
    {
      "midi": 63,
      "hit": false,
      "t": 198857.2920000003,
      "d": 1433.3344083333504,
      "v": 59
    },
    {
      "midi": 68,
      "hit": false,
      "t": 198857.2920000003,
      "d": 1623.8107416666753,
      "v": 49
    },
    {
      "midi": 72,
      "hit": false,
      "t": 198857.2920000003,
      "d": 2285.716000000015,
      "v": 56
    },
    {
      "midi": 63,
      "hit": false,
      "t": 199143.0064999978,
      "d": 271.4287750000076,
      "v": 127
    },
    {
      "midi": 68,
      "hit": false,
      "t": 199428.7209999978,
      "d": 271.4287750000076,
      "v": 127
    },
    {
      "midi": 63,
      "hit": false,
      "t": 199714.4354999978,
      "d": 271.4287749999785,
      "v": 127
    },
    {
      "midi": 72,
      "hit": false,
      "t": 200000.14999999778,
      "d": 271.4287750000076,
      "v": 127
    },
    {
      "midi": 48,
      "hit": false,
      "t": 200000.14999999778,
      "d": 1128.5722750000132,
      "v": 127
    },
    {
      "midi": 63,
      "hit": false,
      "t": 200285.86449999778,
      "d": 271.4287750000076,
      "v": 127
    },
    {
      "midi": 60,
      "hit": false,
      "t": 200285.86450000032,
      "d": 857.1435000000056,
      "v": 49
    },
    {
      "midi": 68,
      "hit": false,
      "t": 200571.5789999978,
      "d": 271.4287750000076,
      "v": 127
    },
    {
      "midi": 63,
      "hit": false,
      "t": 200571.57900000032,
      "d": 571.4290000000037,
      "v": 62
    },
    {
      "midi": 63,
      "hit": false,
      "t": 200857.2934999978,
      "d": 271.4287750000076,
      "v": 127
    },
    {
      "midi": 68,
      "hit": false,
      "t": 200857.29350000032,
      "d": 285.71450000000186,
      "v": 51
    },
    {
      "midi": 66,
      "hit": false,
      "t": 201143.0079999978,
      "d": 542.8575499999861,
      "v": 127
    },
    {
      "midi": 69,
      "hit": false,
      "t": 201143.0079999978,
      "d": 542.8575499999861,
      "v": 127
    },
    {
      "midi": 74,
      "hit": false,
      "t": 201143.0079999978,
      "d": 542.8575499999861,
      "v": 127
    },
    {
      "midi": 35,
      "hit": false,
      "t": 201143.0079999978,
      "d": 1142.8579999999783,
      "v": 127
    },
    {
      "midi": 66,
      "hit": false,
      "t": 201143.00800000032,
      "d": 85.71434999999474,
      "v": 34
    },
    {
      "midi": 59,
      "hit": false,
      "t": 201143.00800000032,
      "d": 457.14319999999134,
      "v": 58
    },
    {
      "midi": 62,
      "hit": false,
      "t": 201143.00800000032,
      "d": 1142.8580000000075,
      "v": 39
    },
    {
      "midi": 69,
      "hit": false,
      "t": 201143.00800000032,
      "d": 1142.8580000000075,
      "v": 66
    },
    {
      "midi": 72,
      "hit": false,
      "t": 201714.43699999776,
      "d": 271.4287750000076,
      "v": 127
    },
    {
      "midi": 59,
      "hit": false,
      "t": 201714.43700000033,
      "d": 571.4290000000037,
      "v": 64
    },
    {
      "midi": 71,
      "hit": false,
      "t": 202000.15149999777,
      "d": 547.6194583333272,
      "v": 127
    },
    {
      "midi": 67,
      "hit": false,
      "t": 202000.15149999777,
      "d": 557.1432749999803,
      "v": 127
    },
    {
      "midi": 66,
      "hit": false,
      "t": 202000.15150000033,
      "d": 285.71450000000186,
      "v": 51
    },
    {
      "midi": 47,
      "hit": false,
      "t": 202285.86599999777,
      "d": 1119.0484583333018,
      "v": 127
    },
    {
      "midi": 59,
      "hit": false,
      "t": 202285.86600000033,
      "d": 1142.8580000000075,
      "v": 52
    },
    {
      "midi": 67,
      "hit": false,
      "t": 202285.86600000033,
      "d": 1142.8580000000075,
      "v": 73
    },
    {
      "midi": 71,
      "hit": false,
      "t": 202285.86600000033,
      "d": 1142.8580000000075,
      "v": 58
    },
    {
      "midi": 72,
      "hit": false,
      "t": 202571.58049999774,
      "d": 271.4287750000076,
      "v": 127
    },
    {
      "midi": 74,
      "hit": false,
      "t": 202857.29499999774,
      "d": 542.8575499999861,
      "v": 127
    },
    {
      "midi": 62,
      "hit": false,
      "t": 202857.29500000033,
      "d": 571.4290000000037,
      "v": 50
    },
    {
      "midi": 74,
      "hit": false,
      "t": 203428.72399999775,
      "d": 271.4287750000076,
      "v": 125
    },
    {
      "midi": 34,
      "hit": false,
      "t": 203428.72399999775,
      "d": 1128.5722750000132,
      "v": 125
    },
    {
      "midi": 57,
      "hit": false,
      "t": 203428.72400000034,
      "d": 1142.8580000000075,
      "v": 52
    },
    {
      "midi": 62,
      "hit": false,
      "t": 203428.72400000034,
      "d": 1142.8580000000075,
      "v": 73
    },
    {
      "midi": 65,
      "hit": false,
      "t": 203428.72400000034,
      "d": 1142.8580000000075,
      "v": 58
    },
    {
      "midi": 62,
      "hit": false,
      "t": 203714.43849999775,
      "d": 271.4287750000076,
      "v": 123
    },
    {
      "midi": 65,
      "hit": false,
      "t": 204000.15299999775,
      "d": 271.4287750000076,
      "v": 121
    },
    {
      "midi": 58,
      "hit": false,
      "t": 204000.15300000034,
      "d": 571.4290000000037,
      "v": 50
    },
    {
      "midi": 69,
      "hit": false,
      "t": 204285.86749999775,
      "d": 271.4287750000076,
      "v": 119
    },
    {
      "midi": 67,
      "hit": false,
      "t": 204571.58199999775,
      "d": 271.4287750000076,
      "v": 127
    },
    {
      "midi": 46,
      "hit": false,
      "t": 204571.58199999775,
      "d": 1128.5722750000132,
      "v": 119
    },
    {
      "midi": 55,
      "hit": false,
      "t": 204571.58200000034,
      "d": 1142.8580000000075,
      "v": 67
    },
    {
      "midi": 62,
      "hit": false,
      "t": 204571.58200000034,
      "d": 1142.8580000000075,
      "v": 63
    },
    {
      "midi": 62,
      "hit": false,
      "t": 204857.29649999776,
      "d": 271.4287750000076,
      "v": 117
    },
    {
      "midi": 65,
      "hit": false,
      "t": 205143.01099999776,
      "d": 271.4287750000076,
      "v": 115
    },
    {
      "midi": 67,
      "hit": false,
      "t": 205428.72549999776,
      "d": 271.4287750000076,
      "v": 113
    },
    {
      "midi": 64,
      "hit": false,
      "t": 205714.43999999776,
      "d": 542.8575499999861,
      "v": 111
    },
    {
      "midi": 67,
      "hit": false,
      "t": 205714.43999999776,
      "d": 542.8575499999861,
      "v": 111
    },
    {
      "midi": 72,
      "hit": false,
      "t": 205714.43999999776,
      "d": 542.8575499999861,
      "v": 111
    },
    {
      "midi": 33,
      "hit": false,
      "t": 205714.43999999776,
      "d": 1128.572274999984,
      "v": 111
    },
    {
      "midi": 57,
      "hit": false,
      "t": 205714.44000000035,
      "d": 1566.6678416666691,
      "v": 31
    },
    {
      "midi": 55,
      "hit": false,
      "t": 205714.44000000035,
      "d": 2285.716000000015,
      "v": 64
    },
    {
      "midi": 60,
      "hit": false,
      "t": 205714.44000000035,
      "d": 2285.716000000015,
      "v": 50
    },
    {
      "midi": 64,
      "hit": false,
      "t": 205714.44000000035,
      "d": 2285.716000000015,
      "v": 43
    },
    {
      "midi": 64,
      "hit": false,
      "t": 206285.86899999774,
      "d": 271.4287750000076,
      "v": 109
    },
    {
      "midi": 67,
      "hit": false,
      "t": 206285.86899999774,
      "d": 271.4287750000076,
      "v": 109
    },
    {
      "midi": 72,
      "hit": false,
      "t": 206285.86899999774,
      "d": 271.4287750000076,
      "v": 109
    },
    {
      "midi": 72,
      "hit": false,
      "t": 206571.58349999774,
      "d": 785.7148750000051,
      "v": 107
    },
    {
      "midi": 64,
      "hit": false,
      "t": 206571.58349999774,
      "d": 838.0958666666702,
      "v": 107
    },
    {
      "midi": 67,
      "hit": false,
      "t": 206571.58349999774,
      "d": 838.0958666666702,
      "v": 107
    },
    {
      "midi": 45,
      "hit": false,
      "t": 206857.29799999774,
      "d": 1142.8580000000075,
      "v": 105
    },
    {
      "midi": 72,
      "hit": false,
      "t": 207428.72699999774,
      "d": 271.4287750000076,
      "v": 103
    },
    {
      "midi": 57,
      "hit": false,
      "t": 207428.72700000036,
      "d": 571.4290000000037,
      "v": 54
    },
    {
      "midi": 63,
      "hit": false,
      "t": 207714.44149999775,
      "d": 271.4287750000076,
      "v": 101
    },
    {
      "midi": 66,
      "hit": false,
      "t": 207714.44149999775,
      "d": 271.4287750000076,
      "v": 101
    },
    {
      "midi": 72,
      "hit": false,
      "t": 207714.44149999775,
      "d": 271.4287750000076,
      "v": 101
    },
    {
      "midi": 32,
      "hit": false,
      "t": 208000.15599999775,
      "d": 1157.1437250000017,
      "v": 99
    },
    {
      "midi": 63,
      "hit": false,
      "t": 208000.15600000037,
      "d": 1566.6678416666691,
      "v": 31
    },
    {
      "midi": 60,
      "hit": false,
      "t": 208000.15600000037,
      "d": 2285.716000000015,
      "v": 64
    },
    {
      "midi": 66,
      "hit": false,
      "t": 208000.15600000037,
      "d": 2285.716000000015,
      "v": 50
    },
    {
      "midi": 68,
      "hit": false,
      "t": 208000.15600000037,
      "d": 2285.716000000015,
      "v": 43
    },
    {
      "midi": 63,
      "hit": false,
      "t": 208285.87049999775,
      "d": 814.2863249999937,
      "v": 97
    },
    {
      "midi": 66,
      "hit": false,
      "t": 208285.87049999775,
      "d": 814.2863249999937,
      "v": 97
    },
    {
      "midi": 74,
      "hit": false,
      "t": 208285.87049999775,
      "d": 814.2863249999937,
      "v": 97
    },
    {
      "midi": 44,
      "hit": false,
      "t": 209143.01399999775,
      "d": 1142.8580000000075,
      "v": 95
    },
    {
      "midi": 63,
      "hit": false,
      "t": 209714.44300000038,
      "d": 571.4290000000037,
      "v": 54
    },
    {
      "midi": 72,
      "hit": false,
      "t": 210000.15749999776,
      "d": 271.4287750000076,
      "v": 93
    },
    {
      "midi": 60,
      "hit": false,
      "t": 210285.87199999776,
      "d": 271.4287750000076,
      "v": 91
    },
    {
      "midi": 67,
      "hit": false,
      "t": 210285.87199999776,
      "d": 271.4287750000076,
      "v": 91
    },
    {
      "midi": 71,
      "hit": false,
      "t": 210285.87199999776,
      "d": 271.4287750000076,
      "v": 91
    },
    {
      "midi": 43,
      "hit": false,
      "t": 210285.87199999776,
      "d": 1066.6674666666659,
      "v": 91
    },
    {
      "midi": 60,
      "hit": false,
      "t": 210285.87200000038,
      "d": 1142.8580000000075,
      "v": 52
    },
    {
      "midi": 67,
      "hit": false,
      "t": 210285.87200000038,
      "d": 1142.8580000000075,
      "v": 73
    },
    {
      "midi": 72,
      "hit": false,
      "t": 210285.87200000038,
      "d": 1142.8580000000075,
      "v": 58
    },
    {
      "midi": 69,
      "hit": false,
      "t": 210571.58649999776,
      "d": 271.4287750000076,
      "v": 89
    },
    {
      "midi": 67,
      "hit": false,
      "t": 210857.30099999777,
      "d": 271.4287750000076,
      "v": 87
    },
    {
      "midi": 62,
      "hit": false,
      "t": 210857.30100000039,
      "d": 571.4290000000037,
      "v": 50
    },
    {
      "midi": 59,
      "hit": false,
      "t": 211143.01549999777,
      "d": 533.3337333333329,
      "v": 85
    },
    {
      "midi": 62,
      "hit": false,
      "t": 211143.01549999777,
      "d": 557.1432750000095,
      "v": 85
    },
    {
      "midi": 67,
      "hit": false,
      "t": 211143.01549999777,
      "d": 557.1432750000095,
      "v": 85
    },
    {
      "midi": 43,
      "hit": false,
      "t": 211428.72999999777,
      "d": 1119.048458333331,
      "v": 83
    },
    {
      "midi": 59,
      "hit": false,
      "t": 211428.7300000004,
      "d": 1142.8580000000075,
      "v": 52
    },
    {
      "midi": 67,
      "hit": false,
      "t": 211428.7300000004,
      "d": 1142.8580000000075,
      "v": 73
    },
    {
      "midi": 71,
      "hit": false,
      "t": 211428.7300000004,
      "d": 1142.8580000000075,
      "v": 58
    },
    {
      "midi": 59,
      "hit": false,
      "t": 211714.44449999777,
      "d": 271.4287750000076,
      "v": 81
    },
    {
      "midi": 62,
      "hit": false,
      "t": 212000.15899999777,
      "d": 271.4287750000076,
      "v": 78
    },
    {
      "midi": 62,
      "hit": false,
      "t": 212000.1590000004,
      "d": 571.4290000000037,
      "v": 50
    },
    {
      "midi": 67,
      "hit": false,
      "t": 212285.87349999778,
      "d": 271.4287749999785,
      "v": 77
    },
    {
      "midi": 53,
      "hit": false,
      "t": 212571.58799999775,
      "d": 271.4287750000076,
      "v": 75
    },
    {
      "midi": 62,
      "hit": false,
      "t": 212571.58799999775,
      "d": 271.4287750000076,
      "v": 75
    },
    {
      "midi": 65,
      "hit": false,
      "t": 212571.58799999775,
      "d": 271.4287750000076,
      "v": 75
    },
    {
      "midi": 71,
      "hit": false,
      "t": 212571.58799999775,
      "d": 271.4287750000076,
      "v": 75
    },
    {
      "midi": 59,
      "hit": false,
      "t": 212571.5880000004,
      "d": 809.5244166666525,
      "v": 67
    },
    {
      "midi": 65,
      "hit": false,
      "t": 212571.5880000004,
      "d": 809.5244166666525,
      "v": 63
    },
    {
      "midi": 53,
      "hit": false,
      "t": 212857.30249999775,
      "d": 271.4287750000076,
      "v": 73
    },
    {
      "midi": 62,
      "hit": false,
      "t": 212857.30249999775,
      "d": 271.4287750000076,
      "v": 73
    },
    {
      "midi": 65,
      "hit": false,
      "t": 212857.30249999775,
      "d": 271.4287750000076,
      "v": 127
    },
    {
      "midi": 71,
      "hit": false,
      "t": 212857.30249999775,
      "d": 271.4287750000076,
      "v": 73
    },
    {
      "midi": 53,
      "hit": false,
      "t": 213143.01699999775,
      "d": 271.4287750000076,
      "v": 71
    },
    {
      "midi": 62,
      "hit": false,
      "t": 213143.01699999775,
      "d": 271.4287750000076,
      "v": 71
    },
    {
      "midi": 65,
      "hit": false,
      "t": 213143.01699999775,
      "d": 271.4287750000076,
      "v": 71
    },
    {
      "midi": 71,
      "hit": false,
      "t": 213143.01699999775,
      "d": 271.4287750000076,
      "v": 71
    },
    {
      "midi": 51,
      "hit": false,
      "t": 213428.73149999775,
      "d": 542.8575499999861,
      "v": 71
    },
    {
      "midi": 63,
      "hit": false,
      "t": 213428.73149999775,
      "d": 542.8575499999861,
      "v": 127
    },
    {
      "midi": 67,
      "hit": false,
      "t": 213428.73149999775,
      "d": 542.8575499999861,
      "v": 127
    },
    {
      "midi": 72,
      "hit": false,
      "t": 213428.73149999775,
      "d": 542.8575499999861,
      "v": 71
    },
    {
      "midi": 55,
      "hit": false,
      "t": 213428.73150000037,
      "d": 847.6196833333233,
      "v": 67
    },
    {
      "midi": 63,
      "hit": false,
      "t": 213428.73150000037,
      "d": 847.6196833333233,
      "v": 63
    },
    {
      "midi": 50,
      "hit": false,
      "t": 214000.16049999773,
      "d": 542.8575499999861,
      "v": 69
    },
    {
      "midi": 71,
      "hit": false,
      "t": 214000.16049999773,
      "d": 747.6196083333052,
      "v": 69
    },
    {
      "midi": 67,
      "hit": false,
      "t": 214000.16049999773,
      "d": 761.9053333332995,
      "v": 69
    },
    {
      "midi": 74,
      "hit": false,
      "t": 214000.16049999773,
      "d": 761.9053333332995,
      "v": 69
    },
    {
      "midi": 59,
      "hit": false,
      "t": 214285.87500000035,
      "d": 571.4290000000037,
      "v": 67
    },
    {
      "midi": 67,
      "hit": false,
      "t": 214285.87500000035,
      "d": 571.4290000000037,
      "v": 63
    },
    {
      "midi": 43,
      "hit": false,
      "t": 214571.5894999977,
      "d": 271.4287749999785,
      "v": 67
    },
    {
      "midi": 41,
      "hit": false,
      "t": 214857.30399999768,
      "d": 2171.4302000000025,
      "v": 127
    },
    {
      "midi": 59,
      "hit": false,
      "t": 214857.30399999768,
      "d": 2171.4302000000025,
      "v": 127
    },
    {
      "midi": 62,
      "hit": false,
      "t": 214857.30399999768,
      "d": 2171.4302000000025,
      "v": 127
    },
    {
      "midi": 67,
      "hit": false,
      "t": 214857.30399999768,
      "d": 2171.4302000000025,
      "v": 127
    },
    {
      "midi": 48,
      "hit": false,
      "t": 217143.0199999977,
      "d": 2171.4302000000025,
      "v": 127
    },
    {
      "midi": 60,
      "hit": false,
      "t": 217143.0199999977,
      "d": 2171.4302000000025,
      "v": 127
    },
    {
      "midi": 63,
      "hit": false,
      "t": 217143.0199999977,
      "d": 2171.4302000000025,
      "v": 127
    },
    {
      "midi": 67,
      "hit": false,
      "t": 217143.0199999977,
      "d": 2171.4302000000025,
      "v": 127
    },
    {
      "midi": 72,
      "hit": false,
      "t": 217143.0199999977,
      "d": 2171.4302000000025,
      "v": 127
    },
    {
      "midi": 41,
      "hit": false,
      "t": 219428.7359999977,
      "d": 2171.4302000000025,
      "v": 127
    },
    {
      "midi": 56,
      "hit": false,
      "t": 219428.7359999977,
      "d": 2171.4302000000025,
      "v": 127
    },
    {
      "midi": 60,
      "hit": false,
      "t": 219428.7359999977,
      "d": 2171.4302000000025,
      "v": 127
    },
    {
      "midi": 65,
      "hit": false,
      "t": 219428.7359999977,
      "d": 2171.4302000000025,
      "v": 127
    },
    {
      "midi": 68,
      "hit": false,
      "t": 219428.7359999977,
      "d": 2171.4302000000025,
      "v": 127
    },
    {
      "midi": 67,
      "hit": false,
      "t": 221714.45199999772,
      "d": 1485.7153999999864,
      "v": 127
    },
    {
      "midi": 62,
      "hit": false,
      "t": 221714.45199999772,
      "d": 1509.524941666663,
      "v": 127
    },
    {
      "midi": 59,
      "hit": false,
      "t": 221714.45199999772,
      "d": 1523.8106666666572,
      "v": 127
    },
    {
      "midi": 43,
      "hit": false,
      "t": 221714.45199999772,
      "d": 2261.9064583333093,
      "v": 127
    },
    {
      "midi": 65,
      "hit": false,
      "t": 223428.7389999977,
      "d": 542.8575499999861,
      "v": 127
    },
    {
      "midi": 48,
      "hit": false,
      "t": 224000.1679999977,
      "d": 2171.4302000000025,
      "v": 127
    },
    {
      "midi": 55,
      "hit": false,
      "t": 224000.1679999977,
      "d": 2171.4302000000025,
      "v": 127
    },
    {
      "midi": 60,
      "hit": false,
      "t": 224000.1679999977,
      "d": 2171.4302000000025,
      "v": 127
    },
    {
      "midi": 63,
      "hit": false,
      "t": 224000.1679999977,
      "d": 2195.239741666679,
      "v": 127
    },
    {
      "midi": 44,
      "hit": false,
      "t": 226285.88399999772,
      "d": 2171.4302000000025,
      "v": 127
    },
    {
      "midi": 56,
      "hit": false,
      "t": 226285.88399999772,
      "d": 2171.4302000000025,
      "v": 127
    },
    {
      "midi": 60,
      "hit": false,
      "t": 226285.88399999772,
      "d": 2171.4302000000025,
      "v": 127
    },
    {
      "midi": 63,
      "hit": false,
      "t": 226285.88399999772,
      "d": 2171.4302000000025,
      "v": 127
    },
    {
      "midi": 37,
      "hit": false,
      "t": 228571.59999999774,
      "d": 2171.4302000000025,
      "v": 127
    },
    {
      "midi": 56,
      "hit": false,
      "t": 228571.59999999774,
      "d": 2171.4302000000025,
      "v": 127
    },
    {
      "midi": 61,
      "hit": false,
      "t": 228571.59999999774,
      "d": 2171.4302000000025,
      "v": 127
    },
    {
      "midi": 65,
      "hit": false,
      "t": 228571.59999999774,
      "d": 2171.4302000000025,
      "v": 127
    },
    {
      "midi": 63,
      "hit": false,
      "t": 230857.31599999775,
      "d": 1485.7153999999864,
      "v": 127
    },
    {
      "midi": 59,
      "hit": false,
      "t": 230857.31599999775,
      "d": 1500.0011249999807,
      "v": 127
    },
    {
      "midi": 53,
      "hit": false,
      "t": 230857.31599999775,
      "d": 1538.0963916666515,
      "v": 127
    },
    {
      "midi": 43,
      "hit": false,
      "t": 230857.31599999775,
      "d": 2271.4302749999624,
      "v": 127
    },
    {
      "midi": 62,
      "hit": false,
      "t": 232571.60299999773,
      "d": 542.8575499999861,
      "v": 127
    },
    {
      "midi": 48,
      "hit": false,
      "t": 233143.0319999977,
      "d": 2171.4302000000025,
      "v": 127
    },
    {
      "midi": 51,
      "hit": false,
      "t": 233143.0319999977,
      "d": 2171.4302000000025,
      "v": 127
    },
    {
      "midi": 55,
      "hit": false,
      "t": 233143.0319999977,
      "d": 2171.4302000000025,
      "v": 127
    },
    {
      "midi": 60,
      "hit": false,
      "t": 233143.0319999977,
      "d": 2171.4302000000025,
      "v": 127
    },
    {
      "midi": 48,
      "hit": false,
      "t": 235428.74799999772,
      "d": 2261.9064583333384,
      "v": 127
    },
    {
      "midi": 67,
      "hit": false,
      "t": 235428.74799999772,
      "d": 2285.716000000015,
      "v": 127
    },
    {
      "midi": 72,
      "hit": false,
      "t": 235428.74799999772,
      "d": 2285.716000000015,
      "v": 127
    },
    {
      "midi": 55,
      "hit": false,
      "t": 235428.74799999772,
      "d": 2300.001725000009,
      "v": 127
    },
    {
      "midi": 60,
      "hit": false,
      "t": 235428.74799999772,
      "d": 2300.001725000009,
      "v": 127
    },
    {
      "midi": 63,
      "hit": false,
      "t": 235428.74799999772,
      "d": 2300.001725000009,
      "v": 127
    }
  ]
}