{
  "jsonPath": "Ambient/Focus/Evolution/the-old-songs.json",
  "path": "Ambient\\Focus\\Evolution\\The Old Songs.mid",
  "name": "The Old Songs",
  "difficulty": "Advanced",
  "bpm": 90.99995298335763,
  "notes": [
    {
      "midi": 53,
      "hit": false,
      "t": 5274.728,
      "d": 274.7254166666671,
      "v": 37
    },
    {
      "midi": 55,
      "hit": false,
      "t": 5274.728,
      "d": 274.7254166666671,
      "v": 31
    },
    {
      "midi": 60,
      "hit": false,
      "t": 5274.728,
      "d": 274.7254166666671,
      "v": 46
    },
    {
      "midi": 72,
      "hit": false,
      "t": 5274.728,
      "d": 862.6378083333339,
      "v": 114
    },
    {
      "midi": 53,
      "hit": false,
      "t": 5274.728,
      "d": 2780.2212166666677,
      "v": 114
    },
    {
      "midi": 64,
      "hit": false,
      "t": 5302.200541666667,
      "d": 247.25287500000013,
      "v": 39
    },
    {
      "midi": 76,
      "hit": false,
      "t": 5307.69505,
      "d": 840.6597750000001,
      "v": 114
    },
    {
      "midi": 41,
      "hit": false,
      "t": 5604.3985,
      "d": 945.0554333333339,
      "v": 37
    },
    {
      "midi": 57,
      "hit": false,
      "t": 5604.3985,
      "d": 945.0554333333339,
      "v": 31
    },
    {
      "midi": 60,
      "hit": false,
      "t": 5604.3985,
      "d": 945.0554333333339,
      "v": 46
    },
    {
      "midi": 60,
      "hit": false,
      "t": 5604.3985,
      "d": 467.0332083333333,
      "v": 114
    },
    {
      "midi": 65,
      "hit": false,
      "t": 5631.871041666667,
      "d": 917.5828916666669,
      "v": 39
    },
    {
      "midi": 67,
      "hit": false,
      "t": 5934.069,
      "d": 450.54968333333363,
      "v": 114
    },
    {
      "midi": 69,
      "hit": false,
      "t": 6263.739500000001,
      "d": 791.2092000000002,
      "v": 114
    },
    {
      "midi": 72,
      "hit": false,
      "t": 6263.739500000001,
      "d": 1076.9236333333338,
      "v": 114
    },
    {
      "midi": 77,
      "hit": false,
      "t": 6296.706550000001,
      "d": 1038.4620750000004,
      "v": 114
    },
    {
      "midi": 41,
      "hit": false,
      "t": 6593.410000000001,
      "d": 1285.7149500000005,
      "v": 27
    },
    {
      "midi": 57,
      "hit": false,
      "t": 6593.410000000001,
      "d": 1285.7149500000005,
      "v": 44
    },
    {
      "midi": 60,
      "hit": false,
      "t": 6615.3880333333345,
      "d": 615.3849333333328,
      "v": 34
    },
    {
      "midi": 65,
      "hit": false,
      "t": 6615.3880333333345,
      "d": 807.6927249999999,
      "v": 56
    },
    {
      "midi": 60,
      "hit": false,
      "t": 6923.080500000001,
      "d": 934.0664166666666,
      "v": 114
    },
    {
      "midi": 69,
      "hit": false,
      "t": 7252.751000000001,
      "d": 252.74738333333335,
      "v": 114
    },
    {
      "midi": 72,
      "hit": false,
      "t": 7417.586250000001,
      "d": 252.74738333333335,
      "v": 114
    },
    {
      "midi": 77,
      "hit": false,
      "t": 7582.421500000001,
      "d": 500.0002583333335,
      "v": 114
    },
    {
      "midi": 72,
      "hit": false,
      "t": 7912.092000000001,
      "d": 840.6597750000001,
      "v": 114
    },
    {
      "midi": 67,
      "hit": false,
      "t": 7912.092000000001,
      "d": 862.6378083333329,
      "v": 114
    },
    {
      "midi": 50,
      "hit": false,
      "t": 7912.092000000001,
      "d": 2829.6717916666657,
      "v": 114
    },
    {
      "midi": 50,
      "hit": false,
      "t": 7912.0920000000015,
      "d": 274.7254166666671,
      "v": 37
    },
    {
      "midi": 55,
      "hit": false,
      "t": 7912.0920000000015,
      "d": 274.7254166666671,
      "v": 31
    },
    {
      "midi": 60,
      "hit": false,
      "t": 7912.0920000000015,
      "d": 274.7254166666671,
      "v": 46
    },
    {
      "midi": 76,
      "hit": false,
      "t": 7939.5645416666675,
      "d": 879.1213333333335,
      "v": 114
    },
    {
      "midi": 64,
      "hit": false,
      "t": 7939.564541666668,
      "d": 247.25287500000013,
      "v": 39
    },
    {
      "midi": 57,
      "hit": false,
      "t": 8241.7625,
      "d": 500.0002583333335,
      "v": 114
    },
    {
      "midi": 50,
      "hit": false,
      "t": 8241.762500000003,
      "d": 945.055433333333,
      "v": 37
    },
    {
      "midi": 57,
      "hit": false,
      "t": 8241.762500000003,
      "d": 945.055433333333,
      "v": 31
    },
    {
      "midi": 62,
      "hit": false,
      "t": 8241.762500000003,
      "d": 945.055433333333,
      "v": 46
    },
    {
      "midi": 65,
      "hit": false,
      "t": 8269.235041666669,
      "d": 917.5828916666669,
      "v": 39
    },
    {
      "midi": 62,
      "hit": false,
      "t": 8571.433,
      "d": 324.17599166666696,
      "v": 114
    },
    {
      "midi": 65,
      "hit": false,
      "t": 8901.103500000001,
      "d": 824.1762499999986,
      "v": 114
    },
    {
      "midi": 69,
      "hit": false,
      "t": 8901.103500000001,
      "d": 950.5499416666644,
      "v": 114
    },
    {
      "midi": 74,
      "hit": false,
      "t": 8934.07055,
      "d": 1038.4620749999995,
      "v": 114
    },
    {
      "midi": 62,
      "hit": false,
      "t": 9560.4445,
      "d": 912.0883833333337,
      "v": 114
    },
    {
      "midi": 69,
      "hit": false,
      "t": 9571.433516666668,
      "d": 395.6046000000006,
      "v": 42
    },
    {
      "midi": 65,
      "hit": false,
      "t": 9906.598525000001,
      "d": 395.6046000000006,
      "v": 47
    },
    {
      "midi": 77,
      "hit": false,
      "t": 9917.587541666666,
      "d": 181.31877500000155,
      "v": 114
    },
    {
      "midi": 69,
      "hit": false,
      "t": 9923.082049999999,
      "d": 197.8023000000012,
      "v": 114
    },
    {
      "midi": 70,
      "hit": false,
      "t": 10054.95025,
      "d": 252.74738333333335,
      "v": 114
    },
    {
      "midi": 79,
      "hit": false,
      "t": 10054.95025,
      "d": 252.74738333333335,
      "v": 114
    },
    {
      "midi": 72,
      "hit": false,
      "t": 10219.7855,
      "d": 324.17599166666696,
      "v": 114
    },
    {
      "midi": 81,
      "hit": false,
      "t": 10219.7855,
      "d": 324.17599166666696,
      "v": 114
    },
    {
      "midi": 62,
      "hit": false,
      "t": 10225.280008333335,
      "d": 274.7254166666662,
      "v": 51
    },
    {
      "midi": 72,
      "hit": false,
      "t": 10549.456,
      "d": 824.1762500000004,
      "v": 114
    },
    {
      "midi": 81,
      "hit": false,
      "t": 10549.456,
      "d": 840.6597750000001,
      "v": 114
    },
    {
      "midi": 55,
      "hit": false,
      "t": 10549.456,
      "d": 2796.7047416666646,
      "v": 114
    },
    {
      "midi": 43,
      "hit": false,
      "t": 10549.456000000002,
      "d": 274.7254166666662,
      "v": 37
    },
    {
      "midi": 57,
      "hit": false,
      "t": 10549.456000000002,
      "d": 274.7254166666662,
      "v": 31
    },
    {
      "midi": 60,
      "hit": false,
      "t": 10549.456000000002,
      "d": 274.7254166666662,
      "v": 46
    },
    {
      "midi": 65,
      "hit": false,
      "t": 10576.928541666668,
      "d": 247.25287500000013,
      "v": 39
    },
    {
      "midi": 62,
      "hit": false,
      "t": 10879.1265,
      "d": 412.0881250000002,
      "v": 114
    },
    {
      "midi": 43,
      "hit": false,
      "t": 10879.126500000002,
      "d": 945.055433333333,
      "v": 37
    },
    {
      "midi": 55,
      "hit": false,
      "t": 10879.126500000002,
      "d": 945.055433333333,
      "v": 31
    },
    {
      "midi": 58,
      "hit": false,
      "t": 10879.126500000002,
      "d": 945.055433333333,
      "v": 46
    },
    {
      "midi": 62,
      "hit": false,
      "t": 10906.599041666668,
      "d": 917.5828916666669,
      "v": 39
    },
    {
      "midi": 65,
      "hit": false,
      "t": 10912.093550000001,
      "d": 912.0883833333337,
      "v": 49
    },
    {
      "midi": 65,
      "hit": false,
      "t": 11208.797,
      "d": 752.7476416666668,
      "v": 114
    },
    {
      "midi": 74,
      "hit": false,
      "t": 11538.4675,
      "d": 1109.890683333333,
      "v": 114
    },
    {
      "midi": 82,
      "hit": false,
      "t": 11565.940041666667,
      "d": 1054.945600000001,
      "v": 114
    },
    {
      "midi": 62,
      "hit": false,
      "t": 11868.138,
      "d": 467.0332083333342,
      "v": 114
    },
    {
      "midi": 43,
      "hit": false,
      "t": 11868.138000000003,
      "d": 1285.7149499999978,
      "v": 27
    },
    {
      "midi": 55,
      "hit": false,
      "t": 11868.138000000003,
      "d": 1285.7149499999978,
      "v": 44
    },
    {
      "midi": 58,
      "hit": false,
      "t": 11890.116033333336,
      "d": 615.3849333333328,
      "v": 34
    },
    {
      "midi": 62,
      "hit": false,
      "t": 11890.116033333336,
      "d": 807.692724999999,
      "v": 56
    },
    {
      "midi": 65,
      "hit": false,
      "t": 11917.588575000002,
      "d": 868.1323166666662,
      "v": 73
    },
    {
      "midi": 65,
      "hit": false,
      "t": 12197.808500000001,
      "d": 824.1762499999986,
      "v": 114
    },
    {
      "midi": 70,
      "hit": false,
      "t": 12527.479000000001,
      "d": 412.0881249999984,
      "v": 114
    },
    {
      "midi": 74,
      "hit": false,
      "t": 12857.1495,
      "d": 324.17599166666696,
      "v": 114
    },
    {
      "midi": 48,
      "hit": false,
      "t": 13186.82,
      "d": 626.3739499999992,
      "v": 37
    },
    {
      "midi": 53,
      "hit": false,
      "t": 13186.82,
      "d": 626.3739499999992,
      "v": 31
    },
    {
      "midi": 58,
      "hit": false,
      "t": 13186.82,
      "d": 626.3739499999992,
      "v": 46
    },
    {
      "midi": 65,
      "hit": false,
      "t": 13186.82,
      "d": 791.2091999999975,
      "v": 114
    },
    {
      "midi": 70,
      "hit": false,
      "t": 13186.82,
      "d": 791.2091999999975,
      "v": 114
    },
    {
      "midi": 60,
      "hit": false,
      "t": 13186.82,
      "d": 807.6927249999972,
      "v": 114
    },
    {
      "midi": 74,
      "hit": false,
      "t": 13186.82,
      "d": 824.1762499999968,
      "v": 114
    },
    {
      "midi": 48,
      "hit": false,
      "t": 13186.82,
      "d": 2653.8475249999938,
      "v": 114
    },
    {
      "midi": 62,
      "hit": false,
      "t": 13214.292541666666,
      "d": 598.9014083333332,
      "v": 39
    },
    {
      "midi": 77,
      "hit": false,
      "t": 13219.787049999999,
      "d": 807.6927249999972,
      "v": 114
    },
    {
      "midi": 48,
      "hit": false,
      "t": 13846.160999999998,
      "d": 626.3739499999992,
      "v": 37
    },
    {
      "midi": 55,
      "hit": false,
      "t": 13846.160999999998,
      "d": 626.3739499999992,
      "v": 31
    },
    {
      "midi": 60,
      "hit": false,
      "t": 13846.160999999998,
      "d": 626.3739499999992,
      "v": 46
    },
    {
      "midi": 64,
      "hit": false,
      "t": 13846.160999999998,
      "d": 736.2641166666654,
      "v": 114
    },
    {
      "midi": 67,
      "hit": false,
      "t": 13846.160999999998,
      "d": 752.747641666665,
      "v": 114
    },
    {
      "midi": 72,
      "hit": false,
      "t": 13846.160999999998,
      "d": 752.747641666665,
      "v": 114
    },
    {
      "midi": 64,
      "hit": false,
      "t": 13873.633541666664,
      "d": 598.9014083333332,
      "v": 39
    },
    {
      "midi": 76,
      "hit": false,
      "t": 13873.633541666664,
      "d": 840.6597749999983,
      "v": 114
    },
    {
      "midi": 60,
      "hit": false,
      "t": 14175.831499999997,
      "d": 1648.3524999999972,
      "v": 114
    },
    {
      "midi": 48,
      "hit": false,
      "t": 14505.501999999997,
      "d": 626.3739499999992,
      "v": 37
    },
    {
      "midi": 53,
      "hit": false,
      "t": 14505.501999999997,
      "d": 626.3739499999992,
      "v": 31
    },
    {
      "midi": 58,
      "hit": false,
      "t": 14505.501999999997,
      "d": 626.3739499999992,
      "v": 46
    },
    {
      "midi": 65,
      "hit": false,
      "t": 14505.501999999997,
      "d": 752.747641666665,
      "v": 114
    },
    {
      "midi": 70,
      "hit": false,
      "t": 14505.501999999997,
      "d": 840.6597749999983,
      "v": 114
    },
    {
      "midi": 74,
      "hit": false,
      "t": 14505.501999999997,
      "d": 840.6597749999983,
      "v": 114
    },
    {
      "midi": 62,
      "hit": false,
      "t": 14532.974541666663,
      "d": 598.9014083333332,
      "v": 39
    },
    {
      "midi": 77,
      "hit": false,
      "t": 14538.469049999996,
      "d": 824.1762499999986,
      "v": 114
    },
    {
      "midi": 48,
      "hit": false,
      "t": 15164.842999999995,
      "d": 626.3739499999992,
      "v": 37
    },
    {
      "midi": 55,
      "hit": false,
      "t": 15164.842999999995,
      "d": 626.3739499999992,
      "v": 31
    },
    {
      "midi": 60,
      "hit": false,
      "t": 15164.842999999995,
      "d": 626.3739499999992,
      "v": 46
    },
    {
      "midi": 67,
      "hit": false,
      "t": 15164.842999999995,
      "d": 648.3519833333321,
      "v": 114
    },
    {
      "midi": 72,
      "hit": false,
      "t": 15164.842999999995,
      "d": 648.3519833333321,
      "v": 114
    },
    {
      "midi": 76,
      "hit": false,
      "t": 15164.842999999995,
      "d": 648.3519833333321,
      "v": 114
    },
    {
      "midi": 64,
      "hit": false,
      "t": 15192.315541666661,
      "d": 598.9014083333332,
      "v": 39
    },
    {
      "midi": 79,
      "hit": false,
      "t": 15197.810049999995,
      "d": 615.3849333333328,
      "v": 114
    },
    {
      "midi": 41,
      "hit": false,
      "t": 15824.183999999994,
      "d": 2093.407674999995,
      "v": 29
    },
    {
      "midi": 55,
      "hit": false,
      "t": 15824.183999999994,
      "d": 428.57164999999986,
      "v": 114
    },
    {
      "midi": 60,
      "hit": false,
      "t": 15824.183999999994,
      "d": 445.0551749999995,
      "v": 114
    },
    {
      "midi": 41,
      "hit": false,
      "t": 15824.183999999994,
      "d": 2582.4189166666656,
      "v": 114
    },
    {
      "midi": 57,
      "hit": false,
      "t": 15846.162033333327,
      "d": 197.80229999999938,
      "v": 33
    },
    {
      "midi": 60,
      "hit": false,
      "t": 15851.65654166666,
      "d": 329.6705000000002,
      "v": 50
    },
    {
      "midi": 57,
      "hit": false,
      "t": 15857.151049999993,
      "d": 428.57164999999986,
      "v": 114
    },
    {
      "midi": 67,
      "hit": false,
      "t": 15868.14006666666,
      "d": 401.0991083333356,
      "v": 45
    },
    {
      "midi": 48,
      "hit": false,
      "t": 16153.854499999994,
      "d": 489.01124166666705,
      "v": 114
    },
    {
      "midi": 65,
      "hit": false,
      "t": 16153.854499999994,
      "d": 604.3959166666682,
      "v": 114
    },
    {
      "midi": 57,
      "hit": false,
      "t": 16181.32704166666,
      "d": 945.0554333333312,
      "v": 42
    },
    {
      "midi": 55,
      "hit": false,
      "t": 16483.524999999994,
      "d": 445.0551749999977,
      "v": 114
    },
    {
      "midi": 60,
      "hit": false,
      "t": 16505.503033333327,
      "d": 582.4178833333317,
      "v": 50
    },
    {
      "midi": 60,
      "hit": false,
      "t": 16813.195499999994,
      "d": 1593.407416666665,
      "v": 114
    },
    {
      "midi": 57,
      "hit": false,
      "t": 16813.195499999994,
      "d": 1620.8799583333312,
      "v": 114
    },
    {
      "midi": 65,
      "hit": false,
      "t": 16813.195499999994,
      "d": 1719.781108333329,
      "v": 114
    },
    {
      "midi": 67,
      "hit": false,
      "t": 16846.162549999994,
      "d": 346.1540249999962,
      "v": 59
    },
    {
      "midi": 67,
      "hit": false,
      "t": 16846.162549999994,
      "d": 758.2421499999982,
      "v": 114
    },
    {
      "midi": 69,
      "hit": false,
      "t": 17472.53649999999,
      "d": 901.0993666666691,
      "v": 114
    },
    {
      "midi": 41,
      "hit": false,
      "t": 18461.547999999988,
      "d": 2362.6385833333334,
      "v": 41
    },
    {
      "midi": 55,
      "hit": false,
      "t": 18461.54799999999,
      "d": 428.5716500000017,
      "v": 114
    },
    {
      "midi": 60,
      "hit": false,
      "t": 18461.54799999999,
      "d": 472.5277166666674,
      "v": 114
    },
    {
      "midi": 41,
      "hit": false,
      "t": 18461.54799999999,
      "d": 2725.276133333333,
      "v": 114
    },
    {
      "midi": 57,
      "hit": false,
      "t": 18494.51504999999,
      "d": 417.58263333333525,
      "v": 114
    },
    {
      "midi": 69,
      "hit": false,
      "t": 18505.504066666654,
      "d": 384.6155833333323,
      "v": 41
    },
    {
      "midi": 60,
      "hit": false,
      "t": 18516.49308333332,
      "d": 175.82426666666652,
      "v": 45
    },
    {
      "midi": 67,
      "hit": false,
      "t": 18516.49308333332,
      "d": 346.1540249999998,
      "v": 57
    },
    {
      "midi": 48,
      "hit": false,
      "t": 18791.21849999999,
      "d": 445.0551750000013,
      "v": 114
    },
    {
      "midi": 65,
      "hit": false,
      "t": 18791.21849999999,
      "d": 456.04419166666776,
      "v": 114
    },
    {
      "midi": 60,
      "hit": false,
      "t": 18824.185549999987,
      "d": 626.3739500000011,
      "v": 61
    },
    {
      "midi": 55,
      "hit": false,
      "t": 19120.888999999992,
      "d": 456.04419166666776,
      "v": 114
    },
    {
      "midi": 69,
      "hit": false,
      "t": 19120.888999999992,
      "d": 472.5277166666674,
      "v": 114
    },
    {
      "midi": 67,
      "hit": false,
      "t": 19170.339574999987,
      "d": 384.61558333333596,
      "v": 65
    },
    {
      "midi": 65,
      "hit": false,
      "t": 19450.559499999992,
      "d": 730.7696083333321,
      "v": 114
    },
    {
      "midi": 60,
      "hit": false,
      "t": 19450.559499999992,
      "d": 758.2421499999982,
      "v": 114
    },
    {
      "midi": 57,
      "hit": false,
      "t": 19450.559499999992,
      "d": 1818.6822583333305,
      "v": 114
    },
    {
      "midi": 69,
      "hit": false,
      "t": 19461.548516666655,
      "d": 148.35172500000044,
      "v": 34
    },
    {
      "midi": 67,
      "hit": false,
      "t": 19483.52654999999,
      "d": 615.3849333333346,
      "v": 114
    },
    {
      "midi": 72,
      "hit": false,
      "t": 19802.20803333332,
      "d": 126.37369166666758,
      "v": 53
    },
    {
      "midi": 69,
      "hit": false,
      "t": 20109.900499999992,
      "d": 818.6817416666636,
      "v": 114
    },
    {
      "midi": 79,
      "hit": false,
      "t": 20461.549033333322,
      "d": 214.28582499999902,
      "v": 61
    },
    {
      "midi": 62,
      "hit": false,
      "t": 20769.24149999999,
      "d": 2219.781366666666,
      "v": 114
    },
    {
      "midi": 65,
      "hit": false,
      "t": 20796.714041666655,
      "d": 2164.836283333334,
      "v": 114
    },
    {
      "midi": 48,
      "hit": false,
      "t": 21098.911999999986,
      "d": 274.7254166666644,
      "v": 37
    },
    {
      "midi": 53,
      "hit": false,
      "t": 21098.911999999986,
      "d": 274.7254166666644,
      "v": 31
    },
    {
      "midi": 58,
      "hit": false,
      "t": 21098.911999999986,
      "d": 274.7254166666644,
      "v": 46
    },
    {
      "midi": 34,
      "hit": false,
      "t": 21098.91199999999,
      "d": 2582.4189166666692,
      "v": 114
    },
    {
      "midi": 62,
      "hit": false,
      "t": 21126.38454166665,
      "d": 247.2528749999983,
      "v": 39
    },
    {
      "midi": 46,
      "hit": false,
      "t": 21428.582499999982,
      "d": 945.0554333333312,
      "v": 37
    },
    {
      "midi": 53,
      "hit": false,
      "t": 21428.582499999982,
      "d": 945.0554333333312,
      "v": 31
    },
    {
      "midi": 58,
      "hit": false,
      "t": 21428.582499999982,
      "d": 945.0554333333312,
      "v": 46
    },
    {
      "midi": 41,
      "hit": false,
      "t": 21428.58249999999,
      "d": 472.5277166666674,
      "v": 114
    },
    {
      "midi": 62,
      "hit": false,
      "t": 21456.05504166665,
      "d": 917.5828916666651,
      "v": 39
    },
    {
      "midi": 48,
      "hit": false,
      "t": 21758.25299999999,
      "d": 500.0002583333335,
      "v": 114
    },
    {
      "midi": 50,
      "hit": false,
      "t": 22087.92349999999,
      "d": 1747.2536500000024,
      "v": 114
    },
    {
      "midi": 46,
      "hit": false,
      "t": 22423.088508333312,
      "d": 1280.2204416666646,
      "v": 51
    },
    {
      "midi": 53,
      "hit": false,
      "t": 22741.769991666646,
      "d": 961.5389583333308,
      "v": 44
    },
    {
      "midi": 58,
      "hit": false,
      "t": 23076.93499999998,
      "d": 626.3739499999974,
      "v": 41
    },
    {
      "midi": 58,
      "hit": false,
      "t": 23076.93499999999,
      "d": 258.2418916666684,
      "v": 114
    },
    {
      "midi": 62,
      "hit": false,
      "t": 23082.429508333313,
      "d": 620.8794416666642,
      "v": 48
    },
    {
      "midi": 60,
      "hit": false,
      "t": 23241.77024999999,
      "d": 274.725416666668,
      "v": 114
    },
    {
      "midi": 62,
      "hit": false,
      "t": 23406.60549999999,
      "d": 1620.8799583333348,
      "v": 114
    },
    {
      "midi": 48,
      "hit": false,
      "t": 23736.275999999976,
      "d": 274.7254166666644,
      "v": 37
    },
    {
      "midi": 53,
      "hit": false,
      "t": 23736.275999999976,
      "d": 274.7254166666644,
      "v": 31
    },
    {
      "midi": 58,
      "hit": false,
      "t": 23736.275999999976,
      "d": 274.7254166666644,
      "v": 46
    },
    {
      "midi": 34,
      "hit": false,
      "t": 23736.27599999999,
      "d": 1532.9678249999997,
      "v": 114
    },
    {
      "midi": 62,
      "hit": false,
      "t": 23763.748541666642,
      "d": 247.2528749999983,
      "v": 39
    },
    {
      "midi": 34,
      "hit": false,
      "t": 24065.946499999973,
      "d": 1604.3964333333315,
      "v": 32
    },
    {
      "midi": 46,
      "hit": false,
      "t": 24065.946499999973,
      "d": 1604.3964333333315,
      "v": 47
    },
    {
      "midi": 53,
      "hit": false,
      "t": 24065.946499999973,
      "d": 1604.3964333333315,
      "v": 31
    },
    {
      "midi": 58,
      "hit": false,
      "t": 24065.946499999973,
      "d": 1604.3964333333315,
      "v": 38
    },
    {
      "midi": 41,
      "hit": false,
      "t": 24065.94649999999,
      "d": 472.5277166666674,
      "v": 114
    },
    {
      "midi": 48,
      "hit": false,
      "t": 24395.61699999999,
      "d": 456.04419166666776,
      "v": 114
    },
    {
      "midi": 62,
      "hit": false,
      "t": 24472.540116666638,
      "d": 1208.7918333333328,
      "v": 41
    },
    {
      "midi": 50,
      "hit": false,
      "t": 24725.28749999999,
      "d": 472.5277166666674,
      "v": 114
    },
    {
      "midi": 53,
      "hit": false,
      "t": 25054.95799999999,
      "d": 648.3519833333339,
      "v": 114
    },
    {
      "midi": 58,
      "hit": false,
      "t": 25054.95799999999,
      "d": 758.2421500000019,
      "v": 114
    },
    {
      "midi": 46,
      "hit": false,
      "t": 25054.95799999999,
      "d": 846.1542833333333,
      "v": 114
    },
    {
      "midi": 62,
      "hit": false,
      "t": 25087.92504999999,
      "d": 785.7146916666679,
      "v": 114
    },
    {
      "midi": 45,
      "hit": false,
      "t": 25714.29899999997,
      "d": 626.3739499999974,
      "v": 37
    },
    {
      "midi": 57,
      "hit": false,
      "t": 25714.29899999997,
      "d": 626.3739499999974,
      "v": 31
    },
    {
      "midi": 60,
      "hit": false,
      "t": 25714.29899999997,
      "d": 626.3739499999974,
      "v": 46
    },
    {
      "midi": 45,
      "hit": false,
      "t": 25714.29899999999,
      "d": 648.3519833333339,
      "v": 114
    },
    {
      "midi": 53,
      "hit": false,
      "t": 25714.29899999999,
      "d": 648.3519833333339,
      "v": 114
    },
    {
      "midi": 60,
      "hit": false,
      "t": 25714.29899999999,
      "d": 648.3519833333339,
      "v": 114
    },
    {
      "midi": 65,
      "hit": false,
      "t": 25741.771541666636,
      "d": 598.9014083333313,
      "v": 39
    },
    {
      "midi": 43,
      "hit": false,
      "t": 26373.639999999967,
      "d": 274.7254166666644,
      "v": 37
    },
    {
      "midi": 58,
      "hit": false,
      "t": 26373.639999999967,
      "d": 274.7254166666644,
      "v": 31
    },
    {
      "midi": 62,
      "hit": false,
      "t": 26373.639999999967,
      "d": 274.7254166666644,
      "v": 46
    },
    {
      "midi": 58,
      "hit": false,
      "t": 26373.639999999992,
      "d": 472.5277166666674,
      "v": 114
    },
    {
      "midi": 43,
      "hit": false,
      "t": 26373.639999999992,
      "d": 489.01124166666705,
      "v": 114
    },
    {
      "midi": 67,
      "hit": false,
      "t": 26401.112541666633,
      "d": 247.2528749999983,
      "v": 39
    },
    {
      "midi": 62,
      "hit": false,
      "t": 26406.60704999999,
      "d": 401.0991083333356,
      "v": 114
    },
    {
      "midi": 43,
      "hit": false,
      "t": 26703.310499999963,
      "d": 945.0554333333312,
      "v": 37
    },
    {
      "midi": 55,
      "hit": false,
      "t": 26703.310499999963,
      "d": 945.0554333333312,
      "v": 31
    },
    {
      "midi": 59,
      "hit": false,
      "t": 26703.310499999963,
      "d": 945.0554333333312,
      "v": 46
    },
    {
      "midi": 50,
      "hit": false,
      "t": 26703.310499999992,
      "d": 445.0551750000013,
      "v": 114
    },
    {
      "midi": 67,
      "hit": false,
      "t": 26703.310499999992,
      "d": 785.7146916666679,
      "v": 114
    },
    {
      "midi": 62,
      "hit": false,
      "t": 26730.78304166663,
      "d": 917.5828916666651,
      "v": 39
    },
    {
      "midi": 66,
      "hit": false,
      "t": 26736.277549999963,
      "d": 912.0883833333319,
      "v": 49
    },
    {
      "midi": 55,
      "hit": false,
      "t": 27032.980999999992,
      "d": 324.17599166666696,
      "v": 114
    },
    {
      "midi": 58,
      "hit": false,
      "t": 27362.651499999993,
      "d": 1104.3961750000017,
      "v": 114
    },
    {
      "midi": 62,
      "hit": false,
      "t": 27362.651499999993,
      "d": 1115.385191666668,
      "v": 114
    },
    {
      "midi": 54,
      "hit": false,
      "t": 27362.651499999993,
      "d": 1576.923891666669,
      "v": 114
    },
    {
      "midi": 69,
      "hit": false,
      "t": 27395.618549999992,
      "d": 1043.9565833333363,
      "v": 114
    },
    {
      "midi": 43,
      "hit": false,
      "t": 27697.816508333293,
      "d": 1280.2204416666646,
      "v": 51
    },
    {
      "midi": 55,
      "hit": false,
      "t": 28016.497991666627,
      "d": 961.5389583333308,
      "v": 44
    },
    {
      "midi": 59,
      "hit": false,
      "t": 28351.66299999996,
      "d": 626.3739499999974,
      "v": 41
    },
    {
      "midi": 70,
      "hit": false,
      "t": 28351.662999999993,
      "d": 456.04419166666776,
      "v": 114
    },
    {
      "midi": 62,
      "hit": false,
      "t": 28357.157508333294,
      "d": 620.8794416666642,
      "v": 48
    },
    {
      "midi": 58,
      "hit": false,
      "t": 28681.333499999993,
      "d": 802.1982166666639,
      "v": 114
    },
    {
      "midi": 62,
      "hit": false,
      "t": 28708.80604166666,
      "d": 714.2860833333325,
      "v": 114
    },
    {
      "midi": 43,
      "hit": false,
      "t": 29011.003999999957,
      "d": 274.7254166666644,
      "v": 37
    },
    {
      "midi": 55,
      "hit": false,
      "t": 29011.003999999957,
      "d": 274.7254166666644,
      "v": 31
    },
    {
      "midi": 58,
      "hit": false,
      "t": 29011.003999999957,
      "d": 274.7254166666644,
      "v": 46
    },
    {
      "midi": 53,
      "hit": false,
      "t": 29011.003999999994,
      "d": 1505.49528333333,
      "v": 114
    },
    {
      "midi": 43,
      "hit": false,
      "t": 29011.003999999994,
      "d": 1593.407416666665,
      "v": 114
    },
    {
      "midi": 62,
      "hit": false,
      "t": 29038.476541666623,
      "d": 247.2528749999983,
      "v": 39
    },
    {
      "midi": 65,
      "hit": false,
      "t": 29043.971049999956,
      "d": 241.7583666666651,
      "v": 49
    },
    {
      "midi": 48,
      "hit": false,
      "t": 29340.674499999954,
      "d": 945.0554333333312,
      "v": 37
    },
    {
      "midi": 53,
      "hit": false,
      "t": 29340.674499999954,
      "d": 945.0554333333312,
      "v": 31
    },
    {
      "midi": 58,
      "hit": false,
      "t": 29340.674499999954,
      "d": 945.0554333333312,
      "v": 46
    },
    {
      "midi": 67,
      "hit": false,
      "t": 29340.674499999994,
      "d": 445.0551749999977,
      "v": 114
    },
    {
      "midi": 62,
      "hit": false,
      "t": 29368.14704166662,
      "d": 917.5828916666651,
      "v": 39
    },
    {
      "midi": 70,
      "hit": false,
      "t": 29670.34499999999,
      "d": 516.4837833333331,
      "v": 114
    },
    {
      "midi": 65,
      "hit": false,
      "t": 30000.01549999999,
      "d": 758.2421500000019,
      "v": 114
    },
    {
      "midi": 62,
      "hit": false,
      "t": 30000.01549999999,
      "d": 774.7256750000015,
      "v": 114
    },
    {
      "midi": 58,
      "hit": false,
      "t": 30000.01549999999,
      "d": 785.7146916666679,
      "v": 114
    },
    {
      "midi": 69,
      "hit": false,
      "t": 30032.98254999999,
      "d": 774.7256750000015,
      "v": 114
    },
    {
      "midi": 48,
      "hit": false,
      "t": 30329.68599999995,
      "d": 1285.7149499999978,
      "v": 27
    },
    {
      "midi": 53,
      "hit": false,
      "t": 30329.68599999995,
      "d": 1285.7149499999978,
      "v": 44
    },
    {
      "midi": 48,
      "hit": false,
      "t": 30329.68599999999,
      "d": 1516.4843,
      "v": 114
    },
    {
      "midi": 36,
      "hit": false,
      "t": 30329.68599999999,
      "d": 1532.9678249999997,
      "v": 114
    },
    {
      "midi": 58,
      "hit": false,
      "t": 30351.664033333283,
      "d": 615.384933333331,
      "v": 34
    },
    {
      "midi": 62,
      "hit": false,
      "t": 30351.664033333283,
      "d": 807.6927249999972,
      "v": 56
    },
    {
      "midi": 67,
      "hit": false,
      "t": 30659.35649999999,
      "d": 846.1542833333333,
      "v": 114
    },
    {
      "midi": 65,
      "hit": false,
      "t": 31318.69749999999,
      "d": 516.4837833333331,
      "v": 114
    },
    {
      "midi": 53,
      "hit": false,
      "t": 31648.367999999948,
      "d": 274.7254166666644,
      "v": 37
    },
    {
      "midi": 55,
      "hit": false,
      "t": 31648.367999999948,
      "d": 274.7254166666644,
      "v": 31
    },
    {
      "midi": 60,
      "hit": false,
      "t": 31648.367999999948,
      "d": 274.7254166666644,
      "v": 46
    },
    {
      "midi": 55,
      "hit": false,
      "t": 31648.36799999999,
      "d": 472.5277166666674,
      "v": 114
    },
    {
      "midi": 41,
      "hit": false,
      "t": 31648.36799999999,
      "d": 1005.4950250000002,
      "v": 114
    },
    {
      "midi": 64,
      "hit": false,
      "t": 31675.840541666614,
      "d": 247.2528749999983,
      "v": 39
    },
    {
      "midi": 64,
      "hit": false,
      "t": 31675.840541666657,
      "d": 401.0991083333356,
      "v": 114
    },
    {
      "midi": 41,
      "hit": false,
      "t": 31978.038499999944,
      "d": 945.0554333333348,
      "v": 37
    },
    {
      "midi": 57,
      "hit": false,
      "t": 31978.038499999944,
      "d": 945.0554333333348,
      "v": 31
    },
    {
      "midi": 60,
      "hit": false,
      "t": 31978.038499999944,
      "d": 945.0554333333348,
      "v": 46
    },
    {
      "midi": 48,
      "hit": false,
      "t": 31978.03849999999,
      "d": 456.04419166666776,
      "v": 114
    },
    {
      "midi": 60,
      "hit": false,
      "t": 31978.03849999999,
      "d": 1560.4403666666658,
      "v": 114
    },
    {
      "midi": 65,
      "hit": false,
      "t": 32005.51104166661,
      "d": 917.5828916666687,
      "v": 39
    },
    {
      "midi": 55,
      "hit": false,
      "t": 32307.70899999999,
      "d": 324.17599166666696,
      "v": 114
    },
    {
      "midi": 53,
      "hit": false,
      "t": 32637.379499999992,
      "d": 1736.2646333333214,
      "v": 114
    },
    {
      "midi": 57,
      "hit": false,
      "t": 32664.852041666658,
      "d": 1791.2097166666572,
      "v": 114
    },
    {
      "midi": 41,
      "hit": false,
      "t": 32972.54450833328,
      "d": 1280.2204416666718,
      "v": 51
    },
    {
      "midi": 57,
      "hit": false,
      "t": 33291.225991666615,
      "d": 961.5389583333381,
      "v": 44
    },
    {
      "midi": 65,
      "hit": false,
      "t": 33461.55574999999,
      "d": 241.75836666666146,
      "v": 114
    },
    {
      "midi": 60,
      "hit": false,
      "t": 33626.390999999945,
      "d": 626.3739500000083,
      "v": 41
    },
    {
      "midi": 69,
      "hit": false,
      "t": 33626.39099999999,
      "d": 230.76934999999503,
      "v": 114
    },
    {
      "midi": 65,
      "hit": false,
      "t": 33631.88550833328,
      "d": 620.8794416666715,
      "v": 48
    },
    {
      "midi": 70,
      "hit": false,
      "t": 33791.226249999985,
      "d": 675.8245249999964,
      "v": 114
    },
    {
      "midi": 41,
      "hit": false,
      "t": 34285.73199999995,
      "d": 2604.396950000002,
      "v": 25
    },
    {
      "midi": 55,
      "hit": false,
      "t": 34285.73199999995,
      "d": 2604.396950000002,
      "v": 42
    },
    {
      "midi": 63,
      "hit": false,
      "t": 34285.73199999998,
      "d": 648.3519833333339,
      "v": 114
    },
    {
      "midi": 67,
      "hit": false,
      "t": 34285.73199999998,
      "d": 648.3519833333339,
      "v": 114
    },
    {
      "midi": 58,
      "hit": false,
      "t": 34285.73199999998,
      "d": 829.6707583333337,
      "v": 114
    },
    {
      "midi": 41,
      "hit": false,
      "t": 34285.73199999998,
      "d": 846.1542833333369,
      "v": 114
    },
    {
      "midi": 58,
      "hit": false,
      "t": 34307.710033333286,
      "d": 615.3849333333346,
      "v": 38
    },
    {
      "midi": 63,
      "hit": false,
      "t": 34307.710033333286,
      "d": 807.6927250000008,
      "v": 54
    },
    {
      "midi": 72,
      "hit": false,
      "t": 34318.69904999998,
      "d": 1906.594391666673,
      "v": 114
    },
    {
      "midi": 63,
      "hit": false,
      "t": 34945.07299999998,
      "d": 587.9123916666649,
      "v": 114
    },
    {
      "midi": 67,
      "hit": false,
      "t": 34945.07299999998,
      "d": 604.3959166666682,
      "v": 114
    },
    {
      "midi": 70,
      "hit": false,
      "t": 34972.54554166665,
      "d": 747.2531333333391,
      "v": 114
    },
    {
      "midi": 41,
      "hit": false,
      "t": 35274.74349999998,
      "d": 324.1759916666706,
      "v": 114
    },
    {
      "midi": 58,
      "hit": false,
      "t": 35604.41399999999,
      "d": 648.3519833333339,
      "v": 114
    },
    {
      "midi": 63,
      "hit": false,
      "t": 35604.41399999999,
      "d": 648.3519833333339,
      "v": 114
    },
    {
      "midi": 41,
      "hit": false,
      "t": 35604.41399999999,
      "d": 1390.1106083333361,
      "v": 114
    },
    {
      "midi": 67,
      "hit": false,
      "t": 35637.38104999999,
      "d": 802.1982166666639,
      "v": 114
    },
    {
      "midi": 63,
      "hit": false,
      "t": 35923.09548333329,
      "d": 840.6597750000001,
      "v": 46
    },
    {
      "midi": 67,
      "hit": false,
      "t": 36258.26049166662,
      "d": 390.1100916666692,
      "v": 46
    },
    {
      "midi": 55,
      "hit": false,
      "t": 36263.75499999999,
      "d": 802.1982166666712,
      "v": 114
    },
    {
      "midi": 58,
      "hit": false,
      "t": 36263.75499999999,
      "d": 829.6707583333409,
      "v": 114
    },
    {
      "midi": 63,
      "hit": false,
      "t": 36296.72204999999,
      "d": 659.3410000000003,
      "v": 114
    },
    {
      "midi": 65,
      "hit": false,
      "t": 36593.42549999998,
      "d": 324.1759916666706,
      "v": 114
    },
    {
      "midi": 58,
      "hit": false,
      "t": 36604.41451666662,
      "d": 285.71443333333445,
      "v": 41
    },
    {
      "midi": 60,
      "hit": false,
      "t": 36890.128949999984,
      "d": 604.3959166666755,
      "v": 114
    },
    {
      "midi": 65,
      "hit": false,
      "t": 36923.09599999999,
      "d": 417.5826333333389,
      "v": 114
    },
    {
      "midi": 62,
      "hit": false,
      "t": 36923.09599999999,
      "d": 604.3959166666682,
      "v": 114
    },
    {
      "midi": 46,
      "hit": false,
      "t": 36923.09599999999,
      "d": 802.1982166666639,
      "v": 114
    },
    {
      "midi": 53,
      "hit": false,
      "t": 36923.09599999999,
      "d": 1478.0227416666748,
      "v": 114
    },
    {
      "midi": 48,
      "hit": false,
      "t": 36928.59050833329,
      "d": 1280.2204416666718,
      "v": 51
    },
    {
      "midi": 53,
      "hit": false,
      "t": 37247.271991666625,
      "d": 961.5389583333381,
      "v": 44
    },
    {
      "midi": 70,
      "hit": false,
      "t": 37252.7665,
      "d": 472.5277166666565,
      "v": 114
    },
    {
      "midi": 60,
      "hit": false,
      "t": 37549.46994999999,
      "d": 615.3849333333346,
      "v": 114
    },
    {
      "midi": 58,
      "hit": false,
      "t": 37582.436999999954,
      "d": 626.3739500000083,
      "v": 41
    },
    {
      "midi": 72,
      "hit": false,
      "t": 37582.43699999999,
      "d": 489.01124166666705,
      "v": 114
    },
    {
      "midi": 62,
      "hit": false,
      "t": 37582.43699999999,
      "d": 774.7256750000088,
      "v": 114
    },
    {
      "midi": 65,
      "hit": false,
      "t": 37582.43699999999,
      "d": 774.7256750000088,
      "v": 114
    },
    {
      "midi": 62,
      "hit": false,
      "t": 37587.93150833329,
      "d": 620.8794416666715,
      "v": 48
    },
    {
      "midi": 46,
      "hit": false,
      "t": 37912.10749999999,
      "d": 324.1759916666706,
      "v": 114
    },
    {
      "midi": 74,
      "hit": false,
      "t": 37912.10749999999,
      "d": 587.9123916666722,
      "v": 114
    },
    {
      "midi": 34,
      "hit": false,
      "t": 38241.77799999996,
      "d": 1285.7149500000014,
      "v": 32
    },
    {
      "midi": 46,
      "hit": false,
      "t": 38241.77799999996,
      "d": 1285.7149500000014,
      "v": 47
    },
    {
      "midi": 55,
      "hit": false,
      "t": 38241.77799999996,
      "d": 1285.7149500000014,
      "v": 31
    },
    {
      "midi": 60,
      "hit": false,
      "t": 38241.77799999996,
      "d": 1285.7149500000014,
      "v": 38
    },
    {
      "midi": 60,
      "hit": false,
      "t": 38241.778,
      "d": 587.9123916666649,
      "v": 114
    },
    {
      "midi": 64,
      "hit": false,
      "t": 38241.778,
      "d": 604.3959166666682,
      "v": 114
    },
    {
      "midi": 55,
      "hit": false,
      "t": 38241.778,
      "d": 1247.2533916666798,
      "v": 114
    },
    {
      "midi": 46,
      "hit": false,
      "t": 38241.778,
      "d": 1489.0117583333558,
      "v": 114
    },
    {
      "midi": 67,
      "hit": false,
      "t": 38274.74505,
      "d": 587.9123916666722,
      "v": 114
    },
    {
      "midi": 64,
      "hit": false,
      "t": 38318.70111666663,
      "d": 1208.7918333333364,
      "v": 41
    },
    {
      "midi": 74,
      "hit": false,
      "t": 38571.4485,
      "d": 324.1759916666706,
      "v": 114
    },
    {
      "midi": 74,
      "hit": false,
      "t": 38901.119000000006,
      "d": 324.1759916666706,
      "v": 114
    },
    {
      "midi": 60,
      "hit": false,
      "t": 38901.119000000006,
      "d": 587.9123916666722,
      "v": 114
    },
    {
      "midi": 64,
      "hit": false,
      "t": 38901.119000000006,
      "d": 604.3959166666755,
      "v": 114
    },
    {
      "midi": 67,
      "hit": false,
      "t": 38928.591541666676,
      "d": 604.3959166666755,
      "v": 114
    },
    {
      "midi": 74,
      "hit": false,
      "t": 39230.78950000001,
      "d": 324.1759916666706,
      "v": 114
    },
    {
      "midi": 45,
      "hit": false,
      "t": 39560.45999999996,
      "d": 1285.7149500000014,
      "v": 32
    },
    {
      "midi": 52,
      "hit": false,
      "t": 39560.45999999996,
      "d": 1285.7149500000014,
      "v": 31
    },
    {
      "midi": 55,
      "hit": false,
      "t": 39560.45999999996,
      "d": 1285.7149500000014,
      "v": 38
    },
    {
      "midi": 74,
      "hit": false,
      "t": 39560.46000000002,
      "d": 532.9673083333328,
      "v": 114
    },
    {
      "midi": 64,
      "hit": false,
      "t": 39560.46000000002,
      "d": 587.9123916666649,
      "v": 114
    },
    {
      "midi": 60,
      "hit": false,
      "t": 39560.46000000002,
      "d": 604.3959166666682,
      "v": 114
    },
    {
      "midi": 45,
      "hit": false,
      "t": 39560.46000000002,
      "d": 862.6378083333402,
      "v": 114
    },
    {
      "midi": 55,
      "hit": false,
      "t": 39560.46000000002,
      "d": 1417.5831500000058,
      "v": 114
    },
    {
      "midi": 67,
      "hit": false,
      "t": 39593.42705000002,
      "d": 615.3849333333346,
      "v": 114
    },
    {
      "midi": 59,
      "hit": false,
      "t": 39637.38311666663,
      "d": 1208.7918333333364,
      "v": 41
    },
    {
      "midi": 60,
      "hit": false,
      "t": 39681.33918333329,
      "d": 1164.8357666666707,
      "v": 51
    },
    {
      "midi": 72,
      "hit": false,
      "t": 39890.13050000002,
      "d": 324.1759916666706,
      "v": 114
    },
    {
      "midi": 72,
      "hit": false,
      "t": 40219.80100000003,
      "d": 324.1759916666633,
      "v": 114
    },
    {
      "midi": 60,
      "hit": false,
      "t": 40219.80100000003,
      "d": 604.3959166666682,
      "v": 114
    },
    {
      "midi": 64,
      "hit": false,
      "t": 40219.80100000003,
      "d": 785.7146916666679,
      "v": 114
    },
    {
      "midi": 67,
      "hit": false,
      "t": 40252.76805000003,
      "d": 747.2531333333318,
      "v": 114
    },
    {
      "midi": 72,
      "hit": false,
      "t": 40549.47150000003,
      "d": 489.01124166666705,
      "v": 114
    },
    {
      "midi": 45,
      "hit": false,
      "t": 40549.47150000003,
      "d": 516.4837833333368,
      "v": 114
    },
    {
      "midi": 57,
      "hit": false,
      "t": 40879.14200000003,
      "d": 648.3519833333339,
      "v": 114
    },
    {
      "midi": 60,
      "hit": false,
      "t": 40879.14200000003,
      "d": 648.3519833333339,
      "v": 114
    },
    {
      "midi": 65,
      "hit": false,
      "t": 40879.14200000003,
      "d": 802.1982166666712,
      "v": 114
    },
    {
      "midi": 50,
      "hit": false,
      "t": 40879.14200000003,
      "d": 1478.0227416666748,
      "v": 114
    },
    {
      "midi": 69,
      "hit": false,
      "t": 40912.10905000003,
      "d": 1247.2533916666725,
      "v": 114
    },
    {
      "midi": 60,
      "hit": false,
      "t": 41219.80151666664,
      "d": 395.60459999999875,
      "v": 42
    },
    {
      "midi": 57,
      "hit": false,
      "t": 41538.48300000003,
      "d": 818.6817416666745,
      "v": 114
    },
    {
      "midi": 62,
      "hit": false,
      "t": 41554.96652499997,
      "d": 395.60459999999875,
      "v": 47
    },
    {
      "midi": 60,
      "hit": false,
      "t": 41565.9555416667,
      "d": 758.2421500000055,
      "v": 114
    },
    {
      "midi": 57,
      "hit": false,
      "t": 41873.6480083333,
      "d": 274.725416666668,
      "v": 51
    },
    {
      "midi": 65,
      "hit": false,
      "t": 42032.98875000003,
      "d": 241.75836666666873,
      "v": 114
    },
    {
      "midi": 46,
      "hit": false,
      "t": 42197.82399999997,
      "d": 274.725416666668,
      "v": 37
    },
    {
      "midi": 53,
      "hit": false,
      "t": 42197.82399999997,
      "d": 274.725416666668,
      "v": 31
    },
    {
      "midi": 58,
      "hit": false,
      "t": 42197.82399999997,
      "d": 274.725416666668,
      "v": 46
    },
    {
      "midi": 70,
      "hit": false,
      "t": 42197.82400000004,
      "d": 159.34074166666687,
      "v": 114
    },
    {
      "midi": 53,
      "hit": false,
      "t": 42197.82400000004,
      "d": 846.1542833333369,
      "v": 114
    },
    {
      "midi": 46,
      "hit": false,
      "t": 42197.82400000004,
      "d": 873.6268250000066,
      "v": 114
    },
    {
      "midi": 62,
      "hit": false,
      "t": 42197.82400000004,
      "d": 901.0993666666764,
      "v": 114
    },
    {
      "midi": 62,
      "hit": false,
      "t": 42225.29654166664,
      "d": 247.2528749999983,
      "v": 39
    },
    {
      "midi": 70,
      "hit": false,
      "t": 42362.65925000004,
      "d": 373.6265666666659,
      "v": 114
    },
    {
      "midi": 45,
      "hit": false,
      "t": 42527.49449999997,
      "d": 945.0554333333348,
      "v": 37
    },
    {
      "midi": 57,
      "hit": false,
      "t": 42527.49449999997,
      "d": 945.0554333333348,
      "v": 31
    },
    {
      "midi": 60,
      "hit": false,
      "t": 42527.49449999997,
      "d": 945.0554333333348,
      "v": 46
    },
    {
      "midi": 65,
      "hit": false,
      "t": 42554.96704166664,
      "d": 917.5828916666651,
      "v": 39
    },
    {
      "midi": 72,
      "hit": false,
      "t": 42857.16500000004,
      "d": 456.04419166667503,
      "v": 114
    },
    {
      "midi": 67,
      "hit": false,
      "t": 43186.835500000045,
      "d": 818.6817416666672,
      "v": 114
    },
    {
      "midi": 53,
      "hit": false,
      "t": 43186.835500000045,
      "d": 1593.4074166666687,
      "v": 114
    },
    {
      "midi": 60,
      "hit": false,
      "t": 43186.835500000045,
      "d": 1703.2975833333403,
      "v": 114
    },
    {
      "midi": 45,
      "hit": false,
      "t": 43186.835500000045,
      "d": 1747.253650000006,
      "v": 114
    },
    {
      "midi": 45,
      "hit": false,
      "t": 43516.50599999997,
      "d": 1285.7149500000014,
      "v": 27
    },
    {
      "midi": 57,
      "hit": false,
      "t": 43516.50599999997,
      "d": 1285.7149500000014,
      "v": 44
    },
    {
      "midi": 60,
      "hit": false,
      "t": 43538.484033333305,
      "d": 615.3849333333346,
      "v": 34
    },
    {
      "midi": 65,
      "hit": false,
      "t": 43538.484033333305,
      "d": 807.6927250000008,
      "v": 56
    },
    {
      "midi": 65,
      "hit": false,
      "t": 43846.176500000045,
      "d": 456.04419166666776,
      "v": 114
    },
    {
      "midi": 67,
      "hit": false,
      "t": 44175.847000000045,
      "d": 500.0002583333335,
      "v": 114
    },
    {
      "midi": 69,
      "hit": false,
      "t": 44505.517500000045,
      "d": 818.6817416666745,
      "v": 114
    },
    {
      "midi": 43,
      "hit": false,
      "t": 44835.18799999997,
      "d": 274.725416666668,
      "v": 37
    },
    {
      "midi": 55,
      "hit": false,
      "t": 44835.18799999997,
      "d": 274.725416666668,
      "v": 31
    },
    {
      "midi": 58,
      "hit": false,
      "t": 44835.18799999997,
      "d": 274.725416666668,
      "v": 46
    },
    {
      "midi": 53,
      "hit": false,
      "t": 44835.188000000046,
      "d": 846.1542833333442,
      "v": 114
    },
    {
      "midi": 43,
      "hit": false,
      "t": 44835.188000000046,
      "d": 862.6378083333475,
      "v": 114
    },
    {
      "midi": 62,
      "hit": false,
      "t": 44862.66054166664,
      "d": 247.2528749999983,
      "v": 39
    },
    {
      "midi": 58,
      "hit": false,
      "t": 44862.660541666715,
      "d": 818.6817416666745,
      "v": 114
    },
    {
      "midi": 65,
      "hit": false,
      "t": 44868.15504999998,
      "d": 241.75836666666146,
      "v": 49
    },
    {
      "midi": 48,
      "hit": false,
      "t": 45164.85849999997,
      "d": 945.0554333333348,
      "v": 37
    },
    {
      "midi": 53,
      "hit": false,
      "t": 45164.85849999997,
      "d": 945.0554333333348,
      "v": 31
    },
    {
      "midi": 58,
      "hit": false,
      "t": 45164.85849999997,
      "d": 945.0554333333348,
      "v": 46
    },
    {
      "midi": 67,
      "hit": false,
      "t": 45164.85850000005,
      "d": 1576.9238916666727,
      "v": 114
    },
    {
      "midi": 62,
      "hit": false,
      "t": 45192.33104166664,
      "d": 917.5828916666651,
      "v": 39
    },
    {
      "midi": 58,
      "hit": false,
      "t": 45824.19950000006,
      "d": 890.1103499999954,
      "v": 114
    },
    {
      "midi": 62,
      "hit": false,
      "t": 45824.19950000006,
      "d": 917.5828916666651,
      "v": 114
    },
    {
      "midi": 48,
      "hit": false,
      "t": 45824.19950000006,
      "d": 1675.8250416666633,
      "v": 114
    },
    {
      "midi": 53,
      "hit": false,
      "t": 45824.19950000006,
      "d": 1692.3085666666666,
      "v": 114
    },
    {
      "midi": 58,
      "hit": false,
      "t": 46153.86999999997,
      "d": 329.6705000000002,
      "v": 53
    },
    {
      "midi": 62,
      "hit": false,
      "t": 46153.86999999997,
      "d": 373.62656666667317,
      "v": 48
    },
    {
      "midi": 36,
      "hit": false,
      "t": 46153.86999999997,
      "d": 1285.7149500000087,
      "v": 32
    },
    {
      "midi": 48,
      "hit": false,
      "t": 46153.86999999997,
      "d": 1285.7149500000087,
      "v": 40
    },
    {
      "midi": 53,
      "hit": false,
      "t": 46164.85901666664,
      "d": 197.80230000000302,
      "v": 36
    },
    {
      "midi": 65,
      "hit": false,
      "t": 46511.01304166664,
      "d": 928.5719083333388,
      "v": 45
    },
    {
      "midi": 60,
      "hit": false,
      "t": 46648.37575000006,
      "d": 159.34074166666687,
      "v": 114
    },
    {
      "midi": 60,
      "hit": false,
      "t": 46813.21100000006,
      "d": 285.7144333333272,
      "v": 114
    },
    {
      "midi": 58,
      "hit": false,
      "t": 46835.189033333314,
      "d": 582.4178833333353,
      "v": 53
    },
    {
      "midi": 62,
      "hit": false,
      "t": 46978.04625000006,
      "d": 274.72541666666075,
      "v": 114
    },
    {
      "midi": 65,
      "hit": false,
      "t": 47142.881500000054,
      "d": 324.1759916666633,
      "v": 114
    },
    {
      "midi": 62,
      "hit": false,
      "t": 47175.84854999998,
      "d": 263.7364000000016,
      "v": 62
    },
    {
      "midi": 53,
      "hit": false,
      "t": 47472.55199999998,
      "d": 274.725416666668,
      "v": 40
    },
    {
      "midi": 55,
      "hit": false,
      "t": 47472.55199999998,
      "d": 274.725416666668,
      "v": 34
    },
    {
      "midi": 60,
      "hit": false,
      "t": 47472.55199999998,
      "d": 274.725416666668,
      "v": 49
    },
    {
      "midi": 41,
      "hit": false,
      "t": 47472.552000000054,
      "d": 516.483783333344,
      "v": 114
    },
    {
      "midi": 55,
      "hit": false,
      "t": 47472.552000000054,
      "d": 829.6707583333409,
      "v": 114
    },
    {
      "midi": 60,
      "hit": false,
      "t": 47472.552000000054,
      "d": 862.6378083333402,
      "v": 114
    },
    {
      "midi": 64,
      "hit": false,
      "t": 47472.552000000054,
      "d": 862.6378083333402,
      "v": 114
    },
    {
      "midi": 64,
      "hit": false,
      "t": 47500.02454166665,
      "d": 247.2528749999983,
      "v": 42
    },
    {
      "midi": 67,
      "hit": false,
      "t": 47505.51905000006,
      "d": 846.1542833333369,
      "v": 114
    },
    {
      "midi": 41,
      "hit": false,
      "t": 47802.22249999998,
      "d": 945.0554333333421,
      "v": 40
    },
    {
      "midi": 57,
      "hit": false,
      "t": 47802.22249999998,
      "d": 945.0554333333421,
      "v": 34
    },
    {
      "midi": 60,
      "hit": false,
      "t": 47802.22249999998,
      "d": 945.0554333333421,
      "v": 49
    },
    {
      "midi": 48,
      "hit": false,
      "t": 47802.22250000006,
      "d": 456.04419166666776,
      "v": 114
    },
    {
      "midi": 65,
      "hit": false,
      "t": 47829.69504166665,
      "d": 917.5828916666724,
      "v": 42
    },
    {
      "midi": 53,
      "hit": false,
      "t": 48131.89300000006,
      "d": 445.0551750000013,
      "v": 114
    },
    {
      "midi": 57,
      "hit": false,
      "t": 48461.56350000006,
      "d": 648.3519833333339,
      "v": 114
    },
    {
      "midi": 60,
      "hit": false,
      "t": 48461.56350000006,
      "d": 648.3519833333339,
      "v": 114
    },
    {
      "midi": 65,
      "hit": false,
      "t": 48461.56350000006,
      "d": 774.7256750000015,
      "v": 114
    },
    {
      "midi": 41,
      "hit": false,
      "t": 48461.56350000006,
      "d": 1774.726191666683,
      "v": 114
    },
    {
      "midi": 69,
      "hit": false,
      "t": 48489.03604166673,
      "d": 730.7696083333285,
      "v": 114
    },
    {
      "midi": 60,
      "hit": false,
      "t": 48791.23399999999,
      "d": 329.6705000000002,
      "v": 55
    },
    {
      "midi": 65,
      "hit": false,
      "t": 48791.23399999999,
      "d": 373.62656666667317,
      "v": 50
    },
    {
      "midi": 41,
      "hit": false,
      "t": 48791.23399999999,
      "d": 1285.7149500000087,
      "v": 34
    },
    {
      "midi": 57,
      "hit": false,
      "t": 48802.223016666656,
      "d": 197.80230000000302,
      "v": 38
    },
    {
      "midi": 60,
      "hit": false,
      "t": 49120.90450000006,
      "d": 324.1759916666706,
      "v": 114
    },
    {
      "midi": 69,
      "hit": false,
      "t": 49148.37704166666,
      "d": 928.5719083333388,
      "v": 47
    },
    {
      "midi": 60,
      "hit": false,
      "t": 49450.57500000007,
      "d": 324.1759916666706,
      "v": 114
    },
    {
      "midi": 60,
      "hit": false,
      "t": 49472.55303333333,
      "d": 582.4178833333353,
      "v": 55
    },
    {
      "midi": 62,
      "hit": false,
      "t": 49670.355333333406,
      "d": 357.1430416666699,
      "v": 114
    },
    {
      "midi": 65,
      "hit": false,
      "t": 49813.21255,
      "d": 263.7364000000016,
      "v": 64
    },
    {
      "midi": 65,
      "hit": false,
      "t": 49890.13566666674,
      "d": 357.1430416666699,
      "v": 114
    },
    {
      "midi": 50,
      "hit": false,
      "t": 50109.916,
      "d": 274.725416666668,
      "v": 40
    },
    {
      "midi": 55,
      "hit": false,
      "t": 50109.916,
      "d": 274.725416666668,
      "v": 34
    },
    {
      "midi": 60,
      "hit": false,
      "t": 50109.916,
      "d": 274.725416666668,
      "v": 49
    },
    {
      "midi": 38,
      "hit": false,
      "t": 50109.91600000008,
      "d": 456.04419166666776,
      "v": 114
    },
    {
      "midi": 64,
      "hit": false,
      "t": 50109.91600000008,
      "d": 862.6378083333402,
      "v": 114
    },
    {
      "midi": 55,
      "hit": false,
      "t": 50109.91600000008,
      "d": 873.6268250000066,
      "v": 114
    },
    {
      "midi": 60,
      "hit": false,
      "t": 50109.91600000008,
      "d": 890.1103500000099,
      "v": 114
    },
    {
      "midi": 64,
      "hit": false,
      "t": 50137.38854166667,
      "d": 247.2528749999983,
      "v": 42
    },
    {
      "midi": 67,
      "hit": false,
      "t": 50137.38854166675,
      "d": 829.6707583333337,
      "v": 114
    },
    {
      "midi": 50,
      "hit": false,
      "t": 50439.5865,
      "d": 945.0554333333421,
      "v": 40
    },
    {
      "midi": 57,
      "hit": false,
      "t": 50439.5865,
      "d": 945.0554333333421,
      "v": 34
    },
    {
      "midi": 60,
      "hit": false,
      "t": 50439.5865,
      "d": 945.0554333333421,
      "v": 49
    },
    {
      "midi": 45,
      "hit": false,
      "t": 50439.58650000008,
      "d": 456.04419166666776,
      "v": 114
    },
    {
      "midi": 62,
      "hit": false,
      "t": 50467.05904166667,
      "d": 917.5828916666724,
      "v": 42
    },
    {
      "midi": 65,
      "hit": false,
      "t": 50472.553550000004,
      "d": 912.0883833333355,
      "v": 55
    },
    {
      "midi": 50,
      "hit": false,
      "t": 50769.25700000008,
      "d": 472.52771666667104,
      "v": 114
    },
    {
      "midi": 65,
      "hit": false,
      "t": 51098.927500000085,
      "d": 967.0334666666604,
      "v": 114
    },
    {
      "midi": 60,
      "hit": false,
      "t": 51098.927500000085,
      "d": 1115.3851916666608,
      "v": 114
    },
    {
      "midi": 57,
      "hit": false,
      "t": 51098.927500000085,
      "d": 1148.3522416666601,
      "v": 114
    },
    {
      "midi": 38,
      "hit": false,
      "t": 51098.927500000085,
      "d": 1835.1657833333302,
      "v": 114
    },
    {
      "midi": 69,
      "hit": false,
      "t": 51131.894550000085,
      "d": 1060.4401083333287,
      "v": 114
    },
    {
      "midi": 38,
      "hit": false,
      "t": 51428.598000000005,
      "d": 1285.7149500000014,
      "v": 31
    },
    {
      "midi": 50,
      "hit": false,
      "t": 51428.598000000005,
      "d": 1285.7149500000014,
      "v": 39
    },
    {
      "midi": 57,
      "hit": false,
      "t": 51461.565050000005,
      "d": 197.80229999999574,
      "v": 35
    },
    {
      "midi": 60,
      "hit": false,
      "t": 51472.55406666667,
      "d": 329.6705000000002,
      "v": 52
    },
    {
      "midi": 65,
      "hit": false,
      "t": 51494.532100000004,
      "d": 401.0991083333356,
      "v": 47
    },
    {
      "midi": 57,
      "hit": false,
      "t": 51785.74104166667,
      "d": 928.5719083333388,
      "v": 44
    },
    {
      "midi": 65,
      "hit": false,
      "t": 52087.93900000008,
      "d": 274.725416666668,
      "v": 114
    },
    {
      "midi": 60,
      "hit": false,
      "t": 52109.91703333334,
      "d": 582.4178833333353,
      "v": 52
    },
    {
      "midi": 67,
      "hit": false,
      "t": 52252.77425000008,
      "d": 258.24189166666474,
      "v": 114
    },
    {
      "midi": 69,
      "hit": false,
      "t": 52417.60950000008,
      "d": 324.1759916666706,
      "v": 114
    },
    {
      "midi": 65,
      "hit": false,
      "t": 52450.576550000005,
      "d": 263.7364000000016,
      "v": 61
    },
    {
      "midi": 45,
      "hit": false,
      "t": 52747.280000000006,
      "d": 274.725416666668,
      "v": 40
    },
    {
      "midi": 58,
      "hit": false,
      "t": 52747.280000000006,
      "d": 274.725416666668,
      "v": 34
    },
    {
      "midi": 62,
      "hit": false,
      "t": 52747.280000000006,
      "d": 274.725416666668,
      "v": 49
    },
    {
      "midi": 43,
      "hit": false,
      "t": 52747.280000000086,
      "d": 846.1542833333297,
      "v": 114
    },
    {
      "midi": 57,
      "hit": false,
      "t": 52747.280000000086,
      "d": 862.6378083333329,
      "v": 114
    },
    {
      "midi": 58,
      "hit": false,
      "t": 52747.280000000086,
      "d": 862.6378083333329,
      "v": 114
    },
    {
      "midi": 62,
      "hit": false,
      "t": 52747.280000000086,
      "d": 873.6268249999994,
      "v": 114
    },
    {
      "midi": 67,
      "hit": false,
      "t": 52747.280000000086,
      "d": 917.5828916666651,
      "v": 114
    },
    {
      "midi": 67,
      "hit": false,
      "t": 52774.752541666676,
      "d": 247.2528749999983,
      "v": 42
    },
    {
      "midi": 69,
      "hit": false,
      "t": 52780.247050000085,
      "d": 829.6707583333337,
      "v": 114
    },
    {
      "midi": 43,
      "hit": false,
      "t": 53076.950500000006,
      "d": 945.0554333333348,
      "v": 40
    },
    {
      "midi": 58,
      "hit": false,
      "t": 53076.950500000006,
      "d": 945.0554333333348,
      "v": 34
    },
    {
      "midi": 62,
      "hit": false,
      "t": 53076.950500000006,
      "d": 945.0554333333348,
      "v": 49
    },
    {
      "midi": 67,
      "hit": false,
      "t": 53104.423041666676,
      "d": 917.5828916666651,
      "v": 42
    },
    {
      "midi": 43,
      "hit": false,
      "t": 53736.29150000009,
      "d": 324.1759916666706,
      "v": 114
    },
    {
      "midi": 55,
      "hit": false,
      "t": 53736.29150000009,
      "d": 758.2421500000055,
      "v": 114
    },
    {
      "midi": 58,
      "hit": false,
      "t": 53736.29150000009,
      "d": 774.7256750000088,
      "v": 114
    },
    {
      "midi": 66,
      "hit": false,
      "t": 53736.29150000009,
      "d": 774.7256750000088,
      "v": 114
    },
    {
      "midi": 62,
      "hit": false,
      "t": 53736.29150000009,
      "d": 802.1982166666785,
      "v": 114
    },
    {
      "midi": 70,
      "hit": false,
      "t": 53763.76404166676,
      "d": 774.7256750000088,
      "v": 114
    },
    {
      "midi": 43,
      "hit": false,
      "t": 54065.96200000001,
      "d": 1285.7149500000014,
      "v": 29
    },
    {
      "midi": 58,
      "hit": false,
      "t": 54065.96200000001,
      "d": 1285.7149500000014,
      "v": 46
    },
    {
      "midi": 43,
      "hit": false,
      "t": 54065.962000000094,
      "d": 1263.7369166666685,
      "v": 114
    },
    {
      "midi": 62,
      "hit": false,
      "t": 54087.94003333334,
      "d": 615.3849333333346,
      "v": 36
    },
    {
      "midi": 67,
      "hit": false,
      "t": 54087.94003333334,
      "d": 807.6927250000008,
      "v": 58
    },
    {
      "midi": 69,
      "hit": false,
      "t": 54395.632500000094,
      "d": 472.52771666667104,
      "v": 114
    },
    {
      "midi": 67,
      "hit": false,
      "t": 54725.3030000001,
      "d": 818.68174166666,
      "v": 114
    },
    {
      "midi": 43,
      "hit": false,
      "t": 55384.644000000095,
      "d": 829.6707583333337,
      "v": 114
    },
    {
      "midi": 58,
      "hit": false,
      "t": 55384.644000000095,
      "d": 1791.2097166666645,
      "v": 114
    },
    {
      "midi": 53,
      "hit": false,
      "t": 55384.644000000095,
      "d": 2664.8365416666566,
      "v": 114
    },
    {
      "midi": 62,
      "hit": false,
      "t": 55417.611050000094,
      "d": 1791.2097166666645,
      "v": 114
    },
    {
      "midi": 55,
      "hit": false,
      "t": 56071.457541666685,
      "d": 401.0991083333356,
      "v": 39
    },
    {
      "midi": 43,
      "hit": false,
      "t": 56373.655500000095,
      "d": 324.1759916666633,
      "v": 114
    },
    {
      "midi": 67,
      "hit": false,
      "t": 56390.13902500002,
      "d": 857.1433000000034,
      "v": 41
    },
    {
      "midi": 58,
      "hit": false,
      "t": 57043.98551666669,
      "d": 395.60459999999875,
      "v": 50
    },
    {
      "midi": 65,
      "hit": false,
      "t": 57362.66700000009,
      "d": 274.72541666666075,
      "v": 114
    },
    {
      "midi": 55,
      "hit": false,
      "t": 57379.15052500002,
      "d": 395.60459999999875,
      "v": 55
    },
    {
      "midi": 67,
      "hit": false,
      "t": 57527.502250000085,
      "d": 274.72541666666075,
      "v": 114
    },
    {
      "midi": 69,
      "hit": false,
      "t": 57692.33750000008,
      "d": 324.1759916666633,
      "v": 114
    },
    {
      "midi": 62,
      "hit": false,
      "t": 57697.83200833335,
      "d": 274.725416666668,
      "v": 59
    },
    {
      "midi": 45,
      "hit": false,
      "t": 58022.00800000002,
      "d": 274.725416666668,
      "v": 40
    },
    {
      "midi": 58,
      "hit": false,
      "t": 58022.00800000002,
      "d": 274.725416666668,
      "v": 34
    },
    {
      "midi": 62,
      "hit": false,
      "t": 58022.00800000002,
      "d": 274.725416666668,
      "v": 49
    },
    {
      "midi": 43,
      "hit": false,
      "t": 58022.00800000008,
      "d": 71.42860833334271,
      "v": 114
    },
    {
      "midi": 57,
      "hit": false,
      "t": 58022.00800000008,
      "d": 785.7146916666752,
      "v": 114
    },
    {
      "midi": 58,
      "hit": false,
      "t": 58022.00800000008,
      "d": 829.6707583333409,
      "v": 114
    },
    {
      "midi": 62,
      "hit": false,
      "t": 58022.00800000008,
      "d": 846.1542833333442,
      "v": 114
    },
    {
      "midi": 67,
      "hit": false,
      "t": 58022.00800000008,
      "d": 873.6268250000139,
      "v": 114
    },
    {
      "midi": 67,
      "hit": false,
      "t": 58049.48054166669,
      "d": 247.2528749999983,
      "v": 42
    },
    {
      "midi": 69,
      "hit": false,
      "t": 58054.97505000009,
      "d": 846.1542833333442,
      "v": 114
    },
    {
      "midi": 43,
      "hit": false,
      "t": 58351.67850000002,
      "d": 945.0554333333421,
      "v": 40
    },
    {
      "midi": 55,
      "hit": false,
      "t": 58351.67850000002,
      "d": 945.0554333333421,
      "v": 34
    },
    {
      "midi": 59,
      "hit": false,
      "t": 58351.67850000002,
      "d": 945.0554333333421,
      "v": 49
    },
    {
      "midi": 62,
      "hit": false,
      "t": 58379.15104166669,
      "d": 917.5828916666724,
      "v": 42
    },
    {
      "midi": 66,
      "hit": false,
      "t": 58384.64555000003,
      "d": 912.0883833333355,
      "v": 55
    },
    {
      "midi": 66,
      "hit": false,
      "t": 59011.0195000001,
      "d": 934.0664166666684,
      "v": 114
    },
    {
      "midi": 58,
      "hit": false,
      "t": 59011.0195000001,
      "d": 1076.923633333332,
      "v": 114
    },
    {
      "midi": 62,
      "hit": false,
      "t": 59011.0195000001,
      "d": 1087.9126499999984,
      "v": 114
    },
    {
      "midi": 55,
      "hit": false,
      "t": 59011.0195000001,
      "d": 1763.737175000002,
      "v": 114
    },
    {
      "midi": 43,
      "hit": false,
      "t": 59011.0195000001,
      "d": 1774.7261916666685,
      "v": 114
    },
    {
      "midi": 70,
      "hit": false,
      "t": 59043.986550000096,
      "d": 1032.9675666666662,
      "v": 114
    },
    {
      "midi": 59,
      "hit": false,
      "t": 59340.69000000003,
      "d": 329.6705000000002,
      "v": 55
    },
    {
      "midi": 66,
      "hit": false,
      "t": 59340.69000000003,
      "d": 373.62656666667317,
      "v": 50
    },
    {
      "midi": 43,
      "hit": false,
      "t": 59340.69000000003,
      "d": 1285.7149500000087,
      "v": 34
    },
    {
      "midi": 55,
      "hit": false,
      "t": 59351.6790166667,
      "d": 197.80230000000302,
      "v": 38
    },
    {
      "midi": 69,
      "hit": false,
      "t": 59697.8330416667,
      "d": 928.5719083333388,
      "v": 47
    },
    {
      "midi": 65,
      "hit": false,
      "t": 60000.0310000001,
      "d": 285.7144333333272,
      "v": 114
    },
    {
      "midi": 59,
      "hit": false,
      "t": 60022.00903333337,
      "d": 582.4178833333353,
      "v": 55
    },
    {
      "midi": 67,
      "hit": false,
      "t": 60164.866250000094,
      "d": 285.7144333333272,
      "v": 114
    },
    {
      "midi": 69,
      "hit": false,
      "t": 60329.70150000009,
      "d": 428.5716500000053,
      "v": 114
    },
    {
      "midi": 62,
      "hit": false,
      "t": 60362.66855000004,
      "d": 263.7364000000016,
      "v": 64
    },
    {
      "midi": 39,
      "hit": false,
      "t": 60659.37200000004,
      "d": 274.725416666668,
      "v": 40
    },
    {
      "midi": 55,
      "hit": false,
      "t": 60659.37200000004,
      "d": 274.725416666668,
      "v": 34
    },
    {
      "midi": 58,
      "hit": false,
      "t": 60659.37200000004,
      "d": 274.725416666668,
      "v": 49
    },
    {
      "midi": 72,
      "hit": false,
      "t": 60659.37200000009,
      "d": 285.71443333334173,
      "v": 114
    },
    {
      "midi": 51,
      "hit": false,
      "t": 60659.37200000009,
      "d": 802.1982166666785,
      "v": 114
    },
    {
      "midi": 63,
      "hit": false,
      "t": 60659.37200000009,
      "d": 829.6707583333482,
      "v": 114
    },
    {
      "midi": 58,
      "hit": false,
      "t": 60659.37200000009,
      "d": 846.1542833333515,
      "v": 114
    },
    {
      "midi": 39,
      "hit": false,
      "t": 60659.37200000009,
      "d": 901.0993666666836,
      "v": 114
    },
    {
      "midi": 63,
      "hit": false,
      "t": 60686.84454166671,
      "d": 247.2528749999983,
      "v": 42
    },
    {
      "midi": 67,
      "hit": false,
      "t": 60686.84454166676,
      "d": 818.6817416666818,
      "v": 114
    },
    {
      "midi": 70,
      "hit": false,
      "t": 60824.2072500001,
      "d": 807.6927250000081,
      "v": 114
    },
    {
      "midi": 48,
      "hit": false,
      "t": 60989.04250000004,
      "d": 945.0554333333348,
      "v": 40
    },
    {
      "midi": 55,
      "hit": false,
      "t": 60989.04250000004,
      "d": 945.0554333333348,
      "v": 34
    },
    {
      "midi": 60,
      "hit": false,
      "t": 60989.04250000004,
      "d": 945.0554333333348,
      "v": 49
    },
    {
      "midi": 64,
      "hit": false,
      "t": 61016.51504166671,
      "d": 917.5828916666651,
      "v": 42
    },
    {
      "midi": 64,
      "hit": false,
      "t": 61648.38350000011,
      "d": 967.0334666666677,
      "v": 114
    },
    {
      "midi": 67,
      "hit": false,
      "t": 61648.38350000011,
      "d": 1043.9565833333327,
      "v": 114
    },
    {
      "midi": 60,
      "hit": false,
      "t": 61648.38350000011,
      "d": 1076.923633333332,
      "v": 114
    },
    {
      "midi": 48,
      "hit": false,
      "t": 61648.38350000011,
      "d": 1747.253650000006,
      "v": 114
    },
    {
      "midi": 36,
      "hit": false,
      "t": 61648.38350000011,
      "d": 1846.154800000004,
      "v": 114
    },
    {
      "midi": 70,
      "hit": false,
      "t": 61681.35055000011,
      "d": 1060.440108333336,
      "v": 114
    },
    {
      "midi": 48,
      "hit": false,
      "t": 61978.05400000004,
      "d": 1285.7149500000014,
      "v": 29
    },
    {
      "midi": 55,
      "hit": false,
      "t": 61978.05400000004,
      "d": 1285.7149500000014,
      "v": 46
    },
    {
      "midi": 60,
      "hit": false,
      "t": 62000.03203333337,
      "d": 615.3849333333346,
      "v": 36
    },
    {
      "midi": 64,
      "hit": false,
      "t": 62000.03203333337,
      "d": 807.6927250000008,
      "v": 58
    },
    {
      "midi": 64,
      "hit": false,
      "t": 62637.39500000011,
      "d": 313.18697500000417,
      "v": 114
    },
    {
      "midi": 65,
      "hit": false,
      "t": 62802.23025000012,
      "d": 285.71443333333445,
      "v": 114
    },
    {
      "midi": 67,
      "hit": false,
      "t": 62967.06550000012,
      "d": 324.1759916666633,
      "v": 114
    },
    {
      "midi": 53,
      "hit": false,
      "t": 63296.73600000004,
      "d": 274.725416666668,
      "v": 40
    },
    {
      "midi": 55,
      "hit": false,
      "t": 63296.73600000004,
      "d": 274.725416666668,
      "v": 34
    },
    {
      "midi": 60,
      "hit": false,
      "t": 63296.73600000004,
      "d": 274.725416666668,
      "v": 49
    },
    {
      "midi": 64,
      "hit": false,
      "t": 63296.73600000012,
      "d": 829.6707583333264,
      "v": 114
    },
    {
      "midi": 60,
      "hit": false,
      "t": 63296.73600000012,
      "d": 862.6378083333257,
      "v": 114
    },
    {
      "midi": 55,
      "hit": false,
      "t": 63296.73600000012,
      "d": 873.6268249999921,
      "v": 114
    },
    {
      "midi": 41,
      "hit": false,
      "t": 63296.73600000012,
      "d": 967.0334666666604,
      "v": 114
    },
    {
      "midi": 53,
      "hit": false,
      "t": 63296.73600000012,
      "d": 2736.2651500000065,
      "v": 114
    },
    {
      "midi": 64,
      "hit": false,
      "t": 63324.20854166671,
      "d": 247.2528749999983,
      "v": 42
    },
    {
      "midi": 67,
      "hit": false,
      "t": 63329.70305000012,
      "d": 829.6707583333264,
      "v": 114
    },
    {
      "midi": 41,
      "hit": false,
      "t": 63626.40650000004,
      "d": 945.0554333333348,
      "v": 40
    },
    {
      "midi": 57,
      "hit": false,
      "t": 63626.40650000004,
      "d": 945.0554333333348,
      "v": 34
    },
    {
      "midi": 60,
      "hit": false,
      "t": 63626.40650000004,
      "d": 945.0554333333348,
      "v": 49
    },
    {
      "midi": 65,
      "hit": false,
      "t": 63653.87904166671,
      "d": 917.5828916666651,
      "v": 42
    },
    {
      "midi": 41,
      "hit": false,
      "t": 64285.747500000114,
      "d": 324.1759916666633,
      "v": 114
    },
    {
      "midi": 57,
      "hit": false,
      "t": 64285.747500000114,
      "d": 758.2421499999982,
      "v": 114
    },
    {
      "midi": 60,
      "hit": false,
      "t": 64285.747500000114,
      "d": 774.7256750000015,
      "v": 114
    },
    {
      "midi": 65,
      "hit": false,
      "t": 64285.747500000114,
      "d": 802.1982166666712,
      "v": 114
    },
    {
      "midi": 69,
      "hit": false,
      "t": 64318.71455000011,
      "d": 571.4288666666689,
      "v": 114
    },
    {
      "midi": 41,
      "hit": false,
      "t": 64615.41800000004,
      "d": 1285.7149500000014,
      "v": 31
    },
    {
      "midi": 41,
      "hit": false,
      "t": 64615.418000000114,
      "d": 1549.4513500000103,
      "v": 114
    },
    {
      "midi": 57,
      "hit": false,
      "t": 64648.38505000004,
      "d": 197.80229999999574,
      "v": 35
    },
    {
      "midi": 60,
      "hit": false,
      "t": 64659.37406666671,
      "d": 329.6705000000002,
      "v": 52
    },
    {
      "midi": 65,
      "hit": false,
      "t": 64681.35210000004,
      "d": 401.0991083333356,
      "v": 47
    },
    {
      "midi": 69,
      "hit": false,
      "t": 64945.088500000114,
      "d": 500.00025833334075,
      "v": 114
    },
    {
      "midi": 57,
      "hit": false,
      "t": 64972.561041666704,
      "d": 928.5719083333388,
      "v": 44
    },
    {
      "midi": 70,
      "hit": false,
      "t": 65274.75900000012,
      "d": 456.0441916666605,
      "v": 114
    },
    {
      "midi": 60,
      "hit": false,
      "t": 65296.737033333375,
      "d": 582.4178833333353,
      "v": 52
    },
    {
      "midi": 72,
      "hit": false,
      "t": 65604.42950000011,
      "d": 2175.825300000026,
      "v": 114
    },
    {
      "midi": 65,
      "hit": false,
      "t": 65637.39655000005,
      "d": 263.7363999999943,
      "v": 61
    },
    {
      "midi": 36,
      "hit": false,
      "t": 65934.10000000005,
      "d": 1285.7149500000087,
      "v": 35
    },
    {
      "midi": 48,
      "hit": false,
      "t": 65934.10000000005,
      "d": 1285.7149500000087,
      "v": 50
    },
    {
      "midi": 55,
      "hit": false,
      "t": 65934.10000000005,
      "d": 1285.7149500000087,
      "v": 34
    },
    {
      "midi": 58,
      "hit": false,
      "t": 65934.10000000005,
      "d": 1285.7149500000087,
      "v": 56
    },
    {
      "midi": 48,
      "hit": false,
      "t": 65934.10000000012,
      "d": 785.7146916666679,
      "v": 114
    },
    {
      "midi": 58,
      "hit": false,
      "t": 65934.10000000012,
      "d": 1263.7369166666758,
      "v": 114
    },
    {
      "midi": 55,
      "hit": false,
      "t": 65934.10000000012,
      "d": 2796.7047416667046,
      "v": 114
    },
    {
      "midi": 63,
      "hit": false,
      "t": 65967.06705000013,
      "d": 1219.7808499999956,
      "v": 114
    },
    {
      "midi": 60,
      "hit": false,
      "t": 66011.02311666672,
      "d": 1208.7918333333364,
      "v": 49
    },
    {
      "midi": 63,
      "hit": false,
      "t": 66054.97918333339,
      "d": 1164.8357666666707,
      "v": 43
    },
    {
      "midi": 48,
      "hit": false,
      "t": 66923.11150000013,
      "d": 428.5716500000126,
      "v": 114
    },
    {
      "midi": 63,
      "hit": false,
      "t": 67252.78200000014,
      "d": 1362.638066666681,
      "v": 114
    },
    {
      "midi": 58,
      "hit": false,
      "t": 67252.78200000014,
      "d": 1461.5392166666861,
      "v": 114
    },
    {
      "midi": 41,
      "hit": false,
      "t": 67252.78200000014,
      "d": 1478.0227416666894,
      "v": 114
    },
    {
      "midi": 67,
      "hit": false,
      "t": 67593.44151666672,
      "d": 395.60460000000603,
      "v": 44
    },
    {
      "midi": 69,
      "hit": false,
      "t": 67912.12300000014,
      "d": 313.18697500000417,
      "v": 114
    },
    {
      "midi": 63,
      "hit": false,
      "t": 67928.60652500005,
      "d": 395.60460000000603,
      "v": 49
    },
    {
      "midi": 70,
      "hit": false,
      "t": 68076.95825000014,
      "d": 285.71443333334173,
      "v": 114
    },
    {
      "midi": 72,
      "hit": false,
      "t": 68241.79350000015,
      "d": 324.1759916666633,
      "v": 114
    },
    {
      "midi": 58,
      "hit": false,
      "t": 68247.28800833339,
      "d": 274.725416666668,
      "v": 53
    },
    {
      "midi": 60,
      "hit": false,
      "t": 68538.49695000015,
      "d": 2620.880474999998,
      "v": 114
    },
    {
      "midi": 34,
      "hit": false,
      "t": 68571.46400000005,
      "d": 2093.4076750000095,
      "v": 31
    },
    {
      "midi": 46,
      "hit": false,
      "t": 68571.46400000005,
      "d": 2170.3307916666818,
      "v": 39
    },
    {
      "midi": 46,
      "hit": false,
      "t": 68571.46400000014,
      "d": 846.1542833333515,
      "v": 114
    },
    {
      "midi": 62,
      "hit": false,
      "t": 68571.46400000014,
      "d": 2708.792608333344,
      "v": 114
    },
    {
      "midi": 65,
      "hit": false,
      "t": 68571.46400000014,
      "d": 2752.74867500001,
      "v": 114
    },
    {
      "midi": 57,
      "hit": false,
      "t": 68571.46400000014,
      "d": 2780.2212166666723,
      "v": 114
    },
    {
      "midi": 53,
      "hit": false,
      "t": 68604.43105000006,
      "d": 197.8023000000103,
      "v": 35
    },
    {
      "midi": 72,
      "hit": false,
      "t": 68604.43105000014,
      "d": 532.9673083333473,
      "v": 114
    },
    {
      "midi": 57,
      "hit": false,
      "t": 68615.42006666673,
      "d": 329.67050000000745,
      "v": 52
    },
    {
      "midi": 62,
      "hit": false,
      "t": 68637.39810000006,
      "d": 401.0991083333356,
      "v": 47
    },
    {
      "midi": 53,
      "hit": false,
      "t": 68928.60704166674,
      "d": 945.0554333333275,
      "v": 44
    },
    {
      "midi": 70,
      "hit": false,
      "t": 69065.96975000016,
      "d": 274.7254166666535,
      "v": 114
    },
    {
      "midi": 74,
      "hit": false,
      "t": 69230.80500000015,
      "d": 1489.011758333334,
      "v": 114
    },
    {
      "midi": 57,
      "hit": false,
      "t": 69252.7830333334,
      "d": 582.4178833333281,
      "v": 52
    },
    {
      "midi": 46,
      "hit": false,
      "t": 69560.47550000016,
      "d": 324.1759916666633,
      "v": 114
    },
    {
      "midi": 62,
      "hit": false,
      "t": 69593.44255000007,
      "d": 346.1540249999962,
      "v": 61
    },
    {
      "midi": 46,
      "hit": false,
      "t": 69890.14600000015,
      "d": 1247.253391666658,
      "v": 114
    },
    {
      "midi": 72,
      "hit": false,
      "t": 70879.15750000015,
      "d": 445.0551750000013,
      "v": 114
    },
    {
      "midi": 46,
      "hit": false,
      "t": 71208.82800000014,
      "d": 818.681741666689,
      "v": 114
    },
    {
      "midi": 60,
      "hit": false,
      "t": 71208.82800000014,
      "d": 2620.8804750000127,
      "v": 114
    },
    {
      "midi": 64,
      "hit": false,
      "t": 71208.82800000014,
      "d": 2736.265150000021,
      "v": 114
    },
    {
      "midi": 67,
      "hit": false,
      "t": 71208.82800000014,
      "d": 2752.7486750000244,
      "v": 114
    },
    {
      "midi": 46,
      "hit": false,
      "t": 71214.3225083334,
      "d": 2598.9024416666653,
      "v": 53
    },
    {
      "midi": 74,
      "hit": false,
      "t": 71241.79505000015,
      "d": 445.0551750000013,
      "v": 114
    },
    {
      "midi": 55,
      "hit": false,
      "t": 71533.00399166673,
      "d": 1054.9455999999918,
      "v": 46
    },
    {
      "midi": 72,
      "hit": false,
      "t": 71538.49850000015,
      "d": 428.5716500000126,
      "v": 114
    },
    {
      "midi": 60,
      "hit": false,
      "t": 71868.16900000007,
      "d": 1945.0559499999945,
      "v": 43
    },
    {
      "midi": 76,
      "hit": false,
      "t": 71868.16900000015,
      "d": 1489.011758333334,
      "v": 114
    },
    {
      "midi": 64,
      "hit": false,
      "t": 71873.6635083334,
      "d": 1939.561441666665,
      "v": 50
    },
    {
      "midi": 46,
      "hit": false,
      "t": 72197.83950000016,
      "d": 324.1759916666633,
      "v": 114
    },
    {
      "midi": 46,
      "hit": false,
      "t": 72527.51000000015,
      "d": 1478.0227416666748,
      "v": 114
    },
    {
      "midi": 74,
      "hit": false,
      "t": 73516.52150000015,
      "d": 489.0112416666816,
      "v": 114
    },
    {
      "midi": 45,
      "hit": false,
      "t": 73846.19200000016,
      "d": 829.6707583333337,
      "v": 114
    },
    {
      "midi": 60,
      "hit": false,
      "t": 73846.19200000016,
      "d": 1219.7808499999956,
      "v": 114
    },
    {
      "midi": 55,
      "hit": false,
      "t": 73846.19200000016,
      "d": 2708.792608333315,
      "v": 114
    },
    {
      "midi": 45,
      "hit": false,
      "t": 73851.6865083334,
      "d": 1280.2204416666646,
      "v": 53
    },
    {
      "midi": 72,
      "hit": false,
      "t": 73879.15905000016,
      "d": 472.52771666666376,
      "v": 114
    },
    {
      "midi": 52,
      "hit": false,
      "t": 74170.36799166673,
      "d": 961.5389583333308,
      "v": 46
    },
    {
      "midi": 64,
      "hit": false,
      "t": 74175.86250000016,
      "d": 1406.594133333303,
      "v": 114
    },
    {
      "midi": 55,
      "hit": false,
      "t": 74505.53300000007,
      "d": 626.3739499999938,
      "v": 43
    },
    {
      "midi": 57,
      "hit": false,
      "t": 74511.0275083334,
      "d": 620.8794416666642,
      "v": 50
    },
    {
      "midi": 45,
      "hit": false,
      "t": 74835.20350000015,
      "d": 324.1759916666633,
      "v": 114
    },
    {
      "midi": 45,
      "hit": false,
      "t": 75164.87400000007,
      "d": 1285.7149500000087,
      "v": 31
    },
    {
      "midi": 61,
      "hit": false,
      "t": 75164.87400000014,
      "d": 846.1542833333224,
      "v": 114
    },
    {
      "midi": 45,
      "hit": false,
      "t": 75164.87400000014,
      "d": 1532.9678249999997,
      "v": 114
    },
    {
      "midi": 52,
      "hit": false,
      "t": 75197.84105000008,
      "d": 197.8023000000103,
      "v": 35
    },
    {
      "midi": 55,
      "hit": false,
      "t": 75208.83006666675,
      "d": 329.67050000000745,
      "v": 52
    },
    {
      "midi": 61,
      "hit": false,
      "t": 75230.80810000008,
      "d": 401.0991083333356,
      "v": 47
    },
    {
      "midi": 70,
      "hit": false,
      "t": 75494.54450000013,
      "d": 500.0002583333262,
      "v": 114
    },
    {
      "midi": 52,
      "hit": false,
      "t": 75522.01704166675,
      "d": 928.5719083333242,
      "v": 44
    },
    {
      "midi": 69,
      "hit": false,
      "t": 75824.21500000013,
      "d": 456.04419166667503,
      "v": 114
    },
    {
      "midi": 55,
      "hit": false,
      "t": 75846.19303333342,
      "d": 582.4178833333281,
      "v": 52
    },
    {
      "midi": 60,
      "hit": false,
      "t": 76120.91845000013,
      "d": 1791.209716666679,
      "v": 114
    },
    {
      "midi": 62,
      "hit": false,
      "t": 76153.88550000013,
      "d": 1736.2646333333396,
      "v": 114
    },
    {
      "midi": 57,
      "hit": false,
      "t": 76153.88550000013,
      "d": 1791.209716666679,
      "v": 114
    },
    {
      "midi": 65,
      "hit": false,
      "t": 76153.88550000013,
      "d": 2148.352758333349,
      "v": 114
    },
    {
      "midi": 61,
      "hit": false,
      "t": 76186.85255000008,
      "d": 263.7363999999943,
      "v": 61
    },
    {
      "midi": 38,
      "hit": false,
      "t": 76483.55600000008,
      "d": 1285.7149500000087,
      "v": 31
    },
    {
      "midi": 50,
      "hit": false,
      "t": 76483.55600000008,
      "d": 1285.7149500000087,
      "v": 39
    },
    {
      "midi": 50,
      "hit": false,
      "t": 76483.55600000014,
      "d": 862.6378083333257,
      "v": 114
    },
    {
      "midi": 57,
      "hit": false,
      "t": 76516.52305000009,
      "d": 197.8023000000103,
      "v": 35
    },
    {
      "midi": 60,
      "hit": false,
      "t": 76527.51206666676,
      "d": 329.67050000000745,
      "v": 52
    },
    {
      "midi": 65,
      "hit": false,
      "t": 76549.4901000001,
      "d": 401.0991083333356,
      "v": 47
    },
    {
      "midi": 57,
      "hit": false,
      "t": 76840.69904166677,
      "d": 928.5719083333242,
      "v": 44
    },
    {
      "midi": 60,
      "hit": false,
      "t": 77164.87503333343,
      "d": 582.4178833333281,
      "v": 52
    },
    {
      "midi": 50,
      "hit": false,
      "t": 77472.56750000014,
      "d": 324.1759916666633,
      "v": 114
    },
    {
      "midi": 65,
      "hit": false,
      "t": 77505.5345500001,
      "d": 263.7363999999943,
      "v": 61
    },
    {
      "midi": 49,
      "hit": false,
      "t": 77802.2380000001,
      "d": 1285.7149499999941,
      "v": 29
    },
    {
      "midi": 53,
      "hit": false,
      "t": 77802.2380000001,
      "d": 1285.7149499999941,
      "v": 46
    },
    {
      "midi": 55,
      "hit": false,
      "t": 77802.23800000013,
      "d": 1302.198475000012,
      "v": 114
    },
    {
      "midi": 49,
      "hit": false,
      "t": 77802.23800000013,
      "d": 1346.1545416666777,
      "v": 114
    },
    {
      "midi": 55,
      "hit": false,
      "t": 77824.21603333343,
      "d": 615.3849333333346,
      "v": 36
    },
    {
      "midi": 58,
      "hit": false,
      "t": 77824.21603333343,
      "d": 807.6927250000008,
      "v": 58
    },
    {
      "midi": 58,
      "hit": false,
      "t": 77835.20505000014,
      "d": 1291.2094583333383,
      "v": 114
    },
    {
      "midi": 61,
      "hit": false,
      "t": 77851.6885750001,
      "d": 868.1323166666698,
      "v": 75
    },
    {
      "midi": 64,
      "hit": false,
      "t": 78461.57900000014,
      "d": 258.24189166666474,
      "v": 114
    },
    {
      "midi": 65,
      "hit": false,
      "t": 78626.41425000015,
      "d": 285.7144333333272,
      "v": 114
    },
    {
      "midi": 67,
      "hit": false,
      "t": 78791.24950000014,
      "d": 324.1759916666779,
      "v": 114
    },
    {
      "midi": 53,
      "hit": false,
      "t": 79120.9200000001,
      "d": 274.725416666668,
      "v": 40
    },
    {
      "midi": 55,
      "hit": false,
      "t": 79120.9200000001,
      "d": 274.725416666668,
      "v": 34
    },
    {
      "midi": 60,
      "hit": false,
      "t": 79120.9200000001,
      "d": 274.725416666668,
      "v": 49
    },
    {
      "midi": 41,
      "hit": false,
      "t": 79120.92000000014,
      "d": 456.0441916666605,
      "v": 114
    },
    {
      "midi": 55,
      "hit": false,
      "t": 79120.92000000014,
      "d": 862.6378083333402,
      "v": 114
    },
    {
      "midi": 64,
      "hit": false,
      "t": 79120.92000000014,
      "d": 862.6378083333402,
      "v": 114
    },
    {
      "midi": 60,
      "hit": false,
      "t": 79120.92000000014,
      "d": 873.6268250000139,
      "v": 114
    },
    {
      "midi": 64,
      "hit": false,
      "t": 79148.39254166676,
      "d": 247.2528750000056,
      "v": 42
    },
    {
      "midi": 67,
      "hit": false,
      "t": 79153.88705000014,
      "d": 829.6707583333482,
      "v": 114
    },
    {
      "midi": 41,
      "hit": false,
      "t": 79450.59050000011,
      "d": 945.0554333333275,
      "v": 40
    },
    {
      "midi": 57,
      "hit": false,
      "t": 79450.59050000011,
      "d": 945.0554333333275,
      "v": 34
    },
    {
      "midi": 60,
      "hit": false,
      "t": 79450.59050000011,
      "d": 945.0554333333275,
      "v": 49
    },
    {
      "midi": 48,
      "hit": false,
      "t": 79450.59050000014,
      "d": 456.04419166667503,
      "v": 114
    },
    {
      "midi": 65,
      "hit": false,
      "t": 79478.06304166677,
      "d": 917.5828916666651,
      "v": 42
    },
    {
      "midi": 53,
      "hit": false,
      "t": 79780.26100000014,
      "d": 417.5826333333389,
      "v": 114
    },
    {
      "midi": 57,
      "hit": false,
      "t": 80109.93150000015,
      "d": 648.3519833333266,
      "v": 114
    },
    {
      "midi": 65,
      "hit": false,
      "t": 80109.93150000015,
      "d": 648.3519833333266,
      "v": 114
    },
    {
      "midi": 60,
      "hit": false,
      "t": 80109.93150000015,
      "d": 758.2421500000055,
      "v": 114
    },
    {
      "midi": 41,
      "hit": false,
      "t": 80109.93150000015,
      "d": 1763.7371749999875,
      "v": 114
    },
    {
      "midi": 69,
      "hit": false,
      "t": 80137.40404166681,
      "d": 730.7696083333431,
      "v": 114
    },
    {
      "midi": 41,
      "hit": false,
      "t": 80439.6020000001,
      "d": 1285.7149499999941,
      "v": 29
    },
    {
      "midi": 57,
      "hit": false,
      "t": 80439.6020000001,
      "d": 1285.7149499999941,
      "v": 46
    },
    {
      "midi": 60,
      "hit": false,
      "t": 80461.58003333343,
      "d": 615.3849333333346,
      "v": 36
    },
    {
      "midi": 65,
      "hit": false,
      "t": 80461.58003333343,
      "d": 807.6927250000008,
      "v": 58
    },
    {
      "midi": 65,
      "hit": false,
      "t": 80769.27250000015,
      "d": 324.1759916666779,
      "v": 114
    },
    {
      "midi": 65,
      "hit": false,
      "t": 81098.94300000016,
      "d": 324.1759916666633,
      "v": 114
    },
    {
      "midi": 67,
      "hit": false,
      "t": 81318.72333333349,
      "d": 357.14304166665534,
      "v": 114
    },
    {
      "midi": 69,
      "hit": false,
      "t": 81538.50366666682,
      "d": 285.7144333333272,
      "v": 114
    },
    {
      "midi": 65,
      "hit": false,
      "t": 81725.31695000014,
      "d": 2609.891458333339,
      "v": 114
    },
    {
      "midi": 34,
      "hit": false,
      "t": 81758.2840000001,
      "d": 2093.4076750000095,
      "v": 31
    },
    {
      "midi": 46,
      "hit": false,
      "t": 81758.2840000001,
      "d": 2170.3307916666818,
      "v": 39
    },
    {
      "midi": 72,
      "hit": false,
      "t": 81758.28400000015,
      "d": 274.7254166666535,
      "v": 114
    },
    {
      "midi": 58,
      "hit": false,
      "t": 81758.28400000015,
      "d": 472.52771666666376,
      "v": 114
    },
    {
      "midi": 46,
      "hit": false,
      "t": 81758.28400000015,
      "d": 829.6707583333337,
      "v": 114
    },
    {
      "midi": 61,
      "hit": false,
      "t": 81758.28400000015,
      "d": 2565.9353916666587,
      "v": 114
    },
    {
      "midi": 67,
      "hit": false,
      "t": 81758.28400000015,
      "d": 2582.418916666662,
      "v": 114
    },
    {
      "midi": 53,
      "hit": false,
      "t": 81791.25105000011,
      "d": 197.8023000000103,
      "v": 35
    },
    {
      "midi": 55,
      "hit": false,
      "t": 81802.24006666678,
      "d": 329.67050000000745,
      "v": 52
    },
    {
      "midi": 61,
      "hit": false,
      "t": 81824.21810000011,
      "d": 401.0991083333356,
      "v": 47
    },
    {
      "midi": 70,
      "hit": false,
      "t": 81923.11925000013,
      "d": 730.7696083333431,
      "v": 114
    },
    {
      "midi": 57,
      "hit": false,
      "t": 82087.95450000014,
      "d": 324.1759916666779,
      "v": 114
    },
    {
      "midi": 53,
      "hit": false,
      "t": 82115.42704166679,
      "d": 945.0554333333275,
      "v": 44
    },
    {
      "midi": 56,
      "hit": false,
      "t": 82417.62500000015,
      "d": 472.52771666666376,
      "v": 114
    },
    {
      "midi": 55,
      "hit": false,
      "t": 82439.60303333345,
      "d": 582.4178833333281,
      "v": 52
    },
    {
      "midi": 70,
      "hit": false,
      "t": 82747.29550000014,
      "d": 1549.451350000003,
      "v": 114
    },
    {
      "midi": 46,
      "hit": false,
      "t": 82747.29550000014,
      "d": 1593.4074166666687,
      "v": 114
    },
    {
      "midi": 55,
      "hit": false,
      "t": 82747.29550000014,
      "d": 1747.2536499999987,
      "v": 114
    },
    {
      "midi": 61,
      "hit": false,
      "t": 82780.26255000012,
      "d": 346.1540249999962,
      "v": 61
    },
    {
      "midi": 60,
      "hit": false,
      "t": 84230.81275000014,
      "d": 159.3407416666596,
      "v": 114
    },
    {
      "midi": 45,
      "hit": false,
      "t": 84395.64800000012,
      "d": 274.725416666668,
      "v": 40
    },
    {
      "midi": 53,
      "hit": false,
      "t": 84395.64800000012,
      "d": 274.725416666668,
      "v": 34
    },
    {
      "midi": 58,
      "hit": false,
      "t": 84395.64800000012,
      "d": 274.725416666668,
      "v": 49
    },
    {
      "midi": 65,
      "hit": false,
      "t": 84395.64800000013,
      "d": 324.1759916666779,
      "v": 114
    },
    {
      "midi": 62,
      "hit": false,
      "t": 84395.64800000013,
      "d": 428.57164999999804,
      "v": 114
    },
    {
      "midi": 46,
      "hit": false,
      "t": 84395.64800000013,
      "d": 489.01124166666705,
      "v": 114
    },
    {
      "midi": 62,
      "hit": false,
      "t": 84423.12054166678,
      "d": 247.2528750000056,
      "v": 42
    },
    {
      "midi": 70,
      "hit": false,
      "t": 84428.61505000014,
      "d": 489.01124166666705,
      "v": 114
    },
    {
      "midi": 43,
      "hit": false,
      "t": 84725.31850000012,
      "d": 604.3959166666609,
      "v": 40
    },
    {
      "midi": 55,
      "hit": false,
      "t": 84725.31850000012,
      "d": 604.3959166666609,
      "v": 34
    },
    {
      "midi": 58,
      "hit": false,
      "t": 84725.31850000012,
      "d": 604.3959166666609,
      "v": 49
    },
    {
      "midi": 65,
      "hit": false,
      "t": 84725.31850000014,
      "d": 324.1759916666633,
      "v": 114
    },
    {
      "midi": 60,
      "hit": false,
      "t": 84725.31850000014,
      "d": 456.0441916666605,
      "v": 114
    },
    {
      "midi": 45,
      "hit": false,
      "t": 84725.31850000014,
      "d": 802.1982166666421,
      "v": 114
    },
    {
      "midi": 62,
      "hit": false,
      "t": 84752.79104166679,
      "d": 576.9233749999985,
      "v": 42
    },
    {
      "midi": 69,
      "hit": false,
      "t": 84752.7910416668,
      "d": 357.1430416666699,
      "v": 114
    },
    {
      "midi": 65,
      "hit": false,
      "t": 84758.28555000012,
      "d": 571.4288666666689,
      "v": 55
    },
    {
      "midi": 65,
      "hit": false,
      "t": 85054.98900000013,
      "d": 324.1759916666633,
      "v": 114
    },
    {
      "midi": 48,
      "hit": false,
      "t": 85384.65950000013,
      "d": 1604.3964333333279,
      "v": 29
    },
    {
      "midi": 53,
      "hit": false,
      "t": 85384.65950000013,
      "d": 1604.3964333333279,
      "v": 46
    },
    {
      "midi": 43,
      "hit": false,
      "t": 85384.65950000013,
      "d": 785.7146916666534,
      "v": 114
    },
    {
      "midi": 62,
      "hit": false,
      "t": 85384.65950000013,
      "d": 1060.4401083333069,
      "v": 114
    },
    {
      "midi": 58,
      "hit": false,
      "t": 85384.65950000013,
      "d": 1131.868716666635,
      "v": 114
    },
    {
      "midi": 58,
      "hit": false,
      "t": 85406.63753333346,
      "d": 934.0664166666684,
      "v": 36
    },
    {
      "midi": 62,
      "hit": false,
      "t": 85406.63753333346,
      "d": 1126.3742083333345,
      "v": 58
    },
    {
      "midi": 65,
      "hit": false,
      "t": 85412.13204166679,
      "d": 917.5828916666505,
      "v": 114
    },
    {
      "midi": 36,
      "hit": false,
      "t": 86044.00050000011,
      "d": 901.0993666666473,
      "v": 114
    },
    {
      "midi": 65,
      "hit": false,
      "t": 86373.6710000001,
      "d": 456.0441916666605,
      "v": 114
    },
    {
      "midi": 67,
      "hit": false,
      "t": 86703.3415000001,
      "d": 774.7256749999942,
      "v": 114
    },
    {
      "midi": 55,
      "hit": false,
      "t": 87033.01200000009,
      "d": 802.1982166666712,
      "v": 114
    },
    {
      "midi": 52,
      "hit": false,
      "t": 87033.01200000009,
      "d": 846.1542833333369,
      "v": 114
    },
    {
      "midi": 41,
      "hit": false,
      "t": 87033.01200000009,
      "d": 862.6378083333402,
      "v": 114
    },
    {
      "midi": 53,
      "hit": false,
      "t": 87033.01200000012,
      "d": 274.725416666668,
      "v": 40
    },
    {
      "midi": 55,
      "hit": false,
      "t": 87033.01200000012,
      "d": 274.725416666668,
      "v": 34
    },
    {
      "midi": 60,
      "hit": false,
      "t": 87033.01200000012,
      "d": 274.725416666668,
      "v": 49
    },
    {
      "midi": 64,
      "hit": false,
      "t": 87060.48454166678,
      "d": 247.2528750000056,
      "v": 42
    },
    {
      "midi": 60,
      "hit": false,
      "t": 87065.9790500001,
      "d": 818.68174166666,
      "v": 114
    },
    {
      "midi": 65,
      "hit": false,
      "t": 87362.6825000001,
      "d": 2307.6935000000085,
      "v": 114
    },
    {
      "midi": 41,
      "hit": false,
      "t": 87362.68250000013,
      "d": 945.0554333333275,
      "v": 40
    },
    {
      "midi": 57,
      "hit": false,
      "t": 87362.68250000013,
      "d": 945.0554333333275,
      "v": 34
    },
    {
      "midi": 60,
      "hit": false,
      "t": 87362.68250000013,
      "d": 945.0554333333275,
      "v": 49
    },
    {
      "midi": 65,
      "hit": false,
      "t": 87390.15504166679,
      "d": 917.5828916666651,
      "v": 42
    },
    {
      "midi": 41,
      "hit": false,
      "t": 88022.0235000001,
      "d": 802.1982166666712,
      "v": 114
    },
    {
      "midi": 53,
      "hit": false,
      "t": 88022.0235000001,
      "d": 818.6817416666745,
      "v": 114
    },
    {
      "midi": 57,
      "hit": false,
      "t": 88022.0235000001,
      "d": 1648.3525000000081,
      "v": 114
    },
    {
      "midi": 48,
      "hit": false,
      "t": 88681.3645000001,
      "d": 489.01124166666705,
      "v": 114
    },
    {
      "midi": 69,
      "hit": false,
      "t": 88692.35351666679,
      "d": 395.60460000000603,
      "v": 44
    },
    {
      "midi": 41,
      "hit": false,
      "t": 89011.0350000001,
      "d": 648.3519833333266,
      "v": 114
    },
    {
      "midi": 65,
      "hit": false,
      "t": 89027.51852500012,
      "d": 395.60460000000603,
      "v": 49
    },
    {
      "midi": 60,
      "hit": false,
      "t": 89346.20000833346,
      "d": 274.725416666668,
      "v": 53
    },
    {
      "midi": 60,
      "hit": false,
      "t": 89670.3760000001,
      "d": 49.45057500000985,
      "v": 114
    },
    {
      "midi": 38,
      "hit": false,
      "t": 89670.3760000001,
      "d": 456.04419166667503,
      "v": 114
    },
    {
      "midi": 55,
      "hit": false,
      "t": 89670.3760000001,
      "d": 846.1542833333369,
      "v": 114
    },
    {
      "midi": 64,
      "hit": false,
      "t": 89670.3760000001,
      "d": 862.6378083333402,
      "v": 114
    },
    {
      "midi": 50,
      "hit": false,
      "t": 89670.37600000012,
      "d": 274.725416666668,
      "v": 40
    },
    {
      "midi": 55,
      "hit": false,
      "t": 89670.37600000012,
      "d": 274.725416666668,
      "v": 34
    },
    {
      "midi": 60,
      "hit": false,
      "t": 89670.37600000012,
      "d": 274.725416666668,
      "v": 49
    },
    {
      "midi": 64,
      "hit": false,
      "t": 89697.84854166678,
      "d": 247.2528750000056,
      "v": 42
    },
    {
      "midi": 67,
      "hit": false,
      "t": 89703.34305000011,
      "d": 818.68174166666,
      "v": 114
    },
    {
      "midi": 45,
      "hit": false,
      "t": 90000.04650000011,
      "d": 445.0551750000013,
      "v": 114
    },
    {
      "midi": 50,
      "hit": false,
      "t": 90000.04650000013,
      "d": 945.055433333313,
      "v": 40
    },
    {
      "midi": 57,
      "hit": false,
      "t": 90000.04650000013,
      "d": 945.055433333313,
      "v": 34
    },
    {
      "midi": 60,
      "hit": false,
      "t": 90000.04650000013,
      "d": 945.055433333313,
      "v": 49
    },
    {
      "midi": 62,
      "hit": false,
      "t": 90027.51904166679,
      "d": 917.5828916666505,
      "v": 42
    },
    {
      "midi": 65,
      "hit": false,
      "t": 90033.01355000012,
      "d": 912.088383333321,
      "v": 55
    },
    {
      "midi": 50,
      "hit": false,
      "t": 90329.71700000012,
      "d": 500.0002583333262,
      "v": 114
    },
    {
      "midi": 38,
      "hit": false,
      "t": 90659.38750000011,
      "d": 967.0334666666604,
      "v": 114
    },
    {
      "midi": 57,
      "hit": false,
      "t": 90659.38750000011,
      "d": 967.0334666666604,
      "v": 114
    },
    {
      "midi": 60,
      "hit": false,
      "t": 90659.38750000011,
      "d": 967.0334666666604,
      "v": 114
    },
    {
      "midi": 65,
      "hit": false,
      "t": 90659.38750000011,
      "d": 967.0334666666604,
      "v": 114
    },
    {
      "midi": 69,
      "hit": false,
      "t": 90692.35455000012,
      "d": 939.5609249999834,
      "v": 114
    },
    {
      "midi": 50,
      "hit": false,
      "t": 90989.0580000001,
      "d": 1285.7149499999941,
      "v": 29
    },
    {
      "midi": 57,
      "hit": false,
      "t": 90989.0580000001,
      "d": 1285.7149499999941,
      "v": 46
    },
    {
      "midi": 60,
      "hit": false,
      "t": 91011.03603333344,
      "d": 615.3849333333346,
      "v": 36
    },
    {
      "midi": 62,
      "hit": false,
      "t": 91011.03603333344,
      "d": 807.6927250000008,
      "v": 58
    },
    {
      "midi": 65,
      "hit": false,
      "t": 91038.5085750001,
      "d": 868.1323166666698,
      "v": 75
    },
    {
      "midi": 57,
      "hit": false,
      "t": 91648.3990000001,
      "d": 258.24189166666474,
      "v": 114
    },
    {
      "midi": 65,
      "hit": false,
      "t": 91670.37703333344,
      "d": 214.28582499999902,
      "v": 114
    },
    {
      "midi": 58,
      "hit": false,
      "t": 91813.23425000011,
      "d": 214.28582499999902,
      "v": 114
    },
    {
      "midi": 67,
      "hit": false,
      "t": 91840.70679166677,
      "d": 203.29680833333987,
      "v": 114
    },
    {
      "midi": 60,
      "hit": false,
      "t": 91978.0695000001,
      "d": 324.1759916666779,
      "v": 114
    },
    {
      "midi": 69,
      "hit": false,
      "t": 92011.0365500001,
      "d": 291.2089416666713,
      "v": 114
    },
    {
      "midi": 43,
      "hit": false,
      "t": 92307.7400000001,
      "d": 274.725416666668,
      "v": 40
    },
    {
      "midi": 57,
      "hit": false,
      "t": 92307.7400000001,
      "d": 274.725416666668,
      "v": 34
    },
    {
      "midi": 60,
      "hit": false,
      "t": 92307.7400000001,
      "d": 274.725416666668,
      "v": 49
    },
    {
      "midi": 60,
      "hit": false,
      "t": 92307.7400000001,
      "d": 774.7256749999942,
      "v": 114
    },
    {
      "midi": 43,
      "hit": false,
      "t": 92307.7400000001,
      "d": 862.6378083333257,
      "v": 114
    },
    {
      "midi": 65,
      "hit": false,
      "t": 92335.21254166677,
      "d": 247.2528750000056,
      "v": 42
    },
    {
      "midi": 69,
      "hit": false,
      "t": 92340.70705000011,
      "d": 758.2421499999909,
      "v": 114
    },
    {
      "midi": 43,
      "hit": false,
      "t": 92637.41050000011,
      "d": 945.055433333313,
      "v": 40
    },
    {
      "midi": 55,
      "hit": false,
      "t": 92637.41050000011,
      "d": 945.055433333313,
      "v": 34
    },
    {
      "midi": 58,
      "hit": false,
      "t": 92637.41050000011,
      "d": 945.055433333313,
      "v": 49
    },
    {
      "midi": 50,
      "hit": false,
      "t": 92637.41050000011,
      "d": 1247.2533916666434,
      "v": 114
    },
    {
      "midi": 62,
      "hit": false,
      "t": 92664.88304166678,
      "d": 917.5828916666505,
      "v": 42
    },
    {
      "midi": 65,
      "hit": false,
      "t": 92670.3775500001,
      "d": 912.088383333321,
      "v": 55
    },
    {
      "midi": 58,
      "hit": false,
      "t": 92967.08100000011,
      "d": 472.5277166666492,
      "v": 114
    },
    {
      "midi": 43,
      "hit": false,
      "t": 93296.7515000001,
      "d": 648.3519833333266,
      "v": 114
    },
    {
      "midi": 62,
      "hit": false,
      "t": 93296.7515000001,
      "d": 1032.967566666659,
      "v": 114
    },
    {
      "midi": 70,
      "hit": false,
      "t": 93324.22404166676,
      "d": 1076.9236333333247,
      "v": 114
    },
    {
      "midi": 50,
      "hit": false,
      "t": 93956.0925000001,
      "d": 873.6268249999848,
      "v": 114
    },
    {
      "midi": 58,
      "hit": false,
      "t": 93967.08151666676,
      "d": 395.60460000000603,
      "v": 44
    },
    {
      "midi": 58,
      "hit": false,
      "t": 94285.7630000001,
      "d": 324.1759916666633,
      "v": 114
    },
    {
      "midi": 55,
      "hit": false,
      "t": 94302.2465250001,
      "d": 395.60460000000603,
      "v": 49
    },
    {
      "midi": 62,
      "hit": false,
      "t": 94615.43350000009,
      "d": 324.1759916666633,
      "v": 114
    },
    {
      "midi": 62,
      "hit": false,
      "t": 94620.92800833343,
      "d": 274.725416666668,
      "v": 53
    },
    {
      "midi": 53,
      "hit": false,
      "t": 94945.10400000008,
      "d": 785.7146916666679,
      "v": 114
    },
    {
      "midi": 62,
      "hit": false,
      "t": 94945.10400000008,
      "d": 846.1542833333369,
      "v": 114
    },
    {
      "midi": 58,
      "hit": false,
      "t": 94945.10400000008,
      "d": 873.6268249999994,
      "v": 114
    },
    {
      "midi": 48,
      "hit": false,
      "t": 94945.10400000008,
      "d": 2681.320066666696,
      "v": 114
    },
    {
      "midi": 36,
      "hit": false,
      "t": 94945.10400000008,
      "d": 2708.7926083333587,
      "v": 114
    },
    {
      "midi": 48,
      "hit": false,
      "t": 94945.1040000001,
      "d": 626.3739499999938,
      "v": 40
    },
    {
      "midi": 53,
      "hit": false,
      "t": 94945.1040000001,
      "d": 626.3739499999938,
      "v": 34
    },
    {
      "midi": 58,
      "hit": false,
      "t": 94945.1040000001,
      "d": 626.3739499999938,
      "v": 49
    },
    {
      "midi": 62,
      "hit": false,
      "t": 94972.57654166676,
      "d": 598.9014083333313,
      "v": 42
    },
    {
      "midi": 65,
      "hit": false,
      "t": 94978.07105000009,
      "d": 758.2421499999909,
      "v": 114
    },
    {
      "midi": 60,
      "hit": false,
      "t": 95604.44500000008,
      "d": 785.7146916666679,
      "v": 114
    },
    {
      "midi": 55,
      "hit": false,
      "t": 95604.44500000008,
      "d": 846.1542833333369,
      "v": 114
    },
    {
      "midi": 48,
      "hit": false,
      "t": 95604.4450000001,
      "d": 626.3739499999938,
      "v": 40
    },
    {
      "midi": 55,
      "hit": false,
      "t": 95604.4450000001,
      "d": 626.3739499999938,
      "v": 34
    },
    {
      "midi": 60,
      "hit": false,
      "t": 95604.4450000001,
      "d": 626.3739499999938,
      "v": 49
    },
    {
      "midi": 64,
      "hit": false,
      "t": 95631.91754166676,
      "d": 598.9014083333313,
      "v": 42
    },
    {
      "midi": 64,
      "hit": false,
      "t": 95637.41205000009,
      "d": 818.68174166666,
      "v": 114
    },
    {
      "midi": 53,
      "hit": false,
      "t": 96263.78600000008,
      "d": 774.7256750000088,
      "v": 114
    },
    {
      "midi": 58,
      "hit": false,
      "t": 96263.78600000008,
      "d": 774.7256750000088,
      "v": 114
    },
    {
      "midi": 62,
      "hit": false,
      "t": 96263.78600000008,
      "d": 802.1982166666712,
      "v": 114
    },
    {
      "midi": 48,
      "hit": false,
      "t": 96263.7860000001,
      "d": 626.3739499999938,
      "v": 40
    },
    {
      "midi": 53,
      "hit": false,
      "t": 96263.7860000001,
      "d": 626.3739499999938,
      "v": 34
    },
    {
      "midi": 58,
      "hit": false,
      "t": 96263.7860000001,
      "d": 626.3739499999938,
      "v": 49
    },
    {
      "midi": 65,
      "hit": false,
      "t": 96291.25854166674,
      "d": 818.6817416666745,
      "v": 114
    },
    {
      "midi": 62,
      "hit": false,
      "t": 96291.25854166676,
      "d": 598.9014083333313,
      "v": 42
    },
    {
      "midi": 55,
      "hit": false,
      "t": 96923.12700000008,
      "d": 648.3519833333412,
      "v": 114
    },
    {
      "midi": 60,
      "hit": false,
      "t": 96923.12700000008,
      "d": 648.3519833333412,
      "v": 114
    },
    {
      "midi": 64,
      "hit": false,
      "t": 96923.12700000008,
      "d": 758.24215000002,
      "v": 114
    },
    {
      "midi": 48,
      "hit": false,
      "t": 96923.1270000001,
      "d": 626.3739499999938,
      "v": 40
    },
    {
      "midi": 55,
      "hit": false,
      "t": 96923.1270000001,
      "d": 626.3739499999938,
      "v": 34
    },
    {
      "midi": 60,
      "hit": false,
      "t": 96923.1270000001,
      "d": 626.3739499999938,
      "v": 49
    },
    {
      "midi": 64,
      "hit": false,
      "t": 96950.59954166676,
      "d": 598.9014083333313,
      "v": 42
    },
    {
      "midi": 67,
      "hit": false,
      "t": 96956.09405000009,
      "d": 758.24215000002,
      "v": 114
    },
    {
      "midi": 43,
      "hit": false,
      "t": 97582.4680000001,
      "d": 2093.4076749999804,
      "v": 29
    },
    {
      "midi": 60,
      "hit": false,
      "t": 97582.4680000001,
      "d": 445.0551750000159,
      "v": 114
    },
    {
      "midi": 55,
      "hit": false,
      "t": 97582.4680000001,
      "d": 472.5277166666783,
      "v": 114
    },
    {
      "midi": 57,
      "hit": false,
      "t": 97604.44603333343,
      "d": 197.80229999999574,
      "v": 33
    },
    {
      "midi": 60,
      "hit": false,
      "t": 97609.94054166676,
      "d": 329.6704999999929,
      "v": 50
    },
    {
      "midi": 57,
      "hit": false,
      "t": 97615.4350500001,
      "d": 401.0991083333356,
      "v": 114
    },
    {
      "midi": 65,
      "hit": false,
      "t": 97626.42406666676,
      "d": 401.09910833332106,
      "v": 45
    },
    {
      "midi": 65,
      "hit": false,
      "t": 97912.1385000001,
      "d": 428.5716500000126,
      "v": 114
    },
    {
      "midi": 48,
      "hit": false,
      "t": 97912.1385000001,
      "d": 516.483783333344,
      "v": 114
    },
    {
      "midi": 57,
      "hit": false,
      "t": 97939.61104166675,
      "d": 945.0554333333275,
      "v": 42
    },
    {
      "midi": 55,
      "hit": false,
      "t": 98241.80900000011,
      "d": 456.04419166667503,
      "v": 114
    },
    {
      "midi": 69,
      "hit": false,
      "t": 98241.80900000011,
      "d": 456.04419166667503,
      "v": 114
    },
    {
      "midi": 60,
      "hit": false,
      "t": 98263.78703333341,
      "d": 582.4178833333281,
      "v": 50
    },
    {
      "midi": 65,
      "hit": false,
      "t": 98571.47950000012,
      "d": 648.3519833333412,
      "v": 114
    },
    {
      "midi": 60,
      "hit": false,
      "t": 98571.47950000012,
      "d": 785.7146916666825,
      "v": 114
    },
    {
      "midi": 57,
      "hit": false,
      "t": 98571.47950000012,
      "d": 1703.2975833333476,
      "v": 114
    },
    {
      "midi": 65,
      "hit": false,
      "t": 98604.44655000008,
      "d": 346.1540249999962,
      "v": 59
    },
    {
      "midi": 67,
      "hit": false,
      "t": 98604.44655000012,
      "d": 802.1982166666712,
      "v": 114
    },
    {
      "midi": 65,
      "hit": false,
      "t": 99230.82050000013,
      "d": 500.0002583333262,
      "v": 114
    },
    {
      "midi": 69,
      "hit": false,
      "t": 99560.49100000013,
      "d": 648.3519833333266,
      "v": 114
    },
    {
      "midi": 43,
      "hit": false,
      "t": 100219.83200000008,
      "d": 2362.638583333348,
      "v": 41
    },
    {
      "midi": 41,
      "hit": false,
      "t": 100219.83200000013,
      "d": 87.91213333334599,
      "v": 114
    },
    {
      "midi": 69,
      "hit": false,
      "t": 100263.78806666675,
      "d": 384.6155833333469,
      "v": 41
    },
    {
      "midi": 60,
      "hit": false,
      "t": 100274.77708333342,
      "d": 175.82426666666288,
      "v": 45
    },
    {
      "midi": 65,
      "hit": false,
      "t": 100274.77708333342,
      "d": 346.15402500001073,
      "v": 57
    },
    {
      "midi": 48,
      "hit": false,
      "t": 100549.50250000013,
      "d": 428.57164999999804,
      "v": 114
    },
    {
      "midi": 65,
      "hit": false,
      "t": 100549.50250000013,
      "d": 445.0551750000013,
      "v": 114
    },
    {
      "midi": 60,
      "hit": false,
      "t": 100582.4695500001,
      "d": 626.3739499999938,
      "v": 61
    },
    {
      "midi": 55,
      "hit": false,
      "t": 100879.17300000013,
      "d": 384.6155833333469,
      "v": 114
    },
    {
      "midi": 69,
      "hit": false,
      "t": 100879.17300000013,
      "d": 532.9673083333473,
      "v": 114
    },
    {
      "midi": 65,
      "hit": false,
      "t": 100928.62357500009,
      "d": 384.6155833333323,
      "v": 65
    },
    {
      "midi": 65,
      "hit": false,
      "t": 101208.84350000013,
      "d": 747.2531333333463,
      "v": 114
    },
    {
      "midi": 60,
      "hit": false,
      "t": 101208.84350000013,
      "d": 785.7146916666825,
      "v": 114
    },
    {
      "midi": 57,
      "hit": false,
      "t": 101208.84350000013,
      "d": 1791.2097166666936,
      "v": 114
    },
    {
      "midi": 69,
      "hit": false,
      "t": 101219.83251666676,
      "d": 148.35172500000044,
      "v": 34
    },
    {
      "midi": 67,
      "hit": false,
      "t": 101241.81055000014,
      "d": 703.2970666666661,
      "v": 114
    },
    {
      "midi": 72,
      "hit": false,
      "t": 101560.49203333343,
      "d": 126.37369166666758,
      "v": 53
    },
    {
      "midi": 69,
      "hit": false,
      "t": 101868.18450000013,
      "d": 456.0441916666896,
      "v": 114
    },
    {
      "midi": 65,
      "hit": false,
      "t": 102197.85500000016,
      "d": 324.1759916666633,
      "v": 114
    },
    {
      "midi": 77,
      "hit": false,
      "t": 102219.83303333343,
      "d": 214.28582499999902,
      "v": 61
    },
    {
      "midi": 62,
      "hit": false,
      "t": 102527.52550000015,
      "d": 2236.264891666666,
      "v": 114
    },
    {
      "midi": 65,
      "hit": false,
      "t": 102560.49255000016,
      "d": 2032.968083333326,
      "v": 114
    },
    {
      "midi": 48,
      "hit": false,
      "t": 102857.1960000001,
      "d": 274.725416666668,
      "v": 37
    },
    {
      "midi": 53,
      "hit": false,
      "t": 102857.1960000001,
      "d": 274.725416666668,
      "v": 31
    },
    {
      "midi": 58,
      "hit": false,
      "t": 102857.1960000001,
      "d": 274.725416666668,
      "v": 46
    },
    {
      "midi": 34,
      "hit": false,
      "t": 102857.19600000016,
      "d": 2609.8914583333244,
      "v": 114
    },
    {
      "midi": 62,
      "hit": false,
      "t": 102884.66854166676,
      "d": 247.2528750000056,
      "v": 39
    },
    {
      "midi": 46,
      "hit": false,
      "t": 103186.8665000001,
      "d": 945.0554333333275,
      "v": 37
    },
    {
      "midi": 53,
      "hit": false,
      "t": 103186.8665000001,
      "d": 945.0554333333275,
      "v": 31
    },
    {
      "midi": 58,
      "hit": false,
      "t": 103186.8665000001,
      "d": 945.0554333333275,
      "v": 46
    },
    {
      "midi": 41,
      "hit": false,
      "t": 103186.86650000016,
      "d": 445.0551749999868,
      "v": 114
    },
    {
      "midi": 62,
      "hit": false,
      "t": 103214.33904166677,
      "d": 917.5828916666651,
      "v": 39
    },
    {
      "midi": 48,
      "hit": false,
      "t": 103516.53700000016,
      "d": 516.4837833333295,
      "v": 114
    },
    {
      "midi": 50,
      "hit": false,
      "t": 103846.20750000015,
      "d": 1736.264633333325,
      "v": 114
    },
    {
      "midi": 58,
      "hit": false,
      "t": 104175.8780000001,
      "d": 329.67050000000745,
      "v": 53
    },
    {
      "midi": 62,
      "hit": false,
      "t": 104175.8780000001,
      "d": 373.62656666667317,
      "v": 48
    },
    {
      "midi": 34,
      "hit": false,
      "t": 104175.8780000001,
      "d": 1285.7149499999941,
      "v": 32
    },
    {
      "midi": 46,
      "hit": false,
      "t": 104175.8780000001,
      "d": 1285.7149499999941,
      "v": 40
    },
    {
      "midi": 53,
      "hit": false,
      "t": 104186.86701666677,
      "d": 197.80229999999574,
      "v": 36
    },
    {
      "midi": 65,
      "hit": false,
      "t": 104533.02104166677,
      "d": 928.5719083333242,
      "v": 45
    },
    {
      "midi": 65,
      "hit": false,
      "t": 104670.38375000015,
      "d": 285.7144333333272,
      "v": 114
    },
    {
      "midi": 58,
      "hit": false,
      "t": 104835.21900000014,
      "d": 285.71443333334173,
      "v": 114
    },
    {
      "midi": 58,
      "hit": false,
      "t": 104857.19703333343,
      "d": 582.4178833333281,
      "v": 53
    },
    {
      "midi": 60,
      "hit": false,
      "t": 105000.05425000015,
      "d": 230.7693500000023,
      "v": 114
    },
    {
      "midi": 62,
      "hit": false,
      "t": 105164.88950000015,
      "d": 1604.3964333333133,
      "v": 114
    },
    {
      "midi": 62,
      "hit": false,
      "t": 105197.8565500001,
      "d": 263.7363999999943,
      "v": 62
    },
    {
      "midi": 48,
      "hit": false,
      "t": 105494.5600000001,
      "d": 274.725416666668,
      "v": 37
    },
    {
      "midi": 53,
      "hit": false,
      "t": 105494.5600000001,
      "d": 274.725416666668,
      "v": 31
    },
    {
      "midi": 58,
      "hit": false,
      "t": 105494.5600000001,
      "d": 274.725416666668,
      "v": 46
    },
    {
      "midi": 34,
      "hit": false,
      "t": 105494.56000000014,
      "d": 1631.8689749999903,
      "v": 114
    },
    {
      "midi": 62,
      "hit": false,
      "t": 105522.03254166676,
      "d": 247.2528750000056,
      "v": 39
    },
    {
      "midi": 46,
      "hit": false,
      "t": 105824.2305000001,
      "d": 1604.3964333333279,
      "v": 27
    },
    {
      "midi": 53,
      "hit": false,
      "t": 105824.2305000001,
      "d": 1604.3964333333279,
      "v": 44
    },
    {
      "midi": 41,
      "hit": false,
      "t": 105824.23050000014,
      "d": 472.52771666666376,
      "v": 114
    },
    {
      "midi": 58,
      "hit": false,
      "t": 105846.20853333344,
      "d": 934.0664166666684,
      "v": 34
    },
    {
      "midi": 62,
      "hit": false,
      "t": 105846.20853333344,
      "d": 1126.3742083333345,
      "v": 56
    },
    {
      "midi": 48,
      "hit": false,
      "t": 106153.90100000013,
      "d": 456.04419166667503,
      "v": 114
    },
    {
      "midi": 50,
      "hit": false,
      "t": 106483.57150000014,
      "d": 472.52771666666376,
      "v": 114
    },
    {
      "midi": 53,
      "hit": false,
      "t": 106813.24200000013,
      "d": 648.3519833333412,
      "v": 114
    },
    {
      "midi": 58,
      "hit": false,
      "t": 106813.24200000013,
      "d": 785.7146916666825,
      "v": 114
    },
    {
      "midi": 46,
      "hit": false,
      "t": 106813.24200000013,
      "d": 846.1542833333515,
      "v": 114
    },
    {
      "midi": 62,
      "hit": false,
      "t": 106846.20905000014,
      "d": 714.2860833333398,
      "v": 114
    },
    {
      "midi": 45,
      "hit": false,
      "t": 107472.5830000001,
      "d": 626.3739499999938,
      "v": 37
    },
    {
      "midi": 57,
      "hit": false,
      "t": 107472.5830000001,
      "d": 626.3739499999938,
      "v": 31
    },
    {
      "midi": 60,
      "hit": false,
      "t": 107472.5830000001,
      "d": 626.3739499999938,
      "v": 46
    },
    {
      "midi": 53,
      "hit": false,
      "t": 107472.58300000014,
      "d": 730.7696083333431,
      "v": 114
    },
    {
      "midi": 45,
      "hit": false,
      "t": 107472.58300000014,
      "d": 802.1982166666712,
      "v": 114
    },
    {
      "midi": 60,
      "hit": false,
      "t": 107472.58300000014,
      "d": 862.6378083333402,
      "v": 114
    },
    {
      "midi": 65,
      "hit": false,
      "t": 107500.05554166676,
      "d": 598.9014083333313,
      "v": 39
    },
    {
      "midi": 45,
      "hit": false,
      "t": 108131.9240000001,
      "d": 274.725416666668,
      "v": 37
    },
    {
      "midi": 58,
      "hit": false,
      "t": 108131.9240000001,
      "d": 274.725416666668,
      "v": 31
    },
    {
      "midi": 62,
      "hit": false,
      "t": 108131.9240000001,
      "d": 274.725416666668,
      "v": 46
    },
    {
      "midi": 58,
      "hit": false,
      "t": 108131.92400000014,
      "d": 445.0551750000013,
      "v": 114
    },
    {
      "midi": 67,
      "hit": false,
      "t": 108159.39654166676,
      "d": 247.2528750000056,
      "v": 39
    },
    {
      "midi": 62,
      "hit": false,
      "t": 108164.89105000015,
      "d": 516.4837833333295,
      "v": 114
    },
    {
      "midi": 43,
      "hit": false,
      "t": 108461.59450000011,
      "d": 945.055433333313,
      "v": 37
    },
    {
      "midi": 55,
      "hit": false,
      "t": 108461.59450000011,
      "d": 945.055433333313,
      "v": 31
    },
    {
      "midi": 59,
      "hit": false,
      "t": 108461.59450000011,
      "d": 945.055433333313,
      "v": 46
    },
    {
      "midi": 67,
      "hit": false,
      "t": 108461.59450000015,
      "d": 489.0112416666525,
      "v": 114
    },
    {
      "midi": 50,
      "hit": false,
      "t": 108461.59450000015,
      "d": 516.4837833333149,
      "v": 114
    },
    {
      "midi": 62,
      "hit": false,
      "t": 108489.06704166677,
      "d": 917.5828916666505,
      "v": 39
    },
    {
      "midi": 66,
      "hit": false,
      "t": 108494.5615500001,
      "d": 912.088383333321,
      "v": 49
    },
    {
      "midi": 70,
      "hit": false,
      "t": 108791.26500000014,
      "d": 324.17599166664877,
      "v": 114
    },
    {
      "midi": 55,
      "hit": false,
      "t": 108791.26500000014,
      "d": 489.01124166663794,
      "v": 114
    },
    {
      "midi": 62,
      "hit": false,
      "t": 109120.93550000012,
      "d": 774.7256749999797,
      "v": 114
    },
    {
      "midi": 58,
      "hit": false,
      "t": 109120.93550000012,
      "d": 785.7146916666534,
      "v": 114
    },
    {
      "midi": 54,
      "hit": false,
      "t": 109120.93550000012,
      "d": 1692.3085666666593,
      "v": 114
    },
    {
      "midi": 69,
      "hit": false,
      "t": 109148.40804166679,
      "d": 785.7146916666534,
      "v": 114
    },
    {
      "midi": 43,
      "hit": false,
      "t": 109456.10050833342,
      "d": 1280.2204416666646,
      "v": 51
    },
    {
      "midi": 55,
      "hit": false,
      "t": 109774.78199166675,
      "d": 961.5389583333308,
      "v": 44
    },
    {
      "midi": 70,
      "hit": false,
      "t": 109780.27650000011,
      "d": 785.7146916666679,
      "v": 114
    },
    {
      "midi": 59,
      "hit": false,
      "t": 110109.94700000009,
      "d": 626.3739499999938,
      "v": 41
    },
    {
      "midi": 62,
      "hit": false,
      "t": 110115.44150833342,
      "d": 620.8794416666642,
      "v": 48
    },
    {
      "midi": 58,
      "hit": false,
      "t": 110439.61750000011,
      "d": 774.7256749999942,
      "v": 114
    },
    {
      "midi": 62,
      "hit": false,
      "t": 110472.58455000012,
      "d": 758.2421499999909,
      "v": 114
    },
    {
      "midi": 43,
      "hit": false,
      "t": 110769.28800000009,
      "d": 1285.7149499999941,
      "v": 27
    },
    {
      "midi": 55,
      "hit": false,
      "t": 110769.28800000009,
      "d": 1285.7149499999941,
      "v": 44
    },
    {
      "midi": 43,
      "hit": false,
      "t": 110769.28800000012,
      "d": 43.95606666666572,
      "v": 114
    },
    {
      "midi": 53,
      "hit": false,
      "t": 110769.28800000012,
      "d": 1461.539216666657,
      "v": 114
    },
    {
      "midi": 58,
      "hit": false,
      "t": 110791.26603333342,
      "d": 615.3849333333346,
      "v": 34
    },
    {
      "midi": 62,
      "hit": false,
      "t": 110791.26603333342,
      "d": 807.6927250000008,
      "v": 56
    },
    {
      "midi": 65,
      "hit": false,
      "t": 110818.73857500008,
      "d": 868.1323166666698,
      "v": 73
    },
    {
      "midi": 67,
      "hit": false,
      "t": 111098.95850000011,
      "d": 445.0551749999868,
      "v": 114
    },
    {
      "midi": 70,
      "hit": false,
      "t": 111428.6290000001,
      "d": 324.1759916666633,
      "v": 114
    },
    {
      "midi": 62,
      "hit": false,
      "t": 111758.2995000001,
      "d": 758.24215000002,
      "v": 114
    },
    {
      "midi": 65,
      "hit": false,
      "t": 111758.2995000001,
      "d": 774.7256750000233,
      "v": 114
    },
    {
      "midi": 58,
      "hit": false,
      "t": 111758.2995000001,
      "d": 829.6707583333482,
      "v": 114
    },
    {
      "midi": 69,
      "hit": false,
      "t": 111791.2665500001,
      "d": 747.2531333333463,
      "v": 114
    },
    {
      "midi": 48,
      "hit": false,
      "t": 112087.9700000001,
      "d": 1417.5831500000058,
      "v": 114
    },
    {
      "midi": 36,
      "hit": false,
      "t": 112087.9700000001,
      "d": 1516.484300000011,
      "v": 114
    },
    {
      "midi": 67,
      "hit": false,
      "t": 112417.64050000011,
      "d": 917.5828916666651,
      "v": 114
    },
    {
      "midi": 50,
      "hit": false,
      "t": 112428.62951666674,
      "d": 395.60460000000603,
      "v": 42
    },
    {
      "midi": 53,
      "hit": false,
      "t": 112763.79452500008,
      "d": 395.60460000000603,
      "v": 47
    },
    {
      "midi": 58,
      "hit": false,
      "t": 113082.47600833341,
      "d": 274.725416666668,
      "v": 51
    },
    {
      "midi": 53,
      "hit": false,
      "t": 113406.65200000007,
      "d": 274.725416666668,
      "v": 37
    },
    {
      "midi": 55,
      "hit": false,
      "t": 113406.65200000007,
      "d": 274.725416666668,
      "v": 31
    },
    {
      "midi": 60,
      "hit": false,
      "t": 113406.65200000007,
      "d": 274.725416666668,
      "v": 46
    },
    {
      "midi": 55,
      "hit": false,
      "t": 113406.6520000001,
      "d": 445.0551750000013,
      "v": 114
    },
    {
      "midi": 64,
      "hit": false,
      "t": 113406.6520000001,
      "d": 456.04419166667503,
      "v": 114
    },
    {
      "midi": 41,
      "hit": false,
      "t": 113406.6520000001,
      "d": 961.5389583333454,
      "v": 114
    },
    {
      "midi": 64,
      "hit": false,
      "t": 113434.12454166674,
      "d": 247.2528750000056,
      "v": 39
    },
    {
      "midi": 41,
      "hit": false,
      "t": 113736.32250000008,
      "d": 945.0554333333275,
      "v": 37
    },
    {
      "midi": 57,
      "hit": false,
      "t": 113736.32250000008,
      "d": 945.0554333333275,
      "v": 31
    },
    {
      "midi": 60,
      "hit": false,
      "t": 113736.32250000008,
      "d": 945.0554333333275,
      "v": 46
    },
    {
      "midi": 48,
      "hit": false,
      "t": 113736.32250000011,
      "d": 472.5277166666783,
      "v": 114
    },
    {
      "midi": 60,
      "hit": false,
      "t": 113736.32250000011,
      "d": 1461.5392166666716,
      "v": 114
    },
    {
      "midi": 65,
      "hit": false,
      "t": 113763.79504166674,
      "d": 917.5828916666651,
      "v": 39
    },
    {
      "midi": 55,
      "hit": false,
      "t": 114065.99300000012,
      "d": 532.9673083333328,
      "v": 114
    },
    {
      "midi": 53,
      "hit": false,
      "t": 114395.66350000011,
      "d": 1747.2536500000133,
      "v": 114
    },
    {
      "midi": 57,
      "hit": false,
      "t": 114395.66350000011,
      "d": 1791.209716666679,
      "v": 114
    },
    {
      "midi": 41,
      "hit": false,
      "t": 114730.8285083334,
      "d": 1280.2204416666646,
      "v": 51
    },
    {
      "midi": 57,
      "hit": false,
      "t": 115049.50999166674,
      "d": 961.5389583333308,
      "v": 44
    },
    {
      "midi": 69,
      "hit": false,
      "t": 115055.00450000011,
      "d": 489.01124166666705,
      "v": 114
    },
    {
      "midi": 60,
      "hit": false,
      "t": 115384.67500000008,
      "d": 626.3739499999938,
      "v": 41
    },
    {
      "midi": 70,
      "hit": false,
      "t": 115384.67500000012,
      "d": 472.52771666666376,
      "v": 114
    },
    {
      "midi": 65,
      "hit": false,
      "t": 115390.1695083334,
      "d": 620.8794416666642,
      "v": 48
    },
    {
      "midi": 72,
      "hit": false,
      "t": 115714.34550000011,
      "d": 2236.264891666695,
      "v": 114
    },
    {
      "midi": 63,
      "hit": false,
      "t": 116044.01600000012,
      "d": 648.3519833333412,
      "v": 114
    },
    {
      "midi": 58,
      "hit": false,
      "t": 116044.01600000012,
      "d": 818.681741666689,
      "v": 114
    },
    {
      "midi": 41,
      "hit": false,
      "t": 116044.01600000012,
      "d": 890.1103500000172,
      "v": 114
    },
    {
      "midi": 67,
      "hit": false,
      "t": 116076.98305000013,
      "d": 615.3849333333346,
      "v": 114
    },
    {
      "midi": 63,
      "hit": false,
      "t": 116703.35700000013,
      "d": 587.9123916666722,
      "v": 114
    },
    {
      "midi": 67,
      "hit": false,
      "t": 116703.35700000013,
      "d": 615.3849333333346,
      "v": 114
    },
    {
      "midi": 63,
      "hit": false,
      "t": 116730.82954166672,
      "d": 818.68174166666,
      "v": 36
    },
    {
      "midi": 70,
      "hit": false,
      "t": 116736.32405000014,
      "d": 758.2421500000055,
      "v": 114
    },
    {
      "midi": 41,
      "hit": false,
      "t": 117033.02750000014,
      "d": 324.1759916666633,
      "v": 114
    },
    {
      "midi": 67,
      "hit": false,
      "t": 117049.51102500006,
      "d": 500.0002583333262,
      "v": 38
    },
    {
      "midi": 58,
      "hit": false,
      "t": 117362.69800000013,
      "d": 648.3519833333412,
      "v": 114
    },
    {
      "midi": 63,
      "hit": false,
      "t": 117362.69800000013,
      "d": 648.3519833333412,
      "v": 114
    },
    {
      "midi": 41,
      "hit": false,
      "t": 117362.69800000013,
      "d": 1505.4952833333373,
      "v": 114
    },
    {
      "midi": 67,
      "hit": false,
      "t": 117395.66505000014,
      "d": 774.7256750000088,
      "v": 114
    },
    {
      "midi": 70,
      "hit": false,
      "t": 117703.35751666671,
      "d": 395.60460000000603,
      "v": 47
    },
    {
      "midi": 58,
      "hit": false,
      "t": 118022.03900000015,
      "d": 730.7696083333285,
      "v": 114
    },
    {
      "midi": 55,
      "hit": false,
      "t": 118022.03900000015,
      "d": 818.68174166666,
      "v": 114
    },
    {
      "midi": 67,
      "hit": false,
      "t": 118038.52252500005,
      "d": 395.60460000000603,
      "v": 52
    },
    {
      "midi": 63,
      "hit": false,
      "t": 118055.00605000016,
      "d": 615.3849333333201,
      "v": 114
    },
    {
      "midi": 63,
      "hit": false,
      "t": 118357.20400833338,
      "d": 285.71443333334173,
      "v": 56
    },
    {
      "midi": 60,
      "hit": false,
      "t": 118648.41295000014,
      "d": 615.3849333333201,
      "v": 114
    },
    {
      "midi": 36,
      "hit": false,
      "t": 118681.38000000006,
      "d": 1285.7149499999941,
      "v": 32
    },
    {
      "midi": 48,
      "hit": false,
      "t": 118681.38000000006,
      "d": 1285.7149499999941,
      "v": 40
    },
    {
      "midi": 62,
      "hit": false,
      "t": 118681.38000000015,
      "d": 604.3959166666464,
      "v": 114
    },
    {
      "midi": 65,
      "hit": false,
      "t": 118681.38000000015,
      "d": 604.3959166666464,
      "v": 114
    },
    {
      "midi": 46,
      "hit": false,
      "t": 118681.38000000015,
      "d": 818.6817416666308,
      "v": 114
    },
    {
      "midi": 53,
      "hit": false,
      "t": 118681.38000000015,
      "d": 1478.0227416666603,
      "v": 114
    },
    {
      "midi": 53,
      "hit": false,
      "t": 118692.36901666674,
      "d": 197.80229999999574,
      "v": 36
    },
    {
      "midi": 58,
      "hit": false,
      "t": 118697.86352500007,
      "d": 329.6704999999929,
      "v": 53
    },
    {
      "midi": 62,
      "hit": false,
      "t": 118719.8415583334,
      "d": 401.0991083333356,
      "v": 48
    },
    {
      "midi": 53,
      "hit": false,
      "t": 119038.52304166673,
      "d": 928.5719083333242,
      "v": 45
    },
    {
      "midi": 70,
      "hit": false,
      "t": 119175.88575000013,
      "d": 159.3407416666596,
      "v": 114
    },
    {
      "midi": 70,
      "hit": false,
      "t": 119340.72100000012,
      "d": 428.57164999999804,
      "v": 114
    },
    {
      "midi": 62,
      "hit": false,
      "t": 119340.72100000012,
      "d": 758.2421500000055,
      "v": 114
    },
    {
      "midi": 65,
      "hit": false,
      "t": 119340.72100000012,
      "d": 802.1982166666858,
      "v": 114
    },
    {
      "midi": 58,
      "hit": false,
      "t": 119362.6990333334,
      "d": 582.4178833333281,
      "v": 53
    },
    {
      "midi": 46,
      "hit": false,
      "t": 119670.39150000011,
      "d": 324.1759916666779,
      "v": 114
    },
    {
      "midi": 72,
      "hit": false,
      "t": 119670.39150000011,
      "d": 324.1759916666779,
      "v": 114
    },
    {
      "midi": 62,
      "hit": false,
      "t": 119703.35855000006,
      "d": 263.7363999999943,
      "v": 62
    },
    {
      "midi": 34,
      "hit": false,
      "t": 120000.06200000006,
      "d": 1285.7149499999941,
      "v": 32
    },
    {
      "midi": 46,
      "hit": false,
      "t": 120000.06200000006,
      "d": 1285.7149499999941,
      "v": 40
    },
    {
      "midi": 60,
      "hit": false,
      "t": 120000.06200000012,
      "d": 109.89016666667885,
      "v": 114
    },
    {
      "midi": 64,
      "hit": false,
      "t": 120000.06200000012,
      "d": 615.3849333333637,
      "v": 114
    },
    {
      "midi": 67,
      "hit": false,
      "t": 120000.06200000012,
      "d": 747.2531333333754,
      "v": 114
    },
    {
      "midi": 55,
      "hit": false,
      "t": 120000.06200000012,
      "d": 1219.7808500000392,
      "v": 114
    },
    {
      "midi": 46,
      "hit": false,
      "t": 120000.06200000012,
      "d": 1335.1655250000476,
      "v": 114
    },
    {
      "midi": 55,
      "hit": false,
      "t": 120011.05101666674,
      "d": 197.80229999999574,
      "v": 36
    },
    {
      "midi": 60,
      "hit": false,
      "t": 120016.54552500007,
      "d": 329.6704999999929,
      "v": 53
    },
    {
      "midi": 74,
      "hit": false,
      "t": 120033.02905000013,
      "d": 258.2418916666793,
      "v": 114
    },
    {
      "midi": 64,
      "hit": false,
      "t": 120038.5235583334,
      "d": 401.0991083333356,
      "v": 48
    },
    {
      "midi": 72,
      "hit": false,
      "t": 120164.89725000014,
      "d": 159.34074166667415,
      "v": 114
    },
    {
      "midi": 72,
      "hit": false,
      "t": 120329.73250000014,
      "d": 241.758366666676,
      "v": 114
    },
    {
      "midi": 55,
      "hit": false,
      "t": 120357.20504166673,
      "d": 928.5719083333242,
      "v": 45
    },
    {
      "midi": 69,
      "hit": false,
      "t": 120494.56775000015,
      "d": 313.1869750000187,
      "v": 114
    },
    {
      "midi": 60,
      "hit": false,
      "t": 120659.40300000015,
      "d": 659.3410000000149,
      "v": 114
    },
    {
      "midi": 60,
      "hit": false,
      "t": 120681.3810333334,
      "d": 582.4178833333281,
      "v": 53
    },
    {
      "midi": 64,
      "hit": false,
      "t": 120692.37005000016,
      "d": 604.3959166666755,
      "v": 114
    },
    {
      "midi": 64,
      "hit": false,
      "t": 121022.04055000006,
      "d": 263.7363999999943,
      "v": 62
    },
    {
      "midi": 65,
      "hit": false,
      "t": 121153.90875000016,
      "d": 159.34074166667415,
      "v": 114
    },
    {
      "midi": 74,
      "hit": false,
      "t": 121318.74400000017,
      "d": 472.5277166666783,
      "v": 114
    },
    {
      "midi": 64,
      "hit": false,
      "t": 121318.74400000017,
      "d": 587.9123916666722,
      "v": 114
    },
    {
      "midi": 60,
      "hit": false,
      "t": 121318.74400000017,
      "d": 604.3959166666755,
      "v": 114
    },
    {
      "midi": 45,
      "hit": false,
      "t": 121318.74400000017,
      "d": 829.6707583333482,
      "v": 114
    },
    {
      "midi": 55,
      "hit": false,
      "t": 121318.74400000017,
      "d": 1434.0666750000091,
      "v": 114
    },
    {
      "midi": 45,
      "hit": false,
      "t": 121324.2385083334,
      "d": 1280.2204416666646,
      "v": 51
    },
    {
      "midi": 67,
      "hit": false,
      "t": 121351.71105000017,
      "d": 604.3959166666755,
      "v": 114
    },
    {
      "midi": 52,
      "hit": false,
      "t": 121642.91999166673,
      "d": 961.5389583333308,
      "v": 44
    },
    {
      "midi": 72,
      "hit": false,
      "t": 121648.41450000017,
      "d": 324.1759916666779,
      "v": 114
    },
    {
      "midi": 55,
      "hit": false,
      "t": 121978.08500000006,
      "d": 626.3739499999938,
      "v": 41
    },
    {
      "midi": 72,
      "hit": false,
      "t": 121978.08500000018,
      "d": 445.0551749999868,
      "v": 114
    },
    {
      "midi": 60,
      "hit": false,
      "t": 121978.08500000018,
      "d": 604.3959166666464,
      "v": 114
    },
    {
      "midi": 64,
      "hit": false,
      "t": 121978.08500000018,
      "d": 758.2421499999909,
      "v": 114
    },
    {
      "midi": 57,
      "hit": false,
      "t": 121983.5795083334,
      "d": 620.8794416666642,
      "v": 48
    },
    {
      "midi": 67,
      "hit": false,
      "t": 122005.55754166684,
      "d": 730.7696083333285,
      "v": 114
    },
    {
      "midi": 74,
      "hit": false,
      "t": 122307.75550000017,
      "d": 428.57164999999804,
      "v": 114
    },
    {
      "midi": 45,
      "hit": false,
      "t": 122307.75550000017,
      "d": 489.01124166666705,
      "v": 114
    },
    {
      "midi": 57,
      "hit": false,
      "t": 122637.42600000017,
      "d": 648.3519833333412,
      "v": 114
    },
    {
      "midi": 60,
      "hit": false,
      "t": 122637.42600000017,
      "d": 648.3519833333412,
      "v": 114
    },
    {
      "midi": 65,
      "hit": false,
      "t": 122637.42600000017,
      "d": 774.7256750000088,
      "v": 114
    },
    {
      "midi": 50,
      "hit": false,
      "t": 122637.42600000017,
      "d": 1434.0666749999946,
      "v": 114
    },
    {
      "midi": 69,
      "hit": false,
      "t": 122670.39305000017,
      "d": 901.0993666666618,
      "v": 114
    },
    {
      "midi": 60,
      "hit": false,
      "t": 122978.08551666672,
      "d": 395.60460000000603,
      "v": 42
    },
    {
      "midi": 60,
      "hit": false,
      "t": 123296.76700000018,
      "d": 324.17599166664877,
      "v": 114
    },
    {
      "midi": 57,
      "hit": false,
      "t": 123296.76700000018,
      "d": 829.6707583333191,
      "v": 114
    },
    {
      "midi": 62,
      "hit": false,
      "t": 123313.25052500005,
      "d": 395.60460000000603,
      "v": 47
    },
    {
      "midi": 65,
      "hit": false,
      "t": 123626.43750000016,
      "d": 417.5826333333389,
      "v": 114
    },
    {
      "midi": 57,
      "hit": false,
      "t": 123631.93200833339,
      "d": 274.725416666668,
      "v": 51
    },
    {
      "midi": 46,
      "hit": false,
      "t": 123956.10800000005,
      "d": 274.725416666668,
      "v": 37
    },
    {
      "midi": 53,
      "hit": false,
      "t": 123956.10800000005,
      "d": 274.725416666668,
      "v": 31
    },
    {
      "midi": 58,
      "hit": false,
      "t": 123956.10800000005,
      "d": 274.725416666668,
      "v": 46
    },
    {
      "midi": 53,
      "hit": false,
      "t": 123956.10800000015,
      "d": 829.6707583333337,
      "v": 114
    },
    {
      "midi": 46,
      "hit": false,
      "t": 123956.10800000015,
      "d": 873.6268249999994,
      "v": 114
    },
    {
      "midi": 62,
      "hit": false,
      "t": 123956.10800000015,
      "d": 890.1103500000027,
      "v": 114
    },
    {
      "midi": 62,
      "hit": false,
      "t": 123983.58054166671,
      "d": 247.2528750000056,
      "v": 39
    },
    {
      "midi": 70,
      "hit": false,
      "t": 123989.07505000016,
      "d": 291.2089416666713,
      "v": 114
    },
    {
      "midi": 45,
      "hit": false,
      "t": 124285.77850000006,
      "d": 945.0554333333275,
      "v": 37
    },
    {
      "midi": 57,
      "hit": false,
      "t": 124285.77850000006,
      "d": 945.0554333333275,
      "v": 31
    },
    {
      "midi": 60,
      "hit": false,
      "t": 124285.77850000006,
      "d": 945.0554333333275,
      "v": 46
    },
    {
      "midi": 70,
      "hit": false,
      "t": 124285.77850000016,
      "d": 445.0551749999868,
      "v": 114
    },
    {
      "midi": 65,
      "hit": false,
      "t": 124313.25104166672,
      "d": 917.5828916666651,
      "v": 39
    },
    {
      "midi": 72,
      "hit": false,
      "t": 124615.44900000015,
      "d": 532.9673083333473,
      "v": 114
    },
    {
      "midi": 69,
      "hit": false,
      "t": 124945.11950000016,
      "d": 818.68174166666,
      "v": 114
    },
    {
      "midi": 53,
      "hit": false,
      "t": 124945.11950000016,
      "d": 1576.9238916666654,
      "v": 114
    },
    {
      "midi": 60,
      "hit": false,
      "t": 124945.11950000016,
      "d": 1747.2536499999987,
      "v": 114
    },
    {
      "midi": 45,
      "hit": false,
      "t": 124945.11950000016,
      "d": 1835.1657833333302,
      "v": 114
    },
    {
      "midi": 45,
      "hit": false,
      "t": 125274.79000000005,
      "d": 1285.7149499999941,
      "v": 27
    },
    {
      "midi": 57,
      "hit": false,
      "t": 125274.79000000005,
      "d": 1285.7149499999941,
      "v": 44
    },
    {
      "midi": 60,
      "hit": false,
      "t": 125296.76803333338,
      "d": 615.3849333333346,
      "v": 34
    },
    {
      "midi": 65,
      "hit": false,
      "t": 125296.76803333338,
      "d": 807.6927250000008,
      "v": 56
    },
    {
      "midi": 65,
      "hit": false,
      "t": 125604.46050000016,
      "d": 472.52771666666376,
      "v": 114
    },
    {
      "midi": 67,
      "hit": false,
      "t": 125934.13100000015,
      "d": 472.5277166666783,
      "v": 114
    },
    {
      "midi": 69,
      "hit": false,
      "t": 126263.80150000016,
      "d": 774.7256749999942,
      "v": 114
    },
    {
      "midi": 43,
      "hit": false,
      "t": 126593.47200000005,
      "d": 274.725416666668,
      "v": 37
    },
    {
      "midi": 55,
      "hit": false,
      "t": 126593.47200000005,
      "d": 274.725416666668,
      "v": 31
    },
    {
      "midi": 58,
      "hit": false,
      "t": 126593.47200000005,
      "d": 274.725416666668,
      "v": 46
    },
    {
      "midi": 58,
      "hit": false,
      "t": 126593.47200000015,
      "d": 846.1542833333369,
      "v": 114
    },
    {
      "midi": 53,
      "hit": false,
      "t": 126593.47200000015,
      "d": 862.6378083333402,
      "v": 114
    },
    {
      "midi": 43,
      "hit": false,
      "t": 126593.47200000015,
      "d": 901.0993666666764,
      "v": 114
    },
    {
      "midi": 62,
      "hit": false,
      "t": 126620.94454166671,
      "d": 247.2528750000056,
      "v": 39
    },
    {
      "midi": 65,
      "hit": false,
      "t": 126626.43905000004,
      "d": 241.758366666676,
      "v": 49
    },
    {
      "midi": 48,
      "hit": false,
      "t": 126923.14250000006,
      "d": 945.0554333333275,
      "v": 37
    },
    {
      "midi": 53,
      "hit": false,
      "t": 126923.14250000006,
      "d": 945.0554333333275,
      "v": 31
    },
    {
      "midi": 58,
      "hit": false,
      "t": 126923.14250000006,
      "d": 945.0554333333275,
      "v": 46
    },
    {
      "midi": 67,
      "hit": false,
      "t": 126923.14250000016,
      "d": 1719.7811083333363,
      "v": 114
    },
    {
      "midi": 62,
      "hit": false,
      "t": 126950.61504166672,
      "d": 917.5828916666651,
      "v": 39
    },
    {
      "midi": 58,
      "hit": false,
      "t": 127582.48350000016,
      "d": 1076.9236333333392,
      "v": 114
    },
    {
      "midi": 53,
      "hit": false,
      "t": 127582.48350000016,
      "d": 1747.2536500000133,
      "v": 114
    },
    {
      "midi": 48,
      "hit": false,
      "t": 127582.48350000016,
      "d": 1763.7371750000166,
      "v": 114
    },
    {
      "midi": 62,
      "hit": false,
      "t": 127615.45055000017,
      "d": 1005.4950249999965,
      "v": 114
    },
    {
      "midi": 48,
      "hit": false,
      "t": 127917.64850833338,
      "d": 1280.2204416666646,
      "v": 51
    },
    {
      "midi": 53,
      "hit": false,
      "t": 128236.32999166672,
      "d": 961.5389583333308,
      "v": 44
    },
    {
      "midi": 58,
      "hit": false,
      "t": 128571.49500000005,
      "d": 626.3739499999938,
      "v": 41
    },
    {
      "midi": 60,
      "hit": false,
      "t": 128571.49500000017,
      "d": 285.71443333334173,
      "v": 114
    },
    {
      "midi": 62,
      "hit": false,
      "t": 128576.98950833338,
      "d": 620.8794416666642,
      "v": 48
    },
    {
      "midi": 62,
      "hit": false,
      "t": 128736.33025000017,
      "d": 230.7693500000023,
      "v": 114
    },
    {
      "midi": 65,
      "hit": false,
      "t": 128901.16550000018,
      "d": 472.52771666666376,
      "v": 114
    },
    {
      "midi": 53,
      "hit": false,
      "t": 129230.83600000005,
      "d": 274.725416666668,
      "v": 40
    },
    {
      "midi": 55,
      "hit": false,
      "t": 129230.83600000005,
      "d": 274.725416666668,
      "v": 34
    },
    {
      "midi": 60,
      "hit": false,
      "t": 129230.83600000005,
      "d": 274.725416666668,
      "v": 49
    },
    {
      "midi": 41,
      "hit": false,
      "t": 129230.83600000017,
      "d": 516.483783333344,
      "v": 114
    },
    {
      "midi": 55,
      "hit": false,
      "t": 129230.83600000017,
      "d": 829.6707583333482,
      "v": 114
    },
    {
      "midi": 60,
      "hit": false,
      "t": 129230.83600000017,
      "d": 862.6378083333548,
      "v": 114
    },
    {
      "midi": 64,
      "hit": false,
      "t": 129230.83600000017,
      "d": 862.6378083333548,
      "v": 114
    },
    {
      "midi": 64,
      "hit": false,
      "t": 129258.30854166672,
      "d": 247.2528750000056,
      "v": 42
    },
    {
      "midi": 67,
      "hit": false,
      "t": 129263.80305000018,
      "d": 846.1542833333515,
      "v": 114
    },
    {
      "midi": 41,
      "hit": false,
      "t": 129560.50650000006,
      "d": 945.0554333333275,
      "v": 40
    },
    {
      "midi": 57,
      "hit": false,
      "t": 129560.50650000006,
      "d": 945.0554333333275,
      "v": 34
    },
    {
      "midi": 60,
      "hit": false,
      "t": 129560.50650000006,
      "d": 945.0554333333275,
      "v": 49
    },
    {
      "midi": 48,
      "hit": false,
      "t": 129560.50650000018,
      "d": 456.04419166667503,
      "v": 114
    },
    {
      "midi": 65,
      "hit": false,
      "t": 129587.97904166672,
      "d": 917.5828916666651,
      "v": 42
    },
    {
      "midi": 53,
      "hit": false,
      "t": 129890.17700000019,
      "d": 445.0551750000013,
      "v": 114
    },
    {
      "midi": 57,
      "hit": false,
      "t": 130219.84750000019,
      "d": 648.3519833333266,
      "v": 114
    },
    {
      "midi": 60,
      "hit": false,
      "t": 130219.84750000019,
      "d": 648.3519833333266,
      "v": 114
    },
    {
      "midi": 65,
      "hit": false,
      "t": 130219.84750000019,
      "d": 774.7256750000088,
      "v": 114
    },
    {
      "midi": 41,
      "hit": false,
      "t": 130219.84750000019,
      "d": 1774.7261916666612,
      "v": 114
    },
    {
      "midi": 69,
      "hit": false,
      "t": 130247.32004166686,
      "d": 730.7696083333431,
      "v": 114
    },
    {
      "midi": 60,
      "hit": false,
      "t": 130549.51800000005,
      "d": 329.67050000000745,
      "v": 55
    },
    {
      "midi": 65,
      "hit": false,
      "t": 130549.51800000005,
      "d": 373.62656666667317,
      "v": 50
    },
    {
      "midi": 41,
      "hit": false,
      "t": 130549.51800000005,
      "d": 1285.7149500000378,
      "v": 34
    },
    {
      "midi": 57,
      "hit": false,
      "t": 130560.50701666673,
      "d": 197.80229999999574,
      "v": 38
    },
    {
      "midi": 60,
      "hit": false,
      "t": 130879.1885000002,
      "d": 324.1759916666779,
      "v": 114
    },
    {
      "midi": 69,
      "hit": false,
      "t": 130906.66104166672,
      "d": 928.5719083333679,
      "v": 47
    },
    {
      "midi": 60,
      "hit": false,
      "t": 131208.8590000002,
      "d": 324.17599166664877,
      "v": 114
    },
    {
      "midi": 60,
      "hit": false,
      "t": 131230.8370333334,
      "d": 582.4178833333426,
      "v": 55
    },
    {
      "midi": 62,
      "hit": false,
      "t": 131428.63933333353,
      "d": 357.14304166665534,
      "v": 114
    },
    {
      "midi": 65,
      "hit": false,
      "t": 131571.49655000007,
      "d": 263.7364000000234,
      "v": 64
    },
    {
      "midi": 65,
      "hit": false,
      "t": 131648.41966666686,
      "d": 357.14304166665534,
      "v": 114
    },
    {
      "midi": 50,
      "hit": false,
      "t": 131868.2000000001,
      "d": 274.7254166666826,
      "v": 40
    },
    {
      "midi": 55,
      "hit": false,
      "t": 131868.2000000001,
      "d": 274.7254166666826,
      "v": 34
    },
    {
      "midi": 60,
      "hit": false,
      "t": 131868.2000000001,
      "d": 274.7254166666826,
      "v": 49
    },
    {
      "midi": 38,
      "hit": false,
      "t": 131868.2000000002,
      "d": 456.04419166667503,
      "v": 114
    },
    {
      "midi": 64,
      "hit": false,
      "t": 131868.2000000002,
      "d": 862.6378083333548,
      "v": 114
    },
    {
      "midi": 55,
      "hit": false,
      "t": 131868.2000000002,
      "d": 873.6268250000139,
      "v": 114
    },
    {
      "midi": 60,
      "hit": false,
      "t": 131868.2000000002,
      "d": 890.1103500000027,
      "v": 114
    },
    {
      "midi": 64,
      "hit": false,
      "t": 131895.67254166678,
      "d": 247.2528750000056,
      "v": 42
    },
    {
      "midi": 67,
      "hit": false,
      "t": 131895.67254166686,
      "d": 829.6707583333482,
      "v": 114
    },
    {
      "midi": 50,
      "hit": false,
      "t": 132197.8705000001,
      "d": 945.0554333333566,
      "v": 40
    },
    {
      "midi": 57,
      "hit": false,
      "t": 132197.8705000001,
      "d": 945.0554333333566,
      "v": 34
    },
    {
      "midi": 60,
      "hit": false,
      "t": 132197.8705000001,
      "d": 945.0554333333566,
      "v": 49
    },
    {
      "midi": 45,
      "hit": false,
      "t": 132197.8705000002,
      "d": 456.04419166667503,
      "v": 114
    },
    {
      "midi": 62,
      "hit": false,
      "t": 132225.34304166678,
      "d": 917.5828916666796,
      "v": 42
    },
    {
      "midi": 65,
      "hit": false,
      "t": 132230.8375500001,
      "d": 912.0883833333501,
      "v": 55
    },
    {
      "midi": 50,
      "hit": false,
      "t": 132527.5410000002,
      "d": 472.52771666666376,
      "v": 114
    },
    {
      "midi": 65,
      "hit": false,
      "t": 132857.21150000018,
      "d": 967.0334666666749,
      "v": 114
    },
    {
      "midi": 60,
      "hit": false,
      "t": 132857.21150000018,
      "d": 1115.38519166669,
      "v": 114
    },
    {
      "midi": 57,
      "hit": false,
      "t": 132857.21150000018,
      "d": 1148.3522416666965,
      "v": 114
    },
    {
      "midi": 38,
      "hit": false,
      "t": 132857.21150000018,
      "d": 1835.1657833333593,
      "v": 114
    },
    {
      "midi": 69,
      "hit": false,
      "t": 132890.1785500002,
      "d": 1060.440108333336,
      "v": 114
    },
    {
      "midi": 60,
      "hit": false,
      "t": 133527.5415166668,
      "d": 395.6045999999915,
      "v": 44
    },
    {
      "midi": 65,
      "hit": false,
      "t": 133846.2230000002,
      "d": 274.7254166666826,
      "v": 114
    },
    {
      "midi": 62,
      "hit": false,
      "t": 133862.70652500013,
      "d": 395.6045999999915,
      "v": 49
    },
    {
      "midi": 67,
      "hit": false,
      "t": 134011.0582500002,
      "d": 258.24189166666474,
      "v": 114
    },
    {
      "midi": 69,
      "hit": false,
      "t": 134175.8935000002,
      "d": 324.17599166664877,
      "v": 114
    },
    {
      "midi": 57,
      "hit": false,
      "t": 134181.38800833345,
      "d": 274.7254166666826,
      "v": 53
    },
    {
      "midi": 45,
      "hit": false,
      "t": 134505.56400000013,
      "d": 274.7254166666826,
      "v": 40
    },
    {
      "midi": 58,
      "hit": false,
      "t": 134505.56400000013,
      "d": 274.7254166666826,
      "v": 34
    },
    {
      "midi": 62,
      "hit": false,
      "t": 134505.56400000013,
      "d": 274.7254166666826,
      "v": 49
    },
    {
      "midi": 43,
      "hit": false,
      "t": 134505.5640000002,
      "d": 846.1542833333369,
      "v": 114
    },
    {
      "midi": 57,
      "hit": false,
      "t": 134505.5640000002,
      "d": 862.6378083333257,
      "v": 114
    },
    {
      "midi": 58,
      "hit": false,
      "t": 134505.5640000002,
      "d": 862.6378083333257,
      "v": 114
    },
    {
      "midi": 62,
      "hit": false,
      "t": 134505.5640000002,
      "d": 873.6268249999848,
      "v": 114
    },
    {
      "midi": 67,
      "hit": false,
      "t": 134505.5640000002,
      "d": 917.5828916666505,
      "v": 114
    },
    {
      "midi": 67,
      "hit": false,
      "t": 134533.0365416668,
      "d": 247.2528750000056,
      "v": 42
    },
    {
      "midi": 69,
      "hit": false,
      "t": 134538.5310500002,
      "d": 829.6707583333191,
      "v": 114
    },
    {
      "midi": 43,
      "hit": false,
      "t": 134835.23450000014,
      "d": 945.0554333333566,
      "v": 40
    },
    {
      "midi": 58,
      "hit": false,
      "t": 134835.23450000014,
      "d": 945.0554333333566,
      "v": 34
    },
    {
      "midi": 62,
      "hit": false,
      "t": 134835.23450000014,
      "d": 945.0554333333566,
      "v": 49
    },
    {
      "midi": 67,
      "hit": false,
      "t": 134862.7070416668,
      "d": 917.5828916666796,
      "v": 42
    },
    {
      "midi": 43,
      "hit": false,
      "t": 135494.57550000018,
      "d": 324.1759916666779,
      "v": 114
    },
    {
      "midi": 55,
      "hit": false,
      "t": 135494.57550000018,
      "d": 758.2421500000055,
      "v": 114
    },
    {
      "midi": 58,
      "hit": false,
      "t": 135494.57550000018,
      "d": 774.7256749999942,
      "v": 114
    },
    {
      "midi": 66,
      "hit": false,
      "t": 135494.57550000018,
      "d": 774.7256749999942,
      "v": 114
    },
    {
      "midi": 62,
      "hit": false,
      "t": 135494.57550000018,
      "d": 802.1982166666712,
      "v": 114
    },
    {
      "midi": 70,
      "hit": false,
      "t": 135522.04804166686,
      "d": 774.7256749999942,
      "v": 114
    },
    {
      "midi": 43,
      "hit": false,
      "t": 135824.24600000016,
      "d": 1285.7149500000523,
      "v": 31
    },
    {
      "midi": 43,
      "hit": false,
      "t": 135824.2460000002,
      "d": 1263.7369166666467,
      "v": 114
    },
    {
      "midi": 58,
      "hit": false,
      "t": 135857.21305000017,
      "d": 197.8023000000103,
      "v": 35
    },
    {
      "midi": 62,
      "hit": false,
      "t": 135868.20206666682,
      "d": 329.67050000000745,
      "v": 52
    },
    {
      "midi": 67,
      "hit": false,
      "t": 135890.18010000017,
      "d": 401.09910833335016,
      "v": 47
    },
    {
      "midi": 69,
      "hit": false,
      "t": 136153.9165000002,
      "d": 472.52771666663466,
      "v": 114
    },
    {
      "midi": 58,
      "hit": false,
      "t": 136181.38904166684,
      "d": 928.5719083333679,
      "v": 44
    },
    {
      "midi": 67,
      "hit": false,
      "t": 136483.58700000017,
      "d": 818.68174166666,
      "v": 114
    },
    {
      "midi": 62,
      "hit": false,
      "t": 136505.56503333352,
      "d": 582.4178833333426,
      "v": 52
    },
    {
      "midi": 67,
      "hit": false,
      "t": 136846.2245500002,
      "d": 263.7364000000234,
      "v": 61
    },
    {
      "midi": 43,
      "hit": false,
      "t": 137142.92800000016,
      "d": 829.6707583333482,
      "v": 114
    },
    {
      "midi": 58,
      "hit": false,
      "t": 137142.92800000016,
      "d": 1791.2097166666936,
      "v": 114
    },
    {
      "midi": 53,
      "hit": false,
      "t": 137142.92800000016,
      "d": 2664.8365416667366,
      "v": 114
    },
    {
      "midi": 43,
      "hit": false,
      "t": 137148.42250833355,
      "d": 2598.902441666636,
      "v": 53
    },
    {
      "midi": 62,
      "hit": false,
      "t": 137175.89505000017,
      "d": 1791.2097166666936,
      "v": 114
    },
    {
      "midi": 55,
      "hit": false,
      "t": 137467.10399166687,
      "d": 1054.9456000000064,
      "v": 46
    },
    {
      "midi": 58,
      "hit": false,
      "t": 137802.2690000002,
      "d": 1945.05594999998,
      "v": 43
    },
    {
      "midi": 62,
      "hit": false,
      "t": 137807.76350833353,
      "d": 1939.5614416666504,
      "v": 50
    },
    {
      "midi": 43,
      "hit": false,
      "t": 138131.93950000018,
      "d": 324.1759916666779,
      "v": 114
    },
    {
      "midi": 65,
      "hit": false,
      "t": 139120.9510000002,
      "d": 274.7254166666826,
      "v": 114
    },
    {
      "midi": 67,
      "hit": false,
      "t": 139285.7862500002,
      "d": 274.7254166666826,
      "v": 114
    },
    {
      "midi": 69,
      "hit": false,
      "t": 139450.6215000002,
      "d": 324.1759916666779,
      "v": 114
    },
    {
      "midi": 45,
      "hit": false,
      "t": 139780.2920000002,
      "d": 274.7254166666826,
      "v": 40
    },
    {
      "midi": 58,
      "hit": false,
      "t": 139780.2920000002,
      "d": 274.7254166666826,
      "v": 34
    },
    {
      "midi": 62,
      "hit": false,
      "t": 139780.2920000002,
      "d": 274.7254166666826,
      "v": 49
    },
    {
      "midi": 43,
      "hit": false,
      "t": 139780.29200000022,
      "d": 71.42860833334271,
      "v": 114
    },
    {
      "midi": 57,
      "hit": false,
      "t": 139780.29200000022,
      "d": 785.7146916666825,
      "v": 114
    },
    {
      "midi": 58,
      "hit": false,
      "t": 139780.29200000022,
      "d": 829.6707583333482,
      "v": 114
    },
    {
      "midi": 62,
      "hit": false,
      "t": 139780.29200000022,
      "d": 846.1542833333369,
      "v": 114
    },
    {
      "midi": 67,
      "hit": false,
      "t": 139780.29200000022,
      "d": 873.6268250000139,
      "v": 114
    },
    {
      "midi": 67,
      "hit": false,
      "t": 139807.76454166687,
      "d": 247.2528750000056,
      "v": 42
    },
    {
      "midi": 69,
      "hit": false,
      "t": 139813.25905000023,
      "d": 846.1542833333369,
      "v": 114
    },
    {
      "midi": 43,
      "hit": false,
      "t": 140109.9625000002,
      "d": 945.0554333333566,
      "v": 40
    },
    {
      "midi": 55,
      "hit": false,
      "t": 140109.9625000002,
      "d": 945.0554333333566,
      "v": 34
    },
    {
      "midi": 59,
      "hit": false,
      "t": 140109.9625000002,
      "d": 945.0554333333566,
      "v": 49
    },
    {
      "midi": 62,
      "hit": false,
      "t": 140137.43504166687,
      "d": 917.5828916666796,
      "v": 42
    },
    {
      "midi": 66,
      "hit": false,
      "t": 140142.9295500002,
      "d": 912.0883833333501,
      "v": 55
    },
    {
      "midi": 66,
      "hit": false,
      "t": 140769.30350000024,
      "d": 934.0664166666684,
      "v": 114
    },
    {
      "midi": 58,
      "hit": false,
      "t": 140769.30350000024,
      "d": 1076.9236333333247,
      "v": 114
    },
    {
      "midi": 62,
      "hit": false,
      "t": 140769.30350000024,
      "d": 1087.9126499999838,
      "v": 114
    },
    {
      "midi": 55,
      "hit": false,
      "t": 140769.30350000024,
      "d": 1763.7371750000166,
      "v": 114
    },
    {
      "midi": 43,
      "hit": false,
      "t": 140769.30350000024,
      "d": 1774.7261916666757,
      "v": 114
    },
    {
      "midi": 70,
      "hit": false,
      "t": 140802.27055000025,
      "d": 1032.967566666659,
      "v": 114
    },
    {
      "midi": 43,
      "hit": false,
      "t": 141098.97400000022,
      "d": 1285.7149500000523,
      "v": 31
    },
    {
      "midi": 55,
      "hit": false,
      "t": 141131.94105000023,
      "d": 197.8023000000103,
      "v": 35
    },
    {
      "midi": 59,
      "hit": false,
      "t": 141142.9300666669,
      "d": 329.67050000000745,
      "v": 52
    },
    {
      "midi": 66,
      "hit": false,
      "t": 141164.90810000023,
      "d": 401.09910833335016,
      "v": 47
    },
    {
      "midi": 55,
      "hit": false,
      "t": 141456.1170416669,
      "d": 928.5719083333679,
      "v": 44
    },
    {
      "midi": 65,
      "hit": false,
      "t": 141758.31500000024,
      "d": 285.71443333334173,
      "v": 114
    },
    {
      "midi": 59,
      "hit": false,
      "t": 141780.29303333358,
      "d": 582.4178833333426,
      "v": 52
    },
    {
      "midi": 67,
      "hit": false,
      "t": 141923.15025000024,
      "d": 285.71443333334173,
      "v": 114
    },
    {
      "midi": 69,
      "hit": false,
      "t": 142087.98550000024,
      "d": 428.57165000002715,
      "v": 114
    },
    {
      "midi": 66,
      "hit": false,
      "t": 142120.95255000025,
      "d": 263.7364000000234,
      "v": 61
    },
    {
      "midi": 72,
      "hit": false,
      "t": 142417.65600000025,
      "d": 285.71443333334173,
      "v": 114
    },
    {
      "midi": 51,
      "hit": false,
      "t": 142417.65600000025,
      "d": 802.1982166666712,
      "v": 114
    },
    {
      "midi": 63,
      "hit": false,
      "t": 142417.65600000025,
      "d": 829.6707583333482,
      "v": 114
    },
    {
      "midi": 58,
      "hit": false,
      "t": 142417.65600000025,
      "d": 846.1542833333369,
      "v": 114
    },
    {
      "midi": 39,
      "hit": false,
      "t": 142417.65600000025,
      "d": 901.0993666666618,
      "v": 114
    },
    {
      "midi": 39,
      "hit": false,
      "t": 142417.65600000028,
      "d": 274.7254166666826,
      "v": 40
    },
    {
      "midi": 55,
      "hit": false,
      "t": 142417.65600000028,
      "d": 274.7254166666826,
      "v": 34
    },
    {
      "midi": 58,
      "hit": false,
      "t": 142417.65600000028,
      "d": 274.7254166666826,
      "v": 49
    },
    {
      "midi": 67,
      "hit": false,
      "t": 142445.12854166693,
      "d": 818.68174166666,
      "v": 114
    },
    {
      "midi": 63,
      "hit": false,
      "t": 142445.12854166696,
      "d": 247.2528750000056,
      "v": 42
    },
    {
      "midi": 70,
      "hit": false,
      "t": 142582.49125000025,
      "d": 807.6927250000008,
      "v": 114
    },
    {
      "midi": 48,
      "hit": false,
      "t": 142747.3265000003,
      "d": 945.0554333333566,
      "v": 40
    },
    {
      "midi": 55,
      "hit": false,
      "t": 142747.3265000003,
      "d": 945.0554333333566,
      "v": 34
    },
    {
      "midi": 60,
      "hit": false,
      "t": 142747.3265000003,
      "d": 945.0554333333566,
      "v": 49
    },
    {
      "midi": 64,
      "hit": false,
      "t": 142774.79904166696,
      "d": 917.5828916666796,
      "v": 42
    },
    {
      "midi": 64,
      "hit": false,
      "t": 143406.66750000024,
      "d": 967.0334666666749,
      "v": 114
    },
    {
      "midi": 67,
      "hit": false,
      "t": 143406.66750000024,
      "d": 1043.9565833333472,
      "v": 114
    },
    {
      "midi": 60,
      "hit": false,
      "t": 143406.66750000024,
      "d": 1076.9236333333538,
      "v": 114
    },
    {
      "midi": 48,
      "hit": false,
      "t": 143406.66750000024,
      "d": 1747.2536499999987,
      "v": 114
    },
    {
      "midi": 36,
      "hit": false,
      "t": 143406.66750000024,
      "d": 1846.1547999999893,
      "v": 114
    },
    {
      "midi": 70,
      "hit": false,
      "t": 143439.63455000025,
      "d": 1060.440108333336,
      "v": 114
    },
    {
      "midi": 60,
      "hit": false,
      "t": 143736.3380000003,
      "d": 329.67050000000745,
      "v": 55
    },
    {
      "midi": 64,
      "hit": false,
      "t": 143736.3380000003,
      "d": 373.62656666667317,
      "v": 50
    },
    {
      "midi": 36,
      "hit": false,
      "t": 143736.3380000003,
      "d": 1285.7149500000523,
      "v": 34
    },
    {
      "midi": 48,
      "hit": false,
      "t": 143736.3380000003,
      "d": 1285.7149500000523,
      "v": 42
    },
    {
      "midi": 55,
      "hit": false,
      "t": 143747.32701666697,
      "d": 197.8023000000103,
      "v": 38
    },
    {
      "midi": 67,
      "hit": false,
      "t": 144093.481041667,
      "d": 928.5719083333679,
      "v": 47
    },
    {
      "midi": 64,
      "hit": false,
      "t": 144395.67900000027,
      "d": 313.1869749999605,
      "v": 114
    },
    {
      "midi": 60,
      "hit": false,
      "t": 144417.65703333367,
      "d": 582.4178833333426,
      "v": 55
    },
    {
      "midi": 65,
      "hit": false,
      "t": 144560.51425000024,
      "d": 285.7144333333126,
      "v": 114
    },
    {
      "midi": 67,
      "hit": false,
      "t": 144725.34950000021,
      "d": 324.1759916666779,
      "v": 114
    },
    {
      "midi": 64,
      "hit": false,
      "t": 144758.31655000034,
      "d": 263.7364000000234,
      "v": 64
    },
    {
      "midi": 64,
      "hit": false,
      "t": 145055.02000000022,
      "d": 829.6707583333482,
      "v": 114
    },
    {
      "midi": 60,
      "hit": false,
      "t": 145055.02000000022,
      "d": 862.6378083333548,
      "v": 114
    },
    {
      "midi": 55,
      "hit": false,
      "t": 145055.02000000022,
      "d": 873.6268250000139,
      "v": 114
    },
    {
      "midi": 41,
      "hit": false,
      "t": 145055.02000000022,
      "d": 967.0334666666749,
      "v": 114
    },
    {
      "midi": 53,
      "hit": false,
      "t": 145055.02000000022,
      "d": 2736.265150000021,
      "v": 114
    },
    {
      "midi": 53,
      "hit": false,
      "t": 145055.02000000037,
      "d": 274.7254166666826,
      "v": 40
    },
    {
      "midi": 55,
      "hit": false,
      "t": 145055.02000000037,
      "d": 274.7254166666826,
      "v": 34
    },
    {
      "midi": 60,
      "hit": false,
      "t": 145055.02000000037,
      "d": 274.7254166666826,
      "v": 49
    },
    {
      "midi": 64,
      "hit": false,
      "t": 145082.49254166704,
      "d": 247.2528750000056,
      "v": 42
    },
    {
      "midi": 67,
      "hit": false,
      "t": 145087.98705000023,
      "d": 829.6707583333482,
      "v": 114
    },
    {
      "midi": 41,
      "hit": false,
      "t": 145384.69050000038,
      "d": 945.0554333333566,
      "v": 40
    },
    {
      "midi": 57,
      "hit": false,
      "t": 145384.69050000038,
      "d": 945.0554333333566,
      "v": 34
    },
    {
      "midi": 60,
      "hit": false,
      "t": 145384.69050000038,
      "d": 945.0554333333566,
      "v": 49
    },
    {
      "midi": 65,
      "hit": false,
      "t": 145412.16304166705,
      "d": 917.5828916666796,
      "v": 42
    },
    {
      "midi": 41,
      "hit": false,
      "t": 146044.03150000024,
      "d": 324.1759916666779,
      "v": 114
    },
    {
      "midi": 57,
      "hit": false,
      "t": 146044.03150000024,
      "d": 758.2421499999764,
      "v": 114
    },
    {
      "midi": 60,
      "hit": false,
      "t": 146044.03150000024,
      "d": 774.7256749999651,
      "v": 114
    },
    {
      "midi": 65,
      "hit": false,
      "t": 146044.03150000024,
      "d": 802.1982166666421,
      "v": 114
    },
    {
      "midi": 69,
      "hit": false,
      "t": 146076.99855000025,
      "d": 571.4288666666544,
      "v": 114
    },
    {
      "midi": 41,
      "hit": false,
      "t": 146373.70200000025,
      "d": 1549.4513499999885,
      "v": 114
    },
    {
      "midi": 41,
      "hit": false,
      "t": 146373.7020000004,
      "d": 1285.7149499999941,
      "v": 35
    },
    {
      "midi": 57,
      "hit": false,
      "t": 146373.7020000004,
      "d": 1285.7149499999941,
      "v": 34
    },
    {
      "midi": 60,
      "hit": false,
      "t": 146373.7020000004,
      "d": 1285.7149499999941,
      "v": 56
    },
    {
      "midi": 65,
      "hit": false,
      "t": 146450.62511666707,
      "d": 1208.7918333333218,
      "v": 49
    },
    {
      "midi": 69,
      "hit": false,
      "t": 146703.37250000023,
      "d": 500.00025833331165,
      "v": 114
    },
    {
      "midi": 70,
      "hit": false,
      "t": 147033.0430000002,
      "d": 456.04419166667503,
      "v": 114
    },
    {
      "midi": 72,
      "hit": false,
      "t": 147362.71350000022,
      "d": 2175.825299999997,
      "v": 114
    },
    {
      "midi": 48,
      "hit": false,
      "t": 147692.38400000022,
      "d": 785.7146916666825,
      "v": 114
    },
    {
      "midi": 58,
      "hit": false,
      "t": 147692.38400000022,
      "d": 1263.7369166666758,
      "v": 114
    },
    {
      "midi": 55,
      "hit": false,
      "t": 147692.38400000022,
      "d": 2796.7047416666173,
      "v": 114
    },
    {
      "midi": 48,
      "hit": false,
      "t": 147697.87850833373,
      "d": 1280.2204416666646,
      "v": 53
    },
    {
      "midi": 63,
      "hit": false,
      "t": 147725.35105000023,
      "d": 1219.78085000001,
      "v": 114
    },
    {
      "midi": 55,
      "hit": false,
      "t": 148016.55999166705,
      "d": 961.5389583333454,
      "v": 46
    },
    {
      "midi": 58,
      "hit": false,
      "t": 148351.72500000038,
      "d": 626.3739500000083,
      "v": 43
    },
    {
      "midi": 60,
      "hit": false,
      "t": 148357.2195083337,
      "d": 620.8794416666788,
      "v": 50
    },
    {
      "midi": 48,
      "hit": false,
      "t": 148681.39550000025,
      "d": 428.57164999996894,
      "v": 114
    },
    {
      "midi": 63,
      "hit": false,
      "t": 149011.06600000022,
      "d": 1362.6380666666373,
      "v": 114
    },
    {
      "midi": 58,
      "hit": false,
      "t": 149011.06600000022,
      "d": 1461.539216666628,
      "v": 114
    },
    {
      "midi": 41,
      "hit": false,
      "t": 149011.06600000022,
      "d": 1478.0227416666166,
      "v": 114
    },
    {
      "midi": 41,
      "hit": false,
      "t": 149011.0660000004,
      "d": 1285.7149500000232,
      "v": 29
    },
    {
      "midi": 55,
      "hit": false,
      "t": 149011.0660000004,
      "d": 1285.7149500000232,
      "v": 46
    },
    {
      "midi": 58,
      "hit": false,
      "t": 149033.04403333375,
      "d": 615.3849333333201,
      "v": 36
    },
    {
      "midi": 63,
      "hit": false,
      "t": 149033.04403333375,
      "d": 807.6927250000008,
      "v": 58
    },
    {
      "midi": 69,
      "hit": false,
      "t": 149670.4070000002,
      "d": 313.1869749999896,
      "v": 114
    },
    {
      "midi": 70,
      "hit": false,
      "t": 149835.2422500002,
      "d": 285.7144333333126,
      "v": 114
    },
    {
      "midi": 72,
      "hit": false,
      "t": 150000.0775000002,
      "d": 324.1759916666779,
      "v": 114
    },
    {
      "midi": 60,
      "hit": false,
      "t": 150296.7809500002,
      "d": 2620.8804750000127,
      "v": 114
    },
    {
      "midi": 46,
      "hit": false,
      "t": 150329.7480000002,
      "d": 846.1542833333369,
      "v": 114
    },
    {
      "midi": 62,
      "hit": false,
      "t": 150329.7480000002,
      "d": 2708.792608333344,
      "v": 114
    },
    {
      "midi": 65,
      "hit": false,
      "t": 150329.7480000002,
      "d": 2752.74867500001,
      "v": 114
    },
    {
      "midi": 57,
      "hit": false,
      "t": 150329.7480000002,
      "d": 2780.221216666687,
      "v": 114
    },
    {
      "midi": 34,
      "hit": false,
      "t": 150329.74800000043,
      "d": 2093.407675000053,
      "v": 31
    },
    {
      "midi": 46,
      "hit": false,
      "t": 150329.74800000043,
      "d": 2170.3307916667254,
      "v": 39
    },
    {
      "midi": 72,
      "hit": false,
      "t": 150362.7150500002,
      "d": 532.9673083333182,
      "v": 114
    },
    {
      "midi": 53,
      "hit": false,
      "t": 150362.71505000044,
      "d": 197.8023000000103,
      "v": 35
    },
    {
      "midi": 57,
      "hit": false,
      "t": 150373.7040666671,
      "d": 329.67050000000745,
      "v": 52
    },
    {
      "midi": 62,
      "hit": false,
      "t": 150395.68210000044,
      "d": 401.09910833335016,
      "v": 47
    },
    {
      "midi": 53,
      "hit": false,
      "t": 150686.8910416671,
      "d": 945.0554333333566,
      "v": 44
    },
    {
      "midi": 70,
      "hit": false,
      "t": 150824.25375000018,
      "d": 274.7254166666826,
      "v": 114
    },
    {
      "midi": 74,
      "hit": false,
      "t": 150989.08900000018,
      "d": 1489.011758333334,
      "v": 114
    },
    {
      "midi": 57,
      "hit": false,
      "t": 151011.0670333338,
      "d": 582.4178833333426,
      "v": 52
    },
    {
      "midi": 46,
      "hit": false,
      "t": 151318.7595000002,
      "d": 324.1759916666779,
      "v": 114
    },
    {
      "midi": 62,
      "hit": false,
      "t": 151351.72655000046,
      "d": 346.1540250000253,
      "v": 61
    },
    {
      "midi": 46,
      "hit": false,
      "t": 151648.4300000002,
      "d": 1247.253391666658,
      "v": 114
    },
    {
      "midi": 72,
      "hit": false,
      "t": 152637.4415000002,
      "d": 445.0551750000159,
      "v": 114
    },
    {
      "midi": 46,
      "hit": false,
      "t": 152967.1120000002,
      "d": 818.6817416666308,
      "v": 114
    },
    {
      "midi": 60,
      "hit": false,
      "t": 152967.1120000002,
      "d": 2620.8804749999545,
      "v": 114
    },
    {
      "midi": 64,
      "hit": false,
      "t": 152967.1120000002,
      "d": 2736.265149999963,
      "v": 114
    },
    {
      "midi": 67,
      "hit": false,
      "t": 152967.1120000002,
      "d": 2752.7486749999516,
      "v": 114
    },
    {
      "midi": 74,
      "hit": false,
      "t": 153000.0790500002,
      "d": 445.0551749999868,
      "v": 114
    },
    {
      "midi": 72,
      "hit": false,
      "t": 153296.7825000002,
      "d": 428.57164999996894,
      "v": 114
    },
    {
      "midi": 76,
      "hit": false,
      "t": 153626.45300000018,
      "d": 1489.011758333305,
      "v": 114
    },
    {
      "midi": 67,
      "hit": false,
      "t": 153653.92554166715,
      "d": 401.09910833332106,
      "v": 39
    },
    {
      "midi": 46,
      "hit": false,
      "t": 153956.12350000016,
      "d": 324.1759916666779,
      "v": 114
    },
    {
      "midi": 64,
      "hit": false,
      "t": 153972.60702500047,
      "d": 857.1432999999961,
      "v": 41
    },
    {
      "midi": 46,
      "hit": false,
      "t": 154285.79400000017,
      "d": 1478.0227416666457,
      "v": 114
    },
    {
      "midi": 60,
      "hit": false,
      "t": 154626.45351666713,
      "d": 395.6045999999915,
      "v": 50
    },
    {
      "midi": 55,
      "hit": false,
      "t": 154961.61852500046,
      "d": 395.6045999999915,
      "v": 55
    },
    {
      "midi": 74,
      "hit": false,
      "t": 155274.80550000016,
      "d": 489.0112416666525,
      "v": 114
    },
    {
      "midi": 64,
      "hit": false,
      "t": 155280.30000833378,
      "d": 274.7254166666826,
      "v": 59
    },
    {
      "midi": 45,
      "hit": false,
      "t": 155604.47600000014,
      "d": 829.6707583333482,
      "v": 114
    },
    {
      "midi": 60,
      "hit": false,
      "t": 155604.47600000014,
      "d": 1219.78085000001,
      "v": 114
    },
    {
      "midi": 55,
      "hit": false,
      "t": 155604.47600000014,
      "d": 2708.792608333373,
      "v": 114
    },
    {
      "midi": 45,
      "hit": false,
      "t": 155609.9705083338,
      "d": 1280.2204416666646,
      "v": 53
    },
    {
      "midi": 72,
      "hit": false,
      "t": 155637.44305000015,
      "d": 472.52771666666376,
      "v": 114
    },
    {
      "midi": 52,
      "hit": false,
      "t": 155928.6519916671,
      "d": 961.5389583333454,
      "v": 46
    },
    {
      "midi": 64,
      "hit": false,
      "t": 155934.14650000015,
      "d": 1406.5941333333321,
      "v": 114
    },
    {
      "midi": 55,
      "hit": false,
      "t": 156263.81700000045,
      "d": 626.3739500000083,
      "v": 43
    },
    {
      "midi": 57,
      "hit": false,
      "t": 156269.31150833378,
      "d": 620.8794416666788,
      "v": 50
    },
    {
      "midi": 45,
      "hit": false,
      "t": 156593.48750000016,
      "d": 324.17599166664877,
      "v": 114
    },
    {
      "midi": 61,
      "hit": false,
      "t": 156923.15800000014,
      "d": 846.1542833333369,
      "v": 114
    },
    {
      "midi": 45,
      "hit": false,
      "t": 156923.15800000014,
      "d": 1532.9678250000288,
      "v": 114
    },
    {
      "midi": 55,
      "hit": false,
      "t": 156923.15800000046,
      "d": 329.67050000000745,
      "v": 55
    },
    {
      "midi": 61,
      "hit": false,
      "t": 156923.15800000046,
      "d": 373.62656666667317,
      "v": 50
    },
    {
      "midi": 45,
      "hit": false,
      "t": 156923.15800000046,
      "d": 1285.7149500000523,
      "v": 34
    },
    {
      "midi": 52,
      "hit": false,
      "t": 156934.14701666712,
      "d": 197.8023000000103,
      "v": 38
    },
    {
      "midi": 70,
      "hit": false,
      "t": 157252.82850000015,
      "d": 500.00025833334075,
      "v": 114
    },
    {
      "midi": 64,
      "hit": false,
      "t": 157280.30104166715,
      "d": 928.5719083333679,
      "v": 47
    },
    {
      "midi": 69,
      "hit": false,
      "t": 157582.49900000016,
      "d": 456.04419166667503,
      "v": 114
    },
    {
      "midi": 55,
      "hit": false,
      "t": 157604.47703333382,
      "d": 582.4178833333426,
      "v": 55
    },
    {
      "midi": 60,
      "hit": false,
      "t": 157879.20245000016,
      "d": 1791.2097166666936,
      "v": 114
    },
    {
      "midi": 62,
      "hit": false,
      "t": 157912.16950000016,
      "d": 1736.2646333333396,
      "v": 114
    },
    {
      "midi": 57,
      "hit": false,
      "t": 157912.16950000016,
      "d": 1791.2097166666936,
      "v": 114
    },
    {
      "midi": 65,
      "hit": false,
      "t": 157912.16950000016,
      "d": 2148.352758333349,
      "v": 114
    },
    {
      "midi": 57,
      "hit": false,
      "t": 157945.1365500005,
      "d": 263.7364000000234,
      "v": 64
    },
    {
      "midi": 50,
      "hit": false,
      "t": 158241.84000000017,
      "d": 862.6378083333257,
      "v": 114
    },
    {
      "midi": 38,
      "hit": false,
      "t": 158241.84000000052,
      "d": 1285.7149499999941,
      "v": 35
    },
    {
      "midi": 50,
      "hit": false,
      "t": 158241.84000000052,
      "d": 1285.7149499999941,
      "v": 50
    },
    {
      "midi": 57,
      "hit": false,
      "t": 158241.84000000052,
      "d": 1285.7149499999941,
      "v": 34
    },
    {
      "midi": 60,
      "hit": false,
      "t": 158241.84000000052,
      "d": 1285.7149499999941,
      "v": 56
    },
    {
      "midi": 64,
      "hit": false,
      "t": 158318.7631166672,
      "d": 1208.7918333333218,
      "v": 49
    },
    {
      "midi": 65,
      "hit": false,
      "t": 158362.71918333386,
      "d": 1164.8357666666561,
      "v": 43
    },
    {
      "midi": 50,
      "hit": false,
      "t": 159230.85150000016,
      "d": 324.1759916666779,
      "v": 114
    },
    {
      "midi": 55,
      "hit": false,
      "t": 159560.52200000017,
      "d": 1302.198475000041,
      "v": 114
    },
    {
      "midi": 49,
      "hit": false,
      "t": 159560.52200000017,
      "d": 1346.1545416667068,
      "v": 114
    },
    {
      "midi": 58,
      "hit": false,
      "t": 159593.48905000018,
      "d": 1291.2094583333528,
      "v": 114
    },
    {
      "midi": 49,
      "hit": false,
      "t": 159901.1815166672,
      "d": 395.6045999999915,
      "v": 44
    },
    {
      "midi": 64,
      "hit": false,
      "t": 160219.8630000002,
      "d": 258.24189166666474,
      "v": 114
    },
    {
      "midi": 53,
      "hit": false,
      "t": 160236.34652500052,
      "d": 395.6045999999915,
      "v": 49
    },
    {
      "midi": 65,
      "hit": false,
      "t": 160384.6982500002,
      "d": 285.71443333334173,
      "v": 114
    },
    {
      "midi": 67,
      "hit": false,
      "t": 160549.5335000002,
      "d": 324.1759916666779,
      "v": 114
    },
    {
      "midi": 55,
      "hit": false,
      "t": 160555.02800833384,
      "d": 274.7254166666826,
      "v": 53
    },
    {
      "midi": 41,
      "hit": false,
      "t": 160879.2040000002,
      "d": 456.04419166667503,
      "v": 114
    },
    {
      "midi": 55,
      "hit": false,
      "t": 160879.2040000002,
      "d": 862.6378083333548,
      "v": 114
    },
    {
      "midi": 64,
      "hit": false,
      "t": 160879.2040000002,
      "d": 862.6378083333548,
      "v": 114
    },
    {
      "midi": 60,
      "hit": false,
      "t": 160879.2040000002,
      "d": 873.6268250000139,
      "v": 114
    },
    {
      "midi": 53,
      "hit": false,
      "t": 160879.20400000052,
      "d": 274.7254166666826,
      "v": 40
    },
    {
      "midi": 55,
      "hit": false,
      "t": 160879.20400000052,
      "d": 274.7254166666826,
      "v": 34
    },
    {
      "midi": 60,
      "hit": false,
      "t": 160879.20400000052,
      "d": 274.7254166666826,
      "v": 49
    },
    {
      "midi": 64,
      "hit": false,
      "t": 160906.6765416672,
      "d": 247.2528750000056,
      "v": 42
    },
    {
      "midi": 67,
      "hit": false,
      "t": 160912.1710500002,
      "d": 829.6707583333482,
      "v": 114
    },
    {
      "midi": 48,
      "hit": false,
      "t": 161208.8745000002,
      "d": 456.04419166667503,
      "v": 114
    },
    {
      "midi": 41,
      "hit": false,
      "t": 161208.87450000053,
      "d": 945.0554333333566,
      "v": 40
    },
    {
      "midi": 57,
      "hit": false,
      "t": 161208.87450000053,
      "d": 945.0554333333566,
      "v": 34
    },
    {
      "midi": 60,
      "hit": false,
      "t": 161208.87450000053,
      "d": 945.0554333333566,
      "v": 49
    },
    {
      "midi": 65,
      "hit": false,
      "t": 161236.3470416672,
      "d": 917.5828916666796,
      "v": 42
    },
    {
      "midi": 53,
      "hit": false,
      "t": 161538.54500000022,
      "d": 417.5826333333389,
      "v": 114
    },
    {
      "midi": 57,
      "hit": false,
      "t": 161868.21550000022,
      "d": 648.3519833333266,
      "v": 114
    },
    {
      "midi": 65,
      "hit": false,
      "t": 161868.21550000022,
      "d": 648.3519833333266,
      "v": 114
    },
    {
      "midi": 60,
      "hit": false,
      "t": 161868.21550000022,
      "d": 758.2421499999764,
      "v": 114
    },
    {
      "midi": 41,
      "hit": false,
      "t": 161868.21550000022,
      "d": 1763.7371749999584,
      "v": 114
    },
    {
      "midi": 69,
      "hit": false,
      "t": 161895.6880416669,
      "d": 730.7696083332994,
      "v": 114
    },
    {
      "midi": 41,
      "hit": false,
      "t": 162197.88600000055,
      "d": 1285.7149500000523,
      "v": 31
    },
    {
      "midi": 57,
      "hit": false,
      "t": 162230.85305000056,
      "d": 197.8023000000103,
      "v": 35
    },
    {
      "midi": 60,
      "hit": false,
      "t": 162241.84206666722,
      "d": 329.67050000000745,
      "v": 52
    },
    {
      "midi": 65,
      "hit": false,
      "t": 162263.82010000056,
      "d": 401.09910833335016,
      "v": 47
    },
    {
      "midi": 65,
      "hit": false,
      "t": 162527.5565000002,
      "d": 324.17599166664877,
      "v": 114
    },
    {
      "midi": 57,
      "hit": false,
      "t": 162555.02904166724,
      "d": 928.5719083333679,
      "v": 44
    },
    {
      "midi": 65,
      "hit": false,
      "t": 162857.2270000002,
      "d": 324.17599166664877,
      "v": 114
    },
    {
      "midi": 60,
      "hit": false,
      "t": 162879.2050333339,
      "d": 582.4178833333426,
      "v": 52
    },
    {
      "midi": 67,
      "hit": false,
      "t": 163077.00733333352,
      "d": 357.14304166665534,
      "v": 114
    },
    {
      "midi": 65,
      "hit": false,
      "t": 163219.86455000058,
      "d": 263.7364000000234,
      "v": 61
    },
    {
      "midi": 69,
      "hit": false,
      "t": 163296.78766666685,
      "d": 285.71443333334173,
      "v": 114
    },
    {
      "midi": 65,
      "hit": false,
      "t": 163483.60095000017,
      "d": 2609.8914583333244,
      "v": 114
    },
    {
      "midi": 72,
      "hit": false,
      "t": 163516.56800000017,
      "d": 274.7254166666826,
      "v": 114
    },
    {
      "midi": 58,
      "hit": false,
      "t": 163516.56800000017,
      "d": 472.52771666666376,
      "v": 114
    },
    {
      "midi": 46,
      "hit": false,
      "t": 163516.56800000017,
      "d": 829.6707583333191,
      "v": 114
    },
    {
      "midi": 61,
      "hit": false,
      "t": 163516.56800000017,
      "d": 2565.9353916666587,
      "v": 114
    },
    {
      "midi": 67,
      "hit": false,
      "t": 163516.56800000017,
      "d": 2582.4189166666474,
      "v": 114
    },
    {
      "midi": 55,
      "hit": false,
      "t": 163516.5680000006,
      "d": 329.67050000000745,
      "v": 55
    },
    {
      "midi": 61,
      "hit": false,
      "t": 163516.5680000006,
      "d": 373.62656666667317,
      "v": 50
    },
    {
      "midi": 34,
      "hit": false,
      "t": 163516.5680000006,
      "d": 2093.407675000053,
      "v": 34
    },
    {
      "midi": 46,
      "hit": false,
      "t": 163516.5680000006,
      "d": 2170.3307916667254,
      "v": 42
    },
    {
      "midi": 53,
      "hit": false,
      "t": 163527.55701666727,
      "d": 197.8023000000103,
      "v": 38
    },
    {
      "midi": 70,
      "hit": false,
      "t": 163681.40325000018,
      "d": 730.7696083333285,
      "v": 114
    },
    {
      "midi": 57,
      "hit": false,
      "t": 163846.23850000018,
      "d": 324.17599166664877,
      "v": 114
    },
    {
      "midi": 65,
      "hit": false,
      "t": 163873.7110416673,
      "d": 945.0554333333566,
      "v": 47
    },
    {
      "midi": 56,
      "hit": false,
      "t": 164175.90900000016,
      "d": 472.52771666666376,
      "v": 114
    },
    {
      "midi": 55,
      "hit": false,
      "t": 164197.88703333397,
      "d": 582.4178833333426,
      "v": 55
    },
    {
      "midi": 70,
      "hit": false,
      "t": 164505.57950000017,
      "d": 1549.4513499999885,
      "v": 114
    },
    {
      "midi": 46,
      "hit": false,
      "t": 164505.57950000017,
      "d": 1593.4074166666542,
      "v": 114
    },
    {
      "midi": 55,
      "hit": false,
      "t": 164505.57950000017,
      "d": 1747.2536499999987,
      "v": 114
    },
    {
      "midi": 58,
      "hit": false,
      "t": 164538.54655000064,
      "d": 346.1540250000253,
      "v": 64
    },
    {
      "midi": 60,
      "hit": false,
      "t": 165989.09675000014,
      "d": 159.34074166667415,
      "v": 114
    },
    {
      "midi": 58,
      "hit": false,
      "t": 166153.93200000015,
      "d": 324.1759916666779,
      "v": 114
    },
    {
      "midi": 62,
      "hit": false,
      "t": 166153.93200000015,
      "d": 324.1759916666779,
      "v": 114
    },
    {
      "midi": 65,
      "hit": false,
      "t": 166153.93200000015,
      "d": 324.1759916666779,
      "v": 114
    },
    {
      "midi": 48,
      "hit": false,
      "t": 166153.93200000015,
      "d": 829.6707583333482,
      "v": 114
    },
    {
      "midi": 48,
      "hit": false,
      "t": 166153.93200000067,
      "d": 1285.7149500000232,
      "v": 29
    },
    {
      "midi": 53,
      "hit": false,
      "t": 166153.93200000067,
      "d": 1285.7149500000232,
      "v": 46
    },
    {
      "midi": 58,
      "hit": false,
      "t": 166175.91003333402,
      "d": 615.3849333333201,
      "v": 36
    },
    {
      "midi": 62,
      "hit": false,
      "t": 166175.91003333402,
      "d": 807.6927250000008,
      "v": 58
    },
    {
      "midi": 70,
      "hit": false,
      "t": 166186.89905000015,
      "d": 445.0551750000159,
      "v": 114
    },
    {
      "midi": 65,
      "hit": false,
      "t": 166483.60250000015,
      "d": 324.1759916666779,
      "v": 114
    },
    {
      "midi": 58,
      "hit": false,
      "t": 166483.60250000015,
      "d": 417.5826333333389,
      "v": 114
    },
    {
      "midi": 62,
      "hit": false,
      "t": 166483.60250000015,
      "d": 428.57164999999804,
      "v": 114
    },
    {
      "midi": 69,
      "hit": false,
      "t": 166511.07504166683,
      "d": 401.09910833332106,
      "v": 114
    },
    {
      "midi": 65,
      "hit": false,
      "t": 166813.27300000016,
      "d": 324.1759916666779,
      "v": 114
    },
    {
      "midi": 58,
      "hit": false,
      "t": 167142.94350000017,
      "d": 1076.9236333333247,
      "v": 114
    },
    {
      "midi": 62,
      "hit": false,
      "t": 167142.94350000017,
      "d": 1076.9236333333247,
      "v": 114
    },
    {
      "midi": 48,
      "hit": false,
      "t": 167142.94350000017,
      "d": 1115.3851916666608,
      "v": 114
    },
    {
      "midi": 65,
      "hit": false,
      "t": 167175.91055000018,
      "d": 1043.9565833333181,
      "v": 114
    },
    {
      "midi": 48,
      "hit": false,
      "t": 167472.6140000007,
      "d": 626.3739500000083,
      "v": 40
    },
    {
      "midi": 53,
      "hit": false,
      "t": 167472.6140000007,
      "d": 626.3739500000083,
      "v": 34
    },
    {
      "midi": 58,
      "hit": false,
      "t": 167472.6140000007,
      "d": 626.3739500000083,
      "v": 49
    },
    {
      "midi": 62,
      "hit": false,
      "t": 167500.08654166738,
      "d": 598.9014083333313,
      "v": 42
    },
    {
      "midi": 69,
      "hit": false,
      "t": 168131.95500000016,
      "d": 445.0551750000159,
      "v": 114
    },
    {
      "midi": 46,
      "hit": false,
      "t": 168131.95500000016,
      "d": 802.1982166667003,
      "v": 114
    },
    {
      "midi": 46,
      "hit": false,
      "t": 168131.95500000071,
      "d": 626.3739500000083,
      "v": 40
    },
    {
      "midi": 53,
      "hit": false,
      "t": 168131.95500000071,
      "d": 626.3739500000083,
      "v": 34
    },
    {
      "midi": 57,
      "hit": false,
      "t": 168131.95500000071,
      "d": 626.3739500000083,
      "v": 49
    },
    {
      "midi": 58,
      "hit": false,
      "t": 168159.4275416674,
      "d": 598.9014083333313,
      "v": 42
    },
    {
      "midi": 62,
      "hit": false,
      "t": 168164.92205000072,
      "d": 593.4069000000018,
      "v": 55
    },
    {
      "midi": 72,
      "hit": false,
      "t": 168461.62550000017,
      "d": 1593.4074166666833,
      "v": 114
    },
    {
      "midi": 45,
      "hit": false,
      "t": 168791.29600000018,
      "d": 648.3519833333557,
      "v": 114
    },
    {
      "midi": 60,
      "hit": false,
      "t": 168791.29600000018,
      "d": 648.3519833333557,
      "v": 114
    },
    {
      "midi": 55,
      "hit": false,
      "t": 168791.29600000018,
      "d": 2807.693758333364,
      "v": 114
    },
    {
      "midi": 64,
      "hit": false,
      "t": 168824.26305000018,
      "d": 615.3849333333492,
      "v": 114
    },
    {
      "midi": 60,
      "hit": false,
      "t": 169450.6370000002,
      "d": 785.7146916666534,
      "v": 114
    },
    {
      "midi": 64,
      "hit": false,
      "t": 169483.6040500002,
      "d": 714.2860833333107,
      "v": 114
    },
    {
      "midi": 45,
      "hit": false,
      "t": 169780.3075000002,
      "d": 324.17599166664877,
      "v": 114
    },
    {
      "midi": 48,
      "hit": false,
      "t": 169796.79102500074,
      "d": 302.19795833333046,
      "v": 39
    },
    {
      "midi": 72,
      "hit": false,
      "t": 170109.97800000018,
      "d": 587.9123916666722,
      "v": 114
    },
    {
      "midi": 67,
      "hit": false,
      "t": 170109.97800000018,
      "d": 604.3959166666609,
      "v": 114
    },
    {
      "midi": 45,
      "hit": false,
      "t": 170109.97800000018,
      "d": 1593.4074166666833,
      "v": 114
    },
    {
      "midi": 52,
      "hit": false,
      "t": 170131.95603333408,
      "d": 285.71443333334173,
      "v": 43
    },
    {
      "midi": 79,
      "hit": false,
      "t": 170137.45054166685,
      "d": 456.04419166667503,
      "v": 114
    },
    {
      "midi": 77,
      "hit": false,
      "t": 170439.64850000018,
      "d": 324.17599166664877,
      "v": 114
    },
    {
      "midi": 55,
      "hit": false,
      "t": 170450.63751666743,
      "d": 395.6045999999915,
      "v": 48
    },
    {
      "midi": 72,
      "hit": false,
      "t": 170769.31900000016,
      "d": 774.7256750000233,
      "v": 114
    },
    {
      "midi": 67,
      "hit": false,
      "t": 170769.31900000016,
      "d": 802.1982166667003,
      "v": 114
    },
    {
      "midi": 57,
      "hit": false,
      "t": 170785.80252500076,
      "d": 395.6045999999915,
      "v": 53
    },
    {
      "midi": 76,
      "hit": false,
      "t": 170796.79154166684,
      "d": 384.6155833333323,
      "v": 114
    },
    {
      "midi": 77,
      "hit": false,
      "t": 171098.98950000017,
      "d": 2104.3966916667123,
      "v": 114
    },
    {
      "midi": 52,
      "hit": false,
      "t": 171104.48400833408,
      "d": 274.7254166666826,
      "v": 57
    },
    {
      "midi": 65,
      "hit": false,
      "t": 171428.66000000018,
      "d": 648.3519833333557,
      "v": 114
    },
    {
      "midi": 50,
      "hit": false,
      "t": 171428.66000000018,
      "d": 862.6378083333548,
      "v": 114
    },
    {
      "midi": 60,
      "hit": false,
      "t": 171428.66000000018,
      "d": 2664.8365416667075,
      "v": 114
    },
    {
      "midi": 60,
      "hit": false,
      "t": 171428.66000000076,
      "d": 329.67050000000745,
      "v": 55
    },
    {
      "midi": 65,
      "hit": false,
      "t": 171428.66000000076,
      "d": 373.62656666667317,
      "v": 50
    },
    {
      "midi": 38,
      "hit": false,
      "t": 171428.66000000076,
      "d": 2093.407675000053,
      "v": 34
    },
    {
      "midi": 50,
      "hit": false,
      "t": 171428.66000000076,
      "d": 2170.3307916667254,
      "v": 42
    },
    {
      "midi": 57,
      "hit": false,
      "t": 171439.64901666742,
      "d": 197.8023000000103,
      "v": 38
    },
    {
      "midi": 69,
      "hit": false,
      "t": 171461.62705000018,
      "d": 615.3849333333492,
      "v": 114
    },
    {
      "midi": 69,
      "hit": false,
      "t": 171785.80304166744,
      "d": 945.0554333333566,
      "v": 47
    },
    {
      "midi": 65,
      "hit": false,
      "t": 172088.0010000002,
      "d": 1104.3961750000308,
      "v": 114
    },
    {
      "midi": 60,
      "hit": false,
      "t": 172109.97903333412,
      "d": 582.4178833333426,
      "v": 55
    },
    {
      "midi": 69,
      "hit": false,
      "t": 172120.9680500002,
      "d": 917.5828916666796,
      "v": 114
    },
    {
      "midi": 50,
      "hit": false,
      "t": 172417.6715000002,
      "d": 324.1759916666779,
      "v": 114
    },
    {
      "midi": 62,
      "hit": false,
      "t": 172450.6385500008,
      "d": 346.1540250000253,
      "v": 64
    },
    {
      "midi": 50,
      "hit": false,
      "t": 172747.3420000002,
      "d": 1346.1545416666777,
      "v": 114
    },
    {
      "midi": 69,
      "hit": false,
      "t": 173077.01250000022,
      "d": 417.5826333333389,
      "v": 114
    },
    {
      "midi": 72,
      "hit": false,
      "t": 173406.68300000022,
      "d": 428.57164999999804,
      "v": 114
    },
    {
      "midi": 73,
      "hit": false,
      "t": 173736.35350000023,
      "d": 818.68174166666,
      "v": 114
    },
    {
      "midi": 44,
      "hit": false,
      "t": 174066.0240000002,
      "d": 846.1542833333369,
      "v": 114
    },
    {
      "midi": 63,
      "hit": false,
      "t": 174066.0240000002,
      "d": 846.1542833333369,
      "v": 114
    },
    {
      "midi": 59,
      "hit": false,
      "t": 174066.0240000002,
      "d": 862.6378083333257,
      "v": 114
    },
    {
      "midi": 66,
      "hit": false,
      "t": 174066.0240000002,
      "d": 873.6268249999848,
      "v": 114
    },
    {
      "midi": 44,
      "hit": false,
      "t": 174066.02400000082,
      "d": 274.7254166666826,
      "v": 40
    },
    {
      "midi": 58,
      "hit": false,
      "t": 174066.02400000082,
      "d": 274.7254166666826,
      "v": 34
    },
    {
      "midi": 59,
      "hit": false,
      "t": 174066.02400000082,
      "d": 274.7254166666826,
      "v": 49
    },
    {
      "midi": 63,
      "hit": false,
      "t": 174093.4965416675,
      "d": 247.2528750000056,
      "v": 42
    },
    {
      "midi": 70,
      "hit": false,
      "t": 174098.99105000022,
      "d": 829.6707583333191,
      "v": 114
    },
    {
      "midi": 66,
      "hit": false,
      "t": 174098.99105000083,
      "d": 241.758366666676,
      "v": 55
    },
    {
      "midi": 78,
      "hit": false,
      "t": 174395.69450000022,
      "d": 516.4837833333295,
      "v": 114
    },
    {
      "midi": 45,
      "hit": false,
      "t": 174395.69450000083,
      "d": 945.0554333333566,
      "v": 40
    },
    {
      "midi": 58,
      "hit": false,
      "t": 174395.69450000083,
      "d": 945.0554333333566,
      "v": 34
    },
    {
      "midi": 61,
      "hit": false,
      "t": 174395.69450000083,
      "d": 945.0554333333566,
      "v": 49
    },
    {
      "midi": 66,
      "hit": false,
      "t": 174423.1670416675,
      "d": 917.5828916666796,
      "v": 42
    },
    {
      "midi": 77,
      "hit": false,
      "t": 174725.36500000022,
      "d": 445.0551749999868,
      "v": 114
    },
    {
      "midi": 70,
      "hit": false,
      "t": 175055.0355000002,
      "d": 648.3519833333557,
      "v": 114
    },
    {
      "midi": 61,
      "hit": false,
      "t": 175055.0355000002,
      "d": 802.1982166666712,
      "v": 114
    },
    {
      "midi": 56,
      "hit": false,
      "t": 175055.0355000002,
      "d": 1604.3964333333133,
      "v": 114
    },
    {
      "midi": 42,
      "hit": false,
      "t": 175055.0355000002,
      "d": 1620.879958333302,
      "v": 114
    },
    {
      "midi": 73,
      "hit": false,
      "t": 175082.50804166688,
      "d": 774.7256749999942,
      "v": 114
    },
    {
      "midi": 70,
      "hit": false,
      "t": 175714.37650000022,
      "d": 324.17599166664877,
      "v": 114
    },
    {
      "midi": 61,
      "hit": false,
      "t": 175725.36551666752,
      "d": 395.6045999999915,
      "v": 44
    },
    {
      "midi": 71,
      "hit": false,
      "t": 176044.0470000002,
      "d": 428.57164999999804,
      "v": 114
    },
    {
      "midi": 66,
      "hit": false,
      "t": 176060.53052500085,
      "d": 395.6045999999915,
      "v": 49
    },
    {
      "midi": 73,
      "hit": false,
      "t": 176373.7175000002,
      "d": 2252.748416666611,
      "v": 114
    },
    {
      "midi": 58,
      "hit": false,
      "t": 176379.21200833417,
      "d": 274.7254166666826,
      "v": 53
    },
    {
      "midi": 42,
      "hit": false,
      "t": 176703.38800000018,
      "d": 758.2421500000055,
      "v": 114
    },
    {
      "midi": 59,
      "hit": false,
      "t": 176703.38800000018,
      "d": 1906.5943916666438,
      "v": 114
    },
    {
      "midi": 64,
      "hit": false,
      "t": 176703.38800000018,
      "d": 1906.5943916666438,
      "v": 114
    },
    {
      "midi": 56,
      "hit": false,
      "t": 176703.38800000018,
      "d": 2653.847524999961,
      "v": 114
    },
    {
      "midi": 42,
      "hit": false,
      "t": 176703.38800000085,
      "d": 2093.407675000053,
      "v": 31
    },
    {
      "midi": 68,
      "hit": false,
      "t": 176730.86054166686,
      "d": 1890.110866666626,
      "v": 114
    },
    {
      "midi": 56,
      "hit": false,
      "t": 176736.35505000086,
      "d": 197.8023000000103,
      "v": 35
    },
    {
      "midi": 59,
      "hit": false,
      "t": 176747.34406666752,
      "d": 329.67050000000745,
      "v": 52
    },
    {
      "midi": 64,
      "hit": false,
      "t": 176769.32210000086,
      "d": 401.09910833335016,
      "v": 47
    },
    {
      "midi": 56,
      "hit": false,
      "t": 177060.53104166753,
      "d": 945.0554333333566,
      "v": 44
    },
    {
      "midi": 59,
      "hit": false,
      "t": 177384.7070333342,
      "d": 582.4178833333426,
      "v": 52
    },
    {
      "midi": 42,
      "hit": false,
      "t": 177692.39950000017,
      "d": 1703.297583333304,
      "v": 114
    },
    {
      "midi": 64,
      "hit": false,
      "t": 177725.36655000088,
      "d": 346.1540250000253,
      "v": 61
    },
    {
      "midi": 70,
      "hit": false,
      "t": 178516.57575000016,
      "d": 159.34074166664504,
      "v": 114
    },
    {
      "midi": 70,
      "hit": false,
      "t": 178681.41100000014,
      "d": 159.34074166667415,
      "v": 114
    },
    {
      "midi": 71,
      "hit": false,
      "t": 178846.24625000014,
      "d": 241.758366666676,
      "v": 114
    },
    {
      "midi": 73,
      "hit": false,
      "t": 179011.08150000015,
      "d": 324.1759916666779,
      "v": 114
    },
    {
      "midi": 61,
      "hit": false,
      "t": 179307.78495000015,
      "d": 2593.4079333333357,
      "v": 114
    },
    {
      "midi": 73,
      "hit": false,
      "t": 179340.75200000015,
      "d": 637.3629666666384,
      "v": 114
    },
    {
      "midi": 47,
      "hit": false,
      "t": 179340.75200000015,
      "d": 802.1982166666421,
      "v": 114
    },
    {
      "midi": 66,
      "hit": false,
      "t": 179340.75200000015,
      "d": 2741.7596583333507,
      "v": 114
    },
    {
      "midi": 58,
      "hit": false,
      "t": 179340.75200000015,
      "d": 2774.7267083333572,
      "v": 114
    },
    {
      "midi": 63,
      "hit": false,
      "t": 179340.75200000015,
      "d": 2835.1663000000117,
      "v": 114
    },
    {
      "midi": 35,
      "hit": false,
      "t": 179340.7520000009,
      "d": 2604.3969499999657,
      "v": 36
    },
    {
      "midi": 47,
      "hit": false,
      "t": 179340.7520000009,
      "d": 2604.3969499999657,
      "v": 51
    },
    {
      "midi": 54,
      "hit": false,
      "t": 179340.7520000009,
      "d": 2604.3969499999657,
      "v": 35
    },
    {
      "midi": 58,
      "hit": false,
      "t": 179340.7520000009,
      "d": 2604.3969499999657,
      "v": 57
    },
    {
      "midi": 61,
      "hit": false,
      "t": 179417.67511666758,
      "d": 2527.4738333332934,
      "v": 34
    },
    {
      "midi": 63,
      "hit": false,
      "t": 179461.63118333425,
      "d": 2483.5177666666277,
      "v": 50
    },
    {
      "midi": 71,
      "hit": false,
      "t": 179835.25775000014,
      "d": 258.24189166666474,
      "v": 114
    },
    {
      "midi": 75,
      "hit": false,
      "t": 180000.09300000014,
      "d": 1456.0447083333274,
      "v": 114
    },
    {
      "midi": 47,
      "hit": false,
      "t": 180329.76350000012,
      "d": 324.1759916666779,
      "v": 114
    },
    {
      "midi": 47,
      "hit": false,
      "t": 180659.43400000012,
      "d": 1214.2863416666805,
      "v": 114
    },
    {
      "midi": 73,
      "hit": false,
      "t": 181648.44550000015,
      "d": 456.04419166670414,
      "v": 114
    },
    {
      "midi": 75,
      "hit": false,
      "t": 181978.11600000015,
      "d": 412.0881250000093,
      "v": 114
    },
    {
      "midi": 47,
      "hit": false,
      "t": 181978.11600000015,
      "d": 818.681741666689,
      "v": 114
    },
    {
      "midi": 65,
      "hit": false,
      "t": 181978.11600000015,
      "d": 2637.3640000000014,
      "v": 114
    },
    {
      "midi": 37,
      "hit": false,
      "t": 181978.11600000088,
      "d": 2093.407675000053,
      "v": 31
    },
    {
      "midi": 49,
      "hit": false,
      "t": 181978.11600000088,
      "d": 2170.3307916667254,
      "v": 39
    },
    {
      "midi": 68,
      "hit": false,
      "t": 182011.08305000016,
      "d": 2593.4079333333357,
      "v": 114
    },
    {
      "midi": 56,
      "hit": false,
      "t": 182011.0830500009,
      "d": 197.8023000000103,
      "v": 35
    },
    {
      "midi": 61,
      "hit": false,
      "t": 182022.07206666755,
      "d": 329.67050000000745,
      "v": 52
    },
    {
      "midi": 65,
      "hit": false,
      "t": 182044.0501000009,
      "d": 401.09910833335016,
      "v": 47
    },
    {
      "midi": 73,
      "hit": false,
      "t": 182307.78650000016,
      "d": 324.1759916666779,
      "v": 114
    },
    {
      "midi": 56,
      "hit": false,
      "t": 182335.25904166757,
      "d": 945.0554333333566,
      "v": 44
    },
    {
      "midi": 77,
      "hit": false,
      "t": 182637.45700000017,
      "d": 1483.5172500000044,
      "v": 114
    },
    {
      "midi": 61,
      "hit": false,
      "t": 182659.43503333424,
      "d": 582.4178833333426,
      "v": 52
    },
    {
      "midi": 47,
      "hit": false,
      "t": 182967.12750000018,
      "d": 324.1759916666779,
      "v": 114
    },
    {
      "midi": 65,
      "hit": false,
      "t": 183000.0945500009,
      "d": 346.1540250000253,
      "v": 61
    },
    {
      "midi": 47,
      "hit": false,
      "t": 183296.79800000018,
      "d": 1412.0886416666326,
      "v": 114
    },
    {
      "midi": 75,
      "hit": false,
      "t": 184285.80950000018,
      "d": 324.17599166664877,
      "v": 114
    },
    {
      "midi": 61,
      "hit": false,
      "t": 184615.48000000016,
      "d": 43.95606666666572,
      "v": 114
    },
    {
      "midi": 46,
      "hit": false,
      "t": 184615.48000000016,
      "d": 648.3519833333266,
      "v": 114
    },
    {
      "midi": 53,
      "hit": false,
      "t": 184615.48000000016,
      "d": 648.3519833333266,
      "v": 114
    },
    {
      "midi": 68,
      "hit": false,
      "t": 184615.48000000016,
      "d": 1258.2424083333171,
      "v": 114
    },
    {
      "midi": 34,
      "hit": false,
      "t": 184615.48000000094,
      "d": 1285.7149500000523,
      "v": 31
    },
    {
      "midi": 46,
      "hit": false,
      "t": 184615.48000000094,
      "d": 1285.7149500000523,
      "v": 39
    },
    {
      "midi": 73,
      "hit": false,
      "t": 184648.44705000016,
      "d": 560.4398499999952,
      "v": 114
    },
    {
      "midi": 53,
      "hit": false,
      "t": 184648.44705000095,
      "d": 197.8023000000103,
      "v": 35
    },
    {
      "midi": 56,
      "hit": false,
      "t": 184659.4360666676,
      "d": 329.67050000000745,
      "v": 52
    },
    {
      "midi": 61,
      "hit": false,
      "t": 184681.41410000095,
      "d": 401.09910833335016,
      "v": 47
    },
    {
      "midi": 53,
      "hit": false,
      "t": 184972.62304166763,
      "d": 928.5719083333679,
      "v": 44
    },
    {
      "midi": 73,
      "hit": false,
      "t": 185274.82100000014,
      "d": 620.8794416666788,
      "v": 114
    },
    {
      "midi": 56,
      "hit": false,
      "t": 185296.7990333343,
      "d": 582.4178833333426,
      "v": 52
    },
    {
      "midi": 46,
      "hit": false,
      "t": 185604.49150000015,
      "d": 324.1759916666779,
      "v": 114
    },
    {
      "midi": 61,
      "hit": false,
      "t": 185637.45855000097,
      "d": 263.7364000000234,
      "v": 61
    },
    {
      "midi": 68,
      "hit": false,
      "t": 185934.16200000016,
      "d": 774.7256750000233,
      "v": 114
    },
    {
      "midi": 62,
      "hit": false,
      "t": 185934.16200000016,
      "d": 785.7146916666825,
      "v": 114
    },
    {
      "midi": 53,
      "hit": false,
      "t": 185934.16200000016,
      "d": 1439.5611833333678,
      "v": 114
    },
    {
      "midi": 46,
      "hit": false,
      "t": 185934.16200000016,
      "d": 1532.9678250000288,
      "v": 114
    },
    {
      "midi": 46,
      "hit": false,
      "t": 185939.65650833433,
      "d": 1280.2204416666646,
      "v": 53
    },
    {
      "midi": 74,
      "hit": false,
      "t": 185967.12905000016,
      "d": 758.2421500000055,
      "v": 114
    },
    {
      "midi": 53,
      "hit": false,
      "t": 186258.33799166765,
      "d": 961.5389583333454,
      "v": 46
    },
    {
      "midi": 77,
      "hit": false,
      "t": 186593.50300000017,
      "d": 439.5606666666863,
      "v": 114
    },
    {
      "midi": 56,
      "hit": false,
      "t": 186593.503000001,
      "d": 626.3739500000083,
      "v": 43
    },
    {
      "midi": 58,
      "hit": false,
      "t": 186598.99750833432,
      "d": 620.8794416666788,
      "v": 50
    },
    {
      "midi": 78,
      "hit": false,
      "t": 186923.17350000018,
      "d": 2120.880216666672,
      "v": 114
    },
    {
      "midi": 51,
      "hit": false,
      "t": 187252.8440000002,
      "d": 818.68174166666,
      "v": 114
    },
    {
      "midi": 61,
      "hit": false,
      "t": 187252.8440000002,
      "d": 835.1652666666487,
      "v": 114
    },
    {
      "midi": 66,
      "hit": false,
      "t": 187252.8440000002,
      "d": 879.1213333333144,
      "v": 114
    },
    {
      "midi": 39,
      "hit": false,
      "t": 187252.844000001,
      "d": 274.7254166666826,
      "v": 40
    },
    {
      "midi": 51,
      "hit": false,
      "t": 187252.844000001,
      "d": 274.7254166666826,
      "v": 34
    },
    {
      "midi": 54,
      "hit": false,
      "t": 187252.844000001,
      "d": 274.7254166666826,
      "v": 49
    },
    {
      "midi": 58,
      "hit": false,
      "t": 187280.31654166768,
      "d": 247.2528750000056,
      "v": 42
    },
    {
      "midi": 61,
      "hit": false,
      "t": 187285.811050001,
      "d": 241.758366666676,
      "v": 55
    },
    {
      "midi": 51,
      "hit": false,
      "t": 187582.514500001,
      "d": 945.0554333333566,
      "v": 40
    },
    {
      "midi": 54,
      "hit": false,
      "t": 187582.514500001,
      "d": 945.0554333333566,
      "v": 34
    },
    {
      "midi": 56,
      "hit": false,
      "t": 187582.514500001,
      "d": 945.0554333333566,
      "v": 49
    },
    {
      "midi": 59,
      "hit": false,
      "t": 187609.9870416677,
      "d": 917.5828916666796,
      "v": 42
    },
    {
      "midi": 62,
      "hit": false,
      "t": 187615.48155000102,
      "d": 912.0883833333501,
      "v": 55
    },
    {
      "midi": 50,
      "hit": false,
      "t": 188241.85550000018,
      "d": 1681.3195500000147,
      "v": 114
    },
    {
      "midi": 59,
      "hit": false,
      "t": 188241.85550000018,
      "d": 1851.649308333348,
      "v": 114
    },
    {
      "midi": 66,
      "hit": false,
      "t": 188912.1855166677,
      "d": 395.6045999999915,
      "v": 44
    },
    {
      "midi": 78,
      "hit": false,
      "t": 189230.86700000017,
      "d": 285.71443333334173,
      "v": 114
    },
    {
      "midi": 59,
      "hit": false,
      "t": 189247.35052500103,
      "d": 395.6045999999915,
      "v": 49
    },
    {
      "midi": 76,
      "hit": false,
      "t": 189450.6473333335,
      "d": 335.16500833336613,
      "v": 114
    },
    {
      "midi": 56,
      "hit": false,
      "t": 189566.03200833435,
      "d": 274.7254166666826,
      "v": 53
    },
    {
      "midi": 74,
      "hit": false,
      "t": 189670.42766666686,
      "d": 214.28582499999902,
      "v": 114
    },
    {
      "midi": 68,
      "hit": false,
      "t": 189890.2080000002,
      "d": 5.494508333329577,
      "v": 114
    },
    {
      "midi": 42,
      "hit": false,
      "t": 189890.2080000002,
      "d": 967.0334666666749,
      "v": 114
    },
    {
      "midi": 61,
      "hit": false,
      "t": 189890.2080000002,
      "d": 967.0334666666749,
      "v": 114
    },
    {
      "midi": 65,
      "hit": false,
      "t": 189890.2080000002,
      "d": 967.0334666666749,
      "v": 114
    },
    {
      "midi": 49,
      "hit": false,
      "t": 189890.2080000002,
      "d": 2714.2871166666737,
      "v": 114
    },
    {
      "midi": 54,
      "hit": false,
      "t": 189890.20800000103,
      "d": 274.7254166666826,
      "v": 40
    },
    {
      "midi": 56,
      "hit": false,
      "t": 189890.20800000103,
      "d": 274.7254166666826,
      "v": 34
    },
    {
      "midi": 61,
      "hit": false,
      "t": 189890.20800000103,
      "d": 274.7254166666826,
      "v": 49
    },
    {
      "midi": 65,
      "hit": false,
      "t": 189917.6805416677,
      "d": 247.2528750000056,
      "v": 42
    },
    {
      "midi": 73,
      "hit": false,
      "t": 189923.1750500002,
      "d": 802.1982166666712,
      "v": 114
    },
    {
      "midi": 42,
      "hit": false,
      "t": 190219.87850000104,
      "d": 945.0554333333566,
      "v": 40
    },
    {
      "midi": 58,
      "hit": false,
      "t": 190219.87850000104,
      "d": 945.0554333333566,
      "v": 34
    },
    {
      "midi": 61,
      "hit": false,
      "t": 190219.87850000104,
      "d": 945.0554333333566,
      "v": 49
    },
    {
      "midi": 66,
      "hit": false,
      "t": 190247.35104166772,
      "d": 917.5828916666796,
      "v": 42
    },
    {
      "midi": 70,
      "hit": false,
      "t": 190879.2195000002,
      "d": 648.3519833333266,
      "v": 114
    },
    {
      "midi": 61,
      "hit": false,
      "t": 190879.2195000002,
      "d": 741.7586249999877,
      "v": 114
    },
    {
      "midi": 66,
      "hit": false,
      "t": 190879.2195000002,
      "d": 774.7256749999942,
      "v": 114
    },
    {
      "midi": 42,
      "hit": false,
      "t": 190879.2195000002,
      "d": 1681.3195499999856,
      "v": 114
    },
    {
      "midi": 73,
      "hit": false,
      "t": 190912.18655000022,
      "d": 774.7256749999942,
      "v": 114
    },
    {
      "midi": 61,
      "hit": false,
      "t": 191208.89000000106,
      "d": 329.67050000000745,
      "v": 55
    },
    {
      "midi": 66,
      "hit": false,
      "t": 191208.89000000106,
      "d": 373.62656666667317,
      "v": 50
    },
    {
      "midi": 42,
      "hit": false,
      "t": 191208.89000000106,
      "d": 1285.7149500000523,
      "v": 34
    },
    {
      "midi": 58,
      "hit": false,
      "t": 191219.87901666772,
      "d": 197.8023000000103,
      "v": 38
    },
    {
      "midi": 71,
      "hit": false,
      "t": 191538.5605000002,
      "d": 324.1759916666779,
      "v": 114
    },
    {
      "midi": 70,
      "hit": false,
      "t": 191566.03304166775,
      "d": 928.5719083333679,
      "v": 47
    },
    {
      "midi": 70,
      "hit": false,
      "t": 191868.2310000002,
      "d": 164.83525000000373,
      "v": 114
    },
    {
      "midi": 61,
      "hit": false,
      "t": 191890.20903333442,
      "d": 582.4178833333426,
      "v": 55
    },
    {
      "midi": 71,
      "hit": false,
      "t": 192088.01133333353,
      "d": 335.165008333337,
      "v": 114
    },
    {
      "midi": 66,
      "hit": false,
      "t": 192230.8685500011,
      "d": 263.7364000000234,
      "v": 64
    },
    {
      "midi": 73,
      "hit": false,
      "t": 192307.79166666686,
      "d": 159.34074166667415,
      "v": 114
    },
    {
      "midi": 73,
      "hit": false,
      "t": 192527.5720000002,
      "d": 637.3629666666675,
      "v": 114
    },
    {
      "midi": 56,
      "hit": false,
      "t": 192527.5720000002,
      "d": 835.1652666666778,
      "v": 114
    },
    {
      "midi": 47,
      "hit": false,
      "t": 192527.5720000002,
      "d": 862.6378083333548,
      "v": 114
    },
    {
      "midi": 62,
      "hit": false,
      "t": 192527.5720000002,
      "d": 862.6378083333548,
      "v": 114
    },
    {
      "midi": 47,
      "hit": false,
      "t": 192527.57200000112,
      "d": 274.7254166666826,
      "v": 40
    },
    {
      "midi": 54,
      "hit": false,
      "t": 192527.57200000112,
      "d": 274.7254166666826,
      "v": 34
    },
    {
      "midi": 56,
      "hit": false,
      "t": 192527.57200000112,
      "d": 274.7254166666826,
      "v": 49
    },
    {
      "midi": 59,
      "hit": false,
      "t": 192555.0445416678,
      "d": 247.2528750000056,
      "v": 42
    },
    {
      "midi": 66,
      "hit": false,
      "t": 192560.5390500002,
      "d": 802.1982166666712,
      "v": 114
    },
    {
      "midi": 62,
      "hit": false,
      "t": 192560.53905000113,
      "d": 241.758366666676,
      "v": 55
    },
    {
      "midi": 44,
      "hit": false,
      "t": 192857.24250000113,
      "d": 945.0554333333566,
      "v": 40
    },
    {
      "midi": 56,
      "hit": false,
      "t": 192857.24250000113,
      "d": 945.0554333333566,
      "v": 34
    },
    {
      "midi": 59,
      "hit": false,
      "t": 192857.24250000113,
      "d": 945.0554333333566,
      "v": 49
    },
    {
      "midi": 62,
      "hit": false,
      "t": 192884.7150416678,
      "d": 917.5828916666796,
      "v": 42
    },
    {
      "midi": 66,
      "hit": false,
      "t": 192890.20955000113,
      "d": 912.0883833333501,
      "v": 55
    },
    {
      "midi": 71,
      "hit": false,
      "t": 193022.0777500002,
      "d": 483.516733333352,
      "v": 114
    },
    {
      "midi": 66,
      "hit": false,
      "t": 193516.5835000002,
      "d": 1164.8357666666852,
      "v": 114
    },
    {
      "midi": 63,
      "hit": false,
      "t": 193516.5835000002,
      "d": 1197.8028166666918,
      "v": 114
    },
    {
      "midi": 54,
      "hit": false,
      "t": 193516.5835000002,
      "d": 1637.363483333349,
      "v": 114
    },
    {
      "midi": 44,
      "hit": false,
      "t": 193516.5835000002,
      "d": 1714.2866000000213,
      "v": 114
    },
    {
      "midi": 71,
      "hit": false,
      "t": 193549.55055000022,
      "d": 1197.8028166666918,
      "v": 114
    },
    {
      "midi": 44,
      "hit": false,
      "t": 193846.25400000115,
      "d": 1285.7149500000523,
      "v": 29
    },
    {
      "midi": 56,
      "hit": false,
      "t": 193846.25400000115,
      "d": 1285.7149500000523,
      "v": 46
    },
    {
      "midi": 59,
      "hit": false,
      "t": 193868.2320333345,
      "d": 615.3849333333492,
      "v": 36
    },
    {
      "midi": 62,
      "hit": false,
      "t": 193868.2320333345,
      "d": 807.6927250000299,
      "v": 58
    },
    {
      "midi": 66,
      "hit": false,
      "t": 193895.70457500117,
      "d": 868.1323166666843,
      "v": 75
    },
    {
      "midi": 66,
      "hit": false,
      "t": 194835.26550000024,
      "d": 324.17599166664877,
      "v": 114
    },
    {
      "midi": 37,
      "hit": false,
      "t": 195164.93600000022,
      "d": 774.7256750000233,
      "v": 114
    },
    {
      "midi": 63,
      "hit": false,
      "t": 195164.93600000022,
      "d": 1230.7698666666984,
      "v": 114
    },
    {
      "midi": 59,
      "hit": false,
      "t": 195164.93600000022,
      "d": 1241.7588833333575,
      "v": 114
    },
    {
      "midi": 66,
      "hit": false,
      "t": 195164.93600000022,
      "d": 1274.725933333364,
      "v": 114
    },
    {
      "midi": 37,
      "hit": false,
      "t": 195164.9360000012,
      "d": 2093.407675000053,
      "v": 31
    },
    {
      "midi": 49,
      "hit": false,
      "t": 195164.9360000012,
      "d": 2170.3307916667254,
      "v": 39
    },
    {
      "midi": 71,
      "hit": false,
      "t": 195197.90305000023,
      "d": 1274.725933333364,
      "v": 114
    },
    {
      "midi": 54,
      "hit": false,
      "t": 195197.90305000122,
      "d": 197.8023000000103,
      "v": 35
    },
    {
      "midi": 59,
      "hit": false,
      "t": 195208.89206666788,
      "d": 329.67050000000745,
      "v": 52
    },
    {
      "midi": 63,
      "hit": false,
      "t": 195230.87010000122,
      "d": 401.09910833335016,
      "v": 47
    },
    {
      "midi": 54,
      "hit": false,
      "t": 195522.0790416679,
      "d": 945.0554333333566,
      "v": 44
    },
    {
      "midi": 49,
      "hit": false,
      "t": 195824.27700000023,
      "d": 439.5606666666863,
      "v": 114
    },
    {
      "midi": 59,
      "hit": false,
      "t": 195846.25503333457,
      "d": 582.4178833333426,
      "v": 52
    },
    {
      "midi": 37,
      "hit": false,
      "t": 196153.94750000024,
      "d": 274.7254166666826,
      "v": 114
    },
    {
      "midi": 63,
      "hit": false,
      "t": 196186.91455000124,
      "d": 346.1540250000253,
      "v": 61
    },
    {
      "midi": 37,
      "hit": false,
      "t": 196483.61800000025,
      "d": 802.1982166666712,
      "v": 114
    },
    {
      "midi": 59,
      "hit": false,
      "t": 196483.61800000025,
      "d": 1274.725933333335,
      "v": 114
    },
    {
      "midi": 63,
      "hit": false,
      "t": 196483.61800000025,
      "d": 1274.725933333335,
      "v": 114
    },
    {
      "midi": 66,
      "hit": false,
      "t": 196483.61800000025,
      "d": 1274.725933333335,
      "v": 114
    },
    {
      "midi": 70,
      "hit": false,
      "t": 196516.58505000026,
      "d": 1379.1215916666551,
      "v": 114
    },
    {
      "midi": 49,
      "hit": false,
      "t": 197142.95900000026,
      "d": 423.07714166663936,
      "v": 114
    },
    {
      "midi": 37,
      "hit": false,
      "t": 197472.62950000024,
      "d": 324.1759916666779,
      "v": 114
    },
    {
      "midi": 37,
      "hit": false,
      "t": 197802.30000000025,
      "d": 774.7256749999942,
      "v": 114
    },
    {
      "midi": 59,
      "hit": false,
      "t": 197802.30000000025,
      "d": 1714.2865999999922,
      "v": 114
    },
    {
      "midi": 63,
      "hit": false,
      "t": 197802.30000000025,
      "d": 1791.2097166666645,
      "v": 114
    },
    {
      "midi": 49,
      "hit": false,
      "t": 197802.30000000127,
      "d": 2362.638583333348,
      "v": 43
    },
    {
      "midi": 37,
      "hit": false,
      "t": 197818.78352500126,
      "d": 2357.1440750000183,
      "v": 37
    },
    {
      "midi": 66,
      "hit": false,
      "t": 197835.26705000026,
      "d": 1791.2097166666645,
      "v": 114
    },
    {
      "midi": 66,
      "hit": false,
      "t": 197846.25606666793,
      "d": 384.6155833333323,
      "v": 43
    },
    {
      "midi": 59,
      "hit": false,
      "t": 197857.2450833346,
      "d": 175.82426666666288,
      "v": 47
    },
    {
      "midi": 63,
      "hit": false,
      "t": 197857.2450833346,
      "d": 346.1540249999962,
      "v": 59
    },
    {
      "midi": 59,
      "hit": false,
      "t": 198164.93755000125,
      "d": 626.3739500000374,
      "v": 63
    },
    {
      "midi": 49,
      "hit": false,
      "t": 198461.64100000024,
      "d": 500.00025833334075,
      "v": 114
    },
    {
      "midi": 63,
      "hit": false,
      "t": 198511.09157500128,
      "d": 384.6155833333323,
      "v": 67
    },
    {
      "midi": 37,
      "hit": false,
      "t": 198791.31150000024,
      "d": 324.1759916666779,
      "v": 114
    },
    {
      "midi": 66,
      "hit": false,
      "t": 198802.30051666795,
      "d": 148.3517249999859,
      "v": 36
    },
    {
      "midi": 37,
      "hit": false,
      "t": 199120.98200000025,
      "d": 1516.484300000011,
      "v": 114
    },
    {
      "midi": 71,
      "hit": false,
      "t": 199142.96003333462,
      "d": 126.37369166666758,
      "v": 55
    },
    {
      "midi": 70,
      "hit": false,
      "t": 199780.32300000027,
      "d": 472.52771666666376,
      "v": 114
    },
    {
      "midi": 75,
      "hit": false,
      "t": 199802.30103333463,
      "d": 214.28582499999902,
      "v": 63
    },
    {
      "midi": 73,
      "hit": false,
      "t": 200109.99350000027,
      "d": 2137.363741666719,
      "v": 114
    },
    {
      "midi": 42,
      "hit": false,
      "t": 200439.66400000025,
      "d": 483.516733333352,
      "v": 114
    },
    {
      "midi": 61,
      "hit": false,
      "t": 200439.66400000025,
      "d": 851.6487916666956,
      "v": 114
    },
    {
      "midi": 65,
      "hit": false,
      "t": 200439.66400000025,
      "d": 851.6487916666956,
      "v": 114
    },
    {
      "midi": 54,
      "hit": false,
      "t": 200439.6640000013,
      "d": 274.7254166666826,
      "v": 40
    },
    {
      "midi": 56,
      "hit": false,
      "t": 200439.6640000013,
      "d": 274.7254166666826,
      "v": 34
    },
    {
      "midi": 61,
      "hit": false,
      "t": 200439.6640000013,
      "d": 274.7254166666826,
      "v": 49
    },
    {
      "midi": 68,
      "hit": false,
      "t": 200467.13654166693,
      "d": 851.6487916666956,
      "v": 114
    },
    {
      "midi": 65,
      "hit": false,
      "t": 200467.13654166798,
      "d": 247.2528750000056,
      "v": 42
    },
    {
      "midi": 49,
      "hit": false,
      "t": 200769.33450000026,
      "d": 456.04419166667503,
      "v": 114
    },
    {
      "midi": 42,
      "hit": false,
      "t": 200769.3345000013,
      "d": 945.0554333333566,
      "v": 40
    },
    {
      "midi": 58,
      "hit": false,
      "t": 200769.3345000013,
      "d": 945.0554333333566,
      "v": 34
    },
    {
      "midi": 61,
      "hit": false,
      "t": 200769.3345000013,
      "d": 945.0554333333566,
      "v": 49
    },
    {
      "midi": 66,
      "hit": false,
      "t": 200796.80704166798,
      "d": 917.5828916666796,
      "v": 42
    },
    {
      "midi": 54,
      "hit": false,
      "t": 201099.00500000027,
      "d": 472.527716666722,
      "v": 114
    },
    {
      "midi": 61,
      "hit": false,
      "t": 201428.6755000003,
      "d": 648.3519833333557,
      "v": 114
    },
    {
      "midi": 66,
      "hit": false,
      "t": 201428.6755000003,
      "d": 774.7256750000233,
      "v": 114
    },
    {
      "midi": 42,
      "hit": false,
      "t": 201428.6755000003,
      "d": 1758.242666666687,
      "v": 114
    },
    {
      "midi": 70,
      "hit": false,
      "t": 201456.14804166698,
      "d": 758.2421500000055,
      "v": 114
    },
    {
      "midi": 42,
      "hit": false,
      "t": 201763.84050833466,
      "d": 1280.2204416666646,
      "v": 53
    },
    {
      "midi": 58,
      "hit": false,
      "t": 202082.52199166798,
      "d": 961.5389583333454,
      "v": 46
    },
    {
      "midi": 61,
      "hit": false,
      "t": 202088.01650000032,
      "d": 472.52771666666376,
      "v": 114
    },
    {
      "midi": 63,
      "hit": false,
      "t": 202417.68700000033,
      "d": 412.0881249999802,
      "v": 114
    },
    {
      "midi": 61,
      "hit": false,
      "t": 202417.68700000132,
      "d": 626.3739500000083,
      "v": 43
    },
    {
      "midi": 66,
      "hit": false,
      "t": 202423.18150833464,
      "d": 620.8794416666788,
      "v": 50
    },
    {
      "midi": 66,
      "hit": false,
      "t": 202747.3575000003,
      "d": 324.1759916666779,
      "v": 114
    },
    {
      "midi": 39,
      "hit": false,
      "t": 203077.0280000003,
      "d": 576.923375000013,
      "v": 114
    },
    {
      "midi": 56,
      "hit": false,
      "t": 203077.0280000003,
      "d": 879.1213333333726,
      "v": 114
    },
    {
      "midi": 61,
      "hit": false,
      "t": 203077.0280000003,
      "d": 879.1213333333726,
      "v": 114
    },
    {
      "midi": 65,
      "hit": false,
      "t": 203077.0280000003,
      "d": 895.6048583333613,
      "v": 114
    },
    {
      "midi": 51,
      "hit": false,
      "t": 203077.02800000133,
      "d": 274.7254166666826,
      "v": 40
    },
    {
      "midi": 56,
      "hit": false,
      "t": 203077.02800000133,
      "d": 274.7254166666826,
      "v": 34
    },
    {
      "midi": 61,
      "hit": false,
      "t": 203077.02800000133,
      "d": 274.7254166666826,
      "v": 49
    },
    {
      "midi": 65,
      "hit": false,
      "t": 203104.500541668,
      "d": 247.2528750000056,
      "v": 42
    },
    {
      "midi": 68,
      "hit": false,
      "t": 203109.99505000032,
      "d": 818.681741666689,
      "v": 114
    },
    {
      "midi": 46,
      "hit": false,
      "t": 203406.69850000032,
      "d": 483.516733333352,
      "v": 114
    },
    {
      "midi": 39,
      "hit": false,
      "t": 203406.69850000134,
      "d": 945.0554333333566,
      "v": 40
    },
    {
      "midi": 51,
      "hit": false,
      "t": 203406.69850000134,
      "d": 945.0554333333566,
      "v": 34
    },
    {
      "midi": 54,
      "hit": false,
      "t": 203406.69850000134,
      "d": 945.0554333333566,
      "v": 49
    },
    {
      "midi": 58,
      "hit": false,
      "t": 203434.171041668,
      "d": 917.5828916666796,
      "v": 42
    },
    {
      "midi": 61,
      "hit": false,
      "t": 203439.66555000134,
      "d": 912.0883833333501,
      "v": 55
    },
    {
      "midi": 51,
      "hit": false,
      "t": 203736.36900000033,
      "d": 439.5606666666863,
      "v": 114
    },
    {
      "midi": 58,
      "hit": false,
      "t": 204066.03950000033,
      "d": 967.0334666666749,
      "v": 114
    },
    {
      "midi": 66,
      "hit": false,
      "t": 204066.03950000033,
      "d": 967.0334666666749,
      "v": 114
    },
    {
      "midi": 61,
      "hit": false,
      "t": 204066.03950000033,
      "d": 1137.3632250000373,
      "v": 114
    },
    {
      "midi": 39,
      "hit": false,
      "t": 204066.03950000033,
      "d": 1791.2097166666936,
      "v": 114
    },
    {
      "midi": 70,
      "hit": false,
      "t": 204104.50105833367,
      "d": 1032.967566666688,
      "v": 114
    },
    {
      "midi": 39,
      "hit": false,
      "t": 204395.71000000136,
      "d": 1285.7149500000523,
      "v": 29
    },
    {
      "midi": 51,
      "hit": false,
      "t": 204395.71000000136,
      "d": 1285.7149500000523,
      "v": 46
    },
    {
      "midi": 54,
      "hit": false,
      "t": 204417.6880333347,
      "d": 615.3849333333492,
      "v": 36
    },
    {
      "midi": 58,
      "hit": false,
      "t": 204417.6880333347,
      "d": 807.6927250000299,
      "v": 58
    },
    {
      "midi": 61,
      "hit": false,
      "t": 204445.16057500138,
      "d": 868.1323166666843,
      "v": 75
    },
    {
      "midi": 66,
      "hit": false,
      "t": 205055.05100000036,
      "d": 241.758366666676,
      "v": 114
    },
    {
      "midi": 68,
      "hit": false,
      "t": 205219.88625000036,
      "d": 225.27484166665818,
      "v": 114
    },
    {
      "midi": 70,
      "hit": false,
      "t": 205384.72150000036,
      "d": 324.17599166664877,
      "v": 114
    },
    {
      "midi": 58,
      "hit": false,
      "t": 205714.39200000034,
      "d": 818.681741666689,
      "v": 114
    },
    {
      "midi": 63,
      "hit": false,
      "t": 205714.39200000034,
      "d": 851.6487916666956,
      "v": 114
    },
    {
      "midi": 68,
      "hit": false,
      "t": 205714.39200000034,
      "d": 851.6487916666956,
      "v": 114
    },
    {
      "midi": 44,
      "hit": false,
      "t": 205714.39200000034,
      "d": 862.6378083333548,
      "v": 114
    },
    {
      "midi": 59,
      "hit": false,
      "t": 205714.39200000034,
      "d": 967.033466666704,
      "v": 114
    },
    {
      "midi": 34,
      "hit": false,
      "t": 205714.39200000142,
      "d": 274.7254166666826,
      "v": 40
    },
    {
      "midi": 59,
      "hit": false,
      "t": 205714.39200000142,
      "d": 274.7254166666826,
      "v": 34
    },
    {
      "midi": 63,
      "hit": false,
      "t": 205714.39200000142,
      "d": 274.7254166666826,
      "v": 49
    },
    {
      "midi": 68,
      "hit": false,
      "t": 205741.8645416681,
      "d": 247.2528750000056,
      "v": 42
    },
    {
      "midi": 70,
      "hit": false,
      "t": 205747.35905000035,
      "d": 851.6487916666956,
      "v": 114
    },
    {
      "midi": 44,
      "hit": false,
      "t": 206044.06250000143,
      "d": 945.0554333333566,
      "v": 40
    },
    {
      "midi": 59,
      "hit": false,
      "t": 206044.06250000143,
      "d": 945.0554333333566,
      "v": 34
    },
    {
      "midi": 63,
      "hit": false,
      "t": 206044.06250000143,
      "d": 945.0554333333566,
      "v": 49
    },
    {
      "midi": 68,
      "hit": false,
      "t": 206071.5350416681,
      "d": 917.5828916666796,
      "v": 42
    },
    {
      "midi": 44,
      "hit": false,
      "t": 206703.4035000004,
      "d": 324.1759916666779,
      "v": 114
    },
    {
      "midi": 63,
      "hit": false,
      "t": 206703.4035000004,
      "d": 758.2421500000055,
      "v": 114
    },
    {
      "midi": 59,
      "hit": false,
      "t": 206703.4035000004,
      "d": 774.7256749999942,
      "v": 114
    },
    {
      "midi": 67,
      "hit": false,
      "t": 206703.4035000004,
      "d": 774.7256749999942,
      "v": 114
    },
    {
      "midi": 56,
      "hit": false,
      "t": 206703.4035000004,
      "d": 1758.242666666687,
      "v": 114
    },
    {
      "midi": 71,
      "hit": false,
      "t": 206736.3705500004,
      "d": 560.4398499999952,
      "v": 114
    },
    {
      "midi": 44,
      "hit": false,
      "t": 207033.0740000004,
      "d": 1274.725933333335,
      "v": 114
    },
    {
      "midi": 44,
      "hit": false,
      "t": 207038.56850833478,
      "d": 1280.2204416666646,
      "v": 53
    },
    {
      "midi": 59,
      "hit": false,
      "t": 207357.2499916681,
      "d": 961.5389583333454,
      "v": 46
    },
    {
      "midi": 70,
      "hit": false,
      "t": 207362.7445000004,
      "d": 483.5167333333229,
      "v": 114
    },
    {
      "midi": 68,
      "hit": false,
      "t": 207692.4150000004,
      "d": 456.04419166667503,
      "v": 114
    },
    {
      "midi": 63,
      "hit": false,
      "t": 207692.41500000143,
      "d": 626.3739500000083,
      "v": 43
    },
    {
      "midi": 68,
      "hit": false,
      "t": 207697.90950833476,
      "d": 620.8794416666788,
      "v": 50
    },
    {
      "midi": 63,
      "hit": false,
      "t": 208022.0855000004,
      "d": 2137.3637416666897,
      "v": 114
    },
    {
      "midi": 59,
      "hit": false,
      "t": 208022.0855000004,
      "d": 2153.8472666666785,
      "v": 114
    },
    {
      "midi": 44,
      "hit": false,
      "t": 208351.7560000004,
      "d": 967.0334666666749,
      "v": 114
    },
    {
      "midi": 54,
      "hit": false,
      "t": 208351.7560000004,
      "d": 2730.7706416666624,
      "v": 114
    },
    {
      "midi": 44,
      "hit": false,
      "t": 209340.76750000042,
      "d": 324.1759916666779,
      "v": 114
    },
    {
      "midi": 54,
      "hit": false,
      "t": 209357.25102500146,
      "d": 302.19795833333046,
      "v": 39
    },
    {
      "midi": 44,
      "hit": false,
      "t": 209670.43800000043,
      "d": 1258.2424083333171,
      "v": 114
    },
    {
      "midi": 56,
      "hit": false,
      "t": 209692.4160333348,
      "d": 285.71443333334173,
      "v": 43
    },
    {
      "midi": 59,
      "hit": false,
      "t": 210011.09751666815,
      "d": 395.6045999999915,
      "v": 48
    },
    {
      "midi": 66,
      "hit": false,
      "t": 210329.77900000042,
      "d": 318.6814833333483,
      "v": 114
    },
    {
      "midi": 63,
      "hit": false,
      "t": 210346.26252500148,
      "d": 395.6045999999915,
      "v": 53
    },
    {
      "midi": 68,
      "hit": false,
      "t": 210494.61425000042,
      "d": 285.71443333334173,
      "v": 114
    },
    {
      "midi": 70,
      "hit": false,
      "t": 210659.44950000042,
      "d": 324.17599166664877,
      "v": 114
    },
    {
      "midi": 56,
      "hit": false,
      "t": 210664.9440083348,
      "d": 274.7254166666826,
      "v": 57
    },
    {
      "midi": 44,
      "hit": false,
      "t": 210989.1200000004,
      "d": 818.68174166666,
      "v": 114
    },
    {
      "midi": 63,
      "hit": false,
      "t": 210989.1200000004,
      "d": 818.68174166666,
      "v": 114
    },
    {
      "midi": 68,
      "hit": false,
      "t": 210989.1200000004,
      "d": 851.6487916666665,
      "v": 114
    },
    {
      "midi": 58,
      "hit": false,
      "t": 210989.1200000004,
      "d": 879.1213333333435,
      "v": 114
    },
    {
      "midi": 59,
      "hit": false,
      "t": 210989.1200000004,
      "d": 967.0334666666749,
      "v": 114
    },
    {
      "midi": 34,
      "hit": false,
      "t": 210989.12000000148,
      "d": 274.7254166666826,
      "v": 40
    },
    {
      "midi": 59,
      "hit": false,
      "t": 210989.12000000148,
      "d": 274.7254166666826,
      "v": 34
    },
    {
      "midi": 63,
      "hit": false,
      "t": 210989.12000000148,
      "d": 274.7254166666826,
      "v": 49
    },
    {
      "midi": 68,
      "hit": false,
      "t": 211016.59254166816,
      "d": 247.2528750000056,
      "v": 42
    },
    {
      "midi": 70,
      "hit": false,
      "t": 211022.0870500004,
      "d": 774.7256749999942,
      "v": 114
    },
    {
      "midi": 44,
      "hit": false,
      "t": 211318.7905000015,
      "d": 945.0554333333566,
      "v": 40
    },
    {
      "midi": 59,
      "hit": false,
      "t": 211318.7905000015,
      "d": 945.0554333333566,
      "v": 34
    },
    {
      "midi": 63,
      "hit": false,
      "t": 211318.7905000015,
      "d": 945.0554333333566,
      "v": 49
    },
    {
      "midi": 68,
      "hit": false,
      "t": 211346.26304166816,
      "d": 917.5828916666796,
      "v": 42
    },
    {
      "midi": 67,
      "hit": false,
      "t": 211978.13150000043,
      "d": 967.0334666666749,
      "v": 114
    },
    {
      "midi": 63,
      "hit": false,
      "t": 211978.13150000043,
      "d": 1060.440108333336,
      "v": 114
    },
    {
      "midi": 59,
      "hit": false,
      "t": 211978.13150000043,
      "d": 1093.4071583333425,
      "v": 114
    },
    {
      "midi": 44,
      "hit": false,
      "t": 211978.13150000043,
      "d": 1730.77012500001,
      "v": 114
    },
    {
      "midi": 56,
      "hit": false,
      "t": 211978.13150000043,
      "d": 1758.242666666687,
      "v": 114
    },
    {
      "midi": 71,
      "hit": false,
      "t": 212016.59305833376,
      "d": 967.0334666666749,
      "v": 114
    },
    {
      "midi": 44,
      "hit": false,
      "t": 212307.8020000015,
      "d": 1285.7149500000232,
      "v": 29
    },
    {
      "midi": 59,
      "hit": false,
      "t": 212307.8020000015,
      "d": 1285.7149500000232,
      "v": 46
    },
    {
      "midi": 63,
      "hit": false,
      "t": 212329.78003333486,
      "d": 615.3849333333201,
      "v": 36
    },
    {
      "midi": 68,
      "hit": false,
      "t": 212329.78003333486,
      "d": 807.6927250000008,
      "v": 58
    },
    {
      "midi": 66,
      "hit": false,
      "t": 212967.14300000045,
      "d": 318.6814833333192,
      "v": 114
    },
    {
      "midi": 68,
      "hit": false,
      "t": 213131.97825000042,
      "d": 274.7254166666826,
      "v": 114
    },
    {
      "midi": 70,
      "hit": false,
      "t": 213296.81350000043,
      "d": 324.1759916666779,
      "v": 114
    },
    {
      "midi": 52,
      "hit": false,
      "t": 213626.48400000043,
      "d": 862.6378083333548,
      "v": 114
    },
    {
      "midi": 61,
      "hit": false,
      "t": 213626.48400000043,
      "d": 879.1213333333435,
      "v": 114
    },
    {
      "midi": 66,
      "hit": false,
      "t": 213626.48400000043,
      "d": 879.1213333333435,
      "v": 114
    },
    {
      "midi": 40,
      "hit": false,
      "t": 213626.48400000043,
      "d": 923.0774000000092,
      "v": 114
    },
    {
      "midi": 40,
      "hit": false,
      "t": 213626.48400000154,
      "d": 274.7254166666826,
      "v": 40
    },
    {
      "midi": 58,
      "hit": false,
      "t": 213626.48400000154,
      "d": 274.7254166666826,
      "v": 34
    },
    {
      "midi": 61,
      "hit": false,
      "t": 213626.48400000154,
      "d": 274.7254166666826,
      "v": 49
    },
    {
      "midi": 66,
      "hit": false,
      "t": 213653.95654166822,
      "d": 247.2528750000056,
      "v": 42
    },
    {
      "midi": 70,
      "hit": false,
      "t": 213659.45105000044,
      "d": 851.6487916666665,
      "v": 114
    },
    {
      "midi": 49,
      "hit": false,
      "t": 213956.15450000155,
      "d": 945.0554333333566,
      "v": 40
    },
    {
      "midi": 56,
      "hit": false,
      "t": 213956.15450000155,
      "d": 945.0554333333566,
      "v": 34
    },
    {
      "midi": 61,
      "hit": false,
      "t": 213956.15450000155,
      "d": 945.0554333333566,
      "v": 49
    },
    {
      "midi": 65,
      "hit": false,
      "t": 213983.62704166822,
      "d": 917.5828916666796,
      "v": 42
    },
    {
      "midi": 61,
      "hit": false,
      "t": 214615.49550000046,
      "d": 967.0334666666749,
      "v": 114
    },
    {
      "midi": 65,
      "hit": false,
      "t": 214615.49550000046,
      "d": 967.0334666666749,
      "v": 114
    },
    {
      "midi": 68,
      "hit": false,
      "t": 214615.49550000046,
      "d": 967.0334666666749,
      "v": 114
    },
    {
      "midi": 49,
      "hit": false,
      "t": 214615.49550000046,
      "d": 1681.3195500000147,
      "v": 114
    },
    {
      "midi": 37,
      "hit": false,
      "t": 214615.49550000046,
      "d": 1730.77012500001,
      "v": 114
    },
    {
      "midi": 71,
      "hit": false,
      "t": 214653.9570583338,
      "d": 1076.9236333333538,
      "v": 114
    },
    {
      "midi": 53,
      "hit": false,
      "t": 215285.82551666824,
      "d": 395.6045999999915,
      "v": 44
    },
    {
      "midi": 61,
      "hit": false,
      "t": 215604.50700000048,
      "d": 258.24189166666474,
      "v": 114
    },
    {
      "midi": 56,
      "hit": false,
      "t": 215620.99052500157,
      "d": 395.6045999999915,
      "v": 49
    },
    {
      "midi": 63,
      "hit": false,
      "t": 215769.34225000048,
      "d": 258.24189166666474,
      "v": 114
    },
    {
      "midi": 66,
      "hit": false,
      "t": 215934.1775000005,
      "d": 324.17599166664877,
      "v": 114
    },
    {
      "midi": 61,
      "hit": false,
      "t": 215939.6720083349,
      "d": 274.7254166666826,
      "v": 53
    },
    {
      "midi": 42,
      "hit": false,
      "t": 216263.84800000046,
      "d": 532.9673083333473,
      "v": 114
    },
    {
      "midi": 56,
      "hit": false,
      "t": 216263.84800000046,
      "d": 851.6487916666665,
      "v": 114
    },
    {
      "midi": 65,
      "hit": false,
      "t": 216263.84800000046,
      "d": 851.6487916666665,
      "v": 114
    },
    {
      "midi": 61,
      "hit": false,
      "t": 216263.84800000046,
      "d": 862.6378083333257,
      "v": 114
    },
    {
      "midi": 54,
      "hit": false,
      "t": 216263.84800000157,
      "d": 274.7254166666826,
      "v": 40
    },
    {
      "midi": 56,
      "hit": false,
      "t": 216263.84800000157,
      "d": 274.7254166666826,
      "v": 34
    },
    {
      "midi": 61,
      "hit": false,
      "t": 216263.84800000157,
      "d": 274.7254166666826,
      "v": 49
    },
    {
      "midi": 65,
      "hit": false,
      "t": 216291.32054166825,
      "d": 247.2528750000056,
      "v": 42
    },
    {
      "midi": 68,
      "hit": false,
      "t": 216296.81505000047,
      "d": 818.68174166666,
      "v": 114
    },
    {
      "midi": 49,
      "hit": false,
      "t": 216593.51850000047,
      "d": 516.4837833333295,
      "v": 114
    },
    {
      "midi": 42,
      "hit": false,
      "t": 216593.51850000158,
      "d": 945.0554333333566,
      "v": 40
    },
    {
      "midi": 58,
      "hit": false,
      "t": 216593.51850000158,
      "d": 945.0554333333566,
      "v": 34
    },
    {
      "midi": 61,
      "hit": false,
      "t": 216593.51850000158,
      "d": 945.0554333333566,
      "v": 49
    },
    {
      "midi": 66,
      "hit": false,
      "t": 216620.99104166825,
      "d": 917.5828916666796,
      "v": 42
    },
    {
      "midi": 54,
      "hit": false,
      "t": 216923.18900000048,
      "d": 412.0881249999802,
      "v": 114
    },
    {
      "midi": 58,
      "hit": false,
      "t": 217252.85950000046,
      "d": 648.3519833333266,
      "v": 114
    },
    {
      "midi": 61,
      "hit": false,
      "t": 217252.85950000046,
      "d": 648.3519833333266,
      "v": 114
    },
    {
      "midi": 66,
      "hit": false,
      "t": 217252.85950000046,
      "d": 785.7146916666534,
      "v": 114
    },
    {
      "midi": 42,
      "hit": false,
      "t": 217252.85950000046,
      "d": 1862.6383250000072,
      "v": 114
    },
    {
      "midi": 70,
      "hit": false,
      "t": 217285.82655000046,
      "d": 714.2860833333107,
      "v": 114
    },
    {
      "midi": 42,
      "hit": false,
      "t": 217582.5300000016,
      "d": 1285.7149500000232,
      "v": 29
    },
    {
      "midi": 58,
      "hit": false,
      "t": 217582.5300000016,
      "d": 1285.7149500000232,
      "v": 46
    },
    {
      "midi": 61,
      "hit": false,
      "t": 217604.50803333495,
      "d": 615.3849333333201,
      "v": 36
    },
    {
      "midi": 66,
      "hit": false,
      "t": 217604.50803333495,
      "d": 807.6927250000008,
      "v": 58
    },
    {
      "midi": 61,
      "hit": false,
      "t": 217912.20050000044,
      "d": 472.52771666666376,
      "v": 114
    },
    {
      "midi": 63,
      "hit": false,
      "t": 218241.87100000045,
      "d": 439.5606666666572,
      "v": 114
    },
    {
      "midi": 66,
      "hit": false,
      "t": 218571.54150000043,
      "d": 472.52771666669287,
      "v": 114
    },
    {
      "midi": 39,
      "hit": false,
      "t": 218901.21200000044,
      "d": 516.4837833333586,
      "v": 114
    },
    {
      "midi": 56,
      "hit": false,
      "t": 218901.21200000044,
      "d": 835.1652666666778,
      "v": 114
    },
    {
      "midi": 65,
      "hit": false,
      "t": 218901.21200000044,
      "d": 835.1652666666778,
      "v": 114
    },
    {
      "midi": 61,
      "hit": false,
      "t": 218901.21200000044,
      "d": 851.6487916666665,
      "v": 114
    },
    {
      "midi": 51,
      "hit": false,
      "t": 218901.21200000163,
      "d": 274.7254166666826,
      "v": 40
    },
    {
      "midi": 56,
      "hit": false,
      "t": 218901.21200000163,
      "d": 274.7254166666826,
      "v": 34
    },
    {
      "midi": 61,
      "hit": false,
      "t": 218901.21200000163,
      "d": 274.7254166666826,
      "v": 49
    },
    {
      "midi": 65,
      "hit": false,
      "t": 218928.6845416683,
      "d": 247.2528750000056,
      "v": 42
    },
    {
      "midi": 68,
      "hit": false,
      "t": 218934.17905000044,
      "d": 818.68174166666,
      "v": 114
    },
    {
      "midi": 46,
      "hit": false,
      "t": 219230.88250000047,
      "d": 456.04419166664593,
      "v": 114
    },
    {
      "midi": 39,
      "hit": false,
      "t": 219230.88250000164,
      "d": 945.0554333333566,
      "v": 40
    },
    {
      "midi": 51,
      "hit": false,
      "t": 219230.88250000164,
      "d": 945.0554333333566,
      "v": 34
    },
    {
      "midi": 54,
      "hit": false,
      "t": 219230.88250000164,
      "d": 945.0554333333566,
      "v": 49
    },
    {
      "midi": 58,
      "hit": false,
      "t": 219258.3550416683,
      "d": 917.5828916666796,
      "v": 42
    },
    {
      "midi": 61,
      "hit": false,
      "t": 219263.84955000164,
      "d": 912.0883833333501,
      "v": 55
    },
    {
      "midi": 51,
      "hit": false,
      "t": 219560.55300000045,
      "d": 439.5606666666572,
      "v": 114
    },
    {
      "midi": 58,
      "hit": false,
      "t": 219890.22350000043,
      "d": 967.0334666666749,
      "v": 114
    },
    {
      "midi": 66,
      "hit": false,
      "t": 219890.22350000043,
      "d": 967.0334666666749,
      "v": 114
    },
    {
      "midi": 61,
      "hit": false,
      "t": 219890.22350000043,
      "d": 1076.9236333333538,
      "v": 114
    },
    {
      "midi": 39,
      "hit": false,
      "t": 219890.22350000043,
      "d": 1802.1987333333527,
      "v": 114
    },
    {
      "midi": 70,
      "hit": false,
      "t": 219928.68505833377,
      "d": 1060.440108333365,
      "v": 114
    },
    {
      "midi": 39,
      "hit": false,
      "t": 220219.89400000166,
      "d": 1285.7149500000523,
      "v": 29
    },
    {
      "midi": 51,
      "hit": false,
      "t": 220219.89400000166,
      "d": 1285.7149500000523,
      "v": 46
    },
    {
      "midi": 54,
      "hit": false,
      "t": 220241.872033335,
      "d": 615.3849333333492,
      "v": 36
    },
    {
      "midi": 58,
      "hit": false,
      "t": 220241.872033335,
      "d": 807.6927250000299,
      "v": 58
    },
    {
      "midi": 61,
      "hit": false,
      "t": 220269.34457500168,
      "d": 868.1323166666843,
      "v": 75
    },
    {
      "midi": 66,
      "hit": false,
      "t": 220879.23500000045,
      "d": 274.7254166666826,
      "v": 114
    },
    {
      "midi": 68,
      "hit": false,
      "t": 221044.07025000046,
      "d": 258.24189166666474,
      "v": 114
    },
    {
      "midi": 70,
      "hit": false,
      "t": 221208.90550000046,
      "d": 324.17599166664877,
      "v": 114
    },
    {
      "midi": 58,
      "hit": false,
      "t": 221538.57600000044,
      "d": 741.7586250000168,
      "v": 114
    },
    {
      "midi": 68,
      "hit": false,
      "t": 221538.57600000044,
      "d": 818.681741666689,
      "v": 114
    },
    {
      "midi": 63,
      "hit": false,
      "t": 221538.57600000044,
      "d": 835.1652666666778,
      "v": 114
    },
    {
      "midi": 44,
      "hit": false,
      "t": 221538.57600000044,
      "d": 967.0334666666749,
      "v": 114
    },
    {
      "midi": 59,
      "hit": false,
      "t": 221538.57600000044,
      "d": 967.0334666666749,
      "v": 114
    },
    {
      "midi": 34,
      "hit": false,
      "t": 221538.57600000172,
      "d": 274.7254166666826,
      "v": 40
    },
    {
      "midi": 59,
      "hit": false,
      "t": 221538.57600000172,
      "d": 274.7254166666826,
      "v": 34
    },
    {
      "midi": 63,
      "hit": false,
      "t": 221538.57600000172,
      "d": 274.7254166666826,
      "v": 49
    },
    {
      "midi": 68,
      "hit": false,
      "t": 221566.0485416684,
      "d": 247.2528750000056,
      "v": 42
    },
    {
      "midi": 70,
      "hit": false,
      "t": 221571.54305000044,
      "d": 758.2421500000055,
      "v": 114
    },
    {
      "midi": 44,
      "hit": false,
      "t": 221868.24650000173,
      "d": 945.0554333333566,
      "v": 40
    },
    {
      "midi": 59,
      "hit": false,
      "t": 221868.24650000173,
      "d": 945.0554333333566,
      "v": 34
    },
    {
      "midi": 63,
      "hit": false,
      "t": 221868.24650000173,
      "d": 945.0554333333566,
      "v": 49
    },
    {
      "midi": 68,
      "hit": false,
      "t": 221895.7190416684,
      "d": 917.5828916666796,
      "v": 42
    },
    {
      "midi": 44,
      "hit": false,
      "t": 222527.58750000046,
      "d": 324.1759916666779,
      "v": 114
    },
    {
      "midi": 59,
      "hit": false,
      "t": 222527.58750000046,
      "d": 774.7256750000233,
      "v": 114
    },
    {
      "midi": 67,
      "hit": false,
      "t": 222527.58750000046,
      "d": 774.7256750000233,
      "v": 114
    },
    {
      "midi": 63,
      "hit": false,
      "t": 222527.58750000046,
      "d": 785.7146916666825,
      "v": 114
    },
    {
      "midi": 56,
      "hit": false,
      "t": 222527.58750000046,
      "d": 1791.2097166667227,
      "v": 114
    },
    {
      "midi": 71,
      "hit": false,
      "t": 222560.55455000047,
      "d": 560.4398499999952,
      "v": 114
    },
    {
      "midi": 44,
      "hit": false,
      "t": 222857.25800000047,
      "d": 1241.7588833333866,
      "v": 114
    },
    {
      "midi": 44,
      "hit": false,
      "t": 222857.25800000175,
      "d": 1285.7149500000232,
      "v": 29
    },
    {
      "midi": 59,
      "hit": false,
      "t": 222857.25800000175,
      "d": 1285.7149500000232,
      "v": 46
    },
    {
      "midi": 63,
      "hit": false,
      "t": 222879.2360333351,
      "d": 615.3849333333201,
      "v": 36
    },
    {
      "midi": 68,
      "hit": false,
      "t": 222879.2360333351,
      "d": 807.6927250000008,
      "v": 58
    },
    {
      "midi": 70,
      "hit": false,
      "t": 223186.92850000047,
      "d": 483.516733333352,
      "v": 114
    },
    {
      "midi": 68,
      "hit": false,
      "t": 223516.59900000048,
      "d": 379.12107500003185,
      "v": 114
    },
    {
      "midi": 59,
      "hit": false,
      "t": 223846.2695000005,
      "d": 2120.880216666701,
      "v": 114
    },
    {
      "midi": 63,
      "hit": false,
      "t": 223873.74204166717,
      "d": 2109.8912000000128,
      "v": 114
    },
    {
      "midi": 44,
      "hit": false,
      "t": 224175.94000000053,
      "d": 774.7256749999942,
      "v": 114
    },
    {
      "midi": 54,
      "hit": false,
      "t": 224175.94000000053,
      "d": 851.6487916666665,
      "v": 114
    },
    {
      "midi": 44,
      "hit": false,
      "t": 225164.95150000052,
      "d": 1560.4403666666476,
      "v": 114
    },
    {
      "midi": 54,
      "hit": false,
      "t": 225181.4350250018,
      "d": 302.19795833333046,
      "v": 39
    },
    {
      "midi": 56,
      "hit": false,
      "t": 225516.60003333513,
      "d": 285.71443333334173,
      "v": 43
    },
    {
      "midi": 59,
      "hit": false,
      "t": 225835.28151666847,
      "d": 395.6045999999915,
      "v": 48
    },
    {
      "midi": 66,
      "hit": false,
      "t": 226153.9630000005,
      "d": 274.7254166666826,
      "v": 114
    },
    {
      "midi": 63,
      "hit": false,
      "t": 226170.4465250018,
      "d": 395.6045999999915,
      "v": 53
    },
    {
      "midi": 68,
      "hit": false,
      "t": 226318.79825000052,
      "d": 225.27484166665818,
      "v": 114
    },
    {
      "midi": 70,
      "hit": false,
      "t": 226483.63350000052,
      "d": 324.17599166664877,
      "v": 114
    },
    {
      "midi": 56,
      "hit": false,
      "t": 226489.12800833513,
      "d": 274.7254166666826,
      "v": 57
    },
    {
      "midi": 44,
      "hit": false,
      "t": 226813.3040000005,
      "d": 835.1652666666778,
      "v": 114
    },
    {
      "midi": 58,
      "hit": false,
      "t": 226813.3040000005,
      "d": 835.1652666666778,
      "v": 114
    },
    {
      "midi": 63,
      "hit": false,
      "t": 226813.3040000005,
      "d": 851.6487916666665,
      "v": 114
    },
    {
      "midi": 68,
      "hit": false,
      "t": 226813.3040000005,
      "d": 862.6378083333257,
      "v": 114
    },
    {
      "midi": 59,
      "hit": false,
      "t": 226813.3040000005,
      "d": 967.0334666666458,
      "v": 114
    },
    {
      "midi": 34,
      "hit": false,
      "t": 226813.3040000018,
      "d": 274.7254166666826,
      "v": 40
    },
    {
      "midi": 59,
      "hit": false,
      "t": 226813.3040000018,
      "d": 274.7254166666826,
      "v": 34
    },
    {
      "midi": 63,
      "hit": false,
      "t": 226813.3040000018,
      "d": 274.7254166666826,
      "v": 49
    },
    {
      "midi": 68,
      "hit": false,
      "t": 226840.77654166849,
      "d": 247.2528750000056,
      "v": 42
    },
    {
      "midi": 70,
      "hit": false,
      "t": 226846.2710500005,
      "d": 835.1652666666487,
      "v": 114
    },
    {
      "midi": 44,
      "hit": false,
      "t": 227142.97450000182,
      "d": 945.0554333333566,
      "v": 40
    },
    {
      "midi": 59,
      "hit": false,
      "t": 227142.97450000182,
      "d": 945.0554333333566,
      "v": 34
    },
    {
      "midi": 63,
      "hit": false,
      "t": 227142.97450000182,
      "d": 945.0554333333566,
      "v": 49
    },
    {
      "midi": 68,
      "hit": false,
      "t": 227170.4470416685,
      "d": 917.5828916666796,
      "v": 42
    },
    {
      "midi": 67,
      "hit": false,
      "t": 227802.3155000005,
      "d": 967.0334666666749,
      "v": 114
    },
    {
      "midi": 63,
      "hit": false,
      "t": 227802.3155000005,
      "d": 1076.9236333333538,
      "v": 114
    },
    {
      "midi": 56,
      "hit": false,
      "t": 227802.3155000005,
      "d": 1741.7591416666692,
      "v": 114
    },
    {
      "midi": 59,
      "hit": false,
      "t": 227802.3155000005,
      "d": 1758.242666666658,
      "v": 114
    },
    {
      "midi": 44,
      "hit": false,
      "t": 227802.3155000005,
      "d": 1791.2097166666645,
      "v": 114
    },
    {
      "midi": 71,
      "hit": false,
      "t": 227835.2825500005,
      "d": 967.0334666666749,
      "v": 114
    },
    {
      "midi": 44,
      "hit": false,
      "t": 228131.98600000184,
      "d": 1285.7149500000232,
      "v": 29
    },
    {
      "midi": 59,
      "hit": false,
      "t": 228131.98600000184,
      "d": 1285.7149500000232,
      "v": 46
    },
    {
      "midi": 63,
      "hit": false,
      "t": 228153.96403333519,
      "d": 615.3849333333201,
      "v": 36
    },
    {
      "midi": 68,
      "hit": false,
      "t": 228153.96403333519,
      "d": 807.6927250000008,
      "v": 58
    },
    {
      "midi": 66,
      "hit": false,
      "t": 228791.3270000005,
      "d": 285.71443333334173,
      "v": 114
    },
    {
      "midi": 68,
      "hit": false,
      "t": 228956.16225000052,
      "d": 258.24189166666474,
      "v": 114
    },
    {
      "midi": 70,
      "hit": false,
      "t": 229120.99750000052,
      "d": 324.17599166664877,
      "v": 114
    },
    {
      "midi": 61,
      "hit": false,
      "t": 229450.6680000005,
      "d": 802.1982166666421,
      "v": 114
    },
    {
      "midi": 66,
      "hit": false,
      "t": 229450.6680000005,
      "d": 835.1652666666196,
      "v": 114
    },
    {
      "midi": 40,
      "hit": false,
      "t": 229450.6680000005,
      "d": 851.6487916666083,
      "v": 114
    },
    {
      "midi": 52,
      "hit": false,
      "t": 229450.6680000005,
      "d": 895.604858333274,
      "v": 114
    },
    {
      "midi": 40,
      "hit": false,
      "t": 229450.66800000187,
      "d": 274.7254166666826,
      "v": 40
    },
    {
      "midi": 58,
      "hit": false,
      "t": 229450.66800000187,
      "d": 274.7254166666826,
      "v": 34
    },
    {
      "midi": 61,
      "hit": false,
      "t": 229450.66800000187,
      "d": 274.7254166666826,
      "v": 49
    },
    {
      "midi": 66,
      "hit": false,
      "t": 229478.14054166854,
      "d": 247.2528750000056,
      "v": 42
    },
    {
      "midi": 70,
      "hit": false,
      "t": 229483.6350500005,
      "d": 785.7146916666243,
      "v": 114
    },
    {
      "midi": 49,
      "hit": false,
      "t": 229780.33850000188,
      "d": 945.0554333333566,
      "v": 40
    },
    {
      "midi": 56,
      "hit": false,
      "t": 229780.33850000188,
      "d": 945.0554333333566,
      "v": 34
    },
    {
      "midi": 61,
      "hit": false,
      "t": 229780.33850000188,
      "d": 945.0554333333566,
      "v": 49
    },
    {
      "midi": 65,
      "hit": false,
      "t": 229807.81104166855,
      "d": 917.5828916666796,
      "v": 42
    },
    {
      "midi": 61,
      "hit": false,
      "t": 230439.67950000043,
      "d": 967.0334666666749,
      "v": 114
    },
    {
      "midi": 65,
      "hit": false,
      "t": 230439.67950000043,
      "d": 1032.967566666688,
      "v": 114
    },
    {
      "midi": 68,
      "hit": false,
      "t": 230439.67950000043,
      "d": 1076.9236333333538,
      "v": 114
    },
    {
      "midi": 49,
      "hit": false,
      "t": 230439.67950000043,
      "d": 1653.8470083333377,
      "v": 114
    },
    {
      "midi": 37,
      "hit": false,
      "t": 230439.67950000043,
      "d": 1681.3195500000147,
      "v": 114
    },
    {
      "midi": 71,
      "hit": false,
      "t": 230472.64655000044,
      "d": 1060.440108333336,
      "v": 114
    },
    {
      "midi": 61,
      "hit": false,
      "t": 231110.00951666856,
      "d": 395.6045999999915,
      "v": 44
    },
    {
      "midi": 61,
      "hit": false,
      "t": 231428.69100000046,
      "d": 258.24189166663564,
      "v": 114
    },
    {
      "midi": 56,
      "hit": false,
      "t": 231445.1745250019,
      "d": 395.6045999999915,
      "v": 49
    },
    {
      "midi": 63,
      "hit": false,
      "t": 231593.52625000043,
      "d": 241.758366666676,
      "v": 114
    },
    {
      "midi": 66,
      "hit": false,
      "t": 231758.36150000044,
      "d": 362.637550000014,
      "v": 114
    },
    {
      "midi": 65,
      "hit": false,
      "t": 231763.85600833522,
      "d": 274.7254166666826,
      "v": 53
    },
    {
      "midi": 42,
      "hit": false,
      "t": 232088.03200000044,
      "d": 532.9673083333473,
      "v": 114
    },
    {
      "midi": 56,
      "hit": false,
      "t": 232088.03200000044,
      "d": 851.6487916666665,
      "v": 114
    },
    {
      "midi": 65,
      "hit": false,
      "t": 232088.03200000044,
      "d": 851.6487916666665,
      "v": 114
    },
    {
      "midi": 61,
      "hit": false,
      "t": 232088.03200000044,
      "d": 862.6378083333257,
      "v": 114
    },
    {
      "midi": 54,
      "hit": false,
      "t": 232088.0320000019,
      "d": 274.7254166666826,
      "v": 40
    },
    {
      "midi": 56,
      "hit": false,
      "t": 232088.0320000019,
      "d": 274.7254166666826,
      "v": 34
    },
    {
      "midi": 61,
      "hit": false,
      "t": 232088.0320000019,
      "d": 274.7254166666826,
      "v": 49
    },
    {
      "midi": 65,
      "hit": false,
      "t": 232115.50454166858,
      "d": 247.2528750000056,
      "v": 42
    },
    {
      "midi": 68,
      "hit": false,
      "t": 232120.99905000045,
      "d": 818.68174166666,
      "v": 114
    },
    {
      "midi": 49,
      "hit": false,
      "t": 232417.70250000045,
      "d": 516.4837833333295,
      "v": 114
    },
    {
      "midi": 42,
      "hit": false,
      "t": 232417.7025000019,
      "d": 945.0554333333566,
      "v": 40
    },
    {
      "midi": 58,
      "hit": false,
      "t": 232417.7025000019,
      "d": 945.0554333333566,
      "v": 34
    },
    {
      "midi": 61,
      "hit": false,
      "t": 232417.7025000019,
      "d": 945.0554333333566,
      "v": 49
    },
    {
      "midi": 66,
      "hit": false,
      "t": 232445.17504166858,
      "d": 917.5828916666796,
      "v": 42
    },
    {
      "midi": 54,
      "hit": false,
      "t": 232747.37300000046,
      "d": 412.0881249999802,
      "v": 114
    },
    {
      "midi": 58,
      "hit": false,
      "t": 233077.04350000044,
      "d": 648.3519833333266,
      "v": 114
    },
    {
      "midi": 61,
      "hit": false,
      "t": 233077.04350000044,
      "d": 648.3519833333266,
      "v": 114
    },
    {
      "midi": 66,
      "hit": false,
      "t": 233077.04350000044,
      "d": 785.7146916666534,
      "v": 114
    },
    {
      "midi": 42,
      "hit": false,
      "t": 233077.04350000044,
      "d": 1862.6383250000072,
      "v": 114
    },
    {
      "midi": 70,
      "hit": false,
      "t": 233110.01055000044,
      "d": 714.2860833333107,
      "v": 114
    },
    {
      "midi": 42,
      "hit": false,
      "t": 233406.71400000193,
      "d": 1285.7149500000232,
      "v": 29
    },
    {
      "midi": 58,
      "hit": false,
      "t": 233406.71400000193,
      "d": 1285.7149500000232,
      "v": 46
    },
    {
      "midi": 61,
      "hit": false,
      "t": 233428.69203333528,
      "d": 615.3849333333201,
      "v": 36
    },
    {
      "midi": 66,
      "hit": false,
      "t": 233428.69203333528,
      "d": 807.6927250000008,
      "v": 58
    },
    {
      "midi": 61,
      "hit": false,
      "t": 233736.38450000042,
      "d": 472.52771666666376,
      "v": 114
    },
    {
      "midi": 63,
      "hit": false,
      "t": 234066.05500000043,
      "d": 439.5606666666572,
      "v": 114
    },
    {
      "midi": 66,
      "hit": false,
      "t": 234395.7255000004,
      "d": 472.52771666669287,
      "v": 114
    },
    {
      "midi": 39,
      "hit": false,
      "t": 234725.39600000042,
      "d": 516.4837833333586,
      "v": 113
    },
    {
      "midi": 56,
      "hit": false,
      "t": 234725.39600000042,
      "d": 835.1652666666778,
      "v": 113
    },
    {
      "midi": 65,
      "hit": false,
      "t": 234725.39600000042,
      "d": 835.1652666666778,
      "v": 113
    },
    {
      "midi": 61,
      "hit": false,
      "t": 234725.39600000042,
      "d": 851.6487916666665,
      "v": 113
    },
    {
      "midi": 51,
      "hit": false,
      "t": 234725.39600000196,
      "d": 274.7254166666826,
      "v": 40
    },
    {
      "midi": 56,
      "hit": false,
      "t": 234725.39600000196,
      "d": 274.7254166666826,
      "v": 34
    },
    {
      "midi": 61,
      "hit": false,
      "t": 234725.39600000196,
      "d": 274.7254166666826,
      "v": 49
    },
    {
      "midi": 65,
      "hit": false,
      "t": 234752.86854166863,
      "d": 247.2528750000056,
      "v": 42
    },
    {
      "midi": 68,
      "hit": false,
      "t": 234758.36305000042,
      "d": 818.68174166666,
      "v": 113
    },
    {
      "midi": 46,
      "hit": false,
      "t": 235055.06650000045,
      "d": 456.04419166664593,
      "v": 112
    },
    {
      "midi": 39,
      "hit": false,
      "t": 235055.06650000197,
      "d": 945.0554333333566,
      "v": 40
    },
    {
      "midi": 51,
      "hit": false,
      "t": 235055.06650000197,
      "d": 945.0554333333566,
      "v": 34
    },
    {
      "midi": 54,
      "hit": false,
      "t": 235055.06650000197,
      "d": 945.0554333333566,
      "v": 49
    },
    {
      "midi": 58,
      "hit": false,
      "t": 235082.53904166864,
      "d": 917.5828916666796,
      "v": 42
    },
    {
      "midi": 61,
      "hit": false,
      "t": 235088.03355000197,
      "d": 912.0883833333501,
      "v": 55
    },
    {
      "midi": 51,
      "hit": false,
      "t": 235384.73700000043,
      "d": 439.5606666666572,
      "v": 110
    },
    {
      "midi": 58,
      "hit": false,
      "t": 235714.4075000004,
      "d": 967.0334666666749,
      "v": 108
    },
    {
      "midi": 66,
      "hit": false,
      "t": 235714.4075000004,
      "d": 967.0334666666749,
      "v": 108
    },
    {
      "midi": 61,
      "hit": false,
      "t": 235714.4075000004,
      "d": 1076.9236333333538,
      "v": 108
    },
    {
      "midi": 39,
      "hit": false,
      "t": 235714.4075000004,
      "d": 1802.1987333333527,
      "v": 108
    },
    {
      "midi": 70,
      "hit": false,
      "t": 235752.86905833374,
      "d": 1060.440108333365,
      "v": 108
    },
    {
      "midi": 54,
      "hit": false,
      "t": 236384.73751666865,
      "d": 395.6045999999915,
      "v": 44
    },
    {
      "midi": 66,
      "hit": false,
      "t": 236703.41900000043,
      "d": 274.7254166666826,
      "v": 106
    },
    {
      "midi": 58,
      "hit": false,
      "t": 236719.902525002,
      "d": 395.6045999999915,
      "v": 49
    },
    {
      "midi": 68,
      "hit": false,
      "t": 236868.25425000043,
      "d": 258.24189166666474,
      "v": 104
    },
    {
      "midi": 70,
      "hit": false,
      "t": 237033.08950000044,
      "d": 324.17599166664877,
      "v": 102
    },
    {
      "midi": 51,
      "hit": false,
      "t": 237038.5840083353,
      "d": 274.7254166666826,
      "v": 53
    },
    {
      "midi": 58,
      "hit": false,
      "t": 237362.76000000042,
      "d": 741.7586250000168,
      "v": 100
    },
    {
      "midi": 68,
      "hit": false,
      "t": 237362.76000000042,
      "d": 818.681741666689,
      "v": 100
    },
    {
      "midi": 63,
      "hit": false,
      "t": 237362.76000000042,
      "d": 835.1652666666778,
      "v": 100
    },
    {
      "midi": 44,
      "hit": false,
      "t": 237362.76000000042,
      "d": 967.0334666666749,
      "v": 100
    },
    {
      "midi": 59,
      "hit": false,
      "t": 237362.76000000042,
      "d": 967.0334666666749,
      "v": 100
    },
    {
      "midi": 34,
      "hit": false,
      "t": 237362.760000002,
      "d": 274.7254166666826,
      "v": 40
    },
    {
      "midi": 59,
      "hit": false,
      "t": 237362.760000002,
      "d": 274.7254166666826,
      "v": 34
    },
    {
      "midi": 63,
      "hit": false,
      "t": 237362.760000002,
      "d": 274.7254166666826,
      "v": 49
    },
    {
      "midi": 68,
      "hit": false,
      "t": 237390.23254166867,
      "d": 247.2528750000056,
      "v": 42
    },
    {
      "midi": 70,
      "hit": false,
      "t": 237395.72705000042,
      "d": 758.2421500000055,
      "v": 100
    },
    {
      "midi": 44,
      "hit": false,
      "t": 237692.430500002,
      "d": 945.0554333333566,
      "v": 40
    },
    {
      "midi": 59,
      "hit": false,
      "t": 237692.430500002,
      "d": 945.0554333333566,
      "v": 34
    },
    {
      "midi": 63,
      "hit": false,
      "t": 237692.430500002,
      "d": 945.0554333333566,
      "v": 49
    },
    {
      "midi": 68,
      "hit": false,
      "t": 237719.90304166867,
      "d": 917.5828916666796,
      "v": 42
    },
    {
      "midi": 44,
      "hit": false,
      "t": 238351.77150000044,
      "d": 324.1759916666779,
      "v": 98
    },
    {
      "midi": 59,
      "hit": false,
      "t": 238351.77150000044,
      "d": 774.7256750000233,
      "v": 98
    },
    {
      "midi": 67,
      "hit": false,
      "t": 238351.77150000044,
      "d": 774.7256750000233,
      "v": 98
    },
    {
      "midi": 63,
      "hit": false,
      "t": 238351.77150000044,
      "d": 785.7146916666825,
      "v": 98
    },
    {
      "midi": 56,
      "hit": false,
      "t": 238351.77150000044,
      "d": 1791.2097166667227,
      "v": 98
    },
    {
      "midi": 71,
      "hit": false,
      "t": 238384.73855000045,
      "d": 560.4398499999952,
      "v": 98
    },
    {
      "midi": 44,
      "hit": false,
      "t": 238681.44200000045,
      "d": 1241.7588833333866,
      "v": 96
    },
    {
      "midi": 44,
      "hit": false,
      "t": 238681.44200000202,
      "d": 1285.7149500000523,
      "v": 31
    },
    {
      "midi": 59,
      "hit": false,
      "t": 238714.40905000202,
      "d": 197.8023000000103,
      "v": 35
    },
    {
      "midi": 63,
      "hit": false,
      "t": 238725.39806666868,
      "d": 329.67050000000745,
      "v": 52
    },
    {
      "midi": 68,
      "hit": false,
      "t": 238747.37610000203,
      "d": 401.09910833335016,
      "v": 47
    },
    {
      "midi": 70,
      "hit": false,
      "t": 239011.11250000045,
      "d": 483.516733333352,
      "v": 94
    },
    {
      "midi": 59,
      "hit": false,
      "t": 239038.5850416687,
      "d": 928.5719083333679,
      "v": 44
    },
    {
      "midi": 68,
      "hit": false,
      "t": 239340.78300000046,
      "d": 379.12107500003185,
      "v": 92
    },
    {
      "midi": 63,
      "hit": false,
      "t": 239362.76103333538,
      "d": 582.4178833333426,
      "v": 52
    },
    {
      "midi": 59,
      "hit": false,
      "t": 239670.45350000047,
      "d": 2120.880216666701,
      "v": 90
    },
    {
      "midi": 63,
      "hit": false,
      "t": 239697.92604166715,
      "d": 2109.8912000000128,
      "v": 90
    },
    {
      "midi": 68,
      "hit": false,
      "t": 239703.42055000205,
      "d": 263.7364000000234,
      "v": 61
    },
    {
      "midi": 44,
      "hit": false,
      "t": 240000.1240000005,
      "d": 774.7256749999942,
      "v": 88
    },
    {
      "midi": 54,
      "hit": false,
      "t": 240000.1240000005,
      "d": 851.6487916666665,
      "v": 88
    },
    {
      "midi": 59,
      "hit": false,
      "t": 240000.12400000208,
      "d": 329.67050000000745,
      "v": 55
    },
    {
      "midi": 66,
      "hit": false,
      "t": 240000.12400000208,
      "d": 373.62656666667317,
      "v": 50
    },
    {
      "midi": 44,
      "hit": false,
      "t": 240000.12400000208,
      "d": 2093.407675000053,
      "v": 34
    },
    {
      "midi": 56,
      "hit": false,
      "t": 240011.11301666874,
      "d": 197.8023000000103,
      "v": 38
    },
    {
      "midi": 68,
      "hit": false,
      "t": 240357.26704166876,
      "d": 945.0554333333566,
      "v": 47
    },
    {
      "midi": 59,
      "hit": false,
      "t": 240681.44303333544,
      "d": 582.4178833333426,
      "v": 55
    },
    {
      "midi": 44,
      "hit": false,
      "t": 240989.1355000005,
      "d": 1560.4403666666476,
      "v": 86
    },
    {
      "midi": 63,
      "hit": false,
      "t": 241022.1025500021,
      "d": 346.1540250000253,
      "v": 64
    },
    {
      "midi": 66,
      "hit": false,
      "t": 241978.1470000005,
      "d": 274.7254166666826,
      "v": 84
    },
    {
      "midi": 68,
      "hit": false,
      "t": 242142.9822500005,
      "d": 225.27484166665818,
      "v": 82
    },
    {
      "midi": 70,
      "hit": false,
      "t": 242307.8175000005,
      "d": 324.17599166664877,
      "v": 80
    },
    {
      "midi": 44,
      "hit": false,
      "t": 242637.48800000048,
      "d": 835.1652666666778,
      "v": 78
    },
    {
      "midi": 58,
      "hit": false,
      "t": 242637.48800000048,
      "d": 835.1652666666778,
      "v": 78
    },
    {
      "midi": 63,
      "hit": false,
      "t": 242637.48800000048,
      "d": 851.6487916666665,
      "v": 78
    },
    {
      "midi": 68,
      "hit": false,
      "t": 242637.48800000048,
      "d": 862.6378083333257,
      "v": 78
    },
    {
      "midi": 59,
      "hit": false,
      "t": 242637.48800000048,
      "d": 967.0334666666458,
      "v": 78
    },
    {
      "midi": 34,
      "hit": false,
      "t": 242637.48800000214,
      "d": 274.7254166666826,
      "v": 40
    },
    {
      "midi": 59,
      "hit": false,
      "t": 242637.48800000214,
      "d": 274.7254166666826,
      "v": 34
    },
    {
      "midi": 63,
      "hit": false,
      "t": 242637.48800000214,
      "d": 274.7254166666826,
      "v": 49
    },
    {
      "midi": 68,
      "hit": false,
      "t": 242664.9605416688,
      "d": 247.2528750000056,
      "v": 42
    },
    {
      "midi": 70,
      "hit": false,
      "t": 242670.45505000048,
      "d": 835.1652666666487,
      "v": 78
    },
    {
      "midi": 44,
      "hit": false,
      "t": 242967.15850000214,
      "d": 945.0554333333566,
      "v": 40
    },
    {
      "midi": 59,
      "hit": false,
      "t": 242967.15850000214,
      "d": 945.0554333333566,
      "v": 34
    },
    {
      "midi": 63,
      "hit": false,
      "t": 242967.15850000214,
      "d": 945.0554333333566,
      "v": 49
    },
    {
      "midi": 68,
      "hit": false,
      "t": 242994.63104166882,
      "d": 917.5828916666796,
      "v": 42
    },
    {
      "midi": 67,
      "hit": false,
      "t": 243626.49950000047,
      "d": 967.0334666666749,
      "v": 76
    },
    {
      "midi": 63,
      "hit": false,
      "t": 243626.49950000047,
      "d": 1076.9236333333538,
      "v": 76
    },
    {
      "midi": 56,
      "hit": false,
      "t": 243626.49950000047,
      "d": 1741.7591416666692,
      "v": 76
    },
    {
      "midi": 59,
      "hit": false,
      "t": 243626.49950000047,
      "d": 1758.242666666658,
      "v": 76
    },
    {
      "midi": 44,
      "hit": false,
      "t": 243626.49950000047,
      "d": 1791.2097166666645,
      "v": 76
    },
    {
      "midi": 71,
      "hit": false,
      "t": 243659.46655000048,
      "d": 967.0334666666749,
      "v": 76
    },
    {
      "midi": 44,
      "hit": false,
      "t": 243956.17000000217,
      "d": 1285.7149499999941,
      "v": 35
    },
    {
      "midi": 59,
      "hit": false,
      "t": 243956.17000000217,
      "d": 1285.7149499999941,
      "v": 34
    },
    {
      "midi": 63,
      "hit": false,
      "t": 243956.17000000217,
      "d": 1285.7149499999941,
      "v": 56
    },
    {
      "midi": 68,
      "hit": false,
      "t": 244033.09311666884,
      "d": 1208.7918333333218,
      "v": 49
    },
    {
      "midi": 66,
      "hit": false,
      "t": 244615.5110000005,
      "d": 285.71443333334173,
      "v": 74
    },
    {
      "midi": 68,
      "hit": false,
      "t": 244780.3462500005,
      "d": 258.24189166666474,
      "v": 72
    },
    {
      "midi": 70,
      "hit": false,
      "t": 244945.1815000005,
      "d": 324.17599166664877,
      "v": 70
    },
    {
      "midi": 61,
      "hit": false,
      "t": 245274.85200000048,
      "d": 802.1982166666421,
      "v": 68
    },
    {
      "midi": 66,
      "hit": false,
      "t": 245274.85200000048,
      "d": 835.1652666666196,
      "v": 67
    },
    {
      "midi": 40,
      "hit": false,
      "t": 245274.85200000048,
      "d": 851.6487916666083,
      "v": 68
    },
    {
      "midi": 52,
      "hit": false,
      "t": 245274.85200000048,
      "d": 895.604858333274,
      "v": 68
    },
    {
      "midi": 40,
      "hit": false,
      "t": 245274.85200000217,
      "d": 274.7254166666826,
      "v": 40
    },
    {
      "midi": 58,
      "hit": false,
      "t": 245274.85200000217,
      "d": 274.7254166666826,
      "v": 34
    },
    {
      "midi": 61,
      "hit": false,
      "t": 245274.85200000217,
      "d": 274.7254166666826,
      "v": 49
    },
    {
      "midi": 66,
      "hit": false,
      "t": 245302.32454166884,
      "d": 247.2528750000056,
      "v": 42
    },
    {
      "midi": 70,
      "hit": false,
      "t": 245307.8190500005,
      "d": 785.7146916666243,
      "v": 68
    },
    {
      "midi": 49,
      "hit": false,
      "t": 245604.52250000217,
      "d": 945.0554333333566,
      "v": 40
    },
    {
      "midi": 56,
      "hit": false,
      "t": 245604.52250000217,
      "d": 945.0554333333566,
      "v": 34
    },
    {
      "midi": 61,
      "hit": false,
      "t": 245604.52250000217,
      "d": 945.0554333333566,
      "v": 49
    },
    {
      "midi": 65,
      "hit": false,
      "t": 245631.99504166885,
      "d": 917.5828916666796,
      "v": 42
    },
    {
      "midi": 61,
      "hit": false,
      "t": 246263.8635000004,
      "d": 967.0334666666749,
      "v": 66
    },
    {
      "midi": 65,
      "hit": false,
      "t": 246263.8635000004,
      "d": 1032.967566666688,
      "v": 66
    },
    {
      "midi": 68,
      "hit": false,
      "t": 246263.8635000004,
      "d": 1076.9236333333538,
      "v": 66
    },
    {
      "midi": 49,
      "hit": false,
      "t": 246263.8635000004,
      "d": 1758.242666666687,
      "v": 66
    },
    {
      "midi": 37,
      "hit": false,
      "t": 246263.8635000004,
      "d": 1835.1657833333302,
      "v": 66
    },
    {
      "midi": 71,
      "hit": false,
      "t": 246296.83055000042,
      "d": 1060.440108333336,
      "v": 66
    },
    {
      "midi": 61,
      "hit": false,
      "t": 246593.5340000022,
      "d": 329.67050000000745,
      "v": 55
    },
    {
      "midi": 65,
      "hit": false,
      "t": 246593.5340000022,
      "d": 373.62656666667317,
      "v": 50
    },
    {
      "midi": 37,
      "hit": false,
      "t": 246593.5340000022,
      "d": 1285.7149500000523,
      "v": 34
    },
    {
      "midi": 49,
      "hit": false,
      "t": 246593.5340000022,
      "d": 1285.7149500000523,
      "v": 42
    },
    {
      "midi": 56,
      "hit": false,
      "t": 246604.52301666886,
      "d": 197.8023000000103,
      "v": 38
    },
    {
      "midi": 68,
      "hit": false,
      "t": 246950.67704166888,
      "d": 928.5719083333679,
      "v": 47
    },
    {
      "midi": 61,
      "hit": false,
      "t": 247252.87500000044,
      "d": 258.24189166663564,
      "v": 64
    },
    {
      "midi": 61,
      "hit": false,
      "t": 247274.85303333556,
      "d": 582.4178833333426,
      "v": 55
    },
    {
      "midi": 63,
      "hit": false,
      "t": 247417.7102500004,
      "d": 241.758366666676,
      "v": 62
    },
    {
      "midi": 66,
      "hit": false,
      "t": 247582.54550000041,
      "d": 456.04419166667503,
      "v": 60
    },
    {
      "midi": 65,
      "hit": false,
      "t": 247615.51255000223,
      "d": 263.7364000000234,
      "v": 64
    },
    {
      "midi": 49,
      "hit": false,
      "t": 247912.21600000226,
      "d": 2445.056208333379,
      "v": 27
    },
    {
      "midi": 56,
      "hit": false,
      "t": 247912.21600000226,
      "d": 2445.056208333379,
      "v": 44
    },
    {
      "midi": 61,
      "hit": false,
      "t": 247934.1940333356,
      "d": 615.3849333333492,
      "v": 34
    },
    {
      "midi": 68,
      "hit": false,
      "t": 247961.66657500228,
      "d": 868.1323166666843,
      "v": 73
    },
    {
      "midi": 61,
      "hit": false,
      "t": 249549.57948333563,
      "d": 840.6597750000074,
      "v": 48
    },
    {
      "midi": 68,
      "hit": false,
      "t": 249884.74449166897,
      "d": 390.1100916666619,
      "v": 48
    },
    {
      "midi": 73,
      "hit": false,
      "t": 250230.89851666897,
      "d": 269.230908333353,
      "v": 59
    },
    {
      "midi": 49,
      "hit": false,
      "t": 250555.07450833565,
      "d": 1961.5394749999978,
      "v": 63
    },
    {
      "midi": 61,
      "hit": false,
      "t": 250610.01959166897,
      "d": 1906.594391666673,
      "v": 63
    },
    {
      "midi": 65,
      "hit": false,
      "t": 250648.4811500023,
      "d": 1890.1108666666842,
      "v": 63
    },
    {
      "midi": 73,
      "hit": false,
      "t": 250664.9646750023,
      "d": 1890.1108666666842,
      "v": 63
    },
    {
      "midi": 77,
      "hit": false,
      "t": 250697.9317250023,
      "d": 1802.1987333333527,
      "v": 63
    },
    {
      "midi": 80,
      "hit": false,
      "t": 250719.90975833565,
      "d": 1890.110866666655,
      "v": 63
    }
  ]
}