{
  "jsonPath": "Unknown/Unknown/Damage/after-the-love-has-gone-love-to-infinity-radio-mix.json",
  "path": "Unknown\\Unknown\\Damage\\After The Love Has Gone (Love To Infinity Radio Mix).mid",
  "name": "After The Love Has Gone (Love To Infinity Radio Mix)",
  "difficulty": "Advanced",
  "bpm": 60.99997255001235,
  "notes": [
    {
      "midi": 41,
      "hit": false,
      "t": 7394.231385416666,
      "d": 1769.2309166666655,
      "v": 61
    },
    {
      "midi": 48,
      "hit": false,
      "t": 7394.231385416666,
      "d": 1769.2309166666655,
      "v": 61
    },
    {
      "midi": 53,
      "hit": false,
      "t": 7394.231385416666,
      "d": 1769.2309166666655,
      "v": 61
    },
    {
      "midi": 57,
      "hit": false,
      "t": 7394.231385416666,
      "d": 1769.2309166666655,
      "v": 76
    },
    {
      "midi": 60,
      "hit": false,
      "t": 7394.231385416666,
      "d": 1769.2309166666655,
      "v": 73
    },
    {
      "midi": 81,
      "hit": false,
      "t": 7394.231385416666,
      "d": 1817.307843749999,
      "v": 45
    },
    {
      "midi": 77,
      "hit": false,
      "t": 7394.231385416666,
      "d": 2586.538677083332,
      "v": 45
    },
    {
      "midi": 84,
      "hit": false,
      "t": 7394.231385416666,
      "d": 2586.538677083332,
      "v": 45
    },
    {
      "midi": 77,
      "hit": false,
      "t": 8538.462249999999,
      "d": 442.30772916666683,
      "v": 126
    },
    {
      "midi": 76,
      "hit": false,
      "t": 8769.231499999998,
      "d": 394.2308020833334,
      "v": 94
    },
    {
      "midi": 77,
      "hit": false,
      "t": 8990.385364583331,
      "d": 336.5384895833322,
      "v": 124
    },
    {
      "midi": 53,
      "hit": false,
      "t": 9221.15461458333,
      "d": 913.4616145833315,
      "v": 61
    },
    {
      "midi": 45,
      "hit": false,
      "t": 9221.15461458333,
      "d": 1884.6155416666625,
      "v": 61
    },
    {
      "midi": 79,
      "hit": false,
      "t": 9230.769999999999,
      "d": 778.846218749999,
      "v": 45
    },
    {
      "midi": 72,
      "hit": false,
      "t": 9240.385385416665,
      "d": 413.4615729166653,
      "v": 94
    },
    {
      "midi": 60,
      "hit": false,
      "t": 9240.385385416665,
      "d": 1836.538614583329,
      "v": 84
    },
    {
      "midi": 57,
      "hit": false,
      "t": 9240.385385416665,
      "d": 1865.3847708333287,
      "v": 94
    },
    {
      "midi": 72,
      "hit": false,
      "t": 9682.69311458333,
      "d": 221.15386458333342,
      "v": 101
    },
    {
      "midi": 69,
      "hit": false,
      "t": 9913.462364583329,
      "d": 663.4615937499984,
      "v": 95
    },
    {
      "midi": 53,
      "hit": false,
      "t": 10163.462385416662,
      "d": 221.15386458333342,
      "v": 51
    },
    {
      "midi": 53,
      "hit": false,
      "t": 10394.231635416661,
      "d": 682.6923645833322,
      "v": 50
    },
    {
      "midi": 65,
      "hit": false,
      "t": 10605.770114583327,
      "d": 500.0000416666662,
      "v": 88
    },
    {
      "midi": 74,
      "hit": false,
      "t": 10836.539364583326,
      "d": 2086.538635416664,
      "v": 112
    },
    {
      "midi": 77,
      "hit": false,
      "t": 10932.693218749997,
      "d": 1836.5386145833327,
      "v": 52
    },
    {
      "midi": 74,
      "hit": false,
      "t": 11000.000916666664,
      "d": 1721.153989583332,
      "v": 60
    },
    {
      "midi": 70,
      "hit": false,
      "t": 11076.923999999997,
      "d": 1471.153968749999,
      "v": 60
    },
    {
      "midi": 53,
      "hit": false,
      "t": 11086.53938541666,
      "d": 105.76923958333464,
      "v": 70
    },
    {
      "midi": 46,
      "hit": false,
      "t": 11086.53938541666,
      "d": 1836.5386145833309,
      "v": 75
    },
    {
      "midi": 60,
      "hit": false,
      "t": 11086.53938541666,
      "d": 1836.5386145833309,
      "v": 81
    },
    {
      "midi": 60,
      "hit": false,
      "t": 11086.539385416663,
      "d": 682.692364583334,
      "v": 76
    },
    {
      "midi": 53,
      "hit": false,
      "t": 11317.30863541666,
      "d": 1605.7693645833297,
      "v": 66
    },
    {
      "midi": 57,
      "hit": false,
      "t": 11548.07788541666,
      "d": 1375.0001145833303,
      "v": 80
    },
    {
      "midi": 58,
      "hit": false,
      "t": 11778.84713541666,
      "d": 1134.615479166665,
      "v": 72
    },
    {
      "midi": 58,
      "hit": false,
      "t": 11778.847135416663,
      "d": 1259.6154895833333,
      "v": 69
    },
    {
      "midi": 72,
      "hit": false,
      "t": 12221.154864583326,
      "d": 451.9231145833328,
      "v": 91
    },
    {
      "midi": 70,
      "hit": false,
      "t": 12451.924114583326,
      "d": 471.1538854166647,
      "v": 96
    },
    {
      "midi": 72,
      "hit": false,
      "t": 12682.693364583325,
      "d": 673.0769791666644,
      "v": 102
    },
    {
      "midi": 48,
      "hit": false,
      "t": 12913.462614583324,
      "d": 1826.9232291666667,
      "v": 67
    },
    {
      "midi": 74,
      "hit": false,
      "t": 12913.46261458333,
      "d": 692.3077499999999,
      "v": 56
    },
    {
      "midi": 77,
      "hit": false,
      "t": 12913.46261458333,
      "d": 701.9231354166659,
      "v": 58
    },
    {
      "midi": 55,
      "hit": false,
      "t": 12923.07799999999,
      "d": 1817.3078437500008,
      "v": 74
    },
    {
      "midi": 58,
      "hit": false,
      "t": 12923.07799999999,
      "d": 1817.3078437500008,
      "v": 68
    },
    {
      "midi": 62,
      "hit": false,
      "t": 12923.07799999999,
      "d": 1817.3078437500008,
      "v": 68
    },
    {
      "midi": 70,
      "hit": false,
      "t": 12923.077999999996,
      "d": 711.5385208333337,
      "v": 46
    },
    {
      "midi": 65,
      "hit": false,
      "t": 12932.693385416656,
      "d": 567.3077395833334,
      "v": 66
    },
    {
      "midi": 74,
      "hit": false,
      "t": 13375.001114583323,
      "d": 211.53847916666564,
      "v": 94
    },
    {
      "midi": 65,
      "hit": false,
      "t": 13605.770364583323,
      "d": 1134.6154791666686,
      "v": 96
    },
    {
      "midi": 60,
      "hit": false,
      "t": 13846.154999999997,
      "d": 144.2307812500003,
      "v": 49
    },
    {
      "midi": 69,
      "hit": false,
      "t": 13846.154999999997,
      "d": 144.2307812500003,
      "v": 49
    },
    {
      "midi": 62,
      "hit": false,
      "t": 13923.07808333333,
      "d": 144.2307812500003,
      "v": 51
    },
    {
      "midi": 70,
      "hit": false,
      "t": 13923.07808333333,
      "d": 144.2307812500003,
      "v": 51
    },
    {
      "midi": 64,
      "hit": false,
      "t": 14000.001166666663,
      "d": 144.2307812500003,
      "v": 52
    },
    {
      "midi": 72,
      "hit": false,
      "t": 14000.001166666663,
      "d": 144.2307812500003,
      "v": 52
    },
    {
      "midi": 70,
      "hit": false,
      "t": 14067.308864583323,
      "d": 673.076979166668,
      "v": 106
    },
    {
      "midi": 65,
      "hit": false,
      "t": 14076.924249999996,
      "d": 144.2307812500003,
      "v": 53
    },
    {
      "midi": 74,
      "hit": false,
      "t": 14076.924249999996,
      "d": 144.2307812500003,
      "v": 53
    },
    {
      "midi": 67,
      "hit": false,
      "t": 14153.84733333333,
      "d": 144.2307812500003,
      "v": 55
    },
    {
      "midi": 76,
      "hit": false,
      "t": 14153.84733333333,
      "d": 144.2307812500003,
      "v": 55
    },
    {
      "midi": 69,
      "hit": false,
      "t": 14230.770416666663,
      "d": 144.2307812500003,
      "v": 57
    },
    {
      "midi": 77,
      "hit": false,
      "t": 14230.770416666663,
      "d": 144.2307812500003,
      "v": 57
    },
    {
      "midi": 70,
      "hit": false,
      "t": 14307.693499999996,
      "d": 144.2307812500003,
      "v": 59
    },
    {
      "midi": 79,
      "hit": false,
      "t": 14307.693499999996,
      "d": 144.2307812500003,
      "v": 59
    },
    {
      "midi": 72,
      "hit": false,
      "t": 14384.616583333329,
      "d": 144.2307812500003,
      "v": 62
    },
    {
      "midi": 81,
      "hit": false,
      "t": 14384.616583333329,
      "d": 144.2307812500003,
      "v": 62
    },
    {
      "midi": 74,
      "hit": false,
      "t": 14461.539666666662,
      "d": 144.2307812500003,
      "v": 65
    },
    {
      "midi": 82,
      "hit": false,
      "t": 14461.539666666662,
      "d": 144.2307812500003,
      "v": 65
    },
    {
      "midi": 69,
      "hit": false,
      "t": 14528.847364583324,
      "d": 1326.9231875000005,
      "v": 95
    },
    {
      "midi": 76,
      "hit": false,
      "t": 14538.462749999995,
      "d": 144.2307812500003,
      "v": 68
    },
    {
      "midi": 84,
      "hit": false,
      "t": 14538.462749999995,
      "d": 144.2307812500003,
      "v": 68
    },
    {
      "midi": 77,
      "hit": false,
      "t": 14615.385833333328,
      "d": 144.23078124999847,
      "v": 70
    },
    {
      "midi": 86,
      "hit": false,
      "t": 14615.385833333328,
      "d": 144.23078124999847,
      "v": 70
    },
    {
      "midi": 79,
      "hit": false,
      "t": 14692.308916666661,
      "d": 57.69231249999939,
      "v": 73
    },
    {
      "midi": 88,
      "hit": false,
      "t": 14692.308916666661,
      "d": 57.69231249999939,
      "v": 73
    },
    {
      "midi": 41,
      "hit": false,
      "t": 14759.616614583325,
      "d": 875.0000729166659,
      "v": 73
    },
    {
      "midi": 48,
      "hit": false,
      "t": 14759.616614583325,
      "d": 875.0000729166659,
      "v": 73
    },
    {
      "midi": 53,
      "hit": false,
      "t": 14759.616614583325,
      "d": 875.0000729166659,
      "v": 73
    },
    {
      "midi": 57,
      "hit": false,
      "t": 14759.616614583325,
      "d": 875.0000729166659,
      "v": 73
    },
    {
      "midi": 60,
      "hit": false,
      "t": 14759.616614583325,
      "d": 875.0000729166659,
      "v": 73
    },
    {
      "midi": 81,
      "hit": false,
      "t": 14778.84738541666,
      "d": 1836.5386145833309,
      "v": 84
    },
    {
      "midi": 89,
      "hit": false,
      "t": 14778.84738541666,
      "d": 1836.5386145833309,
      "v": 84
    },
    {
      "midi": 53,
      "hit": false,
      "t": 14788.462770833326,
      "d": 875.0000729166659,
      "v": 71
    },
    {
      "midi": 57,
      "hit": false,
      "t": 14788.462770833326,
      "d": 884.6154583333318,
      "v": 68
    },
    {
      "midi": 43,
      "hit": false,
      "t": 15682.693614583324,
      "d": 894.2308437499996,
      "v": 74
    },
    {
      "midi": 50,
      "hit": false,
      "t": 15682.693614583324,
      "d": 894.2308437499996,
      "v": 74
    },
    {
      "midi": 53,
      "hit": false,
      "t": 15682.693614583324,
      "d": 894.2308437499996,
      "v": 74
    },
    {
      "midi": 55,
      "hit": false,
      "t": 15682.693614583324,
      "d": 894.2308437499996,
      "v": 74
    },
    {
      "midi": 58,
      "hit": false,
      "t": 15682.693614583324,
      "d": 894.2308437499996,
      "v": 74
    },
    {
      "midi": 55,
      "hit": false,
      "t": 15701.924385416658,
      "d": 884.6154583333318,
      "v": 73
    },
    {
      "midi": 58,
      "hit": false,
      "t": 15701.924385416658,
      "d": 884.6154583333318,
      "v": 67
    },
    {
      "midi": 77,
      "hit": false,
      "t": 15923.078249999991,
      "d": 442.30772916666683,
      "v": 127
    },
    {
      "midi": 76,
      "hit": false,
      "t": 16144.232114583325,
      "d": 432.69234374999905,
      "v": 104
    },
    {
      "midi": 77,
      "hit": false,
      "t": 16375.001364583324,
      "d": 2067.3078645833266,
      "v": 127
    },
    {
      "midi": 53,
      "hit": false,
      "t": 16605.770614583325,
      "d": 913.4616145833315,
      "v": 74
    },
    {
      "midi": 57,
      "hit": false,
      "t": 16605.770614583325,
      "d": 1144.230864583329,
      "v": 74
    },
    {
      "midi": 60,
      "hit": false,
      "t": 16605.770614583325,
      "d": 1375.0001145833266,
      "v": 74
    },
    {
      "midi": 45,
      "hit": false,
      "t": 16605.770614583325,
      "d": 1836.5386145833254,
      "v": 74
    },
    {
      "midi": 57,
      "hit": false,
      "t": 16625.001385416657,
      "d": 1769.2309166666673,
      "v": 71
    },
    {
      "midi": 60,
      "hit": false,
      "t": 16625.001385416657,
      "d": 1817.3078437500008,
      "v": 70
    },
    {
      "midi": 53,
      "hit": false,
      "t": 17528.847614583323,
      "d": 913.4616145833279,
      "v": 122
    },
    {
      "midi": 57,
      "hit": false,
      "t": 17759.61686458332,
      "d": 682.6923645833303,
      "v": 122
    },
    {
      "midi": 60,
      "hit": false,
      "t": 17990.386114583318,
      "d": 451.9231145833328,
      "v": 121
    },
    {
      "midi": 62,
      "hit": false,
      "t": 18221.15536458332,
      "d": 2067.3078645833302,
      "v": 119
    },
    {
      "midi": 46,
      "hit": false,
      "t": 18451.924614583317,
      "d": 1855.7693854166646,
      "v": 81
    },
    {
      "midi": 53,
      "hit": false,
      "t": 18451.924614583317,
      "d": 1855.7693854166646,
      "v": 70
    },
    {
      "midi": 57,
      "hit": false,
      "t": 18451.924614583317,
      "d": 1855.7693854166646,
      "v": 71
    },
    {
      "midi": 62,
      "hit": false,
      "t": 18471.15538541666,
      "d": 1788.4616874999992,
      "v": 59
    },
    {
      "midi": 57,
      "hit": false,
      "t": 18471.15538541666,
      "d": 1798.0770729166652,
      "v": 63
    },
    {
      "midi": 69,
      "hit": false,
      "t": 19605.770864583315,
      "d": 682.692364583334,
      "v": 94
    },
    {
      "midi": 70,
      "hit": false,
      "t": 19846.155499999983,
      "d": 461.53849999999875,
      "v": 84
    },
    {
      "midi": 72,
      "hit": false,
      "t": 20076.924749999984,
      "d": 1144.2308645833327,
      "v": 99
    },
    {
      "midi": 58,
      "hit": false,
      "t": 20298.078614583315,
      "d": 894.2308437499996,
      "v": 63
    },
    {
      "midi": 62,
      "hit": false,
      "t": 20298.078614583315,
      "d": 894.2308437499996,
      "v": 63
    },
    {
      "midi": 69,
      "hit": false,
      "t": 20298.078614583315,
      "d": 894.2308437499996,
      "v": 63
    },
    {
      "midi": 43,
      "hit": false,
      "t": 20307.69399999998,
      "d": 884.6154583333337,
      "v": 63
    },
    {
      "midi": 65,
      "hit": false,
      "t": 20307.69399999998,
      "d": 884.6154583333337,
      "v": 63
    },
    {
      "midi": 58,
      "hit": false,
      "t": 20307.693999999992,
      "d": 913.4616145833315,
      "v": 57
    },
    {
      "midi": 62,
      "hit": false,
      "t": 20307.693999999992,
      "d": 913.4616145833315,
      "v": 55
    },
    {
      "midi": 69,
      "hit": false,
      "t": 20307.693999999992,
      "d": 913.4616145833315,
      "v": 55
    },
    {
      "midi": 48,
      "hit": false,
      "t": 21221.155614583316,
      "d": 807.6923749999987,
      "v": 64
    },
    {
      "midi": 58,
      "hit": false,
      "t": 21221.155614583316,
      "d": 807.6923749999987,
      "v": 64
    },
    {
      "midi": 62,
      "hit": false,
      "t": 21221.155614583316,
      "d": 807.6923749999987,
      "v": 64
    },
    {
      "midi": 70,
      "hit": false,
      "t": 21221.155614583316,
      "d": 913.4616145833315,
      "v": 65
    },
    {
      "midi": 65,
      "hit": false,
      "t": 21230.770999999982,
      "d": 798.0769895833328,
      "v": 64
    },
    {
      "midi": 58,
      "hit": false,
      "t": 21250.001770833325,
      "d": 913.4616145833315,
      "v": 57
    },
    {
      "midi": 62,
      "hit": false,
      "t": 21250.001770833325,
      "d": 913.4616145833315,
      "v": 57
    },
    {
      "midi": 69,
      "hit": false,
      "t": 21250.001770833325,
      "d": 913.4616145833315,
      "v": 57
    },
    {
      "midi": 57,
      "hit": false,
      "t": 22144.232614583325,
      "d": 1836.5386145833327,
      "v": 70
    },
    {
      "midi": 60,
      "hit": false,
      "t": 22153.84799999999,
      "d": 1769.2309166666673,
      "v": 64
    },
    {
      "midi": 53,
      "hit": false,
      "t": 22153.84799999999,
      "d": 1836.5386145833327,
      "v": 68
    },
    {
      "midi": 41,
      "hit": false,
      "t": 22163.46338541665,
      "d": 1759.6155312500014,
      "v": 84
    },
    {
      "midi": 53,
      "hit": false,
      "t": 22163.46338541665,
      "d": 1759.6155312500014,
      "v": 84
    },
    {
      "midi": 57,
      "hit": false,
      "t": 22163.46338541665,
      "d": 1759.6155312500014,
      "v": 84
    },
    {
      "midi": 60,
      "hit": false,
      "t": 22163.46338541665,
      "d": 1759.6155312500014,
      "v": 84
    },
    {
      "midi": 65,
      "hit": false,
      "t": 22163.46338541665,
      "d": 1759.6155312500014,
      "v": 84
    },
    {
      "midi": 69,
      "hit": false,
      "t": 22163.46338541665,
      "d": 2269.2309583333335,
      "v": 62
    },
    {
      "midi": 41,
      "hit": false,
      "t": 22163.463385416657,
      "d": 5528.846614583334,
      "v": 66
    },
    {
      "midi": 41,
      "hit": false,
      "t": 23990.386614583316,
      "d": 1836.5386145833327,
      "v": 83
    },
    {
      "midi": 53,
      "hit": false,
      "t": 23990.386614583316,
      "d": 1836.5386145833327,
      "v": 83
    },
    {
      "midi": 65,
      "hit": false,
      "t": 23990.386614583316,
      "d": 1836.5386145833327,
      "v": 83
    },
    {
      "midi": 58,
      "hit": false,
      "t": 23990.386614583316,
      "d": 1846.1539999999986,
      "v": 83
    },
    {
      "midi": 61,
      "hit": false,
      "t": 23990.386614583316,
      "d": 1846.1539999999986,
      "v": 83
    },
    {
      "midi": 63,
      "hit": false,
      "t": 23990.386614583316,
      "d": 1846.1539999999986,
      "v": 83
    },
    {
      "midi": 58,
      "hit": false,
      "t": 23990.386614583324,
      "d": 1836.5386145833327,
      "v": 62
    },
    {
      "midi": 61,
      "hit": false,
      "t": 23990.386614583324,
      "d": 1836.5386145833327,
      "v": 71
    },
    {
      "midi": 63,
      "hit": false,
      "t": 23990.386614583324,
      "d": 1836.5386145833327,
      "v": 65
    },
    {
      "midi": 53,
      "hit": false,
      "t": 24000.00199999999,
      "d": 1721.153989583334,
      "v": 77
    },
    {
      "midi": 41,
      "hit": false,
      "t": 25836.540614583315,
      "d": 1817.3078437500008,
      "v": 86
    },
    {
      "midi": 53,
      "hit": false,
      "t": 25836.540614583315,
      "d": 1817.3078437500008,
      "v": 86
    },
    {
      "midi": 57,
      "hit": false,
      "t": 25836.540614583315,
      "d": 1817.3078437500008,
      "v": 86
    },
    {
      "midi": 60,
      "hit": false,
      "t": 25836.540614583315,
      "d": 1817.3078437500008,
      "v": 86
    },
    {
      "midi": 65,
      "hit": false,
      "t": 25836.540614583315,
      "d": 1817.3078437500008,
      "v": 86
    },
    {
      "midi": 60,
      "hit": false,
      "t": 25855.771385416658,
      "d": 1769.2309166666673,
      "v": 75
    },
    {
      "midi": 53,
      "hit": false,
      "t": 25855.771385416658,
      "d": 1836.5386145833327,
      "v": 76
    },
    {
      "midi": 57,
      "hit": false,
      "t": 25855.771385416658,
      "d": 1836.5386145833327,
      "v": 71
    },
    {
      "midi": 55,
      "hit": false,
      "t": 27682.694614583317,
      "d": 913.4616145833315,
      "v": 95
    },
    {
      "midi": 60,
      "hit": false,
      "t": 27682.694614583317,
      "d": 913.4616145833315,
      "v": 95
    },
    {
      "midi": 45,
      "hit": false,
      "t": 27682.694614583317,
      "d": 1884.6155416666625,
      "v": 95
    },
    {
      "midi": 49,
      "hit": false,
      "t": 27682.694614583317,
      "d": 1884.6155416666625,
      "v": 95
    },
    {
      "midi": 60,
      "hit": false,
      "t": 27682.694614583324,
      "d": 884.6154583333337,
      "v": 86
    },
    {
      "midi": 55,
      "hit": false,
      "t": 27682.694614583324,
      "d": 923.0770000000011,
      "v": 86
    },
    {
      "midi": 45,
      "hit": false,
      "t": 27692.30999999999,
      "d": 1807.6924583333348,
      "v": 80
    },
    {
      "midi": 58,
      "hit": false,
      "t": 28605.771614583315,
      "d": 961.538541666665,
      "v": 96
    },
    {
      "midi": 53,
      "hit": false,
      "t": 28605.771614583326,
      "d": 903.8462291666656,
      "v": 81
    },
    {
      "midi": 58,
      "hit": false,
      "t": 28605.771614583326,
      "d": 903.8462291666656,
      "v": 68
    },
    {
      "midi": 53,
      "hit": false,
      "t": 28615.38699999998,
      "d": 951.923156249999,
      "v": 93
    },
    {
      "midi": 57,
      "hit": false,
      "t": 29528.848614583323,
      "d": 1721.153989583334,
      "v": 78
    },
    {
      "midi": 38,
      "hit": false,
      "t": 29528.848614583323,
      "d": 1836.5386145833327,
      "v": 79
    },
    {
      "midi": 64,
      "hit": false,
      "t": 29548.079385416648,
      "d": 1144.2308645833327,
      "v": 84
    },
    {
      "midi": 65,
      "hit": false,
      "t": 29548.079385416648,
      "d": 1605.7693645833315,
      "v": 84
    },
    {
      "midi": 57,
      "hit": false,
      "t": 29548.079385416648,
      "d": 1836.538614583329,
      "v": 84
    },
    {
      "midi": 50,
      "hit": false,
      "t": 29548.079385416648,
      "d": 1875.0001562499965,
      "v": 84
    },
    {
      "midi": 60,
      "hit": false,
      "t": 29548.079385416648,
      "d": 1875.0001562499965,
      "v": 84
    },
    {
      "midi": 64,
      "hit": false,
      "t": 29557.694770833325,
      "d": 1798.0770729166652,
      "v": 53
    },
    {
      "midi": 65,
      "hit": false,
      "t": 29557.694770833325,
      "d": 1798.0770729166652,
      "v": 53
    },
    {
      "midi": 60,
      "hit": false,
      "t": 29557.694770833325,
      "d": 1836.5386145833327,
      "v": 55
    },
    {
      "midi": 62,
      "hit": false,
      "t": 30240.387135416648,
      "d": 1144.230864583329,
      "v": 103
    },
    {
      "midi": 88,
      "hit": false,
      "t": 30461.54099999999,
      "d": 1163.4616354166683,
      "v": 68
    },
    {
      "midi": 64,
      "hit": false,
      "t": 30701.925635416646,
      "d": 721.1539062499978,
      "v": 101
    },
    {
      "midi": 65,
      "hit": false,
      "t": 31163.464135416645,
      "d": 259.61540624999907,
      "v": 84
    },
    {
      "midi": 53,
      "hit": false,
      "t": 31394.233385416643,
      "d": 182.69232291666776,
      "v": 80
    },
    {
      "midi": 57,
      "hit": false,
      "t": 31394.233385416643,
      "d": 451.9231145833328,
      "v": 87
    },
    {
      "midi": 46,
      "hit": false,
      "t": 31394.233385416643,
      "d": 903.8462291666656,
      "v": 77
    },
    {
      "midi": 62,
      "hit": false,
      "t": 31394.233385416643,
      "d": 1865.3847708333342,
      "v": 86
    },
    {
      "midi": 58,
      "hit": false,
      "t": 31394.233385416657,
      "d": 1759.6155312499977,
      "v": 67
    },
    {
      "midi": 62,
      "hit": false,
      "t": 31394.233385416657,
      "d": 1759.6155312499977,
      "v": 73
    },
    {
      "midi": 53,
      "hit": false,
      "t": 31394.233385416657,
      "d": 1769.2309166666673,
      "v": 70
    },
    {
      "midi": 57,
      "hit": false,
      "t": 31394.233385416657,
      "d": 1778.846302083337,
      "v": 77
    },
    {
      "midi": 46,
      "hit": false,
      "t": 31394.233385416657,
      "d": 1836.53861458334,
      "v": 80
    },
    {
      "midi": 57,
      "hit": false,
      "t": 31855.77188541664,
      "d": 1403.8462708333354,
      "v": 69
    },
    {
      "midi": 46,
      "hit": false,
      "t": 32307.694999999974,
      "d": 923.0770000000011,
      "v": 65
    },
    {
      "midi": 67,
      "hit": false,
      "t": 32778.84888541664,
      "d": 2317.3078854166743,
      "v": 98
    },
    {
      "midi": 60,
      "hit": false,
      "t": 33009.61813541664,
      "d": 1817.307843750008,
      "v": 95
    },
    {
      "midi": 58,
      "hit": false,
      "t": 33221.15661458333,
      "d": 1721.153989583334,
      "v": 67
    },
    {
      "midi": 62,
      "hit": false,
      "t": 33221.15661458333,
      "d": 1721.153989583334,
      "v": 68
    },
    {
      "midi": 39,
      "hit": false,
      "t": 33221.15661458333,
      "d": 1836.5386145833327,
      "v": 78
    },
    {
      "midi": 55,
      "hit": false,
      "t": 33221.15661458333,
      "d": 1836.5386145833327,
      "v": 78
    },
    {
      "midi": 55,
      "hit": false,
      "t": 33230.771999999975,
      "d": 461.5385000000024,
      "v": 78
    },
    {
      "midi": 39,
      "hit": false,
      "t": 33240.387385416645,
      "d": 1855.7693854166719,
      "v": 82
    },
    {
      "midi": 46,
      "hit": false,
      "t": 33240.387385416645,
      "d": 1855.7693854166719,
      "v": 89
    },
    {
      "midi": 55,
      "hit": false,
      "t": 33701.92588541665,
      "d": 1365.384729166668,
      "v": 102
    },
    {
      "midi": 65,
      "hit": false,
      "t": 33932.695135416645,
      "d": 1163.461635416672,
      "v": 110
    },
    {
      "midi": 60,
      "hit": false,
      "t": 34836.54136458332,
      "d": 1201.923177083343,
      "v": 115
    },
    {
      "midi": 48,
      "hit": false,
      "t": 35067.310614583315,
      "d": 971.1539270833455,
      "v": 83
    },
    {
      "midi": 65,
      "hit": false,
      "t": 35067.31061458333,
      "d": 903.8462291666656,
      "v": 73
    },
    {
      "midi": 62,
      "hit": false,
      "t": 35067.31061458333,
      "d": 961.5385416666686,
      "v": 79
    },
    {
      "midi": 36,
      "hit": false,
      "t": 35067.31061458333,
      "d": 1826.9232291666704,
      "v": 79
    },
    {
      "midi": 58,
      "hit": false,
      "t": 35067.31061458333,
      "d": 1836.53861458334,
      "v": 67
    },
    {
      "midi": 53,
      "hit": false,
      "t": 35076.925999999985,
      "d": 182.69232291666412,
      "v": 81
    },
    {
      "midi": 55,
      "hit": false,
      "t": 35076.925999999985,
      "d": 961.5385416666759,
      "v": 90
    },
    {
      "midi": 58,
      "hit": false,
      "t": 35076.925999999985,
      "d": 961.5385416666759,
      "v": 74
    },
    {
      "midi": 53,
      "hit": false,
      "t": 35317.31063541665,
      "d": 221.15386458333523,
      "v": 66
    },
    {
      "midi": 53,
      "hit": false,
      "t": 35548.07988541666,
      "d": 490.3846562500039,
      "v": 62
    },
    {
      "midi": 52,
      "hit": false,
      "t": 35778.849135416654,
      "d": 221.15386458333523,
      "v": 60
    },
    {
      "midi": 36,
      "hit": false,
      "t": 36000.00299999999,
      "d": 855.7693020833394,
      "v": 71
    },
    {
      "midi": 64,
      "hit": false,
      "t": 36000.00299999999,
      "d": 855.7693020833394,
      "v": 106
    },
    {
      "midi": 60,
      "hit": false,
      "t": 36000.003,
      "d": 798.0769895833364,
      "v": 73
    },
    {
      "midi": 52,
      "hit": false,
      "t": 36009.61838541666,
      "d": 38.46154166667111,
      "v": 84
    },
    {
      "midi": 64,
      "hit": false,
      "t": 36009.61838541667,
      "d": 913.4616145833425,
      "v": 69
    },
    {
      "midi": 55,
      "hit": false,
      "t": 36461.5415,
      "d": 394.23080208332976,
      "v": 61
    },
    {
      "midi": 55,
      "hit": false,
      "t": 36913.46461458333,
      "d": 913.4616145833352,
      "v": 88
    },
    {
      "midi": 41,
      "hit": false,
      "t": 36913.46461458333,
      "d": 1826.9232291666704,
      "v": 80
    },
    {
      "midi": 48,
      "hit": false,
      "t": 36913.46461458333,
      "d": 1826.9232291666704,
      "v": 80
    },
    {
      "midi": 57,
      "hit": false,
      "t": 36913.46461458333,
      "d": 1826.9232291666704,
      "v": 88
    },
    {
      "midi": 60,
      "hit": false,
      "t": 36913.46461458333,
      "d": 1826.9232291666704,
      "v": 88
    },
    {
      "midi": 57,
      "hit": false,
      "t": 36913.46461458334,
      "d": 1346.1539583333433,
      "v": 83
    },
    {
      "midi": 55,
      "hit": false,
      "t": 36932.69538541668,
      "d": 923.0769999999975,
      "v": 87
    },
    {
      "midi": 60,
      "hit": false,
      "t": 36932.69538541668,
      "d": 1384.6155000000072,
      "v": 87
    },
    {
      "midi": 41,
      "hit": false,
      "t": 36932.69538541668,
      "d": 3625.000302083332,
      "v": 80
    },
    {
      "midi": 53,
      "hit": false,
      "t": 37836.54161458334,
      "d": 903.8462291666656,
      "v": 70
    },
    {
      "midi": 53,
      "hit": false,
      "t": 37836.541614583344,
      "d": 394.23080208333704,
      "v": 68
    },
    {
      "midi": 41,
      "hit": false,
      "t": 38759.618614583334,
      "d": 1788.4616874999992,
      "v": 92
    },
    {
      "midi": 53,
      "hit": false,
      "t": 38759.618614583334,
      "d": 1788.4616874999992,
      "v": 92
    },
    {
      "midi": 58,
      "hit": false,
      "t": 38759.618614583334,
      "d": 1788.4616874999992,
      "v": 85
    },
    {
      "midi": 61,
      "hit": false,
      "t": 38759.618614583334,
      "d": 1788.4616874999992,
      "v": 85
    },
    {
      "midi": 65,
      "hit": false,
      "t": 38759.618614583334,
      "d": 1788.4616874999992,
      "v": 98
    },
    {
      "midi": 70,
      "hit": false,
      "t": 38759.61861458335,
      "d": 471.1538854166647,
      "v": 72
    },
    {
      "midi": 77,
      "hit": false,
      "t": 38759.61861458335,
      "d": 538.46158333333,
      "v": 94
    },
    {
      "midi": 58,
      "hit": false,
      "t": 38759.61861458335,
      "d": 1413.4616562499941,
      "v": 78
    },
    {
      "midi": 53,
      "hit": false,
      "t": 38759.61861458335,
      "d": 1423.0770416666637,
      "v": 85
    },
    {
      "midi": 61,
      "hit": false,
      "t": 38759.61861458335,
      "d": 1432.6924270833333,
      "v": 78
    },
    {
      "midi": 89,
      "hit": false,
      "t": 39682.69561458335,
      "d": 163.4615520833322,
      "v": 100
    },
    {
      "midi": 82,
      "hit": false,
      "t": 39682.69561458335,
      "d": 201.92309374999604,
      "v": 75
    },
    {
      "midi": 75,
      "hit": false,
      "t": 39913.464864583344,
      "d": 67.30769791666535,
      "v": 79
    },
    {
      "midi": 72,
      "hit": false,
      "t": 40375.00336458335,
      "d": 86.53846874999726,
      "v": 84
    },
    {
      "midi": 79,
      "hit": false,
      "t": 40423.08029166668,
      "d": 1259.6154895833388,
      "v": 79
    },
    {
      "midi": 76,
      "hit": false,
      "t": 40471.15721875001,
      "d": 1221.153947916675,
      "v": 61
    },
    {
      "midi": 74,
      "hit": false,
      "t": 40519.23414583335,
      "d": 1182.6924062500111,
      "v": 74
    },
    {
      "midi": 72,
      "hit": false,
      "t": 40567.31107291668,
      "d": 1134.6154791666777,
      "v": 86
    },
    {
      "midi": 41,
      "hit": false,
      "t": 40605.77261458334,
      "d": 1163.4616354166646,
      "v": 91
    },
    {
      "midi": 48,
      "hit": false,
      "t": 40605.77261458334,
      "d": 1163.4616354166646,
      "v": 80
    },
    {
      "midi": 55,
      "hit": false,
      "t": 40605.77261458334,
      "d": 1163.4616354166646,
      "v": 91
    },
    {
      "midi": 57,
      "hit": false,
      "t": 40605.77261458334,
      "d": 1163.4616354166646,
      "v": 90
    },
    {
      "midi": 60,
      "hit": false,
      "t": 40605.77261458334,
      "d": 1163.4616354166646,
      "v": 92
    },
    {
      "midi": 69,
      "hit": false,
      "t": 40615.38800000001,
      "d": 1125.000093750008,
      "v": 98
    },
    {
      "midi": 41,
      "hit": false,
      "t": 40625.00338541668,
      "d": 1038.4616250000036,
      "v": 84
    },
    {
      "midi": 53,
      "hit": false,
      "t": 40625.00338541668,
      "d": 1076.9231666666747,
      "v": 92
    },
    {
      "midi": 60,
      "hit": false,
      "t": 40625.00338541668,
      "d": 1076.9231666666747,
      "v": 97
    },
    {
      "midi": 31,
      "hit": false,
      "t": 41807.695791666665,
      "d": 336.5384895833413,
      "v": 109
    },
    {
      "midi": 43,
      "hit": false,
      "t": 41817.311177083335,
      "d": 269.23079166666867,
      "v": 109
    },
    {
      "midi": 58,
      "hit": false,
      "t": 41817.311177083335,
      "d": 269.23079166666867,
      "v": 109
    },
    {
      "midi": 53,
      "hit": false,
      "t": 41817.311177083335,
      "d": 278.84617708333826,
      "v": 109
    },
    {
      "midi": 43,
      "hit": false,
      "t": 41826.92656250002,
      "d": 250.00002083333675,
      "v": 85
    },
    {
      "midi": 32,
      "hit": false,
      "t": 42144.23428125001,
      "d": 288.4615625000006,
      "v": 109
    },
    {
      "midi": 59,
      "hit": false,
      "t": 42144.23428125001,
      "d": 288.4615625000006,
      "v": 109
    },
    {
      "midi": 44,
      "hit": false,
      "t": 42144.23428125002,
      "d": 240.38463541666715,
      "v": 78
    },
    {
      "midi": 44,
      "hit": false,
      "t": 42153.849666666676,
      "d": 278.846177083331,
      "v": 109
    },
    {
      "midi": 54,
      "hit": false,
      "t": 42153.849666666676,
      "d": 278.846177083331,
      "v": 109
    },
    {
      "midi": 55,
      "hit": false,
      "t": 42451.92661458335,
      "d": 971.1539270833455,
      "v": 69
    },
    {
      "midi": 60,
      "hit": false,
      "t": 42451.92661458335,
      "d": 1028.8462395833485,
      "v": 76
    },
    {
      "midi": 49,
      "hit": false,
      "t": 42451.92661458335,
      "d": 1519.2308958333524,
      "v": 79
    },
    {
      "midi": 45,
      "hit": false,
      "t": 42451.92661458335,
      "d": 1855.7693854166864,
      "v": 79
    },
    {
      "midi": 55,
      "hit": false,
      "t": 42461.54200000001,
      "d": 932.6923854166744,
      "v": 99
    },
    {
      "midi": 60,
      "hit": false,
      "t": 42461.54200000001,
      "d": 932.6923854166744,
      "v": 99
    },
    {
      "midi": 33,
      "hit": false,
      "t": 42461.54200000001,
      "d": 1875.0001562500038,
      "v": 99
    },
    {
      "midi": 45,
      "hit": false,
      "t": 42461.54200000001,
      "d": 1875.0001562500038,
      "v": 99
    },
    {
      "midi": 65,
      "hit": false,
      "t": 42461.54200000002,
      "d": 913.4616145833352,
      "v": 79
    },
    {
      "midi": 58,
      "hit": false,
      "t": 43375.003614583344,
      "d": 961.5385416666686,
      "v": 93
    },
    {
      "midi": 53,
      "hit": false,
      "t": 43384.61900000001,
      "d": 951.923156249999,
      "v": 94
    },
    {
      "midi": 53,
      "hit": false,
      "t": 43384.61900000003,
      "d": 682.6923645833449,
      "v": 80
    },
    {
      "midi": 58,
      "hit": false,
      "t": 43394.2343854167,
      "d": 548.0769687500069,
      "v": 67
    },
    {
      "midi": 50,
      "hit": false,
      "t": 44298.08061458337,
      "d": 432.6923437500009,
      "v": 66
    },
    {
      "midi": 57,
      "hit": false,
      "t": 44298.08061458337,
      "d": 432.6923437500009,
      "v": 68
    },
    {
      "midi": 60,
      "hit": false,
      "t": 44298.08061458337,
      "d": 442.30772916667047,
      "v": 73
    },
    {
      "midi": 64,
      "hit": false,
      "t": 44298.08061458337,
      "d": 451.92311458334007,
      "v": 70
    },
    {
      "midi": 65,
      "hit": false,
      "t": 44298.08061458337,
      "d": 509.6154270833431,
      "v": 61
    },
    {
      "midi": 38,
      "hit": false,
      "t": 44298.08061458337,
      "d": 1836.5386145833472,
      "v": 82
    },
    {
      "midi": 60,
      "hit": false,
      "t": 44317.31138541668,
      "d": 1057.6923958333355,
      "v": 87
    },
    {
      "midi": 64,
      "hit": false,
      "t": 44317.31138541668,
      "d": 1057.6923958333355,
      "v": 81
    },
    {
      "midi": 65,
      "hit": false,
      "t": 44317.31138541668,
      "d": 1057.6923958333355,
      "v": 76
    },
    {
      "midi": 57,
      "hit": false,
      "t": 44317.31138541668,
      "d": 1836.5386145833327,
      "v": 86
    },
    {
      "midi": 38,
      "hit": false,
      "t": 44317.31138541668,
      "d": 1855.7693854166719,
      "v": 102
    },
    {
      "midi": 50,
      "hit": false,
      "t": 44317.31138541668,
      "d": 1855.7693854166719,
      "v": 90
    },
    {
      "midi": 62,
      "hit": false,
      "t": 45009.61913541668,
      "d": 432.6923437500009,
      "v": 98
    },
    {
      "midi": 64,
      "hit": false,
      "t": 45230.773000000045,
      "d": 596.1538958333404,
      "v": 68
    },
    {
      "midi": 69,
      "hit": false,
      "t": 45240.388385416714,
      "d": 548.0769687499997,
      "v": 68
    },
    {
      "midi": 72,
      "hit": false,
      "t": 45240.388385416714,
      "d": 548.0769687499997,
      "v": 65
    },
    {
      "midi": 65,
      "hit": false,
      "t": 45240.388385416714,
      "d": 557.6923541666692,
      "v": 64
    },
    {
      "midi": 64,
      "hit": false,
      "t": 45471.15763541668,
      "d": 701.9231354166695,
      "v": 91
    },
    {
      "midi": 65,
      "hit": false,
      "t": 45913.465364583346,
      "d": 259.61540625000634,
      "v": 94
    },
    {
      "midi": 62,
      "hit": false,
      "t": 46153.85000000001,
      "d": 1134.6154791666704,
      "v": 98
    },
    {
      "midi": 34,
      "hit": false,
      "t": 46163.46538541668,
      "d": 1826.9232291666704,
      "v": 93
    },
    {
      "midi": 46,
      "hit": false,
      "t": 46163.46538541668,
      "d": 1826.9232291666704,
      "v": 110
    },
    {
      "midi": 57,
      "hit": false,
      "t": 46163.46538541668,
      "d": 1826.9232291666704,
      "v": 87
    },
    {
      "midi": 58,
      "hit": false,
      "t": 46163.46538541672,
      "d": 1375.0001145833303,
      "v": 65
    },
    {
      "midi": 65,
      "hit": false,
      "t": 46163.46538541672,
      "d": 1375.0001145833303,
      "v": 70
    },
    {
      "midi": 57,
      "hit": false,
      "t": 46163.46538541672,
      "d": 1384.6154999999999,
      "v": 70
    },
    {
      "midi": 62,
      "hit": false,
      "t": 46163.46538541672,
      "d": 1384.6154999999999,
      "v": 71
    },
    {
      "midi": 46,
      "hit": false,
      "t": 46163.46538541672,
      "d": 1836.53861458334,
      "v": 82
    },
    {
      "midi": 64,
      "hit": false,
      "t": 46836.54236458335,
      "d": 1153.8462500000023,
      "v": 104
    },
    {
      "midi": 62,
      "hit": false,
      "t": 47298.08086458335,
      "d": 692.3077499999999,
      "v": 95
    },
    {
      "midi": 60,
      "hit": false,
      "t": 47759.619364583355,
      "d": 3711.5387708333437,
      "v": 102
    },
    {
      "midi": 48,
      "hit": false,
      "t": 47990.38861458335,
      "d": 682.6923645833303,
      "v": 67
    },
    {
      "midi": 53,
      "hit": false,
      "t": 47990.38861458335,
      "d": 932.6923854166671,
      "v": 79
    },
    {
      "midi": 55,
      "hit": false,
      "t": 47990.38861458335,
      "d": 932.6923854166671,
      "v": 86
    },
    {
      "midi": 58,
      "hit": false,
      "t": 47990.38861458335,
      "d": 932.6923854166671,
      "v": 67
    },
    {
      "midi": 36,
      "hit": false,
      "t": 47990.38861458335,
      "d": 1625.000135416667,
      "v": 78
    },
    {
      "midi": 58,
      "hit": false,
      "t": 47990.38861458339,
      "d": 1009.6154687500093,
      "v": 73
    },
    {
      "midi": 62,
      "hit": false,
      "t": 47990.38861458339,
      "d": 1009.6154687500093,
      "v": 80
    },
    {
      "midi": 65,
      "hit": false,
      "t": 47990.38861458339,
      "d": 1028.8462395833412,
      "v": 80
    },
    {
      "midi": 36,
      "hit": false,
      "t": 48009.61938541673,
      "d": 3682.692614583335,
      "v": 80
    },
    {
      "midi": 48,
      "hit": false,
      "t": 48682.69636458335,
      "d": 240.38463541666715,
      "v": 67
    },
    {
      "midi": 48,
      "hit": false,
      "t": 48932.69638541669,
      "d": 913.4616145833352,
      "v": 64
    },
    {
      "midi": 53,
      "hit": false,
      "t": 48932.69638541669,
      "d": 971.1539270833382,
      "v": 68
    },
    {
      "midi": 55,
      "hit": false,
      "t": 48932.69638541669,
      "d": 2538.4617500000095,
      "v": 70
    },
    {
      "midi": 58,
      "hit": false,
      "t": 48932.69638541669,
      "d": 2538.4617500000095,
      "v": 52
    },
    {
      "midi": 36,
      "hit": false,
      "t": 49625.00413541669,
      "d": 221.15386458333523,
      "v": 62
    },
    {
      "midi": 36,
      "hit": false,
      "t": 49855.773385416695,
      "d": 1615.3847500000047,
      "v": 98
    },
    {
      "midi": 48,
      "hit": false,
      "t": 49855.773385416695,
      "d": 1615.3847500000047,
      "v": 108
    },
    {
      "midi": 52,
      "hit": false,
      "t": 49855.773385416695,
      "d": 1615.3847500000047,
      "v": 100
    },
    {
      "midi": 60,
      "hit": false,
      "t": 49855.77338541673,
      "d": 1692.3078333333324,
      "v": 84
    },
    {
      "midi": 58,
      "hit": false,
      "t": 49855.77338541673,
      "d": 1711.5386041666643,
      "v": 57
    },
    {
      "midi": 64,
      "hit": false,
      "t": 49855.77338541673,
      "d": 1711.5386041666643,
      "v": 78
    },
    {
      "midi": 67,
      "hit": false,
      "t": 49855.77338541673,
      "d": 1730.7693749999962,
      "v": 66
    },
    {
      "midi": 67,
      "hit": false,
      "t": 50769.23500000003,
      "d": 701.9231354166695,
      "v": 127
    },
    {
      "midi": 46,
      "hit": false,
      "t": 51692.312000000034,
      "d": 1778.8463020833296,
      "v": 89
    },
    {
      "midi": 53,
      "hit": false,
      "t": 51692.312000000034,
      "d": 1778.8463020833296,
      "v": 92
    },
    {
      "midi": 57,
      "hit": false,
      "t": 51692.312000000034,
      "d": 1778.8463020833296,
      "v": 85
    },
    {
      "midi": 58,
      "hit": false,
      "t": 51692.312000000034,
      "d": 1778.8463020833296,
      "v": 85
    },
    {
      "midi": 62,
      "hit": false,
      "t": 51692.312000000034,
      "d": 1778.8463020833296,
      "v": 90
    },
    {
      "midi": 77,
      "hit": false,
      "t": 51711.542770833395,
      "d": 1721.153989583334,
      "v": 75
    },
    {
      "midi": 69,
      "hit": false,
      "t": 51711.542770833395,
      "d": 1740.3847604166658,
      "v": 70
    },
    {
      "midi": 70,
      "hit": false,
      "t": 51711.542770833395,
      "d": 1836.5386145833327,
      "v": 79
    },
    {
      "midi": 74,
      "hit": false,
      "t": 51711.542770833395,
      "d": 1836.5386145833327,
      "v": 74
    },
    {
      "midi": 45,
      "hit": false,
      "t": 53528.85061458337,
      "d": 903.8462291666656,
      "v": 87
    },
    {
      "midi": 53,
      "hit": false,
      "t": 53528.85061458337,
      "d": 903.8462291666656,
      "v": 96
    },
    {
      "midi": 57,
      "hit": false,
      "t": 53528.85061458337,
      "d": 903.8462291666656,
      "v": 85
    },
    {
      "midi": 60,
      "hit": false,
      "t": 53528.85061458337,
      "d": 903.8462291666656,
      "v": 90
    },
    {
      "midi": 65,
      "hit": false,
      "t": 53528.85061458337,
      "d": 903.8462291666656,
      "v": 98
    },
    {
      "midi": 77,
      "hit": false,
      "t": 53528.850614583396,
      "d": 826.9231458333306,
      "v": 76
    },
    {
      "midi": 72,
      "hit": false,
      "t": 53528.850614583396,
      "d": 846.1539166666626,
      "v": 78
    },
    {
      "midi": 69,
      "hit": false,
      "t": 53528.850614583396,
      "d": 855.7693020833321,
      "v": 77
    },
    {
      "midi": 50,
      "hit": false,
      "t": 54451.927614583365,
      "d": 923.0769999999975,
      "v": 96
    },
    {
      "midi": 57,
      "hit": false,
      "t": 54451.927614583365,
      "d": 923.0769999999975,
      "v": 100
    },
    {
      "midi": 60,
      "hit": false,
      "t": 54451.927614583365,
      "d": 923.0769999999975,
      "v": 98
    },
    {
      "midi": 62,
      "hit": false,
      "t": 54451.927614583365,
      "d": 923.0769999999975,
      "v": 88
    },
    {
      "midi": 65,
      "hit": false,
      "t": 54451.927614583365,
      "d": 923.0769999999975,
      "v": 100
    },
    {
      "midi": 77,
      "hit": false,
      "t": 54451.927614583394,
      "d": 846.1539166666698,
      "v": 73
    },
    {
      "midi": 74,
      "hit": false,
      "t": 54451.927614583394,
      "d": 875.0000729166713,
      "v": 76
    },
    {
      "midi": 69,
      "hit": false,
      "t": 54451.927614583394,
      "d": 913.4616145833352,
      "v": 79
    },
    {
      "midi": 72,
      "hit": false,
      "t": 54451.927614583394,
      "d": 913.4616145833352,
      "v": 71
    },
    {
      "midi": 67,
      "hit": false,
      "t": 55375.0046145834,
      "d": 1759.615531250005,
      "v": 85
    },
    {
      "midi": 70,
      "hit": false,
      "t": 55375.0046145834,
      "d": 1836.53861458334,
      "v": 78
    },
    {
      "midi": 74,
      "hit": false,
      "t": 55375.0046145834,
      "d": 1836.53861458334,
      "v": 73
    },
    {
      "midi": 43,
      "hit": false,
      "t": 55384.62000000003,
      "d": 1826.923229166663,
      "v": 96
    },
    {
      "midi": 50,
      "hit": false,
      "t": 55384.62000000003,
      "d": 1826.923229166663,
      "v": 102
    },
    {
      "midi": 53,
      "hit": false,
      "t": 55384.62000000003,
      "d": 1826.923229166663,
      "v": 104
    },
    {
      "midi": 55,
      "hit": false,
      "t": 55384.62000000003,
      "d": 1826.923229166663,
      "v": 104
    },
    {
      "midi": 58,
      "hit": false,
      "t": 55384.62000000003,
      "d": 1826.923229166663,
      "v": 94
    },
    {
      "midi": 62,
      "hit": false,
      "t": 55384.62000000003,
      "d": 1826.923229166663,
      "v": 104
    },
    {
      "midi": 77,
      "hit": false,
      "t": 55384.62000000007,
      "d": 1836.53861458334,
      "v": 72
    },
    {
      "midi": 41,
      "hit": false,
      "t": 57221.158614583364,
      "d": 769.2308333333349,
      "v": 96
    },
    {
      "midi": 48,
      "hit": false,
      "t": 57221.158614583364,
      "d": 769.2308333333349,
      "v": 98
    },
    {
      "midi": 55,
      "hit": false,
      "t": 57221.158614583364,
      "d": 769.2308333333349,
      "v": 102
    },
    {
      "midi": 57,
      "hit": false,
      "t": 57221.158614583364,
      "d": 769.2308333333349,
      "v": 104
    },
    {
      "midi": 60,
      "hit": false,
      "t": 57221.158614583364,
      "d": 769.2308333333349,
      "v": 107
    },
    {
      "midi": 65,
      "hit": false,
      "t": 57221.15861458341,
      "d": 913.4616145833352,
      "v": 80
    },
    {
      "midi": 67,
      "hit": false,
      "t": 57221.15861458341,
      "d": 913.4616145833352,
      "v": 73
    },
    {
      "midi": 69,
      "hit": false,
      "t": 57221.15861458341,
      "d": 913.4616145833352,
      "v": 80
    },
    {
      "midi": 72,
      "hit": false,
      "t": 57221.15861458341,
      "d": 913.4616145833352,
      "v": 80
    },
    {
      "midi": 68,
      "hit": false,
      "t": 58153.851000000075,
      "d": 826.9231458333379,
      "v": 91
    },
    {
      "midi": 71,
      "hit": false,
      "t": 58153.851000000075,
      "d": 836.5385312500075,
      "v": 94
    },
    {
      "midi": 64,
      "hit": false,
      "t": 58153.851000000075,
      "d": 846.1539166666771,
      "v": 117
    },
    {
      "midi": 61,
      "hit": false,
      "t": 58163.4663854167,
      "d": 778.8462187499972,
      "v": 117
    },
    {
      "midi": 47,
      "hit": false,
      "t": 58163.4663854167,
      "d": 788.4616041666668,
      "v": 117
    },
    {
      "midi": 57,
      "hit": false,
      "t": 58163.4663854167,
      "d": 788.4616041666668,
      "v": 117
    },
    {
      "midi": 64,
      "hit": false,
      "t": 58163.4663854167,
      "d": 788.4616041666668,
      "v": 115
    },
    {
      "midi": 68,
      "hit": false,
      "t": 58163.4663854167,
      "d": 855.7693020833321,
      "v": 103
    },
    {
      "midi": 71,
      "hit": false,
      "t": 58163.4663854167,
      "d": 875.0000729166641,
      "v": 112
    },
    {
      "midi": 61,
      "hit": false,
      "t": 58163.466385416745,
      "d": 846.1539166666771,
      "v": 113
    },
    {
      "midi": 59,
      "hit": false,
      "t": 59067.31261458337,
      "d": 1817.3078437500008,
      "v": 107
    },
    {
      "midi": 63,
      "hit": false,
      "t": 59067.31261458337,
      "d": 1817.3078437500008,
      "v": 103
    },
    {
      "midi": 66,
      "hit": false,
      "t": 59067.31261458337,
      "d": 1817.3078437500008,
      "v": 103
    },
    {
      "midi": 68,
      "hit": false,
      "t": 59067.31261458337,
      "d": 1817.3078437500008,
      "v": 106
    },
    {
      "midi": 63,
      "hit": false,
      "t": 59067.312614583425,
      "d": 1778.8463020833296,
      "v": 91
    },
    {
      "midi": 66,
      "hit": false,
      "t": 59067.312614583425,
      "d": 1778.8463020833296,
      "v": 85
    },
    {
      "midi": 71,
      "hit": false,
      "t": 59067.312614583425,
      "d": 1778.8463020833296,
      "v": 90
    },
    {
      "midi": 68,
      "hit": false,
      "t": 59067.312614583425,
      "d": 1817.3078437499935,
      "v": 88
    },
    {
      "midi": 52,
      "hit": false,
      "t": 59076.928000000036,
      "d": 1807.6924583333312,
      "v": 90
    },
    {
      "midi": 51,
      "hit": false,
      "t": 60913.46661458337,
      "d": 884.6154583333337,
      "v": 85
    },
    {
      "midi": 59,
      "hit": false,
      "t": 60913.46661458337,
      "d": 884.6154583333337,
      "v": 98
    },
    {
      "midi": 61,
      "hit": false,
      "t": 60913.46661458337,
      "d": 884.6154583333337,
      "v": 100
    },
    {
      "midi": 63,
      "hit": false,
      "t": 60913.46661458337,
      "d": 884.6154583333337,
      "v": 94
    },
    {
      "midi": 66,
      "hit": false,
      "t": 60913.46661458337,
      "d": 884.6154583333337,
      "v": 91
    },
    {
      "midi": 71,
      "hit": false,
      "t": 60913.46661458342,
      "d": 855.7693020833321,
      "v": 88
    },
    {
      "midi": 63,
      "hit": false,
      "t": 60913.46661458342,
      "d": 913.4616145833352,
      "v": 97
    },
    {
      "midi": 66,
      "hit": false,
      "t": 60913.46661458342,
      "d": 913.4616145833352,
      "v": 91
    },
    {
      "midi": 44,
      "hit": false,
      "t": 61836.54361458337,
      "d": 884.6154583333337,
      "v": 91
    },
    {
      "midi": 51,
      "hit": false,
      "t": 61836.54361458337,
      "d": 884.6154583333337,
      "v": 100
    },
    {
      "midi": 56,
      "hit": false,
      "t": 61836.54361458337,
      "d": 884.6154583333337,
      "v": 103
    },
    {
      "midi": 59,
      "hit": false,
      "t": 61836.54361458337,
      "d": 884.6154583333337,
      "v": 102
    },
    {
      "midi": 63,
      "hit": false,
      "t": 61836.54361458337,
      "d": 884.6154583333337,
      "v": 94
    },
    {
      "midi": 66,
      "hit": false,
      "t": 61836.54361458337,
      "d": 884.6154583333337,
      "v": 94
    },
    {
      "midi": 71,
      "hit": false,
      "t": 61836.543614583425,
      "d": 865.384687500009,
      "v": 110
    },
    {
      "midi": 68,
      "hit": false,
      "t": 61836.543614583425,
      "d": 875.0000729166786,
      "v": 110
    },
    {
      "midi": 63,
      "hit": false,
      "t": 61846.159000000094,
      "d": 846.1539166666698,
      "v": 104
    },
    {
      "midi": 61,
      "hit": false,
      "t": 62759.620614583364,
      "d": 1750.0001458333354,
      "v": 89
    },
    {
      "midi": 71,
      "hit": false,
      "t": 62759.62061458344,
      "d": 1798.0770729166688,
      "v": 97
    },
    {
      "midi": 61,
      "hit": false,
      "t": 62759.62061458344,
      "d": 1836.5386145833327,
      "v": 113
    },
    {
      "midi": 64,
      "hit": false,
      "t": 62759.62061458344,
      "d": 1836.5386145833327,
      "v": 102
    },
    {
      "midi": 68,
      "hit": false,
      "t": 62759.62061458344,
      "d": 1836.5386145833327,
      "v": 97
    },
    {
      "midi": 49,
      "hit": false,
      "t": 62769.23600000003,
      "d": 1740.3847604166658,
      "v": 103
    },
    {
      "midi": 56,
      "hit": false,
      "t": 62769.23600000003,
      "d": 1740.3847604166658,
      "v": 97
    },
    {
      "midi": 59,
      "hit": false,
      "t": 62769.23600000003,
      "d": 1740.3847604166658,
      "v": 92
    },
    {
      "midi": 64,
      "hit": false,
      "t": 62769.23600000003,
      "d": 1740.3847604166658,
      "v": 104
    },
    {
      "midi": 66,
      "hit": false,
      "t": 64605.77461458344,
      "d": 3682.6926145833277,
      "v": 87
    },
    {
      "midi": 70,
      "hit": false,
      "t": 64605.77461458344,
      "d": 3682.6926145833277,
      "v": 74
    },
    {
      "midi": 71,
      "hit": false,
      "t": 64605.77461458344,
      "d": 3682.6926145833277,
      "v": 70
    },
    {
      "midi": 75,
      "hit": false,
      "t": 64605.77461458344,
      "d": 3682.6926145833277,
      "v": 82
    },
    {
      "midi": 63,
      "hit": false,
      "t": 64615.390000000036,
      "d": 673.076979166668,
      "v": 94
    },
    {
      "midi": 61,
      "hit": false,
      "t": 64615.390000000036,
      "d": 903.8462291666729,
      "v": 94
    },
    {
      "midi": 59,
      "hit": false,
      "t": 64615.390000000036,
      "d": 1134.6154791666704,
      "v": 96
    },
    {
      "midi": 58,
      "hit": false,
      "t": 64615.390000000036,
      "d": 1365.384729166668,
      "v": 91
    },
    {
      "midi": 54,
      "hit": false,
      "t": 64615.390000000036,
      "d": 1596.1539791666655,
      "v": 97
    },
    {
      "midi": 47,
      "hit": false,
      "t": 64615.390000000036,
      "d": 3442.3079791666605,
      "v": 102
    },
    {
      "midi": 70,
      "hit": false,
      "t": 64836.54386458337,
      "d": 3221.1541145833253,
      "v": 85
    },
    {
      "midi": 66,
      "hit": false,
      "t": 65076.92850000004,
      "d": 2980.769479166658,
      "v": 75
    },
    {
      "midi": 63,
      "hit": false,
      "t": 65298.08236458337,
      "d": 2759.615614583323,
      "v": 83
    },
    {
      "midi": 61,
      "hit": false,
      "t": 65528.85161458338,
      "d": 2528.846364583318,
      "v": 79
    },
    {
      "midi": 59,
      "hit": false,
      "t": 65759.62086458337,
      "d": 2298.077114583328,
      "v": 62
    },
    {
      "midi": 58,
      "hit": false,
      "t": 65990.39011458337,
      "d": 2067.3078645833302,
      "v": 72
    },
    {
      "midi": 54,
      "hit": false,
      "t": 66221.15936458336,
      "d": 1836.5386145833327,
      "v": 64
    },
    {
      "midi": 87,
      "hit": false,
      "t": 66221.15936458344,
      "d": 1951.9232395833242,
      "v": 81
    },
    {
      "midi": 51,
      "hit": false,
      "t": 66451.92861458336,
      "d": 1605.7693645833351,
      "v": 62
    },
    {
      "midi": 82,
      "hit": false,
      "t": 66451.92861458343,
      "d": 1836.5386145833327,
      "v": 70
    },
    {
      "midi": 78,
      "hit": false,
      "t": 66692.3132500001,
      "d": 1605.7693645833351,
      "v": 49
    },
    {
      "midi": 60,
      "hit": false,
      "t": 68307.69800000003,
      "d": 1807.6924583333312,
      "v": 104
    },
    {
      "midi": 55,
      "hit": false,
      "t": 68317.3133854167,
      "d": 1798.0770729166688,
      "v": 102
    },
    {
      "midi": 58,
      "hit": false,
      "t": 68317.3133854167,
      "d": 1798.0770729166688,
      "v": 95
    },
    {
      "midi": 63,
      "hit": false,
      "t": 68317.3133854167,
      "d": 1798.0770729166688,
      "v": 110
    },
    {
      "midi": 56,
      "hit": false,
      "t": 70144.23661458337,
      "d": 1807.6924583333312,
      "v": 97
    },
    {
      "midi": 60,
      "hit": false,
      "t": 70144.23661458337,
      "d": 1807.6924583333312,
      "v": 108
    },
    {
      "midi": 63,
      "hit": false,
      "t": 70144.23661458337,
      "d": 1807.6924583333312,
      "v": 113
    },
    {
      "midi": 65,
      "hit": false,
      "t": 70144.23661458337,
      "d": 1807.6924583333312,
      "v": 97
    },
    {
      "midi": 56,
      "hit": false,
      "t": 71990.39061458336,
      "d": 1807.6924583333312,
      "v": 101
    },
    {
      "midi": 58,
      "hit": false,
      "t": 71990.39061458336,
      "d": 1807.6924583333312,
      "v": 85
    },
    {
      "midi": 61,
      "hit": false,
      "t": 71990.39061458336,
      "d": 1807.6924583333312,
      "v": 95
    },
    {
      "midi": 65,
      "hit": false,
      "t": 71990.39061458336,
      "d": 1807.6924583333312,
      "v": 104
    },
    {
      "midi": 65,
      "hit": false,
      "t": 73836.54461458336,
      "d": 894.2308437499887,
      "v": 98
    },
    {
      "midi": 56,
      "hit": false,
      "t": 73846.16000000002,
      "d": 884.6154583333264,
      "v": 107
    },
    {
      "midi": 61,
      "hit": false,
      "t": 73846.16000000002,
      "d": 884.6154583333264,
      "v": 95
    },
    {
      "midi": 58,
      "hit": false,
      "t": 74759.62161458335,
      "d": 875.0000729166641,
      "v": 97
    },
    {
      "midi": 61,
      "hit": false,
      "t": 74759.62161458335,
      "d": 875.0000729166641,
      "v": 101
    },
    {
      "midi": 63,
      "hit": false,
      "t": 74759.62161458335,
      "d": 875.0000729166641,
      "v": 99
    },
    {
      "midi": 67,
      "hit": false,
      "t": 74759.62161458335,
      "d": 875.0000729166641,
      "v": 100
    },
    {
      "midi": 56,
      "hit": false,
      "t": 75692.31400000001,
      "d": 1778.8463020833296,
      "v": 107
    },
    {
      "midi": 59,
      "hit": false,
      "t": 75692.31400000001,
      "d": 1778.8463020833296,
      "v": 98
    },
    {
      "midi": 63,
      "hit": false,
      "t": 75692.31400000001,
      "d": 1778.8463020833296,
      "v": 97
    },
    {
      "midi": 66,
      "hit": false,
      "t": 75692.31400000001,
      "d": 1778.8463020833296,
      "v": 93
    },
    {
      "midi": 54,
      "hit": false,
      "t": 77538.46800000001,
      "d": 846.1539166666626,
      "v": 107
    },
    {
      "midi": 59,
      "hit": false,
      "t": 77538.46800000001,
      "d": 846.1539166666626,
      "v": 106
    },
    {
      "midi": 63,
      "hit": false,
      "t": 77538.46800000001,
      "d": 846.1539166666626,
      "v": 95
    },
    {
      "midi": 66,
      "hit": false,
      "t": 77538.46800000001,
      "d": 846.1539166666626,
      "v": 95
    },
    {
      "midi": 56,
      "hit": false,
      "t": 78451.92961458334,
      "d": 836.5385312500002,
      "v": 99
    },
    {
      "midi": 61,
      "hit": false,
      "t": 78451.92961458334,
      "d": 836.5385312500002,
      "v": 95
    },
    {
      "midi": 65,
      "hit": false,
      "t": 78451.92961458334,
      "d": 836.5385312500002,
      "v": 98
    },
    {
      "midi": 59,
      "hit": false,
      "t": 78451.92961458334,
      "d": 913.4616145833279,
      "v": 95
    },
    {
      "midi": 54,
      "hit": false,
      "t": 79375.00661458333,
      "d": 1855.7693854166573,
      "v": 104
    },
    {
      "midi": 58,
      "hit": false,
      "t": 79375.00661458333,
      "d": 1855.7693854166573,
      "v": 87
    },
    {
      "midi": 61,
      "hit": false,
      "t": 79375.00661458333,
      "d": 1855.7693854166573,
      "v": 93
    },
    {
      "midi": 65,
      "hit": false,
      "t": 79375.00661458333,
      "d": 1855.7693854166573,
      "v": 95
    },
    {
      "midi": 56,
      "hit": false,
      "t": 81221.16061458332,
      "d": 903.8462291666656,
      "v": 107
    },
    {
      "midi": 59,
      "hit": false,
      "t": 81221.16061458332,
      "d": 903.8462291666656,
      "v": 108
    },
    {
      "midi": 63,
      "hit": false,
      "t": 81221.16061458332,
      "d": 903.8462291666656,
      "v": 99
    },
    {
      "midi": 66,
      "hit": false,
      "t": 81221.16061458332,
      "d": 903.8462291666656,
      "v": 107
    },
    {
      "midi": 61,
      "hit": false,
      "t": 82144.23761458333,
      "d": 961.5385416666686,
      "v": 104
    },
    {
      "midi": 65,
      "hit": false,
      "t": 82144.23761458333,
      "d": 961.5385416666686,
      "v": 97
    },
    {
      "midi": 58,
      "hit": false,
      "t": 82153.85299999999,
      "d": 923.0770000000048,
      "v": 101
    },
    {
      "midi": 56,
      "hit": false,
      "t": 82153.85299999999,
      "d": 951.9231562500063,
      "v": 110
    },
    {
      "midi": 55,
      "hit": false,
      "t": 83086.54538541666,
      "d": 1788.4616875000065,
      "v": 108
    },
    {
      "midi": 58,
      "hit": false,
      "t": 83086.54538541666,
      "d": 1788.4616875000065,
      "v": 97
    },
    {
      "midi": 60,
      "hit": false,
      "t": 83086.54538541666,
      "d": 1788.4616875000065,
      "v": 108
    },
    {
      "midi": 63,
      "hit": false,
      "t": 83086.54538541666,
      "d": 1788.4616875000065,
      "v": 87
    },
    {
      "midi": 67,
      "hit": false,
      "t": 83086.54538541666,
      "d": 1788.4616875000065,
      "v": 108
    },
    {
      "midi": 56,
      "hit": false,
      "t": 84913.46861458333,
      "d": 1778.8463020833296,
      "v": 97
    },
    {
      "midi": 60,
      "hit": false,
      "t": 84913.46861458333,
      "d": 1778.8463020833296,
      "v": 104
    },
    {
      "midi": 63,
      "hit": false,
      "t": 84913.46861458333,
      "d": 1778.8463020833296,
      "v": 104
    },
    {
      "midi": 65,
      "hit": false,
      "t": 84913.46861458333,
      "d": 1778.8463020833296,
      "v": 95
    },
    {
      "midi": 56,
      "hit": false,
      "t": 86759.62261458332,
      "d": 1788.4616875000065,
      "v": 99
    },
    {
      "midi": 58,
      "hit": false,
      "t": 86759.62261458332,
      "d": 1788.4616875000065,
      "v": 87
    },
    {
      "midi": 61,
      "hit": false,
      "t": 86759.62261458332,
      "d": 1788.4616875000065,
      "v": 97
    },
    {
      "midi": 65,
      "hit": false,
      "t": 86759.62261458332,
      "d": 1788.4616875000065,
      "v": 92
    },
    {
      "midi": 56,
      "hit": false,
      "t": 88605.77661458333,
      "d": 903.8462291666656,
      "v": 107
    },
    {
      "midi": 61,
      "hit": false,
      "t": 88605.77661458333,
      "d": 903.8462291666656,
      "v": 104
    },
    {
      "midi": 65,
      "hit": false,
      "t": 88605.77661458333,
      "d": 903.8462291666656,
      "v": 98
    },
    {
      "midi": 58,
      "hit": false,
      "t": 89528.85361458334,
      "d": 903.8462291666656,
      "v": 95
    },
    {
      "midi": 61,
      "hit": false,
      "t": 89528.85361458334,
      "d": 903.8462291666656,
      "v": 104
    },
    {
      "midi": 63,
      "hit": false,
      "t": 89528.85361458334,
      "d": 903.8462291666656,
      "v": 99
    },
    {
      "midi": 67,
      "hit": false,
      "t": 89528.85361458334,
      "d": 903.8462291666656,
      "v": 100
    },
    {
      "midi": 63,
      "hit": false,
      "t": 90461.546,
      "d": 1817.3078437499935,
      "v": 97
    },
    {
      "midi": 66,
      "hit": false,
      "t": 90461.546,
      "d": 1817.3078437499935,
      "v": 95
    },
    {
      "midi": 56,
      "hit": false,
      "t": 90471.16138541666,
      "d": 1807.6924583333312,
      "v": 107
    },
    {
      "midi": 59,
      "hit": false,
      "t": 90471.16138541666,
      "d": 1807.6924583333312,
      "v": 106
    },
    {
      "midi": 54,
      "hit": false,
      "t": 92298.08461458333,
      "d": 894.2308437500033,
      "v": 110
    },
    {
      "midi": 59,
      "hit": false,
      "t": 92298.08461458333,
      "d": 894.2308437500033,
      "v": 98
    },
    {
      "midi": 63,
      "hit": false,
      "t": 92298.08461458333,
      "d": 894.2308437500033,
      "v": 99
    },
    {
      "midi": 66,
      "hit": false,
      "t": 92298.08461458333,
      "d": 894.2308437500033,
      "v": 99
    },
    {
      "midi": 56,
      "hit": false,
      "t": 93230.777,
      "d": 480.7692708333343,
      "v": 107
    },
    {
      "midi": 59,
      "hit": false,
      "t": 93230.777,
      "d": 913.4616145833279,
      "v": 97
    },
    {
      "midi": 61,
      "hit": false,
      "t": 93230.777,
      "d": 913.4616145833279,
      "v": 93
    },
    {
      "midi": 65,
      "hit": false,
      "t": 93230.777,
      "d": 913.4616145833279,
      "v": 95
    },
    {
      "midi": 54,
      "hit": false,
      "t": 94153.85399999999,
      "d": 884.6154583333264,
      "v": 85
    },
    {
      "midi": 58,
      "hit": false,
      "t": 94153.85399999999,
      "d": 884.6154583333264,
      "v": 74
    },
    {
      "midi": 61,
      "hit": false,
      "t": 94153.85399999999,
      "d": 884.6154583333264,
      "v": 81
    },
    {
      "midi": 65,
      "hit": false,
      "t": 94153.85399999999,
      "d": 884.6154583333264,
      "v": 83
    },
    {
      "midi": 54,
      "hit": false,
      "t": 95076.93099999998,
      "d": 855.7693020833394,
      "v": 71
    },
    {
      "midi": 56,
      "hit": false,
      "t": 95076.93099999998,
      "d": 855.7693020833394,
      "v": 67
    },
    {
      "midi": 59,
      "hit": false,
      "t": 95076.93099999998,
      "d": 855.7693020833394,
      "v": 75
    },
    {
      "midi": 64,
      "hit": false,
      "t": 95076.93099999998,
      "d": 855.7693020833394,
      "v": 73
    },
    {
      "midi": 58,
      "hit": false,
      "t": 95990.39261458332,
      "d": 913.4616145833279,
      "v": 59
    },
    {
      "midi": 62,
      "hit": false,
      "t": 95990.39261458332,
      "d": 913.4616145833279,
      "v": 71
    },
    {
      "midi": 65,
      "hit": false,
      "t": 95990.39261458332,
      "d": 913.4616145833279,
      "v": 59
    },
    {
      "midi": 48,
      "hit": false,
      "t": 95990.39261458332,
      "d": 1836.5386145833181,
      "v": 64
    },
    {
      "midi": 58,
      "hit": false,
      "t": 96913.46961458331,
      "d": 913.4616145833279,
      "v": 41
    },
    {
      "midi": 61,
      "hit": false,
      "t": 96913.46961458331,
      "d": 913.4616145833279,
      "v": 63
    },
    {
      "midi": 64,
      "hit": false,
      "t": 96913.46961458331,
      "d": 913.4616145833279,
      "v": 60
    },
    {
      "midi": 41,
      "hit": false,
      "t": 97855.77738541664,
      "d": 1807.6924583333312,
      "v": 68
    },
    {
      "midi": 48,
      "hit": false,
      "t": 97855.77738541664,
      "d": 1807.6924583333312,
      "v": 64
    },
    {
      "midi": 53,
      "hit": false,
      "t": 97855.77738541664,
      "d": 1807.6924583333312,
      "v": 64
    },
    {
      "midi": 55,
      "hit": false,
      "t": 97855.77738541664,
      "d": 1807.6924583333312,
      "v": 66
    },
    {
      "midi": 57,
      "hit": false,
      "t": 97855.77738541664,
      "d": 1807.6924583333312,
      "v": 70
    },
    {
      "midi": 60,
      "hit": false,
      "t": 97855.77738541664,
      "d": 1807.6924583333312,
      "v": 81
    },
    {
      "midi": 60,
      "hit": false,
      "t": 97855.77738541676,
      "d": 1509.6155104166683,
      "v": 83
    },
    {
      "midi": 55,
      "hit": false,
      "t": 97855.77738541676,
      "d": 1528.8462812500075,
      "v": 85
    },
    {
      "midi": 53,
      "hit": false,
      "t": 97855.77738541676,
      "d": 1548.0770520833466,
      "v": 80
    },
    {
      "midi": 48,
      "hit": false,
      "t": 97855.77738541676,
      "d": 1557.692437500009,
      "v": 75
    },
    {
      "midi": 41,
      "hit": false,
      "t": 97855.77738541676,
      "d": 1586.5385937500105,
      "v": 77
    },
    {
      "midi": 41,
      "hit": false,
      "t": 99682.70061458331,
      "d": 1826.9232291666704,
      "v": 81
    },
    {
      "midi": 53,
      "hit": false,
      "t": 99682.70061458331,
      "d": 1826.9232291666704,
      "v": 92
    },
    {
      "midi": 56,
      "hit": false,
      "t": 99682.70061458331,
      "d": 1826.9232291666704,
      "v": 95
    },
    {
      "midi": 58,
      "hit": false,
      "t": 99682.70061458331,
      "d": 1826.9232291666704,
      "v": 75
    },
    {
      "midi": 63,
      "hit": false,
      "t": 99682.70061458331,
      "d": 1826.9232291666704,
      "v": 87
    },
    {
      "midi": 53,
      "hit": false,
      "t": 99701.93138541677,
      "d": 1365.3847291666607,
      "v": 88
    },
    {
      "midi": 56,
      "hit": false,
      "t": 99701.93138541677,
      "d": 1384.6154999999999,
      "v": 87
    },
    {
      "midi": 58,
      "hit": false,
      "t": 99701.93138541677,
      "d": 1384.6154999999999,
      "v": 72
    },
    {
      "midi": 63,
      "hit": false,
      "t": 99701.93138541677,
      "d": 1423.0770416666637,
      "v": 89
    },
    {
      "midi": 41,
      "hit": false,
      "t": 99701.93138541677,
      "d": 1461.5385833333276,
      "v": 80
    },
    {
      "midi": 81,
      "hit": false,
      "t": 101307.70075000009,
      "d": 1500.0001249999914,
      "v": 66
    },
    {
      "midi": 76,
      "hit": false,
      "t": 101375.00844791676,
      "d": 1432.692427083326,
      "v": 73
    },
    {
      "midi": 74,
      "hit": false,
      "t": 101432.70076041676,
      "d": 1423.0770416666492,
      "v": 85
    },
    {
      "midi": 72,
      "hit": false,
      "t": 101500.00845833342,
      "d": 1384.6154999999853,
      "v": 77
    },
    {
      "midi": 41,
      "hit": false,
      "t": 101528.85461458332,
      "d": 1750.0001458333281,
      "v": 79
    },
    {
      "midi": 48,
      "hit": false,
      "t": 101528.85461458332,
      "d": 1750.0001458333281,
      "v": 83
    },
    {
      "midi": 53,
      "hit": false,
      "t": 101528.85461458332,
      "d": 1750.0001458333281,
      "v": 78
    },
    {
      "midi": 55,
      "hit": false,
      "t": 101528.85461458332,
      "d": 1750.0001458333281,
      "v": 80
    },
    {
      "midi": 57,
      "hit": false,
      "t": 101528.85461458332,
      "d": 1750.0001458333281,
      "v": 80
    },
    {
      "midi": 60,
      "hit": false,
      "t": 101548.08538541666,
      "d": 1730.769374999989,
      "v": 83
    },
    {
      "midi": 69,
      "hit": false,
      "t": 101557.70077083343,
      "d": 1346.1539583333215,
      "v": 88
    },
    {
      "midi": 48,
      "hit": false,
      "t": 101557.70077083343,
      "d": 1403.8462708333245,
      "v": 54
    },
    {
      "midi": 41,
      "hit": false,
      "t": 101557.70077083343,
      "d": 1432.692427083326,
      "v": 74
    },
    {
      "midi": 45,
      "hit": false,
      "t": 103086.54705208333,
      "d": 1644.2309062499698,
      "v": 73
    },
    {
      "midi": 49,
      "hit": false,
      "t": 103230.77783333333,
      "d": 1980.7693958333111,
      "v": 99
    },
    {
      "midi": 55,
      "hit": false,
      "t": 103375.00861458332,
      "d": 903.8462291666656,
      "v": 95
    },
    {
      "midi": 60,
      "hit": false,
      "t": 103375.00861458332,
      "d": 913.4616145833279,
      "v": 106
    },
    {
      "midi": 65,
      "hit": false,
      "t": 103375.00861458332,
      "d": 1836.5386145833181,
      "v": 106
    },
    {
      "midi": 55,
      "hit": false,
      "t": 103375.00861458342,
      "d": 1519.2308958333306,
      "v": 97
    },
    {
      "midi": 65,
      "hit": false,
      "t": 103375.00861458342,
      "d": 1528.846281249993,
      "v": 90
    },
    {
      "midi": 45,
      "hit": false,
      "t": 103375.00861458342,
      "d": 1538.4616666666552,
      "v": 79
    },
    {
      "midi": 61,
      "hit": false,
      "t": 103375.00861458342,
      "d": 1567.3078229166567,
      "v": 87
    },
    {
      "midi": 53,
      "hit": false,
      "t": 104298.08561458331,
      "d": 913.4616145833279,
      "v": 102
    },
    {
      "midi": 58,
      "hit": false,
      "t": 104298.08561458331,
      "d": 913.4616145833279,
      "v": 87
    },
    {
      "midi": 57,
      "hit": false,
      "t": 105221.1626145833,
      "d": 1836.5386145833327,
      "v": 81
    },
    {
      "midi": 65,
      "hit": false,
      "t": 105221.1626145833,
      "d": 1836.5386145833327,
      "v": 73
    },
    {
      "midi": 50,
      "hit": false,
      "t": 105221.1626145833,
      "d": 1865.3847708333342,
      "v": 77
    },
    {
      "midi": 60,
      "hit": false,
      "t": 105221.1626145833,
      "d": 1865.3847708333342,
      "v": 86
    },
    {
      "midi": 64,
      "hit": false,
      "t": 105221.1626145833,
      "d": 1865.3847708333342,
      "v": 80
    },
    {
      "midi": 57,
      "hit": false,
      "t": 105221.16261458342,
      "d": 778.8462187500118,
      "v": 73
    },
    {
      "midi": 60,
      "hit": false,
      "t": 105221.16261458342,
      "d": 807.6923750000133,
      "v": 79
    },
    {
      "midi": 64,
      "hit": false,
      "t": 105221.16261458342,
      "d": 836.5385312500148,
      "v": 78
    },
    {
      "midi": 65,
      "hit": false,
      "t": 105221.16261458342,
      "d": 865.3846875000163,
      "v": 70
    },
    {
      "midi": 50,
      "hit": false,
      "t": 105240.39338541676,
      "d": 942.307770833344,
      "v": 68
    },
    {
      "midi": 74,
      "hit": false,
      "t": 106394.23963541677,
      "d": 557.692354166662,
      "v": 95
    },
    {
      "midi": 77,
      "hit": false,
      "t": 106625.00888541677,
      "d": 259.61540624999907,
      "v": 86
    },
    {
      "midi": 81,
      "hit": false,
      "t": 106625.00888541677,
      "d": 278.84617708333826,
      "v": 106
    },
    {
      "midi": 65,
      "hit": false,
      "t": 107067.3166145833,
      "d": 1394.2308854166768,
      "v": 86
    },
    {
      "midi": 46,
      "hit": false,
      "t": 107067.3166145833,
      "d": 1855.7693854166719,
      "v": 71
    },
    {
      "midi": 58,
      "hit": false,
      "t": 107067.3166145833,
      "d": 1855.7693854166719,
      "v": 87
    },
    {
      "midi": 62,
      "hit": false,
      "t": 107067.3166145833,
      "d": 1855.7693854166719,
      "v": 91
    },
    {
      "midi": 53,
      "hit": false,
      "t": 107067.3166145833,
      "d": 1875.0001562499965,
      "v": 80
    },
    {
      "midi": 57,
      "hit": false,
      "t": 107067.3166145833,
      "d": 1875.0001562499965,
      "v": 92
    },
    {
      "midi": 46,
      "hit": false,
      "t": 107067.31661458343,
      "d": 1000.0000833333324,
      "v": 81
    },
    {
      "midi": 53,
      "hit": false,
      "t": 107067.31661458343,
      "d": 1019.2308541666716,
      "v": 88
    },
    {
      "midi": 74,
      "hit": false,
      "t": 107067.31661458343,
      "d": 1038.4616250000108,
      "v": 86
    },
    {
      "midi": 77,
      "hit": false,
      "t": 107067.31661458343,
      "d": 1048.0770104166731,
      "v": 79
    },
    {
      "midi": 69,
      "hit": false,
      "t": 107067.31661458343,
      "d": 1076.9231666666747,
      "v": 100
    },
    {
      "midi": 69,
      "hit": false,
      "t": 107759.6243645833,
      "d": 1182.6924062499893,
      "v": 108
    },
    {
      "midi": 65,
      "hit": false,
      "t": 108471.16288541663,
      "d": 451.9231145833328,
      "v": 88
    },
    {
      "midi": 58,
      "hit": false,
      "t": 108913.47061458344,
      "d": 1201.923177083343,
      "v": 81
    },
    {
      "midi": 62,
      "hit": false,
      "t": 108913.47061458344,
      "d": 1240.3847187500069,
      "v": 86
    },
    {
      "midi": 65,
      "hit": false,
      "t": 108913.47061458344,
      "d": 1250.0001041666692,
      "v": 80
    },
    {
      "midi": 58,
      "hit": false,
      "t": 108932.70138541663,
      "d": 1163.4616354166646,
      "v": 81
    },
    {
      "midi": 62,
      "hit": false,
      "t": 108932.70138541663,
      "d": 1163.4616354166646,
      "v": 87
    },
    {
      "midi": 65,
      "hit": false,
      "t": 108932.70138541663,
      "d": 1163.4616354166646,
      "v": 86
    },
    {
      "midi": 55,
      "hit": false,
      "t": 108932.70138541663,
      "d": 1596.1539791666582,
      "v": 85
    },
    {
      "midi": 39,
      "hit": false,
      "t": 108932.70138541663,
      "d": 1798.0770729166543,
      "v": 78
    },
    {
      "midi": 46,
      "hit": false,
      "t": 108932.70138541663,
      "d": 1798.0770729166543,
      "v": 81
    },
    {
      "midi": 51,
      "hit": false,
      "t": 108932.70138541677,
      "d": 1240.3847187499923,
      "v": 82
    },
    {
      "midi": 53,
      "hit": false,
      "t": 110423.08612499996,
      "d": 307.6923333333252,
      "v": 66
    },
    {
      "midi": 55,
      "hit": false,
      "t": 110538.47074999995,
      "d": 192.30770833333372,
      "v": 73
    },
    {
      "midi": 58,
      "hit": false,
      "t": 110644.23998958328,
      "d": 86.53846875000454,
      "v": 95
    },
    {
      "midi": 36,
      "hit": false,
      "t": 110750.00922916662,
      "d": 903.8462291666656,
      "v": 90
    },
    {
      "midi": 48,
      "hit": false,
      "t": 110750.00922916662,
      "d": 903.8462291666656,
      "v": 95
    },
    {
      "midi": 55,
      "hit": false,
      "t": 110750.00922916662,
      "d": 1836.5386145833327,
      "v": 110
    },
    {
      "midi": 58,
      "hit": false,
      "t": 110759.62461458343,
      "d": 817.3077604166756,
      "v": 81
    },
    {
      "midi": 62,
      "hit": false,
      "t": 110759.62461458343,
      "d": 855.7693020833394,
      "v": 97
    },
    {
      "midi": 53,
      "hit": false,
      "t": 110769.23999999996,
      "d": 884.6154583333264,
      "v": 108
    },
    {
      "midi": 60,
      "hit": false,
      "t": 110778.85538541662,
      "d": 1836.5386145833327,
      "v": 100
    },
    {
      "midi": 48,
      "hit": false,
      "t": 110778.85538541677,
      "d": 1711.5386041666643,
      "v": 76
    },
    {
      "midi": 58,
      "hit": false,
      "t": 110788.47077083329,
      "d": 1836.5386145833327,
      "v": 60
    },
    {
      "midi": 64,
      "hit": false,
      "t": 111451.93236458329,
      "d": 201.92309374999604,
      "v": 89
    },
    {
      "midi": 36,
      "hit": false,
      "t": 111682.70161458329,
      "d": 451.9231145833328,
      "v": 100
    },
    {
      "midi": 55,
      "hit": false,
      "t": 111692.3170000001,
      "d": 692.3077500000072,
      "v": 79
    },
    {
      "midi": 60,
      "hit": false,
      "t": 111692.3170000001,
      "d": 701.9231354166695,
      "v": 77
    },
    {
      "midi": 64,
      "hit": false,
      "t": 111701.93238541663,
      "d": 913.4616145833279,
      "v": 95
    },
    {
      "midi": 36,
      "hit": false,
      "t": 112144.24011458328,
      "d": 451.9231145833328,
      "v": 97
    },
    {
      "midi": 48,
      "hit": false,
      "t": 112144.24011458328,
      "d": 451.9231145833328,
      "v": 90
    },
    {
      "midi": 41,
      "hit": false,
      "t": 112615.39399999996,
      "d": 1826.9232291666558,
      "v": 60
    },
    {
      "midi": 48,
      "hit": false,
      "t": 112615.39399999996,
      "d": 1846.1539999999804,
      "v": 78
    },
    {
      "midi": 55,
      "hit": false,
      "t": 112615.3940000001,
      "d": 1605.7693645833351,
      "v": 63
    },
    {
      "midi": 57,
      "hit": false,
      "t": 112615.3940000001,
      "d": 1605.7693645833351,
      "v": 69
    },
    {
      "midi": 60,
      "hit": false,
      "t": 112615.3940000001,
      "d": 1605.7693645833351,
      "v": 68
    },
    {
      "midi": 62,
      "hit": false,
      "t": 112615.3940000001,
      "d": 1605.7693645833351,
      "v": 64
    },
    {
      "midi": 55,
      "hit": false,
      "t": 112625.00938541662,
      "d": 894.2308437500033,
      "v": 68
    },
    {
      "midi": 60,
      "hit": false,
      "t": 112625.00938541662,
      "d": 1125.0000937500008,
      "v": 94
    },
    {
      "midi": 65,
      "hit": false,
      "t": 112625.00938541662,
      "d": 1817.3078437499935,
      "v": 80
    },
    {
      "midi": 57,
      "hit": false,
      "t": 112625.00938541662,
      "d": 1836.5386145833181,
      "v": 84
    },
    {
      "midi": 81,
      "hit": false,
      "t": 113317.31713541677,
      "d": 913.4616145833279,
      "v": 56
    },
    {
      "midi": 84,
      "hit": false,
      "t": 113403.85560416678,
      "d": 798.0769895833218,
      "v": 58
    },
    {
      "midi": 88,
      "hit": false,
      "t": 113451.9325312501,
      "d": 798.0769895833364,
      "v": 59
    },
    {
      "midi": 93,
      "hit": false,
      "t": 113519.24022916677,
      "d": 798.0769895833364,
      "v": 61
    },
    {
      "midi": 55,
      "hit": false,
      "t": 113528.85561458328,
      "d": 932.6923854166525,
      "v": 67
    },
    {
      "midi": 60,
      "hit": false,
      "t": 113759.62486458328,
      "d": 701.923135416655,
      "v": 110
    },
    {
      "midi": 62,
      "hit": false,
      "t": 113990.39411458328,
      "d": 471.15388541665743,
      "v": 122
    },
    {
      "midi": 64,
      "hit": false,
      "t": 114221.16336458328,
      "d": 240.38463541665988,
      "v": 104
    },
    {
      "midi": 87,
      "hit": false,
      "t": 114230.7787500001,
      "d": 798.0769895833364,
      "v": 67
    },
    {
      "midi": 82,
      "hit": false,
      "t": 114307.70183333344,
      "d": 567.3077395833243,
      "v": 63
    },
    {
      "midi": 80,
      "hit": false,
      "t": 114346.1633750001,
      "d": 451.9231145833328,
      "v": 59
    },
    {
      "midi": 77,
      "hit": false,
      "t": 114384.62491666677,
      "d": 451.9231145833328,
      "v": 59
    },
    {
      "midi": 75,
      "hit": false,
      "t": 114413.47107291677,
      "d": 1490.384739583329,
      "v": 58
    },
    {
      "midi": 41,
      "hit": false,
      "t": 114451.93261458327,
      "d": 1836.5386145833327,
      "v": 72
    },
    {
      "midi": 51,
      "hit": false,
      "t": 114451.93261458327,
      "d": 1846.153999999995,
      "v": 61
    },
    {
      "midi": 56,
      "hit": false,
      "t": 114451.93261458327,
      "d": 1846.153999999995,
      "v": 91
    },
    {
      "midi": 58,
      "hit": false,
      "t": 114451.93261458327,
      "d": 1846.153999999995,
      "v": 87
    },
    {
      "midi": 63,
      "hit": false,
      "t": 114451.93261458327,
      "d": 1846.153999999995,
      "v": 87
    },
    {
      "midi": 65,
      "hit": false,
      "t": 114451.93261458327,
      "d": 1846.153999999995,
      "v": 95
    },
    {
      "midi": 70,
      "hit": false,
      "t": 114586.54801041677,
      "d": 1375.0001145833376,
      "v": 67
    },
    {
      "midi": 68,
      "hit": false,
      "t": 114673.08647916677,
      "d": 1259.6154895833315,
      "v": 67
    },
    {
      "midi": 65,
      "hit": false,
      "t": 114769.24033333344,
      "d": 1144.2308645833255,
      "v": 65
    },
    {
      "midi": 67,
      "hit": false,
      "t": 115625.0096354166,
      "d": 673.076979166668,
      "v": 104
    },
    {
      "midi": 69,
      "hit": false,
      "t": 116067.31736458327,
      "d": 1355.7693437499693,
      "v": 81
    },
    {
      "midi": 60,
      "hit": false,
      "t": 116298.08661458327,
      "d": 240.38463541665988,
      "v": 80
    },
    {
      "midi": 41,
      "hit": false,
      "t": 116298.08661458327,
      "d": 682.6923645833158,
      "v": 72
    },
    {
      "midi": 48,
      "hit": false,
      "t": 116298.08661458327,
      "d": 1125.0000937499717,
      "v": 69
    },
    {
      "midi": 65,
      "hit": false,
      "t": 116307.70199999993,
      "d": 1115.3847083333094,
      "v": 79
    },
    {
      "midi": 57,
      "hit": false,
      "t": 116317.3173854166,
      "d": 432.6923437499936,
      "v": 72
    },
    {
      "midi": 55,
      "hit": false,
      "t": 116317.3173854166,
      "d": 1105.769322916647,
      "v": 60
    },
    {
      "midi": 55,
      "hit": false,
      "t": 116317.31738541677,
      "d": 846.1539166666626,
      "v": 66
    },
    {
      "midi": 41,
      "hit": false,
      "t": 116317.31738541677,
      "d": 855.7693020833249,
      "v": 66
    },
    {
      "midi": 53,
      "hit": false,
      "t": 116317.31738541677,
      "d": 855.7693020833249,
      "v": 66
    },
    {
      "midi": 60,
      "hit": false,
      "t": 116317.31738541677,
      "d": 884.6154583333264,
      "v": 66
    },
    {
      "midi": 48,
      "hit": false,
      "t": 116326.93277083343,
      "d": 884.6154583333264,
      "v": 66
    },
    {
      "midi": 60,
      "hit": false,
      "t": 116548.08663541659,
      "d": 875.0000729166495,
      "v": 65
    },
    {
      "midi": 57,
      "hit": false,
      "t": 116759.62511458325,
      "d": 663.4615937499912,
      "v": 60
    },
    {
      "midi": 41,
      "hit": false,
      "t": 116990.39436458325,
      "d": 432.6923437499936,
      "v": 57
    },
    {
      "midi": 43,
      "hit": false,
      "t": 117509.62517708325,
      "d": 326.9231041666644,
      "v": 102
    },
    {
      "midi": 53,
      "hit": false,
      "t": 117509.62517708325,
      "d": 326.9231041666644,
      "v": 104
    },
    {
      "midi": 58,
      "hit": false,
      "t": 117509.62517708325,
      "d": 326.9231041666644,
      "v": 99
    },
    {
      "midi": 62,
      "hit": false,
      "t": 117509.62517708325,
      "d": 326.9231041666644,
      "v": 114
    },
    {
      "midi": 43,
      "hit": false,
      "t": 117509.62517708342,
      "d": 211.53847916667291,
      "v": 86
    },
    {
      "midi": 53,
      "hit": false,
      "t": 117509.62517708342,
      "d": 240.38463541667443,
      "v": 86
    },
    {
      "midi": 58,
      "hit": false,
      "t": 117509.62517708342,
      "d": 259.6154062500136,
      "v": 79
    },
    {
      "midi": 62,
      "hit": false,
      "t": 117509.62517708342,
      "d": 269.23079166667594,
      "v": 90
    },
    {
      "midi": 54,
      "hit": false,
      "t": 117826.93289583325,
      "d": 355.7692604166514,
      "v": 101
    },
    {
      "midi": 44,
      "hit": false,
      "t": 117836.54828124991,
      "d": 346.15387499998906,
      "v": 87
    },
    {
      "midi": 59,
      "hit": false,
      "t": 117836.54828124991,
      "d": 346.15387499998906,
      "v": 110
    },
    {
      "midi": 63,
      "hit": false,
      "t": 117836.54828124991,
      "d": 346.15387499998906,
      "v": 93
    },
    {
      "midi": 44,
      "hit": false,
      "t": 117836.5482812501,
      "d": 230.76924999999756,
      "v": 84
    },
    {
      "midi": 54,
      "hit": false,
      "t": 117836.5482812501,
      "d": 230.76924999999756,
      "v": 85
    },
    {
      "midi": 59,
      "hit": false,
      "t": 117836.5482812501,
      "d": 240.38463541665988,
      "v": 77
    },
    {
      "midi": 63,
      "hit": false,
      "t": 117846.16366666676,
      "d": 221.15386458333523,
      "v": 87
    },
    {
      "midi": 55,
      "hit": false,
      "t": 118163.47138541657,
      "d": 884.6154583333264,
      "v": 98
    },
    {
      "midi": 49,
      "hit": false,
      "t": 118163.47138541657,
      "d": 1807.6924583333312,
      "v": 77
    },
    {
      "midi": 60,
      "hit": false,
      "t": 118163.47138541657,
      "d": 1807.6924583333312,
      "v": 84
    },
    {
      "midi": 65,
      "hit": false,
      "t": 118163.47138541657,
      "d": 1807.6924583333312,
      "v": 88
    },
    {
      "midi": 65,
      "hit": false,
      "t": 118163.47138541676,
      "d": 1500.0001249999914,
      "v": 85
    },
    {
      "midi": 45,
      "hit": false,
      "t": 118163.47138541676,
      "d": 1519.2308958333306,
      "v": 86
    },
    {
      "midi": 55,
      "hit": false,
      "t": 118163.47138541676,
      "d": 1576.9232083333336,
      "v": 85
    },
    {
      "midi": 60,
      "hit": false,
      "t": 118163.47138541676,
      "d": 1576.9232083333336,
      "v": 73
    },
    {
      "midi": 45,
      "hit": false,
      "t": 118173.08677083324,
      "d": 1798.0770729166688,
      "v": 88
    },
    {
      "midi": 53,
      "hit": false,
      "t": 119067.31761458324,
      "d": 903.8462291666656,
      "v": 81
    },
    {
      "midi": 58,
      "hit": false,
      "t": 119067.31761458324,
      "d": 903.8462291666656,
      "v": 68
    },
    {
      "midi": 50,
      "hit": false,
      "t": 119990.39461458325,
      "d": 1826.9232291666704,
      "v": 69
    },
    {
      "midi": 57,
      "hit": false,
      "t": 119990.39461458325,
      "d": 1826.9232291666704,
      "v": 65
    },
    {
      "midi": 60,
      "hit": false,
      "t": 119990.39461458325,
      "d": 1826.9232291666704,
      "v": 67
    },
    {
      "midi": 64,
      "hit": false,
      "t": 119990.39461458325,
      "d": 1826.9232291666704,
      "v": 68
    },
    {
      "midi": 65,
      "hit": false,
      "t": 119990.39461458325,
      "d": 1826.9232291666704,
      "v": 61
    },
    {
      "midi": 57,
      "hit": false,
      "t": 120009.62538541676,
      "d": 759.6154479166726,
      "v": 58
    },
    {
      "midi": 50,
      "hit": false,
      "t": 120009.62538541676,
      "d": 826.9231458333379,
      "v": 66
    },
    {
      "midi": 62,
      "hit": false,
      "t": 120009.62538541676,
      "d": 826.9231458333379,
      "v": 66
    },
    {
      "midi": 65,
      "hit": false,
      "t": 120009.62538541676,
      "d": 875.0000729166641,
      "v": 59
    },
    {
      "midi": 76,
      "hit": false,
      "t": 121221.16394791675,
      "d": 288.4615625000006,
      "v": 76
    },
    {
      "midi": 74,
      "hit": false,
      "t": 121528.85628125009,
      "d": 307.6923333333398,
      "v": 72
    },
    {
      "midi": 46,
      "hit": false,
      "t": 121836.54861458325,
      "d": 1836.5386145833327,
      "v": 67
    },
    {
      "midi": 53,
      "hit": false,
      "t": 121836.54861458325,
      "d": 1836.5386145833327,
      "v": 78
    },
    {
      "midi": 57,
      "hit": false,
      "t": 121836.54861458325,
      "d": 1836.5386145833327,
      "v": 80
    },
    {
      "midi": 58,
      "hit": false,
      "t": 121836.54861458325,
      "d": 1836.5386145833327,
      "v": 75
    },
    {
      "midi": 62,
      "hit": false,
      "t": 121836.54861458325,
      "d": 1836.5386145833327,
      "v": 87
    },
    {
      "midi": 65,
      "hit": false,
      "t": 121836.54861458325,
      "d": 1836.5386145833327,
      "v": 85
    },
    {
      "midi": 57,
      "hit": false,
      "t": 121855.77938541677,
      "d": 1509.6155104166683,
      "v": 74
    },
    {
      "midi": 72,
      "hit": false,
      "t": 121855.77938541677,
      "d": 1615.384750000012,
      "v": 77
    },
    {
      "midi": 65,
      "hit": false,
      "t": 121855.77938541677,
      "d": 1625.0001354166743,
      "v": 67
    },
    {
      "midi": 46,
      "hit": false,
      "t": 121865.39477083343,
      "d": 1519.2308958333451,
      "v": 72
    },
    {
      "midi": 55,
      "hit": false,
      "t": 123682.70261458325,
      "d": 1836.5386145833327,
      "v": 92
    },
    {
      "midi": 58,
      "hit": false,
      "t": 123682.70261458325,
      "d": 1836.5386145833327,
      "v": 78
    },
    {
      "midi": 62,
      "hit": false,
      "t": 123682.70261458325,
      "d": 1836.5386145833327,
      "v": 87
    },
    {
      "midi": 65,
      "hit": false,
      "t": 123682.70261458325,
      "d": 1836.5386145833327,
      "v": 77
    },
    {
      "midi": 48,
      "hit": false,
      "t": 123682.70261458325,
      "d": 2778.846385416662,
      "v": 77
    },
    {
      "midi": 62,
      "hit": false,
      "t": 123701.93338541678,
      "d": 1826.9232291666704,
      "v": 70
    },
    {
      "midi": 48,
      "hit": false,
      "t": 123701.93338541678,
      "d": 3500.000291666671,
      "v": 68
    },
    {
      "midi": 58,
      "hit": false,
      "t": 123701.93338541678,
      "d": 3500.000291666671,
      "v": 53
    },
    {
      "midi": 72,
      "hit": false,
      "t": 123701.93338541678,
      "d": 3576.923375000013,
      "v": 69
    },
    {
      "midi": 55,
      "hit": false,
      "t": 125528.85661458324,
      "d": 259.61540624999907,
      "v": 76
    },
    {
      "midi": 58,
      "hit": false,
      "t": 125528.85661458324,
      "d": 259.61540624999907,
      "v": 67
    },
    {
      "midi": 60,
      "hit": false,
      "t": 125528.85661458324,
      "d": 932.6923854166671,
      "v": 78
    },
    {
      "midi": 64,
      "hit": false,
      "t": 125528.85661458324,
      "d": 932.6923854166671,
      "v": 80
    },
    {
      "midi": 64,
      "hit": false,
      "t": 125548.08738541679,
      "d": 1692.307833333325,
      "v": 65
    },
    {
      "midi": 67,
      "hit": false,
      "t": 125548.08738541679,
      "d": 1711.5386041666643,
      "v": 64
    },
    {
      "midi": 48,
      "hit": false,
      "t": 126471.16438541657,
      "d": 701.9231354166695,
      "v": 90
    },
    {
      "midi": 58,
      "hit": false,
      "t": 126471.16438541657,
      "d": 701.9231354166695,
      "v": 89
    },
    {
      "midi": 64,
      "hit": false,
      "t": 126471.16438541657,
      "d": 701.9231354166695,
      "v": 98
    },
    {
      "midi": 72,
      "hit": false,
      "t": 126471.16438541657,
      "d": 701.9231354166695,
      "v": 104
    },
    {
      "midi": 65,
      "hit": false,
      "t": 127394.24138541658,
      "d": 1692.307833333325,
      "v": 81
    },
    {
      "midi": 58,
      "hit": false,
      "t": 127394.24138541658,
      "d": 1721.1539895833266,
      "v": 79
    },
    {
      "midi": 62,
      "hit": false,
      "t": 127394.24138541658,
      "d": 1721.1539895833266,
      "v": 85
    },
    {
      "midi": 57,
      "hit": false,
      "t": 127403.85677083324,
      "d": 1730.7693750000035,
      "v": 83
    },
    {
      "midi": 46,
      "hit": false,
      "t": 127403.85677083324,
      "d": 1759.615531250005,
      "v": 84
    },
    {
      "midi": 74,
      "hit": false,
      "t": 127403.85677083346,
      "d": 1721.1539895833266,
      "v": 66
    },
    {
      "midi": 69,
      "hit": false,
      "t": 127403.85677083346,
      "d": 1730.769374999989,
      "v": 64
    },
    {
      "midi": 77,
      "hit": false,
      "t": 127403.85677083346,
      "d": 1778.846302083315,
      "v": 62
    },
    {
      "midi": 65,
      "hit": false,
      "t": 129221.16461458325,
      "d": 846.1539166666626,
      "v": 88
    },
    {
      "midi": 57,
      "hit": false,
      "t": 129221.16461458325,
      "d": 855.7693020833249,
      "v": 90
    },
    {
      "midi": 60,
      "hit": false,
      "t": 129221.16461458325,
      "d": 865.3846874999872,
      "v": 88
    },
    {
      "midi": 69,
      "hit": false,
      "t": 129221.16461458344,
      "d": 788.4616041666595,
      "v": 66
    },
    {
      "midi": 72,
      "hit": false,
      "t": 129221.16461458344,
      "d": 932.6923854166525,
      "v": 80
    },
    {
      "midi": 77,
      "hit": false,
      "t": 129221.16461458344,
      "d": 942.3077708333149,
      "v": 68
    },
    {
      "midi": 45,
      "hit": false,
      "t": 129230.77999999991,
      "d": 903.846229166651,
      "v": 91
    },
    {
      "midi": 57,
      "hit": false,
      "t": 130144.24161458322,
      "d": 846.1539166666626,
      "v": 90
    },
    {
      "midi": 60,
      "hit": false,
      "t": 130144.24161458322,
      "d": 846.1539166666626,
      "v": 81
    },
    {
      "midi": 62,
      "hit": false,
      "t": 130144.24161458322,
      "d": 865.3846875000017,
      "v": 88
    },
    {
      "midi": 65,
      "hit": false,
      "t": 130144.24161458322,
      "d": 865.3846875000017,
      "v": 80
    },
    {
      "midi": 50,
      "hit": false,
      "t": 130144.24161458322,
      "d": 923.0770000000048,
      "v": 86
    },
    {
      "midi": 74,
      "hit": false,
      "t": 130153.85700000009,
      "d": 855.7693020833249,
      "v": 71
    },
    {
      "midi": 65,
      "hit": false,
      "t": 130153.85700000009,
      "d": 875.0000729166641,
      "v": 70
    },
    {
      "midi": 69,
      "hit": false,
      "t": 130163.47238541675,
      "d": 865.3846875000017,
      "v": 64
    },
    {
      "midi": 58,
      "hit": false,
      "t": 131067.31861458323,
      "d": 1788.4616875000065,
      "v": 82
    },
    {
      "midi": 43,
      "hit": false,
      "t": 131067.31861458323,
      "d": 1836.5386145833472,
      "v": 92
    },
    {
      "midi": 62,
      "hit": false,
      "t": 131067.31861458323,
      "d": 1836.5386145833472,
      "v": 74
    },
    {
      "midi": 67,
      "hit": false,
      "t": 131067.31861458342,
      "d": 1807.6924583333457,
      "v": 70
    },
    {
      "midi": 74,
      "hit": false,
      "t": 131067.31861458342,
      "d": 1807.6924583333457,
      "v": 62
    },
    {
      "midi": 55,
      "hit": false,
      "t": 131076.9339999999,
      "d": 1721.1539895833412,
      "v": 88
    },
    {
      "midi": 65,
      "hit": false,
      "t": 131076.9339999999,
      "d": 1836.5386145833472,
      "v": 78
    },
    {
      "midi": 70,
      "hit": false,
      "t": 131076.9340000001,
      "d": 1788.4616875000065,
      "v": 74
    },
    {
      "midi": 57,
      "hit": false,
      "t": 132913.47261458324,
      "d": 855.7693020833249,
      "v": 80
    },
    {
      "midi": 41,
      "hit": false,
      "t": 132913.47261458324,
      "d": 913.4616145833279,
      "v": 88
    },
    {
      "midi": 53,
      "hit": false,
      "t": 132913.47261458324,
      "d": 913.4616145833279,
      "v": 83
    },
    {
      "midi": 55,
      "hit": false,
      "t": 132913.47261458324,
      "d": 913.4616145833279,
      "v": 85
    },
    {
      "midi": 60,
      "hit": false,
      "t": 132913.47261458324,
      "d": 913.4616145833279,
      "v": 86
    },
    {
      "midi": 69,
      "hit": false,
      "t": 132913.47261458344,
      "d": 846.1539166666626,
      "v": 66
    },
    {
      "midi": 65,
      "hit": false,
      "t": 132913.47261458344,
      "d": 855.7693020833249,
      "v": 69
    },
    {
      "midi": 72,
      "hit": false,
      "t": 132913.47261458344,
      "d": 913.4616145833279,
      "v": 70
    },
    {
      "midi": 57,
      "hit": false,
      "t": 133836.54961458323,
      "d": 894.2308437499742,
      "v": 97
    },
    {
      "midi": 61,
      "hit": false,
      "t": 133836.54961458323,
      "d": 894.2308437499742,
      "v": 99
    },
    {
      "midi": 47,
      "hit": false,
      "t": 133836.54961458323,
      "d": 932.6923854166525,
      "v": 106
    },
    {
      "midi": 65,
      "hit": false,
      "t": 133836.54961458343,
      "d": 846.1539166666626,
      "v": 88
    },
    {
      "midi": 69,
      "hit": false,
      "t": 133836.54961458343,
      "d": 884.6154583333409,
      "v": 84
    },
    {
      "midi": 73,
      "hit": false,
      "t": 133836.54961458343,
      "d": 894.2308437500033,
      "v": 81
    },
    {
      "midi": 65,
      "hit": false,
      "t": 133846.1649999999,
      "d": 855.7693020833249,
      "v": 100
    },
    {
      "midi": 69,
      "hit": false,
      "t": 134769.24200000011,
      "d": 1798.0770729166688,
      "v": 75
    },
    {
      "midi": 57,
      "hit": false,
      "t": 134778.85738541654,
      "d": 1730.7693750000035,
      "v": 85
    },
    {
      "midi": 65,
      "hit": false,
      "t": 134778.85738541654,
      "d": 1730.7693750000035,
      "v": 80
    },
    {
      "midi": 46,
      "hit": false,
      "t": 134778.85738541654,
      "d": 1778.8463020833442,
      "v": 97
    },
    {
      "midi": 58,
      "hit": false,
      "t": 134778.85738541654,
      "d": 1836.5386145833472,
      "v": 84
    },
    {
      "midi": 62,
      "hit": false,
      "t": 134778.85738541654,
      "d": 1836.5386145833472,
      "v": 92
    },
    {
      "midi": 77,
      "hit": false,
      "t": 134778.85738541678,
      "d": 1740.3847604166658,
      "v": 81
    },
    {
      "midi": 74,
      "hit": false,
      "t": 134778.85738541678,
      "d": 1798.0770729166688,
      "v": 79
    },
    {
      "midi": 65,
      "hit": false,
      "t": 136605.78061458323,
      "d": 807.6923749999842,
      "v": 84
    },
    {
      "midi": 57,
      "hit": false,
      "t": 136605.78061458323,
      "d": 817.3077604166465,
      "v": 97
    },
    {
      "midi": 60,
      "hit": false,
      "t": 136605.78061458323,
      "d": 836.5385312499711,
      "v": 94
    },
    {
      "midi": 45,
      "hit": false,
      "t": 136605.78061458323,
      "d": 894.2308437499742,
      "v": 77
    },
    {
      "midi": 69,
      "hit": false,
      "t": 136625.0113854168,
      "d": 798.0769895833218,
      "v": 75
    },
    {
      "midi": 72,
      "hit": false,
      "t": 136625.0113854168,
      "d": 875.0000729166495,
      "v": 84
    },
    {
      "midi": 77,
      "hit": false,
      "t": 136625.0113854168,
      "d": 884.6154583333118,
      "v": 73
    },
    {
      "midi": 57,
      "hit": false,
      "t": 137528.8576145832,
      "d": 836.5385312500002,
      "v": 88
    },
    {
      "midi": 65,
      "hit": false,
      "t": 137528.8576145832,
      "d": 855.7693020833249,
      "v": 80
    },
    {
      "midi": 62,
      "hit": false,
      "t": 137528.8576145832,
      "d": 865.3846874999872,
      "v": 90
    },
    {
      "midi": 60,
      "hit": false,
      "t": 137528.8576145832,
      "d": 875.0000729166495,
      "v": 83
    },
    {
      "midi": 50,
      "hit": false,
      "t": 137528.8576145832,
      "d": 913.4616145833279,
      "v": 86
    },
    {
      "midi": 65,
      "hit": false,
      "t": 137528.85761458342,
      "d": 884.6154583333409,
      "v": 80
    },
    {
      "midi": 74,
      "hit": false,
      "t": 137528.85761458342,
      "d": 894.2308437500033,
      "v": 76
    },
    {
      "midi": 69,
      "hit": false,
      "t": 137528.85761458342,
      "d": 903.8462291666656,
      "v": 70
    },
    {
      "midi": 55,
      "hit": false,
      "t": 138451.93461458318,
      "d": 1740.3847604166658,
      "v": 98
    },
    {
      "midi": 43,
      "hit": false,
      "t": 138451.93461458318,
      "d": 1826.9232291666558,
      "v": 91
    },
    {
      "midi": 58,
      "hit": false,
      "t": 138451.93461458318,
      "d": 1836.5386145833181,
      "v": 82
    },
    {
      "midi": 62,
      "hit": false,
      "t": 138451.93461458318,
      "d": 1836.5386145833181,
      "v": 80
    },
    {
      "midi": 65,
      "hit": false,
      "t": 138451.93461458318,
      "d": 1836.5386145833181,
      "v": 79
    },
    {
      "midi": 67,
      "hit": false,
      "t": 138451.9346145834,
      "d": 1788.4616875000065,
      "v": 73
    },
    {
      "midi": 74,
      "hit": false,
      "t": 138451.9346145834,
      "d": 1817.3078437499935,
      "v": 83
    },
    {
      "midi": 70,
      "hit": false,
      "t": 138461.55000000008,
      "d": 1778.8463020833442,
      "v": 73
    },
    {
      "midi": 57,
      "hit": false,
      "t": 140298.08861458316,
      "d": 798.0769895833218,
      "v": 81
    },
    {
      "midi": 41,
      "hit": false,
      "t": 140298.08861458316,
      "d": 913.4616145833279,
      "v": 80
    },
    {
      "midi": 53,
      "hit": false,
      "t": 140298.08861458316,
      "d": 913.4616145833279,
      "v": 86
    },
    {
      "midi": 55,
      "hit": false,
      "t": 140298.08861458316,
      "d": 913.4616145833279,
      "v": 86
    },
    {
      "midi": 60,
      "hit": false,
      "t": 140298.08861458316,
      "d": 913.4616145833279,
      "v": 85
    },
    {
      "midi": 72,
      "hit": false,
      "t": 140307.70400000009,
      "d": 826.9231458333088,
      "v": 76
    },
    {
      "midi": 69,
      "hit": false,
      "t": 140317.31938541675,
      "d": 798.0769895833218,
      "v": 73
    },
    {
      "midi": 65,
      "hit": false,
      "t": 140317.31938541675,
      "d": 913.4616145832988,
      "v": 76
    },
    {
      "midi": 67,
      "hit": false,
      "t": 140317.31938541675,
      "d": 913.4616145832988,
      "v": 73
    },
    {
      "midi": 66,
      "hit": false,
      "t": 141221.16561458315,
      "d": 798.0769895833218,
      "v": 74
    },
    {
      "midi": 47,
      "hit": false,
      "t": 141221.16561458315,
      "d": 913.4616145833279,
      "v": 102
    },
    {
      "midi": 57,
      "hit": false,
      "t": 141221.16561458315,
      "d": 913.4616145833279,
      "v": 98
    },
    {
      "midi": 61,
      "hit": false,
      "t": 141221.16561458315,
      "d": 913.4616145833279,
      "v": 99
    },
    {
      "midi": 64,
      "hit": false,
      "t": 141221.16561458315,
      "d": 913.4616145833279,
      "v": 98
    },
    {
      "midi": 69,
      "hit": false,
      "t": 141221.16561458315,
      "d": 913.4616145833279,
      "v": 95
    },
    {
      "midi": 66,
      "hit": false,
      "t": 141221.16561458338,
      "d": 865.3846874999872,
      "v": 85
    },
    {
      "midi": 69,
      "hit": false,
      "t": 141221.16561458338,
      "d": 913.4616145833279,
      "v": 86
    },
    {
      "midi": 73,
      "hit": false,
      "t": 141221.16561458338,
      "d": 913.4616145833279,
      "v": 93
    },
    {
      "midi": 59,
      "hit": false,
      "t": 142144.24261458314,
      "d": 1769.2309166666528,
      "v": 112
    },
    {
      "midi": 63,
      "hit": false,
      "t": 142144.24261458314,
      "d": 1778.846302083315,
      "v": 101
    },
    {
      "midi": 66,
      "hit": false,
      "t": 142144.24261458314,
      "d": 1788.4616874999774,
      "v": 95
    },
    {
      "midi": 52,
      "hit": false,
      "t": 142144.24261458314,
      "d": 1836.5386145833181,
      "v": 94
    },
    {
      "midi": 68,
      "hit": false,
      "t": 142144.24261458314,
      "d": 1836.5386145833181,
      "v": 99
    },
    {
      "midi": 71,
      "hit": false,
      "t": 142144.24261458337,
      "d": 1759.6155312499905,
      "v": 80
    },
    {
      "midi": 66,
      "hit": false,
      "t": 142144.24261458337,
      "d": 1769.2309166666528,
      "v": 73
    },
    {
      "midi": 63,
      "hit": false,
      "t": 142144.24261458337,
      "d": 1788.4616874999774,
      "v": 84
    },
    {
      "midi": 68,
      "hit": false,
      "t": 142144.24261458337,
      "d": 1807.692458333302,
      "v": 78
    },
    {
      "midi": 63,
      "hit": false,
      "t": 143990.39661458312,
      "d": 846.1539166666626,
      "v": 99
    },
    {
      "midi": 66,
      "hit": false,
      "t": 143990.39661458312,
      "d": 846.1539166666626,
      "v": 110
    },
    {
      "midi": 59,
      "hit": false,
      "t": 143990.39661458312,
      "d": 855.7693020833249,
      "v": 87
    },
    {
      "midi": 51,
      "hit": false,
      "t": 143990.39661458312,
      "d": 951.9231562499772,
      "v": 99
    },
    {
      "midi": 71,
      "hit": false,
      "t": 143990.39661458335,
      "d": 855.7693020833249,
      "v": 83
    },
    {
      "midi": 63,
      "hit": false,
      "t": 143990.39661458335,
      "d": 875.0000729166495,
      "v": 87
    },
    {
      "midi": 66,
      "hit": false,
      "t": 143990.39661458335,
      "d": 894.2308437499742,
      "v": 79
    },
    {
      "midi": 68,
      "hit": false,
      "t": 144923.089,
      "d": 846.1539166666626,
      "v": 78
    },
    {
      "midi": 71,
      "hit": false,
      "t": 144923.089,
      "d": 865.3846874999872,
      "v": 88
    },
    {
      "midi": 56,
      "hit": false,
      "t": 144932.70438541644,
      "d": 778.8462187499972,
      "v": 113
    },
    {
      "midi": 59,
      "hit": false,
      "t": 144932.70438541644,
      "d": 788.4616041666595,
      "v": 90
    },
    {
      "midi": 44,
      "hit": false,
      "t": 144932.70438541644,
      "d": 836.5385312500002,
      "v": 91
    },
    {
      "midi": 63,
      "hit": false,
      "t": 144932.70438541644,
      "d": 913.4616145833279,
      "v": 68
    },
    {
      "midi": 66,
      "hit": false,
      "t": 144932.70438541644,
      "d": 913.4616145833279,
      "v": 74
    },
    {
      "midi": 63,
      "hit": false,
      "t": 144932.70438541667,
      "d": 865.3846874999872,
      "v": 87
    },
    {
      "midi": 49,
      "hit": false,
      "t": 145846.16599999976,
      "d": 1750.0001458333281,
      "v": 107
    },
    {
      "midi": 61,
      "hit": false,
      "t": 145846.16599999976,
      "d": 1798.0770729166397,
      "v": 93
    },
    {
      "midi": 61,
      "hit": false,
      "t": 145846.166,
      "d": 1836.5386145833472,
      "v": 101
    },
    {
      "midi": 64,
      "hit": false,
      "t": 145846.166,
      "d": 1836.5386145833472,
      "v": 95
    },
    {
      "midi": 68,
      "hit": false,
      "t": 145846.166,
      "d": 1836.5386145833472,
      "v": 89
    },
    {
      "midi": 59,
      "hit": false,
      "t": 145855.78138541643,
      "d": 1769.2309166666528,
      "v": 100
    },
    {
      "midi": 56,
      "hit": false,
      "t": 145855.78138541643,
      "d": 1788.4616874999774,
      "v": 104
    },
    {
      "midi": 64,
      "hit": false,
      "t": 145855.78138541643,
      "d": 1788.4616874999774,
      "v": 104
    },
    {
      "midi": 70,
      "hit": false,
      "t": 147682.70461458334,
      "d": 3567.3079895833507,
      "v": 81
    },
    {
      "midi": 75,
      "hit": false,
      "t": 147682.70461458334,
      "d": 3567.3079895833507,
      "v": 84
    },
    {
      "midi": 54,
      "hit": false,
      "t": 147692.31999999975,
      "d": 3567.3079895833216,
      "v": 104
    },
    {
      "midi": 59,
      "hit": false,
      "t": 147692.31999999975,
      "d": 3567.3079895833216,
      "v": 97
    },
    {
      "midi": 63,
      "hit": false,
      "t": 147692.31999999975,
      "d": 3567.3079895833216,
      "v": 97
    },
    {
      "midi": 47,
      "hit": false,
      "t": 147692.31999999975,
      "d": 3682.6926145833277,
      "v": 102
    },
    {
      "midi": 66,
      "hit": false,
      "t": 147692.32,
      "d": 3451.9233645833447,
      "v": 84
    },
    {
      "midi": 58,
      "hit": false,
      "t": 147701.9353854164,
      "d": 3567.3079895833216,
      "v": 89
    },
    {
      "midi": 63,
      "hit": false,
      "t": 151394.2433854164,
      "d": 1817.3078437499935,
      "v": 104
    },
    {
      "midi": 48,
      "hit": false,
      "t": 151394.2433854164,
      "d": 1826.9232291666558,
      "v": 114
    },
    {
      "midi": 60,
      "hit": false,
      "t": 151394.2433854164,
      "d": 1826.9232291666558,
      "v": 104
    },
    {
      "midi": 55,
      "hit": false,
      "t": 151394.2433854164,
      "d": 1836.5386145833181,
      "v": 120
    },
    {
      "midi": 58,
      "hit": false,
      "t": 151394.2433854164,
      "d": 1836.5386145833181,
      "v": 97
    },
    {
      "midi": 56,
      "hit": false,
      "t": 153221.16661458305,
      "d": 1807.6924583333312,
      "v": 107
    },
    {
      "midi": 63,
      "hit": false,
      "t": 153221.16661458305,
      "d": 1807.6924583333312,
      "v": 95
    },
    {
      "midi": 41,
      "hit": false,
      "t": 153230.78199999972,
      "d": 1798.0770729166688,
      "v": 91
    },
    {
      "midi": 48,
      "hit": false,
      "t": 153230.78199999972,
      "d": 1798.0770729166688,
      "v": 84
    },
    {
      "midi": 53,
      "hit": false,
      "t": 153230.78199999972,
      "d": 1798.0770729166688,
      "v": 106
    },
    {
      "midi": 60,
      "hit": false,
      "t": 153230.78199999972,
      "d": 1798.0770729166688,
      "v": 106
    },
    {
      "midi": 46,
      "hit": false,
      "t": 155067.32061458306,
      "d": 153.84616666665534,
      "v": 91
    },
    {
      "midi": 61,
      "hit": false,
      "t": 155298.08986458305,
      "d": 144.23078124999302,
      "v": 120
    },
    {
      "midi": 58,
      "hit": false,
      "t": 155298.08986458305,
      "d": 153.84616666665534,
      "v": 120
    },
    {
      "midi": 65,
      "hit": false,
      "t": 155298.08986458305,
      "d": 153.84616666665534,
      "v": 120
    },
    {
      "midi": 56,
      "hit": false,
      "t": 155298.08986458305,
      "d": 173.07693749997998,
      "v": 120
    },
    {
      "midi": 60,
      "hit": false,
      "t": 155528.85911458303,
      "d": 115.38462500000605,
      "v": 75
    },
    {
      "midi": 55,
      "hit": false,
      "t": 155528.85911458303,
      "d": 125.00001041666837,
      "v": 70
    },
    {
      "midi": 58,
      "hit": false,
      "t": 155528.85911458303,
      "d": 125.00001041666837,
      "v": 66
    },
    {
      "midi": 63,
      "hit": false,
      "t": 155528.85911458303,
      "d": 134.6153958333307,
      "v": 79
    },
    {
      "midi": 46,
      "hit": false,
      "t": 155759.628364583,
      "d": 48.076927083340706,
      "v": 74
    },
    {
      "midi": 61,
      "hit": false,
      "t": 155990.39761458302,
      "d": 173.07693750000908,
      "v": 119
    },
    {
      "midi": 56,
      "hit": false,
      "t": 155990.39761458302,
      "d": 240.38463541667443,
      "v": 119
    },
    {
      "midi": 65,
      "hit": false,
      "t": 156000.0129999997,
      "d": 201.92309375002515,
      "v": 119
    },
    {
      "midi": 58,
      "hit": false,
      "t": 156000.0129999997,
      "d": 211.53847916668747,
      "v": 119
    },
    {
      "midi": 46,
      "hit": false,
      "t": 156221.16686458304,
      "d": 38.46154166664928,
      "v": 79
    },
    {
      "midi": 60,
      "hit": false,
      "t": 156451.93611458302,
      "d": 115.38462500000605,
      "v": 84
    },
    {
      "midi": 55,
      "hit": false,
      "t": 156451.93611458302,
      "d": 134.6153958333307,
      "v": 80
    },
    {
      "midi": 58,
      "hit": false,
      "t": 156451.93611458302,
      "d": 163.46155208331766,
      "v": 67
    },
    {
      "midi": 63,
      "hit": false,
      "t": 156451.93611458302,
      "d": 173.07693749997998,
      "v": 78
    },
    {
      "midi": 58,
      "hit": false,
      "t": 156701.93613541633,
      "d": 96.15385416665231,
      "v": 110
    },
    {
      "midi": 61,
      "hit": false,
      "t": 156701.93613541633,
      "d": 105.76923958331463,
      "v": 110
    },
    {
      "midi": 65,
      "hit": false,
      "t": 156701.93613541633,
      "d": 125.00001041663927,
      "v": 110
    },
    {
      "midi": 56,
      "hit": false,
      "t": 156701.93613541633,
      "d": 134.6153958333016,
      "v": 110
    },
    {
      "midi": 39,
      "hit": false,
      "t": 156913.47461458296,
      "d": 701.9231354166695,
      "v": 77
    },
    {
      "midi": 51,
      "hit": false,
      "t": 157153.85924999963,
      "d": 682.6923645833158,
      "v": 72
    },
    {
      "midi": 56,
      "hit": false,
      "t": 157153.85924999963,
      "d": 682.6923645833158,
      "v": 72
    },
    {
      "midi": 58,
      "hit": false,
      "t": 157153.85924999963,
      "d": 682.6923645833158,
      "v": 72
    },
    {
      "midi": 61,
      "hit": false,
      "t": 157153.85924999963,
      "d": 682.6923645833158,
      "v": 72
    },
    {
      "midi": 65,
      "hit": false,
      "t": 157153.85924999963,
      "d": 682.6923645833158,
      "v": 72
    },
    {
      "midi": 39,
      "hit": false,
      "t": 157625.0131354163,
      "d": 211.53847916665836,
      "v": 52
    },
    {
      "midi": 58,
      "hit": false,
      "t": 157846.1669999996,
      "d": 365.3846458333428,
      "v": 68
    },
    {
      "midi": 61,
      "hit": false,
      "t": 157846.1669999996,
      "d": 365.3846458333428,
      "v": 68
    },
    {
      "midi": 55,
      "hit": false,
      "t": 157846.1669999996,
      "d": 375.0000312500051,
      "v": 68
    },
    {
      "midi": 63,
      "hit": false,
      "t": 157846.1669999996,
      "d": 375.0000312500051,
      "v": 68
    },
    {
      "midi": 51,
      "hit": false,
      "t": 157846.1669999996,
      "d": 682.6923645833158,
      "v": 68
    },
    {
      "midi": 39,
      "hit": false,
      "t": 157846.1669999996,
      "d": 865.3846874999872,
      "v": 68
    },
    {
      "midi": 63,
      "hit": false,
      "t": 158298.09011458294,
      "d": 413.4615729166544,
      "v": 71
    },
    {
      "midi": 55,
      "hit": false,
      "t": 158307.7054999996,
      "d": 403.8461874999921,
      "v": 70
    },
    {
      "midi": 58,
      "hit": false,
      "t": 158307.7054999996,
      "d": 403.8461874999921,
      "v": 64
    },
    {
      "midi": 61,
      "hit": false,
      "t": 158307.7054999996,
      "d": 403.8461874999921,
      "v": 67
    },
    {
      "midi": 51,
      "hit": false,
      "t": 158538.4747499996,
      "d": 173.07693750000908,
      "v": 93
    },
    {
      "midi": 44,
      "hit": false,
      "t": 158759.62861458294,
      "d": 76.92308333332767,
      "v": 101
    },
    {
      "midi": 59,
      "hit": false,
      "t": 158990.39786458292,
      "d": 105.76923958334373,
      "v": 120
    },
    {
      "midi": 56,
      "hit": false,
      "t": 158990.39786458292,
      "d": 125.00001041666837,
      "v": 120
    },
    {
      "midi": 54,
      "hit": false,
      "t": 158990.39786458292,
      "d": 163.46155208334676,
      "v": 120
    },
    {
      "midi": 63,
      "hit": false,
      "t": 158990.39786458292,
      "d": 163.46155208334676,
      "v": 120
    },
    {
      "midi": 58,
      "hit": false,
      "t": 159221.16711458293,
      "d": 96.15385416665231,
      "v": 67
    },
    {
      "midi": 56,
      "hit": false,
      "t": 159221.16711458293,
      "d": 125.00001041663927,
      "v": 65
    },
    {
      "midi": 61,
      "hit": false,
      "t": 159221.16711458293,
      "d": 134.6153958333016,
      "v": 78
    },
    {
      "midi": 53,
      "hit": false,
      "t": 159221.16711458293,
      "d": 144.2307812499639,
      "v": 78
    },
    {
      "midi": 44,
      "hit": false,
      "t": 159451.93636458289,
      "d": 38.461541666678386,
      "v": 75
    },
    {
      "midi": 59,
      "hit": false,
      "t": 159692.32099999956,
      "d": 144.23078124999302,
      "v": 122
    },
    {
      "midi": 56,
      "hit": false,
      "t": 159692.32099999956,
      "d": 192.30770833333372,
      "v": 122
    },
    {
      "midi": 54,
      "hit": false,
      "t": 159692.32099999956,
      "d": 201.92309374999604,
      "v": 122
    },
    {
      "midi": 63,
      "hit": false,
      "t": 159692.32099999956,
      "d": 259.61540624996996,
      "v": 122
    },
    {
      "midi": 44,
      "hit": false,
      "t": 159923.09024999954,
      "d": 19.23077083332464,
      "v": 61
    },
    {
      "midi": 56,
      "hit": false,
      "t": 160144.24411458286,
      "d": 153.84616666665534,
      "v": 97
    },
    {
      "midi": 61,
      "hit": false,
      "t": 160153.85949999953,
      "d": 153.84616666665534,
      "v": 97
    },
    {
      "midi": 58,
      "hit": false,
      "t": 160153.85949999953,
      "d": 173.07693749997998,
      "v": 91
    },
    {
      "midi": 53,
      "hit": false,
      "t": 160163.4748854162,
      "d": 115.38462500000605,
      "v": 95
    },
    {
      "midi": 59,
      "hit": false,
      "t": 160394.24413541617,
      "d": 115.38462500000605,
      "v": 110
    },
    {
      "midi": 56,
      "hit": false,
      "t": 160394.24413541617,
      "d": 125.00001041666837,
      "v": 110
    },
    {
      "midi": 54,
      "hit": false,
      "t": 160394.24413541617,
      "d": 144.23078124999302,
      "v": 110
    },
    {
      "midi": 63,
      "hit": false,
      "t": 160394.24413541617,
      "d": 173.07693749997998,
      "v": 110
    },
    {
      "midi": 37,
      "hit": false,
      "t": 160615.3979999995,
      "d": 692.3077499999781,
      "v": 79
    },
    {
      "midi": 49,
      "hit": false,
      "t": 160836.5518645828,
      "d": 692.3077499999781,
      "v": 73
    },
    {
      "midi": 54,
      "hit": false,
      "t": 160836.5518645828,
      "d": 692.3077499999781,
      "v": 73
    },
    {
      "midi": 56,
      "hit": false,
      "t": 160836.5518645828,
      "d": 692.3077499999781,
      "v": 73
    },
    {
      "midi": 59,
      "hit": false,
      "t": 160836.5518645828,
      "d": 692.3077499999781,
      "v": 73
    },
    {
      "midi": 63,
      "hit": false,
      "t": 160836.5518645828,
      "d": 692.3077499999781,
      "v": 73
    },
    {
      "midi": 37,
      "hit": false,
      "t": 161317.32113541613,
      "d": 211.53847916665836,
      "v": 67
    },
    {
      "midi": 37,
      "hit": false,
      "t": 161548.09038541612,
      "d": 903.8462291666656,
      "v": 77
    },
    {
      "midi": 49,
      "hit": false,
      "t": 161548.09038541612,
      "d": 903.8462291666656,
      "v": 77
    },
    {
      "midi": 53,
      "hit": false,
      "t": 161548.09038541612,
      "d": 903.8462291666656,
      "v": 77
    },
    {
      "midi": 56,
      "hit": false,
      "t": 161548.09038541612,
      "d": 903.8462291666656,
      "v": 77
    },
    {
      "midi": 59,
      "hit": false,
      "t": 161548.09038541612,
      "d": 903.8462291666656,
      "v": 77
    },
    {
      "midi": 61,
      "hit": false,
      "t": 161548.09038541612,
      "d": 903.8462291666656,
      "v": 77
    },
    {
      "midi": 56,
      "hit": false,
      "t": 162461.55199999944,
      "d": 903.8462291666656,
      "v": 92
    },
    {
      "midi": 58,
      "hit": false,
      "t": 162461.55199999944,
      "d": 903.8462291666656,
      "v": 92
    },
    {
      "midi": 61,
      "hit": false,
      "t": 162461.55199999944,
      "d": 903.8462291666656,
      "v": 92
    },
    {
      "midi": 65,
      "hit": false,
      "t": 162461.55199999944,
      "d": 903.8462291666656,
      "v": 92
    },
    {
      "midi": 42,
      "hit": false,
      "t": 162461.55199999944,
      "d": 1826.9232291666558,
      "v": 92
    },
    {
      "midi": 49,
      "hit": false,
      "t": 162461.55199999944,
      "d": 1826.9232291666558,
      "v": 92
    },
    {
      "midi": 56,
      "hit": false,
      "t": 163375.01361458277,
      "d": 913.4616145833279,
      "v": 96
    },
    {
      "midi": 58,
      "hit": false,
      "t": 163375.01361458277,
      "d": 913.4616145833279,
      "v": 96
    },
    {
      "midi": 61,
      "hit": false,
      "t": 163375.01361458277,
      "d": 913.4616145833279,
      "v": 96
    },
    {
      "midi": 65,
      "hit": false,
      "t": 163375.01361458277,
      "d": 913.4616145833279,
      "v": 96
    },
    {
      "midi": 56,
      "hit": false,
      "t": 164307.70599999942,
      "d": 923.0769999999902,
      "v": 96
    },
    {
      "midi": 44,
      "hit": false,
      "t": 164307.70599999942,
      "d": 932.6923854166525,
      "v": 96
    },
    {
      "midi": 51,
      "hit": false,
      "t": 164307.70599999942,
      "d": 932.6923854166525,
      "v": 96
    },
    {
      "midi": 54,
      "hit": false,
      "t": 164307.70599999942,
      "d": 932.6923854166525,
      "v": 96
    },
    {
      "midi": 59,
      "hit": false,
      "t": 164307.70599999942,
      "d": 932.6923854166525,
      "v": 96
    },
    {
      "midi": 63,
      "hit": false,
      "t": 164307.70599999942,
      "d": 932.6923854166525,
      "v": 96
    },
    {
      "midi": 61,
      "hit": false,
      "t": 165230.7829999994,
      "d": 884.6154583333409,
      "v": 96
    },
    {
      "midi": 46,
      "hit": false,
      "t": 165240.39838541608,
      "d": 875.0000729166786,
      "v": 96
    },
    {
      "midi": 56,
      "hit": false,
      "t": 165240.39838541608,
      "d": 875.0000729166786,
      "v": 96
    },
    {
      "midi": 58,
      "hit": false,
      "t": 165240.39838541608,
      "d": 875.0000729166786,
      "v": 96
    },
    {
      "midi": 65,
      "hit": false,
      "t": 165240.39838541608,
      "d": 875.0000729166786,
      "v": 96
    },
    {
      "midi": 48,
      "hit": false,
      "t": 166144.24461458274,
      "d": 240.38463541664532,
      "v": 87
    },
    {
      "midi": 58,
      "hit": false,
      "t": 166153.8599999994,
      "d": 38.46154166664928,
      "v": 61
    },
    {
      "midi": 60,
      "hit": false,
      "t": 166153.8599999994,
      "d": 38.46154166664928,
      "v": 80
    },
    {
      "midi": 67,
      "hit": false,
      "t": 166153.8599999994,
      "d": 38.46154166664928,
      "v": 78
    },
    {
      "midi": 63,
      "hit": false,
      "t": 166163.47538541607,
      "d": 19.23077083332464,
      "v": 47
    },
    {
      "midi": 60,
      "hit": false,
      "t": 166384.6292499994,
      "d": 134.6153958333307,
      "v": 119
    },
    {
      "midi": 67,
      "hit": false,
      "t": 166384.6292499994,
      "d": 134.6153958333307,
      "v": 119
    },
    {
      "midi": 63,
      "hit": false,
      "t": 166384.6292499994,
      "d": 144.23078124999302,
      "v": 119
    },
    {
      "midi": 58,
      "hit": false,
      "t": 166384.6292499994,
      "d": 153.84616666665534,
      "v": 119
    },
    {
      "midi": 60,
      "hit": false,
      "t": 166625.01388541603,
      "d": 96.15385416665231,
      "v": 73
    },
    {
      "midi": 62,
      "hit": false,
      "t": 166625.01388541603,
      "d": 105.76923958331463,
      "v": 83
    },
    {
      "midi": 57,
      "hit": false,
      "t": 166625.01388541603,
      "d": 115.38462499997695,
      "v": 75
    },
    {
      "midi": 65,
      "hit": false,
      "t": 166625.01388541603,
      "d": 134.6153958333016,
      "v": 74
    },
    {
      "midi": 48,
      "hit": false,
      "t": 166836.55236458266,
      "d": 57.69231250000303,
      "v": 77
    },
    {
      "midi": 63,
      "hit": false,
      "t": 167076.93699999934,
      "d": 230.769249999983,
      "v": 121
    },
    {
      "midi": 58,
      "hit": false,
      "t": 167076.93699999934,
      "d": 240.38463541664532,
      "v": 121
    },
    {
      "midi": 60,
      "hit": false,
      "t": 167076.93699999934,
      "d": 240.38463541664532,
      "v": 121
    },
    {
      "midi": 67,
      "hit": false,
      "t": 167076.93699999934,
      "d": 240.38463541664532,
      "v": 121
    },
    {
      "midi": 48,
      "hit": false,
      "t": 167298.09086458266,
      "d": 67.30769791666535,
      "v": 62
    },
    {
      "midi": 57,
      "hit": false,
      "t": 167538.47549999933,
      "d": 125.00001041666837,
      "v": 100
    },
    {
      "midi": 60,
      "hit": false,
      "t": 167538.47549999933,
      "d": 153.84616666665534,
      "v": 95
    },
    {
      "midi": 65,
      "hit": false,
      "t": 167538.47549999933,
      "d": 153.84616666665534,
      "v": 92
    },
    {
      "midi": 62,
      "hit": false,
      "t": 167548.090885416,
      "d": 134.6153958333307,
      "v": 102
    },
    {
      "midi": 60,
      "hit": false,
      "t": 167778.86013541598,
      "d": 163.46155208334676,
      "v": 114
    },
    {
      "midi": 67,
      "hit": false,
      "t": 167778.86013541598,
      "d": 163.46155208334676,
      "v": 114
    },
    {
      "midi": 63,
      "hit": false,
      "t": 167778.86013541598,
      "d": 173.07693750000908,
      "v": 114
    },
    {
      "midi": 58,
      "hit": false,
      "t": 167778.86013541598,
      "d": 192.30770833333372,
      "v": 114
    },
    {
      "midi": 41,
      "hit": false,
      "t": 168009.629385416,
      "d": 1750.00014583327,
      "v": 80
    },
    {
      "midi": 56,
      "hit": false,
      "t": 168230.7832499993,
      "d": 451.9231145833328,
      "v": 66
    },
    {
      "midi": 60,
      "hit": false,
      "t": 168240.39863541597,
      "d": 442.30772916667047,
      "v": 66
    },
    {
      "midi": 63,
      "hit": false,
      "t": 168240.39863541597,
      "d": 442.30772916667047,
      "v": 44
    },
    {
      "midi": 65,
      "hit": false,
      "t": 168240.39863541597,
      "d": 442.30772916667047,
      "v": 58
    },
    {
      "midi": 53,
      "hit": false,
      "t": 168240.39863541597,
      "d": 548.0769687499851,
      "v": 68
    },
    {
      "midi": 56,
      "hit": false,
      "t": 168692.3217499993,
      "d": 673.0769791666535,
      "v": 70
    },
    {
      "midi": 60,
      "hit": false,
      "t": 168692.3217499993,
      "d": 673.0769791666535,
      "v": 70
    },
    {
      "midi": 63,
      "hit": false,
      "t": 168692.3217499993,
      "d": 673.0769791666535,
      "v": 70
    },
    {
      "midi": 65,
      "hit": false,
      "t": 168692.3217499993,
      "d": 673.0769791666535,
      "v": 70
    },
    {
      "midi": 53,
      "hit": false,
      "t": 169153.8602499993,
      "d": 442.30772916664137,
      "v": 91
    },
    {
      "midi": 56,
      "hit": false,
      "t": 169375.01411458262,
      "d": 384.61541666663834,
      "v": 72
    },
    {
      "midi": 60,
      "hit": false,
      "t": 169375.01411458262,
      "d": 384.61541666663834,
      "v": 72
    },
    {
      "midi": 63,
      "hit": false,
      "t": 169375.01411458262,
      "d": 384.61541666663834,
      "v": 72
    },
    {
      "midi": 65,
      "hit": false,
      "t": 169375.01411458262,
      "d": 384.61541666663834,
      "v": 72
    },
    {
      "midi": 53,
      "hit": false,
      "t": 169605.7833645826,
      "d": 153.84616666665534,
      "v": 73
    },
    {
      "midi": 46,
      "hit": false,
      "t": 169846.16799999925,
      "d": 250.00002083330764,
      "v": 113
    },
    {
      "midi": 58,
      "hit": false,
      "t": 170067.32186458257,
      "d": 134.6153958333307,
      "v": 121
    },
    {
      "midi": 61,
      "hit": false,
      "t": 170067.32186458257,
      "d": 134.6153958333307,
      "v": 121
    },
    {
      "midi": 65,
      "hit": false,
      "t": 170076.93724999923,
      "d": 134.6153958333307,
      "v": 122
    },
    {
      "midi": 56,
      "hit": false,
      "t": 170076.93724999923,
      "d": 153.84616666665534,
      "v": 122
    },
    {
      "midi": 58,
      "hit": false,
      "t": 170307.7064999992,
      "d": 96.15385416665231,
      "v": 53
    },
    {
      "midi": 63,
      "hit": false,
      "t": 170307.7064999992,
      "d": 125.00001041663927,
      "v": 70
    },
    {
      "midi": 60,
      "hit": false,
      "t": 170317.32188541588,
      "d": 96.15385416665231,
      "v": 76
    },
    {
      "midi": 55,
      "hit": false,
      "t": 170317.32188541588,
      "d": 134.6153958333016,
      "v": 68
    },
    {
      "midi": 46,
      "hit": false,
      "t": 170528.8603645825,
      "d": 48.076927083340706,
      "v": 70
    },
    {
      "midi": 61,
      "hit": false,
      "t": 170769.24499999918,
      "d": 192.30770833333372,
      "v": 119
    },
    {
      "midi": 65,
      "hit": false,
      "t": 170769.24499999918,
      "d": 259.61540624999907,
      "v": 119
    },
    {
      "midi": 56,
      "hit": false,
      "t": 170769.24499999918,
      "d": 278.8461770833237,
      "v": 119
    },
    {
      "midi": 58,
      "hit": false,
      "t": 170769.24499999918,
      "d": 307.69233333331067,
      "v": 119
    },
    {
      "midi": 46,
      "hit": false,
      "t": 170990.3988645825,
      "d": 326.9231041666353,
      "v": 101
    },
    {
      "midi": 55,
      "hit": false,
      "t": 171221.16811458248,
      "d": 105.76923958331463,
      "v": 87
    },
    {
      "midi": 58,
      "hit": false,
      "t": 171221.16811458248,
      "d": 134.6153958333016,
      "v": 71
    },
    {
      "midi": 63,
      "hit": false,
      "t": 171221.16811458248,
      "d": 153.84616666662623,
      "v": 74
    },
    {
      "midi": 60,
      "hit": false,
      "t": 171240.3988854158,
      "d": 96.15385416665231,
      "v": 76
    },
    {
      "midi": 58,
      "hit": false,
      "t": 171461.5527499991,
      "d": 115.38462500000605,
      "v": 112
    },
    {
      "midi": 61,
      "hit": false,
      "t": 171461.5527499991,
      "d": 134.6153958333307,
      "v": 112
    },
    {
      "midi": 56,
      "hit": false,
      "t": 171461.5527499991,
      "d": 144.23078124999302,
      "v": 112
    },
    {
      "midi": 65,
      "hit": false,
      "t": 171461.5527499991,
      "d": 144.23078124999302,
      "v": 112
    },
    {
      "midi": 39,
      "hit": false,
      "t": 171692.32199999908,
      "d": 692.3077499999781,
      "v": 89
    },
    {
      "midi": 51,
      "hit": false,
      "t": 171913.4758645824,
      "d": 673.0769791666535,
      "v": 83
    },
    {
      "midi": 56,
      "hit": false,
      "t": 171913.4758645824,
      "d": 673.0769791666535,
      "v": 83
    },
    {
      "midi": 58,
      "hit": false,
      "t": 171913.4758645824,
      "d": 673.0769791666535,
      "v": 83
    },
    {
      "midi": 61,
      "hit": false,
      "t": 171913.4758645824,
      "d": 673.0769791666535,
      "v": 83
    },
    {
      "midi": 65,
      "hit": false,
      "t": 171913.4758645824,
      "d": 673.0769791666535,
      "v": 83
    },
    {
      "midi": 39,
      "hit": false,
      "t": 172394.24513541572,
      "d": 192.30770833333372,
      "v": 74
    },
    {
      "midi": 61,
      "hit": false,
      "t": 172605.78361458238,
      "d": 375.0000312500051,
      "v": 85
    },
    {
      "midi": 58,
      "hit": false,
      "t": 172615.39899999904,
      "d": 365.3846458333428,
      "v": 85
    },
    {
      "midi": 55,
      "hit": false,
      "t": 172615.39899999904,
      "d": 375.0000312500051,
      "v": 85
    },
    {
      "midi": 63,
      "hit": false,
      "t": 172615.39899999904,
      "d": 375.0000312500051,
      "v": 85
    },
    {
      "midi": 51,
      "hit": false,
      "t": 172615.39899999904,
      "d": 673.0769791666535,
      "v": 85
    },
    {
      "midi": 39,
      "hit": false,
      "t": 172615.39899999904,
      "d": 846.1539166666626,
      "v": 85
    },
    {
      "midi": 55,
      "hit": false,
      "t": 173067.32211458238,
      "d": 394.23080208332976,
      "v": 73
    },
    {
      "midi": 58,
      "hit": false,
      "t": 173067.32211458238,
      "d": 394.23080208332976,
      "v": 71
    },
    {
      "midi": 61,
      "hit": false,
      "t": 173067.32211458238,
      "d": 394.23080208332976,
      "v": 68
    },
    {
      "midi": 63,
      "hit": false,
      "t": 173067.32211458238,
      "d": 394.23080208332976,
      "v": 75
    },
    {
      "midi": 51,
      "hit": false,
      "t": 173298.09136458236,
      "d": 163.46155208334676,
      "v": 95
    },
    {
      "midi": 44,
      "hit": false,
      "t": 173528.86061458237,
      "d": 269.2307916666614,
      "v": 107
    },
    {
      "midi": 59,
      "hit": false,
      "t": 173759.62986458238,
      "d": 28.84615624998696,
      "v": 123
    },
    {
      "midi": 56,
      "hit": false,
      "t": 173759.62986458238,
      "d": 115.38462499997695,
      "v": 123
    },
    {
      "midi": 54,
      "hit": false,
      "t": 173759.62986458238,
      "d": 125.00001041663927,
      "v": 123
    },
    {
      "midi": 63,
      "hit": false,
      "t": 173759.62986458238,
      "d": 153.84616666662623,
      "v": 123
    },
    {
      "midi": 58,
      "hit": false,
      "t": 173990.39911458234,
      "d": 115.38462500000605,
      "v": 63
    },
    {
      "midi": 56,
      "hit": false,
      "t": 173990.39911458234,
      "d": 134.6153958333307,
      "v": 65
    },
    {
      "midi": 61,
      "hit": false,
      "t": 173990.39911458234,
      "d": 144.23078124999302,
      "v": 77
    },
    {
      "midi": 53,
      "hit": false,
      "t": 174000.014499999,
      "d": 163.46155208331766,
      "v": 79
    },
    {
      "midi": 44,
      "hit": false,
      "t": 174221.16836458232,
      "d": 67.30769791666535,
      "v": 87
    },
    {
      "midi": 59,
      "hit": false,
      "t": 174461.552999999,
      "d": 144.23078124999302,
      "v": 122
    },
    {
      "midi": 54,
      "hit": false,
      "t": 174461.552999999,
      "d": 240.38463541664532,
      "v": 122
    },
    {
      "midi": 63,
      "hit": false,
      "t": 174461.552999999,
      "d": 269.2307916666323,
      "v": 122
    },
    {
      "midi": 56,
      "hit": false,
      "t": 174461.552999999,
      "d": 326.9231041666353,
      "v": 122
    },
    {
      "midi": 44,
      "hit": false,
      "t": 174701.93763541564,
      "d": 48.0769270833116,
      "v": 73
    },
    {
      "midi": 56,
      "hit": false,
      "t": 174913.4761145823,
      "d": 182.6923229166714,
      "v": 89
    },
    {
      "midi": 61,
      "hit": false,
      "t": 174913.4761145823,
      "d": 182.6923229166714,
      "v": 85
    },
    {
      "midi": 53,
      "hit": false,
      "t": 174923.09149999896,
      "d": 125.00001041666837,
      "v": 92
    },
    {
      "midi": 58,
      "hit": false,
      "t": 174923.09149999896,
      "d": 134.6153958333307,
      "v": 70
    },
    {
      "midi": 59,
      "hit": false,
      "t": 175163.47613541564,
      "d": 115.38462500000605,
      "v": 112
    },
    {
      "midi": 56,
      "hit": false,
      "t": 175163.47613541564,
      "d": 125.00001041666837,
      "v": 112
    },
    {
      "midi": 54,
      "hit": false,
      "t": 175163.47613541564,
      "d": 153.84616666665534,
      "v": 112
    },
    {
      "midi": 63,
      "hit": false,
      "t": 175163.47613541564,
      "d": 153.84616666665534,
      "v": 112
    },
    {
      "midi": 37,
      "hit": false,
      "t": 175384.62999999896,
      "d": 692.3077499999781,
      "v": 84
    },
    {
      "midi": 54,
      "hit": false,
      "t": 175605.78386458228,
      "d": 673.0769791666535,
      "v": 72
    },
    {
      "midi": 56,
      "hit": false,
      "t": 175605.78386458228,
      "d": 673.0769791666535,
      "v": 72
    },
    {
      "midi": 59,
      "hit": false,
      "t": 175605.78386458228,
      "d": 673.0769791666535,
      "v": 72
    },
    {
      "midi": 63,
      "hit": false,
      "t": 175605.78386458228,
      "d": 673.0769791666535,
      "v": 72
    },
    {
      "midi": 49,
      "hit": false,
      "t": 175615.39924999894,
      "d": 663.4615937499912,
      "v": 73
    },
    {
      "midi": 37,
      "hit": false,
      "t": 176086.5531354156,
      "d": 192.30770833333372,
      "v": 68
    },
    {
      "midi": 37,
      "hit": false,
      "t": 176298.09161458226,
      "d": 903.8462291666656,
      "v": 76
    },
    {
      "midi": 49,
      "hit": false,
      "t": 176298.09161458226,
      "d": 903.8462291666656,
      "v": 76
    },
    {
      "midi": 53,
      "hit": false,
      "t": 176298.09161458226,
      "d": 903.8462291666656,
      "v": 76
    },
    {
      "midi": 56,
      "hit": false,
      "t": 176298.09161458226,
      "d": 903.8462291666656,
      "v": 76
    },
    {
      "midi": 59,
      "hit": false,
      "t": 176298.09161458226,
      "d": 903.8462291666656,
      "v": 76
    },
    {
      "midi": 61,
      "hit": false,
      "t": 176298.09161458226,
      "d": 903.8462291666656,
      "v": 76
    },
    {
      "midi": 56,
      "hit": false,
      "t": 177221.16861458225,
      "d": 932.6923854166525,
      "v": 74
    },
    {
      "midi": 58,
      "hit": false,
      "t": 177221.16861458225,
      "d": 932.6923854166525,
      "v": 74
    },
    {
      "midi": 61,
      "hit": false,
      "t": 177221.16861458225,
      "d": 932.6923854166525,
      "v": 74
    },
    {
      "midi": 65,
      "hit": false,
      "t": 177221.16861458225,
      "d": 932.6923854166525,
      "v": 74
    },
    {
      "midi": 49,
      "hit": false,
      "t": 177221.16861458225,
      "d": 1375.000114583323,
      "v": 74
    },
    {
      "midi": 42,
      "hit": false,
      "t": 177221.16861458225,
      "d": 1826.9232291666558,
      "v": 74
    },
    {
      "midi": 56,
      "hit": false,
      "t": 178163.47638541556,
      "d": 884.6154583333409,
      "v": 107
    },
    {
      "midi": 58,
      "hit": false,
      "t": 178163.47638541556,
      "d": 884.6154583333409,
      "v": 89
    },
    {
      "midi": 61,
      "hit": false,
      "t": 178163.47638541556,
      "d": 884.6154583333409,
      "v": 82
    },
    {
      "midi": 65,
      "hit": false,
      "t": 178163.47638541556,
      "d": 884.6154583333409,
      "v": 95
    },
    {
      "midi": 49,
      "hit": false,
      "t": 178605.78411458223,
      "d": 442.30772916667047,
      "v": 67
    },
    {
      "midi": 44,
      "hit": false,
      "t": 179067.32261458223,
      "d": 923.0769999999902,
      "v": 96
    },
    {
      "midi": 51,
      "hit": false,
      "t": 179067.32261458223,
      "d": 923.0769999999902,
      "v": 96
    },
    {
      "midi": 54,
      "hit": false,
      "t": 179067.32261458223,
      "d": 923.0769999999902,
      "v": 96
    },
    {
      "midi": 56,
      "hit": false,
      "t": 179067.32261458223,
      "d": 923.0769999999902,
      "v": 96
    },
    {
      "midi": 59,
      "hit": false,
      "t": 179067.32261458223,
      "d": 923.0769999999902,
      "v": 96
    },
    {
      "midi": 63,
      "hit": false,
      "t": 179067.32261458223,
      "d": 923.0769999999902,
      "v": 96
    },
    {
      "midi": 58,
      "hit": false,
      "t": 180000.01499999888,
      "d": 913.4616145833279,
      "v": 102
    },
    {
      "midi": 46,
      "hit": false,
      "t": 180000.01499999888,
      "d": 932.6923854166525,
      "v": 102
    },
    {
      "midi": 56,
      "hit": false,
      "t": 180000.01499999888,
      "d": 932.6923854166525,
      "v": 102
    },
    {
      "midi": 61,
      "hit": false,
      "t": 180000.01499999888,
      "d": 932.6923854166525,
      "v": 102
    },
    {
      "midi": 65,
      "hit": false,
      "t": 180000.01499999888,
      "d": 932.6923854166525,
      "v": 102
    },
    {
      "midi": 58,
      "hit": false,
      "t": 180923.09199999887,
      "d": 932.6923854166525,
      "v": 108
    },
    {
      "midi": 63,
      "hit": false,
      "t": 180923.09199999887,
      "d": 932.6923854166525,
      "v": 108
    },
    {
      "midi": 59,
      "hit": false,
      "t": 180932.70738541553,
      "d": 913.4616145833279,
      "v": 108
    },
    {
      "midi": 47,
      "hit": false,
      "t": 180932.70738541553,
      "d": 923.0769999999902,
      "v": 108
    },
    {
      "midi": 54,
      "hit": false,
      "t": 180932.70738541553,
      "d": 923.0769999999902,
      "v": 108
    },
    {
      "midi": 49,
      "hit": false,
      "t": 181855.78438541552,
      "d": 913.4616145833279,
      "v": 117
    },
    {
      "midi": 56,
      "hit": false,
      "t": 181855.78438541552,
      "d": 913.4616145833279,
      "v": 117
    },
    {
      "midi": 59,
      "hit": false,
      "t": 181855.78438541552,
      "d": 913.4616145833279,
      "v": 117
    },
    {
      "midi": 61,
      "hit": false,
      "t": 181855.78438541552,
      "d": 913.4616145833279,
      "v": 117
    },
    {
      "midi": 64,
      "hit": false,
      "t": 181855.78438541552,
      "d": 913.4616145833279,
      "v": 117
    },
    {
      "midi": 51,
      "hit": false,
      "t": 182769.24599999885,
      "d": 692.3077499999781,
      "v": 122
    },
    {
      "midi": 58,
      "hit": false,
      "t": 182778.8613854155,
      "d": 653.8462083333288,
      "v": 122
    },
    {
      "midi": 61,
      "hit": false,
      "t": 182778.8613854155,
      "d": 663.4615937499912,
      "v": 122
    },
    {
      "midi": 63,
      "hit": false,
      "t": 182778.8613854155,
      "d": 673.0769791666535,
      "v": 122
    },
    {
      "midi": 66,
      "hit": false,
      "t": 182778.8613854155,
      "d": 673.0769791666535,
      "v": 122
    },
    {
      "midi": 41,
      "hit": false,
      "t": 183692.32299999884,
      "d": 673.0769791666535,
      "v": 90
    },
    {
      "midi": 60,
      "hit": false,
      "t": 183923.09224999885,
      "d": 144.23078124999302,
      "v": 109
    },
    {
      "midi": 68,
      "hit": false,
      "t": 183923.09224999885,
      "d": 144.23078124999302,
      "v": 109
    },
    {
      "midi": 63,
      "hit": false,
      "t": 183932.7076354155,
      "d": 134.6153958333307,
      "v": 109
    },
    {
      "midi": 65,
      "hit": false,
      "t": 183932.7076354155,
      "d": 250.00002083330764,
      "v": 109
    },
    {
      "midi": 67,
      "hit": false,
      "t": 184153.86149999883,
      "d": 173.07693749997998,
      "v": 69
    },
    {
      "midi": 63,
      "hit": false,
      "t": 184163.4768854155,
      "d": 125.00001041666837,
      "v": 78
    },
    {
      "midi": 58,
      "hit": false,
      "t": 184163.4768854155,
      "d": 144.23078124999302,
      "v": 75
    },
    {
      "midi": 53,
      "hit": false,
      "t": 184375.01536458216,
      "d": 461.538499999966,
      "v": 70
    },
    {
      "midi": 63,
      "hit": false,
      "t": 184605.78461458217,
      "d": 144.23078124999302,
      "v": 111
    },
    {
      "midi": 65,
      "hit": false,
      "t": 184605.78461458217,
      "d": 163.46155208331766,
      "v": 111
    },
    {
      "midi": 68,
      "hit": false,
      "t": 184605.78461458217,
      "d": 192.30770833330462,
      "v": 111
    },
    {
      "midi": 60,
      "hit": false,
      "t": 184605.78461458217,
      "d": 221.15386458329158,
      "v": 111
    },
    {
      "midi": 41,
      "hit": false,
      "t": 184855.78463541545,
      "d": 480.76927083331975,
      "v": 94
    },
    {
      "midi": 67,
      "hit": false,
      "t": 185067.3231145821,
      "d": 182.6923229166714,
      "v": 91
    },
    {
      "midi": 63,
      "hit": false,
      "t": 185067.3231145821,
      "d": 192.30770833333372,
      "v": 87
    },
    {
      "midi": 58,
      "hit": false,
      "t": 185076.93849999877,
      "d": 163.46155208334676,
      "v": 104
    },
    {
      "midi": 63,
      "hit": false,
      "t": 185317.32313541544,
      "d": 105.76923958331463,
      "v": 99
    },
    {
      "midi": 65,
      "hit": false,
      "t": 185317.32313541544,
      "d": 105.76923958331463,
      "v": 99
    },
    {
      "midi": 60,
      "hit": false,
      "t": 185317.32313541544,
      "d": 134.6153958333016,
      "v": 99
    },
    {
      "midi": 68,
      "hit": false,
      "t": 185317.32313541544,
      "d": 134.6153958333016,
      "v": 99
    },
    {
      "midi": 46,
      "hit": false,
      "t": 186221.16936458208,
      "d": 365.3846458333428,
      "v": 62
    },
    {
      "midi": 58,
      "hit": false,
      "t": 186461.55399999875,
      "d": 326.9231041666644,
      "v": 73
    },
    {
      "midi": 61,
      "hit": false,
      "t": 186461.55399999875,
      "d": 326.9231041666644,
      "v": 73
    },
    {
      "midi": 65,
      "hit": false,
      "t": 186461.55399999875,
      "d": 326.9231041666644,
      "v": 73
    },
    {
      "midi": 68,
      "hit": false,
      "t": 186461.55399999875,
      "d": 336.53848958332674,
      "v": 73
    },
    {
      "midi": 46,
      "hit": false,
      "t": 186692.32324999876,
      "d": 250.00002083330764,
      "v": 74
    },
    {
      "midi": 68,
      "hit": false,
      "t": 186913.47711458209,
      "d": 269.2307916666614,
      "v": 69
    },
    {
      "midi": 58,
      "hit": false,
      "t": 186913.47711458209,
      "d": 307.69233333331067,
      "v": 69
    },
    {
      "midi": 65,
      "hit": false,
      "t": 186923.09249999875,
      "d": 259.61540624999907,
      "v": 69
    },
    {
      "midi": 61,
      "hit": false,
      "t": 186923.09249999875,
      "d": 298.07694791664835,
      "v": 69
    },
    {
      "midi": 46,
      "hit": false,
      "t": 187144.24636458207,
      "d": 57.69231250000303,
      "v": 69
    },
    {
      "midi": 39,
      "hit": false,
      "t": 187394.2463854154,
      "d": 461.538499999966,
      "v": 76
    },
    {
      "midi": 58,
      "hit": false,
      "t": 187615.40024999873,
      "d": 144.23078124999302,
      "v": 110
    },
    {
      "midi": 66,
      "hit": false,
      "t": 187615.40024999873,
      "d": 144.23078124999302,
      "v": 110
    },
    {
      "midi": 63,
      "hit": false,
      "t": 187615.40024999873,
      "d": 163.46155208331766,
      "v": 110
    },
    {
      "midi": 61,
      "hit": false,
      "t": 187625.0156354154,
      "d": 86.53846874998999,
      "v": 110
    },
    {
      "midi": 61,
      "hit": false,
      "t": 187846.1694999987,
      "d": 96.15385416665231,
      "v": 81
    },
    {
      "midi": 56,
      "hit": false,
      "t": 187855.78488541537,
      "d": 105.76923958331463,
      "v": 85
    },
    {
      "midi": 65,
      "hit": false,
      "t": 187855.78488541537,
      "d": 115.38462499997695,
      "v": 76
    },
    {
      "midi": 51,
      "hit": false,
      "t": 188067.323364582,
      "d": 105.76923958334373,
      "v": 95
    },
    {
      "midi": 61,
      "hit": false,
      "t": 188307.70799999867,
      "d": 144.23078124999302,
      "v": 109
    },
    {
      "midi": 63,
      "hit": false,
      "t": 188307.70799999867,
      "d": 144.23078124999302,
      "v": 109
    },
    {
      "midi": 58,
      "hit": false,
      "t": 188307.70799999867,
      "d": 163.46155208331766,
      "v": 109
    },
    {
      "midi": 66,
      "hit": false,
      "t": 188307.70799999867,
      "d": 182.6923229166423,
      "v": 109
    },
    {
      "midi": 39,
      "hit": false,
      "t": 188538.47724999866,
      "d": 442.30772916661226,
      "v": 91
    },
    {
      "midi": 60,
      "hit": false,
      "t": 188759.63111458198,
      "d": 144.2307812499639,
      "v": 89
    },
    {
      "midi": 68,
      "hit": false,
      "t": 188759.63111458198,
      "d": 153.84616666662623,
      "v": 89
    },
    {
      "midi": 63,
      "hit": false,
      "t": 188769.24649999864,
      "d": 38.46154166664928,
      "v": 88
    },
    {
      "midi": 51,
      "hit": false,
      "t": 188778.8618854153,
      "d": 230.7692499999539,
      "v": 88
    },
    {
      "midi": 58,
      "hit": false,
      "t": 189000.0157499986,
      "d": 173.07693750000908,
      "v": 91
    },
    {
      "midi": 61,
      "hit": false,
      "t": 189000.0157499986,
      "d": 201.92309374999604,
      "v": 91
    },
    {
      "midi": 66,
      "hit": false,
      "t": 189000.0157499986,
      "d": 201.92309374999604,
      "v": 91
    },
    {
      "midi": 44,
      "hit": false,
      "t": 189221.16961458192,
      "d": 471.15388541668653,
      "v": 85
    },
    {
      "midi": 58,
      "hit": false,
      "t": 189451.93886458193,
      "d": 528.8461979166605,
      "v": 68
    },
    {
      "midi": 61,
      "hit": false,
      "t": 189451.93886458193,
      "d": 567.3077395833388,
      "v": 68
    },
    {
      "midi": 66,
      "hit": false,
      "t": 189451.93886458193,
      "d": 567.3077395833388,
      "v": 68
    },
    {
      "midi": 44,
      "hit": false,
      "t": 189913.47736458192,
      "d": 365.3846458333428,
      "v": 67
    },
    {
      "midi": 63,
      "hit": false,
      "t": 190144.24661458193,
      "d": 307.69233333331067,
      "v": 67
    },
    {
      "midi": 56,
      "hit": false,
      "t": 190144.24661458193,
      "d": 326.9231041666353,
      "v": 67
    },
    {
      "midi": 60,
      "hit": false,
      "t": 190144.24661458193,
      "d": 326.9231041666353,
      "v": 67
    },
    {
      "midi": 66,
      "hit": false,
      "t": 190144.24661458193,
      "d": 346.15387499995995,
      "v": 67
    },
    {
      "midi": 44,
      "hit": false,
      "t": 190375.01586458192,
      "d": 240.38463541664532,
      "v": 66
    },
    {
      "midi": 56,
      "hit": false,
      "t": 190605.7851145819,
      "d": 192.30770833333372,
      "v": 66
    },
    {
      "midi": 63,
      "hit": false,
      "t": 190605.7851145819,
      "d": 211.53847916665836,
      "v": 66
    },
    {
      "midi": 60,
      "hit": false,
      "t": 190605.7851145819,
      "d": 230.769249999983,
      "v": 66
    },
    {
      "midi": 66,
      "hit": false,
      "t": 190605.7851145819,
      "d": 278.8461770833237,
      "v": 66
    },
    {
      "midi": 44,
      "hit": false,
      "t": 190836.55436458188,
      "d": 57.69231250000303,
      "v": 66
    },
    {
      "midi": 37,
      "hit": false,
      "t": 191076.93899999856,
      "d": 644.2308229166374,
      "v": 68
    },
    {
      "midi": 59,
      "hit": false,
      "t": 191298.09286458188,
      "d": 96.15385416665231,
      "v": 112
    },
    {
      "midi": 68,
      "hit": false,
      "t": 191298.09286458188,
      "d": 163.46155208331766,
      "v": 112
    },
    {
      "midi": 64,
      "hit": false,
      "t": 191298.09286458188,
      "d": 173.07693749997998,
      "v": 112
    },
    {
      "midi": 63,
      "hit": false,
      "t": 191528.86211458186,
      "d": 134.6153958333307,
      "v": 65
    },
    {
      "midi": 58,
      "hit": false,
      "t": 191528.86211458186,
      "d": 144.23078124999302,
      "v": 65
    },
    {
      "midi": 66,
      "hit": false,
      "t": 191528.86211458186,
      "d": 192.30770833333372,
      "v": 65
    },
    {
      "midi": 49,
      "hit": false,
      "t": 191759.63136458187,
      "d": 461.5385000000242,
      "v": 69
    },
    {
      "midi": 64,
      "hit": false,
      "t": 191990.4006145819,
      "d": 163.46155208334676,
      "v": 110
    },
    {
      "midi": 68,
      "hit": false,
      "t": 191990.4006145819,
      "d": 182.6923229166714,
      "v": 99
    },
    {
      "midi": 59,
      "hit": false,
      "t": 191990.4006145819,
      "d": 192.30770833333372,
      "v": 104
    },
    {
      "midi": 37,
      "hit": false,
      "t": 192221.1698645819,
      "d": 471.15388541665743,
      "v": 87
    },
    {
      "midi": 63,
      "hit": false,
      "t": 192451.9391145819,
      "d": 153.84616666665534,
      "v": 88
    },
    {
      "midi": 58,
      "hit": false,
      "t": 192451.9391145819,
      "d": 173.07693749997998,
      "v": 88
    },
    {
      "midi": 66,
      "hit": false,
      "t": 192451.9391145819,
      "d": 182.6923229166423,
      "v": 88
    },
    {
      "midi": 49,
      "hit": false,
      "t": 192682.7083645819,
      "d": 28.84615624998696,
      "v": 108
    },
    {
      "midi": 64,
      "hit": false,
      "t": 192682.7083645819,
      "d": 125.00001041663927,
      "v": 108
    },
    {
      "midi": 59,
      "hit": false,
      "t": 192692.32374999856,
      "d": 144.2307812499639,
      "v": 110
    },
    {
      "midi": 68,
      "hit": false,
      "t": 192692.32374999856,
      "d": 182.6923229166423,
      "v": 110
    },
    {
      "midi": 42,
      "hit": false,
      "t": 192913.47761458188,
      "d": 557.6923541666765,
      "v": 81
    },
    {
      "midi": 59,
      "hit": false,
      "t": 193144.2468645819,
      "d": 557.6923541666474,
      "v": 81
    },
    {
      "midi": 64,
      "hit": false,
      "t": 193144.2468645819,
      "d": 596.1538958333258,
      "v": 81
    },
    {
      "midi": 68,
      "hit": false,
      "t": 193144.2468645819,
      "d": 596.1538958333258,
      "v": 81
    },
    {
      "midi": 42,
      "hit": false,
      "t": 193605.78536458188,
      "d": 413.4615729166544,
      "v": 80
    },
    {
      "midi": 61,
      "hit": false,
      "t": 193836.55461458187,
      "d": 509.6154270833358,
      "v": 80
    },
    {
      "midi": 66,
      "hit": false,
      "t": 193836.55461458187,
      "d": 519.2308124999981,
      "v": 80
    },
    {
      "midi": 58,
      "hit": false,
      "t": 193836.55461458187,
      "d": 548.0769687499851,
      "v": 80
    },
    {
      "midi": 42,
      "hit": false,
      "t": 194317.32388541522,
      "d": 423.0769583333167,
      "v": 80
    },
    {
      "midi": 54,
      "hit": false,
      "t": 194759.63161458186,
      "d": 826.9231458333379,
      "v": 85
    },
    {
      "midi": 63,
      "hit": false,
      "t": 194759.63161458186,
      "d": 836.5385312500002,
      "v": 85
    },
    {
      "midi": 58,
      "hit": false,
      "t": 194759.63161458186,
      "d": 846.1539166666626,
      "v": 85
    },
    {
      "midi": 59,
      "hit": false,
      "t": 194759.63161458186,
      "d": 846.1539166666626,
      "v": 85
    },
    {
      "midi": 47,
      "hit": false,
      "t": 194769.24699999852,
      "d": 1278.8462604166707,
      "v": 85
    },
    {
      "midi": 58,
      "hit": false,
      "t": 195682.70861458185,
      "d": 567.3077395833388,
      "v": 79
    },
    {
      "midi": 63,
      "hit": false,
      "t": 195682.70861458185,
      "d": 605.7692812500172,
      "v": 72
    },
    {
      "midi": 54,
      "hit": false,
      "t": 195692.3239999985,
      "d": 528.8461979166896,
      "v": 91
    },
    {
      "midi": 59,
      "hit": false,
      "t": 195692.3239999985,
      "d": 528.8461979166896,
      "v": 92
    },
    {
      "midi": 37,
      "hit": false,
      "t": 196605.78561458187,
      "d": 788.4616041666595,
      "v": 107
    },
    {
      "midi": 56,
      "hit": false,
      "t": 196605.78561458187,
      "d": 807.6923749999842,
      "v": 110
    },
    {
      "midi": 59,
      "hit": false,
      "t": 196605.78561458187,
      "d": 817.3077604166465,
      "v": 108
    },
    {
      "midi": 64,
      "hit": false,
      "t": 196605.78561458187,
      "d": 836.5385312499711,
      "v": 110
    },
    {
      "midi": 49,
      "hit": false,
      "t": 196605.78561458187,
      "d": 846.1539166666334,
      "v": 116
    },
    {
      "midi": 61,
      "hit": false,
      "t": 196605.78561458187,
      "d": 884.6154583333118,
      "v": 101
    },
    {
      "midi": 39,
      "hit": false,
      "t": 197538.47799999852,
      "d": 846.1539166666626,
      "v": 91
    },
    {
      "midi": 58,
      "hit": false,
      "t": 197548.09338541518,
      "d": 826.9231458333379,
      "v": 97
    },
    {
      "midi": 51,
      "hit": false,
      "t": 197548.09338541518,
      "d": 836.5385312500002,
      "v": 113
    },
    {
      "midi": 61,
      "hit": false,
      "t": 197548.09338541518,
      "d": 836.5385312500002,
      "v": 113
    },
    {
      "midi": 63,
      "hit": false,
      "t": 197548.09338541518,
      "d": 846.1539166666626,
      "v": 107
    },
    {
      "midi": 66,
      "hit": false,
      "t": 197548.09338541518,
      "d": 875.0000729166495,
      "v": 107
    },
    {
      "midi": 41,
      "hit": false,
      "t": 198442.32422916515,
      "d": 221.15386458332068,
      "v": 86
    },
    {
      "midi": 60,
      "hit": false,
      "t": 198682.7088645818,
      "d": 144.23078124999302,
      "v": 117
    },
    {
      "midi": 63,
      "hit": false,
      "t": 198682.7088645818,
      "d": 153.84616666665534,
      "v": 117
    },
    {
      "midi": 68,
      "hit": false,
      "t": 198682.7088645818,
      "d": 182.6923229166423,
      "v": 117
    },
    {
      "midi": 65,
      "hit": false,
      "t": 198682.7088645818,
      "d": 192.30770833330462,
      "v": 117
    },
    {
      "midi": 63,
      "hit": false,
      "t": 198913.47811458178,
      "d": 115.38462500000605,
      "v": 71
    },
    {
      "midi": 58,
      "hit": false,
      "t": 198913.47811458178,
      "d": 134.6153958333307,
      "v": 104
    },
    {
      "midi": 67,
      "hit": false,
      "t": 198913.47811458178,
      "d": 153.84616666665534,
      "v": 81
    },
    {
      "midi": 41,
      "hit": false,
      "t": 199163.4781354151,
      "d": 375.0000312500051,
      "v": 88
    },
    {
      "midi": 65,
      "hit": false,
      "t": 199394.2473854151,
      "d": 134.6153958333307,
      "v": 119
    },
    {
      "midi": 63,
      "hit": false,
      "t": 199394.2473854151,
      "d": 144.23078124999302,
      "v": 119
    },
    {
      "midi": 60,
      "hit": false,
      "t": 199394.2473854151,
      "d": 201.92309374999604,
      "v": 119
    },
    {
      "midi": 68,
      "hit": false,
      "t": 199394.2473854151,
      "d": 221.15386458332068,
      "v": 119
    },
    {
      "midi": 41,
      "hit": false,
      "t": 199625.0166354151,
      "d": 240.38463541664532,
      "v": 65
    },
    {
      "midi": 53,
      "hit": false,
      "t": 199625.0166354151,
      "d": 269.2307916666323,
      "v": 80
    },
    {
      "midi": 58,
      "hit": false,
      "t": 199836.55511458174,
      "d": 144.2307812499639,
      "v": 95
    },
    {
      "midi": 63,
      "hit": false,
      "t": 199836.55511458174,
      "d": 153.84616666662623,
      "v": 74
    },
    {
      "midi": 67,
      "hit": false,
      "t": 199836.55511458174,
      "d": 173.07693749995087,
      "v": 85
    },
    {
      "midi": 63,
      "hit": false,
      "t": 200086.55513541502,
      "d": 125.00001041666837,
      "v": 110
    },
    {
      "midi": 65,
      "hit": false,
      "t": 200086.55513541502,
      "d": 153.84616666665534,
      "v": 110
    },
    {
      "midi": 60,
      "hit": false,
      "t": 200086.55513541502,
      "d": 163.46155208331766,
      "v": 110
    },
    {
      "midi": 68,
      "hit": false,
      "t": 200086.55513541502,
      "d": 182.6923229166423,
      "v": 110
    },
    {
      "midi": 46,
      "hit": false,
      "t": 200317.324385415,
      "d": 86.53846874998999,
      "v": 107
    },
    {
      "midi": 46,
      "hit": false,
      "t": 200538.47824999833,
      "d": 48.076927083340706,
      "v": 99
    },
    {
      "midi": 46,
      "hit": false,
      "t": 200990.40136458166,
      "d": 67.30769791666535,
      "v": 82
    },
    {
      "midi": 46,
      "hit": false,
      "t": 201451.93986458165,
      "d": 76.92308333332767,
      "v": 119
    },
    {
      "midi": 65,
      "hit": false,
      "t": 201451.93986458165,
      "d": 144.23078124999302,
      "v": 127
    },
    {
      "midi": 61,
      "hit": false,
      "t": 201451.93986458165,
      "d": 221.15386458332068,
      "v": 119
    },
    {
      "midi": 68,
      "hit": false,
      "t": 201451.93986458165,
      "d": 230.769249999983,
      "v": 116
    },
    {
      "midi": 58,
      "hit": false,
      "t": 201451.93986458165,
      "d": 240.38463541664532,
      "v": 123
    },
    {
      "midi": 61,
      "hit": false,
      "t": 201913.47836458162,
      "d": 182.6923229166714,
      "v": 119
    },
    {
      "midi": 58,
      "hit": false,
      "t": 201913.47836458162,
      "d": 201.92309374999604,
      "v": 116
    },
    {
      "midi": 66,
      "hit": false,
      "t": 201913.47836458162,
      "d": 201.92309374999604,
      "v": 123
    },
    {
      "midi": 39,
      "hit": false,
      "t": 201923.09374999828,
      "d": 192.30770833333372,
      "v": 89
    },
    {
      "midi": 51,
      "hit": false,
      "t": 201923.09374999828,
      "d": 230.7692500000121,
      "v": 107
    },
    {
      "midi": 58,
      "hit": false,
      "t": 202375.01686458162,
      "d": 134.6153958333307,
      "v": 107
    },
    {
      "midi": 61,
      "hit": false,
      "t": 202375.01686458162,
      "d": 134.6153958333307,
      "v": 113
    },
    {
      "midi": 66,
      "hit": false,
      "t": 202375.01686458162,
      "d": 153.84616666665534,
      "v": 119
    },
    {
      "midi": 61,
      "hit": false,
      "t": 202625.01688541492,
      "d": 115.38462500000605,
      "v": 95
    },
    {
      "midi": 65,
      "hit": false,
      "t": 202625.01688541492,
      "d": 134.6153958333307,
      "v": 106
    },
    {
      "midi": 56,
      "hit": false,
      "t": 202625.01688541492,
      "d": 144.23078124999302,
      "v": 107
    },
    {
      "midi": 39,
      "hit": false,
      "t": 202855.7861354149,
      "d": 57.69231250000303,
      "v": 85
    },
    {
      "midi": 61,
      "hit": false,
      "t": 203086.55538541492,
      "d": 134.6153958333307,
      "v": 127
    },
    {
      "midi": 58,
      "hit": false,
      "t": 203086.55538541492,
      "d": 144.23078124999302,
      "v": 119
    },
    {
      "midi": 66,
      "hit": false,
      "t": 203086.55538541492,
      "d": 173.07693749997998,
      "v": 127
    },
    {
      "midi": 39,
      "hit": false,
      "t": 203307.70924999824,
      "d": 201.92309374999604,
      "v": 85
    },
    {
      "midi": 65,
      "hit": false,
      "t": 203528.86311458156,
      "d": 144.2307812499639,
      "v": 106
    },
    {
      "midi": 61,
      "hit": false,
      "t": 203528.86311458156,
      "d": 153.84616666662623,
      "v": 110
    },
    {
      "midi": 68,
      "hit": false,
      "t": 203528.86311458156,
      "d": 173.07693749995087,
      "v": 107
    },
    {
      "midi": 51,
      "hit": false,
      "t": 203548.09388541488,
      "d": 96.15385416665231,
      "v": 104
    },
    {
      "midi": 44,
      "hit": false,
      "t": 203778.86313541484,
      "d": 96.15385416665231,
      "v": 78
    },
    {
      "midi": 61,
      "hit": false,
      "t": 203778.86313541484,
      "d": 163.46155208331766,
      "v": 104
    },
    {
      "midi": 66,
      "hit": false,
      "t": 203778.86313541484,
      "d": 173.07693749997998,
      "v": 95
    },
    {
      "midi": 58,
      "hit": false,
      "t": 203778.86313541484,
      "d": 192.30770833330462,
      "v": 107
    },
    {
      "midi": 61,
      "hit": false,
      "t": 204240.4016354148,
      "d": 67.30769791666535,
      "v": 89
    },
    {
      "midi": 58,
      "hit": false,
      "t": 204240.4016354148,
      "d": 115.38462500000605,
      "v": 85
    },
    {
      "midi": 66,
      "hit": false,
      "t": 204240.4016354148,
      "d": 115.38462500000605,
      "v": 97
    },
    {
      "midi": 44,
      "hit": false,
      "t": 204701.9401354148,
      "d": 38.461541666678386,
      "v": 107
    },
    {
      "midi": 61,
      "hit": false,
      "t": 204913.4786145815,
      "d": 57.69231250000303,
      "v": 97
    },
    {
      "midi": 66,
      "hit": false,
      "t": 204913.4786145815,
      "d": 67.30769791666535,
      "v": 107
    },
    {
      "midi": 58,
      "hit": false,
      "t": 204913.4786145815,
      "d": 76.92308333332767,
      "v": 97
    },
    {
      "midi": 44,
      "hit": false,
      "t": 204932.7093854148,
      "d": 38.461541666678386,
      "v": 101
    },
    {
      "midi": 44,
      "hit": false,
      "t": 205163.47863541482,
      "d": 57.69231250000303,
      "v": 101
    },
    {
      "midi": 61,
      "hit": false,
      "t": 205163.47863541482,
      "d": 134.6153958333307,
      "v": 123
    },
    {
      "midi": 58,
      "hit": false,
      "t": 205163.47863541482,
      "d": 182.6923229166714,
      "v": 119
    },
    {
      "midi": 66,
      "hit": false,
      "t": 205163.47863541482,
      "d": 192.30770833333372,
      "v": 127
    },
    {
      "midi": 37,
      "hit": false,
      "t": 205605.7863645815,
      "d": 76.92308333332767,
      "v": 89
    },
    {
      "midi": 64,
      "hit": false,
      "t": 205605.7863645815,
      "d": 173.07693749997998,
      "v": 110
    },
    {
      "midi": 68,
      "hit": false,
      "t": 205605.7863645815,
      "d": 201.92309374996694,
      "v": 101
    },
    {
      "midi": 59,
      "hit": false,
      "t": 205605.7863645815,
      "d": 211.53847916662926,
      "v": 106
    },
    {
      "midi": 49,
      "hit": false,
      "t": 205625.01713541482,
      "d": 48.076927083340706,
      "v": 99
    },
    {
      "midi": 59,
      "hit": false,
      "t": 206076.94024999812,
      "d": 115.38462500000605,
      "v": 108
    },
    {
      "midi": 64,
      "hit": false,
      "t": 206076.94024999812,
      "d": 173.07693750000908,
      "v": 120
    },
    {
      "midi": 37,
      "hit": false,
      "t": 206086.55563541478,
      "d": 48.076927083340706,
      "v": 85
    },
    {
      "midi": 49,
      "hit": false,
      "t": 206086.55563541478,
      "d": 48.076927083340706,
      "v": 99
    },
    {
      "midi": 68,
      "hit": false,
      "t": 206086.55563541478,
      "d": 144.23078125002212,
      "v": 116
    },
    {
      "midi": 63,
      "hit": false,
      "t": 206307.70949999813,
      "d": 173.07693750000908,
      "v": 97
    },
    {
      "midi": 58,
      "hit": false,
      "t": 206307.70949999813,
      "d": 182.6923229166714,
      "v": 113
    },
    {
      "midi": 66,
      "hit": false,
      "t": 206307.70949999813,
      "d": 192.30770833333372,
      "v": 87
    },
    {
      "midi": 37,
      "hit": false,
      "t": 206528.86336458146,
      "d": 67.30769791666535,
      "v": 85
    },
    {
      "midi": 64,
      "hit": false,
      "t": 206769.24799999813,
      "d": 211.53847916665836,
      "v": 122
    },
    {
      "midi": 59,
      "hit": false,
      "t": 206769.24799999813,
      "d": 230.769249999983,
      "v": 114
    },
    {
      "midi": 68,
      "hit": false,
      "t": 206769.24799999813,
      "d": 259.61540624996996,
      "v": 116
    },
    {
      "midi": 37,
      "hit": false,
      "t": 206990.40186458145,
      "d": 221.15386458332068,
      "v": 95
    },
    {
      "midi": 58,
      "hit": false,
      "t": 207221.17111458143,
      "d": 192.30770833330462,
      "v": 110
    },
    {
      "midi": 63,
      "hit": false,
      "t": 207230.7864999981,
      "d": 173.07693749997998,
      "v": 113
    },
    {
      "midi": 66,
      "hit": false,
      "t": 207230.7864999981,
      "d": 192.30770833330462,
      "v": 99
    },
    {
      "midi": 49,
      "hit": false,
      "t": 207240.40188541476,
      "d": 96.15385416665231,
      "v": 99
    },
    {
      "midi": 64,
      "hit": false,
      "t": 207471.17113541474,
      "d": 211.53847916665836,
      "v": 104
    },
    {
      "midi": 68,
      "hit": false,
      "t": 207471.17113541474,
      "d": 211.53847916665836,
      "v": 104
    },
    {
      "midi": 59,
      "hit": false,
      "t": 207471.17113541474,
      "d": 230.769249999983,
      "v": 104
    },
    {
      "midi": 42,
      "hit": false,
      "t": 207701.94038541472,
      "d": 692.3077500000072,
      "v": 119
    },
    {
      "midi": 59,
      "hit": false,
      "t": 207932.70963541474,
      "d": 384.61541666666744,
      "v": 92
    },
    {
      "midi": 64,
      "hit": false,
      "t": 207932.70963541474,
      "d": 384.61541666666744,
      "v": 97
    },
    {
      "midi": 68,
      "hit": false,
      "t": 207932.70963541474,
      "d": 394.23080208332976,
      "v": 81
    },
    {
      "midi": 59,
      "hit": false,
      "t": 208394.24813541473,
      "d": 76.92308333332767,
      "v": 61
    },
    {
      "midi": 54,
      "hit": false,
      "t": 208394.24813541473,
      "d": 86.53846874998999,
      "v": 79
    },
    {
      "midi": 68,
      "hit": false,
      "t": 208394.24813541473,
      "d": 125.00001041666837,
      "v": 59
    },
    {
      "midi": 64,
      "hit": false,
      "t": 208394.24813541473,
      "d": 144.23078124999302,
      "v": 80
    },
    {
      "midi": 64,
      "hit": false,
      "t": 208625.0173854147,
      "d": 490.3846562499821,
      "v": 104
    },
    {
      "midi": 66,
      "hit": false,
      "t": 208625.0173854147,
      "d": 509.6154270833067,
      "v": 101
    },
    {
      "midi": 61,
      "hit": false,
      "t": 208625.0173854147,
      "d": 519.230812499969,
      "v": 107
    },
    {
      "midi": 58,
      "hit": false,
      "t": 208625.0173854147,
      "d": 557.6923541666474,
      "v": 116
    },
    {
      "midi": 42,
      "hit": false,
      "t": 208625.0173854147,
      "d": 855.7693020833249,
      "v": 113
    },
    {
      "midi": 54,
      "hit": false,
      "t": 209086.5558854147,
      "d": 336.53848958332674,
      "v": 119
    },
    {
      "midi": 54,
      "hit": false,
      "t": 209528.86361458138,
      "d": 1442.3078124999884,
      "v": 116
    },
    {
      "midi": 58,
      "hit": false,
      "t": 209528.86361458138,
      "d": 1451.9231979166507,
      "v": 101
    },
    {
      "midi": 59,
      "hit": false,
      "t": 209528.86361458138,
      "d": 1451.9231979166507,
      "v": 98
    },
    {
      "midi": 47,
      "hit": false,
      "t": 209528.86361458138,
      "d": 1461.538583333313,
      "v": 97
    },
    {
      "midi": 63,
      "hit": false,
      "t": 209528.86361458138,
      "d": 1471.1539687499753,
      "v": 107
    },
    {
      "midi": 56,
      "hit": false,
      "t": 211384.63299999802,
      "d": 759.6154479166726,
      "v": 119
    },
    {
      "midi": 37,
      "hit": false,
      "t": 211384.63299999802,
      "d": 788.4616041666595,
      "v": 97
    },
    {
      "midi": 64,
      "hit": false,
      "t": 211384.63299999802,
      "d": 798.0769895833218,
      "v": 117
    },
    {
      "midi": 49,
      "hit": false,
      "t": 211384.63299999802,
      "d": 817.3077604166465,
      "v": 116
    },
    {
      "midi": 61,
      "hit": false,
      "t": 211384.63299999802,
      "d": 817.3077604166465,
      "v": 104
    },
    {
      "midi": 59,
      "hit": false,
      "t": 211394.24838541468,
      "d": 750.0000625000102,
      "v": 110
    },
    {
      "midi": 58,
      "hit": false,
      "t": 212317.32538541468,
      "d": 692.3077500000072,
      "v": 113
    },
    {
      "midi": 61,
      "hit": false,
      "t": 212317.32538541468,
      "d": 692.3077500000072,
      "v": 127
    },
    {
      "midi": 51,
      "hit": false,
      "t": 212317.32538541468,
      "d": 701.9231354166695,
      "v": 119
    },
    {
      "midi": 63,
      "hit": false,
      "t": 212317.32538541468,
      "d": 711.5385208333319,
      "v": 116
    },
    {
      "midi": 39,
      "hit": false,
      "t": 212317.32538541468,
      "d": 721.1539062499942,
      "v": 97
    },
    {
      "midi": 66,
      "hit": false,
      "t": 212317.32538541468,
      "d": 759.6154479166726,
      "v": 113
    },
    {
      "midi": 60,
      "hit": false,
      "t": 213451.94086458135,
      "d": 144.23078124999302,
      "v": 117
    },
    {
      "midi": 63,
      "hit": false,
      "t": 213451.94086458135,
      "d": 153.84616666665534,
      "v": 117
    },
    {
      "midi": 68,
      "hit": false,
      "t": 213451.94086458135,
      "d": 182.6923229166423,
      "v": 117
    },
    {
      "midi": 65,
      "hit": false,
      "t": 213451.94086458135,
      "d": 192.30770833330462,
      "v": 117
    },
    {
      "midi": 63,
      "hit": false,
      "t": 213682.71011458134,
      "d": 115.38462500000605,
      "v": 71
    },
    {
      "midi": 58,
      "hit": false,
      "t": 213682.71011458134,
      "d": 134.6153958333307,
      "v": 104
    },
    {
      "midi": 67,
      "hit": false,
      "t": 213682.71011458134,
      "d": 153.84616666665534,
      "v": 81
    },
    {
      "midi": 41,
      "hit": false,
      "t": 213932.71013541464,
      "d": 375.0000312500051,
      "v": 88
    },
    {
      "midi": 65,
      "hit": false,
      "t": 214163.47938541466,
      "d": 134.6153958333307,
      "v": 119
    },
    {
      "midi": 63,
      "hit": false,
      "t": 214163.47938541466,
      "d": 144.23078124999302,
      "v": 119
    },
    {
      "midi": 60,
      "hit": false,
      "t": 214163.47938541466,
      "d": 201.92309374999604,
      "v": 119
    },
    {
      "midi": 68,
      "hit": false,
      "t": 214163.47938541466,
      "d": 221.15386458332068,
      "v": 119
    },
    {
      "midi": 41,
      "hit": false,
      "t": 214394.24863541464,
      "d": 240.38463541664532,
      "v": 65
    },
    {
      "midi": 53,
      "hit": false,
      "t": 214394.24863541464,
      "d": 269.2307916666323,
      "v": 80
    },
    {
      "midi": 58,
      "hit": false,
      "t": 214605.7871145813,
      "d": 144.2307812499639,
      "v": 95
    },
    {
      "midi": 63,
      "hit": false,
      "t": 214605.7871145813,
      "d": 153.84616666662623,
      "v": 74
    },
    {
      "midi": 67,
      "hit": false,
      "t": 214605.7871145813,
      "d": 173.07693749995087,
      "v": 85
    },
    {
      "midi": 63,
      "hit": false,
      "t": 214855.78713541458,
      "d": 125.00001041666837,
      "v": 110
    },
    {
      "midi": 65,
      "hit": false,
      "t": 214855.78713541458,
      "d": 153.84616666665534,
      "v": 110
    },
    {
      "midi": 60,
      "hit": false,
      "t": 214855.78713541458,
      "d": 163.46155208331766,
      "v": 110
    },
    {
      "midi": 68,
      "hit": false,
      "t": 214855.78713541458,
      "d": 182.6923229166423,
      "v": 110
    },
    {
      "midi": 46,
      "hit": false,
      "t": 215086.55638541456,
      "d": 86.53846874998999,
      "v": 107
    },
    {
      "midi": 46,
      "hit": false,
      "t": 215307.71024999788,
      "d": 48.076927083340706,
      "v": 99
    },
    {
      "midi": 46,
      "hit": false,
      "t": 215759.6333645812,
      "d": 67.30769791666535,
      "v": 82
    },
    {
      "midi": 46,
      "hit": false,
      "t": 216221.1718645812,
      "d": 76.92308333332767,
      "v": 119
    },
    {
      "midi": 65,
      "hit": false,
      "t": 216221.1718645812,
      "d": 144.23078124999302,
      "v": 127
    },
    {
      "midi": 61,
      "hit": false,
      "t": 216221.1718645812,
      "d": 221.15386458332068,
      "v": 119
    },
    {
      "midi": 68,
      "hit": false,
      "t": 216221.1718645812,
      "d": 230.769249999983,
      "v": 116
    },
    {
      "midi": 58,
      "hit": false,
      "t": 216221.1718645812,
      "d": 240.38463541664532,
      "v": 123
    },
    {
      "midi": 61,
      "hit": false,
      "t": 216682.71036458117,
      "d": 182.6923229166714,
      "v": 119
    },
    {
      "midi": 58,
      "hit": false,
      "t": 216682.71036458117,
      "d": 201.92309374999604,
      "v": 116
    },
    {
      "midi": 66,
      "hit": false,
      "t": 216682.71036458117,
      "d": 201.92309374999604,
      "v": 123
    },
    {
      "midi": 39,
      "hit": false,
      "t": 216692.32574999784,
      "d": 192.30770833333372,
      "v": 89
    },
    {
      "midi": 51,
      "hit": false,
      "t": 216692.32574999784,
      "d": 230.7692500000121,
      "v": 107
    },
    {
      "midi": 58,
      "hit": false,
      "t": 217144.24886458117,
      "d": 134.6153958333307,
      "v": 107
    },
    {
      "midi": 61,
      "hit": false,
      "t": 217144.24886458117,
      "d": 134.6153958333307,
      "v": 113
    },
    {
      "midi": 66,
      "hit": false,
      "t": 217144.24886458117,
      "d": 153.84616666665534,
      "v": 119
    },
    {
      "midi": 61,
      "hit": false,
      "t": 217394.24888541448,
      "d": 115.38462500000605,
      "v": 95
    },
    {
      "midi": 65,
      "hit": false,
      "t": 217394.24888541448,
      "d": 134.6153958333307,
      "v": 106
    },
    {
      "midi": 56,
      "hit": false,
      "t": 217394.24888541448,
      "d": 144.23078124999302,
      "v": 107
    },
    {
      "midi": 39,
      "hit": false,
      "t": 217625.01813541446,
      "d": 57.69231250000303,
      "v": 85
    },
    {
      "midi": 61,
      "hit": false,
      "t": 217855.78738541447,
      "d": 134.6153958333307,
      "v": 127
    },
    {
      "midi": 58,
      "hit": false,
      "t": 217855.78738541447,
      "d": 144.23078124999302,
      "v": 119
    },
    {
      "midi": 66,
      "hit": false,
      "t": 217855.78738541447,
      "d": 173.07693749997998,
      "v": 127
    },
    {
      "midi": 39,
      "hit": false,
      "t": 218076.9412499978,
      "d": 201.92309374999604,
      "v": 85
    },
    {
      "midi": 65,
      "hit": false,
      "t": 218298.0951145811,
      "d": 144.2307812499639,
      "v": 106
    },
    {
      "midi": 61,
      "hit": false,
      "t": 218298.0951145811,
      "d": 153.84616666662623,
      "v": 110
    },
    {
      "midi": 68,
      "hit": false,
      "t": 218298.0951145811,
      "d": 173.07693749995087,
      "v": 107
    },
    {
      "midi": 51,
      "hit": false,
      "t": 218317.32588541444,
      "d": 96.15385416665231,
      "v": 104
    },
    {
      "midi": 44,
      "hit": false,
      "t": 218548.0951354144,
      "d": 96.15385416665231,
      "v": 78
    },
    {
      "midi": 61,
      "hit": false,
      "t": 218548.0951354144,
      "d": 163.46155208331766,
      "v": 104
    },
    {
      "midi": 66,
      "hit": false,
      "t": 218548.0951354144,
      "d": 173.07693749997998,
      "v": 95
    },
    {
      "midi": 58,
      "hit": false,
      "t": 218548.0951354144,
      "d": 192.30770833330462,
      "v": 107
    },
    {
      "midi": 61,
      "hit": false,
      "t": 219009.63363541436,
      "d": 67.30769791666535,
      "v": 89
    },
    {
      "midi": 58,
      "hit": false,
      "t": 219009.63363541436,
      "d": 115.38462500000605,
      "v": 85
    },
    {
      "midi": 66,
      "hit": false,
      "t": 219009.63363541436,
      "d": 115.38462500000605,
      "v": 97
    },
    {
      "midi": 44,
      "hit": false,
      "t": 219471.17213541435,
      "d": 38.461541666678386,
      "v": 107
    },
    {
      "midi": 61,
      "hit": false,
      "t": 219682.71061458104,
      "d": 57.69231250000303,
      "v": 97
    },
    {
      "midi": 66,
      "hit": false,
      "t": 219682.71061458104,
      "d": 67.30769791666535,
      "v": 107
    },
    {
      "midi": 58,
      "hit": false,
      "t": 219682.71061458104,
      "d": 76.92308333332767,
      "v": 97
    },
    {
      "midi": 44,
      "hit": false,
      "t": 219701.94138541436,
      "d": 38.461541666678386,
      "v": 101
    },
    {
      "midi": 44,
      "hit": false,
      "t": 219932.71063541438,
      "d": 57.69231250000303,
      "v": 101
    },
    {
      "midi": 61,
      "hit": false,
      "t": 219932.71063541438,
      "d": 134.6153958333307,
      "v": 123
    },
    {
      "midi": 58,
      "hit": false,
      "t": 219932.71063541438,
      "d": 182.6923229166714,
      "v": 119
    },
    {
      "midi": 66,
      "hit": false,
      "t": 219932.71063541438,
      "d": 192.30770833333372,
      "v": 127
    },
    {
      "midi": 37,
      "hit": false,
      "t": 220375.01836458105,
      "d": 76.92308333332767,
      "v": 89
    },
    {
      "midi": 64,
      "hit": false,
      "t": 220375.01836458105,
      "d": 173.07693749997998,
      "v": 110
    },
    {
      "midi": 68,
      "hit": false,
      "t": 220375.01836458105,
      "d": 201.92309374996694,
      "v": 101
    },
    {
      "midi": 59,
      "hit": false,
      "t": 220375.01836458105,
      "d": 211.53847916662926,
      "v": 106
    },
    {
      "midi": 49,
      "hit": false,
      "t": 220394.24913541437,
      "d": 48.076927083340706,
      "v": 99
    },
    {
      "midi": 59,
      "hit": false,
      "t": 220846.17224999767,
      "d": 115.38462500000605,
      "v": 108
    },
    {
      "midi": 64,
      "hit": false,
      "t": 220846.17224999767,
      "d": 173.07693750000908,
      "v": 120
    },
    {
      "midi": 37,
      "hit": false,
      "t": 220855.78763541434,
      "d": 48.076927083340706,
      "v": 85
    },
    {
      "midi": 49,
      "hit": false,
      "t": 220855.78763541434,
      "d": 48.076927083340706,
      "v": 99
    },
    {
      "midi": 68,
      "hit": false,
      "t": 220855.78763541434,
      "d": 144.23078125002212,
      "v": 116
    },
    {
      "midi": 63,
      "hit": false,
      "t": 221076.9414999977,
      "d": 173.07693750000908,
      "v": 97
    },
    {
      "midi": 58,
      "hit": false,
      "t": 221076.9414999977,
      "d": 182.6923229166714,
      "v": 113
    },
    {
      "midi": 66,
      "hit": false,
      "t": 221076.9414999977,
      "d": 192.30770833333372,
      "v": 87
    },
    {
      "midi": 37,
      "hit": false,
      "t": 221298.095364581,
      "d": 67.30769791666535,
      "v": 85
    },
    {
      "midi": 64,
      "hit": false,
      "t": 221538.47999999768,
      "d": 211.53847916665836,
      "v": 122
    },
    {
      "midi": 59,
      "hit": false,
      "t": 221538.47999999768,
      "d": 230.769249999983,
      "v": 114
    },
    {
      "midi": 68,
      "hit": false,
      "t": 221538.47999999768,
      "d": 259.61540624996996,
      "v": 116
    },
    {
      "midi": 37,
      "hit": false,
      "t": 221759.633864581,
      "d": 221.15386458332068,
      "v": 95
    },
    {
      "midi": 58,
      "hit": false,
      "t": 221990.403114581,
      "d": 192.30770833330462,
      "v": 110
    },
    {
      "midi": 63,
      "hit": false,
      "t": 222000.01849999765,
      "d": 173.07693749997998,
      "v": 113
    },
    {
      "midi": 66,
      "hit": false,
      "t": 222000.01849999765,
      "d": 192.30770833330462,
      "v": 99
    },
    {
      "midi": 49,
      "hit": false,
      "t": 222009.6338854143,
      "d": 96.15385416665231,
      "v": 99
    },
    {
      "midi": 64,
      "hit": false,
      "t": 222240.4031354143,
      "d": 211.53847916665836,
      "v": 104
    },
    {
      "midi": 68,
      "hit": false,
      "t": 222240.4031354143,
      "d": 211.53847916665836,
      "v": 104
    },
    {
      "midi": 59,
      "hit": false,
      "t": 222240.4031354143,
      "d": 230.769249999983,
      "v": 104
    },
    {
      "midi": 42,
      "hit": false,
      "t": 222471.17238541428,
      "d": 692.3077500000072,
      "v": 119
    },
    {
      "midi": 59,
      "hit": false,
      "t": 222701.9416354143,
      "d": 384.61541666666744,
      "v": 92
    },
    {
      "midi": 64,
      "hit": false,
      "t": 222701.9416354143,
      "d": 384.61541666666744,
      "v": 97
    },
    {
      "midi": 68,
      "hit": false,
      "t": 222701.9416354143,
      "d": 394.23080208332976,
      "v": 81
    },
    {
      "midi": 59,
      "hit": false,
      "t": 223163.48013541428,
      "d": 76.92308333332767,
      "v": 61
    },
    {
      "midi": 54,
      "hit": false,
      "t": 223163.48013541428,
      "d": 86.53846874998999,
      "v": 79
    },
    {
      "midi": 68,
      "hit": false,
      "t": 223163.48013541428,
      "d": 125.00001041666837,
      "v": 59
    },
    {
      "midi": 64,
      "hit": false,
      "t": 223163.48013541428,
      "d": 144.23078124999302,
      "v": 80
    },
    {
      "midi": 64,
      "hit": false,
      "t": 223394.24938541427,
      "d": 490.3846562499821,
      "v": 104
    },
    {
      "midi": 66,
      "hit": false,
      "t": 223394.24938541427,
      "d": 509.6154270833067,
      "v": 101
    },
    {
      "midi": 61,
      "hit": false,
      "t": 223394.24938541427,
      "d": 519.230812499969,
      "v": 107
    },
    {
      "midi": 58,
      "hit": false,
      "t": 223394.24938541427,
      "d": 557.6923541666474,
      "v": 116
    },
    {
      "midi": 42,
      "hit": false,
      "t": 223394.24938541427,
      "d": 855.7693020833249,
      "v": 113
    },
    {
      "midi": 54,
      "hit": false,
      "t": 223855.78788541426,
      "d": 336.53848958332674,
      "v": 119
    },
    {
      "midi": 54,
      "hit": false,
      "t": 224298.09561458093,
      "d": 1442.3078124999884,
      "v": 116
    },
    {
      "midi": 58,
      "hit": false,
      "t": 224298.09561458093,
      "d": 1451.9231979166507,
      "v": 101
    },
    {
      "midi": 59,
      "hit": false,
      "t": 224298.09561458093,
      "d": 1451.9231979166507,
      "v": 98
    },
    {
      "midi": 47,
      "hit": false,
      "t": 224298.09561458093,
      "d": 1461.538583333313,
      "v": 97
    },
    {
      "midi": 63,
      "hit": false,
      "t": 224298.09561458093,
      "d": 1471.1539687499753,
      "v": 107
    },
    {
      "midi": 56,
      "hit": false,
      "t": 226153.86499999758,
      "d": 759.6154479166726,
      "v": 119
    },
    {
      "midi": 37,
      "hit": false,
      "t": 226153.86499999758,
      "d": 788.4616041666595,
      "v": 97
    },
    {
      "midi": 64,
      "hit": false,
      "t": 226153.86499999758,
      "d": 798.0769895833218,
      "v": 117
    },
    {
      "midi": 49,
      "hit": false,
      "t": 226153.86499999758,
      "d": 817.3077604166465,
      "v": 116
    },
    {
      "midi": 61,
      "hit": false,
      "t": 226153.86499999758,
      "d": 817.3077604166465,
      "v": 104
    },
    {
      "midi": 59,
      "hit": false,
      "t": 226163.48038541424,
      "d": 750.0000625000102,
      "v": 110
    },
    {
      "midi": 58,
      "hit": false,
      "t": 227086.55738541423,
      "d": 692.3077500000072,
      "v": 113
    },
    {
      "midi": 61,
      "hit": false,
      "t": 227086.55738541423,
      "d": 692.3077500000072,
      "v": 127
    },
    {
      "midi": 51,
      "hit": false,
      "t": 227086.55738541423,
      "d": 701.9231354166695,
      "v": 119
    },
    {
      "midi": 63,
      "hit": false,
      "t": 227086.55738541423,
      "d": 711.5385208333319,
      "v": 116
    },
    {
      "midi": 39,
      "hit": false,
      "t": 227086.55738541423,
      "d": 721.1539062499942,
      "v": 97
    },
    {
      "midi": 66,
      "hit": false,
      "t": 227086.55738541423,
      "d": 759.6154479166726,
      "v": 113
    },
    {
      "midi": 60,
      "hit": false,
      "t": 228221.1728645809,
      "d": 144.23078124999302,
      "v": 117
    },
    {
      "midi": 63,
      "hit": false,
      "t": 228221.1728645809,
      "d": 153.84616666665534,
      "v": 117
    },
    {
      "midi": 68,
      "hit": false,
      "t": 228221.1728645809,
      "d": 182.6923229166423,
      "v": 117
    },
    {
      "midi": 65,
      "hit": false,
      "t": 228221.1728645809,
      "d": 192.30770833330462,
      "v": 117
    },
    {
      "midi": 63,
      "hit": false,
      "t": 228451.9421145809,
      "d": 115.38462500000605,
      "v": 71
    },
    {
      "midi": 58,
      "hit": false,
      "t": 228451.9421145809,
      "d": 134.6153958333307,
      "v": 104
    },
    {
      "midi": 67,
      "hit": false,
      "t": 228451.9421145809,
      "d": 153.84616666665534,
      "v": 81
    },
    {
      "midi": 41,
      "hit": false,
      "t": 228701.9421354142,
      "d": 375.0000312500051,
      "v": 88
    },
    {
      "midi": 65,
      "hit": false,
      "t": 228932.7113854142,
      "d": 134.6153958333307,
      "v": 119
    },
    {
      "midi": 63,
      "hit": false,
      "t": 228932.7113854142,
      "d": 144.23078124999302,
      "v": 119
    },
    {
      "midi": 60,
      "hit": false,
      "t": 228932.7113854142,
      "d": 201.92309374999604,
      "v": 119
    },
    {
      "midi": 68,
      "hit": false,
      "t": 228932.7113854142,
      "d": 221.15386458332068,
      "v": 119
    },
    {
      "midi": 41,
      "hit": false,
      "t": 229163.4806354142,
      "d": 240.38463541664532,
      "v": 65
    },
    {
      "midi": 53,
      "hit": false,
      "t": 229163.4806354142,
      "d": 269.2307916666323,
      "v": 80
    },
    {
      "midi": 58,
      "hit": false,
      "t": 229375.01911458085,
      "d": 144.2307812499639,
      "v": 95
    },
    {
      "midi": 63,
      "hit": false,
      "t": 229375.01911458085,
      "d": 153.84616666662623,
      "v": 74
    },
    {
      "midi": 67,
      "hit": false,
      "t": 229375.01911458085,
      "d": 173.07693749995087,
      "v": 85
    },
    {
      "midi": 63,
      "hit": false,
      "t": 229625.01913541413,
      "d": 125.00001041666837,
      "v": 110
    },
    {
      "midi": 65,
      "hit": false,
      "t": 229625.01913541413,
      "d": 153.84616666665534,
      "v": 110
    },
    {
      "midi": 60,
      "hit": false,
      "t": 229625.01913541413,
      "d": 163.46155208331766,
      "v": 110
    },
    {
      "midi": 68,
      "hit": false,
      "t": 229625.01913541413,
      "d": 182.6923229166423,
      "v": 110
    },
    {
      "midi": 46,
      "hit": false,
      "t": 229855.7883854141,
      "d": 86.53846874998999,
      "v": 107
    },
    {
      "midi": 46,
      "hit": false,
      "t": 230076.94224999743,
      "d": 48.076927083340706,
      "v": 99
    },
    {
      "midi": 46,
      "hit": false,
      "t": 230528.86536458076,
      "d": 67.30769791666535,
      "v": 82
    },
    {
      "midi": 46,
      "hit": false,
      "t": 230990.40386458076,
      "d": 76.92308333332767,
      "v": 119
    },
    {
      "midi": 65,
      "hit": false,
      "t": 230990.40386458076,
      "d": 144.23078124999302,
      "v": 127
    },
    {
      "midi": 61,
      "hit": false,
      "t": 230990.40386458076,
      "d": 221.15386458332068,
      "v": 119
    },
    {
      "midi": 68,
      "hit": false,
      "t": 230990.40386458076,
      "d": 230.769249999983,
      "v": 116
    },
    {
      "midi": 58,
      "hit": false,
      "t": 230990.40386458076,
      "d": 240.38463541664532,
      "v": 123
    },
    {
      "midi": 61,
      "hit": false,
      "t": 231451.94236458073,
      "d": 182.6923229166714,
      "v": 119
    },
    {
      "midi": 58,
      "hit": false,
      "t": 231451.94236458073,
      "d": 201.92309374999604,
      "v": 116
    },
    {
      "midi": 66,
      "hit": false,
      "t": 231451.94236458073,
      "d": 201.92309374999604,
      "v": 123
    },
    {
      "midi": 39,
      "hit": false,
      "t": 231461.5577499974,
      "d": 192.30770833333372,
      "v": 89
    },
    {
      "midi": 51,
      "hit": false,
      "t": 231461.5577499974,
      "d": 230.7692500000121,
      "v": 107
    },
    {
      "midi": 58,
      "hit": false,
      "t": 231913.48086458072,
      "d": 134.6153958333307,
      "v": 107
    },
    {
      "midi": 61,
      "hit": false,
      "t": 231913.48086458072,
      "d": 134.6153958333307,
      "v": 113
    },
    {
      "midi": 66,
      "hit": false,
      "t": 231913.48086458072,
      "d": 153.84616666665534,
      "v": 119
    },
    {
      "midi": 61,
      "hit": false,
      "t": 232163.48088541403,
      "d": 115.38462500000605,
      "v": 95
    },
    {
      "midi": 65,
      "hit": false,
      "t": 232163.48088541403,
      "d": 134.6153958333307,
      "v": 106
    },
    {
      "midi": 56,
      "hit": false,
      "t": 232163.48088541403,
      "d": 144.23078124999302,
      "v": 107
    },
    {
      "midi": 39,
      "hit": false,
      "t": 232394.250135414,
      "d": 57.69231250000303,
      "v": 85
    },
    {
      "midi": 61,
      "hit": false,
      "t": 232625.01938541402,
      "d": 134.6153958333307,
      "v": 127
    },
    {
      "midi": 58,
      "hit": false,
      "t": 232625.01938541402,
      "d": 144.23078124999302,
      "v": 119
    },
    {
      "midi": 66,
      "hit": false,
      "t": 232625.01938541402,
      "d": 173.07693749997998,
      "v": 127
    },
    {
      "midi": 39,
      "hit": false,
      "t": 232846.17324999734,
      "d": 201.92309374999604,
      "v": 85
    },
    {
      "midi": 65,
      "hit": false,
      "t": 233067.32711458066,
      "d": 144.2307812499639,
      "v": 106
    },
    {
      "midi": 61,
      "hit": false,
      "t": 233067.32711458066,
      "d": 153.84616666662623,
      "v": 110
    },
    {
      "midi": 68,
      "hit": false,
      "t": 233067.32711458066,
      "d": 173.07693749995087,
      "v": 107
    },
    {
      "midi": 51,
      "hit": false,
      "t": 233086.557885414,
      "d": 96.15385416665231,
      "v": 104
    },
    {
      "midi": 44,
      "hit": false,
      "t": 233317.32713541394,
      "d": 96.15385416665231,
      "v": 78
    },
    {
      "midi": 61,
      "hit": false,
      "t": 233317.32713541394,
      "d": 163.46155208331766,
      "v": 104
    },
    {
      "midi": 66,
      "hit": false,
      "t": 233317.32713541394,
      "d": 173.07693749997998,
      "v": 95
    },
    {
      "midi": 58,
      "hit": false,
      "t": 233317.32713541394,
      "d": 192.30770833330462,
      "v": 107
    },
    {
      "midi": 61,
      "hit": false,
      "t": 233778.8656354139,
      "d": 67.30769791666535,
      "v": 89
    },
    {
      "midi": 58,
      "hit": false,
      "t": 233778.8656354139,
      "d": 115.38462500000605,
      "v": 85
    },
    {
      "midi": 66,
      "hit": false,
      "t": 233778.8656354139,
      "d": 115.38462500000605,
      "v": 97
    },
    {
      "midi": 44,
      "hit": false,
      "t": 234240.4041354139,
      "d": 38.461541666678386,
      "v": 107
    },
    {
      "midi": 61,
      "hit": false,
      "t": 234451.9426145806,
      "d": 57.69231250000303,
      "v": 97
    },
    {
      "midi": 66,
      "hit": false,
      "t": 234451.9426145806,
      "d": 67.30769791666535,
      "v": 107
    },
    {
      "midi": 58,
      "hit": false,
      "t": 234451.9426145806,
      "d": 76.92308333332767,
      "v": 97
    },
    {
      "midi": 44,
      "hit": false,
      "t": 234471.17338541392,
      "d": 38.461541666678386,
      "v": 101
    },
    {
      "midi": 44,
      "hit": false,
      "t": 234701.94263541393,
      "d": 57.69231250000303,
      "v": 101
    },
    {
      "midi": 61,
      "hit": false,
      "t": 234701.94263541393,
      "d": 134.6153958333307,
      "v": 123
    },
    {
      "midi": 58,
      "hit": false,
      "t": 234701.94263541393,
      "d": 182.6923229166714,
      "v": 119
    },
    {
      "midi": 66,
      "hit": false,
      "t": 234701.94263541393,
      "d": 192.30770833333372,
      "v": 127
    },
    {
      "midi": 37,
      "hit": false,
      "t": 235144.2503645806,
      "d": 76.92308333332767,
      "v": 89
    },
    {
      "midi": 64,
      "hit": false,
      "t": 235144.2503645806,
      "d": 173.07693749997998,
      "v": 110
    },
    {
      "midi": 68,
      "hit": false,
      "t": 235144.2503645806,
      "d": 201.92309374996694,
      "v": 101
    },
    {
      "midi": 59,
      "hit": false,
      "t": 235144.2503645806,
      "d": 211.53847916662926,
      "v": 106
    },
    {
      "midi": 49,
      "hit": false,
      "t": 235163.48113541392,
      "d": 48.076927083340706,
      "v": 99
    },
    {
      "midi": 59,
      "hit": false,
      "t": 235615.40424999723,
      "d": 115.38462500000605,
      "v": 108
    },
    {
      "midi": 64,
      "hit": false,
      "t": 235615.40424999723,
      "d": 173.07693750000908,
      "v": 120
    },
    {
      "midi": 37,
      "hit": false,
      "t": 235625.0196354139,
      "d": 48.076927083340706,
      "v": 85
    },
    {
      "midi": 49,
      "hit": false,
      "t": 235625.0196354139,
      "d": 48.076927083340706,
      "v": 99
    },
    {
      "midi": 68,
      "hit": false,
      "t": 235625.0196354139,
      "d": 144.23078125002212,
      "v": 116
    },
    {
      "midi": 63,
      "hit": false,
      "t": 235846.17349999724,
      "d": 173.07693750000908,
      "v": 97
    },
    {
      "midi": 58,
      "hit": false,
      "t": 235846.17349999724,
      "d": 182.6923229166714,
      "v": 113
    },
    {
      "midi": 66,
      "hit": false,
      "t": 235846.17349999724,
      "d": 192.30770833333372,
      "v": 87
    },
    {
      "midi": 37,
      "hit": false,
      "t": 236067.32736458056,
      "d": 67.30769791666535,
      "v": 85
    },
    {
      "midi": 64,
      "hit": false,
      "t": 236307.71199999723,
      "d": 211.53847916665836,
      "v": 122
    },
    {
      "midi": 59,
      "hit": false,
      "t": 236307.71199999723,
      "d": 230.769249999983,
      "v": 114
    },
    {
      "midi": 68,
      "hit": false,
      "t": 236307.71199999723,
      "d": 259.61540624996996,
      "v": 116
    },
    {
      "midi": 37,
      "hit": false,
      "t": 236528.86586458056,
      "d": 221.15386458332068,
      "v": 95
    },
    {
      "midi": 58,
      "hit": false,
      "t": 236759.63511458054,
      "d": 192.30770833330462,
      "v": 110
    },
    {
      "midi": 63,
      "hit": false,
      "t": 236769.2504999972,
      "d": 173.07693749997998,
      "v": 113
    },
    {
      "midi": 66,
      "hit": false,
      "t": 236769.2504999972,
      "d": 192.30770833330462,
      "v": 99
    },
    {
      "midi": 49,
      "hit": false,
      "t": 236778.86588541386,
      "d": 96.15385416665231,
      "v": 99
    },
    {
      "midi": 64,
      "hit": false,
      "t": 237009.63513541385,
      "d": 211.53847916665836,
      "v": 104
    },
    {
      "midi": 68,
      "hit": false,
      "t": 237009.63513541385,
      "d": 211.53847916665836,
      "v": 104
    },
    {
      "midi": 59,
      "hit": false,
      "t": 237009.63513541385,
      "d": 230.769249999983,
      "v": 104
    },
    {
      "midi": 42,
      "hit": false,
      "t": 237240.40438541383,
      "d": 692.3077500000072,
      "v": 119
    },
    {
      "midi": 59,
      "hit": false,
      "t": 237471.17363541384,
      "d": 384.61541666666744,
      "v": 92
    },
    {
      "midi": 64,
      "hit": false,
      "t": 237471.17363541384,
      "d": 384.61541666666744,
      "v": 97
    },
    {
      "midi": 68,
      "hit": false,
      "t": 237471.17363541384,
      "d": 394.23080208332976,
      "v": 81
    },
    {
      "midi": 59,
      "hit": false,
      "t": 237932.71213541384,
      "d": 76.92308333332767,
      "v": 61
    },
    {
      "midi": 54,
      "hit": false,
      "t": 237932.71213541384,
      "d": 86.53846874998999,
      "v": 79
    },
    {
      "midi": 68,
      "hit": false,
      "t": 237932.71213541384,
      "d": 125.00001041666837,
      "v": 59
    },
    {
      "midi": 64,
      "hit": false,
      "t": 237932.71213541384,
      "d": 144.23078124999302,
      "v": 80
    },
    {
      "midi": 64,
      "hit": false,
      "t": 238163.48138541382,
      "d": 490.3846562499821,
      "v": 104
    },
    {
      "midi": 66,
      "hit": false,
      "t": 238163.48138541382,
      "d": 509.6154270833067,
      "v": 101
    },
    {
      "midi": 61,
      "hit": false,
      "t": 238163.48138541382,
      "d": 519.230812499969,
      "v": 107
    },
    {
      "midi": 58,
      "hit": false,
      "t": 238163.48138541382,
      "d": 557.6923541666474,
      "v": 116
    },
    {
      "midi": 42,
      "hit": false,
      "t": 238163.48138541382,
      "d": 855.7693020833249,
      "v": 113
    },
    {
      "midi": 54,
      "hit": false,
      "t": 238625.0198854138,
      "d": 336.53848958332674,
      "v": 119
    },
    {
      "midi": 54,
      "hit": false,
      "t": 239067.32761458048,
      "d": 1442.3078124999884,
      "v": 116
    },
    {
      "midi": 58,
      "hit": false,
      "t": 239067.32761458048,
      "d": 1451.9231979166507,
      "v": 101
    },
    {
      "midi": 59,
      "hit": false,
      "t": 239067.32761458048,
      "d": 1451.9231979166507,
      "v": 98
    },
    {
      "midi": 47,
      "hit": false,
      "t": 239067.32761458048,
      "d": 1461.538583333313,
      "v": 97
    },
    {
      "midi": 63,
      "hit": false,
      "t": 239067.32761458048,
      "d": 1471.1539687499753,
      "v": 107
    },
    {
      "midi": 56,
      "hit": false,
      "t": 240923.09699999713,
      "d": 759.6154479166726,
      "v": 119
    },
    {
      "midi": 37,
      "hit": false,
      "t": 240923.09699999713,
      "d": 788.4616041666595,
      "v": 97
    },
    {
      "midi": 64,
      "hit": false,
      "t": 240923.09699999713,
      "d": 798.0769895833218,
      "v": 117
    },
    {
      "midi": 49,
      "hit": false,
      "t": 240923.09699999713,
      "d": 817.3077604166465,
      "v": 116
    },
    {
      "midi": 61,
      "hit": false,
      "t": 240923.09699999713,
      "d": 817.3077604166465,
      "v": 104
    },
    {
      "midi": 59,
      "hit": false,
      "t": 240932.7123854138,
      "d": 750.0000625000102,
      "v": 110
    },
    {
      "midi": 58,
      "hit": false,
      "t": 241855.78938541378,
      "d": 692.3077500000072,
      "v": 113
    },
    {
      "midi": 61,
      "hit": false,
      "t": 241855.78938541378,
      "d": 692.3077500000072,
      "v": 127
    },
    {
      "midi": 51,
      "hit": false,
      "t": 241855.78938541378,
      "d": 701.9231354166695,
      "v": 119
    },
    {
      "midi": 63,
      "hit": false,
      "t": 241855.78938541378,
      "d": 711.5385208333319,
      "v": 116
    },
    {
      "midi": 39,
      "hit": false,
      "t": 241855.78938541378,
      "d": 721.1539062499942,
      "v": 97
    },
    {
      "midi": 66,
      "hit": false,
      "t": 241855.78938541378,
      "d": 759.6154479166726,
      "v": 113
    },
    {
      "midi": 60,
      "hit": false,
      "t": 242990.40486458046,
      "d": 144.23078124999302,
      "v": 117
    },
    {
      "midi": 63,
      "hit": false,
      "t": 242990.40486458046,
      "d": 153.84616666665534,
      "v": 117
    },
    {
      "midi": 68,
      "hit": false,
      "t": 242990.40486458046,
      "d": 182.6923229166423,
      "v": 117
    },
    {
      "midi": 65,
      "hit": false,
      "t": 242990.40486458046,
      "d": 192.30770833330462,
      "v": 117
    },
    {
      "midi": 63,
      "hit": false,
      "t": 243221.17411458044,
      "d": 115.38462500000605,
      "v": 71
    },
    {
      "midi": 58,
      "hit": false,
      "t": 243221.17411458044,
      "d": 134.6153958333307,
      "v": 104
    },
    {
      "midi": 67,
      "hit": false,
      "t": 243221.17411458044,
      "d": 153.84616666665534,
      "v": 81
    },
    {
      "midi": 41,
      "hit": false,
      "t": 243471.17413541375,
      "d": 375.0000312500051,
      "v": 88
    },
    {
      "midi": 65,
      "hit": false,
      "t": 243701.94338541376,
      "d": 134.6153958333307,
      "v": 119
    },
    {
      "midi": 63,
      "hit": false,
      "t": 243701.94338541376,
      "d": 144.23078124999302,
      "v": 119
    },
    {
      "midi": 60,
      "hit": false,
      "t": 243701.94338541376,
      "d": 201.92309374999604,
      "v": 119
    },
    {
      "midi": 68,
      "hit": false,
      "t": 243701.94338541376,
      "d": 221.15386458332068,
      "v": 119
    },
    {
      "midi": 41,
      "hit": false,
      "t": 243932.71263541374,
      "d": 240.38463541664532,
      "v": 65
    },
    {
      "midi": 53,
      "hit": false,
      "t": 243932.71263541374,
      "d": 269.2307916666323,
      "v": 80
    },
    {
      "midi": 58,
      "hit": false,
      "t": 244144.2511145804,
      "d": 144.2307812499639,
      "v": 95
    },
    {
      "midi": 63,
      "hit": false,
      "t": 244144.2511145804,
      "d": 153.84616666662623,
      "v": 74
    },
    {
      "midi": 67,
      "hit": false,
      "t": 244144.2511145804,
      "d": 173.07693749995087,
      "v": 85
    },
    {
      "midi": 63,
      "hit": false,
      "t": 244394.25113541368,
      "d": 125.00001041666837,
      "v": 110
    },
    {
      "midi": 65,
      "hit": false,
      "t": 244394.25113541368,
      "d": 153.84616666665534,
      "v": 110
    },
    {
      "midi": 60,
      "hit": false,
      "t": 244394.25113541368,
      "d": 163.46155208331766,
      "v": 110
    },
    {
      "midi": 68,
      "hit": false,
      "t": 244394.25113541368,
      "d": 182.6923229166423,
      "v": 110
    },
    {
      "midi": 46,
      "hit": false,
      "t": 244625.02038541366,
      "d": 86.53846874998999,
      "v": 107
    },
    {
      "midi": 46,
      "hit": false,
      "t": 244846.17424999698,
      "d": 48.076927083340706,
      "v": 99
    },
    {
      "midi": 46,
      "hit": false,
      "t": 245298.09736458032,
      "d": 67.30769791666535,
      "v": 82
    },
    {
      "midi": 46,
      "hit": false,
      "t": 245759.6358645803,
      "d": 76.92308333332767,
      "v": 119
    },
    {
      "midi": 65,
      "hit": false,
      "t": 245759.6358645803,
      "d": 144.23078124999302,
      "v": 127
    },
    {
      "midi": 61,
      "hit": false,
      "t": 245759.6358645803,
      "d": 221.15386458332068,
      "v": 119
    },
    {
      "midi": 68,
      "hit": false,
      "t": 245759.6358645803,
      "d": 230.769249999983,
      "v": 116
    },
    {
      "midi": 58,
      "hit": false,
      "t": 245759.6358645803,
      "d": 240.38463541664532,
      "v": 123
    },
    {
      "midi": 61,
      "hit": false,
      "t": 246221.17436458028,
      "d": 182.6923229166714,
      "v": 119
    },
    {
      "midi": 58,
      "hit": false,
      "t": 246221.17436458028,
      "d": 201.92309374999604,
      "v": 116
    },
    {
      "midi": 66,
      "hit": false,
      "t": 246221.17436458028,
      "d": 201.92309374999604,
      "v": 123
    },
    {
      "midi": 39,
      "hit": false,
      "t": 246230.78974999694,
      "d": 192.30770833333372,
      "v": 89
    },
    {
      "midi": 51,
      "hit": false,
      "t": 246230.78974999694,
      "d": 230.7692500000121,
      "v": 107
    },
    {
      "midi": 58,
      "hit": false,
      "t": 246682.71286458027,
      "d": 134.6153958333307,
      "v": 107
    },
    {
      "midi": 61,
      "hit": false,
      "t": 246682.71286458027,
      "d": 134.6153958333307,
      "v": 113
    },
    {
      "midi": 66,
      "hit": false,
      "t": 246682.71286458027,
      "d": 153.84616666665534,
      "v": 119
    },
    {
      "midi": 61,
      "hit": false,
      "t": 246932.71288541358,
      "d": 115.38462500000605,
      "v": 95
    },
    {
      "midi": 65,
      "hit": false,
      "t": 246932.71288541358,
      "d": 134.6153958333307,
      "v": 106
    },
    {
      "midi": 56,
      "hit": false,
      "t": 246932.71288541358,
      "d": 144.23078124999302,
      "v": 107
    },
    {
      "midi": 39,
      "hit": false,
      "t": 247163.48213541356,
      "d": 57.69231250000303,
      "v": 85
    },
    {
      "midi": 61,
      "hit": false,
      "t": 247394.25138541358,
      "d": 134.6153958333307,
      "v": 127
    },
    {
      "midi": 58,
      "hit": false,
      "t": 247394.25138541358,
      "d": 144.23078124999302,
      "v": 119
    },
    {
      "midi": 66,
      "hit": false,
      "t": 247394.25138541358,
      "d": 173.07693749997998,
      "v": 127
    },
    {
      "midi": 39,
      "hit": false,
      "t": 247615.4052499969,
      "d": 201.92309374999604,
      "v": 85
    },
    {
      "midi": 65,
      "hit": false,
      "t": 247836.55911458022,
      "d": 144.2307812499639,
      "v": 106
    },
    {
      "midi": 61,
      "hit": false,
      "t": 247836.55911458022,
      "d": 153.84616666662623,
      "v": 110
    },
    {
      "midi": 68,
      "hit": false,
      "t": 247836.55911458022,
      "d": 173.07693749995087,
      "v": 107
    },
    {
      "midi": 51,
      "hit": false,
      "t": 247855.78988541354,
      "d": 96.15385416665231,
      "v": 104
    },
    {
      "midi": 44,
      "hit": false,
      "t": 248086.5591354135,
      "d": 96.15385416665231,
      "v": 78
    },
    {
      "midi": 61,
      "hit": false,
      "t": 248086.5591354135,
      "d": 163.46155208331766,
      "v": 104
    },
    {
      "midi": 66,
      "hit": false,
      "t": 248086.5591354135,
      "d": 173.07693749997998,
      "v": 95
    },
    {
      "midi": 58,
      "hit": false,
      "t": 248086.5591354135,
      "d": 192.30770833330462,
      "v": 107
    },
    {
      "midi": 61,
      "hit": false,
      "t": 248548.09763541346,
      "d": 67.30769791666535,
      "v": 89
    },
    {
      "midi": 58,
      "hit": false,
      "t": 248548.09763541346,
      "d": 115.38462500000605,
      "v": 85
    },
    {
      "midi": 66,
      "hit": false,
      "t": 248548.09763541346,
      "d": 115.38462500000605,
      "v": 97
    },
    {
      "midi": 44,
      "hit": false,
      "t": 249009.63613541346,
      "d": 38.461541666678386,
      "v": 107
    },
    {
      "midi": 61,
      "hit": false,
      "t": 249221.17461458014,
      "d": 57.69231250000303,
      "v": 97
    },
    {
      "midi": 66,
      "hit": false,
      "t": 249221.17461458014,
      "d": 67.30769791666535,
      "v": 107
    },
    {
      "midi": 58,
      "hit": false,
      "t": 249221.17461458014,
      "d": 76.92308333332767,
      "v": 97
    },
    {
      "midi": 44,
      "hit": false,
      "t": 249240.40538541347,
      "d": 38.461541666678386,
      "v": 101
    },
    {
      "midi": 44,
      "hit": false,
      "t": 249471.17463541348,
      "d": 57.69231250000303,
      "v": 101
    },
    {
      "midi": 61,
      "hit": false,
      "t": 249471.17463541348,
      "d": 134.6153958333307,
      "v": 123
    },
    {
      "midi": 58,
      "hit": false,
      "t": 249471.17463541348,
      "d": 182.6923229166714,
      "v": 119
    },
    {
      "midi": 66,
      "hit": false,
      "t": 249471.17463541348,
      "d": 192.30770833333372,
      "v": 127
    },
    {
      "midi": 37,
      "hit": false,
      "t": 249913.48236458015,
      "d": 76.92308333332767,
      "v": 89
    },
    {
      "midi": 64,
      "hit": false,
      "t": 249913.48236458015,
      "d": 173.07693749997998,
      "v": 110
    },
    {
      "midi": 68,
      "hit": false,
      "t": 249913.48236458015,
      "d": 201.92309374996694,
      "v": 101
    },
    {
      "midi": 59,
      "hit": false,
      "t": 249913.48236458015,
      "d": 211.53847916662926,
      "v": 106
    },
    {
      "midi": 49,
      "hit": false,
      "t": 249932.71313541348,
      "d": 48.076927083340706,
      "v": 99
    },
    {
      "midi": 59,
      "hit": false,
      "t": 250384.63624999678,
      "d": 115.38462500000605,
      "v": 108
    },
    {
      "midi": 64,
      "hit": false,
      "t": 250384.63624999678,
      "d": 173.07693750000908,
      "v": 120
    },
    {
      "midi": 37,
      "hit": false,
      "t": 250394.25163541344,
      "d": 48.076927083340706,
      "v": 85
    },
    {
      "midi": 49,
      "hit": false,
      "t": 250394.25163541344,
      "d": 48.076927083340706,
      "v": 99
    },
    {
      "midi": 68,
      "hit": false,
      "t": 250394.25163541344,
      "d": 144.23078125002212,
      "v": 116
    },
    {
      "midi": 63,
      "hit": false,
      "t": 250615.4054999968,
      "d": 173.07693750000908,
      "v": 97
    },
    {
      "midi": 58,
      "hit": false,
      "t": 250615.4054999968,
      "d": 182.6923229166714,
      "v": 113
    },
    {
      "midi": 66,
      "hit": false,
      "t": 250615.4054999968,
      "d": 192.30770833333372,
      "v": 87
    },
    {
      "midi": 37,
      "hit": false,
      "t": 250836.5593645801,
      "d": 67.30769791666535,
      "v": 85
    },
    {
      "midi": 64,
      "hit": false,
      "t": 251076.9439999968,
      "d": 211.53847916665836,
      "v": 122
    },
    {
      "midi": 59,
      "hit": false,
      "t": 251076.9439999968,
      "d": 230.769249999983,
      "v": 114
    },
    {
      "midi": 68,
      "hit": false,
      "t": 251076.9439999968,
      "d": 259.61540624996996,
      "v": 116
    },
    {
      "midi": 37,
      "hit": false,
      "t": 251298.0978645801,
      "d": 221.15386458332068,
      "v": 95
    },
    {
      "midi": 58,
      "hit": false,
      "t": 251528.8671145801,
      "d": 192.30770833330462,
      "v": 110
    },
    {
      "midi": 63,
      "hit": false,
      "t": 251538.48249999675,
      "d": 173.07693749997998,
      "v": 113
    },
    {
      "midi": 66,
      "hit": false,
      "t": 251538.48249999675,
      "d": 192.30770833330462,
      "v": 99
    },
    {
      "midi": 49,
      "hit": false,
      "t": 251548.09788541342,
      "d": 96.15385416665231,
      "v": 99
    },
    {
      "midi": 64,
      "hit": false,
      "t": 251778.8671354134,
      "d": 211.53847916665836,
      "v": 104
    },
    {
      "midi": 68,
      "hit": false,
      "t": 251778.8671354134,
      "d": 211.53847916665836,
      "v": 104
    },
    {
      "midi": 59,
      "hit": false,
      "t": 251778.8671354134,
      "d": 230.769249999983,
      "v": 104
    },
    {
      "midi": 42,
      "hit": false,
      "t": 252009.63638541338,
      "d": 692.3077500000072,
      "v": 119
    },
    {
      "midi": 59,
      "hit": false,
      "t": 252240.4056354134,
      "d": 384.61541666666744,
      "v": 92
    },
    {
      "midi": 64,
      "hit": false,
      "t": 252240.4056354134,
      "d": 384.61541666666744,
      "v": 97
    },
    {
      "midi": 68,
      "hit": false,
      "t": 252240.4056354134,
      "d": 394.23080208332976,
      "v": 81
    },
    {
      "midi": 59,
      "hit": false,
      "t": 252701.9441354134,
      "d": 76.92308333332767,
      "v": 61
    },
    {
      "midi": 54,
      "hit": false,
      "t": 252701.9441354134,
      "d": 86.53846874998999,
      "v": 79
    },
    {
      "midi": 68,
      "hit": false,
      "t": 252701.9441354134,
      "d": 125.00001041666837,
      "v": 59
    },
    {
      "midi": 64,
      "hit": false,
      "t": 252701.9441354134,
      "d": 144.23078124999302,
      "v": 80
    },
    {
      "midi": 64,
      "hit": false,
      "t": 252932.71338541337,
      "d": 490.3846562499821,
      "v": 104
    },
    {
      "midi": 66,
      "hit": false,
      "t": 252932.71338541337,
      "d": 509.6154270833067,
      "v": 101
    },
    {
      "midi": 61,
      "hit": false,
      "t": 252932.71338541337,
      "d": 519.230812499969,
      "v": 107
    },
    {
      "midi": 58,
      "hit": false,
      "t": 252932.71338541337,
      "d": 557.6923541666474,
      "v": 116
    },
    {
      "midi": 42,
      "hit": false,
      "t": 252932.71338541337,
      "d": 855.7693020833249,
      "v": 113
    },
    {
      "midi": 54,
      "hit": false,
      "t": 253394.25188541337,
      "d": 336.53848958332674,
      "v": 119
    },
    {
      "midi": 54,
      "hit": false,
      "t": 253836.55961458004,
      "d": 1442.3078124999884,
      "v": 116
    },
    {
      "midi": 58,
      "hit": false,
      "t": 253836.55961458004,
      "d": 1451.9231979166507,
      "v": 101
    },
    {
      "midi": 59,
      "hit": false,
      "t": 253836.55961458004,
      "d": 1451.9231979166507,
      "v": 98
    },
    {
      "midi": 47,
      "hit": false,
      "t": 253836.55961458004,
      "d": 1461.538583333313,
      "v": 97
    },
    {
      "midi": 63,
      "hit": false,
      "t": 253836.55961458004,
      "d": 1471.1539687499753,
      "v": 107
    },
    {
      "midi": 56,
      "hit": false,
      "t": 255692.32899999668,
      "d": 759.6154479166726,
      "v": 119
    },
    {
      "midi": 37,
      "hit": false,
      "t": 255692.32899999668,
      "d": 788.4616041666595,
      "v": 97
    },
    {
      "midi": 64,
      "hit": false,
      "t": 255692.32899999668,
      "d": 798.0769895833218,
      "v": 117
    },
    {
      "midi": 49,
      "hit": false,
      "t": 255692.32899999668,
      "d": 817.3077604166465,
      "v": 116
    },
    {
      "midi": 61,
      "hit": false,
      "t": 255692.32899999668,
      "d": 817.3077604166465,
      "v": 104
    },
    {
      "midi": 59,
      "hit": false,
      "t": 255701.94438541334,
      "d": 750.0000625000102,
      "v": 110
    },
    {
      "midi": 58,
      "hit": false,
      "t": 256625.02138541333,
      "d": 451.9231145833328,
      "v": 113
    },
    {
      "midi": 51,
      "hit": false,
      "t": 256625.02138541333,
      "d": 567.3077395833388,
      "v": 119
    },
    {
      "midi": 61,
      "hit": false,
      "t": 256625.02138541333,
      "d": 567.3077395833388,
      "v": 127
    },
    {
      "midi": 63,
      "hit": false,
      "t": 256625.02138541333,
      "d": 567.3077395833388,
      "v": 116
    },
    {
      "midi": 66,
      "hit": false,
      "t": 256625.02138541333,
      "d": 567.3077395833388,
      "v": 113
    },
    {
      "midi": 39,
      "hit": false,
      "t": 256625.02138541333,
      "d": 721.1539062499942,
      "v": 97
    },
    {
      "midi": 60,
      "hit": false,
      "t": 257759.63686457998,
      "d": 144.23078124999302,
      "v": 117
    },
    {
      "midi": 63,
      "hit": false,
      "t": 257759.63686457998,
      "d": 153.84616666665534,
      "v": 117
    },
    {
      "midi": 68,
      "hit": false,
      "t": 257759.63686457998,
      "d": 182.6923229166423,
      "v": 117
    },
    {
      "midi": 65,
      "hit": false,
      "t": 257759.63686457998,
      "d": 192.30770833330462,
      "v": 117
    },
    {
      "midi": 63,
      "hit": false,
      "t": 257990.40611457996,
      "d": 115.38462500000605,
      "v": 71
    },
    {
      "midi": 58,
      "hit": false,
      "t": 257990.40611457996,
      "d": 134.6153958333307,
      "v": 104
    },
    {
      "midi": 67,
      "hit": false,
      "t": 257990.40611457996,
      "d": 153.84616666665534,
      "v": 81
    },
    {
      "midi": 41,
      "hit": false,
      "t": 258240.40613541327,
      "d": 375.0000312500051,
      "v": 88
    },
    {
      "midi": 65,
      "hit": false,
      "t": 258471.17538541328,
      "d": 134.6153958333307,
      "v": 119
    },
    {
      "midi": 63,
      "hit": false,
      "t": 258471.17538541328,
      "d": 144.23078124999302,
      "v": 119
    },
    {
      "midi": 60,
      "hit": false,
      "t": 258471.17538541328,
      "d": 201.92309374999604,
      "v": 119
    },
    {
      "midi": 68,
      "hit": false,
      "t": 258471.17538541328,
      "d": 221.15386458332068,
      "v": 119
    },
    {
      "midi": 41,
      "hit": false,
      "t": 258701.94463541327,
      "d": 240.38463541664532,
      "v": 65
    },
    {
      "midi": 53,
      "hit": false,
      "t": 258701.94463541327,
      "d": 269.2307916666323,
      "v": 80
    },
    {
      "midi": 58,
      "hit": false,
      "t": 258913.48311457993,
      "d": 144.2307812499639,
      "v": 95
    },
    {
      "midi": 63,
      "hit": false,
      "t": 258913.48311457993,
      "d": 153.84616666662623,
      "v": 74
    },
    {
      "midi": 67,
      "hit": false,
      "t": 258913.48311457993,
      "d": 173.07693749995087,
      "v": 85
    },
    {
      "midi": 63,
      "hit": false,
      "t": 259163.4831354132,
      "d": 125.00001041666837,
      "v": 110
    },
    {
      "midi": 65,
      "hit": false,
      "t": 259163.4831354132,
      "d": 153.84616666665534,
      "v": 110
    },
    {
      "midi": 60,
      "hit": false,
      "t": 259163.4831354132,
      "d": 163.46155208331766,
      "v": 110
    },
    {
      "midi": 68,
      "hit": false,
      "t": 259163.4831354132,
      "d": 182.6923229166423,
      "v": 110
    },
    {
      "midi": 46,
      "hit": false,
      "t": 259394.2523854132,
      "d": 86.53846874998999,
      "v": 107
    },
    {
      "midi": 46,
      "hit": false,
      "t": 259615.4062499965,
      "d": 48.076927083340706,
      "v": 99
    },
    {
      "midi": 46,
      "hit": false,
      "t": 260067.32936457984,
      "d": 67.30769791666535,
      "v": 82
    },
    {
      "midi": 46,
      "hit": false,
      "t": 260528.86786457984,
      "d": 76.92308333332767,
      "v": 119
    },
    {
      "midi": 65,
      "hit": false,
      "t": 260528.86786457984,
      "d": 144.23078124999302,
      "v": 127
    },
    {
      "midi": 61,
      "hit": false,
      "t": 260528.86786457984,
      "d": 221.15386458332068,
      "v": 119
    },
    {
      "midi": 68,
      "hit": false,
      "t": 260528.86786457984,
      "d": 230.769249999983,
      "v": 116
    },
    {
      "midi": 58,
      "hit": false,
      "t": 260528.86786457984,
      "d": 240.38463541664532,
      "v": 123
    },
    {
      "midi": 61,
      "hit": false,
      "t": 260990.4063645798,
      "d": 182.6923229166714,
      "v": 119
    },
    {
      "midi": 58,
      "hit": false,
      "t": 260990.4063645798,
      "d": 201.92309374999604,
      "v": 116
    },
    {
      "midi": 66,
      "hit": false,
      "t": 260990.4063645798,
      "d": 201.92309374999604,
      "v": 123
    },
    {
      "midi": 39,
      "hit": false,
      "t": 261000.02174999646,
      "d": 192.30770833333372,
      "v": 89
    },
    {
      "midi": 51,
      "hit": false,
      "t": 261000.02174999646,
      "d": 230.7692500000121,
      "v": 107
    },
    {
      "midi": 58,
      "hit": false,
      "t": 261451.9448645798,
      "d": 134.6153958333307,
      "v": 107
    },
    {
      "midi": 61,
      "hit": false,
      "t": 261451.9448645798,
      "d": 134.6153958333307,
      "v": 113
    },
    {
      "midi": 66,
      "hit": false,
      "t": 261451.9448645798,
      "d": 153.84616666665534,
      "v": 119
    },
    {
      "midi": 61,
      "hit": false,
      "t": 261701.9448854131,
      "d": 115.38462500000605,
      "v": 95
    },
    {
      "midi": 65,
      "hit": false,
      "t": 261701.9448854131,
      "d": 134.6153958333307,
      "v": 106
    },
    {
      "midi": 56,
      "hit": false,
      "t": 261701.9448854131,
      "d": 144.23078124999302,
      "v": 107
    },
    {
      "midi": 39,
      "hit": false,
      "t": 261932.7141354131,
      "d": 57.69231250000303,
      "v": 85
    },
    {
      "midi": 61,
      "hit": false,
      "t": 262163.48338541307,
      "d": 134.6153958333307,
      "v": 127
    },
    {
      "midi": 58,
      "hit": false,
      "t": 262163.48338541307,
      "d": 144.23078124999302,
      "v": 119
    },
    {
      "midi": 66,
      "hit": false,
      "t": 262163.48338541307,
      "d": 173.07693749997998,
      "v": 127
    },
    {
      "midi": 39,
      "hit": false,
      "t": 262384.63724999636,
      "d": 201.92309375002515,
      "v": 85
    },
    {
      "midi": 65,
      "hit": false,
      "t": 262605.7911145797,
      "d": 144.23078124999302,
      "v": 106
    },
    {
      "midi": 61,
      "hit": false,
      "t": 262605.7911145797,
      "d": 153.84616666665534,
      "v": 110
    },
    {
      "midi": 68,
      "hit": false,
      "t": 262605.7911145797,
      "d": 173.07693749997998,
      "v": 107
    },
    {
      "midi": 51,
      "hit": false,
      "t": 262625.02188541304,
      "d": 96.15385416668141,
      "v": 104
    },
    {
      "midi": 44,
      "hit": false,
      "t": 262855.79113541305,
      "d": 96.15385416668141,
      "v": 78
    },
    {
      "midi": 61,
      "hit": false,
      "t": 262855.79113541305,
      "d": 163.46155208337586,
      "v": 104
    },
    {
      "midi": 66,
      "hit": false,
      "t": 262855.79113541305,
      "d": 173.07693750003818,
      "v": 95
    },
    {
      "midi": 58,
      "hit": false,
      "t": 262855.79113541305,
      "d": 192.30770833336283,
      "v": 107
    },
    {
      "midi": 61,
      "hit": false,
      "t": 263317.3296354131,
      "d": 67.30769791669445,
      "v": 89
    },
    {
      "midi": 58,
      "hit": false,
      "t": 263317.3296354131,
      "d": 115.38462500000605,
      "v": 85
    },
    {
      "midi": 66,
      "hit": false,
      "t": 263317.3296354131,
      "d": 115.38462500000605,
      "v": 97
    },
    {
      "midi": 44,
      "hit": false,
      "t": 263778.8681354131,
      "d": 38.46154166664928,
      "v": 107
    },
    {
      "midi": 61,
      "hit": false,
      "t": 263990.4066145797,
      "d": 57.69231249997392,
      "v": 97
    },
    {
      "midi": 66,
      "hit": false,
      "t": 263990.4066145797,
      "d": 67.30769791663624,
      "v": 107
    },
    {
      "midi": 58,
      "hit": false,
      "t": 263990.4066145797,
      "d": 76.92308333329856,
      "v": 97
    },
    {
      "midi": 44,
      "hit": false,
      "t": 264009.63738541305,
      "d": 38.46154166664928,
      "v": 101
    },
    {
      "midi": 44,
      "hit": false,
      "t": 264240.406635413,
      "d": 57.69231249997392,
      "v": 101
    },
    {
      "midi": 61,
      "hit": false,
      "t": 264240.406635413,
      "d": 134.6153958333307,
      "v": 123
    },
    {
      "midi": 58,
      "hit": false,
      "t": 264240.406635413,
      "d": 182.6923229166423,
      "v": 119
    },
    {
      "midi": 66,
      "hit": false,
      "t": 264240.406635413,
      "d": 192.30770833330462,
      "v": 127
    },
    {
      "midi": 37,
      "hit": false,
      "t": 264682.71436457965,
      "d": 76.92308333329856,
      "v": 89
    },
    {
      "midi": 64,
      "hit": false,
      "t": 264682.71436457965,
      "d": 173.07693749997998,
      "v": 110
    },
    {
      "midi": 68,
      "hit": false,
      "t": 264682.71436457965,
      "d": 201.92309374996694,
      "v": 101
    },
    {
      "midi": 59,
      "hit": false,
      "t": 264682.71436457965,
      "d": 211.53847916662926,
      "v": 106
    },
    {
      "midi": 49,
      "hit": false,
      "t": 264701.94513541297,
      "d": 48.0769270833116,
      "v": 99
    },
    {
      "midi": 59,
      "hit": false,
      "t": 265153.8682499963,
      "d": 115.38462499994785,
      "v": 108
    },
    {
      "midi": 64,
      "hit": false,
      "t": 265153.8682499963,
      "d": 173.07693749992177,
      "v": 120
    },
    {
      "midi": 37,
      "hit": false,
      "t": 265163.48363541294,
      "d": 48.0769270833116,
      "v": 85
    },
    {
      "midi": 49,
      "hit": false,
      "t": 265163.48363541294,
      "d": 48.0769270833116,
      "v": 99
    },
    {
      "midi": 68,
      "hit": false,
      "t": 265163.48363541294,
      "d": 144.2307812499348,
      "v": 116
    },
    {
      "midi": 63,
      "hit": false,
      "t": 265384.63749999617,
      "d": 173.07693749997998,
      "v": 97
    },
    {
      "midi": 58,
      "hit": false,
      "t": 265384.63749999617,
      "d": 182.6923229166423,
      "v": 113
    },
    {
      "midi": 66,
      "hit": false,
      "t": 265384.63749999617,
      "d": 192.30770833330462,
      "v": 87
    },
    {
      "midi": 37,
      "hit": false,
      "t": 265605.79136457946,
      "d": 67.30769791669445,
      "v": 85
    },
    {
      "midi": 64,
      "hit": false,
      "t": 265846.17599999614,
      "d": 211.53847916668747,
      "v": 122
    },
    {
      "midi": 59,
      "hit": false,
      "t": 265846.17599999614,
      "d": 230.7692500000121,
      "v": 114
    },
    {
      "midi": 68,
      "hit": false,
      "t": 265846.17599999614,
      "d": 259.61540624999907,
      "v": 116
    },
    {
      "midi": 37,
      "hit": false,
      "t": 266067.3298645795,
      "d": 221.15386458329158,
      "v": 95
    },
    {
      "midi": 58,
      "hit": false,
      "t": 266298.09911457944,
      "d": 192.30770833336283,
      "v": 110
    },
    {
      "midi": 63,
      "hit": false,
      "t": 266307.7144999961,
      "d": 173.07693750003818,
      "v": 113
    },
    {
      "midi": 66,
      "hit": false,
      "t": 266307.7144999961,
      "d": 192.30770833336283,
      "v": 99
    },
    {
      "midi": 49,
      "hit": false,
      "t": 266317.32988541276,
      "d": 96.15385416668141,
      "v": 99
    },
    {
      "midi": 64,
      "hit": false,
      "t": 266548.0991354128,
      "d": 211.53847916668747,
      "v": 104
    },
    {
      "midi": 68,
      "hit": false,
      "t": 266548.0991354128,
      "d": 211.53847916668747,
      "v": 104
    },
    {
      "midi": 59,
      "hit": false,
      "t": 266548.0991354128,
      "d": 230.7692500000121,
      "v": 104
    },
    {
      "midi": 42,
      "hit": false,
      "t": 266778.8683854128,
      "d": 692.3077500000363,
      "v": 119
    },
    {
      "midi": 59,
      "hit": false,
      "t": 267009.6376354128,
      "d": 384.61541666666744,
      "v": 92
    },
    {
      "midi": 64,
      "hit": false,
      "t": 267009.6376354128,
      "d": 384.61541666666744,
      "v": 97
    },
    {
      "midi": 68,
      "hit": false,
      "t": 267009.6376354128,
      "d": 394.23080208332976,
      "v": 81
    },
    {
      "midi": 59,
      "hit": false,
      "t": 267471.1761354128,
      "d": 76.92308333335677,
      "v": 61
    },
    {
      "midi": 54,
      "hit": false,
      "t": 267471.1761354128,
      "d": 86.53846875001909,
      "v": 79
    },
    {
      "midi": 68,
      "hit": false,
      "t": 267471.1761354128,
      "d": 125.00001041666837,
      "v": 59
    },
    {
      "midi": 64,
      "hit": false,
      "t": 267471.1761354128,
      "d": 144.23078124999302,
      "v": 80
    },
    {
      "midi": 64,
      "hit": false,
      "t": 267701.94538541284,
      "d": 490.3846562500112,
      "v": 104
    },
    {
      "midi": 66,
      "hit": false,
      "t": 267701.94538541284,
      "d": 509.6154270833358,
      "v": 101
    },
    {
      "midi": 61,
      "hit": false,
      "t": 267701.94538541284,
      "d": 519.2308124999981,
      "v": 107
    },
    {
      "midi": 58,
      "hit": false,
      "t": 267701.94538541284,
      "d": 557.6923541666474,
      "v": 116
    },
    {
      "midi": 42,
      "hit": false,
      "t": 267701.94538541284,
      "d": 855.7693020832958,
      "v": 113
    },
    {
      "midi": 54,
      "hit": false,
      "t": 268163.48388541286,
      "d": 336.53848958329763,
      "v": 119
    },
    {
      "midi": 54,
      "hit": false,
      "t": 268605.79161457944,
      "d": 1442.3078124999884,
      "v": 116
    },
    {
      "midi": 58,
      "hit": false,
      "t": 268605.79161457944,
      "d": 1451.9231979166507,
      "v": 101
    },
    {
      "midi": 59,
      "hit": false,
      "t": 268605.79161457944,
      "d": 1451.9231979166507,
      "v": 98
    },
    {
      "midi": 47,
      "hit": false,
      "t": 268605.79161457944,
      "d": 1461.538583333313,
      "v": 97
    },
    {
      "midi": 63,
      "hit": false,
      "t": 268605.79161457944,
      "d": 1471.1539687499753,
      "v": 107
    },
    {
      "midi": 56,
      "hit": false,
      "t": 270461.5609999961,
      "d": 759.6154479166726,
      "v": 119
    },
    {
      "midi": 37,
      "hit": false,
      "t": 270461.5609999961,
      "d": 788.4616041666595,
      "v": 97
    },
    {
      "midi": 64,
      "hit": false,
      "t": 270461.5609999961,
      "d": 798.0769895833218,
      "v": 117
    },
    {
      "midi": 49,
      "hit": false,
      "t": 270461.5609999961,
      "d": 817.3077604166465,
      "v": 116
    },
    {
      "midi": 61,
      "hit": false,
      "t": 270461.5609999961,
      "d": 817.3077604166465,
      "v": 104
    },
    {
      "midi": 59,
      "hit": false,
      "t": 270471.17638541275,
      "d": 750.0000625000102,
      "v": 110
    },
    {
      "midi": 58,
      "hit": false,
      "t": 271394.25338541274,
      "d": 692.3077499999781,
      "v": 113
    },
    {
      "midi": 61,
      "hit": false,
      "t": 271394.25338541274,
      "d": 692.3077499999781,
      "v": 127
    },
    {
      "midi": 51,
      "hit": false,
      "t": 271394.25338541274,
      "d": 701.9231354166404,
      "v": 119
    },
    {
      "midi": 63,
      "hit": false,
      "t": 271394.25338541274,
      "d": 711.5385208333028,
      "v": 116
    },
    {
      "midi": 39,
      "hit": false,
      "t": 271394.25338541274,
      "d": 721.1539062499651,
      "v": 97
    },
    {
      "midi": 66,
      "hit": false,
      "t": 271394.25338541274,
      "d": 759.6154479166144,
      "v": 113
    },
    {
      "midi": 60,
      "hit": false,
      "t": 272528.86886457936,
      "d": 144.23078124999302,
      "v": 117
    },
    {
      "midi": 63,
      "hit": false,
      "t": 272528.86886457936,
      "d": 153.84616666665534,
      "v": 117
    },
    {
      "midi": 68,
      "hit": false,
      "t": 272528.86886457936,
      "d": 182.6923229166423,
      "v": 117
    },
    {
      "midi": 65,
      "hit": false,
      "t": 272528.86886457936,
      "d": 192.30770833330462,
      "v": 117
    },
    {
      "midi": 63,
      "hit": false,
      "t": 272759.6381145793,
      "d": 115.38462500000605,
      "v": 71
    },
    {
      "midi": 58,
      "hit": false,
      "t": 272759.6381145793,
      "d": 134.6153958333307,
      "v": 104
    },
    {
      "midi": 67,
      "hit": false,
      "t": 272759.6381145793,
      "d": 153.84616666665534,
      "v": 81
    },
    {
      "midi": 41,
      "hit": false,
      "t": 273009.63813541265,
      "d": 375.0000312500051,
      "v": 88
    },
    {
      "midi": 65,
      "hit": false,
      "t": 273240.40738541266,
      "d": 134.6153958333307,
      "v": 119
    },
    {
      "midi": 63,
      "hit": false,
      "t": 273240.40738541266,
      "d": 144.23078124999302,
      "v": 119
    },
    {
      "midi": 60,
      "hit": false,
      "t": 273240.40738541266,
      "d": 201.92309374996694,
      "v": 119
    },
    {
      "midi": 68,
      "hit": false,
      "t": 273240.40738541266,
      "d": 221.15386458329158,
      "v": 119
    },
    {
      "midi": 41,
      "hit": false,
      "t": 273471.1766354126,
      "d": 240.38463541667443,
      "v": 65
    },
    {
      "midi": 53,
      "hit": false,
      "t": 273471.1766354126,
      "d": 269.2307916666614,
      "v": 80
    },
    {
      "midi": 58,
      "hit": false,
      "t": 273682.7151145793,
      "d": 144.23078124999302,
      "v": 95
    },
    {
      "midi": 63,
      "hit": false,
      "t": 273682.7151145793,
      "d": 153.84616666665534,
      "v": 74
    },
    {
      "midi": 67,
      "hit": false,
      "t": 273682.7151145793,
      "d": 173.07693749997998,
      "v": 85
    },
    {
      "midi": 63,
      "hit": false,
      "t": 273932.71513541264,
      "d": 125.00001041666837,
      "v": 110
    },
    {
      "midi": 65,
      "hit": false,
      "t": 273932.71513541264,
      "d": 153.84616666665534,
      "v": 110
    },
    {
      "midi": 60,
      "hit": false,
      "t": 273932.71513541264,
      "d": 163.46155208331766,
      "v": 110
    },
    {
      "midi": 68,
      "hit": false,
      "t": 273932.71513541264,
      "d": 182.6923229166423,
      "v": 110
    },
    {
      "midi": 46,
      "hit": false,
      "t": 274163.4843854126,
      "d": 86.53846875001909,
      "v": 107
    },
    {
      "midi": 46,
      "hit": false,
      "t": 274384.63824999594,
      "d": 48.0769270833116,
      "v": 99
    },
    {
      "midi": 46,
      "hit": false,
      "t": 274836.56136457925,
      "d": 67.30769791669445,
      "v": 82
    },
    {
      "midi": 46,
      "hit": false,
      "t": 275298.0998645793,
      "d": 76.92308333335677,
      "v": 119
    },
    {
      "midi": 65,
      "hit": false,
      "t": 275298.0998645793,
      "d": 144.23078125005122,
      "v": 127
    },
    {
      "midi": 61,
      "hit": false,
      "t": 275298.0998645793,
      "d": 221.153864583408,
      "v": 119
    },
    {
      "midi": 68,
      "hit": false,
      "t": 275298.0998645793,
      "d": 230.76925000007031,
      "v": 116
    },
    {
      "midi": 58,
      "hit": false,
      "t": 275298.0998645793,
      "d": 240.38463541673264,
      "v": 123
    },
    {
      "midi": 61,
      "hit": false,
      "t": 275759.63836457935,
      "d": 182.6923229166423,
      "v": 119
    },
    {
      "midi": 58,
      "hit": false,
      "t": 275759.63836457935,
      "d": 201.92309374996694,
      "v": 116
    },
    {
      "midi": 66,
      "hit": false,
      "t": 275759.63836457935,
      "d": 201.92309374996694,
      "v": 123
    },
    {
      "midi": 39,
      "hit": false,
      "t": 275769.253749996,
      "d": 192.30770833330462,
      "v": 89
    },
    {
      "midi": 51,
      "hit": false,
      "t": 275769.253749996,
      "d": 230.7692499999539,
      "v": 107
    },
    {
      "midi": 58,
      "hit": false,
      "t": 276221.1768645793,
      "d": 134.6153958333307,
      "v": 107
    },
    {
      "midi": 61,
      "hit": false,
      "t": 276221.1768645793,
      "d": 134.6153958333307,
      "v": 113
    },
    {
      "midi": 66,
      "hit": false,
      "t": 276221.1768645793,
      "d": 153.84616666665534,
      "v": 119
    },
    {
      "midi": 61,
      "hit": false,
      "t": 276471.17688541266,
      "d": 115.38462500000605,
      "v": 95
    },
    {
      "midi": 65,
      "hit": false,
      "t": 276471.17688541266,
      "d": 134.6153958333307,
      "v": 106
    },
    {
      "midi": 56,
      "hit": false,
      "t": 276471.17688541266,
      "d": 144.23078124999302,
      "v": 107
    },
    {
      "midi": 39,
      "hit": false,
      "t": 276701.94613541267,
      "d": 57.69231249997392,
      "v": 85
    },
    {
      "midi": 61,
      "hit": false,
      "t": 276932.7153854126,
      "d": 134.6153958333307,
      "v": 127
    },
    {
      "midi": 58,
      "hit": false,
      "t": 276932.7153854126,
      "d": 144.23078124999302,
      "v": 119
    },
    {
      "midi": 66,
      "hit": false,
      "t": 276932.7153854126,
      "d": 173.07693749997998,
      "v": 127
    },
    {
      "midi": 39,
      "hit": false,
      "t": 277153.8692499959,
      "d": 201.92309375002515,
      "v": 85
    },
    {
      "midi": 65,
      "hit": false,
      "t": 277375.02311457926,
      "d": 144.23078124999302,
      "v": 106
    },
    {
      "midi": 61,
      "hit": false,
      "t": 277375.02311457926,
      "d": 153.84616666665534,
      "v": 110
    },
    {
      "midi": 68,
      "hit": false,
      "t": 277375.02311457926,
      "d": 173.07693749997998,
      "v": 107
    },
    {
      "midi": 51,
      "hit": false,
      "t": 277394.2538854126,
      "d": 96.15385416668141,
      "v": 104
    },
    {
      "midi": 44,
      "hit": false,
      "t": 277625.0231354126,
      "d": 96.15385416668141,
      "v": 78
    },
    {
      "midi": 61,
      "hit": false,
      "t": 277625.0231354126,
      "d": 163.46155208337586,
      "v": 104
    },
    {
      "midi": 66,
      "hit": false,
      "t": 277625.0231354126,
      "d": 173.07693750003818,
      "v": 95
    },
    {
      "midi": 58,
      "hit": false,
      "t": 277625.0231354126,
      "d": 192.30770833336283,
      "v": 107
    },
    {
      "midi": 61,
      "hit": false,
      "t": 278086.5616354126,
      "d": 67.30769791669445,
      "v": 89
    },
    {
      "midi": 58,
      "hit": false,
      "t": 278086.5616354126,
      "d": 115.38462500000605,
      "v": 85
    },
    {
      "midi": 66,
      "hit": false,
      "t": 278086.5616354126,
      "d": 115.38462500000605,
      "v": 97
    },
    {
      "midi": 44,
      "hit": false,
      "t": 278548.10013541265,
      "d": 38.46154166664928,
      "v": 107
    },
    {
      "midi": 61,
      "hit": false,
      "t": 278759.6386145793,
      "d": 57.69231249997392,
      "v": 97
    },
    {
      "midi": 66,
      "hit": false,
      "t": 278759.6386145793,
      "d": 67.30769791663624,
      "v": 107
    },
    {
      "midi": 58,
      "hit": false,
      "t": 278759.6386145793,
      "d": 76.92308333329856,
      "v": 97
    },
    {
      "midi": 44,
      "hit": false,
      "t": 278778.8693854126,
      "d": 38.46154166664928,
      "v": 101
    },
    {
      "midi": 44,
      "hit": false,
      "t": 279009.63863541256,
      "d": 57.69231249997392,
      "v": 101
    },
    {
      "midi": 61,
      "hit": false,
      "t": 279009.63863541256,
      "d": 134.6153958333307,
      "v": 123
    },
    {
      "midi": 58,
      "hit": false,
      "t": 279009.63863541256,
      "d": 182.6923229166423,
      "v": 119
    },
    {
      "midi": 66,
      "hit": false,
      "t": 279009.63863541256,
      "d": 192.30770833330462,
      "v": 127
    },
    {
      "midi": 37,
      "hit": false,
      "t": 279451.9463645792,
      "d": 76.92308333329856,
      "v": 89
    },
    {
      "midi": 64,
      "hit": false,
      "t": 279451.9463645792,
      "d": 173.07693749997998,
      "v": 110
    },
    {
      "midi": 68,
      "hit": false,
      "t": 279451.9463645792,
      "d": 201.92309374996694,
      "v": 101
    },
    {
      "midi": 59,
      "hit": false,
      "t": 279451.9463645792,
      "d": 211.53847916662926,
      "v": 106
    },
    {
      "midi": 49,
      "hit": false,
      "t": 279471.1771354125,
      "d": 48.0769270833116,
      "v": 99
    },
    {
      "midi": 59,
      "hit": false,
      "t": 279923.1002499958,
      "d": 115.38462499994785,
      "v": 108
    },
    {
      "midi": 64,
      "hit": false,
      "t": 279923.1002499958,
      "d": 173.07693749992177,
      "v": 120
    },
    {
      "midi": 37,
      "hit": false,
      "t": 279932.7156354125,
      "d": 48.0769270833116,
      "v": 85
    },
    {
      "midi": 49,
      "hit": false,
      "t": 279932.7156354125,
      "d": 48.0769270833116,
      "v": 99
    },
    {
      "midi": 68,
      "hit": false,
      "t": 279932.7156354125,
      "d": 144.2307812499348,
      "v": 116
    },
    {
      "midi": 63,
      "hit": false,
      "t": 280153.8694999957,
      "d": 173.07693749997998,
      "v": 97
    },
    {
      "midi": 58,
      "hit": false,
      "t": 280153.8694999957,
      "d": 182.6923229166423,
      "v": 113
    },
    {
      "midi": 66,
      "hit": false,
      "t": 280153.8694999957,
      "d": 192.30770833330462,
      "v": 87
    },
    {
      "midi": 37,
      "hit": false,
      "t": 280375.023364579,
      "d": 67.30769791669445,
      "v": 85
    },
    {
      "midi": 64,
      "hit": false,
      "t": 280615.4079999957,
      "d": 211.53847916668747,
      "v": 122
    },
    {
      "midi": 59,
      "hit": false,
      "t": 280615.4079999957,
      "d": 230.7692500000121,
      "v": 114
    },
    {
      "midi": 68,
      "hit": false,
      "t": 280615.4079999957,
      "d": 259.61540624999907,
      "v": 116
    },
    {
      "midi": 37,
      "hit": false,
      "t": 280836.56186457904,
      "d": 221.15386458329158,
      "v": 95
    },
    {
      "midi": 58,
      "hit": false,
      "t": 281067.331114579,
      "d": 192.30770833336283,
      "v": 110
    },
    {
      "midi": 63,
      "hit": false,
      "t": 281076.94649999565,
      "d": 173.07693750003818,
      "v": 113
    },
    {
      "midi": 66,
      "hit": false,
      "t": 281076.94649999565,
      "d": 192.30770833336283,
      "v": 99
    },
    {
      "midi": 49,
      "hit": false,
      "t": 281086.5618854123,
      "d": 96.15385416668141,
      "v": 99
    },
    {
      "midi": 64,
      "hit": false,
      "t": 281317.3311354123,
      "d": 211.53847916668747,
      "v": 104
    },
    {
      "midi": 68,
      "hit": false,
      "t": 281317.3311354123,
      "d": 211.53847916668747,
      "v": 104
    },
    {
      "midi": 59,
      "hit": false,
      "t": 281317.3311354123,
      "d": 230.7692500000121,
      "v": 104
    },
    {
      "midi": 42,
      "hit": false,
      "t": 281548.10038541234,
      "d": 692.3077500000363,
      "v": 119
    },
    {
      "midi": 59,
      "hit": false,
      "t": 281778.86963541235,
      "d": 384.61541666666744,
      "v": 92
    },
    {
      "midi": 64,
      "hit": false,
      "t": 281778.86963541235,
      "d": 384.61541666666744,
      "v": 97
    },
    {
      "midi": 68,
      "hit": false,
      "t": 281778.86963541235,
      "d": 394.23080208332976,
      "v": 81
    },
    {
      "midi": 59,
      "hit": false,
      "t": 282240.4081354124,
      "d": 76.92308333335677,
      "v": 61
    },
    {
      "midi": 54,
      "hit": false,
      "t": 282240.4081354124,
      "d": 86.53846875001909,
      "v": 79
    },
    {
      "midi": 68,
      "hit": false,
      "t": 282240.4081354124,
      "d": 125.00001041666837,
      "v": 59
    },
    {
      "midi": 64,
      "hit": false,
      "t": 282240.4081354124,
      "d": 144.23078124999302,
      "v": 80
    },
    {
      "midi": 64,
      "hit": false,
      "t": 282471.1773854124,
      "d": 490.3846562500112,
      "v": 104
    },
    {
      "midi": 66,
      "hit": false,
      "t": 282471.1773854124,
      "d": 509.6154270833358,
      "v": 101
    },
    {
      "midi": 61,
      "hit": false,
      "t": 282471.1773854124,
      "d": 519.2308124999981,
      "v": 107
    },
    {
      "midi": 58,
      "hit": false,
      "t": 282471.1773854124,
      "d": 557.6923541666474,
      "v": 116
    },
    {
      "midi": 42,
      "hit": false,
      "t": 282471.1773854124,
      "d": 855.7693020832958,
      "v": 113
    },
    {
      "midi": 54,
      "hit": false,
      "t": 282932.7158854124,
      "d": 336.53848958329763,
      "v": 119
    },
    {
      "midi": 54,
      "hit": false,
      "t": 283375.023614579,
      "d": 1442.3078124999884,
      "v": 116
    },
    {
      "midi": 58,
      "hit": false,
      "t": 283375.023614579,
      "d": 1451.9231979166507,
      "v": 101
    },
    {
      "midi": 59,
      "hit": false,
      "t": 283375.023614579,
      "d": 1451.9231979166507,
      "v": 98
    },
    {
      "midi": 47,
      "hit": false,
      "t": 283375.023614579,
      "d": 1461.538583333313,
      "v": 97
    },
    {
      "midi": 63,
      "hit": false,
      "t": 283375.023614579,
      "d": 1471.1539687499753,
      "v": 107
    },
    {
      "midi": 56,
      "hit": false,
      "t": 285230.79299999564,
      "d": 759.6154479166726,
      "v": 119
    },
    {
      "midi": 37,
      "hit": false,
      "t": 285230.79299999564,
      "d": 788.4616041666595,
      "v": 97
    },
    {
      "midi": 64,
      "hit": false,
      "t": 285230.79299999564,
      "d": 798.0769895833218,
      "v": 117
    },
    {
      "midi": 49,
      "hit": false,
      "t": 285230.79299999564,
      "d": 817.3077604166465,
      "v": 116
    },
    {
      "midi": 61,
      "hit": false,
      "t": 285230.79299999564,
      "d": 817.3077604166465,
      "v": 104
    },
    {
      "midi": 59,
      "hit": false,
      "t": 285240.4083854123,
      "d": 750.0000625000102,
      "v": 110
    },
    {
      "midi": 58,
      "hit": false,
      "t": 286163.4853854123,
      "d": 692.3077499999781,
      "v": 113
    },
    {
      "midi": 61,
      "hit": false,
      "t": 286163.4853854123,
      "d": 692.3077499999781,
      "v": 127
    },
    {
      "midi": 51,
      "hit": false,
      "t": 286163.4853854123,
      "d": 701.9231354166404,
      "v": 119
    },
    {
      "midi": 63,
      "hit": false,
      "t": 286163.4853854123,
      "d": 711.5385208333028,
      "v": 116
    },
    {
      "midi": 39,
      "hit": false,
      "t": 286163.4853854123,
      "d": 721.1539062499651,
      "v": 97
    },
    {
      "midi": 66,
      "hit": false,
      "t": 286163.4853854123,
      "d": 759.6154479166144,
      "v": 113
    },
    {
      "midi": 60,
      "hit": false,
      "t": 287298.1008645789,
      "d": 144.23078124999302,
      "v": 117
    },
    {
      "midi": 63,
      "hit": false,
      "t": 287298.1008645789,
      "d": 153.84616666665534,
      "v": 117
    },
    {
      "midi": 68,
      "hit": false,
      "t": 287298.1008645789,
      "d": 182.6923229166423,
      "v": 117
    },
    {
      "midi": 65,
      "hit": false,
      "t": 287298.1008645789,
      "d": 192.30770833330462,
      "v": 117
    },
    {
      "midi": 63,
      "hit": false,
      "t": 287528.87011457887,
      "d": 115.38462500000605,
      "v": 71
    },
    {
      "midi": 58,
      "hit": false,
      "t": 287528.87011457887,
      "d": 134.6153958333307,
      "v": 104
    },
    {
      "midi": 67,
      "hit": false,
      "t": 287528.87011457887,
      "d": 153.84616666665534,
      "v": 81
    },
    {
      "midi": 41,
      "hit": false,
      "t": 287778.8701354122,
      "d": 375.0000312500051,
      "v": 88
    },
    {
      "midi": 65,
      "hit": false,
      "t": 288009.6393854122,
      "d": 134.6153958333307,
      "v": 119
    },
    {
      "midi": 63,
      "hit": false,
      "t": 288009.6393854122,
      "d": 144.23078124999302,
      "v": 119
    },
    {
      "midi": 60,
      "hit": false,
      "t": 288009.6393854122,
      "d": 201.92309374996694,
      "v": 119
    },
    {
      "midi": 68,
      "hit": false,
      "t": 288009.6393854122,
      "d": 221.15386458329158,
      "v": 119
    },
    {
      "midi": 41,
      "hit": false,
      "t": 288240.40863541217,
      "d": 240.38463541667443,
      "v": 65
    },
    {
      "midi": 53,
      "hit": false,
      "t": 288240.40863541217,
      "d": 269.2307916666614,
      "v": 80
    },
    {
      "midi": 58,
      "hit": false,
      "t": 288451.94711457886,
      "d": 144.23078124999302,
      "v": 95
    },
    {
      "midi": 63,
      "hit": false,
      "t": 288451.94711457886,
      "d": 153.84616666665534,
      "v": 74
    },
    {
      "midi": 67,
      "hit": false,
      "t": 288451.94711457886,
      "d": 173.07693749997998,
      "v": 85
    },
    {
      "midi": 63,
      "hit": false,
      "t": 288701.9471354122,
      "d": 125.00001041666837,
      "v": 110
    },
    {
      "midi": 65,
      "hit": false,
      "t": 288701.9471354122,
      "d": 153.84616666665534,
      "v": 110
    },
    {
      "midi": 60,
      "hit": false,
      "t": 288701.9471354122,
      "d": 163.46155208331766,
      "v": 110
    },
    {
      "midi": 68,
      "hit": false,
      "t": 288701.9471354122,
      "d": 182.6923229166423,
      "v": 110
    },
    {
      "midi": 46,
      "hit": false,
      "t": 288932.71638541215,
      "d": 86.53846875001909,
      "v": 107
    },
    {
      "midi": 46,
      "hit": false,
      "t": 289153.8702499955,
      "d": 48.0769270833116,
      "v": 99
    },
    {
      "midi": 46,
      "hit": false,
      "t": 289605.7933645788,
      "d": 67.30769791669445,
      "v": 82
    },
    {
      "midi": 46,
      "hit": false,
      "t": 290067.3318645788,
      "d": 76.92308333335677,
      "v": 119
    },
    {
      "midi": 65,
      "hit": false,
      "t": 290067.3318645788,
      "d": 144.23078125005122,
      "v": 127
    },
    {
      "midi": 61,
      "hit": false,
      "t": 290067.3318645788,
      "d": 221.153864583408,
      "v": 119
    },
    {
      "midi": 68,
      "hit": false,
      "t": 290067.3318645788,
      "d": 230.76925000007031,
      "v": 116
    },
    {
      "midi": 58,
      "hit": false,
      "t": 290067.3318645788,
      "d": 240.38463541673264,
      "v": 123
    },
    {
      "midi": 61,
      "hit": false,
      "t": 290528.8703645789,
      "d": 182.6923229166423,
      "v": 119
    },
    {
      "midi": 58,
      "hit": false,
      "t": 290528.8703645789,
      "d": 201.92309374996694,
      "v": 116
    },
    {
      "midi": 66,
      "hit": false,
      "t": 290528.8703645789,
      "d": 201.92309374996694,
      "v": 123
    },
    {
      "midi": 39,
      "hit": false,
      "t": 290538.48574999557,
      "d": 192.30770833330462,
      "v": 89
    },
    {
      "midi": 51,
      "hit": false,
      "t": 290538.48574999557,
      "d": 230.7692499999539,
      "v": 107
    },
    {
      "midi": 58,
      "hit": false,
      "t": 290990.4088645789,
      "d": 134.6153958333307,
      "v": 107
    },
    {
      "midi": 61,
      "hit": false,
      "t": 290990.4088645789,
      "d": 134.6153958333307,
      "v": 113
    },
    {
      "midi": 66,
      "hit": false,
      "t": 290990.4088645789,
      "d": 153.84616666665534,
      "v": 119
    },
    {
      "midi": 61,
      "hit": false,
      "t": 291240.4088854122,
      "d": 115.38462500000605,
      "v": 95
    },
    {
      "midi": 65,
      "hit": false,
      "t": 291240.4088854122,
      "d": 134.6153958333307,
      "v": 106
    },
    {
      "midi": 56,
      "hit": false,
      "t": 291240.4088854122,
      "d": 144.23078124999302,
      "v": 107
    },
    {
      "midi": 39,
      "hit": false,
      "t": 291471.1781354122,
      "d": 57.69231249997392,
      "v": 85
    },
    {
      "midi": 61,
      "hit": false,
      "t": 291701.9473854122,
      "d": 134.6153958333307,
      "v": 127
    },
    {
      "midi": 58,
      "hit": false,
      "t": 291701.9473854122,
      "d": 144.23078124999302,
      "v": 119
    },
    {
      "midi": 66,
      "hit": false,
      "t": 291701.9473854122,
      "d": 173.07693749997998,
      "v": 127
    },
    {
      "midi": 39,
      "hit": false,
      "t": 291923.10124999547,
      "d": 201.92309375002515,
      "v": 85
    },
    {
      "midi": 65,
      "hit": false,
      "t": 292144.2551145788,
      "d": 144.23078124999302,
      "v": 106
    },
    {
      "midi": 61,
      "hit": false,
      "t": 292144.2551145788,
      "d": 153.84616666665534,
      "v": 110
    },
    {
      "midi": 68,
      "hit": false,
      "t": 292144.2551145788,
      "d": 173.07693749997998,
      "v": 107
    },
    {
      "midi": 51,
      "hit": false,
      "t": 292163.48588541214,
      "d": 96.15385416668141,
      "v": 104
    },
    {
      "midi": 44,
      "hit": false,
      "t": 292394.25513541215,
      "d": 96.15385416668141,
      "v": 78
    },
    {
      "midi": 61,
      "hit": false,
      "t": 292394.25513541215,
      "d": 163.46155208337586,
      "v": 104
    },
    {
      "midi": 66,
      "hit": false,
      "t": 292394.25513541215,
      "d": 173.07693750003818,
      "v": 95
    },
    {
      "midi": 58,
      "hit": false,
      "t": 292394.25513541215,
      "d": 192.30770833336283,
      "v": 107
    },
    {
      "midi": 61,
      "hit": false,
      "t": 292855.7936354122,
      "d": 67.30769791669445,
      "v": 89
    },
    {
      "midi": 58,
      "hit": false,
      "t": 292855.7936354122,
      "d": 115.38462500000605,
      "v": 85
    },
    {
      "midi": 66,
      "hit": false,
      "t": 292855.7936354122,
      "d": 115.38462500000605,
      "v": 97
    },
    {
      "midi": 44,
      "hit": false,
      "t": 293317.3321354122,
      "d": 38.46154166664928,
      "v": 107
    },
    {
      "midi": 61,
      "hit": false,
      "t": 293528.87061457883,
      "d": 57.69231249997392,
      "v": 97
    },
    {
      "midi": 66,
      "hit": false,
      "t": 293528.87061457883,
      "d": 67.30769791663624,
      "v": 107
    },
    {
      "midi": 58,
      "hit": false,
      "t": 293528.87061457883,
      "d": 76.92308333329856,
      "v": 97
    },
    {
      "midi": 44,
      "hit": false,
      "t": 293548.10138541216,
      "d": 38.46154166664928,
      "v": 101
    },
    {
      "midi": 44,
      "hit": false,
      "t": 293778.8706354121,
      "d": 57.69231249997392,
      "v": 101
    },
    {
      "midi": 61,
      "hit": false,
      "t": 293778.8706354121,
      "d": 134.6153958333307,
      "v": 123
    },
    {
      "midi": 58,
      "hit": false,
      "t": 293778.8706354121,
      "d": 182.6923229166423,
      "v": 119
    },
    {
      "midi": 66,
      "hit": false,
      "t": 293778.8706354121,
      "d": 192.30770833330462,
      "v": 127
    },
    {
      "midi": 37,
      "hit": false,
      "t": 294221.17836457875,
      "d": 76.92308333329856,
      "v": 89
    },
    {
      "midi": 64,
      "hit": false,
      "t": 294221.17836457875,
      "d": 173.07693749997998,
      "v": 110
    },
    {
      "midi": 68,
      "hit": false,
      "t": 294221.17836457875,
      "d": 201.92309374996694,
      "v": 101
    },
    {
      "midi": 59,
      "hit": false,
      "t": 294221.17836457875,
      "d": 211.53847916662926,
      "v": 106
    },
    {
      "midi": 49,
      "hit": false,
      "t": 294240.4091354121,
      "d": 48.0769270833116,
      "v": 99
    },
    {
      "midi": 59,
      "hit": false,
      "t": 294692.3322499954,
      "d": 115.38462499994785,
      "v": 108
    },
    {
      "midi": 64,
      "hit": false,
      "t": 294692.3322499954,
      "d": 173.07693749992177,
      "v": 120
    },
    {
      "midi": 37,
      "hit": false,
      "t": 294701.94763541204,
      "d": 48.0769270833116,
      "v": 85
    },
    {
      "midi": 49,
      "hit": false,
      "t": 294701.94763541204,
      "d": 48.0769270833116,
      "v": 99
    },
    {
      "midi": 68,
      "hit": false,
      "t": 294701.94763541204,
      "d": 144.2307812499348,
      "v": 116
    },
    {
      "midi": 63,
      "hit": false,
      "t": 294923.1014999953,
      "d": 173.07693749997998,
      "v": 97
    },
    {
      "midi": 58,
      "hit": false,
      "t": 294923.1014999953,
      "d": 182.6923229166423,
      "v": 113
    },
    {
      "midi": 66,
      "hit": false,
      "t": 294923.1014999953,
      "d": 192.30770833330462,
      "v": 87
    },
    {
      "midi": 37,
      "hit": false,
      "t": 295144.25536457857,
      "d": 67.30769791669445,
      "v": 85
    },
    {
      "midi": 64,
      "hit": false,
      "t": 295384.63999999524,
      "d": 211.53847916668747,
      "v": 122
    },
    {
      "midi": 59,
      "hit": false,
      "t": 295384.63999999524,
      "d": 230.7692500000121,
      "v": 114
    },
    {
      "midi": 68,
      "hit": false,
      "t": 295384.63999999524,
      "d": 259.61540624999907,
      "v": 116
    },
    {
      "midi": 37,
      "hit": false,
      "t": 295605.7938645786,
      "d": 221.15386458329158,
      "v": 95
    },
    {
      "midi": 58,
      "hit": false,
      "t": 295836.56311457854,
      "d": 192.30770833336283,
      "v": 110
    },
    {
      "midi": 63,
      "hit": false,
      "t": 295846.1784999952,
      "d": 173.07693750003818,
      "v": 113
    },
    {
      "midi": 66,
      "hit": false,
      "t": 295846.1784999952,
      "d": 192.30770833336283,
      "v": 99
    },
    {
      "midi": 49,
      "hit": false,
      "t": 295855.79388541187,
      "d": 96.15385416668141,
      "v": 99
    },
    {
      "midi": 64,
      "hit": false,
      "t": 296086.5631354119,
      "d": 211.53847916668747,
      "v": 104
    },
    {
      "midi": 68,
      "hit": false,
      "t": 296086.5631354119,
      "d": 211.53847916668747,
      "v": 104
    },
    {
      "midi": 59,
      "hit": false,
      "t": 296086.5631354119,
      "d": 230.7692500000121,
      "v": 104
    },
    {
      "midi": 42,
      "hit": false,
      "t": 296317.3323854119,
      "d": 692.3077500000363,
      "v": 119
    },
    {
      "midi": 59,
      "hit": false,
      "t": 296548.1016354119,
      "d": 384.61541666666744,
      "v": 92
    },
    {
      "midi": 64,
      "hit": false,
      "t": 296548.1016354119,
      "d": 384.61541666666744,
      "v": 97
    },
    {
      "midi": 68,
      "hit": false,
      "t": 296548.1016354119,
      "d": 394.23080208332976,
      "v": 81
    },
    {
      "midi": 59,
      "hit": false,
      "t": 297009.64013541193,
      "d": 76.92308333335677,
      "v": 61
    },
    {
      "midi": 54,
      "hit": false,
      "t": 297009.64013541193,
      "d": 86.53846875001909,
      "v": 79
    },
    {
      "midi": 68,
      "hit": false,
      "t": 297009.64013541193,
      "d": 125.00001041666837,
      "v": 59
    },
    {
      "midi": 64,
      "hit": false,
      "t": 297009.64013541193,
      "d": 144.23078124999302,
      "v": 80
    },
    {
      "midi": 64,
      "hit": false,
      "t": 297240.40938541194,
      "d": 490.3846562500112,
      "v": 104
    },
    {
      "midi": 66,
      "hit": false,
      "t": 297240.40938541194,
      "d": 509.6154270833358,
      "v": 101
    },
    {
      "midi": 61,
      "hit": false,
      "t": 297240.40938541194,
      "d": 519.2308124999981,
      "v": 107
    },
    {
      "midi": 58,
      "hit": false,
      "t": 297240.40938541194,
      "d": 557.6923541666474,
      "v": 116
    },
    {
      "midi": 42,
      "hit": false,
      "t": 297240.40938541194,
      "d": 855.7693020832958,
      "v": 113
    },
    {
      "midi": 54,
      "hit": false,
      "t": 297701.94788541197,
      "d": 336.53848958329763,
      "v": 119
    },
    {
      "midi": 54,
      "hit": false,
      "t": 298144.25561457855,
      "d": 1442.3078124999884,
      "v": 116
    },
    {
      "midi": 58,
      "hit": false,
      "t": 298144.25561457855,
      "d": 1451.9231979166507,
      "v": 101
    },
    {
      "midi": 59,
      "hit": false,
      "t": 298144.25561457855,
      "d": 1451.9231979166507,
      "v": 98
    },
    {
      "midi": 47,
      "hit": false,
      "t": 298144.25561457855,
      "d": 1461.538583333313,
      "v": 97
    },
    {
      "midi": 63,
      "hit": false,
      "t": 298144.25561457855,
      "d": 1471.1539687499753,
      "v": 107
    },
    {
      "midi": 56,
      "hit": false,
      "t": 300000.0249999952,
      "d": 759.6154479166726,
      "v": 119
    },
    {
      "midi": 37,
      "hit": false,
      "t": 300000.0249999952,
      "d": 788.4616041666595,
      "v": 97
    },
    {
      "midi": 64,
      "hit": false,
      "t": 300000.0249999952,
      "d": 798.0769895833218,
      "v": 117
    },
    {
      "midi": 49,
      "hit": false,
      "t": 300000.0249999952,
      "d": 817.3077604166465,
      "v": 116
    },
    {
      "midi": 61,
      "hit": false,
      "t": 300000.0249999952,
      "d": 817.3077604166465,
      "v": 104
    },
    {
      "midi": 59,
      "hit": false,
      "t": 300009.64038541185,
      "d": 750.0000625000102,
      "v": 110
    },
    {
      "midi": 58,
      "hit": false,
      "t": 300932.71738541184,
      "d": 692.3077499999781,
      "v": 113
    },
    {
      "midi": 61,
      "hit": false,
      "t": 300932.71738541184,
      "d": 692.3077499999781,
      "v": 127
    },
    {
      "midi": 51,
      "hit": false,
      "t": 300932.71738541184,
      "d": 701.9231354166404,
      "v": 119
    },
    {
      "midi": 63,
      "hit": false,
      "t": 300932.71738541184,
      "d": 711.5385208333028,
      "v": 116
    },
    {
      "midi": 39,
      "hit": false,
      "t": 300932.71738541184,
      "d": 721.1539062499651,
      "v": 97
    },
    {
      "midi": 66,
      "hit": false,
      "t": 300932.71738541184,
      "d": 759.6154479166144,
      "v": 113
    },
    {
      "midi": 60,
      "hit": false,
      "t": 301855.7943854118,
      "d": 3634.615687499987,
      "v": 104
    },
    {
      "midi": 65,
      "hit": false,
      "t": 301855.7943854118,
      "d": 3634.615687499987,
      "v": 100
    },
    {
      "midi": 46,
      "hit": false,
      "t": 301855.7943854118,
      "d": 3663.461843749974,
      "v": 107
    },
    {
      "midi": 58,
      "hit": false,
      "t": 301855.7943854118,
      "d": 3663.461843749974,
      "v": 99
    },
    {
      "midi": 69,
      "hit": false,
      "t": 301855.7943854118,
      "d": 3663.461843749974,
      "v": 98
    }
  ]
}