{
  "jsonPath": "Ambient/Lounge/Engelbert/the-last-waltz.json",
  "path": "Ambient\\Lounge\\Engelbert\\The Last Waltz.mid",
  "name": "The Last Waltz",
  "difficulty": "Advanced",
  "bpm": 120,
  "notes": [
    {
      "midi": 74,
      "hit": false,
      "t": 5416.666666666666,
      "d": 1260.416666666667,
      "v": 88
    },
    {
      "midi": 78,
      "hit": false,
      "t": 5432.291666666666,
      "d": 1244.791666666667,
      "v": 70
    },
    {
      "midi": 98,
      "hit": false,
      "t": 5453.124999999999,
      "d": 1546.875000000001,
      "v": 120
    },
    {
      "midi": 93,
      "hit": false,
      "t": 5453.124999999999,
      "d": 2729.166666666668,
      "v": 120
    },
    {
      "midi": 90,
      "hit": false,
      "t": 5453.124999999999,
      "d": 2901.041666666669,
      "v": 114
    },
    {
      "midi": 86,
      "hit": false,
      "t": 5494.791666666666,
      "d": 57.29166666666697,
      "v": 86
    },
    {
      "midi": 81,
      "hit": false,
      "t": 5494.791666666666,
      "d": 1182.291666666667,
      "v": 84
    },
    {
      "midi": 78,
      "hit": false,
      "t": 6919.270833333333,
      "d": 1153.645833333334,
      "v": 70
    },
    {
      "midi": 73,
      "hit": false,
      "t": 6919.270833333333,
      "d": 1174.479166666667,
      "v": 105
    },
    {
      "midi": 81,
      "hit": false,
      "t": 6973.958333333333,
      "d": 1036.458333333334,
      "v": 82
    },
    {
      "midi": 85,
      "hit": false,
      "t": 6973.958333333333,
      "d": 1036.458333333334,
      "v": 88
    },
    {
      "midi": 71,
      "hit": false,
      "t": 8390.625000000002,
      "d": 1320.3125,
      "v": 82
    },
    {
      "midi": 74,
      "hit": false,
      "t": 8411.458333333336,
      "d": 1250,
      "v": 70
    },
    {
      "midi": 78,
      "hit": false,
      "t": 8468.750000000002,
      "d": 1270.833333333334,
      "v": 105
    },
    {
      "midi": 83,
      "hit": false,
      "t": 8489.583333333336,
      "d": 1302.083333333334,
      "v": 84
    },
    {
      "midi": 69,
      "hit": false,
      "t": 9856.770833333336,
      "d": 1179.6875,
      "v": 80
    },
    {
      "midi": 74,
      "hit": false,
      "t": 9895.833333333336,
      "d": 1044.270833333334,
      "v": 74
    },
    {
      "midi": 78,
      "hit": false,
      "t": 9958.333333333336,
      "d": 960.9375,
      "v": 92
    },
    {
      "midi": 81,
      "hit": false,
      "t": 9979.16666666667,
      "d": 940.1041666666661,
      "v": 84
    },
    {
      "midi": 66,
      "hit": false,
      "t": 11481.770833333336,
      "d": 2083.333333333334,
      "v": 70
    },
    {
      "midi": 55,
      "hit": false,
      "t": 11481.770833333336,
      "d": 2125,
      "v": 70
    },
    {
      "midi": 62,
      "hit": false,
      "t": 11510.41666666667,
      "d": 2080.729166666666,
      "v": 71
    },
    {
      "midi": 59,
      "hit": false,
      "t": 11510.41666666667,
      "d": 2114.583333333332,
      "v": 70
    },
    {
      "midi": 55,
      "hit": false,
      "t": 13981.770833333336,
      "d": 341.14583333333394,
      "v": 77
    },
    {
      "midi": 59,
      "hit": false,
      "t": 13981.770833333336,
      "d": 346.3541666666679,
      "v": 79
    },
    {
      "midi": 62,
      "hit": false,
      "t": 13981.770833333336,
      "d": 492.1875,
      "v": 80
    },
    {
      "midi": 66,
      "hit": false,
      "t": 13986.97916666667,
      "d": 398.4375,
      "v": 85
    },
    {
      "midi": 54,
      "hit": false,
      "t": 14481.770833333336,
      "d": 1622.395833333334,
      "v": 78
    },
    {
      "midi": 57,
      "hit": false,
      "t": 14502.60416666667,
      "d": 1601.5625,
      "v": 76
    },
    {
      "midi": 64,
      "hit": false,
      "t": 14502.60416666667,
      "d": 1617.1875,
      "v": 72
    },
    {
      "midi": 61,
      "hit": false,
      "t": 14507.812500000004,
      "d": 1617.1875,
      "v": 82
    },
    {
      "midi": 54,
      "hit": false,
      "t": 16328.125000000004,
      "d": 83.33333333333212,
      "v": 101
    },
    {
      "midi": 64,
      "hit": false,
      "t": 16328.125000000004,
      "d": 117.18749999999636,
      "v": 77
    },
    {
      "midi": 61,
      "hit": false,
      "t": 16333.333333333338,
      "d": 78.12499999999818,
      "v": 87
    },
    {
      "midi": 57,
      "hit": false,
      "t": 16333.333333333338,
      "d": 98.9583333333303,
      "v": 76
    },
    {
      "midi": 57,
      "hit": false,
      "t": 16958.333333333332,
      "d": 343.75,
      "v": 70
    },
    {
      "midi": 61,
      "hit": false,
      "t": 16958.333333333332,
      "d": 510.4166666666679,
      "v": 80
    },
    {
      "midi": 64,
      "hit": false,
      "t": 16960.9375,
      "d": 1812.5000000000036,
      "v": 71
    },
    {
      "midi": 54,
      "hit": false,
      "t": 16989.583333333332,
      "d": 463.5416666666679,
      "v": 84
    },
    {
      "midi": 55,
      "hit": false,
      "t": 17479.166666666668,
      "d": 1343.7500000000036,
      "v": 70
    },
    {
      "midi": 62,
      "hit": false,
      "t": 17479.166666666668,
      "d": 1369.7916666666715,
      "v": 75
    },
    {
      "midi": 52,
      "hit": false,
      "t": 17479.166666666668,
      "d": 1468.7500000000036,
      "v": 72
    },
    {
      "midi": 59,
      "hit": false,
      "t": 17481.770833333336,
      "d": 1333.3333333333358,
      "v": 75
    },
    {
      "midi": 55,
      "hit": false,
      "t": 19010.41666666667,
      "d": 1304.6875,
      "v": 70
    },
    {
      "midi": 57,
      "hit": false,
      "t": 19010.41666666667,
      "d": 1450.5208333333321,
      "v": 70
    },
    {
      "midi": 61,
      "hit": false,
      "t": 19010.41666666667,
      "d": 1500,
      "v": 78
    },
    {
      "midi": 64,
      "hit": false,
      "t": 19010.41666666667,
      "d": 1513.0208333333321,
      "v": 70
    },
    {
      "midi": 50,
      "hit": false,
      "t": 20515.625000000004,
      "d": 2661.4583333333358,
      "v": 70
    },
    {
      "midi": 54,
      "hit": false,
      "t": 20682.29166666667,
      "d": 2507.8125,
      "v": 72
    },
    {
      "midi": 57,
      "hit": false,
      "t": 20833.33333333334,
      "d": 2382.8125,
      "v": 79
    },
    {
      "midi": 61,
      "hit": false,
      "t": 21015.625000000007,
      "d": 708.3333333333321,
      "v": 109
    },
    {
      "midi": 64,
      "hit": false,
      "t": 21169.27083333334,
      "d": 716.1458333333321,
      "v": 83
    },
    {
      "midi": 69,
      "hit": false,
      "t": 21335.937500000007,
      "d": 1591.1458333333321,
      "v": 79
    },
    {
      "midi": 62,
      "hit": false,
      "t": 21854.16666666667,
      "d": 953.125,
      "v": 78
    },
    {
      "midi": 66,
      "hit": false,
      "t": 21854.16666666667,
      "d": 1156.25,
      "v": 78
    },
    {
      "midi": 59,
      "hit": false,
      "t": 22523.437500000004,
      "d": 638.0208333333358,
      "v": 70
    },
    {
      "midi": 64,
      "hit": false,
      "t": 23020.83333333334,
      "d": 169.27083333333212,
      "v": 72
    },
    {
      "midi": 69,
      "hit": false,
      "t": 23020.83333333334,
      "d": 627.6041666666679,
      "v": 79
    },
    {
      "midi": 66,
      "hit": false,
      "t": 23169.27083333334,
      "d": 187.5,
      "v": 80
    },
    {
      "midi": 64,
      "hit": false,
      "t": 23315.10416666667,
      "d": 179.6875,
      "v": 72
    },
    {
      "midi": 54,
      "hit": false,
      "t": 23489.58333333334,
      "d": 41.66666666666788,
      "v": 72
    },
    {
      "midi": 66,
      "hit": false,
      "t": 23489.58333333334,
      "d": 1843.7500000000036,
      "v": 79
    },
    {
      "midi": 62,
      "hit": false,
      "t": 23520.83333333334,
      "d": 1822.9166666666715,
      "v": 79
    },
    {
      "midi": 55,
      "hit": false,
      "t": 23520.83333333334,
      "d": 1973.9583333333394,
      "v": 83
    },
    {
      "midi": 59,
      "hit": false,
      "t": 23822.916666666675,
      "d": 937.5,
      "v": 79
    },
    {
      "midi": 55,
      "hit": false,
      "t": 25989.583333333347,
      "d": 375,
      "v": 79
    },
    {
      "midi": 59,
      "hit": false,
      "t": 26010.41666666668,
      "d": 338.5416666666679,
      "v": 79
    },
    {
      "midi": 66,
      "hit": false,
      "t": 26010.41666666668,
      "d": 406.25,
      "v": 84
    },
    {
      "midi": 62,
      "hit": false,
      "t": 26010.41666666668,
      "d": 484.375,
      "v": 78
    },
    {
      "midi": 64,
      "hit": false,
      "t": 26502.60416666668,
      "d": 1497.3958333333321,
      "v": 70
    },
    {
      "midi": 54,
      "hit": false,
      "t": 26502.60416666668,
      "d": 1528.6458333333321,
      "v": 79
    },
    {
      "midi": 61,
      "hit": false,
      "t": 26510.41666666668,
      "d": 1513.0208333333321,
      "v": 84
    },
    {
      "midi": 57,
      "hit": false,
      "t": 26510.41666666668,
      "d": 1520.8333333333321,
      "v": 79
    },
    {
      "midi": 54,
      "hit": false,
      "t": 28307.29166666668,
      "d": 78.125,
      "v": 105
    },
    {
      "midi": 57,
      "hit": false,
      "t": 28307.29166666668,
      "d": 98.95833333333212,
      "v": 81
    },
    {
      "midi": 64,
      "hit": false,
      "t": 28307.29166666668,
      "d": 119.79166666666424,
      "v": 84
    },
    {
      "midi": 61,
      "hit": false,
      "t": 28312.50000000001,
      "d": 78.125,
      "v": 94
    },
    {
      "midi": 54,
      "hit": false,
      "t": 28807.291666666675,
      "d": 26.04166666666788,
      "v": 70
    },
    {
      "midi": 61,
      "hit": false,
      "t": 28822.916666666675,
      "d": 31.25,
      "v": 70
    },
    {
      "midi": 54,
      "hit": false,
      "t": 28968.750000000007,
      "d": 484.37499999999636,
      "v": 115
    },
    {
      "midi": 57,
      "hit": false,
      "t": 28989.58333333334,
      "d": 317.7083333333321,
      "v": 79
    },
    {
      "midi": 61,
      "hit": false,
      "t": 28989.58333333334,
      "d": 492.18749999999636,
      "v": 94
    },
    {
      "midi": 64,
      "hit": false,
      "t": 28989.58333333334,
      "d": 3526.0416666666606,
      "v": 81
    },
    {
      "midi": 55,
      "hit": false,
      "t": 29502.604166666668,
      "d": 632.8125,
      "v": 79
    },
    {
      "midi": 62,
      "hit": false,
      "t": 29502.604166666668,
      "d": 867.1875,
      "v": 79
    },
    {
      "midi": 52,
      "hit": false,
      "t": 29502.604166666668,
      "d": 2041.6666666666606,
      "v": 74
    },
    {
      "midi": 59,
      "hit": false,
      "t": 29510.416666666668,
      "d": 718.75,
      "v": 77
    },
    {
      "midi": 55,
      "hit": false,
      "t": 30169.270833333336,
      "d": 1174.4791666666606,
      "v": 76
    },
    {
      "midi": 59,
      "hit": false,
      "t": 30333.333333333336,
      "d": 385.41666666666424,
      "v": 74
    },
    {
      "midi": 62,
      "hit": false,
      "t": 30510.416666666668,
      "d": 447.91666666666424,
      "v": 80
    },
    {
      "midi": 59,
      "hit": false,
      "t": 30802.083333333332,
      "d": 471.35416666666424,
      "v": 74
    },
    {
      "midi": 62,
      "hit": false,
      "t": 31002.604166666664,
      "d": 450.5208333333321,
      "v": 70
    },
    {
      "midi": 57,
      "hit": false,
      "t": 31489.58333333333,
      "d": 950.5208333333358,
      "v": 78
    },
    {
      "midi": 55,
      "hit": false,
      "t": 31502.60416666666,
      "d": 809.8958333333358,
      "v": 74
    },
    {
      "midi": 61,
      "hit": false,
      "t": 31502.60416666666,
      "d": 976.5625000000036,
      "v": 74
    },
    {
      "midi": 50,
      "hit": false,
      "t": 32023.437499999996,
      "d": 304.6875,
      "v": 70
    },
    {
      "midi": 50,
      "hit": false,
      "t": 32489.583333333332,
      "d": 1020.8333333333467,
      "v": 70
    },
    {
      "midi": 54,
      "hit": false,
      "t": 32666.666666666668,
      "d": 864.5833333333467,
      "v": 73
    },
    {
      "midi": 57,
      "hit": false,
      "t": 32822.91666666667,
      "d": 708.333333333343,
      "v": 96
    },
    {
      "midi": 64,
      "hit": false,
      "t": 33015.62500000001,
      "d": 473.95833333333576,
      "v": 98
    },
    {
      "midi": 69,
      "hit": false,
      "t": 33015.62500000001,
      "d": 828.1250000000073,
      "v": 91
    },
    {
      "midi": 62,
      "hit": false,
      "t": 33481.77083333334,
      "d": 236.97916666667152,
      "v": 86
    },
    {
      "midi": 66,
      "hit": false,
      "t": 33481.77083333334,
      "d": 263.02083333333576,
      "v": 87
    },
    {
      "midi": 69,
      "hit": false,
      "t": 33981.77083333335,
      "d": 242.1875,
      "v": 86
    },
    {
      "midi": 57,
      "hit": false,
      "t": 33981.77083333335,
      "d": 382.8125,
      "v": 96
    },
    {
      "midi": 67,
      "hit": false,
      "t": 33989.58333333335,
      "d": 221.35416666666424,
      "v": 79
    },
    {
      "midi": 61,
      "hit": false,
      "t": 33989.58333333335,
      "d": 239.58333333333576,
      "v": 101
    },
    {
      "midi": 64,
      "hit": false,
      "t": 33989.58333333335,
      "d": 289.0625,
      "v": 83
    },
    {
      "midi": 64,
      "hit": false,
      "t": 34377.604166666686,
      "d": 70.3125,
      "v": 70
    },
    {
      "midi": 64,
      "hit": false,
      "t": 34502.604166666686,
      "d": 184.89583333333576,
      "v": 80
    },
    {
      "midi": 67,
      "hit": false,
      "t": 34502.604166666686,
      "d": 208.33333333333576,
      "v": 84
    },
    {
      "midi": 62,
      "hit": false,
      "t": 34510.416666666686,
      "d": 177.08333333333576,
      "v": 93
    },
    {
      "midi": 71,
      "hit": false,
      "t": 34510.416666666686,
      "d": 234.375,
      "v": 83
    },
    {
      "midi": 67,
      "hit": false,
      "t": 35020.83333333335,
      "d": 229.16666666666424,
      "v": 88
    },
    {
      "midi": 73,
      "hit": false,
      "t": 35020.83333333335,
      "d": 270.8333333333285,
      "v": 86
    },
    {
      "midi": 69,
      "hit": false,
      "t": 35023.437500000015,
      "d": 250,
      "v": 96
    },
    {
      "midi": 74,
      "hit": false,
      "t": 35510.41666666668,
      "d": 1177.0833333333285,
      "v": 80
    },
    {
      "midi": 62,
      "hit": false,
      "t": 35510.41666666668,
      "d": 1221.3541666666642,
      "v": 86
    },
    {
      "midi": 69,
      "hit": false,
      "t": 35536.45833333334,
      "d": 1151.0416666666642,
      "v": 86
    },
    {
      "midi": 66,
      "hit": false,
      "t": 35536.45833333334,
      "d": 1166.6666666666642,
      "v": 80
    },
    {
      "midi": 57,
      "hit": false,
      "t": 36854.16666666668,
      "d": 140.62500000000728,
      "v": 70
    },
    {
      "midi": 66,
      "hit": false,
      "t": 36953.125000000015,
      "d": 1328.1250000000073,
      "v": 70
    },
    {
      "midi": 62,
      "hit": false,
      "t": 36989.58333333335,
      "d": 1187.5000000000073,
      "v": 88
    },
    {
      "midi": 69,
      "hit": false,
      "t": 37015.62500000002,
      "d": 703.125,
      "v": 93
    },
    {
      "midi": 73,
      "hit": false,
      "t": 37015.62500000002,
      "d": 1046.875,
      "v": 94
    },
    {
      "midi": 69,
      "hit": false,
      "t": 38002.604166666686,
      "d": 437.5,
      "v": 88
    },
    {
      "midi": 55,
      "hit": false,
      "t": 38364.58333333336,
      "d": 1289.0625,
      "v": 70
    },
    {
      "midi": 59,
      "hit": false,
      "t": 38437.50000000002,
      "d": 1486.9791666666715,
      "v": 71
    },
    {
      "midi": 71,
      "hit": false,
      "t": 38515.62500000002,
      "d": 1125,
      "v": 77
    },
    {
      "midi": 62,
      "hit": false,
      "t": 38515.62500000002,
      "d": 1546.875,
      "v": 93
    },
    {
      "midi": 66,
      "hit": false,
      "t": 38520.83333333336,
      "d": 1541.6666666666642,
      "v": 90
    },
    {
      "midi": 55,
      "hit": false,
      "t": 40036.45833333336,
      "d": 979.1666666666642,
      "v": 70
    },
    {
      "midi": 59,
      "hit": false,
      "t": 40187.50000000002,
      "d": 843.75,
      "v": 70
    },
    {
      "midi": 62,
      "hit": false,
      "t": 40333.33333333336,
      "d": 1000,
      "v": 86
    },
    {
      "midi": 64,
      "hit": false,
      "t": 40494.79166666669,
      "d": 861.9791666666642,
      "v": 81
    },
    {
      "midi": 71,
      "hit": false,
      "t": 40833.33333333336,
      "d": 544.2708333333358,
      "v": 79
    },
    {
      "midi": 57,
      "hit": false,
      "t": 41328.12500000002,
      "d": 1236.9791666666788,
      "v": 70
    },
    {
      "midi": 61,
      "hit": false,
      "t": 41390.62500000003,
      "d": 1255.2083333333358,
      "v": 76
    },
    {
      "midi": 71,
      "hit": false,
      "t": 41502.60416666669,
      "d": 533.8541666666715,
      "v": 79
    },
    {
      "midi": 67,
      "hit": false,
      "t": 41502.60416666669,
      "d": 1658.8541666666715,
      "v": 83
    },
    {
      "midi": 64,
      "hit": false,
      "t": 41968.75000000003,
      "d": 700.5208333333358,
      "v": 70
    },
    {
      "midi": 69,
      "hit": false,
      "t": 41981.770833333365,
      "d": 1408.8541666666642,
      "v": 70
    },
    {
      "midi": 57,
      "hit": false,
      "t": 42822.9166666667,
      "d": 760.4166666666642,
      "v": 70
    },
    {
      "midi": 64,
      "hit": false,
      "t": 43473.958333333365,
      "d": 276.04166666666424,
      "v": 79
    },
    {
      "midi": 71,
      "hit": false,
      "t": 43473.958333333365,
      "d": 361.97916666666424,
      "v": 78
    },
    {
      "midi": 67,
      "hit": false,
      "t": 43473.958333333365,
      "d": 403.6458333333285,
      "v": 86
    },
    {
      "midi": 64,
      "hit": false,
      "t": 43994.79166666669,
      "d": 304.6875,
      "v": 75
    },
    {
      "midi": 69,
      "hit": false,
      "t": 43994.79166666669,
      "d": 486.9791666666715,
      "v": 70
    },
    {
      "midi": 61,
      "hit": false,
      "t": 44002.60416666669,
      "d": 312.5,
      "v": 88
    },
    {
      "midi": 67,
      "hit": false,
      "t": 44002.60416666669,
      "d": 466.14583333333576,
      "v": 83
    },
    {
      "midi": 50,
      "hit": false,
      "t": 44843.75000000003,
      "d": 1513.0208333333358,
      "v": 74
    },
    {
      "midi": 54,
      "hit": false,
      "t": 45010.41666666669,
      "d": 1388.0208333333358,
      "v": 82
    },
    {
      "midi": 57,
      "hit": false,
      "t": 45302.08333333336,
      "d": 1096.3541666666715,
      "v": 93
    },
    {
      "midi": 64,
      "hit": false,
      "t": 45510.41666666669,
      "d": 1364.5833333333358,
      "v": 88
    },
    {
      "midi": 69,
      "hit": false,
      "t": 45510.41666666669,
      "d": 1421.875,
      "v": 83
    },
    {
      "midi": 66,
      "hit": false,
      "t": 45822.91666666669,
      "d": 1067.7083333333358,
      "v": 88
    },
    {
      "midi": 62,
      "hit": false,
      "t": 46312.50000000003,
      "d": 544.2708333333358,
      "v": 83
    },
    {
      "midi": 50,
      "hit": false,
      "t": 46802.083333333365,
      "d": 1638.0208333333358,
      "v": 73
    },
    {
      "midi": 54,
      "hit": false,
      "t": 47015.62500000003,
      "d": 1453.1250000000073,
      "v": 75
    },
    {
      "midi": 57,
      "hit": false,
      "t": 47161.458333333365,
      "d": 1338.5416666666715,
      "v": 70
    },
    {
      "midi": 62,
      "hit": false,
      "t": 47315.1041666667,
      "d": 1289.0625,
      "v": 72
    },
    {
      "midi": 78,
      "hit": false,
      "t": 47502.6041666667,
      "d": 1283.8541666666715,
      "v": 101
    },
    {
      "midi": 69,
      "hit": false,
      "t": 48002.6041666667,
      "d": 684.8958333333358,
      "v": 72
    },
    {
      "midi": 74,
      "hit": false,
      "t": 48335.93750000004,
      "d": 437.5,
      "v": 72
    },
    {
      "midi": 66,
      "hit": false,
      "t": 49002.60416666671,
      "d": 1361.9791666666642,
      "v": 97
    },
    {
      "midi": 76,
      "hit": false,
      "t": 49020.83333333337,
      "d": 1156.25,
      "v": 83
    },
    {
      "midi": 70,
      "hit": false,
      "t": 49020.83333333337,
      "d": 1244.7916666666642,
      "v": 105
    },
    {
      "midi": 72,
      "hit": false,
      "t": 49023.43750000004,
      "d": 1164.0625,
      "v": 101
    },
    {
      "midi": 62,
      "hit": false,
      "t": 50375.00000000004,
      "d": 1190.1041666666715,
      "v": 72
    },
    {
      "midi": 67,
      "hit": false,
      "t": 50515.62500000004,
      "d": 1015.6250000000073,
      "v": 105
    },
    {
      "midi": 71,
      "hit": false,
      "t": 50531.25000000004,
      "d": 1531.2500000000073,
      "v": 88
    },
    {
      "midi": 76,
      "hit": false,
      "t": 50536.45833333337,
      "d": 1526.0416666666715,
      "v": 84
    },
    {
      "midi": 74,
      "hit": false,
      "t": 51510.41666666671,
      "d": 531.25,
      "v": 77
    },
    {
      "midi": 55,
      "hit": false,
      "t": 52002.60416666671,
      "d": 1164.0624999999927,
      "v": 70
    },
    {
      "midi": 59,
      "hit": false,
      "t": 52169.27083333338,
      "d": 1054.6874999999854,
      "v": 72
    },
    {
      "midi": 62,
      "hit": false,
      "t": 52328.125000000044,
      "d": 1036.4583333333285,
      "v": 89
    },
    {
      "midi": 64,
      "hit": false,
      "t": 52515.625000000044,
      "d": 799.479166666657,
      "v": 101
    },
    {
      "midi": 67,
      "hit": false,
      "t": 52682.29166666671,
      "d": 619.791666666657,
      "v": 96
    },
    {
      "midi": 69,
      "hit": false,
      "t": 52697.91666666671,
      "d": 18.22916666666424,
      "v": 76
    },
    {
      "midi": 71,
      "hit": false,
      "t": 52843.75000000004,
      "d": 562.5,
      "v": 86
    },
    {
      "midi": 74,
      "hit": false,
      "t": 53002.6041666667,
      "d": 450.52083333333576,
      "v": 82
    },
    {
      "midi": 55,
      "hit": false,
      "t": 53343.75000000004,
      "d": 1138.0208333333358,
      "v": 70
    },
    {
      "midi": 67,
      "hit": false,
      "t": 53398.43750000004,
      "d": 1299.4791666666715,
      "v": 70
    },
    {
      "midi": 59,
      "hit": false,
      "t": 53419.27083333337,
      "d": 1049.4791666666642,
      "v": 72
    },
    {
      "midi": 62,
      "hit": false,
      "t": 53494.7916666667,
      "d": 1338.5416666666788,
      "v": 83
    },
    {
      "midi": 71,
      "hit": false,
      "t": 53515.62500000004,
      "d": 473.95833333333576,
      "v": 82
    },
    {
      "midi": 57,
      "hit": false,
      "t": 55333.33333333338,
      "d": 291.66666666666424,
      "v": 71
    },
    {
      "midi": 61,
      "hit": false,
      "t": 55523.437500000044,
      "d": 117.1875,
      "v": 82
    },
    {
      "midi": 64,
      "hit": false,
      "t": 55666.66666666671,
      "d": 364.58333333333576,
      "v": 79
    },
    {
      "midi": 71,
      "hit": false,
      "t": 55833.33333333337,
      "d": 244.79166666667152,
      "v": 79
    },
    {
      "midi": 76,
      "hit": false,
      "t": 55833.33333333337,
      "d": 356.77083333333576,
      "v": 79
    },
    {
      "midi": 73,
      "hit": false,
      "t": 56010.41666666671,
      "d": 156.25,
      "v": 77
    },
    {
      "midi": 74,
      "hit": false,
      "t": 56419.27083333337,
      "d": 1174.4791666666715,
      "v": 77
    },
    {
      "midi": 78,
      "hit": false,
      "t": 56419.27083333337,
      "d": 1195.3125000000073,
      "v": 75
    },
    {
      "midi": 81,
      "hit": false,
      "t": 56481.77083333337,
      "d": 1143.2291666666788,
      "v": 88
    },
    {
      "midi": 86,
      "hit": false,
      "t": 56502.60416666671,
      "d": 1117.1875000000073,
      "v": 86
    },
    {
      "midi": 73,
      "hit": false,
      "t": 57906.25000000005,
      "d": 1192.7083333333358,
      "v": 87
    },
    {
      "midi": 78,
      "hit": false,
      "t": 57919.27083333339,
      "d": 1195.3125,
      "v": 80
    },
    {
      "midi": 81,
      "hit": false,
      "t": 57979.16666666672,
      "d": 1062.5,
      "v": 80
    },
    {
      "midi": 85,
      "hit": false,
      "t": 58020.83333333339,
      "d": 1020.8333333333358,
      "v": 84
    },
    {
      "midi": 71,
      "hit": false,
      "t": 59427.08333333339,
      "d": 1192.7083333333358,
      "v": 86
    },
    {
      "midi": 74,
      "hit": false,
      "t": 59447.91666666672,
      "d": 1171.875,
      "v": 74
    },
    {
      "midi": 78,
      "hit": false,
      "t": 59520.83333333339,
      "d": 1125,
      "v": 105
    },
    {
      "midi": 83,
      "hit": false,
      "t": 59520.83333333339,
      "d": 1145.8333333333358,
      "v": 86
    },
    {
      "midi": 69,
      "hit": false,
      "t": 60885.41666666672,
      "d": 838.5416666666642,
      "v": 76
    },
    {
      "midi": 74,
      "hit": false,
      "t": 60885.41666666672,
      "d": 1041.6666666666642,
      "v": 70
    },
    {
      "midi": 78,
      "hit": false,
      "t": 60973.95833333339,
      "d": 932.2916666666642,
      "v": 92
    },
    {
      "midi": 81,
      "hit": false,
      "t": 61015.62500000005,
      "d": 895.8333333333358,
      "v": 70
    },
    {
      "midi": 66,
      "hit": false,
      "t": 62458.33333333339,
      "d": 2187.5,
      "v": 74
    },
    {
      "midi": 59,
      "hit": false,
      "t": 62473.95833333339,
      "d": 2187.5,
      "v": 70
    },
    {
      "midi": 55,
      "hit": false,
      "t": 62473.95833333339,
      "d": 2216.1458333333358,
      "v": 70
    },
    {
      "midi": 62,
      "hit": false,
      "t": 62479.16666666672,
      "d": 2148.4375,
      "v": 74
    },
    {
      "midi": 55,
      "hit": false,
      "t": 64989.58333333339,
      "d": 354.1666666666715,
      "v": 71
    },
    {
      "midi": 59,
      "hit": false,
      "t": 64989.58333333339,
      "d": 354.1666666666715,
      "v": 70
    },
    {
      "midi": 66,
      "hit": false,
      "t": 64989.58333333339,
      "d": 395.83333333333576,
      "v": 71
    },
    {
      "midi": 62,
      "hit": false,
      "t": 64994.79166666672,
      "d": 479.16666666666424,
      "v": 76
    },
    {
      "midi": 54,
      "hit": false,
      "t": 65510.41666666672,
      "d": 1575.5208333333358,
      "v": 70
    },
    {
      "midi": 61,
      "hit": false,
      "t": 65510.41666666672,
      "d": 1593.7500000000073,
      "v": 77
    },
    {
      "midi": 64,
      "hit": false,
      "t": 65510.41666666672,
      "d": 1593.7500000000073,
      "v": 72
    },
    {
      "midi": 57,
      "hit": false,
      "t": 65510.41666666672,
      "d": 1609.3750000000073,
      "v": 75
    },
    {
      "midi": 54,
      "hit": false,
      "t": 67322.91666666673,
      "d": 75.52083333332848,
      "v": 94
    },
    {
      "midi": 61,
      "hit": false,
      "t": 67322.91666666673,
      "d": 75.52083333332848,
      "v": 94
    },
    {
      "midi": 57,
      "hit": false,
      "t": 67322.91666666673,
      "d": 93.75,
      "v": 78
    },
    {
      "midi": 64,
      "hit": false,
      "t": 67322.91666666673,
      "d": 114.58333333332848,
      "v": 83
    },
    {
      "midi": 54,
      "hit": false,
      "t": 67807.29166666673,
      "d": 57.29166666667152,
      "v": 97
    },
    {
      "midi": 57,
      "hit": false,
      "t": 68002.60416666673,
      "d": 312.5,
      "v": 81
    },
    {
      "midi": 64,
      "hit": false,
      "t": 68002.60416666673,
      "d": 1976.5625,
      "v": 80
    },
    {
      "midi": 61,
      "hit": false,
      "t": 68007.81250000006,
      "d": 453.125,
      "v": 94
    },
    {
      "midi": 55,
      "hit": false,
      "t": 68489.58333333339,
      "d": 697.9166666666715,
      "v": 74
    },
    {
      "midi": 59,
      "hit": false,
      "t": 68489.58333333339,
      "d": 1072.9166666666715,
      "v": 75
    },
    {
      "midi": 62,
      "hit": false,
      "t": 68489.58333333339,
      "d": 1177.083333333343,
      "v": 72
    },
    {
      "midi": 52,
      "hit": false,
      "t": 68489.58333333339,
      "d": 1864.583333333343,
      "v": 70
    },
    {
      "midi": 55,
      "hit": false,
      "t": 69523.43750000006,
      "d": 611.9791666666715,
      "v": 76
    },
    {
      "midi": 59,
      "hit": false,
      "t": 69677.0833333334,
      "d": 781.25,
      "v": 75
    },
    {
      "midi": 62,
      "hit": false,
      "t": 69815.10416666673,
      "d": 742.1875000000146,
      "v": 74
    },
    {
      "midi": 45,
      "hit": false,
      "t": 70333.3333333334,
      "d": 739.583333333343,
      "v": 70
    },
    {
      "midi": 52,
      "hit": false,
      "t": 70515.62500000007,
      "d": 570.3125,
      "v": 88
    },
    {
      "midi": 57,
      "hit": false,
      "t": 70656.25000000007,
      "d": 192.70833333334303,
      "v": 79
    },
    {
      "midi": 64,
      "hit": false,
      "t": 70807.29166666674,
      "d": 755.2083333333285,
      "v": 72
    },
    {
      "midi": 59,
      "hit": false,
      "t": 70822.91666666674,
      "d": 333.3333333333285,
      "v": 84
    },
    {
      "midi": 57,
      "hit": false,
      "t": 71002.60416666674,
      "d": 520.8333333333285,
      "v": 81
    },
    {
      "midi": 61,
      "hit": false,
      "t": 71002.60416666674,
      "d": 541.666666666657,
      "v": 82
    },
    {
      "midi": 50,
      "hit": false,
      "t": 71502.60416666674,
      "d": 549.479166666657,
      "v": 70
    },
    {
      "midi": 54,
      "hit": false,
      "t": 71677.0833333334,
      "d": 375,
      "v": 80
    },
    {
      "midi": 57,
      "hit": false,
      "t": 71833.3333333334,
      "d": 231.77083333332848,
      "v": 80
    },
    {
      "midi": 61,
      "hit": false,
      "t": 71994.79166666673,
      "d": 192.70833333334303,
      "v": 92
    },
    {
      "midi": 64,
      "hit": false,
      "t": 72161.4583333334,
      "d": 187.50000000001455,
      "v": 75
    },
    {
      "midi": 69,
      "hit": false,
      "t": 72307.29166666674,
      "d": 195.3125,
      "v": 80
    },
    {
      "midi": 73,
      "hit": false,
      "t": 72502.60416666674,
      "d": 809.8958333333285,
      "v": 85
    },
    {
      "midi": 76,
      "hit": false,
      "t": 72807.29166666674,
      "d": 528.6458333333285,
      "v": 77
    },
    {
      "midi": 81,
      "hit": false,
      "t": 72807.29166666674,
      "d": 1755.208333333314,
      "v": 72
    },
    {
      "midi": 74,
      "hit": false,
      "t": 73307.29166666674,
      "d": 1249.9999999999854,
      "v": 72
    },
    {
      "midi": 78,
      "hit": false,
      "t": 73307.29166666674,
      "d": 1249.9999999999854,
      "v": 70
    },
    {
      "midi": 71,
      "hit": false,
      "t": 73828.12500000007,
      "d": 729.166666666657,
      "v": 70
    },
    {
      "midi": 55,
      "hit": false,
      "t": 74489.5833333334,
      "d": 1177.083333333343,
      "v": 73
    },
    {
      "midi": 59,
      "hit": false,
      "t": 74557.29166666673,
      "d": 1109.3750000000146,
      "v": 73
    },
    {
      "midi": 62,
      "hit": false,
      "t": 74604.16666666673,
      "d": 1135.416666666686,
      "v": 70
    },
    {
      "midi": 66,
      "hit": false,
      "t": 74677.0833333334,
      "d": 908.8541666666715,
      "v": 76
    },
    {
      "midi": 55,
      "hit": false,
      "t": 76328.12500000009,
      "d": 942.7083333333285,
      "v": 80
    },
    {
      "midi": 59,
      "hit": false,
      "t": 76515.62500000009,
      "d": 755.2083333333285,
      "v": 77
    },
    {
      "midi": 62,
      "hit": false,
      "t": 76661.45833333342,
      "d": 890.6249999999854,
      "v": 79
    },
    {
      "midi": 66,
      "hit": false,
      "t": 76822.91666666674,
      "d": 656.25,
      "v": 92
    },
    {
      "midi": 57,
      "hit": false,
      "t": 77502.60416666674,
      "d": 1486.979166666657,
      "v": 72
    },
    {
      "midi": 64,
      "hit": false,
      "t": 77502.60416666674,
      "d": 1486.979166666657,
      "v": 70
    },
    {
      "midi": 54,
      "hit": false,
      "t": 77502.60416666674,
      "d": 1528.6458333333285,
      "v": 76
    },
    {
      "midi": 61,
      "hit": false,
      "t": 77507.81250000007,
      "d": 1466.1458333333285,
      "v": 82
    },
    {
      "midi": 54,
      "hit": false,
      "t": 79322.91666666674,
      "d": 80.72916666665697,
      "v": 94
    },
    {
      "midi": 57,
      "hit": false,
      "t": 79322.91666666674,
      "d": 96.35416666665697,
      "v": 73
    },
    {
      "midi": 61,
      "hit": false,
      "t": 79328.12500000007,
      "d": 78.125,
      "v": 94
    },
    {
      "midi": 64,
      "hit": false,
      "t": 79328.12500000007,
      "d": 91.14583333332848,
      "v": 79
    },
    {
      "midi": 54,
      "hit": false,
      "t": 79822.91666666673,
      "d": 656.25,
      "v": 79
    },
    {
      "midi": 57,
      "hit": false,
      "t": 80010.41666666673,
      "d": 367.1875,
      "v": 78
    },
    {
      "midi": 61,
      "hit": false,
      "t": 80010.41666666673,
      "d": 484.375,
      "v": 86
    },
    {
      "midi": 64,
      "hit": false,
      "t": 80010.41666666673,
      "d": 1864.583333333343,
      "v": 79
    },
    {
      "midi": 55,
      "hit": false,
      "t": 80502.60416666673,
      "d": 549.4791666666715,
      "v": 70
    },
    {
      "midi": 62,
      "hit": false,
      "t": 80502.60416666673,
      "d": 736.9791666666715,
      "v": 70
    },
    {
      "midi": 59,
      "hit": false,
      "t": 80510.41666666673,
      "d": 656.25,
      "v": 74
    },
    {
      "midi": 52,
      "hit": false,
      "t": 80541.66666666673,
      "d": 416.6666666666715,
      "v": 70
    },
    {
      "midi": 52,
      "hit": false,
      "t": 81020.8333333334,
      "d": 598.958333333343,
      "v": 73
    },
    {
      "midi": 55,
      "hit": false,
      "t": 81177.0833333334,
      "d": 575.520833333343,
      "v": 72
    },
    {
      "midi": 59,
      "hit": false,
      "t": 81335.93750000007,
      "d": 539.0625,
      "v": 80
    },
    {
      "midi": 62,
      "hit": false,
      "t": 81502.60416666674,
      "d": 372.3958333333285,
      "v": 79
    },
    {
      "midi": 52,
      "hit": false,
      "t": 81822.91666666674,
      "d": 718.7500000000146,
      "v": 70
    },
    {
      "midi": 59,
      "hit": false,
      "t": 82002.60416666674,
      "d": 354.1666666666715,
      "v": 79
    },
    {
      "midi": 55,
      "hit": false,
      "t": 82002.60416666674,
      "d": 434.89583333334303,
      "v": 79
    },
    {
      "midi": 62,
      "hit": false,
      "t": 82002.60416666674,
      "d": 458.33333333334303,
      "v": 75
    },
    {
      "midi": 64,
      "hit": false,
      "t": 82002.60416666674,
      "d": 1200.5208333333576,
      "v": 79
    },
    {
      "midi": 55,
      "hit": false,
      "t": 82502.60416666676,
      "d": 604.1666666666715,
      "v": 75
    },
    {
      "midi": 57,
      "hit": false,
      "t": 82502.60416666676,
      "d": 643.2291666666715,
      "v": 74
    },
    {
      "midi": 61,
      "hit": false,
      "t": 82502.60416666676,
      "d": 674.4791666666715,
      "v": 70
    },
    {
      "midi": 50,
      "hit": false,
      "t": 83328.1250000001,
      "d": 1721.354166666686,
      "v": 70
    },
    {
      "midi": 54,
      "hit": false,
      "t": 83489.58333333343,
      "d": 1541.666666666686,
      "v": 70
    },
    {
      "midi": 57,
      "hit": false,
      "t": 83687.5000000001,
      "d": 1343.7500000000146,
      "v": 77
    },
    {
      "midi": 62,
      "hit": false,
      "t": 83828.1250000001,
      "d": 1166.666666666686,
      "v": 74
    },
    {
      "midi": 81,
      "hit": false,
      "t": 84010.41666666677,
      "d": 1000.0000000000146,
      "v": 88
    },
    {
      "midi": 76,
      "hit": false,
      "t": 84010.41666666677,
      "d": 1020.833333333343,
      "v": 89
    },
    {
      "midi": 78,
      "hit": false,
      "t": 84177.08333333344,
      "d": 833.333333333343,
      "v": 97
    },
    {
      "midi": 74,
      "hit": false,
      "t": 84343.75000000012,
      "d": 687.5,
      "v": 80
    },
    {
      "midi": 64,
      "hit": false,
      "t": 85523.43750000012,
      "d": 289.0625,
      "v": 75
    },
    {
      "midi": 67,
      "hit": false,
      "t": 85523.43750000012,
      "d": 299.4791666666715,
      "v": 79
    },
    {
      "midi": 71,
      "hit": false,
      "t": 85523.43750000012,
      "d": 330.7291666666715,
      "v": 74
    },
    {
      "midi": 67,
      "hit": false,
      "t": 86010.41666666679,
      "d": 250,
      "v": 93
    },
    {
      "midi": 73,
      "hit": false,
      "t": 86010.41666666679,
      "d": 346.3541666666715,
      "v": 92
    },
    {
      "midi": 69,
      "hit": false,
      "t": 86010.41666666679,
      "d": 364.58333333334303,
      "v": 93
    },
    {
      "midi": 74,
      "hit": false,
      "t": 86502.6041666668,
      "d": 1208.3333333333285,
      "v": 79
    },
    {
      "midi": 66,
      "hit": false,
      "t": 86507.81250000013,
      "d": 1190.1041666666715,
      "v": 88
    },
    {
      "midi": 69,
      "hit": false,
      "t": 86531.25000000013,
      "d": 1151.0416666666715,
      "v": 89
    },
    {
      "midi": 62,
      "hit": false,
      "t": 86531.25000000013,
      "d": 1208.3333333333285,
      "v": 91
    },
    {
      "midi": 57,
      "hit": false,
      "t": 87877.60416666679,
      "d": 1143.229166666657,
      "v": 70
    },
    {
      "midi": 66,
      "hit": false,
      "t": 87916.66666666679,
      "d": 1333.3333333333285,
      "v": 75
    },
    {
      "midi": 62,
      "hit": false,
      "t": 87979.16666666679,
      "d": 1377.6041666666715,
      "v": 75
    },
    {
      "midi": 69,
      "hit": false,
      "t": 87994.79166666679,
      "d": 820.3125,
      "v": 84
    },
    {
      "midi": 73,
      "hit": false,
      "t": 88023.43750000012,
      "d": 1375.0000000000146,
      "v": 84
    },
    {
      "midi": 69,
      "hit": false,
      "t": 89015.62500000012,
      "d": 445.31250000001455,
      "v": 78
    },
    {
      "midi": 55,
      "hit": false,
      "t": 89354.16666666679,
      "d": 828.1250000000146,
      "v": 70
    },
    {
      "midi": 59,
      "hit": false,
      "t": 89411.45833333346,
      "d": 903.645833333343,
      "v": 72
    },
    {
      "midi": 62,
      "hit": false,
      "t": 89502.6041666668,
      "d": 937.5,
      "v": 96
    },
    {
      "midi": 66,
      "hit": false,
      "t": 89502.6041666668,
      "d": 963.5416666666715,
      "v": 85
    },
    {
      "midi": 71,
      "hit": false,
      "t": 89507.81250000013,
      "d": 841.145833333343,
      "v": 79
    },
    {
      "midi": 55,
      "hit": false,
      "t": 90322.9166666668,
      "d": 1645.833333333343,
      "v": 76
    },
    {
      "midi": 59,
      "hit": false,
      "t": 90515.62500000015,
      "d": 1463.5416666666715,
      "v": 73
    },
    {
      "midi": 62,
      "hit": false,
      "t": 90669.27083333347,
      "d": 1518.2291666666715,
      "v": 96
    },
    {
      "midi": 67,
      "hit": false,
      "t": 90828.12500000015,
      "d": 1221.3541666666715,
      "v": 93
    },
    {
      "midi": 71,
      "hit": false,
      "t": 90828.12500000015,
      "d": 1236.9791666666715,
      "v": 82
    },
    {
      "midi": 64,
      "hit": false,
      "t": 91023.43750000015,
      "d": 1000,
      "v": 82
    },
    {
      "midi": 57,
      "hit": false,
      "t": 92354.16666666682,
      "d": 1169.2708333333285,
      "v": 70
    },
    {
      "midi": 61,
      "hit": false,
      "t": 92398.43750000015,
      "d": 1125,
      "v": 70
    },
    {
      "midi": 67,
      "hit": false,
      "t": 92416.66666666682,
      "d": 1322.9166666666715,
      "v": 72
    },
    {
      "midi": 64,
      "hit": false,
      "t": 92481.77083333349,
      "d": 1075.5208333333285,
      "v": 81
    },
    {
      "midi": 69,
      "hit": false,
      "t": 92510.41666666682,
      "d": 375,
      "v": 82
    },
    {
      "midi": 73,
      "hit": false,
      "t": 92531.25000000015,
      "d": 343.75,
      "v": 81
    },
    {
      "midi": 73,
      "hit": false,
      "t": 93015.62500000015,
      "d": 833.333333333343,
      "v": 90
    },
    {
      "midi": 69,
      "hit": false,
      "t": 93015.62500000015,
      "d": 932.2916666666715,
      "v": 86
    },
    {
      "midi": 57,
      "hit": false,
      "t": 93794.27083333349,
      "d": 351.5625,
      "v": 70
    },
    {
      "midi": 61,
      "hit": false,
      "t": 93843.75000000016,
      "d": 291.66666666665697,
      "v": 70
    },
    {
      "midi": 67,
      "hit": false,
      "t": 93864.58333333349,
      "d": 492.1875,
      "v": 71
    },
    {
      "midi": 64,
      "hit": false,
      "t": 93958.33333333349,
      "d": 190.10416666667152,
      "v": 84
    },
    {
      "midi": 73,
      "hit": false,
      "t": 93973.95833333349,
      "d": 507.8125,
      "v": 86
    },
    {
      "midi": 55,
      "hit": false,
      "t": 94479.16666666682,
      "d": 557.2916666666715,
      "v": 75
    },
    {
      "midi": 71,
      "hit": false,
      "t": 94479.16666666682,
      "d": 770.833333333343,
      "v": 79
    },
    {
      "midi": 67,
      "hit": false,
      "t": 94481.77083333349,
      "d": 825.5208333333285,
      "v": 86
    },
    {
      "midi": 69,
      "hit": false,
      "t": 95286.45833333349,
      "d": 234.37499999998545,
      "v": 70
    },
    {
      "midi": 68,
      "hit": false,
      "t": 95515.62500000015,
      "d": 536.4583333333285,
      "v": 71
    },
    {
      "midi": 71,
      "hit": false,
      "t": 95786.45833333347,
      "d": 257.8125,
      "v": 70
    },
    {
      "midi": 69,
      "hit": false,
      "t": 96010.4166666668,
      "d": 221.35416666667152,
      "v": 75
    },
    {
      "midi": 57,
      "hit": false,
      "t": 96190.1041666668,
      "d": 1736.979166666657,
      "v": 74
    },
    {
      "midi": 62,
      "hit": false,
      "t": 96354.1666666668,
      "d": 1640.625,
      "v": 78
    },
    {
      "midi": 66,
      "hit": false,
      "t": 96515.62500000013,
      "d": 1557.2916666666715,
      "v": 105
    },
    {
      "midi": 76,
      "hit": false,
      "t": 96807.2916666668,
      "d": 549.479166666657,
      "v": 101
    },
    {
      "midi": 81,
      "hit": false,
      "t": 96807.2916666668,
      "d": 1161.4583333333285,
      "v": 84
    },
    {
      "midi": 78,
      "hit": false,
      "t": 97335.93750000013,
      "d": 632.8125,
      "v": 88
    },
    {
      "midi": 74,
      "hit": false,
      "t": 97335.93750000013,
      "d": 679.6875,
      "v": 83
    },
    {
      "midi": 57,
      "hit": false,
      "t": 98328.12500000013,
      "d": 1098.958333333343,
      "v": 70
    },
    {
      "midi": 62,
      "hit": false,
      "t": 98377.6041666668,
      "d": 1033.8541666666715,
      "v": 70
    },
    {
      "midi": 69,
      "hit": false,
      "t": 98377.6041666668,
      "d": 1049.4791666666715,
      "v": 74
    },
    {
      "midi": 74,
      "hit": false,
      "t": 98458.33333333347,
      "d": 1062.5,
      "v": 70
    },
    {
      "midi": 66,
      "hit": false,
      "t": 98473.95833333347,
      "d": 1005.2083333333285,
      "v": 73
    },
    {
      "midi": 78,
      "hit": false,
      "t": 98494.7916666668,
      "d": 986.9791666666715,
      "v": 87
    },
    {
      "midi": 76,
      "hit": false,
      "t": 99994.7916666668,
      "d": 1192.7083333333285,
      "v": 77
    },
    {
      "midi": 70,
      "hit": false,
      "t": 99994.7916666668,
      "d": 1234.375,
      "v": 97
    },
    {
      "midi": 66,
      "hit": false,
      "t": 100000.00000000013,
      "d": 1106.7708333333285,
      "v": 88
    },
    {
      "midi": 72,
      "hit": false,
      "t": 100036.45833333346,
      "d": 1151.0416666666715,
      "v": 89
    },
    {
      "midi": 55,
      "hit": false,
      "t": 101437.50000000013,
      "d": 1156.2499999999854,
      "v": 70
    },
    {
      "midi": 67,
      "hit": false,
      "t": 101437.50000000013,
      "d": 1270.8333333333285,
      "v": 70
    },
    {
      "midi": 71,
      "hit": false,
      "t": 101481.77083333346,
      "d": 1184.8958333333285,
      "v": 77
    },
    {
      "midi": 76,
      "hit": false,
      "t": 101510.41666666679,
      "d": 1322.9166666666715,
      "v": 76
    },
    {
      "midi": 59,
      "hit": false,
      "t": 101835.93750000012,
      "d": 882.8125000000146,
      "v": 70
    },
    {
      "midi": 62,
      "hit": false,
      "t": 102015.62500000012,
      "d": 796.8750000000146,
      "v": 89
    },
    {
      "midi": 74,
      "hit": false,
      "t": 102328.12500000012,
      "d": 484.37500000001455,
      "v": 86
    },
    {
      "midi": 55,
      "hit": false,
      "t": 102807.2916666668,
      "d": 1359.375,
      "v": 74
    },
    {
      "midi": 59,
      "hit": false,
      "t": 103002.60416666679,
      "d": 1492.1875000000146,
      "v": 70
    },
    {
      "midi": 62,
      "hit": false,
      "t": 103169.27083333346,
      "d": 1325.520833333343,
      "v": 89
    },
    {
      "midi": 79,
      "hit": false,
      "t": 103333.33333333346,
      "d": 864.583333333343,
      "v": 86
    },
    {
      "midi": 83,
      "hit": false,
      "t": 103494.79166666679,
      "d": 687.5000000000146,
      "v": 79
    },
    {
      "midi": 86,
      "hit": false,
      "t": 103661.45833333346,
      "d": 505.20833333334303,
      "v": 86
    },
    {
      "midi": 91,
      "hit": false,
      "t": 103833.33333333346,
      "d": 315.1041666666715,
      "v": 86
    },
    {
      "midi": 55,
      "hit": false,
      "t": 104510.4166666668,
      "d": 1033.854166666657,
      "v": 80
    },
    {
      "midi": 59,
      "hit": false,
      "t": 104677.08333333347,
      "d": 854.166666666657,
      "v": 76
    },
    {
      "midi": 62,
      "hit": false,
      "t": 104822.9166666668,
      "d": 692.7083333333285,
      "v": 80
    },
    {
      "midi": 64,
      "hit": false,
      "t": 105010.4166666668,
      "d": 666.666666666657,
      "v": 83
    },
    {
      "midi": 71,
      "hit": false,
      "t": 105010.4166666668,
      "d": 742.1874999999854,
      "v": 84
    },
    {
      "midi": 67,
      "hit": false,
      "t": 105010.4166666668,
      "d": 760.416666666657,
      "v": 91
    },
    {
      "midi": 57,
      "hit": false,
      "t": 105822.91666666679,
      "d": 1343.75,
      "v": 75
    },
    {
      "midi": 64,
      "hit": false,
      "t": 106020.83333333346,
      "d": 773.4375,
      "v": 84
    },
    {
      "midi": 69,
      "hit": false,
      "t": 106020.83333333346,
      "d": 1106.7708333333285,
      "v": 82
    },
    {
      "midi": 61,
      "hit": false,
      "t": 106023.43750000013,
      "d": 934.8958333333285,
      "v": 94
    },
    {
      "midi": 61,
      "hit": false,
      "t": 107031.25000000013,
      "d": 67.70833333332848,
      "v": 70
    },
    {
      "midi": 64,
      "hit": false,
      "t": 107031.25000000013,
      "d": 83.33333333332848,
      "v": 70
    },
    {
      "midi": 50,
      "hit": false,
      "t": 107520.83333333346,
      "d": 791.666666666657,
      "v": 72
    },
    {
      "midi": 54,
      "hit": false,
      "t": 107677.08333333346,
      "d": 651.041666666657,
      "v": 75
    },
    {
      "midi": 57,
      "hit": false,
      "t": 107822.91666666679,
      "d": 489.5833333333285,
      "v": 72
    },
    {
      "midi": 62,
      "hit": false,
      "t": 107994.79166666679,
      "d": 338.54166666665697,
      "v": 70
    },
    {
      "midi": 66,
      "hit": false,
      "t": 108187.50000000012,
      "d": 203.125,
      "v": 101
    },
    {
      "midi": 69,
      "hit": false,
      "t": 108343.75000000012,
      "d": 177.08333333332848,
      "v": 86
    },
    {
      "midi": 74,
      "hit": false,
      "t": 108515.62500000012,
      "d": 182.29166666665697,
      "v": 84
    },
    {
      "midi": 78,
      "hit": false,
      "t": 108690.10416666677,
      "d": 1145.8333333333285,
      "v": 101
    },
    {
      "midi": 81,
      "hit": false,
      "t": 108864.58333333344,
      "d": 1200.520833333314,
      "v": 96
    },
    {
      "midi": 86,
      "hit": false,
      "t": 109057.29166666677,
      "d": 994.791666666657,
      "v": 89
    },
    {
      "midi": 55,
      "hit": false,
      "t": 110432.29166666676,
      "d": 1192.708333333343,
      "v": 73
    },
    {
      "midi": 67,
      "hit": false,
      "t": 110432.29166666676,
      "d": 1403.645833333343,
      "v": 76
    },
    {
      "midi": 76,
      "hit": false,
      "t": 110479.16666666676,
      "d": 1690.1041666666715,
      "v": 79
    },
    {
      "midi": 71,
      "hit": false,
      "t": 110481.77083333343,
      "d": 1716.1458333333285,
      "v": 89
    },
    {
      "midi": 59,
      "hit": false,
      "t": 110979.16666666676,
      "d": 1049.4791666666715,
      "v": 70
    },
    {
      "midi": 62,
      "hit": false,
      "t": 111291.66666666676,
      "d": 739.583333333343,
      "v": 70
    },
    {
      "midi": 74,
      "hit": false,
      "t": 111489.58333333343,
      "d": 713.541666666657,
      "v": 75
    },
    {
      "midi": 55,
      "hit": false,
      "t": 112335.93750000009,
      "d": 937.5,
      "v": 70
    },
    {
      "midi": 59,
      "hit": false,
      "t": 112502.60416666676,
      "d": 846.3541666666715,
      "v": 74
    },
    {
      "midi": 62,
      "hit": false,
      "t": 112833.33333333343,
      "d": 531.25,
      "v": 93
    },
    {
      "midi": 74,
      "hit": false,
      "t": 112994.79166666676,
      "d": 354.1666666666715,
      "v": 80
    },
    {
      "midi": 69,
      "hit": false,
      "t": 112994.79166666676,
      "d": 388.02083333334303,
      "v": 81
    },
    {
      "midi": 67,
      "hit": false,
      "t": 113322.91666666676,
      "d": 531.2500000000146,
      "v": 73
    },
    {
      "midi": 74,
      "hit": false,
      "t": 113510.41666666677,
      "d": 343.75,
      "v": 83
    },
    {
      "midi": 55,
      "hit": false,
      "t": 113669.27083333344,
      "d": 1541.6666666666715,
      "v": 70
    },
    {
      "midi": 58,
      "hit": false,
      "t": 113848.95833333344,
      "d": 1494.7916666666715,
      "v": 75
    },
    {
      "midi": 62,
      "hit": false,
      "t": 114020.83333333344,
      "d": 1312.5,
      "v": 91
    },
    {
      "midi": 70,
      "hit": false,
      "t": 114190.10416666677,
      "d": 1304.6875000000146,
      "v": 101
    },
    {
      "midi": 79,
      "hit": false,
      "t": 114348.95833333344,
      "d": 1041.6666666666715,
      "v": 81
    },
    {
      "midi": 74,
      "hit": false,
      "t": 114520.83333333344,
      "d": 877.6041666666715,
      "v": 77
    },
    {
      "midi": 55,
      "hit": false,
      "t": 115343.75000000012,
      "d": 776.0416666666715,
      "v": 79
    },
    {
      "midi": 58,
      "hit": false,
      "t": 115515.62500000012,
      "d": 632.8125,
      "v": 75
    },
    {
      "midi": 62,
      "hit": false,
      "t": 115822.91666666679,
      "d": 309.8958333333285,
      "v": 77
    },
    {
      "midi": 69,
      "hit": false,
      "t": 116002.60416666679,
      "d": 341.1458333333285,
      "v": 84
    },
    {
      "midi": 74,
      "hit": false,
      "t": 116002.60416666679,
      "d": 471.3541666666715,
      "v": 79
    },
    {
      "midi": 67,
      "hit": false,
      "t": 116315.10416666679,
      "d": 132.8125,
      "v": 71
    },
    {
      "midi": 69,
      "hit": false,
      "t": 116494.79166666679,
      "d": 1408.8541666666424,
      "v": 79
    },
    {
      "midi": 74,
      "hit": false,
      "t": 116494.79166666679,
      "d": 1424.4791666666424,
      "v": 75
    },
    {
      "midi": 54,
      "hit": false,
      "t": 116822.91666666679,
      "d": 708.3333333333139,
      "v": 75
    },
    {
      "midi": 57,
      "hit": false,
      "t": 117002.60416666679,
      "d": 541.6666666666424,
      "v": 75
    },
    {
      "midi": 56,
      "hit": false,
      "t": 117023.43750000012,
      "d": 20.833333333328483,
      "v": 70
    },
    {
      "midi": 62,
      "hit": false,
      "t": 117182.29166666677,
      "d": 645.8333333333285,
      "v": 86
    },
    {
      "midi": 66,
      "hit": false,
      "t": 117335.9375000001,
      "d": 583.3333333333285,
      "v": 101
    },
    {
      "midi": 53,
      "hit": false,
      "t": 117848.95833333343,
      "d": 666.666666666657,
      "v": 70
    },
    {
      "midi": 56,
      "hit": false,
      "t": 118020.83333333343,
      "d": 489.5833333333285,
      "v": 82
    },
    {
      "midi": 59,
      "hit": false,
      "t": 118161.45833333343,
      "d": 380.2083333333285,
      "v": 81
    },
    {
      "midi": 62,
      "hit": false,
      "t": 118315.10416666676,
      "d": 200.52083333332848,
      "v": 98
    },
    {
      "midi": 65,
      "hit": false,
      "t": 118510.41666666676,
      "d": 239.58333333334303,
      "v": 98
    },
    {
      "midi": 68,
      "hit": false,
      "t": 118669.27083333343,
      "d": 166.66666666667152,
      "v": 90
    },
    {
      "midi": 74,
      "hit": false,
      "t": 118833.33333333343,
      "d": 723.9583333333285,
      "v": 83
    },
    {
      "midi": 77,
      "hit": false,
      "t": 119023.4375000001,
      "d": 395.8333333333285,
      "v": 89
    },
    {
      "midi": 55,
      "hit": false,
      "t": 119890.62500000009,
      "d": 796.875,
      "v": 70
    },
    {
      "midi": 59,
      "hit": false,
      "t": 120041.66666666676,
      "d": 645.8333333333285,
      "v": 70
    },
    {
      "midi": 62,
      "hit": false,
      "t": 120169.27083333343,
      "d": 888.0208333333285,
      "v": 93
    },
    {
      "midi": 64,
      "hit": false,
      "t": 120333.33333333343,
      "d": 682.291666666657,
      "v": 98
    },
    {
      "midi": 67,
      "hit": false,
      "t": 120494.79166666676,
      "d": 390.625,
      "v": 88
    },
    {
      "midi": 71,
      "hit": false,
      "t": 120510.41666666676,
      "d": 375,
      "v": 89
    },
    {
      "midi": 78,
      "hit": false,
      "t": 120510.41666666676,
      "d": 408.8541666666715,
      "v": 90
    },
    {
      "midi": 74,
      "hit": false,
      "t": 120510.41666666676,
      "d": 471.3541666666715,
      "v": 84
    },
    {
      "midi": 69,
      "hit": false,
      "t": 120515.62500000009,
      "d": 36.45833333332848,
      "v": 78
    },
    {
      "midi": 76,
      "hit": false,
      "t": 121002.60416666676,
      "d": 414.06250000001455,
      "v": 83
    },
    {
      "midi": 67,
      "hit": false,
      "t": 121002.60416666676,
      "d": 445.31250000001455,
      "v": 98
    },
    {
      "midi": 73,
      "hit": false,
      "t": 121010.41666666676,
      "d": 388.02083333334303,
      "v": 101
    },
    {
      "midi": 69,
      "hit": false,
      "t": 121010.41666666676,
      "d": 429.68750000001455,
      "v": 114
    },
    {
      "midi": 57,
      "hit": false,
      "t": 121294.27083333343,
      "d": 763.020833333343,
      "v": 76
    },
    {
      "midi": 61,
      "hit": false,
      "t": 121468.7500000001,
      "d": 588.5416666666715,
      "v": 80
    },
    {
      "midi": 64,
      "hit": false,
      "t": 121690.10416666677,
      "d": 367.1875,
      "v": 86
    },
    {
      "midi": 69,
      "hit": false,
      "t": 121848.95833333344,
      "d": 421.875,
      "v": 80
    },
    {
      "midi": 73,
      "hit": false,
      "t": 121848.95833333344,
      "d": 432.2916666666715,
      "v": 76
    },
    {
      "midi": 76,
      "hit": false,
      "t": 121848.95833333344,
      "d": 463.5416666666715,
      "v": 78
    },
    {
      "midi": 78,
      "hit": false,
      "t": 122510.41666666679,
      "d": 325.5208333333285,
      "v": 101
    },
    {
      "midi": 55,
      "hit": false,
      "t": 122531.25000000012,
      "d": 2505.208333333372,
      "v": 70
    },
    {
      "midi": 62,
      "hit": false,
      "t": 122531.25000000012,
      "d": 2520.833333333372,
      "v": 70
    },
    {
      "midi": 66,
      "hit": false,
      "t": 122562.50000000012,
      "d": 2473.958333333372,
      "v": 70
    },
    {
      "midi": 59,
      "hit": false,
      "t": 122562.50000000012,
      "d": 2494.7916666667006,
      "v": 70
    },
    {
      "midi": 76,
      "hit": false,
      "t": 122833.33333333344,
      "d": 244.79166666667152,
      "v": 72
    },
    {
      "midi": 78,
      "hit": false,
      "t": 123036.45833333344,
      "d": 338.5416666666715,
      "v": 105
    },
    {
      "midi": 76,
      "hit": false,
      "t": 123364.58333333344,
      "d": 234.37500000001455,
      "v": 70
    },
    {
      "midi": 78,
      "hit": false,
      "t": 123557.29166666679,
      "d": 255.20833333334303,
      "v": 77
    },
    {
      "midi": 86,
      "hit": false,
      "t": 124010.4166666668,
      "d": 489.58333333334303,
      "v": 93
    },
    {
      "midi": 83,
      "hit": false,
      "t": 124481.77083333347,
      "d": 268.2291666666715,
      "v": 73
    },
    {
      "midi": 78,
      "hit": false,
      "t": 125010.41666666682,
      "d": 484.375,
      "v": 94
    },
    {
      "midi": 54,
      "hit": false,
      "t": 125364.58333333349,
      "d": 1739.5833333333285,
      "v": 70
    },
    {
      "midi": 57,
      "hit": false,
      "t": 125437.50000000016,
      "d": 1666.666666666657,
      "v": 70
    },
    {
      "midi": 61,
      "hit": false,
      "t": 125489.58333333349,
      "d": 1614.5833333333285,
      "v": 82
    },
    {
      "midi": 76,
      "hit": false,
      "t": 125510.41666666682,
      "d": 3020.8333333333285,
      "v": 80
    },
    {
      "midi": 64,
      "hit": false,
      "t": 125536.45833333349,
      "d": 1588.541666666657,
      "v": 70
    },
    {
      "midi": 54,
      "hit": false,
      "t": 127322.91666666682,
      "d": 83.33333333332848,
      "v": 78
    },
    {
      "midi": 61,
      "hit": false,
      "t": 127335.93750000015,
      "d": 83.33333333332848,
      "v": 90
    },
    {
      "midi": 64,
      "hit": false,
      "t": 127343.75000000015,
      "d": 54.6875,
      "v": 89
    },
    {
      "midi": 57,
      "hit": false,
      "t": 127343.75000000015,
      "d": 83.33333333332848,
      "v": 78
    },
    {
      "midi": 61,
      "hit": false,
      "t": 128031.25000000015,
      "d": 171.875,
      "v": 87
    },
    {
      "midi": 54,
      "hit": false,
      "t": 128031.25000000015,
      "d": 187.5,
      "v": 84
    },
    {
      "midi": 57,
      "hit": false,
      "t": 128036.45833333347,
      "d": 166.66666666667152,
      "v": 80
    },
    {
      "midi": 64,
      "hit": false,
      "t": 128036.45833333347,
      "d": 195.3125,
      "v": 88
    },
    {
      "midi": 55,
      "hit": false,
      "t": 128502.6041666668,
      "d": 1559.8958333333285,
      "v": 75
    },
    {
      "midi": 59,
      "hit": false,
      "t": 128520.83333333347,
      "d": 1557.291666666657,
      "v": 76
    },
    {
      "midi": 62,
      "hit": false,
      "t": 128520.83333333347,
      "d": 1598.9583333333285,
      "v": 75
    },
    {
      "midi": 74,
      "hit": false,
      "t": 128523.43750000015,
      "d": 312.5,
      "v": 83
    },
    {
      "midi": 52,
      "hit": false,
      "t": 128523.43750000015,
      "d": 1518.229166666657,
      "v": 76
    },
    {
      "midi": 71,
      "hit": false,
      "t": 128833.33333333347,
      "d": 223.95833333334303,
      "v": 70
    },
    {
      "midi": 74,
      "hit": false,
      "t": 129023.43750000015,
      "d": 333.3333333333285,
      "v": 83
    },
    {
      "midi": 71,
      "hit": false,
      "t": 129335.93750000015,
      "d": 226.5625,
      "v": 70
    },
    {
      "midi": 74,
      "hit": false,
      "t": 129515.62500000015,
      "d": 223.95833333332848,
      "v": 91
    },
    {
      "midi": 83,
      "hit": false,
      "t": 130020.83333333347,
      "d": 531.2499999999854,
      "v": 79
    },
    {
      "midi": 61,
      "hit": false,
      "t": 130481.77083333347,
      "d": 632.8124999999854,
      "v": 80
    },
    {
      "midi": 64,
      "hit": false,
      "t": 130502.6041666668,
      "d": 559.8958333333285,
      "v": 75
    },
    {
      "midi": 57,
      "hit": false,
      "t": 130502.6041666668,
      "d": 570.3125,
      "v": 72
    },
    {
      "midi": 81,
      "hit": false,
      "t": 130507.81250000013,
      "d": 1036.4583333333285,
      "v": 75
    },
    {
      "midi": 73,
      "hit": false,
      "t": 131007.81250000013,
      "d": 536.4583333333285,
      "v": 84
    },
    {
      "midi": 57,
      "hit": false,
      "t": 131494.7916666668,
      "d": 973.9583333333139,
      "v": 71
    },
    {
      "midi": 74,
      "hit": false,
      "t": 131502.6041666668,
      "d": 924.479166666657,
      "v": 83
    },
    {
      "midi": 66,
      "hit": false,
      "t": 131502.6041666668,
      "d": 937.5,
      "v": 81
    },
    {
      "midi": 62,
      "hit": false,
      "t": 131502.6041666668,
      "d": 955.729166666657,
      "v": 77
    },
    {
      "midi": 57,
      "hit": false,
      "t": 132981.77083333346,
      "d": 497.39583333334303,
      "v": 72
    },
    {
      "midi": 69,
      "hit": false,
      "t": 132981.77083333346,
      "d": 507.8125,
      "v": 91
    },
    {
      "midi": 67,
      "hit": false,
      "t": 132989.58333333346,
      "d": 380.20833333334303,
      "v": 91
    },
    {
      "midi": 71,
      "hit": false,
      "t": 133502.6041666668,
      "d": 492.1875,
      "v": 81
    },
    {
      "midi": 67,
      "hit": false,
      "t": 133502.6041666668,
      "d": 570.3125,
      "v": 98
    },
    {
      "midi": 69,
      "hit": false,
      "t": 134007.81250000015,
      "d": 236.97916666665697,
      "v": 83
    },
    {
      "midi": 73,
      "hit": false,
      "t": 134007.81250000015,
      "d": 244.79166666665697,
      "v": 86
    },
    {
      "midi": 62,
      "hit": false,
      "t": 134515.62500000015,
      "d": 1130.208333333343,
      "v": 98
    },
    {
      "midi": 66,
      "hit": false,
      "t": 134515.62500000015,
      "d": 1192.708333333343,
      "v": 94
    },
    {
      "midi": 69,
      "hit": false,
      "t": 134520.8333333335,
      "d": 1218.75,
      "v": 91
    },
    {
      "midi": 74,
      "hit": false,
      "t": 134520.8333333335,
      "d": 1252.604166666657,
      "v": 82
    },
    {
      "midi": 57,
      "hit": false,
      "t": 135895.8333333335,
      "d": 148.4375000000291,
      "v": 70
    },
    {
      "midi": 66,
      "hit": false,
      "t": 135932.29166666683,
      "d": 1382.812500000029,
      "v": 70
    },
    {
      "midi": 69,
      "hit": false,
      "t": 136002.60416666683,
      "d": 804.6875000000291,
      "v": 84
    },
    {
      "midi": 62,
      "hit": false,
      "t": 136002.60416666683,
      "d": 1424.479166666686,
      "v": 72
    },
    {
      "midi": 73,
      "hit": false,
      "t": 136007.81250000017,
      "d": 1460.9375,
      "v": 87
    },
    {
      "midi": 69,
      "hit": false,
      "t": 137002.60416666686,
      "d": 466.14583333331393,
      "v": 80
    },
    {
      "midi": 55,
      "hit": false,
      "t": 137385.41666666686,
      "d": 692.7083333333139,
      "v": 75
    },
    {
      "midi": 59,
      "hit": false,
      "t": 137481.77083333352,
      "d": 875,
      "v": 71
    },
    {
      "midi": 66,
      "hit": false,
      "t": 137536.45833333352,
      "d": 1005.208333333343,
      "v": 97
    },
    {
      "midi": 71,
      "hit": false,
      "t": 137536.45833333352,
      "d": 1005.208333333343,
      "v": 80
    },
    {
      "midi": 62,
      "hit": false,
      "t": 137562.50000000017,
      "d": 843.75,
      "v": 88
    },
    {
      "midi": 55,
      "hit": false,
      "t": 138333.33333333352,
      "d": 1760.416666666686,
      "v": 76
    },
    {
      "midi": 59,
      "hit": false,
      "t": 138520.83333333352,
      "d": 1552.083333333343,
      "v": 72
    },
    {
      "midi": 62,
      "hit": false,
      "t": 138690.10416666686,
      "d": 1520.833333333343,
      "v": 84
    },
    {
      "midi": 64,
      "hit": false,
      "t": 138843.7500000002,
      "d": 1367.1875,
      "v": 84
    },
    {
      "midi": 71,
      "hit": false,
      "t": 139010.41666666686,
      "d": 437.5,
      "v": 78
    },
    {
      "midi": 67,
      "hit": false,
      "t": 139010.41666666686,
      "d": 895.833333333343,
      "v": 79
    },
    {
      "midi": 76,
      "hit": false,
      "t": 139010.41666666686,
      "d": 1346.354166666686,
      "v": 83
    },
    {
      "midi": 74,
      "hit": false,
      "t": 139335.9375000002,
      "d": 1041.666666666686,
      "v": 76
    },
    {
      "midi": 71,
      "hit": false,
      "t": 139815.10416666686,
      "d": 520.833333333343,
      "v": 77
    },
    {
      "midi": 67,
      "hit": false,
      "t": 140010.41666666686,
      "d": 1755.208333333343,
      "v": 78
    },
    {
      "midi": 57,
      "hit": false,
      "t": 140333.33333333355,
      "d": 1244.791666666657,
      "v": 70
    },
    {
      "midi": 61,
      "hit": false,
      "t": 140458.33333333355,
      "d": 1104.166666666657,
      "v": 78
    },
    {
      "midi": 73,
      "hit": false,
      "t": 140494.7916666669,
      "d": 442.70833333334303,
      "v": 97
    },
    {
      "midi": 69,
      "hit": false,
      "t": 140494.7916666669,
      "d": 1390.624999999971,
      "v": 89
    },
    {
      "midi": 64,
      "hit": false,
      "t": 140523.43750000023,
      "d": 1020.8333333333139,
      "v": 70
    },
    {
      "midi": 73,
      "hit": false,
      "t": 141010.4166666669,
      "d": 874.9999999999709,
      "v": 79
    },
    {
      "midi": 57,
      "hit": false,
      "t": 141843.7500000002,
      "d": 364.58333333331393,
      "v": 70
    },
    {
      "midi": 67,
      "hit": false,
      "t": 141877.60416666686,
      "d": 471.35416666665697,
      "v": 79
    },
    {
      "midi": 61,
      "hit": false,
      "t": 141927.08333333352,
      "d": 281.25,
      "v": 79
    },
    {
      "midi": 64,
      "hit": false,
      "t": 141981.77083333352,
      "d": 226.5625,
      "v": 80
    },
    {
      "midi": 69,
      "hit": false,
      "t": 142002.60416666686,
      "d": 471.35416666665697,
      "v": 79
    },
    {
      "midi": 73,
      "hit": false,
      "t": 142002.60416666686,
      "d": 471.35416666665697,
      "v": 86
    },
    {
      "midi": 71,
      "hit": false,
      "t": 142481.77083333352,
      "d": 768.229166666657,
      "v": 72
    },
    {
      "midi": 67,
      "hit": false,
      "t": 142486.97916666686,
      "d": 736.979166666657,
      "v": 81
    },
    {
      "midi": 55,
      "hit": false,
      "t": 142515.6250000002,
      "d": 526.041666666657,
      "v": 76
    },
    {
      "midi": 69,
      "hit": false,
      "t": 143369.79166666683,
      "d": 151.04166666668607,
      "v": 70
    },
    {
      "midi": 68,
      "hit": false,
      "t": 143515.62500000017,
      "d": 348.95833333334303,
      "v": 74
    },
    {
      "midi": 57,
      "hit": false,
      "t": 143536.45833333352,
      "d": 2520.833333333314,
      "v": 70
    },
    {
      "midi": 71,
      "hit": false,
      "t": 143822.91666666686,
      "d": 208.33333333334303,
      "v": 70
    },
    {
      "midi": 69,
      "hit": false,
      "t": 144002.60416666686,
      "d": 341.14583333334303,
      "v": 72
    },
    {
      "midi": 62,
      "hit": false,
      "t": 144315.10416666686,
      "d": 1742.187499999971,
      "v": 74
    },
    {
      "midi": 66,
      "hit": false,
      "t": 144510.41666666686,
      "d": 1575.520833333314,
      "v": 94
    },
    {
      "midi": 81,
      "hit": false,
      "t": 144807.29166666686,
      "d": 515.625,
      "v": 77
    },
    {
      "midi": 76,
      "hit": false,
      "t": 144807.29166666686,
      "d": 541.666666666657,
      "v": 86
    },
    {
      "midi": 74,
      "hit": false,
      "t": 145322.91666666686,
      "d": 75.52083333331393,
      "v": 72
    },
    {
      "midi": 78,
      "hit": false,
      "t": 145322.91666666686,
      "d": 93.7499999999709,
      "v": 81
    },
    {
      "midi": 88,
      "hit": false,
      "t": 145807.29166666683,
      "d": 250,
      "v": 73
    },
    {
      "midi": 93,
      "hit": false,
      "t": 145807.29166666683,
      "d": 723.958333333343,
      "v": 70
    },
    {
      "midi": 86,
      "hit": false,
      "t": 146015.62500000017,
      "d": 515.625,
      "v": 76
    },
    {
      "midi": 90,
      "hit": false,
      "t": 146015.62500000017,
      "d": 515.625,
      "v": 70
    },
    {
      "midi": 57,
      "hit": false,
      "t": 146502.60416666683,
      "d": 1257.812500000029,
      "v": 70
    },
    {
      "midi": 62,
      "hit": false,
      "t": 146687.50000000017,
      "d": 1208.3333333333721,
      "v": 77
    },
    {
      "midi": 66,
      "hit": false,
      "t": 146854.16666666683,
      "d": 973.9583333333721,
      "v": 101
    },
    {
      "midi": 69,
      "hit": false,
      "t": 147023.43750000017,
      "d": 895.8333333333721,
      "v": 105
    },
    {
      "midi": 74,
      "hit": false,
      "t": 147169.27083333352,
      "d": 916.6666666666861,
      "v": 86
    },
    {
      "midi": 78,
      "hit": false,
      "t": 147356.77083333352,
      "d": 757.8125000000291,
      "v": 94
    },
    {
      "midi": 66,
      "hit": false,
      "t": 148203.1250000002,
      "d": 1070.3125,
      "v": 84
    },
    {
      "midi": 70,
      "hit": false,
      "t": 148354.16666666686,
      "d": 947.916666666657,
      "v": 88
    },
    {
      "midi": 72,
      "hit": false,
      "t": 148531.2500000002,
      "d": 802.0833333333139,
      "v": 86
    },
    {
      "midi": 76,
      "hit": false,
      "t": 148669.27083333355,
      "d": 622.3958333333139,
      "v": 76
    },
    {
      "midi": 66,
      "hit": false,
      "t": 149328.12500000017,
      "d": 171.8750000000291,
      "v": 70
    },
    {
      "midi": 67,
      "hit": false,
      "t": 149479.16666666686,
      "d": 1002.6041666666861,
      "v": 88
    },
    {
      "midi": 76,
      "hit": false,
      "t": 149494.79166666686,
      "d": 1375.000000000029,
      "v": 78
    },
    {
      "midi": 71,
      "hit": false,
      "t": 149494.79166666686,
      "d": 1408.854166666686,
      "v": 88
    },
    {
      "midi": 78,
      "hit": false,
      "t": 149536.45833333355,
      "d": 5.208333333343035,
      "v": 70
    },
    {
      "midi": 74,
      "hit": false,
      "t": 150479.1666666669,
      "d": 479.16666666665697,
      "v": 79
    },
    {
      "midi": 64,
      "hit": false,
      "t": 150968.7500000002,
      "d": 1208.333333333343,
      "v": 70
    },
    {
      "midi": 67,
      "hit": false,
      "t": 151182.29166666686,
      "d": 1026.041666666686,
      "v": 75
    },
    {
      "midi": 71,
      "hit": false,
      "t": 151348.95833333352,
      "d": 859.3750000000291,
      "v": 96
    },
    {
      "midi": 74,
      "hit": false,
      "t": 151510.41666666686,
      "d": 796.8750000000291,
      "v": 91
    },
    {
      "midi": 76,
      "hit": false,
      "t": 151682.29166666686,
      "d": 708.333333333343,
      "v": 91
    },
    {
      "midi": 83,
      "hit": false,
      "t": 151835.9375000002,
      "d": 554.6875,
      "v": 89
    },
    {
      "midi": 79,
      "hit": false,
      "t": 152015.6250000002,
      "d": 375,
      "v": 83
    },
    {
      "midi": 64,
      "hit": false,
      "t": 152364.58333333355,
      "d": 354.16666666668607,
      "v": 70
    },
    {
      "midi": 74,
      "hit": false,
      "t": 152406.2500000002,
      "d": 296.8750000000291,
      "v": 73
    },
    {
      "midi": 67,
      "hit": false,
      "t": 152427.08333333355,
      "d": 276.04166666668607,
      "v": 73
    },
    {
      "midi": 76,
      "hit": false,
      "t": 152481.77083333355,
      "d": 257.8125000000291,
      "v": 79
    },
    {
      "midi": 71,
      "hit": false,
      "t": 152510.4166666669,
      "d": 205.72916666668607,
      "v": 89
    },
    {
      "midi": 79,
      "hit": false,
      "t": 152510.4166666669,
      "d": 242.1875000000291,
      "v": 79
    },
    {
      "midi": 83,
      "hit": false,
      "t": 152510.4166666669,
      "d": 270.83333333337214,
      "v": 74
    },
    {
      "midi": 76,
      "hit": false,
      "t": 153015.62500000026,
      "d": 984.375,
      "v": 81
    },
    {
      "midi": 81,
      "hit": false,
      "t": 153015.62500000026,
      "d": 984.375,
      "v": 72
    },
    {
      "midi": 73,
      "hit": false,
      "t": 153015.62500000026,
      "d": 1046.875,
      "v": 85
    },
    {
      "midi": 57,
      "hit": false,
      "t": 154036.4583333336,
      "d": 41.666666666656965,
      "v": 75
    },
    {
      "midi": 61,
      "hit": false,
      "t": 154197.91666666692,
      "d": 604.166666666657,
      "v": 81
    },
    {
      "midi": 64,
      "hit": false,
      "t": 154354.16666666692,
      "d": 447.91666666665697,
      "v": 89
    },
    {
      "midi": 71,
      "hit": false,
      "t": 154520.83333333358,
      "d": 520.833333333343,
      "v": 77
    },
    {
      "midi": 76,
      "hit": false,
      "t": 154520.83333333358,
      "d": 544.270833333343,
      "v": 81
    },
    {
      "midi": 69,
      "hit": false,
      "t": 155010.41666666692,
      "d": 72.91666666665697,
      "v": 79
    },
    {
      "midi": 73,
      "hit": false,
      "t": 155010.41666666692,
      "d": 88.54166666665697,
      "v": 80
    },
    {
      "midi": 74,
      "hit": false,
      "t": 155447.91666666692,
      "d": 1260.416666666657,
      "v": 86
    },
    {
      "midi": 78,
      "hit": false,
      "t": 155481.77083333358,
      "d": 1208.333333333343,
      "v": 70
    },
    {
      "midi": 81,
      "hit": false,
      "t": 155520.83333333358,
      "d": 1187.5,
      "v": 82
    },
    {
      "midi": 86,
      "hit": false,
      "t": 155520.83333333358,
      "d": 1229.166666666657,
      "v": 76
    },
    {
      "midi": 73,
      "hit": false,
      "t": 156911.45833333358,
      "d": 1187.500000000029,
      "v": 97
    },
    {
      "midi": 78,
      "hit": false,
      "t": 156927.08333333358,
      "d": 1158.854166666686,
      "v": 72
    },
    {
      "midi": 81,
      "hit": false,
      "t": 156989.58333333358,
      "d": 1013.020833333343,
      "v": 81
    },
    {
      "midi": 85,
      "hit": false,
      "t": 156989.58333333358,
      "d": 1013.020833333343,
      "v": 85
    },
    {
      "midi": 74,
      "hit": false,
      "t": 158416.66666666695,
      "d": 1203.125,
      "v": 70
    },
    {
      "midi": 71,
      "hit": false,
      "t": 158432.29166666695,
      "d": 1187.5,
      "v": 71
    },
    {
      "midi": 78,
      "hit": false,
      "t": 158479.16666666695,
      "d": 1187.5,
      "v": 101
    },
    {
      "midi": 83,
      "hit": false,
      "t": 158494.79166666695,
      "d": 1171.875,
      "v": 83
    },
    {
      "midi": 69,
      "hit": false,
      "t": 159898.4375000003,
      "d": 820.3125,
      "v": 70
    },
    {
      "midi": 74,
      "hit": false,
      "t": 159916.66666666695,
      "d": 1260.416666666657,
      "v": 70
    },
    {
      "midi": 78,
      "hit": false,
      "t": 159981.7708333336,
      "d": 1153.645833333343,
      "v": 90
    },
    {
      "midi": 81,
      "hit": false,
      "t": 160010.41666666695,
      "d": 1114.583333333343,
      "v": 86
    },
    {
      "midi": 55,
      "hit": false,
      "t": 161502.60416666692,
      "d": 33.854166666656965,
      "v": 70
    },
    {
      "midi": 59,
      "hit": false,
      "t": 161502.60416666692,
      "d": 33.854166666656965,
      "v": 70
    },
    {
      "midi": 62,
      "hit": false,
      "t": 161502.60416666692,
      "d": 33.854166666656965,
      "v": 72
    },
    {
      "midi": 66,
      "hit": false,
      "t": 161502.60416666692,
      "d": 33.854166666656965,
      "v": 74
    },
    {
      "midi": 78,
      "hit": false,
      "t": 161502.60416666692,
      "d": 333.33333333331393,
      "v": 115
    },
    {
      "midi": 76,
      "hit": false,
      "t": 161833.33333333358,
      "d": 197.91666666665697,
      "v": 70
    },
    {
      "midi": 78,
      "hit": false,
      "t": 162000.00000000023,
      "d": 335.9375,
      "v": 85
    },
    {
      "midi": 76,
      "hit": false,
      "t": 162315.1041666669,
      "d": 216.14583333334303,
      "v": 70
    },
    {
      "midi": 78,
      "hit": false,
      "t": 162494.7916666669,
      "d": 307.29166666668607,
      "v": 92
    },
    {
      "midi": 86,
      "hit": false,
      "t": 163010.41666666692,
      "d": 479.16666666665697,
      "v": 79
    },
    {
      "midi": 83,
      "hit": false,
      "t": 163481.77083333358,
      "d": 208.33333333334303,
      "v": 70
    },
    {
      "midi": 78,
      "hit": false,
      "t": 164000.00000000026,
      "d": 562.5,
      "v": 77
    },
    {
      "midi": 62,
      "hit": false,
      "t": 164515.62500000026,
      "d": 1096.3541666666279,
      "v": 70
    },
    {
      "midi": 66,
      "hit": false,
      "t": 164697.91666666692,
      "d": 929.6874999999709,
      "v": 73
    },
    {
      "midi": 69,
      "hit": false,
      "t": 164895.83333333358,
      "d": 731.7708333333139,
      "v": 77
    },
    {
      "midi": 73,
      "hit": false,
      "t": 165098.95833333358,
      "d": 2973.958333333314,
      "v": 78
    },
    {
      "midi": 76,
      "hit": false,
      "t": 165328.12500000023,
      "d": 2744.791666666657,
      "v": 74
    },
    {
      "midi": 81,
      "hit": false,
      "t": 165585.93750000023,
      "d": 2500,
      "v": 74
    },
    {
      "midi": 88,
      "hit": false,
      "t": 166166.6666666669,
      "d": 1919.270833333343,
      "v": 70
    },
    {
      "midi": 93,
      "hit": false,
      "t": 166703.12500000023,
      "d": 1369.791666666657,
      "v": 70
    }
  ]
}