{
  "jsonPath": "Soundtracks/Talent Show/Andy Abraham/unforgettable.json",
  "path": "Soundtracks\\Talent Show\\Andy Abraham\\Unforgettable.mid",
  "name": "Unforgettable",
  "difficulty": "Advanced",
  "bpm": 120,
  "notes": [
    {
      "midi": 53,
      "hit": false,
      "t": 20000,
      "d": 1458.3333333333321,
      "v": 64
    },
    {
      "midi": 57,
      "hit": false,
      "t": 20000,
      "d": 1541.6666666666642,
      "v": 70
    },
    {
      "midi": 72,
      "hit": false,
      "t": 20000,
      "d": 1604.1666666666679,
      "v": 90
    },
    {
      "midi": 65,
      "hit": false,
      "t": 20000,
      "d": 1645.8333333333358,
      "v": 71
    },
    {
      "midi": 55,
      "hit": false,
      "t": 21666.666666666664,
      "d": 645.8333333333321,
      "v": 63
    },
    {
      "midi": 58,
      "hit": false,
      "t": 21666.666666666664,
      "d": 645.8333333333321,
      "v": 64
    },
    {
      "midi": 67,
      "hit": false,
      "t": 21666.666666666668,
      "d": 520.8333333333321,
      "v": 73
    },
    {
      "midi": 74,
      "hit": false,
      "t": 21666.666666666668,
      "d": 520.8333333333321,
      "v": 88
    },
    {
      "midi": 55,
      "hit": false,
      "t": 22499.999999999996,
      "d": 1437.5,
      "v": 59
    },
    {
      "midi": 58,
      "hit": false,
      "t": 22499.999999999996,
      "d": 1604.1666666666679,
      "v": 72
    },
    {
      "midi": 74,
      "hit": false,
      "t": 22500,
      "d": 1416.6666666666679,
      "v": 91
    },
    {
      "midi": 67,
      "hit": false,
      "t": 22500,
      "d": 1437.5,
      "v": 70
    },
    {
      "midi": 60,
      "hit": false,
      "t": 24166.666666666664,
      "d": 625,
      "v": 79
    },
    {
      "midi": 57,
      "hit": false,
      "t": 24166.666666666664,
      "d": 708.3333333333321,
      "v": 67
    },
    {
      "midi": 69,
      "hit": false,
      "t": 24166.666666666668,
      "d": 479.1666666666679,
      "v": 86
    },
    {
      "midi": 76,
      "hit": false,
      "t": 24166.666666666668,
      "d": 500,
      "v": 78
    },
    {
      "midi": 60,
      "hit": false,
      "t": 24999.999999999996,
      "d": 4562.5,
      "v": 75
    },
    {
      "midi": 57,
      "hit": false,
      "t": 24999.999999999996,
      "d": 4687.5,
      "v": 60
    },
    {
      "midi": 69,
      "hit": false,
      "t": 25000,
      "d": 4541.666666666668,
      "v": 75
    },
    {
      "midi": 76,
      "hit": false,
      "t": 25000,
      "d": 4645.833333333336,
      "v": 91
    },
    {
      "midi": 53,
      "hit": false,
      "t": 29999.999999999996,
      "d": 1500,
      "v": 58
    },
    {
      "midi": 58,
      "hit": false,
      "t": 29999.999999999996,
      "d": 1520.8333333333321,
      "v": 69
    },
    {
      "midi": 74,
      "hit": false,
      "t": 30000.000000000004,
      "d": 1562.5,
      "v": 91
    },
    {
      "midi": 67,
      "hit": false,
      "t": 30000.000000000004,
      "d": 1729.1666666666679,
      "v": 76
    },
    {
      "midi": 55,
      "hit": false,
      "t": 31666.66666666666,
      "d": 729.1666666666679,
      "v": 50
    },
    {
      "midi": 60,
      "hit": false,
      "t": 31666.66666666666,
      "d": 729.1666666666679,
      "v": 73
    },
    {
      "midi": 72,
      "hit": false,
      "t": 31666.66666666667,
      "d": 645.8333333333321,
      "v": 63
    },
    {
      "midi": 76,
      "hit": false,
      "t": 31666.66666666667,
      "d": 645.8333333333321,
      "v": 82
    },
    {
      "midi": 60,
      "hit": false,
      "t": 32499.999999999996,
      "d": 1437.5000000000036,
      "v": 72
    },
    {
      "midi": 55,
      "hit": false,
      "t": 32499.999999999996,
      "d": 1458.3333333333394,
      "v": 49
    },
    {
      "midi": 76,
      "hit": false,
      "t": 32500.000000000004,
      "d": 1479.1666666666679,
      "v": 89
    },
    {
      "midi": 72,
      "hit": false,
      "t": 32500.000000000004,
      "d": 1562.5000000000036,
      "v": 63
    },
    {
      "midi": 62,
      "hit": false,
      "t": 34166.66666666667,
      "d": 500,
      "v": 63
    },
    {
      "midi": 53,
      "hit": false,
      "t": 34166.66666666667,
      "d": 541.6666666666642,
      "v": 45
    },
    {
      "midi": 67,
      "hit": false,
      "t": 34166.66666666667,
      "d": 708.3333333333358,
      "v": 77
    },
    {
      "midi": 77,
      "hit": false,
      "t": 34166.66666666667,
      "d": 937.5,
      "v": 90
    },
    {
      "midi": 62,
      "hit": false,
      "t": 35000,
      "d": 4333.333333333336,
      "v": 72
    },
    {
      "midi": 67,
      "hit": false,
      "t": 35000.00000000001,
      "d": 4687.5,
      "v": 72
    },
    {
      "midi": 74,
      "hit": false,
      "t": 35000.00000000001,
      "d": 4750,
      "v": 92
    },
    {
      "midi": 53,
      "hit": false,
      "t": 35020.833333333336,
      "d": 4250,
      "v": 54
    },
    {
      "midi": 64,
      "hit": false,
      "t": 40000,
      "d": 1333.3333333333358,
      "v": 54
    },
    {
      "midi": 60,
      "hit": false,
      "t": 40000,
      "d": 1604.1666666666715,
      "v": 65
    },
    {
      "midi": 76,
      "hit": false,
      "t": 40000.00000000001,
      "d": 1666.6666666666642,
      "v": 77
    },
    {
      "midi": 72,
      "hit": false,
      "t": 40000.00000000001,
      "d": 1854.1666666666642,
      "v": 75
    },
    {
      "midi": 62,
      "hit": false,
      "t": 41666.66666666667,
      "d": 729.1666666666642,
      "v": 56
    },
    {
      "midi": 65,
      "hit": false,
      "t": 41666.66666666667,
      "d": 895.8333333333285,
      "v": 73
    },
    {
      "midi": 74,
      "hit": false,
      "t": 41666.66666666667,
      "d": 708.3333333333358,
      "v": 71
    },
    {
      "midi": 77,
      "hit": false,
      "t": 41666.66666666667,
      "d": 708.3333333333358,
      "v": 79
    },
    {
      "midi": 62,
      "hit": false,
      "t": 42500,
      "d": 1270.8333333333358,
      "v": 67
    },
    {
      "midi": 67,
      "hit": false,
      "t": 42500,
      "d": 1479.1666666666715,
      "v": 74
    },
    {
      "midi": 74,
      "hit": false,
      "t": 42500.00000000001,
      "d": 1375,
      "v": 66
    },
    {
      "midi": 77,
      "hit": false,
      "t": 42500.00000000001,
      "d": 1708.3333333333285,
      "v": 88
    },
    {
      "midi": 62,
      "hit": false,
      "t": 44166.66666666667,
      "d": 750,
      "v": 54
    },
    {
      "midi": 72,
      "hit": false,
      "t": 44166.66666666667,
      "d": 750,
      "v": 72
    },
    {
      "midi": 72,
      "hit": false,
      "t": 44166.66666666667,
      "d": 937.4999999999927,
      "v": 74
    },
    {
      "midi": 79,
      "hit": false,
      "t": 44166.66666666667,
      "d": 979.166666666657,
      "v": 86
    },
    {
      "midi": 77,
      "hit": false,
      "t": 45000,
      "d": 1499.9999999999927,
      "v": 66
    },
    {
      "midi": 74,
      "hit": false,
      "t": 45000,
      "d": 1624.9999999999927,
      "v": 85
    },
    {
      "midi": 59,
      "hit": false,
      "t": 45000.00000000001,
      "d": 1208.3333333333358,
      "v": 70
    },
    {
      "midi": 68,
      "hit": false,
      "t": 45000.00000000001,
      "d": 1937.5000000000073,
      "v": 60
    },
    {
      "midi": 68,
      "hit": false,
      "t": 46666.66666666666,
      "d": 562.5,
      "v": 57
    },
    {
      "midi": 76,
      "hit": false,
      "t": 46666.66666666666,
      "d": 604.1666666666642,
      "v": 75
    },
    {
      "midi": 59,
      "hit": false,
      "t": 46666.66666666668,
      "d": 541.6666666666715,
      "v": 57
    },
    {
      "midi": 76,
      "hit": false,
      "t": 47499.999999999985,
      "d": 1562.5,
      "v": 89
    },
    {
      "midi": 68,
      "hit": false,
      "t": 47499.999999999985,
      "d": 1666.6666666666642,
      "v": 72
    },
    {
      "midi": 59,
      "hit": false,
      "t": 47500.000000000015,
      "d": 1250,
      "v": 69
    },
    {
      "midi": 68,
      "hit": false,
      "t": 47500.000000000015,
      "d": 2166.6666666666642,
      "v": 63
    },
    {
      "midi": 74,
      "hit": false,
      "t": 49166.66666666665,
      "d": 645.8333333333358,
      "v": 72
    },
    {
      "midi": 77,
      "hit": false,
      "t": 49166.66666666665,
      "d": 729.1666666666715,
      "v": 79
    },
    {
      "midi": 59,
      "hit": false,
      "t": 49166.66666666668,
      "d": 666.6666666666642,
      "v": 58
    },
    {
      "midi": 74,
      "hit": false,
      "t": 49999.999999999985,
      "d": 1333.3333333333358,
      "v": 72
    },
    {
      "midi": 70,
      "hit": false,
      "t": 49999.999999999985,
      "d": 1520.8333333333358,
      "v": 87
    },
    {
      "midi": 65,
      "hit": false,
      "t": 50000.00000000001,
      "d": 1333.3333333333358,
      "v": 68
    },
    {
      "midi": 55,
      "hit": false,
      "t": 50000.00000000001,
      "d": 1625,
      "v": 67
    },
    {
      "midi": 74,
      "hit": false,
      "t": 51666.66666666666,
      "d": 562.5,
      "v": 58
    },
    {
      "midi": 72,
      "hit": false,
      "t": 51666.66666666666,
      "d": 604.1666666666642,
      "v": 70
    },
    {
      "midi": 65,
      "hit": false,
      "t": 51666.66666666667,
      "d": 625,
      "v": 55
    },
    {
      "midi": 57,
      "hit": false,
      "t": 51666.66666666667,
      "d": 645.8333333333358,
      "v": 64
    },
    {
      "midi": 74,
      "hit": false,
      "t": 52499.999999999985,
      "d": 1229.1666666666642,
      "v": 78
    },
    {
      "midi": 72,
      "hit": false,
      "t": 52499.999999999985,
      "d": 1437.5,
      "v": 69
    },
    {
      "midi": 65,
      "hit": false,
      "t": 52500.00000000001,
      "d": 1083.3333333333358,
      "v": 55
    },
    {
      "midi": 57,
      "hit": false,
      "t": 52500.00000000001,
      "d": 1562.5,
      "v": 63
    },
    {
      "midi": 74,
      "hit": false,
      "t": 54166.66666666665,
      "d": 625,
      "v": 78
    },
    {
      "midi": 58,
      "hit": false,
      "t": 54166.66666666667,
      "d": 500,
      "v": 57
    },
    {
      "midi": 65,
      "hit": false,
      "t": 54166.66666666667,
      "d": 708.3333333333358,
      "v": 55
    },
    {
      "midi": 74,
      "hit": false,
      "t": 54999.999999999985,
      "d": 1229.1666666666642,
      "v": 68
    },
    {
      "midi": 67,
      "hit": false,
      "t": 54999.999999999985,
      "d": 1395.8333333333285,
      "v": 84
    },
    {
      "midi": 65,
      "hit": false,
      "t": 55000.00000000001,
      "d": 1208.3333333333358,
      "v": 61
    },
    {
      "midi": 58,
      "hit": false,
      "t": 55000.00000000001,
      "d": 1500,
      "v": 69
    },
    {
      "midi": 74,
      "hit": false,
      "t": 56666.66666666665,
      "d": 437.5,
      "v": 57
    },
    {
      "midi": 69,
      "hit": false,
      "t": 56666.66666666665,
      "d": 520.8333333333358,
      "v": 74
    },
    {
      "midi": 65,
      "hit": false,
      "t": 56666.66666666667,
      "d": 437.5,
      "v": 56
    },
    {
      "midi": 57,
      "hit": false,
      "t": 56666.66666666667,
      "d": 708.3333333333358,
      "v": 69
    },
    {
      "midi": 69,
      "hit": false,
      "t": 57499.999999999985,
      "d": 1437.5,
      "v": 79
    },
    {
      "midi": 74,
      "hit": false,
      "t": 57499.999999999985,
      "d": 1500,
      "v": 78
    },
    {
      "midi": 57,
      "hit": false,
      "t": 57500.00000000001,
      "d": 1416.6666666666642,
      "v": 64
    },
    {
      "midi": 65,
      "hit": false,
      "t": 57500.00000000001,
      "d": 1479.1666666666642,
      "v": 65
    },
    {
      "midi": 70,
      "hit": false,
      "t": 59166.66666666665,
      "d": 687.5,
      "v": 66
    },
    {
      "midi": 73,
      "hit": false,
      "t": 59166.66666666665,
      "d": 750,
      "v": 66
    },
    {
      "midi": 58,
      "hit": false,
      "t": 59166.66666666667,
      "d": 687.5,
      "v": 56
    },
    {
      "midi": 64,
      "hit": false,
      "t": 59166.66666666667,
      "d": 687.5,
      "v": 47
    },
    {
      "midi": 69,
      "hit": false,
      "t": 59999.999999999985,
      "d": 6729.1666666666715,
      "v": 72
    },
    {
      "midi": 72,
      "hit": false,
      "t": 59999.999999999985,
      "d": 6791.6666666666715,
      "v": 78
    },
    {
      "midi": 48,
      "hit": false,
      "t": 60000.00000000001,
      "d": 2145.8333333333358,
      "v": 52
    },
    {
      "midi": 53,
      "hit": false,
      "t": 60000.00000000001,
      "d": 4791.666666666664,
      "v": 44
    },
    {
      "midi": 45,
      "hit": false,
      "t": 60000.00000000001,
      "d": 6791.666666666664,
      "v": 60
    },
    {
      "midi": 48,
      "hit": false,
      "t": 62500.00000000001,
      "d": 3458.3333333333358,
      "v": 49
    },
    {
      "midi": 60,
      "hit": false,
      "t": 62500.00000000001,
      "d": 3541.6666666666642,
      "v": 64
    },
    {
      "midi": 53,
      "hit": false,
      "t": 65000.00000000001,
      "d": 4791.66666666665,
      "v": 44
    },
    {
      "midi": 48,
      "hit": false,
      "t": 66666.66666666667,
      "d": 2520.8333333333285,
      "v": 48
    },
    {
      "midi": 88,
      "hit": false,
      "t": 67416.66666666666,
      "d": 562.5,
      "v": 78
    },
    {
      "midi": 45,
      "hit": false,
      "t": 67500,
      "d": 2208.3333333333285,
      "v": 55
    },
    {
      "midi": 65,
      "hit": false,
      "t": 67500,
      "d": 3562.4999999999854,
      "v": 43
    },
    {
      "midi": 89,
      "hit": false,
      "t": 68145.83333333333,
      "d": 562.5,
      "v": 80
    },
    {
      "midi": 88,
      "hit": false,
      "t": 68770.83333333333,
      "d": 645.8333333333285,
      "v": 68
    },
    {
      "midi": 81,
      "hit": false,
      "t": 69458.33333333333,
      "d": 562.5,
      "v": 81
    },
    {
      "midi": 57,
      "hit": false,
      "t": 69999.99999999999,
      "d": 3770.8333333333285,
      "v": 41
    },
    {
      "midi": 53,
      "hit": false,
      "t": 69999.99999999999,
      "d": 3812.5,
      "v": 45
    },
    {
      "midi": 52,
      "hit": false,
      "t": 69999.99999999999,
      "d": 3895.8333333333285,
      "v": 52
    },
    {
      "midi": 84,
      "hit": false,
      "t": 70020.83333333333,
      "d": 2937.5,
      "v": 82
    },
    {
      "midi": 48,
      "hit": false,
      "t": 71666.66666666666,
      "d": 2374.9999999999854,
      "v": 45
    },
    {
      "midi": 60,
      "hit": false,
      "t": 72499.99999999999,
      "d": 3645.833333333314,
      "v": 52
    },
    {
      "midi": 45,
      "hit": false,
      "t": 72499.99999999999,
      "d": 3916.6666666666424,
      "v": 50
    },
    {
      "midi": 57,
      "hit": false,
      "t": 74999.99999999997,
      "d": 4833.333333333314,
      "v": 52
    },
    {
      "midi": 53,
      "hit": false,
      "t": 74999.99999999997,
      "d": 4958.333333333299,
      "v": 51
    },
    {
      "midi": 48,
      "hit": false,
      "t": 76666.66666666663,
      "d": 2270.8333333333285,
      "v": 52
    },
    {
      "midi": 65,
      "hit": false,
      "t": 77499.99999999996,
      "d": 2354.166666666657,
      "v": 51
    },
    {
      "midi": 45,
      "hit": false,
      "t": 77499.99999999996,
      "d": 2437.4999999999854,
      "v": 44
    },
    {
      "midi": 44,
      "hit": false,
      "t": 79999.99999999994,
      "d": 2500,
      "v": 49
    },
    {
      "midi": 50,
      "hit": false,
      "t": 79999.99999999994,
      "d": 4375,
      "v": 47
    },
    {
      "midi": 53,
      "hit": false,
      "t": 79999.99999999994,
      "d": 4375,
      "v": 47
    },
    {
      "midi": 62,
      "hit": false,
      "t": 82499.99999999994,
      "d": 3687.5,
      "v": 40
    },
    {
      "midi": 47,
      "hit": false,
      "t": 82499.99999999994,
      "d": 5000,
      "v": 51
    },
    {
      "midi": 44,
      "hit": false,
      "t": 84166.66666666661,
      "d": 3083.3333333333285,
      "v": 47
    },
    {
      "midi": 50,
      "hit": false,
      "t": 84999.99999999994,
      "d": 4375,
      "v": 44
    },
    {
      "midi": 53,
      "hit": false,
      "t": 84999.99999999994,
      "d": 4375,
      "v": 44
    },
    {
      "midi": 44,
      "hit": false,
      "t": 87499.99999999994,
      "d": 2000,
      "v": 47
    },
    {
      "midi": 65,
      "hit": false,
      "t": 87499.99999999994,
      "d": 3958.3333333333285,
      "v": 39
    },
    {
      "midi": 44,
      "hit": false,
      "t": 89999.99999999994,
      "d": 3125,
      "v": 42
    },
    {
      "midi": 53,
      "hit": false,
      "t": 89999.99999999994,
      "d": 3354.1666666666715,
      "v": 45
    },
    {
      "midi": 50,
      "hit": false,
      "t": 89999.99999999994,
      "d": 4375,
      "v": 45
    },
    {
      "midi": 62,
      "hit": false,
      "t": 92499.99999999994,
      "d": 2395.8333333333285,
      "v": 42
    },
    {
      "midi": 47,
      "hit": false,
      "t": 92499.99999999994,
      "d": 3125,
      "v": 52
    },
    {
      "midi": 44,
      "hit": false,
      "t": 94166.66666666661,
      "d": 2500,
      "v": 49
    },
    {
      "midi": 53,
      "hit": false,
      "t": 94166.66666666661,
      "d": 4375,
      "v": 43
    },
    {
      "midi": 65,
      "hit": false,
      "t": 94999.99999999994,
      "d": 2375,
      "v": 42
    },
    {
      "midi": 50,
      "hit": false,
      "t": 94999.99999999994,
      "d": 4375,
      "v": 43
    },
    {
      "midi": 62,
      "hit": false,
      "t": 97499.99999999994,
      "d": 2250,
      "v": 42
    },
    {
      "midi": 44,
      "hit": false,
      "t": 97499.99999999994,
      "d": 2500,
      "v": 44
    },
    {
      "midi": 47,
      "hit": false,
      "t": 97499.99999999994,
      "d": 2500,
      "v": 54
    },
    {
      "midi": 88,
      "hit": false,
      "t": 97520.83333333333,
      "d": 708.3333333333285,
      "v": 81
    },
    {
      "midi": 89,
      "hit": false,
      "t": 98083.33333333333,
      "d": 791.666666666657,
      "v": 80
    },
    {
      "midi": 85,
      "hit": false,
      "t": 98749.99999999999,
      "d": 562.5,
      "v": 77
    },
    {
      "midi": 88,
      "hit": false,
      "t": 99374.99999999999,
      "d": 583.3333333333285,
      "v": 65
    },
    {
      "midi": 55,
      "hit": false,
      "t": 99999.99999999994,
      "d": 3895.8333333333285,
      "v": 48
    },
    {
      "midi": 46,
      "hit": false,
      "t": 99999.99999999994,
      "d": 4000,
      "v": 45
    },
    {
      "midi": 50,
      "hit": false,
      "t": 99999.99999999994,
      "d": 4041.6666666666715,
      "v": 48
    },
    {
      "midi": 86,
      "hit": false,
      "t": 100041.66666666664,
      "d": 2854.1666666666715,
      "v": 81
    },
    {
      "midi": 53,
      "hit": false,
      "t": 102499.99999999994,
      "d": 3437.5,
      "v": 46
    },
    {
      "midi": 70,
      "hit": false,
      "t": 102499.99999999994,
      "d": 4125,
      "v": 53
    },
    {
      "midi": 46,
      "hit": false,
      "t": 104999.99999999994,
      "d": 1812.5,
      "v": 49
    },
    {
      "midi": 50,
      "hit": false,
      "t": 104999.99999999994,
      "d": 4354.1666666666715,
      "v": 45
    },
    {
      "midi": 55,
      "hit": false,
      "t": 104999.99999999994,
      "d": 4354.1666666666715,
      "v": 45
    },
    {
      "midi": 46,
      "hit": false,
      "t": 107499.99999999994,
      "d": 2229.1666666666715,
      "v": 43
    },
    {
      "midi": 67,
      "hit": false,
      "t": 107499.99999999994,
      "d": 4833.3333333333285,
      "v": 59
    },
    {
      "midi": 74,
      "hit": false,
      "t": 107604.16666666664,
      "d": 1104.166666666657,
      "v": 75
    },
    {
      "midi": 77,
      "hit": false,
      "t": 108624.99999999997,
      "d": 645.8333333333285,
      "v": 75
    },
    {
      "midi": 74,
      "hit": false,
      "t": 109395.8333333333,
      "d": 645.8333333333285,
      "v": 70
    },
    {
      "midi": 55,
      "hit": false,
      "t": 109999.99999999994,
      "d": 3833.3333333333285,
      "v": 48
    },
    {
      "midi": 50,
      "hit": false,
      "t": 109999.99999999994,
      "d": 4520.8333333333285,
      "v": 48
    },
    {
      "midi": 84,
      "hit": false,
      "t": 110020.8333333333,
      "d": 3979.166666666657,
      "v": 86
    },
    {
      "midi": 53,
      "hit": false,
      "t": 112499.99999999994,
      "d": 1791.666666666657,
      "v": 38
    },
    {
      "midi": 46,
      "hit": false,
      "t": 112499.99999999994,
      "d": 3958.3333333333285,
      "v": 47
    },
    {
      "midi": 70,
      "hit": false,
      "t": 112499.99999999994,
      "d": 4500,
      "v": 44
    },
    {
      "midi": 55,
      "hit": false,
      "t": 114166.6666666666,
      "d": 4770.833333333343,
      "v": 46
    },
    {
      "midi": 50,
      "hit": false,
      "t": 114999.99999999994,
      "d": 4666.6666666666715,
      "v": 46
    },
    {
      "midi": 53,
      "hit": false,
      "t": 114999.99999999994,
      "d": 4812.5,
      "v": 47
    },
    {
      "midi": 67,
      "hit": false,
      "t": 117499.99999999994,
      "d": 2229.1666666666715,
      "v": 52
    },
    {
      "midi": 46,
      "hit": false,
      "t": 117499.99999999994,
      "d": 2333.3333333333285,
      "v": 49
    },
    {
      "midi": 59,
      "hit": false,
      "t": 119999.99999999994,
      "d": 2500,
      "v": 48
    },
    {
      "midi": 50,
      "hit": false,
      "t": 119999.99999999994,
      "d": 4395.8333333333285,
      "v": 48
    },
    {
      "midi": 52,
      "hit": false,
      "t": 119999.99999999994,
      "d": 7062.5,
      "v": 48
    },
    {
      "midi": 74,
      "hit": false,
      "t": 120020.83333333328,
      "d": 4750,
      "v": 68
    },
    {
      "midi": 57,
      "hit": false,
      "t": 122499.99999999994,
      "d": 2000,
      "v": 48
    },
    {
      "midi": 64,
      "hit": false,
      "t": 122499.99999999994,
      "d": 3166.6666666666715,
      "v": 44
    },
    {
      "midi": 43,
      "hit": false,
      "t": 122499.99999999994,
      "d": 3875,
      "v": 46
    },
    {
      "midi": 57,
      "hit": false,
      "t": 124999.99999999994,
      "d": 4083.3333333333285,
      "v": 45
    },
    {
      "midi": 52,
      "hit": false,
      "t": 127499.99999999994,
      "d": 2125,
      "v": 52
    },
    {
      "midi": 43,
      "hit": false,
      "t": 127499.99999999994,
      "d": 6812.5,
      "v": 44
    },
    {
      "midi": 59,
      "hit": false,
      "t": 129999.99999999994,
      "d": 2500,
      "v": 48
    },
    {
      "midi": 57,
      "hit": false,
      "t": 129999.99999999994,
      "d": 4437.5,
      "v": 46
    },
    {
      "midi": 52,
      "hit": false,
      "t": 129999.99999999994,
      "d": 6979.166666666657,
      "v": 46
    },
    {
      "midi": 64,
      "hit": false,
      "t": 132499.99999999994,
      "d": 3833.333333333343,
      "v": 39
    },
    {
      "midi": 50,
      "hit": false,
      "t": 132499.99999999994,
      "d": 4062.5,
      "v": 52
    },
    {
      "midi": 88,
      "hit": false,
      "t": 133312.49999999994,
      "d": 500,
      "v": 62
    },
    {
      "midi": 91,
      "hit": false,
      "t": 133895.83333333328,
      "d": 666.666666666657,
      "v": 69
    },
    {
      "midi": 89,
      "hit": false,
      "t": 134437.49999999994,
      "d": 729.166666666657,
      "v": 74
    },
    {
      "midi": 55,
      "hit": false,
      "t": 134999.99999999994,
      "d": 4770.833333333314,
      "v": 47
    },
    {
      "midi": 59,
      "hit": false,
      "t": 134999.99999999994,
      "d": 5041.666666666628,
      "v": 46
    },
    {
      "midi": 88,
      "hit": false,
      "t": 135104.1666666666,
      "d": 583.333333333343,
      "v": 67
    },
    {
      "midi": 87,
      "hit": false,
      "t": 135729.1666666666,
      "d": 541.666666666657,
      "v": 69
    },
    {
      "midi": 86,
      "hit": false,
      "t": 136395.83333333326,
      "d": 458.33333333334303,
      "v": 66
    },
    {
      "midi": 84,
      "hit": false,
      "t": 136916.6666666666,
      "d": 750,
      "v": 73
    },
    {
      "midi": 43,
      "hit": false,
      "t": 137499.99999999994,
      "d": 2229.166666666657,
      "v": 44
    },
    {
      "midi": 52,
      "hit": false,
      "t": 137499.99999999994,
      "d": 2291.666666666657,
      "v": 44
    },
    {
      "midi": 64,
      "hit": false,
      "t": 137499.99999999994,
      "d": 2333.333333333314,
      "v": 41
    },
    {
      "midi": 50,
      "hit": false,
      "t": 137499.99999999994,
      "d": 2374.999999999971,
      "v": 44
    },
    {
      "midi": 83,
      "hit": false,
      "t": 137604.1666666666,
      "d": 1333.333333333343,
      "v": 76
    },
    {
      "midi": 79,
      "hit": false,
      "t": 138416.6666666666,
      "d": 770.833333333343,
      "v": 72
    },
    {
      "midi": 86,
      "hit": false,
      "t": 139312.49999999994,
      "d": 750,
      "v": 70
    },
    {
      "midi": 63,
      "hit": false,
      "t": 139999.9999999999,
      "d": 3583.333333333343,
      "v": 51
    },
    {
      "midi": 48,
      "hit": false,
      "t": 139999.9999999999,
      "d": 4520.833333333343,
      "v": 48
    },
    {
      "midi": 55,
      "hit": false,
      "t": 139999.9999999999,
      "d": 4541.666666666686,
      "v": 48
    },
    {
      "midi": 58,
      "hit": false,
      "t": 139999.9999999999,
      "d": 5041.666666666686,
      "v": 46
    },
    {
      "midi": 84,
      "hit": false,
      "t": 140020.83333333328,
      "d": 2083.333333333314,
      "v": 77
    },
    {
      "midi": 51,
      "hit": false,
      "t": 142499.9999999999,
      "d": 2166.666666666686,
      "v": 38
    },
    {
      "midi": 46,
      "hit": false,
      "t": 142499.9999999999,
      "d": 3958.333333333343,
      "v": 47
    },
    {
      "midi": 51,
      "hit": false,
      "t": 144999.99999999994,
      "d": 1562.499999999971,
      "v": 47
    },
    {
      "midi": 63,
      "hit": false,
      "t": 144999.99999999994,
      "d": 2499.999999999971,
      "v": 53
    },
    {
      "midi": 48,
      "hit": false,
      "t": 144999.99999999994,
      "d": 4666.666666666628,
      "v": 46
    },
    {
      "midi": 55,
      "hit": false,
      "t": 144999.99999999994,
      "d": 4770.833333333314,
      "v": 46
    },
    {
      "midi": 51,
      "hit": false,
      "t": 146666.66666666657,
      "d": 2812.5,
      "v": 47
    },
    {
      "midi": 70,
      "hit": false,
      "t": 147499.9999999999,
      "d": 2187.5,
      "v": 50
    },
    {
      "midi": 46,
      "hit": false,
      "t": 147499.9999999999,
      "d": 2333.333333333343,
      "v": 49
    },
    {
      "midi": 66,
      "hit": false,
      "t": 149999.9999999999,
      "d": 2041.666666666657,
      "v": 49
    },
    {
      "midi": 51,
      "hit": false,
      "t": 149999.9999999999,
      "d": 2166.666666666657,
      "v": 38
    },
    {
      "midi": 46,
      "hit": false,
      "t": 149999.9999999999,
      "d": 2354.166666666657,
      "v": 48
    },
    {
      "midi": 54,
      "hit": false,
      "t": 149999.9999999999,
      "d": 4541.666666666657,
      "v": 48
    },
    {
      "midi": 72,
      "hit": false,
      "t": 151666.6666666666,
      "d": 916.6666666666861,
      "v": 57
    },
    {
      "midi": 51,
      "hit": false,
      "t": 152499.9999999999,
      "d": 1312.5,
      "v": 38
    },
    {
      "midi": 46,
      "hit": false,
      "t": 152499.9999999999,
      "d": 2229.166666666657,
      "v": 47
    },
    {
      "midi": 63,
      "hit": false,
      "t": 152499.9999999999,
      "d": 2416.666666666657,
      "v": 40
    },
    {
      "midi": 70,
      "hit": false,
      "t": 152499.99999999994,
      "d": 1541.666666666686,
      "v": 71
    },
    {
      "midi": 51,
      "hit": false,
      "t": 154166.66666666657,
      "d": 4812.5,
      "v": 47
    },
    {
      "midi": 46,
      "hit": false,
      "t": 154999.9999999999,
      "d": 2104.166666666657,
      "v": 46
    },
    {
      "midi": 54,
      "hit": false,
      "t": 154999.9999999999,
      "d": 2291.666666666657,
      "v": 46
    },
    {
      "midi": 70,
      "hit": false,
      "t": 154999.9999999999,
      "d": 4729.166666666657,
      "v": 44
    },
    {
      "midi": 70,
      "hit": false,
      "t": 154999.99999999997,
      "d": 4375,
      "v": 58
    },
    {
      "midi": 46,
      "hit": false,
      "t": 157499.9999999999,
      "d": 2333.333333333314,
      "v": 49
    },
    {
      "midi": 54,
      "hit": false,
      "t": 157541.66666666657,
      "d": 2291.666666666657,
      "v": 46
    },
    {
      "midi": 50,
      "hit": false,
      "t": 159999.99999999988,
      "d": 2166.666666666657,
      "v": 38
    },
    {
      "midi": 46,
      "hit": false,
      "t": 159999.99999999988,
      "d": 2354.166666666657,
      "v": 48
    },
    {
      "midi": 53,
      "hit": false,
      "t": 159999.99999999988,
      "d": 4541.666666666657,
      "v": 48
    },
    {
      "midi": 62,
      "hit": false,
      "t": 159999.99999999997,
      "d": 2375,
      "v": 61
    },
    {
      "midi": 65,
      "hit": false,
      "t": 159999.99999999997,
      "d": 2375,
      "v": 61
    },
    {
      "midi": 50,
      "hit": false,
      "t": 162499.99999999988,
      "d": 2166.666666666657,
      "v": 38
    },
    {
      "midi": 46,
      "hit": false,
      "t": 162499.99999999988,
      "d": 2229.166666666657,
      "v": 47
    },
    {
      "midi": 65,
      "hit": false,
      "t": 162499.99999999988,
      "d": 7270.833333333343,
      "v": 44
    },
    {
      "midi": 65,
      "hit": false,
      "t": 163333.3333333333,
      "d": 979.1666666666861,
      "v": 51
    },
    {
      "midi": 69,
      "hit": false,
      "t": 164166.66666666666,
      "d": 833.333333333343,
      "v": 63
    },
    {
      "midi": 56,
      "hit": false,
      "t": 164999.99999999988,
      "d": 1375,
      "v": 39
    },
    {
      "midi": 68,
      "hit": false,
      "t": 164999.99999999988,
      "d": 1687.5,
      "v": 39
    },
    {
      "midi": 46,
      "hit": false,
      "t": 164999.99999999988,
      "d": 2104.166666666657,
      "v": 46
    },
    {
      "midi": 53,
      "hit": false,
      "t": 164999.99999999988,
      "d": 2291.666666666657,
      "v": 46
    },
    {
      "midi": 50,
      "hit": false,
      "t": 164999.99999999988,
      "d": 4812.500000000029,
      "v": 47
    },
    {
      "midi": 72,
      "hit": false,
      "t": 165000,
      "d": 3229.166666666657,
      "v": 64
    },
    {
      "midi": 56,
      "hit": false,
      "t": 166666.66666666654,
      "d": 2333.333333333343,
      "v": 52
    },
    {
      "midi": 65,
      "hit": false,
      "t": 166666.66666666666,
      "d": 2250,
      "v": 60
    },
    {
      "midi": 68,
      "hit": false,
      "t": 167499.99999999988,
      "d": 2083.333333333343,
      "v": 51
    },
    {
      "midi": 53,
      "hit": false,
      "t": 167499.99999999988,
      "d": 2291.666666666686,
      "v": 46
    },
    {
      "midi": 46,
      "hit": false,
      "t": 167499.99999999988,
      "d": 2333.333333333372,
      "v": 49
    },
    {
      "midi": 89,
      "hit": false,
      "t": 169166.66666666666,
      "d": 937.5,
      "v": 69
    },
    {
      "midi": 50,
      "hit": false,
      "t": 169999.9999999999,
      "d": 2166.666666666657,
      "v": 38
    },
    {
      "midi": 47,
      "hit": false,
      "t": 169999.9999999999,
      "d": 2354.166666666657,
      "v": 48
    },
    {
      "midi": 55,
      "hit": false,
      "t": 169999.9999999999,
      "d": 4541.666666666657,
      "v": 48
    },
    {
      "midi": 86,
      "hit": false,
      "t": 170000,
      "d": 3354.166666666657,
      "v": 66
    },
    {
      "midi": 71,
      "hit": false,
      "t": 171666.66666666666,
      "d": 3562.5,
      "v": 55
    },
    {
      "midi": 50,
      "hit": false,
      "t": 172499.9999999999,
      "d": 2166.666666666657,
      "v": 38
    },
    {
      "midi": 71,
      "hit": false,
      "t": 172499.9999999999,
      "d": 2583.333333333343,
      "v": 48
    },
    {
      "midi": 47,
      "hit": false,
      "t": 172499.9999999999,
      "d": 4562.5,
      "v": 47
    },
    {
      "midi": 55,
      "hit": false,
      "t": 174999.9999999999,
      "d": 2291.666666666657,
      "v": 39
    },
    {
      "midi": 62,
      "hit": false,
      "t": 174999.9999999999,
      "d": 2541.666666666657,
      "v": 40
    },
    {
      "midi": 50,
      "hit": false,
      "t": 174999.9999999999,
      "d": 4812.5,
      "v": 47
    },
    {
      "midi": 53,
      "hit": false,
      "t": 177499.9999999999,
      "d": 2291.666666666657,
      "v": 41
    },
    {
      "midi": 71,
      "hit": false,
      "t": 177499.9999999999,
      "d": 2291.666666666657,
      "v": 47
    },
    {
      "midi": 47,
      "hit": false,
      "t": 177499.9999999999,
      "d": 2333.333333333343,
      "v": 49
    },
    {
      "midi": 55,
      "hit": false,
      "t": 177499.9999999999,
      "d": 2333.333333333343,
      "v": 48
    },
    {
      "midi": 86,
      "hit": false,
      "t": 178145.8333333333,
      "d": 729.166666666657,
      "v": 74
    },
    {
      "midi": 79,
      "hit": false,
      "t": 179020.8333333333,
      "d": 2833.333333333314,
      "v": 68
    },
    {
      "midi": 86,
      "hit": false,
      "t": 179937.49999999997,
      "d": 708.333333333343,
      "v": 78
    },
    {
      "midi": 46,
      "hit": false,
      "t": 179999.9999999999,
      "d": 4104.166666666657,
      "v": 47
    },
    {
      "midi": 50,
      "hit": false,
      "t": 179999.9999999999,
      "d": 4375,
      "v": 38
    },
    {
      "midi": 55,
      "hit": false,
      "t": 179999.9999999999,
      "d": 4541.666666666657,
      "v": 48
    },
    {
      "midi": 88,
      "hit": false,
      "t": 180520.8333333333,
      "d": 729.166666666657,
      "v": 68
    },
    {
      "midi": 84,
      "hit": false,
      "t": 181083.3333333333,
      "d": 2562.499999999971,
      "v": 75
    },
    {
      "midi": 52,
      "hit": false,
      "t": 182499.9999999999,
      "d": 2166.666666666657,
      "v": 38
    },
    {
      "midi": 70,
      "hit": false,
      "t": 182499.9999999999,
      "d": 2229.166666666657,
      "v": 41
    },
    {
      "midi": 48,
      "hit": false,
      "t": 182499.9999999999,
      "d": 2291.666666666657,
      "v": 48
    },
    {
      "midi": 62,
      "hit": false,
      "t": 184999.9999999999,
      "d": 2625,
      "v": 36
    },
    {
      "midi": 48,
      "hit": false,
      "t": 184999.9999999999,
      "d": 4666.666666666657,
      "v": 46
    },
    {
      "midi": 55,
      "hit": false,
      "t": 184999.9999999999,
      "d": 4770.833333333314,
      "v": 46
    },
    {
      "midi": 52,
      "hit": false,
      "t": 184999.9999999999,
      "d": 4812.499999999971,
      "v": 47
    },
    {
      "midi": 50,
      "hit": false,
      "t": 186666.66666666657,
      "d": 4166.666666666657,
      "v": 38
    },
    {
      "midi": 46,
      "hit": false,
      "t": 187499.9999999999,
      "d": 2333.333333333314,
      "v": 49
    },
    {
      "midi": 70,
      "hit": false,
      "t": 187499.9999999999,
      "d": 2333.333333333314,
      "v": 40
    },
    {
      "midi": 72,
      "hit": false,
      "t": 188770.83333333328,
      "d": 666.666666666657,
      "v": 63
    },
    {
      "midi": 74,
      "hit": false,
      "t": 189437.49999999994,
      "d": 604.166666666657,
      "v": 74
    },
    {
      "midi": 52,
      "hit": false,
      "t": 189999.99999999988,
      "d": 2166.666666666686,
      "v": 38
    },
    {
      "midi": 46,
      "hit": false,
      "t": 189999.99999999988,
      "d": 4104.166666666686,
      "v": 48
    },
    {
      "midi": 55,
      "hit": false,
      "t": 189999.99999999988,
      "d": 4541.666666666686,
      "v": 48
    },
    {
      "midi": 72,
      "hit": false,
      "t": 190083.33333333326,
      "d": 2458.333333333343,
      "v": 73
    },
    {
      "midi": 48,
      "hit": false,
      "t": 192499.9999999999,
      "d": 2229.166666666657,
      "v": 47
    },
    {
      "midi": 70,
      "hit": false,
      "t": 192499.9999999999,
      "d": 2375,
      "v": 55
    },
    {
      "midi": 52,
      "hit": false,
      "t": 192499.9999999999,
      "d": 4916.666666666657,
      "v": 38
    },
    {
      "midi": 46,
      "hit": false,
      "t": 194999.9999999999,
      "d": 2104.166666666657,
      "v": 46
    },
    {
      "midi": 55,
      "hit": false,
      "t": 194999.9999999999,
      "d": 2291.666666666657,
      "v": 46
    },
    {
      "midi": 62,
      "hit": false,
      "t": 194999.9999999999,
      "d": 2395.833333333314,
      "v": 36
    },
    {
      "midi": 50,
      "hit": false,
      "t": 194999.9999999999,
      "d": 4812.5,
      "v": 47
    },
    {
      "midi": 74,
      "hit": false,
      "t": 194999.99999999994,
      "d": 2458.333333333343,
      "v": 65
    },
    {
      "midi": 55,
      "hit": false,
      "t": 197499.9999999999,
      "d": 2291.666666666657,
      "v": 46
    },
    {
      "midi": 47,
      "hit": false,
      "t": 197499.9999999999,
      "d": 2333.333333333343,
      "v": 49
    },
    {
      "midi": 67,
      "hit": false,
      "t": 197499.9999999999,
      "d": 2375,
      "v": 53
    },
    {
      "midi": 75,
      "hit": false,
      "t": 197499.99999999994,
      "d": 2583.333333333343,
      "v": 74
    },
    {
      "midi": 48,
      "hit": false,
      "t": 199999.9999999999,
      "d": 2270.833333333343,
      "v": 38
    },
    {
      "midi": 46,
      "hit": false,
      "t": 199999.9999999999,
      "d": 4104.166666666657,
      "v": 47
    },
    {
      "midi": 55,
      "hit": false,
      "t": 199999.9999999999,
      "d": 4541.666666666657,
      "v": 48
    },
    {
      "midi": 70,
      "hit": false,
      "t": 199999.99999999994,
      "d": 4041.666666666686,
      "v": 65
    },
    {
      "midi": 76,
      "hit": false,
      "t": 199999.99999999994,
      "d": 4291.666666666686,
      "v": 70
    },
    {
      "midi": 52,
      "hit": false,
      "t": 202499.9999999999,
      "d": 2166.666666666657,
      "v": 38
    },
    {
      "midi": 48,
      "hit": false,
      "t": 202499.9999999999,
      "d": 2291.666666666657,
      "v": 48
    },
    {
      "midi": 70,
      "hit": false,
      "t": 202499.9999999999,
      "d": 2979.166666666657,
      "v": 42
    },
    {
      "midi": 48,
      "hit": false,
      "t": 204999.9999999999,
      "d": 4666.666666666657,
      "v": 46
    },
    {
      "midi": 55,
      "hit": false,
      "t": 204999.9999999999,
      "d": 4770.833333333314,
      "v": 46
    },
    {
      "midi": 52,
      "hit": false,
      "t": 204999.9999999999,
      "d": 4812.499999999971,
      "v": 47
    },
    {
      "midi": 70,
      "hit": false,
      "t": 207499.9999999999,
      "d": 2104.166666666657,
      "v": 51
    },
    {
      "midi": 46,
      "hit": false,
      "t": 207499.9999999999,
      "d": 2333.333333333314,
      "v": 49
    },
    {
      "midi": 53,
      "hit": false,
      "t": 209999.99999999988,
      "d": 2166.666666666657,
      "v": 38
    },
    {
      "midi": 56,
      "hit": false,
      "t": 209999.99999999988,
      "d": 3875,
      "v": 48
    },
    {
      "midi": 71,
      "hit": false,
      "t": 209999.99999999988,
      "d": 3895.833333333343,
      "v": 54
    },
    {
      "midi": 47,
      "hit": false,
      "t": 209999.99999999988,
      "d": 4104.166666666686,
      "v": 48
    },
    {
      "midi": 68,
      "hit": false,
      "t": 209999.99999999997,
      "d": 2458.333333333343,
      "v": 54
    },
    {
      "midi": 49,
      "hit": false,
      "t": 212499.99999999988,
      "d": 2229.166666666686,
      "v": 47
    },
    {
      "midi": 53,
      "hit": false,
      "t": 212499.99999999988,
      "d": 4916.666666666686,
      "v": 38
    },
    {
      "midi": 65,
      "hit": false,
      "t": 212499.99999999997,
      "d": 4500,
      "v": 60
    },
    {
      "midi": 56,
      "hit": false,
      "t": 214166.66666666657,
      "d": 2750,
      "v": 46
    },
    {
      "midi": 47,
      "hit": false,
      "t": 214999.9999999999,
      "d": 2104.166666666657,
      "v": 46
    },
    {
      "midi": 49,
      "hit": false,
      "t": 214999.9999999999,
      "d": 2375,
      "v": 47
    },
    {
      "midi": 52,
      "hit": false,
      "t": 217499.9999999999,
      "d": 2333.333333333343,
      "v": 49
    },
    {
      "midi": 55,
      "hit": false,
      "t": 217499.9999999999,
      "d": 2437.5,
      "v": 42
    },
    {
      "midi": 67,
      "hit": false,
      "t": 217499.99999999997,
      "d": 1979.166666666657,
      "v": 63
    },
    {
      "midi": 72,
      "hit": false,
      "t": 217499.99999999997,
      "d": 2083.333333333314,
      "v": 63
    },
    {
      "midi": 70,
      "hit": false,
      "t": 217541.66666666657,
      "d": 2270.833333333343,
      "v": 53
    },
    {
      "midi": 48,
      "hit": false,
      "t": 219999.9999999999,
      "d": 2145.833333333343,
      "v": 52
    },
    {
      "midi": 53,
      "hit": false,
      "t": 219999.9999999999,
      "d": 4791.666666666657,
      "v": 44
    },
    {
      "midi": 45,
      "hit": false,
      "t": 219999.9999999999,
      "d": 6791.666666666686,
      "v": 60
    },
    {
      "midi": 69,
      "hit": false,
      "t": 219999.99999999994,
      "d": 6729.166666666657,
      "v": 63
    },
    {
      "midi": 72,
      "hit": false,
      "t": 219999.99999999994,
      "d": 6791.666666666657,
      "v": 63
    },
    {
      "midi": 48,
      "hit": false,
      "t": 222499.9999999999,
      "d": 3458.333333333343,
      "v": 49
    },
    {
      "midi": 60,
      "hit": false,
      "t": 222499.9999999999,
      "d": 3541.666666666686,
      "v": 64
    },
    {
      "midi": 53,
      "hit": false,
      "t": 224999.9999999999,
      "d": 4791.666666666715,
      "v": 44
    },
    {
      "midi": 48,
      "hit": false,
      "t": 226666.6666666666,
      "d": 2520.833333333343,
      "v": 48
    },
    {
      "midi": 45,
      "hit": false,
      "t": 227499.99999999994,
      "d": 2208.333333333343,
      "v": 55
    },
    {
      "midi": 65,
      "hit": false,
      "t": 227499.99999999994,
      "d": 3562.500000000029,
      "v": 43
    },
    {
      "midi": 88,
      "hit": false,
      "t": 227499.99999999994,
      "d": 562.5,
      "v": 67
    },
    {
      "midi": 60,
      "hit": false,
      "t": 227499.99999999994,
      "d": 895.833333333343,
      "v": 52
    },
    {
      "midi": 57,
      "hit": false,
      "t": 227499.99999999994,
      "d": 3520.833333333343,
      "v": 48
    },
    {
      "midi": 89,
      "hit": false,
      "t": 228145.83333333328,
      "d": 562.5,
      "v": 54
    },
    {
      "midi": 88,
      "hit": false,
      "t": 228749.99999999994,
      "d": 645.833333333343,
      "v": 68
    },
    {
      "midi": 60,
      "hit": false,
      "t": 228749.99999999994,
      "d": 875,
      "v": 46
    },
    {
      "midi": 81,
      "hit": false,
      "t": 229458.33333333328,
      "d": 562.5,
      "v": 54
    },
    {
      "midi": 60,
      "hit": false,
      "t": 229999.99999999994,
      "d": 1562.5,
      "v": 51
    },
    {
      "midi": 57,
      "hit": false,
      "t": 229999.99999999997,
      "d": 3770.833333333343,
      "v": 41
    },
    {
      "midi": 53,
      "hit": false,
      "t": 229999.99999999997,
      "d": 3812.5,
      "v": 45
    },
    {
      "midi": 52,
      "hit": false,
      "t": 229999.99999999997,
      "d": 3895.833333333343,
      "v": 52
    },
    {
      "midi": 84,
      "hit": false,
      "t": 230020.83333333328,
      "d": 2937.5,
      "v": 72
    },
    {
      "midi": 48,
      "hit": false,
      "t": 231666.66666666663,
      "d": 2375.000000000029,
      "v": 45
    },
    {
      "midi": 57,
      "hit": false,
      "t": 232499.99999999994,
      "d": 4833.333333333343,
      "v": 52
    },
    {
      "midi": 60,
      "hit": false,
      "t": 232499.99999999997,
      "d": 3645.833333333372,
      "v": 52
    },
    {
      "midi": 45,
      "hit": false,
      "t": 232499.99999999997,
      "d": 3916.666666666715,
      "v": 50
    },
    {
      "midi": 60,
      "hit": false,
      "t": 232520.83333333328,
      "d": 4770.833333333343,
      "v": 52
    },
    {
      "midi": 57,
      "hit": false,
      "t": 235000,
      "d": 4833.333333333372,
      "v": 52
    },
    {
      "midi": 53,
      "hit": false,
      "t": 235000,
      "d": 4958.333333333401,
      "v": 51
    },
    {
      "midi": 48,
      "hit": false,
      "t": 236666.6666666667,
      "d": 2270.833333333343,
      "v": 52
    },
    {
      "midi": 65,
      "hit": false,
      "t": 237500.00000000003,
      "d": 2354.166666666686,
      "v": 51
    },
    {
      "midi": 45,
      "hit": false,
      "t": 237500.00000000003,
      "d": 2437.500000000029,
      "v": 44
    },
    {
      "midi": 44,
      "hit": false,
      "t": 240000.00000000006,
      "d": 2500,
      "v": 49
    },
    {
      "midi": 50,
      "hit": false,
      "t": 240000.00000000006,
      "d": 4375,
      "v": 47
    },
    {
      "midi": 53,
      "hit": false,
      "t": 240000.00000000006,
      "d": 4375,
      "v": 47
    },
    {
      "midi": 59,
      "hit": false,
      "t": 242499.99999999994,
      "d": 1791.666666666657,
      "v": 56
    },
    {
      "midi": 62,
      "hit": false,
      "t": 242500.00000000006,
      "d": 3687.5,
      "v": 40
    },
    {
      "midi": 47,
      "hit": false,
      "t": 242500.00000000006,
      "d": 5000,
      "v": 51
    },
    {
      "midi": 62,
      "hit": false,
      "t": 243749.99999999994,
      "d": 1812.5,
      "v": 45
    },
    {
      "midi": 44,
      "hit": false,
      "t": 244166.66666666672,
      "d": 3083.333333333343,
      "v": 47
    },
    {
      "midi": 59,
      "hit": false,
      "t": 244999.99999999994,
      "d": 4833.333333333343,
      "v": 58
    },
    {
      "midi": 50,
      "hit": false,
      "t": 245000.00000000006,
      "d": 4375,
      "v": 44
    },
    {
      "midi": 53,
      "hit": false,
      "t": 245000.00000000006,
      "d": 4375,
      "v": 44
    },
    {
      "midi": 62,
      "hit": false,
      "t": 246249.99999999994,
      "d": 3062.5,
      "v": 54
    },
    {
      "midi": 44,
      "hit": false,
      "t": 247500.00000000006,
      "d": 2000,
      "v": 47
    },
    {
      "midi": 65,
      "hit": false,
      "t": 247500.00000000006,
      "d": 3958.333333333343,
      "v": 39
    },
    {
      "midi": 44,
      "hit": false,
      "t": 250000.00000000006,
      "d": 3125,
      "v": 42
    },
    {
      "midi": 53,
      "hit": false,
      "t": 250000.00000000006,
      "d": 3354.166666666657,
      "v": 45
    },
    {
      "midi": 50,
      "hit": false,
      "t": 250000.00000000006,
      "d": 4375,
      "v": 45
    },
    {
      "midi": 71,
      "hit": false,
      "t": 251249.99999999994,
      "d": 1104.166666666657,
      "v": 52
    },
    {
      "midi": 68,
      "hit": false,
      "t": 252499.99999999994,
      "d": 1083.333333333343,
      "v": 60
    },
    {
      "midi": 62,
      "hit": false,
      "t": 252500.00000000006,
      "d": 2395.833333333343,
      "v": 42
    },
    {
      "midi": 47,
      "hit": false,
      "t": 252500.00000000006,
      "d": 3125,
      "v": 52
    },
    {
      "midi": 71,
      "hit": false,
      "t": 253749.99999999994,
      "d": 1270.833333333343,
      "v": 56
    },
    {
      "midi": 44,
      "hit": false,
      "t": 254166.66666666672,
      "d": 2500,
      "v": 49
    },
    {
      "midi": 53,
      "hit": false,
      "t": 254166.66666666672,
      "d": 4375,
      "v": 43
    },
    {
      "midi": 68,
      "hit": false,
      "t": 254999.99999999994,
      "d": 1895.833333333343,
      "v": 57
    },
    {
      "midi": 65,
      "hit": false,
      "t": 255000.00000000006,
      "d": 2375,
      "v": 42
    },
    {
      "midi": 50,
      "hit": false,
      "t": 255000.00000000006,
      "d": 4375,
      "v": 43
    },
    {
      "midi": 62,
      "hit": false,
      "t": 257500.00000000006,
      "d": 2250,
      "v": 42
    },
    {
      "midi": 44,
      "hit": false,
      "t": 257500.00000000006,
      "d": 2500,
      "v": 44
    },
    {
      "midi": 47,
      "hit": false,
      "t": 257500.00000000006,
      "d": 2500,
      "v": 54
    },
    {
      "midi": 88,
      "hit": false,
      "t": 257520.83333333328,
      "d": 708.333333333343,
      "v": 68
    },
    {
      "midi": 89,
      "hit": false,
      "t": 258083.33333333328,
      "d": 791.6666666666861,
      "v": 66
    },
    {
      "midi": 85,
      "hit": false,
      "t": 258749.99999999997,
      "d": 562.5,
      "v": 77
    },
    {
      "midi": 88,
      "hit": false,
      "t": 259374.99999999997,
      "d": 583.333333333343,
      "v": 65
    },
    {
      "midi": 55,
      "hit": false,
      "t": 260000.00000000006,
      "d": 3895.833333333314,
      "v": 48
    },
    {
      "midi": 46,
      "hit": false,
      "t": 260000.00000000006,
      "d": 4000,
      "v": 45
    },
    {
      "midi": 50,
      "hit": false,
      "t": 260000.00000000006,
      "d": 4041.666666666686,
      "v": 48
    },
    {
      "midi": 86,
      "hit": false,
      "t": 260041.66666666666,
      "d": 2854.166666666657,
      "v": 69
    },
    {
      "midi": 53,
      "hit": false,
      "t": 262500.00000000006,
      "d": 3437.5,
      "v": 46
    },
    {
      "midi": 70,
      "hit": false,
      "t": 262500.00000000006,
      "d": 4125,
      "v": 53
    },
    {
      "midi": 46,
      "hit": false,
      "t": 263750,
      "d": 5083.333333333314,
      "v": 49
    },
    {
      "midi": 65,
      "hit": false,
      "t": 265000,
      "d": 916.6666666666861,
      "v": 58
    },
    {
      "midi": 46,
      "hit": false,
      "t": 265000.00000000006,
      "d": 1812.5,
      "v": 49
    },
    {
      "midi": 50,
      "hit": false,
      "t": 265000.00000000006,
      "d": 4354.166666666686,
      "v": 45
    },
    {
      "midi": 55,
      "hit": false,
      "t": 265000.00000000006,
      "d": 4354.166666666686,
      "v": 45
    },
    {
      "midi": 67,
      "hit": false,
      "t": 266250,
      "d": 750,
      "v": 62
    },
    {
      "midi": 67,
      "hit": false,
      "t": 267500,
      "d": 833.3333333333139,
      "v": 64
    },
    {
      "midi": 46,
      "hit": false,
      "t": 267500.00000000006,
      "d": 2229.166666666686,
      "v": 43
    },
    {
      "midi": 67,
      "hit": false,
      "t": 267500.00000000006,
      "d": 4833.333333333314,
      "v": 59
    },
    {
      "midi": 69,
      "hit": false,
      "t": 268750,
      "d": 729.1666666666279,
      "v": 69
    },
    {
      "midi": 69,
      "hit": false,
      "t": 269999.99999999994,
      "d": 4604.166666666686,
      "v": 62
    },
    {
      "midi": 55,
      "hit": false,
      "t": 270000.00000000006,
      "d": 3833.333333333314,
      "v": 48
    },
    {
      "midi": 50,
      "hit": false,
      "t": 270000.00000000006,
      "d": 4520.833333333314,
      "v": 48
    },
    {
      "midi": 46,
      "hit": false,
      "t": 271249.99999999994,
      "d": 5166.666666666686,
      "v": 51
    },
    {
      "midi": 53,
      "hit": false,
      "t": 272500.00000000006,
      "d": 1791.6666666666279,
      "v": 38
    },
    {
      "midi": 46,
      "hit": false,
      "t": 272500.00000000006,
      "d": 3958.333333333314,
      "v": 47
    },
    {
      "midi": 70,
      "hit": false,
      "t": 272500.00000000006,
      "d": 4500,
      "v": 44
    },
    {
      "midi": 55,
      "hit": false,
      "t": 274166.6666666667,
      "d": 4770.833333333372,
      "v": 46
    },
    {
      "midi": 62,
      "hit": false,
      "t": 274999.99999999994,
      "d": 2395.833333333372,
      "v": 57
    },
    {
      "midi": 50,
      "hit": false,
      "t": 275000.00000000006,
      "d": 4666.666666666686,
      "v": 46
    },
    {
      "midi": 53,
      "hit": false,
      "t": 275000.00000000006,
      "d": 4812.5,
      "v": 47
    },
    {
      "midi": 60,
      "hit": false,
      "t": 277500,
      "d": 2437.5,
      "v": 54
    },
    {
      "midi": 67,
      "hit": false,
      "t": 277500.00000000006,
      "d": 2229.166666666686,
      "v": 52
    },
    {
      "midi": 46,
      "hit": false,
      "t": 277500.00000000006,
      "d": 2333.333333333314,
      "v": 49
    },
    {
      "midi": 59,
      "hit": false,
      "t": 280000,
      "d": 3500,
      "v": 54
    },
    {
      "midi": 74,
      "hit": false,
      "t": 280000,
      "d": 4750,
      "v": 54
    },
    {
      "midi": 59,
      "hit": false,
      "t": 280000.00000000006,
      "d": 2500,
      "v": 48
    },
    {
      "midi": 50,
      "hit": false,
      "t": 280000.00000000006,
      "d": 4395.833333333314,
      "v": 48
    },
    {
      "midi": 52,
      "hit": false,
      "t": 280000.00000000006,
      "d": 7062.5,
      "v": 48
    },
    {
      "midi": 57,
      "hit": false,
      "t": 282500.00000000006,
      "d": 2000,
      "v": 48
    },
    {
      "midi": 64,
      "hit": false,
      "t": 282500.00000000006,
      "d": 3166.666666666686,
      "v": 44
    },
    {
      "midi": 43,
      "hit": false,
      "t": 282500.00000000006,
      "d": 3875,
      "v": 46
    },
    {
      "midi": 57,
      "hit": false,
      "t": 285000,
      "d": 4583.333333333314,
      "v": 50
    },
    {
      "midi": 64,
      "hit": false,
      "t": 285000,
      "d": 4583.333333333314,
      "v": 49
    },
    {
      "midi": 57,
      "hit": false,
      "t": 285000.00000000006,
      "d": 4083.333333333314,
      "v": 45
    },
    {
      "midi": 52,
      "hit": false,
      "t": 287500.00000000006,
      "d": 2125,
      "v": 52
    },
    {
      "midi": 43,
      "hit": false,
      "t": 287500.00000000006,
      "d": 6812.5,
      "v": 44
    },
    {
      "midi": 59,
      "hit": false,
      "t": 290000.00000000006,
      "d": 2500,
      "v": 48
    },
    {
      "midi": 57,
      "hit": false,
      "t": 290000.00000000006,
      "d": 4437.5,
      "v": 46
    },
    {
      "midi": 52,
      "hit": false,
      "t": 290000.00000000006,
      "d": 6979.166666666686,
      "v": 46
    },
    {
      "midi": 64,
      "hit": false,
      "t": 292500.00000000006,
      "d": 3833.333333333314,
      "v": 39
    },
    {
      "midi": 50,
      "hit": false,
      "t": 292500.00000000006,
      "d": 4062.5,
      "v": 52
    },
    {
      "midi": 88,
      "hit": false,
      "t": 293312.5,
      "d": 500,
      "v": 62
    },
    {
      "midi": 91,
      "hit": false,
      "t": 293895.8333333333,
      "d": 666.6666666666861,
      "v": 69
    },
    {
      "midi": 89,
      "hit": false,
      "t": 294437.5,
      "d": 729.1666666666861,
      "v": 74
    },
    {
      "midi": 55,
      "hit": false,
      "t": 295000.00000000006,
      "d": 4770.833333333372,
      "v": 47
    },
    {
      "midi": 59,
      "hit": false,
      "t": 295000.00000000006,
      "d": 5041.666666666744,
      "v": 46
    },
    {
      "midi": 88,
      "hit": false,
      "t": 295104.1666666667,
      "d": 583.3333333333139,
      "v": 67
    },
    {
      "midi": 87,
      "hit": false,
      "t": 295729.1666666667,
      "d": 541.6666666666861,
      "v": 69
    },
    {
      "midi": 86,
      "hit": false,
      "t": 296395.8333333334,
      "d": 458.33333333331393,
      "v": 66
    },
    {
      "midi": 84,
      "hit": false,
      "t": 296916.6666666667,
      "d": 750,
      "v": 73
    },
    {
      "midi": 43,
      "hit": false,
      "t": 297500.00000000006,
      "d": 2229.166666666686,
      "v": 44
    },
    {
      "midi": 52,
      "hit": false,
      "t": 297500.00000000006,
      "d": 2291.666666666686,
      "v": 44
    },
    {
      "midi": 64,
      "hit": false,
      "t": 297500.00000000006,
      "d": 2333.333333333372,
      "v": 41
    },
    {
      "midi": 50,
      "hit": false,
      "t": 297500.00000000006,
      "d": 2375.000000000058,
      "v": 44
    },
    {
      "midi": 83,
      "hit": false,
      "t": 297604.1666666667,
      "d": 1333.333333333314,
      "v": 76
    },
    {
      "midi": 79,
      "hit": false,
      "t": 298416.6666666667,
      "d": 770.8333333333139,
      "v": 72
    },
    {
      "midi": 86,
      "hit": false,
      "t": 299312.5,
      "d": 750,
      "v": 70
    },
    {
      "midi": 63,
      "hit": false,
      "t": 300000.0000000001,
      "d": 3583.333333333314,
      "v": 51
    },
    {
      "midi": 48,
      "hit": false,
      "t": 300000.0000000001,
      "d": 4520.833333333314,
      "v": 48
    },
    {
      "midi": 55,
      "hit": false,
      "t": 300000.0000000001,
      "d": 4541.666666666628,
      "v": 48
    },
    {
      "midi": 58,
      "hit": false,
      "t": 300000.0000000001,
      "d": 5041.666666666628,
      "v": 46
    },
    {
      "midi": 84,
      "hit": false,
      "t": 300020.8333333333,
      "d": 2083.333333333372,
      "v": 67
    },
    {
      "midi": 55,
      "hit": false,
      "t": 302500,
      "d": 4416.666666666686,
      "v": 55
    },
    {
      "midi": 58,
      "hit": false,
      "t": 302500,
      "d": 4479.166666666686,
      "v": 55
    },
    {
      "midi": 51,
      "hit": false,
      "t": 302500.0000000001,
      "d": 2166.666666666628,
      "v": 38
    },
    {
      "midi": 46,
      "hit": false,
      "t": 302500.0000000001,
      "d": 3958.333333333314,
      "v": 47
    },
    {
      "midi": 51,
      "hit": false,
      "t": 305000.00000000006,
      "d": 1562.5000000000582,
      "v": 47
    },
    {
      "midi": 63,
      "hit": false,
      "t": 305000.00000000006,
      "d": 2500.000000000058,
      "v": 53
    },
    {
      "midi": 48,
      "hit": false,
      "t": 305000.00000000006,
      "d": 4666.666666666744,
      "v": 46
    },
    {
      "midi": 55,
      "hit": false,
      "t": 305000.00000000006,
      "d": 4770.833333333372,
      "v": 46
    },
    {
      "midi": 51,
      "hit": false,
      "t": 306666.6666666668,
      "d": 2812.5,
      "v": 47
    },
    {
      "midi": 70,
      "hit": false,
      "t": 307500.0000000001,
      "d": 2187.5,
      "v": 50
    },
    {
      "midi": 46,
      "hit": false,
      "t": 307500.0000000001,
      "d": 2333.333333333314,
      "v": 49
    },
    {
      "midi": 62,
      "hit": false,
      "t": 308125,
      "d": 833.3333333333139,
      "v": 55
    },
    {
      "midi": 63,
      "hit": false,
      "t": 308833.3333333333,
      "d": 708.3333333333721,
      "v": 65
    },
    {
      "midi": 65,
      "hit": false,
      "t": 309375,
      "d": 708.3333333333139,
      "v": 62
    },
    {
      "midi": 66,
      "hit": false,
      "t": 310000,
      "d": 2500,
      "v": 62
    },
    {
      "midi": 66,
      "hit": false,
      "t": 310000.0000000001,
      "d": 2041.666666666686,
      "v": 49
    },
    {
      "midi": 51,
      "hit": false,
      "t": 310000.0000000001,
      "d": 2166.666666666686,
      "v": 38
    },
    {
      "midi": 46,
      "hit": false,
      "t": 310000.0000000001,
      "d": 2354.166666666686,
      "v": 48
    },
    {
      "midi": 54,
      "hit": false,
      "t": 310000.0000000001,
      "d": 4541.666666666686,
      "v": 48
    },
    {
      "midi": 70,
      "hit": false,
      "t": 312500,
      "d": 1541.666666666686,
      "v": 65
    },
    {
      "midi": 51,
      "hit": false,
      "t": 312500.0000000001,
      "d": 1312.5,
      "v": 38
    },
    {
      "midi": 46,
      "hit": false,
      "t": 312500.0000000001,
      "d": 2229.166666666686,
      "v": 47
    },
    {
      "midi": 63,
      "hit": false,
      "t": 312500.0000000001,
      "d": 2416.666666666686,
      "v": 40
    },
    {
      "midi": 51,
      "hit": false,
      "t": 314166.6666666668,
      "d": 4812.5,
      "v": 47
    },
    {
      "midi": 70,
      "hit": false,
      "t": 315000,
      "d": 4375,
      "v": 58
    },
    {
      "midi": 46,
      "hit": false,
      "t": 315000.0000000001,
      "d": 2104.166666666686,
      "v": 46
    },
    {
      "midi": 54,
      "hit": false,
      "t": 315000.0000000001,
      "d": 2291.666666666686,
      "v": 46
    },
    {
      "midi": 70,
      "hit": false,
      "t": 315000.0000000001,
      "d": 4729.166666666686,
      "v": 44
    },
    {
      "midi": 46,
      "hit": false,
      "t": 317500.0000000001,
      "d": 2333.333333333372,
      "v": 49
    },
    {
      "midi": 54,
      "hit": false,
      "t": 317541.6666666668,
      "d": 2291.666666666686,
      "v": 46
    },
    {
      "midi": 62,
      "hit": false,
      "t": 320000,
      "d": 2375,
      "v": 61
    },
    {
      "midi": 65,
      "hit": false,
      "t": 320000,
      "d": 2375,
      "v": 61
    },
    {
      "midi": 50,
      "hit": false,
      "t": 320000.0000000002,
      "d": 2166.666666666686,
      "v": 38
    },
    {
      "midi": 46,
      "hit": false,
      "t": 320000.0000000002,
      "d": 2354.166666666686,
      "v": 48
    },
    {
      "midi": 53,
      "hit": false,
      "t": 320000.0000000002,
      "d": 4541.666666666686,
      "v": 48
    },
    {
      "midi": 50,
      "hit": false,
      "t": 322500.0000000002,
      "d": 2166.666666666686,
      "v": 38
    },
    {
      "midi": 46,
      "hit": false,
      "t": 322500.0000000002,
      "d": 2229.166666666686,
      "v": 47
    },
    {
      "midi": 65,
      "hit": false,
      "t": 322500.0000000002,
      "d": 7270.833333333314,
      "v": 44
    },
    {
      "midi": 65,
      "hit": false,
      "t": 323333.3333333333,
      "d": 979.1666666666279,
      "v": 51
    },
    {
      "midi": 74,
      "hit": false,
      "t": 324166.6666666666,
      "d": 833.3333333333139,
      "v": 63
    },
    {
      "midi": 72,
      "hit": false,
      "t": 324999.99999999994,
      "d": 3229.166666666686,
      "v": 64
    },
    {
      "midi": 56,
      "hit": false,
      "t": 325000.0000000002,
      "d": 1375,
      "v": 39
    },
    {
      "midi": 68,
      "hit": false,
      "t": 325000.0000000002,
      "d": 1687.5,
      "v": 39
    },
    {
      "midi": 46,
      "hit": false,
      "t": 325000.0000000002,
      "d": 2104.166666666686,
      "v": 46
    },
    {
      "midi": 53,
      "hit": false,
      "t": 325000.0000000002,
      "d": 2291.666666666686,
      "v": 46
    },
    {
      "midi": 50,
      "hit": false,
      "t": 325000.0000000002,
      "d": 4812.499999999942,
      "v": 47
    },
    {
      "midi": 65,
      "hit": false,
      "t": 326666.6666666666,
      "d": 2250,
      "v": 60
    },
    {
      "midi": 56,
      "hit": false,
      "t": 326666.66666666686,
      "d": 2333.333333333314,
      "v": 52
    },
    {
      "midi": 68,
      "hit": false,
      "t": 327500.0000000002,
      "d": 2083.333333333314,
      "v": 51
    },
    {
      "midi": 53,
      "hit": false,
      "t": 327500.0000000002,
      "d": 2291.666666666628,
      "v": 46
    },
    {
      "midi": 46,
      "hit": false,
      "t": 327500.0000000002,
      "d": 2333.3333333332557,
      "v": 49
    },
    {
      "midi": 50,
      "hit": false,
      "t": 330000.0000000001,
      "d": 2166.666666666686,
      "v": 38
    },
    {
      "midi": 47,
      "hit": false,
      "t": 330000.0000000001,
      "d": 2354.166666666686,
      "v": 48
    },
    {
      "midi": 55,
      "hit": false,
      "t": 330000.0000000001,
      "d": 4541.666666666686,
      "v": 48
    },
    {
      "midi": 71,
      "hit": false,
      "t": 331666.6666666666,
      "d": 3562.5,
      "v": 55
    },
    {
      "midi": 50,
      "hit": false,
      "t": 332500.0000000001,
      "d": 2166.666666666686,
      "v": 38
    },
    {
      "midi": 71,
      "hit": false,
      "t": 332500.0000000001,
      "d": 2583.333333333314,
      "v": 48
    },
    {
      "midi": 47,
      "hit": false,
      "t": 332500.0000000001,
      "d": 4562.5,
      "v": 47
    },
    {
      "midi": 55,
      "hit": false,
      "t": 335000.0000000001,
      "d": 2291.666666666686,
      "v": 39
    },
    {
      "midi": 62,
      "hit": false,
      "t": 335000.0000000001,
      "d": 2541.666666666686,
      "v": 40
    },
    {
      "midi": 50,
      "hit": false,
      "t": 335000.0000000001,
      "d": 4812.5,
      "v": 47
    },
    {
      "midi": 53,
      "hit": false,
      "t": 337500.0000000001,
      "d": 2291.666666666686,
      "v": 41
    },
    {
      "midi": 71,
      "hit": false,
      "t": 337500.0000000001,
      "d": 2291.666666666686,
      "v": 47
    },
    {
      "midi": 47,
      "hit": false,
      "t": 337500.0000000001,
      "d": 2333.333333333314,
      "v": 49
    },
    {
      "midi": 55,
      "hit": false,
      "t": 337500.0000000001,
      "d": 2333.333333333314,
      "v": 48
    },
    {
      "midi": 86,
      "hit": false,
      "t": 338145.8333333333,
      "d": 729.1666666666861,
      "v": 74
    },
    {
      "midi": 79,
      "hit": false,
      "t": 339020.8333333333,
      "d": 2833.333333333372,
      "v": 68
    },
    {
      "midi": 86,
      "hit": false,
      "t": 339937.5,
      "d": 708.3333333333139,
      "v": 78
    },
    {
      "midi": 46,
      "hit": false,
      "t": 340000.0000000001,
      "d": 4104.166666666686,
      "v": 47
    },
    {
      "midi": 50,
      "hit": false,
      "t": 340000.0000000001,
      "d": 4375,
      "v": 48
    },
    {
      "midi": 55,
      "hit": false,
      "t": 340000.0000000001,
      "d": 4541.666666666686,
      "v": 48
    },
    {
      "midi": 88,
      "hit": false,
      "t": 340520.8333333333,
      "d": 729.1666666666861,
      "v": 68
    },
    {
      "midi": 84,
      "hit": false,
      "t": 341083.3333333333,
      "d": 2562.5,
      "v": 75
    },
    {
      "midi": 62,
      "hit": false,
      "t": 342500,
      "d": 6500,
      "v": 49
    },
    {
      "midi": 58,
      "hit": false,
      "t": 342500,
      "d": 6520.833333333314,
      "v": 49
    },
    {
      "midi": 52,
      "hit": false,
      "t": 342500.0000000001,
      "d": 2166.666666666686,
      "v": 38
    },
    {
      "midi": 70,
      "hit": false,
      "t": 342500.0000000001,
      "d": 2229.166666666686,
      "v": 41
    },
    {
      "midi": 48,
      "hit": false,
      "t": 342500.0000000001,
      "d": 2291.666666666686,
      "v": 48
    },
    {
      "midi": 62,
      "hit": false,
      "t": 345000.0000000001,
      "d": 2625,
      "v": 36
    },
    {
      "midi": 48,
      "hit": false,
      "t": 345000.0000000001,
      "d": 4666.666666666686,
      "v": 46
    },
    {
      "midi": 55,
      "hit": false,
      "t": 345000.0000000001,
      "d": 4770.833333333314,
      "v": 46
    },
    {
      "midi": 52,
      "hit": false,
      "t": 345000.0000000001,
      "d": 4812.5,
      "v": 47
    },
    {
      "midi": 50,
      "hit": false,
      "t": 346666.6666666668,
      "d": 3020.833333333314,
      "v": 49
    },
    {
      "midi": 46,
      "hit": false,
      "t": 347500.0000000001,
      "d": 2333.333333333314,
      "v": 49
    },
    {
      "midi": 70,
      "hit": false,
      "t": 347500.0000000001,
      "d": 2333.333333333314,
      "v": 40
    },
    {
      "midi": 74,
      "hit": false,
      "t": 349958.3333333333,
      "d": 1333.3333333333721,
      "v": 73
    },
    {
      "midi": 48,
      "hit": false,
      "t": 350000.0000000001,
      "d": 2062.5,
      "v": 48
    },
    {
      "midi": 53,
      "hit": false,
      "t": 350000.0000000001,
      "d": 2166.666666666686,
      "v": 38
    },
    {
      "midi": 58,
      "hit": false,
      "t": 350000.0000000001,
      "d": 4541.666666666686,
      "v": 48
    },
    {
      "midi": 77,
      "hit": false,
      "t": 351250,
      "d": 3375,
      "v": 72
    },
    {
      "midi": 65,
      "hit": false,
      "t": 352500,
      "d": 4562.5,
      "v": 74
    },
    {
      "midi": 48,
      "hit": false,
      "t": 352500.0000000001,
      "d": 2229.166666666686,
      "v": 47
    },
    {
      "midi": 72,
      "hit": false,
      "t": 352500.0000000001,
      "d": 2375,
      "v": 55
    },
    {
      "midi": 53,
      "hit": false,
      "t": 352500.0000000001,
      "d": 4916.666666666686,
      "v": 38
    },
    {
      "midi": 45,
      "hit": false,
      "t": 355000.0000000001,
      "d": 2104.166666666686,
      "v": 46
    },
    {
      "midi": 57,
      "hit": false,
      "t": 355000.0000000001,
      "d": 2291.666666666686,
      "v": 46
    },
    {
      "midi": 63,
      "hit": false,
      "t": 355000.0000000001,
      "d": 3937.5,
      "v": 54
    },
    {
      "midi": 48,
      "hit": false,
      "t": 355000.0000000001,
      "d": 4812.5,
      "v": 47
    },
    {
      "midi": 53,
      "hit": false,
      "t": 355062.5,
      "d": 4666.666666666686,
      "v": 61
    },
    {
      "midi": 57,
      "hit": false,
      "t": 355062.5,
      "d": 4729.166666666686,
      "v": 61
    },
    {
      "midi": 57,
      "hit": false,
      "t": 357500.0000000001,
      "d": 2291.666666666686,
      "v": 46
    },
    {
      "midi": 45,
      "hit": false,
      "t": 357500.0000000001,
      "d": 2333.333333333314,
      "v": 49
    },
    {
      "midi": 72,
      "hit": false,
      "t": 357500.0000000001,
      "d": 2375,
      "v": 53
    },
    {
      "midi": 53,
      "hit": false,
      "t": 360000.0000000001,
      "d": 2166.666666666686,
      "v": 38
    },
    {
      "midi": 50,
      "hit": false,
      "t": 360000.0000000001,
      "d": 2270.833333333372,
      "v": 38
    },
    {
      "midi": 46,
      "hit": false,
      "t": 360000.0000000001,
      "d": 4104.166666666744,
      "v": 47
    },
    {
      "midi": 58,
      "hit": false,
      "t": 360000.0000000001,
      "d": 4541.666666666744,
      "v": 48
    },
    {
      "midi": 65,
      "hit": false,
      "t": 362500,
      "d": 1520.833333333314,
      "v": 69
    },
    {
      "midi": 53,
      "hit": false,
      "t": 362500.0000000002,
      "d": 2166.666666666686,
      "v": 38
    },
    {
      "midi": 50,
      "hit": false,
      "t": 362500.0000000002,
      "d": 2291.666666666686,
      "v": 48
    },
    {
      "midi": 70,
      "hit": false,
      "t": 362500.0000000002,
      "d": 2979.166666666686,
      "v": 42
    },
    {
      "midi": 70,
      "hit": false,
      "t": 363750,
      "d": 1854.166666666686,
      "v": 62
    },
    {
      "midi": 62,
      "hit": false,
      "t": 365000,
      "d": 3104.166666666686,
      "v": 49
    },
    {
      "midi": 65,
      "hit": false,
      "t": 365000,
      "d": 3104.166666666686,
      "v": 68
    },
    {
      "midi": 55,
      "hit": false,
      "t": 365000.0000000002,
      "d": 4770.833333333372,
      "v": 46
    },
    {
      "midi": 50,
      "hit": false,
      "t": 365000.0000000002,
      "d": 4812.500000000058,
      "v": 47
    },
    {
      "midi": 55,
      "hit": false,
      "t": 366250,
      "d": 3416.666666666686,
      "v": 48
    },
    {
      "midi": 70,
      "hit": false,
      "t": 367500.0000000002,
      "d": 2104.166666666686,
      "v": 51
    },
    {
      "midi": 46,
      "hit": false,
      "t": 367500.0000000002,
      "d": 2333.333333333372,
      "v": 49
    },
    {
      "midi": 51,
      "hit": false,
      "t": 370000.00000000023,
      "d": 2166.666666666686,
      "v": 38
    },
    {
      "midi": 54,
      "hit": false,
      "t": 370000.00000000023,
      "d": 3375,
      "v": 48
    },
    {
      "midi": 70,
      "hit": false,
      "t": 370000.00000000023,
      "d": 3895.833333333314,
      "v": 54
    },
    {
      "midi": 46,
      "hit": false,
      "t": 370000.00000000023,
      "d": 4104.166666666628,
      "v": 48
    },
    {
      "midi": 66,
      "hit": false,
      "t": 371791.6666666667,
      "d": 687.5,
      "v": 59
    },
    {
      "midi": 51,
      "hit": false,
      "t": 372500.00000000023,
      "d": 4916.666666666686,
      "v": 38
    },
    {
      "midi": 73,
      "hit": false,
      "t": 372520.8333333334,
      "d": 958.3333333333139,
      "v": 64
    },
    {
      "midi": 66,
      "hit": false,
      "t": 373333.3333333334,
      "d": 687.5,
      "v": 64
    },
    {
      "midi": 54,
      "hit": false,
      "t": 373750.00000000023,
      "d": 833.3333333333139,
      "v": 46
    },
    {
      "midi": 63,
      "hit": false,
      "t": 374104.1666666667,
      "d": 666.6666666666861,
      "v": 59
    },
    {
      "midi": 56,
      "hit": false,
      "t": 374979.1666666667,
      "d": 3750,
      "v": 57
    },
    {
      "midi": 56,
      "hit": false,
      "t": 375000.00000000023,
      "d": 2250,
      "v": 46
    },
    {
      "midi": 44,
      "hit": false,
      "t": 375000.00000000023,
      "d": 4250,
      "v": 47
    },
    {
      "midi": 48,
      "hit": false,
      "t": 375000.00000000023,
      "d": 4250,
      "v": 47
    },
    {
      "midi": 63,
      "hit": false,
      "t": 375833.3333333334,
      "d": 875,
      "v": 81
    },
    {
      "midi": 64,
      "hit": false,
      "t": 376666.6666666667,
      "d": 812.5,
      "v": 88
    },
    {
      "midi": 68,
      "hit": false,
      "t": 377500.00000000023,
      "d": 2270.833333333314,
      "v": 53
    },
    {
      "midi": 54,
      "hit": false,
      "t": 377500.00000000023,
      "d": 2333.333333333314,
      "v": 49
    },
    {
      "midi": 56,
      "hit": false,
      "t": 377500.00000000023,
      "d": 2437.5,
      "v": 42
    },
    {
      "midi": 65,
      "hit": false,
      "t": 377583.3333333334,
      "d": 812.5,
      "v": 93
    },
    {
      "midi": 66,
      "hit": false,
      "t": 378416.6666666667,
      "d": 687.5,
      "v": 91
    },
    {
      "midi": 67,
      "hit": false,
      "t": 379187.5,
      "d": 895.8333333333139,
      "v": 82
    },
    {
      "midi": 65,
      "hit": false,
      "t": 380000,
      "d": 1354.1666666666279,
      "v": 59
    },
    {
      "midi": 68,
      "hit": false,
      "t": 380000,
      "d": 1666.6666666666279,
      "v": 93
    },
    {
      "midi": 56,
      "hit": false,
      "t": 380000.00000000023,
      "d": 2145.833333333314,
      "v": 52
    },
    {
      "midi": 61,
      "hit": false,
      "t": 380000.00000000023,
      "d": 4791.666666666686,
      "v": 44
    },
    {
      "midi": 53,
      "hit": false,
      "t": 380000.00000000023,
      "d": 6791.666666666628,
      "v": 60
    },
    {
      "midi": 65,
      "hit": false,
      "t": 381666.6666666666,
      "d": 625,
      "v": 63
    },
    {
      "midi": 70,
      "hit": false,
      "t": 381666.6666666666,
      "d": 750,
      "v": 98
    },
    {
      "midi": 65,
      "hit": false,
      "t": 382499.99999999994,
      "d": 1375,
      "v": 68
    },
    {
      "midi": 70,
      "hit": false,
      "t": 382499.99999999994,
      "d": 1625,
      "v": 96
    },
    {
      "midi": 56,
      "hit": false,
      "t": 382500.00000000023,
      "d": 3458.333333333314,
      "v": 49
    },
    {
      "midi": 68,
      "hit": false,
      "t": 382500.00000000023,
      "d": 3541.666666666628,
      "v": 64
    },
    {
      "midi": 65,
      "hit": false,
      "t": 384166.6666666666,
      "d": 437.5,
      "v": 66
    },
    {
      "midi": 72,
      "hit": false,
      "t": 384166.6666666666,
      "d": 500,
      "v": 94
    },
    {
      "midi": 72,
      "hit": false,
      "t": 384999.99999999994,
      "d": 4229.166666666686,
      "v": 98
    },
    {
      "midi": 65,
      "hit": false,
      "t": 384999.99999999994,
      "d": 4312.5,
      "v": 63
    },
    {
      "midi": 61,
      "hit": false,
      "t": 385000.00000000023,
      "d": 4791.66666666657,
      "v": 44
    },
    {
      "midi": 56,
      "hit": false,
      "t": 386666.66666666686,
      "d": 2520.833333333314,
      "v": 48
    },
    {
      "midi": 53,
      "hit": false,
      "t": 387500.0000000002,
      "d": 2208.333333333314,
      "v": 55
    },
    {
      "midi": 73,
      "hit": false,
      "t": 387500.0000000002,
      "d": 3562.499999999942,
      "v": 43
    },
    {
      "midi": 65,
      "hit": false,
      "t": 390000.0000000001,
      "d": 3770.833333333314,
      "v": 41
    },
    {
      "midi": 60,
      "hit": false,
      "t": 390000.0000000001,
      "d": 3895.833333333314,
      "v": 52
    },
    {
      "midi": 56,
      "hit": false,
      "t": 391666.6666666668,
      "d": 2374.999999999942,
      "v": 45
    },
    {
      "midi": 65,
      "hit": false,
      "t": 392499.99999999994,
      "d": 1958.333333333314,
      "v": 75
    },
    {
      "midi": 68,
      "hit": false,
      "t": 392499.99999999994,
      "d": 2354.166666666628,
      "v": 89
    },
    {
      "midi": 68,
      "hit": false,
      "t": 392500.0000000001,
      "d": 3645.8333333332557,
      "v": 52
    },
    {
      "midi": 53,
      "hit": false,
      "t": 392500.0000000001,
      "d": 3916.6666666665697,
      "v": 50
    },
    {
      "midi": 68,
      "hit": false,
      "t": 394999.9999999999,
      "d": 2062.5,
      "v": 67
    },
    {
      "midi": 65,
      "hit": false,
      "t": 394999.9999999999,
      "d": 2125,
      "v": 70
    },
    {
      "midi": 70,
      "hit": false,
      "t": 394999.9999999999,
      "d": 2520.833333333314,
      "v": 100
    },
    {
      "midi": 65,
      "hit": false,
      "t": 395000.00000000006,
      "d": 4833.333333333256,
      "v": 52
    },
    {
      "midi": 61,
      "hit": false,
      "t": 395000.00000000006,
      "d": 4958.3333333331975,
      "v": 51
    },
    {
      "midi": 56,
      "hit": false,
      "t": 396666.6666666667,
      "d": 2270.833333333314,
      "v": 52
    },
    {
      "midi": 68,
      "hit": false,
      "t": 397499.9999999999,
      "d": 2312.5,
      "v": 64
    },
    {
      "midi": 65,
      "hit": false,
      "t": 397499.9999999999,
      "d": 2354.166666666686,
      "v": 79
    },
    {
      "midi": 73,
      "hit": false,
      "t": 397499.9999999999,
      "d": 2520.833333333314,
      "v": 98
    },
    {
      "midi": 73,
      "hit": false,
      "t": 397500,
      "d": 2354.166666666628,
      "v": 51
    },
    {
      "midi": 53,
      "hit": false,
      "t": 397500,
      "d": 2437.499999999942,
      "v": 44
    },
    {
      "midi": 64,
      "hit": false,
      "t": 399999.9999999999,
      "d": 8145.833333333314,
      "v": 53
    },
    {
      "midi": 72,
      "hit": false,
      "t": 399999.9999999999,
      "d": 8145.833333333314,
      "v": 98
    },
    {
      "midi": 67,
      "hit": false,
      "t": 399999.9999999999,
      "d": 8333.333333333314,
      "v": 61
    },
    {
      "midi": 52,
      "hit": false,
      "t": 399999.99999999994,
      "d": 2500,
      "v": 49
    },
    {
      "midi": 58,
      "hit": false,
      "t": 399999.99999999994,
      "d": 4375,
      "v": 47
    },
    {
      "midi": 61,
      "hit": false,
      "t": 399999.99999999994,
      "d": 4375,
      "v": 47
    },
    {
      "midi": 70,
      "hit": false,
      "t": 402499.99999999994,
      "d": 3687.5,
      "v": 40
    },
    {
      "midi": 55,
      "hit": false,
      "t": 402499.99999999994,
      "d": 5000,
      "v": 51
    },
    {
      "midi": 52,
      "hit": false,
      "t": 404166.6666666666,
      "d": 3083.333333333314,
      "v": 47
    },
    {
      "midi": 58,
      "hit": false,
      "t": 404999.99999999994,
      "d": 4375,
      "v": 44
    },
    {
      "midi": 61,
      "hit": false,
      "t": 404999.99999999994,
      "d": 4375,
      "v": 44
    },
    {
      "midi": 52,
      "hit": false,
      "t": 407499.99999999994,
      "d": 2000,
      "v": 47
    },
    {
      "midi": 73,
      "hit": false,
      "t": 407499.99999999994,
      "d": 3958.333333333314,
      "v": 39
    },
    {
      "midi": 52,
      "hit": false,
      "t": 409999.99999999994,
      "d": 3125,
      "v": 42
    },
    {
      "midi": 61,
      "hit": false,
      "t": 409999.99999999994,
      "d": 3354.166666666686,
      "v": 45
    },
    {
      "midi": 58,
      "hit": false,
      "t": 409999.99999999994,
      "d": 4375,
      "v": 45
    },
    {
      "midi": 70,
      "hit": false,
      "t": 412499.99999999994,
      "d": 2395.833333333314,
      "v": 42
    },
    {
      "midi": 55,
      "hit": false,
      "t": 412499.99999999994,
      "d": 3125,
      "v": 52
    },
    {
      "midi": 52,
      "hit": false,
      "t": 414166.6666666666,
      "d": 2500,
      "v": 49
    },
    {
      "midi": 61,
      "hit": false,
      "t": 414166.6666666666,
      "d": 4375,
      "v": 43
    },
    {
      "midi": 73,
      "hit": false,
      "t": 414999.99999999994,
      "d": 2375,
      "v": 42
    },
    {
      "midi": 58,
      "hit": false,
      "t": 414999.99999999994,
      "d": 4375,
      "v": 43
    },
    {
      "midi": 70,
      "hit": false,
      "t": 417499.99999999994,
      "d": 2250,
      "v": 42
    },
    {
      "midi": 52,
      "hit": false,
      "t": 417499.99999999994,
      "d": 2500,
      "v": 44
    },
    {
      "midi": 55,
      "hit": false,
      "t": 417499.99999999994,
      "d": 2500,
      "v": 54
    },
    {
      "midi": 70,
      "hit": false,
      "t": 419999.9999999999,
      "d": 1520.833333333314,
      "v": 85
    },
    {
      "midi": 73,
      "hit": false,
      "t": 419999.9999999999,
      "d": 1520.833333333314,
      "v": 93
    },
    {
      "midi": 65,
      "hit": false,
      "t": 419999.9999999999,
      "d": 1770.833333333314,
      "v": 68
    },
    {
      "midi": 63,
      "hit": false,
      "t": 419999.99999999994,
      "d": 3895.833333333314,
      "v": 48
    },
    {
      "midi": 54,
      "hit": false,
      "t": 419999.99999999994,
      "d": 4000,
      "v": 45
    },
    {
      "midi": 58,
      "hit": false,
      "t": 419999.99999999994,
      "d": 4041.666666666686,
      "v": 48
    },
    {
      "midi": 68,
      "hit": false,
      "t": 421666.6666666665,
      "d": 604.1666666666861,
      "v": 60
    },
    {
      "midi": 72,
      "hit": false,
      "t": 421666.6666666665,
      "d": 666.6666666666861,
      "v": 75
    },
    {
      "midi": 75,
      "hit": false,
      "t": 421666.6666666665,
      "d": 666.6666666666861,
      "v": 94
    },
    {
      "midi": 72,
      "hit": false,
      "t": 422499.9999999999,
      "d": 1291.666666666686,
      "v": 60
    },
    {
      "midi": 68,
      "hit": false,
      "t": 422499.9999999999,
      "d": 1520.8333333333721,
      "v": 77
    },
    {
      "midi": 75,
      "hit": false,
      "t": 422499.9999999999,
      "d": 1520.8333333333721,
      "v": 99
    },
    {
      "midi": 61,
      "hit": false,
      "t": 422499.99999999994,
      "d": 3437.5,
      "v": 46
    },
    {
      "midi": 78,
      "hit": false,
      "t": 422499.99999999994,
      "d": 4125,
      "v": 53
    },
    {
      "midi": 65,
      "hit": false,
      "t": 424166.66666666657,
      "d": 729.1666666666861,
      "v": 64
    },
    {
      "midi": 77,
      "hit": false,
      "t": 424166.66666666657,
      "d": 729.1666666666861,
      "v": 95
    },
    {
      "midi": 73,
      "hit": false,
      "t": 424166.66666666657,
      "d": 5458.333333333372,
      "v": 79
    },
    {
      "midi": 54,
      "hit": false,
      "t": 424999.99999999994,
      "d": 1812.5,
      "v": 49
    },
    {
      "midi": 58,
      "hit": false,
      "t": 424999.99999999994,
      "d": 4354.166666666686,
      "v": 45
    },
    {
      "midi": 63,
      "hit": false,
      "t": 424999.99999999994,
      "d": 4354.166666666686,
      "v": 45
    },
    {
      "midi": 70,
      "hit": false,
      "t": 424999.99999999994,
      "d": 4562.5,
      "v": 84
    },
    {
      "midi": 77,
      "hit": false,
      "t": 424999.99999999994,
      "d": 4625,
      "v": 97
    },
    {
      "midi": 65,
      "hit": false,
      "t": 424999.99999999994,
      "d": 4645.833333333314,
      "v": 68
    },
    {
      "midi": 54,
      "hit": false,
      "t": 427499.99999999994,
      "d": 2229.166666666686,
      "v": 43
    },
    {
      "midi": 75,
      "hit": false,
      "t": 427499.99999999994,
      "d": 4833.333333333314,
      "v": 59
    },
    {
      "midi": 63,
      "hit": false,
      "t": 429999.99999999994,
      "d": 3833.333333333314,
      "v": 48
    },
    {
      "midi": 58,
      "hit": false,
      "t": 429999.99999999994,
      "d": 4520.833333333314,
      "v": 48
    },
    {
      "midi": 61,
      "hit": false,
      "t": 432499.99999999994,
      "d": 1791.6666666666279,
      "v": 38
    },
    {
      "midi": 54,
      "hit": false,
      "t": 432499.99999999994,
      "d": 3958.333333333314,
      "v": 47
    },
    {
      "midi": 78,
      "hit": false,
      "t": 432499.99999999994,
      "d": 4500,
      "v": 44
    },
    {
      "midi": 70,
      "hit": false,
      "t": 432499.99999999994,
      "d": 2333.333333333314,
      "v": 74
    },
    {
      "midi": 73,
      "hit": false,
      "t": 432499.99999999994,
      "d": 2479.166666666628,
      "v": 94
    },
    {
      "midi": 63,
      "hit": false,
      "t": 434166.66666666657,
      "d": 4770.833333333372,
      "v": 46
    },
    {
      "midi": 70,
      "hit": false,
      "t": 434999.9999999999,
      "d": 2270.833333333314,
      "v": 78
    },
    {
      "midi": 75,
      "hit": false,
      "t": 434999.9999999999,
      "d": 2500,
      "v": 99
    },
    {
      "midi": 58,
      "hit": false,
      "t": 434999.99999999994,
      "d": 4666.666666666686,
      "v": 46
    },
    {
      "midi": 61,
      "hit": false,
      "t": 434999.99999999994,
      "d": 4812.5,
      "v": 47
    },
    {
      "midi": 70,
      "hit": false,
      "t": 437499.9999999999,
      "d": 2208.333333333314,
      "v": 79
    },
    {
      "midi": 78,
      "hit": false,
      "t": 437499.9999999999,
      "d": 2500,
      "v": 101
    },
    {
      "midi": 75,
      "hit": false,
      "t": 437499.99999999994,
      "d": 2229.166666666686,
      "v": 52
    },
    {
      "midi": 54,
      "hit": false,
      "t": 437499.99999999994,
      "d": 2333.333333333314,
      "v": 49
    },
    {
      "midi": 69,
      "hit": false,
      "t": 439999.9999999999,
      "d": 6333.333333333314,
      "v": 73
    },
    {
      "midi": 77,
      "hit": false,
      "t": 439999.9999999999,
      "d": 6354.166666666628,
      "v": 99
    },
    {
      "midi": 65,
      "hit": false,
      "t": 439999.99999999994,
      "d": 2187.5,
      "v": 48
    },
    {
      "midi": 58,
      "hit": false,
      "t": 439999.99999999994,
      "d": 4395.833333333314,
      "v": 48
    },
    {
      "midi": 60,
      "hit": false,
      "t": 439999.99999999994,
      "d": 7062.5,
      "v": 48
    },
    {
      "midi": 65,
      "hit": false,
      "t": 442499.99999999994,
      "d": 2000,
      "v": 48
    },
    {
      "midi": 72,
      "hit": false,
      "t": 442499.99999999994,
      "d": 3166.666666666686,
      "v": 44
    },
    {
      "midi": 51,
      "hit": false,
      "t": 442499.99999999994,
      "d": 3875,
      "v": 46
    },
    {
      "midi": 65,
      "hit": false,
      "t": 444999.99999999994,
      "d": 4083.333333333314,
      "v": 45
    },
    {
      "midi": 60,
      "hit": false,
      "t": 447499.99999999994,
      "d": 2125,
      "v": 52
    },
    {
      "midi": 51,
      "hit": false,
      "t": 447499.99999999994,
      "d": 6812.5,
      "v": 44
    },
    {
      "midi": 67,
      "hit": false,
      "t": 449999.99999999994,
      "d": 2500,
      "v": 48
    },
    {
      "midi": 65,
      "hit": false,
      "t": 449999.99999999994,
      "d": 4437.5,
      "v": 46
    },
    {
      "midi": 60,
      "hit": false,
      "t": 449999.99999999994,
      "d": 6979.166666666686,
      "v": 46
    },
    {
      "midi": 72,
      "hit": false,
      "t": 452499.99999999994,
      "d": 3833.333333333314,
      "v": 39
    },
    {
      "midi": 58,
      "hit": false,
      "t": 452499.99999999994,
      "d": 4062.5,
      "v": 52
    },
    {
      "midi": 63,
      "hit": false,
      "t": 454999.99999999994,
      "d": 4770.833333333372,
      "v": 47
    },
    {
      "midi": 67,
      "hit": false,
      "t": 454999.99999999994,
      "d": 5041.666666666744,
      "v": 46
    },
    {
      "midi": 51,
      "hit": false,
      "t": 457499.99999999994,
      "d": 2229.166666666686,
      "v": 44
    },
    {
      "midi": 60,
      "hit": false,
      "t": 457499.99999999994,
      "d": 2291.666666666686,
      "v": 44
    },
    {
      "midi": 72,
      "hit": false,
      "t": 457499.99999999994,
      "d": 2333.333333333372,
      "v": 41
    },
    {
      "midi": 58,
      "hit": false,
      "t": 457499.99999999994,
      "d": 2375.000000000058,
      "v": 44
    },
    {
      "midi": 59,
      "hit": false,
      "t": 459999.9999999998,
      "d": 2125,
      "v": 66
    },
    {
      "midi": 66,
      "hit": false,
      "t": 459999.9999999998,
      "d": 2375,
      "v": 93
    },
    {
      "midi": 71,
      "hit": false,
      "t": 460000,
      "d": 3583.333333333314,
      "v": 51
    },
    {
      "midi": 56,
      "hit": false,
      "t": 460000,
      "d": 4520.833333333314,
      "v": 48
    },
    {
      "midi": 63,
      "hit": false,
      "t": 460000,
      "d": 4541.666666666628,
      "v": 48
    },
    {
      "midi": 66,
      "hit": false,
      "t": 460000,
      "d": 5041.666666666628,
      "v": 46
    },
    {
      "midi": 59,
      "hit": false,
      "t": 462499.9999999998,
      "d": 2104.166666666686,
      "v": 70
    },
    {
      "midi": 68,
      "hit": false,
      "t": 462499.9999999998,
      "d": 2208.333333333372,
      "v": 94
    },
    {
      "midi": 59,
      "hit": false,
      "t": 462500,
      "d": 2166.666666666628,
      "v": 38
    },
    {
      "midi": 54,
      "hit": false,
      "t": 462500,
      "d": 3958.333333333314,
      "v": 47
    },
    {
      "midi": 59,
      "hit": false,
      "t": 464999.9999999999,
      "d": 2250,
      "v": 65
    },
    {
      "midi": 68,
      "hit": false,
      "t": 464999.9999999999,
      "d": 2562.5,
      "v": 91
    },
    {
      "midi": 59,
      "hit": false,
      "t": 464999.99999999994,
      "d": 1562.5000000000582,
      "v": 47
    },
    {
      "midi": 71,
      "hit": false,
      "t": 464999.99999999994,
      "d": 2500.000000000058,
      "v": 53
    },
    {
      "midi": 56,
      "hit": false,
      "t": 464999.99999999994,
      "d": 4666.666666666744,
      "v": 46
    },
    {
      "midi": 63,
      "hit": false,
      "t": 464999.99999999994,
      "d": 4770.833333333372,
      "v": 46
    },
    {
      "midi": 59,
      "hit": false,
      "t": 466666.6666666667,
      "d": 2812.5,
      "v": 47
    },
    {
      "midi": 66,
      "hit": false,
      "t": 467499.9999999999,
      "d": 2125,
      "v": 95
    },
    {
      "midi": 59,
      "hit": false,
      "t": 467499.9999999999,
      "d": 2375,
      "v": 66
    },
    {
      "midi": 78,
      "hit": false,
      "t": 467500,
      "d": 2187.5,
      "v": 50
    },
    {
      "midi": 54,
      "hit": false,
      "t": 467500,
      "d": 2333.333333333314,
      "v": 49
    },
    {
      "midi": 59,
      "hit": false,
      "t": 469999.9999999999,
      "d": 2437.5,
      "v": 66
    },
    {
      "midi": 66,
      "hit": false,
      "t": 469999.9999999999,
      "d": 2583.333333333314,
      "v": 87
    },
    {
      "midi": 74,
      "hit": false,
      "t": 470000,
      "d": 2041.666666666686,
      "v": 49
    },
    {
      "midi": 59,
      "hit": false,
      "t": 470000,
      "d": 2166.666666666686,
      "v": 38
    },
    {
      "midi": 54,
      "hit": false,
      "t": 470000,
      "d": 2354.166666666686,
      "v": 48
    },
    {
      "midi": 62,
      "hit": false,
      "t": 470000,
      "d": 4541.666666666686,
      "v": 48
    },
    {
      "midi": 68,
      "hit": false,
      "t": 472499.9999999999,
      "d": 1500,
      "v": 93
    },
    {
      "midi": 61,
      "hit": false,
      "t": 472499.9999999999,
      "d": 1625,
      "v": 71
    },
    {
      "midi": 59,
      "hit": false,
      "t": 472500,
      "d": 1312.5,
      "v": 38
    },
    {
      "midi": 54,
      "hit": false,
      "t": 472500,
      "d": 2229.166666666686,
      "v": 47
    },
    {
      "midi": 71,
      "hit": false,
      "t": 472500,
      "d": 2416.666666666686,
      "v": 40
    },
    {
      "midi": 69,
      "hit": false,
      "t": 474166.66666666657,
      "d": 2458.333333333314,
      "v": 88
    },
    {
      "midi": 62,
      "hit": false,
      "t": 474166.66666666657,
      "d": 2479.166666666628,
      "v": 68
    },
    {
      "midi": 59,
      "hit": false,
      "t": 474166.6666666667,
      "d": 4812.5,
      "v": 47
    },
    {
      "midi": 54,
      "hit": false,
      "t": 475000,
      "d": 2104.166666666686,
      "v": 46
    },
    {
      "midi": 62,
      "hit": false,
      "t": 475000,
      "d": 2291.666666666686,
      "v": 46
    },
    {
      "midi": 78,
      "hit": false,
      "t": 475000,
      "d": 4729.166666666686,
      "v": 44
    },
    {
      "midi": 61,
      "hit": false,
      "t": 476666.6666666665,
      "d": 833.3333333333139,
      "v": 69
    },
    {
      "midi": 68,
      "hit": false,
      "t": 476666.6666666665,
      "d": 895.8333333333139,
      "v": 91
    },
    {
      "midi": 59,
      "hit": false,
      "t": 477499.9999999998,
      "d": 2375,
      "v": 75
    },
    {
      "midi": 66,
      "hit": false,
      "t": 477499.9999999998,
      "d": 2562.5,
      "v": 89
    },
    {
      "midi": 54,
      "hit": false,
      "t": 477500,
      "d": 2333.333333333372,
      "v": 49
    },
    {
      "midi": 62,
      "hit": false,
      "t": 477541.6666666667,
      "d": 2291.666666666686,
      "v": 46
    },
    {
      "midi": 56,
      "hit": false,
      "t": 479999.9999999998,
      "d": 2291.666666666686,
      "v": 56
    },
    {
      "midi": 58,
      "hit": false,
      "t": 479999.9999999998,
      "d": 2375,
      "v": 68
    },
    {
      "midi": 61,
      "hit": false,
      "t": 479999.9999999998,
      "d": 2375,
      "v": 90
    },
    {
      "midi": 58,
      "hit": false,
      "t": 480000.00000000006,
      "d": 2166.666666666686,
      "v": 38
    },
    {
      "midi": 56,
      "hit": false,
      "t": 480000.00000000006,
      "d": 2354.166666666686,
      "v": 48
    },
    {
      "midi": 61,
      "hit": false,
      "t": 480000.00000000006,
      "d": 4541.666666666686,
      "v": 48
    },
    {
      "midi": 63,
      "hit": false,
      "t": 482499.9999999998,
      "d": 1812.5,
      "v": 90
    },
    {
      "midi": 56,
      "hit": false,
      "t": 482499.9999999998,
      "d": 1937.5,
      "v": 63
    },
    {
      "midi": 58,
      "hit": false,
      "t": 482500.00000000006,
      "d": 2166.666666666686,
      "v": 38
    },
    {
      "midi": 56,
      "hit": false,
      "t": 482500.00000000006,
      "d": 2229.166666666686,
      "v": 47
    },
    {
      "midi": 73,
      "hit": false,
      "t": 482500.00000000006,
      "d": 7270.833333333314,
      "v": 44
    },
    {
      "midi": 56,
      "hit": false,
      "t": 484999.9999999998,
      "d": 2375,
      "v": 62
    },
    {
      "midi": 63,
      "hit": false,
      "t": 484999.9999999998,
      "d": 2520.833333333314,
      "v": 91
    },
    {
      "midi": 65,
      "hit": false,
      "t": 485000.00000000006,
      "d": 1375,
      "v": 39
    },
    {
      "midi": 77,
      "hit": false,
      "t": 485000.00000000006,
      "d": 1687.5,
      "v": 39
    },
    {
      "midi": 56,
      "hit": false,
      "t": 485000.00000000006,
      "d": 2104.166666666686,
      "v": 46
    },
    {
      "midi": 61,
      "hit": false,
      "t": 485000.00000000006,
      "d": 2291.666666666686,
      "v": 46
    },
    {
      "midi": 58,
      "hit": false,
      "t": 485000.00000000006,
      "d": 4812.499999999942,
      "v": 47
    },
    {
      "midi": 65,
      "hit": false,
      "t": 486666.66666666674,
      "d": 2333.333333333314,
      "v": 52
    },
    {
      "midi": 54,
      "hit": false,
      "t": 487499.9999999998,
      "d": 2000,
      "v": 78
    },
    {
      "midi": 61,
      "hit": false,
      "t": 487499.9999999998,
      "d": 2250,
      "v": 93
    },
    {
      "midi": 77,
      "hit": false,
      "t": 487500.00000000006,
      "d": 2083.333333333314,
      "v": 51
    },
    {
      "midi": 61,
      "hit": false,
      "t": 487500.00000000006,
      "d": 2291.666666666628,
      "v": 46
    },
    {
      "midi": 56,
      "hit": false,
      "t": 487500.00000000006,
      "d": 2333.3333333332557,
      "v": 49
    },
    {
      "midi": 61,
      "hit": false,
      "t": 489999.9999999998,
      "d": 2250,
      "v": 87
    },
    {
      "midi": 58,
      "hit": false,
      "t": 489999.9999999998,
      "d": 2354.166666666686,
      "v": 71
    },
    {
      "midi": 55,
      "hit": false,
      "t": 489999.9999999998,
      "d": 3041.666666666686,
      "v": 63
    },
    {
      "midi": 58,
      "hit": false,
      "t": 490000,
      "d": 2166.666666666686,
      "v": 38
    },
    {
      "midi": 55,
      "hit": false,
      "t": 490000,
      "d": 2354.166666666686,
      "v": 48
    },
    {
      "midi": 63,
      "hit": false,
      "t": 490000,
      "d": 4541.666666666686,
      "v": 48
    },
    {
      "midi": 60,
      "hit": false,
      "t": 492499.9999999998,
      "d": 1479.166666666686,
      "v": 79
    },
    {
      "midi": 63,
      "hit": false,
      "t": 492499.9999999998,
      "d": 1625,
      "v": 90
    },
    {
      "midi": 58,
      "hit": false,
      "t": 492500,
      "d": 2166.666666666686,
      "v": 38
    },
    {
      "midi": 73,
      "hit": false,
      "t": 492500,
      "d": 2583.333333333314,
      "v": 48
    },
    {
      "midi": 55,
      "hit": false,
      "t": 492500,
      "d": 4562.5,
      "v": 47
    },
    {
      "midi": 61,
      "hit": false,
      "t": 494166.6666666665,
      "d": 2375,
      "v": 89
    },
    {
      "midi": 58,
      "hit": false,
      "t": 494166.6666666665,
      "d": 2479.166666666686,
      "v": 75
    },
    {
      "midi": 63,
      "hit": false,
      "t": 495000,
      "d": 2291.666666666686,
      "v": 39
    },
    {
      "midi": 70,
      "hit": false,
      "t": 495000,
      "d": 2541.666666666686,
      "v": 40
    },
    {
      "midi": 58,
      "hit": false,
      "t": 495000,
      "d": 4812.5,
      "v": 47
    },
    {
      "midi": 60,
      "hit": false,
      "t": 496666.6666666665,
      "d": 791.6666666666861,
      "v": 82
    },
    {
      "midi": 63,
      "hit": false,
      "t": 496666.6666666665,
      "d": 854.1666666666861,
      "v": 83
    },
    {
      "midi": 55,
      "hit": false,
      "t": 497499.9999999999,
      "d": 2187.5,
      "v": 46
    },
    {
      "midi": 58,
      "hit": false,
      "t": 497499.9999999999,
      "d": 2187.5,
      "v": 74
    },
    {
      "midi": 61,
      "hit": false,
      "t": 497499.9999999999,
      "d": 2208.333333333314,
      "v": 90
    },
    {
      "midi": 61,
      "hit": false,
      "t": 497500,
      "d": 2291.666666666686,
      "v": 41
    },
    {
      "midi": 73,
      "hit": false,
      "t": 497500,
      "d": 2291.666666666686,
      "v": 47
    },
    {
      "midi": 55,
      "hit": false,
      "t": 497500,
      "d": 2333.333333333314,
      "v": 49
    },
    {
      "midi": 63,
      "hit": false,
      "t": 497500,
      "d": 2333.333333333314,
      "v": 48
    },
    {
      "midi": 61,
      "hit": false,
      "t": 499999.9999999999,
      "d": 1270.833333333314,
      "v": 66
    },
    {
      "midi": 58,
      "hit": false,
      "t": 499999.9999999999,
      "d": 1437.5,
      "v": 84
    },
    {
      "midi": 54,
      "hit": false,
      "t": 500000,
      "d": 4104.166666666686,
      "v": 47
    },
    {
      "midi": 58,
      "hit": false,
      "t": 500000,
      "d": 4375,
      "v": 38
    },
    {
      "midi": 63,
      "hit": false,
      "t": 500000,
      "d": 4541.666666666686,
      "v": 48
    },
    {
      "midi": 58,
      "hit": false,
      "t": 501666.66666666657,
      "d": 604.1666666666861,
      "v": 68
    },
    {
      "midi": 61,
      "hit": false,
      "t": 501666.66666666657,
      "d": 666.6666666666861,
      "v": 72
    },
    {
      "midi": 61,
      "hit": false,
      "t": 502499.99999999994,
      "d": 1145.833333333314,
      "v": 62
    },
    {
      "midi": 58,
      "hit": false,
      "t": 502499.99999999994,
      "d": 1208.333333333314,
      "v": 86
    },
    {
      "midi": 61,
      "hit": false,
      "t": 502500,
      "d": 2166.666666666686,
      "v": 38
    },
    {
      "midi": 78,
      "hit": false,
      "t": 502500,
      "d": 2229.166666666686,
      "v": 41
    },
    {
      "midi": 56,
      "hit": false,
      "t": 502500,
      "d": 2291.666666666686,
      "v": 48
    },
    {
      "midi": 63,
      "hit": false,
      "t": 503770.83333333326,
      "d": 1291.666666666686,
      "v": 78
    },
    {
      "midi": 66,
      "hit": false,
      "t": 503770.83333333326,
      "d": 1312.5,
      "v": 54
    },
    {
      "midi": 61,
      "hit": false,
      "t": 504999.99999999994,
      "d": 2083.333333333314,
      "v": 57
    },
    {
      "midi": 58,
      "hit": false,
      "t": 504999.99999999994,
      "d": 4500,
      "v": 87
    },
    {
      "midi": 70,
      "hit": false,
      "t": 505000,
      "d": 2625,
      "v": 36
    },
    {
      "midi": 56,
      "hit": false,
      "t": 505000,
      "d": 4666.666666666686,
      "v": 46
    },
    {
      "midi": 63,
      "hit": false,
      "t": 505000,
      "d": 4770.833333333372,
      "v": 46
    },
    {
      "midi": 61,
      "hit": false,
      "t": 505000,
      "d": 4812.500000000058,
      "v": 47
    },
    {
      "midi": 58,
      "hit": false,
      "t": 506666.6666666667,
      "d": 3041.666666666686,
      "v": 38
    },
    {
      "midi": 61,
      "hit": false,
      "t": 507499.99999999994,
      "d": 2083.333333333314,
      "v": 76
    },
    {
      "midi": 54,
      "hit": false,
      "t": 507500,
      "d": 2333.333333333372,
      "v": 49
    },
    {
      "midi": 78,
      "hit": false,
      "t": 507500,
      "d": 2333.333333333372,
      "v": 40
    },
    {
      "midi": 61,
      "hit": false,
      "t": 509999.99999999994,
      "d": 2020.833333333314,
      "v": 66
    },
    {
      "midi": 56,
      "hit": false,
      "t": 509999.99999999994,
      "d": 3479.166666666686,
      "v": 55
    },
    {
      "midi": 56,
      "hit": false,
      "t": 510000.00000000006,
      "d": 2083.333333333314,
      "v": 48
    },
    {
      "midi": 61,
      "hit": false,
      "t": 510000.00000000006,
      "d": 2166.666666666628,
      "v": 38
    },
    {
      "midi": 63,
      "hit": false,
      "t": 510000.00000000006,
      "d": 4541.666666666628,
      "v": 48
    },
    {
      "midi": 61,
      "hit": false,
      "t": 512499.99999999994,
      "d": 2458.333333333372,
      "v": 73
    },
    {
      "midi": 61,
      "hit": false,
      "t": 512500,
      "d": 2208.333333333372,
      "v": 38
    },
    {
      "midi": 56,
      "hit": false,
      "t": 512500,
      "d": 2229.166666666686,
      "v": 47
    },
    {
      "midi": 73,
      "hit": false,
      "t": 512500,
      "d": 2375,
      "v": 55
    },
    {
      "midi": 56,
      "hit": false,
      "t": 515000,
      "d": 2104.166666666628,
      "v": 46
    },
    {
      "midi": 63,
      "hit": false,
      "t": 515000,
      "d": 2291.666666666628,
      "v": 46
    },
    {
      "midi": 72,
      "hit": false,
      "t": 515000,
      "d": 2395.833333333314,
      "v": 36
    },
    {
      "midi": 60,
      "hit": false,
      "t": 515000,
      "d": 2479.166666666686,
      "v": 68
    },
    {
      "midi": 56,
      "hit": false,
      "t": 515000,
      "d": 4625,
      "v": 59
    },
    {
      "midi": 60,
      "hit": false,
      "t": 515020.8333333333,
      "d": 2437.5,
      "v": 38
    },
    {
      "midi": 62,
      "hit": false,
      "t": 517500,
      "d": 2291.666666666628,
      "v": 55
    },
    {
      "midi": 56,
      "hit": false,
      "t": 517500,
      "d": 2333.333333333314,
      "v": 49
    },
    {
      "midi": 62,
      "hit": false,
      "t": 517500,
      "d": 2083.333333333314,
      "v": 64
    },
    {
      "midi": 74,
      "hit": false,
      "t": 517520.8333333333,
      "d": 2395.833333333314,
      "v": 36
    },
    {
      "midi": 54,
      "hit": false,
      "t": 519999.99999999994,
      "d": 1916.666666666686,
      "v": 50
    },
    {
      "midi": 59,
      "hit": false,
      "t": 519999.99999999994,
      "d": 2125,
      "v": 50
    },
    {
      "midi": 63,
      "hit": false,
      "t": 519999.99999999994,
      "d": 3750,
      "v": 50
    },
    {
      "midi": 63,
      "hit": false,
      "t": 520000,
      "d": 1250,
      "v": 83
    },
    {
      "midi": 59,
      "hit": false,
      "t": 520000,
      "d": 1395.833333333314,
      "v": 53
    },
    {
      "midi": 59,
      "hit": false,
      "t": 521666.6666666666,
      "d": 1541.666666666686,
      "v": 61
    },
    {
      "midi": 63,
      "hit": false,
      "t": 521666.6666666666,
      "d": 1687.5,
      "v": 89
    },
    {
      "midi": 59,
      "hit": false,
      "t": 522499.99999999994,
      "d": 2125.000000000058,
      "v": 45
    },
    {
      "midi": 54,
      "hit": false,
      "t": 522499.99999999994,
      "d": 2229.166666666686,
      "v": 45
    },
    {
      "midi": 59,
      "hit": false,
      "t": 523333.3333333333,
      "d": 1374.9999999999418,
      "v": 56
    },
    {
      "midi": 68,
      "hit": false,
      "t": 523333.3333333333,
      "d": 1687.4999999999418,
      "v": 82
    },
    {
      "midi": 63,
      "hit": false,
      "t": 524166.6666666666,
      "d": 4437.5,
      "v": 49
    },
    {
      "midi": 63,
      "hit": false,
      "t": 524999.9999999999,
      "d": 3645.833333333372,
      "v": 87
    },
    {
      "midi": 59,
      "hit": false,
      "t": 524999.9999999999,
      "d": 3937.5,
      "v": 62
    },
    {
      "midi": 59,
      "hit": false,
      "t": 525000,
      "d": 2291.666666666628,
      "v": 49
    },
    {
      "midi": 53,
      "hit": false,
      "t": 525000,
      "d": 4729.166666666628,
      "v": 49
    },
    {
      "midi": 59,
      "hit": false,
      "t": 527541.6666666666,
      "d": 2291.666666666628,
      "v": 45
    },
    {
      "midi": 50,
      "hit": false,
      "t": 529999.9999999999,
      "d": 1750,
      "v": 45
    },
    {
      "midi": 55,
      "hit": false,
      "t": 529999.9999999999,
      "d": 1895.8333333333721,
      "v": 53
    },
    {
      "midi": 58,
      "hit": false,
      "t": 529999.9999999999,
      "d": 2166.6666666667443,
      "v": 43
    },
    {
      "midi": 53,
      "hit": false,
      "t": 529999.9999999999,
      "d": 4270.833333333489,
      "v": 48
    },
    {
      "midi": 62,
      "hit": false,
      "t": 529999.9999999999,
      "d": 1250,
      "v": 83
    },
    {
      "midi": 58,
      "hit": false,
      "t": 529999.9999999999,
      "d": 1395.8333333333721,
      "v": 53
    },
    {
      "midi": 58,
      "hit": false,
      "t": 531666.6666666666,
      "d": 1541.6666666666279,
      "v": 61
    },
    {
      "midi": 62,
      "hit": false,
      "t": 531666.6666666666,
      "d": 1687.5,
      "v": 89
    },
    {
      "midi": 50,
      "hit": false,
      "t": 532500,
      "d": 1895.8333333333721,
      "v": 53
    },
    {
      "midi": 55,
      "hit": false,
      "t": 532500,
      "d": 1979.1666666667443,
      "v": 48
    },
    {
      "midi": 58,
      "hit": false,
      "t": 532500,
      "d": 2145.833333333372,
      "v": 48
    },
    {
      "midi": 58,
      "hit": false,
      "t": 533333.3333333333,
      "d": 1375,
      "v": 56
    },
    {
      "midi": 67,
      "hit": false,
      "t": 533333.3333333333,
      "d": 1687.5,
      "v": 82
    },
    {
      "midi": 58,
      "hit": false,
      "t": 534999.9999999999,
      "d": 2333.333333333372,
      "v": 62
    },
    {
      "midi": 62,
      "hit": false,
      "t": 534999.9999999999,
      "d": 2333.333333333372,
      "v": 87
    },
    {
      "midi": 52,
      "hit": false,
      "t": 535000,
      "d": 1750,
      "v": 48
    },
    {
      "midi": 55,
      "hit": false,
      "t": 535000,
      "d": 1875,
      "v": 48
    },
    {
      "midi": 60,
      "hit": false,
      "t": 535000,
      "d": 2145.833333333372,
      "v": 48
    },
    {
      "midi": 58,
      "hit": false,
      "t": 535000,
      "d": 4437.5,
      "v": 48
    },
    {
      "midi": 58,
      "hit": false,
      "t": 537499.9999999999,
      "d": 2145.833333333372,
      "v": 69
    },
    {
      "midi": 61,
      "hit": false,
      "t": 537499.9999999999,
      "d": 2187.5,
      "v": 69
    },
    {
      "midi": 52,
      "hit": false,
      "t": 537500,
      "d": 2083.333333333372,
      "v": 45
    },
    {
      "midi": 49,
      "hit": false,
      "t": 537500,
      "d": 2270.833333333372,
      "v": 50
    },
    {
      "midi": 55,
      "hit": false,
      "t": 537500,
      "d": 2312.5,
      "v": 50
    },
    {
      "midi": 69,
      "hit": false,
      "t": 539999.9999999999,
      "d": 6729.166666666628,
      "v": 63
    },
    {
      "midi": 64,
      "hit": false,
      "t": 539999.9999999999,
      "d": 6791.666666666628,
      "v": 63
    },
    {
      "midi": 48,
      "hit": false,
      "t": 540000,
      "d": 2145.833333333372,
      "v": 52
    },
    {
      "midi": 53,
      "hit": false,
      "t": 540000,
      "d": 4791.666666666628,
      "v": 44
    },
    {
      "midi": 57,
      "hit": false,
      "t": 540000,
      "d": 6791.666666666744,
      "v": 60
    },
    {
      "midi": 67,
      "hit": false,
      "t": 540041.6666666665,
      "d": 6791.666666666628,
      "v": 63
    },
    {
      "midi": 48,
      "hit": false,
      "t": 542500,
      "d": 3458.333333333372,
      "v": 53
    },
    {
      "midi": 60,
      "hit": false,
      "t": 542500,
      "d": 3541.6666666667443,
      "v": 53
    },
    {
      "midi": 53,
      "hit": false,
      "t": 545000,
      "d": 4791.666666666861,
      "v": 44
    },
    {
      "midi": 48,
      "hit": false,
      "t": 546666.6666666667,
      "d": 2520.833333333372,
      "v": 48
    },
    {
      "midi": 88,
      "hit": false,
      "t": 547499.9999999998,
      "d": 562.5,
      "v": 67
    },
    {
      "midi": 60,
      "hit": false,
      "t": 547499.9999999998,
      "d": 895.8333333333721,
      "v": 52
    },
    {
      "midi": 57,
      "hit": false,
      "t": 547499.9999999998,
      "d": 3520.833333333372,
      "v": 48
    },
    {
      "midi": 45,
      "hit": false,
      "t": 547500.0000000001,
      "d": 2208.333333333372,
      "v": 55
    },
    {
      "midi": 65,
      "hit": false,
      "t": 547500.0000000001,
      "d": 3562.5000000001164,
      "v": 43
    },
    {
      "midi": 89,
      "hit": false,
      "t": 548145.8333333331,
      "d": 562.5,
      "v": 54
    },
    {
      "midi": 88,
      "hit": false,
      "t": 548749.9999999998,
      "d": 645.8333333333721,
      "v": 68
    },
    {
      "midi": 60,
      "hit": false,
      "t": 548749.9999999998,
      "d": 875,
      "v": 46
    },
    {
      "midi": 81,
      "hit": false,
      "t": 549458.3333333331,
      "d": 562.5,
      "v": 54
    },
    {
      "midi": 60,
      "hit": false,
      "t": 549999.9999999998,
      "d": 1562.5,
      "v": 51
    },
    {
      "midi": 57,
      "hit": false,
      "t": 550000.0000000002,
      "d": 3770.833333333372,
      "v": 41
    },
    {
      "midi": 53,
      "hit": false,
      "t": 550000.0000000002,
      "d": 3812.5,
      "v": 45
    },
    {
      "midi": 52,
      "hit": false,
      "t": 550000.0000000002,
      "d": 3895.833333333372,
      "v": 52
    },
    {
      "midi": 84,
      "hit": false,
      "t": 550020.8333333331,
      "d": 2937.5,
      "v": 72
    },
    {
      "midi": 48,
      "hit": false,
      "t": 551666.6666666669,
      "d": 2375.0000000001164,
      "v": 45
    },
    {
      "midi": 57,
      "hit": false,
      "t": 552499.9999999998,
      "d": 4833.333333333372,
      "v": 52
    },
    {
      "midi": 60,
      "hit": false,
      "t": 552500.0000000002,
      "d": 3645.8333333334886,
      "v": 52
    },
    {
      "midi": 45,
      "hit": false,
      "t": 552500.0000000002,
      "d": 3916.6666666668607,
      "v": 50
    },
    {
      "midi": 60,
      "hit": false,
      "t": 552520.8333333331,
      "d": 4770.833333333372,
      "v": 52
    },
    {
      "midi": 57,
      "hit": false,
      "t": 555000.0000000003,
      "d": 4833.333333333489,
      "v": 52
    },
    {
      "midi": 53,
      "hit": false,
      "t": 555000.0000000003,
      "d": 4958.333333333605,
      "v": 51
    },
    {
      "midi": 48,
      "hit": false,
      "t": 556666.6666666671,
      "d": 2270.833333333372,
      "v": 52
    },
    {
      "midi": 65,
      "hit": false,
      "t": 557500.0000000005,
      "d": 2354.1666666667443,
      "v": 51
    },
    {
      "midi": 45,
      "hit": false,
      "t": 557500.0000000005,
      "d": 2437.5000000001164,
      "v": 44
    },
    {
      "midi": 44,
      "hit": false,
      "t": 560000.0000000006,
      "d": 2500,
      "v": 49
    },
    {
      "midi": 50,
      "hit": false,
      "t": 560000.0000000006,
      "d": 4375,
      "v": 47
    },
    {
      "midi": 53,
      "hit": false,
      "t": 560000.0000000006,
      "d": 4375,
      "v": 47
    },
    {
      "midi": 59,
      "hit": false,
      "t": 562499.9999999998,
      "d": 1791.6666666666279,
      "v": 56
    },
    {
      "midi": 62,
      "hit": false,
      "t": 562500.0000000006,
      "d": 3687.5,
      "v": 40
    },
    {
      "midi": 47,
      "hit": false,
      "t": 562500.0000000006,
      "d": 5000,
      "v": 51
    },
    {
      "midi": 62,
      "hit": false,
      "t": 563749.9999999998,
      "d": 1812.5,
      "v": 45
    },
    {
      "midi": 44,
      "hit": false,
      "t": 564166.6666666672,
      "d": 3083.333333333372,
      "v": 47
    },
    {
      "midi": 59,
      "hit": false,
      "t": 564999.9999999998,
      "d": 4833.333333333372,
      "v": 58
    },
    {
      "midi": 50,
      "hit": false,
      "t": 565000.0000000006,
      "d": 4375,
      "v": 44
    },
    {
      "midi": 53,
      "hit": false,
      "t": 565000.0000000006,
      "d": 4375,
      "v": 44
    },
    {
      "midi": 62,
      "hit": false,
      "t": 566249.9999999998,
      "d": 3062.5,
      "v": 47
    },
    {
      "midi": 44,
      "hit": false,
      "t": 567500.0000000006,
      "d": 2000,
      "v": 47
    },
    {
      "midi": 65,
      "hit": false,
      "t": 567500.0000000006,
      "d": 3958.333333333372,
      "v": 39
    },
    {
      "midi": 44,
      "hit": false,
      "t": 570000.0000000006,
      "d": 3125,
      "v": 42
    },
    {
      "midi": 53,
      "hit": false,
      "t": 570000.0000000006,
      "d": 3354.166666666628,
      "v": 45
    },
    {
      "midi": 50,
      "hit": false,
      "t": 570000.0000000006,
      "d": 4375,
      "v": 45
    },
    {
      "midi": 71,
      "hit": false,
      "t": 571249.9999999998,
      "d": 1104.1666666666279,
      "v": 47
    },
    {
      "midi": 68,
      "hit": false,
      "t": 572499.9999999998,
      "d": 1083.3333333333721,
      "v": 60
    },
    {
      "midi": 62,
      "hit": false,
      "t": 572500.0000000006,
      "d": 2395.833333333372,
      "v": 42
    },
    {
      "midi": 47,
      "hit": false,
      "t": 572500.0000000006,
      "d": 3125,
      "v": 52
    },
    {
      "midi": 71,
      "hit": false,
      "t": 573749.9999999998,
      "d": 1270.8333333333721,
      "v": 52
    },
    {
      "midi": 44,
      "hit": false,
      "t": 574166.6666666672,
      "d": 2500,
      "v": 49
    },
    {
      "midi": 53,
      "hit": false,
      "t": 574166.6666666672,
      "d": 4375,
      "v": 43
    },
    {
      "midi": 68,
      "hit": false,
      "t": 574999.9999999998,
      "d": 1895.8333333333721,
      "v": 48
    },
    {
      "midi": 65,
      "hit": false,
      "t": 575000.0000000006,
      "d": 2375,
      "v": 42
    },
    {
      "midi": 50,
      "hit": false,
      "t": 575000.0000000006,
      "d": 4375,
      "v": 43
    },
    {
      "midi": 62,
      "hit": false,
      "t": 577500.0000000006,
      "d": 2250,
      "v": 42
    },
    {
      "midi": 44,
      "hit": false,
      "t": 577500.0000000006,
      "d": 2500,
      "v": 44
    },
    {
      "midi": 47,
      "hit": false,
      "t": 577500.0000000006,
      "d": 2500,
      "v": 54
    },
    {
      "midi": 88,
      "hit": false,
      "t": 577520.8333333331,
      "d": 708.3333333333721,
      "v": 61
    },
    {
      "midi": 89,
      "hit": false,
      "t": 578083.3333333331,
      "d": 791.6666666667443,
      "v": 66
    },
    {
      "midi": 85,
      "hit": false,
      "t": 578749.9999999999,
      "d": 562.5,
      "v": 68
    },
    {
      "midi": 88,
      "hit": false,
      "t": 579374.9999999999,
      "d": 583.3333333333721,
      "v": 65
    },
    {
      "midi": 55,
      "hit": false,
      "t": 580000.0000000006,
      "d": 3895.833333333372,
      "v": 48
    },
    {
      "midi": 46,
      "hit": false,
      "t": 580000.0000000006,
      "d": 4000,
      "v": 45
    },
    {
      "midi": 50,
      "hit": false,
      "t": 580000.0000000006,
      "d": 4041.666666666628,
      "v": 48
    },
    {
      "midi": 86,
      "hit": false,
      "t": 580041.6666666666,
      "d": 2854.166666666628,
      "v": 69
    },
    {
      "midi": 53,
      "hit": false,
      "t": 582500.0000000006,
      "d": 3437.5,
      "v": 46
    },
    {
      "midi": 70,
      "hit": false,
      "t": 582500.0000000006,
      "d": 4125,
      "v": 53
    },
    {
      "midi": 46,
      "hit": false,
      "t": 583749.9999999999,
      "d": 5083.333333333372,
      "v": 49
    },
    {
      "midi": 65,
      "hit": false,
      "t": 584999.9999999999,
      "d": 916.6666666666279,
      "v": 52
    },
    {
      "midi": 46,
      "hit": false,
      "t": 585000.0000000006,
      "d": 1812.5,
      "v": 49
    },
    {
      "midi": 50,
      "hit": false,
      "t": 585000.0000000006,
      "d": 4354.166666666628,
      "v": 45
    },
    {
      "midi": 55,
      "hit": false,
      "t": 585000.0000000006,
      "d": 4354.166666666628,
      "v": 45
    },
    {
      "midi": 67,
      "hit": false,
      "t": 586249.9999999999,
      "d": 750,
      "v": 56
    },
    {
      "midi": 67,
      "hit": false,
      "t": 587499.9999999999,
      "d": 833.3333333333721,
      "v": 50
    },
    {
      "midi": 46,
      "hit": false,
      "t": 587500.0000000006,
      "d": 2229.166666666628,
      "v": 43
    },
    {
      "midi": 67,
      "hit": false,
      "t": 587500.0000000006,
      "d": 4833.333333333372,
      "v": 59
    },
    {
      "midi": 69,
      "hit": false,
      "t": 588749.9999999999,
      "d": 729.1666666667443,
      "v": 60
    },
    {
      "midi": 69,
      "hit": false,
      "t": 590000,
      "d": 4604.166666666628,
      "v": 50
    },
    {
      "midi": 55,
      "hit": false,
      "t": 590000.0000000006,
      "d": 3833.333333333372,
      "v": 48
    },
    {
      "midi": 50,
      "hit": false,
      "t": 590000.0000000006,
      "d": 4520.833333333372,
      "v": 48
    },
    {
      "midi": 46,
      "hit": false,
      "t": 591250,
      "d": 5166.666666666628,
      "v": 51
    },
    {
      "midi": 53,
      "hit": false,
      "t": 592500.0000000006,
      "d": 1791.6666666667443,
      "v": 38
    },
    {
      "midi": 46,
      "hit": false,
      "t": 592500.0000000006,
      "d": 3958.333333333372,
      "v": 47
    },
    {
      "midi": 70,
      "hit": false,
      "t": 592500.0000000006,
      "d": 4500,
      "v": 44
    },
    {
      "midi": 55,
      "hit": false,
      "t": 594166.6666666673,
      "d": 4770.833333333256,
      "v": 46
    },
    {
      "midi": 62,
      "hit": false,
      "t": 595000,
      "d": 2395.8333333332557,
      "v": 57
    },
    {
      "midi": 50,
      "hit": false,
      "t": 595000.0000000006,
      "d": 4666.666666666628,
      "v": 46
    },
    {
      "midi": 53,
      "hit": false,
      "t": 595000.0000000006,
      "d": 4812.5,
      "v": 47
    },
    {
      "midi": 60,
      "hit": false,
      "t": 597499.9999999999,
      "d": 2437.5,
      "v": 54
    },
    {
      "midi": 67,
      "hit": false,
      "t": 597500.0000000006,
      "d": 2229.166666666628,
      "v": 52
    },
    {
      "midi": 46,
      "hit": false,
      "t": 597500.0000000006,
      "d": 2333.333333333372,
      "v": 49
    },
    {
      "midi": 59,
      "hit": false,
      "t": 599999.9999999999,
      "d": 3500,
      "v": 54
    },
    {
      "midi": 74,
      "hit": false,
      "t": 599999.9999999999,
      "d": 4750,
      "v": 54
    },
    {
      "midi": 59,
      "hit": false,
      "t": 600000.0000000006,
      "d": 2500,
      "v": 48
    },
    {
      "midi": 50,
      "hit": false,
      "t": 600000.0000000006,
      "d": 4395.833333333372,
      "v": 48
    },
    {
      "midi": 52,
      "hit": false,
      "t": 600000.0000000006,
      "d": 7062.5,
      "v": 48
    },
    {
      "midi": 57,
      "hit": false,
      "t": 602500.0000000006,
      "d": 2000,
      "v": 48
    },
    {
      "midi": 64,
      "hit": false,
      "t": 602500.0000000006,
      "d": 3166.666666666628,
      "v": 44
    },
    {
      "midi": 43,
      "hit": false,
      "t": 602500.0000000006,
      "d": 3875,
      "v": 46
    },
    {
      "midi": 57,
      "hit": false,
      "t": 604999.9999999999,
      "d": 4583.333333333372,
      "v": 50
    },
    {
      "midi": 64,
      "hit": false,
      "t": 604999.9999999999,
      "d": 4583.333333333372,
      "v": 49
    },
    {
      "midi": 57,
      "hit": false,
      "t": 605000.0000000006,
      "d": 4083.333333333372,
      "v": 45
    },
    {
      "midi": 52,
      "hit": false,
      "t": 607500.0000000006,
      "d": 2125,
      "v": 52
    },
    {
      "midi": 43,
      "hit": false,
      "t": 607500.0000000006,
      "d": 6812.5,
      "v": 44
    },
    {
      "midi": 59,
      "hit": false,
      "t": 610000.0000000006,
      "d": 2500,
      "v": 48
    },
    {
      "midi": 57,
      "hit": false,
      "t": 610000.0000000006,
      "d": 4437.5,
      "v": 46
    },
    {
      "midi": 52,
      "hit": false,
      "t": 610000.0000000006,
      "d": 6979.166666666628,
      "v": 46
    },
    {
      "midi": 64,
      "hit": false,
      "t": 612500.0000000006,
      "d": 3833.333333333372,
      "v": 39
    },
    {
      "midi": 50,
      "hit": false,
      "t": 612500.0000000006,
      "d": 4062.5,
      "v": 52
    },
    {
      "midi": 88,
      "hit": false,
      "t": 613312.4999999999,
      "d": 500,
      "v": 50
    },
    {
      "midi": 91,
      "hit": false,
      "t": 613895.8333333333,
      "d": 666.6666666666279,
      "v": 57
    },
    {
      "midi": 89,
      "hit": false,
      "t": 614437.4999999999,
      "d": 729.1666666666279,
      "v": 61
    },
    {
      "midi": 55,
      "hit": false,
      "t": 615000.0000000006,
      "d": 4770.833333333256,
      "v": 47
    },
    {
      "midi": 59,
      "hit": false,
      "t": 615000.0000000006,
      "d": 5041.666666666511,
      "v": 46
    },
    {
      "midi": 88,
      "hit": false,
      "t": 615104.1666666665,
      "d": 583.3333333333721,
      "v": 67
    },
    {
      "midi": 87,
      "hit": false,
      "t": 615729.1666666665,
      "d": 541.6666666666279,
      "v": 69
    },
    {
      "midi": 86,
      "hit": false,
      "t": 616395.8333333331,
      "d": 458.33333333337214,
      "v": 66
    },
    {
      "midi": 84,
      "hit": false,
      "t": 616916.6666666665,
      "d": 750,
      "v": 70
    },
    {
      "midi": 43,
      "hit": false,
      "t": 617500.0000000006,
      "d": 2229.166666666628,
      "v": 44
    },
    {
      "midi": 52,
      "hit": false,
      "t": 617500.0000000006,
      "d": 2291.666666666628,
      "v": 44
    },
    {
      "midi": 64,
      "hit": false,
      "t": 617500.0000000006,
      "d": 2333.3333333332557,
      "v": 41
    },
    {
      "midi": 50,
      "hit": false,
      "t": 617500.0000000006,
      "d": 2374.9999999998836,
      "v": 44
    },
    {
      "midi": 83,
      "hit": false,
      "t": 617604.1666666665,
      "d": 1333.3333333333721,
      "v": 63
    },
    {
      "midi": 79,
      "hit": false,
      "t": 618416.6666666665,
      "d": 770.8333333333721,
      "v": 72
    },
    {
      "midi": 86,
      "hit": false,
      "t": 619312.4999999999,
      "d": 750,
      "v": 70
    },
    {
      "midi": 63,
      "hit": false,
      "t": 620000.0000000005,
      "d": 3583.333333333372,
      "v": 51
    },
    {
      "midi": 48,
      "hit": false,
      "t": 620000.0000000005,
      "d": 4520.833333333372,
      "v": 48
    },
    {
      "midi": 55,
      "hit": false,
      "t": 620000.0000000005,
      "d": 4541.666666666744,
      "v": 48
    },
    {
      "midi": 58,
      "hit": false,
      "t": 620000.0000000005,
      "d": 5041.666666666744,
      "v": 46
    },
    {
      "midi": 84,
      "hit": false,
      "t": 620020.8333333333,
      "d": 2083.3333333332557,
      "v": 67
    },
    {
      "midi": 55,
      "hit": false,
      "t": 622499.9999999999,
      "d": 4416.666666666628,
      "v": 55
    },
    {
      "midi": 58,
      "hit": false,
      "t": 622499.9999999999,
      "d": 4479.166666666628,
      "v": 55
    },
    {
      "midi": 51,
      "hit": false,
      "t": 622500.0000000005,
      "d": 2166.6666666667443,
      "v": 38
    },
    {
      "midi": 46,
      "hit": false,
      "t": 622500.0000000005,
      "d": 3958.333333333372,
      "v": 47
    },
    {
      "midi": 51,
      "hit": false,
      "t": 625000.0000000006,
      "d": 1562.4999999998836,
      "v": 47
    },
    {
      "midi": 63,
      "hit": false,
      "t": 625000.0000000006,
      "d": 2499.9999999998836,
      "v": 53
    },
    {
      "midi": 48,
      "hit": false,
      "t": 625000.0000000006,
      "d": 4666.666666666511,
      "v": 46
    },
    {
      "midi": 55,
      "hit": false,
      "t": 625000.0000000006,
      "d": 4770.833333333256,
      "v": 46
    },
    {
      "midi": 51,
      "hit": false,
      "t": 626666.6666666671,
      "d": 2812.5,
      "v": 47
    },
    {
      "midi": 70,
      "hit": false,
      "t": 627500.0000000005,
      "d": 2187.5,
      "v": 50
    },
    {
      "midi": 46,
      "hit": false,
      "t": 627500.0000000005,
      "d": 2333.333333333372,
      "v": 49
    },
    {
      "midi": 62,
      "hit": false,
      "t": 628124.9999999999,
      "d": 833.3333333333721,
      "v": 55
    },
    {
      "midi": 63,
      "hit": false,
      "t": 628833.3333333333,
      "d": 708.3333333332557,
      "v": 65
    },
    {
      "midi": 65,
      "hit": false,
      "t": 629374.9999999999,
      "d": 708.3333333333721,
      "v": 62
    },
    {
      "midi": 66,
      "hit": false,
      "t": 629999.9999999999,
      "d": 2500,
      "v": 62
    },
    {
      "midi": 66,
      "hit": false,
      "t": 630000.0000000005,
      "d": 2041.6666666666279,
      "v": 49
    },
    {
      "midi": 51,
      "hit": false,
      "t": 630000.0000000005,
      "d": 2166.666666666628,
      "v": 38
    },
    {
      "midi": 46,
      "hit": false,
      "t": 630000.0000000005,
      "d": 2354.166666666628,
      "v": 48
    },
    {
      "midi": 54,
      "hit": false,
      "t": 630000.0000000005,
      "d": 4541.666666666628,
      "v": 48
    },
    {
      "midi": 70,
      "hit": false,
      "t": 632499.9999999999,
      "d": 1541.6666666666279,
      "v": 65
    },
    {
      "midi": 51,
      "hit": false,
      "t": 632500.0000000005,
      "d": 1312.5,
      "v": 38
    },
    {
      "midi": 46,
      "hit": false,
      "t": 632500.0000000005,
      "d": 2229.166666666628,
      "v": 47
    },
    {
      "midi": 63,
      "hit": false,
      "t": 632500.0000000005,
      "d": 2416.666666666628,
      "v": 40
    },
    {
      "midi": 51,
      "hit": false,
      "t": 634166.6666666671,
      "d": 4812.499999999884,
      "v": 47
    },
    {
      "midi": 70,
      "hit": false,
      "t": 634999.9999999999,
      "d": 4375,
      "v": 58
    },
    {
      "midi": 46,
      "hit": false,
      "t": 635000.0000000005,
      "d": 2104.166666666628,
      "v": 46
    },
    {
      "midi": 54,
      "hit": false,
      "t": 635000.0000000005,
      "d": 2291.666666666628,
      "v": 46
    },
    {
      "midi": 70,
      "hit": false,
      "t": 635000.0000000005,
      "d": 4729.166666666511,
      "v": 44
    },
    {
      "midi": 63,
      "hit": false,
      "t": 637458.3333333337,
      "d": 2416.6666666665114,
      "v": 40
    },
    {
      "midi": 46,
      "hit": false,
      "t": 637500.0000000003,
      "d": 2333.3333333332557,
      "v": 49
    },
    {
      "midi": 54,
      "hit": false,
      "t": 637541.666666667,
      "d": 2291.666666666628,
      "v": 46
    },
    {
      "midi": 62,
      "hit": false,
      "t": 639999.9999999999,
      "d": 2375,
      "v": 61
    },
    {
      "midi": 65,
      "hit": false,
      "t": 639999.9999999999,
      "d": 2375,
      "v": 61
    },
    {
      "midi": 50,
      "hit": false,
      "t": 640000.0000000002,
      "d": 2166.666666666628,
      "v": 38
    },
    {
      "midi": 46,
      "hit": false,
      "t": 640000.0000000002,
      "d": 2354.166666666628,
      "v": 48
    },
    {
      "midi": 53,
      "hit": false,
      "t": 640000.0000000002,
      "d": 4541.666666666628,
      "v": 48
    },
    {
      "midi": 50,
      "hit": false,
      "t": 642500.0000000002,
      "d": 2166.666666666628,
      "v": 38
    },
    {
      "midi": 46,
      "hit": false,
      "t": 642500.0000000002,
      "d": 2229.166666666628,
      "v": 47
    },
    {
      "midi": 65,
      "hit": false,
      "t": 642500.0000000002,
      "d": 7270.833333333256,
      "v": 44
    },
    {
      "midi": 65,
      "hit": false,
      "t": 643333.3333333333,
      "d": 979.1666666667443,
      "v": 51
    },
    {
      "midi": 74,
      "hit": false,
      "t": 644166.6666666666,
      "d": 833.3333333333721,
      "v": 63
    },
    {
      "midi": 72,
      "hit": false,
      "t": 645000,
      "d": 3229.166666666628,
      "v": 64
    },
    {
      "midi": 46,
      "hit": false,
      "t": 645000.0000000002,
      "d": 2104.166666666628,
      "v": 46
    },
    {
      "midi": 53,
      "hit": false,
      "t": 645000.0000000002,
      "d": 2291.666666666628,
      "v": 46
    },
    {
      "midi": 50,
      "hit": false,
      "t": 645000.0000000002,
      "d": 4812.5,
      "v": 47
    },
    {
      "midi": 60,
      "hit": false,
      "t": 645041.6666666669,
      "d": 1958.3333333333721,
      "v": 59
    },
    {
      "midi": 65,
      "hit": false,
      "t": 646666.6666666666,
      "d": 2250,
      "v": 60
    },
    {
      "midi": 53,
      "hit": false,
      "t": 647500.0000000002,
      "d": 2291.666666666628,
      "v": 46
    },
    {
      "midi": 46,
      "hit": false,
      "t": 647500.0000000002,
      "d": 2333.333333333372,
      "v": 49
    },
    {
      "midi": 60,
      "hit": false,
      "t": 647541.6666666669,
      "d": 2187.5,
      "v": 56
    },
    {
      "midi": 50,
      "hit": false,
      "t": 650000.0000000002,
      "d": 2166.666666666628,
      "v": 38
    },
    {
      "midi": 47,
      "hit": false,
      "t": 650000.0000000002,
      "d": 2354.166666666628,
      "v": 48
    },
    {
      "midi": 55,
      "hit": false,
      "t": 650000.0000000002,
      "d": 4541.666666666628,
      "v": 48
    },
    {
      "midi": 71,
      "hit": false,
      "t": 651666.6666666666,
      "d": 3562.5,
      "v": 55
    },
    {
      "midi": 50,
      "hit": false,
      "t": 652500.0000000002,
      "d": 2166.666666666628,
      "v": 38
    },
    {
      "midi": 71,
      "hit": false,
      "t": 652500.0000000002,
      "d": 2583.333333333372,
      "v": 48
    },
    {
      "midi": 47,
      "hit": false,
      "t": 652500.0000000002,
      "d": 4562.5,
      "v": 47
    },
    {
      "midi": 55,
      "hit": false,
      "t": 655000.0000000002,
      "d": 2291.666666666628,
      "v": 39
    },
    {
      "midi": 62,
      "hit": false,
      "t": 655000.0000000002,
      "d": 2541.666666666628,
      "v": 40
    },
    {
      "midi": 50,
      "hit": false,
      "t": 655000.0000000002,
      "d": 4812.5,
      "v": 47
    },
    {
      "midi": 53,
      "hit": false,
      "t": 657500.0000000002,
      "d": 2291.666666666628,
      "v": 41
    },
    {
      "midi": 71,
      "hit": false,
      "t": 657500.0000000002,
      "d": 2291.666666666628,
      "v": 47
    },
    {
      "midi": 47,
      "hit": false,
      "t": 657500.0000000002,
      "d": 2333.333333333372,
      "v": 49
    },
    {
      "midi": 55,
      "hit": false,
      "t": 657500.0000000002,
      "d": 2333.333333333372,
      "v": 48
    },
    {
      "midi": 86,
      "hit": false,
      "t": 658145.8333333333,
      "d": 729.1666666666279,
      "v": 61
    },
    {
      "midi": 79,
      "hit": false,
      "t": 659020.8333333333,
      "d": 2833.3333333332557,
      "v": 68
    },
    {
      "midi": 86,
      "hit": false,
      "t": 659937.4999999999,
      "d": 708.3333333333721,
      "v": 66
    },
    {
      "midi": 46,
      "hit": false,
      "t": 660000.0000000002,
      "d": 4104.166666666628,
      "v": 47
    },
    {
      "midi": 50,
      "hit": false,
      "t": 660000.0000000002,
      "d": 4375,
      "v": 48
    },
    {
      "midi": 55,
      "hit": false,
      "t": 660000.0000000002,
      "d": 4541.666666666628,
      "v": 48
    },
    {
      "midi": 88,
      "hit": false,
      "t": 660520.8333333333,
      "d": 729.1666666666279,
      "v": 68
    },
    {
      "midi": 84,
      "hit": false,
      "t": 661083.3333333333,
      "d": 2562.5,
      "v": 58
    },
    {
      "midi": 62,
      "hit": false,
      "t": 662499.9999999999,
      "d": 6500,
      "v": 49
    },
    {
      "midi": 58,
      "hit": false,
      "t": 662499.9999999999,
      "d": 6520.833333333372,
      "v": 49
    },
    {
      "midi": 52,
      "hit": false,
      "t": 662500.0000000002,
      "d": 2166.666666666628,
      "v": 38
    },
    {
      "midi": 70,
      "hit": false,
      "t": 662500.0000000002,
      "d": 2229.166666666628,
      "v": 41
    },
    {
      "midi": 48,
      "hit": false,
      "t": 662500.0000000002,
      "d": 2291.666666666628,
      "v": 48
    },
    {
      "midi": 62,
      "hit": false,
      "t": 665000.0000000002,
      "d": 2625,
      "v": 36
    },
    {
      "midi": 48,
      "hit": false,
      "t": 665000.0000000002,
      "d": 4666.666666666628,
      "v": 46
    },
    {
      "midi": 55,
      "hit": false,
      "t": 665000.0000000002,
      "d": 4770.833333333256,
      "v": 46
    },
    {
      "midi": 52,
      "hit": false,
      "t": 665000.0000000002,
      "d": 4812.499999999884,
      "v": 47
    },
    {
      "midi": 70,
      "hit": false,
      "t": 667500.0000000002,
      "d": 2333.3333333332557,
      "v": 40
    },
    {
      "midi": 58,
      "hit": false,
      "t": 669999.9999999999,
      "d": 4416.666666666628,
      "v": 51
    },
    {
      "midi": 48,
      "hit": false,
      "t": 670000.0000000001,
      "d": 4437.5,
      "v": 48
    },
    {
      "midi": 53,
      "hit": false,
      "t": 670000.0000000001,
      "d": 4500,
      "v": 38
    },
    {
      "midi": 58,
      "hit": false,
      "t": 670000.0000000001,
      "d": 4541.666666666628,
      "v": 48
    },
    {
      "midi": 53,
      "hit": false,
      "t": 670041.6666666665,
      "d": 4666.666666666628,
      "v": 51
    },
    {
      "midi": 53,
      "hit": false,
      "t": 675000.0000000001,
      "d": 4562.5,
      "v": 46
    },
    {
      "midi": 57,
      "hit": false,
      "t": 675000.0000000001,
      "d": 4625,
      "v": 46
    },
    {
      "midi": 63,
      "hit": false,
      "t": 675000.0000000001,
      "d": 4687.5,
      "v": 46
    },
    {
      "midi": 48,
      "hit": false,
      "t": 675000.0000000001,
      "d": 4812.5,
      "v": 47
    },
    {
      "midi": 53,
      "hit": false,
      "t": 675062.4999999998,
      "d": 4666.666666666628,
      "v": 50
    },
    {
      "midi": 57,
      "hit": false,
      "t": 675062.4999999998,
      "d": 4729.166666666628,
      "v": 50
    },
    {
      "midi": 77,
      "hit": false,
      "t": 679999.9999999998,
      "d": 1333.3333333333721,
      "v": 52
    },
    {
      "midi": 46,
      "hit": false,
      "t": 680000.0000000001,
      "d": 4541.666666666628,
      "v": 47
    },
    {
      "midi": 58,
      "hit": false,
      "t": 680000.0000000001,
      "d": 4541.666666666628,
      "v": 44
    },
    {
      "midi": 50,
      "hit": false,
      "t": 680000.0000000001,
      "d": 4791.666666666628,
      "v": 38
    },
    {
      "midi": 53,
      "hit": false,
      "t": 680000.0000000001,
      "d": 4791.666666666628,
      "v": 38
    },
    {
      "midi": 74,
      "hit": false,
      "t": 681249.9999999998,
      "d": 1291.6666666666279,
      "v": 45
    },
    {
      "midi": 77,
      "hit": false,
      "t": 682499.9999999998,
      "d": 1354.1666666666279,
      "v": 56
    },
    {
      "midi": 74,
      "hit": false,
      "t": 683749.9999999998,
      "d": 1229.1666666666279,
      "v": 48
    },
    {
      "midi": 77,
      "hit": false,
      "t": 684999.9999999998,
      "d": 1354.1666666666279,
      "v": 57
    },
    {
      "midi": 46,
      "hit": false,
      "t": 685000.0000000001,
      "d": 4541.666666666628,
      "v": 45
    },
    {
      "midi": 56,
      "hit": false,
      "t": 685000.0000000001,
      "d": 4541.666666666628,
      "v": 43
    },
    {
      "midi": 49,
      "hit": false,
      "t": 685000.0000000001,
      "d": 4791.666666666628,
      "v": 45
    },
    {
      "midi": 53,
      "hit": false,
      "t": 685000.0000000001,
      "d": 4791.666666666628,
      "v": 45
    },
    {
      "midi": 73,
      "hit": false,
      "t": 686249.9999999998,
      "d": 1416.6666666666279,
      "v": 58
    },
    {
      "midi": 77,
      "hit": false,
      "t": 687499.9999999998,
      "d": 1395.8333333333721,
      "v": 56
    },
    {
      "midi": 73,
      "hit": false,
      "t": 688749.9999999998,
      "d": 1229.1666666667443,
      "v": 50
    },
    {
      "midi": 80,
      "hit": false,
      "t": 689999.9999999999,
      "d": 1270.8333333333721,
      "v": 55
    },
    {
      "midi": 56,
      "hit": false,
      "t": 690000.0000000001,
      "d": 4541.666666666628,
      "v": 44
    },
    {
      "midi": 49,
      "hit": false,
      "t": 690000.0000000001,
      "d": 4791.666666666628,
      "v": 38
    },
    {
      "midi": 52,
      "hit": false,
      "t": 690000.0000000001,
      "d": 4791.666666666628,
      "v": 38
    },
    {
      "midi": 76,
      "hit": false,
      "t": 691249.9999999999,
      "d": 1354.1666666666279,
      "v": 43
    },
    {
      "midi": 80,
      "hit": false,
      "t": 692499.9999999999,
      "d": 1500,
      "v": 57
    },
    {
      "midi": 76,
      "hit": false,
      "t": 693749.9999999999,
      "d": 1437.5,
      "v": 43
    },
    {
      "midi": 84,
      "hit": false,
      "t": 694999.9999999999,
      "d": 1291.6666666666279,
      "v": 56
    },
    {
      "midi": 56,
      "hit": false,
      "t": 695000.0000000001,
      "d": 4687.5,
      "v": 43
    },
    {
      "midi": 48,
      "hit": false,
      "t": 695000.0000000001,
      "d": 4791.666666666628,
      "v": 45
    },
    {
      "midi": 51,
      "hit": false,
      "t": 695000.0000000001,
      "d": 4791.666666666628,
      "v": 45
    },
    {
      "midi": 80,
      "hit": false,
      "t": 696249.9999999999,
      "d": 1416.6666666666279,
      "v": 47
    },
    {
      "midi": 84,
      "hit": false,
      "t": 697499.9999999999,
      "d": 1458.3333333333721,
      "v": 57
    },
    {
      "midi": 80,
      "hit": false,
      "t": 698749.9999999999,
      "d": 1291.6666666666279,
      "v": 48
    },
    {
      "midi": 82,
      "hit": false,
      "t": 699999.9999999999,
      "d": 10041.666666666628,
      "v": 56
    },
    {
      "midi": 72,
      "hit": false,
      "t": 699999.9999999999,
      "d": 10104.166666666628,
      "v": 54
    },
    {
      "midi": 77,
      "hit": false,
      "t": 699999.9999999999,
      "d": 10104.166666666628,
      "v": 55
    },
    {
      "midi": 50,
      "hit": false,
      "t": 700000.0000000001,
      "d": 10062.5,
      "v": 38
    },
    {
      "midi": 53,
      "hit": false,
      "t": 700000.0000000001,
      "d": 10062.5,
      "v": 38
    },
    {
      "midi": 58,
      "hit": false,
      "t": 700000.0000000001,
      "d": 10062.5,
      "v": 44
    },
    {
      "midi": 60,
      "hit": false,
      "t": 700000.0000000001,
      "d": 10062.5,
      "v": 44
    }
  ]
}