{
  "jsonPath": "Rock/Soft Rock/Michael Bolton/how-am-i-supposed-to-live-without-you.json",
  "path": "Rock\\Soft Rock\\Michael Bolton\\How Am I Supposed To Live Without You.mid",
  "name": "How Am I Supposed To Live Without You",
  "difficulty": "Advanced",
  "bpm": 69.99998833333528,
  "notes": [
    {
      "midi": 66,
      "hit": false,
      "t": 4210.523999999999,
      "d": 1570.174574999999,
      "v": 76
    },
    {
      "midi": 43,
      "hit": false,
      "t": 4210.523999999999,
      "d": 2096.490074999999,
      "v": 100
    },
    {
      "midi": 59,
      "hit": false,
      "t": 4736.839499999999,
      "d": 3149.121074999999,
      "v": 95
    },
    {
      "midi": 71,
      "hit": false,
      "t": 5263.154999999999,
      "d": 1043.8590749999994,
      "v": 100
    },
    {
      "midi": 66,
      "hit": false,
      "t": 5789.4704999999985,
      "d": 517.5435749999997,
      "v": 103
    },
    {
      "midi": 64,
      "hit": false,
      "t": 6315.785999999998,
      "d": 1570.174575,
      "v": 94
    },
    {
      "midi": 43,
      "hit": false,
      "t": 6315.785999999998,
      "d": 2096.4900749999997,
      "v": 94
    },
    {
      "midi": 61,
      "hit": false,
      "t": 7894.732499999998,
      "d": 254.3858250000003,
      "v": 96
    },
    {
      "midi": 62,
      "hit": false,
      "t": 8157.890249999999,
      "d": 254.3858249999994,
      "v": 92
    },
    {
      "midi": 64,
      "hit": false,
      "t": 8421.047999999997,
      "d": 1570.174575000001,
      "v": 83
    },
    {
      "midi": 42,
      "hit": false,
      "t": 8421.047999999997,
      "d": 2096.4900749999997,
      "v": 83
    },
    {
      "midi": 57,
      "hit": false,
      "t": 8947.363499999998,
      "d": 1570.174574999999,
      "v": 87
    },
    {
      "midi": 69,
      "hit": false,
      "t": 9473.678999999998,
      "d": 1043.8590749999985,
      "v": 95
    },
    {
      "midi": 61,
      "hit": false,
      "t": 9999.994499999997,
      "d": 517.5435749999997,
      "v": 99
    },
    {
      "midi": 57,
      "hit": false,
      "t": 10526.309999999996,
      "d": 1570.174574999999,
      "v": 81
    },
    {
      "midi": 59,
      "hit": false,
      "t": 10526.309999999996,
      "d": 1570.174574999999,
      "v": 81
    },
    {
      "midi": 47,
      "hit": false,
      "t": 10526.309999999996,
      "d": 2096.490074999998,
      "v": 81
    },
    {
      "midi": 62,
      "hit": false,
      "t": 10526.309999999996,
      "d": 2096.490074999998,
      "v": 81
    },
    {
      "midi": 52,
      "hit": false,
      "t": 12105.256499999994,
      "d": 4728.067574999999,
      "v": 80
    },
    {
      "midi": 57,
      "hit": false,
      "t": 12368.414249999994,
      "d": 4464.909824999999,
      "v": 86
    },
    {
      "midi": 59,
      "hit": false,
      "t": 12499.993124999994,
      "d": 4333.33095,
      "v": 92
    },
    {
      "midi": 64,
      "hit": false,
      "t": 12631.571999999993,
      "d": 4201.752075,
      "v": 96
    },
    {
      "midi": 59,
      "hit": false,
      "t": 16842.095999999994,
      "d": 2096.490074999998,
      "v": 59
    },
    {
      "midi": 62,
      "hit": false,
      "t": 16842.095999999994,
      "d": 2096.490074999998,
      "v": 59
    },
    {
      "midi": 57,
      "hit": false,
      "t": 16842.095999999994,
      "d": 4201.752075,
      "v": 59
    },
    {
      "midi": 64,
      "hit": false,
      "t": 18947.357999999993,
      "d": 1043.8590750000003,
      "v": 67
    },
    {
      "midi": 61,
      "hit": false,
      "t": 18947.357999999993,
      "d": 2096.4900750000015,
      "v": 67
    },
    {
      "midi": 64,
      "hit": false,
      "t": 19999.988999999994,
      "d": 1043.8590750000003,
      "v": 67
    },
    {
      "midi": 62,
      "hit": false,
      "t": 21052.619999999995,
      "d": 3149.1210750000027,
      "v": 64
    },
    {
      "midi": 45,
      "hit": false,
      "t": 21578.935499999996,
      "d": 1043.8590750000003,
      "v": 64
    },
    {
      "midi": 50,
      "hit": false,
      "t": 22105.250999999997,
      "d": 1043.8590750000003,
      "v": 64
    },
    {
      "midi": 42,
      "hit": false,
      "t": 22631.566499999997,
      "d": 1043.8590750000003,
      "v": 64
    },
    {
      "midi": 45,
      "hit": false,
      "t": 23157.881999999998,
      "d": 1043.8590750000003,
      "v": 64
    },
    {
      "midi": 50,
      "hit": false,
      "t": 23684.1975,
      "d": 1570.174575000001,
      "v": 64
    },
    {
      "midi": 64,
      "hit": false,
      "t": 24210.513,
      "d": 1043.8590750000003,
      "v": 64
    },
    {
      "midi": 62,
      "hit": false,
      "t": 25263.144,
      "d": 3149.1210750000027,
      "v": 64
    },
    {
      "midi": 47,
      "hit": false,
      "t": 25789.4595,
      "d": 1043.8590750000003,
      "v": 64
    },
    {
      "midi": 50,
      "hit": false,
      "t": 26315.775,
      "d": 1043.8590750000003,
      "v": 64
    },
    {
      "midi": 54,
      "hit": false,
      "t": 26842.090500000002,
      "d": 1043.8590750000003,
      "v": 64
    },
    {
      "midi": 47,
      "hit": false,
      "t": 27368.406000000003,
      "d": 1043.8590750000003,
      "v": 64
    },
    {
      "midi": 50,
      "hit": false,
      "t": 27894.721500000003,
      "d": 1043.8590750000003,
      "v": 64
    },
    {
      "midi": 64,
      "hit": false,
      "t": 28421.037000000004,
      "d": 1043.8590750000003,
      "v": 64
    },
    {
      "midi": 54,
      "hit": false,
      "t": 28947.352500000005,
      "d": 1043.8590750000003,
      "v": 64
    },
    {
      "midi": 43,
      "hit": false,
      "t": 29473.668000000005,
      "d": 1043.8590750000003,
      "v": 64
    },
    {
      "midi": 62,
      "hit": false,
      "t": 29473.668000000005,
      "d": 1043.8590750000003,
      "v": 71
    },
    {
      "midi": 47,
      "hit": false,
      "t": 29999.983500000006,
      "d": 1043.8590750000003,
      "v": 64
    },
    {
      "midi": 50,
      "hit": false,
      "t": 30526.299000000006,
      "d": 1043.8590750000003,
      "v": 64
    },
    {
      "midi": 42,
      "hit": false,
      "t": 31052.614500000007,
      "d": 517.5435749999997,
      "v": 70
    },
    {
      "midi": 54,
      "hit": false,
      "t": 31052.614500000007,
      "d": 517.5435749999997,
      "v": 70
    },
    {
      "midi": 62,
      "hit": false,
      "t": 31052.614500000007,
      "d": 1570.174575000001,
      "v": 70
    },
    {
      "midi": 52,
      "hit": false,
      "t": 31578.930000000008,
      "d": 1043.8590750000003,
      "v": 70
    },
    {
      "midi": 40,
      "hit": false,
      "t": 31578.930000000008,
      "d": 2096.490075000009,
      "v": 70
    },
    {
      "midi": 59,
      "hit": false,
      "t": 32105.245500000008,
      "d": 1043.859075000004,
      "v": 70
    },
    {
      "midi": 67,
      "hit": false,
      "t": 32631.56100000001,
      "d": 517.5435750000033,
      "v": 86
    },
    {
      "midi": 66,
      "hit": false,
      "t": 33157.87650000001,
      "d": 517.5435750000033,
      "v": 76
    },
    {
      "midi": 62,
      "hit": false,
      "t": 33684.19200000002,
      "d": 1043.8590750000003,
      "v": 70
    },
    {
      "midi": 64,
      "hit": false,
      "t": 33684.19200000002,
      "d": 1043.8590750000003,
      "v": 68
    },
    {
      "midi": 45,
      "hit": false,
      "t": 33684.19200000002,
      "d": 4201.752074999989,
      "v": 68
    },
    {
      "midi": 57,
      "hit": false,
      "t": 34736.82300000002,
      "d": 2359.6478249999927,
      "v": 93
    },
    {
      "midi": 62,
      "hit": false,
      "t": 35263.138500000015,
      "d": 2096.4900749999942,
      "v": 89
    },
    {
      "midi": 64,
      "hit": false,
      "t": 35789.45400000001,
      "d": 1043.8590750000003,
      "v": 68
    },
    {
      "midi": 64,
      "hit": false,
      "t": 36842.085000000014,
      "d": 1043.859074999993,
      "v": 68
    },
    {
      "midi": 62,
      "hit": false,
      "t": 37894.71600000001,
      "d": 1043.8590750000003,
      "v": 72
    },
    {
      "midi": 50,
      "hit": false,
      "t": 37894.71600000001,
      "d": 3149.1210750000173,
      "v": 72
    },
    {
      "midi": 54,
      "hit": false,
      "t": 38421.031500000005,
      "d": 1043.8590750000076,
      "v": 72
    },
    {
      "midi": 57,
      "hit": false,
      "t": 38947.34700000001,
      "d": 1043.8590750000076,
      "v": 72
    },
    {
      "midi": 62,
      "hit": false,
      "t": 39473.66250000001,
      "d": 1043.8590750000076,
      "v": 72
    },
    {
      "midi": 54,
      "hit": false,
      "t": 39999.97800000002,
      "d": 1043.8590750000076,
      "v": 72
    },
    {
      "midi": 57,
      "hit": false,
      "t": 40526.29350000002,
      "d": 517.5435750000033,
      "v": 72
    },
    {
      "midi": 47,
      "hit": false,
      "t": 41052.609000000026,
      "d": 1043.8590750000003,
      "v": 72
    },
    {
      "midi": 57,
      "hit": false,
      "t": 41052.609000000026,
      "d": 1043.8590750000003,
      "v": 90
    },
    {
      "midi": 61,
      "hit": false,
      "t": 41052.609000000026,
      "d": 1043.8590750000003,
      "v": 90
    },
    {
      "midi": 64,
      "hit": false,
      "t": 41052.609000000026,
      "d": 1043.8590750000003,
      "v": 90
    },
    {
      "midi": 54,
      "hit": false,
      "t": 42105.24000000003,
      "d": 517.5435750000033,
      "v": 60
    },
    {
      "midi": 59,
      "hit": false,
      "t": 42105.24000000003,
      "d": 1043.8590750000076,
      "v": 60
    },
    {
      "midi": 62,
      "hit": false,
      "t": 42105.24000000003,
      "d": 1043.8590750000076,
      "v": 60
    },
    {
      "midi": 47,
      "hit": false,
      "t": 42105.24000000003,
      "d": 3149.1210750000246,
      "v": 60
    },
    {
      "midi": 54,
      "hit": false,
      "t": 42631.55550000003,
      "d": 1043.8590750000076,
      "v": 60
    },
    {
      "midi": 59,
      "hit": false,
      "t": 43157.871000000036,
      "d": 1043.8590750000076,
      "v": 72
    },
    {
      "midi": 61,
      "hit": false,
      "t": 43684.18650000004,
      "d": 1043.8590750000076,
      "v": 72
    },
    {
      "midi": 62,
      "hit": false,
      "t": 44210.502000000044,
      "d": 1043.8590750000076,
      "v": 72
    },
    {
      "midi": 54,
      "hit": false,
      "t": 44736.81750000005,
      "d": 1570.1745750000046,
      "v": 60
    },
    {
      "midi": 64,
      "hit": false,
      "t": 45263.13300000005,
      "d": 1043.8590750000003,
      "v": 78
    },
    {
      "midi": 55,
      "hit": false,
      "t": 46315.764000000054,
      "d": 1043.8590750000003,
      "v": 78
    },
    {
      "midi": 62,
      "hit": false,
      "t": 46315.764000000054,
      "d": 1043.8590750000003,
      "v": 78
    },
    {
      "midi": 43,
      "hit": false,
      "t": 46315.764000000054,
      "d": 1570.1745750000046,
      "v": 78
    },
    {
      "midi": 59,
      "hit": false,
      "t": 46842.07950000005,
      "d": 1043.8590750000076,
      "v": 78
    },
    {
      "midi": 62,
      "hit": false,
      "t": 47368.395000000055,
      "d": 517.5435750000033,
      "v": 78
    },
    {
      "midi": 42,
      "hit": false,
      "t": 47894.71050000006,
      "d": 517.5435750000033,
      "v": 85
    },
    {
      "midi": 59,
      "hit": false,
      "t": 47894.71050000006,
      "d": 517.5435750000033,
      "v": 85
    },
    {
      "midi": 62,
      "hit": false,
      "t": 47894.71050000006,
      "d": 517.5435750000033,
      "v": 85
    },
    {
      "midi": 66,
      "hit": false,
      "t": 47894.71050000006,
      "d": 517.5435750000033,
      "v": 85
    },
    {
      "midi": 64,
      "hit": false,
      "t": 48421.02600000006,
      "d": 1043.8590750000003,
      "v": 85
    },
    {
      "midi": 67,
      "hit": false,
      "t": 48421.02600000006,
      "d": 1043.8590750000003,
      "v": 85
    },
    {
      "midi": 40,
      "hit": false,
      "t": 48421.02600000006,
      "d": 2096.4900750000015,
      "v": 85
    },
    {
      "midi": 59,
      "hit": false,
      "t": 48421.02600000006,
      "d": 2096.4900750000015,
      "v": 85
    },
    {
      "midi": 62,
      "hit": false,
      "t": 49473.657000000065,
      "d": 1043.8590750000003,
      "v": 58
    },
    {
      "midi": 66,
      "hit": false,
      "t": 49473.657000000065,
      "d": 1043.8590750000003,
      "v": 58
    },
    {
      "midi": 57,
      "hit": false,
      "t": 50526.288000000066,
      "d": 517.5435750000033,
      "v": 58
    },
    {
      "midi": 62,
      "hit": false,
      "t": 50526.288000000066,
      "d": 1043.8590750000076,
      "v": 58
    },
    {
      "midi": 45,
      "hit": false,
      "t": 50526.288000000066,
      "d": 2096.490075000009,
      "v": 85
    },
    {
      "midi": 64,
      "hit": false,
      "t": 50526.288000000066,
      "d": 2096.490075000009,
      "v": 58
    },
    {
      "midi": 57,
      "hit": false,
      "t": 51052.60350000007,
      "d": 517.5435750000033,
      "v": 69
    },
    {
      "midi": 62,
      "hit": false,
      "t": 51578.919000000074,
      "d": 1043.8590750000003,
      "v": 73
    },
    {
      "midi": 69,
      "hit": false,
      "t": 52105.23450000007,
      "d": 517.5435750000033,
      "v": 84
    },
    {
      "midi": 69,
      "hit": false,
      "t": 52631.550000000076,
      "d": 517.5435750000033,
      "v": 84
    },
    {
      "midi": 62,
      "hit": false,
      "t": 52631.550000000076,
      "d": 1043.8590750000076,
      "v": 58
    },
    {
      "midi": 64,
      "hit": false,
      "t": 52631.550000000076,
      "d": 1043.8590750000076,
      "v": 58
    },
    {
      "midi": 67,
      "hit": false,
      "t": 53157.86550000008,
      "d": 517.5435750000033,
      "v": 84
    },
    {
      "midi": 67,
      "hit": false,
      "t": 53684.181000000084,
      "d": 517.5435750000033,
      "v": 84
    },
    {
      "midi": 62,
      "hit": false,
      "t": 53684.181000000084,
      "d": 1043.8590750000076,
      "v": 58
    },
    {
      "midi": 64,
      "hit": false,
      "t": 53684.181000000084,
      "d": 1043.8590750000076,
      "v": 58
    },
    {
      "midi": 66,
      "hit": false,
      "t": 54210.49650000009,
      "d": 517.5435750000033,
      "v": 84
    },
    {
      "midi": 57,
      "hit": false,
      "t": 54736.81200000009,
      "d": 1043.8590750000003,
      "v": 84
    },
    {
      "midi": 62,
      "hit": false,
      "t": 54736.81200000009,
      "d": 1043.8590750000003,
      "v": 84
    },
    {
      "midi": 66,
      "hit": false,
      "t": 54736.81200000009,
      "d": 1570.1745750000046,
      "v": 84
    },
    {
      "midi": 57,
      "hit": false,
      "t": 55789.443000000094,
      "d": 1043.8590750000076,
      "v": 80
    },
    {
      "midi": 66,
      "hit": false,
      "t": 56315.7585000001,
      "d": 517.5435750000033,
      "v": 80
    },
    {
      "midi": 66,
      "hit": false,
      "t": 56842.0740000001,
      "d": 517.5435750000033,
      "v": 80
    },
    {
      "midi": 61,
      "hit": false,
      "t": 56842.0740000001,
      "d": 1570.1745750000118,
      "v": 80
    },
    {
      "midi": 58,
      "hit": false,
      "t": 56842.0740000001,
      "d": 2096.490075000016,
      "v": 80
    },
    {
      "midi": 64,
      "hit": false,
      "t": 57368.38950000011,
      "d": 517.5435750000033,
      "v": 80
    },
    {
      "midi": 64,
      "hit": false,
      "t": 57894.70500000011,
      "d": 517.5435750000033,
      "v": 80
    },
    {
      "midi": 62,
      "hit": false,
      "t": 58421.020500000115,
      "d": 517.5435750000033,
      "v": 80
    },
    {
      "midi": 59,
      "hit": false,
      "t": 58947.33600000012,
      "d": 1570.1745749999973,
      "v": 80
    },
    {
      "midi": 62,
      "hit": false,
      "t": 58947.33600000012,
      "d": 1570.1745749999973,
      "v": 80
    },
    {
      "midi": 66,
      "hit": false,
      "t": 58947.33600000012,
      "d": 1570.1745749999973,
      "v": 80
    },
    {
      "midi": 66,
      "hit": false,
      "t": 60526.28250000012,
      "d": 517.5435750000033,
      "v": 80
    },
    {
      "midi": 66,
      "hit": false,
      "t": 61052.59800000012,
      "d": 517.5435750000033,
      "v": 80
    },
    {
      "midi": 58,
      "hit": false,
      "t": 61052.59800000012,
      "d": 2096.490075000016,
      "v": 80
    },
    {
      "midi": 61,
      "hit": false,
      "t": 61052.59800000012,
      "d": 2096.490075000016,
      "v": 80
    },
    {
      "midi": 64,
      "hit": false,
      "t": 61578.913500000126,
      "d": 517.5435750000033,
      "v": 80
    },
    {
      "midi": 64,
      "hit": false,
      "t": 62105.22900000013,
      "d": 517.5435750000033,
      "v": 80
    },
    {
      "midi": 62,
      "hit": false,
      "t": 62631.544500000135,
      "d": 517.5435750000033,
      "v": 80
    },
    {
      "midi": 62,
      "hit": false,
      "t": 63157.86000000014,
      "d": 517.5435750000033,
      "v": 80
    },
    {
      "midi": 55,
      "hit": false,
      "t": 63157.86000000014,
      "d": 1043.8590750000076,
      "v": 80
    },
    {
      "midi": 57,
      "hit": false,
      "t": 63157.86000000014,
      "d": 1043.8590750000076,
      "v": 80
    },
    {
      "midi": 50,
      "hit": false,
      "t": 63684.17550000014,
      "d": 1043.8590750000076,
      "v": 80
    },
    {
      "midi": 55,
      "hit": false,
      "t": 64210.49100000015,
      "d": 1043.8590750000076,
      "v": 77
    },
    {
      "midi": 57,
      "hit": false,
      "t": 64736.80650000015,
      "d": 1043.8590750000003,
      "v": 82
    },
    {
      "midi": 59,
      "hit": false,
      "t": 65263.122000000156,
      "d": 1570.17457499999,
      "v": 97
    },
    {
      "midi": 64,
      "hit": false,
      "t": 65263.122000000156,
      "d": 1570.17457499999,
      "v": 97
    },
    {
      "midi": 67,
      "hit": false,
      "t": 65263.122000000156,
      "d": 1570.17457499999,
      "v": 97
    },
    {
      "midi": 59,
      "hit": false,
      "t": 66842.06850000014,
      "d": 517.5435750000033,
      "v": 75
    },
    {
      "midi": 57,
      "hit": false,
      "t": 67368.38400000014,
      "d": 517.5435750000033,
      "v": 75
    },
    {
      "midi": 62,
      "hit": false,
      "t": 67368.38400000014,
      "d": 1043.8590750000003,
      "v": 75
    },
    {
      "midi": 64,
      "hit": false,
      "t": 67368.38400000014,
      "d": 1570.1745749999973,
      "v": 75
    },
    {
      "midi": 57,
      "hit": false,
      "t": 67894.69950000013,
      "d": 1570.1745749999973,
      "v": 75
    },
    {
      "midi": 62,
      "hit": false,
      "t": 68421.01500000013,
      "d": 1043.8590750000003,
      "v": 75
    },
    {
      "midi": 64,
      "hit": false,
      "t": 68947.33050000013,
      "d": 517.5435750000033,
      "v": 75
    },
    {
      "midi": 64,
      "hit": false,
      "t": 69473.64600000012,
      "d": 1043.8590750000003,
      "v": 75
    },
    {
      "midi": 57,
      "hit": false,
      "t": 69473.64600000012,
      "d": 2096.4900749999942,
      "v": 75
    },
    {
      "midi": 61,
      "hit": false,
      "t": 69473.64600000012,
      "d": 2096.4900749999942,
      "v": 75
    },
    {
      "midi": 64,
      "hit": false,
      "t": 70526.27700000012,
      "d": 1043.8590750000003,
      "v": 60
    },
    {
      "midi": 54,
      "hit": false,
      "t": 71578.90800000011,
      "d": 1043.8590750000003,
      "v": 75
    },
    {
      "midi": 57,
      "hit": false,
      "t": 71578.90800000011,
      "d": 1570.1745749999973,
      "v": 75
    },
    {
      "midi": 62,
      "hit": false,
      "t": 71578.90800000011,
      "d": 1570.1745749999973,
      "v": 75
    },
    {
      "midi": 50,
      "hit": false,
      "t": 72105.22350000011,
      "d": 2096.4900749999942,
      "v": 75
    },
    {
      "midi": 54,
      "hit": false,
      "t": 72631.5390000001,
      "d": 2096.4900749999942,
      "v": 75
    },
    {
      "midi": 57,
      "hit": false,
      "t": 73157.8545000001,
      "d": 1570.1745749999973,
      "v": 75
    },
    {
      "midi": 62,
      "hit": false,
      "t": 73684.1700000001,
      "d": 1043.8590750000003,
      "v": 75
    },
    {
      "midi": 66,
      "hit": false,
      "t": 74210.4855000001,
      "d": 517.5435750000033,
      "v": 75
    },
    {
      "midi": 58,
      "hit": false,
      "t": 74736.8010000001,
      "d": 1043.8590750000003,
      "v": 85
    },
    {
      "midi": 62,
      "hit": false,
      "t": 74736.8010000001,
      "d": 1043.8590750000003,
      "v": 85
    },
    {
      "midi": 67,
      "hit": false,
      "t": 74736.8010000001,
      "d": 1043.8590750000003,
      "v": 85
    },
    {
      "midi": 57,
      "hit": false,
      "t": 75789.43200000009,
      "d": 517.5435750000033,
      "v": 85
    },
    {
      "midi": 60,
      "hit": false,
      "t": 75789.43200000009,
      "d": 1043.8590750000003,
      "v": 85
    },
    {
      "midi": 65,
      "hit": false,
      "t": 75789.43200000009,
      "d": 1043.8590750000003,
      "v": 85
    },
    {
      "midi": 48,
      "hit": false,
      "t": 76315.74750000008,
      "d": 2622.805574999991,
      "v": 85
    },
    {
      "midi": 53,
      "hit": false,
      "t": 76842.06300000008,
      "d": 2096.4900749999942,
      "v": 85
    },
    {
      "midi": 55,
      "hit": false,
      "t": 77368.37850000008,
      "d": 1570.1745749999973,
      "v": 85
    },
    {
      "midi": 57,
      "hit": false,
      "t": 77894.69400000008,
      "d": 1043.8590750000003,
      "v": 85
    },
    {
      "midi": 60,
      "hit": false,
      "t": 78421.00950000007,
      "d": 517.5435750000033,
      "v": 85
    },
    {
      "midi": 60,
      "hit": false,
      "t": 78947.32500000007,
      "d": 1043.8590750000003,
      "v": 89
    },
    {
      "midi": 64,
      "hit": false,
      "t": 78947.32500000007,
      "d": 1043.8590750000003,
      "v": 89
    },
    {
      "midi": 67,
      "hit": false,
      "t": 78947.32500000007,
      "d": 1043.8590750000003,
      "v": 89
    },
    {
      "midi": 57,
      "hit": false,
      "t": 79999.95600000006,
      "d": 517.5435750000033,
      "v": 85
    },
    {
      "midi": 62,
      "hit": false,
      "t": 79999.95600000006,
      "d": 1043.8590750000003,
      "v": 85
    },
    {
      "midi": 65,
      "hit": false,
      "t": 79999.95600000006,
      "d": 1043.8590750000003,
      "v": 85
    },
    {
      "midi": 57,
      "hit": false,
      "t": 80526.27150000006,
      "d": 2622.805574999991,
      "v": 85
    },
    {
      "midi": 62,
      "hit": false,
      "t": 81052.58700000006,
      "d": 2096.4900749999942,
      "v": 85
    },
    {
      "midi": 64,
      "hit": false,
      "t": 81578.90250000005,
      "d": 1570.1745749999973,
      "v": 85
    },
    {
      "midi": 65,
      "hit": false,
      "t": 82105.21800000005,
      "d": 1043.8590750000003,
      "v": 85
    },
    {
      "midi": 60,
      "hit": false,
      "t": 83157.84900000005,
      "d": 1043.8590750000003,
      "v": 85
    },
    {
      "midi": 64,
      "hit": false,
      "t": 83157.84900000005,
      "d": 1043.8590750000003,
      "v": 85
    },
    {
      "midi": 67,
      "hit": false,
      "t": 83157.84900000005,
      "d": 1043.8590750000003,
      "v": 85
    },
    {
      "midi": 58,
      "hit": false,
      "t": 84210.48000000004,
      "d": 1570.1745749999973,
      "v": 85
    },
    {
      "midi": 62,
      "hit": false,
      "t": 84210.48000000004,
      "d": 1570.1745749999973,
      "v": 85
    },
    {
      "midi": 65,
      "hit": false,
      "t": 84210.48000000004,
      "d": 1570.1745749999973,
      "v": 85
    },
    {
      "midi": 60,
      "hit": false,
      "t": 85789.42650000003,
      "d": 517.5435750000033,
      "v": 85
    },
    {
      "midi": 65,
      "hit": false,
      "t": 85789.42650000003,
      "d": 517.5435750000033,
      "v": 85
    },
    {
      "midi": 58,
      "hit": false,
      "t": 86315.74200000003,
      "d": 1043.8590750000003,
      "v": 85
    },
    {
      "midi": 65,
      "hit": false,
      "t": 86315.74200000003,
      "d": 1043.8590750000003,
      "v": 85
    },
    {
      "midi": 58,
      "hit": false,
      "t": 87368.37300000002,
      "d": 1043.8590750000003,
      "v": 85
    },
    {
      "midi": 65,
      "hit": false,
      "t": 87368.37300000002,
      "d": 1043.8590750000003,
      "v": 85
    },
    {
      "midi": 55,
      "hit": false,
      "t": 88421.00400000002,
      "d": 2096.4900749999942,
      "v": 85
    },
    {
      "midi": 60,
      "hit": false,
      "t": 88421.00400000002,
      "d": 4201.752074999982,
      "v": 85
    },
    {
      "midi": 64,
      "hit": false,
      "t": 88421.00400000002,
      "d": 4201.752074999982,
      "v": 85
    },
    {
      "midi": 55,
      "hit": false,
      "t": 90526.266,
      "d": 2096.4900749999942,
      "v": 85
    },
    {
      "midi": 57,
      "hit": false,
      "t": 92631.52799999999,
      "d": 1043.8590750000003,
      "v": 85
    },
    {
      "midi": 60,
      "hit": false,
      "t": 92631.52799999999,
      "d": 1043.8590750000003,
      "v": 85
    },
    {
      "midi": 65,
      "hit": false,
      "t": 92631.52799999999,
      "d": 1043.8590750000003,
      "v": 85
    },
    {
      "midi": 48,
      "hit": false,
      "t": 93157.84349999999,
      "d": 2622.805574999991,
      "v": 85
    },
    {
      "midi": 53,
      "hit": false,
      "t": 93684.15899999999,
      "d": 2096.4900749999942,
      "v": 85
    },
    {
      "midi": 55,
      "hit": false,
      "t": 94210.47449999998,
      "d": 1570.1745749999973,
      "v": 85
    },
    {
      "midi": 57,
      "hit": false,
      "t": 94736.78999999998,
      "d": 1043.8590750000003,
      "v": 85
    },
    {
      "midi": 60,
      "hit": false,
      "t": 95263.10549999998,
      "d": 517.5435750000033,
      "v": 85
    },
    {
      "midi": 60,
      "hit": false,
      "t": 95789.42099999997,
      "d": 1043.8590750000003,
      "v": 85
    },
    {
      "midi": 64,
      "hit": false,
      "t": 95789.42099999997,
      "d": 1043.8590750000003,
      "v": 85
    },
    {
      "midi": 67,
      "hit": false,
      "t": 95789.42099999997,
      "d": 1043.8590750000003,
      "v": 85
    },
    {
      "midi": 57,
      "hit": false,
      "t": 96842.05199999997,
      "d": 517.5435750000033,
      "v": 85
    },
    {
      "midi": 62,
      "hit": false,
      "t": 96842.05199999997,
      "d": 2096.4900749999942,
      "v": 85
    },
    {
      "midi": 65,
      "hit": false,
      "t": 96842.05199999997,
      "d": 2096.4900749999942,
      "v": 85
    },
    {
      "midi": 45,
      "hit": false,
      "t": 97368.36749999996,
      "d": 2622.805574999991,
      "v": 85
    },
    {
      "midi": 50,
      "hit": false,
      "t": 97894.68299999996,
      "d": 2096.4900749999942,
      "v": 85
    },
    {
      "midi": 57,
      "hit": false,
      "t": 98420.99849999996,
      "d": 1570.1745749999973,
      "v": 85
    },
    {
      "midi": 62,
      "hit": false,
      "t": 98947.31399999995,
      "d": 1043.8590750000003,
      "v": 85
    },
    {
      "midi": 60,
      "hit": false,
      "t": 99999.94499999995,
      "d": 1043.8590750000003,
      "v": 85
    },
    {
      "midi": 64,
      "hit": false,
      "t": 99999.94499999995,
      "d": 1043.8590750000003,
      "v": 85
    },
    {
      "midi": 67,
      "hit": false,
      "t": 99999.94499999995,
      "d": 1043.8590750000003,
      "v": 85
    },
    {
      "midi": 58,
      "hit": false,
      "t": 101052.57599999994,
      "d": 1570.1745749999973,
      "v": 85
    },
    {
      "midi": 62,
      "hit": false,
      "t": 101052.57599999994,
      "d": 1570.1745749999973,
      "v": 85
    },
    {
      "midi": 65,
      "hit": false,
      "t": 101052.57599999994,
      "d": 1570.1745749999973,
      "v": 85
    },
    {
      "midi": 57,
      "hit": false,
      "t": 102631.52249999993,
      "d": 517.5435750000033,
      "v": 85
    },
    {
      "midi": 65,
      "hit": false,
      "t": 102631.52249999993,
      "d": 517.5435750000033,
      "v": 85
    },
    {
      "midi": 55,
      "hit": false,
      "t": 103157.83799999993,
      "d": 1043.8590750000003,
      "v": 85
    },
    {
      "midi": 65,
      "hit": false,
      "t": 103157.83799999993,
      "d": 1043.8590750000003,
      "v": 85
    },
    {
      "midi": 60,
      "hit": false,
      "t": 104210.46899999992,
      "d": 517.5435750000033,
      "v": 85
    },
    {
      "midi": 65,
      "hit": false,
      "t": 104736.78449999992,
      "d": 517.5435750000033,
      "v": 85
    },
    {
      "midi": 60,
      "hit": false,
      "t": 105263.09999999992,
      "d": 2096.4900749999942,
      "v": 85
    },
    {
      "midi": 62,
      "hit": false,
      "t": 105263.09999999992,
      "d": 2096.4900749999942,
      "v": 85
    },
    {
      "midi": 67,
      "hit": false,
      "t": 105263.09999999992,
      "d": 2096.4900749999942,
      "v": 85
    },
    {
      "midi": 64,
      "hit": false,
      "t": 107368.3619999999,
      "d": 2096.4900749999942,
      "v": 85
    },
    {
      "midi": 67,
      "hit": false,
      "t": 107368.3619999999,
      "d": 2096.4900749999942,
      "v": 85
    },
    {
      "midi": 72,
      "hit": false,
      "t": 107368.3619999999,
      "d": 2096.4900749999942,
      "v": 85
    },
    {
      "midi": 57,
      "hit": false,
      "t": 109473.6239999999,
      "d": 517.5435750000033,
      "v": 85
    },
    {
      "midi": 60,
      "hit": false,
      "t": 109473.6239999999,
      "d": 1043.8590750000003,
      "v": 85
    },
    {
      "midi": 65,
      "hit": false,
      "t": 109473.6239999999,
      "d": 1570.1745749999973,
      "v": 85
    },
    {
      "midi": 57,
      "hit": false,
      "t": 109999.93949999989,
      "d": 1570.1745749999973,
      "v": 85
    },
    {
      "midi": 60,
      "hit": false,
      "t": 110526.25499999989,
      "d": 1043.8590750000003,
      "v": 85
    },
    {
      "midi": 65,
      "hit": false,
      "t": 111052.57049999989,
      "d": 517.5435750000033,
      "v": 85
    },
    {
      "midi": 61,
      "hit": false,
      "t": 111578.88599999988,
      "d": 2096.4900749999942,
      "v": 85
    },
    {
      "midi": 64,
      "hit": false,
      "t": 111578.88599999988,
      "d": 2096.4900749999942,
      "v": 85
    },
    {
      "midi": 67,
      "hit": false,
      "t": 111578.88599999988,
      "d": 2096.4900749999942,
      "v": 85
    },
    {
      "midi": 57,
      "hit": false,
      "t": 113684.14799999987,
      "d": 1043.8590750000003,
      "v": 85
    },
    {
      "midi": 62,
      "hit": false,
      "t": 113684.14799999987,
      "d": 1570.1745749999973,
      "v": 85
    },
    {
      "midi": 65,
      "hit": false,
      "t": 113684.14799999987,
      "d": 2096.4900749999942,
      "v": 85
    },
    {
      "midi": 53,
      "hit": false,
      "t": 114210.46349999987,
      "d": 1570.1745749999973,
      "v": 85
    },
    {
      "midi": 57,
      "hit": false,
      "t": 114736.77899999986,
      "d": 1043.8590750000003,
      "v": 85
    },
    {
      "midi": 62,
      "hit": false,
      "t": 115263.09449999986,
      "d": 517.5435750000033,
      "v": 85
    },
    {
      "midi": 57,
      "hit": false,
      "t": 115789.40999999986,
      "d": 2096.4900749999942,
      "v": 85
    },
    {
      "midi": 61,
      "hit": false,
      "t": 115789.40999999986,
      "d": 2096.4900749999942,
      "v": 85
    },
    {
      "midi": 67,
      "hit": false,
      "t": 115789.40999999986,
      "d": 2096.4900749999942,
      "v": 85
    },
    {
      "midi": 58,
      "hit": false,
      "t": 117894.67199999985,
      "d": 517.5435750000033,
      "v": 85
    },
    {
      "midi": 62,
      "hit": false,
      "t": 117894.67199999985,
      "d": 1043.8590750000003,
      "v": 85
    },
    {
      "midi": 65,
      "hit": false,
      "t": 117894.67199999985,
      "d": 1570.1745749999973,
      "v": 85
    },
    {
      "midi": 58,
      "hit": false,
      "t": 118420.98749999984,
      "d": 517.5435750000033,
      "v": 85
    },
    {
      "midi": 62,
      "hit": false,
      "t": 118947.30299999984,
      "d": 517.5435750000033,
      "v": 85
    },
    {
      "midi": 57,
      "hit": false,
      "t": 119473.61849999984,
      "d": 517.5435750000033,
      "v": 85
    },
    {
      "midi": 65,
      "hit": false,
      "t": 119473.61849999984,
      "d": 517.5435750000033,
      "v": 85
    },
    {
      "midi": 55,
      "hit": false,
      "t": 119999.93399999983,
      "d": 2096.4900749999942,
      "v": 85
    },
    {
      "midi": 65,
      "hit": false,
      "t": 119999.93399999983,
      "d": 2096.4900749999942,
      "v": 85
    },
    {
      "midi": 60,
      "hit": false,
      "t": 122105.19599999982,
      "d": 2096.4900749999942,
      "v": 85
    },
    {
      "midi": 62,
      "hit": false,
      "t": 122105.19599999982,
      "d": 2096.4900749999942,
      "v": 85
    },
    {
      "midi": 65,
      "hit": false,
      "t": 122105.19599999982,
      "d": 2096.4900749999942,
      "v": 85
    },
    {
      "midi": 55,
      "hit": false,
      "t": 124210.45799999981,
      "d": 517.5435750000033,
      "v": 85
    },
    {
      "midi": 60,
      "hit": false,
      "t": 124210.45799999981,
      "d": 1043.8590750000003,
      "v": 85
    },
    {
      "midi": 64,
      "hit": false,
      "t": 124210.45799999981,
      "d": 1570.1745749999973,
      "v": 85
    },
    {
      "midi": 55,
      "hit": false,
      "t": 124736.7734999998,
      "d": 1570.1745749999973,
      "v": 85
    },
    {
      "midi": 60,
      "hit": false,
      "t": 125263.0889999998,
      "d": 1043.8590750000003,
      "v": 85
    },
    {
      "midi": 64,
      "hit": false,
      "t": 125789.4044999998,
      "d": 517.5435750000033,
      "v": 85
    },
    {
      "midi": 57,
      "hit": false,
      "t": 126315.7199999998,
      "d": 2096.4900749999942,
      "v": 85
    },
    {
      "midi": 60,
      "hit": false,
      "t": 126315.7199999998,
      "d": 2096.4900749999942,
      "v": 85
    },
    {
      "midi": 65,
      "hit": false,
      "t": 126315.7199999998,
      "d": 2096.4900749999942,
      "v": 85
    },
    {
      "midi": 55,
      "hit": false,
      "t": 128420.98199999979,
      "d": 2096.4900749999942,
      "v": 85
    },
    {
      "midi": 58,
      "hit": false,
      "t": 128420.98199999979,
      "d": 2096.4900749999942,
      "v": 85
    },
    {
      "midi": 63,
      "hit": false,
      "t": 128420.98199999979,
      "d": 2096.4900749999942,
      "v": 85
    },
    {
      "midi": 53,
      "hit": false,
      "t": 130526.24399999977,
      "d": 2096.490075000009,
      "v": 85
    },
    {
      "midi": 58,
      "hit": false,
      "t": 130526.24399999977,
      "d": 2096.490075000009,
      "v": 85
    },
    {
      "midi": 62,
      "hit": false,
      "t": 130526.24399999977,
      "d": 2096.490075000009,
      "v": 85
    },
    {
      "midi": 53,
      "hit": false,
      "t": 132631.5059999998,
      "d": 2096.490075000009,
      "v": 83
    },
    {
      "midi": 57,
      "hit": false,
      "t": 132631.5059999998,
      "d": 2096.490075000009,
      "v": 83
    },
    {
      "midi": 60,
      "hit": false,
      "t": 132631.5059999998,
      "d": 2096.490075000009,
      "v": 83
    },
    {
      "midi": 58,
      "hit": false,
      "t": 134736.7679999998,
      "d": 517.5435749999888,
      "v": 85
    },
    {
      "midi": 62,
      "hit": false,
      "t": 134736.7679999998,
      "d": 517.5435749999888,
      "v": 85
    },
    {
      "midi": 67,
      "hit": false,
      "t": 134736.7679999998,
      "d": 517.5435749999888,
      "v": 85
    },
    {
      "midi": 57,
      "hit": false,
      "t": 135263.0834999998,
      "d": 1570.1745750000118,
      "v": 85
    },
    {
      "midi": 60,
      "hit": false,
      "t": 135263.0834999998,
      "d": 1570.1745750000118,
      "v": 85
    },
    {
      "midi": 65,
      "hit": false,
      "t": 135263.0834999998,
      "d": 1570.1745750000118,
      "v": 85
    },
    {
      "midi": 55,
      "hit": false,
      "t": 136842.02999999982,
      "d": 2096.490075000009,
      "v": 85
    },
    {
      "midi": 58,
      "hit": false,
      "t": 136842.02999999982,
      "d": 2096.490075000009,
      "v": 85
    },
    {
      "midi": 63,
      "hit": false,
      "t": 136842.02999999982,
      "d": 2096.490075000009,
      "v": 85
    },
    {
      "midi": 53,
      "hit": false,
      "t": 138947.29199999984,
      "d": 2096.490075000009,
      "v": 85
    },
    {
      "midi": 58,
      "hit": false,
      "t": 138947.29199999984,
      "d": 2096.490075000009,
      "v": 85
    },
    {
      "midi": 62,
      "hit": false,
      "t": 138947.29199999984,
      "d": 2096.490075000009,
      "v": 85
    },
    {
      "midi": 56,
      "hit": false,
      "t": 141052.55399999986,
      "d": 2096.490075000009,
      "v": 85
    },
    {
      "midi": 61,
      "hit": false,
      "t": 141052.55399999986,
      "d": 2096.490075000009,
      "v": 85
    },
    {
      "midi": 65,
      "hit": false,
      "t": 141052.55399999986,
      "d": 2096.490075000009,
      "v": 85
    },
    {
      "midi": 65,
      "hit": false,
      "t": 149473.60199999987,
      "d": 517.5435749999888,
      "v": 79
    },
    {
      "midi": 68,
      "hit": false,
      "t": 149473.60199999987,
      "d": 517.5435749999888,
      "v": 96
    },
    {
      "midi": 72,
      "hit": false,
      "t": 149473.60199999987,
      "d": 517.5435749999888,
      "v": 98
    },
    {
      "midi": 70,
      "hit": false,
      "t": 149999.91749999986,
      "d": 517.5435749999888,
      "v": 100
    },
    {
      "midi": 73,
      "hit": false,
      "t": 149999.91749999986,
      "d": 517.5435749999888,
      "v": 100
    },
    {
      "midi": 72,
      "hit": false,
      "t": 150526.23299999986,
      "d": 517.5435749999888,
      "v": 100
    },
    {
      "midi": 75,
      "hit": false,
      "t": 150526.23299999986,
      "d": 517.5435749999888,
      "v": 100
    },
    {
      "midi": 73,
      "hit": false,
      "t": 151052.54849999986,
      "d": 2622.805575000006,
      "v": 100
    },
    {
      "midi": 77,
      "hit": false,
      "t": 151052.54849999986,
      "d": 2622.805575000006,
      "v": 100
    },
    {
      "midi": 57,
      "hit": false,
      "t": 157894.64999999988,
      "d": 1043.8590749999858,
      "v": 65
    },
    {
      "midi": 60,
      "hit": false,
      "t": 157894.64999999988,
      "d": 1043.8590749999858,
      "v": 65
    },
    {
      "midi": 65,
      "hit": false,
      "t": 157894.64999999988,
      "d": 1043.8590749999858,
      "v": 65
    },
    {
      "midi": 57,
      "hit": false,
      "t": 158947.28099999987,
      "d": 1043.8590749999858,
      "v": 65
    },
    {
      "midi": 60,
      "hit": false,
      "t": 158947.28099999987,
      "d": 1043.8590749999858,
      "v": 65
    },
    {
      "midi": 65,
      "hit": false,
      "t": 158947.28099999987,
      "d": 1043.8590749999858,
      "v": 65
    },
    {
      "midi": 57,
      "hit": false,
      "t": 159999.91199999987,
      "d": 1043.8590749999858,
      "v": 65
    },
    {
      "midi": 60,
      "hit": false,
      "t": 159999.91199999987,
      "d": 1043.8590749999858,
      "v": 65
    },
    {
      "midi": 65,
      "hit": false,
      "t": 159999.91199999987,
      "d": 1043.8590749999858,
      "v": 65
    },
    {
      "midi": 57,
      "hit": false,
      "t": 161052.54299999986,
      "d": 1043.8590749999858,
      "v": 89
    },
    {
      "midi": 60,
      "hit": false,
      "t": 161052.54299999986,
      "d": 1043.8590749999858,
      "v": 89
    },
    {
      "midi": 65,
      "hit": false,
      "t": 161052.54299999986,
      "d": 1043.8590749999858,
      "v": 89
    },
    {
      "midi": 58,
      "hit": false,
      "t": 162105.17399999985,
      "d": 1043.8590749999858,
      "v": 89
    },
    {
      "midi": 61,
      "hit": false,
      "t": 162105.17399999985,
      "d": 1043.8590749999858,
      "v": 89
    },
    {
      "midi": 65,
      "hit": false,
      "t": 162105.17399999985,
      "d": 1043.8590749999858,
      "v": 89
    },
    {
      "midi": 58,
      "hit": false,
      "t": 163157.80499999985,
      "d": 1043.8590749999858,
      "v": 89
    },
    {
      "midi": 61,
      "hit": false,
      "t": 163157.80499999985,
      "d": 1043.8590749999858,
      "v": 89
    },
    {
      "midi": 65,
      "hit": false,
      "t": 163157.80499999985,
      "d": 1043.8590749999858,
      "v": 89
    },
    {
      "midi": 57,
      "hit": false,
      "t": 164210.43599999984,
      "d": 1043.8590749999858,
      "v": 63
    },
    {
      "midi": 60,
      "hit": false,
      "t": 164210.43599999984,
      "d": 1043.8590749999858,
      "v": 63
    },
    {
      "midi": 65,
      "hit": false,
      "t": 164210.43599999984,
      "d": 1043.8590749999858,
      "v": 63
    },
    {
      "midi": 57,
      "hit": false,
      "t": 165263.06699999984,
      "d": 1043.8590749999858,
      "v": 89
    },
    {
      "midi": 60,
      "hit": false,
      "t": 165263.06699999984,
      "d": 1043.8590749999858,
      "v": 89
    },
    {
      "midi": 65,
      "hit": false,
      "t": 165263.06699999984,
      "d": 1043.8590749999858,
      "v": 89
    },
    {
      "midi": 58,
      "hit": false,
      "t": 166315.69799999983,
      "d": 1570.1745750000118,
      "v": 89
    },
    {
      "midi": 61,
      "hit": false,
      "t": 166315.69799999983,
      "d": 1570.1745750000118,
      "v": 89
    },
    {
      "midi": 65,
      "hit": false,
      "t": 166315.69799999983,
      "d": 1570.1745750000118,
      "v": 89
    },
    {
      "midi": 57,
      "hit": false,
      "t": 167894.64449999985,
      "d": 1043.8590749999858,
      "v": 89
    },
    {
      "midi": 60,
      "hit": false,
      "t": 167894.64449999985,
      "d": 1043.8590749999858,
      "v": 89
    },
    {
      "midi": 65,
      "hit": false,
      "t": 167894.64449999985,
      "d": 1043.8590749999858,
      "v": 89
    },
    {
      "midi": 57,
      "hit": false,
      "t": 168947.27549999984,
      "d": 1570.1745749999827,
      "v": 99
    },
    {
      "midi": 60,
      "hit": false,
      "t": 169473.59099999984,
      "d": 1043.8590749999858,
      "v": 99
    },
    {
      "midi": 65,
      "hit": false,
      "t": 169999.90649999984,
      "d": 517.5435749999888,
      "v": 99
    },
    {
      "midi": 62,
      "hit": false,
      "t": 170526.22199999983,
      "d": 1043.8590749999858,
      "v": 116
    },
    {
      "midi": 53,
      "hit": false,
      "t": 170526.22199999983,
      "d": 1570.1745749999827,
      "v": 116
    },
    {
      "midi": 57,
      "hit": false,
      "t": 170526.22199999983,
      "d": 1570.1745749999827,
      "v": 116
    },
    {
      "midi": 62,
      "hit": false,
      "t": 171578.85299999983,
      "d": 517.5435749999888,
      "v": 116
    },
    {
      "midi": 55,
      "hit": false,
      "t": 172105.16849999983,
      "d": 517.5435749999888,
      "v": 116
    },
    {
      "midi": 58,
      "hit": false,
      "t": 172105.16849999983,
      "d": 517.5435749999888,
      "v": 116
    },
    {
      "midi": 63,
      "hit": false,
      "t": 172105.16849999983,
      "d": 517.5435749999888,
      "v": 116
    },
    {
      "midi": 55,
      "hit": false,
      "t": 172631.48399999982,
      "d": 2096.4900749999797,
      "v": 116
    },
    {
      "midi": 58,
      "hit": false,
      "t": 172631.48399999982,
      "d": 2096.4900749999797,
      "v": 116
    },
    {
      "midi": 63,
      "hit": false,
      "t": 172631.48399999982,
      "d": 2096.4900749999797,
      "v": 116
    },
    {
      "midi": 46,
      "hit": false,
      "t": 174210.4304999998,
      "d": 517.5435749999888,
      "v": 116
    },
    {
      "midi": 51,
      "hit": false,
      "t": 174736.7459999998,
      "d": 517.5435749999888,
      "v": 116
    },
    {
      "midi": 53,
      "hit": false,
      "t": 175263.0614999998,
      "d": 517.5435749999888,
      "v": 116
    },
    {
      "midi": 58,
      "hit": false,
      "t": 175263.0614999998,
      "d": 517.5435749999888,
      "v": 116
    },
    {
      "midi": 62,
      "hit": false,
      "t": 175263.0614999998,
      "d": 517.5435749999888,
      "v": 116
    },
    {
      "midi": 55,
      "hit": false,
      "t": 175789.3769999998,
      "d": 517.5435749999888,
      "v": 112
    },
    {
      "midi": 58,
      "hit": false,
      "t": 175789.3769999998,
      "d": 517.5435749999888,
      "v": 112
    },
    {
      "midi": 63,
      "hit": false,
      "t": 175789.3769999998,
      "d": 517.5435749999888,
      "v": 112
    },
    {
      "midi": 53,
      "hit": false,
      "t": 176315.6924999998,
      "d": 517.5435749999888,
      "v": 102
    },
    {
      "midi": 58,
      "hit": false,
      "t": 176315.6924999998,
      "d": 517.5435749999888,
      "v": 102
    },
    {
      "midi": 62,
      "hit": false,
      "t": 176315.6924999998,
      "d": 517.5435749999888,
      "v": 102
    },
    {
      "midi": 55,
      "hit": false,
      "t": 176842.0079999998,
      "d": 1570.1745750000118,
      "v": 102
    },
    {
      "midi": 58,
      "hit": false,
      "t": 176842.0079999998,
      "d": 1570.1745750000118,
      "v": 102
    },
    {
      "midi": 63,
      "hit": false,
      "t": 176842.0079999998,
      "d": 1570.1745750000118,
      "v": 102
    },
    {
      "midi": 53,
      "hit": false,
      "t": 178420.95449999982,
      "d": 517.5435749999888,
      "v": 102
    },
    {
      "midi": 57,
      "hit": false,
      "t": 178420.95449999982,
      "d": 517.5435749999888,
      "v": 102
    },
    {
      "midi": 60,
      "hit": false,
      "t": 178420.95449999982,
      "d": 517.5435749999888,
      "v": 102
    },
    {
      "midi": 62,
      "hit": false,
      "t": 178947.26999999981,
      "d": 1570.1745750000118,
      "v": 102
    },
    {
      "midi": 55,
      "hit": false,
      "t": 178947.26999999981,
      "d": 2096.490075000009,
      "v": 102
    },
    {
      "midi": 58,
      "hit": false,
      "t": 178947.26999999981,
      "d": 2096.490075000009,
      "v": 102
    },
    {
      "midi": 62,
      "hit": false,
      "t": 180526.21649999983,
      "d": 517.5435749999888,
      "v": 102
    },
    {
      "midi": 58,
      "hit": false,
      "t": 181052.53199999983,
      "d": 1570.1745750000118,
      "v": 102
    },
    {
      "midi": 63,
      "hit": false,
      "t": 181052.53199999983,
      "d": 1570.1745750000118,
      "v": 102
    },
    {
      "midi": 67,
      "hit": false,
      "t": 181052.53199999983,
      "d": 1570.1745750000118,
      "v": 102
    },
    {
      "midi": 65,
      "hit": false,
      "t": 182631.47849999985,
      "d": 1043.8590749999858,
      "v": 102
    },
    {
      "midi": 58,
      "hit": false,
      "t": 182631.47849999985,
      "d": 1307.0168249999988,
      "v": 102
    },
    {
      "midi": 62,
      "hit": false,
      "t": 182631.47849999985,
      "d": 1570.1745750000118,
      "v": 102
    },
    {
      "midi": 65,
      "hit": false,
      "t": 183684.10949999985,
      "d": 517.5435750000179,
      "v": 102
    },
    {
      "midi": 62,
      "hit": false,
      "t": 184210.42499999987,
      "d": 1043.8590749999858,
      "v": 102
    },
    {
      "midi": 65,
      "hit": false,
      "t": 184210.42499999987,
      "d": 1043.8590749999858,
      "v": 102
    },
    {
      "midi": 70,
      "hit": false,
      "t": 184210.42499999987,
      "d": 1043.8590749999858,
      "v": 102
    },
    {
      "midi": 58,
      "hit": false,
      "t": 185263.05599999987,
      "d": 1570.1745750000118,
      "v": 102
    },
    {
      "midi": 63,
      "hit": false,
      "t": 185263.05599999987,
      "d": 1570.1745750000118,
      "v": 102
    },
    {
      "midi": 67,
      "hit": false,
      "t": 185263.05599999987,
      "d": 1570.1745750000118,
      "v": 102
    },
    {
      "midi": 62,
      "hit": false,
      "t": 186842.0024999999,
      "d": 1570.1745750000118,
      "v": 102
    },
    {
      "midi": 65,
      "hit": false,
      "t": 186842.0024999999,
      "d": 1570.1745750000118,
      "v": 102
    },
    {
      "midi": 70,
      "hit": false,
      "t": 186842.0024999999,
      "d": 1570.1745750000118,
      "v": 102
    },
    {
      "midi": 62,
      "hit": false,
      "t": 188420.9489999999,
      "d": 1043.8590749999858,
      "v": 102
    },
    {
      "midi": 65,
      "hit": false,
      "t": 188420.9489999999,
      "d": 1043.8590749999858,
      "v": 102
    },
    {
      "midi": 70,
      "hit": false,
      "t": 188420.9489999999,
      "d": 1043.8590749999858,
      "v": 102
    },
    {
      "midi": 58,
      "hit": false,
      "t": 189473.5799999999,
      "d": 1570.1745750000118,
      "v": 102
    },
    {
      "midi": 62,
      "hit": false,
      "t": 189473.5799999999,
      "d": 1570.1745750000118,
      "v": 102
    },
    {
      "midi": 67,
      "hit": false,
      "t": 189473.5799999999,
      "d": 1570.1745750000118,
      "v": 102
    },
    {
      "midi": 60,
      "hit": false,
      "t": 191052.52649999992,
      "d": 517.5435749999888,
      "v": 102
    },
    {
      "midi": 63,
      "hit": false,
      "t": 191052.52649999992,
      "d": 517.5435749999888,
      "v": 102
    },
    {
      "midi": 68,
      "hit": false,
      "t": 191052.52649999992,
      "d": 517.5435749999888,
      "v": 102
    },
    {
      "midi": 68,
      "hit": false,
      "t": 191578.84199999992,
      "d": 2096.490075000009,
      "v": 102
    },
    {
      "midi": 60,
      "hit": false,
      "t": 191578.84199999992,
      "d": 2622.805575000006,
      "v": 102
    },
    {
      "midi": 63,
      "hit": false,
      "t": 191578.84199999992,
      "d": 2622.805575000006,
      "v": 102
    },
    {
      "midi": 68,
      "hit": false,
      "t": 193684.10399999993,
      "d": 517.5435749999888,
      "v": 102
    },
    {
      "midi": 67,
      "hit": false,
      "t": 194210.41949999993,
      "d": 1043.8590749999858,
      "v": 102
    },
    {
      "midi": 58,
      "hit": false,
      "t": 194210.41949999993,
      "d": 1570.1745749999827,
      "v": 102
    },
    {
      "midi": 63,
      "hit": false,
      "t": 194210.41949999993,
      "d": 1570.1745749999827,
      "v": 102
    },
    {
      "midi": 65,
      "hit": false,
      "t": 195263.05049999992,
      "d": 517.5435749999888,
      "v": 102
    },
    {
      "midi": 58,
      "hit": false,
      "t": 195789.36599999992,
      "d": 1570.1745750000118,
      "v": 102
    },
    {
      "midi": 60,
      "hit": false,
      "t": 195789.36599999992,
      "d": 1570.1745750000118,
      "v": 102
    },
    {
      "midi": 65,
      "hit": false,
      "t": 195789.36599999992,
      "d": 1570.1745750000118,
      "v": 102
    },
    {
      "midi": 58,
      "hit": false,
      "t": 197368.31249999994,
      "d": 517.5435749999888,
      "v": 102
    },
    {
      "midi": 60,
      "hit": false,
      "t": 197368.31249999994,
      "d": 517.5435749999888,
      "v": 102
    },
    {
      "midi": 65,
      "hit": false,
      "t": 197368.31249999994,
      "d": 517.5435749999888,
      "v": 102
    },
    {
      "midi": 57,
      "hit": false,
      "t": 197894.62799999994,
      "d": 2096.490075000009,
      "v": 102
    },
    {
      "midi": 60,
      "hit": false,
      "t": 197894.62799999994,
      "d": 2096.490075000009,
      "v": 102
    },
    {
      "midi": 65,
      "hit": false,
      "t": 197894.62799999994,
      "d": 2096.490075000009,
      "v": 102
    },
    {
      "midi": 58,
      "hit": false,
      "t": 199999.88999999996,
      "d": 1043.8590749999858,
      "v": 109
    },
    {
      "midi": 62,
      "hit": false,
      "t": 199999.88999999996,
      "d": 1043.8590749999858,
      "v": 109
    },
    {
      "midi": 67,
      "hit": false,
      "t": 199999.88999999996,
      "d": 1043.8590749999858,
      "v": 109
    },
    {
      "midi": 58,
      "hit": false,
      "t": 201052.52099999995,
      "d": 1043.8590749999858,
      "v": 109
    },
    {
      "midi": 62,
      "hit": false,
      "t": 201052.52099999995,
      "d": 1043.8590749999858,
      "v": 109
    },
    {
      "midi": 67,
      "hit": false,
      "t": 201052.52099999995,
      "d": 1043.8590749999858,
      "v": 109
    },
    {
      "midi": 57,
      "hit": false,
      "t": 202105.15199999994,
      "d": 1043.8590749999858,
      "v": 109
    },
    {
      "midi": 60,
      "hit": false,
      "t": 202105.15199999994,
      "d": 1043.8590749999858,
      "v": 109
    },
    {
      "midi": 65,
      "hit": false,
      "t": 202105.15199999994,
      "d": 1043.8590749999858,
      "v": 109
    },
    {
      "midi": 57,
      "hit": false,
      "t": 203157.78299999994,
      "d": 1043.8590749999858,
      "v": 109
    },
    {
      "midi": 60,
      "hit": false,
      "t": 203157.78299999994,
      "d": 1043.8590749999858,
      "v": 109
    },
    {
      "midi": 65,
      "hit": false,
      "t": 203157.78299999994,
      "d": 1043.8590749999858,
      "v": 109
    },
    {
      "midi": 57,
      "hit": false,
      "t": 204210.41399999993,
      "d": 1043.8590749999858,
      "v": 109
    },
    {
      "midi": 60,
      "hit": false,
      "t": 204210.41399999993,
      "d": 1043.8590749999858,
      "v": 109
    },
    {
      "midi": 65,
      "hit": false,
      "t": 204210.41399999993,
      "d": 1043.8590749999858,
      "v": 109
    },
    {
      "midi": 57,
      "hit": false,
      "t": 205263.04499999993,
      "d": 1043.8590749999858,
      "v": 109
    },
    {
      "midi": 60,
      "hit": false,
      "t": 205263.04499999993,
      "d": 1043.8590749999858,
      "v": 109
    },
    {
      "midi": 65,
      "hit": false,
      "t": 205263.04499999993,
      "d": 1043.8590749999858,
      "v": 109
    },
    {
      "midi": 58,
      "hit": false,
      "t": 206315.67599999992,
      "d": 1043.8590749999858,
      "v": 109
    },
    {
      "midi": 62,
      "hit": false,
      "t": 206315.67599999992,
      "d": 1043.8590749999858,
      "v": 109
    },
    {
      "midi": 67,
      "hit": false,
      "t": 206315.67599999992,
      "d": 1043.8590749999858,
      "v": 109
    },
    {
      "midi": 58,
      "hit": false,
      "t": 207368.3069999999,
      "d": 1043.8590749999858,
      "v": 109
    },
    {
      "midi": 62,
      "hit": false,
      "t": 207368.3069999999,
      "d": 1043.8590749999858,
      "v": 109
    },
    {
      "midi": 67,
      "hit": false,
      "t": 207368.3069999999,
      "d": 1043.8590749999858,
      "v": 109
    },
    {
      "midi": 58,
      "hit": false,
      "t": 208420.9379999999,
      "d": 1043.8590749999858,
      "v": 109
    },
    {
      "midi": 62,
      "hit": false,
      "t": 208420.9379999999,
      "d": 1043.8590749999858,
      "v": 109
    },
    {
      "midi": 67,
      "hit": false,
      "t": 208420.9379999999,
      "d": 1043.8590749999858,
      "v": 109
    },
    {
      "midi": 58,
      "hit": false,
      "t": 209473.5689999999,
      "d": 1043.8590749999858,
      "v": 109
    },
    {
      "midi": 62,
      "hit": false,
      "t": 209473.5689999999,
      "d": 1043.8590749999858,
      "v": 109
    },
    {
      "midi": 67,
      "hit": false,
      "t": 209473.5689999999,
      "d": 1043.8590749999858,
      "v": 109
    },
    {
      "midi": 57,
      "hit": false,
      "t": 210526.1999999999,
      "d": 1043.8590749999858,
      "v": 109
    },
    {
      "midi": 60,
      "hit": false,
      "t": 210526.1999999999,
      "d": 1043.8590749999858,
      "v": 109
    },
    {
      "midi": 65,
      "hit": false,
      "t": 210526.1999999999,
      "d": 1043.8590749999858,
      "v": 109
    },
    {
      "midi": 57,
      "hit": false,
      "t": 211578.8309999999,
      "d": 1043.8590749999858,
      "v": 109
    },
    {
      "midi": 60,
      "hit": false,
      "t": 211578.8309999999,
      "d": 1043.8590749999858,
      "v": 109
    },
    {
      "midi": 65,
      "hit": false,
      "t": 211578.8309999999,
      "d": 1043.8590749999858,
      "v": 109
    },
    {
      "midi": 57,
      "hit": false,
      "t": 212631.46199999988,
      "d": 1043.8590749999858,
      "v": 109
    },
    {
      "midi": 60,
      "hit": false,
      "t": 212631.46199999988,
      "d": 1043.8590749999858,
      "v": 109
    },
    {
      "midi": 65,
      "hit": false,
      "t": 212631.46199999988,
      "d": 1043.8590749999858,
      "v": 109
    },
    {
      "midi": 57,
      "hit": false,
      "t": 213684.09299999988,
      "d": 1043.8590749999858,
      "v": 109
    },
    {
      "midi": 60,
      "hit": false,
      "t": 213684.09299999988,
      "d": 1043.8590749999858,
      "v": 109
    },
    {
      "midi": 65,
      "hit": false,
      "t": 213684.09299999988,
      "d": 1043.8590749999858,
      "v": 109
    },
    {
      "midi": 58,
      "hit": false,
      "t": 214736.72399999987,
      "d": 1043.8590749999858,
      "v": 109
    },
    {
      "midi": 62,
      "hit": false,
      "t": 214736.72399999987,
      "d": 1043.8590749999858,
      "v": 109
    },
    {
      "midi": 67,
      "hit": false,
      "t": 214736.72399999987,
      "d": 1043.8590749999858,
      "v": 109
    },
    {
      "midi": 58,
      "hit": false,
      "t": 215789.35499999986,
      "d": 1043.8590749999858,
      "v": 109
    },
    {
      "midi": 62,
      "hit": false,
      "t": 215789.35499999986,
      "d": 1043.8590749999858,
      "v": 109
    },
    {
      "midi": 67,
      "hit": false,
      "t": 215789.35499999986,
      "d": 1043.8590749999858,
      "v": 109
    },
    {
      "midi": 58,
      "hit": false,
      "t": 216841.98599999986,
      "d": 1043.8590749999858,
      "v": 109
    },
    {
      "midi": 62,
      "hit": false,
      "t": 216841.98599999986,
      "d": 1043.8590749999858,
      "v": 109
    },
    {
      "midi": 67,
      "hit": false,
      "t": 216841.98599999986,
      "d": 1043.8590749999858,
      "v": 109
    },
    {
      "midi": 58,
      "hit": false,
      "t": 217894.61699999985,
      "d": 1043.8590749999858,
      "v": 109
    },
    {
      "midi": 62,
      "hit": false,
      "t": 217894.61699999985,
      "d": 1043.8590749999858,
      "v": 109
    },
    {
      "midi": 67,
      "hit": false,
      "t": 217894.61699999985,
      "d": 1043.8590749999858,
      "v": 109
    },
    {
      "midi": 57,
      "hit": false,
      "t": 218947.24799999985,
      "d": 1043.8590749999858,
      "v": 109
    },
    {
      "midi": 60,
      "hit": false,
      "t": 218947.24799999985,
      "d": 1043.8590749999858,
      "v": 109
    },
    {
      "midi": 65,
      "hit": false,
      "t": 218947.24799999985,
      "d": 1043.8590749999858,
      "v": 109
    },
    {
      "midi": 57,
      "hit": false,
      "t": 219999.87899999984,
      "d": 1043.8590749999858,
      "v": 109
    },
    {
      "midi": 60,
      "hit": false,
      "t": 219999.87899999984,
      "d": 1043.8590749999858,
      "v": 109
    },
    {
      "midi": 65,
      "hit": false,
      "t": 219999.87899999984,
      "d": 1043.8590749999858,
      "v": 109
    },
    {
      "midi": 57,
      "hit": false,
      "t": 221052.50999999983,
      "d": 1043.8590749999858,
      "v": 109
    },
    {
      "midi": 60,
      "hit": false,
      "t": 221052.50999999983,
      "d": 1043.8590749999858,
      "v": 109
    },
    {
      "midi": 65,
      "hit": false,
      "t": 221052.50999999983,
      "d": 1043.8590749999858,
      "v": 109
    },
    {
      "midi": 57,
      "hit": false,
      "t": 222105.14099999983,
      "d": 1043.8590749999858,
      "v": 109
    },
    {
      "midi": 60,
      "hit": false,
      "t": 222105.14099999983,
      "d": 1043.8590749999858,
      "v": 109
    },
    {
      "midi": 65,
      "hit": false,
      "t": 222105.14099999983,
      "d": 1043.8590749999858,
      "v": 109
    },
    {
      "midi": 58,
      "hit": false,
      "t": 223157.77199999982,
      "d": 1043.8590749999858,
      "v": 109
    },
    {
      "midi": 62,
      "hit": false,
      "t": 223157.77199999982,
      "d": 1043.8590749999858,
      "v": 109
    },
    {
      "midi": 67,
      "hit": false,
      "t": 223157.77199999982,
      "d": 1043.8590749999858,
      "v": 109
    },
    {
      "midi": 58,
      "hit": false,
      "t": 224210.40299999982,
      "d": 1043.8590749999858,
      "v": 109
    },
    {
      "midi": 62,
      "hit": false,
      "t": 224210.40299999982,
      "d": 1043.8590749999858,
      "v": 109
    },
    {
      "midi": 67,
      "hit": false,
      "t": 224210.40299999982,
      "d": 1043.8590749999858,
      "v": 109
    },
    {
      "midi": 51,
      "hit": false,
      "t": 225263.0339999998,
      "d": 1570.1745750000118,
      "v": 109
    },
    {
      "midi": 55,
      "hit": false,
      "t": 225263.0339999998,
      "d": 1570.1745750000118,
      "v": 109
    },
    {
      "midi": 58,
      "hit": false,
      "t": 225263.0339999998,
      "d": 1570.1745750000118,
      "v": 109
    },
    {
      "midi": 53,
      "hit": false,
      "t": 226841.98049999983,
      "d": 517.5435749999888,
      "v": 109
    },
    {
      "midi": 57,
      "hit": false,
      "t": 226841.98049999983,
      "d": 517.5435749999888,
      "v": 109
    },
    {
      "midi": 60,
      "hit": false,
      "t": 226841.98049999983,
      "d": 517.5435749999888,
      "v": 109
    },
    {
      "midi": 55,
      "hit": false,
      "t": 227368.29599999983,
      "d": 1043.8590749999858,
      "v": 109
    },
    {
      "midi": 58,
      "hit": false,
      "t": 227368.29599999983,
      "d": 1043.8590749999858,
      "v": 109
    },
    {
      "midi": 62,
      "hit": false,
      "t": 227368.29599999983,
      "d": 1043.8590749999858,
      "v": 109
    },
    {
      "midi": 55,
      "hit": false,
      "t": 228420.92699999982,
      "d": 1043.8590749999858,
      "v": 109
    },
    {
      "midi": 58,
      "hit": false,
      "t": 228420.92699999982,
      "d": 1043.8590749999858,
      "v": 109
    },
    {
      "midi": 63,
      "hit": false,
      "t": 228420.92699999982,
      "d": 1043.8590749999858,
      "v": 109
    },
    {
      "midi": 53,
      "hit": false,
      "t": 229473.55799999982,
      "d": 1043.8590749999858,
      "v": 109
    },
    {
      "midi": 58,
      "hit": false,
      "t": 229473.55799999982,
      "d": 1570.1745749999827,
      "v": 109
    },
    {
      "midi": 62,
      "hit": false,
      "t": 229473.55799999982,
      "d": 1570.1745749999827,
      "v": 109
    },
    {
      "midi": 72,
      "hit": false,
      "t": 231052.5044999998,
      "d": 254.38582500000484,
      "v": 109
    },
    {
      "midi": 74,
      "hit": false,
      "t": 231315.66224999982,
      "d": 254.38582500000484,
      "v": 109
    },
    {
      "midi": 65,
      "hit": false,
      "t": 231578.81999999983,
      "d": 1043.8590749999858,
      "v": 88
    },
    {
      "midi": 69,
      "hit": false,
      "t": 231578.81999999983,
      "d": 1043.8590749999858,
      "v": 88
    },
    {
      "midi": 72,
      "hit": false,
      "t": 231578.81999999983,
      "d": 1043.8590749999858,
      "v": 88
    },
    {
      "midi": 67,
      "hit": false,
      "t": 232631.45099999983,
      "d": 1043.8590749999858,
      "v": 88
    },
    {
      "midi": 71,
      "hit": false,
      "t": 232631.45099999983,
      "d": 1043.8590749999858,
      "v": 88
    },
    {
      "midi": 74,
      "hit": false,
      "t": 232631.45099999983,
      "d": 1043.8590749999858,
      "v": 88
    },
    {
      "midi": 62,
      "hit": false,
      "t": 275789.3219999998,
      "d": 1043.8590749999858,
      "v": 100
    },
    {
      "midi": 65,
      "hit": false,
      "t": 275789.3219999998,
      "d": 1043.8590749999858,
      "v": 100
    },
    {
      "midi": 69,
      "hit": false,
      "t": 275789.3219999998,
      "d": 1043.8590749999858,
      "v": 100
    },
    {
      "midi": 62,
      "hit": false,
      "t": 276841.9529999998,
      "d": 1043.8590749999858,
      "v": 100
    },
    {
      "midi": 65,
      "hit": false,
      "t": 276841.9529999998,
      "d": 1043.8590749999858,
      "v": 100
    },
    {
      "midi": 69,
      "hit": false,
      "t": 276841.9529999998,
      "d": 1043.8590749999858,
      "v": 100
    },
    {
      "midi": 60,
      "hit": false,
      "t": 277894.5839999998,
      "d": 1043.8590749999858,
      "v": 100
    },
    {
      "midi": 64,
      "hit": false,
      "t": 277894.5839999998,
      "d": 1043.8590749999858,
      "v": 100
    },
    {
      "midi": 67,
      "hit": false,
      "t": 277894.5839999998,
      "d": 1043.8590749999858,
      "v": 100
    },
    {
      "midi": 60,
      "hit": false,
      "t": 278947.2149999998,
      "d": 1043.8590749999858,
      "v": 100
    },
    {
      "midi": 64,
      "hit": false,
      "t": 278947.2149999998,
      "d": 1043.8590749999858,
      "v": 100
    },
    {
      "midi": 67,
      "hit": false,
      "t": 278947.2149999998,
      "d": 1043.8590749999858,
      "v": 100
    },
    {
      "midi": 60,
      "hit": false,
      "t": 279999.8459999998,
      "d": 1043.8590749999858,
      "v": 100
    },
    {
      "midi": 64,
      "hit": false,
      "t": 279999.8459999998,
      "d": 1043.8590749999858,
      "v": 100
    },
    {
      "midi": 67,
      "hit": false,
      "t": 279999.8459999998,
      "d": 1043.8590749999858,
      "v": 100
    },
    {
      "midi": 60,
      "hit": false,
      "t": 281052.4769999998,
      "d": 1043.8590749999858,
      "v": 100
    },
    {
      "midi": 64,
      "hit": false,
      "t": 281052.4769999998,
      "d": 1043.8590749999858,
      "v": 100
    },
    {
      "midi": 67,
      "hit": false,
      "t": 281052.4769999998,
      "d": 1043.8590749999858,
      "v": 100
    },
    {
      "midi": 57,
      "hit": false,
      "t": 282105.1079999998,
      "d": 1043.8590749999858,
      "v": 100
    },
    {
      "midi": 62,
      "hit": false,
      "t": 282105.1079999998,
      "d": 1043.8590749999858,
      "v": 100
    },
    {
      "midi": 65,
      "hit": false,
      "t": 282105.1079999998,
      "d": 1043.8590749999858,
      "v": 100
    },
    {
      "midi": 57,
      "hit": false,
      "t": 283157.73899999977,
      "d": 1043.8590749999858,
      "v": 100
    },
    {
      "midi": 62,
      "hit": false,
      "t": 283157.73899999977,
      "d": 1043.8590749999858,
      "v": 100
    },
    {
      "midi": 65,
      "hit": false,
      "t": 283157.73899999977,
      "d": 1043.8590749999858,
      "v": 100
    },
    {
      "midi": 62,
      "hit": false,
      "t": 284210.36999999976,
      "d": 1043.8590749999858,
      "v": 100
    },
    {
      "midi": 65,
      "hit": false,
      "t": 284210.36999999976,
      "d": 1043.8590749999858,
      "v": 100
    },
    {
      "midi": 69,
      "hit": false,
      "t": 284210.36999999976,
      "d": 1043.8590749999858,
      "v": 100
    },
    {
      "midi": 62,
      "hit": false,
      "t": 285263.00099999976,
      "d": 1043.8590749999858,
      "v": 100
    },
    {
      "midi": 65,
      "hit": false,
      "t": 285263.00099999976,
      "d": 1043.8590749999858,
      "v": 100
    },
    {
      "midi": 69,
      "hit": false,
      "t": 285263.00099999976,
      "d": 1043.8590749999858,
      "v": 100
    },
    {
      "midi": 60,
      "hit": false,
      "t": 286315.63199999975,
      "d": 1043.8590749999858,
      "v": 100
    },
    {
      "midi": 64,
      "hit": false,
      "t": 286315.63199999975,
      "d": 1043.8590749999858,
      "v": 100
    },
    {
      "midi": 67,
      "hit": false,
      "t": 286315.63199999975,
      "d": 1043.8590749999858,
      "v": 100
    },
    {
      "midi": 60,
      "hit": false,
      "t": 287368.26299999974,
      "d": 1043.8590749999858,
      "v": 100
    },
    {
      "midi": 64,
      "hit": false,
      "t": 287368.26299999974,
      "d": 1043.8590749999858,
      "v": 100
    },
    {
      "midi": 67,
      "hit": false,
      "t": 287368.26299999974,
      "d": 1043.8590749999858,
      "v": 100
    },
    {
      "midi": 60,
      "hit": false,
      "t": 288420.89399999974,
      "d": 1043.8590749999858,
      "v": 100
    },
    {
      "midi": 64,
      "hit": false,
      "t": 288420.89399999974,
      "d": 1043.8590749999858,
      "v": 100
    },
    {
      "midi": 67,
      "hit": false,
      "t": 288420.89399999974,
      "d": 1043.8590749999858,
      "v": 100
    },
    {
      "midi": 60,
      "hit": false,
      "t": 289473.52499999973,
      "d": 1043.8590749999858,
      "v": 100
    },
    {
      "midi": 64,
      "hit": false,
      "t": 289473.52499999973,
      "d": 1043.8590749999858,
      "v": 100
    },
    {
      "midi": 67,
      "hit": false,
      "t": 289473.52499999973,
      "d": 1043.8590749999858,
      "v": 100
    },
    {
      "midi": 57,
      "hit": false,
      "t": 290526.1559999997,
      "d": 1043.8590749999858,
      "v": 100
    },
    {
      "midi": 62,
      "hit": false,
      "t": 290526.1559999997,
      "d": 1043.8590749999858,
      "v": 100
    },
    {
      "midi": 65,
      "hit": false,
      "t": 290526.1559999997,
      "d": 1043.8590749999858,
      "v": 100
    },
    {
      "midi": 57,
      "hit": false,
      "t": 291578.7869999997,
      "d": 1043.8590749999858,
      "v": 100
    },
    {
      "midi": 62,
      "hit": false,
      "t": 291578.7869999997,
      "d": 1043.8590749999858,
      "v": 100
    },
    {
      "midi": 65,
      "hit": false,
      "t": 291578.7869999997,
      "d": 1043.8590749999858,
      "v": 100
    },
    {
      "midi": 62,
      "hit": false,
      "t": 292631.4179999997,
      "d": 1043.8590749999858,
      "v": 100
    },
    {
      "midi": 65,
      "hit": false,
      "t": 292631.4179999997,
      "d": 1043.8590749999858,
      "v": 100
    },
    {
      "midi": 69,
      "hit": false,
      "t": 292631.4179999997,
      "d": 1043.8590749999858,
      "v": 100
    },
    {
      "midi": 62,
      "hit": false,
      "t": 293684.0489999997,
      "d": 1043.8590749999858,
      "v": 100
    },
    {
      "midi": 65,
      "hit": false,
      "t": 293684.0489999997,
      "d": 1043.8590749999858,
      "v": 100
    },
    {
      "midi": 69,
      "hit": false,
      "t": 293684.0489999997,
      "d": 1043.8590749999858,
      "v": 100
    },
    {
      "midi": 60,
      "hit": false,
      "t": 294736.6799999997,
      "d": 1043.8590749999858,
      "v": 100
    },
    {
      "midi": 64,
      "hit": false,
      "t": 294736.6799999997,
      "d": 1043.8590749999858,
      "v": 100
    },
    {
      "midi": 67,
      "hit": false,
      "t": 294736.6799999997,
      "d": 1043.8590749999858,
      "v": 100
    },
    {
      "midi": 60,
      "hit": false,
      "t": 295789.3109999997,
      "d": 1043.8590749999858,
      "v": 100
    },
    {
      "midi": 64,
      "hit": false,
      "t": 295789.3109999997,
      "d": 1043.8590749999858,
      "v": 100
    },
    {
      "midi": 67,
      "hit": false,
      "t": 295789.3109999997,
      "d": 1043.8590749999858,
      "v": 100
    },
    {
      "midi": 60,
      "hit": false,
      "t": 296841.9419999997,
      "d": 1043.8590749999858,
      "v": 100
    },
    {
      "midi": 64,
      "hit": false,
      "t": 296841.9419999997,
      "d": 1043.8590749999858,
      "v": 100
    },
    {
      "midi": 67,
      "hit": false,
      "t": 296841.9419999997,
      "d": 1043.8590749999858,
      "v": 100
    },
    {
      "midi": 60,
      "hit": false,
      "t": 297894.5729999997,
      "d": 1043.8590749999858,
      "v": 100
    },
    {
      "midi": 64,
      "hit": false,
      "t": 297894.5729999997,
      "d": 1043.8590749999858,
      "v": 100
    },
    {
      "midi": 67,
      "hit": false,
      "t": 297894.5729999997,
      "d": 1043.8590749999858,
      "v": 100
    },
    {
      "midi": 57,
      "hit": false,
      "t": 298947.2039999997,
      "d": 1043.8590749999858,
      "v": 100
    },
    {
      "midi": 62,
      "hit": false,
      "t": 298947.2039999997,
      "d": 1043.8590749999858,
      "v": 100
    },
    {
      "midi": 65,
      "hit": false,
      "t": 298947.2039999997,
      "d": 1043.8590749999858,
      "v": 100
    },
    {
      "midi": 57,
      "hit": false,
      "t": 299999.8349999997,
      "d": 1043.8590749999858,
      "v": 100
    },
    {
      "midi": 62,
      "hit": false,
      "t": 299999.8349999997,
      "d": 1043.8590749999858,
      "v": 100
    },
    {
      "midi": 65,
      "hit": false,
      "t": 299999.8349999997,
      "d": 1043.8590749999858,
      "v": 100
    },
    {
      "midi": 62,
      "hit": false,
      "t": 301052.46599999967,
      "d": 1043.8590749999858,
      "v": 100
    },
    {
      "midi": 65,
      "hit": false,
      "t": 301052.46599999967,
      "d": 1043.8590749999858,
      "v": 100
    },
    {
      "midi": 69,
      "hit": false,
      "t": 301052.46599999967,
      "d": 1043.8590749999858,
      "v": 100
    },
    {
      "midi": 62,
      "hit": false,
      "t": 302105.09699999966,
      "d": 1043.8590749999858,
      "v": 100
    },
    {
      "midi": 65,
      "hit": false,
      "t": 302105.09699999966,
      "d": 1043.8590749999858,
      "v": 100
    },
    {
      "midi": 69,
      "hit": false,
      "t": 302105.09699999966,
      "d": 1043.8590749999858,
      "v": 100
    },
    {
      "midi": 60,
      "hit": false,
      "t": 303157.72799999965,
      "d": 1043.8590749999858,
      "v": 100
    },
    {
      "midi": 64,
      "hit": false,
      "t": 303157.72799999965,
      "d": 1043.8590749999858,
      "v": 100
    },
    {
      "midi": 67,
      "hit": false,
      "t": 303157.72799999965,
      "d": 1043.8590749999858,
      "v": 100
    },
    {
      "midi": 60,
      "hit": false,
      "t": 304210.35899999965,
      "d": 1043.8590749999858,
      "v": 100
    },
    {
      "midi": 64,
      "hit": false,
      "t": 304210.35899999965,
      "d": 1043.8590749999858,
      "v": 100
    },
    {
      "midi": 67,
      "hit": false,
      "t": 304210.35899999965,
      "d": 1043.8590749999858,
      "v": 100
    },
    {
      "midi": 60,
      "hit": false,
      "t": 305262.98999999964,
      "d": 1043.8590749999858,
      "v": 100
    },
    {
      "midi": 64,
      "hit": false,
      "t": 305262.98999999964,
      "d": 1043.8590749999858,
      "v": 100
    },
    {
      "midi": 67,
      "hit": false,
      "t": 305262.98999999964,
      "d": 1043.8590749999858,
      "v": 100
    },
    {
      "midi": 60,
      "hit": false,
      "t": 306315.62099999964,
      "d": 1043.8590749999858,
      "v": 100
    },
    {
      "midi": 64,
      "hit": false,
      "t": 306315.62099999964,
      "d": 1043.8590749999858,
      "v": 100
    },
    {
      "midi": 67,
      "hit": false,
      "t": 306315.62099999964,
      "d": 1043.8590749999858,
      "v": 100
    },
    {
      "midi": 57,
      "hit": false,
      "t": 307368.25199999963,
      "d": 1043.8590749999858,
      "v": 100
    },
    {
      "midi": 62,
      "hit": false,
      "t": 307368.25199999963,
      "d": 1043.8590749999858,
      "v": 100
    },
    {
      "midi": 65,
      "hit": false,
      "t": 307368.25199999963,
      "d": 1043.8590749999858,
      "v": 100
    },
    {
      "midi": 57,
      "hit": false,
      "t": 308420.8829999996,
      "d": 1043.8590749999858,
      "v": 100
    },
    {
      "midi": 62,
      "hit": false,
      "t": 308420.8829999996,
      "d": 1043.8590749999858,
      "v": 100
    },
    {
      "midi": 65,
      "hit": false,
      "t": 308420.8829999996,
      "d": 1043.8590749999858,
      "v": 100
    },
    {
      "midi": 62,
      "hit": false,
      "t": 309473.5139999996,
      "d": 1043.8590749999858,
      "v": 100
    },
    {
      "midi": 65,
      "hit": false,
      "t": 309473.5139999996,
      "d": 1043.8590749999858,
      "v": 100
    },
    {
      "midi": 69,
      "hit": false,
      "t": 309473.5139999996,
      "d": 1043.8590749999858,
      "v": 100
    },
    {
      "midi": 62,
      "hit": false,
      "t": 310526.1449999996,
      "d": 1043.8590749999858,
      "v": 100
    },
    {
      "midi": 65,
      "hit": false,
      "t": 310526.1449999996,
      "d": 1043.8590749999858,
      "v": 100
    },
    {
      "midi": 69,
      "hit": false,
      "t": 310526.1449999996,
      "d": 1043.8590749999858,
      "v": 100
    },
    {
      "midi": 60,
      "hit": false,
      "t": 311578.7759999996,
      "d": 1043.8590749999858,
      "v": 100
    },
    {
      "midi": 64,
      "hit": false,
      "t": 311578.7759999996,
      "d": 1043.8590749999858,
      "v": 100
    },
    {
      "midi": 67,
      "hit": false,
      "t": 311578.7759999996,
      "d": 1043.8590749999858,
      "v": 100
    },
    {
      "midi": 60,
      "hit": false,
      "t": 312631.4069999996,
      "d": 1043.8590749999858,
      "v": 100
    },
    {
      "midi": 64,
      "hit": false,
      "t": 312631.4069999996,
      "d": 1043.8590749999858,
      "v": 100
    },
    {
      "midi": 67,
      "hit": false,
      "t": 312631.4069999996,
      "d": 1043.8590749999858,
      "v": 100
    },
    {
      "midi": 60,
      "hit": false,
      "t": 313684.0379999996,
      "d": 1043.8590749999858,
      "v": 100
    },
    {
      "midi": 64,
      "hit": false,
      "t": 313684.0379999996,
      "d": 1043.8590749999858,
      "v": 100
    },
    {
      "midi": 67,
      "hit": false,
      "t": 313684.0379999996,
      "d": 1043.8590749999858,
      "v": 100
    },
    {
      "midi": 60,
      "hit": false,
      "t": 314736.6689999996,
      "d": 1043.8590749999858,
      "v": 100
    },
    {
      "midi": 64,
      "hit": false,
      "t": 314736.6689999996,
      "d": 1043.8590749999858,
      "v": 100
    },
    {
      "midi": 67,
      "hit": false,
      "t": 314736.6689999996,
      "d": 1043.8590749999858,
      "v": 100
    },
    {
      "midi": 57,
      "hit": false,
      "t": 315789.2999999996,
      "d": 1043.8590749999858,
      "v": 100
    },
    {
      "midi": 62,
      "hit": false,
      "t": 315789.2999999996,
      "d": 1043.8590749999858,
      "v": 100
    },
    {
      "midi": 65,
      "hit": false,
      "t": 315789.2999999996,
      "d": 1043.8590749999858,
      "v": 100
    },
    {
      "midi": 57,
      "hit": false,
      "t": 316841.9309999996,
      "d": 1043.8590749999858,
      "v": 100
    },
    {
      "midi": 62,
      "hit": false,
      "t": 316841.9309999996,
      "d": 1043.8590749999858,
      "v": 100
    },
    {
      "midi": 65,
      "hit": false,
      "t": 316841.9309999996,
      "d": 1043.8590749999858,
      "v": 100
    },
    {
      "midi": 60,
      "hit": false,
      "t": 319999.82399999956,
      "d": 1043.8590749999858,
      "v": 82
    },
    {
      "midi": 65,
      "hit": false,
      "t": 319999.82399999956,
      "d": 1043.8590749999858,
      "v": 82
    },
    {
      "midi": 67,
      "hit": false,
      "t": 319999.82399999956,
      "d": 1043.8590749999858,
      "v": 82
    },
    {
      "midi": 60,
      "hit": false,
      "t": 321052.45499999955,
      "d": 1043.8590749999858,
      "v": 82
    },
    {
      "midi": 64,
      "hit": false,
      "t": 321052.45499999955,
      "d": 1043.8590749999858,
      "v": 82
    },
    {
      "midi": 67,
      "hit": false,
      "t": 321052.45499999955,
      "d": 1043.8590749999858,
      "v": 82
    },
    {
      "midi": 57,
      "hit": false,
      "t": 322105.08599999954,
      "d": 2096.4900749999797,
      "v": 76
    },
    {
      "midi": 60,
      "hit": false,
      "t": 322105.08599999954,
      "d": 2096.4900749999797,
      "v": 76
    },
    {
      "midi": 65,
      "hit": false,
      "t": 322105.08599999954,
      "d": 2096.4900749999797,
      "v": 76
    },
    {
      "midi": 58,
      "hit": false,
      "t": 324210.34799999953,
      "d": 2096.4900749999797,
      "v": 86
    },
    {
      "midi": 63,
      "hit": false,
      "t": 324210.34799999953,
      "d": 2096.4900749999797,
      "v": 86
    },
    {
      "midi": 67,
      "hit": false,
      "t": 324210.34799999953,
      "d": 2096.4900749999797,
      "v": 86
    },
    {
      "midi": 58,
      "hit": false,
      "t": 326315.6099999995,
      "d": 1043.8590749999858,
      "v": 86
    },
    {
      "midi": 62,
      "hit": false,
      "t": 326315.6099999995,
      "d": 1043.8590749999858,
      "v": 86
    },
    {
      "midi": 65,
      "hit": false,
      "t": 326315.6099999995,
      "d": 1043.8590749999858,
      "v": 86
    },
    {
      "midi": 58,
      "hit": false,
      "t": 327368.2409999995,
      "d": 1043.8590749999858,
      "v": 86
    },
    {
      "midi": 62,
      "hit": false,
      "t": 327368.2409999995,
      "d": 1043.8590749999858,
      "v": 86
    },
    {
      "midi": 74,
      "hit": false,
      "t": 327368.2409999995,
      "d": 1043.8590749999858,
      "v": 86
    },
    {
      "midi": 57,
      "hit": false,
      "t": 328420.8719999995,
      "d": 2096.490075000096,
      "v": 86
    },
    {
      "midi": 60,
      "hit": false,
      "t": 328420.8719999995,
      "d": 2096.490075000096,
      "v": 86
    },
    {
      "midi": 65,
      "hit": false,
      "t": 328420.8719999995,
      "d": 2096.490075000096,
      "v": 86
    },
    {
      "midi": 48,
      "hit": false,
      "t": 328947.18749999953,
      "d": 517.5435750000179,
      "v": 95
    },
    {
      "midi": 53,
      "hit": false,
      "t": 329473.50299999956,
      "d": 517.5435750000179,
      "v": 95
    },
    {
      "midi": 55,
      "hit": false,
      "t": 329999.8184999996,
      "d": 517.5435750000179,
      "v": 95
    },
    {
      "midi": 57,
      "hit": false,
      "t": 330526.1339999996,
      "d": 517.5435750000179,
      "v": 95
    },
    {
      "midi": 60,
      "hit": false,
      "t": 331052.44949999964,
      "d": 517.5435750000179,
      "v": 95
    },
    {
      "midi": 65,
      "hit": false,
      "t": 331578.76499999966,
      "d": 517.5435750000179,
      "v": 95
    },
    {
      "midi": 69,
      "hit": false,
      "t": 332105.0804999997,
      "d": 517.5435750000179,
      "v": 95
    },
    {
      "midi": 58,
      "hit": false,
      "t": 332631.3959999997,
      "d": 2096.4900749999797,
      "v": 73
    },
    {
      "midi": 63,
      "hit": false,
      "t": 332631.3959999997,
      "d": 2096.4900749999797,
      "v": 73
    },
    {
      "midi": 67,
      "hit": false,
      "t": 332631.3959999997,
      "d": 2096.4900749999797,
      "v": 73
    },
    {
      "midi": 58,
      "hit": false,
      "t": 334736.6579999997,
      "d": 2096.4900749999797,
      "v": 72
    },
    {
      "midi": 62,
      "hit": false,
      "t": 334736.6579999997,
      "d": 2096.4900749999797,
      "v": 72
    },
    {
      "midi": 65,
      "hit": false,
      "t": 334736.6579999997,
      "d": 2096.4900749999797,
      "v": 72
    },
    {
      "midi": 53,
      "hit": false,
      "t": 336841.9199999997,
      "d": 4201.752075000026,
      "v": 62
    },
    {
      "midi": 57,
      "hit": false,
      "t": 336841.9199999997,
      "d": 4201.752075000026,
      "v": 62
    },
    {
      "midi": 60,
      "hit": false,
      "t": 336841.9199999997,
      "d": 4201.752075000026,
      "v": 62
    },
    {
      "midi": 65,
      "hit": false,
      "t": 336841.9199999997,
      "d": 4201.752075000026,
      "v": 62
    }
  ]
}