{
  "jsonPath": "Soundtracks/Video Game Music/Shin Megami Tensei Nocturne/shin-megami-tensei-nocturne-titleloop2.json",
  "path": "Soundtracks\\Video Game Music\\Shin Megami Tensei Nocturne\\Shin_Megami_Tensei_Nocturne_TitleLoop2.mid",
  "name": "Shin_Megami_Tensei_Nocturne_TitleLoop2",
  "difficulty": "Advanced",
  "bpm": 102.0000510000255,
  "notes": [
    {
      "midi": 45,
      "hit": false,
      "t": 0,
      "d": 31.594653320312503,
      "v": 74
    },
    {
      "midi": 57,
      "hit": false,
      "t": 0,
      "d": 51.70034179687501,
      "v": 77
    },
    {
      "midi": 57,
      "hit": false,
      "t": 147.05875000000003,
      "d": 42.66235611979167,
      "v": 73
    },
    {
      "midi": 45,
      "hit": false,
      "t": 147.05875000000003,
      "d": 84.09922265624999,
      "v": 70
    },
    {
      "midi": 57,
      "hit": false,
      "t": 294.1175,
      "d": 78.50792643229164,
      "v": 70
    },
    {
      "midi": 45,
      "hit": false,
      "t": 294.1175,
      "d": 82.45247102864579,
      "v": 44
    },
    {
      "midi": 45,
      "hit": false,
      "t": 441.17625,
      "d": 49.555735026041646,
      "v": 50
    },
    {
      "midi": 57,
      "hit": false,
      "t": 441.17625,
      "d": 72.57196126302085,
      "v": 53
    },
    {
      "midi": 57,
      "hit": false,
      "t": 588.235,
      "d": 290.67081054687503,
      "v": 77
    },
    {
      "midi": 45,
      "hit": false,
      "t": 588.235,
      "d": 306.48728548177087,
      "v": 69
    },
    {
      "midi": 45,
      "hit": false,
      "t": 1029.41125,
      "d": 101.17948372395836,
      "v": 74
    },
    {
      "midi": 57,
      "hit": false,
      "t": 1029.41125,
      "d": 103.32409049479179,
      "v": 83
    },
    {
      "midi": 45,
      "hit": false,
      "t": 2352.9400000000005,
      "d": 28.1096673177085,
      "v": 78
    },
    {
      "midi": 57,
      "hit": false,
      "t": 2352.9400000000005,
      "d": 30.75212923177105,
      "v": 81
    },
    {
      "midi": 45,
      "hit": false,
      "t": 2499.9987500000007,
      "d": 37.56891503906263,
      "v": 64
    },
    {
      "midi": 57,
      "hit": false,
      "t": 2499.9987500000007,
      "d": 40.97730794270865,
      "v": 66
    },
    {
      "midi": 45,
      "hit": false,
      "t": 2647.057500000001,
      "d": 45.189928385416806,
      "v": 65
    },
    {
      "midi": 57,
      "hit": false,
      "t": 2647.057500000001,
      "d": 47.7557972005211,
      "v": 65
    },
    {
      "midi": 45,
      "hit": false,
      "t": 2794.116250000001,
      "d": 36.72639095052091,
      "v": 63
    },
    {
      "midi": 57,
      "hit": false,
      "t": 2794.116250000001,
      "d": 43.12191471354163,
      "v": 70
    },
    {
      "midi": 45,
      "hit": false,
      "t": 2941.175000000001,
      "d": 292.470748372396,
      "v": 67
    },
    {
      "midi": 57,
      "hit": false,
      "t": 2941.175000000001,
      "d": 301.73851334635447,
      "v": 66
    },
    {
      "midi": 57,
      "hit": false,
      "t": 3382.3512500000015,
      "d": 101.56244921874986,
      "v": 78
    },
    {
      "midi": 45,
      "hit": false,
      "t": 3382.3512500000015,
      "d": 116.53640006510386,
      "v": 77
    },
    {
      "midi": 45,
      "hit": false,
      "t": 4705.880000000001,
      "d": 35.730680664062675,
      "v": 76
    },
    {
      "midi": 57,
      "hit": false,
      "t": 4705.880000000001,
      "d": 58.057569010416955,
      "v": 77
    },
    {
      "midi": 45,
      "hit": false,
      "t": 4852.938750000001,
      "d": 48.330245442708474,
      "v": 73
    },
    {
      "midi": 57,
      "hit": false,
      "t": 4852.938750000001,
      "d": 86.09064322916674,
      "v": 73
    },
    {
      "midi": 45,
      "hit": false,
      "t": 4999.997500000001,
      "d": 53.615169270833576,
      "v": 55
    },
    {
      "midi": 57,
      "hit": false,
      "t": 4999.997500000001,
      "d": 90.95430501302144,
      "v": 49
    },
    {
      "midi": 45,
      "hit": false,
      "t": 5147.056250000002,
      "d": 54.687472656250065,
      "v": 61
    },
    {
      "midi": 57,
      "hit": false,
      "t": 5147.056250000002,
      "d": 81.30357454427121,
      "v": 38
    },
    {
      "midi": 57,
      "hit": false,
      "t": 5294.1150000000025,
      "d": 344.86042805989564,
      "v": 73
    },
    {
      "midi": 45,
      "hit": false,
      "t": 5294.1150000000025,
      "d": 356.54087565104146,
      "v": 74
    },
    {
      "midi": 57,
      "hit": false,
      "t": 5735.291250000002,
      "d": 106.96226269531235,
      "v": 73
    },
    {
      "midi": 45,
      "hit": false,
      "t": 5735.291250000002,
      "d": 122.35747558593721,
      "v": 73
    },
    {
      "midi": 57,
      "hit": false,
      "t": 6029.408750000001,
      "d": 126.2637236328128,
      "v": 74
    },
    {
      "midi": 45,
      "hit": false,
      "t": 6029.408750000001,
      "d": 133.00391634114658,
      "v": 74
    },
    {
      "midi": 45,
      "hit": false,
      "t": 7058.820000000002,
      "d": 41.97301822916688,
      "v": 76
    },
    {
      "midi": 57,
      "hit": false,
      "t": 7058.820000000002,
      "d": 55.606589843750044,
      "v": 77
    },
    {
      "midi": 57,
      "hit": false,
      "t": 7205.878750000003,
      "d": 50.245072916666686,
      "v": 72
    },
    {
      "midi": 45,
      "hit": false,
      "t": 7205.878750000003,
      "d": 50.32166601562494,
      "v": 65
    },
    {
      "midi": 57,
      "hit": false,
      "t": 7352.937500000003,
      "d": 59.05327929687519,
      "v": 68
    },
    {
      "midi": 45,
      "hit": false,
      "t": 7352.937500000003,
      "d": 92.33298079427095,
      "v": 53
    },
    {
      "midi": 57,
      "hit": false,
      "t": 7499.996250000003,
      "d": 47.411128255208496,
      "v": 65
    },
    {
      "midi": 45,
      "hit": false,
      "t": 7499.996250000003,
      "d": 89.53733268229189,
      "v": 29
    },
    {
      "midi": 57,
      "hit": false,
      "t": 7647.055000000003,
      "d": 296.1472171223959,
      "v": 74
    },
    {
      "midi": 45,
      "hit": false,
      "t": 7647.055000000003,
      "d": 308.210630208333,
      "v": 78
    },
    {
      "midi": 57,
      "hit": false,
      "t": 8088.231250000003,
      "d": 101.67733886718725,
      "v": 86
    },
    {
      "midi": 45,
      "hit": false,
      "t": 8088.231250000003,
      "d": 119.56182747395724,
      "v": 78
    },
    {
      "midi": 57,
      "hit": false,
      "t": 8382.348750000001,
      "d": 236.09822753906337,
      "v": 86
    },
    {
      "midi": 45,
      "hit": false,
      "t": 8382.348750000001,
      "d": 248.62119921875092,
      "v": 79
    },
    {
      "midi": 57,
      "hit": false,
      "t": 8823.525000000001,
      "d": 126.26372363281189,
      "v": 82
    },
    {
      "midi": 45,
      "hit": false,
      "t": 8823.525000000001,
      "d": 135.95275065104033,
      "v": 74
    },
    {
      "midi": 45,
      "hit": false,
      "t": 9117.6425,
      "d": 113.66415885416609,
      "v": 84
    },
    {
      "midi": 57,
      "hit": false,
      "t": 9117.6425,
      "d": 128.79129589843615,
      "v": 87
    },
    {
      "midi": 38,
      "hit": false,
      "t": 9411.759999999998,
      "d": 119.4852343750008,
      "v": 68
    },
    {
      "midi": 50,
      "hit": false,
      "t": 9411.759999999998,
      "d": 128.0253649088554,
      "v": 77
    },
    {
      "midi": 62,
      "hit": false,
      "t": 9411.759999999998,
      "d": 162.60714908854243,
      "v": 68
    },
    {
      "midi": 74,
      "hit": false,
      "t": 9411.759999999998,
      "d": 197.18893326822945,
      "v": 72
    },
    {
      "midi": 50,
      "hit": false,
      "t": 9705.877499999999,
      "d": 31.135094726561874,
      "v": 55
    },
    {
      "midi": 38,
      "hit": false,
      "t": 9705.877499999999,
      "d": 51.700341796873545,
      "v": 26
    },
    {
      "midi": 50,
      "hit": false,
      "t": 9852.936249999997,
      "d": 100.2603665364586,
      "v": 57
    },
    {
      "midi": 38,
      "hit": false,
      "t": 9852.936249999997,
      "d": 107.99626953124971,
      "v": 52
    },
    {
      "midi": 64,
      "hit": false,
      "t": 9852.936249999997,
      "d": 195.503885091146,
      "v": 79
    },
    {
      "midi": 76,
      "hit": false,
      "t": 9852.936249999997,
      "d": 226.677276367187,
      "v": 73
    },
    {
      "midi": 38,
      "hit": false,
      "t": 10147.053749999997,
      "d": 38.411439127603444,
      "v": 43
    },
    {
      "midi": 50,
      "hit": false,
      "t": 10147.053749999997,
      "d": 39.292259765623385,
      "v": 57
    },
    {
      "midi": 52,
      "hit": false,
      "t": 10294.112499999996,
      "d": 131.96990950520922,
      "v": 68
    },
    {
      "midi": 40,
      "hit": false,
      "t": 10294.112499999996,
      "d": 136.1442333984378,
      "v": 70
    },
    {
      "midi": 79,
      "hit": false,
      "t": 10294.112499999996,
      "d": 960.4008678385435,
      "v": 73
    },
    {
      "midi": 67,
      "hit": false,
      "t": 10294.112499999996,
      "d": 968.4431432291676,
      "v": 77
    },
    {
      "midi": 40,
      "hit": false,
      "t": 10588.229999999996,
      "d": 48.6366178385415,
      "v": 57
    },
    {
      "midi": 52,
      "hit": false,
      "t": 10588.229999999996,
      "d": 65.71687890625071,
      "v": 60
    },
    {
      "midi": 40,
      "hit": false,
      "t": 10735.288749999996,
      "d": 40.59434244791737,
      "v": 49
    },
    {
      "midi": 52,
      "hit": false,
      "t": 10735.288749999996,
      "d": 49.05787988281372,
      "v": 59
    },
    {
      "midi": 52,
      "hit": false,
      "t": 10882.347499999998,
      "d": 127.68069596354144,
      "v": 73
    },
    {
      "midi": 40,
      "hit": false,
      "t": 10882.347499999998,
      "d": 138.71010221354118,
      "v": 66
    },
    {
      "midi": 52,
      "hit": false,
      "t": 11176.464999999998,
      "d": 127.64239941406049,
      "v": 73
    },
    {
      "midi": 40,
      "hit": false,
      "t": 11176.464999999998,
      "d": 129.4040406901022,
      "v": 67
    },
    {
      "midi": 40,
      "hit": false,
      "t": 11470.582499999997,
      "d": 148.13105338541754,
      "v": 61
    },
    {
      "midi": 79,
      "hit": false,
      "t": 11470.582499999997,
      "d": 149.39483951823058,
      "v": 64
    },
    {
      "midi": 67,
      "hit": false,
      "t": 11470.582499999997,
      "d": 152.3819703776062,
      "v": 67
    },
    {
      "midi": 52,
      "hit": false,
      "t": 11470.582499999997,
      "d": 154.1436116536479,
      "v": 65
    },
    {
      "midi": 53,
      "hit": false,
      "t": 11764.699999999999,
      "d": 143.42057779947936,
      "v": 74
    },
    {
      "midi": 41,
      "hit": false,
      "t": 11764.699999999999,
      "d": 147.25023274739578,
      "v": 68
    },
    {
      "midi": 69,
      "hit": false,
      "t": 11764.699999999999,
      "d": 210.47783593749955,
      "v": 76
    },
    {
      "midi": 81,
      "hit": false,
      "t": 11764.699999999999,
      "d": 233.91532421874945,
      "v": 71
    },
    {
      "midi": 53,
      "hit": false,
      "t": 12058.8175,
      "d": 39.67522526041648,
      "v": 61
    },
    {
      "midi": 41,
      "hit": false,
      "t": 12058.8175,
      "d": 40.97730794270865,
      "v": 47
    },
    {
      "midi": 83,
      "hit": false,
      "t": 12205.87625,
      "d": 99.87740104166733,
      "v": 65
    },
    {
      "midi": 71,
      "hit": false,
      "t": 12205.87625,
      "d": 114.85135188802087,
      "v": 71
    },
    {
      "midi": 53,
      "hit": false,
      "t": 12205.87625,
      "d": 116.45980696614606,
      "v": 66
    },
    {
      "midi": 41,
      "hit": false,
      "t": 12205.87625,
      "d": 129.2508544921875,
      "v": 53
    },
    {
      "midi": 53,
      "hit": false,
      "t": 12499.99375,
      "d": 55.45340364583353,
      "v": 62
    },
    {
      "midi": 41,
      "hit": false,
      "t": 12499.99375,
      "d": 70.88691308593843,
      "v": 59
    },
    {
      "midi": 52,
      "hit": false,
      "t": 12647.0525,
      "d": 159.65831477864594,
      "v": 68
    },
    {
      "midi": 40,
      "hit": false,
      "t": 12647.0525,
      "d": 170.3047555338544,
      "v": 58
    },
    {
      "midi": 76,
      "hit": false,
      "t": 12647.0525,
      "d": 705.0777724609361,
      "v": 66
    },
    {
      "midi": 64,
      "hit": false,
      "t": 12647.0525,
      "d": 765.3565413411452,
      "v": 68
    },
    {
      "midi": 40,
      "hit": false,
      "t": 12941.17,
      "d": 56.52570703124911,
      "v": 58
    },
    {
      "midi": 52,
      "hit": false,
      "t": 12941.17,
      "d": 65.94665820312366,
      "v": 63
    },
    {
      "midi": 40,
      "hit": false,
      "t": 13088.228749999998,
      "d": 49.93870052083366,
      "v": 50
    },
    {
      "midi": 52,
      "hit": false,
      "t": 13088.228749999998,
      "d": 63.15101009114551,
      "v": 67
    },
    {
      "midi": 52,
      "hit": false,
      "t": 13235.287499999999,
      "d": 121.62984114583378,
      "v": 68
    },
    {
      "midi": 40,
      "hit": false,
      "t": 13235.287499999999,
      "d": 129.36574414062488,
      "v": 63
    },
    {
      "midi": 64,
      "hit": false,
      "t": 13529.404999999999,
      "d": 105.3921041666672,
      "v": 73
    },
    {
      "midi": 76,
      "hit": false,
      "t": 13529.404999999999,
      "d": 124.57867545573026,
      "v": 70
    },
    {
      "midi": 52,
      "hit": false,
      "t": 13529.404999999999,
      "d": 148.59061197916708,
      "v": 64
    },
    {
      "midi": 40,
      "hit": false,
      "t": 13529.404999999999,
      "d": 151.00329459635395,
      "v": 63
    },
    {
      "midi": 67,
      "hit": false,
      "t": 13823.5225,
      "d": 104.62617317708282,
      "v": 81
    },
    {
      "midi": 52,
      "hit": false,
      "t": 13823.5225,
      "d": 130.59123372395698,
      "v": 68
    },
    {
      "midi": 79,
      "hit": false,
      "t": 13823.5225,
      "d": 148.514018880207,
      "v": 80
    },
    {
      "midi": 40,
      "hit": false,
      "t": 13823.5225,
      "d": 167.7388867187492,
      "v": 62
    },
    {
      "midi": 38,
      "hit": false,
      "t": 14117.639999999998,
      "d": 133.15710253906218,
      "v": 69
    },
    {
      "midi": 50,
      "hit": false,
      "t": 14117.639999999998,
      "d": 141.62063997395853,
      "v": 81
    },
    {
      "midi": 86,
      "hit": false,
      "t": 14117.639999999998,
      "d": 221.04768359374975,
      "v": 63
    },
    {
      "midi": 74,
      "hit": false,
      "t": 14117.639999999998,
      "d": 230.4686347656243,
      "v": 76
    },
    {
      "midi": 38,
      "hit": false,
      "t": 14411.757499999996,
      "d": 71.69114062500012,
      "v": 51
    },
    {
      "midi": 50,
      "hit": false,
      "t": 14411.757499999996,
      "d": 77.24414029947911,
      "v": 70
    },
    {
      "midi": 38,
      "hit": false,
      "t": 14558.816249999996,
      "d": 142.5397571614576,
      "v": 64
    },
    {
      "midi": 50,
      "hit": false,
      "t": 14558.816249999996,
      "d": 151.11818424479134,
      "v": 77
    },
    {
      "midi": 83,
      "hit": false,
      "t": 14558.816249999996,
      "d": 154.94783919270776,
      "v": 79
    },
    {
      "midi": 71,
      "hit": false,
      "t": 14558.816249999996,
      "d": 159.65831477864594,
      "v": 78
    },
    {
      "midi": 38,
      "hit": false,
      "t": 14852.933749999997,
      "d": 33.27970149739667,
      "v": 50
    },
    {
      "midi": 50,
      "hit": false,
      "t": 14852.933749999997,
      "d": 49.93870052083366,
      "v": 62
    },
    {
      "midi": 40,
      "hit": false,
      "t": 14999.992499999997,
      "d": 140.85470898437416,
      "v": 70
    },
    {
      "midi": 52,
      "hit": false,
      "t": 14999.992499999997,
      "d": 148.13105338541573,
      "v": 71
    },
    {
      "midi": 79,
      "hit": false,
      "t": 14999.992499999997,
      "d": 571.958966471353,
      "v": 68
    },
    {
      "midi": 67,
      "hit": false,
      "t": 14999.992499999997,
      "d": 620.6338808593737,
      "v": 75
    },
    {
      "midi": 40,
      "hit": false,
      "t": 15294.109999999995,
      "d": 56.44911393229086,
      "v": 56
    },
    {
      "midi": 52,
      "hit": false,
      "t": 15294.109999999995,
      "d": 74.2570094401035,
      "v": 60
    },
    {
      "midi": 40,
      "hit": false,
      "t": 15441.168749999995,
      "d": 40.97730794270865,
      "v": 55
    },
    {
      "midi": 52,
      "hit": false,
      "t": 15441.168749999995,
      "d": 73.79745084635397,
      "v": 63
    },
    {
      "midi": 52,
      "hit": false,
      "t": 15588.227499999995,
      "d": 158.77749414062419,
      "v": 69
    },
    {
      "midi": 40,
      "hit": false,
      "t": 15588.227499999995,
      "d": 169.00267285156224,
      "v": 58
    },
    {
      "midi": 76,
      "hit": false,
      "t": 15882.344999999996,
      "d": 118.29804134114602,
      "v": 71
    },
    {
      "midi": 64,
      "hit": false,
      "t": 15882.344999999996,
      "d": 135.72297135416738,
      "v": 70
    },
    {
      "midi": 52,
      "hit": false,
      "t": 15882.344999999996,
      "d": 154.94783919270958,
      "v": 72
    },
    {
      "midi": 40,
      "hit": false,
      "t": 15882.344999999996,
      "d": 166.05383854166757,
      "v": 66
    },
    {
      "midi": 60,
      "hit": false,
      "t": 16176.462499999996,
      "d": 110.52384179687579,
      "v": 75
    },
    {
      "midi": 40,
      "hit": false,
      "t": 16176.462499999996,
      "d": 122.05110319010419,
      "v": 54
    },
    {
      "midi": 52,
      "hit": false,
      "t": 16176.462499999996,
      "d": 126.26372363281189,
      "v": 65
    },
    {
      "midi": 72,
      "hit": false,
      "t": 16176.462499999996,
      "d": 130.59123372395698,
      "v": 76
    },
    {
      "midi": 53,
      "hit": false,
      "t": 16470.579999999994,
      "d": 147.6714947916662,
      "v": 73
    },
    {
      "midi": 41,
      "hit": false,
      "t": 16470.579999999994,
      "d": 155.8286598307277,
      "v": 67
    },
    {
      "midi": 74,
      "hit": false,
      "t": 16470.579999999994,
      "d": 218.06055273437232,
      "v": 77
    },
    {
      "midi": 62,
      "hit": false,
      "t": 16470.579999999994,
      "d": 218.9796699218714,
      "v": 78
    },
    {
      "midi": 53,
      "hit": false,
      "t": 16764.69749999999,
      "d": 39.67522526041648,
      "v": 62
    },
    {
      "midi": 41,
      "hit": false,
      "t": 16764.69749999999,
      "d": 48.674914388022444,
      "v": 46
    },
    {
      "midi": 64,
      "hit": false,
      "t": 16911.75624999999,
      "d": 99.87740104166733,
      "v": 79
    },
    {
      "midi": 41,
      "hit": false,
      "t": 16911.75624999999,
      "d": 137.02505403645773,
      "v": 53
    },
    {
      "midi": 76,
      "hit": false,
      "t": 16911.75624999999,
      "d": 137.02505403645773,
      "v": 78
    },
    {
      "midi": 53,
      "hit": false,
      "t": 16911.75624999999,
      "d": 137.90587467447767,
      "v": 67
    },
    {
      "midi": 53,
      "hit": false,
      "t": 17205.87374999999,
      "d": 28.56922591145849,
      "v": 68
    },
    {
      "midi": 41,
      "hit": false,
      "t": 17205.87374999999,
      "d": 86.66509147135366,
      "v": 64
    },
    {
      "midi": 33,
      "hit": false,
      "t": 17352.93249999999,
      "d": 134.45918522135253,
      "v": 86
    },
    {
      "midi": 45,
      "hit": false,
      "t": 17352.93249999999,
      "d": 138.28884016926895,
      "v": 89
    },
    {
      "midi": 81,
      "hit": false,
      "t": 17352.93249999999,
      "d": 471.6220068359289,
      "v": 83
    },
    {
      "midi": 69,
      "hit": false,
      "t": 17352.93249999999,
      "d": 471.69859993488717,
      "v": 83
    },
    {
      "midi": 33,
      "hit": false,
      "t": 17647.04999999999,
      "d": 44.806962890623254,
      "v": 58
    },
    {
      "midi": 45,
      "hit": false,
      "t": 17647.04999999999,
      "d": 49.938700520830025,
      "v": 67
    },
    {
      "midi": 45,
      "hit": false,
      "t": 17794.108749999985,
      "d": 70.50394759114351,
      "v": 62
    },
    {
      "midi": 33,
      "hit": false,
      "t": 17794.108749999985,
      "d": 91.37556705729003,
      "v": 57
    },
    {
      "midi": 33,
      "hit": false,
      "t": 17941.167499999985,
      "d": 168.5431142578127,
      "v": 40
    },
    {
      "midi": 45,
      "hit": false,
      "t": 17941.167499999985,
      "d": 177.0832447916655,
      "v": 64
    },
    {
      "midi": 33,
      "hit": false,
      "t": 18235.284999999985,
      "d": 157.820080403646,
      "v": 63
    },
    {
      "midi": 45,
      "hit": false,
      "t": 18235.284999999985,
      "d": 176.31731380208294,
      "v": 69
    },
    {
      "midi": 33,
      "hit": false,
      "t": 18529.402499999986,
      "d": 77.62710579427221,
      "v": 62
    },
    {
      "midi": 45,
      "hit": false,
      "t": 18529.402499999986,
      "d": 112.66844856771058,
      "v": 66
    },
    {
      "midi": 38,
      "hit": false,
      "t": 18823.51999999999,
      "d": 112.78333821614433,
      "v": 58
    },
    {
      "midi": 50,
      "hit": false,
      "t": 18823.51999999999,
      "d": 128.4849235026013,
      "v": 77
    },
    {
      "midi": 62,
      "hit": false,
      "t": 18823.51999999999,
      "d": 189.4530302734347,
      "v": 68
    },
    {
      "midi": 74,
      "hit": false,
      "t": 18823.51999999999,
      "d": 217.67758723958104,
      "v": 70
    },
    {
      "midi": 50,
      "hit": false,
      "t": 19117.637499999986,
      "d": 49.440845377605,
      "v": 57
    },
    {
      "midi": 38,
      "hit": false,
      "t": 19117.637499999986,
      "d": 50.74292805989535,
      "v": 45
    },
    {
      "midi": 50,
      "hit": false,
      "t": 19264.696249999986,
      "d": 107.1537454427089,
      "v": 67
    },
    {
      "midi": 38,
      "hit": false,
      "t": 19264.696249999986,
      "d": 114.81305533854174,
      "v": 49
    },
    {
      "midi": 64,
      "hit": false,
      "t": 19264.696249999986,
      "d": 177.12154134114462,
      "v": 73
    },
    {
      "midi": 76,
      "hit": false,
      "t": 19264.696249999986,
      "d": 206.6481809895813,
      "v": 70
    },
    {
      "midi": 38,
      "hit": false,
      "t": 19558.813749999983,
      "d": 43.12191471354163,
      "v": 39
    },
    {
      "midi": 50,
      "hit": false,
      "t": 19558.813749999983,
      "d": 89.65222233072927,
      "v": 57
    },
    {
      "midi": 52,
      "hit": false,
      "t": 19705.872499999983,
      "d": 118.29804134114602,
      "v": 66
    },
    {
      "midi": 40,
      "hit": false,
      "t": 19705.872499999983,
      "d": 120.78731705729297,
      "v": 67
    },
    {
      "midi": 79,
      "hit": false,
      "t": 19705.872499999983,
      "d": 757.6589348958332,
      "v": 69
    },
    {
      "midi": 67,
      "hit": false,
      "t": 19705.872499999983,
      "d": 767.50114811198,
      "v": 69
    },
    {
      "midi": 40,
      "hit": false,
      "t": 19999.989999999983,
      "d": 79.38874707031209,
      "v": 53
    },
    {
      "midi": 52,
      "hit": false,
      "t": 19999.989999999983,
      "d": 83.25669856770764,
      "v": 57
    },
    {
      "midi": 40,
      "hit": false,
      "t": 20147.048749999984,
      "d": 48.636617838543316,
      "v": 48
    },
    {
      "midi": 52,
      "hit": false,
      "t": 20147.048749999984,
      "d": 75.52079557291654,
      "v": 70
    },
    {
      "midi": 40,
      "hit": false,
      "t": 20294.107499999984,
      "d": 104.89424902343671,
      "v": 62
    },
    {
      "midi": 52,
      "hit": false,
      "t": 20294.107499999984,
      "d": 121.62984114583378,
      "v": 54
    },
    {
      "midi": 52,
      "hit": false,
      "t": 20588.224999999984,
      "d": 118.6810068359373,
      "v": 67
    },
    {
      "midi": 40,
      "hit": false,
      "t": 20588.224999999984,
      "d": 124.65526855468852,
      "v": 60
    },
    {
      "midi": 40,
      "hit": false,
      "t": 20882.342499999984,
      "d": 116.5364000651025,
      "v": 63
    },
    {
      "midi": 52,
      "hit": false,
      "t": 20882.342499999984,
      "d": 120.28946191406067,
      "v": 69
    },
    {
      "midi": 67,
      "hit": false,
      "t": 20882.342499999984,
      "d": 157.09244596353892,
      "v": 68
    },
    {
      "midi": 79,
      "hit": false,
      "t": 20882.342499999984,
      "d": 160.07957682291453,
      "v": 63
    },
    {
      "midi": 53,
      "hit": false,
      "t": 21176.45999999998,
      "d": 119.48523437499898,
      "v": 77
    },
    {
      "midi": 41,
      "hit": false,
      "t": 21176.45999999998,
      "d": 132.27628190104224,
      "v": 68
    },
    {
      "midi": 69,
      "hit": false,
      "t": 21176.45999999998,
      "d": 181.83201692708462,
      "v": 74
    },
    {
      "midi": 81,
      "hit": false,
      "t": 21176.45999999998,
      "d": 190.79340950520782,
      "v": 80
    },
    {
      "midi": 41,
      "hit": false,
      "t": 21470.57749999998,
      "d": 47.794093749998865,
      "v": 42
    },
    {
      "midi": 53,
      "hit": false,
      "t": 21470.57749999998,
      "d": 56.37252083333078,
      "v": 64
    },
    {
      "midi": 83,
      "hit": false,
      "t": 21617.636249999978,
      "d": 107.5750074869793,
      "v": 74
    },
    {
      "midi": 41,
      "hit": false,
      "t": 21617.636249999978,
      "d": 108.83879361979052,
      "v": 48
    },
    {
      "midi": 71,
      "hit": false,
      "t": 21617.636249999978,
      "d": 120.7490205078102,
      "v": 72
    },
    {
      "midi": 53,
      "hit": false,
      "t": 21617.636249999978,
      "d": 126.37861328124927,
      "v": 62
    },
    {
      "midi": 53,
      "hit": false,
      "t": 21911.753749999978,
      "d": 39.71352180989561,
      "v": 61
    },
    {
      "midi": 41,
      "hit": false,
      "t": 21911.753749999978,
      "d": 59.28305859374814,
      "v": 52
    },
    {
      "midi": 52,
      "hit": false,
      "t": 22058.812499999975,
      "d": 118.64271028645817,
      "v": 74
    },
    {
      "midi": 40,
      "hit": false,
      "t": 22058.812499999975,
      "d": 134.03792317708212,
      "v": 68
    },
    {
      "midi": 76,
      "hit": false,
      "t": 22058.812499999975,
      "d": 630.3995009765677,
      "v": 74
    },
    {
      "midi": 64,
      "hit": false,
      "t": 22058.812499999975,
      "d": 715.8391028645892,
      "v": 79
    },
    {
      "midi": 40,
      "hit": false,
      "t": 22352.929999999975,
      "d": 56.7554863281257,
      "v": 58
    },
    {
      "midi": 52,
      "hit": false,
      "t": 22352.929999999975,
      "d": 80.5759401041687,
      "v": 60
    },
    {
      "midi": 52,
      "hit": false,
      "t": 22499.98874999998,
      "d": 49.05787988281372,
      "v": 54
    },
    {
      "midi": 40,
      "hit": false,
      "t": 22499.98874999998,
      "d": 49.93870052083366,
      "v": 54
    },
    {
      "midi": 40,
      "hit": false,
      "t": 22647.04749999998,
      "d": 114.35349674479221,
      "v": 56
    },
    {
      "midi": 52,
      "hit": false,
      "t": 22647.04749999998,
      "d": 117.80018619791736,
      "v": 58
    },
    {
      "midi": 64,
      "hit": false,
      "t": 22941.16499999998,
      "d": 111.48125553385398,
      "v": 74
    },
    {
      "midi": 52,
      "hit": false,
      "t": 22941.16499999998,
      "d": 128.0253649088554,
      "v": 71
    },
    {
      "midi": 76,
      "hit": false,
      "t": 22941.16499999998,
      "d": 131.47205436198055,
      "v": 70
    },
    {
      "midi": 40,
      "hit": false,
      "t": 22941.16499999998,
      "d": 139.59092285156294,
      "v": 65
    },
    {
      "midi": 67,
      "hit": false,
      "t": 23235.28249999998,
      "d": 104.51128352864544,
      "v": 75
    },
    {
      "midi": 52,
      "hit": false,
      "t": 23235.28249999998,
      "d": 122.93192382812413,
      "v": 67
    },
    {
      "midi": 79,
      "hit": false,
      "t": 23235.28249999998,
      "d": 135.72297135416738,
      "v": 74
    },
    {
      "midi": 40,
      "hit": false,
      "t": 23235.28249999998,
      "d": 149.0118740234393,
      "v": 66
    },
    {
      "midi": 38,
      "hit": false,
      "t": 23529.39999999998,
      "d": 124.61697200520939,
      "v": 71
    },
    {
      "midi": 50,
      "hit": false,
      "t": 23529.39999999998,
      "d": 141.23767447916907,
      "v": 80
    },
    {
      "midi": 86,
      "hit": false,
      "t": 23529.39999999998,
      "d": 183.47876855469076,
      "v": 77
    },
    {
      "midi": 74,
      "hit": false,
      "t": 23529.39999999998,
      "d": 196.30811263021315,
      "v": 75
    },
    {
      "midi": 50,
      "hit": false,
      "t": 23823.517499999984,
      "d": 37.147652994790406,
      "v": 66
    },
    {
      "midi": 38,
      "hit": false,
      "t": 23823.517499999984,
      "d": 42.66235611979209,
      "v": 46
    },
    {
      "midi": 50,
      "hit": false,
      "t": 23970.576249999984,
      "d": 130.6295302734361,
      "v": 63
    },
    {
      "midi": 38,
      "hit": false,
      "t": 23970.576249999984,
      "d": 131.89331640624732,
      "v": 54
    },
    {
      "midi": 83,
      "hit": false,
      "t": 23970.576249999984,
      "d": 131.89331640624732,
      "v": 71
    },
    {
      "midi": 71,
      "hit": false,
      "t": 23970.576249999984,
      "d": 150.23736360676776,
      "v": 74
    },
    {
      "midi": 38,
      "hit": false,
      "t": 24264.69374999998,
      "d": 39.67522526041648,
      "v": 54
    },
    {
      "midi": 50,
      "hit": false,
      "t": 24264.69374999998,
      "d": 80.26956770833203,
      "v": 66
    },
    {
      "midi": 40,
      "hit": false,
      "t": 24411.75249999998,
      "d": 101.14118717447855,
      "v": 70
    },
    {
      "midi": 52,
      "hit": false,
      "t": 24411.75249999998,
      "d": 105.39210416666538,
      "v": 70
    },
    {
      "midi": 79,
      "hit": false,
      "t": 24411.75249999998,
      "d": 345.7412486979156,
      "v": 77
    },
    {
      "midi": 67,
      "hit": false,
      "t": 24411.75249999998,
      "d": 471.62200683593255,
      "v": 78
    },
    {
      "midi": 40,
      "hit": false,
      "t": 24705.86999999998,
      "d": 76.82287825520689,
      "v": 55
    },
    {
      "midi": 52,
      "hit": false,
      "t": 24705.86999999998,
      "d": 80.65253320312331,
      "v": 63
    },
    {
      "midi": 40,
      "hit": false,
      "t": 24852.928749999977,
      "d": 47.75579720051974,
      "v": 55
    },
    {
      "midi": 52,
      "hit": false,
      "t": 24852.928749999977,
      "d": 88.84799479166395,
      "v": 54
    },
    {
      "midi": 52,
      "hit": false,
      "t": 24999.987499999974,
      "d": 119.94479296874852,
      "v": 66
    },
    {
      "midi": 40,
      "hit": false,
      "t": 24999.987499999974,
      "d": 122.93192382812413,
      "v": 65
    },
    {
      "midi": 64,
      "hit": false,
      "t": 25294.104999999974,
      "d": 110.10257975260538,
      "v": 77
    },
    {
      "midi": 76,
      "hit": false,
      "t": 25294.104999999974,
      "d": 110.14087630208451,
      "v": 72
    },
    {
      "midi": 52,
      "hit": false,
      "t": 25294.104999999974,
      "d": 139.09306770833427,
      "v": 71
    },
    {
      "midi": 40,
      "hit": false,
      "t": 25294.104999999974,
      "d": 140.85470898437416,
      "v": 67
    },
    {
      "midi": 60,
      "hit": false,
      "t": 25588.222499999974,
      "d": 118.18315169270863,
      "v": 73
    },
    {
      "midi": 40,
      "hit": false,
      "t": 25588.222499999974,
      "d": 130.6295302734361,
      "v": 63
    },
    {
      "midi": 72,
      "hit": false,
      "t": 25588.222499999974,
      "d": 136.1442333984378,
      "v": 71
    },
    {
      "midi": 52,
      "hit": false,
      "t": 25588.222499999974,
      "d": 141.27597102864456,
      "v": 63
    },
    {
      "midi": 41,
      "hit": false,
      "t": 25882.339999999975,
      "d": 116.11513802083209,
      "v": 66
    },
    {
      "midi": 53,
      "hit": false,
      "t": 25882.339999999975,
      "d": 134.8421507161438,
      "v": 74
    },
    {
      "midi": 62,
      "hit": false,
      "t": 25882.339999999975,
      "d": 242.4171582031231,
      "v": 78
    },
    {
      "midi": 74,
      "hit": false,
      "t": 25882.339999999975,
      "d": 264.6674534505182,
      "v": 78
    },
    {
      "midi": 41,
      "hit": false,
      "t": 26176.45749999997,
      "d": 37.9135839843766,
      "v": 47
    },
    {
      "midi": 53,
      "hit": false,
      "t": 26176.45749999997,
      "d": 71.23158203125058,
      "v": 68
    },
    {
      "midi": 41,
      "hit": false,
      "t": 26323.51624999997,
      "d": 130.6295302734361,
      "v": 45
    },
    {
      "midi": 64,
      "hit": false,
      "t": 26323.51624999997,
      "d": 130.6295302734361,
      "v": 81
    },
    {
      "midi": 53,
      "hit": false,
      "t": 26323.51624999997,
      "d": 147.21193619791666,
      "v": 66
    },
    {
      "midi": 76,
      "hit": false,
      "t": 26323.51624999997,
      "d": 175.436493164063,
      "v": 78
    },
    {
      "midi": 41,
      "hit": false,
      "t": 26617.63374999997,
      "d": 36.64979785156174,
      "v": 56
    },
    {
      "midi": 53,
      "hit": false,
      "t": 26617.63374999997,
      "d": 79.38874707031209,
      "v": 64
    },
    {
      "midi": 45,
      "hit": false,
      "t": 26764.692499999972,
      "d": 145.98644661458457,
      "v": 80
    },
    {
      "midi": 57,
      "hit": false,
      "t": 26764.692499999972,
      "d": 148.09275683594024,
      "v": 87
    },
    {
      "midi": 81,
      "hit": false,
      "t": 26764.692499999972,
      "d": 624.4635358072956,
      "v": 83
    },
    {
      "midi": 69,
      "hit": false,
      "t": 26764.692499999972,
      "d": 742.3020185546884,
      "v": 83
    },
    {
      "midi": 45,
      "hit": false,
      "t": 27058.809999999976,
      "d": 45.68778352864683,
      "v": 52
    },
    {
      "midi": 57,
      "hit": false,
      "t": 27058.809999999976,
      "d": 49.440845377605,
      "v": 65
    },
    {
      "midi": 45,
      "hit": false,
      "t": 27205.868749999976,
      "d": 47.37283170572846,
      "v": 51
    },
    {
      "midi": 57,
      "hit": false,
      "t": 27205.868749999976,
      "d": 88.84799479166759,
      "v": 59
    },
    {
      "midi": 57,
      "hit": false,
      "t": 27352.927499999976,
      "d": 105.4304007161445,
      "v": 60
    },
    {
      "midi": 45,
      "hit": false,
      "t": 27352.927499999976,
      "d": 117.83848274739285,
      "v": 45
    },
    {
      "midi": 45,
      "hit": false,
      "t": 27647.044999999973,
      "d": 86.66509147135366,
      "v": 69
    },
    {
      "midi": 57,
      "hit": false,
      "t": 27647.044999999973,
      "d": 115.65557942708256,
      "v": 73
    },
    {
      "midi": 74,
      "hit": false,
      "t": 28235.279999999973,
      "d": 458.4096972656225,
      "v": 76
    },
    {
      "midi": 69,
      "hit": false,
      "t": 28235.279999999973,
      "d": 472.92408951822654,
      "v": 73
    },
    {
      "midi": 60,
      "hit": false,
      "t": 28235.279999999973,
      "d": 919.308670247392,
      "v": 71
    },
    {
      "midi": 64,
      "hit": false,
      "t": 28235.279999999973,
      "d": 921.0703115234319,
      "v": 60
    },
    {
      "midi": 53,
      "hit": false,
      "t": 28235.279999999973,
      "d": 945.8481790364531,
      "v": 54
    },
    {
      "midi": 67,
      "hit": false,
      "t": 29117.63249999997,
      "d": 95.66478059895599,
      "v": 76
    },
    {
      "midi": 71,
      "hit": false,
      "t": 29117.63249999997,
      "d": 98.1157597656238,
      "v": 77
    },
    {
      "midi": 64,
      "hit": false,
      "t": 29999.984999999968,
      "d": 92.60105664062576,
      "v": 77
    },
    {
      "midi": 67,
      "hit": false,
      "t": 29999.984999999968,
      "d": 99.87740104166733,
      "v": 76
    },
    {
      "midi": 64,
      "hit": false,
      "t": 30588.21999999997,
      "d": 691.4824973958348,
      "v": 81
    },
    {
      "midi": 62,
      "hit": false,
      "t": 30588.21999999997,
      "d": 708.0649033203154,
      "v": 71
    },
    {
      "midi": 59,
      "hit": false,
      "t": 30588.21999999997,
      "d": 718.8645302734403,
      "v": 71
    },
    {
      "midi": 55,
      "hit": false,
      "t": 30588.21999999997,
      "d": 747.8167216796901,
      "v": 62
    },
    {
      "midi": 62,
      "hit": false,
      "t": 31764.68999999997,
      "d": 182.71283756510456,
      "v": 73
    },
    {
      "midi": 64,
      "hit": false,
      "t": 32205.86624999997,
      "d": 128.94448209635448,
      "v": 77
    },
    {
      "midi": 67,
      "hit": false,
      "t": 32647.04249999997,
      "d": 134.9570403645812,
      "v": 80
    },
    {
      "midi": 45,
      "hit": false,
      "t": 32941.15999999997,
      "d": 1404.717434895836,
      "v": 74
    },
    {
      "midi": 52,
      "hit": false,
      "t": 33235.27749999996,
      "d": 1092.3707773437563,
      "v": 61
    },
    {
      "midi": 57,
      "hit": false,
      "t": 33529.39499999996,
      "d": 848.1153847656315,
      "v": 62
    },
    {
      "midi": 59,
      "hit": false,
      "t": 33823.51249999997,
      "d": 229.70270377604174,
      "v": 73
    },
    {
      "midi": 60,
      "hit": false,
      "t": 34411.74749999997,
      "d": 31.55635677083046,
      "v": 61
    },
    {
      "midi": 83,
      "hit": false,
      "t": 34999.98249999997,
      "d": 107.1537454427089,
      "v": 59
    },
    {
      "midi": 84,
      "hit": false,
      "t": 35147.04124999997,
      "d": 147.0587499999965,
      "v": 65
    },
    {
      "midi": 83,
      "hit": false,
      "t": 35294.09999999997,
      "d": 181.83201692708099,
      "v": 68
    },
    {
      "midi": 79,
      "hit": false,
      "t": 35588.21749999997,
      "d": 243.2979788411467,
      "v": 67
    },
    {
      "midi": 76,
      "hit": false,
      "t": 35882.33499999997,
      "d": 67.89978222655918,
      "v": 58
    },
    {
      "midi": 72,
      "hit": false,
      "t": 36176.45249999997,
      "d": 135.83786100260477,
      "v": 58
    },
    {
      "midi": 74,
      "hit": false,
      "t": 36470.56999999997,
      "d": 132.697543945309,
      "v": 71
    },
    {
      "midi": 76,
      "hit": false,
      "t": 36911.74624999997,
      "d": 76.82287825521053,
      "v": 74
    },
    {
      "midi": 74,
      "hit": false,
      "t": 37647.039999999964,
      "d": 507.8888391927103,
      "v": 76
    },
    {
      "midi": 69,
      "hit": false,
      "t": 37647.039999999964,
      "d": 515.6630387369805,
      "v": 70
    },
    {
      "midi": 60,
      "hit": false,
      "t": 37647.039999999964,
      "d": 708.1031998697945,
      "v": 68
    },
    {
      "midi": 64,
      "hit": false,
      "t": 37647.039999999964,
      "d": 715.3412477213569,
      "v": 63
    },
    {
      "midi": 53,
      "hit": false,
      "t": 37647.039999999964,
      "d": 725.6430195312496,
      "v": 59
    },
    {
      "midi": 67,
      "hit": false,
      "t": 38529.392499999965,
      "d": 119.98308951823128,
      "v": 70
    },
    {
      "midi": 71,
      "hit": false,
      "t": 38529.392499999965,
      "d": 130.59123372395698,
      "v": 72
    },
    {
      "midi": 64,
      "hit": false,
      "t": 39411.744999999966,
      "d": 99.07317350260564,
      "v": 71
    },
    {
      "midi": 67,
      "hit": false,
      "t": 39411.744999999966,
      "d": 120.36605501302256,
      "v": 81
    },
    {
      "midi": 55,
      "hit": false,
      "t": 39999.97999999997,
      "d": 619.7530602213519,
      "v": 66
    },
    {
      "midi": 62,
      "hit": false,
      "t": 39999.97999999997,
      "d": 628.7910458984334,
      "v": 71
    },
    {
      "midi": 59,
      "hit": false,
      "t": 39999.97999999997,
      "d": 637.292879882807,
      "v": 71
    },
    {
      "midi": 64,
      "hit": false,
      "t": 39999.97999999997,
      "d": 651.807272135411,
      "v": 81
    },
    {
      "midi": 59,
      "hit": false,
      "t": 41176.44999999996,
      "d": 277.8797630208355,
      "v": 76
    },
    {
      "midi": 60,
      "hit": false,
      "t": 41617.626249999965,
      "d": 116.91936555989378,
      "v": 73
    },
    {
      "midi": 57,
      "hit": false,
      "t": 42058.80249999996,
      "d": 97.31153222656576,
      "v": 70
    },
    {
      "midi": 45,
      "hit": false,
      "t": 42352.91999999996,
      "d": 1195.579978190115,
      "v": 74
    },
    {
      "midi": 52,
      "hit": false,
      "t": 42647.03749999997,
      "d": 872.0124316406291,
      "v": 61
    },
    {
      "midi": 55,
      "hit": false,
      "t": 42941.15499999997,
      "d": 559.5891809895838,
      "v": 63
    },
    {
      "midi": 57,
      "hit": false,
      "t": 43235.27249999997,
      "d": 198.49101595052343,
      "v": 70
    },
    {
      "midi": 59,
      "hit": false,
      "t": 43823.50749999997,
      "d": 47.3728317057321,
      "v": 63
    },
    {
      "midi": 64,
      "hit": false,
      "t": 44411.74249999997,
      "d": 174.134410481769,
      "v": 53
    },
    {
      "midi": 72,
      "hit": false,
      "t": 44558.80124999997,
      "d": 147.05875000000378,
      "v": 69
    },
    {
      "midi": 71,
      "hit": false,
      "t": 44705.85999999997,
      "d": 224.87733854166436,
      "v": 65
    },
    {
      "midi": 67,
      "hit": false,
      "t": 44999.97749999997,
      "d": 230.00907617187477,
      "v": 59
    },
    {
      "midi": 64,
      "hit": false,
      "t": 45294.09499999997,
      "d": 96.92856673177448,
      "v": 57
    },
    {
      "midi": 60,
      "hit": false,
      "t": 45588.21249999997,
      "d": 115.61728287760343,
      "v": 57
    },
    {
      "midi": 62,
      "hit": false,
      "t": 45882.32999999997,
      "d": 179.18955501302116,
      "v": 60
    },
    {
      "midi": 64,
      "hit": false,
      "t": 46323.50624999997,
      "d": 32.89673600260721,
      "v": 56
    },
    {
      "midi": 74,
      "hit": false,
      "t": 47058.79999999997,
      "d": 405.06260384114285,
      "v": 75
    },
    {
      "midi": 69,
      "hit": false,
      "t": 47058.79999999997,
      "d": 440.8698776041638,
      "v": 74
    },
    {
      "midi": 60,
      "hit": false,
      "t": 47058.79999999997,
      "d": 615.1191777343702,
      "v": 71
    },
    {
      "midi": 64,
      "hit": false,
      "t": 47058.79999999997,
      "d": 617.6084534505135,
      "v": 66
    },
    {
      "midi": 53,
      "hit": false,
      "t": 47058.79999999997,
      "d": 642.3480244140519,
      "v": 63
    },
    {
      "midi": 67,
      "hit": false,
      "t": 47941.15249999995,
      "d": 87.46931901041535,
      "v": 73
    },
    {
      "midi": 71,
      "hit": false,
      "t": 47941.15249999995,
      "d": 114.77475878906262,
      "v": 75
    },
    {
      "midi": 64,
      "hit": false,
      "t": 48823.504999999954,
      "d": 98.99658040364739,
      "v": 70
    },
    {
      "midi": 67,
      "hit": false,
      "t": 48823.504999999954,
      "d": 119.48523437500262,
      "v": 78
    },
    {
      "midi": 64,
      "hit": false,
      "t": 49411.739999999954,
      "d": 724.7621988932224,
      "v": 78
    },
    {
      "midi": 62,
      "hit": false,
      "t": 49411.739999999954,
      "d": 744.752997721349,
      "v": 73
    },
    {
      "midi": 59,
      "hit": false,
      "t": 49411.739999999954,
      "d": 782.0155403645767,
      "v": 72
    },
    {
      "midi": 55,
      "hit": false,
      "t": 49411.739999999954,
      "d": 791.3598984374912,
      "v": 67
    },
    {
      "midi": 62,
      "hit": false,
      "t": 50588.20999999995,
      "d": 218.55840787760098,
      "v": 74
    },
    {
      "midi": 64,
      "hit": false,
      "t": 51029.386249999945,
      "d": 139.55262630208017,
      "v": 65
    },
    {
      "midi": 67,
      "hit": false,
      "t": 51470.56249999994,
      "d": 129.32744759114576,
      "v": 72
    },
    {
      "midi": 45,
      "hit": false,
      "t": 51764.67999999994,
      "d": 1554.5335364583152,
      "v": 74
    },
    {
      "midi": 52,
      "hit": false,
      "t": 52058.797499999935,
      "d": 1256.5863815104021,
      "v": 64
    },
    {
      "midi": 57,
      "hit": false,
      "t": 52352.91499999993,
      "d": 978.2853564453108,
      "v": 61
    },
    {
      "midi": 59,
      "hit": false,
      "t": 52647.03249999993,
      "d": 204.5035742187465,
      "v": 69
    },
    {
      "midi": 60,
      "hit": false,
      "t": 53235.26749999992,
      "d": 70.04438899739762,
      "v": 64
    },
    {
      "midi": 83,
      "hit": false,
      "t": 53823.50249999993,
      "d": 117.80018619791372,
      "v": 60
    },
    {
      "midi": 84,
      "hit": false,
      "t": 53970.561249999926,
      "d": 147.0587499999965,
      "v": 66
    },
    {
      "midi": 83,
      "hit": false,
      "t": 54117.61999999992,
      "d": 203.20149153645616,
      "v": 71
    },
    {
      "midi": 79,
      "hit": false,
      "t": 54411.73749999992,
      "d": 271.1012737630226,
      "v": 70
    },
    {
      "midi": 76,
      "hit": false,
      "t": 54705.85499999992,
      "d": 96.43071158853854,
      "v": 59
    },
    {
      "midi": 72,
      "hit": false,
      "t": 54999.97249999992,
      "d": 175.81945865885064,
      "v": 64
    },
    {
      "midi": 74,
      "hit": false,
      "t": 55294.08999999992,
      "d": 159.69661132812325,
      "v": 72
    },
    {
      "midi": 76,
      "hit": false,
      "t": 55735.26624999991,
      "d": 78.92918847656256,
      "v": 65
    },
    {
      "midi": 74,
      "hit": false,
      "t": 56470.55999999992,
      "d": 459.21392480468785,
      "v": 77
    },
    {
      "midi": 69,
      "hit": false,
      "t": 56470.55999999992,
      "d": 473.8049101562501,
      "v": 73
    },
    {
      "midi": 53,
      "hit": false,
      "t": 56470.55999999992,
      "d": 723.0005576171898,
      "v": 61
    },
    {
      "midi": 64,
      "hit": false,
      "t": 56470.55999999992,
      "d": 728.5152607421915,
      "v": 63
    },
    {
      "midi": 60,
      "hit": false,
      "t": 56470.55999999992,
      "d": 729.8939365234401,
      "v": 71
    },
    {
      "midi": 67,
      "hit": false,
      "t": 57352.91249999992,
      "d": 81.57165039062238,
      "v": 78
    },
    {
      "midi": 71,
      "hit": false,
      "t": 57352.91249999992,
      "d": 107.46011783854192,
      "v": 77
    },
    {
      "midi": 64,
      "hit": false,
      "t": 58235.26499999992,
      "d": 103.70705598958011,
      "v": 72
    },
    {
      "midi": 67,
      "hit": false,
      "t": 58235.26499999992,
      "d": 124.19570996093535,
      "v": 77
    },
    {
      "midi": 62,
      "hit": false,
      "t": 58823.49999999991,
      "d": 755.897293619797,
      "v": 69
    },
    {
      "midi": 55,
      "hit": false,
      "t": 58823.49999999991,
      "d": 761.9864449869856,
      "v": 66
    },
    {
      "midi": 59,
      "hit": false,
      "t": 58823.49999999991,
      "d": 774.7008994140706,
      "v": 72
    },
    {
      "midi": 64,
      "hit": false,
      "t": 58823.49999999991,
      "d": 776.3859475911522,
      "v": 81
    },
    {
      "midi": 59,
      "hit": false,
      "t": 59999.96999999992,
      "d": 351.75380696614593,
      "v": 72
    },
    {
      "midi": 60,
      "hit": false,
      "t": 60441.14624999992,
      "d": 158.01156315104163,
      "v": 71
    },
    {
      "midi": 57,
      "hit": false,
      "t": 60882.322499999915,
      "d": 82.83543652344088,
      "v": 67
    },
    {
      "midi": 45,
      "hit": false,
      "t": 61176.439999999915,
      "d": 1755.0925660807334,
      "v": 71
    },
    {
      "midi": 52,
      "hit": false,
      "t": 61470.55749999992,
      "d": 1447.3797910156209,
      "v": 62
    },
    {
      "midi": 57,
      "hit": false,
      "t": 61764.67499999992,
      "d": 296.2238102213523,
      "v": 57
    },
    {
      "midi": 59,
      "hit": false,
      "t": 62058.79249999992,
      "d": 294.1175000000003,
      "v": 62
    },
    {
      "midi": 60,
      "hit": false,
      "t": 62647.027499999924,
      "d": 138.28884016926895,
      "v": 37
    },
    {
      "midi": 64,
      "hit": false,
      "t": 64705.84999999992,
      "d": 112.70674511718971,
      "v": 79
    },
    {
      "midi": 76,
      "hit": false,
      "t": 64705.84999999992,
      "d": 126.34031673177378,
      "v": 79
    },
    {
      "midi": 62,
      "hit": false,
      "t": 65147.02624999992,
      "d": 84.0992226562521,
      "v": 70
    },
    {
      "midi": 74,
      "hit": false,
      "t": 65147.02624999992,
      "d": 87.96717415365129,
      "v": 73
    },
    {
      "midi": 73,
      "hit": false,
      "t": 65588.20249999993,
      "d": 108.8387936197978,
      "v": 70
    },
    {
      "midi": 61,
      "hit": false,
      "t": 65588.20249999993,
      "d": 117.80018619792827,
      "v": 62
    },
    {
      "midi": 33,
      "hit": false,
      "t": 65882.31999999995,
      "d": 77.20584374999453,
      "v": 78
    },
    {
      "midi": 45,
      "hit": false,
      "t": 65882.31999999995,
      "d": 79.7717125650961,
      "v": 85
    },
    {
      "midi": 73,
      "hit": false,
      "t": 65882.31999999995,
      "d": 2342.4467454427067,
      "v": 83
    },
    {
      "midi": 61,
      "hit": false,
      "t": 65882.31999999995,
      "d": 2342.523338541665,
      "v": 78
    },
    {
      "midi": 33,
      "hit": false,
      "t": 66029.37874999995,
      "d": 52.504569335942506,
      "v": 63
    },
    {
      "midi": 45,
      "hit": false,
      "t": 66029.37874999995,
      "d": 58.51712760416558,
      "v": 73
    },
    {
      "midi": 33,
      "hit": false,
      "t": 66176.43749999994,
      "d": 65.33391341146489,
      "v": 60
    },
    {
      "midi": 45,
      "hit": false,
      "t": 66176.43749999994,
      "d": 82.37587792969134,
      "v": 57
    },
    {
      "midi": 45,
      "hit": false,
      "t": 66470.55499999995,
      "d": 136.94846093750675,
      "v": 86
    },
    {
      "midi": 33,
      "hit": false,
      "t": 66470.55499999995,
      "d": 139.59092285156657,
      "v": 81
    },
    {
      "midi": 33,
      "hit": false,
      "t": 66764.67249999996,
      "d": 31.632949869788717,
      "v": 62
    },
    {
      "midi": 45,
      "hit": false,
      "t": 66764.67249999996,
      "d": 33.662666992182494,
      "v": 71
    },
    {
      "midi": 45,
      "hit": false,
      "t": 66911.73124999995,
      "d": 140.8547089843778,
      "v": 81
    },
    {
      "midi": 33,
      "hit": false,
      "t": 66911.73124999995,
      "d": 143.84183984374977,
      "v": 71
    },
    {
      "midi": 33,
      "hit": false,
      "t": 67205.84874999995,
      "d": 47.79409374999523,
      "v": 67
    },
    {
      "midi": 45,
      "hit": false,
      "t": 67205.84874999995,
      "d": 69.54653385416896,
      "v": 74
    },
    {
      "midi": 33,
      "hit": false,
      "t": 67352.90749999994,
      "d": 139.13136425781704,
      "v": 67
    },
    {
      "midi": 45,
      "hit": false,
      "t": 67352.90749999994,
      "d": 145.60348111978965,
      "v": 81
    },
    {
      "midi": 33,
      "hit": false,
      "t": 67647.02499999994,
      "d": 124.61697200521303,
      "v": 81
    },
    {
      "midi": 45,
      "hit": false,
      "t": 67647.02499999994,
      "d": 136.14423339844507,
      "v": 84
    },
    {
      "midi": 33,
      "hit": false,
      "t": 67941.14249999994,
      "d": 38.90929427083756,
      "v": 74
    },
    {
      "midi": 45,
      "hit": false,
      "t": 67941.14249999994,
      "d": 40.09648730469053,
      "v": 72
    },
    {
      "midi": 45,
      "hit": false,
      "t": 68088.20124999994,
      "d": 38.334846028650645,
      "v": 74
    },
    {
      "midi": 33,
      "hit": false,
      "t": 68088.20124999994,
      "d": 40.97730794271047,
      "v": 68
    },
    {
      "midi": 33,
      "hit": false,
      "t": 68235.25999999995,
      "d": 70.50394759114715,
      "v": 71
    },
    {
      "midi": 45,
      "hit": false,
      "t": 68235.25999999995,
      "d": 70.8486165364593,
      "v": 77
    },
    {
      "midi": 33,
      "hit": false,
      "t": 68382.31874999995,
      "d": 77.62710579426493,
      "v": 74
    },
    {
      "midi": 45,
      "hit": false,
      "t": 68382.31874999995,
      "d": 96.54560123696865,
      "v": 70
    },
    {
      "midi": 45,
      "hit": false,
      "t": 68529.37749999994,
      "d": 178.88318261718086,
      "v": 74
    },
    {
      "midi": 33,
      "hit": false,
      "t": 68529.37749999994,
      "d": 184.78085123696656,
      "v": 68
    },
    {
      "midi": 45,
      "hit": false,
      "t": 68823.49499999994,
      "d": 152.84152897135937,
      "v": 80
    },
    {
      "midi": 33,
      "hit": false,
      "t": 68823.49499999994,
      "d": 164.7900524088618,
      "v": 76
    },
    {
      "midi": 45,
      "hit": false,
      "t": 69117.61249999994,
      "d": 39.71352180989925,
      "v": 71
    },
    {
      "midi": 33,
      "hit": false,
      "t": 69117.61249999994,
      "d": 44.423997395831975,
      "v": 58
    },
    {
      "midi": 33,
      "hit": false,
      "t": 69264.67124999994,
      "d": 181.33416178384505,
      "v": 65
    },
    {
      "midi": 45,
      "hit": false,
      "t": 69264.67124999994,
      "d": 185.27870638019522,
      "v": 68
    },
    {
      "midi": 76,
      "hit": false,
      "t": 69411.72999999994,
      "d": 165.59427994790894,
      "v": 74
    },
    {
      "midi": 64,
      "hit": false,
      "t": 69411.72999999994,
      "d": 170.80261067707033,
      "v": 78
    },
    {
      "midi": 33,
      "hit": false,
      "t": 69558.78874999993,
      "d": 49.93870052082639,
      "v": 67
    },
    {
      "midi": 45,
      "hit": false,
      "t": 69558.78874999993,
      "d": 87.46931901041535,
      "v": 75
    },
    {
      "midi": 45,
      "hit": false,
      "t": 69705.84749999993,
      "d": 131.89331640624732,
      "v": 77
    },
    {
      "midi": 33,
      "hit": false,
      "t": 69705.84749999993,
      "d": 149.43313606770243,
      "v": 66
    },
    {
      "midi": 74,
      "hit": false,
      "t": 69852.90624999993,
      "d": 111.82592447916977,
      "v": 77
    },
    {
      "midi": 62,
      "hit": false,
      "t": 69852.90624999993,
      "d": 119.56182747396815,
      "v": 76
    },
    {
      "midi": 33,
      "hit": false,
      "t": 69999.96499999994,
      "d": 148.05446028645383,
      "v": 66
    },
    {
      "midi": 45,
      "hit": false,
      "t": 69999.96499999994,
      "d": 156.63288736979302,
      "v": 66
    },
    {
      "midi": 45,
      "hit": false,
      "t": 70294.08249999995,
      "d": 113.54926920573052,
      "v": 72
    },
    {
      "midi": 33,
      "hit": false,
      "t": 70294.08249999995,
      "d": 123.39148242188094,
      "v": 71
    },
    {
      "midi": 61,
      "hit": false,
      "t": 70294.08249999995,
      "d": 171.1089830729179,
      "v": 66
    },
    {
      "midi": 73,
      "hit": false,
      "t": 70294.08249999995,
      "d": 176.70027929687058,
      "v": 72
    },
    {
      "midi": 44,
      "hit": false,
      "t": 70588.19999999994,
      "d": 67.44022363281692,
      "v": 84
    },
    {
      "midi": 32,
      "hit": false,
      "t": 70588.19999999994,
      "d": 79.38874707031937,
      "v": 78
    },
    {
      "midi": 72,
      "hit": false,
      "t": 70588.19999999994,
      "d": 1997.7012070312776,
      "v": 78
    },
    {
      "midi": 60,
      "hit": false,
      "t": 70588.19999999994,
      "d": 2038.984887369821,
      "v": 77
    },
    {
      "midi": 32,
      "hit": false,
      "t": 70735.25874999995,
      "d": 68.74230631510727,
      "v": 65
    },
    {
      "midi": 44,
      "hit": false,
      "t": 70735.25874999995,
      "d": 72.61025781249919,
      "v": 57
    },
    {
      "midi": 32,
      "hit": false,
      "t": 70882.31749999995,
      "d": 157.51370800781297,
      "v": 70
    },
    {
      "midi": 44,
      "hit": false,
      "t": 70882.31749999995,
      "d": 166.89636263021384,
      "v": 68
    },
    {
      "midi": 44,
      "hit": false,
      "t": 71176.43499999995,
      "d": 167.35592122396338,
      "v": 78
    },
    {
      "midi": 32,
      "hit": false,
      "t": 71176.43499999995,
      "d": 168.65800390625373,
      "v": 68
    },
    {
      "midi": 32,
      "hit": false,
      "t": 71470.55249999996,
      "d": 35.84557031249278,
      "v": 48
    },
    {
      "midi": 44,
      "hit": false,
      "t": 71470.55249999996,
      "d": 38.832701171864755,
      "v": 72
    },
    {
      "midi": 44,
      "hit": false,
      "t": 71617.61124999996,
      "d": 126.37861328125291,
      "v": 76
    },
    {
      "midi": 32,
      "hit": false,
      "t": 71617.61124999996,
      "d": 126.76157877604419,
      "v": 53
    },
    {
      "midi": 32,
      "hit": false,
      "t": 71911.72874999997,
      "d": 40.55604589844006,
      "v": 50
    },
    {
      "midi": 44,
      "hit": false,
      "t": 71911.72874999997,
      "d": 53.768355468753725,
      "v": 67
    },
    {
      "midi": 44,
      "hit": false,
      "t": 72058.78749999996,
      "d": 169.88349348958582,
      "v": 68
    },
    {
      "midi": 32,
      "hit": false,
      "t": 72058.78749999996,
      "d": 170.30475553385622,
      "v": 50
    },
    {
      "midi": 44,
      "hit": false,
      "t": 72352.90499999997,
      "d": 129.71041308593703,
      "v": 74
    },
    {
      "midi": 32,
      "hit": false,
      "t": 72352.90499999997,
      "d": 135.7229713541601,
      "v": 64
    },
    {
      "midi": 32,
      "hit": false,
      "t": 72647.02249999996,
      "d": 49.93870052082639,
      "v": 55
    },
    {
      "midi": 44,
      "hit": false,
      "t": 72647.02249999996,
      "d": 78.20155403645185,
      "v": 71
    },
    {
      "midi": 32,
      "hit": false,
      "t": 72794.08124999996,
      "d": 49.55573502603511,
      "v": 44
    },
    {
      "midi": 44,
      "hit": false,
      "t": 72794.08124999996,
      "d": 75.94205761718331,
      "v": 67
    },
    {
      "midi": 44,
      "hit": false,
      "t": 72941.13999999996,
      "d": 145.98644661458093,
      "v": 68
    },
    {
      "midi": 32,
      "hit": false,
      "t": 72941.13999999996,
      "d": 146.86726725260087,
      "v": 60
    },
    {
      "midi": 59,
      "hit": false,
      "t": 72941.13999999996,
      "d": 178.3853274739522,
      "v": 80
    },
    {
      "midi": 71,
      "hit": false,
      "t": 72941.13999999996,
      "d": 192.93801627603534,
      "v": 80
    },
    {
      "midi": 32,
      "hit": false,
      "t": 73235.25749999995,
      "d": 71.8060302734375,
      "v": 48
    },
    {
      "midi": 44,
      "hit": false,
      "t": 73235.25749999995,
      "d": 78.92918847655528,
      "v": 67
    },
    {
      "midi": 32,
      "hit": false,
      "t": 73382.31624999995,
      "d": 89.65222233072564,
      "v": 57
    },
    {
      "midi": 44,
      "hit": false,
      "t": 73382.31624999995,
      "d": 106.77077994791034,
      "v": 66
    },
    {
      "midi": 61,
      "hit": false,
      "t": 73382.31624999995,
      "d": 232.57494498697633,
      "v": 71
    },
    {
      "midi": 73,
      "hit": false,
      "t": 73382.31624999995,
      "d": 265.088715494785,
      "v": 75
    },
    {
      "midi": 32,
      "hit": false,
      "t": 73529.37499999994,
      "d": 101.63904231770721,
      "v": 58
    },
    {
      "midi": 44,
      "hit": false,
      "t": 73529.37499999994,
      "d": 115.61728287760343,
      "v": 73
    },
    {
      "midi": 75,
      "hit": false,
      "t": 73823.49249999993,
      "d": 175.81945865885064,
      "v": 69
    },
    {
      "midi": 63,
      "hit": false,
      "t": 73823.49249999993,
      "d": 187.46160970052006,
      "v": 70
    },
    {
      "midi": 44,
      "hit": false,
      "t": 73970.55124999993,
      "d": 133.19539908853767,
      "v": 72
    },
    {
      "midi": 32,
      "hit": false,
      "t": 73970.55124999993,
      "d": 143.80354329427064,
      "v": 57
    },
    {
      "midi": 75,
      "hit": false,
      "t": 74117.60999999993,
      "d": 186.12123046875058,
      "v": 68
    },
    {
      "midi": 63,
      "hit": false,
      "t": 74117.60999999993,
      "d": 197.6101953125035,
      "v": 66
    },
    {
      "midi": 32,
      "hit": false,
      "t": 74264.66874999992,
      "d": 36.64979785156902,
      "v": 45
    },
    {
      "midi": 44,
      "hit": false,
      "t": 74264.66874999992,
      "d": 55.07043815104407,
      "v": 68
    },
    {
      "midi": 44,
      "hit": false,
      "t": 74411.72749999992,
      "d": 157.09244596354256,
      "v": 66
    },
    {
      "midi": 32,
      "hit": false,
      "t": 74411.72749999992,
      "d": 169.040969401045,
      "v": 50
    },
    {
      "midi": 73,
      "hit": false,
      "t": 74558.78624999992,
      "d": 187.34672005209723,
      "v": 78
    },
    {
      "midi": 61,
      "hit": false,
      "t": 74558.78624999992,
      "d": 208.33322916667385,
      "v": 73
    },
    {
      "midi": 32,
      "hit": false,
      "t": 74705.84499999993,
      "d": 148.51401888020337,
      "v": 66
    },
    {
      "midi": 44,
      "hit": false,
      "t": 74705.84499999993,
      "d": 160.1561699218728,
      "v": 82
    },
    {
      "midi": 44,
      "hit": false,
      "t": 74999.96249999992,
      "d": 137.8292815755267,
      "v": 70
    },
    {
      "midi": 71,
      "hit": false,
      "t": 74999.96249999992,
      "d": 159.58172167970042,
      "v": 74
    },
    {
      "midi": 32,
      "hit": false,
      "t": 74999.96249999992,
      "d": 167.35592122397793,
      "v": 57
    },
    {
      "midi": 59,
      "hit": false,
      "t": 74999.96249999992,
      "d": 177.9640654297109,
      "v": 73
    },
    {
      "midi": 39,
      "hit": false,
      "t": 75294.07999999994,
      "d": 6766.2343619791645,
      "v": 76
    },
    {
      "midi": 27,
      "hit": false,
      "t": 75294.07999999994,
      "d": 6767.498148111976,
      "v": 77
    },
    {
      "midi": 70,
      "hit": false,
      "t": 75294.07999999994,
      "d": 7259.3024365234305,
      "v": 79
    },
    {
      "midi": 58,
      "hit": false,
      "t": 75294.07999999994,
      "d": 7314.296281575516,
      "v": 83
    },
    {
      "midi": 39,
      "hit": false,
      "t": 82352.89999999994,
      "d": 69.16356835937768,
      "v": 92
    },
    {
      "midi": 27,
      "hit": false,
      "t": 82352.89999999994,
      "d": 88.35013964843529,
      "v": 88
    },
    {
      "midi": 26,
      "hit": false,
      "t": 84117.60499999994,
      "d": 96.4690081380104,
      "v": 92
    },
    {
      "midi": 50,
      "hit": false,
      "t": 84117.60499999994,
      "d": 111.5195520833222,
      "v": 82
    },
    {
      "midi": 53,
      "hit": false,
      "t": 84117.60499999994,
      "d": 128.44662695311126,
      "v": 83
    },
    {
      "midi": 38,
      "hit": false,
      "t": 84117.60499999994,
      "d": 128.82959244790254,
      "v": 89
    },
    {
      "midi": 57,
      "hit": false,
      "t": 84117.60499999994,
      "d": 166.8963626301993,
      "v": 81
    },
    {
      "midi": 38,
      "hit": false,
      "t": 84705.83999999992,
      "d": 35.84557031249278,
      "v": 78
    },
    {
      "midi": 50,
      "hit": false,
      "t": 84705.83999999992,
      "d": 66.21473404947028,
      "v": 89
    },
    {
      "midi": 62,
      "hit": false,
      "t": 84705.83999999992,
      "d": 163.90923177082732,
      "v": 82
    },
    {
      "midi": 74,
      "hit": false,
      "t": 84705.83999999992,
      "d": 185.27870638019522,
      "v": 87
    },
    {
      "midi": 50,
      "hit": false,
      "t": 84852.89874999992,
      "d": 38.41143912759435,
      "v": 77
    },
    {
      "midi": 38,
      "hit": false,
      "t": 84852.89874999992,
      "d": 52.58116243488621,
      "v": 69
    },
    {
      "midi": 38,
      "hit": false,
      "t": 84999.95749999992,
      "d": 41.78153548177215,
      "v": 66
    },
    {
      "midi": 50,
      "hit": false,
      "t": 84999.95749999992,
      "d": 78.12496093750815,
      "v": 73
    },
    {
      "midi": 50,
      "hit": false,
      "t": 85147.01624999993,
      "d": 80.69082975260972,
      "v": 81
    },
    {
      "midi": 38,
      "hit": false,
      "t": 85147.01624999993,
      "d": 87.46931901041535,
      "v": 65
    },
    {
      "midi": 64,
      "hit": false,
      "t": 85147.01624999993,
      "d": 225.2986005859275,
      "v": 80
    },
    {
      "midi": 76,
      "hit": false,
      "t": 85147.01624999993,
      "d": 251.37855078124267,
      "v": 78
    },
    {
      "midi": 38,
      "hit": false,
      "t": 85294.07499999992,
      "d": 174.134410481769,
      "v": 65
    },
    {
      "midi": 50,
      "hit": false,
      "t": 85294.07499999992,
      "d": 192.55505078124406,
      "v": 83
    },
    {
      "midi": 79,
      "hit": false,
      "t": 85588.19249999992,
      "d": 910.4621673177026,
      "v": 83
    },
    {
      "midi": 67,
      "hit": false,
      "t": 85588.19249999992,
      "d": 930.5295592447801,
      "v": 83
    },
    {
      "midi": 52,
      "hit": false,
      "t": 85735.25124999991,
      "d": 74.29530598958081,
      "v": 86
    },
    {
      "midi": 40,
      "hit": false,
      "t": 85735.25124999991,
      "d": 78.1249609374936,
      "v": 81
    },
    {
      "midi": 40,
      "hit": false,
      "t": 86029.3687499999,
      "d": 38.83270117187931,
      "v": 81
    },
    {
      "midi": 52,
      "hit": false,
      "t": 86029.3687499999,
      "d": 61.46596191407298,
      "v": 89
    },
    {
      "midi": 40,
      "hit": false,
      "t": 86176.42749999992,
      "d": 90.91600846353685,
      "v": 68
    },
    {
      "midi": 52,
      "hit": false,
      "t": 86176.42749999992,
      "d": 97.31153222655121,
      "v": 80
    },
    {
      "midi": 40,
      "hit": false,
      "t": 86470.54499999991,
      "d": 90.49474641926645,
      "v": 78
    },
    {
      "midi": 52,
      "hit": false,
      "t": 86470.54499999991,
      "d": 95.66478059894871,
      "v": 83
    },
    {
      "midi": 52,
      "hit": false,
      "t": 86764.6624999999,
      "d": 119.06397233072494,
      "v": 77
    },
    {
      "midi": 40,
      "hit": false,
      "t": 86764.6624999999,
      "d": 119.10226888020406,
      "v": 71
    },
    {
      "midi": 67,
      "hit": false,
      "t": 86764.6624999999,
      "d": 135.7229713541601,
      "v": 78
    },
    {
      "midi": 79,
      "hit": false,
      "t": 86764.6624999999,
      "d": 148.93528092447377,
      "v": 76
    },
    {
      "midi": 41,
      "hit": false,
      "t": 87058.7799999999,
      "d": 29.45004654947843,
      "v": 77
    },
    {
      "midi": 53,
      "hit": false,
      "t": 87058.7799999999,
      "d": 52.887534830733784,
      "v": 83
    },
    {
      "midi": 69,
      "hit": false,
      "t": 87058.7799999999,
      "d": 303.5001546223939,
      "v": 81
    },
    {
      "midi": 81,
      "hit": false,
      "t": 87058.7799999999,
      "d": 307.82766471353534,
      "v": 82
    },
    {
      "midi": 41,
      "hit": false,
      "t": 87205.83874999991,
      "d": 46.49201106770488,
      "v": 65
    },
    {
      "midi": 53,
      "hit": false,
      "t": 87205.83874999991,
      "d": 70.42735449217435,
      "v": 78
    },
    {
      "midi": 53,
      "hit": false,
      "t": 87352.89749999989,
      "d": 66.48280989583873,
      "v": 77
    },
    {
      "midi": 71,
      "hit": false,
      "t": 87499.9562499999,
      "d": 116.11513802083209,
      "v": 78
    },
    {
      "midi": 83,
      "hit": false,
      "t": 87499.9562499999,
      "d": 121.6298411458265,
      "v": 78
    },
    {
      "midi": 53,
      "hit": false,
      "t": 87647.0149999999,
      "d": 218.1754423828097,
      "v": 78
    },
    {
      "midi": 41,
      "hit": false,
      "t": 87647.0149999999,
      "d": 253.52315755207383,
      "v": 68
    },
    {
      "midi": 76,
      "hit": false,
      "t": 87941.13249999989,
      "d": 682.9040703124774,
      "v": 77
    },
    {
      "midi": 64,
      "hit": false,
      "t": 87941.13249999989,
      "d": 710.6690686848742,
      "v": 80
    },
    {
      "midi": 52,
      "hit": false,
      "t": 88088.19124999989,
      "d": 73.06981640624872,
      "v": 81
    },
    {
      "midi": 40,
      "hit": false,
      "t": 88088.19124999989,
      "d": 88.73310514322657,
      "v": 77
    },
    {
      "midi": 40,
      "hit": false,
      "t": 88382.30874999988,
      "d": 34.58178417968156,
      "v": 71
    },
    {
      "midi": 52,
      "hit": false,
      "t": 88382.30874999988,
      "d": 39.67522526040557,
      "v": 79
    },
    {
      "midi": 52,
      "hit": false,
      "t": 88529.36749999986,
      "d": 129.32744759114576,
      "v": 74
    },
    {
      "midi": 40,
      "hit": false,
      "t": 88529.36749999986,
      "d": 138.28884016927623,
      "v": 70
    },
    {
      "midi": 64,
      "hit": false,
      "t": 88823.48499999987,
      "d": 98.6136149088561,
      "v": 81
    },
    {
      "midi": 40,
      "hit": false,
      "t": 88823.48499999987,
      "d": 104.62617317707918,
      "v": 72
    },
    {
      "midi": 52,
      "hit": false,
      "t": 88823.48499999987,
      "d": 109.71961425780319,
      "v": 78
    },
    {
      "midi": 76,
      "hit": false,
      "t": 88823.48499999987,
      "d": 124.99993749998976,
      "v": 78
    },
    {
      "midi": 67,
      "hit": false,
      "t": 89117.60249999986,
      "d": 96.46900813802495,
      "v": 78
    },
    {
      "midi": 52,
      "hit": false,
      "t": 89117.60249999986,
      "d": 126.37861328125291,
      "v": 74
    },
    {
      "midi": 79,
      "hit": false,
      "t": 89117.60249999986,
      "d": 137.025054036465,
      "v": 81
    },
    {
      "midi": 40,
      "hit": false,
      "t": 89117.60249999986,
      "d": 146.2928190104285,
      "v": 68
    },
    {
      "midi": 38,
      "hit": false,
      "t": 89411.71999999987,
      "d": 46.49201106770488,
      "v": 70
    },
    {
      "midi": 50,
      "hit": false,
      "t": 89411.71999999987,
      "d": 85.78427083333372,
      "v": 83
    },
    {
      "midi": 86,
      "hit": false,
      "t": 89411.71999999987,
      "d": 235.21740690103616,
      "v": 76
    },
    {
      "midi": 74,
      "hit": false,
      "t": 89411.71999999987,
      "d": 245.86384765624825,
      "v": 78
    },
    {
      "midi": 38,
      "hit": false,
      "t": 89558.77874999987,
      "d": 61.465961914058425,
      "v": 61
    },
    {
      "midi": 50,
      "hit": false,
      "t": 89558.77874999987,
      "d": 84.5204847005225,
      "v": 69
    },
    {
      "midi": 50,
      "hit": false,
      "t": 89705.83749999986,
      "d": 110.14087630208815,
      "v": 70
    },
    {
      "midi": 38,
      "hit": false,
      "t": 89705.83749999986,
      "d": 127.14454427083547,
      "v": 67
    },
    {
      "midi": 71,
      "hit": false,
      "t": 89852.89624999986,
      "d": 135.76126790363924,
      "v": 77
    },
    {
      "midi": 83,
      "hit": false,
      "t": 89852.89624999986,
      "d": 144.79925358072796,
      "v": 80
    },
    {
      "midi": 38,
      "hit": false,
      "t": 89999.95499999986,
      "d": 238.20453776042268,
      "v": 73
    },
    {
      "midi": 50,
      "hit": false,
      "t": 89999.95499999986,
      "d": 250.19135774740425,
      "v": 83
    },
    {
      "midi": 79,
      "hit": false,
      "t": 90294.07249999986,
      "d": 656.0198925781297,
      "v": 80
    },
    {
      "midi": 67,
      "hit": false,
      "t": 90294.07249999986,
      "d": 690.6016767578112,
      "v": 81
    },
    {
      "midi": 40,
      "hit": false,
      "t": 90441.13124999986,
      "d": 59.28305859374814,
      "v": 70
    },
    {
      "midi": 52,
      "hit": false,
      "t": 90441.13124999986,
      "d": 78.89089192707615,
      "v": 78
    },
    {
      "midi": 40,
      "hit": false,
      "t": 90735.24874999985,
      "d": 39.67522526042012,
      "v": 63
    },
    {
      "midi": 52,
      "hit": false,
      "t": 90735.24874999985,
      "d": 50.359962565111346,
      "v": 70
    },
    {
      "midi": 40,
      "hit": false,
      "t": 90882.30749999986,
      "d": 170.72601757812663,
      "v": 77
    },
    {
      "midi": 52,
      "hit": false,
      "t": 90882.30749999986,
      "d": 173.25358984374907,
      "v": 79
    },
    {
      "midi": 76,
      "hit": false,
      "t": 91176.42499999986,
      "d": 103.74535253905924,
      "v": 72
    },
    {
      "midi": 40,
      "hit": false,
      "t": 91176.42499999986,
      "d": 108.76220052082499,
      "v": 70
    },
    {
      "midi": 64,
      "hit": false,
      "t": 91176.42499999986,
      "d": 110.10257975259447,
      "v": 78
    },
    {
      "midi": 52,
      "hit": false,
      "t": 91176.42499999986,
      "d": 111.82592447915522,
      "v": 78
    },
    {
      "midi": 60,
      "hit": false,
      "t": 91470.54249999985,
      "d": 90.91600846353685,
      "v": 77
    },
    {
      "midi": 72,
      "hit": false,
      "t": 91470.54249999985,
      "d": 113.58756575520965,
      "v": 74
    },
    {
      "midi": 40,
      "hit": false,
      "t": 91470.54249999985,
      "d": 128.44662695312581,
      "v": 65
    },
    {
      "midi": 52,
      "hit": false,
      "t": 91470.54249999985,
      "d": 135.72297135417466,
      "v": 70
    },
    {
      "midi": 41,
      "hit": false,
      "t": 91764.65999999986,
      "d": 36.22853580729861,
      "v": 70
    },
    {
      "midi": 53,
      "hit": false,
      "t": 91764.65999999986,
      "d": 56.33422428385529,
      "v": 80
    },
    {
      "midi": 62,
      "hit": false,
      "t": 91764.65999999986,
      "d": 275.69685970051796,
      "v": 80
    },
    {
      "midi": 74,
      "hit": false,
      "t": 91764.65999999986,
      "d": 285.07951432291884,
      "v": 81
    },
    {
      "midi": 41,
      "hit": false,
      "t": 91911.71874999985,
      "d": 41.78153548177215,
      "v": 54
    },
    {
      "midi": 53,
      "hit": false,
      "t": 91911.71874999985,
      "d": 75.13783007812162,
      "v": 73
    },
    {
      "midi": 53,
      "hit": false,
      "t": 92058.77749999987,
      "d": 118.71930338541279,
      "v": 74
    },
    {
      "midi": 41,
      "hit": false,
      "t": 92058.77749999987,
      "d": 123.81274446613679,
      "v": 58
    },
    {
      "midi": 64,
      "hit": false,
      "t": 92205.83624999986,
      "d": 145.105625976561,
      "v": 85
    },
    {
      "midi": 76,
      "hit": false,
      "t": 92205.83624999986,
      "d": 168.1601487630105,
      "v": 81
    },
    {
      "midi": 41,
      "hit": false,
      "t": 92352.89499999986,
      "d": 237.36201367186732,
      "v": 78
    },
    {
      "midi": 53,
      "hit": false,
      "t": 92352.89499999986,
      "d": 248.42971647134982,
      "v": 83
    },
    {
      "midi": 81,
      "hit": false,
      "t": 92499.95374999986,
      "d": 904.0666435546736,
      "v": 73
    },
    {
      "midi": 69,
      "hit": false,
      "t": 92499.95374999986,
      "d": 967.6389156900841,
      "v": 74
    },
    {
      "midi": 57,
      "hit": false,
      "t": 92794.07124999985,
      "d": 85.40130533854244,
      "v": 87
    },
    {
      "midi": 45,
      "hit": false,
      "t": 92794.07124999985,
      "d": 89.65222233072564,
      "v": 71
    },
    {
      "midi": 45,
      "hit": false,
      "t": 93088.18874999984,
      "d": 29.45004654947843,
      "v": 66
    },
    {
      "midi": 57,
      "hit": false,
      "t": 93088.18874999984,
      "d": 31.135094726560055,
      "v": 74
    },
    {
      "midi": 45,
      "hit": false,
      "t": 93235.24749999984,
      "d": 94.28610481771466,
      "v": 70
    },
    {
      "midi": 57,
      "hit": false,
      "t": 93235.24749999984,
      "d": 98.6136149088561,
      "v": 77
    },
    {
      "midi": 57,
      "hit": false,
      "t": 93529.36499999983,
      "d": 72.18899576822878,
      "v": 85
    },
    {
      "midi": 45,
      "hit": false,
      "t": 93529.36499999983,
      "d": 84.59707779948076,
      "v": 78
    },
    {
      "midi": 45,
      "hit": false,
      "t": 93823.48249999984,
      "d": 53.38538997396245,
      "v": 74
    },
    {
      "midi": 57,
      "hit": false,
      "t": 93823.48249999984,
      "d": 55.49170019531448,
      "v": 80
    },
    {
      "midi": 57,
      "hit": false,
      "t": 93970.54124999983,
      "d": 37.14765299479768,
      "v": 71
    },
    {
      "midi": 45,
      "hit": false,
      "t": 93970.54124999983,
      "d": 77.20584375000908,
      "v": 57
    },
    {
      "midi": 38,
      "hit": false,
      "t": 94117.59999999985,
      "d": 29.45004654947843,
      "v": 73
    },
    {
      "midi": 50,
      "hit": false,
      "t": 94117.59999999985,
      "d": 29.871308593748836,
      "v": 61
    },
    {
      "midi": 52,
      "hit": false,
      "t": 94117.59999999985,
      "d": 40.09648730469053,
      "v": 41
    },
    {
      "midi": 62,
      "hit": false,
      "t": 94117.59999999985,
      "d": 244.56176497394335,
      "v": 82
    },
    {
      "midi": 74,
      "hit": false,
      "t": 94117.59999999985,
      "d": 260.26335026040033,
      "v": 84
    },
    {
      "midi": 38,
      "hit": false,
      "t": 94264.65874999984,
      "d": 62.729748046869645,
      "v": 55
    },
    {
      "midi": 50,
      "hit": false,
      "t": 94264.65874999984,
      "d": 67.36363053384412,
      "v": 70
    },
    {
      "midi": 50,
      "hit": false,
      "t": 94411.71749999982,
      "d": 128.1402545572928,
      "v": 70
    },
    {
      "midi": 38,
      "hit": false,
      "t": 94411.71749999982,
      "d": 140.8547089843778,
      "v": 59
    },
    {
      "midi": 64,
      "hit": false,
      "t": 94558.77624999982,
      "d": 148.16934993489122,
      "v": 83
    },
    {
      "midi": 76,
      "hit": false,
      "t": 94558.77624999982,
      "d": 177.58109993489052,
      "v": 79
    },
    {
      "midi": 38,
      "hit": false,
      "t": 94705.83499999982,
      "d": 209.5970152994705,
      "v": 71
    },
    {
      "midi": 50,
      "hit": false,
      "t": 94705.83499999982,
      "d": 225.26030403644836,
      "v": 81
    },
    {
      "midi": 79,
      "hit": false,
      "t": 94999.95249999981,
      "d": 827.7033238932345,
      "v": 76
    },
    {
      "midi": 67,
      "hit": false,
      "t": 94999.95249999981,
      "d": 840.8007438151108,
      "v": 75
    },
    {
      "midi": 52,
      "hit": false,
      "t": 95147.0112499998,
      "d": 77.28243684895278,
      "v": 81
    },
    {
      "midi": 40,
      "hit": false,
      "t": 95147.0112499998,
      "d": 86.20553287760413,
      "v": 75
    },
    {
      "midi": 40,
      "hit": false,
      "t": 95441.1287499998,
      "d": 39.67522526042012,
      "v": 65
    },
    {
      "midi": 52,
      "hit": false,
      "t": 95441.1287499998,
      "d": 48.63661783855059,
      "v": 73
    },
    {
      "midi": 52,
      "hit": false,
      "t": 95588.18749999981,
      "d": 79.77171256511065,
      "v": 73
    },
    {
      "midi": 40,
      "hit": false,
      "t": 95588.18749999981,
      "d": 98.23064941406483,
      "v": 69
    },
    {
      "midi": 40,
      "hit": false,
      "t": 95882.30499999982,
      "d": 129.36574414062488,
      "v": 67
    },
    {
      "midi": 52,
      "hit": false,
      "t": 95882.30499999982,
      "d": 130.13167513020744,
      "v": 76
    },
    {
      "midi": 67,
      "hit": false,
      "t": 96176.42249999981,
      "d": 143.03761230468808,
      "v": 73
    },
    {
      "midi": 79,
      "hit": false,
      "t": 96176.42249999981,
      "d": 153.6457565104065,
      "v": 66
    },
    {
      "midi": 40,
      "hit": false,
      "t": 96323.48124999981,
      "d": 35.0413427734311,
      "v": 69
    },
    {
      "midi": 52,
      "hit": false,
      "t": 96323.48124999981,
      "d": 63.993534179680864,
      "v": 75
    },
    {
      "midi": 41,
      "hit": false,
      "t": 96470.5399999998,
      "d": 38.79440462240018,
      "v": 59
    },
    {
      "midi": 53,
      "hit": false,
      "t": 96470.5399999998,
      "d": 61.46596191407298,
      "v": 71
    },
    {
      "midi": 69,
      "hit": false,
      "t": 96470.5399999998,
      "d": 210.09487044271373,
      "v": 77
    },
    {
      "midi": 81,
      "hit": false,
      "t": 96470.5399999998,
      "d": 216.87335970051936,
      "v": 75
    },
    {
      "midi": 53,
      "hit": false,
      "t": 96617.59874999982,
      "d": 41.398569986980874,
      "v": 68
    },
    {
      "midi": 41,
      "hit": false,
      "t": 96617.59874999982,
      "d": 41.85812858073041,
      "v": 52
    },
    {
      "midi": 53,
      "hit": false,
      "t": 96764.6574999998,
      "d": 137.79098502604757,
      "v": 65
    },
    {
      "midi": 41,
      "hit": false,
      "t": 96764.6574999998,
      "d": 137.86757812500582,
      "v": 57
    },
    {
      "midi": 83,
      "hit": false,
      "t": 96911.71624999981,
      "d": 108.37923502604826,
      "v": 78
    },
    {
      "midi": 71,
      "hit": false,
      "t": 96911.71624999981,
      "d": 169.8069003906421,
      "v": 79
    },
    {
      "midi": 53,
      "hit": false,
      "t": 97058.77499999982,
      "d": 244.17879947916663,
      "v": 76
    },
    {
      "midi": 41,
      "hit": false,
      "t": 97058.77499999982,
      "d": 271.44594270833477,
      "v": 68
    },
    {
      "midi": 76,
      "hit": false,
      "t": 97352.89249999983,
      "d": 699.5630693359271,
      "v": 78
    },
    {
      "midi": 64,
      "hit": false,
      "t": 97352.89249999983,
      "d": 741.4977910156158,
      "v": 82
    },
    {
      "midi": 40,
      "hit": false,
      "t": 97499.95124999982,
      "d": 60.202175781247206,
      "v": 67
    },
    {
      "midi": 52,
      "hit": false,
      "t": 97499.95124999982,
      "d": 88.7714016927057,
      "v": 77
    },
    {
      "midi": 40,
      "hit": false,
      "t": 97794.06874999982,
      "d": 59.7809137369768,
      "v": 77
    },
    {
      "midi": 52,
      "hit": false,
      "t": 97794.06874999982,
      "d": 77.70369889322319,
      "v": 80
    },
    {
      "midi": 40,
      "hit": false,
      "t": 97941.12749999981,
      "d": 102.4432698567689,
      "v": 68
    },
    {
      "midi": 52,
      "hit": false,
      "t": 97941.12749999981,
      "d": 110.17917285156727,
      "v": 71
    },
    {
      "midi": 64,
      "hit": false,
      "t": 98235.24499999982,
      "d": 73.37618880208174,
      "v": 80
    },
    {
      "midi": 76,
      "hit": false,
      "t": 98235.24499999982,
      "d": 90.03518782551691,
      "v": 73
    },
    {
      "midi": 40,
      "hit": false,
      "t": 98235.24499999982,
      "d": 145.105625976561,
      "v": 67
    },
    {
      "midi": 52,
      "hit": false,
      "t": 98235.24499999982,
      "d": 146.7906741536426,
      "v": 73
    },
    {
      "midi": 67,
      "hit": false,
      "t": 98529.36249999981,
      "d": 84.98004329427204,
      "v": 81
    },
    {
      "midi": 79,
      "hit": false,
      "t": 98529.36249999981,
      "d": 127.64239941406413,
      "v": 77
    },
    {
      "midi": 40,
      "hit": false,
      "t": 98676.42124999981,
      "d": 42.73894921875035,
      "v": 61
    },
    {
      "midi": 52,
      "hit": false,
      "t": 98676.42124999981,
      "d": 50.742928059902624,
      "v": 67
    },
    {
      "midi": 50,
      "hit": false,
      "t": 98823.47999999982,
      "d": 66.98066503906739,
      "v": 79
    },
    {
      "midi": 38,
      "hit": false,
      "t": 98823.47999999982,
      "d": 76.74628515625955,
      "v": 66
    },
    {
      "midi": 74,
      "hit": false,
      "t": 98823.47999999982,
      "d": 125.49779264323297,
      "v": 79
    },
    {
      "midi": 86,
      "hit": false,
      "t": 98823.47999999982,
      "d": 134.45918522136344,
      "v": 79
    },
    {
      "midi": 38,
      "hit": false,
      "t": 98970.53874999983,
      "d": 46.49201106770488,
      "v": 32
    },
    {
      "midi": 50,
      "hit": false,
      "t": 98970.53874999983,
      "d": 66.59769954426156,
      "v": 68
    },
    {
      "midi": 50,
      "hit": false,
      "t": 99117.59749999983,
      "d": 82.37587792969134,
      "v": 66
    },
    {
      "midi": 38,
      "hit": false,
      "t": 99117.59749999983,
      "d": 103.78364908853837,
      "v": 53
    },
    {
      "midi": 71,
      "hit": false,
      "t": 99264.65624999983,
      "d": 115.23431738281215,
      "v": 78
    },
    {
      "midi": 83,
      "hit": false,
      "t": 99264.65624999983,
      "d": 117.41722070312244,
      "v": 78
    },
    {
      "midi": 38,
      "hit": false,
      "t": 99411.71499999982,
      "d": 271.44594270833477,
      "v": 61
    },
    {
      "midi": 50,
      "hit": false,
      "t": 99411.71499999982,
      "d": 288.10494173176994,
      "v": 73
    },
    {
      "midi": 79,
      "hit": false,
      "t": 99705.83249999981,
      "d": 547.1810989583464,
      "v": 77
    },
    {
      "midi": 67,
      "hit": false,
      "t": 99705.83249999981,
      "d": 586.9712138672039,
      "v": 78
    },
    {
      "midi": 40,
      "hit": false,
      "t": 99852.89124999981,
      "d": 69.54653385416896,
      "v": 71
    },
    {
      "midi": 52,
      "hit": false,
      "t": 99852.89124999981,
      "d": 79.81000911458977,
      "v": 76
    },
    {
      "midi": 40,
      "hit": false,
      "t": 100147.00874999982,
      "d": 38.4114391276089,
      "v": 59
    },
    {
      "midi": 52,
      "hit": false,
      "t": 100147.00874999982,
      "d": 38.83270117187931,
      "v": 68
    },
    {
      "midi": 40,
      "hit": false,
      "t": 100294.06749999983,
      "d": 149.31824641926505,
      "v": 55
    },
    {
      "midi": 52,
      "hit": false,
      "t": 100294.06749999983,
      "d": 153.26279101561522,
      "v": 66
    },
    {
      "midi": 64,
      "hit": false,
      "t": 100588.18499999982,
      "d": 104.58787662760005,
      "v": 72
    },
    {
      "midi": 76,
      "hit": false,
      "t": 100588.18499999982,
      "d": 107.9579729817633,
      "v": 68
    },
    {
      "midi": 52,
      "hit": false,
      "t": 100588.18499999982,
      "d": 145.105625976561,
      "v": 70
    },
    {
      "midi": 40,
      "hit": false,
      "t": 100588.18499999982,
      "d": 147.28852929687127,
      "v": 67
    },
    {
      "midi": 40,
      "hit": false,
      "t": 100882.30249999982,
      "d": 116.11513802083209,
      "v": 59
    },
    {
      "midi": 60,
      "hit": false,
      "t": 100882.30249999982,
      "d": 117.80018619791372,
      "v": 72
    },
    {
      "midi": 72,
      "hit": false,
      "t": 100882.30249999982,
      "d": 128.0253649088554,
      "v": 68
    },
    {
      "midi": 52,
      "hit": false,
      "t": 100882.30249999982,
      "d": 129.82530273437442,
      "v": 61
    },
    {
      "midi": 41,
      "hit": false,
      "t": 101176.41999999981,
      "d": 50.81952115886088,
      "v": 67
    },
    {
      "midi": 53,
      "hit": false,
      "t": 101176.41999999981,
      "d": 79.81000911458977,
      "v": 79
    },
    {
      "midi": 62,
      "hit": false,
      "t": 101176.41999999981,
      "d": 290.2878450520948,
      "v": 79
    },
    {
      "midi": 74,
      "hit": false,
      "t": 101176.41999999981,
      "d": 297.0663343099004,
      "v": 79
    },
    {
      "midi": 41,
      "hit": false,
      "t": 101323.47874999982,
      "d": 46.49201106770488,
      "v": 53
    },
    {
      "midi": 53,
      "hit": false,
      "t": 101323.47874999982,
      "d": 68.70400976562814,
      "v": 67
    },
    {
      "midi": 53,
      "hit": false,
      "t": 101470.53749999982,
      "d": 101.63904231770721,
      "v": 66
    },
    {
      "midi": 41,
      "hit": false,
      "t": 101470.53749999982,
      "d": 120.44264811197354,
      "v": 51
    },
    {
      "midi": 64,
      "hit": false,
      "t": 101617.59624999981,
      "d": 126.37861328125291,
      "v": 81
    },
    {
      "midi": 76,
      "hit": false,
      "t": 101617.59624999981,
      "d": 155.82865983073134,
      "v": 75
    },
    {
      "midi": 53,
      "hit": false,
      "t": 101764.65499999981,
      "d": 186.1595270182297,
      "v": 77
    },
    {
      "midi": 41,
      "hit": false,
      "t": 101764.65499999981,
      "d": 232.6515380859346,
      "v": 68
    },
    {
      "midi": 81,
      "hit": false,
      "t": 102058.7724999998,
      "d": 623.238046223938,
      "v": 81
    },
    {
      "midi": 69,
      "hit": false,
      "t": 102058.7724999998,
      "d": 697.878021158831,
      "v": 81
    },
    {
      "midi": 47,
      "hit": false,
      "t": 102205.8312499998,
      "d": 47.296238606766565,
      "v": 60
    },
    {
      "midi": 45,
      "hit": false,
      "t": 102205.8312499998,
      "d": 48.75150748697342,
      "v": 58
    },
    {
      "midi": 33,
      "hit": false,
      "t": 102205.8312499998,
      "d": 96.85197363280167,
      "v": 65
    },
    {
      "midi": 33,
      "hit": false,
      "t": 102499.94874999979,
      "d": 69.12527180989855,
      "v": 76
    },
    {
      "midi": 45,
      "hit": false,
      "t": 102499.94874999979,
      "d": 71.19328548177145,
      "v": 78
    },
    {
      "midi": 33,
      "hit": false,
      "t": 102647.00749999979,
      "d": 130.59123372394242,
      "v": 74
    },
    {
      "midi": 45,
      "hit": false,
      "t": 102647.00749999979,
      "d": 139.09306770832336,
      "v": 79
    },
    {
      "midi": 33,
      "hit": false,
      "t": 102941.12499999978,
      "d": 129.32744759114576,
      "v": 80
    },
    {
      "midi": 45,
      "hit": false,
      "t": 102941.12499999978,
      "d": 140.93130208333605,
      "v": 87
    },
    {
      "midi": 33,
      "hit": false,
      "t": 103235.24249999979,
      "d": 38.79440462240018,
      "v": 57
    },
    {
      "midi": 45,
      "hit": false,
      "t": 103235.24249999979,
      "d": 58.90009309895686,
      "v": 71
    },
    {
      "midi": 33,
      "hit": false,
      "t": 103382.30124999979,
      "d": 38.4114391276089,
      "v": 25
    },
    {
      "midi": 45,
      "hit": false,
      "t": 103382.30124999979,
      "d": 49.93870052084094,
      "v": 72
    },
    {
      "midi": 50,
      "hit": false,
      "t": 103529.3599999998,
      "d": 26.079950195315178,
      "v": 63
    },
    {
      "midi": 52,
      "hit": false,
      "t": 103529.3599999998,
      "d": 30.33086718749837,
      "v": 61
    },
    {
      "midi": 40,
      "hit": false,
      "t": 103529.3599999998,
      "d": 52.887534830733784,
      "v": 37
    },
    {
      "midi": 38,
      "hit": false,
      "t": 103529.3599999998,
      "d": 62.34678255209292,
      "v": 62
    },
    {
      "midi": 62,
      "hit": false,
      "t": 103529.3599999998,
      "d": 189.1083613281371,
      "v": 78
    },
    {
      "midi": 74,
      "hit": false,
      "t": 103529.3599999998,
      "d": 215.60957356770814,
      "v": 82
    },
    {
      "midi": 52,
      "hit": false,
      "t": 103676.41874999981,
      "d": 32.398880859371275,
      "v": 38
    },
    {
      "midi": 50,
      "hit": false,
      "t": 103676.41874999981,
      "d": 44.84525944010238,
      "v": 41
    },
    {
      "midi": 38,
      "hit": false,
      "t": 103676.41874999981,
      "d": 51.70034179686627,
      "v": 44
    },
    {
      "midi": 38,
      "hit": false,
      "t": 103823.47749999979,
      "d": 83.25669856771128,
      "v": 52
    },
    {
      "midi": 50,
      "hit": false,
      "t": 103823.47749999979,
      "d": 84.5204847005225,
      "v": 77
    },
    {
      "midi": 64,
      "hit": false,
      "t": 103970.53624999979,
      "d": 160.96039746093447,
      "v": 81
    },
    {
      "midi": 76,
      "hit": false,
      "t": 103970.53624999979,
      "d": 189.49132682291383,
      "v": 76
    },
    {
      "midi": 38,
      "hit": false,
      "t": 104117.59499999978,
      "d": 278.7605836588482,
      "v": 75
    },
    {
      "midi": 50,
      "hit": false,
      "t": 104117.59499999978,
      "d": 320.58041569009947,
      "v": 78
    },
    {
      "midi": 79,
      "hit": false,
      "t": 104411.71249999978,
      "d": 990.2338798828132,
      "v": 59
    },
    {
      "midi": 67,
      "hit": false,
      "t": 104411.71249999978,
      "d": 1019.3009609375003,
      "v": 81
    },
    {
      "midi": 52,
      "hit": false,
      "t": 104558.77124999977,
      "d": 72.99322330729046,
      "v": 78
    },
    {
      "midi": 40,
      "hit": false,
      "t": 104558.77124999977,
      "d": 80.26956770833931,
      "v": 73
    },
    {
      "midi": 40,
      "hit": false,
      "t": 104852.88874999978,
      "d": 33.279701497391216,
      "v": 72
    },
    {
      "midi": 52,
      "hit": false,
      "t": 104852.88874999978,
      "d": 56.33422428385529,
      "v": 77
    },
    {
      "midi": 40,
      "hit": false,
      "t": 104999.94749999978,
      "d": 147.25023274739215,
      "v": 68
    },
    {
      "midi": 52,
      "hit": false,
      "t": 104999.94749999978,
      "d": 163.52626627603604,
      "v": 71
    },
    {
      "midi": 40,
      "hit": false,
      "t": 105294.06499999977,
      "d": 238.54920670573483,
      "v": 68
    },
    {
      "midi": 52,
      "hit": false,
      "t": 105294.06499999977,
      "d": 239.4683238932339,
      "v": 77
    },
    {
      "midi": 67,
      "hit": false,
      "t": 105588.18249999978,
      "d": 170.30475553385622,
      "v": 79
    },
    {
      "midi": 79,
      "hit": false,
      "t": 105588.18249999978,
      "d": 176.70027929687058,
      "v": 75
    },
    {
      "midi": 40,
      "hit": false,
      "t": 105735.24124999977,
      "d": 30.254274088540114,
      "v": 62
    },
    {
      "midi": 52,
      "hit": false,
      "t": 105735.24124999977,
      "d": 44.806962890623254,
      "v": 73
    },
    {
      "midi": 41,
      "hit": false,
      "t": 105882.29999999977,
      "d": 61.465961914058425,
      "v": 71
    },
    {
      "midi": 53,
      "hit": false,
      "t": 105882.29999999977,
      "d": 70.88691308593843,
      "v": 82
    },
    {
      "midi": 69,
      "hit": false,
      "t": 105882.29999999977,
      "d": 210.01827734374092,
      "v": 81
    },
    {
      "midi": 81,
      "hit": false,
      "t": 105882.29999999977,
      "d": 217.71588378906017,
      "v": 79
    },
    {
      "midi": 41,
      "hit": false,
      "t": 106029.35874999977,
      "d": 42.24109407552169,
      "v": 58
    },
    {
      "midi": 53,
      "hit": false,
      "t": 106029.35874999977,
      "d": 79.4270436197985,
      "v": 62
    },
    {
      "midi": 53,
      "hit": false,
      "t": 106176.41749999978,
      "d": 147.3268258463504,
      "v": 70
    },
    {
      "midi": 41,
      "hit": false,
      "t": 106176.41749999978,
      "d": 152.76493587238656,
      "v": 60
    },
    {
      "midi": 83,
      "hit": false,
      "t": 106323.47624999977,
      "d": 143.84183984374977,
      "v": 79
    },
    {
      "midi": 71,
      "hit": false,
      "t": 106323.47624999977,
      "d": 157.89667350260424,
      "v": 78
    },
    {
      "midi": 53,
      "hit": false,
      "t": 106470.53499999977,
      "d": 268.0375498046924,
      "v": 77
    },
    {
      "midi": 41,
      "hit": false,
      "t": 106470.53499999977,
      "d": 335.51606998698844,
      "v": 65
    },
    {
      "midi": 76,
      "hit": false,
      "t": 106764.65249999978,
      "d": 698.6822486979218,
      "v": 77
    },
    {
      "midi": 64,
      "hit": false,
      "t": 106764.65249999978,
      "d": 708.6010550130304,
      "v": 77
    },
    {
      "midi": 40,
      "hit": false,
      "t": 106911.71124999977,
      "d": 94.78395996094332,
      "v": 72
    },
    {
      "midi": 52,
      "hit": false,
      "t": 106911.71124999977,
      "d": 122.54895833334012,
      "v": 78
    },
    {
      "midi": 40,
      "hit": false,
      "t": 107205.82874999978,
      "d": 33.31799804687034,
      "v": 61
    },
    {
      "midi": 52,
      "hit": false,
      "t": 107205.82874999978,
      "d": 41.85812858073041,
      "v": 66
    },
    {
      "midi": 40,
      "hit": false,
      "t": 107352.88749999978,
      "d": 149.81610156250827,
      "v": 55
    },
    {
      "midi": 52,
      "hit": false,
      "t": 107352.88749999978,
      "d": 158.81579069011786,
      "v": 70
    },
    {
      "midi": 64,
      "hit": false,
      "t": 107647.00499999979,
      "d": 111.40466243489936,
      "v": 79
    },
    {
      "midi": 76,
      "hit": false,
      "t": 107647.00499999979,
      "d": 127.64239941406413,
      "v": 73
    },
    {
      "midi": 52,
      "hit": false,
      "t": 107647.00499999979,
      "d": 277.9563561197865,
      "v": 66
    },
    {
      "midi": 40,
      "hit": false,
      "t": 107647.00499999979,
      "d": 285.5390729166684,
      "v": 66
    },
    {
      "midi": 67,
      "hit": false,
      "t": 107941.1224999998,
      "d": 90.45644986978732,
      "v": 77
    },
    {
      "midi": 79,
      "hit": false,
      "t": 107941.1224999998,
      "d": 128.06366145833454,
      "v": 73
    },
    {
      "midi": 52,
      "hit": false,
      "t": 108088.18124999979,
      "d": 40.55604589844006,
      "v": 67
    },
    {
      "midi": 40,
      "hit": false,
      "t": 108088.18124999979,
      "d": 53.38538997396245,
      "v": 64
    },
    {
      "midi": 50,
      "hit": false,
      "t": 108235.2399999998,
      "d": 69.54653385416896,
      "v": 83
    },
    {
      "midi": 38,
      "hit": false,
      "t": 108235.2399999998,
      "d": 79.77171256511065,
      "v": 73
    },
    {
      "midi": 86,
      "hit": false,
      "t": 108235.2399999998,
      "d": 207.83537402344518,
      "v": 77
    },
    {
      "midi": 74,
      "hit": false,
      "t": 108235.2399999998,
      "d": 238.16624121094355,
      "v": 77
    },
    {
      "midi": 38,
      "hit": false,
      "t": 108382.29874999981,
      "d": 30.637239583331393,
      "v": 57
    },
    {
      "midi": 50,
      "hit": false,
      "t": 108382.29874999981,
      "d": 78.50792643228488,
      "v": 63
    },
    {
      "midi": 50,
      "hit": false,
      "t": 108529.35749999981,
      "d": 145.98644661458093,
      "v": 73
    },
    {
      "midi": 38,
      "hit": false,
      "t": 108529.35749999981,
      "d": 148.4374257812451,
      "v": 61
    },
    {
      "midi": 71,
      "hit": false,
      "t": 108676.4162499998,
      "d": 122.93192382811685,
      "v": 83
    },
    {
      "midi": 83,
      "hit": false,
      "t": 108676.4162499998,
      "d": 131.08908886718564,
      "v": 82
    },
    {
      "midi": 38,
      "hit": false,
      "t": 108823.4749999998,
      "d": 220.16686295572435,
      "v": 65
    },
    {
      "midi": 50,
      "hit": false,
      "t": 108823.4749999998,
      "d": 237.3237171223882,
      "v": 78
    },
    {
      "midi": 67,
      "hit": false,
      "t": 109117.5924999998,
      "d": 583.9074899088591,
      "v": 78
    },
    {
      "midi": 79,
      "hit": false,
      "t": 109117.5924999998,
      "d": 596.6985374349024,
      "v": 83
    },
    {
      "midi": 40,
      "hit": false,
      "t": 109264.65124999979,
      "d": 51.240783203131286,
      "v": 66
    },
    {
      "midi": 52,
      "hit": false,
      "t": 109264.65124999979,
      "d": 79.81000911458977,
      "v": 78
    },
    {
      "midi": 40,
      "hit": false,
      "t": 109558.7687499998,
      "d": 38.83270117187931,
      "v": 63
    },
    {
      "midi": 52,
      "hit": false,
      "t": 109558.7687499998,
      "d": 60.202175781247206,
      "v": 72
    },
    {
      "midi": 40,
      "hit": false,
      "t": 109705.8274999998,
      "d": 181.83201692708826,
      "v": 53
    },
    {
      "midi": 52,
      "hit": false,
      "t": 109705.8274999998,
      "d": 193.3592783203203,
      "v": 67
    },
    {
      "midi": 76,
      "hit": false,
      "t": 109999.9449999998,
      "d": 99.41784244791779,
      "v": 67
    },
    {
      "midi": 64,
      "hit": false,
      "t": 109999.9449999998,
      "d": 118.29804134114238,
      "v": 78
    },
    {
      "midi": 40,
      "hit": false,
      "t": 109999.9449999998,
      "d": 305.2617958984338,
      "v": 55
    },
    {
      "midi": 52,
      "hit": false,
      "t": 109999.9449999998,
      "d": 317.1720227864571,
      "v": 66
    },
    {
      "midi": 60,
      "hit": false,
      "t": 110294.0624999998,
      "d": 149.35654296875873,
      "v": 73
    },
    {
      "midi": 72,
      "hit": false,
      "t": 110294.0624999998,
      "d": 176.73857584636426,
      "v": 71
    },
    {
      "midi": 53,
      "hit": false,
      "t": 110441.12124999981,
      "d": 29.488343098957557,
      "v": 77
    },
    {
      "midi": 41,
      "hit": false,
      "t": 110441.12124999981,
      "d": 34.58178417968156,
      "v": 46
    },
    {
      "midi": 41,
      "hit": false,
      "t": 110588.1799999998,
      "d": 59.7809137369768,
      "v": 60
    },
    {
      "midi": 53,
      "hit": false,
      "t": 110588.1799999998,
      "d": 72.99322330729046,
      "v": 61
    },
    {
      "midi": 62,
      "hit": false,
      "t": 110588.1799999998,
      "d": 147.25023274739215,
      "v": 79
    },
    {
      "midi": 74,
      "hit": false,
      "t": 110588.1799999998,
      "d": 165.21131445311767,
      "v": 79
    },
    {
      "midi": 53,
      "hit": false,
      "t": 110735.2387499998,
      "d": 224.95393164061534,
      "v": 65
    },
    {
      "midi": 41,
      "hit": false,
      "t": 110735.2387499998,
      "d": 232.6515380859346,
      "v": 60
    },
    {
      "midi": 64,
      "hit": false,
      "t": 111029.3562499998,
      "d": 119.60012402343273,
      "v": 74
    },
    {
      "midi": 76,
      "hit": false,
      "t": 111029.3562499998,
      "d": 151.11818424478406,
      "v": 71
    },
    {
      "midi": 53,
      "hit": false,
      "t": 111176.41499999979,
      "d": 177.08324479166185,
      "v": 77
    },
    {
      "midi": 41,
      "hit": false,
      "t": 111176.41499999979,
      "d": 185.66167187500105,
      "v": 65
    },
    {
      "midi": 81,
      "hit": false,
      "t": 111470.5324999998,
      "d": 342.3711523437523,
      "v": 69
    },
    {
      "midi": 69,
      "hit": false,
      "t": 111470.5324999998,
      "d": 355.96642740885727,
      "v": 69
    },
    {
      "midi": 45,
      "hit": false,
      "t": 111617.5912499998,
      "d": 272.7480253906251,
      "v": 73
    },
    {
      "midi": 57,
      "hit": false,
      "t": 111617.5912499998,
      "d": 300.0534651692724,
      "v": 83
    }
  ]
}