{
  "jsonPath": "Pop/Classic Uk Pop/Goombay Dance Band/christmas-at-sea.json",
  "path": "Pop\\Classic Uk Pop\\Goombay Dance Band\\Christmas At Sea.mid",
  "name": "Christmas At Sea",
  "difficulty": "Advanced",
  "bpm": 122.00081333875559,
  "notes": [
    {
      "midi": 52,
      "hit": false,
      "t": 2285.6800000000003,
      "d": 1139.863854166667,
      "v": 1
    },
    {
      "midi": 64,
      "hit": false,
      "t": 2285.6800000000003,
      "d": 1139.863854166667,
      "v": 1
    },
    {
      "midi": 53,
      "hit": false,
      "t": 3428.5200000000004,
      "d": 568.4438541666668,
      "v": 1
    },
    {
      "midi": 65,
      "hit": false,
      "t": 3428.5200000000004,
      "d": 568.4438541666668,
      "v": 1
    },
    {
      "midi": 52,
      "hit": false,
      "t": 3999.9400000000005,
      "d": 568.4438541666668,
      "v": 1
    },
    {
      "midi": 64,
      "hit": false,
      "t": 3999.9400000000005,
      "d": 568.4438541666668,
      "v": 1
    },
    {
      "midi": 48,
      "hit": false,
      "t": 4571.360000000001,
      "d": 2282.703854166667,
      "v": 1
    },
    {
      "midi": 60,
      "hit": false,
      "t": 4571.360000000001,
      "d": 2282.703854166667,
      "v": 1
    },
    {
      "midi": 52,
      "hit": false,
      "t": 6857.040000000001,
      "d": 854.1538541666669,
      "v": 1
    },
    {
      "midi": 64,
      "hit": false,
      "t": 6857.040000000001,
      "d": 854.1538541666669,
      "v": 1
    },
    {
      "midi": 50,
      "hit": false,
      "t": 7714.170000000001,
      "d": 854.153854166666,
      "v": 1
    },
    {
      "midi": 62,
      "hit": false,
      "t": 7714.170000000001,
      "d": 854.153854166666,
      "v": 1
    },
    {
      "midi": 48,
      "hit": false,
      "t": 8571.300000000001,
      "d": 568.4438541666659,
      "v": 1
    },
    {
      "midi": 60,
      "hit": false,
      "t": 8571.300000000001,
      "d": 568.4438541666659,
      "v": 1
    },
    {
      "midi": 47,
      "hit": false,
      "t": 9142.720000000001,
      "d": 2282.703854166666,
      "v": 1
    },
    {
      "midi": 59,
      "hit": false,
      "t": 9142.720000000001,
      "d": 2282.703854166666,
      "v": 1
    },
    {
      "midi": 50,
      "hit": false,
      "t": 11428.400000000001,
      "d": 854.1538541666669,
      "v": 1
    },
    {
      "midi": 62,
      "hit": false,
      "t": 11428.400000000001,
      "d": 854.1538541666669,
      "v": 1
    },
    {
      "midi": 48,
      "hit": false,
      "t": 12285.530000000002,
      "d": 854.1538541666669,
      "v": 1
    },
    {
      "midi": 60,
      "hit": false,
      "t": 12285.530000000002,
      "d": 854.1538541666669,
      "v": 1
    },
    {
      "midi": 47,
      "hit": false,
      "t": 13142.660000000003,
      "d": 568.4438541666659,
      "v": 1
    },
    {
      "midi": 59,
      "hit": false,
      "t": 13142.660000000003,
      "d": 568.4438541666659,
      "v": 1
    },
    {
      "midi": 48,
      "hit": false,
      "t": 13714.080000000004,
      "d": 854.1538541666669,
      "v": 1
    },
    {
      "midi": 60,
      "hit": false,
      "t": 13714.080000000004,
      "d": 2258.894687500002,
      "v": 1
    },
    {
      "midi": 57,
      "hit": false,
      "t": 14571.210000000005,
      "d": 854.1538541666669,
      "v": 1
    },
    {
      "midi": 53,
      "hit": false,
      "t": 15428.340000000006,
      "d": 568.4438541666659,
      "v": 1
    },
    {
      "midi": 55,
      "hit": false,
      "t": 15999.760000000006,
      "d": 1711.2838541666679,
      "v": 1
    },
    {
      "midi": 64,
      "hit": false,
      "t": 15999.760000000006,
      "d": 1711.2838541666679,
      "v": 1
    },
    {
      "midi": 57,
      "hit": false,
      "t": 17714.020000000008,
      "d": 568.4438541666677,
      "v": 1
    },
    {
      "midi": 65,
      "hit": false,
      "t": 17714.020000000008,
      "d": 568.4438541666677,
      "v": 1
    },
    {
      "midi": 59,
      "hit": false,
      "t": 18285.44000000001,
      "d": 2282.703854166666,
      "v": 1
    },
    {
      "midi": 62,
      "hit": false,
      "t": 18285.44000000001,
      "d": 2282.703854166666,
      "v": 1
    },
    {
      "midi": 64,
      "hit": false,
      "t": 20571.12000000001,
      "d": 854.1538541666669,
      "v": 1
    },
    {
      "midi": 72,
      "hit": false,
      "t": 20571.12000000001,
      "d": 854.1538541666669,
      "v": 1
    },
    {
      "midi": 65,
      "hit": false,
      "t": 21428.25000000001,
      "d": 854.1538541666669,
      "v": 1
    },
    {
      "midi": 69,
      "hit": false,
      "t": 21428.25000000001,
      "d": 854.1538541666669,
      "v": 1
    },
    {
      "midi": 64,
      "hit": false,
      "t": 22285.380000000012,
      "d": 568.4438541666677,
      "v": 1
    },
    {
      "midi": 67,
      "hit": false,
      "t": 22285.380000000012,
      "d": 568.4438541666677,
      "v": 1
    },
    {
      "midi": 64,
      "hit": false,
      "t": 22856.800000000014,
      "d": 3139.833854166667,
      "v": 1
    },
    {
      "midi": 72,
      "hit": false,
      "t": 22856.800000000014,
      "d": 3139.833854166667,
      "v": 1
    },
    {
      "midi": 62,
      "hit": false,
      "t": 25999.610000000015,
      "d": 854.1538541666669,
      "v": 1
    },
    {
      "midi": 69,
      "hit": false,
      "t": 25999.610000000015,
      "d": 854.1538541666669,
      "v": 1
    },
    {
      "midi": 60,
      "hit": false,
      "t": 26856.740000000016,
      "d": 568.4438541666677,
      "v": 1
    },
    {
      "midi": 67,
      "hit": false,
      "t": 26856.740000000016,
      "d": 568.4438541666677,
      "v": 1
    },
    {
      "midi": 59,
      "hit": false,
      "t": 27428.160000000018,
      "d": 2282.703854166666,
      "v": 1
    },
    {
      "midi": 67,
      "hit": false,
      "t": 27428.160000000018,
      "d": 2282.703854166666,
      "v": 1
    },
    {
      "midi": 62,
      "hit": false,
      "t": 29713.84000000002,
      "d": 854.1538541666669,
      "v": 1
    },
    {
      "midi": 67,
      "hit": false,
      "t": 29713.84000000002,
      "d": 854.1538541666669,
      "v": 1
    },
    {
      "midi": 60,
      "hit": false,
      "t": 30570.97000000002,
      "d": 854.1538541666669,
      "v": 1
    },
    {
      "midi": 64,
      "hit": false,
      "t": 30570.97000000002,
      "d": 854.1538541666669,
      "v": 1
    },
    {
      "midi": 59,
      "hit": false,
      "t": 31428.10000000002,
      "d": 568.4438541666677,
      "v": 1
    },
    {
      "midi": 62,
      "hit": false,
      "t": 31428.10000000002,
      "d": 568.4438541666677,
      "v": 1
    },
    {
      "midi": 60,
      "hit": false,
      "t": 31999.520000000022,
      "d": 854.1538541666632,
      "v": 1
    },
    {
      "midi": 69,
      "hit": false,
      "t": 31999.520000000022,
      "d": 854.1538541666632,
      "v": 1
    },
    {
      "midi": 57,
      "hit": false,
      "t": 32856.650000000016,
      "d": 854.1538541666669,
      "v": 1
    },
    {
      "midi": 69,
      "hit": false,
      "t": 32856.650000000016,
      "d": 854.1538541666669,
      "v": 1
    },
    {
      "midi": 53,
      "hit": false,
      "t": 33713.78000000001,
      "d": 568.4438541666677,
      "v": 1
    },
    {
      "midi": 65,
      "hit": false,
      "t": 33713.78000000001,
      "d": 568.4438541666677,
      "v": 1
    },
    {
      "midi": 55,
      "hit": false,
      "t": 34285.20000000001,
      "d": 1711.2838541666642,
      "v": 1
    },
    {
      "midi": 64,
      "hit": false,
      "t": 34285.20000000001,
      "d": 1711.2838541666642,
      "v": 1
    },
    {
      "midi": 57,
      "hit": false,
      "t": 35999.46000000001,
      "d": 568.4438541666677,
      "v": 1
    },
    {
      "midi": 65,
      "hit": false,
      "t": 35999.46000000001,
      "d": 568.4438541666677,
      "v": 1
    },
    {
      "midi": 55,
      "hit": false,
      "t": 36570.880000000005,
      "d": 2282.7038541666698,
      "v": 1
    },
    {
      "midi": 62,
      "hit": false,
      "t": 36570.880000000005,
      "d": 2282.7038541666698,
      "v": 1
    },
    {
      "midi": 64,
      "hit": false,
      "t": 38856.560000000005,
      "d": 854.1538541666669,
      "v": 1
    },
    {
      "midi": 67,
      "hit": false,
      "t": 38856.560000000005,
      "d": 854.1538541666669,
      "v": 1
    },
    {
      "midi": 72,
      "hit": false,
      "t": 38856.560000000005,
      "d": 854.1538541666669,
      "v": 1
    },
    {
      "midi": 65,
      "hit": false,
      "t": 39713.69,
      "d": 854.1538541666669,
      "v": 1
    },
    {
      "midi": 69,
      "hit": false,
      "t": 39713.69,
      "d": 854.1538541666669,
      "v": 1
    },
    {
      "midi": 72,
      "hit": false,
      "t": 39713.69,
      "d": 854.1538541666669,
      "v": 1
    },
    {
      "midi": 64,
      "hit": false,
      "t": 40570.82,
      "d": 3711.2538541666654,
      "v": 1
    },
    {
      "midi": 67,
      "hit": false,
      "t": 40570.82,
      "d": 3711.2538541666654,
      "v": 1
    },
    {
      "midi": 72,
      "hit": false,
      "t": 40570.82,
      "d": 3711.2538541666654,
      "v": 1
    },
    {
      "midi": 62,
      "hit": false,
      "t": 44285.049999999996,
      "d": 854.1538541666669,
      "v": 1
    },
    {
      "midi": 65,
      "hit": false,
      "t": 44285.049999999996,
      "d": 854.1538541666669,
      "v": 1
    },
    {
      "midi": 69,
      "hit": false,
      "t": 44285.049999999996,
      "d": 854.1538541666669,
      "v": 1
    },
    {
      "midi": 60,
      "hit": false,
      "t": 45142.17999999999,
      "d": 568.4438541666677,
      "v": 1
    },
    {
      "midi": 64,
      "hit": false,
      "t": 45142.17999999999,
      "d": 568.4438541666677,
      "v": 1
    },
    {
      "midi": 67,
      "hit": false,
      "t": 45142.17999999999,
      "d": 568.4438541666677,
      "v": 1
    },
    {
      "midi": 59,
      "hit": false,
      "t": 45713.59999999999,
      "d": 2282.7038541666698,
      "v": 1
    },
    {
      "midi": 62,
      "hit": false,
      "t": 45713.59999999999,
      "d": 2282.7038541666698,
      "v": 1
    },
    {
      "midi": 67,
      "hit": false,
      "t": 45713.59999999999,
      "d": 2282.7038541666698,
      "v": 1
    },
    {
      "midi": 62,
      "hit": false,
      "t": 47999.27999999999,
      "d": 854.1538541666669,
      "v": 1
    },
    {
      "midi": 65,
      "hit": false,
      "t": 47999.27999999999,
      "d": 854.1538541666669,
      "v": 1
    },
    {
      "midi": 60,
      "hit": false,
      "t": 48856.40999999999,
      "d": 854.1538541666669,
      "v": 1
    },
    {
      "midi": 65,
      "hit": false,
      "t": 48856.40999999999,
      "d": 854.1538541666669,
      "v": 1
    },
    {
      "midi": 58,
      "hit": false,
      "t": 49713.539999999986,
      "d": 568.4438541666677,
      "v": 1
    },
    {
      "midi": 65,
      "hit": false,
      "t": 49713.539999999986,
      "d": 568.4438541666677,
      "v": 1
    },
    {
      "midi": 60,
      "hit": false,
      "t": 50284.959999999985,
      "d": 854.1538541666669,
      "v": 1
    },
    {
      "midi": 65,
      "hit": false,
      "t": 50284.959999999985,
      "d": 854.1538541666669,
      "v": 1
    },
    {
      "midi": 57,
      "hit": false,
      "t": 51142.08999999998,
      "d": 854.1538541666669,
      "v": 1
    },
    {
      "midi": 65,
      "hit": false,
      "t": 51142.08999999998,
      "d": 854.1538541666669,
      "v": 1
    },
    {
      "midi": 53,
      "hit": false,
      "t": 51999.21999999998,
      "d": 568.4438541666677,
      "v": 1
    },
    {
      "midi": 65,
      "hit": false,
      "t": 51999.21999999998,
      "d": 568.4438541666677,
      "v": 1
    },
    {
      "midi": 55,
      "hit": false,
      "t": 52570.63999999998,
      "d": 2282.7038541666698,
      "v": 1
    },
    {
      "midi": 64,
      "hit": false,
      "t": 52570.63999999998,
      "d": 2282.7038541666698,
      "v": 1
    },
    {
      "midi": 64,
      "hit": false,
      "t": 53728.36072916667,
      "d": 559.5154166666689,
      "v": 92
    },
    {
      "midi": 65,
      "hit": false,
      "t": 54299.780729166676,
      "d": 559.5154166666616,
      "v": 92
    },
    {
      "midi": 64,
      "hit": false,
      "t": 54856.32000000001,
      "d": 732.1318749999991,
      "v": 87
    },
    {
      "midi": 64,
      "hit": false,
      "t": 58299.72072916667,
      "d": 559.5154166666689,
      "v": 89
    },
    {
      "midi": 65,
      "hit": false,
      "t": 58871.14072916668,
      "d": 559.5154166666616,
      "v": 92
    },
    {
      "midi": 64,
      "hit": false,
      "t": 59427.68000000001,
      "d": 732.1318749999991,
      "v": 87
    },
    {
      "midi": 55,
      "hit": false,
      "t": 61713.36000000001,
      "d": 2208.300208333334,
      "v": 104
    },
    {
      "midi": 64,
      "hit": false,
      "t": 61716.33614583334,
      "d": 2208.300208333334,
      "v": 103
    },
    {
      "midi": 65,
      "hit": false,
      "t": 63996.06385416667,
      "d": 2258.8946874999965,
      "v": 95
    },
    {
      "midi": 57,
      "hit": false,
      "t": 63999.04,
      "d": 2258.894687500004,
      "v": 95
    },
    {
      "midi": 55,
      "hit": false,
      "t": 66287.69614583334,
      "d": 1648.7847916666651,
      "v": 94
    },
    {
      "midi": 64,
      "hit": false,
      "t": 66287.69614583334,
      "d": 1648.7847916666651,
      "v": 95
    },
    {
      "midi": 62,
      "hit": false,
      "t": 67996.00385416667,
      "d": 544.6346875000017,
      "v": 90
    },
    {
      "midi": 55,
      "hit": false,
      "t": 68001.95614583333,
      "d": 544.6346875000017,
      "v": 93
    },
    {
      "midi": 55,
      "hit": false,
      "t": 68567.42385416667,
      "d": 1958.3039583333302,
      "v": 95
    },
    {
      "midi": 64,
      "hit": false,
      "t": 68573.37614583333,
      "d": 1958.3039583333302,
      "v": 92
    },
    {
      "midi": 55,
      "hit": false,
      "t": 70567.39385416666,
      "d": 258.92468749999534,
      "v": 85
    },
    {
      "midi": 62,
      "hit": false,
      "t": 70567.39385416666,
      "d": 258.92468749999534,
      "v": 81
    },
    {
      "midi": 55,
      "hit": false,
      "t": 70853.10385416665,
      "d": 2181.514895833345,
      "v": 88
    },
    {
      "midi": 64,
      "hit": false,
      "t": 70856.07999999999,
      "d": 2181.514895833345,
      "v": 91
    },
    {
      "midi": 57,
      "hit": false,
      "t": 73138.78385416667,
      "d": 2258.8946874999965,
      "v": 89
    },
    {
      "midi": 65,
      "hit": false,
      "t": 73138.78385416667,
      "d": 2258.8946874999965,
      "v": 85
    },
    {
      "midi": 55,
      "hit": false,
      "t": 75424.46385416666,
      "d": 3392.806249999994,
      "v": 91
    },
    {
      "midi": 62,
      "hit": false,
      "t": 75424.46385416666,
      "d": 3392.806249999994,
      "v": 89
    },
    {
      "midi": 59,
      "hit": false,
      "t": 78867.86458333333,
      "d": 285.7100000000064,
      "v": 96
    },
    {
      "midi": 62,
      "hit": false,
      "t": 78867.86458333333,
      "d": 285.7100000000064,
      "v": 107
    },
    {
      "midi": 60,
      "hit": false,
      "t": 79129.76541666666,
      "d": 300.5907291666663,
      "v": 82
    },
    {
      "midi": 64,
      "hit": false,
      "t": 79129.76541666666,
      "d": 300.5907291666663,
      "v": 90
    },
    {
      "midi": 62,
      "hit": false,
      "t": 79433.33229166667,
      "d": 300.5907291666663,
      "v": 92
    },
    {
      "midi": 65,
      "hit": false,
      "t": 79433.33229166667,
      "d": 300.5907291666663,
      "v": 96
    },
    {
      "midi": 64,
      "hit": false,
      "t": 79710.11385416666,
      "d": 303.5668750000041,
      "v": 86
    },
    {
      "midi": 67,
      "hit": false,
      "t": 79710.11385416666,
      "d": 303.5668750000041,
      "v": 92
    },
    {
      "midi": 62,
      "hit": false,
      "t": 80007.7284375,
      "d": 2229.133229166662,
      "v": 87
    },
    {
      "midi": 65,
      "hit": false,
      "t": 80007.7284375,
      "d": 2232.109375,
      "v": 86
    },
    {
      "midi": 62,
      "hit": false,
      "t": 82293.4084375,
      "d": 2229.133229166662,
      "v": 85
    },
    {
      "midi": 65,
      "hit": false,
      "t": 82293.4084375,
      "d": 2232.109375,
      "v": 92
    },
    {
      "midi": 59,
      "hit": false,
      "t": 84579.08843749999,
      "d": 4514.81322916667,
      "v": 91
    },
    {
      "midi": 62,
      "hit": false,
      "t": 84579.08843749999,
      "d": 4517.789375000008,
      "v": 89
    },
    {
      "midi": 57,
      "hit": false,
      "t": 89150.44843749999,
      "d": 2229.133229166662,
      "v": 84
    },
    {
      "midi": 60,
      "hit": false,
      "t": 89150.44843749999,
      "d": 2232.109375,
      "v": 88
    },
    {
      "midi": 62,
      "hit": false,
      "t": 91436.12843749998,
      "d": 773.7979166666628,
      "v": 98
    },
    {
      "midi": 59,
      "hit": false,
      "t": 91436.12843749998,
      "d": 2229.1332291666477,
      "v": 84
    },
    {
      "midi": 64,
      "hit": false,
      "t": 92284.32999999997,
      "d": 812.4878124999959,
      "v": 94
    },
    {
      "midi": 62,
      "hit": false,
      "t": 93141.45999999996,
      "d": 559.5154166666616,
      "v": 91
    },
    {
      "midi": 60,
      "hit": false,
      "t": 93721.80843749996,
      "d": 2229.133229166662,
      "v": 90
    },
    {
      "midi": 64,
      "hit": false,
      "t": 93721.80843749996,
      "d": 2232.109375,
      "v": 86
    },
    {
      "midi": 55,
      "hit": false,
      "t": 98284.23999999996,
      "d": 2208.3002083333413,
      "v": 103
    },
    {
      "midi": 52,
      "hit": false,
      "t": 98284.23999999999,
      "d": 854.1538541666669,
      "v": 1
    },
    {
      "midi": 67,
      "hit": false,
      "t": 98284.23999999999,
      "d": 854.1538541666669,
      "v": 1
    },
    {
      "midi": 64,
      "hit": false,
      "t": 98287.2161458333,
      "d": 2208.3002083333413,
      "v": 100
    },
    {
      "midi": 48,
      "hit": false,
      "t": 99141.37,
      "d": 854.1538541666669,
      "v": 1
    },
    {
      "midi": 64,
      "hit": false,
      "t": 99141.37,
      "d": 854.1538541666669,
      "v": 1
    },
    {
      "midi": 52,
      "hit": false,
      "t": 99998.5,
      "d": 568.4438541666605,
      "v": 1
    },
    {
      "midi": 67,
      "hit": false,
      "t": 99998.5,
      "d": 568.4438541666605,
      "v": 1
    },
    {
      "midi": 65,
      "hit": false,
      "t": 100566.94385416665,
      "d": 2258.894687500011,
      "v": 94
    },
    {
      "midi": 57,
      "hit": false,
      "t": 100569.91999999998,
      "d": 2258.894687500011,
      "v": 92
    },
    {
      "midi": 57,
      "hit": false,
      "t": 100569.92,
      "d": 854.1538541666669,
      "v": 1
    },
    {
      "midi": 72,
      "hit": false,
      "t": 100569.92,
      "d": 854.1538541666669,
      "v": 1
    },
    {
      "midi": 55,
      "hit": false,
      "t": 101427.05,
      "d": 854.1538541666669,
      "v": 1
    },
    {
      "midi": 71,
      "hit": false,
      "t": 101427.05,
      "d": 854.1538541666669,
      "v": 1
    },
    {
      "midi": 53,
      "hit": false,
      "t": 102284.18000000001,
      "d": 568.4438541666605,
      "v": 1
    },
    {
      "midi": 69,
      "hit": false,
      "t": 102284.18000000001,
      "d": 568.4438541666605,
      "v": 1
    },
    {
      "midi": 52,
      "hit": false,
      "t": 102855.6,
      "d": 854.1538541666669,
      "v": 1
    },
    {
      "midi": 67,
      "hit": false,
      "t": 102855.6,
      "d": 854.1538541666669,
      "v": 1
    },
    {
      "midi": 55,
      "hit": false,
      "t": 102858.57614583333,
      "d": 1648.7847916666651,
      "v": 94
    },
    {
      "midi": 64,
      "hit": false,
      "t": 102858.57614583333,
      "d": 1648.7847916666651,
      "v": 92
    },
    {
      "midi": 48,
      "hit": false,
      "t": 103712.73000000001,
      "d": 3711.2538541666727,
      "v": 1
    },
    {
      "midi": 64,
      "hit": false,
      "t": 103712.73000000001,
      "d": 3711.2538541666727,
      "v": 1
    },
    {
      "midi": 62,
      "hit": false,
      "t": 104566.88385416666,
      "d": 544.6346874999872,
      "v": 90
    },
    {
      "midi": 55,
      "hit": false,
      "t": 104572.83614583332,
      "d": 544.6346874999872,
      "v": 85
    },
    {
      "midi": 55,
      "hit": false,
      "t": 105138.30385416665,
      "d": 1958.3039583333302,
      "v": 93
    },
    {
      "midi": 64,
      "hit": false,
      "t": 105144.25614583331,
      "d": 1958.3039583333302,
      "v": 88
    },
    {
      "midi": 55,
      "hit": false,
      "t": 107138.27385416663,
      "d": 258.92468749999534,
      "v": 77
    },
    {
      "midi": 62,
      "hit": false,
      "t": 107138.27385416663,
      "d": 258.92468749999534,
      "v": 83
    },
    {
      "midi": 55,
      "hit": false,
      "t": 107423.98385416662,
      "d": 2181.514895833345,
      "v": 89
    },
    {
      "midi": 64,
      "hit": false,
      "t": 107426.95999999996,
      "d": 2181.514895833345,
      "v": 85
    },
    {
      "midi": 52,
      "hit": false,
      "t": 107426.96000000002,
      "d": 854.1538541666669,
      "v": 1
    },
    {
      "midi": 67,
      "hit": false,
      "t": 107426.96000000002,
      "d": 854.1538541666669,
      "v": 1
    },
    {
      "midi": 48,
      "hit": false,
      "t": 108284.09000000003,
      "d": 854.1538541666669,
      "v": 1
    },
    {
      "midi": 64,
      "hit": false,
      "t": 108284.09000000003,
      "d": 854.1538541666669,
      "v": 1
    },
    {
      "midi": 52,
      "hit": false,
      "t": 109141.22000000003,
      "d": 568.4438541666605,
      "v": 1
    },
    {
      "midi": 67,
      "hit": false,
      "t": 109141.22000000003,
      "d": 568.4438541666605,
      "v": 1
    },
    {
      "midi": 57,
      "hit": false,
      "t": 109709.66385416665,
      "d": 2258.8946874999965,
      "v": 94
    },
    {
      "midi": 65,
      "hit": false,
      "t": 109709.66385416665,
      "d": 2258.8946874999965,
      "v": 91
    },
    {
      "midi": 57,
      "hit": false,
      "t": 109712.64000000003,
      "d": 854.1538541666669,
      "v": 1
    },
    {
      "midi": 72,
      "hit": false,
      "t": 109712.64000000003,
      "d": 854.1538541666669,
      "v": 1
    },
    {
      "midi": 55,
      "hit": false,
      "t": 110569.77000000003,
      "d": 854.1538541666669,
      "v": 1
    },
    {
      "midi": 71,
      "hit": false,
      "t": 110569.77000000003,
      "d": 854.1538541666669,
      "v": 1
    },
    {
      "midi": 53,
      "hit": false,
      "t": 111426.90000000004,
      "d": 568.4438541666605,
      "v": 1
    },
    {
      "midi": 69,
      "hit": false,
      "t": 111426.90000000004,
      "d": 568.4438541666605,
      "v": 1
    },
    {
      "midi": 55,
      "hit": false,
      "t": 111995.34385416664,
      "d": 3392.806249999994,
      "v": 83
    },
    {
      "midi": 62,
      "hit": false,
      "t": 111995.34385416664,
      "d": 3392.806249999994,
      "v": 90
    },
    {
      "midi": 50,
      "hit": false,
      "t": 111998.32000000004,
      "d": 4568.383854166663,
      "v": 1
    },
    {
      "midi": 67,
      "hit": false,
      "t": 111998.32000000004,
      "d": 4568.383854166663,
      "v": 1
    },
    {
      "midi": 59,
      "hit": false,
      "t": 115438.7445833333,
      "d": 285.7100000000064,
      "v": 87
    },
    {
      "midi": 62,
      "hit": false,
      "t": 115438.7445833333,
      "d": 285.7100000000064,
      "v": 101
    },
    {
      "midi": 60,
      "hit": false,
      "t": 115700.64541666664,
      "d": 300.5907291666663,
      "v": 83
    },
    {
      "midi": 64,
      "hit": false,
      "t": 115700.64541666664,
      "d": 300.5907291666663,
      "v": 99
    },
    {
      "midi": 62,
      "hit": false,
      "t": 116004.21229166664,
      "d": 300.5907291666663,
      "v": 91
    },
    {
      "midi": 65,
      "hit": false,
      "t": 116004.21229166664,
      "d": 300.5907291666663,
      "v": 103
    },
    {
      "midi": 64,
      "hit": false,
      "t": 116280.99385416663,
      "d": 303.5668750000041,
      "v": 81
    },
    {
      "midi": 67,
      "hit": false,
      "t": 116280.99385416663,
      "d": 303.5668750000041,
      "v": 96
    },
    {
      "midi": 53,
      "hit": false,
      "t": 116569.68000000004,
      "d": 854.1538541666669,
      "v": 1
    },
    {
      "midi": 69,
      "hit": false,
      "t": 116569.68000000004,
      "d": 854.1538541666669,
      "v": 1
    },
    {
      "midi": 62,
      "hit": false,
      "t": 116578.60843749998,
      "d": 2229.133229166662,
      "v": 85
    },
    {
      "midi": 65,
      "hit": false,
      "t": 116578.60843749998,
      "d": 2232.109375,
      "v": 90
    },
    {
      "midi": 50,
      "hit": false,
      "t": 117426.81000000004,
      "d": 854.1538541666669,
      "v": 1
    },
    {
      "midi": 65,
      "hit": false,
      "t": 117426.81000000004,
      "d": 854.1538541666669,
      "v": 1
    },
    {
      "midi": 53,
      "hit": false,
      "t": 118283.94000000005,
      "d": 568.4438541666605,
      "v": 1
    },
    {
      "midi": 69,
      "hit": false,
      "t": 118283.94000000005,
      "d": 568.4438541666605,
      "v": 1
    },
    {
      "midi": 59,
      "hit": false,
      "t": 118855.36000000004,
      "d": 854.1538541666669,
      "v": 1
    },
    {
      "midi": 74,
      "hit": false,
      "t": 118855.36000000004,
      "d": 854.1538541666669,
      "v": 1
    },
    {
      "midi": 62,
      "hit": false,
      "t": 118864.28843749997,
      "d": 2229.133229166662,
      "v": 92
    },
    {
      "midi": 65,
      "hit": false,
      "t": 118864.28843749997,
      "d": 2232.109375,
      "v": 92
    },
    {
      "midi": 57,
      "hit": false,
      "t": 119712.49000000005,
      "d": 854.1538541666669,
      "v": 1
    },
    {
      "midi": 72,
      "hit": false,
      "t": 119712.49000000005,
      "d": 854.1538541666669,
      "v": 1
    },
    {
      "midi": 53,
      "hit": false,
      "t": 120569.62000000005,
      "d": 568.4438541666605,
      "v": 1
    },
    {
      "midi": 69,
      "hit": false,
      "t": 120569.62000000005,
      "d": 568.4438541666605,
      "v": 1
    },
    {
      "midi": 57,
      "hit": false,
      "t": 121141.04000000005,
      "d": 854.1538541666669,
      "v": 1
    },
    {
      "midi": 72,
      "hit": false,
      "t": 121141.04000000005,
      "d": 854.1538541666669,
      "v": 1
    },
    {
      "midi": 59,
      "hit": false,
      "t": 121149.96843749996,
      "d": 4514.81322916667,
      "v": 90
    },
    {
      "midi": 62,
      "hit": false,
      "t": 121149.96843749996,
      "d": 4517.789375000008,
      "v": 84
    },
    {
      "midi": 55,
      "hit": false,
      "t": 121998.17000000006,
      "d": 3711.2538541666727,
      "v": 1
    },
    {
      "midi": 71,
      "hit": false,
      "t": 121998.17000000006,
      "d": 3711.2538541666727,
      "v": 1
    },
    {
      "midi": 54,
      "hit": false,
      "t": 125712.40000000007,
      "d": 2282.7038541666698,
      "v": 1
    },
    {
      "midi": 69,
      "hit": false,
      "t": 125712.40000000007,
      "d": 2282.7038541666698,
      "v": 1
    },
    {
      "midi": 57,
      "hit": false,
      "t": 125721.32843749996,
      "d": 2229.133229166662,
      "v": 90
    },
    {
      "midi": 62,
      "hit": false,
      "t": 125721.32843749996,
      "d": 2232.109375,
      "v": 93
    },
    {
      "midi": 53,
      "hit": false,
      "t": 127998.08000000007,
      "d": 854.1538541666669,
      "v": 1
    },
    {
      "midi": 69,
      "hit": false,
      "t": 127998.08000000007,
      "d": 854.1538541666669,
      "v": 1
    },
    {
      "midi": 60,
      "hit": false,
      "t": 128007.00843749996,
      "d": 773.7979166666628,
      "v": 99
    },
    {
      "midi": 57,
      "hit": false,
      "t": 128007.00843749996,
      "d": 2229.1332291666477,
      "v": 87
    },
    {
      "midi": 60,
      "hit": false,
      "t": 128855.20999999995,
      "d": 812.4878124999959,
      "v": 95
    },
    {
      "midi": 55,
      "hit": false,
      "t": 128855.21000000008,
      "d": 854.1538541666669,
      "v": 1
    },
    {
      "midi": 71,
      "hit": false,
      "t": 128855.21000000008,
      "d": 854.1538541666669,
      "v": 1
    },
    {
      "midi": 60,
      "hit": false,
      "t": 129712.33999999994,
      "d": 559.5154166666616,
      "v": 100
    },
    {
      "midi": 57,
      "hit": false,
      "t": 129712.34000000008,
      "d": 568.4438541666605,
      "v": 1
    },
    {
      "midi": 72,
      "hit": false,
      "t": 129712.34000000008,
      "d": 568.4438541666605,
      "v": 1
    },
    {
      "midi": 59,
      "hit": false,
      "t": 130283.76000000008,
      "d": 4568.383854166677,
      "v": 1
    },
    {
      "midi": 74,
      "hit": false,
      "t": 130283.76000000008,
      "d": 4568.383854166677,
      "v": 1
    },
    {
      "midi": 59,
      "hit": false,
      "t": 130292.68843749994,
      "d": 2229.133229166662,
      "v": 88
    },
    {
      "midi": 62,
      "hit": false,
      "t": 130292.68843749994,
      "d": 2232.1093749999854,
      "v": 88
    },
    {
      "midi": 64,
      "hit": false,
      "t": 134855.12000000008,
      "d": 854.1538541666523,
      "v": 1
    },
    {
      "midi": 72,
      "hit": false,
      "t": 134855.12000000008,
      "d": 854.1538541666523,
      "v": 1
    },
    {
      "midi": 65,
      "hit": false,
      "t": 135712.25000000006,
      "d": 854.1538541666523,
      "v": 1
    },
    {
      "midi": 69,
      "hit": false,
      "t": 135712.25000000006,
      "d": 854.1538541666523,
      "v": 1
    },
    {
      "midi": 64,
      "hit": false,
      "t": 136569.38000000003,
      "d": 568.4438541666605,
      "v": 1
    },
    {
      "midi": 67,
      "hit": false,
      "t": 136569.38000000003,
      "d": 568.4438541666605,
      "v": 1
    },
    {
      "midi": 64,
      "hit": false,
      "t": 137140.80000000002,
      "d": 3139.8338541666744,
      "v": 1
    },
    {
      "midi": 72,
      "hit": false,
      "t": 137140.80000000002,
      "d": 3139.8338541666744,
      "v": 1
    },
    {
      "midi": 62,
      "hit": false,
      "t": 140283.61000000002,
      "d": 854.1538541666523,
      "v": 1
    },
    {
      "midi": 69,
      "hit": false,
      "t": 140283.61000000002,
      "d": 854.1538541666523,
      "v": 1
    },
    {
      "midi": 60,
      "hit": false,
      "t": 141140.74,
      "d": 568.4438541666605,
      "v": 1
    },
    {
      "midi": 67,
      "hit": false,
      "t": 141140.74,
      "d": 568.4438541666605,
      "v": 1
    },
    {
      "midi": 59,
      "hit": false,
      "t": 141712.15999999997,
      "d": 2282.7038541666698,
      "v": 1
    },
    {
      "midi": 67,
      "hit": false,
      "t": 141712.15999999997,
      "d": 2282.7038541666698,
      "v": 1
    },
    {
      "midi": 62,
      "hit": false,
      "t": 143997.83999999997,
      "d": 854.1538541666523,
      "v": 1
    },
    {
      "midi": 67,
      "hit": false,
      "t": 143997.83999999997,
      "d": 854.1538541666523,
      "v": 1
    },
    {
      "midi": 60,
      "hit": false,
      "t": 144854.96999999994,
      "d": 854.1538541666523,
      "v": 1
    },
    {
      "midi": 64,
      "hit": false,
      "t": 144854.96999999994,
      "d": 854.1538541666523,
      "v": 1
    },
    {
      "midi": 59,
      "hit": false,
      "t": 145712.09999999992,
      "d": 568.4438541666605,
      "v": 1
    },
    {
      "midi": 62,
      "hit": false,
      "t": 145712.09999999992,
      "d": 568.4438541666605,
      "v": 1
    },
    {
      "midi": 60,
      "hit": false,
      "t": 146283.5199999999,
      "d": 854.1538541666523,
      "v": 1
    },
    {
      "midi": 69,
      "hit": false,
      "t": 146283.5199999999,
      "d": 854.1538541666523,
      "v": 1
    },
    {
      "midi": 57,
      "hit": false,
      "t": 147140.64999999988,
      "d": 854.1538541666523,
      "v": 1
    },
    {
      "midi": 69,
      "hit": false,
      "t": 147140.64999999988,
      "d": 854.1538541666523,
      "v": 1
    },
    {
      "midi": 53,
      "hit": false,
      "t": 147997.77999999985,
      "d": 568.4438541666605,
      "v": 1
    },
    {
      "midi": 65,
      "hit": false,
      "t": 147997.77999999985,
      "d": 568.4438541666605,
      "v": 1
    },
    {
      "midi": 55,
      "hit": false,
      "t": 148569.19999999984,
      "d": 1711.283854166657,
      "v": 1
    },
    {
      "midi": 64,
      "hit": false,
      "t": 148569.19999999984,
      "d": 1711.283854166657,
      "v": 1
    },
    {
      "midi": 57,
      "hit": false,
      "t": 150283.45999999982,
      "d": 568.4438541666605,
      "v": 1
    },
    {
      "midi": 65,
      "hit": false,
      "t": 150283.45999999982,
      "d": 568.4438541666605,
      "v": 1
    },
    {
      "midi": 55,
      "hit": false,
      "t": 150854.8799999998,
      "d": 2282.7038541666698,
      "v": 1
    },
    {
      "midi": 62,
      "hit": false,
      "t": 150854.8799999998,
      "d": 2282.7038541666698,
      "v": 1
    },
    {
      "midi": 64,
      "hit": false,
      "t": 153140.5599999998,
      "d": 854.1538541666523,
      "v": 1
    },
    {
      "midi": 67,
      "hit": false,
      "t": 153140.5599999998,
      "d": 854.1538541666523,
      "v": 1
    },
    {
      "midi": 72,
      "hit": false,
      "t": 153140.5599999998,
      "d": 854.1538541666523,
      "v": 1
    },
    {
      "midi": 65,
      "hit": false,
      "t": 153997.68999999977,
      "d": 854.1538541666523,
      "v": 1
    },
    {
      "midi": 69,
      "hit": false,
      "t": 153997.68999999977,
      "d": 854.1538541666523,
      "v": 1
    },
    {
      "midi": 72,
      "hit": false,
      "t": 153997.68999999977,
      "d": 854.1538541666523,
      "v": 1
    },
    {
      "midi": 64,
      "hit": false,
      "t": 154854.81999999975,
      "d": 3711.253854166658,
      "v": 1
    },
    {
      "midi": 67,
      "hit": false,
      "t": 154854.81999999975,
      "d": 3711.253854166658,
      "v": 1
    },
    {
      "midi": 72,
      "hit": false,
      "t": 154854.81999999975,
      "d": 3711.253854166658,
      "v": 1
    },
    {
      "midi": 62,
      "hit": false,
      "t": 158569.04999999973,
      "d": 854.1538541666523,
      "v": 1
    },
    {
      "midi": 65,
      "hit": false,
      "t": 158569.04999999973,
      "d": 854.1538541666523,
      "v": 1
    },
    {
      "midi": 69,
      "hit": false,
      "t": 158569.04999999973,
      "d": 854.1538541666523,
      "v": 1
    },
    {
      "midi": 60,
      "hit": false,
      "t": 159426.1799999997,
      "d": 568.4438541666605,
      "v": 1
    },
    {
      "midi": 64,
      "hit": false,
      "t": 159426.1799999997,
      "d": 568.4438541666605,
      "v": 1
    },
    {
      "midi": 67,
      "hit": false,
      "t": 159426.1799999997,
      "d": 568.4438541666605,
      "v": 1
    },
    {
      "midi": 59,
      "hit": false,
      "t": 159997.5999999997,
      "d": 2282.7038541666698,
      "v": 1
    },
    {
      "midi": 62,
      "hit": false,
      "t": 159997.5999999997,
      "d": 2282.7038541666698,
      "v": 1
    },
    {
      "midi": 67,
      "hit": false,
      "t": 159997.5999999997,
      "d": 2282.7038541666698,
      "v": 1
    },
    {
      "midi": 62,
      "hit": false,
      "t": 162283.27999999968,
      "d": 854.1538541666523,
      "v": 1
    },
    {
      "midi": 65,
      "hit": false,
      "t": 162283.27999999968,
      "d": 854.1538541666523,
      "v": 1
    },
    {
      "midi": 60,
      "hit": false,
      "t": 163140.40999999965,
      "d": 854.1538541666523,
      "v": 1
    },
    {
      "midi": 65,
      "hit": false,
      "t": 163140.40999999965,
      "d": 854.1538541666523,
      "v": 1
    },
    {
      "midi": 58,
      "hit": false,
      "t": 163997.53999999963,
      "d": 568.4438541666605,
      "v": 1
    },
    {
      "midi": 65,
      "hit": false,
      "t": 163997.53999999963,
      "d": 568.4438541666605,
      "v": 1
    },
    {
      "midi": 60,
      "hit": false,
      "t": 164568.9599999996,
      "d": 854.1538541666523,
      "v": 1
    },
    {
      "midi": 65,
      "hit": false,
      "t": 164568.9599999996,
      "d": 854.1538541666523,
      "v": 1
    },
    {
      "midi": 57,
      "hit": false,
      "t": 165426.0899999996,
      "d": 854.1538541666523,
      "v": 1
    },
    {
      "midi": 65,
      "hit": false,
      "t": 165426.0899999996,
      "d": 854.1538541666523,
      "v": 1
    },
    {
      "midi": 53,
      "hit": false,
      "t": 166283.21999999956,
      "d": 568.4438541666605,
      "v": 1
    },
    {
      "midi": 65,
      "hit": false,
      "t": 166283.21999999956,
      "d": 568.4438541666605,
      "v": 1
    },
    {
      "midi": 55,
      "hit": false,
      "t": 166854.63999999955,
      "d": 2282.7038541666698,
      "v": 1
    },
    {
      "midi": 64,
      "hit": false,
      "t": 166854.63999999955,
      "d": 2282.7038541666698,
      "v": 1
    },
    {
      "midi": 64,
      "hit": false,
      "t": 168012.3607291666,
      "d": 559.5154166666616,
      "v": 93
    },
    {
      "midi": 65,
      "hit": false,
      "t": 168583.78072916658,
      "d": 559.5154166666616,
      "v": 101
    },
    {
      "midi": 64,
      "hit": false,
      "t": 169140.31999999992,
      "d": 732.1318749999919,
      "v": 88
    },
    {
      "midi": 64,
      "hit": false,
      "t": 172583.72072916658,
      "d": 559.5154166666616,
      "v": 93
    },
    {
      "midi": 65,
      "hit": false,
      "t": 173155.14072916657,
      "d": 559.5154166666616,
      "v": 99
    },
    {
      "midi": 64,
      "hit": false,
      "t": 173711.6799999999,
      "d": 732.1318749999919,
      "v": 95
    },
    {
      "midi": 52,
      "hit": false,
      "t": 175997.35999999955,
      "d": 854.1538541666523,
      "v": 1
    },
    {
      "midi": 67,
      "hit": false,
      "t": 175997.35999999955,
      "d": 854.1538541666523,
      "v": 1
    },
    {
      "midi": 55,
      "hit": false,
      "t": 175997.3599999999,
      "d": 2208.3002083333267,
      "v": 109
    },
    {
      "midi": 64,
      "hit": false,
      "t": 176000.33614583322,
      "d": 2208.3002083333267,
      "v": 107
    },
    {
      "midi": 48,
      "hit": false,
      "t": 176854.48999999953,
      "d": 854.1538541666523,
      "v": 1
    },
    {
      "midi": 64,
      "hit": false,
      "t": 176854.48999999953,
      "d": 854.1538541666523,
      "v": 1
    },
    {
      "midi": 52,
      "hit": false,
      "t": 177711.6199999995,
      "d": 568.4438541666605,
      "v": 1
    },
    {
      "midi": 67,
      "hit": false,
      "t": 177711.6199999995,
      "d": 568.4438541666605,
      "v": 1
    },
    {
      "midi": 65,
      "hit": false,
      "t": 178280.06385416654,
      "d": 2258.8946874999965,
      "v": 96
    },
    {
      "midi": 57,
      "hit": false,
      "t": 178283.03999999948,
      "d": 854.1538541666523,
      "v": 1
    },
    {
      "midi": 72,
      "hit": false,
      "t": 178283.03999999948,
      "d": 854.1538541666523,
      "v": 1
    },
    {
      "midi": 57,
      "hit": false,
      "t": 178283.03999999986,
      "d": 2258.8946874999965,
      "v": 102
    },
    {
      "midi": 55,
      "hit": false,
      "t": 179140.16999999946,
      "d": 854.1538541666523,
      "v": 1
    },
    {
      "midi": 71,
      "hit": false,
      "t": 179140.16999999946,
      "d": 854.1538541666523,
      "v": 1
    },
    {
      "midi": 53,
      "hit": false,
      "t": 179997.29999999944,
      "d": 568.4438541666605,
      "v": 1
    },
    {
      "midi": 69,
      "hit": false,
      "t": 179997.29999999944,
      "d": 568.4438541666605,
      "v": 1
    },
    {
      "midi": 52,
      "hit": false,
      "t": 180568.71999999942,
      "d": 854.1538541666523,
      "v": 1
    },
    {
      "midi": 67,
      "hit": false,
      "t": 180568.71999999942,
      "d": 854.1538541666523,
      "v": 1
    },
    {
      "midi": 55,
      "hit": false,
      "t": 180571.69614583318,
      "d": 1648.7847916666651,
      "v": 100
    },
    {
      "midi": 64,
      "hit": false,
      "t": 180571.69614583318,
      "d": 1648.7847916666651,
      "v": 101
    },
    {
      "midi": 48,
      "hit": false,
      "t": 181425.8499999994,
      "d": 3711.253854166658,
      "v": 1
    },
    {
      "midi": 64,
      "hit": false,
      "t": 181425.8499999994,
      "d": 3711.253854166658,
      "v": 1
    },
    {
      "midi": 62,
      "hit": false,
      "t": 182280.0038541665,
      "d": 544.6346875000163,
      "v": 97
    },
    {
      "midi": 55,
      "hit": false,
      "t": 182285.9561458332,
      "d": 544.6346875000163,
      "v": 93
    },
    {
      "midi": 55,
      "hit": false,
      "t": 182851.42385416653,
      "d": 1958.3039583333302,
      "v": 99
    },
    {
      "midi": 64,
      "hit": false,
      "t": 182857.3761458332,
      "d": 1958.3039583333302,
      "v": 96
    },
    {
      "midi": 55,
      "hit": false,
      "t": 184851.39385416653,
      "d": 258.92468749999534,
      "v": 82
    },
    {
      "midi": 62,
      "hit": false,
      "t": 184851.39385416653,
      "d": 258.92468749999534,
      "v": 90
    },
    {
      "midi": 55,
      "hit": false,
      "t": 185137.10385416652,
      "d": 2181.5148958333302,
      "v": 89
    },
    {
      "midi": 52,
      "hit": false,
      "t": 185140.07999999938,
      "d": 854.1538541666523,
      "v": 1
    },
    {
      "midi": 67,
      "hit": false,
      "t": 185140.07999999938,
      "d": 854.1538541666523,
      "v": 1
    },
    {
      "midi": 64,
      "hit": false,
      "t": 185140.07999999984,
      "d": 2181.5148958333302,
      "v": 89
    },
    {
      "midi": 48,
      "hit": false,
      "t": 185997.20999999935,
      "d": 854.1538541666523,
      "v": 1
    },
    {
      "midi": 64,
      "hit": false,
      "t": 185997.20999999935,
      "d": 854.1538541666523,
      "v": 1
    },
    {
      "midi": 52,
      "hit": false,
      "t": 186854.33999999933,
      "d": 568.4438541666605,
      "v": 1
    },
    {
      "midi": 67,
      "hit": false,
      "t": 186854.33999999933,
      "d": 568.4438541666605,
      "v": 1
    },
    {
      "midi": 57,
      "hit": false,
      "t": 187422.7838541665,
      "d": 2258.8946874999965,
      "v": 92
    },
    {
      "midi": 65,
      "hit": false,
      "t": 187422.7838541665,
      "d": 2258.8946874999965,
      "v": 91
    },
    {
      "midi": 57,
      "hit": false,
      "t": 187425.7599999993,
      "d": 854.1538541666523,
      "v": 1
    },
    {
      "midi": 72,
      "hit": false,
      "t": 187425.7599999993,
      "d": 854.1538541666523,
      "v": 1
    },
    {
      "midi": 55,
      "hit": false,
      "t": 188282.8899999993,
      "d": 854.1538541666523,
      "v": 1
    },
    {
      "midi": 71,
      "hit": false,
      "t": 188282.8899999993,
      "d": 854.1538541666523,
      "v": 1
    },
    {
      "midi": 53,
      "hit": false,
      "t": 189140.01999999926,
      "d": 568.4438541666605,
      "v": 1
    },
    {
      "midi": 69,
      "hit": false,
      "t": 189140.01999999926,
      "d": 568.4438541666605,
      "v": 1
    },
    {
      "midi": 55,
      "hit": false,
      "t": 189708.4638541665,
      "d": 3392.806249999994,
      "v": 93
    },
    {
      "midi": 62,
      "hit": false,
      "t": 189708.4638541665,
      "d": 3392.806249999994,
      "v": 90
    },
    {
      "midi": 50,
      "hit": false,
      "t": 189711.43999999925,
      "d": 4568.383854166663,
      "v": 1
    },
    {
      "midi": 67,
      "hit": false,
      "t": 189711.43999999925,
      "d": 4568.383854166663,
      "v": 1
    },
    {
      "midi": 59,
      "hit": false,
      "t": 193151.86458333317,
      "d": 285.71000000002095,
      "v": 95
    },
    {
      "midi": 62,
      "hit": false,
      "t": 193151.86458333317,
      "d": 285.71000000002095,
      "v": 111
    },
    {
      "midi": 60,
      "hit": false,
      "t": 193413.76541666652,
      "d": 300.5907291666663,
      "v": 91
    },
    {
      "midi": 64,
      "hit": false,
      "t": 193413.76541666652,
      "d": 300.5907291666663,
      "v": 97
    },
    {
      "midi": 62,
      "hit": false,
      "t": 193717.3322916665,
      "d": 300.5907291666663,
      "v": 98
    },
    {
      "midi": 65,
      "hit": false,
      "t": 193717.3322916665,
      "d": 300.5907291666663,
      "v": 101
    },
    {
      "midi": 64,
      "hit": false,
      "t": 193994.1138541665,
      "d": 303.5668750000186,
      "v": 88
    },
    {
      "midi": 67,
      "hit": false,
      "t": 193994.1138541665,
      "d": 303.5668750000186,
      "v": 99
    },
    {
      "midi": 53,
      "hit": false,
      "t": 194282.79999999923,
      "d": 854.1538541666523,
      "v": 1
    },
    {
      "midi": 69,
      "hit": false,
      "t": 194282.79999999923,
      "d": 854.1538541666523,
      "v": 1
    },
    {
      "midi": 62,
      "hit": false,
      "t": 194291.72843749984,
      "d": 2229.1332291666768,
      "v": 94
    },
    {
      "midi": 65,
      "hit": false,
      "t": 194291.72843749984,
      "d": 2232.109375,
      "v": 98
    },
    {
      "midi": 50,
      "hit": false,
      "t": 195139.9299999992,
      "d": 854.1538541666523,
      "v": 1
    },
    {
      "midi": 65,
      "hit": false,
      "t": 195139.9299999992,
      "d": 854.1538541666523,
      "v": 1
    },
    {
      "midi": 53,
      "hit": false,
      "t": 195997.05999999918,
      "d": 568.4438541666605,
      "v": 1
    },
    {
      "midi": 69,
      "hit": false,
      "t": 195997.05999999918,
      "d": 568.4438541666605,
      "v": 1
    },
    {
      "midi": 59,
      "hit": false,
      "t": 196568.47999999917,
      "d": 854.1538541666523,
      "v": 1
    },
    {
      "midi": 74,
      "hit": false,
      "t": 196568.47999999917,
      "d": 854.1538541666523,
      "v": 1
    },
    {
      "midi": 62,
      "hit": false,
      "t": 196577.40843749983,
      "d": 2229.1332291666768,
      "v": 90
    },
    {
      "midi": 65,
      "hit": false,
      "t": 196577.40843749983,
      "d": 2232.109375,
      "v": 96
    },
    {
      "midi": 57,
      "hit": false,
      "t": 197425.60999999914,
      "d": 854.1538541666523,
      "v": 1
    },
    {
      "midi": 72,
      "hit": false,
      "t": 197425.60999999914,
      "d": 854.1538541666523,
      "v": 1
    },
    {
      "midi": 53,
      "hit": false,
      "t": 198282.73999999912,
      "d": 568.4438541666605,
      "v": 1
    },
    {
      "midi": 69,
      "hit": false,
      "t": 198282.73999999912,
      "d": 568.4438541666605,
      "v": 1
    },
    {
      "midi": 57,
      "hit": false,
      "t": 198854.1599999991,
      "d": 854.1538541666523,
      "v": 1
    },
    {
      "midi": 72,
      "hit": false,
      "t": 198854.1599999991,
      "d": 854.1538541666523,
      "v": 1
    },
    {
      "midi": 59,
      "hit": false,
      "t": 198863.08843749983,
      "d": 4514.81322916667,
      "v": 95
    },
    {
      "midi": 62,
      "hit": false,
      "t": 198863.08843749983,
      "d": 4517.789374999993,
      "v": 96
    },
    {
      "midi": 55,
      "hit": false,
      "t": 199711.28999999908,
      "d": 3711.253854166658,
      "v": 1
    },
    {
      "midi": 71,
      "hit": false,
      "t": 199711.28999999908,
      "d": 3711.253854166658,
      "v": 1
    },
    {
      "midi": 54,
      "hit": false,
      "t": 203425.51999999906,
      "d": 2282.7038541666698,
      "v": 1
    },
    {
      "midi": 69,
      "hit": false,
      "t": 203425.51999999906,
      "d": 2282.7038541666698,
      "v": 1
    },
    {
      "midi": 57,
      "hit": false,
      "t": 203434.4484374998,
      "d": 2229.1332291666768,
      "v": 96
    },
    {
      "midi": 62,
      "hit": false,
      "t": 203434.4484374998,
      "d": 2232.109375,
      "v": 89
    },
    {
      "midi": 53,
      "hit": false,
      "t": 205711.19999999905,
      "d": 854.1538541666523,
      "v": 1
    },
    {
      "midi": 69,
      "hit": false,
      "t": 205711.19999999905,
      "d": 854.1538541666523,
      "v": 1
    },
    {
      "midi": 60,
      "hit": false,
      "t": 205720.1284374998,
      "d": 773.7979166666628,
      "v": 101
    },
    {
      "midi": 57,
      "hit": false,
      "t": 205720.1284374998,
      "d": 2229.1332291666768,
      "v": 94
    },
    {
      "midi": 55,
      "hit": false,
      "t": 206568.32999999903,
      "d": 854.1538541666523,
      "v": 1
    },
    {
      "midi": 71,
      "hit": false,
      "t": 206568.32999999903,
      "d": 854.1538541666523,
      "v": 1
    },
    {
      "midi": 60,
      "hit": false,
      "t": 206568.3299999998,
      "d": 812.4878125000105,
      "v": 108
    },
    {
      "midi": 57,
      "hit": false,
      "t": 207425.459999999,
      "d": 568.4438541666605,
      "v": 1
    },
    {
      "midi": 72,
      "hit": false,
      "t": 207425.459999999,
      "d": 568.4438541666605,
      "v": 1
    },
    {
      "midi": 60,
      "hit": false,
      "t": 207425.45999999982,
      "d": 559.5154166666616,
      "v": 100
    },
    {
      "midi": 59,
      "hit": false,
      "t": 207996.879999999,
      "d": 4568.383854166663,
      "v": 1
    },
    {
      "midi": 74,
      "hit": false,
      "t": 207996.879999999,
      "d": 4568.383854166663,
      "v": 1
    },
    {
      "midi": 59,
      "hit": false,
      "t": 208005.8084374998,
      "d": 2229.1332291666768,
      "v": 98
    },
    {
      "midi": 62,
      "hit": false,
      "t": 208005.8084374998,
      "d": 2232.109375,
      "v": 90
    },
    {
      "midi": 64,
      "hit": false,
      "t": 212568.23999999897,
      "d": 854.1538541666523,
      "v": 1
    },
    {
      "midi": 72,
      "hit": false,
      "t": 212568.23999999897,
      "d": 854.1538541666523,
      "v": 1
    },
    {
      "midi": 65,
      "hit": false,
      "t": 213425.36999999895,
      "d": 854.1538541666523,
      "v": 1
    },
    {
      "midi": 69,
      "hit": false,
      "t": 213425.36999999895,
      "d": 854.1538541666523,
      "v": 1
    },
    {
      "midi": 64,
      "hit": false,
      "t": 214282.49999999892,
      "d": 568.4438541666605,
      "v": 1
    },
    {
      "midi": 67,
      "hit": false,
      "t": 214282.49999999892,
      "d": 568.4438541666605,
      "v": 1
    },
    {
      "midi": 64,
      "hit": false,
      "t": 214853.9199999989,
      "d": 3139.8338541666744,
      "v": 1
    },
    {
      "midi": 72,
      "hit": false,
      "t": 214853.9199999989,
      "d": 3139.8338541666744,
      "v": 1
    },
    {
      "midi": 62,
      "hit": false,
      "t": 217996.7299999989,
      "d": 854.1538541666523,
      "v": 1
    },
    {
      "midi": 69,
      "hit": false,
      "t": 217996.7299999989,
      "d": 854.1538541666523,
      "v": 1
    },
    {
      "midi": 60,
      "hit": false,
      "t": 218853.85999999888,
      "d": 568.4438541666605,
      "v": 1
    },
    {
      "midi": 67,
      "hit": false,
      "t": 218853.85999999888,
      "d": 568.4438541666605,
      "v": 1
    },
    {
      "midi": 59,
      "hit": false,
      "t": 219425.27999999886,
      "d": 2282.7038541666698,
      "v": 1
    },
    {
      "midi": 67,
      "hit": false,
      "t": 219425.27999999886,
      "d": 2282.7038541666698,
      "v": 1
    },
    {
      "midi": 62,
      "hit": false,
      "t": 221710.95999999886,
      "d": 854.1538541666523,
      "v": 1
    },
    {
      "midi": 67,
      "hit": false,
      "t": 221710.95999999886,
      "d": 854.1538541666523,
      "v": 1
    },
    {
      "midi": 60,
      "hit": false,
      "t": 222568.08999999883,
      "d": 854.1538541666523,
      "v": 1
    },
    {
      "midi": 64,
      "hit": false,
      "t": 222568.08999999883,
      "d": 854.1538541666523,
      "v": 1
    },
    {
      "midi": 59,
      "hit": false,
      "t": 223425.2199999988,
      "d": 568.4438541666605,
      "v": 1
    },
    {
      "midi": 62,
      "hit": false,
      "t": 223425.2199999988,
      "d": 568.4438541666605,
      "v": 1
    },
    {
      "midi": 60,
      "hit": false,
      "t": 223996.6399999988,
      "d": 854.1538541666523,
      "v": 1
    },
    {
      "midi": 69,
      "hit": false,
      "t": 223996.6399999988,
      "d": 854.1538541666523,
      "v": 1
    },
    {
      "midi": 57,
      "hit": false,
      "t": 224853.76999999877,
      "d": 854.1538541666523,
      "v": 1
    },
    {
      "midi": 69,
      "hit": false,
      "t": 224853.76999999877,
      "d": 854.1538541666523,
      "v": 1
    },
    {
      "midi": 53,
      "hit": false,
      "t": 225710.89999999874,
      "d": 568.4438541666605,
      "v": 1
    },
    {
      "midi": 65,
      "hit": false,
      "t": 225710.89999999874,
      "d": 568.4438541666605,
      "v": 1
    },
    {
      "midi": 55,
      "hit": false,
      "t": 226282.31999999873,
      "d": 1711.283854166657,
      "v": 1
    },
    {
      "midi": 64,
      "hit": false,
      "t": 226282.31999999873,
      "d": 1711.283854166657,
      "v": 1
    },
    {
      "midi": 57,
      "hit": false,
      "t": 227996.5799999987,
      "d": 568.4438541666605,
      "v": 1
    },
    {
      "midi": 65,
      "hit": false,
      "t": 227996.5799999987,
      "d": 568.4438541666605,
      "v": 1
    },
    {
      "midi": 55,
      "hit": false,
      "t": 228567.9999999987,
      "d": 1139.8638541666733,
      "v": 1
    },
    {
      "midi": 62,
      "hit": false,
      "t": 228567.9999999987,
      "d": 1139.8638541666733,
      "v": 1
    },
    {
      "midi": 66,
      "hit": false,
      "t": 230853.67999999868,
      "d": 854.1538541666523,
      "v": 1
    },
    {
      "midi": 74,
      "hit": false,
      "t": 230853.67999999868,
      "d": 854.1538541666523,
      "v": 1
    },
    {
      "midi": 67,
      "hit": false,
      "t": 231710.80999999866,
      "d": 854.1538541666523,
      "v": 1
    },
    {
      "midi": 71,
      "hit": false,
      "t": 231710.80999999866,
      "d": 854.1538541666523,
      "v": 1
    },
    {
      "midi": 66,
      "hit": false,
      "t": 232567.93999999863,
      "d": 568.4438541666605,
      "v": 1
    },
    {
      "midi": 69,
      "hit": false,
      "t": 232567.93999999863,
      "d": 568.4438541666605,
      "v": 1
    },
    {
      "midi": 66,
      "hit": false,
      "t": 233139.35999999862,
      "d": 3139.8338541666744,
      "v": 1
    },
    {
      "midi": 74,
      "hit": false,
      "t": 233139.35999999862,
      "d": 3139.8338541666744,
      "v": 1
    },
    {
      "midi": 64,
      "hit": false,
      "t": 236282.16999999862,
      "d": 854.1538541666523,
      "v": 1
    },
    {
      "midi": 71,
      "hit": false,
      "t": 236282.16999999862,
      "d": 854.1538541666523,
      "v": 1
    },
    {
      "midi": 62,
      "hit": false,
      "t": 237139.2999999986,
      "d": 568.4438541666605,
      "v": 1
    },
    {
      "midi": 69,
      "hit": false,
      "t": 237139.2999999986,
      "d": 568.4438541666605,
      "v": 1
    },
    {
      "midi": 61,
      "hit": false,
      "t": 237710.71999999858,
      "d": 2282.7038541666698,
      "v": 1
    },
    {
      "midi": 69,
      "hit": false,
      "t": 237710.71999999858,
      "d": 2282.7038541666698,
      "v": 1
    },
    {
      "midi": 64,
      "hit": false,
      "t": 239996.39999999857,
      "d": 854.1538541666523,
      "v": 1
    },
    {
      "midi": 69,
      "hit": false,
      "t": 239996.39999999857,
      "d": 854.1538541666523,
      "v": 1
    },
    {
      "midi": 62,
      "hit": false,
      "t": 240853.52999999854,
      "d": 854.1538541666523,
      "v": 1
    },
    {
      "midi": 66,
      "hit": false,
      "t": 240853.52999999854,
      "d": 854.1538541666523,
      "v": 1
    },
    {
      "midi": 61,
      "hit": false,
      "t": 241710.65999999852,
      "d": 568.4438541666605,
      "v": 1
    },
    {
      "midi": 64,
      "hit": false,
      "t": 241710.65999999852,
      "d": 568.4438541666605,
      "v": 1
    },
    {
      "midi": 62,
      "hit": false,
      "t": 242282.0799999985,
      "d": 854.1538541666523,
      "v": 1
    },
    {
      "midi": 71,
      "hit": false,
      "t": 242282.0799999985,
      "d": 854.1538541666523,
      "v": 1
    },
    {
      "midi": 59,
      "hit": false,
      "t": 243139.20999999848,
      "d": 854.1538541666523,
      "v": 1
    },
    {
      "midi": 71,
      "hit": false,
      "t": 243139.20999999848,
      "d": 854.1538541666523,
      "v": 1
    },
    {
      "midi": 55,
      "hit": false,
      "t": 243996.33999999845,
      "d": 568.4438541666605,
      "v": 1
    },
    {
      "midi": 67,
      "hit": false,
      "t": 243996.33999999845,
      "d": 568.4438541666605,
      "v": 1
    },
    {
      "midi": 57,
      "hit": false,
      "t": 244567.75999999844,
      "d": 1711.283854166657,
      "v": 1
    },
    {
      "midi": 66,
      "hit": false,
      "t": 244567.75999999844,
      "d": 1711.283854166657,
      "v": 1
    },
    {
      "midi": 59,
      "hit": false,
      "t": 246282.01999999842,
      "d": 568.4438541666605,
      "v": 1
    },
    {
      "midi": 67,
      "hit": false,
      "t": 246282.01999999842,
      "d": 568.4438541666605,
      "v": 1
    },
    {
      "midi": 57,
      "hit": false,
      "t": 246853.4399999984,
      "d": 2282.7038541666698,
      "v": 1
    },
    {
      "midi": 64,
      "hit": false,
      "t": 246853.4399999984,
      "d": 2282.7038541666698,
      "v": 1
    },
    {
      "midi": 57,
      "hit": false,
      "t": 247710.5699999998,
      "d": 324.39989583336865,
      "v": 105
    },
    {
      "midi": 69,
      "hit": false,
      "t": 247710.5699999998,
      "d": 324.39989583336865,
      "v": 103
    },
    {
      "midi": 59,
      "hit": false,
      "t": 247990.32770833315,
      "d": 232.13937500002794,
      "v": 101
    },
    {
      "midi": 71,
      "hit": false,
      "t": 247996.27999999982,
      "d": 232.13937500002794,
      "v": 108
    },
    {
      "midi": 61,
      "hit": false,
      "t": 248279.01385416652,
      "d": 264.87697916667094,
      "v": 90
    },
    {
      "midi": 73,
      "hit": false,
      "t": 248279.01385416652,
      "d": 264.87697916667094,
      "v": 90
    },
    {
      "midi": 62,
      "hit": false,
      "t": 248564.7238541665,
      "d": 252.97239583331975,
      "v": 111
    },
    {
      "midi": 74,
      "hit": false,
      "t": 248567.69999999984,
      "d": 252.97239583331975,
      "v": 112
    },
    {
      "midi": 64,
      "hit": false,
      "t": 248853.40999999983,
      "d": 264.87697916667094,
      "v": 101
    },
    {
      "midi": 76,
      "hit": false,
      "t": 248856.38614583315,
      "d": 264.87697916667094,
      "v": 106
    },
    {
      "midi": 66,
      "hit": false,
      "t": 249139.1199999984,
      "d": 854.1538541666523,
      "v": 1
    },
    {
      "midi": 69,
      "hit": false,
      "t": 249139.1199999984,
      "d": 854.1538541666523,
      "v": 1
    },
    {
      "midi": 74,
      "hit": false,
      "t": 249139.1199999984,
      "d": 854.1538541666523,
      "v": 1
    },
    {
      "midi": 66,
      "hit": false,
      "t": 249139.11999999982,
      "d": 226.18708333332324,
      "v": 110
    },
    {
      "midi": 78,
      "hit": false,
      "t": 249142.09614583314,
      "d": 232.13937499999884,
      "v": 109
    },
    {
      "midi": 67,
      "hit": false,
      "t": 249996.24999999837,
      "d": 854.1538541666523,
      "v": 1
    },
    {
      "midi": 71,
      "hit": false,
      "t": 249996.24999999837,
      "d": 854.1538541666523,
      "v": 1
    },
    {
      "midi": 74,
      "hit": false,
      "t": 249996.24999999837,
      "d": 854.1538541666523,
      "v": 1
    },
    {
      "midi": 66,
      "hit": false,
      "t": 250853.37999999835,
      "d": 3711.253854166658,
      "v": 1
    },
    {
      "midi": 69,
      "hit": false,
      "t": 250853.37999999835,
      "d": 3711.253854166658,
      "v": 1
    },
    {
      "midi": 74,
      "hit": false,
      "t": 250853.37999999835,
      "d": 3711.253854166658,
      "v": 1
    },
    {
      "midi": 64,
      "hit": false,
      "t": 254567.60999999833,
      "d": 854.1538541666523,
      "v": 1
    },
    {
      "midi": 67,
      "hit": false,
      "t": 254567.60999999833,
      "d": 854.1538541666523,
      "v": 1
    },
    {
      "midi": 71,
      "hit": false,
      "t": 254567.60999999833,
      "d": 854.1538541666523,
      "v": 1
    },
    {
      "midi": 62,
      "hit": false,
      "t": 255424.7399999983,
      "d": 568.4438541666605,
      "v": 1
    },
    {
      "midi": 66,
      "hit": false,
      "t": 255424.7399999983,
      "d": 568.4438541666605,
      "v": 1
    },
    {
      "midi": 69,
      "hit": false,
      "t": 255424.7399999983,
      "d": 568.4438541666605,
      "v": 1
    },
    {
      "midi": 61,
      "hit": false,
      "t": 255996.1599999983,
      "d": 2282.7038541666698,
      "v": 1
    },
    {
      "midi": 64,
      "hit": false,
      "t": 255996.1599999983,
      "d": 2282.7038541666698,
      "v": 1
    },
    {
      "midi": 69,
      "hit": false,
      "t": 255996.1599999983,
      "d": 2282.7038541666698,
      "v": 1
    },
    {
      "midi": 69,
      "hit": false,
      "t": 258281.83999999828,
      "d": 854.1538541666523,
      "v": 1
    },
    {
      "midi": 76,
      "hit": false,
      "t": 258281.83999999828,
      "d": 854.1538541666523,
      "v": 1
    },
    {
      "midi": 62,
      "hit": false,
      "t": 259138.96999999825,
      "d": 854.1538541666523,
      "v": 1
    },
    {
      "midi": 66,
      "hit": false,
      "t": 259138.96999999825,
      "d": 854.1538541666523,
      "v": 1
    },
    {
      "midi": 71,
      "hit": false,
      "t": 259138.96999999825,
      "d": 854.1538541666523,
      "v": 1
    },
    {
      "midi": 61,
      "hit": false,
      "t": 259996.09999999823,
      "d": 568.4438541666605,
      "v": 1
    },
    {
      "midi": 64,
      "hit": false,
      "t": 259996.09999999823,
      "d": 568.4438541666605,
      "v": 1
    },
    {
      "midi": 69,
      "hit": false,
      "t": 259996.09999999823,
      "d": 568.4438541666605,
      "v": 1
    },
    {
      "midi": 62,
      "hit": false,
      "t": 260567.5199999982,
      "d": 854.1538541666523,
      "v": 1
    },
    {
      "midi": 67,
      "hit": false,
      "t": 260567.5199999982,
      "d": 854.1538541666523,
      "v": 1
    },
    {
      "midi": 71,
      "hit": false,
      "t": 260567.5199999982,
      "d": 854.1538541666523,
      "v": 1
    },
    {
      "midi": 59,
      "hit": false,
      "t": 261424.6499999982,
      "d": 854.1538541666523,
      "v": 1
    },
    {
      "midi": 67,
      "hit": false,
      "t": 261424.6499999982,
      "d": 854.1538541666523,
      "v": 1
    },
    {
      "midi": 71,
      "hit": false,
      "t": 261424.6499999982,
      "d": 854.1538541666523,
      "v": 1
    },
    {
      "midi": 55,
      "hit": false,
      "t": 262281.77999999817,
      "d": 568.4438541666605,
      "v": 1
    },
    {
      "midi": 59,
      "hit": false,
      "t": 262281.77999999817,
      "d": 568.4438541666605,
      "v": 1
    },
    {
      "midi": 67,
      "hit": false,
      "t": 262281.77999999817,
      "d": 568.4438541666605,
      "v": 1
    },
    {
      "midi": 57,
      "hit": false,
      "t": 262853.19999999815,
      "d": 1711.283854166686,
      "v": 1
    },
    {
      "midi": 62,
      "hit": false,
      "t": 262853.19999999815,
      "d": 1711.283854166686,
      "v": 1
    },
    {
      "midi": 66,
      "hit": false,
      "t": 262853.19999999815,
      "d": 1711.283854166686,
      "v": 1
    },
    {
      "midi": 59,
      "hit": false,
      "t": 264567.45999999816,
      "d": 568.4438541666605,
      "v": 1
    },
    {
      "midi": 62,
      "hit": false,
      "t": 264567.45999999816,
      "d": 568.4438541666605,
      "v": 1
    },
    {
      "midi": 67,
      "hit": false,
      "t": 264567.45999999816,
      "d": 568.4438541666605,
      "v": 1
    },
    {
      "midi": 57,
      "hit": false,
      "t": 265138.87999999814,
      "d": 2282.7038541666698,
      "v": 1
    },
    {
      "midi": 61,
      "hit": false,
      "t": 265138.87999999814,
      "d": 2282.7038541666698,
      "v": 1
    },
    {
      "midi": 64,
      "hit": false,
      "t": 265138.87999999814,
      "d": 2282.7038541666698,
      "v": 1
    },
    {
      "midi": 69,
      "hit": false,
      "t": 265990.05770833313,
      "d": 324.39989583333954,
      "v": 102
    },
    {
      "midi": 57,
      "hit": false,
      "t": 265996.0099999998,
      "d": 324.39989583333954,
      "v": 103
    },
    {
      "midi": 71,
      "hit": false,
      "t": 266275.7677083331,
      "d": 232.13937500002794,
      "v": 106
    },
    {
      "midi": 59,
      "hit": false,
      "t": 266284.6961458331,
      "d": 232.13937500002794,
      "v": 106
    },
    {
      "midi": 73,
      "hit": false,
      "t": 266567.4299999998,
      "d": 264.87697916664183,
      "v": 90
    },
    {
      "midi": 61,
      "hit": false,
      "t": 266570.40614583314,
      "d": 264.87697916664183,
      "v": 94
    },
    {
      "midi": 62,
      "hit": false,
      "t": 266850.16385416646,
      "d": 252.97239583329065,
      "v": 113
    },
    {
      "midi": 74,
      "hit": false,
      "t": 266856.1161458331,
      "d": 252.97239583329065,
      "v": 109
    },
    {
      "midi": 64,
      "hit": false,
      "t": 267135.8738541664,
      "d": 264.87697916664183,
      "v": 107
    },
    {
      "midi": 76,
      "hit": false,
      "t": 267141.82614583307,
      "d": 264.87697916664183,
      "v": 106
    },
    {
      "midi": 66,
      "hit": false,
      "t": 267424.55999999814,
      "d": 4568.383854166663,
      "v": 1
    },
    {
      "midi": 69,
      "hit": false,
      "t": 267424.55999999814,
      "d": 4568.383854166663,
      "v": 1
    },
    {
      "midi": 74,
      "hit": false,
      "t": 267424.55999999814,
      "d": 4568.383854166663,
      "v": 1
    },
    {
      "midi": 78,
      "hit": false,
      "t": 267424.5599999997,
      "d": 226.18708333332324,
      "v": 101
    },
    {
      "midi": 66,
      "hit": false,
      "t": 267424.5599999997,
      "d": 229.1632291666465,
      "v": 105
    }
  ]
}