{
  "jsonPath": "Unknown/Unknown/George Jones  Tammy Wynette/what-ever-happened-to-us.json",
  "path": "Unknown\\Unknown\\George Jones  Tammy Wynette\\What Ever Happened To Us.mid",
  "name": "What Ever Happened To Us",
  "difficulty": "Advanced",
  "bpm": 72.00002880001152,
  "notes": [
    {
      "midi": 59,
      "hit": false,
      "t": 3333.3320000000003,
      "d": 2352.429614583334,
      "v": 93
    },
    {
      "midi": 55,
      "hit": false,
      "t": 3333.3320000000003,
      "d": 2369.7907187500005,
      "v": 91
    },
    {
      "midi": 62,
      "hit": false,
      "t": 3333.3320000000003,
      "d": 2369.7907187500005,
      "v": 93
    },
    {
      "midi": 50,
      "hit": false,
      "t": 3333.3320000000003,
      "d": 2395.832375000001,
      "v": 87
    },
    {
      "midi": 43,
      "hit": false,
      "t": 3333.3320000000003,
      "d": 2404.512927083334,
      "v": 83
    },
    {
      "midi": 59,
      "hit": false,
      "t": 3333.3320000000003,
      "d": 2352.429614583334,
      "v": 93
    },
    {
      "midi": 55,
      "hit": false,
      "t": 3333.3320000000003,
      "d": 2369.7907187500005,
      "v": 91
    },
    {
      "midi": 62,
      "hit": false,
      "t": 3333.3320000000003,
      "d": 2369.7907187500005,
      "v": 93
    },
    {
      "midi": 50,
      "hit": false,
      "t": 3333.3320000000003,
      "d": 2395.832375000001,
      "v": 87
    },
    {
      "midi": 43,
      "hit": false,
      "t": 3333.3320000000003,
      "d": 2404.512927083334,
      "v": 83
    },
    {
      "midi": 62,
      "hit": false,
      "t": 6666.664000000001,
      "d": 2465.276791666667,
      "v": 93
    },
    {
      "midi": 66,
      "hit": false,
      "t": 6666.664000000001,
      "d": 2473.9573437500003,
      "v": 84
    },
    {
      "midi": 57,
      "hit": false,
      "t": 6666.664000000001,
      "d": 2491.3184479166666,
      "v": 86
    },
    {
      "midi": 38,
      "hit": false,
      "t": 6666.664000000001,
      "d": 2499.999,
      "v": 87
    },
    {
      "midi": 62,
      "hit": false,
      "t": 6666.664000000001,
      "d": 2465.276791666667,
      "v": 93
    },
    {
      "midi": 66,
      "hit": false,
      "t": 6666.664000000001,
      "d": 2473.9573437500003,
      "v": 84
    },
    {
      "midi": 57,
      "hit": false,
      "t": 6666.664000000001,
      "d": 2491.3184479166666,
      "v": 86
    },
    {
      "midi": 38,
      "hit": false,
      "t": 6666.664000000001,
      "d": 2499.999,
      "v": 87
    },
    {
      "midi": 50,
      "hit": false,
      "t": 9999.996000000001,
      "d": 5416.664500000001,
      "v": 81
    },
    {
      "midi": 43,
      "hit": false,
      "t": 9999.996000000001,
      "d": 5460.067260416667,
      "v": 72
    },
    {
      "midi": 59,
      "hit": false,
      "t": 9999.996000000001,
      "d": 5468.7478125,
      "v": 89
    },
    {
      "midi": 62,
      "hit": false,
      "t": 9999.996000000001,
      "d": 5468.7478125,
      "v": 89
    },
    {
      "midi": 55,
      "hit": false,
      "t": 9999.996000000001,
      "d": 5529.511677083334,
      "v": 86
    },
    {
      "midi": 50,
      "hit": false,
      "t": 9999.996000000001,
      "d": 5416.664500000001,
      "v": 81
    },
    {
      "midi": 43,
      "hit": false,
      "t": 9999.996000000001,
      "d": 5460.067260416667,
      "v": 72
    },
    {
      "midi": 59,
      "hit": false,
      "t": 9999.996000000001,
      "d": 5468.7478125,
      "v": 89
    },
    {
      "midi": 62,
      "hit": false,
      "t": 9999.996000000001,
      "d": 5468.7478125,
      "v": 89
    },
    {
      "midi": 55,
      "hit": false,
      "t": 9999.996000000001,
      "d": 5529.511677083334,
      "v": 86
    },
    {
      "midi": 55,
      "hit": false,
      "t": 16666.660000000003,
      "d": 5902.775416666667,
      "v": 89
    },
    {
      "midi": 60,
      "hit": false,
      "t": 16666.660000000003,
      "d": 5902.775416666667,
      "v": 94
    },
    {
      "midi": 64,
      "hit": false,
      "t": 16666.660000000003,
      "d": 5911.4559687500005,
      "v": 93
    },
    {
      "midi": 36,
      "hit": false,
      "t": 16666.660000000003,
      "d": 5972.219833333333,
      "v": 86
    },
    {
      "midi": 55,
      "hit": false,
      "t": 16666.660000000003,
      "d": 5902.775416666667,
      "v": 89
    },
    {
      "midi": 60,
      "hit": false,
      "t": 16666.660000000003,
      "d": 5902.775416666667,
      "v": 94
    },
    {
      "midi": 64,
      "hit": false,
      "t": 16666.660000000003,
      "d": 5911.4559687500005,
      "v": 93
    },
    {
      "midi": 36,
      "hit": false,
      "t": 16666.660000000003,
      "d": 5972.219833333333,
      "v": 86
    },
    {
      "midi": 62,
      "hit": false,
      "t": 23333.324000000004,
      "d": 5807.289343749999,
      "v": 93
    },
    {
      "midi": 57,
      "hit": false,
      "t": 23333.324000000004,
      "d": 5824.650447916665,
      "v": 87
    },
    {
      "midi": 66,
      "hit": false,
      "t": 23333.324000000004,
      "d": 5824.650447916665,
      "v": 81
    },
    {
      "midi": 38,
      "hit": false,
      "t": 23333.324000000004,
      "d": 5833.330999999998,
      "v": 85
    },
    {
      "midi": 62,
      "hit": false,
      "t": 23333.324000000004,
      "d": 5807.289343749999,
      "v": 93
    },
    {
      "midi": 57,
      "hit": false,
      "t": 23333.324000000004,
      "d": 5824.650447916665,
      "v": 87
    },
    {
      "midi": 66,
      "hit": false,
      "t": 23333.324000000004,
      "d": 5824.650447916665,
      "v": 81
    },
    {
      "midi": 38,
      "hit": false,
      "t": 23333.324000000004,
      "d": 5833.330999999998,
      "v": 85
    },
    {
      "midi": 59,
      "hit": false,
      "t": 29999.988,
      "d": 2968.748812499998,
      "v": 87
    },
    {
      "midi": 62,
      "hit": false,
      "t": 29999.988,
      "d": 2986.1099166666645,
      "v": 89
    },
    {
      "midi": 55,
      "hit": false,
      "t": 29999.988,
      "d": 3064.2348854166667,
      "v": 85
    },
    {
      "midi": 43,
      "hit": false,
      "t": 29999.988,
      "d": 3168.401510416672,
      "v": 84
    },
    {
      "midi": 59,
      "hit": false,
      "t": 29999.988,
      "d": 2968.748812499998,
      "v": 87
    },
    {
      "midi": 62,
      "hit": false,
      "t": 29999.988,
      "d": 2986.1099166666645,
      "v": 89
    },
    {
      "midi": 55,
      "hit": false,
      "t": 29999.988,
      "d": 3064.2348854166667,
      "v": 85
    },
    {
      "midi": 43,
      "hit": false,
      "t": 29999.988,
      "d": 3168.401510416672,
      "v": 84
    },
    {
      "midi": 55,
      "hit": false,
      "t": 33124.986750000004,
      "d": 60.76386458333582,
      "v": 84
    },
    {
      "midi": 60,
      "hit": false,
      "t": 33124.986750000004,
      "d": 60.76386458333582,
      "v": 99
    },
    {
      "midi": 55,
      "hit": false,
      "t": 33124.986750000004,
      "d": 60.76386458333582,
      "v": 84
    },
    {
      "midi": 60,
      "hit": false,
      "t": 33124.986750000004,
      "d": 60.76386458333582,
      "v": 99
    },
    {
      "midi": 43,
      "hit": false,
      "t": 33333.32000000001,
      "d": 2569.443416666669,
      "v": 84
    },
    {
      "midi": 59,
      "hit": false,
      "t": 33333.32000000001,
      "d": 2578.1239687500056,
      "v": 99
    },
    {
      "midi": 55,
      "hit": false,
      "t": 33333.32000000001,
      "d": 2699.651697916677,
      "v": 89
    },
    {
      "midi": 43,
      "hit": false,
      "t": 33333.32000000001,
      "d": 2569.443416666669,
      "v": 84
    },
    {
      "midi": 59,
      "hit": false,
      "t": 33333.32000000001,
      "d": 2578.1239687500056,
      "v": 99
    },
    {
      "midi": 55,
      "hit": false,
      "t": 33333.32000000001,
      "d": 2699.651697916677,
      "v": 89
    },
    {
      "midi": 36,
      "hit": false,
      "t": 36666.65200000002,
      "d": 6050.344802083338,
      "v": 79
    },
    {
      "midi": 60,
      "hit": false,
      "t": 36666.65200000002,
      "d": 6067.705906250005,
      "v": 84
    },
    {
      "midi": 64,
      "hit": false,
      "t": 36666.65200000002,
      "d": 6067.705906250005,
      "v": 85
    },
    {
      "midi": 55,
      "hit": false,
      "t": 36666.65200000002,
      "d": 6145.830875000007,
      "v": 82
    },
    {
      "midi": 36,
      "hit": false,
      "t": 36666.65200000002,
      "d": 6050.344802083338,
      "v": 79
    },
    {
      "midi": 60,
      "hit": false,
      "t": 36666.65200000002,
      "d": 6067.705906250005,
      "v": 84
    },
    {
      "midi": 64,
      "hit": false,
      "t": 36666.65200000002,
      "d": 6067.705906250005,
      "v": 85
    },
    {
      "midi": 55,
      "hit": false,
      "t": 36666.65200000002,
      "d": 6145.830875000007,
      "v": 82
    },
    {
      "midi": 59,
      "hit": false,
      "t": 43333.31600000002,
      "d": 2447.9156875000044,
      "v": 89
    },
    {
      "midi": 62,
      "hit": false,
      "t": 43333.31600000002,
      "d": 2447.9156875000044,
      "v": 87
    },
    {
      "midi": 55,
      "hit": false,
      "t": 43333.31600000002,
      "d": 2465.2767916666708,
      "v": 85
    },
    {
      "midi": 43,
      "hit": false,
      "t": 43333.31600000002,
      "d": 2499.9990000000034,
      "v": 81
    },
    {
      "midi": 59,
      "hit": false,
      "t": 43333.31600000002,
      "d": 2447.9156875000044,
      "v": 89
    },
    {
      "midi": 62,
      "hit": false,
      "t": 43333.31600000002,
      "d": 2447.9156875000044,
      "v": 87
    },
    {
      "midi": 55,
      "hit": false,
      "t": 43333.31600000002,
      "d": 2465.2767916666708,
      "v": 85
    },
    {
      "midi": 43,
      "hit": false,
      "t": 43333.31600000002,
      "d": 2499.9990000000034,
      "v": 81
    },
    {
      "midi": 62,
      "hit": false,
      "t": 46666.64800000002,
      "d": 2647.568385416671,
      "v": 92
    },
    {
      "midi": 66,
      "hit": false,
      "t": 46666.64800000002,
      "d": 2673.610041666674,
      "v": 81
    },
    {
      "midi": 38,
      "hit": false,
      "t": 46666.64800000002,
      "d": 2682.290593750011,
      "v": 85
    },
    {
      "midi": 57,
      "hit": false,
      "t": 46666.64800000002,
      "d": 2682.290593750011,
      "v": 83
    },
    {
      "midi": 62,
      "hit": false,
      "t": 46666.64800000002,
      "d": 2647.568385416671,
      "v": 92
    },
    {
      "midi": 66,
      "hit": false,
      "t": 46666.64800000002,
      "d": 2673.610041666674,
      "v": 81
    },
    {
      "midi": 38,
      "hit": false,
      "t": 46666.64800000002,
      "d": 2682.290593750011,
      "v": 85
    },
    {
      "midi": 57,
      "hit": false,
      "t": 46666.64800000002,
      "d": 2682.290593750011,
      "v": 83
    },
    {
      "midi": 55,
      "hit": false,
      "t": 49999.98000000003,
      "d": 6249.997499999998,
      "v": 89
    },
    {
      "midi": 59,
      "hit": false,
      "t": 49999.98000000003,
      "d": 6484.372406249997,
      "v": 91
    },
    {
      "midi": 43,
      "hit": false,
      "t": 49999.98000000003,
      "d": 6493.052958333334,
      "v": 80
    },
    {
      "midi": 62,
      "hit": false,
      "t": 49999.98000000003,
      "d": 6493.052958333334,
      "v": 91
    },
    {
      "midi": 55,
      "hit": false,
      "t": 49999.98000000003,
      "d": 6249.997499999998,
      "v": 89
    },
    {
      "midi": 59,
      "hit": false,
      "t": 49999.98000000003,
      "d": 6484.372406249997,
      "v": 91
    },
    {
      "midi": 43,
      "hit": false,
      "t": 49999.98000000003,
      "d": 6493.052958333334,
      "v": 80
    },
    {
      "midi": 62,
      "hit": false,
      "t": 49999.98000000003,
      "d": 6493.052958333334,
      "v": 91
    },
    {
      "midi": 55,
      "hit": false,
      "t": 56666.64400000004,
      "d": 2534.721208333336,
      "v": 89
    },
    {
      "midi": 59,
      "hit": false,
      "t": 56666.64400000004,
      "d": 2534.721208333336,
      "v": 86
    },
    {
      "midi": 62,
      "hit": false,
      "t": 56666.64400000004,
      "d": 2534.721208333336,
      "v": 89
    },
    {
      "midi": 43,
      "hit": false,
      "t": 56666.64400000004,
      "d": 2543.401760416673,
      "v": 83
    },
    {
      "midi": 55,
      "hit": false,
      "t": 56666.64400000004,
      "d": 2534.721208333336,
      "v": 89
    },
    {
      "midi": 59,
      "hit": false,
      "t": 56666.64400000004,
      "d": 2534.721208333336,
      "v": 86
    },
    {
      "midi": 62,
      "hit": false,
      "t": 56666.64400000004,
      "d": 2534.721208333336,
      "v": 89
    },
    {
      "midi": 43,
      "hit": false,
      "t": 56666.64400000004,
      "d": 2543.401760416673,
      "v": 83
    },
    {
      "midi": 62,
      "hit": false,
      "t": 59999.976000000046,
      "d": 2621.526729166668,
      "v": 93
    },
    {
      "midi": 57,
      "hit": false,
      "t": 59999.976000000046,
      "d": 2638.887833333334,
      "v": 84
    },
    {
      "midi": 66,
      "hit": false,
      "t": 59999.976000000046,
      "d": 2647.568385416671,
      "v": 79
    },
    {
      "midi": 38,
      "hit": false,
      "t": 59999.976000000046,
      "d": 2673.610041666674,
      "v": 86
    },
    {
      "midi": 62,
      "hit": false,
      "t": 59999.976000000046,
      "d": 2621.526729166668,
      "v": 93
    },
    {
      "midi": 57,
      "hit": false,
      "t": 59999.976000000046,
      "d": 2638.887833333334,
      "v": 84
    },
    {
      "midi": 66,
      "hit": false,
      "t": 59999.976000000046,
      "d": 2647.568385416671,
      "v": 79
    },
    {
      "midi": 38,
      "hit": false,
      "t": 59999.976000000046,
      "d": 2673.610041666674,
      "v": 86
    },
    {
      "midi": 59,
      "hit": false,
      "t": 63333.308000000055,
      "d": 2907.984947916666,
      "v": 86
    },
    {
      "midi": 62,
      "hit": false,
      "t": 63333.308000000055,
      "d": 2907.984947916666,
      "v": 89
    },
    {
      "midi": 55,
      "hit": false,
      "t": 63333.308000000055,
      "d": 2934.026604166669,
      "v": 82
    },
    {
      "midi": 43,
      "hit": false,
      "t": 63333.308000000055,
      "d": 2994.790468750005,
      "v": 79
    },
    {
      "midi": 59,
      "hit": false,
      "t": 63333.308000000055,
      "d": 2907.984947916666,
      "v": 86
    },
    {
      "midi": 62,
      "hit": false,
      "t": 63333.308000000055,
      "d": 2907.984947916666,
      "v": 89
    },
    {
      "midi": 55,
      "hit": false,
      "t": 63333.308000000055,
      "d": 2934.026604166669,
      "v": 82
    },
    {
      "midi": 43,
      "hit": false,
      "t": 63333.308000000055,
      "d": 2994.790468750005,
      "v": 79
    },
    {
      "midi": 60,
      "hit": false,
      "t": 66458.30675000006,
      "d": 69.44441666666535,
      "v": 97
    },
    {
      "midi": 55,
      "hit": false,
      "t": 66458.30675000006,
      "d": 78.12496874999488,
      "v": 84
    },
    {
      "midi": 60,
      "hit": false,
      "t": 66458.30675000006,
      "d": 69.44441666666535,
      "v": 97
    },
    {
      "midi": 55,
      "hit": false,
      "t": 66458.30675000006,
      "d": 78.12496874999488,
      "v": 84
    },
    {
      "midi": 59,
      "hit": false,
      "t": 66666.64000000006,
      "d": 2638.887833333327,
      "v": 101
    },
    {
      "midi": 43,
      "hit": false,
      "t": 66666.64000000006,
      "d": 2664.92948958333,
      "v": 89
    },
    {
      "midi": 55,
      "hit": false,
      "t": 66666.64000000006,
      "d": 2864.5821874999965,
      "v": 80
    },
    {
      "midi": 59,
      "hit": false,
      "t": 66666.64000000006,
      "d": 2638.887833333327,
      "v": 101
    },
    {
      "midi": 43,
      "hit": false,
      "t": 66666.64000000006,
      "d": 2664.92948958333,
      "v": 89
    },
    {
      "midi": 55,
      "hit": false,
      "t": 66666.64000000006,
      "d": 2864.5821874999965,
      "v": 80
    },
    {
      "midi": 64,
      "hit": false,
      "t": 69999.97200000005,
      "d": 2743.054458333325,
      "v": 93
    },
    {
      "midi": 60,
      "hit": false,
      "t": 69999.97200000005,
      "d": 2890.623843749985,
      "v": 97
    },
    {
      "midi": 55,
      "hit": false,
      "t": 69999.97200000005,
      "d": 3055.554333333319,
      "v": 91
    },
    {
      "midi": 36,
      "hit": false,
      "t": 69999.97200000005,
      "d": 3081.595989583322,
      "v": 87
    },
    {
      "midi": 64,
      "hit": false,
      "t": 69999.97200000005,
      "d": 2743.054458333325,
      "v": 93
    },
    {
      "midi": 60,
      "hit": false,
      "t": 69999.97200000005,
      "d": 2890.623843749985,
      "v": 97
    },
    {
      "midi": 55,
      "hit": false,
      "t": 69999.97200000005,
      "d": 3055.554333333319,
      "v": 91
    },
    {
      "midi": 36,
      "hit": false,
      "t": 69999.97200000005,
      "d": 3081.595989583322,
      "v": 87
    },
    {
      "midi": 59,
      "hit": false,
      "t": 73124.97075000004,
      "d": 69.44441666666535,
      "v": 87
    },
    {
      "midi": 55,
      "hit": false,
      "t": 73124.97075000004,
      "d": 78.12496874999488,
      "v": 73
    },
    {
      "midi": 59,
      "hit": false,
      "t": 73124.97075000004,
      "d": 69.44441666666535,
      "v": 87
    },
    {
      "midi": 55,
      "hit": false,
      "t": 73124.97075000004,
      "d": 78.12496874999488,
      "v": 73
    },
    {
      "midi": 60,
      "hit": false,
      "t": 73333.30400000003,
      "d": 2881.94329166667,
      "v": 102
    },
    {
      "midi": 55,
      "hit": false,
      "t": 73333.30400000003,
      "d": 2916.665500000003,
      "v": 86
    },
    {
      "midi": 36,
      "hit": false,
      "t": 73333.30400000003,
      "d": 2934.0266041666764,
      "v": 83
    },
    {
      "midi": 60,
      "hit": false,
      "t": 73333.30400000003,
      "d": 2881.94329166667,
      "v": 102
    },
    {
      "midi": 55,
      "hit": false,
      "t": 73333.30400000003,
      "d": 2916.665500000003,
      "v": 86
    },
    {
      "midi": 36,
      "hit": false,
      "t": 73333.30400000003,
      "d": 2934.0266041666764,
      "v": 83
    },
    {
      "midi": 62,
      "hit": false,
      "t": 76666.63600000004,
      "d": 2152.7769166666694,
      "v": 93
    },
    {
      "midi": 66,
      "hit": false,
      "t": 76666.63600000004,
      "d": 2447.9156875000044,
      "v": 84
    },
    {
      "midi": 57,
      "hit": false,
      "t": 76666.63600000004,
      "d": 2864.582187500011,
      "v": 85
    },
    {
      "midi": 38,
      "hit": false,
      "t": 76666.63600000004,
      "d": 2881.9432916666847,
      "v": 89
    },
    {
      "midi": 62,
      "hit": false,
      "t": 76666.63600000004,
      "d": 2152.7769166666694,
      "v": 93
    },
    {
      "midi": 66,
      "hit": false,
      "t": 76666.63600000004,
      "d": 2447.9156875000044,
      "v": 84
    },
    {
      "midi": 57,
      "hit": false,
      "t": 76666.63600000004,
      "d": 2864.582187500011,
      "v": 85
    },
    {
      "midi": 38,
      "hit": false,
      "t": 76666.63600000004,
      "d": 2881.9432916666847,
      "v": 89
    },
    {
      "midi": 57,
      "hit": false,
      "t": 79791.63475000006,
      "d": 78.12496875000943,
      "v": 76
    },
    {
      "midi": 64,
      "hit": false,
      "t": 79791.63475000006,
      "d": 95.48607291668304,
      "v": 97
    },
    {
      "midi": 57,
      "hit": false,
      "t": 79791.63475000006,
      "d": 78.12496875000943,
      "v": 76
    },
    {
      "midi": 64,
      "hit": false,
      "t": 79791.63475000006,
      "d": 95.48607291668304,
      "v": 97
    },
    {
      "midi": 66,
      "hit": false,
      "t": 79999.96800000007,
      "d": 2638.8878333333414,
      "v": 93
    },
    {
      "midi": 38,
      "hit": false,
      "t": 79999.96800000007,
      "d": 2647.568385416671,
      "v": 86
    },
    {
      "midi": 57,
      "hit": false,
      "t": 79999.96800000007,
      "d": 2656.2489375000005,
      "v": 66
    },
    {
      "midi": 66,
      "hit": false,
      "t": 79999.96800000007,
      "d": 2638.8878333333414,
      "v": 93
    },
    {
      "midi": 38,
      "hit": false,
      "t": 79999.96800000007,
      "d": 2647.568385416671,
      "v": 86
    },
    {
      "midi": 57,
      "hit": false,
      "t": 79999.96800000007,
      "d": 2656.2489375000005,
      "v": 66
    },
    {
      "midi": 62,
      "hit": false,
      "t": 83333.30000000006,
      "d": 2543.401760416673,
      "v": 92
    },
    {
      "midi": 59,
      "hit": false,
      "t": 83333.30000000006,
      "d": 2604.1656250000087,
      "v": 91
    },
    {
      "midi": 55,
      "hit": false,
      "t": 83333.30000000006,
      "d": 2760.415562500013,
      "v": 89
    },
    {
      "midi": 43,
      "hit": false,
      "t": 83333.30000000006,
      "d": 2786.457218750016,
      "v": 85
    },
    {
      "midi": 62,
      "hit": false,
      "t": 83333.30000000006,
      "d": 2543.401760416673,
      "v": 92
    },
    {
      "midi": 59,
      "hit": false,
      "t": 83333.30000000006,
      "d": 2604.1656250000087,
      "v": 91
    },
    {
      "midi": 55,
      "hit": false,
      "t": 83333.30000000006,
      "d": 2760.415562500013,
      "v": 89
    },
    {
      "midi": 43,
      "hit": false,
      "t": 83333.30000000006,
      "d": 2786.457218750016,
      "v": 85
    },
    {
      "midi": 55,
      "hit": false,
      "t": 86458.29875000007,
      "d": 69.44441666666535,
      "v": 93
    },
    {
      "midi": 60,
      "hit": false,
      "t": 86458.29875000007,
      "d": 69.44441666666535,
      "v": 102
    },
    {
      "midi": 55,
      "hit": false,
      "t": 86458.29875000007,
      "d": 69.44441666666535,
      "v": 93
    },
    {
      "midi": 60,
      "hit": false,
      "t": 86458.29875000007,
      "d": 69.44441666666535,
      "v": 102
    },
    {
      "midi": 43,
      "hit": false,
      "t": 86666.63200000007,
      "d": 2630.2072812499973,
      "v": 93
    },
    {
      "midi": 59,
      "hit": false,
      "t": 86666.63200000007,
      "d": 2630.2072812499973,
      "v": 99
    },
    {
      "midi": 55,
      "hit": false,
      "t": 86666.63200000007,
      "d": 2725.693354166666,
      "v": 78
    },
    {
      "midi": 43,
      "hit": false,
      "t": 86666.63200000007,
      "d": 2630.2072812499973,
      "v": 93
    },
    {
      "midi": 59,
      "hit": false,
      "t": 86666.63200000007,
      "d": 2630.2072812499973,
      "v": 99
    },
    {
      "midi": 55,
      "hit": false,
      "t": 86666.63200000007,
      "d": 2725.693354166666,
      "v": 78
    },
    {
      "midi": 64,
      "hit": false,
      "t": 89999.96400000007,
      "d": 2465.2767916666635,
      "v": 87
    },
    {
      "midi": 60,
      "hit": false,
      "t": 89999.96400000007,
      "d": 2526.0406562499993,
      "v": 91
    },
    {
      "midi": 55,
      "hit": false,
      "t": 89999.96400000007,
      "d": 2673.6100416666595,
      "v": 85
    },
    {
      "midi": 36,
      "hit": false,
      "t": 89999.96400000007,
      "d": 2699.6516979166627,
      "v": 85
    },
    {
      "midi": 64,
      "hit": false,
      "t": 89999.96400000007,
      "d": 2465.2767916666635,
      "v": 87
    },
    {
      "midi": 60,
      "hit": false,
      "t": 89999.96400000007,
      "d": 2526.0406562499993,
      "v": 91
    },
    {
      "midi": 55,
      "hit": false,
      "t": 89999.96400000007,
      "d": 2673.6100416666595,
      "v": 85
    },
    {
      "midi": 36,
      "hit": false,
      "t": 89999.96400000007,
      "d": 2699.6516979166627,
      "v": 85
    },
    {
      "midi": 59,
      "hit": false,
      "t": 93124.96275000006,
      "d": 69.4444166666799,
      "v": 92
    },
    {
      "midi": 55,
      "hit": false,
      "t": 93124.96275000006,
      "d": 86.80552083333896,
      "v": 84
    },
    {
      "midi": 36,
      "hit": false,
      "t": 93124.96275000006,
      "d": 2838.540531250008,
      "v": 80
    },
    {
      "midi": 59,
      "hit": false,
      "t": 93124.96275000006,
      "d": 69.4444166666799,
      "v": 92
    },
    {
      "midi": 55,
      "hit": false,
      "t": 93124.96275000006,
      "d": 86.80552083333896,
      "v": 84
    },
    {
      "midi": 36,
      "hit": false,
      "t": 93124.96275000006,
      "d": 2838.540531250008,
      "v": 80
    },
    {
      "midi": 60,
      "hit": false,
      "t": 93333.29600000007,
      "d": 2847.2210833333374,
      "v": 95
    },
    {
      "midi": 60,
      "hit": false,
      "t": 93333.29600000007,
      "d": 2847.2210833333374,
      "v": 95
    },
    {
      "midi": 59,
      "hit": false,
      "t": 96666.62800000008,
      "d": 2534.721208333329,
      "v": 91
    },
    {
      "midi": 55,
      "hit": false,
      "t": 96666.62800000008,
      "d": 2569.4434166666615,
      "v": 87
    },
    {
      "midi": 62,
      "hit": false,
      "t": 96666.62800000008,
      "d": 2569.4434166666615,
      "v": 91
    },
    {
      "midi": 43,
      "hit": false,
      "t": 96666.62800000008,
      "d": 2586.8045208333206,
      "v": 82
    },
    {
      "midi": 59,
      "hit": false,
      "t": 96666.62800000008,
      "d": 2534.721208333329,
      "v": 91
    },
    {
      "midi": 55,
      "hit": false,
      "t": 96666.62800000008,
      "d": 2569.4434166666615,
      "v": 87
    },
    {
      "midi": 62,
      "hit": false,
      "t": 96666.62800000008,
      "d": 2569.4434166666615,
      "v": 91
    },
    {
      "midi": 43,
      "hit": false,
      "t": 96666.62800000008,
      "d": 2586.8045208333206,
      "v": 82
    },
    {
      "midi": 62,
      "hit": false,
      "t": 99999.96000000006,
      "d": 2508.6795520833257,
      "v": 93
    },
    {
      "midi": 57,
      "hit": false,
      "t": 99999.96000000006,
      "d": 2526.0406562499993,
      "v": 87
    },
    {
      "midi": 66,
      "hit": false,
      "t": 99999.96000000006,
      "d": 2534.721208333329,
      "v": 81
    },
    {
      "midi": 38,
      "hit": false,
      "t": 99999.96000000006,
      "d": 2552.0823125000024,
      "v": 86
    },
    {
      "midi": 62,
      "hit": false,
      "t": 99999.96000000006,
      "d": 2508.6795520833257,
      "v": 93
    },
    {
      "midi": 57,
      "hit": false,
      "t": 99999.96000000006,
      "d": 2526.0406562499993,
      "v": 87
    },
    {
      "midi": 66,
      "hit": false,
      "t": 99999.96000000006,
      "d": 2534.721208333329,
      "v": 81
    },
    {
      "midi": 38,
      "hit": false,
      "t": 99999.96000000006,
      "d": 2552.0823125000024,
      "v": 86
    },
    {
      "midi": 59,
      "hit": false,
      "t": 103333.29200000006,
      "d": 5208.331249999988,
      "v": 87
    },
    {
      "midi": 55,
      "hit": false,
      "t": 103333.29200000006,
      "d": 5225.692354166662,
      "v": 85
    },
    {
      "midi": 62,
      "hit": false,
      "t": 103333.29200000006,
      "d": 5234.3729062499915,
      "v": 89
    },
    {
      "midi": 43,
      "hit": false,
      "t": 103333.29200000006,
      "d": 5251.734010416665,
      "v": 80
    },
    {
      "midi": 59,
      "hit": false,
      "t": 103333.29200000006,
      "d": 5208.331249999988,
      "v": 87
    },
    {
      "midi": 55,
      "hit": false,
      "t": 103333.29200000006,
      "d": 5225.692354166662,
      "v": 85
    },
    {
      "midi": 62,
      "hit": false,
      "t": 103333.29200000006,
      "d": 5234.3729062499915,
      "v": 89
    },
    {
      "midi": 43,
      "hit": false,
      "t": 103333.29200000006,
      "d": 5251.734010416665,
      "v": 80
    },
    {
      "midi": 57,
      "hit": false,
      "t": 109999.95600000006,
      "d": 3298.609791666662,
      "v": 87
    },
    {
      "midi": 38,
      "hit": false,
      "t": 109999.95600000006,
      "d": 3307.2903437499917,
      "v": 93
    },
    {
      "midi": 62,
      "hit": false,
      "t": 109999.95600000006,
      "d": 5624.99775000001,
      "v": 93
    },
    {
      "midi": 66,
      "hit": false,
      "t": 109999.95600000006,
      "d": 5624.99775000001,
      "v": 82
    },
    {
      "midi": 57,
      "hit": false,
      "t": 109999.95600000006,
      "d": 3298.609791666662,
      "v": 87
    },
    {
      "midi": 38,
      "hit": false,
      "t": 109999.95600000006,
      "d": 3307.2903437499917,
      "v": 93
    },
    {
      "midi": 62,
      "hit": false,
      "t": 109999.95600000006,
      "d": 5624.99775000001,
      "v": 93
    },
    {
      "midi": 66,
      "hit": false,
      "t": 109999.95600000006,
      "d": 5624.99775000001,
      "v": 82
    },
    {
      "midi": 69,
      "hit": false,
      "t": 113333.28800000006,
      "d": 2239.582437499994,
      "v": 76
    },
    {
      "midi": 38,
      "hit": false,
      "t": 113333.28800000006,
      "d": 2256.9435416666674,
      "v": 82
    },
    {
      "midi": 57,
      "hit": false,
      "t": 113333.28800000006,
      "d": 2274.304645833341,
      "v": 75
    },
    {
      "midi": 69,
      "hit": false,
      "t": 113333.28800000006,
      "d": 2239.582437499994,
      "v": 76
    },
    {
      "midi": 38,
      "hit": false,
      "t": 113333.28800000006,
      "d": 2256.9435416666674,
      "v": 82
    },
    {
      "midi": 57,
      "hit": false,
      "t": 113333.28800000006,
      "d": 2274.304645833341,
      "v": 75
    },
    {
      "midi": 59,
      "hit": false,
      "t": 116458.28675000007,
      "d": 2855.9016354166815,
      "v": 89
    },
    {
      "midi": 59,
      "hit": false,
      "t": 116458.28675000007,
      "d": 2855.9016354166815,
      "v": 89
    },
    {
      "midi": 62,
      "hit": false,
      "t": 116666.62000000008,
      "d": 2829.859979166664,
      "v": 89
    },
    {
      "midi": 43,
      "hit": false,
      "t": 116666.62000000008,
      "d": 3029.5126770833303,
      "v": 82
    },
    {
      "midi": 62,
      "hit": false,
      "t": 116666.62000000008,
      "d": 2829.859979166664,
      "v": 89
    },
    {
      "midi": 43,
      "hit": false,
      "t": 116666.62000000008,
      "d": 3029.5126770833303,
      "v": 82
    },
    {
      "midi": 55,
      "hit": false,
      "t": 119583.28550000009,
      "d": 8.68055208332953,
      "v": 76
    },
    {
      "midi": 60,
      "hit": false,
      "t": 119583.28550000009,
      "d": 251.73601041665825,
      "v": 93
    },
    {
      "midi": 55,
      "hit": false,
      "t": 119583.28550000009,
      "d": 8.68055208332953,
      "v": 76
    },
    {
      "midi": 60,
      "hit": false,
      "t": 119583.28550000009,
      "d": 251.73601041665825,
      "v": 93
    },
    {
      "midi": 59,
      "hit": false,
      "t": 119999.95200000008,
      "d": 1979.1658749999915,
      "v": 98
    },
    {
      "midi": 43,
      "hit": false,
      "t": 119999.95200000008,
      "d": 2013.8880833333242,
      "v": 82
    },
    {
      "midi": 55,
      "hit": false,
      "t": 119999.95200000008,
      "d": 2126.7352604166517,
      "v": 87
    },
    {
      "midi": 59,
      "hit": false,
      "t": 119999.95200000008,
      "d": 1979.1658749999915,
      "v": 98
    },
    {
      "midi": 43,
      "hit": false,
      "t": 119999.95200000008,
      "d": 2013.8880833333242,
      "v": 82
    },
    {
      "midi": 55,
      "hit": false,
      "t": 119999.95200000008,
      "d": 2126.7352604166517,
      "v": 87
    },
    {
      "midi": 57,
      "hit": false,
      "t": 123333.28400000006,
      "d": 3177.0820624999906,
      "v": 89
    },
    {
      "midi": 38,
      "hit": false,
      "t": 123333.28400000006,
      "d": 3194.4431666666496,
      "v": 91
    },
    {
      "midi": 62,
      "hit": false,
      "t": 123333.28400000006,
      "d": 3220.484822916653,
      "v": 97
    },
    {
      "midi": 66,
      "hit": false,
      "t": 123333.28400000006,
      "d": 3220.484822916653,
      "v": 89
    },
    {
      "midi": 57,
      "hit": false,
      "t": 123333.28400000006,
      "d": 3177.0820624999906,
      "v": 89
    },
    {
      "midi": 38,
      "hit": false,
      "t": 123333.28400000006,
      "d": 3194.4431666666496,
      "v": 91
    },
    {
      "midi": 62,
      "hit": false,
      "t": 123333.28400000006,
      "d": 3220.484822916653,
      "v": 97
    },
    {
      "midi": 66,
      "hit": false,
      "t": 123333.28400000006,
      "d": 3220.484822916653,
      "v": 89
    },
    {
      "midi": 38,
      "hit": false,
      "t": 126666.61600000005,
      "d": 2482.637895833337,
      "v": 87
    },
    {
      "midi": 69,
      "hit": false,
      "t": 126666.61600000005,
      "d": 2482.637895833337,
      "v": 83
    },
    {
      "midi": 62,
      "hit": false,
      "t": 126666.61600000005,
      "d": 2491.3184479166666,
      "v": 89
    },
    {
      "midi": 57,
      "hit": false,
      "t": 126666.61600000005,
      "d": 2499.998999999996,
      "v": 80
    },
    {
      "midi": 38,
      "hit": false,
      "t": 126666.61600000005,
      "d": 2482.637895833337,
      "v": 87
    },
    {
      "midi": 69,
      "hit": false,
      "t": 126666.61600000005,
      "d": 2482.637895833337,
      "v": 83
    },
    {
      "midi": 62,
      "hit": false,
      "t": 126666.61600000005,
      "d": 2491.3184479166666,
      "v": 89
    },
    {
      "midi": 57,
      "hit": false,
      "t": 126666.61600000005,
      "d": 2499.998999999996,
      "v": 80
    },
    {
      "midi": 62,
      "hit": false,
      "t": 129999.94800000005,
      "d": 2699.6516979166627,
      "v": 89
    },
    {
      "midi": 59,
      "hit": false,
      "t": 129999.94800000005,
      "d": 2708.332249999992,
      "v": 85
    },
    {
      "midi": 55,
      "hit": false,
      "t": 129999.94800000005,
      "d": 2847.221083333323,
      "v": 83
    },
    {
      "midi": 43,
      "hit": false,
      "t": 129999.94800000005,
      "d": 2925.3460520833178,
      "v": 81
    },
    {
      "midi": 62,
      "hit": false,
      "t": 129999.94800000005,
      "d": 2699.6516979166627,
      "v": 89
    },
    {
      "midi": 59,
      "hit": false,
      "t": 129999.94800000005,
      "d": 2708.332249999992,
      "v": 85
    },
    {
      "midi": 55,
      "hit": false,
      "t": 129999.94800000005,
      "d": 2847.221083333323,
      "v": 83
    },
    {
      "midi": 43,
      "hit": false,
      "t": 129999.94800000005,
      "d": 2925.3460520833178,
      "v": 81
    },
    {
      "midi": 60,
      "hit": false,
      "t": 132916.61350000004,
      "d": 295.13877083332045,
      "v": 95
    },
    {
      "midi": 55,
      "hit": false,
      "t": 132916.61350000004,
      "d": 355.90263541665627,
      "v": 83
    },
    {
      "midi": 60,
      "hit": false,
      "t": 132916.61350000004,
      "d": 295.13877083332045,
      "v": 95
    },
    {
      "midi": 55,
      "hit": false,
      "t": 132916.61350000004,
      "d": 355.90263541665627,
      "v": 83
    },
    {
      "midi": 59,
      "hit": false,
      "t": 133333.28000000003,
      "d": 3107.6376458333107,
      "v": 99
    },
    {
      "midi": 43,
      "hit": false,
      "t": 133333.28000000003,
      "d": 3124.9987499999697,
      "v": 89
    },
    {
      "midi": 55,
      "hit": false,
      "t": 133333.28000000003,
      "d": 3211.804270833294,
      "v": 89
    },
    {
      "midi": 59,
      "hit": false,
      "t": 133333.28000000003,
      "d": 3107.6376458333107,
      "v": 99
    },
    {
      "midi": 43,
      "hit": false,
      "t": 133333.28000000003,
      "d": 3124.9987499999697,
      "v": 89
    },
    {
      "midi": 55,
      "hit": false,
      "t": 133333.28000000003,
      "d": 3211.804270833294,
      "v": 89
    },
    {
      "midi": 55,
      "hit": false,
      "t": 136666.612,
      "d": 2517.3601041666698,
      "v": 84
    },
    {
      "midi": 59,
      "hit": false,
      "t": 136666.612,
      "d": 2526.0406562499993,
      "v": 87
    },
    {
      "midi": 62,
      "hit": false,
      "t": 136666.612,
      "d": 2526.0406562499993,
      "v": 89
    },
    {
      "midi": 43,
      "hit": false,
      "t": 136666.612,
      "d": 2534.721208333329,
      "v": 89
    },
    {
      "midi": 55,
      "hit": false,
      "t": 136666.612,
      "d": 2517.3601041666698,
      "v": 84
    },
    {
      "midi": 59,
      "hit": false,
      "t": 136666.612,
      "d": 2526.0406562499993,
      "v": 87
    },
    {
      "midi": 62,
      "hit": false,
      "t": 136666.612,
      "d": 2526.0406562499993,
      "v": 89
    },
    {
      "midi": 43,
      "hit": false,
      "t": 136666.612,
      "d": 2534.721208333329,
      "v": 89
    },
    {
      "midi": 62,
      "hit": false,
      "t": 139999.944,
      "d": 2552.082312499988,
      "v": 91
    },
    {
      "midi": 38,
      "hit": false,
      "t": 139999.944,
      "d": 2569.443416666647,
      "v": 89
    },
    {
      "midi": 57,
      "hit": false,
      "t": 139999.944,
      "d": 2569.443416666647,
      "v": 82
    },
    {
      "midi": 66,
      "hit": false,
      "t": 139999.944,
      "d": 2578.1239687499765,
      "v": 77
    },
    {
      "midi": 62,
      "hit": false,
      "t": 139999.944,
      "d": 2552.082312499988,
      "v": 91
    },
    {
      "midi": 38,
      "hit": false,
      "t": 139999.944,
      "d": 2569.443416666647,
      "v": 89
    },
    {
      "midi": 57,
      "hit": false,
      "t": 139999.944,
      "d": 2569.443416666647,
      "v": 82
    },
    {
      "midi": 66,
      "hit": false,
      "t": 139999.944,
      "d": 2578.1239687499765,
      "v": 77
    },
    {
      "midi": 62,
      "hit": false,
      "t": 143333.27599999995,
      "d": 2656.2489375000005,
      "v": 91
    },
    {
      "midi": 59,
      "hit": false,
      "t": 143333.27599999995,
      "d": 2673.6100416666595,
      "v": 86
    },
    {
      "midi": 43,
      "hit": false,
      "t": 143333.27599999995,
      "d": 2855.901635416667,
      "v": 80
    },
    {
      "midi": 55,
      "hit": false,
      "t": 143333.27599999995,
      "d": 2864.5821874999965,
      "v": 84
    },
    {
      "midi": 62,
      "hit": false,
      "t": 143333.27599999995,
      "d": 2656.2489375000005,
      "v": 91
    },
    {
      "midi": 59,
      "hit": false,
      "t": 143333.27599999995,
      "d": 2673.6100416666595,
      "v": 86
    },
    {
      "midi": 43,
      "hit": false,
      "t": 143333.27599999995,
      "d": 2855.901635416667,
      "v": 80
    },
    {
      "midi": 55,
      "hit": false,
      "t": 143333.27599999995,
      "d": 2864.5821874999965,
      "v": 84
    },
    {
      "midi": 60,
      "hit": false,
      "t": 146458.27474999995,
      "d": 69.44441666666535,
      "v": 85
    },
    {
      "midi": 55,
      "hit": false,
      "t": 146458.27474999995,
      "d": 2777.776666666643,
      "v": 67
    },
    {
      "midi": 60,
      "hit": false,
      "t": 146458.27474999995,
      "d": 69.44441666666535,
      "v": 85
    },
    {
      "midi": 55,
      "hit": false,
      "t": 146458.27474999995,
      "d": 2777.776666666643,
      "v": 67
    },
    {
      "midi": 59,
      "hit": false,
      "t": 146666.60799999995,
      "d": 2534.721208333329,
      "v": 93
    },
    {
      "midi": 43,
      "hit": false,
      "t": 146666.60799999995,
      "d": 2543.4017604166584,
      "v": 82
    },
    {
      "midi": 59,
      "hit": false,
      "t": 146666.60799999995,
      "d": 2534.721208333329,
      "v": 93
    },
    {
      "midi": 43,
      "hit": false,
      "t": 146666.60799999995,
      "d": 2543.4017604166584,
      "v": 82
    },
    {
      "midi": 64,
      "hit": false,
      "t": 149999.93999999992,
      "d": 2638.8878333333414,
      "v": 91
    },
    {
      "midi": 60,
      "hit": false,
      "t": 149999.93999999992,
      "d": 2664.92948958333,
      "v": 92
    },
    {
      "midi": 55,
      "hit": false,
      "t": 149999.93999999992,
      "d": 2847.2210833333374,
      "v": 89
    },
    {
      "midi": 36,
      "hit": false,
      "t": 149999.93999999992,
      "d": 3090.2765416666807,
      "v": 85
    },
    {
      "midi": 64,
      "hit": false,
      "t": 149999.93999999992,
      "d": 2638.8878333333414,
      "v": 91
    },
    {
      "midi": 60,
      "hit": false,
      "t": 149999.93999999992,
      "d": 2664.92948958333,
      "v": 92
    },
    {
      "midi": 55,
      "hit": false,
      "t": 149999.93999999992,
      "d": 2847.2210833333374,
      "v": 89
    },
    {
      "midi": 36,
      "hit": false,
      "t": 149999.93999999992,
      "d": 3090.2765416666807,
      "v": 85
    },
    {
      "midi": 59,
      "hit": false,
      "t": 152916.60549999992,
      "d": 104.16662500001257,
      "v": 92
    },
    {
      "midi": 55,
      "hit": false,
      "t": 152916.60549999992,
      "d": 217.01380208335468,
      "v": 85
    },
    {
      "midi": 59,
      "hit": false,
      "t": 152916.60549999992,
      "d": 104.16662500001257,
      "v": 92
    },
    {
      "midi": 55,
      "hit": false,
      "t": 152916.60549999992,
      "d": 217.01380208335468,
      "v": 85
    },
    {
      "midi": 55,
      "hit": false,
      "t": 153333.27199999994,
      "d": 2725.693354166666,
      "v": 92
    },
    {
      "midi": 60,
      "hit": false,
      "t": 153333.27199999994,
      "d": 2743.054458333325,
      "v": 99
    },
    {
      "midi": 36,
      "hit": false,
      "t": 153333.27199999994,
      "d": 2812.49887499999,
      "v": 75
    },
    {
      "midi": 55,
      "hit": false,
      "t": 153333.27199999994,
      "d": 2725.693354166666,
      "v": 92
    },
    {
      "midi": 60,
      "hit": false,
      "t": 153333.27199999994,
      "d": 2743.054458333325,
      "v": 99
    },
    {
      "midi": 36,
      "hit": false,
      "t": 153333.27199999994,
      "d": 2812.49887499999,
      "v": 75
    },
    {
      "midi": 62,
      "hit": false,
      "t": 156666.60399999993,
      "d": 2526.0406562499993,
      "v": 92
    },
    {
      "midi": 66,
      "hit": false,
      "t": 156666.60399999993,
      "d": 2664.92948958333,
      "v": 81
    },
    {
      "midi": 57,
      "hit": false,
      "t": 156666.60399999993,
      "d": 2821.1794270833198,
      "v": 86
    },
    {
      "midi": 38,
      "hit": false,
      "t": 156666.60399999993,
      "d": 2829.8599791666493,
      "v": 89
    },
    {
      "midi": 62,
      "hit": false,
      "t": 156666.60399999993,
      "d": 2526.0406562499993,
      "v": 92
    },
    {
      "midi": 66,
      "hit": false,
      "t": 156666.60399999993,
      "d": 2664.92948958333,
      "v": 81
    },
    {
      "midi": 57,
      "hit": false,
      "t": 156666.60399999993,
      "d": 2821.1794270833198,
      "v": 86
    },
    {
      "midi": 38,
      "hit": false,
      "t": 156666.60399999993,
      "d": 2829.8599791666493,
      "v": 89
    },
    {
      "midi": 57,
      "hit": false,
      "t": 159791.6027499999,
      "d": 52.083312500006286,
      "v": 53
    },
    {
      "midi": 38,
      "hit": false,
      "t": 159791.6027499999,
      "d": 104.16662500001257,
      "v": 67
    },
    {
      "midi": 64,
      "hit": false,
      "t": 159791.6027499999,
      "d": 121.52772916667163,
      "v": 91
    },
    {
      "midi": 57,
      "hit": false,
      "t": 159791.6027499999,
      "d": 52.083312500006286,
      "v": 53
    },
    {
      "midi": 38,
      "hit": false,
      "t": 159791.6027499999,
      "d": 104.16662500001257,
      "v": 67
    },
    {
      "midi": 64,
      "hit": false,
      "t": 159791.6027499999,
      "d": 121.52772916667163,
      "v": 91
    },
    {
      "midi": 64,
      "hit": false,
      "t": 159999.9359999999,
      "d": 60.76386458333582,
      "v": 76
    },
    {
      "midi": 38,
      "hit": false,
      "t": 159999.9359999999,
      "d": 2196.1796770833316,
      "v": 93
    },
    {
      "midi": 57,
      "hit": false,
      "t": 159999.9359999999,
      "d": 2213.5407812499907,
      "v": 42
    },
    {
      "midi": 66,
      "hit": false,
      "t": 159999.9359999999,
      "d": 2222.22133333332,
      "v": 93
    },
    {
      "midi": 64,
      "hit": false,
      "t": 159999.9359999999,
      "d": 60.76386458333582,
      "v": 76
    },
    {
      "midi": 38,
      "hit": false,
      "t": 159999.9359999999,
      "d": 2196.1796770833316,
      "v": 93
    },
    {
      "midi": 57,
      "hit": false,
      "t": 159999.9359999999,
      "d": 2213.5407812499907,
      "v": 42
    },
    {
      "midi": 66,
      "hit": false,
      "t": 159999.9359999999,
      "d": 2222.22133333332,
      "v": 93
    },
    {
      "midi": 59,
      "hit": false,
      "t": 163333.2679999999,
      "d": 2951.38770833335,
      "v": 92
    },
    {
      "midi": 43,
      "hit": false,
      "t": 163333.2679999999,
      "d": 3072.9154375000217,
      "v": 78
    },
    {
      "midi": 50,
      "hit": false,
      "t": 163333.2679999999,
      "d": 3116.3181979166984,
      "v": 82
    },
    {
      "midi": 55,
      "hit": false,
      "t": 163333.2679999999,
      "d": 5434.025604166673,
      "v": 85
    },
    {
      "midi": 59,
      "hit": false,
      "t": 163333.2679999999,
      "d": 2951.38770833335,
      "v": 92
    },
    {
      "midi": 43,
      "hit": false,
      "t": 163333.2679999999,
      "d": 3072.9154375000217,
      "v": 78
    },
    {
      "midi": 50,
      "hit": false,
      "t": 163333.2679999999,
      "d": 3116.3181979166984,
      "v": 82
    },
    {
      "midi": 55,
      "hit": false,
      "t": 163333.2679999999,
      "d": 5434.025604166673,
      "v": 85
    },
    {
      "midi": 60,
      "hit": false,
      "t": 166458.26674999992,
      "d": 95.48607291665394,
      "v": 82
    },
    {
      "midi": 60,
      "hit": false,
      "t": 166458.26674999992,
      "d": 95.48607291665394,
      "v": 82
    },
    {
      "midi": 50,
      "hit": false,
      "t": 166666.5999999999,
      "d": 2013.8880833333533,
      "v": 84
    },
    {
      "midi": 43,
      "hit": false,
      "t": 166666.5999999999,
      "d": 2031.2491875000123,
      "v": 84
    },
    {
      "midi": 59,
      "hit": false,
      "t": 166666.5999999999,
      "d": 2170.138020833343,
      "v": 99
    },
    {
      "midi": 50,
      "hit": false,
      "t": 166666.5999999999,
      "d": 2013.8880833333533,
      "v": 84
    },
    {
      "midi": 43,
      "hit": false,
      "t": 166666.5999999999,
      "d": 2031.2491875000123,
      "v": 84
    },
    {
      "midi": 59,
      "hit": false,
      "t": 166666.5999999999,
      "d": 2170.138020833343,
      "v": 99
    },
    {
      "midi": 64,
      "hit": false,
      "t": 169999.9319999999,
      "d": 2673.6100416666595,
      "v": 89
    },
    {
      "midi": 60,
      "hit": false,
      "t": 169999.9319999999,
      "d": 2717.0128020833363,
      "v": 89
    },
    {
      "midi": 55,
      "hit": false,
      "t": 169999.9319999999,
      "d": 2916.665500000003,
      "v": 82
    },
    {
      "midi": 36,
      "hit": false,
      "t": 169999.9319999999,
      "d": 3020.8321250000154,
      "v": 80
    },
    {
      "midi": 64,
      "hit": false,
      "t": 169999.9319999999,
      "d": 2673.6100416666595,
      "v": 89
    },
    {
      "midi": 60,
      "hit": false,
      "t": 169999.9319999999,
      "d": 2717.0128020833363,
      "v": 89
    },
    {
      "midi": 55,
      "hit": false,
      "t": 169999.9319999999,
      "d": 2916.665500000003,
      "v": 82
    },
    {
      "midi": 36,
      "hit": false,
      "t": 169999.9319999999,
      "d": 3020.8321250000154,
      "v": 80
    },
    {
      "midi": 55,
      "hit": false,
      "t": 173124.93074999994,
      "d": 69.44441666669445,
      "v": 82
    },
    {
      "midi": 59,
      "hit": false,
      "t": 173124.93074999994,
      "d": 69.44441666669445,
      "v": 94
    },
    {
      "midi": 55,
      "hit": false,
      "t": 173124.93074999994,
      "d": 69.44441666669445,
      "v": 82
    },
    {
      "midi": 59,
      "hit": false,
      "t": 173124.93074999994,
      "d": 69.44441666669445,
      "v": 94
    },
    {
      "midi": 36,
      "hit": false,
      "t": 173333.264,
      "d": 2621.5267291666532,
      "v": 76
    },
    {
      "midi": 60,
      "hit": false,
      "t": 173333.264,
      "d": 2638.8878333333123,
      "v": 97
    },
    {
      "midi": 55,
      "hit": false,
      "t": 173333.264,
      "d": 2777.776666666672,
      "v": 81
    },
    {
      "midi": 36,
      "hit": false,
      "t": 173333.264,
      "d": 2621.5267291666532,
      "v": 76
    },
    {
      "midi": 60,
      "hit": false,
      "t": 173333.264,
      "d": 2638.8878333333123,
      "v": 97
    },
    {
      "midi": 55,
      "hit": false,
      "t": 173333.264,
      "d": 2777.776666666672,
      "v": 81
    },
    {
      "midi": 59,
      "hit": false,
      "t": 176666.596,
      "d": 2439.235135416675,
      "v": 87
    },
    {
      "midi": 50,
      "hit": false,
      "t": 176666.596,
      "d": 2447.9156875000044,
      "v": 81
    },
    {
      "midi": 55,
      "hit": false,
      "t": 176666.596,
      "d": 2465.2767916666635,
      "v": 83
    },
    {
      "midi": 62,
      "hit": false,
      "t": 176666.596,
      "d": 2465.2767916666635,
      "v": 89
    },
    {
      "midi": 43,
      "hit": false,
      "t": 176666.596,
      "d": 2482.6378958333225,
      "v": 82
    },
    {
      "midi": 59,
      "hit": false,
      "t": 176666.596,
      "d": 2439.235135416675,
      "v": 87
    },
    {
      "midi": 50,
      "hit": false,
      "t": 176666.596,
      "d": 2447.9156875000044,
      "v": 81
    },
    {
      "midi": 55,
      "hit": false,
      "t": 176666.596,
      "d": 2465.2767916666635,
      "v": 83
    },
    {
      "midi": 62,
      "hit": false,
      "t": 176666.596,
      "d": 2465.2767916666635,
      "v": 89
    },
    {
      "midi": 43,
      "hit": false,
      "t": 176666.596,
      "d": 2482.6378958333225,
      "v": 82
    },
    {
      "midi": 62,
      "hit": false,
      "t": 179999.92799999999,
      "d": 2595.4850729166938,
      "v": 92
    },
    {
      "midi": 66,
      "hit": false,
      "t": 179999.92799999999,
      "d": 2612.846177083353,
      "v": 82
    },
    {
      "midi": 38,
      "hit": false,
      "t": 179999.92799999999,
      "d": 2638.8878333333414,
      "v": 84
    },
    {
      "midi": 57,
      "hit": false,
      "t": 179999.92799999999,
      "d": 2638.8878333333414,
      "v": 84
    },
    {
      "midi": 45,
      "hit": false,
      "t": 179999.92799999999,
      "d": 2647.568385416671,
      "v": 75
    },
    {
      "midi": 62,
      "hit": false,
      "t": 179999.92799999999,
      "d": 2595.4850729166938,
      "v": 92
    },
    {
      "midi": 66,
      "hit": false,
      "t": 179999.92799999999,
      "d": 2612.846177083353,
      "v": 82
    },
    {
      "midi": 38,
      "hit": false,
      "t": 179999.92799999999,
      "d": 2638.8878333333414,
      "v": 84
    },
    {
      "midi": 57,
      "hit": false,
      "t": 179999.92799999999,
      "d": 2638.8878333333414,
      "v": 84
    },
    {
      "midi": 45,
      "hit": false,
      "t": 179999.92799999999,
      "d": 2647.568385416671,
      "v": 75
    },
    {
      "midi": 62,
      "hit": false,
      "t": 183333.26,
      "d": 4418.401010416652,
      "v": 89
    },
    {
      "midi": 62,
      "hit": false,
      "t": 183333.26,
      "d": 4418.401010416652,
      "v": 89
    },
    {
      "midi": 55,
      "hit": false,
      "t": 186640.55034375,
      "d": 1102.4301145833451,
      "v": 39
    },
    {
      "midi": 59,
      "hit": false,
      "t": 186640.55034375,
      "d": 1102.4301145833451,
      "v": 72
    },
    {
      "midi": 55,
      "hit": false,
      "t": 186640.55034375,
      "d": 1102.4301145833451,
      "v": 39
    },
    {
      "midi": 59,
      "hit": false,
      "t": 186640.55034375,
      "d": 1102.4301145833451,
      "v": 72
    },
    {
      "midi": 43,
      "hit": false,
      "t": 186657.91144791665,
      "d": 1137.1523229166633,
      "v": 46
    },
    {
      "midi": 43,
      "hit": false,
      "t": 186657.91144791665,
      "d": 1137.1523229166633,
      "v": 46
    },
    {
      "midi": 50,
      "hit": false,
      "t": 187569.36941666665,
      "d": 199.6526979166665,
      "v": 16
    },
    {
      "midi": 50,
      "hit": false,
      "t": 187569.36941666665,
      "d": 199.6526979166665,
      "v": 16
    },
    {
      "midi": 55,
      "hit": false,
      "t": 188298.53579166665,
      "d": 902.7774166666495,
      "v": 67
    },
    {
      "midi": 55,
      "hit": false,
      "t": 188298.53579166665,
      "d": 902.7774166666495,
      "v": 67
    },
    {
      "midi": 62,
      "hit": false,
      "t": 188307.21634374998,
      "d": 737.8469270833302,
      "v": 92
    },
    {
      "midi": 62,
      "hit": false,
      "t": 188307.21634374998,
      "d": 737.8469270833302,
      "v": 92
    },
    {
      "midi": 59,
      "hit": false,
      "t": 189114.50768749998,
      "d": 86.80552083332441,
      "v": 85
    },
    {
      "midi": 62,
      "hit": false,
      "t": 189114.50768749998,
      "d": 104.16662499998347,
      "v": 86
    },
    {
      "midi": 59,
      "hit": false,
      "t": 189114.50768749998,
      "d": 86.80552083332441,
      "v": 85
    },
    {
      "midi": 62,
      "hit": false,
      "t": 189114.50768749998,
      "d": 104.16662499998347,
      "v": 86
    },
    {
      "midi": 57,
      "hit": false,
      "t": 189539.8547395833,
      "d": 321.18042708333815,
      "v": 55
    },
    {
      "midi": 57,
      "hit": false,
      "t": 189539.8547395833,
      "d": 321.18042708333815,
      "v": 55
    },
    {
      "midi": 38,
      "hit": false,
      "t": 189956.5212395833,
      "d": 1397.5688854166656,
      "v": 93
    },
    {
      "midi": 38,
      "hit": false,
      "t": 189956.5212395833,
      "d": 1397.5688854166656,
      "v": 93
    },
    {
      "midi": 62,
      "hit": false,
      "t": 189999.92399999994,
      "d": 1302.0828125000116,
      "v": 97
    },
    {
      "midi": 57,
      "hit": false,
      "t": 189999.92399999994,
      "d": 1319.4439166666707,
      "v": 89
    },
    {
      "midi": 66,
      "hit": false,
      "t": 189999.92399999994,
      "d": 1319.4439166666707,
      "v": 85
    },
    {
      "midi": 42,
      "hit": false,
      "t": 189999.92399999994,
      "d": 3272.568135416688,
      "v": 79
    },
    {
      "midi": 62,
      "hit": false,
      "t": 189999.92399999994,
      "d": 1302.0828125000116,
      "v": 97
    },
    {
      "midi": 57,
      "hit": false,
      "t": 189999.92399999994,
      "d": 1319.4439166666707,
      "v": 89
    },
    {
      "midi": 66,
      "hit": false,
      "t": 189999.92399999994,
      "d": 1319.4439166666707,
      "v": 85
    },
    {
      "midi": 42,
      "hit": false,
      "t": 189999.92399999994,
      "d": 3272.568135416688,
      "v": 79
    },
    {
      "midi": 57,
      "hit": false,
      "t": 193124.92274999997,
      "d": 2708.3322500000068,
      "v": 46
    },
    {
      "midi": 57,
      "hit": false,
      "t": 193124.92274999997,
      "d": 2708.3322500000068,
      "v": 46
    },
    {
      "midi": 38,
      "hit": false,
      "t": 193333.25599999996,
      "d": 2465.2767916666635,
      "v": 95
    },
    {
      "midi": 66,
      "hit": false,
      "t": 193333.25599999996,
      "d": 2499.9990000000107,
      "v": 77
    },
    {
      "midi": 62,
      "hit": false,
      "t": 193333.25599999996,
      "d": 2534.721208333358,
      "v": 82
    },
    {
      "midi": 38,
      "hit": false,
      "t": 193333.25599999996,
      "d": 2465.2767916666635,
      "v": 95
    },
    {
      "midi": 66,
      "hit": false,
      "t": 193333.25599999996,
      "d": 2499.9990000000107,
      "v": 77
    },
    {
      "midi": 62,
      "hit": false,
      "t": 193333.25599999996,
      "d": 2534.721208333358,
      "v": 82
    },
    {
      "midi": 69,
      "hit": false,
      "t": 193541.58924999996,
      "d": 164.9304895833193,
      "v": 60
    },
    {
      "midi": 69,
      "hit": false,
      "t": 193541.58924999996,
      "d": 164.9304895833193,
      "v": 60
    },
    {
      "midi": 69,
      "hit": false,
      "t": 193958.25574999995,
      "d": 1953.1242187500175,
      "v": 6
    },
    {
      "midi": 69,
      "hit": false,
      "t": 193958.25574999995,
      "d": 1953.1242187500175,
      "v": 6
    },
    {
      "midi": 55,
      "hit": false,
      "t": 196249.92149999997,
      "d": 269.09711458333186,
      "v": 49
    },
    {
      "midi": 55,
      "hit": false,
      "t": 196249.92149999997,
      "d": 269.09711458333186,
      "v": 49
    },
    {
      "midi": 62,
      "hit": false,
      "t": 196666.588,
      "d": 2421.8740312499867,
      "v": 94
    },
    {
      "midi": 59,
      "hit": false,
      "t": 196666.588,
      "d": 2534.721208333329,
      "v": 93
    },
    {
      "midi": 55,
      "hit": false,
      "t": 196666.588,
      "d": 2612.8461770833237,
      "v": 89
    },
    {
      "midi": 43,
      "hit": false,
      "t": 196666.588,
      "d": 2673.6100416666595,
      "v": 85
    },
    {
      "midi": 62,
      "hit": false,
      "t": 196666.588,
      "d": 2421.8740312499867,
      "v": 94
    },
    {
      "midi": 59,
      "hit": false,
      "t": 196666.588,
      "d": 2534.721208333329,
      "v": 93
    },
    {
      "midi": 55,
      "hit": false,
      "t": 196666.588,
      "d": 2612.8461770833237,
      "v": 89
    },
    {
      "midi": 43,
      "hit": false,
      "t": 196666.588,
      "d": 2673.6100416666595,
      "v": 85
    },
    {
      "midi": 60,
      "hit": false,
      "t": 199791.58675,
      "d": 69.44441666666535,
      "v": 94
    },
    {
      "midi": 55,
      "hit": false,
      "t": 199791.58675,
      "d": 86.80552083332441,
      "v": 81
    },
    {
      "midi": 60,
      "hit": false,
      "t": 199791.58675,
      "d": 69.44441666666535,
      "v": 94
    },
    {
      "midi": 55,
      "hit": false,
      "t": 199791.58675,
      "d": 86.80552083332441,
      "v": 81
    },
    {
      "midi": 43,
      "hit": false,
      "t": 199999.91999999998,
      "d": 1770.832624999981,
      "v": 89
    },
    {
      "midi": 59,
      "hit": false,
      "t": 199999.91999999998,
      "d": 1770.832624999981,
      "v": 101
    },
    {
      "midi": 55,
      "hit": false,
      "t": 199999.91999999998,
      "d": 1796.8742812499695,
      "v": 78
    },
    {
      "midi": 43,
      "hit": false,
      "t": 199999.91999999998,
      "d": 1770.832624999981,
      "v": 89
    },
    {
      "midi": 59,
      "hit": false,
      "t": 199999.91999999998,
      "d": 1770.832624999981,
      "v": 101
    },
    {
      "midi": 55,
      "hit": false,
      "t": 199999.91999999998,
      "d": 1796.8742812499695,
      "v": 78
    },
    {
      "midi": 66,
      "hit": false,
      "t": 203333.25199999995,
      "d": 3064.234885416663,
      "v": 85
    },
    {
      "midi": 57,
      "hit": false,
      "t": 203333.25199999995,
      "d": 3081.595989583322,
      "v": 89
    },
    {
      "midi": 62,
      "hit": false,
      "t": 203333.25199999995,
      "d": 3090.2765416666516,
      "v": 95
    },
    {
      "midi": 42,
      "hit": false,
      "t": 203333.25199999995,
      "d": 3133.6793020833284,
      "v": 77
    },
    {
      "midi": 66,
      "hit": false,
      "t": 203333.25199999995,
      "d": 3064.234885416663,
      "v": 85
    },
    {
      "midi": 57,
      "hit": false,
      "t": 203333.25199999995,
      "d": 3081.595989583322,
      "v": 89
    },
    {
      "midi": 62,
      "hit": false,
      "t": 203333.25199999995,
      "d": 3090.2765416666516,
      "v": 95
    },
    {
      "midi": 42,
      "hit": false,
      "t": 203333.25199999995,
      "d": 3133.6793020833284,
      "v": 77
    },
    {
      "midi": 57,
      "hit": false,
      "t": 206458.25074999995,
      "d": 52.083312500006286,
      "v": 76
    },
    {
      "midi": 62,
      "hit": false,
      "t": 206458.25074999995,
      "d": 60.76386458333582,
      "v": 91
    },
    {
      "midi": 69,
      "hit": false,
      "t": 206458.25074999995,
      "d": 69.44441666666535,
      "v": 75
    },
    {
      "midi": 57,
      "hit": false,
      "t": 206458.25074999995,
      "d": 52.083312500006286,
      "v": 76
    },
    {
      "midi": 62,
      "hit": false,
      "t": 206458.25074999995,
      "d": 60.76386458333582,
      "v": 91
    },
    {
      "midi": 69,
      "hit": false,
      "t": 206458.25074999995,
      "d": 69.44441666666535,
      "v": 75
    },
    {
      "midi": 38,
      "hit": false,
      "t": 206666.58399999994,
      "d": 2569.443416666705,
      "v": 91
    },
    {
      "midi": 62,
      "hit": false,
      "t": 206666.58399999994,
      "d": 2586.804520833364,
      "v": 95
    },
    {
      "midi": 69,
      "hit": false,
      "t": 206666.58399999994,
      "d": 2612.846177083353,
      "v": 81
    },
    {
      "midi": 38,
      "hit": false,
      "t": 206666.58399999994,
      "d": 2569.443416666705,
      "v": 91
    },
    {
      "midi": 62,
      "hit": false,
      "t": 206666.58399999994,
      "d": 2586.804520833364,
      "v": 95
    },
    {
      "midi": 69,
      "hit": false,
      "t": 206666.58399999994,
      "d": 2612.846177083353,
      "v": 81
    },
    {
      "midi": 55,
      "hit": false,
      "t": 209583.24949999998,
      "d": 277.7776666666614,
      "v": 57
    },
    {
      "midi": 55,
      "hit": false,
      "t": 209583.24949999998,
      "d": 277.7776666666614,
      "v": 57
    },
    {
      "midi": 59,
      "hit": false,
      "t": 209999.91599999997,
      "d": 2222.22133333332,
      "v": 94
    },
    {
      "midi": 62,
      "hit": false,
      "t": 209999.91599999997,
      "d": 2222.22133333332,
      "v": 92
    },
    {
      "midi": 55,
      "hit": false,
      "t": 209999.91599999997,
      "d": 2291.6657499999856,
      "v": 89
    },
    {
      "midi": 50,
      "hit": false,
      "t": 209999.91599999997,
      "d": 2960.0682604166504,
      "v": 89
    },
    {
      "midi": 43,
      "hit": false,
      "t": 209999.91599999997,
      "d": 3124.9987499999697,
      "v": 89
    },
    {
      "midi": 59,
      "hit": false,
      "t": 209999.91599999997,
      "d": 2222.22133333332,
      "v": 94
    },
    {
      "midi": 62,
      "hit": false,
      "t": 209999.91599999997,
      "d": 2222.22133333332,
      "v": 92
    },
    {
      "midi": 55,
      "hit": false,
      "t": 209999.91599999997,
      "d": 2291.6657499999856,
      "v": 89
    },
    {
      "midi": 50,
      "hit": false,
      "t": 209999.91599999997,
      "d": 2960.0682604166504,
      "v": 89
    },
    {
      "midi": 43,
      "hit": false,
      "t": 209999.91599999997,
      "d": 3124.9987499999697,
      "v": 89
    },
    {
      "midi": 60,
      "hit": false,
      "t": 213124.91474999994,
      "d": 78.12496874999488,
      "v": 95
    },
    {
      "midi": 55,
      "hit": false,
      "t": 213124.91474999994,
      "d": 86.80552083332441,
      "v": 79
    },
    {
      "midi": 60,
      "hit": false,
      "t": 213124.91474999994,
      "d": 78.12496874999488,
      "v": 95
    },
    {
      "midi": 55,
      "hit": false,
      "t": 213124.91474999994,
      "d": 86.80552083332441,
      "v": 79
    },
    {
      "midi": 60,
      "hit": false,
      "t": 213333.24799999993,
      "d": 34.722208333347226,
      "v": 97
    },
    {
      "midi": 59,
      "hit": false,
      "t": 213333.24799999993,
      "d": 1987.8464270833356,
      "v": 97
    },
    {
      "midi": 55,
      "hit": false,
      "t": 213333.24799999993,
      "d": 2005.2075312499946,
      "v": 85
    },
    {
      "midi": 43,
      "hit": false,
      "t": 213333.24799999993,
      "d": 2031.2491874999832,
      "v": 91
    },
    {
      "midi": 60,
      "hit": false,
      "t": 213333.24799999993,
      "d": 34.722208333347226,
      "v": 97
    },
    {
      "midi": 59,
      "hit": false,
      "t": 213333.24799999993,
      "d": 1987.8464270833356,
      "v": 97
    },
    {
      "midi": 55,
      "hit": false,
      "t": 213333.24799999993,
      "d": 2005.2075312499946,
      "v": 85
    },
    {
      "midi": 43,
      "hit": false,
      "t": 213333.24799999993,
      "d": 2031.2491874999832,
      "v": 91
    },
    {
      "midi": 66,
      "hit": false,
      "t": 216666.57999999993,
      "d": 2986.109916666668,
      "v": 90
    },
    {
      "midi": 62,
      "hit": false,
      "t": 216666.57999999993,
      "d": 3003.471020833327,
      "v": 98
    },
    {
      "midi": 57,
      "hit": false,
      "t": 216666.57999999993,
      "d": 3090.2765416666516,
      "v": 89
    },
    {
      "midi": 42,
      "hit": false,
      "t": 216666.57999999993,
      "d": 3211.8042708333232,
      "v": 76
    },
    {
      "midi": 66,
      "hit": false,
      "t": 216666.57999999993,
      "d": 2986.109916666668,
      "v": 90
    },
    {
      "midi": 62,
      "hit": false,
      "t": 216666.57999999993,
      "d": 3003.471020833327,
      "v": 98
    },
    {
      "midi": 57,
      "hit": false,
      "t": 216666.57999999993,
      "d": 3090.2765416666516,
      "v": 89
    },
    {
      "midi": 42,
      "hit": false,
      "t": 216666.57999999993,
      "d": 3211.8042708333232,
      "v": 76
    },
    {
      "midi": 65,
      "hit": false,
      "t": 219791.57874999993,
      "d": 60.76386458333582,
      "v": 89
    },
    {
      "midi": 57,
      "hit": false,
      "t": 219791.57874999993,
      "d": 112.847177083313,
      "v": 66
    },
    {
      "midi": 65,
      "hit": false,
      "t": 219791.57874999993,
      "d": 60.76386458333582,
      "v": 89
    },
    {
      "midi": 57,
      "hit": false,
      "t": 219791.57874999993,
      "d": 112.847177083313,
      "v": 66
    },
    {
      "midi": 42,
      "hit": false,
      "t": 219999.9119999999,
      "d": 2074.651947916689,
      "v": 73
    },
    {
      "midi": 66,
      "hit": false,
      "t": 219999.9119999999,
      "d": 2083.3325000000186,
      "v": 93
    },
    {
      "midi": 57,
      "hit": false,
      "t": 219999.9119999999,
      "d": 2118.054708333366,
      "v": 72
    },
    {
      "midi": 42,
      "hit": false,
      "t": 219999.9119999999,
      "d": 2074.651947916689,
      "v": 73
    },
    {
      "midi": 66,
      "hit": false,
      "t": 219999.9119999999,
      "d": 2083.3325000000186,
      "v": 93
    },
    {
      "midi": 57,
      "hit": false,
      "t": 219999.9119999999,
      "d": 2118.054708333366,
      "v": 72
    },
    {
      "midi": 59,
      "hit": false,
      "t": 223333.24399999995,
      "d": 2847.2210833333374,
      "v": 91
    },
    {
      "midi": 62,
      "hit": false,
      "t": 223333.24399999995,
      "d": 2951.38770833335,
      "v": 89
    },
    {
      "midi": 55,
      "hit": false,
      "t": 223333.24399999995,
      "d": 2986.1099166666972,
      "v": 89
    },
    {
      "midi": 43,
      "hit": false,
      "t": 223333.24399999995,
      "d": 3064.234885416692,
      "v": 76
    },
    {
      "midi": 50,
      "hit": false,
      "t": 223333.24399999995,
      "d": 3064.234885416692,
      "v": 85
    },
    {
      "midi": 59,
      "hit": false,
      "t": 223333.24399999995,
      "d": 2847.2210833333374,
      "v": 91
    },
    {
      "midi": 62,
      "hit": false,
      "t": 223333.24399999995,
      "d": 2951.38770833335,
      "v": 89
    },
    {
      "midi": 55,
      "hit": false,
      "t": 223333.24399999995,
      "d": 2986.1099166666972,
      "v": 89
    },
    {
      "midi": 43,
      "hit": false,
      "t": 223333.24399999995,
      "d": 3064.234885416692,
      "v": 76
    },
    {
      "midi": 50,
      "hit": false,
      "t": 223333.24399999995,
      "d": 3064.234885416692,
      "v": 85
    },
    {
      "midi": 55,
      "hit": false,
      "t": 226458.24274999998,
      "d": 60.76386458333582,
      "v": 64
    },
    {
      "midi": 60,
      "hit": false,
      "t": 226458.24274999998,
      "d": 69.44441666666535,
      "v": 89
    },
    {
      "midi": 55,
      "hit": false,
      "t": 226458.24274999998,
      "d": 60.76386458333582,
      "v": 64
    },
    {
      "midi": 60,
      "hit": false,
      "t": 226458.24274999998,
      "d": 69.44441666666535,
      "v": 89
    },
    {
      "midi": 59,
      "hit": false,
      "t": 226666.576,
      "d": 2256.9435416666674,
      "v": 99
    },
    {
      "midi": 55,
      "hit": false,
      "t": 226666.576,
      "d": 2274.3046458333265,
      "v": 89
    },
    {
      "midi": 50,
      "hit": false,
      "t": 226666.576,
      "d": 2291.6657499999856,
      "v": 84
    },
    {
      "midi": 43,
      "hit": false,
      "t": 226666.576,
      "d": 2335.0685104166623,
      "v": 79
    },
    {
      "midi": 59,
      "hit": false,
      "t": 226666.576,
      "d": 2256.9435416666674,
      "v": 99
    },
    {
      "midi": 55,
      "hit": false,
      "t": 226666.576,
      "d": 2274.3046458333265,
      "v": 89
    },
    {
      "midi": 50,
      "hit": false,
      "t": 226666.576,
      "d": 2291.6657499999856,
      "v": 84
    },
    {
      "midi": 43,
      "hit": false,
      "t": 226666.576,
      "d": 2335.0685104166623,
      "v": 79
    },
    {
      "midi": 62,
      "hit": false,
      "t": 229999.908,
      "d": 1345.4855729166593,
      "v": 97
    },
    {
      "midi": 66,
      "hit": false,
      "t": 229999.908,
      "d": 1701.3882083333156,
      "v": 89
    },
    {
      "midi": 42,
      "hit": false,
      "t": 229999.908,
      "d": 3098.957093749981,
      "v": 79
    },
    {
      "midi": 57,
      "hit": false,
      "t": 229999.908,
      "d": 3229.165374999953,
      "v": 89
    },
    {
      "midi": 62,
      "hit": false,
      "t": 229999.908,
      "d": 1345.4855729166593,
      "v": 97
    },
    {
      "midi": 66,
      "hit": false,
      "t": 229999.908,
      "d": 1701.3882083333156,
      "v": 89
    },
    {
      "midi": 42,
      "hit": false,
      "t": 229999.908,
      "d": 3098.957093749981,
      "v": 79
    },
    {
      "midi": 57,
      "hit": false,
      "t": 229999.908,
      "d": 3229.165374999953,
      "v": 89
    },
    {
      "midi": 64,
      "hit": false,
      "t": 233124.90674999997,
      "d": 95.48607291665394,
      "v": 89
    },
    {
      "midi": 64,
      "hit": false,
      "t": 233124.90674999997,
      "d": 95.48607291665394,
      "v": 89
    },
    {
      "midi": 64,
      "hit": false,
      "t": 233333.23999999993,
      "d": 34.722208333347226,
      "v": 87
    },
    {
      "midi": 42,
      "hit": false,
      "t": 233333.23999999993,
      "d": 2508.6795520833693,
      "v": 73
    },
    {
      "midi": 57,
      "hit": false,
      "t": 233333.23999999993,
      "d": 2534.721208333358,
      "v": 37
    },
    {
      "midi": 66,
      "hit": false,
      "t": 233333.23999999993,
      "d": 2534.721208333358,
      "v": 98
    },
    {
      "midi": 64,
      "hit": false,
      "t": 233333.23999999993,
      "d": 34.722208333347226,
      "v": 87
    },
    {
      "midi": 42,
      "hit": false,
      "t": 233333.23999999993,
      "d": 2508.6795520833693,
      "v": 73
    },
    {
      "midi": 57,
      "hit": false,
      "t": 233333.23999999993,
      "d": 2534.721208333358,
      "v": 37
    },
    {
      "midi": 66,
      "hit": false,
      "t": 233333.23999999993,
      "d": 2534.721208333358,
      "v": 98
    },
    {
      "midi": 59,
      "hit": false,
      "t": 236666.57199999996,
      "d": 2673.6100416666886,
      "v": 86
    },
    {
      "midi": 62,
      "hit": false,
      "t": 236666.57199999996,
      "d": 2673.6100416666886,
      "v": 86
    },
    {
      "midi": 55,
      "hit": false,
      "t": 236666.57199999996,
      "d": 2812.4988750000193,
      "v": 83
    },
    {
      "midi": 43,
      "hit": false,
      "t": 236666.57199999996,
      "d": 2907.9849479166733,
      "v": 68
    },
    {
      "midi": 50,
      "hit": false,
      "t": 236666.57199999996,
      "d": 2951.38770833335,
      "v": 81
    },
    {
      "midi": 59,
      "hit": false,
      "t": 236666.57199999996,
      "d": 2673.6100416666886,
      "v": 86
    },
    {
      "midi": 62,
      "hit": false,
      "t": 236666.57199999996,
      "d": 2673.6100416666886,
      "v": 86
    },
    {
      "midi": 55,
      "hit": false,
      "t": 236666.57199999996,
      "d": 2812.4988750000193,
      "v": 83
    },
    {
      "midi": 43,
      "hit": false,
      "t": 236666.57199999996,
      "d": 2907.9849479166733,
      "v": 68
    },
    {
      "midi": 50,
      "hit": false,
      "t": 236666.57199999996,
      "d": 2951.38770833335,
      "v": 81
    },
    {
      "midi": 60,
      "hit": false,
      "t": 239791.57074999996,
      "d": 69.44441666666535,
      "v": 85
    },
    {
      "midi": 55,
      "hit": false,
      "t": 239791.57074999996,
      "d": 3350.693104166683,
      "v": 79
    },
    {
      "midi": 60,
      "hit": false,
      "t": 239791.57074999996,
      "d": 69.44441666666535,
      "v": 85
    },
    {
      "midi": 55,
      "hit": false,
      "t": 239791.57074999996,
      "d": 3350.693104166683,
      "v": 79
    },
    {
      "midi": 59,
      "hit": false,
      "t": 239999.90399999995,
      "d": 3194.4431666666933,
      "v": 93
    },
    {
      "midi": 43,
      "hit": false,
      "t": 239999.90399999995,
      "d": 3229.1653750000405,
      "v": 81
    },
    {
      "midi": 50,
      "hit": false,
      "t": 239999.90399999995,
      "d": 3229.1653750000405,
      "v": 81
    },
    {
      "midi": 59,
      "hit": false,
      "t": 239999.90399999995,
      "d": 3194.4431666666933,
      "v": 93
    },
    {
      "midi": 43,
      "hit": false,
      "t": 239999.90399999995,
      "d": 3229.1653750000405,
      "v": 81
    },
    {
      "midi": 50,
      "hit": false,
      "t": 239999.90399999995,
      "d": 3229.1653750000405,
      "v": 81
    }
  ]
}